<svg xmlns="http://www.w3.org/2000/svg" xmlns:xlink="http://www.w3.org/1999/xlink" viewBox="0 0 347.54 466.3"><defs><style>.cls-1{fill:none;stroke:#e9f4d1;stroke-miterlimit:10;stroke-dasharray:3 1;}.cls-2{fill:#fff;}.cls-3{fill:#e9e9e9;}.cls-10,.cls-11,.cls-12,.cls-13,.cls-14,.cls-15,.cls-16,.cls-17,.cls-18,.cls-19,.cls-20,.cls-21,.cls-22,.cls-23,.cls-24,.cls-25,.cls-26,.cls-4,.cls-5,.cls-6,.cls-7,.cls-8,.cls-9{fill-rule:evenodd;}.cls-4{fill:url(#Degradado_sin_nombre_16);}.cls-5{fill:url(#Degradado_sin_nombre_16-2);}.cls-6{fill:url(#Degradado_sin_nombre_16-3);}.cls-7{fill:url(#Degradado_sin_nombre_16-4);}.cls-8{fill:url(#Degradado_sin_nombre_16-5);}.cls-9{fill:url(#Degradado_sin_nombre_16-6);}.cls-10{fill:url(#Degradado_sin_nombre_16-7);}.cls-11{fill:url(#Degradado_sin_nombre_16-8);}.cls-12{fill:url(#Degradado_sin_nombre_16-9);}.cls-13{fill:url(#Degradado_sin_nombre_16-10);}.cls-14{fill:url(#Degradado_sin_nombre_16-11);}.cls-15{fill:url(#Degradado_sin_nombre_16-12);}.cls-16{fill:url(#Degradado_sin_nombre_16-13);}.cls-17{fill:url(#Degradado_sin_nombre_16-14);}.cls-18{fill:url(#Degradado_sin_nombre_16-15);}.cls-19{fill:url(#Degradado_sin_nombre_16-16);}.cls-20{fill:url(#Degradado_sin_nombre_16-17);}.cls-21{fill:url(#Degradado_sin_nombre_16-18);}.cls-22{fill:url(#Degradado_sin_nombre_16-19);}.cls-23{fill:url(#Degradado_sin_nombre_16-20);}.cls-24{fill:url(#Degradado_sin_nombre_16-21);}.cls-25{fill:url(#Degradado_sin_nombre_16-22);}.cls-26{fill:url(#Degradado_sin_nombre_16-23);}</style><linearGradient id="Degradado_sin_nombre_16" x1="190.81" y1="58.67" x2="195.07" y2="51.29" gradientUnits="userSpaceOnUse"><stop offset="0" stop-color="#97973e"/><stop offset="0.27" stop-color="#93933b"/><stop offset="0.54" stop-color="#868632"/><stop offset="0.82" stop-color="#727224"/><stop offset="1" stop-color="#606017"/></linearGradient><linearGradient id="Degradado_sin_nombre_16-2" x1="190.81" y1="149.81" x2="195.07" y2="142.44" xlink:href="#Degradado_sin_nombre_16"/><linearGradient id="Degradado_sin_nombre_16-3" x1="190.81" y1="195.89" x2="195.07" y2="188.51" xlink:href="#Degradado_sin_nombre_16"/><linearGradient id="Degradado_sin_nombre_16-4" x1="190.81" y1="332.11" x2="195.07" y2="324.74" xlink:href="#Degradado_sin_nombre_16"/><linearGradient id="Degradado_sin_nombre_16-5" x1="233.76" y1="16.28" x2="242.28" y2="1.53" xlink:href="#Degradado_sin_nombre_16"/><linearGradient id="Degradado_sin_nombre_16-6" x1="235.01" y1="105.27" x2="241.03" y2="94.83" xlink:href="#Degradado_sin_nombre_16"/><linearGradient id="Degradado_sin_nombre_16-7" x1="235.89" y1="149.81" x2="240.15" y2="142.44" xlink:href="#Degradado_sin_nombre_16"/><linearGradient id="Degradado_sin_nombre_16-8" x1="235.89" y1="195.89" x2="240.15" y2="188.51" xlink:href="#Degradado_sin_nombre_16"/><linearGradient id="Degradado_sin_nombre_16-9" x1="235.89" y1="240.96" x2="240.15" y2="233.59" xlink:href="#Degradado_sin_nombre_16"/><linearGradient id="Degradado_sin_nombre_16-10" x1="235.89" y1="287.04" x2="240.15" y2="279.66" xlink:href="#Degradado_sin_nombre_16"/><linearGradient id="Degradado_sin_nombre_16-11" x1="235.01" y1="333.64" x2="241.03" y2="323.21" xlink:href="#Degradado_sin_nombre_16"/><linearGradient id="Degradado_sin_nombre_16-12" x1="235.89" y1="377.19" x2="240.15" y2="369.81" xlink:href="#Degradado_sin_nombre_16"/><linearGradient id="Degradado_sin_nombre_16-13" x1="235.01" y1="423.79" x2="241.03" y2="413.36" xlink:href="#Degradado_sin_nombre_16"/><linearGradient id="Degradado_sin_nombre_16-14" x1="279.83" y1="16.28" x2="288.35" y2="1.53" xlink:href="#Degradado_sin_nombre_16"/><linearGradient id="Degradado_sin_nombre_16-15" x1="278.83" y1="62.35" x2="287.35" y2="47.6" xlink:href="#Degradado_sin_nombre_16"/><linearGradient id="Degradado_sin_nombre_16-16" x1="280.08" y1="105.27" x2="286.1" y2="94.83" xlink:href="#Degradado_sin_nombre_16"/><linearGradient id="Degradado_sin_nombre_16-17" x1="280.08" y1="151.34" x2="286.1" y2="140.91" xlink:href="#Degradado_sin_nombre_16"/><linearGradient id="Degradado_sin_nombre_16-18" x1="280.08" y1="197.42" x2="286.1" y2="186.98" xlink:href="#Degradado_sin_nombre_16"/><linearGradient id="Degradado_sin_nombre_16-19" x1="279.4" y1="243.67" x2="286.78" y2="230.89" xlink:href="#Degradado_sin_nombre_16"/><linearGradient id="Degradado_sin_nombre_16-20" x1="280.08" y1="288.57" x2="286.1" y2="278.13" xlink:href="#Degradado_sin_nombre_16"/><linearGradient id="Degradado_sin_nombre_16-21" x1="280.96" y1="377.19" x2="285.22" y2="369.81" xlink:href="#Degradado_sin_nombre_16"/><linearGradient id="Degradado_sin_nombre_16-22" x1="330.5" y1="8.52" x2="347.54" y2="8.52" xlink:href="#Degradado_sin_nombre_16"/><linearGradient id="Degradado_sin_nombre_16-23" x1="312.92" y1="11.02" x2="324.97" y2="11.02" xlink:href="#Degradado_sin_nombre_16"/></defs><title>morelos</title><g id="Capa_2" data-name="Capa 2"><g id="atención_morelos" data-name="atención morelos"><polyline class="cls-1" points="238.55 419.04 192.55 419.04 192.55 373.88 192.55 54.12 192.55 8.76 283.55 8.76 283.55 54.8 283.55 419.04 238.55 419.04 238.55 8.76"/><line class="cls-1" x1="192.87" y1="373.54" x2="283.87" y2="373.54"/><line class="cls-1" x1="283.87" y1="54.54" x2="192.87" y2="54.54"/><line class="cls-1" x1="192.19" y1="100.28" x2="283.55" y2="100.28"/><line class="cls-1" x1="283.87" y1="145.54" x2="192.87" y2="145.54"/><line class="cls-1" x1="192.19" y1="192.17" x2="283.55" y2="192.17"/><line class="cls-1" x1="283.71" y1="237.61" x2="192.19" y2="237.61"/><line class="cls-1" x1="192.19" y1="283.05" x2="283.55" y2="283.05"/><line class="cls-1" x1="283.55" y1="328.49" x2="192.19" y2="328.49"/><path class="cls-2" d="M92.83,8.16a6.91,6.91,0,0,1-.39,2.38,5.15,5.15,0,0,1-1.11,1.82,4.83,4.83,0,0,1-1.7,1.17,6.05,6.05,0,0,1-4.38,0,5,5,0,0,1-1.71-1.17,5.28,5.28,0,0,1-1.1-1.82A6.68,6.68,0,0,1,82,8.16a6.72,6.72,0,0,1,.4-2.38A5.37,5.37,0,0,1,83.54,4a5.11,5.11,0,0,1,1.71-1.17,5.54,5.54,0,0,1,2.18-.42,5.75,5.75,0,0,1,2.2.41A4.86,4.86,0,0,1,91.33,4a5.15,5.15,0,0,1,1.11,1.82A7,7,0,0,1,92.83,8.16Zm-.85,0A6.71,6.71,0,0,0,91.66,6a4.59,4.59,0,0,0-.93-1.6,3.9,3.9,0,0,0-1.43-1,4.72,4.72,0,0,0-1.87-.35,4.61,4.61,0,0,0-1.84.35,3.93,3.93,0,0,0-1.44,1A4.61,4.61,0,0,0,83.21,6a6.44,6.44,0,0,0-.33,2.13,6.44,6.44,0,0,0,.33,2.13,4.61,4.61,0,0,0,.94,1.6,4.06,4.06,0,0,0,1.44,1,5,5,0,0,0,1.84.34,5.1,5.1,0,0,0,1.87-.34,4,4,0,0,0,1.43-1,4.59,4.59,0,0,0,.93-1.6A6.71,6.71,0,0,0,92,8.16Z"/><path class="cls-2" d="M100.35,6.93l-.07.06a.18.18,0,0,1-.11,0,.35.35,0,0,1-.21-.11,2.9,2.9,0,0,0-.38-.23A2.47,2.47,0,0,0,99,6.44a2.9,2.9,0,0,0-.84-.11,2.77,2.77,0,0,0-1.22.25,2.37,2.37,0,0,0-.9.7,3.25,3.25,0,0,0-.55,1.1,5.06,5.06,0,0,0-.19,1.46,5.23,5.23,0,0,0,.19,1.49,3.21,3.21,0,0,0,.56,1.09,2.37,2.37,0,0,0,.87.67,2.64,2.64,0,0,0,1.14.24,2.87,2.87,0,0,0,1.6-.44,2.45,2.45,0,0,0,.4-.29.44.44,0,0,1,.24-.14.21.21,0,0,1,.16.08l.2.26a2.19,2.19,0,0,1-.46.45,4.72,4.72,0,0,1-.63.36,4.33,4.33,0,0,1-.77.23,4,4,0,0,1-.86.09,3.44,3.44,0,0,1-1.38-.28,2.93,2.93,0,0,1-1.08-.8,3.69,3.69,0,0,1-.71-1.28,5.48,5.48,0,0,1-.25-1.73,5.52,5.52,0,0,1,.24-1.67,3.65,3.65,0,0,1,.7-1.29A3.18,3.18,0,0,1,96.59,6,4,4,0,0,1,99.5,6a3.56,3.56,0,0,1,1,.67Z"/><path class="cls-2" d="M103,5.86V11a2.7,2.7,0,0,0,.51,1.75,1.9,1.9,0,0,0,1.57.64,2.76,2.76,0,0,0,1.45-.4,4.3,4.3,0,0,0,1.22-1.09v-6h.76v8H108c-.15,0-.23-.07-.23-.21l-.07-1.18a4.44,4.44,0,0,1-1.28,1.1,3.18,3.18,0,0,1-1.62.42,3,3,0,0,1-1.16-.21,2.16,2.16,0,0,1-.82-.6,2.57,2.57,0,0,1-.5-.94,4.39,4.39,0,0,1-.17-1.25V5.86Z"/><path class="cls-2" d="M112.37,3.12a.66.66,0,0,1-.06.27,1.12,1.12,0,0,1-.16.22.86.86,0,0,1-.22.15.86.86,0,0,1-.27.05.87.87,0,0,1-.28-.05.86.86,0,0,1-.22-.15.62.62,0,0,1-.15-.22.66.66,0,0,1-.06-.27.67.67,0,0,1,.06-.28.57.57,0,0,1,.15-.23.86.86,0,0,1,.22-.15.66.66,0,0,1,.28,0,.65.65,0,0,1,.27,0,.86.86,0,0,1,.22.15.94.94,0,0,1,.16.23A.67.67,0,0,1,112.37,3.12ZM112,5.86v8h-.76v-8Z"/><path class="cls-2" d="M117,14a1.69,1.69,0,0,1-1.25-.45,1.88,1.88,0,0,1-.45-1.38V6.68h-1.14a.25.25,0,0,1-.15,0,.2.2,0,0,1,0-.14V6.2l1.36-.1.19-2.85a.14.14,0,0,1,.06-.12.16.16,0,0,1,.13-.06h.36v3h2.51v.57h-2.51v5.4a1.57,1.57,0,0,0,.09.56.94.94,0,0,0,.23.39.91.91,0,0,0,.35.22,1.18,1.18,0,0,0,.43.08,1.22,1.22,0,0,0,.49-.09,1.93,1.93,0,0,0,.61-.37.31.31,0,0,1,.15-.08.17.17,0,0,1,.13.08l.21.33a2.2,2.2,0,0,1-.77.55A2.56,2.56,0,0,1,117,14Z"/><path class="cls-2" d="M121.11,5.86V11a2.7,2.7,0,0,0,.51,1.75,1.9,1.9,0,0,0,1.57.64,2.76,2.76,0,0,0,1.45-.4,4.14,4.14,0,0,0,1.21-1.09v-6h.76v8h-.41c-.15,0-.23-.07-.23-.21l-.08-1.18a4.28,4.28,0,0,1-1.27,1.1A3.21,3.21,0,0,1,123,14a3,3,0,0,1-1.16-.21,2.19,2.19,0,0,1-.83-.6,2.71,2.71,0,0,1-.49-.94,4.39,4.39,0,0,1-.17-1.25V5.86Z"/><path class="cls-2" d="M134.45,6.93l-.08.06a.15.15,0,0,1-.1,0,.37.37,0,0,1-.22-.11,2.71,2.71,0,0,0-.37-.23,2.9,2.9,0,0,0-.58-.24,3,3,0,0,0-.85-.11,2.83,2.83,0,0,0-1.22.25,2.33,2.33,0,0,0-.89.7,3.26,3.26,0,0,0-.56,1.1,5.06,5.06,0,0,0-.19,1.46,5.22,5.22,0,0,0,.2,1.49,3.19,3.19,0,0,0,.55,1.09,2.37,2.37,0,0,0,.87.67,2.68,2.68,0,0,0,1.14.24,2.91,2.91,0,0,0,1-.14,2.74,2.74,0,0,0,.64-.3,2.08,2.08,0,0,0,.4-.29.44.44,0,0,1,.24-.14.19.19,0,0,1,.16.08l.21.26a2.25,2.25,0,0,1-.47.45,3.73,3.73,0,0,1-.63.36,4.22,4.22,0,0,1-.76.23,4,4,0,0,1-.86.09,3.48,3.48,0,0,1-1.39-.28,2.93,2.93,0,0,1-1.08-.8,3.67,3.67,0,0,1-.7-1.28,5.47,5.47,0,0,1-.26-1.73,5.52,5.52,0,0,1,.24-1.67,3.82,3.82,0,0,1,.7-1.29A3.27,3.27,0,0,1,130.68,6a3.73,3.73,0,0,1,1.53-.3,3.69,3.69,0,0,1,1.38.25,3.48,3.48,0,0,1,1.06.67Z"/><path class="cls-2" d="M139.52,5.73a3.73,3.73,0,0,1,1.53.3,3.15,3.15,0,0,1,1.14.82,3.63,3.63,0,0,1,.71,1.3,5.52,5.52,0,0,1,.24,1.69,5.61,5.61,0,0,1-.24,1.69,3.54,3.54,0,0,1-.71,1.28,3.17,3.17,0,0,1-1.14.83,4.18,4.18,0,0,1-3.06,0,3.21,3.21,0,0,1-1.15-.83,3.54,3.54,0,0,1-.71-1.28,5.61,5.61,0,0,1-.24-1.69,5.52,5.52,0,0,1,.24-1.69,3.63,3.63,0,0,1,.71-1.3A3.18,3.18,0,0,1,138,6,3.73,3.73,0,0,1,139.52,5.73Zm0,7.6a3,3,0,0,0,1.24-.25,2.26,2.26,0,0,0,.89-.7,3,3,0,0,0,.53-1.1,5.35,5.35,0,0,0,.18-1.44,5.35,5.35,0,0,0-.18-1.44,3.18,3.18,0,0,0-.53-1.11,2.38,2.38,0,0,0-.89-.71,3,3,0,0,0-1.24-.25,3,3,0,0,0-1.25.25,2.35,2.35,0,0,0-.88.71,3.19,3.19,0,0,0-.54,1.11,5.35,5.35,0,0,0-.18,1.44,5.35,5.35,0,0,0,.18,1.44,3.06,3.06,0,0,0,.54,1.1,2.23,2.23,0,0,0,.88.7A3,3,0,0,0,139.52,13.33Z"/><path class="cls-2" d="M51.42,47.94v.7h-4V59.26h-.82V48.64h-4v-.7Z"/><path class="cls-2" d="M54,47.62V59.26h-.76V47.62Z"/><path class="cls-2" d="M61.88,59.26a.28.28,0,0,1-.3-.22l-.11-1c-.22.21-.44.41-.65.58a4.08,4.08,0,0,1-.68.43,3.11,3.11,0,0,1-.76.27,4.16,4.16,0,0,1-.9.09,2.66,2.66,0,0,1-.79-.12A2,2,0,0,1,57,58.9a1.8,1.8,0,0,1-.47-.63,2.22,2.22,0,0,1-.18-.94,1.66,1.66,0,0,1,.28-.93,2.44,2.44,0,0,1,.9-.75,5.85,5.85,0,0,1,1.58-.52,14.52,14.52,0,0,1,2.32-.22v-.83a2.65,2.65,0,0,0-.48-1.7,1.7,1.7,0,0,0-1.41-.6,2.83,2.83,0,0,0-1,.16,4.41,4.41,0,0,0-.69.35,5,5,0,0,0-.45.36.55.55,0,0,1-.3.16.27.27,0,0,1-.24-.15l-.13-.23a4.37,4.37,0,0,1,1.31-.94,3.57,3.57,0,0,1,1.56-.32,2.77,2.77,0,0,1,1.12.2,2.11,2.11,0,0,1,.79.58,2.68,2.68,0,0,1,.48.92,4.17,4.17,0,0,1,.16,1.21v5.18Zm-3.2-.42a3.74,3.74,0,0,0,.85-.1,3.27,3.27,0,0,0,.72-.28,3.81,3.81,0,0,0,.62-.43c.19-.17.38-.34.57-.54V55.42a14.61,14.61,0,0,0-2,.17,5.83,5.83,0,0,0-1.35.38,1.91,1.91,0,0,0-.79.58,1.25,1.25,0,0,0-.25.75,1.77,1.77,0,0,0,.13.69,1.36,1.36,0,0,0,.35.48,1.34,1.34,0,0,0,.51.28A2,2,0,0,0,58.68,58.84Z"/><path class="cls-2" d="M70.64,51.3V62.08h-.76V57.85A4.12,4.12,0,0,1,68.66,59a3.09,3.09,0,0,1-1.57.41,2.78,2.78,0,0,1-2.29-1A4.76,4.76,0,0,1,64,55.3a5.73,5.73,0,0,1,.23-1.63,3.78,3.78,0,0,1,.67-1.31A3.18,3.18,0,0,1,66,51.49a3.23,3.23,0,0,1,1.49-.32,3.08,3.08,0,0,1,1.43.31,2.82,2.82,0,0,1,1,.92l.08-.9c0-.13.08-.2.23-.2ZM67.3,58.75a2.66,2.66,0,0,0,1.44-.41,4,4,0,0,0,1.14-1.13V53a2.65,2.65,0,0,0-1-1,3.11,3.11,0,0,0-2.51,0,2.34,2.34,0,0,0-.89.73,3.34,3.34,0,0,0-.54,1.12,5.77,5.77,0,0,0-.18,1.43,4.17,4.17,0,0,0,.66,2.61A2.26,2.26,0,0,0,67.3,58.75Z"/><path class="cls-2" d="M73.88,51.3v5.09a2.75,2.75,0,0,0,.51,1.76,1.9,1.9,0,0,0,1.57.63,2.87,2.87,0,0,0,1.45-.39,4.31,4.31,0,0,0,1.21-1.1v-6h.76v8H79a.2.2,0,0,1-.23-.21l-.07-1.18A4.31,4.31,0,0,1,77.38,59a3.14,3.14,0,0,1-1.61.42,3,3,0,0,1-1.16-.21,2.19,2.19,0,0,1-.83-.6,2.72,2.72,0,0,1-.5-.94,4.41,4.41,0,0,1-.16-1.25V51.3Z"/><path class="cls-2" d="M83.29,48.56a.66.66,0,0,1-.06.27,1.07,1.07,0,0,1-.15.22.91.91,0,0,1-.23.15.75.75,0,0,1-.54,0,.91.91,0,0,1-.23-.15,1.07,1.07,0,0,1-.15-.22.86.86,0,0,1-.05-.27.87.87,0,0,1,.05-.28.67.67,0,0,1,.38-.38.75.75,0,0,1,.54,0,.67.67,0,0,1,.38.38A.67.67,0,0,1,83.29,48.56ZM83,51.3v8H82.2v-8Z"/><path class="cls-2" d="M86.76,47.62V59.26H86V47.62Z"/><path class="cls-2" d="M91.74,59.39a1.7,1.7,0,0,1-1.26-.45A1.88,1.88,0,0,1,90,57.56V52.12H88.89a.22.22,0,0,1-.14,0,.17.17,0,0,1-.06-.14v-.29l1.36-.1.19-2.85a.27.27,0,0,1,.06-.12.17.17,0,0,1,.14-.06h.36v3h2.5v.57H90.8v5.4a1.58,1.58,0,0,0,.08.56,1.06,1.06,0,0,0,.23.39.87.87,0,0,0,.35.22,1.22,1.22,0,0,0,.43.08,1.28,1.28,0,0,0,.5-.09,2,2,0,0,0,.36-.18l.25-.19a.28.28,0,0,1,.15-.08s.08,0,.13.08l.2.34a2.31,2.31,0,0,1-.77.54A2.48,2.48,0,0,1,91.74,59.39Z"/><path class="cls-2" d="M98.28,51.17a3.19,3.19,0,0,1,1.24.24,2.8,2.8,0,0,1,1,.67,3.21,3.21,0,0,1,.66,1.09,4.32,4.32,0,0,1,.23,1.49c0,.12,0,.2-.05.24a.2.2,0,0,1-.16.07H95.44v.15a5.28,5.28,0,0,0,.21,1.57,3.23,3.23,0,0,0,.59,1.14,2.54,2.54,0,0,0,.93.7,3.16,3.16,0,0,0,1.22.23,4,4,0,0,0,1-.13,4,4,0,0,0,.74-.3,3.24,3.24,0,0,0,.47-.3.66.66,0,0,1,.26-.13.19.19,0,0,1,.16.08l.21.26a2.28,2.28,0,0,1-.51.45,4.57,4.57,0,0,1-.7.35,5.15,5.15,0,0,1-.84.24,4.41,4.41,0,0,1-.89.09,3.81,3.81,0,0,1-1.49-.29,3.14,3.14,0,0,1-1.15-.83A3.65,3.65,0,0,1,95,56.92a5.54,5.54,0,0,1-.27-1.8,4.72,4.72,0,0,1,.25-1.58,3.72,3.72,0,0,1,.7-1.25,3.23,3.23,0,0,1,1.13-.82A3.68,3.68,0,0,1,98.28,51.17Zm0,.57a3.13,3.13,0,0,0-1.1.19,2.47,2.47,0,0,0-.85.56,2.75,2.75,0,0,0-.57.86,3.61,3.61,0,0,0-.29,1.13h5.24a3.43,3.43,0,0,0-.18-1.15,2.35,2.35,0,0,0-.5-.86,2.07,2.07,0,0,0-.76-.54A2.46,2.46,0,0,0,98.29,51.74Z"/><path class="cls-2" d="M103.45,59.26v-8h.42a.22.22,0,0,1,.24.2l.07,1.2a4.33,4.33,0,0,1,1.27-1.11,3.14,3.14,0,0,1,1.61-.42,3,3,0,0,1,1.16.21,2.08,2.08,0,0,1,.82.6,2.61,2.61,0,0,1,.5,1,4.27,4.27,0,0,1,.17,1.24v5.09H109V54.17a2.72,2.72,0,0,0-.51-1.75,1.9,1.9,0,0,0-1.57-.64,2.78,2.78,0,0,0-1.46.41,4,4,0,0,0-1.2,1.1v6Z"/><path class="cls-2" d="M117.19,59.26a.28.28,0,0,1-.3-.22l-.11-1c-.22.21-.44.41-.65.58a4.08,4.08,0,0,1-.68.43,3.11,3.11,0,0,1-.76.27,4.13,4.13,0,0,1-.89.09,2.67,2.67,0,0,1-.8-.12,2,2,0,0,1-.68-.37,1.8,1.8,0,0,1-.47-.63,2.22,2.22,0,0,1-.18-.94,1.6,1.6,0,0,1,.29-.93,2.29,2.29,0,0,1,.9-.75,5.65,5.65,0,0,1,1.57-.52,14.52,14.52,0,0,1,2.32-.22v-.83a2.65,2.65,0,0,0-.48-1.7,1.7,1.7,0,0,0-1.41-.6,2.83,2.83,0,0,0-1,.16,3.88,3.88,0,0,0-.68.35,4.13,4.13,0,0,0-.46.36.55.55,0,0,1-.3.16.27.27,0,0,1-.24-.15l-.13-.23a4.37,4.37,0,0,1,1.31-.94,3.57,3.57,0,0,1,1.56-.32,2.77,2.77,0,0,1,1.12.2,2.23,2.23,0,0,1,.8.58,2.67,2.67,0,0,1,.47.92,4.17,4.17,0,0,1,.16,1.21v5.18Zm-3.2-.42a3.74,3.74,0,0,0,.85-.1,3.27,3.27,0,0,0,.72-.28,3.81,3.81,0,0,0,.62-.43c.19-.17.38-.34.57-.54V55.42a14.61,14.61,0,0,0-2,.17,6,6,0,0,0-1.35.38,1.81,1.81,0,0,0-.78.58,1.2,1.2,0,0,0-.26.75,1.6,1.6,0,0,0,.14.69,1.23,1.23,0,0,0,.34.48,1.41,1.41,0,0,0,.51.28A2,2,0,0,0,114,58.84Z"/><path class="cls-2" d="M119.89,59.26v-8h.42a.22.22,0,0,1,.24.2l.07,1.2a4.33,4.33,0,0,1,1.27-1.11,3.14,3.14,0,0,1,1.61-.42,3,3,0,0,1,1.16.21,2.16,2.16,0,0,1,.82.6,2.61,2.61,0,0,1,.5,1,4.27,4.27,0,0,1,.17,1.24v5.09h-.76V54.17a2.72,2.72,0,0,0-.51-1.75,1.9,1.9,0,0,0-1.57-.64,2.78,2.78,0,0,0-1.46.41,4,4,0,0,0-1.2,1.1v6Z"/><path class="cls-2" d="M131.17,51.17a3.6,3.6,0,0,1,1,.12,3.09,3.09,0,0,1,.8.36h2v.27c0,.13-.07.2-.22.21l-1.21.09a2.22,2.22,0,0,1,.34.69,2.64,2.64,0,0,1,.12.81,2.51,2.51,0,0,1-.21,1,2.2,2.2,0,0,1-.58.8,2.68,2.68,0,0,1-.89.52,3.47,3.47,0,0,1-1.15.18,3.56,3.56,0,0,1-1.25-.21,1.57,1.57,0,0,0-.52.46.89.89,0,0,0-.2.51.63.63,0,0,0,.24.53,1.72,1.72,0,0,0,.64.27,6.92,6.92,0,0,0,.9.11l1,0c.35,0,.7.05,1,.1a3.28,3.28,0,0,1,.9.25,1.68,1.68,0,0,1,.64.5,1.43,1.43,0,0,1,.24.86,2.05,2.05,0,0,1-.25,1,2.59,2.59,0,0,1-.72.8,3.63,3.63,0,0,1-1.13.57,4.92,4.92,0,0,1-1.49.21,5.82,5.82,0,0,1-1.47-.17,3.57,3.57,0,0,1-1.06-.47,2,2,0,0,1-.64-.67,1.6,1.6,0,0,1-.22-.82,1.57,1.57,0,0,1,.42-1.09,2.73,2.73,0,0,1,1.14-.7,1.51,1.51,0,0,1-.64-.39,1,1,0,0,1-.23-.71,1.18,1.18,0,0,1,.06-.36,2.09,2.09,0,0,1,.19-.36,2.45,2.45,0,0,1,.31-.34,2.22,2.22,0,0,1,.42-.29,2.37,2.37,0,0,1-.88-.87,2.49,2.49,0,0,1-.32-1.27,2.56,2.56,0,0,1,.21-1,2.17,2.17,0,0,1,.57-.8,2.66,2.66,0,0,1,.9-.52A3.59,3.59,0,0,1,131.17,51.17Zm3,8.63a.93.93,0,0,0-.19-.61,1.26,1.26,0,0,0-.53-.35,2.75,2.75,0,0,0-.75-.18c-.29,0-.59-.06-.9-.08l-.94,0a6,6,0,0,1-.88-.09,4.15,4.15,0,0,0-.56.27,2.37,2.37,0,0,0-.45.36,1.55,1.55,0,0,0-.29.43,1.4,1.4,0,0,0-.1.51,1.26,1.26,0,0,0,.18.66,1.65,1.65,0,0,0,.53.52,2.9,2.9,0,0,0,.85.34,5.11,5.11,0,0,0,2.29,0,2.91,2.91,0,0,0,.91-.39,1.82,1.82,0,0,0,.61-.59A1.34,1.34,0,0,0,134.12,59.8Zm-3-4.06a2.55,2.55,0,0,0,.91-.15,1.68,1.68,0,0,0,.67-.41,1.7,1.7,0,0,0,.42-.63,2.39,2.39,0,0,0,.14-.82,2.21,2.21,0,0,0-.15-.82,1.59,1.59,0,0,0-.42-.63,1.89,1.89,0,0,0-.67-.41,3,3,0,0,0-1.8,0,1.78,1.78,0,0,0-1.1,1,2.43,2.43,0,0,0-.14.82,2.39,2.39,0,0,0,.14.82,1.83,1.83,0,0,0,.42.63,1.72,1.72,0,0,0,.68.41A2.5,2.5,0,0,0,131.17,55.74Z"/><path class="cls-2" d="M139.65,51.17a3.73,3.73,0,0,1,1.53.3,3.15,3.15,0,0,1,1.14.82,3.63,3.63,0,0,1,.71,1.3,5.52,5.52,0,0,1,.24,1.69A5.61,5.61,0,0,1,143,57a3.54,3.54,0,0,1-.71,1.28,3.06,3.06,0,0,1-1.14.83,4.18,4.18,0,0,1-3.06,0,3.17,3.17,0,0,1-1.15-.83,3.54,3.54,0,0,1-.71-1.28,5.61,5.61,0,0,1-.24-1.69,5.52,5.52,0,0,1,.24-1.69,3.63,3.63,0,0,1,.71-1.3,3.27,3.27,0,0,1,1.15-.82A3.73,3.73,0,0,1,139.65,51.17Zm0,7.6a2.8,2.8,0,0,0,1.24-.25,2.19,2.19,0,0,0,.89-.7,3.06,3.06,0,0,0,.54-1.1,6.18,6.18,0,0,0,0-2.88,3.19,3.19,0,0,0-.54-1.11,2.3,2.3,0,0,0-.89-.71,3,3,0,0,0-1.24-.25,3,3,0,0,0-1.24.25,2.38,2.38,0,0,0-.89.71,3.19,3.19,0,0,0-.54,1.11,5.85,5.85,0,0,0,0,2.88,3.06,3.06,0,0,0,.54,1.1,2.26,2.26,0,0,0,.89.7A2.83,2.83,0,0,0,139.65,58.77Z"/><path class="cls-2" d="M104.21,100.93a5.41,5.41,0,0,1-.24,1.68,3.5,3.5,0,0,1-.67,1.22,2.81,2.81,0,0,1-1.07.75,3.69,3.69,0,0,1-1.41.25,5.48,5.48,0,0,1-1.49-.23l0-.23a1.5,1.5,0,0,0,0-.22.31.31,0,0,1,.06-.13s.08,0,.16,0l.17,0,.24.06a1.4,1.4,0,0,0,.32.06,2.58,2.58,0,0,0,.42,0,3,3,0,0,0,1.1-.19,2.11,2.11,0,0,0,.83-.59,2.56,2.56,0,0,0,.52-1,5,5,0,0,0,.18-1.42V93.38h.83Z"/><path class="cls-2" d="M110.21,96.61a3.81,3.81,0,0,1,1.54.3,3.15,3.15,0,0,1,1.14.82,3.77,3.77,0,0,1,.7,1.3,5.22,5.22,0,0,1,.25,1.69,5.31,5.31,0,0,1-.25,1.69,3.67,3.67,0,0,1-.7,1.28,3.06,3.06,0,0,1-1.14.83,4,4,0,0,1-1.54.29,3.9,3.9,0,0,1-1.53-.29,3.06,3.06,0,0,1-1.14-.83,3.54,3.54,0,0,1-.71-1.28,5.31,5.31,0,0,1-.25-1.69,5.22,5.22,0,0,1,.25-1.69,3.63,3.63,0,0,1,.71-1.3,3.15,3.15,0,0,1,1.14-.82A3.73,3.73,0,0,1,110.21,96.61Zm0,7.6a3,3,0,0,0,1.25-.25,2.23,2.23,0,0,0,.88-.7,3.06,3.06,0,0,0,.54-1.1,6.18,6.18,0,0,0,0-2.88,3.19,3.19,0,0,0-.54-1.11,2.35,2.35,0,0,0-.88-.71,3,3,0,0,0-1.25-.25,3,3,0,0,0-1.24.25,2.38,2.38,0,0,0-.89.71,3.18,3.18,0,0,0-.53,1.11,5.85,5.85,0,0,0,0,2.88,3,3,0,0,0,.53,1.1,2.26,2.26,0,0,0,.89.7A3,3,0,0,0,110.21,104.21Z"/><path class="cls-2" d="M116.82,96.74v9a2.39,2.39,0,0,1-.12.77,1.7,1.7,0,0,1-.36.61,1.6,1.6,0,0,1-.59.41,2.09,2.09,0,0,1-.83.14,1.76,1.76,0,0,1-.42,0,1.69,1.69,0,0,1-.36-.12l0-.39a.1.1,0,0,1,.11-.09l.18,0a1.39,1.39,0,0,0,.32,0,1.24,1.24,0,0,0,1-.35,1.46,1.46,0,0,0,.31-1v-9Zm.34-2.74a.66.66,0,0,1-.06.27,1.12,1.12,0,0,1-.16.22.86.86,0,0,1-.22.15.66.66,0,0,1-.28,0,.65.65,0,0,1-.27,0,.86.86,0,0,1-.22-.15.78.78,0,0,1-.15-.22.66.66,0,0,1-.06-.27.67.67,0,0,1,.06-.28.7.7,0,0,1,.15-.23.86.86,0,0,1,.22-.15.65.65,0,0,1,.27,0,.66.66,0,0,1,.28,0,.86.86,0,0,1,.22.15.94.94,0,0,1,.16.23A.67.67,0,0,1,117.16,94Z"/><path class="cls-2" d="M120.17,96.74v5.09a2.75,2.75,0,0,0,.51,1.76,1.89,1.89,0,0,0,1.56.63,2.88,2.88,0,0,0,1.46-.39,4.47,4.47,0,0,0,1.21-1.1v-6h.76v8h-.42a.2.2,0,0,1-.23-.21l-.07-1.18a4.44,4.44,0,0,1-1.28,1.1,3.14,3.14,0,0,1-1.61.42,2.93,2.93,0,0,1-1.16-.21,2.12,2.12,0,0,1-.83-.6,2.72,2.72,0,0,1-.5-.94,4.41,4.41,0,0,1-.16-1.25V96.74Z"/><path class="cls-2" d="M130.43,104.83a1.7,1.7,0,0,1-1.26-.45,1.88,1.88,0,0,1-.45-1.38V97.56h-1.14a.2.2,0,0,1-.14,0,.17.17,0,0,1-.06-.14v-.29l1.36-.1.19-2.85A.27.27,0,0,1,129,94a.17.17,0,0,1,.14-.06h.36v3H132v.57h-2.5V103a1.58,1.58,0,0,0,.08.56.94.94,0,0,0,.23.39.87.87,0,0,0,.35.22,1.22,1.22,0,0,0,.43.08,1.28,1.28,0,0,0,.5-.09,1.73,1.73,0,0,0,.36-.18,1.83,1.83,0,0,0,.24-.19.33.33,0,0,1,.16-.08.17.17,0,0,1,.12.08l.21.34a2.31,2.31,0,0,1-.77.54A2.51,2.51,0,0,1,130.43,104.83Z"/><path class="cls-2" d="M135,93.06V104.7h-.76V93.06Z"/><path class="cls-2" d="M142.84,104.7a.26.26,0,0,1-.29-.22l-.11-1a6.85,6.85,0,0,1-.66.58,4,4,0,0,1-.67.43,3.27,3.27,0,0,1-.76.27,4.16,4.16,0,0,1-.9.09,2.66,2.66,0,0,1-.79-.12,1.87,1.87,0,0,1-.68-.37,1.79,1.79,0,0,1-.48-.63,2.22,2.22,0,0,1-.18-.94,1.67,1.67,0,0,1,.29-.93,2.29,2.29,0,0,1,.9-.75,5.85,5.85,0,0,1,1.58-.52,14.38,14.38,0,0,1,2.31-.22v-.83a2.65,2.65,0,0,0-.47-1.7,1.7,1.7,0,0,0-1.41-.6,2.79,2.79,0,0,0-1,.16,4.41,4.41,0,0,0-.69.35,3.91,3.91,0,0,0-.45.36.55.55,0,0,1-.3.16.25.25,0,0,1-.24-.15l-.14-.23a4.53,4.53,0,0,1,1.32-.94,3.54,3.54,0,0,1,1.56-.32,2.8,2.8,0,0,1,1.12.2,2.11,2.11,0,0,1,.79.58,2.68,2.68,0,0,1,.48.92,4.54,4.54,0,0,1,.16,1.21v5.18Zm-3.2-.42a3.33,3.33,0,0,0,.86-.1,3.47,3.47,0,0,0,.72-.28,3.63,3.63,0,0,0,.62-.43,7.07,7.07,0,0,0,.56-.54v-2.07a14.6,14.6,0,0,0-2,.17,5.83,5.83,0,0,0-1.35.38,2,2,0,0,0-.79.58,1.19,1.19,0,0,0-.25.75,1.6,1.6,0,0,0,.13.69,1.36,1.36,0,0,0,.35.48,1.3,1.3,0,0,0,.5.28A2.08,2.08,0,0,0,139.64,104.28Z"/><path class="cls-2" d="M116.87,150.14h-.64a.28.28,0,0,1-.18-.06.33.33,0,0,1-.11-.15l-1.34-3.29H109l-1.33,3.29a.27.27,0,0,1-.11.15.29.29,0,0,1-.19.06h-.62l4.63-11.32h.81ZM109.29,146h5.07l-2.31-5.72c0-.09-.07-.19-.11-.31a3.07,3.07,0,0,1-.11-.36q-.06.2-.12.36a2.39,2.39,0,0,1-.11.32Z"/><path class="cls-2" d="M119.45,152.7a.52.52,0,0,1-.12.19.31.31,0,0,1-.22.07h-.55l1.4-3.11-3.37-7.67h.64a.29.29,0,0,1,.19.06.51.51,0,0,1,.09.13l2.68,6.2a2.34,2.34,0,0,1,.09.24l.07.25a2.41,2.41,0,0,1,.08-.25l.09-.24,2.65-6.2a.49.49,0,0,1,.11-.14.3.3,0,0,1,.16,0H124Z"/><path class="cls-2" d="M130.59,150.14a.28.28,0,0,1-.3-.22l-.11-1a8.25,8.25,0,0,1-.65.58,4.54,4.54,0,0,1-.68.43,3.11,3.11,0,0,1-.76.27,4.16,4.16,0,0,1-.9.09,2.66,2.66,0,0,1-.79-.12,2,2,0,0,1-.68-.37,1.68,1.68,0,0,1-.47-.63,2.22,2.22,0,0,1-.18-.94,1.66,1.66,0,0,1,.28-.93,2.44,2.44,0,0,1,.9-.75,5.53,5.53,0,0,1,1.58-.51,13.35,13.35,0,0,1,2.32-.23V145a2.65,2.65,0,0,0-.48-1.7,1.7,1.7,0,0,0-1.41-.6,2.79,2.79,0,0,0-1,.16,3.69,3.69,0,0,0-.69.36,3.73,3.73,0,0,0-.45.35.55.55,0,0,1-.3.16.27.27,0,0,1-.24-.15l-.13-.23a4.55,4.55,0,0,1,1.31-.94,3.57,3.57,0,0,1,1.56-.32,2.8,2.8,0,0,1,1.12.2,2,2,0,0,1,.79.59,2.59,2.59,0,0,1,.48.92,4.05,4.05,0,0,1,.16,1.2v5.18Zm-3.2-.42a3.24,3.24,0,0,0,2.19-.81,7.08,7.08,0,0,0,.57-.54V146.3a13,13,0,0,0-2,.18,5,5,0,0,0-1.35.38,2,2,0,0,0-.79.57,1.25,1.25,0,0,0-.25.75,1.77,1.77,0,0,0,.13.69,1.5,1.5,0,0,0,.35.49,1.47,1.47,0,0,0,.51.27A2,2,0,0,0,127.39,149.72Z"/><path class="cls-2" d="M134.27,138.5v11.64h-.76V138.5Z"/><path class="cls-2" d="M142.17,150.14a.28.28,0,0,1-.3-.22l-.11-1a6.78,6.78,0,0,1-.65.58,4.08,4.08,0,0,1-.68.43,3,3,0,0,1-.76.27,4.13,4.13,0,0,1-.89.09,2.61,2.61,0,0,1-.79-.12,1.8,1.8,0,0,1-.68-.37,1.7,1.7,0,0,1-.48-.63,2.22,2.22,0,0,1-.18-.94,1.67,1.67,0,0,1,.29-.93,2.29,2.29,0,0,1,.9-.75,5.43,5.43,0,0,1,1.58-.51,13.23,13.23,0,0,1,2.31-.23V145a2.65,2.65,0,0,0-.48-1.7,1.67,1.67,0,0,0-1.41-.6,2.83,2.83,0,0,0-1,.16,3.58,3.58,0,0,0-.68.36,3.22,3.22,0,0,0-.46.35.53.53,0,0,1-.29.16.25.25,0,0,1-.24-.15l-.14-.23a4.69,4.69,0,0,1,1.31-.94,3.57,3.57,0,0,1,1.56-.32,2.77,2.77,0,0,1,1.12.2,2.06,2.06,0,0,1,.8.59,2.43,2.43,0,0,1,.47.92,4.05,4.05,0,0,1,.16,1.2v5.18Zm-3.2-.42a3.24,3.24,0,0,0,2.19-.81,7.08,7.08,0,0,0,.57-.54V146.3a13,13,0,0,0-2,.18,5.2,5.2,0,0,0-1.35.38,2,2,0,0,0-.78.57,1.19,1.19,0,0,0-.25.75,1.6,1.6,0,0,0,.13.69,1.37,1.37,0,0,0,.35.49,1.42,1.42,0,0,0,.5.27A2,2,0,0,0,139,149.72Z"/><path class="cls-2" d="M85.94,185.26v.7H82v10.62h-.81V186h-4v-.7Z"/><path class="cls-2" d="M88.83,188.5a3.73,3.73,0,0,1,1.53.29,3.06,3.06,0,0,1,1.14.83,3.65,3.65,0,0,1,.71,1.29,6.07,6.07,0,0,1,0,3.38,3.83,3.83,0,0,1-.71,1.29,3.15,3.15,0,0,1-1.14.82,4.18,4.18,0,0,1-3.06,0,3.1,3.1,0,0,1-1.15-.82,3.67,3.67,0,0,1-.71-1.29,6.07,6.07,0,0,1,0-3.38,3.5,3.5,0,0,1,.71-1.29,3,3,0,0,1,1.15-.83A3.73,3.73,0,0,1,88.83,188.5Zm0,7.59a2.83,2.83,0,0,0,1.24-.25,2.26,2.26,0,0,0,.89-.7,3,3,0,0,0,.53-1.1,5.85,5.85,0,0,0,0-2.88,3.18,3.18,0,0,0-.53-1.11,2.38,2.38,0,0,0-.89-.71,3,3,0,0,0-1.24-.24,3,3,0,0,0-1.25.24,2.35,2.35,0,0,0-.88.71,3.19,3.19,0,0,0-.54,1.11,5.85,5.85,0,0,0,0,2.88,3.06,3.06,0,0,0,.54,1.1,2.23,2.23,0,0,0,.88.7A2.88,2.88,0,0,0,88.83,196.09Z"/><path class="cls-2" d="M96.62,196.71a1.7,1.7,0,0,1-1.26-.45,1.88,1.88,0,0,1-.44-1.38v-5.44H93.77a.2.2,0,0,1-.14-.05.16.16,0,0,1-.06-.13V189l1.36-.1.19-2.84a.31.31,0,0,1,.06-.13.17.17,0,0,1,.14-.06h.35v3h2.51v.57H95.67v5.4a1.53,1.53,0,0,0,.09.56,1.06,1.06,0,0,0,.23.39,1,1,0,0,0,.35.23,1.49,1.49,0,0,0,.43.07,1.28,1.28,0,0,0,.5-.09,1.51,1.51,0,0,0,.36-.18l.25-.18a.25.25,0,0,1,.15-.09s.08,0,.13.08l.2.34a2.31,2.31,0,0,1-.77.54A2.51,2.51,0,0,1,96.62,196.71Z"/><path class="cls-2" d="M103.19,188.5a3.73,3.73,0,0,1,1.53.29,3.06,3.06,0,0,1,1.14.83,3.65,3.65,0,0,1,.71,1.29,6.07,6.07,0,0,1,0,3.38,3.83,3.83,0,0,1-.71,1.29,3.15,3.15,0,0,1-1.14.82,4.18,4.18,0,0,1-3.06,0,3.1,3.1,0,0,1-1.15-.82,3.67,3.67,0,0,1-.71-1.29,5.84,5.84,0,0,1,0-3.38,3.5,3.5,0,0,1,.71-1.29,3,3,0,0,1,1.15-.83A3.73,3.73,0,0,1,103.19,188.5Zm0,7.59a2.83,2.83,0,0,0,1.24-.25,2.26,2.26,0,0,0,.89-.7,3,3,0,0,0,.53-1.1,5.85,5.85,0,0,0,0-2.88,3.18,3.18,0,0,0-.53-1.11,2.38,2.38,0,0,0-.89-.71,3,3,0,0,0-1.24-.24,3,3,0,0,0-1.25.24,2.46,2.46,0,0,0-.89.71,3.36,3.36,0,0,0-.53,1.11,5.85,5.85,0,0,0,0,2.88,3.22,3.22,0,0,0,.53,1.1,2.33,2.33,0,0,0,.89.7A2.88,2.88,0,0,0,103.19,196.09Z"/><path class="cls-2" d="M109.79,184.94v11.64H109V184.94Z"/><path class="cls-2" d="M117.69,196.58a.28.28,0,0,1-.3-.22l-.11-1a6.78,6.78,0,0,1-.65.58,4.08,4.08,0,0,1-.68.43,3,3,0,0,1-.76.27,4.13,4.13,0,0,1-.89.09,2.61,2.61,0,0,1-.79-.12,1.8,1.8,0,0,1-.68-.37,1.7,1.7,0,0,1-.48-.63,2.2,2.2,0,0,1-.18-.93,1.68,1.68,0,0,1,.29-.94,2.29,2.29,0,0,1,.9-.75,5.46,5.46,0,0,1,1.57-.51,13.45,13.45,0,0,1,2.32-.23v-.83a2.65,2.65,0,0,0-.48-1.7,1.67,1.67,0,0,0-1.41-.6,2.83,2.83,0,0,0-1,.16,3.3,3.3,0,0,0-.68.36,3.22,3.22,0,0,0-.46.35.53.53,0,0,1-.29.16.25.25,0,0,1-.24-.15l-.14-.23a4.69,4.69,0,0,1,1.31-.94,3.57,3.57,0,0,1,1.56-.32,3,3,0,0,1,1.12.2,2.06,2.06,0,0,1,.8.59,2.46,2.46,0,0,1,.47.91,4.22,4.22,0,0,1,.16,1.21v5.18Zm-3.2-.42a3.24,3.24,0,0,0,2.19-.81c.19-.16.38-.34.57-.53v-2.08a14.45,14.45,0,0,0-2,.18,5.63,5.63,0,0,0-1.35.38,2,2,0,0,0-.78.57,1.19,1.19,0,0,0-.25.75,1.68,1.68,0,0,0,.13.7,1.31,1.31,0,0,0,.85.75A2,2,0,0,0,114.49,196.16Z"/><path class="cls-2" d="M120.39,199.4V188.62h.42a.29.29,0,0,1,.17,0,.21.21,0,0,1,.07.15l.07,1.24a4.22,4.22,0,0,1,1.24-1.15,3,3,0,0,1,1.59-.42,2.77,2.77,0,0,1,2.28,1,4.78,4.78,0,0,1,.82,3.05,5.68,5.68,0,0,1-.23,1.63,3.78,3.78,0,0,1-.67,1.31,3.2,3.2,0,0,1-1.08.88,3.32,3.32,0,0,1-1.48.32,3.06,3.06,0,0,1-1.41-.3,2.87,2.87,0,0,1-1-.88v3.89Zm3.34-10.3a2.58,2.58,0,0,0-1.44.42,4,4,0,0,0-1.14,1.14v4.18a2.82,2.82,0,0,0,1,1,3,3,0,0,0,2.5,0,2.45,2.45,0,0,0,.88-.72,3.24,3.24,0,0,0,.54-1.12,5.46,5.46,0,0,0,.18-1.44,4.21,4.21,0,0,0-.66-2.61A2.23,2.23,0,0,0,123.73,189.1Z"/><path class="cls-2" d="M134,196.58a.26.26,0,0,1-.29-.22l-.11-1a6.85,6.85,0,0,1-.66.58,4,4,0,0,1-.67.43,3.27,3.27,0,0,1-.76.27,4.16,4.16,0,0,1-.9.09,2.66,2.66,0,0,1-.79-.12,1.87,1.87,0,0,1-.68-.37,1.7,1.7,0,0,1-.48-.63,2.2,2.2,0,0,1-.18-.93,1.68,1.68,0,0,1,.29-.94,2.29,2.29,0,0,1,.9-.75,5.43,5.43,0,0,1,1.58-.51,13.23,13.23,0,0,1,2.31-.23v-.83a2.71,2.71,0,0,0-.47-1.7,1.7,1.7,0,0,0-1.41-.6,2.79,2.79,0,0,0-1,.16,3.69,3.69,0,0,0-.69.36,2.61,2.61,0,0,0-.45.35.55.55,0,0,1-.3.16.25.25,0,0,1-.24-.15l-.14-.23a4.73,4.73,0,0,1,1.32-.94,3.51,3.51,0,0,1,1.56-.32,3,3,0,0,1,1.12.2,2,2,0,0,1,.79.59,2.63,2.63,0,0,1,.48.91,4.6,4.6,0,0,1,.16,1.21v5.18Zm-3.2-.42a3.33,3.33,0,0,0,.86-.1,3.7,3.7,0,0,0,.72-.28,3.63,3.63,0,0,0,.62-.43,6.92,6.92,0,0,0,.56-.53v-2.08a14.29,14.29,0,0,0-2,.18,5.37,5.37,0,0,0-1.35.38,2,2,0,0,0-.79.57,1.19,1.19,0,0,0-.25.75,1.68,1.68,0,0,0,.13.7,1.57,1.57,0,0,0,.35.48,1.42,1.42,0,0,0,.5.27A2.08,2.08,0,0,0,130.83,196.16Z"/><path class="cls-2" d="M136.74,196.58v-8h.41a.22.22,0,0,1,.24.2l.08,1.2a4.39,4.39,0,0,1,1.26-1.1,3.18,3.18,0,0,1,1.62-.42,3.15,3.15,0,0,1,1.15.2,2.19,2.19,0,0,1,.83.6,2.87,2.87,0,0,1,.5.95,4.36,4.36,0,0,1,.16,1.25v5.08h-.76V191.5a2.73,2.73,0,0,0-.51-1.76,1.9,1.9,0,0,0-1.57-.64,2.77,2.77,0,0,0-1.45.41,4.19,4.19,0,0,0-1.2,1.11v6Z"/><path class="cls-2" d="M39,230.7v.7H35V242h-.82V231.4h-4v-.7Z"/><path class="cls-2" d="M41.82,233.94a3.15,3.15,0,0,1,1.24.23,2.7,2.7,0,0,1,1,.68,3.12,3.12,0,0,1,.66,1.09,4.23,4.23,0,0,1,.24,1.49.33.33,0,0,1-.06.23.18.18,0,0,1-.16.07H39v.15a5.78,5.78,0,0,0,.2,1.58,3.25,3.25,0,0,0,.6,1.14,2.51,2.51,0,0,0,.92.69,3.19,3.19,0,0,0,1.22.23,3.56,3.56,0,0,0,1-.13,4,4,0,0,0,.74-.3c.2-.11.36-.21.48-.29a.53.53,0,0,1,.25-.14.19.19,0,0,1,.16.08l.21.26a2.28,2.28,0,0,1-.51.45,3.05,3.05,0,0,1-.7.35,5.33,5.33,0,0,1-.83.24,4.58,4.58,0,0,1-.9.09,3.9,3.9,0,0,1-1.48-.28,3.21,3.21,0,0,1-1.16-.83,3.82,3.82,0,0,1-.74-1.33,5.61,5.61,0,0,1-.26-1.81,5,5,0,0,1,.24-1.58,3.72,3.72,0,0,1,.7-1.25,3.32,3.32,0,0,1,1.13-.82A3.68,3.68,0,0,1,41.82,233.94Zm0,.57a2.92,2.92,0,0,0-1.1.19,2.31,2.31,0,0,0-.85.55,3.07,3.07,0,0,0-.57.86,3.9,3.9,0,0,0-.29,1.13h5.24a3.43,3.43,0,0,0-.18-1.15,2.58,2.58,0,0,0-.49-.86,2.33,2.33,0,0,0-.77-.54A2.64,2.64,0,0,0,41.83,234.51Z"/><path class="cls-2" d="M49.16,242.15a1.66,1.66,0,0,1-1.25-.45,1.86,1.86,0,0,1-.45-1.38v-5.44H46.31a.22.22,0,0,1-.14,0,.15.15,0,0,1-.06-.13v-.3l1.36-.1.19-2.84a.31.31,0,0,1,.06-.13.18.18,0,0,1,.14-.06h.36v3h2.5v.57h-2.5v5.4a1.91,1.91,0,0,0,.08.57,1.1,1.1,0,0,0,.23.38,1,1,0,0,0,.35.23,1.21,1.21,0,0,0,.43.07,1.24,1.24,0,0,0,.5-.09,1.51,1.51,0,0,0,.36-.18l.25-.18a.25.25,0,0,1,.15-.09.19.19,0,0,1,.13.08l.21.34a2.36,2.36,0,0,1-.78.54A2.48,2.48,0,0,1,49.16,242.15Z"/><path class="cls-2" d="M55.7,233.94a3.15,3.15,0,0,1,1.24.23,2.7,2.7,0,0,1,1,.68,3.12,3.12,0,0,1,.66,1.09,4.23,4.23,0,0,1,.24,1.49.33.33,0,0,1-.06.23.18.18,0,0,1-.16.07H52.87v.15a5.42,5.42,0,0,0,.2,1.58,3.25,3.25,0,0,0,.6,1.14,2.51,2.51,0,0,0,.92.69,3.19,3.19,0,0,0,1.22.23,3.56,3.56,0,0,0,1-.13,4,4,0,0,0,.74-.3c.2-.11.36-.21.48-.29a.53.53,0,0,1,.25-.14.19.19,0,0,1,.16.08l.21.26a2.28,2.28,0,0,1-.51.45,3.05,3.05,0,0,1-.7.35,5.33,5.33,0,0,1-.83.24,4.58,4.58,0,0,1-.9.09,3.9,3.9,0,0,1-1.48-.28,3.21,3.21,0,0,1-1.16-.83,3.82,3.82,0,0,1-.74-1.33,5.61,5.61,0,0,1-.26-1.81,5,5,0,0,1,.24-1.58,3.72,3.72,0,0,1,.7-1.25,3.32,3.32,0,0,1,1.13-.82A3.68,3.68,0,0,1,55.7,233.94Zm0,.57a2.92,2.92,0,0,0-1.1.19,2.31,2.31,0,0,0-.85.55,3.07,3.07,0,0,0-.57.86,3.9,3.9,0,0,0-.29,1.13h5.24a3.43,3.43,0,0,0-.18-1.15,2.58,2.58,0,0,0-.49-.86,2.33,2.33,0,0,0-.77-.54A2.64,2.64,0,0,0,55.71,234.51Z"/><path class="cls-2" d="M61.86,230.38V242H61.1V230.38Z"/><path class="cls-2" d="M69.75,242a.27.27,0,0,1-.29-.23l-.12-1a5.76,5.76,0,0,1-.65.58,3.46,3.46,0,0,1-.67.43,3.27,3.27,0,0,1-.76.27,4.16,4.16,0,0,1-.9.09,2.66,2.66,0,0,1-.79-.12,1.87,1.87,0,0,1-.68-.37,1.7,1.7,0,0,1-.48-.63,2.2,2.2,0,0,1-.18-.93,1.68,1.68,0,0,1,.29-.94,2.29,2.29,0,0,1,.9-.75A5.75,5.75,0,0,1,67,237.9a13.23,13.23,0,0,1,2.31-.23v-.83a2.67,2.67,0,0,0-.47-1.7,1.71,1.71,0,0,0-1.42-.6,2.73,2.73,0,0,0-1,.16,3.69,3.69,0,0,0-.69.36,4,4,0,0,0-.45.35.49.49,0,0,1-.3.16.26.26,0,0,1-.24-.14l-.14-.24a4.73,4.73,0,0,1,1.32-.94,3.49,3.49,0,0,1,1.55-.32,3,3,0,0,1,1.13.2,2,2,0,0,1,.79.59,2.59,2.59,0,0,1,.48.92,4.47,4.47,0,0,1,.16,1.2V242Zm-3.2-.43a3.33,3.33,0,0,0,.86-.1,3.7,3.7,0,0,0,.72-.28,3.63,3.63,0,0,0,.62-.43,6.92,6.92,0,0,0,.56-.53v-2.07a13,13,0,0,0-2,.17,5.59,5.59,0,0,0-1.36.38,2,2,0,0,0-.78.57,1.19,1.19,0,0,0-.25.75,1.68,1.68,0,0,0,.13.7,1.57,1.57,0,0,0,.35.48,1.42,1.42,0,0,0,.5.27A2,2,0,0,0,66.55,241.6Z"/><path class="cls-2" d="M81.19,242a.22.22,0,0,1-.23-.21l-.08-1.26a4.06,4.06,0,0,1-1.24,1.14,3,3,0,0,1-1.59.43,2.76,2.76,0,0,1-2.28-1,4.75,4.75,0,0,1-.82-3.05,5.62,5.62,0,0,1,.22-1.62,4,4,0,0,1,.68-1.32,3.09,3.09,0,0,1,1.09-.87,3.19,3.19,0,0,1,1.48-.32,3,3,0,0,1,1.4.3,2.87,2.87,0,0,1,1,.88v-4.73h.76V242Zm-2.92-.52a2.59,2.59,0,0,0,1.43-.4A4.29,4.29,0,0,0,80.85,240v-4.2a2.87,2.87,0,0,0-1-1,2.72,2.72,0,0,0-1.26-.28,2.83,2.83,0,0,0-1.24.25,2.4,2.4,0,0,0-.88.73,3.16,3.16,0,0,0-.54,1.12,5.33,5.33,0,0,0-.18,1.43,4.22,4.22,0,0,0,.66,2.62A2.26,2.26,0,0,0,78.27,241.51Z"/><path class="cls-2" d="M87.28,233.94a3.15,3.15,0,0,1,1.24.23,2.66,2.66,0,0,1,1,.68,3,3,0,0,1,.65,1.09,4.23,4.23,0,0,1,.24,1.49.41.41,0,0,1,0,.23.19.19,0,0,1-.17.07H84.45v.15a5.4,5.4,0,0,0,.21,1.58,3.24,3.24,0,0,0,.59,1.14,2.46,2.46,0,0,0,.93.69,3.11,3.11,0,0,0,1.21.23,3.56,3.56,0,0,0,1-.13,3.77,3.77,0,0,0,.74-.3c.2-.11.36-.21.48-.29a.55.55,0,0,1,.26-.14.21.21,0,0,1,.16.08l.2.26a1.91,1.91,0,0,1-.51.45,3.05,3.05,0,0,1-.7.35,5.33,5.33,0,0,1-.83.24,4.48,4.48,0,0,1-.89.09,4,4,0,0,1-1.49-.28A3.17,3.17,0,0,1,84.7,241a3.84,3.84,0,0,1-.75-1.33,5.9,5.9,0,0,1-.26-1.81,5,5,0,0,1,.24-1.58,3.74,3.74,0,0,1,.71-1.25,3.19,3.19,0,0,1,1.12-.82A3.71,3.71,0,0,1,87.28,233.94Zm0,.57a2.92,2.92,0,0,0-1.1.19,2.27,2.27,0,0,0-.84.55,2.89,2.89,0,0,0-.58.86,4.25,4.25,0,0,0-.29,1.13h5.24a3.43,3.43,0,0,0-.18-1.15,2.42,2.42,0,0,0-.49-.86,2.23,2.23,0,0,0-.77-.54A2.57,2.57,0,0,0,87.29,234.51Z"/><path class="cls-2" d="M93.44,230.38V242h-.76V230.38Z"/><path class="cls-2" d="M98.17,230.7h.65a.24.24,0,0,1,.18.07.35.35,0,0,1,.11.15l3.86,9.39a6.08,6.08,0,0,1,.25.79,3.65,3.65,0,0,1,.23-.79l3.85-9.39a.33.33,0,0,1,.11-.15.32.32,0,0,1,.19-.07h.64L103.57,242h-.73Z"/><path class="cls-2" d="M111.83,233.94a3.73,3.73,0,0,1,1.53.29,3.06,3.06,0,0,1,1.14.83,3.57,3.57,0,0,1,.7,1.29,5.84,5.84,0,0,1,0,3.38,3.65,3.65,0,0,1-.7,1.29,3.15,3.15,0,0,1-1.14.82,4.21,4.21,0,0,1-3.07,0,3.15,3.15,0,0,1-1.14-.82,3.67,3.67,0,0,1-.71-1.29,5.84,5.84,0,0,1,0-3.38,3.58,3.58,0,0,1,.71-1.29,3.06,3.06,0,0,1,1.14-.83A3.75,3.75,0,0,1,111.83,233.94Zm0,7.59a2.86,2.86,0,0,0,1.24-.25,2.33,2.33,0,0,0,.89-.7,3.22,3.22,0,0,0,.53-1.1,5.85,5.85,0,0,0,0-2.88,3.36,3.36,0,0,0-.53-1.11,2.57,2.57,0,0,0-.89-.71,3.35,3.35,0,0,0-2.49,0,2.57,2.57,0,0,0-.89.71,3.36,3.36,0,0,0-.53,1.11,5.85,5.85,0,0,0,0,2.88,3.22,3.22,0,0,0,.53,1.1,2.33,2.33,0,0,0,.89.7A2.85,2.85,0,0,0,111.83,241.53Z"/><path class="cls-2" d="M118.43,230.38V242h-.76V230.38Z"/><path class="cls-2" d="M126.49,235.13l-.08.07a.22.22,0,0,1-.1,0,.44.44,0,0,1-.22-.1,2.16,2.16,0,0,0-.37-.24,3.28,3.28,0,0,0-.58-.24,3.36,3.36,0,0,0-2.06.14,2.39,2.39,0,0,0-.9.7,3.26,3.26,0,0,0-.56,1.1,5.49,5.49,0,0,0-.19,1.46,5.17,5.17,0,0,0,.2,1.49,3.19,3.19,0,0,0,.55,1.09,2.43,2.43,0,0,0,.88.68,2.78,2.78,0,0,0,1.13.23,3,3,0,0,0,1-.14,3.54,3.54,0,0,0,.64-.29,4.14,4.14,0,0,0,.4-.3c.1-.09.17-.14.23-.14a.18.18,0,0,1,.16.08l.21.26a2.46,2.46,0,0,1-.46.45,3,3,0,0,1-.64.36,3.38,3.38,0,0,1-.76.23,4,4,0,0,1-.86.09,3.32,3.32,0,0,1-1.39-.28,2.93,2.93,0,0,1-1.08-.8,3.75,3.75,0,0,1-.7-1.28,6,6,0,0,1,0-3.39,3.61,3.61,0,0,1,.7-1.3,3.12,3.12,0,0,1,1.12-.84,3.74,3.74,0,0,1,1.54-.3,3.57,3.57,0,0,1,1.38.25,3.2,3.2,0,0,1,1,.67Z"/><path class="cls-2" d="M133.61,242a.28.28,0,0,1-.3-.23l-.11-1a8.25,8.25,0,0,1-.65.58,3.52,3.52,0,0,1-.68.43,3.11,3.11,0,0,1-.76.27,4.13,4.13,0,0,1-.89.09,2.67,2.67,0,0,1-.8-.12,2,2,0,0,1-.68-.37,1.8,1.8,0,0,1-.47-.63,2.2,2.2,0,0,1-.18-.93,1.61,1.61,0,0,1,.29-.94,2.29,2.29,0,0,1,.9-.75,5.67,5.67,0,0,1,1.57-.51,13.45,13.45,0,0,1,2.32-.23v-.83a2.67,2.67,0,0,0-.48-1.7,1.7,1.7,0,0,0-1.41-.6,2.83,2.83,0,0,0-1,.16,3.3,3.3,0,0,0-.68.36,4.18,4.18,0,0,0-.46.35.49.49,0,0,1-.3.16.28.28,0,0,1-.24-.14l-.13-.24a4.55,4.55,0,0,1,1.31-.94,3.57,3.57,0,0,1,1.56-.32,3,3,0,0,1,1.12.2,2.06,2.06,0,0,1,.8.59,2.43,2.43,0,0,1,.47.92,4.1,4.1,0,0,1,.16,1.2V242Zm-3.2-.43a3.24,3.24,0,0,0,2.19-.81c.19-.16.38-.34.57-.53v-2.07a13.13,13.13,0,0,0-2,.17,5.5,5.5,0,0,0-1.35.38,1.88,1.88,0,0,0-.78.57,1.2,1.2,0,0,0-.26.75,1.68,1.68,0,0,0,.14.7,1.39,1.39,0,0,0,.34.48,1.56,1.56,0,0,0,.51.27A2,2,0,0,0,130.41,241.6Zm2.67-11-1.73,2a.42.42,0,0,1-.13.11.41.41,0,0,1-.16,0h-.46l1.26-1.91a.72.72,0,0,1,.18-.2.69.69,0,0,1,.29,0Z"/><path class="cls-2" d="M136.31,242v-8h.42a.22.22,0,0,1,.24.21l.07,1.19a4.58,4.58,0,0,1,1.27-1.1,3.14,3.14,0,0,1,1.61-.42,3.2,3.2,0,0,1,1.16.2,2.08,2.08,0,0,1,.82.6,2.69,2.69,0,0,1,.5.95,4.34,4.34,0,0,1,.17,1.25V242h-.76v-5.09a2.75,2.75,0,0,0-.51-1.76,1.93,1.93,0,0,0-1.57-.64,2.8,2.8,0,0,0-1.46.41,4.19,4.19,0,0,0-1.2,1.11v6Z"/><path class="cls-2" d="M86.46,282.79v4.67h-.83v-4.67l-4.18-6.65h.71a.28.28,0,0,1,.18.06.5.5,0,0,1,.13.15l3.24,5.19a3.2,3.2,0,0,1,.19.36c.06.12.1.23.15.35,0-.12.09-.23.14-.35s.12-.23.19-.36l3.24-5.19a.44.44,0,0,1,.12-.15.24.24,0,0,1,.18-.06h.72Z"/><path class="cls-2" d="M96.35,287.46a.26.26,0,0,1-.29-.22l-.12-1a6.78,6.78,0,0,1-.65.58,4,4,0,0,1-.67.43,3.19,3.19,0,0,1-.77.27,4.13,4.13,0,0,1-.89.09,2.61,2.61,0,0,1-.79-.12,1.93,1.93,0,0,1-.68-.36,1.83,1.83,0,0,1-.48-.64,2.2,2.2,0,0,1-.18-.93,1.68,1.68,0,0,1,.29-.94,2.29,2.29,0,0,1,.9-.75,5.78,5.78,0,0,1,1.57-.51,13.45,13.45,0,0,1,2.32-.23v-.83a2.65,2.65,0,0,0-.48-1.7A1.67,1.67,0,0,0,94,280a2.83,2.83,0,0,0-1,.16,3.58,3.58,0,0,0-.68.36,3.22,3.22,0,0,0-.46.35.45.45,0,0,1-.29.16.25.25,0,0,1-.24-.15l-.14-.23a4.69,4.69,0,0,1,1.31-.94,3.72,3.72,0,0,1,1.56-.32,3,3,0,0,1,1.12.2,2.06,2.06,0,0,1,.8.59,2.59,2.59,0,0,1,.48.92,4.47,4.47,0,0,1,.16,1.2v5.18Zm-3.2-.42a3.24,3.24,0,0,0,2.19-.81,7,7,0,0,0,.57-.53v-2.08a14.14,14.14,0,0,0-2,.18,5.59,5.59,0,0,0-1.36.38,2,2,0,0,0-.78.57,1.2,1.2,0,0,0-.25.76,1.67,1.67,0,0,0,.13.69,1.31,1.31,0,0,0,.85.75A2,2,0,0,0,93.15,287Z"/><path class="cls-2" d="M99.61,279.51v5.08a2.73,2.73,0,0,0,.52,1.76,1.89,1.89,0,0,0,1.56.63,2.88,2.88,0,0,0,1.46-.39,4.16,4.16,0,0,0,1.21-1.1v-6h.76v7.95h-.42c-.15,0-.22-.06-.23-.2l-.07-1.19a4.64,4.64,0,0,1-1.28,1.11,3.24,3.24,0,0,1-1.61.41,3,3,0,0,1-1.17-.21,2,2,0,0,1-.82-.6,2.72,2.72,0,0,1-.5-.94,4.34,4.34,0,0,1-.17-1.25v-5.08Z"/><path class="cls-2" d="M109.88,287.59a1.7,1.7,0,0,1-1.26-.45,1.86,1.86,0,0,1-.45-1.38v-5.44H107a.2.2,0,0,1-.14-.05.16.16,0,0,1-.06-.13v-.3l1.36-.09.19-2.85a.31.31,0,0,1,.06-.13.17.17,0,0,1,.14-.06h.35v3h2.51v.57h-2.51v5.4a1.53,1.53,0,0,0,.09.56,1.06,1.06,0,0,0,.23.39.89.89,0,0,0,.35.23,1.49,1.49,0,0,0,.43.07,1.28,1.28,0,0,0,.5-.09,1.51,1.51,0,0,0,.36-.18l.24-.18a.29.29,0,0,1,.16-.09s.08,0,.13.08l.2.34a2.31,2.31,0,0,1-.77.54A2.34,2.34,0,0,1,109.88,287.59Z"/><path class="cls-2" d="M116.41,279.38a3.2,3.2,0,0,1,1.25.23,2.8,2.8,0,0,1,1,.67,3.16,3.16,0,0,1,.66,1.1,4.47,4.47,0,0,1,.23,1.48.49.49,0,0,1-.05.25.2.2,0,0,1-.16.06h-5.75v.15a5.4,5.4,0,0,0,.21,1.58,3.41,3.41,0,0,0,.59,1.14,2.63,2.63,0,0,0,.93.69,3.16,3.16,0,0,0,1.22.23,3.61,3.61,0,0,0,1-.13,4,4,0,0,0,.74-.3,3.32,3.32,0,0,0,.47-.29.54.54,0,0,1,.26-.13.17.17,0,0,1,.16.08l.21.25a2.28,2.28,0,0,1-.51.45,3.63,3.63,0,0,1-.71.36,5.85,5.85,0,0,1-.83.23,4.41,4.41,0,0,1-.89.09,3.81,3.81,0,0,1-1.49-.29,3,3,0,0,1-1.15-.82,4,4,0,0,1-.75-1.34,5.79,5.79,0,0,1-.26-1.8,4.72,4.72,0,0,1,.25-1.58,3.55,3.55,0,0,1,.7-1.25,3.23,3.23,0,0,1,1.13-.82A3.8,3.8,0,0,1,116.41,279.38Zm0,.56a3,3,0,0,0-1.11.2,2.5,2.5,0,0,0-.84.55,2.69,2.69,0,0,0-.57.86,4,4,0,0,0-.3,1.13h5.24a3.43,3.43,0,0,0-.17-1.15,2.44,2.44,0,0,0-.5-.86,2.29,2.29,0,0,0-.76-.54A2.64,2.64,0,0,0,116.43,279.94Z"/><path class="cls-2" d="M121.59,290.28V279.51H122a.25.25,0,0,1,.16,0,.19.19,0,0,1,.08.15l.07,1.24a4.32,4.32,0,0,1,1.23-1.15,3.1,3.1,0,0,1,1.59-.42,2.79,2.79,0,0,1,2.29,1,4.85,4.85,0,0,1,.82,3.05,5.63,5.63,0,0,1-.23,1.63,4,4,0,0,1-.67,1.31,3.2,3.2,0,0,1-1.08.88,3.37,3.37,0,0,1-1.49.32,3.12,3.12,0,0,1-1.41-.3,2.83,2.83,0,0,1-1-.88v3.89Zm3.34-10.3a2.58,2.58,0,0,0-1.44.42,3.87,3.87,0,0,0-1.14,1.14v4.18a2.72,2.72,0,0,0,1,1,3,3,0,0,0,2.5,0,2.49,2.49,0,0,0,.89-.72,3.42,3.42,0,0,0,.53-1.12,5.35,5.35,0,0,0,.18-1.44,4.21,4.21,0,0,0-.65-2.61A2.23,2.23,0,0,0,124.93,280Z"/><path class="cls-2" d="M133.15,279.38a3.15,3.15,0,0,1,1.24.23,2.84,2.84,0,0,1,1,.67,3.15,3.15,0,0,1,.65,1.1,4.21,4.21,0,0,1,.24,1.48.49.49,0,0,1-.05.25.22.22,0,0,1-.17.06h-5.74v.15a5.4,5.4,0,0,0,.21,1.58,3.08,3.08,0,0,0,.59,1.14,2.46,2.46,0,0,0,.93.69,3.11,3.11,0,0,0,1.21.23,3.56,3.56,0,0,0,1-.13,4,4,0,0,0,.74-.3,4.28,4.28,0,0,0,.48-.29.49.49,0,0,1,.25-.13.16.16,0,0,1,.16.08l.21.25a2.28,2.28,0,0,1-.51.45,3.54,3.54,0,0,1-.7.36,6.7,6.7,0,0,1-.83.23,4.56,4.56,0,0,1-.89.09,3.77,3.77,0,0,1-1.49-.29,3.15,3.15,0,0,1-1.16-.82,3.94,3.94,0,0,1-.74-1.34,5.79,5.79,0,0,1-.26-1.8,5,5,0,0,1,.24-1.58,3.72,3.72,0,0,1,.7-1.25,3.32,3.32,0,0,1,1.13-.82A3.85,3.85,0,0,1,133.15,279.38Zm0,.56a2.92,2.92,0,0,0-1.1.2,2.32,2.32,0,0,0-.84.55,2.89,2.89,0,0,0-.58.86,4.35,4.35,0,0,0-.29,1.13h5.24a3.43,3.43,0,0,0-.18-1.15,2.42,2.42,0,0,0-.49-.86,2.23,2.23,0,0,0-.77-.54A2.64,2.64,0,0,0,133.16,279.94Z"/><path class="cls-2" d="M143.57,280.57l-.08.07a.15.15,0,0,1-.1,0,.44.44,0,0,1-.22-.11,2.65,2.65,0,0,0-.37-.24,3.68,3.68,0,0,0-.58-.23,2.66,2.66,0,0,0-.85-.11,3,3,0,0,0-1.22.24,2.43,2.43,0,0,0-.89.7,3.05,3.05,0,0,0-.56,1.11,5,5,0,0,0-.19,1.45,5.17,5.17,0,0,0,.2,1.49,3.1,3.1,0,0,0,.55,1.09,2.4,2.4,0,0,0,.87.68,2.8,2.8,0,0,0,1.14.23,3,3,0,0,0,1-.14,3.25,3.25,0,0,0,.64-.29,3.18,3.18,0,0,0,.4-.3.41.41,0,0,1,.24-.13.17.17,0,0,1,.16.08l.21.25a2.53,2.53,0,0,1-.47.45,2.73,2.73,0,0,1-.63.36,3.54,3.54,0,0,1-.76.23,4,4,0,0,1-.86.09,3.32,3.32,0,0,1-1.39-.28,2.93,2.93,0,0,1-1.08-.8,3.59,3.59,0,0,1-.7-1.28,5.87,5.87,0,0,1,0-3.39,3.86,3.86,0,0,1,.7-1.3,3.25,3.25,0,0,1,1.13-.84,4.07,4.07,0,0,1,2.91-.06,3.34,3.34,0,0,1,1,.68Z"/><path class="cls-2" d="M8.79,321.59v.69h-4v10.63H4V322.28H0v-.69Z"/><path class="cls-2" d="M11.35,321.27v11.64h-.76V321.27Z"/><path class="cls-2" d="M19.25,332.91a.28.28,0,0,1-.3-.23l-.11-1c-.22.21-.44.4-.65.57a3.52,3.52,0,0,1-.68.43,3.11,3.11,0,0,1-.76.27,4.13,4.13,0,0,1-.89.09,2.67,2.67,0,0,1-.8-.12,2,2,0,0,1-.68-.37,1.8,1.8,0,0,1-.47-.63,2.2,2.2,0,0,1-.18-.93A1.61,1.61,0,0,1,14,330a2.29,2.29,0,0,1,.9-.75,6,6,0,0,1,1.57-.51,13.35,13.35,0,0,1,2.32-.23v-.83a2.67,2.67,0,0,0-.48-1.7,1.69,1.69,0,0,0-1.41-.59,2.61,2.61,0,0,0-1,.16,3.17,3.17,0,0,0-.69.35,5.12,5.12,0,0,0-.45.35.49.49,0,0,1-.3.16.28.28,0,0,1-.24-.14l-.13-.24a4.55,4.55,0,0,1,1.31-.94,3.72,3.72,0,0,1,1.56-.32,3,3,0,0,1,1.12.2,2.14,2.14,0,0,1,.8.59,2.58,2.58,0,0,1,.47.92,4.1,4.1,0,0,1,.16,1.2v5.19Zm-3.2-.43a3.24,3.24,0,0,0,2.19-.81c.19-.16.38-.34.57-.53v-2.07a13.13,13.13,0,0,0-2,.17,5.37,5.37,0,0,0-1.35.38,2,2,0,0,0-.78.57,1.2,1.2,0,0,0-.26.75,1.68,1.68,0,0,0,.14.7,1.39,1.39,0,0,0,.34.48,1.32,1.32,0,0,0,.51.27A2,2,0,0,0,16.05,332.48Z"/><path class="cls-2" d="M22.94,321.27v11.64h-.76V321.27Z"/><path class="cls-2" d="M27.92,333a1.74,1.74,0,0,1-1.26-.44,1.89,1.89,0,0,1-.44-1.39v-5.44H25.07a.16.16,0,0,1-.14-.05.15.15,0,0,1-.06-.13v-.3l1.36-.09.19-2.85a.31.31,0,0,1,.06-.13.17.17,0,0,1,.14-.06H27v3h2.5v.57H27v5.4a1.64,1.64,0,0,0,.08.57,1.1,1.1,0,0,0,.23.38,1,1,0,0,0,.35.23,1.21,1.21,0,0,0,.43.07,1.5,1.5,0,0,0,.5-.08,2,2,0,0,0,.36-.19l.25-.18a.25.25,0,0,1,.15-.09s.08,0,.13.08l.2.34a2.31,2.31,0,0,1-.77.54A2.51,2.51,0,0,1,27.92,333Z"/><path class="cls-2" d="M32.78,322.2a.6.6,0,0,1-.06.27,1.12,1.12,0,0,1-.16.22.76.76,0,0,1-.23.15.6.6,0,0,1-.27.06.66.66,0,0,1-.27-.06.86.86,0,0,1-.22-.15.62.62,0,0,1-.15-.22.6.6,0,0,1-.06-.27.63.63,0,0,1,.06-.27.51.51,0,0,1,.15-.23.69.69,0,0,1,.22-.16.86.86,0,0,1,.27-.05.76.76,0,0,1,.27.05.63.63,0,0,1,.23.16.79.79,0,0,1,.16.23A.63.63,0,0,1,32.78,322.2Zm-.34,2.74v8h-.76v-8Z"/><path class="cls-2" d="M40.57,325.27a.48.48,0,0,1-.11.3l-5,6.74h4.9v.6H34.55v-.31a.48.48,0,0,1,.12-.29l5-6.77H34.82v-.6h5.75Z"/><path class="cls-2" d="M47.57,332.91a.28.28,0,0,1-.3-.23l-.11-1c-.22.21-.44.4-.65.57a3.52,3.52,0,0,1-.68.43,3.11,3.11,0,0,1-.76.27,4.16,4.16,0,0,1-.9.09,2.66,2.66,0,0,1-.79-.12,2,2,0,0,1-.68-.37,1.8,1.8,0,0,1-.47-.63,2.2,2.2,0,0,1-.18-.93,1.67,1.67,0,0,1,.28-.94,2.4,2.4,0,0,1,.91-.75,6,6,0,0,1,1.57-.51,13.35,13.35,0,0,1,2.32-.23v-.83a2.67,2.67,0,0,0-.48-1.7,1.69,1.69,0,0,0-1.41-.59,2.61,2.61,0,0,0-1,.16,2.87,2.87,0,0,0-.68.35,4.18,4.18,0,0,0-.46.35.49.49,0,0,1-.3.16.28.28,0,0,1-.24-.14l-.13-.24a4.55,4.55,0,0,1,1.31-.94,3.72,3.72,0,0,1,1.56-.32,3,3,0,0,1,1.12.2,2.14,2.14,0,0,1,.8.59,2.58,2.58,0,0,1,.47.92,4.1,4.1,0,0,1,.16,1.2v5.19Zm-3.2-.43a3.24,3.24,0,0,0,2.19-.81c.19-.16.38-.34.57-.53v-2.07a13.13,13.13,0,0,0-2,.17,5.37,5.37,0,0,0-1.35.38,1.88,1.88,0,0,0-.78.57,1.2,1.2,0,0,0-.26.75,1.68,1.68,0,0,0,.14.7,1.26,1.26,0,0,0,.85.75A2,2,0,0,0,44.37,332.48Z"/><path class="cls-2" d="M50.27,335.72V324.94h.42a.25.25,0,0,1,.16.05.19.19,0,0,1,.08.16l.07,1.23a4.23,4.23,0,0,1,1.24-1.15,3,3,0,0,1,1.58-.42,2.76,2.76,0,0,1,2.29,1,4.73,4.73,0,0,1,.82,3,5.68,5.68,0,0,1-.23,1.63,3.86,3.86,0,0,1-.67,1.31,3.08,3.08,0,0,1-1.08.88,3.37,3.37,0,0,1-1.49.32,3,3,0,0,1-1.4-.3,2.78,2.78,0,0,1-1-.88v3.89Zm3.34-10.29a2.57,2.57,0,0,0-1.44.41A3.91,3.91,0,0,0,51,327v4.17a2.72,2.72,0,0,0,1,1,3,3,0,0,0,2.5,0,2.4,2.4,0,0,0,.89-.72,3.23,3.23,0,0,0,.53-1.12,5.41,5.41,0,0,0,.18-1.44,4.21,4.21,0,0,0-.65-2.61A2.22,2.22,0,0,0,53.61,325.43Z"/><path class="cls-2" d="M63.91,332.91a.28.28,0,0,1-.3-.23l-.11-1a8.29,8.29,0,0,1-.65.57,3.52,3.52,0,0,1-.68.43,3,3,0,0,1-.75.27,4.29,4.29,0,0,1-.9.09,2.61,2.61,0,0,1-.79-.12,1.8,1.8,0,0,1-.68-.37,1.7,1.7,0,0,1-.48-.63,2.2,2.2,0,0,1-.18-.93,1.68,1.68,0,0,1,.29-.94,2.29,2.29,0,0,1,.9-.75,6.11,6.11,0,0,1,1.58-.51,13.23,13.23,0,0,1,2.31-.23v-.83A2.73,2.73,0,0,0,63,326a1.7,1.7,0,0,0-1.42-.59,2.61,2.61,0,0,0-1,.16,3.08,3.08,0,0,0-.68.35,4.18,4.18,0,0,0-.46.35.47.47,0,0,1-.29.16.26.26,0,0,1-.24-.14l-.14-.24a4.69,4.69,0,0,1,1.31-.94,3.72,3.72,0,0,1,1.56-.32,3,3,0,0,1,1.12.2,2.06,2.06,0,0,1,.8.59,2.43,2.43,0,0,1,.47.92,4.1,4.1,0,0,1,.16,1.2v5.19Zm-3.2-.43a3.24,3.24,0,0,0,2.19-.81c.19-.16.38-.34.57-.53v-2.07a13.13,13.13,0,0,0-2,.17,5.63,5.63,0,0,0-1.35.38,2,2,0,0,0-.78.57,1.19,1.19,0,0,0-.25.75,1.68,1.68,0,0,0,.13.7,1.42,1.42,0,0,0,.35.48,1.28,1.28,0,0,0,.5.27A2,2,0,0,0,60.71,332.48Zm2.67-11-1.72,2a.45.45,0,0,1-.14.11.38.38,0,0,1-.16,0H60.9l1.26-1.91a.43.43,0,0,1,.47-.25Z"/><path class="cls-2" d="M66.61,332.91v-8H67a.22.22,0,0,1,.24.21l.07,1.2a4.6,4.6,0,0,1,1.27-1.11,3.14,3.14,0,0,1,1.61-.42,3,3,0,0,1,1.16.21,2.07,2.07,0,0,1,.83.59,2.85,2.85,0,0,1,.49.95,4,4,0,0,1,.17,1.25v5.09h-.76v-5.09a2.75,2.75,0,0,0-.51-1.76,1.9,1.9,0,0,0-1.57-.63,2.73,2.73,0,0,0-1.45.4,4.19,4.19,0,0,0-1.2,1.11v6Z"/><path class="cls-2" d="M84,332.91c-.13,0-.2-.07-.23-.21l-.08-1.26a4.32,4.32,0,0,1-1.23,1.15,3.1,3.1,0,0,1-1.59.42,2.78,2.78,0,0,1-2.29-1,4.75,4.75,0,0,1-.82-3.05,5.29,5.29,0,0,1,.23-1.62,3.69,3.69,0,0,1,.67-1.31,3.1,3.1,0,0,1,1.09-.88,3.34,3.34,0,0,1,1.49-.32,3.1,3.1,0,0,1,1.4.3,2.93,2.93,0,0,1,1,.88v-4.72h.76v11.64Zm-2.92-.52a2.65,2.65,0,0,0,1.44-.4,4.12,4.12,0,0,0,1.14-1.14v-4.2a2.87,2.87,0,0,0-1-1,2.72,2.72,0,0,0-1.26-.28,2.79,2.79,0,0,0-1.23.26,2.4,2.4,0,0,0-.89.72,3.16,3.16,0,0,0-.54,1.12,5.33,5.33,0,0,0-.18,1.43,4.22,4.22,0,0,0,.66,2.62A2.26,2.26,0,0,0,81.08,332.39Z"/><path class="cls-2" d="M90.09,324.82a3.2,3.2,0,0,1,1.25.23,2.7,2.7,0,0,1,1,.68,3.12,3.12,0,0,1,.66,1.09,4.53,4.53,0,0,1,.23,1.49.34.34,0,0,1,0,.23.18.18,0,0,1-.16.07H87.26v.15a5.4,5.4,0,0,0,.21,1.58,3.41,3.41,0,0,0,.59,1.14,2.52,2.52,0,0,0,.93.69,3.16,3.16,0,0,0,1.22.23,3.61,3.61,0,0,0,1-.13,4,4,0,0,0,1.21-.59.6.6,0,0,1,.26-.14.19.19,0,0,1,.16.08l.21.26a2.28,2.28,0,0,1-.51.45,3.63,3.63,0,0,1-.71.36,5.85,5.85,0,0,1-.83.23,4.41,4.41,0,0,1-.89.09,4,4,0,0,1-1.49-.28,3.17,3.17,0,0,1-1.15-.83,4,4,0,0,1-.75-1.33,5.9,5.9,0,0,1-.26-1.81,4.72,4.72,0,0,1,.25-1.58,3.55,3.55,0,0,1,.7-1.25,3.23,3.23,0,0,1,1.13-.82A3.8,3.8,0,0,1,90.09,324.82Zm0,.57a3,3,0,0,0-1.11.19,2.36,2.36,0,0,0-.84.55,2.69,2.69,0,0,0-.57.86,3.91,3.91,0,0,0-.3,1.13h5.24a3.43,3.43,0,0,0-.17-1.15,2.44,2.44,0,0,0-.5-.86,2.29,2.29,0,0,0-.76-.54A2.64,2.64,0,0,0,90.11,325.39Z"/><path class="cls-2" d="M106.37,321.59v.27a.52.52,0,0,1-.12.33l-7.18,10h7.23v.68H98v-.3a.46.46,0,0,1,.1-.29l7.2-10.05H98.19v-.68Z"/><path class="cls-2" d="M113.57,332.91a.28.28,0,0,1-.3-.23l-.11-1c-.22.21-.44.4-.65.57a3.86,3.86,0,0,1-.68.43,3.27,3.27,0,0,1-.76.27,4.16,4.16,0,0,1-.9.09,2.66,2.66,0,0,1-.79-.12,2,2,0,0,1-.68-.37,1.68,1.68,0,0,1-.47-.63,2.2,2.2,0,0,1-.18-.93,1.67,1.67,0,0,1,.28-.94,2.44,2.44,0,0,1,.9-.75,6.24,6.24,0,0,1,1.58-.51,13.25,13.25,0,0,1,2.32-.23v-.83a2.67,2.67,0,0,0-.48-1.7,1.69,1.69,0,0,0-1.41-.59,2.58,2.58,0,0,0-1,.16,3.17,3.17,0,0,0-.69.35,5.12,5.12,0,0,0-.45.35.49.49,0,0,1-.3.16.28.28,0,0,1-.24-.14l-.13-.24a4.55,4.55,0,0,1,1.31-.94,3.72,3.72,0,0,1,1.56-.32,3,3,0,0,1,1.12.2,2,2,0,0,1,.79.59,2.59,2.59,0,0,1,.48.92,4.1,4.1,0,0,1,.16,1.2v5.19Zm-3.2-.43a3.3,3.3,0,0,0,.85-.1,3.25,3.25,0,0,0,1.34-.71c.19-.16.38-.34.57-.53v-2.07a13.13,13.13,0,0,0-2,.17,5.37,5.37,0,0,0-1.35.38,2,2,0,0,0-.79.57,1.25,1.25,0,0,0-.25.75,1.86,1.86,0,0,0,.13.7,1.57,1.57,0,0,0,.35.48,1.32,1.32,0,0,0,.51.27A2,2,0,0,0,110.37,332.48Z"/><path class="cls-2" d="M116.27,335.72V324.94h.42a.28.28,0,0,1,.16.05.19.19,0,0,1,.08.16l.07,1.23a4.32,4.32,0,0,1,1.23-1.15,3.1,3.1,0,0,1,1.59-.42,2.76,2.76,0,0,1,2.29,1,4.79,4.79,0,0,1,.82,3,5.68,5.68,0,0,1-.23,1.63,3.86,3.86,0,0,1-.67,1.31,3.08,3.08,0,0,1-1.08.88,3.37,3.37,0,0,1-1.49.32,3.12,3.12,0,0,1-1.41-.3,2.83,2.83,0,0,1-1-.88v3.89Zm3.34-10.29a2.57,2.57,0,0,0-1.44.41A3.91,3.91,0,0,0,117,327v4.17a2.49,2.49,0,0,0,2.28,1.25,2.79,2.79,0,0,0,1.23-.26,2.49,2.49,0,0,0,.89-.72,3.42,3.42,0,0,0,.53-1.12,5.41,5.41,0,0,0,.18-1.44,4.28,4.28,0,0,0-.65-2.61A2.22,2.22,0,0,0,119.61,325.43Z"/><path class="cls-2" d="M129.91,332.91a.28.28,0,0,1-.3-.23l-.11-1a8.29,8.29,0,0,1-.65.57,3.52,3.52,0,0,1-.68.43,3,3,0,0,1-.76.27,4.13,4.13,0,0,1-.89.09,2.61,2.61,0,0,1-.79-.12,1.8,1.8,0,0,1-.68-.37,1.7,1.7,0,0,1-.48-.63,2.2,2.2,0,0,1-.18-.93,1.68,1.68,0,0,1,.29-.94,2.29,2.29,0,0,1,.9-.75,6.15,6.15,0,0,1,1.57-.51,13.45,13.45,0,0,1,2.32-.23v-.83A2.67,2.67,0,0,0,129,326a1.67,1.67,0,0,0-1.41-.59,2.61,2.61,0,0,0-1,.16,2.87,2.87,0,0,0-.68.35,4.18,4.18,0,0,0-.46.35.47.47,0,0,1-.29.16.26.26,0,0,1-.24-.14l-.14-.24a4.69,4.69,0,0,1,1.31-.94,3.72,3.72,0,0,1,1.56-.32,3,3,0,0,1,1.12.2,2.06,2.06,0,0,1,.8.59,2.43,2.43,0,0,1,.47.92,4.1,4.1,0,0,1,.16,1.2v5.19Zm-3.2-.43a3.24,3.24,0,0,0,2.19-.81c.19-.16.38-.34.57-.53v-2.07a13.13,13.13,0,0,0-2,.17,5.63,5.63,0,0,0-1.35.38,2,2,0,0,0-.78.57,1.19,1.19,0,0,0-.25.75,1.68,1.68,0,0,0,.13.7,1.42,1.42,0,0,0,.35.48,1.28,1.28,0,0,0,.5.27A2,2,0,0,0,126.71,332.48Z"/><path class="cls-2" d="M134.78,333a1.72,1.72,0,0,1-1.25-.44,1.89,1.89,0,0,1-.45-1.39v-5.44h-1.15a.19.19,0,0,1-.14-.05.15.15,0,0,1-.06-.13v-.3l1.36-.09.19-2.85a.31.31,0,0,1,.06-.13.18.18,0,0,1,.14-.06h.36v3h2.5v.57h-2.5v5.4a1.91,1.91,0,0,0,.08.57,1.28,1.28,0,0,0,.23.38,1,1,0,0,0,.35.23,1.25,1.25,0,0,0,.43.07,1.46,1.46,0,0,0,.5-.08,2,2,0,0,0,.36-.19L136,332a.25.25,0,0,1,.15-.09s.08,0,.13.08l.21.34a2.36,2.36,0,0,1-.78.54A2.48,2.48,0,0,1,134.78,333Z"/><path class="cls-2" d="M143.4,332.91a.28.28,0,0,1-.3-.23l-.11-1c-.22.21-.44.4-.65.57a3.52,3.52,0,0,1-.68.43,3.11,3.11,0,0,1-.76.27,4.13,4.13,0,0,1-.89.09,2.67,2.67,0,0,1-.8-.12,2,2,0,0,1-.68-.37,1.8,1.8,0,0,1-.47-.63,2.2,2.2,0,0,1-.18-.93,1.61,1.61,0,0,1,.29-.94,2.29,2.29,0,0,1,.9-.75,6,6,0,0,1,1.57-.51,13.35,13.35,0,0,1,2.32-.23v-.83a2.67,2.67,0,0,0-.48-1.7,1.68,1.68,0,0,0-1.41-.59,2.61,2.61,0,0,0-1,.16,2.87,2.87,0,0,0-.68.35,4.18,4.18,0,0,0-.46.35.49.49,0,0,1-.3.16.28.28,0,0,1-.24-.14l-.13-.24a4.55,4.55,0,0,1,1.31-.94,3.72,3.72,0,0,1,1.56-.32,3,3,0,0,1,1.12.2,2.14,2.14,0,0,1,.8.59,2.58,2.58,0,0,1,.47.92,4.1,4.1,0,0,1,.16,1.2v5.19Zm-3.2-.43a3.24,3.24,0,0,0,2.19-.81c.19-.16.38-.34.57-.53v-2.07a13.13,13.13,0,0,0-2,.17,5.5,5.5,0,0,0-1.35.38,2,2,0,0,0-.78.57,1.2,1.2,0,0,0-.26.75,1.68,1.68,0,0,0,.14.7,1.26,1.26,0,0,0,.85.75A2,2,0,0,0,140.2,332.48Z"/><path class="cls-2" d="M84.7,375.53a1.86,1.86,0,0,1,.1-.25,1.75,1.75,0,0,1,.11-.24l4.45-7.86a.39.39,0,0,1,.13-.13.44.44,0,0,1,.18,0h.56v11.32h-.72V368.7a3.37,3.37,0,0,1,0-.44l-4.46,7.91a.34.34,0,0,1-.32.21h-.13a.36.36,0,0,1-.32-.21l-4.57-7.92c0,.15,0,.3,0,.45v9.65h-.71V367h.56a.47.47,0,0,1,.18,0,.32.32,0,0,1,.13.13l4.57,7.87A3.48,3.48,0,0,1,84.7,375.53Z"/><path class="cls-2" d="M94.53,367.64a.6.6,0,0,1-.06.27.69.69,0,0,1-.16.22.86.86,0,0,1-.22.15.66.66,0,0,1-.27.06.6.6,0,0,1-.27-.06.91.91,0,0,1-.23-.15.86.86,0,0,1-.15-.22.6.6,0,0,1-.06-.27.71.71,0,0,1,.06-.28.86.86,0,0,1,.15-.22.57.57,0,0,1,.23-.15.6.6,0,0,1,.27-.06.66.66,0,0,1,.27.06.54.54,0,0,1,.22.15.69.69,0,0,1,.16.22A.71.71,0,0,1,94.53,367.64Zm-.34,2.75v8h-.76v-8Z"/><path class="cls-2" d="M102.09,378.35a.28.28,0,0,1-.3-.23l-.11-1a8.29,8.29,0,0,1-.65.57,3.52,3.52,0,0,1-.68.43,3,3,0,0,1-.76.27,4.13,4.13,0,0,1-.89.09,2.61,2.61,0,0,1-.79-.12,1.93,1.93,0,0,1-.68-.36,1.83,1.83,0,0,1-.48-.64,2.2,2.2,0,0,1-.18-.93,1.68,1.68,0,0,1,.29-.94,2.29,2.29,0,0,1,.9-.75,6.15,6.15,0,0,1,1.57-.51,14.53,14.53,0,0,1,2.32-.23v-.83a2.67,2.67,0,0,0-.48-1.7,1.67,1.67,0,0,0-1.41-.6,2.61,2.61,0,0,0-1,.17,2.87,2.87,0,0,0-.68.35,4.18,4.18,0,0,0-.46.35.47.47,0,0,1-.29.16.26.26,0,0,1-.24-.14l-.14-.24a4.69,4.69,0,0,1,1.31-.94,3.72,3.72,0,0,1,1.56-.32,3,3,0,0,1,1.12.2,2.06,2.06,0,0,1,.8.59,2.43,2.43,0,0,1,.47.92,4.1,4.1,0,0,1,.16,1.2v5.19Zm-3.2-.43a3.25,3.25,0,0,0,.85-.1,2.84,2.84,0,0,0,.72-.28,3.27,3.27,0,0,0,.62-.43c.19-.16.38-.34.57-.53v-2.07a13.13,13.13,0,0,0-2,.17,5.63,5.63,0,0,0-1.35.38,2,2,0,0,0-.78.57,1.2,1.2,0,0,0-.25.76,1.67,1.67,0,0,0,.13.69,1.42,1.42,0,0,0,.35.48,1.28,1.28,0,0,0,.5.27A2,2,0,0,0,98.89,377.92Z"/><path class="cls-2" d="M110,371.45a.46.46,0,0,1-.07.07.17.17,0,0,1-.1,0,.41.41,0,0,1-.22-.11,3.43,3.43,0,0,0-.37-.24,3.68,3.68,0,0,0-.58-.23,2.7,2.7,0,0,0-.85-.11,3,3,0,0,0-1.22.24,2.54,2.54,0,0,0-.89.7,3.14,3.14,0,0,0-.56,1.11,5,5,0,0,0-.19,1.45,5.18,5.18,0,0,0,.19,1.49,3.12,3.12,0,0,0,.56,1.09,2.4,2.4,0,0,0,.87.68,2.8,2.8,0,0,0,1.14.23,3,3,0,0,0,1.6-.43,3.18,3.18,0,0,0,.4-.3A.41.41,0,0,1,110,377a.17.17,0,0,1,.16.08l.21.25a2.53,2.53,0,0,1-.47.45,3.23,3.23,0,0,1-.63.36,3.73,3.73,0,0,1-.76.23,4.12,4.12,0,0,1-.86.09,3.32,3.32,0,0,1-1.39-.28,2.93,2.93,0,0,1-1.08-.8,3.67,3.67,0,0,1-.71-1.28,5.73,5.73,0,0,1-.25-1.73,5.41,5.41,0,0,1,.24-1.66,3.79,3.79,0,0,1,.7-1.3,3.16,3.16,0,0,1,1.13-.84,3.7,3.7,0,0,1,1.53-.3,3.5,3.5,0,0,1,1.38.25,3.37,3.37,0,0,1,1,.67Z"/><path class="cls-2" d="M117.15,378.35a.27.27,0,0,1-.29-.23l-.11-1a8.38,8.38,0,0,1-.66.57,3.46,3.46,0,0,1-.67.43,3.27,3.27,0,0,1-.76.27,4.16,4.16,0,0,1-.9.09,2.66,2.66,0,0,1-.79-.12,2,2,0,0,1-.68-.36,1.83,1.83,0,0,1-.48-.64,2.2,2.2,0,0,1-.18-.93,1.68,1.68,0,0,1,.29-.94,2.29,2.29,0,0,1,.9-.75,6.11,6.11,0,0,1,1.58-.51,14.27,14.27,0,0,1,2.31-.23v-.83a2.73,2.73,0,0,0-.47-1.7,1.7,1.7,0,0,0-1.41-.6,2.62,2.62,0,0,0-1,.17,3.32,3.32,0,0,0-.68.35,3.22,3.22,0,0,0-.45.35.49.49,0,0,1-.3.16.26.26,0,0,1-.24-.14l-.14-.24a4.84,4.84,0,0,1,1.31-.94,3.73,3.73,0,0,1,1.57-.32,3,3,0,0,1,1.12.2,2.11,2.11,0,0,1,.79.59,2.59,2.59,0,0,1,.48.92,4.47,4.47,0,0,1,.16,1.2v5.19Zm-3.2-.43a3.33,3.33,0,0,0,.86-.1,3.16,3.16,0,0,0,.72-.28,3.63,3.63,0,0,0,.62-.43,6.92,6.92,0,0,0,.56-.53v-2.07a13,13,0,0,0-1.95.17,5.37,5.37,0,0,0-1.35.38,2,2,0,0,0-.79.57,1.2,1.2,0,0,0-.25.76,1.67,1.67,0,0,0,.13.69,1.57,1.57,0,0,0,.35.48,1.28,1.28,0,0,0,.5.27A2.08,2.08,0,0,0,114,377.92Z"/><path class="cls-2" d="M122,378.47a1.73,1.73,0,0,1-1.25-.44,1.89,1.89,0,0,1-.45-1.39V371.2h-1.14a.2.2,0,0,1-.15-.05.17.17,0,0,1,0-.13v-.3l1.36-.09.19-2.85a.18.18,0,0,1,.06-.13.17.17,0,0,1,.14-.06h.35v3h2.5v.57h-2.5v5.4a1.62,1.62,0,0,0,.09.57,1,1,0,0,0,.23.38.82.82,0,0,0,.35.23,1.18,1.18,0,0,0,.43.07,1.44,1.44,0,0,0,.49-.08,2,2,0,0,0,.36-.19,2.06,2.06,0,0,0,.25-.18.27.27,0,0,1,.15-.09.17.17,0,0,1,.13.08l.21.34a2.31,2.31,0,0,1-.77.54A2.39,2.39,0,0,1,122,378.47Z"/><path class="cls-2" d="M126.54,366.71v11.64h-.75V366.71Z"/><path class="cls-2" d="M134.44,378.35a.27.27,0,0,1-.29-.23l-.12-1a8.29,8.29,0,0,1-.65.57,3.46,3.46,0,0,1-.67.43,3.19,3.19,0,0,1-.77.27,4.13,4.13,0,0,1-.89.09,2.61,2.61,0,0,1-.79-.12,1.93,1.93,0,0,1-.68-.36,1.83,1.83,0,0,1-.48-.64,2.2,2.2,0,0,1-.18-.93,1.68,1.68,0,0,1,.29-.94,2.29,2.29,0,0,1,.9-.75,6.15,6.15,0,0,1,1.57-.51A14.53,14.53,0,0,1,134,374v-.83a2.67,2.67,0,0,0-.48-1.7,1.67,1.67,0,0,0-1.41-.6,2.61,2.61,0,0,0-1,.17,3.08,3.08,0,0,0-.68.35,4.18,4.18,0,0,0-.46.35.45.45,0,0,1-.29.16.26.26,0,0,1-.24-.14l-.14-.24a4.69,4.69,0,0,1,1.31-.94,3.72,3.72,0,0,1,1.56-.32,3,3,0,0,1,1.12.2,2.06,2.06,0,0,1,.8.59,2.43,2.43,0,0,1,.47.92,4.09,4.09,0,0,1,.17,1.2v5.19Zm-3.2-.43a3.25,3.25,0,0,0,.85-.1,2.84,2.84,0,0,0,.72-.28,3.27,3.27,0,0,0,.62-.43c.19-.16.38-.34.57-.53v-2.07a13.13,13.13,0,0,0-2,.17,5.63,5.63,0,0,0-1.35.38,2,2,0,0,0-.78.57,1.2,1.2,0,0,0-.25.76,1.67,1.67,0,0,0,.13.69,1.42,1.42,0,0,0,.35.48,1.28,1.28,0,0,0,.5.27A2,2,0,0,0,131.24,377.92Zm2.67-11-1.73,2a.33.33,0,0,1-.13.11.38.38,0,0,1-.16,0h-.46l1.26-1.91a.43.43,0,0,1,.47-.25Z"/><path class="cls-2" d="M137.15,378.35v-8h.41a.21.21,0,0,1,.24.2l.07,1.2a4.6,4.6,0,0,1,1.27-1.11,3.14,3.14,0,0,1,1.61-.42,3,3,0,0,1,1.16.21,2.09,2.09,0,0,1,.83.6,2.55,2.55,0,0,1,.49.94,4.34,4.34,0,0,1,.17,1.25v5.09h-.76v-5.09a2.75,2.75,0,0,0-.51-1.76,1.91,1.91,0,0,0-1.57-.64,2.8,2.8,0,0,0-1.46.41,4.29,4.29,0,0,0-1.19,1.11v6Z"/><path class="cls-2" d="M85.17,423.79h-.63a.28.28,0,0,1-.18-.06.36.36,0,0,1-.11-.16l-1.34-3.29H77.35L76,423.57a.33.33,0,0,1-.11.15.26.26,0,0,1-.19.07h-.63l4.64-11.32h.81Zm-7.57-4.12h5.07L80.36,414a2.09,2.09,0,0,1-.11-.3l-.12-.37c0,.13-.07.25-.11.37a2.24,2.24,0,0,1-.11.31Z"/><path class="cls-2" d="M86.58,423.79v-8H87a.21.21,0,0,1,.24.2l.07,1.15a5,5,0,0,1,.5-.6,3.1,3.1,0,0,1,.56-.47,2.5,2.5,0,0,1,.64-.3,2.17,2.17,0,0,1,.72-.11,1.9,1.9,0,0,1,1.39.51,2.58,2.58,0,0,1,.7,1.41,2.74,2.74,0,0,1,.41-.86,2.36,2.36,0,0,1,.59-.59,2.49,2.49,0,0,1,.73-.36,3.16,3.16,0,0,1,.81-.11,2.71,2.71,0,0,1,1.06.19,2.27,2.27,0,0,1,.81.58,2.7,2.7,0,0,1,.51.95,4.51,4.51,0,0,1,.17,1.28v5.09h-.76V418.7a2.78,2.78,0,0,0-.5-1.78,1.76,1.76,0,0,0-1.44-.61,2.15,2.15,0,0,0-.8.15,1.89,1.89,0,0,0-.67.45,2.18,2.18,0,0,0-.47.75,3,3,0,0,0-.17,1v5.09h-.76V418.7a2.93,2.93,0,0,0-.46-1.78,1.59,1.59,0,0,0-1.35-.61,2.06,2.06,0,0,0-1.2.38,3.71,3.71,0,0,0-1,1.08v6Z"/><path class="cls-2" d="M104.39,423.79a.28.28,0,0,1-.3-.23l-.11-1a8.29,8.29,0,0,1-.65.57,3.52,3.52,0,0,1-.68.43,3,3,0,0,1-.76.27,4.13,4.13,0,0,1-.89.09,2.61,2.61,0,0,1-.79-.12,1.93,1.93,0,0,1-.68-.36,1.83,1.83,0,0,1-.48-.64,2.2,2.2,0,0,1-.18-.93,1.68,1.68,0,0,1,.29-.94,2.29,2.29,0,0,1,.9-.75,6.15,6.15,0,0,1,1.57-.51,12.61,12.61,0,0,1,2.32-.22v-.84a2.67,2.67,0,0,0-.48-1.7,1.69,1.69,0,0,0-1.41-.59,2.61,2.61,0,0,0-1,.16,2.87,2.87,0,0,0-.68.35,4.18,4.18,0,0,0-.46.35.45.45,0,0,1-.29.16.26.26,0,0,1-.24-.14l-.14-.24a4.69,4.69,0,0,1,1.31-.94,3.72,3.72,0,0,1,1.56-.32,3,3,0,0,1,1.12.2,2.06,2.06,0,0,1,.8.59,2.43,2.43,0,0,1,.47.92,4.1,4.1,0,0,1,.16,1.2v5.19Zm-3.2-.43a3.24,3.24,0,0,0,2.19-.81c.19-.16.38-.34.57-.53V420a14.61,14.61,0,0,0-2,.17,5.63,5.63,0,0,0-1.35.38,2,2,0,0,0-.78.57,1.2,1.2,0,0,0-.25.76,1.67,1.67,0,0,0,.13.69,1.42,1.42,0,0,0,.35.48,1.44,1.44,0,0,0,.5.28A2.35,2.35,0,0,0,101.19,423.36Z"/><path class="cls-2" d="M112.33,416.89a.46.46,0,0,1-.07.07.17.17,0,0,1-.1,0,.41.41,0,0,1-.22-.11l-.37-.24a3.68,3.68,0,0,0-.58-.23,2.7,2.7,0,0,0-.85-.11,3,3,0,0,0-1.22.24,2.43,2.43,0,0,0-.89.7,3.14,3.14,0,0,0-.56,1.11,5,5,0,0,0-.19,1.45,5.18,5.18,0,0,0,.19,1.49,3.12,3.12,0,0,0,.56,1.09,2.4,2.4,0,0,0,.87.68,2.8,2.8,0,0,0,1.14.23,2.7,2.7,0,0,0,1-.14,3.54,3.54,0,0,0,.64-.29,3.18,3.18,0,0,0,.4-.3.41.41,0,0,1,.24-.13.17.17,0,0,1,.16.08l.21.25a2.53,2.53,0,0,1-.47.45,2.73,2.73,0,0,1-.63.36,4.23,4.23,0,0,1-.76.24,4.82,4.82,0,0,1-.86.08,3.32,3.32,0,0,1-1.39-.28,2.93,2.93,0,0,1-1.08-.8,3.76,3.76,0,0,1-.71-1.28,5.73,5.73,0,0,1-.25-1.73,5.41,5.41,0,0,1,.24-1.66,3.86,3.86,0,0,1,.7-1.3,3.16,3.16,0,0,1,1.13-.84,3.73,3.73,0,0,1,1.53-.3,3.5,3.5,0,0,1,1.38.25,3.25,3.25,0,0,1,1,.67Z"/><path class="cls-2" d="M114.93,415.83v5.08a2.73,2.73,0,0,0,.52,1.76,1.89,1.89,0,0,0,1.56.64,2.89,2.89,0,0,0,1.46-.4,4.16,4.16,0,0,0,1.21-1.1v-6h.76v8H120a.2.2,0,0,1-.23-.21l-.07-1.19a4.64,4.64,0,0,1-1.28,1.11,3.14,3.14,0,0,1-1.61.41,3,3,0,0,1-1.17-.2,2.16,2.16,0,0,1-.82-.6,2.61,2.61,0,0,1-.5-.95,4.34,4.34,0,0,1-.17-1.25v-5.08Z"/><path class="cls-2" d="M128.34,416.15a.48.48,0,0,1-.11.3l-5,6.74h4.89v.6h-5.81v-.31a.48.48,0,0,1,.12-.29l5-6.76h-4.86v-.6h5.75Z"/><path class="cls-2" d="M135.34,423.79a.27.27,0,0,1-.29-.23l-.12-1a8.29,8.29,0,0,1-.65.57,3.46,3.46,0,0,1-.67.43,3.27,3.27,0,0,1-.76.27,4.29,4.29,0,0,1-.9.09,2.61,2.61,0,0,1-.79-.12,1.93,1.93,0,0,1-.68-.36,1.83,1.83,0,0,1-.48-.64,2.2,2.2,0,0,1-.18-.93,1.68,1.68,0,0,1,.29-.94,2.29,2.29,0,0,1,.9-.75,6.11,6.11,0,0,1,1.58-.51,12.4,12.4,0,0,1,2.31-.22v-.84a2.73,2.73,0,0,0-.47-1.7,1.73,1.73,0,0,0-1.42-.59,2.61,2.61,0,0,0-1,.16,3.08,3.08,0,0,0-.68.35,4.18,4.18,0,0,0-.46.35.45.45,0,0,1-.29.16.26.26,0,0,1-.24-.14l-.14-.24a4.84,4.84,0,0,1,1.31-.94,3.72,3.72,0,0,1,1.56-.32,3,3,0,0,1,1.12.2,2.06,2.06,0,0,1,.8.59,2.59,2.59,0,0,1,.48.92,4.47,4.47,0,0,1,.16,1.2v5.19Zm-3.2-.43a3.2,3.2,0,0,0,.85-.1,3.25,3.25,0,0,0,1.34-.71,7,7,0,0,0,.57-.53V420a14.3,14.3,0,0,0-2,.17,5.59,5.59,0,0,0-1.36.38,2,2,0,0,0-.78.57,1.2,1.2,0,0,0-.25.76,1.67,1.67,0,0,0,.13.69,1.42,1.42,0,0,0,.35.48,1.44,1.44,0,0,0,.5.28A2.35,2.35,0,0,0,132.14,423.36Z"/><path class="cls-2" d="M143.29,416.89l-.08.07a.15.15,0,0,1-.1,0,.44.44,0,0,1-.22-.11,4,4,0,0,0-.37-.24,3.68,3.68,0,0,0-.58-.23,2.66,2.66,0,0,0-.85-.11,3,3,0,0,0-1.22.24,2.43,2.43,0,0,0-.89.7,3.31,3.31,0,0,0-.56,1.11,5,5,0,0,0-.19,1.45,5.18,5.18,0,0,0,.19,1.49,3.29,3.29,0,0,0,.56,1.09,2.4,2.4,0,0,0,.87.68,2.8,2.8,0,0,0,1.14.23,2.7,2.7,0,0,0,1-.14,3.54,3.54,0,0,0,.64-.29,3.18,3.18,0,0,0,.4-.3.41.41,0,0,1,.24-.13.17.17,0,0,1,.16.08l.21.25a2.53,2.53,0,0,1-.47.45,2.73,2.73,0,0,1-.63.36,4.23,4.23,0,0,1-.76.24,4.82,4.82,0,0,1-.86.08,3.32,3.32,0,0,1-1.39-.28,2.93,2.93,0,0,1-1.08-.8,3.59,3.59,0,0,1-.7-1.28,5.87,5.87,0,0,1,0-3.39,3.86,3.86,0,0,1,.7-1.3,3.25,3.25,0,0,1,1.13-.84,3.73,3.73,0,0,1,1.53-.3,3.5,3.5,0,0,1,1.38.25,3.3,3.3,0,0,1,1.06.67Z"/><path class="cls-3" d="M185.27,457.65a3,3,0,0,1,1.07.18,2.31,2.31,0,0,1,.82.48,2.19,2.19,0,0,1,.51.73,2.42,2.42,0,0,1,.18.94,2.55,2.55,0,0,1-.12.81,3.94,3.94,0,0,1-.34.72,4.91,4.91,0,0,1-.5.65c-.19.21-.39.43-.6.64l-1.57,1.61a4.34,4.34,0,0,1,.6-.14,2.68,2.68,0,0,1,.55,0h1.5a.61.61,0,0,1,.43.15.51.51,0,0,1,.16.4v1h-5.63v-.55a1.17,1.17,0,0,1,.06-.35.9.9,0,0,1,.23-.33l2.31-2.32c.2-.2.37-.39.52-.57a3.11,3.11,0,0,0,.36-.53,2.31,2.31,0,0,0,.22-.52,2,2,0,0,0,.07-.55,1.09,1.09,0,0,0-.23-.74.87.87,0,0,0-.69-.25,1,1,0,0,0-.35.05,1.13,1.13,0,0,0-.29.15.77.77,0,0,0-.22.22,1.43,1.43,0,0,0-.15.27.7.7,0,0,1-.22.36.52.52,0,0,1-.36.11h-.12l-.13,0-.9-.16a2.9,2.9,0,0,1,.34-1,2.4,2.4,0,0,1,.62-.75,2.55,2.55,0,0,1,.85-.44A3.4,3.4,0,0,1,185.27,457.65Z"/><path class="cls-3" d="M189.73,464.52h1.54v-4c0-.2,0-.4,0-.62l-.91.75a.54.54,0,0,1-.18.1.33.33,0,0,1-.17,0,.52.52,0,0,1-.25-.07.48.48,0,0,1-.17-.13l-.54-.72,2.5-2.09H193v6.78h1.32v1.24h-4.57Z"/><path class="cls-3" d="M196.21,465.69a.76.76,0,0,1-.16.26.8.8,0,0,1-.21.2.85.85,0,0,1-.26.11.75.75,0,0,1-.26,0h-.73l3.13-8.2a.85.85,0,0,1,.33-.43.93.93,0,0,1,.52-.15h.73Z"/><path class="cls-3" d="M202.67,461.3a.51.51,0,0,1-.14.15.38.38,0,0,1-.19,0,.56.56,0,0,1-.25-.05l-.26-.11a1.85,1.85,0,0,0-.31-.11,1.25,1.25,0,0,0-.4-.06.79.79,0,0,0-.5.13.38.38,0,0,0-.18.34.31.31,0,0,0,.12.26.86.86,0,0,0,.3.19l.42.15.48.16a4.25,4.25,0,0,1,.49.21,1.57,1.57,0,0,1,.42.29,1.08,1.08,0,0,1,.3.42,1.32,1.32,0,0,1,.11.59,2,2,0,0,1-.15.78,1.65,1.65,0,0,1-.46.62,2.07,2.07,0,0,1-.75.4,3.25,3.25,0,0,1-1,.14,2.94,2.94,0,0,1-.59,0,5.12,5.12,0,0,1-.56-.15,3.28,3.28,0,0,1-.5-.22,2.16,2.16,0,0,1-.4-.28l.4-.63a.46.46,0,0,1,.17-.17.48.48,0,0,1,.26-.06.55.55,0,0,1,.26.06l.26.15a3.37,3.37,0,0,0,.32.14,1.51,1.51,0,0,0,.46.06,1.09,1.09,0,0,0,.34,0,.46.46,0,0,0,.22-.11.36.36,0,0,0,.12-.16.39.39,0,0,0,0-.18.36.36,0,0,0-.12-.28.86.86,0,0,0-.3-.19l-.42-.15-.49-.16a4.25,4.25,0,0,1-.49-.21,1.55,1.55,0,0,1-.73-.78,1.82,1.82,0,0,1-.11-.66,1.64,1.64,0,0,1,.14-.69,1.57,1.57,0,0,1,.42-.58,2.24,2.24,0,0,1,.7-.39,3,3,0,0,1,1-.15,2.91,2.91,0,0,1,.6.06,4.26,4.26,0,0,1,.54.15,2.84,2.84,0,0,1,.46.24,2.27,2.27,0,0,1,.37.29Z"/><path class="cls-3" d="M276.27,457.65a3,3,0,0,1,1.07.18,2.31,2.31,0,0,1,.82.48,2.19,2.19,0,0,1,.51.73,2.42,2.42,0,0,1,.18.94,2.55,2.55,0,0,1-.12.81,3.94,3.94,0,0,1-.34.72,4.91,4.91,0,0,1-.5.65c-.19.21-.39.43-.6.64l-1.57,1.61a4.34,4.34,0,0,1,.6-.14,2.68,2.68,0,0,1,.55,0h1.5a.61.61,0,0,1,.43.15.51.51,0,0,1,.16.4v1h-5.63v-.55a1.17,1.17,0,0,1,.06-.35.9.9,0,0,1,.23-.33l2.31-2.32c.2-.2.37-.39.52-.57a3.11,3.11,0,0,0,.36-.53,2.31,2.31,0,0,0,.22-.52,2,2,0,0,0,.07-.55,1.09,1.09,0,0,0-.23-.74.87.87,0,0,0-.69-.25,1,1,0,0,0-.35.05,1.13,1.13,0,0,0-.29.15.77.77,0,0,0-.22.22,1.43,1.43,0,0,0-.15.27.7.7,0,0,1-.22.36.52.52,0,0,1-.36.11h-.12l-.13,0-.9-.16a2.9,2.9,0,0,1,.34-1,2.4,2.4,0,0,1,.62-.75,2.55,2.55,0,0,1,.85-.44A3.4,3.4,0,0,1,276.27,457.65Z"/><path class="cls-3" d="M282.81,457.65a3.14,3.14,0,0,1,1.06.17,2.51,2.51,0,0,1,.78.46,2,2,0,0,1,.65,1.45,2.62,2.62,0,0,1-.08.67,1.53,1.53,0,0,1-.23.5,1.58,1.58,0,0,1-.37.36,2.42,2.42,0,0,1-.51.25,1.78,1.78,0,0,1,1.33,1.81,2.56,2.56,0,0,1-.23,1.11,2.32,2.32,0,0,1-.62.79,2.76,2.76,0,0,1-.9.47,3.79,3.79,0,0,1-1.07.15,4,4,0,0,1-1-.12,2.41,2.41,0,0,1-.79-.38,2.82,2.82,0,0,1-.61-.67,4.87,4.87,0,0,1-.45-1l.76-.31a.76.76,0,0,1,.2-.06l.19,0a.78.78,0,0,1,.31.07.45.45,0,0,1,.21.2,2,2,0,0,0,.53.67,1.09,1.09,0,0,0,.65.2,1.28,1.28,0,0,0,.5-.09,1.16,1.16,0,0,0,.35-.25,1.2,1.2,0,0,0,.21-.34,1.09,1.09,0,0,0,.07-.4,3.23,3.23,0,0,0,0-.46.65.65,0,0,0-.2-.36,1.23,1.23,0,0,0-.5-.22,3.8,3.8,0,0,0-.93-.08v-1.18a3.5,3.5,0,0,0,.81-.08,1.19,1.19,0,0,0,.48-.21.67.67,0,0,0,.22-.33,1.34,1.34,0,0,0,.05-.42,1.06,1.06,0,0,0-.22-.73.91.91,0,0,0-.7-.25,1,1,0,0,0-.35.05,1.32,1.32,0,0,0-.29.15,1.14,1.14,0,0,0-.22.22,1.38,1.38,0,0,0-.14.27.77.77,0,0,1-.22.36.54.54,0,0,1-.37.11H281l-.13,0L280,460a2.9,2.9,0,0,1,.34-1,2.42,2.42,0,0,1,1.47-1.19A3.42,3.42,0,0,1,282.81,457.65Z"/><path class="cls-3" d="M287.21,465.69a.76.76,0,0,1-.16.26.8.8,0,0,1-.21.2.85.85,0,0,1-.26.11.75.75,0,0,1-.26,0h-.73l3.13-8.2a.85.85,0,0,1,.33-.43.93.93,0,0,1,.52-.15h.73Z"/><path class="cls-3" d="M293.67,461.3a.51.51,0,0,1-.14.15.38.38,0,0,1-.19,0,.56.56,0,0,1-.25-.05l-.26-.11a1.85,1.85,0,0,0-.31-.11,1.25,1.25,0,0,0-.4-.06.79.79,0,0,0-.5.13.38.38,0,0,0-.18.34.31.31,0,0,0,.12.26.86.86,0,0,0,.3.19l.42.15.48.16a4.25,4.25,0,0,1,.49.21,1.57,1.57,0,0,1,.42.29,1.08,1.08,0,0,1,.3.42,1.32,1.32,0,0,1,.11.59,2,2,0,0,1-.15.78,1.65,1.65,0,0,1-.46.62,2.07,2.07,0,0,1-.75.4,3.25,3.25,0,0,1-1,.14,2.94,2.94,0,0,1-.59,0,5.12,5.12,0,0,1-.56-.15,3.28,3.28,0,0,1-.5-.22,2.16,2.16,0,0,1-.4-.28l.4-.63a.46.46,0,0,1,.17-.17.48.48,0,0,1,.26-.06.55.55,0,0,1,.26.06l.26.15a3.37,3.37,0,0,0,.32.14,1.51,1.51,0,0,0,.46.06,1.09,1.09,0,0,0,.34,0,.46.46,0,0,0,.22-.11.36.36,0,0,0,.12-.16.39.39,0,0,0,0-.18.36.36,0,0,0-.12-.28.86.86,0,0,0-.3-.19l-.42-.15-.49-.16a4.25,4.25,0,0,1-.49-.21,1.55,1.55,0,0,1-.73-.78,1.82,1.82,0,0,1-.11-.66,1.64,1.64,0,0,1,.14-.69,1.57,1.57,0,0,1,.42-.58,2.24,2.24,0,0,1,.7-.39,3,3,0,0,1,1-.15,2.91,2.91,0,0,1,.6.06,4.26,4.26,0,0,1,.54.15,2.84,2.84,0,0,1,.46.24,2.27,2.27,0,0,1,.37.29Z"/><path class="cls-3" d="M230.27,457.65a3,3,0,0,1,1.07.18,2.31,2.31,0,0,1,.82.48,2.19,2.19,0,0,1,.51.73,2.42,2.42,0,0,1,.18.94,2.55,2.55,0,0,1-.12.81,3.94,3.94,0,0,1-.34.72,4.91,4.91,0,0,1-.5.65c-.19.21-.39.43-.6.64l-1.57,1.61a4.34,4.34,0,0,1,.6-.14,2.68,2.68,0,0,1,.55,0h1.5a.61.61,0,0,1,.43.15.51.51,0,0,1,.16.4v1h-5.63v-.55a1.17,1.17,0,0,1,.06-.35.9.9,0,0,1,.23-.33l2.31-2.32c.2-.2.37-.39.52-.57a3.11,3.11,0,0,0,.36-.53,2.31,2.31,0,0,0,.22-.52,2,2,0,0,0,.07-.55,1.09,1.09,0,0,0-.23-.74.87.87,0,0,0-.69-.25,1,1,0,0,0-.35.05,1.13,1.13,0,0,0-.29.15.77.77,0,0,0-.22.22,1.43,1.43,0,0,0-.15.27.7.7,0,0,1-.22.36.52.52,0,0,1-.36.11h-.12l-.13,0-.9-.16a2.9,2.9,0,0,1,.34-1,2.4,2.4,0,0,1,.62-.75,2.55,2.55,0,0,1,.85-.44A3.4,3.4,0,0,1,230.27,457.65Z"/><path class="cls-3" d="M236.66,457.65a3,3,0,0,1,1.07.18,2.35,2.35,0,0,1,.81.48,2.19,2.19,0,0,1,.51.73,2.42,2.42,0,0,1,.18.94,2.55,2.55,0,0,1-.12.81,3.94,3.94,0,0,1-.34.72,5.94,5.94,0,0,1-.5.65c-.19.21-.39.43-.6.64l-1.57,1.61a4.34,4.34,0,0,1,.6-.14,2.68,2.68,0,0,1,.55,0h1.5a.61.61,0,0,1,.43.15.51.51,0,0,1,.16.4v1h-5.63v-.55a1.17,1.17,0,0,1,.06-.35.9.9,0,0,1,.23-.33l2.31-2.32c.2-.2.37-.39.52-.57a3.11,3.11,0,0,0,.36-.53,2.31,2.31,0,0,0,.22-.52,2,2,0,0,0,.07-.55,1.09,1.09,0,0,0-.23-.74.87.87,0,0,0-.69-.25,1,1,0,0,0-.36.05,1.25,1.25,0,0,0-.28.15.77.77,0,0,0-.22.22,1,1,0,0,0-.14.27.77.77,0,0,1-.23.36.52.52,0,0,1-.36.11h-.12l-.13,0-.9-.16a2.9,2.9,0,0,1,.34-1,2.4,2.4,0,0,1,.62-.75,2.45,2.45,0,0,1,.85-.44A3.42,3.42,0,0,1,236.66,457.65Z"/><path class="cls-3" d="M241.21,465.69a.76.76,0,0,1-.16.26.8.8,0,0,1-.21.2.85.85,0,0,1-.26.11.75.75,0,0,1-.26,0h-.73l3.13-8.2a.85.85,0,0,1,.33-.43.93.93,0,0,1,.52-.15h.73Z"/><path class="cls-3" d="M247.67,461.3a.51.51,0,0,1-.14.15.38.38,0,0,1-.19,0,.56.56,0,0,1-.25-.05l-.26-.11a1.85,1.85,0,0,0-.31-.11,1.25,1.25,0,0,0-.4-.06.79.79,0,0,0-.5.13.38.38,0,0,0-.18.34.31.31,0,0,0,.12.26.86.86,0,0,0,.3.19l.42.15.48.16a4.25,4.25,0,0,1,.49.21,1.57,1.57,0,0,1,.42.29,1.08,1.08,0,0,1,.3.42,1.32,1.32,0,0,1,.11.59,2,2,0,0,1-.15.78,1.65,1.65,0,0,1-.46.62,2.07,2.07,0,0,1-.75.4,3.25,3.25,0,0,1-1,.14,2.94,2.94,0,0,1-.59,0,5.12,5.12,0,0,1-.56-.15,3.28,3.28,0,0,1-.5-.22,2.16,2.16,0,0,1-.4-.28l.4-.63a.46.46,0,0,1,.17-.17.48.48,0,0,1,.26-.06.55.55,0,0,1,.26.06l.26.15a3.37,3.37,0,0,0,.32.14,1.51,1.51,0,0,0,.46.06,1.09,1.09,0,0,0,.34,0,.46.46,0,0,0,.22-.11.36.36,0,0,0,.12-.16.39.39,0,0,0,0-.18.36.36,0,0,0-.12-.28.86.86,0,0,0-.3-.19l-.42-.15-.49-.16a4.25,4.25,0,0,1-.49-.21,1.55,1.55,0,0,1-.73-.78,1.82,1.82,0,0,1-.11-.66,1.64,1.64,0,0,1,.14-.69,1.57,1.57,0,0,1,.42-.58,2.24,2.24,0,0,1,.7-.39,3,3,0,0,1,1-.15,2.91,2.91,0,0,1,.6.06,4.26,4.26,0,0,1,.54.15,2.84,2.84,0,0,1,.46.24,2.27,2.27,0,0,1,.37.29Z"/><path class="cls-4" d="M197.2,55A4.27,4.27,0,1,0,196,58,4.24,4.24,0,0,0,197.2,55Z"/><path class="cls-5" d="M197.2,146.13a4.28,4.28,0,0,0-1.25-3,4.27,4.27,0,0,0-6,0,4.26,4.26,0,0,0,3,7.27,4.25,4.25,0,0,0,4.26-4.25Z"/><path class="cls-6" d="M197.2,192.2a4.27,4.27,0,1,0-1.25,3A4.25,4.25,0,0,0,197.2,192.2Z"/><path class="cls-7" d="M197.2,328.42a4.27,4.27,0,1,0-1.25,3A4.25,4.25,0,0,0,197.2,328.42Z"/><path class="cls-8" d="M246.54,8.9a8.52,8.52,0,1,0-2.5,6A8.51,8.51,0,0,0,246.54,8.9Z"/><path class="cls-9" d="M244,100.05a6,6,0,1,0-1.76,4.26A6,6,0,0,0,244,100.05Z"/><path class="cls-10" d="M242.28,146.13a4.25,4.25,0,1,0-1.25,3A4.28,4.28,0,0,0,242.28,146.13Z"/><path class="cls-11" d="M242.28,192.2a4.27,4.27,0,1,0-1.25,3A4.25,4.25,0,0,0,242.28,192.2Z"/><path class="cls-12" d="M242.28,237.27A4.25,4.25,0,0,0,238,233a4.26,4.26,0,1,0,0,8.52,4.27,4.27,0,0,0,4.26-4.27Z"/><path class="cls-13" d="M242.28,283.35a4.27,4.27,0,1,0-1.25,3A4.25,4.25,0,0,0,242.28,283.35Z"/><path class="cls-14" d="M244,328.42a6,6,0,0,0-1.76-4.25,6,6,0,1,0,1.76,4.25Z"/><path class="cls-15" d="M242.28,373.5a4.27,4.27,0,1,0-1.25,3A4.25,4.25,0,0,0,242.28,373.5Z"/><path class="cls-16" d="M244,418.58a6,6,0,1,0-1.76,4.25A6,6,0,0,0,244,418.58Z"/><path class="cls-17" d="M292.61,8.9a8.52,8.52,0,1,0-2.5,6A8.51,8.51,0,0,0,292.61,8.9Z"/><path class="cls-18" d="M291.61,55a8.52,8.52,0,1,0-2.5,6A8.53,8.53,0,0,0,291.61,55Z"/><path class="cls-19" d="M289.11,100.05a6,6,0,1,0-1.76,4.26A6,6,0,0,0,289.11,100.05Z"/><path class="cls-20" d="M289.11,146.13a6,6,0,1,0-1.76,4.25A6,6,0,0,0,289.11,146.13Z"/><path class="cls-21" d="M289.11,192.2a6,6,0,1,0-1.76,4.26A6,6,0,0,0,289.11,192.2Z"/><path class="cls-22" d="M290.47,237.27a7.37,7.37,0,1,0-2.16,5.22A7.38,7.38,0,0,0,290.47,237.27Z"/><path class="cls-23" d="M289.11,283.35a6,6,0,1,0-1.76,4.26A6,6,0,0,0,289.11,283.35Z"/><path class="cls-24" d="M287.35,373.5a4.27,4.27,0,1,0-1.25,3A4.25,4.25,0,0,0,287.35,373.5Z"/><path class="cls-25" d="M347.54,8.52a8.54,8.54,0,1,0-2.5,6A8.49,8.49,0,0,0,347.54,8.52Z"/><path class="cls-26" d="M325,11a6,6,0,1,0-1.77,4.26A6,6,0,0,0,325,11Z"/><path class="cls-2" d="M319.49,7.71a1.93,1.93,0,0,1,.6.09,1.44,1.44,0,0,1,.48.28,1.17,1.17,0,0,1,.31.44,1.34,1.34,0,0,1,.12.58,1.72,1.72,0,0,1-.08.52,2.82,2.82,0,0,1-.23.46,4.35,4.35,0,0,1-.33.42l-.4.42-1.32,1.35.28-.06a1.37,1.37,0,0,1,.28,0h1.68a.21.21,0,0,1,.16.06.2.2,0,0,1,.06.15v.38h-3.35v-.21a.35.35,0,0,1,0-.14.38.38,0,0,1,.09-.13l1.6-1.61.37-.39a3.08,3.08,0,0,0,.28-.38,1.64,1.64,0,0,0,.18-.38,1.42,1.42,0,0,0,.06-.42,1,1,0,0,0-.07-.39.66.66,0,0,0-.19-.27.75.75,0,0,0-.29-.16,1,1,0,0,0-.35-.06,1,1,0,0,0-.35.06,1.32,1.32,0,0,0-.29.15,1.21,1.21,0,0,0-.21.24,1.34,1.34,0,0,0-.12.3.27.27,0,0,1-.08.15.24.24,0,0,1-.15,0h-.08l-.32-.06a1.89,1.89,0,0,1,.18-.61,1.73,1.73,0,0,1,.36-.44,1.47,1.47,0,0,1,.49-.27A2,2,0,0,1,319.49,7.71Z"/><path class="cls-2" d="M339.89,8.93h1v.46a.19.19,0,0,1,0,.12.17.17,0,0,1-.13.05h-.8v1.69h-.71V9.56h-2.86a.2.2,0,0,1-.15-.06.22.22,0,0,1-.09-.12L336,9l3.14-4.17h.75Zm-.71-2.66a2.35,2.35,0,0,1,0-.26,2.45,2.45,0,0,1,0-.27l-2.34,3.19h2.31Z"/></g></g></svg>