<svg xmlns="http://www.w3.org/2000/svg" viewBox="0 0 1200 1759.77"><defs><style>.cls-1{isolation:isolate;}.cls-15,.cls-16,.cls-2,.cls-24,.cls-25,.cls-30,.cls-31,.cls-35,.cls-47,.cls-48,.cls-49,.cls-50,.cls-57{fill:none;stroke-miterlimit:10;}.cls-2{stroke:#d4d4d4;stroke-width:2px;}.cls-3{fill:#e4d5d5;}.cls-4{fill:#aca226;}.cls-18,.cls-27,.cls-28,.cls-37,.cls-39,.cls-4,.cls-5,.cls-6,.cls-74{mix-blend-mode:darken;}.cls-6,.cls-7{fill:#b69b9b;}.cls-8{font-size:37px;}.cls-12,.cls-23,.cls-46,.cls-53,.cls-59,.cls-8{fill:#fff;}.cls-12,.cls-23,.cls-33,.cls-38,.cls-46,.cls-53,.cls-55,.cls-59,.cls-64,.cls-8{font-family:Lato-Black, Lato;}.cls-12,.cls-9{font-size:26px;}.cls-13,.cls-19,.cls-29,.cls-34,.cls-41,.cls-52,.cls-60,.cls-65,.cls-9{font-family:Lato-Regular, Lato;}.cls-10{letter-spacing:-0.07em;}.cls-11{fill:#9d766a;}.cls-13,.cls-41{font-size:11px;}.cls-14{letter-spacing:-0.02em;}.cls-15,.cls-16{stroke:#c30100;}.cls-16{stroke-dasharray:3.95 1.97;}.cls-17,.cls-18,.cls-19{fill:#c30100;}.cls-19,.cls-29,.cls-34,.cls-52{font-size:10px;}.cls-20{letter-spacing:-0.02em;}.cls-21{letter-spacing:-0.05em;}.cls-22{letter-spacing:-0.07em;}.cls-23{font-size:12.59px;}.cls-24,.cls-25{stroke:#910000;}.cls-25{stroke-dasharray:4.02 2.01;}.cls-26,.cls-28,.cls-29{fill:#910000;}.cls-27{fill:#6d1029;}.cls-30,.cls-31{stroke:#db3664;}.cls-31{stroke-dasharray:4.02 2.01;}.cls-32,.cls-33{fill:#db3664;}.cls-33,.cls-38,.cls-55{font-size:12px;}.cls-35{stroke:#e06e8e;}.cls-35,.cls-57{stroke-dasharray:4 2;}.cls-36,.cls-37,.cls-38{fill:#e06e8e;}.cls-39,.cls-40,.cls-41{fill:#6d0e29;}.cls-42{letter-spacing:-0.02em;}.cls-43{letter-spacing:0em;}.cls-44{letter-spacing:-0.07em;}.cls-45{letter-spacing:-0.02em;}.cls-46{font-size:18.88px;}.cls-47,.cls-48{stroke:#6d0e29;}.cls-48{stroke-dasharray:4.02 2.01;}.cls-49,.cls-50{stroke:#390b19;}.cls-50{stroke-dasharray:3.92 1.96;}.cls-51,.cls-52,.cls-74{fill:#390b19;}.cls-53{font-size:20.98px;}.cls-54,.cls-55{fill:#b04226;}.cls-56{letter-spacing:-0.02em;}.cls-57{stroke:#b04226;}.cls-58,.cls-64{fill:#4b4343;}.cls-59{font-size:46.15px;}.cls-60{font-size:29.37px;}.cls-61{letter-spacing:-0.02em;}.cls-62{letter-spacing:-0.05em;}.cls-63{letter-spacing:-0.07em;}.cls-64{font-size:37.76px;}.cls-65{font-size:14.69px;}.cls-66{letter-spacing:-0.02em;}.cls-67{letter-spacing:-0.07em;}.cls-68{letter-spacing:-0.03em;}.cls-69{letter-spacing:-0.07em;}.cls-70{letter-spacing:-0.05em;}.cls-71{letter-spacing:-0.02em;}.cls-72{letter-spacing:-0.05em;}.cls-73{letter-spacing:-0.07em;}</style></defs><title>daños estructurales_1</title><g class="cls-1"><g id="Capa_2" data-name="Capa 2"><g id="Layer_1" data-name="Layer 1"><line id="Eje_estructuras" data-name="Eje estructuras" class="cls-2" x1="270.37" y1="1301.12" x2="888.2" y2="1301.12"/><rect id="Grupo_derrumbes" data-name="Grupo derrumbes" class="cls-3" x="326.49" y="1274.11" width="121.68" height="54.02" rx="10" ry="10"/><line class="cls-4" x1="1044.46" y1="514.14" x2="1044.46" y2="514.14"/><g id="Grietas"><g class="cls-5"><polygon class="cls-6" points="495.86 1300.86 495.86 1076.38 54.25 599.63 53.73 514.14 73.84 514.14 74.37 599.63 515.98 1076.38 515.98 1300.86 495.86 1300.86"/><polygon class="cls-6" points="521.36 1300.86 521.36 1076.38 168.39 599.63 168.39 514.14 200.24 514.14 200.24 599.63 553.21 1076.38 553.21 1300.86 521.36 1300.86"/><polygon class="cls-6" points="559 1300.86 558.48 1076.38 282.08 599.63 282.08 514.14 373.37 514.14 373.37 599.63 649.77 1076.38 649.77 1300.86 559 1300.86"/><polygon class="cls-6" points="654.72 1300.86 654.72 1076.38 385.14 599.63 385.14 514.14 390.6 514.14 390.6 599.63 660.18 1076.38 660.18 1300.86 654.72 1300.86"/><polygon class="cls-6" points="666.11 1300.86 666.11 1076.38 493.04 599.63 493.04 514.14 494.63 514.14 494.63 599.63 667.71 1076.38 667.71 1300.86 666.11 1300.86"/><polygon class="cls-6" points="671.42 1300.86 671.42 1076.38 604.34 599.63 604.29 514.14 614.94 514.14 614.99 599.63 682.07 1076.38 682.07 1300.86 671.42 1300.86"/><polygon class="cls-6" points="685.44 1300.86 685.44 1076.38 713.23 599.63 713.23 514.14 718.65 514.14 718.65 599.63 690.85 1076.38 690.85 1300.86 685.44 1300.86"/><polygon class="cls-6" points="693.68 1300.86 693.68 1076.38 823.23 599.63 823.23 514.14 824.82 514.14 824.82 599.63 695.27 1076.38 695.27 1300.86 693.68 1300.86"/><polygon class="cls-6" points="699.72 1300.86 699.72 1076.38 934.16 599.63 934.16 514.14 934.85 514.14 934.85 599.63 700.4 1076.38 700.4 1300.86 699.72 1300.86"/><polygon class="cls-6" points="705.24 1300.86 705.24 1076.38 1044.05 599.63 1044.05 514.14 1044.46 514.14 1044.46 599.63 705.65 1076.38 705.65 1300.86 705.24 1300.86"/><rect class="cls-7" x="468.88" y="1169.48" width="262.24" height="262.24" rx="10" ry="10"/><polygon class="cls-7" points="480.16 1430.23 718.95 1430.23 719.47 1498.03 719.47 1686.69 480.68 1686.69 480.68 1498.06 480.16 1430.23"/></g><text class="cls-8" transform="translate(556.82 1292.9)">3715<tspan class="cls-9"><tspan x="-9.08" y="31.47">GRIE</tspan><tspan class="cls-10" x="49.83" y="31.47">T</tspan><tspan x="63.46" y="31.47">AS</tspan></tspan></text></g><g class="cls-5"><polygon class="cls-11" points="779.52 1300.86 779.08 1076.38 51.54 599.63 51.54 514.14 53.73 514.14 54.28 599.63 781.26 1076.38 781.7 1300.86 779.52 1300.86"/><polygon class="cls-11" points="786.12 1300.86 786.12 1076.38 162.52 599.63 162.52 514.14 168.39 514.14 168.39 599.63 791.99 1076.38 791.99 1300.86 786.12 1300.86"/><polygon class="cls-11" points="797.18 1300.86 797.18 1076.38 272.71 599.63 272.71 514.14 281.94 514.14 281.94 599.63 806.42 1076.38 806.42 1300.86 797.18 1300.86"/><polygon class="cls-11" points="811.77 1300.86 811.77 1076.38 382.23 599.63 382.23 514.14 385.05 514.14 385.05 599.63 814.59 1076.38 814.59 1300.86 811.77 1300.86"/><polygon class="cls-11" points="823.21 1300.86 823.21 1076.38 492.26 599.63 492.26 514.14 492.26 514.14 492.26 599.63 823.21 1076.38 823.21 1300.86 823.21 1300.86"/><polygon class="cls-11" points="819.01 1300.86 819.01 1076.38 492.26 599.63 492.26 514.14 493.04 514.14 493.04 599.63 819.78 1076.38 819.78 1300.86 819.01 1300.86"/><polygon class="cls-11" points="825.51 1300.86 825.51 1076.38 602.76 599.63 602.61 514.14 604.2 514.14 604.36 599.63 827.1 1076.38 827.1 1300.86 825.51 1300.86"/><polygon class="cls-11" points="829.58 1300.86 829.58 1076.38 713.14 599.63 713.14 514.14 713.23 514.14 713.23 599.63 829.67 1076.38 829.67 1300.86 829.58 1300.86"/><polygon class="cls-11" points="832.44 1300.86 832.44 1076.38 823 599.63 823 514.14 823.18 514.14 823.18 599.63 832.62 1076.38 832.62 1300.86 832.44 1300.86"/><polygon class="cls-11" points="834.47 1300.86 834.47 1076.38 934.12 599.63 934.12 514.14 934.16 514.14 934.16 599.63 834.51 1076.38 834.51 1300.86 834.47 1300.86"/><polygon class="cls-11" points="838.32 1300.86 838.32 1076.38 1043.91 599.63 1043.91 514.14 1043.91 514.14 1043.91 599.63 838.32 1076.38 838.32 1300.86 838.32 1300.86"/><polygon class="cls-11" points="836.22 1300.86 836.22 1076.38 1043.91 599.63 1043.91 514.14 1044.05 514.14 1044.05 599.63 836.36 1076.38 836.36 1300.86 836.22 1300.86"/><rect class="cls-11" x="761.63" y="1252.15" width="96.59" height="96.59" rx="10" ry="10"/><polygon class="cls-11" points="793.93 1348.58 826.33 1348.58 785.07 1476.03 752.38 1498.06 752.38 1686.69 719.98 1686.69 719.98 1498.06 754.98 1469.21 793.93 1348.58"/></g><text class="cls-12" transform="translate(787.43 1301.97)">504<tspan class="cls-13"><tspan x="13.86" y="12.59">SIN</tspan><tspan x="-16.96" y="25.79">INFORM</tspan><tspan class="cls-14" x="26.94" y="25.79">A</tspan><tspan x="34.19" y="25.79">CIÓN</tspan></tspan></text><g id="Derrumbe_total" data-name="Derrumbe total"><line class="cls-15" x1="260.4" y1="1128.3" x2="262.4" y2="1128.3"/><line class="cls-16" x1="264.37" y1="1128.3" x2="423.17" y2="1128.3"/><line class="cls-15" x1="424.16" y1="1128.3" x2="426.16" y2="1128.3"/><rect class="cls-17" x="425.66" y="1125.05" width="1" height="6.5"/><g class="cls-5"><polygon class="cls-18" points="426.81 1300.86 426.81 1076.38 73.84 599.63 73.84 514.14 74.12 514.14 74.12 599.63 427.09 1076.38 427.09 1300.86 426.81 1300.86"/><polygon class="cls-18" points="428.39 1300.86 428.39 1076.38 200.24 599.63 200.24 514.14 200.38 514.14 200.38 599.63 428.52 1076.38 428.52 1300.86 428.39 1300.86"/><polygon class="cls-18" points="430.06 1300.86 430.06 1076.38 373.41 599.63 373.41 514.14 373.96 514.14 373.96 599.63 430.6 1076.38 430.6 1300.86 430.06 1300.86"/><polygon class="cls-18" points="432.08 1300.86 432.08 1076.38 390.65 599.63 390.65 514.14 390.69 514.14 390.69 599.63 432.13 1076.38 432.13 1300.86 432.08 1300.86"/><polygon class="cls-18" points="433.79 1300.86 433.79 1076.38 494.63 599.63 494.63 514.14 494.67 514.14 494.67 599.63 433.83 1076.38 433.83 1300.86 433.79 1300.86"/><polygon class="cls-18" points="435.58 1300.86 435.4 1076.38 615.05 599.63 614.94 514.14 614.94 514.14 615.04 599.63 435.39 1076.38 435.57 1300.86 435.58 1300.86"/><polygon class="cls-18" points="439.86 1300.86 439.86 1076.38 824.82 599.63 824.82 514.14 824.96 514.14 824.96 599.63 439.99 1076.38 439.99 1300.86 439.86 1300.86"/><polygon class="cls-18" points="441.31 1300.86 441.31 1076.38 934.85 599.63 934.85 514.14 934.89 514.14 934.89 599.63 441.36 1076.38 441.36 1300.86 441.31 1300.86"/><line class="cls-18" x1="442.89" y1="1300.86" x2="442.89" y2="1300.86"/><line class="cls-18" x1="442.89" y1="1300.86" x2="442.89" y2="1300.86"/><rect class="cls-17" x="423.25" y="1289.65" width="22.36" height="22.36" rx="10" ry="10"/><polygon class="cls-17" points="442.89 1300.86 442.89 1076.38 1044.46 599.63 1044.46 514.14 1044.46 514.14 1044.46 599.63 442.89 1076.38 442.89 1300.86"/><polygon class="cls-17" points="437.54 1300.86 437.54 1076.38 718.65 599.63 718.65 514.14 718.65 514.14 718.65 599.63 437.54 1076.38 437.54 1300.86"/><polygon class="cls-17" points="433.64 1311.17 435.37 1311.17 457.95 1462.92 480.48 1498.06 480.48 1686.69 478.74 1686.69 478.74 1498.05 456.22 1462.92 433.64 1311.17"/></g><text class="cls-19" transform="translate(200.86 1129.38)">DER<tspan class="cls-20" x="19.78" y="0">R</tspan><tspan x="26.01" y="0">UMBE </tspan><tspan class="cls-21" x="0" y="12">TO</tspan><tspan class="cls-22" x="12.9" y="12">T</tspan><tspan x="18.14" y="12">AL</tspan></text><text class="cls-23" transform="translate(427.23 1306.21)">27</text></g><g id="Derrumbe_no_especificado" data-name="Derrumbe no especificado"><line class="cls-24" x1="276.66" y1="1181.01" x2="278.66" y2="1181.01"/><line class="cls-25" x1="280.67" y1="1181.01" x2="388.28" y2="1181.01"/><line class="cls-24" x1="389.28" y1="1181.01" x2="391.28" y2="1181.01"/><rect class="cls-26" x="390.78" y="1177.76" width="1" height="6.5"/><g class="cls-5"><polygon class="cls-27" points="391.95 1300.86 391.95 1076.38 74.12 599.63 74.12 514.14 74.16 514.14 74.16 599.63 391.99 1076.38 391.99 1300.86 391.95 1300.86"/><polygon class="cls-28" points="393.38 1300.86 393.38 1076.38 200.38 599.63 200.38 514.14 201.06 514.14 201.06 599.63 394.07 1076.38 394.07 1300.86 393.38 1300.86"/><polygon class="cls-28" points="395.99 1300.86 395.99 1076.38 373.96 599.63 373.96 514.14 374.46 514.14 374.46 599.63 396.49 1076.38 396.49 1300.86 395.99 1300.86"/><polygon class="cls-28" points="398.56 1300.86 398.56 1076.38 390.69 599.63 390.69 514.14 390.83 514.14 390.83 599.63 398.69 1076.38 398.69 1300.86 398.56 1300.86"/><polygon class="cls-28" points="400.79 1300.86 400.79 1076.38 494.67 599.63 494.67 514.14 494.76 514.14 494.76 599.63 400.88 1076.38 400.88 1300.86 400.79 1300.86"/><polygon class="cls-28" points="403.05 1300.86 402.54 1076.38 614.94 599.63 614.94 514.14 614.94 514.14 614.94 599.63 402.54 1076.38 403.05 1300.86 403.05 1300.86"/><polygon class="cls-28" points="404.49 1300.86 404.49 1076.38 718.65 599.63 718.65 514.14 718.74 514.14 718.74 599.63 404.58 1076.38 404.58 1300.86 404.49 1300.86"/><polygon class="cls-28" points="405.9 1300.86 405.9 1076.38 824.96 599.63 824.96 514.14 825 514.14 825 599.63 405.95 1076.38 405.95 1300.86 405.9 1300.86"/><polygon class="cls-28" points="407.27 1300.86 407.27 1076.38 934.89 599.63 934.89 514.14 934.94 514.14 934.94 599.63 407.31 1076.38 407.31 1300.86 407.27 1300.86"/><polygon class="cls-28" points="408.27 1300.86 408.27 1076.38 1044.46 599.63 1044.46 514.14 1044.51 514.14 1044.51 599.63 408.32 1076.38 408.32 1300.86 408.27 1300.86"/><rect class="cls-26" x="386.77" y="1288.06" width="26.17" height="26.17" rx="10" ry="10"/><polygon class="cls-26" points="398.79 1313.97 401.17 1313.97 436.1 1467.12 478.79 1498.05 478.79 1686.69 476.41 1686.69 476.41 1498.05 433.5 1468.16 398.79 1313.97"/></g><text class="cls-29" transform="translate(200.86 1181.3)">DER<tspan class="cls-20" x="19.78" y="0">R</tspan><tspan x="26.01" y="0">UMBE NO </tspan><tspan x="0" y="12">ESPECIFICADO</tspan></text><text class="cls-23" transform="translate(392.87 1305.68)">33</text></g><g id="Fuga_de_gas" data-name="Fuga de gas"><line class="cls-30" x1="255.16" y1="1408.64" x2="256.21" y2="1408.64"/><line class="cls-31" x1="257.26" y1="1408.64" x2="456.04" y2="1408.64"/><line class="cls-30" x1="456.57" y1="1408.64" x2="457.62" y2="1408.64"/><polygon class="cls-32" points="461.8 1411 457.15 1408.62 461.54 1406.01 461.8 1411"/><g class="cls-5"><polygon class="cls-32" points="456.24 1300.86 456.24 1076.38 373.37 599.63 373.37 514.14 373.41 514.14 373.41 599.63 456.28 1076.38 456.28 1300.86 456.24 1300.86"/><polygon class="cls-32" points="457.21 1300.86 457.21 1076.38 390.6 599.63 390.6 514.14 390.65 514.14 390.65 599.63 457.25 1076.38 457.25 1300.86 457.21 1300.86"/><rect class="cls-32" x="454.24" y="1297.62" width="6.08" height="6.08" rx="3.04" ry="3.04"/><polygon class="cls-32" points="456.89 1303.48 457.02 1303.48 464.12 1461.35 480.62 1498.06 480.62 1686.69 480.49 1686.69 480.49 1498.06 463.99 1461.34 456.89 1303.48"/></g><text class="cls-33" transform="translate(233.73 1398.48)">2<tspan class="cls-34"><tspan x="-10.07" y="12">FUGA</tspan><tspan x="-13.88" y="24">DE GAS</tspan></tspan></text></g><g id="Inclinación"><line class="cls-35" x1="869.84" y1="1408.64" x2="750.92" y2="1408.64"/><polygon class="cls-36" points="743.44 1403.68 751.82 1408.66 743.44 1413.65 743.44 1403.68"/><g class="cls-5"><polygon class="cls-36" points="745.06 1300.86 745.06 1076.38 281.94 599.63 281.94 514.14 282.08 514.14 282.08 599.63 745.19 1076.38 745.19 1300.86 745.06 1300.86"/><polygon class="cls-36" points="745.89 1300.86 745.89 1076.38 385.05 599.63 385.05 514.14 385.14 514.14 385.14 599.63 745.98 1076.38 745.98 1300.86 745.89 1300.86"/><polygon class="cls-36" points="746.86 1300.86 746.86 1076.38 604.2 599.63 604.2 514.14 604.29 514.14 604.29 599.63 746.95 1076.38 746.95 1300.86 746.86 1300.86"/><polygon class="cls-37" points="748.37 1300.86 748.37 1076.38 713.23 599.63 713.23 514.14 713.23 514.14 713.23 599.63 748.37 1076.38 748.37 1300.86 748.37 1300.86"/><rect class="cls-36" x="740.22" y="1294.59" width="12.17" height="12.17" rx="6.08" ry="6.08"/><polygon class="cls-36" points="745.62 1306.63 746.14 1306.63 742.08 1465.02 719.91 1498.06 719.91 1686.69 719.4 1686.69 719.4 1498.03 741.56 1465.02 745.62 1306.63"/></g><text class="cls-38" transform="translate(902.48 1397.96)">8<tspan class="cls-34"><tspan x="-29.17" y="12">INCLIN</tspan><tspan class="cls-20" x="4.08" y="12">A</tspan><tspan x="10.67" y="12">CIÓN</tspan></tspan></text></g><g id="Derrumbe_parcial" data-name="Derrumbe parcial"><g class="cls-5"><polygon class="cls-39" points="346.37 1300.86 346.37 1076.38 74.16 599.63 74.16 514.14 75.62 514.14 75.62 599.63 347.82 1076.38 347.82 1300.86 346.37 1300.86"/><polygon class="cls-39" points="348.96 1300.86 348.96 1076.38 201.06 599.63 201.06 514.14 201.43 514.14 201.43 599.63 349.33 1076.38 349.33 1300.86 348.96 1300.86"/><polygon class="cls-39" points="350.86 1300.86 350.86 1076.38 374.46 599.63 374.46 514.14 376.33 514.14 376.33 599.63 352.73 1076.38 352.73 1300.86 350.86 1300.86"/><polygon class="cls-39" points="353.59 1300.86 353.59 1076.38 390.83 599.63 390.83 514.14 391.06 514.14 391.06 599.63 353.82 1076.38 353.82 1300.86 353.59 1300.86"/><polygon class="cls-39" points="355.25 1300.86 355.25 1076.38 494.76 599.63 494.76 514.14 494.81 514.14 494.81 599.63 355.3 1076.38 355.3 1300.86 355.25 1300.86"/><polygon class="cls-39" points="356.37 1300.86 356.37 1076.38 614.94 599.63 614.94 514.14 615.12 514.14 615.12 599.63 356.56 1076.38 356.56 1300.86 356.37 1300.86"/><polygon class="cls-39" points="357.38 1300.86 357.38 1076.38 718.74 599.63 718.74 514.14 719.24 514.14 719.24 599.63 357.88 1076.38 357.88 1300.86 357.38 1300.86"/><polygon class="cls-39" points="358.74 1300.86 358.74 1076.38 825 599.63 825 514.14 825.32 514.14 825.32 599.63 359.06 1076.38 359.06 1300.86 358.74 1300.86"/><polygon class="cls-39" points="360.11 1300.86 360.11 1076.38 934.94 599.63 934.94 514.14 934.94 514.14 934.94 599.63 360.11 1076.38 360.11 1300.86 360.11 1300.86"/><polygon class="cls-39" points="361.64 1300.86 361.64 1076.38 1044.51 599.63 1044.51 514.14 1044.51 514.14 1044.51 599.63 361.64 1076.38 361.64 1300.86 361.64 1300.86"/><rect class="cls-40" x="331.78" y="1278.5" width="44.92" height="44.92" rx="10" ry="10"/><polygon class="cls-40" points="349.85 1323.41 356.85 1323.41 403.81 1474.46 476.43 1498.05 476.43 1686.69 469.43 1686.69 469.43 1498 397.29 1476.56 349.85 1323.41"/></g><text class="cls-41" transform="translate(200.86 1233.96)">DER<tspan class="cls-42" x="21.76" y="0">R</tspan><tspan class="cls-43" x="28.61" y="0">UMBE </tspan><tspan class="cls-44" x="0" y="12.59">P</tspan><tspan x="5.96" y="12.59">A</tspan><tspan class="cls-45" x="13.44" y="12.59">R</tspan><tspan x="20.27" y="12.59">CIAL</tspan></text><text class="cls-46" transform="translate(337.73 1307.25)">109</text><line class="cls-47" x1="267.22" y1="1232.94" x2="269.22" y2="1232.94"/><line class="cls-48" x1="271.23" y1="1232.94" x2="342.65" y2="1232.94"/><line class="cls-47" x1="343.65" y1="1232.94" x2="345.65" y2="1232.94"/><rect class="cls-40" x="345.15" y="1229.69" width="1" height="6.5"/></g><g id="Daños_sin_especificar" data-name="Daños sin especificar"><line class="cls-49" x1="252.27" y1="1334.68" x2="254.27" y2="1334.68"/><line class="cls-50" x1="256.23" y1="1334.68" x2="296.37" y2="1334.68"/><line class="cls-49" x1="297.35" y1="1334.68" x2="299.35" y2="1334.68"/><polygon class="cls-51" points="306.82 1339.64 298.45 1334.66 306.82 1329.67 306.82 1339.64"/><g class="cls-5"><rect class="cls-51" x="286.1" y="1285.65" width="31.32" height="31.32" rx="10" ry="10"/><polygon class="cls-51" points="298.98 1316.59 304.25 1316.59 356.38 1485.47 469.46 1498 469.46 1686.69 464.19 1686.69 464.42 1500.16 353.23 1486.52 298.98 1316.59"/><polygon class="cls-51" points="307.09 1300.33 307.09 1076.38 1044.5 599.63 1044.5 513.79 1044.85 513.79 1044.85 599.63 307.44 1076.38 307.44 1300.33 307.09 1300.33"/><polygon class="cls-51" points="304.52 1300.33 304.52 1076.38 934.94 599.63 934.94 513.79 935.93 513.79 935.93 599.63 305.51 1076.38 305.51 1300.33 304.52 1300.33"/><polygon class="cls-51" points="301.9 1300.33 301.9 1076.38 825.33 599.63 825.33 513.79 826.61 513.79 826.61 599.63 303.19 1076.38 303.19 1300.33 301.9 1300.33"/><polygon class="cls-51" points="300.71 1300.33 300.71 1076.38 719.24 599.63 719.24 513.79 719.34 513.79 719.34 599.63 300.81 1076.38 300.81 1300.33 300.71 1300.33"/><polygon class="cls-51" points="299.38 1300.33 299.38 1076.38 615.11 599.63 615.11 513.79 615.31 513.79 615.31 599.63 299.57 1076.38 299.57 1300.33 299.38 1300.33"/><polygon class="cls-51" points="298.13 1300.33 298.13 1076.38 494.81 599.63 494.81 513.79 495.35 513.79 495.35 599.63 298.67 1076.38 298.67 1300.33 298.13 1300.33"/><polygon class="cls-51" points="297.17 1300.33 297.17 1076.38 391.06 599.63 391.06 513.79 391.3 513.79 391.3 599.63 297.42 1076.38 297.42 1300.33 297.17 1300.33"/><polygon class="cls-51" points="296.1 1300.33 296.1 1076.38 376.34 599.63 376.34 513.79 376.44 513.79 376.44 599.63 296.19 1076.38 296.19 1300.33 296.1 1300.33"/><polygon class="cls-51" points="294.78 1300.33 294.78 1076.38 201.42 599.63 201.42 513.79 201.52 513.79 201.52 599.63 294.88 1076.38 294.88 1300.33 294.78 1300.33"/><polygon class="cls-51" points="293.81 1300.33 293.81 1076.38 75.63 599.63 75.63 513.79 75.78 513.79 75.78 599.63 293.96 1076.38 293.96 1300.33 293.81 1300.33"/></g><text class="cls-52" transform="translate(200.5 1335.5)"><tspan class="cls-20">D</tspan><tspan x="7.32" y="0">AÑO SIN</tspan><tspan x="0" y="12">ESPECIFICAR</tspan></text><text class="cls-53" transform="translate(289.8 1308.82)">76</text></g><g id="Otros_daños" data-name="Otros daños"><g class="cls-5"><polygon class="cls-54" points="870.73 1300.86 870.73 1076.38 51.5 599.63 51.5 514.14 51.54 514.14 51.54 599.63 870.77 1076.38 870.77 1300.86 870.73 1300.86"/><polygon class="cls-54" points="871.56 1300.86 871.56 1076.38 162.47 599.63 162.47 514.14 162.52 514.14 162.52 599.63 871.61 1076.38 871.61 1300.86 871.56 1300.86"/><polygon class="cls-54" points="872.62 1300.86 872.62 1076.38 272.62 599.63 272.62 514.14 272.71 514.14 272.71 599.63 872.71 1076.38 872.71 1300.86 872.62 1300.86"/><rect class="cls-54" x="867.23" y="1296.17" width="8.6" height="8.6" rx="4.3" ry="4.3"/><polygon class="cls-54" points="871.97 1304.53 872.23 1304.53 841 1490.72 752.88 1498.58 752.65 1686.69 752.39 1686.69 752.39 1498.06 840.47 1490.19 871.97 1304.53"/></g><text class="cls-55" transform="translate(919.6 1314.56)">4<tspan class="cls-34"><tspan class="cls-21" x="-12.96" y="12">O</tspan><tspan x="-5.47" y="12">T</tspan><tspan class="cls-56" x="0.43" y="12">R</tspan><tspan x="6.64" y="12">OS</tspan><tspan class="cls-20" x="-14" y="24">D</tspan><tspan x="-6.68" y="24">AÑOS</tspan></tspan></text><line class="cls-57" x1="904.2" y1="1324.72" x2="872.97" y2="1324.72"/><polygon class="cls-54" points="869.06 1322.12 873.45 1324.73 868.27 1327.6 869.06 1322.12"/></g><g id="Daños_totales" data-name="Daños totales"><rect class="cls-58" x="426.44" y="1573.96" width="367.13" height="185.81" rx="5.24" ry="5.24"/><text class="cls-59" transform="translate(556.95 1641.72)">4488<tspan class="cls-60"><tspan class="cls-61" x="2.2" y="41.96">D</tspan><tspan x="23.7" y="41.96">AÑOS</tspan><tspan class="cls-62" x="-6.95" y="77.2">TO</tspan><tspan class="cls-63" x="30.94" y="77.2">T</tspan><tspan x="46.33" y="77.2">ALES</tspan></tspan></text></g><g id="Estructuras"><g id="Estructuras-2" data-name="Estructuras"><text class="cls-64" transform="translate(71.35 381.8)">537<tspan class="cls-65"><tspan x="10.05" y="18.88">CASAS</tspan></tspan></text><text class="cls-64" transform="translate(180.87 295.4)">873<tspan class="cls-65"><tspan x="21.16" y="18.88">SIN</tspan><tspan x="-19.98" y="37.76">INFORM</tspan><tspan class="cls-66" x="38.62" y="37.76">A</tspan><tspan x="48.3" y="37.76">CIÓN</tspan></tspan></text><text class="cls-64" transform="translate(280.49 32.64)">2300<tspan class="cls-65"><tspan x="-18.64" y="18.88">DE</tspan><tspan class="cls-67" x="0.95" y="18.88">P</tspan><tspan x="8.91" y="18.88">A</tspan><tspan class="cls-68" x="18.9" y="18.88">R</tspan><tspan class="cls-69" x="27.97" y="18.88">T</tspan><tspan x="35.67" y="18.88">AMEN</tspan><tspan class="cls-70" x="78.8" y="18.88">T</tspan><tspan x="86.74" y="18.88">OS</tspan></tspan></text><text class="cls-64" transform="translate(401.68 411.31)">196<tspan class="cls-65"><tspan x="8.81" y="18.88">INFR</tspan><tspan class="cls-68" x="42.19" y="18.88">A</tspan><tspan x="51.79" y="18.88">-</tspan><tspan x="-14.02" y="37.76">EST</tspan><tspan class="cls-66" x="10.96" y="37.76">R</tspan><tspan x="20.11" y="37.76">UCTURA </tspan><tspan x="2.48" y="56.64">URBANA</tspan></tspan></text><text class="cls-64" transform="translate(523.29 475.82)">59<tspan class="cls-65"><tspan x="-13.57" y="18.88">ESCUELAS</tspan></tspan></text><text class="cls-64" transform="translate(621.96 430.71)">286<tspan class="cls-65"><tspan x="-2.64" y="18.88">EDIFICIOS</tspan></tspan></text><text class="cls-64" transform="translate(732.1 460.08)">138<tspan class="cls-65"><tspan x="-1.14" y="18.88">OFICINAS</tspan></tspan></text><text class="cls-64" transform="translate(853.19 477.92)">53<tspan class="cls-65"><tspan x="-21.6" y="18.88">COME</tspan><tspan class="cls-71" x="22.22" y="18.88">R</tspan><tspan x="31.34" y="18.88">CIOS</tspan></tspan></text><text class="cls-64" transform="translate(963.33 483.68)">20<tspan class="cls-65"><tspan class="cls-72" x="-2.24" y="18.88">O</tspan><tspan x="8.76" y="18.88">T</tspan><tspan class="cls-71" x="17.42" y="18.88">R</tspan><tspan x="26.54" y="18.88">OS</tspan></tspan></text><text class="cls-64" transform="translate(1073.99 484.73)">16<tspan class="cls-65"><tspan x="-20.91" y="18.88">HOSPI</tspan><tspan class="cls-73" x="23.17" y="18.88">T</tspan><tspan x="30.87" y="18.88">ALES</tspan></tspan></text><rect class="cls-58" x="1043.74" y="511.38" width="103.85" height="3.16"/><rect class="cls-58" x="933.28" y="510.59" width="104.9" height="3.95"/><rect class="cls-58" x="822.83" y="504.06" width="104.9" height="10.48"/><rect class="cls-58" x="712.9" y="487.06" width="104.9" height="27.48"/><rect class="cls-58" x="602.45" y="458" width="104.9" height="56.54"/><rect class="cls-58" x="492.52" y="502.68" width="104.9" height="11.86"/><rect class="cls-58" x="382.07" y="475.79" width="104.9" height="38.75"/><rect class="cls-58" x="272.66" y="58.88" width="104.9" height="455.66"/><rect class="cls-58" x="162.21" y="341.37" width="104.9" height="173.17"/><rect class="cls-58" x="51.76" y="408.38" width="104.9" height="106.16"/></g><line class="cls-2" y1="514.41" x2="1200" y2="514.41"/></g><line class="cls-74" x1="1044.46" y1="514.14" x2="1044.46" y2="514.14"/></g></g></g></svg>