<svg xmlns="http://www.w3.org/2000/svg" viewBox="0 0 526 279"><defs><style>.cls-1{isolation:isolate;}.cls-2{fill:#4b4343;}.cls-3{fill:#390b19;}.cls-4{fill:#6d0e29;}.cls-5{fill:#910000;}.cls-5,.cls-6{mix-blend-mode:darken;}.cls-6{fill:#e06e8e;}.cls-7{fill:#9d766a;}.cls-8{fill:#b04226;}.cls-9{fill:#c30100;}.cls-10{fill:#db3664;}.cls-11{fill:#b69b9b;}</style></defs><title>nomenclatura grietascontornos</title><g class="cls-1"><g id="Layer_1" data-name="Layer 1"><path class="cls-2" d="M216.76,216.88h1.52a.61.61,0,0,1,.4.11.7.7,0,0,1,.23.31l2.38,6.18c.08.2.16.42.23.66s.14.49.21.76a7.79,7.79,0,0,1,.4-1.42l2.37-6.18a.75.75,0,0,1,.22-.29.6.6,0,0,1,.4-.13h1.52L222.55,227h-1.7Z"/><path class="cls-2" d="M229.7,217.72a1,1,0,0,1-.09.42,1,1,0,0,1-.24.34,1.13,1.13,0,0,1-.36.24,1,1,0,0,1-.43.09,1,1,0,0,1-.42-.09,1.09,1.09,0,0,1-.35-.24.89.89,0,0,1-.23-.34,1,1,0,0,1-.09-.42,1,1,0,0,1,.09-.43.93.93,0,0,1,.23-.35,1.09,1.09,0,0,1,.35-.24,1,1,0,0,1,.42-.08,1,1,0,0,1,.43.08,1.13,1.13,0,0,1,.36.24,1.09,1.09,0,0,1,.24.35A1,1,0,0,1,229.7,217.72Zm-.26,2.09V227h-1.73v-7.19Z"/><path class="cls-2" d="M235.66,221.21a.47.47,0,0,1-.15.16.39.39,0,0,1-.2,0,.77.77,0,0,1-.27-.07l-.33-.16a3,3,0,0,0-.43-.16,2.34,2.34,0,0,0-.57-.07,1.33,1.33,0,0,0-.8.22.66.66,0,0,0-.3.57.52.52,0,0,0,.15.38,1.36,1.36,0,0,0,.4.28,3.64,3.64,0,0,0,.56.21l.65.21c.22.08.43.16.64.26a2.12,2.12,0,0,1,.57.36,1.76,1.76,0,0,1,.4.53,1.68,1.68,0,0,1,.15.74,2.53,2.53,0,0,1-.19,1,2.05,2.05,0,0,1-.56.75,2.45,2.45,0,0,1-.9.5,3.78,3.78,0,0,1-1.22.18,3.54,3.54,0,0,1-.73-.07,4,4,0,0,1-.68-.18,4.17,4.17,0,0,1-.6-.28,3.85,3.85,0,0,1-.49-.35l.4-.66a.52.52,0,0,1,.18-.18.47.47,0,0,1,.27-.07.59.59,0,0,1,.31.09l.33.2a2.61,2.61,0,0,0,.44.2,2,2,0,0,0,.65.09,1.69,1.69,0,0,0,.53-.08.88.88,0,0,0,.36-.19.66.66,0,0,0,.21-.27.78.78,0,0,0,.07-.33.56.56,0,0,0-.15-.41,1.36,1.36,0,0,0-.4-.28,5.24,5.24,0,0,0-.57-.22l-.65-.2c-.22-.08-.44-.17-.65-.27a2.18,2.18,0,0,1-.57-.38,1.78,1.78,0,0,1-.4-.56,2.17,2.17,0,0,1,0-1.66,2.14,2.14,0,0,1,.51-.69,2.59,2.59,0,0,1,.85-.48,3.51,3.51,0,0,1,1.17-.18A3.42,3.42,0,0,1,235,220a3.06,3.06,0,0,1,1,.64Z"/><path class="cls-2" d="M239.09,219.81v4.57a1.55,1.55,0,0,0,.31,1,1.13,1.13,0,0,0,.91.36,1.86,1.86,0,0,0,.84-.2,2.9,2.9,0,0,0,.74-.55v-5.2h1.73V227h-1.05a.44.44,0,0,1-.45-.32l-.11-.57a6,6,0,0,1-.47.41,2.6,2.6,0,0,1-.5.31,2.86,2.86,0,0,1-.58.21,3.62,3.62,0,0,1-.67.07,2.57,2.57,0,0,1-1-.2,2,2,0,0,1-.76-.56,2.61,2.61,0,0,1-.47-.87,3.8,3.8,0,0,1-.15-1.1v-4.57Z"/><path class="cls-2" d="M251.1,227h-.78a.8.8,0,0,1-.38-.08.41.41,0,0,1-.21-.3l-.16-.5a6.06,6.06,0,0,1-.53.42,3.82,3.82,0,0,1-.54.32,3,3,0,0,1-.6.18,3,3,0,0,1-.7.07,2.84,2.84,0,0,1-.84-.12,1.92,1.92,0,0,1-.66-.37,1.65,1.65,0,0,1-.43-.61,2.26,2.26,0,0,1-.16-.85,1.62,1.62,0,0,1,.22-.81,2,2,0,0,1,.71-.71,4.31,4.31,0,0,1,1.32-.53,7.93,7.93,0,0,1,2-.22v-.42a1.61,1.61,0,0,0-.3-1.07,1.1,1.1,0,0,0-.89-.35,2.33,2.33,0,0,0-.7.09,2.15,2.15,0,0,0-.48.23l-.39.22a.79.79,0,0,1-.38.09.49.49,0,0,1-.3-.09.73.73,0,0,1-.21-.22l-.31-.55a4.26,4.26,0,0,1,3-1.14,2.83,2.83,0,0,1,1.12.21,2.33,2.33,0,0,1,1.36,1.45,3.33,3.33,0,0,1,.18,1.12Zm-3.36-1.08a2.46,2.46,0,0,0,.49,0,1.88,1.88,0,0,0,.42-.14,3.14,3.14,0,0,0,.39-.24,3.81,3.81,0,0,0,.37-.34V224a6.42,6.42,0,0,0-1.26.1,3.23,3.23,0,0,0-.82.24,1,1,0,0,0-.43.35.73.73,0,0,0-.13.43.75.75,0,0,0,.27.65A1.14,1.14,0,0,0,247.74,225.92Z"/><path class="cls-2" d="M254.64,216.59V227h-1.73V216.59Z"/><path class="cls-2" d="M258.69,217.72a1,1,0,0,1-.09.42,1,1,0,0,1-.24.34,1.21,1.21,0,0,1-.35.24,1.08,1.08,0,0,1-.44.09,1,1,0,0,1-.42-.09,1.21,1.21,0,0,1-.35-.24,1.2,1.2,0,0,1-.23-.34,1,1,0,0,1-.09-.42,1,1,0,0,1,.09-.43,1.25,1.25,0,0,1,.23-.35,1.21,1.21,0,0,1,.35-.24,1,1,0,0,1,.42-.08,1.08,1.08,0,0,1,.44.08,1.21,1.21,0,0,1,.35.24,1.09,1.09,0,0,1,.24.35A1,1,0,0,1,258.69,217.72Zm-.26,2.09V227h-1.72v-7.19Z"/><path class="cls-2" d="M265.58,220.53a1,1,0,0,1-.06.35,1.3,1.3,0,0,1-.16.29l-3.42,4.5h3.54V227h-5.55v-.72A.88.88,0,0,1,260,226a1.05,1.05,0,0,1,.17-.31l3.45-4.54h-3.47v-1.33h5.44Z"/><path class="cls-2" d="M272.59,227h-.78a.8.8,0,0,1-.38-.08.41.41,0,0,1-.21-.3l-.16-.5a6.06,6.06,0,0,1-.53.42,3.82,3.82,0,0,1-.54.32,3,3,0,0,1-.6.18,3,3,0,0,1-.7.07,2.84,2.84,0,0,1-.84-.12,1.92,1.92,0,0,1-.66-.37,1.65,1.65,0,0,1-.43-.61,2.26,2.26,0,0,1-.16-.85,1.62,1.62,0,0,1,.22-.81,2,2,0,0,1,.71-.71,4.31,4.31,0,0,1,1.32-.53,7.93,7.93,0,0,1,2-.22v-.42a1.61,1.61,0,0,0-.3-1.07,1.1,1.1,0,0,0-.89-.35,2.33,2.33,0,0,0-.7.09,2.38,2.38,0,0,0-.48.23l-.39.22a.79.79,0,0,1-.38.09.49.49,0,0,1-.3-.09.73.73,0,0,1-.21-.22l-.31-.55a4.26,4.26,0,0,1,3-1.14,2.83,2.83,0,0,1,1.12.21,2.33,2.33,0,0,1,1.36,1.45,3.33,3.33,0,0,1,.18,1.12Zm-3.36-1.08a2.46,2.46,0,0,0,.49,0,1.88,1.88,0,0,0,.42-.14,3.14,3.14,0,0,0,.39-.24,3.81,3.81,0,0,0,.37-.34V224a6.42,6.42,0,0,0-1.26.1,3.23,3.23,0,0,0-.82.24,1,1,0,0,0-.43.35.73.73,0,0,0-.13.43.75.75,0,0,0,.27.65A1.16,1.16,0,0,0,269.23,225.92Z"/><path class="cls-2" d="M274.29,227v-7.19h1a.58.58,0,0,1,.37.1.63.63,0,0,1,.14.34l.1.87a3.37,3.37,0,0,1,.9-1.05,1.92,1.92,0,0,1,1.17-.39,1.47,1.47,0,0,1,.88.25l-.23,1.29a.22.22,0,0,1-.09.18.27.27,0,0,1-.19,0,.87.87,0,0,1-.28,0,2.11,2.11,0,0,0-.49-.05,1.45,1.45,0,0,0-.92.3,2.31,2.31,0,0,0-.65.87V227Z"/><path class="cls-2" d="M282.71,229.34v-9.53h1.06a.49.49,0,0,1,.28.08.35.35,0,0,1,.16.24l.14.66a3.67,3.67,0,0,1,1-.8,2.63,2.63,0,0,1,1.32-.31,2.25,2.25,0,0,1,1.07.25,2.46,2.46,0,0,1,.84.71,3.33,3.33,0,0,1,.55,1.15,6.06,6.06,0,0,1,.19,1.56,4.75,4.75,0,0,1-.22,1.49,3.45,3.45,0,0,1-.62,1.19,2.76,2.76,0,0,1-2.25,1.07,2.32,2.32,0,0,1-1.79-.7v2.94Zm3.36-8.29a1.79,1.79,0,0,0-.92.22,3,3,0,0,0-.71.64v3.22a1.57,1.57,0,0,0,.64.51,1.86,1.86,0,0,0,.75.15,1.67,1.67,0,0,0,.71-.15,1.45,1.45,0,0,0,.54-.45,2.33,2.33,0,0,0,.34-.76,4.85,4.85,0,0,0,.11-1.08,4.69,4.69,0,0,0-.1-1.07,1.85,1.85,0,0,0-.29-.71,1.17,1.17,0,0,0-.46-.4A1.48,1.48,0,0,0,286.07,221.05Z"/><path class="cls-2" d="M293.69,219.7a4,4,0,0,1,1.46.26,3.09,3.09,0,0,1,1.12.74,3,3,0,0,1,.71,1.16,4.66,4.66,0,0,1,0,3.07,3.14,3.14,0,0,1-.71,1.17,3.09,3.09,0,0,1-1.12.74,3.76,3.76,0,0,1-1.46.26,3.83,3.83,0,0,1-1.46-.26,3.09,3.09,0,0,1-1.12-.74,3.3,3.3,0,0,1-.72-1.17,4.66,4.66,0,0,1,0-3.07,3.17,3.17,0,0,1,.72-1.16,3.09,3.09,0,0,1,1.12-.74A4,4,0,0,1,293.69,219.7Zm0,6.07a1.53,1.53,0,0,0,1.33-.6,3,3,0,0,0,.43-1.76,3.06,3.06,0,0,0-.43-1.78,1.78,1.78,0,0,0-2.67,0,3,3,0,0,0-.43,1.77,3,3,0,0,0,.43,1.76A1.55,1.55,0,0,0,293.69,225.77Z"/><path class="cls-2" d="M298.59,227v-7.19h1a.42.42,0,0,1,.51.44l.11.87a3.24,3.24,0,0,1,.9-1.05,1.89,1.89,0,0,1,1.16-.39,1.48,1.48,0,0,1,.89.25l-.23,1.29a.22.22,0,0,1-.09.18.29.29,0,0,1-.19,0,1,1,0,0,1-.29,0,2,2,0,0,0-.48-.05,1.43,1.43,0,0,0-.92.3,2.21,2.21,0,0,0-.65.87V227Z"/><path class="cls-2" d="M309.37,227.11a1.92,1.92,0,0,1-1.44-.53,2.05,2.05,0,0,1-.5-1.46v-4h-.73a.36.36,0,0,1-.24-.09.33.33,0,0,1-.1-.27v-.69l1.15-.19.37-2a.34.34,0,0,1,.13-.22.39.39,0,0,1,.25-.07h.9v2.26h1.89v1.23h-1.89V225a.74.74,0,0,0,.17.53.58.58,0,0,0,.44.19,1,1,0,0,0,.27,0l.19-.08.15-.08a.19.19,0,0,1,.12,0,.2.2,0,0,1,.13,0,.57.57,0,0,1,.1.11l.52.84a2.63,2.63,0,0,1-.87.48A3.39,3.39,0,0,1,309.37,227.11Z"/><path class="cls-2" d="M314.53,217.72a.87.87,0,0,1-.1.42,1,1,0,0,1-.24.34,1.09,1.09,0,0,1-.35.24,1.07,1.07,0,0,1-.86,0,1.22,1.22,0,0,1-.58-.58,1,1,0,0,1-.09-.42,1,1,0,0,1,.09-.43,1.09,1.09,0,0,1,.24-.35,1,1,0,0,1,.34-.24,1.2,1.2,0,0,1,.86,0,1.16,1.16,0,0,1,.59.59A.91.91,0,0,1,314.53,217.72Zm-.26,2.09V227h-1.73v-7.19Z"/><path class="cls-2" d="M316.22,229.34v-9.53h1.06a.51.51,0,0,1,.28.08.38.38,0,0,1,.16.24l.14.66a3.67,3.67,0,0,1,1-.8,2.62,2.62,0,0,1,1.31-.31,2.29,2.29,0,0,1,1.08.25,2.46,2.46,0,0,1,.84.71,3.33,3.33,0,0,1,.55,1.15,6.06,6.06,0,0,1,.19,1.56,4.75,4.75,0,0,1-.22,1.49A3.45,3.45,0,0,1,322,226a2.76,2.76,0,0,1-2.25,1.07,2.6,2.6,0,0,1-1-.18,2.63,2.63,0,0,1-.76-.52v2.94Zm3.36-8.29a1.77,1.77,0,0,0-.92.22,3,3,0,0,0-.71.64v3.22a1.51,1.51,0,0,0,.64.51,1.85,1.85,0,0,0,.74.15,1.61,1.61,0,0,0,.71-.15,1.31,1.31,0,0,0,.54-.45,2.14,2.14,0,0,0,.34-.76,4.29,4.29,0,0,0,.12-1.08,4.69,4.69,0,0,0-.1-1.07,2,2,0,0,0-.29-.71,1.25,1.25,0,0,0-.46-.4A1.48,1.48,0,0,0,319.58,221.05Z"/><path class="cls-2" d="M327.2,219.7a4,4,0,0,1,1.46.26,3.09,3.09,0,0,1,1.12.74,3,3,0,0,1,.71,1.16,4.66,4.66,0,0,1,0,3.07,3.14,3.14,0,0,1-.71,1.17,3.09,3.09,0,0,1-1.12.74,3.76,3.76,0,0,1-1.46.26,3.83,3.83,0,0,1-1.46-.26,3.09,3.09,0,0,1-1.12-.74,3.3,3.3,0,0,1-.72-1.17,4.66,4.66,0,0,1,0-3.07,3.17,3.17,0,0,1,.72-1.16,3.09,3.09,0,0,1,1.12-.74A4,4,0,0,1,327.2,219.7Zm0,6.07a1.53,1.53,0,0,0,1.33-.6,3,3,0,0,0,.43-1.76,3.06,3.06,0,0,0-.43-1.78,1.78,1.78,0,0,0-2.67,0,3,3,0,0,0-.44,1.77,3,3,0,0,0,.44,1.76A1.55,1.55,0,0,0,327.2,225.77Z"/><path class="cls-2" d="M339.85,227a.43.43,0,0,1-.44-.32l-.14-.69a4,4,0,0,1-.47.45,2.32,2.32,0,0,1-.53.35,2.48,2.48,0,0,1-.61.23,3.06,3.06,0,0,1-.7.08,2.44,2.44,0,0,1-1.08-.24,2.57,2.57,0,0,1-.84-.71,3.38,3.38,0,0,1-.55-1.16,6.11,6.11,0,0,1-.19-1.56,4.75,4.75,0,0,1,.22-1.49,3.64,3.64,0,0,1,.62-1.19,3.07,3.07,0,0,1,1-.79,3,3,0,0,1,1.28-.28,2.67,2.67,0,0,1,1,.19,2.63,2.63,0,0,1,.76.52v-3.8h1.73V227Zm-2.3-1.27a1.9,1.9,0,0,0,.92-.22,2.8,2.8,0,0,0,.71-.64v-3.22a1.76,1.76,0,0,0-.64-.51,2,2,0,0,0-.75-.14,1.83,1.83,0,0,0-.71.14,1.45,1.45,0,0,0-.54.45,2.13,2.13,0,0,0-.33.76,4.24,4.24,0,0,0-.12,1.08,4.59,4.59,0,0,0,.1,1.06,1.9,1.9,0,0,0,.29.72,1.1,1.1,0,0,0,.46.4A1.51,1.51,0,0,0,337.55,225.73Z"/><path class="cls-2" d="M345.75,219.7a3.65,3.65,0,0,1,1.25.22,2.8,2.8,0,0,1,1,.63,2.9,2.9,0,0,1,.64,1,3.7,3.7,0,0,1,.23,1.38,2.92,2.92,0,0,1,0,.32.73.73,0,0,1-.07.21.23.23,0,0,1-.12.1.56.56,0,0,1-.2,0H344a2.52,2.52,0,0,0,.59,1.63,1.87,1.87,0,0,0,1.37.51,2.65,2.65,0,0,0,.73-.09,3.86,3.86,0,0,0,.53-.22l.4-.22a.7.7,0,0,1,.33-.1.35.35,0,0,1,.18.05.38.38,0,0,1,.14.11l.5.64a3.06,3.06,0,0,1-.64.56,3.69,3.69,0,0,1-.75.36,3.64,3.64,0,0,1-.79.19,5.32,5.32,0,0,1-.78.06,3.73,3.73,0,0,1-1.39-.25,3,3,0,0,1-1.12-.73,3.45,3.45,0,0,1-.75-1.21,4.65,4.65,0,0,1-.28-1.66,3.93,3.93,0,0,1,.24-1.38,3.48,3.48,0,0,1,.68-1.13,3.28,3.28,0,0,1,1.09-.76A3.71,3.71,0,0,1,345.75,219.7Zm0,1.24a1.57,1.57,0,0,0-1.18.43,2.07,2.07,0,0,0-.55,1.21h3.25a2.13,2.13,0,0,0-.09-.63,1.32,1.32,0,0,0-.76-.88A1.54,1.54,0,0,0,345.78,220.94Z"/><path class="cls-2" d="M358,227a.42.42,0,0,1-.44-.32l-.14-.69a4,4,0,0,1-.47.45,2.56,2.56,0,0,1-.53.35,2.48,2.48,0,0,1-.61.23,3.15,3.15,0,0,1-.71.08,2.37,2.37,0,0,1-1.07-.24,2.51,2.51,0,0,1-.85-.71,3.56,3.56,0,0,1-.54-1.16,5.68,5.68,0,0,1-.2-1.56,5.06,5.06,0,0,1,.22-1.49,3.84,3.84,0,0,1,.62-1.19,3.11,3.11,0,0,1,1-.79,2.92,2.92,0,0,1,1.27-.28,2.63,2.63,0,0,1,1,.19,2.51,2.51,0,0,1,.76.52v-3.8h1.73V227Zm-2.31-1.27a1.87,1.87,0,0,0,.92-.22,2.8,2.8,0,0,0,.71-.64v-3.22a1.68,1.68,0,0,0-.64-.51A2,2,0,0,0,356,221a1.8,1.8,0,0,0-.71.14,1.45,1.45,0,0,0-.54.45,2.14,2.14,0,0,0-.34.76,4.24,4.24,0,0,0-.12,1.08,4.59,4.59,0,0,0,.1,1.06,2.3,2.3,0,0,0,.29.72,1.16,1.16,0,0,0,.46.4A1.54,1.54,0,0,0,355.71,225.73Z"/><path class="cls-2" d="M366.57,227h-.78a.8.8,0,0,1-.38-.08.41.41,0,0,1-.21-.3l-.16-.5a6.06,6.06,0,0,1-.53.42,3.82,3.82,0,0,1-.54.32,3,3,0,0,1-.6.18,3,3,0,0,1-.7.07,2.84,2.84,0,0,1-.84-.12,1.92,1.92,0,0,1-.66-.37,1.65,1.65,0,0,1-.43-.61,2.26,2.26,0,0,1-.16-.85,1.73,1.73,0,0,1,.22-.81,2,2,0,0,1,.71-.71,4.31,4.31,0,0,1,1.32-.53,8,8,0,0,1,2.05-.22v-.42a1.61,1.61,0,0,0-.3-1.07,1.09,1.09,0,0,0-.89-.35,2.33,2.33,0,0,0-.7.09,2.38,2.38,0,0,0-.48.23l-.39.22a.79.79,0,0,1-.38.09.49.49,0,0,1-.3-.09.6.6,0,0,1-.2-.22l-.32-.55a4.26,4.26,0,0,1,3-1.14,2.83,2.83,0,0,1,1.12.21,2.33,2.33,0,0,1,1.36,1.45,3.33,3.33,0,0,1,.18,1.12Zm-3.36-1.08a2.46,2.46,0,0,0,.49,0,1.88,1.88,0,0,0,.42-.14,3.14,3.14,0,0,0,.39-.24,3.81,3.81,0,0,0,.37-.34V224a6.42,6.42,0,0,0-1.26.1,3.23,3.23,0,0,0-.82.24,1,1,0,0,0-.43.35.73.73,0,0,0-.13.43.75.75,0,0,0,.27.65A1.16,1.16,0,0,0,363.21,225.92Z"/><path class="cls-2" d="M368.27,227v-7.19h1.06a.43.43,0,0,1,.44.32l.12.57a3.55,3.55,0,0,1,.46-.41,2.67,2.67,0,0,1,.51-.31,2.78,2.78,0,0,1,.57-.21,3.55,3.55,0,0,1,.68-.07,2.61,2.61,0,0,1,1,.2,2.15,2.15,0,0,1,.76.56,2.45,2.45,0,0,1,.46.86,3.54,3.54,0,0,1,.16,1.11V227H372.8v-4.57a1.55,1.55,0,0,0-.3-1,1.15,1.15,0,0,0-.92-.36,1.74,1.74,0,0,0-.84.2,2.9,2.9,0,0,0-.74.55V227Zm3.87-9.52a.44.44,0,0,0,.33-.11.59.59,0,0,0,.12-.42h1.05a2.25,2.25,0,0,1-.11.71,1.53,1.53,0,0,1-.3.55,1.19,1.19,0,0,1-.45.35,1.32,1.32,0,0,1-.57.12,1.19,1.19,0,0,1-.47-.09,3.91,3.91,0,0,1-.41-.2l-.35-.19a.67.67,0,0,0-.31-.09.44.44,0,0,0-.32.12.64.64,0,0,0-.11.42h-1.07a2,2,0,0,1,.11-.71,1.53,1.53,0,0,1,.3-.55A1.31,1.31,0,0,1,370,217a1.2,1.2,0,0,1,.57-.13,1.23,1.23,0,0,1,.47.09,3.91,3.91,0,0,1,.41.2l.35.19A.64.64,0,0,0,372.14,217.48Z"/><path class="cls-2" d="M379.3,219.7a3.94,3.94,0,0,1,1.45.26,3.09,3.09,0,0,1,1.12.74,3.17,3.17,0,0,1,.72,1.16,4.84,4.84,0,0,1,0,3.07,3.3,3.3,0,0,1-.72,1.17,3.09,3.09,0,0,1-1.12.74,3.75,3.75,0,0,1-1.45.26,3.85,3.85,0,0,1-1.47-.26,3.09,3.09,0,0,1-1.12-.74,3.3,3.3,0,0,1-.72-1.17,4.66,4.66,0,0,1,0-3.07,3.17,3.17,0,0,1,.72-1.16,3.09,3.09,0,0,1,1.12-.74A4,4,0,0,1,379.3,219.7Zm0,6.07a1.52,1.52,0,0,0,1.32-.6,3,3,0,0,0,.43-1.76,3.06,3.06,0,0,0-.43-1.78,1.78,1.78,0,0,0-2.67,0,3,3,0,0,0-.43,1.77,3,3,0,0,0,.43,1.76A1.56,1.56,0,0,0,379.3,225.77Z"/><rect class="cls-3" x="198.63" y="191.09" width="20" height="20" rx="5" ry="5"/><rect class="cls-4" x="221.63" y="191.09" width="20" height="20" rx="5" ry="5"/><rect class="cls-5" x="244.63" y="191.09" width="20" height="20" rx="5" ry="5"/><rect class="cls-6" x="336.63" y="191.09" width="20" height="20" rx="5" ry="5"/><rect class="cls-7" x="359.63" y="191.09" width="20" height="20" rx="5" ry="5"/><rect class="cls-8" x="382.63" y="191.09" width="20" height="20" rx="5" ry="5"/><rect class="cls-9" x="267.63" y="191.09" width="20" height="20" rx="5" ry="5"/><rect class="cls-10" x="290.63" y="191.09" width="20" height="20" rx="5" ry="5"/><rect class="cls-11" x="313.63" y="191.09" width="20" height="20" rx="5" ry="5"/><path class="cls-2" d="M391,182.45a3,3,0,0,1,.82-.93,2.47,2.47,0,0,1,1.05-.46,3,3,0,0,1,1.22,0,5.06,5.06,0,0,1,2.43,1.41,3.11,3.11,0,0,1,.63,1,2.59,2.59,0,0,1,.12,1.14,3,3,0,0,1-.4,1.18,3.14,3.14,0,0,1-.82.94,2.6,2.6,0,0,1-1.05.46,3,3,0,0,1-1.22,0,4.74,4.74,0,0,1-2.42-1.4,2.89,2.89,0,0,1-.63-1,2.56,2.56,0,0,1-.13-1.14A3.06,3.06,0,0,1,391,182.45Zm5.08,2.94a1.53,1.53,0,0,0,.12-1.51,3.9,3.9,0,0,0-3.16-1.82,1.52,1.52,0,0,0-1.25.85,1.89,1.89,0,0,0-.26.78,1.54,1.54,0,0,0,.14.73,2.28,2.28,0,0,0,.51.69,4.15,4.15,0,0,0,.85.62,4.39,4.39,0,0,0,1,.43,2.1,2.1,0,0,0,.84.09,1.59,1.59,0,0,0,.71-.25A1.8,1.8,0,0,0,396.1,185.39Z"/><path class="cls-2" d="M400,180.53a1.45,1.45,0,0,1-.94.75,1.82,1.82,0,0,1-1.28-.28l-3.49-2-.37.65a.28.28,0,0,1-.13.11.25.25,0,0,1-.2,0l-.4-.23.38-.94-1.63-1.24a.24.24,0,0,1-.1-.14.29.29,0,0,1,0-.18l.28-.48,2,1.14.88-1.53.73.42-.89,1.53,3.42,2a.83.83,0,0,0,.63.14.64.64,0,0,0,.42-.32.68.68,0,0,0,.1-.28,1.06,1.06,0,0,0,0-.24,1.11,1.11,0,0,0,0-.19.22.22,0,0,1,0-.12s.08-.07.17-.07h.64a2.13,2.13,0,0,1,0,.8A2.25,2.25,0,0,1,400,180.53Z"/><path class="cls-2" d="M401.21,178.16l-5.69-3.29.31-.53a.38.38,0,0,1,.18-.18.46.46,0,0,1,.26.05l.93.45a2.84,2.84,0,0,1-.54-1.22,1.64,1.64,0,0,1,.21-1.14,1.56,1.56,0,0,1,.28-.37,1.51,1.51,0,0,1,.34-.24l.68.55a.18.18,0,0,1,.05.24.82.82,0,0,1-.19.2,1.64,1.64,0,0,0-.3.4,1.39,1.39,0,0,0-.17,1,2.71,2.71,0,0,0,.57,1.06l3.62,2.09Z"/><path class="cls-2" d="M399.13,168.41a2.86,2.86,0,0,1,.82-.93A2.47,2.47,0,0,1,401,167a2.81,2.81,0,0,1,1.22,0,4.42,4.42,0,0,1,1.31.52,4.36,4.36,0,0,1,1.11.88,3.11,3.11,0,0,1,.63,1,2.6,2.6,0,0,1,.13,1.14,3,3,0,0,1-.41,1.18,3.12,3.12,0,0,1-.81.94,2.6,2.6,0,0,1-1.05.46,3,3,0,0,1-1.22,0,4.47,4.47,0,0,1-1.32-.52,4.54,4.54,0,0,1-1.11-.88,3.26,3.26,0,0,1-.63-1,2.62,2.62,0,0,1-.12-1.15A2.91,2.91,0,0,1,399.13,168.41Zm5.08,2.94a1.58,1.58,0,0,0,.12-1.51,3.2,3.2,0,0,0-1.35-1.3,3.17,3.17,0,0,0-1.82-.52,1.52,1.52,0,0,0-1.24.85,1.8,1.8,0,0,0-.26.78,1.43,1.43,0,0,0,.14.73,2.08,2.08,0,0,0,.5.69,4.23,4.23,0,0,0,.86.62,4,4,0,0,0,1,.43,2.08,2.08,0,0,0,.84.09,1.55,1.55,0,0,0,.7-.25A1.73,1.73,0,0,0,404.21,171.35Z"/><path class="cls-2" d="M404.06,162.25a.24.24,0,0,1,0,.27.41.41,0,0,1-.17.14l-.28.17a2.82,2.82,0,0,0-.34.26,1.8,1.8,0,0,0-.33.44,1.6,1.6,0,0,0-.19.46,1.25,1.25,0,0,0,0,.43,1.14,1.14,0,0,0,.15.36.76.76,0,0,0,.28.25.58.58,0,0,0,.43.09,1.12,1.12,0,0,0,.44-.16,3.08,3.08,0,0,0,.44-.34l.47-.4a6.12,6.12,0,0,1,.5-.39,2.13,2.13,0,0,1,.53-.29,1.5,1.5,0,0,1,.6-.07,1.66,1.66,0,0,1,.66.22,2.5,2.5,0,0,1,.65.55,1.83,1.83,0,0,1,.35.73,2.19,2.19,0,0,1,0,.85,2.79,2.79,0,0,1-.36,1,2.86,2.86,0,0,1-.78.9,2.89,2.89,0,0,1-.94.48l-.25-.44a.58.58,0,0,1-.06-.17.41.41,0,0,1,.05-.17.37.37,0,0,1,.2-.16l.32-.15a2.07,2.07,0,0,0,.38-.27,1.56,1.56,0,0,0,.39-.49,1.47,1.47,0,0,0,.2-.52,1,1,0,0,0,0-.46.89.89,0,0,0-.18-.38,1.24,1.24,0,0,0-.32-.27.73.73,0,0,0-.46-.11,1.09,1.09,0,0,0-.44.17,2.15,2.15,0,0,0-.45.33l-.47.41c-.16.14-.33.27-.5.4a1.88,1.88,0,0,1-.55.27,1.37,1.37,0,0,1-.61.07,1.78,1.78,0,0,1-.69-.24,2,2,0,0,1-.55-.49,1.81,1.81,0,0,1-.32-.67,2.19,2.19,0,0,1,0-.81,2.33,2.33,0,0,1,.33-.88,2.75,2.75,0,0,1,.72-.85,2.51,2.51,0,0,1,.9-.44Z"/><path class="cls-2" d="M413,157.69a.28.28,0,0,1-.35.13l-.74-.32a3.45,3.45,0,0,1,.26,1.2,2.19,2.19,0,0,1-.32,1.16,2.12,2.12,0,0,1-.66.73,2.05,2.05,0,0,1-.93.31,2.92,2.92,0,0,1-1.14-.12,5.6,5.6,0,0,1-1.34-.58,4.83,4.83,0,0,1-1.08-.83,3.48,3.48,0,0,1-.68-1,2.58,2.58,0,0,1-.21-1.09,2.43,2.43,0,0,1,.34-1.1,2.19,2.19,0,0,1,.66-.74,2.43,2.43,0,0,1,.85-.33l-3.15-1.82.54-.94,8.28,4.78Zm-1.78,1.39a1.58,1.58,0,0,0,.24-.93,2.46,2.46,0,0,0-.27-1l-2.75-1.59a1.59,1.59,0,0,0-1.39.86,1.54,1.54,0,0,0-.1,1.48,3.26,3.26,0,0,0,1.39,1.33,4.59,4.59,0,0,0,1,.46,2.19,2.19,0,0,0,.8.12,1.19,1.19,0,0,0,.62-.22A1.41,1.41,0,0,0,411.25,159.08Z"/><path class="cls-2" d="M416.53,151.63l-.24.42a.53.53,0,0,1-.17.19.29.29,0,0,1-.26,0l-.59-.2a5.76,5.76,0,0,1,.13.62,2.79,2.79,0,0,1-.08,1.15,3,3,0,0,1-.27.59,2.22,2.22,0,0,1-.43.53,1.66,1.66,0,0,1-.55.31,1.56,1.56,0,0,1-.65,0,1.91,1.91,0,0,1-.74-.27,1.55,1.55,0,0,1-.56-.55,1.9,1.9,0,0,1-.23-.88,4,4,0,0,1,.19-1.24,7.65,7.65,0,0,1,.73-1.63l-.45-.25a1.82,1.82,0,0,0-1.16-.32,1.07,1.07,0,0,0-.8.59,1.92,1.92,0,0,0-.24.63,2.35,2.35,0,0,0,0,.52q0,.24,0,.42a.48.48,0,0,1,0,.3.31.31,0,0,1-.15.13.48.48,0,0,1-.2,0l-.42,0a3.48,3.48,0,0,1-.13-1.34,3.2,3.2,0,0,1,.43-1.26,2.16,2.16,0,0,1,.62-.71,1.94,1.94,0,0,1,.77-.33,2.24,2.24,0,0,1,.89,0,3.6,3.6,0,0,1,.95.39Zm-2,2.08a1.67,1.67,0,0,0,.21-.48,2,2,0,0,0,.07-.48,2,2,0,0,0,0-.48,3.18,3.18,0,0,0-.13-.51l-1.17-.68a6.48,6.48,0,0,0-.55,1.15,3.52,3.52,0,0,0-.2.87,1.24,1.24,0,0,0,.1.61.85.85,0,0,0,.35.38,1.17,1.17,0,0,0,.43.15.8.8,0,0,0,.38,0,.9.9,0,0,0,.31-.18A1.34,1.34,0,0,0,414.51,153.71Z"/><path class="cls-2" d="M417.35,150.21l-5.69-3.29.32-.56a.28.28,0,0,1,.35-.13l.67.28a3.4,3.4,0,0,1-.22-1.16,2.24,2.24,0,0,1,.32-1.14,2.11,2.11,0,0,1,.6-.68,1.8,1.8,0,0,1,.76-.31,2.22,2.22,0,0,1,.88.06,3.6,3.6,0,0,1,1,.39l3.63,2.1-.54.93-3.63-2.09a1.82,1.82,0,0,0-1.16-.3,1.14,1.14,0,0,0-.85.64,1.66,1.66,0,0,0-.23.9,2.85,2.85,0,0,0,.19,1l4.19,2.42Zm-5.84-7.09a.4.4,0,0,0,.05-.36.64.64,0,0,0-.3-.32l.33-.57a1.8,1.8,0,0,1,.45.35,1.33,1.33,0,0,1,.27.41.93.93,0,0,1,.07.43,1,1,0,0,1-.13.43.81.81,0,0,1-.28.3,2.57,2.57,0,0,1-.35.2l-.34.17a.54.54,0,0,0-.22.2c-.15.25-.06.48.27.68l-.34.58a1.8,1.8,0,0,1-.45-.35,1.37,1.37,0,0,1-.27-.42,1.11,1.11,0,0,1-.08-.44,1,1,0,0,1,.14-.43.89.89,0,0,1,.28-.3l.35-.2.33-.16A.48.48,0,0,0,411.51,143.12Z"/><path class="cls-2" d="M416.2,138.85a3,3,0,0,1,.82-.94,2.6,2.6,0,0,1,1.05-.46,3.15,3.15,0,0,1,1.22,0,4.42,4.42,0,0,1,1.31.52,4.36,4.36,0,0,1,1.11.88,3.06,3.06,0,0,1,.63,1,2.56,2.56,0,0,1,.13,1.14,3,3,0,0,1-.41,1.17,2.88,2.88,0,0,1-.81.94,2.62,2.62,0,0,1-1.05.47,3.15,3.15,0,0,1-1.22,0,4.21,4.21,0,0,1-1.32-.52,4.54,4.54,0,0,1-1.11-.88,3.06,3.06,0,0,1-.63-1,2.62,2.62,0,0,1-.12-1.15A2.86,2.86,0,0,1,416.2,138.85Zm5.08,2.93a1.58,1.58,0,0,0,.12-1.51,3.9,3.9,0,0,0-3.16-1.82,1.52,1.52,0,0,0-1.25.85,1.8,1.8,0,0,0-.26.78,1.48,1.48,0,0,0,.14.74,2.2,2.2,0,0,0,.5.68,4.67,4.67,0,0,0,.86.63,4.39,4.39,0,0,0,1,.42,2.08,2.08,0,0,0,.84.09,1.44,1.44,0,0,0,.7-.25A1.73,1.73,0,0,0,421.28,141.78Z"/><path class="cls-2" d="M421.13,132.68a.24.24,0,0,1,0,.27.41.41,0,0,1-.17.14l-.28.17-.34.26a2,2,0,0,0-.33.44,1.86,1.86,0,0,0-.19.47,1.2,1.2,0,0,0,0,.42,1.14,1.14,0,0,0,.15.36.88.88,0,0,0,.28.26.69.69,0,0,0,.43.09,1.15,1.15,0,0,0,.44-.17,3.88,3.88,0,0,0,.44-.33l.47-.41a6.12,6.12,0,0,1,.5-.39,2,2,0,0,1,.54-.28,1.43,1.43,0,0,1,.59-.08,1.66,1.66,0,0,1,.66.22,2.37,2.37,0,0,1,.65.56,1.73,1.73,0,0,1,.35.72,2.2,2.2,0,0,1,0,.85,2.79,2.79,0,0,1-.36.95,2.86,2.86,0,0,1-.78.9,2.71,2.71,0,0,1-.94.48l-.25-.44A.64.64,0,0,1,423,138a.34.34,0,0,1,.25-.33l.32-.16a2,2,0,0,0,.38-.26,1.83,1.83,0,0,0,.39-.49,1.51,1.51,0,0,0,.2-.53,1,1,0,0,0,0-.46.85.85,0,0,0-.18-.37.94.94,0,0,0-.32-.27.67.67,0,0,0-.46-.11,1.07,1.07,0,0,0-.44.16,3.22,3.22,0,0,0-.45.33l-.47.42a6.12,6.12,0,0,1-.5.39,2.31,2.31,0,0,1-.54.28,1.6,1.6,0,0,1-.62.06,1.78,1.78,0,0,1-.69-.24,1.83,1.83,0,0,1-.55-.49,1.65,1.65,0,0,1-.31-.67,2,2,0,0,1,0-.81,2.39,2.39,0,0,1,.33-.88,2.71,2.71,0,0,1,.72-.84,2.67,2.67,0,0,1,.91-.45Z"/><path class="cls-2" d="M370.37,181.48a.24.24,0,0,1,0,.27.38.38,0,0,1-.16.14l-.28.16a2.5,2.5,0,0,0-.34.27,1.81,1.81,0,0,0-.34.44,1.46,1.46,0,0,0-.18.46,1.25,1.25,0,0,0,0,.43.83.83,0,0,0,.14.35.87.87,0,0,0,.28.26.59.59,0,0,0,.44.09,1.26,1.26,0,0,0,.43-.16,2.26,2.26,0,0,0,.44-.34l.47-.41.5-.39a2.31,2.31,0,0,1,.54-.28,1.45,1.45,0,0,1,.59-.07,1.52,1.52,0,0,1,.66.22,2.19,2.19,0,0,1,.65.55,1.86,1.86,0,0,1,.35.72,2.07,2.07,0,0,1,0,.86,3.07,3.07,0,0,1-.35.95,3.13,3.13,0,0,1-.78.9,3.35,3.35,0,0,1-.94.48l-.26-.44a.41.41,0,0,1-.05-.17.28.28,0,0,1,.05-.18.38.38,0,0,1,.19-.15l.32-.16a2.39,2.39,0,0,0,.39-.26,1.7,1.7,0,0,0,.38-.49,1.36,1.36,0,0,0,.2-.52,1.18,1.18,0,0,0,0-.46,1.21,1.21,0,0,0-.18-.38,1.09,1.09,0,0,0-.33-.27.7.7,0,0,0-.45-.11,1.35,1.35,0,0,0-.45.16,2.66,2.66,0,0,0-.45.34l-.46.41a6.26,6.26,0,0,1-.51.39,1.74,1.74,0,0,1-.54.28,1.55,1.55,0,0,1-.61.07,1.68,1.68,0,0,1-.69-.24,2,2,0,0,1-.56-.49,1.83,1.83,0,0,1-.31-.68,1.94,1.94,0,0,1,0-.8,2.72,2.72,0,0,1,.33-.88,2.64,2.64,0,0,1,.72-.85,2.48,2.48,0,0,1,.91-.44Z"/><path class="cls-2" d="M369.25,177.13a1,1,0,0,1,.24.22.87.87,0,0,1,.14.27.8.8,0,0,1,0,.31.75.75,0,0,1-.09.29.88.88,0,0,1-.21.22.65.65,0,0,1-.28.12,1,1,0,0,1-.3,0,.89.89,0,0,1-.31-.11.81.81,0,0,1-.24-.21.85.85,0,0,1-.15-.28.77.77,0,0,1,0-.3.52.52,0,0,1,.09-.29.7.7,0,0,1,.2-.22,1,1,0,0,1,.28-.13.86.86,0,0,1,.32,0A.87.87,0,0,1,369.25,177.13Zm1.66,1.25,5.7,3.28-.54.94-5.7-3.29Z"/><path class="cls-2" d="M377.56,180l-5.69-3.29.32-.56a.28.28,0,0,1,.35-.13l.67.28a3.4,3.4,0,0,1-.22-1.16,2.24,2.24,0,0,1,.32-1.14,2.11,2.11,0,0,1,.6-.68,1.8,1.8,0,0,1,.76-.31,2.22,2.22,0,0,1,.88.06,3.6,3.6,0,0,1,.95.39l3.63,2.1-.54.93L376,174.41a1.82,1.82,0,0,0-1.16-.3,1.16,1.16,0,0,0-.85.64,1.68,1.68,0,0,0-.23.9,2.85,2.85,0,0,0,.19,1l4.19,2.42Z"/><path class="cls-2" d="M375.36,166.54a.82.82,0,0,1,.38.49.77.77,0,0,1,0,.3.75.75,0,0,1-.09.29.74.74,0,0,1-.2.23,1.39,1.39,0,0,1-.28.12.8.8,0,0,1-.31,0,.82.82,0,0,1-.55-.32.59.59,0,0,1-.14-.27.63.63,0,0,1,0-.3.75.75,0,0,1,.09-.29.77.77,0,0,1,.21-.23.7.7,0,0,1,.28-.12,1.06,1.06,0,0,1,.31,0A.82.82,0,0,1,375.36,166.54Zm1.67,1.24,5.69,3.29-.54.94-5.69-3.29Z"/><path class="cls-2" d="M383.68,169.41l-5.7-3.28.33-.56a.27.27,0,0,1,.35-.13l.66.28a3.43,3.43,0,0,1-.21-1.16,2.15,2.15,0,0,1,.32-1.14,2.11,2.11,0,0,1,.6-.68,1.64,1.64,0,0,1,.76-.31,2.23,2.23,0,0,1,.88.06,3.41,3.41,0,0,1,.95.39l3.62,2.09-.54.94-3.62-2.09a1.93,1.93,0,0,0-1.17-.31,1.17,1.17,0,0,0-.84.64,1.79,1.79,0,0,0-.24.91,3.12,3.12,0,0,0,.2,1l4.19,2.42Z"/><path class="cls-2" d="M387.18,163.34l-4.84-2.79-.41.55a.72.72,0,0,1-.19.13.29.29,0,0,1-.22,0l-.41-.24.49-.84-.55-.32a3,3,0,0,1-.79-.63,1.94,1.94,0,0,1-.43-.74,1.8,1.8,0,0,1-.06-.8,2.37,2.37,0,0,1,.3-.84,2.25,2.25,0,0,1,.49-.6l.49.31a.15.15,0,0,1,.09.17,1.34,1.34,0,0,1-.12.25l-.09.16a1.38,1.38,0,0,0-.19.48,1.07,1.07,0,0,0,0,.47,1.23,1.23,0,0,0,.28.45,2.34,2.34,0,0,0,.57.43l.52.3.89-1.55.72.42-.87,1.52,4.86,2.8Z"/><path class="cls-2" d="M384.58,154.5a3,3,0,0,1,.81-.94,2.56,2.56,0,0,1,1.06-.45,2.91,2.91,0,0,1,1.21,0,4.51,4.51,0,0,1,1.32.53,4.56,4.56,0,0,1,1.11.87,3.15,3.15,0,0,1,.63,1,2.45,2.45,0,0,1,.12,1.14,3,3,0,0,1-.4,1.18,3.14,3.14,0,0,1-.82.94,2.49,2.49,0,0,1-1.05.46,3.09,3.09,0,0,1-1.21,0,4.47,4.47,0,0,1-1.32-.52,4.36,4.36,0,0,1-1.11-.88,3.19,3.19,0,0,1-.63-1.05,2.58,2.58,0,0,1-.13-1.14A3,3,0,0,1,384.58,154.5Zm5.08,2.94a1.55,1.55,0,0,0,.11-1.51,3.09,3.09,0,0,0-1.35-1.3,3.24,3.24,0,0,0-1.81-.53,1.57,1.57,0,0,0-1.25.86,1.7,1.7,0,0,0-.25.78,1.55,1.55,0,0,0,.13.73,2.28,2.28,0,0,0,.51.69,4.44,4.44,0,0,0,.85.62,4.39,4.39,0,0,0,1,.43,2.35,2.35,0,0,0,.85.09,1.6,1.6,0,0,0,.7-.25A1.93,1.93,0,0,0,389.66,157.44Z"/><path class="cls-2" d="M392.5,154.14l-5.7-3.29.31-.53a.32.32,0,0,1,.19-.18.43.43,0,0,1,.25.05l.93.45a3.1,3.1,0,0,1-.54-1.22,1.64,1.64,0,0,1,.21-1.14,1.59,1.59,0,0,1,.29-.37,1.16,1.16,0,0,1,.34-.24l.67.55a.18.18,0,0,1,.05.24,1,1,0,0,1-.18.2,1.25,1.25,0,0,0-.3.4,1.3,1.3,0,0,0-.17,1,2.55,2.55,0,0,0,.56,1.06L393,153.2Z"/><path class="cls-2" d="M395,149.89l-5.7-3.28.33-.56a.26.26,0,0,1,.35-.13l.63.26a3.2,3.2,0,0,1-.26-1,1.76,1.76,0,0,1,.25-1,1.38,1.38,0,0,1,.82-.69,2.15,2.15,0,0,1,1.15,0,2.17,2.17,0,0,1-.37-.6,2.06,2.06,0,0,1-.07-1.23,2.28,2.28,0,0,1,.23-.56,2.4,2.4,0,0,1,.58-.67,1.82,1.82,0,0,1,.74-.32,2.22,2.22,0,0,1,.88,0,3.67,3.67,0,0,1,1,.4l3.63,2.1-.55.94L395,141.5a1.91,1.91,0,0,0-1.17-.31,1.1,1.1,0,0,0-.81.6,1.43,1.43,0,0,0-.17.49,1.27,1.27,0,0,0,.05.51,1.33,1.33,0,0,0,.28.5,1.86,1.86,0,0,0,.54.43l3.62,2.09-.54.94-3.62-2.09a1.92,1.92,0,0,0-1.18-.33,1,1,0,0,0-.77.56,1.31,1.31,0,0,0-.17.76,2.46,2.46,0,0,0,.23.86l4.24,2.45Z"/><path class="cls-2" d="M402.21,137.32l-.24.42a.53.53,0,0,1-.17.19.29.29,0,0,1-.26,0l-.59-.2a5.76,5.76,0,0,1,.13.62,2.84,2.84,0,0,1,0,.58,2.28,2.28,0,0,1-.1.57,3,3,0,0,1-.27.59,2,2,0,0,1-.43.52,1.37,1.37,0,0,1-.55.31,1.41,1.41,0,0,1-.65.05,2,2,0,0,1-.75-.27,1.53,1.53,0,0,1-.55-.55,1.82,1.82,0,0,1-.23-.88,4.13,4.13,0,0,1,.19-1.25,7.82,7.82,0,0,1,.73-1.62l-.45-.26a1.86,1.86,0,0,0-1.16-.31,1.07,1.07,0,0,0-.8.59,1.92,1.92,0,0,0-.24.63,2.37,2.37,0,0,0,0,.52c0,.16,0,.3,0,.42a.42.42,0,0,1-.05.3.24.24,0,0,1-.15.13.41.41,0,0,1-.19,0l-.42,0a3.49,3.49,0,0,1-.13-1.34,3.3,3.3,0,0,1,.43-1.27,2.23,2.23,0,0,1,.62-.7,1.82,1.82,0,0,1,.77-.33,2.24,2.24,0,0,1,.89,0,3.29,3.29,0,0,1,.95.39Zm-2,2.08a2.19,2.19,0,0,0,.21-.48,2,2,0,0,0,.07-.48,2.59,2.59,0,0,0,0-.48,3.18,3.18,0,0,0-.13-.51l-1.18-.68a6.06,6.06,0,0,0-.54,1.15,3.12,3.12,0,0,0-.2.87,1.27,1.27,0,0,0,.09.61.86.86,0,0,0,.36.37,1.14,1.14,0,0,0,.43.16.76.76,0,0,0,.37,0,.87.87,0,0,0,.31-.18A1.31,1.31,0,0,0,400.19,139.4Z"/><path class="cls-2" d="M400.45,129.55a1.21,1.21,0,0,1,.05.14.27.27,0,0,1,0,.14.34.34,0,0,1-.17.13l-.29.15a2.3,2.3,0,0,0-.35.25,1.6,1.6,0,0,0-.36.46,1.83,1.83,0,0,0-.25.78,1.52,1.52,0,0,0,.14.75,2.45,2.45,0,0,0,.5.7,4.36,4.36,0,0,0,.84.62,3.86,3.86,0,0,0,1,.42,2.33,2.33,0,0,0,.85.07,1.5,1.5,0,0,0,.7-.24,1.69,1.69,0,0,0,.52-.57,1.83,1.83,0,0,0,.24-.61,2.71,2.71,0,0,0,0-.48c0-.14,0-.26-.06-.35a.41.41,0,0,1,0-.25.23.23,0,0,1,.2-.12l.52,0a2.25,2.25,0,0,1,.16,1.25,3.46,3.46,0,0,1-.42,1.23,2.59,2.59,0,0,1-.73.81,2.52,2.52,0,0,1-1,.42,3.26,3.26,0,0,1-1.2,0,4.54,4.54,0,0,1-1.35-.54,4.86,4.86,0,0,1-1.08-.84,3.25,3.25,0,0,1-.65-1,2.43,2.43,0,0,1-.15-1.14,2.94,2.94,0,0,1,.4-1.2,2.87,2.87,0,0,1,.76-.88,2.76,2.76,0,0,1,1-.44Z"/><path class="cls-2" d="M399.11,125.4a.82.82,0,0,1,.38.49.78.78,0,0,1,0,.3.59.59,0,0,1-.1.29.74.74,0,0,1-.2.23,1.18,1.18,0,0,1-.28.12.8.8,0,0,1-.31,0,.82.82,0,0,1-.55-.32.87.87,0,0,1-.14-.27,1,1,0,0,1,0-.3.63.63,0,0,1,.1-.29.74.74,0,0,1,.2-.23.7.7,0,0,1,.28-.12,1.06,1.06,0,0,1,.31,0A.82.82,0,0,1,399.11,125.4Zm1.67,1.24,5.69,3.29-.54.94-5.69-3.29Z"/><path class="cls-2" d="M402.89,122.78a3,3,0,0,1,.82-.94,2.47,2.47,0,0,1,1.05-.46,3.15,3.15,0,0,1,1.22,0,4.31,4.31,0,0,1,1.31.52,4.6,4.6,0,0,1,1.12.88,3.06,3.06,0,0,1,.63,1,2.53,2.53,0,0,1,.12,1.13,3,3,0,0,1-.4,1.18,3.14,3.14,0,0,1-.82.94,2.6,2.6,0,0,1-1.05.46,3,3,0,0,1-1.22,0,4.85,4.85,0,0,1-2.42-1.4,2.85,2.85,0,0,1-.63-1,2.62,2.62,0,0,1-.13-1.15A3,3,0,0,1,402.89,122.78Zm5.08,2.93a1.53,1.53,0,0,0,.12-1.51,3.9,3.9,0,0,0-3.16-1.82,1.52,1.52,0,0,0-1.25.85,1.94,1.94,0,0,0-.26.78,1.6,1.6,0,0,0,.14.74,2.37,2.37,0,0,0,.51.68,4.15,4.15,0,0,0,.85.62,4.39,4.39,0,0,0,1,.43,2.12,2.12,0,0,0,.84.09,1.59,1.59,0,0,0,.71-.25A1.71,1.71,0,0,0,408,125.71Zm-6.55-5.84.74,2.07a.59.59,0,0,1,0,.21.52.52,0,0,1-.07.21l-.32.55-.91-1.56a.69.69,0,0,1-.1-.27.64.64,0,0,1,.09-.29Z"/><path class="cls-2" d="M410.81,122.41l-5.69-3.28.32-.56a.29.29,0,0,1,.36-.13l.66.28a3.71,3.71,0,0,1-.22-1.16,2.35,2.35,0,0,1,.32-1.14,2.11,2.11,0,0,1,.6-.68,1.73,1.73,0,0,1,.76-.31,2.22,2.22,0,0,1,.88.06,3.29,3.29,0,0,1,.95.39l3.63,2.09-.54.94-3.63-2.09a1.9,1.9,0,0,0-1.16-.31,1.16,1.16,0,0,0-.85.64,1.69,1.69,0,0,0-.23.91,3.09,3.09,0,0,0,.19,1l4.2,2.42Z"/><path class="cls-2" d="M341.67,182.14a.73.73,0,0,1,.24.22.87.87,0,0,1,.14.27.8.8,0,0,1,0,.31.81.81,0,0,1-.09.29.63.63,0,0,1-.21.22.66.66,0,0,1-.27.12,1.08,1.08,0,0,1-.31,0,.84.84,0,0,1-.3-.11,1,1,0,0,1-.25-.21.85.85,0,0,1-.15-.28.77.77,0,0,1,0-.3.75.75,0,0,1,.09-.29.56.56,0,0,1,.21-.22.68.68,0,0,1,.27-.13.86.86,0,0,1,.32,0A.87.87,0,0,1,341.67,182.14Zm1.67,1.25,5.69,3.28-.54.94-5.7-3.29Z"/><path class="cls-2" d="M350,185l-5.7-3.29.32-.56A.29.29,0,0,1,345,181l.66.28a3.66,3.66,0,0,1-.22-1.16,2.35,2.35,0,0,1,.32-1.14,2.11,2.11,0,0,1,.6-.68,1.84,1.84,0,0,1,.77-.31,2.19,2.19,0,0,1,.87.06,3.47,3.47,0,0,1,.95.39l3.63,2.1-.54.93-3.63-2.09a1.82,1.82,0,0,0-1.16-.3,1.16,1.16,0,0,0-.85.64,1.75,1.75,0,0,0-.23.9,3.09,3.09,0,0,0,.19,1l4.2,2.42Z"/><path class="cls-2" d="M350.79,172.81a1.21,1.21,0,0,1,0,.14.27.27,0,0,1,0,.14.29.29,0,0,1-.17.13l-.29.15a2.3,2.3,0,0,0-.35.25,1.6,1.6,0,0,0-.36.46,1.83,1.83,0,0,0-.25.78,1.5,1.5,0,0,0,.14.75,2.45,2.45,0,0,0,.5.7,4.36,4.36,0,0,0,.84.62,3.86,3.86,0,0,0,1,.42,2.57,2.57,0,0,0,.85.08,1.68,1.68,0,0,0,.7-.25,1.75,1.75,0,0,0,.52-.56,1.65,1.65,0,0,0,.25-1.1,2.43,2.43,0,0,0-.05-.35.37.37,0,0,1,0-.24.22.22,0,0,1,.2-.13l.52-.05A2.34,2.34,0,0,1,355,176a3.46,3.46,0,0,1-.42,1.23,2.5,2.5,0,0,1-.74.81,2.48,2.48,0,0,1-1,.42,3.06,3.06,0,0,1-1.2,0,4.43,4.43,0,0,1-1.35-.54,4.58,4.58,0,0,1-1.08-.84,3.08,3.08,0,0,1-.65-1,2.41,2.41,0,0,1-.15-1.13,2.79,2.79,0,0,1,.4-1.21,2.87,2.87,0,0,1,.76-.88,2.76,2.76,0,0,1,1-.44Z"/><path class="cls-2" d="M348.53,168.41l8.28,4.78-.54.94L348,169.35Z"/><path class="cls-2" d="M351,166a.73.73,0,0,1,.24.22.87.87,0,0,1,.14.27.8.8,0,0,1,0,.31.81.81,0,0,1-.09.29.7.7,0,0,1-.2.22.77.77,0,0,1-.28.12,1.06,1.06,0,0,1-.31,0,.91.91,0,0,1-.3-.11,1,1,0,0,1-.25-.21.85.85,0,0,1-.15-.28.77.77,0,0,1,0-.3.75.75,0,0,1,.09-.29.63.63,0,0,1,.21-.22.66.66,0,0,1,.28-.13.8.8,0,0,1,.31,0A.87.87,0,0,1,351,166Zm1.67,1.25,5.69,3.28-.54.94-5.69-3.29Z"/><path class="cls-2" d="M359.33,168.84l-5.7-3.29L354,165a.29.29,0,0,1,.36-.13l.66.28a3.39,3.39,0,0,1-.21-1.16,2.15,2.15,0,0,1,.32-1.14,1.9,1.9,0,0,1,.6-.68,1.75,1.75,0,0,1,.76-.31,2.23,2.23,0,0,1,.88.06,3.74,3.74,0,0,1,.95.39l3.62,2.1-.54.93-3.63-2.09a1.81,1.81,0,0,0-1.16-.3,1.12,1.12,0,0,0-.84.64,1.76,1.76,0,0,0-.24.9,3.09,3.09,0,0,0,.19,1l4.2,2.42Z"/><path class="cls-2" d="M365,159.06l-.24.41a.58.58,0,0,1-.17.2.27.27,0,0,1-.25,0l-.59-.2c0,.22.09.42.12.62a2.82,2.82,0,0,1,0,.58,2.14,2.14,0,0,1-.11.56,3.33,3.33,0,0,1-.26.59,2.08,2.08,0,0,1-.43.53,1.44,1.44,0,0,1-.55.31,1.6,1.6,0,0,1-.66.05,2,2,0,0,1-.74-.27,1.53,1.53,0,0,1-.55-.55,1.82,1.82,0,0,1-.23-.88,4,4,0,0,1,.18-1.25,7.88,7.88,0,0,1,.73-1.62l-.44-.26a1.93,1.93,0,0,0-1.17-.32,1.1,1.1,0,0,0-.79.59,1.55,1.55,0,0,0-.24.63,2.49,2.49,0,0,0,0,.53c0,.16,0,.3,0,.42a.46.46,0,0,1-.05.29.33.33,0,0,1-.15.14.45.45,0,0,1-.2,0l-.42,0a3.73,3.73,0,0,1-.13-1.35,3.32,3.32,0,0,1,.43-1.26,2.24,2.24,0,0,1,.62-.7,1.81,1.81,0,0,1,.78-.34,2.2,2.2,0,0,1,.88,0,3.43,3.43,0,0,1,.95.38Zm-2,2.08a2.2,2.2,0,0,0,.2-.49,1.85,1.85,0,0,0,.08-.47,2.77,2.77,0,0,0,0-.49,3.94,3.94,0,0,0-.14-.51l-1.17-.67a6.87,6.87,0,0,0-.55,1.15,3.79,3.79,0,0,0-.2.87,1.22,1.22,0,0,0,.1.6.92.92,0,0,0,.35.38,1.27,1.27,0,0,0,.43.16.8.8,0,0,0,.38,0,.84.84,0,0,0,.31-.19A1.31,1.31,0,0,0,363,161.14Z"/><path class="cls-2" d="M363.22,151.29a.43.43,0,0,1,0,.14.19.19,0,0,1,0,.14.4.4,0,0,1-.17.13,1.88,1.88,0,0,0-.29.14,3.16,3.16,0,0,0-.36.26,2,2,0,0,0-.36.46,1.81,1.81,0,0,0-.24.77,1.56,1.56,0,0,0,.14.76,2.08,2.08,0,0,0,.5.69,3.9,3.9,0,0,0,.83.62,4.07,4.07,0,0,0,1,.42,2.33,2.33,0,0,0,.85.08,1.55,1.55,0,0,0,1.21-.81,1.54,1.54,0,0,0,.24-.61,1.6,1.6,0,0,0,0-.48,2.84,2.84,0,0,0,0-.36.33.33,0,0,1,0-.24.22.22,0,0,1,.2-.12l.52-.05a2.33,2.33,0,0,1,.16,1.25,3.34,3.34,0,0,1-.42,1.22,2.55,2.55,0,0,1-.74.82,2.48,2.48,0,0,1-1,.42,3.33,3.33,0,0,1-1.21,0,4.87,4.87,0,0,1-2.42-1.38,3,3,0,0,1-.65-1,2.57,2.57,0,0,1-.16-1.14,3,3,0,0,1,.4-1.2,2.67,2.67,0,0,1,1.76-1.33Z"/><path class="cls-2" d="M361.88,147.14a.61.61,0,0,1,.24.21,1,1,0,0,1,.14.28.77.77,0,0,1,0,.3.75.75,0,0,1-.09.29.56.56,0,0,1-.21.22.66.66,0,0,1-.27.12.82.82,0,0,1-.61-.08.88.88,0,0,1-.25-.22.76.76,0,0,1-.15-.28.75.75,0,0,1,0-.3.71.71,0,0,1,.09-.28.74.74,0,0,1,.48-.35.85.85,0,0,1,.32,0A.89.89,0,0,1,361.88,147.14Zm1.67,1.24,5.69,3.29-.54.94-5.7-3.29Z"/><path class="cls-2" d="M365.66,144.51a2.86,2.86,0,0,1,.82-.93,2.47,2.47,0,0,1,1-.46,3,3,0,0,1,1.22,0,4.45,4.45,0,0,1,1.31.53,4.56,4.56,0,0,1,1.11.87,3.26,3.26,0,0,1,.63,1,2.6,2.6,0,0,1,.13,1.14,3,3,0,0,1-.41,1.18,3.12,3.12,0,0,1-.81.94,2.58,2.58,0,0,1-1.06.46,3.09,3.09,0,0,1-1.21,0,4.47,4.47,0,0,1-1.32-.52,4.36,4.36,0,0,1-1.11-.88,3.19,3.19,0,0,1-.63-1,2.58,2.58,0,0,1-.12-1.14A2.86,2.86,0,0,1,365.66,144.51Zm5.08,2.94a1.58,1.58,0,0,0,.12-1.51,3.18,3.18,0,0,0-1.36-1.3,3.21,3.21,0,0,0-1.81-.53,1.56,1.56,0,0,0-1.24.86,1.72,1.72,0,0,0-.26.78,1.43,1.43,0,0,0,.14.73,2.08,2.08,0,0,0,.5.69,4.23,4.23,0,0,0,.86.62,4,4,0,0,0,1,.43,2.28,2.28,0,0,0,.84.09,1.55,1.55,0,0,0,.7-.25A1.82,1.82,0,0,0,370.74,147.45Zm-6.55-5.84.74,2.07a.56.56,0,0,1,0,.21.41.41,0,0,1-.06.2l-.33.56-.91-1.56a.66.66,0,0,1-.09-.27.46.46,0,0,1,.09-.29Z"/><path class="cls-2" d="M373.58,144.15l-5.7-3.29.33-.55a.27.27,0,0,1,.35-.14l.66.29a3.43,3.43,0,0,1-.21-1.16,2.1,2.1,0,0,1,.32-1.14,2.15,2.15,0,0,1,.6-.69,1.74,1.74,0,0,1,.76-.3,2.41,2.41,0,0,1,.88.05,3.65,3.65,0,0,1,.95.4l3.62,2.09-.54.94-3.62-2.1a1.9,1.9,0,0,0-1.17-.3,1.17,1.17,0,0,0-.84.64,1.78,1.78,0,0,0-.24.9,3.07,3.07,0,0,0,.2,1l4.19,2.42Z"/><path class="cls-2" d="M322.35,181.77a3.11,3.11,0,0,1,.45-.61,2.68,2.68,0,0,1,.56-.41l.84-1.45.37.22a.27.27,0,0,1,.11.35l-.26.66a2.15,2.15,0,0,1,.92.29,2.26,2.26,0,0,1,.67.59,2.12,2.12,0,0,1,.34.75,2,2,0,0,1,0,.85,2.64,2.64,0,0,1-.33.88,3,3,0,0,1-.51.65,1.11,1.11,0,0,0,.11.4.5.5,0,0,0,.21.24.41.41,0,0,0,.4,0,1.22,1.22,0,0,0,.39-.32,3.1,3.1,0,0,0,.38-.55l.38-.65a3.46,3.46,0,0,1,.44-.62,2.1,2.1,0,0,1,.54-.46,1.35,1.35,0,0,1,.62-.18,1.49,1.49,0,0,1,.74.22,1.84,1.84,0,0,1,.62.59,2.19,2.19,0,0,1,.33.85,2.76,2.76,0,0,1,0,1,3.77,3.77,0,0,1-.44,1.14,4.8,4.8,0,0,1-.72,1,2.93,2.93,0,0,1-.75.54,1.65,1.65,0,0,1-.73.15,1.48,1.48,0,0,1-.66-.18,1.24,1.24,0,0,1-.57-.67,1.86,1.86,0,0,1-.07-.95,1.16,1.16,0,0,1-.51.18,1,1,0,0,1-.58-.15.83.83,0,0,1-.23-.19,1.07,1.07,0,0,1-.19-.28,1.9,1.9,0,0,1-.12-.36,1.39,1.39,0,0,1,0-.41,2,2,0,0,1-1,.25,2.09,2.09,0,0,1-1-.3,2.14,2.14,0,0,1-.67-.59,2,2,0,0,1-.34-.75,2.22,2.22,0,0,1,0-.85A2.64,2.64,0,0,1,322.35,181.77Zm7,1.84a.67.67,0,0,0-.42-.09.85.85,0,0,0-.37.18,2.66,2.66,0,0,0-.36.38,4.85,4.85,0,0,0-.34.5l-.32.56a2.16,2.16,0,0,1-.39.5,2,2,0,0,0,.09.7.91.91,0,0,0,.42.49.93.93,0,0,0,.41.12,1,1,0,0,0,.45-.12,1.66,1.66,0,0,0,.46-.37,3,3,0,0,0,.47-.63,3.39,3.39,0,0,0,.31-.73,1.81,1.81,0,0,0,.09-.63,1.13,1.13,0,0,0-.15-.5A.93.93,0,0,0,329.39,183.61Zm-4-.11a1.63,1.63,0,0,0,.21-.55,1.19,1.19,0,0,0,0-.5,1.22,1.22,0,0,0-.24-.43,1.6,1.6,0,0,0-.42-.34,1.32,1.32,0,0,0-1-.18,1.28,1.28,0,0,0-.81.68,1.22,1.22,0,0,0,.47,1.82,1.52,1.52,0,0,0,.51.19A1.08,1.08,0,0,0,325,184,1.4,1.4,0,0,0,325.35,183.5Z"/><path class="cls-2" d="M330.21,181.52l-5.69-3.29.31-.53a.34.34,0,0,1,.18-.18.47.47,0,0,1,.26,0l.92.45a3.1,3.1,0,0,1-.54-1.22,1.7,1.7,0,0,1,.22-1.14,1.34,1.34,0,0,1,.28-.37,1.31,1.31,0,0,1,.34-.24l.68.55a.18.18,0,0,1,0,.24.73.73,0,0,1-.18.2,1.64,1.64,0,0,0-.3.4,1.34,1.34,0,0,0-.17,1,2.67,2.67,0,0,0,.56,1.06l3.63,2.09Z"/><path class="cls-2" d="M325.9,171.7a.82.82,0,0,1,.38.49.78.78,0,0,1,0,.3.59.59,0,0,1-.1.29.64.64,0,0,1-.2.23,1.18,1.18,0,0,1-.28.12.8.8,0,0,1-.31,0,.71.71,0,0,1-.3-.1,1,1,0,0,1-.25-.21,1,1,0,0,1-.14-.28,1,1,0,0,1,0-.3.75.75,0,0,1,.09-.29.93.93,0,0,1,.21-.23.7.7,0,0,1,.28-.12.8.8,0,0,1,.31,0A.67.67,0,0,1,325.9,171.7Zm1.67,1.24,5.69,3.29-.54.94L327,173.88Z"/><path class="cls-2" d="M329.66,169.12a2.46,2.46,0,0,1,.68-.78,2.19,2.19,0,0,1,.9-.42,2.7,2.7,0,0,1,1.06,0,3.79,3.79,0,0,1,1.18.46.86.86,0,0,1,.29.23.23.23,0,0,1,0,.22l-2.05,3.56a3.9,3.9,0,0,0,1,.4,2.36,2.36,0,0,0,.87,0,1.75,1.75,0,0,0,.7-.3,1.87,1.87,0,0,0,.53-.61,2.2,2.2,0,0,0,.26-.66,3.94,3.94,0,0,0,.07-.55c0-.16,0-.3,0-.41a.53.53,0,0,1,0-.27.24.24,0,0,1,.2-.12l.52,0a2.22,2.22,0,0,1,.15.64,2.61,2.61,0,0,1,0,.68,3.21,3.21,0,0,1-.17.66,3.46,3.46,0,0,1-.28.62,3,3,0,0,1-.79.9,2.63,2.63,0,0,1-1.05.47,3.16,3.16,0,0,1-1.26,0,4.76,4.76,0,0,1-1.41-.56,4.17,4.17,0,0,1-1-.82,3.21,3.21,0,0,1-.61-1,2.69,2.69,0,0,1,.25-2.3Zm.74.41a1.6,1.6,0,0,0-.19,1.31,2.24,2.24,0,0,0,.88,1.15l1.67-2.9a2.51,2.51,0,0,0-.69-.28,1.59,1.59,0,0,0-.65,0,1.3,1.3,0,0,0-.57.23A1.62,1.62,0,0,0,330.4,169.53Z"/><path class="cls-2" d="M338.43,167.49a1.4,1.4,0,0,1-.94.75,1.83,1.83,0,0,1-1.28-.28l-3.48-2-.37.65a.3.3,0,0,1-.14.11.26.26,0,0,1-.2,0l-.4-.23.39-.94-1.64-1.24a.22.22,0,0,1-.09-.14.2.2,0,0,1,0-.18l.27-.48,2,1.14.89-1.53.72.42-.88,1.53,3.42,2a.83.83,0,0,0,.63.14.65.65,0,0,0,.41-.32.71.71,0,0,0,.11-.28,1,1,0,0,0,0-.24,1.15,1.15,0,0,0,0-.19.23.23,0,0,1,0-.12c0-.05.09-.07.18-.08h.63a1.94,1.94,0,0,1,0,.8A2.25,2.25,0,0,1,338.43,167.49Z"/><path class="cls-2" d="M341.94,161.2l-.24.42a.53.53,0,0,1-.17.19.29.29,0,0,1-.26,0l-.59-.2a5.76,5.76,0,0,1,.13.62,2.4,2.4,0,0,1-.08,1.15,3,3,0,0,1-.27.59,2.18,2.18,0,0,1-.42.53,1.71,1.71,0,0,1-.56.31,1.56,1.56,0,0,1-.65,0,2,2,0,0,1-.74-.27,1.45,1.45,0,0,1-.55-.55,1.79,1.79,0,0,1-.24-.88,4,4,0,0,1,.19-1.24,7.65,7.65,0,0,1,.73-1.63l-.44-.26a1.91,1.91,0,0,0-1.17-.31,1.08,1.08,0,0,0-.8.59,1.92,1.92,0,0,0-.24.63,3.17,3.17,0,0,0,0,.52c0,.16,0,.3,0,.42a.56.56,0,0,1,0,.3.31.31,0,0,1-.15.13.48.48,0,0,1-.2,0l-.42,0a3.7,3.7,0,0,1-.13-1.34,3.3,3.3,0,0,1,.43-1.27,2.23,2.23,0,0,1,.62-.7,1.92,1.92,0,0,1,.78-.33,2.2,2.2,0,0,1,.88,0,3.18,3.18,0,0,1,.95.39Zm-2,2.08a1.8,1.8,0,0,0,.21-.48,1.59,1.59,0,0,0,.07-.48,1.94,1.94,0,0,0,0-.48,3.23,3.23,0,0,0-.14-.51l-1.17-.68a7.27,7.27,0,0,0-.55,1.15,3.52,3.52,0,0,0-.2.87,1.24,1.24,0,0,0,.1.61.91.91,0,0,0,.35.38,1.38,1.38,0,0,0,.43.15.8.8,0,0,0,.38,0,.81.81,0,0,0,.31-.18A1.57,1.57,0,0,0,339.92,163.28Z"/><path class="cls-2" d="M339.77,154a.23.23,0,0,1,0,.26.47.47,0,0,1-.16.15l-.28.16a3.44,3.44,0,0,0-.34.26,2,2,0,0,0-.34.44,1.52,1.52,0,0,0-.18.47,1.2,1.2,0,0,0,0,.42.93.93,0,0,0,.14.36,1,1,0,0,0,.28.26.7.7,0,0,0,.44.09,1.11,1.11,0,0,0,.43-.17,3.22,3.22,0,0,0,.45-.33l.46-.41c.17-.14.33-.27.5-.39a2,2,0,0,1,.54-.28,1.46,1.46,0,0,1,.59-.08,1.66,1.66,0,0,1,.66.22,2.37,2.37,0,0,1,.65.56,1.73,1.73,0,0,1,.35.72,1.91,1.91,0,0,1,0,.86,2.79,2.79,0,0,1-.35.94,3.13,3.13,0,0,1-.78.9,2.89,2.89,0,0,1-.94.48l-.26-.44a.37.37,0,0,1,0-.16.25.25,0,0,1,0-.18.38.38,0,0,1,.19-.15l.32-.16a2.39,2.39,0,0,0,.39-.26,1.85,1.85,0,0,0,.38-.49,1.34,1.34,0,0,0,.2-.53,1.19,1.19,0,0,0,0-.46,1.16,1.16,0,0,0-.18-.37,1.18,1.18,0,0,0-.32-.27.67.67,0,0,0-.46-.11,1.16,1.16,0,0,0-.45.16,3.22,3.22,0,0,0-.45.33l-.46.42a6.12,6.12,0,0,1-.5.39,2.59,2.59,0,0,1-.55.28,1.55,1.55,0,0,1-.61.06,1.68,1.68,0,0,1-.69-.24,1.87,1.87,0,0,1-.56-.49,1.79,1.79,0,0,1-.31-.67,2,2,0,0,1,0-.8,2.77,2.77,0,0,1,.33-.89,2.85,2.85,0,0,1,.72-.84,2.67,2.67,0,0,1,.91-.45Z"/><path class="cls-2" d="M303,187.51l-4.84-2.8-.41.55a.46.46,0,0,1-.19.13.2.2,0,0,1-.21,0l-.41-.23.48-.85-.55-.32a2.81,2.81,0,0,1-.79-.63,1.9,1.9,0,0,1-.43-.73,1.84,1.84,0,0,1-.06-.81,2.37,2.37,0,0,1,.3-.84,2.11,2.11,0,0,1,.5-.6l.48.31a.16.16,0,0,1,.09.17,1.1,1.1,0,0,1-.12.25l-.09.16a1.84,1.84,0,0,0-.19.48,1.06,1.06,0,0,0,0,.47,1.23,1.23,0,0,0,.28.45,2.11,2.11,0,0,0,.57.43l.52.3.89-1.54.73.42-.88,1.51,4.86,2.8Z"/><path class="cls-2" d="M299.73,180.07l3.63,2.09a1.82,1.82,0,0,0,1.16.3,1.15,1.15,0,0,0,.84-.64,1.72,1.72,0,0,0,.24-.89,2.86,2.86,0,0,0-.19-1l-4.2-2.42.54-.94,5.7,3.29-.33.56a.28.28,0,0,1-.35.13l-.66-.28a3.43,3.43,0,0,1,.21,1.16,2.22,2.22,0,0,1-.32,1.14,2.11,2.11,0,0,1-.6.68,1.75,1.75,0,0,1-.76.31,2.36,2.36,0,0,1-.87-.05,3.65,3.65,0,0,1-.95-.4l-3.63-2.1Z"/><path class="cls-2" d="M303.58,173.16a3.17,3.17,0,0,1,.46-.6,2.18,2.18,0,0,1,.56-.41l.84-1.45.37.21a.27.27,0,0,1,.1.36l-.25.66a2.11,2.11,0,0,1,.91.29,2,2,0,0,1,.67.59,1.82,1.82,0,0,1,.34.75,2.15,2.15,0,0,1,0,.84,2.78,2.78,0,0,1-.33.88,3.06,3.06,0,0,1-.51.65,1.12,1.12,0,0,0,.1.4.57.57,0,0,0,.22.24.41.41,0,0,0,.4,0,1.18,1.18,0,0,0,.39-.31,5.24,5.24,0,0,0,.38-.55l.38-.66a3.86,3.86,0,0,1,.44-.62,2,2,0,0,1,.53-.45,1.21,1.21,0,0,1,.63-.18,1.33,1.33,0,0,1,.74.22,1.9,1.9,0,0,1,.62.58,2.36,2.36,0,0,1,.33.85,2.82,2.82,0,0,1,0,1,3.77,3.77,0,0,1-.44,1.14,4.45,4.45,0,0,1-.72,1,2.52,2.52,0,0,1-.75.54,1.68,1.68,0,0,1-.74.16,1.36,1.36,0,0,1-.65-.19,1.22,1.22,0,0,1-.57-.66,2,2,0,0,1-.08-1,1.1,1.1,0,0,1-.51.19,1,1,0,0,1-.58-.16,1.28,1.28,0,0,1-.23-.19,1.12,1.12,0,0,1-.18-.28,1.21,1.21,0,0,1-.13-.35,1.44,1.44,0,0,1,0-.42,2,2,0,0,1-1,.26,2.09,2.09,0,0,1-1-.3,2.14,2.14,0,0,1-.67-.59,2,2,0,0,1-.34-.75,2.48,2.48,0,0,1,0-.86A3.06,3.06,0,0,1,303.58,173.16Zm7.05,1.85a.56.56,0,0,0-.42-.09.75.75,0,0,0-.37.18,1.64,1.64,0,0,0-.36.38,4.85,4.85,0,0,0-.34.5l-.32.56a2.4,2.4,0,0,1-.39.5,1.61,1.61,0,0,0,.09.7.89.89,0,0,0,.41.49.88.88,0,0,0,.42.11,1,1,0,0,0,.45-.12,2,2,0,0,0,.46-.36,3.41,3.41,0,0,0,.46-.64,2.8,2.8,0,0,0,.32-.72,1.82,1.82,0,0,0,.08-.63,1.21,1.21,0,0,0-.14-.51A.91.91,0,0,0,310.63,175Zm-4-.11a1.63,1.63,0,0,0,.21-.55,1,1,0,0,0,0-.5,1.17,1.17,0,0,0-.23-.44,1.6,1.6,0,0,0-.42-.34,1.22,1.22,0,0,0-1.82.51,1.23,1.23,0,0,0,.48,1.82,1.61,1.61,0,0,0,.5.19,1.2,1.2,0,0,0,.5,0,1.21,1.21,0,0,0,.44-.22A1.54,1.54,0,0,0,306.59,174.9Z"/><path class="cls-2" d="M313.71,169l-.24.41a.58.58,0,0,1-.17.2.29.29,0,0,1-.26,0l-.59-.2a5.3,5.3,0,0,1,.13.62,2.26,2.26,0,0,1,0,.58,2.13,2.13,0,0,1-.1.56,2.79,2.79,0,0,1-.27.59,1.89,1.89,0,0,1-.43.53,1.37,1.37,0,0,1-.55.31,1.56,1.56,0,0,1-.65.05,1.91,1.91,0,0,1-.74-.27,1.64,1.64,0,0,1-.56-.55,1.94,1.94,0,0,1-.23-.88,4.09,4.09,0,0,1,.19-1.25,7.38,7.38,0,0,1,.73-1.62l-.45-.26a1.88,1.88,0,0,0-1.16-.32,1.12,1.12,0,0,0-.8.59,1.92,1.92,0,0,0-.24.63,2.44,2.44,0,0,0,0,.53q0,.24,0,.42a.46.46,0,0,1,0,.29.33.33,0,0,1-.15.14.48.48,0,0,1-.2,0l-.42,0a3.73,3.73,0,0,1-.13-1.35,3.32,3.32,0,0,1,.43-1.26,2.13,2.13,0,0,1,.62-.7,1.83,1.83,0,0,1,.77-.34,2.25,2.25,0,0,1,.89,0,3.56,3.56,0,0,1,.95.38Zm-2,2.08a2,2,0,0,0,.28-1,2.07,2.07,0,0,0,0-.49,3.83,3.83,0,0,0-.13-.51l-1.17-.67a6.17,6.17,0,0,0-.55,1.15,3.33,3.33,0,0,0-.2.87,1.22,1.22,0,0,0,.1.6.8.8,0,0,0,.35.38,1.2,1.2,0,0,0,.43.16.8.8,0,0,0,.38,0,.93.93,0,0,0,.31-.19A1.28,1.28,0,0,0,311.69,171.08Z"/><path class="cls-2" d="M317.88,161.78a.29.29,0,0,1-.36.13l-.74-.31a3.23,3.23,0,0,1,.26,1.19,2.19,2.19,0,0,1-.31,1.17,2.21,2.21,0,0,1-.67.72,2.07,2.07,0,0,1-.92.32,3.39,3.39,0,0,1-1.15-.12,6.24,6.24,0,0,1-1.34-.58,4.86,4.86,0,0,1-1.08-.84,3.55,3.55,0,0,1-.68-1,2.39,2.39,0,0,1-.2-1.08,2.33,2.33,0,0,1,.33-1.11,2.15,2.15,0,0,1,.66-.73,2.42,2.42,0,0,1,.86-.34l-3.16-1.82.54-.94,8.28,4.78Zm-1.78,1.4a1.7,1.7,0,0,0,.23-.94,2.65,2.65,0,0,0-.26-1l-2.76-1.59a1.67,1.67,0,0,0-.84.27,1.87,1.87,0,0,0-.55.6,1.49,1.49,0,0,0-.09,1.47,3.18,3.18,0,0,0,1.38,1.34,6.11,6.11,0,0,0,1,.46,2.19,2.19,0,0,0,.8.11,1.24,1.24,0,0,0,.62-.21A1.53,1.53,0,0,0,316.1,163.18Z"/><path class="cls-2" d="M314.54,154.19a2.62,2.62,0,0,1,.69-.78,2.19,2.19,0,0,1,.9-.42,2.7,2.7,0,0,1,1.06,0,3.89,3.89,0,0,1,1.18.46.86.86,0,0,1,.29.23.23.23,0,0,1,0,.22l-2.05,3.56a3.9,3.9,0,0,0,1,.4,2.36,2.36,0,0,0,.87,0,1.75,1.75,0,0,0,.7-.3,2,2,0,0,0,.53-.61,2.2,2.2,0,0,0,.26-.66,3.94,3.94,0,0,0,.07-.55c0-.16,0-.3,0-.41a.53.53,0,0,1,0-.27.27.27,0,0,1,.2-.12l.52,0a2.22,2.22,0,0,1,.15.64,2.59,2.59,0,0,1,0,.68,3.21,3.21,0,0,1-.17.66,4.34,4.34,0,0,1-.28.62,3,3,0,0,1-.79.9,2.63,2.63,0,0,1-1,.47,3.16,3.16,0,0,1-1.26,0,4.76,4.76,0,0,1-1.41-.56,4,4,0,0,1-1-.82,3,3,0,0,1-.61-1,2.54,2.54,0,0,1-.14-1.13A2.82,2.82,0,0,1,314.54,154.19Zm.75.41a1.64,1.64,0,0,0-.2,1.31,2.32,2.32,0,0,0,.89,1.15l1.67-2.9a2.51,2.51,0,0,0-.69-.28,1.59,1.59,0,0,0-.65,0,1.3,1.3,0,0,0-.57.23A1.61,1.61,0,0,0,315.29,154.6Z"/><path class="cls-2" d="M318.72,147a2.8,2.8,0,0,1,.46-.6,2.17,2.17,0,0,1,.55-.42l.84-1.45.37.22a.28.28,0,0,1,.11.36l-.26.65a2.25,2.25,0,0,1,1.59.88,2,2,0,0,1,.34.75,2.21,2.21,0,0,1,0,.85,2.91,2.91,0,0,1-.34.88,2.74,2.74,0,0,1-.5.65.94.94,0,0,0,.1.4.63.63,0,0,0,.21.24.43.43,0,0,0,.41,0,1.1,1.1,0,0,0,.38-.32,3.1,3.1,0,0,0,.38-.55l.38-.65a4.05,4.05,0,0,1,.44-.62,2.28,2.28,0,0,1,.54-.46,1.36,1.36,0,0,1,.63-.18,1.48,1.48,0,0,1,.73.22,1.84,1.84,0,0,1,.62.59,2,2,0,0,1,.33.85,2.76,2.76,0,0,1,0,1,3.57,3.57,0,0,1-.44,1.15,4.37,4.37,0,0,1-.72,1,2.93,2.93,0,0,1-.75.54,1.62,1.62,0,0,1-.73.15,1.36,1.36,0,0,1-.66-.18,1.24,1.24,0,0,1-.57-.67,2,2,0,0,1-.07-1,1.08,1.08,0,0,1-.51.18,1,1,0,0,1-.58-.15,1,1,0,0,1-.23-.19,1.15,1.15,0,0,1-.19-.28,1.9,1.9,0,0,1-.12-.36,1.84,1.84,0,0,1,0-.41,1.91,1.91,0,0,1-1,.25,2.1,2.1,0,0,1-1.05-.3,2.13,2.13,0,0,1-.67-.59,1.94,1.94,0,0,1-.33-.75,2,2,0,0,1,0-.85A2.86,2.86,0,0,1,318.72,147Zm7,1.84a.64.64,0,0,0-.41-.09.91.91,0,0,0-.38.19,2.12,2.12,0,0,0-.36.37,3.61,3.61,0,0,0-.33.5l-.33.56a2.16,2.16,0,0,1-.39.5,2,2,0,0,0,.09.7,1,1,0,0,0,.42.49.85.85,0,0,0,.41.12,1,1,0,0,0,.45-.12,1.85,1.85,0,0,0,.47-.37,3.43,3.43,0,0,0,.46-.63,4.07,4.07,0,0,0,.32-.73,2,2,0,0,0,.08-.63,1,1,0,0,0-.15-.5A.93.93,0,0,0,325.76,148.79Zm-4-.1a1.46,1.46,0,0,0,.2-.56,1.19,1.19,0,0,0,0-.5,1.08,1.08,0,0,0-.24-.43,1.6,1.6,0,0,0-.42-.34,1.32,1.32,0,0,0-1-.18,1.35,1.35,0,0,0-.81.68,1.22,1.22,0,0,0,.47,1.82,1.52,1.52,0,0,0,.51.19,1.15,1.15,0,0,0,.49,0,1.2,1.2,0,0,0,.45-.23A1.63,1.63,0,0,0,321.73,148.69Z"/><path class="cls-2" d="M328.85,142.78l-.24.42a.55.55,0,0,1-.18.19.27.27,0,0,1-.25,0l-.59-.2c.05.22.09.43.12.62a2.86,2.86,0,0,1,0,.58,2.3,2.3,0,0,1-.11.57,3,3,0,0,1-.26.59,2,2,0,0,1-.43.53,1.44,1.44,0,0,1-1.21.35,2,2,0,0,1-.74-.27,1.45,1.45,0,0,1-.55-.55,1.79,1.79,0,0,1-.23-.88,4.07,4.07,0,0,1,.19-1.24,7.17,7.17,0,0,1,.73-1.63l-.45-.25a1.83,1.83,0,0,0-1.16-.32,1.05,1.05,0,0,0-.8.59,1.92,1.92,0,0,0-.24.63,2.46,2.46,0,0,0,0,.53c0,.15,0,.29,0,.41a.48.48,0,0,1-.05.3.4.4,0,0,1-.15.14.64.64,0,0,1-.2,0h-.41a3.36,3.36,0,0,1-.13-1.35,3.05,3.05,0,0,1,.43-1.26,2.14,2.14,0,0,1,.61-.71,1.92,1.92,0,0,1,.78-.33,2.25,2.25,0,0,1,.89,0,3.54,3.54,0,0,1,.94.39Zm-2,2.08a2.5,2.5,0,0,0,.21-.48,2.65,2.65,0,0,0,.07-.48,2.59,2.59,0,0,0,0-.48,3.18,3.18,0,0,0-.13-.51l-1.18-.68a7.27,7.27,0,0,0-.55,1.15,3.44,3.44,0,0,0-.19.87,1.14,1.14,0,0,0,.09.61.94.94,0,0,0,.36.38,1.11,1.11,0,0,0,.43.15.76.76,0,0,0,.37,0,.81.81,0,0,0,.31-.18A1.37,1.37,0,0,0,326.83,144.86Z"/><path class="cls-2" d="M326.68,135.56a.25.25,0,0,1,0,.26.43.43,0,0,1-.17.15l-.28.16a3.31,3.31,0,0,0-.34.27,1.74,1.74,0,0,0-.34.43,1.62,1.62,0,0,0-.18.47,1.2,1.2,0,0,0,0,.42.83.83,0,0,0,.15.36.88.88,0,0,0,.28.26.67.67,0,0,0,.43.09,1.21,1.21,0,0,0,.44-.17,3.88,3.88,0,0,0,.44-.33l.47-.41a6.12,6.12,0,0,1,.5-.39,2.46,2.46,0,0,1,.53-.28,1.34,1.34,0,0,1,.6-.07,1.36,1.36,0,0,1,.65.22,2.07,2.07,0,0,1,.65.55,1.69,1.69,0,0,1,.36.72,2.24,2.24,0,0,1,0,.86,2.75,2.75,0,0,1-.36.94,2.86,2.86,0,0,1-.78.9,2.8,2.8,0,0,1-.94.48l-.25-.44a.35.35,0,0,1-.06-.16.31.31,0,0,1,.05-.18.42.42,0,0,1,.19-.15l.33-.16a2,2,0,0,0,.38-.26,1.86,1.86,0,0,0,.39-.49,1.78,1.78,0,0,0,.2-.52,1.06,1.06,0,0,0,0-.47.85.85,0,0,0-.18-.37,1,1,0,0,0-.32-.27.73.73,0,0,0-.46-.11,1.16,1.16,0,0,0-.45.16,3.08,3.08,0,0,0-.44.34l-.47.41a6.12,6.12,0,0,1-.5.39,2,2,0,0,1-.55.28,1.53,1.53,0,0,1-.61.06,1.78,1.78,0,0,1-.69-.24,1.69,1.69,0,0,1-.55-.48,1.85,1.85,0,0,1-.32-.68,2.14,2.14,0,0,1,0-.8,2.88,2.88,0,0,1,1.06-1.73,2.72,2.72,0,0,1,.9-.45Z"/><path class="cls-2" d="M281.14,184.39a.29.29,0,0,1-.36.14l-.74-.32a3.23,3.23,0,0,1,.26,1.19,2.19,2.19,0,0,1-.31,1.17,2.12,2.12,0,0,1-.67.72,2,2,0,0,1-.92.32,3,3,0,0,1-1.15-.12,6.24,6.24,0,0,1-1.34-.58,4.58,4.58,0,0,1-1.08-.84,3.41,3.41,0,0,1-.68-1A2.39,2.39,0,0,1,274,184a2.3,2.3,0,0,1,.33-1.1,2.1,2.1,0,0,1,.66-.74,2.41,2.41,0,0,1,.86-.33L272.64,180l.54-.94,8.28,4.78Zm-1.78,1.4a1.69,1.69,0,0,0,.23-.93,2.7,2.7,0,0,0-.26-1l-2.76-1.59a1.7,1.7,0,0,0-.84.27,1.87,1.87,0,0,0-.55.6,1.49,1.49,0,0,0-.09,1.47,3.18,3.18,0,0,0,1.38,1.34,5.38,5.38,0,0,0,1,.46,2.19,2.19,0,0,0,.8.11,1.24,1.24,0,0,0,.62-.21A1.53,1.53,0,0,0,279.36,185.79Z"/><path class="cls-2" d="M277.81,176.81a2.5,2.5,0,0,1,.68-.79,2.32,2.32,0,0,1,.9-.42,2.7,2.7,0,0,1,1.06,0,4.16,4.16,0,0,1,1.18.46.86.86,0,0,1,.29.23.25.25,0,0,1,0,.23l-2.05,3.55a3.9,3.9,0,0,0,1,.4,2.36,2.36,0,0,0,.87,0,1.51,1.51,0,0,0,.7-.3,1.94,1.94,0,0,0,.53-.6,2.43,2.43,0,0,0,.26-.66,4.35,4.35,0,0,0,.07-.55c0-.17,0-.3,0-.42a.49.49,0,0,1,0-.26.25.25,0,0,1,.2-.13l.52-.05a2.3,2.3,0,0,1,.15.64,2.59,2.59,0,0,1,0,.68,3.05,3.05,0,0,1-.17.66,3.89,3.89,0,0,1-.28.62,2.88,2.88,0,0,1-.79.9,2.5,2.5,0,0,1-1.05.47,3.16,3.16,0,0,1-1.26,0,4.76,4.76,0,0,1-1.41-.56,4,4,0,0,1-1-.82,3,3,0,0,1-.61-1,2.52,2.52,0,0,1-.14-1.13A2.62,2.62,0,0,1,277.81,176.81Zm.74.4a1.64,1.64,0,0,0-.2,1.31,2.39,2.39,0,0,0,.89,1.16l1.67-2.91a2.86,2.86,0,0,0-.69-.28,1.59,1.59,0,0,0-.65,0,1.3,1.3,0,0,0-.57.23A1.87,1.87,0,0,0,278.55,177.21Z"/><path class="cls-2" d="M285.56,176.74l-5.7-3.29.31-.54c.06-.1.12-.16.19-.17a.44.44,0,0,1,.26,0l.92.45A3,3,0,0,1,281,172a1.62,1.62,0,0,1,.21-1.13,1.4,1.4,0,0,1,.29-.37,1.66,1.66,0,0,1,.34-.25l.68.55a.19.19,0,0,1,0,.25,1,1,0,0,1-.18.19,1.38,1.38,0,0,0-.3.4,1.31,1.31,0,0,0-.17,1,2.55,2.55,0,0,0,.56,1.06l3.63,2.1Z"/><path class="cls-2" d="M288,172.49l-5.69-3.29.31-.54a.29.29,0,0,1,.18-.17.44.44,0,0,1,.26,0l.92.45a3.06,3.06,0,0,1-.54-1.21,1.7,1.7,0,0,1,.22-1.14,1.56,1.56,0,0,1,.28-.37,1.66,1.66,0,0,1,.34-.25l.68.56a.17.17,0,0,1,0,.24.92.92,0,0,1-.18.2,1.76,1.76,0,0,0-.3.39,1.38,1.38,0,0,0-.17,1,2.77,2.77,0,0,0,.57,1.06l3.62,2.09Z"/><path class="cls-2" d="M285.24,164.14l3.63,2.1a1.82,1.82,0,0,0,1.16.3,1.19,1.19,0,0,0,.84-.64,1.76,1.76,0,0,0,.24-.9,2.85,2.85,0,0,0-.19-1l-4.2-2.43.54-.93,5.69,3.28-.32.56a.27.27,0,0,1-.35.14l-.66-.28a3.39,3.39,0,0,1,.21,1.16,2.18,2.18,0,0,1-.32,1.13,2.27,2.27,0,0,1-.6.69,1.88,1.88,0,0,1-.76.31,2.23,2.23,0,0,1-.88-.06,4.08,4.08,0,0,1-.94-.39l-3.64-2.1Z"/><path class="cls-2" d="M293.85,162.38l-5.7-3.29.32-.56a.3.3,0,0,1,.36-.13l.62.27a3.3,3.3,0,0,1-.25-1,1.77,1.77,0,0,1,.24-1,1.39,1.39,0,0,1,.83-.69,2.1,2.1,0,0,1,1.14,0,2.08,2.08,0,0,1-.36-.6,2,2,0,0,1-.14-.62,2.08,2.08,0,0,1,.07-.61,2.21,2.21,0,0,1,.23-.55,2,2,0,0,1,.58-.67,1.69,1.69,0,0,1,.74-.32,2.22,2.22,0,0,1,.88,0,4,4,0,0,1,1,.41l3.62,2.09-.54.94L293.86,154a1.85,1.85,0,0,0-1.18-.31,1.12,1.12,0,0,0-.8.59,1.3,1.3,0,0,0-.17.49,1.14,1.14,0,0,0,.05.52,1.29,1.29,0,0,0,.28.49,1.88,1.88,0,0,0,.54.44l3.62,2.09-.54.94-3.63-2.1a1.94,1.94,0,0,0-1.17-.33,1.05,1.05,0,0,0-.77.56,1.33,1.33,0,0,0-.17.76,2.38,2.38,0,0,0,.22.86l4.25,2.45Z"/><path class="cls-2" d="M298.86,153.69l-8.28-4.78.55-.94,3.4,2a3.3,3.3,0,0,1-.22-1.15,2.25,2.25,0,0,1,.32-1.12,2.06,2.06,0,0,1,.67-.73,1.88,1.88,0,0,1,.92-.32,2.89,2.89,0,0,1,1.14.12,5.38,5.38,0,0,1,1.34.58,4.83,4.83,0,0,1,1.08.83,3.44,3.44,0,0,1,.67,1,2.37,2.37,0,0,1-.12,2.19,2,2,0,0,1-.72.75,2.45,2.45,0,0,1-1,.29l.49.34a.27.27,0,0,1,.07.37Zm-3.61-5.26a1.63,1.63,0,0,0-.24.94,2.88,2.88,0,0,0,.27,1L298,152a1.74,1.74,0,0,0,.85-.26,1.87,1.87,0,0,0,.55-.6,1.54,1.54,0,0,0,.1-1.48,3.26,3.26,0,0,0-1.39-1.33,4.59,4.59,0,0,0-1-.46,2.22,2.22,0,0,0-.81-.11,1.1,1.1,0,0,0-.62.21A1.46,1.46,0,0,0,295.25,148.43Z"/><path class="cls-2" d="M297.68,142.38a2.76,2.76,0,0,1,.68-.79,2.3,2.3,0,0,1,.9-.41,2.75,2.75,0,0,1,1.07,0,3.51,3.51,0,0,1,1.17.46c.16.09.26.16.29.23a.2.2,0,0,1,0,.22l-2,3.55a3.9,3.9,0,0,0,1,.41,2.37,2.37,0,0,0,.87,0,1.69,1.69,0,0,0,.7-.3,1.86,1.86,0,0,0,.53-.61,2.19,2.19,0,0,0,.27-.66,2.88,2.88,0,0,0,.06-.55,2.8,2.8,0,0,0,0-.42.41.41,0,0,1,0-.26.21.21,0,0,1,.2-.12l.51-.06a2.07,2.07,0,0,1,.16.65,3.76,3.76,0,0,1,0,.67,3.87,3.87,0,0,1-.17.67,3.41,3.41,0,0,1-.29.61,3,3,0,0,1-.78.91,2.74,2.74,0,0,1-1.06.47,3.3,3.3,0,0,1-1.25,0,4.85,4.85,0,0,1-1.42-.57,4.28,4.28,0,0,1-1-.81,3,3,0,0,1-.61-1,2.69,2.69,0,0,1-.15-1.13A3,3,0,0,1,297.68,142.38Zm.75.4a1.63,1.63,0,0,0-.2,1.32,2.34,2.34,0,0,0,.88,1.15l1.68-2.9a2.33,2.33,0,0,0-.69-.28,1.86,1.86,0,0,0-.66,0,1.58,1.58,0,0,0-.57.24A1.54,1.54,0,0,0,298.43,142.78Z"/><path class="cls-2" d="M307.63,138.71a1.4,1.4,0,0,1-.94.75,1.77,1.77,0,0,1-1.28-.28l-3.48-2-.37.64a.25.25,0,0,1-.14.11.22.22,0,0,1-.2,0l-.4-.23.39-.94-1.64-1.23a.24.24,0,0,1-.09-.15.2.2,0,0,1,0-.18l.27-.47,2,1.13.89-1.53.72.42-.88,1.53,3.42,2a.89.89,0,0,0,.63.15.68.68,0,0,0,.41-.32,1,1,0,0,0,.11-.28,1.07,1.07,0,0,0,0-.25,1,1,0,0,0,0-.18.2.2,0,0,1,0-.12.19.19,0,0,1,.17-.08h.64a2,2,0,0,1,0,.8A2.12,2.12,0,0,1,307.63,138.71Z"/><path class="cls-2" d="M304.34,130.84a3,3,0,0,1,.82-.93,2.47,2.47,0,0,1,1-.46,2.81,2.81,0,0,1,1.22,0,4.85,4.85,0,0,1,2.42,1.4,2.81,2.81,0,0,1,.63,1,2.6,2.6,0,0,1,.13,1.14,3,3,0,0,1-.41,1.18,3,3,0,0,1-.81.94,2.6,2.6,0,0,1-1.05.46,3,3,0,0,1-1.22,0,4.47,4.47,0,0,1-1.32-.52,4.74,4.74,0,0,1-1.11-.88,3.26,3.26,0,0,1-.63-1,2.78,2.78,0,0,1-.12-1.15A3.06,3.06,0,0,1,304.34,130.84Zm5.08,2.94a1.53,1.53,0,0,0,.12-1.51,3.2,3.2,0,0,0-1.35-1.3,3.14,3.14,0,0,0-1.81-.52,1.52,1.52,0,0,0-1.25.85,1.8,1.8,0,0,0-.26.78,1.54,1.54,0,0,0,.14.73,2.28,2.28,0,0,0,.51.69,4.15,4.15,0,0,0,.85.62,4.39,4.39,0,0,0,1,.43,2.08,2.08,0,0,0,.84.09,1.55,1.55,0,0,0,.7-.25A1.64,1.64,0,0,0,309.42,133.78Z"/><path class="cls-2" d="M313.29,128.92a1.45,1.45,0,0,1-.94.75,1.77,1.77,0,0,1-1.28-.28l-3.49-2-.37.65a.26.26,0,0,1-.14.11.27.27,0,0,1-.2,0l-.39-.23.38-.94-1.63-1.23a.25.25,0,0,1-.1-.15.29.29,0,0,1,0-.18l.27-.48,2,1.14.88-1.53.72.42-.88,1.53,3.42,2a.83.83,0,0,0,.63.14.61.61,0,0,0,.42-.32.86.86,0,0,0,.1-.28,2.12,2.12,0,0,0,0-.24c0-.07,0-.13,0-.19a.16.16,0,0,1,0-.12c0-.05.08-.07.17-.07h.63a1.94,1.94,0,0,1,.05.8A2.18,2.18,0,0,1,313.29,128.92Z"/><path class="cls-2" d="M316.8,122.63l-.25.42a.53.53,0,0,1-.17.19.27.27,0,0,1-.25,0l-.59-.2c0,.22.09.43.12.62a2.86,2.86,0,0,1,0,.58,2.3,2.3,0,0,1-.11.57,3,3,0,0,1-.26.59,2.49,2.49,0,0,1-.43.53,1.44,1.44,0,0,1-1.21.35,2,2,0,0,1-.74-.27,1.45,1.45,0,0,1-.55-.55,1.79,1.79,0,0,1-.23-.88,4,4,0,0,1,.18-1.24,7.74,7.74,0,0,1,.74-1.63l-.45-.25a1.84,1.84,0,0,0-1.17-.32,1.05,1.05,0,0,0-.79.59,1.92,1.92,0,0,0-.24.63,2.46,2.46,0,0,0,0,.53c0,.15,0,.29,0,.41a.48.48,0,0,1-.05.3.31.31,0,0,1-.15.13.45.45,0,0,1-.2,0h-.41a3.36,3.36,0,0,1-.13-1.35,3.18,3.18,0,0,1,.42-1.26,2.29,2.29,0,0,1,.62-.71,1.92,1.92,0,0,1,.78-.33,2.25,2.25,0,0,1,.89,0,3.54,3.54,0,0,1,.94.39Zm-2,2.08a2,2,0,0,0,.2-.48,2,2,0,0,0,.08-.48,2.59,2.59,0,0,0,0-.48,4.77,4.77,0,0,0-.13-.51l-1.18-.68a7.27,7.27,0,0,0-.55,1.15,4,4,0,0,0-.2.87,1.24,1.24,0,0,0,.1.61.94.94,0,0,0,.36.38,1.13,1.13,0,0,0,.42.15.79.79,0,0,0,.38,0,.81.81,0,0,0,.31-.18A1.37,1.37,0,0,0,314.78,124.71Z"/><path class="cls-2" d="M309.94,115.38l8.28,4.79-.54.93-8.28-4.78Z"/><path class="cls-2" d="M258.07,184a.27.27,0,0,1-.35.13l-.74-.31a3.4,3.4,0,0,1,.26,1.19,2.26,2.26,0,0,1-.32,1.16,2.15,2.15,0,0,1-.67.73,2.2,2.2,0,0,1-.92.32,3.39,3.39,0,0,1-1.15-.12,5.79,5.79,0,0,1-1.33-.59,4.83,4.83,0,0,1-1.08-.83,3.35,3.35,0,0,1-.68-1,2.58,2.58,0,0,1-.21-1.09,2.3,2.3,0,0,1,.33-1.1,2.15,2.15,0,0,1,.66-.73,2.32,2.32,0,0,1,.86-.34l-3.16-1.82.54-.94,8.28,4.78Zm-1.78,1.4a1.63,1.63,0,0,0,.24-.94,2.88,2.88,0,0,0-.27-1l-2.75-1.59a1.74,1.74,0,0,0-.85.27,1.62,1.62,0,0,0-.54.59,1.54,1.54,0,0,0-.1,1.48,3.2,3.2,0,0,0,1.39,1.33,4.53,4.53,0,0,0,1,.46,2.24,2.24,0,0,0,.81.12,1.31,1.31,0,0,0,.62-.21A1.87,1.87,0,0,0,256.29,185.36Z"/><path class="cls-2" d="M254.74,176.37a2.61,2.61,0,0,1,.68-.79,2.3,2.3,0,0,1,.9-.41,2.7,2.7,0,0,1,1.06,0,3.48,3.48,0,0,1,1.18.46.76.76,0,0,1,.29.23.22.22,0,0,1,0,.22l-2.06,3.55a4.1,4.1,0,0,0,1,.41,2.37,2.37,0,0,0,.87,0,1.69,1.69,0,0,0,.7-.3,2.24,2.24,0,0,0,.79-1.27,2.3,2.3,0,0,0,.07-.55c0-.16,0-.3,0-.41a.43.43,0,0,1,0-.27.21.21,0,0,1,.2-.12l.51,0a1.72,1.72,0,0,1,.15.64,3,3,0,0,1,0,.67,5.06,5.06,0,0,1-.17.67,4.27,4.27,0,0,1-.29.61,2.91,2.91,0,0,1-.79.91,2.63,2.63,0,0,1-1,.47,3.36,3.36,0,0,1-1.26,0,4.8,4.8,0,0,1-1.41-.57,4.09,4.09,0,0,1-1-.81,3.07,3.07,0,0,1-.62-1,2.86,2.86,0,0,1-.14-1.13A3,3,0,0,1,254.74,176.37Zm.75.4a1.63,1.63,0,0,0-.2,1.32,2.34,2.34,0,0,0,.88,1.15l1.68-2.9a2.44,2.44,0,0,0-.69-.28,1.86,1.86,0,0,0-.66,0,1.58,1.58,0,0,0-.57.24A1.54,1.54,0,0,0,255.49,176.77Z"/><path class="cls-2" d="M262.49,176.3,256.8,173l.31-.53a.34.34,0,0,1,.18-.18.55.55,0,0,1,.26,0l.93.45a2.75,2.75,0,0,1-.54-1.21,1.64,1.64,0,0,1,.21-1.14,1.56,1.56,0,0,1,.28-.37,2,2,0,0,1,.34-.25l.68.56a.19.19,0,0,1,.05.24.82.82,0,0,1-.19.2,1.76,1.76,0,0,0-.3.39,1.38,1.38,0,0,0-.17,1,2.71,2.71,0,0,0,.57,1.06l3.62,2.09Z"/><path class="cls-2" d="M264.94,172.05l-5.69-3.28.31-.54a.38.38,0,0,1,.18-.18.46.46,0,0,1,.26,0l.93.45a3.1,3.1,0,0,1-.54-1.22,1.65,1.65,0,0,1,.21-1.14,1.8,1.8,0,0,1,.28-.37,1.51,1.51,0,0,1,.34-.24l.68.55a.18.18,0,0,1,.05.24.82.82,0,0,1-.19.2,1.64,1.64,0,0,0-.3.4,1.4,1.4,0,0,0-.17,1,2.71,2.71,0,0,0,.57,1.06l3.63,2.1Z"/><path class="cls-2" d="M262.17,163.71l3.63,2.09a1.82,1.82,0,0,0,1.16.3,1.13,1.13,0,0,0,.84-.64,1.72,1.72,0,0,0,.24-.89,2.69,2.69,0,0,0-.19-1l-4.2-2.42.54-.94,5.7,3.29-.32.56a.29.29,0,0,1-.36.13l-.65-.28a3.43,3.43,0,0,1,.21,1.16,2.2,2.2,0,0,1-.33,1.14,1.9,1.9,0,0,1-.6.68,1.75,1.75,0,0,1-.76.31,2.17,2.17,0,0,1-.87-.05,3.65,3.65,0,0,1-.95-.4l-3.63-2.09Z"/><path class="cls-2" d="M270.78,161.94l-5.69-3.28.32-.56a.27.27,0,0,1,.35-.13l.63.26a3.2,3.2,0,0,1-.26-1,1.76,1.76,0,0,1,.25-1,1.4,1.4,0,0,1,.82-.69,2.15,2.15,0,0,1,1.15,0,1.94,1.94,0,0,1-.5-1.23,2,2,0,0,1,.06-.6,2.75,2.75,0,0,1,.23-.56,2.4,2.4,0,0,1,.58-.67,1.67,1.67,0,0,1,.74-.31,2,2,0,0,1,.88,0,3.42,3.42,0,0,1,1,.41l3.63,2.09-.54.94-3.63-2.1a1.91,1.91,0,0,0-1.17-.31,1.1,1.1,0,0,0-.81.6,1.23,1.23,0,0,0-.16.49,1.11,1.11,0,0,0,0,.51,1.33,1.33,0,0,0,.28.5,1.86,1.86,0,0,0,.54.43l3.63,2.1-.55.93L269,156.71a2,2,0,0,0-1.17-.33,1,1,0,0,0-.78.56,1.31,1.31,0,0,0-.17.76,2.46,2.46,0,0,0,.23.86l4.24,2.45Z"/><path class="cls-2" d="M275.79,153.26l-8.28-4.78.55-.94,3.41,2a3.31,3.31,0,0,1-.23-1.14,2.28,2.28,0,0,1,.32-1.13,2.15,2.15,0,0,1,.67-.73,2.07,2.07,0,0,1,.92-.32,3.39,3.39,0,0,1,1.15.12,6.18,6.18,0,0,1,1.33.58,4.86,4.86,0,0,1,1.08.84,3.23,3.23,0,0,1,.68,1,2.53,2.53,0,0,1,.2,1.08,2.26,2.26,0,0,1-.33,1.1,2,2,0,0,1-.72.76,2.45,2.45,0,0,1-1,.28l.49.35a.25.25,0,0,1,.07.36ZM272.18,148a1.77,1.77,0,0,0-.24.93,2.83,2.83,0,0,0,.27,1l2.76,1.59a1.64,1.64,0,0,0,1.39-.85,1.54,1.54,0,0,0,.1-1.48,3.27,3.27,0,0,0-1.39-1.34,5.76,5.76,0,0,0-1-.46,2.22,2.22,0,0,0-.81-.11,1.31,1.31,0,0,0-.62.21A1.74,1.74,0,0,0,272.18,148Z"/><path class="cls-2" d="M274.61,142a2.66,2.66,0,0,1,.69-.79,2.32,2.32,0,0,1,.9-.42,2.7,2.7,0,0,1,1.06,0,4.16,4.16,0,0,1,1.18.46.86.86,0,0,1,.29.23.25.25,0,0,1,0,.23l-2.05,3.55a3.77,3.77,0,0,0,1,.4,2.12,2.12,0,0,0,.86,0,1.5,1.5,0,0,0,.71-.3,2.08,2.08,0,0,0,.53-.6,2.43,2.43,0,0,0,.26-.66,4.35,4.35,0,0,0,.07-.55c0-.17,0-.3,0-.42a.49.49,0,0,1,0-.26.25.25,0,0,1,.2-.13l.52,0a2.3,2.3,0,0,1,.15.64,2.59,2.59,0,0,1,0,.68,3.05,3.05,0,0,1-.17.66,3.89,3.89,0,0,1-.28.62,3,3,0,0,1-.79.9,2.5,2.5,0,0,1-1.05.47,3.16,3.16,0,0,1-1.26,0,4.76,4.76,0,0,1-1.41-.56,4,4,0,0,1-1-.82,3,3,0,0,1-.61-1,2.52,2.52,0,0,1-.14-1.13A2.74,2.74,0,0,1,274.61,142Zm.75.4a1.6,1.6,0,0,0-.2,1.31,2.42,2.42,0,0,0,.88,1.16l1.68-2.91a2.86,2.86,0,0,0-.69-.28,1.59,1.59,0,0,0-.65,0,1.2,1.2,0,0,0-.57.24A1.57,1.57,0,0,0,275.36,142.35Z"/><path class="cls-2" d="M283.54,139.84l-5.69-3.29.32-.55a.28.28,0,0,1,.35-.14l.66.29A3.43,3.43,0,0,1,279,135a2.19,2.19,0,0,1,.32-1.14,2.15,2.15,0,0,1,.6-.69,1.79,1.79,0,0,1,.76-.3,2.41,2.41,0,0,1,.88,0,3.65,3.65,0,0,1,1,.4l3.63,2.09-.55.94-3.62-2.1a1.82,1.82,0,0,0-1.16-.3,1.16,1.16,0,0,0-.85.64,1.68,1.68,0,0,0-.23.9,2.81,2.81,0,0,0,.19,1l4.19,2.42Z"/><path class="cls-2" d="M282.39,128.48a3,3,0,0,1,.82-.94,2.74,2.74,0,0,1,1.05-.46,3.15,3.15,0,0,1,1.22,0,4.7,4.7,0,0,1,1.31.52,4.59,4.59,0,0,1,1.11.88,3.15,3.15,0,0,1,.63,1,2.6,2.6,0,0,1,.13,1.14,3.09,3.09,0,0,1-.41,1.18,3,3,0,0,1-.81.93,2.6,2.6,0,0,1-1.06.47,3.09,3.09,0,0,1-1.21,0,4.76,4.76,0,0,1-1.32-.52,4.36,4.36,0,0,1-1.11-.88,3.19,3.19,0,0,1-.63-1,2.59,2.59,0,0,1-.12-1.14A2.86,2.86,0,0,1,282.39,128.48Zm5.08,2.93a1.56,1.56,0,0,0,.12-1.5,3.18,3.18,0,0,0-1.36-1.3,3.21,3.21,0,0,0-1.81-.53,1.54,1.54,0,0,0-1.24.85,1.8,1.8,0,0,0-.26.78,1.46,1.46,0,0,0,.14.74,2.08,2.08,0,0,0,.5.69,4.65,4.65,0,0,0,.86.62,4,4,0,0,0,1,.42,2.3,2.3,0,0,0,.84.1,1.55,1.55,0,0,0,.7-.25A1.86,1.86,0,0,0,287.47,131.41Z"/><path class="cls-2" d="M286.92,120.63a2.46,2.46,0,0,1,.68-.78,2.19,2.19,0,0,1,.9-.42,2.75,2.75,0,0,1,1.07,0,3.74,3.74,0,0,1,1.17.46.76.76,0,0,1,.29.23.2.2,0,0,1,0,.22L289,123.9a3.84,3.84,0,0,0,1,.4,2.37,2.37,0,0,0,.87,0,1.69,1.69,0,0,0,.7-.3,1.86,1.86,0,0,0,.53-.61,2,2,0,0,0,.27-.66,2.8,2.8,0,0,0,.06-.55c0-.16,0-.3,0-.41a.43.43,0,0,1,0-.27.23.23,0,0,1,.2-.12l.51,0a1.72,1.72,0,0,1,.15.64,3,3,0,0,1,0,.67,3.87,3.87,0,0,1-.17.67,3.81,3.81,0,0,1-.29.61,2.8,2.8,0,0,1-.79.91,2.63,2.63,0,0,1-1,.47,3.16,3.16,0,0,1-1.26,0,4.76,4.76,0,0,1-1.41-.56,4.12,4.12,0,0,1-1-.82,2.88,2.88,0,0,1-.61-1,2.69,2.69,0,0,1-.15-1.13A3,3,0,0,1,286.92,120.63Zm.75.41a1.6,1.6,0,0,0-.2,1.31,2.34,2.34,0,0,0,.88,1.15l1.68-2.9a2.78,2.78,0,0,0-.69-.28,1.64,1.64,0,0,0-.66,0,1.4,1.4,0,0,0-.57.23A1.48,1.48,0,0,0,287.67,121Z"/><path class="cls-2" d="M291.68,114.76a.24.24,0,0,1,0,.27.38.38,0,0,1-.16.14l-.28.16a2.5,2.5,0,0,0-.34.27,1.6,1.6,0,0,0-.34.44,1.46,1.46,0,0,0-.18.46,1,1,0,0,0,0,.43.83.83,0,0,0,.14.35.87.87,0,0,0,.28.26.59.59,0,0,0,.44.09,1.14,1.14,0,0,0,.43-.16,2.26,2.26,0,0,0,.44-.34l.47-.41.5-.39a2.31,2.31,0,0,1,.54-.28,1.45,1.45,0,0,1,.59-.07,1.52,1.52,0,0,1,.66.22,2.19,2.19,0,0,1,.65.55,1.83,1.83,0,0,1,.35.73,2,2,0,0,1,0,.85,2.87,2.87,0,0,1-.36,1,3,3,0,0,1-.77.9,3.35,3.35,0,0,1-.94.48l-.26-.44a.41.41,0,0,1-.05-.17.24.24,0,0,1,.05-.17.34.34,0,0,1,.19-.16l.32-.15a3.48,3.48,0,0,0,.39-.27,1.7,1.7,0,0,0,.38-.49,1.3,1.3,0,0,0,.2-.52,1.18,1.18,0,0,0,0-.46,1.21,1.21,0,0,0-.18-.38,1.09,1.09,0,0,0-.33-.27.72.72,0,0,0-.46-.11,1.39,1.39,0,0,0-.44.16,2.66,2.66,0,0,0-.45.34l-.47.41a4.78,4.78,0,0,1-.5.39,1.74,1.74,0,0,1-.54.28,1.55,1.55,0,0,1-.61.07,1.68,1.68,0,0,1-.69-.24,2,2,0,0,1-.56-.49,1.83,1.83,0,0,1-.31-.68,1.94,1.94,0,0,1,0-.8,2.72,2.72,0,0,1,.33-.88,2.64,2.64,0,0,1,.72-.85,2.48,2.48,0,0,1,.91-.44Z"/><path class="cls-2" d="M299.24,117.1l-7.62-4.4.32-.56a.29.29,0,0,1,.36-.13l.72.31a3.26,3.26,0,0,1-.27-1.2,2.25,2.25,0,0,1,.32-1.17,2.21,2.21,0,0,1,.67-.72,2.07,2.07,0,0,1,.92-.32,3.39,3.39,0,0,1,1.15.12,5.85,5.85,0,0,1,1.34.59,4.83,4.83,0,0,1,1.08.83,3.44,3.44,0,0,1,.67,1,2.4,2.4,0,0,1,.21,1.08,2.26,2.26,0,0,1-.33,1.1,2.1,2.1,0,0,1-.66.74,2.25,2.25,0,0,1-.86.34l2.52,1.45Zm-5.54-6.37a1.63,1.63,0,0,0-.24.94,2.88,2.88,0,0,0,.27,1l2.75,1.59a1.74,1.74,0,0,0,.85-.27,1.6,1.6,0,0,0,.55-.6,1.52,1.52,0,0,0,.1-1.47,3.26,3.26,0,0,0-1.39-1.33,4.59,4.59,0,0,0-1-.46,2.24,2.24,0,0,0-.81-.12,1.19,1.19,0,0,0-.62.22A1.46,1.46,0,0,0,293.7,110.73Z"/><path class="cls-2" d="M296.11,104.72a2.5,2.5,0,0,1,.68-.79,2.3,2.3,0,0,1,.9-.41,2.51,2.51,0,0,1,1.06,0,4,4,0,0,1,1.18.46.76.76,0,0,1,.29.23.24.24,0,0,1,0,.23L298.14,108a4,4,0,0,0,1,.4,2.17,2.17,0,0,0,.87,0,1.47,1.47,0,0,0,.7-.3,1.94,1.94,0,0,0,.53-.6,2.14,2.14,0,0,0,.26-.66,2.36,2.36,0,0,0,.07-.55c0-.16,0-.3,0-.42a.4.4,0,0,1,0-.26.24.24,0,0,1,.2-.13l.51,0a1.76,1.76,0,0,1,.15.64,3.1,3.1,0,0,1,0,.68,4.91,4.91,0,0,1-.17.66,3.92,3.92,0,0,1-.29.62,2.76,2.76,0,0,1-.79.9,2.5,2.5,0,0,1-1,.47,3.16,3.16,0,0,1-1.26,0,4.76,4.76,0,0,1-1.41-.56,4.09,4.09,0,0,1-1-.81,3.21,3.21,0,0,1-.62-1,2.84,2.84,0,0,1-.14-1.13A2.9,2.9,0,0,1,296.11,104.72Zm.75.4a1.57,1.57,0,0,0-.2,1.31,2.36,2.36,0,0,0,.88,1.16l1.68-2.91a3.23,3.23,0,0,0-.69-.28,1.64,1.64,0,0,0-.66,0,1.25,1.25,0,0,0-.57.24A1.54,1.54,0,0,0,296.86,105.12Z"/><path class="cls-2" d="M301.28,98.3a.48.48,0,0,1,.05.14.27.27,0,0,1,0,.14.3.3,0,0,1-.17.13l-.29.15a1.77,1.77,0,0,0-.35.25,1.6,1.6,0,0,0-.36.46,1.83,1.83,0,0,0-.25.78,1.64,1.64,0,0,0,.14.75,2.45,2.45,0,0,0,.5.7,4.36,4.36,0,0,0,.84.62,3.86,3.86,0,0,0,1,.42,2.36,2.36,0,0,0,.86.07,1.5,1.5,0,0,0,.69-.24,1.69,1.69,0,0,0,.52-.57,1.83,1.83,0,0,0,.24-.61,2.71,2.71,0,0,0,0-.48q0-.21-.06-.36a.33.33,0,0,1,0-.24.21.21,0,0,1,.19-.12l.52-.05a2.34,2.34,0,0,1,.17,1.25,3.48,3.48,0,0,1-.43,1.23,2.59,2.59,0,0,1-.73.81,2.54,2.54,0,0,1-1,.42,3.31,3.31,0,0,1-1.21,0,4.64,4.64,0,0,1-1.35-.54,4.86,4.86,0,0,1-1.08-.84,3.25,3.25,0,0,1-.65-1,2.57,2.57,0,0,1-.15-1.14,2.94,2.94,0,0,1,.4-1.2,2.87,2.87,0,0,1,.76-.88,2.76,2.76,0,0,1,1-.44Z"/><path class="cls-2" d="M300,94.15a1.21,1.21,0,0,1,.24.21,1,1,0,0,1,.14.28.77.77,0,0,1,0,.3.59.59,0,0,1-.1.29.74.74,0,0,1-.2.23,1.18,1.18,0,0,1-.28.12.76.76,0,0,1-.3,0,.87.87,0,0,1-.31-.1,1,1,0,0,1-.25-.22.87.87,0,0,1-.14-.27,1,1,0,0,1,0-.3.63.63,0,0,1,.1-.29.74.74,0,0,1,.2-.23.77.77,0,0,1,.28-.12,1.08,1.08,0,0,1,.31,0A.94.94,0,0,1,300,94.15Zm1.66,1.24,5.7,3.29-.55.94-5.69-3.29Z"/><path class="cls-2" d="M308.38,96.81,303.54,94l-.41.55a.54.54,0,0,1-.19.13.25.25,0,0,1-.22,0l-.41-.23.49-.85-.31-.18a3.25,3.25,0,0,1-.87-.71,2.18,2.18,0,0,1-.49-.89,2.4,2.4,0,0,1-.05-1,3.48,3.48,0,0,1,.44-1.16,3.42,3.42,0,0,1,.26-.4,2.23,2.23,0,0,1,.3-.31l.5.34a.12.12,0,0,1,.06.11.68.68,0,0,1-.07.17l-.07.12-.08.14a2.19,2.19,0,0,0-.38,1.59,2,2,0,0,0,1,1.15l.29.16,1.86-3.23,5.58,3.23-.54.94-4.86-2.81-1.3,2.26,4.86,2.8Z"/><path class="cls-2" d="M309.15,84.67a1.21,1.21,0,0,1,.05.14.27.27,0,0,1,0,.14.29.29,0,0,1-.17.13l-.29.15a2.3,2.3,0,0,0-.35.25,1.75,1.75,0,0,0-.36.46,1.83,1.83,0,0,0-.25.78,1.5,1.5,0,0,0,.14.75,2.45,2.45,0,0,0,.5.7,4.36,4.36,0,0,0,.84.62,3.86,3.86,0,0,0,1,.42,2.59,2.59,0,0,0,.85.08,1.63,1.63,0,0,0,.7-.25,1.75,1.75,0,0,0,.52-.56,2,2,0,0,0,.24-.62,2.71,2.71,0,0,0,0-.48c0-.14,0-.26-.06-.35a.37.37,0,0,1,0-.24.24.24,0,0,1,.2-.13l.52,0a2.34,2.34,0,0,1,.16,1.25,3.46,3.46,0,0,1-.42,1.23,2.59,2.59,0,0,1-.73.81,2.52,2.52,0,0,1-1,.42,3.06,3.06,0,0,1-1.2,0,4.54,4.54,0,0,1-1.35-.54,4.58,4.58,0,0,1-1.08-.84,3.32,3.32,0,0,1-.65-1,2.47,2.47,0,0,1-.15-1.14,2.79,2.79,0,0,1,.4-1.21,2.87,2.87,0,0,1,.76-.88,2.76,2.76,0,0,1,1-.44Z"/><path class="cls-2" d="M316.84,82.17l-.24.42a.59.59,0,0,1-.18.2.35.35,0,0,1-.25,0l-.59-.2c.05.22.09.42.12.62a2.76,2.76,0,0,1,0,.57,2.3,2.3,0,0,1-.11.57,2.73,2.73,0,0,1-.26.59,2,2,0,0,1-.43.53,1.49,1.49,0,0,1-1.21.36,2,2,0,0,1-.74-.27,1.53,1.53,0,0,1-.55-.55,1.83,1.83,0,0,1-.23-.89,4.07,4.07,0,0,1,.19-1.24,6.94,6.94,0,0,1,.73-1.62l-.45-.26a1.9,1.9,0,0,0-1.16-.32,1.07,1.07,0,0,0-.8.59,1.92,1.92,0,0,0-.24.63,2.46,2.46,0,0,0,0,.53c0,.16,0,.29,0,.41a.48.48,0,0,1-.05.3.33.33,0,0,1-.15.14.44.44,0,0,1-.2,0h-.41a3.34,3.34,0,0,1-.13-1.35,3.05,3.05,0,0,1,.43-1.26,2.25,2.25,0,0,1,.61-.71,1.92,1.92,0,0,1,.78-.33,2.09,2.09,0,0,1,.89,0,3.5,3.5,0,0,1,.94.38Zm-2,2.09a2.89,2.89,0,0,0,.21-.49,2.54,2.54,0,0,0,.07-.47,2.77,2.77,0,0,0,0-.49,3.83,3.83,0,0,0-.13-.51l-1.18-.68a7.32,7.32,0,0,0-.55,1.16,3.27,3.27,0,0,0-.19.87,1.12,1.12,0,0,0,.09.6.88.88,0,0,0,.36.38.95.95,0,0,0,.8.13.84.84,0,0,0,.31-.19A1.54,1.54,0,0,0,314.82,84.26Z"/><path class="cls-2" d="M319.83,77a.29.29,0,0,1-.36.14l-.74-.32A3.24,3.24,0,0,1,319,78a2.18,2.18,0,0,1-.31,1.16,2.12,2.12,0,0,1-.67.72,2,2,0,0,1-.92.32,3,3,0,0,1-1.15-.12,5.78,5.78,0,0,1-1.34-.58,4.58,4.58,0,0,1-1.08-.84,3.41,3.41,0,0,1-.68-1,2.39,2.39,0,0,1-.2-1.08,2.3,2.3,0,0,1,.33-1.1,2.1,2.1,0,0,1,.66-.74,2.41,2.41,0,0,1,.86-.33l-3.16-1.83.54-.94,8.28,4.79Zm-1.78,1.4a1.69,1.69,0,0,0,.23-.93,2.7,2.7,0,0,0-.26-1l-2.76-1.59a1.67,1.67,0,0,0-.84.27,1.87,1.87,0,0,0-.55.6,1.49,1.49,0,0,0-.09,1.47,3.18,3.18,0,0,0,1.38,1.34,5.38,5.38,0,0,0,1,.46,2.19,2.19,0,0,0,.8.11,1.07,1.07,0,0,0,.62-.21A1.53,1.53,0,0,0,318.05,78.39Z"/><path class="cls-2" d="M316.52,69.36a3.14,3.14,0,0,1,.82-.94,2.6,2.6,0,0,1,1.05-.46,3.15,3.15,0,0,1,1.22,0,4.59,4.59,0,0,1,1.31.52,4.85,4.85,0,0,1,1.12.88,3.15,3.15,0,0,1,.63,1,2.75,2.75,0,0,1,.12,1.14,3.22,3.22,0,0,1-1.22,2.11,2.62,2.62,0,0,1-1.05.47,3.35,3.35,0,0,1-1.22,0A4.51,4.51,0,0,1,318,73.6a4.26,4.26,0,0,1-1.1-.88,2.77,2.77,0,0,1-.63-1,2.6,2.6,0,0,1-.13-1.14A3,3,0,0,1,316.52,69.36Zm5.08,2.93a1.51,1.51,0,0,0,.12-1.5,3.2,3.2,0,0,0-1.35-1.3,3.16,3.16,0,0,0-1.81-.53,1.54,1.54,0,0,0-1.25.85,1.8,1.8,0,0,0-.26.78,1.58,1.58,0,0,0,.14.74,2.28,2.28,0,0,0,.51.69,4.56,4.56,0,0,0,.85.62,4.84,4.84,0,0,0,1,.42,2.32,2.32,0,0,0,.84.1,1.6,1.6,0,0,0,.71-.26A1.71,1.71,0,0,0,321.6,72.29Z"/><path class="cls-2" d="M235,184.39a.27.27,0,0,1-.35.14l-.74-.32a3.45,3.45,0,0,1,.26,1.19,2.2,2.2,0,0,1-.32,1.17,2,2,0,0,1-.67.72,1.91,1.91,0,0,1-.92.32,2.92,2.92,0,0,1-1.14-.12,6,6,0,0,1-1.34-.58,4.58,4.58,0,0,1-1.08-.84,3.23,3.23,0,0,1-.68-1,2.54,2.54,0,0,1-.21-1.08,2.43,2.43,0,0,1,.34-1.1,1.92,1.92,0,0,1,.66-.74,2.36,2.36,0,0,1,.85-.33L226.5,180l.55-.94,8.28,4.78Zm-1.78,1.4a1.62,1.62,0,0,0,.24-.93,2.54,2.54,0,0,0-.27-1l-2.75-1.59a1.62,1.62,0,0,0-1.39.87,1.52,1.52,0,0,0-.1,1.47,3.27,3.27,0,0,0,1.39,1.34,5.1,5.1,0,0,0,1,.46,2.14,2.14,0,0,0,.8.11,1.27,1.27,0,0,0,.62-.21A1.41,1.41,0,0,0,233.22,185.79Z"/><path class="cls-2" d="M231.67,176.81a2.63,2.63,0,0,1,.68-.79,2.39,2.39,0,0,1,.9-.42,2.75,2.75,0,0,1,1.07,0,4.16,4.16,0,0,1,1.18.46.79.79,0,0,1,.28.23.22.22,0,0,1,0,.23l-2,3.55a3.77,3.77,0,0,0,1,.4,2.31,2.31,0,0,0,.86,0,1.5,1.5,0,0,0,.71-.3,1.91,1.91,0,0,0,.52-.6,2.19,2.19,0,0,0,.27-.66,3,3,0,0,0,.06-.55,2.76,2.76,0,0,0,0-.42.47.47,0,0,1,0-.26.24.24,0,0,1,.2-.13l.52-.05a2.3,2.3,0,0,1,.15.64,3.1,3.1,0,0,1,0,.68,4,4,0,0,1-.17.66,3.89,3.89,0,0,1-.28.62,3,3,0,0,1-.79.9,2.5,2.5,0,0,1-1.05.47,3.16,3.16,0,0,1-1.26,0,4.92,4.92,0,0,1-1.42-.56,4.08,4.08,0,0,1-1-.82,3,3,0,0,1-.61-1,2.52,2.52,0,0,1-.14-1.13A2.74,2.74,0,0,1,231.67,176.81Zm.75.4a1.6,1.6,0,0,0-.2,1.31,2.36,2.36,0,0,0,.88,1.16l1.68-2.91a2.86,2.86,0,0,0-.69-.28,1.6,1.6,0,0,0-.65,0,1.3,1.3,0,0,0-.57.23A1.59,1.59,0,0,0,232.42,177.21Z"/><path class="cls-2" d="M239.43,176.74l-5.7-3.29.31-.54c.06-.1.12-.16.18-.17a.44.44,0,0,1,.26,0l.93.45a3,3,0,0,1-.54-1.22,1.62,1.62,0,0,1,.21-1.13,1.4,1.4,0,0,1,.29-.37,1.42,1.42,0,0,1,.34-.25l.67.55a.19.19,0,0,1,.05.25,1,1,0,0,1-.18.19,1.38,1.38,0,0,0-.3.4,1.31,1.31,0,0,0-.17,1,2.55,2.55,0,0,0,.56,1.06l3.63,2.1Z"/><path class="cls-2" d="M241.88,172.49l-5.7-3.29.31-.54c.06-.1.12-.16.19-.17a.44.44,0,0,1,.26,0l.92.45a3.06,3.06,0,0,1-.54-1.21,1.64,1.64,0,0,1,.21-1.14,1.59,1.59,0,0,1,.29-.37,1.66,1.66,0,0,1,.34-.25l.68.56a.17.17,0,0,1,0,.24,1.31,1.31,0,0,1-.18.2,1.32,1.32,0,0,0-.3.39,1.33,1.33,0,0,0-.17,1,2.61,2.61,0,0,0,.56,1.06l3.63,2.09Z"/><path class="cls-2" d="M239.1,164.14l3.64,2.1a1.81,1.81,0,0,0,1.16.3,1.19,1.19,0,0,0,.84-.64,1.76,1.76,0,0,0,.24-.9,2.87,2.87,0,0,0-.2-1l-4.19-2.43.54-.93,5.69,3.28-.32.56a.28.28,0,0,1-.35.14l-.66-.28a3.39,3.39,0,0,1,.21,1.16,2.4,2.4,0,0,1-.92,1.82,1.94,1.94,0,0,1-.76.31,2.22,2.22,0,0,1-.88-.06,4.15,4.15,0,0,1-.95-.39l-3.63-2.1Z"/><path class="cls-2" d="M247.71,162.38,242,159.09l.32-.56a.3.3,0,0,1,.36-.13l.62.27a3,3,0,0,1-.25-1,1.62,1.62,0,0,1,.24-1,1.39,1.39,0,0,1,.83-.69,2.1,2.1,0,0,1,1.14,0,2.08,2.08,0,0,1-.36-.6,2,2,0,0,1-.14-.62,1.79,1.79,0,0,1,.07-.61,2.21,2.21,0,0,1,.23-.55,2,2,0,0,1,.57-.67,1.73,1.73,0,0,1,.75-.32,2.22,2.22,0,0,1,.88,0,4,4,0,0,1,1,.41l3.62,2.09-.54.94L247.72,154a1.81,1.81,0,0,0-1.17-.31,1.1,1.1,0,0,0-.8.59,1.28,1.28,0,0,0-.13,1,1.44,1.44,0,0,0,.28.49,2.2,2.2,0,0,0,.54.44l3.63,2.09-.54.94-3.63-2.1a2,2,0,0,0-1.17-.33,1,1,0,0,0-.77.56,1.34,1.34,0,0,0-.18.76,2.63,2.63,0,0,0,.23.86l4.25,2.45Z"/><path class="cls-2" d="M252.73,153.69l-8.28-4.78L245,148l3.41,2a3.09,3.09,0,0,1-.22-1.15,2.15,2.15,0,0,1,.32-1.12,2,2,0,0,1,.66-.73,2,2,0,0,1,.93-.32,2.9,2.9,0,0,1,1.14.12,5.9,5.9,0,0,1,2.42,1.41,3.44,3.44,0,0,1,.67,1,2.4,2.4,0,0,1,.2,1.09,2.3,2.3,0,0,1-.33,1.1,1.86,1.86,0,0,1-.72.75,2.45,2.45,0,0,1-1,.29l.49.34a.27.27,0,0,1,.08.37Zm-3.61-5.26a1.63,1.63,0,0,0-.24.94,2.68,2.68,0,0,0,.27,1L251.9,152a1.74,1.74,0,0,0,.85-.26,1.87,1.87,0,0,0,.55-.6,1.51,1.51,0,0,0,.09-1.48,3.17,3.17,0,0,0-1.38-1.33,4.8,4.8,0,0,0-1-.46,2.27,2.27,0,0,0-.81-.11,1.07,1.07,0,0,0-.62.21A1.46,1.46,0,0,0,249.12,148.43Z"/><path class="cls-2" d="M251.55,142.38a2.61,2.61,0,0,1,.68-.79,2.3,2.3,0,0,1,.9-.41,2.7,2.7,0,0,1,1.06,0,3.56,3.56,0,0,1,1.18.46c.16.09.26.16.29.23a.21.21,0,0,1,0,.22l-2,3.55a4.1,4.1,0,0,0,1,.41,2.37,2.37,0,0,0,.87,0,1.69,1.69,0,0,0,.7-.3,2,2,0,0,0,.53-.61,2.14,2.14,0,0,0,.26-.66A3,3,0,0,0,257,144c0-.16,0-.3,0-.42a.41.41,0,0,1,0-.26.21.21,0,0,1,.19-.12l.52-.06a1.81,1.81,0,0,1,.15.65,3,3,0,0,1,0,.67,5.06,5.06,0,0,1-.17.67,4.27,4.27,0,0,1-.29.61,3,3,0,0,1-.79.91,2.63,2.63,0,0,1-1,.47,3.36,3.36,0,0,1-1.26,0,4.8,4.8,0,0,1-1.41-.57,4.09,4.09,0,0,1-1-.81,3.07,3.07,0,0,1-.62-1,2.69,2.69,0,0,1-.14-1.13A2.84,2.84,0,0,1,251.55,142.38Zm.75.4a1.59,1.59,0,0,0-.2,1.32,2.34,2.34,0,0,0,.88,1.15l1.68-2.9a2.44,2.44,0,0,0-.69-.28,1.86,1.86,0,0,0-.66,0,1.45,1.45,0,0,0-.57.24A1.54,1.54,0,0,0,252.3,142.78Z"/><path class="cls-2" d="M262.4,141.39l-7.62-4.4.32-.56a.29.29,0,0,1,.36-.13l.72.31a3.24,3.24,0,0,1-.26-1.2,2.24,2.24,0,0,1,.31-1.17,2.21,2.21,0,0,1,.67-.72,2.07,2.07,0,0,1,.92-.32,3.39,3.39,0,0,1,1.15.12,6,6,0,0,1,1.34.58,5.17,5.17,0,0,1,1.08.84,3.44,3.44,0,0,1,.68,1,2.43,2.43,0,0,1,.2,1.09,2.3,2.3,0,0,1-.33,1.1,2.1,2.1,0,0,1-.66.74,2.27,2.27,0,0,1-.85.34l2.51,1.45ZM256.86,135a1.62,1.62,0,0,0-.24.93,2.93,2.93,0,0,0,.27,1l2.75,1.59a1.71,1.71,0,0,0,.85-.27,1.67,1.67,0,0,0,.55-.6,1.52,1.52,0,0,0,.1-1.47,3.27,3.27,0,0,0-1.39-1.34,5,5,0,0,0-1-.45,2.24,2.24,0,0,0-.81-.12,1.27,1.27,0,0,0-.62.21A1.59,1.59,0,0,0,256.86,135Z"/><path class="cls-2" d="M266.1,130.54l-.24.41a.58.58,0,0,1-.17.2.29.29,0,0,1-.26,0l-.59-.2c.05.22.1.42.13.62a2.82,2.82,0,0,1,0,.58,2.63,2.63,0,0,1-.1.56,2.79,2.79,0,0,1-.27.59,1.89,1.89,0,0,1-.43.53,1.37,1.37,0,0,1-.55.31,1.59,1.59,0,0,1-.66.05,2,2,0,0,1-.74-.27,1.61,1.61,0,0,1-.55-.55,1.82,1.82,0,0,1-.23-.88,4.09,4.09,0,0,1,.19-1.25,7.38,7.38,0,0,1,.73-1.62l-.45-.26a1.88,1.88,0,0,0-1.16-.32,1.12,1.12,0,0,0-.8.59,1.92,1.92,0,0,0-.24.63,2.49,2.49,0,0,0,0,.53c0,.16,0,.3,0,.42a.4.4,0,0,1-.05.29.26.26,0,0,1-.15.14.43.43,0,0,1-.19,0l-.42,0a3.19,3.19,0,0,1,.3-2.61,2.13,2.13,0,0,1,.62-.7,1.72,1.72,0,0,1,.77-.34,2.25,2.25,0,0,1,.89,0,3.56,3.56,0,0,1,.95.38Zm-2,2.08a2.26,2.26,0,0,0,.21-.49,1.84,1.84,0,0,0,.07-.47,2.77,2.77,0,0,0,0-.49,3.83,3.83,0,0,0-.13-.51L263,130a6.06,6.06,0,0,0-.54,1.15,3,3,0,0,0-.2.87,1.12,1.12,0,0,0,.09.6.88.88,0,0,0,.36.38,1.14,1.14,0,0,0,.43.16.76.76,0,0,0,.37,0,.77.77,0,0,0,.31-.19A1.1,1.1,0,0,0,264.08,132.62Z"/><path class="cls-2" d="M266.92,129.11l-5.69-3.28.31-.54a.34.34,0,0,1,.18-.18.47.47,0,0,1,.26,0l.92.45a3,3,0,0,1-.54-1.22,1.72,1.72,0,0,1,.22-1.14,1.5,1.5,0,0,1,.28-.37,1.61,1.61,0,0,1,.34-.24l.68.55a.19.19,0,0,1,0,.25.94.94,0,0,1-.18.19,1.64,1.64,0,0,0-.3.4,1.35,1.35,0,0,0-.17,1,2.67,2.67,0,0,0,.56,1.06l3.63,2.1Z"/><path class="cls-2" d="M266.79,118.52a.48.48,0,0,1,0,.14.2.2,0,0,1,0,.14.3.3,0,0,1-.17.13l-.29.15a2.3,2.3,0,0,0-.35.25,1.6,1.6,0,0,0-.36.46,1.83,1.83,0,0,0-.25.78,1.64,1.64,0,0,0,.14.75,2.31,2.31,0,0,0,.51.7,4,4,0,0,0,.83.62,3.86,3.86,0,0,0,1,.42,2.36,2.36,0,0,0,.86.07,1.46,1.46,0,0,0,.69-.24,1.69,1.69,0,0,0,.52-.57,1.83,1.83,0,0,0,.24-.61,2,2,0,0,0,0-.48,2.28,2.28,0,0,0-.06-.35.35.35,0,0,1,0-.25.21.21,0,0,1,.19-.12l.52-.05a2.34,2.34,0,0,1,.17,1.25,3.48,3.48,0,0,1-.43,1.23,2.59,2.59,0,0,1-.73.81,2.54,2.54,0,0,1-1,.42,3.31,3.31,0,0,1-1.21,0,4.64,4.64,0,0,1-1.35-.54,4.86,4.86,0,0,1-1.08-.84,3.25,3.25,0,0,1-.65-1,2.57,2.57,0,0,1-.15-1.14,2.94,2.94,0,0,1,.4-1.2,2.77,2.77,0,0,1,.77-.88,2.61,2.61,0,0,1,1-.44Z"/><path class="cls-2" d="M265.46,114.37a1.21,1.21,0,0,1,.24.21,1,1,0,0,1,.14.28.77.77,0,0,1,0,.3.59.59,0,0,1-.1.29.74.74,0,0,1-.2.23,1,1,0,0,1-.28.12.76.76,0,0,1-.3,0,.87.87,0,0,1-.31-.1.84.84,0,0,1-.24-.22.72.72,0,0,1-.15-.27.77.77,0,0,1,0-.3.52.52,0,0,1,.09-.29.74.74,0,0,1,.2-.23.77.77,0,0,1,.28-.12,1.13,1.13,0,0,1,.32,0A1,1,0,0,1,265.46,114.37Zm1.66,1.24,5.7,3.29-.55.94-5.69-3.29Z"/><path class="cls-2" d="M276,113.32l-.24.42a.59.59,0,0,1-.18.2.31.31,0,0,1-.25,0l-.59-.2c.05.22.09.42.12.62a2.76,2.76,0,0,1,0,.57,2.3,2.3,0,0,1-.11.57,2.73,2.73,0,0,1-.26.59,2,2,0,0,1-.43.53,1.49,1.49,0,0,1-1.21.36,2,2,0,0,1-.74-.27,1.53,1.53,0,0,1-.55-.55,1.83,1.83,0,0,1-.23-.89,4.07,4.07,0,0,1,.19-1.24,6.94,6.94,0,0,1,.73-1.62l-.45-.26a1.9,1.9,0,0,0-1.16-.32,1.07,1.07,0,0,0-.8.59,1.92,1.92,0,0,0-.24.63,2.46,2.46,0,0,0,0,.53c0,.16,0,.3,0,.41a.48.48,0,0,1-.05.3.33.33,0,0,1-.15.14.44.44,0,0,1-.2,0h-.41a3.34,3.34,0,0,1-.13-1.35,3.05,3.05,0,0,1,.43-1.26,2.25,2.25,0,0,1,.61-.71,1.92,1.92,0,0,1,.78-.33,2.09,2.09,0,0,1,.89,0,3.5,3.5,0,0,1,.94.38Zm-2,2.09a2.89,2.89,0,0,0,.21-.49,2.54,2.54,0,0,0,.07-.47,2.77,2.77,0,0,0,0-.49,3.83,3.83,0,0,0-.13-.51l-1.18-.68a7.32,7.32,0,0,0-.55,1.16,3.27,3.27,0,0,0-.19.87,1.12,1.12,0,0,0,.09.6.88.88,0,0,0,.36.38.95.95,0,0,0,.8.13.84.84,0,0,0,.31-.19A1.54,1.54,0,0,0,274,115.41Z"/><path class="cls-2" d="M269.18,106.08l8.28,4.78-.54.94L268.64,107Z"/><path class="cls-2" d="M212.94,184a.29.29,0,0,1-.36.13l-.74-.31a3.19,3.19,0,0,1,.26,1.19,2.3,2.3,0,0,1-1,1.89,2.2,2.2,0,0,1-.92.32,3.39,3.39,0,0,1-1.15-.12,5.61,5.61,0,0,1-1.33-.59,5.13,5.13,0,0,1-1.09-.83,3.31,3.31,0,0,1-.67-1,2.58,2.58,0,0,1-.21-1.09,2.3,2.3,0,0,1,.33-1.1,2.15,2.15,0,0,1,.66-.73,2.25,2.25,0,0,1,.86-.34l-3.16-1.82.54-.94,8.28,4.78Zm-1.78,1.4a1.81,1.81,0,0,0,.24-.94,2.88,2.88,0,0,0-.27-1l-2.76-1.59a1.7,1.7,0,0,0-.84.27,1.74,1.74,0,0,0-.55.59,1.54,1.54,0,0,0-.09,1.48,3.15,3.15,0,0,0,1.39,1.33,4.53,4.53,0,0,0,1,.46,2.22,2.22,0,0,0,.8.12,1.24,1.24,0,0,0,.62-.21A1.75,1.75,0,0,0,211.16,185.36Z"/><path class="cls-2" d="M216.43,177.9l-.24.42a.58.58,0,0,1-.17.2.31.31,0,0,1-.25,0l-.59-.19c0,.21.09.42.12.62a2.73,2.73,0,0,1,0,.57,2.3,2.3,0,0,1-.11.57,3.33,3.33,0,0,1-.26.59,2.27,2.27,0,0,1-.43.53,1.59,1.59,0,0,1-.55.31,1.45,1.45,0,0,1-.66,0,2.19,2.19,0,0,1-.74-.26,1.55,1.55,0,0,1-.55-.56,1.79,1.79,0,0,1-.23-.88,4,4,0,0,1,.18-1.24,7.88,7.88,0,0,1,.73-1.62l-.44-.26a1.86,1.86,0,0,0-1.17-.32,1.08,1.08,0,0,0-.79.59,1.55,1.55,0,0,0-.24.63,2.46,2.46,0,0,0,0,.53,4.07,4.07,0,0,0,0,.41.48.48,0,0,1-.05.3.4.4,0,0,1-.15.14.44.44,0,0,1-.2,0h-.42a3.73,3.73,0,0,1-.13-1.35,3.2,3.2,0,0,1,.43-1.26,2.29,2.29,0,0,1,.62-.71,1.92,1.92,0,0,1,.78-.33,2.19,2.19,0,0,1,.88,0,3.81,3.81,0,0,1,.95.39Zm-2,2.08a2,2,0,0,0,.2-.48,2,2,0,0,0,.08-.47,2.7,2.7,0,0,0,0-.49,3.23,3.23,0,0,0-.14-.51l-1.17-.68a7.27,7.27,0,0,0-.55,1.15,4,4,0,0,0-.2.87,1.24,1.24,0,0,0,.1.61.92.92,0,0,0,.35.38,1.17,1.17,0,0,0,.43.15,1,1,0,0,0,.38,0,.84.84,0,0,0,.31-.19A1.69,1.69,0,0,0,214.42,180Z"/><path class="cls-2" d="M217.26,176.48l-5.7-3.29.32-.56a.3.3,0,0,1,.36-.13l.66.28a3.66,3.66,0,0,1-.22-1.16,2.35,2.35,0,0,1,.32-1.14,2.22,2.22,0,0,1,.6-.68,1.83,1.83,0,0,1,.77-.3,2.17,2.17,0,0,1,.87.05,3.81,3.81,0,0,1,.95.39l3.63,2.1-.54.94-3.63-2.1a1.82,1.82,0,0,0-1.16-.3,1.18,1.18,0,0,0-.85.64,1.77,1.77,0,0,0-.23.9,3,3,0,0,0,.19,1l4.2,2.42Zm-5.84-7.09a.42.42,0,0,0,.05-.36.67.67,0,0,0-.31-.32l.33-.57a1.8,1.8,0,0,1,.45.35,1.45,1.45,0,0,1,.27.41,1.11,1.11,0,0,1,.08.44,1,1,0,0,1-.14.43.89.89,0,0,1-.28.3l-.35.2-.33.16a.58.58,0,0,0-.23.2c-.14.26-.05.48.27.68l-.34.58a1.8,1.8,0,0,1-.45-.35,1.45,1.45,0,0,1-.27-.41,1,1,0,0,1-.07-.45,1,1,0,0,1,.13-.43.89.89,0,0,1,.28-.3l.35-.2.33-.16A.51.51,0,0,0,211.42,169.39Z"/><path class="cls-2" d="M216.1,165.12a3.14,3.14,0,0,1,.82-.94,2.74,2.74,0,0,1,1.05-.46,3.15,3.15,0,0,1,1.22,0,4.59,4.59,0,0,1,1.31.52,4.85,4.85,0,0,1,1.12.88,3.15,3.15,0,0,1,.63,1,2.75,2.75,0,0,1,.12,1.14,3.22,3.22,0,0,1-1.22,2.11,2.62,2.62,0,0,1-1.05.47,3.35,3.35,0,0,1-1.22,0,4.51,4.51,0,0,1-1.32-.53,4.45,4.45,0,0,1-1.1-.87,2.89,2.89,0,0,1-.63-1.05,2.6,2.6,0,0,1-.13-1.14A3,3,0,0,1,216.1,165.12Zm5.08,2.93a1.51,1.51,0,0,0,.12-1.5,3.2,3.2,0,0,0-1.35-1.3,3.16,3.16,0,0,0-1.81-.53,1.54,1.54,0,0,0-1.25.85,1.8,1.8,0,0,0-.26.78,1.58,1.58,0,0,0,.14.74,2.28,2.28,0,0,0,.51.69,4.56,4.56,0,0,0,.85.62,4.84,4.84,0,0,0,1,.42,2.32,2.32,0,0,0,.84.1,1.6,1.6,0,0,0,.71-.26A1.71,1.71,0,0,0,221.18,168.05Z"/><path class="cls-2" d="M222.21,156.92a.26.26,0,0,1,0,.27.41.41,0,0,1-.17.14l-.28.17a3.1,3.1,0,0,0-.34.26,2,2,0,0,0-.34.44,1.56,1.56,0,0,0-.18.46,1.25,1.25,0,0,0,0,.43,1,1,0,0,0,.15.36.76.76,0,0,0,.28.25.63.63,0,0,0,.43.1,1.42,1.42,0,0,0,.44-.17,3.08,3.08,0,0,0,.44-.34c.15-.13.3-.27.47-.4a6.12,6.12,0,0,1,.5-.39,1.81,1.81,0,0,1,.53-.28,1.51,1.51,0,0,1,.6-.08,1.62,1.62,0,0,1,.65.22,2.21,2.21,0,0,1,.65.55,1.73,1.73,0,0,1,.36.73,2.19,2.19,0,0,1,0,.85,2.79,2.79,0,0,1-.36.95,2.86,2.86,0,0,1-.78.9,2.8,2.8,0,0,1-.94.48l-.25-.44a.39.39,0,0,1-.06-.17.3.3,0,0,1,.05-.17.38.38,0,0,1,.19-.16l.33-.15a2.07,2.07,0,0,0,.38-.27,1.71,1.71,0,0,0,.39-.49,1.68,1.68,0,0,0,.2-.52,1,1,0,0,0,0-.46.8.8,0,0,0-.18-.37,1.24,1.24,0,0,0-.32-.28.72.72,0,0,0-.46-.1,1,1,0,0,0-.45.16,3,3,0,0,0-.44.33l-.47.41c-.16.14-.33.27-.5.4a2,2,0,0,1-.55.27,1.37,1.37,0,0,1-.61.07,1.78,1.78,0,0,1-.69-.24,1.85,1.85,0,0,1-.55-.49,1.81,1.81,0,0,1-.32-.67,2.18,2.18,0,0,1,0-.81,2.72,2.72,0,0,1,.33-.88,3.06,3.06,0,0,1,.73-.85,2.69,2.69,0,0,1,.9-.44Z"/><path class="cls-2" d="M221.08,152.58a.61.61,0,0,1,.24.21.92.92,0,0,1,.14.28.76.76,0,0,1-.06.59.7.7,0,0,1-.2.22.77.77,0,0,1-.28.12.8.8,0,0,1-.31,0,.73.73,0,0,1-.3-.11.72.72,0,0,1-.25-.21.76.76,0,0,1-.15-.28.77.77,0,0,1,0-.3.81.81,0,0,1,.09-.29.63.63,0,0,1,.21-.22.8.8,0,0,1,.28-.13,1.06,1.06,0,0,1,.31,0A.72.72,0,0,1,221.08,152.58Zm1.67,1.24,5.69,3.29-.54.93-5.7-3.28Z"/><path class="cls-2" d="M229.4,155.45l-5.7-3.29.32-.55a.29.29,0,0,1,.36-.14l.66.29a3.43,3.43,0,0,1-.21-1.16,2.1,2.1,0,0,1,.32-1.14,1.94,1.94,0,0,1,.6-.69,1.74,1.74,0,0,1,.76-.3,2.42,2.42,0,0,1,.88.05,3.79,3.79,0,0,1,1,.4L232,151l-.54.94-3.63-2.1a1.81,1.81,0,0,0-1.16-.3,1.15,1.15,0,0,0-.84.64,1.78,1.78,0,0,0-.24.9,3,3,0,0,0,.19,1l4.2,2.42Z"/><path class="cls-2" d="M229.39,142.1a2.59,2.59,0,0,1,.68-.78,2.19,2.19,0,0,1,.9-.42,2.75,2.75,0,0,1,1.07,0,3.74,3.74,0,0,1,1.17.46.76.76,0,0,1,.29.23.2.2,0,0,1,0,.22l-2,3.56a3.84,3.84,0,0,0,1,.4,2.37,2.37,0,0,0,.87,0,1.69,1.69,0,0,0,.7-.3,1.76,1.76,0,0,0,.53-.61,2,2,0,0,0,.27-.66,2.8,2.8,0,0,0,.06-.55,2.63,2.63,0,0,0,0-.41.43.43,0,0,1,0-.27.23.23,0,0,1,.2-.12l.51,0a1.94,1.94,0,0,1,.16.64,3.91,3.91,0,0,1,0,.68,4,4,0,0,1-.17.66,3.5,3.5,0,0,1-.29.62,3,3,0,0,1-.78.9,2.76,2.76,0,0,1-1.05.47,3.16,3.16,0,0,1-1.26,0,4.81,4.81,0,0,1-1.42-.56,4.32,4.32,0,0,1-1-.82,3,3,0,0,1-.61-1,2.69,2.69,0,0,1-.15-1.13A3,3,0,0,1,229.39,142.1Zm.75.41a1.6,1.6,0,0,0-.2,1.31,2.3,2.3,0,0,0,.88,1.15l1.68-2.9a2.51,2.51,0,0,0-.69-.28,1.64,1.64,0,0,0-.66,0,1.4,1.4,0,0,0-.57.23A1.48,1.48,0,0,0,230.14,142.51Z"/><path class="cls-2" d="M234.15,136.23a.24.24,0,0,1,0,.27.38.38,0,0,1-.16.14l-.28.17a1.9,1.9,0,0,0-.68.7,1.56,1.56,0,0,0-.18.46,1.25,1.25,0,0,0,0,.43.83.83,0,0,0,.14.35.87.87,0,0,0,.28.26.59.59,0,0,0,.44.09,1.08,1.08,0,0,0,.43-.16,2.66,2.66,0,0,0,.45-.34l.46-.4.5-.4a2.31,2.31,0,0,1,.54-.28,1.45,1.45,0,0,1,.59-.07,1.52,1.52,0,0,1,.66.22,2.34,2.34,0,0,1,.65.55,1.83,1.83,0,0,1,.35.73,1.86,1.86,0,0,1,0,.85,3,3,0,0,1-.35.95,3.13,3.13,0,0,1-.78.9,3.35,3.35,0,0,1-.94.48l-.26-.44a.37.37,0,0,1-.05-.17.24.24,0,0,1,.05-.17.34.34,0,0,1,.19-.16l.32-.15a3.48,3.48,0,0,0,.39-.27,1.7,1.7,0,0,0,.38-.49,1.3,1.3,0,0,0,.2-.52,1.18,1.18,0,0,0,0-.46,1.21,1.21,0,0,0-.18-.38,1.39,1.39,0,0,0-.32-.27.73.73,0,0,0-.46-.11,1.35,1.35,0,0,0-.45.16,2.66,2.66,0,0,0-.45.34l-.46.41c-.16.14-.33.27-.5.4a2.16,2.16,0,0,1-.55.27,1.39,1.39,0,0,1-.61.07,1.68,1.68,0,0,1-.69-.24,2,2,0,0,1-.56-.49,1.79,1.79,0,0,1-.31-.67,2,2,0,0,1,0-.81,2.72,2.72,0,0,1,.33-.88,2.75,2.75,0,0,1,.72-.85,2.48,2.48,0,0,1,.91-.44Z"/><path class="cls-2" d="M241.71,138.57l-7.62-4.4.32-.56a.29.29,0,0,1,.36-.13l.72.31a3.47,3.47,0,0,1-.27-1.2,2.25,2.25,0,0,1,.32-1.17,2.21,2.21,0,0,1,.67-.72,2.07,2.07,0,0,1,.92-.32,3.18,3.18,0,0,1,1.15.13,5.23,5.23,0,0,1,1.34.58,4.83,4.83,0,0,1,1.08.83,3.48,3.48,0,0,1,.68,1,2.39,2.39,0,0,1,.2,1.08,2.26,2.26,0,0,1-.33,1.1,2.23,2.23,0,0,1-.66.75,2.43,2.43,0,0,1-.85.33l2.51,1.45Zm-5.54-6.37a1.63,1.63,0,0,0-.24.94,2.88,2.88,0,0,0,.27,1l2.75,1.59a1.74,1.74,0,0,0,.85-.27,1.6,1.6,0,0,0,.55-.6,1.52,1.52,0,0,0,.1-1.47,3.26,3.26,0,0,0-1.39-1.33,4.59,4.59,0,0,0-1-.46,2,2,0,0,0-.81-.11,1.1,1.1,0,0,0-.62.21A1.46,1.46,0,0,0,236.17,132.2Z"/><path class="cls-2" d="M238.58,126.19a2.61,2.61,0,0,1,.68-.79,2.3,2.3,0,0,1,.9-.41,2.56,2.56,0,0,1,1.07,0,4,4,0,0,1,1.17.46.87.87,0,0,1,.29.23.22.22,0,0,1,0,.23l-2,3.55a3.9,3.9,0,0,0,1,.41,2.36,2.36,0,0,0,.87,0,1.56,1.56,0,0,0,.7-.29,2,2,0,0,0,.53-.61,2.19,2.19,0,0,0,.27-.66,3,3,0,0,0,.06-.55,2.8,2.8,0,0,0,0-.42.41.41,0,0,1,0-.26.24.24,0,0,1,.2-.13l.51,0a1.76,1.76,0,0,1,.15.64,3.1,3.1,0,0,1,0,.68,3.55,3.55,0,0,1-.17.66,3.92,3.92,0,0,1-.29.62,2.86,2.86,0,0,1-.78.9,2.6,2.6,0,0,1-1.06.47,3.11,3.11,0,0,1-1.25,0,4.71,4.71,0,0,1-1.42-.56,4.09,4.09,0,0,1-1-.81,2.92,2.92,0,0,1-.61-1,2.65,2.65,0,0,1-.15-1.12A2.89,2.89,0,0,1,238.58,126.19Zm.75.4a1.6,1.6,0,0,0-.2,1.31,2.36,2.36,0,0,0,.88,1.16l1.68-2.91a2.73,2.73,0,0,0-.69-.27,1.65,1.65,0,0,0-.66,0,1.29,1.29,0,0,0-.57.24A1.54,1.54,0,0,0,239.33,126.59Z"/><path class="cls-2" d="M243.75,119.77a.48.48,0,0,1,.05.14.2.2,0,0,1,0,.14.26.26,0,0,1-.17.13l-.29.15a2.94,2.94,0,0,0-.35.25,2,2,0,0,0-.36.46,1.83,1.83,0,0,0-.25.78,1.62,1.62,0,0,0,.14.75,2.31,2.31,0,0,0,.51.7,4.45,4.45,0,0,0,1.81,1,2.36,2.36,0,0,0,.86.07,1.54,1.54,0,0,0,.7-.24,1.77,1.77,0,0,0,.51-.57,1.83,1.83,0,0,0,.24-.61,2,2,0,0,0,0-.48,2.28,2.28,0,0,0-.06-.35.31.31,0,0,1,0-.24.2.2,0,0,1,.2-.13l.51-.05A2.34,2.34,0,0,1,248,123a3.29,3.29,0,0,1-.43,1.23,2.48,2.48,0,0,1-.73.81,2.54,2.54,0,0,1-1,.42,3.11,3.11,0,0,1-1.21,0,4.64,4.64,0,0,1-1.35-.54,4.86,4.86,0,0,1-1.08-.84,3.25,3.25,0,0,1-.65-1,2.54,2.54,0,0,1-.15-1.13,2.93,2.93,0,0,1,.4-1.21,2.89,2.89,0,0,1,.77-.88,2.61,2.61,0,0,1,1-.44Z"/><path class="cls-2" d="M242.42,115.62a1.21,1.21,0,0,1,.24.21,1,1,0,0,1,.14.28.77.77,0,0,1,0,.3.7.7,0,0,1-.09.29.78.78,0,0,1-.21.23.83.83,0,0,1-.27.12.82.82,0,0,1-.31,0,.71.71,0,0,1-.31-.1,1,1,0,0,1-.24-.21.85.85,0,0,1-.15-.28.77.77,0,0,1,0-.3.52.52,0,0,1,.09-.29.74.74,0,0,1,.2-.23.77.77,0,0,1,.28-.12.86.86,0,0,1,.32,0A.71.71,0,0,1,242.42,115.62Zm1.66,1.24,5.7,3.29-.54.94-5.7-3.29Z"/><path class="cls-2" d="M250.85,118.29l-4.84-2.8-.41.55a.46.46,0,0,1-.19.13.2.2,0,0,1-.21,0l-.41-.23.48-.85-.31-.18a3.25,3.25,0,0,1-.87-.71,2.3,2.3,0,0,1-.49-.89,2.4,2.4,0,0,1,0-1,3.48,3.48,0,0,1,.44-1.16c.08-.14.17-.27.26-.4a2.23,2.23,0,0,1,.3-.31l.5.34a.1.1,0,0,1,.06.11.68.68,0,0,1-.07.17l-.07.12-.08.14a2.13,2.13,0,0,0-.37,1.59,1.9,1.9,0,0,0,1,1.15l.29.16,1.86-3.22,5.58,3.22-.54.94-4.86-2.81-1.3,2.26,4.86,2.8Z"/><path class="cls-2" d="M251.62,106.14a.6.6,0,0,1,0,.14.27.27,0,0,1,0,.14.29.29,0,0,1-.17.13l-.29.15a1.85,1.85,0,0,0-.35.26,1.55,1.55,0,0,0-.36.45,1.83,1.83,0,0,0-.25.78,1.5,1.5,0,0,0,.14.75,2.45,2.45,0,0,0,.5.7,4.36,4.36,0,0,0,.84.62,3.86,3.86,0,0,0,1,.42,2.38,2.38,0,0,0,.86.08,1.51,1.51,0,0,0,.69-.25,1.65,1.65,0,0,0,.52-.56,2,2,0,0,0,.24-.62,2.71,2.71,0,0,0,0-.48c0-.14,0-.26-.06-.35a.37.37,0,0,1,0-.24.27.27,0,0,1,.2-.13l.52,0a2.36,2.36,0,0,1,.17,1.25,3.48,3.48,0,0,1-.43,1.23,2.59,2.59,0,0,1-.73.81,2.54,2.54,0,0,1-1,.42,3.1,3.1,0,0,1-1.21,0,4.64,4.64,0,0,1-1.35-.54,4.58,4.58,0,0,1-1.08-.84,3.32,3.32,0,0,1-.65-1,2.47,2.47,0,0,1-.15-1.14,2.93,2.93,0,0,1,.4-1.21,2.71,2.71,0,0,1,.76-.87,2.62,2.62,0,0,1,1-.45Z"/><path class="cls-2" d="M259.31,103.64l-.24.42a.59.59,0,0,1-.18.2.27.27,0,0,1-.25,0l-.59-.2a5.18,5.18,0,0,1,.12.62,2.76,2.76,0,0,1,0,.57,2.21,2.21,0,0,1-.11.57,2.32,2.32,0,0,1-.26.59,2,2,0,0,1-.43.53,1.49,1.49,0,0,1-1.21.36,2,2,0,0,1-.74-.27,1.61,1.61,0,0,1-.55-.55,1.83,1.83,0,0,1-.23-.89,4.07,4.07,0,0,1,.19-1.24,6.94,6.94,0,0,1,.73-1.62l-.45-.26a1.88,1.88,0,0,0-1.16-.32,1.09,1.09,0,0,0-.8.59,1.92,1.92,0,0,0-.24.63,2.46,2.46,0,0,0,0,.53c0,.16,0,.3,0,.41a.48.48,0,0,1,0,.3.26.26,0,0,1-.15.14.65.65,0,0,1-.2,0l-.41,0a3.34,3.34,0,0,1-.13-1.35,3.05,3.05,0,0,1,.43-1.26,2.38,2.38,0,0,1,.61-.71,1.92,1.92,0,0,1,.78-.33,2.09,2.09,0,0,1,.89,0,3.38,3.38,0,0,1,.94.38Zm-2,2.09a2.89,2.89,0,0,0,.21-.49,2.54,2.54,0,0,0,.07-.47,2.77,2.77,0,0,0,0-.49,3.83,3.83,0,0,0-.13-.51l-1.18-.68a7.32,7.32,0,0,0-.55,1.16,3.27,3.27,0,0,0-.19.87,1.12,1.12,0,0,0,.09.6.88.88,0,0,0,.36.38,1.14,1.14,0,0,0,.43.16,1.11,1.11,0,0,0,.37,0A.77.77,0,0,0,257,106,1.26,1.26,0,0,0,257.29,105.73Z"/><path class="cls-2" d="M260.13,102.22l-5.7-3.29.31-.53a.36.36,0,0,1,.19-.18.47.47,0,0,1,.26,0l.92.45a3.1,3.1,0,0,1-.54-1.22,1.64,1.64,0,0,1,.21-1.14,1.59,1.59,0,0,1,.29-.37,1.31,1.31,0,0,1,.34-.24l.68.55a.18.18,0,0,1,0,.24,1,1,0,0,1-.18.2,1.25,1.25,0,0,0-.3.4,1.3,1.3,0,0,0-.17,1,2.55,2.55,0,0,0,.56,1.06l3.63,2.09Z"/></g></g></svg>