<svg xmlns="http://www.w3.org/2000/svg" viewBox="0 0 22.22 263"><defs><style>.cls-1{fill:none;stroke:#da1549;stroke-miterlimit:10;stroke-width:2px;stroke-dasharray:3 1;}.cls-2{fill:#979797;}</style></defs><title>delco_2</title><g id="Capa_2" data-name="Capa 2"><g id="edificios"><line class="cls-1" x1="1" x2="1" y2="263"/><path class="cls-2" d="M11.87,54.48V42.82h4.29a8.14,8.14,0,0,1,2.06.22,3.91,3.91,0,0,1,1.38.63,2.39,2.39,0,0,1,.78,1,3.34,3.34,0,0,1,.24,1.3,2.53,2.53,0,0,1-.11.76,2.2,2.2,0,0,1-.35.68,2.61,2.61,0,0,1-.62.58,4,4,0,0,1-.9.45,3.2,3.2,0,0,1,1.7.91A2.35,2.35,0,0,1,20.89,51a3.34,3.34,0,0,1-.29,1.38,3.17,3.17,0,0,1-.84,1.12,4,4,0,0,1-1.37.74,6,6,0,0,1-1.86.27Zm2.7-6.75H16a4.6,4.6,0,0,0,.81-.06,1.67,1.67,0,0,0,.61-.22,1,1,0,0,0,.38-.44,1.65,1.65,0,0,0,.13-.7,2,2,0,0,0-.1-.69,1,1,0,0,0-.32-.44,1.35,1.35,0,0,0-.55-.24,3.71,3.71,0,0,0-.79-.07H14.57Zm0,1.81v2.9h1.9a2.39,2.39,0,0,0,.88-.14,1.38,1.38,0,0,0,.53-.35,1.18,1.18,0,0,0,.26-.49,2.16,2.16,0,0,0,.07-.55,1.82,1.82,0,0,0-.08-.58,1,1,0,0,0-.29-.43,1.41,1.41,0,0,0-.54-.27,3.13,3.13,0,0,0-.85-.1Z"/><path class="cls-2" d="M20.1,58.82V60.9H15.32v2.72H19v2H15.32V68.4H20.1v2.08H12.6V58.82Z"/><path class="cls-2" d="M12.79,74.84a.77.77,0,0,1,.22.06.74.74,0,0,1,.18.12l.2.22,5.54,7c0-.22,0-.44,0-.65s0-.41,0-.6V74.82h2.38V86.48H19.84a1.3,1.3,0,0,1-.53-.1,1.13,1.13,0,0,1-.42-.35l-5.5-6.94c0,.2,0,.4,0,.6s0,.38,0,.55v6.25H11.07V74.82h1.42Z"/><path class="cls-2" d="M17.52,102.48H14.8V90.82h2.72Z"/><path class="cls-2" d="M20.79,106.82V109H17.51v9.51h-2.7V109H11.53v-2.14Z"/><path class="cls-2" d="M22.22,128.64a6.27,6.27,0,0,1-.44,2.35,5.56,5.56,0,0,1-3.14,3.15,6.49,6.49,0,0,1-2.48.46,6.53,6.53,0,0,1-2.48-.46A5.56,5.56,0,0,1,10.55,131a6.55,6.55,0,0,1,0-4.7,5.6,5.6,0,0,1,1.23-1.89,5.7,5.7,0,0,1,1.92-1.26,6.53,6.53,0,0,1,2.48-.46,6.44,6.44,0,0,1,2.48.46,5.7,5.7,0,0,1,1.91,1.26,5.64,5.64,0,0,1,1.23,1.89A6.26,6.26,0,0,1,22.22,128.64Zm-2.77,0a5,5,0,0,0-.22-1.56,3.28,3.28,0,0,0-.64-1.17,2.78,2.78,0,0,0-1-.74,3.53,3.53,0,0,0-1.38-.26,3.59,3.59,0,0,0-1.4.26,2.77,2.77,0,0,0-1,.74,3.28,3.28,0,0,0-.64,1.17,5.55,5.55,0,0,0,0,3.12,3.3,3.3,0,0,0,.64,1.17,2.73,2.73,0,0,0,1,.73,3.64,3.64,0,0,0,1.4.25,3.59,3.59,0,0,0,1.38-.25,2.75,2.75,0,0,0,1-.73,3.3,3.3,0,0,0,.64-1.17A5.07,5.07,0,0,0,19.45,128.64Z"/><path class="cls-2" d="M18.64,152.43a6.05,6.05,0,0,1-.24,1.78,3.75,3.75,0,0,1-.74,1.37,3.29,3.29,0,0,1-1.24.89,4.45,4.45,0,0,1-1.75.32,8.32,8.32,0,0,1-.9,0,7.68,7.68,0,0,1-.92-.16L13,155a.47.47,0,0,1,.16-.34.61.61,0,0,1,.41-.13,1.61,1.61,0,0,1,.34,0,2.28,2.28,0,0,0,.48,0,2,2,0,0,0,.68-.11,1.06,1.06,0,0,0,.48-.36,1.74,1.74,0,0,0,.29-.66,4.51,4.51,0,0,0,.1-1V145h2.7Z"/><path class="cls-2" d="M16.16,170.52a2.49,2.49,0,0,0,1-.18,2,2,0,0,0,.72-.52,2.28,2.28,0,0,0,.45-.82,3.59,3.59,0,0,0,.16-1.1V161h2.7v6.9a5.38,5.38,0,0,1-.35,2,4.39,4.39,0,0,1-1,1.54,4.47,4.47,0,0,1-1.58,1,5.74,5.74,0,0,1-2.09.36,5.76,5.76,0,0,1-2.1-.36,4.48,4.48,0,0,1-1.58-1,4.37,4.37,0,0,1-1-1.54,5.46,5.46,0,0,1-.34-2V161h2.7v6.9A3.56,3.56,0,0,0,14,169a2.31,2.31,0,0,0,.45.82,1.94,1.94,0,0,0,.72.52A2.48,2.48,0,0,0,16.16,170.52Z"/><path class="cls-2" d="M22.07,190.65H20a1,1,0,0,1-.58-.16.85.85,0,0,1-.32-.42l-.69-2H14l-.69,2a.92.92,0,0,1-.88.58H10.28L14.79,179h2.77Zm-2.51-14.38L17.2,178a1.2,1.2,0,0,1-.39.21,1.64,1.64,0,0,1-.45.05h-2l1.45-1.58a1.34,1.34,0,0,1,.2-.2,1,1,0,0,1,.21-.12.88.88,0,0,1,.25-.06l.32,0Zm-5,9.93h3.18L16.69,183l-.24-.72q-.14-.41-.28-.89-.13.49-.26.9c-.09.28-.18.52-.26.72Z"/><path class="cls-2" d="M14.5,202.34v4.31H11.8V195h3.79a7.8,7.8,0,0,1,2.16.26,4.05,4.05,0,0,1,1.46.72,2.74,2.74,0,0,1,.82,1.1,3.63,3.63,0,0,1,.26,1.38,3.69,3.69,0,0,1-.15,1.07,3.24,3.24,0,0,1-.45.93,3.49,3.49,0,0,1-.74.76,3.92,3.92,0,0,1-1,.55,2.52,2.52,0,0,1,.51.34,2,2,0,0,1,.41.49l2.48,4.06H18.88a1,1,0,0,1-1-.51L16,202.76a.82.82,0,0,0-.3-.32,1,1,0,0,0-.48-.1Zm0-1.86h1.09a2.77,2.77,0,0,0,.94-.14,1.7,1.7,0,0,0,.64-.39,1.48,1.48,0,0,0,.36-.58,2.24,2.24,0,0,0,.11-.72,1.5,1.5,0,0,0-.5-1.2,2.33,2.33,0,0,0-1.55-.43H14.5Z"/><path class="cls-2" d="M20.1,211v2.08H15.32v2.72H19v2H15.32v2.78H20.1v2.08H12.6V211Z"/><path class="cls-2" d="M20.77,227v1a1.26,1.26,0,0,1-.07.41,1.56,1.56,0,0,1-.19.38L15,236.57h5.55v2.08h-9v-1a1.07,1.07,0,0,1,.06-.36,1.3,1.3,0,0,1,.18-.33l5.49-7.84H12V227Z"/><path class="cls-2" d="M19.76,255.92l-6.48,3.38v-1.72a.61.61,0,0,1,.1-.34.78.78,0,0,1,.3-.26l2.27-1.23a2.07,2.07,0,0,1,.44-.18l.49-.13-.49-.14a2.45,2.45,0,0,1-.44-.19l-2.27-1.22a.77.77,0,0,1-.3-.27.64.64,0,0,1-.1-.34v-1.72l6.48,3.39Z"/></g></g></svg>