<?xml version="1.0" encoding="utf-8"?>
<!-- Generator: Adobe Illustrator 22.1.0, SVG Export Plug-In . SVG Version: 6.00 Build 0)  -->
<svg version="1.1" id="Capa_1" xmlns="http://www.w3.org/2000/svg" xmlns:xlink="http://www.w3.org/1999/xlink" x="0px" y="0px"
	 viewBox="0 0 266.5 293.8" style="enable-background:new 0 0 266.5 293.8;" xml:space="preserve">
<style type="text/css">
	.st0{fill:#F1F1F1;}
	.st1{fill:#CACACA;}
	.st2{fill:#E3E3E3;}
	.st3{fill:#C0C0C0;}
	.st4{fill:none;stroke:#6D0E29;stroke-miterlimit:10;}
	.st5{fill:none;stroke:#6D0E29;stroke-width:0.5;stroke-miterlimit:10;}
	.st6{enable-background:new    ;}
	.st7{fill:#FFFFFF;}
</style>
<title>alvarobregon286.cu</title>
<g id="Capa_2_1_">
	<g id="edificios">
		<g id="álvaro_obregón_286_cuauhtémoc">
			<polygon class="st0" points="250.1,215.8 59.4,244.5 59.4,221.2 252.2,193.6 			"/>
			<polygon class="st1" points="59.4,244.5 36.3,205 36.1,188.9 36.1,183.3 59.4,221.2 			"/>
			<polygon class="st2" points="36.1,188.9 26.1,190.3 25.8,169.2 35.9,167.8 36.1,183.3 			"/>
			<polygon class="st0" points="26.1,190.3 4.2,157.6 3.7,138 25.8,169.2 			"/>
			<polygon class="st3" points="0.5,11.7 163.9,0.5 266,49.7 59.6,68.8 34.6,42.6 78.6,38.9 90.3,38 78.7,28.1 23.8,32.9 			"/>
			<polygon class="st0" points="59.6,68.8 266,49.7 263.6,75.1 59.6,95.8 			"/>
			<polygon class="st1" points="34.6,42.6 59.6,68.8 59.6,95.8 34.9,67.4 34.8,55.9 			"/>
			<polygon class="st1" points="78.7,28.1 90.3,38 78.6,38.9 			"/>
			<polygon class="st2" points="23.8,32.9 78.7,28.1 78.6,38.9 34.6,42.6 34.8,55.9 24.1,56.9 			"/>
			<polygon class="st0" points="0.5,11.7 23.8,32.9 24.1,56.9 1.1,33.8 			"/>
			<polygon class="st0" points="59.6,95.8 263.6,75.1 261.2,99.9 59.5,122.1 			"/>
			<polygon class="st0" points="258.9,124.1 256.6,147.8 59.5,172.8 59.5,147.7 			"/>
			<polygon class="st1" points="59.5,147.7 59.5,172.8 35.6,138.4 35.5,124.4 35.4,115.3 			"/>
			<polygon class="st0" points="59.5,172.8 256.6,147.8 254.4,171 59.5,197.3 			"/>
			<polygon class="st0" points="261.2,99.9 258.9,124.1 59.5,147.7 59.5,122.1 			"/>
			<polygon class="st0" points="254.4,171 252.2,193.6 59.4,221.2 59.5,197.3 			"/>
			<polygon class="st1" points="59.6,95.8 59.5,122.1 35.1,91.6 35,79.2 34.9,67.4 			"/>
			<polygon class="st1" points="59.5,122.1 59.5,147.7 35.4,115.3 35.2,102.1 35.1,91.6 			"/>
			<polygon class="st1" points="59.5,197.3 59.4,221.2 36.1,183.3 35.9,167.8 35.8,161.1 			"/>
			<polygon class="st0" points="2.7,97.5 2.1,76.7 24.8,103.2 25.2,125.7 			"/>
			<polygon class="st0" points="1.6,55.4 1.1,33.8 24.1,56.9 24.5,80.3 			"/>
			<polygon class="st0" points="2.1,76.7 1.6,55.4 24.5,80.3 24.8,103.2 			"/>
			<polygon class="st0" points="3.2,117.9 2.7,97.5 25.2,125.7 25.5,147.7 			"/>
			<polygon class="st0" points="3.7,138 3.2,117.9 25.5,147.7 25.8,169.2 			"/>
			<polygon class="st2" points="25.2,125.7 24.8,103.2 35.2,102.1 35.4,115.3 35.5,124.4 			"/>
			<polygon class="st2" points="24.5,80.3 24.1,56.9 34.8,55.9 34.9,67.4 35,79.2 			"/>
			<polygon class="st2" points="24.8,103.2 24.5,80.3 35,79.2 35.1,91.6 35.2,102.1 			"/>
			<polygon class="st2" points="25.5,147.7 25.2,125.7 35.5,124.4 35.6,138.4 35.7,146.4 			"/>
			<polygon class="st2" points="25.8,169.2 25.5,147.7 35.7,146.4 35.8,161.1 35.9,167.8 			"/>
			<polygon class="st1" points="35.6,138.4 59.5,172.8 59.5,197.3 35.8,161.1 35.7,146.4 			"/>
			<line class="st4" x1="250.1" y1="215.8" x2="59.4" y2="244.5"/>
			<line class="st4" x1="59.4" y1="244.5" x2="36.3" y2="205"/>
			<line class="st4" x1="36.1" y1="188.9" x2="26.1" y2="190.3"/>
			<line class="st4" x1="26.1" y1="190.3" x2="4.2" y2="157.6"/>
			<line class="st4" x1="0.5" y1="11.7" x2="163.9" y2="0.5"/>
			<line class="st4" x1="163.9" y1="0.5" x2="266" y2="49.7"/>
			<line class="st5" x1="266" y1="49.7" x2="59.6" y2="68.8"/>
			<line class="st5" x1="59.6" y1="68.8" x2="34.6" y2="42.6"/>
			<line class="st5" x1="90.3" y1="38" x2="78.7" y2="28.1"/>
			<line class="st5" x1="78.7" y1="28.1" x2="23.8" y2="32.9"/>
			<line class="st5" x1="23.8" y1="32.9" x2="0.5" y2="11.7"/>
			<line class="st4" x1="4.2" y1="157.6" x2="3.7" y2="138"/>
			<line class="st4" x1="250.1" y1="215.8" x2="252.2" y2="193.6"/>
			<line class="st5" x1="59.4" y1="244.5" x2="59.4" y2="221.2"/>
			<line class="st5" x1="26.1" y1="190.3" x2="25.8" y2="169.2"/>
			<line class="st4" x1="263.5" y1="75.1" x2="266" y2="49.7"/>
			<line class="st5" x1="59.6" y1="95.8" x2="59.6" y2="68.8"/>
			<line class="st5" x1="263.5" y1="75.1" x2="59.6" y2="95.8"/>
			<line class="st4" x1="256.6" y1="147.8" x2="258.9" y2="124.1"/>
			<line class="st5" x1="59.5" y1="172.8" x2="59.5" y2="147.7"/>
			<line class="st5" x1="256.6" y1="147.8" x2="59.5" y2="172.8"/>
			<line class="st4" x1="261.2" y1="99.9" x2="263.5" y2="75.1"/>
			<line class="st4" x1="254.4" y1="171" x2="256.6" y2="147.8"/>
			<line class="st4" x1="258.9" y1="124.1" x2="261.2" y2="99.9"/>
			<line class="st4" x1="252.2" y1="193.6" x2="254.4" y2="171"/>
			<line class="st5" x1="59.5" y1="122.1" x2="59.6" y2="95.8"/>
			<line class="st5" x1="261.2" y1="99.9" x2="59.5" y2="122.1"/>
			<line class="st5" x1="59.5" y1="147.7" x2="59.5" y2="122.1"/>
			<line class="st5" x1="258.9" y1="124.1" x2="59.5" y2="147.7"/>
			<line class="st5" x1="254.4" y1="171" x2="59.5" y2="197.3"/>
			<line class="st5" x1="59.4" y1="221.2" x2="59.5" y2="197.3"/>
			<line class="st5" x1="252.2" y1="193.6" x2="59.4" y2="221.2"/>
			<line class="st4" x1="1.1" y1="33.8" x2="0.5" y2="11.7"/>
			<line class="st4" x1="2.7" y1="97.5" x2="2.1" y2="76.7"/>
			<line class="st4" x1="1.6" y1="55.4" x2="1.1" y2="33.8"/>
			<line class="st4" x1="2.1" y1="76.7" x2="1.6" y2="55.4"/>
			<line class="st4" x1="3.2" y1="117.9" x2="2.7" y2="97.5"/>
			<line class="st4" x1="3.7" y1="138" x2="3.2" y2="117.9"/>
			<line class="st5" x1="24.1" y1="56.9" x2="23.8" y2="32.9"/>
			<line class="st5" x1="1.1" y1="33.8" x2="24.1" y2="56.9"/>
			<line class="st5" x1="25.2" y1="125.7" x2="24.8" y2="103.2"/>
			<line class="st5" x1="2.7" y1="97.5" x2="25.2" y2="125.7"/>
			<line class="st5" x1="24.5" y1="80.3" x2="24.1" y2="56.9"/>
			<line class="st5" x1="1.6" y1="55.4" x2="24.5" y2="80.3"/>
			<line class="st5" x1="24.8" y1="103.2" x2="24.5" y2="80.3"/>
			<line class="st5" x1="2.1" y1="76.7" x2="24.8" y2="103.2"/>
			<line class="st5" x1="25.5" y1="147.7" x2="25.2" y2="125.7"/>
			<line class="st5" x1="3.2" y1="117.9" x2="25.5" y2="147.7"/>
			<line class="st5" x1="25.8" y1="169.2" x2="25.5" y2="147.7"/>
			<line class="st5" x1="3.7" y1="138" x2="25.8" y2="169.2"/>
			<line class="st5" x1="59.6" y1="95.8" x2="34.9" y2="67.4"/>
			<line class="st5" x1="35.6" y1="138.4" x2="59.5" y2="172.8"/>
			<line class="st5" x1="59.5" y1="122.1" x2="35.1" y2="91.6"/>
			<line class="st5" x1="59.5" y1="147.7" x2="35.4" y2="115.3"/>
			<line class="st5" x1="59.5" y1="197.3" x2="35.8" y2="161.1"/>
			<line class="st5" x1="36.1" y1="183.3" x2="59.4" y2="221.2"/>
			<line class="st5" x1="78.6" y1="38.9" x2="78.7" y2="28.1"/>
			<line class="st5" x1="24.1" y1="56.9" x2="34.8" y2="55.9"/>
			<line class="st5" x1="25.2" y1="125.7" x2="35.5" y2="124.4"/>
			<line class="st5" x1="24.8" y1="103.2" x2="35.2" y2="102.1"/>
			<line class="st5" x1="24.5" y1="80.3" x2="35" y2="79.2"/>
			<line class="st5" x1="25.5" y1="147.7" x2="35.7" y2="146.4"/>
			<line class="st5" x1="25.8" y1="169.2" x2="35.9" y2="167.8"/>
			<line class="st4" x1="34.6" y1="42.6" x2="78.6" y2="38.9"/>
			<line class="st4" x1="78.6" y1="38.9" x2="90.3" y2="38"/>
			<line class="st4" x1="36.3" y1="205" x2="36.1" y2="188.9"/>
			<line class="st4" x1="36.1" y1="188.9" x2="36.1" y2="183.3"/>
			<line class="st4" x1="34.9" y1="67.4" x2="34.8" y2="55.9"/>
			<line class="st4" x1="34.8" y1="55.9" x2="34.6" y2="42.6"/>
			<line class="st4" x1="35.6" y1="138.4" x2="35.5" y2="124.4"/>
			<line class="st4" x1="35.5" y1="124.4" x2="35.4" y2="115.3"/>
			<line class="st4" x1="35.1" y1="91.6" x2="35" y2="79.2"/>
			<line class="st4" x1="35" y1="79.2" x2="34.9" y2="67.4"/>
			<line class="st4" x1="35.4" y1="115.3" x2="35.2" y2="102.1"/>
			<line class="st4" x1="35.2" y1="102.1" x2="35.1" y2="91.6"/>
			<line class="st4" x1="35.8" y1="161.1" x2="35.7" y2="146.4"/>
			<line class="st4" x1="35.7" y1="146.4" x2="35.6" y2="138.4"/>
			<line class="st4" x1="36.1" y1="183.3" x2="35.9" y2="167.8"/>
			<line class="st4" x1="35.9" y1="167.8" x2="35.8" y2="161.1"/>
			<line class="st5" x1="59.5" y1="197.3" x2="59.5" y2="172.8"/>
		</g>
		<g class="st6">
			<path class="st7" d="M57.9,274.4h-1.7c-0.2,0-0.3,0-0.5-0.1c-0.1-0.1-0.2-0.2-0.3-0.3l-0.9-2.4h-4.8l-0.9,2.4
				c0,0.1-0.1,0.2-0.3,0.3c-0.1,0.1-0.3,0.2-0.5,0.2h-1.7l4.5-11.6h2.2L57.9,274.4z M50.4,270h3.7l-1.4-3.8
				c-0.1-0.2-0.1-0.4-0.2-0.6c-0.1-0.2-0.2-0.5-0.2-0.8c-0.1,0.3-0.1,0.5-0.2,0.8c-0.1,0.2-0.1,0.4-0.2,0.6L50.4,270z M55.3,260.1
				l-2.4,1.7c-0.1,0-0.1,0.1-0.2,0.1s-0.1,0-0.2,0.1c-0.1,0-0.1,0-0.2,0c-0.1,0-0.1,0-0.2,0h-1.6l1.6-1.6c0.1-0.1,0.1-0.1,0.2-0.2
				s0.1-0.1,0.2-0.1c0.1,0,0.1,0,0.2,0c0.1,0,0.2,0,0.3,0H55.3z"/>
			<path class="st7" d="M61,262.5v11.9h-2v-11.9H61z"/>
			<path class="st7" d="M67.4,274.4h-1.8l-3.3-8.2H64c0.1,0,0.3,0,0.4,0.1c0.1,0.1,0.2,0.2,0.2,0.3l1.6,4.4c0.1,0.3,0.2,0.5,0.2,0.8
				c0.1,0.2,0.1,0.5,0.2,0.7c0-0.2,0.1-0.5,0.2-0.7s0.1-0.5,0.2-0.8l1.6-4.4c0-0.1,0.1-0.2,0.2-0.3s0.2-0.1,0.3-0.1h1.6L67.4,274.4z
				"/>
			<path class="st7" d="M78.2,274.4h-0.9c-0.2,0-0.3,0-0.4-0.1c-0.1-0.1-0.2-0.2-0.2-0.3l-0.2-0.6c-0.2,0.2-0.4,0.4-0.6,0.5
				c-0.2,0.1-0.4,0.3-0.6,0.4c-0.2,0.1-0.4,0.2-0.7,0.2c-0.2,0-0.5,0.1-0.8,0.1c-0.3,0-0.7,0-1-0.1c-0.3-0.1-0.5-0.2-0.8-0.4
				c-0.2-0.2-0.4-0.4-0.5-0.7c-0.1-0.3-0.2-0.6-0.2-1c0-0.3,0.1-0.6,0.2-0.9s0.4-0.6,0.8-0.8c0.4-0.2,0.9-0.4,1.5-0.6
				s1.4-0.2,2.3-0.2v-0.5c0-0.6-0.1-1-0.3-1.2c-0.2-0.3-0.6-0.4-1-0.4c-0.3,0-0.6,0-0.8,0.1c-0.2,0.1-0.4,0.2-0.6,0.3
				c-0.2,0.1-0.3,0.2-0.4,0.3c-0.1,0.1-0.3,0.1-0.4,0.1c-0.1,0-0.2,0-0.3-0.1s-0.2-0.2-0.2-0.3l-0.4-0.6c0.9-0.9,2.1-1.3,3.4-1.3
				c0.5,0,0.9,0.1,1.3,0.2s0.7,0.4,1,0.7c0.3,0.3,0.5,0.6,0.6,1c0.1,0.4,0.2,0.8,0.2,1.3V274.4z M74.4,273.2c0.2,0,0.4,0,0.6-0.1
				c0.2,0,0.3-0.1,0.5-0.2c0.2-0.1,0.3-0.2,0.4-0.3c0.1-0.1,0.3-0.2,0.4-0.4v-1.4c-0.6,0-1.1,0-1.4,0.1c-0.4,0.1-0.7,0.2-0.9,0.3
				c-0.2,0.1-0.4,0.2-0.5,0.4s-0.1,0.3-0.1,0.5c0,0.3,0.1,0.6,0.3,0.7C73.8,273.1,74.1,273.2,74.4,273.2z"/>
			<path class="st7" d="M80.2,274.4v-8.2h1.2c0.2,0,0.3,0,0.4,0.1c0.1,0.1,0.1,0.2,0.2,0.4l0.1,1c0.3-0.5,0.6-0.9,1-1.2
				c0.4-0.3,0.8-0.4,1.3-0.4c0.4,0,0.7,0.1,1,0.3l-0.3,1.5c0,0.1-0.1,0.2-0.1,0.2c-0.1,0-0.1,0.1-0.2,0.1c-0.1,0-0.2,0-0.3-0.1
				c-0.1,0-0.3-0.1-0.6-0.1c-0.4,0-0.8,0.1-1.1,0.3c-0.3,0.2-0.5,0.6-0.7,1v5.1H80.2z"/>
			<path class="st7" d="M90.2,266.1c0.6,0,1.2,0.1,1.7,0.3s0.9,0.5,1.3,0.8c0.4,0.4,0.6,0.8,0.8,1.3c0.2,0.5,0.3,1.1,0.3,1.8
				c0,0.7-0.1,1.2-0.3,1.8c-0.2,0.5-0.5,1-0.8,1.3c-0.4,0.4-0.8,0.7-1.3,0.8s-1.1,0.3-1.7,0.3s-1.2-0.1-1.7-0.3
				c-0.5-0.2-0.9-0.5-1.3-0.8c-0.4-0.4-0.6-0.8-0.8-1.3c-0.2-0.5-0.3-1.1-0.3-1.8c0-0.6,0.1-1.2,0.3-1.8c0.2-0.5,0.5-1,0.8-1.3
				c0.4-0.4,0.8-0.6,1.3-0.8C89.1,266.2,89.6,266.1,90.2,266.1z M90.2,273c0.7,0,1.2-0.2,1.5-0.7c0.3-0.5,0.5-1.1,0.5-2
				c0-0.9-0.2-1.6-0.5-2c-0.3-0.5-0.8-0.7-1.5-0.7c-0.7,0-1.2,0.2-1.5,0.7s-0.5,1.1-0.5,2c0,0.9,0.2,1.5,0.5,2
				C89,272.8,89.5,273,90.2,273z"/>
			<path class="st7" d="M110.1,268.6c0,0.8-0.1,1.6-0.4,2.4s-0.7,1.3-1.2,1.9c-0.5,0.5-1.1,0.9-1.8,1.2c-0.7,0.3-1.5,0.4-2.4,0.4
				c-0.9,0-1.7-0.1-2.4-0.4c-0.7-0.3-1.3-0.7-1.9-1.2c-0.5-0.5-0.9-1.2-1.2-1.9s-0.4-1.5-0.4-2.4c0-0.8,0.1-1.6,0.4-2.4
				s0.7-1.3,1.2-1.9c0.5-0.5,1.1-0.9,1.9-1.2c0.7-0.3,1.5-0.4,2.4-0.4c0.9,0,1.7,0.1,2.4,0.4c0.7,0.3,1.3,0.7,1.8,1.2
				c0.5,0.5,0.9,1.1,1.2,1.9S110.1,267.8,110.1,268.6z M107.9,268.6c0-0.6-0.1-1.2-0.3-1.7s-0.4-0.9-0.7-1.3
				c-0.3-0.4-0.7-0.6-1.1-0.8s-1-0.3-1.5-0.3c-0.6,0-1.1,0.1-1.5,0.3s-0.8,0.5-1.2,0.8c-0.3,0.4-0.6,0.8-0.7,1.3
				c-0.2,0.5-0.3,1.1-0.3,1.7s0.1,1.2,0.3,1.7c0.2,0.5,0.4,0.9,0.7,1.3c0.3,0.3,0.7,0.6,1.2,0.8s1,0.3,1.5,0.3
				c0.6,0,1.1-0.1,1.5-0.3s0.8-0.5,1.1-0.8c0.3-0.3,0.6-0.8,0.7-1.3S107.9,269.2,107.9,268.6z"/>
			<path class="st7" d="M111.7,274.4v-11.9h2v4.7c0.3-0.3,0.7-0.6,1.1-0.8c0.4-0.2,0.9-0.3,1.4-0.3c0.4,0,0.9,0.1,1.2,0.3
				c0.4,0.2,0.7,0.5,1,0.8c0.3,0.4,0.5,0.8,0.6,1.3c0.1,0.5,0.2,1.1,0.2,1.8c0,0.6-0.1,1.2-0.2,1.7c-0.2,0.5-0.4,1-0.7,1.4
				c-0.3,0.4-0.7,0.7-1.1,0.9s-0.9,0.3-1.5,0.3c-0.3,0-0.5,0-0.7-0.1s-0.4-0.1-0.6-0.2c-0.2-0.1-0.3-0.2-0.5-0.3
				c-0.1-0.1-0.3-0.3-0.4-0.4l-0.1,0.6c0,0.1-0.1,0.2-0.2,0.3c-0.1,0.1-0.2,0.1-0.3,0.1H111.7z M115.6,267.6c-0.4,0-0.8,0.1-1.1,0.3
				c-0.3,0.2-0.6,0.4-0.8,0.7v3.7c0.2,0.3,0.5,0.5,0.7,0.6c0.3,0.1,0.6,0.2,0.9,0.2c0.3,0,0.6-0.1,0.8-0.2c0.2-0.1,0.4-0.3,0.6-0.5
				c0.2-0.2,0.3-0.5,0.4-0.9c0.1-0.3,0.1-0.8,0.1-1.2c0-0.5,0-0.9-0.1-1.2c-0.1-0.3-0.2-0.6-0.3-0.8s-0.3-0.4-0.5-0.5
				C116.1,267.6,115.8,267.6,115.6,267.6z"/>
			<path class="st7" d="M120.8,274.4v-8.2h1.2c0.2,0,0.3,0,0.4,0.1c0.1,0.1,0.1,0.2,0.2,0.4l0.1,1c0.3-0.5,0.6-0.9,1-1.2
				c0.4-0.3,0.8-0.4,1.3-0.4c0.4,0,0.7,0.1,1,0.3l-0.3,1.5c0,0.1-0.1,0.2-0.1,0.2c-0.1,0-0.1,0.1-0.2,0.1c-0.1,0-0.2,0-0.3-0.1
				c-0.1,0-0.3-0.1-0.6-0.1c-0.4,0-0.8,0.1-1.1,0.3c-0.3,0.2-0.5,0.6-0.7,1v5.1H120.8z"/>
			<path class="st7" d="M130.7,266.1c0.5,0,1,0.1,1.4,0.2s0.8,0.4,1.1,0.7c0.3,0.3,0.6,0.7,0.7,1.2c0.2,0.5,0.3,1,0.3,1.6
				c0,0.1,0,0.3,0,0.4s0,0.2-0.1,0.2c0,0.1-0.1,0.1-0.1,0.1c-0.1,0-0.1,0-0.2,0h-5.1c0.1,0.8,0.3,1.5,0.7,1.9s0.9,0.6,1.6,0.6
				c0.3,0,0.6,0,0.8-0.1c0.2-0.1,0.4-0.2,0.6-0.2c0.2-0.1,0.3-0.2,0.5-0.2c0.1-0.1,0.3-0.1,0.4-0.1c0.1,0,0.1,0,0.2,0
				c0.1,0,0.1,0.1,0.2,0.1l0.6,0.7c-0.2,0.3-0.5,0.5-0.7,0.6c-0.3,0.2-0.6,0.3-0.9,0.4c-0.3,0.1-0.6,0.2-0.9,0.2
				c-0.3,0-0.6,0.1-0.9,0.1c-0.6,0-1.1-0.1-1.6-0.3c-0.5-0.2-0.9-0.5-1.3-0.8s-0.6-0.8-0.9-1.4s-0.3-1.2-0.3-1.9
				c0-0.6,0.1-1.1,0.3-1.6c0.2-0.5,0.4-0.9,0.8-1.3c0.3-0.4,0.8-0.7,1.2-0.9C129.6,266.2,130.1,266.1,130.7,266.1z M130.8,267.5
				c-0.6,0-1,0.2-1.4,0.5c-0.3,0.3-0.5,0.8-0.6,1.4h3.7c0-0.3,0-0.5-0.1-0.7c-0.1-0.2-0.2-0.4-0.3-0.6s-0.3-0.3-0.5-0.4
				C131.3,267.5,131.1,267.5,130.8,267.5z"/>
			<path class="st7" d="M138.7,266c0.4,0,0.7,0,1,0.1s0.6,0.2,0.8,0.3h2.4v0.7c0,0.1,0,0.2-0.1,0.3c-0.1,0.1-0.2,0.1-0.3,0.1
				l-0.7,0.1c0.1,0.1,0.1,0.3,0.1,0.4c0,0.2,0,0.3,0,0.5c0,0.4-0.1,0.8-0.2,1.1s-0.4,0.6-0.7,0.8s-0.6,0.4-1,0.5
				c-0.4,0.1-0.8,0.2-1.3,0.2c-0.3,0-0.6,0-0.9-0.1c-0.3,0.2-0.4,0.3-0.4,0.5c0,0.2,0.1,0.3,0.2,0.4c0.2,0.1,0.4,0.1,0.6,0.2
				s0.5,0,0.8,0s0.6,0,1,0c0.3,0,0.7,0.1,1,0.1c0.3,0.1,0.6,0.2,0.8,0.3s0.4,0.3,0.6,0.6c0.2,0.2,0.2,0.6,0.2,1
				c0,0.4-0.1,0.7-0.3,1.1c-0.2,0.3-0.4,0.6-0.8,0.9c-0.3,0.3-0.8,0.5-1.2,0.6c-0.5,0.2-1.1,0.2-1.7,0.2c-0.6,0-1.2-0.1-1.6-0.2
				c-0.5-0.1-0.8-0.3-1.1-0.5c-0.3-0.2-0.5-0.4-0.7-0.7c-0.1-0.3-0.2-0.5-0.2-0.8c0-0.4,0.1-0.7,0.4-1c0.2-0.3,0.6-0.5,1-0.6
				c-0.2-0.1-0.4-0.3-0.5-0.4c-0.1-0.2-0.2-0.4-0.2-0.7c0-0.1,0-0.2,0.1-0.4c0-0.1,0.1-0.3,0.2-0.4s0.2-0.2,0.3-0.4
				c0.1-0.1,0.3-0.2,0.5-0.3c-0.4-0.2-0.7-0.5-1-0.9c-0.2-0.4-0.4-0.8-0.4-1.3c0-0.4,0.1-0.8,0.2-1.1c0.2-0.3,0.4-0.6,0.7-0.8
				c0.3-0.2,0.6-0.4,1-0.5C137.8,266.1,138.3,266,138.7,266z M140.9,274.7c0-0.2,0-0.3-0.1-0.4s-0.2-0.2-0.4-0.2
				c-0.2-0.1-0.4-0.1-0.6-0.1c-0.2,0-0.5,0-0.7,0s-0.5,0-0.8,0s-0.5,0-0.8-0.1c-0.2,0.1-0.4,0.3-0.5,0.4c-0.1,0.2-0.2,0.4-0.2,0.6
				c0,0.1,0,0.3,0.1,0.4c0.1,0.1,0.2,0.2,0.3,0.3c0.2,0.1,0.4,0.2,0.6,0.2c0.3,0.1,0.6,0.1,0.9,0.1c0.4,0,0.7,0,1-0.1
				c0.3-0.1,0.5-0.1,0.7-0.2s0.3-0.2,0.4-0.4S140.9,274.9,140.9,274.7z M138.7,270.1c0.2,0,0.5,0,0.6-0.1c0.2-0.1,0.3-0.2,0.5-0.3
				s0.2-0.3,0.3-0.4c0.1-0.2,0.1-0.3,0.1-0.5c0-0.4-0.1-0.7-0.4-1s-0.6-0.4-1.1-0.4s-0.8,0.1-1.1,0.4c-0.2,0.2-0.4,0.6-0.4,1
				c0,0.2,0,0.4,0.1,0.5c0.1,0.2,0.2,0.3,0.3,0.4c0.1,0.1,0.3,0.2,0.5,0.3C138.3,270.1,138.5,270.1,138.7,270.1z"/>
			<path class="st7" d="M147.7,266.1c0.6,0,1.2,0.1,1.7,0.3s0.9,0.5,1.3,0.8c0.4,0.4,0.6,0.8,0.8,1.3s0.3,1.1,0.3,1.8
				c0,0.7-0.1,1.2-0.3,1.8c-0.2,0.5-0.5,1-0.8,1.3c-0.4,0.4-0.8,0.7-1.3,0.8s-1.1,0.3-1.7,0.3s-1.2-0.1-1.7-0.3s-0.9-0.5-1.3-0.8
				c-0.4-0.4-0.6-0.8-0.8-1.3c-0.2-0.5-0.3-1.1-0.3-1.8c0-0.6,0.1-1.2,0.3-1.8c0.2-0.5,0.5-1,0.8-1.3c0.4-0.4,0.8-0.6,1.3-0.8
				S147.1,266.1,147.7,266.1z M147.7,273c0.7,0,1.2-0.2,1.5-0.7c0.3-0.5,0.5-1.1,0.5-2c0-0.9-0.2-1.6-0.5-2
				c-0.3-0.5-0.8-0.7-1.5-0.7c-0.7,0-1.2,0.2-1.5,0.7s-0.5,1.1-0.5,2c0,0.9,0.2,1.5,0.5,2C146.5,272.8,147,273,147.7,273z
				 M150.5,262.7l-2,2.1c-0.1,0.1-0.2,0.2-0.3,0.2s-0.2,0.1-0.4,0.1h-1.2l1.1-1.9c0.1-0.1,0.2-0.2,0.3-0.3c0.1-0.1,0.3-0.1,0.5-0.1
				H150.5z"/>
			<path class="st7" d="M153.3,274.4v-8.2h1.2c0.3,0,0.4,0.1,0.5,0.4l0.1,0.6c0.2-0.2,0.3-0.3,0.5-0.5s0.4-0.3,0.6-0.4
				c0.2-0.1,0.4-0.2,0.7-0.2s0.5-0.1,0.8-0.1c0.4,0,0.8,0.1,1.2,0.2c0.3,0.2,0.6,0.4,0.9,0.6s0.4,0.6,0.5,1c0.1,0.4,0.2,0.8,0.2,1.3
				v5.2h-2v-5.2c0-0.5-0.1-0.9-0.3-1.2c-0.2-0.3-0.6-0.4-1-0.4c-0.3,0-0.7,0.1-1,0.2c-0.3,0.2-0.6,0.4-0.8,0.6v5.9H153.3z"/>
			<path class="st7" d="M166.9,262.8c0.1,0,0.1,0,0.2,0c0.1,0,0.1,0.1,0.1,0.1c0,0,0.1,0.1,0.2,0.2l6.1,7.7c0-0.2,0-0.4,0-0.5
				s0-0.3,0-0.5v-7h1.9v11.6h-1.1c-0.2,0-0.3,0-0.4-0.1c-0.1-0.1-0.2-0.1-0.3-0.3l-6-7.7c0,0.2,0,0.3,0,0.5s0,0.3,0,0.5v7.1h-1.9
				v-11.6h1.1C166.8,262.8,166.9,262.8,166.9,262.8z"/>
			<path class="st7" d="M181.1,266.1c0.6,0,1.2,0.1,1.7,0.3s0.9,0.5,1.3,0.8c0.4,0.4,0.6,0.8,0.8,1.3c0.2,0.5,0.3,1.1,0.3,1.8
				c0,0.7-0.1,1.2-0.3,1.8c-0.2,0.5-0.5,1-0.8,1.3c-0.4,0.4-0.8,0.7-1.3,0.8s-1.1,0.3-1.7,0.3s-1.2-0.1-1.7-0.3
				c-0.5-0.2-0.9-0.5-1.3-0.8c-0.4-0.4-0.6-0.8-0.8-1.3c-0.2-0.5-0.3-1.1-0.3-1.8c0-0.6,0.1-1.2,0.3-1.8s0.5-1,0.8-1.3
				c0.4-0.4,0.8-0.6,1.3-0.8C179.9,266.2,180.4,266.1,181.1,266.1z M181.1,273c0.7,0,1.2-0.2,1.5-0.7s0.5-1.1,0.5-2
				c0-0.9-0.2-1.6-0.5-2s-0.8-0.7-1.5-0.7c-0.7,0-1.2,0.2-1.5,0.7s-0.5,1.1-0.5,2c0,0.9,0.2,1.5,0.5,2
				C179.9,272.8,180.4,273,181.1,273z"/>
			<path class="st7" d="M186.2,273.3c0-0.2,0-0.3,0.1-0.5c0.1-0.1,0.1-0.3,0.3-0.4c0.1-0.1,0.2-0.2,0.4-0.3c0.1-0.1,0.3-0.1,0.5-0.1
				c0.2,0,0.3,0,0.5,0.1c0.1,0.1,0.3,0.1,0.4,0.3c0.1,0.1,0.2,0.2,0.3,0.4c0.1,0.1,0.1,0.3,0.1,0.5c0,0.2,0,0.3-0.1,0.5
				c-0.1,0.1-0.1,0.3-0.3,0.4c-0.1,0.1-0.2,0.2-0.4,0.3c-0.1,0.1-0.3,0.1-0.5,0.1c-0.2,0-0.3,0-0.5-0.1c-0.1-0.1-0.3-0.1-0.4-0.3
				c-0.1-0.1-0.2-0.2-0.3-0.4C186.2,273.6,186.2,273.5,186.2,273.3z"/>
			<path class="st7" d="M197.1,262.7c0.5,0,1,0.1,1.5,0.2c0.4,0.2,0.8,0.4,1.1,0.7c0.3,0.3,0.6,0.6,0.7,1c0.2,0.4,0.3,0.9,0.3,1.4
				c0,0.4-0.1,0.8-0.2,1.2c-0.1,0.4-0.3,0.7-0.5,1c-0.2,0.3-0.5,0.7-0.7,1c-0.3,0.3-0.6,0.6-0.9,0.9l-2.6,2.7
				c0.3-0.1,0.5-0.1,0.8-0.2s0.5-0.1,0.7-0.1h3c0.2,0,0.4,0.1,0.5,0.2s0.2,0.3,0.2,0.5v1.2H193v-0.7c0-0.1,0-0.3,0.1-0.4
				c0.1-0.1,0.1-0.3,0.3-0.4l3.5-3.5c0.3-0.3,0.6-0.6,0.8-0.9c0.2-0.3,0.4-0.5,0.6-0.8s0.3-0.5,0.4-0.8c0.1-0.3,0.1-0.6,0.1-0.9
				c0-0.3,0-0.5-0.1-0.7c-0.1-0.2-0.2-0.4-0.3-0.5c-0.2-0.1-0.3-0.3-0.5-0.3s-0.4-0.1-0.7-0.1c-0.5,0-0.9,0.1-1.2,0.4
				s-0.5,0.6-0.6,1c-0.1,0.2-0.1,0.3-0.3,0.4c-0.1,0.1-0.3,0.1-0.4,0.1c-0.1,0-0.2,0-0.3,0l-1-0.2c0.1-0.6,0.2-1,0.5-1.5
				s0.5-0.8,0.9-1c0.3-0.3,0.7-0.5,1.2-0.6C196.1,262.8,196.6,262.7,197.1,262.7z"/>
			<path class="st7" d="M206.2,274.5c-0.6,0-1.1-0.1-1.6-0.2c-0.5-0.2-0.9-0.4-1.3-0.7s-0.6-0.6-0.8-1.1c-0.2-0.4-0.3-0.9-0.3-1.4
				c0-0.7,0.2-1.3,0.5-1.7c0.3-0.5,0.9-0.8,1.6-1.1c-0.6-0.2-1-0.6-1.3-1c-0.3-0.4-0.4-1-0.4-1.6c0-0.4,0.1-0.8,0.3-1.2
				c0.2-0.4,0.4-0.7,0.7-1c0.3-0.3,0.7-0.5,1.1-0.7s0.9-0.2,1.5-0.2c0.5,0,1,0.1,1.5,0.2s0.8,0.4,1.1,0.7c0.3,0.3,0.6,0.6,0.7,1
				c0.2,0.4,0.3,0.8,0.3,1.2c0,0.6-0.1,1.1-0.4,1.6c-0.3,0.4-0.7,0.8-1.3,1c0.7,0.2,1.2,0.6,1.6,1.1c0.3,0.5,0.5,1,0.5,1.7
				c0,0.5-0.1,1-0.3,1.4c-0.2,0.4-0.5,0.8-0.8,1.1c-0.4,0.3-0.8,0.5-1.3,0.7S206.8,274.5,206.2,274.5z M206.2,273
				c0.3,0,0.6,0,0.9-0.1c0.2-0.1,0.5-0.2,0.6-0.4c0.2-0.2,0.3-0.4,0.4-0.6c0.1-0.2,0.1-0.5,0.1-0.7c0-0.6-0.2-1.1-0.5-1.4
				s-0.8-0.5-1.5-0.5s-1.1,0.2-1.5,0.5s-0.5,0.8-0.5,1.4c0,0.3,0,0.5,0.1,0.7c0.1,0.2,0.2,0.4,0.4,0.6c0.2,0.2,0.4,0.3,0.6,0.4
				C205.6,272.9,205.9,273,206.2,273z M206.2,267.6c0.3,0,0.6-0.1,0.8-0.2s0.4-0.2,0.5-0.4s0.2-0.4,0.3-0.6c0.1-0.2,0.1-0.4,0.1-0.7
				c0-0.2,0-0.4-0.1-0.6c-0.1-0.2-0.2-0.4-0.3-0.5s-0.3-0.3-0.5-0.4s-0.5-0.1-0.8-0.1c-0.3,0-0.5,0-0.8,0.1
				c-0.2,0.1-0.4,0.2-0.5,0.4c-0.1,0.2-0.2,0.3-0.3,0.5s-0.1,0.4-0.1,0.6c0,0.2,0,0.5,0.1,0.7c0.1,0.2,0.2,0.4,0.3,0.6
				c0.1,0.2,0.3,0.3,0.5,0.4S205.9,267.6,206.2,267.6z"/>
			<path class="st7" d="M216.2,267.2c0.4,0,0.9,0.1,1.3,0.2c0.4,0.1,0.8,0.4,1.1,0.7c0.3,0.3,0.6,0.7,0.8,1.1
				c0.2,0.4,0.3,0.9,0.3,1.5c0,0.5-0.1,1-0.3,1.5s-0.5,0.9-0.8,1.2c-0.4,0.4-0.8,0.6-1.3,0.8c-0.5,0.2-1.1,0.3-1.7,0.3
				c-0.6,0-1.2-0.1-1.7-0.3c-0.5-0.2-0.9-0.5-1.3-0.8c-0.3-0.4-0.6-0.8-0.8-1.3c-0.2-0.5-0.3-1.1-0.3-1.7c0-0.5,0.1-1.1,0.3-1.7
				c0.2-0.6,0.6-1.2,1-1.8l2.8-3.7c0.1-0.1,0.2-0.2,0.4-0.3c0.2-0.1,0.4-0.1,0.6-0.1h1.8L215,267c-0.1,0.1-0.1,0.2-0.2,0.3
				s-0.1,0.2-0.2,0.2c0.2-0.1,0.5-0.2,0.7-0.3C215.6,267.2,215.9,267.2,216.2,267.2z M213.4,270.8c0,0.3,0,0.6,0.1,0.9
				s0.2,0.5,0.4,0.7c0.2,0.2,0.4,0.3,0.6,0.4c0.3,0.1,0.6,0.2,0.9,0.2c0.3,0,0.6-0.1,0.9-0.2c0.3-0.1,0.5-0.3,0.7-0.4
				c0.2-0.2,0.3-0.4,0.4-0.7c0.1-0.3,0.2-0.5,0.2-0.8c0-0.3-0.1-0.6-0.2-0.9c-0.1-0.3-0.2-0.5-0.4-0.7c-0.2-0.2-0.4-0.3-0.7-0.4
				c-0.3-0.1-0.5-0.1-0.9-0.1s-0.6,0.1-0.9,0.2s-0.5,0.3-0.7,0.4s-0.3,0.4-0.4,0.7C213.5,270.2,213.4,270.5,213.4,270.8z"/>
		</g>
		<g class="st6">
			<path class="st0" d="M56.4,286.2c0,0.8-0.1,1.4-0.4,2.1c-0.2,0.6-0.6,1.1-1,1.6s-1,0.8-1.6,1c-0.6,0.2-1.3,0.4-2,0.4h-3.8v-10
				h3.8c0.7,0,1.4,0.1,2,0.4c0.6,0.2,1.1,0.6,1.6,1s0.8,1,1,1.6C56.3,284.7,56.4,285.4,56.4,286.2z M55,286.2c0-0.6-0.1-1.2-0.3-1.7
				s-0.4-0.9-0.7-1.2c-0.3-0.3-0.7-0.6-1.1-0.8c-0.4-0.2-0.9-0.3-1.5-0.3h-2.4v7.8h2.4c0.5,0,1-0.1,1.5-0.3c0.4-0.2,0.8-0.4,1.1-0.8
				c0.3-0.3,0.5-0.7,0.7-1.2S55,286.8,55,286.2z"/>
			<path class="st0" d="M60.9,284c0.4,0,0.8,0.1,1.2,0.2s0.7,0.3,0.9,0.6c0.3,0.3,0.5,0.6,0.6,1c0.1,0.4,0.2,0.8,0.2,1.3
				c0,0.2,0,0.3-0.1,0.4s-0.1,0.1-0.2,0.1h-4.7c0,0.4,0.1,0.8,0.2,1.2c0.1,0.3,0.3,0.6,0.5,0.8c0.2,0.2,0.4,0.4,0.7,0.5
				c0.3,0.1,0.6,0.2,0.9,0.2c0.3,0,0.6,0,0.8-0.1c0.2-0.1,0.4-0.2,0.6-0.2c0.2-0.1,0.3-0.2,0.4-0.2c0.1-0.1,0.2-0.1,0.3-0.1
				c0.1,0,0.2,0,0.2,0.1l0.4,0.5c-0.2,0.2-0.3,0.3-0.6,0.5c-0.2,0.1-0.4,0.3-0.7,0.3s-0.5,0.2-0.8,0.2c-0.3,0-0.5,0.1-0.8,0.1
				c-0.5,0-0.9-0.1-1.4-0.2c-0.4-0.2-0.8-0.4-1.1-0.7c-0.3-0.3-0.5-0.7-0.7-1.2c-0.2-0.5-0.3-1-0.3-1.6c0-0.5,0.1-1,0.2-1.4
				c0.2-0.4,0.4-0.8,0.7-1.1c0.3-0.3,0.6-0.6,1-0.7S60.4,284,60.9,284z M60.9,284.9c-0.6,0-1.1,0.2-1.4,0.5s-0.6,0.8-0.6,1.4h3.9
				c0-0.3,0-0.6-0.1-0.8c-0.1-0.2-0.2-0.4-0.3-0.6c-0.2-0.2-0.3-0.3-0.6-0.4C61.5,285,61.2,284.9,60.9,284.9z"/>
			<path class="st0" d="M66.8,280.9v10.3h-1.2v-10.3H66.8z"/>
			<path class="st0" d="M71.8,284c0.4,0,0.8,0.1,1.2,0.2s0.7,0.3,0.9,0.6c0.3,0.3,0.5,0.6,0.6,1c0.1,0.4,0.2,0.8,0.2,1.3
				c0,0.2,0,0.3-0.1,0.4s-0.1,0.1-0.2,0.1h-4.7c0,0.4,0.1,0.8,0.2,1.2c0.1,0.3,0.3,0.6,0.5,0.8c0.2,0.2,0.4,0.4,0.7,0.5
				c0.3,0.1,0.6,0.2,0.9,0.2c0.3,0,0.6,0,0.8-0.1c0.2-0.1,0.4-0.2,0.6-0.2c0.2-0.1,0.3-0.2,0.4-0.2c0.1-0.1,0.2-0.1,0.3-0.1
				c0.1,0,0.2,0,0.2,0.1l0.4,0.5c-0.2,0.2-0.3,0.3-0.6,0.5c-0.2,0.1-0.4,0.3-0.7,0.3s-0.5,0.2-0.8,0.2c-0.3,0-0.5,0.1-0.8,0.1
				c-0.5,0-0.9-0.1-1.4-0.2c-0.4-0.2-0.8-0.4-1.1-0.7c-0.3-0.3-0.5-0.7-0.7-1.2c-0.2-0.5-0.3-1-0.3-1.6c0-0.5,0.1-1,0.2-1.4
				c0.2-0.4,0.4-0.8,0.7-1.1c0.3-0.3,0.6-0.6,1-0.7S71.3,284,71.8,284z M71.8,284.9c-0.6,0-1.1,0.2-1.4,0.5s-0.6,0.8-0.6,1.4h3.9
				c0-0.3,0-0.6-0.1-0.8c-0.1-0.2-0.2-0.4-0.3-0.6c-0.2-0.2-0.3-0.3-0.6-0.4C72.4,285,72.1,284.9,71.8,284.9z"/>
			<path class="st0" d="M78.7,284c0.3,0,0.6,0,0.9,0.1s0.5,0.2,0.7,0.3h1.9v0.5c0,0.2-0.1,0.3-0.3,0.3l-0.8,0.1
				c0.2,0.3,0.2,0.6,0.2,1c0,0.3-0.1,0.7-0.2,0.9c-0.1,0.3-0.3,0.5-0.6,0.7c-0.2,0.2-0.5,0.4-0.8,0.5c-0.3,0.1-0.7,0.2-1.1,0.2
				c-0.3,0-0.6,0-0.9-0.1c-0.1,0.1-0.3,0.2-0.3,0.3c-0.1,0.1-0.1,0.2-0.1,0.3c0,0.2,0.1,0.3,0.2,0.4c0.1,0.1,0.3,0.2,0.5,0.2
				c0.2,0,0.5,0.1,0.8,0.1s0.6,0,0.9,0s0.6,0,0.9,0.1c0.3,0.1,0.5,0.1,0.8,0.3c0.2,0.1,0.4,0.3,0.5,0.5c0.1,0.2,0.2,0.5,0.2,0.8
				c0,0.3-0.1,0.6-0.2,0.9c-0.2,0.3-0.4,0.5-0.7,0.8c-0.3,0.2-0.6,0.4-1,0.5c-0.4,0.1-0.9,0.2-1.4,0.2s-1-0.1-1.4-0.2
				c-0.4-0.1-0.7-0.2-1-0.4c-0.3-0.2-0.4-0.4-0.6-0.6s-0.2-0.5-0.2-0.7c0-0.4,0.1-0.6,0.3-0.9s0.5-0.4,0.9-0.6
				c-0.2-0.1-0.4-0.2-0.5-0.4c-0.1-0.2-0.2-0.4-0.2-0.6c0-0.1,0-0.2,0.1-0.3c0-0.1,0.1-0.2,0.2-0.3c0.1-0.1,0.2-0.2,0.3-0.3
				c0.1-0.1,0.2-0.2,0.4-0.3c-0.3-0.2-0.6-0.5-0.8-0.8c-0.2-0.3-0.3-0.7-0.3-1.1c0-0.3,0.1-0.7,0.2-0.9c0.1-0.3,0.3-0.5,0.6-0.7
				c0.2-0.2,0.5-0.4,0.9-0.5S78.3,284,78.7,284z M80.9,291.5c0-0.2,0-0.3-0.1-0.4c-0.1-0.1-0.2-0.2-0.4-0.3s-0.4-0.1-0.6-0.1
				c-0.2,0-0.5,0-0.7,0s-0.5,0-0.7,0s-0.5,0-0.7-0.1c-0.3,0.1-0.5,0.3-0.6,0.5c-0.2,0.2-0.2,0.4-0.2,0.7c0,0.2,0,0.3,0.1,0.4
				c0.1,0.1,0.2,0.3,0.4,0.4c0.2,0.1,0.4,0.2,0.6,0.2c0.3,0.1,0.6,0.1,0.9,0.1c0.3,0,0.6,0,0.9-0.1c0.3-0.1,0.5-0.2,0.7-0.3
				c0.2-0.1,0.3-0.2,0.4-0.4C80.9,291.9,80.9,291.7,80.9,291.5z M78.7,287.7c0.3,0,0.5,0,0.7-0.1c0.2-0.1,0.4-0.2,0.5-0.3
				s0.2-0.3,0.3-0.5s0.1-0.4,0.1-0.6c0-0.4-0.1-0.8-0.4-1s-0.6-0.4-1.2-0.4c-0.5,0-0.9,0.1-1.1,0.4s-0.4,0.6-0.4,1
				c0,0.2,0,0.4,0.1,0.6c0.1,0.2,0.2,0.3,0.3,0.5c0.1,0.1,0.3,0.2,0.5,0.3C78.3,287.7,78.5,287.7,78.7,287.7z"/>
			<path class="st0" d="M88.7,291.2h-0.6c-0.1,0-0.2,0-0.3-0.1c-0.1,0-0.1-0.1-0.1-0.2l-0.1-0.7c-0.2,0.2-0.4,0.3-0.5,0.5
				c-0.2,0.1-0.4,0.2-0.6,0.3c-0.2,0.1-0.4,0.2-0.6,0.2s-0.5,0.1-0.7,0.1c-0.3,0-0.5,0-0.8-0.1s-0.4-0.2-0.6-0.3
				c-0.2-0.2-0.3-0.3-0.4-0.6c-0.1-0.2-0.2-0.5-0.2-0.8c0-0.3,0.1-0.6,0.2-0.8s0.4-0.5,0.7-0.7c0.3-0.2,0.8-0.4,1.3-0.5
				c0.6-0.1,1.2-0.2,2-0.2v-0.6c0-0.6-0.1-1-0.4-1.3c-0.2-0.3-0.6-0.4-1-0.4c-0.3,0-0.6,0-0.8,0.1s-0.4,0.2-0.5,0.3
				c-0.2,0.1-0.3,0.2-0.4,0.3c-0.1,0.1-0.2,0.1-0.3,0.1c-0.1,0-0.2,0-0.2-0.1s-0.1-0.1-0.2-0.2l-0.2-0.4c0.4-0.4,0.8-0.7,1.3-0.8
				c0.5-0.2,1-0.3,1.5-0.3c0.4,0,0.7,0.1,1.1,0.2c0.3,0.1,0.6,0.3,0.8,0.5c0.2,0.2,0.4,0.5,0.5,0.8s0.2,0.7,0.2,1.1V291.2z
				 M85.5,290.4c0.2,0,0.4,0,0.6-0.1c0.2,0,0.4-0.1,0.5-0.2c0.2-0.1,0.3-0.2,0.5-0.3c0.1-0.1,0.3-0.2,0.4-0.4V288
				c-0.6,0-1.1,0-1.5,0.1c-0.4,0.1-0.7,0.2-1,0.3c-0.3,0.1-0.4,0.3-0.5,0.4c-0.1,0.2-0.2,0.3-0.2,0.5c0,0.2,0,0.3,0.1,0.5
				c0.1,0.1,0.1,0.2,0.2,0.3c0.1,0.1,0.2,0.2,0.4,0.2C85.2,290.4,85.3,290.4,85.5,290.4z"/>
			<path class="st0" d="M95.4,285.4c0,0.1-0.1,0.1-0.1,0.1c0,0-0.1,0-0.2,0s-0.1,0-0.2-0.1c-0.1-0.1-0.2-0.1-0.3-0.2
				c-0.1-0.1-0.3-0.1-0.5-0.2s-0.4-0.1-0.7-0.1c-0.3,0-0.7,0.1-0.9,0.2c-0.3,0.1-0.5,0.3-0.7,0.5s-0.3,0.5-0.4,0.8s-0.1,0.7-0.1,1.1
				c0,0.4,0,0.8,0.1,1.1c0.1,0.3,0.2,0.6,0.4,0.8s0.4,0.4,0.6,0.5c0.3,0.1,0.5,0.2,0.9,0.2c0.3,0,0.6,0,0.7-0.1
				c0.2-0.1,0.4-0.2,0.5-0.2c0.1-0.1,0.2-0.2,0.3-0.2c0.1-0.1,0.2-0.1,0.3-0.1c0.1,0,0.2,0,0.2,0.1l0.4,0.5
				c-0.3,0.4-0.7,0.7-1.2,0.8c-0.5,0.2-0.9,0.3-1.5,0.3c-0.4,0-0.9-0.1-1.2-0.2c-0.4-0.2-0.7-0.4-1-0.7c-0.3-0.3-0.5-0.7-0.7-1.1
				c-0.2-0.5-0.2-1-0.2-1.5c0-0.5,0.1-1,0.2-1.5c0.1-0.4,0.4-0.8,0.6-1.2c0.3-0.3,0.6-0.6,1-0.8c0.4-0.2,0.9-0.3,1.4-0.3
				c0.5,0,0.9,0.1,1.3,0.2c0.4,0.2,0.7,0.4,1,0.7L95.4,285.4z"/>
			<path class="st0" d="M98.8,281.9c0,0.1,0,0.2-0.1,0.3c0,0.1-0.1,0.2-0.2,0.3c-0.1,0.1-0.2,0.1-0.3,0.2c-0.1,0-0.2,0.1-0.3,0.1
				c-0.1,0-0.2,0-0.3-0.1s-0.2-0.1-0.3-0.2c-0.1-0.1-0.1-0.2-0.2-0.3c0-0.1-0.1-0.2-0.1-0.3c0-0.1,0-0.2,0.1-0.3
				c0-0.1,0.1-0.2,0.2-0.3c0.1-0.1,0.2-0.1,0.3-0.2c0.1,0,0.2-0.1,0.3-0.1c0.1,0,0.2,0,0.3,0.1c0.1,0,0.2,0.1,0.3,0.2
				c0.1,0.1,0.1,0.2,0.2,0.3C98.8,281.6,98.8,281.8,98.8,281.9z M98.5,284.1v7.1h-1.2v-7.1H98.5z"/>
			<path class="st0" d="M103.6,284c0.5,0,1,0.1,1.4,0.3c0.4,0.2,0.8,0.4,1.1,0.7s0.5,0.7,0.7,1.2c0.2,0.5,0.2,1,0.2,1.5
				c0,0.6-0.1,1.1-0.2,1.5c-0.2,0.4-0.4,0.8-0.7,1.1s-0.6,0.6-1.1,0.7c-0.4,0.2-0.9,0.3-1.4,0.3s-1-0.1-1.4-0.3
				c-0.4-0.2-0.8-0.4-1.1-0.7s-0.5-0.7-0.7-1.1c-0.2-0.4-0.2-1-0.2-1.5c0-0.6,0.1-1.1,0.2-1.5c0.2-0.5,0.4-0.8,0.7-1.2
				s0.6-0.6,1.1-0.7C102.6,284.1,103.1,284,103.6,284z M103.6,290.3c0.7,0,1.2-0.2,1.6-0.7c0.3-0.5,0.5-1.1,0.5-2
				c0-0.8-0.2-1.5-0.5-2c-0.3-0.5-0.9-0.7-1.6-0.7c-0.4,0-0.7,0.1-0.9,0.2c-0.3,0.1-0.5,0.3-0.7,0.5s-0.3,0.5-0.4,0.8
				c-0.1,0.3-0.1,0.7-0.1,1.1s0,0.8,0.1,1.1s0.2,0.6,0.4,0.8c0.2,0.2,0.4,0.4,0.7,0.5C102.9,290.3,103.2,290.3,103.6,290.3z
				 M105.6,281l-1.6,1.8c-0.1,0.1-0.1,0.1-0.2,0.2s-0.1,0-0.2,0h-0.7l1-1.7c0.1-0.1,0.1-0.2,0.2-0.2s0.2-0.1,0.3-0.1H105.6z"/>
			<path class="st0" d="M108.5,291.2v-7.1h0.7c0.2,0,0.3,0.1,0.3,0.3l0.1,0.8c0.3-0.3,0.7-0.6,1-0.8s0.8-0.3,1.3-0.3
				c0.4,0,0.7,0.1,1,0.2c0.3,0.1,0.5,0.3,0.7,0.5c0.2,0.2,0.3,0.5,0.5,0.9c0.1,0.3,0.2,0.7,0.2,1.1v4.5h-1.2v-4.5
				c0-0.5-0.1-1-0.4-1.2c-0.2-0.3-0.6-0.4-1.1-0.4c-0.4,0-0.7,0.1-1,0.3c-0.3,0.2-0.6,0.4-0.9,0.7v5.2H108.5z"/>
			<path class="st0" d="M129,289.1c0.1,0,0.1,0,0.2,0.1l0.5,0.6c-0.4,0.5-0.9,0.8-1.5,1.1c-0.6,0.3-1.3,0.4-2.1,0.4
				c-0.7,0-1.4-0.1-2-0.4c-0.6-0.2-1.1-0.6-1.5-1s-0.7-1-1-1.6c-0.2-0.6-0.3-1.3-0.3-2.1s0.1-1.4,0.4-2.1s0.6-1.2,1-1.6
				c0.4-0.5,1-0.8,1.6-1.1c0.6-0.2,1.3-0.4,2-0.4c0.7,0,1.4,0.1,1.9,0.3c0.5,0.2,1,0.5,1.4,0.9l-0.4,0.6c0,0-0.1,0.1-0.1,0.1
				c0,0-0.1,0-0.2,0c-0.1,0-0.1,0-0.2-0.1c-0.1,0-0.1-0.1-0.2-0.2c-0.1-0.1-0.2-0.1-0.3-0.2c-0.1-0.1-0.3-0.1-0.4-0.2
				c-0.2-0.1-0.4-0.1-0.6-0.2c-0.2,0-0.5-0.1-0.8-0.1c-0.5,0-1,0.1-1.5,0.3s-0.8,0.4-1.2,0.8c-0.3,0.3-0.6,0.8-0.8,1.2
				s-0.3,1-0.3,1.6c0,0.6,0.1,1.2,0.3,1.7s0.4,0.9,0.7,1.2c0.3,0.3,0.7,0.6,1.1,0.8c0.4,0.2,0.9,0.3,1.4,0.3c0.3,0,0.6,0,0.8-0.1
				c0.2,0,0.5-0.1,0.7-0.2c0.2-0.1,0.4-0.2,0.6-0.3c0.2-0.1,0.4-0.3,0.5-0.4C128.8,289.2,128.9,289.1,129,289.1z"/>
			<path class="st0" d="M132.4,284.1v4.5c0,0.5,0.1,1,0.4,1.2c0.2,0.3,0.6,0.4,1.1,0.4c0.4,0,0.7-0.1,1-0.3c0.3-0.2,0.6-0.4,0.9-0.7
				v-5.2h1.2v7.1h-0.7c-0.2,0-0.3-0.1-0.3-0.3l-0.1-0.8c-0.3,0.3-0.7,0.6-1,0.8c-0.4,0.2-0.8,0.3-1.3,0.3c-0.4,0-0.7-0.1-1-0.2
				c-0.3-0.1-0.5-0.3-0.7-0.5s-0.4-0.5-0.5-0.8c-0.1-0.3-0.2-0.7-0.2-1.1v-4.5H132.4z"/>
			<path class="st0" d="M144.3,291.2h-0.6c-0.1,0-0.2,0-0.3-0.1c-0.1,0-0.1-0.1-0.1-0.2l-0.1-0.7c-0.2,0.2-0.4,0.3-0.5,0.5
				c-0.2,0.1-0.4,0.2-0.6,0.3c-0.2,0.1-0.4,0.2-0.6,0.2c-0.2,0-0.5,0.1-0.7,0.1c-0.3,0-0.5,0-0.8-0.1s-0.4-0.2-0.6-0.3
				s-0.3-0.3-0.4-0.6c-0.1-0.2-0.2-0.5-0.2-0.8c0-0.3,0.1-0.6,0.2-0.8c0.2-0.3,0.4-0.5,0.7-0.7c0.3-0.2,0.8-0.4,1.3-0.5
				c0.6-0.1,1.2-0.2,2-0.2v-0.6c0-0.6-0.1-1-0.4-1.3c-0.2-0.3-0.6-0.4-1-0.4c-0.3,0-0.6,0-0.8,0.1s-0.4,0.2-0.5,0.3
				c-0.2,0.1-0.3,0.2-0.4,0.3c-0.1,0.1-0.2,0.1-0.3,0.1c-0.1,0-0.2,0-0.2-0.1c-0.1,0-0.1-0.1-0.2-0.2l-0.2-0.4
				c0.4-0.4,0.8-0.7,1.3-0.8c0.5-0.2,1-0.3,1.5-0.3c0.4,0,0.8,0.1,1.1,0.2c0.3,0.1,0.6,0.3,0.8,0.5c0.2,0.2,0.4,0.5,0.5,0.8
				s0.2,0.7,0.2,1.1V291.2z M141,290.4c0.2,0,0.4,0,0.6-0.1c0.2,0,0.4-0.1,0.5-0.2c0.2-0.1,0.3-0.2,0.5-0.3c0.1-0.1,0.3-0.2,0.4-0.4
				V288c-0.6,0-1.1,0-1.5,0.1c-0.4,0.1-0.7,0.2-1,0.3c-0.3,0.1-0.4,0.3-0.5,0.4c-0.1,0.2-0.2,0.3-0.2,0.5c0,0.2,0,0.3,0.1,0.5
				c0.1,0.1,0.1,0.2,0.2,0.3c0.1,0.1,0.2,0.2,0.4,0.2C140.7,290.4,140.9,290.4,141,290.4z"/>
			<path class="st0" d="M147.2,284.1v4.5c0,0.5,0.1,1,0.4,1.2c0.2,0.3,0.6,0.4,1.1,0.4c0.4,0,0.7-0.1,1-0.3c0.3-0.2,0.6-0.4,0.9-0.7
				v-5.2h1.2v7.1h-0.7c-0.2,0-0.3-0.1-0.3-0.3l-0.1-0.8c-0.3,0.3-0.7,0.6-1,0.8c-0.4,0.2-0.8,0.3-1.3,0.3c-0.4,0-0.7-0.1-1-0.2
				c-0.3-0.1-0.5-0.3-0.7-0.5s-0.4-0.5-0.5-0.8c-0.1-0.3-0.2-0.7-0.2-1.1v-4.5H147.2z"/>
			<path class="st0" d="M153.9,291.2v-10.3h1.2v4.2c0.3-0.3,0.6-0.6,1-0.8c0.4-0.2,0.8-0.3,1.3-0.3c0.4,0,0.7,0.1,1,0.2
				c0.3,0.1,0.5,0.3,0.7,0.5c0.2,0.2,0.3,0.5,0.5,0.9c0.1,0.3,0.2,0.7,0.2,1.1v4.5h-1.2v-4.5c0-0.5-0.1-1-0.4-1.2
				c-0.2-0.3-0.6-0.4-1.1-0.4c-0.4,0-0.7,0.1-1,0.3c-0.3,0.2-0.6,0.4-0.9,0.7v5.2H153.9z"/>
			<path class="st0" d="M163.9,291.3c-0.6,0-1-0.2-1.3-0.5c-0.3-0.3-0.5-0.8-0.5-1.4v-4.3h-0.9c-0.1,0-0.1,0-0.2-0.1
				c-0.1,0-0.1-0.1-0.1-0.2v-0.5l1.2-0.1l0.3-2.2c0-0.1,0-0.1,0.1-0.2c0.1,0,0.1-0.1,0.2-0.1h0.6v2.4h2v0.9h-2v4.3
				c0,0.3,0.1,0.5,0.2,0.7s0.3,0.2,0.6,0.2c0.1,0,0.2,0,0.3-0.1c0.1,0,0.2-0.1,0.2-0.1c0.1,0,0.1-0.1,0.2-0.1s0.1-0.1,0.1-0.1
				c0.1,0,0.1,0,0.2,0.1l0.4,0.6c-0.2,0.2-0.5,0.4-0.8,0.5S164.2,291.3,163.9,291.3z"/>
			<path class="st0" d="M169.8,284c0.4,0,0.8,0.1,1.2,0.2s0.7,0.3,0.9,0.6c0.3,0.3,0.5,0.6,0.6,1c0.1,0.4,0.2,0.8,0.2,1.3
				c0,0.2,0,0.3-0.1,0.4c0,0.1-0.1,0.1-0.2,0.1h-4.7c0,0.4,0.1,0.8,0.2,1.2s0.3,0.6,0.5,0.8c0.2,0.2,0.4,0.4,0.7,0.5
				c0.3,0.1,0.6,0.2,0.9,0.2c0.3,0,0.6,0,0.8-0.1s0.4-0.2,0.6-0.2s0.3-0.2,0.4-0.2c0.1-0.1,0.2-0.1,0.3-0.1c0.1,0,0.2,0,0.2,0.1
				l0.4,0.5c-0.2,0.2-0.3,0.3-0.6,0.5s-0.4,0.3-0.7,0.3c-0.2,0.1-0.5,0.2-0.8,0.2c-0.3,0-0.5,0.1-0.8,0.1c-0.5,0-0.9-0.1-1.4-0.2
				c-0.4-0.2-0.8-0.4-1.1-0.7c-0.3-0.3-0.5-0.7-0.7-1.2c-0.2-0.5-0.3-1-0.3-1.6c0-0.5,0.1-1,0.2-1.4c0.2-0.4,0.4-0.8,0.7-1.1
				c0.3-0.3,0.6-0.6,1-0.7S169.2,284,169.8,284z M169.8,284.9c-0.6,0-1.1,0.2-1.4,0.5s-0.6,0.8-0.6,1.4h3.9c0-0.3,0-0.6-0.1-0.8
				s-0.2-0.4-0.3-0.6c-0.2-0.2-0.3-0.3-0.6-0.4C170.3,285,170.1,284.9,169.8,284.9z M171.8,281l-1.6,1.8c-0.1,0.1-0.1,0.1-0.2,0.2
				c-0.1,0-0.1,0-0.2,0H169l1-1.7c0.1-0.1,0.1-0.2,0.2-0.2s0.2-0.1,0.3-0.1H171.8z"/>
			<path class="st0" d="M174.3,291.2v-7.1h0.7c0.2,0,0.3,0.1,0.3,0.3l0.1,0.7c0.3-0.3,0.6-0.6,0.9-0.8c0.3-0.2,0.7-0.3,1.1-0.3
				c0.5,0,0.9,0.1,1.2,0.4c0.3,0.3,0.5,0.6,0.6,1.1c0.1-0.3,0.2-0.5,0.4-0.7c0.2-0.2,0.3-0.3,0.5-0.5c0.2-0.1,0.4-0.2,0.6-0.3
				s0.5-0.1,0.7-0.1c0.4,0,0.7,0.1,1,0.2c0.3,0.1,0.5,0.3,0.7,0.5c0.2,0.2,0.4,0.5,0.5,0.8c0.1,0.3,0.2,0.7,0.2,1.1v4.5h-1.2v-4.5
				c0-0.6-0.1-1-0.4-1.3s-0.6-0.4-1.1-0.4c-0.2,0-0.4,0-0.6,0.1s-0.3,0.2-0.5,0.3c-0.1,0.1-0.3,0.3-0.3,0.5
				c-0.1,0.2-0.1,0.5-0.1,0.7v4.5h-1.2v-4.5c0-0.6-0.1-1-0.3-1.3s-0.6-0.4-1-0.4c-0.3,0-0.6,0.1-0.9,0.2c-0.3,0.2-0.5,0.4-0.7,0.7
				v5.3H174.3z"/>
			<path class="st0" d="M188.6,284c0.5,0,1,0.1,1.4,0.3c0.4,0.2,0.8,0.4,1.1,0.7c0.3,0.3,0.5,0.7,0.7,1.2c0.2,0.5,0.2,1,0.2,1.5
				c0,0.6-0.1,1.1-0.2,1.5c-0.2,0.4-0.4,0.8-0.7,1.1c-0.3,0.3-0.6,0.6-1.1,0.7c-0.4,0.2-0.9,0.3-1.4,0.3s-1-0.1-1.4-0.3
				c-0.4-0.2-0.8-0.4-1.1-0.7c-0.3-0.3-0.5-0.7-0.7-1.1s-0.2-1-0.2-1.5c0-0.6,0.1-1.1,0.2-1.5s0.4-0.8,0.7-1.2
				c0.3-0.3,0.6-0.6,1.1-0.7C187.7,284.1,188.1,284,188.6,284z M188.6,290.3c0.7,0,1.2-0.2,1.6-0.7c0.3-0.5,0.5-1.1,0.5-2
				c0-0.8-0.2-1.5-0.5-2c-0.3-0.5-0.9-0.7-1.6-0.7c-0.4,0-0.7,0.1-0.9,0.2s-0.5,0.3-0.7,0.5c-0.2,0.2-0.3,0.5-0.4,0.8
				c-0.1,0.3-0.1,0.7-0.1,1.1s0,0.8,0.1,1.1s0.2,0.6,0.4,0.8c0.2,0.2,0.4,0.4,0.7,0.5C188,290.3,188.3,290.3,188.6,290.3z"/>
			<path class="st0" d="M198.4,285.4c0,0.1-0.1,0.1-0.1,0.1s-0.1,0-0.2,0s-0.1,0-0.2-0.1c-0.1-0.1-0.2-0.1-0.3-0.2
				c-0.1-0.1-0.3-0.1-0.5-0.2s-0.4-0.1-0.7-0.1c-0.3,0-0.7,0.1-0.9,0.2c-0.3,0.1-0.5,0.3-0.7,0.5s-0.3,0.5-0.4,0.8s-0.1,0.7-0.1,1.1
				c0,0.4,0,0.8,0.1,1.1s0.2,0.6,0.4,0.8c0.2,0.2,0.4,0.4,0.6,0.5c0.3,0.1,0.5,0.2,0.9,0.2c0.3,0,0.6,0,0.7-0.1
				c0.2-0.1,0.4-0.2,0.5-0.2s0.2-0.2,0.3-0.2c0.1-0.1,0.2-0.1,0.3-0.1c0.1,0,0.2,0,0.2,0.1l0.3,0.5c-0.3,0.4-0.7,0.7-1.2,0.8
				c-0.5,0.2-1,0.3-1.5,0.3c-0.4,0-0.9-0.1-1.2-0.2c-0.4-0.2-0.7-0.4-1-0.7c-0.3-0.3-0.5-0.7-0.7-1.1c-0.2-0.5-0.2-1-0.2-1.5
				c0-0.5,0.1-1,0.2-1.5c0.1-0.4,0.4-0.8,0.6-1.2c0.3-0.3,0.6-0.6,1-0.8c0.4-0.2,0.9-0.3,1.4-0.3c0.5,0,0.9,0.1,1.3,0.2
				c0.4,0.2,0.7,0.4,1,0.7L198.4,285.4z"/>
		</g>
	</g>
</g>
</svg>
