<svg xmlns="http://www.w3.org/2000/svg" viewBox="0 0 181.31 231.4"><defs><style>.cls-1{fill:#cdcdcd;}.cls-2{fill:#e9e9e9;}.cls-3{fill:#6d0e29;}.cls-4{fill:#a21239;}.cls-5{fill:#da1549;}.cls-6,.cls-7{fill:none;stroke:#6d0e29;stroke-miterlimit:10;}.cls-7{stroke-width:0.5px;}.cls-8{font-size:16px;fill:#fff;font-family:Lato-Bold, Lato;}.cls-9{font-weight:700;}.cls-10{letter-spacing:-0.05em;}.cls-11{letter-spacing:-0.07em;}.cls-12{font-size:14px;fill:#f1f1f1;font-family:Lato-Regular, Lato;}</style></defs><title>avniñosheroes173.bj</title><g id="Capa_2" data-name="Capa 2"><g id="edificios"><g id="av._niños_héroes_173_benito_juárez" data-name="av. niños héroes 173, benito juárez"><polygon class="cls-1" points="151.41 123.76 80.84 184.75 79.44 158.81 152.13 102.5 151.41 123.76"/><polygon class="cls-2" points="80.84 184.75 40.63 173.83 38.01 148.67 79.44 158.81 80.84 184.75"/><polygon class="cls-3" points="71.88 9.6 92.86 0.5 155.42 5.53 72.77 35.15 25.63 29.65 63.84 13.08 72.1 13.69 80.74 14.33 88.22 10.74 71.88 9.6"/><polygon class="cls-4" points="72.77 35.15 155.42 5.53 154.53 31.76 74.62 69.49 72.77 35.15"/><polygon class="cls-5" points="25.63 29.65 72.77 35.15 74.62 69.49 29.05 62.55 25.63 29.65"/><polygon class="cls-5" points="88.22 10.74 80.74 14.33 72.1 13.69 71.88 9.6 88.22 10.74"/><polygon class="cls-1" points="74.62 69.49 154.53 31.76 153.69 56.6 76.34 101.39 74.62 69.49"/><polygon class="cls-2" points="29.05 62.55 74.62 69.49 76.34 101.39 32.24 93.21 29.05 62.55"/><polygon class="cls-1" points="153.69 56.6 152.89 80.15 77.94 131.09 76.34 101.39 153.69 56.6"/><polygon class="cls-2" points="76.34 101.39 77.94 131.09 35.22 121.85 32.24 93.21 76.34 101.39"/><polygon class="cls-1" points="77.94 131.09 152.89 80.15 152.13 102.5 79.44 158.81 77.94 131.09"/><polygon class="cls-2" points="35.22 121.85 77.94 131.09 79.44 158.81 38.01 148.67 35.22 121.85"/><line class="cls-6" x1="151.41" y1="123.76" x2="80.84" y2="184.75"/><line class="cls-6" x1="80.84" y1="184.75" x2="40.63" y2="173.83"/><line class="cls-6" x1="71.88" y1="9.6" x2="92.86" y2="0.5"/><line class="cls-6" x1="92.86" y1="0.5" x2="155.42" y2="5.53"/><line class="cls-7" x1="155.42" y1="5.53" x2="72.77" y2="35.15"/><line class="cls-7" x1="72.77" y1="35.15" x2="25.63" y2="29.65"/><line class="cls-6" x1="25.63" y1="29.65" x2="63.84" y2="13.08"/><line class="cls-6" x1="80.74" y1="14.33" x2="88.22" y2="10.74"/><line class="cls-7" x1="88.22" y1="10.74" x2="71.88" y2="9.6"/><line class="cls-6" x1="151.41" y1="123.76" x2="152.13" y2="102.5"/><line class="cls-7" x1="80.84" y1="184.75" x2="79.44" y2="158.81"/><line class="cls-6" x1="40.63" y1="173.83" x2="38.01" y2="148.67"/><line class="cls-7" x1="74.62" y1="69.49" x2="72.77" y2="35.15"/><line class="cls-6" x1="154.53" y1="31.76" x2="155.42" y2="5.53"/><line class="cls-7" x1="74.62" y1="69.49" x2="154.53" y2="31.76"/><line class="cls-6" x1="29.05" y1="62.55" x2="25.63" y2="29.65"/><line class="cls-7" x1="74.62" y1="69.49" x2="29.05" y2="62.55"/><line class="cls-7" x1="77.94" y1="131.09" x2="76.34" y2="101.39"/><line class="cls-6" x1="152.89" y1="80.15" x2="153.69" y2="56.6"/><line class="cls-7" x1="77.94" y1="131.09" x2="152.89" y2="80.15"/><line class="cls-6" x1="35.22" y1="121.85" x2="32.24" y2="93.21"/><line class="cls-7" x1="35.22" y1="121.85" x2="77.94" y2="131.09"/><line class="cls-7" x1="76.34" y1="101.39" x2="74.62" y2="69.49"/><line class="cls-6" x1="153.69" y1="56.6" x2="154.53" y2="31.76"/><line class="cls-7" x1="76.34" y1="101.39" x2="153.69" y2="56.6"/><line class="cls-6" x1="152.13" y1="102.5" x2="152.89" y2="80.15"/><line class="cls-7" x1="79.44" y1="158.81" x2="77.94" y2="131.09"/><line class="cls-7" x1="152.13" y1="102.5" x2="79.44" y2="158.81"/><line class="cls-6" x1="32.24" y1="93.21" x2="29.05" y2="62.55"/><line class="cls-7" x1="32.24" y1="93.21" x2="76.34" y2="101.39"/><line class="cls-6" x1="38.01" y1="148.67" x2="35.22" y2="121.85"/><line class="cls-7" x1="38.01" y1="148.67" x2="79.44" y2="158.81"/><line class="cls-6" x1="72.1" y1="13.69" x2="71.88" y2="9.6"/><line class="cls-6" x1="63.84" y1="13.08" x2="72.1" y2="13.69"/><line class="cls-6" x1="72.1" y1="13.69" x2="80.74" y2="14.33"/></g><text class="cls-8" transform="translate(0 212.04)"><tspan class="cls-9"><tspan class="cls-10">A</tspan><tspan class="cls-11" x="10.63" y="0">v</tspan><tspan x="18.08" y="0">. Niños Héroes No. 173</tspan></tspan><tspan class="cls-12"><tspan x="0" y="16.8" xml:space="preserve">Delegación  Benito Juárez</tspan></tspan></text></g></g></svg>