<?xml version="1.0" encoding="utf-8"?>
<!-- Generator: Adobe Illustrator 22.1.0, SVG Export Plug-In . SVG Version: 6.00 Build 0)  -->
<svg version="1.1" id="Capa_1" xmlns="http://www.w3.org/2000/svg" xmlns:xlink="http://www.w3.org/1999/xlink" x="0px" y="0px"
	 viewBox="0 0 406.7 348.7" style="enable-background:new 0 0 406.7 348.7;" xml:space="preserve">
<style type="text/css">
	.st0{fill:#F0F0F0;}
	.st1{fill:#F5F5F5;}
	.st2{fill:#C0C0C0;}
	.st3{fill:none;stroke:#6D0E29;stroke-miterlimit:10;}
	.st4{fill:none;stroke:#6D0E29;stroke-width:0.5;stroke-miterlimit:10;}
	.st5{enable-background:new    ;}
	.st6{fill:#FFFFFF;}
	.st7{fill:#F1F1F1;}
</style>
<title>calsanantonioabad122.cu</title>
<g id="Capa_2_1_">
	<g id="edificios">
		<g id="calzada_san_antonio_abad_122_cuauhtémoc">
			<polygon class="st0" points="400.1,184.4 368.3,197.3 368.5,191.3 368.8,178.7 400.7,166.5 			"/>
			<polygon class="st0" points="367.3,232.1 303.6,260.5 303.8,238.9 367.9,211.8 			"/>
			<polygon class="st1" points="303.6,260.5 257.1,242.5 257,221.8 303.8,238.9 			"/>
			<polygon class="st0" points="257.1,242.5 114.8,300.3 113.7,276.9 257,221.8 			"/>
			<polygon class="st1" points="114.8,300.3 16,249.2 14.4,228.1 113.7,276.9 			"/>
			<polygon class="st2" points="0.5,49.5 300.8,0.5 406.2,15.5 323.8,32.2 372.6,40.4 305.3,55.5 256,45.9 103.9,76.7 			"/>
			<polygon class="st0" points="323.8,32.2 406.2,15.5 405.5,35.1 372.5,42.6 372.6,40.4 			"/>
			<polygon class="st0" points="305.3,55.5 372.6,40.4 372.5,42.6 372,62.7 372,62.8 305.1,79.5 			"/>
			<polygon class="st1" points="256,45.9 305.3,55.5 305.1,79.5 256.1,68.9 			"/>
			<polygon class="st0" points="103.9,76.7 256,45.9 256.1,68.9 105.2,103.1 			"/>
			<polygon class="st1" points="0.5,49.5 103.9,76.7 105.2,103.1 2.3,72.8 			"/>
			<polygon class="st0" points="105.2,103.1 256.1,68.9 256.2,91.6 106.4,129 			"/>
			<polygon class="st1" points="2.3,72.8 105.2,103.1 106.4,129 4.1,95.9 			"/>
			<polygon class="st1" points="9.4,163.3 7.6,141.1 108.9,179.7 110.1,204.6 			"/>
			<polygon class="st0" points="110.1,204.6 108.9,179.7 256.5,136.1 256.6,157.9 			"/>
			<polygon class="st1" points="256.6,157.9 256.5,136.1 304.5,149.7 304.4,172.4 			"/>
			<polygon class="st0" points="110.1,204.6 256.6,157.9 256.8,179.4 111.3,229 			"/>
			<polygon class="st1" points="9.4,163.3 110.1,204.6 111.3,229 11.1,185.2 			"/>
			<polygon class="st1" points="256.2,91.6 256.1,68.9 305.1,79.5 304.9,103.2 			"/>
			<polygon class="st0" points="106.4,129 256.2,91.6 256.4,114 107.7,154.6 			"/>
			<polygon class="st1" points="106.4,129 107.7,154.6 5.9,118.6 4.1,95.9 			"/>
			<polygon class="st1" points="256.4,114 256.2,91.6 304.9,103.2 304.8,126.6 			"/>
			<polygon class="st0" points="107.7,154.6 256.4,114 256.5,136.1 108.9,179.7 			"/>
			<polygon class="st1" points="107.7,154.6 108.9,179.7 7.6,141.1 5.9,118.6 			"/>
			<polygon class="st1" points="256.5,136.1 256.4,114 304.8,126.6 304.5,149.7 			"/>
			<polygon class="st1" points="256.8,179.4 256.6,157.9 304.4,172.4 304.2,194.9 			"/>
			<polygon class="st0" points="111.3,229 256.8,179.4 256.9,200.7 112.5,253.1 			"/>
			<polygon class="st1" points="111.3,229 112.5,253.1 12.8,206.8 11.1,185.2 			"/>
			<polygon class="st1" points="256.9,200.7 256.8,179.4 304.2,194.9 304,217.1 			"/>
			<polygon class="st0" points="112.5,253.1 256.9,200.7 257,221.8 113.7,276.9 			"/>
			<polygon class="st1" points="112.5,253.1 113.7,276.9 14.4,228.1 12.8,206.8 			"/>
			<polygon class="st1" points="257,221.8 256.9,200.7 304,217.1 303.8,238.9 			"/>
			<polygon class="st0" points="305.1,79.5 372,62.8 371.4,82.6 371.4,84.9 304.9,103.2 			"/>
			<polygon class="st0" points="304.4,172.4 304.5,149.7 370.2,128.3 369.8,140.9 369.6,149.5 			"/>
			<polygon class="st0" points="304.8,126.6 304.9,103.2 371.4,84.9 370.9,102.2 370.8,106.7 			"/>
			<polygon class="st0" points="304,217.1 304.2,194.9 369,170.6 368.8,178.7 368.5,191.3 			"/>
			<polygon class="st0" points="304.2,194.9 304.4,172.4 369.6,149.5 369.3,159.9 369,170.6 			"/>
			<polygon class="st0" points="304.5,149.7 304.8,126.6 370.8,106.7 370.4,121.7 370.2,128.3 			"/>
			<polygon class="st0" points="303.8,238.9 304,217.1 368.5,191.3 368.3,197.3 367.9,211.8 			"/>
			<polygon class="st0" points="372.5,42.6 405.5,35.1 404.8,54.5 372,62.7 			"/>
			<polygon class="st0" points="403.4,92.6 402.7,111.4 370.4,121.7 370.8,106.7 370.9,102.2 			"/>
			<polygon class="st0" points="370.4,121.7 402.7,111.4 402,129.9 369.8,140.9 370.2,128.3 			"/>
			<polygon class="st0" points="404.8,54.5 404.1,73.7 371.4,82.6 372,62.8 372,62.7 			"/>
			<polygon class="st0" points="371.4,82.6 404.1,73.7 403.4,92.6 370.9,102.2 371.4,84.9 			"/>
			<polygon class="st0" points="402,129.9 401.4,148.3 369.3,159.9 369.6,149.5 369.8,140.9 			"/>
			<polygon class="st0" points="369.3,159.9 401.4,148.3 400.7,166.5 368.8,178.7 369,170.6 			"/>
			<line class="st3" x1="400.1" y1="184.4" x2="368.3" y2="197.3"/>
			<line class="st3" x1="367.3" y1="232.1" x2="303.6" y2="260.5"/>
			<line class="st3" x1="303.6" y1="260.5" x2="257.1" y2="242.5"/>
			<line class="st3" x1="257.1" y1="242.5" x2="114.8" y2="300.3"/>
			<line class="st3" x1="114.8" y1="300.3" x2="16" y2="249.2"/>
			<line class="st3" x1="0.5" y1="49.5" x2="300.8" y2="0.5"/>
			<line class="st3" x1="300.8" y1="0.5" x2="406.2" y2="15.5"/>
			<line class="st4" x1="406.2" y1="15.5" x2="323.8" y2="32.2"/>
			<line class="st3" x1="323.8" y1="32.2" x2="372.6" y2="40.4"/>
			<line class="st4" x1="372.6" y1="40.4" x2="305.3" y2="55.5"/>
			<line class="st4" x1="305.3" y1="55.5" x2="256" y2="45.9"/>
			<line class="st4" x1="256" y1="45.9" x2="103.9" y2="76.7"/>
			<line class="st4" x1="103.9" y1="76.7" x2="0.5" y2="49.5"/>
			<line class="st3" x1="16" y1="249.2" x2="14.4" y2="228.1"/>
			<line class="st3" x1="400.1" y1="184.4" x2="400.7" y2="166.5"/>
			<line class="st3" x1="367.3" y1="232.1" x2="367.9" y2="211.8"/>
			<line class="st4" x1="303.6" y1="260.5" x2="303.8" y2="238.9"/>
			<line class="st4" x1="257.1" y1="242.5" x2="257" y2="221.8"/>
			<line class="st4" x1="114.8" y1="300.3" x2="113.7" y2="276.9"/>
			<line class="st4" x1="105.2" y1="103.1" x2="103.9" y2="76.7"/>
			<line class="st4" x1="256.1" y1="68.9" x2="256" y2="45.9"/>
			<line class="st4" x1="105.2" y1="103.1" x2="256.1" y2="68.9"/>
			<line class="st3" x1="2.3" y1="72.8" x2="0.5" y2="49.5"/>
			<line class="st4" x1="105.2" y1="103.1" x2="2.3" y2="72.8"/>
			<line class="st4" x1="110.1" y1="204.6" x2="108.9" y2="179.7"/>
			<line class="st4" x1="256.6" y1="157.9" x2="256.5" y2="136.1"/>
			<line class="st4" x1="110.1" y1="204.6" x2="256.6" y2="157.9"/>
			<line class="st3" x1="9.4" y1="163.3" x2="7.6" y2="141.1"/>
			<line class="st4" x1="110.1" y1="204.6" x2="9.4" y2="163.3"/>
			<line class="st4" x1="107.7" y1="154.6" x2="106.4" y2="129"/>
			<line class="st4" x1="256.4" y1="114" x2="256.2" y2="91.6"/>
			<line class="st4" x1="107.7" y1="154.6" x2="256.4" y2="114"/>
			<line class="st4" x1="106.4" y1="129" x2="105.2" y2="103.1"/>
			<line class="st4" x1="256.2" y1="91.6" x2="256.1" y2="68.9"/>
			<line class="st4" x1="106.4" y1="129" x2="256.2" y2="91.6"/>
			<line class="st4" x1="108.9" y1="179.7" x2="107.7" y2="154.6"/>
			<line class="st4" x1="256.5" y1="136.1" x2="256.4" y2="114"/>
			<line class="st4" x1="108.9" y1="179.7" x2="256.5" y2="136.1"/>
			<line class="st4" x1="112.5" y1="253.1" x2="111.3" y2="229"/>
			<line class="st4" x1="256.9" y1="200.7" x2="256.8" y2="179.4"/>
			<line class="st4" x1="112.5" y1="253.1" x2="256.9" y2="200.7"/>
			<line class="st4" x1="111.3" y1="229" x2="110.1" y2="204.6"/>
			<line class="st4" x1="256.8" y1="179.4" x2="256.6" y2="157.9"/>
			<line class="st4" x1="111.3" y1="229" x2="256.8" y2="179.4"/>
			<line class="st4" x1="113.7" y1="276.9" x2="112.5" y2="253.1"/>
			<line class="st4" x1="257" y1="221.8" x2="256.9" y2="200.7"/>
			<line class="st4" x1="113.7" y1="276.9" x2="257" y2="221.8"/>
			<line class="st3" x1="5.9" y1="118.6" x2="4.1" y2="95.9"/>
			<line class="st4" x1="107.7" y1="154.6" x2="5.9" y2="118.6"/>
			<line class="st3" x1="4.1" y1="95.9" x2="2.3" y2="72.8"/>
			<line class="st4" x1="4.1" y1="95.9" x2="106.4" y2="129"/>
			<line class="st3" x1="7.6" y1="141.1" x2="5.9" y2="118.6"/>
			<line class="st4" x1="7.6" y1="141.1" x2="108.9" y2="179.7"/>
			<line class="st3" x1="12.8" y1="206.8" x2="11.1" y2="185.2"/>
			<line class="st4" x1="12.8" y1="206.8" x2="112.5" y2="253.1"/>
			<line class="st3" x1="11.1" y1="185.2" x2="9.4" y2="163.3"/>
			<line class="st4" x1="11.1" y1="185.2" x2="111.3" y2="229"/>
			<line class="st3" x1="14.4" y1="228.1" x2="12.8" y2="206.8"/>
			<line class="st4" x1="14.4" y1="228.1" x2="113.7" y2="276.9"/>
			<line class="st4" x1="305.1" y1="79.5" x2="305.3" y2="55.5"/>
			<line class="st4" x1="256.1" y1="68.9" x2="305.1" y2="79.5"/>
			<line class="st4" x1="305.1" y1="79.5" x2="372" y2="62.8"/>
			<line class="st4" x1="304.4" y1="172.4" x2="304.5" y2="149.7"/>
			<line class="st4" x1="256.6" y1="157.9" x2="304.4" y2="172.4"/>
			<line class="st4" x1="304.8" y1="126.6" x2="304.9" y2="103.2"/>
			<line class="st4" x1="256.4" y1="114" x2="304.8" y2="126.6"/>
			<line class="st4" x1="304" y1="217.1" x2="304.2" y2="194.9"/>
			<line class="st4" x1="256.9" y1="200.7" x2="304" y2="217.1"/>
			<line class="st4" x1="304.2" y1="194.9" x2="304.4" y2="172.4"/>
			<line class="st4" x1="304.2" y1="194.9" x2="256.8" y2="179.4"/>
			<line class="st4" x1="304.5" y1="149.7" x2="304.8" y2="126.6"/>
			<line class="st4" x1="304.5" y1="149.7" x2="256.5" y2="136.1"/>
			<line class="st4" x1="304.9" y1="103.2" x2="305.1" y2="79.5"/>
			<line class="st4" x1="304.9" y1="103.2" x2="256.2" y2="91.6"/>
			<line class="st4" x1="303.8" y1="238.9" x2="304" y2="217.1"/>
			<line class="st4" x1="303.8" y1="238.9" x2="257" y2="221.8"/>
			<line class="st4" x1="369.6" y1="149.5" x2="304.4" y2="172.4"/>
			<line class="st4" x1="370.8" y1="106.7" x2="304.8" y2="126.6"/>
			<line class="st4" x1="371.4" y1="84.9" x2="304.9" y2="103.2"/>
			<line class="st4" x1="370.2" y1="128.3" x2="304.5" y2="149.7"/>
			<line class="st4" x1="368.5" y1="191.3" x2="304" y2="217.1"/>
			<line class="st4" x1="369" y1="170.6" x2="304.2" y2="194.9"/>
			<line class="st4" x1="367.9" y1="211.8" x2="303.8" y2="238.9"/>
			<line class="st3" x1="405.5" y1="35.1" x2="406.2" y2="15.5"/>
			<line class="st4" x1="372.5" y1="42.6" x2="405.5" y2="35.1"/>
			<line class="st3" x1="402.7" y1="111.4" x2="403.4" y2="92.6"/>
			<line class="st4" x1="370.4" y1="121.7" x2="402.7" y2="111.4"/>
			<line class="st3" x1="404.1" y1="73.7" x2="404.8" y2="54.5"/>
			<line class="st4" x1="371.4" y1="82.6" x2="404.1" y2="73.7"/>
			<line class="st3" x1="401.4" y1="148.3" x2="402" y2="129.9"/>
			<line class="st4" x1="401.4" y1="148.3" x2="369.3" y2="159.9"/>
			<line class="st3" x1="402" y1="129.9" x2="402.7" y2="111.4"/>
			<line class="st4" x1="402" y1="129.9" x2="369.8" y2="140.9"/>
			<line class="st3" x1="400.7" y1="166.5" x2="401.4" y2="148.3"/>
			<line class="st4" x1="400.7" y1="166.5" x2="368.8" y2="178.7"/>
			<line class="st3" x1="403.4" y1="92.6" x2="404.1" y2="73.7"/>
			<line class="st4" x1="403.4" y1="92.6" x2="370.9" y2="102.2"/>
			<line class="st3" x1="404.8" y1="54.5" x2="405.5" y2="35.1"/>
			<line class="st4" x1="404.8" y1="54.5" x2="372" y2="62.7"/>
			<line class="st3" x1="372" y1="62.8" x2="372" y2="62.7"/>
			<line class="st3" x1="369.6" y1="149.5" x2="369.8" y2="140.9"/>
			<line class="st3" x1="369.8" y1="140.9" x2="370.2" y2="128.3"/>
			<line class="st3" x1="370.8" y1="106.7" x2="370.9" y2="102.2"/>
			<line class="st3" x1="370.9" y1="102.2" x2="371.4" y2="84.9"/>
			<line class="st3" x1="371.4" y1="84.9" x2="371.4" y2="82.6"/>
			<line class="st3" x1="371.4" y1="82.6" x2="372" y2="62.8"/>
			<line class="st3" x1="370.2" y1="128.3" x2="370.4" y2="121.7"/>
			<line class="st3" x1="370.4" y1="121.7" x2="370.8" y2="106.7"/>
			<line class="st3" x1="368.5" y1="191.3" x2="368.8" y2="178.7"/>
			<line class="st3" x1="368.8" y1="178.7" x2="369" y2="170.6"/>
			<line class="st3" x1="369" y1="170.6" x2="369.3" y2="159.9"/>
			<line class="st3" x1="369.3" y1="159.9" x2="369.6" y2="149.5"/>
			<line class="st3" x1="367.9" y1="211.8" x2="368.3" y2="197.3"/>
			<line class="st3" x1="368.3" y1="197.3" x2="368.5" y2="191.3"/>
			<line class="st3" x1="372" y1="62.7" x2="372.5" y2="42.6"/>
			<line class="st3" x1="372.5" y1="42.6" x2="372.6" y2="40.4"/>
		</g>
		<g class="st5">
			<path class="st6" d="M88.4,326.7c0.1,0,0.2,0,0.3,0.1l0.8,0.9c-0.5,0.6-1,1-1.7,1.3c-0.7,0.3-1.5,0.5-2.5,0.5
				c-0.9,0-1.6-0.1-2.3-0.4c-0.7-0.3-1.3-0.7-1.8-1.2s-0.9-1.1-1.1-1.9c-0.3-0.7-0.4-1.5-0.4-2.4c0-0.9,0.1-1.7,0.4-2.4
				c0.3-0.7,0.7-1.3,1.2-1.9c0.5-0.5,1.1-0.9,1.9-1.2c0.7-0.3,1.5-0.4,2.4-0.4c0.9,0,1.6,0.1,2.3,0.4c0.6,0.3,1.2,0.6,1.7,1.1
				l-0.7,1c0,0.1-0.1,0.1-0.2,0.2c-0.1,0-0.2,0.1-0.3,0.1c-0.1,0-0.2,0-0.4-0.1c-0.1-0.1-0.3-0.2-0.5-0.3c-0.2-0.1-0.4-0.2-0.7-0.3
				c-0.3-0.1-0.7-0.1-1.1-0.1c-0.5,0-1,0.1-1.5,0.3s-0.8,0.5-1.2,0.8c-0.3,0.4-0.6,0.8-0.8,1.3c-0.2,0.5-0.3,1.1-0.3,1.7
				c0,0.7,0.1,1.2,0.3,1.7c0.2,0.5,0.4,0.9,0.7,1.3c0.3,0.3,0.7,0.6,1.1,0.8c0.4,0.2,0.9,0.3,1.4,0.3c0.3,0,0.6,0,0.8,0
				s0.5-0.1,0.7-0.2c0.2-0.1,0.4-0.2,0.6-0.3s0.4-0.2,0.5-0.4c0.1,0,0.1-0.1,0.2-0.1C88.3,326.7,88.3,326.7,88.4,326.7z"/>
			<path class="st6" d="M97.5,329.4h-0.9c-0.2,0-0.3,0-0.4-0.1c-0.1-0.1-0.2-0.2-0.2-0.3l-0.2-0.6c-0.2,0.2-0.4,0.4-0.6,0.5
				c-0.2,0.1-0.4,0.3-0.6,0.4c-0.2,0.1-0.4,0.2-0.7,0.2c-0.2,0-0.5,0.1-0.8,0.1c-0.3,0-0.7,0-1-0.1c-0.3-0.1-0.5-0.2-0.8-0.4
				c-0.2-0.2-0.4-0.4-0.5-0.7c-0.1-0.3-0.2-0.6-0.2-1c0-0.3,0.1-0.6,0.2-0.9s0.4-0.6,0.8-0.8c0.4-0.2,0.9-0.4,1.5-0.6
				s1.4-0.2,2.3-0.2v-0.5c0-0.6-0.1-1-0.3-1.2c-0.2-0.3-0.6-0.4-1-0.4c-0.3,0-0.6,0-0.8,0.1c-0.2,0.1-0.4,0.2-0.6,0.3
				c-0.2,0.1-0.3,0.2-0.4,0.3c-0.1,0.1-0.3,0.1-0.4,0.1c-0.1,0-0.2,0-0.3-0.1s-0.2-0.2-0.2-0.3l-0.4-0.6c0.9-0.9,2.1-1.3,3.4-1.3
				c0.5,0,0.9,0.1,1.3,0.2s0.7,0.4,1,0.7c0.3,0.3,0.5,0.6,0.6,1c0.1,0.4,0.2,0.8,0.2,1.3V329.4z M93.7,328.1c0.2,0,0.4,0,0.6-0.1
				c0.2,0,0.3-0.1,0.5-0.2c0.2-0.1,0.3-0.2,0.4-0.3c0.1-0.1,0.3-0.2,0.4-0.4v-1.4c-0.6,0-1.1,0-1.4,0.1c-0.4,0.1-0.7,0.2-0.9,0.3
				c-0.2,0.1-0.4,0.2-0.5,0.4s-0.1,0.3-0.1,0.5c0,0.3,0.1,0.6,0.3,0.7C93.1,328.1,93.3,328.1,93.7,328.1z"/>
			<path class="st6" d="M101.6,317.5v11.9h-2v-11.9H101.6z"/>
			<path class="st6" d="M109.7,322c0,0.1,0,0.3-0.1,0.4c-0.1,0.1-0.1,0.2-0.2,0.3l-3.9,5.1h4v1.5h-6.3v-0.8c0-0.1,0-0.2,0.1-0.3
				c0-0.1,0.1-0.2,0.2-0.4l3.9-5.2h-4v-1.5h6.2V322z"/>
			<path class="st6" d="M117.7,329.4h-0.9c-0.2,0-0.3,0-0.4-0.1c-0.1-0.1-0.2-0.2-0.2-0.3l-0.2-0.6c-0.2,0.2-0.4,0.4-0.6,0.5
				c-0.2,0.1-0.4,0.3-0.6,0.4c-0.2,0.1-0.4,0.2-0.7,0.2c-0.2,0-0.5,0.1-0.8,0.1c-0.3,0-0.7,0-1-0.1c-0.3-0.1-0.5-0.2-0.8-0.4
				c-0.2-0.2-0.4-0.4-0.5-0.7c-0.1-0.3-0.2-0.6-0.2-1c0-0.3,0.1-0.6,0.2-0.9s0.4-0.6,0.8-0.8c0.4-0.2,0.9-0.4,1.5-0.6
				s1.4-0.2,2.3-0.2v-0.5c0-0.6-0.1-1-0.3-1.2c-0.2-0.3-0.6-0.4-1-0.4c-0.3,0-0.6,0-0.8,0.1c-0.2,0.1-0.4,0.2-0.6,0.3
				c-0.2,0.1-0.3,0.2-0.4,0.3c-0.1,0.1-0.3,0.1-0.4,0.1c-0.1,0-0.2,0-0.3-0.1s-0.2-0.2-0.2-0.3l-0.4-0.6c0.9-0.9,2.1-1.3,3.4-1.3
				c0.5,0,0.9,0.1,1.3,0.2s0.7,0.4,1,0.7c0.3,0.3,0.5,0.6,0.6,1c0.1,0.4,0.2,0.8,0.2,1.3V329.4z M113.9,328.1c0.2,0,0.4,0,0.6-0.1
				c0.2,0,0.3-0.1,0.5-0.2c0.2-0.1,0.3-0.2,0.4-0.3c0.1-0.1,0.3-0.2,0.4-0.4v-1.4c-0.6,0-1.1,0-1.4,0.1c-0.4,0.1-0.7,0.2-0.9,0.3
				c-0.2,0.1-0.4,0.2-0.5,0.4s-0.1,0.3-0.1,0.5c0,0.3,0.1,0.6,0.3,0.7C113.3,328.1,113.6,328.1,113.9,328.1z"/>
			<path class="st6" d="M125.4,329.4c-0.3,0-0.4-0.1-0.5-0.4l-0.2-0.8c-0.2,0.2-0.3,0.4-0.5,0.5c-0.2,0.2-0.4,0.3-0.6,0.4
				c-0.2,0.1-0.4,0.2-0.7,0.3c-0.2,0.1-0.5,0.1-0.8,0.1c-0.4,0-0.9-0.1-1.2-0.3c-0.4-0.2-0.7-0.5-1-0.8c-0.3-0.4-0.5-0.8-0.6-1.3
				c-0.1-0.5-0.2-1.1-0.2-1.8c0-0.6,0.1-1.2,0.2-1.7c0.2-0.5,0.4-1,0.7-1.4c0.3-0.4,0.7-0.7,1.1-0.9s0.9-0.3,1.5-0.3
				c0.5,0,0.9,0.1,1.2,0.2c0.3,0.1,0.6,0.3,0.9,0.6v-4.3h2v11.9H125.4z M122.8,327.9c0.4,0,0.8-0.1,1-0.3s0.6-0.4,0.8-0.7v-3.7
				c-0.2-0.3-0.5-0.5-0.7-0.6c-0.3-0.1-0.5-0.2-0.9-0.2c-0.3,0-0.6,0.1-0.8,0.2c-0.2,0.1-0.4,0.3-0.6,0.5c-0.2,0.2-0.3,0.5-0.4,0.9
				c-0.1,0.3-0.1,0.8-0.1,1.2c0,0.5,0,0.9,0.1,1.2c0.1,0.3,0.2,0.6,0.3,0.8s0.3,0.4,0.5,0.5S122.6,327.9,122.8,327.9z"/>
			<path class="st6" d="M135.2,329.4h-0.9c-0.2,0-0.3,0-0.4-0.1c-0.1-0.1-0.2-0.2-0.2-0.3l-0.2-0.6c-0.2,0.2-0.4,0.4-0.6,0.5
				c-0.2,0.1-0.4,0.3-0.6,0.4c-0.2,0.1-0.4,0.2-0.7,0.2c-0.2,0-0.5,0.1-0.8,0.1c-0.3,0-0.7,0-1-0.1c-0.3-0.1-0.5-0.2-0.8-0.4
				c-0.2-0.2-0.4-0.4-0.5-0.7c-0.1-0.3-0.2-0.6-0.2-1c0-0.3,0.1-0.6,0.2-0.9s0.4-0.6,0.8-0.8c0.4-0.2,0.9-0.4,1.5-0.6
				s1.4-0.2,2.3-0.2v-0.5c0-0.6-0.1-1-0.3-1.2c-0.2-0.3-0.6-0.4-1-0.4c-0.3,0-0.6,0-0.8,0.1c-0.2,0.1-0.4,0.2-0.6,0.3
				c-0.2,0.1-0.3,0.2-0.4,0.3c-0.1,0.1-0.3,0.1-0.4,0.1c-0.1,0-0.2,0-0.3-0.1s-0.2-0.2-0.2-0.3l-0.4-0.6c0.9-0.9,2.1-1.3,3.4-1.3
				c0.5,0,0.9,0.1,1.3,0.2s0.7,0.4,1,0.7c0.3,0.3,0.5,0.6,0.6,1c0.1,0.4,0.2,0.8,0.2,1.3V329.4z M131.4,328.1c0.2,0,0.4,0,0.6-0.1
				c0.2,0,0.3-0.1,0.5-0.2c0.2-0.1,0.3-0.2,0.4-0.3c0.1-0.1,0.3-0.2,0.4-0.4v-1.4c-0.6,0-1.1,0-1.4,0.1c-0.4,0.1-0.7,0.2-0.9,0.3
				c-0.2,0.1-0.4,0.2-0.5,0.4s-0.1,0.3-0.1,0.5c0,0.3,0.1,0.6,0.3,0.7C130.8,328.1,131.1,328.1,131.4,328.1z"/>
			<path class="st6" d="M146.6,319.9c-0.1,0.1-0.1,0.2-0.2,0.2c-0.1,0-0.2,0.1-0.3,0.1c-0.1,0-0.2,0-0.4-0.1
				c-0.1-0.1-0.3-0.2-0.5-0.3c-0.2-0.1-0.4-0.2-0.6-0.3c-0.2-0.1-0.5-0.1-0.9-0.1c-0.3,0-0.6,0-0.8,0.1c-0.2,0.1-0.4,0.2-0.6,0.3
				c-0.2,0.1-0.3,0.3-0.3,0.5s-0.1,0.4-0.1,0.6c0,0.3,0.1,0.5,0.2,0.7c0.2,0.2,0.4,0.3,0.6,0.5c0.3,0.1,0.5,0.2,0.9,0.3
				s0.6,0.2,1,0.3c0.3,0.1,0.7,0.2,1,0.4c0.3,0.2,0.6,0.3,0.9,0.6c0.3,0.2,0.5,0.5,0.6,0.9s0.2,0.7,0.2,1.2c0,0.5-0.1,1-0.3,1.5
				s-0.4,0.9-0.8,1.2c-0.3,0.3-0.8,0.6-1.3,0.8s-1.1,0.3-1.7,0.3c-0.4,0-0.7,0-1.1-0.1c-0.4-0.1-0.7-0.2-1-0.3
				c-0.3-0.1-0.6-0.3-0.9-0.5c-0.3-0.2-0.5-0.4-0.8-0.6l0.6-1c0.1-0.1,0.1-0.1,0.2-0.2c0.1-0.1,0.2-0.1,0.3-0.1
				c0.1,0,0.3,0.1,0.4,0.2c0.2,0.1,0.3,0.2,0.5,0.4c0.2,0.1,0.5,0.3,0.7,0.4s0.6,0.2,1,0.2c0.6,0,1.1-0.1,1.4-0.4
				c0.3-0.3,0.5-0.7,0.5-1.3c0-0.3-0.1-0.6-0.2-0.7c-0.2-0.2-0.4-0.4-0.6-0.5c-0.3-0.1-0.5-0.2-0.9-0.3c-0.3-0.1-0.6-0.2-1-0.3
				s-0.7-0.2-1-0.4s-0.6-0.3-0.9-0.6c-0.3-0.2-0.5-0.5-0.6-0.9s-0.2-0.8-0.2-1.3c0-0.4,0.1-0.8,0.3-1.2c0.2-0.4,0.4-0.8,0.7-1.1
				c0.3-0.3,0.7-0.6,1.2-0.7c0.5-0.2,1-0.3,1.6-0.3c0.7,0,1.3,0.1,1.9,0.3c0.6,0.2,1.1,0.5,1.5,0.9L146.6,319.9z"/>
			<path class="st6" d="M155.3,329.4h-0.9c-0.2,0-0.3,0-0.4-0.1c-0.1-0.1-0.2-0.2-0.2-0.3l-0.2-0.6c-0.2,0.2-0.4,0.4-0.6,0.5
				c-0.2,0.1-0.4,0.3-0.6,0.4c-0.2,0.1-0.4,0.2-0.7,0.2c-0.2,0-0.5,0.1-0.8,0.1c-0.3,0-0.7,0-1-0.1c-0.3-0.1-0.5-0.2-0.8-0.4
				c-0.2-0.2-0.4-0.4-0.5-0.7c-0.1-0.3-0.2-0.6-0.2-1c0-0.3,0.1-0.6,0.2-0.9s0.4-0.6,0.8-0.8c0.4-0.2,0.9-0.4,1.5-0.6
				s1.4-0.2,2.3-0.2v-0.5c0-0.6-0.1-1-0.3-1.2c-0.2-0.3-0.6-0.4-1-0.4c-0.3,0-0.6,0-0.8,0.1c-0.2,0.1-0.4,0.2-0.6,0.3
				c-0.2,0.1-0.3,0.2-0.4,0.3c-0.1,0.1-0.3,0.1-0.4,0.1c-0.1,0-0.2,0-0.3-0.1s-0.2-0.2-0.2-0.3l-0.4-0.6c0.9-0.9,2.1-1.3,3.4-1.3
				c0.5,0,0.9,0.1,1.3,0.2s0.7,0.4,1,0.7c0.3,0.3,0.5,0.6,0.6,1c0.1,0.4,0.2,0.8,0.2,1.3V329.4z M151.4,328.1c0.2,0,0.4,0,0.6-0.1
				c0.2,0,0.3-0.1,0.5-0.2c0.2-0.1,0.3-0.2,0.4-0.3c0.1-0.1,0.3-0.2,0.4-0.4v-1.4c-0.6,0-1.1,0-1.4,0.1c-0.4,0.1-0.7,0.2-0.9,0.3
				c-0.2,0.1-0.4,0.2-0.5,0.4s-0.1,0.3-0.1,0.5c0,0.3,0.1,0.6,0.3,0.7C150.8,328.1,151.1,328.1,151.4,328.1z"/>
			<path class="st6" d="M157.2,329.4v-8.2h1.2c0.3,0,0.4,0.1,0.5,0.4l0.1,0.6c0.2-0.2,0.3-0.3,0.5-0.5c0.2-0.1,0.4-0.3,0.6-0.4
				c0.2-0.1,0.4-0.2,0.7-0.2s0.5-0.1,0.8-0.1c0.4,0,0.8,0.1,1.2,0.2c0.3,0.2,0.6,0.4,0.9,0.6s0.4,0.6,0.5,1c0.1,0.4,0.2,0.8,0.2,1.3
				v5.2h-2v-5.2c0-0.5-0.1-0.9-0.3-1.2c-0.2-0.3-0.6-0.4-1-0.4c-0.3,0-0.7,0.1-1,0.2c-0.3,0.2-0.6,0.4-0.8,0.6v5.9H157.2z"/>
			<path class="st6" d="M179.7,329.4H178c-0.2,0-0.3,0-0.5-0.1c-0.1-0.1-0.2-0.2-0.3-0.3l-0.9-2.4h-4.8l-0.9,2.4
				c0,0.1-0.1,0.2-0.3,0.3c-0.1,0.1-0.3,0.2-0.5,0.2h-1.7l4.5-11.6h2.2L179.7,329.4z M172.2,325h3.7l-1.4-3.8
				c-0.1-0.2-0.1-0.4-0.2-0.6c-0.1-0.2-0.2-0.5-0.2-0.8c-0.1,0.3-0.1,0.5-0.2,0.8c-0.1,0.2-0.1,0.4-0.2,0.6L172.2,325z"/>
			<path class="st6" d="M180.8,329.4v-8.2h1.2c0.3,0,0.4,0.1,0.5,0.4l0.1,0.6c0.2-0.2,0.3-0.3,0.5-0.5c0.2-0.1,0.4-0.3,0.6-0.4
				c0.2-0.1,0.4-0.2,0.7-0.2s0.5-0.1,0.8-0.1c0.4,0,0.8,0.1,1.2,0.2c0.3,0.2,0.6,0.4,0.9,0.6s0.4,0.6,0.5,1c0.1,0.4,0.2,0.8,0.2,1.3
				v5.2h-2v-5.2c0-0.5-0.1-0.9-0.3-1.2c-0.2-0.3-0.6-0.4-1-0.4c-0.3,0-0.7,0.1-1,0.2c-0.3,0.2-0.6,0.4-0.8,0.6v5.9H180.8z"/>
			<path class="st6" d="M192.6,329.5c-0.7,0-1.3-0.2-1.6-0.6c-0.4-0.4-0.6-1-0.6-1.7v-4.6h-0.8c-0.1,0-0.2,0-0.3-0.1
				c-0.1-0.1-0.1-0.2-0.1-0.3v-0.8l1.3-0.2l0.4-2.2c0-0.1,0.1-0.2,0.1-0.2c0.1-0.1,0.2-0.1,0.3-0.1h1v2.6h2.2v1.4h-2.2v4.4
				c0,0.3,0.1,0.5,0.2,0.6c0.1,0.1,0.3,0.2,0.5,0.2c0.1,0,0.2,0,0.3,0s0.2-0.1,0.2-0.1c0.1,0,0.1-0.1,0.2-0.1c0,0,0.1,0,0.1,0
				c0.1,0,0.1,0,0.1,0c0,0,0.1,0.1,0.1,0.1l0.6,1c-0.3,0.2-0.6,0.4-1,0.5C193.3,329.4,193,329.5,192.6,329.5z"/>
			<path class="st6" d="M199.6,321c0.6,0,1.2,0.1,1.7,0.3s0.9,0.5,1.3,0.8c0.4,0.4,0.6,0.8,0.8,1.3c0.2,0.5,0.3,1.1,0.3,1.8
				c0,0.7-0.1,1.2-0.3,1.8c-0.2,0.5-0.5,1-0.8,1.3c-0.4,0.4-0.8,0.7-1.3,0.8s-1.1,0.3-1.7,0.3s-1.2-0.1-1.7-0.3
				c-0.5-0.2-0.9-0.5-1.3-0.8c-0.4-0.4-0.6-0.8-0.8-1.3c-0.2-0.5-0.3-1.1-0.3-1.8c0-0.6,0.1-1.2,0.3-1.8c0.2-0.5,0.5-1,0.8-1.3
				c0.4-0.4,0.8-0.6,1.3-0.8C198.4,321.1,198.9,321,199.6,321z M199.6,328c0.7,0,1.2-0.2,1.5-0.7c0.3-0.5,0.5-1.1,0.5-2
				c0-0.9-0.2-1.6-0.5-2c-0.3-0.5-0.8-0.7-1.5-0.7c-0.7,0-1.2,0.2-1.5,0.7s-0.5,1.1-0.5,2c0,0.9,0.2,1.5,0.5,2
				C198.3,327.7,198.9,328,199.6,328z"/>
			<path class="st6" d="M205.1,329.4v-8.2h1.2c0.3,0,0.4,0.1,0.5,0.4l0.1,0.6c0.2-0.2,0.3-0.3,0.5-0.5s0.4-0.3,0.6-0.4
				c0.2-0.1,0.4-0.2,0.7-0.2c0.2-0.1,0.5-0.1,0.8-0.1c0.4,0,0.8,0.1,1.2,0.2c0.3,0.2,0.6,0.4,0.9,0.6c0.2,0.3,0.4,0.6,0.5,1
				c0.1,0.4,0.2,0.8,0.2,1.3v5.2h-2v-5.2c0-0.5-0.1-0.9-0.3-1.2c-0.2-0.3-0.6-0.4-1-0.4c-0.3,0-0.7,0.1-1,0.2
				c-0.3,0.2-0.6,0.4-0.8,0.6v5.9H205.1z"/>
			<path class="st6" d="M216.6,318.8c0,0.2,0,0.3-0.1,0.5s-0.2,0.3-0.3,0.4c-0.1,0.1-0.2,0.2-0.4,0.3c-0.2,0.1-0.3,0.1-0.5,0.1
				c-0.2,0-0.3,0-0.5-0.1c-0.2-0.1-0.3-0.2-0.4-0.3c-0.1-0.1-0.2-0.2-0.3-0.4c-0.1-0.1-0.1-0.3-0.1-0.5c0-0.2,0-0.3,0.1-0.5
				c0.1-0.2,0.2-0.3,0.3-0.4s0.2-0.2,0.4-0.3c0.2-0.1,0.3-0.1,0.5-0.1c0.2,0,0.3,0,0.5,0.1c0.2,0.1,0.3,0.2,0.4,0.3
				c0.1,0.1,0.2,0.2,0.3,0.4C216.6,318.4,216.6,318.6,216.6,318.8z M216.3,321.2v8.2h-2v-8.2H216.3z"/>
			<path class="st6" d="M222.1,321c0.6,0,1.2,0.1,1.7,0.3c0.5,0.2,0.9,0.5,1.3,0.8c0.4,0.4,0.6,0.8,0.8,1.3c0.2,0.5,0.3,1.1,0.3,1.8
				c0,0.7-0.1,1.2-0.3,1.8c-0.2,0.5-0.5,1-0.8,1.3c-0.4,0.4-0.8,0.7-1.3,0.8c-0.5,0.2-1.1,0.3-1.7,0.3s-1.2-0.1-1.7-0.3
				s-0.9-0.5-1.3-0.8c-0.4-0.4-0.6-0.8-0.8-1.3c-0.2-0.5-0.3-1.1-0.3-1.8c0-0.6,0.1-1.2,0.3-1.8c0.2-0.5,0.5-1,0.8-1.3
				c0.4-0.4,0.8-0.6,1.3-0.8S221.5,321,222.1,321z M222.1,328c0.7,0,1.2-0.2,1.5-0.7c0.3-0.5,0.5-1.1,0.5-2c0-0.9-0.2-1.6-0.5-2
				c-0.3-0.5-0.8-0.7-1.5-0.7c-0.7,0-1.2,0.2-1.5,0.7c-0.3,0.5-0.5,1.1-0.5,2c0,0.9,0.2,1.5,0.5,2C220.9,327.7,221.4,328,222.1,328z
				"/>
			<path class="st6" d="M241,329.4h-1.7c-0.2,0-0.3,0-0.5-0.1c-0.1-0.1-0.2-0.2-0.3-0.3l-0.9-2.4H233l-0.9,2.4
				c0,0.1-0.1,0.2-0.3,0.3c-0.1,0.1-0.3,0.2-0.5,0.2h-1.7l4.5-11.6h2.2L241,329.4z M233.6,325h3.7l-1.4-3.8
				c-0.1-0.2-0.1-0.4-0.2-0.6c-0.1-0.2-0.2-0.5-0.2-0.8c-0.1,0.3-0.1,0.5-0.2,0.8c-0.1,0.2-0.1,0.4-0.2,0.6L233.6,325z"/>
			<path class="st6" d="M242.1,329.4v-11.9h2v4.7c0.3-0.3,0.7-0.6,1.1-0.8c0.4-0.2,0.9-0.3,1.4-0.3c0.4,0,0.9,0.1,1.2,0.3
				c0.4,0.2,0.7,0.5,1,0.8c0.3,0.4,0.5,0.8,0.6,1.3c0.1,0.5,0.2,1.1,0.2,1.8c0,0.6-0.1,1.2-0.2,1.7s-0.4,1-0.7,1.4
				c-0.3,0.4-0.7,0.7-1.1,0.9s-0.9,0.3-1.5,0.3c-0.3,0-0.5,0-0.7-0.1s-0.4-0.1-0.6-0.2s-0.3-0.2-0.5-0.3c-0.1-0.1-0.3-0.3-0.4-0.4
				l-0.1,0.6c0,0.1-0.1,0.2-0.2,0.3c-0.1,0.1-0.2,0.1-0.3,0.1H242.1z M246,322.6c-0.4,0-0.8,0.1-1.1,0.3c-0.3,0.2-0.6,0.4-0.8,0.7
				v3.7c0.2,0.3,0.5,0.5,0.7,0.6c0.3,0.1,0.6,0.2,0.9,0.2c0.3,0,0.6-0.1,0.8-0.2c0.2-0.1,0.4-0.3,0.6-0.5c0.2-0.2,0.3-0.5,0.4-0.9
				c0.1-0.3,0.1-0.8,0.1-1.2c0-0.5,0-0.9-0.1-1.2c-0.1-0.3-0.2-0.6-0.3-0.8c-0.1-0.2-0.3-0.4-0.5-0.5
				C246.5,322.6,246.2,322.6,246,322.6z"/>
			<path class="st6" d="M257.7,329.4h-0.9c-0.2,0-0.3,0-0.4-0.1c-0.1-0.1-0.2-0.2-0.2-0.3l-0.2-0.6c-0.2,0.2-0.4,0.4-0.6,0.5
				c-0.2,0.1-0.4,0.3-0.6,0.4s-0.4,0.2-0.7,0.2c-0.2,0-0.5,0.1-0.8,0.1c-0.3,0-0.7,0-1-0.1c-0.3-0.1-0.5-0.2-0.8-0.4
				c-0.2-0.2-0.4-0.4-0.5-0.7c-0.1-0.3-0.2-0.6-0.2-1c0-0.3,0.1-0.6,0.2-0.9c0.2-0.3,0.4-0.6,0.8-0.8c0.4-0.2,0.9-0.4,1.5-0.6
				c0.6-0.2,1.4-0.2,2.3-0.2v-0.5c0-0.6-0.1-1-0.3-1.2c-0.2-0.3-0.6-0.4-1-0.4c-0.3,0-0.6,0-0.8,0.1c-0.2,0.1-0.4,0.2-0.6,0.3
				c-0.2,0.1-0.3,0.2-0.4,0.3c-0.1,0.1-0.3,0.1-0.4,0.1c-0.1,0-0.2,0-0.3-0.1c-0.1-0.1-0.2-0.2-0.2-0.3l-0.4-0.6
				c0.9-0.9,2.1-1.3,3.4-1.3c0.5,0,0.9,0.1,1.3,0.2s0.7,0.4,1,0.7c0.3,0.3,0.5,0.6,0.6,1c0.1,0.4,0.2,0.8,0.2,1.3V329.4z
				 M253.8,328.1c0.2,0,0.4,0,0.6-0.1c0.2,0,0.3-0.1,0.5-0.2c0.2-0.1,0.3-0.2,0.4-0.3c0.1-0.1,0.3-0.2,0.4-0.4v-1.4
				c-0.6,0-1.1,0-1.4,0.1c-0.4,0.1-0.7,0.2-0.9,0.3c-0.2,0.1-0.4,0.2-0.5,0.4s-0.1,0.3-0.1,0.5c0,0.3,0.1,0.6,0.3,0.7
				C253.2,328.1,253.5,328.1,253.8,328.1z"/>
			<path class="st6" d="M265.4,329.4c-0.3,0-0.4-0.1-0.5-0.4l-0.2-0.8c-0.2,0.2-0.3,0.4-0.5,0.5c-0.2,0.2-0.4,0.3-0.6,0.4
				c-0.2,0.1-0.4,0.2-0.7,0.3c-0.2,0.1-0.5,0.1-0.8,0.1c-0.4,0-0.9-0.1-1.2-0.3s-0.7-0.5-1-0.8c-0.3-0.4-0.5-0.8-0.6-1.3
				c-0.1-0.5-0.2-1.1-0.2-1.8c0-0.6,0.1-1.2,0.2-1.7c0.2-0.5,0.4-1,0.7-1.4c0.3-0.4,0.7-0.7,1.1-0.9c0.4-0.2,0.9-0.3,1.5-0.3
				c0.5,0,0.9,0.1,1.2,0.2c0.3,0.1,0.6,0.3,0.9,0.6v-4.3h2v11.9H265.4z M262.8,327.9c0.4,0,0.8-0.1,1-0.3s0.6-0.4,0.8-0.7v-3.7
				c-0.2-0.3-0.5-0.5-0.7-0.6c-0.3-0.1-0.5-0.2-0.9-0.2c-0.3,0-0.6,0.1-0.8,0.2c-0.2,0.1-0.4,0.3-0.6,0.5s-0.3,0.5-0.4,0.9
				c-0.1,0.3-0.1,0.8-0.1,1.2c0,0.5,0,0.9,0.1,1.2c0.1,0.3,0.2,0.6,0.3,0.8c0.1,0.2,0.3,0.4,0.5,0.5S262.5,327.9,262.8,327.9z"/>
			<path class="st6" d="M273.3,317.8c0.1,0,0.1,0,0.2,0c0.1,0,0.1,0.1,0.1,0.1c0,0,0.1,0.1,0.2,0.2l6.1,7.7c0-0.2,0-0.4,0-0.5
				s0-0.3,0-0.5v-7h1.9v11.6h-1.1c-0.2,0-0.3,0-0.4-0.1c-0.1-0.1-0.2-0.1-0.3-0.3l-6-7.7c0,0.2,0,0.3,0,0.5c0,0.2,0,0.3,0,0.5v7.1
				h-1.9v-11.6h1.1C273.2,317.8,273.2,317.8,273.3,317.8z"/>
			<path class="st6" d="M287.4,321c0.6,0,1.2,0.1,1.7,0.3c0.5,0.2,0.9,0.5,1.3,0.8c0.4,0.4,0.6,0.8,0.8,1.3c0.2,0.5,0.3,1.1,0.3,1.8
				c0,0.7-0.1,1.2-0.3,1.8c-0.2,0.5-0.5,1-0.8,1.3c-0.4,0.4-0.8,0.7-1.3,0.8c-0.5,0.2-1.1,0.3-1.7,0.3s-1.2-0.1-1.7-0.3
				s-0.9-0.5-1.3-0.8c-0.4-0.4-0.6-0.8-0.8-1.3c-0.2-0.5-0.3-1.1-0.3-1.8c0-0.6,0.1-1.2,0.3-1.8c0.2-0.5,0.5-1,0.8-1.3
				c0.4-0.4,0.8-0.6,1.3-0.8S286.8,321,287.4,321z M287.4,328c0.7,0,1.2-0.2,1.5-0.7c0.3-0.5,0.5-1.1,0.5-2c0-0.9-0.2-1.6-0.5-2
				c-0.3-0.5-0.8-0.7-1.5-0.7c-0.7,0-1.2,0.2-1.5,0.7c-0.3,0.5-0.5,1.1-0.5,2c0,0.9,0.2,1.5,0.5,2C286.2,327.7,286.7,328,287.4,328z
				"/>
			<path class="st6" d="M292.5,328.3c0-0.2,0-0.3,0.1-0.5s0.1-0.3,0.3-0.4c0.1-0.1,0.2-0.2,0.4-0.3c0.1-0.1,0.3-0.1,0.5-0.1
				c0.2,0,0.3,0,0.5,0.1c0.1,0.1,0.3,0.1,0.4,0.3c0.1,0.1,0.2,0.2,0.3,0.4c0.1,0.1,0.1,0.3,0.1,0.5c0,0.2,0,0.3-0.1,0.5
				c-0.1,0.1-0.1,0.3-0.3,0.4c-0.1,0.1-0.2,0.2-0.4,0.3c-0.1,0.1-0.3,0.1-0.5,0.1c-0.2,0-0.3,0-0.5-0.1c-0.1-0.1-0.3-0.1-0.4-0.3
				c-0.1-0.1-0.2-0.2-0.3-0.4C292.6,328.6,292.5,328.5,292.5,328.3z"/>
			<path class="st6" d="M300.8,327.9h2.3v-6.7c0-0.3,0-0.5,0-0.8l-1.7,1.4c-0.1,0.1-0.1,0.1-0.2,0.1s-0.1,0-0.2,0
				c-0.1,0-0.2,0-0.3-0.1c-0.1,0-0.2-0.1-0.2-0.2l-0.6-0.9l3.5-3h1.6v10.1h2.1v1.5h-6.4V327.9z"/>
			<path class="st6" d="M312.7,317.7c0.5,0,1,0.1,1.5,0.2c0.4,0.2,0.8,0.4,1.1,0.7c0.3,0.3,0.6,0.6,0.7,1c0.2,0.4,0.3,0.9,0.3,1.4
				c0,0.4-0.1,0.8-0.2,1.2c-0.1,0.4-0.3,0.7-0.5,1c-0.2,0.3-0.5,0.7-0.7,1c-0.3,0.3-0.6,0.6-0.9,0.9l-2.6,2.7
				c0.3-0.1,0.5-0.1,0.8-0.2c0.2,0,0.5-0.1,0.7-0.1h3c0.2,0,0.4,0.1,0.5,0.2c0.1,0.1,0.2,0.3,0.2,0.5v1.2h-7.9v-0.7
				c0-0.1,0-0.3,0.1-0.4c0.1-0.1,0.1-0.3,0.3-0.4l3.5-3.5c0.3-0.3,0.6-0.6,0.8-0.9c0.2-0.3,0.4-0.5,0.6-0.8c0.2-0.3,0.3-0.5,0.4-0.8
				s0.1-0.6,0.1-0.9c0-0.3,0-0.5-0.1-0.7c-0.1-0.2-0.2-0.4-0.3-0.5c-0.1-0.1-0.3-0.3-0.5-0.3s-0.4-0.1-0.7-0.1
				c-0.5,0-0.9,0.1-1.2,0.4c-0.3,0.2-0.5,0.6-0.6,1c-0.1,0.2-0.1,0.3-0.3,0.4c-0.1,0.1-0.3,0.1-0.4,0.1c-0.1,0-0.2,0-0.3,0l-1-0.2
				c0.1-0.6,0.2-1,0.5-1.5s0.5-0.8,0.9-1c0.3-0.3,0.7-0.5,1.2-0.6C311.8,317.8,312.2,317.7,312.7,317.7z"/>
			<path class="st6" d="M322,317.7c0.5,0,1,0.1,1.5,0.2c0.4,0.2,0.8,0.4,1.1,0.7c0.3,0.3,0.6,0.6,0.7,1c0.2,0.4,0.3,0.9,0.3,1.4
				c0,0.4-0.1,0.8-0.2,1.2c-0.1,0.4-0.3,0.7-0.5,1c-0.2,0.3-0.5,0.7-0.7,1c-0.3,0.3-0.6,0.6-0.9,0.9l-2.6,2.7
				c0.3-0.1,0.5-0.1,0.8-0.2c0.2,0,0.5-0.1,0.7-0.1h3c0.2,0,0.4,0.1,0.5,0.2c0.1,0.1,0.2,0.3,0.2,0.5v1.2h-7.9v-0.7
				c0-0.1,0-0.3,0.1-0.4c0.1-0.1,0.1-0.3,0.3-0.4l3.5-3.5c0.3-0.3,0.6-0.6,0.8-0.9c0.2-0.3,0.4-0.5,0.6-0.8c0.2-0.3,0.3-0.5,0.4-0.8
				s0.1-0.6,0.1-0.9c0-0.3,0-0.5-0.1-0.7c-0.1-0.2-0.2-0.4-0.3-0.5c-0.1-0.1-0.3-0.3-0.5-0.3s-0.4-0.1-0.7-0.1
				c-0.5,0-0.9,0.1-1.2,0.4c-0.3,0.2-0.5,0.6-0.6,1c-0.1,0.2-0.1,0.3-0.3,0.4c-0.1,0.1-0.3,0.1-0.4,0.1c-0.1,0-0.2,0-0.3,0l-1-0.2
				c0.1-0.6,0.2-1,0.5-1.5s0.5-0.8,0.9-1c0.3-0.3,0.7-0.5,1.2-0.6C321,317.8,321.5,317.7,322,317.7z"/>
		</g>
		<g class="st5">
			<path class="st7" d="M89.2,341.2c0,0.8-0.1,1.4-0.4,2.1c-0.2,0.6-0.6,1.1-1,1.6s-1,0.8-1.6,1c-0.6,0.2-1.3,0.4-2,0.4h-3.8v-10
				h3.8c0.7,0,1.4,0.1,2,0.4c0.6,0.2,1.1,0.6,1.6,1s0.8,1,1,1.6C89.1,339.7,89.2,340.4,89.2,341.2z M87.8,341.2
				c0-0.6-0.1-1.2-0.3-1.7s-0.4-0.9-0.7-1.2c-0.3-0.3-0.7-0.6-1.1-0.8c-0.4-0.2-0.9-0.3-1.5-0.3h-2.4v7.8h2.4c0.5,0,1-0.1,1.5-0.3
				c0.4-0.2,0.8-0.4,1.1-0.8c0.3-0.3,0.5-0.7,0.7-1.2S87.8,341.8,87.8,341.2z"/>
			<path class="st7" d="M93.7,339c0.4,0,0.8,0.1,1.2,0.2s0.7,0.3,0.9,0.6c0.3,0.3,0.5,0.6,0.6,1c0.1,0.4,0.2,0.8,0.2,1.3
				c0,0.2,0,0.3-0.1,0.4s-0.1,0.1-0.2,0.1h-4.7c0,0.4,0.1,0.8,0.2,1.2c0.1,0.3,0.3,0.6,0.5,0.8c0.2,0.2,0.4,0.4,0.7,0.5
				c0.3,0.1,0.6,0.2,0.9,0.2c0.3,0,0.6,0,0.8-0.1c0.2-0.1,0.4-0.2,0.6-0.2c0.2-0.1,0.3-0.2,0.4-0.2c0.1-0.1,0.2-0.1,0.3-0.1
				c0.1,0,0.2,0,0.2,0.1l0.4,0.5c-0.2,0.2-0.3,0.3-0.6,0.5c-0.2,0.1-0.4,0.3-0.7,0.3s-0.5,0.2-0.8,0.2c-0.3,0-0.5,0.1-0.8,0.1
				c-0.5,0-0.9-0.1-1.4-0.2c-0.4-0.2-0.8-0.4-1.1-0.7c-0.3-0.3-0.5-0.7-0.7-1.2c-0.2-0.5-0.3-1-0.3-1.6c0-0.5,0.1-1,0.2-1.4
				c0.2-0.4,0.4-0.8,0.7-1.1c0.3-0.3,0.6-0.6,1-0.7S93.1,339,93.7,339z M93.7,339.9c-0.6,0-1.1,0.2-1.4,0.5s-0.6,0.8-0.6,1.4h3.9
				c0-0.3,0-0.6-0.1-0.8c-0.1-0.2-0.2-0.4-0.3-0.6c-0.2-0.2-0.3-0.3-0.6-0.4C94.2,339.9,94,339.9,93.7,339.9z"/>
			<path class="st7" d="M99.6,335.9v10.3h-1.2v-10.3H99.6z"/>
			<path class="st7" d="M104.6,339c0.4,0,0.8,0.1,1.2,0.2s0.7,0.3,0.9,0.6c0.3,0.3,0.5,0.6,0.6,1c0.1,0.4,0.2,0.8,0.2,1.3
				c0,0.2,0,0.3-0.1,0.4s-0.1,0.1-0.2,0.1h-4.7c0,0.4,0.1,0.8,0.2,1.2c0.1,0.3,0.3,0.6,0.5,0.8c0.2,0.2,0.4,0.4,0.7,0.5
				c0.3,0.1,0.6,0.2,0.9,0.2c0.3,0,0.6,0,0.8-0.1c0.2-0.1,0.4-0.2,0.6-0.2c0.2-0.1,0.3-0.2,0.4-0.2c0.1-0.1,0.2-0.1,0.3-0.1
				c0.1,0,0.2,0,0.2,0.1l0.4,0.5c-0.2,0.2-0.3,0.3-0.6,0.5c-0.2,0.1-0.4,0.3-0.7,0.3s-0.5,0.2-0.8,0.2c-0.3,0-0.5,0.1-0.8,0.1
				c-0.5,0-0.9-0.1-1.4-0.2c-0.4-0.2-0.8-0.4-1.1-0.7c-0.3-0.3-0.5-0.7-0.7-1.2c-0.2-0.5-0.3-1-0.3-1.6c0-0.5,0.1-1,0.2-1.4
				c0.2-0.4,0.4-0.8,0.7-1.1c0.3-0.3,0.6-0.6,1-0.7S104.1,339,104.6,339z M104.6,339.9c-0.6,0-1.1,0.2-1.4,0.5s-0.6,0.8-0.6,1.4h3.9
				c0-0.3,0-0.6-0.1-0.8c-0.1-0.2-0.2-0.4-0.3-0.6c-0.2-0.2-0.3-0.3-0.6-0.4C105.1,339.9,104.9,339.9,104.6,339.9z"/>
			<path class="st7" d="M111.5,339c0.3,0,0.6,0,0.9,0.1s0.5,0.2,0.7,0.3h1.9v0.5c0,0.2-0.1,0.3-0.3,0.3l-0.8,0.1
				c0.2,0.3,0.2,0.6,0.2,1c0,0.3-0.1,0.7-0.2,0.9c-0.1,0.3-0.3,0.5-0.6,0.7c-0.2,0.2-0.5,0.4-0.8,0.5c-0.3,0.1-0.7,0.2-1.1,0.2
				c-0.3,0-0.6,0-0.9-0.1c-0.1,0.1-0.3,0.2-0.3,0.3c-0.1,0.1-0.1,0.2-0.1,0.3c0,0.2,0.1,0.3,0.2,0.4c0.1,0.1,0.3,0.2,0.5,0.2
				c0.2,0,0.5,0.1,0.8,0.1s0.6,0,0.9,0s0.6,0,0.9,0.1c0.3,0.1,0.5,0.1,0.8,0.3c0.2,0.1,0.4,0.3,0.5,0.5c0.1,0.2,0.2,0.5,0.2,0.8
				c0,0.3-0.1,0.6-0.2,0.9c-0.2,0.3-0.4,0.5-0.7,0.8c-0.3,0.2-0.6,0.4-1,0.5c-0.4,0.1-0.9,0.2-1.4,0.2s-1-0.1-1.4-0.2
				c-0.4-0.1-0.7-0.2-1-0.4c-0.3-0.2-0.4-0.4-0.6-0.6s-0.2-0.5-0.2-0.7c0-0.4,0.1-0.6,0.3-0.9s0.5-0.4,0.9-0.6
				c-0.2-0.1-0.4-0.2-0.5-0.4c-0.1-0.2-0.2-0.4-0.2-0.6c0-0.1,0-0.2,0.1-0.3c0-0.1,0.1-0.2,0.2-0.3c0.1-0.1,0.2-0.2,0.3-0.3
				c0.1-0.1,0.2-0.2,0.4-0.3c-0.3-0.2-0.6-0.5-0.8-0.8c-0.2-0.3-0.3-0.7-0.3-1.1c0-0.3,0.1-0.7,0.2-0.9c0.1-0.3,0.3-0.5,0.6-0.7
				c0.2-0.2,0.5-0.4,0.9-0.5S111.1,339,111.5,339z M113.7,346.5c0-0.2,0-0.3-0.1-0.4c-0.1-0.1-0.2-0.2-0.4-0.3s-0.4-0.1-0.6-0.1
				c-0.2,0-0.5,0-0.7,0s-0.5,0-0.7,0s-0.5,0-0.7-0.1c-0.3,0.1-0.5,0.3-0.6,0.5c-0.2,0.2-0.2,0.4-0.2,0.7c0,0.2,0,0.3,0.1,0.4
				c0.1,0.1,0.2,0.3,0.4,0.4c0.2,0.1,0.4,0.2,0.6,0.2c0.3,0.1,0.6,0.1,0.9,0.1c0.3,0,0.6,0,0.9-0.1c0.3-0.1,0.5-0.2,0.7-0.3
				c0.2-0.1,0.3-0.2,0.4-0.4C113.7,346.9,113.7,346.7,113.7,346.5z M111.5,342.7c0.3,0,0.5,0,0.7-0.1c0.2-0.1,0.4-0.2,0.5-0.3
				s0.2-0.3,0.3-0.5s0.1-0.4,0.1-0.6c0-0.4-0.1-0.8-0.4-1s-0.6-0.4-1.2-0.4c-0.5,0-0.9,0.1-1.1,0.4s-0.4,0.6-0.4,1
				c0,0.2,0,0.4,0.1,0.6c0.1,0.2,0.2,0.3,0.3,0.5c0.1,0.1,0.3,0.2,0.5,0.3C111,342.7,111.2,342.7,111.5,342.7z"/>
			<path class="st7" d="M121.5,346.2h-0.6c-0.1,0-0.2,0-0.3-0.1c-0.1,0-0.1-0.1-0.1-0.2l-0.1-0.7c-0.2,0.2-0.4,0.3-0.5,0.5
				c-0.2,0.1-0.4,0.2-0.6,0.3c-0.2,0.1-0.4,0.2-0.6,0.2s-0.5,0.1-0.7,0.1c-0.3,0-0.5,0-0.8-0.1s-0.4-0.2-0.6-0.3
				c-0.2-0.2-0.3-0.3-0.4-0.6c-0.1-0.2-0.2-0.5-0.2-0.8c0-0.3,0.1-0.6,0.2-0.8s0.4-0.5,0.7-0.7c0.3-0.2,0.8-0.4,1.3-0.5
				c0.6-0.1,1.2-0.2,2-0.2v-0.6c0-0.6-0.1-1-0.4-1.3c-0.2-0.3-0.6-0.4-1-0.4c-0.3,0-0.6,0-0.8,0.1s-0.4,0.2-0.5,0.3
				c-0.2,0.1-0.3,0.2-0.4,0.3c-0.1,0.1-0.2,0.1-0.3,0.1c-0.1,0-0.2,0-0.2-0.1s-0.1-0.1-0.2-0.2l-0.2-0.4c0.4-0.4,0.8-0.7,1.3-0.8
				c0.5-0.2,1-0.3,1.5-0.3c0.4,0,0.7,0.1,1.1,0.2c0.3,0.1,0.6,0.3,0.8,0.5c0.2,0.2,0.4,0.5,0.5,0.8s0.2,0.7,0.2,1.1V346.2z
				 M118.2,345.4c0.2,0,0.4,0,0.6-0.1c0.2,0,0.4-0.1,0.5-0.2c0.2-0.1,0.3-0.2,0.5-0.3c0.1-0.1,0.3-0.2,0.4-0.4V343
				c-0.6,0-1.1,0-1.5,0.1c-0.4,0.1-0.7,0.2-1,0.3c-0.3,0.1-0.4,0.3-0.5,0.4c-0.1,0.2-0.2,0.3-0.2,0.5c0,0.2,0,0.3,0.1,0.5
				c0.1,0.1,0.1,0.2,0.2,0.3c0.1,0.1,0.2,0.2,0.4,0.2C117.9,345.4,118.1,345.4,118.2,345.4z"/>
			<path class="st7" d="M128.2,340.3c0,0.1-0.1,0.1-0.1,0.1c0,0-0.1,0-0.2,0s-0.1,0-0.2-0.1c-0.1-0.1-0.2-0.1-0.3-0.2
				c-0.1-0.1-0.3-0.1-0.5-0.2s-0.4-0.1-0.7-0.1c-0.3,0-0.7,0.1-0.9,0.2c-0.3,0.1-0.5,0.3-0.7,0.5s-0.3,0.5-0.4,0.8s-0.1,0.7-0.1,1.1
				c0,0.4,0,0.8,0.1,1.1c0.1,0.3,0.2,0.6,0.4,0.8s0.4,0.4,0.6,0.5c0.3,0.1,0.5,0.2,0.9,0.2c0.3,0,0.6,0,0.7-0.1
				c0.2-0.1,0.4-0.2,0.5-0.2c0.1-0.1,0.2-0.2,0.3-0.2c0.1-0.1,0.2-0.1,0.3-0.1c0.1,0,0.2,0,0.2,0.1l0.4,0.5
				c-0.3,0.4-0.7,0.7-1.2,0.8c-0.5,0.2-0.9,0.3-1.5,0.3c-0.4,0-0.9-0.1-1.2-0.2c-0.4-0.2-0.7-0.4-1-0.7c-0.3-0.3-0.5-0.7-0.7-1.1
				c-0.2-0.5-0.2-1-0.2-1.5c0-0.5,0.1-1,0.2-1.5c0.1-0.4,0.4-0.8,0.6-1.2c0.3-0.3,0.6-0.6,1-0.8c0.4-0.2,0.9-0.3,1.4-0.3
				c0.5,0,0.9,0.1,1.3,0.2c0.4,0.2,0.7,0.4,1,0.7L128.2,340.3z"/>
			<path class="st7" d="M131.6,336.9c0,0.1,0,0.2-0.1,0.3c0,0.1-0.1,0.2-0.2,0.3c-0.1,0.1-0.2,0.1-0.3,0.2c-0.1,0-0.2,0.1-0.3,0.1
				c-0.1,0-0.2,0-0.3-0.1s-0.2-0.1-0.3-0.2c-0.1-0.1-0.1-0.2-0.2-0.3c0-0.1-0.1-0.2-0.1-0.3c0-0.1,0-0.2,0.1-0.3
				c0-0.1,0.1-0.2,0.2-0.3c0.1-0.1,0.2-0.1,0.3-0.2c0.1,0,0.2-0.1,0.3-0.1c0.1,0,0.2,0,0.3,0.1c0.1,0,0.2,0.1,0.3,0.2
				c0.1,0.1,0.1,0.2,0.2,0.3C131.5,336.6,131.6,336.7,131.6,336.9z M131.3,339.1v7.1H130v-7.1H131.3z"/>
			<path class="st7" d="M136.4,339c0.5,0,1,0.1,1.4,0.3c0.4,0.2,0.8,0.4,1.1,0.7s0.5,0.7,0.7,1.2c0.2,0.5,0.2,1,0.2,1.5
				c0,0.6-0.1,1.1-0.2,1.5c-0.2,0.4-0.4,0.8-0.7,1.1s-0.6,0.6-1.1,0.7c-0.4,0.2-0.9,0.3-1.4,0.3s-1-0.1-1.4-0.3
				c-0.4-0.2-0.8-0.4-1.1-0.7s-0.5-0.7-0.7-1.1c-0.2-0.4-0.2-1-0.2-1.5c0-0.6,0.1-1.1,0.2-1.5c0.2-0.5,0.4-0.8,0.7-1.2
				s0.6-0.6,1.1-0.7C135.4,339.1,135.8,339,136.4,339z M136.4,345.3c0.7,0,1.2-0.2,1.6-0.7c0.3-0.5,0.5-1.1,0.5-2
				c0-0.8-0.2-1.5-0.5-2c-0.3-0.5-0.9-0.7-1.6-0.7c-0.4,0-0.7,0.1-0.9,0.2c-0.3,0.1-0.5,0.3-0.7,0.5s-0.3,0.5-0.4,0.8
				c-0.1,0.3-0.1,0.7-0.1,1.1s0,0.8,0.1,1.1s0.2,0.6,0.4,0.8c0.2,0.2,0.4,0.4,0.7,0.5C135.7,345.2,136,345.3,136.4,345.3z
				 M138.4,336l-1.6,1.8c-0.1,0.1-0.1,0.1-0.2,0.2s-0.1,0-0.2,0h-0.7l1-1.7c0.1-0.1,0.1-0.2,0.2-0.2s0.2-0.1,0.3-0.1H138.4z"/>
			<path class="st7" d="M141.3,346.2v-7.1h0.7c0.2,0,0.3,0.1,0.3,0.3l0.1,0.8c0.3-0.3,0.7-0.6,1-0.8s0.8-0.3,1.3-0.3
				c0.4,0,0.7,0.1,1,0.2c0.3,0.1,0.5,0.3,0.7,0.5c0.2,0.2,0.3,0.5,0.5,0.9c0.1,0.3,0.2,0.7,0.2,1.1v4.5h-1.2v-4.5
				c0-0.5-0.1-1-0.4-1.2c-0.2-0.3-0.6-0.4-1.1-0.4c-0.4,0-0.7,0.1-1,0.3c-0.3,0.2-0.6,0.4-0.9,0.7v5.2H141.3z"/>
			<path class="st7" d="M161.7,344.1c0.1,0,0.1,0,0.2,0.1l0.5,0.6c-0.4,0.5-0.9,0.8-1.5,1.1c-0.6,0.3-1.3,0.4-2.1,0.4
				c-0.7,0-1.4-0.1-2-0.4c-0.6-0.2-1.1-0.6-1.5-1s-0.7-1-1-1.6c-0.2-0.6-0.3-1.3-0.3-2.1s0.1-1.4,0.4-2.1s0.6-1.2,1-1.6
				c0.4-0.5,1-0.8,1.6-1.1c0.6-0.2,1.3-0.4,2-0.4c0.7,0,1.4,0.1,1.9,0.3c0.5,0.2,1,0.5,1.4,0.9l-0.4,0.6c0,0-0.1,0.1-0.1,0.1
				c0,0-0.1,0-0.2,0c-0.1,0-0.1,0-0.2-0.1c-0.1,0-0.1-0.1-0.2-0.2c-0.1-0.1-0.2-0.1-0.3-0.2c-0.1-0.1-0.3-0.1-0.4-0.2
				c-0.2-0.1-0.4-0.1-0.6-0.2c-0.2,0-0.5-0.1-0.8-0.1c-0.5,0-1,0.1-1.5,0.3s-0.8,0.4-1.2,0.8c-0.3,0.3-0.6,0.8-0.8,1.2
				s-0.3,1-0.3,1.6c0,0.6,0.1,1.2,0.3,1.7s0.4,0.9,0.7,1.2c0.3,0.3,0.7,0.6,1.1,0.8c0.4,0.2,0.9,0.3,1.4,0.3c0.3,0,0.6,0,0.8-0.1
				c0.2,0,0.5-0.1,0.7-0.2c0.2-0.1,0.4-0.2,0.6-0.3c0.2-0.1,0.4-0.3,0.5-0.4C161.6,344.1,161.6,344.1,161.7,344.1z"/>
			<path class="st7" d="M165.1,339.1v4.5c0,0.5,0.1,1,0.4,1.2c0.2,0.3,0.6,0.4,1.1,0.4c0.4,0,0.7-0.1,1-0.3c0.3-0.2,0.6-0.4,0.9-0.7
				v-5.2h1.2v7.1H169c-0.2,0-0.3-0.1-0.3-0.3l-0.1-0.8c-0.3,0.3-0.7,0.6-1,0.8c-0.4,0.2-0.8,0.3-1.3,0.3c-0.4,0-0.7-0.1-1-0.2
				c-0.3-0.1-0.5-0.3-0.7-0.5s-0.4-0.5-0.5-0.8c-0.1-0.3-0.2-0.7-0.2-1.1v-4.5H165.1z"/>
			<path class="st7" d="M177,346.2h-0.6c-0.1,0-0.2,0-0.3-0.1c-0.1,0-0.1-0.1-0.1-0.2l-0.1-0.7c-0.2,0.2-0.4,0.3-0.5,0.5
				c-0.2,0.1-0.4,0.2-0.6,0.3c-0.2,0.1-0.4,0.2-0.6,0.2s-0.5,0.1-0.7,0.1c-0.3,0-0.5,0-0.8-0.1s-0.4-0.2-0.6-0.3
				c-0.2-0.2-0.3-0.3-0.4-0.6c-0.1-0.2-0.2-0.5-0.2-0.8c0-0.3,0.1-0.6,0.2-0.8s0.4-0.5,0.7-0.7c0.3-0.2,0.8-0.4,1.3-0.5
				c0.6-0.1,1.2-0.2,2-0.2v-0.6c0-0.6-0.1-1-0.4-1.3c-0.2-0.3-0.6-0.4-1-0.4c-0.3,0-0.6,0-0.8,0.1s-0.4,0.2-0.5,0.3
				c-0.2,0.1-0.3,0.2-0.4,0.3c-0.1,0.1-0.2,0.1-0.3,0.1c-0.1,0-0.2,0-0.2-0.1s-0.1-0.1-0.2-0.2l-0.2-0.4c0.4-0.4,0.8-0.7,1.3-0.8
				c0.5-0.2,1-0.3,1.5-0.3c0.4,0,0.7,0.1,1.1,0.2c0.3,0.1,0.6,0.3,0.8,0.5c0.2,0.2,0.4,0.5,0.5,0.8s0.2,0.7,0.2,1.1V346.2z
				 M173.8,345.4c0.2,0,0.4,0,0.6-0.1c0.2,0,0.4-0.1,0.5-0.2c0.2-0.1,0.3-0.2,0.5-0.3c0.1-0.1,0.3-0.2,0.4-0.4V343
				c-0.6,0-1.1,0-1.5,0.1c-0.4,0.1-0.7,0.2-1,0.3c-0.3,0.1-0.4,0.3-0.5,0.4c-0.1,0.2-0.2,0.3-0.2,0.5c0,0.2,0,0.3,0.1,0.5
				c0.1,0.1,0.1,0.2,0.2,0.3c0.1,0.1,0.2,0.2,0.4,0.2C173.5,345.4,173.6,345.4,173.8,345.4z"/>
			<path class="st7" d="M180,339.1v4.5c0,0.5,0.1,1,0.4,1.2c0.2,0.3,0.6,0.4,1.1,0.4c0.4,0,0.7-0.1,1-0.3c0.3-0.2,0.6-0.4,0.9-0.7
				v-5.2h1.2v7.1h-0.7c-0.2,0-0.3-0.1-0.3-0.3l-0.1-0.8c-0.3,0.3-0.7,0.6-1,0.8c-0.4,0.2-0.8,0.3-1.3,0.3c-0.4,0-0.7-0.1-1-0.2
				c-0.3-0.1-0.5-0.3-0.7-0.5s-0.4-0.5-0.5-0.8c-0.1-0.3-0.2-0.7-0.2-1.1v-4.5H180z"/>
			<path class="st7" d="M186.7,346.2v-10.3h1.2v4.2c0.3-0.3,0.6-0.6,1-0.8c0.4-0.2,0.8-0.3,1.3-0.3c0.4,0,0.7,0.1,1,0.2
				c0.3,0.1,0.5,0.3,0.7,0.5c0.2,0.2,0.3,0.5,0.5,0.9c0.1,0.3,0.2,0.7,0.2,1.1v4.5h-1.2v-4.5c0-0.5-0.1-1-0.4-1.2
				c-0.2-0.3-0.6-0.4-1.1-0.4c-0.4,0-0.7,0.1-1,0.3c-0.3,0.2-0.6,0.4-0.9,0.7v5.2H186.7z"/>
			<path class="st7" d="M196.6,346.3c-0.6,0-1-0.2-1.3-0.5c-0.3-0.3-0.5-0.8-0.5-1.4v-4.3H194c-0.1,0-0.1,0-0.2-0.1
				c-0.1,0-0.1-0.1-0.1-0.2v-0.5l1.2-0.1l0.3-2.2c0-0.1,0-0.1,0.1-0.2c0.1,0,0.1-0.1,0.2-0.1h0.6v2.4h2v0.9h-2v4.3
				c0,0.3,0.1,0.5,0.2,0.7c0.1,0.1,0.3,0.2,0.6,0.2c0.1,0,0.2,0,0.3-0.1c0.1,0,0.2-0.1,0.2-0.1s0.1-0.1,0.2-0.1c0,0,0.1-0.1,0.1-0.1
				c0.1,0,0.1,0,0.2,0.1l0.4,0.6c-0.2,0.2-0.5,0.4-0.8,0.5S197,346.3,196.6,346.3z"/>
			<path class="st7" d="M202.5,339c0.4,0,0.8,0.1,1.2,0.2s0.7,0.3,0.9,0.6c0.3,0.3,0.5,0.6,0.6,1c0.1,0.4,0.2,0.8,0.2,1.3
				c0,0.2,0,0.3-0.1,0.4s-0.1,0.1-0.2,0.1h-4.7c0,0.4,0.1,0.8,0.2,1.2c0.1,0.3,0.3,0.6,0.5,0.8c0.2,0.2,0.4,0.4,0.7,0.5
				c0.3,0.1,0.6,0.2,0.9,0.2c0.3,0,0.6,0,0.8-0.1c0.2-0.1,0.4-0.2,0.6-0.2s0.3-0.2,0.4-0.2c0.1-0.1,0.2-0.1,0.3-0.1
				c0.1,0,0.2,0,0.2,0.1l0.3,0.5c-0.2,0.2-0.3,0.3-0.6,0.5c-0.2,0.1-0.4,0.3-0.7,0.3s-0.5,0.2-0.8,0.2c-0.3,0-0.5,0.1-0.8,0.1
				c-0.5,0-0.9-0.1-1.4-0.2c-0.4-0.2-0.8-0.4-1.1-0.7c-0.3-0.3-0.5-0.7-0.7-1.2c-0.2-0.5-0.3-1-0.3-1.6c0-0.5,0.1-1,0.2-1.4
				c0.2-0.4,0.4-0.8,0.7-1.1c0.3-0.3,0.6-0.6,1-0.7S202,339,202.5,339z M202.6,339.9c-0.6,0-1.1,0.2-1.4,0.5s-0.6,0.8-0.6,1.4h3.9
				c0-0.3,0-0.6-0.1-0.8c-0.1-0.2-0.2-0.4-0.3-0.6c-0.2-0.2-0.3-0.3-0.6-0.4C203.1,339.9,202.8,339.9,202.6,339.9z M204.6,336
				l-1.6,1.8c-0.1,0.1-0.1,0.1-0.2,0.2s-0.1,0-0.2,0h-0.7l1-1.7c0.1-0.1,0.1-0.2,0.2-0.2s0.2-0.1,0.3-0.1H204.6z"/>
			<path class="st7" d="M207.1,346.2v-7.1h0.7c0.2,0,0.3,0.1,0.3,0.3l0.1,0.7c0.3-0.3,0.6-0.6,0.9-0.8c0.3-0.2,0.7-0.3,1.1-0.3
				c0.5,0,0.9,0.1,1.2,0.4c0.3,0.3,0.5,0.6,0.6,1.1c0.1-0.3,0.2-0.5,0.4-0.7s0.3-0.3,0.5-0.5c0.2-0.1,0.4-0.2,0.6-0.3
				s0.5-0.1,0.7-0.1c0.4,0,0.7,0.1,1,0.2c0.3,0.1,0.5,0.3,0.7,0.5c0.2,0.2,0.4,0.5,0.5,0.8c0.1,0.3,0.2,0.7,0.2,1.1v4.5h-1.2v-4.5
				c0-0.6-0.1-1-0.4-1.3c-0.2-0.3-0.6-0.4-1.1-0.4c-0.2,0-0.4,0-0.6,0.1c-0.2,0.1-0.3,0.2-0.5,0.3c-0.1,0.1-0.3,0.3-0.3,0.5
				c-0.1,0.2-0.1,0.5-0.1,0.7v4.5h-1.2v-4.5c0-0.6-0.1-1-0.3-1.3s-0.6-0.4-1-0.4c-0.3,0-0.6,0.1-0.9,0.2c-0.3,0.2-0.5,0.4-0.7,0.7
				v5.3H207.1z"/>
			<path class="st7" d="M221.4,339c0.5,0,1,0.1,1.4,0.3c0.4,0.2,0.8,0.4,1.1,0.7c0.3,0.3,0.5,0.7,0.7,1.2s0.2,1,0.2,1.5
				c0,0.6-0.1,1.1-0.2,1.5s-0.4,0.8-0.7,1.1c-0.3,0.3-0.6,0.6-1.1,0.7c-0.4,0.2-0.9,0.3-1.4,0.3c-0.5,0-1-0.1-1.4-0.3
				c-0.4-0.2-0.8-0.4-1.1-0.7s-0.5-0.7-0.7-1.1c-0.2-0.4-0.2-1-0.2-1.5c0-0.6,0.1-1.1,0.2-1.5c0.2-0.5,0.4-0.8,0.7-1.2
				s0.6-0.6,1.1-0.7C220.4,339.1,220.9,339,221.4,339z M221.4,345.3c0.7,0,1.2-0.2,1.6-0.7c0.3-0.5,0.5-1.1,0.5-2
				c0-0.8-0.2-1.5-0.5-2c-0.3-0.5-0.9-0.7-1.6-0.7c-0.4,0-0.7,0.1-0.9,0.2s-0.5,0.3-0.7,0.5s-0.3,0.5-0.4,0.8
				c-0.1,0.3-0.1,0.7-0.1,1.1s0,0.8,0.1,1.1c0.1,0.3,0.2,0.6,0.4,0.8c0.2,0.2,0.4,0.4,0.7,0.5C220.8,345.2,221.1,345.3,221.4,345.3z
				"/>
			<path class="st7" d="M231.2,340.3c0,0.1-0.1,0.1-0.1,0.1s-0.1,0-0.2,0c-0.1,0-0.1,0-0.2-0.1c-0.1-0.1-0.2-0.1-0.3-0.2
				c-0.1-0.1-0.3-0.1-0.5-0.2s-0.4-0.1-0.7-0.1c-0.3,0-0.7,0.1-0.9,0.2c-0.3,0.1-0.5,0.3-0.7,0.5s-0.3,0.5-0.4,0.8s-0.1,0.7-0.1,1.1
				c0,0.4,0,0.8,0.1,1.1s0.2,0.6,0.4,0.8c0.2,0.2,0.4,0.4,0.6,0.5c0.3,0.1,0.5,0.2,0.9,0.2c0.3,0,0.6,0,0.7-0.1s0.4-0.2,0.5-0.2
				c0.1-0.1,0.2-0.2,0.3-0.2c0.1-0.1,0.2-0.1,0.3-0.1c0.1,0,0.2,0,0.2,0.1l0.4,0.5c-0.3,0.4-0.7,0.7-1.2,0.8c-0.5,0.2-1,0.3-1.5,0.3
				c-0.4,0-0.9-0.1-1.2-0.2c-0.4-0.2-0.7-0.4-1-0.7c-0.3-0.3-0.5-0.7-0.7-1.1s-0.2-1-0.2-1.5c0-0.5,0.1-1,0.2-1.5
				c0.1-0.4,0.4-0.8,0.6-1.2c0.3-0.3,0.6-0.6,1-0.8c0.4-0.2,0.9-0.3,1.4-0.3c0.5,0,0.9,0.1,1.3,0.2c0.4,0.2,0.7,0.4,1,0.7
				L231.2,340.3z"/>
		</g>
	</g>
</g>
</svg>
