<?xml version="1.0" encoding="utf-8"?>
<!-- Generator: Adobe Illustrator 22.1.0, SVG Export Plug-In . SVG Version: 6.00 Build 0)  -->
<svg version="1.1" id="Capa_1" xmlns="http://www.w3.org/2000/svg" xmlns:xlink="http://www.w3.org/1999/xlink" x="0px" y="0px"
	 viewBox="0 0 260.1 257" style="enable-background:new 0 0 260.1 257;" xml:space="preserve">
<style type="text/css">
	.st0{fill:#D4D4D4;}
	.st1{fill:#E9E9E9;}
	.st2{fill:#C0C0C0;}
	.st3{fill:#CBCBCB;}
	.st4{fill:none;stroke:#6D0E29;stroke-width:0.5;stroke-miterlimit:10;}
	.st5{fill:none;stroke:#6D0E29;stroke-miterlimit:10;}
	.st6{enable-background:new    ;}
	.st7{fill:#FFFFFF;}
	.st8{fill:#F1F1F1;}
</style>
<title>chihuahua110.cu</title>
<g id="Capa_2_1_">
	<g id="edificios">
		<g id="chihuahua_110_cuauhtémoc">
			<polygon class="st0" points="47,144.5 68.4,168.1 70.1,204.2 49.4,178.7 47.9,157.2 			"/>
			<polygon class="st0" points="68.4,168.1 47,144.5 45.7,124.8 44.5,107.7 66.6,128.8 			"/>
			<polygon class="st0" points="66.6,128.8 44.5,107.7 43.3,90.1 41.8,67.8 64.6,86 			"/>
			<polygon class="st1" points="66.6,128.8 64.6,86 91.1,88.8 91.9,132 			"/>
			<polygon class="st2" points="64.6,86 41.8,67.8 42.7,67.1 50.3,61.3 55,57.8 50.1,58.7 41.7,52.5 26.2,55.3 9.9,42.2 24.5,39.8 
				0.5,24 2.8,23.6 6.7,23 2.4,20 141.2,0.5 145.2,2 151,1.1 182.7,12.4 210.5,7.9 243.4,18.4 214.5,23.6 241.6,33 259.6,39.2 
				182.3,57 189.9,60.6 184,66.2 160.7,71.5 149.6,71.1 145.6,68.9 139,77.8 91.1,88.8 			"/>
			<polygon class="st0" points="0.5,24 24.5,39.8 9.9,42.2 11.9,62.6 3.9,56.2 			"/>
			<polygon class="st0" points="9.9,42.2 26.2,55.3 29.4,93.1 13.4,77.8 11.9,62.6 			"/>
			<polygon class="st1" points="50.1,58.7 55,57.8 50.3,61.3 			"/>
			<polygon class="st3" points="2.4,20 6.7,23 2.8,23.6 			"/>
			<polygon class="st0" points="41.7,52.5 50.1,58.7 50.3,61.3 42.7,67.1 			"/>
			<polygon class="st1" points="41.7,52.5 42.7,67.1 41.8,67.8 43.3,90.1 29.4,93.1 26.2,55.3 			"/>
			<polygon class="st0" points="35,161 19.6,142.1 17.8,123.2 16.6,111 32.3,128.3 			"/>
			<polygon class="st1" points="47.9,157.2 35,161 32.3,128.3 45.7,124.8 47,144.5 			"/>
			<polygon class="st1" points="184,66.2 189.9,60.6 187.4,93 186.9,99.3 181.1,105.8 			"/>
			<polygon class="st0" points="10.1,115.2 7.1,86.6 14.9,93.8 16.6,111 17.8,123.2 			"/>
			<polygon class="st1" points="91.1,88.8 139,77.8 137.8,119.3 91.9,132 			"/>
			<polygon class="st1" points="189.9,60.6 182.3,57 259.6,39.2 254.6,74.3 187.4,93 			"/>
			<polygon class="st0" points="145.6,68.9 149.6,71.1 148,111.5 144.3,109 			"/>
			<polygon class="st1" points="149.6,71.1 160.7,71.5 158.7,112 148,111.5 			"/>
			<polygon class="st1" points="29.4,93.1 43.3,90.1 44.5,107.7 45.7,124.8 32.3,128.3 			"/>
			<polygon class="st0" points="139,77.8 145.6,68.9 144.3,109 137.8,119.3 			"/>
			<polygon class="st1" points="160.7,71.5 184,66.2 181.1,105.8 158.7,112 			"/>
			<polygon class="st1" points="249.9,107 245.6,137.7 182.2,160.8 184.1,135.2 184.7,128.1 			"/>
			<polygon class="st1" points="148,111.5 158.7,112 156.9,149.4 146.6,148.8 			"/>
			<polygon class="st0" points="148,111.5 146.6,148.8 143,146 144.3,109 			"/>
			<polygon class="st0" points="143,146 146.6,148.8 145.3,183.4 141.9,180.3 			"/>
			<polygon class="st0" points="143,146 141.9,180.3 135.8,192.9 136.8,157.6 			"/>
			<polygon class="st1" points="136.8,157.6 135.8,192.9 93.5,208.1 92.7,171.7 			"/>
			<polygon class="st1" points="145.3,183.4 146.6,148.8 156.9,149.4 155.2,184 			"/>
			<polygon class="st1" points="155.2,184 156.9,149.4 178.5,142.5 176.1,176.5 			"/>
			<polygon class="st1" points="176.1,176.5 178.5,142.5 184.1,135.2 182.2,160.8 181.6,168.6 			"/>
			<polygon class="st1" points="184.1,135.2 178.5,142.5 181.1,105.8 186.9,99.3 184.7,128.1 			"/>
			<polygon class="st1" points="70.1,204.2 68.4,168.1 92.7,171.7 93.5,208.1 			"/>
			<polygon class="st1" points="68.4,168.1 66.6,128.8 91.9,132 92.7,171.7 			"/>
			<polygon class="st1" points="214.5,23.6 243.4,18.4 241.6,33 			"/>
			<polygon class="st0" points="29.4,93.1 32.3,128.3 16.6,111 14.9,93.8 13.4,77.8 			"/>
			<polygon class="st1" points="156.9,149.4 158.7,112 181.1,105.8 178.5,142.5 			"/>
			<polygon class="st1" points="91.9,132 137.8,119.3 136.8,157.6 92.7,171.7 			"/>
			<polygon class="st0" points="143,146 136.8,157.6 137.8,119.3 144.3,109 			"/>
			<polygon class="st1" points="187.4,93 254.6,74.3 249.9,107 184.7,128.1 186.9,99.3 			"/>
			<polygon class="st0" points="14.9,93.8 7.1,86.6 3.9,56.2 11.9,62.6 13.4,77.8 			"/>
			<line class="st4" x1="47" y1="144.5" x2="68.4" y2="168.1"/>
			<line class="st4" x1="42.7" y1="67.1" x2="41.7" y2="52.5"/>
			<line class="st4" x1="24.5" y1="39.8" x2="0.5" y2="24"/>
			<line class="st4" x1="66.6" y1="128.8" x2="64.6" y2="86"/>
			<line class="st5" x1="35" y1="161" x2="19.6" y2="142.1"/>
			<line class="st4" x1="26.2" y1="55.3" x2="9.9" y2="42.2"/>
			<line class="st4" x1="55" y1="57.8" x2="50.1" y2="58.7"/>
			<line class="st4" x1="6.7" y1="23" x2="2.5" y2="20"/>
			<line class="st4" x1="50.1" y1="58.7" x2="41.7" y2="52.5"/>
			<line class="st5" x1="47.9" y1="157.2" x2="35" y2="161"/>
			<line class="st5" x1="2.5" y1="20" x2="141.2" y2="0.5"/>
			<line class="st4" x1="176.1" y1="176.5" x2="178.5" y2="142.5"/>
			<line class="st4" x1="41.7" y1="52.5" x2="26.2" y2="55.3"/>
			<line class="st4" x1="64.6" y1="86" x2="41.8" y2="67.8"/>
			<line class="st5" x1="210.5" y1="7.9" x2="243.4" y2="18.4"/>
			<line class="st4" x1="189.9" y1="60.6" x2="184" y2="66.2"/>
			<line class="st5" x1="10.1" y1="115.2" x2="7.1" y2="86.6"/>
			<line class="st4" x1="141.9" y1="180.3" x2="143" y2="146"/>
			<line class="st4" x1="139" y1="77.8" x2="91.1" y2="88.8"/>
			<line class="st4" x1="44.5" y1="107.7" x2="66.6" y2="128.8"/>
			<line class="st5" x1="182.3" y1="57" x2="189.9" y2="60.6"/>
			<line class="st5" x1="145.2" y1="1.9" x2="151" y2="1.1"/>
			<line class="st4" x1="149.6" y1="71.1" x2="145.6" y2="68.9"/>
			<line class="st4" x1="259.6" y1="39.2" x2="182.3" y2="57"/>
			<line class="st4" x1="160.7" y1="71.5" x2="149.6" y2="71.1"/>
			<line class="st5" x1="141.2" y1="0.5" x2="145.2" y2="1.9"/>
			<line class="st4" x1="29.4" y1="93.1" x2="43.3" y2="90.1"/>
			<line class="st4" x1="145.6" y1="68.9" x2="139" y2="77.8"/>
			<line class="st4" x1="184" y1="66.2" x2="160.7" y2="71.5"/>
			<line class="st5" x1="245.6" y1="137.7" x2="249.9" y2="107"/>
			<line class="st4" x1="146.6" y1="148.8" x2="148" y2="111.5"/>
			<line class="st4" x1="143" y1="146" x2="146.6" y2="148.8"/>
			<line class="st4" x1="148" y1="111.5" x2="158.7" y2="112"/>
			<line class="st4" x1="148" y1="111.5" x2="149.6" y2="71.1"/>
			<line class="st4" x1="158.7" y1="112" x2="160.7" y2="71.5"/>
			<line class="st4" x1="178.5" y1="142.5" x2="184.1" y2="135.2"/>
			<line class="st4" x1="32.3" y1="128.3" x2="45.7" y2="124.8"/>
			<line class="st4" x1="91.1" y1="88.8" x2="64.6" y2="86"/>
			<line class="st4" x1="144.3" y1="109" x2="148" y2="111.5"/>
			<line class="st4" x1="135.8" y1="192.9" x2="136.8" y2="157.6"/>
			<line class="st4" x1="155.2" y1="184" x2="156.9" y2="149.4"/>
			<line class="st4" x1="145.3" y1="183.4" x2="146.6" y2="148.8"/>
			<line class="st5" x1="151" y1="1.1" x2="182.7" y2="12.4"/>
			<line class="st4" x1="35" y1="161" x2="32.3" y2="128.3"/>
			<line class="st4" x1="70.1" y1="204.2" x2="68.4" y2="168.1"/>
			<line class="st4" x1="93.5" y1="208.1" x2="92.7" y2="171.7"/>
			<line class="st4" x1="68.4" y1="168.1" x2="66.6" y2="128.8"/>
			<line class="st5" x1="9.9" y1="42.2" x2="24.5" y2="39.8"/>
			<line class="st5" x1="182.7" y1="12.4" x2="210.5" y2="7.9"/>
			<line class="st4" x1="243.4" y1="18.4" x2="214.5" y2="23.6"/>
			<line class="st4" x1="32.3" y1="128.3" x2="29.4" y2="93.1"/>
			<line class="st4" x1="13.4" y1="77.8" x2="29.4" y2="93.1"/>
			<line class="st4" x1="29.4" y1="93.1" x2="26.2" y2="55.3"/>
			<line class="st4" x1="156.9" y1="149.4" x2="158.7" y2="112"/>
			<line class="st5" x1="3.9" y1="56.2" x2="0.5" y2="24"/>
			<line class="st5" x1="145.3" y1="183.4" x2="141.9" y2="180.3"/>
			<line class="st4" x1="91.9" y1="132" x2="137.8" y2="119.3"/>
			<line class="st4" x1="181.1" y1="105.8" x2="186.9" y2="99.3"/>
			<line class="st4" x1="92.7" y1="171.7" x2="91.9" y2="132"/>
			<line class="st4" x1="137.8" y1="119.3" x2="139" y2="77.8"/>
			<line class="st5" x1="241.6" y1="33" x2="243.4" y2="18.4"/>
			<line class="st4" x1="68.4" y1="168.1" x2="92.7" y2="171.7"/>
			<line class="st5" x1="70.1" y1="204.2" x2="49.4" y2="178.7"/>
			<line class="st4" x1="146.6" y1="148.8" x2="156.9" y2="149.4"/>
			<line class="st4" x1="136.8" y1="157.6" x2="143" y2="146"/>
			<line class="st4" x1="143" y1="146" x2="144.3" y2="109"/>
			<line class="st4" x1="187.4" y1="93" x2="254.6" y2="74.3"/>
			<line class="st5" x1="254.6" y1="74.3" x2="259.6" y2="39.2"/>
			<line class="st4" x1="136.8" y1="157.6" x2="137.8" y2="119.3"/>
			<line class="st5" x1="141.9" y1="180.3" x2="135.8" y2="192.9"/>
			<line class="st5" x1="176.1" y1="176.5" x2="155.2" y2="184"/>
			<line class="st4" x1="7.1" y1="86.6" x2="14.9" y2="93.8"/>
			<line class="st5" x1="93.5" y1="208.1" x2="70.1" y2="204.2"/>
			<line class="st5" x1="155.2" y1="184" x2="145.3" y2="183.4"/>
			<line class="st4" x1="92.7" y1="171.7" x2="136.8" y2="157.6"/>
			<line class="st4" x1="3.9" y1="56.2" x2="11.9" y2="62.6"/>
			<line class="st5" x1="181.6" y1="168.6" x2="176.1" y2="176.5"/>
			<line class="st4" x1="66.6" y1="128.8" x2="91.9" y2="132"/>
			<line class="st4" x1="178.5" y1="142.5" x2="181.1" y2="105.8"/>
			<line class="st4" x1="158.7" y1="112" x2="181.1" y2="105.8"/>
			<line class="st4" x1="50.3" y1="61.3" x2="50.1" y2="58.7"/>
			<line class="st5" x1="17.8" y1="123.2" x2="10.1" y2="115.2"/>
			<line class="st5" x1="245.6" y1="137.7" x2="182.2" y2="160.8"/>
			<line class="st4" x1="156.9" y1="149.4" x2="178.5" y2="142.5"/>
			<line class="st4" x1="144.3" y1="109" x2="145.6" y2="68.9"/>
			<line class="st4" x1="184.7" y1="128.1" x2="249.9" y2="107"/>
			<line class="st5" x1="249.9" y1="107" x2="254.6" y2="74.3"/>
			<line class="st4" x1="137.8" y1="119.3" x2="144.3" y2="109"/>
			<line class="st5" x1="7.1" y1="86.6" x2="3.9" y2="56.2"/>
			<line class="st5" x1="135.8" y1="192.9" x2="93.5" y2="208.1"/>
			<line class="st5" x1="2.8" y1="23.6" x2="2.5" y2="20"/>
			<line class="st4" x1="91.9" y1="132" x2="91.1" y2="88.8"/>
			<line class="st4" x1="181.1" y1="105.8" x2="184" y2="66.2"/>
			<line class="st4" x1="16.6" y1="111" x2="32.3" y2="128.3"/>
			<line class="st5" x1="44.5" y1="107.7" x2="43.3" y2="90.1"/>
			<line class="st5" x1="43.3" y1="90.1" x2="41.8" y2="67.8"/>
			<line class="st5" x1="181.6" y1="168.6" x2="182.2" y2="160.8"/>
			<line class="st5" x1="182.2" y1="160.8" x2="184.1" y2="135.2"/>
			<line class="st5" x1="19.6" y1="142.1" x2="17.8" y2="123.2"/>
			<line class="st5" x1="17.8" y1="123.2" x2="16.6" y2="111"/>
			<line class="st5" x1="0.5" y1="24" x2="2.8" y2="23.6"/>
			<line class="st5" x1="2.8" y1="23.6" x2="6.7" y2="23"/>
			<line class="st5" x1="214.5" y1="23.6" x2="241.6" y2="33"/>
			<line class="st5" x1="241.6" y1="33" x2="259.6" y2="39.2"/>
			<line class="st5" x1="184.1" y1="135.2" x2="184.7" y2="128.1"/>
			<line class="st5" x1="184.7" y1="128.1" x2="186.9" y2="99.3"/>
			<line class="st5" x1="41.8" y1="67.8" x2="42.7" y2="67.1"/>
			<line class="st5" x1="49.4" y1="178.7" x2="47.9" y2="157.2"/>
			<line class="st5" x1="47.9" y1="157.2" x2="47" y2="144.5"/>
			<line class="st5" x1="186.9" y1="99.3" x2="187.4" y2="93"/>
			<line class="st5" x1="187.4" y1="93" x2="189.9" y2="60.6"/>
			<line class="st5" x1="47" y1="144.5" x2="45.7" y2="124.8"/>
			<line class="st5" x1="45.7" y1="124.8" x2="44.5" y2="107.7"/>
			<line class="st5" x1="16.6" y1="111" x2="14.9" y2="93.8"/>
			<line class="st5" x1="14.9" y1="93.8" x2="13.4" y2="77.8"/>
			<line class="st5" x1="13.4" y1="77.8" x2="11.9" y2="62.6"/>
			<line class="st5" x1="11.9" y1="62.6" x2="9.9" y2="42.2"/>
			<line class="st5" x1="42.7" y1="67.1" x2="50.3" y2="61.3"/>
			<line class="st5" x1="50.3" y1="61.3" x2="55" y2="57.8"/>
		</g>
		<g class="st6">
			<path class="st7" d="M61.9,234.9c0.1,0,0.2,0,0.3,0.1l0.8,0.9c-0.5,0.6-1,1-1.7,1.3c-0.7,0.3-1.5,0.5-2.5,0.5
				c-0.9,0-1.6-0.1-2.3-0.4c-0.7-0.3-1.3-0.7-1.8-1.2s-0.9-1.1-1.1-1.9c-0.3-0.7-0.4-1.5-0.4-2.4c0-0.9,0.1-1.7,0.4-2.4
				c0.3-0.7,0.7-1.3,1.2-1.9c0.5-0.5,1.1-0.9,1.9-1.2c0.7-0.3,1.5-0.4,2.4-0.4c0.9,0,1.6,0.1,2.3,0.4c0.6,0.3,1.2,0.6,1.7,1.1
				l-0.7,1c0,0.1-0.1,0.1-0.2,0.2c-0.1,0-0.2,0.1-0.3,0.1c-0.1,0-0.2,0-0.4-0.1c-0.1-0.1-0.3-0.2-0.5-0.3c-0.2-0.1-0.4-0.2-0.7-0.3
				c-0.3-0.1-0.7-0.1-1.1-0.1c-0.5,0-1,0.1-1.5,0.3s-0.8,0.5-1.2,0.8c-0.3,0.4-0.6,0.8-0.8,1.3c-0.2,0.5-0.3,1.1-0.3,1.7
				c0,0.7,0.1,1.2,0.3,1.7c0.2,0.5,0.4,0.9,0.7,1.3c0.3,0.3,0.7,0.6,1.1,0.8c0.4,0.2,0.9,0.3,1.4,0.3c0.3,0,0.6,0,0.8,0
				s0.5-0.1,0.7-0.2c0.2-0.1,0.4-0.2,0.6-0.3s0.4-0.2,0.5-0.4c0.1,0,0.1-0.1,0.2-0.1C61.8,234.9,61.9,234.9,61.9,234.9z"/>
			<path class="st7" d="M64.6,237.6v-11.9h2v4.6c0.3-0.3,0.7-0.5,1.1-0.7c0.4-0.2,0.8-0.3,1.4-0.3c0.4,0,0.8,0.1,1.2,0.2
				c0.3,0.2,0.6,0.4,0.9,0.6s0.4,0.6,0.5,1c0.1,0.4,0.2,0.8,0.2,1.3v5.2h-2v-5.2c0-0.5-0.1-0.9-0.3-1.2c-0.2-0.3-0.6-0.4-1-0.4
				c-0.3,0-0.7,0.1-1,0.2c-0.3,0.2-0.6,0.4-0.8,0.6v5.9H64.6z"/>
			<path class="st7" d="M76.1,227c0,0.2,0,0.3-0.1,0.5s-0.2,0.3-0.3,0.4c-0.1,0.1-0.2,0.2-0.4,0.3s-0.3,0.1-0.5,0.1
				c-0.2,0-0.3,0-0.5-0.1c-0.2-0.1-0.3-0.2-0.4-0.3c-0.1-0.1-0.2-0.2-0.3-0.4c-0.1-0.1-0.1-0.3-0.1-0.5c0-0.2,0-0.3,0.1-0.5
				c0.1-0.2,0.2-0.3,0.3-0.4c0.1-0.1,0.2-0.2,0.4-0.3c0.2-0.1,0.3-0.1,0.5-0.1c0.2,0,0.3,0,0.5,0.1c0.2,0.1,0.3,0.2,0.4,0.3
				c0.1,0.1,0.2,0.2,0.3,0.4C76,226.7,76.1,226.9,76.1,227z M75.8,229.4v8.2h-2v-8.2H75.8z"/>
			<path class="st7" d="M78,237.6v-11.9h2v4.6c0.3-0.3,0.7-0.5,1.1-0.7c0.4-0.2,0.8-0.3,1.4-0.3c0.4,0,0.8,0.1,1.2,0.2
				c0.3,0.2,0.6,0.4,0.9,0.6s0.4,0.6,0.5,1c0.1,0.4,0.2,0.8,0.2,1.3v5.2h-2v-5.2c0-0.5-0.1-0.9-0.3-1.2c-0.2-0.3-0.6-0.4-1-0.4
				c-0.3,0-0.7,0.1-1,0.2c-0.3,0.2-0.6,0.4-0.8,0.6v5.9H78z"/>
			<path class="st7" d="M88.9,229.4v5.2c0,0.5,0.1,0.9,0.3,1.2s0.6,0.4,1,0.4c0.3,0,0.7-0.1,1-0.2c0.3-0.2,0.6-0.4,0.8-0.6v-5.9h2
				v8.2h-1.2c-0.3,0-0.4-0.1-0.5-0.4l-0.1-0.7c-0.2,0.2-0.3,0.3-0.5,0.5c-0.2,0.1-0.4,0.3-0.6,0.4c-0.2,0.1-0.4,0.2-0.7,0.2
				s-0.5,0.1-0.8,0.1c-0.4,0-0.8-0.1-1.2-0.2c-0.3-0.2-0.6-0.4-0.9-0.6c-0.2-0.3-0.4-0.6-0.5-1c-0.1-0.4-0.2-0.8-0.2-1.3v-5.2H88.9z
				"/>
			<path class="st7" d="M102.6,237.6h-0.9c-0.2,0-0.3,0-0.4-0.1c-0.1-0.1-0.2-0.2-0.2-0.3l-0.2-0.6c-0.2,0.2-0.4,0.4-0.6,0.5
				c-0.2,0.1-0.4,0.3-0.6,0.4c-0.2,0.1-0.4,0.2-0.7,0.2c-0.2,0-0.5,0.1-0.8,0.1c-0.3,0-0.7,0-1-0.1c-0.3-0.1-0.5-0.2-0.8-0.4
				c-0.2-0.2-0.4-0.4-0.5-0.7c-0.1-0.3-0.2-0.6-0.2-1c0-0.3,0.1-0.6,0.2-0.9s0.4-0.6,0.8-0.8c0.4-0.2,0.9-0.4,1.5-0.6
				s1.4-0.2,2.3-0.2v-0.5c0-0.6-0.1-1-0.3-1.2c-0.2-0.3-0.6-0.4-1-0.4c-0.3,0-0.6,0-0.8,0.1c-0.2,0.1-0.4,0.2-0.6,0.3
				c-0.2,0.1-0.3,0.2-0.4,0.3c-0.1,0.1-0.3,0.1-0.4,0.1c-0.1,0-0.2,0-0.3-0.1s-0.2-0.2-0.2-0.3l-0.4-0.6c0.9-0.9,2.1-1.3,3.4-1.3
				c0.5,0,0.9,0.1,1.3,0.2s0.7,0.4,1,0.7c0.3,0.3,0.5,0.6,0.6,1c0.1,0.4,0.2,0.8,0.2,1.3V237.6z M98.8,236.4c0.2,0,0.4,0,0.6-0.1
				c0.2,0,0.3-0.1,0.5-0.2c0.2-0.1,0.3-0.2,0.4-0.3c0.1-0.1,0.3-0.2,0.4-0.4v-1.4c-0.6,0-1.1,0-1.4,0.1c-0.4,0.1-0.7,0.2-0.9,0.3
				c-0.2,0.1-0.4,0.2-0.5,0.4s-0.1,0.3-0.1,0.5c0,0.3,0.1,0.6,0.3,0.7C98.2,236.3,98.5,236.4,98.8,236.4z"/>
			<path class="st7" d="M104.6,237.6v-11.9h2v4.6c0.3-0.3,0.7-0.5,1.1-0.7c0.4-0.2,0.8-0.3,1.4-0.3c0.4,0,0.8,0.1,1.2,0.2
				c0.3,0.2,0.6,0.4,0.9,0.6s0.4,0.6,0.5,1c0.1,0.4,0.2,0.8,0.2,1.3v5.2h-2v-5.2c0-0.5-0.1-0.9-0.3-1.2c-0.2-0.3-0.6-0.4-1-0.4
				c-0.3,0-0.7,0.1-1,0.2c-0.3,0.2-0.6,0.4-0.8,0.6v5.9H104.6z"/>
			<path class="st7" d="M115.5,229.4v5.2c0,0.5,0.1,0.9,0.3,1.2s0.6,0.4,1,0.4c0.3,0,0.7-0.1,1-0.2c0.3-0.2,0.6-0.4,0.8-0.6v-5.9h2
				v8.2h-1.2c-0.3,0-0.4-0.1-0.5-0.4l-0.1-0.7c-0.2,0.2-0.3,0.3-0.5,0.5c-0.2,0.1-0.4,0.3-0.6,0.4c-0.2,0.1-0.4,0.2-0.7,0.2
				s-0.5,0.1-0.8,0.1c-0.4,0-0.8-0.1-1.2-0.2c-0.3-0.2-0.6-0.4-0.9-0.6c-0.2-0.3-0.4-0.6-0.5-1c-0.1-0.4-0.2-0.8-0.2-1.3v-5.2H115.5
				z"/>
			<path class="st7" d="M129.2,237.6h-0.9c-0.2,0-0.3,0-0.4-0.1c-0.1-0.1-0.2-0.2-0.2-0.3l-0.2-0.6c-0.2,0.2-0.4,0.4-0.6,0.5
				c-0.2,0.1-0.4,0.3-0.6,0.4c-0.2,0.1-0.4,0.2-0.7,0.2c-0.2,0-0.5,0.1-0.8,0.1c-0.3,0-0.7,0-1-0.1c-0.3-0.1-0.5-0.2-0.8-0.4
				c-0.2-0.2-0.4-0.4-0.5-0.7c-0.1-0.3-0.2-0.6-0.2-1c0-0.3,0.1-0.6,0.2-0.9s0.4-0.6,0.8-0.8c0.4-0.2,0.9-0.4,1.5-0.6
				s1.4-0.2,2.3-0.2v-0.5c0-0.6-0.1-1-0.3-1.2c-0.2-0.3-0.6-0.4-1-0.4c-0.3,0-0.6,0-0.8,0.1c-0.2,0.1-0.4,0.2-0.6,0.3
				c-0.2,0.1-0.3,0.2-0.4,0.3c-0.1,0.1-0.3,0.1-0.4,0.1c-0.1,0-0.2,0-0.3-0.1s-0.2-0.2-0.2-0.3l-0.4-0.6c0.9-0.9,2.1-1.3,3.4-1.3
				c0.5,0,0.9,0.1,1.3,0.2s0.7,0.4,1,0.7c0.3,0.3,0.5,0.6,0.6,1c0.1,0.4,0.2,0.8,0.2,1.3V237.6z M125.4,236.4c0.2,0,0.4,0,0.6-0.1
				c0.2,0,0.3-0.1,0.5-0.2c0.2-0.1,0.3-0.2,0.4-0.3c0.1-0.1,0.3-0.2,0.4-0.4v-1.4c-0.6,0-1.1,0-1.4,0.1c-0.4,0.1-0.7,0.2-0.9,0.3
				c-0.2,0.1-0.4,0.2-0.5,0.4s-0.1,0.3-0.1,0.5c0,0.3,0.1,0.6,0.3,0.7C124.8,236.3,125,236.4,125.4,236.4z"/>
			<path class="st7" d="M135.7,226.1c0.1,0,0.1,0,0.2,0c0.1,0,0.1,0.1,0.1,0.1c0,0,0.1,0.1,0.2,0.2l6.1,7.7c0-0.2,0-0.4,0-0.5
				s0-0.3,0-0.5v-7h1.9v11.6H143c-0.2,0-0.3,0-0.4-0.1c-0.1-0.1-0.2-0.1-0.3-0.3l-6-7.7c0,0.2,0,0.3,0,0.5s0,0.3,0,0.5v7.1h-1.9
				v-11.6h1.1C135.6,226.1,135.7,226.1,135.7,226.1z"/>
			<path class="st7" d="M149.8,229.3c0.6,0,1.2,0.1,1.7,0.3c0.5,0.2,0.9,0.5,1.3,0.8c0.4,0.4,0.6,0.8,0.8,1.3s0.3,1.1,0.3,1.8
				c0,0.7-0.1,1.2-0.3,1.8c-0.2,0.5-0.5,1-0.8,1.3c-0.4,0.4-0.8,0.7-1.3,0.8c-0.5,0.2-1.1,0.3-1.7,0.3s-1.2-0.1-1.7-0.3
				c-0.5-0.2-0.9-0.5-1.3-0.8c-0.4-0.4-0.6-0.8-0.8-1.3c-0.2-0.5-0.3-1.1-0.3-1.8c0-0.6,0.1-1.2,0.3-1.8s0.5-1,0.8-1.3
				c0.4-0.4,0.8-0.6,1.3-0.8C148.7,229.4,149.2,229.3,149.8,229.3z M149.8,236.2c0.7,0,1.2-0.2,1.5-0.7s0.5-1.1,0.5-2
				c0-0.9-0.2-1.6-0.5-2s-0.8-0.7-1.5-0.7c-0.7,0-1.2,0.2-1.5,0.7c-0.3,0.5-0.5,1.1-0.5,2c0,0.9,0.2,1.5,0.5,2
				C148.6,236,149.1,236.2,149.8,236.2z"/>
			<path class="st7" d="M155,236.5c0-0.2,0-0.3,0.1-0.5c0.1-0.1,0.1-0.3,0.3-0.4c0.1-0.1,0.2-0.2,0.4-0.3c0.1-0.1,0.3-0.1,0.5-0.1
				c0.2,0,0.3,0,0.5,0.1c0.1,0.1,0.3,0.1,0.4,0.3c0.1,0.1,0.2,0.2,0.3,0.4c0.1,0.1,0.1,0.3,0.1,0.5c0,0.2,0,0.3-0.1,0.5
				c-0.1,0.1-0.1,0.3-0.3,0.4c-0.1,0.1-0.2,0.2-0.4,0.3c-0.1,0.1-0.3,0.1-0.5,0.1c-0.2,0-0.3,0-0.5-0.1c-0.1-0.1-0.3-0.1-0.4-0.3
				c-0.1-0.1-0.2-0.2-0.3-0.4C155,236.9,155,236.7,155,236.5z"/>
			<path class="st7" d="M163.2,236.1h2.3v-6.7c0-0.3,0-0.5,0-0.8l-1.7,1.4c-0.1,0.1-0.1,0.1-0.2,0.1c-0.1,0-0.1,0-0.2,0
				c-0.1,0-0.2,0-0.3-0.1c-0.1,0-0.2-0.1-0.2-0.2l-0.6-0.9l3.5-3h1.6v10.1h2.1v1.5h-6.4V236.1z"/>
			<path class="st7" d="M172.5,236.1h2.3v-6.7c0-0.3,0-0.5,0-0.8l-1.7,1.4c-0.1,0.1-0.1,0.1-0.2,0.1c-0.1,0-0.1,0-0.2,0
				c-0.1,0-0.2,0-0.3-0.1c-0.1,0-0.2-0.1-0.2-0.2l-0.6-0.9l3.5-3h1.6v10.1h2.1v1.5h-6.4V236.1z"/>
			<path class="st7" d="M188.5,231.8c0,1-0.1,1.9-0.3,2.6c-0.2,0.7-0.5,1.4-0.9,1.8s-0.8,0.8-1.4,1.1c-0.5,0.2-1.1,0.4-1.7,0.4
				s-1.2-0.1-1.7-0.4c-0.5-0.2-1-0.6-1.3-1.1s-0.7-1.1-0.9-1.8c-0.2-0.7-0.3-1.6-0.3-2.6c0-1,0.1-1.9,0.3-2.6
				c0.2-0.7,0.5-1.4,0.9-1.8s0.8-0.8,1.3-1.1s1.1-0.4,1.7-0.4s1.2,0.1,1.7,0.4c0.5,0.2,1,0.6,1.4,1.1s0.7,1.1,0.9,1.8
				C188.4,230,188.5,230.8,188.5,231.8z M186.5,231.8c0-0.8-0.1-1.5-0.2-2.1c-0.1-0.5-0.3-1-0.5-1.3s-0.4-0.6-0.7-0.7
				c-0.3-0.1-0.5-0.2-0.8-0.2c-0.3,0-0.6,0.1-0.8,0.2c-0.3,0.1-0.5,0.4-0.7,0.7c-0.2,0.3-0.4,0.8-0.5,1.3c-0.1,0.5-0.2,1.2-0.2,2.1
				c0,0.8,0.1,1.5,0.2,2.1c0.1,0.5,0.3,1,0.5,1.3c0.2,0.3,0.4,0.6,0.7,0.7c0.3,0.1,0.5,0.2,0.8,0.2c0.3,0,0.6-0.1,0.8-0.2
				s0.5-0.4,0.7-0.7s0.4-0.8,0.5-1.3C186.4,233.4,186.5,232.7,186.5,231.8z"/>
		</g>
		<g class="st6">
			<path class="st8" d="M62.7,249.4c0,0.8-0.1,1.4-0.4,2.1c-0.2,0.6-0.6,1.1-1,1.6s-1,0.8-1.6,1c-0.6,0.2-1.3,0.4-2,0.4H54v-10h3.8
				c0.7,0,1.4,0.1,2,0.4c0.6,0.2,1.1,0.6,1.6,1s0.8,1,1,1.6C62.6,248,62.7,248.7,62.7,249.4z M61.3,249.4c0-0.6-0.1-1.2-0.3-1.7
				s-0.4-0.9-0.7-1.2c-0.3-0.3-0.7-0.6-1.1-0.8c-0.4-0.2-0.9-0.3-1.5-0.3h-2.4v7.8h2.4c0.5,0,1-0.1,1.5-0.3c0.4-0.2,0.8-0.4,1.1-0.8
				c0.3-0.3,0.5-0.7,0.7-1.2S61.3,250,61.3,249.4z"/>
			<path class="st8" d="M67.2,247.2c0.4,0,0.8,0.1,1.2,0.2s0.7,0.3,0.9,0.6c0.3,0.3,0.5,0.6,0.6,1c0.1,0.4,0.2,0.8,0.2,1.3
				c0,0.2,0,0.3-0.1,0.4s-0.1,0.1-0.2,0.1h-4.7c0,0.4,0.1,0.8,0.2,1.2c0.1,0.3,0.3,0.6,0.5,0.8c0.2,0.2,0.4,0.4,0.7,0.5
				c0.3,0.1,0.6,0.2,0.9,0.2c0.3,0,0.6,0,0.8-0.1c0.2-0.1,0.4-0.2,0.6-0.2c0.2-0.1,0.3-0.2,0.4-0.2c0.1-0.1,0.2-0.1,0.3-0.1
				c0.1,0,0.2,0,0.2,0.1l0.4,0.5c-0.2,0.2-0.3,0.3-0.6,0.5c-0.2,0.1-0.4,0.3-0.7,0.3s-0.5,0.2-0.8,0.2c-0.3,0-0.5,0.1-0.8,0.1
				c-0.5,0-0.9-0.1-1.4-0.2c-0.4-0.2-0.8-0.4-1.1-0.7c-0.3-0.3-0.5-0.7-0.7-1.2c-0.2-0.5-0.3-1-0.3-1.6c0-0.5,0.1-1,0.2-1.4
				c0.2-0.4,0.4-0.8,0.7-1.1c0.3-0.3,0.6-0.6,1-0.7S66.7,247.2,67.2,247.2z M67.2,248.1c-0.6,0-1.1,0.2-1.4,0.5s-0.6,0.8-0.6,1.4H69
				c0-0.3,0-0.6-0.1-0.8c-0.1-0.2-0.2-0.4-0.3-0.6c-0.2-0.2-0.3-0.3-0.6-0.4C67.7,248.2,67.5,248.1,67.2,248.1z"/>
			<path class="st8" d="M73.1,244.1v10.3h-1.2v-10.3H73.1z"/>
			<path class="st8" d="M78.1,247.2c0.4,0,0.8,0.1,1.2,0.2s0.7,0.3,0.9,0.6c0.3,0.3,0.5,0.6,0.6,1c0.1,0.4,0.2,0.8,0.2,1.3
				c0,0.2,0,0.3-0.1,0.4s-0.1,0.1-0.2,0.1H76c0,0.4,0.1,0.8,0.2,1.2c0.1,0.3,0.3,0.6,0.5,0.8c0.2,0.2,0.4,0.4,0.7,0.5
				c0.3,0.1,0.6,0.2,0.9,0.2c0.3,0,0.6,0,0.8-0.1c0.2-0.1,0.4-0.2,0.6-0.2c0.2-0.1,0.3-0.2,0.4-0.2c0.1-0.1,0.2-0.1,0.3-0.1
				c0.1,0,0.2,0,0.2,0.1l0.4,0.5c-0.2,0.2-0.3,0.3-0.6,0.5c-0.2,0.1-0.4,0.3-0.7,0.3s-0.5,0.2-0.8,0.2c-0.3,0-0.5,0.1-0.8,0.1
				c-0.5,0-0.9-0.1-1.4-0.2c-0.4-0.2-0.8-0.4-1.1-0.7c-0.3-0.3-0.5-0.7-0.7-1.2c-0.2-0.5-0.3-1-0.3-1.6c0-0.5,0.1-1,0.2-1.4
				c0.2-0.4,0.4-0.8,0.7-1.1c0.3-0.3,0.6-0.6,1-0.7S77.6,247.2,78.1,247.2z M78.1,248.1c-0.6,0-1.1,0.2-1.4,0.5s-0.6,0.8-0.6,1.4
				h3.9c0-0.3,0-0.6-0.1-0.8c-0.1-0.2-0.2-0.4-0.3-0.6c-0.2-0.2-0.3-0.3-0.6-0.4C78.7,248.2,78.4,248.1,78.1,248.1z"/>
			<path class="st8" d="M85,247.2c0.3,0,0.6,0,0.9,0.1s0.5,0.2,0.7,0.3h1.9v0.5c0,0.2-0.1,0.3-0.3,0.3l-0.8,0.1
				c0.2,0.3,0.2,0.6,0.2,1c0,0.3-0.1,0.7-0.2,0.9c-0.1,0.3-0.3,0.5-0.6,0.7c-0.2,0.2-0.5,0.4-0.8,0.5c-0.3,0.1-0.7,0.2-1.1,0.2
				c-0.3,0-0.6,0-0.9-0.1c-0.1,0.1-0.3,0.2-0.3,0.3c-0.1,0.1-0.1,0.2-0.1,0.3c0,0.2,0.1,0.3,0.2,0.4c0.1,0.1,0.3,0.2,0.5,0.2
				c0.2,0,0.5,0.1,0.8,0.1s0.6,0,0.9,0s0.6,0,0.9,0.1c0.3,0.1,0.5,0.1,0.8,0.3c0.2,0.1,0.4,0.3,0.5,0.5c0.1,0.2,0.2,0.5,0.2,0.8
				c0,0.3-0.1,0.6-0.2,0.9c-0.2,0.3-0.4,0.5-0.7,0.8c-0.3,0.2-0.6,0.4-1,0.5c-0.4,0.1-0.9,0.2-1.4,0.2s-1-0.1-1.4-0.2
				c-0.4-0.1-0.7-0.2-1-0.4c-0.3-0.2-0.4-0.4-0.6-0.6s-0.2-0.5-0.2-0.7c0-0.4,0.1-0.6,0.3-0.9s0.5-0.4,0.9-0.6
				c-0.2-0.1-0.4-0.2-0.5-0.4c-0.1-0.2-0.2-0.4-0.2-0.6c0-0.1,0-0.2,0.1-0.3c0-0.1,0.1-0.2,0.2-0.3c0.1-0.1,0.2-0.2,0.3-0.3
				c0.1-0.1,0.2-0.2,0.4-0.3c-0.3-0.2-0.6-0.5-0.8-0.8c-0.2-0.3-0.3-0.7-0.3-1.1c0-0.3,0.1-0.7,0.2-0.9c0.1-0.3,0.3-0.5,0.6-0.7
				c0.2-0.2,0.5-0.4,0.9-0.5S84.6,247.2,85,247.2z M87.2,254.8c0-0.2,0-0.3-0.1-0.4c-0.1-0.1-0.2-0.2-0.4-0.3s-0.4-0.1-0.6-0.1
				c-0.2,0-0.5,0-0.7,0s-0.5,0-0.7,0s-0.5,0-0.7-0.1c-0.3,0.1-0.5,0.3-0.6,0.5c-0.2,0.2-0.2,0.4-0.2,0.7c0,0.2,0,0.3,0.1,0.4
				c0.1,0.1,0.2,0.3,0.4,0.4c0.2,0.1,0.4,0.2,0.6,0.2c0.3,0.1,0.6,0.1,0.9,0.1c0.3,0,0.6,0,0.9-0.1c0.3-0.1,0.5-0.2,0.7-0.3
				c0.2-0.1,0.3-0.2,0.4-0.4C87.2,255.2,87.2,255,87.2,254.8z M85,251c0.3,0,0.5,0,0.7-0.1c0.2-0.1,0.4-0.2,0.5-0.3s0.2-0.3,0.3-0.5
				s0.1-0.4,0.1-0.6c0-0.4-0.1-0.8-0.4-1s-0.6-0.4-1.2-0.4c-0.5,0-0.9,0.1-1.1,0.4s-0.4,0.6-0.4,1c0,0.2,0,0.4,0.1,0.6
				c0.1,0.2,0.2,0.3,0.3,0.5c0.1,0.1,0.3,0.2,0.5,0.3C84.5,250.9,84.8,251,85,251z"/>
			<path class="st8" d="M95,254.4h-0.6c-0.1,0-0.2,0-0.3-0.1c-0.1,0-0.1-0.1-0.1-0.2l-0.1-0.7c-0.2,0.2-0.4,0.3-0.5,0.5
				c-0.2,0.1-0.4,0.2-0.6,0.3c-0.2,0.1-0.4,0.2-0.6,0.2s-0.5,0.1-0.7,0.1c-0.3,0-0.5,0-0.8-0.1s-0.4-0.2-0.6-0.3
				c-0.2-0.2-0.3-0.3-0.4-0.6c-0.1-0.2-0.2-0.5-0.2-0.8c0-0.3,0.1-0.6,0.2-0.8s0.4-0.5,0.7-0.7c0.3-0.2,0.8-0.4,1.3-0.5
				c0.6-0.1,1.2-0.2,2-0.2v-0.6c0-0.6-0.1-1-0.4-1.3c-0.2-0.3-0.6-0.4-1-0.4c-0.3,0-0.6,0-0.8,0.1s-0.4,0.2-0.5,0.3
				c-0.2,0.1-0.3,0.2-0.4,0.3c-0.1,0.1-0.2,0.1-0.3,0.1c-0.1,0-0.2,0-0.2-0.1s-0.1-0.1-0.2-0.2l-0.2-0.4c0.4-0.4,0.8-0.7,1.3-0.8
				c0.5-0.2,1-0.3,1.5-0.3c0.4,0,0.7,0.1,1.1,0.2c0.3,0.1,0.6,0.3,0.8,0.5c0.2,0.2,0.4,0.5,0.5,0.8s0.2,0.7,0.2,1.1V254.4z
				 M91.7,253.7c0.2,0,0.4,0,0.6-0.1c0.2,0,0.4-0.1,0.5-0.2c0.2-0.1,0.3-0.2,0.5-0.3c0.1-0.1,0.3-0.2,0.4-0.4v-1.5
				c-0.6,0-1.1,0-1.5,0.1c-0.4,0.1-0.7,0.2-1,0.3c-0.3,0.1-0.4,0.3-0.5,0.4c-0.1,0.2-0.2,0.3-0.2,0.5c0,0.2,0,0.3,0.1,0.5
				c0.1,0.1,0.1,0.2,0.2,0.3c0.1,0.1,0.2,0.2,0.4,0.2C91.4,253.6,91.6,253.7,91.7,253.7z"/>
			<path class="st8" d="M101.7,248.6c0,0.1-0.1,0.1-0.1,0.1c0,0-0.1,0-0.2,0s-0.1,0-0.2-0.1c-0.1-0.1-0.2-0.1-0.3-0.2
				c-0.1-0.1-0.3-0.1-0.5-0.2s-0.4-0.1-0.7-0.1c-0.3,0-0.7,0.1-0.9,0.2c-0.3,0.1-0.5,0.3-0.7,0.5s-0.3,0.5-0.4,0.8s-0.1,0.7-0.1,1.1
				c0,0.4,0,0.8,0.1,1.1c0.1,0.3,0.2,0.6,0.4,0.8s0.4,0.4,0.6,0.5c0.3,0.1,0.5,0.2,0.9,0.2c0.3,0,0.6,0,0.7-0.1
				c0.2-0.1,0.4-0.2,0.5-0.2c0.1-0.1,0.2-0.2,0.3-0.2c0.1-0.1,0.2-0.1,0.3-0.1c0.1,0,0.2,0,0.2,0.1l0.4,0.5
				c-0.3,0.4-0.7,0.7-1.2,0.8c-0.5,0.2-0.9,0.3-1.5,0.3c-0.4,0-0.9-0.1-1.2-0.2c-0.4-0.2-0.7-0.4-1-0.7c-0.3-0.3-0.5-0.7-0.7-1.1
				c-0.2-0.5-0.2-1-0.2-1.5c0-0.5,0.1-1,0.2-1.5c0.1-0.4,0.4-0.8,0.6-1.2c0.3-0.3,0.6-0.6,1-0.8c0.4-0.2,0.9-0.3,1.4-0.3
				c0.5,0,0.9,0.1,1.3,0.2c0.4,0.2,0.7,0.4,1,0.7L101.7,248.6z"/>
			<path class="st8" d="M105.1,245.1c0,0.1,0,0.2-0.1,0.3c0,0.1-0.1,0.2-0.2,0.3c-0.1,0.1-0.2,0.1-0.3,0.2c-0.1,0-0.2,0.1-0.3,0.1
				c-0.1,0-0.2,0-0.3-0.1s-0.2-0.1-0.3-0.2c-0.1-0.1-0.1-0.2-0.2-0.3c0-0.1-0.1-0.2-0.1-0.3c0-0.1,0-0.2,0.1-0.3
				c0-0.1,0.1-0.2,0.2-0.3c0.1-0.1,0.2-0.1,0.3-0.2c0.1,0,0.2-0.1,0.3-0.1c0.1,0,0.2,0,0.3,0.1c0.1,0,0.2,0.1,0.3,0.2
				c0.1,0.1,0.1,0.2,0.2,0.3C105.1,244.9,105.1,245,105.1,245.1z M104.8,247.3v7.1h-1.2v-7.1H104.8z"/>
			<path class="st8" d="M109.9,247.2c0.5,0,1,0.1,1.4,0.3c0.4,0.2,0.8,0.4,1.1,0.7s0.5,0.7,0.7,1.2c0.2,0.5,0.2,1,0.2,1.5
				c0,0.6-0.1,1.1-0.2,1.5c-0.2,0.4-0.4,0.8-0.7,1.1s-0.6,0.6-1.1,0.7c-0.4,0.2-0.9,0.3-1.4,0.3s-1-0.1-1.4-0.3
				c-0.4-0.2-0.8-0.4-1.1-0.7s-0.5-0.7-0.7-1.1c-0.2-0.4-0.2-1-0.2-1.5c0-0.6,0.1-1.1,0.2-1.5c0.2-0.5,0.4-0.8,0.7-1.2
				s0.6-0.6,1.1-0.7C108.9,247.3,109.3,247.2,109.9,247.2z M109.9,253.6c0.7,0,1.2-0.2,1.6-0.7c0.3-0.5,0.5-1.1,0.5-2
				c0-0.8-0.2-1.5-0.5-2c-0.3-0.5-0.9-0.7-1.6-0.7c-0.4,0-0.7,0.1-0.9,0.2c-0.3,0.1-0.5,0.3-0.7,0.5s-0.3,0.5-0.4,0.8
				c-0.1,0.3-0.1,0.7-0.1,1.1s0,0.8,0.1,1.1s0.2,0.6,0.4,0.8c0.2,0.2,0.4,0.4,0.7,0.5C109.2,253.5,109.5,253.6,109.9,253.6z
				 M111.9,244.3l-1.6,1.8c-0.1,0.1-0.1,0.1-0.2,0.2s-0.1,0-0.2,0h-0.7l1-1.7c0.1-0.1,0.1-0.2,0.2-0.2s0.2-0.1,0.3-0.1H111.9z"/>
			<path class="st8" d="M114.8,254.4v-7.1h0.7c0.2,0,0.3,0.1,0.3,0.3l0.1,0.8c0.3-0.3,0.7-0.6,1-0.8s0.8-0.3,1.3-0.3
				c0.4,0,0.7,0.1,1,0.2c0.3,0.1,0.5,0.3,0.7,0.5c0.2,0.2,0.3,0.5,0.5,0.9c0.1,0.3,0.2,0.7,0.2,1.1v4.5h-1.2v-4.5
				c0-0.5-0.1-1-0.4-1.2c-0.2-0.3-0.6-0.4-1.1-0.4c-0.4,0-0.7,0.1-1,0.3c-0.3,0.2-0.6,0.4-0.9,0.7v5.2H114.8z"/>
			<path class="st8" d="M135.2,252.4c0.1,0,0.1,0,0.2,0.1l0.5,0.6c-0.4,0.5-0.9,0.8-1.5,1.1c-0.6,0.3-1.3,0.4-2.1,0.4
				c-0.7,0-1.4-0.1-2-0.4c-0.6-0.2-1.1-0.6-1.5-1s-0.7-1-1-1.6c-0.2-0.6-0.3-1.3-0.3-2.1s0.1-1.4,0.4-2.1s0.6-1.2,1-1.6
				c0.4-0.5,1-0.8,1.6-1.1s1.3-0.4,2-0.4c0.7,0,1.4,0.1,1.9,0.3c0.5,0.2,1,0.5,1.4,0.9l-0.4,0.6c0,0-0.1,0.1-0.1,0.1
				c0,0-0.1,0-0.2,0c-0.1,0-0.1,0-0.2-0.1c-0.1,0-0.1-0.1-0.2-0.2c-0.1-0.1-0.2-0.1-0.3-0.2c-0.1-0.1-0.3-0.1-0.4-0.2
				c-0.2-0.1-0.4-0.1-0.6-0.2s-0.5-0.1-0.8-0.1c-0.5,0-1,0.1-1.5,0.3c-0.4,0.2-0.8,0.4-1.2,0.8c-0.3,0.3-0.6,0.8-0.8,1.2
				s-0.3,1-0.3,1.6c0,0.6,0.1,1.2,0.3,1.7s0.4,0.9,0.7,1.2c0.3,0.3,0.7,0.6,1.1,0.8c0.4,0.2,0.9,0.3,1.4,0.3c0.3,0,0.6,0,0.8-0.1
				c0.2,0,0.5-0.1,0.7-0.2c0.2-0.1,0.4-0.2,0.6-0.3c0.2-0.1,0.4-0.3,0.5-0.4C135.1,252.4,135.2,252.4,135.2,252.4z"/>
			<path class="st8" d="M138.6,247.3v4.5c0,0.5,0.1,1,0.4,1.2s0.6,0.4,1.1,0.4c0.4,0,0.7-0.1,1-0.3c0.3-0.2,0.6-0.4,0.9-0.7v-5.2
				h1.2v7.1h-0.7c-0.2,0-0.3-0.1-0.3-0.3l-0.1-0.8c-0.3,0.3-0.7,0.6-1,0.8c-0.4,0.2-0.8,0.3-1.3,0.3c-0.4,0-0.7-0.1-1-0.2
				c-0.3-0.1-0.5-0.3-0.7-0.5c-0.2-0.2-0.4-0.5-0.5-0.8c-0.1-0.3-0.2-0.7-0.2-1.1v-4.5H138.6z"/>
			<path class="st8" d="M150.5,254.4H150c-0.1,0-0.2,0-0.3-0.1c-0.1,0-0.1-0.1-0.1-0.2l-0.1-0.7c-0.2,0.2-0.4,0.3-0.5,0.5
				c-0.2,0.1-0.4,0.2-0.6,0.3c-0.2,0.1-0.4,0.2-0.6,0.2s-0.5,0.1-0.7,0.1c-0.3,0-0.5,0-0.8-0.1s-0.4-0.2-0.6-0.3
				c-0.2-0.2-0.3-0.3-0.4-0.6c-0.1-0.2-0.2-0.5-0.2-0.8c0-0.3,0.1-0.6,0.2-0.8c0.2-0.3,0.4-0.5,0.7-0.7c0.3-0.2,0.8-0.4,1.3-0.5
				c0.6-0.1,1.2-0.2,2-0.2v-0.6c0-0.6-0.1-1-0.4-1.3c-0.2-0.3-0.6-0.4-1-0.4c-0.3,0-0.6,0-0.8,0.1c-0.2,0.1-0.4,0.2-0.5,0.3
				c-0.2,0.1-0.3,0.2-0.4,0.3c-0.1,0.1-0.2,0.1-0.3,0.1c-0.1,0-0.2,0-0.2-0.1c-0.1,0-0.1-0.1-0.2-0.2l-0.2-0.4
				c0.4-0.4,0.8-0.7,1.3-0.8c0.5-0.2,1-0.3,1.5-0.3c0.4,0,0.7,0.1,1.1,0.2c0.3,0.1,0.6,0.3,0.8,0.5c0.2,0.2,0.4,0.5,0.5,0.8
				s0.2,0.7,0.2,1.1V254.4z M147.3,253.7c0.2,0,0.4,0,0.6-0.1c0.2,0,0.4-0.1,0.5-0.2c0.2-0.1,0.3-0.2,0.5-0.3
				c0.1-0.1,0.3-0.2,0.4-0.4v-1.5c-0.6,0-1.1,0-1.5,0.1c-0.4,0.1-0.7,0.2-1,0.3c-0.3,0.1-0.4,0.3-0.5,0.4c-0.1,0.2-0.2,0.3-0.2,0.5
				c0,0.2,0,0.3,0.1,0.5c0.1,0.1,0.1,0.2,0.2,0.3c0.1,0.1,0.2,0.2,0.4,0.2C147,253.6,147.1,253.7,147.3,253.7z"/>
			<path class="st8" d="M153.5,247.3v4.5c0,0.5,0.1,1,0.4,1.2s0.6,0.4,1.1,0.4c0.4,0,0.7-0.1,1-0.3c0.3-0.2,0.6-0.4,0.9-0.7v-5.2
				h1.2v7.1h-0.7c-0.2,0-0.3-0.1-0.3-0.3l-0.1-0.8c-0.3,0.3-0.7,0.6-1,0.8c-0.4,0.2-0.8,0.3-1.3,0.3c-0.4,0-0.7-0.1-1-0.2
				c-0.3-0.1-0.5-0.3-0.7-0.5c-0.2-0.2-0.4-0.5-0.5-0.8c-0.1-0.3-0.2-0.7-0.2-1.1v-4.5H153.5z"/>
			<path class="st8" d="M160.2,254.4v-10.3h1.2v4.2c0.3-0.3,0.6-0.6,1-0.8c0.4-0.2,0.8-0.3,1.3-0.3c0.4,0,0.7,0.1,1,0.2
				c0.3,0.1,0.5,0.3,0.7,0.5c0.2,0.2,0.3,0.5,0.5,0.9c0.1,0.3,0.2,0.7,0.2,1.1v4.5h-1.2v-4.5c0-0.5-0.1-1-0.4-1.2
				c-0.2-0.3-0.6-0.4-1.1-0.4c-0.4,0-0.7,0.1-1,0.3c-0.3,0.2-0.6,0.4-0.9,0.7v5.2H160.2z"/>
			<path class="st8" d="M170.2,254.5c-0.6,0-1-0.2-1.3-0.5c-0.3-0.3-0.5-0.8-0.5-1.4v-4.3h-0.9c-0.1,0-0.1,0-0.2-0.1
				c-0.1,0-0.1-0.1-0.1-0.2v-0.5l1.2-0.1l0.3-2.2c0-0.1,0-0.1,0.1-0.2c0.1,0,0.1-0.1,0.2-0.1h0.6v2.4h2v0.9h-2v4.3
				c0,0.3,0.1,0.5,0.2,0.7c0.1,0.1,0.3,0.2,0.6,0.2c0.1,0,0.2,0,0.3-0.1c0.1,0,0.2-0.1,0.2-0.1c0.1,0,0.1-0.1,0.2-0.1
				s0.1-0.1,0.1-0.1c0.1,0,0.1,0,0.2,0.1l0.4,0.6c-0.2,0.2-0.5,0.4-0.8,0.5C170.8,254.5,170.5,254.5,170.2,254.5z"/>
			<path class="st8" d="M176,247.2c0.4,0,0.8,0.1,1.2,0.2s0.7,0.3,0.9,0.6c0.3,0.3,0.5,0.6,0.6,1c0.1,0.4,0.2,0.8,0.2,1.3
				c0,0.2,0,0.3-0.1,0.4s-0.1,0.1-0.2,0.1H174c0,0.4,0.1,0.8,0.2,1.2c0.1,0.3,0.3,0.6,0.5,0.8c0.2,0.2,0.4,0.4,0.7,0.5
				c0.3,0.1,0.6,0.2,0.9,0.2c0.3,0,0.6,0,0.8-0.1s0.4-0.2,0.6-0.2c0.2-0.1,0.3-0.2,0.4-0.2c0.1-0.1,0.2-0.1,0.3-0.1
				c0.1,0,0.2,0,0.2,0.1l0.4,0.5c-0.2,0.2-0.3,0.3-0.6,0.5s-0.4,0.3-0.7,0.3s-0.5,0.2-0.8,0.2c-0.3,0-0.5,0.1-0.8,0.1
				c-0.5,0-0.9-0.1-1.4-0.2c-0.4-0.2-0.8-0.4-1.1-0.7c-0.3-0.3-0.5-0.7-0.7-1.2c-0.2-0.5-0.3-1-0.3-1.6c0-0.5,0.1-1,0.2-1.4
				c0.2-0.4,0.4-0.8,0.7-1.1c0.3-0.3,0.6-0.6,1-0.7C175.1,247.3,175.5,247.2,176,247.2z M176.1,248.1c-0.6,0-1.1,0.2-1.4,0.5
				c-0.3,0.3-0.6,0.8-0.6,1.4h3.9c0-0.3,0-0.6-0.1-0.8s-0.2-0.4-0.3-0.6c-0.2-0.2-0.3-0.3-0.6-0.4
				C176.6,248.2,176.3,248.1,176.1,248.1z M178.1,244.3l-1.6,1.8c-0.1,0.1-0.1,0.1-0.2,0.2c-0.1,0-0.1,0-0.2,0h-0.7l1-1.7
				c0.1-0.1,0.1-0.2,0.2-0.2s0.2-0.1,0.3-0.1H178.1z"/>
			<path class="st8" d="M180.6,254.4v-7.1h0.7c0.2,0,0.3,0.1,0.3,0.3l0.1,0.7c0.3-0.3,0.6-0.6,0.9-0.8c0.3-0.2,0.7-0.3,1.1-0.3
				c0.5,0,0.9,0.1,1.2,0.4c0.3,0.3,0.5,0.6,0.6,1.1c0.1-0.3,0.2-0.5,0.4-0.7s0.3-0.3,0.5-0.5c0.2-0.1,0.4-0.2,0.6-0.3
				c0.2-0.1,0.5-0.1,0.7-0.1c0.4,0,0.7,0.1,1,0.2s0.5,0.3,0.7,0.5s0.4,0.5,0.5,0.8c0.1,0.3,0.2,0.7,0.2,1.1v4.5h-1.2v-4.5
				c0-0.6-0.1-1-0.4-1.3c-0.2-0.3-0.6-0.4-1.1-0.4c-0.2,0-0.4,0-0.6,0.1s-0.3,0.2-0.5,0.3c-0.1,0.1-0.3,0.3-0.3,0.5
				c-0.1,0.2-0.1,0.5-0.1,0.7v4.5h-1.2v-4.5c0-0.6-0.1-1-0.3-1.3c-0.2-0.3-0.6-0.4-1-0.4c-0.3,0-0.6,0.1-0.9,0.2
				c-0.3,0.2-0.5,0.4-0.7,0.7v5.3H180.6z"/>
			<path class="st8" d="M194.9,247.2c0.5,0,1,0.1,1.4,0.3c0.4,0.2,0.8,0.4,1.1,0.7c0.3,0.3,0.5,0.7,0.7,1.2c0.2,0.5,0.2,1,0.2,1.5
				c0,0.6-0.1,1.1-0.2,1.5c-0.2,0.4-0.4,0.8-0.7,1.1c-0.3,0.3-0.6,0.6-1.1,0.7c-0.4,0.2-0.9,0.3-1.4,0.3c-0.5,0-1-0.1-1.4-0.3
				c-0.4-0.2-0.8-0.4-1.1-0.7s-0.5-0.7-0.7-1.1s-0.2-1-0.2-1.5c0-0.6,0.1-1.1,0.2-1.5s0.4-0.8,0.7-1.2s0.7-0.6,1.1-0.7
				C193.9,247.3,194.4,247.2,194.9,247.2z M194.9,253.6c0.7,0,1.2-0.2,1.6-0.7c0.3-0.5,0.5-1.1,0.5-2c0-0.8-0.2-1.5-0.5-2
				c-0.3-0.5-0.9-0.7-1.6-0.7c-0.4,0-0.7,0.1-0.9,0.2c-0.3,0.1-0.5,0.3-0.7,0.5s-0.3,0.5-0.4,0.8c-0.1,0.3-0.1,0.7-0.1,1.1
				s0,0.8,0.1,1.1c0.1,0.3,0.2,0.6,0.4,0.8c0.2,0.2,0.4,0.4,0.7,0.5C194.3,253.5,194.6,253.6,194.9,253.6z"/>
			<path class="st8" d="M204.7,248.6c0,0.1-0.1,0.1-0.1,0.1c0,0-0.1,0-0.2,0c-0.1,0-0.1,0-0.2-0.1c-0.1-0.1-0.2-0.1-0.3-0.2
				c-0.1-0.1-0.3-0.1-0.5-0.2s-0.4-0.1-0.7-0.1c-0.3,0-0.7,0.1-0.9,0.2c-0.3,0.1-0.5,0.3-0.7,0.5s-0.3,0.5-0.4,0.8s-0.1,0.7-0.1,1.1
				c0,0.4,0,0.8,0.1,1.1c0.1,0.3,0.2,0.6,0.4,0.8c0.2,0.2,0.4,0.4,0.6,0.5c0.3,0.1,0.5,0.2,0.9,0.2c0.3,0,0.6,0,0.7-0.1
				c0.2-0.1,0.4-0.2,0.5-0.2s0.2-0.2,0.3-0.2c0.1-0.1,0.2-0.1,0.3-0.1c0.1,0,0.2,0,0.2,0.1l0.3,0.5c-0.3,0.4-0.7,0.7-1.2,0.8
				c-0.5,0.2-0.9,0.3-1.5,0.3c-0.4,0-0.9-0.1-1.2-0.2c-0.4-0.2-0.7-0.4-1-0.7s-0.5-0.7-0.7-1.1c-0.2-0.5-0.2-1-0.2-1.5
				c0-0.5,0.1-1,0.2-1.5c0.1-0.4,0.4-0.8,0.6-1.2c0.3-0.3,0.6-0.6,1-0.8c0.4-0.2,0.9-0.3,1.4-0.3c0.5,0,0.9,0.1,1.3,0.2
				c0.4,0.2,0.7,0.4,1,0.7L204.7,248.6z"/>
		</g>
	</g>
</g>
</svg>
