<svg xmlns="http://www.w3.org/2000/svg" viewBox="0 0 161.13 212.06"><defs><style>.cls-1{fill:#ebebeb;}.cls-2{fill:#d0d0d0;}.cls-3{fill:#9a9a9a;}.cls-4,.cls-5{fill:none;stroke:#6d0e29;stroke-miterlimit:10;}.cls-5{stroke-width:0.5px;}.cls-6{font-size:16px;fill:#fff;font-family:Lato-Bold, Lato;}.cls-7{font-weight:700;}.cls-8{font-size:14px;fill:#f1f1f1;font-family:Lato-Regular, Lato;}</style></defs><title>medellin176.cu</title><g id="Capa_2" data-name="Capa 2"><g id="edificios"><g id="medellín_176_cuauhtémoc" data-name="medellín 176, cuauhtémoc"><polygon class="cls-1" points="152.34 131.13 63.68 161.66 63.94 139.05 153.63 111.67 152.34 131.13"/><polygon class="cls-2" points="63.68 161.66 3.75 129.53 3.24 110.25 63.94 139.05 63.68 161.66"/><polygon class="cls-3" points="0.5 6.36 87.28 0.5 160.63 6.8 65.34 15.47 0.5 6.36"/><polygon class="cls-1" points="65.34 15.47 160.63 6.8 159.16 28.85 65.04 41.7 65.34 15.47"/><polygon class="cls-2" points="0.5 6.36 65.34 15.47 65.04 41.7 1.08 28.19 0.5 6.36"/><polygon class="cls-1" points="157.72 50.34 156.33 71.3 64.47 91.83 64.75 67.14 157.72 50.34"/><polygon class="cls-2" points="64.75 67.14 64.47 91.83 2.19 70.23 1.64 49.47 64.75 67.14"/><polygon class="cls-1" points="64.47 91.83 156.33 71.3 154.96 91.73 64.2 115.79 64.47 91.83"/><polygon class="cls-2" points="2.19 70.23 64.47 91.83 64.2 115.79 2.72 90.48 2.19 70.23"/><polygon class="cls-1" points="65.04 41.7 159.16 28.85 157.72 50.34 64.75 67.14 65.04 41.7"/><polygon class="cls-2" points="65.04 41.7 64.75 67.14 1.64 49.47 1.08 28.19 65.04 41.7"/><polygon class="cls-1" points="154.96 91.73 153.63 111.67 63.94 139.05 64.2 115.79 154.96 91.73"/><polygon class="cls-2" points="64.2 115.79 63.94 139.05 3.24 110.25 2.72 90.48 64.2 115.79"/><line class="cls-4" x1="152.34" y1="131.13" x2="63.68" y2="161.66"/><line class="cls-4" x1="63.68" y1="161.66" x2="3.75" y2="129.54"/><line class="cls-4" x1="0.5" y1="6.36" x2="87.28" y2="0.5"/><line class="cls-4" x1="87.28" y1="0.5" x2="160.63" y2="6.8"/><line class="cls-5" x1="160.63" y1="6.8" x2="65.34" y2="15.47"/><line class="cls-5" x1="65.34" y1="15.47" x2="0.5" y2="6.36"/><line class="cls-4" x1="3.75" y1="129.54" x2="3.24" y2="110.24"/><line class="cls-4" x1="152.34" y1="131.13" x2="153.63" y2="111.67"/><line class="cls-5" x1="63.68" y1="161.66" x2="63.93" y2="139.05"/><line class="cls-5" x1="64.47" y1="91.83" x2="64.75" y2="67.14"/><line class="cls-4" x1="156.33" y1="71.3" x2="157.72" y2="50.34"/><line class="cls-5" x1="64.47" y1="91.83" x2="156.33" y2="71.3"/><line class="cls-4" x1="2.19" y1="70.23" x2="1.64" y2="49.47"/><line class="cls-5" x1="64.47" y1="91.83" x2="2.19" y2="70.23"/><line class="cls-5" x1="65.04" y1="41.7" x2="65.34" y2="15.47"/><line class="cls-4" x1="159.16" y1="28.85" x2="160.63" y2="6.8"/><line class="cls-5" x1="65.04" y1="41.7" x2="159.16" y2="28.85"/><line class="cls-5" x1="64.75" y1="67.14" x2="65.04" y2="41.7"/><line class="cls-4" x1="157.72" y1="50.34" x2="159.16" y2="28.85"/><line class="cls-5" x1="64.75" y1="67.14" x2="157.72" y2="50.34"/><line class="cls-4" x1="1.08" y1="28.19" x2="0.5" y2="6.36"/><line class="cls-5" x1="65.04" y1="41.7" x2="1.08" y2="28.19"/><line class="cls-4" x1="1.64" y1="49.47" x2="1.08" y2="28.19"/><line class="cls-5" x1="64.75" y1="67.14" x2="1.64" y2="49.47"/><line class="cls-5" x1="63.93" y1="139.05" x2="64.2" y2="115.79"/><line class="cls-4" x1="153.63" y1="111.67" x2="154.96" y2="91.73"/><line class="cls-5" x1="63.93" y1="139.05" x2="153.63" y2="111.67"/><line class="cls-4" x1="3.24" y1="110.24" x2="2.72" y2="90.48"/><line class="cls-5" x1="63.93" y1="139.05" x2="3.24" y2="110.24"/><line class="cls-4" x1="2.72" y1="90.48" x2="2.19" y2="70.23"/><line class="cls-5" x1="64.2" y1="115.79" x2="64.47" y2="91.83"/><line class="cls-5" x1="2.72" y1="90.48" x2="64.2" y2="115.79"/><line class="cls-4" x1="154.96" y1="91.73" x2="156.33" y2="71.3"/><line class="cls-5" x1="154.96" y1="91.73" x2="64.2" y2="115.79"/></g><text class="cls-6" transform="translate(2.98 192.7)"><tspan class="cls-7">Medellín No. 176</tspan><tspan class="cls-8"><tspan x="0" y="16.8" xml:space="preserve">Delegación  Cuauhtémoc</tspan></tspan></text></g></g></svg>