<?xml version="1.0" encoding="utf-8"?>
<!-- Generator: Adobe Illustrator 22.1.0, SVG Export Plug-In . SVG Version: 6.00 Build 0)  -->
<svg version="1.1" id="Capa_1" xmlns="http://www.w3.org/2000/svg" xmlns:xlink="http://www.w3.org/1999/xlink" x="0px" y="0px"
	 viewBox="0 0 207.8 144.7" style="enable-background:new 0 0 207.8 144.7;" xml:space="preserve">
<style type="text/css">
	.st0{fill:#FBFBFB;}
	.st1{fill:#E9E9E9;}
	.st2{fill:#C0C0C0;}
	.st3{fill:#E7E7E7;}
	.st4{fill:none;stroke:#6D0E29;stroke-miterlimit:10;}
	.st5{fill:none;stroke:#6D0E29;stroke-width:0.5;stroke-miterlimit:10;}
	.st6{enable-background:new    ;}
	.st7{fill:#FFFFFF;}
	.st8{fill:#F1F1F1;}
</style>
<title>mina16.cu</title>
<g id="Capa_2_1_">
	<g id="edificios">
		<g id="mina_16_cuauhtémoc">
			<polygon class="st0" points="205.8,62.9 90.4,95.5 89.9,73.6 206.6,44 			"/>
			<polygon class="st1" points="90.4,95.5 2.8,56.9 1.7,38.5 89.9,73.6 			"/>
			<path class="st2" d="M139.4,19.8l-8-2.2l9.6-1.9l7-1.4l-7-1.8L69,25.4l15,4.9l47.3-8.9L139.4,19.8z M110.2,0.5l97.1,24.2
				L89.5,51.3l-89-31.5L110.2,0.5z"/>
			<polygon class="st0" points="89.5,51.3 207.3,24.7 206.6,44 89.9,73.6 			"/>
			<polygon class="st1" points="0.5,19.8 89.5,51.3 89.9,73.6 1.7,38.5 			"/>
			<polygon class="st3" points="131.4,17.6 139.4,19.8 131.4,21.3 			"/>
			<polygon class="st3" points="141,12.6 147.9,14.4 140.9,15.8 			"/>
			<polygon class="st1" points="69.1,25.4 141,12.6 140.9,15.8 131.4,17.6 131.4,21.3 84,30.2 			"/>
			<line class="st4" x1="205.8" y1="62.9" x2="90.4" y2="95.5"/>
			<line class="st4" x1="90.4" y1="95.5" x2="2.8" y2="56.9"/>
			<line class="st4" x1="110.2" y1="0.5" x2="207.3" y2="24.7"/>
			<line class="st5" x1="207.3" y1="24.7" x2="89.5" y2="51.3"/>
			<line class="st5" x1="89.5" y1="51.3" x2="0.5" y2="19.8"/>
			<line class="st4" x1="0.5" y1="19.8" x2="110.2" y2="0.5"/>
			<line class="st5" x1="131.4" y1="17.6" x2="139.4" y2="19.8"/>
			<line class="st5" x1="141" y1="12.6" x2="147.9" y2="14.4"/>
			<line class="st5" x1="69.1" y1="25.4" x2="141" y2="12.6"/>
			<line class="st4" x1="84" y1="30.2" x2="69.1" y2="25.4"/>
			<line class="st4" x1="205.8" y1="62.9" x2="206.6" y2="44"/>
			<line class="st5" x1="90.4" y1="95.5" x2="89.9" y2="73.6"/>
			<line class="st4" x1="2.8" y1="56.9" x2="1.7" y2="38.5"/>
			<line class="st5" x1="89.9" y1="73.6" x2="89.5" y2="51.3"/>
			<line class="st4" x1="206.6" y1="44" x2="207.3" y2="24.7"/>
			<line class="st5" x1="89.9" y1="73.6" x2="206.6" y2="44"/>
			<line class="st4" x1="1.7" y1="38.5" x2="0.5" y2="19.8"/>
			<line class="st5" x1="1.7" y1="38.5" x2="89.9" y2="73.6"/>
			<line class="st4" x1="131.4" y1="21.3" x2="131.4" y2="17.6"/>
			<line class="st5" x1="140.9" y1="15.8" x2="141" y2="12.6"/>
			<line class="st4" x1="147.9" y1="14.4" x2="140.9" y2="15.8"/>
			<line class="st4" x1="140.9" y1="15.8" x2="131.4" y2="17.6"/>
			<line class="st4" x1="139.4" y1="19.8" x2="131.4" y2="21.3"/>
			<line class="st4" x1="131.4" y1="21.3" x2="84" y2="30.2"/>
		</g>
		<g class="st6">
			<path class="st7" d="M34.4,121.1c0.1,0.2,0.2,0.4,0.2,0.6c0.1-0.2,0.2-0.4,0.2-0.6c0.1-0.2,0.2-0.4,0.3-0.5l3.4-6.4
				c0-0.1,0.1-0.1,0.1-0.2s0.1-0.1,0.2-0.1c0.1,0,0.1,0,0.2,0c0.1,0,0.2,0,0.2,0h1.6v11.6H39v-7.5c0-0.1,0-0.3,0-0.5
				c0-0.2,0-0.3,0-0.5l-3.5,6.6c-0.1,0.1-0.2,0.3-0.3,0.3c-0.1,0.1-0.3,0.1-0.4,0.1h-0.3c-0.2,0-0.3,0-0.4-0.1
				c-0.1-0.1-0.2-0.2-0.3-0.3l-3.5-6.6c0,0.2,0,0.3,0,0.5c0,0.2,0,0.3,0,0.5v7.5h-1.9v-11.6H30c0.1,0,0.2,0,0.2,0c0.1,0,0.1,0,0.2,0
				c0.1,0,0.1,0.1,0.2,0.1c0,0,0.1,0.1,0.1,0.2l3.5,6.4C34.3,120.8,34.4,120.9,34.4,121.1z"/>
			<path class="st7" d="M45.5,114.8c0,0.2,0,0.3-0.1,0.5s-0.2,0.3-0.3,0.4c-0.1,0.1-0.2,0.2-0.4,0.3s-0.3,0.1-0.5,0.1
				c-0.2,0-0.3,0-0.5-0.1c-0.2-0.1-0.3-0.2-0.4-0.3c-0.1-0.1-0.2-0.2-0.3-0.4c-0.1-0.1-0.1-0.3-0.1-0.5c0-0.2,0-0.3,0.1-0.5
				c0.1-0.2,0.2-0.3,0.3-0.4c0.1-0.1,0.2-0.2,0.4-0.3c0.2-0.1,0.3-0.1,0.5-0.1c0.2,0,0.3,0,0.5,0.1c0.2,0.1,0.3,0.2,0.4,0.3
				c0.1,0.1,0.2,0.2,0.3,0.4C45.5,114.4,45.5,114.6,45.5,114.8z M45.2,117.2v8.2h-2v-8.2H45.2z"/>
			<path class="st7" d="M47.5,125.4v-8.2h1.2c0.3,0,0.4,0.1,0.5,0.4l0.1,0.6c0.2-0.2,0.3-0.3,0.5-0.5c0.2-0.1,0.4-0.3,0.6-0.4
				c0.2-0.1,0.4-0.2,0.7-0.2s0.5-0.1,0.8-0.1c0.4,0,0.8,0.1,1.2,0.2c0.3,0.2,0.6,0.4,0.9,0.6s0.4,0.6,0.5,1c0.1,0.4,0.2,0.8,0.2,1.3
				v5.2h-2v-5.2c0-0.5-0.1-0.9-0.3-1.2c-0.2-0.3-0.6-0.4-1-0.4c-0.3,0-0.7,0.1-1,0.2c-0.3,0.2-0.6,0.4-0.8,0.6v5.9H47.5z"/>
			<path class="st7" d="M63,125.4h-0.9c-0.2,0-0.3,0-0.4-0.1c-0.1-0.1-0.2-0.2-0.2-0.3l-0.2-0.6c-0.2,0.2-0.4,0.4-0.6,0.5
				c-0.2,0.1-0.4,0.3-0.6,0.4c-0.2,0.1-0.4,0.2-0.7,0.2c-0.2,0-0.5,0.1-0.8,0.1c-0.3,0-0.7,0-1-0.1c-0.3-0.1-0.5-0.2-0.8-0.4
				c-0.2-0.2-0.4-0.4-0.5-0.7c-0.1-0.3-0.2-0.6-0.2-1c0-0.3,0.1-0.6,0.2-0.9s0.4-0.6,0.8-0.8c0.4-0.2,0.9-0.4,1.5-0.6
				s1.4-0.2,2.3-0.2v-0.5c0-0.6-0.1-1-0.3-1.2c-0.2-0.3-0.6-0.4-1-0.4c-0.3,0-0.6,0-0.8,0.1c-0.2,0.1-0.4,0.2-0.6,0.3
				c-0.2,0.1-0.3,0.2-0.4,0.3c-0.1,0.1-0.3,0.1-0.4,0.1c-0.1,0-0.2,0-0.3-0.1s-0.2-0.2-0.2-0.3l-0.4-0.6c0.9-0.9,2.1-1.3,3.4-1.3
				c0.5,0,0.9,0.1,1.3,0.2s0.7,0.4,1,0.7c0.3,0.3,0.5,0.6,0.6,1c0.1,0.4,0.2,0.8,0.2,1.3V125.4z M59.2,124.1c0.2,0,0.4,0,0.6-0.1
				c0.2,0,0.3-0.1,0.5-0.2c0.2-0.1,0.3-0.2,0.4-0.3c0.1-0.1,0.3-0.2,0.4-0.4v-1.4c-0.6,0-1.1,0-1.4,0.1c-0.4,0.1-0.7,0.2-0.9,0.3
				c-0.2,0.1-0.4,0.2-0.5,0.4S58,123,58,123.2c0,0.3,0.1,0.6,0.3,0.7C58.6,124.1,58.8,124.1,59.2,124.1z"/>
			<path class="st7" d="M69.5,113.8c0.1,0,0.1,0,0.2,0c0.1,0,0.1,0.1,0.1,0.1c0,0,0.1,0.1,0.2,0.2l6.1,7.7c0-0.2,0-0.4,0-0.5
				s0-0.3,0-0.5v-7h1.9v11.6h-1.1c-0.2,0-0.3,0-0.4-0.1c-0.1-0.1-0.2-0.1-0.3-0.3l-6-7.7c0,0.2,0,0.3,0,0.5c0,0.2,0,0.3,0,0.5v7.1
				h-1.9v-11.6h1.1C69.4,113.8,69.4,113.8,69.5,113.8z"/>
			<path class="st7" d="M83.6,117c0.6,0,1.2,0.1,1.7,0.3s0.9,0.5,1.3,0.8c0.4,0.4,0.6,0.8,0.8,1.3c0.2,0.5,0.3,1.1,0.3,1.8
				c0,0.7-0.1,1.2-0.3,1.8c-0.2,0.5-0.5,1-0.8,1.3c-0.4,0.4-0.8,0.7-1.3,0.8s-1.1,0.3-1.7,0.3s-1.2-0.1-1.7-0.3
				c-0.5-0.2-0.9-0.5-1.3-0.8c-0.4-0.4-0.6-0.8-0.8-1.3c-0.2-0.5-0.3-1.1-0.3-1.8c0-0.6,0.1-1.2,0.3-1.8c0.2-0.5,0.5-1,0.8-1.3
				c0.4-0.4,0.8-0.6,1.3-0.8C82.5,117.1,83,117,83.6,117z M83.6,124c0.7,0,1.2-0.2,1.5-0.7c0.3-0.5,0.5-1.1,0.5-2
				c0-0.9-0.2-1.6-0.5-2c-0.3-0.5-0.8-0.7-1.5-0.7c-0.7,0-1.2,0.2-1.5,0.7s-0.5,1.1-0.5,2c0,0.9,0.2,1.5,0.5,2
				C82.4,123.7,82.9,124,83.6,124z"/>
			<path class="st7" d="M88.8,124.3c0-0.2,0-0.3,0.1-0.5c0.1-0.1,0.1-0.3,0.3-0.4c0.1-0.1,0.2-0.2,0.4-0.3c0.1-0.1,0.3-0.1,0.5-0.1
				c0.2,0,0.3,0,0.5,0.1c0.1,0.1,0.3,0.1,0.4,0.3c0.1,0.1,0.2,0.2,0.3,0.4s0.1,0.3,0.1,0.5c0,0.2,0,0.3-0.1,0.5
				c-0.1,0.1-0.1,0.3-0.3,0.4c-0.1,0.1-0.2,0.2-0.4,0.3c-0.1,0.1-0.3,0.1-0.5,0.1c-0.2,0-0.3,0-0.5-0.1c-0.1-0.1-0.3-0.1-0.4-0.3
				c-0.1-0.1-0.2-0.2-0.3-0.4C88.8,124.6,88.8,124.5,88.8,124.3z"/>
			<path class="st7" d="M97,123.9h2.3v-6.7c0-0.3,0-0.5,0-0.8l-1.7,1.4c-0.1,0.1-0.1,0.1-0.2,0.1c-0.1,0-0.1,0-0.2,0
				c-0.1,0-0.2,0-0.3-0.1c-0.1,0-0.2-0.1-0.2-0.2l-0.6-0.9l3.5-3h1.6v10.1h2.1v1.5H97V123.9z"/>
			<path class="st7" d="M109.5,118.2c0.4,0,0.9,0.1,1.3,0.2c0.4,0.1,0.8,0.4,1.1,0.7c0.3,0.3,0.6,0.7,0.8,1.1
				c0.2,0.4,0.3,0.9,0.3,1.5c0,0.5-0.1,1-0.3,1.5s-0.5,0.9-0.8,1.2c-0.4,0.4-0.8,0.6-1.3,0.8c-0.5,0.2-1.1,0.3-1.7,0.3
				c-0.6,0-1.2-0.1-1.7-0.3c-0.5-0.2-0.9-0.5-1.3-0.8s-0.6-0.8-0.8-1.3c-0.2-0.5-0.3-1.1-0.3-1.7c0-0.5,0.1-1.1,0.3-1.7
				c0.2-0.6,0.6-1.2,1-1.8l2.8-3.7c0.1-0.1,0.2-0.2,0.4-0.3c0.2-0.1,0.4-0.1,0.6-0.1h1.8l-3.4,4.2c-0.1,0.1-0.1,0.2-0.2,0.3
				s-0.1,0.2-0.2,0.2c0.2-0.1,0.5-0.2,0.7-0.3C108.9,118.2,109.2,118.2,109.5,118.2z M106.7,121.7c0,0.3,0,0.6,0.1,0.9
				s0.2,0.5,0.4,0.7c0.2,0.2,0.4,0.3,0.6,0.4c0.3,0.1,0.6,0.2,0.9,0.2c0.3,0,0.6-0.1,0.9-0.2c0.3-0.1,0.5-0.3,0.7-0.4
				c0.2-0.2,0.3-0.4,0.4-0.7c0.1-0.3,0.2-0.5,0.2-0.8c0-0.3-0.1-0.6-0.2-0.9c-0.1-0.3-0.2-0.5-0.4-0.7c-0.2-0.2-0.4-0.3-0.7-0.4
				c-0.3-0.1-0.5-0.1-0.9-0.1c-0.3,0-0.6,0.1-0.9,0.2s-0.5,0.3-0.7,0.4c-0.2,0.2-0.3,0.4-0.4,0.7S106.7,121.4,106.7,121.7z"/>
		</g>
		<g class="st6">
			<path class="st8" d="M37.1,137.2c0,0.8-0.1,1.4-0.4,2.1c-0.2,0.6-0.6,1.1-1,1.6s-1,0.8-1.6,1c-0.6,0.2-1.3,0.4-2,0.4h-3.8v-10
				h3.8c0.7,0,1.4,0.1,2,0.4c0.6,0.2,1.1,0.6,1.6,1s0.8,1,1,1.6C37,135.7,37.1,136.4,37.1,137.2z M35.7,137.2c0-0.6-0.1-1.2-0.3-1.7
				s-0.4-0.9-0.7-1.2c-0.3-0.3-0.7-0.6-1.1-0.8c-0.4-0.2-0.9-0.3-1.5-0.3h-2.4v7.8h2.4c0.5,0,1-0.1,1.5-0.3c0.4-0.2,0.8-0.4,1.1-0.8
				c0.3-0.3,0.5-0.7,0.7-1.2S35.7,137.8,35.7,137.2z"/>
			<path class="st8" d="M41.6,135c0.4,0,0.8,0.1,1.2,0.2s0.7,0.3,0.9,0.6c0.3,0.3,0.5,0.6,0.6,1c0.1,0.4,0.2,0.8,0.2,1.3
				c0,0.2,0,0.3-0.1,0.4s-0.1,0.1-0.2,0.1h-4.7c0,0.4,0.1,0.8,0.2,1.2c0.1,0.3,0.3,0.6,0.5,0.8c0.2,0.2,0.4,0.4,0.7,0.5
				c0.3,0.1,0.6,0.2,0.9,0.2c0.3,0,0.6,0,0.8-0.1c0.2-0.1,0.4-0.2,0.6-0.2c0.2-0.1,0.3-0.2,0.4-0.2c0.1-0.1,0.2-0.1,0.3-0.1
				c0.1,0,0.2,0,0.2,0.1l0.4,0.5c-0.2,0.2-0.3,0.3-0.6,0.5c-0.2,0.1-0.4,0.3-0.7,0.3s-0.5,0.2-0.8,0.2c-0.3,0-0.5,0.1-0.8,0.1
				c-0.5,0-0.9-0.1-1.4-0.2c-0.4-0.2-0.8-0.4-1.1-0.7c-0.3-0.3-0.5-0.7-0.7-1.2c-0.2-0.5-0.3-1-0.3-1.6c0-0.5,0.1-1,0.2-1.4
				c0.2-0.4,0.4-0.8,0.7-1.1c0.3-0.3,0.6-0.6,1-0.7S41.1,135,41.6,135z M41.6,135.9c-0.6,0-1.1,0.2-1.4,0.5s-0.6,0.8-0.6,1.4h3.9
				c0-0.3,0-0.6-0.1-0.8c-0.1-0.2-0.2-0.4-0.3-0.6c-0.2-0.2-0.3-0.3-0.6-0.4C42.1,135.9,41.9,135.9,41.6,135.9z"/>
			<path class="st8" d="M47.5,131.9v10.3h-1.2v-10.3H47.5z"/>
			<path class="st8" d="M52.5,135c0.4,0,0.8,0.1,1.2,0.2s0.7,0.3,0.9,0.6c0.3,0.3,0.5,0.6,0.6,1c0.1,0.4,0.2,0.8,0.2,1.3
				c0,0.2,0,0.3-0.1,0.4s-0.1,0.1-0.2,0.1h-4.7c0,0.4,0.1,0.8,0.2,1.2c0.1,0.3,0.3,0.6,0.5,0.8c0.2,0.2,0.4,0.4,0.7,0.5
				c0.3,0.1,0.6,0.2,0.9,0.2c0.3,0,0.6,0,0.8-0.1c0.2-0.1,0.4-0.2,0.6-0.2c0.2-0.1,0.3-0.2,0.4-0.2c0.1-0.1,0.2-0.1,0.3-0.1
				c0.1,0,0.2,0,0.2,0.1l0.4,0.5c-0.2,0.2-0.3,0.3-0.6,0.5c-0.2,0.1-0.4,0.3-0.7,0.3s-0.5,0.2-0.8,0.2c-0.3,0-0.5,0.1-0.8,0.1
				c-0.5,0-0.9-0.1-1.4-0.2c-0.4-0.2-0.8-0.4-1.1-0.7c-0.3-0.3-0.5-0.7-0.7-1.2c-0.2-0.5-0.3-1-0.3-1.6c0-0.5,0.1-1,0.2-1.4
				c0.2-0.4,0.4-0.8,0.7-1.1c0.3-0.3,0.6-0.6,1-0.7S52,135,52.5,135z M52.5,135.9c-0.6,0-1.1,0.2-1.4,0.5s-0.6,0.8-0.6,1.4h3.9
				c0-0.3,0-0.6-0.1-0.8c-0.1-0.2-0.2-0.4-0.3-0.6c-0.2-0.2-0.3-0.3-0.6-0.4C53.1,135.9,52.8,135.9,52.5,135.9z"/>
			<path class="st8" d="M59.4,135c0.3,0,0.6,0,0.9,0.1s0.5,0.2,0.7,0.3h1.9v0.5c0,0.2-0.1,0.3-0.3,0.3l-0.8,0.1
				c0.2,0.3,0.2,0.6,0.2,1c0,0.3-0.1,0.7-0.2,0.9c-0.1,0.3-0.3,0.5-0.6,0.7c-0.2,0.2-0.5,0.4-0.8,0.5c-0.3,0.1-0.7,0.2-1.1,0.2
				c-0.3,0-0.6,0-0.9-0.1c-0.1,0.1-0.3,0.2-0.3,0.3c-0.1,0.1-0.1,0.2-0.1,0.3c0,0.2,0.1,0.3,0.2,0.4c0.1,0.1,0.3,0.2,0.5,0.2
				c0.2,0,0.5,0.1,0.8,0.1s0.6,0,0.9,0s0.6,0,0.9,0.1c0.3,0.1,0.5,0.1,0.8,0.3c0.2,0.1,0.4,0.3,0.5,0.5c0.1,0.2,0.2,0.5,0.2,0.8
				c0,0.3-0.1,0.6-0.2,0.9c-0.2,0.3-0.4,0.5-0.7,0.8c-0.3,0.2-0.6,0.4-1,0.5c-0.4,0.1-0.9,0.2-1.4,0.2s-1-0.1-1.4-0.2
				c-0.4-0.1-0.7-0.2-1-0.4c-0.3-0.2-0.4-0.4-0.6-0.6s-0.2-0.5-0.2-0.7c0-0.4,0.1-0.6,0.3-0.9s0.5-0.4,0.9-0.6
				c-0.2-0.1-0.4-0.2-0.5-0.4c-0.1-0.2-0.2-0.4-0.2-0.6c0-0.1,0-0.2,0.1-0.3c0-0.1,0.1-0.2,0.2-0.3c0.1-0.1,0.2-0.2,0.3-0.3
				c0.1-0.1,0.2-0.2,0.4-0.3c-0.3-0.2-0.6-0.5-0.8-0.8c-0.2-0.3-0.3-0.7-0.3-1.1c0-0.3,0.1-0.7,0.2-0.9c0.1-0.3,0.3-0.5,0.6-0.7
				c0.2-0.2,0.5-0.4,0.9-0.5S59,135,59.4,135z M61.6,142.5c0-0.2,0-0.3-0.1-0.4c-0.1-0.1-0.2-0.2-0.4-0.3s-0.4-0.1-0.6-0.1
				c-0.2,0-0.5,0-0.7,0s-0.5,0-0.7,0s-0.5,0-0.7-0.1c-0.3,0.1-0.5,0.3-0.6,0.5c-0.2,0.2-0.2,0.4-0.2,0.7c0,0.2,0,0.3,0.1,0.4
				c0.1,0.1,0.2,0.3,0.4,0.4c0.2,0.1,0.4,0.2,0.6,0.2c0.3,0.1,0.6,0.1,0.9,0.1c0.3,0,0.6,0,0.9-0.1c0.3-0.1,0.5-0.2,0.7-0.3
				c0.2-0.1,0.3-0.2,0.4-0.4C61.6,142.9,61.6,142.7,61.6,142.5z M59.4,138.7c0.3,0,0.5,0,0.7-0.1c0.2-0.1,0.4-0.2,0.5-0.3
				s0.2-0.3,0.3-0.5s0.1-0.4,0.1-0.6c0-0.4-0.1-0.8-0.4-1s-0.6-0.4-1.2-0.4c-0.5,0-0.9,0.1-1.1,0.4s-0.4,0.6-0.4,1
				c0,0.2,0,0.4,0.1,0.6c0.1,0.2,0.2,0.3,0.3,0.5c0.1,0.1,0.3,0.2,0.5,0.3C58.9,138.7,59.2,138.7,59.4,138.7z"/>
			<path class="st8" d="M69.4,142.2h-0.6c-0.1,0-0.2,0-0.3-0.1c-0.1,0-0.1-0.1-0.1-0.2l-0.1-0.7c-0.2,0.2-0.4,0.3-0.5,0.5
				c-0.2,0.1-0.4,0.2-0.6,0.3c-0.2,0.1-0.4,0.2-0.6,0.2s-0.5,0.1-0.7,0.1c-0.3,0-0.5,0-0.8-0.1s-0.4-0.2-0.6-0.3
				c-0.2-0.2-0.3-0.3-0.4-0.6c-0.1-0.2-0.2-0.5-0.2-0.8c0-0.3,0.1-0.6,0.2-0.8s0.4-0.5,0.7-0.7c0.3-0.2,0.8-0.4,1.3-0.5
				c0.6-0.1,1.2-0.2,2-0.2v-0.6c0-0.6-0.1-1-0.4-1.3c-0.2-0.3-0.6-0.4-1-0.4c-0.3,0-0.6,0-0.8,0.1s-0.4,0.2-0.5,0.3
				c-0.2,0.1-0.3,0.2-0.4,0.3c-0.1,0.1-0.2,0.1-0.3,0.1c-0.1,0-0.2,0-0.2-0.1s-0.1-0.1-0.2-0.2l-0.2-0.4c0.4-0.4,0.8-0.7,1.3-0.8
				c0.5-0.2,1-0.3,1.5-0.3c0.4,0,0.7,0.1,1.1,0.2c0.3,0.1,0.6,0.3,0.8,0.5c0.2,0.2,0.4,0.5,0.5,0.8s0.2,0.7,0.2,1.1V142.2z
				 M66.1,141.4c0.2,0,0.4,0,0.6-0.1c0.2,0,0.4-0.1,0.5-0.2c0.2-0.1,0.3-0.2,0.5-0.3c0.1-0.1,0.3-0.2,0.4-0.4V139
				c-0.6,0-1.1,0-1.5,0.1c-0.4,0.1-0.7,0.2-1,0.3c-0.3,0.1-0.4,0.3-0.5,0.4c-0.1,0.2-0.2,0.3-0.2,0.5c0,0.2,0,0.3,0.1,0.5
				c0.1,0.1,0.1,0.2,0.2,0.3c0.1,0.1,0.2,0.2,0.4,0.2C65.8,141.4,66,141.4,66.1,141.4z"/>
			<path class="st8" d="M76.1,136.3c0,0.1-0.1,0.1-0.1,0.1c0,0-0.1,0-0.2,0s-0.1,0-0.2-0.1c-0.1-0.1-0.2-0.1-0.3-0.2
				c-0.1-0.1-0.3-0.1-0.5-0.2s-0.4-0.1-0.7-0.1c-0.3,0-0.7,0.1-0.9,0.2c-0.3,0.1-0.5,0.3-0.7,0.5s-0.3,0.5-0.4,0.8s-0.1,0.7-0.1,1.1
				c0,0.4,0,0.8,0.1,1.1c0.1,0.3,0.2,0.6,0.4,0.8s0.4,0.4,0.6,0.5c0.3,0.1,0.5,0.2,0.9,0.2c0.3,0,0.6,0,0.7-0.1
				c0.2-0.1,0.4-0.2,0.5-0.2c0.1-0.1,0.2-0.2,0.3-0.2c0.1-0.1,0.2-0.1,0.3-0.1c0.1,0,0.2,0,0.2,0.1l0.4,0.5
				c-0.3,0.4-0.7,0.7-1.2,0.8c-0.5,0.2-0.9,0.3-1.5,0.3c-0.4,0-0.9-0.1-1.2-0.2c-0.4-0.2-0.7-0.4-1-0.7c-0.3-0.3-0.5-0.7-0.7-1.1
				c-0.2-0.5-0.2-1-0.2-1.5c0-0.5,0.1-1,0.2-1.5c0.1-0.4,0.4-0.8,0.6-1.2c0.3-0.3,0.6-0.6,1-0.8c0.4-0.2,0.9-0.3,1.4-0.3
				c0.5,0,0.9,0.1,1.3,0.2c0.4,0.2,0.7,0.4,1,0.7L76.1,136.3z"/>
			<path class="st8" d="M79.5,132.9c0,0.1,0,0.2-0.1,0.3c0,0.1-0.1,0.2-0.2,0.3c-0.1,0.1-0.2,0.1-0.3,0.2c-0.1,0-0.2,0.1-0.3,0.1
				c-0.1,0-0.2,0-0.3-0.1s-0.2-0.1-0.3-0.2c-0.1-0.1-0.1-0.2-0.2-0.3c0-0.1-0.1-0.2-0.1-0.3c0-0.1,0-0.2,0.1-0.3
				c0-0.1,0.1-0.2,0.2-0.3c0.1-0.1,0.2-0.1,0.3-0.2c0.1,0,0.2-0.1,0.3-0.1c0.1,0,0.2,0,0.3,0.1c0.1,0,0.2,0.1,0.3,0.2
				c0.1,0.1,0.1,0.2,0.2,0.3C79.5,132.6,79.5,132.7,79.5,132.9z M79.2,135.1v7.1h-1.2v-7.1H79.2z"/>
			<path class="st8" d="M84.3,135c0.5,0,1,0.1,1.4,0.3c0.4,0.2,0.8,0.4,1.1,0.7s0.5,0.7,0.7,1.2c0.2,0.5,0.2,1,0.2,1.5
				c0,0.6-0.1,1.1-0.2,1.5c-0.2,0.4-0.4,0.8-0.7,1.1s-0.6,0.6-1.1,0.7c-0.4,0.2-0.9,0.3-1.4,0.3s-1-0.1-1.4-0.3
				c-0.4-0.2-0.8-0.4-1.1-0.7s-0.5-0.7-0.7-1.1c-0.2-0.4-0.2-1-0.2-1.5c0-0.6,0.1-1.1,0.2-1.5c0.2-0.5,0.4-0.8,0.7-1.2
				s0.6-0.6,1.1-0.7C83.3,135.1,83.7,135,84.3,135z M84.3,141.3c0.7,0,1.2-0.2,1.6-0.7c0.3-0.5,0.5-1.1,0.5-2c0-0.8-0.2-1.5-0.5-2
				c-0.3-0.5-0.9-0.7-1.6-0.7c-0.4,0-0.7,0.1-0.9,0.2c-0.3,0.1-0.5,0.3-0.7,0.5s-0.3,0.5-0.4,0.8c-0.1,0.3-0.1,0.7-0.1,1.1
				s0,0.8,0.1,1.1s0.2,0.6,0.4,0.8c0.2,0.2,0.4,0.4,0.7,0.5C83.6,141.2,83.9,141.3,84.3,141.3z M86.3,132l-1.6,1.8
				c-0.1,0.1-0.1,0.1-0.2,0.2s-0.1,0-0.2,0h-0.7l1-1.7c0.1-0.1,0.1-0.2,0.2-0.2s0.2-0.1,0.3-0.1H86.3z"/>
			<path class="st8" d="M89.2,142.2v-7.1h0.7c0.2,0,0.3,0.1,0.3,0.3l0.1,0.8c0.3-0.3,0.7-0.6,1-0.8s0.8-0.3,1.3-0.3
				c0.4,0,0.7,0.1,1,0.2c0.3,0.1,0.5,0.3,0.7,0.5c0.2,0.2,0.3,0.5,0.5,0.9c0.1,0.3,0.2,0.7,0.2,1.1v4.5h-1.2v-4.5
				c0-0.5-0.1-1-0.4-1.2c-0.2-0.3-0.6-0.4-1.1-0.4c-0.4,0-0.7,0.1-1,0.3c-0.3,0.2-0.6,0.4-0.9,0.7v5.2H89.2z"/>
			<path class="st8" d="M109.6,140.1c0.1,0,0.1,0,0.2,0.1l0.5,0.6c-0.4,0.5-0.9,0.8-1.5,1.1s-1.3,0.4-2.1,0.4c-0.7,0-1.4-0.1-2-0.4
				c-0.6-0.2-1.1-0.6-1.5-1s-0.7-1-1-1.6c-0.2-0.6-0.3-1.3-0.3-2.1s0.1-1.4,0.4-2.1s0.6-1.2,1-1.6c0.4-0.5,1-0.8,1.6-1.1
				c0.6-0.2,1.3-0.4,2-0.4c0.7,0,1.4,0.1,1.9,0.3s1,0.5,1.4,0.9l-0.4,0.6c0,0-0.1,0.1-0.1,0.1c0,0-0.1,0-0.2,0c-0.1,0-0.1,0-0.2-0.1
				s-0.1-0.1-0.2-0.2c-0.1-0.1-0.2-0.1-0.3-0.2c-0.1-0.1-0.3-0.1-0.4-0.2s-0.4-0.1-0.6-0.2c-0.2,0-0.5-0.1-0.8-0.1
				c-0.5,0-1,0.1-1.5,0.3c-0.4,0.2-0.8,0.4-1.2,0.8c-0.3,0.3-0.6,0.8-0.8,1.2s-0.3,1-0.3,1.6c0,0.6,0.1,1.2,0.3,1.7s0.4,0.9,0.7,1.2
				c0.3,0.3,0.7,0.6,1.1,0.8c0.4,0.2,0.9,0.3,1.4,0.3c0.3,0,0.6,0,0.8-0.1s0.5-0.1,0.7-0.2c0.2-0.1,0.4-0.2,0.6-0.3s0.4-0.3,0.5-0.4
				C109.5,140.1,109.6,140.1,109.6,140.1z"/>
			<path class="st8" d="M113,135.1v4.5c0,0.5,0.1,1,0.4,1.2c0.2,0.3,0.6,0.4,1.1,0.4c0.4,0,0.7-0.1,1-0.3c0.3-0.2,0.6-0.4,0.9-0.7
				v-5.2h1.2v7.1h-0.7c-0.2,0-0.3-0.1-0.3-0.3l-0.1-0.8c-0.3,0.3-0.7,0.6-1,0.8c-0.4,0.2-0.8,0.3-1.3,0.3c-0.4,0-0.7-0.1-1-0.2
				c-0.3-0.1-0.5-0.3-0.7-0.5c-0.2-0.2-0.4-0.5-0.5-0.8c-0.1-0.3-0.2-0.7-0.2-1.1v-4.5H113z"/>
			<path class="st8" d="M124.9,142.2h-0.6c-0.1,0-0.2,0-0.3-0.1c-0.1,0-0.1-0.1-0.1-0.2l-0.1-0.7c-0.2,0.2-0.4,0.3-0.5,0.5
				c-0.2,0.1-0.4,0.2-0.6,0.3c-0.2,0.1-0.4,0.2-0.6,0.2s-0.5,0.1-0.7,0.1c-0.3,0-0.5,0-0.8-0.1s-0.4-0.2-0.6-0.3s-0.3-0.3-0.4-0.6
				c-0.1-0.2-0.2-0.5-0.2-0.8c0-0.3,0.1-0.6,0.2-0.8c0.2-0.3,0.4-0.5,0.7-0.7c0.3-0.2,0.8-0.4,1.3-0.5c0.6-0.1,1.2-0.2,2-0.2v-0.6
				c0-0.6-0.1-1-0.4-1.3s-0.6-0.4-1-0.4c-0.3,0-0.6,0-0.8,0.1c-0.2,0.1-0.4,0.2-0.5,0.3c-0.2,0.1-0.3,0.2-0.4,0.3s-0.2,0.1-0.3,0.1
				c-0.1,0-0.2,0-0.2-0.1c-0.1,0-0.1-0.1-0.2-0.2l-0.2-0.4c0.4-0.4,0.8-0.7,1.3-0.8c0.5-0.2,1-0.3,1.5-0.3c0.4,0,0.7,0.1,1.1,0.2
				c0.3,0.1,0.6,0.3,0.8,0.5s0.4,0.5,0.5,0.8s0.2,0.7,0.2,1.1V142.2z M121.7,141.4c0.2,0,0.4,0,0.6-0.1c0.2,0,0.4-0.1,0.5-0.2
				c0.2-0.1,0.3-0.2,0.5-0.3c0.1-0.1,0.3-0.2,0.4-0.4V139c-0.6,0-1.1,0-1.5,0.1c-0.4,0.1-0.7,0.2-1,0.3c-0.3,0.1-0.4,0.3-0.5,0.4
				c-0.1,0.2-0.2,0.3-0.2,0.5c0,0.2,0,0.3,0.1,0.5c0.1,0.1,0.1,0.2,0.2,0.3s0.2,0.2,0.4,0.2C121.4,141.4,121.5,141.4,121.7,141.4z"
				/>
			<path class="st8" d="M127.9,135.1v4.5c0,0.5,0.1,1,0.4,1.2c0.2,0.3,0.6,0.4,1.1,0.4c0.4,0,0.7-0.1,1-0.3c0.3-0.2,0.6-0.4,0.9-0.7
				v-5.2h1.2v7.1h-0.7c-0.2,0-0.3-0.1-0.3-0.3l-0.1-0.8c-0.3,0.3-0.7,0.6-1,0.8c-0.4,0.2-0.8,0.3-1.3,0.3c-0.4,0-0.7-0.1-1-0.2
				c-0.3-0.1-0.5-0.3-0.7-0.5c-0.2-0.2-0.4-0.5-0.5-0.8c-0.1-0.3-0.2-0.7-0.2-1.1v-4.5H127.9z"/>
			<path class="st8" d="M134.6,142.2v-10.3h1.2v4.2c0.3-0.3,0.6-0.6,1-0.8c0.4-0.2,0.8-0.3,1.3-0.3c0.4,0,0.7,0.1,1,0.2
				c0.3,0.1,0.5,0.3,0.7,0.5c0.2,0.2,0.3,0.5,0.5,0.9c0.1,0.3,0.2,0.7,0.2,1.1v4.5h-1.2v-4.5c0-0.5-0.1-1-0.4-1.2
				c-0.2-0.3-0.6-0.4-1.1-0.4c-0.4,0-0.7,0.1-1,0.3c-0.3,0.2-0.6,0.4-0.9,0.7v5.2H134.6z"/>
			<path class="st8" d="M144.6,142.3c-0.6,0-1-0.2-1.3-0.5c-0.3-0.3-0.5-0.8-0.5-1.4v-4.3H142c-0.1,0-0.1,0-0.2-0.1
				c-0.1,0-0.1-0.1-0.1-0.2v-0.5l1.2-0.1l0.3-2.2c0-0.1,0-0.1,0.1-0.2c0.1,0,0.1-0.1,0.2-0.1h0.6v2.4h2v0.9h-2v4.3
				c0,0.3,0.1,0.5,0.2,0.7s0.3,0.2,0.6,0.2c0.1,0,0.2,0,0.3-0.1c0.1,0,0.2-0.1,0.2-0.1c0.1,0,0.1-0.1,0.2-0.1c0,0,0.1-0.1,0.1-0.1
				c0.1,0,0.1,0,0.2,0.1l0.4,0.6c-0.2,0.2-0.5,0.4-0.8,0.5C145.2,142.2,144.9,142.3,144.6,142.3z"/>
			<path class="st8" d="M150.4,135c0.4,0,0.8,0.1,1.2,0.2s0.7,0.3,0.9,0.6c0.3,0.3,0.5,0.6,0.6,1c0.1,0.4,0.2,0.8,0.2,1.3
				c0,0.2,0,0.3-0.1,0.4s-0.1,0.1-0.2,0.1h-4.7c0,0.4,0.1,0.8,0.2,1.2s0.3,0.6,0.5,0.8c0.2,0.2,0.4,0.4,0.7,0.5
				c0.3,0.1,0.6,0.2,0.9,0.2c0.3,0,0.6,0,0.8-0.1c0.2-0.1,0.4-0.2,0.6-0.2s0.3-0.2,0.4-0.2c0.1-0.1,0.2-0.1,0.3-0.1
				c0.1,0,0.2,0,0.2,0.1l0.3,0.5c-0.2,0.2-0.3,0.3-0.6,0.5c-0.2,0.1-0.4,0.3-0.7,0.3s-0.5,0.2-0.8,0.2c-0.3,0-0.5,0.1-0.8,0.1
				c-0.5,0-0.9-0.1-1.4-0.2c-0.4-0.2-0.8-0.4-1.1-0.7c-0.3-0.3-0.5-0.7-0.7-1.2c-0.2-0.5-0.3-1-0.3-1.6c0-0.5,0.1-1,0.2-1.4
				c0.2-0.4,0.4-0.8,0.7-1.1c0.3-0.3,0.6-0.6,1-0.7C149.5,135.1,149.9,135,150.4,135z M150.5,135.9c-0.6,0-1.1,0.2-1.4,0.5
				c-0.3,0.3-0.6,0.8-0.6,1.4h3.9c0-0.3,0-0.6-0.1-0.8c-0.1-0.2-0.2-0.4-0.3-0.6s-0.3-0.3-0.6-0.4S150.7,135.9,150.5,135.9z
				 M152.5,132l-1.6,1.8c-0.1,0.1-0.1,0.1-0.2,0.2c-0.1,0-0.1,0-0.2,0h-0.7l1-1.7c0.1-0.1,0.1-0.2,0.2-0.2s0.2-0.1,0.3-0.1H152.5z"
				/>
			<path class="st8" d="M155,142.2v-7.1h0.7c0.2,0,0.3,0.1,0.3,0.3l0.1,0.7c0.3-0.3,0.6-0.6,0.9-0.8c0.3-0.2,0.7-0.3,1.1-0.3
				c0.5,0,0.9,0.1,1.2,0.4c0.3,0.3,0.5,0.6,0.6,1.1c0.1-0.3,0.2-0.5,0.4-0.7s0.3-0.3,0.5-0.5c0.2-0.1,0.4-0.2,0.6-0.3
				s0.5-0.1,0.7-0.1c0.4,0,0.7,0.1,1,0.2c0.3,0.1,0.5,0.3,0.7,0.5c0.2,0.2,0.4,0.5,0.5,0.8c0.1,0.3,0.2,0.7,0.2,1.1v4.5h-1.2v-4.5
				c0-0.6-0.1-1-0.4-1.3c-0.2-0.3-0.6-0.4-1.1-0.4c-0.2,0-0.4,0-0.6,0.1c-0.2,0.1-0.3,0.2-0.5,0.3c-0.1,0.1-0.3,0.3-0.3,0.5
				c-0.1,0.2-0.1,0.5-0.1,0.7v4.5h-1.2v-4.5c0-0.6-0.1-1-0.3-1.3s-0.6-0.4-1-0.4c-0.3,0-0.6,0.1-0.9,0.2c-0.3,0.2-0.5,0.4-0.7,0.7
				v5.3H155z"/>
			<path class="st8" d="M169.3,135c0.5,0,1,0.1,1.4,0.3c0.4,0.2,0.8,0.4,1.1,0.7c0.3,0.3,0.5,0.7,0.7,1.2s0.2,1,0.2,1.5
				c0,0.6-0.1,1.1-0.2,1.5s-0.4,0.8-0.7,1.1c-0.3,0.3-0.6,0.6-1.1,0.7c-0.4,0.2-0.9,0.3-1.4,0.3c-0.5,0-1-0.1-1.4-0.3
				c-0.4-0.2-0.8-0.4-1.1-0.7s-0.5-0.7-0.7-1.1c-0.2-0.4-0.2-1-0.2-1.5c0-0.6,0.1-1.1,0.2-1.5c0.2-0.5,0.4-0.8,0.7-1.2
				s0.6-0.6,1.1-0.7C168.3,135.1,168.8,135,169.3,135z M169.3,141.3c0.7,0,1.2-0.2,1.6-0.7c0.3-0.5,0.5-1.1,0.5-2
				c0-0.8-0.2-1.5-0.5-2c-0.3-0.5-0.9-0.7-1.6-0.7c-0.4,0-0.7,0.1-0.9,0.2s-0.5,0.3-0.7,0.5s-0.3,0.5-0.4,0.8
				c-0.1,0.3-0.1,0.7-0.1,1.1s0,0.8,0.1,1.1c0.1,0.3,0.2,0.6,0.4,0.8c0.2,0.2,0.4,0.4,0.7,0.5C168.7,141.2,169,141.3,169.3,141.3z"
				/>
			<path class="st8" d="M179.1,136.3c0,0.1-0.1,0.1-0.1,0.1s-0.1,0-0.2,0c-0.1,0-0.1,0-0.2-0.1c-0.1-0.1-0.2-0.1-0.3-0.2
				c-0.1-0.1-0.3-0.1-0.5-0.2s-0.4-0.1-0.7-0.1c-0.3,0-0.7,0.1-0.9,0.2c-0.3,0.1-0.5,0.3-0.7,0.5s-0.3,0.5-0.4,0.8s-0.1,0.7-0.1,1.1
				c0,0.4,0,0.8,0.1,1.1s0.2,0.6,0.4,0.8c0.2,0.2,0.4,0.4,0.6,0.5c0.3,0.1,0.5,0.2,0.9,0.2c0.3,0,0.6,0,0.7-0.1s0.4-0.2,0.5-0.2
				c0.1-0.1,0.2-0.2,0.3-0.2c0.1-0.1,0.2-0.1,0.3-0.1c0.1,0,0.2,0,0.2,0.1l0.4,0.5c-0.3,0.4-0.7,0.7-1.2,0.8c-0.5,0.2-1,0.3-1.5,0.3
				c-0.4,0-0.9-0.1-1.2-0.2c-0.4-0.2-0.7-0.4-1-0.7c-0.3-0.3-0.5-0.7-0.7-1.1s-0.2-1-0.2-1.5c0-0.5,0.1-1,0.2-1.5
				c0.1-0.4,0.4-0.8,0.6-1.2c0.3-0.3,0.6-0.6,1-0.8c0.4-0.2,0.9-0.3,1.4-0.3c0.5,0,0.9,0.1,1.3,0.2c0.4,0.2,0.7,0.4,1,0.7
				L179.1,136.3z"/>
		</g>
	</g>
</g>
</svg>
