<?xml version="1.0" encoding="utf-8"?>
<!-- Generator: Adobe Illustrator 22.1.0, SVG Export Plug-In . SVG Version: 6.00 Build 0)  -->
<svg version="1.1" id="Capa_1" xmlns="http://www.w3.org/2000/svg" xmlns:xlink="http://www.w3.org/1999/xlink" x="0px" y="0px"
	 viewBox="0 0 176.5 273.2" style="enable-background:new 0 0 176.5 273.2;" xml:space="preserve">
<style type="text/css">
	.st0{fill:#D4D4D4;}
	.st1{fill:#E9E9E9;}
	.st2{fill:#6D0E29;}
	.st3{fill:#DA1549;}
	.st4{fill:#A21239;}
	.st5{fill:none;stroke:#6D0E29;stroke-miterlimit:10;}
	.st6{fill:none;stroke:#6D0E29;stroke-width:0.5;stroke-miterlimit:10;}
	.st7{enable-background:new    ;}
	.st8{fill:#FFFFFF;}
	.st9{fill:#F1F1F1;}
</style>
<title>queretaro222.cu</title>
<g id="Capa_2_1_">
	<g id="edificios">
		<g id="querétaro_222_cuauhtémoc">
			<polygon class="st0" points="167.5,147.6 78.1,224 77.3,202.5 168.6,129.6 			"/>
			<polygon class="st1" points="78.1,224 17.7,195.9 15.6,175.7 77.3,202.5 			"/>
			<polygon class="st2" points="127.8,1.6 176,5.7 71.4,47.4 0.5,31.7 102.2,0.5 121.1,3.8 			"/>
			<polygon class="st3" points="71.4,47.4 176,5.7 174.6,28.5 72.5,76.9 			"/>
			<polygon class="st4" points="0.5,31.7 71.4,47.4 72.5,76.9 3.3,58.8 			"/>
			<polygon class="st3" points="72.5,76.9 174.6,28.5 173.3,50.4 73.6,104.8 			"/>
			<polygon class="st4" points="3.3,58.8 72.5,76.9 73.6,104.8 6,84.5 			"/>
			<polygon class="st0" points="172.1,71.4 170.8,91.6 75.6,156.2 74.6,131.2 			"/>
			<polygon class="st1" points="74.6,131.2 75.6,156.2 11,132.2 8.6,108.9 			"/>
			<polygon class="st0" points="75.6,156.2 170.8,91.6 169.7,111 76.5,179.9 			"/>
			<polygon class="st0" points="169.7,111 168.6,129.6 77.3,202.5 76.5,179.9 			"/>
			<polygon class="st1" points="76.5,179.9 77.3,202.5 15.6,175.7 13.4,154.4 			"/>
			<polygon class="st1" points="11,132.2 75.6,156.2 76.5,179.9 13.4,154.4 			"/>
			<polygon class="st3" points="173.3,50.4 172.1,71.4 74.6,131.2 73.6,104.8 			"/>
			<polygon class="st4" points="73.6,104.8 74.6,131.2 8.6,108.9 6,84.5 			"/>
			<line class="st5" x1="167.5" y1="147.6" x2="78.1" y2="224"/>
			<line class="st5" x1="78.1" y1="224" x2="17.7" y2="195.9"/>
			<line class="st5" x1="127.8" y1="1.6" x2="176" y2="5.7"/>
			<line class="st6" x1="176" y1="5.7" x2="71.4" y2="47.4"/>
			<line class="st6" x1="71.4" y1="47.4" x2="0.5" y2="31.7"/>
			<line class="st5" x1="0.5" y1="31.7" x2="102.2" y2="0.5"/>
			<line class="st5" x1="102.2" y1="0.5" x2="121.1" y2="3.8"/>
			<line class="st5" x1="121.1" y1="3.8" x2="127.8" y2="1.6"/>
			<line class="st5" x1="167.5" y1="147.6" x2="168.6" y2="129.6"/>
			<line class="st6" x1="78.1" y1="224" x2="77.3" y2="202.5"/>
			<line class="st5" x1="17.7" y1="195.9" x2="15.6" y2="175.7"/>
			<line class="st6" x1="72.5" y1="76.9" x2="71.4" y2="47.4"/>
			<line class="st5" x1="174.6" y1="28.5" x2="176" y2="5.7"/>
			<line class="st6" x1="72.5" y1="76.9" x2="174.6" y2="28.5"/>
			<line class="st5" x1="3.3" y1="58.8" x2="0.5" y2="31.7"/>
			<line class="st6" x1="72.5" y1="76.9" x2="3.3" y2="58.8"/>
			<line class="st5" x1="170.8" y1="91.6" x2="172.1" y2="71.4"/>
			<line class="st6" x1="75.6" y1="156.2" x2="74.6" y2="131.2"/>
			<line class="st6" x1="170.8" y1="91.6" x2="75.6" y2="156.2"/>
			<line class="st6" x1="77.3" y1="202.5" x2="76.5" y2="179.9"/>
			<line class="st5" x1="168.6" y1="129.6" x2="169.7" y2="111"/>
			<line class="st6" x1="77.3" y1="202.5" x2="168.6" y2="129.6"/>
			<line class="st5" x1="11" y1="132.2" x2="8.6" y2="108.9"/>
			<line class="st6" x1="75.6" y1="156.2" x2="11" y2="132.2"/>
			<line class="st5" x1="15.6" y1="175.7" x2="13.4" y2="154.4"/>
			<line class="st6" x1="77.3" y1="202.5" x2="15.6" y2="175.7"/>
			<line class="st6" x1="76.5" y1="179.9" x2="75.6" y2="156.2"/>
			<line class="st5" x1="169.7" y1="111" x2="170.8" y2="91.6"/>
			<line class="st6" x1="76.5" y1="179.9" x2="169.7" y2="111"/>
			<line class="st5" x1="13.4" y1="154.4" x2="11" y2="132.2"/>
			<line class="st6" x1="76.5" y1="179.9" x2="13.4" y2="154.4"/>
			<line class="st6" x1="74.6" y1="131.2" x2="73.6" y2="104.8"/>
			<line class="st5" x1="172.1" y1="71.4" x2="173.3" y2="50.4"/>
			<line class="st6" x1="74.6" y1="131.2" x2="172.1" y2="71.4"/>
			<line class="st6" x1="73.6" y1="104.8" x2="72.5" y2="76.9"/>
			<line class="st5" x1="173.3" y1="50.4" x2="174.6" y2="28.5"/>
			<line class="st6" x1="73.6" y1="104.8" x2="173.3" y2="50.4"/>
			<line class="st5" x1="8.6" y1="108.9" x2="6" y2="84.5"/>
			<line class="st6" x1="74.6" y1="131.2" x2="8.6" y2="108.9"/>
			<line class="st5" x1="6" y1="84.5" x2="3.3" y2="58.8"/>
			<line class="st6" x1="73.6" y1="104.8" x2="6" y2="84.5"/>
		</g>
		<g class="st7">
			<path class="st8" d="M23.7,248.1c0,0.5-0.1,1-0.2,1.5c-0.1,0.5-0.3,0.9-0.5,1.3c-0.2,0.4-0.4,0.8-0.7,1.1c-0.3,0.3-0.6,0.6-1,0.9
				l2.9,3.2h-1.8c-0.3,0-0.5,0-0.7-0.1c-0.2-0.1-0.4-0.2-0.6-0.4l-1.7-1.9c-0.3,0.1-0.6,0.1-0.8,0.2c-0.3,0-0.6,0.1-0.9,0.1
				c-0.9,0-1.7-0.1-2.4-0.4c-0.7-0.3-1.3-0.7-1.9-1.2c-0.5-0.5-0.9-1.2-1.2-1.9s-0.4-1.5-0.4-2.4c0-0.8,0.1-1.6,0.4-2.4
				s0.7-1.3,1.2-1.9c0.5-0.5,1.1-0.9,1.9-1.2c0.7-0.3,1.5-0.4,2.4-0.4c0.9,0,1.7,0.1,2.4,0.4c0.7,0.3,1.3,0.7,1.8,1.2
				c0.5,0.5,0.9,1.1,1.2,1.9S23.7,247.2,23.7,248.1z M21.5,248.1c0-0.6-0.1-1.2-0.3-1.7s-0.4-0.9-0.7-1.3c-0.3-0.4-0.7-0.6-1.1-0.8
				s-1-0.3-1.5-0.3c-0.6,0-1.1,0.1-1.5,0.3s-0.8,0.5-1.2,0.8c-0.3,0.4-0.6,0.8-0.7,1.3c-0.2,0.5-0.3,1.1-0.3,1.7s0.1,1.2,0.3,1.7
				c0.2,0.5,0.4,0.9,0.7,1.3c0.3,0.3,0.7,0.6,1.2,0.8s1,0.3,1.5,0.3c0.6,0,1.1-0.1,1.5-0.3s0.8-0.5,1.1-0.8c0.3-0.3,0.6-0.8,0.7-1.3
				S21.5,248.7,21.5,248.1z"/>
			<path class="st8" d="M27.1,245.6v5.2c0,0.5,0.1,0.9,0.3,1.2s0.6,0.4,1,0.4c0.3,0,0.7-0.1,1-0.2c0.3-0.2,0.6-0.4,0.8-0.6v-5.9h2
				v8.2H31c-0.3,0-0.4-0.1-0.5-0.4l-0.1-0.7c-0.2,0.2-0.3,0.3-0.5,0.5c-0.2,0.1-0.4,0.3-0.6,0.4c-0.2,0.1-0.4,0.2-0.7,0.2
				s-0.5,0.1-0.8,0.1c-0.4,0-0.8-0.1-1.2-0.2c-0.3-0.2-0.6-0.4-0.9-0.6c-0.2-0.3-0.4-0.6-0.5-1c-0.1-0.4-0.2-0.8-0.2-1.3v-5.2H27.1z
				"/>
			<path class="st8" d="M37.7,245.5c0.5,0,1,0.1,1.4,0.2s0.8,0.4,1.1,0.7c0.3,0.3,0.6,0.7,0.7,1.2c0.2,0.5,0.3,1,0.3,1.6
				c0,0.1,0,0.3,0,0.4s0,0.2-0.1,0.2c0,0.1-0.1,0.1-0.1,0.1c-0.1,0-0.1,0-0.2,0h-5.1c0.1,0.8,0.3,1.5,0.7,1.9s0.9,0.6,1.6,0.6
				c0.3,0,0.6,0,0.8-0.1c0.2-0.1,0.4-0.2,0.6-0.2c0.2-0.1,0.3-0.2,0.5-0.2c0.1-0.1,0.3-0.1,0.4-0.1c0.1,0,0.1,0,0.2,0
				c0.1,0,0.1,0.1,0.2,0.1l0.6,0.7c-0.2,0.3-0.5,0.5-0.7,0.6c-0.3,0.2-0.6,0.3-0.9,0.4c-0.3,0.1-0.6,0.2-0.9,0.2
				c-0.3,0-0.6,0.1-0.9,0.1c-0.6,0-1.1-0.1-1.6-0.3c-0.5-0.2-0.9-0.5-1.3-0.8s-0.6-0.8-0.9-1.4s-0.3-1.2-0.3-1.9
				c0-0.6,0.1-1.1,0.3-1.6c0.2-0.5,0.4-0.9,0.8-1.3c0.3-0.4,0.8-0.7,1.2-0.9C36.6,245.6,37.1,245.5,37.7,245.5z M37.8,246.9
				c-0.6,0-1,0.2-1.4,0.5c-0.3,0.3-0.5,0.8-0.6,1.4h3.7c0-0.3,0-0.5-0.1-0.7c-0.1-0.2-0.2-0.4-0.3-0.6s-0.3-0.3-0.5-0.4
				C38.3,247,38.1,246.9,37.8,246.9z"/>
			<path class="st8" d="M42.9,253.8v-8.2h1.2c0.2,0,0.3,0,0.4,0.1c0.1,0.1,0.1,0.2,0.2,0.4l0.1,1c0.3-0.5,0.6-0.9,1-1.2
				c0.4-0.3,0.8-0.4,1.3-0.4c0.4,0,0.7,0.1,1,0.3l-0.3,1.5c0,0.1-0.1,0.2-0.1,0.2c-0.1,0-0.1,0.1-0.2,0.1c-0.1,0-0.2,0-0.3-0.1
				c-0.1,0-0.3-0.1-0.6-0.1c-0.4,0-0.8,0.1-1.1,0.3c-0.3,0.2-0.5,0.6-0.7,1v5.1H42.9z"/>
			<path class="st8" d="M52.8,245.5c0.5,0,1,0.1,1.4,0.2s0.8,0.4,1.1,0.7c0.3,0.3,0.6,0.7,0.7,1.2c0.2,0.5,0.3,1,0.3,1.6
				c0,0.1,0,0.3,0,0.4s0,0.2-0.1,0.2c0,0.1-0.1,0.1-0.1,0.1c-0.1,0-0.1,0-0.2,0h-5.1c0.1,0.8,0.3,1.5,0.7,1.9s0.9,0.6,1.6,0.6
				c0.3,0,0.6,0,0.8-0.1c0.2-0.1,0.4-0.2,0.6-0.2c0.2-0.1,0.3-0.2,0.5-0.2c0.1-0.1,0.3-0.1,0.4-0.1c0.1,0,0.1,0,0.2,0
				c0.1,0,0.1,0.1,0.2,0.1l0.6,0.7c-0.2,0.3-0.5,0.5-0.7,0.6c-0.3,0.2-0.6,0.3-0.9,0.4c-0.3,0.1-0.6,0.2-0.9,0.2
				c-0.3,0-0.6,0.1-0.9,0.1c-0.6,0-1.1-0.1-1.6-0.3c-0.5-0.2-0.9-0.5-1.3-0.8s-0.6-0.8-0.9-1.4s-0.3-1.2-0.3-1.9
				c0-0.6,0.1-1.1,0.3-1.6c0.2-0.5,0.4-0.9,0.8-1.3c0.3-0.4,0.8-0.7,1.2-0.9C51.7,245.6,52.2,245.5,52.8,245.5z M52.9,246.9
				c-0.6,0-1,0.2-1.4,0.5c-0.3,0.3-0.5,0.8-0.6,1.4h3.7c0-0.3,0-0.5-0.1-0.7c-0.1-0.2-0.2-0.4-0.3-0.6s-0.3-0.3-0.5-0.4
				C53.4,247,53.2,246.9,52.9,246.9z M55.6,242.2l-2,2.1c-0.1,0.1-0.2,0.2-0.3,0.2s-0.2,0.1-0.4,0.1h-1.2l1.1-1.9
				c0.1-0.1,0.2-0.2,0.3-0.3c0.1-0.1,0.3-0.1,0.5-0.1H55.6z"/>
			<path class="st8" d="M60.7,254c-0.7,0-1.3-0.2-1.6-0.6c-0.4-0.4-0.6-1-0.6-1.7v-4.6h-0.8c-0.1,0-0.2,0-0.3-0.1
				c-0.1-0.1-0.1-0.2-0.1-0.3v-0.8l1.3-0.2l0.4-2.2c0-0.1,0.1-0.2,0.1-0.2c0.1-0.1,0.2-0.1,0.3-0.1h1v2.6h2.2v1.4h-2.2v4.4
				c0,0.3,0.1,0.5,0.2,0.6c0.1,0.1,0.3,0.2,0.5,0.2c0.1,0,0.2,0,0.3,0s0.2-0.1,0.2-0.1c0.1,0,0.1-0.1,0.2-0.1c0,0,0.1,0,0.1,0
				c0.1,0,0.1,0,0.1,0c0,0,0.1,0.1,0.1,0.1l0.6,1c-0.3,0.2-0.6,0.4-1,0.5C61.5,253.9,61.1,254,60.7,254z"/>
			<path class="st8" d="M70.6,253.8h-0.9c-0.2,0-0.3,0-0.4-0.1c-0.1-0.1-0.2-0.2-0.2-0.3l-0.2-0.6c-0.2,0.2-0.4,0.4-0.6,0.5
				c-0.2,0.1-0.4,0.3-0.6,0.4c-0.2,0.1-0.4,0.2-0.7,0.2c-0.2,0-0.5,0.1-0.8,0.1c-0.3,0-0.7,0-1-0.1c-0.3-0.1-0.5-0.2-0.8-0.4
				c-0.2-0.2-0.4-0.4-0.5-0.7c-0.1-0.3-0.2-0.6-0.2-1c0-0.3,0.1-0.6,0.2-0.9s0.4-0.6,0.8-0.8c0.4-0.2,0.9-0.4,1.5-0.6
				s1.4-0.2,2.3-0.2v-0.5c0-0.6-0.1-1-0.3-1.2c-0.2-0.3-0.6-0.4-1-0.4c-0.3,0-0.6,0-0.8,0.1c-0.2,0.1-0.4,0.2-0.6,0.3
				c-0.2,0.1-0.3,0.2-0.4,0.3c-0.1,0.1-0.3,0.1-0.4,0.1c-0.1,0-0.2,0-0.3-0.1s-0.2-0.2-0.2-0.3l-0.4-0.6c0.9-0.9,2.1-1.3,3.4-1.3
				c0.5,0,0.9,0.1,1.3,0.2s0.7,0.4,1,0.7c0.3,0.3,0.5,0.6,0.6,1c0.1,0.4,0.2,0.8,0.2,1.3V253.8z M66.8,252.6c0.2,0,0.4,0,0.6-0.1
				c0.2,0,0.3-0.1,0.5-0.2c0.2-0.1,0.3-0.2,0.4-0.3c0.1-0.1,0.3-0.2,0.4-0.4v-1.4c-0.6,0-1.1,0-1.4,0.1c-0.4,0.1-0.7,0.2-0.9,0.3
				c-0.2,0.1-0.4,0.2-0.5,0.4s-0.1,0.3-0.1,0.5c0,0.3,0.1,0.6,0.3,0.7C66.2,252.5,66.4,252.6,66.8,252.6z"/>
			<path class="st8" d="M72.6,253.8v-8.2h1.2c0.2,0,0.3,0,0.4,0.1c0.1,0.1,0.1,0.2,0.2,0.4l0.1,1c0.3-0.5,0.6-0.9,1-1.2
				c0.4-0.3,0.8-0.4,1.3-0.4c0.4,0,0.7,0.1,1,0.3l-0.3,1.5c0,0.1-0.1,0.2-0.1,0.2c-0.1,0-0.1,0.1-0.2,0.1c-0.1,0-0.2,0-0.3-0.1
				c-0.1,0-0.3-0.1-0.6-0.1c-0.4,0-0.8,0.1-1.1,0.3c-0.3,0.2-0.5,0.6-0.7,1v5.1H72.6z"/>
			<path class="st8" d="M82.6,245.5c0.6,0,1.2,0.1,1.7,0.3s0.9,0.5,1.3,0.8c0.4,0.4,0.6,0.8,0.8,1.3c0.2,0.5,0.3,1.1,0.3,1.8
				c0,0.7-0.1,1.2-0.3,1.8c-0.2,0.5-0.5,1-0.8,1.3c-0.4,0.4-0.8,0.7-1.3,0.8s-1.1,0.3-1.7,0.3s-1.2-0.1-1.7-0.3
				c-0.5-0.2-0.9-0.5-1.3-0.8c-0.4-0.4-0.6-0.8-0.8-1.3c-0.2-0.5-0.3-1.1-0.3-1.8c0-0.6,0.1-1.2,0.3-1.8c0.2-0.5,0.5-1,0.8-1.3
				c0.4-0.4,0.8-0.6,1.3-0.8C81.4,245.6,82,245.5,82.6,245.5z M82.6,252.4c0.7,0,1.2-0.2,1.5-0.7c0.3-0.5,0.5-1.1,0.5-2
				c0-0.9-0.2-1.6-0.5-2c-0.3-0.5-0.8-0.7-1.5-0.7c-0.7,0-1.2,0.2-1.5,0.7s-0.5,1.1-0.5,2c0,0.9,0.2,1.5,0.5,2
				C81.4,252.2,81.9,252.4,82.6,252.4z"/>
			<path class="st8" d="M92.8,242.3c0.1,0,0.1,0,0.2,0c0.1,0,0.1,0.1,0.1,0.1c0,0,0.1,0.1,0.2,0.2l6.1,7.7c0-0.2,0-0.4,0-0.5
				s0-0.3,0-0.5v-7h1.9v11.6H100c-0.2,0-0.3,0-0.4-0.1c-0.1-0.1-0.2-0.1-0.3-0.3l-6-7.7c0,0.2,0,0.3,0,0.5c0,0.2,0,0.3,0,0.5v7.1
				h-1.9v-11.6h1.1C92.6,242.3,92.7,242.3,92.8,242.3z"/>
			<path class="st8" d="M106.9,245.5c0.6,0,1.2,0.1,1.7,0.3c0.5,0.2,0.9,0.5,1.3,0.8c0.4,0.4,0.6,0.8,0.8,1.3
				c0.2,0.5,0.3,1.1,0.3,1.8c0,0.7-0.1,1.2-0.3,1.8c-0.2,0.5-0.5,1-0.8,1.3c-0.4,0.4-0.8,0.7-1.3,0.8c-0.5,0.2-1.1,0.3-1.7,0.3
				s-1.2-0.1-1.7-0.3s-0.9-0.5-1.3-0.8c-0.4-0.4-0.6-0.8-0.8-1.3c-0.2-0.5-0.3-1.1-0.3-1.8c0-0.6,0.1-1.2,0.3-1.8
				c0.2-0.5,0.5-1,0.8-1.3c0.4-0.4,0.8-0.6,1.3-0.8S106.3,245.5,106.9,245.5z M106.9,252.4c0.7,0,1.2-0.2,1.5-0.7
				c0.3-0.5,0.5-1.1,0.5-2c0-0.9-0.2-1.6-0.5-2c-0.3-0.5-0.8-0.7-1.5-0.7c-0.7,0-1.2,0.2-1.5,0.7c-0.3,0.5-0.5,1.1-0.5,2
				c0,0.9,0.2,1.5,0.5,2C105.7,252.2,106.2,252.4,106.9,252.4z"/>
			<path class="st8" d="M112,252.8c0-0.2,0-0.3,0.1-0.5s0.1-0.3,0.3-0.4c0.1-0.1,0.2-0.2,0.4-0.3c0.1-0.1,0.3-0.1,0.5-0.1
				c0.2,0,0.3,0,0.5,0.1c0.1,0.1,0.3,0.1,0.4,0.3c0.1,0.1,0.2,0.2,0.3,0.4c0.1,0.1,0.1,0.3,0.1,0.5c0,0.2,0,0.3-0.1,0.5
				c-0.1,0.1-0.1,0.3-0.3,0.4c-0.1,0.1-0.2,0.2-0.4,0.3c-0.1,0.1-0.3,0.1-0.5,0.1c-0.2,0-0.3,0-0.5-0.1c-0.1-0.1-0.3-0.1-0.4-0.3
				c-0.1-0.1-0.2-0.2-0.3-0.4C112,253.1,112,252.9,112,252.8z"/>
			<path class="st8" d="M122.9,242.2c0.5,0,1,0.1,1.5,0.2c0.4,0.2,0.8,0.4,1.1,0.7c0.3,0.3,0.6,0.6,0.7,1c0.2,0.4,0.3,0.9,0.3,1.4
				c0,0.4-0.1,0.8-0.2,1.2c-0.1,0.4-0.3,0.7-0.5,1c-0.2,0.3-0.5,0.7-0.7,1c-0.3,0.3-0.6,0.6-0.9,0.9l-2.6,2.7
				c0.3-0.1,0.5-0.1,0.8-0.2c0.2,0,0.5-0.1,0.7-0.1h3c0.2,0,0.4,0.1,0.5,0.2c0.1,0.1,0.2,0.3,0.2,0.5v1.2h-7.9v-0.7
				c0-0.1,0-0.3,0.1-0.4c0.1-0.1,0.1-0.3,0.3-0.4l3.5-3.5c0.3-0.3,0.6-0.6,0.8-0.9c0.2-0.3,0.4-0.5,0.6-0.8c0.2-0.3,0.3-0.5,0.4-0.8
				s0.1-0.6,0.1-0.9c0-0.3,0-0.5-0.1-0.7c-0.1-0.2-0.2-0.4-0.3-0.5c-0.1-0.1-0.3-0.3-0.5-0.3s-0.4-0.1-0.7-0.1
				c-0.5,0-0.9,0.1-1.2,0.4c-0.3,0.2-0.5,0.6-0.6,1c-0.1,0.2-0.1,0.3-0.3,0.4c-0.1,0.1-0.3,0.1-0.4,0.1c-0.1,0-0.2,0-0.3,0l-1-0.2
				c0.1-0.6,0.2-1,0.5-1.5s0.5-0.8,0.9-1c0.3-0.3,0.7-0.5,1.2-0.6C121.9,242.2,122.4,242.2,122.9,242.2z"/>
			<path class="st8" d="M132.2,242.2c0.5,0,1,0.1,1.5,0.2c0.4,0.2,0.8,0.4,1.1,0.7c0.3,0.3,0.6,0.6,0.7,1c0.2,0.4,0.3,0.9,0.3,1.4
				c0,0.4-0.1,0.8-0.2,1.2c-0.1,0.4-0.3,0.7-0.5,1c-0.2,0.3-0.5,0.7-0.7,1c-0.3,0.3-0.6,0.6-0.9,0.9l-2.6,2.7
				c0.3-0.1,0.5-0.1,0.8-0.2c0.2,0,0.5-0.1,0.7-0.1h3c0.2,0,0.4,0.1,0.5,0.2c0.1,0.1,0.2,0.3,0.2,0.5v1.2H128v-0.7
				c0-0.1,0-0.3,0.1-0.4c0.1-0.1,0.1-0.3,0.3-0.4l3.5-3.5c0.3-0.3,0.6-0.6,0.8-0.9c0.2-0.3,0.4-0.5,0.6-0.8c0.2-0.3,0.3-0.5,0.4-0.8
				s0.1-0.6,0.1-0.9c0-0.3,0-0.5-0.1-0.7c-0.1-0.2-0.2-0.4-0.3-0.5c-0.1-0.1-0.3-0.3-0.5-0.3s-0.4-0.1-0.7-0.1
				c-0.5,0-0.9,0.1-1.2,0.4c-0.3,0.2-0.5,0.6-0.6,1c-0.1,0.2-0.1,0.3-0.3,0.4c-0.1,0.1-0.3,0.1-0.4,0.1c-0.1,0-0.2,0-0.3,0l-1-0.2
				c0.1-0.6,0.2-1,0.5-1.5s0.5-0.8,0.9-1c0.3-0.3,0.7-0.5,1.2-0.6C131.2,242.2,131.7,242.2,132.2,242.2z"/>
			<path class="st8" d="M141.5,242.2c0.5,0,1,0.1,1.5,0.2c0.4,0.2,0.8,0.4,1.1,0.7c0.3,0.3,0.6,0.6,0.7,1c0.2,0.4,0.3,0.9,0.3,1.4
				c0,0.4-0.1,0.8-0.2,1.2c-0.1,0.4-0.3,0.7-0.5,1c-0.2,0.3-0.5,0.7-0.7,1c-0.3,0.3-0.6,0.6-0.9,0.9l-2.6,2.7
				c0.3-0.1,0.5-0.1,0.8-0.2c0.2,0,0.5-0.1,0.7-0.1h3c0.2,0,0.4,0.1,0.5,0.2c0.1,0.1,0.2,0.3,0.2,0.5v1.2h-7.9v-0.7
				c0-0.1,0-0.3,0.1-0.4c0.1-0.1,0.1-0.3,0.3-0.4l3.5-3.5c0.3-0.3,0.6-0.6,0.8-0.9c0.2-0.3,0.4-0.5,0.6-0.8c0.2-0.3,0.3-0.5,0.4-0.8
				s0.1-0.6,0.1-0.9c0-0.3,0-0.5-0.1-0.7c-0.1-0.2-0.2-0.4-0.3-0.5c-0.1-0.1-0.3-0.3-0.5-0.3s-0.4-0.1-0.7-0.1
				c-0.5,0-0.9,0.1-1.2,0.4c-0.3,0.2-0.5,0.6-0.6,1c-0.1,0.2-0.1,0.3-0.3,0.4c-0.1,0.1-0.3,0.1-0.4,0.1c-0.1,0-0.2,0-0.3,0l-1-0.2
				c0.1-0.6,0.2-1,0.5-1.5s0.5-0.8,0.9-1c0.3-0.3,0.7-0.5,1.2-0.6C140.5,242.2,141,242.2,141.5,242.2z"/>
		</g>
		<g class="st7">
			<path class="st9" d="M21.3,265.6c0,0.8-0.1,1.4-0.4,2.1c-0.2,0.6-0.6,1.1-1,1.6s-1,0.8-1.6,1c-0.6,0.2-1.3,0.4-2,0.4h-3.8v-10
				h3.8c0.7,0,1.4,0.1,2,0.4c0.6,0.2,1.1,0.6,1.6,1s0.8,1,1,1.6C21.2,264.2,21.3,264.9,21.3,265.6z M19.9,265.6
				c0-0.6-0.1-1.2-0.3-1.7s-0.4-0.9-0.7-1.2c-0.3-0.3-0.7-0.6-1.1-0.8c-0.4-0.2-0.9-0.3-1.5-0.3H14v7.8h2.4c0.5,0,1-0.1,1.5-0.3
				c0.4-0.2,0.8-0.4,1.1-0.8c0.3-0.3,0.5-0.7,0.7-1.2S19.9,266.3,19.9,265.6z"/>
			<path class="st9" d="M25.8,263.4c0.4,0,0.8,0.1,1.2,0.2s0.7,0.3,0.9,0.6c0.3,0.3,0.5,0.6,0.6,1c0.1,0.4,0.2,0.8,0.2,1.3
				c0,0.2,0,0.3-0.1,0.4s-0.1,0.1-0.2,0.1h-4.7c0,0.4,0.1,0.8,0.2,1.2c0.1,0.3,0.3,0.6,0.5,0.8c0.2,0.2,0.4,0.4,0.7,0.5
				c0.3,0.1,0.6,0.2,0.9,0.2c0.3,0,0.6,0,0.8-0.1c0.2-0.1,0.4-0.2,0.6-0.2c0.2-0.1,0.3-0.2,0.4-0.2c0.1-0.1,0.2-0.1,0.3-0.1
				c0.1,0,0.2,0,0.2,0.1l0.4,0.5c-0.2,0.2-0.3,0.3-0.6,0.5c-0.2,0.1-0.4,0.3-0.7,0.3s-0.5,0.2-0.8,0.2c-0.3,0-0.5,0.1-0.8,0.1
				c-0.5,0-0.9-0.1-1.4-0.2c-0.4-0.2-0.8-0.4-1.1-0.7c-0.3-0.3-0.5-0.7-0.7-1.2c-0.2-0.5-0.3-1-0.3-1.6c0-0.5,0.1-1,0.2-1.4
				c0.2-0.4,0.4-0.8,0.7-1.1c0.3-0.3,0.6-0.6,1-0.7S25.3,263.4,25.8,263.4z M25.8,264.4c-0.6,0-1.1,0.2-1.4,0.5s-0.6,0.8-0.6,1.4
				h3.9c0-0.3,0-0.6-0.1-0.8c-0.1-0.2-0.2-0.4-0.3-0.6c-0.2-0.2-0.3-0.3-0.6-0.4C26.3,264.4,26.1,264.4,25.8,264.4z"/>
			<path class="st9" d="M31.7,260.3v10.3h-1.2v-10.3H31.7z"/>
			<path class="st9" d="M36.7,263.4c0.4,0,0.8,0.1,1.2,0.2s0.7,0.3,0.9,0.6c0.3,0.3,0.5,0.6,0.6,1c0.1,0.4,0.2,0.8,0.2,1.3
				c0,0.2,0,0.3-0.1,0.4s-0.1,0.1-0.2,0.1h-4.7c0,0.4,0.1,0.8,0.2,1.2c0.1,0.3,0.3,0.6,0.5,0.8c0.2,0.2,0.4,0.4,0.7,0.5
				c0.3,0.1,0.6,0.2,0.9,0.2c0.3,0,0.6,0,0.8-0.1c0.2-0.1,0.4-0.2,0.6-0.2c0.2-0.1,0.3-0.2,0.4-0.2c0.1-0.1,0.2-0.1,0.3-0.1
				c0.1,0,0.2,0,0.2,0.1l0.4,0.5c-0.2,0.2-0.3,0.3-0.6,0.5c-0.2,0.1-0.4,0.3-0.7,0.3s-0.5,0.2-0.8,0.2c-0.3,0-0.5,0.1-0.8,0.1
				c-0.5,0-0.9-0.1-1.4-0.2c-0.4-0.2-0.8-0.4-1.1-0.7c-0.3-0.3-0.5-0.7-0.7-1.2c-0.2-0.5-0.3-1-0.3-1.6c0-0.5,0.1-1,0.2-1.4
				c0.2-0.4,0.4-0.8,0.7-1.1c0.3-0.3,0.6-0.6,1-0.7S36.2,263.4,36.7,263.4z M36.7,264.4c-0.6,0-1.1,0.2-1.4,0.5s-0.6,0.8-0.6,1.4
				h3.9c0-0.3,0-0.6-0.1-0.8c-0.1-0.2-0.2-0.4-0.3-0.6c-0.2-0.2-0.3-0.3-0.6-0.4C37.3,264.4,37,264.4,36.7,264.4z"/>
			<path class="st9" d="M43.6,263.4c0.3,0,0.6,0,0.9,0.1s0.5,0.2,0.7,0.3h1.9v0.5c0,0.2-0.1,0.3-0.3,0.3l-0.8,0.1
				c0.2,0.3,0.2,0.6,0.2,1c0,0.3-0.1,0.7-0.2,0.9c-0.1,0.3-0.3,0.5-0.6,0.7c-0.2,0.2-0.5,0.4-0.8,0.5c-0.3,0.1-0.7,0.2-1.1,0.2
				c-0.3,0-0.6,0-0.9-0.1c-0.1,0.1-0.3,0.2-0.3,0.3c-0.1,0.1-0.1,0.2-0.1,0.3c0,0.2,0.1,0.3,0.2,0.4c0.1,0.1,0.3,0.2,0.5,0.2
				c0.2,0,0.5,0.1,0.8,0.1s0.6,0,0.9,0s0.6,0,0.9,0.1c0.3,0.1,0.5,0.1,0.8,0.3c0.2,0.1,0.4,0.3,0.5,0.5c0.1,0.2,0.2,0.5,0.2,0.8
				c0,0.3-0.1,0.6-0.2,0.9c-0.2,0.3-0.4,0.5-0.7,0.8c-0.3,0.2-0.6,0.4-1,0.5c-0.4,0.1-0.9,0.2-1.4,0.2s-1-0.1-1.4-0.2
				c-0.4-0.1-0.7-0.2-1-0.4c-0.3-0.2-0.4-0.4-0.6-0.6s-0.2-0.5-0.2-0.7c0-0.4,0.1-0.6,0.3-0.9s0.5-0.4,0.9-0.6
				c-0.2-0.1-0.4-0.2-0.5-0.4c-0.1-0.2-0.2-0.4-0.2-0.6c0-0.1,0-0.2,0.1-0.3c0-0.1,0.1-0.2,0.2-0.3c0.1-0.1,0.2-0.2,0.3-0.3
				c0.1-0.1,0.2-0.2,0.4-0.3c-0.3-0.2-0.6-0.5-0.8-0.8c-0.2-0.3-0.3-0.7-0.3-1.1c0-0.3,0.1-0.7,0.2-0.9c0.1-0.3,0.3-0.5,0.6-0.7
				c0.2-0.2,0.5-0.4,0.9-0.5S43.2,263.4,43.6,263.4z M45.8,271c0-0.2,0-0.3-0.1-0.4c-0.1-0.1-0.2-0.2-0.4-0.3s-0.4-0.1-0.6-0.1
				c-0.2,0-0.5,0-0.7,0s-0.5,0-0.7,0s-0.5,0-0.7-0.1c-0.3,0.1-0.5,0.3-0.6,0.5c-0.2,0.2-0.2,0.4-0.2,0.7c0,0.2,0,0.3,0.1,0.4
				c0.1,0.1,0.2,0.3,0.4,0.4c0.2,0.1,0.4,0.2,0.6,0.2c0.3,0.1,0.6,0.1,0.9,0.1c0.3,0,0.6,0,0.9-0.1c0.3-0.1,0.5-0.2,0.7-0.3
				c0.2-0.1,0.3-0.2,0.4-0.4C45.8,271.4,45.8,271.2,45.8,271z M43.6,267.2c0.3,0,0.5,0,0.7-0.1c0.2-0.1,0.4-0.2,0.5-0.3
				s0.2-0.3,0.3-0.5s0.1-0.4,0.1-0.6c0-0.4-0.1-0.8-0.4-1s-0.6-0.4-1.2-0.4c-0.5,0-0.9,0.1-1.1,0.4s-0.4,0.6-0.4,1
				c0,0.2,0,0.4,0.1,0.6c0.1,0.2,0.2,0.3,0.3,0.5c0.1,0.1,0.3,0.2,0.5,0.3C43.1,267.2,43.4,267.2,43.6,267.2z"/>
			<path class="st9" d="M53.6,270.7H53c-0.1,0-0.2,0-0.3-0.1c-0.1,0-0.1-0.1-0.1-0.2l-0.1-0.7c-0.2,0.2-0.4,0.3-0.5,0.5
				c-0.2,0.1-0.4,0.2-0.6,0.3c-0.2,0.1-0.4,0.2-0.6,0.2s-0.5,0.1-0.7,0.1c-0.3,0-0.5,0-0.8-0.1s-0.4-0.2-0.6-0.3
				c-0.2-0.2-0.3-0.3-0.4-0.6c-0.1-0.2-0.2-0.5-0.2-0.8c0-0.3,0.1-0.6,0.2-0.8s0.4-0.5,0.7-0.7c0.3-0.2,0.8-0.4,1.3-0.5
				c0.6-0.1,1.2-0.2,2-0.2v-0.6c0-0.6-0.1-1-0.4-1.3c-0.2-0.3-0.6-0.4-1-0.4c-0.3,0-0.6,0-0.8,0.1s-0.4,0.2-0.5,0.3
				c-0.2,0.1-0.3,0.2-0.4,0.3c-0.1,0.1-0.2,0.1-0.3,0.1c-0.1,0-0.2,0-0.2-0.1s-0.1-0.1-0.2-0.2l-0.2-0.4c0.4-0.4,0.8-0.7,1.3-0.8
				c0.5-0.2,1-0.3,1.5-0.3c0.4,0,0.7,0.1,1.1,0.2c0.3,0.1,0.6,0.3,0.8,0.5c0.2,0.2,0.4,0.5,0.5,0.8s0.2,0.7,0.2,1.1V270.7z
				 M50.3,269.9c0.2,0,0.4,0,0.6-0.1c0.2,0,0.4-0.1,0.5-0.2c0.2-0.1,0.3-0.2,0.5-0.3c0.1-0.1,0.3-0.2,0.4-0.4v-1.5
				c-0.6,0-1.1,0-1.5,0.1c-0.4,0.1-0.7,0.2-1,0.3c-0.3,0.1-0.4,0.3-0.5,0.4c-0.1,0.2-0.2,0.3-0.2,0.5c0,0.2,0,0.3,0.1,0.5
				c0.1,0.1,0.1,0.2,0.2,0.3c0.1,0.1,0.2,0.2,0.4,0.2C50,269.9,50.2,269.9,50.3,269.9z"/>
			<path class="st9" d="M60.3,264.8c0,0.1-0.1,0.1-0.1,0.1c0,0-0.1,0-0.2,0s-0.1,0-0.2-0.1c-0.1-0.1-0.2-0.1-0.3-0.2
				c-0.1-0.1-0.3-0.1-0.5-0.2s-0.4-0.1-0.7-0.1c-0.3,0-0.7,0.1-0.9,0.2c-0.3,0.1-0.5,0.3-0.7,0.5s-0.3,0.5-0.4,0.8s-0.1,0.7-0.1,1.1
				c0,0.4,0,0.8,0.1,1.1c0.1,0.3,0.2,0.6,0.4,0.8s0.4,0.4,0.6,0.5c0.3,0.1,0.5,0.2,0.9,0.2c0.3,0,0.6,0,0.7-0.1
				c0.2-0.1,0.4-0.2,0.5-0.2c0.1-0.1,0.2-0.2,0.3-0.2c0.1-0.1,0.2-0.1,0.3-0.1c0.1,0,0.2,0,0.2,0.1l0.4,0.5
				c-0.3,0.4-0.7,0.7-1.2,0.8c-0.5,0.2-0.9,0.3-1.5,0.3c-0.4,0-0.9-0.1-1.2-0.2c-0.4-0.2-0.7-0.4-1-0.7c-0.3-0.3-0.5-0.7-0.7-1.1
				c-0.2-0.5-0.2-1-0.2-1.5c0-0.5,0.1-1,0.2-1.5c0.1-0.4,0.4-0.8,0.6-1.2c0.3-0.3,0.6-0.6,1-0.8c0.4-0.2,0.9-0.3,1.4-0.3
				c0.5,0,0.9,0.1,1.3,0.2c0.4,0.2,0.7,0.4,1,0.7L60.3,264.8z"/>
			<path class="st9" d="M63.7,261.3c0,0.1,0,0.2-0.1,0.3c0,0.1-0.1,0.2-0.2,0.3c-0.1,0.1-0.2,0.1-0.3,0.2c-0.1,0-0.2,0.1-0.3,0.1
				c-0.1,0-0.2,0-0.3-0.1s-0.2-0.1-0.3-0.2c-0.1-0.1-0.1-0.2-0.2-0.3c0-0.1-0.1-0.2-0.1-0.3c0-0.1,0-0.2,0.1-0.3
				c0-0.1,0.1-0.2,0.2-0.3c0.1-0.1,0.2-0.1,0.3-0.2c0.1,0,0.2-0.1,0.3-0.1c0.1,0,0.2,0,0.3,0.1c0.1,0,0.2,0.1,0.3,0.2
				c0.1,0.1,0.1,0.2,0.2,0.3C63.7,261.1,63.7,261.2,63.7,261.3z M63.4,263.6v7.1h-1.2v-7.1H63.4z"/>
			<path class="st9" d="M68.5,263.4c0.5,0,1,0.1,1.4,0.3c0.4,0.2,0.8,0.4,1.1,0.7s0.5,0.7,0.7,1.2c0.2,0.5,0.2,1,0.2,1.5
				c0,0.6-0.1,1.1-0.2,1.5c-0.2,0.4-0.4,0.8-0.7,1.1s-0.6,0.6-1.1,0.7c-0.4,0.2-0.9,0.3-1.4,0.3s-1-0.1-1.4-0.3
				c-0.4-0.2-0.8-0.4-1.1-0.7s-0.5-0.7-0.7-1.1c-0.2-0.4-0.2-1-0.2-1.5c0-0.6,0.1-1.1,0.2-1.5c0.2-0.5,0.4-0.8,0.7-1.2
				s0.6-0.6,1.1-0.7C67.5,263.5,67.9,263.4,68.5,263.4z M68.5,269.8c0.7,0,1.2-0.2,1.6-0.7c0.3-0.5,0.5-1.1,0.5-2
				c0-0.8-0.2-1.5-0.5-2c-0.3-0.5-0.9-0.7-1.6-0.7c-0.4,0-0.7,0.1-0.9,0.2c-0.3,0.1-0.5,0.3-0.7,0.5s-0.3,0.5-0.4,0.8
				c-0.1,0.3-0.1,0.7-0.1,1.1s0,0.8,0.1,1.1s0.2,0.6,0.4,0.8c0.2,0.2,0.4,0.4,0.7,0.5C67.8,269.7,68.1,269.8,68.5,269.8z
				 M70.5,260.5l-1.6,1.8c-0.1,0.1-0.1,0.1-0.2,0.2s-0.1,0-0.2,0h-0.7l1-1.7c0.1-0.1,0.1-0.2,0.2-0.2s0.2-0.1,0.3-0.1H70.5z"/>
			<path class="st9" d="M73.4,270.7v-7.1h0.7c0.2,0,0.3,0.1,0.3,0.3l0.1,0.8c0.3-0.3,0.7-0.6,1-0.8s0.8-0.3,1.3-0.3
				c0.4,0,0.7,0.1,1,0.2c0.3,0.1,0.5,0.3,0.7,0.5c0.2,0.2,0.3,0.5,0.5,0.9c0.1,0.3,0.2,0.7,0.2,1.1v4.5H78v-4.5c0-0.5-0.1-1-0.4-1.2
				c-0.2-0.3-0.6-0.4-1.1-0.4c-0.4,0-0.7,0.1-1,0.3c-0.3,0.2-0.6,0.4-0.9,0.7v5.2H73.4z"/>
			<path class="st9" d="M93.8,268.6c0.1,0,0.1,0,0.2,0.1l0.5,0.6c-0.4,0.5-0.9,0.8-1.5,1.1s-1.3,0.4-2.1,0.4c-0.7,0-1.4-0.1-2-0.4
				c-0.6-0.2-1.1-0.6-1.5-1s-0.7-1-1-1.6c-0.2-0.6-0.3-1.3-0.3-2.1s0.1-1.4,0.4-2.1s0.6-1.2,1-1.6c0.4-0.5,1-0.8,1.6-1.1
				c0.6-0.2,1.3-0.4,2-0.4c0.7,0,1.4,0.1,1.9,0.3s1,0.5,1.4,0.9l-0.4,0.6c0,0-0.1,0.1-0.1,0.1c0,0-0.1,0-0.2,0c-0.1,0-0.1,0-0.2-0.1
				s-0.1-0.1-0.2-0.2c-0.1-0.1-0.2-0.1-0.3-0.2c-0.1-0.1-0.3-0.1-0.4-0.2s-0.4-0.1-0.6-0.2c-0.2,0-0.5-0.1-0.8-0.1
				c-0.5,0-1,0.1-1.5,0.3c-0.4,0.2-0.8,0.4-1.2,0.8c-0.3,0.3-0.6,0.8-0.8,1.2s-0.3,1-0.3,1.6c0,0.6,0.1,1.2,0.3,1.7s0.4,0.9,0.7,1.2
				c0.3,0.3,0.7,0.6,1.1,0.8c0.4,0.2,0.9,0.3,1.4,0.3c0.3,0,0.6,0,0.8-0.1s0.5-0.1,0.7-0.2c0.2-0.1,0.4-0.2,0.6-0.3s0.4-0.3,0.5-0.4
				C93.7,268.6,93.8,268.6,93.8,268.6z"/>
			<path class="st9" d="M97.2,263.6v4.5c0,0.5,0.1,1,0.4,1.2c0.2,0.3,0.6,0.4,1.1,0.4c0.4,0,0.7-0.1,1-0.3c0.3-0.2,0.6-0.4,0.9-0.7
				v-5.2h1.2v7.1h-0.7c-0.2,0-0.3-0.1-0.3-0.3l-0.1-0.8c-0.3,0.3-0.7,0.6-1,0.8c-0.4,0.2-0.8,0.3-1.3,0.3c-0.4,0-0.7-0.1-1-0.2
				c-0.3-0.1-0.5-0.3-0.7-0.5c-0.2-0.2-0.4-0.5-0.5-0.8c-0.1-0.3-0.2-0.7-0.2-1.1v-4.5H97.2z"/>
			<path class="st9" d="M109.1,270.7h-0.6c-0.1,0-0.2,0-0.3-0.1c-0.1,0-0.1-0.1-0.1-0.2l-0.1-0.7c-0.2,0.2-0.4,0.3-0.5,0.5
				c-0.2,0.1-0.4,0.2-0.6,0.3c-0.2,0.1-0.4,0.2-0.6,0.2s-0.5,0.1-0.7,0.1c-0.3,0-0.5,0-0.8-0.1s-0.4-0.2-0.6-0.3s-0.3-0.3-0.4-0.6
				c-0.1-0.2-0.2-0.5-0.2-0.8c0-0.3,0.1-0.6,0.2-0.8c0.2-0.3,0.4-0.5,0.7-0.7c0.3-0.2,0.8-0.4,1.3-0.5c0.6-0.1,1.2-0.2,2-0.2v-0.6
				c0-0.6-0.1-1-0.4-1.3s-0.6-0.4-1-0.4c-0.3,0-0.6,0-0.8,0.1c-0.2,0.1-0.4,0.2-0.5,0.3c-0.2,0.1-0.3,0.2-0.4,0.3s-0.2,0.1-0.3,0.1
				c-0.1,0-0.2,0-0.2-0.1c-0.1,0-0.1-0.1-0.2-0.2l-0.2-0.4c0.4-0.4,0.8-0.7,1.3-0.8c0.5-0.2,1-0.3,1.5-0.3c0.4,0,0.7,0.1,1.1,0.2
				c0.3,0.1,0.6,0.3,0.8,0.5s0.4,0.5,0.5,0.8s0.2,0.7,0.2,1.1V270.7z M105.9,269.9c0.2,0,0.4,0,0.6-0.1c0.2,0,0.4-0.1,0.5-0.2
				c0.2-0.1,0.3-0.2,0.5-0.3c0.1-0.1,0.3-0.2,0.4-0.4v-1.5c-0.6,0-1.1,0-1.5,0.1c-0.4,0.1-0.7,0.2-1,0.3c-0.3,0.1-0.4,0.3-0.5,0.4
				c-0.1,0.2-0.2,0.3-0.2,0.5c0,0.2,0,0.3,0.1,0.5c0.1,0.1,0.1,0.2,0.2,0.3s0.2,0.2,0.4,0.2C105.6,269.9,105.7,269.9,105.9,269.9z"
				/>
			<path class="st9" d="M112.1,263.6v4.5c0,0.5,0.1,1,0.4,1.2c0.2,0.3,0.6,0.4,1.1,0.4c0.4,0,0.7-0.1,1-0.3c0.3-0.2,0.6-0.4,0.9-0.7
				v-5.2h1.2v7.1H116c-0.2,0-0.3-0.1-0.3-0.3l-0.1-0.8c-0.3,0.3-0.7,0.6-1,0.8c-0.4,0.2-0.8,0.3-1.3,0.3c-0.4,0-0.7-0.1-1-0.2
				c-0.3-0.1-0.5-0.3-0.7-0.5c-0.2-0.2-0.4-0.5-0.5-0.8c-0.1-0.3-0.2-0.7-0.2-1.1v-4.5H112.1z"/>
			<path class="st9" d="M118.8,270.7v-10.3h1.2v4.2c0.3-0.3,0.6-0.6,1-0.8c0.4-0.2,0.8-0.3,1.3-0.3c0.4,0,0.7,0.1,1,0.2
				c0.3,0.1,0.5,0.3,0.7,0.5c0.2,0.2,0.3,0.5,0.5,0.9c0.1,0.3,0.2,0.7,0.2,1.1v4.5h-1.2v-4.5c0-0.5-0.1-1-0.4-1.2
				c-0.2-0.3-0.6-0.4-1.1-0.4c-0.4,0-0.7,0.1-1,0.3c-0.3,0.2-0.6,0.4-0.9,0.7v5.2H118.8z"/>
			<path class="st9" d="M128.8,270.8c-0.6,0-1-0.2-1.3-0.5c-0.3-0.3-0.5-0.8-0.5-1.4v-4.3h-0.9c-0.1,0-0.1,0-0.2-0.1
				c-0.1,0-0.1-0.1-0.1-0.2v-0.5l1.2-0.1l0.3-2.2c0-0.1,0-0.1,0.1-0.2c0.1,0,0.1-0.1,0.2-0.1h0.6v2.4h2v0.9h-2v4.3
				c0,0.3,0.1,0.5,0.2,0.7s0.3,0.2,0.6,0.2c0.1,0,0.2,0,0.3-0.1c0.1,0,0.2-0.1,0.2-0.1c0.1,0,0.1-0.1,0.2-0.1c0,0,0.1-0.1,0.1-0.1
				c0.1,0,0.1,0,0.2,0.1l0.4,0.6c-0.2,0.2-0.5,0.4-0.8,0.5C129.4,270.7,129.1,270.8,128.8,270.8z"/>
			<path class="st9" d="M134.6,263.4c0.4,0,0.8,0.1,1.2,0.2s0.7,0.3,0.9,0.6c0.3,0.3,0.5,0.6,0.6,1c0.1,0.4,0.2,0.8,0.2,1.3
				c0,0.2,0,0.3-0.1,0.4s-0.1,0.1-0.2,0.1h-4.7c0,0.4,0.1,0.8,0.2,1.2s0.3,0.6,0.5,0.8c0.2,0.2,0.4,0.4,0.7,0.5
				c0.3,0.1,0.6,0.2,0.9,0.2c0.3,0,0.6,0,0.8-0.1c0.2-0.1,0.4-0.2,0.6-0.2s0.3-0.2,0.4-0.2c0.1-0.1,0.2-0.1,0.3-0.1
				c0.1,0,0.2,0,0.2,0.1l0.3,0.5c-0.2,0.2-0.3,0.3-0.6,0.5c-0.2,0.1-0.4,0.3-0.7,0.3s-0.5,0.2-0.8,0.2c-0.3,0-0.5,0.1-0.8,0.1
				c-0.5,0-0.9-0.1-1.4-0.2c-0.4-0.2-0.8-0.4-1.1-0.7c-0.3-0.3-0.5-0.7-0.7-1.2c-0.2-0.5-0.3-1-0.3-1.6c0-0.5,0.1-1,0.2-1.4
				c0.2-0.4,0.4-0.8,0.7-1.1c0.3-0.3,0.6-0.6,1-0.7C133.7,263.5,134.1,263.4,134.6,263.4z M134.7,264.4c-0.6,0-1.1,0.2-1.4,0.5
				c-0.3,0.3-0.6,0.8-0.6,1.4h3.9c0-0.3,0-0.6-0.1-0.8c-0.1-0.2-0.2-0.4-0.3-0.6s-0.3-0.3-0.6-0.4S134.9,264.4,134.7,264.4z
				 M136.7,260.5l-1.6,1.8c-0.1,0.1-0.1,0.1-0.2,0.2c-0.1,0-0.1,0-0.2,0h-0.7l1-1.7c0.1-0.1,0.1-0.2,0.2-0.2s0.2-0.1,0.3-0.1H136.7z
				"/>
			<path class="st9" d="M139.2,270.7v-7.1h0.7c0.2,0,0.3,0.1,0.3,0.3l0.1,0.7c0.3-0.3,0.6-0.6,0.9-0.8c0.3-0.2,0.7-0.3,1.1-0.3
				c0.5,0,0.9,0.1,1.2,0.4c0.3,0.3,0.5,0.6,0.6,1.1c0.1-0.3,0.2-0.5,0.4-0.7s0.3-0.3,0.5-0.5c0.2-0.1,0.4-0.2,0.6-0.3
				s0.5-0.1,0.7-0.1c0.4,0,0.7,0.1,1,0.2c0.3,0.1,0.5,0.3,0.7,0.5c0.2,0.2,0.4,0.5,0.5,0.8c0.1,0.3,0.2,0.7,0.2,1.1v4.5h-1.2v-4.5
				c0-0.6-0.1-1-0.4-1.3c-0.2-0.3-0.6-0.4-1.1-0.4c-0.2,0-0.4,0-0.6,0.1c-0.2,0.1-0.3,0.2-0.5,0.3c-0.1,0.1-0.3,0.3-0.3,0.5
				c-0.1,0.2-0.1,0.5-0.1,0.7v4.5h-1.2v-4.5c0-0.6-0.1-1-0.3-1.3s-0.6-0.4-1-0.4c-0.3,0-0.6,0.1-0.9,0.2c-0.3,0.2-0.5,0.4-0.7,0.7
				v5.3H139.2z"/>
			<path class="st9" d="M153.5,263.4c0.5,0,1,0.1,1.4,0.3c0.4,0.2,0.8,0.4,1.1,0.7c0.3,0.3,0.5,0.7,0.7,1.2s0.2,1,0.2,1.5
				c0,0.6-0.1,1.1-0.2,1.5s-0.4,0.8-0.7,1.1c-0.3,0.3-0.6,0.6-1.1,0.7c-0.4,0.2-0.9,0.3-1.4,0.3c-0.5,0-1-0.1-1.4-0.3
				c-0.4-0.2-0.8-0.4-1.1-0.7s-0.5-0.7-0.7-1.1c-0.2-0.4-0.2-1-0.2-1.5c0-0.6,0.1-1.1,0.2-1.5c0.2-0.5,0.4-0.8,0.7-1.2
				s0.6-0.6,1.1-0.7C152.5,263.5,153,263.4,153.5,263.4z M153.5,269.8c0.7,0,1.2-0.2,1.6-0.7c0.3-0.5,0.5-1.1,0.5-2
				c0-0.8-0.2-1.5-0.5-2c-0.3-0.5-0.9-0.7-1.6-0.7c-0.4,0-0.7,0.1-0.9,0.2s-0.5,0.3-0.7,0.5s-0.3,0.5-0.4,0.8
				c-0.1,0.3-0.1,0.7-0.1,1.1s0,0.8,0.1,1.1c0.1,0.3,0.2,0.6,0.4,0.8c0.2,0.2,0.4,0.4,0.7,0.5C152.9,269.7,153.2,269.8,153.5,269.8z
				"/>
			<path class="st9" d="M163.3,264.8c0,0.1-0.1,0.1-0.1,0.1s-0.1,0-0.2,0c-0.1,0-0.1,0-0.2-0.1c-0.1-0.1-0.2-0.1-0.3-0.2
				c-0.1-0.1-0.3-0.1-0.5-0.2s-0.4-0.1-0.7-0.1c-0.3,0-0.7,0.1-0.9,0.2c-0.3,0.1-0.5,0.3-0.7,0.5s-0.3,0.5-0.4,0.8s-0.1,0.7-0.1,1.1
				c0,0.4,0,0.8,0.1,1.1s0.2,0.6,0.4,0.8c0.2,0.2,0.4,0.4,0.6,0.5c0.3,0.1,0.5,0.2,0.9,0.2c0.3,0,0.6,0,0.7-0.1s0.4-0.2,0.5-0.2
				c0.1-0.1,0.2-0.2,0.3-0.2c0.1-0.1,0.2-0.1,0.3-0.1c0.1,0,0.2,0,0.2,0.1l0.4,0.5c-0.3,0.4-0.7,0.7-1.2,0.8c-0.5,0.2-1,0.3-1.5,0.3
				c-0.4,0-0.9-0.1-1.2-0.2c-0.4-0.2-0.7-0.4-1-0.7c-0.3-0.3-0.5-0.7-0.7-1.1s-0.2-1-0.2-1.5c0-0.5,0.1-1,0.2-1.5
				c0.1-0.4,0.4-0.8,0.6-1.2c0.3-0.3,0.6-0.6,1-0.8c0.4-0.2,0.9-0.3,1.4-0.3c0.5,0,0.9,0.1,1.3,0.2c0.4,0.2,0.7,0.4,1,0.7
				L163.3,264.8z"/>
		</g>
	</g>
</g>
</svg>
