<svg xmlns="http://www.w3.org/2000/svg" viewBox="0 0 247.2 272.74"><defs><style>.cls-1{fill:#e9e9e9;}.cls-2{fill:#cdcdcd;}.cls-3{fill:#6d0e29;}.cls-4{fill:#da1549;}.cls-5{fill:#a21239;}.cls-6,.cls-7{fill:none;stroke:#6d0e29;stroke-miterlimit:10;}.cls-7{stroke-width:0.5px;}.cls-8{font-size:16px;fill:#fff;font-family:Lato-Bold, Lato;}.cls-9{font-weight:700;}.cls-10{letter-spacing:-0.02em;}.cls-11{font-size:14px;fill:#f1f1f1;font-family:Lato-Regular, Lato;}.cls-12{letter-spacing:-0.01em;}</style></defs><title>rancholosarcos32.co</title><g id="Capa_2" data-name="Capa 2"><g id="edificios"><g id="rancho_los_arcos_32_coyoac치n" data-name="rancho los arcos 32, coyoac치n"><polygon class="cls-1" points="237.58 179.23 176.38 195.86 176.98 171.42 238.99 155.87 237.58 179.23"/><polygon class="cls-2" points="176.38 195.86 148.78 176 148.97 152.84 176.98 171.42 176.38 195.86"/><polygon class="cls-1" points="148.78 176 142.1 177.66 142.21 154.39 148.97 152.84 148.78 176"/><polygon class="cls-1" points="141.98 205.2 77.27 222.77 76.36 196.66 142.09 180.17 141.98 205.2"/><polygon class="cls-2" points="77.27 222.77 10.56 155.65 8.99 133.84 76.36 196.66 77.27 222.77"/><polygon class="cls-3" points="78.8 7.89 150.97 0.5 246.7 28.67 180.3 37.77 150.02 26.91 114.14 31.38 142.7 42.92 71.38 52.69 0.5 15.92 60.65 9.75 79.08 17.21 81.76 18.29 88.74 17.52 105.33 15.67 117.81 14.29 105.24 9.82 88.59 11.59 78.8 7.89"/><polygon class="cls-4" points="180.3 37.77 246.7 28.67 245.07 55.59 179.6 66.15 180.3 37.77"/><polygon class="cls-5" points="150.02 26.91 180.3 37.77 179.6 66.15 149.8 53.55 150.02 26.91"/><polygon class="cls-4" points="114.14 31.38 150.02 26.91 149.8 53.55 142.65 54.59 142.7 42.92 114.14 31.38"/><polygon class="cls-4" points="71.38 52.69 142.7 42.92 142.65 54.59 142.57 72.12 72.44 83.42 71.38 52.69"/><polygon class="cls-5" points="0.5 15.92 71.38 52.69 72.44 83.42 2.29 40.76 0.5 15.92"/><polygon class="cls-5" points="105.24 9.82 117.81 14.29 105.33 15.67 105.24 9.82"/><polygon class="cls-4" points="88.59 11.59 105.24 9.82 105.33 15.67 88.74 17.52 88.59 11.59"/><polygon class="cls-5" points="78.8 7.89 88.59 11.59 88.74 17.52 81.76 18.29 79.08 17.21 78.8 7.89"/><polygon class="cls-5" points="5.72 88.51 4.03 64.95 73.47 113.14 74.47 141.89 5.72 88.51"/><polygon class="cls-4" points="74.47 141.89 73.47 113.14 142.44 100.4 142.42 105.9 142.32 127.81 74.47 141.89"/><polygon class="cls-2" points="5.72 88.51 74.47 141.89 75.43 169.71 7.38 111.46 5.72 88.51"/><polygon class="cls-2" points="8.99 133.84 7.38 111.46 75.43 169.71 76.36 196.66 8.99 133.84"/><polygon class="cls-1" points="76.36 196.66 75.43 169.71 142.21 154.39 142.21 154.39 142.1 177.66 142.09 180.17 76.36 196.66"/><polygon class="cls-5" points="2.29 40.76 72.44 83.42 73.47 113.14 4.03 64.95 2.29 40.76"/><polygon class="cls-4" points="73.47 113.14 72.44 83.42 142.57 72.12 142.53 80.77 142.44 100.4 73.47 113.14"/><polygon class="cls-1" points="75.43 169.71 74.47 141.89 142.32 127.81 142.31 130.48 142.21 154.39 75.43 169.71"/><polygon class="cls-4" points="245.07 55.59 243.49 81.74 178.91 93.67 179.6 66.15 245.07 55.59"/><polygon class="cls-1" points="241.95 107.15 240.45 131.85 177.61 146.27 178.25 120.36 241.95 107.15"/><polygon class="cls-4" points="243.49 81.74 241.95 107.15 178.25 120.36 178.91 93.67 243.49 81.74"/><polygon class="cls-1" points="240.45 131.85 238.99 155.87 176.98 171.42 177.61 146.27 240.45 131.85"/><polygon class="cls-5" points="179.6 66.15 178.91 93.67 149.58 79.62 149.8 53.55 179.6 66.15"/><polygon class="cls-2" points="178.25 120.36 177.61 146.27 149.17 129.04 149.37 104.58 178.25 120.36"/><polygon class="cls-5" points="178.91 93.67 178.25 120.36 149.37 104.58 149.58 79.62 178.91 93.67"/><polygon class="cls-2" points="177.61 146.27 176.98 171.42 148.97 152.84 149.17 129.04 177.61 146.27"/><polygon class="cls-4" points="149.8 53.55 149.58 79.62 142.53 80.77 142.57 72.12 142.65 54.59 149.8 53.55"/><polygon class="cls-1" points="149.37 104.58 149.17 129.04 142.31 130.48 142.32 127.81 142.42 105.9 149.37 104.58"/><polygon class="cls-4" points="149.58 79.62 149.37 104.58 142.42 105.9 142.44 100.4 142.53 80.77 149.58 79.62"/><polygon class="cls-1" points="149.17 129.04 148.97 152.84 142.21 154.39 142.21 154.39 142.31 130.48 149.17 129.04"/><line class="cls-6" x1="237.58" y1="179.23" x2="176.38" y2="195.86"/><line class="cls-6" x1="176.38" y1="195.86" x2="148.78" y2="176"/><line class="cls-6" x1="148.78" y1="176" x2="142.1" y2="177.66"/><line class="cls-6" x1="141.98" y1="205.2" x2="77.27" y2="222.77"/><line class="cls-6" x1="77.27" y1="222.77" x2="10.56" y2="155.65"/><line class="cls-6" x1="78.8" y1="7.89" x2="150.97" y2="0.5"/><line class="cls-6" x1="150.97" y1="0.5" x2="246.7" y2="28.67"/><line class="cls-7" x1="246.7" y1="28.67" x2="180.3" y2="37.77"/><line class="cls-7" x1="180.3" y1="37.77" x2="150.02" y2="26.91"/><line class="cls-7" x1="150.02" y1="26.91" x2="114.14" y2="31.38"/><line class="cls-6" x1="114.14" y1="31.38" x2="142.7" y2="42.92"/><line class="cls-7" x1="142.7" y1="42.92" x2="71.38" y2="52.69"/><line class="cls-7" x1="71.38" y1="52.69" x2="0.5" y2="15.92"/><line class="cls-6" x1="0.5" y1="15.92" x2="60.64" y2="9.75"/><line class="cls-7" x1="117.81" y1="14.29" x2="105.24" y2="9.82"/><line class="cls-7" x1="105.24" y1="9.82" x2="88.59" y2="11.59"/><line class="cls-7" x1="88.59" y1="11.59" x2="78.8" y2="7.89"/><line class="cls-6" x1="237.58" y1="179.23" x2="238.99" y2="155.87"/><line class="cls-7" x1="176.38" y1="195.86" x2="176.98" y2="171.42"/><line class="cls-7" x1="148.78" y1="176" x2="148.97" y2="152.84"/><line class="cls-6" x1="141.98" y1="205.2" x2="142.09" y2="180.17"/><line class="cls-7" x1="77.27" y1="222.77" x2="76.36" y2="196.66"/><line class="cls-6" x1="10.56" y1="155.65" x2="8.99" y2="133.84"/><line class="cls-6" x1="5.72" y1="88.51" x2="4.03" y2="64.95"/><line class="cls-7" x1="74.47" y1="141.89" x2="73.47" y2="113.14"/><line class="cls-7" x1="5.72" y1="88.51" x2="74.47" y2="141.89"/><line class="cls-6" x1="8.99" y1="133.84" x2="7.38" y2="111.46"/><line class="cls-7" x1="76.36" y1="196.66" x2="75.43" y2="169.71"/><line class="cls-7" x1="8.99" y1="133.84" x2="76.36" y2="196.66"/><line class="cls-6" x1="2.29" y1="40.76" x2="0.5" y2="15.92"/><line class="cls-7" x1="72.44" y1="83.42" x2="71.38" y2="52.69"/><line class="cls-7" x1="2.29" y1="40.76" x2="72.44" y2="83.42"/><line class="cls-6" x1="4.03" y1="64.95" x2="2.29" y2="40.76"/><line class="cls-7" x1="73.47" y1="113.14" x2="72.44" y2="83.42"/><line class="cls-7" x1="4.03" y1="64.95" x2="73.47" y2="113.14"/><line class="cls-6" x1="7.38" y1="111.46" x2="5.72" y2="88.51"/><line class="cls-7" x1="75.43" y1="169.71" x2="74.47" y2="141.89"/><line class="cls-7" x1="7.38" y1="111.46" x2="75.43" y2="169.71"/><line class="cls-7" x1="105.33" y1="15.67" x2="105.24" y2="9.82"/><line class="cls-7" x1="88.74" y1="17.51" x2="88.59" y2="11.59"/><line class="cls-6" x1="79.08" y1="17.21" x2="78.8" y2="7.89"/><line class="cls-6" x1="245.07" y1="55.59" x2="246.7" y2="28.67"/><line class="cls-6" x1="243.49" y1="81.74" x2="245.07" y2="55.59"/><line class="cls-6" x1="240.45" y1="131.85" x2="241.95" y2="107.15"/><line class="cls-6" x1="241.95" y1="107.15" x2="243.49" y2="81.74"/><line class="cls-6" x1="238.99" y1="155.87" x2="240.45" y2="131.85"/><line class="cls-7" x1="178.91" y1="93.67" x2="179.6" y2="66.15"/><line class="cls-7" x1="243.49" y1="81.74" x2="178.91" y2="93.67"/><line class="cls-7" x1="177.61" y1="146.27" x2="178.25" y2="120.36"/><line class="cls-7" x1="240.45" y1="131.85" x2="177.61" y2="146.27"/><line class="cls-7" x1="178.25" y1="120.36" x2="178.91" y2="93.67"/><line class="cls-7" x1="241.95" y1="107.15" x2="178.25" y2="120.36"/><line class="cls-7" x1="179.6" y1="66.15" x2="180.3" y2="37.77"/><line class="cls-7" x1="245.07" y1="55.59" x2="179.6" y2="66.15"/><line class="cls-7" x1="176.98" y1="171.42" x2="177.61" y2="146.27"/><line class="cls-7" x1="238.99" y1="155.87" x2="176.98" y2="171.42"/><line class="cls-7" x1="142.32" y1="127.81" x2="74.47" y2="141.89"/><line class="cls-7" x1="73.47" y1="113.14" x2="142.44" y2="100.4"/><line class="cls-7" x1="142.57" y1="72.12" x2="72.44" y2="83.42"/><line class="cls-7" x1="75.43" y1="169.71" x2="142.21" y2="154.39"/><line class="cls-7" x1="76.36" y1="196.66" x2="142.09" y2="180.17"/><line class="cls-7" x1="149.58" y1="79.62" x2="149.8" y2="53.55"/><line class="cls-7" x1="178.91" y1="93.67" x2="149.58" y2="79.62"/><line class="cls-7" x1="149.17" y1="129.04" x2="149.37" y2="104.58"/><line class="cls-7" x1="177.61" y1="146.27" x2="149.17" y2="129.04"/><line class="cls-7" x1="149.37" y1="104.58" x2="149.58" y2="79.62"/><line class="cls-7" x1="178.25" y1="120.36" x2="149.37" y2="104.58"/><line class="cls-7" x1="149.8" y1="53.55" x2="150.02" y2="26.91"/><line class="cls-7" x1="179.6" y1="66.15" x2="149.8" y2="53.55"/><line class="cls-7" x1="148.97" y1="152.84" x2="149.17" y2="129.04"/><line class="cls-7" x1="176.98" y1="171.42" x2="148.97" y2="152.84"/><line class="cls-7" x1="142.65" y1="54.6" x2="149.8" y2="53.55"/><line class="cls-7" x1="142.53" y1="80.77" x2="149.58" y2="79.62"/><line class="cls-7" x1="142.42" y1="105.9" x2="149.37" y2="104.58"/><line class="cls-7" x1="142.31" y1="130.48" x2="149.17" y2="129.04"/><line class="cls-7" x1="142.21" y1="154.39" x2="148.97" y2="152.84"/><line class="cls-6" x1="60.64" y1="9.75" x2="79.08" y2="17.21"/><line class="cls-6" x1="79.08" y1="17.21" x2="81.76" y2="18.29"/><line class="cls-6" x1="81.76" y1="18.29" x2="88.74" y2="17.51"/><line class="cls-6" x1="142.32" y1="127.81" x2="142.42" y2="105.9"/><line class="cls-6" x1="142.42" y1="105.9" x2="142.44" y2="100.4"/><line class="cls-6" x1="142.44" y1="100.4" x2="142.53" y2="80.77"/><line class="cls-6" x1="142.53" y1="80.77" x2="142.57" y2="72.12"/><line class="cls-6" x1="142.57" y1="72.12" x2="142.65" y2="54.6"/><line class="cls-6" x1="142.65" y1="54.6" x2="142.7" y2="42.92"/><line class="cls-6" x1="142.21" y1="154.39" x2="142.31" y2="130.48"/><line class="cls-6" x1="142.31" y1="130.48" x2="142.32" y2="127.81"/><line class="cls-6" x1="142.09" y1="180.17" x2="142.1" y2="177.66"/><line class="cls-6" x1="88.74" y1="17.51" x2="105.33" y2="15.67"/><line class="cls-6" x1="105.33" y1="15.67" x2="117.81" y2="14.29"/><line class="cls-6" x1="142.1" y1="177.66" x2="142.21" y2="154.39"/><line class="cls-6" x1="142.21" y1="154.39" x2="142.21" y2="154.39"/></g><text class="cls-8" transform="translate(35.7 253.38)"><tspan class="cls-9">Rancho <tspan class="cls-10" x="56.86" y="0">L</tspan><tspan x="64.83" y="0">os Arcos No. 32</tspan></tspan><tspan class="cls-11"><tspan x="0" y="16.8" xml:space="preserve">Delegaci칩n  C</tspan><tspan class="cls-12" x="83.73" y="16.8">oy</tspan><tspan x="98.32" y="16.8">oac치n</tspan></tspan></text></g></g></svg>