<?xml version="1.0" encoding="utf-8"?>
<!-- Generator: Adobe Illustrator 22.1.0, SVG Export Plug-In . SVG Version: 6.00 Build 0)  -->
<svg version="1.1" id="Capa_1" xmlns="http://www.w3.org/2000/svg" xmlns:xlink="http://www.w3.org/1999/xlink" x="0px" y="0px"
	 viewBox="0 0 410.6 190.1" style="enable-background:new 0 0 410.6 190.1;" xml:space="preserve">
<style type="text/css">
	.st0{fill:none;stroke:#6D0E29;stroke-miterlimit:10;}
	.st1{fill:none;stroke:#6D0E29;stroke-width:0.5;stroke-miterlimit:10;}
	.st2{fill:#DADADA;}
	.st3{fill:#E9E9E9;}
	.st4{fill:#D4D4D4;}
	.st5{fill:#E9E9E9;stroke:#6D0E29;stroke-width:0.5;stroke-miterlimit:10;}
	.st6{fill:#6D0E29;}
	.st7{fill:#DA1549;}
	.st8{fill:#A21239;}
	.st9{enable-background:new    ;}
	.st10{fill:#FFFFFF;}
	.st11{fill:#F1F1F1;}
</style>
<title>ranchotamboreo11.t</title>
<g id="Capa_2_1_">
	<g id="edificios_del">
		<g id="rancho_tamboreo_11_tlalpan">
			<line class="st0" x1="175.5" y1="123" x2="56.1" y2="141"/>
			<line class="st1" x1="56.1" y1="141" x2="54.7" y2="119.4"/>
			<polygon class="st2" points="56.1,141 6.3,96.8 4.9,79.1 54.7,119.4 			"/>
			<polygon class="st3" points="407.1,76.1 384.5,79.2 385.1,63.2 407.9,60.3 			"/>
			<polygon class="st4" points="384.5,79.2 364.9,71.7 365.4,56.3 385.1,63.2 			"/>
			<polygon class="st3" points="364.9,71.7 174.9,97.5 174.4,82.7 174.4,79.8 365.4,56.3 			"/>
			<polygon class="st5" points="175.5,123 56.1,141 54.7,119.4 175,103 			"/>
			<polygon class="st6" points="339.4,0.5 347.9,2.2 410.1,12 387,13.9 366.9,9.2 144,27.7 173.3,41.2 50.3,52.5 0.5,24.8 			"/>
			<polygon class="st7" points="50.3,52.5 173.3,41.2 173.4,43.7 173.9,61.8 173.9,62.1 51.8,75.1 			"/>
			<polygon class="st8" points="0.5,24.8 50.3,52.5 51.8,75.1 2,43.1 			"/>
			<polygon class="st7" points="387,13.9 410.1,12 409.4,28.2 386.4,30.5 			"/>
			<polygon class="st8" points="366.9,9.2 387,13.9 386.4,30.5 366.4,25.1 			"/>
			<polygon class="st7" points="144,27.7 366.9,9.2 366.4,25.1 173.4,43.7 173.3,41.2 			"/>
			<polygon class="st3" points="409.4,28.2 408.6,44.3 385.7,46.9 386.4,30.5 			"/>
			<polygon class="st4" points="386.4,30.5 385.7,46.9 365.9,40.8 366.4,25.1 			"/>
			<polygon class="st3" points="366.4,25.1 365.9,40.8 173.9,61.8 173.4,43.7 			"/>
			<polygon class="st3" points="173.9,61.8 365.9,40.8 365.4,56.3 174.4,79.8 173.9,62.1 			"/>
			<polygon class="st4" points="365.9,40.8 385.7,46.9 385.1,63.2 365.4,56.3 			"/>
			<polygon class="st3" points="385.7,46.9 408.6,44.3 407.9,60.3 385.1,63.2 			"/>
			<polygon class="st3" points="175,103 54.7,119.4 53.3,97.4 174.4,82.7 174.9,97.5 			"/>
			<polygon class="st3" points="174.4,82.7 53.3,97.4 51.8,75.1 173.9,62.1 174.4,79.8 			"/>
			<polygon class="st2" points="51.8,75.1 53.3,97.4 3.4,61.2 2,43.1 			"/>
			<polygon class="st2" points="53.3,97.4 54.7,119.4 4.9,79.1 3.4,61.2 			"/>
			<line class="st0" x1="56.1" y1="141" x2="6.3" y2="96.8"/>
			<line class="st0" x1="407.1" y1="76.1" x2="384.5" y2="79.2"/>
			<line class="st0" x1="384.5" y1="79.2" x2="364.9" y2="71.7"/>
			<line class="st0" x1="364.9" y1="71.7" x2="174.9" y2="97.5"/>
			<line class="st1" x1="173.3" y1="41.2" x2="50.3" y2="52.5"/>
			<line class="st1" x1="50.3" y1="52.5" x2="0.5" y2="24.8"/>
			<line class="st0" x1="339.4" y1="0.5" x2="347.9" y2="2.2"/>
			<line class="st0" x1="347.9" y1="2.2" x2="410.1" y2="12"/>
			<line class="st1" x1="410.1" y1="12" x2="387" y2="13.9"/>
			<line class="st1" x1="387" y1="13.9" x2="366.9" y2="9.2"/>
			<line class="st1" x1="366.9" y1="9.2" x2="144" y2="27.7"/>
			<line class="st0" x1="175.5" y1="123" x2="175" y2="103"/>
			<line class="st0" x1="6.3" y1="96.8" x2="4.9" y2="79.1"/>
			<line class="st0" x1="407.1" y1="76.1" x2="407.9" y2="60.3"/>
			<line class="st1" x1="384.5" y1="79.2" x2="385.1" y2="63.2"/>
			<line class="st1" x1="364.9" y1="71.7" x2="365.4" y2="56.3"/>
			<line class="st1" x1="53.3" y1="97.4" x2="51.8" y2="75.1"/>
			<line class="st1" x1="53.3" y1="97.4" x2="174.4" y2="82.7"/>
			<line class="st1" x1="365.9" y1="40.8" x2="366.4" y2="25.1"/>
			<line class="st1" x1="173.9" y1="61.8" x2="365.9" y2="40.8"/>
			<line class="st1" x1="385.7" y1="46.9" x2="386.4" y2="30.5"/>
			<line class="st1" x1="365.9" y1="40.8" x2="385.7" y2="46.9"/>
			<line class="st0" x1="408.6" y1="44.3" x2="409.4" y2="28.2"/>
			<line class="st1" x1="385.7" y1="46.9" x2="408.6" y2="44.3"/>
			<line class="st1" x1="54.7" y1="119.4" x2="53.3" y2="97.4"/>
			<line class="st1" x1="54.7" y1="119.4" x2="175" y2="103"/>
			<line class="st1" x1="365.4" y1="56.3" x2="365.9" y2="40.8"/>
			<line class="st1" x1="174.4" y1="79.8" x2="365.4" y2="56.3"/>
			<line class="st1" x1="385.1" y1="63.2" x2="385.7" y2="46.9"/>
			<line class="st1" x1="365.4" y1="56.3" x2="385.1" y2="63.2"/>
			<line class="st0" x1="407.9" y1="60.3" x2="408.6" y2="44.3"/>
			<line class="st1" x1="385.1" y1="63.2" x2="407.9" y2="60.3"/>
			<line class="st0" x1="409.4" y1="28.2" x2="410.1" y2="12"/>
			<line class="st1" x1="386.4" y1="30.5" x2="387" y2="13.9"/>
			<line class="st1" x1="409.4" y1="28.2" x2="386.4" y2="30.5"/>
			<line class="st1" x1="51.8" y1="75.1" x2="50.3" y2="52.5"/>
			<line class="st1" x1="173.9" y1="62.1" x2="51.8" y2="75.1"/>
			<line class="st0" x1="2" y1="43.1" x2="0.5" y2="24.8"/>
			<line class="st1" x1="51.8" y1="75.1" x2="2" y2="43.1"/>
			<line class="st0" x1="3.4" y1="61.2" x2="2" y2="43.1"/>
			<line class="st1" x1="53.3" y1="97.4" x2="3.4" y2="61.2"/>
			<line class="st0" x1="4.9" y1="79.1" x2="3.4" y2="61.2"/>
			<line class="st1" x1="54.7" y1="119.4" x2="4.9" y2="79.1"/>
			<line class="st1" x1="366.4" y1="25.1" x2="366.9" y2="9.2"/>
			<line class="st1" x1="173.4" y1="43.7" x2="366.4" y2="25.1"/>
			<line class="st1" x1="366.4" y1="25.1" x2="386.4" y2="30.5"/>
			<line class="st0" x1="0.5" y1="24.8" x2="339.4" y2="0.5"/>
			<line class="st0" x1="144" y1="27.7" x2="173.3" y2="41.2"/>
			<line class="st0" x1="174.4" y1="82.7" x2="174.4" y2="79.8"/>
			<line class="st0" x1="174.4" y1="79.8" x2="173.9" y2="62.1"/>
			<line class="st0" x1="175" y1="103" x2="174.9" y2="97.5"/>
			<line class="st0" x1="174.9" y1="97.5" x2="174.4" y2="82.7"/>
			<line class="st0" x1="173.9" y1="62.1" x2="173.9" y2="61.8"/>
			<line class="st0" x1="173.9" y1="61.8" x2="173.4" y2="43.7"/>
			<line class="st0" x1="173.4" y1="43.7" x2="173.3" y2="41.2"/>
		</g>
		<g class="st9">
			<path class="st10" d="M118.7,166.3v4.5h-2.2v-11.6h3.5c0.8,0,1.5,0.1,2,0.2c0.6,0.2,1,0.4,1.4,0.7c0.4,0.3,0.6,0.6,0.8,1.1
				s0.3,0.9,0.3,1.3c0,0.4-0.1,0.8-0.2,1.1s-0.3,0.7-0.5,0.9c-0.2,0.3-0.5,0.5-0.8,0.7c-0.3,0.2-0.7,0.4-1.1,0.5
				c0.3,0.2,0.5,0.4,0.7,0.7l2.9,4.3h-1.9c-0.2,0-0.3,0-0.5-0.1c-0.1-0.1-0.2-0.2-0.3-0.3l-2.4-3.7c-0.1-0.1-0.2-0.2-0.3-0.3
				s-0.3-0.1-0.5-0.1H118.7z M118.7,164.7h1.3c0.4,0,0.8,0,1.1-0.2s0.5-0.2,0.7-0.4s0.3-0.4,0.4-0.6c0.1-0.2,0.1-0.5,0.1-0.8
				c0-0.6-0.2-1-0.6-1.4c-0.4-0.3-1-0.5-1.8-0.5h-1.4V164.7z"/>
			<path class="st10" d="M133.3,170.8h-0.9c-0.2,0-0.3,0-0.4-0.1c-0.1-0.1-0.2-0.2-0.2-0.3l-0.2-0.6c-0.2,0.2-0.4,0.4-0.6,0.5
				c-0.2,0.1-0.4,0.3-0.6,0.4c-0.2,0.1-0.4,0.2-0.7,0.2c-0.2,0-0.5,0.1-0.8,0.1c-0.3,0-0.7,0-1-0.1c-0.3-0.1-0.5-0.2-0.8-0.4
				c-0.2-0.2-0.4-0.4-0.5-0.7c-0.1-0.3-0.2-0.6-0.2-1c0-0.3,0.1-0.6,0.2-0.9s0.4-0.6,0.8-0.8c0.4-0.2,0.9-0.4,1.5-0.6
				s1.4-0.2,2.3-0.2v-0.5c0-0.6-0.1-1-0.3-1.2c-0.2-0.3-0.6-0.4-1-0.4c-0.3,0-0.6,0-0.8,0.1c-0.2,0.1-0.4,0.2-0.6,0.3
				c-0.2,0.1-0.3,0.2-0.4,0.3c-0.1,0.1-0.3,0.1-0.4,0.1c-0.1,0-0.2,0-0.3-0.1s-0.2-0.2-0.2-0.3l-0.4-0.6c0.9-0.9,2.1-1.3,3.4-1.3
				c0.5,0,0.9,0.1,1.3,0.2s0.7,0.4,1,0.7c0.3,0.3,0.5,0.6,0.6,1c0.1,0.4,0.2,0.8,0.2,1.3V170.8z M129.4,169.6c0.2,0,0.4,0,0.6-0.1
				c0.2,0,0.3-0.1,0.5-0.2c0.2-0.1,0.3-0.2,0.4-0.3c0.1-0.1,0.3-0.2,0.4-0.4v-1.4c-0.6,0-1.1,0-1.4,0.1c-0.4,0.1-0.7,0.2-0.9,0.3
				c-0.2,0.1-0.4,0.2-0.5,0.4s-0.1,0.3-0.1,0.5c0,0.3,0.1,0.6,0.3,0.7C128.8,169.5,129.1,169.6,129.4,169.6z"/>
			<path class="st10" d="M135.2,170.8v-8.2h1.2c0.3,0,0.4,0.1,0.5,0.4l0.1,0.6c0.2-0.2,0.3-0.3,0.5-0.5c0.2-0.1,0.4-0.3,0.6-0.4
				c0.2-0.1,0.4-0.2,0.7-0.2s0.5-0.1,0.8-0.1c0.4,0,0.8,0.1,1.2,0.2c0.3,0.2,0.6,0.4,0.9,0.6s0.4,0.6,0.5,1c0.1,0.4,0.2,0.8,0.2,1.3
				v5.2h-2v-5.2c0-0.5-0.1-0.9-0.3-1.2c-0.2-0.3-0.6-0.4-1-0.4c-0.3,0-0.7,0.1-1,0.2c-0.3,0.2-0.6,0.4-0.8,0.6v5.9H135.2z"/>
			<path class="st10" d="M150.1,164.3c-0.1,0.1-0.1,0.1-0.2,0.2c-0.1,0-0.1,0.1-0.2,0.1c-0.1,0-0.2,0-0.3-0.1
				c-0.1-0.1-0.2-0.1-0.3-0.2s-0.3-0.1-0.5-0.2c-0.2-0.1-0.4-0.1-0.7-0.1c-0.3,0-0.7,0.1-0.9,0.2c-0.3,0.1-0.5,0.3-0.7,0.5
				c-0.2,0.2-0.3,0.5-0.4,0.9c-0.1,0.3-0.1,0.7-0.1,1.1c0,0.4,0,0.8,0.1,1.2c0.1,0.3,0.2,0.6,0.4,0.9c0.2,0.2,0.4,0.4,0.6,0.5
				c0.3,0.1,0.5,0.2,0.8,0.2c0.3,0,0.6,0,0.8-0.1c0.2-0.1,0.4-0.2,0.5-0.3c0.1-0.1,0.2-0.2,0.3-0.3s0.2-0.1,0.3-0.1
				c0.2,0,0.3,0.1,0.4,0.2l0.6,0.7c-0.2,0.3-0.5,0.5-0.7,0.6c-0.3,0.2-0.5,0.3-0.8,0.4c-0.3,0.1-0.6,0.2-0.9,0.2
				c-0.3,0-0.6,0.1-0.9,0.1c-0.5,0-1-0.1-1.4-0.3c-0.4-0.2-0.8-0.5-1.2-0.8c-0.3-0.4-0.6-0.8-0.8-1.3s-0.3-1.1-0.3-1.8
				c0-0.6,0.1-1.2,0.3-1.7c0.2-0.5,0.4-1,0.8-1.3s0.8-0.7,1.2-0.9c0.5-0.2,1.1-0.3,1.7-0.3c0.6,0,1.2,0.1,1.6,0.3
				c0.5,0.2,0.9,0.5,1.2,0.8L150.1,164.3z"/>
			<path class="st10" d="M151.9,170.8v-11.9h2v4.6c0.3-0.3,0.7-0.5,1.1-0.7c0.4-0.2,0.8-0.3,1.4-0.3c0.4,0,0.8,0.1,1.2,0.2
				c0.3,0.2,0.6,0.4,0.9,0.6s0.4,0.6,0.5,1c0.1,0.4,0.2,0.8,0.2,1.3v5.2h-2v-5.2c0-0.5-0.1-0.9-0.3-1.2c-0.2-0.3-0.6-0.4-1-0.4
				c-0.3,0-0.7,0.1-1,0.2c-0.3,0.2-0.6,0.4-0.8,0.6v5.9H151.9z"/>
			<path class="st10" d="M164.5,162.5c0.6,0,1.2,0.1,1.7,0.3s0.9,0.5,1.3,0.8c0.4,0.4,0.6,0.8,0.8,1.3c0.2,0.5,0.3,1.1,0.3,1.8
				c0,0.7-0.1,1.2-0.3,1.8c-0.2,0.5-0.5,1-0.8,1.3c-0.4,0.4-0.8,0.7-1.3,0.8s-1.1,0.3-1.7,0.3s-1.2-0.1-1.7-0.3
				c-0.5-0.2-0.9-0.5-1.3-0.8c-0.4-0.4-0.6-0.8-0.8-1.3c-0.2-0.5-0.3-1.1-0.3-1.8c0-0.6,0.1-1.2,0.3-1.8c0.2-0.5,0.5-1,0.8-1.3
				c0.4-0.4,0.8-0.6,1.3-0.8C163.4,162.6,163.9,162.5,164.5,162.5z M164.5,169.4c0.7,0,1.2-0.2,1.5-0.7c0.3-0.5,0.5-1.1,0.5-2
				c0-0.9-0.2-1.6-0.5-2c-0.3-0.5-0.8-0.7-1.5-0.7c-0.7,0-1.2,0.2-1.5,0.7s-0.5,1.1-0.5,2c0,0.9,0.2,1.5,0.5,2
				C163.3,169.2,163.8,169.4,164.5,169.4z"/>
		</g>
		<g class="st9">
			<path class="st10" d="M181.5,159.2v1.8H178v9.8h-2.2V161h-3.5v-1.8H181.5z"/>
		</g>
		<g class="st9">
			<path class="st10" d="M187.2,170.8h-0.9c-0.2,0-0.3,0-0.4-0.1c-0.1-0.1-0.2-0.2-0.2-0.3l-0.2-0.6c-0.2,0.2-0.4,0.4-0.6,0.5
				c-0.2,0.1-0.4,0.3-0.6,0.4c-0.2,0.1-0.4,0.2-0.7,0.2c-0.2,0-0.5,0.1-0.8,0.1c-0.3,0-0.7,0-1-0.1c-0.3-0.1-0.5-0.2-0.8-0.4
				c-0.2-0.2-0.4-0.4-0.5-0.7c-0.1-0.3-0.2-0.6-0.2-1c0-0.3,0.1-0.6,0.2-0.9s0.4-0.6,0.8-0.8c0.4-0.2,0.9-0.4,1.5-0.6
				s1.4-0.2,2.3-0.2v-0.5c0-0.6-0.1-1-0.3-1.2c-0.2-0.3-0.6-0.4-1-0.4c-0.3,0-0.6,0-0.8,0.1c-0.2,0.1-0.4,0.2-0.6,0.3
				c-0.2,0.1-0.3,0.2-0.4,0.3c-0.1,0.1-0.3,0.1-0.4,0.1c-0.1,0-0.2,0-0.3-0.1s-0.2-0.2-0.2-0.3l-0.4-0.6c0.9-0.9,2.1-1.3,3.4-1.3
				c0.5,0,0.9,0.1,1.3,0.2s0.7,0.4,1,0.7c0.3,0.3,0.5,0.6,0.6,1c0.1,0.4,0.2,0.8,0.2,1.3V170.8z M183.4,169.6c0.2,0,0.4,0,0.6-0.1
				c0.2,0,0.3-0.1,0.5-0.2c0.2-0.1,0.3-0.2,0.4-0.3c0.1-0.1,0.3-0.2,0.4-0.4v-1.4c-0.6,0-1.1,0-1.4,0.1c-0.4,0.1-0.7,0.2-0.9,0.3
				c-0.2,0.1-0.4,0.2-0.5,0.4s-0.1,0.3-0.1,0.5c0,0.3,0.1,0.6,0.3,0.7C182.8,169.5,183,169.6,183.4,169.6z"/>
			<path class="st10" d="M189.2,170.8v-8.2h1.2c0.3,0,0.4,0.1,0.5,0.4l0.1,0.6c0.1-0.2,0.3-0.3,0.5-0.4c0.2-0.1,0.3-0.2,0.5-0.3
				c0.2-0.1,0.4-0.2,0.6-0.2c0.2-0.1,0.4-0.1,0.7-0.1c0.5,0,0.9,0.1,1.3,0.4s0.6,0.7,0.7,1.1c0.1-0.3,0.3-0.5,0.5-0.7
				s0.4-0.4,0.6-0.5c0.2-0.1,0.5-0.2,0.7-0.3c0.3-0.1,0.5-0.1,0.8-0.1c0.5,0,0.9,0.1,1.2,0.2s0.6,0.3,0.9,0.6c0.2,0.3,0.4,0.6,0.5,1
				s0.2,0.8,0.2,1.3v5.2h-2v-5.2c0-0.5-0.1-0.9-0.3-1.2c-0.2-0.3-0.6-0.4-1-0.4c-0.2,0-0.4,0-0.6,0.1s-0.3,0.2-0.5,0.3
				c-0.1,0.1-0.2,0.3-0.3,0.5c-0.1,0.2-0.1,0.4-0.1,0.7v5.2h-2v-5.2c0-0.5-0.1-0.9-0.3-1.2s-0.5-0.4-1-0.4c-0.3,0-0.5,0.1-0.8,0.2
				s-0.5,0.3-0.7,0.6v6H189.2z"/>
			<path class="st10" d="M202.7,170.8v-11.9h2v4.7c0.3-0.3,0.7-0.6,1.1-0.8c0.4-0.2,0.9-0.3,1.4-0.3c0.4,0,0.9,0.1,1.2,0.3
				c0.4,0.2,0.7,0.5,1,0.8c0.3,0.4,0.5,0.8,0.6,1.3c0.1,0.5,0.2,1.1,0.2,1.8c0,0.6-0.1,1.2-0.2,1.7c-0.2,0.5-0.4,1-0.7,1.4
				c-0.3,0.4-0.7,0.7-1.1,0.9s-0.9,0.3-1.5,0.3c-0.3,0-0.5,0-0.7-0.1c-0.2-0.1-0.4-0.1-0.6-0.2c-0.2-0.1-0.3-0.2-0.5-0.3
				c-0.1-0.1-0.3-0.3-0.4-0.4l-0.1,0.6c0,0.1-0.1,0.2-0.2,0.3c-0.1,0.1-0.2,0.1-0.3,0.1H202.7z M206.5,164c-0.4,0-0.8,0.1-1.1,0.3
				c-0.3,0.2-0.6,0.4-0.8,0.7v3.7c0.2,0.3,0.5,0.5,0.7,0.6c0.3,0.1,0.6,0.2,0.9,0.2c0.3,0,0.6-0.1,0.8-0.2c0.2-0.1,0.4-0.3,0.6-0.5
				c0.2-0.2,0.3-0.5,0.4-0.9c0.1-0.3,0.1-0.8,0.1-1.2c0-0.5,0-0.9-0.1-1.2c-0.1-0.3-0.2-0.6-0.3-0.8s-0.3-0.4-0.5-0.5
				C207,164,206.8,164,206.5,164z"/>
			<path class="st10" d="M215.3,162.5c0.6,0,1.2,0.1,1.7,0.3s0.9,0.5,1.3,0.8c0.4,0.4,0.6,0.8,0.8,1.3c0.2,0.5,0.3,1.1,0.3,1.8
				c0,0.7-0.1,1.2-0.3,1.8c-0.2,0.5-0.5,1-0.8,1.3c-0.4,0.4-0.8,0.7-1.3,0.8s-1.1,0.3-1.7,0.3s-1.2-0.1-1.7-0.3
				c-0.5-0.2-0.9-0.5-1.3-0.8c-0.4-0.4-0.6-0.8-0.8-1.3c-0.2-0.5-0.3-1.1-0.3-1.8c0-0.6,0.1-1.2,0.3-1.8s0.5-1,0.8-1.3
				c0.4-0.4,0.8-0.6,1.3-0.8C214.1,162.6,214.6,162.5,215.3,162.5z M215.3,169.4c0.7,0,1.2-0.2,1.5-0.7s0.5-1.1,0.5-2
				c0-0.9-0.2-1.6-0.5-2s-0.8-0.7-1.5-0.7c-0.7,0-1.2,0.2-1.5,0.7s-0.5,1.1-0.5,2c0,0.9,0.2,1.5,0.5,2
				C214.1,169.2,214.6,169.4,215.3,169.4z"/>
			<path class="st10" d="M220.8,170.8v-8.2h1.2c0.2,0,0.3,0,0.4,0.1c0.1,0.1,0.1,0.2,0.2,0.4l0.1,1c0.3-0.5,0.6-0.9,1-1.2
				c0.4-0.3,0.8-0.4,1.3-0.4c0.4,0,0.7,0.1,1,0.3l-0.3,1.5c0,0.1-0.1,0.2-0.1,0.2c-0.1,0-0.1,0.1-0.2,0.1c-0.1,0-0.2,0-0.3-0.1
				c-0.1,0-0.3-0.1-0.6-0.1c-0.4,0-0.8,0.1-1.1,0.3c-0.3,0.2-0.5,0.6-0.7,1v5.1H220.8z"/>
			<path class="st10" d="M230.8,162.5c0.5,0,1,0.1,1.4,0.2c0.4,0.2,0.8,0.4,1.1,0.7c0.3,0.3,0.6,0.7,0.7,1.2c0.2,0.5,0.3,1,0.3,1.6
				c0,0.1,0,0.3,0,0.4s0,0.2-0.1,0.2c0,0.1-0.1,0.1-0.1,0.1c-0.1,0-0.1,0-0.2,0h-5.1c0.1,0.8,0.3,1.5,0.7,1.9s0.9,0.6,1.6,0.6
				c0.3,0,0.6,0,0.8-0.1c0.2-0.1,0.4-0.2,0.6-0.2c0.2-0.1,0.3-0.2,0.5-0.2c0.1-0.1,0.3-0.1,0.4-0.1c0.1,0,0.1,0,0.2,0
				s0.1,0.1,0.2,0.1l0.6,0.7c-0.2,0.3-0.5,0.5-0.7,0.6c-0.3,0.2-0.6,0.3-0.9,0.4c-0.3,0.1-0.6,0.2-0.9,0.2c-0.3,0-0.6,0.1-0.9,0.1
				c-0.6,0-1.1-0.1-1.6-0.3s-0.9-0.5-1.3-0.8c-0.4-0.4-0.6-0.8-0.9-1.4s-0.3-1.2-0.3-1.9c0-0.6,0.1-1.1,0.3-1.6
				c0.2-0.5,0.4-0.9,0.8-1.3c0.3-0.4,0.8-0.7,1.2-0.9C229.6,162.6,230.2,162.5,230.8,162.5z M230.8,163.9c-0.6,0-1,0.2-1.4,0.5
				s-0.5,0.8-0.6,1.4h3.7c0-0.3,0-0.5-0.1-0.7c-0.1-0.2-0.2-0.4-0.3-0.6c-0.1-0.2-0.3-0.3-0.5-0.4
				C231.4,163.9,231.1,163.9,230.8,163.9z"/>
			<path class="st10" d="M239.4,162.5c0.6,0,1.2,0.1,1.7,0.3s0.9,0.5,1.3,0.8c0.4,0.4,0.6,0.8,0.8,1.3c0.2,0.5,0.3,1.1,0.3,1.8
				c0,0.7-0.1,1.2-0.3,1.8c-0.2,0.5-0.5,1-0.8,1.3c-0.4,0.4-0.8,0.7-1.3,0.8s-1.1,0.3-1.7,0.3s-1.2-0.1-1.7-0.3
				c-0.5-0.2-0.9-0.5-1.3-0.8c-0.4-0.4-0.6-0.8-0.8-1.3c-0.2-0.5-0.3-1.1-0.3-1.8c0-0.6,0.1-1.2,0.3-1.8s0.5-1,0.8-1.3
				c0.4-0.4,0.8-0.6,1.3-0.8C238.3,162.6,238.8,162.5,239.4,162.5z M239.4,169.4c0.7,0,1.2-0.2,1.5-0.7s0.5-1.1,0.5-2
				c0-0.9-0.2-1.6-0.5-2s-0.8-0.7-1.5-0.7c-0.7,0-1.2,0.2-1.5,0.7s-0.5,1.1-0.5,2c0,0.9,0.2,1.5,0.5,2
				C238.2,169.2,238.7,169.4,239.4,169.4z"/>
			<path class="st10" d="M249.6,159.2c0.1,0,0.1,0,0.2,0c0.1,0,0.1,0.1,0.1,0.1c0,0,0.1,0.1,0.2,0.2l6.1,7.7c0-0.2,0-0.4,0-0.5
				s0-0.3,0-0.5v-7h1.9v11.6h-1.1c-0.2,0-0.3,0-0.4-0.1c-0.1-0.1-0.2-0.1-0.3-0.3l-6-7.7c0,0.2,0,0.3,0,0.5s0,0.3,0,0.5v7.1h-1.9
				v-11.6h1.1C249.5,159.2,249.5,159.2,249.6,159.2z"/>
			<path class="st10" d="M263.7,162.5c0.6,0,1.2,0.1,1.7,0.3c0.5,0.2,0.9,0.5,1.3,0.8c0.4,0.4,0.6,0.8,0.8,1.3
				c0.2,0.5,0.3,1.1,0.3,1.8c0,0.7-0.1,1.2-0.3,1.8c-0.2,0.5-0.5,1-0.8,1.3c-0.4,0.4-0.8,0.7-1.3,0.8c-0.5,0.2-1.1,0.3-1.7,0.3
				s-1.2-0.1-1.7-0.3c-0.5-0.2-0.9-0.5-1.3-0.8c-0.4-0.4-0.6-0.8-0.8-1.3c-0.2-0.5-0.3-1.1-0.3-1.8c0-0.6,0.1-1.2,0.3-1.8
				c0.2-0.5,0.5-1,0.8-1.3c0.4-0.4,0.8-0.6,1.3-0.8C262.6,162.6,263.1,162.5,263.7,162.5z M263.7,169.4c0.7,0,1.2-0.2,1.5-0.7
				c0.3-0.5,0.5-1.1,0.5-2c0-0.9-0.2-1.6-0.5-2c-0.3-0.5-0.8-0.7-1.5-0.7c-0.7,0-1.2,0.2-1.5,0.7c-0.3,0.5-0.5,1.1-0.5,2
				c0,0.9,0.2,1.5,0.5,2C262.5,169.2,263,169.4,263.7,169.4z"/>
			<path class="st10" d="M268.8,169.7c0-0.2,0-0.3,0.1-0.5c0.1-0.1,0.1-0.3,0.3-0.4c0.1-0.1,0.2-0.2,0.4-0.3
				c0.1-0.1,0.3-0.1,0.5-0.1c0.2,0,0.3,0,0.5,0.1c0.1,0.1,0.3,0.1,0.4,0.3c0.1,0.1,0.2,0.2,0.3,0.4c0.1,0.1,0.1,0.3,0.1,0.5
				c0,0.2,0,0.3-0.1,0.5c-0.1,0.1-0.2,0.3-0.3,0.4c-0.1,0.1-0.2,0.2-0.4,0.3c-0.1,0.1-0.3,0.1-0.5,0.1c-0.2,0-0.3,0-0.5-0.1
				c-0.1-0.1-0.3-0.1-0.4-0.3c-0.1-0.1-0.2-0.2-0.3-0.4C268.9,170,268.8,169.9,268.8,169.7z"/>
			<path class="st10" d="M277.1,169.3h2.3v-6.7c0-0.3,0-0.5,0-0.8l-1.7,1.4c-0.1,0.1-0.1,0.1-0.2,0.1c-0.1,0-0.1,0-0.2,0
				c-0.1,0-0.2,0-0.3-0.1c-0.1,0-0.2-0.1-0.2-0.2l-0.6-0.9l3.5-3h1.6v10.1h2.1v1.5h-6.4V169.3z"/>
			<path class="st10" d="M286.4,169.3h2.3v-6.7c0-0.3,0-0.5,0-0.8l-1.7,1.4c-0.1,0.1-0.1,0.1-0.2,0.1c-0.1,0-0.1,0-0.2,0
				c-0.1,0-0.2,0-0.3-0.1c-0.1,0-0.2-0.1-0.2-0.2l-0.6-0.9l3.5-3h1.6v10.1h2.1v1.5h-6.4V169.3z"/>
		</g>
		<g class="st9">
			<path class="st11" d="M125.2,182.6c0,0.8-0.1,1.4-0.4,2.1c-0.2,0.6-0.6,1.1-1,1.6s-1,0.8-1.6,1c-0.6,0.2-1.3,0.4-2,0.4h-3.8v-10
				h3.8c0.7,0,1.4,0.1,2,0.4c0.6,0.2,1.1,0.6,1.6,1s0.8,1,1,1.6C125.1,181.1,125.2,181.8,125.2,182.6z M123.8,182.6
				c0-0.6-0.1-1.2-0.3-1.7s-0.4-0.9-0.7-1.2c-0.3-0.3-0.7-0.6-1.1-0.8c-0.4-0.2-0.9-0.3-1.5-0.3h-2.4v7.8h2.4c0.5,0,1-0.1,1.5-0.3
				c0.4-0.2,0.8-0.4,1.1-0.8c0.3-0.3,0.5-0.7,0.7-1.2S123.8,183.2,123.8,182.6z"/>
			<path class="st11" d="M129.7,180.4c0.4,0,0.8,0.1,1.2,0.2s0.7,0.3,0.9,0.6c0.3,0.3,0.5,0.6,0.6,1c0.1,0.4,0.2,0.8,0.2,1.3
				c0,0.2,0,0.3-0.1,0.4s-0.1,0.1-0.2,0.1h-4.7c0,0.4,0.1,0.8,0.2,1.2c0.1,0.3,0.3,0.6,0.5,0.8c0.2,0.2,0.4,0.4,0.7,0.5
				c0.3,0.1,0.6,0.2,0.9,0.2c0.3,0,0.6,0,0.8-0.1c0.2-0.1,0.4-0.2,0.6-0.2c0.2-0.1,0.3-0.2,0.4-0.2c0.1-0.1,0.2-0.1,0.3-0.1
				c0.1,0,0.2,0,0.2,0.1l0.4,0.5c-0.2,0.2-0.3,0.3-0.6,0.5c-0.2,0.1-0.4,0.3-0.7,0.3s-0.5,0.2-0.8,0.2c-0.3,0-0.5,0.1-0.8,0.1
				c-0.5,0-0.9-0.1-1.4-0.2c-0.4-0.2-0.8-0.4-1.1-0.7c-0.3-0.3-0.5-0.7-0.7-1.2c-0.2-0.5-0.3-1-0.3-1.6c0-0.5,0.1-1,0.2-1.4
				c0.2-0.4,0.4-0.8,0.7-1.1c0.3-0.3,0.6-0.6,1-0.7S129.2,180.4,129.7,180.4z M129.7,181.3c-0.6,0-1.1,0.2-1.4,0.5s-0.6,0.8-0.6,1.4
				h3.9c0-0.3,0-0.6-0.1-0.8c-0.1-0.2-0.2-0.4-0.3-0.6c-0.2-0.2-0.3-0.3-0.6-0.4C130.2,181.4,130,181.3,129.7,181.3z"/>
			<path class="st11" d="M135.6,177.3v10.3h-1.2v-10.3H135.6z"/>
			<path class="st11" d="M140.6,180.4c0.4,0,0.8,0.1,1.2,0.2s0.7,0.3,0.9,0.6c0.3,0.3,0.5,0.6,0.6,1c0.1,0.4,0.2,0.8,0.2,1.3
				c0,0.2,0,0.3-0.1,0.4s-0.1,0.1-0.2,0.1h-4.7c0,0.4,0.1,0.8,0.2,1.2c0.1,0.3,0.3,0.6,0.5,0.8c0.2,0.2,0.4,0.4,0.7,0.5
				c0.3,0.1,0.6,0.2,0.9,0.2c0.3,0,0.6,0,0.8-0.1c0.2-0.1,0.4-0.2,0.6-0.2c0.2-0.1,0.3-0.2,0.4-0.2c0.1-0.1,0.2-0.1,0.3-0.1
				c0.1,0,0.2,0,0.2,0.1l0.4,0.5c-0.2,0.2-0.3,0.3-0.6,0.5c-0.2,0.1-0.4,0.3-0.7,0.3s-0.5,0.2-0.8,0.2c-0.3,0-0.5,0.1-0.8,0.1
				c-0.5,0-0.9-0.1-1.4-0.2c-0.4-0.2-0.8-0.4-1.1-0.7c-0.3-0.3-0.5-0.7-0.7-1.2c-0.2-0.5-0.3-1-0.3-1.6c0-0.5,0.1-1,0.2-1.4
				c0.2-0.4,0.4-0.8,0.7-1.1c0.3-0.3,0.6-0.6,1-0.7S140.1,180.4,140.6,180.4z M140.6,181.3c-0.6,0-1.1,0.2-1.4,0.5s-0.6,0.8-0.6,1.4
				h3.9c0-0.3,0-0.6-0.1-0.8c-0.1-0.2-0.2-0.4-0.3-0.6c-0.2-0.2-0.3-0.3-0.6-0.4C141.2,181.4,140.9,181.3,140.6,181.3z"/>
			<path class="st11" d="M147.5,180.4c0.3,0,0.6,0,0.9,0.1s0.5,0.2,0.7,0.3h1.9v0.5c0,0.2-0.1,0.3-0.3,0.3l-0.8,0.1
				c0.2,0.3,0.2,0.6,0.2,1c0,0.3-0.1,0.7-0.2,0.9c-0.1,0.3-0.3,0.5-0.6,0.7c-0.2,0.2-0.5,0.4-0.8,0.5c-0.3,0.1-0.7,0.2-1.1,0.2
				c-0.3,0-0.6,0-0.9-0.1c-0.1,0.1-0.3,0.2-0.3,0.3c-0.1,0.1-0.1,0.2-0.1,0.3c0,0.2,0.1,0.3,0.2,0.4c0.1,0.1,0.3,0.2,0.5,0.2
				c0.2,0,0.5,0.1,0.8,0.1s0.6,0,0.9,0s0.6,0,0.9,0.1c0.3,0.1,0.5,0.1,0.8,0.3c0.2,0.1,0.4,0.3,0.5,0.5c0.1,0.2,0.2,0.5,0.2,0.8
				c0,0.3-0.1,0.6-0.2,0.9c-0.2,0.3-0.4,0.5-0.7,0.8c-0.3,0.2-0.6,0.4-1,0.5c-0.4,0.1-0.9,0.2-1.4,0.2s-1-0.1-1.4-0.2
				c-0.4-0.1-0.7-0.2-1-0.4c-0.3-0.2-0.4-0.4-0.6-0.6s-0.2-0.5-0.2-0.7c0-0.4,0.1-0.6,0.3-0.9s0.5-0.4,0.9-0.6
				c-0.2-0.1-0.4-0.2-0.5-0.4c-0.1-0.2-0.2-0.4-0.2-0.6c0-0.1,0-0.2,0.1-0.3c0-0.1,0.1-0.2,0.2-0.3c0.1-0.1,0.2-0.2,0.3-0.3
				c0.1-0.1,0.2-0.2,0.4-0.3c-0.3-0.2-0.6-0.5-0.8-0.8c-0.2-0.3-0.3-0.7-0.3-1.1c0-0.3,0.1-0.7,0.2-0.9c0.1-0.3,0.3-0.5,0.6-0.7
				c0.2-0.2,0.5-0.4,0.9-0.5S147.1,180.4,147.5,180.4z M149.7,187.9c0-0.2,0-0.3-0.1-0.4c-0.1-0.1-0.2-0.2-0.4-0.3s-0.4-0.1-0.6-0.1
				c-0.2,0-0.5,0-0.7,0s-0.5,0-0.7,0s-0.5,0-0.7-0.1c-0.3,0.1-0.5,0.3-0.6,0.5c-0.2,0.2-0.2,0.4-0.2,0.7c0,0.2,0,0.3,0.1,0.4
				c0.1,0.1,0.2,0.3,0.4,0.4c0.2,0.1,0.4,0.2,0.6,0.2c0.3,0.1,0.6,0.1,0.9,0.1c0.3,0,0.6,0,0.9-0.1c0.3-0.1,0.5-0.2,0.7-0.3
				c0.2-0.1,0.3-0.2,0.4-0.4C149.7,188.3,149.7,188.1,149.7,187.9z M147.5,184.1c0.3,0,0.5,0,0.7-0.1c0.2-0.1,0.4-0.2,0.5-0.3
				s0.2-0.3,0.3-0.5s0.1-0.4,0.1-0.6c0-0.4-0.1-0.8-0.4-1s-0.6-0.4-1.2-0.4c-0.5,0-0.9,0.1-1.1,0.4s-0.4,0.6-0.4,1
				c0,0.2,0,0.4,0.1,0.6c0.1,0.2,0.2,0.3,0.3,0.5c0.1,0.1,0.3,0.2,0.5,0.3C147,184.1,147.3,184.1,147.5,184.1z"/>
			<path class="st11" d="M157.5,187.6h-0.6c-0.1,0-0.2,0-0.3-0.1c-0.1,0-0.1-0.1-0.1-0.2l-0.1-0.7c-0.2,0.2-0.4,0.3-0.5,0.5
				c-0.2,0.1-0.4,0.2-0.6,0.3c-0.2,0.1-0.4,0.2-0.6,0.2s-0.5,0.1-0.7,0.1c-0.3,0-0.5,0-0.8-0.1s-0.4-0.2-0.6-0.3
				c-0.2-0.2-0.3-0.3-0.4-0.6c-0.1-0.2-0.2-0.5-0.2-0.8c0-0.3,0.1-0.6,0.2-0.8s0.4-0.5,0.7-0.7c0.3-0.2,0.8-0.4,1.3-0.5
				c0.6-0.1,1.2-0.2,2-0.2v-0.6c0-0.6-0.1-1-0.4-1.3c-0.2-0.3-0.6-0.4-1-0.4c-0.3,0-0.6,0-0.8,0.1s-0.4,0.2-0.5,0.3
				c-0.2,0.1-0.3,0.2-0.4,0.3c-0.1,0.1-0.2,0.1-0.3,0.1c-0.1,0-0.2,0-0.2-0.1s-0.1-0.1-0.2-0.2l-0.2-0.4c0.4-0.4,0.8-0.7,1.3-0.8
				c0.5-0.2,1-0.3,1.5-0.3c0.4,0,0.7,0.1,1.1,0.2c0.3,0.1,0.6,0.3,0.8,0.5c0.2,0.2,0.4,0.5,0.5,0.8s0.2,0.7,0.2,1.1V187.6z
				 M154.2,186.8c0.2,0,0.4,0,0.6-0.1c0.2,0,0.4-0.1,0.5-0.2c0.2-0.1,0.3-0.2,0.5-0.3c0.1-0.1,0.3-0.2,0.4-0.4v-1.5
				c-0.6,0-1.1,0-1.5,0.1c-0.4,0.1-0.7,0.2-1,0.3c-0.3,0.1-0.4,0.3-0.5,0.4c-0.1,0.2-0.2,0.3-0.2,0.5c0,0.2,0,0.3,0.1,0.5
				c0.1,0.1,0.1,0.2,0.2,0.3c0.1,0.1,0.2,0.2,0.4,0.2C153.9,186.8,154.1,186.8,154.2,186.8z"/>
			<path class="st11" d="M164.2,181.8c0,0.1-0.1,0.1-0.1,0.1c0,0-0.1,0-0.2,0s-0.1,0-0.2-0.1c-0.1-0.1-0.2-0.1-0.3-0.2
				c-0.1-0.1-0.3-0.1-0.5-0.2s-0.4-0.1-0.7-0.1c-0.3,0-0.7,0.1-0.9,0.2c-0.3,0.1-0.5,0.3-0.7,0.5s-0.3,0.5-0.4,0.8s-0.1,0.7-0.1,1.1
				c0,0.4,0,0.8,0.1,1.1c0.1,0.3,0.2,0.6,0.4,0.8s0.4,0.4,0.6,0.5c0.3,0.1,0.5,0.2,0.9,0.2c0.3,0,0.6,0,0.7-0.1
				c0.2-0.1,0.4-0.2,0.5-0.2c0.1-0.1,0.2-0.2,0.3-0.2c0.1-0.1,0.2-0.1,0.3-0.1c0.1,0,0.2,0,0.2,0.1l0.4,0.5
				c-0.3,0.4-0.7,0.7-1.2,0.8c-0.5,0.2-0.9,0.3-1.5,0.3c-0.4,0-0.9-0.1-1.2-0.2c-0.4-0.2-0.7-0.4-1-0.7c-0.3-0.3-0.5-0.7-0.7-1.1
				c-0.2-0.5-0.2-1-0.2-1.5c0-0.5,0.1-1,0.2-1.5c0.1-0.4,0.4-0.8,0.6-1.2c0.3-0.3,0.6-0.6,1-0.8c0.4-0.2,0.9-0.3,1.4-0.3
				c0.5,0,0.9,0.1,1.3,0.2c0.4,0.2,0.7,0.4,1,0.7L164.2,181.8z"/>
			<path class="st11" d="M167.6,178.3c0,0.1,0,0.2-0.1,0.3c0,0.1-0.1,0.2-0.2,0.3c-0.1,0.1-0.2,0.1-0.3,0.2c-0.1,0-0.2,0.1-0.3,0.1
				c-0.1,0-0.2,0-0.3-0.1s-0.2-0.1-0.3-0.2c-0.1-0.1-0.1-0.2-0.2-0.3c0-0.1-0.1-0.2-0.1-0.3c0-0.1,0-0.2,0.1-0.3
				c0-0.1,0.1-0.2,0.2-0.3c0.1-0.1,0.2-0.1,0.3-0.2c0.1,0,0.2-0.1,0.3-0.1c0.1,0,0.2,0,0.3,0.1c0.1,0,0.2,0.1,0.3,0.2
				c0.1,0.1,0.1,0.2,0.2,0.3C167.6,178,167.6,178.2,167.6,178.3z M167.3,180.5v7.1H166v-7.1H167.3z"/>
			<path class="st11" d="M172.4,180.4c0.5,0,1,0.1,1.4,0.3c0.4,0.2,0.8,0.4,1.1,0.7s0.5,0.7,0.7,1.2c0.2,0.5,0.2,1,0.2,1.5
				c0,0.6-0.1,1.1-0.2,1.5c-0.2,0.4-0.4,0.8-0.7,1.1s-0.6,0.6-1.1,0.7c-0.4,0.2-0.9,0.3-1.4,0.3s-1-0.1-1.4-0.3
				c-0.4-0.2-0.8-0.4-1.1-0.7s-0.5-0.7-0.7-1.1c-0.2-0.4-0.2-1-0.2-1.5c0-0.6,0.1-1.1,0.2-1.5c0.2-0.5,0.4-0.8,0.7-1.2
				s0.6-0.6,1.1-0.7C171.4,180.5,171.8,180.4,172.4,180.4z M172.4,186.7c0.7,0,1.2-0.2,1.6-0.7c0.3-0.5,0.5-1.1,0.5-2
				c0-0.8-0.2-1.5-0.5-2c-0.3-0.5-0.9-0.7-1.6-0.7c-0.4,0-0.7,0.1-0.9,0.2c-0.3,0.1-0.5,0.3-0.7,0.5s-0.3,0.5-0.4,0.8
				c-0.1,0.3-0.1,0.7-0.1,1.1s0,0.8,0.1,1.1s0.2,0.6,0.4,0.8c0.2,0.2,0.4,0.4,0.7,0.5C171.7,186.7,172,186.7,172.4,186.7z
				 M174.4,177.4l-1.6,1.8c-0.1,0.1-0.1,0.1-0.2,0.2s-0.1,0-0.2,0h-0.7l1-1.7c0.1-0.1,0.1-0.2,0.2-0.2s0.2-0.1,0.3-0.1H174.4z"/>
			<path class="st11" d="M177.3,187.6v-7.1h0.7c0.2,0,0.3,0.1,0.3,0.3l0.1,0.8c0.3-0.3,0.7-0.6,1-0.8s0.8-0.3,1.3-0.3
				c0.4,0,0.7,0.1,1,0.2c0.3,0.1,0.5,0.3,0.7,0.5c0.2,0.2,0.3,0.5,0.5,0.9c0.1,0.3,0.2,0.7,0.2,1.1v4.5h-1.2v-4.5
				c0-0.5-0.1-1-0.4-1.2c-0.2-0.3-0.6-0.4-1.1-0.4c-0.4,0-0.7,0.1-1,0.3c-0.3,0.2-0.6,0.4-0.9,0.7v5.2H177.3z"/>
			<path class="st11" d="M197.5,177.6v1.1h-3.2v8.9h-1.4v-8.9h-3.3v-1.1H197.5z"/>
			<path class="st11" d="M200.1,177.3v10.3h-1.2v-10.3H200.1z"/>
			<path class="st11" d="M207.5,187.6H207c-0.1,0-0.2,0-0.3-0.1c-0.1,0-0.1-0.1-0.1-0.2l-0.1-0.7c-0.2,0.2-0.4,0.3-0.5,0.5
				c-0.2,0.1-0.4,0.2-0.6,0.3c-0.2,0.1-0.4,0.2-0.6,0.2s-0.5,0.1-0.7,0.1c-0.3,0-0.5,0-0.8-0.1s-0.4-0.2-0.6-0.3
				c-0.2-0.2-0.3-0.3-0.4-0.6c-0.1-0.2-0.2-0.5-0.2-0.8c0-0.3,0.1-0.6,0.2-0.8s0.4-0.5,0.7-0.7c0.3-0.2,0.8-0.4,1.3-0.5
				c0.6-0.1,1.2-0.2,2-0.2v-0.6c0-0.6-0.1-1-0.4-1.3c-0.2-0.3-0.6-0.4-1-0.4c-0.3,0-0.6,0-0.8,0.1s-0.4,0.2-0.5,0.3
				c-0.2,0.1-0.3,0.2-0.4,0.3c-0.1,0.1-0.2,0.1-0.3,0.1c-0.1,0-0.2,0-0.2-0.1s-0.1-0.1-0.2-0.2l-0.2-0.4c0.4-0.4,0.8-0.7,1.3-0.8
				c0.5-0.2,1-0.3,1.5-0.3c0.4,0,0.7,0.1,1.1,0.2c0.3,0.1,0.6,0.3,0.8,0.5s0.4,0.5,0.5,0.8s0.2,0.7,0.2,1.1V187.6z M204.3,186.8
				c0.2,0,0.4,0,0.6-0.1c0.2,0,0.4-0.1,0.5-0.2c0.2-0.1,0.3-0.2,0.5-0.3c0.1-0.1,0.3-0.2,0.4-0.4v-1.5c-0.6,0-1.1,0-1.5,0.1
				c-0.4,0.1-0.7,0.2-1,0.3c-0.3,0.1-0.4,0.3-0.5,0.4c-0.1,0.2-0.2,0.3-0.2,0.5c0,0.2,0,0.3,0.1,0.5c0.1,0.1,0.1,0.2,0.2,0.3
				c0.1,0.1,0.2,0.2,0.4,0.2C204,186.8,204.1,186.8,204.3,186.8z"/>
			<path class="st11" d="M210.8,177.3v10.3h-1.2v-10.3H210.8z"/>
			<path class="st11" d="M213,190v-9.5h0.7c0.2,0,0.3,0.1,0.3,0.3l0.1,0.8c0.3-0.4,0.6-0.7,1-0.9c0.4-0.2,0.8-0.3,1.3-0.3
				c0.4,0,0.8,0.1,1.1,0.2c0.3,0.2,0.6,0.4,0.8,0.7s0.4,0.7,0.5,1.1c0.1,0.5,0.2,1,0.2,1.6c0,0.5-0.1,1-0.2,1.5
				c-0.1,0.5-0.3,0.8-0.6,1.2c-0.3,0.3-0.6,0.6-1,0.8c-0.4,0.2-0.8,0.3-1.3,0.3c-0.4,0-0.8-0.1-1.1-0.2c-0.3-0.1-0.6-0.3-0.8-0.6
				v3.1H213z M216.1,181.4c-0.4,0-0.8,0.1-1.1,0.3s-0.6,0.5-0.8,0.8v3.4c0.2,0.3,0.5,0.5,0.8,0.7c0.3,0.1,0.6,0.2,0.9,0.2
				c0.7,0,1.2-0.2,1.5-0.7c0.4-0.5,0.5-1.1,0.5-2c0-0.5,0-0.9-0.1-1.2c-0.1-0.3-0.2-0.6-0.4-0.8c-0.2-0.2-0.3-0.4-0.6-0.5
				C216.7,181.4,216.4,181.4,216.1,181.4z"/>
			<path class="st11" d="M225.9,187.6h-0.6c-0.1,0-0.2,0-0.3-0.1c-0.1,0-0.1-0.1-0.1-0.2l-0.1-0.7c-0.2,0.2-0.4,0.3-0.5,0.5
				c-0.2,0.1-0.4,0.2-0.6,0.3c-0.2,0.1-0.4,0.2-0.6,0.2s-0.5,0.1-0.7,0.1c-0.3,0-0.5,0-0.8-0.1s-0.4-0.2-0.6-0.3
				c-0.2-0.2-0.3-0.3-0.4-0.6c-0.1-0.2-0.2-0.5-0.2-0.8c0-0.3,0.1-0.6,0.2-0.8c0.2-0.3,0.4-0.5,0.7-0.7c0.3-0.2,0.8-0.4,1.3-0.5
				c0.6-0.1,1.2-0.2,2-0.2v-0.6c0-0.6-0.1-1-0.4-1.3c-0.2-0.3-0.6-0.4-1-0.4c-0.3,0-0.6,0-0.8,0.1c-0.2,0.1-0.4,0.2-0.5,0.3
				c-0.2,0.1-0.3,0.2-0.4,0.3c-0.1,0.1-0.2,0.1-0.3,0.1c-0.1,0-0.2,0-0.2-0.1c-0.1,0-0.1-0.1-0.2-0.2l-0.2-0.4
				c0.4-0.4,0.8-0.7,1.3-0.8c0.5-0.2,1-0.3,1.5-0.3c0.4,0,0.7,0.1,1.1,0.2c0.3,0.1,0.6,0.3,0.8,0.5c0.2,0.2,0.4,0.5,0.5,0.8
				s0.2,0.7,0.2,1.1V187.6z M222.7,186.8c0.2,0,0.4,0,0.6-0.1c0.2,0,0.4-0.1,0.5-0.2c0.2-0.1,0.3-0.2,0.5-0.3
				c0.1-0.1,0.3-0.2,0.4-0.4v-1.5c-0.6,0-1.1,0-1.5,0.1c-0.4,0.1-0.7,0.2-1,0.3c-0.3,0.1-0.4,0.3-0.5,0.4c-0.1,0.2-0.2,0.3-0.2,0.5
				c0,0.2,0,0.3,0.1,0.5c0.1,0.1,0.1,0.2,0.2,0.3c0.1,0.1,0.2,0.2,0.4,0.2C222.4,186.8,222.5,186.8,222.7,186.8z"/>
			<path class="st11" d="M227.8,187.6v-7.1h0.7c0.2,0,0.3,0.1,0.3,0.3l0.1,0.8c0.3-0.3,0.7-0.6,1-0.8c0.4-0.2,0.8-0.3,1.3-0.3
				c0.4,0,0.7,0.1,1,0.2c0.3,0.1,0.5,0.3,0.7,0.5c0.2,0.2,0.3,0.5,0.5,0.9c0.1,0.3,0.2,0.7,0.2,1.1v4.5h-1.2v-4.5
				c0-0.5-0.1-1-0.4-1.2c-0.2-0.3-0.6-0.4-1.1-0.4c-0.4,0-0.7,0.1-1,0.3c-0.3,0.2-0.6,0.4-0.9,0.7v5.2H227.8z"/>
		</g>
	</g>
</g>
</svg>
