<svg xmlns="http://www.w3.org/2000/svg" viewBox="0 0 309.12 257.63"><defs><style>.cls-1{fill:#e9e9e9;}.cls-2{fill:#c3c3c3;}.cls-3{fill:#6d0e29;}.cls-4{fill:#da1549;}.cls-5{fill:#a21239;}.cls-6,.cls-7{fill:none;stroke:#6d0e29;stroke-miterlimit:10;}.cls-7{stroke-width:0.5px;}.cls-8{font-size:16px;fill:#fff;font-family:Lato-Bold, Lato;}.cls-9{font-weight:700;}.cls-10{font-size:14px;fill:#f1f1f1;font-family:Lato-Regular, Lato;}</style></defs><title>enriquerebsamen241.bj</title><g id="Capa_2" data-name="Capa 2"><g id="edificios"><g id="enrique_rebsamen_241_benito_juárez" data-name="enrique rebsamen 241, benito juárez"><polygon class="cls-1" points="295.9 108.04 258.71 128.65 260.7 108.82 298.28 90.17 295.9 108.04"/><polygon class="cls-2" points="258.71 128.65 251.34 126.07 252.61 112.39 253.16 106.48 260.7 108.82 258.71 128.65"/><polygon class="cls-1" points="250.73 132.59 233.3 141.17 234.93 120.18 252.61 112.39 251.34 126.07 250.73 132.59"/><polygon class="cls-2" points="233.3 141.17 216.77 134.66 217.07 129.74 218.02 114.27 234.93 120.18 233.3 141.17"/><polygon class="cls-1" points="215.72 151.67 171.27 177.27 171.74 153.12 217.07 129.74 216.77 134.66 215.72 151.67"/><polygon class="cls-2" points="171.27 177.27 160.13 171.3 160.32 147.66 171.74 153.12 171.27 177.27"/><polygon class="cls-1" points="160.13 171.3 157.78 172.43 157.86 159.4 157.92 148.69 160.32 147.66 160.13 171.3"/><polygon class="cls-1" points="157.71 184.12 113.13 206.62 112.09 180.09 157.86 159.4 157.78 172.43 157.71 184.12"/><polygon class="cls-1" points="113.13 206.62 15.35 142.06 12.62 121 112.09 180.09 113.13 206.62"/><path class="cls-3" d="M251.38,16.17l10.36-1.89-68.95-8.8L182.15,6.9l10.54,1.41ZM.5,27.54,50.64,20.7l9,2.12,4.31-.57,8.89-1.17-9.13-2,37.5-4.74L113,16.5l8.18-1.09,12.48,2.22,5.94,1.06,4.1-.6,7.91-1.15-7.92-1.34,14.34-2L133.54,9.73l8.06-1,7.86,1.2L155,9.2l7.91-1L155,7,201.26.5,308.62,12.38,269.49,21.5l-13.23-1.84-8.64,1.67L256,22.55l4.94.72-18.79,3.88-40-6.34-23.88,4.1,23.55,3.69,21.3,3.34L173.85,43.86,161.21,41,145.94,44.1l12.59,3L107.32,58Z"/><polygon class="cls-4" points="0.5 27.54 107.32 57.97 108.62 91.18 3.72 52.4 0.5 27.54"/><polygon class="cls-5" points="63.68 19.06 72.8 21.08 63.92 22.25 63.68 19.06"/><polygon class="cls-5" points="143.69 15.61 151.61 16.95 143.7 18.1 143.69 15.61"/><polygon class="cls-5" points="158.03 13.6 143.69 15.61 143.7 18.1 139.6 18.69 133.66 17.64 133.54 9.73 158.03 13.6"/><polygon class="cls-5" points="155.03 7.04 162.93 8.17 155.02 9.2 155.03 7.04"/><polygon class="cls-4" points="269.49 21.5 308.62 12.38 305.9 32.84 267.16 44.62 269.49 21.5"/><polygon class="cls-5" points="256.26 19.65 269.49 21.5 267.16 44.62 259.08 43.13 260.94 23.26 256 22.55 256.26 19.65"/><polygon class="cls-5" points="247.62 21.33 256.26 19.65 256 22.55 247.62 21.33"/><polygon class="cls-4" points="242.15 27.14 260.94 23.26 259.08 43.13 258.73 46.89 240.23 51.88 242.15 27.14"/><polygon class="cls-5" points="202.12 20.8 242.15 27.14 240.23 51.88 222.09 48.09 223.09 31.93 201.79 28.59 202.12 20.8"/><polygon class="cls-5" points="178.24 24.9 202.12 20.8 201.79 28.59 178.24 24.9"/><polygon class="cls-4" points="173.85 43.86 223.09 31.93 222.09 48.09 221.48 58.03 173.28 73.27 173.85 43.86"/><polygon class="cls-5" points="161.21 41.05 173.85 43.86 173.28 73.27 160.97 69.69 161.21 41.05"/><polygon class="cls-5" points="145.94 44.1 161.21 41.05 160.97 69.69 158.39 70.36 158.53 47.1 145.94 44.1"/><polygon class="cls-4" points="107.32 57.97 158.53 47.1 158.39 70.36 158.35 77.41 108.62 91.18 107.32 57.97"/><polygon class="cls-1" points="157.86 159.4 112.09 180.09 111 152.09 158.01 133.44 157.92 148.69 157.86 159.4"/><polygon class="cls-1" points="111 152.09 112.09 180.09 12.62 121 9.77 99.07 111 152.09"/><polygon class="cls-1" points="6.81 76.22 3.72 52.4 108.62 91.18 109.84 122.5 6.81 76.22"/><polygon class="cls-1" points="109.84 122.5 108.62 91.18 158.35 77.41 158.23 97.75 158.18 106.14 109.84 122.5"/><polygon class="cls-1" points="109.84 122.5 158.18 106.14 158.07 123.83 158.01 133.44 111 152.09 109.84 122.5"/><polygon class="cls-1" points="6.81 76.22 109.84 122.5 111 152.09 9.77 99.07 6.81 76.22"/><polygon class="cls-1" points="303.28 52.6 300.74 71.7 262.77 88.23 264.93 66.85 303.28 52.6"/><polygon class="cls-1" points="305.9 32.84 303.28 52.6 264.93 66.85 267.16 44.62 305.9 32.84"/><polygon class="cls-1" points="300.74 71.7 298.28 90.17 260.7 108.82 262.77 88.23 300.74 71.7"/><polygon class="cls-2" points="264.93 66.85 262.77 88.23 255.06 86.15 256.61 69.59 257.04 65.05 264.93 66.85"/><polygon class="cls-2" points="267.16 44.62 264.93 66.85 257.04 65.05 258.73 46.89 259.08 43.13 267.16 44.62"/><polygon class="cls-2" points="262.77 88.23 260.7 108.82 253.16 106.48 254.57 91.4 255.06 86.15 262.77 88.23"/><polygon class="cls-1" points="240.23 51.88 258.73 46.89 257.04 65.05 256.61 69.59 238.39 75.59 240.23 51.88"/><polygon class="cls-2" points="240.23 51.88 238.39 75.59 220.68 71.03 221.48 58.03 222.09 48.09 240.23 51.88"/><polygon class="cls-1" points="238.39 75.59 256.61 69.59 255.06 86.15 254.57 91.4 236.62 98.34 238.39 75.59"/><polygon class="cls-2" points="238.39 75.59 236.62 98.34 219.32 93.08 219.94 82.99 220.68 71.03 238.39 75.59"/><polygon class="cls-1" points="236.62 98.34 254.57 91.4 253.16 106.48 252.61 112.39 234.93 120.18 236.62 98.34"/><polygon class="cls-2" points="236.62 98.34 234.93 120.18 218.02 114.27 218.48 106.86 219.32 93.08 236.62 98.34"/><polygon class="cls-1" points="173.28 73.27 221.48 58.03 220.68 71.03 219.94 82.99 172.74 101.22 173.28 73.27"/><polygon class="cls-2" points="173.28 73.27 172.74 101.22 160.74 96.94 160.97 69.69 173.28 73.27"/><polygon class="cls-1" points="172.74 101.22 219.94 82.99 219.32 93.08 218.48 106.86 172.23 127.8 172.74 101.22"/><polygon class="cls-2" points="172.74 101.22 172.23 127.8 160.53 122.9 160.74 96.94 172.74 101.22"/><polygon class="cls-1" points="172.23 127.8 218.48 106.86 218.02 114.27 217.07 129.74 171.74 153.12 172.23 127.8"/><polygon class="cls-2" points="172.23 127.8 171.74 153.12 160.32 147.66 160.53 122.9 172.23 127.8"/><polygon class="cls-1" points="160.74 96.94 160.53 122.9 158.07 123.83 158.18 106.14 158.23 97.75 160.74 96.94"/><polygon class="cls-1" points="160.97 69.69 160.74 96.94 158.23 97.75 158.35 77.41 158.39 70.36 160.97 69.69"/><polygon class="cls-1" points="160.53 122.9 160.32 147.66 157.92 148.69 158.01 133.44 158.07 123.83 160.53 122.9"/><polygon class="cls-5" points="261.74 14.29 251.38 16.17 192.69 8.31 192.79 5.49 261.74 14.29"/><polygon class="cls-5" points="182.15 6.9 192.79 5.49 192.69 8.31 182.15 6.9"/><line class="cls-6" x1="295.91" y1="108.04" x2="258.71" y2="128.65"/><line class="cls-6" x1="258.71" y1="128.65" x2="251.33" y2="126.07"/><line class="cls-6" x1="250.73" y1="132.59" x2="233.3" y2="141.17"/><line class="cls-6" x1="233.3" y1="141.17" x2="216.77" y2="134.66"/><line class="cls-6" x1="215.72" y1="151.67" x2="171.27" y2="177.27"/><line class="cls-6" x1="171.27" y1="177.27" x2="160.13" y2="171.3"/><line class="cls-6" x1="160.13" y1="171.3" x2="157.78" y2="172.43"/><line class="cls-6" x1="157.71" y1="184.11" x2="113.13" y2="206.62"/><line class="cls-6" x1="113.13" y1="206.62" x2="15.35" y2="142.06"/><line class="cls-7" x1="107.32" y1="57.97" x2="0.5" y2="27.54"/><line class="cls-6" x1="0.5" y1="27.54" x2="50.64" y2="20.7"/><line class="cls-6" x1="50.64" y1="20.7" x2="59.61" y2="22.82"/><line class="cls-7" x1="72.8" y1="21.08" x2="63.68" y2="19.06"/><line class="cls-6" x1="63.68" y1="19.06" x2="101.18" y2="14.32"/><line class="cls-6" x1="101.18" y1="14.32" x2="112.99" y2="16.5"/><line class="cls-6" x1="112.99" y1="16.5" x2="121.17" y2="15.41"/><line class="cls-7" x1="151.61" y1="16.95" x2="143.69" y2="15.61"/><line class="cls-6" x1="143.69" y1="15.61" x2="158.03" y2="13.6"/><line class="cls-7" x1="158.03" y1="13.6" x2="133.54" y2="9.73"/><line class="cls-6" x1="133.54" y1="9.73" x2="141.59" y2="8.72"/><line class="cls-6" x1="141.59" y1="8.72" x2="149.46" y2="9.92"/><line class="cls-7" x1="162.93" y1="8.17" x2="155.03" y2="7.04"/><line class="cls-6" x1="155.03" y1="7.04" x2="201.26" y2="0.5"/><line class="cls-6" x1="201.26" y1="0.5" x2="308.62" y2="12.38"/><line class="cls-7" x1="308.62" y1="12.38" x2="269.49" y2="21.5"/><line class="cls-7" x1="269.49" y1="21.5" x2="256.26" y2="19.65"/><line class="cls-7" x1="256.26" y1="19.65" x2="247.62" y2="21.33"/><line class="cls-7" x1="260.94" y1="23.26" x2="242.15" y2="27.14"/><line class="cls-7" x1="242.15" y1="27.14" x2="202.12" y2="20.8"/><line class="cls-7" x1="202.12" y1="20.8" x2="178.24" y2="24.9"/><line class="cls-7" x1="223.09" y1="31.93" x2="173.85" y2="43.86"/><line class="cls-7" x1="173.85" y1="43.86" x2="161.21" y2="41.04"/><line class="cls-7" x1="161.21" y1="41.04" x2="145.94" y2="44.1"/><line class="cls-6" x1="145.94" y1="44.1" x2="158.53" y2="47.1"/><line class="cls-7" x1="158.53" y1="47.1" x2="107.32" y2="57.97"/><line class="cls-6" x1="261.74" y1="14.29" x2="251.38" y2="16.17"/><line class="cls-7" x1="192.79" y1="5.49" x2="261.74" y2="14.29"/><line class="cls-7" x1="182.15" y1="6.9" x2="192.79" y2="5.49"/><line class="cls-6" x1="15.35" y1="142.06" x2="12.62" y2="121"/><line class="cls-7" x1="113.13" y1="206.62" x2="112.1" y2="180.09"/><line class="cls-6" x1="295.91" y1="108.04" x2="298.28" y2="90.17"/><line class="cls-7" x1="258.71" y1="128.65" x2="260.7" y2="108.82"/><line class="cls-7" x1="233.3" y1="141.17" x2="234.93" y2="120.18"/><line class="cls-7" x1="171.27" y1="177.27" x2="171.74" y2="153.12"/><line class="cls-7" x1="160.13" y1="171.3" x2="160.32" y2="147.66"/><line class="cls-7" x1="192.69" y1="8.31" x2="192.79" y2="5.49"/><line class="cls-7" x1="112.1" y1="180.09" x2="111" y2="152.09"/><line class="cls-7" x1="112.1" y1="180.09" x2="157.86" y2="159.4"/><line class="cls-6" x1="12.62" y1="121" x2="9.77" y2="99.07"/><line class="cls-7" x1="112.1" y1="180.09" x2="12.62" y2="121"/><line class="cls-7" x1="109.85" y1="122.5" x2="108.62" y2="91.18"/><line class="cls-7" x1="109.85" y1="122.5" x2="158.18" y2="106.14"/><line class="cls-6" x1="6.81" y1="76.22" x2="3.72" y2="52.4"/><line class="cls-7" x1="109.85" y1="122.5" x2="6.81" y2="76.22"/><line class="cls-7" x1="111" y1="152.09" x2="109.85" y2="122.5"/><line class="cls-7" x1="111" y1="152.09" x2="158.01" y2="133.44"/><line class="cls-6" x1="9.77" y1="99.07" x2="6.81" y2="76.22"/><line class="cls-7" x1="111" y1="152.09" x2="9.77" y2="99.07"/><line class="cls-7" x1="108.62" y1="91.18" x2="107.32" y2="57.97"/><line class="cls-7" x1="108.62" y1="91.18" x2="158.35" y2="77.41"/><line class="cls-6" x1="3.72" y1="52.4" x2="0.5" y2="27.54"/><line class="cls-7" x1="108.62" y1="91.18" x2="3.72" y2="52.4"/><line class="cls-6" x1="63.92" y1="22.25" x2="63.68" y2="19.06"/><line class="cls-6" x1="143.7" y1="18.1" x2="143.69" y2="15.61"/><line class="cls-6" x1="133.66" y1="17.64" x2="133.54" y2="9.73"/><line class="cls-6" x1="155.02" y1="9.2" x2="155.03" y2="7.04"/><line class="cls-6" x1="305.9" y1="32.84" x2="308.62" y2="12.38"/><line class="cls-6" x1="300.74" y1="71.7" x2="303.28" y2="52.6"/><line class="cls-6" x1="303.28" y1="52.6" x2="305.9" y2="32.84"/><line class="cls-6" x1="298.28" y1="90.17" x2="300.74" y2="71.7"/><line class="cls-7" x1="267.16" y1="44.62" x2="269.49" y2="21.5"/><line class="cls-7" x1="305.9" y1="32.84" x2="267.16" y2="44.62"/><line class="cls-7" x1="262.78" y1="88.23" x2="264.93" y2="66.85"/><line class="cls-7" x1="262.78" y1="88.23" x2="300.74" y2="71.7"/><line class="cls-7" x1="264.93" y1="66.85" x2="267.16" y2="44.62"/><line class="cls-7" x1="264.93" y1="66.85" x2="303.28" y2="52.6"/><line class="cls-7" x1="260.7" y1="108.82" x2="262.78" y2="88.23"/><line class="cls-7" x1="260.7" y1="108.82" x2="298.28" y2="90.17"/><line class="cls-7" x1="256" y1="22.55" x2="256.26" y2="19.65"/><line class="cls-7" x1="267.16" y1="44.62" x2="259.08" y2="43.13"/><line class="cls-7" x1="255.06" y1="86.15" x2="262.78" y2="88.23"/><line class="cls-7" x1="257.04" y1="65.05" x2="264.93" y2="66.85"/><line class="cls-7" x1="253.17" y1="106.48" x2="260.7" y2="108.82"/><line class="cls-7" x1="240.23" y1="51.88" x2="242.15" y2="27.14"/><line class="cls-7" x1="258.73" y1="46.89" x2="240.23" y2="51.88"/><line class="cls-7" x1="236.62" y1="98.34" x2="238.39" y2="75.59"/><line class="cls-7" x1="236.62" y1="98.34" x2="254.57" y2="91.4"/><line class="cls-7" x1="238.39" y1="75.59" x2="240.23" y2="51.88"/><line class="cls-7" x1="238.39" y1="75.59" x2="256.61" y2="69.59"/><line class="cls-7" x1="234.93" y1="120.18" x2="236.62" y2="98.34"/><line class="cls-7" x1="234.93" y1="120.18" x2="252.61" y2="112.39"/><line class="cls-7" x1="201.79" y1="28.59" x2="202.12" y2="20.8"/><line class="cls-7" x1="240.23" y1="51.88" x2="222.09" y2="48.09"/><line class="cls-7" x1="219.32" y1="93.08" x2="236.62" y2="98.34"/><line class="cls-7" x1="220.68" y1="71.04" x2="238.39" y2="75.59"/><line class="cls-7" x1="218.02" y1="114.27" x2="234.93" y2="120.18"/><line class="cls-7" x1="173.28" y1="73.27" x2="173.85" y2="43.86"/><line class="cls-7" x1="221.48" y1="58.03" x2="173.28" y2="73.27"/><line class="cls-7" x1="172.23" y1="127.8" x2="172.74" y2="101.22"/><line class="cls-7" x1="172.23" y1="127.8" x2="218.48" y2="106.87"/><line class="cls-7" x1="172.74" y1="101.22" x2="173.28" y2="73.27"/><line class="cls-7" x1="172.74" y1="101.22" x2="219.94" y2="82.99"/><line class="cls-7" x1="171.74" y1="153.12" x2="172.23" y2="127.8"/><line class="cls-7" x1="171.74" y1="153.12" x2="217.07" y2="129.74"/><line class="cls-7" x1="160.97" y1="69.69" x2="161.21" y2="41.04"/><line class="cls-7" x1="173.28" y1="73.27" x2="160.97" y2="69.69"/><line class="cls-7" x1="160.53" y1="122.9" x2="160.74" y2="96.94"/><line class="cls-7" x1="160.53" y1="122.9" x2="172.23" y2="127.8"/><line class="cls-7" x1="160.74" y1="96.94" x2="160.97" y2="69.69"/><line class="cls-7" x1="160.74" y1="96.94" x2="172.74" y2="101.22"/><line class="cls-7" x1="160.32" y1="147.66" x2="160.53" y2="122.9"/><line class="cls-7" x1="160.32" y1="147.66" x2="171.74" y2="153.12"/><line class="cls-7" x1="158.39" y1="70.36" x2="160.97" y2="69.69"/><line class="cls-7" x1="158.07" y1="123.83" x2="160.53" y2="122.9"/><line class="cls-7" x1="158.23" y1="97.75" x2="160.74" y2="96.94"/><line class="cls-7" x1="157.92" y1="148.69" x2="160.32" y2="147.66"/><line class="cls-6" x1="59.61" y1="22.82" x2="63.92" y2="22.25"/><line class="cls-6" x1="63.92" y1="22.25" x2="72.8" y2="21.08"/><line class="cls-6" x1="121.17" y1="15.41" x2="133.66" y2="17.64"/><line class="cls-6" x1="133.66" y1="17.64" x2="139.6" y2="18.69"/><line class="cls-6" x1="139.6" y1="18.69" x2="143.7" y2="18.1"/><line class="cls-6" x1="143.7" y1="18.1" x2="151.61" y2="16.95"/><line class="cls-6" x1="149.46" y1="9.92" x2="155.02" y2="9.2"/><line class="cls-6" x1="155.02" y1="9.2" x2="162.93" y2="8.17"/><line class="cls-6" x1="247.62" y1="21.33" x2="256" y2="22.55"/><line class="cls-6" x1="256" y1="22.55" x2="260.94" y2="23.26"/><line class="cls-6" x1="223.09" y1="31.93" x2="201.79" y2="28.59"/><line class="cls-6" x1="201.79" y1="28.59" x2="178.24" y2="24.9"/><line class="cls-6" x1="251.38" y1="16.17" x2="192.69" y2="8.31"/><line class="cls-6" x1="192.69" y1="8.31" x2="182.15" y2="6.9"/><line class="cls-6" x1="250.73" y1="132.59" x2="251.33" y2="126.07"/><line class="cls-6" x1="251.33" y1="126.07" x2="252.61" y2="112.39"/><line class="cls-6" x1="215.72" y1="151.67" x2="216.77" y2="134.66"/><line class="cls-6" x1="216.77" y1="134.66" x2="217.07" y2="129.74"/><line class="cls-6" x1="157.71" y1="184.11" x2="157.78" y2="172.43"/><line class="cls-6" x1="157.78" y1="172.43" x2="157.86" y2="159.4"/><line class="cls-6" x1="157.86" y1="159.4" x2="157.92" y2="148.69"/><line class="cls-6" x1="157.92" y1="148.69" x2="158.01" y2="133.44"/><line class="cls-6" x1="158.18" y1="106.14" x2="158.23" y2="97.75"/><line class="cls-6" x1="158.23" y1="97.75" x2="158.35" y2="77.41"/><line class="cls-6" x1="158.01" y1="133.44" x2="158.07" y2="123.83"/><line class="cls-6" x1="158.07" y1="123.83" x2="158.18" y2="106.14"/><line class="cls-6" x1="158.35" y1="77.41" x2="158.39" y2="70.36"/><line class="cls-6" x1="158.39" y1="70.36" x2="158.53" y2="47.1"/><line class="cls-6" x1="258.73" y1="46.89" x2="259.08" y2="43.13"/><line class="cls-6" x1="259.08" y1="43.13" x2="260.94" y2="23.26"/><line class="cls-6" x1="254.57" y1="91.4" x2="255.06" y2="86.15"/><line class="cls-6" x1="255.06" y1="86.15" x2="256.61" y2="69.59"/><line class="cls-6" x1="256.61" y1="69.59" x2="257.04" y2="65.05"/><line class="cls-6" x1="257.04" y1="65.05" x2="258.73" y2="46.89"/><line class="cls-6" x1="252.61" y1="112.39" x2="253.17" y2="106.48"/><line class="cls-6" x1="253.17" y1="106.48" x2="254.57" y2="91.4"/><line class="cls-6" x1="221.48" y1="58.03" x2="222.09" y2="48.09"/><line class="cls-6" x1="222.09" y1="48.09" x2="223.09" y2="31.93"/><line class="cls-6" x1="218.48" y1="106.87" x2="219.32" y2="93.08"/><line class="cls-6" x1="219.32" y1="93.08" x2="219.94" y2="82.99"/><line class="cls-6" x1="219.94" y1="82.99" x2="220.68" y2="71.04"/><line class="cls-6" x1="220.68" y1="71.04" x2="221.48" y2="58.03"/><line class="cls-6" x1="217.07" y1="129.74" x2="218.02" y2="114.27"/><line class="cls-6" x1="218.02" y1="114.27" x2="218.48" y2="106.87"/></g><text class="cls-8" transform="translate(58.31 238.27)"><tspan class="cls-9">Enrique Rébsamen No. 241</tspan><tspan class="cls-10"><tspan x="0" y="16.8" xml:space="preserve">Delegación  Benito Juárez</tspan></tspan></text></g></g></svg>