<svg xmlns="http://www.w3.org/2000/svg" viewBox="0 0 351.47 255.7"><defs><style>.cls-1{fill:#e8e8e8;}.cls-2{fill:#f7f7f7;}.cls-3{fill:#fafafa;}.cls-4{fill:#e7e7e7;}.cls-5{fill:#e9e9e9;}.cls-6{fill:#f2f2f2;}.cls-7{fill:#6d0e29;}.cls-8{fill:#a21239;}.cls-9{fill:#da1549;}.cls-10,.cls-11{fill:none;stroke:#6d0e29;stroke-miterlimit:10;}.cls-11{stroke-width:0.5px;}.cls-12{font-size:16px;fill:#fff;font-family:Lato-Bold, Lato;}.cls-13{font-weight:700;}.cls-14{font-size:14px;fill:#f1f1f1;font-family:Lato-Regular, Lato;}.cls-15{letter-spacing:-0.01em;}</style></defs><title>escocia29.co</title><g id="Capa_2" data-name="Capa 2"><g id="edificios"><g id="escocia_29_coyoac치n" data-name="escocia 29, coyoac치n"><polygon class="cls-1" points="343.55 95.26 297.82 117.31 298.93 98.73 344.97 78.71 343.55 95.26"/><polygon class="cls-2" points="297.82 117.31 286.57 114.47 287.14 103.62 287.53 96.15 298.93 98.73 297.82 117.31"/><polygon class="cls-1" points="286.13 122.69 225.38 151.86 225.73 130.21 287.14 103.62 286.57 114.47 286.13 122.69"/><polygon class="cls-3" points="225.38 151.86 206.86 146 206.9 138.08 206.96 124.86 225.73 130.21 225.38 151.86"/><polygon class="cls-4" points="206.79 160.47 109.9 207.64 108.39 181.32 206.9 138.08 206.86 146 206.79 160.47"/><polygon class="cls-2" points="109.9 207.64 85.82 195.48 84 170.15 108.39 181.32 109.9 207.64"/><polygon class="cls-5" points="85.82 195.48 72.02 201.4 69.93 175.59 84 170.15 85.82 195.48"/><polygon class="cls-2" points="72.02 201.4 37.05 182.85 35.65 169.18 34.57 158.56 69.93 175.59 72.02 201.4"/><polygon class="cls-6" points="35.65 169.18 13.91 156.79 11.37 134.71 33.29 146.04 34.57 158.56 35.65 169.18"/><path class="cls-7" d="M277.82,8l-21.2-2.41-11.56,1.9,11.46,1.26L267.1,9.91Zm30.49,6.44,10.34-2.16L295.49,9.83l-10.63,2L295.32,13ZM192.87,23.68l14.3-2.57-20.89-3L171.59,20.6l14.72,2.13ZM236.29,30l15.18-3.19-26-3.56L210,26.16l15.36,2.22ZM85.39,43l21-3.78L82.61,34.53,61.73,38l21.42,4.54Zm43.79,9.9,22.34-4.71L124.9,42.94l-22.32,4.29,22.72,4.84ZM.5,40l103-15.82,19,3.23,12.72,2.16L154,26.37l-31.74-5L192.83,10.5l14,1.73L224,14.35,237.79,12,206.86,8.34,258,.5l23.64,2.17,6.24-1L326,5.56l-3.75.73,3.67.36L351,9.07,303.63,20l-25.68-3L265.4,19.5,277.76,21l13.64,1.69L227.23,37.5l-32-4.83-19.5,3.87,19.52,3.32,12.14,2.06L101.83,66.55,76.07,60.13,60.82,63.25l-37-9.74,15-2.68Z"/><polygon class="cls-8" points="0.5 40.02 38.79 50.83 23.84 53.51 25.77 72.44 3.33 64.71 0.5 40.02"/><polygon class="cls-9" points="153.99 26.37 135.24 29.59 122.52 27.43 122.25 21.33 153.99 26.37"/><polygon class="cls-9" points="237.79 11.98 224 14.35 206.84 12.23 206.86 8.34 237.79 11.98"/><polygon class="cls-8" points="322.24 6.29 325.99 5.56 325.92 6.64 322.24 6.29"/><polygon class="cls-9" points="303.63 20.02 350.97 9.07 349.43 27.01 302.41 40.39 303.63 20.02"/><polygon class="cls-9" points="277.94 16.99 303.63 20.02 302.41 40.39 290.56 38.66 291.41 22.72 277.76 21.03 277.94 16.99"/><polygon class="cls-8" points="265.39 19.5 277.94 16.99 277.76 21.03 265.39 19.5"/><polygon class="cls-9" points="227.23 37.5 291.41 22.72 290.56 38.66 290.3 43.67 226.84 61.65 227.23 37.5"/><polygon class="cls-8" points="195.2 32.67 227.23 37.5 226.84 61.65 207.28 58.01 207.35 41.92 195.22 39.85 195.2 32.67"/><polygon class="cls-8" points="175.7 36.54 195.2 32.67 195.22 39.85 175.7 36.54"/><polygon class="cls-9" points="101.83 66.55 207.35 41.92 207.28 58.01 207.24 67 103.56 96.77 101.83 66.55"/><polygon class="cls-9" points="76.07 60.13 101.83 66.55 103.56 96.77 78.16 89.03 76.07 60.13"/><polygon class="cls-8" points="60.82 63.25 76.07 60.13 78.16 89.03 63.22 92.79 60.82 63.25"/><polygon class="cls-9" points="23.84 53.51 60.82 63.25 63.22 92.79 26.65 81.03 25.77 72.44 23.84 53.51"/><polygon class="cls-4" points="206.9 138.08 108.39 181.32 106.84 154.1 207.01 115.06 206.96 124.86 206.9 138.08"/><polygon class="cls-2" points="106.84 154.1 108.39 181.32 84 170.15 82.11 144 106.84 154.1"/><polygon class="cls-9" points="103.56 96.77 207.24 67 207.17 80.89 207.12 91.37 105.23 125.94 103.56 96.77"/><polygon class="cls-9" points="103.56 96.77 105.23 125.94 80.17 116.97 78.16 89.03 103.56 96.77"/><polygon class="cls-9" points="105.23 125.94 207.12 91.37 207.06 103.17 207.01 115.06 106.84 154.1 105.23 125.94"/><polygon class="cls-9" points="105.23 125.94 106.84 154.1 82.11 144 80.17 116.97 105.23 125.94"/><polygon class="cls-3" points="225.73 130.21 206.96 124.86 207.01 115.06 207.06 103.17 226.09 107.98 225.73 130.21"/><polygon class="cls-1" points="225.73 130.21 226.09 107.98 288.17 84.11 287.53 96.15 287.14 103.62 225.73 130.21"/><polygon class="cls-8" points="226.09 107.98 207.06 103.17 207.12 91.37 207.17 80.89 226.46 85.13 226.09 107.98"/><polygon class="cls-8" points="226.46 85.13 207.17 80.89 207.24 67 207.28 58.01 226.84 61.65 226.46 85.13"/><polygon class="cls-9" points="226.46 85.13 226.84 61.65 290.3 43.67 289.53 58.26 289.22 64.13 226.46 85.13"/><polygon class="cls-9" points="226.09 107.98 226.46 85.13 289.22 64.13 288.52 77.41 288.17 84.11 226.09 107.98"/><polygon class="cls-2" points="298.93 98.73 287.53 96.15 288.17 84.11 288.52 77.41 300.06 79.72 298.93 98.73"/><polygon class="cls-1" points="298.93 98.73 300.06 79.72 346.43 61.82 344.97 78.71 298.93 98.73"/><polygon class="cls-9" points="300.06 79.72 288.52 77.41 289.22 64.13 289.53 58.26 301.22 60.28 300.06 79.72"/><polygon class="cls-9" points="301.22 60.28 289.53 58.26 290.3 43.67 290.56 38.66 302.41 40.39 301.22 60.28"/><polygon class="cls-9" points="301.22 60.28 302.41 40.39 349.43 27.01 347.91 44.59 301.22 60.28"/><polygon class="cls-9" points="300.06 79.72 301.22 60.28 347.91 44.59 346.43 61.82 300.06 79.72"/><polygon class="cls-8" points="8.77 112.03 6.09 88.7 28.35 97.71 29.37 107.69 30.86 122.23 8.77 112.03"/><polygon class="cls-8" points="6.09 88.7 3.33 64.71 25.77 72.44 26.65 81.03 28.35 97.71 6.09 88.7"/><polygon class="cls-6" points="11.37 134.71 8.77 112.03 30.86 122.23 32.01 133.52 33.29 146.04 11.37 134.71"/><polygon class="cls-9" points="26.65 81.03 63.22 92.79 65.53 121.33 29.37 107.69 28.35 97.71 26.65 81.03"/><polygon class="cls-8" points="65.53 121.33 63.22 92.79 78.16 89.03 80.17 116.97 65.53 121.33"/><polygon class="cls-9" points="29.37 107.69 65.53 121.33 67.77 148.91 32.01 133.52 30.86 122.23 29.37 107.69"/><polygon class="cls-8" points="67.77 148.91 65.53 121.33 80.17 116.97 82.11 144 67.77 148.91"/><polygon class="cls-2" points="32.01 133.52 67.77 148.91 69.93 175.59 34.57 158.56 33.29 146.04 32.01 133.52"/><polygon class="cls-5" points="69.93 175.59 67.77 148.91 82.11 144 84 170.15 69.93 175.59"/><polygon class="cls-9" points="151.52 48.18 129.18 52.89 125.29 52.06 124.9 42.94 151.52 48.18"/><polygon class="cls-8" points="102.58 47.22 124.9 42.94 125.29 52.06 102.58 47.22"/><polygon class="cls-9" points="106.42 39.22 85.39 42.99 83.14 42.52 82.61 34.53 106.42 39.22"/><polygon class="cls-8" points="61.73 37.98 82.61 34.53 83.14 42.52 61.73 37.98"/><polygon class="cls-9" points="251.47 26.78 236.29 29.97 225.35 28.39 225.43 23.22 251.47 26.78"/><polygon class="cls-8" points="210 26.16 225.43 23.22 225.35 28.39 210 26.16"/><polygon class="cls-9" points="207.16 21.12 192.87 23.68 186.31 22.74 186.28 18.16 207.16 21.12"/><polygon class="cls-8" points="171.59 20.61 186.28 18.16 186.31 22.74 171.59 20.61"/><polygon class="cls-9" points="318.65 12.27 308.31 14.44 295.32 13.01 295.49 9.83 318.65 12.27"/><polygon class="cls-8" points="284.87 11.86 295.49 9.83 295.32 13.01 284.87 11.86"/><polygon class="cls-8" points="256.63 5.59 277.82 8 267.1 9.91 256.52 8.75 256.63 5.59"/><polygon class="cls-8" points="245.06 7.49 256.63 5.59 256.52 8.75 245.06 7.49"/><line class="cls-10" x1="343.55" y1="95.26" x2="297.82" y2="117.31"/><line class="cls-10" x1="297.82" y1="117.31" x2="286.57" y2="114.47"/><line class="cls-10" x1="286.13" y1="122.69" x2="225.38" y2="151.86"/><line class="cls-10" x1="225.38" y1="151.86" x2="206.86" y2="146"/><line class="cls-10" x1="206.8" y1="160.47" x2="109.9" y2="207.64"/><line class="cls-10" x1="109.9" y1="207.64" x2="85.82" y2="195.48"/><line class="cls-10" x1="85.82" y1="195.48" x2="72.02" y2="201.4"/><line class="cls-10" x1="72.02" y1="201.4" x2="37.05" y2="182.85"/><line class="cls-10" x1="35.65" y1="169.18" x2="13.91" y2="156.79"/><line class="cls-11" x1="38.79" y1="50.83" x2="0.5" y2="40.02"/><line class="cls-10" x1="0.5" y1="40.02" x2="103.52" y2="24.21"/><line class="cls-10" x1="135.24" y1="29.59" x2="153.99" y2="26.37"/><line class="cls-11" x1="153.99" y1="26.37" x2="122.26" y2="21.33"/><line class="cls-10" x1="122.26" y1="21.33" x2="192.83" y2="10.5"/><line class="cls-10" x1="224" y1="14.35" x2="237.79" y2="11.98"/><line class="cls-11" x1="237.79" y1="11.98" x2="206.86" y2="8.34"/><line class="cls-10" x1="206.86" y1="8.34" x2="257.95" y2="0.5"/><line class="cls-10" x1="257.95" y1="0.5" x2="281.59" y2="2.66"/><line class="cls-10" x1="281.59" y1="2.66" x2="287.83" y2="1.62"/><line class="cls-10" x1="287.83" y1="1.62" x2="325.99" y2="5.56"/><line class="cls-11" x1="325.99" y1="5.56" x2="322.24" y2="6.29"/><line class="cls-11" x1="350.97" y1="9.07" x2="303.63" y2="20.02"/><line class="cls-11" x1="303.63" y1="20.02" x2="277.94" y2="16.99"/><line class="cls-11" x1="277.94" y1="16.99" x2="265.4" y2="19.5"/><line class="cls-11" x1="291.41" y1="22.72" x2="227.23" y2="37.5"/><line class="cls-11" x1="227.23" y1="37.5" x2="195.2" y2="32.67"/><line class="cls-11" x1="195.2" y1="32.67" x2="175.7" y2="36.54"/><line class="cls-11" x1="207.35" y1="41.92" x2="101.83" y2="66.55"/><line class="cls-11" x1="101.83" y1="66.55" x2="76.07" y2="60.13"/><line class="cls-11" x1="76.07" y1="60.13" x2="60.82" y2="63.25"/><line class="cls-11" x1="60.82" y1="63.25" x2="23.83" y2="53.51"/><line class="cls-10" x1="23.83" y1="53.51" x2="38.79" y2="50.83"/><line class="cls-10" x1="129.18" y1="52.89" x2="151.52" y2="48.18"/><line class="cls-11" x1="151.52" y1="48.18" x2="124.9" y2="42.94"/><line class="cls-11" x1="124.9" y1="42.94" x2="102.58" y2="47.22"/><line class="cls-10" x1="85.39" y1="42.99" x2="106.42" y2="39.21"/><line class="cls-11" x1="106.42" y1="39.21" x2="82.61" y2="34.53"/><line class="cls-11" x1="82.61" y1="34.53" x2="61.73" y2="37.98"/><line class="cls-10" x1="236.29" y1="29.97" x2="251.46" y2="26.78"/><line class="cls-11" x1="251.46" y1="26.78" x2="225.43" y2="23.22"/><line class="cls-11" x1="225.43" y1="23.22" x2="210" y2="26.16"/><line class="cls-10" x1="192.87" y1="23.68" x2="207.16" y2="21.12"/><line class="cls-11" x1="207.16" y1="21.12" x2="186.28" y2="18.16"/><line class="cls-11" x1="186.28" y1="18.16" x2="171.59" y2="20.6"/><line class="cls-10" x1="308.31" y1="14.44" x2="318.65" y2="12.27"/><line class="cls-11" x1="318.65" y1="12.27" x2="295.49" y2="9.83"/><line class="cls-11" x1="295.49" y1="9.83" x2="284.86" y2="11.86"/><line class="cls-11" x1="256.63" y1="5.59" x2="277.82" y2="8"/><line class="cls-11" x1="245.06" y1="7.49" x2="256.63" y2="5.59"/><line class="cls-10" x1="277.82" y1="8" x2="267.1" y2="9.91"/><line class="cls-10" x1="13.91" y1="156.79" x2="11.37" y2="134.71"/><line class="cls-10" x1="343.55" y1="95.26" x2="344.97" y2="78.71"/><line class="cls-11" x1="297.82" y1="117.31" x2="298.93" y2="98.73"/><line class="cls-11" x1="225.38" y1="151.86" x2="225.73" y2="130.21"/><line class="cls-11" x1="109.9" y1="207.64" x2="108.39" y2="181.32"/><line class="cls-11" x1="85.82" y1="195.48" x2="84" y2="170.15"/><line class="cls-11" x1="72.02" y1="201.4" x2="69.93" y2="175.59"/><line class="cls-11" x1="125.29" y1="52.06" x2="124.9" y2="42.94"/><line class="cls-11" x1="83.14" y1="42.52" x2="82.61" y2="34.53"/><line class="cls-11" x1="225.35" y1="28.39" x2="225.43" y2="23.22"/><line class="cls-11" x1="186.31" y1="22.74" x2="186.28" y2="18.16"/><line class="cls-11" x1="295.32" y1="13.01" x2="295.49" y2="9.83"/><line class="cls-11" x1="256.52" y1="8.75" x2="256.63" y2="5.59"/><line class="cls-11" x1="108.39" y1="181.32" x2="106.84" y2="154.1"/><line class="cls-11" x1="108.39" y1="181.32" x2="206.9" y2="138.08"/><line class="cls-11" x1="105.23" y1="125.94" x2="103.56" y2="96.77"/><line class="cls-11" x1="207.12" y1="91.37" x2="105.23" y2="125.94"/><line class="cls-11" x1="103.56" y1="96.77" x2="101.83" y2="66.55"/><line class="cls-11" x1="103.56" y1="96.77" x2="207.23" y2="67"/><line class="cls-11" x1="106.84" y1="154.1" x2="105.23" y2="125.94"/><line class="cls-11" x1="106.84" y1="154.1" x2="207.01" y2="115.06"/><line class="cls-11" x1="195.22" y1="39.85" x2="195.2" y2="32.67"/><line class="cls-11" x1="225.73" y1="130.21" x2="226.09" y2="107.98"/><line class="cls-11" x1="206.96" y1="124.86" x2="225.73" y2="130.21"/><line class="cls-11" x1="226.46" y1="85.13" x2="226.84" y2="61.65"/><line class="cls-11" x1="226.46" y1="85.13" x2="207.17" y2="80.89"/><line class="cls-11" x1="226.09" y1="107.98" x2="226.46" y2="85.13"/><line class="cls-11" x1="226.09" y1="107.98" x2="207.06" y2="103.17"/><line class="cls-11" x1="226.84" y1="61.65" x2="227.23" y2="37.5"/><line class="cls-11" x1="226.84" y1="61.65" x2="207.28" y2="58.01"/><line class="cls-11" x1="225.73" y1="130.21" x2="287.14" y2="103.62"/><line class="cls-11" x1="289.22" y1="64.13" x2="226.46" y2="85.13"/><line class="cls-11" x1="290.3" y1="43.68" x2="226.84" y2="61.65"/><line class="cls-11" x1="288.17" y1="84.11" x2="226.09" y2="107.98"/><line class="cls-11" x1="277.76" y1="21.03" x2="277.94" y2="16.99"/><line class="cls-11" x1="298.93" y1="98.73" x2="300.06" y2="79.72"/><line class="cls-11" x1="287.53" y1="96.15" x2="298.93" y2="98.73"/><line class="cls-11" x1="301.22" y1="60.28" x2="302.41" y2="40.39"/><line class="cls-11" x1="289.53" y1="58.26" x2="301.22" y2="60.28"/><line class="cls-11" x1="300.06" y1="79.72" x2="301.22" y2="60.28"/><line class="cls-11" x1="288.52" y1="77.41" x2="300.06" y2="79.72"/><line class="cls-11" x1="302.41" y1="40.39" x2="303.63" y2="20.02"/><line class="cls-11" x1="290.57" y1="38.66" x2="302.41" y2="40.39"/><line class="cls-10" x1="344.97" y1="78.71" x2="346.43" y2="61.82"/><line class="cls-11" x1="298.93" y1="98.73" x2="344.97" y2="78.71"/><line class="cls-10" x1="347.91" y1="44.59" x2="349.43" y2="27.01"/><line class="cls-11" x1="347.91" y1="44.59" x2="301.22" y2="60.28"/><line class="cls-10" x1="349.43" y1="27.01" x2="350.97" y2="9.07"/><line class="cls-11" x1="349.43" y1="27.01" x2="302.41" y2="40.39"/><line class="cls-10" x1="346.43" y1="61.82" x2="347.91" y2="44.59"/><line class="cls-11" x1="346.43" y1="61.82" x2="300.06" y2="79.72"/><line class="cls-10" x1="325.92" y1="6.64" x2="325.99" y2="5.56"/><line class="cls-10" x1="206.84" y1="12.23" x2="206.86" y2="8.34"/><line class="cls-10" x1="122.52" y1="27.44" x2="122.26" y2="21.33"/><line class="cls-10" x1="3.33" y1="64.71" x2="0.5" y2="40.02"/><line class="cls-10" x1="8.77" y1="112.03" x2="6.09" y2="88.7"/><line class="cls-10" x1="6.09" y1="88.7" x2="3.33" y2="64.71"/><line class="cls-10" x1="11.37" y1="134.71" x2="8.77" y2="112.03"/><line class="cls-11" x1="3.33" y1="64.71" x2="25.77" y2="72.44"/><line class="cls-11" x1="8.77" y1="112.03" x2="30.86" y2="122.23"/><line class="cls-11" x1="28.35" y1="97.71" x2="6.09" y2="88.7"/><line class="cls-11" x1="33.29" y1="146.04" x2="11.37" y2="134.71"/><line class="cls-11" x1="63.22" y1="92.79" x2="60.82" y2="63.25"/><line class="cls-11" x1="26.65" y1="81.04" x2="63.22" y2="92.79"/><line class="cls-11" x1="67.77" y1="148.91" x2="65.53" y2="121.33"/><line class="cls-11" x1="67.77" y1="148.91" x2="32.01" y2="133.52"/><line class="cls-11" x1="65.53" y1="121.33" x2="63.22" y2="92.79"/><line class="cls-11" x1="65.53" y1="121.33" x2="29.37" y2="107.69"/><line class="cls-11" x1="69.93" y1="175.59" x2="67.77" y2="148.91"/><line class="cls-11" x1="69.93" y1="175.59" x2="34.57" y2="158.56"/><line class="cls-11" x1="78.16" y1="89.03" x2="76.07" y2="60.13"/><line class="cls-11" x1="103.56" y1="96.77" x2="78.16" y2="89.03"/><line class="cls-11" x1="78.16" y1="89.03" x2="63.22" y2="92.79"/><line class="cls-11" x1="82.11" y1="144" x2="80.17" y2="116.97"/><line class="cls-11" x1="82.11" y1="144" x2="67.77" y2="148.91"/><line class="cls-11" x1="82.11" y1="144" x2="106.84" y2="154.1"/><line class="cls-11" x1="80.17" y1="116.97" x2="78.16" y2="89.03"/><line class="cls-11" x1="80.17" y1="116.97" x2="65.53" y2="121.33"/><line class="cls-11" x1="80.17" y1="116.97" x2="105.23" y2="125.94"/><line class="cls-11" x1="84" y1="170.15" x2="82.11" y2="144"/><line class="cls-11" x1="84" y1="170.15" x2="69.93" y2="175.59"/><line class="cls-11" x1="84" y1="170.15" x2="108.39" y2="181.32"/><line class="cls-10" x1="103.52" y1="24.21" x2="122.52" y2="27.44"/><line class="cls-10" x1="122.52" y1="27.44" x2="135.24" y2="29.59"/><line class="cls-10" x1="192.83" y1="10.5" x2="206.84" y2="12.23"/><line class="cls-10" x1="206.84" y1="12.23" x2="224" y2="14.35"/><line class="cls-10" x1="322.24" y1="6.29" x2="325.92" y2="6.64"/><line class="cls-10" x1="325.92" y1="6.64" x2="350.97" y2="9.07"/><line class="cls-10" x1="265.4" y1="19.5" x2="277.76" y2="21.03"/><line class="cls-10" x1="277.76" y1="21.03" x2="291.41" y2="22.72"/><line class="cls-10" x1="175.7" y1="36.54" x2="195.22" y2="39.85"/><line class="cls-10" x1="195.22" y1="39.85" x2="207.35" y2="41.92"/><line class="cls-10" x1="102.58" y1="47.22" x2="125.29" y2="52.06"/><line class="cls-10" x1="125.29" y1="52.06" x2="129.18" y2="52.89"/><line class="cls-10" x1="61.73" y1="37.98" x2="83.14" y2="42.52"/><line class="cls-10" x1="83.14" y1="42.52" x2="85.39" y2="42.99"/><line class="cls-10" x1="210" y1="26.16" x2="225.35" y2="28.39"/><line class="cls-10" x1="225.35" y1="28.39" x2="236.29" y2="29.97"/><line class="cls-10" x1="171.59" y1="20.6" x2="186.31" y2="22.74"/><line class="cls-10" x1="186.31" y1="22.74" x2="192.87" y2="23.68"/><line class="cls-10" x1="284.86" y1="11.86" x2="295.32" y2="13.01"/><line class="cls-10" x1="295.32" y1="13.01" x2="308.31" y2="14.44"/><line class="cls-10" x1="267.1" y1="9.91" x2="256.52" y2="8.75"/><line class="cls-10" x1="256.52" y1="8.75" x2="245.06" y2="7.49"/><line class="cls-10" x1="286.13" y1="122.69" x2="286.57" y2="114.47"/><line class="cls-10" x1="286.57" y1="114.47" x2="287.14" y2="103.62"/><line class="cls-10" x1="206.8" y1="160.47" x2="206.86" y2="146"/><line class="cls-10" x1="206.86" y1="146" x2="206.9" y2="138.08"/><line class="cls-10" x1="37.05" y1="182.85" x2="35.65" y2="169.18"/><line class="cls-10" x1="35.65" y1="169.18" x2="34.57" y2="158.56"/><line class="cls-10" x1="206.9" y1="138.08" x2="206.96" y2="124.86"/><line class="cls-10" x1="206.96" y1="124.86" x2="207.01" y2="115.06"/><line class="cls-10" x1="207.12" y1="91.37" x2="207.17" y2="80.89"/><line class="cls-10" x1="207.17" y1="80.89" x2="207.23" y2="67"/><line class="cls-10" x1="207.23" y1="67" x2="207.28" y2="58.01"/><line class="cls-10" x1="207.28" y1="58.01" x2="207.35" y2="41.92"/><line class="cls-10" x1="207.01" y1="115.06" x2="207.06" y2="103.17"/><line class="cls-10" x1="207.06" y1="103.17" x2="207.12" y2="91.37"/><line class="cls-10" x1="287.14" y1="103.62" x2="287.53" y2="96.15"/><line class="cls-10" x1="287.53" y1="96.15" x2="288.17" y2="84.11"/><line class="cls-10" x1="289.22" y1="64.13" x2="289.53" y2="58.26"/><line class="cls-10" x1="289.53" y1="58.26" x2="290.3" y2="43.68"/><line class="cls-10" x1="290.3" y1="43.68" x2="290.57" y2="38.66"/><line class="cls-10" x1="290.57" y1="38.66" x2="291.41" y2="22.72"/><line class="cls-10" x1="288.17" y1="84.11" x2="288.52" y2="77.41"/><line class="cls-10" x1="288.52" y1="77.41" x2="289.22" y2="64.13"/><line class="cls-10" x1="26.65" y1="81.04" x2="25.77" y2="72.44"/><line class="cls-10" x1="25.77" y1="72.44" x2="23.83" y2="53.51"/><line class="cls-10" x1="32.01" y1="133.52" x2="30.86" y2="122.23"/><line class="cls-10" x1="30.86" y1="122.23" x2="29.37" y2="107.69"/><line class="cls-10" x1="29.37" y1="107.69" x2="28.35" y2="97.71"/><line class="cls-10" x1="28.35" y1="97.71" x2="26.65" y2="81.04"/><line class="cls-10" x1="34.57" y1="158.56" x2="33.29" y2="146.04"/><line class="cls-10" x1="33.29" y1="146.04" x2="32.01" y2="133.52"/></g><text class="cls-12" transform="translate(109.46 236.34)"><tspan class="cls-13">Escocia No. 29</tspan><tspan class="cls-14"><tspan x="0" y="16.8">Delegaci칩n C</tspan><tspan class="cls-15" x="81.03" y="16.8">oy</tspan><tspan x="95.62" y="16.8">oac치n</tspan></tspan></text></g></g></svg>