<svg xmlns="http://www.w3.org/2000/svg" viewBox="0 0 646 254.31"><defs><style>.cls-1{fill:#d4d4d4;}.cls-2{fill:#e9e9e9;}.cls-3{fill:#6d0e29;}.cls-4{fill:#da1549;}.cls-5{fill:#a21239;}.cls-6,.cls-7{fill:none;stroke:#6d0e29;stroke-miterlimit:10;}.cls-7{stroke-width:0.5px;}.cls-8{font-size:16px;fill:#fff;font-family:Lato-Bold, Lato;}.cls-9{font-weight:700;letter-spacing:-0.03em;}.cls-10{letter-spacing:0em;}.cls-11{font-size:14px;fill:#f1f1f1;font-family:Lato-Regular, Lato;}</style></defs><title>patriciosanz37.bj_1</title><g id="Capa_2" data-name="Capa 2"><g id="edificios"><g id="patricio_sanz_37_benito_ju치rez" data-name="patricio sanz 37, benito ju치rez"><polygon class="cls-1" points="144.6 201.99 0.5 183.98 0.5 159.67 144.6 177.69 144.6 201.99"/><polygon class="cls-2" points="645.5 188.65 441.63 194.08 441.63 169.78 645.5 164.34 645.5 188.65"/><polygon class="cls-1" points="441.63 194.08 394.13 188.14 394.13 163.84 441.63 169.78 441.63 194.08"/><polygon class="cls-2" points="394.13 188.14 348.99 189.34 348.99 172.24 348.99 165.04 394.13 163.84 394.13 188.14"/><polygon class="cls-2" points="348.99 196.55 144.6 201.99 144.6 177.69 348.99 172.24 348.99 189.34 348.99 196.55"/><path class="cls-3" d="M155.59,18.94l21,2.63,29.84-.8,21-.56-21-2.63Zm261.22-7.49,24.93,3.12,29.67-.79,24.93-.66L471.42,10ZM.5,13.84,206.42,8.36l46.3,5.79L297.53,13l46.3-1.23-46.3-5.79L501.4.5l144.1,18L441.63,23.95,394.13,18l-92.64,2.47L349,26.42,144.6,31.86Z"/><polygon class="cls-4" points="144.6 31.86 348.99 26.41 348.99 43.52 348.99 50.72 144.6 56.17 144.6 31.86"/><polygon class="cls-5" points="0.5 13.85 144.6 31.86 144.6 56.17 0.5 38.15 0.5 13.85"/><polygon class="cls-5" points="297.53 5.93 343.83 11.72 297.53 12.95 297.53 5.93"/><polygon class="cls-4" points="441.63 23.95 645.5 18.52 645.5 42.82 441.63 48.25 441.63 23.95"/><polygon class="cls-5" points="394.13 18.01 441.63 23.95 441.63 48.25 394.13 42.31 394.13 18.01"/><polygon class="cls-4" points="301.49 20.48 394.13 18.01 394.13 42.31 348.99 43.52 348.99 26.41 301.49 20.48"/><polygon class="cls-2" points="348.99 172.24 144.6 177.69 144.6 153.38 348.99 147.94 348.99 165.04 348.99 172.24"/><polygon class="cls-1" points="144.6 153.38 144.6 177.69 0.5 159.67 0.5 135.37 144.6 153.38"/><polygon class="cls-5" points="0.5 86.76 0.5 62.45 144.6 80.47 144.6 104.78 0.5 86.76"/><polygon class="cls-4" points="144.6 104.78 144.6 80.47 348.99 75.03 348.99 92.13 348.99 99.33 144.6 104.78"/><polygon class="cls-2" points="144.6 104.78 348.99 99.33 348.99 116.43 348.99 123.63 144.6 129.08 144.6 104.78"/><polygon class="cls-1" points="0.5 86.76 144.6 104.78 144.6 129.08 0.5 111.06 0.5 86.76"/><polygon class="cls-4" points="348.99 75.03 144.6 80.47 144.6 56.17 348.99 50.72 348.99 67.82 348.99 75.03"/><polygon class="cls-5" points="144.6 56.17 144.6 80.47 0.5 62.45 0.5 38.15 144.6 56.17"/><polygon class="cls-2" points="144.6 129.08 348.99 123.63 348.99 140.73 348.99 147.94 144.6 153.38 144.6 129.08"/><polygon class="cls-1" points="0.5 111.06 144.6 129.08 144.6 153.38 0.5 135.37 0.5 111.06"/><polygon class="cls-2" points="645.5 91.43 645.5 115.73 441.63 121.17 441.63 96.86 645.5 91.43"/><polygon class="cls-4" points="645.5 42.82 645.5 67.13 441.63 72.56 441.63 48.25 645.5 42.82"/><polygon class="cls-4" points="645.5 67.13 645.5 91.43 441.63 96.86 441.63 72.56 645.5 67.13"/><polygon class="cls-2" points="645.5 115.73 645.5 140.04 441.63 145.47 441.63 121.17 645.5 115.73"/><polygon class="cls-2" points="645.5 140.04 645.5 164.34 441.63 169.78 441.63 145.47 645.5 140.04"/><polygon class="cls-5" points="441.63 48.25 441.63 72.56 394.13 66.62 394.13 42.31 441.63 48.25"/><polygon class="cls-5" points="441.63 72.56 441.63 96.86 394.13 90.92 394.13 66.62 441.63 72.56"/><polygon class="cls-1" points="441.63 96.86 441.63 121.17 394.13 115.23 394.13 90.92 441.63 96.86"/><polygon class="cls-1" points="441.63 121.17 441.63 145.47 394.13 139.53 394.13 115.23 441.63 121.17"/><polygon class="cls-1" points="441.63 145.47 441.63 169.78 394.13 163.84 394.13 139.53 441.63 145.47"/><polygon class="cls-4" points="394.13 42.31 394.13 66.62 348.99 67.82 348.99 50.72 348.99 43.52 394.13 42.31"/><polygon class="cls-4" points="394.13 66.62 394.13 90.92 348.99 92.13 348.99 75.03 348.99 67.82 394.13 66.62"/><polygon class="cls-2" points="394.13 90.92 394.13 115.23 348.99 116.43 348.99 99.33 348.99 92.13 394.13 90.92"/><polygon class="cls-2" points="394.13 115.23 394.13 139.53 348.99 140.73 348.99 123.63 348.99 116.43 394.13 115.23"/><polygon class="cls-2" points="394.13 139.53 394.13 163.84 348.99 165.04 348.99 147.94 348.99 140.73 394.13 139.53"/><polygon class="cls-4" points="441.75 14.57 416.81 11.46 471.42 10 471.42 13.78 441.75 14.57"/><polygon class="cls-5" points="471.42 10 496.35 13.12 471.42 13.78 471.42 10"/><polygon class="cls-4" points="176.62 21.57 155.59 18.94 206.46 17.59 206.46 20.77 176.62 21.57"/><polygon class="cls-5" points="206.46 17.59 227.48 20.21 206.46 20.77 206.46 17.59"/><line class="cls-6" x1="144.6" y1="201.99" x2="0.5" y2="183.98"/><line class="cls-6" x1="645.5" y1="188.65" x2="441.63" y2="194.08"/><line class="cls-6" x1="441.63" y1="194.08" x2="394.13" y2="188.14"/><line class="cls-6" x1="394.13" y1="188.14" x2="348.99" y2="189.34"/><line class="cls-6" x1="348.99" y1="196.55" x2="144.6" y2="201.99"/><line class="cls-7" x1="348.99" y1="26.42" x2="144.6" y2="31.86"/><line class="cls-7" x1="144.6" y1="31.86" x2="0.5" y2="13.84"/><line class="cls-6" x1="0.5" y1="13.84" x2="206.42" y2="8.36"/><line class="cls-6" x1="206.42" y1="8.36" x2="252.72" y2="14.15"/><line class="cls-7" x1="343.83" y1="11.72" x2="297.53" y2="5.93"/><line class="cls-6" x1="297.53" y1="5.93" x2="501.4" y2="0.5"/><line class="cls-6" x1="501.4" y1="0.5" x2="645.5" y2="18.52"/><line class="cls-7" x1="645.5" y1="18.52" x2="441.63" y2="23.95"/><line class="cls-7" x1="441.63" y1="23.95" x2="394.13" y2="18.01"/><line class="cls-7" x1="394.13" y1="18.01" x2="301.49" y2="20.48"/><line class="cls-6" x1="301.49" y1="20.48" x2="348.99" y2="26.42"/><line class="cls-6" x1="416.82" y1="11.46" x2="441.75" y2="14.57"/><line class="cls-7" x1="496.35" y1="13.12" x2="471.42" y2="10"/><line class="cls-7" x1="471.42" y1="10" x2="416.82" y2="11.46"/><line class="cls-6" x1="155.59" y1="18.94" x2="176.62" y2="21.57"/><line class="cls-7" x1="227.48" y1="20.22" x2="206.46" y2="17.59"/><line class="cls-7" x1="206.46" y1="17.59" x2="155.59" y2="18.94"/><line class="cls-7" x1="144.6" y1="201.99" x2="144.6" y2="177.69"/><line class="cls-6" x1="0.5" y1="183.98" x2="0.5" y2="159.67"/><line class="cls-6" x1="645.5" y1="188.65" x2="645.5" y2="164.34"/><line class="cls-7" x1="441.63" y1="194.08" x2="441.63" y2="169.78"/><line class="cls-7" x1="394.13" y1="188.14" x2="394.13" y2="163.84"/><line class="cls-7" x1="471.42" y1="13.78" x2="471.42" y2="10"/><line class="cls-7" x1="206.46" y1="20.78" x2="206.46" y2="17.59"/><line class="cls-7" x1="144.6" y1="177.69" x2="144.6" y2="153.38"/><line class="cls-7" x1="144.6" y1="177.69" x2="348.99" y2="172.24"/><line class="cls-6" x1="0.5" y1="159.67" x2="0.5" y2="135.37"/><line class="cls-7" x1="144.6" y1="177.69" x2="0.5" y2="159.67"/><line class="cls-7" x1="144.6" y1="104.78" x2="144.6" y2="80.47"/><line class="cls-7" x1="144.6" y1="104.78" x2="348.99" y2="99.33"/><line class="cls-6" x1="0.5" y1="86.76" x2="0.5" y2="62.45"/><line class="cls-7" x1="144.6" y1="104.78" x2="0.5" y2="86.76"/><line class="cls-7" x1="144.6" y1="80.47" x2="144.6" y2="56.17"/><line class="cls-7" x1="144.6" y1="80.47" x2="348.99" y2="75.02"/><line class="cls-6" x1="0.5" y1="62.45" x2="0.5" y2="38.15"/><line class="cls-7" x1="144.6" y1="80.47" x2="0.5" y2="62.45"/><line class="cls-7" x1="144.6" y1="56.17" x2="144.6" y2="31.86"/><line class="cls-7" x1="144.6" y1="56.17" x2="348.99" y2="50.72"/><line class="cls-6" x1="0.5" y1="38.15" x2="0.5" y2="13.84"/><line class="cls-7" x1="144.6" y1="56.17" x2="0.5" y2="38.15"/><line class="cls-7" x1="144.6" y1="129.08" x2="144.6" y2="104.78"/><line class="cls-7" x1="144.6" y1="129.08" x2="348.99" y2="123.63"/><line class="cls-6" x1="0.5" y1="111.06" x2="0.5" y2="86.76"/><line class="cls-7" x1="144.6" y1="129.08" x2="0.5" y2="111.06"/><line class="cls-6" x1="0.5" y1="135.37" x2="0.5" y2="111.06"/><line class="cls-7" x1="144.6" y1="153.38" x2="144.6" y2="129.08"/><line class="cls-7" x1="0.5" y1="135.37" x2="144.6" y2="153.38"/><line class="cls-7" x1="144.6" y1="153.38" x2="348.99" y2="147.94"/><line class="cls-6" x1="297.53" y1="12.95" x2="297.53" y2="5.93"/><line class="cls-6" x1="645.5" y1="42.82" x2="645.5" y2="18.52"/><line class="cls-6" x1="645.5" y1="115.73" x2="645.5" y2="91.43"/><line class="cls-6" x1="645.5" y1="67.13" x2="645.5" y2="42.82"/><line class="cls-6" x1="645.5" y1="91.43" x2="645.5" y2="67.13"/><line class="cls-6" x1="645.5" y1="140.04" x2="645.5" y2="115.73"/><line class="cls-6" x1="645.5" y1="164.34" x2="645.5" y2="140.04"/><line class="cls-7" x1="441.63" y1="48.25" x2="441.63" y2="23.95"/><line class="cls-7" x1="645.5" y1="42.82" x2="441.63" y2="48.25"/><line class="cls-7" x1="441.63" y1="72.56" x2="441.63" y2="48.25"/><line class="cls-7" x1="645.5" y1="67.13" x2="441.63" y2="72.56"/><line class="cls-7" x1="441.63" y1="96.86" x2="441.63" y2="72.56"/><line class="cls-7" x1="645.5" y1="91.43" x2="441.63" y2="96.86"/><line class="cls-7" x1="441.63" y1="121.17" x2="441.63" y2="96.86"/><line class="cls-7" x1="645.5" y1="115.73" x2="441.63" y2="121.17"/><line class="cls-7" x1="441.63" y1="145.47" x2="441.63" y2="121.17"/><line class="cls-7" x1="645.5" y1="140.04" x2="441.63" y2="145.47"/><line class="cls-7" x1="441.63" y1="169.78" x2="441.63" y2="145.47"/><line class="cls-7" x1="645.5" y1="164.34" x2="441.63" y2="169.78"/><line class="cls-7" x1="394.13" y1="42.31" x2="394.13" y2="18.01"/><line class="cls-7" x1="441.63" y1="48.25" x2="394.13" y2="42.31"/><line class="cls-7" x1="394.13" y1="66.62" x2="394.13" y2="42.31"/><line class="cls-7" x1="441.63" y1="72.56" x2="394.13" y2="66.62"/><line class="cls-7" x1="394.13" y1="90.92" x2="394.13" y2="66.62"/><line class="cls-7" x1="441.63" y1="96.86" x2="394.13" y2="90.92"/><line class="cls-7" x1="394.13" y1="115.23" x2="394.13" y2="90.92"/><line class="cls-7" x1="441.63" y1="121.17" x2="394.13" y2="115.23"/><line class="cls-7" x1="394.13" y1="139.53" x2="394.13" y2="115.23"/><line class="cls-7" x1="441.63" y1="145.47" x2="394.13" y2="139.53"/><line class="cls-7" x1="394.13" y1="163.84" x2="394.13" y2="139.53"/><line class="cls-7" x1="441.63" y1="169.78" x2="394.13" y2="163.84"/><line class="cls-7" x1="348.99" y1="43.52" x2="394.13" y2="42.31"/><line class="cls-7" x1="348.99" y1="67.82" x2="394.13" y2="66.62"/><line class="cls-7" x1="348.99" y1="92.13" x2="394.13" y2="90.92"/><line class="cls-7" x1="348.99" y1="116.43" x2="394.13" y2="115.23"/><line class="cls-7" x1="348.99" y1="140.73" x2="394.13" y2="139.53"/><line class="cls-7" x1="348.99" y1="165.04" x2="394.13" y2="163.84"/><line class="cls-6" x1="252.72" y1="14.15" x2="297.53" y2="12.95"/><line class="cls-6" x1="297.53" y1="12.95" x2="343.83" y2="11.72"/><line class="cls-6" x1="441.75" y1="14.57" x2="471.42" y2="13.78"/><line class="cls-6" x1="471.42" y1="13.78" x2="496.35" y2="13.12"/><line class="cls-6" x1="176.62" y1="21.57" x2="206.46" y2="20.78"/><line class="cls-6" x1="206.46" y1="20.78" x2="227.48" y2="20.22"/><line class="cls-6" x1="348.99" y1="196.55" x2="348.99" y2="189.34"/><line class="cls-6" x1="348.99" y1="189.34" x2="348.99" y2="172.24"/><line class="cls-6" x1="348.99" y1="172.24" x2="348.99" y2="165.04"/><line class="cls-6" x1="348.99" y1="165.04" x2="348.99" y2="147.94"/><line class="cls-6" x1="348.99" y1="99.33" x2="348.99" y2="92.13"/><line class="cls-6" x1="348.99" y1="92.13" x2="348.99" y2="75.02"/><line class="cls-6" x1="348.99" y1="75.02" x2="348.99" y2="67.82"/><line class="cls-6" x1="348.99" y1="67.82" x2="348.99" y2="50.72"/><line class="cls-6" x1="348.99" y1="50.72" x2="348.99" y2="43.52"/><line class="cls-6" x1="348.99" y1="43.52" x2="348.99" y2="26.42"/><line class="cls-6" x1="348.99" y1="123.63" x2="348.99" y2="116.43"/><line class="cls-6" x1="348.99" y1="116.43" x2="348.99" y2="99.33"/><line class="cls-6" x1="348.99" y1="147.94" x2="348.99" y2="140.73"/><line class="cls-6" x1="348.99" y1="140.73" x2="348.99" y2="123.63"/></g><text class="cls-8" transform="translate(241.22 234.95)"><tspan class="cls-9">P<tspan class="cls-10" x="9.6" y="0">atricio Sanz No. 37</tspan></tspan><tspan class="cls-11"><tspan x="0" y="16.8" xml:space="preserve">Delegaci칩n  Benito Ju치rez</tspan></tspan></text></g></g></svg>