<svg xmlns="http://www.w3.org/2000/svg" viewBox="0 0 205.69 111.83"><defs><style>.cls-1{fill:#eee;}.cls-2{fill:#e9e9e9;}.cls-3{fill:silver;}.cls-4{fill:#f2f2f2;}.cls-5,.cls-6{fill:none;stroke:#6d0e29;stroke-miterlimit:10;}.cls-6{stroke-width:0.5px;}.cls-7{font-size:16px;fill:#fff;font-family:Lato-Bold, Lato;}.cls-8{font-weight:700;}.cls-9{font-size:14px;fill:#f1f1f1;font-family:Lato-Regular, Lato;}</style></defs><title>salvadordmiron155.cu</title><g id="Capa_2" data-name="Capa 2"><g id="edificios"><g id="salvador_díaz_mirón_155_cuauhtémoc" data-name="salvador díaz mirón 155, cuauhtémoc"><polygon class="cls-1" points="149.69 44.47 117.73 62.16 117.73 39.59 149.69 26.75 149.69 44.47"/><polygon class="cls-2" points="117.73 62.16 54.18 36.44 54.18 20.92 117.73 39.59 117.73 62.16"/><polygon class="cls-3" points="54.18 5.4 96.76 0.5 108.63 1.95 102.31 2.79 108.63 3.62 149.69 9.03 117.73 17.03 54.18 5.4"/><polygon class="cls-2" points="54.18 5.4 117.73 17.03 117.73 39.59 54.18 20.92 54.18 5.4"/><polygon class="cls-4" points="102.31 2.79 108.63 1.95 108.63 3.62 102.31 2.79"/><polygon class="cls-1" points="117.73 17.03 149.69 9.03 149.69 26.75 117.73 39.59 117.73 17.03"/><line class="cls-5" x1="149.69" y1="44.47" x2="117.73" y2="62.16"/><line class="cls-5" x1="117.73" y1="62.16" x2="54.18" y2="36.44"/><line class="cls-6" x1="117.73" y1="17.03" x2="54.18" y2="5.4"/><line class="cls-5" x1="54.18" y1="5.4" x2="96.76" y2="0.5"/><line class="cls-5" x1="96.76" y1="0.5" x2="108.63" y2="1.95"/><line class="cls-6" x1="108.63" y1="1.95" x2="102.32" y2="2.79"/><line class="cls-6" x1="149.69" y1="9.03" x2="117.73" y2="17.03"/><line class="cls-5" x1="54.18" y1="36.44" x2="54.18" y2="20.92"/><line class="cls-6" x1="117.73" y1="62.16" x2="117.73" y2="39.59"/><line class="cls-5" x1="149.69" y1="44.47" x2="149.69" y2="26.75"/><line class="cls-6" x1="117.73" y1="39.59" x2="117.73" y2="17.03"/><line class="cls-5" x1="108.63" y1="3.62" x2="108.63" y2="1.95"/><line class="cls-5" x1="54.18" y1="20.92" x2="54.18" y2="5.4"/><line class="cls-6" x1="54.18" y1="20.92" x2="117.73" y2="39.59"/><line class="cls-5" x1="149.69" y1="26.75" x2="149.69" y2="9.03"/><line class="cls-6" x1="117.73" y1="39.59" x2="149.69" y2="26.75"/><line class="cls-5" x1="102.32" y1="2.79" x2="108.63" y2="3.62"/><line class="cls-5" x1="108.63" y1="3.62" x2="149.69" y2="9.03"/></g><text class="cls-7" transform="translate(0 92.46)"><tspan class="cls-8">Salvador Díaz Mirón No. 155</tspan><tspan class="cls-9"><tspan x="0" y="16.8" xml:space="preserve">Delegación  Cuauhtémoc</tspan></tspan></text></g></g></svg>