<svg xmlns="http://www.w3.org/2000/svg" viewBox="0 0 281.51 245.66"><defs><style>.cls-1{fill:#d4d4d4;}.cls-2{fill:#e9e9e9;}.cls-3{fill:#6d0e29;}.cls-4{fill:#da1549;}.cls-5{fill:#a21239;}.cls-6,.cls-7{fill:none;stroke:#6d0e29;stroke-miterlimit:10;}.cls-7{stroke-width:0.5px;}.cls-8{font-size:16px;fill:#fff;font-family:Lato-Bold, Lato;}.cls-9{font-weight:700;}.cls-10{letter-spacing:-0.01em;}.cls-11{letter-spacing:0em;}.cls-12{font-size:14px;fill:#f1f1f1;font-family:Lato-Regular, Lato;}</style></defs><title>saratoga714.bj_1</title><g id="Capa_2" data-name="Capa 2"><g id="edificios"><g id="saratoga_714_benito_ju치rez" data-name="saratoga 714, benito ju치rez"><polygon class="cls-1" points="281 76.08 266.65 89.6 266.65 73.09 281 61.43 281 76.08"/><polygon class="cls-2" points="266.65 89.6 262.25 89.15 262.25 76.66 262.25 72.7 266.65 73.09 266.65 89.6"/><polygon class="cls-1" points="262.25 93.73 218.8 134.64 218.8 111.94 262.25 76.66 262.25 89.15 262.25 93.73"/><polygon class="cls-2" points="218.8 134.64 209.26 133.23 209.26 119.78 209.26 110.72 218.8 111.94 218.8 134.64"/><polygon class="cls-1" points="209.26 143.63 159.27 190.68 159.27 160.39 209.26 119.78 209.26 133.23 209.26 143.63"/><polygon class="cls-2" points="159.27 190.68 0.5 157.57 0.5 131.81 159.27 160.39 159.27 190.68"/><path class="cls-3" d="M187.88,14.06l15.48-2.88-45.5-1.71L141.8,12.18l16.06.66ZM.5,28.78,67,18.78l27,1.37,7.5.38,24.91-4.34L94,14.72l61-9.17,13.5.46,16.45.56L197,4.43l-28.57-.91,20.1-3,29.25.83-8.48,1.53,8.48.25,23.9.72,7.19-1.62L281,3.12,266.65,7.38l-18.84-.61-5,1.26,5,.17,14.45.49L218.8,21.56l-24.7-1.15-10.64,2.7,10.64.53,15.15.75-50,14.82Z"/><polygon class="cls-4" points="0.5 28.78 159.27 39.21 159.27 69.5 0.5 54.54 0.5 28.78"/><polygon class="cls-4" points="126.42 16.19 101.5 20.53 94 20.15 94 14.72 126.42 16.19"/><polygon class="cls-4" points="197.04 4.43 184.92 6.57 168.47 6.01 168.47 3.52 197.04 4.43"/><polygon class="cls-5" points="209.34 2.86 217.82 1.33 217.82 3.11 209.34 2.86"/><polygon class="cls-5" points="266.65 7.38 281 3.12 281 17.49 266.65 23.57 266.65 7.38"/><polygon class="cls-4" points="247.81 6.77 266.65 7.38 266.65 23.57 262.25 23.37 262.25 8.68 247.81 8.2 247.81 6.77"/><polygon class="cls-5" points="242.85 8.03 247.81 6.77 247.81 8.2 242.85 8.03"/><polygon class="cls-5" points="218.8 21.56 262.25 8.68 262.25 23.37 262.25 25.43 218.8 43.83 218.8 21.56"/><polygon class="cls-4" points="194.1 20.41 218.8 21.56 218.8 43.83 209.26 43.2 209.26 24.39 194.1 23.64 194.1 20.41"/><polygon class="cls-5" points="183.46 23.12 194.1 20.41 194.1 23.64 183.46 23.12"/><polygon class="cls-5" points="159.27 39.21 209.26 24.39 209.26 43.2 209.26 48.24 159.27 69.5 159.27 39.21"/><polygon class="cls-5" points="159.27 69.5 209.26 48.24 209.26 65.7 209.26 72.09 159.27 99.8 159.27 69.5"/><polygon class="cls-4" points="0.5 54.54 159.27 69.5 159.27 99.8 0.5 80.3 0.5 54.54"/><polygon class="cls-2" points="0.5 106.05 0.5 80.3 159.27 99.8 159.27 130.09 0.5 106.05"/><polygon class="cls-1" points="159.27 130.09 159.27 99.8 209.26 72.09 209.26 88.21 209.26 95.93 159.27 130.09"/><polygon class="cls-1" points="159.27 130.09 209.26 95.93 209.26 110.72 209.26 119.78 159.27 160.39 159.27 130.09"/><polygon class="cls-2" points="0.5 106.05 159.27 130.09 159.27 160.39 0.5 131.81 0.5 106.05"/><polygon class="cls-4" points="209.26 43.2 218.8 43.83 218.8 66.53 209.26 65.7 209.26 48.24 209.26 43.2"/><polygon class="cls-5" points="218.8 66.53 218.8 43.83 262.25 25.43 262.25 39.81 262.25 42.51 218.8 66.53"/><polygon class="cls-2" points="209.26 65.7 218.8 66.53 218.8 89.23 209.26 88.21 209.26 72.09 209.26 65.7"/><polygon class="cls-1" points="218.8 89.23 218.8 66.53 262.25 42.51 262.25 56.26 262.25 59.58 218.8 89.23"/><polygon class="cls-2" points="209.26 88.21 218.8 89.23 218.8 111.94 209.26 110.72 209.26 95.93 209.26 88.21"/><polygon class="cls-1" points="218.8 111.94 218.8 89.23 262.25 59.58 262.25 72.7 262.25 76.66 218.8 111.94"/><polygon class="cls-4" points="262.25 23.37 266.65 23.57 266.65 40.08 262.25 39.81 262.25 25.43 262.25 23.37"/><polygon class="cls-5" points="266.65 40.08 266.65 23.57 281 17.49 281 32.14 266.65 40.08"/><polygon class="cls-2" points="262.25 39.81 266.65 40.08 266.65 56.59 262.25 56.26 262.25 42.51 262.25 39.81"/><polygon class="cls-1" points="266.65 56.59 266.65 40.08 281 32.14 281 46.79 266.65 56.59"/><polygon class="cls-2" points="262.25 56.26 266.65 56.59 266.65 73.09 262.25 72.7 262.25 59.58 262.25 56.26"/><polygon class="cls-1" points="266.65 73.09 266.65 56.59 281 46.79 281 61.43 266.65 73.09"/><polygon class="cls-4" points="203.36 11.18 187.88 14.06 157.86 12.83 157.86 9.47 203.36 11.18"/><polygon class="cls-5" points="141.8 12.18 157.86 9.47 157.86 12.83 141.8 12.18"/><line class="cls-6" x1="281.01" y1="76.08" x2="266.65" y2="89.6"/><line class="cls-6" x1="266.65" y1="89.6" x2="262.26" y2="89.15"/><line class="cls-6" x1="262.26" y1="93.73" x2="218.8" y2="134.64"/><line class="cls-6" x1="218.8" y1="134.64" x2="209.26" y2="133.23"/><line class="cls-6" x1="209.26" y1="143.63" x2="159.27" y2="190.68"/><line class="cls-6" x1="159.27" y1="190.68" x2="0.5" y2="157.57"/><line class="cls-7" x1="159.27" y1="39.21" x2="0.5" y2="28.78"/><line class="cls-6" x1="0.5" y1="28.78" x2="67.03" y2="18.78"/><line class="cls-6" x1="101.5" y1="20.53" x2="126.41" y2="16.19"/><line class="cls-7" x1="126.41" y1="16.19" x2="94" y2="14.72"/><line class="cls-6" x1="94" y1="14.72" x2="154.97" y2="5.55"/><line class="cls-6" x1="184.92" y1="6.57" x2="197.04" y2="4.43"/><line class="cls-7" x1="197.04" y1="4.43" x2="168.47" y2="3.52"/><line class="cls-6" x1="168.47" y1="3.52" x2="188.57" y2="0.5"/><line class="cls-6" x1="188.57" y1="0.5" x2="217.82" y2="1.33"/><line class="cls-7" x1="217.82" y1="1.33" x2="209.34" y2="2.86"/><line class="cls-6" x1="241.73" y1="3.83" x2="248.92" y2="2.21"/><line class="cls-6" x1="248.92" y1="2.21" x2="281.01" y2="3.12"/><line class="cls-7" x1="281.01" y1="3.12" x2="266.65" y2="7.38"/><line class="cls-7" x1="266.65" y1="7.38" x2="247.81" y2="6.77"/><line class="cls-7" x1="247.81" y1="6.77" x2="242.85" y2="8.03"/><line class="cls-7" x1="262.26" y1="8.68" x2="218.8" y2="21.56"/><line class="cls-7" x1="218.8" y1="21.56" x2="194.1" y2="20.42"/><line class="cls-7" x1="194.1" y1="20.42" x2="183.46" y2="23.12"/><line class="cls-7" x1="209.26" y1="24.39" x2="159.27" y2="39.21"/><line class="cls-6" x1="187.88" y1="14.06" x2="203.36" y2="11.18"/><line class="cls-7" x1="203.36" y1="11.18" x2="157.86" y2="9.47"/><line class="cls-7" x1="157.86" y1="9.47" x2="141.8" y2="12.18"/><line class="cls-6" x1="0.5" y1="157.57" x2="0.5" y2="131.81"/><line class="cls-7" x1="159.27" y1="190.68" x2="159.27" y2="160.39"/><line class="cls-6" x1="281.01" y1="76.08" x2="281.01" y2="61.43"/><line class="cls-7" x1="266.65" y1="89.6" x2="266.65" y2="73.09"/><line class="cls-7" x1="218.8" y1="134.64" x2="218.8" y2="111.94"/><line class="cls-7" x1="157.86" y1="12.83" x2="157.86" y2="9.47"/><line class="cls-7" x1="159.27" y1="69.5" x2="159.27" y2="39.21"/><line class="cls-7" x1="159.27" y1="69.5" x2="209.26" y2="48.24"/><line class="cls-6" x1="0.5" y1="54.54" x2="0.5" y2="28.78"/><line class="cls-7" x1="159.27" y1="69.5" x2="0.5" y2="54.54"/><line class="cls-7" x1="159.27" y1="130.09" x2="159.27" y2="99.8"/><line class="cls-7" x1="159.27" y1="130.09" x2="209.26" y2="95.93"/><line class="cls-6" x1="0.5" y1="106.05" x2="0.5" y2="80.3"/><line class="cls-7" x1="159.27" y1="130.09" x2="0.5" y2="106.05"/><line class="cls-7" x1="159.27" y1="99.8" x2="159.27" y2="69.5"/><line class="cls-7" x1="159.27" y1="99.8" x2="209.26" y2="72.09"/><line class="cls-7" x1="159.27" y1="160.39" x2="159.27" y2="130.09"/><line class="cls-7" x1="159.27" y1="160.39" x2="209.26" y2="119.78"/><line class="cls-6" x1="0.5" y1="80.3" x2="0.5" y2="54.54"/><line class="cls-7" x1="159.27" y1="99.8" x2="0.5" y2="80.3"/><line class="cls-6" x1="0.5" y1="131.81" x2="0.5" y2="106.05"/><line class="cls-7" x1="0.5" y1="131.81" x2="159.27" y2="160.39"/><line class="cls-7" x1="194.1" y1="23.64" x2="194.1" y2="20.42"/><line class="cls-7" x1="218.8" y1="43.83" x2="218.8" y2="21.56"/><line class="cls-7" x1="209.26" y1="43.2" x2="218.8" y2="43.83"/><line class="cls-7" x1="218.8" y1="89.23" x2="218.8" y2="66.53"/><line class="cls-7" x1="218.8" y1="89.23" x2="209.26" y2="88.21"/><line class="cls-7" x1="218.8" y1="66.53" x2="218.8" y2="43.83"/><line class="cls-7" x1="218.8" y1="66.53" x2="209.26" y2="65.71"/><line class="cls-7" x1="218.8" y1="111.94" x2="218.8" y2="89.23"/><line class="cls-7" x1="218.8" y1="111.94" x2="209.26" y2="110.72"/><line class="cls-7" x1="218.8" y1="43.83" x2="262.26" y2="25.43"/><line class="cls-7" x1="218.8" y1="89.23" x2="262.26" y2="59.58"/><line class="cls-7" x1="262.26" y1="42.51" x2="218.8" y2="66.53"/><line class="cls-7" x1="262.26" y1="76.66" x2="218.8" y2="111.94"/><line class="cls-7" x1="247.81" y1="8.2" x2="247.81" y2="6.77"/><line class="cls-7" x1="266.65" y1="23.57" x2="266.65" y2="7.38"/><line class="cls-7" x1="262.26" y1="23.37" x2="266.65" y2="23.57"/><line class="cls-7" x1="266.65" y1="56.58" x2="266.65" y2="40.08"/><line class="cls-7" x1="266.65" y1="56.58" x2="262.26" y2="56.26"/><line class="cls-7" x1="266.65" y1="40.08" x2="266.65" y2="23.57"/><line class="cls-7" x1="266.65" y1="40.08" x2="262.26" y2="39.81"/><line class="cls-7" x1="266.65" y1="73.09" x2="266.65" y2="56.58"/><line class="cls-7" x1="266.65" y1="73.09" x2="262.26" y2="72.7"/><line class="cls-6" x1="281.01" y1="17.49" x2="281.01" y2="3.12"/><line class="cls-7" x1="266.65" y1="23.57" x2="281.01" y2="17.49"/><line class="cls-6" x1="281.01" y1="46.79" x2="281.01" y2="32.14"/><line class="cls-7" x1="281.01" y1="46.79" x2="266.65" y2="56.58"/><line class="cls-6" x1="281.01" y1="32.14" x2="281.01" y2="17.49"/><line class="cls-7" x1="281.01" y1="32.14" x2="266.65" y2="40.08"/><line class="cls-6" x1="281.01" y1="61.43" x2="281.01" y2="46.79"/><line class="cls-7" x1="281.01" y1="61.43" x2="266.65" y2="73.09"/><line class="cls-6" x1="217.82" y1="3.11" x2="217.82" y2="1.33"/><line class="cls-6" x1="168.47" y1="6.01" x2="168.47" y2="3.52"/><line class="cls-6" x1="94" y1="20.15" x2="94" y2="14.72"/><line class="cls-6" x1="67.03" y1="18.78" x2="94" y2="20.15"/><line class="cls-6" x1="94" y1="20.15" x2="101.5" y2="20.53"/><line class="cls-6" x1="154.97" y1="5.55" x2="168.47" y2="6.01"/><line class="cls-6" x1="168.47" y1="6.01" x2="184.92" y2="6.57"/><line class="cls-6" x1="209.34" y1="2.86" x2="217.82" y2="3.11"/><line class="cls-6" x1="217.82" y1="3.11" x2="241.73" y2="3.83"/><line class="cls-6" x1="242.85" y1="8.03" x2="247.81" y2="8.2"/><line class="cls-6" x1="247.81" y1="8.2" x2="262.26" y2="8.68"/><line class="cls-6" x1="183.46" y1="23.12" x2="194.1" y2="23.64"/><line class="cls-6" x1="194.1" y1="23.64" x2="209.26" y2="24.39"/><line class="cls-6" x1="141.8" y1="12.18" x2="157.86" y2="12.83"/><line class="cls-6" x1="157.86" y1="12.83" x2="187.88" y2="14.06"/><line class="cls-6" x1="262.26" y1="93.73" x2="262.26" y2="89.15"/><line class="cls-6" x1="262.26" y1="89.15" x2="262.26" y2="76.66"/><line class="cls-6" x1="209.26" y1="143.63" x2="209.26" y2="133.23"/><line class="cls-6" x1="209.26" y1="133.23" x2="209.26" y2="119.78"/><line class="cls-6" x1="209.26" y1="48.24" x2="209.26" y2="43.2"/><line class="cls-6" x1="209.26" y1="43.2" x2="209.26" y2="24.39"/><line class="cls-6" x1="209.26" y1="95.93" x2="209.26" y2="88.21"/><line class="cls-6" x1="209.26" y1="88.21" x2="209.26" y2="72.09"/><line class="cls-6" x1="209.26" y1="72.09" x2="209.26" y2="65.71"/><line class="cls-6" x1="209.26" y1="65.71" x2="209.26" y2="48.24"/><line class="cls-6" x1="209.26" y1="119.78" x2="209.26" y2="110.72"/><line class="cls-6" x1="209.26" y1="110.72" x2="209.26" y2="95.93"/><line class="cls-6" x1="262.26" y1="25.43" x2="262.26" y2="23.37"/><line class="cls-6" x1="262.26" y1="23.37" x2="262.26" y2="8.68"/><line class="cls-6" x1="262.26" y1="59.58" x2="262.26" y2="56.26"/><line class="cls-6" x1="262.26" y1="56.26" x2="262.26" y2="42.51"/><line class="cls-6" x1="262.26" y1="42.51" x2="262.26" y2="39.81"/><line class="cls-6" x1="262.26" y1="39.81" x2="262.26" y2="25.43"/><line class="cls-6" x1="262.26" y1="76.66" x2="262.26" y2="72.7"/><line class="cls-6" x1="262.26" y1="72.7" x2="262.26" y2="59.58"/></g><text class="cls-8" transform="translate(56.92 226.3)"><tspan class="cls-9">Sa<tspan class="cls-10" x="16.96" y="0">r</tspan><tspan class="cls-11" x="23.26" y="0">atoga No. 714</tspan></tspan><tspan class="cls-12"><tspan x="0" y="16.8" xml:space="preserve">Delegaci칩n  Benito Ju치rez</tspan></tspan></text></g></g></svg>