<svg xmlns="http://www.w3.org/2000/svg" viewBox="0 0 239.14 351"><defs><style>.cls-1{fill:#cdcdcd;}.cls-2{fill:#f1f1f1;}.cls-3{fill:#d4d4d4;}.cls-4{fill:#a7a7a7;}.cls-5,.cls-6{fill:none;stroke:#6d0e29;stroke-miterlimit:10;}.cls-6{stroke-width:0.5px;}</style></defs><title>amsterdam107</title><g id="Capa_2" data-name="Capa 2"><g id="edificios_solos" data-name="edificios solos"><g id="amsterdam_107_cuauhtémoc" data-name="amsterdam 107, cuauhtémoc"><polygon class="cls-1" points="238.63 292.84 226.58 350.48 226.2 322.02 238.43 266.12 238.63 292.84"/><polygon class="cls-2" points="226.58 350.48 29.46 339.91 26.57 311.75 226.2 322.02 226.58 350.48"/><polygon class="cls-3" points="0.5 57.73 54.76 0.5 155.04 3.22 144.23 21.65 149.25 21.8 146.8 25.73 149.41 25.8 155.94 25.99 178.69 26.65 179.25 25.59 236.59 27.24 222.75 64.65 0.5 57.73"/><polygon class="cls-1" points="222.75 64.65 236.59 27.24 236.84 59.8 223.22 100.03 222.75 64.65"/><polygon class="cls-2" points="0.5 57.73 222.75 64.65 223.22 100.03 4.08 92.59 0.5 57.73"/><polygon class="cls-4" points="144.23 21.65 155.04 3.22 155.94 25.99 149.41 25.8 149.25 21.8 144.23 21.65"/><polygon class="cls-4" points="146.8 25.73 149.25 21.8 149.41 25.8 146.8 25.73"/><polygon class="cls-1" points="223.22 100.03 236.84 59.8 237.08 91.53 223.68 134.42 223.22 100.03"/><polygon class="cls-2" points="4.08 92.59 223.22 100.03 223.68 134.42 7.55 126.49 4.08 92.59"/><polygon class="cls-1" points="237.55 152.62 237.78 182.04 224.99 232.01 224.57 200.37 237.55 152.62"/><polygon class="cls-2" points="224.57 200.37 224.99 232.01 17.44 222.81 14.23 191.57 224.57 200.37"/><polygon class="cls-1" points="224.99 232.01 237.78 182.04 238 210.75 225.41 262.81 224.99 232.01"/><polygon class="cls-1" points="237.08 91.53 237.32 122.46 224.13 167.85 223.68 134.42 237.08 91.53"/><polygon class="cls-2" points="223.68 134.42 224.13 167.85 10.94 159.47 7.55 126.49 223.68 134.42"/><polygon class="cls-1" points="224.13 167.85 237.32 122.46 237.55 152.62 224.57 200.37 224.13 167.85"/><polygon class="cls-2" points="224.13 167.85 224.57 200.37 14.23 191.57 10.94 159.47 224.13 167.85"/><polygon class="cls-1" points="238 210.75 238.22 238.77 225.81 292.8 225.41 262.81 238 210.75"/><polygon class="cls-2" points="225.41 262.81 225.81 292.8 23.6 282.87 20.56 253.23 225.41 262.81"/><polygon class="cls-1" points="225.81 292.8 238.22 238.77 238.43 266.12 226.2 322.02 225.81 292.8"/><polygon class="cls-2" points="224.99 232.01 225.41 262.81 20.56 253.23 17.44 222.81 224.99 232.01"/><polygon class="cls-2" points="225.81 292.8 226.2 322.02 26.57 311.75 23.6 282.87 225.81 292.8"/><line class="cls-5" x1="238.64" y1="292.84" x2="226.58" y2="350.48"/><line class="cls-5" x1="226.58" y1="350.48" x2="29.46" y2="339.91"/><line class="cls-6" x1="236.59" y1="27.24" x2="222.75" y2="64.65"/><line class="cls-6" x1="222.75" y1="64.65" x2="0.5" y2="57.73"/><line class="cls-5" x1="0.5" y1="57.73" x2="54.76" y2="0.5"/><line class="cls-5" x1="54.76" y1="0.5" x2="155.04" y2="3.22"/><line class="cls-6" x1="155.04" y1="3.22" x2="144.23" y2="21.65"/><line class="cls-5" x1="144.23" y1="21.65" x2="149.25" y2="21.8"/><line class="cls-6" x1="149.25" y1="21.8" x2="146.8" y2="25.73"/><line class="cls-5" x1="178.69" y1="26.65" x2="179.25" y2="25.59"/><line class="cls-5" x1="179.25" y1="25.59" x2="236.59" y2="27.24"/><line class="cls-6" x1="226.58" y1="350.48" x2="226.2" y2="322.02"/><line class="cls-5" x1="238.64" y1="292.84" x2="238.43" y2="266.12"/><line class="cls-5" x1="29.46" y1="339.91" x2="26.57" y2="311.75"/><line class="cls-6" x1="223.22" y1="100.03" x2="222.75" y2="64.65"/><line class="cls-5" x1="236.84" y1="59.8" x2="236.59" y2="27.24"/><line class="cls-6" x1="223.22" y1="100.03" x2="236.84" y2="59.8"/><line class="cls-5" x1="4.08" y1="92.59" x2="0.5" y2="57.73"/><line class="cls-6" x1="223.22" y1="100.03" x2="4.08" y2="92.59"/><line class="cls-6" x1="224.99" y1="232.01" x2="224.57" y2="200.37"/><line class="cls-5" x1="237.78" y1="182.04" x2="237.55" y2="152.62"/><line class="cls-6" x1="224.99" y1="232.01" x2="237.78" y2="182.04"/><line class="cls-6" x1="224.13" y1="167.85" x2="223.68" y2="134.42"/><line class="cls-5" x1="237.32" y1="122.46" x2="237.08" y2="91.53"/><line class="cls-6" x1="224.13" y1="167.85" x2="237.32" y2="122.46"/><line class="cls-6" x1="223.68" y1="134.42" x2="223.22" y2="100.03"/><line class="cls-5" x1="237.08" y1="91.53" x2="236.84" y2="59.8"/><line class="cls-6" x1="223.68" y1="134.42" x2="237.08" y2="91.53"/><line class="cls-6" x1="224.57" y1="200.37" x2="224.13" y2="167.85"/><line class="cls-5" x1="237.55" y1="152.62" x2="237.32" y2="122.46"/><line class="cls-6" x1="224.57" y1="200.37" x2="237.55" y2="152.62"/><line class="cls-6" x1="225.81" y1="292.8" x2="225.41" y2="262.81"/><line class="cls-5" x1="238.22" y1="238.77" x2="238" y2="210.75"/><line class="cls-6" x1="225.81" y1="292.8" x2="238.22" y2="238.77"/><line class="cls-6" x1="225.41" y1="262.81" x2="224.99" y2="232.01"/><line class="cls-5" x1="238" y1="210.75" x2="237.78" y2="182.04"/><line class="cls-6" x1="225.41" y1="262.81" x2="238" y2="210.75"/><line class="cls-6" x1="226.2" y1="322.02" x2="225.81" y2="292.8"/><line class="cls-5" x1="238.43" y1="266.12" x2="238.22" y2="238.77"/><line class="cls-6" x1="226.2" y1="322.02" x2="238.43" y2="266.12"/><line class="cls-5" x1="17.44" y1="222.81" x2="14.23" y2="191.57"/><line class="cls-6" x1="224.99" y1="232.01" x2="17.44" y2="222.81"/><line class="cls-5" x1="10.94" y1="159.47" x2="7.55" y2="126.49"/><line class="cls-6" x1="10.94" y1="159.47" x2="224.13" y2="167.85"/><line class="cls-5" x1="7.55" y1="126.49" x2="4.08" y2="92.59"/><line class="cls-6" x1="7.55" y1="126.49" x2="223.68" y2="134.42"/><line class="cls-5" x1="14.23" y1="191.57" x2="10.94" y2="159.47"/><line class="cls-6" x1="14.23" y1="191.57" x2="224.57" y2="200.37"/><line class="cls-5" x1="23.6" y1="282.87" x2="20.56" y2="253.23"/><line class="cls-6" x1="23.6" y1="282.87" x2="225.81" y2="292.8"/><line class="cls-5" x1="20.56" y1="253.23" x2="17.44" y2="222.81"/><line class="cls-6" x1="20.56" y1="253.23" x2="225.41" y2="262.81"/><line class="cls-5" x1="26.57" y1="311.75" x2="23.6" y2="282.87"/><line class="cls-6" x1="26.57" y1="311.75" x2="226.2" y2="322.02"/><line class="cls-5" x1="149.42" y1="25.8" x2="149.25" y2="21.8"/><line class="cls-5" x1="155.94" y1="25.99" x2="155.04" y2="3.22"/><line class="cls-5" x1="146.8" y1="25.73" x2="149.42" y2="25.8"/><line class="cls-5" x1="149.42" y1="25.8" x2="155.94" y2="25.99"/><line class="cls-5" x1="155.94" y1="25.99" x2="178.69" y2="26.65"/><line class="cls-5" x1="226.88" y1="350.5" x2="29.46" y2="339.91"/></g></g></g></svg>