<svg xmlns="http://www.w3.org/2000/svg" viewBox="0 0 500.49 103.74"><defs><style>.cls-1{fill:#d4d4d4;}.cls-2{fill:#fdfdfd;}.cls-3{fill:#e9e9e9;}.cls-4{fill:silver;}.cls-5{fill:#9a9a94;}.cls-6{fill:#d7d6cd;}.cls-7{fill:#b9b9b1;}.cls-8{fill:#bdbdb8;}.cls-9{fill:#b7b7af;}.cls-10{fill:#f2f2eb;}.cls-11{fill:none;stroke:#6d0e29;stroke-miterlimit:10;stroke-width:0.5px;}</style></defs><title>calhuezo480_1</title><g id="Capa_2" data-name="Capa 2"><g id="edificios_solos" data-name="edificios solos"><g id="calzada_del_hueso_480_coyoacán" data-name="calzada del hueso 480, coyoacán"><polygon class="cls-1" points="30.99 103.49 10.95 76.34 5.71 50.12 25.09 71.94 30.99 103.49"/><polygon class="cls-2" points="489.21 80.22 365.69 93.15 368.57 63.6 494.6 53.22 489.21 80.22"/><polygon class="cls-2" points="365.69 93.15 302.64 73.6 303.07 63.71 303.75 47.92 368.57 63.6 365.69 93.15"/><polygon class="cls-1" points="303.07 63.71 292.41 60.69 293.2 37.63 304.09 40.03 303.75 47.92 303.07 63.71"/><polygon class="cls-2" points="292.41 60.69 272.49 64.26 272.92 40.47 293.2 37.63 292.41 60.69"/><polygon class="cls-3" points="272.49 64.26 245.95 56.03 245.87 33.93 272.92 40.47 272.49 64.26"/><polygon class="cls-2" points="245.95 56.03 181.63 66.24 180.78 51.34 180.25 42.05 245.87 33.93 245.95 56.03"/><polygon class="cls-2" points="182.29 77.87 30.99 103.49 25.09 71.94 180.78 51.34 181.63 66.24 182.29 77.87"/><polygon class="cls-2" points="494.6 53.22 368.57 63.6 371.4 34.52 499.89 26.76 494.6 53.22"/><polygon class="cls-2" points="180.78 51.34 25.09 71.94 19.25 40.77 21.12 42.66 179.4 27.05 180.25 42.05 180.78 51.34"/><polygon class="cls-3" points="272.92 40.47 245.87 33.93 245.8 13.86 271.06 18.41 273.33 18.17 272.92 40.47"/><polygon class="cls-2" points="245.8 13.86 245.87 33.93 180.25 42.05 179.4 27.05 189.78 26.03 189.69 24.25 185.2 23.04 174.61 20.33 245.51 13.81 245.8 13.86"/><polygon class="cls-2" points="293.2 37.63 272.92 40.47 273.33 18.17 289.41 16.51 293.91 17.25 293.2 37.63"/><polygon class="cls-1" points="293.2 37.63 293.91 17.25 308.35 19.65 297.26 20.89 297.19 22.59 304.79 23.95 304.09 40.03 293.2 37.63"/><polygon class="cls-2" points="368.57 63.6 303.75 47.92 304.09 40.03 304.79 23.95 367.43 35.13 371.4 34.52 368.57 63.6"/><polygon class="cls-1" points="25.09 71.94 5.71 50.12 0.59 24.45 19.25 40.77 25.09 71.94"/><polygon class="cls-3" points="371.4 34.52 367.43 35.13 367.62 33.14 371.6 32.53 371.4 34.52"/><polygon class="cls-3" points="367.62 33.14 367.43 35.13 304.79 23.95 297.19 22.59 297.26 20.89 303.1 21.91 306.94 22.58 367.62 33.14"/><polygon class="cls-4" points="371.6 32.53 367.62 33.14 306.94 22.58 311.63 22.03 326.09 20.34 293.98 15.19 292.09 15.38 289.46 14.96 271.08 16.81 245.5 12.32 169.84 19.1 169.85 19.28 160.08 20.16 172.41 23.5 178.98 25.28 20.72 40.48 18.85 38.64 2.14 24.33 294.21 1.43 490.13 25.56 371.6 32.53"/><polygon class="cls-5" points="293.98 15.19 326.09 20.34 311.63 22.03 307.77 21.37 314.25 20.63 314.33 18.98 292.09 15.38 293.98 15.19"/><polygon class="cls-5" points="311.63 22.03 306.94 22.58 303.1 21.91 307.77 21.37 311.63 22.03"/><polygon class="cls-6" points="307.77 21.37 303.1 21.91 297.26 20.89 308.35 19.65 314.33 18.98 314.25 20.63 307.77 21.37"/><polygon class="cls-3" points="169.84 19.1 245.5 12.32 245.51 13.81 174.61 20.33 169.84 19.1"/><polygon class="cls-3" points="245.51 13.81 245.5 12.32 271.08 16.81 271.06 18.41 245.8 13.86 245.51 13.81"/><polygon class="cls-3" points="271.06 18.41 271.08 16.81 289.46 14.96 289.41 16.51 273.33 18.17 271.06 18.41"/><polygon class="cls-3" points="289.41 16.51 289.46 14.96 292.09 15.38 314.33 18.98 308.35 19.65 293.91 17.25 289.41 16.51"/><polygon class="cls-7" points="294.25 0.25 500.25 24.97 490.13 25.56 294.21 1.43 294.25 0.25"/><polygon class="cls-6" points="0.24 22.71 294.25 0.25 294.21 1.43 2.14 24.33 0.24 22.71"/><polygon class="cls-8" points="18.85 38.64 20.72 40.48 21.12 42.66 19.25 40.77 18.85 38.64"/><polygon class="cls-9" points="185.2 23.04 189.69 24.25 185.28 24.67 185.2 23.04"/><polygon class="cls-3" points="19.25 40.77 0.59 24.45 0.24 22.71 2.14 24.33 18.85 38.64 19.25 40.77"/><polygon class="cls-5" points="172.41 23.5 160.08 20.16 169.85 19.28 169.94 20.76 178.24 22.94 172.41 23.5"/><polygon class="cls-7" points="178.24 22.94 169.94 20.76 169.85 19.28 169.84 19.1 174.61 20.33 185.2 23.04 185.06 23.03 185.28 24.67 184.97 24.7 178.24 22.94"/><polygon class="cls-10" points="185.28 24.67 185.06 23.03 185.2 23.04 185.28 24.67 185.28 24.67"/><polygon class="cls-5" points="178.24 22.94 184.97 24.7 178.98 25.28 172.41 23.5 178.24 22.94"/><polygon class="cls-3" points="499.89 26.76 371.4 34.52 371.6 32.53 490.13 25.56 500.25 24.97 499.89 26.76"/><polygon class="cls-3" points="21.12 42.66 20.72 40.48 178.98 25.28 184.97 24.7 185.28 24.67 185.28 24.67 189.69 24.25 189.78 26.03 179.4 27.05 21.12 42.66"/><line class="cls-11" x1="30.99" y1="103.49" x2="10.95" y2="76.34"/><line class="cls-11" x1="489.21" y1="80.22" x2="365.69" y2="93.15"/><line class="cls-11" x1="365.69" y1="93.15" x2="302.64" y2="73.6"/><line class="cls-11" x1="303.07" y1="63.71" x2="292.41" y2="60.69"/><line class="cls-11" x1="292.41" y1="60.69" x2="272.49" y2="64.26"/><line class="cls-11" x1="272.49" y1="64.26" x2="245.95" y2="56.03"/><line class="cls-11" x1="245.95" y1="56.03" x2="181.63" y2="66.24"/><line class="cls-11" x1="182.29" y1="77.87" x2="30.99" y2="103.49"/><line class="cls-11" x1="30.99" y1="103.49" x2="25.09" y2="71.94"/><line class="cls-11" x1="10.95" y1="76.34" x2="5.71" y2="50.11"/><line class="cls-11" x1="489.21" y1="80.22" x2="494.6" y2="53.21"/><line class="cls-11" x1="365.69" y1="93.15" x2="368.57" y2="63.6"/><line class="cls-11" x1="292.41" y1="60.69" x2="293.2" y2="37.63"/><line class="cls-11" x1="272.49" y1="64.26" x2="272.92" y2="40.47"/><line class="cls-11" x1="245.95" y1="56.03" x2="245.87" y2="33.93"/><line class="cls-11" x1="368.57" y1="63.6" x2="494.6" y2="53.21"/><line class="cls-11" x1="25.09" y1="71.94" x2="180.78" y2="51.34"/><line class="cls-11" x1="245.87" y1="33.93" x2="245.8" y2="13.86"/><line class="cls-11" x1="245.87" y1="33.93" x2="272.92" y2="40.47"/><line class="cls-11" x1="293.2" y1="37.63" x2="293.91" y2="17.25"/><line class="cls-11" x1="272.92" y1="40.47" x2="293.2" y2="37.63"/><line class="cls-11" x1="293.2" y1="37.63" x2="304.09" y2="40.03"/><line class="cls-11" x1="303.75" y1="47.92" x2="368.57" y2="63.6"/><line class="cls-11" x1="5.71" y1="50.11" x2="25.09" y2="71.94"/><line class="cls-11" x1="245.87" y1="33.93" x2="180.25" y2="42.05"/><line class="cls-11" x1="293.98" y1="15.19" x2="326.09" y2="20.34"/><line class="cls-11" x1="367.43" y1="35.13" x2="367.62" y2="33.14"/><line class="cls-11" x1="371.4" y1="34.51" x2="367.43" y2="35.13"/><line class="cls-11" x1="326.09" y1="20.34" x2="311.63" y2="22.03"/><line class="cls-11" x1="25.09" y1="71.94" x2="19.25" y2="40.77"/><line class="cls-11" x1="368.57" y1="63.6" x2="371.4" y2="34.51"/><line class="cls-11" x1="494.6" y1="53.21" x2="499.89" y2="26.76"/><line class="cls-11" x1="5.71" y1="50.11" x2="0.59" y2="24.45"/><line class="cls-11" x1="272.92" y1="40.47" x2="273.33" y2="18.17"/><line class="cls-11" x1="185.28" y1="24.67" x2="185.06" y2="23.03"/><line class="cls-11" x1="306.94" y1="22.58" x2="311.63" y2="22.03"/><line class="cls-11" x1="292.09" y1="15.38" x2="293.98" y2="15.19"/><line class="cls-11" x1="303.1" y1="21.91" x2="307.77" y2="21.37"/><line class="cls-11" x1="297.19" y1="22.59" x2="297.26" y2="20.89"/><line class="cls-11" x1="311.63" y1="22.03" x2="307.77" y2="21.37"/><line class="cls-11" x1="289.41" y1="16.51" x2="289.46" y2="14.96"/><line class="cls-11" x1="314.25" y1="20.63" x2="314.33" y2="18.98"/><line class="cls-11" x1="307.77" y1="21.37" x2="314.25" y2="20.63"/><line class="cls-11" x1="271.05" y1="18.41" x2="271.08" y2="16.81"/><line class="cls-11" x1="245.51" y1="13.81" x2="245.5" y2="12.33"/><line class="cls-11" x1="185.06" y1="23.03" x2="185.2" y2="23.04"/><line class="cls-11" x1="245.5" y1="12.33" x2="169.84" y2="19.1"/><line class="cls-11" x1="271.08" y1="16.81" x2="245.5" y2="12.33"/><line class="cls-11" x1="289.46" y1="14.96" x2="271.08" y2="16.81"/><line class="cls-11" x1="371.6" y1="32.53" x2="367.62" y2="33.14"/><line class="cls-11" x1="294.25" y1="0.25" x2="500.25" y2="24.97"/><line class="cls-11" x1="0.25" y1="22.71" x2="294.25" y2="0.25"/><line class="cls-11" x1="18.85" y1="38.64" x2="20.72" y2="40.48"/><line class="cls-11" x1="185.2" y1="23.04" x2="189.69" y2="24.25"/><line class="cls-11" x1="169.94" y1="20.76" x2="178.24" y2="22.94"/><line class="cls-11" x1="178.24" y1="22.94" x2="184.97" y2="24.7"/><line class="cls-11" x1="0.59" y1="24.45" x2="19.25" y2="40.77"/><line class="cls-11" x1="19.25" y1="40.77" x2="21.12" y2="42.65"/><line class="cls-11" x1="172.41" y1="23.5" x2="178.24" y2="22.94"/><line class="cls-11" x1="160.08" y1="20.16" x2="172.41" y2="23.5"/><line class="cls-11" x1="160.08" y1="20.16" x2="169.85" y2="19.28"/><line class="cls-11" x1="371.4" y1="34.51" x2="499.89" y2="26.76"/><line class="cls-11" x1="490.13" y1="25.56" x2="294.21" y2="1.43"/><line class="cls-11" x1="294.21" y1="1.43" x2="2.14" y2="24.33"/><line class="cls-11" x1="0.59" y1="24.45" x2="0.25" y2="22.71"/><line class="cls-11" x1="19.25" y1="40.77" x2="18.85" y2="38.64"/><line class="cls-11" x1="294.21" y1="1.43" x2="294.25" y2="0.25"/><line class="cls-11" x1="185.29" y1="24.67" x2="185.2" y2="23.04"/><line class="cls-11" x1="371.4" y1="34.51" x2="371.6" y2="32.53"/><line class="cls-11" x1="499.89" y1="26.76" x2="500.25" y2="24.97"/><line class="cls-11" x1="21.12" y1="42.65" x2="20.72" y2="40.48"/><line class="cls-11" x1="189.78" y1="26.03" x2="189.69" y2="24.25"/><line class="cls-11" x1="178.98" y1="25.28" x2="172.41" y2="23.5"/><line class="cls-11" x1="182.29" y1="77.87" x2="181.63" y2="66.24"/><line class="cls-11" x1="181.63" y1="66.24" x2="180.78" y2="51.34"/><line class="cls-11" x1="302.64" y1="73.6" x2="303.07" y2="63.71"/><line class="cls-11" x1="303.07" y1="63.71" x2="303.75" y2="47.92"/><line class="cls-11" x1="297.19" y1="22.59" x2="304.79" y2="23.95"/><line class="cls-11" x1="304.79" y1="23.95" x2="367.43" y2="35.13"/><line class="cls-11" x1="180.78" y1="51.34" x2="180.25" y2="42.05"/><line class="cls-11" x1="180.25" y1="42.05" x2="179.4" y2="27.05"/><line class="cls-11" x1="303.75" y1="47.92" x2="304.09" y2="40.03"/><line class="cls-11" x1="304.09" y1="40.03" x2="304.79" y2="23.95"/><line class="cls-11" x1="273.33" y1="18.17" x2="271.05" y2="18.41"/><line class="cls-11" x1="289.41" y1="16.51" x2="293.91" y2="17.25"/><line class="cls-11" x1="293.91" y1="17.25" x2="308.35" y2="19.65"/><line class="cls-11" x1="245.51" y1="13.81" x2="245.8" y2="13.86"/><line class="cls-11" x1="245.8" y1="13.86" x2="271.05" y2="18.41"/><line class="cls-11" x1="185.2" y1="23.04" x2="174.61" y2="20.33"/><line class="cls-11" x1="174.61" y1="20.33" x2="169.84" y2="19.1"/><line class="cls-11" x1="314.33" y1="18.98" x2="292.09" y2="15.38"/><line class="cls-11" x1="292.09" y1="15.38" x2="289.46" y2="14.96"/><line class="cls-11" x1="297.26" y1="20.89" x2="308.35" y2="19.65"/><line class="cls-11" x1="308.35" y1="19.65" x2="314.33" y2="18.98"/><line class="cls-11" x1="303.1" y1="21.91" x2="297.26" y2="20.89"/><line class="cls-11" x1="500.25" y1="24.97" x2="490.13" y2="25.56"/><line class="cls-11" x1="490.13" y1="25.56" x2="371.6" y2="32.53"/><line class="cls-11" x1="18.85" y1="38.64" x2="2.14" y2="24.33"/><line class="cls-11" x1="2.14" y1="24.33" x2="0.25" y2="22.71"/><line class="cls-11" x1="178.98" y1="25.28" x2="20.72" y2="40.48"/><line class="cls-11" x1="189.78" y1="26.03" x2="179.4" y2="27.05"/><line class="cls-11" x1="179.4" y1="27.05" x2="21.12" y2="42.65"/><line class="cls-11" x1="169.94" y1="20.76" x2="169.85" y2="19.28"/><line class="cls-11" x1="169.85" y1="19.28" x2="169.84" y2="19.1"/><line class="cls-11" x1="367.62" y1="33.14" x2="306.94" y2="22.58"/><line class="cls-11" x1="306.94" y1="22.58" x2="303.1" y2="21.91"/><line class="cls-11" x1="189.69" y1="24.25" x2="185.29" y2="24.67"/><line class="cls-11" x1="185.29" y1="24.67" x2="185.28" y2="24.67"/><line class="cls-11" x1="185.28" y1="24.67" x2="184.97" y2="24.7"/><line class="cls-11" x1="184.97" y1="24.7" x2="178.98" y2="25.28"/><line class="cls-11" x1="289.41" y1="16.51" x2="273.33" y2="18.17"/><line class="cls-11" x1="245.51" y1="13.81" x2="174.61" y2="20.33"/></g></g></g></svg>