<svg xmlns="http://www.w3.org/2000/svg" viewBox="0 0 309.8 150.98"><defs><style>.cls-1{fill:#e9e9e9;}.cls-2{fill:silver;}.cls-3,.cls-4{fill:none;stroke:#6d0e29;stroke-miterlimit:10;}.cls-4{stroke-width:0.5px;}</style></defs><title>escocia33.co_1</title><g id="Capa_2" data-name="Capa 2"><g id="edificios_solos" data-name="edificios solos"><g id="escocia_33_coyoacán" data-name="escocia 33, coyoacán"><polygon class="cls-1" points="126.45 150.5 3.02 85.07 1.77 50.48 126.29 104.39 126.45 150.5"/><polygon class="cls-1" points="305.84 107.47 126.45 150.5 126.29 104.39 307.55 68.9 305.84 107.47"/><polygon class="cls-2" points="0.5 15.25 91.77 6.22 95.88 7.22 163 0.5 309.3 29.52 126.13 57.13 0.5 15.25"/><polygon class="cls-1" points="126.13 57.13 309.3 29.52 307.55 68.9 126.29 104.39 126.13 57.13"/><polygon class="cls-1" points="0.5 15.25 126.13 57.13 126.29 104.39 1.77 50.48 0.5 15.25"/><line class="cls-3" x1="126.45" y1="150.5" x2="3.02" y2="85.07"/><line class="cls-3" x1="305.84" y1="107.47" x2="126.45" y2="150.5"/><line class="cls-4" x1="309.3" y1="29.53" x2="126.13" y2="57.13"/><line class="cls-4" x1="126.13" y1="57.13" x2="0.5" y2="15.25"/><line class="cls-3" x1="0.5" y1="15.25" x2="91.77" y2="6.22"/><line class="cls-3" x1="91.77" y1="6.22" x2="95.88" y2="7.22"/><line class="cls-3" x1="95.88" y1="7.22" x2="163" y2="0.5"/><line class="cls-3" x1="163" y1="0.5" x2="309.3" y2="29.53"/><line class="cls-4" x1="126.45" y1="150.5" x2="126.29" y2="104.39"/><line class="cls-3" x1="305.84" y1="107.47" x2="307.55" y2="68.9"/><line class="cls-3" x1="3.02" y1="85.07" x2="1.77" y2="50.48"/><line class="cls-4" x1="126.29" y1="104.39" x2="126.13" y2="57.13"/><line class="cls-3" x1="307.55" y1="68.9" x2="309.3" y2="29.53"/><line class="cls-4" x1="126.29" y1="104.39" x2="307.55" y2="68.9"/><line class="cls-3" x1="1.77" y1="50.48" x2="0.5" y2="15.25"/><line class="cls-4" x1="1.77" y1="50.48" x2="126.29" y2="104.39"/></g></g></g></svg>