<svg xmlns="http://www.w3.org/2000/svg" viewBox="0 0 346.64 300.96"><defs><style>.cls-1{fill:silver;}.cls-2{fill:#f0f0f0;}.cls-3{fill:#ececec;}.cls-4{fill:#6d0e29;}.cls-5{fill:#a21239;}.cls-6{fill:#da1549;}.cls-7,.cls-8{fill:none;stroke:#6d0e29;stroke-miterlimit:10;}.cls-8{stroke-width:0.5px;}</style></defs><title>paseodelasgalias47.i_1</title><g id="Capa_2" data-name="Capa 2"><g id="edificios_solos" data-name="edificios solos"><g id="paseo_de_las_galias_47_iztapalapa" data-name="paseo de las galias 47, iztapalapa"><polygon class="cls-1" points="335.37 172.49 282.07 213.31 283.45 179.93 337.39 142.89 335.37 172.49"/><polygon class="cls-2" points="282.07 213.31 256.93 206.73 257.17 197.98 257.83 173.95 283.45 179.93 282.07 213.31"/><polygon class="cls-1" points="256.2 233.13 168.26 300.5 167.41 259.63 257.17 197.98 256.93 206.73 256.2 233.13"/><polygon class="cls-3" points="168.26 300.5 19.94 239.03 16.36 203.36 167.41 259.63 168.26 300.5"/><polygon class="cls-4" points="283.27 8.01 346.14 14.67 289.48 33.56 135.23 16.41 206.81 0.5 265.99 6.22 253.77 9.28 246.89 8.59 232.63 12.09 246.78 13.57 253.65 14.3 264.6 15.45 265.73 15.14 271.62 13.54 278.24 11.74 271.7 11.08 283.27 8.01"/><polygon class="cls-5" points="289.48 33.56 346.14 14.67 343.84 48.29 287.89 72.22 289.48 33.56"/><polygon class="cls-6" points="135.23 16.41 289.48 33.56 287.89 72.22 260.75 68.33 261.46 42.9 187.97 33.36 177.92 36.03 177.94 38.09 166.37 41.22 166.19 31.53 135.61 27.51 135.23 16.41"/><polygon class="cls-5" points="253.77 9.28 265.99 6.22 265.73 15.14 264.6 15.45 253.65 14.3 253.77 9.28"/><polygon class="cls-5" points="246.89 8.59 253.77 9.28 253.65 14.3 246.78 13.57 246.89 8.59"/><polygon class="cls-5" points="232.63 12.09 246.89 8.59 246.78 13.57 232.63 12.09"/><polygon class="cls-5" points="271.7 11.08 278.24 11.74 271.62 13.54 271.7 11.08"/><polygon class="cls-4" points="187.97 33.36 261.46 42.9 163.59 75.52 0.5 45.7 102.86 23.21 135.61 27.51 166.19 31.53 156.41 33.99 150.12 33.14 128.71 38.42 150.34 41.53 156.61 42.43 160.04 42.92 166.37 41.22 177.94 38.09 183.04 36.72 177.92 36.03 187.97 33.36"/><polygon class="cls-5" points="163.59 75.52 261.46 42.9 260.75 68.33 260.32 84.02 164.62 124.96 163.59 75.52"/><polygon class="cls-6" points="0.5 45.7 163.59 75.52 164.62 124.96 4.71 87.55 0.5 45.7"/><polygon class="cls-5" points="156.41 33.99 166.19 31.53 166.37 41.22 160.04 42.92 156.61 42.43 156.41 33.99"/><polygon class="cls-5" points="150.12 33.14 156.41 33.99 156.61 42.43 150.34 41.53 150.12 33.14"/><polygon class="cls-5" points="128.71 38.42 150.12 33.14 150.34 41.53 128.71 38.42"/><polygon class="cls-5" points="177.92 36.03 183.04 36.72 177.94 38.09 177.92 36.03"/><polygon class="cls-6" points="4.71 87.55 164.62 124.96 165.59 172.01 8.75 127.71 4.71 87.55"/><polygon class="cls-6" points="260.75 68.33 287.89 72.22 286.36 109.46 259.74 104.82 260.32 84.02 260.75 68.33"/><polygon class="cls-6" points="12.63 166.28 8.75 127.71 165.59 172.01 166.52 216.85 12.63 166.28"/><polygon class="cls-5" points="166.52 216.85 165.59 172.01 259.23 123.51 258.77 140 258.18 161.47 166.52 216.85"/><polygon class="cls-3" points="12.63 166.28 166.52 216.85 167.41 259.63 16.36 203.36 12.63 166.28"/><polygon class="cls-5" points="286.36 109.46 287.89 72.22 343.84 48.29 341.62 80.83 286.36 109.46"/><polygon class="cls-6" points="259.74 104.82 286.36 109.46 284.88 145.34 258.77 140 259.23 123.51 259.74 104.82"/><polygon class="cls-5" points="284.88 145.34 286.36 109.46 341.62 80.83 339.47 112.35 284.88 145.34"/><polygon class="cls-2" points="258.77 140 284.88 145.34 283.45 179.93 257.83 173.95 258.18 161.47 258.77 140"/><polygon class="cls-1" points="283.45 179.93 284.88 145.34 339.47 112.35 337.39 142.89 283.45 179.93"/><polygon class="cls-5" points="165.59 172.01 164.62 124.96 260.32 84.02 259.74 104.82 259.23 123.51 165.59 172.01"/><polygon class="cls-1" points="167.41 259.63 166.52 216.85 258.18 161.47 257.83 173.95 257.17 197.98 167.41 259.63"/><line class="cls-7" x1="335.36" y1="172.49" x2="282.08" y2="213.31"/><line class="cls-7" x1="282.08" y1="213.31" x2="256.93" y2="206.73"/><line class="cls-7" x1="256.2" y1="233.13" x2="168.26" y2="300.5"/><line class="cls-7" x1="168.26" y1="300.5" x2="19.94" y2="239.03"/><line class="cls-7" x1="283.27" y1="8.01" x2="346.14" y2="14.67"/><line class="cls-8" x1="346.14" y1="14.67" x2="289.48" y2="33.56"/><line class="cls-8" x1="289.48" y1="33.56" x2="135.23" y2="16.42"/><line class="cls-7" x1="135.23" y1="16.42" x2="206.81" y2="0.5"/><line class="cls-7" x1="206.81" y1="0.5" x2="265.99" y2="6.22"/><line class="cls-8" x1="265.99" y1="6.22" x2="253.77" y2="9.28"/><line class="cls-8" x1="253.77" y1="9.28" x2="246.89" y2="8.59"/><line class="cls-8" x1="246.89" y1="8.59" x2="232.63" y2="12.09"/><line class="cls-8" x1="278.24" y1="11.74" x2="271.7" y2="11.08"/><line class="cls-7" x1="271.7" y1="11.08" x2="283.27" y2="8.01"/><line class="cls-7" x1="335.36" y1="172.49" x2="337.39" y2="142.89"/><line class="cls-8" x1="282.08" y1="213.31" x2="283.45" y2="179.93"/><line class="cls-8" x1="246.79" y1="13.57" x2="246.89" y2="8.59"/><line class="cls-7" x1="187.97" y1="33.36" x2="261.46" y2="42.9"/><line class="cls-8" x1="261.46" y1="42.9" x2="163.59" y2="75.52"/><line class="cls-8" x1="163.59" y1="75.52" x2="0.5" y2="45.7"/><line class="cls-7" x1="0.5" y1="45.7" x2="102.86" y2="23.21"/><line class="cls-8" x1="166.19" y1="31.53" x2="156.4" y2="33.99"/><line class="cls-8" x1="156.4" y1="33.99" x2="150.12" y2="33.14"/><line class="cls-8" x1="150.12" y1="33.14" x2="128.71" y2="38.42"/><line class="cls-8" x1="183.04" y1="36.72" x2="177.92" y2="36.03"/><line class="cls-7" x1="177.92" y1="36.03" x2="187.97" y2="33.36"/><line class="cls-8" x1="168.26" y1="300.5" x2="167.41" y2="259.64"/><line class="cls-7" x1="19.94" y1="239.03" x2="16.36" y2="203.36"/><line class="cls-8" x1="156.61" y1="42.43" x2="156.4" y2="33.99"/><line class="cls-8" x1="150.34" y1="41.53" x2="150.12" y2="33.14"/><line class="cls-7" x1="177.94" y1="38.09" x2="177.92" y2="36.03"/><line class="cls-7" x1="4.71" y1="87.55" x2="0.5" y2="45.7"/><line class="cls-8" x1="164.62" y1="124.96" x2="163.59" y2="75.52"/><line class="cls-8" x1="4.71" y1="87.55" x2="164.62" y2="124.96"/><line class="cls-7" x1="135.61" y1="27.51" x2="135.23" y2="16.42"/><line class="cls-8" x1="287.89" y1="72.22" x2="289.48" y2="33.56"/><line class="cls-8" x1="260.75" y1="68.33" x2="287.89" y2="72.22"/><line class="cls-7" x1="12.63" y1="166.28" x2="8.75" y2="127.71"/><line class="cls-8" x1="166.52" y1="216.85" x2="165.59" y2="172.01"/><line class="cls-8" x1="12.63" y1="166.28" x2="166.52" y2="216.85"/><line class="cls-8" x1="284.88" y1="145.34" x2="286.36" y2="109.46"/><line class="cls-8" x1="258.77" y1="140" x2="284.88" y2="145.34"/><line class="cls-8" x1="286.36" y1="109.46" x2="287.89" y2="72.22"/><line class="cls-8" x1="259.74" y1="104.82" x2="286.36" y2="109.46"/><line class="cls-8" x1="283.45" y1="179.93" x2="284.88" y2="145.34"/><line class="cls-8" x1="257.83" y1="173.95" x2="283.45" y2="179.93"/><line class="cls-7" x1="8.75" y1="127.71" x2="4.71" y2="87.55"/><line class="cls-7" x1="16.36" y1="203.36" x2="12.63" y2="166.28"/><line class="cls-8" x1="165.59" y1="172.01" x2="164.62" y2="124.96"/><line class="cls-8" x1="8.75" y1="127.71" x2="165.59" y2="172.01"/><line class="cls-8" x1="167.41" y1="259.64" x2="166.52" y2="216.85"/><line class="cls-8" x1="16.36" y1="203.36" x2="167.41" y2="259.64"/><line class="cls-8" x1="164.62" y1="124.96" x2="260.32" y2="84.02"/><line class="cls-8" x1="166.52" y1="216.85" x2="258.18" y2="161.47"/><line class="cls-8" x1="165.59" y1="172.01" x2="259.23" y2="123.51"/><line class="cls-8" x1="167.41" y1="259.64" x2="257.17" y2="197.98"/><line class="cls-7" x1="343.84" y1="48.29" x2="346.14" y2="14.67"/><line class="cls-8" x1="287.89" y1="72.22" x2="343.84" y2="48.29"/><line class="cls-7" x1="339.47" y1="112.35" x2="341.62" y2="80.83"/><line class="cls-8" x1="339.47" y1="112.35" x2="284.88" y2="145.34"/><line class="cls-7" x1="341.62" y1="80.83" x2="343.84" y2="48.29"/><line class="cls-8" x1="341.62" y1="80.83" x2="286.36" y2="109.46"/><line class="cls-7" x1="337.39" y1="142.89" x2="339.47" y2="112.35"/><line class="cls-8" x1="337.39" y1="142.89" x2="283.45" y2="179.93"/><line class="cls-7" x1="265.73" y1="15.14" x2="265.99" y2="6.22"/><line class="cls-7" x1="166.37" y1="41.21" x2="166.19" y2="31.53"/><line class="cls-7" x1="271.62" y1="13.54" x2="271.7" y2="11.08"/><line class="cls-8" x1="253.65" y1="14.3" x2="253.77" y2="9.28"/><line class="cls-7" x1="232.63" y1="12.09" x2="246.79" y2="13.57"/><line class="cls-7" x1="264.6" y1="15.45" x2="265.73" y2="15.14"/><line class="cls-7" x1="102.86" y1="23.21" x2="135.61" y2="27.51"/><line class="cls-7" x1="135.61" y1="27.51" x2="166.19" y2="31.53"/><line class="cls-7" x1="128.71" y1="38.42" x2="150.34" y2="41.53"/><line class="cls-7" x1="177.94" y1="38.09" x2="183.04" y2="36.72"/><line class="cls-7" x1="256.2" y1="233.13" x2="256.93" y2="206.73"/><line class="cls-7" x1="256.93" y1="206.73" x2="257.17" y2="197.98"/><line class="cls-7" x1="260.32" y1="84.02" x2="260.75" y2="68.33"/><line class="cls-7" x1="260.75" y1="68.33" x2="261.46" y2="42.9"/><line class="cls-7" x1="258.18" y1="161.47" x2="258.77" y2="140"/><line class="cls-7" x1="258.77" y1="140" x2="259.23" y2="123.51"/><line class="cls-7" x1="259.23" y1="123.51" x2="259.74" y2="104.82"/><line class="cls-7" x1="259.74" y1="104.82" x2="260.32" y2="84.02"/><line class="cls-7" x1="257.17" y1="197.98" x2="257.83" y2="173.95"/><line class="cls-7" x1="257.83" y1="173.95" x2="258.18" y2="161.47"/><line class="cls-7" x1="246.79" y1="13.57" x2="253.65" y2="14.3"/><line class="cls-7" x1="253.65" y1="14.3" x2="264.6" y2="15.45"/><line class="cls-7" x1="265.73" y1="15.14" x2="271.62" y2="13.54"/><line class="cls-7" x1="271.62" y1="13.54" x2="278.24" y2="11.74"/><line class="cls-7" x1="150.34" y1="41.53" x2="156.61" y2="42.43"/><line class="cls-7" x1="156.61" y1="42.43" x2="160.04" y2="42.92"/><line class="cls-7" x1="160.04" y1="42.92" x2="166.37" y2="41.21"/><line class="cls-7" x1="166.37" y1="41.21" x2="177.94" y2="38.09"/></g></g></g></svg>