<?xml version="1.0" encoding="UTF-8"?>
<svg xmlns="http://www.w3.org/2000/svg" xmlns:xlink="http://www.w3.org/1999/xlink" width="361pt" height="361pt" viewBox="0 0 361 361" version="1.1">
<defs>
<clipPath id="clip1">
  <path d="M 0 0 L 360 0 L 360 112 L 0 112 Z M 0 0 "/>
</clipPath>
</defs>
<g id="surface5012">
<path style="fill-rule:nonzero;fill:rgb(0%,0%,0%);fill-opacity:1;stroke-width:0.03;stroke-linecap:square;stroke-linejoin:miter;stroke:rgb(0%,0%,0%);stroke-opacity:1;stroke-miterlimit:10;" d="M 0 178 L 360 178 L 360 -182 L 0 -182 Z M 0 178 " transform="matrix(1,0,0,1,0,182)"/>
<g clip-path="url(#clip1)" clip-rule="nonzero">
<path style=" stroke:none;fill-rule:nonzero;fill:rgb(39.99939%,39.99939%,39.99939%);fill-opacity:0.3;" d="M -147.027344 -743.707031 L 318.304688 -519.09375 L 328.0625 -521.417969 L 422.855469 -479.582031 L 429.363281 -468.054688 L 498.898438 -436.410156 L 424.367188 -299.96875 L 436.1875 -293.53125 L 515.925781 -427.128906 L 523.371094 -429.25 L 626.40625 -387.816406 L 629.464844 -381.507812 L 574.71875 -250.199219 L 582.148438 -246.078125 L 589.789062 -241.835938 L 654.863281 -404.902344 L 458.949219 -484.34375 L 454.476562 -491.117188 L 452.585938 -499.117188 L 451.980469 -507.117188 L 452.035156 -518.1875 L 515.742188 -635.011719 L 603.570312 -600.257812 L 607.5 -612.558594 L 610.992188 -623.492188 L 530.796875 -653.777344 L 545.550781 -688.613281 L 905.726562 -546.925781 L 915.976562 -468.660156 L 918.660156 -417.949219 L 921.3125 -369.519531 L 904.273438 -337.132812 L 862.730469 -300.015625 L 843.246094 -265.304688 L 833.617188 -214.472656 L 841.085938 -177.558594 L 868.179688 -126.855469 L 868.285156 -87.578125 L 853.652344 -62.105469 L 804.710938 -43.421875 L 755.808594 -8.5625 L 741.195312 23.847656 L 734.214844 111.132812 L 674.785156 91.5625 L 766.761719 -111.585938 L 752.871094 -115.351562 L 738.984375 -119.117188 L 645.117188 71.804688 L 5.152344 -223.898438 L -411.445312 -425.105469 L -296.347656 -564.6875 L -176.648438 -506.136719 L -169.578125 -515.59375 L -162.183594 -525.480469 L -280.292969 -583.148438 L -195.398438 -685.4375 L -21.59375 -598.574219 L -15.800781 -605.722656 L -10.421875 -612.359375 L -183.738281 -699.546875 Z M -147.027344 -743.707031 "/>
</g>
<path style=" stroke:none;fill-rule:nonzero;fill:rgb(39.99939%,39.99939%,39.99939%);fill-opacity:0.3;" d="M 239.742188 308.570312 L 51.429688 220.539062 L 75.542969 170.703125 L 85.125 152.628906 L 84.445312 152.300781 L 110.195312 99.085938 L 308.570312 193.980469 Z M 239.742188 308.570312 "/>
<path style="fill-rule:nonzero;fill:rgb(39.99939%,39.99939%,39.99939%);fill-opacity:1;stroke-width:0.03;stroke-linecap:square;stroke-linejoin:miter;stroke:rgb(39.99939%,39.99939%,39.99939%);stroke-opacity:1;stroke-miterlimit:3.239307;" d="M 313.742188 321.570312 L 125.429688 233.539062 L 149.542969 183.703125 L 159.125 165.628906 L 158.445312 165.300781 L 184.195312 112.085938 L 382.570312 206.980469 Z M 313.742188 321.570312 " transform="matrix(1,0,0,1,-74,-13)"/>
</g>
</svg>
