<?xml version="1.0" encoding="UTF-8"?>
<svg xmlns="http://www.w3.org/2000/svg" xmlns:xlink="http://www.w3.org/1999/xlink" width="361pt" height="361pt" viewBox="0 0 361 361" version="1.1">
<defs>
<clipPath id="clip1">
  <path d="M 0 0 L 360 0 L 360 334 L 0 334 Z M 0 0 "/>
</clipPath>
<clipPath id="clip2">
  <path d="M 330 332 L 358 332 L 358 360 L 330 360 Z M 330 332 "/>
</clipPath>
<clipPath id="clip3">
  <path d="M 354 335 L 360 335 L 360 360 L 354 360 Z M 354 335 "/>
</clipPath>
<clipPath id="clip4">
  <path d="M 259 322 L 335 322 L 335 360 L 259 360 Z M 259 322 "/>
</clipPath>
<clipPath id="clip5">
  <path d="M 204 317 L 264 317 L 264 360 L 204 360 Z M 204 317 "/>
</clipPath>
<clipPath id="clip6">
  <path d="M 164 317 L 211 317 L 211 360 L 164 360 Z M 164 317 "/>
</clipPath>
<clipPath id="clip7">
  <path d="M 225 356 L 236 356 L 236 360 L 225 360 Z M 225 356 "/>
</clipPath>
<clipPath id="clip8">
  <path d="M 343 256 L 360 256 L 360 298 L 343 298 Z M 343 256 "/>
</clipPath>
<clipPath id="clip9">
  <path d="M 267 205 L 360 205 L 360 243 L 267 243 Z M 267 205 "/>
</clipPath>
<clipPath id="clip10">
  <path d="M 346 226 L 360 226 L 360 262 L 346 262 Z M 346 226 "/>
</clipPath>
<clipPath id="clip11">
  <path d="M 337 293 L 360 293 L 360 339 L 337 339 Z M 337 293 "/>
</clipPath>
<clipPath id="clip12">
  <path d="M 98 352 L 157 352 L 157 360 L 98 360 Z M 98 352 "/>
</clipPath>
<clipPath id="clip13">
  <path d="M 283 91 L 360 91 L 360 176 L 283 176 Z M 283 91 "/>
</clipPath>
<clipPath id="clip14">
  <path d="M 355 156 L 360 156 L 360 197 L 355 197 Z M 355 156 "/>
</clipPath>
<clipPath id="clip15">
  <path d="M 358 152 L 360 152 L 360 165 L 358 165 Z M 358 152 "/>
</clipPath>
<clipPath id="clip16">
  <path d="M 359 137 L 360 137 L 360 154 L 359 154 Z M 359 137 "/>
</clipPath>
<clipPath id="clip17">
  <path d="M 0 334 L 27 334 L 27 360 L 0 360 Z M 0 334 "/>
</clipPath>
<clipPath id="clip18">
  <path d="M 324 0 L 360 0 L 360 45 L 324 45 Z M 324 0 "/>
</clipPath>
<clipPath id="clip19">
  <path d="M 346 50 L 360 50 L 360 97 L 346 97 Z M 346 50 "/>
</clipPath>
<clipPath id="clip20">
  <path d="M 351 15 L 360 15 L 360 49 L 351 49 Z M 351 15 "/>
</clipPath>
<clipPath id="clip21">
  <path d="M 356 0 L 360 0 L 360 15 L 356 15 Z M 356 0 "/>
</clipPath>
<clipPath id="clip22">
  <path d="M 18 299 L 80 299 L 80 360 L 18 360 Z M 18 299 "/>
</clipPath>
<clipPath id="clip23">
  <path d="M 315 341 L 343 341 L 343 360 L 315 360 Z M 315 341 "/>
</clipPath>
<clipPath id="clip24">
  <path d="M 346 98 L 360 98 L 360 126 L 346 126 Z M 346 98 "/>
</clipPath>
<clipPath id="clip25">
  <path d="M 348 69 L 360 69 L 360 97 L 348 97 Z M 348 69 "/>
</clipPath>
<clipPath id="clip26">
  <path d="M 351 61 L 360 61 L 360 89 L 351 89 Z M 351 61 "/>
</clipPath>
</defs>
<g id="surface210">
<path style="fill-rule:nonzero;fill:rgb(0%,0%,0%);fill-opacity:1;stroke-width:0.03;stroke-linecap:square;stroke-linejoin:miter;stroke:rgb(0%,0%,0%);stroke-opacity:1;stroke-miterlimit:10;" d="M 0 178 L 360 178 L 360 -182 L 0 -182 Z M 0 178 " transform="matrix(1,0,0,1,0,182)"/>
<g clip-path="url(#clip1)" clip-rule="nonzero">
<path style=" stroke:none;fill-rule:nonzero;fill:rgb(39.99939%,39.99939%,39.99939%);fill-opacity:0.3;" d="M -438.609375 -245.339844 L -436.421875 -248.476562 L -433.84375 -251.5625 L -431.597656 -253.480469 L -429.636719 -254.863281 L -426.945312 -256.300781 L -423.914062 -257.417969 L -420.605469 -258.21875 L -416.902344 -258.328125 L -413.78125 -258.167969 L -408.605469 -257.402344 L -397.71875 -253.898438 L -390.898438 -250.910156 L -382.453125 -241.976562 L -365.675781 -251.53125 L -358.816406 -250.441406 L -311.460938 -276.902344 L -310.101562 -278.671875 L -309.035156 -280.699219 L -308.714844 -282.722656 L -308.609375 -284.75 L -308.503906 -287.078125 L -308.503906 -288.292969 L -307.863281 -289.507812 L -306.582031 -290.523438 L -290.980469 -298.496094 L -286.226562 -291.460938 L -189.257812 -347.042969 L -149.855469 -369.585938 L -144.082031 -372.886719 L -128.226562 -381.957031 L -105.480469 -394.972656 L -43.753906 -430.28125 L -43.472656 -441.046875 L -43.503906 -441.402344 L -43.617188 -441.964844 L -43.683594 -442.449219 L -43.144531 -444.160156 L -24.828125 -517.894531 L -11.496094 -569.601562 L -9.277344 -577.5 L -7.925781 -578.875 L 68.613281 -610.027344 L 67.65625 -611.730469 L 67.230469 -612.484375 L 76.253906 -615.789062 L 81.5 -609.496094 L 110.519531 -619.285156 L 132.894531 -626.976562 L 136.042969 -628.023438 L 143.035156 -631.519531 L 144.085938 -633.96875 L 146.183594 -638.863281 L 142.6875 -654.246094 L 141.636719 -661.242188 L 141.988281 -666.484375 L 147.230469 -672.078125 L 158.863281 -680.390625 L 160.132812 -679.105469 L 188.96875 -699.195312 L 192.898438 -701.46875 L 198.609375 -703.347656 L 203.101562 -704.445312 L 246.289062 -690.710938 L 252.777344 -688.144531 L 258.960938 -687.265625 L 265.824219 -686.785156 L 273.785156 -687.351562 L 278.101562 -688.316406 L 297.167969 -694.527344 L 299.589844 -695.441406 L 301.515625 -695.59375 L 302.777344 -695.460938 L 342.132812 -682.128906 L 442.140625 -646.648438 L 464.617188 -638.585938 L 472.289062 -635.792969 L 472.78125 -635.65625 L 473.257812 -635.632812 L 473.960938 -635.863281 L 554.101562 -664.898438 L 642.367188 -697.308594 L 682.109375 -712.195312 L 751.449219 -738.082031 L 811.558594 -761.023438 L 815.078125 -762.714844 L 832.175781 -781.339844 L 846.285156 -795.164062 L 855.058594 -804.472656 L 873.78125 -815.429688 L 879 -809.4375 L 908.476562 -752.855469 L 913.328125 -743.859375 L 938.273438 -697.949219 L 950.257812 -676.910156 L 985.242188 -614.578125 L 991.183594 -602.644531 L 993.25 -595.960938 L 993.859375 -590.621094 L 993.914062 -585.472656 L 993.03125 -580.238281 L 991.390625 -574.320312 L 988.066406 -567.332031 L 983.125 -561.941406 L 975.542969 -555.976562 L 957.027344 -545.222656 L 943.28125 -537.589844 L 916.753906 -523.082031 L 859.34375 -491.027344 L 801.855469 -458.285156 L 730.109375 -417.984375 L 666.195312 -382.449219 L 565.199219 -324.6875 L 557.410156 -318.464844 L 550.3125 -309.976562 L 484.480469 -217.835938 L 483.273438 -216.113281 L 441.996094 -141.378906 L 437.050781 -132.421875 L 424.839844 -103.117188 L 416.707031 -88.59375 L 414.800781 -86.242188 L 412.558594 -84.273438 L 390.949219 -67.816406 L 388.503906 -66.140625 L 387.660156 -66.046875 L 382.539062 -67.554688 L 380.667969 -68.957031 L 345.074219 -107.121094 L 259.148438 -146.355469 L 98.476562 -53.253906 L 95.796875 -51.929688 L 89.347656 -48.164062 L 88.566406 -47.585938 L 88.113281 -45.957031 L 79.726562 14.523438 L 67.890625 99.242188 L 63.234375 133.574219 L 62.101562 142.710938 L 61.957031 143.953125 L 61.761719 144.921875 L 61.761719 146.027344 L 62.007812 146.902344 L 62.625 147.808594 L 64.832031 148.644531 L 66.089844 149.183594 L 67.125 149.585938 L 68 150.472656 L 68.375 152.191406 L 64.238281 180.257812 L 53.820312 259.625 L 51.554688 277.859375 L 50.128906 294.296875 L 49.871094 295.863281 L 49.523438 297.34375 L 48.046875 298.167969 L 46.742188 298.664062 L 44.921875 299.40625 L 43.355469 300.722656 L 41.292969 302.359375 L 40.144531 304.84375 L 39.363281 308.136719 L 38.238281 315.710938 L 37.113281 324.769531 L 35.988281 328.148438 L 34.511719 330.125 L 32.601562 331.605469 L 31.039062 332.84375 L 29.214844 333.5 L 26.339844 333.730469 L 23.886719 333.445312 L 20.75 332.355469 L -62.210938 284.207031 L -63.765625 286.792969 L -64.648438 286.28125 L -82.132812 315.300781 L -88.425781 311.804688 L -100.257812 305.3125 L -125.292969 288.871094 L -146.28125 273.9375 L -149.117188 271.882812 L -151.972656 269.191406 L -154.582031 266.167969 L -162.824219 253.699219 L -167.417969 244.957031 L -176.800781 230.90625 L -185.734375 220.121094 L -193.519531 212.644531 L -202.933594 205.929688 L -252.625 178.269531 L -257.496094 175.558594 L -262.695312 172.667969 L -266.9375 170.304688 L -270.046875 168.46875 L -329.0625 133.609375 L -387.464844 100.410156 L -428.929688 77.015625 L -471.089844 51.390625 L -499.433594 32.8125 L -559.402344 -4.351562 L -564.789062 -7.800781 L -565.984375 -8.695312 L -566.433594 -9.125 L -566.769531 -9.710938 L -567.011719 -10.402344 L -567.207031 -11.246094 L -567.285156 -12.050781 L -567.246094 -12.632812 L -567.09375 -13.660156 L -565.125 -18.148438 L -551.472656 -41.859375 L -538.332031 -68.351562 L -526.390625 -88.195312 L -513.375 -112.039062 L -504.238281 -128.726562 L -469.578125 -191.105469 L -459.023438 -209.152344 L -448.609375 -227.601562 Z M -438.609375 -245.339844 "/>
</g>
<path style=" stroke:none;fill-rule:nonzero;fill:rgb(39.99939%,39.99939%,39.99939%);fill-opacity:0.3;" d="M 88.257812 -45.964844 L 88.699219 -47.542969 L 89.382812 -48.058594 L 90.609375 -48.816406 L 92.175781 -49.628906 L 93.371094 -50.257812 L 93.039062 -46.589844 L 93.101562 -45.742188 L 85.0625 13.957031 L 79.992188 13.644531 Z M 88.257812 -45.964844 "/>
<path style=" stroke:none;fill-rule:nonzero;fill:rgb(39.99939%,39.99939%,39.99939%);fill-opacity:0.3;" d="M 227.207031 346.210938 L 236.625 347.40625 L 235.984375 351.839844 L 226.5625 350.644531 Z M 227.207031 346.210938 "/>
<path style=" stroke:none;fill-rule:nonzero;fill:rgb(39.99939%,39.99939%,39.99939%);fill-opacity:0.3;" d="M 226.601562 351.921875 L 236.078125 353.363281 L 235.542969 356.457031 L 226.066406 355.015625 Z M 226.601562 351.921875 "/>
<g clip-path="url(#clip2)" clip-rule="nonzero">
<path style=" stroke:none;fill-rule:nonzero;fill:rgb(39.99939%,39.99939%,39.99939%);fill-opacity:0.3;" d="M 337.347656 332.238281 L 357.371094 334.589844 L 351.738281 394.53125 L 330.753906 391.789062 Z M 337.347656 332.238281 "/>
</g>
<g clip-path="url(#clip3)" clip-rule="nonzero">
<path style=" stroke:none;fill-rule:nonzero;fill:rgb(39.99939%,39.99939%,39.99939%);fill-opacity:0.3;" d="M 359.808594 335.066406 L 382.703125 338.269531 L 377 397.832031 L 354.289062 394.863281 Z M 359.808594 335.066406 "/>
</g>
<g clip-path="url(#clip4)" clip-rule="nonzero">
<path style=" stroke:none;fill-rule:nonzero;fill:rgb(39.99939%,39.99939%,39.99939%);fill-opacity:0.3;" d="M 266.378906 322.464844 L 334.617188 331.789062 L 328.171875 390.992188 L 259.175781 381.484375 Z M 266.378906 322.464844 "/>
</g>
<g clip-path="url(#clip5)" clip-rule="nonzero">
<path style=" stroke:none;fill-rule:nonzero;fill:rgb(39.99939%,39.99939%,39.99939%);fill-opacity:0.3;" d="M 245.644531 346.785156 L 247.148438 346.945312 L 251.53125 320.542969 L 263.320312 321.726562 L 255.488281 380.957031 L 218.613281 375.664062 L 204.277344 373.34375 L 213.554688 317.242188 L 237.074219 319.070312 L 232.519531 345.320312 L 233.179688 345.398438 L 233.886719 345.488281 L 238.460938 319 L 249.132812 319.792969 L 244.230469 346.582031 Z M 245.644531 346.785156 "/>
</g>
<path style=" stroke:none;fill-rule:nonzero;fill:rgb(39.99939%,39.99939%,39.99939%);fill-opacity:0.3;" d="M 252.414062 224.902344 L 254.917969 223.652344 L 257.957031 222.855469 L 261.160156 222.273438 L 264.140625 222.011719 L 272.972656 222.214844 L 272.699219 226.171875 Z M 252.414062 224.902344 "/>
<g clip-path="url(#clip6)" clip-rule="nonzero">
<path style=" stroke:none;fill-rule:nonzero;fill:rgb(39.99939%,39.99939%,39.99939%);fill-opacity:0.3;" d="M 173.550781 336.507812 L 175.253906 334.390625 L 181 327.40625 L 184.796875 323.1875 L 181.574219 343.1875 L 182.5 343.335938 L 183.425781 343.480469 L 186.957031 320.535156 L 188.265625 317.019531 L 210.90625 317.960938 L 202.332031 372.886719 L 164.425781 367.480469 L 164.261719 363.695312 L 164.664062 359.199219 L 166.0625 352.027344 L 167.699219 347.261719 L 171.867188 339.167969 Z M 173.550781 336.507812 "/>
</g>
<g clip-path="url(#clip7)" clip-rule="nonzero">
<path style=" stroke:none;fill-rule:nonzero;fill:rgb(39.99939%,39.99939%,39.99939%);fill-opacity:0.3;" d="M 225.835938 356.222656 L 235.3125 357.664062 L 234.78125 360.757812 L 225.300781 359.316406 Z M 225.835938 356.222656 "/>
</g>
<path style=" stroke:none;fill-rule:nonzero;fill:rgb(39.99939%,39.99939%,39.99939%);fill-opacity:0.3;" d="M 265.121094 302.523438 L 263.261719 319.117188 L 190.5625 310.253906 L 197.328125 293.808594 Z M 265.121094 302.523438 "/>
<path style=" stroke:none;fill-rule:nonzero;fill:rgb(39.99939%,39.99939%,39.99939%);fill-opacity:0.3;" d="M 267.503906 283.007812 L 265.21875 299.996094 L 198.78125 291.644531 L 202.179688 283.632812 L 206.054688 275.148438 Z M 267.503906 283.007812 "/>
<path style=" stroke:none;fill-rule:nonzero;fill:rgb(39.99939%,39.99939%,39.99939%);fill-opacity:0.3;" d="M 272.984375 227.449219 L 267.515625 279.453125 L 207.996094 272.183594 L 214.214844 260.960938 L 221.148438 247.625 L 224.878906 241.648438 L 226.964844 239.121094 L 229.148438 236.898438 L 231.214844 235.183594 L 233.046875 233.652344 L 235.308594 232.09375 L 237.679688 230.789062 L 240.175781 229.382812 L 243.871094 227.601562 L 246.914062 226.472656 L 250.195312 225.921875 Z M 272.984375 227.449219 "/>
<g clip-path="url(#clip8)" clip-rule="nonzero">
<path style=" stroke:none;fill-rule:nonzero;fill:rgb(39.99939%,39.99939%,39.99939%);fill-opacity:0.3;" d="M 345.929688 256.84375 L 415.457031 263.824219 L 413.988281 277.078125 L 383.71875 274.441406 L 383.664062 275.382812 L 383.585938 276.714844 L 413.980469 279.472656 L 411.9375 297.324219 L 343.148438 289.558594 L 344.21875 273.195312 L 375.066406 275.78125 L 375.15625 275.210938 L 375.222656 274.476562 L 344.421875 271.972656 Z M 345.929688 256.84375 "/>
</g>
<g clip-path="url(#clip9)" clip-rule="nonzero">
<path style=" stroke:none;fill-rule:nonzero;fill:rgb(39.99939%,39.99939%,39.99939%);fill-opacity:0.3;" d="M 344.757812 223.941406 L 267.507812 219.792969 L 267.679688 215.386719 L 267.726562 212.5625 L 268.273438 208.351562 L 404.226562 206.621094 L 414.003906 206.5625 L 433.695312 206.277344 L 544 205.402344 L 555.710938 205.628906 L 553.554688 242.539062 L 386.023438 227.003906 L 369.320312 225.730469 Z M 344.757812 223.941406 "/>
</g>
<path style=" stroke:none;fill-rule:nonzero;fill:rgb(39.99939%,39.99939%,39.99939%);fill-opacity:0.3;" d="M 274.492188 249.9375 L 342.863281 256.679688 L 339.273438 289.644531 L 270.835938 279.964844 L 271.679688 273.066406 L 296.414062 275.921875 L 296.5 274.902344 L 296.566406 274.066406 L 271.984375 271.351562 L 273.136719 260.910156 L 301.335938 264.035156 L 301.394531 263.347656 L 301.429688 262.820312 L 273.476562 259.820312 Z M 274.492188 249.9375 "/>
<path style=" stroke:none;fill-rule:nonzero;fill:rgb(39.99939%,39.99939%,39.99939%);fill-opacity:0.3;" d="M 276.695312 222.191406 L 346.121094 226.300781 L 343.332031 254.382812 L 274.738281 247.617188 L 276.09375 233.765625 L 304.1875 236.953125 L 304.289062 236.035156 L 304.410156 234.933594 L 275.710938 232.035156 Z M 276.695312 222.191406 "/>
<g clip-path="url(#clip10)" clip-rule="nonzero">
<path style=" stroke:none;fill-rule:nonzero;fill:rgb(39.99939%,39.99939%,39.99939%);fill-opacity:0.3;" d="M 349.253906 226.105469 L 419.261719 231.339844 L 417.386719 247.199219 L 391.058594 244.757812 L 390.984375 245.144531 L 390.855469 245.558594 L 417.308594 248.425781 L 415.765625 261.128906 L 346.398438 254.367188 L 347.050781 245.792969 L 371.28125 248.027344 L 371.476562 246.207031 L 347.25 243.96875 L 347.78125 237.875 L 379.730469 240.859375 L 379.832031 240.160156 L 379.921875 239.316406 L 348.058594 236.417969 Z M 349.253906 226.105469 "/>
</g>
<path style=" stroke:none;fill-rule:nonzero;fill:rgb(39.99939%,39.99939%,39.99939%);fill-opacity:0.3;" d="M 328.921875 226.085938 L 344.933594 227.066406 L 344.65625 231.417969 L 328.648438 230.433594 Z M 328.921875 226.085938 "/>
<path style=" stroke:none;fill-rule:nonzero;fill:rgb(39.99939%,39.99939%,39.99939%);fill-opacity:0.3;" d="M 310.546875 224.992188 L 326.554688 225.96875 L 326.28125 230.316406 L 310.269531 229.339844 Z M 310.546875 224.992188 "/>
<path style=" stroke:none;fill-rule:nonzero;fill:rgb(39.99939%,39.99939%,39.99939%);fill-opacity:0.3;" d="M 333.933594 272.503906 L 338.316406 273.046875 L 338.105469 275.699219 L 336.871094 275.542969 L 336.789062 276.597656 L 338.019531 276.753906 L 337.8125 279.421875 L 333.425781 278.863281 L 333.636719 276.203125 L 334.867188 276.359375 L 334.953125 275.304688 L 333.71875 275.152344 Z M 333.933594 272.503906 "/>
<path style=" stroke:none;fill-rule:nonzero;fill:rgb(39.99939%,39.99939%,39.99939%);fill-opacity:0.3;" d="M 327.410156 271.699219 L 331.792969 272.242188 L 331.574219 274.886719 L 330.34375 274.734375 L 330.257812 275.785156 L 331.492188 275.9375 L 331.28125 278.589844 L 326.894531 278.042969 L 327.109375 275.394531 L 328.339844 275.546875 L 328.425781 274.496094 L 327.195312 274.34375 Z M 327.410156 271.699219 "/>
<path style=" stroke:none;fill-rule:nonzero;fill:rgb(39.99939%,39.99939%,39.99939%);fill-opacity:0.3;" d="M 308.261719 269.78125 L 312.636719 270.203125 L 312.398438 272.554688 L 311.171875 272.445312 L 311.078125 273.410156 L 312.308594 273.5625 L 312.089844 276.207031 L 307.710938 275.667969 L 307.933594 273.089844 L 309.164062 273.199219 L 309.257812 272.273438 L 308.027344 272.164062 Z M 308.261719 269.78125 "/>
<path style=" stroke:none;fill-rule:nonzero;fill:rgb(39.99939%,39.99939%,39.99939%);fill-opacity:0.3;" d="M 314.867188 270.414062 L 319.242188 270.816406 L 319.011719 273.332031 L 317.78125 273.179688 L 317.691406 274.230469 L 318.925781 274.382812 L 318.710938 277.023438 L 314.328125 276.484375 L 314.542969 273.839844 L 315.777344 273.992188 L 315.863281 272.941406 L 314.632812 272.789062 Z M 314.867188 270.414062 "/>
<path style=" stroke:none;fill-rule:nonzero;fill:rgb(39.99939%,39.99939%,39.99939%);fill-opacity:0.3;" d="M 321.042969 270.976562 L 325.417969 271.453125 L 325.199219 274.097656 L 323.96875 273.945312 L 323.882812 274.996094 L 325.113281 275.148438 L 324.902344 277.792969 L 320.519531 277.246094 L 320.734375 274.605469 L 321.964844 274.757812 L 322.050781 273.707031 L 320.820312 273.554688 Z M 321.042969 270.976562 "/>
<g clip-path="url(#clip11)" clip-rule="nonzero">
<path style=" stroke:none;fill-rule:nonzero;fill:rgb(39.99939%,39.99939%,39.99939%);fill-opacity:0.3;" d="M 342.6875 293.210938 L 411.871094 302.527344 L 407.417969 338.859375 L 337.5625 329.882812 Z M 342.6875 293.210938 "/>
</g>
<path style=" stroke:none;fill-rule:nonzero;fill:rgb(39.99939%,39.99939%,39.99939%);fill-opacity:0.3;" d="M 271.160156 283.976562 L 339.5 292.664062 L 334.855469 329.035156 L 266.9375 319.5 Z M 271.160156 283.976562 "/>
<g clip-path="url(#clip12)" clip-rule="nonzero">
<path style=" stroke:none;fill-rule:nonzero;fill:rgb(39.99939%,39.99939%,39.99939%);fill-opacity:0.3;" d="M 137.253906 353.96875 L 138.785156 352.875 L 140.402344 352.273438 L 142.019531 352.242188 L 143.539062 352.609375 L 146.574219 354.230469 L 148.53125 355.324219 L 150.730469 356.53125 L 152.332031 358.199219 L 153.402344 359.84375 L 154.453125 361.453125 L 155.464844 363.714844 L 156.480469 366.472656 L 156.808594 368.917969 L 156.453125 371.570312 L 154.925781 374.765625 L 145.761719 390.429688 L 145.402344 392.726562 L 143.066406 410.109375 L 142.707031 412.402344 L 142.078125 414.695312 L 140.910156 416.480469 L 138.933594 418.265625 L 136.148438 419.628906 L 133.722656 420.308594 L 130.667969 420.484375 L 125.730469 420.492188 L 120.429688 420.15625 L 116.933594 419.539062 L 113.65625 419.019531 L 108.660156 417.953125 L 105.988281 417.382812 L 103.179688 416.761719 L 99.582031 415.484375 L 98.863281 413.867188 L 99.3125 412.160156 L 99.851562 411.054688 L 125.839844 369.722656 L 131.953125 360.875 L 135.359375 356.285156 Z M 137.253906 353.96875 "/>
</g>
<g clip-path="url(#clip13)" clip-rule="nonzero">
<path style=" stroke:none;fill-rule:nonzero;fill:rgb(39.99939%,39.99939%,39.99939%);fill-opacity:0.3;" d="M 308.105469 91.695312 L 324.675781 94.761719 L 321.261719 117.265625 L 323.074219 117.546875 L 325.023438 117.847656 L 328.199219 95.339844 L 343.707031 97.636719 L 341.679688 114.527344 L 342.394531 114.65625 L 343.105469 114.785156 L 345.265625 97.957031 L 360.167969 100.707031 L 357.035156 133.320312 L 329.742188 129.992188 L 328.3125 132.980469 L 323.96875 132.5 L 323.894531 133.210938 L 323.820312 133.925781 L 327.652344 134.359375 L 322.050781 146.074219 L 355.285156 150.4375 L 355.28125 150.46875 L 322.46875 146.902344 L 322.40625 147.480469 L 322.347656 148.0625 L 355.152344 151.75 L 354.417969 158.96875 L 321.441406 156.726562 L 321.378906 157.347656 L 321.3125 157.96875 L 354.28125 160.316406 L 352.765625 175.148438 L 283.535156 168.566406 L 287.933594 125.75 L 290.34375 121.695312 L 298.917969 107.273438 L 311.957031 108.667969 L 312.066406 108.351562 L 312.175781 108.03125 L 299.433594 106.570312 Z M 308.105469 91.695312 "/>
</g>
<g clip-path="url(#clip14)" clip-rule="nonzero">
<path style=" stroke:none;fill-rule:nonzero;fill:rgb(39.99939%,39.99939%,39.99939%);fill-opacity:0.3;" d="M 394.910156 163.476562 L 395.769531 156.136719 L 426.882812 158.984375 L 426.160156 166.097656 L 424.015625 187.300781 L 399.089844 185.695312 L 399 186.847656 L 398.90625 187.996094 L 423.78125 189.625 L 423.097656 196.402344 L 357.050781 196.9375 L 356.828125 196.878906 L 356.679688 196.800781 L 356.535156 196.714844 L 356.398438 196.621094 L 356.265625 196.519531 L 356.136719 196.414062 L 356.015625 196.300781 L 355.898438 196.183594 L 355.792969 196.058594 L 355.691406 195.929688 L 355.597656 195.796875 L 355.511719 195.65625 L 355.429688 195.515625 L 355.359375 195.367188 L 355.296875 195.21875 L 355.246094 195.066406 L 355.199219 194.910156 L 355.160156 194.753906 L 355.132812 194.59375 L 355.113281 194.433594 L 355.105469 194.273438 L 355.101562 194.113281 L 355.109375 193.949219 L 355.125 193.789062 L 357.039062 173.003906 L 385.453125 175.59375 L 385.503906 175.132812 L 385.554688 174.667969 L 357.125 172.066406 L 358.070312 161.867188 L 391.101562 164.648438 L 394.738281 164.953125 Z M 394.910156 163.476562 "/>
</g>
<path style=" stroke:none;fill-rule:nonzero;fill:rgb(39.99939%,39.99939%,39.99939%);fill-opacity:0.3;" d="M 228.90625 192.539062 L 235.179688 181.199219 L 242.699219 181.191406 L 252.664062 181.183594 L 252.8125 180.949219 L 272.367188 184.359375 L 273.589844 177.261719 L 254.945312 177.511719 L 281.496094 134.726562 L 281.597656 134.628906 L 281.710938 134.539062 L 281.835938 134.460938 L 281.964844 134.398438 L 282.101562 134.347656 L 282.242188 134.308594 L 282.390625 134.285156 L 282.535156 134.277344 L 282.683594 134.28125 L 282.828125 134.300781 L 282.96875 134.335938 L 283.105469 134.382812 L 283.238281 134.445312 L 283.363281 134.519531 L 283.476562 134.605469 L 283.628906 134.753906 L 283.714844 134.867188 L 283.789062 134.984375 L 283.851562 135.109375 L 278.242188 197.699219 L 269.085938 198.136719 L 266.503906 198.1875 L 263.75 198.515625 L 260.996094 198.925781 L 257.726562 199.496094 L 253.167969 200.71875 L 245.6875 203.085938 L 238.929688 205.773438 L 236.3125 205.953125 L 233.878906 205.867188 L 230.859375 205.71875 L 227.898438 205.238281 L 226.253906 204.582031 L 225.898438 203.417969 L 223.917969 202.425781 L 223.910156 202.382812 L 223.894531 202.253906 L 223.882812 202.128906 L 223.882812 202.003906 L 223.886719 201.875 L 223.898438 201.75 L 223.917969 201.625 L 223.945312 201.5 L 224.304688 200.847656 Z M 228.90625 192.539062 "/>
<path style=" stroke:none;fill-rule:nonzero;fill:rgb(39.99939%,39.99939%,39.99939%);fill-opacity:0.3;" d="M 285.125 126.988281 L 283.316406 129.824219 L 252.894531 177.539062 L 252.472656 177.542969 L 251.457031 178.445312 L 236.796875 176.582031 L 250.898438 154.65625 L 253.519531 151.320312 L 279.046875 112.511719 L 283.460938 104.410156 L 293.339844 89.414062 L 307 91.542969 Z M 285.125 126.988281 "/>
<g clip-path="url(#clip15)" clip-rule="nonzero">
<path style=" stroke:none;fill-rule:nonzero;fill:rgb(39.99939%,39.99939%,39.99939%);fill-opacity:0.3;" d="M 358.914062 152.769531 L 394.851562 156.050781 L 394.109375 164.058594 L 358.171875 160.769531 Z M 358.914062 152.769531 "/>
</g>
<g clip-path="url(#clip16)" clip-rule="nonzero">
<path style=" stroke:none;fill-rule:nonzero;fill:rgb(39.99939%,39.99939%,39.99939%);fill-opacity:0.3;" d="M 360.316406 137.84375 L 393.082031 140.828125 L 391.886719 153.609375 L 359.113281 150.617188 Z M 360.316406 137.84375 "/>
</g>
<path style=" stroke:none;fill-rule:nonzero;fill:rgb(39.99939%,39.99939%,39.99939%);fill-opacity:0.3;" d="M 310.203125 185.742188 L 310.355469 184.742188 L 282.089844 182.789062 L 283.359375 170.285156 L 352.609375 176.714844 L 350.777344 194.828125 L 350.722656 194.980469 L 350.660156 195.125 L 350.589844 195.265625 L 350.511719 195.402344 L 350.429688 195.535156 L 350.335938 195.664062 L 350.238281 195.789062 L 350.132812 195.90625 L 350.019531 196.019531 L 349.902344 196.128906 L 349.777344 196.230469 L 349.648438 196.328125 L 349.375 196.5 L 349.230469 196.574219 L 349.082031 196.640625 L 348.933594 196.703125 L 348.777344 196.753906 L 348.621094 196.800781 L 348.460938 196.839844 L 348.300781 196.867188 L 348.140625 196.890625 L 347.976562 196.902344 L 347.8125 196.910156 L 280.605469 197.457031 L 281.914062 184.53125 L 310.097656 186.4375 Z M 310.203125 185.742188 "/>
<g clip-path="url(#clip17)" clip-rule="nonzero">
<path style=" stroke:none;fill-rule:nonzero;fill:rgb(39.99939%,39.99939%,39.99939%);fill-opacity:0.3;" d="M -6.113281 361.664062 L 11.507812 334.851562 L 26.359375 343.390625 L 8.960938 370.449219 Z M -6.113281 361.664062 "/>
</g>
<path style=" stroke:none;fill-rule:nonzero;fill:rgb(39.99939%,39.99939%,39.99939%);fill-opacity:0.3;" d="M -7.230469 323.941406 L 8.023438 332.710938 L -9.535156 359.851562 L -24.644531 351.222656 Z M -7.230469 323.941406 "/>
<path style=" stroke:none;fill-rule:nonzero;fill:rgb(39.99939%,39.99939%,39.99939%);fill-opacity:0.3;" d="M 357.035156 133.320312 L 356.765625 136.136719 L 328.3125 132.980469 L 329.742188 129.992188 Z M 357.035156 133.320312 "/>
<path style=" stroke:none;fill-rule:nonzero;fill:rgb(39.99939%,39.99939%,39.99939%);fill-opacity:0.3;" d="M 327.652344 134.359375 L 356.609375 137.628906 L 355.285156 150.4375 L 322.050781 146.074219 Z M 327.652344 134.359375 "/>
<g clip-path="url(#clip18)" clip-rule="nonzero">
<path style=" stroke:none;fill-rule:nonzero;fill:rgb(39.99939%,39.99939%,39.99939%);fill-opacity:0.3;" d="M 365.035156 -21.890625 L 374.578125 -20.667969 L 339.636719 37.597656 L 335.742188 44.121094 L 324.394531 42.757812 L 331.175781 32.136719 Z M 365.035156 -21.890625 "/>
</g>
<g clip-path="url(#clip19)" clip-rule="nonzero">
<path style=" stroke:none;fill-rule:nonzero;fill:rgb(39.99939%,39.99939%,39.99939%);fill-opacity:0.3;" d="M 350.878906 50.207031 L 365.316406 51.722656 L 360.230469 96.367188 L 346.066406 93.789062 Z M 350.878906 50.207031 "/>
</g>
<path style=" stroke:none;fill-rule:nonzero;fill:rgb(39.99939%,39.99939%,39.99939%);fill-opacity:0.3;" d="M 336.359375 48.46875 L 347.597656 49.738281 L 343.660156 93.351562 L 328.484375 90.585938 L 332.675781 56.691406 L 335.386719 56.875 Z M 336.359375 48.46875 "/>
<path style=" stroke:none;fill-rule:nonzero;fill:rgb(39.99939%,39.99939%,39.99939%);fill-opacity:0.3;" d="M 326.839844 61.644531 L 328.957031 61.851562 L 325.742188 90.148438 L 312.601562 87.695312 L 312.347656 83.882812 Z M 326.839844 61.644531 "/>
<path style=" stroke:none;fill-rule:nonzero;fill:rgb(39.99939%,39.99939%,39.99939%);fill-opacity:0.3;" d="M 322.800781 39.304688 L 322.472656 41.589844 L 321.179688 41.429688 Z M 322.800781 39.304688 "/>
<path style=" stroke:none;fill-rule:nonzero;fill:rgb(39.99939%,39.99939%,39.99939%);fill-opacity:0.3;" d="M 318.589844 45.058594 L 320.042969 45.199219 L 314.46875 51.503906 L 317.15625 47.128906 Z M 318.589844 45.058594 "/>
<path style=" stroke:none;fill-rule:nonzero;fill:rgb(39.99939%,39.99939%,39.99939%);fill-opacity:0.3;" d="M 328.5625 55.082031 L 305.882812 86.621094 L 295.273438 84.765625 L 322.101562 45.398438 L 334.335938 47.011719 Z M 328.5625 55.082031 "/>
<path style=" stroke:none;fill-rule:nonzero;fill:rgb(39.99939%,39.99939%,39.99939%);fill-opacity:0.3;" d="M 351.109375 24.441406 L 348.4375 46.125 L 337.386719 44.746094 Z M 351.109375 24.441406 "/>
<g clip-path="url(#clip20)" clip-rule="nonzero">
<path style=" stroke:none;fill-rule:nonzero;fill:rgb(39.99939%,39.99939%,39.99939%);fill-opacity:0.3;" d="M 355.101562 15.378906 L 369.402344 17.167969 L 365.90625 48.488281 L 351.378906 46.636719 Z M 355.101562 15.378906 "/>
</g>
<g clip-path="url(#clip21)" clip-rule="nonzero">
<path style=" stroke:none;fill-rule:nonzero;fill:rgb(39.99939%,39.99939%,39.99939%);fill-opacity:0.3;" d="M 372.242188 -10.390625 L 369.933594 14.28125 L 356.617188 12.664062 Z M 372.242188 -10.390625 "/>
</g>
<path style=" stroke:none;fill-rule:nonzero;fill:rgb(39.99939%,39.99939%,39.99939%);fill-opacity:0.3;" d="M 143.859375 164.746094 L 163.367188 168.398438 L 174.144531 170.390625 L 172.765625 188.875 L 168.78125 219.472656 L 159.109375 217.625 L 137.726562 213.539062 L 140.511719 192.390625 Z M 143.859375 164.746094 "/>
<path style=" stroke:none;fill-rule:nonzero;fill:rgb(39.99939%,39.99939%,39.99939%);fill-opacity:0.3;" d="M 113.082031 208.417969 L 100.957031 206.085938 L 108.292969 158.316406 L 139.945312 163.570312 L 137.546875 182.535156 L 133.769531 212.390625 L 127.355469 211.160156 L 118.3125 209.304688 Z M 113.082031 208.417969 "/>
<path style=" stroke:none;fill-rule:nonzero;fill:rgb(39.99939%,39.99939%,39.99939%);fill-opacity:0.3;" d="M 226.253906 204.582031 L 225.5 204.277344 L 225.371094 204.226562 L 225.25 204.171875 L 225.132812 204.109375 L 225.019531 204.042969 L 224.914062 203.96875 L 224.808594 203.890625 L 224.707031 203.808594 L 224.609375 203.722656 L 224.519531 203.628906 L 224.433594 203.53125 L 224.355469 203.429688 L 224.277344 203.324219 L 224.210938 203.214844 L 224.148438 203.105469 L 224.09375 202.988281 L 224.042969 202.871094 L 224 202.75 L 223.960938 202.628906 L 223.933594 202.507812 L 223.917969 202.425781 L 225.898438 203.417969 Z M 226.253906 204.582031 "/>
<path style=" stroke:none;fill-rule:nonzero;fill:rgb(39.99939%,39.99939%,39.99939%);fill-opacity:0.3;" d="M 250.898438 154.65625 L 271.839844 122.09375 L 272.769531 120.644531 L 283.460938 104.410156 L 279.046875 112.511719 L 253.519531 151.320312 Z M 250.898438 154.65625 "/>
<path style=" stroke:none;fill-rule:nonzero;fill:rgb(39.99939%,39.99939%,39.99939%);fill-opacity:0.3;" d="M 265.960938 82.8125 L 280.324219 85.984375 L 276.21875 110.855469 L 263.984375 130.707031 L 259.113281 129.644531 Z M 265.960938 82.8125 "/>
<path style=" stroke:none;fill-rule:nonzero;fill:rgb(39.99939%,39.99939%,39.99939%);fill-opacity:0.3;" d="M 247.460938 79.769531 L 261.738281 82.464844 L 255.816406 128.996094 L 240.957031 126.386719 Z M 247.460938 79.769531 "/>
<path style=" stroke:none;fill-rule:nonzero;fill:rgb(39.99939%,39.99939%,39.99939%);fill-opacity:0.3;" d="M 229.578125 77.089844 L 244.304688 79.59375 L 237.660156 125.804688 L 222.78125 123.183594 Z M 229.578125 77.089844 "/>
<path style=" stroke:none;fill-rule:nonzero;fill:rgb(39.99939%,39.99939%,39.99939%);fill-opacity:0.3;" d="M 211.1875 73.605469 L 226.363281 76.507812 L 219.550781 122.613281 L 204.945312 120.039062 Z M 211.1875 73.605469 "/>
<path style=" stroke:none;fill-rule:nonzero;fill:rgb(39.99939%,39.99939%,39.99939%);fill-opacity:0.3;" d="M 193.484375 70.65625 L 207.859375 73.058594 L 201.480469 119.425781 L 187.074219 116.886719 Z M 193.484375 70.65625 "/>
<path style=" stroke:none;fill-rule:nonzero;fill:rgb(39.99939%,39.99939%,39.99939%);fill-opacity:0.3;" d="M 174.929688 67.148438 L 189.585938 69.777344 L 182.929688 116.15625 L 168.460938 113.605469 Z M 174.929688 67.148438 "/>
<path style=" stroke:none;fill-rule:nonzero;fill:rgb(39.99939%,39.99939%,39.99939%);fill-opacity:0.3;" d="M 157.574219 64.113281 L 171.558594 66.851562 L 165.042969 113.003906 L 150.789062 110.488281 Z M 157.574219 64.113281 "/>
<path style=" stroke:none;fill-rule:nonzero;fill:rgb(39.99939%,39.99939%,39.99939%);fill-opacity:0.3;" d="M 139.636719 61.027344 L 153.363281 63.414062 L 147.195312 109.855469 L 132.578125 107.277344 Z M 139.636719 61.027344 "/>
<path style=" stroke:none;fill-rule:nonzero;fill:rgb(39.99939%,39.99939%,39.99939%);fill-opacity:0.3;" d="M 121.359375 57.515625 L 135.894531 60.257812 L 129.390625 106.71875 L 115.03125 104.183594 Z M 121.359375 57.515625 "/>
<path style=" stroke:none;fill-rule:nonzero;fill:rgb(39.99939%,39.99939%,39.99939%);fill-opacity:0.3;" d="M 103.582031 54.453125 L 117.40625 56.9375 L 110.882812 103.40625 L 96.847656 100.988281 Z M 103.582031 54.453125 "/>
<path style=" stroke:none;fill-rule:nonzero;fill:rgb(39.99939%,39.99939%,39.99939%);fill-opacity:0.3;" d="M 85.539062 51.429688 L 99.363281 53.90625 L 92.90625 100.3125 L 77.789062 97.710938 Z M 85.539062 51.429688 "/>
<path style=" stroke:none;fill-rule:nonzero;fill:rgb(39.99939%,39.99939%,39.99939%);fill-opacity:0.3;" d="M 77.601562 100.265625 L 92.667969 102.964844 L 86.671875 152.492188 L 71.367188 149.78125 Z M 77.601562 100.265625 "/>
<path style=" stroke:none;fill-rule:nonzero;fill:rgb(39.99939%,39.99939%,39.99939%);fill-opacity:0.3;" d="M 96.625 103.683594 L 110.8125 106.136719 L 104.40625 155.625 L 89.710938 152.96875 Z M 96.625 103.683594 "/>
<path style=" stroke:none;fill-rule:nonzero;fill:rgb(39.99939%,39.99939%,39.99939%);fill-opacity:0.3;" d="M 114.46875 106.785156 L 129.109375 109.328125 L 121.570312 158.660156 L 107.589844 156.167969 Z M 114.46875 106.785156 "/>
<path style=" stroke:none;fill-rule:nonzero;fill:rgb(39.99939%,39.99939%,39.99939%);fill-opacity:0.3;" d="M 132.375 109.898438 L 147.160156 112.453125 L 139.410156 161.816406 L 125.308594 159.28125 Z M 132.375 109.898438 "/>
<path style=" stroke:none;fill-rule:nonzero;fill:rgb(39.99939%,39.99939%,39.99939%);fill-opacity:0.3;" d="M 150.570312 113.011719 L 164.105469 115.472656 L 157.542969 165.027344 L 143.402344 162.542969 Z M 150.570312 113.011719 "/>
<path style=" stroke:none;fill-rule:nonzero;fill:rgb(39.99939%,39.99939%,39.99939%);fill-opacity:0.3;" d="M 168.105469 116.132812 L 182.578125 118.65625 L 175.554688 168.214844 L 161.183594 165.671875 Z M 168.105469 116.132812 "/>
<path style=" stroke:none;fill-rule:nonzero;fill:rgb(39.99939%,39.99939%,39.99939%);fill-opacity:0.3;" d="M 282.878906 86.195312 L 291.464844 88.046875 L 281.742188 101.425781 Z M 282.878906 86.195312 "/>
<path style=" stroke:none;fill-rule:nonzero;fill:rgb(39.99939%,39.99939%,39.99939%);fill-opacity:0.3;" d="M 185.890625 119.230469 L 200.8125 121.855469 L 194.597656 171.613281 L 178.925781 168.785156 Z M 185.890625 119.230469 "/>
<path style=" stroke:none;fill-rule:nonzero;fill:rgb(39.99939%,39.99939%,39.99939%);fill-opacity:0.3;" d="M 204.464844 122.425781 L 219.140625 125.03125 L 212.082031 174.6875 L 197.546875 172.109375 Z M 204.464844 122.425781 "/>
<path style=" stroke:none;fill-rule:nonzero;fill:rgb(39.99939%,39.99939%,39.99939%);fill-opacity:0.3;" d="M 222.464844 125.585938 L 236.519531 128.011719 L 231.003906 175.457031 L 215.648438 174.523438 Z M 222.464844 125.585938 "/>
<path style=" stroke:none;fill-rule:nonzero;fill:rgb(39.99939%,39.99939%,39.99939%);fill-opacity:0.3;" d="M 240.476562 128.777344 L 255.789062 131.386719 L 254.085938 146.898438 L 234.558594 175.144531 Z M 240.476562 128.777344 "/>
<path style=" stroke:none;fill-rule:nonzero;fill:rgb(39.99939%,39.99939%,39.99939%);fill-opacity:0.3;" d="M 70.933594 152.59375 L 86.375 155.1875 L 79.160156 202.3125 L 64.671875 199.542969 Z M 70.933594 152.59375 "/>
<path style=" stroke:none;fill-rule:nonzero;fill:rgb(39.99939%,39.99939%,39.99939%);fill-opacity:0.3;" d="M 89.019531 155.625 L 103.960938 158.082031 L 97.664062 205.835938 L 82.621094 203 Z M 89.019531 155.625 "/>
<path style=" stroke:none;fill-rule:nonzero;fill:rgb(39.99939%,39.99939%,39.99939%);fill-opacity:0.3;" d="M 178.214844 173.015625 L 192.871094 175.589844 L 187.570312 209.246094 L 173.691406 206.199219 Z M 178.214844 173.015625 "/>
<path style=" stroke:none;fill-rule:nonzero;fill:rgb(39.99939%,39.99939%,39.99939%);fill-opacity:0.3;" d="M 197.050781 174.988281 L 229.425781 180.148438 L 224.308594 188.457031 L 195.902344 182.277344 Z M 197.050781 174.988281 "/>
<path style=" stroke:none;fill-rule:nonzero;fill:rgb(39.99939%,39.99939%,39.99939%);fill-opacity:0.3;" d="M 195.351562 185.757812 L 222.273438 191.59375 L 216.992188 201.066406 L 193.667969 196.464844 Z M 195.351562 185.757812 "/>
<path style=" stroke:none;fill-rule:nonzero;fill:rgb(39.99939%,39.99939%,39.99939%);fill-opacity:0.3;" d="M 193.15625 199.707031 L 215.125 204.292969 L 208.886719 214.03125 L 191.527344 210.097656 Z M 193.15625 199.707031 "/>
<path style=" stroke:none;fill-rule:nonzero;fill:rgb(39.99939%,39.99939%,39.99939%);fill-opacity:0.3;" d="M 173.679688 207.792969 L 206.765625 216.140625 L 197.90625 230.683594 L 187.894531 224.113281 L 171.800781 220.050781 Z M 173.679688 207.792969 "/>
<path style=" stroke:none;fill-rule:nonzero;fill:rgb(39.99939%,39.99939%,39.99939%);fill-opacity:0.3;" d="M 171.75 222.988281 L 186.945312 225.765625 L 195.472656 231.398438 L 196.332031 233.988281 L 185.441406 252.804688 L 168.707031 248.335938 Z M 171.75 222.988281 "/>
<path style=" stroke:none;fill-rule:nonzero;fill:rgb(39.99939%,39.99939%,39.99939%);fill-opacity:0.3;" d="M 168.3125 249.5 L 184.78125 253.964844 L 175.273438 268.871094 L 165.773438 267.023438 Z M 168.3125 249.5 "/>
<path style=" stroke:none;fill-rule:nonzero;fill:rgb(39.99939%,39.99939%,39.99939%);fill-opacity:0.3;" d="M 164.855469 273.546875 L 172.164062 274.902344 L 166.3125 284.296875 L 163.765625 279.847656 Z M 164.855469 273.546875 "/>
<path style=" stroke:none;fill-rule:nonzero;fill:rgb(39.99939%,39.99939%,39.99939%);fill-opacity:0.3;" d="M 146.601562 270.164062 L 161.042969 272.839844 L 157.351562 294.410156 L 148.984375 307.054688 L 143.226562 308.570312 L 141.734375 307.058594 Z M 146.601562 270.164062 "/>
<path style=" stroke:none;fill-rule:nonzero;fill:rgb(39.99939%,39.99939%,39.99939%);fill-opacity:0.3;" d="M 128.84375 266.871094 L 142.863281 269.46875 L 137.128906 306.714844 L 123.183594 306.890625 Z M 128.84375 266.871094 "/>
<path style=" stroke:none;fill-rule:nonzero;fill:rgb(39.99939%,39.99939%,39.99939%);fill-opacity:0.3;" d="M 110.894531 263.542969 L 124.667969 266.097656 L 119.191406 306.34375 L 104.929688 304.695312 Z M 110.894531 263.542969 "/>
<path style=" stroke:none;fill-rule:nonzero;fill:rgb(39.99939%,39.99939%,39.99939%);fill-opacity:0.3;" d="M 92.613281 260.183594 L 107.011719 262.824219 L 100.503906 303.949219 L 86.785156 302.050781 Z M 92.613281 260.183594 "/>
<path style=" stroke:none;fill-rule:nonzero;fill:rgb(39.99939%,39.99939%,39.99939%);fill-opacity:0.3;" d="M 74.960938 256.886719 L 89.277344 259.589844 L 82.507812 301.289062 L 68.898438 299.160156 Z M 74.960938 256.886719 "/>
<path style=" stroke:none;fill-rule:nonzero;fill:rgb(39.99939%,39.99939%,39.99939%);fill-opacity:0.3;" d="M 57.207031 253.597656 L 71.414062 256.230469 L 65.867188 298.636719 L 51.429688 296.769531 Z M 57.207031 253.597656 "/>
<path style=" stroke:none;fill-rule:nonzero;fill:rgb(39.99939%,39.99939%,39.99939%);fill-opacity:0.3;" d="M 64.191406 203.339844 L 78.824219 206.023438 L 71.875 252.648438 L 57.554688 250.25 L 60.046875 233.332031 Z M 64.191406 203.339844 "/>
<path style=" stroke:none;fill-rule:nonzero;fill:rgb(39.99939%,39.99939%,39.99939%);fill-opacity:0.3;" d="M 82.070312 206.613281 L 96.921875 209.324219 L 89.507812 255.601562 L 76.496094 253.421875 Z M 82.070312 206.613281 "/>
<path style=" stroke:none;fill-rule:nonzero;fill:rgb(39.99939%,39.99939%,39.99939%);fill-opacity:0.3;" d="M 99.941406 209.875 L 114.566406 212.546875 L 108.546875 258.792969 L 93.613281 256.289062 Z M 99.941406 209.875 "/>
<path style=" stroke:none;fill-rule:nonzero;fill:rgb(39.99939%,39.99939%,39.99939%);fill-opacity:0.3;" d="M 117.597656 213.097656 L 132.441406 215.8125 L 125.964844 261.710938 L 111.632812 259.308594 Z M 117.597656 213.097656 "/>
<path style=" stroke:none;fill-rule:nonzero;fill:rgb(39.99939%,39.99939%,39.99939%);fill-opacity:0.3;" d="M 135.828125 216.429688 L 150.675781 219.140625 L 144.441406 264.804688 L 129.4375 262.289062 Z M 135.828125 216.429688 "/>
<path style=" stroke:none;fill-rule:nonzero;fill:rgb(39.99939%,39.99939%,39.99939%);fill-opacity:0.3;" d="M 153.605469 219.675781 L 168.195312 222.386719 L 162.777344 264.886719 L 160.109375 267.460938 L 147.703125 265.351562 Z M 153.605469 219.675781 "/>
<g clip-path="url(#clip22)" clip-rule="nonzero">
<path style=" stroke:none;fill-rule:nonzero;fill:rgb(39.99939%,39.99939%,39.99939%);fill-opacity:0.3;" d="M 72.054688 345.152344 L 71.640625 347.804688 L 70.070312 347.660156 L 64.929688 347.664062 L 60.363281 347.773438 L 59.152344 347.980469 L 57.953125 348.246094 L 56.773438 348.566406 L 55.609375 348.949219 L 54.46875 349.390625 L 53.355469 349.882812 L 52.273438 350.433594 L 51.222656 351.035156 L 50.082031 352.550781 L 49.507812 353.851562 L 48.824219 356.128906 L 44.917969 377.566406 L 44.539062 380.195312 L 43.65625 381.425781 L 41.894531 381.863281 L 39.796875 382.144531 L 37.585938 381.886719 L 36.042969 381.566406 L 34.429688 381.175781 L 32.144531 380.527344 L 29.175781 379.226562 L 18.171875 373.851562 L 18.984375 371.140625 L 23.472656 371.296875 L 26.777344 371.210938 L 28.082031 370.984375 L 29.078125 370.824219 L 29.417969 370.6875 L 29.664062 370.398438 L 29.757812 369.976562 L 33.523438 340.667969 L 33.789062 338.894531 L 34.710938 337.488281 L 37.648438 335.019531 L 40.5625 331.671875 L 42.996094 328.015625 L 47.175781 313.679688 L 50.191406 301.816406 L 50.503906 300.535156 L 50.851562 299.875 L 51.683594 299.285156 L 52.6875 299.28125 L 53.863281 299.414062 L 78.796875 303.933594 L 78.945312 303.972656 L 79.046875 304.066406 L 79.082031 304.140625 L 79.085938 304.273438 L 79.019531 304.402344 L 78.894531 304.480469 L 78.75 304.492188 L 66.652344 302.332031 L 62.769531 301.640625 L 59.953125 301.316406 L 57.535156 301.398438 L 55.015625 302.296875 L 52.5 304.238281 L 51.605469 306.117188 L 50.660156 313.773438 L 49 327.675781 L 48.710938 331.402344 L 48.863281 333.375 L 49.230469 334.855469 L 49.878906 335.71875 L 50.746094 336.167969 L 52.242188 336.597656 L 54.390625 336.785156 L 72.597656 339.457031 L 72.445312 340.710938 L 72.042969 340.9375 L 71.683594 341.238281 L 71.382812 341.59375 L 71.152344 341.992188 L 70.996094 342.425781 L 70.925781 342.875 L 70.9375 343.332031 L 71.03125 343.777344 L 71.203125 344.203125 L 71.453125 344.589844 L 71.769531 344.933594 Z M 72.054688 345.152344 "/>
</g>
<path style=" stroke:none;fill-rule:nonzero;fill:rgb(39.99939%,39.99939%,39.99939%);fill-opacity:0.3;" d="M 252.8125 180.949219 L 254.945312 177.511719 L 273.589844 177.261719 L 272.367188 184.359375 Z M 252.8125 180.949219 "/>
<path style=" stroke:none;fill-rule:nonzero;fill:rgb(39.99939%,39.99939%,39.99939%);fill-opacity:0.3;" d="M 252.894531 177.539062 L 252.25 178.546875 L 251.457031 178.445312 L 252.472656 177.542969 Z M 252.894531 177.539062 "/>
<path style=" stroke:none;fill-rule:nonzero;fill:rgb(39.99939%,39.99939%,39.99939%);fill-opacity:0.3;" d="M 204.898438 -3.851562 L 217.863281 -2.320312 L 214.933594 19.984375 L 213.675781 27.359375 L 200.324219 25.585938 L 201.425781 18.738281 Z M 204.898438 -3.851562 "/>
<path style=" stroke:none;fill-rule:nonzero;fill:rgb(39.99939%,39.99939%,39.99939%);fill-opacity:0.3;" d="M 208.0625 67.769531 L 193.457031 65.429688 L 199.214844 29.820312 L 213.476562 31.757812 Z M 208.0625 67.769531 "/>
<path style=" stroke:none;fill-rule:nonzero;fill:rgb(39.99939%,39.99939%,39.99939%);fill-opacity:0.3;" d="M 217.316406 31.941406 L 232.128906 34.03125 L 226.15625 71.160156 L 212.679688 68.804688 Z M 217.316406 31.941406 "/>
<path style=" stroke:none;fill-rule:nonzero;fill:rgb(39.99939%,39.99939%,39.99939%);fill-opacity:0.3;" d="M 235.070312 34.535156 L 250.054688 36.285156 L 244.191406 74.375 L 230.0625 71.847656 Z M 235.070312 34.535156 "/>
<path style=" stroke:none;fill-rule:nonzero;fill:rgb(39.99939%,39.99939%,39.99939%);fill-opacity:0.3;" d="M 253.539062 36.871094 L 268.667969 38.546875 L 262.453125 76.179688 L 261.671875 77.582031 L 248.167969 75.09375 Z M 253.539062 36.871094 "/>
<path style=" stroke:none;fill-rule:nonzero;fill:rgb(39.99939%,39.99939%,39.99939%);fill-opacity:0.3;" d="M 271.632812 38.949219 L 286.105469 40.832031 L 280.621094 80.835938 L 265.957031 78.011719 Z M 271.632812 38.949219 "/>
<path style=" stroke:none;fill-rule:nonzero;fill:rgb(39.99939%,39.99939%,39.99939%);fill-opacity:0.3;" d="M 289.839844 41.671875 L 304.886719 43.429688 L 299.589844 73.78125 L 293.144531 82.660156 L 284.464844 80.9375 Z M 289.839844 41.671875 "/>
<path style=" stroke:none;fill-rule:nonzero;fill:rgb(39.99939%,39.99939%,39.99939%);fill-opacity:0.3;" d="M 240.140625 0.246094 L 254.234375 2.140625 L 249.625 32.039062 L 235.886719 30.582031 Z M 240.140625 0.246094 "/>
<path style=" stroke:none;fill-rule:nonzero;fill:rgb(39.99939%,39.99939%,39.99939%);fill-opacity:0.3;" d="M 221.828125 -2 L 235.605469 -0.429688 L 232.078125 30.078125 L 218.234375 28.230469 Z M 221.828125 -2 "/>
<path style=" stroke:none;fill-rule:nonzero;fill:rgb(39.99939%,39.99939%,39.99939%);fill-opacity:0.3;" d="M 185.636719 -6.773438 L 199.992188 -4.621094 L 195.984375 24.582031 L 182.113281 23.414062 Z M 185.636719 -6.773438 "/>
<path style=" stroke:none;fill-rule:nonzero;fill:rgb(39.99939%,39.99939%,39.99939%);fill-opacity:0.3;" d="M 167.625 -8.773438 L 182.34375 -6.898438 L 178.3125 23.464844 L 163.480469 21.507812 Z M 167.625 -8.773438 "/>
<path style=" stroke:none;fill-rule:nonzero;fill:rgb(39.99939%,39.99939%,39.99939%);fill-opacity:0.3;" d="M 149.578125 -10.996094 L 163.800781 -9.351562 L 159.15625 20.328125 L 145.410156 18.449219 Z M 149.578125 -10.996094 "/>
<path style=" stroke:none;fill-rule:nonzero;fill:rgb(39.99939%,39.99939%,39.99939%);fill-opacity:0.3;" d="M 131.058594 -13.5 L 145.539062 -11.699219 L 141.277344 18.265625 L 127.246094 16.613281 Z M 131.058594 -13.5 "/>
<path style=" stroke:none;fill-rule:nonzero;fill:rgb(39.99939%,39.99939%,39.99939%);fill-opacity:0.3;" d="M 93.320312 -18.339844 L 109.183594 -16.609375 L 104.90625 13.628906 L 89.5 11.707031 Z M 93.320312 -18.339844 "/>
<path style=" stroke:none;fill-rule:nonzero;fill:rgb(39.99939%,39.99939%,39.99939%);fill-opacity:0.3;" d="M 113.410156 -15.617188 L 127.542969 -13.769531 L 122.867188 15.972656 L 108.898438 13.90625 Z M 113.410156 -15.617188 "/>
<path style=" stroke:none;fill-rule:nonzero;fill:rgb(39.99939%,39.99939%,39.99939%);fill-opacity:0.3;" d="M 281.472656 -31.953125 L 295.613281 -30.273438 L 291.34375 2.511719 L 277.539062 0.710938 Z M 281.472656 -31.953125 "/>
<path style=" stroke:none;fill-rule:nonzero;fill:rgb(39.99939%,39.99939%,39.99939%);fill-opacity:0.3;" d="M 263.652344 -33.839844 L 277.804688 -32.558594 L 273.390625 0.605469 L 259.265625 -0.828125 Z M 263.652344 -33.839844 "/>
<path style=" stroke:none;fill-rule:nonzero;fill:rgb(39.99939%,39.99939%,39.99939%);fill-opacity:0.3;" d="M 88.574219 15.820312 L 104.765625 17.996094 L 100.417969 49.261719 L 84.191406 46.449219 Z M 88.574219 15.820312 "/>
<path style=" stroke:none;fill-rule:nonzero;fill:rgb(39.99939%,39.99939%,39.99939%);fill-opacity:0.3;" d="M 108.320312 18.390625 L 121.757812 20.054688 L 118.160156 52.027344 L 104.242188 49.914062 Z M 108.320312 18.390625 "/>
<path style=" stroke:none;fill-rule:nonzero;fill:rgb(39.99939%,39.99939%,39.99939%);fill-opacity:0.3;" d="M 126.53125 20.898438 L 141.433594 22.261719 L 136.167969 55.289062 L 121.976562 52.917969 Z M 126.53125 20.898438 "/>
<path style=" stroke:none;fill-rule:nonzero;fill:rgb(39.99939%,39.99939%,39.99939%);fill-opacity:0.3;" d="M 144.683594 22.945312 L 158.8125 24.652344 L 154.414062 58.355469 L 139.863281 56.140625 Z M 144.683594 22.945312 "/>
<path style=" stroke:none;fill-rule:nonzero;fill:rgb(39.99939%,39.99939%,39.99939%);fill-opacity:0.3;" d="M 162.714844 25.183594 L 177.765625 27.179688 L 171.914062 62.078125 L 158.285156 59.476562 Z M 162.714844 25.183594 "/>
<path style=" stroke:none;fill-rule:nonzero;fill:rgb(39.99939%,39.99939%,39.99939%);fill-opacity:0.3;" d="M 181.074219 27.832031 L 195.589844 29.515625 L 190.480469 64.6875 L 176.054688 62.585938 Z M 181.074219 27.832031 "/>
<path style=" stroke:none;fill-rule:nonzero;fill:rgb(39.99939%,39.99939%,39.99939%);fill-opacity:0.3;" d="M 258.785156 2.808594 L 272.570312 4.332031 L 268.496094 34.117188 L 254.660156 32.566406 Z M 258.785156 2.808594 "/>
<path style=" stroke:none;fill-rule:nonzero;fill:rgb(39.99939%,39.99939%,39.99939%);fill-opacity:0.3;" d="M 276.546875 4.757812 L 290.890625 6.484375 L 286.179688 36.984375 L 272.164062 35.171875 Z M 276.546875 4.757812 "/>
<path style=" stroke:none;fill-rule:nonzero;fill:rgb(39.99939%,39.99939%,39.99939%);fill-opacity:0.3;" d="M 294.902344 7.171875 L 309.480469 9.015625 L 304.921875 38.871094 L 290.71875 37.390625 Z M 294.902344 7.171875 "/>
<path style=" stroke:none;fill-rule:nonzero;fill:rgb(39.99939%,39.99939%,39.99939%);fill-opacity:0.3;" d="M 312.765625 9.414062 L 326.808594 11.285156 L 322.800781 39.304688 L 321.179688 41.429688 L 308.265625 39.808594 Z M 312.765625 9.414062 "/>
<path style=" stroke:none;fill-rule:nonzero;fill:rgb(39.99939%,39.99939%,39.99939%);fill-opacity:0.3;" d="M 308.25 44.0625 L 318.589844 45.058594 L 317.15625 47.128906 L 314.46875 51.503906 L 307.558594 59.316406 L 306.753906 53.34375 L 306.59375 52.492188 Z M 308.25 44.0625 "/>
<path style=" stroke:none;fill-rule:nonzero;fill:rgb(39.99939%,39.99939%,39.99939%);fill-opacity:0.3;" d="M 299.710938 -29.65625 L 314.503906 -27.972656 L 309.660156 5.113281 L 295.53125 3.371094 Z M 299.710938 -29.65625 "/>
<path style=" stroke:none;fill-rule:nonzero;fill:rgb(39.99939%,39.99939%,39.99939%);fill-opacity:0.3;" d="M 330.628906 11.695312 L 337.734375 12.621094 L 337.894531 13.105469 L 329.492188 25.679688 Z M 330.628906 11.695312 "/>
<path style=" stroke:none;fill-rule:nonzero;fill:rgb(39.99939%,39.99939%,39.99939%);fill-opacity:0.3;" d="M 318.121094 -27.71875 L 332.125 -25.808594 L 327.277344 6.546875 L 313.53125 4.703125 Z M 318.121094 -27.71875 "/>
<path style=" stroke:none;fill-rule:nonzero;fill:rgb(39.99939%,39.99939%,39.99939%);fill-opacity:0.3;" d="M 336.285156 -25.160156 L 349.613281 -23.558594 L 347.210938 -1.257812 L 346.238281 0.898438 L 342.109375 8.722656 L 331.820312 7.5625 Z M 336.285156 -25.160156 "/>
<path style="fill-rule:nonzero;fill:rgb(39.99939%,39.99939%,39.99939%);fill-opacity:1;stroke-width:0.03;stroke-linecap:square;stroke-linejoin:miter;stroke:rgb(39.99939%,39.99939%,39.99939%);stroke-opacity:1;stroke-miterlimit:3.239307;" d="M 217.859375 177.746094 L 237.367188 181.398438 L 248.144531 183.390625 L 246.765625 201.875 L 242.78125 232.472656 L 233.109375 230.625 L 211.726562 226.539062 L 214.511719 205.390625 Z M 217.859375 177.746094 " transform="matrix(1,0,0,1,-74,-13)"/>
<path style="fill-rule:nonzero;fill:rgb(39.99939%,39.99939%,39.99939%);fill-opacity:1;stroke-width:0.03;stroke-linecap:square;stroke-linejoin:miter;stroke:rgb(39.99939%,39.99939%,39.99939%);stroke-opacity:1;stroke-miterlimit:3.239307;" d="M 187.082031 221.417969 L 174.957031 219.085938 L 182.292969 171.316406 L 213.945312 176.570312 L 211.546875 195.535156 L 207.769531 225.390625 L 201.355469 224.160156 L 192.3125 222.304688 Z M 187.082031 221.417969 " transform="matrix(1,0,0,1,-74,-13)"/>
<path style="fill-rule:nonzero;fill:rgb(39.99939%,39.99939%,39.99939%);fill-opacity:1;stroke-width:0.03;stroke-linecap:square;stroke-linejoin:miter;stroke:rgb(39.99939%,39.99939%,39.99939%);stroke-opacity:1;stroke-miterlimit:3.239307;" d="M 300.253906 217.582031 L 299.5 217.277344 L 299.371094 217.226562 L 299.25 217.171875 L 299.132812 217.109375 L 299.019531 217.042969 L 298.914062 216.96875 L 298.808594 216.890625 L 298.707031 216.808594 L 298.609375 216.722656 L 298.519531 216.628906 L 298.433594 216.53125 L 298.355469 216.429688 L 298.277344 216.324219 L 298.210938 216.214844 L 298.148438 216.105469 L 298.09375 215.988281 L 298.042969 215.871094 L 298 215.75 L 297.960938 215.628906 L 297.933594 215.507812 L 297.917969 215.425781 L 299.898438 216.417969 Z M 300.253906 217.582031 " transform="matrix(1,0,0,1,-74,-13)"/>
<path style="fill-rule:nonzero;fill:rgb(39.99939%,39.99939%,39.99939%);fill-opacity:1;stroke-width:0.03;stroke-linecap:square;stroke-linejoin:miter;stroke:rgb(39.99939%,39.99939%,39.99939%);stroke-opacity:1;stroke-miterlimit:3.239307;" d="M 324.898438 167.65625 L 345.839844 135.09375 L 346.769531 133.644531 L 357.460938 117.410156 L 353.046875 125.511719 L 327.519531 164.320312 Z M 324.898438 167.65625 " transform="matrix(1,0,0,1,-74,-13)"/>
<path style="fill-rule:nonzero;fill:rgb(39.99939%,39.99939%,39.99939%);fill-opacity:1;stroke-width:0.03;stroke-linecap:square;stroke-linejoin:miter;stroke:rgb(39.99939%,39.99939%,39.99939%);stroke-opacity:1;stroke-miterlimit:3.239307;" d="M 339.960938 95.8125 L 354.324219 98.984375 L 350.21875 123.855469 L 337.984375 143.707031 L 333.113281 142.644531 Z M 339.960938 95.8125 " transform="matrix(1,0,0,1,-74,-13)"/>
<path style="fill-rule:nonzero;fill:rgb(39.99939%,39.99939%,39.99939%);fill-opacity:1;stroke-width:0.03;stroke-linecap:square;stroke-linejoin:miter;stroke:rgb(39.99939%,39.99939%,39.99939%);stroke-opacity:1;stroke-miterlimit:3.239307;" d="M 321.460938 92.769531 L 335.738281 95.464844 L 329.816406 141.996094 L 314.957031 139.386719 Z M 321.460938 92.769531 " transform="matrix(1,0,0,1,-74,-13)"/>
<path style="fill-rule:nonzero;fill:rgb(39.99939%,39.99939%,39.99939%);fill-opacity:1;stroke-width:0.03;stroke-linecap:square;stroke-linejoin:miter;stroke:rgb(39.99939%,39.99939%,39.99939%);stroke-opacity:1;stroke-miterlimit:3.239307;" d="M 303.578125 90.089844 L 318.304688 92.59375 L 311.660156 138.804688 L 296.78125 136.183594 Z M 303.578125 90.089844 " transform="matrix(1,0,0,1,-74,-13)"/>
<path style="fill-rule:nonzero;fill:rgb(39.99939%,39.99939%,39.99939%);fill-opacity:1;stroke-width:0.03;stroke-linecap:square;stroke-linejoin:miter;stroke:rgb(39.99939%,39.99939%,39.99939%);stroke-opacity:1;stroke-miterlimit:3.239307;" d="M 285.1875 86.605469 L 300.363281 89.507812 L 293.550781 135.613281 L 278.945312 133.039062 Z M 285.1875 86.605469 " transform="matrix(1,0,0,1,-74,-13)"/>
<path style="fill-rule:nonzero;fill:rgb(39.99939%,39.99939%,39.99939%);fill-opacity:1;stroke-width:0.03;stroke-linecap:square;stroke-linejoin:miter;stroke:rgb(39.99939%,39.99939%,39.99939%);stroke-opacity:1;stroke-miterlimit:3.239307;" d="M 267.484375 83.65625 L 281.859375 86.058594 L 275.480469 132.425781 L 261.074219 129.886719 Z M 267.484375 83.65625 " transform="matrix(1,0,0,1,-74,-13)"/>
<path style="fill-rule:nonzero;fill:rgb(39.99939%,39.99939%,39.99939%);fill-opacity:1;stroke-width:0.03;stroke-linecap:square;stroke-linejoin:miter;stroke:rgb(39.99939%,39.99939%,39.99939%);stroke-opacity:1;stroke-miterlimit:3.239307;" d="M 248.929688 80.148438 L 263.585938 82.777344 L 256.929688 129.15625 L 242.460938 126.605469 Z M 248.929688 80.148438 " transform="matrix(1,0,0,1,-74,-13)"/>
<path style="fill-rule:nonzero;fill:rgb(39.99939%,39.99939%,39.99939%);fill-opacity:1;stroke-width:0.03;stroke-linecap:square;stroke-linejoin:miter;stroke:rgb(39.99939%,39.99939%,39.99939%);stroke-opacity:1;stroke-miterlimit:3.239307;" d="M 231.574219 77.113281 L 245.558594 79.851562 L 239.042969 126.003906 L 224.789062 123.488281 Z M 231.574219 77.113281 " transform="matrix(1,0,0,1,-74,-13)"/>
<path style="fill-rule:nonzero;fill:rgb(39.99939%,39.99939%,39.99939%);fill-opacity:1;stroke-width:0.03;stroke-linecap:square;stroke-linejoin:miter;stroke:rgb(39.99939%,39.99939%,39.99939%);stroke-opacity:1;stroke-miterlimit:3.239307;" d="M 213.636719 74.027344 L 227.363281 76.414062 L 221.195312 122.855469 L 206.578125 120.277344 Z M 213.636719 74.027344 " transform="matrix(1,0,0,1,-74,-13)"/>
<path style="fill-rule:nonzero;fill:rgb(39.99939%,39.99939%,39.99939%);fill-opacity:1;stroke-width:0.03;stroke-linecap:square;stroke-linejoin:miter;stroke:rgb(39.99939%,39.99939%,39.99939%);stroke-opacity:1;stroke-miterlimit:3.239307;" d="M 195.359375 70.515625 L 209.894531 73.257812 L 203.390625 119.71875 L 189.03125 117.183594 Z M 195.359375 70.515625 " transform="matrix(1,0,0,1,-74,-13)"/>
<path style="fill-rule:nonzero;fill:rgb(39.99939%,39.99939%,39.99939%);fill-opacity:1;stroke-width:0.03;stroke-linecap:square;stroke-linejoin:miter;stroke:rgb(39.99939%,39.99939%,39.99939%);stroke-opacity:1;stroke-miterlimit:3.239307;" d="M 177.582031 67.453125 L 191.40625 69.9375 L 184.882812 116.40625 L 170.847656 113.988281 Z M 177.582031 67.453125 " transform="matrix(1,0,0,1,-74,-13)"/>
<path style="fill-rule:nonzero;fill:rgb(39.99939%,39.99939%,39.99939%);fill-opacity:1;stroke-width:0.03;stroke-linecap:square;stroke-linejoin:miter;stroke:rgb(39.99939%,39.99939%,39.99939%);stroke-opacity:1;stroke-miterlimit:3.239307;" d="M 159.539062 64.429688 L 173.363281 66.90625 L 166.90625 113.3125 L 151.789062 110.710938 Z M 159.539062 64.429688 " transform="matrix(1,0,0,1,-74,-13)"/>
<path style="fill-rule:nonzero;fill:rgb(39.99939%,39.99939%,39.99939%);fill-opacity:1;stroke-width:0.03;stroke-linecap:square;stroke-linejoin:miter;stroke:rgb(39.99939%,39.99939%,39.99939%);stroke-opacity:1;stroke-miterlimit:3.239307;" d="M 151.601562 113.265625 L 166.667969 115.964844 L 160.671875 165.492188 L 145.367188 162.78125 Z M 151.601562 113.265625 " transform="matrix(1,0,0,1,-74,-13)"/>
<path style="fill-rule:nonzero;fill:rgb(39.99939%,39.99939%,39.99939%);fill-opacity:1;stroke-width:0.03;stroke-linecap:square;stroke-linejoin:miter;stroke:rgb(39.99939%,39.99939%,39.99939%);stroke-opacity:1;stroke-miterlimit:3.239307;" d="M 170.625 116.683594 L 184.8125 119.136719 L 178.40625 168.625 L 163.710938 165.96875 Z M 170.625 116.683594 " transform="matrix(1,0,0,1,-74,-13)"/>
<path style="fill-rule:nonzero;fill:rgb(39.99939%,39.99939%,39.99939%);fill-opacity:1;stroke-width:0.03;stroke-linecap:square;stroke-linejoin:miter;stroke:rgb(39.99939%,39.99939%,39.99939%);stroke-opacity:1;stroke-miterlimit:3.239307;" d="M 188.46875 119.785156 L 203.109375 122.328125 L 195.570312 171.660156 L 181.589844 169.167969 Z M 188.46875 119.785156 " transform="matrix(1,0,0,1,-74,-13)"/>
<path style="fill-rule:nonzero;fill:rgb(39.99939%,39.99939%,39.99939%);fill-opacity:1;stroke-width:0.03;stroke-linecap:square;stroke-linejoin:miter;stroke:rgb(39.99939%,39.99939%,39.99939%);stroke-opacity:1;stroke-miterlimit:3.239307;" d="M 206.375 122.898438 L 221.160156 125.453125 L 213.410156 174.816406 L 199.308594 172.28125 Z M 206.375 122.898438 " transform="matrix(1,0,0,1,-74,-13)"/>
<path style="fill-rule:nonzero;fill:rgb(39.99939%,39.99939%,39.99939%);fill-opacity:1;stroke-width:0.03;stroke-linecap:square;stroke-linejoin:miter;stroke:rgb(39.99939%,39.99939%,39.99939%);stroke-opacity:1;stroke-miterlimit:3.239307;" d="M 224.570312 126.011719 L 238.105469 128.472656 L 231.542969 178.027344 L 217.402344 175.542969 Z M 224.570312 126.011719 " transform="matrix(1,0,0,1,-74,-13)"/>
<path style="fill-rule:nonzero;fill:rgb(39.99939%,39.99939%,39.99939%);fill-opacity:1;stroke-width:0.03;stroke-linecap:square;stroke-linejoin:miter;stroke:rgb(39.99939%,39.99939%,39.99939%);stroke-opacity:1;stroke-miterlimit:3.239307;" d="M 242.105469 129.132812 L 256.578125 131.65625 L 249.554688 181.214844 L 235.183594 178.671875 Z M 242.105469 129.132812 " transform="matrix(1,0,0,1,-74,-13)"/>
<path style="fill-rule:nonzero;fill:rgb(39.99939%,39.99939%,39.99939%);fill-opacity:1;stroke-width:0.03;stroke-linecap:square;stroke-linejoin:miter;stroke:rgb(39.99939%,39.99939%,39.99939%);stroke-opacity:1;stroke-miterlimit:3.239307;" d="M 356.878906 99.195312 L 365.464844 101.046875 L 355.742188 114.425781 Z M 356.878906 99.195312 " transform="matrix(1,0,0,1,-74,-13)"/>
<path style="fill-rule:nonzero;fill:rgb(39.99939%,39.99939%,39.99939%);fill-opacity:1;stroke-width:0.03;stroke-linecap:square;stroke-linejoin:miter;stroke:rgb(39.99939%,39.99939%,39.99939%);stroke-opacity:1;stroke-miterlimit:3.239307;" d="M 259.890625 132.230469 L 274.8125 134.855469 L 268.597656 184.613281 L 252.925781 181.785156 Z M 259.890625 132.230469 " transform="matrix(1,0,0,1,-74,-13)"/>
<path style="fill-rule:nonzero;fill:rgb(39.99939%,39.99939%,39.99939%);fill-opacity:1;stroke-width:0.03;stroke-linecap:square;stroke-linejoin:miter;stroke:rgb(39.99939%,39.99939%,39.99939%);stroke-opacity:1;stroke-miterlimit:3.239307;" d="M 278.464844 135.425781 L 293.140625 138.03125 L 286.082031 187.6875 L 271.546875 185.109375 Z M 278.464844 135.425781 " transform="matrix(1,0,0,1,-74,-13)"/>
<path style="fill-rule:nonzero;fill:rgb(39.99939%,39.99939%,39.99939%);fill-opacity:1;stroke-width:0.03;stroke-linecap:square;stroke-linejoin:miter;stroke:rgb(39.99939%,39.99939%,39.99939%);stroke-opacity:1;stroke-miterlimit:3.239307;" d="M 296.464844 138.585938 L 310.519531 141.011719 L 305.003906 188.457031 L 289.648438 187.523438 Z M 296.464844 138.585938 " transform="matrix(1,0,0,1,-74,-13)"/>
<path style="fill-rule:nonzero;fill:rgb(39.99939%,39.99939%,39.99939%);fill-opacity:1;stroke-width:0.03;stroke-linecap:square;stroke-linejoin:miter;stroke:rgb(39.99939%,39.99939%,39.99939%);stroke-opacity:1;stroke-miterlimit:3.239307;" d="M 314.476562 141.777344 L 329.789062 144.386719 L 328.085938 159.898438 L 308.558594 188.144531 Z M 314.476562 141.777344 " transform="matrix(1,0,0,1,-74,-13)"/>
<path style="fill-rule:nonzero;fill:rgb(39.99939%,39.99939%,39.99939%);fill-opacity:1;stroke-width:0.03;stroke-linecap:square;stroke-linejoin:miter;stroke:rgb(39.99939%,39.99939%,39.99939%);stroke-opacity:1;stroke-miterlimit:3.239307;" d="M 144.933594 165.59375 L 160.375 168.1875 L 153.160156 215.3125 L 138.671875 212.542969 Z M 144.933594 165.59375 " transform="matrix(1,0,0,1,-74,-13)"/>
<path style="fill-rule:nonzero;fill:rgb(39.99939%,39.99939%,39.99939%);fill-opacity:1;stroke-width:0.03;stroke-linecap:square;stroke-linejoin:miter;stroke:rgb(39.99939%,39.99939%,39.99939%);stroke-opacity:1;stroke-miterlimit:3.239307;" d="M 163.019531 168.625 L 177.960938 171.082031 L 171.664062 218.835938 L 156.621094 216 Z M 163.019531 168.625 " transform="matrix(1,0,0,1,-74,-13)"/>
<path style="fill-rule:nonzero;fill:rgb(39.99939%,39.99939%,39.99939%);fill-opacity:1;stroke-width:0.03;stroke-linecap:square;stroke-linejoin:miter;stroke:rgb(39.99939%,39.99939%,39.99939%);stroke-opacity:1;stroke-miterlimit:3.239307;" d="M 252.214844 186.015625 L 266.871094 188.589844 L 261.570312 222.246094 L 247.691406 219.199219 Z M 252.214844 186.015625 " transform="matrix(1,0,0,1,-74,-13)"/>
<path style="fill-rule:nonzero;fill:rgb(39.99939%,39.99939%,39.99939%);fill-opacity:1;stroke-width:0.03;stroke-linecap:square;stroke-linejoin:miter;stroke:rgb(39.99939%,39.99939%,39.99939%);stroke-opacity:1;stroke-miterlimit:3.239307;" d="M 271.050781 187.988281 L 303.425781 193.148438 L 298.308594 201.457031 L 269.902344 195.277344 Z M 271.050781 187.988281 " transform="matrix(1,0,0,1,-74,-13)"/>
<path style="fill-rule:nonzero;fill:rgb(39.99939%,39.99939%,39.99939%);fill-opacity:1;stroke-width:0.03;stroke-linecap:square;stroke-linejoin:miter;stroke:rgb(39.99939%,39.99939%,39.99939%);stroke-opacity:1;stroke-miterlimit:3.239307;" d="M 269.351562 198.757812 L 296.273438 204.59375 L 290.992188 214.066406 L 267.667969 209.464844 Z M 269.351562 198.757812 " transform="matrix(1,0,0,1,-74,-13)"/>
<path style="fill-rule:nonzero;fill:rgb(39.99939%,39.99939%,39.99939%);fill-opacity:1;stroke-width:0.03;stroke-linecap:square;stroke-linejoin:miter;stroke:rgb(39.99939%,39.99939%,39.99939%);stroke-opacity:1;stroke-miterlimit:3.239307;" d="M 267.15625 212.707031 L 289.125 217.292969 L 282.886719 227.03125 L 265.527344 223.097656 Z M 267.15625 212.707031 " transform="matrix(1,0,0,1,-74,-13)"/>
<path style="fill-rule:nonzero;fill:rgb(39.99939%,39.99939%,39.99939%);fill-opacity:1;stroke-width:0.03;stroke-linecap:square;stroke-linejoin:miter;stroke:rgb(39.99939%,39.99939%,39.99939%);stroke-opacity:1;stroke-miterlimit:3.239307;" d="M 247.679688 220.792969 L 280.765625 229.140625 L 271.90625 243.683594 L 261.894531 237.113281 L 245.800781 233.050781 Z M 247.679688 220.792969 " transform="matrix(1,0,0,1,-74,-13)"/>
<path style="fill-rule:nonzero;fill:rgb(39.99939%,39.99939%,39.99939%);fill-opacity:1;stroke-width:0.03;stroke-linecap:square;stroke-linejoin:miter;stroke:rgb(39.99939%,39.99939%,39.99939%);stroke-opacity:1;stroke-miterlimit:3.239307;" d="M 245.75 235.988281 L 260.945312 238.765625 L 269.472656 244.398438 L 270.332031 246.988281 L 259.441406 265.804688 L 242.707031 261.335938 Z M 245.75 235.988281 " transform="matrix(1,0,0,1,-74,-13)"/>
<path style="fill-rule:nonzero;fill:rgb(39.99939%,39.99939%,39.99939%);fill-opacity:1;stroke-width:0.03;stroke-linecap:square;stroke-linejoin:miter;stroke:rgb(39.99939%,39.99939%,39.99939%);stroke-opacity:1;stroke-miterlimit:3.239307;" d="M 242.3125 262.5 L 258.78125 266.964844 L 249.273438 281.871094 L 239.773438 280.023438 Z M 242.3125 262.5 " transform="matrix(1,0,0,1,-74,-13)"/>
<path style="fill-rule:nonzero;fill:rgb(39.99939%,39.99939%,39.99939%);fill-opacity:1;stroke-width:0.03;stroke-linecap:square;stroke-linejoin:miter;stroke:rgb(39.99939%,39.99939%,39.99939%);stroke-opacity:1;stroke-miterlimit:3.239307;" d="M 238.855469 286.546875 L 246.164062 287.902344 L 240.3125 297.296875 L 237.765625 292.847656 Z M 238.855469 286.546875 " transform="matrix(1,0,0,1,-74,-13)"/>
<path style="fill-rule:nonzero;fill:rgb(39.99939%,39.99939%,39.99939%);fill-opacity:1;stroke-width:0.03;stroke-linecap:square;stroke-linejoin:miter;stroke:rgb(39.99939%,39.99939%,39.99939%);stroke-opacity:1;stroke-miterlimit:3.239307;" d="M 220.601562 283.164062 L 235.042969 285.839844 L 231.351562 307.410156 L 222.984375 320.054688 L 217.226562 321.570312 L 215.734375 320.058594 Z M 220.601562 283.164062 " transform="matrix(1,0,0,1,-74,-13)"/>
<path style="fill-rule:nonzero;fill:rgb(39.99939%,39.99939%,39.99939%);fill-opacity:1;stroke-width:0.03;stroke-linecap:square;stroke-linejoin:miter;stroke:rgb(39.99939%,39.99939%,39.99939%);stroke-opacity:1;stroke-miterlimit:3.239307;" d="M 202.84375 279.871094 L 216.863281 282.46875 L 211.128906 319.714844 L 197.183594 319.890625 Z M 202.84375 279.871094 " transform="matrix(1,0,0,1,-74,-13)"/>
<path style="fill-rule:nonzero;fill:rgb(39.99939%,39.99939%,39.99939%);fill-opacity:1;stroke-width:0.03;stroke-linecap:square;stroke-linejoin:miter;stroke:rgb(39.99939%,39.99939%,39.99939%);stroke-opacity:1;stroke-miterlimit:3.239307;" d="M 184.894531 276.542969 L 198.667969 279.097656 L 193.191406 319.34375 L 178.929688 317.695312 Z M 184.894531 276.542969 " transform="matrix(1,0,0,1,-74,-13)"/>
<path style="fill-rule:nonzero;fill:rgb(39.99939%,39.99939%,39.99939%);fill-opacity:1;stroke-width:0.03;stroke-linecap:square;stroke-linejoin:miter;stroke:rgb(39.99939%,39.99939%,39.99939%);stroke-opacity:1;stroke-miterlimit:3.239307;" d="M 166.613281 273.183594 L 181.011719 275.824219 L 174.503906 316.949219 L 160.785156 315.050781 Z M 166.613281 273.183594 " transform="matrix(1,0,0,1,-74,-13)"/>
<path style="fill-rule:nonzero;fill:rgb(39.99939%,39.99939%,39.99939%);fill-opacity:1;stroke-width:0.03;stroke-linecap:square;stroke-linejoin:miter;stroke:rgb(39.99939%,39.99939%,39.99939%);stroke-opacity:1;stroke-miterlimit:3.239307;" d="M 148.960938 269.886719 L 163.277344 272.589844 L 156.507812 314.289062 L 142.898438 312.160156 Z M 148.960938 269.886719 " transform="matrix(1,0,0,1,-74,-13)"/>
<path style="fill-rule:nonzero;fill:rgb(39.99939%,39.99939%,39.99939%);fill-opacity:1;stroke-width:0.03;stroke-linecap:square;stroke-linejoin:miter;stroke:rgb(39.99939%,39.99939%,39.99939%);stroke-opacity:1;stroke-miterlimit:3.239307;" d="M 131.207031 266.597656 L 145.414062 269.230469 L 139.867188 311.636719 L 125.429688 309.769531 Z M 131.207031 266.597656 " transform="matrix(1,0,0,1,-74,-13)"/>
<path style="fill-rule:nonzero;fill:rgb(39.99939%,39.99939%,39.99939%);fill-opacity:1;stroke-width:0.03;stroke-linecap:square;stroke-linejoin:miter;stroke:rgb(39.99939%,39.99939%,39.99939%);stroke-opacity:1;stroke-miterlimit:3.239307;" d="M 138.191406 216.339844 L 152.824219 219.023438 L 145.875 265.648438 L 131.554688 263.25 L 134.046875 246.332031 Z M 138.191406 216.339844 " transform="matrix(1,0,0,1,-74,-13)"/>
<path style="fill-rule:nonzero;fill:rgb(39.99939%,39.99939%,39.99939%);fill-opacity:1;stroke-width:0.03;stroke-linecap:square;stroke-linejoin:miter;stroke:rgb(39.99939%,39.99939%,39.99939%);stroke-opacity:1;stroke-miterlimit:3.239307;" d="M 156.070312 219.613281 L 170.921875 222.324219 L 163.507812 268.601562 L 150.496094 266.421875 Z M 156.070312 219.613281 " transform="matrix(1,0,0,1,-74,-13)"/>
<path style="fill-rule:nonzero;fill:rgb(39.99939%,39.99939%,39.99939%);fill-opacity:1;stroke-width:0.03;stroke-linecap:square;stroke-linejoin:miter;stroke:rgb(39.99939%,39.99939%,39.99939%);stroke-opacity:1;stroke-miterlimit:3.239307;" d="M 173.941406 222.875 L 188.566406 225.546875 L 182.546875 271.792969 L 167.613281 269.289062 Z M 173.941406 222.875 " transform="matrix(1,0,0,1,-74,-13)"/>
<path style="fill-rule:nonzero;fill:rgb(39.99939%,39.99939%,39.99939%);fill-opacity:1;stroke-width:0.03;stroke-linecap:square;stroke-linejoin:miter;stroke:rgb(39.99939%,39.99939%,39.99939%);stroke-opacity:1;stroke-miterlimit:3.239307;" d="M 191.597656 226.097656 L 206.441406 228.8125 L 199.964844 274.710938 L 185.632812 272.308594 Z M 191.597656 226.097656 " transform="matrix(1,0,0,1,-74,-13)"/>
<path style="fill-rule:nonzero;fill:rgb(39.99939%,39.99939%,39.99939%);fill-opacity:1;stroke-width:0.03;stroke-linecap:square;stroke-linejoin:miter;stroke:rgb(39.99939%,39.99939%,39.99939%);stroke-opacity:1;stroke-miterlimit:3.239307;" d="M 209.828125 229.429688 L 224.675781 232.140625 L 218.441406 277.804688 L 203.4375 275.289062 Z M 209.828125 229.429688 " transform="matrix(1,0,0,1,-74,-13)"/>
<path style="fill-rule:nonzero;fill:rgb(39.99939%,39.99939%,39.99939%);fill-opacity:1;stroke-width:0.03;stroke-linecap:square;stroke-linejoin:miter;stroke:rgb(39.99939%,39.99939%,39.99939%);stroke-opacity:1;stroke-miterlimit:3.239307;" d="M 227.605469 232.675781 L 242.195312 235.386719 L 236.777344 277.886719 L 234.109375 280.460938 L 221.703125 278.351562 Z M 227.605469 232.675781 " transform="matrix(1,0,0,1,-74,-13)"/>
<g clip-path="url(#clip23)" clip-rule="nonzero">
<path style=" stroke:none;fill-rule:evenodd;fill:rgb(85.096741%,85.096741%,81.959534%);fill-opacity:0.7;" d="M 342.984375 355 C 342.984375 351.289062 341.511719 347.734375 338.890625 345.109375 C 336.265625 342.488281 332.710938 341.015625 329 341.015625 C 325.289062 341.015625 321.734375 342.488281 319.109375 345.109375 C 316.488281 347.734375 315.015625 351.289062 315.015625 355 C 315.015625 358.710938 316.488281 362.265625 319.109375 364.890625 C 321.734375 367.511719 325.289062 368.984375 329 368.984375 C 332.710938 368.984375 336.265625 367.511719 338.890625 364.890625 C 341.511719 362.265625 342.984375 358.710938 342.984375 355 Z M 342.984375 355 "/>
</g>
<path style=" stroke:none;fill-rule:evenodd;fill:rgb(85.096741%,85.096741%,81.959534%);fill-opacity:0.7;" d="M 172.984375 139 C 172.984375 135.289062 171.511719 131.734375 168.890625 129.109375 C 166.265625 126.488281 162.710938 125.015625 159 125.015625 C 155.289062 125.015625 151.734375 126.488281 149.109375 129.109375 C 146.488281 131.734375 145.015625 135.289062 145.015625 139 C 145.015625 142.710938 146.488281 146.265625 149.109375 148.890625 C 151.734375 151.511719 155.289062 152.984375 159 152.984375 C 162.710938 152.984375 166.265625 151.511719 168.890625 148.890625 C 171.511719 146.265625 172.984375 142.710938 172.984375 139 Z M 172.984375 139 "/>
<path style=" stroke:none;fill-rule:evenodd;fill:rgb(85.096741%,85.096741%,81.959534%);fill-opacity:0.7;" d="M 353.984375 133 C 353.984375 129.289062 352.511719 125.734375 349.890625 123.109375 C 347.265625 120.488281 343.710938 119.015625 340 119.015625 C 336.289062 119.015625 332.734375 120.488281 330.109375 123.109375 C 327.488281 125.734375 326.015625 129.289062 326.015625 133 C 326.015625 136.710938 327.488281 140.265625 330.109375 142.890625 C 332.734375 145.511719 336.289062 146.984375 340 146.984375 C 343.710938 146.984375 347.265625 145.511719 349.890625 142.890625 C 352.511719 140.265625 353.984375 136.710938 353.984375 133 Z M 353.984375 133 "/>
<g clip-path="url(#clip24)" clip-rule="nonzero">
<path style=" stroke:none;fill-rule:evenodd;fill:rgb(85.096741%,85.096741%,81.959534%);fill-opacity:0.7;" d="M 373.984375 112 C 373.984375 108.289062 372.511719 104.734375 369.890625 102.109375 C 367.265625 99.488281 363.710938 98.015625 360 98.015625 C 356.289062 98.015625 352.734375 99.488281 350.109375 102.109375 C 347.488281 104.734375 346.015625 108.289062 346.015625 112 C 346.015625 115.710938 347.488281 119.265625 350.109375 121.890625 C 352.734375 124.511719 356.289062 125.984375 360 125.984375 C 363.710938 125.984375 367.265625 124.511719 369.890625 121.890625 C 372.511719 119.265625 373.984375 115.710938 373.984375 112 Z M 373.984375 112 "/>
</g>
<g clip-path="url(#clip25)" clip-rule="nonzero">
<path style=" stroke:none;fill-rule:evenodd;fill:rgb(85.096741%,85.096741%,81.959534%);fill-opacity:0.7;" d="M 375.984375 83 C 375.984375 79.289062 374.511719 75.734375 371.890625 73.109375 C 369.265625 70.488281 365.710938 69.015625 362 69.015625 C 358.289062 69.015625 354.734375 70.488281 352.109375 73.109375 C 349.488281 75.734375 348.015625 79.289062 348.015625 83 C 348.015625 86.710938 349.488281 90.265625 352.109375 92.890625 C 354.734375 95.511719 358.289062 96.984375 362 96.984375 C 365.710938 96.984375 369.265625 95.511719 371.890625 92.890625 C 374.511719 90.265625 375.984375 86.710938 375.984375 83 Z M 375.984375 83 "/>
</g>
<g clip-path="url(#clip26)" clip-rule="nonzero">
<path style=" stroke:none;fill-rule:evenodd;fill:rgb(85.096741%,85.096741%,81.959534%);fill-opacity:0.7;" d="M 378.984375 75 C 378.984375 71.289062 377.511719 67.734375 374.890625 65.109375 C 372.265625 62.488281 368.710938 61.015625 365 61.015625 C 361.289062 61.015625 357.734375 62.488281 355.109375 65.109375 C 352.488281 67.734375 351.015625 71.289062 351.015625 75 C 351.015625 78.710938 352.488281 82.265625 355.109375 84.890625 C 357.734375 87.511719 361.289062 88.984375 365 88.984375 C 368.710938 88.984375 372.265625 87.511719 374.890625 84.890625 C 377.511719 82.265625 378.984375 78.710938 378.984375 75 Z M 378.984375 75 "/>
</g>
<path style=" stroke:none;fill-rule:evenodd;fill:rgb(85.096741%,85.096741%,81.959534%);fill-opacity:0.7;" d="M 355.984375 47 C 355.984375 43.289062 354.511719 39.734375 351.890625 37.109375 C 349.265625 34.488281 345.710938 33.015625 342 33.015625 C 338.289062 33.015625 334.734375 34.488281 332.109375 37.109375 C 329.488281 39.734375 328.015625 43.289062 328.015625 47 C 328.015625 50.710938 329.488281 54.265625 332.109375 56.890625 C 334.734375 59.511719 338.289062 60.984375 342 60.984375 C 345.710938 60.984375 349.265625 59.511719 351.890625 56.890625 C 354.511719 54.265625 355.984375 50.710938 355.984375 47 Z M 355.984375 47 "/>
<path style=" stroke:none;fill-rule:evenodd;fill:rgb(85.096741%,85.096741%,81.959534%);fill-opacity:0.7;" d="M 135.984375 35 C 135.984375 31.289062 134.511719 27.734375 131.890625 25.109375 C 129.265625 22.488281 125.710938 21.015625 122 21.015625 C 118.289062 21.015625 114.734375 22.488281 112.109375 25.109375 C 109.488281 27.734375 108.015625 31.289062 108.015625 35 C 108.015625 38.710938 109.488281 42.265625 112.109375 44.890625 C 114.734375 47.511719 118.289062 48.984375 122 48.984375 C 125.710938 48.984375 129.265625 47.511719 131.890625 44.890625 C 134.511719 42.265625 135.984375 38.710938 135.984375 35 Z M 135.984375 35 "/>
<path style=" stroke:none;fill-rule:evenodd;fill:rgb(85.096741%,85.096741%,81.959534%);fill-opacity:0.7;" d="M 283.984375 294 C 283.984375 290.289062 282.511719 286.734375 279.890625 284.109375 C 277.265625 281.488281 273.710938 280.015625 270 280.015625 C 266.289062 280.015625 262.734375 281.488281 260.109375 284.109375 C 257.488281 286.734375 256.015625 290.289062 256.015625 294 C 256.015625 297.710938 257.488281 301.265625 260.109375 303.890625 C 262.734375 306.511719 266.289062 307.984375 270 307.984375 C 273.710938 307.984375 277.265625 306.511719 279.890625 303.890625 C 282.511719 301.265625 283.984375 297.710938 283.984375 294 Z M 283.984375 294 "/>
<path style=" stroke:none;fill-rule:evenodd;fill:rgb(85.096741%,85.096741%,81.959534%);fill-opacity:0.7;" d="M 179.984375 102 C 179.984375 98.289062 178.511719 94.734375 175.890625 92.109375 C 173.265625 89.488281 169.710938 88.015625 166 88.015625 C 162.289062 88.015625 158.734375 89.488281 156.109375 92.109375 C 153.488281 94.734375 152.015625 98.289062 152.015625 102 C 152.015625 105.710938 153.488281 109.265625 156.109375 111.890625 C 158.734375 114.511719 162.289062 115.984375 166 115.984375 C 169.710938 115.984375 173.265625 114.511719 175.890625 111.890625 C 178.511719 109.265625 179.984375 105.710938 179.984375 102 Z M 179.984375 102 "/>
</g>
</svg>
