<?xml version="1.0" encoding="UTF-8"?>
<svg xmlns="http://www.w3.org/2000/svg" xmlns:xlink="http://www.w3.org/1999/xlink" width="361pt" height="361pt" viewBox="0 0 361 361" version="1.1">
<defs>
<clipPath id="clip1">
  <path d="M 336 151 L 360 151 L 360 193 L 336 193 Z M 336 151 "/>
</clipPath>
<clipPath id="clip2">
  <path d="M 351 124 L 360 124 L 360 132 L 351 132 Z M 351 124 "/>
</clipPath>
<clipPath id="clip3">
  <path d="M 345 127 L 360 127 L 360 177 L 345 177 Z M 345 127 "/>
</clipPath>
<clipPath id="clip4">
  <path d="M 322 185 L 360 185 L 360 250 L 322 250 Z M 322 185 "/>
</clipPath>
<clipPath id="clip5">
  <path d="M 336 181 L 360 181 L 360 194 L 336 194 Z M 336 181 "/>
</clipPath>
<clipPath id="clip6">
  <path d="M 109 346 L 136 346 L 136 360 L 109 360 Z M 109 346 "/>
</clipPath>
<clipPath id="clip7">
  <path d="M 31 336 L 133 336 L 133 360 L 31 360 Z M 31 336 "/>
</clipPath>
<clipPath id="clip8">
  <path d="M 137 346 L 162 346 L 162 360 L 137 360 Z M 137 346 "/>
</clipPath>
<clipPath id="clip9">
  <path d="M 197 349 L 251 349 L 251 360 L 197 360 Z M 197 349 "/>
</clipPath>
<clipPath id="clip10">
  <path d="M 178 348 L 201 348 L 201 360 L 178 360 Z M 178 348 "/>
</clipPath>
<clipPath id="clip11">
  <path d="M 162 347 L 178 347 L 178 360 L 162 360 Z M 162 347 "/>
</clipPath>
<clipPath id="clip12">
  <path d="M 10 334 L 33 334 L 33 360 L 10 360 Z M 10 334 "/>
</clipPath>
<clipPath id="clip13">
  <path d="M 0 327 L 11 327 L 11 360 L 0 360 Z M 0 327 "/>
</clipPath>
<clipPath id="clip14">
  <path d="M 203 319 L 360 319 L 360 354 L 203 354 Z M 203 319 "/>
</clipPath>
<clipPath id="clip15">
  <path d="M 304 248 L 360 248 L 360 349 L 304 349 Z M 304 248 "/>
</clipPath>
<clipPath id="clip16">
  <path d="M 355 246 L 360 246 L 360 251 L 355 251 Z M 355 246 "/>
</clipPath>
<clipPath id="clip17">
  <path d="M 354 258 L 360 258 L 360 264 L 354 264 Z M 354 258 "/>
</clipPath>
<clipPath id="clip18">
  <path d="M 353 264 L 360 264 L 360 270 L 353 270 Z M 353 264 "/>
</clipPath>
<clipPath id="clip19">
  <path d="M 301 354 L 356 354 L 356 360 L 301 360 Z M 301 354 "/>
</clipPath>
<clipPath id="clip20">
  <path d="M 248 351 L 316 351 L 316 360 L 248 360 Z M 248 351 "/>
</clipPath>
<clipPath id="clip21">
  <path d="M 356 356 L 360 356 L 360 360 L 356 360 Z M 356 356 "/>
</clipPath>
</defs>
<g id="surface6531">
<path style="fill-rule:nonzero;fill:rgb(0%,0%,0%);fill-opacity:1;stroke-width:0.03;stroke-linecap:square;stroke-linejoin:miter;stroke:rgb(0%,0%,0%);stroke-opacity:1;stroke-miterlimit:10;" d="M 0 178 L 360 178 L 360 -182 L 0 -182 Z M 0 178 " transform="matrix(1,0,0,1,0,182)"/>
<path style=" stroke:none;fill-rule:nonzero;fill:rgb(39.99939%,39.99939%,39.99939%);fill-opacity:0.3;" d="M 348.113281 123.246094 L 347.933594 123.863281 L 334.113281 120.390625 L 334.261719 119.878906 Z M 348.113281 123.246094 "/>
<path style=" stroke:none;fill-rule:nonzero;fill:rgb(39.99939%,39.99939%,39.99939%);fill-opacity:0.3;" d="M 332.753906 122.933594 L 347.941406 126.78125 L 333.003906 181.175781 L 318.707031 178.164062 Z M 332.753906 122.933594 "/>
<g clip-path="url(#clip1)" clip-rule="nonzero">
<path style=" stroke:none;fill-rule:nonzero;fill:rgb(39.99939%,39.99939%,39.99939%);fill-opacity:0.3;" d="M 344.640625 151.96875 L 398.519531 167.984375 L 389.523438 192.871094 L 336.394531 181.878906 Z M 344.640625 151.96875 "/>
</g>
<g clip-path="url(#clip2)" clip-rule="nonzero">
<path style=" stroke:none;fill-rule:nonzero;fill:rgb(39.99939%,39.99939%,39.99939%);fill-opacity:0.3;" d="M 377.332031 129.960938 L 376.996094 131.171875 L 351.898438 124.863281 L 352.101562 124.164062 L 376.539062 129.738281 Z M 377.332031 129.960938 "/>
</g>
<g clip-path="url(#clip3)" clip-rule="nonzero">
<path style=" stroke:none;fill-rule:nonzero;fill:rgb(39.99939%,39.99939%,39.99939%);fill-opacity:0.3;" d="M 379.363281 134.46875 L 443.5 151.109375 L 439.917969 176.339844 L 345.089844 149.433594 L 351.210938 127.355469 L 376.464844 133.34375 L 372.652344 148.722656 L 374.394531 149.039062 L 376.078125 149.34375 Z M 379.363281 134.46875 "/>
</g>
<path style=" stroke:none;fill-rule:nonzero;fill:rgb(39.99939%,39.99939%,39.99939%);fill-opacity:0.3;" d="M 329.226562 118.660156 L 329.101562 119.128906 L 305.703125 113.246094 L 305.742188 113.109375 Z M 329.226562 118.660156 "/>
<path style=" stroke:none;fill-rule:nonzero;fill:rgb(39.99939%,39.99939%,39.99939%);fill-opacity:0.3;" d="M 304.4375 115.726562 L 328.6875 122.359375 L 314.871094 177.355469 L 314.722656 177.324219 L 301.410156 174.535156 L 288.03125 171.644531 Z M 304.4375 115.726562 "/>
<path style=" stroke:none;fill-rule:nonzero;fill:rgb(39.99939%,39.99939%,39.99939%);fill-opacity:0.3;" d="M 288.835938 111.75 L 302.238281 115.195312 L 284.992188 171.070312 L 284.3125 170.949219 L 284.304688 170.949219 L 274.355469 169.105469 Z M 288.835938 111.75 "/>
<path style=" stroke:none;fill-rule:nonzero;fill:rgb(39.99939%,39.99939%,39.99939%);fill-opacity:0.3;" d="M 302.445312 112.292969 L 302.410156 112.417969 L 289.765625 109.238281 L 289.859375 108.863281 Z M 302.445312 112.292969 "/>
<path style=" stroke:none;fill-rule:nonzero;fill:rgb(39.99939%,39.99939%,39.99939%);fill-opacity:0.3;" d="M 333.003906 181.175781 L 332.839844 181.769531 L 318.589844 178.632812 L 318.707031 178.164062 Z M 333.003906 181.175781 "/>
<g clip-path="url(#clip4)" clip-rule="nonzero">
<path style=" stroke:none;fill-rule:nonzero;fill:rgb(39.99939%,39.99939%,39.99939%);fill-opacity:0.3;" d="M 322.839844 241.136719 L 334.96875 185.652344 L 388.320312 196.777344 L 370.246094 249.558594 L 356.273438 246.765625 L 363.496094 218.199219 L 360.949219 217.410156 L 353.476562 246.246094 L 343.597656 244.542969 L 350.039062 214.542969 L 349.144531 214.289062 L 348.253906 214.035156 L 341.242188 244.136719 L 340.726562 244.046875 Z M 322.839844 241.136719 "/>
</g>
<g clip-path="url(#clip5)" clip-rule="nonzero">
<path style=" stroke:none;fill-rule:nonzero;fill:rgb(39.99939%,39.99939%,39.99939%);fill-opacity:0.3;" d="M 389.523438 192.871094 L 389.285156 193.527344 L 336.25 182.390625 L 336.394531 181.878906 Z M 389.523438 192.871094 "/>
</g>
<path style=" stroke:none;fill-rule:nonzero;fill:rgb(39.99939%,39.99939%,39.99939%);fill-opacity:0.3;" d="M 222.503906 225.554688 L 251.414062 232.332031 L 251.957031 230.347656 L 252.464844 228.496094 L 240.019531 225.433594 L 251.707031 182.109375 L 269.960938 186.5 L 273.609375 172.855469 L 331.53125 184.933594 L 319.234375 240.5625 L 269.097656 234.234375 L 255.359375 234.726562 L 236.226562 229.328125 Z M 222.503906 225.554688 "/>
<path style=" stroke:none;fill-rule:nonzero;fill:rgb(39.99939%,39.99939%,39.99939%);fill-opacity:0.3;" d="M 233.914062 177.929688 L 247.957031 181.355469 L 236.441406 224.304688 L 221.554688 220.816406 Z M 233.914062 177.929688 "/>
<path style=" stroke:none;fill-rule:nonzero;fill:rgb(39.99939%,39.99939%,39.99939%);fill-opacity:0.3;" d="M 287.902344 197.679688 L 297.0625 199.554688 L 293.945312 213.421875 L 285.09375 211.753906 Z M 287.902344 197.679688 "/>
<path style=" stroke:none;fill-rule:nonzero;fill:rgb(39.99939%,39.99939%,39.99939%);fill-opacity:0.3;" d="M 298.796875 199.882812 L 307.515625 201.589844 L 304.773438 215.585938 L 296.121094 213.871094 Z M 298.796875 199.882812 "/>
<path style=" stroke:none;fill-rule:nonzero;fill:rgb(39.99939%,39.99939%,39.99939%);fill-opacity:0.3;" d="M 309.699219 198.902344 L 318.316406 200.199219 L 314.964844 217.1875 L 306.113281 215.523438 Z M 309.699219 198.902344 "/>
<path style=" stroke:none;fill-rule:nonzero;fill:rgb(39.99939%,39.99939%,39.99939%);fill-opacity:0.3;" d="M 286.742188 220.3125 L 294.105469 221.6875 L 291.425781 234.289062 L 284.058594 232.914062 Z M 286.742188 220.3125 "/>
<path style=" stroke:none;fill-rule:nonzero;fill:rgb(39.99939%,39.99939%,39.99939%);fill-opacity:0.3;" d="M 297.882812 222.222656 L 305.25 223.601562 L 302.566406 236.203125 L 295.203125 234.828125 Z M 297.882812 222.222656 "/>
<path style=" stroke:none;fill-rule:nonzero;fill:rgb(39.99939%,39.99939%,39.99939%);fill-opacity:0.3;" d="M 310.441406 221.039062 L 317.808594 222.417969 L 314.496094 238.199219 L 307.128906 236.824219 Z M 310.441406 221.039062 "/>
<path style=" stroke:none;fill-rule:nonzero;fill:rgb(39.99939%,39.99939%,39.99939%);fill-opacity:0.3;" d="M 283.964844 233.382812 L 315.886719 239.355469 L 315.726562 240.121094 L 283.40625 236.042969 Z M 283.964844 233.382812 "/>
<path style=" stroke:none;fill-rule:nonzero;fill:rgb(39.99939%,39.99939%,39.99939%);fill-opacity:0.3;" d="M 263.375 203.367188 L 267.945312 204.542969 L 266.015625 211.648438 L 261.445312 210.472656 Z M 263.375 203.367188 "/>
<path style=" stroke:none;fill-rule:nonzero;fill:rgb(39.99939%,39.99939%,39.99939%);fill-opacity:0.3;" d="M 250.171875 200.148438 L 254.746094 201.324219 L 252.816406 208.429688 L 248.242188 207.257812 Z M 250.171875 200.148438 "/>
<path style=" stroke:none;fill-rule:nonzero;fill:rgb(39.99939%,39.99939%,39.99939%);fill-opacity:0.3;" d="M 258.359375 195.707031 L 262.929688 196.882812 L 261 203.988281 L 256.429688 202.816406 Z M 258.359375 195.707031 "/>
<path style=" stroke:none;fill-rule:nonzero;fill:rgb(39.99939%,39.99939%,39.99939%);fill-opacity:0.3;" d="M 314.871094 177.355469 L 314.851562 177.4375 L 301.410156 174.535156 L 314.722656 177.324219 Z M 314.871094 177.355469 "/>
<path style=" stroke:none;fill-rule:nonzero;fill:rgb(39.99939%,39.99939%,39.99939%);fill-opacity:0.3;" d="M 284.3125 170.949219 L 274.339844 169.171875 L 274.355469 169.105469 L 284.304688 170.949219 Z M 284.3125 170.949219 "/>
<path style=" stroke:none;fill-rule:nonzero;fill:rgb(39.99939%,39.99939%,39.99939%);fill-opacity:0.3;" d="M 249.097656 177.144531 L 248.972656 177.621094 L 232.707031 173.773438 L 232.71875 173.695312 Z M 249.097656 177.144531 "/>
<path style=" stroke:none;fill-rule:nonzero;fill:rgb(39.99939%,39.99939%,39.99939%);fill-opacity:0.3;" d="M 266.628906 180.480469 L 266.316406 181.703125 L 253.109375 178.46875 L 253.246094 177.945312 Z M 266.628906 180.480469 "/>
<path style=" stroke:none;fill-rule:nonzero;fill:rgb(39.99939%,39.99939%,39.99939%);fill-opacity:0.3;" d="M 247.546875 208.925781 L 264.78125 213.453125 L 262.851562 220.558594 L 245.617188 216.03125 Z M 247.546875 208.925781 "/>
<path style=" stroke:none;fill-rule:nonzero;fill:rgb(39.99939%,39.99939%,39.99939%);fill-opacity:0.3;" d="M 254.109375 185.777344 L 271.339844 190.304688 L 269.410156 197.410156 L 252.175781 192.882812 Z M 254.109375 185.777344 "/>
<path style=" stroke:none;fill-rule:nonzero;fill:rgb(39.99939%,39.99939%,39.99939%);fill-opacity:0.3;" d="M 111.746094 318.074219 L 121.929688 318.425781 L 124.554688 303.585938 L 148.503906 308.398438 L 141.925781 338.078125 L 137.214844 338.257812 L 135.335938 347.199219 L 109.351562 341.96875 Z M 111.746094 318.074219 "/>
<g clip-path="url(#clip6)" clip-rule="nonzero">
<path style=" stroke:none;fill-rule:nonzero;fill:rgb(39.99939%,39.99939%,39.99939%);fill-opacity:0.3;" d="M 109.257812 346.578125 L 131.800781 350.609375 L 135.917969 360.859375 L 133.492188 372.269531 L 125.414062 368.375 L 118.863281 362.457031 L 113.070312 353.941406 Z M 109.257812 346.578125 "/>
</g>
<g clip-path="url(#clip7)" clip-rule="nonzero">
<path style=" stroke:none;fill-rule:nonzero;fill:rgb(39.99939%,39.99939%,39.99939%);fill-opacity:0.3;" d="M 37.355469 336.769531 L 75.019531 340.234375 L 105.746094 346.496094 L 111.289062 354.582031 L 116.578125 363.554688 L 123.097656 369.871094 L 132.894531 375.074219 L 132.136719 379.394531 L 50.410156 371.328125 L 48.816406 371.113281 L 31.113281 369.101562 Z M 37.355469 336.769531 "/>
</g>
<path style=" stroke:none;fill-rule:nonzero;fill:rgb(39.99939%,39.99939%,39.99939%);fill-opacity:0.3;" d="M 57.992188 313.089844 L 109.863281 318.253906 L 107.605469 341.996094 L 96.800781 339.585938 L 87.347656 338.027344 L 78.492188 336.183594 L 65.136719 334.421875 L 56.335938 334.292969 Z M 57.992188 313.089844 "/>
<path style=" stroke:none;fill-rule:nonzero;fill:rgb(39.99939%,39.99939%,39.99939%);fill-opacity:0.3;" d="M 60.28125 288.992188 L 121.730469 302.621094 L 119.617188 314.65625 L 112.273438 314.53125 L 112.574219 309.128906 L 111.230469 309.054688 L 109.984375 308.984375 L 109.6875 314.394531 L 58.367188 310.050781 Z M 60.28125 288.992188 "/>
<path style=" stroke:none;fill-rule:nonzero;fill:rgb(39.99939%,39.99939%,39.99939%);fill-opacity:0.3;" d="M 44.90625 279.613281 L 44.71875 280.417969 L 39.355469 279.355469 Z M 44.90625 279.613281 "/>
<path style=" stroke:none;fill-rule:nonzero;fill:rgb(39.99939%,39.99939%,39.99939%);fill-opacity:0.3;" d="M 66.890625 282.273438 L 66.335938 284.707031 L 51.035156 281.722656 L 51.429688 279.976562 L 60.097656 280.84375 Z M 66.890625 282.273438 "/>
<g clip-path="url(#clip8)" clip-rule="nonzero">
<path style=" stroke:none;fill-rule:nonzero;fill:rgb(39.99939%,39.99939%,39.99939%);fill-opacity:0.3;" d="M 144.640625 346.828125 L 161.214844 347.605469 L 156.796875 371.542969 L 137.761719 369.945312 Z M 144.640625 346.828125 "/>
</g>
<path style=" stroke:none;fill-rule:nonzero;fill:rgb(39.99939%,39.99939%,39.99939%);fill-opacity:0.3;" d="M 187.71875 315.625 L 207.546875 319.277344 L 200.617188 345.8125 L 181.449219 345.1875 Z M 187.71875 315.625 "/>
<g clip-path="url(#clip9)" clip-rule="nonzero">
<path style=" stroke:none;fill-rule:nonzero;fill:rgb(39.99939%,39.99939%,39.99939%);fill-opacity:0.3;" d="M 203.753906 349.601562 L 250.863281 351.816406 L 241.714844 393.984375 L 207.769531 391.71875 L 203.847656 395.15625 L 202.292969 395.777344 L 202.921875 389.910156 L 197.886719 388.464844 Z M 203.753906 349.601562 "/>
</g>
<path style=" stroke:none;fill-rule:nonzero;fill:rgb(39.99939%,39.99939%,39.99939%);fill-opacity:0.3;" d="M 219.429688 331.378906 L 225.832031 332.238281 L 224.921875 337.589844 L 218.523438 336.730469 Z M 219.429688 331.378906 "/>
<path style=" stroke:none;fill-rule:nonzero;fill:rgb(39.99939%,39.99939%,39.99939%);fill-opacity:0.3;" d="M 225.835938 332.226562 L 219.433594 331.367188 L 220.355469 325.996094 L 226.757812 326.847656 Z M 225.835938 332.226562 "/>
<path style=" stroke:none;fill-rule:nonzero;fill:rgb(39.99939%,39.99939%,39.99939%);fill-opacity:0.3;" d="M 227.472656 322.5625 L 226.761719 326.835938 L 220.355469 325.984375 L 221.078125 321.628906 Z M 227.472656 322.5625 "/>
<path style=" stroke:none;fill-rule:nonzero;fill:rgb(39.99939%,39.99939%,39.99939%);fill-opacity:0.3;" d="M 153.921875 309.082031 L 183.226562 315.527344 L 176.660156 346.113281 L 145.542969 343.980469 Z M 153.921875 309.082031 "/>
<g clip-path="url(#clip10)" clip-rule="nonzero">
<path style=" stroke:none;fill-rule:nonzero;fill:rgb(39.99939%,39.99939%,39.99939%);fill-opacity:0.3;" d="M 181.203125 348.542969 L 200.140625 349.433594 L 197.933594 364.242188 L 178.605469 362.625 Z M 181.203125 348.542969 "/>
</g>
<g clip-path="url(#clip11)" clip-rule="nonzero">
<path style=" stroke:none;fill-rule:nonzero;fill:rgb(39.99939%,39.99939%,39.99939%);fill-opacity:0.3;" d="M 165.414062 347.804688 L 177.421875 348.367188 L 174.851562 362.3125 L 162.921875 361.3125 Z M 165.414062 347.804688 "/>
</g>
<path style=" stroke:none;fill-rule:nonzero;fill:rgb(39.99939%,39.99939%,39.99939%);fill-opacity:0.3;" d="M 233.429688 333.257812 L 239.855469 334.117188 L 238.9375 339.488281 L 232.511719 338.625 Z M 233.429688 333.257812 "/>
<path style=" stroke:none;fill-rule:nonzero;fill:rgb(39.99939%,39.99939%,39.99939%);fill-opacity:0.3;" d="M 239.808594 325.652344 L 246.234375 326.515625 L 245.3125 331.882812 L 238.890625 331.023438 Z M 239.808594 325.652344 "/>
<g clip-path="url(#clip12)" clip-rule="nonzero">
<path style=" stroke:none;fill-rule:nonzero;fill:rgb(39.99939%,39.99939%,39.99939%);fill-opacity:0.3;" d="M 16.519531 334.691406 L 32.023438 336.570312 L 26.398438 368.34375 L 10.53125 365.777344 Z M 16.519531 334.691406 "/>
</g>
<path style=" stroke:none;fill-rule:nonzero;fill:rgb(39.99939%,39.99939%,39.99939%);fill-opacity:0.3;" d="M 29.359375 283.558594 L 57.644531 288.773438 L 52.71875 333.851562 L 19.144531 330.472656 Z M 29.359375 283.558594 "/>
<g clip-path="url(#clip13)" clip-rule="nonzero">
<path style=" stroke:none;fill-rule:nonzero;fill:rgb(39.99939%,39.99939%,39.99939%);fill-opacity:0.3;" d="M -41.621094 327.664062 L 10.539062 333.371094 L 3.988281 364.730469 L -13.425781 361.640625 L -13.75 363.351562 L -14.160156 365.519531 L 3.253906 368.78125 L 1.289062 380.03125 L -4.898438 379.289062 L -50.265625 368.792969 Z M -41.621094 327.664062 "/>
</g>
<path style=" stroke:none;fill-rule:nonzero;fill:rgb(39.99939%,39.99939%,39.99939%);fill-opacity:0.3;" d="M -10.882812 276.328125 L 24.0625 283.441406 L 14.273438 330.507812 L -21.613281 326.0625 Z M -10.882812 276.328125 "/>
<g clip-path="url(#clip14)" clip-rule="nonzero">
<path style=" stroke:none;fill-rule:nonzero;fill:rgb(39.99939%,39.99939%,39.99939%);fill-opacity:0.3;" d="M 225.847656 332.230469 L 226.769531 326.84375 L 227.480469 322.5625 L 363.730469 349.441406 L 363.191406 353.855469 L 330.800781 352.414062 L 322.574219 351.980469 L 304.910156 350.019531 L 290.191406 348.546875 L 254.871094 348.546875 L 254.761719 349.03125 L 213.472656 347.191406 L 203.089844 346.730469 L 209.773438 319.558594 L 217.851562 321.042969 L 221.070312 321.628906 L 220.34375 325.980469 L 219.421875 331.367188 L 218.503906 336.738281 L 224.925781 337.597656 Z M 225.847656 332.230469 "/>
</g>
<path style=" stroke:none;fill-rule:nonzero;fill:rgb(39.99939%,39.99939%,39.99939%);fill-opacity:0.3;" d="M 170.609375 305.207031 L 156.261719 302.605469 L 156.296875 302.425781 Z M 170.609375 305.207031 "/>
<path style=" stroke:none;fill-rule:nonzero;fill:rgb(39.99939%,39.99939%,39.99939%);fill-opacity:0.3;" d="M 132.367188 297.574219 L 115.546875 294.296875 L 116 292.117188 Z M 132.367188 297.574219 "/>
<path style=" stroke:none;fill-rule:nonzero;fill:rgb(39.99939%,39.99939%,39.99939%);fill-opacity:0.3;" d="M 111.882812 290.945312 L 111.324219 293.472656 L 89.609375 289.390625 L 90.035156 287.304688 Z M 111.882812 290.945312 "/>
<path style=" stroke:none;fill-rule:nonzero;fill:rgb(39.99939%,39.99939%,39.99939%);fill-opacity:0.3;" d="M 85.925781 286.429688 L 85.453125 288.605469 L 71.289062 285.671875 L 71.785156 283.324219 Z M 85.925781 286.429688 "/>
<path style=" stroke:none;fill-rule:nonzero;fill:rgb(39.99939%,39.99939%,39.99939%);fill-opacity:0.3;" d="M 49.023438 46.96875 L 31.230469 157.75 L 5.136719 272.542969 L -10.761719 269.402344 L 15.558594 154.660156 L 27.207031 105.855469 L 36.777344 46.242188 Z M 49.023438 46.96875 "/>
<path style=" stroke:none;fill-rule:nonzero;fill:rgb(39.99939%,39.99939%,39.99939%);fill-opacity:0.3;" d="M 66.707031 48.703125 L 74.726562 49.359375 L 61.246094 118.957031 L 23.832031 276.332031 L 7.796875 273.121094 L 35.273438 157.429688 L 52.160156 47.519531 Z M 66.707031 48.703125 "/>
<path style=" stroke:none;fill-rule:nonzero;fill:rgb(39.99939%,39.99939%,39.99939%);fill-opacity:0.3;" d="M -4.167969 42.90625 L 13.984375 44.390625 L -4.855469 133.878906 L -35.839844 264.421875 L -51.21875 261.375 L -22.941406 135.210938 L -25.488281 134.285156 L -27.546875 132.984375 L -28.914062 131.632812 L -21.136719 41.53125 L -7.839844 42.605469 L -17.09375 134.296875 L -15.394531 134.484375 L -13.664062 134.675781 Z M -4.167969 42.90625 "/>
<path style=" stroke:none;fill-rule:nonzero;fill:rgb(39.99939%,39.99939%,39.99939%);fill-opacity:0.3;" d="M 17.847656 44.832031 L 34.242188 46.046875 L 23.871094 106.386719 L -15.128906 268.507812 L -31.738281 265.207031 L -0.730469 133.703125 Z M 17.847656 44.832031 "/>
<path style=" stroke:none;fill-rule:nonzero;fill:rgb(39.99939%,39.99939%,39.99939%);fill-opacity:0.3;" d="M 99.648438 53.050781 L 83.53125 115.34375 L 44.90625 279.613281 L 39.355469 279.355469 L 28.875 277.277344 L 52.585938 177.179688 L 63.601562 126.5 L 78.644531 49.679688 L 90.699219 50.667969 L 81.542969 92.53125 L 83.226562 92.890625 L 84.898438 93.246094 L 93.882812 50.929688 L 99.996094 51.429688 Z M 99.648438 53.050781 "/>
<path style=" stroke:none;fill-rule:nonzero;fill:rgb(39.99939%,39.99939%,39.99939%);fill-opacity:0.3;" d="M 100.066406 51.433594 L 99.648438 53.050781 L 99.996094 51.429688 Z M 100.066406 51.433594 "/>
<path style=" stroke:none;fill-rule:nonzero;fill:rgb(39.99939%,39.99939%,39.99939%);fill-opacity:0.3;" d="M 103.128906 114.136719 L 101.078125 123.875 L 106.6875 124.792969 L 103.90625 136.605469 L 101.519531 136.242188 L 77.136719 237.246094 L 66.890625 282.273438 L 60.097656 280.84375 L 51.429688 279.976562 L 65.746094 216.167969 L 77.972656 218.925781 L 78.722656 216.339844 L 66.402344 213.671875 L 81.015625 153.773438 L 90.851562 110.992188 Z M 103.128906 114.136719 "/>
<path style=" stroke:none;fill-rule:nonzero;fill:rgb(39.99939%,39.99939%,39.99939%);fill-opacity:0.3;" d="M 104.890625 51.828125 L 128.03125 53.722656 L 117.355469 113.738281 L 89.882812 106.917969 Z M 104.890625 51.828125 "/>
<path style=" stroke:none;fill-rule:nonzero;fill:rgb(39.99939%,39.99939%,39.99939%);fill-opacity:0.3;" d="M 131.472656 54.003906 L 140.703125 54.757812 L 137.292969 91.132812 L 138.40625 91.296875 L 139.519531 91.457031 L 143.265625 54.96875 L 150.195312 55.535156 L 137.613281 118.769531 L 120.679688 114.5625 Z M 131.472656 54.003906 "/>
<path style=" stroke:none;fill-rule:nonzero;fill:rgb(39.99939%,39.99939%,39.99939%);fill-opacity:0.3;" d="M 126.6875 120.175781 L 138.734375 123.550781 L 138.054688 129.375 L 156.9375 133.269531 L 157.054688 132.492188 L 157.167969 131.71875 L 140.214844 128.167969 L 140.636719 124.085938 L 161.53125 128.914062 L 155.101562 148.875 L 105.832031 136.851562 L 110.5625 116.308594 L 124.773438 119.722656 L 123.851562 125.414062 L 111.382812 122.328125 L 111.277344 123.183594 L 111.171875 124.035156 L 125.28125 127.191406 Z M 126.6875 120.175781 "/>
<path style=" stroke:none;fill-rule:nonzero;fill:rgb(39.99939%,39.99939%,39.99939%);fill-opacity:0.3;" d="M 202.589844 139.199219 L 193.058594 136.625 L 193.113281 136.335938 Z M 202.589844 139.199219 "/>
<path style=" stroke:none;fill-rule:nonzero;fill:rgb(39.99939%,39.99939%,39.99939%);fill-opacity:0.3;" d="M 190.171875 135.449219 L 190.097656 135.828125 L 165.070312 129.070312 L 165.429688 127.941406 L 189.128906 135.132812 Z M 190.171875 135.449219 "/>
<path style=" stroke:none;fill-rule:nonzero;fill:rgb(39.99939%,39.99939%,39.99939%);fill-opacity:0.3;" d="M 153.085938 55.773438 L 164.558594 56.710938 L 163.894531 60.921875 L 151.785156 122.289062 L 140.585938 119.507812 Z M 153.085938 55.773438 "/>
<path style=" stroke:none;fill-rule:nonzero;fill:rgb(39.99939%,39.99939%,39.99939%);fill-opacity:0.3;" d="M 140.40625 208.953125 L 162.746094 214.621094 L 160.980469 221.855469 L 138.640625 216.1875 Z M 140.40625 208.953125 "/>
<path style=" stroke:none;fill-rule:nonzero;fill:rgb(39.99939%,39.99939%,39.99939%);fill-opacity:0.3;" d="M 116.09375 203.074219 L 138.433594 208.742188 L 136.667969 215.976562 L 114.328125 210.304688 Z M 116.09375 203.074219 "/>
<path style=" stroke:none;fill-rule:nonzero;fill:rgb(39.99939%,39.99939%,39.99939%);fill-opacity:0.3;" d="M 119.230469 190.09375 L 141.570312 195.761719 L 139.804688 202.996094 L 117.464844 197.328125 Z M 119.230469 190.09375 "/>
<path style=" stroke:none;fill-rule:nonzero;fill:rgb(39.99939%,39.99939%,39.99939%);fill-opacity:0.3;" d="M 232.992188 150.730469 L 229.726562 174.722656 L 214.410156 170.796875 L 214.238281 171.527344 L 214.070312 172.257812 L 229.308594 176.347656 L 224.730469 194.683594 L 208.199219 192.265625 L 207.472656 194.75 L 224.128906 196.597656 L 213.238281 231.464844 L 212.105469 231.289062 L 201.515625 229.570312 L 201.183594 230.828125 L 200.855469 232.082031 L 211.28125 234.117188 L 212.332031 234.375 L 207.199219 250.808594 L 205.90625 250.472656 L 196.894531 248.417969 L 196.480469 249.75 L 196.070312 251.085938 L 204.832031 253.746094 L 206.113281 254.277344 L 189.15625 308.570312 L 170.609375 305.207031 L 156.296875 302.425781 L 174.441406 213.164062 L 189.257812 216.808594 L 175.488281 284.976562 L 176.792969 285.167969 L 178.09375 285.355469 L 189.46875 227.4375 L 192.679688 227.902344 L 207.457031 169.605469 L 206.054688 169.097656 L 204.195312 168.421875 L 192.46875 214.257812 L 174.640625 210.09375 L 190.976562 139.386719 Z M 232.992188 150.730469 "/>
<path style=" stroke:none;fill-rule:nonzero;fill:rgb(39.99939%,39.99939%,39.99939%);fill-opacity:0.3;" d="M 104.226562 234.175781 L 108.75 215.945312 L 151.277344 224.820312 L 151.804688 223.128906 L 152.371094 221.3125 L 109.808594 211.683594 L 126.371094 144.929688 L 142.910156 148.964844 L 133.199219 186.097656 L 134.054688 186.386719 L 134.910156 186.671875 L 137.21875 178.652344 L 150.609375 181.980469 L 150.859375 181.265625 L 151.109375 180.554688 L 137.621094 177.222656 L 144.886719 149.449219 L 154.183594 151.71875 L 149.207031 167.164062 L 150.941406 167.652344 L 152.679688 168.140625 L 164.113281 132.085938 L 187.347656 138.40625 L 170.421875 208.527344 L 158.425781 205.90625 L 158.105469 208.183594 L 157.785156 210.464844 L 169.621094 212.6875 L 151.636719 301.285156 L 136.0625 298.292969 L 147.578125 244.492188 L 146.804688 244.296875 L 145.890625 244.15625 L 142.75 257.777344 L 123.019531 253.589844 L 123.851562 249.359375 L 122.902344 249.046875 L 121.953125 248.730469 L 120.761719 253.128906 L 119.421875 258.347656 L 120.390625 258.628906 L 121.363281 258.910156 L 122.386719 255.460938 L 141.980469 259.554688 L 133.523438 297.800781 L 132.367188 297.574219 L 116 292.117188 L 122.382812 261.578125 L 120.464844 261.199219 L 118.550781 260.816406 L 111.882812 290.945312 L 90.035156 287.304688 L 96.628906 255.238281 L 94.765625 254.75 L 92.898438 254.257812 L 85.925781 286.429688 L 71.785156 283.324219 L 80.175781 243.679688 L 81.371094 240.902344 L 104.492188 139.589844 L 123.191406 144.152344 L 108.253906 199.386719 L 104.167969 199.921875 L 95.394531 232.785156 L 99.808594 233.480469 Z M 104.226562 234.175781 "/>
<g clip-path="url(#clip15)" clip-rule="nonzero">
<path style=" stroke:none;fill-rule:nonzero;fill:rgb(39.99939%,39.99939%,39.99939%);fill-opacity:0.3;" d="M 421.425781 259.675781 L 415.726562 280.472656 L 404.140625 279.308594 L 404.140625 281.796875 L 414.96875 283.160156 L 401.394531 347.652344 L 400.007812 347.945312 L 398.75 348.175781 L 393.375 347.207031 L 345.277344 337.34375 L 348.867188 324.058594 L 367.070312 327.101562 L 367.398438 325.988281 L 367.722656 324.875 L 349.550781 321.621094 L 353.800781 305.785156 L 366 308.578125 L 366.316406 307.371094 L 366.769531 305.648438 L 354.585938 302.894531 L 358.109375 290.53125 L 354.554688 290.242188 L 341.304688 336.523438 L 304.445312 329.578125 L 321.296875 248.214844 Z M 421.425781 259.675781 "/>
</g>
<path style=" stroke:none;fill-rule:nonzero;fill:rgb(39.99939%,39.99939%,39.99939%);fill-opacity:0.3;" d="M 340.53125 247.179688 L 321.984375 245.050781 L 322.839844 241.136719 L 340.726562 244.046875 L 341.242188 244.136719 Z M 340.53125 247.179688 "/>
<g clip-path="url(#clip16)" clip-rule="nonzero">
<path style=" stroke:none;fill-rule:nonzero;fill:rgb(39.99939%,39.99939%,39.99939%);fill-opacity:0.3;" d="M 370.246094 249.558594 L 369.90625 250.554688 L 355.730469 248.925781 L 356.273438 246.765625 Z M 370.246094 249.558594 "/>
</g>
<path style=" stroke:none;fill-rule:nonzero;fill:rgb(39.99939%,39.99939%,39.99939%);fill-opacity:0.3;" d="M 353.476562 246.246094 L 352.871094 248.597656 L 342.96875 247.460938 L 343.597656 244.542969 Z M 353.476562 246.246094 "/>
<path style=" stroke:none;fill-rule:nonzero;fill:rgb(39.99939%,39.99939%,39.99939%);fill-opacity:0.3;" d="M 256.488281 299.640625 L 265.324219 301.449219 L 263.519531 310.347656 L 254.667969 308.683594 Z M 256.488281 299.640625 "/>
<path style=" stroke:none;fill-rule:nonzero;fill:rgb(39.99939%,39.99939%,39.99939%);fill-opacity:0.3;" d="M 288.753906 288.714844 L 297.585938 290.523438 L 295.785156 299.421875 L 286.929688 297.757812 Z M 288.753906 288.714844 "/>
<path style=" stroke:none;fill-rule:nonzero;fill:rgb(39.99939%,39.99939%,39.99939%);fill-opacity:0.3;" d="M 298.949219 290.640625 L 307.785156 292.449219 L 305.980469 301.347656 L 297.128906 299.683594 Z M 298.949219 290.640625 "/>
<path style=" stroke:none;fill-rule:nonzero;fill:rgb(39.99939%,39.99939%,39.99939%);fill-opacity:0.3;" d="M 294.355469 314.652344 L 303.1875 316.457031 L 301.386719 325.355469 L 292.53125 323.691406 Z M 294.355469 314.652344 "/>
<path style=" stroke:none;fill-rule:nonzero;fill:rgb(39.99939%,39.99939%,39.99939%);fill-opacity:0.3;" d="M 268.585938 284.863281 L 277.421875 286.667969 L 275.617188 295.570312 L 266.765625 293.902344 Z M 268.585938 284.863281 "/>
<path style=" stroke:none;fill-rule:nonzero;fill:rgb(39.99939%,39.99939%,39.99939%);fill-opacity:0.3;" d="M 279.007812 286.789062 L 287.84375 288.59375 L 286.039062 297.496094 L 277.1875 295.832031 Z M 279.007812 286.789062 "/>
<path style=" stroke:none;fill-rule:nonzero;fill:rgb(39.99939%,39.99939%,39.99939%);fill-opacity:0.3;" d="M 266.875 301.855469 L 275.710938 303.664062 L 273.90625 312.5625 L 265.054688 310.898438 Z M 266.875 301.855469 "/>
<path style=" stroke:none;fill-rule:nonzero;fill:rgb(39.99939%,39.99939%,39.99939%);fill-opacity:0.3;" d="M 276.703125 303.546875 L 285.539062 305.351562 L 283.734375 314.25 L 274.882812 312.585938 Z M 276.703125 303.546875 "/>
<path style=" stroke:none;fill-rule:nonzero;fill:rgb(39.99939%,39.99939%,39.99939%);fill-opacity:0.3;" d="M 286.582031 305.625 L 295.414062 307.429688 L 293.613281 316.332031 L 284.757812 314.667969 Z M 286.582031 305.625 "/>
<path style=" stroke:none;fill-rule:nonzero;fill:rgb(39.99939%,39.99939%,39.99939%);fill-opacity:0.3;" d="M 217.761719 224.445312 L 222.503906 225.554688 L 236.226562 229.328125 L 255.359375 234.726562 L 269.097656 234.234375 L 319.234375 240.5625 L 308.847656 287.550781 L 263.617188 278.457031 L 269.675781 246.308594 L 267.5 245.960938 L 265.128906 245.585938 L 259.160156 277.804688 L 256.347656 277.585938 L 256.085938 279.289062 L 255.765625 281.363281 L 308.496094 291.660156 L 300.984375 329.074219 L 192.578125 309.308594 L 207.511719 258.976562 L 221.804688 259.421875 L 222.726562 252.90625 L 221.730469 252.910156 L 220.347656 252.910156 L 219.875 256.667969 L 208.269531 256.433594 Z M 217.761719 224.445312 "/>
<path style=" stroke:none;fill-rule:nonzero;fill:rgb(39.99939%,39.99939%,39.99939%);fill-opacity:0.3;" d="M 315.726562 240.121094 L 315.210938 242.574219 L 283.289062 236.601562 L 283.40625 236.042969 Z M 315.726562 240.121094 "/>
<path style=" stroke:none;fill-rule:nonzero;fill:rgb(39.99939%,39.99939%,39.99939%);fill-opacity:0.3;" d="M 296.191406 244.816406 L 303.554688 246.195312 L 300.242188 261.976562 L 292.878906 260.601562 Z M 296.191406 244.816406 "/>
<path style=" stroke:none;fill-rule:nonzero;fill:rgb(39.99939%,39.99939%,39.99939%);fill-opacity:0.3;" d="M 306.75 246.789062 L 314.113281 248.167969 L 310.800781 263.949219 L 303.4375 262.574219 Z M 306.75 246.789062 "/>
<path style=" stroke:none;fill-rule:nonzero;fill:rgb(39.99939%,39.99939%,39.99939%);fill-opacity:0.3;" d="M 283.65625 260.957031 L 291.019531 262.332031 L 287.707031 278.117188 L 280.34375 276.738281 Z M 283.65625 260.957031 "/>
<path style=" stroke:none;fill-rule:nonzero;fill:rgb(39.99939%,39.99939%,39.99939%);fill-opacity:0.3;" d="M 272.535156 258.453125 L 279.898438 259.828125 L 276.585938 275.613281 L 269.222656 274.234375 Z M 272.535156 258.453125 "/>
<path style=" stroke:none;fill-rule:nonzero;fill:rgb(39.99939%,39.99939%,39.99939%);fill-opacity:0.3;" d="M 284.09375 242.554688 L 291.460938 243.933594 L 288.148438 259.714844 L 280.78125 258.339844 Z M 284.09375 242.554688 "/>
<g clip-path="url(#clip17)" clip-rule="nonzero">
<path style=" stroke:none;fill-rule:nonzero;fill:rgb(39.99939%,39.99939%,39.99939%);fill-opacity:0.3;" d="M 369.269531 259.589844 L 368.71875 263.714844 L 354.214844 262.507812 L 354.820312 258.152344 Z M 369.269531 259.589844 "/>
</g>
<g clip-path="url(#clip18)" clip-rule="nonzero">
<path style=" stroke:none;fill-rule:nonzero;fill:rgb(39.99939%,39.99939%,39.99939%);fill-opacity:0.3;" d="M 368.878906 265.59375 L 368.257812 269.730469 L 353.644531 268.527344 L 354.25 264.175781 Z M 368.878906 265.59375 "/>
</g>
<path style=" stroke:none;fill-rule:nonzero;fill:rgb(39.99939%,39.99939%,39.99939%);fill-opacity:0.3;" d="M 337.484375 269.390625 L 344.851562 270.765625 L 341.539062 286.550781 L 334.171875 285.171875 Z M 337.484375 269.390625 "/>
<g clip-path="url(#clip19)" clip-rule="nonzero">
<path style=" stroke:none;fill-rule:nonzero;fill:rgb(39.99939%,39.99939%,39.99939%);fill-opacity:0.3;" d="M 323.09375 354.753906 L 355.722656 355.792969 L 332.410156 444.519531 L 301.929688 437.242188 Z M 323.09375 354.753906 "/>
</g>
<g clip-path="url(#clip20)" clip-rule="nonzero">
<path style=" stroke:none;fill-rule:nonzero;fill:rgb(39.99939%,39.99939%,39.99939%);fill-opacity:0.3;" d="M 256.914062 351.988281 L 315.785156 354.082031 L 294.558594 435.445312 L 262.761719 429.304688 L 270.441406 396.664062 L 268.582031 396.433594 L 267.113281 396.25 L 267.132812 396.136719 L 248.617188 394.527344 Z M 256.914062 351.988281 "/>
</g>
<g clip-path="url(#clip21)" clip-rule="nonzero">
<path style=" stroke:none;fill-rule:nonzero;fill:rgb(39.99939%,39.99939%,39.99939%);fill-opacity:0.3;" d="M 361.1875 356.65625 L 388.566406 357.414062 L 386.875 365.449219 L 388.148438 365.59375 L 389.417969 365.734375 L 391.230469 357.472656 L 396.917969 357.925781 L 392.390625 377.671875 L 356.925781 374.820312 Z M 361.1875 356.65625 "/>
</g>
<path style=" stroke:none;fill-rule:nonzero;fill:rgb(39.99939%,39.99939%,39.99939%);fill-opacity:0.3;" d="M 330.800781 352.414062 L 254.761719 349.03125 L 254.871094 348.546875 L 290.191406 348.546875 L 304.910156 350.019531 L 322.574219 351.980469 Z M 330.800781 352.414062 "/>
<path style="fill-rule:nonzero;fill:rgb(39.99939%,39.99939%,39.99939%);fill-opacity:1;stroke-width:0.03;stroke-linecap:square;stroke-linejoin:miter;stroke:rgb(39.99939%,39.99939%,39.99939%);stroke-opacity:1;stroke-miterlimit:3.239307;" d="M 174.066406 64.433594 L 173.648438 66.050781 L 173.996094 64.429688 Z M 174.066406 64.433594 " transform="matrix(1,0,0,1,-74,-13)"/>
<path style="fill-rule:nonzero;fill:rgb(39.99939%,39.99939%,39.99939%);fill-opacity:1;stroke-width:0.03;stroke-linecap:square;stroke-linejoin:miter;stroke:rgb(39.99939%,39.99939%,39.99939%);stroke-opacity:1;stroke-miterlimit:3.239307;" d="M 177.128906 127.136719 L 175.078125 136.875 L 180.6875 137.792969 L 177.90625 149.605469 L 175.519531 149.242188 L 151.136719 250.246094 L 140.890625 295.273438 L 134.097656 293.84375 L 125.429688 292.976562 L 139.746094 229.167969 L 151.972656 231.925781 L 152.722656 229.339844 L 140.402344 226.671875 L 155.015625 166.773438 L 164.851562 123.992188 Z M 177.128906 127.136719 " transform="matrix(1,0,0,1,-74,-13)"/>
<path style="fill-rule:nonzero;fill:rgb(39.99939%,39.99939%,39.99939%);fill-opacity:1;stroke-width:0.03;stroke-linecap:square;stroke-linejoin:miter;stroke:rgb(39.99939%,39.99939%,39.99939%);stroke-opacity:1;stroke-miterlimit:3.239307;" d="M 178.890625 64.828125 L 202.03125 66.722656 L 191.355469 126.738281 L 163.882812 119.917969 Z M 178.890625 64.828125 " transform="matrix(1,0,0,1,-74,-13)"/>
<path style="fill-rule:nonzero;fill:rgb(39.99939%,39.99939%,39.99939%);fill-opacity:1;stroke-width:0.03;stroke-linecap:square;stroke-linejoin:miter;stroke:rgb(39.99939%,39.99939%,39.99939%);stroke-opacity:1;stroke-miterlimit:3.239307;" d="M 205.472656 67.003906 L 214.703125 67.757812 L 211.292969 104.132812 L 212.40625 104.296875 L 213.519531 104.457031 L 217.265625 67.96875 L 224.195312 68.535156 L 211.613281 131.769531 L 194.679688 127.5625 Z M 205.472656 67.003906 " transform="matrix(1,0,0,1,-74,-13)"/>
<path style="fill-rule:nonzero;fill:rgb(39.99939%,39.99939%,39.99939%);fill-opacity:1;stroke-width:0.03;stroke-linecap:square;stroke-linejoin:miter;stroke:rgb(39.99939%,39.99939%,39.99939%);stroke-opacity:1;stroke-miterlimit:3.239307;" d="M 200.6875 133.175781 L 212.734375 136.550781 L 212.054688 142.375 L 230.9375 146.269531 L 231.054688 145.492188 L 231.167969 144.71875 L 214.214844 141.167969 L 214.636719 137.085938 L 235.53125 141.914062 L 229.101562 161.875 L 179.832031 149.851562 L 184.5625 129.308594 L 198.773438 132.722656 L 197.851562 138.414062 L 185.382812 135.328125 L 185.277344 136.183594 L 185.171875 137.035156 L 199.28125 140.191406 Z M 200.6875 133.175781 " transform="matrix(1,0,0,1,-74,-13)"/>
<path style="fill-rule:nonzero;fill:rgb(39.99939%,39.99939%,39.99939%);fill-opacity:1;stroke-width:0.03;stroke-linecap:square;stroke-linejoin:miter;stroke:rgb(39.99939%,39.99939%,39.99939%);stroke-opacity:1;stroke-miterlimit:3.239307;" d="M 276.589844 152.199219 L 267.058594 149.625 L 267.113281 149.335938 Z M 276.589844 152.199219 " transform="matrix(1,0,0,1,-74,-13)"/>
<path style="fill-rule:nonzero;fill:rgb(39.99939%,39.99939%,39.99939%);fill-opacity:1;stroke-width:0.03;stroke-linecap:square;stroke-linejoin:miter;stroke:rgb(39.99939%,39.99939%,39.99939%);stroke-opacity:1;stroke-miterlimit:3.239307;" d="M 264.171875 148.449219 L 264.097656 148.828125 L 239.070312 142.070312 L 239.429688 140.941406 L 263.128906 148.132812 Z M 264.171875 148.449219 " transform="matrix(1,0,0,1,-74,-13)"/>
<path style="fill-rule:nonzero;fill:rgb(39.99939%,39.99939%,39.99939%);fill-opacity:1;stroke-width:0.03;stroke-linecap:square;stroke-linejoin:miter;stroke:rgb(39.99939%,39.99939%,39.99939%);stroke-opacity:1;stroke-miterlimit:3.239307;" d="M 227.085938 68.773438 L 238.558594 69.710938 L 237.894531 73.921875 L 225.785156 135.289062 L 214.585938 132.507812 Z M 227.085938 68.773438 " transform="matrix(1,0,0,1,-74,-13)"/>
<path style="fill-rule:nonzero;fill:rgb(39.99939%,39.99939%,39.99939%);fill-opacity:1;stroke-width:0.03;stroke-linecap:square;stroke-linejoin:miter;stroke:rgb(39.99939%,39.99939%,39.99939%);stroke-opacity:1;stroke-miterlimit:3.239307;" d="M 214.40625 221.953125 L 236.746094 227.621094 L 234.980469 234.855469 L 212.640625 229.1875 Z M 214.40625 221.953125 " transform="matrix(1,0,0,1,-74,-13)"/>
<path style="fill-rule:nonzero;fill:rgb(39.99939%,39.99939%,39.99939%);fill-opacity:1;stroke-width:0.03;stroke-linecap:square;stroke-linejoin:miter;stroke:rgb(39.99939%,39.99939%,39.99939%);stroke-opacity:1;stroke-miterlimit:3.239307;" d="M 190.09375 216.074219 L 212.433594 221.742188 L 210.667969 228.976562 L 188.328125 223.304688 Z M 190.09375 216.074219 " transform="matrix(1,0,0,1,-74,-13)"/>
<path style="fill-rule:nonzero;fill:rgb(39.99939%,39.99939%,39.99939%);fill-opacity:1;stroke-width:0.03;stroke-linecap:square;stroke-linejoin:miter;stroke:rgb(39.99939%,39.99939%,39.99939%);stroke-opacity:1;stroke-miterlimit:3.239307;" d="M 193.230469 203.09375 L 215.570312 208.761719 L 213.804688 215.996094 L 191.464844 210.328125 Z M 193.230469 203.09375 " transform="matrix(1,0,0,1,-74,-13)"/>
<path style="fill-rule:nonzero;fill:rgb(39.99939%,39.99939%,39.99939%);fill-opacity:1;stroke-width:0.03;stroke-linecap:square;stroke-linejoin:miter;stroke:rgb(39.99939%,39.99939%,39.99939%);stroke-opacity:1;stroke-miterlimit:3.239307;" d="M 306.992188 163.730469 L 303.726562 187.722656 L 288.410156 183.796875 L 288.238281 184.527344 L 288.070312 185.257812 L 303.308594 189.347656 L 298.730469 207.683594 L 282.199219 205.265625 L 281.472656 207.75 L 298.128906 209.597656 L 287.238281 244.464844 L 286.105469 244.289062 L 275.515625 242.570312 L 275.183594 243.828125 L 274.855469 245.082031 L 285.28125 247.117188 L 286.332031 247.375 L 281.199219 263.808594 L 279.90625 263.472656 L 270.894531 261.417969 L 270.480469 262.75 L 270.070312 264.085938 L 278.832031 266.746094 L 280.113281 267.277344 L 263.15625 321.570312 L 244.609375 318.207031 L 230.296875 315.425781 L 248.441406 226.164062 L 263.257812 229.808594 L 249.488281 297.976562 L 250.792969 298.167969 L 252.09375 298.355469 L 263.46875 240.4375 L 266.679688 240.902344 L 281.457031 182.605469 L 280.054688 182.097656 L 278.195312 181.421875 L 266.46875 227.257812 L 248.640625 223.09375 L 264.976562 152.386719 Z M 306.992188 163.730469 " transform="matrix(1,0,0,1,-74,-13)"/>
<path style="fill-rule:nonzero;fill:rgb(39.99939%,39.99939%,39.99939%);fill-opacity:1;stroke-width:0.03;stroke-linecap:square;stroke-linejoin:miter;stroke:rgb(39.99939%,39.99939%,39.99939%);stroke-opacity:1;stroke-miterlimit:3.239307;" d="M 178.226562 247.175781 L 182.75 228.945312 L 225.277344 237.820312 L 225.804688 236.128906 L 226.371094 234.3125 L 183.808594 224.683594 L 200.371094 157.929688 L 216.910156 161.964844 L 207.199219 199.097656 L 208.054688 199.386719 L 208.910156 199.671875 L 211.21875 191.652344 L 224.609375 194.980469 L 224.859375 194.265625 L 225.109375 193.554688 L 211.621094 190.222656 L 218.886719 162.449219 L 228.183594 164.71875 L 223.207031 180.164062 L 224.941406 180.652344 L 226.679688 181.140625 L 238.113281 145.085938 L 261.347656 151.40625 L 244.421875 221.527344 L 232.425781 218.90625 L 232.105469 221.183594 L 231.785156 223.464844 L 243.621094 225.6875 L 225.636719 314.285156 L 210.0625 311.292969 L 221.578125 257.492188 L 220.804688 257.296875 L 219.890625 257.15625 L 216.75 270.777344 L 197.019531 266.589844 L 197.851562 262.359375 L 196.902344 262.046875 L 195.953125 261.730469 L 194.761719 266.128906 L 193.421875 271.347656 L 194.390625 271.628906 L 195.363281 271.910156 L 196.386719 268.460938 L 215.980469 272.554688 L 207.523438 310.800781 L 206.367188 310.574219 L 190 305.117188 L 196.382812 274.578125 L 194.464844 274.199219 L 192.550781 273.816406 L 185.882812 303.945312 L 164.035156 300.304688 L 170.628906 268.238281 L 168.765625 267.75 L 166.898438 267.257812 L 159.925781 299.429688 L 145.785156 296.324219 L 154.175781 256.679688 L 155.371094 253.902344 L 178.492188 152.589844 L 197.191406 157.152344 L 182.253906 212.386719 L 178.167969 212.921875 L 169.394531 245.785156 L 173.808594 246.480469 Z M 178.226562 247.175781 " transform="matrix(1,0,0,1,-74,-13)"/>
<path style=" stroke:none;fill-rule:evenodd;fill:rgb(85.096741%,85.096741%,81.959534%);fill-opacity:0.7;" d="M 331.625 281 C 331.625 275.796875 329.558594 270.804688 325.875 267.125 C 322.195312 263.441406 317.203125 261.375 312 261.375 C 306.796875 261.375 301.804688 263.441406 298.125 267.125 C 294.441406 270.804688 292.375 275.796875 292.375 281 C 292.375 286.203125 294.441406 291.195312 298.125 294.875 C 301.804688 298.558594 306.796875 300.625 312 300.625 C 317.203125 300.625 322.195312 298.558594 325.875 294.875 C 329.558594 291.195312 331.625 286.203125 331.625 281 Z M 331.625 281 "/>
<path style=" stroke:none;fill-rule:evenodd;fill:rgb(85.096741%,85.096741%,81.959534%);fill-opacity:0.7;" d="M 250.625 70 C 250.625 64.796875 248.558594 59.804688 244.875 56.125 C 241.195312 52.441406 236.203125 50.375 231 50.375 C 225.796875 50.375 220.804688 52.441406 217.125 56.125 C 213.441406 59.804688 211.375 64.796875 211.375 70 C 211.375 75.203125 213.441406 80.195312 217.125 83.875 C 220.804688 87.558594 225.796875 89.625 231 89.625 C 236.203125 89.625 241.195312 87.558594 244.875 83.875 C 248.558594 80.195312 250.625 75.203125 250.625 70 Z M 250.625 70 "/>
<path style=" stroke:none;fill-rule:evenodd;fill:rgb(85.096741%,85.096741%,81.959534%);fill-opacity:0.7;" d="M 351.625 56 C 351.625 50.796875 349.558594 45.804688 345.875 42.125 C 342.195312 38.441406 337.203125 36.375 332 36.375 C 326.796875 36.375 321.804688 38.441406 318.125 42.125 C 314.441406 45.804688 312.375 50.796875 312.375 56 C 312.375 61.203125 314.441406 66.195312 318.125 69.875 C 321.804688 73.558594 326.796875 75.625 332 75.625 C 337.203125 75.625 342.195312 73.558594 345.875 69.875 C 349.558594 66.195312 351.625 61.203125 351.625 56 Z M 351.625 56 "/>
<path style=" stroke:none;fill-rule:evenodd;fill:rgb(85.096741%,85.096741%,81.959534%);fill-opacity:0.7;" d="M 246.625 31 C 246.625 25.796875 244.558594 20.804688 240.875 17.125 C 237.195312 13.441406 232.203125 11.375 227 11.375 C 221.796875 11.375 216.804688 13.441406 213.125 17.125 C 209.441406 20.804688 207.375 25.796875 207.375 31 C 207.375 36.203125 209.441406 41.195312 213.125 44.875 C 216.804688 48.558594 221.796875 50.625 227 50.625 C 232.203125 50.625 237.195312 48.558594 240.875 44.875 C 244.558594 41.195312 246.625 36.203125 246.625 31 Z M 246.625 31 "/>
<path style=" stroke:none;fill-rule:evenodd;fill:rgb(85.096741%,85.096741%,81.959534%);fill-opacity:0.7;" d="M 255.625 -13 C 255.625 -18.203125 253.558594 -23.195312 249.875 -26.875 C 246.195312 -30.558594 241.203125 -32.625 236 -32.625 C 230.796875 -32.625 225.804688 -30.558594 222.125 -26.875 C 218.441406 -23.195312 216.375 -18.203125 216.375 -13 C 216.375 -7.796875 218.441406 -2.804688 222.125 0.875 C 225.804688 4.558594 230.796875 6.625 236 6.625 C 241.203125 6.625 246.195312 4.558594 249.875 0.875 C 253.558594 -2.804688 255.625 -7.796875 255.625 -13 Z M 255.625 -13 "/>
<path style="fill-rule:nonzero;fill:rgb(99.998474%,99.998474%,30.587769%);fill-opacity:0.8;stroke-width:0.288;stroke-linecap:square;stroke-linejoin:miter;stroke:rgb(0%,0%,0%);stroke-opacity:0.8;stroke-miterlimit:3.25;" d="M 178.742188 -56.449219 L 136.257812 17.140625 L 221.230469 17.140625 Z M 178.742188 -56.449219 " transform="matrix(1,0,0,1,-74,-13)"/>
</g>
</svg>
