<?xml version="1.0" encoding="UTF-8"?>
<svg xmlns="http://www.w3.org/2000/svg" xmlns:xlink="http://www.w3.org/1999/xlink" width="361pt" height="361pt" viewBox="0 0 361 361" version="1.1">
<defs>
<clipPath id="clip1">
  <path d="M 337 61 L 360 61 L 360 128 L 337 128 Z M 337 61 "/>
</clipPath>
<clipPath id="clip2">
  <path d="M 357 56 L 360 56 L 360 105 L 357 105 Z M 357 56 "/>
</clipPath>
<clipPath id="clip3">
  <path d="M 341 10 L 360 10 L 360 58 L 341 58 Z M 341 10 "/>
</clipPath>
<clipPath id="clip4">
  <path d="M 126 328 L 154 328 L 154 360 L 126 360 Z M 126 328 "/>
</clipPath>
<clipPath id="clip5">
  <path d="M 137 335 L 183 335 L 183 360 L 137 360 Z M 137 335 "/>
</clipPath>
<clipPath id="clip6">
  <path d="M 172 335 L 238 335 L 238 360 L 172 360 Z M 172 335 "/>
</clipPath>
<clipPath id="clip7">
  <path d="M 205 337 L 265 337 L 265 360 L 205 360 Z M 205 337 "/>
</clipPath>
<clipPath id="clip8">
  <path d="M 114 340 L 133 340 L 133 360 L 114 360 Z M 114 340 "/>
</clipPath>
<clipPath id="clip9">
  <path d="M 5 358 L 28 358 L 28 360 L 5 360 Z M 5 358 "/>
</clipPath>
<clipPath id="clip10">
  <path d="M 21 335 L 46 335 L 46 360 L 21 360 Z M 21 335 "/>
</clipPath>
<clipPath id="clip11">
  <path d="M 13 346 L 36 346 L 36 360 L 13 360 Z M 13 346 "/>
</clipPath>
<clipPath id="clip12">
  <path d="M 357 122 L 360 122 L 360 128 L 357 128 Z M 357 122 "/>
</clipPath>
<clipPath id="clip13">
  <path d="M 337 155 L 360 155 L 360 173 L 337 173 Z M 337 155 "/>
</clipPath>
<clipPath id="clip14">
  <path d="M 332 127 L 360 127 L 360 144 L 332 144 Z M 332 127 "/>
</clipPath>
<clipPath id="clip15">
  <path d="M 356 174 L 360 174 L 360 185 L 356 185 Z M 356 174 "/>
</clipPath>
<clipPath id="clip16">
  <path d="M 353 160 L 360 160 L 360 175 L 353 175 Z M 353 160 "/>
</clipPath>
<clipPath id="clip17">
  <path d="M 0 310 L 46 310 L 46 360 L 0 360 Z M 0 310 "/>
</clipPath>
<clipPath id="clip18">
  <path d="M 310 225 L 360 225 L 360 260 L 310 260 Z M 310 225 "/>
</clipPath>
<clipPath id="clip19">
  <path d="M 344 235 L 360 235 L 360 254 L 344 254 Z M 344 235 "/>
</clipPath>
<clipPath id="clip20">
  <path d="M 329 247 L 360 247 L 360 280 L 329 280 Z M 329 247 "/>
</clipPath>
<clipPath id="clip21">
  <path d="M 327 185 L 360 185 L 360 230 L 327 230 Z M 327 185 "/>
</clipPath>
<clipPath id="clip22">
  <path d="M 338 181 L 360 181 L 360 215 L 338 215 Z M 338 181 "/>
</clipPath>
<clipPath id="clip23">
  <path d="M 314 260 L 360 260 L 360 301 L 314 301 Z M 314 260 "/>
</clipPath>
<clipPath id="clip24">
  <path d="M 311 245 L 360 245 L 360 360 L 311 360 Z M 311 245 "/>
</clipPath>
<clipPath id="clip25">
  <path d="M 230 260 L 302 260 L 302 360 L 230 360 Z M 230 260 "/>
</clipPath>
<clipPath id="clip26">
  <path d="M 279 352 L 306 352 L 306 360 L 279 360 Z M 279 352 "/>
</clipPath>
</defs>
<g id="surface8841">
<path style="fill-rule:nonzero;fill:rgb(0%,0%,0%);fill-opacity:1;stroke-width:0.03;stroke-linecap:square;stroke-linejoin:miter;stroke:rgb(0%,0%,0%);stroke-opacity:1;stroke-miterlimit:10;" d="M 0 178 L 360 178 L 360 -182 L 0 -182 Z M 0 178 " transform="matrix(1,0,0,1,0,182)"/>
<path style=" stroke:none;fill-rule:nonzero;fill:rgb(39.99939%,39.99939%,39.99939%);fill-opacity:0.3;" d="M 46.632812 -14.148438 L 48.230469 -3.089844 L 52.054688 13.066406 L 51.808594 13.449219 L 51.152344 13.921875 L 50.296875 13.90625 L 33.710938 0.265625 L 30.65625 -9.441406 L 29.132812 -21.328125 L 29.804688 -18.777344 Z M 46.632812 -14.148438 "/>
<path style=" stroke:none;fill-rule:nonzero;fill:rgb(39.99939%,39.99939%,39.99939%);fill-opacity:0.3;" d="M 50.21875 -4.683594 L 50.519531 -4.765625 L 54.449219 10.679688 L 54.054688 10.78125 Z M 50.21875 -4.683594 "/>
<path style=" stroke:none;fill-rule:nonzero;fill:rgb(39.99939%,39.99939%,39.99939%);fill-opacity:0.3;" d="M 54.738281 13.117188 L 55.046875 13.035156 L 55.164062 13.496094 L 54.878906 13.582031 Z M 54.738281 13.117188 "/>
<path style=" stroke:none;fill-rule:nonzero;fill:rgb(39.99939%,39.99939%,39.99939%);fill-opacity:0.3;" d="M -23.8125 -4.933594 L -21.292969 -6.941406 L -13.058594 -8.03125 L -2.175781 -10.128906 L 8.40625 17.6875 L -11.523438 18.105469 L -12.375 17.914062 L -13.683594 12.691406 L -15.714844 5.679688 L -18.507812 2.375 L -17.683594 1.046875 Z M -23.8125 -4.933594 "/>
<path style=" stroke:none;fill-rule:nonzero;fill:rgb(39.99939%,39.99939%,39.99939%);fill-opacity:0.3;" d="M 2.609375 -45.636719 L 3.066406 -48.535156 L 3.726562 -50.460938 L 20.269531 -58.304688 L 29.285156 -4.105469 L 30.863281 1.671875 L 47.546875 15.804688 L 39.488281 18.105469 L 13.445312 17.695312 L 18.761719 15.289062 L 18.265625 14.605469 L 17.808594 13.980469 L 10.988281 16.957031 L -0.207031 -11.078125 L 10.675781 -15.070312 Z M 2.609375 -45.636719 "/>
<path style=" stroke:none;fill-rule:nonzero;fill:rgb(39.99939%,39.99939%,39.99939%);fill-opacity:0.3;" d="M 103.828125 13.726562 L 112.296875 48.238281 L 108.292969 46.917969 L 103.679688 45.441406 L 94.761719 15.972656 Z M 103.828125 13.726562 "/>
<path style=" stroke:none;fill-rule:nonzero;fill:rgb(39.99939%,39.99939%,39.99939%);fill-opacity:0.3;" d="M 93.246094 16.648438 L 101.621094 45.800781 L 95.410156 44.296875 L 85.871094 44.582031 L 81.566406 45.425781 L 74.285156 21.554688 Z M 93.246094 16.648438 "/>
<path style=" stroke:none;fill-rule:nonzero;fill:rgb(39.99939%,39.99939%,39.99939%);fill-opacity:0.3;" d="M 68.667969 50.066406 L 69.570312 49.664062 L 80.203125 50.097656 L 80.414062 62.496094 L 71.652344 58.5 Z M 68.667969 50.066406 "/>
<path style=" stroke:none;fill-rule:nonzero;fill:rgb(39.99939%,39.99939%,39.99939%);fill-opacity:0.3;" d="M 78.140625 48.503906 L 71.589844 48.285156 L 68.566406 48.890625 L 69.261719 40.566406 L 68.292969 40.582031 L 67.570312 46.96875 L 59.882812 25.25 L 71.433594 22.679688 Z M 78.140625 48.503906 "/>
<path style=" stroke:none;fill-rule:nonzero;fill:rgb(39.99939%,39.99939%,39.99939%);fill-opacity:0.3;" d="M 121.738281 -6.777344 L 124.394531 6.488281 L 98.355469 12.425781 L 92.417969 -9.742188 Z M 121.738281 -6.777344 "/>
<path style=" stroke:none;fill-rule:nonzero;fill:rgb(39.99939%,39.99939%,39.99939%);fill-opacity:0.3;" d="M 50.519531 -4.765625 L 66.363281 -9.109375 L 71.617188 -6.664062 L 77.246094 -6.464844 L 82 -7.277344 L 85.402344 -8.71875 L 87.285156 -10.261719 L 90.109375 -9.976562 L 93.089844 0.796875 L 54.449219 10.679688 Z M 50.519531 -4.765625 "/>
<path style=" stroke:none;fill-rule:nonzero;fill:rgb(39.99939%,39.99939%,39.99939%);fill-opacity:0.3;" d="M 55.046875 13.035156 L 94.199219 2.292969 L 97.167969 13.214844 L 59.128906 23.1875 L 55.164062 13.496094 Z M 55.046875 13.035156 "/>
<path style=" stroke:none;fill-rule:nonzero;fill:rgb(39.99939%,39.99939%,39.99939%);fill-opacity:0.3;" d="M 101.398438 100.425781 L 105.523438 107.171875 L 97.707031 114.949219 L 94.980469 119.4375 L 94.253906 122.34375 L 90.929688 112.960938 L 91.300781 112.050781 L 96.660156 104.4375 Z M 101.398438 100.425781 "/>
<path style=" stroke:none;fill-rule:nonzero;fill:rgb(39.99939%,39.99939%,39.99939%);fill-opacity:0.3;" d="M 101.957031 96.339844 L 114.761719 80.902344 L 120.9375 92.039062 L 106.949219 104.773438 Z M 101.957031 96.339844 "/>
<path style=" stroke:none;fill-rule:nonzero;fill:rgb(39.99939%,39.99939%,39.99939%);fill-opacity:0.3;" d="M 124.851562 61.164062 L 139.800781 67.160156 L 145.894531 91.519531 L 144.308594 93.730469 L 141.320312 94.128906 L 138.691406 94.710938 L 137.507812 97.832031 L 139.054688 102.023438 L 140.046875 105.761719 L 144.976562 108.324219 L 150.398438 108.785156 L 155.328125 109.714844 L 160.011719 118.316406 L 132.679688 107.308594 L 116.953125 78.699219 Z M 124.851562 61.164062 "/>
<path style=" stroke:none;fill-rule:nonzero;fill:rgb(39.99939%,39.99939%,39.99939%);fill-opacity:0.3;" d="M 105.164062 13.378906 L 125.648438 8.558594 L 137.664062 58.164062 L 131.816406 58.523438 L 124.40625 53.214844 L 118.699219 50.121094 L 114.574219 48.992188 Z M 105.164062 13.378906 "/>
<path style=" stroke:none;fill-rule:nonzero;fill:rgb(39.99939%,39.99939%,39.99939%);fill-opacity:0.3;" d="M 139.996094 54.773438 L 135.414062 37.261719 L 139.996094 54.070312 Z M 139.996094 54.773438 "/>
<path style=" stroke:none;fill-rule:nonzero;fill:rgb(39.99939%,39.99939%,39.99939%);fill-opacity:0.3;" d="M 132.859375 27.511719 L 125.078125 -2.222656 L 126.96875 -2.710938 L 128.933594 6.121094 Z M 132.859375 27.511719 "/>
<path style=" stroke:none;fill-rule:nonzero;fill:rgb(39.99939%,39.99939%,39.99939%);fill-opacity:0.3;" d="M 108.472656 107.800781 L 109.402344 105.261719 L 112.078125 102.339844 L 118.402344 97.382812 L 112.171875 114.125 Z M 108.472656 107.800781 "/>
<path style=" stroke:none;fill-rule:nonzero;fill:rgb(39.99939%,39.99939%,39.99939%);fill-opacity:0.3;" d="M 120.132812 96.023438 L 120.257812 95.929688 L 121.738281 95.171875 L 123.050781 95.003906 L 123.886719 95.382812 L 129.957031 106.210938 L 129.855469 106.167969 Z M 120.132812 96.023438 "/>
<path style=" stroke:none;fill-rule:nonzero;fill:rgb(39.99939%,39.99939%,39.99939%);fill-opacity:0.3;" d="M 106.800781 109.242188 L 110.316406 115.566406 L 101.730469 119.078125 L 97.765625 125.355469 L 97.539062 123.925781 L 98.261719 120.125 L 100.078125 117.191406 L 102.992188 112.824219 Z M 106.800781 109.242188 "/>
<path style=" stroke:none;fill-rule:nonzero;fill:rgb(39.99939%,39.99939%,39.99939%);fill-opacity:0.3;" d="M 266.785156 93.238281 L 293.054688 79.996094 L 299.820312 98.410156 L 296.941406 101.828125 L 274.902344 108.742188 Z M 266.785156 93.238281 "/>
<g clip-path="url(#clip1)" clip-rule="nonzero">
<path style=" stroke:none;fill-rule:nonzero;fill:rgb(39.99939%,39.99939%,39.99939%);fill-opacity:0.3;" d="M 337.246094 66.703125 L 354.265625 61.929688 L 359.957031 79.515625 L 367.113281 101.640625 L 368.320312 104.328125 L 369.398438 106.175781 L 370.078125 107.574219 L 371.246094 109.234375 L 372.535156 110.828125 L 374.527344 112.503906 L 376.515625 113.808594 L 379.210938 114.644531 L 381.074219 115.105469 L 383.953125 115.742188 L 387.441406 116.546875 L 391.445312 117.160156 L 395.558594 117.964844 L 404.226562 119.355469 L 408.574219 119.933594 L 408.332031 120 L 380.667969 122.765625 L 357.179688 127.542969 L 355.507812 127.789062 L 342.773438 85.199219 Z M 337.246094 66.703125 "/>
</g>
<path style=" stroke:none;fill-rule:nonzero;fill:rgb(39.99939%,39.99939%,39.99939%);fill-opacity:0.3;" d="M 334.257812 67.539062 L 339.847656 86.164062 L 352.511719 128.390625 L 334.820312 130.074219 L 322.542969 91.886719 L 316.335938 72.566406 Z M 334.257812 67.539062 "/>
<path style=" stroke:none;fill-rule:nonzero;fill:rgb(39.99939%,39.99939%,39.99939%);fill-opacity:0.3;" d="M 180.429688 109.546875 L 190.742188 128.011719 L 173.085938 136.988281 L 172.355469 135.722656 L 163.511719 119.273438 Z M 180.429688 109.546875 "/>
<path style=" stroke:none;fill-rule:nonzero;fill:rgb(39.99939%,39.99939%,39.99939%);fill-opacity:0.3;" d="M 318.515625 13.347656 L 332.722656 63.894531 L 315.097656 69.070312 L 304.535156 25.101562 Z M 318.515625 13.347656 "/>
<path style=" stroke:none;fill-rule:nonzero;fill:rgb(39.99939%,39.99939%,39.99939%);fill-opacity:0.3;" d="M 301.207031 27.902344 L 301.210938 27.914062 L 301.199219 27.910156 Z M 301.207031 27.902344 "/>
<path style=" stroke:none;fill-rule:nonzero;fill:rgb(39.99939%,39.99939%,39.99939%);fill-opacity:0.3;" d="M 220.835938 100.402344 L 226.007812 110.078125 L 210.585938 117.921875 L 201.617188 102.449219 Z M 220.835938 100.402344 "/>
<path style=" stroke:none;fill-rule:nonzero;fill:rgb(39.99939%,39.99939%,39.99939%);fill-opacity:0.3;" d="M 239.121094 85.832031 L 246.1875 99.652344 L 228.914062 108.449219 L 223.835938 99.417969 Z M 239.121094 85.832031 "/>
<path style=" stroke:none;fill-rule:nonzero;fill:rgb(39.99939%,39.99939%,39.99939%);fill-opacity:0.3;" d="M 211.671875 120.96875 L 228.84375 112.234375 L 240.1875 131.140625 L 225.820312 143.945312 Z M 211.671875 120.96875 "/>
<path style=" stroke:none;fill-rule:nonzero;fill:rgb(39.99939%,39.99939%,39.99939%);fill-opacity:0.3;" d="M 230.863281 111.210938 L 247.464844 102.769531 L 256.835938 119.589844 L 241.882812 129.296875 Z M 230.863281 111.210938 "/>
<path style=" stroke:none;fill-rule:nonzero;fill:rgb(39.99939%,39.99939%,39.99939%);fill-opacity:0.3;" d="M 249.328125 101.820312 L 264.363281 94.175781 L 272.230469 109.589844 L 258.210938 116.808594 Z M 249.328125 101.820312 "/>
<path style=" stroke:none;fill-rule:nonzero;fill:rgb(39.99939%,39.99939%,39.99939%);fill-opacity:0.3;" d="M 253.789062 73.246094 L 263.609375 90.988281 L 247.808594 99.15625 L 240.308594 84.800781 Z M 253.789062 73.246094 "/>
<path style=" stroke:none;fill-rule:nonzero;fill:rgb(39.99939%,39.99939%,39.99939%);fill-opacity:0.3;" d="M 174.648438 139.792969 L 192.058594 130.9375 L 206.386719 156.175781 L 189.066406 162.910156 L 185.480469 158.492188 L 176.703125 143.523438 Z M 174.648438 139.792969 "/>
<path style=" stroke:none;fill-rule:nonzero;fill:rgb(39.99939%,39.99939%,39.99939%);fill-opacity:0.3;" d="M 190.699219 105.9375 L 200.246094 103.410156 L 209.0625 118.695312 L 192.320312 127.207031 L 182.019531 108.761719 Z M 190.699219 105.9375 "/>
<path style=" stroke:none;fill-rule:nonzero;fill:rgb(39.99939%,39.99939%,39.99939%);fill-opacity:0.3;" d="M 193.449219 130.230469 L 210.242188 121.695312 L 224.25 144.828125 L 208.835938 155.632812 Z M 193.449219 130.230469 "/>
<g clip-path="url(#clip2)" clip-rule="nonzero">
<path style=" stroke:none;fill-rule:nonzero;fill:rgb(39.99939%,39.99939%,39.99939%);fill-opacity:0.3;" d="M 357.03125 61.269531 L 374.835938 56.160156 L 388.464844 100 L 372.324219 104.605469 Z M 357.03125 61.269531 "/>
</g>
<path style=" stroke:none;fill-rule:nonzero;fill:rgb(39.99939%,39.99939%,39.99939%);fill-opacity:0.3;" d="M 338.171875 9.089844 L 352.082031 58.652344 L 335.191406 63.40625 L 320.933594 12.617188 Z M 338.171875 9.089844 "/>
<path style=" stroke:none;fill-rule:nonzero;fill:rgb(39.99939%,39.99939%,39.99939%);fill-opacity:0.3;" d="M 281.398438 26.074219 L 300.042969 31.257812 L 311.300781 70.136719 L 294.925781 74.941406 Z M 281.398438 26.074219 "/>
<g clip-path="url(#clip3)" clip-rule="nonzero">
<path style=" stroke:none;fill-rule:nonzero;fill:rgb(39.99939%,39.99939%,39.99939%);fill-opacity:0.3;" d="M 341.214844 10.386719 L 351.707031 12.3125 L 362.070312 13.804688 L 373.003906 52.757812 L 354.566406 57.949219 Z M 341.214844 10.386719 "/>
</g>
<path style=" stroke:none;fill-rule:nonzero;fill:rgb(39.99939%,39.99939%,39.99939%);fill-opacity:0.3;" d="M 265.863281 50.089844 L 271.382812 60.605469 L 282.214844 81.246094 L 266.3125 88.9375 L 256.761719 69.386719 Z M 265.863281 50.089844 "/>
<path style=" stroke:none;fill-rule:nonzero;fill:rgb(39.99939%,39.99939%,39.99939%);fill-opacity:0.3;" d="M 283.890625 80.503906 L 266.890625 47.914062 L 267.25 47.152344 L 270.9375 29.171875 L 273.496094 27.894531 L 275.160156 27.523438 L 278.710938 26.503906 L 292.589844 76.121094 Z M 283.890625 80.503906 "/>
<path style=" stroke:none;fill-rule:nonzero;fill:rgb(39.99939%,39.99939%,39.99939%);fill-opacity:0.3;" d="M 296.222656 78.402344 L 312.902344 73.53125 L 321.5 101.574219 L 303.679688 99.941406 Z M 296.222656 78.402344 "/>
<path style=" stroke:none;fill-rule:nonzero;fill:rgb(39.99939%,39.99939%,39.99939%);fill-opacity:0.3;" d="M 303.773438 104.777344 L 322.132812 103.914062 L 330.5625 130.273438 L 310.882812 131.003906 L 308.578125 123.34375 L 313.34375 123.390625 L 313.34375 122.21875 L 308.207031 122.003906 L 304.75 109.183594 Z M 303.773438 104.777344 "/>
<path style=" stroke:none;fill-rule:nonzero;fill:rgb(39.99939%,39.99939%,39.99939%);fill-opacity:0.3;" d="M 299.820312 98.410156 L 300.648438 100.664062 L 296.941406 101.828125 Z M 299.820312 98.410156 "/>
<path style=" stroke:none;fill-rule:nonzero;fill:rgb(39.99939%,39.99939%,39.99939%);fill-opacity:0.3;" d="M 137.046875 163.21875 L 145.34375 177.628906 L 145.574219 182.671875 L 135.5 190.046875 L 124.003906 181.414062 Z M 137.046875 163.21875 "/>
<path style=" stroke:none;fill-rule:nonzero;fill:rgb(39.99939%,39.99939%,39.99939%);fill-opacity:0.3;" d="M 96.925781 134.386719 L 100.714844 139.40625 L 101.769531 142.785156 L 102.195312 146.367188 L 102.144531 147.027344 L 97.121094 136.136719 Z M 96.925781 134.386719 "/>
<path style=" stroke:none;fill-rule:nonzero;fill:rgb(39.99939%,39.99939%,39.99939%);fill-opacity:0.3;" d="M 105.871094 153.277344 L 117.035156 159.503906 L 98.160156 187.777344 L 97.601562 187.984375 L 103.113281 170.714844 L 103.019531 166.21875 L 103.589844 164.832031 Z M 105.871094 153.277344 "/>
<path style=" stroke:none;fill-rule:nonzero;fill:rgb(39.99939%,39.99939%,39.99939%);fill-opacity:0.3;" d="M 160.011719 118.316406 L 170.804688 138.148438 L 154.210938 146.472656 L 132.679688 107.308594 Z M 160.011719 118.316406 "/>
<path style=" stroke:none;fill-rule:nonzero;fill:rgb(39.99939%,39.99939%,39.99939%);fill-opacity:0.3;" d="M 118.402344 97.382812 L 120.132812 96.023438 L 129.855469 106.167969 L 129.957031 106.210938 L 152.902344 147.148438 L 136.449219 155.617188 L 112.171875 114.125 Z M 118.402344 97.382812 "/>
<path style=" stroke:none;fill-rule:nonzero;fill:rgb(39.99939%,39.99939%,39.99939%);fill-opacity:0.3;" d="M 110.316406 115.566406 L 133.980469 158.125 L 133.601562 160.714844 L 132.542969 163.234375 L 130.574219 166.1875 L 127.785156 162.21875 L 121.671875 151.980469 L 117.777344 157.996094 L 107.144531 152.246094 L 104.863281 150.082031 L 105.609375 146.519531 L 105.171875 141.726562 L 101.378906 135.3125 L 99.007812 132.035156 L 98.125 127.664062 L 97.765625 125.355469 L 101.730469 119.078125 Z M 110.316406 115.566406 "/>
<path style=" stroke:none;fill-rule:nonzero;fill:rgb(39.99939%,39.99939%,39.99939%);fill-opacity:0.3;" d="M 142.375 191.949219 L 149.792969 198.507812 L 144.597656 205.628906 L 136.308594 212.671875 L 128.472656 220.511719 L 122.90625 227.46875 L 122.625 225.882812 L 123.003906 222.742188 L 125.738281 213.050781 L 128.609375 207.191406 L 129.84375 206.308594 L 131.796875 205.917969 L 135.5 203.082031 L 137.242188 199.371094 L 140.527344 192.433594 L 140.988281 191.804688 L 141.40625 191.6875 Z M 142.375 191.949219 "/>
<path style=" stroke:none;fill-rule:nonzero;fill:rgb(39.99939%,39.99939%,39.99939%);fill-opacity:0.3;" d="M 106.746094 260.554688 L 92.273438 289.347656 L 62 270.089844 L 79.054688 244.992188 L 91.511719 252.582031 L 92.085938 251.707031 L 92.65625 250.828125 L 80.320312 243.207031 L 122.347656 185.054688 L 135.792969 193.714844 L 124.878906 208.308594 L 121.914062 211.78125 L 120.203125 215.558594 L 119.324219 219.816406 L 103.0625 224.550781 L 103.308594 225.273438 L 103.558594 225.992188 L 119.097656 221.429688 L 120.578125 222.5 L 121.21875 224.4375 L 120.773438 228.914062 L 118.96875 233.527344 L 114.640625 241.257812 L 114.171875 242.457031 L 111.921875 245.917969 L 109.160156 251.652344 Z M 106.746094 260.554688 "/>
<path style=" stroke:none;fill-rule:nonzero;fill:rgb(39.99939%,39.99939%,39.99939%);fill-opacity:0.3;" d="M 97.488281 193.734375 L 120.476562 162.035156 L 127.914062 169.03125 L 105.140625 201.734375 Z M 97.488281 193.734375 "/>
<path style=" stroke:none;fill-rule:nonzero;fill:rgb(39.99939%,39.99939%,39.99939%);fill-opacity:0.3;" d="M 51.429688 285.929688 L 60.570312 271.371094 L 91.164062 291.121094 L 87.078125 297.285156 L 81.484375 303.601562 L 77.496094 306.683594 L 74.066406 308.570312 L 71.714844 305.253906 L 68.871094 298.640625 Z M 51.429688 285.929688 "/>
<path style=" stroke:none;fill-rule:nonzero;fill:rgb(39.99939%,39.99939%,39.99939%);fill-opacity:0.3;" d="M 148.351562 185.578125 L 157.90625 180.902344 L 164.363281 196.671875 L 160.746094 197.457031 L 152.730469 199.683594 Z M 148.351562 185.578125 "/>
<path style=" stroke:none;fill-rule:nonzero;fill:rgb(39.99939%,39.99939%,39.99939%);fill-opacity:0.3;" d="M 159.644531 180.25 L 173.484375 173.957031 L 177.089844 193.902344 L 165.878906 196.339844 Z M 159.644531 180.25 "/>
<path style=" stroke:none;fill-rule:nonzero;fill:rgb(39.99939%,39.99939%,39.99939%);fill-opacity:0.3;" d="M 173.085938 136.988281 L 173.046875 137.007812 L 172.355469 135.722656 Z M 173.085938 136.988281 "/>
<path style=" stroke:none;fill-rule:nonzero;fill:rgb(39.99939%,39.99939%,39.99939%);fill-opacity:0.3;" d="M 137.835938 158.507812 L 154.683594 149.835938 L 167.570312 172.703125 L 150.433594 180.738281 Z M 137.835938 158.507812 "/>
<path style=" stroke:none;fill-rule:nonzero;fill:rgb(39.99939%,39.99939%,39.99939%);fill-opacity:0.3;" d="M 156.628906 148.953125 L 172.449219 140.910156 L 185.1875 163.714844 L 169.101562 171.730469 Z M 156.628906 148.953125 "/>
<path style=" stroke:none;fill-rule:nonzero;fill:rgb(39.99939%,39.99939%,39.99939%);fill-opacity:0.3;" d="M 174.574219 173.222656 L 187.339844 168.113281 L 192.003906 190.882812 L 191.175781 191.003906 L 181.953125 192.847656 L 178.320312 193.636719 Z M 174.574219 173.222656 "/>
<path style=" stroke:none;fill-rule:nonzero;fill:rgb(39.99939%,39.99939%,39.99939%);fill-opacity:0.3;" d="M 210.0625 160.5 L 225.800781 150.074219 L 230.632812 172.714844 L 228.492188 174.539062 L 214.230469 181.980469 Z M 210.0625 160.5 "/>
<path style=" stroke:none;fill-rule:nonzero;fill:rgb(39.99939%,39.99939%,39.99939%);fill-opacity:0.3;" d="M 174.546875 139.84375 L 174.648438 139.792969 L 176.703125 143.523438 Z M 174.546875 139.84375 "/>
<path style=" stroke:none;fill-rule:nonzero;fill:rgb(39.99939%,39.99939%,39.99939%);fill-opacity:0.3;" d="M 189.066406 162.910156 L 188.253906 163.226562 L 185.480469 158.492188 Z M 189.066406 162.910156 "/>
<path style=" stroke:none;fill-rule:nonzero;fill:rgb(39.99939%,39.99939%,39.99939%);fill-opacity:0.3;" d="M 189.738281 168.554688 L 190.398438 166.273438 L 198.160156 163.210938 L 207.09375 161.300781 L 212.484375 182.890625 L 202.238281 188.234375 L 197.628906 190.082031 L 194.179688 190.574219 Z M 189.738281 168.554688 "/>
<path style=" stroke:none;fill-rule:nonzero;fill:rgb(39.99939%,39.99939%,39.99939%);fill-opacity:0.3;" d="M 303.566406 104.789062 L 303.773438 104.777344 L 304.75 109.183594 Z M 303.566406 104.789062 "/>
<path style=" stroke:none;fill-rule:nonzero;fill:rgb(39.99939%,39.99939%,39.99939%);fill-opacity:0.3;" d="M 228.433594 145.113281 L 242.867188 132.917969 L 252.570312 157.703125 L 247.03125 161.46875 L 245.996094 158.164062 L 243.304688 159.539062 L 241.085938 160.800781 L 241.996094 164.148438 L 236.351562 168.460938 L 234.277344 168.039062 L 233.089844 166.917969 Z M 228.433594 145.113281 "/>
<path style=" stroke:none;fill-rule:nonzero;fill:rgb(39.99939%,39.99939%,39.99939%);fill-opacity:0.3;" d="M 263.972656 117.734375 L 281.8125 109.851562 L 288.53125 134.914062 L 286.425781 135.585938 L 283.847656 136.136719 L 278.3125 137.980469 L 277.347656 138.464844 L 270.839844 140.53125 L 267.792969 130.898438 Z M 263.972656 117.734375 "/>
<path style=" stroke:none;fill-rule:nonzero;fill:rgb(39.99939%,39.99939%,39.99939%);fill-opacity:0.3;" d="M 245.824219 130.238281 L 260.582031 120.839844 L 268.421875 141.65625 L 254.46875 154.167969 Z M 245.824219 130.238281 "/>
<path style=" stroke:none;fill-rule:nonzero;fill:rgb(39.99939%,39.99939%,39.99939%);fill-opacity:0.3;" d="M 283.632812 108.640625 L 301.6875 104.707031 L 308.570312 131.1875 L 297.179688 133.410156 L 290.863281 134.097656 Z M 283.632812 108.640625 "/>
<path style=" stroke:none;fill-rule:nonzero;fill:rgb(39.99939%,39.99939%,39.99939%);fill-opacity:0.3;" d="M 319.003906 5.734375 L 323.699219 4.710938 L 328.710938 3.726562 L 330.011719 5.523438 L 332.117188 6.109375 L 334.101562 6.574219 L 337.601562 7.0625 L 338.171875 9.089844 L 320.933594 12.617188 Z M 319.003906 5.734375 "/>
<path style=" stroke:none;fill-rule:nonzero;fill:rgb(39.99939%,39.99939%,39.99939%);fill-opacity:0.3;" d="M 265.476562 22.863281 L 272.210938 16.898438 L 276.238281 16.6875 L 287.238281 18.738281 L 287.996094 13.574219 L 316.636719 6.671875 L 318.515625 13.347656 L 304.535156 25.101562 L 304.183594 23.636719 L 302.195312 23.675781 L 300.386719 23.714844 L 301.207031 27.902344 L 301.199219 27.910156 L 297.050781 26.058594 L 289.535156 24.003906 L 283.433594 22.460938 L 277.773438 22.261719 L 270.914062 23.921875 L 267.09375 26.308594 L 266.894531 26.160156 Z M 265.476562 22.863281 "/>
<path style=" stroke:none;fill-rule:nonzero;fill:rgb(39.99939%,39.99939%,39.99939%);fill-opacity:0.3;" d="M 270.726562 29.015625 L 272.585938 28.097656 L 273.496094 27.894531 L 270.9375 29.171875 Z M 270.726562 29.015625 "/>
<path style=" stroke:none;fill-rule:nonzero;fill:rgb(39.99939%,39.99939%,39.99939%);fill-opacity:0.3;" d="M 137.863281 288.730469 L 144.121094 288.960938 L 144.382812 296.078125 L 145.394531 303.195312 L 145.652344 307.941406 L 144.90625 312.214844 L 144.78125 316.363281 L 143.523438 316.152344 L 137.230469 305.804688 L 137.113281 304.476562 L 137.371094 292.765625 Z M 137.863281 288.730469 "/>
<g clip-path="url(#clip4)" clip-rule="nonzero">
<path style=" stroke:none;fill-rule:nonzero;fill:rgb(39.99939%,39.99939%,39.99939%);fill-opacity:0.3;" d="M 148.828125 339.179688 L 149.4375 340.695312 L 153.566406 344.273438 L 149.875 348.929688 L 145.003906 350.054688 L 140.433594 351.460938 L 137.335938 353.144531 L 130.78125 358.3125 L 129.121094 360.039062 L 126.164062 348.222656 L 130.777344 342.691406 L 132.191406 340.667969 L 143.472656 328.585938 L 144.609375 328.398438 L 148.296875 339 Z M 148.828125 339.179688 "/>
</g>
<g clip-path="url(#clip5)" clip-rule="nonzero">
<path style=" stroke:none;fill-rule:nonzero;fill:rgb(39.99939%,39.99939%,39.99939%);fill-opacity:0.3;" d="M 176.394531 335.617188 L 182.324219 335.773438 L 181.238281 338.605469 L 177.347656 348.78125 L 173.371094 359.179688 L 170.035156 367.894531 L 167.3125 375.011719 L 137.253906 376.960938 L 138.183594 370.132812 L 140.464844 365.949219 L 148.21875 364.75 L 149.464844 361.664062 L 152.46875 360.949219 L 156.242188 356.101562 L 163.78125 353.601562 L 166.761719 345.867188 L 167.300781 345.296875 L 168.257812 345.296875 L 171.476562 345.972656 Z M 176.394531 335.617188 "/>
</g>
<path style=" stroke:none;fill-rule:nonzero;fill:rgb(39.99939%,39.99939%,39.99939%);fill-opacity:0.3;" d="M 153.753906 268.324219 L 154.296875 273.054688 L 156.761719 284.019531 L 135.097656 275.898438 L 134.300781 272.722656 L 134.199219 271.582031 L 134.53125 269.351562 Z M 153.753906 268.324219 "/>
<path style=" stroke:none;fill-rule:nonzero;fill:rgb(39.99939%,39.99939%,39.99939%);fill-opacity:0.3;" d="M 159.128906 270.753906 L 210.179688 272.039062 L 202.546875 289.640625 L 161.203125 288.890625 L 160.183594 279.230469 Z M 159.128906 270.753906 "/>
<path style=" stroke:none;fill-rule:nonzero;fill:rgb(39.99939%,39.99939%,39.99939%);fill-opacity:0.3;" d="M 160.4375 261.613281 L 166.253906 254.878906 L 172.824219 250.378906 L 180.449219 246.625 L 221.828125 245.199219 L 212.21875 268.484375 L 159.90625 267.121094 Z M 160.4375 261.613281 "/>
<path style=" stroke:none;fill-rule:nonzero;fill:rgb(39.99939%,39.99939%,39.99939%);fill-opacity:0.3;" d="M 214.066406 272.09375 L 239.238281 271.304688 L 236.398438 289.410156 L 206.515625 289.027344 Z M 214.066406 272.09375 "/>
<path style=" stroke:none;fill-rule:nonzero;fill:rgb(39.99939%,39.99939%,39.99939%);fill-opacity:0.3;" d="M 239.035156 233.808594 L 239.113281 233.925781 L 229.351562 240.117188 L 228.265625 240.210938 Z M 239.035156 233.808594 "/>
<path style=" stroke:none;fill-rule:nonzero;fill:rgb(39.99939%,39.99939%,39.99939%);fill-opacity:0.3;" d="M 226.171875 240.394531 L 206.144531 242.164062 L 205.503906 241.0625 Z M 226.171875 240.394531 "/>
<path style=" stroke:none;fill-rule:nonzero;fill:rgb(39.99939%,39.99939%,39.99939%);fill-opacity:0.3;" d="M 232.414062 242.359375 L 270.613281 217.566406 L 277.035156 230.972656 L 261.253906 239.875 L 259.460938 242.097656 Z M 232.414062 242.359375 "/>
<path style=" stroke:none;fill-rule:nonzero;fill:rgb(39.99939%,39.99939%,39.99939%);fill-opacity:0.3;" d="M 239.613281 268.90625 L 217.058594 269.53125 L 228.929688 244.1875 L 257.890625 244.042969 L 240.046875 266.15625 Z M 239.613281 268.90625 "/>
<path style=" stroke:none;fill-rule:nonzero;fill:rgb(39.99939%,39.99939%,39.99939%);fill-opacity:0.3;" d="M 311.332031 171.542969 L 314.234375 169.523438 L 315.351562 172.171875 L 314.722656 171.894531 Z M 311.332031 171.542969 "/>
<path style=" stroke:none;fill-rule:nonzero;fill:rgb(39.99939%,39.99939%,39.99939%);fill-opacity:0.3;" d="M 280.210938 206.261719 L 269.226562 191.960938 L 298.082031 175 L 301.6875 174.027344 L 305.039062 173.703125 L 309.140625 173.453125 L 312.753906 173.707031 L 315.574219 174.796875 L 316.96875 176.019531 L 318.425781 179.476562 Z M 280.210938 206.261719 "/>
<path style=" stroke:none;fill-rule:nonzero;fill:rgb(39.99939%,39.99939%,39.99939%);fill-opacity:0.3;" d="M 253.484375 202.179688 L 265.929688 194.863281 L 277.15625 208.402344 L 277.039062 208.484375 L 244.964844 229.980469 L 234.511719 215.4375 Z M 253.484375 202.179688 "/>
<g clip-path="url(#clip6)" clip-rule="nonzero">
<path style=" stroke:none;fill-rule:nonzero;fill:rgb(39.99939%,39.99939%,39.99939%);fill-opacity:0.3;" d="M 188.476562 335.4375 L 237.589844 335.140625 L 213.378906 377.207031 L 172.683594 376.066406 Z M 188.476562 335.4375 "/>
</g>
<path style=" stroke:none;fill-rule:nonzero;fill:rgb(39.99939%,39.99939%,39.99939%);fill-opacity:0.3;" d="M 148.367188 284.445312 L 150.621094 284.207031 L 155.554688 285.789062 L 157.5 289.996094 L 157.003906 338.320312 L 150.726562 328 L 149.972656 320.832031 L 148.789062 319.421875 L 147.671875 309.785156 L 145.625 291.804688 Z M 148.367188 284.445312 "/>
<path style=" stroke:none;fill-rule:nonzero;fill:rgb(39.99939%,39.99939%,39.99939%);fill-opacity:0.3;" d="M 156.984375 340.144531 L 156.964844 342.160156 L 154.890625 340.609375 Z M 156.984375 340.144531 "/>
<path style=" stroke:none;fill-rule:nonzero;fill:rgb(39.99939%,39.99939%,39.99939%);fill-opacity:0.3;" d="M 161.527344 315.589844 L 190.667969 315.714844 L 184.058594 332.835938 L 161.84375 335.921875 Z M 161.527344 315.589844 "/>
<path style=" stroke:none;fill-rule:nonzero;fill:rgb(39.99939%,39.99939%,39.99939%);fill-opacity:0.3;" d="M 161.339844 291.660156 L 199.953125 292.519531 L 192.101562 312.855469 L 161.484375 312.6875 Z M 161.339844 291.660156 "/>
<path style=" stroke:none;fill-rule:nonzero;fill:rgb(39.99939%,39.99939%,39.99939%);fill-opacity:0.3;" d="M 199.085938 308.136719 L 238.460938 308.191406 L 238.664062 309.953125 L 248.042969 318.839844 L 247.121094 320.03125 L 194.371094 320.265625 Z M 199.085938 308.136719 "/>
<path style=" stroke:none;fill-rule:nonzero;fill:rgb(39.99939%,39.99939%,39.99939%);fill-opacity:0.3;" d="M 193.46875 322.585938 L 245.605469 322.066406 L 238.574219 333.894531 L 189.109375 333.804688 Z M 193.46875 322.585938 "/>
<path style=" stroke:none;fill-rule:nonzero;fill:rgb(39.99939%,39.99939%,39.99939%);fill-opacity:0.3;" d="M 205.5625 291.480469 L 236.601562 291.824219 L 238.316406 306.90625 L 199.542969 306.960938 Z M 205.5625 291.480469 "/>
<g clip-path="url(#clip7)" clip-rule="nonzero">
<path style=" stroke:none;fill-rule:nonzero;fill:rgb(39.99939%,39.99939%,39.99939%);fill-opacity:0.3;" d="M 205.066406 399.765625 L 220.78125 377.757812 L 234.707031 361.195312 L 248.175781 348.179688 L 261.425781 337.683594 L 264.257812 337.636719 L 258.660156 360.40625 L 257.808594 360.925781 L 253.476562 365.214844 L 249.503906 370.042969 L 245.089844 374.449219 L 232.945312 383.917969 L 231.199219 387.363281 L 228.539062 399.011719 L 212.375 399.492188 Z M 205.066406 399.765625 "/>
</g>
<path style=" stroke:none;fill-rule:nonzero;fill:rgb(39.99939%,39.99939%,39.99939%);fill-opacity:0.3;" d="M 143.523438 316.152344 L 139.90625 315.542969 L 136.902344 314.125 L 137.113281 304.476562 L 137.230469 305.804688 Z M 143.523438 316.152344 "/>
<path style=" stroke:none;fill-rule:nonzero;fill:rgb(39.99939%,39.99939%,39.99939%);fill-opacity:0.3;" d="M 131.433594 317.101562 L 138.25 321.429688 L 141.546875 321.285156 L 144.574219 319.753906 L 146.574219 322.140625 L 136.449219 332.316406 L 134.976562 334.648438 L 115.203125 356.007812 L 103.429688 346.222656 Z M 131.433594 317.101562 "/>
<path style=" stroke:none;fill-rule:nonzero;fill:rgb(39.99939%,39.99939%,39.99939%);fill-opacity:0.3;" d="M 146.660156 325.171875 L 147.113281 327.242188 L 147.707031 332.875 L 147.539062 335.96875 L 148.828125 339.179688 L 148.296875 339 L 144.609375 328.398438 L 143.472656 328.585938 Z M 146.660156 325.171875 "/>
<g clip-path="url(#clip8)" clip-rule="nonzero">
<path style=" stroke:none;fill-rule:nonzero;fill:rgb(39.99939%,39.99939%,39.99939%);fill-opacity:0.3;" d="M 129.121094 360.039062 L 121.507812 367.933594 L 119.320312 363.339844 L 114.765625 359.332031 L 132.191406 340.667969 L 130.777344 342.691406 L 126.164062 348.222656 Z M 129.121094 360.039062 "/>
</g>
<path style=" stroke:none;fill-rule:nonzero;fill:rgb(39.99939%,39.99939%,39.99939%);fill-opacity:0.3;" d="M 112.578125 259.460938 L 116.042969 252.675781 L 121.101562 242.871094 L 124.527344 236.964844 L 128.695312 231.722656 L 132.476562 226.433594 L 140.308594 218.414062 L 149.890625 209.625 L 154.578125 215.691406 L 148.148438 223.027344 L 139.515625 236.085938 L 133.125 245.027344 L 125.402344 255.394531 L 117.109375 262.660156 Z M 112.578125 259.460938 "/>
<path style=" stroke:none;fill-rule:nonzero;fill:rgb(39.99939%,39.99939%,39.99939%);fill-opacity:0.3;" d="M 144.597656 205.628906 L 125.539062 231.742188 L 123.777344 230.476562 L 123.140625 228.785156 L 122.90625 227.46875 L 128.472656 220.511719 L 136.308594 212.671875 Z M 144.597656 205.628906 "/>
<path style=" stroke:none;fill-rule:nonzero;fill:rgb(39.99939%,39.99939%,39.99939%);fill-opacity:0.3;" d="M 118.96875 233.527344 L 118.699219 234.210938 L 116.40625 239.011719 L 114.171875 242.457031 L 114.640625 241.257812 Z M 118.96875 233.527344 "/>
<path style=" stroke:none;fill-rule:nonzero;fill:rgb(39.99939%,39.99939%,39.99939%);fill-opacity:0.3;" d="M 135.078125 265.71875 L 137.953125 257.8125 L 142.882812 251.421875 L 148.058594 246.25 L 154.503906 242.144531 L 160.539062 240.4375 L 156.269531 247.46875 L 154.519531 255.339844 L 153.265625 261.085938 L 153.527344 266.386719 L 153.609375 267.074219 L 153.753906 268.324219 L 134.53125 269.351562 Z M 135.078125 265.71875 "/>
<path style=" stroke:none;fill-rule:nonzero;fill:rgb(39.99939%,39.99939%,39.99939%);fill-opacity:0.3;" d="M 134.300781 272.722656 L 134.128906 272.046875 L 134.199219 271.582031 Z M 134.300781 272.722656 "/>
<path style=" stroke:none;fill-rule:nonzero;fill:rgb(39.99939%,39.99939%,39.99939%);fill-opacity:0.3;" d="M 112.066406 287.09375 L 113.207031 289.507812 L 111.507812 292.09375 L 106.324219 295.082031 L 101.605469 296.515625 L 93.773438 292.839844 L 103.402344 276.695312 L 111.40625 281.210938 Z M 112.066406 287.09375 "/>
<path style=" stroke:none;fill-rule:nonzero;fill:rgb(39.99939%,39.99939%,39.99939%);fill-opacity:0.3;" d="M 111.867188 260.457031 L 116.136719 263.746094 L 118.90625 274.699219 L 114.507812 280.898438 L 104.441406 275.242188 Z M 111.867188 260.457031 "/>
<path style=" stroke:none;fill-rule:nonzero;fill:rgb(39.99939%,39.99939%,39.99939%);fill-opacity:0.3;" d="M 77.496094 306.683594 L 75.886719 307.925781 L 73.4375 309.257812 L 73.300781 308.933594 L 74.066406 308.570312 Z M 77.496094 306.683594 "/>
<path style=" stroke:none;fill-rule:nonzero;fill:rgb(39.99939%,39.99939%,39.99939%);fill-opacity:0.3;" d="M 71.667969 309.707031 L 71.863281 310.132812 L 48.476562 321.691406 L 48.429688 321.644531 L 54.242188 318.253906 L 65.304688 312.722656 Z M 71.667969 309.707031 "/>
<path style=" stroke:none;fill-rule:nonzero;fill:rgb(39.99939%,39.99939%,39.99939%);fill-opacity:0.3;" d="M 123.886719 310.785156 L 130.304688 316.546875 L 102.601562 345.792969 L 96.296875 340.292969 Z M 123.886719 310.785156 "/>
<path style=" stroke:none;fill-rule:nonzero;fill:rgb(39.99939%,39.99939%,39.99939%);fill-opacity:0.3;" d="M 59.429688 318.691406 L 63.675781 316.832031 L 67.664062 315.195312 L 80.007812 333.757812 L 73.335938 342.820312 Z M 59.429688 318.691406 "/>
<path style=" stroke:none;fill-rule:nonzero;fill:rgb(39.99939%,39.99939%,39.99939%);fill-opacity:0.3;" d="M 45.410156 325.871094 L 57.507812 319.402344 L 72.683594 344.957031 L 66.652344 351.078125 L 65.53125 351.472656 L 65 350.449219 L 64.296875 344.675781 L 63.195312 343.917969 L 57.386719 346.570312 Z M 45.410156 325.871094 "/>
<path style=" stroke:none;fill-rule:nonzero;fill:rgb(39.99939%,39.99939%,39.99939%);fill-opacity:0.3;" d="M 97.714844 312.308594 L 90.4375 317.71875 L 84.554688 306.210938 L 88.808594 301.203125 L 92.964844 293.953125 L 105.425781 300.859375 L 102.464844 306.9375 Z M 97.714844 312.308594 "/>
<path style=" stroke:none;fill-rule:nonzero;fill:rgb(39.99939%,39.99939%,39.99939%);fill-opacity:0.3;" d="M 70.027344 314.234375 L 74.097656 312.660156 L 79.585938 310.097656 L 82.679688 308.015625 L 88.597656 319.945312 L 81 331.636719 Z M 70.027344 314.234375 "/>
<path style=" stroke:none;fill-rule:nonzero;fill:rgb(39.99939%,39.99939%,39.99939%);fill-opacity:0.3;" d="M 44.980469 323.65625 L 30.511719 333.910156 L 29.449219 334.808594 L 31.648438 332.085938 L 37.644531 327.9375 Z M 44.980469 323.65625 "/>
<path style=" stroke:none;fill-rule:nonzero;fill:rgb(39.99939%,39.99939%,39.99939%);fill-opacity:0.3;" d="M 32.144531 335.222656 L 44.492188 326.707031 L 56.742188 350.363281 L 46.695312 357.1875 Z M 32.144531 335.222656 "/>
<g clip-path="url(#clip9)" clip-rule="nonzero">
<path style=" stroke:none;fill-rule:nonzero;fill:rgb(39.99939%,39.99939%,39.99939%);fill-opacity:0.3;" d="M 5.410156 364.890625 L 12.539062 358.085938 L 15.101562 363.773438 L 18.433594 369.945312 L 23.058594 376.625 L 27.648438 383.253906 L 25.859375 383.863281 L 23.175781 383.382812 L 13.472656 383.152344 L 10.402344 379.160156 L 6.171875 370.808594 L 7.191406 369.234375 L 7.316406 367.902344 Z M 5.410156 364.890625 "/>
</g>
<g clip-path="url(#clip10)" clip-rule="nonzero">
<path style=" stroke:none;fill-rule:nonzero;fill:rgb(39.99939%,39.99939%,39.99939%);fill-opacity:0.3;" d="M 22.078125 343.9375 L 25.875 339.851562 L 31.039062 335.921875 L 45.257812 357.191406 L 37.238281 365.738281 L 33.058594 364.699219 L 21.457031 344.8125 L 21.96875 344.074219 Z M 22.078125 343.9375 "/>
</g>
<g clip-path="url(#clip11)" clip-rule="nonzero">
<path style=" stroke:none;fill-rule:nonzero;fill:rgb(39.99939%,39.99939%,39.99939%);fill-opacity:0.3;" d="M 13.527344 356.691406 L 15.394531 354.386719 L 20.953125 346.375 L 35.714844 371.726562 L 29.800781 378.890625 L 26.207031 377.363281 L 23.886719 374.375 Z M 13.527344 356.691406 "/>
</g>
<g clip-path="url(#clip12)" clip-rule="nonzero">
<path style=" stroke:none;fill-rule:nonzero;fill:rgb(39.99939%,39.99939%,39.99939%);fill-opacity:0.3;" d="M 381.042969 124.042969 L 357.179688 127.542969 L 380.667969 122.765625 Z M 381.042969 124.042969 "/>
</g>
<path style=" stroke:none;fill-rule:nonzero;fill:rgb(39.99939%,39.99939%,39.99939%);fill-opacity:0.3;" d="M 352.511719 128.390625 L 352.550781 128.519531 L 335.433594 131.988281 L 334.820312 130.074219 Z M 352.511719 128.390625 "/>
<path style=" stroke:none;fill-rule:nonzero;fill:rgb(39.99939%,39.99939%,39.99939%);fill-opacity:0.3;" d="M 150.714844 207.488281 L 154.835938 204.542969 L 159.710938 201.910156 L 164.175781 201.273438 L 168.300781 201.046875 L 171.316406 209.765625 L 166.398438 210.15625 L 160.28125 211.375 L 156.292969 214.058594 Z M 150.714844 207.488281 "/>
<path style=" stroke:none;fill-rule:nonzero;fill:rgb(39.99939%,39.99939%,39.99939%);fill-opacity:0.3;" d="M 164.363281 196.671875 L 165.042969 198.332031 L 153.5625 202.355469 L 152.730469 199.683594 L 160.746094 197.457031 Z M 164.363281 196.671875 "/>
<path style=" stroke:none;fill-rule:nonzero;fill:rgb(39.99939%,39.99939%,39.99939%);fill-opacity:0.3;" d="M 177.089844 193.902344 L 177.421875 195.75 L 166.472656 197.867188 L 165.878906 196.339844 Z M 177.089844 193.902344 "/>
<path style=" stroke:none;fill-rule:nonzero;fill:rgb(39.99939%,39.99939%,39.99939%);fill-opacity:0.3;" d="M 192.003906 190.882812 L 192.445312 193.03125 L 178.613281 195.238281 L 178.320312 193.636719 L 181.953125 192.847656 L 191.175781 191.003906 Z M 192.003906 190.882812 "/>
<path style=" stroke:none;fill-rule:nonzero;fill:rgb(39.99939%,39.99939%,39.99939%);fill-opacity:0.3;" d="M 176.5 199.332031 L 187.238281 198.289062 L 196.527344 195.988281 L 207.742188 192.082031 L 219.074219 187.324219 L 230.597656 181.566406 L 239.300781 175.007812 L 247.144531 185.628906 L 232.941406 193.066406 L 220.117188 198.667969 L 194.679688 207.34375 L 188.308594 213.566406 L 183.652344 214.554688 L 179.511719 214.070312 L 176.0625 212.765625 Z M 176.5 199.332031 "/>
<path style=" stroke:none;fill-rule:nonzero;fill:rgb(39.99939%,39.99939%,39.99939%);fill-opacity:0.3;" d="M 158.117188 267.074219 L 160.214844 261.875 L 160.4375 261.613281 L 159.90625 267.121094 Z M 158.117188 267.074219 "/>
<path style=" stroke:none;fill-rule:nonzero;fill:rgb(39.99939%,39.99939%,39.99939%);fill-opacity:0.3;" d="M 228.492188 174.539062 L 225.742188 176.882812 L 220.851562 179.769531 L 218.148438 181.050781 L 214.597656 183.890625 L 214.230469 181.980469 Z M 228.492188 174.539062 "/>
<path style=" stroke:none;fill-rule:nonzero;fill:rgb(39.99939%,39.99939%,39.99939%);fill-opacity:0.3;" d="M 241.140625 171.742188 L 251.5625 163.515625 L 265.101562 179.625 L 249.902344 185.488281 Z M 241.140625 171.742188 "/>
<path style=" stroke:none;fill-rule:nonzero;fill:rgb(39.99939%,39.99939%,39.99939%);fill-opacity:0.3;" d="M 199.667969 230.996094 L 226.820312 216.15625 L 239.035156 233.808594 L 228.265625 240.210938 L 226.171875 240.394531 L 205.503906 241.0625 Z M 199.667969 230.996094 "/>
<path style=" stroke:none;fill-rule:nonzero;fill:rgb(39.99939%,39.99939%,39.99939%);fill-opacity:0.3;" d="M 212.484375 182.890625 L 213.113281 185.414062 L 210.269531 187.617188 L 204.558594 190.289062 L 198.332031 192.09375 L 194.625 192.769531 L 194.179688 190.574219 L 197.628906 190.082031 L 202.238281 188.234375 Z M 212.484375 182.890625 "/>
<path style=" stroke:none;fill-rule:nonzero;fill:rgb(39.99939%,39.99939%,39.99939%);fill-opacity:0.3;" d="M 330.5625 130.273438 L 331.148438 132.105469 L 311.207031 132.078125 L 310.882812 131.003906 Z M 330.5625 130.273438 "/>
<path style=" stroke:none;fill-rule:nonzero;fill:rgb(39.99939%,39.99939%,39.99939%);fill-opacity:0.3;" d="M 272.445312 142.953125 L 289.898438 137.476562 L 314.695312 134.429688 L 330.703125 134.160156 L 334.949219 142.683594 L 303.402344 153.355469 L 290.207031 159.210938 Z M 272.445312 142.953125 "/>
<path style=" stroke:none;fill-rule:nonzero;fill:rgb(39.99939%,39.99939%,39.99939%);fill-opacity:0.3;" d="M 314.234375 169.523438 L 331.363281 157.589844 L 345.460938 174.207031 L 339.402344 178.324219 L 338.398438 178.121094 L 336.519531 176.753906 L 335.203125 177.484375 L 332.402344 176.921875 L 331.8125 176.523438 L 331.363281 176.714844 L 324.417969 175.328125 L 321.65625 177.238281 L 320.671875 176.085938 L 319.214844 174.617188 L 317.253906 173.023438 L 315.351562 172.171875 Z M 314.234375 169.523438 "/>
<g clip-path="url(#clip13)" clip-rule="nonzero">
<path style=" stroke:none;fill-rule:nonzero;fill:rgb(39.99939%,39.99939%,39.99939%);fill-opacity:0.3;" d="M 337.492188 161.058594 L 343.179688 157.003906 L 348.066406 162.972656 L 359.4375 155.246094 L 364.121094 160.445312 L 346.664062 172.292969 Z M 337.492188 161.058594 "/>
</g>
<g clip-path="url(#clip14)" clip-rule="nonzero">
<path style=" stroke:none;fill-rule:nonzero;fill:rgb(39.99939%,39.99939%,39.99939%);fill-opacity:0.3;" d="M 332.722656 135.085938 L 342.511719 135.726562 L 347 135.71875 L 375.511719 127.808594 L 378.476562 133.03125 L 365.113281 142.425781 L 361.351562 143.527344 L 357.148438 143.808594 L 335.703125 141.230469 Z M 332.722656 135.085938 "/>
</g>
<path style=" stroke:none;fill-rule:nonzero;fill:rgb(39.99939%,39.99939%,39.99939%);fill-opacity:0.3;" d="M 253.542969 162.296875 L 265.175781 152.121094 L 271.214844 144.214844 L 288.421875 160.039062 L 284.003906 163.023438 L 277.195312 169.035156 L 267.171875 177.542969 Z M 253.542969 162.296875 "/>
<path style=" stroke:none;fill-rule:nonzero;fill:rgb(39.99939%,39.99939%,39.99939%);fill-opacity:0.3;" d="M 286.425781 135.585938 L 277.347656 138.464844 L 278.3125 137.980469 L 283.847656 136.136719 Z M 286.425781 135.585938 "/>
<path style=" stroke:none;fill-rule:nonzero;fill:rgb(39.99939%,39.99939%,39.99939%);fill-opacity:0.3;" d="M 308.570312 131.1875 L 308.820312 132.148438 L 297.179688 133.410156 Z M 308.570312 131.1875 "/>
<path style=" stroke:none;fill-rule:nonzero;fill:rgb(39.99939%,39.99939%,39.99939%);fill-opacity:0.3;" d="M 342.03125 178.847656 L 346.402344 175.75 L 348.324219 180.019531 L 348.238281 180.089844 Z M 342.03125 178.847656 "/>
<path style=" stroke:none;fill-rule:nonzero;fill:rgb(39.99939%,39.99939%,39.99939%);fill-opacity:0.3;" d="M 316.96875 176.019531 L 318.746094 177.578125 L 319.695312 178.597656 L 318.425781 179.476562 Z M 316.96875 176.019531 "/>
<g clip-path="url(#clip15)" clip-rule="nonzero">
<path style=" stroke:none;fill-rule:nonzero;fill:rgb(39.99939%,39.99939%,39.99939%);fill-opacity:0.3;" d="M 356.339844 181.710938 L 356.679688 181.351562 L 360.996094 180.269531 L 363.722656 180.480469 L 366.902344 179.613281 L 369.214844 177.507812 L 370.078125 175.300781 L 371.214844 174.222656 L 372.351562 174.652344 L 374.628906 180.035156 L 370.214844 184.484375 Z M 356.339844 181.710938 "/>
</g>
<path style=" stroke:none;fill-rule:nonzero;fill:rgb(39.99939%,39.99939%,39.99939%);fill-opacity:0.3;" d="M 231.179688 215.296875 L 253.484375 202.179688 L 234.511719 215.4375 L 244.964844 229.980469 L 242.054688 231.929688 Z M 231.179688 215.296875 "/>
<g clip-path="url(#clip16)" clip-rule="nonzero">
<path style=" stroke:none;fill-rule:nonzero;fill:rgb(39.99939%,39.99939%,39.99939%);fill-opacity:0.3;" d="M 366.238281 160.449219 L 369.832031 165.710938 L 358.148438 174.183594 L 353.898438 168.746094 Z M 366.238281 160.449219 "/>
</g>
<path style=" stroke:none;fill-rule:nonzero;fill:rgb(39.99939%,39.99939%,39.99939%);fill-opacity:0.3;" d="M 157.003906 338.320312 L 156.984375 340.144531 L 154.890625 340.609375 L 152.425781 338.765625 L 151.089844 335.4375 L 151.234375 332.792969 L 150.726562 328 Z M 157.003906 338.320312 "/>
<path style=" stroke:none;fill-rule:nonzero;fill:rgb(39.99939%,39.99939%,39.99939%);fill-opacity:0.3;" d="M 64.921875 55.429688 L 65.324219 53.605469 L 66.699219 51.621094 L 68.152344 50.296875 L 68.667969 50.066406 L 71.652344 58.5 Z M 64.921875 55.429688 "/>
<path style=" stroke:none;fill-rule:nonzero;fill:rgb(39.99939%,39.99939%,39.99939%);fill-opacity:0.3;" d="M 67.570312 46.96875 L 67.335938 49.050781 L 65.746094 50.5 L 64.546875 52.472656 L 63.714844 55.046875 L 54.953125 54.324219 L 59.070312 25.433594 L 59.882812 25.25 Z M 67.570312 46.96875 "/>
<path style=" stroke:none;fill-rule:nonzero;fill:rgb(39.99939%,39.99939%,39.99939%);fill-opacity:0.3;" d="M 3.464844 52.464844 L -0.335938 51.089844 L -4.210938 50.550781 L -4.421875 50.078125 L 15.972656 43.003906 L 17.816406 42.410156 L 23.871094 66.199219 L 12.0625 69.167969 L 10.261719 68.230469 L 8.566406 56.367188 L 6.296875 54.222656 Z M 3.464844 52.464844 "/>
<path style=" stroke:none;fill-rule:nonzero;fill:rgb(39.99939%,39.99939%,39.99939%);fill-opacity:0.3;" d="M 24.910156 65.378906 L 19.234375 41.953125 L 38.707031 35.683594 L 43.816406 58.105469 Z M 24.910156 65.378906 "/>
<path style=" stroke:none;fill-rule:nonzero;fill:rgb(39.99939%,39.99939%,39.99939%);fill-opacity:0.3;" d="M 94.253906 122.34375 L 93.898438 123.757812 L 94.453125 128.417969 L 95.460938 132.445312 L 96.925781 134.386719 L 97.121094 136.136719 L 102.144531 147.027344 L 101.167969 160.101562 L 89.65625 194.425781 L 89.871094 197.808594 L 80.867188 208.765625 L 72.484375 217.132812 L 68.644531 214.503906 L 74.542969 207.699219 L 80.046875 199.253906 L 83.644531 190.253906 L 86.785156 184.730469 L 89.621094 175.613281 L 91.382812 163.628906 L 91.003906 148.777344 L 89.210938 139.332031 L 87.59375 130.28125 L 87.933594 120.324219 L 90.929688 112.960938 Z M 94.253906 122.34375 "/>
<path style=" stroke:none;fill-rule:nonzero;fill:rgb(39.99939%,39.99939%,39.99939%);fill-opacity:0.3;" d="M 97.601562 187.984375 L 96.320312 188.464844 L 91.175781 195.226562 L 103.019531 166.21875 L 103.113281 170.714844 Z M 97.601562 187.984375 "/>
<path style=" stroke:none;fill-rule:nonzero;fill:rgb(39.99939%,39.99939%,39.99939%);fill-opacity:0.3;" d="M 44.234375 46.253906 L 41.441406 34.800781 L 43.175781 34.242188 L 54.023438 27.117188 L 51.988281 54.933594 L 48.84375 55.378906 L 48.265625 51.832031 Z M 44.234375 46.253906 "/>
<path style=" stroke:none;fill-rule:nonzero;fill:rgb(39.99939%,39.99939%,39.99939%);fill-opacity:0.3;" d="M -34.65625 180.222656 L -26.511719 158.589844 L -9.898438 151.957031 L -9.441406 112.808594 L -0.246094 97.898438 L 11.082031 98.5 L 17.339844 98.121094 L 24.367188 90.695312 L 29.835938 88.835938 L 46.257812 88.8125 L 46.675781 106.609375 L 45.902344 111.429688 L 43.367188 114.953125 L 41.429688 118.917969 L 39.878906 121.75 L 42.503906 149.0625 L 45.648438 158.699219 L 45.265625 166.484375 L 39.820312 185.402344 L 34.359375 193.566406 L 27.722656 200.25 L 23.042969 208.414062 L 18.753906 215.09375 L 17.59375 223.253906 L 10.195312 243.65625 L -32.773438 242.40625 Z M -34.65625 180.222656 "/>
<path style=" stroke:none;fill-rule:nonzero;fill:rgb(39.99939%,39.99939%,39.99939%);fill-opacity:0.3;" d="M 59.644531 267.074219 L 32.382812 306.179688 L 19.253906 325.015625 L 16.335938 329.09375 L 8.640625 335.679688 L -4.125 342.707031 L -28.078125 353.90625 L -34.363281 340.328125 L -32.3125 339.648438 L -27.855469 339.9375 L -24.921875 340.125 L -18.402344 338.941406 L -10.507812 336.234375 L -4.828125 331.734375 L -1.644531 326.074219 L -0.546875 324.125 L 2.546875 323.792969 L 7.527344 321.992188 L 9.925781 317.265625 L 15.074219 312.695312 L 20.558594 301.441406 L 25.859375 295.558594 L 33.332031 287.265625 L 46.101562 267.074219 L 67.683594 232.945312 L 76.945312 234.164062 L 79.6875 230.578125 L 71.609375 229.121094 L 93.972656 198.582031 L 97.488281 193.734375 L 105.140625 201.734375 Z M 59.644531 267.074219 "/>
<path style=" stroke:none;fill-rule:nonzero;fill:rgb(39.99939%,39.99939%,39.99939%);fill-opacity:0.3;" d="M 73.300781 308.933594 L 71.714844 305.253906 L 74.066406 308.570312 Z M 73.300781 308.933594 "/>
<path style=" stroke:none;fill-rule:nonzero;fill:rgb(39.99939%,39.99939%,39.99939%);fill-opacity:0.3;" d="M 49.992188 288.871094 L 67.296875 300.136719 L 71.667969 309.707031 L 65.304688 312.722656 L 54.242188 318.253906 L 48.429688 321.644531 L 35.605469 308.476562 Z M 49.992188 288.871094 "/>
<g clip-path="url(#clip17)" clip-rule="nonzero">
<path style=" stroke:none;fill-rule:nonzero;fill:rgb(39.99939%,39.99939%,39.99939%);fill-opacity:0.3;" d="M -17.464844 352.078125 L 5.878906 340.617188 L 18.535156 331.410156 L 26.058594 322.789062 L 34.390625 310.578125 L 45.820312 323.058594 L 44.980469 323.65625 L 37.644531 327.9375 L 31.648438 332.085938 L 29.449219 334.808594 L 23.808594 339.582031 L 17.679688 347.675781 L 12.136719 355.800781 L 2.632812 365.074219 L -5.464844 370.488281 Z M -17.464844 352.078125 "/>
</g>
<path style=" stroke:none;fill-rule:nonzero;fill:rgb(39.99939%,39.99939%,39.99939%);fill-opacity:0.3;" d="M 21.382812 344.683594 L 22.078125 343.9375 L 21.96875 344.074219 L 21.457031 344.8125 Z M 21.382812 344.683594 "/>
<path style=" stroke:none;fill-rule:nonzero;fill:rgb(39.99939%,39.99939%,39.99939%);fill-opacity:0.3;" d="M 59.128906 23.1875 L 57.871094 23.515625 L 54.878906 13.582031 L 55.164062 13.496094 Z M 59.128906 23.1875 "/>
<path style=" stroke:none;fill-rule:nonzero;fill:rgb(39.99939%,39.99939%,39.99939%);fill-opacity:0.3;" d="M 8.40625 17.6875 L 8.863281 18.882812 L -7.351562 19.027344 L -11.523438 18.105469 Z M 8.40625 17.6875 "/>
<path style=" stroke:none;fill-rule:nonzero;fill:rgb(39.99939%,39.99939%,39.99939%);fill-opacity:0.3;" d="M 47.546875 15.804688 L 49.351562 17.332031 L 35 19.460938 L 11.597656 18.53125 L 13.445312 17.695312 L 39.488281 18.105469 Z M 47.546875 15.804688 "/>
<path style=" stroke:none;fill-rule:nonzero;fill:rgb(39.99939%,39.99939%,39.99939%);fill-opacity:0.3;" d="M -4.421875 50.078125 L -5.597656 47.4375 L -6.988281 44.652344 L -10.652344 20.070312 L 12.113281 20.023438 L 17.816406 42.410156 L 15.972656 43.003906 Z M -4.421875 50.078125 "/>
<path style=" stroke:none;fill-rule:nonzero;fill:rgb(39.99939%,39.99939%,39.99939%);fill-opacity:0.3;" d="M 19.234375 41.953125 L 13.996094 20.351562 L 35.515625 21.671875 L 38.707031 35.683594 Z M 19.234375 41.953125 "/>
<path style=" stroke:none;fill-rule:nonzero;fill:rgb(39.99939%,39.99939%,39.99939%);fill-opacity:0.3;" d="M 41.441406 34.800781 L 38.746094 23.75 L 42.945312 22.714844 L 42.84375 20.792969 L 51.90625 18.644531 L 54.21875 24.445312 L 54.023438 27.117188 L 43.175781 34.242188 Z M 41.441406 34.800781 "/>
<path style=" stroke:none;fill-rule:nonzero;fill:rgb(39.99939%,39.99939%,39.99939%);fill-opacity:0.3;" d="M 139.71875 30.070312 L 140.367188 33.046875 L 148.988281 31.304688 L 153.546875 49.714844 L 139.996094 54.070312 L 135.414062 37.261719 L 132.859375 27.511719 L 128.933594 6.121094 L 126.96875 -2.710938 L 140.433594 -6.1875 L 148.269531 28.15625 Z M 139.71875 30.070312 "/>
<path style=" stroke:none;fill-rule:nonzero;fill:rgb(39.99939%,39.99939%,39.99939%);fill-opacity:0.3;" d="M 150.203125 -45.726562 L 158.984375 -6.246094 L 165.769531 24.246094 L 150.367188 27.6875 L 142.761719 -6.671875 L 134.675781 -43.195312 Z M 150.203125 -45.726562 "/>
<path style=" stroke:none;fill-rule:nonzero;fill:rgb(39.99939%,39.99939%,39.99939%);fill-opacity:0.3;" d="M 166.46875 27.398438 L 171.042969 44.179688 L 165.816406 45.769531 L 156.070312 48.902344 L 151.066406 30.84375 Z M 166.46875 27.398438 "/>
<path style=" stroke:none;fill-rule:nonzero;fill:rgb(39.99939%,39.99939%,39.99939%);fill-opacity:0.3;" d="M 182.640625 23.875 L 186.460938 40.546875 L 184.71875 41.160156 L 176.421875 42.542969 L 174.210938 43.214844 L 169.664062 27.234375 Z M 182.640625 23.875 "/>
<path style=" stroke:none;fill-rule:nonzero;fill:rgb(39.99939%,39.99939%,39.99939%);fill-opacity:0.3;" d="M 170.253906 -35.425781 L 176.738281 -5.777344 L 182.488281 20.507812 L 168.398438 23.65625 L 161.804688 -6.171875 L 156.007812 -32.378906 Z M 170.253906 -35.425781 "/>
<path style=" stroke:none;fill-rule:nonzero;fill:rgb(39.99939%,39.99939%,39.99939%);fill-opacity:0.3;" d="M 224.855469 29.613281 L 230.617188 25.527344 L 233.664062 24.578125 L 236.503906 25.253906 L 238.300781 27.167969 L 238.589844 30.296875 L 235.742188 36.699219 L 232.375 42.238281 L 228.230469 47.164062 L 223.792969 52.007812 L 218.746094 55.015625 L 213.578125 57.765625 L 206.703125 60.113281 L 200.472656 60.859375 L 200.34375 59.628906 L 204.5 57.042969 L 210.726562 54.691406 L 216.945312 51.609375 L 220.316406 46.265625 L 221.90625 40.859375 L 222.925781 36.210938 Z M 224.855469 29.613281 "/>
<path style=" stroke:none;fill-rule:nonzero;fill:rgb(39.99939%,39.99939%,39.99939%);fill-opacity:0.3;" d="M 217.546875 35.699219 L 217.027344 39.648438 L 216.660156 42.800781 L 212.726562 46.3125 L 193.867188 52.542969 L 192.847656 41.542969 Z M 217.546875 35.699219 "/>
<path style=" stroke:none;fill-rule:nonzero;fill:rgb(39.99939%,39.99939%,39.99939%);fill-opacity:0.3;" d="M 267.09375 26.308594 L 266.988281 26.375 L 266.894531 26.160156 Z M 267.09375 26.308594 "/>
<path style=" stroke:none;fill-rule:nonzero;fill:rgb(39.99939%,39.99939%,39.99939%);fill-opacity:0.3;" d="M 204.628906 2.628906 L 212.164062 14.550781 L 198.640625 16.898438 L 184.976562 19.953125 L 181.652344 5.382812 L 201.003906 3.714844 Z M 204.628906 2.628906 "/>
<path style=" stroke:none;fill-rule:nonzero;fill:rgb(39.99939%,39.99939%,39.99939%);fill-opacity:0.3;" d="M 260.964844 23.050781 L 264.75 29.320312 L 262.714844 32.976562 L 262.070312 35.265625 L 257.1875 44.835938 L 251.125 39.515625 L 243.191406 32.96875 L 252.089844 25.917969 L 254.511719 25.136719 Z M 260.964844 23.050781 "/>
<path style=" stroke:none;fill-rule:nonzero;fill:rgb(39.99939%,39.99939%,39.99939%);fill-opacity:0.3;" d="M 171.1875 -39.234375 L 187.722656 -25.234375 L 203.761719 -8.8125 L 212.132812 -3.925781 L 200.339844 2.414062 L 181.304688 4.191406 Z M 171.1875 -39.234375 "/>
<path style=" stroke:none;fill-rule:nonzero;fill:rgb(39.99939%,39.99939%,39.99939%);fill-opacity:0.3;" d="M 241.910156 3.058594 L 241.644531 3.234375 L 223.859375 -24.289062 L 227.691406 -25.796875 L 229.902344 -17.394531 Z M 241.910156 3.058594 "/>
<path style=" stroke:none;fill-rule:nonzero;fill:rgb(39.99939%,39.99939%,39.99939%);fill-opacity:0.3;" d="M 196.460938 65.292969 L 207.75 63.421875 L 216.453125 59.839844 L 224.636719 56.257812 L 229.363281 51.859375 L 234.3125 47.457031 L 241.335938 36.144531 L 253.335938 46.027344 L 240.042969 54.882812 L 230.332031 59.132812 L 224.101562 61.261719 L 221.386719 63.238281 L 220.113281 66.421875 L 218.355469 67.941406 L 198.558594 78.101562 Z M 196.460938 65.292969 "/>
<path style=" stroke:none;fill-rule:nonzero;fill:rgb(39.99939%,39.99939%,39.99939%);fill-opacity:0.3;" d="M 201.589844 102.402344 L 207.695312 99.761719 L 212.742188 99.941406 L 216.058594 99.378906 L 219.339844 97.601562 L 220.835938 100.402344 L 201.617188 102.449219 Z M 201.589844 102.402344 "/>
<path style=" stroke:none;fill-rule:nonzero;fill:rgb(39.99939%,39.99939%,39.99939%);fill-opacity:0.3;" d="M 220.808594 94.027344 L 231.183594 87.089844 L 232.847656 84.105469 L 236.171875 80.0625 L 239.121094 85.832031 L 223.835938 99.417969 Z M 220.808594 94.027344 "/>
<path style=" stroke:none;fill-rule:nonzero;fill:rgb(39.99939%,39.99939%,39.99939%);fill-opacity:0.3;" d="M 235.816406 76.195312 L 239.671875 72.875 L 241.242188 68.972656 L 240.292969 65.433594 L 247.535156 61.941406 L 253.789062 73.246094 L 240.308594 84.800781 Z M 235.816406 76.195312 "/>
<path style=" stroke:none;fill-rule:nonzero;fill:rgb(39.99939%,39.99939%,39.99939%);fill-opacity:0.3;" d="M 227.058594 -15.703125 L 241.4375 9.875 L 230.128906 16.4375 L 223.105469 3.265625 L 216.714844 -5.660156 Z M 227.058594 -15.703125 "/>
<path style=" stroke:none;fill-rule:nonzero;fill:rgb(39.99939%,39.99939%,39.99939%);fill-opacity:0.3;" d="M 228.640625 17.589844 L 225.898438 19.285156 L 223.417969 22.191406 L 222.804688 24.257812 L 206.890625 1.429688 L 215.34375 -4.410156 L 221.484375 4.171875 Z M 228.640625 17.589844 "/>
<path style=" stroke:none;fill-rule:nonzero;fill:rgb(39.99939%,39.99939%,39.99939%);fill-opacity:0.3;" d="M 218.578125 33.863281 L 192.675781 39.652344 L 192.558594 38.394531 L 189.644531 39.421875 L 185.917969 23.273438 L 199.019531 20.390625 L 213.878906 18.871094 L 221.085938 26.8125 Z M 218.578125 33.863281 "/>
<path style=" stroke:none;fill-rule:nonzero;fill:rgb(39.99939%,39.99939%,39.99939%);fill-opacity:0.3;" d="M 264.867188 48.191406 L 265.863281 50.089844 L 256.761719 69.386719 L 255.996094 67.824219 L 251.621094 58.875 Z M 264.867188 48.191406 "/>
<path style=" stroke:none;fill-rule:nonzero;fill:rgb(39.99939%,39.99939%,39.99939%);fill-opacity:0.3;" d="M 266.890625 47.914062 L 265.304688 44.867188 L 265.15625 41.355469 L 266.074219 37.976562 L 267.910156 35.074219 L 269.332031 29.710938 L 270.726562 29.015625 L 270.9375 29.171875 L 267.25 47.152344 Z M 266.890625 47.914062 "/>
<path style=" stroke:none;fill-rule:nonzero;fill:rgb(39.99939%,39.99939%,39.99939%);fill-opacity:0.3;" d="M 153.546875 49.714844 L 155.171875 56.273438 L 141.238281 59.515625 L 139.996094 54.773438 L 139.996094 54.070312 Z M 153.546875 49.714844 "/>
<path style=" stroke:none;fill-rule:nonzero;fill:rgb(39.99939%,39.99939%,39.99939%);fill-opacity:0.3;" d="M 181.703125 67.046875 L 193.835938 65.3125 L 195.8125 77.777344 L 183.007812 79.769531 Z M 181.703125 67.046875 "/>
<path style=" stroke:none;fill-rule:nonzero;fill:rgb(39.99939%,39.99939%,39.99939%);fill-opacity:0.3;" d="M 144.316406 67.816406 L 158.050781 65.855469 L 161.429688 83.464844 L 147.246094 86.339844 Z M 144.316406 67.816406 "/>
<path style=" stroke:none;fill-rule:nonzero;fill:rgb(39.99939%,39.99939%,39.99939%);fill-opacity:0.3;" d="M 161.816406 65.75 L 176.859375 65.863281 L 179.742188 80.179688 L 164.613281 82.878906 Z M 161.816406 65.75 "/>
<path style=" stroke:none;fill-rule:nonzero;fill:rgb(39.99939%,39.99939%,39.99939%);fill-opacity:0.3;" d="M 171.042969 44.179688 L 173.746094 54.09375 L 157.539062 54.207031 L 156.070312 48.902344 L 165.816406 45.769531 Z M 171.042969 44.179688 "/>
<path style=" stroke:none;fill-rule:nonzero;fill:rgb(39.99939%,39.99939%,39.99939%);fill-opacity:0.3;" d="M 186.460938 40.546875 L 189.539062 53.96875 L 177.273438 53.984375 L 174.210938 43.214844 L 176.421875 42.542969 L 184.71875 41.160156 Z M 186.460938 40.546875 "/>
<path style=" stroke:none;fill-rule:nonzero;fill:rgb(39.99939%,39.99939%,39.99939%);fill-opacity:0.3;" d="M 157.980469 108.984375 L 163.835938 106.585938 L 166.269531 108.355469 L 170.226562 109.238281 L 180.175781 109.097656 L 180.429688 109.546875 L 163.511719 119.273438 Z M 157.980469 108.984375 "/>
<path style=" stroke:none;fill-rule:nonzero;fill:rgb(39.99939%,39.99939%,39.99939%);fill-opacity:0.3;" d="M 193.867188 52.542969 L 193.390625 52.699219 L 190.605469 42.074219 L 192.847656 41.542969 Z M 193.867188 52.542969 "/>
<path style=" stroke:none;fill-rule:nonzero;fill:rgb(39.99939%,39.99939%,39.99939%);fill-opacity:0.3;" d="M 181.765625 108.300781 L 190.699219 105.9375 L 182.019531 108.761719 Z M 181.765625 108.300781 "/>
<path style=" stroke:none;fill-rule:nonzero;fill:rgb(39.99939%,39.99939%,39.99939%);fill-opacity:0.3;" d="M 192.675781 39.652344 L 189.84375 40.285156 L 189.644531 39.421875 L 192.558594 38.394531 Z M 192.675781 39.652344 "/>
<path style=" stroke:none;fill-rule:nonzero;fill:rgb(39.99939%,39.99939%,39.99939%);fill-opacity:0.3;" d="M 237.304688 -29.582031 L 249.816406 -3.1875 L 247.230469 -1.105469 L 244.894531 1.101562 L 241.910156 3.058594 L 229.902344 -17.394531 L 227.691406 -25.796875 Z M 237.304688 -29.582031 "/>
<path style=" stroke:none;fill-rule:nonzero;fill:rgb(39.99939%,39.99939%,39.99939%);fill-opacity:0.3;" d="M 301.097656 233.046875 L 301.539062 230.320312 L 311.066406 221.492188 L 312.199219 218.90625 L 313.105469 216.75 L 314.886719 215.898438 L 316.375 216.203125 L 317.421875 217.253906 L 325.234375 228.433594 L 306.597656 244.976562 Z M 301.097656 233.046875 "/>
<path style=" stroke:none;fill-rule:nonzero;fill:rgb(39.99939%,39.99939%,39.99939%);fill-opacity:0.3;" d="M 239.238281 271.304688 L 264.449219 270.511719 L 262.105469 283.738281 L 254.9375 283.75 L 253.589844 289.628906 L 236.398438 289.410156 Z M 239.238281 271.304688 "/>
<path style=" stroke:none;fill-rule:nonzero;fill:rgb(39.99939%,39.99939%,39.99939%);fill-opacity:0.3;" d="M 277.035156 230.972656 L 280.003906 237.171875 L 276.464844 241.929688 L 259.460938 242.097656 L 261.253906 239.875 Z M 277.035156 230.972656 "/>
<path style=" stroke:none;fill-rule:nonzero;fill:rgb(39.99939%,39.99939%,39.99939%);fill-opacity:0.3;" d="M 264.417969 268.21875 L 239.613281 268.90625 L 240.046875 266.15625 L 257.890625 244.042969 L 273.195312 243.96875 Z M 264.417969 268.21875 "/>
<path style=" stroke:none;fill-rule:nonzero;fill:rgb(39.99939%,39.99939%,39.99939%);fill-opacity:0.3;" d="M 335.203125 177.484375 L 334.117188 178.085938 L 332.402344 176.921875 Z M 335.203125 177.484375 "/>
<path style=" stroke:none;fill-rule:nonzero;fill:rgb(39.99939%,39.99939%,39.99939%);fill-opacity:0.3;" d="M 331.363281 176.714844 L 328.914062 177.761719 L 326.628906 176.273438 L 322.335938 178.039062 L 321.65625 177.238281 L 324.417969 175.328125 Z M 331.363281 176.714844 "/>
<path style=" stroke:none;fill-rule:nonzero;fill:rgb(39.99939%,39.99939%,39.99939%);fill-opacity:0.3;" d="M 339.402344 178.324219 L 339.027344 178.578125 L 338.398438 178.121094 Z M 339.402344 178.324219 "/>
<path style=" stroke:none;fill-rule:nonzero;fill:rgb(39.99939%,39.99939%,39.99939%);fill-opacity:0.3;" d="M 318.335938 214.992188 L 330.132812 206.8125 L 338.492188 216.089844 L 326.875 226.875 Z M 318.335938 214.992188 "/>
<g clip-path="url(#clip18)" clip-rule="nonzero">
<path style=" stroke:none;fill-rule:nonzero;fill:rgb(39.99939%,39.99939%,39.99939%);fill-opacity:0.3;" d="M 310.578125 245.390625 L 322.65625 234.652344 L 328.644531 231.214844 L 335.617188 229.0625 L 344.472656 226.894531 L 352.878906 225.804688 L 359.699219 226.445312 L 365.152344 227.945312 L 371.066406 230.953125 L 366.296875 232.898438 L 361.527344 233.121094 L 357.890625 233.125 L 353.574219 234.855469 L 325.410156 259.007812 Z M 310.578125 245.390625 "/>
</g>
<path style=" stroke:none;fill-rule:nonzero;fill:rgb(39.99939%,39.99939%,39.99939%);fill-opacity:0.3;" d="M 291.71875 259.734375 L 308.472656 245.976562 L 323.464844 259.929688 L 311.652344 273.21875 L 307.347656 273.609375 L 302.929688 275.089844 Z M 291.71875 259.734375 "/>
<path style=" stroke:none;fill-rule:nonzero;fill:rgb(39.99939%,39.99939%,39.99939%);fill-opacity:0.3;" d="M 323.613281 179.46875 L 326.609375 178.050781 L 329.296875 179.46875 L 331.765625 178.28125 L 333.710938 179.816406 L 336.421875 178.320312 L 339.234375 180.832031 L 342.03125 178.847656 L 348.238281 180.089844 L 344.191406 183.480469 L 333.34375 192.019531 Z M 323.613281 179.46875 "/>
<path style=" stroke:none;fill-rule:nonzero;fill:rgb(39.99939%,39.99939%,39.99939%);fill-opacity:0.3;" d="M 274.359375 214.769531 L 323.503906 183.429688 L 331.382812 193.597656 L 282.894531 227.546875 Z M 274.359375 214.769531 "/>
<path style=" stroke:none;fill-rule:nonzero;fill:rgb(39.99939%,39.99939%,39.99939%);fill-opacity:0.3;" d="M 280.398438 206.503906 L 280.210938 206.261719 L 318.425781 179.476562 L 319.695312 178.597656 L 322.339844 181.445312 Z M 280.398438 206.503906 "/>
<g clip-path="url(#clip19)" clip-rule="nonzero">
<path style=" stroke:none;fill-rule:nonzero;fill:rgb(39.99939%,39.99939%,39.99939%);fill-opacity:0.3;" d="M 344.957031 244.933594 L 356.796875 236.773438 L 359.941406 235.21875 L 362.8125 235.050781 L 365.488281 235.535156 L 377.222656 241.875 L 362.015625 253.960938 Z M 344.957031 244.933594 "/>
</g>
<g clip-path="url(#clip20)" clip-rule="nonzero">
<path style=" stroke:none;fill-rule:nonzero;fill:rgb(39.99939%,39.99939%,39.99939%);fill-opacity:0.3;" d="M 341.132812 247.625 L 373.40625 262.660156 L 364.421875 279.945312 L 329.390625 258.058594 Z M 341.132812 247.625 "/>
</g>
<g clip-path="url(#clip21)" clip-rule="nonzero">
<path style=" stroke:none;fill-rule:nonzero;fill:rgb(39.99939%,39.99939%,39.99939%);fill-opacity:0.3;" d="M 377.058594 185.015625 L 379.246094 200.53125 L 377.476562 207.792969 L 375.675781 216.351562 L 376.53125 229.09375 L 366.375 225.109375 L 361.335938 223.546875 L 354.175781 223.25 L 346.226562 223.671875 L 338.433594 225.613281 L 327.84375 228.75 L 373.929688 185.230469 L 375.136719 185.46875 Z M 377.058594 185.015625 "/>
</g>
<g clip-path="url(#clip22)" clip-rule="nonzero">
<path style=" stroke:none;fill-rule:nonzero;fill:rgb(39.99939%,39.99939%,39.99939%);fill-opacity:0.3;" d="M 338.636719 211.265625 L 338.984375 200.335938 L 340.570312 198.179688 L 343.070312 198.175781 L 346.023438 197.957031 L 349.65625 193.644531 L 351.917969 188.253906 L 354.636719 183.507812 L 356.339844 181.710938 L 370.214844 184.484375 L 340.824219 214.125 Z M 338.636719 211.265625 "/>
</g>
<path style=" stroke:none;fill-rule:nonzero;fill:rgb(39.99939%,39.99939%,39.99939%);fill-opacity:0.3;" d="M 277.15625 208.402344 L 277.15625 208.40625 L 277.039062 208.484375 Z M 277.15625 208.402344 "/>
<g clip-path="url(#clip23)" clip-rule="nonzero">
<path style=" stroke:none;fill-rule:nonzero;fill:rgb(39.99939%,39.99939%,39.99939%);fill-opacity:0.3;" d="M 328.15625 260.132812 L 362.976562 282.382812 L 354.625 300.144531 L 314.882812 274.769531 Z M 328.15625 260.132812 "/>
</g>
<g clip-path="url(#clip24)" clip-rule="nonzero">
<path style=" stroke:none;fill-rule:nonzero;fill:rgb(39.99939%,39.99939%,39.99939%);fill-opacity:0.3;" d="M 378.332031 266.863281 L 378.4375 263.753906 L 377.835938 261.523438 L 376.644531 260.25 L 365.152344 255.472656 L 377.679688 245.242188 L 392.445312 265.929688 L 392.675781 268.382812 L 391.886719 270.917969 L 389.421875 277.304688 L 384.054688 284.964844 L 368.179688 310.132812 L 355.820312 321.046875 L 346.5625 336.570312 L 332.382812 356.175781 L 331.289062 360.722656 L 331.296875 364.015625 L 333.492188 366.574219 L 337.273438 367.921875 L 341.074219 367.503906 L 343.675781 364.925781 L 374.546875 323.484375 L 384.675781 313.222656 L 394.640625 304.863281 L 397.714844 303.207031 L 403.582031 300.523438 L 408.246094 299.488281 L 411.96875 298.90625 L 414.941406 299.488281 L 417.203125 301.332031 L 419.875 305.902344 L 421.011719 311.734375 L 420.714844 317.183594 L 414.132812 339.949219 L 406.15625 358.539062 L 397.164062 355.417969 L 410.429688 323.875 L 410.941406 320.300781 L 410.128906 317.199219 L 407.480469 314.515625 L 405.144531 313.175781 L 403.0625 312.605469 L 400.714844 312.609375 L 397.632812 313.257812 L 392.410156 316.730469 L 387.429688 322.03125 L 366.222656 352.761719 L 345.050781 375.433594 L 342.382812 376.902344 L 337.046875 377.308594 L 330.867188 376.515625 L 325.96875 374.230469 L 311.902344 361.359375 L 341.710938 324.753906 L 361.128906 295.277344 Z M 378.332031 266.863281 "/>
</g>
<path style=" stroke:none;fill-rule:nonzero;fill:rgb(39.99939%,39.99939%,39.99939%);fill-opacity:0.3;" d="M 238.460938 308.191406 L 256.242188 308.214844 L 248.042969 318.839844 L 238.664062 309.953125 Z M 238.460938 308.191406 "/>
<path style=" stroke:none;fill-rule:nonzero;fill:rgb(39.99939%,39.99939%,39.99939%);fill-opacity:0.3;" d="M 236.601562 291.824219 L 262.136719 292.105469 L 262.648438 298.855469 L 259.054688 306.878906 L 238.316406 306.90625 Z M 236.601562 291.824219 "/>
<path style=" stroke:none;fill-rule:nonzero;fill:rgb(39.99939%,39.99939%,39.99939%);fill-opacity:0.3;" d="M 296.679688 332.535156 L 318.808594 347.226562 L 307.640625 358.972656 L 294.25 347.929688 Z M 296.679688 332.535156 "/>
<path style=" stroke:none;fill-rule:nonzero;fill:rgb(39.99939%,39.99939%,39.99939%);fill-opacity:0.3;" d="M 299.597656 313.972656 L 330.363281 333.675781 L 320.960938 345.441406 L 296.84375 329.476562 Z M 299.597656 313.972656 "/>
<path style=" stroke:none;fill-rule:nonzero;fill:rgb(39.99939%,39.99939%,39.99939%);fill-opacity:0.3;" d="M 302.523438 294.691406 L 340.777344 321.179688 L 332.679688 331.671875 L 299.371094 311.21875 Z M 302.523438 294.691406 "/>
<path style=" stroke:none;fill-rule:nonzero;fill:rgb(39.99939%,39.99939%,39.99939%);fill-opacity:0.3;" d="M 352.632812 302.957031 L 343.972656 314.359375 L 340.449219 315.753906 L 304.453125 290.644531 L 304.273438 283.0625 L 307.792969 277.257812 L 309.320312 276.363281 L 311.316406 276.136719 Z M 352.632812 302.957031 "/>
<g clip-path="url(#clip25)" clip-rule="nonzero">
<path style=" stroke:none;fill-rule:nonzero;fill:rgb(39.99939%,39.99939%,39.99939%);fill-opacity:0.3;" d="M 264.257812 337.636719 L 275.394531 337.460938 L 276.15625 337.449219 L 282.894531 325.953125 L 283.664062 281.675781 L 286.445312 260.96875 L 289.875 260.242188 L 301.609375 276.292969 L 297.640625 291.609375 L 292.636719 327.359375 L 285.597656 363.296875 L 274.796875 387.210938 L 276.578125 399.875 L 275.917969 402.808594 L 273.265625 404.28125 L 261.339844 406.515625 L 245.894531 410.195312 L 230.132812 416.460938 L 232.171875 400.140625 L 232.410156 398.53125 L 234.101562 387.765625 L 236.277344 384.835938 L 241.121094 382.003906 L 247.96875 377.171875 L 252.160156 372.136719 L 253.621094 368.851562 L 256.242188 365.355469 L 258.78125 363.324219 L 279.984375 348.832031 L 279.355469 347.746094 L 278.652344 346.527344 L 261.425781 358.707031 L 258.660156 360.40625 Z M 264.257812 337.636719 "/>
</g>
<g clip-path="url(#clip26)" clip-rule="nonzero">
<path style=" stroke:none;fill-rule:nonzero;fill:rgb(39.99939%,39.99939%,39.99939%);fill-opacity:0.3;" d="M 293.457031 352.296875 L 305.507812 360.863281 L 294.988281 384.691406 L 279.914062 385.671875 Z M 293.457031 352.296875 "/>
</g>
<path style="fill-rule:nonzero;fill:rgb(39.99939%,39.99939%,39.99939%);fill-opacity:1;stroke-width:0.03;stroke-linecap:square;stroke-linejoin:miter;stroke:rgb(39.99939%,39.99939%,39.99939%);stroke-opacity:1;stroke-miterlimit:3.239307;" d="M 373.820312 111.410156 L 374.648438 113.664062 L 370.941406 114.828125 Z M 373.820312 111.410156 " transform="matrix(1,0,0,1,-74,-13)"/>
<path style="fill-rule:nonzero;fill:rgb(39.99939%,39.99939%,39.99939%);fill-opacity:1;stroke-width:0.03;stroke-linecap:square;stroke-linejoin:miter;stroke:rgb(39.99939%,39.99939%,39.99939%);stroke-opacity:1;stroke-miterlimit:3.239307;" d="M 211.046875 176.21875 L 219.34375 190.628906 L 219.574219 195.671875 L 209.5 203.046875 L 198.003906 194.414062 Z M 211.046875 176.21875 " transform="matrix(1,0,0,1,-74,-13)"/>
<path style="fill-rule:nonzero;fill:rgb(39.99939%,39.99939%,39.99939%);fill-opacity:1;stroke-width:0.03;stroke-linecap:square;stroke-linejoin:miter;stroke:rgb(39.99939%,39.99939%,39.99939%);stroke-opacity:1;stroke-miterlimit:3.239307;" d="M 170.925781 147.386719 L 174.714844 152.40625 L 175.769531 155.785156 L 176.195312 159.367188 L 176.144531 160.027344 L 171.121094 149.136719 Z M 170.925781 147.386719 " transform="matrix(1,0,0,1,-74,-13)"/>
<path style="fill-rule:nonzero;fill:rgb(39.99939%,39.99939%,39.99939%);fill-opacity:1;stroke-width:0.03;stroke-linecap:square;stroke-linejoin:miter;stroke:rgb(39.99939%,39.99939%,39.99939%);stroke-opacity:1;stroke-miterlimit:3.239307;" d="M 179.871094 166.277344 L 191.035156 172.503906 L 172.160156 200.777344 L 171.601562 200.984375 L 177.113281 183.714844 L 177.019531 179.21875 L 177.589844 177.832031 Z M 179.871094 166.277344 " transform="matrix(1,0,0,1,-74,-13)"/>
<path style="fill-rule:nonzero;fill:rgb(39.99939%,39.99939%,39.99939%);fill-opacity:1;stroke-width:0.03;stroke-linecap:square;stroke-linejoin:miter;stroke:rgb(39.99939%,39.99939%,39.99939%);stroke-opacity:1;stroke-miterlimit:3.239307;" d="M 234.011719 131.316406 L 244.804688 151.148438 L 228.210938 159.472656 L 206.679688 120.308594 Z M 234.011719 131.316406 " transform="matrix(1,0,0,1,-74,-13)"/>
<path style="fill-rule:nonzero;fill:rgb(39.99939%,39.99939%,39.99939%);fill-opacity:1;stroke-width:0.03;stroke-linecap:square;stroke-linejoin:miter;stroke:rgb(39.99939%,39.99939%,39.99939%);stroke-opacity:1;stroke-miterlimit:3.239307;" d="M 192.402344 110.382812 L 194.132812 109.023438 L 203.855469 119.167969 L 203.957031 119.210938 L 226.902344 160.148438 L 210.449219 168.617188 L 186.171875 127.125 Z M 192.402344 110.382812 " transform="matrix(1,0,0,1,-74,-13)"/>
<path style="fill-rule:nonzero;fill:rgb(39.99939%,39.99939%,39.99939%);fill-opacity:1;stroke-width:0.03;stroke-linecap:square;stroke-linejoin:miter;stroke:rgb(39.99939%,39.99939%,39.99939%);stroke-opacity:1;stroke-miterlimit:3.239307;" d="M 184.316406 128.566406 L 207.980469 171.125 L 207.601562 173.714844 L 206.542969 176.234375 L 204.574219 179.1875 L 201.785156 175.21875 L 195.671875 164.980469 L 191.777344 170.996094 L 181.144531 165.246094 L 178.863281 163.082031 L 179.609375 159.519531 L 179.171875 154.726562 L 175.378906 148.3125 L 173.007812 145.035156 L 172.125 140.664062 L 171.765625 138.355469 L 175.730469 132.078125 Z M 184.316406 128.566406 " transform="matrix(1,0,0,1,-74,-13)"/>
<path style="fill-rule:nonzero;fill:rgb(39.99939%,39.99939%,39.99939%);fill-opacity:1;stroke-width:0.03;stroke-linecap:square;stroke-linejoin:miter;stroke:rgb(39.99939%,39.99939%,39.99939%);stroke-opacity:1;stroke-miterlimit:3.239307;" d="M 216.375 204.949219 L 223.792969 211.507812 L 218.597656 218.628906 L 210.308594 225.671875 L 202.472656 233.511719 L 196.90625 240.46875 L 196.625 238.882812 L 197.003906 235.742188 L 199.738281 226.050781 L 202.609375 220.191406 L 203.84375 219.308594 L 205.796875 218.917969 L 209.5 216.082031 L 211.242188 212.371094 L 214.527344 205.433594 L 214.988281 204.804688 L 215.40625 204.6875 Z M 216.375 204.949219 " transform="matrix(1,0,0,1,-74,-13)"/>
<path style="fill-rule:nonzero;fill:rgb(39.99939%,39.99939%,39.99939%);fill-opacity:1;stroke-width:0.03;stroke-linecap:square;stroke-linejoin:miter;stroke:rgb(39.99939%,39.99939%,39.99939%);stroke-opacity:1;stroke-miterlimit:3.239307;" d="M 180.746094 273.554688 L 166.273438 302.347656 L 136 283.089844 L 153.054688 257.992188 L 165.511719 265.582031 L 166.085938 264.707031 L 166.65625 263.828125 L 154.320312 256.207031 L 196.347656 198.054688 L 209.792969 206.714844 L 198.878906 221.308594 L 195.914062 224.78125 L 194.203125 228.558594 L 193.324219 232.816406 L 177.0625 237.550781 L 177.308594 238.273438 L 177.558594 238.992188 L 193.097656 234.429688 L 194.578125 235.5 L 195.21875 237.4375 L 194.773438 241.914062 L 192.96875 246.527344 L 188.640625 254.257812 L 188.171875 255.457031 L 185.921875 258.917969 L 183.160156 264.652344 Z M 180.746094 273.554688 " transform="matrix(1,0,0,1,-74,-13)"/>
<path style="fill-rule:nonzero;fill:rgb(39.99939%,39.99939%,39.99939%);fill-opacity:1;stroke-width:0.03;stroke-linecap:square;stroke-linejoin:miter;stroke:rgb(39.99939%,39.99939%,39.99939%);stroke-opacity:1;stroke-miterlimit:3.239307;" d="M 171.488281 206.734375 L 194.476562 175.035156 L 201.914062 182.03125 L 179.140625 214.734375 Z M 171.488281 206.734375 " transform="matrix(1,0,0,1,-74,-13)"/>
<path style="fill-rule:nonzero;fill:rgb(39.99939%,39.99939%,39.99939%);fill-opacity:1;stroke-width:0.03;stroke-linecap:square;stroke-linejoin:miter;stroke:rgb(39.99939%,39.99939%,39.99939%);stroke-opacity:1;stroke-miterlimit:3.239307;" d="M 125.429688 298.929688 L 134.570312 284.371094 L 165.164062 304.121094 L 161.078125 310.285156 L 155.484375 316.601562 L 151.496094 319.683594 L 148.066406 321.570312 L 145.714844 318.253906 L 142.871094 311.640625 Z M 125.429688 298.929688 " transform="matrix(1,0,0,1,-74,-13)"/>
<path style="fill-rule:nonzero;fill:rgb(39.99939%,39.99939%,39.99939%);fill-opacity:1;stroke-width:0.03;stroke-linecap:square;stroke-linejoin:miter;stroke:rgb(39.99939%,39.99939%,39.99939%);stroke-opacity:1;stroke-miterlimit:3.239307;" d="M 222.351562 198.578125 L 231.90625 193.902344 L 238.363281 209.671875 L 234.746094 210.457031 L 226.730469 212.683594 Z M 222.351562 198.578125 " transform="matrix(1,0,0,1,-74,-13)"/>
<path style="fill-rule:nonzero;fill:rgb(39.99939%,39.99939%,39.99939%);fill-opacity:1;stroke-width:0.03;stroke-linecap:square;stroke-linejoin:miter;stroke:rgb(39.99939%,39.99939%,39.99939%);stroke-opacity:1;stroke-miterlimit:3.239307;" d="M 233.644531 193.25 L 247.484375 186.957031 L 251.089844 206.902344 L 239.878906 209.339844 Z M 233.644531 193.25 " transform="matrix(1,0,0,1,-74,-13)"/>
<path style="fill-rule:nonzero;fill:rgb(39.99939%,39.99939%,39.99939%);fill-opacity:1;stroke-width:0.03;stroke-linecap:square;stroke-linejoin:miter;stroke:rgb(39.99939%,39.99939%,39.99939%);stroke-opacity:1;stroke-miterlimit:3.239307;" d="M 247.085938 149.988281 L 247.046875 150.007812 L 246.355469 148.722656 Z M 247.085938 149.988281 " transform="matrix(1,0,0,1,-74,-13)"/>
<path style="fill-rule:nonzero;fill:rgb(39.99939%,39.99939%,39.99939%);fill-opacity:1;stroke-width:0.03;stroke-linecap:square;stroke-linejoin:miter;stroke:rgb(39.99939%,39.99939%,39.99939%);stroke-opacity:1;stroke-miterlimit:3.239307;" d="M 211.835938 171.507812 L 228.683594 162.835938 L 241.570312 185.703125 L 224.433594 193.738281 Z M 211.835938 171.507812 " transform="matrix(1,0,0,1,-74,-13)"/>
<path style="fill-rule:nonzero;fill:rgb(39.99939%,39.99939%,39.99939%);fill-opacity:1;stroke-width:0.03;stroke-linecap:square;stroke-linejoin:miter;stroke:rgb(39.99939%,39.99939%,39.99939%);stroke-opacity:1;stroke-miterlimit:3.239307;" d="M 230.628906 161.953125 L 246.449219 153.910156 L 259.1875 176.714844 L 243.101562 184.730469 Z M 230.628906 161.953125 " transform="matrix(1,0,0,1,-74,-13)"/>
<path style="fill-rule:nonzero;fill:rgb(39.99939%,39.99939%,39.99939%);fill-opacity:1;stroke-width:0.03;stroke-linecap:square;stroke-linejoin:miter;stroke:rgb(39.99939%,39.99939%,39.99939%);stroke-opacity:1;stroke-miterlimit:3.239307;" d="M 248.574219 186.222656 L 261.339844 181.113281 L 266.003906 203.882812 L 265.175781 204.003906 L 255.953125 205.847656 L 252.320312 206.636719 Z M 248.574219 186.222656 " transform="matrix(1,0,0,1,-74,-13)"/>
<path style="fill-rule:nonzero;fill:rgb(39.99939%,39.99939%,39.99939%);fill-opacity:1;stroke-width:0.03;stroke-linecap:square;stroke-linejoin:miter;stroke:rgb(39.99939%,39.99939%,39.99939%);stroke-opacity:1;stroke-miterlimit:3.239307;" d="M 284.0625 173.5 L 299.800781 163.074219 L 304.632812 185.714844 L 302.492188 187.539062 L 288.230469 194.980469 Z M 284.0625 173.5 " transform="matrix(1,0,0,1,-74,-13)"/>
<path style="fill-rule:nonzero;fill:rgb(39.99939%,39.99939%,39.99939%);fill-opacity:1;stroke-width:0.03;stroke-linecap:square;stroke-linejoin:miter;stroke:rgb(39.99939%,39.99939%,39.99939%);stroke-opacity:1;stroke-miterlimit:3.239307;" d="M 248.546875 152.84375 L 248.648438 152.792969 L 250.703125 156.523438 Z M 248.546875 152.84375 " transform="matrix(1,0,0,1,-74,-13)"/>
<path style="fill-rule:nonzero;fill:rgb(39.99939%,39.99939%,39.99939%);fill-opacity:1;stroke-width:0.03;stroke-linecap:square;stroke-linejoin:miter;stroke:rgb(39.99939%,39.99939%,39.99939%);stroke-opacity:1;stroke-miterlimit:3.239307;" d="M 263.066406 175.910156 L 262.253906 176.226562 L 259.480469 171.492188 Z M 263.066406 175.910156 " transform="matrix(1,0,0,1,-74,-13)"/>
<path style="fill-rule:nonzero;fill:rgb(39.99939%,39.99939%,39.99939%);fill-opacity:1;stroke-width:0.03;stroke-linecap:square;stroke-linejoin:miter;stroke:rgb(39.99939%,39.99939%,39.99939%);stroke-opacity:1;stroke-miterlimit:3.239307;" d="M 263.738281 181.554688 L 264.398438 179.273438 L 272.160156 176.210938 L 281.09375 174.300781 L 286.484375 195.890625 L 276.238281 201.234375 L 271.628906 203.082031 L 268.179688 203.574219 Z M 263.738281 181.554688 " transform="matrix(1,0,0,1,-74,-13)"/>
<path style="fill-rule:nonzero;fill:rgb(39.99939%,39.99939%,39.99939%);fill-opacity:1;stroke-width:0.03;stroke-linecap:square;stroke-linejoin:miter;stroke:rgb(39.99939%,39.99939%,39.99939%);stroke-opacity:1;stroke-miterlimit:3.239307;" d="M 377.566406 117.789062 L 377.773438 117.777344 L 378.75 122.183594 Z M 377.566406 117.789062 " transform="matrix(1,0,0,1,-74,-13)"/>
<path style="fill-rule:nonzero;fill:rgb(39.99939%,39.99939%,39.99939%);fill-opacity:1;stroke-width:0.03;stroke-linecap:square;stroke-linejoin:miter;stroke:rgb(39.99939%,39.99939%,39.99939%);stroke-opacity:1;stroke-miterlimit:3.239307;" d="M 302.433594 158.113281 L 316.867188 145.917969 L 326.570312 170.703125 L 321.03125 174.46875 L 319.996094 171.164062 L 317.304688 172.539062 L 315.085938 173.800781 L 315.996094 177.148438 L 310.351562 181.460938 L 308.277344 181.039062 L 307.089844 179.917969 Z M 302.433594 158.113281 " transform="matrix(1,0,0,1,-74,-13)"/>
<path style="fill-rule:nonzero;fill:rgb(39.99939%,39.99939%,39.99939%);fill-opacity:1;stroke-width:0.03;stroke-linecap:square;stroke-linejoin:miter;stroke:rgb(39.99939%,39.99939%,39.99939%);stroke-opacity:1;stroke-miterlimit:3.239307;" d="M 337.972656 130.734375 L 355.8125 122.851562 L 362.53125 147.914062 L 360.425781 148.585938 L 357.847656 149.136719 L 352.3125 150.980469 L 351.347656 151.464844 L 344.839844 153.53125 L 341.792969 143.898438 Z M 337.972656 130.734375 " transform="matrix(1,0,0,1,-74,-13)"/>
<path style="fill-rule:nonzero;fill:rgb(39.99939%,39.99939%,39.99939%);fill-opacity:1;stroke-width:0.03;stroke-linecap:square;stroke-linejoin:miter;stroke:rgb(39.99939%,39.99939%,39.99939%);stroke-opacity:1;stroke-miterlimit:3.239307;" d="M 319.824219 143.238281 L 334.582031 133.839844 L 342.421875 154.65625 L 328.46875 167.167969 Z M 319.824219 143.238281 " transform="matrix(1,0,0,1,-74,-13)"/>
<path style="fill-rule:nonzero;fill:rgb(39.99939%,39.99939%,39.99939%);fill-opacity:1;stroke-width:0.03;stroke-linecap:square;stroke-linejoin:miter;stroke:rgb(39.99939%,39.99939%,39.99939%);stroke-opacity:1;stroke-miterlimit:3.239307;" d="M 357.632812 121.640625 L 375.6875 117.707031 L 382.570312 144.1875 L 371.179688 146.410156 L 364.863281 147.097656 Z M 357.632812 121.640625 " transform="matrix(1,0,0,1,-74,-13)"/>
<path style="fill-rule:nonzero;fill:rgb(99.998474%,99.998474%,30.587769%);fill-opacity:0.8;stroke-width:0.288;stroke-linecap:square;stroke-linejoin:miter;stroke:rgb(0%,0%,0%);stroke-opacity:0.8;stroke-miterlimit:3.25;" d="M 371.21875 257.023438 L 331.289062 326.183594 L 411.144531 326.183594 Z M 371.21875 257.023438 " transform="matrix(1,0,0,1,-74,-13)"/>
</g>
</svg>
