<?xml version="1.0" encoding="UTF-8"?>
<svg xmlns="http://www.w3.org/2000/svg" xmlns:xlink="http://www.w3.org/1999/xlink" width="361pt" height="361pt" viewBox="0 0 361 361" version="1.1">
<defs>
<clipPath id="clip1">
  <path d="M 356 0 L 360 0 L 360 12 L 356 12 Z M 356 0 "/>
</clipPath>
<clipPath id="clip2">
  <path d="M 261 282 L 360 282 L 360 360 L 261 360 Z M 261 282 "/>
</clipPath>
<clipPath id="clip3">
  <path d="M 315 311 L 360 311 L 360 360 L 315 360 Z M 315 311 "/>
</clipPath>
<clipPath id="clip4">
  <path d="M 354 54 L 360 54 L 360 56 L 354 56 Z M 354 54 "/>
</clipPath>
<clipPath id="clip5">
  <path d="M 332 115 L 360 115 L 360 142 L 332 142 Z M 332 115 "/>
</clipPath>
<clipPath id="clip6">
  <path d="M 331 139 L 360 139 L 360 168 L 331 168 Z M 331 139 "/>
</clipPath>
<clipPath id="clip7">
  <path d="M 0 324 L 292 324 L 292 360 L 0 360 Z M 0 324 "/>
</clipPath>
<clipPath id="clip8">
  <path d="M 0 271 L 96 271 L 96 360 L 0 360 Z M 0 271 "/>
</clipPath>
<clipPath id="clip9">
  <path d="M 352 37 L 360 37 L 360 56 L 352 56 Z M 352 37 "/>
</clipPath>
<clipPath id="clip10">
  <path d="M 345 31 L 360 31 L 360 47 L 345 47 Z M 345 31 "/>
</clipPath>
<clipPath id="clip11">
  <path d="M 16 207 L 297 207 L 297 360 L 16 360 Z M 16 207 "/>
</clipPath>
<clipPath id="clip12">
  <path d="M 297 274 L 360 274 L 360 360 L 297 360 Z M 297 274 "/>
</clipPath>
<clipPath id="clip13">
  <path d="M 328 168 L 360 168 L 360 196 L 328 196 Z M 328 168 "/>
</clipPath>
<clipPath id="clip14">
  <path d="M 328 192 L 360 192 L 360 222 L 328 222 Z M 328 192 "/>
</clipPath>
<clipPath id="clip15">
  <path d="M 302 243 L 360 243 L 360 288 L 302 288 Z M 302 243 "/>
</clipPath>
<clipPath id="clip16">
  <path d="M 306 201 L 360 201 L 360 236 L 306 236 Z M 306 201 "/>
</clipPath>
<clipPath id="clip17">
  <path d="M 335 236 L 360 236 L 360 255 L 335 255 Z M 335 236 "/>
</clipPath>
<clipPath id="clip18">
  <path d="M 300 269 L 360 269 L 360 336 L 300 336 Z M 300 269 "/>
</clipPath>
</defs>
<g id="surface8890">
<path style="fill-rule:nonzero;fill:rgb(0%,0%,0%);fill-opacity:1;stroke-width:0.03;stroke-linecap:square;stroke-linejoin:miter;stroke:rgb(0%,0%,0%);stroke-opacity:1;stroke-miterlimit:10;" d="M 0 178 L 360 178 L 360 -182 L 0 -182 Z M 0 178 " transform="matrix(1,0,0,1,0,182)"/>
<path style=" stroke:none;fill-rule:nonzero;fill:rgb(39.99939%,39.99939%,39.99939%);fill-opacity:0.3;" d="M 49.648438 -9.394531 L 50.375 -9.125 L 51.046875 -8.746094 L 52 -7.914062 L 52.453125 -7.3125 L 52.800781 -6.648438 L 53.035156 -5.945312 L 53.148438 -5.210938 L 53.152344 -4.648438 L 53.050781 -3.914062 L 52.832031 -3.207031 L 52.496094 -2.539062 L 51.886719 -1.738281 L 51.195312 -1.132812 L -24.839844 25.410156 L -41.121094 5.941406 L 2.53125 -10.441406 Z M 49.648438 -9.394531 "/>
<path style=" stroke:none;fill-rule:nonzero;fill:rgb(39.99939%,39.99939%,39.99939%);fill-opacity:0.3;" d="M 64.183594 -4.375 L 71.984375 -5.246094 L 78.820312 -5.023438 L 85.511719 -4.398438 L 91.773438 -4.535156 L 97.765625 -5.058594 L 103.890625 -6.613281 L 111.238281 -9.074219 L 116.679688 -11.535156 L 127.023438 -17.480469 L 149.882812 -29.25 L 140.46875 -9.957031 L 129.097656 -3.867188 L 122.421875 -0.605469 L 117.539062 1.546875 L 112.871094 3.386719 L 106.890625 5.386719 L 102.21875 6.632812 L 96.722656 7.691406 L 93.003906 8.140625 L 87.40625 8.421875 L 77.710938 8.09375 L 67.523438 7.128906 Z M 64.183594 -4.375 "/>
<path style=" stroke:none;fill-rule:nonzero;fill:rgb(39.99939%,39.99939%,39.99939%);fill-opacity:0.3;" d="M 71.054688 9.53125 L 78.515625 10.136719 L 83.21875 10.378906 L 89.457031 10.378906 L 95.042969 9.957031 L 100.15625 9.136719 L 107.78125 7.199219 L 119.117188 2.988281 L 127.570312 -0.964844 L 139.238281 -7.140625 L 133.421875 1.472656 L 127.933594 8.4375 L 123.792969 12.601562 L 119.855469 15.960938 L 116.230469 18.710938 L 112.09375 21.605469 L 107.4375 24.542969 L 105.363281 23.828125 L 103.582031 23.253906 L 99.878906 22.269531 L 96.039062 21.636719 L 90.304688 21.28125 L 85.972656 21.304688 L 81.929688 21.480469 L 76.378906 22.109375 L 69.585938 23.753906 L 66.292969 24.863281 L 61.882812 26.535156 L 57.21875 14.445312 Z M 71.054688 9.53125 "/>
<path style=" stroke:none;fill-rule:nonzero;fill:rgb(39.99939%,39.99939%,39.99939%);fill-opacity:0.3;" d="M -15.972656 93.300781 L -17.546875 85.390625 L -19.269531 69.820312 L -20.46875 64.273438 L -21.558594 60.0625 L -20.480469 56.773438 L -14.957031 55.53125 L 30.332031 40.050781 L 54.792969 31.335938 L 59.363281 29.859375 L 65.027344 27.597656 L 70.59375 25.695312 L 75.148438 24.546875 L 80.351562 23.785156 L 84.390625 23.511719 L 89.507812 23.417969 L 92.945312 23.503906 L 97.128906 23.878906 L 99.789062 24.320312 L 100.511719 24.742188 L 101.398438 25.960938 L 101.03125 27.832031 L 100.28125 29.371094 L 99.433594 30.820312 L 98.578125 32.0625 L 97.320312 33.597656 L 94.882812 35.894531 L 93.046875 37.210938 L 90.695312 38.617188 L 88.464844 39.644531 L 11.433594 69.035156 L 8.28125 70.449219 L 5.628906 72.082031 L 3.378906 74.042969 L 0.949219 76.734375 L -2.566406 81.0625 L -5.34375 84.535156 L -7.417969 86.96875 L -9.667969 89.148438 L -12.40625 90.953125 L -14.152344 92.53125 Z M -15.972656 93.300781 "/>
<path style=" stroke:none;fill-rule:nonzero;fill:rgb(39.99939%,39.99939%,39.99939%);fill-opacity:0.3;" d="M 54.757812 15.316406 L 59.324219 27.582031 L -17.351562 54.796875 L -20.9375 42.113281 Z M 54.757812 15.316406 "/>
<path style=" stroke:none;fill-rule:nonzero;fill:rgb(39.99939%,39.99939%,39.99939%);fill-opacity:0.3;" d="M 61.367188 -3.25 L 65.515625 9.035156 L 14.789062 27.042969 L 9.554688 15.140625 Z M 61.367188 -3.25 "/>
<path style=" stroke:none;fill-rule:nonzero;fill:rgb(39.99939%,39.99939%,39.99939%);fill-opacity:0.3;" d="M -55.523438 -7.863281 L -30.933594 -16.128906 L -18.914062 -19.945312 L -2.625 -26.964844 L 2.457031 -29.03125 L 4.671875 -29.847656 L 6.230469 -30.121094 L 7.050781 -29.890625 L 7.828125 -29.113281 L 8.890625 -27.695312 L 9.234375 -25.980469 L 9.179688 -23.371094 L 8.878906 -20.820312 L 8.632812 -18.863281 L 8.246094 -17.394531 L 7.609375 -16.285156 L 6.441406 -15.246094 L 4.539062 -14.265625 L 1.746094 -13.292969 L -2.867188 -11.441406 L -43.207031 3.476562 Z M -55.523438 -7.863281 "/>
<path style=" stroke:none;fill-rule:nonzero;fill:rgb(39.99939%,39.99939%,39.99939%);fill-opacity:0.3;" d="M 7.53125 15.859375 L 12.855469 27.726562 L -21.332031 39.863281 L -24.523438 27.777344 Z M 7.53125 15.859375 "/>
<g clip-path="url(#clip1)" clip-rule="nonzero">
<path style=" stroke:none;fill-rule:nonzero;fill:rgb(39.99939%,39.99939%,39.99939%);fill-opacity:0.3;" d="M 377.757812 -4.054688 L 387.621094 -4.253906 L 387.65625 -6.410156 L 403.65625 -6.351562 L 407.695312 -7.332031 L 408.816406 -8.523438 L 410.988281 -13.320312 L 411.195312 -22.066406 L 435.6875 -19.019531 L 435.285156 -5.644531 L 435.121094 -3.035156 L 434.589844 -1.484375 L 433.699219 -0.410156 L 432.507812 0.664062 L 431.113281 1.625 L 429.621094 2.269531 L 428.25 2.558594 L 426.351562 2.816406 L 424.546875 3.011719 L 423.105469 3.300781 L 421.636719 3.289062 L 418.25 3.582031 L 416.347656 3.8125 L 414.296875 4.183594 L 412.445312 4.832031 L 410.414062 5.722656 L 407.984375 6.480469 L 404.796875 7.140625 L 399.507812 8.300781 L 395.09375 9.015625 L 389.039062 9.875 L 371.21875 11.21875 L 366.105469 11.195312 L 363.191406 10.996094 L 360.710938 10.628906 L 358.785156 9.527344 L 357.488281 7.820312 L 356.753906 6.542969 L 356.683594 4.527344 L 357.210938 2.390625 L 360.398438 -0.101562 L 366.386719 -1.734375 Z M 377.757812 -4.054688 "/>
</g>
<g clip-path="url(#clip2)" clip-rule="nonzero">
<path style=" stroke:none;fill-rule:nonzero;fill:rgb(39.99939%,39.99939%,39.99939%);fill-opacity:0.3;" d="M 301.476562 472.742188 L 312.566406 465.253906 L 327.183594 452.929688 L 333.578125 445.464844 L 337.183594 438.972656 L 340.722656 430.183594 L 344.105469 419.34375 L 347.582031 407.847656 L 348.828125 404.371094 L 350.519531 401.125 L 352.527344 398.328125 L 355.976562 395.640625 L 360.433594 392.589844 L 372.476562 385.167969 L 379.726562 380.148438 L 384.28125 376.703125 L 389.980469 372.566406 L 395.855469 368.160156 L 403.566406 358.015625 L 410.316406 348.546875 L 414.90625 338.621094 L 420.003906 327.882812 L 438.953125 282.351562 L 454.667969 296.167969 L 462.503906 303.0625 L 467.78125 307.703125 L 467.5 308.101562 L 461.304688 313.308594 L 455.191406 323.789062 L 453.625 328.582031 L 452.546875 330.921875 L 447.933594 340.808594 L 442.332031 357.613281 L 439.492188 361.777344 L 427.402344 377.25 L 424.867188 380.347656 L 422.605469 383.144531 L 412.792969 393.984375 L 405.019531 401.175781 L 388.3125 400.460938 L 374.042969 394.261719 L 370.554688 400.804688 L 372.671875 401.320312 L 372.765625 401.34375 L 374.980469 401.886719 L 377.484375 397.476562 L 387.960938 401.804688 L 403.636719 402.195312 L 403.082031 402.582031 L 401.140625 403.746094 L 381.371094 416.597656 L 380.382812 419.234375 L 378.699219 423.058594 L 378.558594 423.335938 L 377.175781 426.25 L 374.5 430.660156 L 363.246094 447.242188 L 350.5625 457.390625 L 290.695312 495.578125 L 264.59375 510.828125 L 261.550781 500.167969 L 282.921875 485.335938 L 295.988281 476.519531 Z M 301.476562 472.742188 "/>
</g>
<g clip-path="url(#clip3)" clip-rule="nonzero">
<path style=" stroke:none;fill-rule:nonzero;fill:rgb(39.99939%,39.99939%,39.99939%);fill-opacity:0.3;" d="M 468.980469 311.507812 L 473.128906 319.175781 L 481.132812 331.914062 L 487.222656 340.566406 L 494.152344 348.1875 L 500.542969 354.40625 L 495.179688 379.355469 L 468.105469 371.363281 L 466.222656 371.3125 L 464.859375 371.429688 L 463.285156 371.878906 L 461.542969 372.757812 L 460.519531 373.691406 L 459.601562 374.683594 L 458.589844 376.128906 L 457.855469 377.578125 L 456.957031 380.289062 L 456.363281 383.136719 L 455.84375 385.960938 L 455.257812 388.316406 L 454.410156 390.558594 L 453.597656 392.128906 L 452.050781 394.507812 L 450.199219 396.832031 L 447.546875 399.691406 L 445.273438 401.949219 L 434.503906 393.667969 L 433.886719 394.40625 L 433.265625 395.140625 L 443.71875 403.070312 L 414.273438 434.757812 L 411.035156 439.9375 L 408.488281 445.730469 L 405.730469 449.347656 L 397.144531 452.355469 L 390.242188 453.582031 L 380.710938 455.335938 L 372.578125 455.800781 L 366.640625 456.765625 L 355.742188 461.90625 L 343.753906 467.996094 L 338.667969 472.414062 L 336.390625 475.996094 L 336.703125 481.648438 L 339.273438 488.34375 L 339.074219 491.035156 L 338.632812 492.882812 L 337.5625 494.761719 L 336.652344 495.71875 L 335.132812 496.558594 L 333.5 497.117188 L 331.695312 497.414062 L 328.195312 497.527344 L 326.234375 497.636719 L 323.992188 497.558594 L 315.496094 481.972656 L 363.988281 451.113281 L 368.140625 445.355469 L 381.214844 422.511719 L 382.171875 421.027344 L 383.105469 419.757812 L 384.097656 418.546875 L 385.152344 417.410156 L 386.257812 416.371094 L 387.109375 415.671875 L 388.394531 414.75 L 393.089844 411.53125 L 397.875 408.414062 L 402.949219 404.960938 L 407.558594 402.550781 L 411.632812 399.507812 L 415.128906 396.605469 L 417.890625 393.703125 L 421.238281 389.554688 L 424.730469 385.683594 L 431.464844 378.394531 L 441.5 365.285156 L 447.171875 357.546875 L 454.085938 337.894531 L 456.105469 330.84375 L 460.152344 321.710938 L 462.859375 317.65625 Z M 468.980469 311.507812 "/>
</g>
<path style=" stroke:none;fill-rule:nonzero;fill:rgb(39.99939%,39.99939%,39.99939%);fill-opacity:0.3;" d="M 279.945312 71.382812 L 290.722656 71.300781 L 291.996094 97.585938 L 292.632812 114.476562 L 279.195312 115.09375 L 278.125 76.714844 L 251.023438 76.476562 L 250.847656 71.859375 Z M 279.945312 71.382812 "/>
<path style=" stroke:none;fill-rule:nonzero;fill:rgb(39.99939%,39.99939%,39.99939%);fill-opacity:0.3;" d="M 279.945312 71.382812 L 274.414062 61.636719 L 273.777344 59.15625 L 277.800781 57.773438 L 280.644531 56.582031 L 283.371094 56.039062 L 285.90625 55.855469 L 288.507812 55.972656 L 291.238281 56.75 L 294.980469 58.609375 L 294.886719 59.925781 L 287.527344 60.152344 L 279.183594 61.382812 L 279.730469 62.492188 L 280.246094 63.542969 L 290.03125 62.019531 L 290.808594 66.355469 L 290.722656 71.300781 Z M 279.945312 71.382812 "/>
<path style=" stroke:none;fill-rule:nonzero;fill:rgb(39.99939%,39.99939%,39.99939%);fill-opacity:0.3;" d="M 294.238281 62.234375 L 298.714844 62.585938 L 301.5625 62.308594 L 304.125 62.011719 L 306.664062 61.621094 L 309.601562 61.003906 L 311.808594 60.371094 L 314.140625 59.480469 L 316.453125 58.253906 L 318.292969 56.894531 L 308.679688 95.984375 L 295.015625 96.109375 L 294.601562 78.039062 Z M 294.238281 62.234375 "/>
<path style=" stroke:none;fill-rule:nonzero;fill:rgb(39.99939%,39.99939%,39.99939%);fill-opacity:0.3;" d="M 250.8125 78.679688 L 276.257812 78.835938 L 277.113281 115.1875 L 252.550781 116.3125 Z M 250.8125 78.679688 "/>
<g clip-path="url(#clip4)" clip-rule="nonzero">
<path style=" stroke:none;fill-rule:nonzero;fill:rgb(39.99939%,39.99939%,39.99939%);fill-opacity:0.3;" d="M 368.1875 54.792969 L 368.59375 55.753906 L 354.875 55.96875 L 354.542969 55.117188 L 357.976562 55.117188 Z M 368.1875 54.792969 "/>
</g>
<path style=" stroke:none;fill-rule:nonzero;fill:rgb(39.99939%,39.99939%,39.99939%);fill-opacity:0.3;" d="M 318.804688 105.882812 L 321.667969 99.070312 L 358.324219 98.902344 L 358.660156 114.488281 L 318.832031 115.550781 Z M 318.804688 105.882812 "/>
<path style=" stroke:none;fill-rule:nonzero;fill:rgb(39.99939%,39.99939%,39.99939%);fill-opacity:0.3;" d="M 353.277344 55.117188 L 353.597656 55.957031 L 342.695312 56.125 L 342.648438 55.117188 Z M 353.277344 55.117188 "/>
<path style=" stroke:none;fill-rule:nonzero;fill:rgb(39.99939%,39.99939%,39.99939%);fill-opacity:0.3;" d="M 341.039062 55.117188 L 341.066406 56.179688 L 331.722656 56.175781 L 332.085938 55.117188 Z M 341.039062 55.117188 "/>
<path style=" stroke:none;fill-rule:nonzero;fill:rgb(39.99939%,39.99939%,39.99939%);fill-opacity:0.3;" d="M 357.695312 95.546875 L 338.476562 95.71875 L 337.988281 58 L 357.6875 57.703125 Z M 357.695312 95.546875 "/>
<path style=" stroke:none;fill-rule:nonzero;fill:rgb(39.99939%,39.99939%,39.99939%);fill-opacity:0.3;" d="M 331.085938 57.386719 L 334.980469 57.511719 L 335.113281 95.714844 L 320.839844 96.3125 L 323.820312 77.640625 Z M 331.085938 57.386719 "/>
<path style=" stroke:none;fill-rule:nonzero;fill:rgb(39.99939%,39.99939%,39.99939%);fill-opacity:0.3;" d="M 317.097656 53.929688 L 315.902344 54.839844 L 312.179688 57.015625 L 309.125 58.394531 L 306.636719 58.933594 L 304.265625 59.355469 L 301.003906 58.742188 L 293.46875 54.921875 L 291.851562 54.378906 L 289.949219 53.871094 L 288.109375 53.742188 L 286.277344 53.847656 L 284.121094 53.851562 L 280.578125 54.53125 L 272.769531 57.195312 L 271.621094 57.300781 L 269.96875 57.199219 L 268.121094 56.933594 L 266.539062 56.390625 L 262.1875 53.976562 L 260.269531 53.359375 L 258.292969 53.125 L 255.992188 53.089844 L 253.910156 53.296875 L 251.757812 53.847656 L 249.894531 54.5 L 249.894531 46.878906 L 277.242188 49.515625 L 291.742188 51.820312 L 299.320312 52.480469 L 306.570312 56.433594 L 315.46875 53.796875 Z M 317.097656 53.929688 "/>
<path style=" stroke:none;fill-rule:nonzero;fill:rgb(39.99939%,39.99939%,39.99939%);fill-opacity:0.3;" d="M 308.570312 119.03125 L 310.765625 119.007812 L 307.898438 161.535156 L 305.941406 161.414062 Z M 308.570312 119.03125 "/>
<g clip-path="url(#clip5)" clip-rule="nonzero">
<path style=" stroke:none;fill-rule:nonzero;fill:rgb(39.99939%,39.99939%,39.99939%);fill-opacity:0.3;" d="M 333.617188 118.199219 L 423.445312 115.730469 L 423.023438 141.34375 L 332.589844 136.28125 Z M 333.617188 118.199219 "/>
</g>
<path style=" stroke:none;fill-rule:nonzero;fill:rgb(39.99939%,39.99939%,39.99939%);fill-opacity:0.3;" d="M 316.15625 118.242188 L 330.117188 118.714844 L 327.898438 162.488281 L 325.617188 162.441406 L 313.246094 161.535156 Z M 316.15625 118.242188 "/>
<path style=" stroke:none;fill-rule:nonzero;fill:rgb(39.99939%,39.99939%,39.99939%);fill-opacity:0.3;" d="M 295.382812 99.148438 L 308.40625 99.300781 L 308.199219 114.113281 L 295.570312 114.386719 Z M 295.382812 99.148438 "/>
<g clip-path="url(#clip6)" clip-rule="nonzero">
<path style=" stroke:none;fill-rule:nonzero;fill:rgb(39.99939%,39.99939%,39.99939%);fill-opacity:0.3;" d="M 332.597656 139.765625 L 423.269531 145.96875 L 422.683594 157.101562 L 422.464844 161.226562 L 422.128906 167.582031 L 340.898438 163.316406 L 331.574219 162.632812 Z M 332.597656 139.765625 "/>
</g>
<path style=" stroke:none;fill-rule:nonzero;fill:rgb(39.99939%,39.99939%,39.99939%);fill-opacity:0.3;" d="M 292.632812 114.476562 L 292.710938 116.578125 L 279.238281 116.664062 L 279.195312 115.09375 Z M 292.632812 114.476562 "/>
<path style=" stroke:none;fill-rule:nonzero;fill:rgb(39.99939%,39.99939%,39.99939%);fill-opacity:0.3;" d="M 212.53125 120.03125 L 204.660156 124.082031 L 197.460938 128.335938 L 189.496094 133.199219 L 185.445312 135.773438 L 186.625 134.859375 L 206.726562 122.667969 L 211.667969 120.359375 Z M 212.53125 120.03125 "/>
<path style=" stroke:none;fill-rule:nonzero;fill:rgb(39.99939%,39.99939%,39.99939%);fill-opacity:0.3;" d="M 142.988281 153.257812 L 137.3125 155.238281 L 137.164062 154.921875 Z M 142.988281 153.257812 "/>
<path style=" stroke:none;fill-rule:nonzero;fill:rgb(39.99939%,39.99939%,39.99939%);fill-opacity:0.3;" d="M 277.113281 115.1875 L 277.148438 116.667969 L 252.554688 116.332031 L 252.550781 116.3125 Z M 277.113281 115.1875 "/>
<path style=" stroke:none;fill-rule:nonzero;fill:rgb(39.99939%,39.99939%,39.99939%);fill-opacity:0.3;" d="M 184.5 146.433594 L 184.375 153.378906 L 184.058594 170.84375 L 166.875 173.019531 L 168.238281 148.589844 L 171.597656 147.527344 L 177.0625 146.546875 Z M 184.5 146.433594 "/>
<path style=" stroke:none;fill-rule:nonzero;fill:rgb(39.99939%,39.99939%,39.99939%);fill-opacity:0.3;" d="M 165.054688 150.546875 L 164.09375 173.425781 L 146.953125 175.644531 L 147.457031 155.714844 L 154.007812 153.753906 Z M 165.054688 150.546875 "/>
<path style=" stroke:none;fill-rule:nonzero;fill:rgb(39.99939%,39.99939%,39.99939%);fill-opacity:0.3;" d="M 186.199219 172.667969 L 202.371094 170.589844 L 200.804688 191.160156 L 184.640625 193.464844 Z M 186.199219 172.667969 "/>
<path style=" stroke:none;fill-rule:nonzero;fill:rgb(39.99939%,39.99939%,39.99939%);fill-opacity:0.3;" d="M 186.75 146.105469 L 194.890625 147.230469 L 203.253906 149.839844 L 202.773438 168.136719 L 186.28125 170.558594 Z M 186.75 146.105469 "/>
<path style=" stroke:none;fill-rule:nonzero;fill:rgb(39.99939%,39.99939%,39.99939%);fill-opacity:0.3;" d="M 160.671875 223.710938 L 157.976562 247.019531 L 141.71875 249.3125 L 143.601562 225.625 Z M 160.671875 223.710938 "/>
<path style=" stroke:none;fill-rule:nonzero;fill:rgb(39.99939%,39.99939%,39.99939%);fill-opacity:0.3;" d="M 180.050781 221.339844 L 179.289062 244.714844 L 161.03125 246.738281 L 163.484375 223.382812 Z M 180.050781 221.339844 "/>
<path style=" stroke:none;fill-rule:nonzero;fill:rgb(39.99939%,39.99939%,39.99939%);fill-opacity:0.3;" d="M 181.445312 196.90625 L 180.382812 218.96875 L 163.863281 221.230469 L 164.4375 199.296875 Z M 181.445312 196.90625 "/>
<path style=" stroke:none;fill-rule:nonzero;fill:rgb(39.99939%,39.99939%,39.99939%);fill-opacity:0.3;" d="M 161.800781 199.71875 L 161.328125 221.429688 L 143.757812 223.347656 L 145.039062 202.136719 Z M 161.800781 199.71875 "/>
<path style=" stroke:none;fill-rule:nonzero;fill:rgb(39.99939%,39.99939%,39.99939%);fill-opacity:0.3;" d="M 198.542969 219.171875 L 197.019531 243.085938 L 181.546875 244.507812 L 182.417969 221.125 Z M 198.542969 219.171875 "/>
<path style=" stroke:none;fill-rule:nonzero;fill:rgb(39.99939%,39.99939%,39.99939%);fill-opacity:0.3;" d="M 184.300781 196.53125 L 200.601562 194.167969 L 198.863281 216.746094 L 182.835938 218.875 Z M 184.300781 196.53125 "/>
<path style=" stroke:none;fill-rule:nonzero;fill:rgb(39.99939%,39.99939%,39.99939%);fill-opacity:0.3;" d="M 105.921875 182.847656 L 104.925781 204.425781 L 90.101562 206.511719 L 89.710938 185.015625 Z M 105.921875 182.847656 "/>
<path style=" stroke:none;fill-rule:nonzero;fill:rgb(39.99939%,39.99939%,39.99939%);fill-opacity:0.3;" d="M 125.585938 180.460938 L 124.015625 201.808594 L 107.835938 203.96875 L 108.53125 182.519531 Z M 125.585938 180.460938 "/>
<path style=" stroke:none;fill-rule:nonzero;fill:rgb(39.99939%,39.99939%,39.99939%);fill-opacity:0.3;" d="M 125.632812 164.382812 L 125.96875 178.269531 L 108.582031 180.5625 L 108.023438 175.1875 L 108.039062 173.691406 L 110.421875 171.761719 L 120.234375 166.226562 Z M 125.632812 164.382812 "/>
<path style=" stroke:none;fill-rule:nonzero;fill:rgb(39.99939%,39.99939%,39.99939%);fill-opacity:0.3;" d="M 105.710938 174.757812 L 105.878906 181.023438 L 93.640625 182.578125 L 93.359375 180.628906 Z M 105.710938 174.757812 "/>
<path style=" stroke:none;fill-rule:nonzero;fill:rgb(39.99939%,39.99939%,39.99939%);fill-opacity:0.3;" d="M 127.917969 180.09375 L 144.003906 178.039062 L 142.765625 199.191406 L 126.496094 201.453125 Z M 127.917969 180.09375 "/>
<path style=" stroke:none;fill-rule:nonzero;fill:rgb(39.99939%,39.99939%,39.99939%);fill-opacity:0.3;" d="M 144.457031 156.207031 L 144.175781 176.011719 L 128.023438 177.984375 L 128.125 163.101562 L 136.113281 159.210938 Z M 144.457031 156.207031 "/>
<path style=" stroke:none;fill-rule:nonzero;fill:rgb(39.99939%,39.99939%,39.99939%);fill-opacity:0.3;" d="M 86.378906 186.511719 L 86.890625 206.960938 L 64.015625 209.984375 L 62.914062 209.761719 L 56.242188 201.679688 L 61.292969 197.945312 L 68.03125 194.03125 L 76.828125 189.941406 L 81.507812 187.625 Z M 86.378906 186.511719 "/>
<path style=" stroke:none;fill-rule:nonzero;fill:rgb(39.99939%,39.99939%,39.99939%);fill-opacity:0.3;" d="M 122.53125 227.9375 L 122.34375 250.523438 L 104.921875 252.105469 L 106.546875 229.238281 Z M 122.53125 227.9375 "/>
<path style=" stroke:none;fill-rule:nonzero;fill:rgb(39.99939%,39.99939%,39.99939%);fill-opacity:0.3;" d="M 122.335938 251.21875 L 122.332031 251.585938 L 122.320312 251.585938 Z M 122.335938 251.21875 "/>
<path style=" stroke:none;fill-rule:nonzero;fill:rgb(39.99939%,39.99939%,39.99939%);fill-opacity:0.3;" d="M 123.769531 204.820312 L 122.492188 225.890625 L 106.519531 227.265625 L 106.988281 207.136719 Z M 123.769531 204.820312 "/>
<path style=" stroke:none;fill-rule:nonzero;fill:rgb(39.99939%,39.99939%,39.99939%);fill-opacity:0.3;" d="M 104.394531 207.527344 L 104.667969 227.621094 L 88.972656 228.996094 L 89.21875 209.648438 Z M 104.394531 207.527344 "/>
<path style=" stroke:none;fill-rule:nonzero;fill:rgb(39.99939%,39.99939%,39.99939%);fill-opacity:0.3;" d="M 141.386719 226.042969 L 139.457031 250.105469 L 124.359375 251.355469 L 124.898438 227.519531 Z M 141.386719 226.042969 "/>
<path style=" stroke:none;fill-rule:nonzero;fill:rgb(39.99939%,39.99939%,39.99939%);fill-opacity:0.3;" d="M 142.425781 202.402344 L 141.3125 223.320312 L 124.777344 225.433594 L 126.128906 204.535156 Z M 142.425781 202.402344 "/>
<path style=" stroke:none;fill-rule:nonzero;fill:rgb(39.99939%,39.99939%,39.99939%);fill-opacity:0.3;" d="M 241.929688 188.539062 L 240.015625 212.59375 L 220.457031 213.664062 L 222.695312 191.246094 Z M 241.929688 188.539062 "/>
<path style=" stroke:none;fill-rule:nonzero;fill:rgb(39.99939%,39.99939%,39.99939%);fill-opacity:0.3;" d="M 219.34375 191.785156 L 217.773438 214.277344 L 201.40625 216.140625 L 202.972656 194.019531 Z M 219.34375 191.785156 "/>
<path style=" stroke:none;fill-rule:nonzero;fill:rgb(39.99939%,39.99939%,39.99939%);fill-opacity:0.3;" d="M 279.207031 293.105469 L 277.421875 295.148438 L 274.082031 298.082031 L 268.492188 300.527344 L 236.609375 291.445312 L 241.300781 241.199219 L 300.855469 235.046875 L 298.699219 285.054688 L 298.625 285.269531 L 292.3125 286.804688 L 292.855469 276.140625 L 291.859375 276.183594 L 290.832031 276.261719 L 290.140625 287.234375 L 285.585938 289.359375 L 283.066406 290.09375 L 281.480469 291.367188 Z M 279.207031 293.105469 "/>
<path style=" stroke:none;fill-rule:nonzero;fill:rgb(39.99939%,39.99939%,39.99939%);fill-opacity:0.3;" d="M 239.25 240.886719 L 234.703125 291.476562 L 213.648438 292.699219 L 204.972656 292.25 L 200.835938 291.605469 L 197.007812 291.292969 L 196.929688 283.039062 L 198.71875 245.1875 L 215.882812 243.375 L 213.730469 286.0625 L 214.847656 286.035156 L 215.9375 285.945312 L 218.476562 243.089844 Z M 239.25 240.886719 "/>
<path style=" stroke:none;fill-rule:nonzero;fill:rgb(39.99939%,39.99939%,39.99939%);fill-opacity:0.3;" d="M 239.742188 214.691406 L 238.996094 238.679688 L 219.148438 240.222656 L 219.925781 216.367188 Z M 239.742188 214.691406 "/>
<path style=" stroke:none;fill-rule:nonzero;fill:rgb(39.99939%,39.99939%,39.99939%);fill-opacity:0.3;" d="M 141.882812 252.054688 L 157.652344 250.550781 L 154.890625 290.933594 L 139.1875 288.515625 Z M 141.882812 252.054688 "/>
<path style=" stroke:none;fill-rule:nonzero;fill:rgb(39.99939%,39.99939%,39.99939%);fill-opacity:0.3;" d="M 216.996094 216.890625 L 216.367188 240.726562 L 199.410156 242.65625 L 201.042969 218.941406 Z M 216.996094 216.890625 "/>
<path style=" stroke:none;fill-rule:nonzero;fill:rgb(39.99939%,39.99939%,39.99939%);fill-opacity:0.3;" d="M 301.023438 231.625 L 241.460938 238.566406 L 244.84375 188.023438 L 303.40625 199.425781 L 302.285156 214.273438 Z M 301.023438 231.625 "/>
<path style=" stroke:none;fill-rule:nonzero;fill:rgb(39.99939%,39.99939%,39.99939%);fill-opacity:0.3;" d="M 123.523438 254.320312 L 138.863281 252.730469 L 136.667969 287.296875 L 121.859375 278.355469 Z M 123.523438 254.320312 "/>
<path style=" stroke:none;fill-rule:nonzero;fill:rgb(39.99939%,39.99939%,39.99939%);fill-opacity:0.3;" d="M 224.128906 162.8125 L 243.28125 163.359375 L 242.363281 185.351562 L 222.6875 188.050781 Z M 224.128906 162.8125 "/>
<path style=" stroke:none;fill-rule:nonzero;fill:rgb(39.99939%,39.99939%,39.99939%);fill-opacity:0.3;" d="M 204.917969 170.203125 L 220.578125 168.730469 L 219.613281 188.71875 L 203.3125 190.953125 Z M 204.917969 170.203125 "/>
<path style=" stroke:none;fill-rule:nonzero;fill:rgb(39.99939%,39.99939%,39.99939%);fill-opacity:0.3;" d="M 205.945312 151.253906 L 221.074219 157.152344 L 221.011719 160.738281 L 205.941406 167.324219 Z M 205.945312 151.253906 "/>
<path style=" stroke:none;fill-rule:nonzero;fill:rgb(39.99939%,39.99939%,39.99939%);fill-opacity:0.3;" d="M 298.511719 287.359375 L 297.667969 296.125 L 296.71875 308.570312 L 271.476562 301.378906 L 274.667969 300.058594 L 280.460938 295.3125 L 284.324219 292.019531 L 288.484375 289.863281 L 290.902344 289.046875 L 294.9375 288.042969 Z M 298.511719 287.359375 "/>
<path style=" stroke:none;fill-rule:nonzero;fill:rgb(39.99939%,39.99939%,39.99939%);fill-opacity:0.3;" d="M 51.429688 207.464844 L 54.601562 203.378906 L 59.101562 209 Z M 51.429688 207.464844 "/>
<path style=" stroke:none;fill-rule:nonzero;fill:rgb(39.99939%,39.99939%,39.99939%);fill-opacity:0.3;" d="M 114.109375 165 L 114.683594 166.105469 L 78.335938 184.726562 L 78.542969 184.617188 L 91.726562 177.035156 L 106.882812 169.128906 Z M 114.109375 165 "/>
<path style=" stroke:none;fill-rule:nonzero;fill:rgb(39.99939%,39.99939%,39.99939%);fill-opacity:0.3;" d="M 163.667969 175.453125 L 162.09375 196.476562 L 145.773438 198.804688 L 146.613281 177.628906 Z M 163.667969 175.453125 "/>
<path style=" stroke:none;fill-rule:nonzero;fill:rgb(39.99939%,39.99939%,39.99939%);fill-opacity:0.3;" d="M 183.890625 172.871094 L 181.742188 193.757812 L 164.902344 196.011719 L 166.964844 175.046875 Z M 183.890625 172.871094 "/>
<path style=" stroke:none;fill-rule:nonzero;fill:rgb(39.99939%,39.99939%,39.99939%);fill-opacity:0.3;" d="M 134.058594 155.808594 L 134.265625 156.285156 L 117.359375 164.5 L 116.847656 163.488281 L 127.3125 158.253906 L 133.574219 155.949219 Z M 134.058594 155.808594 "/>
<path style=" stroke:none;fill-rule:nonzero;fill:rgb(39.99939%,39.99939%,39.99939%);fill-opacity:0.3;" d="M 277.578125 139.238281 L 246.371094 138.046875 L 245.789062 157.742188 L 224.589844 156.003906 L 226.855469 119.851562 L 308.570312 119.03125 L 305.941406 161.414062 L 248.878906 157.9375 L 249.574219 140.800781 L 277.582031 141.742188 L 277.582031 140.484375 Z M 277.578125 139.238281 "/>
<path style=" stroke:none;fill-rule:nonzero;fill:rgb(39.99939%,39.99939%,39.99939%);fill-opacity:0.3;" d="M 204.628906 127.671875 L 204.207031 136.183594 L 203.628906 147.882812 L 193.261719 145.207031 L 187.464844 143.707031 L 187.167969 138.136719 L 194.863281 134.023438 Z M 204.628906 127.671875 "/>
<path style=" stroke:none;fill-rule:nonzero;fill:rgb(39.99939%,39.99939%,39.99939%);fill-opacity:0.3;" d="M 308.199219 114.113281 L 308.171875 116.136719 L 295.59375 116.382812 L 295.570312 114.386719 Z M 308.199219 114.113281 "/>
<path style=" stroke:none;fill-rule:nonzero;fill:rgb(39.99939%,39.99939%,39.99939%);fill-opacity:0.3;" d="M 215.53125 121.53125 L 218.519531 120.308594 L 220.902344 119.605469 L 223.734375 119.386719 L 221.734375 155.269531 L 206.441406 148.613281 L 207.328125 126.289062 Z M 215.53125 121.53125 "/>
<path style=" stroke:none;fill-rule:nonzero;fill:rgb(39.99939%,39.99939%,39.99939%);fill-opacity:0.3;" d="M 246.226562 163.964844 L 305.539062 167.523438 L 303.625 196.496094 L 245.457031 185.023438 Z M 246.226562 163.964844 "/>
<path style=" stroke:none;fill-rule:nonzero;fill:rgb(39.99939%,39.99939%,39.99939%);fill-opacity:0.3;" d="M 178 248.191406 L 176.039062 283.269531 L 176.933594 283.214844 L 177.824219 283.15625 L 180.644531 248.03125 L 196.941406 246.308594 L 194.683594 291.347656 L 193.617188 291.691406 L 175.753906 291.378906 L 157.289062 291.078125 L 160.664062 250.289062 Z M 178 248.191406 "/>
<path style=" stroke:none;fill-rule:nonzero;fill:rgb(39.99939%,39.99939%,39.99939%);fill-opacity:0.3;" d="M 249.429688 116.40625 L 249.4375 116.566406 L 221.289062 117.210938 L 225.507812 116.40625 Z M 249.429688 116.40625 "/>
<g clip-path="url(#clip7)" clip-rule="nonzero">
<path style=" stroke:none;fill-rule:nonzero;fill:rgb(39.99939%,39.99939%,39.99939%);fill-opacity:0.3;" d="M -8.425781 356.34375 L -1.957031 358.578125 L 7.808594 361.953125 L 76.050781 382.59375 L 85.828125 324.335938 L 94.089844 326.425781 L 98.203125 327.480469 L 102.144531 328.5625 L 106.054688 329.496094 L 107.550781 329.933594 L 135.96875 338.210938 L 137.726562 338.722656 L 204.394531 358.136719 L 287.210938 381.738281 L 288.777344 389.574219 L 286.46875 403.085938 L 284.164062 417.585938 L 291.414062 424.835938 L 291.742188 433.070312 L 290.09375 436.695312 L 285.152344 444.933594 L 262.414062 478.214844 L 263.734375 487.113281 L 263.402344 491.398438 L 260.667969 496.5 L 240.832031 510.433594 L 208.191406 528.601562 L 198.585938 532.734375 L 194.734375 534.582031 L 190.71875 536.851562 L 187.464844 539.066406 L 185.640625 540.480469 L 185.015625 541.039062 L 174.765625 539.175781 L 155.320312 534.5625 L 69.316406 509.191406 L 60.382812 517.113281 L 60.175781 517.09375 L 53.804688 516.722656 L 46.585938 516.523438 L 38.882812 516.410156 L 22.5625 495.640625 L 4.289062 451.226562 L 1.878906 448.964844 L 0.15625 449.113281 L -10.359375 458.371094 L -11.796875 459.777344 L -12.78125 460.617188 L -13.53125 461.140625 L -14.550781 461.691406 L -15.554688 462.105469 L -16.863281 462.519531 L -18.265625 462.851562 L -20.644531 463.277344 L -52.683594 467.175781 L -63.476562 468.332031 L -69.816406 469.035156 L -82.644531 462.929688 L -73.707031 462.253906 L -67.445312 461.484375 L -63.847656 459.230469 L -62.328125 455.9375 L -62.503906 453.917969 L -63.199219 452.570312 L -65.117188 451.355469 L -67.988281 450.917969 L -71.585938 450.640625 L -73.59375 450.613281 L -81.269531 449.546875 L -84.082031 448.84375 L -85.070312 448.515625 L -88.644531 446.230469 L -91.464844 442.878906 L -91.53125 440.023438 L -89.714844 437.597656 L -84.617188 434.417969 L -78.335938 427.777344 L -74.933594 423.886719 L -74.101562 418.8125 L -72.898438 394.710938 L -57.023438 385.179688 L -54.964844 384.0625 L -40.675781 376.328125 L -28.84375 369.75 L -18.742188 364.1875 L -13.691406 360.648438 Z M -8.425781 356.34375 "/>
</g>
<g clip-path="url(#clip8)" clip-rule="nonzero">
<path style=" stroke:none;fill-rule:nonzero;fill:rgb(39.99939%,39.99939%,39.99939%);fill-opacity:0.3;" d="M 13.929688 271.050781 L 27.007812 274.707031 L 35.007812 276.941406 L 66.820312 285.832031 L 73.46875 290.296875 L 76.152344 295.203125 L 87.25 315.484375 L 90.574219 319.230469 L 95.039062 324.257812 L 94.574219 325.277344 L 94.136719 326.347656 L 85.773438 324.238281 L 76.003906 382.515625 L 7.847656 361.871094 L -1.902344 358.5625 L -8.355469 356.28125 L -5.703125 353.414062 L -3.363281 341.621094 L -2.257812 335.878906 L 7.050781 278.175781 L 10.066406 272.679688 Z M 13.929688 271.050781 "/>
</g>
<path style=" stroke:none;fill-rule:nonzero;fill:rgb(39.99939%,39.99939%,39.99939%);fill-opacity:0.3;" d="M 215.96875 66.179688 L 216.300781 73.265625 L 217.875 117.28125 L 212.53125 120.03125 L 211.667969 120.359375 L 206.726562 122.667969 L 186.625 134.859375 L 185.445312 135.773438 L 182.625 137.566406 L 177.585938 140.675781 L 174.269531 142.429688 L 170.378906 143.984375 L 165.042969 146.203125 L 158.4375 148.265625 L 152.429688 150.09375 L 145.824219 152.269531 L 142.988281 153.257812 L 137.164062 154.921875 L 129.582031 138.984375 L 136.890625 126.75 L 133.125 101.308594 L 124.753906 101.703125 L 120.234375 103.058594 L 118.816406 102.546875 L 117.902344 100.804688 L 117.898438 98.867188 L 119.769531 96.867188 L 123.414062 96.503906 L 123.792969 95.277344 L 124.304688 94.84375 L 126.21875 94.484375 L 127.585938 93.542969 L 137.894531 83.414062 L 139.921875 81.613281 L 142.628906 81.609375 L 148.050781 84.171875 L 150.082031 83.78125 L 153.730469 78.769531 L 155.894531 78.253906 L 165.644531 79.269531 L 171.496094 80.742188 L 173.039062 80.234375 L 173.839844 78.707031 L 174.636719 73.179688 L 175.4375 71.269531 L 177.3125 70.0625 L 179.589844 69.929688 L 186.117188 69.984375 L 187.976562 69.664062 L 189.414062 68.777344 L 194.992188 61.707031 L 196.714844 60.421875 L 199.300781 60.1875 Z M 215.96875 66.179688 "/>
<path style=" stroke:none;fill-rule:nonzero;fill:rgb(39.99939%,39.99939%,39.99939%);fill-opacity:0.3;" d="M -4.890625 268.476562 L 0.53125 265.074219 L 14.398438 257.714844 L 7.6875 267.160156 L 5.515625 270.054688 L 3.515625 273.21875 L 2.042969 276.285156 L 1.253906 278.621094 L 0.691406 281.105469 L 0.179688 284.328125 L -7.207031 326.277344 L -26.273438 323.863281 L -14.847656 276.976562 L -12.59375 274.144531 L -10.316406 271.773438 Z M -4.890625 268.476562 "/>
<path style=" stroke:none;fill-rule:nonzero;fill:rgb(39.99939%,39.99939%,39.99939%);fill-opacity:0.3;" d="M 104.0625 75.082031 L 116.382812 102.382812 L 116.066406 105.011719 L 115 106.355469 L 113.410156 107.1875 L 115.121094 103.554688 Z M 104.0625 75.082031 "/>
<path style=" stroke:none;fill-rule:nonzero;fill:rgb(39.99939%,39.99939%,39.99939%);fill-opacity:0.3;" d="M 107.257812 151.730469 L 114.109375 165 L 106.882812 169.128906 L 91.726562 177.035156 L 78.542969 184.617188 L 78.335938 184.726562 L 54.375 197 L 47.503906 190.84375 L 69.699219 169.582031 Z M 107.257812 151.730469 "/>
<path style=" stroke:none;fill-rule:nonzero;fill:rgb(39.99939%,39.99939%,39.99939%);fill-opacity:0.3;" d="M 44.160156 195.195312 L 50.910156 201.457031 L 42.019531 213.28125 L 30.941406 229.144531 L 17.738281 250.5 L 1.769531 235.378906 L 13.164062 224.199219 L 27.078125 210.511719 Z M 44.160156 195.195312 "/>
<path style=" stroke:none;fill-rule:nonzero;fill:rgb(39.99939%,39.99939%,39.99939%);fill-opacity:0.3;" d="M 1.417969 239.003906 L 16.515625 253.632812 L -12.816406 270.335938 L -9.816406 261.351562 L -4.71875 247.925781 L -0.734375 239.535156 Z M 1.417969 239.003906 "/>
<path style=" stroke:none;fill-rule:nonzero;fill:rgb(39.99939%,39.99939%,39.99939%);fill-opacity:0.3;" d="M 72.925781 163.289062 L 79.675781 152.550781 L 82.304688 148.261719 L 83.359375 146.832031 L 89.699219 145.875 L 93.464844 145.441406 L 96.554688 144.4375 L 98.308594 142.84375 L 100.597656 138.910156 L 109.058594 124.394531 L 110.9375 121.675781 L 112.140625 120.746094 L 114.175781 119.671875 L 116.441406 119.207031 L 132.164062 117.25 L 132.863281 120.074219 L 134.289062 125.832031 L 127.894531 138 L 106.167969 148.515625 Z M 72.925781 163.289062 "/>
<path style=" stroke:none;fill-rule:nonzero;fill:rgb(39.99939%,39.99939%,39.99939%);fill-opacity:0.3;" d="M 210.105469 50.851562 L 211.074219 52.960938 L 212.527344 55.21875 L 206.597656 57.613281 L 203.113281 56.984375 L 198.289062 56.734375 L 195.945312 56.675781 L 194.082031 57.433594 L 192.382812 59.210938 L 186.953125 68.386719 L 178.648438 68.472656 L 176.304688 68.855469 L 174.628906 69.683594 L 172.894531 72.609375 L 172.5625 76.800781 L 172.242188 78.292969 L 170.410156 78.976562 L 166.320312 77.652344 L 155.867188 76.585938 L 153.050781 77.007812 L 149.414062 81.871094 L 147.605469 82.253906 L 143.113281 79.71875 L 139.429688 79.597656 L 123.179688 93.109375 L 119.742188 94.988281 L 117.871094 95.386719 L 115.167969 94.203125 L 100.953125 60.714844 L 105.894531 59.398438 L 108.203125 59.730469 L 110.179688 62.363281 L 114.792969 62.363281 L 129.621094 57.09375 L 137.859375 56.761719 L 142.800781 57.75 L 149.71875 60.386719 L 154.003906 61.046875 L 167.183594 61.046875 L 174.765625 59.070312 L 183.660156 56.105469 L 189.59375 51.820312 L 195.851562 47.867188 L 196.183594 45.558594 L 199.808594 43.253906 L 201.125 43.910156 L 206.398438 46.878906 Z M 210.105469 50.851562 "/>
<path style=" stroke:none;fill-rule:nonzero;fill:rgb(39.99939%,39.99939%,39.99939%);fill-opacity:0.3;" d="M 249.894531 54.5 L 248.34375 55.042969 L 232.679688 61.777344 L 230.957031 61.878906 L 213.273438 54.871094 L 211.875 52.648438 L 211.511719 51.933594 L 222.875 54.457031 L 234.40625 50.832031 L 249.894531 46.878906 Z M 249.894531 54.5 "/>
<path style=" stroke:none;fill-rule:nonzero;fill:rgb(39.99939%,39.99939%,39.99939%);fill-opacity:0.3;" d="M 39.789062 170.664062 L 41.132812 169.683594 L 49.246094 163.820312 L 50.578125 162.691406 L 72.324219 148.234375 L 75.746094 147.246094 L 78.925781 146.546875 L 79.121094 148.761719 L 65.246094 169.492188 L 53.128906 181.070312 L 52.128906 181.964844 L 41.03125 192.445312 L 29.660156 202.53125 L 17.464844 188.402344 L 24.976562 182.335938 L 33.085938 190.910156 L 33.417969 190.625 L 33.789062 190.300781 L 25.746094 181.746094 L 32.644531 176.347656 Z M 39.789062 170.664062 "/>
<path style=" stroke:none;fill-rule:nonzero;fill:rgb(39.99939%,39.99939%,39.99939%);fill-opacity:0.3;" d="M 49.304688 159.667969 L 49.238281 162.273438 L 10.308594 190.578125 L 8.441406 191.773438 Z M 49.304688 159.667969 "/>
<path style=" stroke:none;fill-rule:nonzero;fill:rgb(39.99939%,39.99939%,39.99939%);fill-opacity:0.3;" d="M 110.296875 150.453125 L 127.65625 141.089844 L 131.183594 149.203125 L 134.058594 155.808594 L 133.574219 155.949219 L 127.3125 158.253906 L 116.847656 163.488281 L 113.679688 157.183594 Z M 110.296875 150.453125 "/>
<path style=" stroke:none;fill-rule:nonzero;fill:rgb(39.99939%,39.99939%,39.99939%);fill-opacity:0.3;" d="M 51.351562 160.519531 L 51.503906 157.941406 L 51.523438 157.925781 L 51.507812 157.890625 L 51.605469 156.242188 L 52.707031 152.570312 L 53.917969 149.949219 L 55.945312 147.429688 L 66.625 139.878906 L 72.925781 137.007812 L 77.585938 136.09375 L 83.207031 136.734375 L 87.589844 134.910156 L 88.820312 131.140625 L 87.0625 125.058594 L 87.234375 121.058594 L 89.203125 118.417969 L 92.28125 117.230469 L 98.28125 116.160156 L 105.601562 115.285156 L 111.496094 114.699219 L 112.644531 113.691406 L 114.558594 110.046875 L 117.296875 106.796875 L 118.699219 105.308594 L 125.277344 102.832031 L 131.171875 102.824219 L 131.878906 114.886719 L 116.347656 117.023438 L 113.390625 117.765625 L 111.421875 118.769531 L 109.800781 120.070312 L 107.796875 122.339844 L 105.894531 125.121094 L 103.550781 129.1875 L 101.609375 132.824219 L 98.949219 137.484375 L 96.917969 140.304688 L 95.570312 141.578125 L 93.746094 142.613281 L 91.585938 143.242188 L 81.289062 144.828125 L 76.644531 145.589844 L 73.589844 146.230469 L 70.71875 147.21875 L 67.363281 149.425781 L 62.785156 152.558594 L 58.25 155.585938 Z M 51.351562 160.519531 "/>
<path style=" stroke:none;fill-rule:nonzero;fill:rgb(39.99939%,39.99939%,39.99939%);fill-opacity:0.3;" d="M -4.382812 215.632812 L -5.152344 215.035156 L -6.195312 214.214844 L -9.9375 221.507812 L -4.035156 224.722656 L -10.640625 229.984375 L -18.835938 226.652344 L -18.753906 223.050781 L -7.347656 205.59375 L -7.207031 205.441406 L 5.15625 196.078125 L 11.757812 191.511719 L 16.523438 189.117188 L 28.941406 203.125 L 18.289062 213.960938 L 8.222656 205.484375 L 7.046875 205.417969 L 0.945312 207.765625 L 1.859375 208.714844 L 2.734375 209.628906 L 8.382812 208.074219 L 9.3125 208.199219 L 16.949219 215.097656 L 5.492188 225.277344 L -1.40625 233.011719 L -6.335938 228.460938 L -1.535156 224.550781 L -7.792969 221.1875 Z M -4.382812 215.632812 "/>
<path style=" stroke:none;fill-rule:nonzero;fill:rgb(39.99939%,39.99939%,39.99939%);fill-opacity:0.3;" d="M 218.148438 117.28125 L 216.679688 73.269531 L 247.320312 71.410156 L 249.429688 116.40625 L 225.507812 116.40625 L 221.289062 117.210938 Z M 218.148438 117.28125 "/>
<path style=" stroke:none;fill-rule:nonzero;fill:rgb(39.99939%,39.99939%,39.99939%);fill-opacity:0.3;" d="M 348.414062 12.804688 L 358.839844 13.898438 L 358.382812 21.402344 L 344.617188 21.753906 Z M 348.414062 12.804688 "/>
<path style=" stroke:none;fill-rule:nonzero;fill:rgb(39.99939%,39.99939%,39.99939%);fill-opacity:0.3;" d="M 343.980469 23.183594 L 358.808594 23.253906 L 358.902344 26.558594 L 341.910156 28.128906 Z M 343.980469 23.183594 "/>
<path style=" stroke:none;fill-rule:nonzero;fill:rgb(39.99939%,39.99939%,39.99939%);fill-opacity:0.3;" d="M 340.804688 30.09375 L 358.851562 28.675781 L 359.382812 31.992188 L 353.101562 32.839844 L 349.746094 33.605469 L 345.863281 34.746094 L 342.320312 36.035156 L 339.730469 37.128906 L 338.085938 38.550781 L 337.484375 39.046875 Z M 340.804688 30.09375 "/>
<g clip-path="url(#clip9)" clip-rule="nonzero">
<path style=" stroke:none;fill-rule:nonzero;fill:rgb(39.99939%,39.99939%,39.99939%);fill-opacity:0.3;" d="M 359.980469 48.03125 L 365.257812 47.832031 L 368.1875 54.792969 L 357.976562 55.117188 L 354.542969 55.117188 L 352.601562 50.121094 L 354.902344 44.542969 L 354.71875 42.882812 L 354.371094 41.203125 L 354.28125 39.953125 L 354.984375 38.78125 L 356.214844 38.28125 L 358.355469 37.683594 L 360.207031 37.71875 L 361.058594 37.945312 L 361.6875 38.402344 L 364.96875 46.867188 L 359.667969 47.050781 L 359.8125 47.503906 Z M 359.980469 48.03125 "/>
</g>
<g clip-path="url(#clip10)" clip-rule="nonzero">
<path style=" stroke:none;fill-rule:nonzero;fill:rgb(39.99939%,39.99939%,39.99939%);fill-opacity:0.3;" d="M 348.203125 35.28125 L 354.539062 33.457031 L 361.65625 32.640625 L 370.828125 31.710938 L 372.222656 32.84375 L 379.703125 38.597656 L 374.003906 41.894531 L 366.765625 46.132812 L 362.375 37.355469 L 361.40625 36.855469 L 359.996094 36.773438 L 357.914062 36.859375 L 355.773438 37.53125 L 353.75 37.78125 L 351.890625 37.972656 L 345.382812 36.375 Z M 348.203125 35.28125 "/>
</g>
<path style=" stroke:none;fill-rule:nonzero;fill:rgb(39.99939%,39.99939%,39.99939%);fill-opacity:0.3;" d="M 335.574219 45.117188 L 336.839844 41.058594 L 342.785156 38.007812 L 345.25 38.171875 L 349.652344 38.917969 L 350.941406 39.367188 L 352.171875 40.234375 L 353.269531 41.667969 L 353.679688 43.066406 L 353.765625 44.328125 L 351.371094 50.078125 L 353.277344 55.117188 L 342.648438 55.117188 L 342.523438 52.613281 L 342.539062 50.953125 L 342.078125 49.605469 L 341.566406 48.6875 L 341.109375 47.929688 L 340.367188 47.226562 L 339.453125 46.742188 L 338.542969 46.3125 L 337.6875 45.988281 L 337.171875 45.773438 L 336.488281 45.449219 Z M 335.574219 45.117188 "/>
<path style=" stroke:none;fill-rule:nonzero;fill:rgb(39.99939%,39.99939%,39.99939%);fill-opacity:0.3;" d="M 335.140625 46.238281 L 336.648438 46.648438 L 338.417969 47.558594 L 339.8125 48.726562 L 340.941406 51.164062 L 341.039062 55.117188 L 332.085938 55.117188 Z M 335.140625 46.238281 "/>
<path style=" stroke:none;fill-rule:nonzero;fill:rgb(39.99939%,39.99939%,39.99939%);fill-opacity:0.3;" d="M 321.433594 49.6875 L 320.144531 51.609375 L 317.097656 53.929688 L 315.46875 53.796875 L 320.082031 50.171875 Z M 321.433594 49.6875 "/>
<path style=" stroke:none;fill-rule:nonzero;fill:rgb(39.99939%,39.99939%,39.99939%);fill-opacity:0.3;" d="M 64.015625 209.984375 L 63.1875 210.09375 L 62.914062 209.761719 Z M 64.015625 209.984375 "/>
<path style=" stroke:none;fill-rule:nonzero;fill:rgb(39.99939%,39.99939%,39.99939%);fill-opacity:0.3;" d="M 104.015625 229.691406 L 102.617188 255.660156 L 100.914062 257.265625 L 81.445312 232.378906 Z M 104.015625 229.691406 "/>
<path style=" stroke:none;fill-rule:nonzero;fill:rgb(39.99939%,39.99939%,39.99939%);fill-opacity:0.3;" d="M 122.34375 250.523438 L 122.335938 251.21875 L 122.320312 251.585938 L 104.808594 253.660156 L 104.921875 252.105469 Z M 122.34375 250.523438 "/>
<path style=" stroke:none;fill-rule:nonzero;fill:rgb(39.99939%,39.99939%,39.99939%);fill-opacity:0.3;" d="M 86.359375 210.011719 L 86.609375 229.375 L 80.207031 230.964844 L 65.535156 212.90625 Z M 86.359375 210.011719 "/>
<path style=" stroke:none;fill-rule:nonzero;fill:rgb(39.99939%,39.99939%,39.99939%);fill-opacity:0.3;" d="M 268.492188 300.527344 L 267.246094 301.074219 L 259.710938 303.355469 L 255.964844 303.644531 L 252.222656 303.792969 L 247.875 303.371094 L 242.632812 302.808594 L 238.453125 301.433594 L 236.789062 298.980469 L 236.484375 292.804688 L 236.609375 291.445312 Z M 268.492188 300.527344 "/>
<path style=" stroke:none;fill-rule:nonzero;fill:rgb(39.99939%,39.99939%,39.99939%);fill-opacity:0.3;" d="M 234.703125 291.476562 L 234.621094 292.371094 L 234.574219 299.710938 L 229.847656 299.824219 L 220.730469 298.339844 L 217.464844 297.066406 L 214.757812 293.757812 L 209.242188 292.910156 L 204.972656 292.25 L 213.648438 292.699219 Z M 234.703125 291.476562 "/>
<path style=" stroke:none;fill-rule:nonzero;fill:rgb(39.99939%,39.99939%,39.99939%);fill-opacity:0.3;" d="M 154.890625 290.933594 L 154.472656 297.054688 L 151.546875 297.695312 L 138.601562 296.433594 L 139.1875 288.515625 Z M 154.890625 290.933594 "/>
<path style=" stroke:none;fill-rule:nonzero;fill:rgb(39.99939%,39.99939%,39.99939%);fill-opacity:0.3;" d="M 121.382812 254.550781 L 119.722656 275.996094 L 116.371094 275.683594 L 103.949219 260.28125 L 104.597656 255.9375 Z M 121.382812 254.550781 "/>
<path style=" stroke:none;fill-rule:nonzero;fill:rgb(39.99939%,39.99939%,39.99939%);fill-opacity:0.3;" d="M 136.667969 287.296875 L 136.457031 290.671875 L 132.902344 294.402344 L 121.59375 282.15625 L 121.859375 278.355469 Z M 136.667969 287.296875 "/>
<g clip-path="url(#clip11)" clip-rule="nonzero">
<path style=" stroke:none;fill-rule:nonzero;fill:rgb(39.99939%,39.99939%,39.99939%);fill-opacity:0.3;" d="M 296.71875 308.570312 L 294.871094 332.761719 L 288.136719 370.84375 L 287.460938 373.480469 L 285.972656 374.058594 L 283.160156 373.644531 L 106.0625 322.644531 L 103.160156 321.335938 L 100.828125 320.109375 L 97.46875 317.632812 L 93.328125 312.742188 L 89.414062 305.648438 L 86.644531 299.753906 L 83.257812 293.550781 L 79.722656 288.308594 L 76.257812 284.445312 L 72.53125 281.820312 L 67.941406 279.605469 L 61.984375 277.90625 L 57.636719 276.15625 L 53.671875 272.375 L 50.6875 271.003906 L 44.59375 269.328125 L 28.488281 264.75 L 25.503906 266.917969 L 16.074219 263.914062 L 33.617188 233.722656 L 44.40625 217.433594 L 49.441406 210.023438 L 51.429688 207.464844 L 59.101562 209 L 115.425781 279.292969 L 133.46875 298.921875 L 151.542969 301.292969 L 168.738281 302.90625 L 187.515625 296.097656 L 197.148438 294.519531 L 209.957031 295.730469 L 217.660156 300.0625 L 230.492188 302.828125 L 243.320312 304.898438 L 249.019531 305.515625 L 256.257812 305.546875 L 263.152344 304.222656 L 269.175781 302.332031 L 271.476562 301.378906 Z M 296.71875 308.570312 "/>
</g>
<path style=" stroke:none;fill-rule:nonzero;fill:rgb(39.99939%,39.99939%,39.99939%);fill-opacity:0.3;" d="M 193.617188 291.691406 L 181.1875 295.730469 L 167.644531 299.480469 L 156.800781 296.96875 L 157.289062 291.078125 L 175.753906 291.378906 Z M 193.617188 291.691406 "/>
<g clip-path="url(#clip12)" clip-rule="nonzero">
<path style=" stroke:none;fill-rule:nonzero;fill:rgb(39.99939%,39.99939%,39.99939%);fill-opacity:0.3;" d="M 433.375 279.09375 L 428.699219 286.199219 L 425.949219 290.210938 L 422.519531 294.953125 L 420.746094 297.390625 L 418.617188 300.660156 L 417.621094 302.519531 L 415.6875 307.152344 L 413.398438 311.910156 L 411.722656 315.847656 L 409.941406 320.140625 L 407.914062 325.6875 L 406.011719 331.714844 L 404.882812 335.042969 L 402.789062 340.085938 L 400.699219 344.0625 L 399.019531 346.714844 L 397.351562 349.046875 L 394.46875 352.773438 L 390.683594 357.078125 L 387.480469 360.402344 L 384.554688 363.03125 L 382.167969 364.90625 L 371.660156 371.984375 L 368.507812 374.007812 L 365.015625 376.347656 L 361.878906 378.535156 L 358.414062 380.90625 L 355.796875 382.578125 L 352.796875 384.300781 L 349.523438 385.871094 L 346.175781 387.109375 L 344.097656 387.667969 L 341.324219 388.144531 L 338.671875 388.328125 L 336.148438 388.296875 L 332.75 387.984375 L 328.300781 387.183594 L 324.011719 386.070312 L 319.121094 384.5 L 313.78125 382.585938 L 297.476562 377.695312 L 305.332031 335.070312 L 306.644531 329.691406 L 307.140625 326.511719 L 307.257812 324.554688 L 307.230469 323.207031 L 307.023438 321.433594 L 306.675781 319.949219 L 306.070312 318.234375 L 304.988281 315.902344 L 303.621094 313.355469 L 302.261719 310.761719 L 301.433594 308.746094 L 301.414062 308.648438 L 302.617188 308.515625 L 304.921875 305.21875 L 321.398438 294.675781 L 329.636719 294.675781 L 330.957031 304.558594 L 339.523438 325.320312 L 347.761719 334.21875 L 352.703125 335.207031 L 358.964844 333.886719 L 362.589844 330.921875 L 363.246094 326.96875 L 360.613281 322.023438 L 355.339844 315.433594 L 354.679688 312.46875 L 356 310.164062 L 360.613281 312.46875 L 371.816406 314.117188 L 384.667969 315.433594 L 390.925781 317.742188 L 403.449219 302.914062 L 413.566406 274.773438 L 424.835938 277.230469 Z M 433.375 279.09375 "/>
</g>
<path style=" stroke:none;fill-rule:nonzero;fill:rgb(39.99939%,39.99939%,39.99939%);fill-opacity:0.3;" d="M 300.855469 235.046875 L 302.769531 234.847656 L 298.988281 284.191406 L 298.699219 285.054688 Z M 300.855469 235.046875 "/>
<path style=" stroke:none;fill-rule:nonzero;fill:rgb(39.99939%,39.99939%,39.99939%);fill-opacity:0.3;" d="M 305.136719 199.761719 L 302.601562 231.441406 L 301.023438 231.625 L 302.285156 214.273438 L 303.40625 199.425781 Z M 305.136719 199.761719 "/>
<path style=" stroke:none;fill-rule:nonzero;fill:rgb(39.99939%,39.99939%,39.99939%);fill-opacity:0.3;" d="M 327.898438 162.488281 L 327.894531 162.609375 L 325.617188 162.441406 Z M 327.898438 162.488281 "/>
<path style=" stroke:none;fill-rule:nonzero;fill:rgb(39.99939%,39.99939%,39.99939%);fill-opacity:0.3;" d="M 340.898438 163.316406 L 331.566406 162.828125 L 331.574219 162.632812 Z M 340.898438 163.316406 "/>
<g clip-path="url(#clip13)" clip-rule="nonzero">
<path style=" stroke:none;fill-rule:nonzero;fill:rgb(39.99939%,39.99939%,39.99939%);fill-opacity:0.3;" d="M 329.863281 168.574219 L 422.023438 174.328125 L 421.414062 195.292969 L 328.84375 190.308594 Z M 329.863281 168.574219 "/>
</g>
<g clip-path="url(#clip14)" clip-rule="nonzero">
<path style=" stroke:none;fill-rule:nonzero;fill:rgb(39.99939%,39.99939%,39.99939%);fill-opacity:0.3;" d="M 329.023438 192.960938 L 420.417969 197.996094 L 419.125 221.558594 L 328.507812 201.585938 Z M 329.023438 192.960938 "/>
</g>
<path style=" stroke:none;fill-rule:nonzero;fill:rgb(39.99939%,39.99939%,39.99939%);fill-opacity:0.3;" d="M 310.417969 167.25 L 326.363281 168.246094 L 325.007812 200.761719 L 308.910156 196.632812 Z M 310.417969 167.25 "/>
<path style=" stroke:none;fill-rule:nonzero;fill:rgb(39.99939%,39.99939%,39.99939%);fill-opacity:0.3;" d="M 305.539062 167.523438 L 307.324219 167.628906 L 305.542969 196.871094 L 303.625 196.496094 Z M 305.539062 167.523438 "/>
<g clip-path="url(#clip15)" clip-rule="nonzero">
<path style=" stroke:none;fill-rule:nonzero;fill:rgb(39.99939%,39.99939%,39.99939%);fill-opacity:0.3;" d="M 381.382812 243.894531 L 377.652344 263.386719 L 376.460938 268.242188 L 371.546875 268.503906 L 365.679688 268.125 L 361.554688 268.128906 L 353.621094 268.703125 L 346.496094 269.746094 L 340.0625 271.332031 L 333.9375 273.28125 L 326.863281 276.597656 L 321.207031 280.359375 L 317.46875 283.769531 L 312.460938 286.511719 L 308.753906 287.738281 L 305.273438 287.597656 L 302.546875 286.667969 L 304.179688 269.96875 L 322.308594 260.964844 L 342.0625 254.066406 Z M 381.382812 243.894531 "/>
</g>
<g clip-path="url(#clip16)" clip-rule="nonzero">
<path style=" stroke:none;fill-rule:nonzero;fill:rgb(39.99939%,39.99939%,39.99939%);fill-opacity:0.3;" d="M 308.59375 201.113281 L 445.78125 229.988281 L 444.566406 235.96875 L 389.84375 235.734375 L 335.84375 234.074219 L 306.289062 232.257812 L 307.226562 216.886719 Z M 308.59375 201.113281 "/>
</g>
<g clip-path="url(#clip17)" clip-rule="nonzero">
<path style=" stroke:none;fill-rule:nonzero;fill:rgb(39.99939%,39.99939%,39.99939%);fill-opacity:0.3;" d="M 336.382812 236.328125 L 401.875 237.601562 L 402.902344 238.234375 L 377.5625 243.375 L 352.578125 249.589844 L 335.25 254.265625 Z M 336.382812 236.328125 "/>
</g>
<path style=" stroke:none;fill-rule:nonzero;fill:rgb(39.99939%,39.99939%,39.99939%);fill-opacity:0.3;" d="M 333.9375 235.566406 L 332.972656 255.066406 L 303.664062 266.601562 L 304.894531 256.65625 L 314.738281 251.703125 L 321.304688 251.570312 L 321.304688 250.605469 L 321.320312 249.75 L 314.582031 249.867188 L 304.9375 254.378906 L 306.285156 234.234375 Z M 333.9375 235.566406 "/>
<g clip-path="url(#clip18)" clip-rule="nonzero">
<path style=" stroke:none;fill-rule:nonzero;fill:rgb(39.99939%,39.99939%,39.99939%);fill-opacity:0.3;" d="M 301.414062 308.648438 L 300.941406 306.117188 L 301.898438 292.203125 L 310.910156 290.757812 L 318.628906 286.296875 L 323.265625 281.375 L 334.582031 274.890625 L 345.082031 271.511719 L 353.335938 270.050781 L 360.292969 269.523438 L 370.636719 269.660156 L 379.53125 270.019531 L 390.527344 271.335938 L 393.054688 271.636719 L 413.398438 274.738281 L 413.566406 274.773438 L 403.449219 302.914062 L 390.925781 317.742188 L 384.667969 315.433594 L 371.816406 314.117188 L 360.613281 312.46875 L 356 310.164062 L 354.679688 312.46875 L 355.339844 315.433594 L 360.613281 322.023438 L 363.246094 326.96875 L 362.589844 330.921875 L 358.964844 333.886719 L 352.703125 335.207031 L 347.761719 334.21875 L 339.523438 325.320312 L 330.957031 304.558594 L 329.636719 294.675781 L 321.398438 294.675781 L 304.921875 305.21875 L 302.617188 308.515625 Z M 301.414062 308.648438 "/>
</g>
<path style="fill-rule:nonzero;fill:rgb(39.99939%,39.99939%,39.99939%);fill-opacity:1;stroke-width:0.03;stroke-linecap:square;stroke-linejoin:miter;stroke:rgb(39.99939%,39.99939%,39.99939%);stroke-opacity:1;stroke-miterlimit:3.239307;" d="M 366.632812 127.476562 L 366.710938 129.578125 L 353.238281 129.664062 L 353.195312 128.09375 Z M 366.632812 127.476562 " transform="matrix(1,0,0,1,-74,-13)"/>
<path style="fill-rule:nonzero;fill:rgb(39.99939%,39.99939%,39.99939%);fill-opacity:1;stroke-width:0.03;stroke-linecap:square;stroke-linejoin:miter;stroke:rgb(39.99939%,39.99939%,39.99939%);stroke-opacity:1;stroke-miterlimit:3.239307;" d="M 286.53125 133.03125 L 278.660156 137.082031 L 271.460938 141.335938 L 263.496094 146.199219 L 259.445312 148.773438 L 260.625 147.859375 L 280.726562 135.667969 L 285.667969 133.359375 Z M 286.53125 133.03125 " transform="matrix(1,0,0,1,-74,-13)"/>
<path style="fill-rule:nonzero;fill:rgb(39.99939%,39.99939%,39.99939%);fill-opacity:1;stroke-width:0.03;stroke-linecap:square;stroke-linejoin:miter;stroke:rgb(39.99939%,39.99939%,39.99939%);stroke-opacity:1;stroke-miterlimit:3.239307;" d="M 216.988281 166.257812 L 211.3125 168.238281 L 211.164062 167.921875 Z M 216.988281 166.257812 " transform="matrix(1,0,0,1,-74,-13)"/>
<path style="fill-rule:nonzero;fill:rgb(39.99939%,39.99939%,39.99939%);fill-opacity:1;stroke-width:0.03;stroke-linecap:square;stroke-linejoin:miter;stroke:rgb(39.99939%,39.99939%,39.99939%);stroke-opacity:1;stroke-miterlimit:3.239307;" d="M 351.113281 128.1875 L 351.148438 129.667969 L 326.554688 129.332031 L 326.550781 129.3125 Z M 351.113281 128.1875 " transform="matrix(1,0,0,1,-74,-13)"/>
<path style="fill-rule:nonzero;fill:rgb(39.99939%,39.99939%,39.99939%);fill-opacity:1;stroke-width:0.03;stroke-linecap:square;stroke-linejoin:miter;stroke:rgb(39.99939%,39.99939%,39.99939%);stroke-opacity:1;stroke-miterlimit:3.239307;" d="M 258.5 159.433594 L 258.375 166.378906 L 258.058594 183.84375 L 240.875 186.019531 L 242.238281 161.589844 L 245.597656 160.527344 L 251.0625 159.546875 Z M 258.5 159.433594 " transform="matrix(1,0,0,1,-74,-13)"/>
<path style="fill-rule:nonzero;fill:rgb(39.99939%,39.99939%,39.99939%);fill-opacity:1;stroke-width:0.03;stroke-linecap:square;stroke-linejoin:miter;stroke:rgb(39.99939%,39.99939%,39.99939%);stroke-opacity:1;stroke-miterlimit:3.239307;" d="M 239.054688 163.546875 L 238.09375 186.425781 L 220.953125 188.644531 L 221.457031 168.714844 L 228.007812 166.753906 Z M 239.054688 163.546875 " transform="matrix(1,0,0,1,-74,-13)"/>
<path style="fill-rule:nonzero;fill:rgb(39.99939%,39.99939%,39.99939%);fill-opacity:1;stroke-width:0.03;stroke-linecap:square;stroke-linejoin:miter;stroke:rgb(39.99939%,39.99939%,39.99939%);stroke-opacity:1;stroke-miterlimit:3.239307;" d="M 260.199219 185.667969 L 276.371094 183.589844 L 274.804688 204.160156 L 258.640625 206.464844 Z M 260.199219 185.667969 " transform="matrix(1,0,0,1,-74,-13)"/>
<path style="fill-rule:nonzero;fill:rgb(39.99939%,39.99939%,39.99939%);fill-opacity:1;stroke-width:0.03;stroke-linecap:square;stroke-linejoin:miter;stroke:rgb(39.99939%,39.99939%,39.99939%);stroke-opacity:1;stroke-miterlimit:3.239307;" d="M 260.75 159.105469 L 268.890625 160.230469 L 277.253906 162.839844 L 276.773438 181.136719 L 260.28125 183.558594 Z M 260.75 159.105469 " transform="matrix(1,0,0,1,-74,-13)"/>
<path style="fill-rule:nonzero;fill:rgb(39.99939%,39.99939%,39.99939%);fill-opacity:1;stroke-width:0.03;stroke-linecap:square;stroke-linejoin:miter;stroke:rgb(39.99939%,39.99939%,39.99939%);stroke-opacity:1;stroke-miterlimit:3.239307;" d="M 234.671875 236.710938 L 231.976562 260.019531 L 215.71875 262.3125 L 217.601562 238.625 Z M 234.671875 236.710938 " transform="matrix(1,0,0,1,-74,-13)"/>
<path style="fill-rule:nonzero;fill:rgb(39.99939%,39.99939%,39.99939%);fill-opacity:1;stroke-width:0.03;stroke-linecap:square;stroke-linejoin:miter;stroke:rgb(39.99939%,39.99939%,39.99939%);stroke-opacity:1;stroke-miterlimit:3.239307;" d="M 254.050781 234.339844 L 253.289062 257.714844 L 235.03125 259.738281 L 237.484375 236.382812 Z M 254.050781 234.339844 " transform="matrix(1,0,0,1,-74,-13)"/>
<path style="fill-rule:nonzero;fill:rgb(39.99939%,39.99939%,39.99939%);fill-opacity:1;stroke-width:0.03;stroke-linecap:square;stroke-linejoin:miter;stroke:rgb(39.99939%,39.99939%,39.99939%);stroke-opacity:1;stroke-miterlimit:3.239307;" d="M 255.445312 209.90625 L 254.382812 231.96875 L 237.863281 234.230469 L 238.4375 212.296875 Z M 255.445312 209.90625 " transform="matrix(1,0,0,1,-74,-13)"/>
<path style="fill-rule:nonzero;fill:rgb(39.99939%,39.99939%,39.99939%);fill-opacity:1;stroke-width:0.03;stroke-linecap:square;stroke-linejoin:miter;stroke:rgb(39.99939%,39.99939%,39.99939%);stroke-opacity:1;stroke-miterlimit:3.239307;" d="M 235.800781 212.71875 L 235.328125 234.429688 L 217.757812 236.347656 L 219.039062 215.136719 Z M 235.800781 212.71875 " transform="matrix(1,0,0,1,-74,-13)"/>
<path style="fill-rule:nonzero;fill:rgb(39.99939%,39.99939%,39.99939%);fill-opacity:1;stroke-width:0.03;stroke-linecap:square;stroke-linejoin:miter;stroke:rgb(39.99939%,39.99939%,39.99939%);stroke-opacity:1;stroke-miterlimit:3.239307;" d="M 272.542969 232.171875 L 271.019531 256.085938 L 255.546875 257.507812 L 256.417969 234.125 Z M 272.542969 232.171875 " transform="matrix(1,0,0,1,-74,-13)"/>
<path style="fill-rule:nonzero;fill:rgb(39.99939%,39.99939%,39.99939%);fill-opacity:1;stroke-width:0.03;stroke-linecap:square;stroke-linejoin:miter;stroke:rgb(39.99939%,39.99939%,39.99939%);stroke-opacity:1;stroke-miterlimit:3.239307;" d="M 258.300781 209.53125 L 274.601562 207.167969 L 272.863281 229.746094 L 256.835938 231.875 Z M 258.300781 209.53125 " transform="matrix(1,0,0,1,-74,-13)"/>
<path style="fill-rule:nonzero;fill:rgb(39.99939%,39.99939%,39.99939%);fill-opacity:1;stroke-width:0.03;stroke-linecap:square;stroke-linejoin:miter;stroke:rgb(39.99939%,39.99939%,39.99939%);stroke-opacity:1;stroke-miterlimit:3.239307;" d="M 179.921875 195.847656 L 178.925781 217.425781 L 164.101562 219.511719 L 163.710938 198.015625 Z M 179.921875 195.847656 " transform="matrix(1,0,0,1,-74,-13)"/>
<path style="fill-rule:nonzero;fill:rgb(39.99939%,39.99939%,39.99939%);fill-opacity:1;stroke-width:0.03;stroke-linecap:square;stroke-linejoin:miter;stroke:rgb(39.99939%,39.99939%,39.99939%);stroke-opacity:1;stroke-miterlimit:3.239307;" d="M 199.585938 193.460938 L 198.015625 214.808594 L 181.835938 216.96875 L 182.53125 195.519531 Z M 199.585938 193.460938 " transform="matrix(1,0,0,1,-74,-13)"/>
<path style="fill-rule:nonzero;fill:rgb(39.99939%,39.99939%,39.99939%);fill-opacity:1;stroke-width:0.03;stroke-linecap:square;stroke-linejoin:miter;stroke:rgb(39.99939%,39.99939%,39.99939%);stroke-opacity:1;stroke-miterlimit:3.239307;" d="M 199.632812 177.382812 L 199.96875 191.269531 L 182.582031 193.5625 L 182.023438 188.1875 L 182.039062 186.691406 L 184.421875 184.761719 L 194.234375 179.226562 Z M 199.632812 177.382812 " transform="matrix(1,0,0,1,-74,-13)"/>
<path style="fill-rule:nonzero;fill:rgb(39.99939%,39.99939%,39.99939%);fill-opacity:1;stroke-width:0.03;stroke-linecap:square;stroke-linejoin:miter;stroke:rgb(39.99939%,39.99939%,39.99939%);stroke-opacity:1;stroke-miterlimit:3.239307;" d="M 179.710938 187.757812 L 179.878906 194.023438 L 167.640625 195.578125 L 167.359375 193.628906 Z M 179.710938 187.757812 " transform="matrix(1,0,0,1,-74,-13)"/>
<path style="fill-rule:nonzero;fill:rgb(39.99939%,39.99939%,39.99939%);fill-opacity:1;stroke-width:0.03;stroke-linecap:square;stroke-linejoin:miter;stroke:rgb(39.99939%,39.99939%,39.99939%);stroke-opacity:1;stroke-miterlimit:3.239307;" d="M 201.917969 193.09375 L 218.003906 191.039062 L 216.765625 212.191406 L 200.496094 214.453125 Z M 201.917969 193.09375 " transform="matrix(1,0,0,1,-74,-13)"/>
<path style="fill-rule:nonzero;fill:rgb(39.99939%,39.99939%,39.99939%);fill-opacity:1;stroke-width:0.03;stroke-linecap:square;stroke-linejoin:miter;stroke:rgb(39.99939%,39.99939%,39.99939%);stroke-opacity:1;stroke-miterlimit:3.239307;" d="M 218.457031 169.207031 L 218.175781 189.011719 L 202.023438 190.984375 L 202.125 176.101562 L 210.113281 172.210938 Z M 218.457031 169.207031 " transform="matrix(1,0,0,1,-74,-13)"/>
<path style="fill-rule:nonzero;fill:rgb(39.99939%,39.99939%,39.99939%);fill-opacity:1;stroke-width:0.03;stroke-linecap:square;stroke-linejoin:miter;stroke:rgb(39.99939%,39.99939%,39.99939%);stroke-opacity:1;stroke-miterlimit:3.239307;" d="M 160.378906 199.511719 L 160.890625 219.960938 L 138.015625 222.984375 L 136.914062 222.761719 L 130.242188 214.679688 L 135.292969 210.945312 L 142.03125 207.03125 L 150.828125 202.941406 L 155.507812 200.625 Z M 160.378906 199.511719 " transform="matrix(1,0,0,1,-74,-13)"/>
<path style="fill-rule:nonzero;fill:rgb(39.99939%,39.99939%,39.99939%);fill-opacity:1;stroke-width:0.03;stroke-linecap:square;stroke-linejoin:miter;stroke:rgb(39.99939%,39.99939%,39.99939%);stroke-opacity:1;stroke-miterlimit:3.239307;" d="M 196.53125 240.9375 L 196.34375 263.523438 L 178.921875 265.105469 L 180.546875 242.238281 Z M 196.53125 240.9375 " transform="matrix(1,0,0,1,-74,-13)"/>
<path style="fill-rule:nonzero;fill:rgb(39.99939%,39.99939%,39.99939%);fill-opacity:1;stroke-width:0.03;stroke-linecap:square;stroke-linejoin:miter;stroke:rgb(39.99939%,39.99939%,39.99939%);stroke-opacity:1;stroke-miterlimit:3.239307;" d="M 196.335938 264.21875 L 196.332031 264.585938 L 196.320312 264.585938 Z M 196.335938 264.21875 " transform="matrix(1,0,0,1,-74,-13)"/>
<path style="fill-rule:nonzero;fill:rgb(39.99939%,39.99939%,39.99939%);fill-opacity:1;stroke-width:0.03;stroke-linecap:square;stroke-linejoin:miter;stroke:rgb(39.99939%,39.99939%,39.99939%);stroke-opacity:1;stroke-miterlimit:3.239307;" d="M 197.769531 217.820312 L 196.492188 238.890625 L 180.519531 240.265625 L 180.988281 220.136719 Z M 197.769531 217.820312 " transform="matrix(1,0,0,1,-74,-13)"/>
<path style="fill-rule:nonzero;fill:rgb(39.99939%,39.99939%,39.99939%);fill-opacity:1;stroke-width:0.03;stroke-linecap:square;stroke-linejoin:miter;stroke:rgb(39.99939%,39.99939%,39.99939%);stroke-opacity:1;stroke-miterlimit:3.239307;" d="M 178.394531 220.527344 L 178.667969 240.621094 L 162.972656 241.996094 L 163.21875 222.648438 Z M 178.394531 220.527344 " transform="matrix(1,0,0,1,-74,-13)"/>
<path style="fill-rule:nonzero;fill:rgb(39.99939%,39.99939%,39.99939%);fill-opacity:1;stroke-width:0.03;stroke-linecap:square;stroke-linejoin:miter;stroke:rgb(39.99939%,39.99939%,39.99939%);stroke-opacity:1;stroke-miterlimit:3.239307;" d="M 215.386719 239.042969 L 213.457031 263.105469 L 198.359375 264.355469 L 198.898438 240.519531 Z M 215.386719 239.042969 " transform="matrix(1,0,0,1,-74,-13)"/>
<path style="fill-rule:nonzero;fill:rgb(39.99939%,39.99939%,39.99939%);fill-opacity:1;stroke-width:0.03;stroke-linecap:square;stroke-linejoin:miter;stroke:rgb(39.99939%,39.99939%,39.99939%);stroke-opacity:1;stroke-miterlimit:3.239307;" d="M 216.425781 215.402344 L 215.3125 236.320312 L 198.777344 238.433594 L 200.128906 217.535156 Z M 216.425781 215.402344 " transform="matrix(1,0,0,1,-74,-13)"/>
<path style="fill-rule:nonzero;fill:rgb(39.99939%,39.99939%,39.99939%);fill-opacity:1;stroke-width:0.03;stroke-linecap:square;stroke-linejoin:miter;stroke:rgb(39.99939%,39.99939%,39.99939%);stroke-opacity:1;stroke-miterlimit:3.239307;" d="M 315.929688 201.539062 L 314.015625 225.59375 L 294.457031 226.664062 L 296.695312 204.246094 Z M 315.929688 201.539062 " transform="matrix(1,0,0,1,-74,-13)"/>
<path style="fill-rule:nonzero;fill:rgb(39.99939%,39.99939%,39.99939%);fill-opacity:1;stroke-width:0.03;stroke-linecap:square;stroke-linejoin:miter;stroke:rgb(39.99939%,39.99939%,39.99939%);stroke-opacity:1;stroke-miterlimit:3.239307;" d="M 293.34375 204.785156 L 291.773438 227.277344 L 275.40625 229.140625 L 276.972656 207.019531 Z M 293.34375 204.785156 " transform="matrix(1,0,0,1,-74,-13)"/>
<path style="fill-rule:nonzero;fill:rgb(39.99939%,39.99939%,39.99939%);fill-opacity:1;stroke-width:0.03;stroke-linecap:square;stroke-linejoin:miter;stroke:rgb(39.99939%,39.99939%,39.99939%);stroke-opacity:1;stroke-miterlimit:3.239307;" d="M 353.207031 306.105469 L 351.421875 308.148438 L 348.082031 311.082031 L 342.492188 313.527344 L 310.609375 304.445312 L 315.300781 254.199219 L 374.855469 248.046875 L 372.699219 298.054688 L 372.625 298.269531 L 366.3125 299.804688 L 366.855469 289.140625 L 365.859375 289.183594 L 364.832031 289.261719 L 364.140625 300.234375 L 359.585938 302.359375 L 357.066406 303.09375 L 355.480469 304.367188 Z M 353.207031 306.105469 " transform="matrix(1,0,0,1,-74,-13)"/>
<path style="fill-rule:nonzero;fill:rgb(39.99939%,39.99939%,39.99939%);fill-opacity:1;stroke-width:0.03;stroke-linecap:square;stroke-linejoin:miter;stroke:rgb(39.99939%,39.99939%,39.99939%);stroke-opacity:1;stroke-miterlimit:3.239307;" d="M 313.25 253.886719 L 308.703125 304.476562 L 287.648438 305.699219 L 278.972656 305.25 L 274.835938 304.605469 L 271.007812 304.292969 L 270.929688 296.039062 L 272.71875 258.1875 L 289.882812 256.375 L 287.730469 299.0625 L 288.847656 299.035156 L 289.9375 298.945312 L 292.476562 256.089844 Z M 313.25 253.886719 " transform="matrix(1,0,0,1,-74,-13)"/>
<path style="fill-rule:nonzero;fill:rgb(39.99939%,39.99939%,39.99939%);fill-opacity:1;stroke-width:0.03;stroke-linecap:square;stroke-linejoin:miter;stroke:rgb(39.99939%,39.99939%,39.99939%);stroke-opacity:1;stroke-miterlimit:3.239307;" d="M 313.742188 227.691406 L 312.996094 251.679688 L 293.148438 253.222656 L 293.925781 229.367188 Z M 313.742188 227.691406 " transform="matrix(1,0,0,1,-74,-13)"/>
<path style="fill-rule:nonzero;fill:rgb(39.99939%,39.99939%,39.99939%);fill-opacity:1;stroke-width:0.03;stroke-linecap:square;stroke-linejoin:miter;stroke:rgb(39.99939%,39.99939%,39.99939%);stroke-opacity:1;stroke-miterlimit:3.239307;" d="M 215.882812 265.054688 L 231.652344 263.550781 L 228.890625 303.933594 L 213.1875 301.515625 Z M 215.882812 265.054688 " transform="matrix(1,0,0,1,-74,-13)"/>
<path style="fill-rule:nonzero;fill:rgb(39.99939%,39.99939%,39.99939%);fill-opacity:1;stroke-width:0.03;stroke-linecap:square;stroke-linejoin:miter;stroke:rgb(39.99939%,39.99939%,39.99939%);stroke-opacity:1;stroke-miterlimit:3.239307;" d="M 290.996094 229.890625 L 290.367188 253.726562 L 273.410156 255.65625 L 275.042969 231.941406 Z M 290.996094 229.890625 " transform="matrix(1,0,0,1,-74,-13)"/>
<path style="fill-rule:nonzero;fill:rgb(39.99939%,39.99939%,39.99939%);fill-opacity:1;stroke-width:0.03;stroke-linecap:square;stroke-linejoin:miter;stroke:rgb(39.99939%,39.99939%,39.99939%);stroke-opacity:1;stroke-miterlimit:3.239307;" d="M 375.023438 244.625 L 315.460938 251.566406 L 318.84375 201.023438 L 377.40625 212.425781 L 376.285156 227.273438 Z M 375.023438 244.625 " transform="matrix(1,0,0,1,-74,-13)"/>
<path style="fill-rule:nonzero;fill:rgb(39.99939%,39.99939%,39.99939%);fill-opacity:1;stroke-width:0.03;stroke-linecap:square;stroke-linejoin:miter;stroke:rgb(39.99939%,39.99939%,39.99939%);stroke-opacity:1;stroke-miterlimit:3.239307;" d="M 197.523438 267.320312 L 212.863281 265.730469 L 210.667969 300.296875 L 195.859375 291.355469 Z M 197.523438 267.320312 " transform="matrix(1,0,0,1,-74,-13)"/>
<path style="fill-rule:nonzero;fill:rgb(39.99939%,39.99939%,39.99939%);fill-opacity:1;stroke-width:0.03;stroke-linecap:square;stroke-linejoin:miter;stroke:rgb(39.99939%,39.99939%,39.99939%);stroke-opacity:1;stroke-miterlimit:3.239307;" d="M 298.128906 175.8125 L 317.28125 176.359375 L 316.363281 198.351562 L 296.6875 201.050781 Z M 298.128906 175.8125 " transform="matrix(1,0,0,1,-74,-13)"/>
<path style="fill-rule:nonzero;fill:rgb(39.99939%,39.99939%,39.99939%);fill-opacity:1;stroke-width:0.03;stroke-linecap:square;stroke-linejoin:miter;stroke:rgb(39.99939%,39.99939%,39.99939%);stroke-opacity:1;stroke-miterlimit:3.239307;" d="M 278.917969 183.203125 L 294.578125 181.730469 L 293.613281 201.71875 L 277.3125 203.953125 Z M 278.917969 183.203125 " transform="matrix(1,0,0,1,-74,-13)"/>
<path style="fill-rule:nonzero;fill:rgb(39.99939%,39.99939%,39.99939%);fill-opacity:1;stroke-width:0.03;stroke-linecap:square;stroke-linejoin:miter;stroke:rgb(39.99939%,39.99939%,39.99939%);stroke-opacity:1;stroke-miterlimit:3.239307;" d="M 279.945312 164.253906 L 295.074219 170.152344 L 295.011719 173.738281 L 279.941406 180.324219 Z M 279.945312 164.253906 " transform="matrix(1,0,0,1,-74,-13)"/>
<path style="fill-rule:nonzero;fill:rgb(39.99939%,39.99939%,39.99939%);fill-opacity:1;stroke-width:0.03;stroke-linecap:square;stroke-linejoin:miter;stroke:rgb(39.99939%,39.99939%,39.99939%);stroke-opacity:1;stroke-miterlimit:3.239307;" d="M 372.511719 300.359375 L 371.667969 309.125 L 370.71875 321.570312 L 345.476562 314.378906 L 348.667969 313.058594 L 354.460938 308.3125 L 358.324219 305.019531 L 362.484375 302.863281 L 364.902344 302.046875 L 368.9375 301.042969 Z M 372.511719 300.359375 " transform="matrix(1,0,0,1,-74,-13)"/>
<path style="fill-rule:nonzero;fill:rgb(39.99939%,39.99939%,39.99939%);fill-opacity:1;stroke-width:0.03;stroke-linecap:square;stroke-linejoin:miter;stroke:rgb(39.99939%,39.99939%,39.99939%);stroke-opacity:1;stroke-miterlimit:3.239307;" d="M 125.429688 220.464844 L 128.601562 216.378906 L 133.101562 222 Z M 125.429688 220.464844 " transform="matrix(1,0,0,1,-74,-13)"/>
<path style="fill-rule:nonzero;fill:rgb(39.99939%,39.99939%,39.99939%);fill-opacity:1;stroke-width:0.03;stroke-linecap:square;stroke-linejoin:miter;stroke:rgb(39.99939%,39.99939%,39.99939%);stroke-opacity:1;stroke-miterlimit:3.239307;" d="M 188.109375 178 L 188.683594 179.105469 L 152.335938 197.726562 L 152.542969 197.617188 L 165.726562 190.035156 L 180.882812 182.128906 Z M 188.109375 178 " transform="matrix(1,0,0,1,-74,-13)"/>
<path style="fill-rule:nonzero;fill:rgb(39.99939%,39.99939%,39.99939%);fill-opacity:1;stroke-width:0.03;stroke-linecap:square;stroke-linejoin:miter;stroke:rgb(39.99939%,39.99939%,39.99939%);stroke-opacity:1;stroke-miterlimit:3.239307;" d="M 237.667969 188.453125 L 236.09375 209.476562 L 219.773438 211.804688 L 220.613281 190.628906 Z M 237.667969 188.453125 " transform="matrix(1,0,0,1,-74,-13)"/>
<path style="fill-rule:nonzero;fill:rgb(39.99939%,39.99939%,39.99939%);fill-opacity:1;stroke-width:0.03;stroke-linecap:square;stroke-linejoin:miter;stroke:rgb(39.99939%,39.99939%,39.99939%);stroke-opacity:1;stroke-miterlimit:3.239307;" d="M 257.890625 185.871094 L 255.742188 206.757812 L 238.902344 209.011719 L 240.964844 188.046875 Z M 257.890625 185.871094 " transform="matrix(1,0,0,1,-74,-13)"/>
<path style="fill-rule:nonzero;fill:rgb(39.99939%,39.99939%,39.99939%);fill-opacity:1;stroke-width:0.03;stroke-linecap:square;stroke-linejoin:miter;stroke:rgb(39.99939%,39.99939%,39.99939%);stroke-opacity:1;stroke-miterlimit:3.239307;" d="M 208.058594 168.808594 L 208.265625 169.285156 L 191.359375 177.5 L 190.847656 176.488281 L 201.3125 171.253906 L 207.574219 168.949219 Z M 208.058594 168.808594 " transform="matrix(1,0,0,1,-74,-13)"/>
<path style="fill-rule:nonzero;fill:rgb(39.99939%,39.99939%,39.99939%);fill-opacity:1;stroke-width:0.03;stroke-linecap:square;stroke-linejoin:miter;stroke:rgb(39.99939%,39.99939%,39.99939%);stroke-opacity:1;stroke-miterlimit:3.239307;" d="M 351.578125 152.238281 L 320.371094 151.046875 L 319.789062 170.742188 L 298.589844 169.003906 L 300.855469 132.851562 L 382.570312 132.03125 L 379.941406 174.414062 L 322.878906 170.9375 L 323.574219 153.800781 L 351.582031 154.742188 L 351.582031 153.484375 Z M 351.578125 152.238281 " transform="matrix(1,0,0,1,-74,-13)"/>
<path style="fill-rule:nonzero;fill:rgb(39.99939%,39.99939%,39.99939%);fill-opacity:1;stroke-width:0.03;stroke-linecap:square;stroke-linejoin:miter;stroke:rgb(39.99939%,39.99939%,39.99939%);stroke-opacity:1;stroke-miterlimit:3.239307;" d="M 278.628906 140.671875 L 278.207031 149.183594 L 277.628906 160.882812 L 267.261719 158.207031 L 261.464844 156.707031 L 261.167969 151.136719 L 268.863281 147.023438 Z M 278.628906 140.671875 " transform="matrix(1,0,0,1,-74,-13)"/>
<path style="fill-rule:nonzero;fill:rgb(39.99939%,39.99939%,39.99939%);fill-opacity:1;stroke-width:0.03;stroke-linecap:square;stroke-linejoin:miter;stroke:rgb(39.99939%,39.99939%,39.99939%);stroke-opacity:1;stroke-miterlimit:3.239307;" d="M 382.199219 127.113281 L 382.171875 129.136719 L 369.59375 129.382812 L 369.570312 127.386719 Z M 382.199219 127.113281 " transform="matrix(1,0,0,1,-74,-13)"/>
<path style="fill-rule:nonzero;fill:rgb(39.99939%,39.99939%,39.99939%);fill-opacity:1;stroke-width:0.03;stroke-linecap:square;stroke-linejoin:miter;stroke:rgb(39.99939%,39.99939%,39.99939%);stroke-opacity:1;stroke-miterlimit:3.239307;" d="M 289.53125 134.53125 L 292.519531 133.308594 L 294.902344 132.605469 L 297.734375 132.386719 L 295.734375 168.269531 L 280.441406 161.613281 L 281.328125 139.289062 Z M 289.53125 134.53125 " transform="matrix(1,0,0,1,-74,-13)"/>
<path style="fill-rule:nonzero;fill:rgb(39.99939%,39.99939%,39.99939%);fill-opacity:1;stroke-width:0.03;stroke-linecap:square;stroke-linejoin:miter;stroke:rgb(39.99939%,39.99939%,39.99939%);stroke-opacity:1;stroke-miterlimit:3.239307;" d="M 320.226562 176.964844 L 379.539062 180.523438 L 377.625 209.496094 L 319.457031 198.023438 Z M 320.226562 176.964844 " transform="matrix(1,0,0,1,-74,-13)"/>
<path style="fill-rule:nonzero;fill:rgb(39.99939%,39.99939%,39.99939%);fill-opacity:1;stroke-width:0.03;stroke-linecap:square;stroke-linejoin:miter;stroke:rgb(39.99939%,39.99939%,39.99939%);stroke-opacity:1;stroke-miterlimit:3.239307;" d="M 252 261.191406 L 250.039062 296.269531 L 250.933594 296.214844 L 251.824219 296.15625 L 254.644531 261.03125 L 270.941406 259.308594 L 268.683594 304.347656 L 267.617188 304.691406 L 249.753906 304.378906 L 231.289062 304.078125 L 234.664062 263.289062 Z M 252 261.191406 " transform="matrix(1,0,0,1,-74,-13)"/>
<path style="fill-rule:nonzero;fill:rgb(39.99939%,39.99939%,39.99939%);fill-opacity:1;stroke-width:0.03;stroke-linecap:square;stroke-linejoin:miter;stroke:rgb(39.99939%,39.99939%,39.99939%);stroke-opacity:1;stroke-miterlimit:3.239307;" d="M 323.429688 129.40625 L 323.4375 129.566406 L 295.289062 130.210938 L 299.507812 129.40625 Z M 323.429688 129.40625 " transform="matrix(1,0,0,1,-74,-13)"/>
<path style=" stroke:none;fill-rule:evenodd;fill:rgb(85.096741%,85.096741%,81.959534%);fill-opacity:0.7;" d="M 316.179688 278 C 316.179688 274.503906 314.792969 271.152344 312.320312 268.679688 C 309.847656 266.207031 306.496094 264.820312 303 264.820312 C 299.503906 264.820312 296.152344 266.207031 293.679688 268.679688 C 291.207031 271.152344 289.820312 274.503906 289.820312 278 C 289.820312 281.496094 291.207031 284.847656 293.679688 287.320312 C 296.152344 289.792969 299.503906 291.179688 303 291.179688 C 306.496094 291.179688 309.847656 289.792969 312.320312 287.320312 C 314.792969 284.847656 316.179688 281.496094 316.179688 278 Z M 316.179688 278 "/>
<path style=" stroke:none;fill-rule:evenodd;fill:rgb(85.096741%,85.096741%,81.959534%);fill-opacity:0.7;" d="M 222.179688 150 C 222.179688 146.503906 220.792969 143.152344 218.320312 140.679688 C 215.847656 138.207031 212.496094 136.820312 209 136.820312 C 205.503906 136.820312 202.152344 138.207031 199.679688 140.679688 C 197.207031 143.152344 195.820312 146.503906 195.820312 150 C 195.820312 153.496094 197.207031 156.847656 199.679688 159.320312 C 202.152344 161.792969 205.503906 163.179688 209 163.179688 C 212.496094 163.179688 215.847656 161.792969 218.320312 159.320312 C 220.792969 156.847656 222.179688 153.496094 222.179688 150 Z M 222.179688 150 "/>
<path style=" stroke:none;fill-rule:evenodd;fill:rgb(85.096741%,85.096741%,81.959534%);fill-opacity:0.7;" d="M 314.179688 117 C 314.179688 113.503906 312.792969 110.152344 310.320312 107.679688 C 307.847656 105.207031 304.496094 103.820312 301 103.820312 C 297.503906 103.820312 294.152344 105.207031 291.679688 107.679688 C 289.207031 110.152344 287.820312 113.503906 287.820312 117 C 287.820312 120.496094 289.207031 123.847656 291.679688 126.320312 C 294.152344 128.792969 297.503906 130.179688 301 130.179688 C 304.496094 130.179688 307.847656 128.792969 310.320312 126.320312 C 312.792969 123.847656 314.179688 120.496094 314.179688 117 Z M 314.179688 117 "/>
</g>
</svg>
