<?xml version="1.0" encoding="UTF-8"?>
<svg xmlns="http://www.w3.org/2000/svg" xmlns:xlink="http://www.w3.org/1999/xlink" width="361pt" height="361pt" viewBox="0 0 361 361" version="1.1">
<defs>
<clipPath id="clip1">
  <path d="M 308 303 L 360 303 L 360 307 L 308 307 Z M 308 303 "/>
</clipPath>
<clipPath id="clip2">
  <path d="M 17 324 L 72 324 L 72 360 L 17 360 Z M 17 324 "/>
</clipPath>
<clipPath id="clip3">
  <path d="M 34 336 L 92 336 L 92 360 L 34 360 Z M 34 336 "/>
</clipPath>
<clipPath id="clip4">
  <path d="M 53 351 L 109 351 L 109 360 L 53 360 Z M 53 351 "/>
</clipPath>
<clipPath id="clip5">
  <path d="M 125 359 L 173 359 L 173 360 L 125 360 Z M 125 359 "/>
</clipPath>
<clipPath id="clip6">
  <path d="M 0 314 L 18 314 L 18 360 L 0 360 Z M 0 314 "/>
</clipPath>
<clipPath id="clip7">
  <path d="M 0 328 L 39 328 L 39 360 L 0 360 Z M 0 328 "/>
</clipPath>
<clipPath id="clip8">
  <path d="M 158 318 L 211 318 L 211 360 L 158 360 Z M 158 318 "/>
</clipPath>
<clipPath id="clip9">
  <path d="M 112 304 L 360 304 L 360 360 L 112 360 Z M 112 304 "/>
</clipPath>
<clipPath id="clip10">
  <path d="M 59 304 L 194 304 L 194 360 L 59 360 Z M 59 304 "/>
</clipPath>
</defs>
<g id="surface2303">
<path style="fill-rule:nonzero;fill:rgb(0%,0%,0%);fill-opacity:1;stroke-width:0.03;stroke-linecap:square;stroke-linejoin:miter;stroke:rgb(0%,0%,0%);stroke-opacity:1;stroke-miterlimit:10;" d="M 0 178 L 360 178 L 360 -182 L 0 -182 Z M 0 178 " transform="matrix(1,0,0,1,0,182)"/>
<g clip-path="url(#clip1)" clip-rule="nonzero">
<path style=" stroke:none;fill-rule:nonzero;fill:rgb(39.99939%,39.99939%,39.99939%);fill-opacity:0.3;" d="M 308.925781 304.488281 L 309.671875 303.410156 L 360.339844 304.910156 L 364.027344 306.074219 L 364.160156 306.210938 L 347.011719 304.925781 Z M 308.925781 304.488281 "/>
</g>
<path style=" stroke:none;fill-rule:nonzero;fill:rgb(39.99939%,39.99939%,39.99939%);fill-opacity:0.3;" d="M 316.664062 289.761719 L 312.109375 302.015625 L 302.171875 302.839844 L 308.570312 281.183594 L 311.429688 283.214844 L 316.414062 287.929688 Z M 316.664062 289.761719 "/>
<path style=" stroke:none;fill-rule:nonzero;fill:rgb(39.99939%,39.99939%,39.99939%);fill-opacity:0.3;" d="M 226.3125 221.839844 L 228.152344 222.210938 L 233.917969 224.332031 L 236.53125 225.445312 L 240.453125 226.101562 L 244.191406 227.371094 L 250.324219 229.105469 L 255.105469 234.910156 L 251.71875 233.585938 L 226.722656 222.128906 Z M 226.3125 221.839844 "/>
<path style=" stroke:none;fill-rule:nonzero;fill:rgb(39.99939%,39.99939%,39.99939%);fill-opacity:0.3;" d="M 250.925781 298.855469 L 264.054688 304.535156 L 266.027344 305.386719 L 270.21875 306.464844 L 274.960938 307.75 L 274.59375 308.105469 L 273.589844 308.050781 L 264.734375 307.007812 L 249.109375 300.574219 Z M 250.925781 298.855469 "/>
<path style=" stroke:none;fill-rule:nonzero;fill:rgb(39.99939%,39.99939%,39.99939%);fill-opacity:0.3;" d="M 52.492188 201.71875 L 61.375 208.464844 L 72.835938 215.503906 L 86.265625 224.46875 L 93.042969 230.042969 L 103.113281 236.726562 L 107.074219 238.292969 L 115.921875 240.648438 L 120.160156 241.34375 L 124.03125 243.089844 L 133.703125 248.847656 L 143.269531 253.945312 L 145.332031 254.949219 L 146.191406 255.441406 L 145.855469 256.050781 L 140.277344 253.371094 L 136.632812 252.332031 L 131.945312 248.6875 L 109.035156 240.875 L 93.933594 233.0625 L 51.429688 203.117188 Z M 52.492188 201.71875 "/>
<path style=" stroke:none;fill-rule:nonzero;fill:rgb(39.99939%,39.99939%,39.99939%);fill-opacity:0.3;" d="M 148.070312 257.113281 L 148.289062 256.710938 L 156.46875 259.785156 L 156.054688 260.625 L 153.296875 259.621094 Z M 148.070312 257.113281 "/>
<path style=" stroke:none;fill-rule:nonzero;fill:rgb(39.99939%,39.99939%,39.99939%);fill-opacity:0.3;" d="M 157.921875 261.304688 L 158.1875 260.800781 L 160.992188 261.738281 L 162.070312 261.980469 L 159.023438 261.703125 Z M 157.921875 261.304688 "/>
<path style=" stroke:none;fill-rule:nonzero;fill:rgb(39.99939%,39.99939%,39.99939%);fill-opacity:0.3;" d="M 196.15625 262.441406 L 197.46875 262.824219 L 206.515625 268.902344 L 207.578125 269.609375 L 206.902344 270.285156 L 198.082031 263.789062 Z M 196.15625 262.441406 "/>
<path style=" stroke:none;fill-rule:nonzero;fill:rgb(39.99939%,39.99939%,39.99939%);fill-opacity:0.3;" d="M 278.429688 308.320312 L 294.390625 306.03125 L 282.960938 308.570312 Z M 278.429688 308.320312 "/>
<path style=" stroke:none;fill-rule:nonzero;fill:rgb(39.99939%,39.99939%,39.99939%);fill-opacity:0.3;" d="M 247.992188 297.277344 L 246.175781 299.007812 L 243.90625 297.113281 L 229.449219 286.148438 L 229.574219 286.023438 L 230.894531 286.4375 L 240.867188 292.828125 Z M 247.992188 297.277344 "/>
<path style=" stroke:none;fill-rule:nonzero;fill:rgb(39.99939%,39.99939%,39.99939%);fill-opacity:0.3;" d="M 209.734375 272.414062 L 210.742188 271.445312 L 218.652344 277.65625 L 226.949219 283.6875 L 226.324219 284.304688 L 223.078125 282.535156 Z M 209.734375 272.414062 "/>
<path style=" stroke:none;fill-rule:nonzero;fill:rgb(39.99939%,39.99939%,39.99939%);fill-opacity:0.3;" d="M 302.171875 302.839844 L 298.261719 303.164062 L 290.730469 303.929688 L 281.652344 304.847656 L 279.738281 304.851562 L 295.125 277.976562 L 294.101562 277.683594 L 293.078125 277.394531 L 277.757812 304.996094 L 274.6875 305.386719 L 270.59375 304.90625 L 260.511719 301.066406 L 249.71875 294.933594 L 267.089844 268.027344 L 265.652344 267.347656 L 247.5625 293.84375 L 232.164062 284.03125 L 227.269531 280.214844 L 252.214844 242.410156 L 251.738281 241.707031 L 251.257812 241.003906 L 225.019531 278.210938 L 209.199219 267.433594 L 202.671875 262.992188 L 229.765625 224.074219 L 228.941406 223.464844 L 228.117188 222.859375 L 201.042969 261.664062 L 193.710938 258.886719 L 221.367188 220.847656 L 226.3125 221.839844 L 226.722656 222.128906 L 251.71875 233.585938 L 255.105469 234.910156 L 261.121094 242.214844 L 268.6875 251.335938 L 273.992188 259.359375 L 284.480469 265.988281 L 293.921875 271.601562 L 304.425781 278.238281 L 308.570312 281.183594 Z M 302.171875 302.839844 "/>
<path style=" stroke:none;fill-rule:nonzero;fill:rgb(39.99939%,39.99939%,39.99939%);fill-opacity:0.3;" d="M 274.59375 308.105469 L 241.863281 339.964844 L 232.652344 347.339844 L 215.855469 332.039062 L 249.109375 300.574219 L 264.734375 307.007812 L 273.589844 308.050781 Z M 274.59375 308.105469 "/>
<g clip-path="url(#clip2)" clip-rule="nonzero">
<path style=" stroke:none;fill-rule:nonzero;fill:rgb(39.99939%,39.99939%,39.99939%);fill-opacity:0.3;" d="M 31.195312 388.089844 L 17.4375 377.800781 L 56.875 324.992188 L 58.332031 324.445312 L 71.777344 333.847656 Z M 31.195312 388.089844 "/>
</g>
<path style=" stroke:none;fill-rule:nonzero;fill:rgb(39.99939%,39.99939%,39.99939%);fill-opacity:0.3;" d="M 130.910156 324.90625 L 152.847656 295.21875 L 169.890625 304.816406 L 141.128906 332.34375 Z M 130.910156 324.90625 "/>
<g clip-path="url(#clip3)" clip-rule="nonzero">
<path style=" stroke:none;fill-rule:nonzero;fill:rgb(39.99939%,39.99939%,39.99939%);fill-opacity:0.3;" d="M 50.058594 403.300781 L 34.484375 391.257812 L 74.425781 337.269531 L 75.566406 336.875 L 91.5 348.53125 Z M 50.058594 403.300781 "/>
</g>
<g clip-path="url(#clip4)" clip-rule="nonzero">
<path style=" stroke:none;fill-rule:nonzero;fill:rgb(39.99939%,39.99939%,39.99939%);fill-opacity:0.3;" d="M 67.992188 418.160156 L 53.703125 406.285156 L 94.203125 351.328125 L 95.003906 351.175781 L 108.082031 361.28125 Z M 67.992188 418.160156 "/>
</g>
<path style=" stroke:none;fill-rule:nonzero;fill:rgb(39.99939%,39.99939%,39.99939%);fill-opacity:0.3;" d="M 110.910156 303.578125 L 85.050781 340.21875 L 68.925781 328.214844 L 94.46875 291.34375 Z M 110.910156 303.578125 "/>
<path style=" stroke:none;fill-rule:nonzero;fill:rgb(39.99939%,39.99939%,39.99939%);fill-opacity:0.3;" d="M 129.867188 317.519531 L 104.007812 354.15625 L 87.886719 342.152344 L 113.425781 305.28125 Z M 129.867188 317.519531 "/>
<path style=" stroke:none;fill-rule:nonzero;fill:rgb(39.99939%,39.99939%,39.99939%);fill-opacity:0.3;" d="M 39.355469 213.292969 L -3.664062 183.207031 L -1.761719 182.367188 L -0.835938 182.40625 L 17.382812 184.636719 L 29.484375 188.507812 L 31.5 189.925781 L 36.136719 192.679688 L 47.847656 200.601562 Z M 39.355469 213.292969 "/>
<path style=" stroke:none;fill-rule:nonzero;fill:rgb(39.99939%,39.99939%,39.99939%);fill-opacity:0.3;" d="M -6.589844 183.617188 L 37.667969 215.371094 L 27.035156 230.730469 L -18.507812 199.601562 L -7.53125 183.679688 Z M -6.589844 183.617188 "/>
<path style=" stroke:none;fill-rule:nonzero;fill:rgb(39.99939%,39.99939%,39.99939%);fill-opacity:0.3;" d="M -20.269531 202.367188 L 24.644531 233.644531 L 11.707031 251.164062 L -32.648438 218.953125 Z M -20.269531 202.367188 "/>
<path style=" stroke:none;fill-rule:nonzero;fill:rgb(39.99939%,39.99939%,39.99939%);fill-opacity:0.3;" d="M -34.296875 221.371094 L 9.941406 254.042969 L -1.949219 271.214844 L -2.730469 271.28125 L -47.023438 238.296875 L -47.132812 237.503906 Z M -34.296875 221.371094 "/>
<g clip-path="url(#clip5)" clip-rule="nonzero">
<path style=" stroke:none;fill-rule:nonzero;fill:rgb(39.99939%,39.99939%,39.99939%);fill-opacity:0.3;" d="M 164.660156 382.253906 L 148.539062 404.707031 L 126.261719 394.890625 L 125.808594 394 L 146.148438 360.582031 L 147.1875 359.601562 L 148.707031 359.40625 L 153.195312 360.578125 L 172.257812 372.691406 Z M 164.660156 382.253906 "/>
</g>
<g clip-path="url(#clip6)" clip-rule="nonzero">
<path style=" stroke:none;fill-rule:nonzero;fill:rgb(39.99939%,39.99939%,39.99939%);fill-opacity:0.3;" d="M -4.628906 360.679688 L -21.03125 348.472656 L 1.753906 314.957031 L 17.757812 327.15625 Z M -4.628906 360.679688 "/>
</g>
<g clip-path="url(#clip7)" clip-rule="nonzero">
<path style=" stroke:none;fill-rule:nonzero;fill:rgb(39.99939%,39.99939%,39.99939%);fill-opacity:0.3;" d="M 20.066406 328.625 L 38.125 341.96875 L 14.332031 375.292969 L -2.304688 363.277344 Z M 20.066406 328.625 "/>
</g>
<path style=" stroke:none;fill-rule:nonzero;fill:rgb(39.99939%,39.99939%,39.99939%);fill-opacity:0.3;" d="M 145.855469 256.050781 L 140.914062 265.074219 L 142.03125 265.671875 L 143.148438 266.265625 L 148.070312 257.113281 L 153.296875 259.621094 L 156.054688 260.625 L 152.296875 268.289062 L 153.851562 269.101562 L 157.921875 261.304688 L 159.023438 261.703125 L 162.070312 261.980469 L 164.71875 262.574219 L 169.242188 262.929688 L 173.234375 262.855469 L 178.300781 262.84375 L 184.65625 262.03125 L 188.890625 261.527344 L 193.019531 261.523438 L 196.15625 262.441406 L 198.082031 263.789062 L 206.902344 270.285156 L 173.816406 303.324219 L 153.796875 291.121094 L 152.03125 290.175781 L 150.804688 290.398438 L 132.273438 314.917969 L 116.230469 303.390625 L 133.628906 279.101562 L 132.414062 278.492188 L 131.195312 277.882812 L 113.589844 300.699219 L 97.460938 288.882812 L 97.335938 288.003906 L 116.160156 259.585938 L 115.042969 258.9375 L 113.925781 258.285156 L 94.035156 286.015625 L 66.882812 324.085938 L 66.054688 324.480469 L 64.847656 324.257812 L 61.714844 322.910156 L 59.550781 322.199219 L 56.921875 322.199219 L 55.320312 322.582031 L 54.175781 323.289062 L 53.320312 324.265625 L 40.609375 340.238281 L 23.273438 327.6875 L 30.425781 318.132812 L 28.035156 316.554688 L 20.738281 325.699219 L 5.242188 313.792969 L 17.183594 297.230469 L 16.121094 296.539062 L 15.0625 295.851562 L 3.003906 311.496094 L -14.871094 298.945312 L 0.664062 275.617188 L 42.535156 214.84375 L 51.429688 203.117188 L 93.933594 233.0625 L 109.035156 240.875 L 131.945312 248.6875 L 136.632812 252.332031 L 140.277344 253.371094 Z M 145.855469 256.050781 "/>
<g clip-path="url(#clip8)" clip-rule="nonzero">
<path style=" stroke:none;fill-rule:nonzero;fill:rgb(39.99939%,39.99939%,39.99939%);fill-opacity:0.3;" d="M 210.996094 332.242188 L 173.625 368.996094 L 158.863281 359.675781 L 196.4375 318.792969 Z M 210.996094 332.242188 "/>
</g>
<path style=" stroke:none;fill-rule:nonzero;fill:rgb(39.99939%,39.99939%,39.99939%);fill-opacity:0.3;" d="M 278.230469 308.347656 L 278.429688 308.320312 L 282.960938 308.570312 L 294.390625 306.03125 L 304.269531 304.617188 L 305.136719 305.09375 L 305.066406 306.195312 L 284.453125 334.632812 L 282.613281 337.152344 L 280.421875 339.234375 L 258.417969 358.960938 L 237.894531 347.894531 L 275.601562 309.96875 Z M 278.230469 308.347656 "/>
<path style=" stroke:none;fill-rule:nonzero;fill:rgb(39.99939%,39.99939%,39.99939%);fill-opacity:0.3;" d="M 246.175781 299.007812 L 213.554688 330.082031 L 198.621094 317.117188 L 229.449219 286.148438 L 243.90625 297.113281 Z M 246.175781 299.007812 "/>
<path style=" stroke:none;fill-rule:nonzero;fill:rgb(39.99939%,39.99939%,39.99939%);fill-opacity:0.3;" d="M 196.199219 314.261719 L 178.511719 302.445312 L 209.734375 272.414062 L 223.078125 282.535156 L 226.324219 284.304688 Z M 196.199219 314.261719 "/>
<g clip-path="url(#clip9)" clip-rule="nonzero">
<path style=" stroke:none;fill-rule:nonzero;fill:rgb(39.99939%,39.99939%,39.99939%);fill-opacity:0.3;" d="M 166.640625 383.289062 L 177.027344 370.828125 L 208.738281 338.542969 L 212.882812 334.324219 L 227.949219 347.488281 L 229.855469 349.492188 L 224.0625 355.125 L 224.921875 355.878906 L 225.78125 356.636719 L 233.113281 349.738281 L 234.367188 349.625 L 258.296875 362.53125 L 283.945312 340.621094 L 308.925781 304.488281 L 347.011719 304.925781 L 364.160156 306.210938 L 367.816406 310.050781 L 371.824219 312.929688 L 403.496094 326.273438 L 424.226562 330.492188 L 426.277344 339.148438 L 428.46875 352.132812 L 444.140625 374.316406 L 449.359375 388.105469 L 441.652344 405.398438 L 429.082031 414.828125 L 270.34375 367.796875 L 269.988281 368.707031 L 269.636719 369.621094 L 427.242188 416.640625 L 366.3125 516.847656 L 365.921875 516.753906 L 214.363281 471.898438 L 213.5625 471.550781 L 212.976562 470.992188 L 212.527344 470.144531 L 210.058594 462.683594 L 209.75 461.875 L 208.894531 460.546875 L 207.976562 459.917969 L 206.75 459.320312 L 198.875 457.792969 L 193.832031 456.886719 L 189.675781 456.425781 L 186.992188 455.839844 L 185.386719 455.066406 L 199.832031 430.949219 L 199.007812 430.519531 L 198.1875 430.089844 L 183.089844 453.949219 L 161.394531 442.617188 L 174.308594 420.105469 L 173.511719 419.691406 L 172.710938 419.277344 L 159.652344 441.476562 L 135.703125 428.402344 L 139.75 422.199219 L 138.980469 421.738281 L 138.207031 421.273438 L 134.125 427.546875 L 112.84375 416.222656 L 124.007812 397.085938 L 149.140625 408.300781 Z M 166.640625 383.289062 "/>
</g>
<g clip-path="url(#clip10)" clip-rule="nonzero">
<path style=" stroke:none;fill-rule:nonzero;fill:rgb(39.99939%,39.99939%,39.99939%);fill-opacity:0.3;" d="M 193.863281 316.265625 L 158.382812 355.226562 L 154.527344 357.378906 L 152.421875 356.746094 L 150.507812 355.476562 L 148.597656 354.753906 L 147.351562 354.269531 L 127.433594 342.144531 L 126.800781 342.84375 L 126.101562 343.625 L 145.386719 356.28125 L 123.375 393.445312 L 102.832031 383.726562 L 102.25 384.667969 L 101.667969 385.605469 L 122.171875 395.753906 L 111.78125 412.378906 L 89.964844 401.515625 L 89.484375 402.207031 L 89 402.894531 L 109.855469 414.0625 L 99.042969 431.808594 L 76.449219 419.925781 L 75.832031 420.902344 L 75.21875 421.875 L 97.917969 434.402344 L 87.710938 450.910156 L 59.925781 436.011719 L 111.632812 362.558594 L 111.375 361.886719 L 107.558594 359.097656 L 121.191406 339.878906 L 128.691406 329.304688 L 139.804688 337.105469 L 141.09375 337.105469 L 142.679688 336.066406 L 176.023438 304.367188 Z M 193.863281 316.265625 "/>
</g>
<path style=" stroke:none;fill-rule:nonzero;fill:rgb(39.99939%,39.99939%,39.99939%);fill-opacity:0.3;" d="M -0.835938 182.40625 L 5.710938 182.679688 L 12.988281 183.460938 L 19.964844 184.535156 L 26.515625 186.417969 L 29.484375 188.507812 L 17.382812 184.636719 Z M -0.835938 182.40625 "/>
<path style=" stroke:none;fill-rule:nonzero;fill:rgb(39.99939%,39.99939%,39.99939%);fill-opacity:0.3;" d="M 36.136719 192.679688 L 48.308594 199.910156 L 47.847656 200.601562 Z M 36.136719 192.679688 "/>
<path style=" stroke:none;fill-rule:nonzero;fill:rgb(39.99939%,39.99939%,39.99939%);fill-opacity:0.3;" d="M -111.371094 86.328125 L -95.554688 76.085938 L -61.988281 116.796875 L -50.664062 108.964844 L -33.542969 125.609375 L -17.476562 132.847656 L -6.804688 134.183594 L 5.789062 134.09375 L 18.953125 131.597656 L 19.570312 133.726562 L -5.265625 149.160156 L -23.722656 163.738281 L -28.933594 167.984375 L -33.105469 173.3125 L -40.449219 175.933594 L -55.148438 175.660156 L -72.292969 175.675781 L -87.296875 176.5625 L -94.953125 176.863281 L -97.707031 176.863281 L -100.769531 176.867188 L -96.796875 171.339844 L -93.125 166.976562 L -89.152344 161.453125 L -86.707031 157.378906 L -81.199219 152.433594 L -77.023438 148.636719 L -71.71875 143.125 L -66.214844 137.304688 L -58.363281 131.289062 L -53.054688 128.28125 L -48.046875 125.945312 L -40.8125 123.039062 L -39.34375 122.457031 L -39.699219 121.769531 L -40.074219 121.035156 L -41.464844 121.464844 L -48.785156 124.40625 L -53.90625 126.796875 L -59.382812 129.898438 L -67.441406 136.074219 L -73.035156 141.988281 L -78.296875 147.457031 L -82.425781 151.210938 L -88.121094 156.324219 L -90.660156 160.554688 L -94.554688 165.972656 L -98.226562 170.335938 L -103.617188 176.859375 L -105.078125 178.214844 L -112.003906 179.421875 L -114.617188 179.425781 L -118.039062 178.941406 L -126.339844 177.34375 L -126.539062 177.742188 L -144.878906 175.15625 L -136.992188 154.207031 L -135.765625 152.675781 L -129.9375 147.269531 L -122.160156 151.730469 L -121.722656 151.308594 L -121.28125 150.890625 L -128.734375 146.035156 L -119.890625 138.230469 L -113.84375 132.722656 L -111.722656 130.765625 L -109.410156 127.277344 L -107.808594 121.015625 L -107.683594 118.671875 L -106.515625 115.40625 L -104.699219 113.183594 L -100.679688 109.296875 L -97.566406 106.582031 L -93.484375 111.523438 L -92.117188 110.640625 Z M -111.371094 86.328125 "/>
<path style="fill-rule:nonzero;fill:rgb(39.99939%,39.99939%,39.99939%);fill-opacity:1;stroke-width:0.03;stroke-linecap:square;stroke-linejoin:miter;stroke:rgb(39.99939%,39.99939%,39.99939%);stroke-opacity:1;stroke-miterlimit:3.239307;" d="M 324.925781 311.855469 L 338.054688 317.535156 L 340.027344 318.386719 L 344.21875 319.464844 L 348.960938 320.75 L 348.59375 321.105469 L 347.589844 321.050781 L 338.734375 320.007812 L 323.109375 313.574219 Z M 324.925781 311.855469 " transform="matrix(1,0,0,1,-74,-13)"/>
<path style="fill-rule:nonzero;fill:rgb(39.99939%,39.99939%,39.99939%);fill-opacity:1;stroke-width:0.03;stroke-linecap:square;stroke-linejoin:miter;stroke:rgb(39.99939%,39.99939%,39.99939%);stroke-opacity:1;stroke-miterlimit:3.239307;" d="M 126.492188 214.71875 L 135.375 221.464844 L 146.835938 228.503906 L 160.265625 237.46875 L 167.042969 243.042969 L 177.113281 249.726562 L 181.074219 251.292969 L 189.921875 253.648438 L 194.160156 254.34375 L 198.03125 256.089844 L 207.703125 261.847656 L 217.269531 266.945312 L 219.332031 267.949219 L 220.191406 268.441406 L 219.855469 269.050781 L 214.277344 266.371094 L 210.632812 265.332031 L 205.945312 261.6875 L 183.035156 253.875 L 167.933594 246.0625 L 125.429688 216.117188 Z M 126.492188 214.71875 " transform="matrix(1,0,0,1,-74,-13)"/>
<path style="fill-rule:nonzero;fill:rgb(39.99939%,39.99939%,39.99939%);fill-opacity:1;stroke-width:0.03;stroke-linecap:square;stroke-linejoin:miter;stroke:rgb(39.99939%,39.99939%,39.99939%);stroke-opacity:1;stroke-miterlimit:3.239307;" d="M 222.070312 270.113281 L 222.289062 269.710938 L 230.46875 272.785156 L 230.054688 273.625 L 227.296875 272.621094 Z M 222.070312 270.113281 " transform="matrix(1,0,0,1,-74,-13)"/>
<path style="fill-rule:nonzero;fill:rgb(39.99939%,39.99939%,39.99939%);fill-opacity:1;stroke-width:0.03;stroke-linecap:square;stroke-linejoin:miter;stroke:rgb(39.99939%,39.99939%,39.99939%);stroke-opacity:1;stroke-miterlimit:3.239307;" d="M 231.921875 274.304688 L 232.1875 273.800781 L 234.992188 274.738281 L 236.070312 274.980469 L 233.023438 274.703125 Z M 231.921875 274.304688 " transform="matrix(1,0,0,1,-74,-13)"/>
<path style="fill-rule:nonzero;fill:rgb(39.99939%,39.99939%,39.99939%);fill-opacity:1;stroke-width:0.03;stroke-linecap:square;stroke-linejoin:miter;stroke:rgb(39.99939%,39.99939%,39.99939%);stroke-opacity:1;stroke-miterlimit:3.239307;" d="M 270.15625 275.441406 L 271.46875 275.824219 L 280.515625 281.902344 L 281.578125 282.609375 L 280.902344 283.285156 L 272.082031 276.789062 Z M 270.15625 275.441406 " transform="matrix(1,0,0,1,-74,-13)"/>
<path style="fill-rule:nonzero;fill:rgb(39.99939%,39.99939%,39.99939%);fill-opacity:1;stroke-width:0.03;stroke-linecap:square;stroke-linejoin:miter;stroke:rgb(39.99939%,39.99939%,39.99939%);stroke-opacity:1;stroke-miterlimit:3.239307;" d="M 352.429688 321.320312 L 368.390625 319.03125 L 356.960938 321.570312 Z M 352.429688 321.320312 " transform="matrix(1,0,0,1,-74,-13)"/>
<path style="fill-rule:nonzero;fill:rgb(39.99939%,39.99939%,39.99939%);fill-opacity:1;stroke-width:0.03;stroke-linecap:square;stroke-linejoin:miter;stroke:rgb(39.99939%,39.99939%,39.99939%);stroke-opacity:1;stroke-miterlimit:3.239307;" d="M 321.992188 310.277344 L 320.175781 312.007812 L 317.90625 310.113281 L 303.449219 299.148438 L 303.574219 299.023438 L 304.894531 299.4375 L 314.867188 305.828125 Z M 321.992188 310.277344 " transform="matrix(1,0,0,1,-74,-13)"/>
<path style="fill-rule:nonzero;fill:rgb(39.99939%,39.99939%,39.99939%);fill-opacity:1;stroke-width:0.03;stroke-linecap:square;stroke-linejoin:miter;stroke:rgb(39.99939%,39.99939%,39.99939%);stroke-opacity:1;stroke-miterlimit:3.239307;" d="M 283.734375 285.414062 L 284.742188 284.445312 L 292.652344 290.65625 L 300.949219 296.6875 L 300.324219 297.304688 L 297.078125 295.535156 Z M 283.734375 285.414062 " transform="matrix(1,0,0,1,-74,-13)"/>
<path style="fill-rule:nonzero;fill:rgb(39.99939%,39.99939%,39.99939%);fill-opacity:1;stroke-width:0.03;stroke-linecap:square;stroke-linejoin:miter;stroke:rgb(39.99939%,39.99939%,39.99939%);stroke-opacity:1;stroke-miterlimit:3.239307;" d="M 376.171875 315.839844 L 372.261719 316.164062 L 364.730469 316.929688 L 355.652344 317.847656 L 353.738281 317.851562 L 369.125 290.976562 L 368.101562 290.683594 L 367.078125 290.394531 L 351.757812 317.996094 L 348.6875 318.386719 L 344.59375 317.90625 L 334.511719 314.066406 L 323.71875 307.933594 L 341.089844 281.027344 L 339.652344 280.347656 L 321.5625 306.84375 L 306.164062 297.03125 L 301.269531 293.214844 L 326.214844 255.410156 L 325.738281 254.707031 L 325.257812 254.003906 L 299.019531 291.210938 L 283.199219 280.433594 L 276.671875 275.992188 L 303.765625 237.074219 L 302.941406 236.464844 L 302.117188 235.859375 L 275.042969 274.664062 L 267.710938 271.886719 L 295.367188 233.847656 L 300.3125 234.839844 L 300.722656 235.128906 L 325.71875 246.585938 L 329.105469 247.910156 L 335.121094 255.214844 L 342.6875 264.335938 L 347.992188 272.359375 L 358.480469 278.988281 L 367.921875 284.601562 L 378.425781 291.238281 L 382.570312 294.183594 Z M 376.171875 315.839844 " transform="matrix(1,0,0,1,-74,-13)"/>
</g>
</svg>
