<?xml version="1.0" encoding="UTF-8"?>
<svg xmlns="http://www.w3.org/2000/svg" xmlns:xlink="http://www.w3.org/1999/xlink" width="361pt" height="361pt" viewBox="0 0 361 361" version="1.1">
<defs>
<clipPath id="clip1">
  <path d="M 320 204 L 360 204 L 360 278 L 320 278 Z M 320 204 "/>
</clipPath>
<clipPath id="clip2">
  <path d="M 0 350 L 5 350 L 5 360 L 0 360 Z M 0 350 "/>
</clipPath>
<clipPath id="clip3">
  <path d="M 0 347 L 3 347 L 3 360 L 0 360 Z M 0 347 "/>
</clipPath>
<clipPath id="clip4">
  <path d="M 0 354 L 46 354 L 46 360 L 0 360 Z M 0 354 "/>
</clipPath>
<clipPath id="clip5">
  <path d="M 332 284 L 360 284 L 360 360 L 332 360 Z M 332 284 "/>
</clipPath>
<clipPath id="clip6">
  <path d="M 178 339 L 324 339 L 324 360 L 178 360 Z M 178 339 "/>
</clipPath>
<clipPath id="clip7">
  <path d="M 27 341 L 66 341 L 66 360 L 27 360 Z M 27 341 "/>
</clipPath>
<clipPath id="clip8">
  <path d="M 114 346 L 140 346 L 140 360 L 114 360 Z M 114 346 "/>
</clipPath>
<clipPath id="clip9">
  <path d="M 19 329 L 88 329 L 88 360 L 19 360 Z M 19 329 "/>
</clipPath>
<clipPath id="clip10">
  <path d="M 135 344 L 164 344 L 164 360 L 135 360 Z M 135 344 "/>
</clipPath>
<clipPath id="clip11">
  <path d="M 182 340 L 208 340 L 208 360 L 182 360 Z M 182 340 "/>
</clipPath>
<clipPath id="clip12">
  <path d="M 160 342 L 185 342 L 185 360 L 160 360 Z M 160 342 "/>
</clipPath>
<clipPath id="clip13">
  <path d="M 207 333 L 266 333 L 266 360 L 207 360 Z M 207 333 "/>
</clipPath>
<clipPath id="clip14">
  <path d="M 136 311 L 299 311 L 299 360 L 136 360 Z M 136 311 "/>
</clipPath>
<clipPath id="clip15">
  <path d="M 0 305 L 21 305 L 21 360 L 0 360 Z M 0 305 "/>
</clipPath>
<clipPath id="clip16">
  <path d="M 277 354 L 305 354 L 305 360 L 277 360 Z M 277 354 "/>
</clipPath>
</defs>
<g id="surface2443">
<path style="fill-rule:nonzero;fill:rgb(0%,0%,0%);fill-opacity:1;stroke-width:0.03;stroke-linecap:square;stroke-linejoin:miter;stroke:rgb(0%,0%,0%);stroke-opacity:1;stroke-miterlimit:10;" d="M 0 178 L 360 178 L 360 -182 L 0 -182 Z M 0 178 " transform="matrix(1,0,0,1,0,182)"/>
<path style=" stroke:none;fill-rule:nonzero;fill:rgb(39.99939%,39.99939%,39.99939%);fill-opacity:0.3;" d="M 91.71875 61.0625 L 92.230469 60.351562 L 92.886719 60.164062 L 130.15625 68.445312 L 134.75 106.746094 L 134.703125 108.4375 L 134.433594 109.511719 L 133.777344 110.460938 L 132.308594 111.207031 L 99.511719 109.027344 L 98.632812 108.46875 L 97.75 107.820312 L 97.257812 106.800781 Z M 91.71875 61.0625 "/>
<path style=" stroke:none;fill-rule:nonzero;fill:rgb(39.99939%,39.99939%,39.99939%);fill-opacity:0.3;" d="M 152.847656 142.269531 L 153.144531 141.425781 L 155.355469 140.503906 L 175.582031 141.765625 L 176.597656 142.234375 L 177.488281 143.359375 L 182.59375 196.660156 L 182.179688 197.960938 L 180.441406 199.230469 L 160.382812 198.117188 L 159.042969 196.976562 L 158.523438 195.554688 Z M 152.847656 142.269531 "/>
<path style=" stroke:none;fill-rule:nonzero;fill:rgb(39.99939%,39.99939%,39.99939%);fill-opacity:0.3;" d="M 179.121094 143.921875 L 180.023438 142.65625 L 181.589844 142.160156 L 202.625 143.144531 L 203.316406 144.167969 L 204.0625 145.855469 L 210.007812 197.636719 L 209.773438 198.820312 L 208.878906 200.007812 L 207.816406 200.699219 L 187.394531 199.347656 L 185.789062 198.207031 L 185 196.785156 Z M 179.121094 143.921875 "/>
<path style=" stroke:none;fill-rule:nonzero;fill:rgb(39.99939%,39.99939%,39.99939%);fill-opacity:0.3;" d="M 206.140625 145.855469 L 206.730469 145.007812 L 208.066406 144.019531 L 228.613281 145.09375 L 230.285156 146.703125 L 230.632812 148.492188 L 236.292969 198.375 L 235.796875 199.671875 L 234.539062 200.90625 L 232.554688 201.804688 L 214.445312 200.890625 L 213.046875 200 L 212.398438 198.777344 L 212.167969 197.570312 Z M 206.140625 145.855469 "/>
<path style=" stroke:none;fill-rule:nonzero;fill:rgb(39.99939%,39.99939%,39.99939%);fill-opacity:0.3;" d="M 232.445312 148.417969 L 232.988281 146.699219 L 234.292969 145.488281 L 255.378906 146.8125 L 257.234375 148.175781 L 257.945312 150.003906 L 264.378906 200.109375 L 264.246094 201 L 263.578125 201.761719 L 262.375 203.03125 L 241.515625 201.917969 L 239.859375 200.9375 L 239.1875 199.703125 L 238.839844 198.359375 Z M 232.445312 148.417969 "/>
<path style=" stroke:none;fill-rule:nonzero;fill:rgb(39.99939%,39.99939%,39.99939%);fill-opacity:0.3;" d="M 214.710938 117.578125 L 248.875 119.75 L 251.359375 121.402344 L 253.835938 141.132812 L 253.613281 141.800781 L 252.710938 142.335938 L 218.625 140.171875 L 217.097656 139.25 L 216.660156 137.980469 Z M 214.710938 117.578125 "/>
<path style=" stroke:none;fill-rule:nonzero;fill:rgb(39.99939%,39.99939%,39.99939%);fill-opacity:0.3;" d="M 137.8125 114.277344 L 138.3125 113.777344 L 139.011719 113.386719 L 139.90625 113.21875 L 209.589844 117.445312 L 211.9375 118.261719 L 212.921875 118.84375 L 215.050781 138.027344 L 214.804688 138.847656 L 214.3125 139.433594 L 213.621094 139.855469 L 141.929688 135.316406 L 140.582031 134.742188 L 139.671875 133.929688 L 139.074219 132.757812 Z M 137.8125 114.277344 "/>
<path style=" stroke:none;fill-rule:nonzero;fill:rgb(39.99939%,39.99939%,39.99939%);fill-opacity:0.3;" d="M 131.820312 69 L 169.207031 77.832031 L 169.980469 78.644531 L 170.355469 79.523438 L 173.410156 110.308594 L 173.3125 111.332031 L 172.921875 112.167969 L 172.238281 112.910156 L 171.457031 113.46875 L 139.640625 111.378906 L 138.074219 110.824219 L 136.714844 109.71875 L 136.113281 108.488281 L 135.882812 106.757812 Z M 131.820312 69 "/>
<path style=" stroke:none;fill-rule:nonzero;fill:rgb(39.99939%,39.99939%,39.99939%);fill-opacity:0.3;" d="M 70.160156 200.503906 L 70.070312 196.203125 L 83.277344 196.328125 L 273.554688 205.21875 L 274.503906 205.570312 L 301.34375 207.707031 L 301.714844 207.898438 L 302.058594 208.414062 L 303.679688 229.347656 L 304.054688 232.507812 L 303.96875 235.84375 L 303.785156 238.039062 L 302.863281 240.675781 L 301.851562 242.871094 L 300.070312 245.578125 L 297.972656 247.96875 L 285.125 259.707031 L 275.414062 268.800781 L 260.921875 284.042969 L 254.898438 289.691406 L 253.277344 290.800781 L 250.488281 292.085938 L 247.96875 292.773438 L 244.765625 293.371094 L 203.148438 296.785156 L 140.828125 304.933594 L 136.847656 305.027344 L 133.976562 305.296875 L 131.203125 306.089844 L 122.507812 307.859375 L 120.285156 308.125 L 118.34375 308.390625 L 115.472656 308.570312 L 112.789062 308.3125 L 109.757812 307.570312 L 106.957031 306.214844 L 92.777344 295.699219 L 87.089844 291.308594 L 84.714844 288.511719 L 83.320312 285.355469 L 82.207031 281.933594 L 80.34375 275.253906 L 77.230469 256.878906 L 71.273438 213.324219 Z M 70.160156 200.503906 "/>
<path style=" stroke:none;fill-rule:nonzero;fill:rgb(39.99939%,39.99939%,39.99939%);fill-opacity:0.3;" d="M 282.070312 77.453125 L 226.828125 83.207031 L 220.183594 83.347656 L 214.804688 83.355469 L 209.03125 83.117188 L 202.863281 82.378906 L 194.070312 81.023438 L 128.003906 66.070312 L 74.925781 53.890625 L 91.953125 57.644531 L 131.179688 66.171875 L 172.449219 75.378906 L 200.078125 81.519531 L 206.898438 82.203125 L 211.332031 82.203125 L 217.8125 82.542969 L 229.410156 82.203125 L 249.875 79.132812 Z M 282.070312 77.453125 "/>
<path style=" stroke:none;fill-rule:nonzero;fill:rgb(39.99939%,39.99939%,39.99939%);fill-opacity:0.3;" d="M 173.339844 78.503906 L 193 82.746094 L 196.855469 83.59375 L 200.183594 83.960938 L 204.332031 84.371094 L 207.773438 84.515625 L 208.898438 85.289062 L 212.738281 116.527344 L 179.09375 114.109375 L 177.421875 113.738281 L 176.21875 113.171875 L 175.078125 112.070312 L 174.683594 110.214844 L 172.003906 79.695312 L 172.445312 78.894531 Z M 173.339844 78.503906 "/>
<path style=" stroke:none;fill-rule:nonzero;fill:rgb(39.99939%,39.99939%,39.99939%);fill-opacity:0.3;" d="M 210.695312 85.054688 L 227.089844 84.765625 L 244.667969 83.121094 L 246.304688 83.441406 L 247.164062 84.738281 L 250.828125 116.921875 L 248.996094 118.464844 L 214.339844 116.40625 Z M 210.695312 85.054688 "/>
<path style=" stroke:none;fill-rule:nonzero;fill:rgb(39.99939%,39.99939%,39.99939%);fill-opacity:0.3;" d="M 259.875 150.421875 L 260.820312 148.460938 L 262.304688 147.332031 L 290.050781 148.464844 L 291.558594 148.359375 L 292.957031 148.460938 L 293.761719 148.765625 L 294.25 149.582031 L 294.519531 151.007812 L 300.078125 200.34375 L 299.996094 201.816406 L 299.707031 202.597656 L 298.996094 203.921875 L 297.265625 205.019531 L 270.667969 203.398438 L 269.195312 202.769531 L 267.054688 201.503906 L 266.25 200.234375 Z M 259.875 150.421875 "/>
<path style=" stroke:none;fill-rule:nonzero;fill:rgb(39.99939%,39.99939%,39.99939%);fill-opacity:0.3;" d="M 253.148438 120.972656 L 254.851562 119.726562 L 287.75 116.570312 L 288.671875 116.765625 L 289.488281 117.066406 L 290.039062 117.511719 L 290.382812 118.113281 L 290.542969 118.859375 L 293.285156 142.644531 L 293.09375 143.699219 L 292.273438 144.53125 L 290.96875 144.734375 L 256.636719 142.546875 L 255.550781 142.09375 L 255.089844 141.289062 Z M 253.148438 120.972656 "/>
<path style=" stroke:none;fill-rule:nonzero;fill:rgb(39.99939%,39.99939%,39.99939%);fill-opacity:0.3;" d="M 248.996094 82.867188 L 282.84375 78.710938 L 284.679688 79.207031 L 285.863281 80.699219 L 289.871094 113.203125 L 289.558594 114.003906 L 288.660156 114.898438 L 287.691406 115.484375 L 254.957031 118.328125 L 252.726562 117.210938 Z M 248.996094 82.867188 "/>
<path style=" stroke:none;fill-rule:nonzero;fill:rgb(39.99939%,39.99939%,39.99939%);fill-opacity:0.3;" d="M 68.710938 191.882812 L 67.082031 177.386719 L 84.460938 174.609375 L 83.910156 165.984375 L 80.300781 166.242188 L 80.847656 173.597656 L 66.8125 175.609375 L 64.777344 157.09375 L 74.804688 156.320312 L 74.945312 159.109375 L 78.554688 158.851562 L 78.277344 154.285156 L 64.375 155.320312 L 61.917969 138.085938 L 62.457031 136.632812 L 63.441406 135.554688 L 64.476562 134.757812 L 94.296875 136.632812 L 95.09375 137.238281 L 95.71875 138.050781 L 95.953125 139 L 101.472656 192.46875 L 101.070312 193.609375 L 100.539062 194.496094 L 99.203125 195.640625 L 71.65625 194.539062 L 70.183594 193.78125 L 69.113281 192.894531 Z M 68.710938 191.882812 "/>
<path style=" stroke:none;fill-rule:nonzero;fill:rgb(39.99939%,39.99939%,39.99939%);fill-opacity:0.3;" d="M 97.835938 139.109375 L 98.347656 137.78125 L 99.296875 136.929688 L 121.480469 138.351562 L 122.265625 139.199219 L 122.773438 140.480469 L 128.753906 195.089844 L 128.257812 196.085938 L 126.347656 196.742188 L 106.292969 196.136719 L 105.101562 195.542969 L 104.183594 194.261719 L 103.265625 192.320312 Z M 97.835938 139.109375 "/>
<path style=" stroke:none;fill-rule:nonzero;fill:rgb(39.99939%,39.99939%,39.99939%);fill-opacity:0.3;" d="M 124.851562 140.617188 L 125.148438 139.632812 L 126.460938 138.683594 L 147.988281 140.046875 L 148.824219 140.40625 L 149.882812 141.15625 L 150.386719 142.109375 L 156.117188 195.558594 L 155.96875 196.984375 L 155.167969 198.125 L 133.636719 197.394531 L 132.214844 196.460938 L 131.089844 195.085938 Z M 124.851562 140.617188 "/>
<path style=" stroke:none;fill-rule:nonzero;fill:rgb(39.99939%,39.99939%,39.99939%);fill-opacity:0.3;" d="M 58.171875 109.824219 L 58.699219 108.890625 L 59.519531 108.269531 L 60.492188 108.023438 L 134.082031 112.9375 L 134.972656 113.316406 L 135.523438 113.792969 L 135.808594 114.332031 L 137.742188 132.761719 L 137.542969 133.714844 L 137.035156 134.417969 L 136.195312 134.964844 L 63.878906 130.40625 L 62.375 129.917969 L 61.070312 129.042969 L 60.421875 127.484375 Z M 58.171875 109.824219 "/>
<path style=" stroke:none;fill-rule:nonzero;fill:rgb(39.99939%,39.99939%,39.99939%);fill-opacity:0.3;" d="M 51.429688 54.03125 L 52.109375 52.453125 L 53.675781 51.429688 L 88.875 59.300781 L 89.660156 59.949219 L 90.347656 61.15625 L 95.886719 106.894531 L 95.59375 107.640625 L 95.105469 108.011719 L 93.640625 108.664062 L 61.136719 106.480469 L 59.667969 105.925781 L 58.199219 104.816406 L 57.414062 103.515625 Z M 51.429688 54.03125 "/>
<path style=" stroke:none;fill-rule:nonzero;fill:rgb(39.99939%,39.99939%,39.99939%);fill-opacity:0.3;" d="M -136.085938 156.925781 L -157.617188 137.777344 L -173.601562 123.023438 L -187.308594 105.925781 L -208.441406 80.367188 L -213.050781 73.246094 L -213.78125 69.375 L -213.632812 66.039062 L -211.878906 63.519531 L -183.242188 36.140625 L -180.527344 34.199219 L -178.097656 35.535156 L -150.191406 56.753906 L -139.164062 61.421875 L -133 62.804688 L -125.125 63.554688 L -116.777344 62.710938 L -105.796875 61.027344 L -97.011719 58.652344 L -52.648438 45.734375 L -41.109375 45.964844 L -33.316406 47.753906 L -25.710938 51.527344 L -19.242188 57.644531 L -15.054688 63.765625 L -12.191406 70.789062 L -10.621094 78.796875 L -8.316406 97.023438 L -7.339844 102.785156 L -5.832031 106.027344 L -3.167969 109.089844 L 13.953125 122.578125 L 16.808594 126.539062 L 17.957031 131.402344 L 17.929688 136.171875 L 16.265625 142.578125 L 13.613281 147.988281 L 10.515625 153.460938 L 7.867188 159.050781 L 5.410156 166.441406 L 4.28125 174.914062 L 3.726562 184.644531 L 2.351562 193.402344 L 0.882812 200.441406 L -1.953125 207.835938 L -5.171875 214.6875 L -9.53125 220.28125 L -14.273438 225.152344 L -18.824219 229.484375 L -25.089844 234 L -31.917969 238.515625 L -37.289062 241.90625 L -42.113281 245.804688 L -49.089844 249.945312 L -64.460938 260.777344 L -71.292969 265.292969 L -78.125 269.449219 L -82.863281 271.613281 L -88.722656 272.875 L -93.886719 273.257812 L -98.972656 273.304688 L -104.335938 272.914062 L -109.515625 270.917969 L -124.636719 261.402344 L -124.117188 259.605469 L -124.308594 257.445312 L -126.625 254.003906 L -129.757812 249.382812 L -132.691406 245.203125 L -132.519531 243.335938 L -131.191406 231.683594 L -131.238281 213.242188 L -130.292969 208.554688 L -128.78125 203.867188 L -124.628906 191.148438 L -124.066406 186.460938 L -125.605469 176.011719 L -127.707031 168.445312 L -130.945312 162.503906 Z M -136.085938 156.925781 "/>
<path style=" stroke:none;fill-rule:nonzero;fill:rgb(39.99939%,39.99939%,39.99939%);fill-opacity:0.3;" d="M -57.722656 298.820312 L -67.152344 295.527344 L -77.410156 291.234375 L -90.898438 284.308594 L -100.28125 278.347656 L -104.707031 274.976562 L -99.265625 275.632812 L -91.207031 275.238281 L -85.351562 274.398438 L -80.078125 273 L -74.894531 270.707031 L -65.808594 264.265625 L -51.75 254.460938 L -44.890625 250.113281 L -37.722656 245.378906 L -31.867188 241.757812 L -24.40625 236.609375 L -16.507812 230.34375 L -10.074219 224.359375 L -4.640625 217.585938 L 0.0351562 209.105469 L 3.242188 200.484375 L 4.402344 193.675781 L 6.28125 178.253906 L 7.433594 167.863281 L 8.453125 163.972656 L 9.765625 160.082031 L 12.390625 154.242188 L 15.75 149.054688 L 18.519531 143.074219 L 20.128906 137.28125 L 20.265625 131.585938 L 19.523438 127.417969 L 17.761719 123.949219 L 13.800781 119.925781 L 7.488281 114.75 L -0.296875 109.292969 L -3.964844 105.546875 L -5.433594 103.335938 L -6.464844 99.03125 L -8.703125 75.277344 L -9.074219 67.59375 L -9.230469 62.652344 L -8.136719 52.382812 L -11.257812 35.1875 L 12.757812 41.03125 L 14.855469 41.546875 L 15.570312 47.804688 L 16.890625 62.824219 L 19.097656 79.738281 L 19.582031 83.226562 L 21.054688 88.085938 L 23.273438 92.359375 L 26.402344 96.902344 L 30.871094 101.617188 L 35.957031 106.328125 L 38.554688 109.667969 L 42.089844 114.976562 L 44.699219 120.253906 L 45.886719 125.574219 L 46.480469 132.753906 L 45.621094 143.914062 L 43.625 159.574219 L 42.007812 173.753906 L 38.535156 198.765625 L 37.375 205.578125 L 35.335938 213.082031 L 31.542969 222.949219 L 28.742188 228.472656 L 23.921875 236.675781 L 17.054688 245.4375 L 6.523438 255.039062 L -3.128906 262.140625 L -29.488281 280.164062 Z M -57.722656 298.820312 "/>
<path style=" stroke:none;fill-rule:nonzero;fill:rgb(39.99939%,39.99939%,39.99939%);fill-opacity:0.3;" d="M -121.722656 1.25 L -121.839844 1.484375 L -121.90625 3.035156 L -121.621094 4.316406 L -120.410156 5.394531 L -118.9375 5.953125 L -44.667969 8.730469 L -42.851562 9.183594 L -41.195312 9.574219 L -37.949219 10.84375 L -35.707031 11.476562 L -33.132812 11.367188 L -27.96875 11.824219 L -12.613281 13.046875 L 37.019531 26.109375 L 38.753906 26.828125 L 40.054688 27.75 L 41.675781 29.738281 L 42.554688 31.546875 L 42.945312 32.855469 L 43.546875 43.054688 L 43.304688 44.113281 L 42.820312 44.804688 L 41.945312 45.3125 L 41.167969 45.5 L 40.097656 45.640625 L -15.28125 31.824219 L -27.09375 30.472656 L -162.203125 25.632812 L -163.148438 24.976562 L -163.484375 23.160156 L -163.363281 13.796875 L -153.066406 2.46875 L -148.585938 0.566406 L -143.453125 -0.511719 L -140.539062 -0.640625 L -129.078125 -0.722656 Z M -121.722656 1.25 "/>
<path style=" stroke:none;fill-rule:nonzero;fill:rgb(39.99939%,39.99939%,39.99939%);fill-opacity:0.3;" d="M 67.082031 232.132812 L 70.519531 264.445312 L 70.539062 283.636719 L 69.917969 290.265625 L 68.890625 293.785156 L 66.539062 298.261719 L 64.007812 301.714844 L 60.628906 305.332031 L 56.824219 308.351562 L 54.402344 309.664062 L 51.277344 310.984375 L 47.945312 312.230469 L 43.804688 313.304688 L 37.367188 313.984375 L 24.035156 314.824219 L 13.742188 314.445312 L -1.625 313.066406 L -13.929688 312.425781 L 2.0625 303.136719 L 13.273438 295.609375 L 23.0625 288.421875 L 32.863281 281.03125 L 34.621094 279.503906 L 42.167969 272.625 L 45.679688 268.957031 L 49.671875 264.042969 L 54.804688 257.992188 L 59.699219 250.789062 L 63.941406 243.496094 L 65.367188 240.050781 L 66.242188 236.75 Z M 67.082031 232.132812 "/>
<path style=" stroke:none;fill-rule:nonzero;fill:rgb(39.99939%,39.99939%,39.99939%);fill-opacity:0.3;" d="M -23.789062 309.234375 L -41.289062 304.519531 L -50.640625 301.460938 L -51.570312 299.53125 L -51.429688 297.144531 L -49.382812 295.335938 L -44.554688 292.273438 L -37.523438 287.832031 L -31.164062 284.089844 L -20.257812 276.675781 L -6.953125 267.347656 L 6.941406 256.769531 L 14.839844 249.949219 L 20.105469 244.800781 L 24.804688 238.339844 L 27.144531 234.863281 L 29.917969 230.273438 L 32.253906 225.546875 L 34.003906 221.792969 L 36.339844 216.652344 L 37.796875 211.925781 L 39.25 205.253906 L 41.347656 194.164062 L 43.433594 180.679688 L 44.027344 173.972656 L 45.609375 159.640625 L 47.851562 142.257812 L 48.507812 134.394531 L 49.308594 131.855469 L 50.640625 130.332031 L 52.84375 130.523438 L 54.183594 131.90625 L 54.878906 134.0625 L 56.6875 146.558594 L 58.578125 157.972656 L 66.230469 229.523438 L 65.222656 233.222656 L 63.933594 237.085938 L 62.082031 241.3125 L 59.777344 245.53125 L 57.285156 249.75 L 53.128906 256.25 L 47.957031 262.578125 L 45.179688 266.222656 L 41.761719 269.828125 L 38.988281 272.816406 L 36.308594 275.453125 L 33.816406 277.828125 L 27.589844 283.058594 L 23.339844 286.226562 L 17.050781 290.800781 L 11.855469 294.433594 L 6.957031 297.6875 L 0.578125 301.648438 L -5.617188 305.519531 L -12.089844 309.566406 L -15.644531 310.800781 Z M -23.789062 309.234375 "/>
<path style=" stroke:none;fill-rule:nonzero;fill:rgb(39.99939%,39.99939%,39.99939%);fill-opacity:0.3;" d="M 17.601562 43.824219 L 19.050781 42.542969 L 43.222656 48.804688 L 44.675781 50.078125 L 45.511719 52.929688 L 54.351562 121.382812 L 54.042969 122.660156 L 53.007812 123.746094 L 51.558594 124.042969 L 50.105469 123.847656 L 48.546875 123.160156 L 47.09375 122.277344 L 46.15625 119.820312 L 45.324219 117.363281 L 43.972656 114.90625 L 42.203125 111.761719 L 39.917969 109.011719 L 38.136719 106.621094 L 35.644531 104.066406 L 32.839844 101.21875 L 29.414062 97.976562 L 27.335938 95.425781 L 24.738281 91.886719 L 22.65625 87.367188 L 21.71875 84.417969 L 20.671875 80.289062 L 18.671875 62.707031 L 16.984375 46.089844 Z M 17.601562 43.824219 "/>
<g clip-path="url(#clip1)" clip-rule="nonzero">
<path style=" stroke:none;fill-rule:nonzero;fill:rgb(39.99939%,39.99939%,39.99939%);fill-opacity:0.3;" d="M 322.839844 229.351562 L 324.222656 227.925781 L 327.433594 225.960938 L 330.539062 223.878906 L 333.664062 221.789062 L 337.910156 219.496094 L 343.667969 215.878906 L 348.507812 213.027344 L 355.328125 208.605469 L 360.972656 204.550781 L 362.816406 204.4375 L 364.777344 204.984375 L 366.390625 205.964844 L 368.238281 208.585938 L 408.582031 273.125 L 408.441406 274.3125 L 408.011719 275.53125 L 407.320312 276.40625 L 390.378906 277.855469 L 387.726562 277.964844 L 385.421875 277.640625 L 383.230469 277.316406 L 380.808594 276.664062 L 377.347656 275.792969 L 374.578125 274.703125 L 341.230469 252.226562 L 332.089844 245.738281 L 328.164062 242.902344 L 324.585938 239.519531 L 321.007812 235.804688 L 320.566406 233.738281 L 321.550781 230.988281 Z M 322.839844 229.351562 "/>
</g>
<path style=" stroke:none;fill-rule:nonzero;fill:rgb(39.99939%,39.99939%,39.99939%);fill-opacity:0.3;" d="M -177.339844 2.398438 L -187.527344 1.773438 L -195.292969 0.777344 L -199.269531 0.292969 L -199.179688 -8.128906 L -198.917969 -12.316406 L -197.378906 -17.542969 L -163.207031 -70.6875 L -154.289062 -83.132812 L -114.371094 -146.46875 L -27.480469 -287.652344 L -12.652344 -311.257812 L 12.144531 -352.292969 L 11.796875 -350.636719 Z M -177.339844 2.398438 "/>
<path style=" stroke:none;fill-rule:nonzero;fill:rgb(39.99939%,39.99939%,39.99939%);fill-opacity:0.3;" d="M -95.769531 -747.707031 L -56.742188 -752.25 L -50.570312 -752.136719 L -44.46875 -750.214844 L -40.128906 -746.617188 L -37.660156 -743.265625 L -37.660156 -738.449219 L -36.976562 -731.289062 L -35.503906 -728.046875 L -33.945312 -722.742188 L 10.617188 -647.464844 L 15.78125 -638.957031 L 17.917969 -635.425781 L 19.664062 -632.785156 L 19.417969 -629.421875 L 16.84375 -590.152344 L 16.667969 -543.6875 L 17.1875 -505.933594 L 14.890625 -451.25 L 12.859375 -408.496094 L 12.585938 -359.910156 L 12.003906 -357.195312 L 10.726562 -354.117188 L -12.679688 -317.152344 L -45.496094 -263.773438 L -158.59375 -80.523438 L -168.589844 -65.417969 L -196.574219 -22.964844 L -199.453125 -23.144531 L -202.546875 -14.148438 L -203.429688 -9.082031 L -203.503906 -3.859375 L -202.695312 0.527344 L -200.5625 3.011719 L -196.460938 5.335938 L -192.039062 5.800781 L -184.828125 5.015625 L -182.121094 5.363281 L -187.417969 14.953125 L -186.296875 15.570312 L -183.164062 13.273438 L -188.152344 22.585938 L -190.109375 23.316406 L -193.828125 23.054688 L -257.164062 -3.492188 L -249.390625 -47.113281 L -237.378906 -44.664062 L -229.492188 -41.210938 L -226.375 -39.738281 L -222.800781 -38.917969 L -219.527344 -39.070312 L -216.648438 -39.808594 L -212.90625 -41.367188 L -210.5 -45.507812 L -208.867188 -49.203125 L -207.46875 -52.230469 L -203.25 -60.167969 L -190.691406 -80.175781 L -163.800781 -121.828125 L -135.949219 -165.523438 L -127.246094 -185.910156 L -119.816406 -201.402344 L -107.882812 -219.285156 L -87.292969 -240.015625 L -58.539062 -276.292969 L -47.496094 -293.246094 L -42.078125 -302.347656 L -39.875 -309.855469 L -39.191406 -336.109375 L -33.230469 -357.308594 L -5.761719 -350.757812 L -3.015625 -351.339844 L -1.265625 -353.148438 L -0.0507812 -357.488281 L 1.136719 -394.519531 L 4.25 -531.5 L 4.886719 -578.472656 L 8.605469 -618.875 L 8.601562 -622.558594 L 7.785156 -627.667969 L 6.300781 -632.011719 L 3.351562 -636.234375 L -0.210938 -640.570312 L -29.996094 -669.171875 L -64.355469 -701.988281 L -70.144531 -705.488281 L -78.144531 -708.460938 L -84.515625 -711.429688 L -107.125 -725.964844 Z M -95.769531 -747.707031 "/>
<g clip-path="url(#clip2)" clip-rule="nonzero">
<path style=" stroke:none;fill-rule:nonzero;fill:rgb(39.99939%,39.99939%,39.99939%);fill-opacity:0.3;" d="M -65.132812 352.59375 L -51.167969 354.679688 L -38.101562 357.109375 L -25.082031 359.808594 L -18.355469 361.371094 L -12.816406 362.625 L -6.828125 364.511719 L -2.453125 366 L 0.898438 367.878906 L 2.308594 369.574219 L 3.855469 371.886719 L 4.726562 374.742188 L 4.601562 377.660156 L 4.261719 380.109375 L 2.902344 383.289062 L 1.417969 385.289062 L -1.035156 387.207031 L -3.242188 388.175781 L -9.007812 389.179688 L -22.652344 387.472656 L -40.046875 384.402344 L -45.84375 383.039062 L -49 382.042969 L -47.757812 381.066406 L -46.273438 380.125 L -45.652344 379.183594 L -45.160156 377.769531 L -45.65625 375.300781 L -47.820312 371.496094 L -52.480469 367.296875 L -58.324219 362.847656 L -62.667969 360.382812 L -66.234375 357.851562 L -69.339844 356.59375 L -74.21875 354.289062 L -82.421875 352.195312 L -82.199219 350.933594 Z M -65.132812 352.59375 "/>
</g>
<g clip-path="url(#clip3)" clip-rule="nonzero">
<path style=" stroke:none;fill-rule:nonzero;fill:rgb(39.99939%,39.99939%,39.99939%);fill-opacity:0.3;" d="M 2.582031 366.148438 L -2.46875 363.734375 L -15 359.984375 L -37.851562 355.632812 L -55.835938 352.359375 L -83.527344 348.804688 L -90.019531 349.359375 L -84.046875 347.566406 L -71.769531 349.273438 L -65.628906 348.25 L -50.960938 352.339844 L -25.039062 357.457031 L -6.960938 361.550781 L 0.882812 363.9375 Z M 2.582031 366.148438 "/>
</g>
<g clip-path="url(#clip4)" clip-rule="nonzero">
<path style=" stroke:none;fill-rule:nonzero;fill:rgb(39.99939%,39.99939%,39.99939%);fill-opacity:0.3;" d="M -30.640625 416.480469 L -33.84375 413.933594 L -36.632812 411.136719 L -36.855469 411.03125 L -36.976562 410.667969 L -48.234375 402.820312 L -62.558594 398.046875 L -78.589844 393.953125 L -80.921875 390.921875 L -80.984375 390.378906 L -78.550781 387.011719 L -74.808594 384.617188 L -69.464844 383.53125 L -61.878906 382.878906 L -55.464844 383.742188 L -47.21875 385.3125 L -36.304688 387.351562 L -28.21875 388.871094 L -16.578125 391.46875 L -8.507812 391.746094 L -2.183594 390.796875 L 1.285156 388.910156 L 3.761719 386.4375 L 6.363281 382.433594 L 7.679688 378.222656 L 7.453125 373.808594 L 5.675781 369.605469 L 5.285156 369.152344 L 4.480469 368.214844 L 20.472656 354.457031 L 28.453125 360.058594 L 32.210938 370.921875 L 34.363281 379.09375 L 36.015625 383.570312 L 37.582031 387.800781 L 41.925781 398.238281 L 45.269531 406.992188 L 28.167969 418.171875 L 11.117188 429.085938 L -5.257812 439.316406 L -19.921875 449.890625 L -22.027344 453.84375 L -23.871094 455.015625 L -23.410156 456.078125 L -23.320312 456.28125 L -28.394531 465.816406 L -33.183594 460.691406 L -34.21875 453.355469 L -37.867188 437.363281 L -36.105469 429.160156 Z M -30.640625 416.480469 "/>
</g>
<g clip-path="url(#clip5)" clip-rule="nonzero">
<path style=" stroke:none;fill-rule:nonzero;fill:rgb(39.99939%,39.99939%,39.99939%);fill-opacity:0.3;" d="M 542.34375 297.824219 L 507.421875 298.003906 L 507.140625 312.929688 L 516.679688 325.128906 L 516.398438 336.398438 L 516.40625 345.160156 L 516.207031 356.710938 L 521.554688 356.640625 L 528.792969 356.664062 L 528.753906 348.953125 L 541.691406 348.800781 L 541.542969 351.058594 L 542.066406 352.28125 L 545.136719 353.355469 L 546.816406 353.859375 L 547.867188 354.175781 L 546.277344 359.164062 L 541.164062 372.804688 L 381.753906 363.261719 L 394.09375 349.421875 L 396.40625 350.148438 L 406.792969 348.515625 L 410.398438 344.832031 L 418.824219 342.285156 L 429.054688 343.160156 L 431.730469 342 L 433.332031 339.839844 L 433.332031 338.222656 L 432.8125 336.925781 L 432.253906 335.523438 L 430.648438 334.449219 L 427.976562 333.371094 L 425.296875 333.375 L 423.15625 334.457031 L 418.550781 340 L 411.199219 341.785156 L 404.238281 338.875 L 394.238281 340.800781 L 390.082031 344.601562 L 332.777344 355.082031 L 334.683594 350.433594 L 336.96875 347.042969 L 338.039062 345.773438 L 340.84375 343.105469 L 352.734375 329.875 L 381.800781 300.617188 L 383.367188 299.484375 L 387.539062 297.546875 L 393.957031 295.890625 L 486.207031 286.257812 L 542.328125 284.746094 Z M 542.34375 297.824219 "/>
</g>
<g clip-path="url(#clip6)" clip-rule="nonzero">
<path style=" stroke:none;fill-rule:nonzero;fill:rgb(39.99939%,39.99939%,39.99939%);fill-opacity:0.3;" d="M 294.609375 343.496094 L 298.460938 339.40625 L 313.113281 351.058594 L 315.78125 354.003906 L 317.417969 356.679688 L 318.222656 358.046875 L 319.183594 360.625 L 321.242188 365.613281 L 322.761719 370.53125 L 323.785156 379.644531 L 322.535156 384.183594 L 320.390625 387.542969 L 319.003906 389.703125 L 316.59375 391.882812 L 315.023438 392.894531 L 313.5625 393.675781 L 312.183594 394.332031 L 307.546875 396.15625 L 303.066406 397.832031 L 299.386719 399.203125 L 296.1875 399.8125 L 292.121094 401.0625 L 287.871094 402.402344 L 285.46875 403.46875 L 282.589844 404.078125 L 280.03125 404.234375 L 277.308594 404.085938 L 275.390625 403.785156 L 273.949219 403.632812 L 271.070312 404.394531 L 267.347656 405.695312 L 264.527344 406.589844 L 261.394531 408.082031 L 258.363281 410.167969 L 256.902344 411.753906 L 254.710938 414.433594 L 253.359375 419.390625 L 253.34375 431.46875 L 250.886719 431.585938 L 250.890625 470.539062 L 202.632812 471.90625 L 199.394531 471.378906 L 196.453125 472.082031 L 195.898438 472.097656 L 193.773438 468.164062 L 193.519531 460.003906 L 187.992188 460.042969 L 187.996094 463.339844 L 188.136719 465.714844 L 187.984375 467 L 178.191406 466.855469 L 179.183594 398.507812 L 179.257812 397.265625 L 179.347656 395.152344 L 180.84375 393.246094 L 183.230469 391.429688 L 185.640625 389.28125 L 187.949219 388.640625 L 198.789062 387.925781 L 205.890625 387.941406 L 227.09375 363.109375 L 253.003906 366 L 276.925781 353.539062 Z M 294.609375 343.496094 "/>
</g>
<g clip-path="url(#clip7)" clip-rule="nonzero">
<path style=" stroke:none;fill-rule:nonzero;fill:rgb(39.99939%,39.99939%,39.99939%);fill-opacity:0.3;" d="M 27.851562 341.984375 L 58.390625 365.855469 L 65.007812 424.40625 L 61.859375 426.601562 L 56.253906 419.3125 L 46.96875 406.71875 L 44.40625 399.289062 L 40.433594 388.5 L 35.472656 375.371094 L 29.910156 356.597656 Z M 27.851562 341.984375 "/>
</g>
<g clip-path="url(#clip8)" clip-rule="nonzero">
<path style=" stroke:none;fill-rule:nonzero;fill:rgb(39.99939%,39.99939%,39.99939%);fill-opacity:0.3;" d="M 133.128906 348.96875 L 139.351562 402.59375 L 119.765625 404.632812 L 115.078125 366.832031 L 114.871094 364.820312 L 115.375 363.765625 L 124.808594 351.121094 L 126.820312 348.824219 L 127.625 347.871094 L 128.628906 346.914062 L 130.441406 346.722656 L 132.253906 347.292969 Z M 133.128906 348.96875 "/>
</g>
<g clip-path="url(#clip9)" clip-rule="nonzero">
<path style=" stroke:none;fill-rule:nonzero;fill:rgb(39.99939%,39.99939%,39.99939%);fill-opacity:0.3;" d="M 80.023438 329.046875 L 84.640625 362.390625 L 87.816406 385.773438 L 19.378906 331.949219 L 24.097656 332.109375 L 27.773438 332.433594 L 30.917969 332.429688 L 33.464844 332.421875 L 39.488281 332.421875 L 45.511719 332.484375 L 52.292969 331.9375 L 61.691406 331.234375 L 68.335938 330.5625 L 74.980469 329.726562 Z M 80.023438 329.046875 "/>
</g>
<g clip-path="url(#clip10)" clip-rule="nonzero">
<path style=" stroke:none;fill-rule:nonzero;fill:rgb(39.99939%,39.99939%,39.99939%);fill-opacity:0.3;" d="M 135.964844 347.6875 L 156.84375 344.898438 L 163.957031 402.472656 L 150.421875 451.808594 L 149.453125 452.730469 L 148.550781 452.824219 L 147.996094 452.273438 Z M 135.964844 347.6875 "/>
</g>
<g clip-path="url(#clip11)" clip-rule="nonzero">
<path style=" stroke:none;fill-rule:nonzero;fill:rgb(39.99939%,39.99939%,39.99939%);fill-opacity:0.3;" d="M 182.554688 343.117188 L 183.507812 342.363281 L 184.933594 341.910156 L 202.542969 340.082031 L 203.8125 340.082031 L 204.445312 340.53125 L 207.496094 368.367188 L 207.179688 368.96875 L 206.703125 369.574219 L 190.054688 377.867188 L 188.628906 378.019531 L 187.992188 377.570312 L 187.359375 377.417969 L 186.882812 376.667969 Z M 182.554688 343.117188 "/>
</g>
<g clip-path="url(#clip12)" clip-rule="nonzero">
<path style=" stroke:none;fill-rule:nonzero;fill:rgb(39.99939%,39.99939%,39.99939%);fill-opacity:0.3;" d="M 160.585938 344.867188 L 179.78125 342.886719 L 184.945312 378.84375 L 167.285156 387.351562 L 165.925781 387.355469 L 164.90625 386.496094 Z M 160.585938 344.867188 "/>
</g>
<g clip-path="url(#clip13)" clip-rule="nonzero">
<path style=" stroke:none;fill-rule:nonzero;fill:rgb(39.99939%,39.99939%,39.99939%);fill-opacity:0.3;" d="M 207.445312 339.554688 L 263.152344 333.773438 L 265.324219 334.695312 L 265.777344 336.617188 L 265.027344 339.253906 L 263.117188 341.011719 L 260.210938 342.472656 L 256.621094 344.261719 L 210.121094 367.605469 Z M 207.445312 339.554688 "/>
</g>
<path style=" stroke:none;fill-rule:nonzero;fill:rgb(39.99939%,39.99939%,39.99939%);fill-opacity:0.3;" d="M 254.308594 309.554688 L 292.433594 304.917969 L 300.710938 303.691406 L 312.269531 302.460938 L 307.453125 303.621094 L 298.578125 305.292969 L 295.308594 306.074219 L 292.738281 307.074219 L 290.40625 308.628906 L 288.769531 310.070312 L 286.671875 312.953125 L 285.625 316.277344 L 285.277344 319.933594 L 286.21875 323.589844 L 288.089844 326.914062 L 290.664062 329.570312 L 293.46875 331.226562 L 297.09375 332.222656 L 301.179688 332.992188 L 305.734375 331.988281 L 309.820312 329.769531 L 312.503906 327.441406 L 314.136719 324.890625 L 316.003906 319.648438 L 316.863281 321.273438 L 320.875 357.046875 L 319.628906 354.28125 L 318.101562 351.546875 L 315.5 348.828125 L 309.535156 344.070312 L 299.019531 336.671875 L 290.46875 331.265625 L 281 324.960938 L 270.242188 317.4375 L 267.300781 315.644531 L 264.261719 313.652344 L 260.988281 311.996094 L 257.953125 311 L 256.082031 310.449219 L 254.679688 310.117188 Z M 254.308594 309.554688 "/>
<path style=" stroke:none;fill-rule:nonzero;fill:rgb(39.99939%,39.99939%,39.99939%);fill-opacity:0.3;" d="M 2.390625 329.554688 L 2.570312 329.574219 L 13.34375 330.585938 L 25.660156 340.410156 L 26.734375 352.519531 L 26.425781 353.082031 L 25.574219 353.621094 L 24.675781 353.792969 L 23.929688 353.71875 L 22.953125 353.453125 L 3.628906 338.964844 Z M 2.390625 329.554688 "/>
<g clip-path="url(#clip14)" clip-rule="nonzero">
<path style=" stroke:none;fill-rule:nonzero;fill:rgb(39.99939%,39.99939%,39.99939%);fill-opacity:0.3;" d="M 294.375 342.945312 L 276.828125 353.292969 L 253.027344 365.792969 L 227.03125 363 L 252.644531 349.691406 L 260.859375 345.601562 L 265.53125 342.71875 L 268.308594 340.078125 L 269.066406 337.679688 L 269.167969 336.785156 L 269.316406 335.519531 L 268.140625 333.652344 L 265.734375 332.097656 L 261.5625 331.621094 L 247.53125 332.714844 L 171.304688 339.757812 L 144.769531 342.28125 L 138.632812 343.03125 L 136.734375 341.953125 L 136.101562 340.632812 L 136.351562 338.835938 L 138.121094 336.433594 L 140.390625 334.152344 L 146.203125 329.46875 L 149.234375 327.546875 L 152.769531 325.746094 L 155.550781 325.023438 L 159.214844 324.179688 L 166.714844 323.539062 L 182.246094 321.859375 L 204.65625 319.453125 L 223.492188 317.871094 L 233.351562 316.183594 L 235.175781 313.121094 L 244.21875 311.972656 L 248.644531 311.847656 L 251.296875 312.085938 L 253.320312 312.804688 L 255.976562 313.398438 L 258 314.238281 L 261.164062 315.550781 L 284.742188 330.558594 L 298.320312 339.195312 Z M 294.375 342.945312 "/>
</g>
<g clip-path="url(#clip15)" clip-rule="nonzero">
<path style=" stroke:none;fill-rule:nonzero;fill:rgb(39.99939%,39.99939%,39.99939%);fill-opacity:0.3;" d="M 4.480469 368.214844 L 2.789062 366.246094 L 2.582031 366.148438 L 0.882812 363.9375 L -6.960938 361.550781 L -25.039062 357.457031 L -50.960938 352.339844 L -65.628906 348.25 L -71.769531 349.273438 L -84.046875 347.566406 L -90.019531 349.359375 L -92.792969 349.59375 L -102.496094 348.839844 L -105.195312 348.25 L -110.652344 345.519531 L -111.226562 347.671875 L -112.386719 347.390625 L -113.683594 344.054688 L -112.863281 340.828125 L -103.957031 333.585938 L -97.363281 328.59375 L -94.40625 325.234375 L -92.308594 318.882812 L -90.214844 313.078125 L -86.304688 305.273438 L -84.488281 305.269531 L -76.535156 308.890625 L -68.527344 312.097656 L -61.996094 314.566406 L -52.683594 317.855469 L -39.179688 321.945312 L -27.261719 324.816406 L -19.339844 326.367188 L -8.027344 328.226562 L 2.390625 329.554688 L 3.628906 338.964844 L 3.019531 338.507812 L -0.300781 343.558594 L 0.128906 345.984375 L 0.59375 348.601562 L 5.242188 343.761719 L 20.472656 354.457031 Z M 4.480469 368.214844 "/>
</g>
<path style="fill-rule:nonzero;fill:rgb(39.99939%,39.99939%,39.99939%);fill-opacity:1;stroke-width:0.03;stroke-linecap:square;stroke-linejoin:miter;stroke:rgb(39.99939%,39.99939%,39.99939%);stroke-opacity:1;stroke-miterlimit:3.239307;" d="M 165.71875 74.0625 L 166.230469 73.351562 L 166.886719 73.164062 L 204.15625 81.445312 L 208.75 119.746094 L 208.703125 121.4375 L 208.433594 122.511719 L 207.777344 123.460938 L 206.308594 124.207031 L 173.511719 122.027344 L 172.632812 121.46875 L 171.75 120.820312 L 171.257812 119.800781 Z M 165.71875 74.0625 " transform="matrix(1,0,0,1,-74,-13)"/>
<path style="fill-rule:nonzero;fill:rgb(39.99939%,39.99939%,39.99939%);fill-opacity:1;stroke-width:0.03;stroke-linecap:square;stroke-linejoin:miter;stroke:rgb(39.99939%,39.99939%,39.99939%);stroke-opacity:1;stroke-miterlimit:3.239307;" d="M 226.847656 155.269531 L 227.144531 154.425781 L 229.355469 153.503906 L 249.582031 154.765625 L 250.597656 155.234375 L 251.488281 156.359375 L 256.59375 209.660156 L 256.179688 210.960938 L 254.441406 212.230469 L 234.382812 211.117188 L 233.042969 209.976562 L 232.523438 208.554688 Z M 226.847656 155.269531 " transform="matrix(1,0,0,1,-74,-13)"/>
<path style="fill-rule:nonzero;fill:rgb(39.99939%,39.99939%,39.99939%);fill-opacity:1;stroke-width:0.03;stroke-linecap:square;stroke-linejoin:miter;stroke:rgb(39.99939%,39.99939%,39.99939%);stroke-opacity:1;stroke-miterlimit:3.239307;" d="M 253.121094 156.921875 L 254.023438 155.65625 L 255.589844 155.160156 L 276.625 156.144531 L 277.316406 157.167969 L 278.0625 158.855469 L 284.007812 210.636719 L 283.773438 211.820312 L 282.878906 213.007812 L 281.816406 213.699219 L 261.394531 212.347656 L 259.789062 211.207031 L 259 209.785156 Z M 253.121094 156.921875 " transform="matrix(1,0,0,1,-74,-13)"/>
<path style="fill-rule:nonzero;fill:rgb(39.99939%,39.99939%,39.99939%);fill-opacity:1;stroke-width:0.03;stroke-linecap:square;stroke-linejoin:miter;stroke:rgb(39.99939%,39.99939%,39.99939%);stroke-opacity:1;stroke-miterlimit:3.239307;" d="M 280.140625 158.855469 L 280.730469 158.007812 L 282.066406 157.019531 L 302.613281 158.09375 L 304.285156 159.703125 L 304.632812 161.492188 L 310.292969 211.375 L 309.796875 212.671875 L 308.539062 213.90625 L 306.554688 214.804688 L 288.445312 213.890625 L 287.046875 213 L 286.398438 211.777344 L 286.167969 210.570312 Z M 280.140625 158.855469 " transform="matrix(1,0,0,1,-74,-13)"/>
<path style="fill-rule:nonzero;fill:rgb(39.99939%,39.99939%,39.99939%);fill-opacity:1;stroke-width:0.03;stroke-linecap:square;stroke-linejoin:miter;stroke:rgb(39.99939%,39.99939%,39.99939%);stroke-opacity:1;stroke-miterlimit:3.239307;" d="M 306.445312 161.417969 L 306.988281 159.699219 L 308.292969 158.488281 L 329.378906 159.8125 L 331.234375 161.175781 L 331.945312 163.003906 L 338.378906 213.109375 L 338.246094 214 L 337.578125 214.761719 L 336.375 216.03125 L 315.515625 214.917969 L 313.859375 213.9375 L 313.1875 212.703125 L 312.839844 211.359375 Z M 306.445312 161.417969 " transform="matrix(1,0,0,1,-74,-13)"/>
<path style="fill-rule:nonzero;fill:rgb(39.99939%,39.99939%,39.99939%);fill-opacity:1;stroke-width:0.03;stroke-linecap:square;stroke-linejoin:miter;stroke:rgb(39.99939%,39.99939%,39.99939%);stroke-opacity:1;stroke-miterlimit:3.239307;" d="M 288.710938 130.578125 L 322.875 132.75 L 325.359375 134.402344 L 327.835938 154.132812 L 327.613281 154.800781 L 326.710938 155.335938 L 292.625 153.171875 L 291.097656 152.25 L 290.660156 150.980469 Z M 288.710938 130.578125 " transform="matrix(1,0,0,1,-74,-13)"/>
<path style="fill-rule:nonzero;fill:rgb(39.99939%,39.99939%,39.99939%);fill-opacity:1;stroke-width:0.03;stroke-linecap:square;stroke-linejoin:miter;stroke:rgb(39.99939%,39.99939%,39.99939%);stroke-opacity:1;stroke-miterlimit:3.239307;" d="M 211.8125 127.277344 L 212.3125 126.777344 L 213.011719 126.386719 L 213.90625 126.21875 L 283.589844 130.445312 L 285.9375 131.261719 L 286.921875 131.84375 L 289.050781 151.027344 L 288.804688 151.847656 L 288.3125 152.433594 L 287.621094 152.855469 L 215.929688 148.316406 L 214.582031 147.742188 L 213.671875 146.929688 L 213.074219 145.757812 Z M 211.8125 127.277344 " transform="matrix(1,0,0,1,-74,-13)"/>
<path style="fill-rule:nonzero;fill:rgb(39.99939%,39.99939%,39.99939%);fill-opacity:1;stroke-width:0.03;stroke-linecap:square;stroke-linejoin:miter;stroke:rgb(39.99939%,39.99939%,39.99939%);stroke-opacity:1;stroke-miterlimit:3.239307;" d="M 205.820312 82 L 243.207031 90.832031 L 243.980469 91.644531 L 244.355469 92.523438 L 247.410156 123.308594 L 247.3125 124.332031 L 246.921875 125.167969 L 246.238281 125.910156 L 245.457031 126.46875 L 213.640625 124.378906 L 212.074219 123.824219 L 210.714844 122.71875 L 210.113281 121.488281 L 209.882812 119.757812 Z M 205.820312 82 " transform="matrix(1,0,0,1,-74,-13)"/>
<path style="fill-rule:nonzero;fill:rgb(39.99939%,39.99939%,39.99939%);fill-opacity:1;stroke-width:0.03;stroke-linecap:square;stroke-linejoin:miter;stroke:rgb(39.99939%,39.99939%,39.99939%);stroke-opacity:1;stroke-miterlimit:3.239307;" d="M 144.160156 213.503906 L 144.070312 209.203125 L 157.277344 209.328125 L 347.554688 218.21875 L 348.503906 218.570312 L 375.34375 220.707031 L 375.714844 220.898438 L 376.058594 221.414062 L 377.679688 242.347656 L 378.054688 245.507812 L 377.96875 248.84375 L 377.785156 251.039062 L 376.863281 253.675781 L 375.851562 255.871094 L 374.070312 258.578125 L 371.972656 260.96875 L 359.125 272.707031 L 349.414062 281.800781 L 334.921875 297.042969 L 328.898438 302.691406 L 327.277344 303.800781 L 324.488281 305.085938 L 321.96875 305.773438 L 318.765625 306.371094 L 277.148438 309.785156 L 214.828125 317.933594 L 210.847656 318.027344 L 207.976562 318.296875 L 205.203125 319.089844 L 196.507812 320.859375 L 194.285156 321.125 L 192.34375 321.390625 L 189.472656 321.570312 L 186.789062 321.3125 L 183.757812 320.570312 L 180.957031 319.214844 L 166.777344 308.699219 L 161.089844 304.308594 L 158.714844 301.511719 L 157.320312 298.355469 L 156.207031 294.933594 L 154.34375 288.253906 L 151.230469 269.878906 L 145.273438 226.324219 Z M 144.160156 213.503906 " transform="matrix(1,0,0,1,-74,-13)"/>
<path style="fill-rule:nonzero;fill:rgb(39.99939%,39.99939%,39.99939%);fill-opacity:1;stroke-width:0.03;stroke-linecap:square;stroke-linejoin:miter;stroke:rgb(39.99939%,39.99939%,39.99939%);stroke-opacity:1;stroke-miterlimit:3.239307;" d="M 356.070312 90.453125 L 300.828125 96.207031 L 294.183594 96.347656 L 288.804688 96.355469 L 283.03125 96.117188 L 276.863281 95.378906 L 268.070312 94.023438 L 202.003906 79.070312 L 148.925781 66.890625 L 165.953125 70.644531 L 205.179688 79.171875 L 246.449219 88.378906 L 274.078125 94.519531 L 280.898438 95.203125 L 285.332031 95.203125 L 291.8125 95.542969 L 303.410156 95.203125 L 323.875 92.132812 Z M 356.070312 90.453125 " transform="matrix(1,0,0,1,-74,-13)"/>
<path style="fill-rule:nonzero;fill:rgb(39.99939%,39.99939%,39.99939%);fill-opacity:1;stroke-width:0.03;stroke-linecap:square;stroke-linejoin:miter;stroke:rgb(39.99939%,39.99939%,39.99939%);stroke-opacity:1;stroke-miterlimit:3.239307;" d="M 247.339844 91.503906 L 267 95.746094 L 270.855469 96.59375 L 274.183594 96.960938 L 278.332031 97.371094 L 281.773438 97.515625 L 282.898438 98.289062 L 286.738281 129.527344 L 253.09375 127.109375 L 251.421875 126.738281 L 250.21875 126.171875 L 249.078125 125.070312 L 248.683594 123.214844 L 246.003906 92.695312 L 246.445312 91.894531 Z M 247.339844 91.503906 " transform="matrix(1,0,0,1,-74,-13)"/>
<path style="fill-rule:nonzero;fill:rgb(39.99939%,39.99939%,39.99939%);fill-opacity:1;stroke-width:0.03;stroke-linecap:square;stroke-linejoin:miter;stroke:rgb(39.99939%,39.99939%,39.99939%);stroke-opacity:1;stroke-miterlimit:3.239307;" d="M 284.695312 98.054688 L 301.089844 97.765625 L 318.667969 96.121094 L 320.304688 96.441406 L 321.164062 97.738281 L 324.828125 129.921875 L 322.996094 131.464844 L 288.339844 129.40625 Z M 284.695312 98.054688 " transform="matrix(1,0,0,1,-74,-13)"/>
<path style="fill-rule:nonzero;fill:rgb(39.99939%,39.99939%,39.99939%);fill-opacity:1;stroke-width:0.03;stroke-linecap:square;stroke-linejoin:miter;stroke:rgb(39.99939%,39.99939%,39.99939%);stroke-opacity:1;stroke-miterlimit:3.239307;" d="M 333.875 163.421875 L 334.820312 161.460938 L 336.304688 160.332031 L 364.050781 161.464844 L 365.558594 161.359375 L 366.957031 161.460938 L 367.761719 161.765625 L 368.25 162.582031 L 368.519531 164.007812 L 374.078125 213.34375 L 373.996094 214.816406 L 373.707031 215.597656 L 372.996094 216.921875 L 371.265625 218.019531 L 344.667969 216.398438 L 343.195312 215.769531 L 341.054688 214.503906 L 340.25 213.234375 Z M 333.875 163.421875 " transform="matrix(1,0,0,1,-74,-13)"/>
<path style="fill-rule:nonzero;fill:rgb(39.99939%,39.99939%,39.99939%);fill-opacity:1;stroke-width:0.03;stroke-linecap:square;stroke-linejoin:miter;stroke:rgb(39.99939%,39.99939%,39.99939%);stroke-opacity:1;stroke-miterlimit:3.239307;" d="M 327.148438 133.972656 L 328.851562 132.726562 L 361.75 129.570312 L 362.671875 129.765625 L 363.488281 130.066406 L 364.039062 130.511719 L 364.382812 131.113281 L 364.542969 131.859375 L 367.285156 155.644531 L 367.09375 156.699219 L 366.273438 157.53125 L 364.96875 157.734375 L 330.636719 155.546875 L 329.550781 155.09375 L 329.089844 154.289062 Z M 327.148438 133.972656 " transform="matrix(1,0,0,1,-74,-13)"/>
<path style="fill-rule:nonzero;fill:rgb(39.99939%,39.99939%,39.99939%);fill-opacity:1;stroke-width:0.03;stroke-linecap:square;stroke-linejoin:miter;stroke:rgb(39.99939%,39.99939%,39.99939%);stroke-opacity:1;stroke-miterlimit:3.239307;" d="M 322.996094 95.867188 L 356.84375 91.710938 L 358.679688 92.207031 L 359.863281 93.699219 L 363.871094 126.203125 L 363.558594 127.003906 L 362.660156 127.898438 L 361.691406 128.484375 L 328.957031 131.328125 L 326.726562 130.210938 Z M 322.996094 95.867188 " transform="matrix(1,0,0,1,-74,-13)"/>
<path style="fill-rule:nonzero;fill:rgb(39.99939%,39.99939%,39.99939%);fill-opacity:1;stroke-width:0.03;stroke-linecap:square;stroke-linejoin:miter;stroke:rgb(39.99939%,39.99939%,39.99939%);stroke-opacity:1;stroke-miterlimit:3.239307;" d="M 142.710938 204.882812 L 141.082031 190.386719 L 158.460938 187.609375 L 157.910156 178.984375 L 154.300781 179.242188 L 154.847656 186.597656 L 140.8125 188.609375 L 138.777344 170.09375 L 148.804688 169.320312 L 148.945312 172.109375 L 152.554688 171.851562 L 152.277344 167.285156 L 138.375 168.320312 L 135.917969 151.085938 L 136.457031 149.632812 L 137.441406 148.554688 L 138.476562 147.757812 L 168.296875 149.632812 L 169.09375 150.238281 L 169.71875 151.050781 L 169.953125 152 L 175.472656 205.46875 L 175.070312 206.609375 L 174.539062 207.496094 L 173.203125 208.640625 L 145.65625 207.539062 L 144.183594 206.78125 L 143.113281 205.894531 Z M 142.710938 204.882812 " transform="matrix(1,0,0,1,-74,-13)"/>
<path style="fill-rule:nonzero;fill:rgb(39.99939%,39.99939%,39.99939%);fill-opacity:1;stroke-width:0.03;stroke-linecap:square;stroke-linejoin:miter;stroke:rgb(39.99939%,39.99939%,39.99939%);stroke-opacity:1;stroke-miterlimit:3.239307;" d="M 171.835938 152.109375 L 172.347656 150.78125 L 173.296875 149.929688 L 195.480469 151.351562 L 196.265625 152.199219 L 196.773438 153.480469 L 202.753906 208.089844 L 202.257812 209.085938 L 200.347656 209.742188 L 180.292969 209.136719 L 179.101562 208.542969 L 178.183594 207.261719 L 177.265625 205.320312 Z M 171.835938 152.109375 " transform="matrix(1,0,0,1,-74,-13)"/>
<path style="fill-rule:nonzero;fill:rgb(39.99939%,39.99939%,39.99939%);fill-opacity:1;stroke-width:0.03;stroke-linecap:square;stroke-linejoin:miter;stroke:rgb(39.99939%,39.99939%,39.99939%);stroke-opacity:1;stroke-miterlimit:3.239307;" d="M 198.851562 153.617188 L 199.148438 152.632812 L 200.460938 151.683594 L 221.988281 153.046875 L 222.824219 153.40625 L 223.882812 154.15625 L 224.386719 155.109375 L 230.117188 208.558594 L 229.96875 209.984375 L 229.167969 211.125 L 207.636719 210.394531 L 206.214844 209.460938 L 205.089844 208.085938 Z M 198.851562 153.617188 " transform="matrix(1,0,0,1,-74,-13)"/>
<path style="fill-rule:nonzero;fill:rgb(39.99939%,39.99939%,39.99939%);fill-opacity:1;stroke-width:0.03;stroke-linecap:square;stroke-linejoin:miter;stroke:rgb(39.99939%,39.99939%,39.99939%);stroke-opacity:1;stroke-miterlimit:3.239307;" d="M 132.171875 122.824219 L 132.699219 121.890625 L 133.519531 121.269531 L 134.492188 121.023438 L 208.082031 125.9375 L 208.972656 126.316406 L 209.523438 126.792969 L 209.808594 127.332031 L 211.742188 145.761719 L 211.542969 146.714844 L 211.035156 147.417969 L 210.195312 147.964844 L 137.878906 143.40625 L 136.375 142.917969 L 135.070312 142.042969 L 134.421875 140.484375 Z M 132.171875 122.824219 " transform="matrix(1,0,0,1,-74,-13)"/>
<path style="fill-rule:nonzero;fill:rgb(39.99939%,39.99939%,39.99939%);fill-opacity:1;stroke-width:0.03;stroke-linecap:square;stroke-linejoin:miter;stroke:rgb(39.99939%,39.99939%,39.99939%);stroke-opacity:1;stroke-miterlimit:3.239307;" d="M 125.429688 67.03125 L 126.109375 65.453125 L 127.675781 64.429688 L 162.875 72.300781 L 163.660156 72.949219 L 164.347656 74.15625 L 169.886719 119.894531 L 169.59375 120.640625 L 169.105469 121.011719 L 167.640625 121.664062 L 135.136719 119.480469 L 133.667969 118.925781 L 132.199219 117.816406 L 131.414062 116.515625 Z M 125.429688 67.03125 " transform="matrix(1,0,0,1,-74,-13)"/>
<g clip-path="url(#clip16)" clip-rule="nonzero">
<path style=" stroke:none;fill-rule:evenodd;fill:rgb(85.096741%,85.096741%,81.959534%);fill-opacity:0.7;" d="M 304.644531 368 C 304.644531 364.382812 303.207031 360.910156 300.648438 358.351562 C 298.089844 355.792969 294.617188 354.355469 291 354.355469 C 287.382812 354.355469 283.910156 355.792969 281.351562 358.351562 C 278.792969 360.910156 277.355469 364.382812 277.355469 368 C 277.355469 371.617188 278.792969 375.089844 281.351562 377.648438 C 283.910156 380.207031 287.382812 381.644531 291 381.644531 C 294.617188 381.644531 298.089844 380.207031 300.648438 377.648438 C 303.207031 375.089844 304.644531 371.617188 304.644531 368 Z M 304.644531 368 "/>
</g>
<path style=" stroke:none;fill-rule:evenodd;fill:rgb(85.096741%,85.096741%,81.959534%);fill-opacity:0.7;" d="M 180.644531 341 C 180.644531 337.382812 179.207031 333.910156 176.648438 331.351562 C 174.089844 328.792969 170.617188 327.355469 167 327.355469 C 163.382812 327.355469 159.910156 328.792969 157.351562 331.351562 C 154.792969 333.910156 153.355469 337.382812 153.355469 341 C 153.355469 344.617188 154.792969 348.089844 157.351562 350.648438 C 159.910156 353.207031 163.382812 354.644531 167 354.644531 C 170.617188 354.644531 174.089844 353.207031 176.648438 350.648438 C 179.207031 348.089844 180.644531 344.617188 180.644531 341 Z M 180.644531 341 "/>
<path style=" stroke:none;fill-rule:evenodd;fill:rgb(85.096741%,85.096741%,81.959534%);fill-opacity:0.7;" d="M 268.644531 324 C 268.644531 320.382812 267.207031 316.910156 264.648438 314.351562 C 262.089844 311.792969 258.617188 310.355469 255 310.355469 C 251.382812 310.355469 247.910156 311.792969 245.351562 314.351562 C 242.792969 316.910156 241.355469 320.382812 241.355469 324 C 241.355469 327.617188 242.792969 331.089844 245.351562 333.648438 C 247.910156 336.207031 251.382812 337.644531 255 337.644531 C 258.617188 337.644531 262.089844 336.207031 264.648438 333.648438 C 267.207031 331.089844 268.644531 327.617188 268.644531 324 Z M 268.644531 324 "/>
<path style=" stroke:none;fill-rule:evenodd;fill:rgb(85.096741%,85.096741%,81.959534%);fill-opacity:0.7;" d="M 245.644531 310 C 245.644531 306.382812 244.207031 302.910156 241.648438 300.351562 C 239.089844 297.792969 235.617188 296.355469 232 296.355469 C 228.382812 296.355469 224.910156 297.792969 222.351562 300.351562 C 219.792969 302.910156 218.355469 306.382812 218.355469 310 C 218.355469 313.617188 219.792969 317.089844 222.351562 319.648438 C 224.910156 322.207031 228.382812 323.644531 232 323.644531 C 235.617188 323.644531 239.089844 322.207031 241.648438 319.648438 C 244.207031 317.089844 245.644531 313.617188 245.644531 310 Z M 245.644531 310 "/>
<path style=" stroke:none;fill-rule:evenodd;fill:rgb(85.096741%,85.096741%,81.959534%);fill-opacity:0.7;" d="M 262.644531 308 C 262.644531 304.382812 261.207031 300.910156 258.648438 298.351562 C 256.089844 295.792969 252.617188 294.355469 249 294.355469 C 245.382812 294.355469 241.910156 295.792969 239.351562 298.351562 C 236.792969 300.910156 235.355469 304.382812 235.355469 308 C 235.355469 311.617188 236.792969 315.089844 239.351562 317.648438 C 241.910156 320.207031 245.382812 321.644531 249 321.644531 C 252.617188 321.644531 256.089844 320.207031 258.648438 317.648438 C 261.207031 315.089844 262.644531 311.617188 262.644531 308 Z M 262.644531 308 "/>
<path style=" stroke:none;fill-rule:evenodd;fill:rgb(85.096741%,85.096741%,81.959534%);fill-opacity:0.7;" d="M 326.644531 215 C 326.644531 211.382812 325.207031 207.910156 322.648438 205.351562 C 320.089844 202.792969 316.617188 201.355469 313 201.355469 C 309.382812 201.355469 305.910156 202.792969 303.351562 205.351562 C 300.792969 207.910156 299.355469 211.382812 299.355469 215 C 299.355469 218.617188 300.792969 222.089844 303.351562 224.648438 C 305.910156 227.207031 309.382812 228.644531 313 228.644531 C 316.617188 228.644531 320.089844 227.207031 322.648438 224.648438 C 325.207031 222.089844 326.644531 218.617188 326.644531 215 Z M 326.644531 215 "/>
<path style=" stroke:none;fill-rule:evenodd;fill:rgb(85.096741%,85.096741%,81.959534%);fill-opacity:0.7;" d="M 326.644531 139 C 326.644531 135.382812 325.207031 131.910156 322.648438 129.351562 C 320.089844 126.792969 316.617188 125.355469 313 125.355469 C 309.382812 125.355469 305.910156 126.792969 303.351562 129.351562 C 300.792969 131.910156 299.355469 135.382812 299.355469 139 C 299.355469 142.617188 300.792969 146.089844 303.351562 148.648438 C 305.910156 151.207031 309.382812 152.644531 313 152.644531 C 316.617188 152.644531 320.089844 151.207031 322.648438 148.648438 C 325.207031 146.089844 326.644531 142.617188 326.644531 139 Z M 326.644531 139 "/>
<path style=" stroke:none;fill-rule:evenodd;fill:rgb(85.096741%,85.096741%,81.959534%);fill-opacity:0.7;" d="M 288.644531 137 C 288.644531 133.382812 287.207031 129.910156 284.648438 127.351562 C 282.089844 124.792969 278.617188 123.355469 275 123.355469 C 271.382812 123.355469 267.910156 124.792969 265.351562 127.351562 C 262.792969 129.910156 261.355469 133.382812 261.355469 137 C 261.355469 140.617188 262.792969 144.089844 265.351562 146.648438 C 267.910156 149.207031 271.382812 150.644531 275 150.644531 C 278.617188 150.644531 282.089844 149.207031 284.648438 146.648438 C 287.207031 144.089844 288.644531 140.617188 288.644531 137 Z M 288.644531 137 "/>
<path style=" stroke:none;fill-rule:evenodd;fill:rgb(85.096741%,85.096741%,81.959534%);fill-opacity:0.7;" d="M 264.644531 78 C 264.644531 74.382812 263.207031 70.910156 260.648438 68.351562 C 258.089844 65.792969 254.617188 64.355469 251 64.355469 C 247.382812 64.355469 243.910156 65.792969 241.351562 68.351562 C 238.792969 70.910156 237.355469 74.382812 237.355469 78 C 237.355469 81.617188 238.792969 85.089844 241.351562 87.648438 C 243.910156 90.207031 247.382812 91.644531 251 91.644531 C 254.617188 91.644531 258.089844 90.207031 260.648438 87.648438 C 263.207031 85.089844 264.644531 81.617188 264.644531 78 Z M 264.644531 78 "/>
<path style=" stroke:none;fill-rule:evenodd;fill:rgb(85.096741%,85.096741%,81.959534%);fill-opacity:0.7;" d="M 355.644531 183 C 355.644531 179.382812 354.207031 175.910156 351.648438 173.351562 C 349.089844 170.792969 345.617188 169.355469 342 169.355469 C 338.382812 169.355469 334.910156 170.792969 332.351562 173.351562 C 329.792969 175.910156 328.355469 179.382812 328.355469 183 C 328.355469 186.617188 329.792969 190.089844 332.351562 192.648438 C 334.910156 195.207031 338.382812 196.644531 342 196.644531 C 345.617188 196.644531 349.089844 195.207031 351.648438 192.648438 C 354.207031 190.089844 355.644531 186.617188 355.644531 183 Z M 355.644531 183 "/>
<path style=" stroke:none;fill-rule:evenodd;fill:rgb(85.096741%,85.096741%,81.959534%);fill-opacity:0.7;" d="M 289.644531 340 C 289.644531 336.382812 288.207031 332.910156 285.648438 330.351562 C 283.089844 327.792969 279.617188 326.355469 276 326.355469 C 272.382812 326.355469 268.910156 327.792969 266.351562 330.351562 C 263.792969 332.910156 262.355469 336.382812 262.355469 340 C 262.355469 343.617188 263.792969 347.089844 266.351562 349.648438 C 268.910156 352.207031 272.382812 353.644531 276 353.644531 C 279.617188 353.644531 283.089844 352.207031 285.648438 349.648438 C 288.207031 347.089844 289.644531 343.617188 289.644531 340 Z M 289.644531 340 "/>
<path style=" stroke:none;fill-rule:evenodd;fill:rgb(85.096741%,85.096741%,81.959534%);fill-opacity:0.7;" d="M 222.644531 312 C 222.644531 308.382812 221.207031 304.910156 218.648438 302.351562 C 216.089844 299.792969 212.617188 298.355469 209 298.355469 C 205.382812 298.355469 201.910156 299.792969 199.351562 302.351562 C 196.792969 304.910156 195.355469 308.382812 195.355469 312 C 195.355469 315.617188 196.792969 319.089844 199.351562 321.648438 C 201.910156 324.207031 205.382812 325.644531 209 325.644531 C 212.617188 325.644531 216.089844 324.207031 218.648438 321.648438 C 221.207031 319.089844 222.644531 315.617188 222.644531 312 Z M 222.644531 312 "/>
<path style=" stroke:none;fill-rule:evenodd;fill:rgb(85.096741%,85.096741%,81.959534%);fill-opacity:0.7;" d="M 48.644531 250 C 48.644531 246.382812 47.207031 242.910156 44.648438 240.351562 C 42.089844 237.792969 38.617188 236.355469 35 236.355469 C 31.382812 236.355469 27.910156 237.792969 25.351562 240.351562 C 22.792969 242.910156 21.355469 246.382812 21.355469 250 C 21.355469 253.617188 22.792969 257.089844 25.351562 259.648438 C 27.910156 262.207031 31.382812 263.644531 35 263.644531 C 38.617188 263.644531 42.089844 262.207031 44.648438 259.648438 C 47.207031 257.089844 48.644531 253.617188 48.644531 250 Z M 48.644531 250 "/>
</g>
</svg>
