<?xml version="1.0" encoding="UTF-8"?>
<svg xmlns="http://www.w3.org/2000/svg" xmlns:xlink="http://www.w3.org/1999/xlink" width="361pt" height="361pt" viewBox="0 0 361 361" version="1.1">
<defs>
<clipPath id="clip1">
  <path d="M 357 109 L 360 109 L 360 132 L 357 132 Z M 357 109 "/>
</clipPath>
<clipPath id="clip2">
  <path d="M 355 0 L 360 0 L 360 28 L 355 28 Z M 355 0 "/>
</clipPath>
<clipPath id="clip3">
  <path d="M 323 55 L 360 55 L 360 155 L 323 155 Z M 323 55 "/>
</clipPath>
<clipPath id="clip4">
  <path d="M 295 0 L 360 0 L 360 152 L 295 152 Z M 295 0 "/>
</clipPath>
<clipPath id="clip5">
  <path d="M 351 30 L 360 30 L 360 63 L 351 63 Z M 351 30 "/>
</clipPath>
<clipPath id="clip6">
  <path d="M 356 0 L 360 0 L 360 39 L 356 39 Z M 356 0 "/>
</clipPath>
<clipPath id="clip7">
  <path d="M 337 320 L 360 320 L 360 334 L 337 334 Z M 337 320 "/>
</clipPath>
<clipPath id="clip8">
  <path d="M 357 189 L 360 189 L 360 256 L 357 256 Z M 357 189 "/>
</clipPath>
<clipPath id="clip9">
  <path d="M 321 169 L 360 169 L 360 201 L 321 201 Z M 321 169 "/>
</clipPath>
<clipPath id="clip10">
  <path d="M 317 279 L 360 279 L 360 314 L 317 314 Z M 317 279 "/>
</clipPath>
<clipPath id="clip11">
  <path d="M 340 306 L 360 306 L 360 329 L 340 329 Z M 340 306 "/>
</clipPath>
<clipPath id="clip12">
  <path d="M 348 152 L 360 152 L 360 184 L 348 184 Z M 348 152 "/>
</clipPath>
<clipPath id="clip13">
  <path d="M 316 193 L 360 193 L 360 260 L 316 260 Z M 316 193 "/>
</clipPath>
<clipPath id="clip14">
  <path d="M 323 246 L 360 246 L 360 306 L 323 306 Z M 323 246 "/>
</clipPath>
<clipPath id="clip15">
  <path d="M 0 329 L 55 329 L 55 360 L 0 360 Z M 0 329 "/>
</clipPath>
<clipPath id="clip16">
  <path d="M 0 336 L 26 336 L 26 360 L 0 360 Z M 0 336 "/>
</clipPath>
<clipPath id="clip17">
  <path d="M 198 354 L 219 354 L 219 360 L 198 360 Z M 198 354 "/>
</clipPath>
<clipPath id="clip18">
  <path d="M 186 356 L 250 356 L 250 360 L 186 360 Z M 186 356 "/>
</clipPath>
<clipPath id="clip19">
  <path d="M 344 357 L 360 357 L 360 360 L 344 360 Z M 344 357 "/>
</clipPath>
<clipPath id="clip20">
  <path d="M 186 336 L 212 336 L 212 360 L 186 360 Z M 186 336 "/>
</clipPath>
<clipPath id="clip21">
  <path d="M 325 331 L 360 331 L 360 354 L 325 354 Z M 325 331 "/>
</clipPath>
<clipPath id="clip22">
  <path d="M 203 301 L 282 301 L 282 360 L 203 360 Z M 203 301 "/>
</clipPath>
<clipPath id="clip23">
  <path d="M 201 347 L 215 347 L 215 360 L 201 360 Z M 201 347 "/>
</clipPath>
<clipPath id="clip24">
  <path d="M 197 343 L 343 343 L 343 360 L 197 360 Z M 197 343 "/>
</clipPath>
<clipPath id="clip25">
  <path d="M 319 343 L 360 343 L 360 360 L 319 360 Z M 319 343 "/>
</clipPath>
<clipPath id="clip26">
  <path d="M 46 278 L 124 278 L 124 360 L 46 360 Z M 46 278 "/>
</clipPath>
<clipPath id="clip27">
  <path d="M 67 338 L 101 338 L 101 360 L 67 360 Z M 67 338 "/>
</clipPath>
<clipPath id="clip28">
  <path d="M 83 337 L 116 337 L 116 360 L 83 360 Z M 83 337 "/>
</clipPath>
<clipPath id="clip29">
  <path d="M 116 357 L 120 357 L 120 360 L 116 360 Z M 116 357 "/>
</clipPath>
<clipPath id="clip30">
  <path d="M 43 290 L 101 290 L 101 360 L 43 360 Z M 43 290 "/>
</clipPath>
<clipPath id="clip31">
  <path d="M 150 338 L 191 338 L 191 360 L 150 360 Z M 150 338 "/>
</clipPath>
<clipPath id="clip32">
  <path d="M 185 336 L 196 336 L 196 360 L 185 360 Z M 185 336 "/>
</clipPath>
<clipPath id="clip33">
  <path d="M 110 329 L 159 329 L 159 360 L 110 360 Z M 110 329 "/>
</clipPath>
</defs>
<g id="surface231">
<path style="fill-rule:nonzero;fill:rgb(0%,0%,0%);fill-opacity:1;stroke-width:0.03;stroke-linecap:square;stroke-linejoin:miter;stroke:rgb(0%,0%,0%);stroke-opacity:1;stroke-miterlimit:10;" d="M 0 178 L 360 178 L 360 -182 L 0 -182 Z M 0 178 " transform="matrix(1,0,0,1,0,182)"/>
<path style=" stroke:none;fill-rule:nonzero;fill:rgb(39.99939%,39.99939%,39.99939%);fill-opacity:0.3;" d="M 271.464844 139.839844 L 293.035156 145.953125 L 289.828125 158.722656 L 267.507812 153.097656 Z M 271.464844 139.839844 "/>
<path style=" stroke:none;fill-rule:nonzero;fill:rgb(39.99939%,39.99939%,39.99939%);fill-opacity:0.3;" d="M 21.488281 138.019531 L 26.21875 139.105469 L 26.210938 139.136719 L 21.4375 138.195312 Z M 21.488281 138.019531 "/>
<path style=" stroke:none;fill-rule:nonzero;fill:rgb(39.99939%,39.99939%,39.99939%);fill-opacity:0.3;" d="M 182.285156 189.882812 L 190.308594 195.8125 L 182.125 191.148438 L 181.921875 191.023438 Z M 182.285156 189.882812 "/>
<path style=" stroke:none;fill-rule:nonzero;fill:rgb(39.99939%,39.99939%,39.99939%);fill-opacity:0.3;" d="M 206.75 186.160156 L 216.152344 152.59375 L 230.753906 156.394531 L 230.878906 155.953125 L 231.007812 155.507812 L 216.378906 151.773438 L 217.351562 148.304688 L 239.335938 154.214844 L 230.449219 182.734375 L 222.65625 180.667969 L 222.304688 181.824219 L 230.097656 183.839844 L 227.699219 191.554688 Z M 206.75 186.160156 "/>
<path style=" stroke:none;fill-rule:nonzero;fill:rgb(39.99939%,39.99939%,39.99939%);fill-opacity:0.3;" d="M 253.949219 111.828125 L 274.816406 117.765625 L 266.8125 146.8125 L 263.300781 159.53125 L 244.859375 226.414062 L 223.242188 212.214844 L 241.089844 153.875 L 245.578125 139.191406 L 250.070312 124.503906 L 256.550781 126.351562 L 256.839844 125.574219 L 257.125 124.800781 L 250.554688 122.929688 Z M 253.949219 111.828125 "/>
<path style=" stroke:none;fill-rule:nonzero;fill:rgb(39.99939%,39.99939%,39.99939%);fill-opacity:0.3;" d="M 232.175781 96.226562 L 254.574219 102.640625 L 251.527344 113.105469 L 244.785156 111.269531 L 244.632812 111.851562 L 244.480469 112.429688 L 251.136719 114.441406 L 239.890625 153.046875 L 217.917969 147.140625 Z M 232.175781 96.226562 "/>
<path style=" stroke:none;fill-rule:nonzero;fill:rgb(39.99939%,39.99939%,39.99939%);fill-opacity:0.3;" d="M 231.417969 14.253906 L 252.933594 19.75 L 243.929688 51.125 L 222.550781 45.003906 Z M 231.417969 14.253906 "/>
<path style=" stroke:none;fill-rule:nonzero;fill:rgb(39.99939%,39.99939%,39.99939%);fill-opacity:0.3;" d="M 109.539062 -27.265625 L 107.128906 -18.945312 L 94.320312 -22.515625 L 94.0625 -21.8125 L 93.808594 -21.113281 L 106.722656 -17.546875 L 102.488281 -2.910156 L 86.082031 -8.1875 L 85.863281 -7.535156 L 85.648438 -6.882812 L 102.027344 -1.324219 L 96.898438 16.394531 L 96.488281 16.753906 L 95.714844 16.6875 L 44.332031 3.777344 L 44.160156 3.457031 L 43.992188 3.019531 L 59.445312 -40.722656 L 60.394531 -41.257812 L 61.515625 -41.546875 L 79.355469 -36.5 Z M 109.539062 -27.265625 "/>
<path style=" stroke:none;fill-rule:nonzero;fill:rgb(39.99939%,39.99939%,39.99939%);fill-opacity:0.3;" d="M 328.46875 -60.117188 L 350.292969 -55.703125 L 326.523438 26.734375 L 305.285156 21.640625 L 321.929688 -37.0625 L 332.816406 -34.660156 L 332.816406 -37.195312 L 322.773438 -40.039062 Z M 328.46875 -60.117188 "/>
<path style=" stroke:none;fill-rule:nonzero;fill:rgb(39.99939%,39.99939%,39.99939%);fill-opacity:0.3;" d="M 291.558594 160.605469 L 312.058594 165.65625 L 304.460938 190.085938 L 284.191406 184.726562 L 285.597656 180.164062 L 303.308594 184.8125 L 303.550781 184.078125 L 285.859375 179.445312 Z M 291.558594 160.605469 "/>
<path style=" stroke:none;fill-rule:nonzero;fill:rgb(39.99939%,39.99939%,39.99939%);fill-opacity:0.3;" d="M -24.410156 -46.417969 L -21.929688 -48.9375 L -18.230469 -49.832031 L -12.226562 -50.285156 L -5.925781 -49.40625 L 4.519531 -46.015625 L 13.265625 -42.472656 L 13.714844 -40.695312 L 6.644531 -19.570312 L 3.136719 -13.902344 L -10.976562 18.800781 L -11.898438 19.238281 L -13.128906 19.238281 L -32.523438 11.078125 L -33.914062 8.601562 L -33.609375 6.554688 L -30.851562 -0.0117188 L -28.707031 -8.191406 L -26.871094 -20.613281 L -25.734375 -34.664062 Z M -24.410156 -46.417969 "/>
<path style=" stroke:none;fill-rule:nonzero;fill:rgb(39.99939%,39.99939%,39.99939%);fill-opacity:0.3;" d="M 244.882812 53.160156 L 267.199219 59.199219 L 255.644531 100.996094 L 233.257812 94.585938 Z M 244.882812 53.160156 "/>
<path style=" stroke:none;fill-rule:nonzero;fill:rgb(39.99939%,39.99939%,39.99939%);fill-opacity:0.3;" d="M 179.675781 106.132812 L 201.042969 111.535156 L 193.207031 138.917969 L 172.027344 133.144531 Z M 179.675781 106.132812 "/>
<path style=" stroke:none;fill-rule:nonzero;fill:rgb(39.99939%,39.99939%,39.99939%);fill-opacity:0.3;" d="M 204.257812 108.484375 L 226.023438 113.996094 L 223.65625 122.484375 L 201.371094 118.625 Z M 204.257812 108.484375 "/>
<path style=" stroke:none;fill-rule:nonzero;fill:rgb(39.99939%,39.99939%,39.99939%);fill-opacity:0.3;" d="M 165.15625 69.347656 L 187.476562 74.992188 L 184.851562 84.402344 L 162.523438 78.753906 Z M 165.15625 69.347656 "/>
<path style=" stroke:none;fill-rule:nonzero;fill:rgb(39.99939%,39.99939%,39.99939%);fill-opacity:0.3;" d="M -10.546875 130.574219 L -10.394531 130.03125 L 2.050781 132.851562 L 1.78125 133.652344 Z M -10.546875 130.574219 "/>
<path style=" stroke:none;fill-rule:nonzero;fill:rgb(39.99939%,39.99939%,39.99939%);fill-opacity:0.3;" d="M 13.296875 135.65625 L 19.132812 137.417969 L 19.042969 137.726562 L 14.53125 136.835938 L 13.066406 136.46875 Z M 13.296875 135.65625 "/>
<path style=" stroke:none;fill-rule:nonzero;fill:rgb(39.99939%,39.99939%,39.99939%);fill-opacity:0.3;" d="M 320.863281 166.710938 L 319.285156 166.046875 L 315.070312 164.792969 L 322.34375 142.371094 L 328.261719 144.207031 L 320.644531 166.171875 Z M 320.863281 166.710938 "/>
<path style=" stroke:none;fill-rule:nonzero;fill:rgb(39.99939%,39.99939%,39.99939%);fill-opacity:0.3;" d="M 314.621094 166.089844 L 321.84375 169.167969 L 327.304688 182.820312 L 326.917969 183.671875 L 326.707031 183.546875 L 324.078125 189.277344 L 316.285156 185.320312 L 320.574219 176.742188 L 320.050781 176.445312 L 319.523438 176.144531 L 314.578125 186.007812 L 323.472656 190.503906 L 310.214844 219.511719 L 308.382812 219.765625 L 300.144531 211.839844 Z M 314.621094 166.089844 "/>
<path style=" stroke:none;fill-rule:nonzero;fill:rgb(39.99939%,39.99939%,39.99939%);fill-opacity:0.3;" d="M 297.734375 218.984375 L 300.878906 222.109375 L 298.003906 253.648438 L 287.210938 249.496094 Z M 297.734375 218.984375 "/>
<g clip-path="url(#clip1)" clip-rule="nonzero">
<path style=" stroke:none;fill-rule:nonzero;fill:rgb(39.99939%,39.99939%,39.99939%);fill-opacity:0.3;" d="M 363.558594 109.679688 L 382.019531 114.226562 L 379.8125 121.605469 L 376.925781 130.746094 L 375.359375 131.515625 L 357.804688 126.457031 Z M 363.558594 109.679688 "/>
</g>
<path style=" stroke:none;fill-rule:nonzero;fill:rgb(39.99939%,39.99939%,39.99939%);fill-opacity:0.3;" d="M 128.070312 156.304688 L 130.492188 147.859375 L 139.214844 150.128906 L 135.597656 162.773438 L 131.371094 161.535156 L 113.453125 153.925781 L 120.957031 127.488281 L 134.457031 131.0625 L 127.347656 156.136719 L 127.703125 156.265625 Z M 128.070312 156.304688 "/>
<path style=" stroke:none;fill-rule:nonzero;fill:rgb(39.99939%,39.99939%,39.99939%);fill-opacity:0.3;" d="M 160.164062 -53.628906 L 135.636719 27.066406 L 98.859375 17.535156 L 116.195312 -41.085938 L 132.480469 -99.351562 L 166.066406 -92.53125 L 156.171875 -57.28125 Z M 160.164062 -53.628906 "/>
<path style=" stroke:none;fill-rule:nonzero;fill:rgb(39.99939%,39.99939%,39.99939%);fill-opacity:0.3;" d="M 170.3125 38.539062 L 170.421875 38.988281 L 139.792969 147.839844 L 131.097656 145.519531 L 135.433594 129.949219 L 125.472656 127.21875 L 153.199219 34.40625 Z M 170.3125 38.539062 "/>
<path style=" stroke:none;fill-rule:nonzero;fill:rgb(39.99939%,39.99939%,39.99939%);fill-opacity:0.3;" d="M 269.820312 232.003906 L 288.839844 237.035156 L 284.855469 248.589844 L 278.355469 246.089844 L 267.367188 239.761719 L 266.332031 239.171875 Z M 269.820312 232.003906 "/>
<path style=" stroke:none;fill-rule:nonzero;fill:rgb(39.99939%,39.99939%,39.99939%);fill-opacity:0.3;" d="M 260.886719 176.769531 L 283.09375 182.703125 L 269.730469 225.722656 L 258.164062 221.78125 L 257.632812 223.195312 L 269.269531 227.160156 L 264.5625 238.160156 L 247.828125 228.621094 L 246.777344 227.777344 Z M 260.886719 176.769531 "/>
<path style=" stroke:none;fill-rule:nonzero;fill:rgb(39.99939%,39.99939%,39.99939%);fill-opacity:0.3;" d="M 280.109375 197.335938 L 300.40625 202.621094 L 298.222656 209.539062 L 277.984375 204.269531 Z M 280.109375 197.335938 "/>
<path style=" stroke:none;fill-rule:nonzero;fill:rgb(39.99939%,39.99939%,39.99939%);fill-opacity:0.3;" d="M 267.042969 154.574219 L 289.414062 160.1875 L 283.226562 181.597656 L 260.921875 175.464844 Z M 267.042969 154.574219 "/>
<path style=" stroke:none;fill-rule:nonzero;fill:rgb(39.99939%,39.99939%,39.99939%);fill-opacity:0.3;" d="M 316.714844 152.773438 L 315.527344 156.035156 L 294.550781 150.574219 L 295.472656 147.242188 Z M 316.714844 152.773438 "/>
<path style=" stroke:none;fill-rule:nonzero;fill:rgb(39.99939%,39.99939%,39.99939%);fill-opacity:0.3;" d="M 294.347656 140.046875 L 273.144531 133.839844 L 276.269531 122.949219 L 297.472656 128.46875 L 295.707031 134.914062 L 284.546875 131.921875 L 284.070312 133.5 L 295.378906 136.453125 Z M 294.347656 140.046875 "/>
<path style=" stroke:none;fill-rule:nonzero;fill:rgb(39.99939%,39.99939%,39.99939%);fill-opacity:0.3;" d="M 294.082031 141.117188 L 292.996094 145.285156 L 271.488281 139.242188 L 272.84375 134.832031 Z M 294.082031 141.117188 "/>
<path style=" stroke:none;fill-rule:nonzero;fill:rgb(39.99939%,39.99939%,39.99939%);fill-opacity:0.3;" d="M 347.6875 53.253906 L 354.390625 29.785156 L 355.175781 30.058594 L 352.945312 37.308594 L 351.171875 54.46875 Z M 347.6875 53.253906 "/>
<g clip-path="url(#clip2)" clip-rule="nonzero">
<path style=" stroke:none;fill-rule:nonzero;fill:rgb(39.99939%,39.99939%,39.99939%);fill-opacity:0.3;" d="M 356.046875 27.261719 L 355.964844 27.230469 L 364.925781 -6.390625 L 357.609375 22.324219 Z M 356.046875 27.261719 "/>
</g>
<path style=" stroke:none;fill-rule:nonzero;fill:rgb(39.99939%,39.99939%,39.99939%);fill-opacity:0.3;" d="M 256.371094 13.511719 L 260.457031 -0.589844 L 282.242188 4.464844 L 278.269531 18.941406 Z M 256.371094 13.511719 "/>
<path style=" stroke:none;fill-rule:nonzero;fill:rgb(39.99939%,39.99939%,39.99939%);fill-opacity:0.3;" d="M 293.113281 62.925781 L 304.742188 23.414062 L 325.902344 28.421875 L 316.566406 63.335938 L 298.222656 126.707031 L 276.8125 121.398438 L 292.84375 63.96875 L 296.992188 65.050781 L 297.09375 64.625 L 297.25 63.992188 Z M 293.113281 62.925781 "/>
<path style=" stroke:none;fill-rule:nonzero;fill:rgb(39.99939%,39.99939%,39.99939%);fill-opacity:0.3;" d="M 266.519531 69.375 L 287.691406 74.691406 L 275.464844 115.890625 L 254.792969 110.171875 Z M 266.519531 69.375 "/>
<path style=" stroke:none;fill-rule:nonzero;fill:rgb(39.99939%,39.99939%,39.99939%);fill-opacity:0.3;" d="M 200.242188 120.070312 L 222.539062 123.921875 L 216.152344 146.730469 L 194.292969 140.859375 Z M 200.242188 120.070312 "/>
<path style=" stroke:none;fill-rule:nonzero;fill:rgb(39.99939%,39.99939%,39.99939%);fill-opacity:0.3;" d="M 227.316406 192.785156 L 226.132812 196.4375 L 219.097656 194.140625 L 218.808594 194.878906 L 218.519531 195.613281 L 225.667969 197.917969 L 224.507812 201.65625 L 212.527344 197.921875 L 212.40625 198.363281 L 212.289062 198.800781 L 224.292969 202.382812 L 221.589844 211.152344 L 217.078125 208.25 L 207.808594 201.65625 L 203.515625 197.714844 L 206.402344 187.398438 Z M 227.316406 192.785156 "/>
<path style=" stroke:none;fill-rule:nonzero;fill:rgb(39.99939%,39.99939%,39.99939%);fill-opacity:0.3;" d="M 161.875 161.550781 L 158.867188 172.125 L 145.375 168.058594 L 137.328125 164.5625 L 140.195312 154.371094 Z M 161.875 161.550781 "/>
<path style=" stroke:none;fill-rule:nonzero;fill:rgb(39.99939%,39.99939%,39.99939%);fill-opacity:0.3;" d="M 171.695312 134.304688 L 192.875 140.082031 L 187.453125 159.597656 L 166.125 154.105469 Z M 171.695312 134.304688 "/>
<path style=" stroke:none;fill-rule:nonzero;fill:rgb(39.99939%,39.99939%,39.99939%);fill-opacity:0.3;" d="M 165.652344 155.367188 L 187.167969 160.761719 L 181.757812 180.367188 L 180.863281 179.683594 L 175.070312 177.210938 L 170.90625 175.898438 L 160.664062 172.761719 Z M 165.652344 155.367188 "/>
<path style=" stroke:none;fill-rule:nonzero;fill:rgb(39.99939%,39.99939%,39.99939%);fill-opacity:0.3;" d="M 140.816406 152.78125 L 147.769531 128.074219 L 169.992188 133.644531 L 162.5 159.960938 Z M 140.816406 152.78125 "/>
<path style=" stroke:none;fill-rule:nonzero;fill:rgb(39.99939%,39.99939%,39.99939%);fill-opacity:0.3;" d="M 148.390625 126.484375 L 151.105469 116.828125 L 173.3125 122.28125 L 170.5 132.167969 Z M 148.390625 126.484375 "/>
<path style=" stroke:none;fill-rule:nonzero;fill:rgb(39.99939%,39.99939%,39.99939%);fill-opacity:0.3;" d="M 161.617188 79.773438 L 184.09375 85.457031 L 181.910156 92.972656 L 159.441406 87.09375 Z M 161.617188 79.773438 "/>
<path style=" stroke:none;fill-rule:nonzero;fill:rgb(39.99939%,39.99939%,39.99939%);fill-opacity:0.3;" d="M 151.230469 115.550781 L 156.457031 98.070312 L 178.566406 103.535156 L 175.523438 113.8125 L 163.992188 110.601562 L 163.738281 111.414062 L 163.523438 112.113281 L 175.242188 115.222656 L 173.542969 121.183594 Z M 151.230469 115.550781 "/>
<path style=" stroke:none;fill-rule:nonzero;fill:rgb(39.99939%,39.99939%,39.99939%);fill-opacity:0.3;" d="M 158.953125 88.660156 L 181.425781 94.652344 L 179.15625 102.003906 L 156.542969 96.425781 Z M 158.953125 88.660156 "/>
<path style=" stroke:none;fill-rule:nonzero;fill:rgb(39.99939%,39.99939%,39.99939%);fill-opacity:0.3;" d="M 216.605469 66.335938 L 238.15625 71.785156 L 234.511719 84.6875 L 212.914062 79.226562 Z M 216.605469 66.335938 "/>
<path style=" stroke:none;fill-rule:nonzero;fill:rgb(39.99939%,39.99939%,39.99939%);fill-opacity:0.3;" d="M 212.320312 80.1875 L 233.917969 85.65625 L 226.347656 112.832031 L 204.589844 107.324219 L 206.835938 99.835938 L 215.84375 102.144531 L 215.980469 101.617188 L 216.128906 101.097656 L 207.25 98.746094 Z M 212.320312 80.1875 "/>
<path style=" stroke:none;fill-rule:nonzero;fill:rgb(39.99939%,39.99939%,39.99939%);fill-opacity:0.3;" d="M 216.9375 65.175781 L 222.285156 46.484375 L 243.660156 52.605469 L 238.492188 70.625 Z M 216.9375 65.175781 "/>
<path style=" stroke:none;fill-rule:nonzero;fill:rgb(39.99939%,39.99939%,39.99939%);fill-opacity:0.3;" d="M 247.347656 44.65625 L 269.65625 50.3125 L 267.519531 58.03125 L 255.527344 54.738281 L 245.210938 51.878906 Z M 247.347656 44.65625 "/>
<path style=" stroke:none;fill-rule:nonzero;fill:rgb(39.99939%,39.99939%,39.99939%);fill-opacity:0.3;" d="M 176.175781 29.8125 L 198.246094 35.714844 L 195.382812 45.011719 L 186.246094 42.714844 L 186.070312 43.242188 L 185.894531 43.773438 L 195.070312 46.132812 L 194.058594 50.261719 L 172.109375 44.277344 Z M 176.175781 29.8125 "/>
<path style=" stroke:none;fill-rule:nonzero;fill:rgb(39.99939%,39.99939%,39.99939%);fill-opacity:0.3;" d="M 171.902344 45.238281 L 193.820312 51.238281 L 191.757812 59.636719 L 184.617188 57.65625 L 184.351562 58.523438 L 191.398438 60.761719 L 190.75 63.253906 L 168.441406 57.613281 Z M 171.902344 45.238281 "/>
<path style=" stroke:none;fill-rule:nonzero;fill:rgb(39.99939%,39.99939%,39.99939%);fill-opacity:0.3;" d="M 168.113281 58.773438 L 190.425781 64.417969 L 187.800781 73.832031 L 165.480469 68.183594 Z M 168.113281 58.773438 "/>
<path style=" stroke:none;fill-rule:nonzero;fill:rgb(39.99939%,39.99939%,39.99939%);fill-opacity:0.3;" d="M 204.199219 21.914062 L 207.542969 9.980469 L 229.414062 15.609375 L 225.972656 27.628906 Z M 204.199219 21.914062 "/>
<path style=" stroke:none;fill-rule:nonzero;fill:rgb(39.99939%,39.99939%,39.99939%);fill-opacity:0.3;" d="M 195.332031 -38.320312 L 217.859375 -32.679688 L 217.347656 -30.675781 L 215.792969 -25.5 L 207.523438 -27.792969 L 207.292969 -27.078125 L 207.066406 -26.363281 L 215.480469 -24.089844 L 208.882812 -1.089844 L 193.628906 -4.949219 L 193.097656 -3.230469 L 208.382812 0.746094 L 198.554688 34.433594 L 176.550781 28.574219 Z M 195.332031 -38.320312 "/>
<path style=" stroke:none;fill-rule:nonzero;fill:rgb(39.99939%,39.99939%,39.99939%);fill-opacity:0.3;" d="M 215.71875 -18.257812 L 236.894531 -12.542969 L 229.699219 14.484375 L 207.828125 8.691406 Z M 215.71875 -18.257812 "/>
<path style=" stroke:none;fill-rule:nonzero;fill:rgb(39.99939%,39.99939%,39.99939%);fill-opacity:0.3;" d="M 137.472656 27.542969 L 162.007812 -52.925781 L 174.417969 -50.148438 L 152.445312 31.425781 Z M 137.472656 27.542969 "/>
<path style=" stroke:none;fill-rule:nonzero;fill:rgb(39.99939%,39.99939%,39.99939%);fill-opacity:0.3;" d="M 162.230469 -53.636719 L 162.71875 -55.199219 L 158.542969 -58.675781 L 167.980469 -92.140625 L 205.042969 -84.617188 L 171.132812 36.269531 L 153.625 31.730469 L 175.515625 -49.839844 L 186.195312 -47.308594 L 186.332031 -47.835938 L 186.472656 -48.359375 Z M 162.230469 -53.636719 "/>
<path style=" stroke:none;fill-rule:nonzero;fill:rgb(39.99939%,39.99939%,39.99939%);fill-opacity:0.3;" d="M 293.035156 -27.519531 L 315.511719 -21.851562 L 306.457031 9.152344 L 284.429688 4 Z M 293.035156 -27.519531 "/>
<path style=" stroke:none;fill-rule:nonzero;fill:rgb(39.99939%,39.99939%,39.99939%);fill-opacity:0.3;" d="M 268.222656 -27.890625 L 289.933594 -22.753906 L 282.867188 2.695312 L 261.003906 -2.570312 Z M 268.222656 -27.890625 "/>
<g clip-path="url(#clip3)" clip-rule="nonzero">
<path style=" stroke:none;fill-rule:nonzero;fill:rgb(39.99939%,39.99939%,39.99939%);fill-opacity:0.3;" d="M 374.257812 64.613281 L 361.050781 108.558594 L 354.449219 127.757812 L 375.171875 133.835938 L 374.128906 137.191406 L 369.75 154.859375 L 355.953125 150.578125 L 329.304688 141.199219 L 328.953125 142.203125 L 323.054688 140.375 L 336.660156 91.855469 L 347.144531 55.148438 L 350.960938 56.480469 L 350.949219 56.621094 L 353.21875 57.269531 Z M 374.257812 64.613281 "/>
</g>
<path style=" stroke:none;fill-rule:nonzero;fill:rgb(39.99939%,39.99939%,39.99939%);fill-opacity:0.3;" d="M 166.4375 181.769531 L 167.753906 181.878906 L 172.582031 183.367188 L 177.65625 186.460938 L 180.894531 189.085938 L 180.507812 190.15625 L 167.472656 182.15625 Z M 166.4375 181.769531 "/>
<path style=" stroke:none;fill-rule:nonzero;fill:rgb(39.99939%,39.99939%,39.99939%);fill-opacity:0.3;" d="M 299.714844 213.757812 L 306.320312 220.050781 L 301.53125 220.710938 L 298.308594 217.390625 Z M 299.714844 213.757812 "/>
<path style=" stroke:none;fill-rule:nonzero;fill:rgb(39.99939%,39.99939%,39.99939%);fill-opacity:0.3;" d="M 210.699219 81.007812 L 206.710938 94.9375 L 202.320312 110.285156 L 180.945312 104.878906 L 186.09375 86.476562 L 195.269531 88.859375 L 195.921875 89.273438 L 196.148438 89.585938 L 197.363281 94.914062 L 199.765625 95.25 L 199.859375 94.652344 L 199.953125 94.058594 L 198.417969 93.84375 L 197.335938 89.097656 L 196.824219 88.398438 L 195.800781 87.75 L 186.429688 85.316406 L 189.1875 75.46875 Z M 210.699219 81.007812 "/>
<path style=" stroke:none;fill-rule:nonzero;fill:rgb(39.99939%,39.99939%,39.99939%);fill-opacity:0.3;" d="M 204.875 187.007812 L 202.210938 196.519531 L 198.535156 193.140625 L 183.109375 181.402344 Z M 204.875 187.007812 "/>
<path style=" stroke:none;fill-rule:nonzero;fill:rgb(39.99939%,39.99939%,39.99939%);fill-opacity:0.3;" d="M 183.449219 180.160156 L 193.960938 142.019531 L 215.828125 147.894531 L 210.59375 166.585938 L 200.964844 164.105469 L 200.785156 164.738281 L 200.636719 165.269531 L 210.265625 167.75 L 205.222656 185.765625 Z M 183.449219 180.160156 "/>
<path style=" stroke:none;fill-rule:nonzero;fill:rgb(39.99939%,39.99939%,39.99939%);fill-opacity:0.3;" d="M 277.949219 20.105469 L 270.054688 48.859375 L 247.765625 43.207031 L 256.035156 14.671875 Z M 277.949219 20.105469 "/>
<path style=" stroke:none;fill-rule:nonzero;fill:rgb(39.99939%,39.99939%,39.99939%);fill-opacity:0.3;" d="M 225.476562 29.371094 L 211.027344 79.816406 L 189.523438 74.28125 L 192.238281 64.96875 L 202.625 67.542969 L 203.109375 65.730469 L 192.808594 63.261719 L 203.734375 23.578125 Z M 225.476562 29.371094 "/>
<path style=" stroke:none;fill-rule:nonzero;fill:rgb(39.99939%,39.99939%,39.99939%);fill-opacity:0.3;" d="M 88.929688 143.714844 L 114.839844 55.226562 L 122.949219 26.238281 L 138.011719 29.96875 L 103.628906 149.726562 L 95.785156 146.21875 Z M 88.929688 143.714844 "/>
<path style=" stroke:none;fill-rule:nonzero;fill:rgb(39.99939%,39.99939%,39.99939%);fill-opacity:0.3;" d="M 284.035156 185.582031 L 304.308594 190.734375 L 300.730469 201.589844 L 280.414062 196.300781 Z M 284.035156 185.582031 "/>
<path style=" stroke:none;fill-rule:nonzero;fill:rgb(39.99939%,39.99939%,39.99939%);fill-opacity:0.3;" d="M 231.808594 12.71875 L 239.007812 -12.492188 L 260.589844 -6.9375 L 253.3125 18.191406 Z M 231.808594 12.71875 "/>
<path style=" stroke:none;fill-rule:nonzero;fill:rgb(39.99939%,39.99939%,39.99939%);fill-opacity:0.3;" d="M 115.035156 165.828125 L 115.222656 165.160156 L 116.445312 165.660156 L 115.195312 165.839844 Z M 115.035156 165.828125 "/>
<path style=" stroke:none;fill-rule:nonzero;fill:rgb(39.99939%,39.99939%,39.99939%);fill-opacity:0.3;" d="M 104.9375 150.300781 L 138.832031 30.230469 L 152.34375 33.925781 L 124.914062 127.046875 L 119.335938 125.550781 L 111.578125 153.128906 Z M 104.9375 150.300781 "/>
<path style=" stroke:none;fill-rule:nonzero;fill:rgb(39.99939%,39.99939%,39.99939%);fill-opacity:0.3;" d="M 2.285156 -57.140625 L 13.964844 -54.058594 L 15.058594 -57.304688 L 23.972656 -55.398438 L 25.363281 -56.285156 L 29.058594 -56.730469 L 33.058594 -56.589844 L 36.746094 -55.5625 L 40.425781 -52.765625 L 43.953125 -50.257812 L 54.085938 -46.136719 L 56.691406 -44.511719 L 57.445312 -42.292969 L 44.570312 -7.132812 L 40.839844 2.414062 L 33.914062 -0.355469 L 33.445312 -4.152344 L 33.902344 -7.21875 L 35.128906 -9.996094 L 9.4375 -18.605469 L 16.667969 -42.046875 L 16.214844 -43.234375 L 15.300781 -44.417969 L -0.203125 -50.460938 Z M 2.285156 -57.140625 "/>
<path style=" stroke:none;fill-rule:nonzero;fill:rgb(39.99939%,39.99939%,39.99939%);fill-opacity:0.3;" d="M 277.742188 205.320312 L 297.898438 210.566406 L 289.183594 236.007812 L 270.246094 231.078125 Z M 277.742188 205.320312 "/>
<g clip-path="url(#clip4)" clip-rule="nonzero">
<path style=" stroke:none;fill-rule:nonzero;fill:rgb(39.99939%,39.99939%,39.99939%);fill-opacity:0.3;" d="M 338.324219 -6.308594 L 360.210938 -0.53125 L 345.597656 51.367188 L 316.933594 151.808594 L 295.84375 145.980469 L 323.097656 47.046875 L 342.835938 52.210938 L 343.050781 51.425781 L 343.265625 50.636719 L 323.554688 45.640625 L 329.335938 24.589844 L 342.386719 28.046875 L 342.605469 27.4375 L 342.820312 26.824219 L 329.71875 23.34375 Z M 338.324219 -6.308594 "/>
</g>
<path style=" stroke:none;fill-rule:nonzero;fill:rgb(39.99939%,39.99939%,39.99939%);fill-opacity:0.3;" d="M 284.113281 5.804688 L 305.652344 11.441406 L 292.539062 58.011719 L 285.535156 56.261719 L 285.128906 57.402344 L 292.304688 59.195312 L 288.296875 73.578125 L 266.769531 68.195312 L 273.292969 44.644531 Z M 284.113281 5.804688 "/>
<path style=" stroke:none;fill-rule:nonzero;fill:rgb(39.99939%,39.99939%,39.99939%);fill-opacity:0.3;" d="M 61.507812 10.285156 L 84.410156 16.230469 L 96.164062 19.28125 L 88 48.292969 L 79.375 78.011719 L 72.355469 76.480469 L 65.941406 100.984375 L 56.351562 136.414062 L 43.164062 133.417969 L 55.300781 88.925781 L 54.550781 88.75 L 53.800781 88.578125 L 41.679688 133.082031 L 28.476562 129.925781 Z M 61.507812 10.285156 "/>
<path style=" stroke:none;fill-rule:nonzero;fill:rgb(39.99939%,39.99939%,39.99939%);fill-opacity:0.3;" d="M 60.105469 9.917969 L 27.09375 129.40625 L 1.1875 122.839844 L -34.101562 113.902344 L -8.277344 25.441406 L -10.234375 22.257812 L -9.453125 21.765625 L 7.542969 -14.609375 L 8.457031 -15.042969 L 9.375 -15.261719 L 10.214844 -15.117188 L 29.390625 -8.644531 L 30.621094 -8.097656 L 31.128906 -7.683594 L 31.929688 -6.445312 L 32.148438 -5.757812 L 32.292969 -5 L 32.292969 -4.246094 L 32.003906 -3.488281 L 31.640625 0.226562 L 31.933594 0.570312 L 32.511719 1.257812 L 33.71875 2.148438 L 45.332031 6.203125 L 48.972656 7.027344 Z M 60.105469 9.917969 "/>
<path style=" stroke:none;fill-rule:nonzero;fill:rgb(39.99939%,39.99939%,39.99939%);fill-opacity:0.3;" d="M 87.605469 143.242188 L 85.25 142.550781 L 80.683594 142.097656 L 76.433594 141.570312 L 108.894531 22.589844 L 121.175781 25.777344 L 113.019531 54.769531 Z M 87.605469 143.242188 "/>
<path style=" stroke:none;fill-rule:nonzero;fill:rgb(39.99939%,39.99939%,39.99939%);fill-opacity:0.3;" d="M 75.042969 141.242188 L 58.632812 136.949219 L 74.230469 78.929688 L 80.695312 80.226562 L 98.300781 19.839844 L 107.347656 22.1875 Z M 75.042969 141.242188 "/>
<path style=" stroke:none;fill-rule:nonzero;fill:rgb(39.99939%,39.99939%,39.99939%);fill-opacity:0.3;" d="M 294.152344 151.585938 L 315.058594 157.03125 L 312.546875 164.25 L 292.195312 159.460938 Z M 294.152344 151.585938 "/>
<path style=" stroke:none;fill-rule:nonzero;fill:rgb(39.99939%,39.99939%,39.99939%);fill-opacity:0.3;" d="M 89.628906 163.933594 L 90.035156 162.722656 L 89.359375 162.441406 L 88.6875 162.15625 L 88.253906 163.371094 L 31.613281 140.199219 L 27.894531 139.46875 L 28.644531 136.789062 L 44.859375 140.417969 L 64.007812 144.964844 L 83.074219 150.402344 L 93.988281 153.429688 L 109.671875 160.070312 L 107.949219 165.355469 L 90.21875 164.175781 Z M 89.628906 163.933594 "/>
<path style=" stroke:none;fill-rule:nonzero;fill:rgb(39.99939%,39.99939%,39.99939%);fill-opacity:0.3;" d="M 109.25 165.445312 L 110.871094 160.308594 L 114.828125 161.597656 L 113.65625 165.738281 Z M 109.25 165.445312 "/>
<g clip-path="url(#clip5)" clip-rule="nonzero">
<path style=" stroke:none;fill-rule:nonzero;fill:rgb(39.99939%,39.99939%,39.99939%);fill-opacity:0.3;" d="M 355.175781 30.058594 L 383.515625 39.953125 L 374.914062 62.757812 L 351.171875 54.46875 L 352.945312 37.308594 Z M 355.175781 30.058594 "/>
</g>
<g clip-path="url(#clip6)" clip-rule="nonzero">
<path style=" stroke:none;fill-rule:nonzero;fill:rgb(39.99939%,39.99939%,39.99939%);fill-opacity:0.3;" d="M 366.507812 -12.328125 L 389.464844 -5.027344 L 402.460938 -1.066406 L 387.242188 31.3125 L 386.703125 33.78125 L 384.925781 38.058594 L 356.046875 27.261719 L 357.609375 22.324219 L 364.925781 -6.390625 Z M 366.507812 -12.328125 "/>
</g>
<path style=" stroke:none;fill-rule:nonzero;fill:rgb(39.99939%,39.99939%,39.99939%);fill-opacity:0.3;" d="M 350.960938 56.480469 L 353.21875 57.269531 L 350.949219 56.621094 Z M 350.960938 56.480469 "/>
<path style=" stroke:none;fill-rule:nonzero;fill:rgb(39.99939%,39.99939%,39.99939%);fill-opacity:0.3;" d="M 300.769531 268.027344 L 318.171875 277.542969 L 314.925781 309.140625 L 308.570312 308.570312 Z M 300.769531 268.027344 "/>
<g clip-path="url(#clip7)" clip-rule="nonzero">
<path style=" stroke:none;fill-rule:nonzero;fill:rgb(39.99939%,39.99939%,39.99939%);fill-opacity:0.3;" d="M 399.164062 320.988281 L 400.707031 322.613281 L 400.363281 323.101562 L 393.339844 325.703125 L 379.117188 329.613281 L 373.464844 330.753906 L 364.554688 332.546875 L 353.246094 333.851562 L 339.503906 333.960938 L 338.378906 333.527344 L 337.8125 332.820312 L 337.832031 332.308594 L 337.851562 331.832031 L 338.34375 331.3125 L 339.632812 330.859375 L 352.753906 329.515625 L 363.351562 327.46875 L 369.566406 326.453125 L 378.328125 324.609375 L 393.917969 321.84375 L 398.652344 321.148438 Z M 399.164062 320.988281 "/>
</g>
<g clip-path="url(#clip8)" clip-rule="nonzero">
<path style=" stroke:none;fill-rule:nonzero;fill:rgb(39.99939%,39.99939%,39.99939%);fill-opacity:0.3;" d="M 404.285156 202.433594 L 401.300781 224.023438 L 401.203125 224.390625 L 401.238281 224.636719 L 401.300781 224.851562 L 406.148438 229.277344 L 403.195312 232.257812 L 404.128906 233.21875 L 402.101562 235.476562 L 399.835938 233.367188 L 399.414062 233.785156 L 398.996094 234.207031 L 401.09375 236.015625 L 406.46875 240.652344 L 402.484375 245.046875 L 402.738281 247.066406 L 410.433594 253.242188 L 407.363281 255.050781 L 406.628906 254.933594 L 396.722656 244.804688 L 395.808594 245.359375 L 381.636719 232.417969 L 380.59375 230.765625 L 380.457031 229.578125 L 380.664062 228.523438 L 380.871094 227.996094 L 380.941406 227.46875 L 380.695312 226.902344 L 358.753906 207.742188 L 357.527344 206.523438 L 357.234375 205.644531 L 357.230469 204.566406 L 357.574219 202.492188 L 358.019531 201.054688 L 361.847656 189.886719 L 372.902344 193.011719 L 398.9375 200.574219 Z M 404.285156 202.433594 "/>
</g>
<path style=" stroke:none;fill-rule:nonzero;fill:rgb(39.99939%,39.99939%,39.99939%);fill-opacity:0.3;" d="M 353.554688 152.050781 L 346.40625 177.464844 L 320.863281 166.710938 L 320.644531 166.171875 L 328.261719 144.207031 Z M 353.554688 152.050781 "/>
<g clip-path="url(#clip9)" clip-rule="nonzero">
<path style=" stroke:none;fill-rule:nonzero;fill:rgb(39.99939%,39.99939%,39.99939%);fill-opacity:0.3;" d="M 321.84375 169.167969 L 360.671875 185.726562 L 355.988281 200.210938 L 355.183594 200.59375 L 326.917969 183.671875 L 327.304688 182.820312 Z M 321.84375 169.167969 "/>
</g>
<path style=" stroke:none;fill-rule:nonzero;fill:rgb(39.99939%,39.99939%,39.99939%);fill-opacity:0.3;" d="M 310.214844 219.511719 L 309.574219 220.914062 L 308.382812 219.765625 Z M 310.214844 219.511719 "/>
<path style=" stroke:none;fill-rule:nonzero;fill:rgb(39.99939%,39.99939%,39.99939%);fill-opacity:0.3;" d="M 300.878906 222.109375 L 338.484375 259.457031 L 323.796875 276.5625 L 303.601562 265.980469 L 299.945312 263.75 L 298.003906 253.648438 Z M 300.878906 222.109375 "/>
<path style=" stroke:none;fill-rule:nonzero;fill:rgb(39.99939%,39.99939%,39.99939%);fill-opacity:0.3;" d="M 325.523438 335.625 L 325.53125 335.421875 L 328.101562 335.441406 Z M 325.523438 335.625 "/>
<g clip-path="url(#clip10)" clip-rule="nonzero">
<path style=" stroke:none;fill-rule:nonzero;fill:rgb(39.99939%,39.99939%,39.99939%);fill-opacity:0.3;" d="M 317.328125 308.941406 L 320.546875 280 L 321.179688 279.984375 L 347.46875 299.996094 L 354.925781 305.753906 L 359.183594 306.988281 L 363.453125 306.917969 L 379.34375 304.753906 L 395.578125 302.125 L 404.867188 301.464844 L 412.71875 301.949219 L 418.507812 300.90625 L 421.265625 299.9375 L 421.699219 300.039062 L 424.285156 304.578125 L 423.761719 305.253906 L 405.238281 309.234375 L 379.625 312.519531 L 357.203125 313.460938 L 347.695312 313.242188 L 334.082031 311.832031 L 317.992188 309.757812 Z M 317.328125 308.941406 "/>
</g>
<g clip-path="url(#clip11)" clip-rule="nonzero">
<path style=" stroke:none;fill-rule:nonzero;fill:rgb(39.99939%,39.99939%,39.99939%);fill-opacity:0.3;" d="M 427.480469 306.898438 L 432.554688 314.476562 L 425.054688 315.613281 L 414.492188 316.910156 L 403.585938 318.53125 L 392.511719 320.152344 L 379.21875 322.261719 L 363.734375 325.136719 L 354.902344 326.960938 L 342.585938 328.421875 L 340.882812 328.421875 L 340.539062 328.097656 L 342.070312 315.808594 L 342.410156 315.648438 L 342.921875 315.484375 L 350.929688 316.128906 L 362.6875 316.125 L 374.445312 315.472656 L 387.566406 314.335938 L 397.449219 312.875 L 405.289062 311.742188 L 420.789062 308.332031 Z M 427.480469 306.898438 "/>
</g>
<path style=" stroke:none;fill-rule:nonzero;fill:rgb(39.99939%,39.99939%,39.99939%);fill-opacity:0.3;" d="M 327.214844 185.421875 L 339.488281 192.9375 L 315.6875 226.570312 L 310.699219 221.761719 Z M 327.214844 185.421875 "/>
<g clip-path="url(#clip12)" clip-rule="nonzero">
<path style=" stroke:none;fill-rule:nonzero;fill:rgb(39.99939%,39.99939%,39.99939%);fill-opacity:0.3;" d="M 348.277344 178.253906 L 355.480469 152.648438 L 369.070312 156.863281 L 366.003906 171.355469 L 361.816406 183.566406 Z M 348.277344 178.253906 "/>
</g>
<path style=" stroke:none;fill-rule:nonzero;fill:rgb(39.99939%,39.99939%,39.99939%);fill-opacity:0.3;" d="M 355.953125 150.578125 L 328.953125 142.203125 L 329.304688 141.199219 Z M 355.953125 150.578125 "/>
<path style=" stroke:none;fill-rule:nonzero;fill:rgb(39.99939%,39.99939%,39.99939%);fill-opacity:0.3;" d="M 321.199219 334.066406 L 323.65625 333.636719 L 323.597656 335.25 L 321.644531 334.664062 Z M 321.199219 334.066406 "/>
<path style=" stroke:none;fill-rule:nonzero;fill:rgb(39.99939%,39.99939%,39.99939%);fill-opacity:0.3;" d="M 340.707031 315.648438 L 339.152344 328.347656 L 308.335938 333.609375 L 309.179688 311.296875 L 321.960938 312.90625 L 331.671875 314.199219 L 340.363281 314.839844 Z M 340.707031 315.648438 "/>
<path style=" stroke:none;fill-rule:nonzero;fill:rgb(39.99939%,39.99939%,39.99939%);fill-opacity:0.3;" d="M 306.320312 220.050781 L 328.148438 240.839844 L 324.605469 244.457031 L 301.53125 220.710938 Z M 306.320312 220.050781 "/>
<path style=" stroke:none;fill-rule:nonzero;fill:rgb(39.99939%,39.99939%,39.99939%);fill-opacity:0.3;" d="M 329.28125 242.015625 L 346.089844 259.566406 L 342.941406 262.671875 L 325.796875 245.53125 Z M 329.28125 242.015625 "/>
<g clip-path="url(#clip13)" clip-rule="nonzero">
<path style=" stroke:none;fill-rule:nonzero;fill:rgb(39.99939%,39.99939%,39.99939%);fill-opacity:0.3;" d="M 405.414062 256.070312 L 401.636719 259.253906 L 399.789062 259.414062 L 398.34375 259.242188 L 374.484375 247.511719 L 370.691406 246.3125 L 367.257812 245.457031 L 365.089844 245.285156 L 363.824219 245.117188 L 362.742188 245.289062 L 361.839844 245.972656 L 360.730469 246.925781 L 347.246094 258.535156 L 345.984375 258.023438 L 344.535156 256.824219 L 328.96875 239.730469 L 316.636719 227.46875 L 340.835938 193.820312 L 354.785156 202.527344 L 354.605469 204.753906 L 354.964844 206.125 L 355.328125 206.984375 L 356.050781 207.667969 L 356.59375 208.355469 L 362.113281 213.359375 L 343.921875 232.191406 L 344.277344 232.515625 L 344.636719 232.835938 L 362.988281 214.226562 L 378.660156 228.332031 L 378.882812 231.617188 L 395.207031 247.421875 L 396.804688 247.339844 L 404.792969 254.832031 L 405.121094 255.359375 Z M 405.414062 256.070312 "/>
</g>
<g clip-path="url(#clip14)" clip-rule="nonzero">
<path style=" stroke:none;fill-rule:nonzero;fill:rgb(39.99939%,39.99939%,39.99939%);fill-opacity:0.3;" d="M 403.917969 300.292969 L 394.933594 300.945312 L 379.710938 303.449219 L 379.277344 303.34375 L 378.699219 293.585938 L 368.582031 285.71875 L 368.167969 286.113281 L 367.753906 286.503906 L 377.210938 293.902344 L 377.542969 294.84375 L 378.117188 302.875 L 377.929688 303.4375 L 377.425781 303.75 L 367.332031 305.214844 L 361.652344 299.171875 L 361.363281 299.488281 L 361.074219 299.800781 L 366.265625 305.296875 L 362.429688 305.644531 L 358.824219 305.480469 L 355.34375 304.492188 L 349.261719 299.59375 L 357.117188 291.367188 L 356.53125 290.890625 L 348.65625 299.066406 L 339.003906 291.550781 L 344.628906 285.738281 L 344.113281 285.222656 L 343.601562 284.703125 L 338.148438 290.464844 L 323.941406 279.625 L 323.777344 279.152344 L 324.109375 278.210938 L 339.464844 260.578125 L 342.476562 263.25 L 344.046875 263.492188 L 345.378906 262.921875 L 349.257812 258.953125 L 362.167969 247.863281 L 363.660156 247.234375 L 365.480469 246.921875 L 367.296875 247.078125 L 370.441406 247.703125 L 396.738281 260.125 L 398.226562 260.4375 L 400.210938 260.753906 L 401.203125 260.75 L 403.203125 260.171875 L 406.664062 264.667969 L 402.765625 265.933594 L 391.507812 262.722656 L 382.464844 270.535156 L 382.195312 270.40625 L 373.453125 261.203125 L 372.980469 261.78125 L 372.507812 262.363281 L 381.472656 271.574219 L 377.679688 275.082031 L 378.019531 275.402344 L 378.359375 275.726562 L 391.832031 263.996094 L 402.902344 267.09375 L 407.328125 265.613281 L 408.988281 267.859375 L 398.832031 274.332031 L 399.070312 274.671875 L 399.308594 275.007812 L 409.746094 268.804688 L 429.476562 292.738281 L 423.0625 298.738281 L 422.878906 298.679688 L 414.648438 287.667969 L 413.890625 288.167969 L 420.429688 297.074219 L 420.601562 297.628906 L 420.546875 298.070312 L 418.210938 299.140625 L 412.71875 300.265625 L 408.820312 300.179688 L 408.179688 299.902344 L 407.246094 299.40625 L 406.253906 298.578125 L 402.632812 293.816406 L 401.757812 294.316406 L 404.675781 298.132812 L 404.910156 298.632812 L 404.910156 299.128906 L 404.675781 299.792969 L 404.386719 300.128906 Z M 403.917969 300.292969 "/>
</g>
<path style=" stroke:none;fill-rule:nonzero;fill:rgb(39.99939%,39.99939%,39.99939%);fill-opacity:0.3;" d="M 0.570312 321.488281 L 12.535156 324.449219 L 13.265625 324.511719 L 13.863281 324.257812 L 14.328125 323.5625 L 14.925781 321.167969 L 30.742188 322.421875 L 31.007812 322.734375 L 31.40625 323.746094 L 30.941406 326.332031 L 28.289062 337.621094 L 27.828125 339.289062 L 22.121094 338.335938 L 22.078125 339 L 22.035156 339.636719 L 27.359375 341.015625 L 26.632812 343.613281 L 26.367188 343.867188 L 12.078125 339.773438 L 4.300781 337.445312 L -4.007812 335.367188 L -4.207031 334.988281 L -4.207031 334.546875 L -2.945312 331.769531 L -2.613281 331.078125 L -2.480469 330.003906 L -1.421875 324.960938 L -1.15625 324.074219 Z M 0.570312 321.488281 "/>
<path style=" stroke:none;fill-rule:nonzero;fill:rgb(39.99939%,39.99939%,39.99939%);fill-opacity:0.3;" d="M 38.226562 293.070312 L 38.117188 293.085938 L 37.476562 292.730469 L 34.757812 290.199219 Z M 38.226562 293.070312 "/>
<g clip-path="url(#clip15)" clip-rule="nonzero">
<path style=" stroke:none;fill-rule:nonzero;fill:rgb(39.99939%,39.99939%,39.99939%);fill-opacity:0.3;" d="M 41.695312 345.183594 L 41.777344 344.671875 L 42.390625 336.105469 L 42.75 331.105469 L 43.03125 330.175781 L 43.308594 330.042969 L 44.011719 329.90625 L 47.207031 330.230469 L 47.917969 330.582031 L 48.417969 331.171875 L 49.179688 332.441406 L 50.40625 339.792969 L 51.203125 346.507812 L 51.828125 349.269531 L 52.507812 351.875 L 52.96875 353.542969 L 54.308594 356.027344 L 54.503906 356.988281 L 54.75 358.910156 L 45.304688 390.863281 L 45.207031 391.171875 L 43.269531 391.605469 L 37.609375 390.273438 L 37.5625 390.417969 L 35.757812 389.898438 L 33.414062 389.292969 L 32.894531 389.046875 L 31.699219 388.082031 L 27.636719 387.417969 L 19.085938 385.476562 L 18.417969 385.097656 L 18.074219 384.925781 L 17.714844 384.492188 L 17.078125 383.820312 L 13.597656 378.890625 L 12.605469 377.949219 L 11.589844 377.503906 L 10.242188 377.257812 L 3.089844 376.953125 L 1.589844 376.910156 L -13.058594 373.550781 L -13.269531 373.246094 L -13.480469 372.949219 L -10.9375 358.703125 L -10.695312 358.4375 L -10.277344 358.21875 L -8.664062 358.160156 L -4.9375 358.476562 L -3.667969 358.667969 L 8.484375 361.773438 L 9.921875 362.097656 L 10.523438 362.242188 L 11.265625 362.621094 L 12.207031 363.621094 L 12.492188 364.386719 L 12.9375 367.210938 L 13.300781 368.5 L 13.671875 369.320312 L 14.421875 369.914062 L 15.570312 370.460938 L 32.589844 376.652344 L 32.847656 375.839844 L 33.101562 375.027344 L 18.246094 369.484375 L 16.601562 368.859375 L 15.988281 368.570312 L 15.253906 367.953125 L 15.023438 367.023438 L 14.378906 363.984375 L 13.847656 362.722656 L 13.195312 361.75 L 13.839844 361.644531 L 14.921875 361.257812 L 17.402344 359.582031 L 18.207031 364.375 L 19.050781 364.183594 L 19.898438 363.996094 L 19.1875 358.695312 L 23.167969 356.96875 L 23.871094 357.277344 L 33.242188 360.839844 L 40.605469 363.25 L 40.753906 362.402344 L 40.898438 361.558594 L 33.972656 359.371094 L 25.382812 355.957031 L 24.535156 355.183594 L 24.613281 354.671875 L 24.816406 354.378906 L 27.691406 345.867188 L 28.171875 344.980469 L 28.617188 344.558594 L 29.886719 344.433594 L 31.632812 344.660156 L 31.828125 343.882812 L 32.027344 343.105469 L 28.519531 342.898438 L 30.046875 336.050781 L 40.871094 336.097656 L 39.972656 345.15625 L 40.832031 345.171875 Z M 41.695312 345.183594 "/>
</g>
<path style=" stroke:none;fill-rule:nonzero;fill:rgb(39.99939%,39.99939%,39.99939%);fill-opacity:0.3;" d="M -12.625 276.851562 L -9.789062 275.988281 L -2.96875 275.476562 L 3.480469 276.238281 L 8.273438 277.609375 L 15.847656 280.113281 L 22.984375 283.851562 L 29.902344 289.378906 L 33.246094 292.566406 L 29.613281 296.632812 L 29.925781 296.894531 L 30.285156 297.195312 L 34.019531 293.359375 L 35.691406 294.898438 L 35.695312 298.734375 L 35.785156 299.90625 L 36.230469 301.496094 L 36.757812 302.511719 L 37.257812 303.070312 L 37.671875 303.554688 L 38.050781 304.007812 L 38.332031 304.351562 L 38.746094 304.882812 L 39.132812 305.390625 L 39.371094 305.714844 L 39.667969 306.128906 L 39.988281 306.59375 L 40.292969 307.042969 L 40.617188 307.542969 L 41.007812 308.171875 L 41.371094 308.777344 L 41.695312 309.34375 L 41.980469 309.863281 L 42.28125 310.4375 L 42.511719 310.886719 L 42.746094 311.367188 L 42.960938 311.824219 L 43.167969 312.28125 L 43.414062 312.84375 L 43.695312 313.523438 L 43.890625 314.019531 L 44.113281 314.613281 L 44.292969 315.113281 L 44.457031 315.601562 L 44.570312 315.953125 L 44.792969 316.679688 L 44.96875 317.285156 L 45.179688 318.09375 L 45.332031 318.710938 L 45.519531 319.578125 L 45.621094 320.089844 L 45.734375 320.707031 L 45.808594 321.152344 L 45.882812 321.648438 L 45.914062 321.882812 L 45.972656 322.414062 L 46.054688 323.265625 L 46.183594 324.1875 L 46.238281 324.628906 L 46.269531 325.179688 L 46.347656 326.03125 L 46.410156 326.710938 L 46.464844 327.273438 L 46.527344 328.4375 L 32.34375 326.1875 L 32.785156 322.722656 L 32.519531 321.71875 L 32.078125 321.386719 L 31.242188 321.050781 L 30.675781 320.964844 L 14.253906 319.554688 L 13.8125 319.847656 L 13.09375 322.519531 L 12.609375 322.8125 L 11.925781 322.644531 L 1.355469 320.09375 L 1.253906 319.800781 L 1.148438 319.40625 L 1.25 319.011719 L 4.152344 312.859375 L 3.4375 312.640625 L 2.734375 312.429688 L -0.667969 319.898438 L -2.757812 324.484375 L -3.074219 325.550781 L -3.347656 327.308594 L -3.65625 329 L -4.085938 331.132812 L -4.859375 333.226562 L -6.160156 335.152344 L -13.511719 332.828125 L -10.257812 322.691406 L -12.203125 322.144531 L -11.625 320.664062 L -13.070312 320.167969 L -8.65625 310.417969 L -8.246094 307.636719 L -6.269531 303.515625 L -2.460938 298.816406 L -1.035156 297.171875 L -1.082031 295.832031 L -2.542969 295.054688 L -4.917969 293.871094 L -6.910156 293.03125 L -10.351562 292.707031 L -12.191406 292.671875 L -15.058594 292.535156 L -14.933594 284.960938 L -11.683594 283.6875 L -4.234375 283.683594 L -4.234375 283.332031 L -4.238281 282.984375 L -11.003906 282.945312 L -11.160156 280.128906 Z M -12.625 276.851562 "/>
<g clip-path="url(#clip16)" clip-rule="nonzero">
<path style=" stroke:none;fill-rule:nonzero;fill:rgb(39.99939%,39.99939%,39.99939%);fill-opacity:0.3;" d="M 25.554688 345.375 L 24.613281 349.316406 L 24.234375 350.664062 L 23.761719 351.828125 L 23.195312 353.171875 L 22.726562 353.980469 L 22.160156 354.695312 L 21.027344 355.324219 L 19.988281 355.953125 L 14.324219 359 L 13.195312 359.59375 L 11.546875 360.105469 L 10.292969 360.226562 L 9.15625 359.9375 L -3.410156 356.988281 L -4.472656 356.808594 L -9.21875 356.199219 L -11.496094 355.804688 L -11.933594 355.070312 L -11.746094 352.921875 L -11.460938 351.574219 L -11.179688 349.960938 L -10.613281 347.992188 L -5.613281 337.054688 L -5.425781 336.785156 L -5.046875 336.699219 L -4.578125 336.609375 L -4.105469 336.605469 L 24.230469 344.75 L 24.890625 345.015625 Z M 25.554688 345.375 "/>
</g>
<path style=" stroke:none;fill-rule:nonzero;fill:rgb(39.99939%,39.99939%,39.99939%);fill-opacity:0.3;" d="M 32.300781 327.316406 L 41.414062 328.886719 L 41.632812 329.25 L 40.925781 335.214844 L 30.921875 335.066406 L 30.59375 334.703125 Z M 32.300781 327.316406 "/>
<path style=" stroke:none;fill-rule:nonzero;fill:rgb(39.99939%,39.99939%,39.99939%);fill-opacity:0.3;" d="M -17.28125 154.90625 L -10.546875 130.574219 L 1.78125 133.652344 L 1.203125 135.371094 L 10.328125 137.90625 L 8.078125 142.675781 L 10.097656 143.371094 L -3.371094 185.351562 L -13.773438 183.03125 L -8.691406 168.851562 L -9.195312 168.683594 L -9.703125 168.515625 L -14.664062 182.519531 L -23.933594 180.75 L -18.867188 161.265625 L -15.246094 162.316406 L -11.507812 150.941406 L -11.871094 150.804688 L -12.230469 150.667969 L -15.554688 160.347656 L -18.519531 159.453125 Z M -17.28125 154.90625 "/>
<path style=" stroke:none;fill-rule:nonzero;fill:rgb(39.99939%,39.99939%,39.99939%);fill-opacity:0.3;" d="M 10.191406 146.546875 L 13.066406 136.46875 L 14.53125 136.835938 Z M 10.191406 146.546875 "/>
<path style=" stroke:none;fill-rule:nonzero;fill:rgb(39.99939%,39.99939%,39.99939%);fill-opacity:0.3;" d="M 26.210938 139.136719 L 11.003906 187.773438 L 6.390625 186.644531 L 21.4375 138.195312 Z M 26.210938 139.136719 "/>
<path style=" stroke:none;fill-rule:nonzero;fill:rgb(39.99939%,39.99939%,39.99939%);fill-opacity:0.3;" d="M 19.042969 137.726562 L 4.84375 186.125 L -0.953125 185.582031 L 10.191406 146.546875 L 14.53125 136.835938 Z M 19.042969 137.726562 "/>
<path style=" stroke:none;fill-rule:nonzero;fill:rgb(39.99939%,39.99939%,39.99939%);fill-opacity:0.3;" d="M 45.074219 277.621094 L 46.09375 278.132812 L 46.792969 279.046875 L 46.84375 280.0625 L 41.332031 292.019531 L 40.019531 292.988281 L 39.058594 292.996094 L 38.75 292.980469 L 38.226562 293.070312 L 34.757812 290.199219 L 31.558594 287.21875 L 29.296875 285.597656 L 28.25 284.714844 L 27.183594 283.992188 L 26.085938 283.207031 L 25.269531 282.699219 L 23.777344 281.699219 L 22.597656 280.996094 L 21.367188 280.335938 L 20.105469 279.71875 L 18.84375 279.132812 L 16.140625 277.964844 L 14.765625 277.429688 L 13.851562 277.089844 L 10.671875 275.660156 L 8.589844 275.058594 L 7.234375 274.628906 L 5.40625 274.179688 L 3.320312 273.851562 L 2.242188 273.738281 L 0.847656 273.585938 L -0.613281 273.277344 L -3.078125 273.277344 L -5.382812 273.1875 L -7.683594 273.3125 L -9.207031 273.4375 L -10.753906 273.625 L -12.113281 273.996094 L -13.574219 274.304688 L -15.617188 274.828125 L -17.109375 275.320312 L -18.730469 276.03125 L -19.539062 276.523438 L -20.351562 276.925781 L -21 277.292969 L -21.574219 277.609375 L -22.0625 277.949219 L -22.914062 278.355469 L -23.925781 278.945312 L -23.886719 278.246094 L -23.070312 277.617188 L -21.828125 276.585938 L -21.324219 276.03125 L -20.742188 275.257812 L -20.355469 274.445312 L -20.207031 273.773438 L -20.148438 273.066406 L -20.269531 272.238281 L -20.394531 271.472656 L -20.519531 270.824219 L -20.671875 270.382812 L -20.902344 269.757812 L -20.851562 269.585938 Z M 45.074219 277.621094 "/>
<path style=" stroke:none;fill-rule:nonzero;fill:rgb(39.99939%,39.99939%,39.99939%);fill-opacity:0.3;" d="M 40.898438 224.058594 L 65.25 229.28125 L 60.5625 242.707031 L 44.421875 238.265625 L 44.171875 239.328125 L 43.917969 240.390625 L 59.792969 244.746094 L 54.863281 258.976562 L 32.542969 251.367188 Z M 40.898438 224.058594 "/>
<path style=" stroke:none;fill-rule:nonzero;fill:rgb(39.99939%,39.99939%,39.99939%);fill-opacity:0.3;" d="M -4.066406 210.179688 L 2.722656 223.882812 L 3.222656 225.027344 L -1.09375 225.210938 L -1.046875 226.210938 L 3.707031 226.363281 L 5.074219 228.367188 L 5.398438 228.941406 L 9.710938 237.949219 L 9.859375 239.816406 L 9.257812 244.742188 L 9.09375 245.113281 L 8.722656 245.175781 L -5.015625 240.101562 L -7.082031 239.613281 L -8.628906 239.355469 L -9.90625 239.414062 L -10.945312 239.925781 L -11.644531 240.226562 L -15.417969 242.730469 L -16.414062 243.230469 L -16.925781 243.378906 L -9.359375 208.089844 Z M -4.066406 210.179688 "/>
<path style=" stroke:none;fill-rule:nonzero;fill:rgb(39.99939%,39.99939%,39.99939%);fill-opacity:0.3;" d="M 40.691406 193.667969 L 74.320312 203.011719 L 70.800781 213.480469 L 60.039062 210.851562 L 59.789062 211.832031 L 59.535156 212.808594 L 70.105469 215.605469 L 66.019531 227.554688 L 39.476562 221.824219 L 30.917969 250.617188 L 24.429688 248.457031 L 24.429688 246.703125 L 36.363281 203.925781 L 35.8125 203.535156 L 39.285156 191.027344 L 41.265625 191.507812 Z M 40.691406 193.667969 "/>
<path style=" stroke:none;fill-rule:nonzero;fill:rgb(39.99939%,39.99939%,39.99939%);fill-opacity:0.3;" d="M 16.824219 191.941406 L 8.820312 224.554688 L 7.324219 224.082031 L 7.546875 222.339844 L 14.210938 191.808594 Z M 16.824219 191.941406 "/>
<path style=" stroke:none;fill-rule:nonzero;fill:rgb(39.99939%,39.99939%,39.99939%);fill-opacity:0.3;" d="M 55.292969 262.785156 L 55.589844 261.902344 L 55.644531 261.921875 Z M 55.292969 262.785156 "/>
<path style=" stroke:none;fill-rule:nonzero;fill:rgb(39.99939%,39.99939%,39.99939%);fill-opacity:0.3;" d="M 53.460938 261.304688 L 49.199219 274.070312 L 33.5 272.164062 L 34.457031 268.449219 L 26.964844 266.707031 L 26.777344 267.355469 L 26.589844 268 L 32.949219 269.605469 L 32.242188 272.371094 L 5.488281 268.695312 L 10.816406 248.128906 Z M 53.460938 261.304688 "/>
<path style=" stroke:none;fill-rule:nonzero;fill:rgb(39.99939%,39.99939%,39.99939%);fill-opacity:0.3;" d="M 8.03125 246.675781 L 2.453125 268.3125 L -21.9375 265.472656 L -17.433594 246.21875 L -17.148438 245.675781 L -15.039062 244.808594 L -13.371094 243.644531 L -10.328125 241.671875 L -9.105469 241.175781 L -8.398438 241.105469 L -7.171875 241.175781 L -5.761719 241.386719 L -4.054688 241.949219 L -2.375 242.660156 Z M 8.03125 246.675781 "/>
<path style=" stroke:none;fill-rule:nonzero;fill:rgb(39.99939%,39.99939%,39.99939%);fill-opacity:0.3;" d="M 13.550781 191.59375 L 6.472656 223.816406 L 5.980469 223.636719 L 2.015625 216.820312 L -1.300781 210.605469 L -2.089844 209.445312 L -3.675781 208.285156 L -8.617188 206.570312 L -8.890625 205.644531 L -6.109375 197.085938 L -4.800781 195.261719 L -2.335938 188.246094 Z M 13.550781 191.59375 "/>
<path style=" stroke:none;fill-rule:nonzero;fill:rgb(39.99939%,39.99939%,39.99939%);fill-opacity:0.3;" d="M 69.792969 223.085938 L 75.992188 204.597656 L 76.167969 204.078125 L 89.628906 163.933594 L 90.21875 164.175781 L 77.234375 203.132812 L 72.570312 215.789062 Z M 69.792969 223.085938 "/>
<path style=" stroke:none;fill-rule:nonzero;fill:rgb(39.99939%,39.99939%,39.99939%);fill-opacity:0.3;" d="M 88.253906 163.371094 L 75.25 199.660156 L 68.246094 197.832031 L 74.316406 179.875 L 72.128906 179.414062 L 66.34375 197.339844 L 58.609375 195.34375 L 62.519531 182.65625 L 61.601562 182.453125 L 60.6875 182.25 L 56.546875 194.8125 L 48.046875 192.617188 L 55.128906 167.230469 L 54.511719 167.089844 L 53.894531 166.953125 L 46.792969 192.253906 L 43.265625 191.273438 L 50.464844 166.839844 L 49.003906 166.496094 L 41.625 190.839844 L 39.339844 190.324219 L 41.164062 184.171875 L 40.617188 184.027344 L 40.066406 183.882812 L 38.113281 190.09375 L 37.40625 193.929688 L 35.019531 203.03125 L 34.257812 202.792969 L 23.695312 239.488281 L 24.8125 239.792969 L 22.707031 247.289062 L 21.90625 248.378906 L 11.800781 245.71875 L 11.421875 245.105469 L 12.222656 239.367188 L 12.039062 237.9375 L 11.492188 236.40625 L 10.398438 234.308594 L 5.878906 226.886719 L 6.398438 225.679688 L 9.964844 226.621094 L 16.003906 206.296875 L 18.113281 206.78125 L 17.175781 210.425781 L 17.535156 210.570312 L 17.964844 210.746094 L 19.953125 202.984375 L 19.628906 202.890625 L 19.214844 202.773438 L 18.367188 205.695312 L 16.207031 205.160156 L 19.359375 189.898438 L 13.128906 188.164062 L 27.867188 139.566406 L 27.894531 139.46875 L 31.613281 140.199219 Z M 88.253906 163.371094 "/>
<path style=" stroke:none;fill-rule:nonzero;fill:rgb(39.99939%,39.99939%,39.99939%);fill-opacity:0.3;" d="M 190.308594 195.8125 L 273.898438 257.617188 L 277.457031 259.359375 L 281.363281 259.902344 L 284.230469 259.464844 L 287.101562 260.554688 L 300.769531 268.027344 L 308.570312 308.570312 L 301.441406 307.933594 L 297.441406 293.171875 L 295.128906 290.410156 L 294.488281 290.753906 L 293.84375 291.097656 L 296.039062 293.53125 L 299.957031 307.976562 L 274.152344 304.96875 L 276.667969 294.875 L 276.007812 294.753906 L 275.351562 294.632812 L 272.351562 304.6875 L 253.847656 302.449219 L 253.996094 301.394531 L 259.660156 288.726562 L 264.128906 279.574219 L 263.5 279.28125 L 262.875 278.992188 L 259.085938 286.972656 L 252.105469 302.125 L 245.421875 301.292969 L 240.0625 300.035156 L 239.355469 299.980469 L 242.382812 290.355469 L 242.148438 289.191406 L 242.289062 288.429688 L 247.527344 276.523438 L 256.367188 256.433594 L 255.867188 256.160156 L 255.363281 255.882812 L 246.976562 274.757812 L 242.726562 273.328125 L 242.144531 273.476562 L 238.34375 283.0625 L 238.945312 283.210938 L 239.550781 283.359375 L 243.007812 274.722656 L 246.175781 276.058594 L 240.734375 288.746094 L 241.066406 290.175781 L 239.042969 296.507812 L 237.953125 299.878906 L 232.640625 299.488281 L 196.546875 294.953125 L 199.53125 285.570312 L 205.136719 267.660156 L 211.832031 246.195312 L 215.730469 247.082031 L 230.007812 251.253906 L 230.601562 249.558594 L 212.554688 244.035156 L 215.386719 233.003906 L 214.773438 232.855469 L 214.15625 232.710938 L 211.027344 243.257812 L 206.824219 257.417969 L 201.738281 271.890625 L 194.613281 294.609375 L 150.078125 287.082031 L 156.394531 265.074219 L 163.4375 243.042969 L 173.46875 214.660156 L 174.546875 213.15625 L 174.863281 212.132812 L 180.167969 196.347656 L 180.332031 195.984375 L 181.921875 191.023438 L 182.125 191.148438 Z M 190.308594 195.8125 "/>
<path style=" stroke:none;fill-rule:nonzero;fill:rgb(39.99939%,39.99939%,39.99939%);fill-opacity:0.3;" d="M 124.222656 231.863281 L 135.832031 234.625 L 120.800781 283.363281 L 109.320312 281.933594 L 117.753906 254.824219 L 121.257812 255.675781 L 121.476562 254.984375 L 121.753906 254.113281 L 118.21875 253.230469 L 121.414062 241.863281 L 124.148438 242.28125 L 124.257812 241.804688 L 124.382812 241.316406 L 121.746094 240.675781 Z M 124.222656 231.863281 "/>
<path style=" stroke:none;fill-rule:nonzero;fill:rgb(39.99939%,39.99939%,39.99939%);fill-opacity:0.3;" d="M 299.945312 263.75 L 285.359375 254.855469 L 287.210938 249.496094 L 298.003906 253.648438 Z M 299.945312 263.75 "/>
<path style=" stroke:none;fill-rule:nonzero;fill:rgb(39.99939%,39.99939%,39.99939%);fill-opacity:0.3;" d="M 284.855469 248.589844 L 283.148438 253.539062 L 271.246094 246.699219 L 264.898438 242.117188 L 266.332031 239.171875 L 267.367188 239.761719 L 278.355469 246.089844 Z M 284.855469 248.589844 "/>
<path style=" stroke:none;fill-rule:nonzero;fill:rgb(39.99939%,39.99939%,39.99939%);fill-opacity:0.3;" d="M 264.5625 238.160156 L 263.332031 241.027344 L 247.828125 228.621094 Z M 264.5625 238.160156 "/>
<path style=" stroke:none;fill-rule:nonzero;fill:rgb(39.99939%,39.99939%,39.99939%);fill-opacity:0.3;" d="M 128.714844 264.214844 L 131.585938 255.699219 L 136.597656 237.210938 L 137.269531 235.015625 L 137.847656 233.371094 L 139.746094 227.179688 L 138.976562 227.011719 L 137.957031 226.789062 L 136.269531 233.261719 L 125.375 230.445312 L 130.488281 213.238281 L 142.109375 175.097656 L 146.765625 176.800781 L 141.378906 196.15625 L 141.21875 196.863281 L 141.421875 197.09375 L 142.21875 197.378906 L 147.941406 199.203125 L 148.074219 198.703125 L 148.21875 198.21875 L 143.242188 196.613281 L 145.808594 187.296875 L 148.722656 177.574219 L 158.730469 181.105469 L 166.4375 181.769531 L 167.472656 182.15625 L 180.507812 190.15625 L 179.019531 194.296875 L 178.347656 196.679688 L 173.175781 212.433594 L 172.257812 212.449219 L 162.484375 240.269531 L 155.964844 259.382812 L 154.136719 266.339844 L 147.570312 286.78125 L 133.730469 285.023438 L 135.191406 271.820312 L 134.378906 271.597656 L 133.566406 271.371094 L 131.023438 284.679688 L 123.34375 283.703125 Z M 128.714844 264.214844 "/>
<path style=" stroke:none;fill-rule:nonzero;fill:rgb(39.99939%,39.99939%,39.99939%);fill-opacity:0.3;" d="M 86.425781 206.09375 L 66.441406 262.511719 L 64.78125 261.964844 L 81.722656 205.109375 Z M 86.425781 206.09375 "/>
<path style=" stroke:none;fill-rule:nonzero;fill:rgb(39.99939%,39.99939%,39.99939%);fill-opacity:0.3;" d="M 125.402344 169.339844 L 95.859375 272.699219 L 85.875 269.28125 L 115.035156 165.828125 L 115.195312 165.839844 L 116.445312 165.660156 Z M 125.402344 169.339844 "/>
<path style=" stroke:none;fill-rule:nonzero;fill:rgb(39.99939%,39.99939%,39.99939%);fill-opacity:0.3;" d="M 108.792969 276.464844 L 97.136719 273.117188 L 126.984375 169.871094 L 140.539062 174.570312 Z M 108.792969 276.464844 "/>
<path style=" stroke:none;fill-rule:nonzero;fill:rgb(39.99939%,39.99939%,39.99939%);fill-opacity:0.3;" d="M 107.90625 278.476562 L 107.074219 281.617188 L 51.429688 274.363281 L 55.292969 262.785156 L 55.644531 261.921875 Z M 107.90625 278.476562 "/>
<path style=" stroke:none;fill-rule:nonzero;fill:rgb(39.99939%,39.99939%,39.99939%);fill-opacity:0.3;" d="M 100.953125 210.578125 L 84.480469 268.71875 L 68.328125 263.789062 L 68.558594 263.121094 L 88.179688 205.859375 L 94.632812 207.242188 L 98.117188 195.75 L 97.179688 195.507812 L 93.972656 206.375 L 82.261719 203.597656 L 85.746094 194.085938 L 84.699219 193.667969 L 83.648438 193.253906 L 63.242188 261.457031 L 57.550781 259.582031 L 69.792969 223.085938 L 72.570312 215.789062 L 77.234375 203.132812 L 90.21875 164.175781 L 107.949219 165.355469 L 104.542969 175.828125 L 105.179688 176.074219 L 105.816406 176.316406 L 109.25 165.445312 L 113.65625 165.738281 L 110.375 177.316406 Z M 100.953125 210.578125 "/>
<path style=" stroke:none;fill-rule:nonzero;fill:rgb(39.99939%,39.99939%,39.99939%);fill-opacity:0.3;" d="M 245.421875 301.292969 L 239.1875 300.515625 L 239.355469 299.980469 L 240.0625 300.035156 Z M 245.421875 301.292969 "/>
<path style=" stroke:none;fill-rule:nonzero;fill:rgb(39.99939%,39.99939%,39.99939%);fill-opacity:0.3;" d="M 237.953125 299.878906 L 237.867188 300.144531 L 232.640625 299.488281 Z M 237.953125 299.878906 "/>
<g clip-path="url(#clip17)" clip-rule="nonzero">
<path style=" stroke:none;fill-rule:nonzero;fill:rgb(39.99939%,39.99939%,39.99939%);fill-opacity:0.3;" d="M 216.867188 355.058594 L 218.953125 361.496094 L 218.875 362.519531 L 218.796875 363.546875 L 218.335938 364.351562 L 202.992188 380.695312 L 202.527344 380.808594 L 202.175781 380.808594 L 199.382812 374.851562 L 198.929688 373.269531 L 199.179688 372.148438 L 216.097656 354.546875 Z M 216.867188 355.058594 "/>
</g>
<g clip-path="url(#clip18)" clip-rule="nonzero">
<path style=" stroke:none;fill-rule:nonzero;fill:rgb(39.99939%,39.99939%,39.99939%);fill-opacity:0.3;" d="M 214.152344 383.945312 L 216.585938 381.589844 L 222.085938 376.238281 L 229.378906 369.550781 L 237.199219 363.199219 L 240.820312 360.535156 L 245.140625 357.222656 L 246.652344 356.632812 L 247.886719 356.511719 L 249.09375 356.875 L 249.566406 357.6875 L 249.664062 358.382812 L 249.121094 359.105469 L 248.445312 359.769531 L 247.925781 360.285156 L 247.476562 360.730469 L 246.957031 361.253906 L 246.511719 361.699219 L 245.960938 362.257812 L 245.519531 362.707031 L 245.113281 363.121094 L 244.675781 363.570312 L 244.28125 363.980469 L 243.773438 364.503906 L 243.304688 364.996094 L 242.90625 365.410156 L 242.511719 365.824219 L 242.078125 366.285156 L 241.421875 366.980469 L 241.128906 367.292969 L 240.660156 367.796875 L 240.445312 368.027344 L 234.730469 373.457031 L 232.339844 375.804688 L 230.445312 377.449219 L 228.304688 379.40625 L 226.738281 381.128906 L 225.089844 382.929688 L 223.113281 385.355469 L 221.835938 386.917969 L 220.296875 389.171875 L 219.113281 391.082031 L 218.164062 392.714844 L 216.921875 394.964844 L 215.4375 397.8125 L 215.644531 387.761719 L 214.917969 387.855469 L 214.195312 387.949219 L 214.027344 401.210938 L 211.1875 406.246094 L 210.488281 407.351562 L 209.246094 409.710938 L 207.929688 411.773438 L 205.988281 414.496094 L 203.886719 417.109375 L 201.945312 419.097656 L 197.121094 423.535156 L 194.949219 424.9375 L 193.550781 425.96875 L 191.765625 426.851562 L 190.058594 427.664062 L 188.664062 428.179688 L 188.335938 428.308594 L 186.21875 399.273438 L 187.90625 398.828125 L 200.636719 393.96875 L 208.113281 389.964844 L 211.113281 387.808594 L 212.753906 385.664062 Z M 214.152344 383.945312 "/>
</g>
<g clip-path="url(#clip19)" clip-rule="nonzero">
<path style=" stroke:none;fill-rule:nonzero;fill:rgb(39.99939%,39.99939%,39.99939%);fill-opacity:0.3;" d="M 348.851562 358.011719 L 355.226562 357.65625 L 359.109375 358.328125 L 356.03125 368.714844 L 357.1875 369.074219 L 360.113281 358.671875 L 364.199219 359.933594 L 366.121094 361.035156 L 367.769531 362.378906 L 367.820312 362.644531 L 364.019531 371.34375 L 360.144531 379.308594 L 358.113281 382.609375 L 356.757812 384.40625 L 356.445312 384.648438 L 356.050781 384.875 L 355.621094 384.886719 L 344.875 382.917969 L 348.410156 359.097656 Z M 348.851562 358.011719 "/>
</g>
<g clip-path="url(#clip20)" clip-rule="nonzero">
<path style=" stroke:none;fill-rule:nonzero;fill:rgb(39.99939%,39.99939%,39.99939%);fill-opacity:0.3;" d="M 195.078125 336.761719 L 211.507812 339.800781 L 210.132812 341.8125 L 208.292969 345.347656 L 204.609375 352.269531 L 200.59375 360.894531 L 195.988281 372.148438 L 196.039062 374.265625 L 204.136719 390.375 L 201.394531 391.621094 L 197.683594 393.152344 L 193.035156 394.980469 L 189.144531 396.253906 L 186.160156 397.148438 L 187.785156 366.296875 L 194.109375 342.324219 Z M 195.078125 336.761719 "/>
</g>
<path style=" stroke:none;fill-rule:nonzero;fill:rgb(39.99939%,39.99939%,39.99939%);fill-opacity:0.3;" d="M 286.566406 339.886719 L 287.742188 339.136719 L 293.292969 338.082031 L 307.097656 336.539062 L 306.769531 342.332031 L 291.589844 342.308594 L 287.765625 342.828125 Z M 286.566406 339.886719 "/>
<g clip-path="url(#clip21)" clip-rule="nonzero">
<path style=" stroke:none;fill-rule:nonzero;fill:rgb(39.99939%,39.99939%,39.99939%);fill-opacity:0.3;" d="M 325.210938 342.183594 L 325.523438 335.625 L 328.101562 335.441406 L 346.679688 335.554688 L 352.875 335.449219 L 357.113281 335.136719 L 361.675781 334.722656 L 373.171875 332.363281 L 375.84375 331.996094 L 376.066406 332.066406 L 389.71875 352.554688 L 388.59375 353.175781 L 380.191406 349.808594 L 367.949219 344.011719 L 364.804688 343.15625 L 359.375 342.128906 L 351.761719 341.671875 Z M 325.210938 342.183594 "/>
</g>
<path style=" stroke:none;fill-rule:nonzero;fill:rgb(39.99939%,39.99939%,39.99939%);fill-opacity:0.3;" d="M 210.332031 336.953125 L 210.269531 337.164062 L 209.882812 337.53125 L 209.367188 337.652344 L 208.339844 337.652344 L 203.597656 336.796875 L 203.734375 335.9375 Z M 210.332031 336.953125 "/>
<path style=" stroke:none;fill-rule:nonzero;fill:rgb(39.99939%,39.99939%,39.99939%);fill-opacity:0.3;" d="M 201.101562 335.535156 L 200.953125 336.320312 L 195.332031 335.304688 L 195.441406 334.664062 Z M 201.101562 335.535156 "/>
<path style=" stroke:none;fill-rule:nonzero;fill:rgb(39.99939%,39.99939%,39.99939%);fill-opacity:0.3;" d="M 323.339844 342.222656 L 308.609375 342.34375 L 308.851562 336.222656 L 321.199219 334.066406 L 321.644531 334.664062 L 323.597656 335.25 Z M 323.339844 342.222656 "/>
<path style=" stroke:none;fill-rule:nonzero;fill:rgb(39.99939%,39.99939%,39.99939%);fill-opacity:0.3;" d="M 282.132812 338.089844 L 282.058594 337.765625 L 278.738281 320.058594 L 276.773438 307.402344 L 305.941406 310.695312 L 306.117188 310.835938 L 306.25 310.992188 L 306.324219 311.171875 L 306.371094 311.425781 L 306.417969 311.976562 L 306.105469 331.484375 L 306.105469 333.121094 L 305.890625 333.734375 L 305.566406 334.140625 L 304.8125 334.347656 L 298.085938 335.125 L 288.949219 336.695312 L 288.515625 336.875 L 288.132812 336.925781 L 287.71875 337.03125 L 282.40625 338.3125 Z M 282.132812 338.089844 "/>
<g clip-path="url(#clip22)" clip-rule="nonzero">
<path style=" stroke:none;fill-rule:nonzero;fill:rgb(39.99939%,39.99939%,39.99939%);fill-opacity:0.3;" d="M 247.132812 331.433594 L 246.632812 331.871094 L 246.21875 332.234375 L 259.425781 349.457031 L 257.703125 350.59375 L 252.648438 354.449219 L 238.578125 336.003906 L 234.667969 330.105469 L 233.691406 324.5 L 233.023438 324.628906 L 232.359375 324.753906 L 233.027344 330.527344 L 237.148438 336.808594 L 251.855469 355.410156 L 251.347656 355.753906 L 250.664062 356.128906 L 249.941406 356.0625 L 249.132812 355.820312 L 247.597656 355.40625 L 245.839844 355.453125 L 244.109375 356.34375 L 243.058594 357.054688 L 239.675781 359.554688 L 235.917969 362.152344 L 228.683594 368.160156 L 221.109375 374.957031 L 215.421875 380.300781 L 212.769531 382.785156 L 211.222656 384.652344 L 209.183594 386.71875 L 206.582031 388.351562 L 203.226562 383.855469 L 203.019531 383.335938 L 203.300781 382.644531 L 219.21875 366.863281 L 219.917969 365.871094 L 220.5 364.769531 L 220.847656 363.886719 L 220.847656 362.230469 L 220.730469 361.238281 L 220.496094 360.023438 L 217.820312 353.40625 L 217.628906 352.949219 L 212.707031 349.085938 L 212.519531 348.730469 L 212.472656 348.152344 L 213.585938 339.257812 L 213.816406 338.890625 L 218.277344 339.082031 L 218.511719 339.171875 L 218.714844 339.425781 L 219.703125 339.453125 L 219.640625 338.691406 L 219.609375 338.320312 L 212.816406 337.613281 L 212.347656 337.390625 L 212.210938 337.242188 L 212.757812 337.328125 L 214.089844 315.351562 L 215.140625 312.90625 L 215.636719 312.457031 L 216.097656 310.816406 L 216.113281 310.648438 L 217.421875 308.359375 L 217.421875 301.199219 L 228.21875 301.917969 L 275.144531 307.21875 L 277.566406 320.796875 L 281.113281 338.476562 L 280.933594 338.824219 L 277.949219 339.863281 L 277.515625 340.078125 L 274.347656 316.859375 L 273.695312 316.984375 L 273.144531 317.089844 L 276.332031 340.574219 L 276.027344 340.890625 L 273.53125 342.035156 L 270.460938 343.464844 L 265.527344 345.414062 L 255.710938 332.039062 L 255.054688 332.335938 L 254.414062 332.628906 L 264.046875 346.1875 L 261.703125 347.949219 L 260.464844 348.765625 L 247.292969 331.648438 Z M 247.132812 331.433594 "/>
</g>
<g clip-path="url(#clip23)" clip-rule="nonzero">
<path style=" stroke:none;fill-rule:nonzero;fill:rgb(39.99939%,39.99939%,39.99939%);fill-opacity:0.3;" d="M 209.261719 347.933594 L 211.773438 350.023438 L 214.417969 352.199219 L 214.597656 352.660156 L 201.949219 365.890625 L 201.332031 365.636719 L 201.289062 365.179688 L 202.695312 360.15625 L 203.535156 358.566406 L 208.996094 348.058594 Z M 209.261719 347.933594 "/>
</g>
<g clip-path="url(#clip24)" clip-rule="nonzero">
<path style=" stroke:none;fill-rule:nonzero;fill:rgb(39.99939%,39.99939%,39.99939%);fill-opacity:0.3;" d="M 320.636719 345.398438 L 319.988281 352.613281 L 319.394531 353.839844 L 318.585938 359.78125 L 313.070312 359.667969 L 311.691406 359.613281 L 311.058594 359.914062 L 309.476562 361.722656 L 308.84375 362.023438 L 303.773438 362.023438 L 303.140625 362.328125 L 301.246094 380.082031 L 301.246094 380.382812 L 301.5625 380.683594 L 304.097656 381.285156 L 304.414062 381.585938 L 304.417969 383.089844 L 329.277344 385.582031 L 342.121094 385.78125 L 342.4375 385.78125 L 342.4375 386.082031 L 340.859375 397.820312 L 339.910156 401.132812 L 339.277344 402.9375 L 337.695312 404.441406 L 336.109375 404.742188 L 311.710938 398.734375 L 311.441406 399.382812 L 311.078125 400.242188 L 334.84375 405.648438 L 331.042969 410.464844 L 330.410156 411.96875 L 330.414062 414.375 L 330.730469 416.484375 L 331.363281 417.386719 L 331.683594 418.890625 L 331.367188 420.996094 L 330.417969 423.40625 L 329.148438 423.707031 L 327.566406 424.609375 L 326.933594 426.714844 L 326.933594 428.523438 L 325.984375 428.523438 L 323.449219 428.222656 L 318.378906 428.222656 L 316.796875 428.527344 L 315.210938 428.527344 L 314.261719 428.828125 L 312.992188 428.828125 L 311.726562 429.128906 L 310.777344 429.429688 L 309.824219 429.433594 L 307.925781 430.035156 L 306.972656 430.335938 L 305.707031 430.636719 L 304.757812 431.238281 L 303.804688 431.542969 L 302.855469 431.84375 L 301.90625 432.445312 L 300.953125 432.746094 L 300.320312 433.347656 L 299.371094 433.949219 L 298.421875 434.25 L 297.789062 434.554688 L 297.152344 435.15625 L 296.519531 435.457031 L 295.570312 436.359375 L 294.621094 436.960938 L 293.351562 437.863281 L 292.402344 438.769531 L 291.769531 439.371094 L 291.136719 440.273438 L 290.1875 440.875 L 289.554688 441.777344 L 288.921875 442.683594 L 283.535156 448.101562 L 275.617188 455.328125 L 273.71875 457.132812 L 268.335938 461.949219 L 262.632812 466.46875 L 256.933594 467.972656 L 259.777344 452.625 L 258.976562 452.628906 L 258.191406 452.625 L 254.714844 468.277344 L 245.210938 471.890625 L 231.589844 475.207031 L 219.867188 477.621094 L 208.144531 480.335938 L 206.316406 480.761719 L 199.738281 450.265625 L 199.890625 450.246094 L 205.277344 448.4375 L 210.664062 446.328125 L 210.367188 445.59375 L 210.027344 444.824219 L 199.351562 447.84375 L 197.773438 428.898438 L 197.738281 428.535156 L 200.199219 427.074219 L 207.796875 419.847656 L 206.859375 440.3125 L 207.996094 440.308594 L 209.074219 440.308594 L 209.699219 417.738281 L 210.964844 415.933594 L 213.8125 412.019531 L 221.726562 396.96875 L 226.160156 389.746094 L 232.175781 382.519531 L 242.945312 372.585938 L 253.394531 362.046875 L 254.976562 360.242188 L 257.511719 357.832031 L 259.410156 356.328125 L 269.230469 350.304688 L 271.449219 349.398438 L 272.398438 349.699219 L 273.03125 350.300781 L 272.402344 353.3125 L 272.402344 353.613281 L 281.589844 352.707031 L 281.589844 353.007812 L 280.007812 360.53125 L 277.160156 363.542969 L 277.492188 363.863281 L 277.792969 364.144531 L 280.324219 361.433594 L 283.179688 362.9375 L 283.8125 362.335938 L 280.960938 360.832031 L 280.960938 360.53125 L 282.855469 351.199219 L 282.539062 351.199219 L 281.90625 351.203125 L 275.253906 352.105469 L 274.300781 351.804688 L 274.300781 350.902344 L 274.933594 350 L 277.46875 348.496094 L 281.902344 346.386719 L 288.238281 345.179688 L 291.089844 344.878906 L 293.625 344.574219 L 297.425781 343.972656 L 302.179688 344.570312 L 318.65625 344.566406 L 319.289062 344.5625 L 320.238281 344.863281 L 320.558594 345.164062 Z M 320.636719 345.398438 "/>
</g>
<g clip-path="url(#clip25)" clip-rule="nonzero">
<path style=" stroke:none;fill-rule:nonzero;fill:rgb(39.99939%,39.99939%,39.99939%);fill-opacity:0.3;" d="M 319.554688 359.886719 L 319.960938 356.335938 L 320.398438 354.113281 L 320.753906 353.339844 L 321.578125 345.484375 L 324.359375 346.367188 L 326.394531 347.152344 L 326.714844 346.339844 L 325.09375 345.683594 L 323.265625 345.089844 L 322.140625 344.863281 L 322.140625 344.261719 L 324.675781 344.261719 L 332.28125 344.257812 L 351.605469 343.648438 L 359.210938 344.246094 L 364.28125 345.449219 L 370.9375 347.550781 L 375.375 349.65625 L 373.15625 353.871094 L 373.804688 354.179688 L 374.425781 354.472656 L 376.640625 350.257812 L 379.492188 351.460938 L 389 355.066406 L 391.535156 355.367188 L 396.605469 358.675781 L 400.09375 361.984375 L 400.410156 362.585938 L 400.410156 363.488281 L 399.777344 363.488281 L 398.824219 363.1875 L 395.972656 361.683594 L 393.4375 360.480469 L 389.636719 359.882812 L 386.152344 359.582031 L 378.230469 364.402344 L 377.914062 364.703125 L 377.597656 364.703125 L 376.964844 364.402344 L 369.992188 361.394531 L 363.019531 358.085938 L 359.851562 356.886719 L 354.78125 356.285156 L 347.496094 356.589844 L 347.179688 357.191406 L 345.285156 372.539062 L 345.285156 372.839844 L 330.390625 371.644531 L 329.757812 371.042969 L 330.070312 364.722656 L 327.21875 360.210938 L 326.585938 360.210938 Z M 319.554688 359.886719 "/>
</g>
<g clip-path="url(#clip26)" clip-rule="nonzero">
<path style=" stroke:none;fill-rule:nonzero;fill:rgb(39.99939%,39.99939%,39.99939%);fill-opacity:0.3;" d="M 80.410156 283.863281 L 72.238281 310.710938 L 123.167969 328.4375 L 116.9375 354.515625 L 115.953125 360.390625 L 115.757812 361.972656 L 115.128906 362.425781 L 103.5 361.242188 L 102.621094 360.566406 L 90.460938 336.078125 L 82.414062 340.003906 L 80.710938 336.886719 L 65.996094 340.570312 L 62.226562 335.425781 L 60.835938 331.996094 L 59.023438 327.113281 L 57.492188 321.308594 L 56.097656 316.558594 L 52.878906 306.484375 L 46.089844 288.785156 L 46.40625 287.109375 L 49.246094 279.863281 L 49.617188 279.105469 L 50.175781 278.890625 L 72.863281 282.042969 L 70.097656 290.773438 L 70.914062 290.847656 L 71.726562 290.921875 L 74.257812 282.480469 L 80.492188 283.246094 Z M 80.410156 283.863281 "/>
</g>
<g clip-path="url(#clip27)" clip-rule="nonzero">
<path style=" stroke:none;fill-rule:nonzero;fill:rgb(39.99939%,39.99939%,39.99939%);fill-opacity:0.3;" d="M 97.09375 370.519531 L 94.109375 371.515625 L 94.363281 372.011719 L 94.582031 372.445312 L 97.609375 371.492188 L 99.941406 375.894531 L 100.015625 376.894531 L 99.617188 378.546875 L 99.289062 379.582031 L 98.925781 380.546875 L 98.601562 381.304688 L 98.210938 381.828125 L 97.78125 382.640625 L 97.402344 383.183594 L 96.925781 383.808594 L 96.292969 384.519531 L 95.917969 384.910156 L 91.976562 388.207031 L 91.46875 388.15625 L 90.835938 387.476562 L 86.101562 378.800781 L 73.535156 357.328125 L 68.359375 345.191406 L 67.917969 343.582031 L 67.210938 341.789062 L 80.070312 338.371094 Z M 97.09375 370.519531 "/>
</g>
<path style=" stroke:none;fill-rule:nonzero;fill:rgb(39.99939%,39.99939%,39.99939%);fill-opacity:0.3;" d="M 152.386719 332.796875 L 152.386719 332.617188 L 155.664062 320.457031 Z M 152.386719 332.796875 "/>
<g clip-path="url(#clip28)" clip-rule="nonzero">
<path style=" stroke:none;fill-rule:nonzero;fill:rgb(39.99939%,39.99939%,39.99939%);fill-opacity:0.3;" d="M 110.234375 409.386719 L 109.871094 409.214844 L 107.722656 408.144531 L 106.480469 407.179688 L 105.800781 406.75 L 105.351562 406.429688 L 104.558594 406.109375 L 103.542969 406.109375 L 102.863281 406 L 102.074219 405.785156 L 101.507812 405.464844 L 100.832031 405.039062 L 100.265625 404.609375 L 97.890625 401.929688 L 93.367188 393.785156 L 92.914062 392.925781 L 92.460938 391.167969 L 92.679688 389.71875 L 93.550781 388.640625 L 98.132812 384.910156 L 98.964844 383.957031 L 99.835938 382.441406 L 100.488281 380.683594 L 101.140625 378.789062 L 101.429688 377.582031 L 101.503906 376.480469 L 101.226562 375.464844 L 100.476562 373.628906 L 100.363281 373.089844 L 83 341.039062 L 90.25 337.597656 L 101.769531 362.09375 L 103.652344 366.097656 L 104.039062 365.964844 L 104.570312 365.785156 L 103.058594 362.050781 L 115.546875 363.375 L 115.566406 364.269531 L 115.757812 364.75 L 115.882812 365.230469 L 115.441406 368.835938 L 114.8125 374.242188 L 114.117188 379.171875 L 114.433594 379.410156 L 115.730469 379.605469 L 114.859375 383.945312 Z M 110.234375 409.386719 "/>
</g>
<g clip-path="url(#clip29)" clip-rule="nonzero">
<path style=" stroke:none;fill-rule:nonzero;fill:rgb(39.99939%,39.99939%,39.99939%);fill-opacity:0.3;" d="M 117.054688 373.183594 L 116.777344 373.140625 L 117.75 365.300781 L 117.972656 364.230469 L 119.261719 357.78125 L 119.488281 357.566406 L 118.523438 362.632812 L 117.523438 370.960938 Z M 117.054688 373.183594 "/>
</g>
<path style=" stroke:none;fill-rule:nonzero;fill:rgb(39.99939%,39.99939%,39.99939%);fill-opacity:0.3;" d="M 119.78125 356.035156 L 119.726562 356.023438 L 120 353.507812 L 121.40625 347.238281 L 121.46875 346.917969 L 121.546875 346.648438 L 121.59375 346.40625 L 122.605469 341.898438 L 123.21875 339.859375 L 119.855469 355.640625 Z M 119.78125 356.035156 "/>
<path style=" stroke:none;fill-rule:nonzero;fill:rgb(39.99939%,39.99939%,39.99939%);fill-opacity:0.3;" d="M 82.429688 283.386719 L 103.496094 285.789062 L 160.820312 293.328125 L 150.09375 333.050781 L 108.71875 320.160156 L 115.101562 302.148438 L 114.445312 302.035156 L 113.679688 301.90625 L 107.492188 319.488281 L 93.109375 315.164062 L 83.195312 312.171875 L 89.589844 293.296875 L 88.570312 293.027344 L 87.667969 292.785156 L 81.210938 311.675781 L 74.320312 309.253906 Z M 82.429688 283.386719 "/>
<g clip-path="url(#clip30)" clip-rule="nonzero">
<path style=" stroke:none;fill-rule:nonzero;fill:rgb(39.99939%,39.99939%,39.99939%);fill-opacity:0.3;" d="M 93.488281 411.527344 L 63.902344 359.960938 L 56.015625 344.8125 L 54.441406 335.382812 L 53.480469 323.695312 L 52.546875 317.535156 L 51.855469 313.464844 L 49.839844 307.875 L 44.832031 300.746094 L 43.21875 298.902344 L 43.082031 297.707031 L 43.273438 296.835938 L 45.183594 290.804688 L 45.578125 290.464844 L 51.980469 306.777344 L 55.183594 316.808594 L 56.570312 321.539062 L 58.113281 327.375 L 59.941406 332.308594 L 61.363281 335.8125 L 65.71875 343.183594 L 66.339844 345.652344 L 71.820312 358.117188 L 84.425781 379.65625 L 89.097656 388.210938 L 90.03125 390.574219 L 91.160156 392.488281 L 91.960938 394.472656 L 96.472656 402.976562 L 99.152344 405.691406 L 100.101562 406.363281 L 98.71875 408.542969 L 97.257812 410.320312 L 95.445312 411.519531 Z M 93.488281 411.527344 "/>
</g>
<g clip-path="url(#clip31)" clip-rule="nonzero">
<path style=" stroke:none;fill-rule:nonzero;fill:rgb(39.99939%,39.99939%,39.99939%);fill-opacity:0.3;" d="M 160.316406 339.414062 L 160.519531 338.679688 L 160.925781 338.40625 L 161.25 338.234375 L 190.699219 343.746094 L 185.480469 364.871094 L 185.078125 367.050781 L 184.757812 369.714844 L 184.652344 372.476562 L 183.894531 397.375 L 183.792969 397.9375 L 183.375 398.234375 L 182.960938 398.332031 L 175.992188 400.605469 L 172.042969 401.691406 L 170.585938 401.890625 L 169.753906 401.988281 L 168.9375 401.996094 L 168.484375 401.742188 L 168.253906 401.386719 L 168.140625 400.953125 L 168.824219 364.492188 L 168.027344 364.492188 L 167.449219 364.488281 L 166.738281 401.695312 L 166.53125 402.285156 L 165.90625 402.78125 L 164.761719 403.175781 L 161.644531 404.011719 L 161.0625 404.199219 L 160.644531 404.351562 L 160.390625 404.433594 L 157.882812 405.421875 L 153 407.753906 L 151.726562 408.734375 L 150.882812 409.835938 L 150.488281 409.683594 L 150.777344 406.265625 L 152.398438 390.179688 L 153.367188 380.195312 L 154.394531 374.15625 Z M 160.316406 339.414062 "/>
</g>
<g clip-path="url(#clip32)" clip-rule="nonzero">
<path style=" stroke:none;fill-rule:nonzero;fill:rgb(39.99939%,39.99939%,39.99939%);fill-opacity:0.3;" d="M 192.613281 344.496094 L 194.175781 336.59375 L 195.078125 336.761719 L 194.109375 342.324219 L 187.785156 366.296875 L 186.160156 397.148438 L 185.347656 397.390625 L 186.480469 370.351562 L 186.878906 369.140625 Z M 192.613281 344.496094 "/>
</g>
<path style=" stroke:none;fill-rule:nonzero;fill:rgb(39.99939%,39.99939%,39.99939%);fill-opacity:0.3;" d="M 198.542969 298.410156 L 215.265625 300.796875 L 214.371094 311.046875 L 213.601562 312.144531 L 212.1875 313.488281 L 212.058594 314.832031 L 210.527344 336.3125 L 210.332031 336.953125 L 203.734375 335.9375 L 204.964844 328.1875 L 202.527344 327.976562 L 201.101562 335.535156 L 195.441406 334.664062 L 195.332031 335.304688 L 194.191406 335.097656 L 199.195312 309.796875 L 198.460938 309.6875 L 197.753906 309.578125 L 192.550781 335.308594 L 191.269531 341.636719 L 186.347656 340.714844 L 192.507812 310.691406 L 191.398438 310.574219 L 190.191406 310.449219 L 184.046875 340.292969 L 172.917969 338.289062 L 178.121094 315.304688 L 177.191406 315.167969 L 176.214844 315.027344 L 170.8125 337.894531 L 166.214844 337.035156 L 168.957031 325.886719 L 168.160156 325.722656 L 167.355469 325.558594 L 164.691406 336.75 L 160.324219 335.660156 L 152.84375 333.699219 L 152.5 333.484375 L 152.386719 333.050781 L 152.386719 332.796875 L 155.664062 320.457031 L 162.882812 293.675781 Z M 198.542969 298.410156 "/>
<g clip-path="url(#clip33)" clip-rule="nonzero">
<path style=" stroke:none;fill-rule:nonzero;fill:rgb(39.99939%,39.99939%,39.99939%);fill-opacity:0.3;" d="M 124.621094 335.003906 L 125.597656 331.097656 L 125.875 330.320312 L 126.101562 329.675781 L 126.5625 329.332031 L 127.09375 329.371094 L 156.503906 337.582031 L 157.070312 337.796875 L 157.746094 338.011719 L 158.195312 338.4375 L 158.535156 338.863281 L 158.535156 339.292969 L 158.648438 339.828125 L 158.535156 340.46875 L 153.03125 372.648438 L 152.003906 378.683594 L 151.03125 388.671875 L 149.480469 405.132812 L 149.09375 408.460938 L 148.898438 410.125 L 148.261719 411.398438 L 147.277344 412.710938 L 146.355469 413.832031 L 145.238281 414.707031 L 144.121094 415.457031 L 143.113281 415.675781 L 141.53125 415.964844 L 140.707031 416.046875 L 140.09375 416.097656 L 138.976562 416.472656 L 137.300781 416.703125 L 134.335938 416.449219 L 137.144531 396.738281 L 138.726562 396.738281 L 138.765625 396.160156 L 138.808594 395.449219 L 136.007812 395.148438 L 133.0625 415.792969 L 132.023438 416.554688 L 130.421875 416.25 L 125.144531 415.796875 L 128.015625 400.464844 L 127.5625 400.433594 L 126.894531 400.386719 L 123.867188 415.191406 L 121.5625 414.28125 L 119.195312 413.472656 L 116.996094 412.40625 L 114.796875 411.488281 L 112.808594 410.605469 L 110.234375 409.386719 L 114.859375 383.945312 L 115.730469 379.605469 L 127.285156 381.328125 L 127.402344 380.691406 L 127.539062 379.945312 L 116.144531 378.027344 L 116.097656 377.761719 L 116.191406 377.285156 L 116.246094 377.03125 L 116.285156 376.878906 L 116.296875 376.785156 L 116.800781 374.398438 L 135.113281 376.9375 L 135.273438 376.402344 L 135.40625 375.949219 L 117.054688 373.183594 L 117.523438 370.960938 L 118.523438 362.632812 L 119.488281 357.566406 L 119.625 357.4375 L 139.484375 361.726562 L 139.617188 361.074219 L 139.742188 360.457031 L 119.78125 356.035156 L 119.855469 355.640625 L 123.21875 339.859375 L 124.34375 336.121094 L 128.875 336.855469 L 128.574219 338.296875 L 129.03125 338.460938 L 129.484375 338.625 L 130.175781 334.589844 L 129.808594 334.527344 L 129.441406 334.46875 L 128.917969 335.910156 Z M 124.621094 335.003906 "/>
</g>
<path style=" stroke:none;fill-rule:nonzero;fill:rgb(39.99939%,39.99939%,39.99939%);fill-opacity:0.3;" d="M 212.210938 337.242188 L 212.050781 337.074219 L 213.476562 315.144531 L 213.621094 314.265625 L 215.140625 312.90625 L 214.089844 315.351562 L 212.757812 337.328125 Z M 212.210938 337.242188 "/>
<path style=" stroke:none;fill-rule:nonzero;fill:rgb(39.99939%,39.99939%,39.99939%);fill-opacity:0.3;" d="M 216.113281 310.648438 L 216.945312 301.164062 L 217.421875 301.199219 L 217.421875 308.359375 Z M 216.113281 310.648438 "/>
<path style="fill-rule:nonzero;fill:rgb(39.99939%,39.99939%,39.99939%);fill-opacity:1;stroke-width:0.03;stroke-linecap:square;stroke-linejoin:miter;stroke:rgb(39.99939%,39.99939%,39.99939%);stroke-opacity:1;stroke-miterlimit:3.239307;" d="M 264.308594 208.8125 L 347.898438 270.617188 L 351.457031 272.359375 L 355.363281 272.902344 L 358.230469 272.464844 L 361.101562 273.554688 L 374.769531 281.027344 L 382.570312 321.570312 L 375.441406 320.933594 L 371.441406 306.171875 L 369.128906 303.410156 L 368.488281 303.753906 L 367.84375 304.097656 L 370.039062 306.53125 L 373.957031 320.976562 L 348.152344 317.96875 L 350.667969 307.875 L 350.007812 307.753906 L 349.351562 307.632812 L 346.351562 317.6875 L 327.847656 315.449219 L 327.996094 314.394531 L 333.660156 301.726562 L 338.128906 292.574219 L 337.5 292.28125 L 336.875 291.992188 L 333.085938 299.972656 L 326.105469 315.125 L 319.421875 314.292969 L 314.0625 313.035156 L 313.355469 312.980469 L 316.382812 303.355469 L 316.148438 302.191406 L 316.289062 301.429688 L 321.527344 289.523438 L 330.367188 269.433594 L 329.867188 269.160156 L 329.363281 268.882812 L 320.976562 287.757812 L 316.726562 286.328125 L 316.144531 286.476562 L 312.34375 296.0625 L 312.945312 296.210938 L 313.550781 296.359375 L 317.007812 287.722656 L 320.175781 289.058594 L 314.734375 301.746094 L 315.066406 303.175781 L 313.042969 309.507812 L 311.953125 312.878906 L 306.640625 312.488281 L 270.546875 307.953125 L 273.53125 298.570312 L 279.136719 280.660156 L 285.832031 259.195312 L 289.730469 260.082031 L 304.007812 264.253906 L 304.601562 262.558594 L 286.554688 257.035156 L 289.386719 246.003906 L 288.773438 245.855469 L 288.15625 245.710938 L 285.027344 256.257812 L 280.824219 270.417969 L 275.738281 284.890625 L 268.613281 307.609375 L 224.078125 300.082031 L 230.394531 278.074219 L 237.4375 256.042969 L 247.46875 227.660156 L 248.546875 226.15625 L 248.863281 225.132812 L 254.167969 209.347656 L 254.332031 208.984375 L 255.921875 204.023438 L 256.125 204.148438 Z M 264.308594 208.8125 " transform="matrix(1,0,0,1,-74,-13)"/>
<path style="fill-rule:nonzero;fill:rgb(39.99939%,39.99939%,39.99939%);fill-opacity:1;stroke-width:0.03;stroke-linecap:square;stroke-linejoin:miter;stroke:rgb(39.99939%,39.99939%,39.99939%);stroke-opacity:1;stroke-miterlimit:3.239307;" d="M 198.222656 244.863281 L 209.832031 247.625 L 194.800781 296.363281 L 183.320312 294.933594 L 191.753906 267.824219 L 195.257812 268.675781 L 195.476562 267.984375 L 195.753906 267.113281 L 192.21875 266.230469 L 195.414062 254.863281 L 198.148438 255.28125 L 198.257812 254.804688 L 198.382812 254.316406 L 195.746094 253.675781 Z M 198.222656 244.863281 " transform="matrix(1,0,0,1,-74,-13)"/>
<path style="fill-rule:nonzero;fill:rgb(39.99939%,39.99939%,39.99939%);fill-opacity:1;stroke-width:0.03;stroke-linecap:square;stroke-linejoin:miter;stroke:rgb(39.99939%,39.99939%,39.99939%);stroke-opacity:1;stroke-miterlimit:3.239307;" d="M 373.945312 276.75 L 359.359375 267.855469 L 361.210938 262.496094 L 372.003906 266.648438 Z M 373.945312 276.75 " transform="matrix(1,0,0,1,-74,-13)"/>
<path style="fill-rule:nonzero;fill:rgb(39.99939%,39.99939%,39.99939%);fill-opacity:1;stroke-width:0.03;stroke-linecap:square;stroke-linejoin:miter;stroke:rgb(39.99939%,39.99939%,39.99939%);stroke-opacity:1;stroke-miterlimit:3.239307;" d="M 358.855469 261.589844 L 357.148438 266.539062 L 345.246094 259.699219 L 338.898438 255.117188 L 340.332031 252.171875 L 341.367188 252.761719 L 352.355469 259.089844 Z M 358.855469 261.589844 " transform="matrix(1,0,0,1,-74,-13)"/>
<path style="fill-rule:nonzero;fill:rgb(39.99939%,39.99939%,39.99939%);fill-opacity:1;stroke-width:0.03;stroke-linecap:square;stroke-linejoin:miter;stroke:rgb(39.99939%,39.99939%,39.99939%);stroke-opacity:1;stroke-miterlimit:3.239307;" d="M 338.5625 251.160156 L 337.332031 254.027344 L 321.828125 241.621094 Z M 338.5625 251.160156 " transform="matrix(1,0,0,1,-74,-13)"/>
<path style="fill-rule:nonzero;fill:rgb(39.99939%,39.99939%,39.99939%);fill-opacity:1;stroke-width:0.03;stroke-linecap:square;stroke-linejoin:miter;stroke:rgb(39.99939%,39.99939%,39.99939%);stroke-opacity:1;stroke-miterlimit:3.239307;" d="M 202.714844 277.214844 L 205.585938 268.699219 L 210.597656 250.210938 L 211.269531 248.015625 L 211.847656 246.371094 L 213.746094 240.179688 L 212.976562 240.011719 L 211.957031 239.789062 L 210.269531 246.261719 L 199.375 243.445312 L 204.488281 226.238281 L 216.109375 188.097656 L 220.765625 189.800781 L 215.378906 209.15625 L 215.21875 209.863281 L 215.421875 210.09375 L 216.21875 210.378906 L 221.941406 212.203125 L 222.074219 211.703125 L 222.21875 211.21875 L 217.242188 209.613281 L 219.808594 200.296875 L 222.722656 190.574219 L 232.730469 194.105469 L 240.4375 194.769531 L 241.472656 195.15625 L 254.507812 203.15625 L 253.019531 207.296875 L 252.347656 209.679688 L 247.175781 225.433594 L 246.257812 225.449219 L 236.484375 253.269531 L 229.964844 272.382812 L 228.136719 279.339844 L 221.570312 299.78125 L 207.730469 298.023438 L 209.191406 284.820312 L 208.378906 284.597656 L 207.566406 284.371094 L 205.023438 297.679688 L 197.34375 296.703125 Z M 202.714844 277.214844 " transform="matrix(1,0,0,1,-74,-13)"/>
<path style="fill-rule:nonzero;fill:rgb(39.99939%,39.99939%,39.99939%);fill-opacity:1;stroke-width:0.03;stroke-linecap:square;stroke-linejoin:miter;stroke:rgb(39.99939%,39.99939%,39.99939%);stroke-opacity:1;stroke-miterlimit:3.239307;" d="M 160.425781 219.09375 L 140.441406 275.511719 L 138.78125 274.964844 L 155.722656 218.109375 Z M 160.425781 219.09375 " transform="matrix(1,0,0,1,-74,-13)"/>
<path style="fill-rule:nonzero;fill:rgb(39.99939%,39.99939%,39.99939%);fill-opacity:1;stroke-width:0.03;stroke-linecap:square;stroke-linejoin:miter;stroke:rgb(39.99939%,39.99939%,39.99939%);stroke-opacity:1;stroke-miterlimit:3.239307;" d="M 199.402344 182.339844 L 169.859375 285.699219 L 159.875 282.28125 L 189.035156 178.828125 L 189.195312 178.839844 L 190.445312 178.660156 Z M 199.402344 182.339844 " transform="matrix(1,0,0,1,-74,-13)"/>
<path style="fill-rule:nonzero;fill:rgb(39.99939%,39.99939%,39.99939%);fill-opacity:1;stroke-width:0.03;stroke-linecap:square;stroke-linejoin:miter;stroke:rgb(39.99939%,39.99939%,39.99939%);stroke-opacity:1;stroke-miterlimit:3.239307;" d="M 182.792969 289.464844 L 171.136719 286.117188 L 200.984375 182.871094 L 214.539062 187.570312 Z M 182.792969 289.464844 " transform="matrix(1,0,0,1,-74,-13)"/>
<path style="fill-rule:nonzero;fill:rgb(39.99939%,39.99939%,39.99939%);fill-opacity:1;stroke-width:0.03;stroke-linecap:square;stroke-linejoin:miter;stroke:rgb(39.99939%,39.99939%,39.99939%);stroke-opacity:1;stroke-miterlimit:3.239307;" d="M 181.90625 291.476562 L 181.074219 294.617188 L 125.429688 287.363281 L 129.292969 275.785156 L 129.644531 274.921875 Z M 181.90625 291.476562 " transform="matrix(1,0,0,1,-74,-13)"/>
<path style="fill-rule:nonzero;fill:rgb(39.99939%,39.99939%,39.99939%);fill-opacity:1;stroke-width:0.03;stroke-linecap:square;stroke-linejoin:miter;stroke:rgb(39.99939%,39.99939%,39.99939%);stroke-opacity:1;stroke-miterlimit:3.239307;" d="M 174.953125 223.578125 L 158.480469 281.71875 L 142.328125 276.789062 L 142.558594 276.121094 L 162.179688 218.859375 L 168.632812 220.242188 L 172.117188 208.75 L 171.179688 208.507812 L 167.972656 219.375 L 156.261719 216.597656 L 159.746094 207.085938 L 158.699219 206.667969 L 157.648438 206.253906 L 137.242188 274.457031 L 131.550781 272.582031 L 143.792969 236.085938 L 146.570312 228.789062 L 151.234375 216.132812 L 164.21875 177.175781 L 181.949219 178.355469 L 178.542969 188.828125 L 179.179688 189.074219 L 179.816406 189.316406 L 183.25 178.445312 L 187.65625 178.738281 L 184.375 190.316406 Z M 174.953125 223.578125 " transform="matrix(1,0,0,1,-74,-13)"/>
<path style=" stroke:none;fill-rule:evenodd;fill:rgb(85.096741%,85.096741%,81.959534%);fill-opacity:0.7;" d="M 211.320312 336 C 211.320312 332.46875 209.917969 329.078125 207.417969 326.582031 C 204.921875 324.082031 201.53125 322.679688 198 322.679688 C 194.46875 322.679688 191.078125 324.082031 188.582031 326.582031 C 186.082031 329.078125 184.679688 332.46875 184.679688 336 C 184.679688 339.53125 186.082031 342.921875 188.582031 345.417969 C 191.078125 347.917969 194.46875 349.320312 198 349.320312 C 201.53125 349.320312 204.921875 347.917969 207.417969 345.417969 C 209.917969 342.921875 211.320312 339.53125 211.320312 336 Z M 211.320312 336 "/>
<path style=" stroke:none;fill-rule:evenodd;fill:rgb(85.096741%,85.096741%,81.959534%);fill-opacity:0.7;" d="M 325.320312 222 C 325.320312 218.46875 323.917969 215.078125 321.417969 212.582031 C 318.921875 210.082031 315.53125 208.679688 312 208.679688 C 308.46875 208.679688 305.078125 210.082031 302.582031 212.582031 C 300.082031 215.078125 298.679688 218.46875 298.679688 222 C 298.679688 225.53125 300.082031 228.921875 302.582031 231.417969 C 305.078125 233.917969 308.46875 235.320312 312 235.320312 C 315.53125 235.320312 318.921875 233.917969 321.417969 231.417969 C 323.917969 228.921875 325.320312 225.53125 325.320312 222 Z M 325.320312 222 "/>
<path style="fill-rule:nonzero;fill:rgb(99.998474%,99.998474%,30.587769%);fill-opacity:0.8;stroke-width:0.288;stroke-linecap:square;stroke-linejoin:miter;stroke:rgb(0%,0%,0%);stroke-opacity:0.8;stroke-miterlimit:3.25;" d="M 356.351562 91.597656 L 327.515625 141.546875 L 385.191406 141.546875 Z M 356.351562 91.597656 " transform="matrix(1,0,0,1,-74,-13)"/>
</g>
</svg>
