<?xml version="1.0" encoding="UTF-8"?>
<svg xmlns="http://www.w3.org/2000/svg" xmlns:xlink="http://www.w3.org/1999/xlink" width="361pt" height="361pt" viewBox="0 0 361 361" version="1.1">
<defs>
<clipPath id="clip1">
  <path d="M 339 165 L 360 165 L 360 213 L 339 213 Z M 339 165 "/>
</clipPath>
<clipPath id="clip2">
  <path d="M 340 102 L 360 102 L 360 150 L 340 150 Z M 340 102 "/>
</clipPath>
<clipPath id="clip3">
  <path d="M 355 107 L 360 107 L 360 154 L 355 154 Z M 355 107 "/>
</clipPath>
<clipPath id="clip4">
  <path d="M 334 153 L 360 153 L 360 207 L 334 207 Z M 334 153 "/>
</clipPath>
<clipPath id="clip5">
  <path d="M 349 157 L 360 157 L 360 203 L 349 203 Z M 349 157 "/>
</clipPath>
<clipPath id="clip6">
  <path d="M 357 42 L 360 42 L 360 104 L 357 104 Z M 357 42 "/>
</clipPath>
<clipPath id="clip7">
  <path d="M 344 62 L 360 62 L 360 99 L 344 99 Z M 344 62 "/>
</clipPath>
<clipPath id="clip8">
  <path d="M 356 37 L 360 37 L 360 66 L 356 66 Z M 356 37 "/>
</clipPath>
<clipPath id="clip9">
  <path d="M 314 0 L 360 0 L 360 87 L 314 87 Z M 314 0 "/>
</clipPath>
<clipPath id="clip10">
  <path d="M 117 351 L 150 351 L 150 360 L 117 360 Z M 117 351 "/>
</clipPath>
<clipPath id="clip11">
  <path d="M 49 329 L 91 329 L 91 360 L 49 360 Z M 49 329 "/>
</clipPath>
<clipPath id="clip12">
  <path d="M 1 354 L 44 354 L 44 360 L 1 360 Z M 1 354 "/>
</clipPath>
<clipPath id="clip13">
  <path d="M 83 341 L 125 341 L 125 360 L 83 360 Z M 83 341 "/>
</clipPath>
<clipPath id="clip14">
  <path d="M 0 347 L 10 347 L 10 360 L 0 360 Z M 0 347 "/>
</clipPath>
<clipPath id="clip15">
  <path d="M 336 154 L 360 154 L 360 180 L 336 180 Z M 336 154 "/>
</clipPath>
</defs>
<g id="surface4858">
<path style="fill-rule:nonzero;fill:rgb(0%,0%,0%);fill-opacity:1;stroke-width:0.03;stroke-linecap:square;stroke-linejoin:miter;stroke:rgb(0%,0%,0%);stroke-opacity:1;stroke-miterlimit:10;" d="M 0 178 L 360 178 L 360 -182 L 0 -182 Z M 0 178 " transform="matrix(1,0,0,1,0,182)"/>
<path style=" stroke:none;fill-rule:nonzero;fill:rgb(39.99939%,39.99939%,39.99939%);fill-opacity:0.3;" d="M 25.875 6.175781 L 69.671875 21.09375 L 85.5 35.726562 L 85.589844 37.570312 L 84.996094 38.988281 L 21.644531 17.421875 Z M 25.875 6.175781 "/>
<path style=" stroke:none;fill-rule:nonzero;fill:rgb(39.99939%,39.99939%,39.99939%);fill-opacity:0.3;" d="M 21.050781 19.003906 L 83.828125 40.085938 L 84.574219 41.242188 L 84.375 42.402344 L 79.964844 51.085938 L 78.859375 51.6875 L 77.722656 51.671875 L 16.691406 30.589844 Z M 21.050781 19.003906 "/>
<path style=" stroke:none;fill-rule:nonzero;fill:rgb(39.99939%,39.99939%,39.99939%);fill-opacity:0.3;" d="M 56.886719 59.726562 L 11.433594 44.578125 L 16.046875 32.3125 L 71.898438 51.410156 L 72.574219 52.226562 L 72.359375 53.0625 L 69.441406 55.339844 L 58.628906 59.554688 Z M 56.886719 59.726562 "/>
<path style=" stroke:none;fill-rule:nonzero;fill:rgb(39.99939%,39.99939%,39.99939%);fill-opacity:0.3;" d="M 45.160156 -1.597656 L 65.480469 17.21875 L 26.636719 4.148438 L 30.703125 -6.664062 Z M 45.160156 -1.597656 "/>
<path style=" stroke:none;fill-rule:nonzero;fill:rgb(39.99939%,39.99939%,39.99939%);fill-opacity:0.3;" d="M 34.828125 68.507812 L 6.121094 58.703125 L 10.804688 46.25 L 54.820312 60.988281 L 52.59375 61.625 L 46.3125 64.136719 L 35.632812 68.21875 Z M 34.828125 68.507812 "/>
<path style=" stroke:none;fill-rule:nonzero;fill:rgb(39.99939%,39.99939%,39.99939%);fill-opacity:0.3;" d="M 29.210938 68.480469 L 29.519531 68.832031 L 29.585938 69.472656 L 29.351562 70.433594 L 29.316406 70.476562 L 13.765625 76.03125 L 1.230469 71.71875 L 5.496094 60.371094 Z M 29.210938 68.480469 "/>
<path style=" stroke:none;fill-rule:nonzero;fill:rgb(39.99939%,39.99939%,39.99939%);fill-opacity:0.3;" d="M -2.679688 82.074219 L -2.691406 82.050781 L 0.394531 73.953125 L 0.691406 73.667969 L 1.0625 73.527344 L 1.46875 73.550781 L 9.453125 76.449219 L 9.792969 76.769531 L 9.910156 77.054688 L 9.945312 77.417969 L -0.167969 81.097656 Z M -2.679688 82.074219 "/>
<path style=" stroke:none;fill-rule:nonzero;fill:rgb(39.99939%,39.99939%,39.99939%);fill-opacity:0.3;" d="M -47.710938 -18.945312 L 21.097656 4.546875 L 17.023438 15.84375 L -52.003906 -7.757812 Z M -47.710938 -18.945312 "/>
<path style=" stroke:none;fill-rule:nonzero;fill:rgb(39.99939%,39.99939%,39.99939%);fill-opacity:0.3;" d="M -52.625 -6.132812 L 16.449219 17.433594 L 12.253906 29.074219 L -57.046875 5.402344 Z M -52.625 -6.132812 "/>
<path style=" stroke:none;fill-rule:nonzero;fill:rgb(39.99939%,39.99939%,39.99939%);fill-opacity:0.3;" d="M -42.570312 -32.371094 L 25.765625 -8.394531 L 21.824219 2.53125 L -47.042969 -20.6875 Z M -42.570312 -32.371094 "/>
<path style=" stroke:none;fill-rule:nonzero;fill:rgb(39.99939%,39.99939%,39.99939%);fill-opacity:0.3;" d="M -11.558594 22.863281 L 11.628906 30.800781 L 7.183594 43.128906 L -15.980469 35.230469 Z M -11.558594 22.863281 "/>
<path style=" stroke:none;fill-rule:nonzero;fill:rgb(39.99939%,39.99939%,39.99939%);fill-opacity:0.3;" d="M -63.207031 21.496094 L 6.570312 44.832031 L 2.066406 57.320312 L -67.808594 33.53125 Z M -63.207031 21.496094 "/>
<path style=" stroke:none;fill-rule:nonzero;fill:rgb(39.99939%,39.99939%,39.99939%);fill-opacity:0.3;" d="M -68.613281 35.636719 L 1.453125 59.023438 L -2.636719 70.414062 L -72.789062 46.582031 Z M -68.613281 35.636719 "/>
<g clip-path="url(#clip1)" clip-rule="nonzero">
<path style=" stroke:none;fill-rule:nonzero;fill:rgb(39.99939%,39.99939%,39.99939%);fill-opacity:0.3;" d="M 368.816406 191.492188 L 378.734375 165.457031 L 401.277344 174.246094 L 405.765625 175.90625 L 406.027344 176.105469 L 406.144531 176.484375 L 405.832031 177.117188 L 404.917969 177.929688 L 355.167969 210.964844 L 352.859375 211.832031 L 350.332031 212.214844 L 346.214844 211.859375 L 340.875 210.148438 L 340.335938 209.832031 L 339.933594 209.242188 L 340.066406 208.675781 L 340.574219 208.382812 L 341.230469 208.332031 L 342.507812 208.046875 L 343.734375 207.605469 Z M 368.816406 191.492188 "/>
</g>
<path style=" stroke:none;fill-rule:nonzero;fill:rgb(39.99939%,39.99939%,39.99939%);fill-opacity:0.3;" d="M 226.429688 102.710938 L 214.125 134.351562 L 204.355469 125.082031 L 214.414062 98.5625 Z M 226.429688 102.710938 "/>
<path style=" stroke:none;fill-rule:nonzero;fill:rgb(39.99939%,39.99939%,39.99939%);fill-opacity:0.3;" d="M 280.75 76.359375 L 265.960938 115.773438 L 256.003906 112.300781 L 270.769531 72.949219 Z M 280.75 76.359375 "/>
<path style=" stroke:none;fill-rule:nonzero;fill:rgb(39.99939%,39.99939%,39.99939%);fill-opacity:0.3;" d="M 215.972656 54.21875 L 228.078125 58.359375 L 216.917969 87.859375 L 204.742188 83.988281 Z M 215.972656 54.21875 "/>
<path style=" stroke:none;fill-rule:nonzero;fill:rgb(39.99939%,39.99939%,39.99939%);fill-opacity:0.3;" d="M 281.960938 76.773438 L 295.683594 81.460938 L 279.679688 124.132812 L 265.914062 119.378906 Z M 281.960938 76.773438 "/>
<path style=" stroke:none;fill-rule:nonzero;fill:rgb(39.99939%,39.99939%,39.99939%);fill-opacity:0.3;" d="M 257.589844 68.445312 L 269.140625 72.394531 L 253.257812 114.800781 L 241.660156 111.09375 Z M 257.589844 68.445312 "/>
<path style=" stroke:none;fill-rule:nonzero;fill:rgb(39.99939%,39.99939%,39.99939%);fill-opacity:0.3;" d="M 229.234375 58.753906 L 241.355469 62.898438 L 227.222656 100.53125 L 201.929688 91.785156 L 203.691406 86.886719 L 216.964844 91.484375 Z M 229.234375 58.753906 "/>
<g clip-path="url(#clip2)" clip-rule="nonzero">
<path style=" stroke:none;fill-rule:nonzero;fill:rgb(39.99939%,39.99939%,39.99939%);fill-opacity:0.3;" d="M 356.820312 102.3125 L 370.496094 106.964844 L 354.085938 149.8125 L 340.519531 145.132812 Z M 356.820312 102.3125 "/>
</g>
<path style=" stroke:none;fill-rule:nonzero;fill:rgb(39.99939%,39.99939%,39.99939%);fill-opacity:0.3;" d="M 279.292969 130.078125 L 291.242188 134.203125 L 281.613281 159.402344 L 269.671875 155.269531 Z M 279.292969 130.078125 "/>
<path style=" stroke:none;fill-rule:nonzero;fill:rgb(39.99939%,39.99939%,39.99939%);fill-opacity:0.3;" d="M 310.910156 138.597656 L 324.683594 143.351562 L 299.925781 208.351562 L 294.550781 205.640625 L 292.148438 203.753906 L 290.152344 201.089844 L 288.921875 199.296875 L 288.5625 198.035156 L 288.699219 196.175781 Z M 310.910156 138.597656 "/>
<path style=" stroke:none;fill-rule:nonzero;fill:rgb(39.99939%,39.99939%,39.99939%);fill-opacity:0.3;" d="M 341.871094 101.484375 L 355.320312 102.535156 L 339.292969 144.710938 L 327.050781 140.484375 Z M 341.871094 101.484375 "/>
<path style=" stroke:none;fill-rule:nonzero;fill:rgb(39.99939%,39.99939%,39.99939%);fill-opacity:0.3;" d="M 339.277344 148.386719 L 352.84375 153.066406 L 329.027344 213.21875 L 326.214844 215.835938 L 315.167969 213.03125 Z M 339.277344 148.386719 "/>
<g clip-path="url(#clip3)" clip-rule="nonzero">
<path style=" stroke:none;fill-rule:nonzero;fill:rgb(39.99939%,39.99939%,39.99939%);fill-opacity:0.3;" d="M 371.628906 107.347656 L 382.152344 110.964844 L 365.765625 153.839844 L 355.191406 150.195312 Z M 371.628906 107.347656 "/>
</g>
<g clip-path="url(#clip4)" clip-rule="nonzero">
<path style=" stroke:none;fill-rule:nonzero;fill:rgb(39.99939%,39.99939%,39.99939%);fill-opacity:0.3;" d="M 353.949219 153.445312 L 364.523438 157.09375 L 346.519531 203.960938 L 343.097656 205.742188 L 341.433594 206.007812 L 334.660156 204.34375 Z M 353.949219 153.445312 "/>
</g>
<g clip-path="url(#clip5)" clip-rule="nonzero">
<path style=" stroke:none;fill-rule:nonzero;fill:rgb(39.99939%,39.99939%,39.99939%);fill-opacity:0.3;" d="M 366.386719 157.917969 L 377.667969 161.429688 L 367.289062 191.292969 L 349.421875 202.601562 Z M 366.386719 157.917969 "/>
</g>
<path style=" stroke:none;fill-rule:nonzero;fill:rgb(39.99939%,39.99939%,39.99939%);fill-opacity:0.3;" d="M 264.804688 122.78125 L 278.445312 127.492188 L 259.890625 176.066406 L 248.398438 165.4375 Z M 264.804688 122.78125 "/>
<path style=" stroke:none;fill-rule:nonzero;fill:rgb(39.99939%,39.99939%,39.99939%);fill-opacity:0.3;" d="M 292.929688 132.449219 L 307.117188 137.347656 L 287.394531 188.664062 L 285.90625 190.746094 L 283.714844 192.292969 L 281.167969 192.964844 L 278.796875 192.691406 L 276.917969 191.699219 L 272 187.152344 Z M 292.929688 132.449219 "/>
<path style=" stroke:none;fill-rule:nonzero;fill:rgb(39.99939%,39.99939%,39.99939%);fill-opacity:0.3;" d="M 314.6875 173.9375 L 326.945312 178.175781 L 313.347656 212.871094 L 306.644531 210.644531 L 301.425781 208.757812 Z M 314.6875 173.9375 "/>
<path style=" stroke:none;fill-rule:nonzero;fill:rgb(39.99939%,39.99939%,39.99939%);fill-opacity:0.3;" d="M 261.109375 177.195312 L 268.40625 158.050781 L 280.351562 162.179688 L 271.105469 186.4375 Z M 261.109375 177.195312 "/>
<path style=" stroke:none;fill-rule:nonzero;fill:rgb(39.99939%,39.99939%,39.99939%);fill-opacity:0.3;" d="M 201.144531 93.972656 L 213.195312 98.140625 L 203.46875 123.714844 L 195.46875 116.136719 L 195.1875 110.792969 L 195.34375 109.648438 Z M 201.144531 93.972656 "/>
<g clip-path="url(#clip6)" clip-rule="nonzero">
<path style=" stroke:none;fill-rule:nonzero;fill:rgb(39.99939%,39.99939%,39.99939%);fill-opacity:0.3;" d="M 379.261719 42.644531 L 392.890625 47.332031 L 371.636719 103.816406 L 357.945312 99.191406 Z M 379.261719 42.644531 "/>
</g>
<path style=" stroke:none;fill-rule:nonzero;fill:rgb(39.99939%,39.99939%,39.99939%);fill-opacity:0.3;" d="M 228.945312 19.589844 L 241.148438 23.726562 L 229.164062 55.488281 L 217.042969 51.371094 Z M 228.945312 19.589844 "/>
<path style=" stroke:none;fill-rule:nonzero;fill:rgb(39.99939%,39.99939%,39.99939%);fill-opacity:0.3;" d="M 238.246094 -5.6875 L 250.492188 -1.453125 L 241.671875 21.984375 L 229.464844 17.847656 Z M 238.246094 -5.6875 "/>
<g clip-path="url(#clip7)" clip-rule="nonzero">
<path style=" stroke:none;fill-rule:nonzero;fill:rgb(39.99939%,39.99939%,39.99939%);fill-opacity:0.3;" d="M 356.414062 62.710938 L 368.671875 66.851562 L 356.679688 98.761719 L 344.359375 94.589844 Z M 356.414062 62.710938 "/>
</g>
<path style=" stroke:none;fill-rule:nonzero;fill:rgb(39.99939%,39.99939%,39.99939%);fill-opacity:0.3;" d="M 310.28125 47.117188 L 322.425781 51.222656 L 311.257812 80.796875 L 310.382812 81.625 L 309.25 81.855469 L 307.789062 81.855469 L 306.339844 81.695312 L 298.269531 78.957031 Z M 310.28125 47.117188 "/>
<path style=" stroke:none;fill-rule:nonzero;fill:rgb(39.99939%,39.99939%,39.99939%);fill-opacity:0.3;" d="M 325.617188 -38.457031 L 339.152344 -33.835938 L 325.5625 2.277344 L 312.003906 -2.425781 Z M 325.617188 -38.457031 "/>
<path style=" stroke:none;fill-rule:nonzero;fill:rgb(39.99939%,39.99939%,39.99939%);fill-opacity:0.3;" d="M 283.871094 38.1875 L 293.929688 41.585938 L 281.878906 73.390625 L 271.882812 70 Z M 283.871094 38.1875 "/>
<path style=" stroke:none;fill-rule:nonzero;fill:rgb(39.99939%,39.99939%,39.99939%);fill-opacity:0.3;" d="M 318.746094 20.359375 L 296.820312 78.464844 L 283.089844 73.804688 L 305.144531 15.671875 Z M 318.746094 20.359375 "/>
<path style=" stroke:none;fill-rule:nonzero;fill:rgb(39.99939%,39.99939%,39.99939%);fill-opacity:0.3;" d="M 257.128906 29.136719 L 267.628906 32.691406 L 255.605469 64.472656 L 245.171875 60.929688 Z M 257.128906 29.136719 "/>
<path style=" stroke:none;fill-rule:nonzero;fill:rgb(39.99939%,39.99939%,39.99939%);fill-opacity:0.3;" d="M 251.480469 -0.507812 L 263.808594 3.746094 L 242.453125 60.003906 L 230.316406 55.882812 Z M 251.480469 -0.507812 "/>
<path style=" stroke:none;fill-rule:nonzero;fill:rgb(39.99939%,39.99939%,39.99939%);fill-opacity:0.3;" d="M 348.503906 -31.132812 L 349.644531 -30.167969 L 350.292969 -28.9375 L 350.84375 -27.617188 L 351.296875 -25.914062 L 351.304688 -23.84375 L 339.785156 6.71875 L 327.660156 2.515625 L 341.242188 -33.605469 Z M 348.503906 -31.132812 "/>
<g clip-path="url(#clip8)" clip-rule="nonzero">
<path style=" stroke:none;fill-rule:nonzero;fill:rgb(39.99939%,39.99939%,39.99939%);fill-opacity:0.3;" d="M 365.738281 37.992188 L 377.960938 42.195312 L 369.195312 65.464844 L 356.9375 61.324219 Z M 365.738281 37.992188 "/>
</g>
<path style=" stroke:none;fill-rule:nonzero;fill:rgb(39.99939%,39.99939%,39.99939%);fill-opacity:0.3;" d="M 319.6875 22.140625 L 331.816406 26.316406 L 323.125 49.503906 L 310.980469 45.398438 Z M 319.6875 22.140625 "/>
<path style=" stroke:none;fill-rule:nonzero;fill:rgb(39.99939%,39.99939%,39.99939%);fill-opacity:0.3;" d="M 293.84375 12.574219 L 303.925781 16.046875 L 294.972656 39.710938 L 284.910156 36.308594 Z M 293.84375 12.574219 "/>
<path style=" stroke:none;fill-rule:nonzero;fill:rgb(39.99939%,39.99939%,39.99939%);fill-opacity:0.3;" d="M 266.585938 4.757812 L 277.109375 8.386719 L 268.609375 30.867188 L 258.109375 27.3125 Z M 266.585938 4.757812 "/>
<path style=" stroke:none;fill-rule:nonzero;fill:rgb(39.99939%,39.99939%,39.99939%);fill-opacity:0.3;" d="M 270.253906 69.445312 L 258.691406 65.519531 L 280.628906 7.226562 L 292.207031 11.21875 Z M 270.253906 69.445312 "/>
<path style=" stroke:none;fill-rule:nonzero;fill:rgb(39.99939%,39.99939%,39.99939%);fill-opacity:0.3;" d="M 340.507812 101.597656 L 325.925781 140.097656 L 312.148438 135.34375 L 326.613281 96.914062 Z M 340.507812 101.597656 "/>
<path style=" stroke:none;fill-rule:nonzero;fill:rgb(39.99939%,39.99939%,39.99939%);fill-opacity:0.3;" d="M 243.910156 64.273438 L 254.285156 67.945312 L 245.351562 91.652344 L 234.867188 88.15625 Z M 243.910156 64.273438 "/>
<path style=" stroke:none;fill-rule:nonzero;fill:rgb(39.99939%,39.99939%,39.99939%);fill-opacity:0.3;" d="M 239.515625 118.25 L 250.878906 122.207031 L 237.949219 155.765625 L 228.445312 146.960938 Z M 239.515625 118.25 "/>
<path style=" stroke:none;fill-rule:nonzero;fill:rgb(39.99939%,39.99939%,39.99939%);fill-opacity:0.3;" d="M 252.414062 122.796875 L 262.175781 126.167969 L 247.441406 164.546875 L 239.324219 157.035156 Z M 252.414062 122.796875 "/>
<path style=" stroke:none;fill-rule:nonzero;fill:rgb(39.99939%,39.99939%,39.99939%);fill-opacity:0.3;" d="M 325.355469 145.988281 L 337.601562 150.214844 L 327.839844 175.84375 L 315.582031 171.605469 Z M 325.355469 145.988281 "/>
<path style=" stroke:none;fill-rule:nonzero;fill:rgb(39.99939%,39.99939%,39.99939%);fill-opacity:0.3;" d="M 308.609375 90.777344 L 323.105469 95.71875 L 308.523438 134.089844 L 294.191406 129.144531 Z M 308.609375 90.777344 "/>
<path style=" stroke:none;fill-rule:nonzero;fill:rgb(39.99939%,39.99939%,39.99939%);fill-opacity:0.3;" d="M 297.132812 81.957031 L 307.578125 90.460938 L 293.207031 128.804688 L 281.140625 124.636719 Z M 297.132812 81.957031 "/>
<g clip-path="url(#clip9)" clip-rule="nonzero">
<path style=" stroke:none;fill-rule:nonzero;fill:rgb(39.99939%,39.99939%,39.99939%);fill-opacity:0.3;" d="M 314.832031 76.535156 L 333.953125 27.050781 L 334.449219 25.765625 L 352.71875 -21.511719 L 381.414062 -11.734375 L 345.152344 86.828125 Z M 314.832031 76.535156 "/>
</g>
<path style=" stroke:none;fill-rule:nonzero;fill:rgb(39.99939%,39.99939%,39.99939%);fill-opacity:0.3;" d="M 326.605469 244.222656 L 326.667969 244.304688 L 325.199219 245.351562 L 322.410156 248.136719 L 322.074219 247.429688 Z M 326.605469 244.222656 "/>
<path style=" stroke:none;fill-rule:nonzero;fill:rgb(39.99939%,39.99939%,39.99939%);fill-opacity:0.3;" d="M 214.125 134.351562 L 213.933594 134.839844 L 204.324219 125.164062 L 204.355469 125.082031 Z M 214.125 134.351562 "/>
<path style=" stroke:none;fill-rule:nonzero;fill:rgb(39.99939%,39.99939%,39.99939%);fill-opacity:0.3;" d="M 136.285156 283.863281 L 147.753906 287.566406 L 147.414062 288.472656 Z M 136.285156 283.863281 "/>
<path style=" stroke:none;fill-rule:nonzero;fill:rgb(39.99939%,39.99939%,39.99939%);fill-opacity:0.3;" d="M 181.378906 298.765625 L 181.316406 298.945312 L 151.269531 289.789062 L 151.671875 288.769531 Z M 181.378906 298.765625 "/>
<path style=" stroke:none;fill-rule:nonzero;fill:rgb(39.99939%,39.99939%,39.99939%);fill-opacity:0.3;" d="M 184.886719 300.039062 L 184.976562 299.796875 L 190.636719 301.800781 Z M 184.886719 300.039062 "/>
<path style=" stroke:none;fill-rule:nonzero;fill:rgb(39.99939%,39.99939%,39.99939%);fill-opacity:0.3;" d="M 85.992188 260.703125 L 91.277344 246.234375 L 121.441406 256.777344 L 116.148438 271.132812 L 113.097656 272.125 L 86.574219 262.347656 Z M 85.992188 260.703125 "/>
<path style=" stroke:none;fill-rule:nonzero;fill:rgb(39.99939%,39.99939%,39.99939%);fill-opacity:0.3;" d="M 188.777344 279.367188 L 183.21875 295.304688 L 152.527344 285.269531 L 158.953125 268.890625 Z M 188.777344 279.367188 "/>
<path style=" stroke:none;fill-rule:nonzero;fill:rgb(39.99939%,39.99939%,39.99939%);fill-opacity:0.3;" d="M 209.398438 286.140625 L 221.820312 290.363281 L 216.316406 307.03125 L 203.675781 302.804688 L 185.882812 296.855469 L 192.203125 280.292969 Z M 209.398438 286.140625 "/>
<path style=" stroke:none;fill-rule:nonzero;fill:rgb(39.99939%,39.99939%,39.99939%);fill-opacity:0.3;" d="M 139.683594 262.351562 L 119.621094 271.867188 L 124.886719 257.613281 Z M 139.683594 262.351562 "/>
<path style=" stroke:none;fill-rule:nonzero;fill:rgb(39.99939%,39.99939%,39.99939%);fill-opacity:0.3;" d="M 220.863281 307.128906 L 226.4375 291.9375 L 239.671875 296.40625 L 228.960938 304.382812 L 226.351562 306.371094 L 224.285156 307.769531 L 223.699219 308.195312 L 222.84375 308.554688 L 221.933594 308.570312 L 221.121094 308.152344 Z M 220.863281 307.128906 "/>
<path style=" stroke:none;fill-rule:nonzero;fill:rgb(39.99939%,39.99939%,39.99939%);fill-opacity:0.3;" d="M 142.351562 99.960938 L 112.617188 89.835938 L 117.410156 76.785156 L 140.921875 85.6875 L 146.261719 89.65625 Z M 142.351562 99.960938 "/>
<path style=" stroke:none;fill-rule:nonzero;fill:rgb(39.99939%,39.99939%,39.99939%);fill-opacity:0.3;" d="M 148.667969 91.492188 L 159.613281 99.695312 L 172.65625 110.914062 L 153.640625 104.496094 L 145.421875 101.148438 Z M 148.667969 91.492188 "/>
<path style=" stroke:none;fill-rule:nonzero;fill:rgb(39.99939%,39.99939%,39.99939%);fill-opacity:0.3;" d="M 89.890625 139.65625 L 90.347656 139.753906 L 85.339844 152.296875 Z M 89.890625 139.65625 "/>
<path style=" stroke:none;fill-rule:nonzero;fill:rgb(39.99939%,39.99939%,39.99939%);fill-opacity:0.3;" d="M 94.667969 226.589844 L 78.53125 221.757812 L 64.074219 216.875 L 68.917969 203.703125 L 83.710938 207.976562 L 99.238281 213.90625 Z M 94.667969 226.589844 "/>
<path style=" stroke:none;fill-rule:nonzero;fill:rgb(39.99939%,39.99939%,39.99939%);fill-opacity:0.3;" d="M 105.097656 198.214844 L 100.25 211.265625 L 84.949219 205.878906 L 69.984375 201.398438 L 74.625 188.136719 L 90.390625 192.410156 Z M 105.097656 198.214844 "/>
<path style=" stroke:none;fill-rule:nonzero;fill:rgb(39.99939%,39.99939%,39.99939%);fill-opacity:0.3;" d="M 106.390625 195.585938 L 91.011719 190.132812 L 75.953125 185.652344 L 80.933594 171.789062 L 95.515625 176.648438 L 111.296875 182.09375 Z M 106.390625 195.585938 "/>
<path style=" stroke:none;fill-rule:nonzero;fill:rgb(39.99939%,39.99939%,39.99939%);fill-opacity:0.3;" d="M 82.078125 260.4375 L 51.429688 250.617188 L 56.859375 234.554688 L 88.285156 244.785156 Z M 82.078125 260.4375 "/>
<path style=" stroke:none;fill-rule:nonzero;fill:rgb(39.99939%,39.99939%,39.99939%);fill-opacity:0.3;" d="M 88.714844 242.695312 L 58.394531 232.628906 L 63.347656 218.800781 L 93.96875 228.863281 Z M 88.714844 242.695312 "/>
<path style=" stroke:none;fill-rule:nonzero;fill:rgb(39.99939%,39.99939%,39.99939%);fill-opacity:0.3;" d="M 289.277344 257.53125 L 295.046875 243.929688 L 308.570312 248 L 293.480469 259.003906 Z M 289.277344 257.53125 "/>
<path style=" stroke:none;fill-rule:nonzero;fill:rgb(39.99939%,39.99939%,39.99939%);fill-opacity:0.3;" d="M 270.609375 274.917969 L 278.777344 255.902344 L 291.441406 260.398438 Z M 270.609375 274.917969 "/>
<path style=" stroke:none;fill-rule:nonzero;fill:rgb(39.99939%,39.99939%,39.99939%);fill-opacity:0.3;" d="M 156.117188 265.386719 L 125.664062 255.101562 L 130.707031 241.527344 L 161.160156 252.007812 Z M 156.117188 265.386719 "/>
<path style=" stroke:none;fill-rule:nonzero;fill:rgb(39.99939%,39.99939%,39.99939%);fill-opacity:0.3;" d="M 223.558594 287.90625 L 193.210938 278.011719 L 198.3125 264.523438 L 228.332031 274.472656 Z M 223.558594 287.90625 "/>
<path style=" stroke:none;fill-rule:nonzero;fill:rgb(39.99939%,39.99939%,39.99939%);fill-opacity:0.3;" d="M 200.660156 248.175781 L 196.15625 260.894531 L 165.613281 250.894531 L 170.386719 238.40625 Z M 200.660156 248.175781 "/>
<path style=" stroke:none;fill-rule:nonzero;fill:rgb(39.99939%,39.99939%,39.99939%);fill-opacity:0.3;" d="M 234.402344 259.46875 L 229.703125 271.757812 L 199.578125 261.925781 L 204.023438 249.273438 Z M 234.402344 259.46875 "/>
<path style=" stroke:none;fill-rule:nonzero;fill:rgb(39.99939%,39.99939%,39.99939%);fill-opacity:0.3;" d="M 97.894531 227.472656 L 102.773438 214.730469 L 133.507812 225.109375 L 128.757812 238.085938 Z M 97.894531 227.472656 "/>
<path style=" stroke:none;fill-rule:nonzero;fill:rgb(39.99939%,39.99939%,39.99939%);fill-opacity:0.3;" d="M 162.074219 249.488281 L 131.578125 238.957031 L 136.621094 226.652344 L 167.003906 236.78125 Z M 162.074219 249.488281 "/>
<path style=" stroke:none;fill-rule:nonzero;fill:rgb(39.99939%,39.99939%,39.99939%);fill-opacity:0.3;" d="M 259.917969 282.042969 L 233.625 273.210938 L 238.246094 260.839844 L 268.203125 270.953125 L 265.460938 277.96875 Z M 259.917969 282.042969 "/>
<path style=" stroke:none;fill-rule:nonzero;fill:rgb(39.99939%,39.99939%,39.99939%);fill-opacity:0.3;" d="M 240.34375 243.925781 L 235.394531 257.152344 L 205.578125 246.855469 L 210.207031 233.835938 Z M 240.34375 243.925781 "/>
<path style=" stroke:none;fill-rule:nonzero;fill:rgb(39.99939%,39.99939%,39.99939%);fill-opacity:0.3;" d="M 212.894531 216.226562 L 207.875 229.808594 L 177.398438 219.671875 L 182.464844 205.992188 Z M 212.894531 216.226562 "/>
<path style=" stroke:none;fill-rule:nonzero;fill:rgb(39.99939%,39.99939%,39.99939%);fill-opacity:0.3;" d="M 241.351562 241 L 211.503906 231 L 216.472656 217.488281 L 246.289062 227.703125 Z M 241.351562 241 "/>
<path style=" stroke:none;fill-rule:nonzero;fill:rgb(39.99939%,39.99939%,39.99939%);fill-opacity:0.3;" d="M 275.695312 252.722656 L 244.546875 242.332031 L 249.226562 228.855469 L 280.773438 239.445312 Z M 275.695312 252.722656 "/>
<path style=" stroke:none;fill-rule:nonzero;fill:rgb(39.99939%,39.99939%,39.99939%);fill-opacity:0.3;" d="M 185.699219 188.773438 L 180.5 202.308594 L 149.863281 191.859375 L 154.917969 178.414062 Z M 185.699219 188.773438 "/>
<path style=" stroke:none;fill-rule:nonzero;fill:rgb(39.99939%,39.99939%,39.99939%);fill-opacity:0.3;" d="M 252.546875 211.570312 L 247.507812 224.863281 L 217.523438 214.363281 L 222.308594 201.449219 Z M 252.546875 211.570312 "/>
<path style=" stroke:none;fill-rule:nonzero;fill:rgb(39.99939%,39.99939%,39.99939%);fill-opacity:0.3;" d="M 286.542969 222.863281 L 281.488281 236.097656 L 251.363281 226.015625 L 256.234375 212.667969 Z M 286.542969 222.863281 "/>
<path style=" stroke:none;fill-rule:nonzero;fill:rgb(39.99939%,39.99939%,39.99939%);fill-opacity:0.3;" d="M 145.875 190.78125 L 115.070312 180.296875 L 120.550781 167.117188 L 150.996094 177.351562 Z M 145.875 190.78125 "/>
<path style=" stroke:none;fill-rule:nonzero;fill:rgb(39.99939%,39.99939%,39.99939%);fill-opacity:0.3;" d="M 213.683594 213.523438 L 183.460938 203.355469 L 188.25 189.738281 L 219.300781 199.886719 Z M 213.683594 213.523438 "/>
<path style=" stroke:none;fill-rule:nonzero;fill:rgb(39.99939%,39.99939%,39.99939%);fill-opacity:0.3;" d="M 287.503906 220.894531 L 257.101562 210.347656 L 262.234375 195.375 L 287.976562 219.011719 Z M 287.503906 220.894531 "/>
<path style=" stroke:none;fill-rule:nonzero;fill:rgb(39.99939%,39.99939%,39.99939%);fill-opacity:0.3;" d="M 152.070312 175.074219 L 121.628906 164.75 L 126.628906 151.179688 L 157.28125 161.402344 Z M 152.070312 175.074219 "/>
<path style=" stroke:none;fill-rule:nonzero;fill:rgb(39.99939%,39.99939%,39.99939%);fill-opacity:0.3;" d="M 219.777344 197.832031 L 189.261719 187.5 L 194.511719 173.636719 L 225.097656 183.824219 Z M 219.777344 197.832031 "/>
<path style=" stroke:none;fill-rule:nonzero;fill:rgb(39.99939%,39.99939%,39.99939%);fill-opacity:0.3;" d="M 252.878906 208.894531 L 223.222656 198.882812 L 228.382812 185.273438 L 257.902344 195.265625 Z M 252.878906 208.894531 "/>
<path style=" stroke:none;fill-rule:nonzero;fill:rgb(39.99939%,39.99939%,39.99939%);fill-opacity:0.3;" d="M 192.078125 170.132812 L 161.691406 159.753906 L 166.550781 146.625 L 197.050781 156.996094 Z M 192.078125 170.132812 "/>
<path style=" stroke:none;fill-rule:nonzero;fill:rgb(39.99939%,39.99939%,39.99939%);fill-opacity:0.3;" d="M 195.316406 171.410156 L 200.386719 158 L 230.242188 168.191406 L 225.199219 181.464844 Z M 195.316406 171.410156 "/>
<path style=" stroke:none;fill-rule:nonzero;fill:rgb(39.99939%,39.99939%,39.99939%);fill-opacity:0.3;" d="M 233.851562 169.386719 L 235.578125 169.84375 L 259.0625 192.167969 L 258.523438 193.546875 L 229.148438 183.199219 Z M 233.851562 169.386719 "/>
<path style=" stroke:none;fill-rule:nonzero;fill:rgb(39.99939%,39.99939%,39.99939%);fill-opacity:0.3;" d="M 127.03125 148.128906 L 132.089844 134.386719 L 162.835938 144.875 L 157.675781 158.433594 Z M 127.03125 148.128906 "/>
<path style=" stroke:none;fill-rule:nonzero;fill:rgb(39.99939%,39.99939%,39.99939%);fill-opacity:0.3;" d="M 169.175781 129.6875 L 164.1875 142.800781 L 133.480469 132.140625 L 138.609375 119.429688 Z M 169.175781 129.6875 "/>
<path style=" stroke:none;fill-rule:nonzero;fill:rgb(39.99939%,39.99939%,39.99939%);fill-opacity:0.3;" d="M 197.472656 154.308594 L 167.589844 144.234375 L 172.652344 130.726562 L 201.953125 141.132812 Z M 197.472656 154.308594 "/>
<path style=" stroke:none;fill-rule:nonzero;fill:rgb(39.99939%,39.99939%,39.99939%);fill-opacity:0.3;" d="M 201.277344 155.824219 L 206.226562 142.90625 L 229.476562 164.578125 L 228.09375 166.117188 L 216.503906 161.117188 Z M 201.277344 155.824219 "/>
<path style=" stroke:none;fill-rule:nonzero;fill:rgb(39.99939%,39.99939%,39.99939%);fill-opacity:0.3;" d="M 201.753906 138.332031 L 173.347656 128.261719 L 177.65625 115.65625 Z M 201.753906 138.332031 "/>
<path style=" stroke:none;fill-rule:nonzero;fill:rgb(39.99939%,39.99939%,39.99939%);fill-opacity:0.3;" d="M 170.78125 127.375 L 139.726562 115.980469 L 144.890625 103.0625 L 174.601562 113.457031 L 174.460938 116.375 Z M 170.78125 127.375 "/>
<path style=" stroke:none;fill-rule:nonzero;fill:rgb(39.99939%,39.99939%,39.99939%);fill-opacity:0.3;" d="M 134.085938 222.609375 L 103.351562 212.601562 L 108.246094 199.398438 L 139.113281 209.488281 Z M 134.085938 222.609375 "/>
<path style=" stroke:none;fill-rule:nonzero;fill:rgb(39.99939%,39.99939%,39.99939%);fill-opacity:0.3;" d="M 167.78125 234.734375 L 137.558594 224.4375 L 142.519531 210.863281 L 172.925781 220.921875 Z M 167.78125 234.734375 "/>
<path style=" stroke:none;fill-rule:nonzero;fill:rgb(39.99939%,39.99939%,39.99939%);fill-opacity:0.3;" d="M 201.890625 245.546875 L 171.472656 235.449219 L 176.453125 222.035156 L 207.105469 232.175781 Z M 201.890625 245.546875 "/>
<path style=" stroke:none;fill-rule:nonzero;fill:rgb(39.99939%,39.99939%,39.99939%);fill-opacity:0.3;" d="M 268.855469 267.921875 L 239.46875 258.097656 L 243.996094 244.929688 L 273.820312 254.964844 Z M 268.855469 267.921875 "/>
<path style=" stroke:none;fill-rule:nonzero;fill:rgb(39.99939%,39.99939%,39.99939%);fill-opacity:0.3;" d="M 98.328125 117.683594 L 97.527344 120.199219 L 97.367188 120.164062 Z M 98.328125 117.683594 "/>
<path style=" stroke:none;fill-rule:nonzero;fill:rgb(39.99939%,39.99939%,39.99939%);fill-opacity:0.3;" d="M 154.925781 268.105469 L 153.355469 277.433594 L 148.144531 283.105469 L 125.03125 275.425781 L 132.496094 272.234375 L 139.242188 269.300781 L 146.457031 265.003906 Z M 154.925781 268.105469 "/>
<path style=" stroke:none;fill-rule:nonzero;fill:rgb(39.99939%,39.99939%,39.99939%);fill-opacity:0.3;" d="M 112.351562 179.4375 L 81.742188 169 L 86.648438 155.941406 L 102.023438 160.363281 L 117.542969 165.871094 Z M 112.351562 179.4375 "/>
<path style=" stroke:none;fill-rule:nonzero;fill:rgb(39.99939%,39.99939%,39.99939%);fill-opacity:0.3;" d="M 123.632812 149.832031 L 118.683594 163.480469 L 88.039062 153.839844 L 93.148438 140.101562 Z M 123.632812 149.832031 "/>
<path style=" stroke:none;fill-rule:nonzero;fill:rgb(39.99939%,39.99939%,39.99939%);fill-opacity:0.3;" d="M 100.4375 121.4375 L 104.796875 108.074219 L 135.472656 118.425781 L 130.539062 131.597656 Z M 100.4375 121.4375 "/>
<path style=" stroke:none;fill-rule:nonzero;fill:rgb(39.99939%,39.99939%,39.99939%);fill-opacity:0.3;" d="M 106.105469 105.457031 L 111.097656 92.070312 L 141.578125 102.339844 L 136.476562 115.527344 Z M 106.105469 105.457031 "/>
<path style=" stroke:none;fill-rule:nonzero;fill:rgb(39.99939%,39.99939%,39.99939%);fill-opacity:0.3;" d="M 99.421875 123.988281 L 129.484375 134.117188 L 124.3125 147.894531 L 94.867188 137.382812 Z M 99.421875 123.988281 "/>
<path style=" stroke:none;fill-rule:nonzero;fill:rgb(39.99939%,39.99939%,39.99939%);fill-opacity:0.3;" d="M 149.367188 90.089844 L 141.355469 83.742188 L 136.953125 81.859375 L 126.652344 77.707031 L 120.121094 74.582031 L 115.347656 73.359375 L 115.9375 70.015625 L 128.972656 75.820312 L 136.859375 79.421875 L 141.648438 82.304688 L 160.746094 97.972656 Z M 149.367188 90.089844 "/>
<path style=" stroke:none;fill-rule:nonzero;fill:rgb(39.99939%,39.99939%,39.99939%);fill-opacity:0.3;" d="M 108.710938 63.929688 L 113.398438 64.542969 L 127.414062 69.589844 L 136.882812 75.59375 L 142.105469 79.140625 L 149.011719 84.886719 L 161.097656 96.894531 L 148.566406 85.5625 L 143.648438 81.707031 L 134.796875 76.792969 L 126.886719 73.105469 L 117.863281 69.515625 L 112.160156 66.542969 L 111.929688 66.835938 L 111.636719 66.648438 Z M 108.710938 63.929688 "/>
<path style=" stroke:none;fill-rule:nonzero;fill:rgb(39.99939%,39.99939%,39.99939%);fill-opacity:0.3;" d="M 306.882812 244.867188 L 285.152344 237.492188 L 289.882812 224.234375 L 294.613281 225.667969 L 300.675781 233.289062 Z M 306.882812 244.867188 "/>
<path style=" stroke:none;fill-rule:nonzero;fill:rgb(39.99939%,39.99939%,39.99939%);fill-opacity:0.3;" d="M 287.566406 256.980469 L 278.820312 253.914062 L 284.320312 240.25 L 293.402344 243.324219 Z M 287.566406 256.980469 "/>
<path style=" stroke:none;fill-rule:nonzero;fill:rgb(39.99939%,39.99939%,39.99939%);fill-opacity:0.3;" d="M 257.539062 283.75 L 244.085938 294.339844 L 227.785156 288.949219 L 232.621094 275.472656 Z M 257.539062 283.75 "/>
<path style=" stroke:none;fill-rule:nonzero;fill:rgb(39.99939%,39.99939%,39.99939%);fill-opacity:0.3;" d="M 139.871094 206.636719 L 109.800781 196.359375 L 114.640625 183.257812 L 144.90625 193.457031 Z M 139.871094 206.636719 "/>
<path style=" stroke:none;fill-rule:nonzero;fill:rgb(39.99939%,39.99939%,39.99939%);fill-opacity:0.3;" d="M 155.519531 176.285156 L 160.78125 162.355469 L 191.503906 173.054688 L 186.03125 186.824219 Z M 155.519531 176.285156 "/>
<path style=" stroke:none;fill-rule:nonzero;fill:rgb(39.99939%,39.99939%,39.99939%);fill-opacity:0.3;" d="M 194.835938 263.5 L 189.792969 277.308594 L 159.144531 266.667969 L 164.195312 253.144531 Z M 194.835938 263.5 "/>
<path style=" stroke:none;fill-rule:nonzero;fill:rgb(39.99939%,39.99939%,39.99939%);fill-opacity:0.3;" d="M 122.199219 254.507812 L 91.6875 244.128906 L 97.117188 230.046875 L 127.539062 240.722656 Z M 122.199219 254.507812 "/>
<path style=" stroke:none;fill-rule:nonzero;fill:rgb(39.99939%,39.99939%,39.99939%);fill-opacity:0.3;" d="M 168.234375 201.398438 L 179.125 205.171875 L 173.824219 218.648438 L 163.425781 215.023438 L 143.519531 208.089844 L 148.703125 194.628906 Z M 168.234375 201.398438 "/>
<path style=" stroke:none;fill-rule:nonzero;fill:rgb(39.99939%,39.99939%,39.99939%);fill-opacity:0.3;" d="M 54.828125 60.992188 L 34.949219 68.550781 L 34.828125 68.507812 L 35.632812 68.21875 L 46.3125 64.136719 L 52.59375 61.625 L 54.820312 60.988281 Z M 54.828125 60.992188 "/>
<path style=" stroke:none;fill-rule:nonzero;fill:rgb(39.99939%,39.99939%,39.99939%);fill-opacity:0.3;" d="M 29.316406 70.476562 L 28.914062 70.945312 L 14.582031 76.3125 L 13.765625 76.03125 Z M 29.316406 70.476562 "/>
<path style=" stroke:none;fill-rule:nonzero;fill:rgb(39.99939%,39.99939%,39.99939%);fill-opacity:0.3;" d="M 9.605469 78.054688 L -0.152344 81.726562 L -0.167969 81.097656 L 9.945312 77.417969 L 9.949219 77.484375 L 9.878906 77.839844 Z M 9.605469 78.054688 "/>
<path style=" stroke:none;fill-rule:nonzero;fill:rgb(39.99939%,39.99939%,39.99939%);fill-opacity:0.3;" d="M -32.976562 161.515625 L -27.496094 147.742188 L 3.992188 154.5625 L -0.800781 168.507812 Z M -32.976562 161.515625 "/>
<path style=" stroke:none;fill-rule:nonzero;fill:rgb(39.99939%,39.99939%,39.99939%);fill-opacity:0.3;" d="M -5.261719 98.609375 L 16.238281 89.792969 L 27.472656 92.121094 L 23.390625 104.308594 Z M -5.261719 98.609375 "/>
<path style=" stroke:none;fill-rule:nonzero;fill:rgb(39.99939%,39.99939%,39.99939%);fill-opacity:0.3;" d="M 74.746094 68.558594 L 71.492188 79.003906 L 55.875 75.113281 Z M 74.746094 68.558594 "/>
<path style=" stroke:none;fill-rule:nonzero;fill:rgb(39.99939%,39.99939%,39.99939%);fill-opacity:0.3;" d="M 77.050781 80.621094 L 81.363281 68.550781 L 113.589844 75.757812 L 108.636719 88.273438 Z M 77.050781 80.621094 "/>
<path style=" stroke:none;fill-rule:nonzero;fill:rgb(39.99939%,39.99939%,39.99939%);fill-opacity:0.3;" d="M 70.535156 83.089844 L 65.875 96.664062 L 29.011719 88.429688 L 25.460938 86.195312 L 47.214844 77.515625 Z M 70.535156 83.089844 "/>
<path style=" stroke:none;fill-rule:nonzero;fill:rgb(39.99939%,39.99939%,39.99939%);fill-opacity:0.3;" d="M 14.34375 136.847656 L 18.84375 124.671875 L 51.636719 131.464844 L 47.300781 144.003906 Z M 14.34375 136.847656 "/>
<path style=" stroke:none;fill-rule:nonzero;fill:rgb(39.99939%,39.99939%,39.99939%);fill-opacity:0.3;" d="M 52.503906 145.703125 L 57.710938 132.671875 L 89.890625 139.65625 L 85.339844 152.296875 L 85.175781 152.710938 Z M 52.503906 145.703125 "/>
<path style=" stroke:none;fill-rule:nonzero;fill:rgb(39.99939%,39.99939%,39.99939%);fill-opacity:0.3;" d="M 8.386719 152.207031 L 12.914062 140.15625 L 45.273438 147.105469 L 40.617188 159.425781 Z M 8.386719 152.207031 "/>
<path style=" stroke:none;fill-rule:nonzero;fill:rgb(39.99939%,39.99939%,39.99939%);fill-opacity:0.3;" d="M 46.683594 160.960938 L 51.050781 148.417969 L 84.078125 155.53125 L 79.246094 168.390625 Z M 46.683594 160.960938 "/>
<path style=" stroke:none;fill-rule:nonzero;fill:rgb(39.99939%,39.99939%,39.99939%);fill-opacity:0.3;" d="M 2.976562 168.574219 L 6.632812 156.46875 L 39.347656 163.789062 L 34.644531 176.386719 Z M 2.976562 168.574219 "/>
<path style=" stroke:none;fill-rule:nonzero;fill:rgb(39.99939%,39.99939%,39.99939%);fill-opacity:0.3;" d="M 40.023438 176.929688 L 44.785156 164.558594 L 77.503906 170.972656 L 72.511719 184.199219 Z M 40.023438 176.929688 "/>
<path style=" stroke:none;fill-rule:nonzero;fill:rgb(39.99939%,39.99939%,39.99939%);fill-opacity:0.3;" d="M -3.390625 184.835938 L 1.253906 171.824219 L 32.796875 179.195312 L 28.074219 192.285156 Z M -3.390625 184.835938 "/>
<path style=" stroke:none;fill-rule:nonzero;fill:rgb(39.99939%,39.99939%,39.99939%);fill-opacity:0.3;" d="M 34.929688 193.007812 L 38.839844 180.453125 L 71.355469 187.210938 L 66.667969 200.066406 Z M 34.929688 193.007812 "/>
<path style=" stroke:none;fill-rule:nonzero;fill:rgb(39.99939%,39.99939%,39.99939%);fill-opacity:0.3;" d="M -9.398438 200.980469 L -4.457031 187.003906 L 27.339844 193.960938 L 22.003906 207.894531 Z M -9.398438 200.980469 "/>
<path style=" stroke:none;fill-rule:nonzero;fill:rgb(39.99939%,39.99939%,39.99939%);fill-opacity:0.3;" d="M 28.226562 208.824219 L 33.300781 195.609375 L 65.609375 203.105469 L 60.425781 216.507812 Z M 28.226562 208.824219 "/>
<path style=" stroke:none;fill-rule:nonzero;fill:rgb(39.99939%,39.99939%,39.99939%);fill-opacity:0.3;" d="M -15.675781 216.699219 L -11.039062 203.964844 L 20.175781 211.351562 L 15.675781 223.523438 Z M -15.675781 216.699219 "/>
<path style=" stroke:none;fill-rule:nonzero;fill:rgb(39.99939%,39.99939%,39.99939%);fill-opacity:0.3;" d="M 22.328125 225.269531 L 26.492188 212.511719 L 58.292969 220.347656 L 54.671875 232.382812 Z M 22.328125 225.269531 "/>
<path style=" stroke:none;fill-rule:nonzero;fill:rgb(39.99939%,39.99939%,39.99939%);fill-opacity:0.3;" d="M -20.824219 232.894531 L -16.886719 220.996094 L 14.710938 227.863281 L 10.371094 239.625 Z M -20.824219 232.894531 "/>
<path style=" stroke:none;fill-rule:nonzero;fill:rgb(39.99939%,39.99939%,39.99939%);fill-opacity:0.3;" d="M 11.027344 136.425781 L -20.480469 129.320312 L -16.023438 116.855469 L 15.253906 123.761719 Z M 11.027344 136.425781 "/>
<path style=" stroke:none;fill-rule:nonzero;fill:rgb(39.99939%,39.99939%,39.99939%);fill-opacity:0.3;" d="M -26.199219 145.535156 L -21.917969 132.53125 L 10.085938 138.949219 L 5.25 152.6875 Z M -26.199219 145.535156 "/>
<path style=" stroke:none;fill-rule:nonzero;fill:rgb(39.99939%,39.99939%,39.99939%);fill-opacity:0.3;" d="M 16.484375 240.945312 L 20.878906 228.875 L 52.8125 235.773438 L 48.613281 248.476562 Z M 16.484375 240.945312 "/>
<path style=" stroke:none;fill-rule:nonzero;fill:rgb(39.99939%,39.99939%,39.99939%);fill-opacity:0.3;" d="M 75.472656 84.324219 L 107.09375 91.898438 L 102.753906 104.824219 L 70.707031 98.203125 Z M 75.472656 84.324219 "/>
<path style=" stroke:none;fill-rule:nonzero;fill:rgb(39.99939%,39.99939%,39.99939%);fill-opacity:0.3;" d="M 26.609375 104.617188 L 31.003906 92.09375 L 62.863281 99.191406 L 58.332031 111.203125 Z M 26.609375 104.617188 "/>
<path style=" stroke:none;fill-rule:nonzero;fill:rgb(39.99939%,39.99939%,39.99939%);fill-opacity:0.3;" d="M 65.484375 113.136719 L 69.433594 101.054688 L 101.476562 107.800781 L 98.328125 117.683594 L 97.367188 120.164062 Z M 65.484375 113.136719 "/>
<path style=" stroke:none;fill-rule:nonzero;fill:rgb(39.99939%,39.99939%,39.99939%);fill-opacity:0.3;" d="M -13.96875 112.90625 L -9.671875 100.746094 L 21.292969 107.613281 L 16.574219 120.324219 Z M -13.96875 112.90625 "/>
<path style=" stroke:none;fill-rule:nonzero;fill:rgb(39.99939%,39.99939%,39.99939%);fill-opacity:0.3;" d="M 52.941406 128.910156 L 20.808594 121.324219 L 25.71875 108.117188 L 57.304688 115.273438 Z M 52.941406 128.910156 "/>
<path style=" stroke:none;fill-rule:nonzero;fill:rgb(39.99939%,39.99939%,39.99939%);fill-opacity:0.3;" d="M 59.253906 129.179688 L 64.34375 116.070312 L 95.34375 123.230469 L 90.859375 136.105469 Z M 59.253906 129.179688 "/>
<path style=" stroke:none;fill-rule:nonzero;fill:rgb(39.99939%,39.99939%,39.99939%);fill-opacity:0.3;" d="M 115.347656 73.359375 L 114.214844 73.070312 L 99.589844 69.875 L 88.050781 67.023438 L 75.042969 65.429688 L 87.976562 63.199219 L 100.910156 62.914062 L 108.710938 63.929688 L 111.636719 66.648438 L 111.929688 66.835938 L 111.113281 67.867188 L 115.9375 70.015625 Z M 115.347656 73.359375 "/>
<path style=" stroke:none;fill-rule:nonzero;fill:rgb(39.99939%,39.99939%,39.99939%);fill-opacity:0.3;" d="M 24.421875 313.464844 L -5.996094 303.359375 L -3.980469 296.238281 L 26.363281 282.054688 L 35.226562 285.078125 L 31.070312 296.386719 L 25.578125 294.742188 L 25.242188 295.566406 L 24.910156 296.390625 L 30.402344 298.035156 Z M 24.421875 313.464844 "/>
<path style=" stroke:none;fill-rule:nonzero;fill:rgb(39.99939%,39.99939%,39.99939%);fill-opacity:0.3;" d="M -6.074219 340.144531 L -5.921875 334.699219 L 20.640625 323.082031 L 12.171875 345.738281 Z M -6.074219 340.144531 "/>
<g clip-path="url(#clip10)" clip-rule="nonzero">
<path style=" stroke:none;fill-rule:nonzero;fill:rgb(39.99939%,39.99939%,39.99939%);fill-opacity:0.3;" d="M 117.199219 381.871094 L 128.242188 351.3125 L 144.285156 356.941406 L 149.683594 362.304688 L 119.980469 382.8125 Z M 117.199219 381.871094 "/>
</g>
<path style=" stroke:none;fill-rule:nonzero;fill:rgb(39.99939%,39.99939%,39.99939%);fill-opacity:0.3;" d="M 170.039062 330.222656 L 162.085938 353.546875 L 154.316406 359.074219 L 145.363281 355.152344 L 132.183594 341.539062 L 138.925781 320.40625 Z M 170.039062 330.222656 "/>
<path style=" stroke:none;fill-rule:nonzero;fill:rgb(39.99939%,39.99939%,39.99939%);fill-opacity:0.3;" d="M 165.566406 350.625 L 172.84375 331.464844 L 185.730469 335.757812 Z M 165.566406 350.625 "/>
<path style=" stroke:none;fill-rule:nonzero;fill:rgb(39.99939%,39.99939%,39.99939%);fill-opacity:0.3;" d="M 86.835938 291.160156 L 93.074219 301.847656 L 76.878906 295.972656 Z M 86.835938 291.160156 "/>
<path style=" stroke:none;fill-rule:nonzero;fill:rgb(39.99939%,39.99939%,39.99939%);fill-opacity:0.3;" d="M 113.183594 279.921875 L 103.683594 305.203125 L 95.921875 302.789062 L 88.75 290.527344 Z M 113.183594 279.921875 "/>
<path style=" stroke:none;fill-rule:nonzero;fill:rgb(39.99939%,39.99939%,39.99939%);fill-opacity:0.3;" d="M 106.921875 306.777344 L 118.167969 278.015625 L 136.285156 283.863281 L 147.414062 288.472656 L 136.683594 317.195312 Z M 106.921875 306.777344 "/>
<path style=" stroke:none;fill-rule:nonzero;fill:rgb(39.99939%,39.99939%,39.99939%);fill-opacity:0.3;" d="M 181.316406 298.945312 L 170.753906 328.273438 L 140.03125 318.222656 L 151.269531 289.789062 Z M 181.316406 298.945312 "/>
<path style=" stroke:none;fill-rule:nonzero;fill:rgb(39.99939%,39.99939%,39.99939%);fill-opacity:0.3;" d="M 215.335938 310.542969 L 213.769531 315.613281 L 188.390625 334.476562 L 174.085938 329.421875 L 184.886719 300.039062 L 190.636719 301.800781 Z M 215.335938 310.542969 "/>
<path style=" stroke:none;fill-rule:nonzero;fill:rgb(39.99939%,39.99939%,39.99939%);fill-opacity:0.3;" d="M 60.589844 297.667969 L 28.777344 311.304688 L 37.5625 287.136719 L 61.25 294.050781 Z M 60.589844 297.667969 "/>
<path style=" stroke:none;fill-rule:nonzero;fill:rgb(39.99939%,39.99939%,39.99939%);fill-opacity:0.3;" d="M 78.046875 280.480469 L 84.078125 286.703125 L 73.25 292.464844 Z M 78.046875 280.480469 "/>
<path style=" stroke:none;fill-rule:nonzero;fill:rgb(39.99939%,39.99939%,39.99939%);fill-opacity:0.3;" d="M 69.570312 292.441406 L 40.457031 282.941406 L 39.878906 281.839844 L 42.726562 275.417969 L 45.671875 274.425781 L 49.050781 273.203125 L 52.800781 271.863281 L 56.363281 272.152344 L 61.585938 272.847656 L 67.179688 274.414062 L 69.882812 275.519531 L 71.972656 276.796875 L 73.015625 277.730469 L 73.632812 280.523438 Z M 69.570312 292.441406 "/>
<path style=" stroke:none;fill-rule:nonzero;fill:rgb(39.99939%,39.99939%,39.99939%);fill-opacity:0.3;" d="M 15.085938 315.027344 L 15.238281 316.507812 L 14.640625 317.65625 L 13.636719 318.421875 L 7.242188 320.792969 L -8.832031 329.90625 L -10.414062 327.808594 L -12.378906 326.042969 L -14.792969 323.992188 L -6.835938 307.925781 Z M 15.085938 315.027344 "/>
<g clip-path="url(#clip11)" clip-rule="nonzero">
<path style=" stroke:none;fill-rule:nonzero;fill:rgb(39.99939%,39.99939%,39.99939%);fill-opacity:0.3;" d="M 79.546875 368.683594 L 51.40625 359.105469 L 49.519531 357.308594 L 60.542969 329.074219 L 90.605469 339.75 Z M 79.546875 368.683594 "/>
</g>
<path style=" stroke:none;fill-rule:nonzero;fill:rgb(39.99939%,39.99939%,39.99939%);fill-opacity:0.3;" d="M 25.664062 320.527344 L 28.675781 318.398438 L 55.421875 327.472656 L 56.25 327.960938 L 56.667969 328.847656 L 56.667969 329.734375 L 46.460938 354.339844 L 45.207031 355.742188 L 43.589844 356.421875 L 41.46875 355.890625 L 16.660156 347.414062 L 16.324219 345.609375 Z M 25.664062 320.527344 "/>
<g clip-path="url(#clip12)" clip-rule="nonzero">
<path style=" stroke:none;fill-rule:nonzero;fill:rgb(39.99939%,39.99939%,39.99939%);fill-opacity:0.3;" d="M 2.625 382.734375 L 1.953125 380.929688 L 12.625 354.074219 L 43.117188 364.367188 L 33.34375 391.3125 L 30.550781 391.953125 Z M 2.625 382.734375 "/>
</g>
<path style=" stroke:none;fill-rule:nonzero;fill:rgb(39.99939%,39.99939%,39.99939%);fill-opacity:0.3;" d="M 84.304688 265.214844 L 91.640625 267.847656 L 93.515625 269.246094 L 96.882812 270.929688 L 100.15625 272.1875 L 103.929688 273.070312 L 107.058594 273.355469 L 109.007812 273.605469 L 110.515625 274.613281 L 86.75 286.53125 L 78.773438 278.792969 Z M 84.304688 265.214844 "/>
<path style=" stroke:none;fill-rule:nonzero;fill:rgb(39.99939%,39.99939%,39.99939%);fill-opacity:0.3;" d="M -31.082031 258.902344 L -23.429688 238.144531 L 8.710938 245.519531 L -0.210938 269.230469 Z M -31.082031 258.902344 "/>
<path style=" stroke:none;fill-rule:nonzero;fill:rgb(39.99939%,39.99939%,39.99939%);fill-opacity:0.3;" d="M 5.246094 271.578125 L 15.617188 246.410156 L 45.691406 255.160156 L 38.773438 273.917969 L 27.933594 279.140625 Z M 5.246094 271.578125 "/>
<path style=" stroke:none;fill-rule:nonzero;fill:rgb(39.99939%,39.99939%,39.99939%);fill-opacity:0.3;" d="M -3.882812 294.390625 L 3.296875 275.210938 L 22.410156 282.007812 Z M -3.882812 294.390625 "/>
<path style=" stroke:none;fill-rule:nonzero;fill:rgb(39.99939%,39.99939%,39.99939%);fill-opacity:0.3;" d="M 49.851562 254.765625 L 80.332031 264.59375 L 76.515625 274.703125 L 54.519531 268.484375 L 44.234375 269.746094 Z M 49.851562 254.765625 "/>
<g clip-path="url(#clip13)" clip-rule="nonzero">
<path style=" stroke:none;fill-rule:nonzero;fill:rgb(39.99939%,39.99939%,39.99939%);fill-opacity:0.3;" d="M 124.554688 351.367188 L 113.847656 380.191406 L 83.421875 370.183594 L 94.355469 341.230469 Z M 124.554688 351.367188 "/>
</g>
<g clip-path="url(#clip14)" clip-rule="nonzero">
<path style=" stroke:none;fill-rule:nonzero;fill:rgb(39.99939%,39.99939%,39.99939%);fill-opacity:0.3;" d="M -12.601562 351.09375 L -9.808594 349.5 L -8.027344 347.160156 L 9.46875 353.421875 L 2.054688 374.277344 L -1.226562 373.914062 Z M -12.601562 351.09375 "/>
</g>
<path style=" stroke:none;fill-rule:nonzero;fill:rgb(39.99939%,39.99939%,39.99939%);fill-opacity:0.3;" d="M 104.691406 313.226562 L 104.570312 312.726562 L 104.789062 312.179688 L 105.292969 311.425781 L 106.425781 310.433594 L 107.507812 309.882812 L 108.6875 309.730469 L 109.578125 309.882812 L 135.464844 319.382812 L 129.480469 338.019531 Z M 104.691406 313.226562 "/>
<path style=" stroke:none;fill-rule:nonzero;fill:rgb(39.99939%,39.99939%,39.99939%);fill-opacity:0.3;" d="M 58.070312 324.558594 L 32.808594 315.761719 L 67.523438 300.105469 Z M 58.070312 324.558594 "/>
<path style=" stroke:none;fill-rule:nonzero;fill:rgb(39.99939%,39.99939%,39.99939%);fill-opacity:0.3;" d="M 101.992188 308.394531 L 93.046875 335.601562 L 89.605469 336.632812 L 61.65625 326.488281 L 72.617188 298.554688 Z M 101.992188 308.394531 "/>
<path style=" stroke:none;fill-rule:nonzero;fill:rgb(39.99939%,39.99939%,39.99939%);fill-opacity:0.3;" d="M 128.664062 340.03125 L 125.824219 347.859375 L 95.589844 337.355469 L 104.085938 314.3125 Z M 128.664062 340.03125 "/>
<path style=" stroke:none;fill-rule:nonzero;fill:rgb(39.99939%,39.99939%,39.99939%);fill-opacity:0.3;" d="M 129.070312 349.117188 L 131.273438 343.039062 L 139.839844 352.917969 Z M 129.070312 349.117188 "/>
<path style=" stroke:none;fill-rule:nonzero;fill:rgb(39.99939%,39.99939%,39.99939%);fill-opacity:0.3;" d="M 38.136719 276.070312 L 36.019531 282.042969 L 29.960938 279.78125 Z M 38.136719 276.070312 "/>
<path style="fill-rule:nonzero;fill:rgb(39.99939%,39.99939%,39.99939%);fill-opacity:1;stroke-width:0.03;stroke-linecap:square;stroke-linejoin:miter;stroke:rgb(39.99939%,39.99939%,39.99939%);stroke-opacity:1;stroke-miterlimit:3.239307;" d="M 288.125 147.351562 L 287.933594 147.839844 L 278.324219 138.164062 L 278.355469 138.082031 Z M 288.125 147.351562 " transform="matrix(1,0,0,1,-74,-13)"/>
<path style="fill-rule:nonzero;fill:rgb(39.99939%,39.99939%,39.99939%);fill-opacity:1;stroke-width:0.03;stroke-linecap:square;stroke-linejoin:miter;stroke:rgb(39.99939%,39.99939%,39.99939%);stroke-opacity:1;stroke-miterlimit:3.239307;" d="M 210.285156 296.863281 L 221.753906 300.566406 L 221.414062 301.472656 Z M 210.285156 296.863281 " transform="matrix(1,0,0,1,-74,-13)"/>
<path style="fill-rule:nonzero;fill:rgb(39.99939%,39.99939%,39.99939%);fill-opacity:1;stroke-width:0.03;stroke-linecap:square;stroke-linejoin:miter;stroke:rgb(39.99939%,39.99939%,39.99939%);stroke-opacity:1;stroke-miterlimit:3.239307;" d="M 255.378906 311.765625 L 255.316406 311.945312 L 225.269531 302.789062 L 225.671875 301.769531 Z M 255.378906 311.765625 " transform="matrix(1,0,0,1,-74,-13)"/>
<path style="fill-rule:nonzero;fill:rgb(39.99939%,39.99939%,39.99939%);fill-opacity:1;stroke-width:0.03;stroke-linecap:square;stroke-linejoin:miter;stroke:rgb(39.99939%,39.99939%,39.99939%);stroke-opacity:1;stroke-miterlimit:3.239307;" d="M 258.886719 313.039062 L 258.976562 312.796875 L 264.636719 314.800781 Z M 258.886719 313.039062 " transform="matrix(1,0,0,1,-74,-13)"/>
<path style="fill-rule:nonzero;fill:rgb(39.99939%,39.99939%,39.99939%);fill-opacity:1;stroke-width:0.03;stroke-linecap:square;stroke-linejoin:miter;stroke:rgb(39.99939%,39.99939%,39.99939%);stroke-opacity:1;stroke-miterlimit:3.239307;" d="M 159.992188 273.703125 L 165.277344 259.234375 L 195.441406 269.777344 L 190.148438 284.132812 L 187.097656 285.125 L 160.574219 275.347656 Z M 159.992188 273.703125 " transform="matrix(1,0,0,1,-74,-13)"/>
<path style="fill-rule:nonzero;fill:rgb(39.99939%,39.99939%,39.99939%);fill-opacity:1;stroke-width:0.03;stroke-linecap:square;stroke-linejoin:miter;stroke:rgb(39.99939%,39.99939%,39.99939%);stroke-opacity:1;stroke-miterlimit:3.239307;" d="M 262.777344 292.367188 L 257.21875 308.304688 L 226.527344 298.269531 L 232.953125 281.890625 Z M 262.777344 292.367188 " transform="matrix(1,0,0,1,-74,-13)"/>
<path style="fill-rule:nonzero;fill:rgb(39.99939%,39.99939%,39.99939%);fill-opacity:1;stroke-width:0.03;stroke-linecap:square;stroke-linejoin:miter;stroke:rgb(39.99939%,39.99939%,39.99939%);stroke-opacity:1;stroke-miterlimit:3.239307;" d="M 283.398438 299.140625 L 295.820312 303.363281 L 290.316406 320.03125 L 277.675781 315.804688 L 259.882812 309.855469 L 266.203125 293.292969 Z M 283.398438 299.140625 " transform="matrix(1,0,0,1,-74,-13)"/>
<path style="fill-rule:nonzero;fill:rgb(39.99939%,39.99939%,39.99939%);fill-opacity:1;stroke-width:0.03;stroke-linecap:square;stroke-linejoin:miter;stroke:rgb(39.99939%,39.99939%,39.99939%);stroke-opacity:1;stroke-miterlimit:3.239307;" d="M 213.683594 275.351562 L 193.621094 284.867188 L 198.886719 270.613281 Z M 213.683594 275.351562 " transform="matrix(1,0,0,1,-74,-13)"/>
<path style="fill-rule:nonzero;fill:rgb(39.99939%,39.99939%,39.99939%);fill-opacity:1;stroke-width:0.03;stroke-linecap:square;stroke-linejoin:miter;stroke:rgb(39.99939%,39.99939%,39.99939%);stroke-opacity:1;stroke-miterlimit:3.239307;" d="M 294.863281 320.128906 L 300.4375 304.9375 L 313.671875 309.40625 L 302.960938 317.382812 L 300.351562 319.371094 L 298.285156 320.769531 L 297.699219 321.195312 L 296.84375 321.554688 L 295.933594 321.570312 L 295.121094 321.152344 Z M 294.863281 320.128906 " transform="matrix(1,0,0,1,-74,-13)"/>
<path style="fill-rule:nonzero;fill:rgb(39.99939%,39.99939%,39.99939%);fill-opacity:1;stroke-width:0.03;stroke-linecap:square;stroke-linejoin:miter;stroke:rgb(39.99939%,39.99939%,39.99939%);stroke-opacity:1;stroke-miterlimit:3.239307;" d="M 216.351562 112.960938 L 186.617188 102.835938 L 191.410156 89.785156 L 214.921875 98.6875 L 220.261719 102.65625 Z M 216.351562 112.960938 " transform="matrix(1,0,0,1,-74,-13)"/>
<path style="fill-rule:nonzero;fill:rgb(39.99939%,39.99939%,39.99939%);fill-opacity:1;stroke-width:0.03;stroke-linecap:square;stroke-linejoin:miter;stroke:rgb(39.99939%,39.99939%,39.99939%);stroke-opacity:1;stroke-miterlimit:3.239307;" d="M 222.667969 104.492188 L 233.613281 112.695312 L 246.65625 123.914062 L 227.640625 117.496094 L 219.421875 114.148438 Z M 222.667969 104.492188 " transform="matrix(1,0,0,1,-74,-13)"/>
<path style="fill-rule:nonzero;fill:rgb(39.99939%,39.99939%,39.99939%);fill-opacity:1;stroke-width:0.03;stroke-linecap:square;stroke-linejoin:miter;stroke:rgb(39.99939%,39.99939%,39.99939%);stroke-opacity:1;stroke-miterlimit:3.239307;" d="M 163.890625 152.65625 L 164.347656 152.753906 L 159.339844 165.296875 Z M 163.890625 152.65625 " transform="matrix(1,0,0,1,-74,-13)"/>
<path style="fill-rule:nonzero;fill:rgb(39.99939%,39.99939%,39.99939%);fill-opacity:1;stroke-width:0.03;stroke-linecap:square;stroke-linejoin:miter;stroke:rgb(39.99939%,39.99939%,39.99939%);stroke-opacity:1;stroke-miterlimit:3.239307;" d="M 168.667969 239.589844 L 152.53125 234.757812 L 138.074219 229.875 L 142.917969 216.703125 L 157.710938 220.976562 L 173.238281 226.90625 Z M 168.667969 239.589844 " transform="matrix(1,0,0,1,-74,-13)"/>
<path style="fill-rule:nonzero;fill:rgb(39.99939%,39.99939%,39.99939%);fill-opacity:1;stroke-width:0.03;stroke-linecap:square;stroke-linejoin:miter;stroke:rgb(39.99939%,39.99939%,39.99939%);stroke-opacity:1;stroke-miterlimit:3.239307;" d="M 179.097656 211.214844 L 174.25 224.265625 L 158.949219 218.878906 L 143.984375 214.398438 L 148.625 201.136719 L 164.390625 205.410156 Z M 179.097656 211.214844 " transform="matrix(1,0,0,1,-74,-13)"/>
<path style="fill-rule:nonzero;fill:rgb(39.99939%,39.99939%,39.99939%);fill-opacity:1;stroke-width:0.03;stroke-linecap:square;stroke-linejoin:miter;stroke:rgb(39.99939%,39.99939%,39.99939%);stroke-opacity:1;stroke-miterlimit:3.239307;" d="M 180.390625 208.585938 L 165.011719 203.132812 L 149.953125 198.652344 L 154.933594 184.789062 L 169.515625 189.648438 L 185.296875 195.09375 Z M 180.390625 208.585938 " transform="matrix(1,0,0,1,-74,-13)"/>
<path style="fill-rule:nonzero;fill:rgb(39.99939%,39.99939%,39.99939%);fill-opacity:1;stroke-width:0.03;stroke-linecap:square;stroke-linejoin:miter;stroke:rgb(39.99939%,39.99939%,39.99939%);stroke-opacity:1;stroke-miterlimit:3.239307;" d="M 156.078125 273.4375 L 125.429688 263.617188 L 130.859375 247.554688 L 162.285156 257.785156 Z M 156.078125 273.4375 " transform="matrix(1,0,0,1,-74,-13)"/>
<path style="fill-rule:nonzero;fill:rgb(39.99939%,39.99939%,39.99939%);fill-opacity:1;stroke-width:0.03;stroke-linecap:square;stroke-linejoin:miter;stroke:rgb(39.99939%,39.99939%,39.99939%);stroke-opacity:1;stroke-miterlimit:3.239307;" d="M 162.714844 255.695312 L 132.394531 245.628906 L 137.347656 231.800781 L 167.96875 241.863281 Z M 162.714844 255.695312 " transform="matrix(1,0,0,1,-74,-13)"/>
<path style="fill-rule:nonzero;fill:rgb(39.99939%,39.99939%,39.99939%);fill-opacity:1;stroke-width:0.03;stroke-linecap:square;stroke-linejoin:miter;stroke:rgb(39.99939%,39.99939%,39.99939%);stroke-opacity:1;stroke-miterlimit:3.239307;" d="M 363.277344 270.53125 L 369.046875 256.929688 L 382.570312 261 L 367.480469 272.003906 Z M 363.277344 270.53125 " transform="matrix(1,0,0,1,-74,-13)"/>
<path style="fill-rule:nonzero;fill:rgb(39.99939%,39.99939%,39.99939%);fill-opacity:1;stroke-width:0.03;stroke-linecap:square;stroke-linejoin:miter;stroke:rgb(39.99939%,39.99939%,39.99939%);stroke-opacity:1;stroke-miterlimit:3.239307;" d="M 344.609375 287.917969 L 352.777344 268.902344 L 365.441406 273.398438 Z M 344.609375 287.917969 " transform="matrix(1,0,0,1,-74,-13)"/>
<path style="fill-rule:nonzero;fill:rgb(39.99939%,39.99939%,39.99939%);fill-opacity:1;stroke-width:0.03;stroke-linecap:square;stroke-linejoin:miter;stroke:rgb(39.99939%,39.99939%,39.99939%);stroke-opacity:1;stroke-miterlimit:3.239307;" d="M 230.117188 278.386719 L 199.664062 268.101562 L 204.707031 254.527344 L 235.160156 265.007812 Z M 230.117188 278.386719 " transform="matrix(1,0,0,1,-74,-13)"/>
<path style="fill-rule:nonzero;fill:rgb(39.99939%,39.99939%,39.99939%);fill-opacity:1;stroke-width:0.03;stroke-linecap:square;stroke-linejoin:miter;stroke:rgb(39.99939%,39.99939%,39.99939%);stroke-opacity:1;stroke-miterlimit:3.239307;" d="M 297.558594 300.90625 L 267.210938 291.011719 L 272.3125 277.523438 L 302.332031 287.472656 Z M 297.558594 300.90625 " transform="matrix(1,0,0,1,-74,-13)"/>
<path style="fill-rule:nonzero;fill:rgb(39.99939%,39.99939%,39.99939%);fill-opacity:1;stroke-width:0.03;stroke-linecap:square;stroke-linejoin:miter;stroke:rgb(39.99939%,39.99939%,39.99939%);stroke-opacity:1;stroke-miterlimit:3.239307;" d="M 274.660156 261.175781 L 270.15625 273.894531 L 239.613281 263.894531 L 244.386719 251.40625 Z M 274.660156 261.175781 " transform="matrix(1,0,0,1,-74,-13)"/>
<path style="fill-rule:nonzero;fill:rgb(39.99939%,39.99939%,39.99939%);fill-opacity:1;stroke-width:0.03;stroke-linecap:square;stroke-linejoin:miter;stroke:rgb(39.99939%,39.99939%,39.99939%);stroke-opacity:1;stroke-miterlimit:3.239307;" d="M 308.402344 272.46875 L 303.703125 284.757812 L 273.578125 274.925781 L 278.023438 262.273438 Z M 308.402344 272.46875 " transform="matrix(1,0,0,1,-74,-13)"/>
<path style="fill-rule:nonzero;fill:rgb(39.99939%,39.99939%,39.99939%);fill-opacity:1;stroke-width:0.03;stroke-linecap:square;stroke-linejoin:miter;stroke:rgb(39.99939%,39.99939%,39.99939%);stroke-opacity:1;stroke-miterlimit:3.239307;" d="M 171.894531 240.472656 L 176.773438 227.730469 L 207.507812 238.109375 L 202.757812 251.085938 Z M 171.894531 240.472656 " transform="matrix(1,0,0,1,-74,-13)"/>
<path style="fill-rule:nonzero;fill:rgb(39.99939%,39.99939%,39.99939%);fill-opacity:1;stroke-width:0.03;stroke-linecap:square;stroke-linejoin:miter;stroke:rgb(39.99939%,39.99939%,39.99939%);stroke-opacity:1;stroke-miterlimit:3.239307;" d="M 236.074219 262.488281 L 205.578125 251.957031 L 210.621094 239.652344 L 241.003906 249.78125 Z M 236.074219 262.488281 " transform="matrix(1,0,0,1,-74,-13)"/>
<path style="fill-rule:nonzero;fill:rgb(39.99939%,39.99939%,39.99939%);fill-opacity:1;stroke-width:0.03;stroke-linecap:square;stroke-linejoin:miter;stroke:rgb(39.99939%,39.99939%,39.99939%);stroke-opacity:1;stroke-miterlimit:3.239307;" d="M 333.917969 295.042969 L 307.625 286.210938 L 312.246094 273.839844 L 342.203125 283.953125 L 339.460938 290.96875 Z M 333.917969 295.042969 " transform="matrix(1,0,0,1,-74,-13)"/>
<path style="fill-rule:nonzero;fill:rgb(39.99939%,39.99939%,39.99939%);fill-opacity:1;stroke-width:0.03;stroke-linecap:square;stroke-linejoin:miter;stroke:rgb(39.99939%,39.99939%,39.99939%);stroke-opacity:1;stroke-miterlimit:3.239307;" d="M 314.34375 256.925781 L 309.394531 270.152344 L 279.578125 259.855469 L 284.207031 246.835938 Z M 314.34375 256.925781 " transform="matrix(1,0,0,1,-74,-13)"/>
<path style="fill-rule:nonzero;fill:rgb(39.99939%,39.99939%,39.99939%);fill-opacity:1;stroke-width:0.03;stroke-linecap:square;stroke-linejoin:miter;stroke:rgb(39.99939%,39.99939%,39.99939%);stroke-opacity:1;stroke-miterlimit:3.239307;" d="M 286.894531 229.226562 L 281.875 242.808594 L 251.398438 232.671875 L 256.464844 218.992188 Z M 286.894531 229.226562 " transform="matrix(1,0,0,1,-74,-13)"/>
<path style="fill-rule:nonzero;fill:rgb(39.99939%,39.99939%,39.99939%);fill-opacity:1;stroke-width:0.03;stroke-linecap:square;stroke-linejoin:miter;stroke:rgb(39.99939%,39.99939%,39.99939%);stroke-opacity:1;stroke-miterlimit:3.239307;" d="M 315.351562 254 L 285.503906 244 L 290.472656 230.488281 L 320.289062 240.703125 Z M 315.351562 254 " transform="matrix(1,0,0,1,-74,-13)"/>
<path style="fill-rule:nonzero;fill:rgb(39.99939%,39.99939%,39.99939%);fill-opacity:1;stroke-width:0.03;stroke-linecap:square;stroke-linejoin:miter;stroke:rgb(39.99939%,39.99939%,39.99939%);stroke-opacity:1;stroke-miterlimit:3.239307;" d="M 349.695312 265.722656 L 318.546875 255.332031 L 323.226562 241.855469 L 354.773438 252.445312 Z M 349.695312 265.722656 " transform="matrix(1,0,0,1,-74,-13)"/>
<path style="fill-rule:nonzero;fill:rgb(39.99939%,39.99939%,39.99939%);fill-opacity:1;stroke-width:0.03;stroke-linecap:square;stroke-linejoin:miter;stroke:rgb(39.99939%,39.99939%,39.99939%);stroke-opacity:1;stroke-miterlimit:3.239307;" d="M 259.699219 201.773438 L 254.5 215.308594 L 223.863281 204.859375 L 228.917969 191.414062 Z M 259.699219 201.773438 " transform="matrix(1,0,0,1,-74,-13)"/>
<path style="fill-rule:nonzero;fill:rgb(39.99939%,39.99939%,39.99939%);fill-opacity:1;stroke-width:0.03;stroke-linecap:square;stroke-linejoin:miter;stroke:rgb(39.99939%,39.99939%,39.99939%);stroke-opacity:1;stroke-miterlimit:3.239307;" d="M 326.546875 224.570312 L 321.507812 237.863281 L 291.523438 227.363281 L 296.308594 214.449219 Z M 326.546875 224.570312 " transform="matrix(1,0,0,1,-74,-13)"/>
<path style="fill-rule:nonzero;fill:rgb(39.99939%,39.99939%,39.99939%);fill-opacity:1;stroke-width:0.03;stroke-linecap:square;stroke-linejoin:miter;stroke:rgb(39.99939%,39.99939%,39.99939%);stroke-opacity:1;stroke-miterlimit:3.239307;" d="M 360.542969 235.863281 L 355.488281 249.097656 L 325.363281 239.015625 L 330.234375 225.667969 Z M 360.542969 235.863281 " transform="matrix(1,0,0,1,-74,-13)"/>
<path style="fill-rule:nonzero;fill:rgb(39.99939%,39.99939%,39.99939%);fill-opacity:1;stroke-width:0.03;stroke-linecap:square;stroke-linejoin:miter;stroke:rgb(39.99939%,39.99939%,39.99939%);stroke-opacity:1;stroke-miterlimit:3.239307;" d="M 219.875 203.78125 L 189.070312 193.296875 L 194.550781 180.117188 L 224.996094 190.351562 Z M 219.875 203.78125 " transform="matrix(1,0,0,1,-74,-13)"/>
<path style="fill-rule:nonzero;fill:rgb(39.99939%,39.99939%,39.99939%);fill-opacity:1;stroke-width:0.03;stroke-linecap:square;stroke-linejoin:miter;stroke:rgb(39.99939%,39.99939%,39.99939%);stroke-opacity:1;stroke-miterlimit:3.239307;" d="M 287.683594 226.523438 L 257.460938 216.355469 L 262.25 202.738281 L 293.300781 212.886719 Z M 287.683594 226.523438 " transform="matrix(1,0,0,1,-74,-13)"/>
<path style="fill-rule:nonzero;fill:rgb(39.99939%,39.99939%,39.99939%);fill-opacity:1;stroke-width:0.03;stroke-linecap:square;stroke-linejoin:miter;stroke:rgb(39.99939%,39.99939%,39.99939%);stroke-opacity:1;stroke-miterlimit:3.239307;" d="M 361.503906 233.894531 L 331.101562 223.347656 L 336.234375 208.375 L 361.976562 232.011719 Z M 361.503906 233.894531 " transform="matrix(1,0,0,1,-74,-13)"/>
<path style="fill-rule:nonzero;fill:rgb(39.99939%,39.99939%,39.99939%);fill-opacity:1;stroke-width:0.03;stroke-linecap:square;stroke-linejoin:miter;stroke:rgb(39.99939%,39.99939%,39.99939%);stroke-opacity:1;stroke-miterlimit:3.239307;" d="M 226.070312 188.074219 L 195.628906 177.75 L 200.628906 164.179688 L 231.28125 174.402344 Z M 226.070312 188.074219 " transform="matrix(1,0,0,1,-74,-13)"/>
<path style="fill-rule:nonzero;fill:rgb(39.99939%,39.99939%,39.99939%);fill-opacity:1;stroke-width:0.03;stroke-linecap:square;stroke-linejoin:miter;stroke:rgb(39.99939%,39.99939%,39.99939%);stroke-opacity:1;stroke-miterlimit:3.239307;" d="M 293.777344 210.832031 L 263.261719 200.5 L 268.511719 186.636719 L 299.097656 196.824219 Z M 293.777344 210.832031 " transform="matrix(1,0,0,1,-74,-13)"/>
<path style="fill-rule:nonzero;fill:rgb(39.99939%,39.99939%,39.99939%);fill-opacity:1;stroke-width:0.03;stroke-linecap:square;stroke-linejoin:miter;stroke:rgb(39.99939%,39.99939%,39.99939%);stroke-opacity:1;stroke-miterlimit:3.239307;" d="M 326.878906 221.894531 L 297.222656 211.882812 L 302.382812 198.273438 L 331.902344 208.265625 Z M 326.878906 221.894531 " transform="matrix(1,0,0,1,-74,-13)"/>
<path style="fill-rule:nonzero;fill:rgb(39.99939%,39.99939%,39.99939%);fill-opacity:1;stroke-width:0.03;stroke-linecap:square;stroke-linejoin:miter;stroke:rgb(39.99939%,39.99939%,39.99939%);stroke-opacity:1;stroke-miterlimit:3.239307;" d="M 266.078125 183.132812 L 235.691406 172.753906 L 240.550781 159.625 L 271.050781 169.996094 Z M 266.078125 183.132812 " transform="matrix(1,0,0,1,-74,-13)"/>
<path style="fill-rule:nonzero;fill:rgb(39.99939%,39.99939%,39.99939%);fill-opacity:1;stroke-width:0.03;stroke-linecap:square;stroke-linejoin:miter;stroke:rgb(39.99939%,39.99939%,39.99939%);stroke-opacity:1;stroke-miterlimit:3.239307;" d="M 269.316406 184.410156 L 274.386719 171 L 304.242188 181.191406 L 299.199219 194.464844 Z M 269.316406 184.410156 " transform="matrix(1,0,0,1,-74,-13)"/>
<path style="fill-rule:nonzero;fill:rgb(39.99939%,39.99939%,39.99939%);fill-opacity:1;stroke-width:0.03;stroke-linecap:square;stroke-linejoin:miter;stroke:rgb(39.99939%,39.99939%,39.99939%);stroke-opacity:1;stroke-miterlimit:3.239307;" d="M 307.851562 182.386719 L 309.578125 182.84375 L 333.0625 205.167969 L 332.523438 206.546875 L 303.148438 196.199219 Z M 307.851562 182.386719 " transform="matrix(1,0,0,1,-74,-13)"/>
<path style="fill-rule:nonzero;fill:rgb(39.99939%,39.99939%,39.99939%);fill-opacity:1;stroke-width:0.03;stroke-linecap:square;stroke-linejoin:miter;stroke:rgb(39.99939%,39.99939%,39.99939%);stroke-opacity:1;stroke-miterlimit:3.239307;" d="M 201.03125 161.128906 L 206.089844 147.386719 L 236.835938 157.875 L 231.675781 171.433594 Z M 201.03125 161.128906 " transform="matrix(1,0,0,1,-74,-13)"/>
<path style="fill-rule:nonzero;fill:rgb(39.99939%,39.99939%,39.99939%);fill-opacity:1;stroke-width:0.03;stroke-linecap:square;stroke-linejoin:miter;stroke:rgb(39.99939%,39.99939%,39.99939%);stroke-opacity:1;stroke-miterlimit:3.239307;" d="M 243.175781 142.6875 L 238.1875 155.800781 L 207.480469 145.140625 L 212.609375 132.429688 Z M 243.175781 142.6875 " transform="matrix(1,0,0,1,-74,-13)"/>
<path style="fill-rule:nonzero;fill:rgb(39.99939%,39.99939%,39.99939%);fill-opacity:1;stroke-width:0.03;stroke-linecap:square;stroke-linejoin:miter;stroke:rgb(39.99939%,39.99939%,39.99939%);stroke-opacity:1;stroke-miterlimit:3.239307;" d="M 271.472656 167.308594 L 241.589844 157.234375 L 246.652344 143.726562 L 275.953125 154.132812 Z M 271.472656 167.308594 " transform="matrix(1,0,0,1,-74,-13)"/>
<path style="fill-rule:nonzero;fill:rgb(39.99939%,39.99939%,39.99939%);fill-opacity:1;stroke-width:0.03;stroke-linecap:square;stroke-linejoin:miter;stroke:rgb(39.99939%,39.99939%,39.99939%);stroke-opacity:1;stroke-miterlimit:3.239307;" d="M 275.277344 168.824219 L 280.226562 155.90625 L 303.476562 177.578125 L 302.09375 179.117188 L 290.503906 174.117188 Z M 275.277344 168.824219 " transform="matrix(1,0,0,1,-74,-13)"/>
<path style="fill-rule:nonzero;fill:rgb(39.99939%,39.99939%,39.99939%);fill-opacity:1;stroke-width:0.03;stroke-linecap:square;stroke-linejoin:miter;stroke:rgb(39.99939%,39.99939%,39.99939%);stroke-opacity:1;stroke-miterlimit:3.239307;" d="M 275.753906 151.332031 L 247.347656 141.261719 L 251.65625 128.65625 Z M 275.753906 151.332031 " transform="matrix(1,0,0,1,-74,-13)"/>
<path style="fill-rule:nonzero;fill:rgb(39.99939%,39.99939%,39.99939%);fill-opacity:1;stroke-width:0.03;stroke-linecap:square;stroke-linejoin:miter;stroke:rgb(39.99939%,39.99939%,39.99939%);stroke-opacity:1;stroke-miterlimit:3.239307;" d="M 244.78125 140.375 L 213.726562 128.980469 L 218.890625 116.0625 L 248.601562 126.457031 L 248.460938 129.375 Z M 244.78125 140.375 " transform="matrix(1,0,0,1,-74,-13)"/>
<path style="fill-rule:nonzero;fill:rgb(39.99939%,39.99939%,39.99939%);fill-opacity:1;stroke-width:0.03;stroke-linecap:square;stroke-linejoin:miter;stroke:rgb(39.99939%,39.99939%,39.99939%);stroke-opacity:1;stroke-miterlimit:3.239307;" d="M 208.085938 235.609375 L 177.351562 225.601562 L 182.246094 212.398438 L 213.113281 222.488281 Z M 208.085938 235.609375 " transform="matrix(1,0,0,1,-74,-13)"/>
<path style="fill-rule:nonzero;fill:rgb(39.99939%,39.99939%,39.99939%);fill-opacity:1;stroke-width:0.03;stroke-linecap:square;stroke-linejoin:miter;stroke:rgb(39.99939%,39.99939%,39.99939%);stroke-opacity:1;stroke-miterlimit:3.239307;" d="M 241.78125 247.734375 L 211.558594 237.4375 L 216.519531 223.863281 L 246.925781 233.921875 Z M 241.78125 247.734375 " transform="matrix(1,0,0,1,-74,-13)"/>
<path style="fill-rule:nonzero;fill:rgb(39.99939%,39.99939%,39.99939%);fill-opacity:1;stroke-width:0.03;stroke-linecap:square;stroke-linejoin:miter;stroke:rgb(39.99939%,39.99939%,39.99939%);stroke-opacity:1;stroke-miterlimit:3.239307;" d="M 275.890625 258.546875 L 245.472656 248.449219 L 250.453125 235.035156 L 281.105469 245.175781 Z M 275.890625 258.546875 " transform="matrix(1,0,0,1,-74,-13)"/>
<path style="fill-rule:nonzero;fill:rgb(39.99939%,39.99939%,39.99939%);fill-opacity:1;stroke-width:0.03;stroke-linecap:square;stroke-linejoin:miter;stroke:rgb(39.99939%,39.99939%,39.99939%);stroke-opacity:1;stroke-miterlimit:3.239307;" d="M 342.855469 280.921875 L 313.46875 271.097656 L 317.996094 257.929688 L 347.820312 267.964844 Z M 342.855469 280.921875 " transform="matrix(1,0,0,1,-74,-13)"/>
<path style="fill-rule:nonzero;fill:rgb(39.99939%,39.99939%,39.99939%);fill-opacity:1;stroke-width:0.03;stroke-linecap:square;stroke-linejoin:miter;stroke:rgb(39.99939%,39.99939%,39.99939%);stroke-opacity:1;stroke-miterlimit:3.239307;" d="M 172.328125 130.683594 L 171.527344 133.199219 L 171.367188 133.164062 Z M 172.328125 130.683594 " transform="matrix(1,0,0,1,-74,-13)"/>
<path style="fill-rule:nonzero;fill:rgb(39.99939%,39.99939%,39.99939%);fill-opacity:1;stroke-width:0.03;stroke-linecap:square;stroke-linejoin:miter;stroke:rgb(39.99939%,39.99939%,39.99939%);stroke-opacity:1;stroke-miterlimit:3.239307;" d="M 228.925781 281.105469 L 227.355469 290.433594 L 222.144531 296.105469 L 199.03125 288.425781 L 206.496094 285.234375 L 213.242188 282.300781 L 220.457031 278.003906 Z M 228.925781 281.105469 " transform="matrix(1,0,0,1,-74,-13)"/>
<path style="fill-rule:nonzero;fill:rgb(39.99939%,39.99939%,39.99939%);fill-opacity:1;stroke-width:0.03;stroke-linecap:square;stroke-linejoin:miter;stroke:rgb(39.99939%,39.99939%,39.99939%);stroke-opacity:1;stroke-miterlimit:3.239307;" d="M 186.351562 192.4375 L 155.742188 182 L 160.648438 168.941406 L 176.023438 173.363281 L 191.542969 178.871094 Z M 186.351562 192.4375 " transform="matrix(1,0,0,1,-74,-13)"/>
<path style="fill-rule:nonzero;fill:rgb(39.99939%,39.99939%,39.99939%);fill-opacity:1;stroke-width:0.03;stroke-linecap:square;stroke-linejoin:miter;stroke:rgb(39.99939%,39.99939%,39.99939%);stroke-opacity:1;stroke-miterlimit:3.239307;" d="M 197.632812 162.832031 L 192.683594 176.480469 L 162.039062 166.839844 L 167.148438 153.101562 Z M 197.632812 162.832031 " transform="matrix(1,0,0,1,-74,-13)"/>
<path style="fill-rule:nonzero;fill:rgb(39.99939%,39.99939%,39.99939%);fill-opacity:1;stroke-width:0.03;stroke-linecap:square;stroke-linejoin:miter;stroke:rgb(39.99939%,39.99939%,39.99939%);stroke-opacity:1;stroke-miterlimit:3.239307;" d="M 174.4375 134.4375 L 178.796875 121.074219 L 209.472656 131.425781 L 204.539062 144.597656 Z M 174.4375 134.4375 " transform="matrix(1,0,0,1,-74,-13)"/>
<path style="fill-rule:nonzero;fill:rgb(39.99939%,39.99939%,39.99939%);fill-opacity:1;stroke-width:0.03;stroke-linecap:square;stroke-linejoin:miter;stroke:rgb(39.99939%,39.99939%,39.99939%);stroke-opacity:1;stroke-miterlimit:3.239307;" d="M 180.105469 118.457031 L 185.097656 105.070312 L 215.578125 115.339844 L 210.476562 128.527344 Z M 180.105469 118.457031 " transform="matrix(1,0,0,1,-74,-13)"/>
<path style="fill-rule:nonzero;fill:rgb(39.99939%,39.99939%,39.99939%);fill-opacity:1;stroke-width:0.03;stroke-linecap:square;stroke-linejoin:miter;stroke:rgb(39.99939%,39.99939%,39.99939%);stroke-opacity:1;stroke-miterlimit:3.239307;" d="M 173.421875 136.988281 L 203.484375 147.117188 L 198.3125 160.894531 L 168.867188 150.382812 Z M 173.421875 136.988281 " transform="matrix(1,0,0,1,-74,-13)"/>
<path style="fill-rule:nonzero;fill:rgb(39.99939%,39.99939%,39.99939%);fill-opacity:1;stroke-width:0.03;stroke-linecap:square;stroke-linejoin:miter;stroke:rgb(39.99939%,39.99939%,39.99939%);stroke-opacity:1;stroke-miterlimit:3.239307;" d="M 223.367188 103.089844 L 215.355469 96.742188 L 210.953125 94.859375 L 200.652344 90.707031 L 194.121094 87.582031 L 189.347656 86.359375 L 189.9375 83.015625 L 202.972656 88.820312 L 210.859375 92.421875 L 215.648438 95.304688 L 234.746094 110.972656 Z M 223.367188 103.089844 " transform="matrix(1,0,0,1,-74,-13)"/>
<path style="fill-rule:nonzero;fill:rgb(39.99939%,39.99939%,39.99939%);fill-opacity:1;stroke-width:0.03;stroke-linecap:square;stroke-linejoin:miter;stroke:rgb(39.99939%,39.99939%,39.99939%);stroke-opacity:1;stroke-miterlimit:3.239307;" d="M 182.710938 76.929688 L 187.398438 77.542969 L 201.414062 82.589844 L 210.882812 88.59375 L 216.105469 92.140625 L 223.011719 97.886719 L 235.097656 109.894531 L 222.566406 98.5625 L 217.648438 94.707031 L 208.796875 89.792969 L 200.886719 86.105469 L 191.863281 82.515625 L 186.160156 79.542969 L 185.929688 79.835938 L 185.636719 79.648438 Z M 182.710938 76.929688 " transform="matrix(1,0,0,1,-74,-13)"/>
<path style="fill-rule:nonzero;fill:rgb(39.99939%,39.99939%,39.99939%);fill-opacity:1;stroke-width:0.03;stroke-linecap:square;stroke-linejoin:miter;stroke:rgb(39.99939%,39.99939%,39.99939%);stroke-opacity:1;stroke-miterlimit:3.239307;" d="M 380.882812 257.867188 L 359.152344 250.492188 L 363.882812 237.234375 L 368.613281 238.667969 L 374.675781 246.289062 Z M 380.882812 257.867188 " transform="matrix(1,0,0,1,-74,-13)"/>
<path style="fill-rule:nonzero;fill:rgb(39.99939%,39.99939%,39.99939%);fill-opacity:1;stroke-width:0.03;stroke-linecap:square;stroke-linejoin:miter;stroke:rgb(39.99939%,39.99939%,39.99939%);stroke-opacity:1;stroke-miterlimit:3.239307;" d="M 361.566406 269.980469 L 352.820312 266.914062 L 358.320312 253.25 L 367.402344 256.324219 Z M 361.566406 269.980469 " transform="matrix(1,0,0,1,-74,-13)"/>
<path style="fill-rule:nonzero;fill:rgb(39.99939%,39.99939%,39.99939%);fill-opacity:1;stroke-width:0.03;stroke-linecap:square;stroke-linejoin:miter;stroke:rgb(39.99939%,39.99939%,39.99939%);stroke-opacity:1;stroke-miterlimit:3.239307;" d="M 331.539062 296.75 L 318.085938 307.339844 L 301.785156 301.949219 L 306.621094 288.472656 Z M 331.539062 296.75 " transform="matrix(1,0,0,1,-74,-13)"/>
<path style="fill-rule:nonzero;fill:rgb(39.99939%,39.99939%,39.99939%);fill-opacity:1;stroke-width:0.03;stroke-linecap:square;stroke-linejoin:miter;stroke:rgb(39.99939%,39.99939%,39.99939%);stroke-opacity:1;stroke-miterlimit:3.239307;" d="M 213.871094 219.636719 L 183.800781 209.359375 L 188.640625 196.257812 L 218.90625 206.457031 Z M 213.871094 219.636719 " transform="matrix(1,0,0,1,-74,-13)"/>
<path style="fill-rule:nonzero;fill:rgb(39.99939%,39.99939%,39.99939%);fill-opacity:1;stroke-width:0.03;stroke-linecap:square;stroke-linejoin:miter;stroke:rgb(39.99939%,39.99939%,39.99939%);stroke-opacity:1;stroke-miterlimit:3.239307;" d="M 229.519531 189.285156 L 234.78125 175.355469 L 265.503906 186.054688 L 260.03125 199.824219 Z M 229.519531 189.285156 " transform="matrix(1,0,0,1,-74,-13)"/>
<path style="fill-rule:nonzero;fill:rgb(39.99939%,39.99939%,39.99939%);fill-opacity:1;stroke-width:0.03;stroke-linecap:square;stroke-linejoin:miter;stroke:rgb(39.99939%,39.99939%,39.99939%);stroke-opacity:1;stroke-miterlimit:3.239307;" d="M 268.835938 276.5 L 263.792969 290.308594 L 233.144531 279.667969 L 238.195312 266.144531 Z M 268.835938 276.5 " transform="matrix(1,0,0,1,-74,-13)"/>
<path style="fill-rule:nonzero;fill:rgb(39.99939%,39.99939%,39.99939%);fill-opacity:1;stroke-width:0.03;stroke-linecap:square;stroke-linejoin:miter;stroke:rgb(39.99939%,39.99939%,39.99939%);stroke-opacity:1;stroke-miterlimit:3.239307;" d="M 196.199219 267.507812 L 165.6875 257.128906 L 171.117188 243.046875 L 201.539062 253.722656 Z M 196.199219 267.507812 " transform="matrix(1,0,0,1,-74,-13)"/>
<path style="fill-rule:nonzero;fill:rgb(39.99939%,39.99939%,39.99939%);fill-opacity:1;stroke-width:0.03;stroke-linecap:square;stroke-linejoin:miter;stroke:rgb(39.99939%,39.99939%,39.99939%);stroke-opacity:1;stroke-miterlimit:3.239307;" d="M 242.234375 214.398438 L 253.125 218.171875 L 247.824219 231.648438 L 237.425781 228.023438 L 217.519531 221.089844 L 222.703125 207.628906 Z M 242.234375 214.398438 " transform="matrix(1,0,0,1,-74,-13)"/>
<g clip-path="url(#clip15)" clip-rule="nonzero">
<path style=" stroke:none;fill-rule:evenodd;fill:rgb(85.096741%,85.096741%,81.959534%);fill-opacity:0.7;" d="M 361.5625 167 C 361.5625 163.667969 360.238281 160.472656 357.882812 158.117188 C 355.527344 155.761719 352.332031 154.4375 349 154.4375 C 345.667969 154.4375 342.472656 155.761719 340.117188 158.117188 C 337.761719 160.472656 336.4375 163.667969 336.4375 167 C 336.4375 170.332031 337.761719 173.527344 340.117188 175.882812 C 342.472656 178.238281 345.667969 179.5625 349 179.5625 C 352.332031 179.5625 355.527344 178.238281 357.882812 175.882812 C 360.238281 173.527344 361.5625 170.332031 361.5625 167 Z M 361.5625 167 "/>
</g>
<path style=" stroke:none;fill-rule:evenodd;fill:rgb(85.096741%,85.096741%,81.959534%);fill-opacity:0.7;" d="M 340.5625 88 C 340.5625 84.667969 339.238281 81.472656 336.882812 79.117188 C 334.527344 76.761719 331.332031 75.4375 328 75.4375 C 324.667969 75.4375 321.472656 76.761719 319.117188 79.117188 C 316.761719 81.472656 315.4375 84.667969 315.4375 88 C 315.4375 91.332031 316.761719 94.527344 319.117188 96.882812 C 321.472656 99.238281 324.667969 100.5625 328 100.5625 C 331.332031 100.5625 334.527344 99.238281 336.882812 96.882812 C 339.238281 94.527344 340.5625 91.332031 340.5625 88 Z M 340.5625 88 "/>
<path style=" stroke:none;fill-rule:evenodd;fill:rgb(85.096741%,85.096741%,81.959534%);fill-opacity:0.7;" d="M 339.5625 185 C 339.5625 181.667969 338.238281 178.472656 335.882812 176.117188 C 333.527344 173.761719 330.332031 172.4375 327 172.4375 C 323.667969 172.4375 320.472656 173.761719 318.117188 176.117188 C 315.761719 178.472656 314.4375 181.667969 314.4375 185 C 314.4375 188.332031 315.761719 191.527344 318.117188 193.882812 C 320.472656 196.238281 323.667969 197.5625 327 197.5625 C 330.332031 197.5625 333.527344 196.238281 335.882812 193.882812 C 338.238281 191.527344 339.5625 188.332031 339.5625 185 Z M 339.5625 185 "/>
</g>
</svg>
