<?xml version="1.0" encoding="UTF-8"?>
<svg xmlns="http://www.w3.org/2000/svg" xmlns:xlink="http://www.w3.org/1999/xlink" width="361pt" height="361pt" viewBox="0 0 361 361" version="1.1">
<defs>
<clipPath id="clip1">
  <path d="M 192 336 L 258 336 L 258 360 L 192 360 Z M 192 336 "/>
</clipPath>
<clipPath id="clip2">
  <path d="M 326 318 L 360 318 L 360 360 L 326 360 Z M 326 318 "/>
</clipPath>
<clipPath id="clip3">
  <path d="M 310 347 L 354 347 L 354 360 L 310 360 Z M 310 347 "/>
</clipPath>
<clipPath id="clip4">
  <path d="M 175 352 L 238 352 L 238 360 L 175 360 Z M 175 352 "/>
</clipPath>
<clipPath id="clip5">
  <path d="M 209 319 L 271 319 L 271 360 L 209 360 Z M 209 319 "/>
</clipPath>
<clipPath id="clip6">
  <path d="M 277 294 L 352 294 L 352 360 L 277 360 Z M 277 294 "/>
</clipPath>
<clipPath id="clip7">
  <path d="M 84 338 L 152 338 L 152 360 L 84 360 Z M 84 338 "/>
</clipPath>
<clipPath id="clip8">
  <path d="M 136 339 L 170 339 L 170 360 L 136 360 Z M 136 339 "/>
</clipPath>
<clipPath id="clip9">
  <path d="M 129 306 L 186 306 L 186 360 L 129 360 Z M 129 306 "/>
</clipPath>
<clipPath id="clip10">
  <path d="M 0 316 L 75 316 L 75 360 L 0 360 Z M 0 316 "/>
</clipPath>
<clipPath id="clip11">
  <path d="M 80 348 L 94 348 L 94 360 L 80 360 Z M 80 348 "/>
</clipPath>
<clipPath id="clip12">
  <path d="M 0 199 L 118 199 L 118 360 L 0 360 Z M 0 199 "/>
</clipPath>
<clipPath id="clip13">
  <path d="M 259 0 L 360 0 L 360 107 L 259 107 Z M 259 0 "/>
</clipPath>
<clipPath id="clip14">
  <path d="M 355 52 L 360 52 L 360 71 L 355 71 Z M 355 52 "/>
</clipPath>
<clipPath id="clip15">
  <path d="M 318 0 L 360 0 L 360 26 L 318 26 Z M 318 0 "/>
</clipPath>
<clipPath id="clip16">
  <path d="M 306 87 L 360 87 L 360 126 L 306 126 Z M 306 87 "/>
</clipPath>
<clipPath id="clip17">
  <path d="M 355 228 L 360 228 L 360 254 L 355 254 Z M 355 228 "/>
</clipPath>
<clipPath id="clip18">
  <path d="M 352 208 L 360 208 L 360 234 L 352 234 Z M 352 208 "/>
</clipPath>
<clipPath id="clip19">
  <path d="M 348 194 L 360 194 L 360 220 L 348 220 Z M 348 194 "/>
</clipPath>
<clipPath id="clip20">
  <path d="M 0 330 L 36 330 L 36 360 L 0 360 Z M 0 330 "/>
</clipPath>
<clipPath id="clip21">
  <path d="M 351 255 L 360 255 L 360 295 L 351 295 Z M 351 255 "/>
</clipPath>
<clipPath id="clip22">
  <path d="M 347 163 L 360 163 L 360 203 L 347 203 Z M 347 163 "/>
</clipPath>
<clipPath id="clip23">
  <path d="M 331 156 L 360 156 L 360 196 L 331 196 Z M 331 156 "/>
</clipPath>
<clipPath id="clip24">
  <path d="M 341 121 L 360 121 L 360 161 L 341 161 Z M 341 121 "/>
</clipPath>
<clipPath id="clip25">
  <path d="M 350 107 L 360 107 L 360 147 L 350 147 Z M 350 107 "/>
</clipPath>
<clipPath id="clip26">
  <path d="M 348 156 L 360 156 L 360 196 L 348 196 Z M 348 156 "/>
</clipPath>
<clipPath id="clip27">
  <path d="M 351 252 L 360 252 L 360 292 L 351 292 Z M 351 252 "/>
</clipPath>
</defs>
<g id="surface2254">
<path style="fill-rule:nonzero;fill:rgb(0%,0%,0%);fill-opacity:1;stroke-width:0.03;stroke-linecap:square;stroke-linejoin:miter;stroke:rgb(0%,0%,0%);stroke-opacity:1;stroke-miterlimit:10;" d="M 0 178 L 360 178 L 360 -182 L 0 -182 Z M 0 178 " transform="matrix(1,0,0,1,0,182)"/>
<path style=" stroke:none;fill-rule:nonzero;fill:rgb(39.99939%,39.99939%,39.99939%);fill-opacity:0.3;" d="M -20.253906 145.390625 L -18.492188 144.386719 L -16.75 142.171875 L -16.011719 139.421875 L -16.449219 136.761719 L -17.941406 134.386719 L -20.273438 132.734375 L -21.128906 130.210938 L -3.503906 125.917969 L -2.621094 128.953125 L -3.265625 131.546875 L -2.917969 134.03125 L -1.449219 136.5625 L 0.777344 138.273438 L 4.445312 139.015625 L 16.953125 183.519531 L 12.65625 184.0625 L 7.675781 180.09375 L -5.664062 171.929688 L -10.960938 169.875 L -12.375 169.625 L -13.910156 169.113281 L -13.992188 169.132812 Z M -20.253906 145.390625 "/>
<path style=" stroke:none;fill-rule:nonzero;fill:rgb(39.99939%,39.99939%,39.99939%);fill-opacity:0.3;" d="M 7.917969 138.132812 L 10.003906 136.105469 L 10.929688 134.875 L 11.484375 132.980469 L 11.578125 131.75 L 11.296875 129.59375 L 10.320312 128.101562 L 9.667969 127 L 7.949219 125.773438 L 7.160156 123.132812 L 24.609375 119.160156 L 25.195312 121.753906 L 24.453125 124.664062 L 24.871094 127.335938 L 28.359375 131.265625 L 32.253906 131.886719 L 46.722656 182.265625 L 46.296875 183.484375 L 45.160156 184.699219 L 25.082031 190.265625 L 22.945312 189.320312 L 21.519531 187.972656 Z M 7.917969 138.132812 "/>
<path style=" stroke:none;fill-rule:nonzero;fill:rgb(39.99939%,39.99939%,39.99939%);fill-opacity:0.3;" d="M 35.050781 116.316406 L 56.21875 110.996094 L 74.109375 174.085938 L 51.582031 180.082031 L 37.226562 129.679688 L 38.550781 128.261719 L 39.207031 125.273438 L 38.871094 122.289062 L 37.710938 120.324219 L 35.96875 119.304688 Z M 35.050781 116.316406 "/>
<path style=" stroke:none;fill-rule:nonzero;fill:rgb(39.99939%,39.99939%,39.99939%);fill-opacity:0.3;" d="M 51.640625 188.996094 L 77.890625 181.4375 L 96.910156 247.433594 L 60.382812 218.667969 Z M 51.640625 188.996094 "/>
<path style=" stroke:none;fill-rule:nonzero;fill:rgb(39.99939%,39.99939%,39.99939%);fill-opacity:0.3;" d="M 32.679688 194.25 L 47.195312 190.027344 L 54.804688 212.117188 Z M 32.679688 194.25 "/>
<path style=" stroke:none;fill-rule:nonzero;fill:rgb(39.99939%,39.99939%,39.99939%);fill-opacity:0.3;" d="M 10.417969 46.714844 L 38.296875 49.375 L 52.433594 96.371094 L 27.683594 102.78125 L 27.371094 101.316406 L 28.5 100.621094 L 30.242188 98.40625 L 30.957031 95.726562 L 30.539062 92.992188 L 29.050781 90.617188 L 26.71875 88.964844 L 23.898438 88.285156 L 22.515625 88.476562 Z M 10.417969 46.714844 "/>
<path style=" stroke:none;fill-rule:nonzero;fill:rgb(39.99939%,39.99939%,39.99939%);fill-opacity:0.3;" d="M -19.78125 41.8125 L 8.039062 46.433594 L 19.835938 89.359375 L 18.515625 90.09375 L 16.773438 92.308594 L 16.054688 94.984375 L 16.472656 97.71875 L 17.960938 100.09375 L 20.292969 101.75 L 21.65625 102.054688 L 22.101562 104.167969 L 2.382812 108.78125 L 1.660156 106.730469 L 2.566406 105.4375 L 3.28125 102.757812 L 2.863281 100.023438 L 1.375 97.648438 L -0.957031 95.996094 L -3.777344 95.316406 L -4.800781 95.359375 Z M -19.78125 41.8125 "/>
<path style=" stroke:none;fill-rule:nonzero;fill:rgb(39.99939%,39.99939%,39.99939%);fill-opacity:0.3;" d="M 76.476562 236.828125 L 77.011719 237.238281 L 84.71875 243.105469 L 80 240.15625 Z M 76.476562 236.828125 "/>
<g clip-path="url(#clip1)" clip-rule="nonzero">
<path style=" stroke:none;fill-rule:nonzero;fill:rgb(39.99939%,39.99939%,39.99939%);fill-opacity:0.3;" d="M 247.410156 368.097656 L 257.253906 377.9375 L 242.015625 392.597656 L 240.371094 393.050781 L 238.617188 392.53125 L 192.574219 349.734375 L 205.777344 336.394531 L 243.089844 372.292969 L 245.414062 370.035156 Z M 247.410156 368.097656 "/>
</g>
<g clip-path="url(#clip2)" clip-rule="nonzero">
<path style=" stroke:none;fill-rule:nonzero;fill:rgb(39.99939%,39.99939%,39.99939%);fill-opacity:0.3;" d="M 326.765625 343.917969 L 351.953125 318.34375 L 364.210938 356.136719 L 356.226562 370.382812 Z M 326.765625 343.917969 "/>
</g>
<g clip-path="url(#clip3)" clip-rule="nonzero">
<path style=" stroke:none;fill-rule:nonzero;fill:rgb(39.99939%,39.99939%,39.99939%);fill-opacity:0.3;" d="M 310.089844 360.523438 L 323.515625 347.152344 L 353.914062 374.460938 L 344.359375 391.308594 Z M 310.089844 360.523438 "/>
</g>
<g clip-path="url(#clip4)" clip-rule="nonzero">
<path style=" stroke:none;fill-rule:nonzero;fill:rgb(39.99939%,39.99939%,39.99939%);fill-opacity:0.3;" d="M 175.375 366.53125 L 189.75 352.089844 L 237.941406 397.125 L 224.5625 410.628906 Z M 175.375 366.53125 "/>
</g>
<path style=" stroke:none;fill-rule:nonzero;fill:rgb(39.99939%,39.99939%,39.99939%);fill-opacity:0.3;" d="M 227.058594 316.085938 L 240.449219 302.449219 L 289.402344 345.652344 L 275.320312 359.585938 Z M 227.058594 316.085938 "/>
<path style=" stroke:none;fill-rule:nonzero;fill:rgb(39.99939%,39.99939%,39.99939%);fill-opacity:0.3;" d="M 242.421875 299.988281 L 256.75 286.488281 L 305.0625 330.324219 L 292.117188 343.578125 Z M 242.421875 299.988281 "/>
<path style=" stroke:none;fill-rule:nonzero;fill:rgb(39.99939%,39.99939%,39.99939%);fill-opacity:0.3;" d="M 260.824219 283.109375 L 273.910156 270.933594 L 321.988281 313.683594 L 308.335938 327.886719 Z M 260.824219 283.109375 "/>
<path style=" stroke:none;fill-rule:nonzero;fill:rgb(39.99939%,39.99939%,39.99939%);fill-opacity:0.3;" d="M 322.21875 223.171875 L 344.324219 291.90625 L 325.117188 310.792969 L 276.613281 268.769531 Z M 322.21875 223.171875 "/>
<g clip-path="url(#clip5)" clip-rule="nonzero">
<path style=" stroke:none;fill-rule:nonzero;fill:rgb(39.99939%,39.99939%,39.99939%);fill-opacity:0.3;" d="M 247.476562 368.03125 L 209.984375 332.273438 L 223.402344 319.140625 L 268.121094 360.433594 L 269.546875 362.320312 L 270.121094 364.078125 L 269.695312 366.105469 L 257.320312 377.875 Z M 247.476562 368.03125 "/>
</g>
<g clip-path="url(#clip6)" clip-rule="nonzero">
<path style=" stroke:none;fill-rule:nonzero;fill:rgb(39.99939%,39.99939%,39.99939%);fill-opacity:0.3;" d="M 277.605469 363.09375 L 345.195312 294.179688 L 351.632812 315.25 L 291.152344 374.96875 Z M 277.605469 363.09375 "/>
</g>
<g clip-path="url(#clip7)" clip-rule="nonzero">
<path style=" stroke:none;fill-rule:nonzero;fill:rgb(39.99939%,39.99939%,39.99939%);fill-opacity:0.3;" d="M 84.648438 389.84375 L 101.792969 364.851562 L 119.917969 338.4375 L 151.808594 442.035156 L 151.183594 445.003906 L 149.925781 447.015625 L 148.316406 448.773438 L 145.417969 450.152344 L 142.519531 450.308594 L 139.863281 449.546875 L 136.800781 446.234375 L 134.496094 443.546875 L 94.597656 398.78125 L 87.597656 393.03125 Z M 84.648438 389.84375 "/>
</g>
<g clip-path="url(#clip8)" clip-rule="nonzero">
<path style=" stroke:none;fill-rule:nonzero;fill:rgb(39.99939%,39.99939%,39.99939%);fill-opacity:0.3;" d="M 136.015625 340.359375 L 138.996094 339.746094 L 141.375 340.097656 L 143.507812 341.488281 L 151.570312 349.585938 L 169.035156 365.417969 L 148.410156 385.304688 Z M 136.015625 340.359375 "/>
</g>
<g clip-path="url(#clip9)" clip-rule="nonzero">
<path style=" stroke:none;fill-rule:nonzero;fill:rgb(39.99939%,39.99939%,39.99939%);fill-opacity:0.3;" d="M 129.648438 322.558594 L 141.238281 306.121094 L 185.960938 348.460938 L 172.023438 362.847656 L 150.976562 344.222656 L 143.660156 337.6875 L 141.957031 336.636719 L 140.039062 336.3125 L 134.617188 336.542969 Z M 129.648438 322.558594 "/>
</g>
<path style=" stroke:none;fill-rule:nonzero;fill:rgb(39.99939%,39.99939%,39.99939%);fill-opacity:0.3;" d="M 143.902344 301.679688 L 144.3125 291.277344 L 151.28125 281.539062 L 159.585938 267.851562 L 161.558594 265.070312 L 219.457031 314.445312 L 204.808594 329.054688 L 172.992188 299.9375 L 171.957031 301.417969 L 171.003906 302.777344 L 202.09375 332.058594 L 188.578125 345.453125 Z M 143.902344 301.679688 "/>
<path style=" stroke:none;fill-rule:nonzero;fill:rgb(39.99939%,39.99939%,39.99939%);fill-opacity:0.3;" d="M 165.097656 261.714844 L 178.496094 240.410156 L 184.613281 231.398438 L 184.96875 230.917969 L 192.113281 226.554688 L 253.171875 282.652344 L 239.375 296.179688 L 191.355469 253.390625 L 190.175781 254.601562 L 189 255.8125 L 236.671875 298.75 L 222.589844 312.007812 Z M 165.097656 261.714844 "/>
<path style=" stroke:none;fill-rule:nonzero;fill:rgb(39.99939%,39.99939%,39.99939%);fill-opacity:0.3;" d="M 250.453125 248.835938 L 270.417969 265.96875 L 255.761719 279.632812 L 236.082031 261.6875 Z M 250.453125 248.835938 "/>
<path style=" stroke:none;fill-rule:nonzero;fill:rgb(39.99939%,39.99939%,39.99939%);fill-opacity:0.3;" d="M 198.230469 222.617188 L 303.074219 159.769531 L 320.378906 213.804688 L 272.585938 261.097656 L 251.328125 241.871094 L 234.074219 258.175781 Z M 198.230469 222.617188 "/>
<path style=" stroke:none;fill-rule:nonzero;fill:rgb(39.99939%,39.99939%,39.99939%);fill-opacity:0.3;" d="M 279.542969 90.410156 L 279.976562 90.261719 L 281.21875 90.441406 L 282.9375 91.707031 L 296.546875 140.195312 L 294.519531 144.5625 L 289.710938 147.894531 L 209.898438 199.144531 L 264.058594 113.4375 Z M 279.542969 90.410156 "/>
<path style=" stroke:none;fill-rule:nonzero;fill:rgb(39.99939%,39.99939%,39.99939%);fill-opacity:0.3;" d="M -25.085938 286.460938 L -33.273438 274.933594 L -36.410156 270.347656 L -39.214844 265.945312 L -14.515625 171.433594 L -6.800781 173.972656 L 16.433594 188.214844 L 23.363281 194.269531 L 16.351562 201.957031 L 2.269531 221.363281 L -0.761719 226.683594 L -21.542969 292.328125 Z M -25.085938 286.460938 "/>
<path style=" stroke:none;fill-rule:nonzero;fill:rgb(39.99939%,39.99939%,39.99939%);fill-opacity:0.3;" d="M -4.710938 182.007812 L 11.257812 185.859375 L 9.980469 190.277344 L 4.699219 189 L 3.804688 192.113281 L 9.078125 193.382812 L 7.632812 198.375 L -8.335938 194.523438 L -6.890625 189.53125 L -2.964844 190.480469 L -2.097656 187.363281 L -5.988281 186.425781 Z M -4.710938 182.007812 "/>
<path style=" stroke:none;fill-rule:nonzero;fill:rgb(39.99939%,39.99939%,39.99939%);fill-opacity:0.3;" d="M -8.644531 195.316406 L 7.324219 199.167969 L 6.042969 203.585938 L 0.761719 202.3125 L -0.132812 205.421875 L 5.144531 206.695312 L 3.695312 211.6875 L -12.273438 207.835938 L -10.824219 202.84375 L -6.902344 203.789062 L -6.035156 200.671875 L -9.925781 199.734375 Z M -8.644531 195.316406 "/>
<path style=" stroke:none;fill-rule:nonzero;fill:rgb(39.99939%,39.99939%,39.99939%);fill-opacity:0.3;" d="M -13.476562 208.789062 L 2.492188 212.640625 L 1.214844 217.058594 L -4.066406 215.785156 L -4.960938 218.894531 L 0.3125 220.164062 L -1.132812 225.160156 L -17.101562 221.308594 L -15.65625 216.316406 L -11.730469 217.261719 L -10.863281 214.144531 L -14.753906 213.207031 Z M -13.476562 208.789062 "/>
<g clip-path="url(#clip10)" clip-rule="nonzero">
<path style=" stroke:none;fill-rule:nonzero;fill:rgb(39.99939%,39.99939%,39.99939%);fill-opacity:0.3;" d="M -36.984375 369.011719 L -22.664062 320.488281 L -21.8125 317.507812 L -18.445312 316.679688 L -10.492188 328.21875 L -1.457031 339.753906 L 11.308594 350.421875 L 16.128906 354.152344 L 66.667969 388.652344 L 74.308594 394.554688 L 68.808594 401.996094 L 61.007812 410.28125 L 53.429688 415.351562 L 42.621094 419.609375 L 17.339844 427.671875 L -13.039062 436.441406 L -22.308594 439.058594 L -25.707031 440.050781 L -29.363281 441.542969 L -33.671875 442.664062 L -37.457031 443.785156 L -42.945312 445.527344 L -49.082031 447.640625 L -54.304688 449.628906 L -58.746094 450.875 L -60.574219 450.628906 L -62.011719 449.761719 L -63.453125 447.78125 L -64.195312 445.019531 L -63.710938 442.242188 L -62.164062 436.871094 L -60.328125 431.632812 L -48.695312 402.335938 L -25.984375 409.902344 L -25.34375 408.007812 L -24.707031 406.117188 L -47.078125 398.578125 Z M -36.984375 369.011719 "/>
</g>
<path style=" stroke:none;fill-rule:nonzero;fill:rgb(39.99939%,39.99939%,39.99939%);fill-opacity:0.3;" d="M 77.152344 343.191406 L 79.953125 344.742188 L 78.277344 347.636719 L 80.167969 348.832031 L 81.949219 345.851562 L 84.746094 347.402344 L 78.851562 356.980469 L 76.050781 355.429688 L 77.652344 352.824219 L 75.632812 351.796875 L 74.054688 354.320312 L 71.257812 352.769531 Z M 77.152344 343.191406 "/>
<g clip-path="url(#clip11)" clip-rule="nonzero">
<path style=" stroke:none;fill-rule:nonzero;fill:rgb(39.99939%,39.99939%,39.99939%);fill-opacity:0.3;" d="M 86.398438 348.265625 L 89.195312 349.816406 L 87.519531 352.710938 L 89.410156 353.90625 L 91.191406 350.925781 L 93.992188 352.476562 L 88.09375 362.054688 L 85.296875 360.503906 L 86.898438 357.898438 L 84.878906 356.871094 L 83.300781 359.394531 L 80.5 357.84375 Z M 86.398438 348.265625 "/>
</g>
<g clip-path="url(#clip12)" clip-rule="nonzero">
<path style=" stroke:none;fill-rule:nonzero;fill:rgb(39.99939%,39.99939%,39.99939%);fill-opacity:0.3;" d="M 1.339844 253.285156 L 1.75 240.257812 L 4.957031 229.527344 L 16.828125 212.652344 L 21.148438 206.714844 L 27.445312 199.488281 L 76.476562 236.828125 L 80 240.15625 L 84.71875 243.105469 L 98.683594 253.738281 L 103.121094 269.445312 L 75.539062 288.601562 L 76.195312 279.230469 L 74.621094 279.492188 L 73.050781 279.753906 L 72.214844 290.628906 L 67.828125 294.574219 L 68.941406 295.722656 L 69.148438 295.933594 L 70.445312 297.273438 L 103.980469 272.554688 L 117.984375 322.679688 L 76.640625 381.976562 L 36.132812 354.496094 L 28.988281 350.53125 L 18.148438 344.515625 L 8.8125 336.628906 L 5.140625 332.210938 L -4.960938 317.730469 L -13.808594 302.65625 Z M 1.339844 253.285156 "/>
</g>
<g clip-path="url(#clip13)" clip-rule="nonzero">
<path style=" stroke:none;fill-rule:nonzero;fill:rgb(39.99939%,39.99939%,39.99939%);fill-opacity:0.3;" d="M 567.757812 2.679688 L 564.304688 1.894531 L 562.925781 1.53125 L 559.644531 1.195312 L 556.617188 1.726562 L 554.785156 2.484375 L 552.734375 3.476562 L 546.714844 10.34375 L 543.320312 13.882812 L 541.789062 15.132812 L 539.320312 16.597656 L 537.460938 18.054688 L 535.046875 18.679688 L 532.636719 19.203125 L 529.898438 19.3125 L 518.167969 18.285156 L 511.152344 17.542969 L 504.878906 18.246094 L 499.707031 18.949219 L 496.011719 19.097656 L 492.601562 19.230469 L 490.664062 19.308594 L 485.125 19.136719 L 480.140625 18.441406 L 476.625 18.125 L 472.300781 16.359375 L 468.574219 14.703125 L 465.71875 12.417969 L 458.359375 -1.191406 L 456.492188 -2.4375 L 453.863281 -3.058594 L 440.378906 -3.976562 L 436.980469 -3.140625 L 434.023438 -3.035156 L 431.609375 -3.757812 L 426.785156 -5.210938 L 421.410156 -6.828125 L 419.542969 -7.8125 L 431.054688 -7.148438 L 442.917969 -7.746094 L 442.921875 -8.09375 L 442.929688 -9.074219 L 442.964844 -11.519531 L 442.988281 -12.296875 L 442.8125 -18.621094 L 442.757812 -19.714844 L 298.894531 -27.152344 L 294.492188 -28.957031 L 288.164062 -32.363281 L 283.152344 -36.042969 L 277.753906 -41.03125 L 275.863281 -45.636719 L 274.777344 -51.90625 L 269.28125 -57.292969 L 259.769531 -94.730469 L 260.019531 -96.832031 L 261.578125 -99.128906 L 263.917969 -100.578125 L 408.808594 -93.113281 L 439.320312 -90.898438 L 442.902344 -89.808594 L 444.824219 -87.992188 L 447.511719 -86.175781 L 449.941406 -84.847656 L 453.011719 -84.605469 L 461.335938 -75.402344 L 466.09375 -61.183594 L 476.855469 -44.828125 L 480.75 -43.191406 L 484.585938 -41.984375 L 487.914062 -41.5 L 491.492188 -41.75 L 496.09375 -42.601562 L 498.140625 -42.484375 L 500.828125 -41.757812 L 503.640625 -39.945312 L 507.167969 -36.792969 L 510.425781 -34.738281 L 512.363281 -32.578125 L 514.523438 -30.984375 L 517.722656 -28.925781 L 523.09375 -26.871094 L 535.144531 -23.117188 L 556.238281 -16.691406 L 577.246094 -3.042969 L 582.292969 2.777344 L 586.597656 8.839844 L 590.410156 14.648438 L 593.5625 19.597656 L 594.636719 21.625 L 595.078125 23.480469 L 595.210938 26.050781 L 594.070312 72.050781 L 593.527344 76.9375 L 592.972656 80.695312 L 591.5625 84.226562 L 588.964844 88.957031 L 586.628906 91.679688 L 583.355469 95.246094 L 578.382812 99.519531 L 574.410156 102.425781 L 569.667969 104.171875 L 563.871094 105.578125 L 558.59375 106.09375 L 522.429688 100.46875 L 523.480469 95.90625 L 559.234375 100.414062 L 563.695312 99.296875 L 567.382812 97.835938 L 570.894531 96.238281 L 574.429688 93.609375 L 577.789062 90.414062 L 580.558594 86.609375 L 582.390625 82.542969 L 583.609375 78.332031 L 584.675781 73.527344 L 585.386719 68.632812 L 585.710938 65.203125 L 584.964844 59.59375 L 584.65625 56.835938 L 586.007812 37.835938 L 586.085938 32.019531 L 585.339844 27.585938 L 583.609375 21.734375 L 581.875 17.515625 L 579.398438 13.636719 L 576.6875 10.035156 L 572.769531 5.636719 Z M 567.757812 2.679688 "/>
</g>
<g clip-path="url(#clip14)" clip-rule="nonzero">
<path style=" stroke:none;fill-rule:nonzero;fill:rgb(39.99939%,39.99939%,39.99939%);fill-opacity:0.3;" d="M 355.078125 58.023438 L 364.25 52.9375 L 372.367188 63.082031 L 365.191406 70.632812 L 363.503906 68.894531 L 356.917969 61.214844 Z M 355.078125 58.023438 "/>
</g>
<g clip-path="url(#clip15)" clip-rule="nonzero">
<path style=" stroke:none;fill-rule:nonzero;fill:rgb(39.99939%,39.99939%,39.99939%);fill-opacity:0.3;" d="M 320.199219 -8.535156 L 362.625 -6.1875 L 360.921875 25.695312 L 318.96875 22.453125 Z M 320.199219 -8.535156 "/>
</g>
<path style=" stroke:none;fill-rule:nonzero;fill:rgb(39.99939%,39.99939%,39.99939%);fill-opacity:0.3;" d="M 323.691406 152.851562 L 356.339844 132.726562 L 356.152344 179.363281 L 330.910156 176.691406 Z M 323.691406 152.851562 "/>
<g clip-path="url(#clip16)" clip-rule="nonzero">
<path style=" stroke:none;fill-rule:nonzero;fill:rgb(39.99939%,39.99939%,39.99939%);fill-opacity:0.3;" d="M 306.285156 87.125 L 367.464844 94.414062 L 368.398438 95.296875 L 368.679688 96.625 L 368.027344 97.335938 L 318.140625 125.683594 Z M 306.285156 87.125 "/>
</g>
<g clip-path="url(#clip17)" clip-rule="nonzero">
<path style=" stroke:none;fill-rule:nonzero;fill:rgb(39.99939%,39.99939%,39.99939%);fill-opacity:0.3;" d="M 355.449219 242.765625 L 371.144531 241.257812 L 372.015625 238.992188 L 369.839844 234.097656 L 367.730469 231.355469 L 367.777344 230.53125 L 368.386719 229.738281 L 368.671875 229.25 L 370.164062 228.898438 L 371.023438 229 L 371.96875 229.449219 L 372.445312 230.125 L 372.570312 230.613281 L 372.4375 231.265625 L 371.972656 231.398438 L 371.945312 233.613281 L 374.34375 239.050781 L 374.660156 239.875 L 376.960938 245.789062 L 357.199219 253.933594 Z M 355.449219 242.765625 "/>
</g>
<g clip-path="url(#clip18)" clip-rule="nonzero">
<path style=" stroke:none;fill-rule:nonzero;fill:rgb(39.99939%,39.99939%,39.99939%);fill-opacity:0.3;" d="M 363.78125 208.832031 L 367.3125 210.613281 L 356.988281 233.835938 L 352.988281 231.609375 Z M 363.78125 208.832031 "/>
</g>
<path style=" stroke:none;fill-rule:nonzero;fill:rgb(39.99939%,39.99939%,39.99939%);fill-opacity:0.3;" d="M 345.164062 206.734375 L 356.664062 184.183594 L 359.488281 186.1875 L 348.460938 208.960938 Z M 345.164062 206.734375 "/>
<g clip-path="url(#clip19)" clip-rule="nonzero">
<path style=" stroke:none;fill-rule:nonzero;fill:rgb(39.99939%,39.99939%,39.99939%);fill-opacity:0.3;" d="M 359.761719 194.898438 L 363.527344 196.457031 L 352.972656 219.902344 L 348.734375 218.121094 Z M 359.761719 194.898438 "/>
</g>
<path style=" stroke:none;fill-rule:nonzero;fill:rgb(39.99939%,39.99939%,39.99939%);fill-opacity:0.3;" d="M 138.539062 5.277344 L 172.664062 7.882812 L 169.113281 53.777344 L 131.199219 49.503906 Z M 138.539062 5.277344 "/>
<path style=" stroke:none;fill-rule:nonzero;fill:rgb(39.99939%,39.99939%,39.99939%);fill-opacity:0.3;" d="M 75.894531 -73.390625 L 149.371094 -108.34375 L 150.777344 -108.121094 L 152.183594 -107.679688 L 152.652344 -106.570312 L 127.890625 35.703125 Z M 75.894531 -73.390625 "/>
<path style=" stroke:none;fill-rule:nonzero;fill:rgb(39.99939%,39.99939%,39.99939%);fill-opacity:0.3;" d="M 42.976562 15.238281 L 123.085938 36.679688 L 126.371094 41.78125 L 127.074219 43.558594 L 126.144531 48 L 48.859375 36.105469 Z M 42.976562 15.238281 "/>
<path style=" stroke:none;fill-rule:nonzero;fill:rgb(39.99939%,39.99939%,39.99939%);fill-opacity:0.3;" d="M 95.816406 -18.449219 L 120.503906 32.90625 L 40.160156 9.910156 L 39.53125 6.78125 L 39.683594 5.25 Z M 95.816406 -18.449219 "/>
<path style=" stroke:none;fill-rule:nonzero;fill:rgb(39.99939%,39.99939%,39.99939%);fill-opacity:0.3;" d="M 198.058594 -7.96875 L 202.683594 -1.890625 L 196.53125 2.5 L 195.171875 0.625 L 196.742188 -0.515625 L 195.078125 -2.804688 L 188.277344 2.136719 L 184.121094 -3.578125 L 189.335938 -7.40625 L 190.664062 -5.542969 L 188.632812 -4.054688 L 190.03125 -2.132812 Z M 198.058594 -7.96875 "/>
<path style=" stroke:none;fill-rule:nonzero;fill:rgb(39.99939%,39.99939%,39.99939%);fill-opacity:0.3;" d="M 216.515625 6.023438 L 210.003906 10.261719 L 205.53125 4.320312 L 207.539062 3.070312 L 208.703125 4.589844 L 211.152344 3.070312 L 206.113281 -3.507812 L 212.234375 -7.308594 L 216.136719 -2.269531 L 214.144531 -1.054688 L 212.628906 -3.019531 L 210.566406 -1.738281 Z M 216.515625 6.023438 "/>
<path style=" stroke:none;fill-rule:nonzero;fill:rgb(39.99939%,39.99939%,39.99939%);fill-opacity:0.3;" d="M -43.113281 -19.5625 L -23.265625 -28.292969 L 22.984375 -2.78125 L 34.230469 35.304688 L -16.925781 27.25 Z M -43.113281 -19.5625 "/>
<path style=" stroke:none;fill-rule:nonzero;fill:rgb(39.99939%,39.99939%,39.99939%);fill-opacity:0.3;" d="M 176.222656 8.527344 L 176.484375 5.273438 L 138.992188 2.578125 L 147.039062 -46 L 182.875 -44.617188 L 179.027344 8.820312 L 221.574219 13.277344 L 224.039062 -43.792969 L 250.519531 -43.074219 L 266.398438 20.644531 L 265.675781 26.695312 L 263.3125 32.578125 L 260.039062 36.902344 L 253.863281 41.910156 L 250.121094 45.121094 L 245.25 48.378906 L 239.117188 51.804688 L 232.621094 54.550781 L 225.074219 56.992188 L 215.234375 58.386719 L 205.574219 58.226562 L 199.515625 57.519531 L 181.53125 55.414062 L 183.066406 44.238281 L 181.707031 44.324219 L 180.351562 44.414062 L 179.886719 55.140625 L 172.523438 54.359375 Z M 176.222656 8.527344 "/>
<path style=" stroke:none;fill-rule:nonzero;fill:rgb(39.99939%,39.99939%,39.99939%);fill-opacity:0.3;" d="M 128.144531 114.566406 L 161.6875 106.011719 L 171.660156 140.070312 L 138.375 148.75 Z M 128.144531 114.566406 "/>
<path style=" stroke:none;fill-rule:nonzero;fill:rgb(39.99939%,39.99939%,39.99939%);fill-opacity:0.3;" d="M 156.132812 65.953125 L 272.894531 83.117188 L 275.1875 84.019531 L 276.335938 86.554688 L 275.957031 89.8125 L 202.679688 201.308594 L 196.804688 207.132812 L 172.617188 125.4375 L 196.109375 116.492188 L 196.53125 113.992188 L 196.957031 111.492188 L 171.332031 121.25 Z M 156.132812 65.953125 "/>
<path style=" stroke:none;fill-rule:nonzero;fill:rgb(39.99939%,39.99939%,39.99939%);fill-opacity:0.3;" d="M 159.585938 267.851562 L 161.371094 264.910156 L 161.558594 265.070312 Z M 159.585938 267.851562 "/>
<path style=" stroke:none;fill-rule:nonzero;fill:rgb(39.99939%,39.99939%,39.99939%);fill-opacity:0.3;" d="M 178.496094 240.410156 L 184.152344 231.417969 L 184.96875 230.917969 L 184.613281 231.398438 Z M 178.496094 240.410156 "/>
<path style=" stroke:none;fill-rule:nonzero;fill:rgb(39.99939%,39.99939%,39.99939%);fill-opacity:0.3;" d="M 278.355469 90.808594 L 279.542969 90.410156 L 264.058594 113.4375 Z M 278.355469 90.808594 "/>
<path style=" stroke:none;fill-rule:nonzero;fill:rgb(39.99939%,39.99939%,39.99939%);fill-opacity:0.3;" d="M 160.957031 246.441406 L 177.324219 236.289062 L 165.089844 255.5 L 163.957031 253.464844 L 162.242188 250.085938 Z M 160.957031 246.441406 "/>
<path style=" stroke:none;fill-rule:nonzero;fill:rgb(39.99939%,39.99939%,39.99939%);fill-opacity:0.3;" d="M 121.917969 271.828125 L 157.824219 247.660156 L 160.378906 253.792969 L 163.234375 258.25 L 140.460938 290.046875 Z M 121.917969 271.828125 "/>
<path style=" stroke:none;fill-rule:nonzero;fill:rgb(39.99939%,39.99939%,39.99939%);fill-opacity:0.3;" d="M 116.511719 275.078125 L 119.785156 273.183594 L 139.183594 293.289062 L 126.953125 308.570312 Z M 116.511719 275.078125 "/>
<path style=" stroke:none;fill-rule:nonzero;fill:rgb(39.99939%,39.99939%,39.99939%);fill-opacity:0.3;" d="M 97.898438 204.910156 L 143.507812 194.980469 L 153.890625 233.578125 L 112.617188 258.625 Z M 97.898438 204.910156 "/>
<path style=" stroke:none;fill-rule:nonzero;fill:rgb(39.99939%,39.99939%,39.99939%);fill-opacity:0.3;" d="M 137.839844 153.378906 L 173.367188 144.140625 L 192.535156 209.972656 L 157.019531 231.277344 Z M 137.839844 153.378906 "/>
<path style=" stroke:none;fill-rule:nonzero;fill:rgb(39.99939%,39.99939%,39.99939%);fill-opacity:0.3;" d="M 105.070312 141.207031 L 129.804688 135.203125 L 142.84375 192.074219 L 120.914062 196.832031 Z M 105.070312 141.207031 "/>
<path style=" stroke:none;fill-rule:nonzero;fill:rgb(39.99939%,39.99939%,39.99939%);fill-opacity:0.3;" d="M 81.523438 146.921875 L 101.589844 142.050781 L 117.4375 197.605469 L 97.277344 201.996094 Z M 81.523438 146.921875 "/>
<path style=" stroke:none;fill-rule:nonzero;fill:rgb(39.99939%,39.99939%,39.99939%);fill-opacity:0.3;" d="M 63.871094 89.785156 L 85.078125 83.984375 L 100.867188 139.421875 L 80.355469 144.449219 Z M 63.871094 89.785156 "/>
<path style=" stroke:none;fill-rule:nonzero;fill:rgb(39.99939%,39.99939%,39.99939%);fill-opacity:0.3;" d="M 88.492188 82.988281 L 111.90625 76.527344 L 129.089844 132.503906 L 104.308594 138.53125 Z M 88.492188 82.988281 "/>
<path style=" stroke:none;fill-rule:nonzero;fill:rgb(39.99939%,39.99939%,39.99939%);fill-opacity:0.3;" d="M 110.457031 59.640625 L 150.183594 64.960938 L 160.917969 101.625 L 125.796875 110.507812 Z M 110.457031 59.640625 "/>
<path style=" stroke:none;fill-rule:nonzero;fill:rgb(39.99939%,39.99939%,39.99939%);fill-opacity:0.3;" d="M 62.027344 86.175781 L 51.429688 51.429688 L 106.753906 58.972656 L 110.621094 73.421875 Z M 62.027344 86.175781 "/>
<path style="fill-rule:nonzero;fill:rgb(39.99939%,39.99939%,39.99939%);fill-opacity:1;stroke-width:0.03;stroke-linecap:square;stroke-linejoin:miter;stroke:rgb(39.99939%,39.99939%,39.99939%);stroke-opacity:1;stroke-miterlimit:3.239307;" d="M 202.144531 127.566406 L 235.6875 119.011719 L 245.660156 153.070312 L 212.375 161.75 Z M 202.144531 127.566406 " transform="matrix(1,0,0,1,-74,-13)"/>
<path style="fill-rule:nonzero;fill:rgb(39.99939%,39.99939%,39.99939%);fill-opacity:1;stroke-width:0.03;stroke-linecap:square;stroke-linejoin:miter;stroke:rgb(39.99939%,39.99939%,39.99939%);stroke-opacity:1;stroke-miterlimit:3.239307;" d="M 230.132812 78.953125 L 346.894531 96.117188 L 349.1875 97.019531 L 350.335938 99.554688 L 349.957031 102.8125 L 276.679688 214.308594 L 270.804688 220.132812 L 246.617188 138.4375 L 270.109375 129.492188 L 270.53125 126.992188 L 270.957031 124.492188 L 245.332031 134.25 Z M 230.132812 78.953125 " transform="matrix(1,0,0,1,-74,-13)"/>
<path style="fill-rule:nonzero;fill:rgb(39.99939%,39.99939%,39.99939%);fill-opacity:1;stroke-width:0.03;stroke-linecap:square;stroke-linejoin:miter;stroke:rgb(39.99939%,39.99939%,39.99939%);stroke-opacity:1;stroke-miterlimit:3.239307;" d="M 233.585938 280.851562 L 235.371094 277.910156 L 235.558594 278.070312 Z M 233.585938 280.851562 " transform="matrix(1,0,0,1,-74,-13)"/>
<path style="fill-rule:nonzero;fill:rgb(39.99939%,39.99939%,39.99939%);fill-opacity:1;stroke-width:0.03;stroke-linecap:square;stroke-linejoin:miter;stroke:rgb(39.99939%,39.99939%,39.99939%);stroke-opacity:1;stroke-miterlimit:3.239307;" d="M 252.496094 253.410156 L 258.152344 244.417969 L 258.96875 243.917969 L 258.613281 244.398438 Z M 252.496094 253.410156 " transform="matrix(1,0,0,1,-74,-13)"/>
<path style="fill-rule:nonzero;fill:rgb(39.99939%,39.99939%,39.99939%);fill-opacity:1;stroke-width:0.03;stroke-linecap:square;stroke-linejoin:miter;stroke:rgb(39.99939%,39.99939%,39.99939%);stroke-opacity:1;stroke-miterlimit:3.239307;" d="M 352.355469 103.808594 L 353.542969 103.410156 L 338.058594 126.4375 Z M 352.355469 103.808594 " transform="matrix(1,0,0,1,-74,-13)"/>
<path style="fill-rule:nonzero;fill:rgb(39.99939%,39.99939%,39.99939%);fill-opacity:1;stroke-width:0.03;stroke-linecap:square;stroke-linejoin:miter;stroke:rgb(39.99939%,39.99939%,39.99939%);stroke-opacity:1;stroke-miterlimit:3.239307;" d="M 234.957031 259.441406 L 251.324219 249.289062 L 239.089844 268.5 L 237.957031 266.464844 L 236.242188 263.085938 Z M 234.957031 259.441406 " transform="matrix(1,0,0,1,-74,-13)"/>
<path style="fill-rule:nonzero;fill:rgb(39.99939%,39.99939%,39.99939%);fill-opacity:1;stroke-width:0.03;stroke-linecap:square;stroke-linejoin:miter;stroke:rgb(39.99939%,39.99939%,39.99939%);stroke-opacity:1;stroke-miterlimit:3.239307;" d="M 195.917969 284.828125 L 231.824219 260.660156 L 234.378906 266.792969 L 237.234375 271.25 L 214.460938 303.046875 Z M 195.917969 284.828125 " transform="matrix(1,0,0,1,-74,-13)"/>
<path style="fill-rule:nonzero;fill:rgb(39.99939%,39.99939%,39.99939%);fill-opacity:1;stroke-width:0.03;stroke-linecap:square;stroke-linejoin:miter;stroke:rgb(39.99939%,39.99939%,39.99939%);stroke-opacity:1;stroke-miterlimit:3.239307;" d="M 190.511719 288.078125 L 193.785156 286.183594 L 213.183594 306.289062 L 200.953125 321.570312 Z M 190.511719 288.078125 " transform="matrix(1,0,0,1,-74,-13)"/>
<path style="fill-rule:nonzero;fill:rgb(39.99939%,39.99939%,39.99939%);fill-opacity:1;stroke-width:0.03;stroke-linecap:square;stroke-linejoin:miter;stroke:rgb(39.99939%,39.99939%,39.99939%);stroke-opacity:1;stroke-miterlimit:3.239307;" d="M 171.898438 217.910156 L 217.507812 207.980469 L 227.890625 246.578125 L 186.617188 271.625 Z M 171.898438 217.910156 " transform="matrix(1,0,0,1,-74,-13)"/>
<path style="fill-rule:nonzero;fill:rgb(39.99939%,39.99939%,39.99939%);fill-opacity:1;stroke-width:0.03;stroke-linecap:square;stroke-linejoin:miter;stroke:rgb(39.99939%,39.99939%,39.99939%);stroke-opacity:1;stroke-miterlimit:3.239307;" d="M 211.839844 166.378906 L 247.367188 157.140625 L 266.535156 222.972656 L 231.019531 244.277344 Z M 211.839844 166.378906 " transform="matrix(1,0,0,1,-74,-13)"/>
<path style="fill-rule:nonzero;fill:rgb(39.99939%,39.99939%,39.99939%);fill-opacity:1;stroke-width:0.03;stroke-linecap:square;stroke-linejoin:miter;stroke:rgb(39.99939%,39.99939%,39.99939%);stroke-opacity:1;stroke-miterlimit:3.239307;" d="M 179.070312 154.207031 L 203.804688 148.203125 L 216.84375 205.074219 L 194.914062 209.832031 Z M 179.070312 154.207031 " transform="matrix(1,0,0,1,-74,-13)"/>
<path style="fill-rule:nonzero;fill:rgb(39.99939%,39.99939%,39.99939%);fill-opacity:1;stroke-width:0.03;stroke-linecap:square;stroke-linejoin:miter;stroke:rgb(39.99939%,39.99939%,39.99939%);stroke-opacity:1;stroke-miterlimit:3.239307;" d="M 155.523438 159.921875 L 175.589844 155.050781 L 191.4375 210.605469 L 171.277344 214.996094 Z M 155.523438 159.921875 " transform="matrix(1,0,0,1,-74,-13)"/>
<path style="fill-rule:nonzero;fill:rgb(39.99939%,39.99939%,39.99939%);fill-opacity:1;stroke-width:0.03;stroke-linecap:square;stroke-linejoin:miter;stroke:rgb(39.99939%,39.99939%,39.99939%);stroke-opacity:1;stroke-miterlimit:3.239307;" d="M 137.871094 102.785156 L 159.078125 96.984375 L 174.867188 152.421875 L 154.355469 157.449219 Z M 137.871094 102.785156 " transform="matrix(1,0,0,1,-74,-13)"/>
<path style="fill-rule:nonzero;fill:rgb(39.99939%,39.99939%,39.99939%);fill-opacity:1;stroke-width:0.03;stroke-linecap:square;stroke-linejoin:miter;stroke:rgb(39.99939%,39.99939%,39.99939%);stroke-opacity:1;stroke-miterlimit:3.239307;" d="M 162.492188 95.988281 L 185.90625 89.527344 L 203.089844 145.503906 L 178.308594 151.53125 Z M 162.492188 95.988281 " transform="matrix(1,0,0,1,-74,-13)"/>
<path style="fill-rule:nonzero;fill:rgb(39.99939%,39.99939%,39.99939%);fill-opacity:1;stroke-width:0.03;stroke-linecap:square;stroke-linejoin:miter;stroke:rgb(39.99939%,39.99939%,39.99939%);stroke-opacity:1;stroke-miterlimit:3.239307;" d="M 184.457031 72.640625 L 224.183594 77.960938 L 234.917969 114.625 L 199.796875 123.507812 Z M 184.457031 72.640625 " transform="matrix(1,0,0,1,-74,-13)"/>
<path style="fill-rule:nonzero;fill:rgb(39.99939%,39.99939%,39.99939%);fill-opacity:1;stroke-width:0.03;stroke-linecap:square;stroke-linejoin:miter;stroke:rgb(39.99939%,39.99939%,39.99939%);stroke-opacity:1;stroke-miterlimit:3.239307;" d="M 136.027344 99.175781 L 125.429688 64.429688 L 180.753906 71.972656 L 184.621094 86.421875 Z M 136.027344 99.175781 " transform="matrix(1,0,0,1,-74,-13)"/>
<g clip-path="url(#clip20)" clip-rule="nonzero">
<path style=" stroke:none;fill-rule:evenodd;fill:rgb(85.096741%,85.096741%,81.959534%);fill-opacity:0.7;" d="M 35.464844 350 C 35.464844 344.839844 33.414062 339.886719 29.761719 336.238281 C 26.113281 332.585938 21.160156 330.535156 16 330.535156 C 10.839844 330.535156 5.886719 332.585938 2.238281 336.238281 C -1.414062 339.886719 -3.464844 344.839844 -3.464844 350 C -3.464844 355.160156 -1.414062 360.113281 2.238281 363.761719 C 5.886719 367.414062 10.839844 369.464844 16 369.464844 C 21.160156 369.464844 26.113281 367.414062 29.761719 363.761719 C 33.414062 360.113281 35.464844 355.160156 35.464844 350 Z M 35.464844 350 "/>
</g>
<g clip-path="url(#clip21)" clip-rule="nonzero">
<path style=" stroke:none;fill-rule:evenodd;fill:rgb(85.096741%,85.096741%,81.959534%);fill-opacity:0.7;" d="M 390.464844 275 C 390.464844 269.839844 388.414062 264.886719 384.761719 261.238281 C 381.113281 257.585938 376.160156 255.535156 371 255.535156 C 365.839844 255.535156 360.886719 257.585938 357.238281 261.238281 C 353.585938 264.886719 351.535156 269.839844 351.535156 275 C 351.535156 280.160156 353.585938 285.113281 357.238281 288.761719 C 360.886719 292.414062 365.839844 294.464844 371 294.464844 C 376.160156 294.464844 381.113281 292.414062 384.761719 288.761719 C 388.414062 285.113281 390.464844 280.160156 390.464844 275 Z M 390.464844 275 "/>
</g>
<path style=" stroke:none;fill-rule:evenodd;fill:rgb(85.096741%,85.096741%,81.959534%);fill-opacity:0.7;" d="M 66.464844 213 C 66.464844 207.839844 64.414062 202.886719 60.761719 199.238281 C 57.113281 195.585938 52.160156 193.535156 47 193.535156 C 41.839844 193.535156 36.886719 195.585938 33.238281 199.238281 C 29.585938 202.886719 27.535156 207.839844 27.535156 213 C 27.535156 218.160156 29.585938 223.113281 33.238281 226.761719 C 36.886719 230.414062 41.839844 232.464844 47 232.464844 C 52.160156 232.464844 57.113281 230.414062 60.761719 226.761719 C 64.414062 223.113281 66.464844 218.160156 66.464844 213 Z M 66.464844 213 "/>
<path style=" stroke:none;fill-rule:evenodd;fill:rgb(85.096741%,85.096741%,81.959534%);fill-opacity:0.7;" d="M 112.464844 185 C 112.464844 179.839844 110.414062 174.886719 106.761719 171.238281 C 103.113281 167.585938 98.160156 165.535156 93 165.535156 C 87.839844 165.535156 82.886719 167.585938 79.238281 171.238281 C 75.585938 174.886719 73.535156 179.839844 73.535156 185 C 73.535156 190.160156 75.585938 195.113281 79.238281 198.761719 C 82.886719 202.414062 87.839844 204.464844 93 204.464844 C 98.160156 204.464844 103.113281 202.414062 106.761719 198.761719 C 110.414062 195.113281 112.464844 190.160156 112.464844 185 Z M 112.464844 185 "/>
<g clip-path="url(#clip22)" clip-rule="nonzero">
<path style=" stroke:none;fill-rule:evenodd;fill:rgb(85.096741%,85.096741%,81.959534%);fill-opacity:0.7;" d="M 386.464844 183 C 386.464844 177.839844 384.414062 172.886719 380.761719 169.238281 C 377.113281 165.585938 372.160156 163.535156 367 163.535156 C 361.839844 163.535156 356.886719 165.585938 353.238281 169.238281 C 349.585938 172.886719 347.535156 177.839844 347.535156 183 C 347.535156 188.160156 349.585938 193.113281 353.238281 196.761719 C 356.886719 200.414062 361.839844 202.464844 367 202.464844 C 372.160156 202.464844 377.113281 200.414062 380.761719 196.761719 C 384.414062 193.113281 386.464844 188.160156 386.464844 183 Z M 386.464844 183 "/>
</g>
<g clip-path="url(#clip23)" clip-rule="nonzero">
<path style=" stroke:none;fill-rule:evenodd;fill:rgb(85.096741%,85.096741%,81.959534%);fill-opacity:0.7;" d="M 370.464844 176 C 370.464844 170.839844 368.414062 165.886719 364.761719 162.238281 C 361.113281 158.585938 356.160156 156.535156 351 156.535156 C 345.839844 156.535156 340.886719 158.585938 337.238281 162.238281 C 333.585938 165.886719 331.535156 170.839844 331.535156 176 C 331.535156 181.160156 333.585938 186.113281 337.238281 189.761719 C 340.886719 193.414062 345.839844 195.464844 351 195.464844 C 356.160156 195.464844 361.113281 193.414062 364.761719 189.761719 C 368.414062 186.113281 370.464844 181.160156 370.464844 176 Z M 370.464844 176 "/>
</g>
<g clip-path="url(#clip24)" clip-rule="nonzero">
<path style=" stroke:none;fill-rule:evenodd;fill:rgb(85.096741%,85.096741%,81.959534%);fill-opacity:0.7;" d="M 380.464844 141 C 380.464844 135.839844 378.414062 130.886719 374.761719 127.238281 C 371.113281 123.585938 366.160156 121.535156 361 121.535156 C 355.839844 121.535156 350.886719 123.585938 347.238281 127.238281 C 343.585938 130.886719 341.535156 135.839844 341.535156 141 C 341.535156 146.160156 343.585938 151.113281 347.238281 154.761719 C 350.886719 158.414062 355.839844 160.464844 361 160.464844 C 366.160156 160.464844 371.113281 158.414062 374.761719 154.761719 C 378.414062 151.113281 380.464844 146.160156 380.464844 141 Z M 380.464844 141 "/>
</g>
<path style=" stroke:none;fill-rule:evenodd;fill:rgb(85.096741%,85.096741%,81.959534%);fill-opacity:0.7;" d="M 334.464844 132 C 334.464844 126.839844 332.414062 121.886719 328.761719 118.238281 C 325.113281 114.585938 320.160156 112.535156 315 112.535156 C 309.839844 112.535156 304.886719 114.585938 301.238281 118.238281 C 297.585938 121.886719 295.535156 126.839844 295.535156 132 C 295.535156 137.160156 297.585938 142.113281 301.238281 145.761719 C 304.886719 149.414062 309.839844 151.464844 315 151.464844 C 320.160156 151.464844 325.113281 149.414062 328.761719 145.761719 C 332.414062 142.113281 334.464844 137.160156 334.464844 132 Z M 334.464844 132 "/>
<g clip-path="url(#clip25)" clip-rule="nonzero">
<path style=" stroke:none;fill-rule:evenodd;fill:rgb(85.096741%,85.096741%,81.959534%);fill-opacity:0.7;" d="M 389.464844 127 C 389.464844 121.839844 387.414062 116.886719 383.761719 113.238281 C 380.113281 109.585938 375.160156 107.535156 370 107.535156 C 364.839844 107.535156 359.886719 109.585938 356.238281 113.238281 C 352.585938 116.886719 350.535156 121.839844 350.535156 127 C 350.535156 132.160156 352.585938 137.113281 356.238281 140.761719 C 359.886719 144.414062 364.839844 146.464844 370 146.464844 C 375.160156 146.464844 380.113281 144.414062 383.761719 140.761719 C 387.414062 137.113281 389.464844 132.160156 389.464844 127 Z M 389.464844 127 "/>
</g>
<path style=" stroke:none;fill-rule:evenodd;fill:rgb(85.096741%,85.096741%,81.959534%);fill-opacity:0.7;" d="M 358.464844 6 C 358.464844 0.839844 356.414062 -4.113281 352.761719 -7.761719 C 349.113281 -11.414062 344.160156 -13.464844 339 -13.464844 C 333.839844 -13.464844 328.886719 -11.414062 325.238281 -7.761719 C 321.585938 -4.113281 319.535156 0.839844 319.535156 6 C 319.535156 11.160156 321.585938 16.113281 325.238281 19.761719 C 328.886719 23.414062 333.839844 25.464844 339 25.464844 C 344.160156 25.464844 349.113281 23.414062 352.761719 19.761719 C 356.414062 16.113281 358.464844 11.160156 358.464844 6 Z M 358.464844 6 "/>
<path style=" stroke:none;fill-rule:evenodd;fill:rgb(85.096741%,85.096741%,81.959534%);fill-opacity:0.7;" d="M 14.464844 -11 C 14.464844 -16.160156 12.414062 -21.113281 8.761719 -24.761719 C 5.113281 -28.414062 0.160156 -30.464844 -5 -30.464844 C -10.160156 -30.464844 -15.113281 -28.414062 -18.761719 -24.761719 C -22.414062 -21.113281 -24.464844 -16.160156 -24.464844 -11 C -24.464844 -5.839844 -22.414062 -0.886719 -18.761719 2.761719 C -15.113281 6.414062 -10.160156 8.464844 -5 8.464844 C 0.160156 8.464844 5.113281 6.414062 8.761719 2.761719 C 12.414062 -0.886719 14.464844 -5.839844 14.464844 -11 Z M 14.464844 -11 "/>
<g clip-path="url(#clip26)" clip-rule="nonzero">
<path style=" stroke:none;fill-rule:evenodd;fill:rgb(85.096741%,85.096741%,81.959534%);fill-opacity:0.7;" d="M 387.464844 176 C 387.464844 170.839844 385.414062 165.886719 381.761719 162.238281 C 378.113281 158.585938 373.160156 156.535156 368 156.535156 C 362.839844 156.535156 357.886719 158.585938 354.238281 162.238281 C 350.585938 165.886719 348.535156 170.839844 348.535156 176 C 348.535156 181.160156 350.585938 186.113281 354.238281 189.761719 C 357.886719 193.414062 362.839844 195.464844 368 195.464844 C 373.160156 195.464844 378.113281 193.414062 381.761719 189.761719 C 385.414062 186.113281 387.464844 181.160156 387.464844 176 Z M 387.464844 176 "/>
</g>
<path style=" stroke:none;fill-rule:evenodd;fill:rgb(85.096741%,85.096741%,81.959534%);fill-opacity:0.7;" d="M 193.464844 34 C 193.464844 28.839844 191.414062 23.886719 187.761719 20.238281 C 184.113281 16.585938 179.160156 14.535156 174 14.535156 C 168.839844 14.535156 163.886719 16.585938 160.238281 20.238281 C 156.585938 23.886719 154.535156 28.839844 154.535156 34 C 154.535156 39.160156 156.585938 44.113281 160.238281 47.761719 C 163.886719 51.414062 168.839844 53.464844 174 53.464844 C 179.160156 53.464844 184.113281 51.414062 187.761719 47.761719 C 191.414062 44.113281 193.464844 39.160156 193.464844 34 Z M 193.464844 34 "/>
<path style=" stroke:none;fill-rule:evenodd;fill:rgb(85.096741%,85.096741%,81.959534%);fill-opacity:0.7;" d="M 356.464844 12 C 356.464844 6.839844 354.414062 1.886719 350.761719 -1.761719 C 347.113281 -5.414062 342.160156 -7.464844 337 -7.464844 C 331.839844 -7.464844 326.886719 -5.414062 323.238281 -1.761719 C 319.585938 1.886719 317.535156 6.839844 317.535156 12 C 317.535156 17.160156 319.585938 22.113281 323.238281 25.761719 C 326.886719 29.414062 331.839844 31.464844 337 31.464844 C 342.160156 31.464844 347.113281 29.414062 350.761719 25.761719 C 354.414062 22.113281 356.464844 17.160156 356.464844 12 Z M 356.464844 12 "/>
<path style=" stroke:none;fill-rule:evenodd;fill:rgb(85.096741%,85.096741%,81.959534%);fill-opacity:0.7;" d="M 308.464844 125 C 308.464844 119.839844 306.414062 114.886719 302.761719 111.238281 C 299.113281 107.585938 294.160156 105.535156 289 105.535156 C 283.839844 105.535156 278.886719 107.585938 275.238281 111.238281 C 271.585938 114.886719 269.535156 119.839844 269.535156 125 C 269.535156 130.160156 271.585938 135.113281 275.238281 138.761719 C 278.886719 142.414062 283.839844 144.464844 289 144.464844 C 294.160156 144.464844 299.113281 142.414062 302.761719 138.761719 C 306.414062 135.113281 308.464844 130.160156 308.464844 125 Z M 308.464844 125 "/>
<g clip-path="url(#clip27)" clip-rule="nonzero">
<path style=" stroke:none;fill-rule:evenodd;fill:rgb(85.096741%,85.096741%,81.959534%);fill-opacity:0.7;" d="M 390.464844 272 C 390.464844 266.839844 388.414062 261.886719 384.761719 258.238281 C 381.113281 254.585938 376.160156 252.535156 371 252.535156 C 365.839844 252.535156 360.886719 254.585938 357.238281 258.238281 C 353.585938 261.886719 351.535156 266.839844 351.535156 272 C 351.535156 277.160156 353.585938 282.113281 357.238281 285.761719 C 360.886719 289.414062 365.839844 291.464844 371 291.464844 C 376.160156 291.464844 381.113281 289.414062 384.761719 285.761719 C 388.414062 282.113281 390.464844 277.160156 390.464844 272 Z M 390.464844 272 "/>
</g>
<path style=" stroke:none;fill-rule:evenodd;fill:rgb(85.096741%,85.096741%,81.959534%);fill-opacity:0.7;" d="M 311.464844 34 C 311.464844 28.839844 309.414062 23.886719 305.761719 20.238281 C 302.113281 16.585938 297.160156 14.535156 292 14.535156 C 286.839844 14.535156 281.886719 16.585938 278.238281 20.238281 C 274.585938 23.886719 272.535156 28.839844 272.535156 34 C 272.535156 39.160156 274.585938 44.113281 278.238281 47.761719 C 281.886719 51.414062 286.839844 53.464844 292 53.464844 C 297.160156 53.464844 302.113281 51.414062 305.761719 47.761719 C 309.414062 44.113281 311.464844 39.160156 311.464844 34 Z M 311.464844 34 "/>
<path style=" stroke:none;fill-rule:evenodd;fill:rgb(76.469421%,0.392151%,0%);fill-opacity:0.7;" d="M 318.925781 27 C 318.925781 16.675781 314.824219 6.773438 307.523438 -0.523438 C 300.226562 -7.824219 290.324219 -11.925781 280 -11.925781 C 269.675781 -11.925781 259.773438 -7.824219 252.476562 -0.523438 C 245.175781 6.773438 241.074219 16.675781 241.074219 27 C 241.074219 37.324219 245.175781 47.226562 252.476562 54.523438 C 259.773438 61.824219 269.675781 65.925781 280 65.925781 C 290.324219 65.925781 300.226562 61.824219 307.523438 54.523438 C 314.824219 47.226562 318.925781 37.324219 318.925781 27 Z M 318.925781 27 "/>
<path style="fill-rule:nonzero;fill:rgb(99.998474%,99.998474%,30.587769%);fill-opacity:0.8;stroke-width:0.288;stroke-linecap:square;stroke-linejoin:miter;stroke:rgb(0%,0%,0%);stroke-opacity:0.8;stroke-miterlimit:3.25;" d="M 189.03125 278.457031 L 146.894531 351.445312 L 231.171875 351.445312 Z M 189.03125 278.457031 " transform="matrix(1,0,0,1,-74,-13)"/>
</g>
</svg>
