<?xml version="1.0" encoding="UTF-8"?>
<svg xmlns="http://www.w3.org/2000/svg" xmlns:xlink="http://www.w3.org/1999/xlink" width="361pt" height="361pt" viewBox="0 0 361 361" version="1.1">
<defs>
<clipPath id="clip1">
  <path d="M 111 331 L 126 331 L 126 360 L 111 360 Z M 111 331 "/>
</clipPath>
<clipPath id="clip2">
  <path d="M 32 319 L 84 319 L 84 360 L 32 360 Z M 32 319 "/>
</clipPath>
<clipPath id="clip3">
  <path d="M 45 347 L 109 347 L 109 360 L 45 360 Z M 45 347 "/>
</clipPath>
<clipPath id="clip4">
  <path d="M 3 353 L 41 353 L 41 360 L 3 360 Z M 3 353 "/>
</clipPath>
<clipPath id="clip5">
  <path d="M 151 347 L 165 347 L 165 360 L 151 360 Z M 151 347 "/>
</clipPath>
<clipPath id="clip6">
  <path d="M 138 343 L 152 343 L 152 360 L 138 360 Z M 138 343 "/>
</clipPath>
<clipPath id="clip7">
  <path d="M 123 336 L 140 336 L 140 360 L 123 360 Z M 123 336 "/>
</clipPath>
<clipPath id="clip8">
  <path d="M 216 338 L 237 338 L 237 360 L 216 360 Z M 216 338 "/>
</clipPath>
<clipPath id="clip9">
  <path d="M 163 342 L 179 342 L 179 360 L 163 360 Z M 163 342 "/>
</clipPath>
<clipPath id="clip10">
  <path d="M 170 339 L 192 339 L 192 360 L 170 360 Z M 170 339 "/>
</clipPath>
<clipPath id="clip11">
  <path d="M 198 333 L 218 333 L 218 360 L 198 360 Z M 198 333 "/>
</clipPath>
<clipPath id="clip12">
  <path d="M 189 339 L 204 339 L 204 360 L 189 360 Z M 189 339 "/>
</clipPath>
<clipPath id="clip13">
  <path d="M 234 340 L 250 340 L 250 360 L 234 360 Z M 234 340 "/>
</clipPath>
<clipPath id="clip14">
  <path d="M 248 342 L 261 342 L 261 360 L 248 360 Z M 248 342 "/>
</clipPath>
<clipPath id="clip15">
  <path d="M 321 52 L 360 52 L 360 108 L 321 108 Z M 321 52 "/>
</clipPath>
</defs>
<g id="surface7196">
<path style="fill-rule:nonzero;fill:rgb(0%,0%,0%);fill-opacity:1;stroke-width:0.03;stroke-linecap:square;stroke-linejoin:miter;stroke:rgb(0%,0%,0%);stroke-opacity:1;stroke-miterlimit:10;" d="M 0 178 L 360 178 L 360 -182 L 0 -182 Z M 0 178 " transform="matrix(1,0,0,1,0,182)"/>
<path style=" stroke:none;fill-rule:nonzero;fill:rgb(39.99939%,39.99939%,39.99939%);fill-opacity:0.3;" d="M 163.203125 -4.6875 L 170.535156 -3.773438 L 176.78125 -2.476562 L 180.816406 -1.019531 L 180.417969 5.445312 L 178.257812 5.015625 L 175.644531 4.257812 L 173.714844 3.828125 L 172.179688 3.449219 L 170.476562 3.289062 L 162.632812 2.75 L 162.863281 -1.023438 L 169.679688 -0.429688 L 169.660156 -1.050781 L 169.636719 -1.671875 L 162.863281 -2.316406 Z M 163.203125 -4.6875 "/>
<path style=" stroke:none;fill-rule:nonzero;fill:rgb(39.99939%,39.99939%,39.99939%);fill-opacity:0.3;" d="M 153.515625 -5.027344 L 162.164062 -4.675781 L 162.15625 -2.167969 L 157.46875 -2.03125 L 157.539062 -1.546875 L 157.605469 -1.058594 L 161.929688 -1.367188 L 161.976562 2.070312 L 155.792969 2.070312 L 155.886719 2.6875 L 161.648438 2.730469 L 161.601562 6.347656 L 150.902344 5.859375 L 151.425781 3.480469 L 152.539062 1.054688 Z M 153.515625 -5.027344 "/>
<path style=" stroke:none;fill-rule:nonzero;fill:rgb(39.99939%,39.99939%,39.99939%);fill-opacity:0.3;" d="M 147.847656 13.34375 L 150.726562 15.679688 L 156.257812 20.046875 L 161.136719 23.222656 L 157.929688 28.378906 L 144.449219 12.269531 Z M 147.847656 13.34375 "/>
<path style=" stroke:none;fill-rule:nonzero;fill:rgb(39.99939%,39.99939%,39.99939%);fill-opacity:0.3;" d="M 145.535156 -6.148438 L 152.253906 -5.167969 L 151.023438 1.628906 L 149.796875 6.898438 L 148.179688 12.289062 L 142.757812 10.511719 L 143.402344 3.46875 L 144.050781 1.140625 L 144.761719 -0.0859375 L 145.210938 -1.496094 L 145.277344 -2.472656 L 145.019531 -3.515625 Z M 145.535156 -6.148438 "/>
<path style=" stroke:none;fill-rule:nonzero;fill:rgb(39.99939%,39.99939%,39.99939%);fill-opacity:0.3;" d="M 137.335938 -7.4375 L 144.632812 -6.332031 L 144.113281 -3.027344 L 143.273438 1.324219 L 142.757812 4.875 L 142.046875 10.203125 L 135.652344 3.222656 Z M 137.335938 -7.4375 "/>
<path style=" stroke:none;fill-rule:nonzero;fill:rgb(39.99939%,39.99939%,39.99939%);fill-opacity:0.3;" d="M 126.164062 -8.785156 L 136.109375 -7.621094 L 134.621094 1.6875 L 125.90625 -7.683594 Z M 126.164062 -8.785156 "/>
<path style=" stroke:none;fill-rule:nonzero;fill:rgb(39.99939%,39.99939%,39.99939%);fill-opacity:0.3;" d="M 161.042969 15.886719 L 161.089844 21.574219 L 151.746094 15.269531 Z M 161.042969 15.886719 "/>
<path style=" stroke:none;fill-rule:nonzero;fill:rgb(39.99939%,39.99939%,39.99939%);fill-opacity:0.3;" d="M 149.097656 10.945312 L 154.027344 11.210938 L 158.859375 11.390625 L 161.507812 11.699219 L 161.324219 15.136719 L 150.785156 14.652344 L 148.867188 12.226562 Z M 149.097656 10.945312 "/>
<path style=" stroke:none;fill-rule:nonzero;fill:rgb(39.99939%,39.99939%,39.99939%);fill-opacity:0.3;" d="M 150.574219 6.847656 L 161.601562 7.316406 L 161.738281 10.355469 L 158.628906 10.753906 L 149.65625 10.269531 Z M 150.574219 6.847656 "/>
<path style=" stroke:none;fill-rule:nonzero;fill:rgb(39.99939%,39.99939%,39.99939%);fill-opacity:0.3;" d="M 162.582031 4.539062 L 163.09375 3.839844 L 164.0625 3.570312 L 173.152344 4.21875 L 176.21875 6.320312 L 180.992188 6.644531 L 183.941406 7.359375 L 189.171875 8.800781 L 189.914062 9.125 L 190.257812 9.527344 L 190.195312 10.257812 L 190.144531 10.5625 L 189.421875 12.558594 L 188.71875 13.058594 L 188.320312 14.566406 L 187.980469 15.753906 L 187.414062 16.71875 L 187.355469 16.75 L 185.707031 17.199219 L 184.398438 16.992188 L 182.867188 16.5625 L 181.5 16.183594 L 179.570312 15.429688 L 179.003906 14.566406 L 179.742188 10.847656 L 178.660156 10.363281 L 177.015625 9.929688 L 174.171875 9.824219 L 169.171875 9.820312 L 167.695312 9.820312 L 165.140625 9.550781 L 162.640625 9.445312 L 162.597656 5.78125 L 164.628906 5.832031 L 166.675781 5.996094 L 172.980469 6.210938 L 172.753906 5.617188 L 167.867188 5.511719 L 165.195312 5.402344 L 162.640625 5.132812 Z M 162.582031 4.539062 "/>
<path style=" stroke:none;fill-rule:nonzero;fill:rgb(39.99939%,39.99939%,39.99939%);fill-opacity:0.3;" d="M 162.566406 10.628906 L 173.433594 11.167969 L 176.097656 11.316406 L 178.101562 11.554688 L 178.007812 12.921875 L 177.472656 14.375 L 175.910156 15.5625 L 174.84375 15.980469 L 173.738281 16.191406 L 162.375 15.324219 Z M 162.566406 10.628906 "/>
<path style=" stroke:none;fill-rule:nonzero;fill:rgb(39.99939%,39.99939%,39.99939%);fill-opacity:0.3;" d="M 162.304688 16.574219 L 166.238281 16.71875 L 170.371094 17.101562 L 172.035156 17.148438 L 169.464844 18.824219 L 165.78125 20.496094 L 163.5625 21.40625 L 162.203125 21.5 Z M 162.304688 16.574219 "/>
<path style=" stroke:none;fill-rule:nonzero;fill:rgb(39.99939%,39.99939%,39.99939%);fill-opacity:0.3;" d="M 212.050781 -5.28125 L 213.175781 -4.078125 L 212.707031 -0.964844 L 212.050781 2.730469 L 211.15625 6.867188 L 210.5 9.359375 L 206.535156 6.511719 L 204.308594 4.996094 L 206.042969 -1.097656 L 206.65625 -3.992188 L 207.21875 -6.839844 L 207.265625 -9.375 L 209.988281 -6.972656 Z M 212.050781 -5.28125 "/>
<path style=" stroke:none;fill-rule:nonzero;fill:rgb(39.99939%,39.99939%,39.99939%);fill-opacity:0.3;" d="M 183.148438 -28.078125 L 200.792969 -25.6875 L 198.421875 -17.988281 L 198.480469 -17.132812 L 198.78125 -16.5625 L 200.464844 -15.308594 L 205.792969 -10.964844 L 206.191406 -9.769531 L 206.285156 -7.679688 L 205.863281 -5.144531 L 203.105469 4.464844 L 199.296875 2.253906 L 195.421875 0.566406 L 196.707031 -6.085938 L 200.148438 -5.3125 L 200.253906 -5.917969 L 200.347656 -6.449219 L 196.925781 -7.207031 L 197.988281 -12.710938 L 197.390625 -12.824219 L 196.796875 -12.9375 L 193.9375 0.273438 L 188.757812 -0.96875 L 182.382812 -2.15625 L 182.113281 -14.148438 L 187.535156 -13.921875 L 187.582031 -11.765625 L 187.894531 -11.753906 L 188.171875 -11.746094 L 188.195312 -13.988281 L 190.777344 -14.011719 L 190.722656 -6.347656 L 191.167969 -6.320312 L 191.617188 -6.289062 L 191.558594 -19.398438 L 191.203125 -19.441406 L 190.84375 -19.484375 L 190.777344 -14.835938 L 182.207031 -15.050781 L 182.207031 -21.792969 L 193.464844 -21.734375 L 193.4375 -22.214844 L 193.40625 -22.695312 L 182.445312 -22.808594 Z M 183.148438 -28.078125 "/>
<path style=" stroke:none;fill-rule:nonzero;fill:rgb(39.99939%,39.99939%,39.99939%);fill-opacity:0.3;" d="M 191.695312 10.125 L 205.808594 16.820312 L 203.539062 22.902344 L 202.8125 23.027344 L 202.386719 22.902344 L 189.214844 16.453125 L 189.640625 15.234375 L 189.8125 14.34375 L 190.285156 13.488281 L 190.582031 12.558594 Z M 191.695312 10.125 "/>
<path style=" stroke:none;fill-rule:nonzero;fill:rgb(39.99939%,39.99939%,39.99939%);fill-opacity:0.3;" d="M 192.039062 9.234375 L 198.710938 3.917969 L 199.179688 3.796875 L 199.652344 3.835938 L 207.5625 8.867188 L 207.90625 9.273438 L 208.03125 9.882812 L 207.988281 11.101562 L 206.40625 15.765625 Z M 192.039062 9.234375 "/>
<path style=" stroke:none;fill-rule:nonzero;fill:rgb(39.99939%,39.99939%,39.99939%);fill-opacity:0.3;" d="M 192.988281 1.898438 L 198.042969 2.761719 L 198.15625 3.191406 L 197.929688 3.621094 L 191.964844 8.472656 L 191.453125 8.632812 L 181.734375 5.777344 L 182.023438 -0.582031 Z M 192.988281 1.898438 "/>
<path style=" stroke:none;fill-rule:nonzero;fill:rgb(39.99939%,39.99939%,39.99939%);fill-opacity:0.3;" d="M 202.941406 -14.964844 L 212.03125 -24.328125 L 218.59375 -31.082031 L 224.574219 -36.75 L 242.039062 -22.601562 L 226.09375 -5.621094 L 224.457031 -0.902344 L 223 -0.152344 L 221.238281 0.710938 L 220.390625 0.710938 Z M 202.941406 -14.964844 "/>
<path style=" stroke:none;fill-rule:nonzero;fill:rgb(39.99939%,39.99939%,39.99939%);fill-opacity:0.3;" d="M 220.753906 10.804688 L 221.664062 5.96875 L 221.96875 2 L 223.121094 0.734375 L 225.550781 -0.667969 L 228.578125 -3.964844 L 231.832031 -7.847656 L 234.355469 -6.304688 L 230.886719 0.617188 L 229.855469 5.109375 L 229.066406 9.136719 L 228.578125 12.128906 L 228.335938 14.964844 L 228.394531 20.722656 L 227.726562 21.066406 L 227.183594 18.246094 L 226.089844 15.136719 L 225.058594 13.066406 L 223.785156 12.03125 L 222.148438 11.570312 L 220.753906 11.453125 Z M 220.753906 10.804688 "/>
<path style=" stroke:none;fill-rule:nonzero;fill:rgb(39.99939%,39.99939%,39.99939%);fill-opacity:0.3;" d="M 214.117188 -2.90625 L 220.3125 2.214844 L 219.886719 6.085938 L 218.996094 8.933594 L 218.332031 10.0625 L 211.628906 9.109375 L 212.898438 3.816406 Z M 214.117188 -2.90625 "/>
<path style=" stroke:none;fill-rule:nonzero;fill:rgb(39.99939%,39.99939%,39.99939%);fill-opacity:0.3;" d="M 245.339844 -18.976562 L 262.570312 -4.472656 L 263.402344 -4.699219 L 264.183594 -4.699219 L 265.027344 -4.347656 L 274.710938 3.984375 L 273.144531 5.066406 L 274.03125 5.246094 L 281.746094 12.097656 L 272.484375 12.039062 L 270.316406 18.769531 L 269.59375 19.054688 L 256.664062 15.890625 L 254.035156 25.519531 L 242.75 21.058594 L 240.703125 20.203125 L 230.722656 12.671875 L 234.753906 -0.125 L 236.859375 -5.601562 L 238.0625 -8.308594 L 238.785156 -9.964844 L 241.582031 -13.710938 Z M 245.339844 -18.976562 "/>
<path style=" stroke:none;fill-rule:nonzero;fill:rgb(39.99939%,39.99939%,39.99939%);fill-opacity:0.3;" d="M 164.207031 48.550781 L 166.253906 50.902344 L 165.757812 50.617188 Z M 164.207031 48.550781 "/>
<path style=" stroke:none;fill-rule:nonzero;fill:rgb(39.99939%,39.99939%,39.99939%);fill-opacity:0.3;" d="M 158.109375 32.890625 L 174.339844 51.019531 L 168.050781 51.128906 L 156.609375 38.398438 L 156.972656 35.445312 Z M 158.109375 32.890625 "/>
<path style=" stroke:none;fill-rule:nonzero;fill:rgb(39.99939%,39.99939%,39.99939%);fill-opacity:0.3;" d="M 180.988281 44.453125 L 185.566406 46.960938 L 181.492188 53.652344 L 177.03125 50.070312 Z M 180.988281 44.453125 "/>
<path style=" stroke:none;fill-rule:nonzero;fill:rgb(39.99939%,39.99939%,39.99939%);fill-opacity:0.3;" d="M 184.859375 18.996094 L 186.703125 18.542969 L 188.679688 18.414062 L 192.570312 19.0625 L 179.535156 42.160156 L 174.417969 39.570312 L 174.351562 38.601562 L 174.507812 37.636719 L 180.96875 26.175781 L 182.675781 22.941406 Z M 184.859375 18.996094 "/>
<path style=" stroke:none;fill-rule:nonzero;fill:rgb(39.99939%,39.99939%,39.99939%);fill-opacity:0.3;" d="M 176.945312 16.664062 L 183.222656 18.800781 L 178.308594 28.441406 L 174.761719 34.589844 L 172.644531 38.730469 L 166.371094 35.429688 L 172.101562 25.65625 L 175.71875 18.992188 Z M 176.945312 16.664062 "/>
<path style=" stroke:none;fill-rule:nonzero;fill:rgb(39.99939%,39.99939%,39.99939%);fill-opacity:0.3;" d="M 158.664062 29.148438 L 162.414062 24.105469 L 163.300781 23.261719 L 164.460938 22.746094 L 174.832031 17.441406 L 173.125 21.515625 L 169.507812 28.441406 L 165.347656 34.976562 Z M 158.664062 29.148438 "/>
<path style=" stroke:none;fill-rule:nonzero;fill:rgb(39.99939%,39.99939%,39.99939%);fill-opacity:0.3;" d="M 180.046875 44.300781 L 176.453125 49.191406 L 173.308594 45.527344 L 175.910156 42.101562 Z M 180.046875 44.300781 "/>
<path style=" stroke:none;fill-rule:nonzero;fill:rgb(39.99939%,39.99939%,39.99939%);fill-opacity:0.3;" d="M 193.328125 20.039062 L 193.738281 19.71875 L 194.828125 19.847656 L 203.082031 23.925781 L 201.582031 29.488281 L 201.308594 30.203125 L 200.898438 30.460938 L 200.148438 30.460938 L 196.125 28.648438 L 186.363281 45.730469 L 180.566406 43.074219 Z M 193.328125 20.039062 "/>
<path style=" stroke:none;fill-rule:nonzero;fill:rgb(39.99939%,39.99939%,39.99939%);fill-opacity:0.3;" d="M 175.40625 41.863281 L 173.054688 44.886719 L 167.976562 39.351562 L 166.464844 37.800781 L 166.800781 37.601562 L 171.460938 39.792969 Z M 175.40625 41.863281 "/>
<path style=" stroke:none;fill-rule:nonzero;fill:rgb(39.99939%,39.99939%,39.99939%);fill-opacity:0.3;" d="M 193.941406 35.484375 L 195.074219 38.972656 L 194.886719 40.171875 L 194.308594 41.917969 L 185.785156 55.386719 L 183.210938 53.589844 Z M 193.941406 35.484375 "/>
<path style=" stroke:none;fill-rule:nonzero;fill:rgb(39.99939%,39.99939%,39.99939%);fill-opacity:0.3;" d="M 190.144531 10.5625 L 190.019531 11.320312 L 189.628906 12.414062 L 189.421875 12.558594 Z M 190.144531 10.5625 "/>
<path style=" stroke:none;fill-rule:nonzero;fill:rgb(39.99939%,39.99939%,39.99939%);fill-opacity:0.3;" d="M 187.355469 16.75 L 186.324219 17.296875 L 185.707031 17.199219 Z M 187.355469 16.75 "/>
<path style=" stroke:none;fill-rule:nonzero;fill:rgb(39.99939%,39.99939%,39.99939%);fill-opacity:0.3;" d="M 237.539062 54.523438 L 234.464844 42.886719 L 315.941406 46.308594 L 321.066406 46.765625 L 321.160156 47.207031 L 320.972656 48.175781 L 321.160156 50.640625 L 321.160156 52.3125 L 321.265625 52.984375 Z M 237.539062 54.523438 "/>
<path style=" stroke:none;fill-rule:nonzero;fill:rgb(39.99939%,39.99939%,39.99939%);fill-opacity:0.3;" d="M 321.90625 52.972656 L 321.84375 51.375 L 321.566406 49.734375 L 321.707031 48.75 L 321.84375 47.765625 L 321.980469 47.242188 L 321.980469 46.785156 L 328.691406 47.09375 L 334.53125 52.742188 Z M 321.90625 52.972656 "/>
<path style=" stroke:none;fill-rule:nonzero;fill:rgb(39.99939%,39.99939%,39.99939%);fill-opacity:0.3;" d="M 95.945312 20.035156 L 96.914062 16.605469 L 101.367188 18.382812 L 99.042969 24.808594 L 94.460938 23.09375 Z M 95.945312 20.035156 "/>
<path style=" stroke:none;fill-rule:nonzero;fill:rgb(39.99939%,39.99939%,39.99939%);fill-opacity:0.3;" d="M 110.273438 21.078125 L 116.730469 22.730469 L 114.496094 29.621094 L 108.273438 27.933594 Z M 110.273438 21.078125 "/>
<path style=" stroke:none;fill-rule:nonzero;fill:rgb(39.99939%,39.99939%,39.99939%);fill-opacity:0.3;" d="M 102.980469 18.503906 L 109.105469 20.484375 L 107.046875 27.503906 L 100.527344 25.667969 Z M 102.980469 18.503906 "/>
<path style=" stroke:none;fill-rule:nonzero;fill:rgb(39.99939%,39.99939%,39.99939%);fill-opacity:0.3;" d="M 133.476562 32.613281 L 144.539062 36.113281 L 155.785156 39.742188 L 155.550781 44.703125 L 152.097656 42.132812 L 149.203125 40.230469 L 146.125 39.210938 L 140.195312 37.570312 L 135.53125 37.660156 L 131.703125 37.394531 Z M 133.476562 32.613281 "/>
<path style=" stroke:none;fill-rule:nonzero;fill:rgb(39.99939%,39.99939%,39.99939%);fill-opacity:0.3;" d="M 127.59375 25.078125 L 133.847656 26.585938 L 141.457031 29.109375 L 150.136719 31.722656 L 154.664062 32.921875 L 156.25 33.71875 L 155.59375 38.320312 L 146.914062 35.621094 L 140.546875 33.550781 L 131.625 30.652344 L 126.863281 29.105469 Z M 127.59375 25.078125 "/>
<path style=" stroke:none;fill-rule:nonzero;fill:rgb(39.99939%,39.99939%,39.99939%);fill-opacity:0.3;" d="M 143.378906 19.335938 L 145.105469 19.792969 L 156.511719 31.75 L 156.320312 32.753906 L 140.886719 27.703125 Z M 143.378906 19.335938 "/>
<path style=" stroke:none;fill-rule:nonzero;fill:rgb(39.99939%,39.99939%,39.99939%);fill-opacity:0.3;" d="M 118.089844 23.046875 L 126.113281 25.207031 L 124.570312 32.980469 L 125.875 33.292969 L 126.519531 30.117188 L 132.589844 32.058594 L 130.671875 37.421875 L 129.675781 37.386719 L 124.339844 35.078125 L 121.507812 33.882812 L 121.703125 31.921875 L 115.957031 30.207031 Z M 118.089844 23.046875 "/>
<path style=" stroke:none;fill-rule:nonzero;fill:rgb(39.99939%,39.99939%,39.99939%);fill-opacity:0.3;" d="M 156.96875 40.21875 L 164.207031 48.550781 L 165.757812 50.617188 L 156.429688 45.21875 Z M 156.96875 40.21875 "/>
<path style=" stroke:none;fill-rule:nonzero;fill:rgb(39.99939%,39.99939%,39.99939%);fill-opacity:0.3;" d="M 96.339844 -4.960938 L 107.757812 -1.277344 L 122.851562 3.132812 L 122.265625 6.109375 L 106.066406 2.042969 L 104.132812 1.527344 L 102.679688 1.3125 L 100.992188 0.78125 L 98.878906 0.210938 L 97.613281 -0.707031 L 95.796875 -2.84375 L 93.503906 -5.535156 Z M 96.339844 -4.960938 "/>
<path style=" stroke:none;fill-rule:nonzero;fill:rgb(39.99939%,39.99939%,39.99939%);fill-opacity:0.3;" d="M 105.359375 -10.046875 L 117.707031 -6.382812 L 115.664062 0.0703125 L 112.464844 -0.875 L 103.832031 -3.339844 L 103.351562 -4.207031 Z M 105.359375 -10.046875 "/>
<path style=" stroke:none;fill-rule:nonzero;fill:rgb(39.99939%,39.99939%,39.99939%);fill-opacity:0.3;" d="M 121.179688 13.828125 L 142.519531 19.183594 L 140.113281 27.5625 L 118.878906 21.375 Z M 121.179688 13.828125 "/>
<path style=" stroke:none;fill-rule:nonzero;fill:rgb(39.99939%,39.99939%,39.99939%);fill-opacity:0.3;" d="M 123.238281 6.527344 L 135.796875 9.347656 L 140.925781 14.667969 L 140.480469 17.574219 L 121.558594 12.53125 L 122.183594 11.210938 L 122.710938 9.390625 L 123 7.9375 Z M 123.238281 6.527344 "/>
<path style=" stroke:none;fill-rule:nonzero;fill:rgb(39.99939%,39.99939%,39.99939%);fill-opacity:0.3;" d="M 124.917969 -2.65625 L 135.316406 8.53125 L 123.238281 5.847656 L 123.765625 2.753906 L 124.484375 -0.746094 Z M 124.917969 -2.65625 "/>
<path style=" stroke:none;fill-rule:nonzero;fill:rgb(39.99939%,39.99939%,39.99939%);fill-opacity:0.3;" d="M 88.589844 -7.261719 L 92.9375 -4.675781 L 95.015625 -2.703125 L 96.664062 -0.382812 L 98.648438 1.359375 L 98.355469 3.035156 L 94.660156 1.355469 L 91.488281 -0.21875 L 88.230469 -7.410156 Z M 88.589844 -7.261719 "/>
<path style=" stroke:none;fill-rule:nonzero;fill:rgb(39.99939%,39.99939%,39.99939%);fill-opacity:0.3;" d="M 98.550781 7.367188 L 113.066406 11.667969 L 119.339844 13.703125 L 119.566406 14.839844 L 117.820312 21.273438 L 97.34375 15.371094 L 97.972656 12.308594 L 98.261719 10.019531 Z M 98.550781 7.367188 "/>
<path style=" stroke:none;fill-rule:nonzero;fill:rgb(39.99939%,39.99939%,39.99939%);fill-opacity:0.3;" d="M 99.660156 1.695312 L 122.082031 7.371094 L 120.539062 12.082031 L 101.925781 7.09375 L 99.179688 5.859375 Z M 99.660156 1.695312 "/>
<path style=" stroke:none;fill-rule:nonzero;fill:rgb(39.99939%,39.99939%,39.99939%);fill-opacity:0.3;" d="M 118.949219 -6.039062 L 123.035156 -4.832031 L 124.421875 -3.695312 L 122.914062 2.269531 L 117.003906 0.480469 Z M 118.949219 -6.039062 "/>
<path style=" stroke:none;fill-rule:nonzero;fill:rgb(39.99939%,39.99939%,39.99939%);fill-opacity:0.3;" d="M 40.453125 1.050781 L 43.203125 -6.628906 L 45.496094 -12.898438 L 53.257812 -10.257812 L 52.027344 -6.867188 L 47.925781 0.0664062 L 45.191406 -1.625 L 44.113281 -0.0546875 L 46.808594 1.585938 L 46.269531 2.457031 Z M 40.453125 1.050781 "/>
<path style=" stroke:none;fill-rule:nonzero;fill:rgb(39.99939%,39.99939%,39.99939%);fill-opacity:0.3;" d="M 81.445312 20.621094 L 92.480469 25.917969 L 90.335938 27.765625 L 70.347656 17.542969 L 71.449219 15.570312 Z M 81.445312 20.621094 "/>
<path style=" stroke:none;fill-rule:nonzero;fill:rgb(39.99939%,39.99939%,39.99939%);fill-opacity:0.3;" d="M 24.878906 47.074219 L 28.824219 47.257812 L 26.75 57.65625 L 23.949219 59.101562 L 22.660156 70.621094 L 17.183594 70.195312 L 18.027344 56.074219 L 22.203125 56.679688 L 23.824219 56.976562 L 23.871094 56.539062 L 23.917969 56.082031 L 22.375 55.808594 Z M 24.878906 47.074219 "/>
<path style=" stroke:none;fill-rule:nonzero;fill:rgb(39.99939%,39.99939%,39.99939%);fill-opacity:0.3;" d="M 5.476562 52.039062 L 10.40625 51.183594 L 9.195312 66.449219 L 4.410156 65.773438 Z M 5.476562 52.039062 "/>
<path style=" stroke:none;fill-rule:nonzero;fill:rgb(39.99939%,39.99939%,39.99939%);fill-opacity:0.3;" d="M 11.648438 55.488281 L 16.957031 56.125 L 16.125 70.328125 L 10.65625 69.832031 Z M 11.648438 55.488281 "/>
<path style=" stroke:none;fill-rule:nonzero;fill:rgb(39.99939%,39.99939%,39.99939%);fill-opacity:0.3;" d="M 5.183594 30.847656 L 13.734375 34.535156 L 13.351562 36.84375 L 12.726562 38.726562 L 11.375 39.960938 L 10.253906 40.96875 L 8.820312 42.449219 L 6.53125 43.851562 L 4.527344 46.066406 L -1.007812 52.339844 L -5.015625 56.5 L -5.394531 57.3125 L -5.683594 58.714844 L -5.636719 59.980469 L -5.0625 61.609375 L -4.347656 63.511719 L -3.632812 64.640625 L -2.582031 65.273438 L -0.960938 65.792969 L 3.332031 66.695312 L 8.863281 67.691406 L 8.863281 69.476562 L 6.722656 69.378906 L 4.058594 68.84375 L -2.160156 67.242188 L -4.890625 66.605469 L -6.210938 65.578125 L -9.40625 60.410156 L -7.550781 55.617188 L -7.382812 55.449219 L -1.78125 51.035156 L 1.273438 48.152344 L 4.496094 45.605469 L 6.703125 42.210938 L 9.757812 36.949219 Z M 5.183594 30.847656 "/>
<path style=" stroke:none;fill-rule:nonzero;fill:rgb(39.99939%,39.99939%,39.99939%);fill-opacity:0.3;" d="M 11.457031 27.386719 L 16.238281 29.710938 L 14.183594 33.835938 L 9.433594 31.742188 Z M 11.457031 27.386719 "/>
<path style=" stroke:none;fill-rule:nonzero;fill:rgb(39.99939%,39.99939%,39.99939%);fill-opacity:0.3;" d="M 5.25 24.402344 L 10.171875 26.714844 L 8.160156 31.253906 L 4.628906 30.109375 L 3.648438 28.800781 Z M 5.25 24.402344 "/>
<path style=" stroke:none;fill-rule:nonzero;fill:rgb(39.99939%,39.99939%,39.99939%);fill-opacity:0.3;" d="M 11.984375 50.8125 L 15.785156 50.121094 L 19.476562 48.902344 L 22.828125 46.835938 L 23.558594 47.207031 L 22.886719 49.539062 L 21.207031 55.160156 L 11.816406 54.257812 Z M 11.984375 50.8125 "/>
<path style=" stroke:none;fill-rule:nonzero;fill:rgb(39.99939%,39.99939%,39.99939%);fill-opacity:0.3;" d="M -0.523438 53.007812 L 4.691406 47.523438 L 3.484375 65.136719 L -1.546875 64.183594 Z M -0.523438 53.007812 "/>
<path style=" stroke:none;fill-rule:nonzero;fill:rgb(39.99939%,39.99939%,39.99939%);fill-opacity:0.3;" d="M 42.839844 9.09375 L 46.496094 10.46875 L 38.425781 27.753906 L 37.40625 27.28125 L 39.34375 23.339844 L 38.921875 23.203125 L 38.707031 23.132812 L 36.632812 26.9375 L 32.800781 25.160156 L 35.933594 19.222656 L 38.417969 20.171875 Z M 42.839844 9.09375 "/>
<path style=" stroke:none;fill-rule:nonzero;fill:rgb(39.99939%,39.99939%,39.99939%);fill-opacity:0.3;" d="M 52.292969 13.3125 L 60.578125 15.441406 L 50.867188 32.695312 L 44.996094 29.03125 L 46.574219 25.632812 L 49.519531 27.277344 L 49.734375 26.894531 L 49.945312 26.507812 L 46.914062 24.796875 Z M 52.292969 13.3125 "/>
<path style=" stroke:none;fill-rule:nonzero;fill:rgb(39.99939%,39.99939%,39.99939%);fill-opacity:0.3;" d="M 51.382812 34.324219 L 57.019531 37.9375 L 49.769531 51.125 L 43.332031 48.484375 Z M 51.382812 34.324219 "/>
<path style=" stroke:none;fill-rule:nonzero;fill:rgb(39.99939%,39.99939%,39.99939%);fill-opacity:0.3;" d="M 40.070312 28.96875 L 40.457031 28.773438 L 41.113281 28.882812 L 42.753906 29.738281 L 43.050781 30.070312 L 42.988281 30.636719 L 38.949219 38.636719 L 38.53125 38.980469 L 37.699219 39.230469 L 36.882812 39.144531 L 35.300781 38.042969 Z M 40.070312 28.96875 "/>
<path style=" stroke:none;fill-rule:nonzero;fill:rgb(39.99939%,39.99939%,39.99939%);fill-opacity:0.3;" d="M 31.1875 31.914062 L 33.792969 26.820312 L 38.324219 29.097656 L 34.167969 37.414062 L 29.695312 34.953125 Z M 31.1875 31.914062 "/>
<path style=" stroke:none;fill-rule:nonzero;fill:rgb(39.99939%,39.99939%,39.99939%);fill-opacity:0.3;" d="M 31.148438 17.414062 L 34.839844 18.941406 L 30.992188 26.480469 L 31.933594 27.097656 L 28.445312 34.578125 L 23.71875 32.195312 Z M 31.148438 17.414062 "/>
<path style=" stroke:none;fill-rule:nonzero;fill:rgb(39.99939%,39.99939%,39.99939%);fill-opacity:0.3;" d="M 77.148438 22.972656 L 80.289062 24.648438 L 79.457031 27.304688 L 77.734375 29.914062 L 76.949219 31.867188 L 75.671875 34.382812 L 74.984375 37.128906 L 74.34375 39.945312 L 74.246094 41.898438 L 74.34375 43.484375 L 74.394531 44.136719 L 72.625 45.859375 L 71.152344 46.882812 L 68.695312 50.375 L 67.46875 52.144531 L 66.78125 53.085938 L 65.480469 53.433594 L 63.265625 53.53125 L 63.835938 52.527344 L 65.984375 47.464844 L 68.402344 42.839844 L 70.667969 38.761719 L 71.355469 36.015625 L 72.140625 32.617188 L 72.632812 31.03125 L 74.644531 27.308594 Z M 77.148438 22.972656 "/>
<path style=" stroke:none;fill-rule:nonzero;fill:rgb(39.99939%,39.99939%,39.99939%);fill-opacity:0.3;" d="M 74.367188 25.128906 L 73.054688 27.28125 L 71.699219 30.195312 L 69.4375 36.5625 L 69.25 37.660156 L 68.730469 39.242188 L 67.0625 41.21875 L 59.402344 37.214844 L 69.964844 18.945312 L 76.027344 22.027344 L 75.503906 23.261719 Z M 74.367188 25.128906 "/>
<path style=" stroke:none;fill-rule:nonzero;fill:rgb(39.99939%,39.99939%,39.99939%);fill-opacity:0.3;" d="M 61.480469 15.691406 L 67.527344 17.917969 L 67.839844 18.363281 L 68.097656 19.003906 L 68.152344 19.84375 L 68.097656 20.585938 L 58.664062 36.304688 L 58.195312 36.597656 L 57.570312 36.648438 L 56.839844 36.550781 L 52.515625 33.929688 L 52.410156 33.433594 L 52.410156 32.742188 Z M 61.480469 15.691406 "/>
<path style=" stroke:none;fill-rule:nonzero;fill:rgb(39.99939%,39.99939%,39.99939%);fill-opacity:0.3;" d="M 17.644531 -3.003906 L 19.742188 -2.582031 L 23.203125 -1.800781 L 22.34375 2.195312 L 20.644531 6.203125 L 15.707031 4.277344 Z M 17.644531 -3.003906 "/>
<path style=" stroke:none;fill-rule:nonzero;fill:rgb(39.99939%,39.99939%,39.99939%);fill-opacity:0.3;" d="M 16.964844 28.089844 L 12.234375 25.722656 L 17.535156 14.390625 L 22.554688 16.632812 Z M 16.964844 28.089844 "/>
<path style=" stroke:none;fill-rule:nonzero;fill:rgb(39.99939%,39.99939%,39.99939%);fill-opacity:0.3;" d="M 15.296875 5.390625 L 20.148438 7.414062 L 11.765625 25.402344 L 6.617188 23.171875 L 13.089844 11.246094 L 12.722656 10.757812 Z M 15.296875 5.390625 "/>
<path style=" stroke:none;fill-rule:nonzero;fill:rgb(39.99939%,39.99939%,39.99939%);fill-opacity:0.3;" d="M 11.40625 -5.097656 L 16.042969 -3.578125 L 14.71875 3.914062 L 9.726562 2.039062 Z M 11.40625 -5.097656 "/>
<path style=" stroke:none;fill-rule:nonzero;fill:rgb(39.99939%,39.99939%,39.99939%);fill-opacity:0.3;" d="M 23.054688 2.601562 L 28.042969 3.734375 L 26.847656 7.183594 L 25.078125 11.222656 L 22.84375 15.363281 L 18.273438 13.34375 L 20.558594 9.007812 L 22.015625 5.953125 Z M 23.054688 2.601562 "/>
<path style=" stroke:none;fill-rule:nonzero;fill:rgb(39.99939%,39.99939%,39.99939%);fill-opacity:0.3;" d="M 47.492188 10.886719 L 51.570312 12.417969 L 43.695312 28.683594 L 39.933594 27 Z M 47.492188 10.886719 "/>
<path style=" stroke:none;fill-rule:nonzero;fill:rgb(39.99939%,39.99939%,39.99939%);fill-opacity:0.3;" d="M 34.378906 5.507812 L 37.527344 6.558594 L 32.871094 16.695312 L 30.953125 15.898438 L 30.195312 17.464844 L 28.976562 16.941406 Z M 34.378906 5.507812 "/>
<path style=" stroke:none;fill-rule:nonzero;fill:rgb(39.99939%,39.99939%,39.99939%);fill-opacity:0.3;" d="M 38.433594 6.699219 L 42.003906 8.019531 L 37.496094 18.625 L 33.394531 17.195312 Z M 38.433594 6.699219 "/>
<path style=" stroke:none;fill-rule:nonzero;fill:rgb(39.99939%,39.99939%,39.99939%);fill-opacity:0.3;" d="M 38.058594 1.429688 L 36.710938 5.207031 L 23.503906 1.734375 L 24.730469 -1.945312 Z M 38.058594 1.429688 "/>
<path style=" stroke:none;fill-rule:nonzero;fill:rgb(39.99939%,39.99939%,39.99939%);fill-opacity:0.3;" d="M 50.652344 -2.136719 L 53.398438 -1.03125 L 50.035156 8.339844 L 50.515625 8.46875 L 50.996094 8.601562 L 51.613281 6.777344 L 62.246094 11.074219 L 60.875 14.589844 L 52.503906 11.59375 L 44.132812 8.015625 Z M 50.652344 -2.136719 "/>
<path style=" stroke:none;fill-rule:nonzero;fill:rgb(39.99939%,39.99939%,39.99939%);fill-opacity:0.3;" d="M 27.3125 8.613281 L 29.289062 4.128906 L 33.132812 5.214844 L 27.3125 17.480469 L 23.78125 15.804688 Z M 27.3125 8.613281 "/>
<path style=" stroke:none;fill-rule:nonzero;fill:rgb(39.99939%,39.99939%,39.99939%);fill-opacity:0.3;" d="M 73.136719 10.460938 L 94.296875 20.625 L 92.867188 24.933594 L 71.386719 14.710938 Z M 73.136719 10.460938 "/>
<path style=" stroke:none;fill-rule:nonzero;fill:rgb(39.99939%,39.99939%,39.99939%);fill-opacity:0.3;" d="M 86.054688 10.261719 L 95.726562 15.128906 L 94.234375 19.191406 L 73.65625 9.339844 L 75.347656 5.089844 Z M 86.054688 10.261719 "/>
<path style=" stroke:none;fill-rule:nonzero;fill:rgb(39.99939%,39.99939%,39.99939%);fill-opacity:0.3;" d="M 88.261719 5.277344 L 97.089844 9.710938 L 96.050781 14.144531 L 75.800781 4.042969 L 77.101562 -0.0820312 Z M 88.261719 5.277344 "/>
<path style=" stroke:none;fill-rule:nonzero;fill:rgb(39.99939%,39.99939%,39.99939%);fill-opacity:0.3;" d="M 91.421875 0.691406 L 98.390625 4.578125 L 97.027344 8.824219 L 77.359375 -1.210938 L 78.65625 -5.273438 Z M 91.421875 0.691406 "/>
<path style=" stroke:none;fill-rule:nonzero;fill:rgb(39.99939%,39.99939%,39.99939%);fill-opacity:0.3;" d="M 98.355469 3.035156 L 98.328125 3.179688 L 94.660156 1.355469 Z M 98.355469 3.035156 "/>
<path style=" stroke:none;fill-rule:nonzero;fill:rgb(39.99939%,39.99939%,39.99939%);fill-opacity:0.3;" d="M 57.992188 4.242188 L 64.167969 5.933594 L 62.453125 10.292969 L 56.621094 8.210938 Z M 57.992188 4.242188 "/>
<path style=" stroke:none;fill-rule:nonzero;fill:rgb(39.99939%,39.99939%,39.99939%);fill-opacity:0.3;" d="M 37.609375 5.441406 L 38.929688 1.671875 L 41.808594 2.472656 L 44.074219 3.761719 L 45.042969 4.4375 L 43.363281 6.953125 Z M 37.609375 5.441406 "/>
<path style=" stroke:none;fill-rule:nonzero;fill:rgb(39.99939%,39.99939%,39.99939%);fill-opacity:0.3;" d="M 9.277344 2.851562 L 14.4375 5.144531 L 11.9375 10.222656 L 8.402344 8.773438 L 8.6875 4.664062 Z M 9.277344 2.851562 "/>
<path style=" stroke:none;fill-rule:nonzero;fill:rgb(39.99939%,39.99939%,39.99939%);fill-opacity:0.3;" d="M 39.050781 0.664062 L 32.433594 -0.886719 L 34.492188 -6.996094 L 42.308594 -30.023438 L 49.125 -27.792969 Z M 39.050781 0.664062 "/>
<path style=" stroke:none;fill-rule:nonzero;fill:rgb(39.99939%,39.99939%,39.99939%);fill-opacity:0.3;" d="M 53.191406 -6.367188 L 54.289062 -9.878906 L 61.160156 -7.882812 L 59.574219 -3.566406 L 55.730469 7.363281 L 51.75 5.996094 L 54.632812 -1.289062 L 51.339844 -3.308594 Z M 53.191406 -6.367188 "/>
<path style=" stroke:none;fill-rule:nonzero;fill:rgb(39.99939%,39.99939%,39.99939%);fill-opacity:0.3;" d="M 74.457031 -19.8125 L 81.1875 -17.660156 L 69.210938 17.46875 L 62.390625 14.953125 Z M 74.457031 -19.8125 "/>
<path style=" stroke:none;fill-rule:nonzero;fill:rgb(39.99939%,39.99939%,39.99939%);fill-opacity:0.3;" d="M 62.113281 -7.472656 L 68.148438 -5.582031 L 64.855469 4.894531 L 58.132812 2.808594 Z M 62.113281 -7.472656 "/>
<path style=" stroke:none;fill-rule:nonzero;fill:rgb(39.99939%,39.99939%,39.99939%);fill-opacity:0.3;" d="M 21.71875 32.742188 L 24.695312 34.160156 L 22.992188 36.957031 L 20.128906 35.742188 L 15.613281 33.375 L 23.773438 17.214844 L 28.292969 19.183594 Z M 21.71875 32.742188 "/>
<path style=" stroke:none;fill-rule:nonzero;fill:rgb(39.99939%,39.99939%,39.99939%);fill-opacity:0.3;" d="M 25.566406 34.574219 L 36.402344 39.734375 L 23.988281 45.214844 L 23.800781 42.832031 L 22.472656 43.011719 L 22.804688 45.664062 L 18.695312 46.960938 L 15.765625 48.699219 L 9.566406 50.777344 L 5.757812 51.59375 L 5.984375 45.886719 L 9.683594 44.351562 L 12.882812 42.1875 L 14.394531 37.839844 L 14.703125 35.148438 L 23.226562 38.054688 L 24.125 36.5 Z M 25.566406 34.574219 "/>
<path style=" stroke:none;fill-rule:nonzero;fill:rgb(39.99939%,39.99939%,39.99939%);fill-opacity:0.3;" d="M 58.285156 38.660156 L 67.046875 43.019531 L 61.199219 53.789062 L 61.238281 54.226562 L 57.015625 54.09375 L 56.984375 53.777344 L 57.5 51.207031 L 57.183594 51.132812 L 56.824219 51.101562 L 56.390625 53.316406 L 55.613281 53.0625 L 52.113281 51.746094 L 51.460938 51.429688 Z M 58.285156 38.660156 "/>
<path style=" stroke:none;fill-rule:nonzero;fill:rgb(39.99939%,39.99939%,39.99939%);fill-opacity:0.3;" d="M 32.710938 52.820312 L 35.5 45.785156 L 43.351562 31.300781 L 43.777344 30.667969 L 44.320312 30.269531 L 44.867188 30.269531 L 45.773438 30.382812 L 46.4375 30.898438 L 50.429688 33.597656 L 42.011719 48.558594 L 40.507812 55.8125 Z M 32.710938 52.820312 "/>
<path style=" stroke:none;fill-rule:nonzero;fill:rgb(39.99939%,39.99939%,39.99939%);fill-opacity:0.3;" d="M 66.78125 53.085938 L 66.5625 53.382812 L 65.480469 53.433594 Z M 66.78125 53.085938 "/>
<path style=" stroke:none;fill-rule:nonzero;fill:rgb(39.99939%,39.99939%,39.99939%);fill-opacity:0.3;" d="M 61.238281 54.226562 L 62.136719 64.1875 L 58.15625 64.921875 L 57.015625 54.09375 Z M 61.238281 54.226562 "/>
<path style=" stroke:none;fill-rule:nonzero;fill:rgb(39.99939%,39.99939%,39.99939%);fill-opacity:0.3;" d="M 52.113281 51.746094 L 51.429688 51.488281 L 51.460938 51.429688 Z M 52.113281 51.746094 "/>
<path style=" stroke:none;fill-rule:nonzero;fill:rgb(39.99939%,39.99939%,39.99939%);fill-opacity:0.3;" d="M 110.777344 225.3125 L 112.460938 223.894531 L 115.585938 233.949219 L 115.675781 234.175781 Z M 110.777344 225.3125 "/>
<path style=" stroke:none;fill-rule:nonzero;fill:rgb(39.99939%,39.99939%,39.99939%);fill-opacity:0.3;" d="M 153.371094 282.957031 L 173.964844 308.03125 L 174.167969 308.570312 L 155.042969 285.082031 L 153.683594 283.386719 Z M 153.371094 282.957031 "/>
<path style=" stroke:none;fill-rule:nonzero;fill:rgb(39.99939%,39.99939%,39.99939%);fill-opacity:0.3;" d="M 164.5625 126.984375 L 165.277344 126.683594 L 166.433594 126.671875 L 184.378906 130.148438 L 192.417969 132.933594 L 192.941406 133.882812 L 192.269531 136.136719 L 164.59375 128.820312 L 164.199219 128.480469 Z M 164.5625 126.984375 "/>
<path style=" stroke:none;fill-rule:nonzero;fill:rgb(39.99939%,39.99939%,39.99939%);fill-opacity:0.3;" d="M 189.988281 147.449219 L 188.425781 154.859375 L 185.917969 155.953125 L 178.96875 153.0625 L 175.296875 151.285156 L 178.648438 138.171875 L 179.90625 134.089844 L 191.542969 137.296875 Z M 189.988281 147.449219 "/>
<path style=" stroke:none;fill-rule:nonzero;fill:rgb(39.99939%,39.99939%,39.99939%);fill-opacity:0.3;" d="M 177.457031 133.890625 L 175.601562 140.464844 L 173.058594 150.164062 L 159.871094 143.972656 L 163.558594 129.339844 Z M 177.457031 133.890625 "/>
<path style=" stroke:none;fill-rule:nonzero;fill:rgb(39.99939%,39.99939%,39.99939%);fill-opacity:0.3;" d="M 189.84375 160.507812 L 186.535156 166.214844 L 177.078125 160.9375 L 175.765625 160.984375 L 174.203125 163.113281 L 163.550781 156.734375 L 156.515625 157.046875 L 152.382812 156.363281 L 151.945312 155.582031 L 157.566406 145.859375 L 158.449219 145.335938 L 159.636719 146.59375 Z M 189.84375 160.507812 "/>
<path style=" stroke:none;fill-rule:nonzero;fill:rgb(39.99939%,39.99939%,39.99939%);fill-opacity:0.3;" d="M 182.699219 268.433594 L 191.78125 252.558594 L 195.714844 254.679688 L 186.617188 270.628906 Z M 182.699219 268.433594 "/>
<path style=" stroke:none;fill-rule:nonzero;fill:rgb(39.99939%,39.99939%,39.99939%);fill-opacity:0.3;" d="M 192.027344 251.878906 L 193.289062 249.738281 L 197.371094 251.976562 L 196.105469 254.035156 Z M 192.027344 251.878906 "/>
<path style=" stroke:none;fill-rule:nonzero;fill:rgb(39.99939%,39.99939%,39.99939%);fill-opacity:0.3;" d="M 177.367188 265.28125 L 184.480469 243.921875 L 185.46875 242.25 L 184.449219 241.78125 L 183.914062 242.882812 L 182.058594 241.601562 L 180.605469 236.785156 L 181.070312 235.796875 L 183.089844 234.902344 L 186.066406 234.648438 L 188.859375 236.777344 L 195.78125 241.273438 L 195.949219 241.574219 L 195.726562 242.054688 L 205.710938 248.648438 L 201.613281 253.136719 L 198.722656 256.921875 L 196.914062 259.347656 L 196.425781 259.976562 L 196.285156 260.132812 L 196.261719 260.1875 L 196.214844 260.246094 L 195.507812 261.832031 L 190.886719 271.523438 L 190.015625 273.335938 L 187.074219 271.445312 L 197.949219 252.285156 L 192.65625 249.378906 L 181.707031 268.046875 Z M 177.367188 265.28125 "/>
<path style=" stroke:none;fill-rule:nonzero;fill:rgb(39.99939%,39.99939%,39.99939%);fill-opacity:0.3;" d="M 168.023438 176.5625 L 171.101562 171.179688 L 173.089844 172.5 L 172.878906 177.550781 L 171.730469 181.398438 L 171.253906 183.210938 L 170.21875 185.910156 L 168.730469 191.652344 L 163.683594 189.996094 L 165.15625 184.882812 Z M 168.023438 176.5625 "/>
<path style=" stroke:none;fill-rule:nonzero;fill:rgb(39.99939%,39.99939%,39.99939%);fill-opacity:0.3;" d="M 145.667969 247.023438 L 145.152344 245.074219 L 148.351562 241.445312 L 153.902344 247.488281 L 147.707031 254.753906 Z M 145.667969 247.023438 "/>
<path style=" stroke:none;fill-rule:nonzero;fill:rgb(39.99939%,39.99939%,39.99939%);fill-opacity:0.3;" d="M 139.601562 243.566406 L 143.019531 246.566406 L 144.59375 247.292969 L 144.625 247.550781 L 147.050781 256.382812 L 147.214844 257.136719 L 147.96875 259.929688 L 148.089844 260.570312 L 148.367188 261.210938 L 157.234375 270.078125 L 155.960938 274.480469 L 155.492188 284.546875 L 127.027344 248.792969 Z M 139.601562 243.566406 "/>
<path style=" stroke:none;fill-rule:nonzero;fill:rgb(39.99939%,39.99939%,39.99939%);fill-opacity:0.3;" d="M 156.867188 157.914062 L 163.207031 157.980469 L 157.621094 167.160156 L 153.078125 164.742188 Z M 156.867188 157.914062 "/>
<path style=" stroke:none;fill-rule:nonzero;fill:rgb(39.99939%,39.99939%,39.99939%);fill-opacity:0.3;" d="M 174.242188 215.90625 L 184.488281 220.714844 L 171.667969 220.695312 Z M 174.242188 215.90625 "/>
<path style=" stroke:none;fill-rule:nonzero;fill:rgb(39.99939%,39.99939%,39.99939%);fill-opacity:0.3;" d="M 162.382812 190.847656 L 168.503906 192.625 L 167.691406 195.8125 L 161.210938 194.246094 Z M 162.382812 190.847656 "/>
<path style=" stroke:none;fill-rule:nonzero;fill:rgb(39.99939%,39.99939%,39.99939%);fill-opacity:0.3;" d="M 167.667969 200.160156 L 168.523438 195.65625 L 176.761719 196.960938 L 176.792969 197.144531 L 174.960938 199.34375 L 175.535156 199.597656 L 175.882812 199.753906 L 175.671875 202.242188 Z M 167.667969 200.160156 "/>
<path style=" stroke:none;fill-rule:nonzero;fill:rgb(39.99939%,39.99939%,39.99939%);fill-opacity:0.3;" d="M 182.148438 164.863281 L 186.753906 167.34375 L 182.597656 173.386719 L 183.21875 173.683594 L 183.636719 173.878906 L 183.003906 177.296875 L 182.953125 177.296875 L 182.539062 177.304688 L 181.75 181.730469 L 179.53125 194.179688 L 177.679688 196.339844 L 172.140625 194.847656 L 169.585938 194.113281 L 171.808594 186.351562 L 171.808594 184.476562 L 173.605469 179.773438 L 173.960938 171.296875 L 164.257812 164.246094 L 159.175781 173.3125 L 148.257812 166.769531 L 147.878906 164.851562 L 150.957031 158.011719 L 155.425781 157.960938 L 151.421875 164.457031 L 149.929688 166.878906 L 150.554688 167.292969 L 151.785156 165.179688 L 157.625 168.28125 L 160.125 169.609375 L 160.367188 169.226562 L 160.398438 169.175781 L 160.675781 168.746094 L 158.773438 167.59375 L 164.160156 158.792969 L 173.785156 164.144531 L 172.21875 166.5 L 173.421875 167.195312 L 175.171875 164.40625 L 176.773438 161.851562 L 181.269531 164.414062 L 176.167969 171.917969 L 176.640625 172.117188 L 177.109375 172.316406 Z M 182.148438 164.863281 "/>
<path style=" stroke:none;fill-rule:nonzero;fill:rgb(39.99939%,39.99939%,39.99939%);fill-opacity:0.3;" d="M 159.300781 188.871094 L 162.644531 180.703125 L 158.484375 178.554688 L 162.425781 172.035156 L 165.898438 166.222656 L 167.472656 167.304688 L 161.453125 178.152344 L 162.183594 178.546875 L 162.917969 178.941406 L 168.5 168.542969 L 170.519531 169.671875 L 166.542969 176.863281 L 165.648438 179.242188 L 162.523438 190.15625 Z M 159.300781 188.871094 "/>
<path style=" stroke:none;fill-rule:nonzero;fill:rgb(39.99939%,39.99939%,39.99939%);fill-opacity:0.3;" d="M 155.199219 248.386719 L 173.195312 263.550781 L 172.417969 264.542969 L 172.089844 265.441406 L 171.875 266.546875 L 171.972656 267.707031 L 172.414062 268.441406 L 173.070312 268.828125 L 173.691406 268.976562 L 174.5 268.902344 L 175.308594 268.6875 L 176.046875 268.355469 L 176.734375 267.832031 L 177.238281 267.242188 L 189.757812 274.804688 L 187.796875 279.144531 L 187.289062 280.332031 L 185.761719 283.726562 L 183.046875 289.835938 L 182.941406 290.070312 L 174.730469 307.703125 L 156.566406 285.589844 L 156.921875 273.816406 L 157.488281 271.769531 L 158.058594 270.476562 L 158.824219 269.574219 L 149.753906 259.671875 L 149.097656 256.433594 Z M 155.199219 248.386719 "/>
<path style=" stroke:none;fill-rule:nonzero;fill:rgb(39.99939%,39.99939%,39.99939%);fill-opacity:0.3;" d="M 168.988281 331.0625 L 165.28125 328.832031 L 167.050781 325.996094 L 162.597656 323.25 L 162.191406 323.886719 L 161.789062 324.527344 L 165.382812 326.488281 L 163.40625 329.304688 L 168.339844 332.128906 L 165.730469 336.453125 L 165.175781 336.816406 L 164.5 336.804688 L 163.773438 336.59375 L 140.226562 323.320312 L 140.257812 323.21875 L 144.8125 315.6875 L 144.4375 315.394531 L 144.058594 315.101562 L 139.273438 322.816406 L 130.191406 317.683594 L 134.125 310.679688 L 134.746094 309.644531 L 135.09375 309.023438 L 134.773438 308.839844 L 134.449219 308.65625 L 129.285156 317.171875 L 128.316406 316.625 L 127.339844 316.386719 L 110.347656 314.03125 L 106.136719 314.339844 L 105.835938 314.195312 L 105.8125 313.839844 L 110.21875 307.316406 L 110.816406 306.917969 L 112.195312 306.125 L 112.566406 305.804688 L 116.734375 306.753906 L 116.921875 306.15625 L 117.113281 305.558594 L 113.566406 304.679688 L 116.464844 298.230469 L 118.015625 294.636719 L 118.105469 294.269531 L 118.019531 288.042969 L 117.988281 287.53125 L 117.867188 287.109375 L 117.699219 286.691406 L 117.550781 286.285156 L 116.246094 283.964844 L 115.988281 283.453125 L 115.476562 282.449219 L 115.265625 281.917969 L 115.09375 281.394531 L 114.988281 280.839844 L 114.894531 280.308594 L 114.417969 279.5625 L 112.296875 271.953125 L 116.34375 267.539062 L 121.566406 271.296875 L 124.476562 268.207031 L 124.054688 267.835938 L 123.632812 267.46875 L 121.367188 269.894531 L 117.246094 266.53125 L 121.484375 262.125 L 120.5 261.242188 L 116.070312 265.910156 L 111.753906 262.082031 L 114.003906 258.707031 L 113.121094 258.183594 L 110.953125 261.417969 L 110.367188 260.917969 L 109.980469 261.335938 L 109.597656 261.753906 L 115.386719 266.753906 L 111.613281 270.445312 L 106.210938 263.164062 L 105.75 260.320312 L 106.242188 257.75 L 107.648438 255.007812 L 109.53125 249.375 L 109.667969 240.703125 L 116.316406 235.839844 L 116.722656 236.949219 L 120.382812 242.179688 L 121.800781 244.296875 L 135.972656 261.777344 L 153.371094 282.957031 L 153.683594 283.386719 L 155.042969 285.082031 L 174.167969 308.570312 L 174.242188 308.765625 L 174.265625 309.683594 L 173.816406 310.867188 L 172.859375 310.441406 L 168.21875 318.066406 L 174.964844 321.167969 Z M 168.988281 331.0625 "/>
<path style=" stroke:none;fill-rule:nonzero;fill:rgb(39.99939%,39.99939%,39.99939%);fill-opacity:0.3;" d="M 68.332031 312.828125 L 80.132812 313.457031 L 82.207031 304.0625 L 84.753906 304.085938 L 100.148438 304.449219 L 101.214844 302.1875 L 117.113281 289.109375 L 117.335938 293.1875 L 117.335938 294.113281 L 116.976562 295.378906 L 112.832031 304.546875 L 112.210938 305.117188 L 110.960938 305.734375 L 109.96875 306.5625 L 105.171875 313.460938 L 103.726562 311.121094 L 102.671875 311.347656 L 102.714844 311.570312 L 102.757812 311.796875 L 103.582031 311.695312 L 104.683594 313.742188 L 102.515625 313.832031 L 96.777344 314.691406 L 92.1875 315.785156 L 88.75 317.539062 L 84.660156 320.917969 L 78.859375 319.714844 L 79.652344 315.828125 L 79.292969 315.785156 L 78.929688 315.742188 L 78.210938 319.585938 L 67.351562 317.253906 Z M 68.332031 312.828125 "/>
<path style=" stroke:none;fill-rule:nonzero;fill:rgb(39.99939%,39.99939%,39.99939%);fill-opacity:0.3;" d="M 201.140625 285.734375 L 201.101562 285.816406 L 197.34375 284.253906 Z M 201.140625 285.734375 "/>
<g clip-path="url(#clip1)" clip-rule="nonzero">
<path style=" stroke:none;fill-rule:nonzero;fill:rgb(39.99939%,39.99939%,39.99939%);fill-opacity:0.3;" d="M 114.804688 331.8125 L 115.074219 331.398438 L 115.402344 331.230469 L 124.847656 335.332031 L 125.261719 335.785156 L 125.367188 336.285156 L 122.160156 359.628906 L 121.894531 360.03125 L 121.445312 360.304688 L 111.410156 358.972656 L 111.0625 358.644531 L 111.046875 358.054688 Z M 114.804688 331.8125 "/>
</g>
<g clip-path="url(#clip2)" clip-rule="nonzero">
<path style=" stroke:none;fill-rule:nonzero;fill:rgb(39.99939%,39.99939%,39.99939%);fill-opacity:0.3;" d="M 72.828125 319.996094 L 78.25 321.460938 L 83.542969 322.707031 L 41.285156 368 L 39.800781 366.683594 L 38.273438 365.15625 L 35.824219 363.578125 L 32.988281 362.128906 L 39.925781 353.511719 L 40.800781 343.523438 L 43.824219 344.253906 L 46.746094 342.355469 L 47.566406 338.660156 L 50.027344 338.515625 L 54.746094 335.5 L 60.847656 332.726562 L 64.488281 335.589844 L 69.160156 332.082031 L 72.730469 329.304688 Z M 72.828125 319.996094 "/>
</g>
<g clip-path="url(#clip3)" clip-rule="nonzero">
<path style=" stroke:none;fill-rule:nonzero;fill:rgb(39.99939%,39.99939%,39.99939%);fill-opacity:0.3;" d="M 63.949219 347.671875 L 66.585938 349.875 L 72.210938 354.566406 L 73.417969 354.988281 L 75.003906 355.28125 L 76.453125 355.535156 L 72.40625 368.710938 L 73.234375 368.851562 L 77.476562 355.765625 L 107.371094 359.71875 L 107.957031 360.109375 L 108.191406 360.71875 L 107.429688 360.589844 L 106.15625 367.195312 L 107.429688 367.363281 L 107.273438 368.199219 L 106.941406 368.976562 L 106.3125 369.671875 L 103.703125 371.355469 L 90.207031 380.851562 L 78.980469 388.753906 L 49.359375 368.476562 L 45.542969 365.617188 L 61.984375 347.96875 L 62.296875 348.148438 L 47.1875 364.332031 L 47.535156 364.523438 L 47.878906 364.71875 Z M 63.949219 347.671875 "/>
</g>
<path style=" stroke:none;fill-rule:nonzero;fill:rgb(39.99939%,39.99939%,39.99939%);fill-opacity:0.3;" d="M 187.445312 280.394531 L 182.941406 290.070312 L 183.046875 289.835938 L 185.761719 283.726562 L 187.289062 280.332031 Z M 187.445312 280.394531 "/>
<g clip-path="url(#clip4)" clip-rule="nonzero">
<path style=" stroke:none;fill-rule:nonzero;fill:rgb(39.99939%,39.99939%,39.99939%);fill-opacity:0.3;" d="M 10.667969 353.066406 L 28.78125 361.167969 L 33.011719 363.335938 L 35.734375 364.996094 L 37.828125 366.679688 L 40.390625 369.703125 L 30.335938 380.972656 L 11.082031 369.351562 L 3.667969 364.640625 Z M 10.667969 353.066406 "/>
</g>
<path style=" stroke:none;fill-rule:nonzero;fill:rgb(39.99939%,39.99939%,39.99939%);fill-opacity:0.3;" d="M 88.695312 321.109375 L 88.289062 325.335938 L 88.09375 326.035156 L 87.710938 326.445312 L 73.75 341.28125 L 73.519531 341.734375 L 72.132812 352.394531 L 71.488281 352.46875 L 65.160156 347.035156 L 65.050781 346.394531 L 65.273438 345.597656 Z M 88.695312 321.109375 "/>
<g clip-path="url(#clip5)" clip-rule="nonzero">
<path style=" stroke:none;fill-rule:nonzero;fill:rgb(39.99939%,39.99939%,39.99939%);fill-opacity:0.3;" d="M 153.488281 347.785156 L 155.71875 348.652344 L 158.261719 349.160156 L 160.429688 349.421875 L 162.355469 349.367188 L 164.390625 349.117188 L 161.605469 365.378906 L 151.324219 364.023438 Z M 153.488281 347.785156 "/>
</g>
<path style=" stroke:none;fill-rule:nonzero;fill:rgb(39.99939%,39.99939%,39.99939%);fill-opacity:0.3;" d="M 90.96875 319.292969 L 91.574219 318.558594 L 92.507812 317.984375 L 95.542969 316.941406 L 104.472656 315.1875 L 105.074219 315.25 L 105.292969 315.839844 L 105.292969 316.46875 L 100.851562 324.457031 L 100.53125 325.566406 L 96.054688 355.984375 L 95.25 356.441406 L 85.953125 355.210938 L 85.75 354.488281 Z M 90.96875 319.292969 "/>
<path style=" stroke:none;fill-rule:nonzero;fill:rgb(39.99939%,39.99939%,39.99939%);fill-opacity:0.3;" d="M 87.121094 329.082031 L 83.855469 354.449219 L 77.761719 353.945312 L 75.3125 353.585938 L 73.398438 352.941406 L 74.652344 341.828125 L 74.847656 341.21875 Z M 87.121094 329.082031 "/>
<path style=" stroke:none;fill-rule:nonzero;fill:rgb(39.99939%,39.99939%,39.99939%);fill-opacity:0.3;" d="M 103.503906 326.707031 L 112.726562 329.90625 L 113.203125 330.414062 L 113.363281 331.023438 L 109.335938 357.625 L 109.023438 358.246094 L 108.457031 358.386719 L 98.765625 357.183594 L 98.371094 357 L 98.210938 356.480469 L 102.816406 327.203125 L 103.042969 326.863281 Z M 103.503906 326.707031 "/>
<g clip-path="url(#clip6)" clip-rule="nonzero">
<path style=" stroke:none;fill-rule:nonzero;fill:rgb(39.99939%,39.99939%,39.99939%);fill-opacity:0.3;" d="M 141.394531 344.007812 L 141.792969 343.460938 L 142.632812 343.242188 L 150.542969 346.601562 L 151.203125 347.066406 L 151.289062 347.828125 L 149.371094 362.792969 L 149.023438 363.625 L 148.300781 363.835938 L 140.027344 362.636719 L 139.195312 362.242188 L 138.882812 361.566406 Z M 141.394531 344.007812 "/>
</g>
<path style=" stroke:none;fill-rule:nonzero;fill:rgb(39.99939%,39.99939%,39.99939%);fill-opacity:0.3;" d="M 107.664062 315.765625 L 107.980469 315.265625 L 108.929688 315.046875 L 114.453125 315.484375 L 120.984375 316.289062 L 126.148438 317.019531 L 128.859375 317.667969 L 149.84375 329.769531 L 143.523438 340.390625 L 143.066406 340.933594 L 142.261719 340.691406 L 128.820312 334.542969 L 133.167969 326.351562 L 132.558594 326.023438 L 131.945312 325.695312 L 127.382812 333.765625 L 104.859375 324.632812 L 104.457031 323.949219 L 104.484375 323.019531 Z M 107.664062 315.765625 "/>
<g clip-path="url(#clip7)" clip-rule="nonzero">
<path style=" stroke:none;fill-rule:nonzero;fill:rgb(39.99939%,39.99939%,39.99939%);fill-opacity:0.3;" d="M 126.585938 337.007812 L 127.007812 336.671875 L 127.546875 336.617188 L 139.324219 341.777344 L 139.851562 342.445312 L 139.929688 343.265625 L 137.28125 361.335938 L 137.097656 362.121094 L 136.488281 362.433594 L 123.972656 360.597656 L 123.527344 360.289062 L 123.550781 359.65625 Z M 126.585938 337.007812 "/>
</g>
<path style=" stroke:none;fill-rule:nonzero;fill:rgb(39.99939%,39.99939%,39.99939%);fill-opacity:0.3;" d="M 176.183594 321.667969 L 179.996094 323.359375 L 178.050781 327.128906 L 178.8125 327.542969 L 179.574219 327.953125 L 181.585938 324.128906 L 185.179688 325.640625 L 185.367188 325.820312 L 185.359375 326.164062 L 180.0625 338.972656 L 179.570312 339.46875 L 179.082031 339.78125 L 161.585938 347.269531 L 160.59375 347.722656 L 159.476562 347.726562 L 144.464844 341.019531 L 150.835938 330.273438 L 165.863281 338.691406 Z M 176.183594 321.667969 "/>
<g clip-path="url(#clip8)" clip-rule="nonzero">
<path style=" stroke:none;fill-rule:nonzero;fill:rgb(39.99939%,39.99939%,39.99939%);fill-opacity:0.3;" d="M 221.382812 338.519531 L 235.671875 340.105469 L 236.226562 340.628906 L 236.246094 341.191406 L 231.179688 372.96875 L 228.144531 373.394531 L 224.390625 373.644531 L 220.058594 373.492188 L 216.453125 372.90625 Z M 221.382812 338.519531 "/>
</g>
<g clip-path="url(#clip9)" clip-rule="nonzero">
<path style=" stroke:none;fill-rule:nonzero;fill:rgb(39.99939%,39.99939%,39.99939%);fill-opacity:0.3;" d="M 166.566406 348.429688 L 178.140625 342.402344 L 168.613281 366.40625 L 163.585938 365.59375 Z M 166.566406 348.429688 "/>
</g>
<g clip-path="url(#clip10)" clip-rule="nonzero">
<path style=" stroke:none;fill-rule:nonzero;fill:rgb(39.99939%,39.99939%,39.99939%);fill-opacity:0.3;" d="M 179.953125 341.25 L 187.457031 339.300781 L 188.875 339.1875 L 191.621094 339.675781 L 187.507812 369.074219 L 170.96875 366.277344 Z M 179.953125 341.25 "/>
</g>
<path style=" stroke:none;fill-rule:nonzero;fill:rgb(39.99939%,39.99939%,39.99939%);fill-opacity:0.3;" d="M 186.242188 326.21875 L 200.878906 332.859375 L 197.417969 337.972656 L 197.027344 338.296875 L 196.363281 338.453125 L 191.824219 337.820312 L 189.816406 337.5625 L 188.132812 337.613281 L 185.828125 337.871094 L 183.382812 338.433594 L 180.78125 339.394531 Z M 186.242188 326.21875 "/>
<path style=" stroke:none;fill-rule:nonzero;fill:rgb(39.99939%,39.99939%,39.99939%);fill-opacity:0.3;" d="M 175.179688 312.152344 L 175.492188 311.96875 L 176.011719 312 L 187.347656 318.46875 L 187.589844 318.820312 L 187.570312 319.253906 L 185.640625 324.070312 L 185.308594 324.375 L 184.871094 324.359375 L 172.441406 318.671875 L 172.0625 318.203125 L 172.042969 317.503906 Z M 175.179688 312.152344 "/>
<g clip-path="url(#clip11)" clip-rule="nonzero">
<path style=" stroke:none;fill-rule:nonzero;fill:rgb(39.99939%,39.99939%,39.99939%);fill-opacity:0.3;" d="M 201.6875 333.597656 L 201.972656 333.308594 L 202.304688 333.285156 L 209.941406 336.289062 L 217.109375 338.253906 L 217.542969 338.640625 L 217.816406 339.199219 L 217.875 339.945312 L 213.308594 371.835938 L 212.945312 372.199219 L 212.390625 372.300781 L 203.199219 371.21875 L 202.917969 370.855469 L 202.78125 370.476562 L 206.726562 339.496094 L 198.589844 338.367188 Z M 201.6875 333.597656 "/>
</g>
<g clip-path="url(#clip12)" clip-rule="nonzero">
<path style=" stroke:none;fill-rule:nonzero;fill:rgb(39.99939%,39.99939%,39.99939%);fill-opacity:0.3;" d="M 193.605469 339.859375 L 203.953125 341.191406 L 199.890625 370.714844 L 189.675781 369.320312 Z M 193.605469 339.859375 "/>
</g>
<path style=" stroke:none;fill-rule:nonzero;fill:rgb(39.99939%,39.99939%,39.99939%);fill-opacity:0.3;" d="M 204.863281 327.859375 L 204.914062 327.824219 L 204.707031 328.109375 Z M 204.863281 327.859375 "/>
<path style=" stroke:none;fill-rule:nonzero;fill:rgb(39.99939%,39.99939%,39.99939%);fill-opacity:0.3;" d="M 203.390625 332.183594 L 202.957031 331.984375 L 202.925781 331.945312 Z M 203.390625 332.183594 "/>
<path style=" stroke:none;fill-rule:nonzero;fill:rgb(39.99939%,39.99939%,39.99939%);fill-opacity:0.3;" d="M 188.269531 319.945312 L 188.597656 319.78125 L 188.996094 319.78125 L 197.082031 323.277344 L 203.851562 326.773438 L 204.039062 327.15625 L 203.941406 327.515625 L 201.476562 331.257812 L 201.089844 331.480469 L 200.492188 331.480469 L 187.050781 325.0625 L 186.6875 324.800781 L 186.667969 324.195312 Z M 188.269531 319.945312 "/>
<path style=" stroke:none;fill-rule:nonzero;fill:rgb(39.99939%,39.99939%,39.99939%);fill-opacity:0.3;" d="M 188.054688 281.300781 L 200.789062 286.351562 L 194.628906 301.269531 L 188.023438 317.621094 L 187.6875 317.910156 L 187.296875 317.882812 L 174.65625 310.515625 Z M 188.054688 281.300781 "/>
<path style=" stroke:none;fill-rule:nonzero;fill:rgb(39.99939%,39.99939%,39.99939%);fill-opacity:0.3;" d="M 201.828125 286.859375 L 225.492188 296.515625 L 225.792969 296.761719 L 225.910156 297.195312 L 224.195312 303.429688 L 224.070312 303.742188 L 223.960938 303.980469 L 223.59375 304.355469 L 223.003906 304.734375 L 222.0625 304.914062 L 220.964844 305.050781 L 219.75 305.398438 L 218.691406 305.90625 L 217.8125 306.660156 L 217.027344 307.441406 L 215.964844 308.660156 L 214.757812 310.277344 L 204.574219 326.277344 L 197.1875 322.527344 L 188.695312 318.671875 L 195.601562 301.769531 Z M 201.828125 286.859375 "/>
<g clip-path="url(#clip13)" clip-rule="nonzero">
<path style=" stroke:none;fill-rule:nonzero;fill:rgb(39.99939%,39.99939%,39.99939%);fill-opacity:0.3;" d="M 238.804688 340.75 L 249.007812 342.25 L 245.347656 367.859375 L 243.382812 368.769531 L 240.296875 369.886719 L 237.058594 370.996094 L 234.113281 371.890625 Z M 238.804688 340.75 "/>
</g>
<g clip-path="url(#clip14)" clip-rule="nonzero">
<path style=" stroke:none;fill-rule:nonzero;fill:rgb(39.99939%,39.99939%,39.99939%);fill-opacity:0.3;" d="M 251.410156 342.625 L 260.253906 343.570312 L 259.378906 346.324219 L 258.621094 349.347656 L 257.796875 351.804688 L 256.648438 354.859375 L 255.382812 357.480469 L 253.953125 359.925781 L 252.082031 362.121094 L 249.230469 365.019531 L 248.804688 365.113281 L 248.398438 364.710938 Z M 251.410156 342.625 "/>
</g>
<path style=" stroke:none;fill-rule:nonzero;fill:rgb(39.99939%,39.99939%,39.99939%);fill-opacity:0.3;" d="M 313.6875 118.273438 L 323.46875 124.976562 L 325.617188 125.65625 L 319.699219 132.734375 L 316.320312 135.171875 L 306.628906 138.6875 L 294.332031 144.195312 L 279.324219 132.671875 L 277.28125 131.25 L 276.8125 131.78125 L 276.34375 132.308594 L 278.492188 133.84375 L 265.910156 149.089844 L 264.578125 150.710938 L 263.410156 151.777344 L 262.367188 151.898438 L 261.007812 151.480469 L 253.015625 117.851562 L 242.875 74.71875 L 237.539062 54.523438 L 321.265625 52.984375 L 321.527344 54.601562 L 323.730469 56.113281 L 331.035156 65.894531 L 329.738281 68.613281 L 324.582031 79.179688 L 319.757812 69.929688 L 319.265625 70.089844 L 318.773438 70.253906 L 324.132812 80.738281 L 325.203125 82.695312 L 325.832031 83.804688 L 325.9375 84.207031 L 325.941406 84.4375 L 325.964844 85.613281 L 325.464844 90.101562 L 323.902344 99.171875 L 345.210938 105.898438 L 345.574219 106.179688 L 345.664062 106.617188 L 345.488281 107 L 341.507812 109.898438 L 339.691406 111.375 L 333.292969 117.558594 L 326.304688 124.703125 L 323.980469 124.058594 L 314.300781 117.660156 Z M 313.6875 118.273438 "/>
<path style=" stroke:none;fill-rule:nonzero;fill:rgb(39.99939%,39.99939%,39.99939%);fill-opacity:0.3;" d="M 322.921875 146.960938 L 315.578125 156.300781 L 314.707031 156.886719 L 313.769531 157.195312 L 312.6875 156.914062 L 296.160156 145.234375 L 299.917969 143.769531 L 311.476562 138.347656 Z M 322.921875 146.960938 "/>
<path style=" stroke:none;fill-rule:nonzero;fill:rgb(39.99939%,39.99939%,39.99939%);fill-opacity:0.3;" d="M 311.949219 137.898438 L 317.15625 135.972656 L 320.117188 134.042969 L 323.511719 130.742188 L 326.476562 127.472656 L 334.488281 118.453125 L 340.53125 112.25 L 343.652344 109.710938 L 345.597656 108.265625 L 346.335938 107.941406 L 347.191406 107.707031 L 347.988281 107.640625 L 348.960938 107.835938 L 349.550781 108.191406 L 349.984375 108.796875 L 350.136719 109.421875 L 350.125 110.148438 L 349.660156 111.472656 L 323.390625 146.230469 Z M 311.949219 137.898438 "/>
<g clip-path="url(#clip15)" clip-rule="nonzero">
<path style=" stroke:none;fill-rule:nonzero;fill:rgb(39.99939%,39.99939%,39.99939%);fill-opacity:0.3;" d="M 332.46875 66.152344 L 330.625 63.433594 L 324.074219 55.078125 L 322.117188 54.527344 L 321.910156 53.148438 L 321.90625 52.972656 L 334.53125 52.742188 L 336.164062 54.320312 L 340.414062 58.550781 L 343.015625 61.019531 L 345.910156 63.570312 L 365.636719 80.242188 L 366.550781 81.304688 L 367.109375 82.609375 L 367.425781 84.003906 L 367.445312 85.433594 L 367.238281 86.6875 L 366.855469 87.757812 L 366.269531 88.800781 L 365.652344 89.679688 L 364.183594 91.359375 L 351.71875 107.484375 L 349.125 106.253906 L 347.195312 105.496094 L 345.320312 105.25 L 324.679688 98.863281 L 326.023438 90.882812 L 326.75 85.320312 L 326.660156 84.265625 L 326.433594 83.402344 L 325.292969 80.566406 L 325.3125 80.125 Z M 332.46875 66.152344 "/>
</g>
<path style=" stroke:none;fill-rule:nonzero;fill:rgb(39.99939%,39.99939%,39.99939%);fill-opacity:0.3;" d="M 270.820312 177.726562 L 287.699219 180.179688 L 292.109375 185.570312 L 292.652344 186.15625 L 286.183594 194.320312 L 271.171875 192.277344 L 270.273438 190.03125 L 269.980469 188.839844 L 270.507812 182.332031 Z M 270.820312 177.726562 "/>
<path style=" stroke:none;fill-rule:nonzero;fill:rgb(39.99939%,39.99939%,39.99939%);fill-opacity:0.3;" d="M 271.882812 193.359375 L 284.566406 195.222656 L 274.765625 208.574219 Z M 271.882812 193.359375 "/>
<path style=" stroke:none;fill-rule:nonzero;fill:rgb(39.99939%,39.99939%,39.99939%);fill-opacity:0.3;" d="M 276.195312 211.394531 L 285.019531 199.496094 L 284.199219 201.410156 L 283.351562 205.3125 L 280.976562 221.269531 L 279.914062 228.84375 Z M 276.195312 211.394531 "/>
<path style=" stroke:none;fill-rule:nonzero;fill:rgb(39.99939%,39.99939%,39.99939%);fill-opacity:0.3;" d="M 279.859375 134.847656 L 293.25 144.882812 L 276.457031 165.898438 L 272.746094 168.824219 L 264.289062 163.445312 L 263.988281 161.128906 L 263.925781 158.296875 L 263.988281 156.386719 L 264.414062 154.304688 L 265.9375 152.164062 Z M 279.859375 134.847656 "/>
<path style=" stroke:none;fill-rule:nonzero;fill:rgb(39.99939%,39.99939%,39.99939%);fill-opacity:0.3;" d="M 271.796875 177.003906 L 272.574219 173.773438 L 273.777344 171.046875 L 278.414062 171.929688 L 280.28125 171.957031 L 287.046875 179.570312 Z M 271.796875 177.003906 "/>
<path style=" stroke:none;fill-rule:nonzero;fill:rgb(39.99939%,39.99939%,39.99939%);fill-opacity:0.3;" d="M 274.945312 169.957031 L 275.515625 168.714844 L 276.375 167.90625 L 277.09375 167.300781 L 279.945312 170.175781 L 279.371094 171.089844 Z M 274.945312 169.957031 "/>
<path style=" stroke:none;fill-rule:nonzero;fill:rgb(39.99939%,39.99939%,39.99939%);fill-opacity:0.3;" d="M 265.042969 165.582031 L 272.667969 170.554688 L 271.140625 173.980469 L 270.085938 177.097656 L 269.402344 179.804688 L 269.277344 180.511719 L 268.410156 180.570312 L 266.550781 172.566406 Z M 265.042969 165.582031 "/>
<path style=" stroke:none;fill-rule:nonzero;fill:rgb(39.99939%,39.99939%,39.99939%);fill-opacity:0.3;" d="M 294.132812 145.484375 L 299.851562 149.441406 L 284.582031 169.890625 L 279.523438 164.550781 Z M 294.132812 145.484375 "/>
<path style=" stroke:none;fill-rule:nonzero;fill:rgb(39.99939%,39.99939%,39.99939%);fill-opacity:0.3;" d="M 289.875 175.78125 L 284.957031 170.578125 L 300.433594 149.96875 L 306.667969 154.285156 Z M 289.875 175.78125 "/>
<path style=" stroke:none;fill-rule:nonzero;fill:rgb(39.99939%,39.99939%,39.99939%);fill-opacity:0.3;" d="M 307.300781 154.539062 L 312.484375 158.117188 L 312.746094 158.785156 L 312.835938 159.578125 L 312.445312 160.476562 L 296.535156 181.269531 L 295.910156 182.0625 L 295.894531 182.085938 L 290.546875 176.335938 L 298.734375 165.472656 Z M 307.300781 154.539062 "/>
<path style=" stroke:none;fill-rule:nonzero;fill:rgb(39.99939%,39.99939%,39.99939%);fill-opacity:0.3;" d="M 195.78125 241.273438 L 196.015625 241.425781 L 195.949219 241.574219 Z M 195.78125 241.273438 "/>
<path style=" stroke:none;fill-rule:nonzero;fill:rgb(39.99939%,39.99939%,39.99939%);fill-opacity:0.3;" d="M 196.425781 259.976562 L 196.261719 260.1875 L 196.285156 260.132812 Z M 196.425781 259.976562 "/>
<path style=" stroke:none;fill-rule:nonzero;fill:rgb(39.99939%,39.99939%,39.99939%);fill-opacity:0.3;" d="M 197.585938 260.78125 L 210.105469 267.144531 L 201.140625 285.734375 L 197.34375 284.253906 L 188.480469 280.570312 L 192.835938 270.472656 Z M 197.585938 260.78125 "/>
<path style=" stroke:none;fill-rule:nonzero;fill:rgb(39.99939%,39.99939%,39.99939%);fill-opacity:0.3;" d="M 211.089844 267.484375 L 219.898438 272.199219 L 214.246094 279.628906 L 211.320312 284.777344 L 211.589844 284.898438 L 211.855469 285.015625 L 214.90625 279.71875 L 220.464844 272.46875 L 227.097656 275.625 L 227.480469 275.902344 L 227.496094 275.957031 L 227.367188 280.03125 L 226.820312 288.605469 L 226.023438 295.347656 L 225.71875 295.617188 L 225.089844 295.4375 L 202.246094 286.085938 Z M 211.089844 267.484375 "/>
<path style=" stroke:none;fill-rule:nonzero;fill:rgb(39.99939%,39.99939%,39.99939%);fill-opacity:0.3;" d="M 208.324219 248.605469 L 209.054688 248.714844 L 214.945312 251.429688 L 217.410156 252.996094 L 210.566406 266.167969 L 198.40625 260.046875 L 207.726562 248.835938 Z M 208.324219 248.605469 "/>
<path style=" stroke:none;fill-rule:nonzero;fill:rgb(39.99939%,39.99939%,39.99939%);fill-opacity:0.3;" d="M 183.039062 183.085938 L 190.804688 188.996094 L 192.945312 190.445312 L 195.304688 191.347656 L 193.933594 201.5625 L 181.105469 194.433594 Z M 183.039062 183.085938 "/>
<path style=" stroke:none;fill-rule:nonzero;fill:rgb(39.99939%,39.99939%,39.99939%);fill-opacity:0.3;" d="M 178.421875 210.730469 L 187.320312 215.34375 L 185 220.03125 L 174.695312 214.878906 L 176.46875 212.304688 Z M 178.421875 210.730469 "/>
<path style=" stroke:none;fill-rule:nonzero;fill:rgb(39.99939%,39.99939%,39.99939%);fill-opacity:0.3;" d="M 196.101562 191.75 L 212.324219 194.042969 L 212.796875 204.21875 L 196.996094 203.730469 L 194.78125 202.386719 Z M 196.101562 191.75 "/>
<path style=" stroke:none;fill-rule:nonzero;fill:rgb(39.99939%,39.99939%,39.99939%);fill-opacity:0.3;" d="M 206.144531 248.171875 L 206.097656 248.167969 L 201.441406 244.898438 L 196.625 241.972656 L 197.019531 240.992188 L 189.5625 236.183594 L 189.917969 235.574219 L 191.117188 235.113281 L 192.269531 234.808594 L 194.816406 233.621094 L 195.234375 233.183594 L 194.890625 230.316406 L 194.457031 229.875 L 193.941406 229.011719 L 193.332031 228.382812 L 192.921875 227.933594 L 192.203125 227.242188 L 191.484375 226.402344 L 190.90625 225.753906 L 190.09375 224.917969 L 188.476562 223.644531 L 188.292969 223.410156 L 187.308594 222.484375 L 186.367188 221.480469 L 185.753906 220.339844 L 186.667969 217.875 L 190.011719 210.886719 L 195.101562 211.867188 L 202.855469 214.09375 L 201.664062 216.320312 L 202.023438 216.460938 L 202.382812 216.605469 L 203.558594 214.324219 L 204.332031 214.542969 L 208.964844 215.890625 L 205.9375 222.835938 L 206.609375 223.046875 L 209.734375 216.175781 L 210.832031 216.375 L 211.917969 216.65625 L 212.757812 217 L 213.402344 217.0625 L 214.078125 217.429688 L 214.527344 217.765625 L 214.964844 218.464844 L 213.300781 223.554688 L 213.644531 223.667969 L 213.992188 223.785156 L 215.429688 220.214844 L 215.578125 219.9375 L 215.8125 219.363281 L 215.894531 218.449219 L 215.5625 217.640625 L 215.382812 217.425781 L 215.179688 217.226562 L 214.601562 216.707031 L 224.699219 204.28125 L 224.960938 204.332031 L 226.945312 205.007812 L 228.0625 205.597656 L 229.363281 205.65625 L 230.355469 205.714844 L 234.09375 205.476562 L 234.304688 205.726562 L 232.910156 215.828125 L 230.863281 229.507812 L 230.210938 233.847656 L 230.015625 234.71875 L 227.738281 241.269531 L 227.597656 241.410156 L 223.765625 240.15625 L 223.546875 240.695312 L 227.199219 241.84375 L 217.933594 251.410156 L 217.691406 251.464844 L 209.183594 247.785156 L 208.878906 247.636719 L 207.621094 247.078125 L 207.046875 247.15625 L 206.210938 248.152344 Z M 206.144531 248.171875 "/>
<path style=" stroke:none;fill-rule:nonzero;fill:rgb(39.99939%,39.99939%,39.99939%);fill-opacity:0.3;" d="M 218.292969 253.738281 L 234.976562 264.40625 L 227.988281 274.53125 L 226.996094 274.613281 L 211.625 266.71875 Z M 218.292969 253.738281 "/>
<path style=" stroke:none;fill-rule:nonzero;fill:rgb(39.99939%,39.99939%,39.99939%);fill-opacity:0.3;" d="M 235.777344 263.773438 L 235.277344 263.410156 L 235.828125 263.699219 Z M 235.777344 263.773438 "/>
<path style=" stroke:none;fill-rule:nonzero;fill:rgb(39.99939%,39.99939%,39.99939%);fill-opacity:0.3;" d="M 203 166.773438 L 208.710938 169.191406 L 215.253906 172.117188 L 219.75 174.246094 L 220.738281 174.339844 L 221.527344 174.097656 L 222.1875 173.527344 L 229.027344 165.519531 L 229.648438 165.097656 L 230.328125 165.070312 L 248.769531 169.671875 L 249.496094 169.613281 L 258.117188 165.53125 L 258.847656 165.375 L 259.792969 165.699219 L 261.949219 175.019531 L 258.40625 181.304688 L 256.890625 182.808594 L 248.59375 188.851562 L 247.359375 190.390625 L 244.335938 196.136719 L 242.117188 199.824219 L 240.535156 200.9375 L 238.308594 202.144531 L 236.5625 203.027344 L 235.855469 203.902344 L 235.035156 204.476562 L 229.402344 204.945312 L 227.53125 204.3125 L 226.074219 203.34375 L 224.5625 202.113281 L 222.867188 200.765625 L 221.4375 199.171875 L 220.59375 197.839844 L 219.371094 195.246094 L 218.640625 193.984375 L 203.03125 172.269531 L 202.589844 171.566406 L 202.390625 170.933594 L 201.789062 167.269531 L 202.007812 166.910156 L 202.496094 166.714844 Z M 203 166.773438 "/>
<path style=" stroke:none;fill-rule:nonzero;fill:rgb(39.99939%,39.99939%,39.99939%);fill-opacity:0.3;" d="M 175.882812 199.753906 L 176.109375 199.851562 L 178.84375 196.949219 L 180.121094 195.59375 L 194.738281 204.164062 L 195.394531 204.542969 L 196.015625 204.820312 L 196.816406 205.0625 L 197.765625 205.0625 L 213.148438 205.359375 L 215.910156 205.414062 L 215.964844 204.964844 L 216.019531 204.511719 L 214.417969 204.410156 L 213.496094 204.449219 L 213.578125 194.703125 L 213.699219 194.5625 L 217.25 194.9375 L 217.929688 195.28125 L 218.28125 195.664062 L 218.332031 195.753906 L 218.726562 196.464844 L 219.632812 198.332031 L 220.691406 199.890625 L 221.902344 201.351562 L 224.183594 203.351562 L 224.148438 203.445312 L 213.847656 216.292969 L 208.714844 214.695312 L 210.546875 211.09375 L 210.210938 210.953125 L 209.871094 210.8125 L 207.917969 214.476562 L 201.570312 212.523438 L 194.890625 210.75 L 190.734375 210.238281 L 189.757812 210.128906 L 189.34375 210.34375 L 189.007812 210.808594 L 187.292969 214.492188 L 187.1875 214.507812 L 178.589844 210.195312 L 181.511719 207.660156 L 182.894531 204.121094 L 175.671875 202.242188 Z M 175.882812 199.753906 "/>
<path style=" stroke:none;fill-rule:nonzero;fill:rgb(39.99939%,39.99939%,39.99939%);fill-opacity:0.3;" d="M 183.636719 173.878906 L 183.84375 173.976562 L 188.515625 167.25 L 189.296875 167.070312 L 190.835938 164.480469 L 191.257812 164.152344 L 191.96875 164.082031 L 199.011719 166.597656 L 199.453125 166.933594 L 199.683594 167.371094 L 201.335938 172.78125 L 198.539062 177.441406 L 190.609375 173.621094 L 190.183594 174.027344 L 189.757812 174.429688 L 200.011719 179.621094 L 200.386719 178.160156 L 199.144531 177.703125 L 202.027344 172.914062 L 217.269531 193.222656 L 217.308594 193.605469 L 217.019531 193.875 L 211.714844 193.230469 L 206.0625 185.5625 L 205.320312 186.050781 L 204.582031 186.535156 L 208.792969 192.625 L 195.605469 190.574219 L 193.332031 189.632812 L 191.246094 188.28125 L 183.105469 182.3125 L 183.367188 177.289062 L 183.003906 177.296875 Z M 183.636719 173.878906 "/>
<path style=" stroke:none;fill-rule:nonzero;fill:rgb(39.99939%,39.99939%,39.99939%);fill-opacity:0.3;" d="M 189.757812 274.804688 L 189.984375 274.941406 L 187.445312 280.394531 L 187.289062 280.332031 L 187.796875 279.144531 Z M 189.757812 274.804688 "/>
<path style=" stroke:none;fill-rule:nonzero;fill:rgb(39.99939%,39.99939%,39.99939%);fill-opacity:0.3;" d="M 227.496094 275.957031 L 227.597656 276.367188 L 227.367188 280.03125 Z M 227.496094 275.957031 "/>
<path style=" stroke:none;fill-rule:nonzero;fill:rgb(39.99939%,39.99939%,39.99939%);fill-opacity:0.3;" d="M 258.890625 288.394531 L 270.613281 289.667969 L 268.527344 305.617188 L 256.484375 304.113281 Z M 258.890625 288.394531 "/>
<path style=" stroke:none;fill-rule:nonzero;fill:rgb(39.99939%,39.99939%,39.99939%);fill-opacity:0.3;" d="M 236.003906 263.800781 L 235.9375 263.890625 L 235.777344 263.773438 L 235.828125 263.699219 Z M 236.003906 263.800781 "/>
<path style=" stroke:none;fill-rule:nonzero;fill:rgb(39.99939%,39.99939%,39.99939%);fill-opacity:0.3;" d="M 237.039062 264.414062 L 236.804688 264.378906 L 236.859375 264.308594 Z M 237.039062 264.414062 "/>
<path style=" stroke:none;fill-rule:nonzero;fill:rgb(39.99939%,39.99939%,39.99939%);fill-opacity:0.3;" d="M 261.101562 270.109375 L 273.15625 271.542969 L 271.027344 287.488281 L 259.042969 286.074219 Z M 261.101562 270.109375 "/>
<path style=" stroke:none;fill-rule:nonzero;fill:rgb(39.99939%,39.99939%,39.99939%);fill-opacity:0.3;" d="M 234.597656 266.980469 L 235.414062 266.527344 L 258.277344 269.871094 L 258.847656 270.089844 L 259.085938 270.675781 L 255.152344 298.097656 L 254.257812 304.308594 L 244.253906 302.71875 L 226.875 296.101562 L 228.5 276.617188 L 228.808594 275.25 L 229.363281 274.429688 Z M 234.597656 266.980469 "/>
<path style=" stroke:none;fill-rule:nonzero;fill:rgb(39.99939%,39.99939%,39.99939%);fill-opacity:0.3;" d="M 204.914062 327.824219 L 205.175781 327.625 L 205.667969 327.613281 L 212.585938 331.128906 L 217.453125 333.875 L 217.6875 334.144531 L 217.753906 334.546875 L 217.023438 337.136719 L 216.78125 337.269531 L 216.449219 337.269531 L 210.863281 335.648438 L 203.390625 332.183594 L 202.925781 331.945312 L 202.710938 331.699219 L 202.671875 331.394531 L 204.707031 328.109375 Z M 204.914062 327.824219 "/>
<path style=" stroke:none;fill-rule:nonzero;fill:rgb(39.99939%,39.99939%,39.99939%);fill-opacity:0.3;" d="M 224.070312 303.742188 L 223.988281 303.953125 L 223.960938 303.980469 Z M 224.070312 303.742188 "/>
<path style=" stroke:none;fill-rule:nonzero;fill:rgb(39.99939%,39.99939%,39.99939%);fill-opacity:0.3;" d="M 231.984375 299.167969 L 241.738281 302.765625 L 242.207031 303.082031 L 242.207031 303.890625 L 239.816406 319.402344 L 239.601562 320 L 239.109375 320.199219 L 229.042969 318.777344 Z M 231.984375 299.167969 "/>
<path style=" stroke:none;fill-rule:nonzero;fill:rgb(39.99939%,39.99939%,39.99939%);fill-opacity:0.3;" d="M 244.257812 304.339844 L 253.726562 305.660156 L 253.984375 305.90625 L 254.050781 306.203125 L 251.765625 321.683594 L 251.507812 322.101562 L 251.03125 322.269531 L 241.457031 320.710938 L 241.277344 320.4375 L 241.253906 320.132812 L 243.535156 304.65625 L 243.730469 304.363281 Z M 244.257812 304.339844 "/>
<path style=" stroke:none;fill-rule:nonzero;fill:rgb(39.99939%,39.99939%,39.99939%);fill-opacity:0.3;" d="M 229.457031 320.039062 L 238.914062 321.355469 L 239.175781 321.605469 L 239.242188 321.898438 L 236.878906 337.304688 L 236.613281 337.714844 L 236.132812 337.878906 L 226.578125 336.332031 L 226.398438 336.0625 L 226.378906 335.761719 L 228.734375 320.351562 L 228.929688 320.0625 Z M 229.457031 320.039062 "/>
<path style=" stroke:none;fill-rule:nonzero;fill:rgb(39.99939%,39.99939%,39.99939%);fill-opacity:0.3;" d="M 253.574219 324.59375 L 253.738281 324.296875 L 254.050781 324.25 L 264.488281 325.664062 L 264.996094 325.976562 L 265.140625 326.472656 L 262.863281 341.15625 L 262.5 341.769531 L 261.609375 341.972656 L 251.683594 340.941406 L 251.324219 340.667969 L 251.136719 340.34375 Z M 253.574219 324.59375 "/>
<path style=" stroke:none;fill-rule:nonzero;fill:rgb(39.99939%,39.99939%,39.99939%);fill-opacity:0.3;" d="M 256.042969 306.246094 L 256.207031 305.949219 L 256.519531 305.902344 L 267.421875 307.257812 L 267.929688 307.570312 L 268.078125 308.070312 L 265.773438 322.914062 L 265.640625 323.496094 L 265.199219 323.789062 L 254.257812 322.703125 L 253.898438 322.421875 L 253.703125 322.09375 Z M 256.042969 306.246094 "/>
<path style=" stroke:none;fill-rule:nonzero;fill:rgb(39.99939%,39.99939%,39.99939%);fill-opacity:0.3;" d="M 241.742188 322.34375 L 251.207031 323.660156 L 251.46875 323.910156 L 251.53125 324.203125 L 249.152344 339.59375 L 248.890625 340.003906 L 248.40625 340.167969 L 238.851562 338.625 L 238.675781 338.355469 L 238.65625 338.054688 L 241.019531 322.660156 L 241.214844 322.367188 Z M 241.742188 322.34375 "/>
<path style=" stroke:none;fill-rule:nonzero;fill:rgb(39.99939%,39.99939%,39.99939%);fill-opacity:0.3;" d="M 226.917969 297.144531 L 230.679688 298.644531 L 225.289062 336.179688 L 225.128906 336.4375 L 224.824219 336.53125 L 221.324219 335.410156 L 224.402344 314.480469 L 221.808594 313.921875 L 221.316406 314.878906 L 219.027344 314.464844 L 217.460938 316.746094 L 215.824219 315.78125 L 214.894531 317.097656 L 213.960938 318.417969 L 217.085938 320.476562 L 220.867188 315.957031 L 221.265625 315.996094 L 218.464844 333.796875 L 205.792969 326.710938 L 216.660156 309.621094 L 218.191406 307.816406 L 218.988281 307.011719 L 219.8125 306.457031 L 220.777344 306.007812 L 222.023438 305.722656 L 222.925781 305.585938 L 223.765625 305.441406 L 224.351562 305.152344 L 224.839844 304.679688 L 225.246094 303.949219 L 225.578125 303.035156 Z M 226.917969 297.144531 "/>
<path style=" stroke:none;fill-rule:nonzero;fill:rgb(39.99939%,39.99939%,39.99939%);fill-opacity:0.3;" d="M 260.261719 221.105469 L 265.230469 223.992188 L 257.25 234.207031 L 251.914062 230.070312 L 253.484375 228.425781 L 255.332031 226.917969 L 257.144531 225.289062 L 258.46875 223.90625 L 259.570312 222.304688 Z M 260.261719 221.105469 "/>
<path style=" stroke:none;fill-rule:nonzero;fill:rgb(39.99939%,39.99939%,39.99939%);fill-opacity:0.3;" d="M 231.355469 240.792969 L 246.417969 249.960938 L 236.003906 263.800781 L 235.828125 263.699219 L 235.277344 263.410156 L 232.753906 261.5625 L 235.730469 256.738281 L 232.644531 255.058594 L 234.125 251.949219 L 233.539062 251.707031 L 231.785156 255.394531 L 233.816406 256.421875 L 234.511719 256.789062 L 234.988281 257.035156 L 232.320312 261.320312 L 219.390625 252.847656 L 222.0625 249.921875 L 224.503906 251.414062 L 226.082031 249.101562 L 225.773438 248.957031 L 225.464844 248.808594 L 224.46875 250.609375 L 222.484375 249.347656 L 229.5 241.78125 Z M 231.355469 240.792969 "/>
<path style=" stroke:none;fill-rule:nonzero;fill:rgb(39.99939%,39.99939%,39.99939%);fill-opacity:0.3;" d="M 258.320312 235.765625 L 267.277344 241.492188 L 257.09375 255.113281 L 248.4375 250.019531 Z M 258.320312 235.765625 "/>
<path style=" stroke:none;fill-rule:nonzero;fill:rgb(39.99939%,39.99939%,39.99939%);fill-opacity:0.3;" d="M 257.484375 256.332031 L 266.210938 261.378906 L 261.242188 268 L 250.277344 266.421875 Z M 257.484375 256.332031 "/>
<path style=" stroke:none;fill-rule:nonzero;fill:rgb(39.99939%,39.99939%,39.99939%);fill-opacity:0.3;" d="M 251.109375 230.535156 L 256.804688 234.855469 L 246.8125 249.222656 L 232.742188 240.644531 L 236.011719 238.898438 L 241.722656 236.125 L 245.9375 233.8125 L 248.964844 232.042969 Z M 251.109375 230.535156 "/>
<path style=" stroke:none;fill-rule:nonzero;fill:rgb(39.99939%,39.99939%,39.99939%);fill-opacity:0.3;" d="M 247.488281 250.457031 L 256.226562 255.671875 L 248.734375 266.019531 L 237.039062 264.414062 L 236.859375 264.308594 Z M 247.488281 250.457031 "/>
<path style=" stroke:none;fill-rule:nonzero;fill:rgb(39.99939%,39.99939%,39.99939%);fill-opacity:0.3;" d="M 235.855469 203.902344 L 235.417969 204.445312 L 235.035156 204.476562 Z M 235.855469 203.902344 "/>
<path style=" stroke:none;fill-rule:nonzero;fill:rgb(39.99939%,39.99939%,39.99939%);fill-opacity:0.3;" d="M 262.78125 177.046875 L 268.445312 201.09375 L 263.601562 212.535156 L 248.574219 204.375 L 247.226562 200.808594 L 245.21875 196.996094 L 245.15625 196.390625 L 247.953125 191.328125 L 249.15625 189.996094 L 251.828125 187.609375 L 253.671875 186.371094 L 255.417969 185.140625 L 258.117188 183.121094 L 258.683594 182.628906 L 259.324219 181.835938 Z M 262.78125 177.046875 "/>
<path style=" stroke:none;fill-rule:nonzero;fill:rgb(39.99939%,39.99939%,39.99939%);fill-opacity:0.3;" d="M 242.046875 201.195312 L 244.390625 197.757812 L 246.601562 202.464844 L 247.503906 205.488281 L 244.511719 211.207031 L 243.996094 215.144531 L 239.820312 224.609375 L 233.6875 237.351562 L 231.046875 240.074219 L 230 239.167969 L 231.765625 234.652344 L 234.023438 222.3125 L 235.277344 212.378906 L 241.132812 214.070312 L 241.214844 213.667969 L 241.308594 213.238281 L 235.398438 211.398438 L 236.1875 205.128906 L 236.910156 204.09375 L 238.882812 202.808594 L 240.535156 201.902344 Z M 242.046875 201.195312 "/>
<path style=" stroke:none;fill-rule:nonzero;fill:rgb(39.99939%,39.99939%,39.99939%);fill-opacity:0.3;" d="M 248.03125 206.007812 L 263.117188 213.628906 L 259.746094 220.070312 L 257.785156 223.253906 L 253.890625 226.90625 L 251.507812 229.203125 L 248.21875 231.335938 L 243.933594 233.984375 L 238.609375 236.71875 L 235.539062 238.199219 L 234.84375 236.878906 L 240.429688 224.734375 L 244.609375 215.316406 L 245.128906 211.085938 Z M 248.03125 206.007812 "/>
<path style=" stroke:none;fill-rule:nonzero;fill:rgb(39.99939%,39.99939%,39.99939%);fill-opacity:0.3;" d="M 268.082031 242.074219 L 276.90625 248.066406 L 276.902344 248.082031 L 276.878906 248.296875 L 266.921875 260.683594 L 257.902344 255.46875 Z M 268.082031 242.074219 "/>
<path style=" stroke:none;fill-rule:nonzero;fill:rgb(39.99939%,39.99939%,39.99939%);fill-opacity:0.3;" d="M 276.207031 230.574219 L 278.242188 239.054688 L 277.242188 246.21875 L 277.203125 246.441406 L 276.789062 246.828125 L 267.859375 241.195312 Z M 276.207031 230.574219 "/>
<path style=" stroke:none;fill-rule:nonzero;fill:rgb(39.99939%,39.99939%,39.99939%);fill-opacity:0.3;" d="M 266.015625 224.644531 L 275.839844 230.003906 L 267.542969 240.527344 L 258.71875 234.9375 Z M 266.015625 224.644531 "/>
<path style=" stroke:none;fill-rule:nonzero;fill:rgb(39.99939%,39.99939%,39.99939%);fill-opacity:0.3;" d="M 276.667969 250.328125 L 273.472656 269.484375 L 262.40625 268.054688 L 276.691406 250.09375 Z M 276.667969 250.328125 "/>
<path style=" stroke:none;fill-rule:nonzero;fill:rgb(39.99939%,39.99939%,39.99939%);fill-opacity:0.3;" d="M 266.777344 224.046875 L 272.441406 216.90625 L 276.03125 229.011719 Z M 266.777344 224.046875 "/>
<path style=" stroke:none;fill-rule:nonzero;fill:rgb(39.99939%,39.99939%,39.99939%);fill-opacity:0.3;" d="M 268.949219 202.484375 L 272.160156 215.269531 L 270.628906 217.359375 L 268.257812 215.851562 L 267.96875 216.21875 L 267.675781 216.589844 L 269.988281 218.234375 L 265.769531 223.304688 L 260.660156 220.390625 L 263.257812 215.460938 L 267.507812 206.996094 Z M 268.949219 202.484375 "/>
<path style=" stroke:none;fill-rule:nonzero;fill:rgb(39.99939%,39.99939%,39.99939%);fill-opacity:0.3;" d="M 276.90625 248.066406 L 277.011719 248.136719 L 276.878906 248.296875 L 276.902344 248.082031 Z M 276.90625 248.066406 "/>
<path style=" stroke:none;fill-rule:nonzero;fill:rgb(39.99939%,39.99939%,39.99939%);fill-opacity:0.3;" d="M 277.242188 246.21875 L 277.214844 246.429688 L 277.203125 246.441406 Z M 277.242188 246.21875 "/>
<path style=" stroke:none;fill-rule:nonzero;fill:rgb(39.99939%,39.99939%,39.99939%);fill-opacity:0.3;" d="M 276.707031 250.070312 L 276.667969 250.328125 L 276.691406 250.09375 Z M 276.707031 250.070312 "/>
<path style=" stroke:none;fill-rule:nonzero;fill:rgb(39.99939%,39.99939%,39.99939%);fill-opacity:0.3;" d="M 285.019531 199.496094 L 285.144531 199.328125 L 279.933594 228.9375 L 279.914062 228.84375 L 280.976562 221.269531 L 283.351562 205.3125 L 284.199219 201.410156 Z M 285.019531 199.496094 "/>
<path style=" stroke:none;fill-rule:nonzero;fill:rgb(39.99939%,39.99939%,39.99939%);fill-opacity:0.3;" d="M 296.535156 181.269531 L 295.902344 182.09375 L 295.894531 182.085938 L 295.910156 182.0625 Z M 296.535156 181.269531 "/>
<path style="fill-rule:nonzero;fill:rgb(39.99939%,39.99939%,39.99939%);fill-opacity:1;stroke-width:0.03;stroke-linecap:square;stroke-linejoin:miter;stroke:rgb(39.99939%,39.99939%,39.99939%);stroke-opacity:1;stroke-miterlimit:3.239307;" d="M 140.78125 66.085938 L 140.5625 66.382812 L 139.480469 66.433594 Z M 140.78125 66.085938 " transform="matrix(1,0,0,1,-74,-13)"/>
<path style="fill-rule:nonzero;fill:rgb(39.99939%,39.99939%,39.99939%);fill-opacity:1;stroke-width:0.03;stroke-linecap:square;stroke-linejoin:miter;stroke:rgb(39.99939%,39.99939%,39.99939%);stroke-opacity:1;stroke-miterlimit:3.239307;" d="M 135.238281 67.226562 L 136.136719 77.1875 L 132.15625 77.921875 L 131.015625 67.09375 Z M 135.238281 67.226562 " transform="matrix(1,0,0,1,-74,-13)"/>
<path style="fill-rule:nonzero;fill:rgb(39.99939%,39.99939%,39.99939%);fill-opacity:1;stroke-width:0.03;stroke-linecap:square;stroke-linejoin:miter;stroke:rgb(39.99939%,39.99939%,39.99939%);stroke-opacity:1;stroke-miterlimit:3.239307;" d="M 126.113281 64.746094 L 125.429688 64.488281 L 125.460938 64.429688 Z M 126.113281 64.746094 " transform="matrix(1,0,0,1,-74,-13)"/>
<path style="fill-rule:nonzero;fill:rgb(39.99939%,39.99939%,39.99939%);fill-opacity:1;stroke-width:0.03;stroke-linecap:square;stroke-linejoin:miter;stroke:rgb(39.99939%,39.99939%,39.99939%);stroke-opacity:1;stroke-miterlimit:3.239307;" d="M 184.777344 238.3125 L 186.460938 236.894531 L 189.585938 246.949219 L 189.675781 247.175781 Z M 184.777344 238.3125 " transform="matrix(1,0,0,1,-74,-13)"/>
<path style="fill-rule:nonzero;fill:rgb(39.99939%,39.99939%,39.99939%);fill-opacity:1;stroke-width:0.03;stroke-linecap:square;stroke-linejoin:miter;stroke:rgb(39.99939%,39.99939%,39.99939%);stroke-opacity:1;stroke-miterlimit:3.239307;" d="M 227.371094 295.957031 L 247.964844 321.03125 L 248.167969 321.570312 L 229.042969 298.082031 L 227.683594 296.386719 Z M 227.371094 295.957031 " transform="matrix(1,0,0,1,-74,-13)"/>
<path style="fill-rule:nonzero;fill:rgb(39.99939%,39.99939%,39.99939%);fill-opacity:1;stroke-width:0.03;stroke-linecap:square;stroke-linejoin:miter;stroke:rgb(39.99939%,39.99939%,39.99939%);stroke-opacity:1;stroke-miterlimit:3.239307;" d="M 238.5625 139.984375 L 239.277344 139.683594 L 240.433594 139.671875 L 258.378906 143.148438 L 266.417969 145.933594 L 266.941406 146.882812 L 266.269531 149.136719 L 238.59375 141.820312 L 238.199219 141.480469 Z M 238.5625 139.984375 " transform="matrix(1,0,0,1,-74,-13)"/>
<path style="fill-rule:nonzero;fill:rgb(39.99939%,39.99939%,39.99939%);fill-opacity:1;stroke-width:0.03;stroke-linecap:square;stroke-linejoin:miter;stroke:rgb(39.99939%,39.99939%,39.99939%);stroke-opacity:1;stroke-miterlimit:3.239307;" d="M 263.988281 160.449219 L 262.425781 167.859375 L 259.917969 168.953125 L 252.96875 166.0625 L 249.296875 164.285156 L 252.648438 151.171875 L 253.90625 147.089844 L 265.542969 150.296875 Z M 263.988281 160.449219 " transform="matrix(1,0,0,1,-74,-13)"/>
<path style="fill-rule:nonzero;fill:rgb(39.99939%,39.99939%,39.99939%);fill-opacity:1;stroke-width:0.03;stroke-linecap:square;stroke-linejoin:miter;stroke:rgb(39.99939%,39.99939%,39.99939%);stroke-opacity:1;stroke-miterlimit:3.239307;" d="M 251.457031 146.890625 L 249.601562 153.464844 L 247.058594 163.164062 L 233.871094 156.972656 L 237.558594 142.339844 Z M 251.457031 146.890625 " transform="matrix(1,0,0,1,-74,-13)"/>
<path style="fill-rule:nonzero;fill:rgb(39.99939%,39.99939%,39.99939%);fill-opacity:1;stroke-width:0.03;stroke-linecap:square;stroke-linejoin:miter;stroke:rgb(39.99939%,39.99939%,39.99939%);stroke-opacity:1;stroke-miterlimit:3.239307;" d="M 263.84375 173.507812 L 260.535156 179.214844 L 251.078125 173.9375 L 249.765625 173.984375 L 248.203125 176.113281 L 237.550781 169.734375 L 230.515625 170.046875 L 226.382812 169.363281 L 225.945312 168.582031 L 231.566406 158.859375 L 232.449219 158.335938 L 233.636719 159.59375 Z M 263.84375 173.507812 " transform="matrix(1,0,0,1,-74,-13)"/>
<path style="fill-rule:nonzero;fill:rgb(39.99939%,39.99939%,39.99939%);fill-opacity:1;stroke-width:0.03;stroke-linecap:square;stroke-linejoin:miter;stroke:rgb(39.99939%,39.99939%,39.99939%);stroke-opacity:1;stroke-miterlimit:3.239307;" d="M 256.699219 281.433594 L 265.78125 265.558594 L 269.714844 267.679688 L 260.617188 283.628906 Z M 256.699219 281.433594 " transform="matrix(1,0,0,1,-74,-13)"/>
<path style="fill-rule:nonzero;fill:rgb(39.99939%,39.99939%,39.99939%);fill-opacity:1;stroke-width:0.03;stroke-linecap:square;stroke-linejoin:miter;stroke:rgb(39.99939%,39.99939%,39.99939%);stroke-opacity:1;stroke-miterlimit:3.239307;" d="M 266.027344 264.878906 L 267.289062 262.738281 L 271.371094 264.976562 L 270.105469 267.035156 Z M 266.027344 264.878906 " transform="matrix(1,0,0,1,-74,-13)"/>
<path style="fill-rule:nonzero;fill:rgb(39.99939%,39.99939%,39.99939%);fill-opacity:1;stroke-width:0.03;stroke-linecap:square;stroke-linejoin:miter;stroke:rgb(39.99939%,39.99939%,39.99939%);stroke-opacity:1;stroke-miterlimit:3.239307;" d="M 251.367188 278.28125 L 258.480469 256.921875 L 259.46875 255.25 L 258.449219 254.78125 L 257.914062 255.882812 L 256.058594 254.601562 L 254.605469 249.785156 L 255.070312 248.796875 L 257.089844 247.902344 L 260.066406 247.648438 L 262.859375 249.777344 L 269.78125 254.273438 L 269.949219 254.574219 L 269.726562 255.054688 L 279.710938 261.648438 L 275.613281 266.136719 L 272.722656 269.921875 L 270.914062 272.347656 L 270.425781 272.976562 L 270.285156 273.132812 L 270.261719 273.1875 L 270.214844 273.246094 L 269.507812 274.832031 L 264.886719 284.523438 L 264.015625 286.335938 L 261.074219 284.445312 L 271.949219 265.285156 L 266.65625 262.378906 L 255.707031 281.046875 Z M 251.367188 278.28125 " transform="matrix(1,0,0,1,-74,-13)"/>
<path style="fill-rule:nonzero;fill:rgb(39.99939%,39.99939%,39.99939%);fill-opacity:1;stroke-width:0.03;stroke-linecap:square;stroke-linejoin:miter;stroke:rgb(39.99939%,39.99939%,39.99939%);stroke-opacity:1;stroke-miterlimit:3.239307;" d="M 242.023438 189.5625 L 245.101562 184.179688 L 247.089844 185.5 L 246.878906 190.550781 L 245.730469 194.398438 L 245.253906 196.210938 L 244.21875 198.910156 L 242.730469 204.652344 L 237.683594 202.996094 L 239.15625 197.882812 Z M 242.023438 189.5625 " transform="matrix(1,0,0,1,-74,-13)"/>
<path style="fill-rule:nonzero;fill:rgb(39.99939%,39.99939%,39.99939%);fill-opacity:1;stroke-width:0.03;stroke-linecap:square;stroke-linejoin:miter;stroke:rgb(39.99939%,39.99939%,39.99939%);stroke-opacity:1;stroke-miterlimit:3.239307;" d="M 219.667969 260.023438 L 219.152344 258.074219 L 222.351562 254.445312 L 227.902344 260.488281 L 221.707031 267.753906 Z M 219.667969 260.023438 " transform="matrix(1,0,0,1,-74,-13)"/>
<path style="fill-rule:nonzero;fill:rgb(39.99939%,39.99939%,39.99939%);fill-opacity:1;stroke-width:0.03;stroke-linecap:square;stroke-linejoin:miter;stroke:rgb(39.99939%,39.99939%,39.99939%);stroke-opacity:1;stroke-miterlimit:3.239307;" d="M 213.601562 256.566406 L 217.019531 259.566406 L 218.59375 260.292969 L 218.625 260.550781 L 221.050781 269.382812 L 221.214844 270.136719 L 221.96875 272.929688 L 222.089844 273.570312 L 222.367188 274.210938 L 231.234375 283.078125 L 229.960938 287.480469 L 229.492188 297.546875 L 201.027344 261.792969 Z M 213.601562 256.566406 " transform="matrix(1,0,0,1,-74,-13)"/>
<path style="fill-rule:nonzero;fill:rgb(39.99939%,39.99939%,39.99939%);fill-opacity:1;stroke-width:0.03;stroke-linecap:square;stroke-linejoin:miter;stroke:rgb(39.99939%,39.99939%,39.99939%);stroke-opacity:1;stroke-miterlimit:3.239307;" d="M 230.867188 170.914062 L 237.207031 170.980469 L 231.621094 180.160156 L 227.078125 177.742188 Z M 230.867188 170.914062 " transform="matrix(1,0,0,1,-74,-13)"/>
<path style="fill-rule:nonzero;fill:rgb(39.99939%,39.99939%,39.99939%);fill-opacity:1;stroke-width:0.03;stroke-linecap:square;stroke-linejoin:miter;stroke:rgb(39.99939%,39.99939%,39.99939%);stroke-opacity:1;stroke-miterlimit:3.239307;" d="M 248.242188 228.90625 L 258.488281 233.714844 L 245.667969 233.695312 Z M 248.242188 228.90625 " transform="matrix(1,0,0,1,-74,-13)"/>
<path style="fill-rule:nonzero;fill:rgb(39.99939%,39.99939%,39.99939%);fill-opacity:1;stroke-width:0.03;stroke-linecap:square;stroke-linejoin:miter;stroke:rgb(39.99939%,39.99939%,39.99939%);stroke-opacity:1;stroke-miterlimit:3.239307;" d="M 236.382812 203.847656 L 242.503906 205.625 L 241.691406 208.8125 L 235.210938 207.246094 Z M 236.382812 203.847656 " transform="matrix(1,0,0,1,-74,-13)"/>
<path style="fill-rule:nonzero;fill:rgb(39.99939%,39.99939%,39.99939%);fill-opacity:1;stroke-width:0.03;stroke-linecap:square;stroke-linejoin:miter;stroke:rgb(39.99939%,39.99939%,39.99939%);stroke-opacity:1;stroke-miterlimit:3.239307;" d="M 241.667969 213.160156 L 242.523438 208.65625 L 250.761719 209.960938 L 250.792969 210.144531 L 248.960938 212.34375 L 249.535156 212.597656 L 249.882812 212.753906 L 249.671875 215.242188 Z M 241.667969 213.160156 " transform="matrix(1,0,0,1,-74,-13)"/>
<path style="fill-rule:nonzero;fill:rgb(39.99939%,39.99939%,39.99939%);fill-opacity:1;stroke-width:0.03;stroke-linecap:square;stroke-linejoin:miter;stroke:rgb(39.99939%,39.99939%,39.99939%);stroke-opacity:1;stroke-miterlimit:3.239307;" d="M 256.148438 177.863281 L 260.753906 180.34375 L 256.597656 186.386719 L 257.21875 186.683594 L 257.636719 186.878906 L 257.003906 190.296875 L 256.953125 190.296875 L 256.539062 190.304688 L 255.75 194.730469 L 253.53125 207.179688 L 251.679688 209.339844 L 246.140625 207.847656 L 243.585938 207.113281 L 245.808594 199.351562 L 245.808594 197.476562 L 247.605469 192.773438 L 247.960938 184.296875 L 238.257812 177.246094 L 233.175781 186.3125 L 222.257812 179.769531 L 221.878906 177.851562 L 224.957031 171.011719 L 229.425781 170.960938 L 225.421875 177.457031 L 223.929688 179.878906 L 224.554688 180.292969 L 225.785156 178.179688 L 231.625 181.28125 L 234.125 182.609375 L 234.367188 182.226562 L 234.398438 182.175781 L 234.675781 181.746094 L 232.773438 180.59375 L 238.160156 171.792969 L 247.785156 177.144531 L 246.21875 179.5 L 247.421875 180.195312 L 249.171875 177.40625 L 250.773438 174.851562 L 255.269531 177.414062 L 250.167969 184.917969 L 250.640625 185.117188 L 251.109375 185.316406 Z M 256.148438 177.863281 " transform="matrix(1,0,0,1,-74,-13)"/>
<path style="fill-rule:nonzero;fill:rgb(39.99939%,39.99939%,39.99939%);fill-opacity:1;stroke-width:0.03;stroke-linecap:square;stroke-linejoin:miter;stroke:rgb(39.99939%,39.99939%,39.99939%);stroke-opacity:1;stroke-miterlimit:3.239307;" d="M 233.300781 201.871094 L 236.644531 193.703125 L 232.484375 191.554688 L 236.425781 185.035156 L 239.898438 179.222656 L 241.472656 180.304688 L 235.453125 191.152344 L 236.183594 191.546875 L 236.917969 191.941406 L 242.5 181.542969 L 244.519531 182.671875 L 240.542969 189.863281 L 239.648438 192.242188 L 236.523438 203.15625 Z M 233.300781 201.871094 " transform="matrix(1,0,0,1,-74,-13)"/>
<path style="fill-rule:nonzero;fill:rgb(39.99939%,39.99939%,39.99939%);fill-opacity:1;stroke-width:0.03;stroke-linecap:square;stroke-linejoin:miter;stroke:rgb(39.99939%,39.99939%,39.99939%);stroke-opacity:1;stroke-miterlimit:3.239307;" d="M 229.199219 261.386719 L 247.195312 276.550781 L 246.417969 277.542969 L 246.089844 278.441406 L 245.875 279.546875 L 245.972656 280.707031 L 246.414062 281.441406 L 247.070312 281.828125 L 247.691406 281.976562 L 248.5 281.902344 L 249.308594 281.6875 L 250.046875 281.355469 L 250.734375 280.832031 L 251.238281 280.242188 L 263.757812 287.804688 L 261.796875 292.144531 L 261.289062 293.332031 L 259.761719 296.726562 L 257.046875 302.835938 L 256.941406 303.070312 L 248.730469 320.703125 L 230.566406 298.589844 L 230.921875 286.816406 L 231.488281 284.769531 L 232.058594 283.476562 L 232.824219 282.574219 L 223.753906 272.671875 L 223.097656 269.433594 Z M 229.199219 261.386719 " transform="matrix(1,0,0,1,-74,-13)"/>
<path style=" stroke:none;fill-rule:evenodd;fill:rgb(85.096741%,85.096741%,81.959534%);fill-opacity:0.7;" d="M 123.789062 328 C 123.789062 326.199219 123.074219 324.472656 121.800781 323.199219 C 120.527344 321.925781 118.800781 321.210938 117 321.210938 C 115.199219 321.210938 113.472656 321.925781 112.199219 323.199219 C 110.925781 324.472656 110.210938 326.199219 110.210938 328 C 110.210938 329.800781 110.925781 331.527344 112.199219 332.800781 C 113.472656 334.074219 115.199219 334.789062 117 334.789062 C 118.800781 334.789062 120.527344 334.074219 121.800781 332.800781 C 123.074219 331.527344 123.789062 329.800781 123.789062 328 Z M 123.789062 328 "/>
<path style=" stroke:none;fill-rule:evenodd;fill:rgb(85.096741%,85.096741%,81.959534%);fill-opacity:0.7;" d="M 165.789062 348 C 165.789062 346.199219 165.074219 344.472656 163.800781 343.199219 C 162.527344 341.925781 160.800781 341.210938 159 341.210938 C 157.199219 341.210938 155.472656 341.925781 154.199219 343.199219 C 152.925781 344.472656 152.210938 346.199219 152.210938 348 C 152.210938 349.800781 152.925781 351.527344 154.199219 352.800781 C 155.472656 354.074219 157.199219 354.789062 159 354.789062 C 160.800781 354.789062 162.527344 354.074219 163.800781 352.800781 C 165.074219 351.527344 165.789062 349.800781 165.789062 348 Z M 165.789062 348 "/>
<path style="fill-rule:nonzero;fill:rgb(99.998474%,99.998474%,30.587769%);fill-opacity:0.8;stroke-width:0.288;stroke-linecap:square;stroke-linejoin:miter;stroke:rgb(0%,0%,0%);stroke-opacity:0.8;stroke-miterlimit:3.25;" d="M 396.726562 77.613281 L 382.027344 103.070312 L 411.425781 103.070312 Z M 396.726562 77.613281 " transform="matrix(1,0,0,1,-74,-13)"/>
</g>
</svg>
