<?xml version="1.0" encoding="UTF-8"?>
<svg xmlns="http://www.w3.org/2000/svg" xmlns:xlink="http://www.w3.org/1999/xlink" width="361pt" height="361pt" viewBox="0 0 361 361" version="1.1">
<defs>
<clipPath id="clip1">
  <path d="M 314 227 L 360 227 L 360 285 L 314 285 Z M 314 227 "/>
</clipPath>
<clipPath id="clip2">
  <path d="M 293 117 L 360 117 L 360 183 L 293 183 Z M 293 117 "/>
</clipPath>
<clipPath id="clip3">
  <path d="M 354 140 L 360 140 L 360 270 L 354 270 Z M 354 140 "/>
</clipPath>
<clipPath id="clip4">
  <path d="M 177 276 L 360 276 L 360 360 L 177 360 Z M 177 276 "/>
</clipPath>
<clipPath id="clip5">
  <path d="M 105 301 L 248 301 L 248 360 L 105 360 Z M 105 301 "/>
</clipPath>
<clipPath id="clip6">
  <path d="M 0 341 L 9 341 L 9 360 L 0 360 Z M 0 341 "/>
</clipPath>
<clipPath id="clip7">
  <path d="M 5 323 L 64 323 L 64 360 L 5 360 Z M 5 323 "/>
</clipPath>
<clipPath id="clip8">
  <path d="M 130 357 L 150 357 L 150 360 L 130 360 Z M 130 357 "/>
</clipPath>
<clipPath id="clip9">
  <path d="M 35 318 L 127 318 L 127 360 L 35 360 Z M 35 318 "/>
</clipPath>
<clipPath id="clip10">
  <path d="M 352 0 L 360 0 L 360 145 L 352 145 Z M 352 0 "/>
</clipPath>
<clipPath id="clip11">
  <path d="M 335 0 L 360 0 L 360 167 L 335 167 Z M 335 0 "/>
</clipPath>
<clipPath id="clip12">
  <path d="M 192 0 L 360 0 L 360 124 L 192 124 Z M 192 0 "/>
</clipPath>
<clipPath id="clip13">
  <path d="M 197 348 L 233 348 L 233 360 L 197 360 Z M 197 348 "/>
</clipPath>
</defs>
<g id="surface392">
<path style="fill-rule:nonzero;fill:rgb(0%,0%,0%);fill-opacity:1;stroke-width:0.03;stroke-linecap:square;stroke-linejoin:miter;stroke:rgb(0%,0%,0%);stroke-opacity:1;stroke-miterlimit:10;" d="M 0 178 L 360 178 L 360 -182 L 0 -182 Z M 0 178 " transform="matrix(1,0,0,1,0,182)"/>
<path style=" stroke:none;fill-rule:nonzero;fill:rgb(39.99939%,39.99939%,39.99939%);fill-opacity:0.3;" d="M 303.484375 291.757812 L 323.769531 288.160156 L 316.65625 289.8125 Z M 303.484375 291.757812 "/>
<path style=" stroke:none;fill-rule:nonzero;fill:rgb(39.99939%,39.99939%,39.99939%);fill-opacity:0.3;" d="M 288.839844 232.6875 L 289.183594 231.523438 L 291.292969 225.1875 L 298.085938 209.601562 L 334.414062 219.527344 L 328.050781 234.078125 L 324.722656 244.390625 L 307.492188 240.046875 L 304.273438 250.191406 L 301.796875 258 L 318.695312 261.796875 L 309.75 286.171875 L 292.21875 288.695312 L 278.527344 290.414062 L 280.238281 283.535156 L 283.910156 273 L 283.910156 266.878906 L 284.652344 257.222656 L 286.285156 245.386719 L 287.613281 237.589844 Z M 288.839844 232.6875 "/>
<path style=" stroke:none;fill-rule:nonzero;fill:rgb(39.99939%,39.99939%,39.99939%);fill-opacity:0.3;" d="M 291.734375 159.707031 L 308.65625 166.109375 L 308.570312 166.355469 L 290.992188 161.496094 Z M 291.734375 159.707031 "/>
<g clip-path="url(#clip1)" clip-rule="nonzero">
<path style=" stroke:none;fill-rule:nonzero;fill:rgb(39.99939%,39.99939%,39.99939%);fill-opacity:0.3;" d="M 330.488281 235.171875 L 337.277344 238.101562 L 345.96875 240.914062 L 354.925781 227.9375 L 360.644531 229.855469 L 367.835938 231.769531 L 374.105469 232.640625 L 378.347656 233.683594 L 381.296875 234.90625 L 384.25 238.046875 L 387.9375 241.890625 L 390.335938 243.460938 L 396.820312 244.058594 L 390.296875 271.4375 L 314.636719 284.105469 Z M 330.488281 235.171875 "/>
</g>
<path style=" stroke:none;fill-rule:nonzero;fill:rgb(39.99939%,39.99939%,39.99939%);fill-opacity:0.3;" d="M 351.410156 192.25 L 351.699219 203.636719 L 352.257812 212.714844 L 352.445312 220.230469 L 352.632812 224.074219 L 353.738281 226.34375 L 345.449219 238.066406 L 338.628906 235.800781 L 330.882812 232.136719 Z M 351.410156 192.25 "/>
<path style=" stroke:none;fill-rule:nonzero;fill:rgb(39.99939%,39.99939%,39.99939%);fill-opacity:0.3;" d="M 313.519531 165.996094 L 352.808594 183.453125 L 335.671875 216.460938 L 299.160156 206.183594 L 305.050781 189.574219 L 317.773438 192.1875 L 317.773438 190.789062 L 305.601562 187.828125 Z M 313.519531 165.996094 "/>
<g clip-path="url(#clip2)" clip-rule="nonzero">
<path style=" stroke:none;fill-rule:nonzero;fill:rgb(39.99939%,39.99939%,39.99939%);fill-opacity:0.3;" d="M 315.695312 119.550781 L 343.28125 128.054688 L 376.28125 140.226562 L 353.597656 182.339844 L 314.253906 164.425781 L 319.160156 152.4375 L 318.054688 152.136719 L 316.6875 151.769531 L 310.511719 165.125 L 293.03125 158.273438 L 309.277344 117.945312 Z M 315.695312 119.550781 "/>
</g>
<g clip-path="url(#clip3)" clip-rule="nonzero">
<path style=" stroke:none;fill-rule:nonzero;fill:rgb(39.99939%,39.99939%,39.99939%);fill-opacity:0.3;" d="M 410.179688 202.988281 L 417.527344 180.886719 L 435.078125 186.761719 L 435.488281 186.074219 L 435.855469 185.460938 L 416.742188 178.847656 L 408.8125 202.25 L 402.964844 219.988281 L 402.964844 221.832031 L 399.453125 233.660156 L 399.257812 235.507812 L 399.261719 237.308594 L 398.285156 239.019531 L 394.78125 239.722656 L 392.566406 239.023438 L 389.433594 236.40625 L 386.480469 232.039062 L 383.527344 229.945312 L 377.628906 228.902344 L 369.109375 226.722656 L 372.824219 216.933594 L 381.074219 219.207031 L 381.960938 216.046875 L 384.167969 216.523438 L 383.089844 219.691406 L 383.609375 219.945312 L 384.132812 220.199219 L 386.585938 213.171875 L 385.617188 212.898438 L 384.671875 215.355469 L 381.628906 214.492188 L 382.46875 210.992188 L 381.707031 210.867188 L 380.941406 210.738281 L 379.644531 216.636719 L 373.625 215.265625 L 375.273438 208.976562 L 374.054688 208.835938 L 372.066406 214.925781 L 367.484375 226.988281 L 364.167969 226.464844 L 356.238281 224.027344 L 355.683594 222.105469 L 355.3125 217.5625 L 354.382812 206.03125 L 355.300781 191.019531 L 355.597656 184.710938 L 360.363281 174.199219 L 368.839844 177.378906 L 369.171875 176.238281 L 369.71875 174.367188 L 361.777344 171.699219 L 378.839844 140.449219 L 395.414062 145.121094 L 416.757812 149.777344 L 454.121094 159.265625 L 447.121094 181.488281 L 438.667969 178.835938 L 438.566406 179.359375 L 438.453125 179.941406 L 460.769531 187.109375 L 460.976562 186.699219 L 461.210938 186.230469 L 450.339844 182.4375 L 457.945312 160.210938 L 494.78125 172.269531 L 482.609375 241.691406 L 435.105469 213.644531 L 437.152344 212.296875 L 438.902344 211.183594 L 440.867188 209.3125 L 442.988281 206.347656 L 444.933594 201.863281 L 446.890625 197.414062 L 446.199219 197.269531 L 445.578125 197.140625 L 443.542969 201.726562 L 441.804688 206.035156 L 440.0625 208.539062 L 437.441406 210.769531 L 433.800781 213.003906 L 432.472656 212.375 L 438.574219 196.191406 L 437.597656 195.699219 L 436.382812 195.089844 L 429.828125 213.722656 L 436.484375 216.777344 L 483.203125 243.941406 L 482.636719 254.832031 L 457.085938 257.617188 L 442.890625 259.664062 L 425.449219 263.363281 L 394.320312 269.890625 L 401.898438 239.433594 L 413.464844 240.78125 L 413.726562 240.042969 L 413.984375 239.304688 L 401.570312 237.695312 L 401.894531 234.019531 L 403.714844 228.355469 L 405.792969 222.574219 L 405.863281 220.882812 L 410.738281 205.550781 Z M 410.179688 202.988281 "/>
</g>
<g clip-path="url(#clip4)" clip-rule="nonzero">
<path style=" stroke:none;fill-rule:nonzero;fill:rgb(39.99939%,39.99939%,39.99939%);fill-opacity:0.3;" d="M 372.171875 415.101562 L 378.773438 415.644531 L 380.585938 415.796875 L 382.128906 402.859375 L 400.28125 472.996094 L 399.390625 476.199219 L 398.691406 476.035156 L 397.09375 475.65625 L 381.390625 533.648438 L 361.9375 532.6875 L 363.683594 518.742188 L 368.949219 519.199219 L 370.292969 512.460938 L 366.726562 511.875 L 367.652344 506.816406 L 364.082031 506.335938 L 359.917969 505.777344 L 359.304688 508.878906 L 361.015625 509.257812 L 359.410156 517.914062 L 362.152344 518.28125 L 360.074219 532.5625 L 329.898438 533.757812 L 354.851562 430.433594 L 302.417969 416.695312 L 298.664062 431.128906 L 291.570312 458.386719 L 267.816406 453.507812 L 262.671875 477.511719 L 250.25 475.058594 L 248.023438 494.347656 L 246.359375 497.703125 L 243.242188 500.269531 L 239.703125 500.667969 L 232.625 500.875 L 177.738281 497.832031 L 205.539062 414.488281 L 214.039062 389.003906 L 226.453125 351.796875 L 228.207031 346.542969 L 240.253906 313.632812 L 247.027344 305.738281 L 256.851562 300.027344 L 303.484375 291.757812 L 316.65625 289.8125 L 323.769531 288.160156 L 327.621094 287.480469 L 391.957031 276.070312 L 376.921875 401.511719 L 351.457031 399.4375 L 351.585938 401.160156 L 351.738281 403.164062 L 373.003906 404.980469 Z M 372.171875 415.101562 "/>
</g>
<path style=" stroke:none;fill-rule:nonzero;fill:rgb(39.99939%,39.99939%,39.99939%);fill-opacity:0.3;" d="M 289.183594 231.523438 L 290.515625 226.976562 L 291.292969 225.1875 Z M 289.183594 231.523438 "/>
<path style=" stroke:none;fill-rule:nonzero;fill:rgb(39.99939%,39.99939%,39.99939%);fill-opacity:0.3;" d="M 280.238281 283.535156 L 283.703125 269.582031 L 283.910156 266.878906 L 283.910156 273 Z M 280.238281 283.535156 "/>
<path style=" stroke:none;fill-rule:nonzero;fill:rgb(39.99939%,39.99939%,39.99939%);fill-opacity:0.3;" d="M 286.71875 108.949219 L 289.09375 109.835938 L 296.300781 113.707031 L 306.433594 117.085938 L 293.375 148.667969 L 274.605469 141.082031 L 274.320312 141.628906 L 273.914062 142.398438 L 292.621094 150.195312 L 290.898438 154.679688 L 269.472656 145.585938 L 269.21875 146.121094 L 268.847656 146.902344 L 290.46875 155.902344 L 286.039062 166.351562 L 272.363281 162.957031 L 272.046875 163.558594 L 271.667969 164.273438 L 285.65625 167.363281 L 284.167969 171.339844 L 270.109375 167.402344 L 269.851562 168.21875 L 269.589844 169.046875 L 283.089844 173.183594 L 282.003906 176.179688 L 263.117188 170.554688 L 262.914062 171.199219 L 262.707031 171.859375 L 271.035156 174.792969 L 270.234375 176.929688 L 266.921875 175.722656 L 266.742188 176.269531 L 266.558594 176.816406 L 269.855469 177.957031 L 269.125 179.699219 L 269.871094 180.019531 L 270.671875 180.367188 L 272.789062 174.96875 L 281.46875 177.554688 L 279.492188 184.226562 L 282.3125 185.125 L 281.4375 188.15625 L 281.902344 188.339844 L 282.363281 188.523438 L 283.429688 185.488281 L 285.222656 186.03125 L 285.480469 185.101562 L 285.734375 184.175781 L 282.078125 183.046875 L 284.175781 176.980469 L 287.535156 168.089844 L 291.285156 159.535156 L 291.734375 159.707031 L 290.992188 161.496094 L 308.570312 166.355469 L 292.308594 213.371094 L 241.410156 198.242188 L 251.515625 173.191406 L 250.320312 172.949219 L 249.121094 172.707031 L 239.054688 197.148438 L 223.640625 191.972656 L 227.75 180.027344 L 231.5 166.722656 L 230.3125 166.527344 L 228.59375 166.238281 L 224.5 178.898438 L 222.457031 185.226562 L 220.28125 191.144531 L 201.421875 185.742188 L 220.53125 143.347656 L 236.59375 110.855469 L 247.210938 90.195312 L 274.234375 102.167969 Z M 286.71875 108.949219 "/>
<path style=" stroke:none;fill-rule:nonzero;fill:rgb(39.99939%,39.99939%,39.99939%);fill-opacity:0.3;" d="M 215.332031 211.828125 L 230.242188 216.382812 L 214.910156 249.703125 L 197.816406 244.59375 L 198.316406 239.65625 L 199.300781 236.679688 L 202.09375 231.601562 L 205.546875 227.527344 L 209.332031 223.453125 L 212.949219 217.660156 Z M 215.332031 211.828125 "/>
<path style=" stroke:none;fill-rule:nonzero;fill:rgb(39.99939%,39.99939%,39.99939%);fill-opacity:0.3;" d="M 223.28125 196.3125 L 237.617188 200.515625 L 231.636719 214.703125 L 217.035156 210.082031 Z M 223.28125 196.3125 "/>
<path style=" stroke:none;fill-rule:nonzero;fill:rgb(39.99939%,39.99939%,39.99939%);fill-opacity:0.3;" d="M 192.179688 207.058594 L 213.105469 212.1875 L 209.820312 218.515625 L 205.382812 225.40625 L 201.929688 229.167969 L 199.132812 232.769531 L 197.324219 235.277344 L 196.207031 238.671875 L 195.519531 241.851562 L 195.324219 243.988281 L 177.191406 238.640625 Z M 192.179688 207.058594 "/>
<path style=" stroke:none;fill-rule:nonzero;fill:rgb(39.99939%,39.99939%,39.99939%);fill-opacity:0.3;" d="M 201.199219 189.308594 L 221.304688 195.691406 L 214.4375 210.570312 L 193.640625 205.113281 Z M 201.199219 189.308594 "/>
<path style=" stroke:none;fill-rule:nonzero;fill:rgb(39.99939%,39.99939%,39.99939%);fill-opacity:0.3;" d="M 85.101562 180.25 L 89.714844 180.398438 L 95.804688 177.105469 L 105.027344 175.371094 L 112.273438 174.417969 L 120.835938 170.964844 L 128.40625 166.417969 L 133.1875 167.351562 L 130.722656 174.390625 L 131.996094 174.792969 L 132.699219 175.011719 L 135 168.285156 L 145.214844 171.710938 L 141.933594 182.820312 L 142.925781 183.332031 L 143.75 183.753906 L 147.359375 172.332031 L 159.882812 176.535156 L 142.472656 215.042969 L 110.996094 205.582031 L 110.695312 206.4375 L 110.347656 207.429688 L 158.996094 222.28125 L 129.933594 305.5625 L 93.746094 296.359375 L 99.550781 277.394531 L 98.679688 277.148438 L 97.929688 276.9375 L 91.964844 295.59375 L 74.453125 290.847656 L 78.59375 276.675781 L 77.066406 276.078125 L 75.261719 275.371094 L 70.722656 289.46875 L 51.429688 284.113281 L 55.476562 271.621094 L 56.921875 268.574219 L 57.847656 264.308594 L 78.820312 199.628906 L 79.488281 197.777344 L 80.449219 194.605469 Z M 85.101562 180.25 "/>
<path style=" stroke:none;fill-rule:nonzero;fill:rgb(39.99939%,39.99939%,39.99939%);fill-opacity:0.3;" d="M 180.558594 183.109375 L 197.695312 188.554688 L 174.585938 237.9375 L 158.265625 233.199219 Z M 180.558594 183.109375 "/>
<path style=" stroke:none;fill-rule:nonzero;fill:rgb(39.99939%,39.99939%,39.99939%);fill-opacity:0.3;" d="M 162.03125 176.835938 L 178.34375 182.128906 L 161.753906 219.535156 L 145.277344 214.398438 Z M 162.03125 176.835938 "/>
<path style=" stroke:none;fill-rule:nonzero;fill:rgb(39.99939%,39.99939%,39.99939%);fill-opacity:0.3;" d="M 190.945312 110.394531 L 228.242188 123.3125 L 199.664062 185.273438 L 183.601562 180.292969 L 186.625 173.992188 L 185.289062 173.5625 L 183.949219 173.136719 L 181.03125 179.023438 L 162.566406 173.261719 L 172.507812 151.347656 L 175.828125 142.667969 L 178.6875 142.121094 L 182.476562 129.457031 L 186.484375 118.082031 L 188.632812 113.6875 Z M 190.945312 110.394531 "/>
<path style=" stroke:none;fill-rule:nonzero;fill:rgb(39.99939%,39.99939%,39.99939%);fill-opacity:0.3;" d="M 113.757812 94.890625 L 182.699219 116.609375 L 177.882812 129.394531 L 175.230469 138.710938 L 172.398438 143.320312 L 160.613281 173.347656 L 143.128906 168 L 146.371094 160.738281 L 145.890625 160.597656 L 145.285156 160.414062 L 141.960938 167.371094 L 134.953125 165.304688 L 138.429688 158.980469 L 137.628906 158.660156 L 136.960938 158.394531 L 133.328125 164.792969 L 124.8125 162.496094 L 124.515625 163.351562 L 124.148438 164.394531 L 126.75 165.242188 L 123.820312 167.714844 L 114.839844 172.308594 L 109.179688 173.742188 L 104.1875 174.222656 L 99.171875 174.570312 L 95.84375 175.679688 L 90.523438 178.691406 L 85.863281 178.226562 L 99.609375 135.023438 L 108.070312 109.429688 Z M 113.757812 94.890625 "/>
<path style=" stroke:none;fill-rule:nonzero;fill:rgb(39.99939%,39.99939%,39.99939%);fill-opacity:0.3;" d="M 117.78125 80.882812 L 113.503906 92.355469 L 113.269531 92.285156 Z M 117.78125 80.882812 "/>
<path style=" stroke:none;fill-rule:nonzero;fill:rgb(39.99939%,39.99939%,39.99939%);fill-opacity:0.3;" d="M 116.359375 91.941406 L 123.960938 71.3125 L 129.898438 62.039062 L 134.53125 55.613281 L 137.507812 52.320312 L 139.507812 52.8125 L 144.3125 55.632812 L 147.789062 58.453125 L 149.445312 60.648438 L 152.59375 63.308594 L 164.730469 68.195312 L 175.269531 71.988281 L 188.988281 75.785156 L 201.640625 78.839844 L 186.4375 113.945312 Z M 116.359375 91.941406 "/>
<path style=" stroke:none;fill-rule:nonzero;fill:rgb(39.99939%,39.99939%,39.99939%);fill-opacity:0.3;" d="M 203.671875 79.425781 L 244.648438 89.257812 L 235.976562 108.585938 L 215.925781 100.378906 L 215.75 101.109375 L 215.539062 101.992188 L 234.996094 109.859375 L 229.699219 120.710938 L 192.226562 107.4375 Z M 203.671875 79.425781 "/>
<path style=" stroke:none;fill-rule:nonzero;fill:rgb(39.99939%,39.99939%,39.99939%);fill-opacity:0.3;" d="M 85.503906 189.078125 L 88.964844 189.933594 L 88.613281 191.28125 L 90.015625 191.628906 L 90.367188 190.28125 L 93.25 191.03125 L 90.714844 199.929688 L 92.117188 200.277344 L 92.46875 198.929688 L 96.109375 199.832031 L 94.46875 206.125 L 90.828125 205.222656 L 91.179688 203.875 L 89.777344 203.527344 L 89.425781 204.875 L 85.964844 204.019531 L 88.269531 195.027344 L 87.34375 194.828125 L 87.070312 196.164062 L 83.890625 195.261719 Z M 85.503906 189.078125 "/>
<path style=" stroke:none;fill-rule:nonzero;fill:rgb(39.99939%,39.99939%,39.99939%);fill-opacity:0.3;" d="M 128.363281 196.078125 L 131.792969 197.046875 L 131.394531 198.382812 L 132.78125 198.773438 L 133.179688 197.4375 L 136.785156 198.453125 L 135.839844 201.617188 L 134.921875 204.691406 L 131.320312 203.675781 L 131.71875 202.339844 L 130.328125 201.949219 L 129.929688 203.285156 L 126.5 202.316406 L 127.363281 199.425781 Z M 128.363281 196.078125 "/>
<path style=" stroke:none;fill-rule:nonzero;fill:rgb(39.99939%,39.99939%,39.99939%);fill-opacity:0.3;" d="M 103.464844 177.648438 L 106.933594 178.476562 L 106.59375 179.828125 L 108 180.164062 L 108.339844 178.8125 L 111.984375 179.683594 L 110.402344 185.992188 L 106.757812 185.121094 L 107.09375 183.769531 L 105.691406 183.433594 L 105.351562 184.785156 L 101.882812 183.957031 L 100.542969 189.714844 L 96.894531 188.84375 L 97.234375 187.492188 L 95.828125 187.15625 L 95.488281 188.507812 L 92.019531 187.679688 L 93.601562 181.371094 L 97.070312 182.199219 L 96.734375 183.550781 L 98.136719 183.886719 L 98.476562 182.535156 L 102.054688 183.261719 Z M 103.464844 177.648438 "/>
<path style=" stroke:none;fill-rule:nonzero;fill:rgb(39.99939%,39.99939%,39.99939%);fill-opacity:0.3;" d="M 117.640625 175.867188 L 121.070312 176.832031 L 120.671875 178.167969 L 121.367188 178.367188 L 122.0625 178.5625 L 122.460938 177.226562 L 126.066406 178.242188 L 122.03125 191.84375 L 118.425781 190.828125 L 118.824219 189.492188 L 118.082031 189.28125 L 117.4375 189.101562 L 117.039062 190.4375 L 113.609375 189.46875 Z M 117.640625 175.867188 "/>
<path style=" stroke:none;fill-rule:nonzero;fill:rgb(39.99939%,39.99939%,39.99939%);fill-opacity:0.3;" d="M 132.847656 181.035156 L 136.277344 182 L 135.878906 183.335938 L 137.265625 183.730469 L 137.664062 182.394531 L 141.269531 183.410156 L 139.40625 189.644531 L 135.800781 188.628906 L 136.203125 187.292969 L 134.8125 186.902344 L 134.414062 188.238281 L 130.984375 187.269531 Z M 132.847656 181.035156 "/>
<path style=" stroke:none;fill-rule:nonzero;fill:rgb(39.99939%,39.99939%,39.99939%);fill-opacity:0.3;" d="M 130.632812 188.441406 L 134.0625 189.410156 L 133.664062 190.746094 L 135.054688 191.136719 L 135.453125 189.800781 L 139.058594 190.820312 L 138.101562 194.027344 L 137.195312 197.054688 L 133.589844 196.039062 L 133.988281 194.703125 L 132.601562 194.308594 L 132.203125 195.644531 L 128.773438 194.679688 L 129.722656 191.496094 Z M 130.632812 188.441406 "/>
<path style=" stroke:none;fill-rule:nonzero;fill:rgb(39.99939%,39.99939%,39.99939%);fill-opacity:0.3;" d="M 157.011719 235.136719 L 173.285156 239.964844 L 171.335938 244.710938 L 168.261719 250.261719 L 165.027344 255.503906 L 160.820312 260.285156 L 155.640625 264.148438 L 150.460938 267.546875 L 148.84375 269.859375 L 144.46875 281.484375 L 137.378906 306.613281 L 133.8125 306.15625 Z M 157.011719 235.136719 "/>
<path style=" stroke:none;fill-rule:nonzero;fill:rgb(39.99939%,39.99939%,39.99939%);fill-opacity:0.3;" d="M 259.882812 208.367188 L 278.058594 214.132812 L 275.027344 224.425781 L 275.707031 224.574219 L 276.347656 224.714844 L 279.480469 214.515625 L 290.734375 217.671875 L 285.011719 236.324219 L 282.300781 245.855469 L 281.261719 251.019531 L 281.058594 255.984375 L 268.089844 251.042969 L 272.46875 237.136719 L 264.308594 234.171875 L 263.796875 235.339844 L 263.265625 236.554688 L 269.75 238.929688 L 265.371094 252.039062 L 280.640625 258.167969 L 280.230469 265.914062 L 278.984375 273.859375 L 274.324219 289.425781 L 166.949219 305.449219 L 170.105469 287.015625 L 169.601562 286.875 L 168.839844 286.660156 L 165.136719 305.644531 L 157.878906 306.621094 L 163.90625 284.671875 L 163.140625 284.625 L 162.179688 284.566406 L 156.066406 307.007812 L 140.441406 308.570312 L 150.238281 273.140625 L 151.691406 270.367188 L 153.472656 268.515625 L 156.0625 266.507812 L 160.433594 263.417969 L 164.15625 260.332031 L 168.523438 254.625 L 172.890625 247.839844 L 176.910156 241.257812 L 193.394531 246.054688 L 185.828125 260.957031 L 206.585938 267.179688 L 207.109375 266.019531 L 207.570312 264.988281 L 189.777344 259.367188 L 196.351562 247.148438 L 218.589844 253.386719 L 239.515625 259.453125 L 248.710938 236.441406 Z M 259.882812 208.367188 "/>
<path style=" stroke:none;fill-rule:nonzero;fill:rgb(39.99939%,39.99939%,39.99939%);fill-opacity:0.3;" d="M 240.34375 201.871094 L 258.289062 207.425781 L 239.175781 252.726562 L 226.820312 248.660156 L 225.207031 252.820312 L 218.371094 250.691406 Z M 240.34375 201.871094 "/>
<g clip-path="url(#clip5)" clip-rule="nonzero">
<path style=" stroke:none;fill-rule:nonzero;fill:rgb(39.99939%,39.99939%,39.99939%);fill-opacity:0.3;" d="M 158.6875 314.167969 L 247.355469 301.132812 L 242.648438 306.515625 L 237.945312 311.539062 L 235.6875 316.203125 L 185.113281 464.359375 L 182.007812 463.460938 L 114.769531 443.019531 L 116.144531 436.046875 L 163.753906 444.109375 L 163.832031 443.597656 L 163.90625 443.039062 L 115.675781 435.226562 L 114.042969 442.914062 L 105.316406 440.042969 L 140.390625 315.917969 L 157.160156 314.167969 L 151.378906 340.707031 L 157.671875 342.300781 L 155.726562 350.734375 L 151.738281 349.742188 L 151.636719 350.0625 L 151.507812 350.453125 L 155.539062 351.496094 L 153.570312 359.859375 L 154.222656 360.023438 L 154.957031 360.207031 L 155.851562 356.125 L 164.265625 357.800781 L 164.363281 357.054688 L 164.453125 356.386719 L 155.945312 354.613281 L 159.121094 342.6875 L 191.246094 350.753906 L 192.890625 340.640625 L 194.777344 340.824219 L 198.75 320.769531 L 198.148438 320.648438 L 197.484375 320.515625 L 194.011719 339.355469 L 192.210938 338.964844 L 190.507812 349.496094 L 153.121094 339.875 Z M 158.6875 314.167969 "/>
</g>
<path style=" stroke:none;fill-rule:nonzero;fill:rgb(39.99939%,39.99939%,39.99939%);fill-opacity:0.3;" d="M 26.179688 282.210938 L 45.875 287.59375 L 24.761719 321.980469 L 18.109375 321.089844 Z M 26.179688 282.210938 "/>
<path style=" stroke:none;fill-rule:nonzero;fill:rgb(39.99939%,39.99939%,39.99939%);fill-opacity:0.3;" d="M 6.523438 276.953125 L 22.691406 281.3125 L 14.652344 320.734375 L -2.050781 318.179688 Z M 6.523438 276.953125 "/>
<path style=" stroke:none;fill-rule:nonzero;fill:rgb(39.99939%,39.99939%,39.99939%);fill-opacity:0.3;" d="M -11.71875 271.898438 L 4.039062 276.386719 L -4.5625 317.980469 L -20.863281 315.554688 Z M -11.71875 271.898438 "/>
<path style=" stroke:none;fill-rule:nonzero;fill:rgb(39.99939%,39.99939%,39.99939%);fill-opacity:0.3;" d="M 49.589844 288.089844 L 130.417969 309.390625 L 130.421875 312.871094 L 71.769531 317.742188 L 72.429688 307.28125 L 71.265625 307.226562 L 69.851562 307.160156 L 68.785156 318.007812 L 28.550781 321.519531 Z M 49.589844 288.089844 "/>
<g clip-path="url(#clip6)" clip-rule="nonzero">
<path style=" stroke:none;fill-rule:nonzero;fill:rgb(39.99939%,39.99939%,39.99939%);fill-opacity:0.3;" d="M -46.714844 346.824219 L -49.085938 341.609375 L 8.253906 352.65625 L 2.722656 368.640625 L -0.339844 375.792969 L -4.171875 383.496094 L -11.652344 394.328125 L -22.59375 405.164062 L -28.585938 409.890625 L -33.007812 412.777344 L -33.234375 403.761719 L -34.472656 392.066406 L -35.699219 384.78125 L -37.335938 376.15625 L -38.632812 370.699219 L -41.632812 359.253906 L -44.320312 352.757812 Z M -46.714844 346.824219 "/>
</g>
<g clip-path="url(#clip7)" clip-rule="nonzero">
<path style=" stroke:none;fill-rule:nonzero;fill:rgb(39.99939%,39.99939%,39.99939%);fill-opacity:0.3;" d="M 18.261719 339.273438 L 25.699219 326.34375 L 63.839844 323.8125 L 49.816406 372.609375 L 44.382812 373.394531 L 36.441406 374.011719 L 27.011719 373.847656 L 20.65625 372.945312 L 12.292969 370.542969 L 5.71875 367.746094 L 8.132812 360.578125 L 11.929688 351.207031 Z M 18.261719 339.273438 "/>
</g>
<path style=" stroke:none;fill-rule:nonzero;fill:rgb(39.99939%,39.99939%,39.99939%);fill-opacity:0.3;" d="M 182.816406 317.113281 L 186.109375 317.78125 L 184.695312 324.054688 L 181.402344 323.382812 Z M 182.816406 317.113281 "/>
<path style=" stroke:none;fill-rule:nonzero;fill:rgb(39.99939%,39.99939%,39.99939%);fill-opacity:0.3;" d="M 187.300781 317.976562 L 190.59375 318.644531 L 189.179688 324.917969 L 185.886719 324.246094 Z M 187.300781 317.976562 "/>
<path style=" stroke:none;fill-rule:nonzero;fill:rgb(39.99939%,39.99939%,39.99939%);fill-opacity:0.3;" d="M 184.464844 325.457031 L 187.757812 326.128906 L 186.34375 332.398438 L 183.050781 331.730469 Z M 184.464844 325.457031 "/>
<path style=" stroke:none;fill-rule:nonzero;fill:rgb(39.99939%,39.99939%,39.99939%);fill-opacity:0.3;" d="M 182.074219 335.71875 L 185.367188 336.390625 L 183.953125 342.664062 L 180.660156 341.992188 Z M 182.074219 335.71875 "/>
<path style=" stroke:none;fill-rule:nonzero;fill:rgb(39.99939%,39.99939%,39.99939%);fill-opacity:0.3;" d="M 177.4375 334.855469 L 180.730469 335.527344 L 179.316406 341.800781 L 176.023438 341.128906 Z M 177.4375 334.855469 "/>
<path style=" stroke:none;fill-rule:nonzero;fill:rgb(39.99939%,39.99939%,39.99939%);fill-opacity:0.3;" d="M 173.105469 333.992188 L 176.398438 334.664062 L 174.984375 340.9375 L 171.691406 340.265625 Z M 173.105469 333.992188 "/>
<path style=" stroke:none;fill-rule:nonzero;fill:rgb(39.99939%,39.99939%,39.99939%);fill-opacity:0.3;" d="M 168.769531 332.984375 L 172.0625 333.65625 L 170.648438 339.929688 L 167.355469 339.257812 Z M 168.769531 332.984375 "/>
<g clip-path="url(#clip8)" clip-rule="nonzero">
<path style=" stroke:none;fill-rule:nonzero;fill:rgb(39.99939%,39.99939%,39.99939%);fill-opacity:0.3;" d="M 135.621094 357.011719 L 140.351562 357.488281 L 145.246094 357.984375 L 144.550781 364.546875 L 142.9375 364.382812 L 140.65625 385.882812 L 149.335938 386.761719 L 148.519531 394.46875 L 142.277344 393.835938 L 142.542969 391.328125 L 139.988281 391.070312 L 137.5625 390.824219 L 137.296875 393.332031 L 130.222656 392.617188 L 131.039062 384.90625 L 134.445312 385.253906 L 136.722656 363.753906 L 134.921875 363.574219 Z M 135.621094 357.011719 "/>
</g>
<path style=" stroke:none;fill-rule:nonzero;fill:rgb(39.99939%,39.99939%,39.99939%);fill-opacity:0.3;" d="M 21.355469 326.351562 L 8.039062 351.3125 L -2.042969 349.292969 L 0.578125 336.207031 L -6.390625 334.648438 L -6.585938 335.441406 L -6.847656 336.503906 L -1.199219 337.625 L -3.511719 348.925781 L -38.0625 342.082031 L -37.503906 331.832031 L -38.75 331.519531 L -39.699219 331.285156 L -40.125 341.710938 L -50.238281 339.921875 L -54.269531 332.4375 L -56.953125 328.34375 L -60.378906 323.917969 L -63.152344 319.96875 L -63.429688 319.457031 L -64.289062 318.3125 L -68.449219 311.652344 Z M 21.355469 326.351562 "/>
<g clip-path="url(#clip9)" clip-rule="nonzero">
<path style=" stroke:none;fill-rule:nonzero;fill:rgb(39.99939%,39.99939%,39.99939%);fill-opacity:0.3;" d="M 65.667969 323.488281 L 81.9375 322.464844 L 81.140625 331.257812 L 82.921875 331.101562 L 84.125 330.996094 L 84.789062 322.214844 L 126.980469 318.148438 L 95.878906 437.183594 L 94.703125 438.863281 L 93.386719 440.398438 L 90.027344 440.964844 L 35.453125 429.527344 Z M 65.667969 323.488281 "/>
</g>
<path style=" stroke:none;fill-rule:nonzero;fill:rgb(39.99939%,39.99939%,39.99939%);fill-opacity:0.3;" d="M 289.09375 109.835938 L 306.714844 116.40625 L 306.433594 117.085938 L 296.300781 113.707031 Z M 289.09375 109.835938 "/>
<g clip-path="url(#clip10)" clip-rule="nonzero">
<path style=" stroke:none;fill-rule:nonzero;fill:rgb(39.99939%,39.99939%,39.99939%);fill-opacity:0.3;" d="M 381.96875 -180.671875 L 383.402344 -181.761719 L 384.863281 -182.25 L 385.761719 -182.609375 L 386.683594 -183.152344 L 387.410156 -183.824219 L 388.511719 -184.804688 L 389.832031 -185.746094 L 400.625 -178.722656 L 433.460938 -96.375 L 461.410156 -26.292969 L 502.027344 75.574219 L 502.550781 86.203125 L 496.828125 133.769531 L 462.429688 144.34375 L 449.132812 111.71875 L 421.320312 39.851562 L 423.660156 38.980469 L 404.757812 -7.191406 L 401.316406 -15.601562 L 390.988281 -11.582031 L 384.199219 -17.089844 L 375.796875 -24.738281 L 371.269531 -30.558594 L 368.03125 -36.996094 L 362.523438 -51.410156 L 356.582031 -69.675781 L 352.199219 -68.433594 L 357.714844 -89.855469 L 363.671875 -109.628906 L 369.164062 -132.636719 Z M 381.96875 -180.671875 "/>
</g>
<path style=" stroke:none;fill-rule:nonzero;fill:rgb(39.99939%,39.99939%,39.99939%);fill-opacity:0.3;" d="M 309.410156 117.613281 L 315.695312 119.550781 L 309.277344 117.945312 Z M 309.410156 117.613281 "/>
<path style=" stroke:none;fill-rule:nonzero;fill:rgb(39.99939%,39.99939%,39.99939%);fill-opacity:0.3;" d="M 51.648438 23.953125 L 55.058594 25.050781 L 71.976562 30.449219 L 65.773438 28.75 Z M 51.648438 23.953125 "/>
<path style=" stroke:none;fill-rule:nonzero;fill:rgb(39.99939%,39.99939%,39.99939%);fill-opacity:0.3;" d="M 162.214844 54.109375 L 185.824219 61.800781 L 184.765625 71.515625 L 159.121094 62.527344 Z M 162.214844 54.109375 "/>
<g clip-path="url(#clip11)" clip-rule="nonzero">
<path style=" stroke:none;fill-rule:nonzero;fill:rgb(39.99939%,39.99939%,39.99939%);fill-opacity:0.3;" d="M 335.726562 -7.019531 L 350.652344 -63.328125 L 355.699219 -64.3125 L 368.644531 -30.074219 L 375.800781 -21.117188 L 381.363281 -15.496094 L 387.5 -10.234375 L 393.449219 -5.703125 L 399.78125 3.734375 L 389.628906 6.828125 L 398.644531 26.445312 L 378.875 33.902344 L 374.722656 24.488281 L 387.777344 20.011719 L 387.300781 18.773438 L 386.820312 17.535156 L 373.957031 22.136719 L 370.058594 12.816406 L 368.785156 13.195312 L 367.511719 13.570312 L 371.34375 22.683594 L 365.363281 24.890625 L 366.410156 27.507812 L 372.355469 25.398438 L 377.136719 36.40625 L 399.285156 28.117188 L 406.617188 45.816406 L 372.597656 59.808594 L 372.929688 60.640625 L 373.371094 61.75 L 417.820312 42.855469 L 455.941406 136.128906 L 453.929688 148.59375 L 470.804688 154.96875 L 471.136719 151.132812 L 497.984375 139.875 L 494.472656 166.882812 L 381.042969 138.117188 L 358.734375 129.832031 L 350.792969 125.273438 L 350.507812 123.210938 L 362.664062 89.445312 L 366.570312 76.257812 L 367.269531 63.976562 L 367.378906 56.65625 L 363.339844 25.222656 L 361.300781 13.972656 L 356.335938 3.222656 L 347.203125 -3.199219 Z M 335.726562 -7.019531 "/>
</g>
<g clip-path="url(#clip12)" clip-rule="nonzero">
<path style=" stroke:none;fill-rule:nonzero;fill:rgb(39.99939%,39.99939%,39.99939%);fill-opacity:0.3;" d="M 194.324219 -39.109375 L 341.84375 -0.00390625 L 348.054688 3.246094 L 352.472656 7.433594 L 356.332031 14.019531 L 356.449219 40.648438 L 357.457031 44.699219 L 360.683594 49.230469 L 361.542969 69.800781 L 359.703125 81.507812 L 344.625 122.25 L 342.613281 123.328125 L 297.136719 110.402344 L 258.925781 91.449219 L 268.851562 58.195312 L 285.660156 63.65625 L 281.457031 76.941406 L 282.644531 77.199219 L 283.832031 77.460938 L 288.117188 64.484375 L 332.542969 76.351562 L 333.414062 74.699219 L 334.523438 72.585938 L 270.917969 54.691406 L 272.898438 48.171875 L 317.007812 58.484375 L 317.140625 57.8125 L 317.308594 56.988281 L 295.984375 51.769531 L 297.507812 46.699219 L 307.75 48.425781 L 307.957031 47.902344 L 308.207031 47.269531 L 296.433594 45.25 L 294.914062 51.625 L 273.507812 46.578125 L 278.066406 28.980469 L 319.195312 39.511719 L 319.535156 38.140625 L 319.804688 37.050781 L 315.214844 35.460938 L 315.671875 32.273438 L 314.144531 31.839844 L 312.613281 31.410156 L 311.851562 34.738281 L 279.285156 26.515625 L 288.15625 -3.214844 L 311.667969 3.695312 L 306.789062 16.15625 L 298.09375 13.914062 L 297.625 15.9375 L 317.484375 20.605469 L 317.679688 19.507812 L 317.816406 18.769531 L 309.191406 16.6875 L 314.269531 4.417969 L 335.5625 10.363281 L 335.921875 8.832031 L 336.214844 7.585938 L 192.039062 -33.75 Z M 194.324219 -39.109375 "/>
</g>
<path style=" stroke:none;fill-rule:nonzero;fill:rgb(39.99939%,39.99939%,39.99939%);fill-opacity:0.3;" d="M 207.347656 58.484375 L 211.34375 59.617188 L 213.128906 54.496094 L 214.695312 52.558594 L 214.164062 52.074219 L 213.632812 51.585938 L 211.300781 54.214844 L 210.519531 56.808594 L 188.835938 48.210938 L 194.15625 27.289062 L 213.347656 32.5625 L 210.035156 44.644531 L 211.394531 44.976562 L 212.574219 45.261719 L 215.859375 34.007812 L 231.167969 38.347656 L 236.519531 39.34375 L 242.816406 40.953125 L 239.730469 52.449219 L 241.019531 52.71875 L 242.308594 52.984375 L 245.238281 40.789062 L 254.386719 42.992188 L 267.847656 46.367188 L 267.589844 48.878906 L 255.253906 89.144531 L 245.882812 85.78125 L 233.996094 82.617188 L 219.484375 79.496094 L 201.324219 75.585938 Z M 207.347656 58.484375 "/>
<path style=" stroke:none;fill-rule:nonzero;fill:rgb(39.99939%,39.99939%,39.99939%);fill-opacity:0.3;" d="M 283.703125 -3.84375 L 279.859375 7.558594 L 268.519531 4.148438 L 268.152344 5.277344 L 267.679688 6.742188 L 278.710938 10.550781 L 274.085938 23.769531 L 260.855469 20.15625 L 260.542969 21.78125 L 260.1875 23.640625 L 272.867188 27.273438 L 267.25 43.714844 L 264.953125 44.191406 L 261.914062 44.097656 L 212.554688 31.519531 L 213.914062 26.21875 L 213.234375 26.039062 L 212.550781 25.855469 L 211.21875 31.105469 L 194.21875 25.828125 L 196.6875 18.082031 L 199.996094 18.617188 L 201.550781 10.964844 L 209 12.351562 L 209.804688 8.847656 L 214.847656 9.625 L 214.015625 13.472656 L 215.640625 13.636719 L 217.042969 13.777344 L 217.703125 8.652344 L 212.324219 7.074219 L 212.484375 4.035156 L 207.945312 2.613281 L 208.640625 -0.964844 L 205.871094 -1.347656 L 203.097656 -1.730469 L 202.625 3.976562 L 205.507812 4.5625 L 205.1875 8.191406 L 198.484375 7.273438 L 197.054688 15.636719 L 171.113281 7.042969 L 189.226562 -31.277344 Z M 283.703125 -3.84375 "/>
<path style=" stroke:none;fill-rule:nonzero;fill:rgb(39.99939%,39.99939%,39.99939%);fill-opacity:0.3;" d="M 185.667969 47.847656 L 165.566406 41.15625 L 171.550781 23.003906 L 161.582031 18.578125 L 161.714844 16.125 L 162.355469 13.707031 L 163.203125 11.675781 L 166.066406 8.609375 L 169.0625 7.9375 L 194.933594 16.660156 L 191.609375 30.761719 L 189.039062 41.246094 L 187.195312 46.289062 Z M 185.667969 47.847656 "/>
<path style=" stroke:none;fill-rule:nonzero;fill:rgb(39.99939%,39.99939%,39.99939%);fill-opacity:0.3;" d="M 165.714844 43.828125 L 186.558594 51.34375 L 186.007812 60.578125 L 162.582031 52.542969 Z M 165.714844 43.828125 "/>
<path style=" stroke:none;fill-rule:nonzero;fill:rgb(39.99939%,39.99939%,39.99939%);fill-opacity:0.3;" d="M 188.402344 51.695312 L 205.6875 58.65625 L 199.847656 75.058594 L 187.082031 72.613281 Z M 188.402344 51.695312 "/>
<path style=" stroke:none;fill-rule:nonzero;fill:rgb(39.99939%,39.99939%,39.99939%);fill-opacity:0.3;" d="M 127.507812 -43.582031 L 136.585938 -40.582031 L 133.75 -31.277344 L 141.988281 -28.914062 L 142.257812 -29.953125 L 142.488281 -30.839844 L 136.4375 -32.730469 L 138.601562 -39.46875 L 159.449219 -33.148438 L 155.445312 -22.253906 L 156.320312 -22 L 157.125 -21.769531 L 166.414062 -47.582031 L 191.882812 -40.457031 L 171.722656 2.535156 L 170.429688 4.679688 L 168.308594 5.050781 L 166.648438 6 L 164.609375 7.527344 L 163.554688 8.757812 L 162.425781 10.933594 L 160.535156 14.664062 L 160.230469 16.667969 L 159.851562 19.238281 L 159.699219 21.097656 L 158.933594 24.589844 L 157.007812 28.421875 L 158.03125 28.90625 L 158.71875 29.230469 L 161.925781 21.570312 L 168.769531 24.207031 L 156.597656 59.953125 L 153.082031 59.683594 L 150.496094 56.019531 L 146.625 53.75 L 142.933594 50.957031 L 139.613281 49.210938 L 133.894531 46.246094 L 136.652344 34.035156 L 135.8125 33.890625 L 134.625 33.683594 L 132.050781 45.894531 L 123.566406 43.453125 L 103.773438 35.871094 L 117.90625 -11.144531 L 140.089844 -6.03125 L 144.058594 -20.472656 L 142.808594 -20.765625 L 141.554688 -21.0625 L 138.300781 -9.871094 L 119.753906 -14.96875 Z M 127.507812 -43.582031 "/>
<path style=" stroke:none;fill-rule:nonzero;fill:rgb(39.99939%,39.99939%,39.99939%);fill-opacity:0.3;" d="M 83.179688 -70.761719 L 97.703125 -66.230469 L 91.234375 -46.632812 L 92.46875 -46.492188 L 93.363281 -46.390625 L 99.703125 -65.605469 L 112.945312 -62.085938 L 104.761719 -36.609375 L 106.199219 -36.300781 L 107.585938 -36.003906 L 115.554688 -61.316406 L 127.941406 -58.683594 L 114.347656 -14.101562 L 97.8125 -18.242188 L 97.507812 -17.386719 L 97.160156 -16.394531 L 113.476562 -12.257812 L 105.828125 15.425781 L 96.671875 12.039062 L 99.386719 1.628906 L 98.421875 1.417969 L 97.527344 1.222656 L 93.8125 12.984375 L 105.542969 17.320312 L 100.039062 34.820312 L 34.367188 12.75 L 23.582031 7.867188 L -11.882812 -12.269531 L -0.558594 -63.28125 L 2.433594 -62.550781 L 8.304688 -60.925781 L 12.152344 -59.796875 L 18.050781 -58.304688 L 23.164062 -56.820312 L 19.898438 -45.226562 L 21.28125 -44.972656 L 22.777344 -44.742188 L 25.9375 -55.804688 L 39.871094 -52.03125 L 33.78125 -33.828125 L 28.6875 -35.085938 L 28.347656 -33.894531 L 33.613281 -32.632812 L 32.636719 -29.308594 L 25.75 -30.996094 L 25.445312 -29.839844 L 32.332031 -28.261719 L 30.96875 -23.351562 L 24.996094 -24.753906 L 24.496094 -23.265625 L 31.503906 -21.757812 L 43.273438 -19.226562 L 46.703125 -32.523438 L 37.039062 -35.554688 L 41.5 -51.261719 L 68.8125 -43.164062 L 62.507812 -26.949219 L 63.980469 -26.171875 L 65.542969 -25.34375 L 72.070312 -42.175781 L 99.5 -34.675781 L 99.957031 -36.035156 L 100.367188 -37.242188 L 73.191406 -45.136719 Z M 83.179688 -70.761719 "/>
<path style=" stroke:none;fill-rule:nonzero;fill:rgb(39.99939%,39.99939%,39.99939%);fill-opacity:0.3;" d="M 42.222656 209.328125 L 70.027344 217.976562 L 57.636719 255.085938 L 27.578125 248.199219 L 27.082031 256.535156 L 12.199219 252.226562 L 18.707031 223.691406 L 36.152344 228.527344 Z M 42.222656 209.328125 "/>
<path style=" stroke:none;fill-rule:nonzero;fill:rgb(39.99939%,39.99939%,39.99939%);fill-opacity:0.3;" d="M 48.152344 189.515625 L 51.703125 190.644531 L 50.089844 196.882812 L 51.113281 197.042969 L 52.050781 197.191406 L 53.589844 191.171875 L 68.273438 195.375 L 63.277344 198.933594 L 64.152344 199.371094 L 65.132812 199.859375 L 70.839844 196.140625 L 77.445312 198.082031 L 71.476562 215.894531 L 43.238281 207.042969 Z M 48.152344 189.515625 "/>
<path style=" stroke:none;fill-rule:nonzero;fill:rgb(39.99939%,39.99939%,39.99939%);fill-opacity:0.3;" d="M 31.125 137.226562 L 36.117188 138.734375 L 34.488281 142.183594 L 60.695312 149.476562 L 58.324219 157.652344 L 60.0625 158.183594 L 59.023438 161.285156 L 52.601562 159.511719 L 51.945312 160.867188 L 51.285156 162.21875 L 66.84375 166.113281 L 67.101562 164.867188 L 67.292969 163.957031 L 61.777344 162.175781 L 62.320312 158.867188 L 67.378906 160.109375 L 67.769531 158.828125 L 68.039062 157.9375 L 61.703125 156.4375 L 63.960938 148.1875 L 51.441406 144.625 L 52.332031 140.214844 L 76.253906 145.992188 L 92.59375 150.40625 L 78.417969 195.972656 L 38.402344 183.859375 L 42.183594 165.523438 L 41.210938 165.292969 L 40.152344 165.042969 L 35.734375 183.378906 L 17.785156 178.554688 Z M 31.125 137.226562 "/>
<path style=" stroke:none;fill-rule:nonzero;fill:rgb(39.99939%,39.99939%,39.99939%);fill-opacity:0.3;" d="M 9.933594 128.128906 L 28.503906 131.558594 L 15.085938 175.539062 L -2.285156 170.511719 Z M 9.933594 128.128906 "/>
<path style=" stroke:none;fill-rule:nonzero;fill:rgb(39.99939%,39.99939%,39.99939%);fill-opacity:0.3;" d="M -14.742188 133.03125 L 4.878906 136.0625 L -10.667969 186.644531 L -16.53125 193.429688 L -28.992188 184.019531 Z M -14.742188 133.03125 "/>
<path style=" stroke:none;fill-rule:nonzero;fill:rgb(39.99939%,39.99939%,39.99939%);fill-opacity:0.3;" d="M 55.476562 271.621094 L 57.847656 264.308594 L 56.921875 268.574219 Z M 55.476562 271.621094 "/>
<path style=" stroke:none;fill-rule:nonzero;fill:rgb(39.99939%,39.99939%,39.99939%);fill-opacity:0.3;" d="M 78.820312 199.628906 L 80.449219 194.605469 L 79.488281 197.777344 Z M 78.820312 199.628906 "/>
<path style=" stroke:none;fill-rule:nonzero;fill:rgb(39.99939%,39.99939%,39.99939%);fill-opacity:0.3;" d="M -4.34375 174.75 L 11.171875 179.152344 L 32.027344 185.066406 L 45.609375 188.921875 L 40.726562 205.390625 L 27.097656 201.269531 L 26.773438 202.046875 L 26.445312 202.824219 L 40.402344 207.046875 L 36.832031 221.476562 L 35.855469 223.859375 L 35.09375 224.691406 L 33.894531 224.691406 L 0.636719 215.015625 L 2.367188 206.730469 L -8.25 201.363281 L -16.246094 197.324219 L -7.246094 186.453125 Z M -4.34375 174.75 "/>
<path style=" stroke:none;fill-rule:nonzero;fill:rgb(39.99939%,39.99939%,39.99939%);fill-opacity:0.3;" d="M 76.695312 121.238281 L 99.4375 127.679688 L 93.167969 146.140625 L 69.023438 140.503906 Z M 76.695312 121.238281 "/>
<path style=" stroke:none;fill-rule:nonzero;fill:rgb(39.99939%,39.99939%,39.99939%);fill-opacity:0.3;" d="M 32.75 251.589844 L 57.179688 257.464844 L 55.101562 264.730469 L 31.828125 258.046875 Z M 32.75 251.589844 "/>
<path style=" stroke:none;fill-rule:nonzero;fill:rgb(39.99939%,39.99939%,39.99939%);fill-opacity:0.3;" d="M -79.742188 248.542969 L -84.53125 226.582031 L 54 267.46875 L 48.863281 283.546875 Z M -79.742188 248.542969 "/>
<path style=" stroke:none;fill-rule:nonzero;fill:rgb(39.99939%,39.99939%,39.99939%);fill-opacity:0.3;" d="M -0.03125 218.027344 L 15.78125 222.761719 L 10.199219 251.625 L -5.839844 246.984375 Z M -0.03125 218.027344 "/>
<path style=" stroke:none;fill-rule:nonzero;fill:rgb(39.99939%,39.99939%,39.99939%);fill-opacity:0.3;" d="M 31.566406 70.851562 L 42.039062 73.671875 L 36.351562 93.535156 L 66.125 101.234375 L 66.269531 99.855469 L 66.394531 98.652344 L 40.15625 91.597656 L 45.164062 75.347656 L 80.78125 85.695312 L 76.882812 111.253906 L 78.214844 111.410156 L 79.007812 111.5 L 82.992188 86.402344 L 111.75 94.847656 L 107.585938 104.957031 L 104.269531 114.421875 L 100.023438 126.28125 L 90.226562 123.472656 L 75.882812 119.511719 L 66.460938 140.738281 L 57.886719 138.386719 L 62.53125 123.980469 L 68.464844 125.660156 L 68.820312 124.433594 L 69.140625 123.328125 L 58.710938 120.367188 L 53.648438 137.027344 L 37.800781 131.714844 L 22.953125 128.300781 L 15.050781 126.867188 L 18.078125 116.640625 L 26.640625 118.066406 L 26.796875 116.851562 L 26.914062 115.972656 L 19.039062 114.148438 L 27.429688 88.457031 L 26.046875 85.574219 Z M 31.566406 70.851562 "/>
<path style=" stroke:none;fill-rule:nonzero;fill:rgb(39.99939%,39.99939%,39.99939%);fill-opacity:0.3;" d="M -4.652344 0.207031 L 4.203125 5.191406 L 17.195312 11.066406 L 33.011719 17.960938 L 51.648438 23.953125 L 65.773438 28.75 L 71.976562 30.449219 L 84.585938 34.472656 L 112.636719 43.550781 L 134.570312 51.207031 L 135.242188 52.273438 L 131.710938 56.34375 L 127.246094 62.300781 L 124.433594 65.910156 L 120.964844 72.339844 L 117.78125 80.882812 L 113.269531 92.285156 L 8.464844 61.175781 L 13.648438 38.789062 L 33.796875 45.546875 L 34.371094 43.996094 L 34.921875 42.515625 L -16.835938 24.945312 L -15.925781 20.910156 L -14.773438 15.070312 L -13.53125 7.75 L -12.699219 1.621094 L -12.394531 -5.101562 Z M -4.652344 0.207031 "/>
<path style=" stroke:none;fill-rule:nonzero;fill:rgb(39.99939%,39.99939%,39.99939%);fill-opacity:0.3;" d="M -17.050781 80.585938 L -12.570312 76.582031 L -8.363281 70.515625 L -2.742188 60.050781 L 5.21875 62.503906 L 0.230469 83.496094 L -5.382812 104.46875 L -9.816406 116.453125 L -12.980469 123.40625 L -27.144531 119.320312 Z M -17.050781 80.585938 "/>
<path style=" stroke:none;fill-rule:nonzero;fill:rgb(39.99939%,39.99939%,39.99939%);fill-opacity:0.3;" d="M 43.261719 236.507812 L 55.578125 236.15625 L 55.660156 240.371094 L 43.113281 240.691406 Z M 43.261719 236.507812 "/>
<path style=" stroke:none;fill-rule:nonzero;fill:rgb(39.99939%,39.99939%,39.99939%);fill-opacity:0.3;" d="M 49.601562 227.558594 L 57.039062 229.273438 L 56.292969 232.203125 L 48.855469 230.488281 Z M 49.601562 227.558594 "/>
<path style=" stroke:none;fill-rule:nonzero;fill:rgb(39.99939%,39.99939%,39.99939%);fill-opacity:0.3;" d="M 59.304688 222.21875 L 61.265625 222.691406 L 60.765625 224.554688 L 62.726562 225.027344 L 63.222656 223.164062 L 65.179688 223.636719 L 63.6875 229.222656 L 62.710938 228.988281 L 61.730469 228.75 L 62.226562 226.886719 L 60.269531 226.417969 L 59.773438 228.277344 L 57.816406 227.808594 Z M 59.304688 222.21875 "/>
<path style=" stroke:none;fill-rule:nonzero;fill:rgb(39.99939%,39.99939%,39.99939%);fill-opacity:0.3;" d="M 51.648438 220.28125 L 53.605469 220.753906 L 53.109375 222.617188 L 55.066406 223.089844 L 55.5625 221.226562 L 57.523438 221.699219 L 56.03125 227.285156 L 55.054688 227.050781 L 54.074219 226.8125 L 54.570312 224.949219 L 52.613281 224.480469 L 52.117188 226.339844 L 50.160156 225.867188 Z M 51.648438 220.28125 "/>
<path style=" stroke:none;fill-rule:nonzero;fill:rgb(39.99939%,39.99939%,39.99939%);fill-opacity:0.3;" d="M 41.132812 216.082031 L 43.34375 216.527344 L 42.894531 218.398438 L 45.105469 218.84375 L 45.554688 216.992188 L 48.28125 217.660156 L 44.796875 231.882812 L 42.21875 231.304688 L 42.613281 229.53125 L 40.40625 229.035156 L 39.980469 230.835938 L 37.710938 230.296875 Z M 41.132812 216.082031 "/>
<path style=" stroke:none;fill-rule:nonzero;fill:rgb(39.99939%,39.99939%,39.99939%);fill-opacity:0.3;" d="M 4.933594 59.15625 L -3.917969 56.667969 L -8.992188 62.742188 L -28.582031 54.019531 L -19.207031 28.605469 L 10.347656 38.351562 Z M 4.933594 59.15625 "/>
<path style=" stroke:none;fill-rule:nonzero;fill:rgb(39.99939%,39.99939%,39.99939%);fill-opacity:0.3;" d="M 82.453125 61.78125 L 84.589844 62.023438 L 84.316406 64.089844 L 86.121094 64.304688 L 86.394531 62.234375 L 88.390625 62.472656 L 87.414062 69.964844 L 85.429688 69.726562 L 85.683594 67.679688 L 83.886719 67.449219 L 83.621094 69.519531 L 81.554688 69.273438 Z M 82.453125 61.78125 "/>
<path style=" stroke:none;fill-rule:nonzero;fill:rgb(39.99939%,39.99939%,39.99939%);fill-opacity:0.3;" d="M 87.667969 74.476562 L 89.804688 74.722656 L 89.53125 76.785156 L 91.332031 77 L 91.605469 74.929688 L 93.601562 75.167969 L 92.628906 82.660156 L 90.644531 82.425781 L 90.898438 80.378906 L 89.097656 80.148438 L 88.832031 82.21875 L 86.765625 81.972656 Z M 87.667969 74.476562 "/>
<path style=" stroke:none;fill-rule:nonzero;fill:rgb(39.99939%,39.99939%,39.99939%);fill-opacity:0.3;" d="M 79.359375 72.65625 L 81.496094 72.902344 L 81.222656 74.964844 L 83.027344 75.183594 L 83.300781 73.109375 L 85.292969 73.347656 L 84.320312 80.84375 L 82.339844 80.605469 L 82.589844 78.558594 L 80.792969 78.328125 L 80.527344 80.398438 L 78.460938 80.152344 Z M 79.359375 72.65625 "/>
<path style=" stroke:none;fill-rule:nonzero;fill:rgb(39.99939%,39.99939%,39.99939%);fill-opacity:0.3;" d="M 8.375 64.234375 L 30.246094 71.015625 L 24.695312 86.125 L 25.664062 90.578125 L 20.160156 104.605469 L 7.863281 100.5625 L 7.527344 101.527344 L 7.039062 102.921875 L 19.472656 106.703125 L 13.273438 127.058594 L 7.746094 125.625 L 5.410156 134.015625 L -12.957031 130.898438 L -3.875 106.976562 L 3 84.035156 Z M 8.375 64.234375 "/>
<path style=" stroke:none;fill-rule:nonzero;fill:rgb(39.99939%,39.99939%,39.99939%);fill-opacity:0.3;" d="M 89.574219 63.179688 L 91.710938 63.425781 L 91.4375 65.488281 L 93.238281 65.707031 L 93.515625 63.632812 L 95.507812 63.871094 L 94.535156 71.363281 L 92.550781 71.128906 L 92.804688 69.082031 L 91.003906 68.847656 L 90.738281 70.917969 L 88.675781 70.671875 Z M 89.574219 63.179688 "/>
<path style="fill-rule:nonzero;fill:rgb(39.99939%,39.99939%,39.99939%);fill-opacity:1;stroke-width:0.03;stroke-linecap:square;stroke-linejoin:miter;stroke:rgb(39.99939%,39.99939%,39.99939%);stroke-opacity:1;stroke-miterlimit:3.239307;" d="M 363.183594 244.523438 L 364.515625 239.976562 L 365.292969 238.1875 Z M 363.183594 244.523438 " transform="matrix(1,0,0,1,-74,-13)"/>
<path style="fill-rule:nonzero;fill:rgb(39.99939%,39.99939%,39.99939%);fill-opacity:1;stroke-width:0.03;stroke-linecap:square;stroke-linejoin:miter;stroke:rgb(39.99939%,39.99939%,39.99939%);stroke-opacity:1;stroke-miterlimit:3.239307;" d="M 354.238281 296.535156 L 357.703125 282.582031 L 357.910156 279.878906 L 357.910156 286 Z M 354.238281 296.535156 " transform="matrix(1,0,0,1,-74,-13)"/>
<path style="fill-rule:nonzero;fill:rgb(39.99939%,39.99939%,39.99939%);fill-opacity:1;stroke-width:0.03;stroke-linecap:square;stroke-linejoin:miter;stroke:rgb(39.99939%,39.99939%,39.99939%);stroke-opacity:1;stroke-miterlimit:3.239307;" d="M 360.71875 121.949219 L 363.09375 122.835938 L 370.300781 126.707031 L 380.433594 130.085938 L 367.375 161.667969 L 348.605469 154.082031 L 348.320312 154.628906 L 347.914062 155.398438 L 366.621094 163.195312 L 364.898438 167.679688 L 343.472656 158.585938 L 343.21875 159.121094 L 342.847656 159.902344 L 364.46875 168.902344 L 360.039062 179.351562 L 346.363281 175.957031 L 346.046875 176.558594 L 345.667969 177.273438 L 359.65625 180.363281 L 358.167969 184.339844 L 344.109375 180.402344 L 343.851562 181.21875 L 343.589844 182.046875 L 357.089844 186.183594 L 356.003906 189.179688 L 337.117188 183.554688 L 336.914062 184.199219 L 336.707031 184.859375 L 345.035156 187.792969 L 344.234375 189.929688 L 340.921875 188.722656 L 340.742188 189.269531 L 340.558594 189.816406 L 343.855469 190.957031 L 343.125 192.699219 L 343.871094 193.019531 L 344.671875 193.367188 L 346.789062 187.96875 L 355.46875 190.554688 L 353.492188 197.226562 L 356.3125 198.125 L 355.4375 201.15625 L 355.902344 201.339844 L 356.363281 201.523438 L 357.429688 198.488281 L 359.222656 199.03125 L 359.480469 198.101562 L 359.734375 197.175781 L 356.078125 196.046875 L 358.175781 189.980469 L 361.535156 181.089844 L 365.285156 172.535156 L 365.734375 172.707031 L 364.992188 174.496094 L 382.570312 179.355469 L 366.308594 226.371094 L 315.410156 211.242188 L 325.515625 186.191406 L 324.320312 185.949219 L 323.121094 185.707031 L 313.054688 210.148438 L 297.640625 204.972656 L 301.75 193.027344 L 305.5 179.722656 L 304.3125 179.527344 L 302.59375 179.238281 L 298.5 191.898438 L 296.457031 198.226562 L 294.28125 204.144531 L 275.421875 198.742188 L 294.53125 156.347656 L 310.59375 123.855469 L 321.210938 103.195312 L 348.234375 115.167969 Z M 360.71875 121.949219 " transform="matrix(1,0,0,1,-74,-13)"/>
<path style="fill-rule:nonzero;fill:rgb(39.99939%,39.99939%,39.99939%);fill-opacity:1;stroke-width:0.03;stroke-linecap:square;stroke-linejoin:miter;stroke:rgb(39.99939%,39.99939%,39.99939%);stroke-opacity:1;stroke-miterlimit:3.239307;" d="M 289.332031 224.828125 L 304.242188 229.382812 L 288.910156 262.703125 L 271.816406 257.59375 L 272.316406 252.65625 L 273.300781 249.679688 L 276.09375 244.601562 L 279.546875 240.527344 L 283.332031 236.453125 L 286.949219 230.660156 Z M 289.332031 224.828125 " transform="matrix(1,0,0,1,-74,-13)"/>
<path style="fill-rule:nonzero;fill:rgb(39.99939%,39.99939%,39.99939%);fill-opacity:1;stroke-width:0.03;stroke-linecap:square;stroke-linejoin:miter;stroke:rgb(39.99939%,39.99939%,39.99939%);stroke-opacity:1;stroke-miterlimit:3.239307;" d="M 297.28125 209.3125 L 311.617188 213.515625 L 305.636719 227.703125 L 291.035156 223.082031 Z M 297.28125 209.3125 " transform="matrix(1,0,0,1,-74,-13)"/>
<path style="fill-rule:nonzero;fill:rgb(39.99939%,39.99939%,39.99939%);fill-opacity:1;stroke-width:0.03;stroke-linecap:square;stroke-linejoin:miter;stroke:rgb(39.99939%,39.99939%,39.99939%);stroke-opacity:1;stroke-miterlimit:3.239307;" d="M 266.179688 220.058594 L 287.105469 225.1875 L 283.820312 231.515625 L 279.382812 238.40625 L 275.929688 242.167969 L 273.132812 245.769531 L 271.324219 248.277344 L 270.207031 251.671875 L 269.519531 254.851562 L 269.324219 256.988281 L 251.191406 251.640625 Z M 266.179688 220.058594 " transform="matrix(1,0,0,1,-74,-13)"/>
<path style="fill-rule:nonzero;fill:rgb(39.99939%,39.99939%,39.99939%);fill-opacity:1;stroke-width:0.03;stroke-linecap:square;stroke-linejoin:miter;stroke:rgb(39.99939%,39.99939%,39.99939%);stroke-opacity:1;stroke-miterlimit:3.239307;" d="M 275.199219 202.308594 L 295.304688 208.691406 L 288.4375 223.570312 L 267.640625 218.113281 Z M 275.199219 202.308594 " transform="matrix(1,0,0,1,-74,-13)"/>
<path style="fill-rule:nonzero;fill:rgb(39.99939%,39.99939%,39.99939%);fill-opacity:1;stroke-width:0.03;stroke-linecap:square;stroke-linejoin:miter;stroke:rgb(39.99939%,39.99939%,39.99939%);stroke-opacity:1;stroke-miterlimit:3.239307;" d="M 159.101562 193.25 L 163.714844 193.398438 L 169.804688 190.105469 L 179.027344 188.371094 L 186.273438 187.417969 L 194.835938 183.964844 L 202.40625 179.417969 L 207.1875 180.351562 L 204.722656 187.390625 L 205.996094 187.792969 L 206.699219 188.011719 L 209 181.285156 L 219.214844 184.710938 L 215.933594 195.820312 L 216.925781 196.332031 L 217.75 196.753906 L 221.359375 185.332031 L 233.882812 189.535156 L 216.472656 228.042969 L 184.996094 218.582031 L 184.695312 219.4375 L 184.347656 220.429688 L 232.996094 235.28125 L 203.933594 318.5625 L 167.746094 309.359375 L 173.550781 290.394531 L 172.679688 290.148438 L 171.929688 289.9375 L 165.964844 308.59375 L 148.453125 303.847656 L 152.59375 289.675781 L 151.066406 289.078125 L 149.261719 288.371094 L 144.722656 302.46875 L 125.429688 297.113281 L 129.476562 284.621094 L 130.921875 281.574219 L 131.847656 277.308594 L 152.820312 212.628906 L 153.488281 210.777344 L 154.449219 207.605469 Z M 159.101562 193.25 " transform="matrix(1,0,0,1,-74,-13)"/>
<path style="fill-rule:nonzero;fill:rgb(39.99939%,39.99939%,39.99939%);fill-opacity:1;stroke-width:0.03;stroke-linecap:square;stroke-linejoin:miter;stroke:rgb(39.99939%,39.99939%,39.99939%);stroke-opacity:1;stroke-miterlimit:3.239307;" d="M 254.558594 196.109375 L 271.695312 201.554688 L 248.585938 250.9375 L 232.265625 246.199219 Z M 254.558594 196.109375 " transform="matrix(1,0,0,1,-74,-13)"/>
<path style="fill-rule:nonzero;fill:rgb(39.99939%,39.99939%,39.99939%);fill-opacity:1;stroke-width:0.03;stroke-linecap:square;stroke-linejoin:miter;stroke:rgb(39.99939%,39.99939%,39.99939%);stroke-opacity:1;stroke-miterlimit:3.239307;" d="M 236.03125 189.835938 L 252.34375 195.128906 L 235.753906 232.535156 L 219.277344 227.398438 Z M 236.03125 189.835938 " transform="matrix(1,0,0,1,-74,-13)"/>
<path style="fill-rule:nonzero;fill:rgb(39.99939%,39.99939%,39.99939%);fill-opacity:1;stroke-width:0.03;stroke-linecap:square;stroke-linejoin:miter;stroke:rgb(39.99939%,39.99939%,39.99939%);stroke-opacity:1;stroke-miterlimit:3.239307;" d="M 264.945312 123.394531 L 302.242188 136.3125 L 273.664062 198.273438 L 257.601562 193.292969 L 260.625 186.992188 L 259.289062 186.5625 L 257.949219 186.136719 L 255.03125 192.023438 L 236.566406 186.261719 L 246.507812 164.347656 L 249.828125 155.667969 L 252.6875 155.121094 L 256.476562 142.457031 L 260.484375 131.082031 L 262.632812 126.6875 Z M 264.945312 123.394531 " transform="matrix(1,0,0,1,-74,-13)"/>
<path style="fill-rule:nonzero;fill:rgb(39.99939%,39.99939%,39.99939%);fill-opacity:1;stroke-width:0.03;stroke-linecap:square;stroke-linejoin:miter;stroke:rgb(39.99939%,39.99939%,39.99939%);stroke-opacity:1;stroke-miterlimit:3.239307;" d="M 187.757812 107.890625 L 256.699219 129.609375 L 251.882812 142.394531 L 249.230469 151.710938 L 246.398438 156.320312 L 234.613281 186.347656 L 217.128906 181 L 220.371094 173.738281 L 219.890625 173.597656 L 219.285156 173.414062 L 215.960938 180.371094 L 208.953125 178.304688 L 212.429688 171.980469 L 211.628906 171.660156 L 210.960938 171.394531 L 207.328125 177.792969 L 198.8125 175.496094 L 198.515625 176.351562 L 198.148438 177.394531 L 200.75 178.242188 L 197.820312 180.714844 L 188.839844 185.308594 L 183.179688 186.742188 L 178.1875 187.222656 L 173.171875 187.570312 L 169.84375 188.679688 L 164.523438 191.691406 L 159.863281 191.226562 L 173.609375 148.023438 L 182.070312 122.429688 Z M 187.757812 107.890625 " transform="matrix(1,0,0,1,-74,-13)"/>
<path style="fill-rule:nonzero;fill:rgb(39.99939%,39.99939%,39.99939%);fill-opacity:1;stroke-width:0.03;stroke-linecap:square;stroke-linejoin:miter;stroke:rgb(39.99939%,39.99939%,39.99939%);stroke-opacity:1;stroke-miterlimit:3.239307;" d="M 191.78125 93.882812 L 187.503906 105.355469 L 187.269531 105.285156 Z M 191.78125 93.882812 " transform="matrix(1,0,0,1,-74,-13)"/>
<path style="fill-rule:nonzero;fill:rgb(39.99939%,39.99939%,39.99939%);fill-opacity:1;stroke-width:0.03;stroke-linecap:square;stroke-linejoin:miter;stroke:rgb(39.99939%,39.99939%,39.99939%);stroke-opacity:1;stroke-miterlimit:3.239307;" d="M 190.359375 104.941406 L 197.960938 84.3125 L 203.898438 75.039062 L 208.53125 68.613281 L 211.507812 65.320312 L 213.507812 65.8125 L 218.3125 68.632812 L 221.789062 71.453125 L 223.445312 73.648438 L 226.59375 76.308594 L 238.730469 81.195312 L 249.269531 84.988281 L 262.988281 88.785156 L 275.640625 91.839844 L 260.4375 126.945312 Z M 190.359375 104.941406 " transform="matrix(1,0,0,1,-74,-13)"/>
<path style="fill-rule:nonzero;fill:rgb(39.99939%,39.99939%,39.99939%);fill-opacity:1;stroke-width:0.03;stroke-linecap:square;stroke-linejoin:miter;stroke:rgb(39.99939%,39.99939%,39.99939%);stroke-opacity:1;stroke-miterlimit:3.239307;" d="M 277.671875 92.425781 L 318.648438 102.257812 L 309.976562 121.585938 L 289.925781 113.378906 L 289.75 114.109375 L 289.539062 114.992188 L 308.996094 122.859375 L 303.699219 133.710938 L 266.226562 120.4375 Z M 277.671875 92.425781 " transform="matrix(1,0,0,1,-74,-13)"/>
<path style="fill-rule:nonzero;fill:rgb(39.99939%,39.99939%,39.99939%);fill-opacity:1;stroke-width:0.03;stroke-linecap:square;stroke-linejoin:miter;stroke:rgb(39.99939%,39.99939%,39.99939%);stroke-opacity:1;stroke-miterlimit:3.239307;" d="M 159.503906 202.078125 L 162.964844 202.933594 L 162.613281 204.28125 L 164.015625 204.628906 L 164.367188 203.28125 L 167.25 204.03125 L 164.714844 212.929688 L 166.117188 213.277344 L 166.46875 211.929688 L 170.109375 212.832031 L 168.46875 219.125 L 164.828125 218.222656 L 165.179688 216.875 L 163.777344 216.527344 L 163.425781 217.875 L 159.964844 217.019531 L 162.269531 208.027344 L 161.34375 207.828125 L 161.070312 209.164062 L 157.890625 208.261719 Z M 159.503906 202.078125 " transform="matrix(1,0,0,1,-74,-13)"/>
<path style="fill-rule:nonzero;fill:rgb(39.99939%,39.99939%,39.99939%);fill-opacity:1;stroke-width:0.03;stroke-linecap:square;stroke-linejoin:miter;stroke:rgb(39.99939%,39.99939%,39.99939%);stroke-opacity:1;stroke-miterlimit:3.239307;" d="M 202.363281 209.078125 L 205.792969 210.046875 L 205.394531 211.382812 L 206.78125 211.773438 L 207.179688 210.4375 L 210.785156 211.453125 L 209.839844 214.617188 L 208.921875 217.691406 L 205.320312 216.675781 L 205.71875 215.339844 L 204.328125 214.949219 L 203.929688 216.285156 L 200.5 215.316406 L 201.363281 212.425781 Z M 202.363281 209.078125 " transform="matrix(1,0,0,1,-74,-13)"/>
<path style="fill-rule:nonzero;fill:rgb(39.99939%,39.99939%,39.99939%);fill-opacity:1;stroke-width:0.03;stroke-linecap:square;stroke-linejoin:miter;stroke:rgb(39.99939%,39.99939%,39.99939%);stroke-opacity:1;stroke-miterlimit:3.239307;" d="M 177.464844 190.648438 L 180.933594 191.476562 L 180.59375 192.828125 L 182 193.164062 L 182.339844 191.8125 L 185.984375 192.683594 L 184.402344 198.992188 L 180.757812 198.121094 L 181.09375 196.769531 L 179.691406 196.433594 L 179.351562 197.785156 L 175.882812 196.957031 L 174.542969 202.714844 L 170.894531 201.84375 L 171.234375 200.492188 L 169.828125 200.15625 L 169.488281 201.507812 L 166.019531 200.679688 L 167.601562 194.371094 L 171.070312 195.199219 L 170.734375 196.550781 L 172.136719 196.886719 L 172.476562 195.535156 L 176.054688 196.261719 Z M 177.464844 190.648438 " transform="matrix(1,0,0,1,-74,-13)"/>
<path style="fill-rule:nonzero;fill:rgb(39.99939%,39.99939%,39.99939%);fill-opacity:1;stroke-width:0.03;stroke-linecap:square;stroke-linejoin:miter;stroke:rgb(39.99939%,39.99939%,39.99939%);stroke-opacity:1;stroke-miterlimit:3.239307;" d="M 191.640625 188.867188 L 195.070312 189.832031 L 194.671875 191.167969 L 195.367188 191.367188 L 196.0625 191.5625 L 196.460938 190.226562 L 200.066406 191.242188 L 196.03125 204.84375 L 192.425781 203.828125 L 192.824219 202.492188 L 192.082031 202.28125 L 191.4375 202.101562 L 191.039062 203.4375 L 187.609375 202.46875 Z M 191.640625 188.867188 " transform="matrix(1,0,0,1,-74,-13)"/>
<path style="fill-rule:nonzero;fill:rgb(39.99939%,39.99939%,39.99939%);fill-opacity:1;stroke-width:0.03;stroke-linecap:square;stroke-linejoin:miter;stroke:rgb(39.99939%,39.99939%,39.99939%);stroke-opacity:1;stroke-miterlimit:3.239307;" d="M 206.847656 194.035156 L 210.277344 195 L 209.878906 196.335938 L 211.265625 196.730469 L 211.664062 195.394531 L 215.269531 196.410156 L 213.40625 202.644531 L 209.800781 201.628906 L 210.203125 200.292969 L 208.8125 199.902344 L 208.414062 201.238281 L 204.984375 200.269531 Z M 206.847656 194.035156 " transform="matrix(1,0,0,1,-74,-13)"/>
<path style="fill-rule:nonzero;fill:rgb(39.99939%,39.99939%,39.99939%);fill-opacity:1;stroke-width:0.03;stroke-linecap:square;stroke-linejoin:miter;stroke:rgb(39.99939%,39.99939%,39.99939%);stroke-opacity:1;stroke-miterlimit:3.239307;" d="M 204.632812 201.441406 L 208.0625 202.410156 L 207.664062 203.746094 L 209.054688 204.136719 L 209.453125 202.800781 L 213.058594 203.820312 L 212.101562 207.027344 L 211.195312 210.054688 L 207.589844 209.039062 L 207.988281 207.703125 L 206.601562 207.308594 L 206.203125 208.644531 L 202.773438 207.679688 L 203.722656 204.496094 Z M 204.632812 201.441406 " transform="matrix(1,0,0,1,-74,-13)"/>
<path style="fill-rule:nonzero;fill:rgb(39.99939%,39.99939%,39.99939%);fill-opacity:1;stroke-width:0.03;stroke-linecap:square;stroke-linejoin:miter;stroke:rgb(39.99939%,39.99939%,39.99939%);stroke-opacity:1;stroke-miterlimit:3.239307;" d="M 231.011719 248.136719 L 247.285156 252.964844 L 245.335938 257.710938 L 242.261719 263.261719 L 239.027344 268.503906 L 234.820312 273.285156 L 229.640625 277.148438 L 224.460938 280.546875 L 222.84375 282.859375 L 218.46875 294.484375 L 211.378906 319.613281 L 207.8125 319.15625 Z M 231.011719 248.136719 " transform="matrix(1,0,0,1,-74,-13)"/>
<path style="fill-rule:nonzero;fill:rgb(39.99939%,39.99939%,39.99939%);fill-opacity:1;stroke-width:0.03;stroke-linecap:square;stroke-linejoin:miter;stroke:rgb(39.99939%,39.99939%,39.99939%);stroke-opacity:1;stroke-miterlimit:3.239307;" d="M 333.882812 221.367188 L 352.058594 227.132812 L 349.027344 237.425781 L 349.707031 237.574219 L 350.347656 237.714844 L 353.480469 227.515625 L 364.734375 230.671875 L 359.011719 249.324219 L 356.300781 258.855469 L 355.261719 264.019531 L 355.058594 268.984375 L 342.089844 264.042969 L 346.46875 250.136719 L 338.308594 247.171875 L 337.796875 248.339844 L 337.265625 249.554688 L 343.75 251.929688 L 339.371094 265.039062 L 354.640625 271.167969 L 354.230469 278.914062 L 352.984375 286.859375 L 348.324219 302.425781 L 240.949219 318.449219 L 244.105469 300.015625 L 243.601562 299.875 L 242.839844 299.660156 L 239.136719 318.644531 L 231.878906 319.621094 L 237.90625 297.671875 L 237.140625 297.625 L 236.179688 297.566406 L 230.066406 320.007812 L 214.441406 321.570312 L 224.238281 286.140625 L 225.691406 283.367188 L 227.472656 281.515625 L 230.0625 279.507812 L 234.433594 276.417969 L 238.15625 273.332031 L 242.523438 267.625 L 246.890625 260.839844 L 250.910156 254.257812 L 267.394531 259.054688 L 259.828125 273.957031 L 280.585938 280.179688 L 281.109375 279.019531 L 281.570312 277.988281 L 263.777344 272.367188 L 270.351562 260.148438 L 292.589844 266.386719 L 313.515625 272.453125 L 322.710938 249.441406 Z M 333.882812 221.367188 " transform="matrix(1,0,0,1,-74,-13)"/>
<path style="fill-rule:nonzero;fill:rgb(39.99939%,39.99939%,39.99939%);fill-opacity:1;stroke-width:0.03;stroke-linecap:square;stroke-linejoin:miter;stroke:rgb(39.99939%,39.99939%,39.99939%);stroke-opacity:1;stroke-miterlimit:3.239307;" d="M 314.34375 214.871094 L 332.289062 220.425781 L 313.175781 265.726562 L 300.820312 261.660156 L 299.207031 265.820312 L 292.371094 263.691406 Z M 314.34375 214.871094 " transform="matrix(1,0,0,1,-74,-13)"/>
<g clip-path="url(#clip13)" clip-rule="nonzero">
<path style=" stroke:none;fill-rule:evenodd;fill:rgb(85.096741%,85.096741%,81.959534%);fill-opacity:0.7;" d="M 232.699219 366 C 232.699219 361.304688 230.835938 356.804688 227.515625 353.484375 C 224.195312 350.164062 219.695312 348.300781 215 348.300781 C 210.304688 348.300781 205.804688 350.164062 202.484375 353.484375 C 199.164062 356.804688 197.300781 361.304688 197.300781 366 C 197.300781 370.695312 199.164062 375.195312 202.484375 378.515625 C 205.804688 381.835938 210.304688 383.699219 215 383.699219 C 219.695312 383.699219 224.195312 381.835938 227.515625 378.515625 C 230.835938 375.195312 232.699219 370.695312 232.699219 366 Z M 232.699219 366 "/>
</g>
<path style=" stroke:none;fill-rule:evenodd;fill:rgb(85.096741%,85.096741%,81.959534%);fill-opacity:0.7;" d="M 281.699219 69 C 281.699219 64.304688 279.835938 59.804688 276.515625 56.484375 C 273.195312 53.164062 268.695312 51.300781 264 51.300781 C 259.304688 51.300781 254.804688 53.164062 251.484375 56.484375 C 248.164062 59.804688 246.300781 64.304688 246.300781 69 C 246.300781 73.695312 248.164062 78.195312 251.484375 81.515625 C 254.804688 84.835938 259.304688 86.699219 264 86.699219 C 268.695312 86.699219 273.195312 84.835938 276.515625 81.515625 C 279.835938 78.195312 281.699219 73.695312 281.699219 69 Z M 281.699219 69 "/>
<path style=" stroke:none;fill-rule:evenodd;fill:rgb(85.096741%,85.096741%,81.959534%);fill-opacity:0.7;" d="M 163.699219 261 C 163.699219 256.304688 161.835938 251.804688 158.515625 248.484375 C 155.195312 245.164062 150.695312 243.300781 146 243.300781 C 141.304688 243.300781 136.804688 245.164062 133.484375 248.484375 C 130.164062 251.804688 128.300781 256.304688 128.300781 261 C 128.300781 265.695312 130.164062 270.195312 133.484375 273.515625 C 136.804688 276.835938 141.304688 278.699219 146 278.699219 C 150.695312 278.699219 155.195312 276.835938 158.515625 273.515625 C 161.835938 270.195312 163.699219 265.695312 163.699219 261 Z M 163.699219 261 "/>
<path style=" stroke:none;fill-rule:evenodd;fill:rgb(85.096741%,85.096741%,81.959534%);fill-opacity:0.7;" d="M 272.699219 84 C 272.699219 79.304688 270.835938 74.804688 267.515625 71.484375 C 264.195312 68.164062 259.695312 66.300781 255 66.300781 C 250.304688 66.300781 245.804688 68.164062 242.484375 71.484375 C 239.164062 74.804688 237.300781 79.304688 237.300781 84 C 237.300781 88.695312 239.164062 93.195312 242.484375 96.515625 C 245.804688 99.835938 250.304688 101.699219 255 101.699219 C 259.695312 101.699219 264.195312 99.835938 267.515625 96.515625 C 270.835938 93.195312 272.699219 88.695312 272.699219 84 Z M 272.699219 84 "/>
</g>
</svg>
