<?xml version="1.0" encoding="UTF-8"?>
<svg xmlns="http://www.w3.org/2000/svg" xmlns:xlink="http://www.w3.org/1999/xlink" width="361pt" height="361pt" viewBox="0 0 361 361" version="1.1">
<defs>
<clipPath id="clip1">
  <path d="M 349 265 L 360 265 L 360 290 L 349 290 Z M 349 265 "/>
</clipPath>
<clipPath id="clip2">
  <path d="M 1 318 L 74 318 L 74 360 L 1 360 Z M 1 318 "/>
</clipPath>
<clipPath id="clip3">
  <path d="M 117 346 L 147 346 L 147 360 L 117 360 Z M 117 346 "/>
</clipPath>
<clipPath id="clip4">
  <path d="M 131 348 L 164 348 L 164 360 L 131 360 Z M 131 348 "/>
</clipPath>
<clipPath id="clip5">
  <path d="M 59 340 L 97 340 L 97 360 L 59 360 Z M 59 340 "/>
</clipPath>
<clipPath id="clip6">
  <path d="M 0 333 L 8 333 L 8 360 L 0 360 Z M 0 333 "/>
</clipPath>
<clipPath id="clip7">
  <path d="M 154 348 L 177 348 L 177 360 L 154 360 Z M 154 348 "/>
</clipPath>
<clipPath id="clip8">
  <path d="M 92 330 L 123 330 L 123 360 L 92 360 Z M 92 330 "/>
</clipPath>
<clipPath id="clip9">
  <path d="M 201 298 L 249 298 L 249 360 L 201 360 Z M 201 298 "/>
</clipPath>
<clipPath id="clip10">
  <path d="M 230 322 L 275 322 L 275 360 L 230 360 Z M 230 322 "/>
</clipPath>
<clipPath id="clip11">
  <path d="M 197 357 L 247 357 L 247 360 L 197 360 Z M 197 357 "/>
</clipPath>
<clipPath id="clip12">
  <path d="M 177 348 L 194 348 L 194 360 L 177 360 Z M 177 348 "/>
</clipPath>
<clipPath id="clip13">
  <path d="M 193 349 L 205 349 L 205 360 L 193 360 Z M 193 349 "/>
</clipPath>
</defs>
<g id="surface8085">
<path style="fill-rule:nonzero;fill:rgb(0%,0%,0%);fill-opacity:1;stroke-width:0.03;stroke-linecap:square;stroke-linejoin:miter;stroke:rgb(0%,0%,0%);stroke-opacity:1;stroke-miterlimit:10;" d="M 0 178 L 360 178 L 360 -182 L 0 -182 Z M 0 178 " transform="matrix(1,0,0,1,0,182)"/>
<g clip-path="url(#clip1)" clip-rule="nonzero">
<path style=" stroke:none;fill-rule:nonzero;fill:rgb(39.99939%,39.99939%,39.99939%);fill-opacity:0.3;" d="M 349.199219 267.355469 L 352.898438 266.683594 L 355.976562 266.210938 L 359.382812 265.742188 L 360.9375 265.589844 L 362.96875 265.539062 L 365.886719 265.742188 L 369.960938 266.316406 L 372.253906 266.574219 L 374.347656 267.03125 L 376.503906 267.617188 L 376.277344 269.898438 L 375.824219 271.480469 L 374.734375 273.042969 L 373.347656 275.015625 L 372.398438 276.339844 L 371.484375 277.703125 L 370.472656 280.515625 L 370.484375 285.761719 L 369.351562 288.390625 L 368.816406 289.210938 L 367.238281 289.296875 L 357.972656 282.199219 L 356.175781 282.25 L 355.507812 280.011719 L 354.914062 278.316406 L 354.074219 275.929688 L 353.417969 274.34375 L 352.320312 272.261719 L 351.566406 270.933594 L 350.378906 269.097656 L 349.34375 267.539062 Z M 349.199219 267.355469 "/>
</g>
<path style=" stroke:none;fill-rule:nonzero;fill:rgb(39.99939%,39.99939%,39.99939%);fill-opacity:0.3;" d="M 259.878906 235.863281 L 258.078125 235.925781 L 255.945312 236.558594 L 254.011719 238.207031 L 252.546875 240.105469 L 251.679688 241.433594 L 250.34375 241.75 L 234.738281 232.070312 L 232.996094 242.761719 L 232.476562 254.777344 L 227.242188 254.585938 L 227.597656 250.941406 L 227.34375 250.914062 L 227.089844 250.890625 L 226.707031 254.566406 L 213.519531 254.085938 L 213.960938 239.90625 L 214.515625 227.371094 L 215.164062 202.824219 L 214.722656 184.835938 L 220.34375 164.3125 L 222.0625 167.472656 L 223.761719 170.566406 L 225.050781 173.011719 L 226.890625 176.5 L 228.714844 179.835938 L 229.890625 182.144531 L 232.34375 186.539062 L 234.449219 190.40625 L 236.960938 195.042969 L 238.332031 197.730469 L 239.863281 200.523438 L 241.242188 203.378906 L 242.902344 206.203125 L 244.300781 208.730469 L 246.09375 211.808594 L 247.613281 214.058594 L 249.199219 216.144531 L 251.222656 218.738281 L 253.425781 221.21875 L 255.824219 223.691406 L 259.09375 226.917969 L 262.945312 230.785156 L 263.640625 233.351562 L 262.71875 234.835938 L 261.355469 235.71875 Z M 259.878906 235.863281 "/>
<path style=" stroke:none;fill-rule:nonzero;fill:rgb(39.99939%,39.99939%,39.99939%);fill-opacity:0.3;" d="M 250.410156 243.019531 L 252.011719 242.574219 L 253.414062 240.675781 L 254.613281 238.777344 L 256.4375 237.242188 L 258.144531 236.710938 L 259.90625 236.761719 L 262.285156 236.601562 L 263.523438 235.367188 L 265.460938 233.28125 L 266.117188 233.925781 L 267.4375 235.230469 L 266.757812 237.851562 L 267.460938 238.042969 L 267.484375 238.777344 L 268.890625 239.054688 L 268.710938 240.84375 L 265.40625 240.921875 L 265.363281 241.199219 L 265.324219 241.476562 L 266.019531 241.46875 L 268.871094 241.617188 L 269.6875 242.21875 L 269.6875 242.800781 L 273.714844 242.757812 L 273.773438 242.367188 L 273.835938 241.980469 L 270.253906 241.808594 L 270.3125 239.53125 L 269.1875 238.515625 L 268.144531 238.28125 L 268.4375 236.097656 L 269.78125 237.167969 L 271.246094 238.226562 L 272.695312 239.167969 L 273.890625 239.800781 L 275.46875 240.628906 L 277.933594 241.632812 L 282.519531 243.042969 L 286.238281 244.011719 L 291.402344 245.371094 L 298.285156 247.078125 L 307.859375 249.636719 L 311.113281 250.460938 L 310.882812 252.578125 L 308.925781 254.726562 L 306.867188 255.527344 L 305.179688 255.511719 L 303.210938 255.433594 L 303.183594 255.832031 L 303.152344 256.226562 L 306.90625 256.332031 L 309.402344 255.355469 L 311.328125 253.117188 L 313.871094 254.179688 L 320.363281 257.269531 L 320.050781 259.40625 L 319.894531 262.492188 L 319.457031 266.824219 L 317.347656 269.832031 L 315.199219 270.914062 L 312.808594 271.855469 L 310.875 272.222656 L 309.386719 272.589844 L 308.558594 274.527344 L 307.503906 274.726562 L 305.9375 274.261719 L 302.734375 272.839844 L 303.824219 269.351562 L 303.285156 269.195312 L 302.058594 272.488281 L 297.488281 270.316406 L 295.488281 269.539062 L 293.773438 269 L 291.597656 268.410156 L 289.3125 267.871094 L 287.003906 267.496094 L 285.21875 267.347656 L 283.585938 267.394531 L 282.097656 267.558594 L 279.921875 267.90625 L 280.429688 258.652344 L 275.667969 257.65625 L 275.976562 255.308594 L 275.234375 255.25 L 274.496094 255.191406 L 274.1875 258.421875 L 279.257812 259.535156 L 278.84375 268.074219 L 278.097656 268.191406 L 275.765625 268.5625 L 272.894531 268.980469 L 269.167969 269.550781 L 264.601562 270.289062 L 261.824219 270.660156 L 258.480469 270.90625 L 255.300781 271.074219 L 252.964844 270.984375 L 250 270.867188 L 243.476562 270.238281 L 232.8125 269.324219 L 233.949219 242.726562 L 235.234375 233.570312 Z M 250.410156 243.019531 "/>
<path style=" stroke:none;fill-rule:nonzero;fill:rgb(39.99939%,39.99939%,39.99939%);fill-opacity:0.3;" d="M 282.320312 303.179688 L 284.90625 304.457031 L 284.640625 304.382812 L 282.453125 303.46875 Z M 282.320312 303.179688 "/>
<path style=" stroke:none;fill-rule:nonzero;fill:rgb(39.99939%,39.99939%,39.99939%);fill-opacity:0.3;" d="M 247.34375 296.941406 L 247.5625 296.386719 L 248.320312 294.125 L 248.738281 292.101562 L 249.652344 290.03125 L 249.296875 289.984375 L 248.941406 289.933594 L 248.03125 291.957031 L 247.523438 294.21875 L 246.648438 296.402344 L 246.460938 296.964844 L 229.539062 297.421875 L 231.039062 292.886719 L 232.125 289.113281 L 232.441406 284.675781 L 239.074219 285.082031 L 256.707031 286.007812 L 258.46875 286.886719 L 255.304688 296.730469 Z M 247.34375 296.941406 "/>
<path style=" stroke:none;fill-rule:nonzero;fill:rgb(39.99939%,39.99939%,39.99939%);fill-opacity:0.3;" d="M 333.65625 282.359375 L 333.4375 280.695312 L 333.382812 279.554688 L 333.453125 277.796875 L 333.15625 277.574219 L 332.917969 277.148438 L 332.917969 276.359375 L 333.101562 275.285156 L 333.101562 274.765625 L 333.261719 274.027344 L 333.535156 273.59375 L 333.628906 273.269531 L 333.535156 273.03125 L 332.578125 271.769531 L 332.085938 270.878906 L 335.570312 270.015625 L 341.183594 268.890625 L 345.652344 268 L 347.402344 267.683594 L 347.996094 268.425781 L 348.988281 269.921875 L 350.144531 271.710938 L 350.863281 272.980469 L 351.917969 274.980469 L 352.53125 276.460938 L 353.359375 278.808594 L 353.9375 280.457031 L 354.507812 282.25 L 353.054688 281.996094 L 351.398438 281.882812 L 349.488281 281.882812 L 347.558594 281.527344 L 345.386719 282.257812 L 340.550781 286.578125 L 339.152344 286.789062 L 337.386719 286.371094 L 336.132812 286.160156 L 335.3125 286.644531 L 335.304688 286.335938 L 335.300781 285.996094 L 335.027344 285.113281 L 333.875 283.503906 Z M 333.65625 282.359375 "/>
<path style=" stroke:none;fill-rule:nonzero;fill:rgb(39.99939%,39.99939%,39.99939%);fill-opacity:0.3;" d="M 315.121094 253.816406 L 311.988281 252.277344 L 312.128906 250.75 L 313.316406 251.058594 L 318.140625 252.152344 L 322.460938 253.296875 L 326.496094 254.480469 L 328.792969 255.1875 L 331 255.960938 L 332.960938 256.753906 L 334.914062 257.71875 L 336.546875 258.652344 L 338.574219 259.882812 L 340.367188 261.125 L 341.78125 262.140625 L 343.273438 263.378906 L 344.667969 264.589844 L 345.703125 265.644531 L 346.332031 266.378906 L 340.863281 267.453125 L 335.214844 268.585938 L 329.4375 270.019531 L 327.335938 270.628906 L 325.890625 271.179688 L 323.941406 272.023438 L 321.070312 273.230469 L 319.488281 273.902344 L 317.738281 274.527344 L 316.035156 275.152344 L 314.636719 275.523438 L 313.554688 275.710938 L 312.164062 275.769531 L 310.484375 275.542969 L 309.523438 275.300781 L 310.035156 273.28125 L 312.953125 272.511719 L 315.628906 271.433594 L 317.828125 270.519531 L 320.066406 267.078125 L 320.632812 262.585938 L 320.703125 259.601562 L 321.058594 256.527344 Z M 315.121094 253.816406 "/>
<path style=" stroke:none;fill-rule:nonzero;fill:rgb(39.99939%,39.99939%,39.99939%);fill-opacity:0.3;" d="M 274.199219 293.121094 L 265.359375 288.746094 L 257.933594 285.101562 L 259.515625 278.75 L 261.097656 272.1875 L 261.992188 272.121094 L 264.835938 271.742188 L 269.421875 271 L 273.136719 270.433594 L 276.011719 270.011719 L 278.351562 269.640625 L 282.3125 269.015625 L 283.699219 268.863281 L 285.175781 268.816406 L 286.808594 268.957031 L 288.992188 269.308594 L 291.199219 269.832031 L 293.316406 270.40625 L 294.949219 270.917969 L 296.851562 271.65625 L 299.132812 272.726562 L 300.980469 273.710938 L 300.242188 275.222656 L 298.773438 276.722656 L 296.871094 279.433594 L 295.253906 281.429688 L 293.265625 283.050781 L 290.441406 285.433594 L 288.734375 287.390625 L 277.261719 283.523438 L 276.917969 284.644531 Z M 274.199219 293.121094 "/>
<path style=" stroke:none;fill-rule:nonzero;fill:rgb(39.99939%,39.99939%,39.99939%);fill-opacity:0.3;" d="M 332.796875 273.324219 L 332.527344 273.753906 L 332.324219 274.691406 L 332.324219 275.226562 L 332.140625 276.300781 L 332.140625 277.335938 L 332.542969 278.054688 L 332.660156 278.144531 L 332.601562 279.558594 L 332.660156 280.761719 L 332.886719 282.472656 L 333.140625 283.789062 L 334.3125 285.433594 L 334.519531 286.105469 L 334.523438 286.351562 L 334.554688 287.273438 L 316.589844 306.847656 L 314.273438 307.371094 L 302.03125 302.949219 L 301.871094 303.472656 L 299.398438 302.921875 L 295.933594 302.742188 L 292.835938 305.65625 L 292.253906 305.691406 L 289.511719 304.324219 L 287.191406 303.285156 L 283.625 301.894531 L 281.261719 299.539062 L 279.996094 298.449219 L 278.808594 296.546875 L 276.667969 295.261719 L 275.535156 293.929688 L 278.09375 284.867188 L 288.097656 288.253906 L 289.171875 288.632812 L 290.996094 286.636719 L 293.582031 284.109375 L 295.757812 282.300781 L 297.570312 280.152344 L 298.113281 279.488281 L 299.765625 277.476562 L 301.984375 275.40625 L 303.269531 274.757812 L 305.394531 275.636719 L 308.433594 276.546875 L 310.175781 276.984375 L 312.089844 277.242188 L 313.730469 277.171875 L 314.984375 276.957031 L 316.523438 276.546875 L 318.289062 275.898438 L 320.078125 275.261719 L 321.699219 274.570312 L 324.574219 273.363281 L 326.496094 272.53125 L 327.851562 272.015625 L 329.859375 271.433594 L 331.308594 271.074219 L 331.914062 272.164062 Z M 332.796875 273.324219 "/>
<path style=" stroke:none;fill-rule:nonzero;fill:rgb(39.99939%,39.99939%,39.99939%);fill-opacity:0.3;" d="M 219.253906 162.238281 L 217.90625 167.203125 L 216.300781 155.460938 L 216.980469 156.996094 L 217.996094 159.375 L 218.890625 161.527344 Z M 219.253906 162.238281 "/>
<path style=" stroke:none;fill-rule:nonzero;fill:rgb(39.99939%,39.99939%,39.99939%);fill-opacity:0.3;" d="M 212.253906 249.789062 L 212.136719 254 L 211.992188 253.996094 Z M 212.253906 249.789062 "/>
<path style=" stroke:none;fill-rule:nonzero;fill:rgb(39.99939%,39.99939%,39.99939%);fill-opacity:0.3;" d="M 213.472656 255.125 L 232.433594 255.71875 L 231.851562 269.242188 L 228.246094 268.929688 L 224.375 268.617188 L 218.519531 268.199219 L 214.328125 267.832031 L 213.160156 267.726562 L 213.261719 259.914062 Z M 213.472656 255.125 "/>
<path style=" stroke:none;fill-rule:nonzero;fill:rgb(39.99939%,39.99939%,39.99939%);fill-opacity:0.3;" d="M 213.011719 269.289062 L 214.183594 269.292969 L 218.390625 269.660156 L 224.25 270.078125 L 228.109375 270.394531 L 234.324219 270.929688 L 233.757812 278.71875 L 232.386719 281.265625 L 230.792969 283.335938 L 212.699219 282.769531 L 212.9375 275.871094 Z M 213.011719 269.289062 "/>
<path style=" stroke:none;fill-rule:nonzero;fill:rgb(39.99939%,39.99939%,39.99939%);fill-opacity:0.3;" d="M 235.734375 271.050781 L 243.328125 271.703125 L 249.890625 272.335938 L 252.902344 272.453125 L 255.3125 272.546875 L 258.585938 272.375 L 259.996094 272.269531 L 258.507812 278.484375 L 256.832031 284.769531 L 232.191406 283.414062 L 233.34375 281.832031 L 234.773438 278.945312 L 235.308594 275.835938 Z M 235.734375 271.050781 "/>
<path style=" stroke:none;fill-rule:nonzero;fill:rgb(39.99939%,39.99939%,39.99939%);fill-opacity:0.3;" d="M 212.597656 283.714844 L 230.636719 284.574219 L 230.816406 289.144531 L 229.714844 292.535156 L 227.796875 296.929688 L 212.109375 296.441406 L 212.53125 289.347656 Z M 212.597656 283.714844 "/>
<path style=" stroke:none;fill-rule:nonzero;fill:rgb(39.99939%,39.99939%,39.99939%);fill-opacity:0.3;" d="M 27.117188 331.75 L 32.632812 331.167969 L 36.183594 330.636719 L 39.691406 330.539062 L 43.222656 330.792969 L 42.867188 340.933594 L 43.769531 340.976562 L 43.519531 348.660156 L 33.449219 348.554688 L 28.097656 348.429688 L 27.71875 339.550781 Z M 27.117188 331.75 "/>
<g clip-path="url(#clip2)" clip-rule="nonzero">
<path style=" stroke:none;fill-rule:nonzero;fill:rgb(39.99939%,39.99939%,39.99939%);fill-opacity:0.3;" d="M 72.574219 329.996094 L 73.054688 337.6875 L 72.898438 341.894531 L 72.742188 346.402344 L 72.148438 350.230469 L 70.226562 350.515625 L 50.65625 351.1875 L 50.6875 352.007812 L 70.3125 351.335938 L 72.011719 351.082031 L 71.476562 354.367188 L 70.6875 357.222656 L 69.132812 360.402344 L 66.144531 365.660156 L 63.675781 370.800781 L 61.296875 373.121094 L 45.570312 369.164062 L 45.5 369.515625 L 45.425781 369.863281 L 60.609375 373.90625 L 58.683594 376.636719 L 49.644531 374.996094 L 42.285156 373.25 L 36.871094 371.804688 L 35.1875 372.003906 L 33.085938 372.054688 L 31.242188 371.671875 L 24.117188 370.769531 L 20.363281 370.132812 L 15.875 373.714844 L 14.585938 373.152344 L 13.371094 372.363281 L 12.027344 371.875 L 12.023438 369.144531 L 12.441406 366.164062 L 12.40625 362.460938 L 9.800781 358.617188 L 4.066406 357.902344 L 4.105469 354.710938 L 4.863281 351.648438 L 1.765625 349.90625 L 2.832031 345.097656 L 5.953125 342.46875 L 7.917969 338.925781 L 8.699219 334.699219 L 19.308594 335.375 L 19.152344 347.695312 L 19.117188 349.011719 L 44.457031 349.273438 L 44.652344 344.230469 L 44.753906 340.269531 L 44.003906 340.277344 L 44.460938 330.652344 L 45.9375 329.78125 L 48.042969 328.988281 L 50.863281 327.777344 L 56.089844 325.820312 L 62.394531 323.289062 L 67.078125 320.878906 L 69.554688 319.640625 L 71.882812 318.941406 Z M 72.574219 329.996094 "/>
</g>
<path style=" stroke:none;fill-rule:nonzero;fill:rgb(39.99939%,39.99939%,39.99939%);fill-opacity:0.3;" d="M 118.40625 293.824219 L 111.75 293.492188 L 111.75 293.476562 Z M 118.40625 293.824219 "/>
<path style=" stroke:none;fill-rule:nonzero;fill:rgb(39.99939%,39.99939%,39.99939%);fill-opacity:0.3;" d="M 74.066406 295.527344 L 73.089844 295.664062 L 70.316406 297 L 72.746094 295.453125 Z M 74.066406 295.527344 "/>
<g clip-path="url(#clip3)" clip-rule="nonzero">
<path style=" stroke:none;fill-rule:nonzero;fill:rgb(39.99939%,39.99939%,39.99939%);fill-opacity:0.3;" d="M 117.566406 346.433594 L 141.875 347.324219 L 140.882812 352.4375 L 139.582031 355.292969 L 138.945312 356.339844 L 138.332031 357.410156 L 138.769531 357.453125 L 139.210938 357.496094 L 139.703125 356.558594 L 140.253906 355.417969 L 141.460938 352.667969 L 142.535156 347.332031 L 146.285156 347.566406 L 146.085938 355.957031 L 143.824219 358.535156 L 141.53125 361.417969 L 133.464844 366.691406 L 129.457031 368.25 L 123.75 370.019531 L 117.941406 352.746094 L 123.578125 353.105469 L 123.625 352.425781 L 117.65625 351.882812 Z M 117.566406 346.433594 "/>
</g>
<path style=" stroke:none;fill-rule:nonzero;fill:rgb(39.99939%,39.99939%,39.99939%);fill-opacity:0.3;" d="M 168.65625 296.265625 L 197.214844 297.007812 L 194.839844 320.097656 L 168.613281 319.667969 L 171.777344 306.3125 L 169.4375 306.253906 Z M 168.65625 296.265625 "/>
<g clip-path="url(#clip4)" clip-rule="nonzero">
<path style=" stroke:none;fill-rule:nonzero;fill:rgb(39.99939%,39.99939%,39.99939%);fill-opacity:0.3;" d="M 131.847656 396.453125 L 133.632812 392.128906 L 134.785156 388.863281 L 137.53125 383.640625 L 141.144531 378.125 L 143.480469 372.542969 L 144.117188 369.582031 L 144.628906 367.023438 L 144.710938 365.132812 L 144.804688 363.886719 L 144.339844 362.820312 L 142.484375 361.511719 L 146.832031 356.347656 L 148.621094 356.773438 L 150.21875 357.21875 L 152.960938 357.390625 L 154.695312 357.210938 L 155.757812 356.636719 L 156.976562 355.265625 L 158.070312 353.144531 L 159.257812 350.5 L 159.570312 348.089844 L 161.535156 348.167969 L 163.128906 348.230469 L 162.523438 349.832031 L 161.722656 349.777344 L 161.238281 349.980469 L 158.519531 356.675781 L 157.28125 359.460938 L 153.800781 362.921875 L 150.855469 366.035156 L 149.898438 370.707031 L 148.542969 372.867188 L 146.414062 375.996094 L 145.875 378.359375 L 146.484375 383.277344 L 145.308594 385.863281 L 144.617188 392.621094 L 143.234375 393.953125 L 141.480469 395.277344 L 139.976562 399.355469 L 137.9375 398.796875 L 134.964844 397.710938 Z M 131.847656 396.453125 "/>
</g>
<path style=" stroke:none;fill-rule:nonzero;fill:rgb(39.99939%,39.99939%,39.99939%);fill-opacity:0.3;" d="M 118.886719 318.820312 L 127.382812 319.519531 L 136.964844 320.074219 L 147.621094 320.140625 L 147.28125 332.785156 L 128.15625 331.9375 L 113.847656 330.898438 Z M 118.886719 318.820312 "/>
<path style=" stroke:none;fill-rule:nonzero;fill:rgb(39.99939%,39.99939%,39.99939%);fill-opacity:0.3;" d="M 102.335938 317.792969 L 117.480469 318.878906 L 111.972656 330.792969 L 99.992188 329.253906 Z M 102.335938 317.792969 "/>
<path style=" stroke:none;fill-rule:nonzero;fill:rgb(39.99939%,39.99939%,39.99939%);fill-opacity:0.3;" d="M 74.152344 316.40625 L 100.992188 317.253906 L 98.765625 329.320312 L 80.476562 328.917969 L 75.027344 328.597656 L 73.359375 328.039062 L 72.9375 318.667969 L 73.265625 317.097656 Z M 74.152344 316.40625 "/>
<path style=" stroke:none;fill-rule:nonzero;fill:rgb(39.99939%,39.99939%,39.99939%);fill-opacity:0.3;" d="M 73.542969 329.425781 L 91.691406 329.925781 L 87.894531 336.050781 L 75.582031 345.453125 L 74.136719 345.613281 Z M 73.542969 329.425781 "/>
<path style=" stroke:none;fill-rule:nonzero;fill:rgb(39.99939%,39.99939%,39.99939%);fill-opacity:0.3;" d="M 85.402344 339.703125 L 89.179688 336.402344 L 92.996094 329.890625 L 98.570312 330.089844 L 98.855469 340.539062 L 98.925781 344.621094 L 99 347.367188 L 98.707031 352.222656 L 97.566406 357.441406 L 95.640625 354.800781 L 92.761719 351.386719 L 88.839844 343.570312 L 87.082031 343.417969 Z M 85.402344 339.703125 "/>
<g clip-path="url(#clip5)" clip-rule="nonzero">
<path style=" stroke:none;fill-rule:nonzero;fill:rgb(39.99939%,39.99939%,39.99939%);fill-opacity:0.3;" d="M 87.71875 383.921875 L 83.523438 382.660156 L 85.890625 374.796875 L 81.367188 375.046875 L 77.96875 375.09375 L 73.820312 376.707031 L 69.324219 379.070312 L 59.621094 377.050781 L 65.328125 371.371094 L 67.320312 366.164062 L 71.503906 360.203125 L 73.199219 355.28125 L 73.695312 352.15625 L 74.007812 348.402344 L 77.78125 345.910156 L 83.367188 354.519531 L 84.460938 353.761719 L 78.976562 345.058594 L 84.5625 340.507812 L 86.757812 345.238281 L 88.453125 345.238281 L 91.84375 352.332031 L 96.84375 358.421875 L 92.632812 367.941406 Z M 87.71875 383.921875 "/>
</g>
<path style=" stroke:none;fill-rule:nonzero;fill:rgb(39.99939%,39.99939%,39.99939%);fill-opacity:0.3;" d="M 149.039062 306.464844 L 161.394531 306.96875 L 163.910156 319.566406 L 148.691406 319.253906 Z M 149.039062 306.464844 "/>
<path style=" stroke:none;fill-rule:nonzero;fill:rgb(39.99939%,39.99939%,39.99939%);fill-opacity:0.3;" d="M 162.828125 306.863281 L 166.886719 306.875 L 169.285156 306.925781 L 166.632812 319.625 L 164.996094 319.589844 Z M 162.828125 306.863281 "/>
<path style=" stroke:none;fill-rule:nonzero;fill:rgb(39.99939%,39.99939%,39.99939%);fill-opacity:0.3;" d="M 106.246094 304.21875 L 120.953125 305.625 L 117.421875 317.414062 L 102.855469 316.242188 Z M 106.246094 304.21875 "/>
<path style=" stroke:none;fill-rule:nonzero;fill:rgb(39.99939%,39.99939%,39.99939%);fill-opacity:0.3;" d="M 9.535156 323.304688 L 9.425781 320.570312 L 10.058594 317.75 L 11.257812 315.359375 L 12.007812 313.894531 L 13.015625 312.507812 L 13.617188 311.601562 L 15.003906 310.511719 L 19.445312 311.113281 L 19.472656 310.882812 L 19.503906 310.652344 L 15.335938 310.054688 L 18.144531 308.417969 L 22.492188 308.988281 L 22.492188 308.386719 L 18.75 307.875 L 25.066406 302.902344 L 28.527344 301.40625 L 30.671875 302.320312 L 31.933594 303.652344 L 32.226562 303.742188 L 31.332031 306.636719 L 34.269531 308.332031 L 34.421875 308.105469 L 34.570312 307.878906 L 32.019531 306.410156 L 32.789062 303.917969 L 39.476562 306 L 43.042969 307.417969 L 49.191406 308.101562 L 51.429688 308.570312 L 52.011719 308.414062 L 62.15625 309.542969 L 72.414062 315.976562 L 71.046875 318.078125 L 62.785156 321.867188 L 44.917969 328.929688 L 34.695312 329.363281 L 29.554688 330.230469 L 24.800781 330.355469 L 20.636719 332.335938 L 16.070312 329.667969 L 12.863281 327.421875 L 10.847656 325.515625 Z M 9.535156 323.304688 "/>
<g clip-path="url(#clip6)" clip-rule="nonzero">
<path style=" stroke:none;fill-rule:nonzero;fill:rgb(39.99939%,39.99939%,39.99939%);fill-opacity:0.3;" d="M -16.664062 335.824219 L -13.082031 334.972656 L -7.515625 333.9375 L -0.539062 333.390625 L 0.320312 333.4375 L 0.765625 335.484375 L 5.886719 335.832031 L 5.949219 337.164062 L 6.402344 337.078125 L 6.402344 335.234375 L 1.460938 334.746094 L 1.15625 333.539062 L 4.769531 333.691406 L 7.519531 333.996094 L 7.648438 335.089844 L 6.78125 338.675781 L 4.910156 341.964844 L 1.839844 344.457031 L 0.5 350.410156 L 3.710938 352.050781 L 2.816406 354.484375 L 2.992188 360.277344 L -7.640625 357.425781 L -17.9375 354.664062 L -20.5625 354.316406 L -22.449219 354.199219 L -24.292969 353.851562 L -24.417969 350.464844 L -25.117188 348.386719 L -24.859375 345.421875 L -23.058594 343.480469 L -21.011719 340.015625 L -19.414062 337.464844 Z M -16.664062 335.824219 "/>
</g>
<path style=" stroke:none;fill-rule:nonzero;fill:rgb(39.99939%,39.99939%,39.99939%);fill-opacity:0.3;" d="M 158.667969 348.054688 L 158.527344 350.457031 L 156.335938 354.917969 L 155.398438 356.015625 L 154.488281 356.542969 L 152.824219 356.699219 L 151.355469 356.605469 L 149.105469 356.234375 L 147.234375 355.6875 L 146.851562 355.042969 L 147.539062 347.613281 Z M 158.667969 348.054688 "/>
<g clip-path="url(#clip7)" clip-rule="nonzero">
<path style=" stroke:none;fill-rule:nonzero;fill:rgb(39.99939%,39.99939%,39.99939%);fill-opacity:0.3;" d="M 164.136719 348.269531 L 168.671875 348.300781 L 167.710938 361.425781 L 165.699219 361.390625 L 165.714844 361.753906 L 165.726562 362.121094 L 168.1875 362.121094 L 169.21875 348.320312 L 176.476562 348.59375 L 176.1875 362.785156 L 175.820312 368.433594 L 154.761719 362.878906 L 156.636719 361.019531 L 157.605469 359.875 L 161.601562 350.410156 L 162.800781 350.5 Z M 164.136719 348.269531 "/>
</g>
<path style=" stroke:none;fill-rule:nonzero;fill:rgb(39.99939%,39.99939%,39.99939%);fill-opacity:0.3;" d="M 132.792969 306.015625 L 132.660156 310.222656 L 135.011719 310.734375 L 135.023438 310.507812 L 135.035156 310.335938 L 133.207031 309.910156 L 133.25 306.042969 L 148.054688 306.4375 L 147.71875 319.21875 L 137.003906 319 L 127.304688 318.523438 L 119.164062 317.726562 L 122.535156 305.773438 Z M 132.792969 306.015625 "/>
<path style=" stroke:none;fill-rule:nonzero;fill:rgb(39.99939%,39.99939%,39.99939%);fill-opacity:0.3;" d="M 26.339844 300.074219 L 26.300781 300.550781 L 19.34375 305.972656 L 14.855469 301.828125 L 18.269531 299.824219 L 20.273438 298.367188 L 25.011719 300.007812 Z M 26.339844 300.074219 "/>
<path style=" stroke:none;fill-rule:nonzero;fill:rgb(39.99939%,39.99939%,39.99939%);fill-opacity:0.3;" d="M 26.859375 348.226562 L 20.59375 348.128906 L 21.164062 334.03125 L 23.535156 332.921875 L 25.59375 332.15625 L 26.238281 341.164062 Z M 26.859375 348.226562 "/>
<path style=" stroke:none;fill-rule:nonzero;fill:rgb(39.99939%,39.99939%,39.99939%);fill-opacity:0.3;" d="M 68.515625 298.902344 L 79.835938 299.09375 L 79.625 302.28125 L 79.410156 305.46875 L 91.144531 305.703125 L 91.683594 302.828125 L 104.972656 304.097656 L 101.972656 316.109375 L 75.476562 315.394531 L 62.71875 307.921875 L 55.257812 307.007812 L 56.101562 305.03125 L 60.460938 302.527344 L 64.824219 300.925781 Z M 68.515625 298.902344 "/>
<path style=" stroke:none;fill-rule:nonzero;fill:rgb(39.99939%,39.99939%,39.99939%);fill-opacity:0.3;" d="M 171.738281 295.402344 L 168.585938 295.320312 L 168.582031 295.269531 Z M 171.738281 295.402344 "/>
<path style=" stroke:none;fill-rule:nonzero;fill:rgb(39.99939%,39.99939%,39.99939%);fill-opacity:0.3;" d="M 68.515625 298.902344 L 73.441406 296.578125 L 78.527344 295.785156 L 79.121094 295.816406 L 80.988281 295.574219 L 87.882812 295.335938 L 93.988281 294.03125 L 99.859375 294.183594 L 124.136719 294.898438 L 121.304688 304.796875 L 103.464844 303.113281 L 91.722656 301.953125 L 91.464844 299.574219 L 79.835938 299.09375 Z M 68.515625 298.902344 "/>
<path style=" stroke:none;fill-rule:nonzero;fill:rgb(39.99939%,39.99939%,39.99939%);fill-opacity:0.3;" d="M 176.164062 320.753906 L 178.757812 320.8125 L 178.140625 330.300781 L 177.867188 333.023438 Z M 176.164062 320.753906 "/>
<path style=" stroke:none;fill-rule:nonzero;fill:rgb(39.99939%,39.99939%,39.99939%);fill-opacity:0.3;" d="M 160.929688 320.46875 L 174.269531 320.714844 L 177.234375 335.242188 L 176.558594 347.71875 L 159.472656 346.859375 L 160.070312 333.414062 L 162.878906 333.457031 L 162.875 333.292969 L 162.875 333.128906 L 160.078125 333.039062 Z M 160.929688 320.46875 "/>
<g clip-path="url(#clip8)" clip-rule="nonzero">
<path style=" stroke:none;fill-rule:nonzero;fill:rgb(39.99939%,39.99939%,39.99939%);fill-opacity:0.3;" d="M 99.769531 330.15625 L 107.375 331.148438 L 106.648438 335.929688 L 107.25 335.992188 L 107.933594 331.1875 L 113.171875 331.761719 L 114.800781 338.851562 L 111.382812 339.121094 L 111.402344 339.332031 L 111.417969 339.539062 L 114.90625 339.257812 L 116.316406 345.011719 L 116.644531 352.808594 L 112.152344 348.300781 L 111.75 348.460938 L 111.351562 348.621094 L 117.105469 354.601562 L 122.257812 369.847656 L 121.621094 372.671875 L 120.421875 374.777344 L 118.445312 377.738281 L 117.242188 379.769531 L 104.890625 376.816406 L 92.457031 372.289062 L 94.570312 365.878906 L 103.210938 368.421875 L 103.402344 367.980469 L 103.597656 367.539062 L 94.949219 364.945312 L 97.789062 359.425781 L 112.460938 364.84375 L 112.742188 363.972656 L 113.023438 363.105469 L 98.527344 357.402344 L 99.503906 352.984375 L 108.042969 356.277344 L 108.144531 356.042969 L 108.246094 355.8125 L 99.585938 352.285156 L 99.742188 348.746094 L 104.136719 349.074219 L 108.800781 347.421875 L 108.53125 347.0625 L 108.257812 346.703125 L 103.703125 348.144531 L 99.789062 347.644531 L 100.011719 342.46875 L 103.171875 342.117188 L 103.132812 341.554688 L 99.9375 341.734375 Z M 99.769531 330.15625 "/>
</g>
<path style=" stroke:none;fill-rule:nonzero;fill:rgb(39.99939%,39.99939%,39.99939%);fill-opacity:0.3;" d="M 114.070312 331.988281 L 147.210938 333.648438 L 146.589844 346.535156 L 117.835938 345.308594 Z M 114.070312 331.988281 "/>
<path style=" stroke:none;fill-rule:nonzero;fill:rgb(39.99939%,39.99939%,39.99939%);fill-opacity:0.3;" d="M 148.054688 333.703125 L 159.050781 333.992188 L 158.632812 346.859375 L 147.496094 346.570312 Z M 148.054688 333.703125 "/>
<path style=" stroke:none;fill-rule:nonzero;fill:rgb(39.99939%,39.99939%,39.99939%);fill-opacity:0.3;" d="M 148.730469 320.164062 L 160.304688 320.425781 L 159.074219 333.289062 L 148.167969 332.898438 Z M 148.730469 320.164062 "/>
<path style=" stroke:none;fill-rule:nonzero;fill:rgb(39.99939%,39.99939%,39.99939%);fill-opacity:0.3;" d="M 69.34375 275.699219 L 72.566406 272.222656 L 75.707031 270.347656 L 78.796875 269.625 L 81.933594 269.480469 L 86.292969 270.488281 L 96.621094 274.027344 L 130.332031 284.039062 L 124.535156 294.128906 L 118.40625 293.824219 L 111.75 293.476562 L 112.363281 286.492188 L 96.902344 277.191406 L 96.625 277.625 L 96.351562 278.0625 L 111.453125 287.140625 L 110.824219 293.445312 L 100.367188 292.882812 L 97.132812 292.730469 L 95.160156 292.851562 L 93.386719 293.195312 L 87.882812 294.328125 L 79.339844 294.796875 L 74.066406 295.527344 L 72.746094 295.453125 L 70.316406 297 L 68.144531 298.042969 L 55.007812 303.941406 L 53.921875 307.09375 L 52.03125 306.910156 L 52.886719 304.5625 L 55.074219 303.289062 L 57.804688 300.917969 L 60.539062 297.09375 L 63.816406 287.617188 Z M 69.34375 275.699219 "/>
<path style=" stroke:none;fill-rule:nonzero;fill:rgb(39.99939%,39.99939%,39.99939%);fill-opacity:0.3;" d="M 84.824219 269.207031 L 89.363281 269.089844 L 96.730469 268.726562 L 108.414062 267.394531 L 115.292969 263.738281 L 119.359375 258.121094 L 120.929688 254.425781 L 121.777344 253.457031 L 123.214844 252.484375 L 131.675781 247.304688 L 138.035156 242.648438 L 139.570312 239.617188 L 139.9375 239.164062 L 140.398438 238.777344 L 140.976562 238.59375 L 141.660156 238.554688 L 142.5625 238.636719 L 150.722656 240.046875 L 158.046875 239.59375 L 149.0625 255.28125 L 134.152344 277.683594 L 116.414062 272.117188 L 113.667969 277.488281 Z M 84.824219 269.207031 "/>
<path style=" stroke:none;fill-rule:nonzero;fill:rgb(39.99939%,39.99939%,39.99939%);fill-opacity:0.3;" d="M 162.15625 296.097656 L 168.65625 296.265625 L 169.4375 306.253906 L 162.117188 306.0625 Z M 162.15625 296.097656 "/>
<path style=" stroke:none;fill-rule:nonzero;fill:rgb(39.99939%,39.99939%,39.99939%);fill-opacity:0.3;" d="M 166.886719 306.875 L 169.296875 306.882812 L 169.285156 306.925781 Z M 166.886719 306.875 "/>
<path style=" stroke:none;fill-rule:nonzero;fill:rgb(39.99939%,39.99939%,39.99939%);fill-opacity:0.3;" d="M 51.503906 308.359375 L 52.011719 308.414062 L 51.429688 308.570312 Z M 51.503906 308.359375 "/>
<path style=" stroke:none;fill-rule:nonzero;fill:rgb(39.99939%,39.99939%,39.99939%);fill-opacity:0.3;" d="M 217.90625 167.203125 L 214.652344 179.222656 L 209.558594 162.003906 L 205.550781 147.511719 L 202.429688 140.179688 L 198.214844 132.484375 L 192.171875 124.339844 L 191.078125 117.53125 L 191.078125 111.015625 L 191.230469 104.058594 L 192.140625 96.132812 L 192.992188 93.789062 L 194.324219 92.101562 L 196.117188 97.199219 L 200.070312 108.785156 L 201.910156 114.335938 L 204.035156 120.578125 L 205.566406 125.359375 L 207.359375 130.382812 L 208.652344 134.179688 L 210.011719 138.316406 L 211.769531 143.289062 L 213.105469 147.171875 L 214.308594 150.570312 L 215.546875 153.757812 L 216.300781 155.460938 Z M 217.90625 167.203125 "/>
<path style=" stroke:none;fill-rule:nonzero;fill:rgb(39.99939%,39.99939%,39.99939%);fill-opacity:0.3;" d="M 213.605469 180.261719 L 213.164062 184.554688 L 213.757812 202.894531 L 212.871094 227.484375 L 212.253906 249.789062 L 211.992188 253.996094 L 196.929688 253.585938 L 197.574219 241.027344 L 196.773438 232.929688 L 197.566406 222.609375 L 198.082031 205.984375 L 197.507812 192.523438 L 197.792969 166.492188 L 197.144531 161.460938 L 195.5625 149.777344 L 193.625 136.109375 L 192.542969 126.359375 L 197.121094 133.148438 L 201.023438 140.625 L 204.300781 147.953125 L 207.257812 158.34375 Z M 213.605469 180.261719 "/>
<path style=" stroke:none;fill-rule:nonzero;fill:rgb(39.99939%,39.99939%,39.99939%);fill-opacity:0.3;" d="M 183.898438 211.972656 L 192.851562 200.683594 L 196.359375 196.125 L 196.578125 206.121094 L 196.34375 222.609375 L 195.390625 233.183594 L 196.246094 240.523438 L 195.863281 253.554688 L 181.738281 253.144531 Z M 183.898438 211.972656 "/>
<path style=" stroke:none;fill-rule:nonzero;fill:rgb(39.99939%,39.99939%,39.99939%);fill-opacity:0.3;" d="M 166.25 240.015625 L 166.691406 238.632812 L 166.804688 235.398438 L 169.769531 230.4375 L 181.800781 214.644531 L 179.878906 267.503906 L 164.90625 267.460938 Z M 166.25 240.015625 "/>
<path style=" stroke:none;fill-rule:nonzero;fill:rgb(39.99939%,39.99939%,39.99939%);fill-opacity:0.3;" d="M 161.007812 238.339844 L 164.8125 238.214844 L 163.773438 267.460938 L 149.285156 267.167969 L 149.730469 257.453125 Z M 161.007812 238.339844 "/>
<path style=" stroke:none;fill-rule:nonzero;fill:rgb(39.99939%,39.99939%,39.99939%);fill-opacity:0.3;" d="M 148.234375 266.824219 L 143.84375 266.640625 L 143.507812 266.234375 L 143.578125 265.710938 L 148.503906 258.511719 Z M 148.234375 266.824219 "/>
<path style=" stroke:none;fill-rule:nonzero;fill:rgb(39.99939%,39.99939%,39.99939%);fill-opacity:0.3;" d="M 142.625 267.5625 L 147.921875 267.90625 L 147.984375 280.871094 L 133.824219 280.671875 Z M 142.625 267.5625 "/>
<path style=" stroke:none;fill-rule:nonzero;fill:rgb(39.99939%,39.99939%,39.99939%);fill-opacity:0.3;" d="M 148.808594 268.074219 L 163.410156 268.574219 L 162.945312 281.109375 L 148.898438 280.902344 Z M 148.808594 268.074219 "/>
<path style=" stroke:none;fill-rule:nonzero;fill:rgb(39.99939%,39.99939%,39.99939%);fill-opacity:0.3;" d="M 164.359375 268.464844 L 180.589844 268.402344 L 180.210938 281.207031 L 164.003906 281.007812 Z M 164.359375 268.464844 "/>
<path style=" stroke:none;fill-rule:nonzero;fill:rgb(39.99939%,39.99939%,39.99939%);fill-opacity:0.3;" d="M 196.863281 254.730469 L 211.71875 255.125 L 211.613281 262.035156 L 211.464844 267.574219 L 210.832031 267.515625 L 207.152344 267.300781 L 202.832031 267.085938 L 199.113281 267.042969 L 196.160156 266.957031 L 196.503906 261.03125 Z M 196.863281 254.730469 "/>
<path style=" stroke:none;fill-rule:nonzero;fill:rgb(39.99939%,39.99939%,39.99939%);fill-opacity:0.3;" d="M 182.332031 268.972656 L 183.359375 268.945312 L 186.855469 268.6875 L 191.207031 268.414062 L 193.878906 268.363281 L 195.007812 268.394531 L 194.714844 281.746094 L 181.953125 281.253906 Z M 182.332031 268.972656 "/>
<path style=" stroke:none;fill-rule:nonzero;fill:rgb(39.99939%,39.99939%,39.99939%);fill-opacity:0.3;" d="M 195.96875 268.421875 L 199.082031 268.511719 L 202.78125 268.554688 L 207.0625 268.765625 L 210.710938 268.980469 L 211.914062 269.089844 L 211.632812 282.703125 L 195.542969 281.746094 Z M 195.96875 268.421875 "/>
<path style=" stroke:none;fill-rule:nonzero;fill:rgb(39.99939%,39.99939%,39.99939%);fill-opacity:0.3;" d="M 114.488281 277.632812 L 116.914062 272.945312 L 133.757812 278.3125 L 131.15625 282.8125 Z M 114.488281 277.632812 "/>
<path style=" stroke:none;fill-rule:nonzero;fill:rgb(39.99939%,39.99939%,39.99939%);fill-opacity:0.3;" d="M 134.878906 281.589844 L 148.078125 281.945312 L 147.964844 294.859375 L 126.0625 294.214844 L 132.890625 281.734375 Z M 134.878906 281.589844 "/>
<path style=" stroke:none;fill-rule:nonzero;fill:rgb(39.99939%,39.99939%,39.99939%);fill-opacity:0.3;" d="M 148.851562 281.945312 L 162.753906 282.105469 L 161.800781 295.144531 L 148.796875 294.800781 Z M 148.851562 281.945312 "/>
<path style=" stroke:none;fill-rule:nonzero;fill:rgb(39.99939%,39.99939%,39.99939%);fill-opacity:0.3;" d="M 163.605469 282.148438 L 179.941406 282.507812 L 179.640625 295.609375 L 171.738281 295.402344 L 168.582031 295.269531 L 168.585938 295.320312 L 162.660156 295.167969 Z M 163.605469 282.148438 "/>
<path style=" stroke:none;fill-rule:nonzero;fill:rgb(39.99939%,39.99939%,39.99939%);fill-opacity:0.3;" d="M 181.976562 282.445312 L 194.492188 282.957031 L 194.082031 295.964844 L 181.433594 295.625 Z M 181.976562 282.445312 "/>
<path style=" stroke:none;fill-rule:nonzero;fill:rgb(39.99939%,39.99939%,39.99939%);fill-opacity:0.3;" d="M 195.765625 282.800781 L 211.613281 283.660156 L 211.703125 289.242188 L 211.328125 296.4375 L 195.230469 295.980469 Z M 195.765625 282.800781 "/>
<path style=" stroke:none;fill-rule:nonzero;fill:rgb(39.99939%,39.99939%,39.99939%);fill-opacity:0.3;" d="M 78.527344 295.785156 L 79.53125 295.625 L 80.988281 295.574219 L 79.121094 295.816406 Z M 78.527344 295.785156 "/>
<path style=" stroke:none;fill-rule:nonzero;fill:rgb(39.99939%,39.99939%,39.99939%);fill-opacity:0.3;" d="M 125.832031 295.152344 L 148.019531 295.792969 L 148.066406 305.535156 L 123.101562 304.585938 Z M 125.832031 295.152344 "/>
<path style=" stroke:none;fill-rule:nonzero;fill:rgb(39.99939%,39.99939%,39.99939%);fill-opacity:0.3;" d="M 149.054688 295.753906 L 161.308594 296.074219 L 161.160156 306.035156 L 149.023438 305.535156 Z M 149.054688 295.753906 "/>
<path style=" stroke:none;fill-rule:nonzero;fill:rgb(39.99939%,39.99939%,39.99939%);fill-opacity:0.3;" d="M 181.671875 254.214844 L 195.804688 254.628906 L 195.101562 266.925781 L 193.886719 266.890625 L 191.140625 266.945312 L 186.746094 267.222656 L 183.277344 267.476562 L 181.304688 267.527344 Z M 181.671875 254.214844 "/>
<path style=" stroke:none;fill-rule:nonzero;fill:rgb(39.99939%,39.99939%,39.99939%);fill-opacity:0.3;" d="M 139.964844 118.679688 L 138.535156 118.480469 L 136.9375 118.363281 L 135.347656 118.242188 L 133.371094 118.214844 L 131.953125 118.242188 L 130.246094 118.375 L 128.71875 118.566406 L 127.386719 118.816406 L 125.707031 119.261719 L 125.613281 119.296875 L 131.632812 111.386719 L 134.710938 109.960938 L 140.746094 107.054688 L 145.425781 104.925781 L 149.054688 101.527344 L 151.144531 98.03125 L 152.246094 93.558594 L 153.136719 87.652344 L 153.335938 82.878906 L 161.304688 72.410156 L 187.785156 115.28125 L 190.964844 126.628906 L 192.757812 140.910156 L 196.289062 164.976562 L 195.792969 193.382812 L 194.863281 196.308594 L 181.449219 212.066406 L 166.558594 232.132812 L 166.402344 232.183594 L 166.164062 232.199219 L 165.925781 232.164062 L 165.355469 232.007812 L 164.757812 231.804688 L 163.945312 231.53125 L 163.246094 231.363281 L 162.589844 231.21875 L 162.027344 231.125 L 161.308594 231.109375 L 160.394531 231.113281 L 159.472656 231.035156 L 158.019531 230.574219 L 157.1875 230.117188 L 156.4375 229.152344 L 156.15625 228.507812 L 156.074219 228.085938 L 156.070312 227.585938 L 156.136719 227.074219 L 156.253906 226.5 L 156.433594 225.976562 L 156.703125 225.386719 L 157.015625 224.933594 L 157.441406 224.375 L 157.925781 223.875 L 160.457031 221.445312 L 164.136719 217.609375 L 167.210938 213.886719 L 171.09375 209.011719 L 173.589844 205.90625 L 175.136719 203.761719 L 176.628906 201.632812 L 178.195312 199.042969 L 179.453125 196.835938 L 180.511719 194.910156 L 181.886719 191.914062 L 182.527344 190.300781 L 183.21875 188.316406 L 183.628906 186.6875 L 183.855469 184.933594 L 183.902344 182.027344 L 183.6875 179.664062 L 183.359375 176.832031 L 182.976562 174.496094 L 182.441406 172.285156 L 182.117188 170.480469 L 181.957031 168.714844 L 181.859375 166.4375 L 181.957031 164.65625 L 182.097656 163.089844 L 182.175781 160.628906 L 182.121094 157.984375 L 181.898438 155.796875 L 181.511719 153.726562 L 181.0625 152.285156 L 180.441406 150.945312 L 179.363281 149.339844 L 178.3125 148.441406 L 176.992188 147.605469 L 176.105469 146.960938 L 175.046875 146.058594 L 174.265625 145.316406 L 173.300781 144.183594 L 171.53125 141.992188 L 170.355469 140.160156 L 169.355469 138.019531 L 168.207031 136.097656 L 167.117188 134.390625 L 166.085938 132.949219 L 164.828125 131.136719 L 163.421875 129.519531 L 161.851562 128.1875 L 160.40625 127.324219 L 159.265625 126.8125 L 157.820312 126.328125 L 156.34375 125.875 L 155.070312 125.542969 L 153.960938 125.335938 L 152.875 125.179688 L 151.886719 124.945312 L 150.847656 124.476562 L 149.753906 123.683594 L 148.1875 122.589844 L 146.648438 121.578125 L 145.226562 120.785156 L 143.949219 120.058594 L 142.605469 119.453125 L 141.257812 118.996094 Z M 139.964844 118.679688 "/>
<path style=" stroke:none;fill-rule:nonzero;fill:rgb(39.99939%,39.99939%,39.99939%);fill-opacity:0.3;" d="M 180.007812 51.429688 L 180.582031 52.449219 L 181.199219 54.46875 L 182.285156 57.410156 L 183.789062 61.390625 L 186.316406 68.648438 L 187.976562 73.375 L 189.578125 78.449219 L 191.113281 82.667969 L 191.542969 90.234375 L 190.78125 98.964844 L 190.082031 104.371094 L 189.796875 108.199219 L 189.597656 114.789062 L 162.546875 70.808594 Z M 180.007812 51.429688 "/>
<g clip-path="url(#clip9)" clip-rule="nonzero">
<path style=" stroke:none;fill-rule:nonzero;fill:rgb(39.99939%,39.99939%,39.99939%);fill-opacity:0.3;" d="M 219.179688 309.128906 L 221.324219 306.730469 L 223.378906 304.414062 L 225.214844 302.347656 L 226.535156 300.578125 L 228.449219 298.078125 L 232.304688 299.183594 L 243.6875 301.902344 L 247.535156 304.125 L 248.710938 305.191406 L 247.648438 311.167969 L 245.210938 319.195312 L 244.175781 321.984375 L 242.21875 327.339844 L 241.242188 332.875 L 239.917969 336.964844 L 237.929688 340.578125 L 235.777344 344.980469 L 233.296875 348.597656 L 231.746094 351.777344 L 229.632812 354.851562 L 227.453125 358.527344 L 225.976562 361 L 223.863281 363.539062 L 219.90625 367.851562 L 217.113281 371.160156 L 214.9375 371.847656 L 209.996094 370.226562 L 207.675781 369.429688 L 201.824219 367.554688 L 202.019531 365.1875 L 206.652344 361.253906 L 210.761719 356.496094 L 210.40625 356.292969 L 210.050781 356.09375 L 206.035156 360.761719 L 202.207031 364.21875 L 204.707031 357.9375 L 205.621094 350.28125 L 208.386719 336.347656 L 209.964844 323.246094 L 214.074219 323.597656 L 213.558594 325.757812 L 215.578125 330.59375 L 216.34375 330.234375 L 214.449219 325.617188 L 214.894531 323.925781 L 217.332031 324.4375 L 229.125 328.066406 L 228.414062 329.65625 L 227.175781 331.707031 L 225.417969 334.0625 L 222.65625 336.78125 L 220.199219 338.457031 L 220.539062 338.828125 L 220.875 339.199219 L 223.230469 337.628906 L 226.121094 335.007812 L 228 332.542969 L 229.570312 330.011719 L 230.863281 327.484375 L 232.839844 324.15625 L 234.195312 321.867188 L 236.300781 319.578125 L 238.082031 317.113281 L 238.488281 314.117188 L 237.355469 313.710938 L 236.910156 316.292969 L 233.246094 315.132812 L 233.042969 315.953125 L 236.503906 317.210938 L 234.34375 319.578125 L 232.988281 321.292969 L 231.632812 323.441406 L 229.273438 327.058594 L 215.226562 322.792969 L 215.828125 319.4375 L 216.488281 315.320312 L 217.714844 311.855469 L 218.269531 310.855469 Z M 219.179688 309.128906 "/>
</g>
<path style=" stroke:none;fill-rule:nonzero;fill:rgb(39.99939%,39.99939%,39.99939%);fill-opacity:0.3;" d="M 273.613281 294.640625 L 275.730469 298.3125 L 274.75 301.828125 L 275.15625 301.933594 L 275.566406 302.042969 L 276.789062 298.8125 L 280.699219 302.308594 L 279.613281 305.269531 L 280.152344 305.441406 L 280.691406 305.609375 L 281.605469 302.828125 L 282.320312 303.179688 L 282.453125 303.46875 L 284.640625 304.382812 L 284.90625 304.457031 L 290.023438 306.976562 L 291.015625 318.226562 L 278.625 322.601562 L 274.246094 329.386719 L 273.589844 327.566406 L 269.242188 326.570312 L 261.3125 325.144531 L 245.351562 322.328125 L 246.609375 318.15625 L 267.558594 323.925781 L 267.59375 323.613281 L 267.628906 323.304688 L 246.8125 317.714844 L 247.613281 315.246094 L 256.167969 317.089844 L 256.226562 316.78125 L 256.285156 316.476562 L 247.878906 314.613281 L 248.644531 312.050781 L 265.398438 315.710938 L 265.476562 315.457031 L 265.550781 315.203125 L 248.679688 311.113281 L 249.449219 305.84375 L 249.824219 305.566406 L 250.367188 305.605469 L 251.414062 306.28125 L 252.6875 307.085938 L 255.183594 307.949219 L 258.574219 308.539062 L 261.171875 308.78125 L 262.007812 308.542969 L 265.003906 306.949219 L 264.78125 306.714844 L 264.558594 306.476562 L 261.085938 308.027344 L 259.035156 307.945312 L 255.601562 307.328125 L 253.429688 306.554688 L 252.65625 306.234375 L 250.738281 305.058594 L 250.046875 304.566406 L 248.191406 303.414062 L 244.433594 300.910156 L 246.003906 299.609375 L 246.917969 298.019531 L 247.34375 296.941406 L 255.304688 296.730469 L 258.46875 286.886719 L 264.914062 290.109375 Z M 273.613281 294.640625 "/>
<g clip-path="url(#clip10)" clip-rule="nonzero">
<path style=" stroke:none;fill-rule:nonzero;fill:rgb(39.99939%,39.99939%,39.99939%);fill-opacity:0.3;" d="M 266.445312 361.613281 L 266.292969 360.328125 L 265.144531 358.726562 L 261.167969 358.105469 L 260.589844 357.945312 L 259.878906 357.902344 L 255.359375 357.191406 L 250.90625 357.023438 L 249.109375 356.308594 L 248.824219 357.113281 L 248.609375 357.128906 L 247.394531 358.730469 L 239.382812 357.589844 L 230.539062 356.386719 L 231.875 353.640625 L 235.007812 348.902344 L 236.980469 345.59375 L 239.417969 341.074219 L 241.160156 337.546875 L 242.433594 333.027344 L 243.480469 327.84375 L 245.121094 322.894531 L 261.253906 325.734375 L 269.066406 327.304688 L 273.089844 328.207031 L 273.765625 329.890625 L 274.007812 329.753906 L 272.976562 331.347656 L 270.429688 336.992188 L 269.515625 341.367188 L 269.335938 346.648438 Z M 266.445312 361.613281 "/>
</g>
<path style=" stroke:none;fill-rule:nonzero;fill:rgb(39.99939%,39.99939%,39.99939%);fill-opacity:0.3;" d="M 246.460938 296.964844 L 246.207031 297.730469 L 243.253906 300.863281 L 241.429688 300.722656 L 238.203125 299.871094 L 229.515625 297.5 L 229.539062 297.421875 Z M 246.460938 296.964844 "/>
<g clip-path="url(#clip11)" clip-rule="nonzero">
<path style=" stroke:none;fill-rule:nonzero;fill:rgb(39.99939%,39.99939%,39.99939%);fill-opacity:0.3;" d="M 218.765625 387.078125 L 220.429688 382.007812 L 220.265625 381.277344 L 219.082031 379.664062 L 217.796875 377.222656 L 217.488281 375.660156 L 217.332031 373.707031 L 217.875 372.578125 L 218.40625 371.769531 L 220.558594 368.78125 L 224.78125 364.472656 L 226.820312 362 L 228.71875 359.328125 L 230.335938 357.242188 L 239.34375 358.480469 L 246.871094 359.585938 L 246.257812 361.667969 L 244.535156 367.46875 L 239.28125 366.050781 L 237.058594 370.929688 L 238.019531 371.335938 L 239.847656 367.085938 L 244.363281 368.339844 L 242.785156 374.121094 L 242.1875 375.800781 L 240.214844 381.902344 L 237.875 381.773438 L 235.667969 381.382812 L 233.488281 380.363281 L 230.898438 378.511719 L 229.667969 377.078125 L 228.792969 374.957031 L 228.835938 372.75 L 229.230469 371.460938 L 229.738281 370.683594 L 229.1875 370.480469 L 228.636719 370.28125 L 227.769531 371.902344 L 227.414062 373.523438 L 227.515625 375.289062 L 228.230469 377.273438 L 229.8125 379.183594 L 232.667969 381.3125 L 235.308594 382.332031 L 238.132812 382.988281 L 240.929688 383.339844 L 238.21875 390.332031 L 233.589844 390.027344 L 236.40625 401.34375 L 237.402344 404.945312 L 237.402344 406.949219 L 237.015625 408.082031 L 232.714844 408.414062 L 229.980469 412.421875 L 229.183594 414.496094 L 229.011719 414.386719 L 227.457031 413.621094 L 224.910156 412.558594 L 220.996094 411.277344 L 220.039062 413.640625 L 219.109375 415 L 217.914062 415.242188 L 216.496094 415 L 214.945312 414.941406 L 213.453125 415.589844 L 212.640625 416.523438 L 212.304688 417.453125 L 211.0625 417.488281 L 209.515625 417.984375 L 207.921875 419 L 207.445312 419.953125 L 203 420.285156 L 201.832031 420.3125 L 199.671875 420.460938 L 199.007812 413.699219 L 198.96875 410.222656 L 200.492188 403.214844 L 202.984375 404.191406 L 205.96875 405.984375 L 206.914062 407.023438 L 208.050781 409.101562 L 208.273438 410.035156 L 208.578125 410.015625 L 208.878906 410 L 208.707031 408.925781 L 208.167969 407.753906 L 207.523438 406.628906 L 206.613281 405.585938 L 203.648438 403.699219 L 202.382812 403.1875 L 204.835938 399.707031 L 204.195312 399.417969 L 201.625 402.933594 L 198.875 401.855469 L 198.832031 398.25 L 200.542969 399.160156 L 200.789062 398.691406 L 201.035156 398.226562 L 200.304688 397.835938 L 211.03125 400.398438 L 213.402344 391.105469 L 215.40625 380.902344 L 204.835938 383.273438 L 197.269531 382.226562 L 197.339844 381.210938 L 197.8125 379.019531 L 199.015625 374.183594 L 199.28125 372.09375 L 201.53125 368.46875 L 216.316406 373.582031 L 216.199219 374.976562 L 209.253906 376.734375 L 209.414062 377.113281 L 209.578125 377.488281 L 216.410156 375.742188 L 217.128906 377.417969 L 218.414062 380.25 L 219.703125 381.765625 L 217.949219 386.90625 L 218.359375 386.992188 Z M 218.765625 387.078125 "/>
</g>
<path style=" stroke:none;fill-rule:nonzero;fill:rgb(39.99939%,39.99939%,39.99939%);fill-opacity:0.3;" d="M 212.171875 297.457031 L 227.183594 297.789062 L 225.207031 300.675781 L 223.210938 302.886719 L 220.992188 305.113281 L 218.78125 307.535156 L 217.457031 309.402344 L 216.8125 310.832031 L 216.007812 312.929688 L 215.316406 315.648438 L 214.617188 319.1875 L 214.160156 322.628906 L 210.132812 322.246094 L 210.457031 318.242188 Z M 212.171875 297.457031 "/>
<path style=" stroke:none;fill-rule:nonzero;fill:rgb(39.99939%,39.99939%,39.99939%);fill-opacity:0.3;" d="M 198.058594 307.738281 L 210.390625 308.058594 L 209.738281 316.027344 L 209.3125 321.480469 L 207.269531 336.171875 L 204.890625 348.835938 L 193.925781 348.347656 L 194.867188 330.351562 Z M 198.058594 307.738281 "/>
<g clip-path="url(#clip12)" clip-rule="nonzero">
<path style=" stroke:none;fill-rule:nonzero;fill:rgb(39.99939%,39.99939%,39.99939%);fill-opacity:0.3;" d="M 178.3125 348.847656 L 193.304688 349.421875 L 193.089844 361.359375 L 183.429688 361.148438 L 177.722656 360.910156 Z M 178.3125 348.847656 "/>
</g>
<path style=" stroke:none;fill-rule:nonzero;fill:rgb(39.99939%,39.99939%,39.99939%);fill-opacity:0.3;" d="M 179.109375 335.0625 L 193.5 335.488281 L 192.921875 348.363281 L 178.324219 347.785156 L 178.671875 340.945312 L 181.003906 341.011719 L 181.074219 339.277344 L 178.796875 339.050781 Z M 179.109375 335.0625 "/>
<path style=" stroke:none;fill-rule:nonzero;fill:rgb(39.99939%,39.99939%,39.99939%);fill-opacity:0.3;" d="M 279.996094 298.449219 L 277.675781 296.449219 L 276.667969 295.261719 L 278.808594 296.546875 Z M 279.996094 298.449219 "/>
<path style=" stroke:none;fill-rule:nonzero;fill:rgb(39.99939%,39.99939%,39.99939%);fill-opacity:0.3;" d="M 199.039062 297.054688 L 211.304688 297.4375 L 210.453125 307.320312 L 198.171875 307 Z M 199.039062 297.054688 "/>
<g clip-path="url(#clip13)" clip-rule="nonzero">
<path style=" stroke:none;fill-rule:nonzero;fill:rgb(39.99939%,39.99939%,39.99939%);fill-opacity:0.3;" d="M 194 349.449219 L 204.753906 349.875 L 203.65625 357.605469 L 201.9375 362.285156 L 200.84375 365.0625 L 200.179688 365.347656 L 199.839844 365 L 197.003906 360.679688 L 194.085938 361.535156 L 193.835938 361.507812 Z M 194 349.449219 "/>
</g>
<path style=" stroke:none;fill-rule:nonzero;fill:rgb(39.99939%,39.99939%,39.99939%);fill-opacity:0.3;" d="M 180.160156 321.039062 L 194.921875 321.566406 L 193.570312 334.492188 L 179.148438 334.066406 Z M 180.160156 321.039062 "/>
<path style=" stroke:none;fill-rule:nonzero;fill:rgb(39.99939%,39.99939%,39.99939%);fill-opacity:0.3;" d="M 178.140625 330.300781 L 177.933594 333.492188 L 177.867188 333.023438 Z M 178.140625 330.300781 "/>
<path style="fill-rule:nonzero;fill:rgb(39.99939%,39.99939%,39.99939%);fill-opacity:1;stroke-width:0.03;stroke-linecap:square;stroke-linejoin:miter;stroke:rgb(39.99939%,39.99939%,39.99939%);stroke-opacity:1;stroke-miterlimit:3.239307;" d="M 143.34375 288.699219 L 146.566406 285.222656 L 149.707031 283.347656 L 152.796875 282.625 L 155.933594 282.480469 L 160.292969 283.488281 L 170.621094 287.027344 L 204.332031 297.039062 L 198.535156 307.128906 L 192.40625 306.824219 L 185.75 306.476562 L 186.363281 299.492188 L 170.902344 290.191406 L 170.625 290.625 L 170.351562 291.0625 L 185.453125 300.140625 L 184.824219 306.445312 L 174.367188 305.882812 L 171.132812 305.730469 L 169.160156 305.851562 L 167.386719 306.195312 L 161.882812 307.328125 L 153.339844 307.796875 L 148.066406 308.527344 L 146.746094 308.453125 L 144.316406 310 L 142.144531 311.042969 L 129.007812 316.941406 L 127.921875 320.09375 L 126.03125 319.910156 L 126.886719 317.5625 L 129.074219 316.289062 L 131.804688 313.917969 L 134.539062 310.09375 L 137.816406 300.617188 Z M 143.34375 288.699219 " transform="matrix(1,0,0,1,-74,-13)"/>
<path style="fill-rule:nonzero;fill:rgb(39.99939%,39.99939%,39.99939%);fill-opacity:1;stroke-width:0.03;stroke-linecap:square;stroke-linejoin:miter;stroke:rgb(39.99939%,39.99939%,39.99939%);stroke-opacity:1;stroke-miterlimit:3.239307;" d="M 158.824219 282.207031 L 163.363281 282.089844 L 170.730469 281.726562 L 182.414062 280.394531 L 189.292969 276.738281 L 193.359375 271.121094 L 194.929688 267.425781 L 195.777344 266.457031 L 197.214844 265.484375 L 205.675781 260.304688 L 212.035156 255.648438 L 213.570312 252.617188 L 213.9375 252.164062 L 214.398438 251.777344 L 214.976562 251.59375 L 215.660156 251.554688 L 216.5625 251.636719 L 224.722656 253.046875 L 232.046875 252.59375 L 223.0625 268.28125 L 208.152344 290.683594 L 190.414062 285.117188 L 187.667969 290.488281 Z M 158.824219 282.207031 " transform="matrix(1,0,0,1,-74,-13)"/>
<path style="fill-rule:nonzero;fill:rgb(39.99939%,39.99939%,39.99939%);fill-opacity:1;stroke-width:0.03;stroke-linecap:square;stroke-linejoin:miter;stroke:rgb(39.99939%,39.99939%,39.99939%);stroke-opacity:1;stroke-miterlimit:3.239307;" d="M 236.15625 309.097656 L 242.65625 309.265625 L 243.4375 319.253906 L 236.117188 319.0625 Z M 236.15625 309.097656 " transform="matrix(1,0,0,1,-74,-13)"/>
<path style="fill-rule:nonzero;fill:rgb(39.99939%,39.99939%,39.99939%);fill-opacity:1;stroke-width:0.03;stroke-linecap:square;stroke-linejoin:miter;stroke:rgb(39.99939%,39.99939%,39.99939%);stroke-opacity:1;stroke-miterlimit:3.239307;" d="M 240.886719 319.875 L 243.296875 319.882812 L 243.285156 319.925781 Z M 240.886719 319.875 " transform="matrix(1,0,0,1,-74,-13)"/>
<path style="fill-rule:nonzero;fill:rgb(39.99939%,39.99939%,39.99939%);fill-opacity:1;stroke-width:0.03;stroke-linecap:square;stroke-linejoin:miter;stroke:rgb(39.99939%,39.99939%,39.99939%);stroke-opacity:1;stroke-miterlimit:3.239307;" d="M 125.503906 321.359375 L 126.011719 321.414062 L 125.429688 321.570312 Z M 125.503906 321.359375 " transform="matrix(1,0,0,1,-74,-13)"/>
<path style="fill-rule:nonzero;fill:rgb(39.99939%,39.99939%,39.99939%);fill-opacity:1;stroke-width:0.03;stroke-linecap:square;stroke-linejoin:miter;stroke:rgb(39.99939%,39.99939%,39.99939%);stroke-opacity:1;stroke-miterlimit:3.239307;" d="M 291.90625 180.203125 L 288.652344 192.222656 L 283.558594 175.003906 L 279.550781 160.511719 L 276.429688 153.179688 L 272.214844 145.484375 L 266.171875 137.339844 L 265.078125 130.53125 L 265.078125 124.015625 L 265.230469 117.058594 L 266.140625 109.132812 L 266.992188 106.789062 L 268.324219 105.101562 L 270.117188 110.199219 L 274.070312 121.785156 L 275.910156 127.335938 L 278.035156 133.578125 L 279.566406 138.359375 L 281.359375 143.382812 L 282.652344 147.179688 L 284.011719 151.316406 L 285.769531 156.289062 L 287.105469 160.171875 L 288.308594 163.570312 L 289.546875 166.757812 L 290.300781 168.460938 Z M 291.90625 180.203125 " transform="matrix(1,0,0,1,-74,-13)"/>
<path style="fill-rule:nonzero;fill:rgb(39.99939%,39.99939%,39.99939%);fill-opacity:1;stroke-width:0.03;stroke-linecap:square;stroke-linejoin:miter;stroke:rgb(39.99939%,39.99939%,39.99939%);stroke-opacity:1;stroke-miterlimit:3.239307;" d="M 287.605469 193.261719 L 287.164062 197.554688 L 287.757812 215.894531 L 286.871094 240.484375 L 286.253906 262.789062 L 285.992188 266.996094 L 270.929688 266.585938 L 271.574219 254.027344 L 270.773438 245.929688 L 271.566406 235.609375 L 272.082031 218.984375 L 271.507812 205.523438 L 271.792969 179.492188 L 271.144531 174.460938 L 269.5625 162.777344 L 267.625 149.109375 L 266.542969 139.359375 L 271.121094 146.148438 L 275.023438 153.625 L 278.300781 160.953125 L 281.257812 171.34375 Z M 287.605469 193.261719 " transform="matrix(1,0,0,1,-74,-13)"/>
<path style="fill-rule:nonzero;fill:rgb(39.99939%,39.99939%,39.99939%);fill-opacity:1;stroke-width:0.03;stroke-linecap:square;stroke-linejoin:miter;stroke:rgb(39.99939%,39.99939%,39.99939%);stroke-opacity:1;stroke-miterlimit:3.239307;" d="M 257.898438 224.972656 L 266.851562 213.683594 L 270.359375 209.125 L 270.578125 219.121094 L 270.34375 235.609375 L 269.390625 246.183594 L 270.246094 253.523438 L 269.863281 266.554688 L 255.738281 266.144531 Z M 257.898438 224.972656 " transform="matrix(1,0,0,1,-74,-13)"/>
<path style="fill-rule:nonzero;fill:rgb(39.99939%,39.99939%,39.99939%);fill-opacity:1;stroke-width:0.03;stroke-linecap:square;stroke-linejoin:miter;stroke:rgb(39.99939%,39.99939%,39.99939%);stroke-opacity:1;stroke-miterlimit:3.239307;" d="M 240.25 253.015625 L 240.691406 251.632812 L 240.804688 248.398438 L 243.769531 243.4375 L 255.800781 227.644531 L 253.878906 280.503906 L 238.90625 280.460938 Z M 240.25 253.015625 " transform="matrix(1,0,0,1,-74,-13)"/>
<path style="fill-rule:nonzero;fill:rgb(39.99939%,39.99939%,39.99939%);fill-opacity:1;stroke-width:0.03;stroke-linecap:square;stroke-linejoin:miter;stroke:rgb(39.99939%,39.99939%,39.99939%);stroke-opacity:1;stroke-miterlimit:3.239307;" d="M 235.007812 251.339844 L 238.8125 251.214844 L 237.773438 280.460938 L 223.285156 280.167969 L 223.730469 270.453125 Z M 235.007812 251.339844 " transform="matrix(1,0,0,1,-74,-13)"/>
<path style="fill-rule:nonzero;fill:rgb(39.99939%,39.99939%,39.99939%);fill-opacity:1;stroke-width:0.03;stroke-linecap:square;stroke-linejoin:miter;stroke:rgb(39.99939%,39.99939%,39.99939%);stroke-opacity:1;stroke-miterlimit:3.239307;" d="M 222.234375 279.824219 L 217.84375 279.640625 L 217.507812 279.234375 L 217.578125 278.710938 L 222.503906 271.511719 Z M 222.234375 279.824219 " transform="matrix(1,0,0,1,-74,-13)"/>
<path style="fill-rule:nonzero;fill:rgb(39.99939%,39.99939%,39.99939%);fill-opacity:1;stroke-width:0.03;stroke-linecap:square;stroke-linejoin:miter;stroke:rgb(39.99939%,39.99939%,39.99939%);stroke-opacity:1;stroke-miterlimit:3.239307;" d="M 216.625 280.5625 L 221.921875 280.90625 L 221.984375 293.871094 L 207.824219 293.671875 Z M 216.625 280.5625 " transform="matrix(1,0,0,1,-74,-13)"/>
<path style="fill-rule:nonzero;fill:rgb(39.99939%,39.99939%,39.99939%);fill-opacity:1;stroke-width:0.03;stroke-linecap:square;stroke-linejoin:miter;stroke:rgb(39.99939%,39.99939%,39.99939%);stroke-opacity:1;stroke-miterlimit:3.239307;" d="M 222.808594 281.074219 L 237.410156 281.574219 L 236.945312 294.109375 L 222.898438 293.902344 Z M 222.808594 281.074219 " transform="matrix(1,0,0,1,-74,-13)"/>
<path style="fill-rule:nonzero;fill:rgb(39.99939%,39.99939%,39.99939%);fill-opacity:1;stroke-width:0.03;stroke-linecap:square;stroke-linejoin:miter;stroke:rgb(39.99939%,39.99939%,39.99939%);stroke-opacity:1;stroke-miterlimit:3.239307;" d="M 238.359375 281.464844 L 254.589844 281.402344 L 254.210938 294.207031 L 238.003906 294.007812 Z M 238.359375 281.464844 " transform="matrix(1,0,0,1,-74,-13)"/>
<path style="fill-rule:nonzero;fill:rgb(39.99939%,39.99939%,39.99939%);fill-opacity:1;stroke-width:0.03;stroke-linecap:square;stroke-linejoin:miter;stroke:rgb(39.99939%,39.99939%,39.99939%);stroke-opacity:1;stroke-miterlimit:3.239307;" d="M 270.863281 267.730469 L 285.71875 268.125 L 285.613281 275.035156 L 285.464844 280.574219 L 284.832031 280.515625 L 281.152344 280.300781 L 276.832031 280.085938 L 273.113281 280.042969 L 270.160156 279.957031 L 270.503906 274.03125 Z M 270.863281 267.730469 " transform="matrix(1,0,0,1,-74,-13)"/>
<path style="fill-rule:nonzero;fill:rgb(39.99939%,39.99939%,39.99939%);fill-opacity:1;stroke-width:0.03;stroke-linecap:square;stroke-linejoin:miter;stroke:rgb(39.99939%,39.99939%,39.99939%);stroke-opacity:1;stroke-miterlimit:3.239307;" d="M 256.332031 281.972656 L 257.359375 281.945312 L 260.855469 281.6875 L 265.207031 281.414062 L 267.878906 281.363281 L 269.007812 281.394531 L 268.714844 294.746094 L 255.953125 294.253906 Z M 256.332031 281.972656 " transform="matrix(1,0,0,1,-74,-13)"/>
<path style="fill-rule:nonzero;fill:rgb(39.99939%,39.99939%,39.99939%);fill-opacity:1;stroke-width:0.03;stroke-linecap:square;stroke-linejoin:miter;stroke:rgb(39.99939%,39.99939%,39.99939%);stroke-opacity:1;stroke-miterlimit:3.239307;" d="M 269.96875 281.421875 L 273.082031 281.511719 L 276.78125 281.554688 L 281.0625 281.765625 L 284.710938 281.980469 L 285.914062 282.089844 L 285.632812 295.703125 L 269.542969 294.746094 Z M 269.96875 281.421875 " transform="matrix(1,0,0,1,-74,-13)"/>
<path style="fill-rule:nonzero;fill:rgb(39.99939%,39.99939%,39.99939%);fill-opacity:1;stroke-width:0.03;stroke-linecap:square;stroke-linejoin:miter;stroke:rgb(39.99939%,39.99939%,39.99939%);stroke-opacity:1;stroke-miterlimit:3.239307;" d="M 188.488281 290.632812 L 190.914062 285.945312 L 207.757812 291.3125 L 205.15625 295.8125 Z M 188.488281 290.632812 " transform="matrix(1,0,0,1,-74,-13)"/>
<path style="fill-rule:nonzero;fill:rgb(39.99939%,39.99939%,39.99939%);fill-opacity:1;stroke-width:0.03;stroke-linecap:square;stroke-linejoin:miter;stroke:rgb(39.99939%,39.99939%,39.99939%);stroke-opacity:1;stroke-miterlimit:3.239307;" d="M 208.878906 294.589844 L 222.078125 294.945312 L 221.964844 307.859375 L 200.0625 307.214844 L 206.890625 294.734375 Z M 208.878906 294.589844 " transform="matrix(1,0,0,1,-74,-13)"/>
<path style="fill-rule:nonzero;fill:rgb(39.99939%,39.99939%,39.99939%);fill-opacity:1;stroke-width:0.03;stroke-linecap:square;stroke-linejoin:miter;stroke:rgb(39.99939%,39.99939%,39.99939%);stroke-opacity:1;stroke-miterlimit:3.239307;" d="M 222.851562 294.945312 L 236.753906 295.105469 L 235.800781 308.144531 L 222.796875 307.800781 Z M 222.851562 294.945312 " transform="matrix(1,0,0,1,-74,-13)"/>
<path style="fill-rule:nonzero;fill:rgb(39.99939%,39.99939%,39.99939%);fill-opacity:1;stroke-width:0.03;stroke-linecap:square;stroke-linejoin:miter;stroke:rgb(39.99939%,39.99939%,39.99939%);stroke-opacity:1;stroke-miterlimit:3.239307;" d="M 237.605469 295.148438 L 253.941406 295.507812 L 253.640625 308.609375 L 245.738281 308.402344 L 242.582031 308.269531 L 242.585938 308.320312 L 236.660156 308.167969 Z M 237.605469 295.148438 " transform="matrix(1,0,0,1,-74,-13)"/>
<path style="fill-rule:nonzero;fill:rgb(39.99939%,39.99939%,39.99939%);fill-opacity:1;stroke-width:0.03;stroke-linecap:square;stroke-linejoin:miter;stroke:rgb(39.99939%,39.99939%,39.99939%);stroke-opacity:1;stroke-miterlimit:3.239307;" d="M 255.976562 295.445312 L 268.492188 295.957031 L 268.082031 308.964844 L 255.433594 308.625 Z M 255.976562 295.445312 " transform="matrix(1,0,0,1,-74,-13)"/>
<path style="fill-rule:nonzero;fill:rgb(39.99939%,39.99939%,39.99939%);fill-opacity:1;stroke-width:0.03;stroke-linecap:square;stroke-linejoin:miter;stroke:rgb(39.99939%,39.99939%,39.99939%);stroke-opacity:1;stroke-miterlimit:3.239307;" d="M 269.765625 295.800781 L 285.613281 296.660156 L 285.703125 302.242188 L 285.328125 309.4375 L 269.230469 308.980469 Z M 269.765625 295.800781 " transform="matrix(1,0,0,1,-74,-13)"/>
<path style="fill-rule:nonzero;fill:rgb(39.99939%,39.99939%,39.99939%);fill-opacity:1;stroke-width:0.03;stroke-linecap:square;stroke-linejoin:miter;stroke:rgb(39.99939%,39.99939%,39.99939%);stroke-opacity:1;stroke-miterlimit:3.239307;" d="M 152.527344 308.785156 L 153.53125 308.625 L 154.988281 308.574219 L 153.121094 308.816406 Z M 152.527344 308.785156 " transform="matrix(1,0,0,1,-74,-13)"/>
<path style="fill-rule:nonzero;fill:rgb(39.99939%,39.99939%,39.99939%);fill-opacity:1;stroke-width:0.03;stroke-linecap:square;stroke-linejoin:miter;stroke:rgb(39.99939%,39.99939%,39.99939%);stroke-opacity:1;stroke-miterlimit:3.239307;" d="M 199.832031 308.152344 L 222.019531 308.792969 L 222.066406 318.535156 L 197.101562 317.585938 Z M 199.832031 308.152344 " transform="matrix(1,0,0,1,-74,-13)"/>
<path style="fill-rule:nonzero;fill:rgb(39.99939%,39.99939%,39.99939%);fill-opacity:1;stroke-width:0.03;stroke-linecap:square;stroke-linejoin:miter;stroke:rgb(39.99939%,39.99939%,39.99939%);stroke-opacity:1;stroke-miterlimit:3.239307;" d="M 223.054688 308.753906 L 235.308594 309.074219 L 235.160156 319.035156 L 223.023438 318.535156 Z M 223.054688 308.753906 " transform="matrix(1,0,0,1,-74,-13)"/>
<path style="fill-rule:nonzero;fill:rgb(39.99939%,39.99939%,39.99939%);fill-opacity:1;stroke-width:0.03;stroke-linecap:square;stroke-linejoin:miter;stroke:rgb(39.99939%,39.99939%,39.99939%);stroke-opacity:1;stroke-miterlimit:3.239307;" d="M 255.671875 267.214844 L 269.804688 267.628906 L 269.101562 279.925781 L 267.886719 279.890625 L 265.140625 279.945312 L 260.746094 280.222656 L 257.277344 280.476562 L 255.304688 280.527344 Z M 255.671875 267.214844 " transform="matrix(1,0,0,1,-74,-13)"/>
<path style="fill-rule:nonzero;fill:rgb(39.99939%,39.99939%,39.99939%);fill-opacity:1;stroke-width:0.03;stroke-linecap:square;stroke-linejoin:miter;stroke:rgb(39.99939%,39.99939%,39.99939%);stroke-opacity:1;stroke-miterlimit:3.239307;" d="M 213.964844 131.679688 L 212.535156 131.480469 L 210.9375 131.363281 L 209.347656 131.242188 L 207.371094 131.214844 L 205.953125 131.242188 L 204.246094 131.375 L 202.71875 131.566406 L 201.386719 131.816406 L 199.707031 132.261719 L 199.613281 132.296875 L 205.632812 124.386719 L 208.710938 122.960938 L 214.746094 120.054688 L 219.425781 117.925781 L 223.054688 114.527344 L 225.144531 111.03125 L 226.246094 106.558594 L 227.136719 100.652344 L 227.335938 95.878906 L 235.304688 85.410156 L 261.785156 128.28125 L 264.964844 139.628906 L 266.757812 153.910156 L 270.289062 177.976562 L 269.792969 206.382812 L 268.863281 209.308594 L 255.449219 225.066406 L 240.558594 245.132812 L 240.402344 245.183594 L 240.164062 245.199219 L 239.925781 245.164062 L 239.355469 245.007812 L 238.757812 244.804688 L 237.945312 244.53125 L 237.246094 244.363281 L 236.589844 244.21875 L 236.027344 244.125 L 235.308594 244.109375 L 234.394531 244.113281 L 233.472656 244.035156 L 232.019531 243.574219 L 231.1875 243.117188 L 230.4375 242.152344 L 230.15625 241.507812 L 230.074219 241.085938 L 230.070312 240.585938 L 230.136719 240.074219 L 230.253906 239.5 L 230.433594 238.976562 L 230.703125 238.386719 L 231.015625 237.933594 L 231.441406 237.375 L 231.925781 236.875 L 234.457031 234.445312 L 238.136719 230.609375 L 241.210938 226.886719 L 245.09375 222.011719 L 247.589844 218.90625 L 249.136719 216.761719 L 250.628906 214.632812 L 252.195312 212.042969 L 253.453125 209.835938 L 254.511719 207.910156 L 255.886719 204.914062 L 256.527344 203.300781 L 257.21875 201.316406 L 257.628906 199.6875 L 257.855469 197.933594 L 257.902344 195.027344 L 257.6875 192.664062 L 257.359375 189.832031 L 256.976562 187.496094 L 256.441406 185.285156 L 256.117188 183.480469 L 255.957031 181.714844 L 255.859375 179.4375 L 255.957031 177.65625 L 256.097656 176.089844 L 256.175781 173.628906 L 256.121094 170.984375 L 255.898438 168.796875 L 255.511719 166.726562 L 255.0625 165.285156 L 254.441406 163.945312 L 253.363281 162.339844 L 252.3125 161.441406 L 250.992188 160.605469 L 250.105469 159.960938 L 249.046875 159.058594 L 248.265625 158.316406 L 247.300781 157.183594 L 245.53125 154.992188 L 244.355469 153.160156 L 243.355469 151.019531 L 242.207031 149.097656 L 241.117188 147.390625 L 240.085938 145.949219 L 238.828125 144.136719 L 237.421875 142.519531 L 235.851562 141.1875 L 234.40625 140.324219 L 233.265625 139.8125 L 231.820312 139.328125 L 230.34375 138.875 L 229.070312 138.542969 L 227.960938 138.335938 L 226.875 138.179688 L 225.886719 137.945312 L 224.847656 137.476562 L 223.753906 136.683594 L 222.1875 135.589844 L 220.648438 134.578125 L 219.226562 133.785156 L 217.949219 133.058594 L 216.605469 132.453125 L 215.257812 131.996094 Z M 213.964844 131.679688 " transform="matrix(1,0,0,1,-74,-13)"/>
<path style="fill-rule:nonzero;fill:rgb(39.99939%,39.99939%,39.99939%);fill-opacity:1;stroke-width:0.03;stroke-linecap:square;stroke-linejoin:miter;stroke:rgb(39.99939%,39.99939%,39.99939%);stroke-opacity:1;stroke-miterlimit:3.239307;" d="M 254.007812 64.429688 L 254.582031 65.449219 L 255.199219 67.46875 L 256.285156 70.410156 L 257.789062 74.390625 L 260.316406 81.648438 L 261.976562 86.375 L 263.578125 91.449219 L 265.113281 95.667969 L 265.542969 103.234375 L 264.78125 111.964844 L 264.082031 117.371094 L 263.796875 121.199219 L 263.597656 127.789062 L 236.546875 83.808594 Z M 254.007812 64.429688 " transform="matrix(1,0,0,1,-74,-13)"/>
</g>
</svg>
