<?xml version="1.0" encoding="UTF-8"?>
<svg xmlns="http://www.w3.org/2000/svg" xmlns:xlink="http://www.w3.org/1999/xlink" width="361pt" height="361pt" viewBox="0 0 361 361" version="1.1">
<g id="surface7854">
<path style="fill-rule:nonzero;fill:rgb(0%,0%,0%);fill-opacity:1;stroke-width:0.03;stroke-linecap:square;stroke-linejoin:miter;stroke:rgb(0%,0%,0%);stroke-opacity:1;stroke-miterlimit:10;" d="M 0 178 L 360 178 L 360 -182 L 0 -182 Z M 0 178 " transform="matrix(1,0,0,1,0,182)"/>
<path style=" stroke:none;fill-rule:nonzero;fill:rgb(39.99939%,39.99939%,39.99939%);fill-opacity:0.3;" d="M 5.132812 5.578125 L -5.066406 13.382812 L -4.726562 13.769531 L -4.382812 14.15625 L 6.1875 6.265625 L 10.511719 7.367188 L 11.738281 7.398438 L 13.925781 7.585938 L 20.089844 14.378906 L 19.460938 15.839844 L 16.425781 15.375 L 9.785156 17.964844 L -7.511719 16.15625 L -7.613281 16.804688 L -7.71875 17.453125 L 8.035156 18.945312 L 5.332031 21.179688 L -0.5 26.378906 L -2.148438 28.90625 L -2.863281 29.609375 L -4.875 38.863281 L -14.710938 39.679688 L -21.179688 39.105469 L -23.542969 39.210938 L -27.113281 39.367188 L -29.636719 38.625 L -39.136719 35.714844 L -48.984375 33.945312 L -61.003906 31.324219 L -67.105469 31.132812 L -72.96875 29.066406 L -82.457031 25.824219 L -88.460938 23.898438 L -101.539062 19.15625 L -99.199219 12.058594 L -97.238281 10.121094 L -93.160156 1.511719 L -90.777344 -0.0195312 L -84.675781 -15.613281 L -80.863281 -32.210938 L -72.238281 -30.410156 L -67.011719 -28.617188 L -48.113281 -18.570312 L -49.800781 -14.5625 L -44.359375 -7.742188 L -46.082031 -0.734375 L -53.199219 -5.679688 L -53.5 -5.292969 L -53.796875 -4.90625 L -46.492188 0.171875 L -47.261719 3.941406 L -46.738281 4.195312 L -46.21875 4.453125 L -43.335938 -7.167969 L -43.6875 -9.066406 L -33.828125 -7.972656 L -26.589844 -4.386719 L -22.292969 -2.691406 L -20.296875 -3.6875 L -8.214844 1.992188 L -4.410156 3.25 L 1.835938 4.773438 Z M 5.132812 5.578125 "/>
<path style=" stroke:none;fill-rule:nonzero;fill:rgb(39.99939%,39.99939%,39.99939%);fill-opacity:0.3;" d="M 131.40625 59.960938 L 131.679688 57.054688 L 131.652344 57.941406 Z M 131.40625 59.960938 "/>
<path style=" stroke:none;fill-rule:nonzero;fill:rgb(39.99939%,39.99939%,39.99939%);fill-opacity:0.3;" d="M 106.980469 59.773438 L 111.171875 61.949219 L 115.214844 63.476562 L 116.777344 62.132812 L 129.253906 63.519531 L 128.761719 68.257812 L 128.726562 69.8125 L 128.246094 80.03125 L 126.332031 89.304688 L 126.4375 89.570312 L 126.433594 89.578125 L 117.929688 86.429688 L 111.183594 84.859375 L 101.285156 81.714844 Z M 106.980469 59.773438 "/>
<path style=" stroke:none;fill-rule:nonzero;fill:rgb(39.99939%,39.99939%,39.99939%);fill-opacity:0.3;" d="M 108.773438 50.933594 L 130.71875 50.503906 L 129.4375 62.808594 L 116.65625 61.554688 L 115.324219 62.699219 L 111.515625 61.421875 L 107.074219 59.050781 Z M 108.773438 50.933594 "/>
<path style=" stroke:none;fill-rule:nonzero;fill:rgb(39.99939%,39.99939%,39.99939%);fill-opacity:0.3;" d="M -33.128906 -32.90625 L -28.417969 -41.8125 L -27.277344 -42.371094 L -6.125 -15.953125 L 11.773438 5.664062 L 11.222656 5.996094 L 0.757812 3.234375 L -7.21875 0.894531 L -20.566406 -5.160156 L -22.28125 -4.082031 L -32.714844 -8.953125 L -44.554688 -10.503906 L -47.582031 -14.28125 L -46.113281 -18.472656 L -41.625 -15.910156 L -40.277344 -16.375 L -39.691406 -16.945312 Z M -33.128906 -32.90625 "/>
<path style=" stroke:none;fill-rule:nonzero;fill:rgb(39.99939%,39.99939%,39.99939%);fill-opacity:0.3;" d="M 15.816406 6.300781 L -33.308594 -52.621094 L -27.417969 -46.519531 L 15.710938 6.128906 Z M 15.816406 6.300781 "/>
<path style=" stroke:none;fill-rule:nonzero;fill:rgb(39.99939%,39.99939%,39.99939%);fill-opacity:0.3;" d="M 46.945312 -2.121094 L 66.914062 -1.367188 L 65.183594 19.527344 L 44.1875 18.953125 Z M 46.945312 -2.121094 "/>
<path style=" stroke:none;fill-rule:nonzero;fill:rgb(39.99939%,39.99939%,39.99939%);fill-opacity:0.3;" d="M 26.464844 16.472656 L 24.984375 15.851562 L 24.1875 14.957031 Z M 26.464844 16.472656 "/>
<path style=" stroke:none;fill-rule:nonzero;fill:rgb(39.99939%,39.99939%,39.99939%);fill-opacity:0.3;" d="M 68.132812 -1.753906 L 89.757812 -0.28125 L 87.792969 20.867188 L 66.578125 19.582031 Z M 68.132812 -1.753906 "/>
<path style=" stroke:none;fill-rule:nonzero;fill:rgb(39.99939%,39.99939%,39.99939%);fill-opacity:0.3;" d="M -24.828125 103.78125 L -25.144531 93.886719 L -22.523438 82.90625 L -22.214844 82.210938 L -20.171875 79.871094 L -17.765625 77.71875 L -7.296875 70.90625 L -6.199219 70.296875 L -3.683594 70.125 L -0.21875 70.410156 L 2.871094 69.957031 L 5.542969 68.386719 L 6.984375 68.085938 L 8.402344 67.910156 L 14.539062 68.542969 L 12.539062 76.171875 L 13.164062 76.273438 L 14.007812 76.410156 L 15.832031 68.902344 L 15.9375 68.460938 L 38.496094 72.609375 L 37 86.351562 L 35.570312 89.203125 L 32.699219 89.152344 L 31.851562 90.082031 L 13.925781 96.855469 L 4.554688 99.117188 L -12.863281 102.625 L -23.691406 104.828125 Z M -24.828125 103.78125 "/>
<path style=" stroke:none;fill-rule:nonzero;fill:rgb(39.99939%,39.99939%,39.99939%);fill-opacity:0.3;" d="M 39.9375 72.6875 L 68.863281 76.386719 L 68.820312 77.046875 L 68.542969 77.238281 L 65.570312 79.449219 L 64.21875 80.597656 L 58.53125 86.921875 L 55.589844 87.472656 L 54.910156 88.183594 L 51.738281 88.707031 L 41.535156 89.113281 L 38.46875 89.078125 Z M 39.9375 72.6875 "/>
<path style=" stroke:none;fill-rule:nonzero;fill:rgb(39.99939%,39.99939%,39.99939%);fill-opacity:0.3;" d="M -21.109375 46.46875 L -22.535156 41.609375 L -21.628906 40.675781 L -13.324219 40.929688 L -4.070312 40.402344 L -3.292969 40.03125 L 8.234375 42.210938 L 13.953125 41.257812 L 16.417969 42.042969 L 18.417969 43.0625 L 17.480469 53.152344 L 15.109375 66.816406 L 5.773438 66.867188 L 2.410156 68.808594 L 0.253906 69.226562 L -2.417969 69.082031 L 0.453125 58.203125 L -16.425781 50.855469 L -20.3125 47.945312 Z M -21.109375 46.46875 "/>
<path style=" stroke:none;fill-rule:nonzero;fill:rgb(39.99939%,39.99939%,39.99939%);fill-opacity:0.3;" d="M -3.097656 39.109375 L -0.863281 29.339844 L 2.003906 25.390625 L 7 21.503906 L 16.066406 16.734375 L 19.90625 17.265625 L 19.34375 26.523438 L 16.902344 35.304688 L 17.691406 41.28125 L 13.234375 40.328125 L 8.46875 41.160156 Z M -3.097656 39.109375 "/>
<path style=" stroke:none;fill-rule:nonzero;fill:rgb(39.99939%,39.99939%,39.99939%);fill-opacity:0.3;" d="M 20.1875 45.117188 L 39.355469 47.671875 L 38.027344 70.621094 L 17.222656 66.011719 L 18.949219 56.1875 Z M 20.1875 45.117188 "/>
<path style=" stroke:none;fill-rule:nonzero;fill:rgb(39.99939%,39.99939%,39.99939%);fill-opacity:0.3;" d="M 41.3125 47.71875 L 62.445312 48 L 60.664062 73.507812 L 40.019531 70.734375 Z M 41.3125 47.71875 "/>
<path style=" stroke:none;fill-rule:nonzero;fill:rgb(39.99939%,39.99939%,39.99939%);fill-opacity:0.3;" d="M 21.257812 17.214844 L 24.292969 17.507812 L 27.484375 19.269531 L 29.644531 19.757812 L 34.84375 20.199219 L 42.765625 20.503906 L 39.753906 45.6875 L 20.109375 43.671875 L 19.3125 35.347656 L 20.828125 27.199219 Z M 21.257812 17.214844 "/>
<path style=" stroke:none;fill-rule:nonzero;fill:rgb(39.99939%,39.99939%,39.99939%);fill-opacity:0.3;" d="M 44.121094 20.652344 L 65.160156 22.019531 L 62.6875 43.007812 L 60.945312 45.832031 L 58.566406 46.734375 L 41.328125 46.507812 Z M 44.121094 20.652344 "/>
<path style=" stroke:none;fill-rule:nonzero;fill:rgb(39.99939%,39.99939%,39.99939%);fill-opacity:0.3;" d="M 66.515625 22.09375 L 87.511719 23.226562 L 86.25 48.082031 L 75.695312 48.292969 L 66.355469 47.199219 L 63.804688 46.355469 Z M 66.515625 22.09375 "/>
<path style=" stroke:none;fill-rule:nonzero;fill:rgb(39.99939%,39.99939%,39.99939%);fill-opacity:0.3;" d="M 79.425781 71.113281 L 95.625 58.980469 L 98.941406 56.582031 L 107.53125 51.652344 L 100.484375 81.144531 L 85.175781 73.726562 L 80.429688 72.453125 Z M 79.425781 71.113281 "/>
<path style=" stroke:none;fill-rule:nonzero;fill:rgb(39.99939%,39.99939%,39.99939%);fill-opacity:0.3;" d="M 86.882812 49.253906 L 106.023438 50.820312 L 98.710938 55.199219 L 86.253906 65.273438 L 85.53125 64.578125 Z M 86.882812 49.253906 "/>
<path style=" stroke:none;fill-rule:nonzero;fill:rgb(39.99939%,39.99939%,39.99939%);fill-opacity:0.3;" d="M 89.304688 23.320312 L 110.054688 24.4375 L 107.851562 49.621094 L 87.214844 47.910156 Z M 89.304688 23.320312 "/>
<path style=" stroke:none;fill-rule:nonzero;fill:rgb(39.99939%,39.99939%,39.99939%);fill-opacity:0.3;" d="M 111.550781 25.164062 L 131.976562 26.320312 L 130.796875 48.597656 L 109.070312 49.296875 Z M 111.550781 25.164062 "/>
<path style=" stroke:none;fill-rule:nonzero;fill:rgb(39.99939%,39.99939%,39.99939%);fill-opacity:0.3;" d="M 57.214844 88.484375 L 57.796875 88.390625 L 57.71875 88.464844 Z M 57.214844 88.484375 "/>
<path style=" stroke:none;fill-rule:nonzero;fill:rgb(39.99939%,39.99939%,39.99939%);fill-opacity:0.3;" d="M 66.082031 80.6875 L 67.183594 79.597656 L 67.679688 79.203125 Z M 66.082031 80.6875 "/>
<path style=" stroke:none;fill-rule:nonzero;fill:rgb(39.99939%,39.99939%,39.99939%);fill-opacity:0.3;" d="M 63.757812 48.199219 L 73.644531 49.371094 L 85.445312 49.371094 L 84.945312 65.234375 L 84.320312 66.269531 L 83.210938 67.066406 L 77.707031 63.195312 L 77.546875 63.367188 L 77.382812 63.539062 L 82.765625 67.375 L 75.082031 72.414062 L 72.519531 72.867188 L 68.699219 74.472656 L 62.464844 73.683594 Z M 63.757812 48.199219 "/>
<path style=" stroke:none;fill-rule:nonzero;fill:rgb(39.99939%,39.99939%,39.99939%);fill-opacity:0.3;" d="M 111.820312 22.390625 L 111.78125 22.390625 L 111.886719 21.058594 Z M 111.820312 22.390625 "/>
<path style=" stroke:none;fill-rule:nonzero;fill:rgb(39.99939%,39.99939%,39.99939%);fill-opacity:0.3;" d="M 115.367188 -26.753906 L 135.179688 -24.789062 L 133.253906 1.070312 L 113.335938 -0.394531 Z M 115.367188 -26.753906 "/>
<path style=" stroke:none;fill-rule:nonzero;fill:rgb(39.99939%,39.99939%,39.99939%);fill-opacity:0.3;" d="M 137.699219 -24.644531 L 158.554688 -23.574219 L 156.902344 1.453125 L 136.160156 0.214844 Z M 137.699219 -24.644531 "/>
<path style=" stroke:none;fill-rule:nonzero;fill:rgb(39.99939%,39.99939%,39.99939%);fill-opacity:0.3;" d="M 161.164062 -23.371094 L 173.480469 -22.160156 L 178.613281 -22.414062 L 181.433594 -22.234375 L 180.609375 -9.039062 L 177.0625 -9.59375 L 177.0625 -9.355469 L 177.066406 -9.042969 L 180.523438 -8.441406 L 179.578125 3.21875 L 158.941406 1.480469 Z M 161.164062 -23.371094 "/>
<path style=" stroke:none;fill-rule:nonzero;fill:rgb(39.99939%,39.99939%,39.99939%);fill-opacity:0.3;" d="M -35.199219 -54.886719 L -35.027344 -55.933594 L -24.878906 -52.769531 L -22.898438 -50.886719 L -1.039062 -45.363281 L 7.671875 -42.429688 L 13.8125 -39.578125 L 20.867188 -36.273438 L 27.167969 -35.304688 L 28.027344 -29.324219 L 26.9375 -23.371094 L 26.15625 -18.253906 L 24.648438 -10.484375 L 23.339844 -4 L 20.382812 7.925781 L 17.570312 8.40625 L 15.816406 6.300781 L 15.710938 6.128906 L -27.417969 -46.519531 L -33.308594 -52.621094 Z M -35.199219 -54.886719 "/>
<path style=" stroke:none;fill-rule:nonzero;fill:rgb(39.99939%,39.99939%,39.99939%);fill-opacity:0.3;" d="M 45.839844 -2.160156 L 46.945312 -2.121094 L 44.1875 18.953125 L 44.179688 18.953125 Z M 45.839844 -2.160156 "/>
<path style=" stroke:none;fill-rule:nonzero;fill:rgb(39.99939%,39.99939%,39.99939%);fill-opacity:0.3;" d="M 26.113281 -5.011719 L 44.414062 -1.804688 L 43.121094 18.789062 L 33.042969 18.191406 L 28.78125 17.445312 L 26.464844 16.472656 L 24.1875 14.957031 L 21.152344 11.539062 L 22.28125 8.128906 Z M 26.113281 -5.011719 "/>
<path style=" stroke:none;fill-rule:nonzero;fill:rgb(39.99939%,39.99939%,39.99939%);fill-opacity:0.3;" d="M 91.0625 0.152344 L 112.125 1.492188 L 110.867188 22.339844 L 89.664062 20.859375 Z M 91.0625 0.152344 "/>
<path style=" stroke:none;fill-rule:nonzero;fill:rgb(39.99939%,39.99939%,39.99939%);fill-opacity:0.3;" d="M 85.03125 117.785156 L 88.855469 119.636719 L 85.292969 126.378906 L 79.703125 135.027344 L 80.320312 135.273438 L 80.933594 135.519531 L 86.453125 126.738281 L 90.203125 120.171875 L 100.980469 124.136719 L 104.464844 127.785156 L 106.066406 133.445312 L 109.199219 133.3125 L 109.898438 134.453125 L 110.289062 137.480469 L 109.917969 138.257812 L 103.15625 137.199219 L 100.539062 142.058594 L 98.679688 142.59375 L 98.007812 144.082031 L 94.964844 144.757812 L 89.925781 148.679688 L 85.699219 151.054688 L 83.722656 150.203125 L 77.964844 148.332031 L 70.933594 146.855469 L 69.050781 146.917969 L 60.234375 143.589844 L 55.242188 141.777344 L 54.074219 140.816406 L 52.96875 141.308594 L 52.128906 141.988281 L 49.46875 142.359375 L 46.03125 142.605469 L 42.996094 142.433594 L 36.355469 146.238281 L 22.632812 140.085938 L 27.5 113.730469 L 35.734375 115.003906 L 35.839844 114.324219 L 35.90625 113.894531 L 27.816406 112.679688 L 29.140625 105.796875 L 35.257812 106.394531 L 35.316406 105.863281 L 35.347656 105.5625 L 29.289062 104.828125 L 30.4375 95.9375 L 33.957031 90.363281 L 52.980469 89.371094 L 51.980469 96.058594 L 52.199219 96.101562 L 52.414062 96.140625 L 53.457031 90.527344 L 58.625 94.144531 L 57.988281 95.402344 L 58.59375 95.898438 L 57.207031 99.542969 L 56.585938 99.429688 L 56.183594 100.027344 L 53.578125 108.148438 L 53.859375 108.945312 L 53.285156 110.742188 L 50.410156 116.125 L 50.671875 116.320312 L 50.859375 116.460938 L 53.925781 110.820312 L 54.308594 109.101562 L 54.1875 108.277344 L 56.707031 100.203125 L 57.382812 100.378906 L 59.683594 95.082031 L 65.058594 99.433594 L 65.703125 100.347656 L 62.300781 108.25 L 62.363281 108.671875 L 62.230469 109.292969 L 61.707031 110.261719 L 62.574219 110.347656 L 63.46875 110.433594 L 63.921875 109.324219 L 63.554688 108.328125 L 65.871094 102.429688 L 66.445312 102.1875 L 67.039062 103.066406 L 71.90625 108.902344 L 77.242188 112.910156 Z M 85.03125 117.785156 "/>
<path style=" stroke:none;fill-rule:nonzero;fill:rgb(39.99939%,39.99939%,39.99939%);fill-opacity:0.3;" d="M 60.445312 280.625 L 61.71875 276.964844 L 61.636719 278.34375 Z M 60.445312 280.625 "/>
<path style=" stroke:none;fill-rule:nonzero;fill:rgb(39.99939%,39.99939%,39.99939%);fill-opacity:0.3;" d="M 62.097656 270.414062 L 62.128906 268.800781 L 62.539062 262.214844 L 63.203125 260.160156 L 62.476562 263.78125 Z M 62.097656 270.414062 "/>
<path style=" stroke:none;fill-rule:nonzero;fill:rgb(39.99939%,39.99939%,39.99939%);fill-opacity:0.3;" d="M 60.835938 253.484375 L 54.984375 250.828125 L 54.273438 249.855469 L 54.238281 249.191406 L 55.195312 250.339844 L 60.519531 253.140625 Z M 60.835938 253.484375 "/>
<path style=" stroke:none;fill-rule:nonzero;fill:rgb(39.99939%,39.99939%,39.99939%);fill-opacity:0.3;" d="M 64.089844 218.53125 L 64.113281 218.363281 L 65.503906 213.507812 L 66.15625 212.109375 Z M 64.089844 218.53125 "/>
<path style=" stroke:none;fill-rule:nonzero;fill:rgb(39.99939%,39.99939%,39.99939%);fill-opacity:0.3;" d="M 52.152344 296.109375 L 60.011719 281.449219 L 52.394531 295.988281 Z M 52.152344 296.109375 "/>
<path style=" stroke:none;fill-rule:nonzero;fill:rgb(39.99939%,39.99939%,39.99939%);fill-opacity:0.3;" d="M 84.585938 173.59375 L 85.375 170.242188 L 85.722656 171.644531 Z M 84.585938 173.59375 "/>
<path style=" stroke:none;fill-rule:nonzero;fill:rgb(39.99939%,39.99939%,39.99939%);fill-opacity:0.3;" d="M 87.414062 161.574219 L 87.949219 159.519531 L 89.035156 157.28125 Z M 87.414062 161.574219 "/>
<path style=" stroke:none;fill-rule:nonzero;fill:rgb(39.99939%,39.99939%,39.99939%);fill-opacity:0.3;" d="M 99.777344 143.6875 L 99.863281 143.261719 L 101.292969 143.035156 L 102.800781 140.320312 L 102.527344 143.078125 Z M 99.777344 143.6875 "/>
<path style=" stroke:none;fill-rule:nonzero;fill:rgb(39.99939%,39.99939%,39.99939%);fill-opacity:0.3;" d="M -4.355469 138.707031 L 8.015625 142.628906 L 2.246094 157.261719 L -12.566406 152.757812 L -5.539062 141.132812 Z M -4.355469 138.707031 "/>
<path style=" stroke:none;fill-rule:nonzero;fill:rgb(39.99939%,39.99939%,39.99939%);fill-opacity:0.3;" d="M 71.105469 168.246094 L 82.414062 171.050781 L 78.855469 181.460938 L 73.765625 180.136719 L 74.472656 177.535156 L 73.59375 177.316406 L 73.71875 176.035156 L 72.449219 175.578125 L 70.507812 175.382812 Z M 71.105469 168.246094 "/>
<path style=" stroke:none;fill-rule:nonzero;fill:rgb(39.99939%,39.99939%,39.99939%);fill-opacity:0.3;" d="M 66.246094 147.277344 L 70.265625 148.53125 L 71.996094 166 L 69.894531 166.148438 L 67.769531 163.648438 L 63.234375 161.507812 L 61.410156 158.871094 L 62.234375 156.851562 Z M 66.246094 147.277344 "/>
<path style=" stroke:none;fill-rule:nonzero;fill:rgb(39.99939%,39.99939%,39.99939%);fill-opacity:0.3;" d="M 71.804688 149.730469 L 74.832031 149.15625 L 84.574219 151.851562 L 87.6875 153.082031 L 88.308594 153.746094 L 83.628906 170.226562 L 74.160156 167.585938 L 73.765625 164.59375 L 74.417969 163.785156 L 74.332031 161.636719 L 75.894531 160.8125 L 75.636719 158.25 L 73.898438 158.085938 L 71.898438 154.945312 Z M 71.804688 149.730469 "/>
<path style=" stroke:none;fill-rule:nonzero;fill:rgb(39.99939%,39.99939%,39.99939%);fill-opacity:0.3;" d="M 51.738281 88.707031 L 48.757812 89.195312 L 41.535156 89.113281 Z M 51.738281 88.707031 "/>
<path style=" stroke:none;fill-rule:nonzero;fill:rgb(39.99939%,39.99939%,39.99939%);fill-opacity:0.3;" d="M 54.976562 243.855469 L 50.347656 240.363281 L 50.324219 240.707031 L 50.296875 241.039062 L 54.570312 244.269531 L 52.605469 249.742188 L 53.097656 251.128906 L 61.027344 254.683594 L 62.335938 256.144531 L 62.484375 256.96875 L 61.136719 261.320312 L 60.964844 273.949219 L 60.628906 276.867188 L 59.277344 280.347656 L 57.394531 284.117188 L 52.003906 293.867188 L 50.675781 295.851562 L 48.207031 298.15625 L 46.222656 299.964844 L 44.746094 301.71875 L 42.746094 303.914062 L 40.25 306.875 L 35.382812 311.613281 L 34.261719 311.257812 L 36.257812 304.683594 L 41.324219 273.679688 L 40.839844 270.371094 L 37.550781 267.082031 L 34.328125 264.40625 L 32.992188 261.21875 L 34.796875 249.523438 L 33.589844 247.019531 L 28.503906 244.542969 L 22.132812 241.183594 L 20.914062 237.519531 L 24.652344 222.570312 L 30.386719 207.992188 L 31.109375 206.308594 L 31.980469 205.097656 L 32.96875 204.25 L 34.132812 203.71875 L 35.292969 203.441406 L 66.734375 206.621094 L 64.660156 211.734375 L 62.914062 218.203125 L 62.632812 220.335938 L 57.484375 236.746094 Z M 54.976562 243.855469 "/>
<path style=" stroke:none;fill-rule:nonzero;fill:rgb(39.99939%,39.99939%,39.99939%);fill-opacity:0.3;" d="M 22.507812 142.402344 L 33.695312 147.058594 L 35.429688 148.269531 L 36.292969 147.851562 L 42.65625 144.140625 L 47.644531 143.960938 L 49.378906 143.492188 L 53.464844 143.019531 L 53.714844 143.332031 L 52.226562 147.847656 L 51.320312 147.964844 L 50.121094 152.675781 L 44.011719 151.378906 L 43.976562 151.730469 L 43.929688 152.203125 L 50.203125 153.65625 L 49.761719 157.804688 L 44.816406 157.183594 L 44.730469 157.460938 L 44.621094 157.796875 L 49.640625 158.414062 L 50.023438 159.679688 L 48.503906 167.101562 L 47.628906 169.066406 L 46.480469 170.433594 L 42.855469 168.769531 L 38.796875 165.941406 L 37.847656 165.09375 L 27.75 162.808594 L 13.53125 160.328125 Z M 22.507812 142.402344 "/>
<path style=" stroke:none;fill-rule:nonzero;fill:rgb(39.99939%,39.99939%,39.99939%);fill-opacity:0.3;" d="M 105.378906 85.761719 L 109.601562 86.1875 L 114.0625 86.722656 L 115.902344 87.355469 L 120.789062 89.339844 L 117.5 96.117188 L 118.160156 96.316406 L 118.730469 96.484375 L 121.582031 90.546875 L 126.570312 91.574219 L 123.375 126.207031 L 122.8125 130.597656 L 122.3125 132.554688 L 121.878906 136.050781 L 120.191406 139.90625 L 117.90625 139.523438 L 116.359375 139.007812 L 112.550781 134.105469 L 110.988281 132.703125 L 108.871094 131.792969 L 107.257812 131.816406 L 105.640625 127.457031 L 101.828125 122.96875 L 88.773438 118.003906 L 85.90625 116.742188 L 81.5625 114.304688 L 75.808594 110.679688 L 75.90625 110.117188 L 73.15625 108.207031 L 69.792969 105.039062 L 66.992188 101.539062 L 67.269531 100.070312 L 60.65625 94.820312 L 53.902344 90.277344 L 54.050781 89 L 57.214844 88.484375 L 57.71875 88.464844 L 57.796875 88.390625 L 58.996094 88.199219 L 61.007812 86.03125 L 62.957031 83.785156 L 66.082031 80.6875 L 67.679688 79.203125 L 71.738281 75.984375 L 77.140625 72.5 L 84.023438 74.878906 L 90.765625 77.628906 L 98.675781 81.53125 Z M 105.378906 85.761719 "/>
<path style=" stroke:none;fill-rule:nonzero;fill:rgb(39.99939%,39.99939%,39.99939%);fill-opacity:0.3;" d="M 6.261719 100.292969 L 0.925781 121.824219 L -0.808594 126.910156 L -6.589844 139.882812 L -14.128906 152.402344 L -35.328125 146.34375 L -36.964844 145.828125 L -37.714844 144.652344 L -37.6875 143.03125 L -36.917969 140.683594 L -34.894531 137.34375 L -32.425781 134.101562 L -30.996094 127.523438 L -24.28125 130.152344 L -23.84375 129.535156 L -30.839844 126.585938 L -24.050781 108.753906 L -24.4375 106.109375 Z M 6.261719 100.292969 "/>
<path style=" stroke:none;fill-rule:nonzero;fill:rgb(39.99939%,39.99939%,39.99939%);fill-opacity:0.3;" d="M 7.460938 99.878906 L 28.894531 92.285156 L 29.871094 92.691406 L 26.886719 110.148438 L 20.386719 109.550781 L 20.292969 109.816406 L 20.164062 110.183594 L 26.613281 111.113281 L 25.828125 115.601562 L 19.257812 114.308594 L 8.617188 141.414062 L -3.742188 137.882812 L -0.496094 130.367188 L 4.453125 115.554688 Z M 7.460938 99.878906 "/>
<path style=" stroke:none;fill-rule:nonzero;fill:rgb(39.99939%,39.99939%,39.99939%);fill-opacity:0.3;" d="M 54.667969 142.980469 L 57.925781 144.070312 L 64.914062 146.773438 L 59.824219 158.4375 L 59.984375 159.851562 L 62.597656 162.5625 L 66.878906 164.519531 L 67.671875 169.417969 L 65.367188 174.625 L 59.824219 173.761719 L 55.019531 174.746094 L 52.445312 174.910156 L 51.636719 174.488281 L 50.503906 173.261719 L 51.019531 170.429688 L 50.613281 170.410156 L 50.210938 170.390625 L 49.824219 172.617188 L 47.652344 171.535156 L 49.289062 167.609375 L 50.511719 158.734375 L 55.214844 159.089844 L 55.242188 158.335938 L 55.261719 157.78125 L 50.351562 157.03125 L 50.816406 153.476562 Z M 54.667969 142.980469 "/>
<path style=" stroke:none;fill-rule:nonzero;fill:rgb(39.99939%,39.99939%,39.99939%);fill-opacity:0.3;" d="M 20.242188 115.566406 L 25.382812 116.5 L 22.183594 134.761719 L 20.957031 140.726562 L 12.527344 159.816406 L 4.21875 157.707031 L 9.503906 142.007812 L 9.84375 140.996094 Z M 20.242188 115.566406 "/>
<path style=" stroke:none;fill-rule:nonzero;fill:rgb(39.99939%,39.99939%,39.99939%);fill-opacity:0.3;" d="M 37.457031 285.09375 L 34.785156 284.617188 L 30.816406 282.871094 L 25.527344 280.25 L 22.257812 279.03125 L 20.816406 278.738281 L 18.664062 277.988281 L 14.722656 277.636719 L 11.070312 278.6875 L 9.84375 279.355469 L 8.417969 279.460938 L 5.75 278.992188 L 3.96875 278.9375 L 1.09375 278.558594 L -4.664062 281.289062 L -5.410156 282.054688 L -4.429688 283.042969 L -4.621094 284.023438 L -10.675781 291.058594 L -10.546875 293.6875 L -9.253906 294.972656 L -8.15625 296.046875 L -8.25 297.152344 L -9.585938 298.820312 L -11.089844 300.40625 L -13.511719 301.835938 L -15.183594 303.578125 L -15.769531 305.484375 L -15.835938 312.445312 L -15.980469 313.214844 L -16.859375 313.679688 L -22.398438 314.078125 L -30.746094 313.957031 L -32.542969 314.597656 L -33.78125 315.347656 L -34.90625 316.628906 L -35.925781 317.851562 L -36.933594 319.40625 L -38.058594 320.476562 L -39.632812 320.691406 L -41.546875 320.691406 L -42.894531 320.476562 L -43.34375 320.222656 L -44.714844 318.292969 L -41.851562 308.640625 L -42.449219 308.296875 L -43.046875 307.949219 L -45.597656 317.050781 L -48.640625 312.777344 L -57.867188 299.003906 L -60.425781 295.984375 L -63.382812 291.632812 L -65.070312 289.496094 L -66.421875 287.789062 L -67.996094 286.398438 L -72.894531 282.273438 L -75.707031 280.457031 L -77.734375 279.175781 L -79.984375 278.003906 L -85.273438 275.4375 L -91.332031 272.503906 L -90.003906 270.46875 L -88.539062 268.257812 L -87.28125 266.675781 L -85.933594 264.722656 L -85.125 263.308594 L -84.878906 262.1875 L -84.816406 261.128906 L -85.789062 258.214844 L -85.683594 257.125 L -85.003906 255.347656 L -71.222656 261.066406 L -71.101562 260.625 L -70.976562 260.183594 L -83.574219 254.765625 L -84.445312 254.589844 L -84.632812 254.058594 L -82.738281 250.992188 L -82.25 250.21875 L -79.085938 245.933594 L -77.492188 243.046875 L -73.710938 239.496094 L -72.8125 238.597656 L -72.367188 237.320312 L -71.804688 234.289062 L -71.503906 231.878906 L -70.621094 228.902344 L -68.257812 224.085938 L -66.382812 220.230469 L -65.332031 220.601562 L -64.910156 219.867188 L -64.476562 219.105469 L -66.316406 218.605469 L -66.644531 216.980469 L -67.082031 213.566406 L -67.371094 211.136719 L -66.648438 207.453125 L -66.1875 206.140625 L -65.378906 203.886719 L -67.507812 199.617188 L -68.257812 198.273438 L -68.554688 196.777344 L -67.964844 194.625 L -65.992188 190.066406 L -64.675781 188.320312 L -64.085938 187.007812 L -63.824219 185.007812 L -63.621094 183.296875 L -61.738281 178.871094 L -59.613281 179.800781 L -57.25 179.984375 L -55.609375 180.421875 L -54.492188 180.296875 L -52.957031 180.476562 L -52.921875 180.132812 L -52.890625 179.789062 L -54.953125 179.671875 L -55.34375 179.859375 L -56.59375 179.300781 L -59.089844 179.175781 L -61.585938 178.113281 L -60.863281 176.117188 L -60.140625 171.933594 L -59.589844 167.382812 L -59.417969 165.039062 L -58.410156 160.613281 L -57.230469 157.183594 L -55.660156 152.929688 L -54.40625 150.316406 L -53.226562 149 L -52.363281 148.300781 L -51.476562 147.9375 L -50.566406 147.667969 L -49.464844 147.667969 L -45.28125 148.234375 L -39.148438 147.308594 L -37.074219 147.457031 L -27.675781 149.765625 L -15.394531 153.175781 L -14.898438 153.96875 L -16.027344 156.488281 L -15.285156 160.550781 L -17.792969 168.472656 L -18.417969 171.90625 L -17.992188 171.9375 L -17.5625 171.972656 L -17.164062 169.8125 L -16.242188 167.175781 L -16.242188 166.113281 L -14.363281 160.804688 L -14.253906 159.5 L -14.664062 157.375 L -13.171875 154.429688 L 2.15625 158.730469 L -4.835938 173.90625 L -4.429688 174.164062 L -4.019531 174.425781 L 3.320312 158.972656 L 11.699219 160.996094 L 5.339844 175.285156 L 5.757812 175.5 L 6.285156 175.769531 L 12.917969 161.140625 L 23.585938 163.480469 L 23.273438 165.925781 L 23.921875 165.945312 L 24.472656 165.960938 L 24.726562 163.742188 L 35.121094 166.660156 L 37.472656 167.613281 L 39.226562 168.707031 L 41.828125 170.324219 L 44.878906 172.128906 L 45.980469 172.175781 L 49.433594 174.222656 L 49.433594 175.078125 L 48.0625 181.605469 L 49.246094 181.585938 L 50.296875 181.566406 L 51.132812 176.480469 L 52.007812 176.273438 L 53.714844 176.480469 L 55.046875 175.886719 L 59.726562 175.363281 L 70.492188 176.410156 L 72.335938 176.609375 L 72.75 177.542969 L 72.339844 180.816406 L 78.070312 182.152344 L 78.070312 182.90625 L 76.1875 185.964844 L 77.160156 186.539062 L 73.761719 193.523438 L 72.789062 196.351562 L 73.085938 200.957031 L 72.714844 201.8125 L 71.238281 202.988281 L 69.667969 203.851562 L 68.523438 204.304688 L 67.191406 204.558594 L 64.503906 204.546875 L 37.003906 201.640625 L 34.855469 201.214844 L 33.4375 201.398438 L 31.113281 202.171875 L 29.496094 203.46875 L 27.957031 205.917969 L 25.503906 204.203125 L 24.277344 202.667969 L 23.308594 201.015625 L 23.015625 198.738281 L 23.4375 196.964844 L 24.019531 195.308594 L 23.242188 195.1875 L 22.46875 195.066406 L 22.019531 197.027344 L 21.632812 199.050781 L 21.953125 201.257812 L 22.988281 203.652344 L 25.050781 205.859375 L 27.636719 207.375 L 21.953125 223.832031 L 20.480469 229 L 19.179688 234.074219 L 18.796875 238.140625 L 19.863281 240.726562 L 20.5 242.53125 L 20.949219 243.679688 L 21.65625 244.542969 L 22.5625 245.019531 L 23.742188 245.425781 L 24.914062 245.441406 L 25.671875 245.496094 L 25.625 246.507812 L 24.433594 247.023438 L 22.410156 247.078125 L 20.070312 246.480469 L 17.175781 246.335938 L 13.957031 245.355469 L 11.332031 243.097656 L 10.058594 242.050781 L 7.738281 240.175781 L 5.472656 239.238281 L 4 239.035156 L 3.136719 238.851562 L 1.554688 239.035156 L 0.0195312 239.855469 L -1.542969 240.585938 L -3.097656 241.496094 L -4.042969 242.265625 L -4.820312 243.046875 L -5.632812 243.957031 L -6.542969 245.507812 L -7.023438 246.917969 L -7.839844 249.152344 L -8.269531 250.453125 L -8.59375 251.238281 L -8.917969 251.628906 L -10.246094 251.808594 L -12.039062 251.292969 L -14.054688 250.605469 L -15.953125 249.90625 L -17.589844 249.105469 L -20.492188 248.304688 L -24.625 247.488281 L -28.109375 246.285156 L -31.6875 244.535156 L -25.324219 228.195312 L -18.425781 230.835938 L -17.699219 229.335938 L -23.578125 227.03125 L -26.625 226.449219 L -29.445312 226.050781 L -33.1875 224.828125 L -34.894531 223.886719 L -34.984375 221.070312 L -34.085938 217.3125 L -32.828125 215.179688 L -30.007812 209.6875 L -26.371094 204.046875 L -23.042969 205.753906 L -22.730469 205.03125 L -22.414062 204.304688 L -32.214844 199.949219 L -32.621094 200.890625 L -33.023438 201.828125 L -28.980469 203.535156 L -32.011719 208.527344 L -35.070312 214.285156 L -37.363281 220.214844 L -36.882812 224.246094 L -39.519531 225.398438 L -41.773438 226.191406 L -43.925781 226.617188 L -46.144531 226.386719 L -47.394531 225.335938 L -47.808594 225.632812 L -48.226562 225.925781 L -46.492188 227.210938 L -43.855469 227.640625 L -42.503906 227.476562 L -39.070312 226.453125 L -35.980469 225.664062 L -34.8125 226.351562 L -29.507812 227.804688 L -26.691406 228.285156 L -33.359375 243.859375 L -48.484375 237.636719 L -48.886719 238.261719 L -49.289062 238.882812 L -32.183594 245.859375 L -28.109375 247.714844 L -24.753906 248.875 L -20.820312 249.585938 L -18.175781 250.132812 L -16.734375 250.691406 L -15.257812 251.546875 L -12.679688 252.257812 L -10.144531 252.8125 L -8.496094 252.832031 L -7.320312 252.363281 L -6.734375 250.875 L -6.242188 248.175781 L -5.261719 245.382812 L -4.050781 243.574219 L -2.640625 242.277344 L -0.210938 240.800781 L 1.921875 239.90625 L 4.195312 239.839844 L 5.960938 240.359375 L 7.675781 241.632812 L 9.640625 243.332031 L 12.308594 245.527344 L 13.574219 246.125 L 16.921875 247.140625 L 20.113281 247.46875 L 22.410156 247.964844 L 24.550781 247.921875 L 28.054688 246.40625 L 30.382812 247.648438 L 31.855469 248.765625 L 32.445312 249.882812 L 30.992188 261.433594 L 31.882812 263.339844 L 32.9375 264.777344 L 34.648438 266.476562 L 37.195312 268.648438 L 38.648438 269.964844 L 39.261719 271.128906 L 39.550781 272.355469 L 39.703125 273.714844 Z M 37.457031 285.09375 "/>
<path style=" stroke:none;fill-rule:nonzero;fill:rgb(39.99939%,39.99939%,39.99939%);fill-opacity:0.3;" d="M 12.621094 305.273438 L 13.5625 303.109375 L 15.734375 299.078125 L 16.527344 297.050781 L 24.359375 281.191406 L 30.378906 284.042969 L 32.480469 284.59375 L 34.222656 286.054688 L 35.472656 286.839844 L 36.890625 287.851562 L 34.792969 302.941406 L 34.203125 305.363281 L 32.886719 308.707031 L 31.460938 312.53125 L 29.300781 315.695312 L 27.96875 317.480469 L 26.355469 319.175781 L 23.910156 321.546875 L 22.488281 322.097656 L 21.691406 322.5625 L 20.980469 322.992188 L 20.5625 323.121094 L 20.308594 323.304688 L 18.675781 324.0625 L 18.261719 324.089844 L 17.800781 324.0625 L 17.464844 324.140625 L 17.160156 324.363281 L 16.246094 325.347656 L 15.804688 325.953125 L 15.449219 326.179688 L 14.75 326.25 L 13.835938 325.996094 L 10.96875 325.128906 L 8.917969 324.695312 L 5.257812 323.894531 L 8.402344 317.472656 L 13.136719 317.128906 L 14.097656 314.75 L 13.769531 314.691406 L 13.46875 314.671875 L 12.785156 316.265625 L 8.847656 316.1875 L 9.214844 314.636719 L 10.753906 309.5625 Z M 12.621094 305.273438 "/>
<path style=" stroke:none;fill-rule:nonzero;fill:rgb(39.99939%,39.99939%,39.99939%);fill-opacity:0.3;" d="M -10.457031 314.394531 L -12.925781 313.894531 L -13.980469 313.28125 L -14.382812 312.582031 L -14.535156 310.640625 L -14.308594 305.769531 L -13.851562 304 L -12.546875 302.695312 L -10.8125 301.726562 L -10.105469 301.394531 L -8.285156 299.664062 L -7.0625 297.246094 L -7.386719 295.371094 L -8.40625 293.898438 L -9.140625 292.074219 L -8.625 290.644531 L -2.347656 281.722656 L -0.324219 280.554688 L 1.421875 280.035156 L 3.097656 279.90625 L 6.363281 280.144531 L 9.707031 280.03125 L 12.105469 279.273438 L 13.953125 278.863281 L 15.167969 278.527344 L 17.121094 278.710938 L 6.585938 286.976562 L 6.761719 287.359375 L 7.015625 287.742188 L 18.261719 279.171875 L 20.867188 279.898438 L 23.160156 280.796875 L 12.761719 302.757812 L 11.765625 305.042969 L 9.921875 309.285156 L 8.367188 314.410156 L 7.570312 317.183594 L 4.40625 323.644531 L 3.523438 323.382812 L 1.890625 321.722656 L -0.0390625 319.816406 L -2.921875 317.734375 L -1.09375 309.386719 L -1.535156 309.285156 L -1.976562 309.1875 L -3.851562 316.796875 L -5.085938 316.410156 L -8.125 315.128906 Z M -10.457031 314.394531 "/>
<path style=" stroke:none;fill-rule:nonzero;fill:rgb(39.99939%,39.99939%,39.99939%);fill-opacity:0.3;" d="M -5.757812 346.28125 L -15.625 354.527344 L -16.578125 354.753906 L -18.003906 354.1875 L -18.957031 353.625 L -35.847656 329.804688 L -37 328.175781 L -36.976562 325.644531 L -36.648438 322.871094 L -35.492188 320.09375 L -34.660156 318.738281 L -32.1875 316.089844 L -30.261719 315.378906 L -27.695312 315.199219 L -22.167969 315.226562 L -18.605469 314.898438 L -16.109375 314.671875 L -13.359375 314.683594 L -10.875 315.074219 L -9.921875 315.40625 L -8.148438 316.039062 L -5.609375 317.121094 L -3.324219 318.476562 L -0.519531 320.550781 L 1.332031 322.363281 L 3.164062 324.167969 L 5.203125 324.742188 L 8.851562 325.40625 L 10.769531 325.84375 L 12.199219 326.207031 L 13.238281 326.589844 L 14.144531 327.128906 L 14.515625 327.480469 L 14.65625 327.710938 L 14.734375 327.980469 L 14.691406 328.328125 L 14.324219 329.324219 L -4.476562 345.328125 L -8.015625 343.921875 L -8.3125 344.261719 L -8.609375 344.597656 Z M -5.757812 346.28125 "/>
<path style=" stroke:none;fill-rule:nonzero;fill:rgb(39.99939%,39.99939%,39.99939%);fill-opacity:0.3;" d="M 98.007812 144.082031 L 97.230469 151.171875 L 89.832031 152.835938 L 85.699219 151.054688 L 89.925781 148.679688 L 94.964844 144.757812 Z M 98.007812 144.082031 "/>
<path style=" stroke:none;fill-rule:nonzero;fill:rgb(39.99939%,39.99939%,39.99939%);fill-opacity:0.3;" d="M 75.460938 202.789062 L 86.617188 191.414062 L 95.714844 196.800781 L 96.054688 196.351562 L 96.386719 195.910156 L 87.523438 190.492188 L 92.550781 185.363281 L 100.660156 177.257812 L 103.707031 175.121094 L 106.832031 173.289062 L 108.558594 172.652344 L 110.304688 172.285156 L 113.988281 170.992188 L 123.53125 166.34375 L 156.804688 150.132812 L 157.0625 151.746094 L 156.410156 154.382812 L 156.636719 159.09375 L 156.5625 161.601562 L 156.058594 163.683594 L 151.609375 173.734375 L 150.574219 177.792969 L 152.316406 187.59375 L 152.191406 188.605469 L 151.671875 189.628906 L 150.9375 190.628906 L 145.355469 195.03125 L 144.246094 196.496094 L 139.882812 208.222656 L 139.773438 214.414062 L 138.5 219.375 L 135.53125 224.902344 L 131.773438 231.566406 L 129.289062 234.289062 L 127.796875 232.886719 L 125.839844 228.667969 L 124.804688 227.507812 L 122.128906 226.703125 L 117.117188 226.054688 L 114.394531 225.082031 L 114.085938 225.460938 L 113.859375 225.742188 L 117.058594 226.738281 L 121.628906 227.46875 L 123.707031 228.011719 L 124.972656 229.070312 L 126.96875 232.933594 L 128.902344 235.339844 L 127.667969 236.535156 L 123.539062 238.570312 L 122.773438 238.605469 L 119.175781 242.019531 L 115.664062 246.574219 L 115.003906 247.425781 L 108.878906 252.117188 L 105.007812 250.710938 L 104.882812 250.875 L 104.753906 251.042969 L 108.535156 252.476562 L 106.539062 255.542969 L 105.640625 257.410156 L 106.183594 261.691406 L 104.332031 265.761719 L 101.003906 269.109375 L 94.457031 270.941406 L 93.417969 271.769531 L 92.183594 275.824219 L 78.914062 271.648438 L 78.679688 272.054688 L 78.445312 272.457031 L 91.824219 276.757812 L 91.320312 280.21875 L 88.398438 289.21875 L 85.464844 297.382812 L 78.542969 305.261719 L 77.179688 306.410156 L 76.207031 306.90625 L 74.277344 307.015625 L 62.039062 302.324219 L 52.296875 298.5625 L 51.429688 297.460938 L 52.152344 296.109375 L 52.394531 295.988281 L 60.011719 281.449219 L 60.425781 280.675781 L 60.445312 280.625 L 61.636719 278.34375 L 61.71875 276.964844 L 61.722656 276.953125 L 62.027344 273.867188 L 62.097656 270.414062 L 62.476562 263.78125 L 63.203125 260.160156 L 64.238281 256.964844 L 63.644531 255.804688 L 61.265625 253.679688 L 60.835938 253.484375 L 60.519531 253.140625 L 55.195312 250.339844 L 54.238281 249.191406 L 54.179688 248.066406 L 54.503906 246.660156 L 56.019531 243.835938 L 57.113281 241.320312 L 62.433594 225.351562 L 63.644531 221.6875 L 64.089844 218.53125 L 66.15625 212.109375 L 68.390625 207.3125 L 68.554688 206.335938 L 72.664062 204.734375 L 74.515625 203.414062 Z M 75.460938 202.789062 "/>
<path style=" stroke:none;fill-rule:nonzero;fill:rgb(39.99939%,39.99939%,39.99939%);fill-opacity:0.3;" d="M 189.050781 172.296875 L 189.472656 172.335938 L 192.449219 176.789062 L 195.957031 180.21875 L 198.496094 181.898438 L 201.578125 183.382812 L 203.539062 184.195312 L 211.03125 186.945312 L 211.316406 188.71875 L 204.746094 197.40625 L 203.484375 199.359375 L 203.289062 199.59375 L 202.929688 200.21875 L 198.585938 206.929688 L 198.09375 209.722656 L 195.8125 220.660156 L 192.617188 218.09375 L 193.953125 202.042969 L 187.941406 200.082031 L 186.390625 199.40625 L 185.59375 198.371094 L 185.460938 195.496094 Z M 189.050781 172.296875 "/>
<path style=" stroke:none;fill-rule:nonzero;fill:rgb(39.99939%,39.99939%,39.99939%);fill-opacity:0.3;" d="M 197.941406 81.972656 L 197.96875 81.976562 L 196.628906 106.914062 L 196.414062 106.898438 Z M 197.941406 81.972656 "/>
<path style=" stroke:none;fill-rule:nonzero;fill:rgb(39.99939%,39.99939%,39.99939%);fill-opacity:0.3;" d="M 132.128906 52.339844 L 132.667969 51.429688 L 152.140625 52.660156 L 152.359375 53.800781 L 151.371094 79.894531 L 150.972656 83.613281 L 149.714844 104.035156 L 148.960938 104.460938 L 128.390625 100.90625 L 128.507812 95.875 L 128.066406 95.128906 L 131.40625 59.960938 L 131.652344 57.941406 L 131.679688 57.054688 Z M 132.128906 52.339844 "/>
<path style=" stroke:none;fill-rule:nonzero;fill:rgb(39.99939%,39.99939%,39.99939%);fill-opacity:0.3;" d="M 77.304688 190.542969 L 80.324219 186.867188 L 83.480469 184.226562 L 106.769531 164.738281 L 110.011719 159.707031 L 111.5625 158.769531 L 114.320312 158.710938 L 117.007812 159.175781 L 120.683594 163.417969 L 120.71875 164.453125 L 108.359375 170.425781 L 105.171875 172.097656 L 101.625 174.28125 L 97.847656 177.605469 L 87.007812 188.386719 L 74.902344 200.535156 L 74.414062 198.730469 L 74.570312 196.816406 L 75.667969 193.460938 Z M 77.304688 190.542969 "/>
<path style=" stroke:none;fill-rule:nonzero;fill:rgb(39.99939%,39.99939%,39.99939%);fill-opacity:0.3;" d="M 121.027344 141.332031 L 121.707031 142.550781 L 121.21875 147.449219 L 118.84375 156.59375 L 118.550781 157.703125 L 114.9375 157.734375 L 111.410156 158 L 110.277344 158.246094 L 108.480469 159.523438 L 106.707031 163.269531 L 105.433594 164.839844 L 97.269531 171.882812 L 81.300781 184.367188 L 80.058594 183.683594 L 81.292969 179.949219 L 84.375 174.492188 L 84.585938 173.59375 L 85.722656 171.644531 L 85.375 170.242188 L 86.609375 164.980469 L 89.3125 165.390625 L 93.257812 166.339844 L 94.003906 165.03125 L 94.753906 163.726562 L 90.152344 162.609375 L 87.347656 161.828125 L 87.414062 161.574219 L 89.035156 157.28125 L 89.847656 155.605469 L 98.394531 152.574219 L 99.558594 144.746094 L 99.777344 143.6875 L 102.527344 143.078125 L 102.800781 140.320312 L 103.738281 138.628906 L 115.414062 140.457031 Z M 121.027344 141.332031 "/>
<path style=" stroke:none;fill-rule:nonzero;fill:rgb(39.99939%,39.99939%,39.99939%);fill-opacity:0.3;" d="M 123.601562 140.90625 L 130.789062 142.371094 L 135.378906 143.976562 L 143.335938 146.535156 L 153.558594 148.566406 L 153.859375 149.210938 L 125.070312 162.292969 L 121.371094 160.914062 L 120.4375 158.59375 L 120.558594 157.074219 L 122.6875 148.929688 L 122.6875 147.058594 Z M 123.601562 140.90625 "/>
<path style=" stroke:none;fill-rule:nonzero;fill:rgb(39.99939%,39.99939%,39.99939%);fill-opacity:0.3;" d="M 128.246094 80.03125 L 128 85.253906 L 126.4375 89.570312 L 126.332031 89.304688 Z M 128.246094 80.03125 "/>
<path style=" stroke:none;fill-rule:nonzero;fill:rgb(39.99939%,39.99939%,39.99939%);fill-opacity:0.3;" d="M 127.8125 102.890625 L 129.042969 102.011719 L 150.363281 105.621094 L 160.703125 106.714844 L 170.03125 107.285156 L 169.289062 113.242188 L 170.53125 113.285156 L 169.105469 120.902344 L 163.183594 144.78125 L 155.53125 148.351562 L 143.375 145.632812 L 135.746094 143.113281 L 131.179688 141.488281 L 123.347656 140.054688 Z M 127.8125 102.890625 "/>
<path style=" stroke:none;fill-rule:nonzero;fill:rgb(39.99939%,39.99939%,39.99939%);fill-opacity:0.3;" d="M 152.464844 80.632812 L 172.683594 80.785156 L 174.035156 80.34375 L 173.78125 85.003906 L 162.347656 84.183594 L 162.300781 84.644531 L 162.261719 85.054688 L 173.597656 85.992188 L 172.082031 105.664062 L 171.011719 106.136719 L 165.863281 105.589844 L 150.445312 104.457031 L 151.386719 93.414062 Z M 152.464844 80.632812 "/>
<path style=" stroke:none;fill-rule:nonzero;fill:rgb(39.99939%,39.99939%,39.99939%);fill-opacity:0.3;" d="M 188.597656 159.28125 L 188.445312 161.761719 L 188.367188 164.40625 L 188.308594 165.640625 L 188.644531 169.261719 L 188.074219 170.332031 L 184.03125 198.089844 L 173.0625 196.078125 L 165.554688 194.941406 L 153.261719 191.605469 L 152.953125 190.753906 L 153.378906 188.859375 L 153.335938 186.445312 L 152.867188 179.105469 L 152.878906 176.988281 L 154.785156 171.03125 L 156.0625 167.820312 L 157.929688 161.976562 L 157.386719 153.847656 L 158.902344 149.351562 L 176.027344 141.359375 L 180.597656 140.441406 L 186.011719 140.769531 L 190.109375 141.695312 Z M 188.597656 159.28125 "/>
<path style=" stroke:none;fill-rule:nonzero;fill:rgb(39.99939%,39.99939%,39.99939%);fill-opacity:0.3;" d="M 175.320312 80.304688 L 195.914062 81.453125 L 193.863281 107.207031 L 173.257812 106.171875 Z M 175.320312 80.304688 "/>
<path style=" stroke:none;fill-rule:nonzero;fill:rgb(39.99939%,39.99939%,39.99939%);fill-opacity:0.3;" d="M 154.019531 53.632812 L 154.710938 53.050781 L 175.636719 54.078125 L 175.265625 60.214844 L 168.03125 59.585938 L 167.933594 60.324219 L 167.835938 61.066406 L 175.070312 61.667969 L 174.097656 79.515625 L 152.527344 79.625 Z M 154.019531 53.632812 "/>
<path style=" stroke:none;fill-rule:nonzero;fill:rgb(39.99939%,39.99939%,39.99939%);fill-opacity:0.3;" d="M 177.589844 54.164062 L 196.84375 54.769531 L 196.292969 80.457031 L 175.417969 79.425781 Z M 177.589844 54.164062 "/>
<path style=" stroke:none;fill-rule:nonzero;fill:rgb(39.99939%,39.99939%,39.99939%);fill-opacity:0.3;" d="M 117.90625 139.523438 L 116.589844 139.300781 L 116.359375 139.007812 Z M 117.90625 139.523438 "/>
<path style=" stroke:none;fill-rule:nonzero;fill:rgb(39.99939%,39.99939%,39.99939%);fill-opacity:0.3;" d="M 171.332031 107.1875 L 193.734375 108.714844 L 193.707031 112.609375 L 192.675781 123.609375 L 191.71875 131.179688 L 184.773438 129.246094 L 184.398438 130.378906 L 191.5625 132.425781 L 190.722656 139.0625 L 189.144531 138.855469 L 184.597656 139.125 L 180.253906 138.449219 L 172.066406 140.992188 L 165.179688 143.875 L 171.953125 111.648438 L 170.683594 111.976562 Z M 171.332031 107.1875 "/>
<path style=" stroke:none;fill-rule:nonzero;fill:rgb(39.99939%,39.99939%,39.99939%);fill-opacity:0.3;" d="M 180.804688 263.082031 L 177.789062 267.289062 L 172.921875 268.191406 L 167.222656 268.417969 L 162.472656 269.09375 L 158.675781 269.886719 L 154.574219 270.441406 L 150.113281 271.886719 L 145.191406 272.519531 L 140.269531 274.132812 L 136.195312 276.113281 L 132.691406 279.894531 L 129.09375 284.660156 L 125.042969 288.578125 L 120.765625 291.710938 L 113.3125 292.0625 L 106.753906 295.804688 L 104.296875 297.503906 L 96.390625 300.386719 L 88.351562 304.019531 L 86.503906 306.113281 L 83.855469 307.96875 L 80.175781 308.570312 L 76.679688 307.953125 L 85.617188 299.234375 L 87.011719 296.65625 L 88.84375 291.230469 L 92.316406 280.546875 L 93.214844 276.996094 L 93.734375 273.824219 L 94.132812 272.859375 L 94.914062 272.015625 L 96.070312 271.332031 L 97.285156 270.9375 L 98.5 270.71875 L 100.109375 270.363281 L 101.542969 269.714844 L 104.597656 266.570312 L 106.121094 264.859375 L 107.304688 261.808594 L 107.28125 261.121094 L 106.765625 258.589844 L 107.050781 256.523438 L 108.246094 254.320312 L 109.933594 252.707031 L 116.140625 247.664062 L 120.199219 241.992188 L 122.25 240.054688 L 128.367188 236.878906 L 130.960938 234.503906 L 132.605469 232.675781 L 136.542969 236.910156 L 138.890625 238.066406 L 144.566406 239.324219 L 149.335938 242.507812 L 144.753906 251.214844 L 145.15625 251.324219 L 145.5625 251.433594 L 149.820312 243.554688 L 153.152344 244.851562 L 159.125 246.144531 L 159.285156 245.023438 L 151.691406 243.144531 L 144.667969 238.40625 L 139.144531 237.144531 L 136.992188 236.046875 L 133.15625 231.28125 L 140.535156 218.265625 L 140.683594 217.421875 L 141.398438 208.375 L 145.84375 196.027344 L 151.6875 192.1875 L 155.40625 193.945312 L 160.460938 195.148438 L 156.824219 207.382812 L 157.257812 207.441406 L 157.695312 207.496094 L 161.328125 195.320312 L 168.632812 197.09375 L 165.890625 214.160156 L 166.28125 214.179688 L 166.675781 214.199219 L 169.574219 196.839844 L 186.980469 200.558594 L 192.957031 202.820312 L 192.496094 206.296875 L 191.648438 210.550781 L 178.167969 205.523438 L 178.042969 205.847656 L 177.921875 206.171875 L 191.554688 211.566406 L 190.90625 215.285156 L 190.722656 218.820312 L 195.097656 222.875 L 193.691406 226.445312 L 190.101562 230.925781 L 187.851562 242.507812 L 186.234375 245.71875 L 185 248.417969 L 183.890625 252.40625 L 182.039062 257.097656 Z M 180.804688 263.082031 "/>
<path style=" stroke:none;fill-rule:nonzero;fill:rgb(39.99939%,39.99939%,39.99939%);fill-opacity:0.3;" d="M 246.566406 33.417969 L 268.761719 34.90625 L 265.5 58.953125 L 246.28125 57.011719 L 245.277344 53.265625 L 241.621094 51.285156 L 241.382812 46.722656 L 241.714844 44.578125 Z M 246.566406 33.417969 "/>
<path style=" stroke:none;fill-rule:nonzero;fill:rgb(39.99939%,39.99939%,39.99939%);fill-opacity:0.3;" d="M 216.109375 163.160156 L 217.605469 162.957031 L 249.398438 173.664062 L 262.128906 173.734375 L 273.480469 176.613281 L 273.207031 179.886719 L 277.832031 181.671875 L 276.664062 184.570312 L 275.675781 190.179688 L 274.171875 195.089844 L 274.132812 196.84375 L 274.324219 198.320312 L 275.507812 199.847656 L 276.289062 200.203125 L 279.035156 201.164062 L 282.019531 210.023438 L 286.082031 217.003906 L 285.746094 221.304688 L 280.644531 220.558594 L 269.09375 220.226562 L 264.585938 220.722656 L 262.011719 219.664062 L 260.324219 219.160156 L 257.019531 217.050781 L 254.515625 214.992188 L 241.835938 200.714844 L 239.558594 198.378906 L 234.792969 194.238281 L 232.699219 192.949219 L 228.144531 190.867188 L 214.859375 186.246094 L 215.527344 180.621094 L 214.738281 172.148438 Z M 216.109375 163.160156 "/>
<path style=" stroke:none;fill-rule:nonzero;fill:rgb(39.99939%,39.99939%,39.99939%);fill-opacity:0.3;" d="M 211.316406 188.71875 L 211.339844 188.863281 L 210.167969 191.265625 L 203.484375 199.359375 L 204.746094 197.40625 Z M 211.316406 188.71875 "/>
<path style=" stroke:none;fill-rule:nonzero;fill:rgb(39.99939%,39.99939%,39.99939%);fill-opacity:0.3;" d="M 202.929688 200.21875 L 198.472656 207.90625 L 198.09375 209.722656 L 198.585938 206.929688 Z M 202.929688 200.21875 "/>
<path style=" stroke:none;fill-rule:nonzero;fill:rgb(39.99939%,39.99939%,39.99939%);fill-opacity:0.3;" d="M 210.550781 9.324219 L 225.488281 10.011719 L 225.070312 29.917969 L 209.632812 29.238281 Z M 210.550781 9.324219 "/>
<path style=" stroke:none;fill-rule:nonzero;fill:rgb(39.99939%,39.99939%,39.99939%);fill-opacity:0.3;" d="M 209.902344 30.761719 L 225.011719 31.414062 L 223.488281 54.472656 L 208.164062 52.867188 Z M 209.902344 30.761719 "/>
<path style=" stroke:none;fill-rule:nonzero;fill:rgb(39.99939%,39.99939%,39.99939%);fill-opacity:0.3;" d="M 198.816406 8.605469 L 199.257812 8.085938 L 207.824219 8.742188 L 208.199219 9.210938 L 205.859375 51 L 205.199219 51.453125 L 204.941406 51.722656 L 198.15625 51.347656 L 197.382812 50.707031 L 196.851562 49.765625 Z M 198.816406 8.605469 "/>
<path style=" stroke:none;fill-rule:nonzero;fill:rgb(39.99939%,39.99939%,39.99939%);fill-opacity:0.3;" d="M 227.101562 32.285156 L 244.996094 33.535156 L 239.59375 44.449219 L 239.792969 51.488281 L 244.378906 53.90625 L 244.5 56.527344 L 224.859375 54.851562 Z M 227.101562 32.285156 "/>
<path style=" stroke:none;fill-rule:nonzero;fill:rgb(39.99939%,39.99939%,39.99939%);fill-opacity:0.3;" d="M 227.492188 9.683594 L 237.546875 9.394531 L 239.355469 8.398438 L 244.578125 7.921875 L 252.609375 8.023438 L 253.007812 9.175781 L 246.015625 31.328125 L 226.757812 29.847656 Z M 227.492188 9.683594 "/>
<path style=" stroke:none;fill-rule:nonzero;fill:rgb(39.99939%,39.99939%,39.99939%);fill-opacity:0.3;" d="M 255.832031 8.984375 L 270.300781 12.75 L 270.097656 23.871094 L 269.410156 33.074219 L 247.765625 31.410156 L 254.175781 13.351562 Z M 255.832031 8.984375 "/>
<path style=" stroke:none;fill-rule:nonzero;fill:rgb(39.99939%,39.99939%,39.99939%);fill-opacity:0.3;" d="M 274.898438 254.664062 L 271.894531 247.210938 L 269.980469 238.949219 L 269.601562 235.25 L 270.445312 230.359375 L 274.203125 230.765625 L 282.324219 231.917969 L 285.195312 233.117188 L 285.445312 235.515625 L 286.566406 237.914062 L 289.089844 238.980469 L 296.085938 240.246094 L 291.023438 243.328125 L 287.429688 245.917969 L 281.367188 250.402344 L 277.714844 253.164062 Z M 274.898438 254.664062 "/>
<path style=" stroke:none;fill-rule:nonzero;fill:rgb(39.99939%,39.99939%,39.99939%);fill-opacity:0.3;" d="M 277.460938 222.136719 L 281.015625 222.375 L 283.597656 222.957031 L 286.804688 224.175781 L 285.742188 231.699219 L 282.941406 230.894531 L 278.242188 230.132812 L 272.546875 229.140625 L 271.816406 227.851562 L 270.335938 222.820312 Z M 277.460938 222.136719 "/>
<path style=" stroke:none;fill-rule:nonzero;fill:rgb(39.99939%,39.99939%,39.99939%);fill-opacity:0.3;" d="M 288.390625 225.15625 L 292.011719 227.921875 L 296.730469 232.460938 L 300.351562 236.414062 L 302.539062 238.664062 L 302.742188 239.183594 L 302.671875 239.769531 L 302.234375 240.285156 L 297.339844 239.652344 L 288.734375 237.40625 L 287.59375 236.550781 L 287.039062 235.820312 L 286.796875 234.285156 Z M 288.390625 225.15625 "/>
<path style=" stroke:none;fill-rule:nonzero;fill:rgb(39.99939%,39.99939%,39.99939%);fill-opacity:0.3;" d="M 308.132812 239.429688 L 308.039062 239.421875 L 305.679688 239.230469 L 306.445312 238.867188 Z M 308.132812 239.429688 "/>
<path style=" stroke:none;fill-rule:nonzero;fill:rgb(39.99939%,39.99939%,39.99939%);fill-opacity:0.3;" d="M 219.746094 110.992188 L 241.453125 112.859375 L 238.75 132.304688 L 237.1875 146.636719 L 237.121094 158.042969 L 235.570312 163.402344 L 233.683594 166.703125 L 217.910156 161.875 L 215.585938 161.855469 L 212.964844 148.910156 L 214.121094 141.074219 L 216.125 132.292969 L 218.015625 125.3125 L 219.464844 115.585938 Z M 219.746094 110.992188 "/>
<path style=" stroke:none;fill-rule:nonzero;fill:rgb(39.99939%,39.99939%,39.99939%);fill-opacity:0.3;" d="M 190.707031 159.625 L 205.808594 163.691406 L 214.667969 163.3125 L 213.175781 172.285156 L 214.242188 181.382812 L 213.636719 186.011719 L 199.28125 179.820312 L 197.15625 178.074219 L 194.6875 175.597656 L 193.421875 173.902344 L 192.507812 172.261719 L 190.832031 167.613281 L 190.46875 161.71875 Z M 190.707031 159.625 "/>
<path style=" stroke:none;fill-rule:nonzero;fill:rgb(39.99939%,39.99939%,39.99939%);fill-opacity:0.3;" d="M 196.589844 108.664062 L 218.125 110.796875 L 217.238281 116.582031 L 215.457031 125.421875 L 214.121094 132.082031 L 212.769531 141.292969 L 212.007812 146.46875 L 211.960938 148.96875 L 212.636719 152.832031 L 213.664062 158.3125 L 213.921875 161.691406 L 204.84375 161.597656 L 191.375 158.382812 L 196.285156 115.195312 Z M 196.589844 108.664062 "/>
<path style=" stroke:none;fill-rule:nonzero;fill:rgb(39.99939%,39.99939%,39.99939%);fill-opacity:0.3;" d="M 197.96875 81.976562 L 219.945312 84.566406 L 216.363281 108.554688 L 196.628906 106.914062 Z M 197.96875 81.976562 "/>
<path style=" stroke:none;fill-rule:nonzero;fill:rgb(39.99939%,39.99939%,39.99939%);fill-opacity:0.3;" d="M 219.722656 108.96875 L 220.5625 103.371094 L 221.617188 100.921875 L 223.328125 98.78125 L 224.757812 97.386719 L 225.78125 96.804688 L 228.800781 96.34375 L 230.695312 96.285156 L 233.949219 96.917969 L 236.535156 97.722656 L 239.589844 98.910156 L 242.019531 100.699219 L 241.253906 110.898438 Z M 219.722656 108.96875 "/>
<path style=" stroke:none;fill-rule:nonzero;fill:rgb(39.99939%,39.99939%,39.99939%);fill-opacity:0.3;" d="M 225.035156 57.300781 L 244.996094 59.386719 L 242.191406 98.273438 L 239.289062 96.398438 L 236.980469 94.910156 L 232.460938 93.875 L 229.949219 93.632812 L 227.296875 93.582031 L 224.117188 94.449219 L 220.738281 96.691406 L 224.25 65.109375 L 228.753906 66.777344 L 228.78125 66.464844 L 228.8125 66.152344 L 224.242188 64.390625 Z M 225.035156 57.300781 "/>
<path style=" stroke:none;fill-rule:nonzero;fill:rgb(39.99939%,39.99939%,39.99939%);fill-opacity:0.3;" d="M 199.972656 54.988281 L 204.566406 55.242188 L 199.726562 63.011719 Z M 199.972656 54.988281 "/>
<path style=" stroke:none;fill-rule:nonzero;fill:rgb(39.99939%,39.99939%,39.99939%);fill-opacity:0.3;" d="M 243.105469 112.914062 L 260.042969 114.503906 L 253.867188 152.96875 L 252.03125 157.566406 L 252.125 161.199219 L 249.890625 172.082031 L 235.457031 167.289062 L 236.75 164.0625 L 238.382812 158.394531 L 238.65625 154.269531 L 239.460938 143.808594 Z M 243.105469 112.914062 "/>
<path style=" stroke:none;fill-rule:nonzero;fill:rgb(39.99939%,39.99939%,39.99939%);fill-opacity:0.3;" d="M 244.941406 85.472656 L 262.613281 87.707031 L 261.089844 112.949219 L 242.964844 110.9375 Z M 244.941406 85.472656 "/>
<path style=" stroke:none;fill-rule:nonzero;fill:rgb(39.99939%,39.99939%,39.99939%);fill-opacity:0.3;" d="M 247.054688 59.507812 L 254.988281 60.289062 L 255.289062 65.863281 L 256.113281 65.863281 L 255.8125 60.367188 L 259.359375 60.699219 L 259.421875 60.257812 L 265.621094 60.882812 L 263.417969 81.015625 L 254.996094 78.390625 L 254.730469 78.875 L 263.367188 81.644531 L 262.886719 86.128906 L 245.011719 83.878906 Z M 247.054688 59.507812 "/>
<path style=" stroke:none;fill-rule:nonzero;fill:rgb(39.99939%,39.99939%,39.99939%);fill-opacity:0.3;" d="M 252.167969 172.390625 L 251.398438 172.371094 L 251.453125 172.128906 Z M 252.167969 172.390625 "/>
<path style=" stroke:none;fill-rule:nonzero;fill:rgb(39.99939%,39.99939%,39.99939%);fill-opacity:0.3;" d="M 253.433594 162.859375 L 253.625 158.246094 L 253.746094 157.8125 L 253.476562 162.679688 Z M 253.433594 162.859375 "/>
<path style=" stroke:none;fill-rule:nonzero;fill:rgb(39.99939%,39.99939%,39.99939%);fill-opacity:0.3;" d="M 286.101562 215.636719 L 283.238281 210.894531 L 281.457031 206.335938 L 280.78125 204.488281 L 280.660156 204.039062 L 282.601562 208.890625 Z M 286.101562 215.636719 "/>
<path style=" stroke:none;fill-rule:nonzero;fill:rgb(39.99939%,39.99939%,39.99939%);fill-opacity:0.3;" d="M 277.785156 199.703125 L 276.621094 199.414062 L 275.519531 198.605469 L 275.050781 197.835938 L 275.027344 197.671875 L 275.601562 198.527344 Z M 277.785156 199.703125 "/>
<path style=" stroke:none;fill-rule:nonzero;fill:rgb(39.99939%,39.99939%,39.99939%);fill-opacity:0.3;" d="M 277.988281 180.828125 L 274.488281 179.695312 L 274.601562 178.734375 L 274.761719 179.484375 Z M 277.988281 180.828125 "/>
<path style=" stroke:none;fill-rule:nonzero;fill:rgb(39.99939%,39.99939%,39.99939%);fill-opacity:0.3;" d="M 206.566406 55.226562 L 223.292969 57.242188 L 222.578125 63.890625 L 216.71875 63.207031 L 216.695312 63.625 L 216.675781 63.996094 L 222.476562 64.78125 L 221.699219 71.699219 L 216.859375 71.335938 L 216.84375 71.917969 L 216.828125 72.566406 L 221.5625 72.925781 L 220.410156 83.1875 L 198.4375 80.574219 L 198.816406 74.113281 L 203.78125 74.566406 L 203.832031 73.957031 L 203.882812 73.351562 L 198.890625 72.898438 L 199.558594 66.691406 Z M 206.566406 55.226562 "/>
<path style=" stroke:none;fill-rule:nonzero;fill:rgb(39.99939%,39.99939%,39.99939%);fill-opacity:0.3;" d="M 205.480469 198.015625 L 207.941406 194.996094 L 213.628906 187.714844 L 218.203125 189.261719 L 224.933594 191.964844 L 228.355469 193.589844 L 231.863281 195.296875 L 235.195312 197.691406 L 238.527344 200.679688 L 243.070312 204.773438 L 248.457031 210.722656 L 249.464844 211.835938 L 251.789062 214.84375 L 254.851562 218.261719 L 259.292969 220.996094 L 260.046875 221.144531 L 267.710938 222.667969 L 268.449219 227.652344 L 267.847656 235.140625 L 268.398438 237.6875 L 256.421875 235.707031 L 256.242188 236.378906 L 256.066406 237.054688 L 268.71875 239.195312 L 270.191406 247.757812 L 272.335938 251.925781 L 273.566406 255.613281 L 265.179688 257.480469 L 262.90625 258.425781 L 258.902344 261.742188 L 257.535156 262.546875 L 253.097656 263.425781 L 254.238281 251.382812 L 253.640625 251.300781 L 253.042969 251.222656 L 251.648438 263.738281 L 247.148438 265.273438 L 241.804688 265.660156 L 242.378906 248.15625 L 240.945312 246.925781 L 238.21875 246.492188 L 237.046875 247.316406 L 229.933594 245.6875 L 225.730469 243.949219 L 225.707031 236.097656 L 225.554688 233.386719 L 225.214844 232.605469 L 224.601562 232.371094 L 218.355469 231.792969 L 217.375 231.152344 L 218.175781 227.914062 L 219.859375 222.175781 L 222.695312 211.234375 L 222.871094 204.5 L 202.679688 202.472656 Z M 205.480469 198.015625 "/>
<path style=" stroke:none;fill-rule:nonzero;fill:rgb(39.99939%,39.99939%,39.99939%);fill-opacity:0.3;" d="M 113.484375 1.304688 L 133.085938 2.679688 L 132.609375 23.046875 L 111.820312 22.390625 L 111.886719 21.058594 Z M 113.484375 1.304688 "/>
<path style=" stroke:none;fill-rule:nonzero;fill:rgb(39.99939%,39.99939%,39.99939%);fill-opacity:0.3;" d="M 135.433594 23.464844 L 135.773438 2.789062 L 163.515625 4.566406 L 181.292969 5.707031 L 194.878906 7.894531 L 195.683594 8.582031 L 195.066406 26.351562 L 194.636719 26.796875 L 193.792969 26.945312 Z M 135.433594 23.464844 "/>
<path style=" stroke:none;fill-rule:nonzero;fill:rgb(39.99939%,39.99939%,39.99939%);fill-opacity:0.3;" d="M 135.390625 26.101562 L 193.925781 29.445312 L 194.46875 30.304688 L 193.550781 49.761719 L 192.804688 50.941406 L 151.105469 49.464844 L 134.195312 48.847656 Z M 135.390625 26.101562 "/>
<path style="fill-rule:nonzero;fill:rgb(39.99939%,39.99939%,39.99939%);fill-opacity:1;stroke-width:0.03;stroke-linecap:square;stroke-linejoin:miter;stroke:rgb(39.99939%,39.99939%,39.99939%);stroke-opacity:1;stroke-miterlimit:3.239307;" d="M 172.007812 157.082031 L 171.230469 164.171875 L 163.832031 165.835938 L 159.699219 164.054688 L 163.925781 161.679688 L 168.964844 157.757812 Z M 172.007812 157.082031 " transform="matrix(1,0,0,1,-74,-13)"/>
<path style="fill-rule:nonzero;fill:rgb(39.99939%,39.99939%,39.99939%);fill-opacity:1;stroke-width:0.03;stroke-linecap:square;stroke-linejoin:miter;stroke:rgb(39.99939%,39.99939%,39.99939%);stroke-opacity:1;stroke-miterlimit:3.239307;" d="M 149.460938 215.789062 L 160.617188 204.414062 L 169.714844 209.800781 L 170.054688 209.351562 L 170.386719 208.910156 L 161.523438 203.492188 L 166.550781 198.363281 L 174.660156 190.257812 L 177.707031 188.121094 L 180.832031 186.289062 L 182.558594 185.652344 L 184.304688 185.285156 L 187.988281 183.992188 L 197.53125 179.34375 L 230.804688 163.132812 L 231.0625 164.746094 L 230.410156 167.382812 L 230.636719 172.09375 L 230.5625 174.601562 L 230.058594 176.683594 L 225.609375 186.734375 L 224.574219 190.792969 L 226.316406 200.59375 L 226.191406 201.605469 L 225.671875 202.628906 L 224.9375 203.628906 L 219.355469 208.03125 L 218.246094 209.496094 L 213.882812 221.222656 L 213.773438 227.414062 L 212.5 232.375 L 209.53125 237.902344 L 205.773438 244.566406 L 203.289062 247.289062 L 201.796875 245.886719 L 199.839844 241.667969 L 198.804688 240.507812 L 196.128906 239.703125 L 191.117188 239.054688 L 188.394531 238.082031 L 188.085938 238.460938 L 187.859375 238.742188 L 191.058594 239.738281 L 195.628906 240.46875 L 197.707031 241.011719 L 198.972656 242.070312 L 200.96875 245.933594 L 202.902344 248.339844 L 201.667969 249.535156 L 197.539062 251.570312 L 196.773438 251.605469 L 193.175781 255.019531 L 189.664062 259.574219 L 189.003906 260.425781 L 182.878906 265.117188 L 179.007812 263.710938 L 178.882812 263.875 L 178.753906 264.042969 L 182.535156 265.476562 L 180.539062 268.542969 L 179.640625 270.410156 L 180.183594 274.691406 L 178.332031 278.761719 L 175.003906 282.109375 L 168.457031 283.941406 L 167.417969 284.769531 L 166.183594 288.824219 L 152.914062 284.648438 L 152.679688 285.054688 L 152.445312 285.457031 L 165.824219 289.757812 L 165.320312 293.21875 L 162.398438 302.21875 L 159.464844 310.382812 L 152.542969 318.261719 L 151.179688 319.410156 L 150.207031 319.90625 L 148.277344 320.015625 L 136.039062 315.324219 L 126.296875 311.5625 L 125.429688 310.460938 L 126.152344 309.109375 L 126.394531 308.988281 L 134.011719 294.449219 L 134.425781 293.675781 L 134.445312 293.625 L 135.636719 291.34375 L 135.71875 289.964844 L 135.722656 289.953125 L 136.027344 286.867188 L 136.097656 283.414062 L 136.476562 276.78125 L 137.203125 273.160156 L 138.238281 269.964844 L 137.644531 268.804688 L 135.265625 266.679688 L 134.835938 266.484375 L 134.519531 266.140625 L 129.195312 263.339844 L 128.238281 262.191406 L 128.179688 261.066406 L 128.503906 259.660156 L 130.019531 256.835938 L 131.113281 254.320312 L 136.433594 238.351562 L 137.644531 234.6875 L 138.089844 231.53125 L 140.15625 225.109375 L 142.390625 220.3125 L 142.554688 219.335938 L 146.664062 217.734375 L 148.515625 216.414062 Z M 149.460938 215.789062 " transform="matrix(1,0,0,1,-74,-13)"/>
<path style="fill-rule:nonzero;fill:rgb(39.99939%,39.99939%,39.99939%);fill-opacity:1;stroke-width:0.03;stroke-linecap:square;stroke-linejoin:miter;stroke:rgb(39.99939%,39.99939%,39.99939%);stroke-opacity:1;stroke-miterlimit:3.239307;" d="M 263.050781 185.296875 L 263.472656 185.335938 L 266.449219 189.789062 L 269.957031 193.21875 L 272.496094 194.898438 L 275.578125 196.382812 L 277.539062 197.195312 L 285.03125 199.945312 L 285.316406 201.71875 L 278.746094 210.40625 L 277.484375 212.359375 L 277.289062 212.59375 L 276.929688 213.21875 L 272.585938 219.929688 L 272.09375 222.722656 L 269.8125 233.660156 L 266.617188 231.09375 L 267.953125 215.042969 L 261.941406 213.082031 L 260.390625 212.40625 L 259.59375 211.371094 L 259.460938 208.496094 Z M 263.050781 185.296875 " transform="matrix(1,0,0,1,-74,-13)"/>
<path style="fill-rule:nonzero;fill:rgb(39.99939%,39.99939%,39.99939%);fill-opacity:1;stroke-width:0.03;stroke-linecap:square;stroke-linejoin:miter;stroke:rgb(39.99939%,39.99939%,39.99939%);stroke-opacity:1;stroke-miterlimit:3.239307;" d="M 271.941406 94.972656 L 271.96875 94.976562 L 270.628906 119.914062 L 270.414062 119.898438 Z M 271.941406 94.972656 " transform="matrix(1,0,0,1,-74,-13)"/>
<path style="fill-rule:nonzero;fill:rgb(39.99939%,39.99939%,39.99939%);fill-opacity:1;stroke-width:0.03;stroke-linecap:square;stroke-linejoin:miter;stroke:rgb(39.99939%,39.99939%,39.99939%);stroke-opacity:1;stroke-miterlimit:3.239307;" d="M 206.128906 65.339844 L 206.667969 64.429688 L 226.140625 65.660156 L 226.359375 66.800781 L 225.371094 92.894531 L 224.972656 96.613281 L 223.714844 117.035156 L 222.960938 117.460938 L 202.390625 113.90625 L 202.507812 108.875 L 202.066406 108.128906 L 205.40625 72.960938 L 205.652344 70.941406 L 205.679688 70.054688 Z M 206.128906 65.339844 " transform="matrix(1,0,0,1,-74,-13)"/>
<path style="fill-rule:nonzero;fill:rgb(39.99939%,39.99939%,39.99939%);fill-opacity:1;stroke-width:0.03;stroke-linecap:square;stroke-linejoin:miter;stroke:rgb(39.99939%,39.99939%,39.99939%);stroke-opacity:1;stroke-miterlimit:3.239307;" d="M 151.304688 203.542969 L 154.324219 199.867188 L 157.480469 197.226562 L 180.769531 177.738281 L 184.011719 172.707031 L 185.5625 171.769531 L 188.320312 171.710938 L 191.007812 172.175781 L 194.683594 176.417969 L 194.71875 177.453125 L 182.359375 183.425781 L 179.171875 185.097656 L 175.625 187.28125 L 171.847656 190.605469 L 161.007812 201.386719 L 148.902344 213.535156 L 148.414062 211.730469 L 148.570312 209.816406 L 149.667969 206.460938 Z M 151.304688 203.542969 " transform="matrix(1,0,0,1,-74,-13)"/>
<path style="fill-rule:nonzero;fill:rgb(39.99939%,39.99939%,39.99939%);fill-opacity:1;stroke-width:0.03;stroke-linecap:square;stroke-linejoin:miter;stroke:rgb(39.99939%,39.99939%,39.99939%);stroke-opacity:1;stroke-miterlimit:3.239307;" d="M 195.027344 154.332031 L 195.707031 155.550781 L 195.21875 160.449219 L 192.84375 169.59375 L 192.550781 170.703125 L 188.9375 170.734375 L 185.410156 171 L 184.277344 171.246094 L 182.480469 172.523438 L 180.707031 176.269531 L 179.433594 177.839844 L 171.269531 184.882812 L 155.300781 197.367188 L 154.058594 196.683594 L 155.292969 192.949219 L 158.375 187.492188 L 158.585938 186.59375 L 159.722656 184.644531 L 159.375 183.242188 L 160.609375 177.980469 L 163.3125 178.390625 L 167.257812 179.339844 L 168.003906 178.03125 L 168.753906 176.726562 L 164.152344 175.609375 L 161.347656 174.828125 L 161.414062 174.574219 L 163.035156 170.28125 L 163.847656 168.605469 L 172.394531 165.574219 L 173.558594 157.746094 L 173.777344 156.6875 L 176.527344 156.078125 L 176.800781 153.320312 L 177.738281 151.628906 L 189.414062 153.457031 Z M 195.027344 154.332031 " transform="matrix(1,0,0,1,-74,-13)"/>
<path style="fill-rule:nonzero;fill:rgb(39.99939%,39.99939%,39.99939%);fill-opacity:1;stroke-width:0.03;stroke-linecap:square;stroke-linejoin:miter;stroke:rgb(39.99939%,39.99939%,39.99939%);stroke-opacity:1;stroke-miterlimit:3.239307;" d="M 197.601562 153.90625 L 204.789062 155.371094 L 209.378906 156.976562 L 217.335938 159.535156 L 227.558594 161.566406 L 227.859375 162.210938 L 199.070312 175.292969 L 195.371094 173.914062 L 194.4375 171.59375 L 194.558594 170.074219 L 196.6875 161.929688 L 196.6875 160.058594 Z M 197.601562 153.90625 " transform="matrix(1,0,0,1,-74,-13)"/>
<path style="fill-rule:nonzero;fill:rgb(39.99939%,39.99939%,39.99939%);fill-opacity:1;stroke-width:0.03;stroke-linecap:square;stroke-linejoin:miter;stroke:rgb(39.99939%,39.99939%,39.99939%);stroke-opacity:1;stroke-miterlimit:3.239307;" d="M 202.246094 93.03125 L 202 98.253906 L 200.4375 102.570312 L 200.332031 102.304688 Z M 202.246094 93.03125 " transform="matrix(1,0,0,1,-74,-13)"/>
<path style="fill-rule:nonzero;fill:rgb(39.99939%,39.99939%,39.99939%);fill-opacity:1;stroke-width:0.03;stroke-linecap:square;stroke-linejoin:miter;stroke:rgb(39.99939%,39.99939%,39.99939%);stroke-opacity:1;stroke-miterlimit:3.239307;" d="M 201.8125 115.890625 L 203.042969 115.011719 L 224.363281 118.621094 L 234.703125 119.714844 L 244.03125 120.285156 L 243.289062 126.242188 L 244.53125 126.285156 L 243.105469 133.902344 L 237.183594 157.78125 L 229.53125 161.351562 L 217.375 158.632812 L 209.746094 156.113281 L 205.179688 154.488281 L 197.347656 153.054688 Z M 201.8125 115.890625 " transform="matrix(1,0,0,1,-74,-13)"/>
<path style="fill-rule:nonzero;fill:rgb(39.99939%,39.99939%,39.99939%);fill-opacity:1;stroke-width:0.03;stroke-linecap:square;stroke-linejoin:miter;stroke:rgb(39.99939%,39.99939%,39.99939%);stroke-opacity:1;stroke-miterlimit:3.239307;" d="M 226.464844 93.632812 L 246.683594 93.785156 L 248.035156 93.34375 L 247.78125 98.003906 L 236.347656 97.183594 L 236.300781 97.644531 L 236.261719 98.054688 L 247.597656 98.992188 L 246.082031 118.664062 L 245.011719 119.136719 L 239.863281 118.589844 L 224.445312 117.457031 L 225.386719 106.414062 Z M 226.464844 93.632812 " transform="matrix(1,0,0,1,-74,-13)"/>
<path style="fill-rule:nonzero;fill:rgb(39.99939%,39.99939%,39.99939%);fill-opacity:1;stroke-width:0.03;stroke-linecap:square;stroke-linejoin:miter;stroke:rgb(39.99939%,39.99939%,39.99939%);stroke-opacity:1;stroke-miterlimit:3.239307;" d="M 262.597656 172.28125 L 262.445312 174.761719 L 262.367188 177.40625 L 262.308594 178.640625 L 262.644531 182.261719 L 262.074219 183.332031 L 258.03125 211.089844 L 247.0625 209.078125 L 239.554688 207.941406 L 227.261719 204.605469 L 226.953125 203.753906 L 227.378906 201.859375 L 227.335938 199.445312 L 226.867188 192.105469 L 226.878906 189.988281 L 228.785156 184.03125 L 230.0625 180.820312 L 231.929688 174.976562 L 231.386719 166.847656 L 232.902344 162.351562 L 250.027344 154.359375 L 254.597656 153.441406 L 260.011719 153.769531 L 264.109375 154.695312 Z M 262.597656 172.28125 " transform="matrix(1,0,0,1,-74,-13)"/>
<path style="fill-rule:nonzero;fill:rgb(39.99939%,39.99939%,39.99939%);fill-opacity:1;stroke-width:0.03;stroke-linecap:square;stroke-linejoin:miter;stroke:rgb(39.99939%,39.99939%,39.99939%);stroke-opacity:1;stroke-miterlimit:3.239307;" d="M 249.320312 93.304688 L 269.914062 94.453125 L 267.863281 120.207031 L 247.257812 119.171875 Z M 249.320312 93.304688 " transform="matrix(1,0,0,1,-74,-13)"/>
<path style="fill-rule:nonzero;fill:rgb(39.99939%,39.99939%,39.99939%);fill-opacity:1;stroke-width:0.03;stroke-linecap:square;stroke-linejoin:miter;stroke:rgb(39.99939%,39.99939%,39.99939%);stroke-opacity:1;stroke-miterlimit:3.239307;" d="M 228.019531 66.632812 L 228.710938 66.050781 L 249.636719 67.078125 L 249.265625 73.214844 L 242.03125 72.585938 L 241.933594 73.324219 L 241.835938 74.066406 L 249.070312 74.667969 L 248.097656 92.515625 L 226.527344 92.625 Z M 228.019531 66.632812 " transform="matrix(1,0,0,1,-74,-13)"/>
<path style="fill-rule:nonzero;fill:rgb(39.99939%,39.99939%,39.99939%);fill-opacity:1;stroke-width:0.03;stroke-linecap:square;stroke-linejoin:miter;stroke:rgb(39.99939%,39.99939%,39.99939%);stroke-opacity:1;stroke-miterlimit:3.239307;" d="M 251.589844 67.164062 L 270.84375 67.769531 L 270.292969 93.457031 L 249.417969 92.425781 Z M 251.589844 67.164062 " transform="matrix(1,0,0,1,-74,-13)"/>
<path style="fill-rule:nonzero;fill:rgb(39.99939%,39.99939%,39.99939%);fill-opacity:1;stroke-width:0.03;stroke-linecap:square;stroke-linejoin:miter;stroke:rgb(39.99939%,39.99939%,39.99939%);stroke-opacity:1;stroke-miterlimit:3.239307;" d="M 191.90625 152.523438 L 190.589844 152.300781 L 190.359375 152.007812 Z M 191.90625 152.523438 " transform="matrix(1,0,0,1,-74,-13)"/>
<path style="fill-rule:nonzero;fill:rgb(39.99939%,39.99939%,39.99939%);fill-opacity:1;stroke-width:0.03;stroke-linecap:square;stroke-linejoin:miter;stroke:rgb(39.99939%,39.99939%,39.99939%);stroke-opacity:1;stroke-miterlimit:3.239307;" d="M 245.332031 120.1875 L 267.734375 121.714844 L 267.707031 125.609375 L 266.675781 136.609375 L 265.71875 144.179688 L 258.773438 142.246094 L 258.398438 143.378906 L 265.5625 145.425781 L 264.722656 152.0625 L 263.144531 151.855469 L 258.597656 152.125 L 254.253906 151.449219 L 246.066406 153.992188 L 239.179688 156.875 L 245.953125 124.648438 L 244.683594 124.976562 Z M 245.332031 120.1875 " transform="matrix(1,0,0,1,-74,-13)"/>
<path style="fill-rule:nonzero;fill:rgb(39.99939%,39.99939%,39.99939%);fill-opacity:1;stroke-width:0.03;stroke-linecap:square;stroke-linejoin:miter;stroke:rgb(39.99939%,39.99939%,39.99939%);stroke-opacity:1;stroke-miterlimit:3.239307;" d="M 254.804688 276.082031 L 251.789062 280.289062 L 246.921875 281.191406 L 241.222656 281.417969 L 236.472656 282.09375 L 232.675781 282.886719 L 228.574219 283.441406 L 224.113281 284.886719 L 219.191406 285.519531 L 214.269531 287.132812 L 210.195312 289.113281 L 206.691406 292.894531 L 203.09375 297.660156 L 199.042969 301.578125 L 194.765625 304.710938 L 187.3125 305.0625 L 180.753906 308.804688 L 178.296875 310.503906 L 170.390625 313.386719 L 162.351562 317.019531 L 160.503906 319.113281 L 157.855469 320.96875 L 154.175781 321.570312 L 150.679688 320.953125 L 159.617188 312.234375 L 161.011719 309.65625 L 162.84375 304.230469 L 166.316406 293.546875 L 167.214844 289.996094 L 167.734375 286.824219 L 168.132812 285.859375 L 168.914062 285.015625 L 170.070312 284.332031 L 171.285156 283.9375 L 172.5 283.71875 L 174.109375 283.363281 L 175.542969 282.714844 L 178.597656 279.570312 L 180.121094 277.859375 L 181.304688 274.808594 L 181.28125 274.121094 L 180.765625 271.589844 L 181.050781 269.523438 L 182.246094 267.320312 L 183.933594 265.707031 L 190.140625 260.664062 L 194.199219 254.992188 L 196.25 253.054688 L 202.367188 249.878906 L 204.960938 247.503906 L 206.605469 245.675781 L 210.542969 249.910156 L 212.890625 251.066406 L 218.566406 252.324219 L 223.335938 255.507812 L 218.753906 264.214844 L 219.15625 264.324219 L 219.5625 264.433594 L 223.820312 256.554688 L 227.152344 257.851562 L 233.125 259.144531 L 233.285156 258.023438 L 225.691406 256.144531 L 218.667969 251.40625 L 213.144531 250.144531 L 210.992188 249.046875 L 207.15625 244.28125 L 214.535156 231.265625 L 214.683594 230.421875 L 215.398438 221.375 L 219.84375 209.027344 L 225.6875 205.1875 L 229.40625 206.945312 L 234.460938 208.148438 L 230.824219 220.382812 L 231.257812 220.441406 L 231.695312 220.496094 L 235.328125 208.320312 L 242.632812 210.09375 L 239.890625 227.160156 L 240.28125 227.179688 L 240.675781 227.199219 L 243.574219 209.839844 L 260.980469 213.558594 L 266.957031 215.820312 L 266.496094 219.296875 L 265.648438 223.550781 L 252.167969 218.523438 L 252.042969 218.847656 L 251.921875 219.171875 L 265.554688 224.566406 L 264.90625 228.285156 L 264.722656 231.820312 L 269.097656 235.875 L 267.691406 239.445312 L 264.101562 243.925781 L 261.851562 255.507812 L 260.234375 258.71875 L 259 261.417969 L 257.890625 265.40625 L 256.039062 270.097656 Z M 254.804688 276.082031 " transform="matrix(1,0,0,1,-74,-13)"/>
<path style=" stroke:none;fill-rule:evenodd;fill:rgb(85.096741%,85.096741%,81.959534%);fill-opacity:0.7;" d="M 33.203125 16 C 33.203125 13.027344 32.023438 10.179688 29.921875 8.078125 C 27.820312 5.976562 24.972656 4.796875 22 4.796875 C 19.027344 4.796875 16.179688 5.976562 14.078125 8.078125 C 11.976562 10.179688 10.796875 13.027344 10.796875 16 C 10.796875 18.972656 11.976562 21.820312 14.078125 23.921875 C 16.179688 26.023438 19.027344 27.203125 22 27.203125 C 24.972656 27.203125 27.820312 26.023438 29.921875 23.921875 C 32.023438 21.820312 33.203125 18.972656 33.203125 16 Z M 33.203125 16 "/>
<path style=" stroke:none;fill-rule:evenodd;fill:rgb(85.096741%,85.096741%,81.959534%);fill-opacity:0.7;" d="M 204.203125 245 C 204.203125 242.027344 203.023438 239.179688 200.921875 237.078125 C 198.820312 234.976562 195.972656 233.796875 193 233.796875 C 190.027344 233.796875 187.179688 234.976562 185.078125 237.078125 C 182.976562 239.179688 181.796875 242.027344 181.796875 245 C 181.796875 247.972656 182.976562 250.820312 185.078125 252.921875 C 187.179688 255.023438 190.027344 256.203125 193 256.203125 C 195.972656 256.203125 198.820312 255.023438 200.921875 252.921875 C 203.023438 250.820312 204.203125 247.972656 204.203125 245 Z M 204.203125 245 "/>
</g>
</svg>
