<?xml version="1.0" encoding="UTF-8"?>
<svg xmlns="http://www.w3.org/2000/svg" xmlns:xlink="http://www.w3.org/1999/xlink" width="361pt" height="361pt" viewBox="0 0 361 361" version="1.1">
<defs>
<clipPath id="clip1">
  <path d="M 0 327 L 19 327 L 19 360 L 0 360 Z M 0 327 "/>
</clipPath>
<clipPath id="clip2">
  <path d="M 26 358 L 76 358 L 76 360 L 26 360 Z M 26 358 "/>
</clipPath>
<clipPath id="clip3">
  <path d="M 69 351 L 189 351 L 189 360 L 69 360 Z M 69 351 "/>
</clipPath>
<clipPath id="clip4">
  <path d="M 125 335 L 221 335 L 221 360 L 125 360 Z M 125 335 "/>
</clipPath>
<clipPath id="clip5">
  <path d="M 172 329 L 241 329 L 241 360 L 172 360 Z M 172 329 "/>
</clipPath>
<clipPath id="clip6">
  <path d="M 56 342 L 91 342 L 91 360 L 56 360 Z M 56 342 "/>
</clipPath>
<clipPath id="clip7">
  <path d="M 17 333 L 62 333 L 62 360 L 17 360 Z M 17 333 "/>
</clipPath>
<clipPath id="clip8">
  <path d="M 94 328 L 137 328 L 137 360 L 94 360 Z M 94 328 "/>
</clipPath>
<clipPath id="clip9">
  <path d="M 0 354 L 73 354 L 73 360 L 0 360 Z M 0 354 "/>
</clipPath>
<clipPath id="clip10">
  <path d="M 235 240 L 360 240 L 360 360 L 235 360 Z M 235 240 "/>
</clipPath>
<clipPath id="clip11">
  <path d="M 298 178 L 360 178 L 360 261 L 298 261 Z M 298 178 "/>
</clipPath>
</defs>
<g id="surface693">
<path style="fill-rule:nonzero;fill:rgb(0%,0%,0%);fill-opacity:1;stroke-width:0.03;stroke-linecap:square;stroke-linejoin:miter;stroke:rgb(0%,0%,0%);stroke-opacity:1;stroke-miterlimit:10;" d="M 0 178 L 360 178 L 360 -182 L 0 -182 Z M 0 178 " transform="matrix(1,0,0,1,0,182)"/>
<path style=" stroke:none;fill-rule:nonzero;fill:rgb(39.99939%,39.99939%,39.99939%);fill-opacity:0.3;" d="M -20.839844 276.007812 L 0.492188 277.234375 L -2.4375 287.023438 L -3.382812 288.566406 L -11.128906 287.132812 L -11.902344 286.316406 L -12.632812 285.703125 L -13 285.828125 L -13.367188 285.949219 L -13.195312 287.175781 L -14.484375 289.09375 L -17.5 288.890625 L -17.929688 286.113281 L -21.070312 285.703125 L -22.191406 284.4375 L -23.359375 282.847656 L -23.945312 278.453125 L -24.414062 275.839844 Z M -20.839844 276.007812 "/>
<path style=" stroke:none;fill-rule:nonzero;fill:rgb(39.99939%,39.99939%,39.99939%);fill-opacity:0.3;" d="M 11.066406 301.273438 L 27.605469 307.316406 L 23.101562 320.972656 L 22.867188 322.300781 L 19.574219 332.121094 L 3.425781 327.007812 L -0.4375 324.703125 L 5.09375 314.09375 L 8.609375 315.800781 L 8.933594 315.277344 L 9.203125 314.835938 L 5.777344 313.164062 L 8.324219 308.335938 L 10.582031 309.171875 L 10.773438 308.660156 L 10.96875 308.148438 L 8.8125 307.035156 Z M 11.066406 301.273438 "/>
<g clip-path="url(#clip1)" clip-rule="nonzero">
<path style=" stroke:none;fill-rule:nonzero;fill:rgb(39.99939%,39.99939%,39.99939%);fill-opacity:0.3;" d="M -7.847656 369.347656 L -19.3125 365.71875 L -34.246094 365.273438 L -34.027344 362.925781 L -31.40625 360.925781 L -25.023438 355.960938 L -21.949219 355.429688 L -15.402344 348.300781 L -12.015625 341.753906 L -8.992188 337.988281 L -4.210938 332 L -0.820312 327.761719 L 18.917969 333.828125 L 14.554688 341.382812 L 13.902344 342.507812 L 8.480469 348.960938 L 1.8125 352.363281 L -3.027344 362.144531 Z M -7.847656 369.347656 "/>
</g>
<path style=" stroke:none;fill-rule:nonzero;fill:rgb(39.99939%,39.99939%,39.99939%);fill-opacity:0.3;" d="M 9.890625 300.714844 L 5.644531 310.796875 L -2.152344 323.660156 L -8.21875 317.796875 L -12.820312 310.375 L -8.707031 305.824219 L -5.867188 302.105469 L -2.929688 296.90625 L -2.503906 295.855469 Z M 9.890625 300.714844 "/>
<path style=" stroke:none;fill-rule:nonzero;fill:rgb(39.99939%,39.99939%,39.99939%);fill-opacity:0.3;" d="M 18.058594 340.433594 L 19.753906 337.191406 L 18.644531 339.738281 Z M 18.058594 340.433594 "/>
<path style=" stroke:none;fill-rule:nonzero;fill:rgb(39.99939%,39.99939%,39.99939%);fill-opacity:0.3;" d="M 26.820312 317.070312 L 27.703125 317.347656 L 22.335938 331.148438 L 22.121094 331.097656 Z M 26.820312 317.070312 "/>
<path style=" stroke:none;fill-rule:nonzero;fill:rgb(39.99939%,39.99939%,39.99939%);fill-opacity:0.3;" d="M 29.761719 306.386719 L 31.210938 306.765625 L 28.910156 314.242188 L 28.503906 315.292969 L 27.09375 314.746094 Z M 29.761719 306.386719 "/>
<path style=" stroke:none;fill-rule:nonzero;fill:rgb(39.99939%,39.99939%,39.99939%);fill-opacity:0.3;" d="M 1.734375 277.054688 L 20.804688 277.796875 L 15.96875 294.105469 L 14.054688 299.84375 L -2.941406 293.515625 L -2.382812 289.578125 L -1.597656 287.175781 Z M 1.734375 277.054688 "/>
<path style=" stroke:none;fill-rule:nonzero;fill:rgb(39.99939%,39.99939%,39.99939%);fill-opacity:0.3;" d="M 4.144531 260.660156 L 0.65625 276.121094 L -19.546875 274.699219 L -24.8125 274.5625 L -25.730469 272.558594 L -26.71875 263.886719 L -23.980469 253.175781 L -23.078125 253.3125 L -22.683594 252.039062 L -7.664062 258.089844 Z M 4.144531 260.660156 "/>
<path style=" stroke:none;fill-rule:nonzero;fill:rgb(39.99939%,39.99939%,39.99939%);fill-opacity:0.3;" d="M 22.207031 277.921875 L 27.359375 277.34375 L 37.695312 280.15625 L 28.371094 305.558594 L 15.003906 300.46875 Z M 22.207031 277.921875 "/>
<path style=" stroke:none;fill-rule:nonzero;fill:rgb(39.99939%,39.99939%,39.99939%);fill-opacity:0.3;" d="M 35.832031 290.59375 L 36.949219 290.878906 L 31.558594 305.632812 L 31.550781 305.660156 L 30.640625 305.457031 Z M 35.832031 290.59375 "/>
<path style=" stroke:none;fill-rule:nonzero;fill:rgb(39.99939%,39.99939%,39.99939%);fill-opacity:0.3;" d="M 27.578125 260.402344 L 34.582031 261.609375 L 42.195312 263.488281 L 38.234375 278.953125 L 22.8125 275.226562 Z M 27.578125 260.402344 "/>
<path style=" stroke:none;fill-rule:nonzero;fill:rgb(39.99939%,39.99939%,39.99939%);fill-opacity:0.3;" d="M 31.210938 244.367188 L 30.476562 247.152344 L 10.34375 239.074219 L 10.609375 237.53125 L 11.359375 237.75 Z M 31.210938 244.367188 "/>
<path style=" stroke:none;fill-rule:nonzero;fill:rgb(39.99939%,39.99939%,39.99939%);fill-opacity:0.3;" d="M -21.007812 245.375 L -6.125 245.238281 L -5.546875 247.644531 L -4.097656 250.878906 L -2.359375 252.1875 L 5.332031 254.457031 L 3.925781 259.554688 L -7.246094 257.054688 L -11.488281 255.664062 L -22.316406 250.835938 L -21.753906 249.007812 L -21.089844 246.359375 Z M -21.007812 245.375 "/>
<path style=" stroke:none;fill-rule:nonzero;fill:rgb(39.99939%,39.99939%,39.99939%);fill-opacity:0.3;" d="M 10.03125 239.878906 L 30.125 247.980469 L 26.566406 258.953125 L 15.066406 256.714844 L 10.488281 255.863281 L 6.464844 254.734375 Z M 10.03125 239.878906 "/>
<path style=" stroke:none;fill-rule:nonzero;fill:rgb(39.99939%,39.99939%,39.99939%);fill-opacity:0.3;" d="M -18.90625 231.800781 L -5.746094 234.761719 L 8.566406 239.082031 L 5.558594 253.597656 L 0.015625 252.097656 L -2.292969 250.566406 L -4.0625 247.605469 L -5.476562 243.785156 L -20.863281 243.613281 L -20.757812 242.382812 Z M -18.90625 231.800781 "/>
<path style=" stroke:none;fill-rule:nonzero;fill:rgb(39.99939%,39.99939%,39.99939%);fill-opacity:0.3;" d="M 8.855469 237.023438 L 8.738281 237.707031 L -18.6875 230.550781 L -18.441406 229.140625 Z M 8.855469 237.023438 "/>
<path style=" stroke:none;fill-rule:nonzero;fill:rgb(39.99939%,39.99939%,39.99939%);fill-opacity:0.3;" d="M 38.152344 287.601562 L 37.875 287.53125 L 47.933594 252.914062 L 47.125 259.601562 L 41.164062 279.472656 Z M 38.152344 287.601562 "/>
<path style=" stroke:none;fill-rule:nonzero;fill:rgb(39.99939%,39.99939%,39.99939%);fill-opacity:0.3;" d="M 32.054688 247.460938 L 45.8125 251.136719 L 42.660156 261.734375 L 27.789062 259.035156 Z M 32.054688 247.460938 "/>
<path style=" stroke:none;fill-rule:nonzero;fill:rgb(39.99939%,39.99939%,39.99939%);fill-opacity:0.3;" d="M 8.15625 356.625 L 9.785156 354.960938 L 9.816406 354.964844 L 9.707031 355.300781 L 8.382812 356.625 Z M 8.15625 356.625 "/>
<path style=" stroke:none;fill-rule:nonzero;fill:rgb(39.99939%,39.99939%,39.99939%);fill-opacity:0.3;" d="M 41.394531 247.839844 L 41.605469 247.085938 L 48.449219 248.675781 L 48.339844 249.5625 Z M 41.394531 247.839844 "/>
<path style=" stroke:none;fill-rule:nonzero;fill:rgb(39.99939%,39.99939%,39.99939%);fill-opacity:0.3;" d="M 40.195312 246.757812 L 40.003906 247.496094 L 32.683594 245.679688 L 32.859375 244.914062 L 34.210938 245.363281 Z M 40.195312 246.757812 "/>
<path style=" stroke:none;fill-rule:nonzero;fill:rgb(39.99939%,39.99939%,39.99939%);fill-opacity:0.3;" d="M 6.738281 256.253906 L 14.488281 258.148438 L 13.972656 265.628906 L 17.761719 266.921875 L 17.800781 268.082031 L 18.152344 268.015625 L 18.503906 267.953125 L 18.574219 266.246094 L 14.945312 264.984375 L 15.214844 258.40625 L 26.230469 260.171875 L 21.285156 276.304688 L 16.480469 276.042969 L 13.941406 276.5625 L 7.324219 276.085938 L 1.929688 276.128906 L 4.378906 264.8125 Z M 6.738281 256.253906 "/>
<g clip-path="url(#clip2)" clip-rule="nonzero">
<path style=" stroke:none;fill-rule:nonzero;fill:rgb(39.99939%,39.99939%,39.99939%);fill-opacity:0.3;" d="M 65.570312 372.3125 L 75.902344 377.457031 L 73.078125 385.496094 L 52.453125 377.628906 L 54.039062 373.820312 L 53.488281 373.601562 L 52.851562 373.347656 L 51.070312 377.101562 L 26.910156 367.445312 L 28.058594 358.292969 L 30.101562 358.628906 L 33.136719 359.730469 L 35.984375 361.027344 L 36.957031 361.546875 L 35.414062 366.316406 L 36.03125 366.5 L 36.632812 366.679688 L 38.011719 362.066406 L 50.839844 366.667969 L 55.21875 367.230469 L 64.535156 371.835938 L 63.136719 374.851562 L 62.839844 375.496094 L 63.457031 375.738281 L 63.957031 375.929688 Z M 65.570312 372.3125 "/>
</g>
<path style=" stroke:none;fill-rule:nonzero;fill:rgb(39.99939%,39.99939%,39.99939%);fill-opacity:0.3;" d="M 91.3125 297.65625 L 105.746094 302 L 102.492188 311.886719 L 102.882812 312.027344 L 103.277344 312.164062 L 106.601562 302.136719 L 120.113281 306.222656 L 118.449219 311.519531 L 123.339844 313.839844 L 122.265625 316.535156 L 122.800781 316.675781 L 123.339844 316.816406 L 124.222656 313.75 L 119.328125 311.238281 L 120.992188 306.503906 L 143.308594 312.917969 L 136.15625 319.234375 L 128.304688 324.921875 L 118.742188 327.425781 L 111.25 329.050781 L 107.324219 330.472656 L 102.96875 332.367188 L 98.117188 335.074219 L 97.964844 315.003906 L 88.1875 311.074219 Z M 91.3125 297.65625 "/>
<g clip-path="url(#clip3)" clip-rule="nonzero">
<path style=" stroke:none;fill-rule:nonzero;fill:rgb(39.99939%,39.99939%,39.99939%);fill-opacity:0.3;" d="M 78.992188 377.742188 L 95.882812 383.347656 L 96.105469 382.660156 L 96.328125 381.96875 L 79.347656 376.429688 L 81.941406 371.109375 L 90.773438 352.8125 L 91.59375 351.859375 L 92.464844 352.113281 L 103.261719 360.453125 L 124.527344 373.449219 L 124.089844 379.296875 L 124.644531 379.535156 L 125.238281 379.804688 L 126.078125 374.214844 L 162.882812 398.074219 L 182.851562 412.734375 L 181.425781 417.890625 L 181.796875 417.917969 L 182.167969 417.949219 L 183.46875 413.1875 L 184.855469 414.207031 L 186.398438 416.199219 L 188.160156 419.539062 L 188.328125 422.949219 L 188.476562 425.863281 L 188.15625 429.921875 L 157.652344 425.175781 L 132.628906 421.429688 L 117.558594 421.984375 L 110.589844 421.617188 L 96.941406 419.394531 L 76.46875 413.546875 L 69.546875 409.234375 L 73.640625 398.917969 L 74.121094 396.671875 L 88.015625 398.566406 L 86.535156 407.261719 L 87.390625 407.378906 L 88.242188 407.496094 L 89.777344 398.929688 L 106.378906 400.429688 L 106.378906 398.703125 L 89.046875 396.636719 L 74.484375 394.902344 L 75.597656 386.480469 Z M 78.992188 377.742188 "/>
</g>
<g clip-path="url(#clip4)" clip-rule="nonzero">
<path style=" stroke:none;fill-rule:nonzero;fill:rgb(39.99939%,39.99939%,39.99939%);fill-opacity:0.3;" d="M 136.320312 340.441406 L 138.277344 335.742188 L 160.230469 346.273438 L 169.429688 350.125 L 167.003906 363.3125 L 173.398438 365.753906 L 169.40625 389.765625 L 170.496094 390.226562 L 171.484375 390.667969 L 175.378906 366.546875 L 185.449219 369.8125 L 181.886719 395.0625 L 183.113281 395.148438 L 184.257812 395.226562 L 188.058594 370.566406 L 196.691406 373.128906 L 193.578125 395.386719 L 194.757812 395.703125 L 195.945312 396.019531 L 198.984375 373.972656 L 201 374.902344 L 203.117188 377.984375 L 220.214844 386.882812 L 216.933594 389.347656 L 214.953125 392.203125 L 211.054688 400.890625 L 205.300781 410.386719 L 200.035156 418.039062 L 199.144531 419.15625 L 179.519531 407.113281 L 159.4375 393.066406 L 139.925781 379.417969 L 125.511719 370.988281 L 125.589844 369.488281 L 127.390625 357.746094 L 129.585938 352.140625 L 134.484375 344.066406 Z M 136.320312 340.441406 "/>
</g>
<path style=" stroke:none;fill-rule:nonzero;fill:rgb(39.99939%,39.99939%,39.99939%);fill-opacity:0.3;" d="M 328.003906 358.078125 L 324.371094 356.3125 L 323.128906 354.613281 L 318.578125 353.957031 L 312.855469 352.777344 L 308.542969 350.363281 L 260.066406 325.726562 L 330.246094 354.640625 Z M 328.003906 358.078125 "/>
<path style=" stroke:none;fill-rule:nonzero;fill:rgb(39.99939%,39.99939%,39.99939%);fill-opacity:0.3;" d="M 154.433594 275.371094 L 155.433594 273.105469 L 157.566406 273.242188 L 173.027344 274.945312 L 185.644531 275.59375 L 196.816406 275.234375 L 202.664062 274.667969 L 203.75 278.148438 L 202.757812 286.425781 L 203.089844 288.742188 L 200.769531 298.347656 L 205.089844 300.648438 L 199.410156 297.921875 L 195.65625 296.125 Z M 154.433594 275.371094 "/>
<g clip-path="url(#clip5)" clip-rule="nonzero">
<path style=" stroke:none;fill-rule:nonzero;fill:rgb(39.99939%,39.99939%,39.99939%);fill-opacity:0.3;" d="M 207.660156 329.773438 L 215.273438 331.339844 L 220.78125 332.90625 L 223.738281 333.964844 L 226.238281 335.066406 L 231.550781 337.230469 L 228.488281 345.257812 L 229.09375 345.402344 L 229.773438 345.566406 L 233.066406 338.121094 L 240.921875 341.214844 L 238.160156 349.761719 L 231.96875 351.738281 L 220.988281 382.1875 L 207.066406 374.523438 L 203.695312 371.945312 L 199.667969 368.050781 L 172.183594 360.902344 L 173.6875 352.773438 L 174.671875 347.871094 L 186.609375 351.75 L 211.140625 357.519531 L 214.652344 351.03125 L 225.882812 352.28125 L 226.257812 350.898438 L 214.03125 349.277344 L 210.175781 355.644531 L 190.703125 349.714844 L 199.863281 332.714844 L 202.917969 330.945312 Z M 207.660156 329.773438 "/>
</g>
<path style=" stroke:none;fill-rule:nonzero;fill:rgb(39.99939%,39.99939%,39.99939%);fill-opacity:0.3;" d="M 88.050781 311.820312 L 97.367188 315.535156 L 97.070312 328.074219 L 93.628906 326.960938 L 95.195312 322.691406 L 86.09375 319.4375 Z M 88.050781 311.820312 "/>
<path style=" stroke:none;fill-rule:nonzero;fill:rgb(39.99939%,39.99939%,39.99939%);fill-opacity:0.3;" d="M 16.773438 342.109375 L 25.734375 344.84375 L 25.757812 356.753906 L 17.726562 355.191406 L 13.957031 354.519531 L 10.90625 350.898438 Z M 16.773438 342.109375 "/>
<path style=" stroke:none;fill-rule:nonzero;fill:rgb(39.99939%,39.99939%,39.99939%);fill-opacity:0.3;" d="M 27.183594 345.257812 L 32.738281 346.253906 L 38.742188 347.300781 L 38.082031 349.976562 L 34.566406 358.585938 L 32.300781 358.09375 L 29.574219 356.578125 L 27.421875 354.742188 Z M 27.183594 345.257812 "/>
<g clip-path="url(#clip6)" clip-rule="nonzero">
<path style=" stroke:none;fill-rule:nonzero;fill:rgb(39.99939%,39.99939%,39.99939%);fill-opacity:0.3;" d="M 63.582031 342.371094 L 70.183594 343.734375 L 69.1875 349.351562 L 72.667969 350.25 L 71.027344 355.488281 L 71.496094 355.582031 L 71.96875 355.675781 L 73.761719 349.542969 L 70.578125 348.550781 L 71.425781 343.972656 L 90.816406 346.308594 L 76.457031 374.511719 L 56.910156 365.289062 Z M 63.582031 342.371094 "/>
</g>
<g clip-path="url(#clip7)" clip-rule="nonzero">
<path style=" stroke:none;fill-rule:nonzero;fill:rgb(39.99939%,39.99939%,39.99939%);fill-opacity:0.3;" d="M 21.609375 333.640625 L 35.230469 335.78125 L 44.476562 337.566406 L 48.789062 337.28125 L 61.074219 341.777344 L 59.464844 349.902344 L 56.589844 349.269531 L 56.453125 349.742188 L 56.320312 350.21875 L 59.0625 350.984375 L 55.382812 363.554688 L 52.304688 364.441406 L 42.402344 362.027344 L 35.863281 359.140625 L 40.640625 347.679688 L 43.808594 348.25 L 43.855469 347.757812 L 43.902344 347.269531 L 30.585938 344.609375 L 17.71875 341.082031 L 18.058594 340.433594 L 18.644531 339.738281 L 19.753906 337.191406 Z M 21.609375 333.640625 "/>
</g>
<path style=" stroke:none;fill-rule:nonzero;fill:rgb(39.99939%,39.99939%,39.99939%);fill-opacity:0.3;" d="M 27.703125 317.347656 L 41.917969 321.832031 L 68.625 328.972656 L 63.953125 340.164062 L 48.375 335.398438 L 34.085938 332.144531 L 33.890625 333.816406 L 22.335938 331.148438 Z M 27.703125 317.347656 "/>
<path style=" stroke:none;fill-rule:nonzero;fill:rgb(39.99939%,39.99939%,39.99939%);fill-opacity:0.3;" d="M 31.210938 306.765625 L 43.941406 310.066406 L 41.929688 320.480469 L 28.503906 315.292969 L 28.910156 314.242188 Z M 31.210938 306.765625 "/>
<path style=" stroke:none;fill-rule:nonzero;fill:rgb(39.99939%,39.99939%,39.99939%);fill-opacity:0.3;" d="M 44.957031 310.222656 L 62.960938 313.976562 L 61.300781 317.75 L 61.886719 317.980469 L 62.476562 318.214844 L 64.210938 314.25 L 72.921875 317.429688 L 68.730469 327.710938 L 42.898438 320.8125 Z M 44.957031 310.222656 "/>
<path style=" stroke:none;fill-rule:nonzero;fill:rgb(39.99939%,39.99939%,39.99939%);fill-opacity:0.3;" d="M 71.589844 326.304688 L 91.460938 330.910156 L 92.90625 327.699219 L 96.660156 329.007812 L 95.953125 334.148438 L 91.375 341.363281 L 90.003906 342.753906 L 88.632812 343.3125 L 84.816406 343.777344 L 77.964844 342.847656 L 65.359375 340.675781 Z M 71.589844 326.304688 "/>
<path style=" stroke:none;fill-rule:nonzero;fill:rgb(39.99939%,39.99939%,39.99939%);fill-opacity:0.3;" d="M 74.46875 317.464844 L 92.953125 323.40625 L 90.773438 328.808594 L 72.191406 324.820312 Z M 74.46875 317.464844 "/>
<path style=" stroke:none;fill-rule:nonzero;fill:rgb(39.99939%,39.99939%,39.99939%);fill-opacity:0.3;" d="M 36.949219 290.878906 L 50.808594 294.40625 L 47.296875 309.140625 L 31.550781 305.660156 L 31.558594 305.632812 Z M 36.949219 290.878906 "/>
<path style=" stroke:none;fill-rule:nonzero;fill:rgb(39.99939%,39.99939%,39.99939%);fill-opacity:0.3;" d="M 53.378906 287.796875 L 67.496094 291.429688 L 65.789062 313.003906 L 62.425781 312.347656 L 62.890625 309.824219 L 62.484375 309.738281 L 62.453125 309.730469 L 62.011719 309.640625 L 61.519531 312.164062 L 48.015625 309.265625 Z M 53.378906 287.796875 "/>
<path style=" stroke:none;fill-rule:nonzero;fill:rgb(39.99939%,39.99939%,39.99939%);fill-opacity:0.3;" d="M 68.476562 291.617188 L 90.105469 297.566406 L 85.464844 317.050781 L 66.902344 313.261719 Z M 68.476562 291.617188 "/>
<g clip-path="url(#clip8)" clip-rule="nonzero">
<path style=" stroke:none;fill-rule:nonzero;fill:rgb(39.99939%,39.99939%,39.99939%);fill-opacity:0.3;" d="M 94.632812 349.613281 L 94.386719 347.046875 L 95.328125 344.1875 L 98.464844 339.738281 L 102.800781 335.285156 L 104.984375 334.523438 L 110.550781 332.707031 L 115.097656 331.355469 L 120.300781 329.929688 L 124.535156 329.144531 L 127.214844 328.589844 L 128.625 329.332031 L 130.179688 330.382812 L 132.007812 331.777344 L 136.371094 334.613281 L 134.617188 339.289062 L 132.601562 342.980469 L 126.695312 352.585938 L 125.253906 358.433594 L 123.761719 369.46875 L 120.527344 367.859375 L 117.855469 366.152344 L 115.425781 364.488281 L 112.90625 363.027344 L 111.519531 362.195312 L 110.648438 361.460938 L 109.210938 360.539062 L 107.976562 359.808594 L 106.640625 358.878906 L 105.101562 357.90625 L 103.355469 356.6875 L 100.632812 354.980469 L 95.582031 351.503906 Z M 94.632812 349.613281 "/>
</g>
<path style=" stroke:none;fill-rule:nonzero;fill:rgb(39.99939%,39.99939%,39.99939%);fill-opacity:0.3;" d="M 48.1875 252.046875 L 99.472656 262.976562 L 90.359375 294.707031 L 52.375 285.144531 L 50.335938 290.71875 L 38.152344 287.601562 L 41.164062 279.472656 L 47.125 259.601562 L 47.933594 252.914062 Z M 48.1875 252.046875 "/>
<path style=" stroke:none;fill-rule:nonzero;fill:rgb(39.99939%,39.99939%,39.99939%);fill-opacity:0.3;" d="M 63.15625 252.066406 L 63.085938 252.351562 L 49.382812 249.664062 L 49.59375 248.929688 L 51.429688 249.339844 Z M 63.15625 252.066406 "/>
<path style=" stroke:none;fill-rule:nonzero;fill:rgb(39.99939%,39.99939%,39.99939%);fill-opacity:0.3;" d="M 171.066406 308.585938 L 166.289062 331.46875 L 166.851562 333.203125 L 169.09375 336.664062 L 169.65625 338.53125 L 168.167969 348.050781 L 165.050781 346.445312 L 139.84375 334.179688 L 132.628906 329.78125 L 131.472656 327.582031 L 132.363281 325.386719 L 146.171875 314.566406 L 148.9375 311.375 L 150.734375 308.644531 L 169.691406 308.382812 Z M 171.066406 308.585938 "/>
<g clip-path="url(#clip9)" clip-rule="nonzero">
<path style=" stroke:none;fill-rule:nonzero;fill:rgb(39.99939%,39.99939%,39.99939%);fill-opacity:0.3;" d="M 12.972656 355.457031 L 26.757812 359.359375 L 24.902344 368.609375 L 19.855469 366.972656 L 18.082031 368.140625 L 15.511719 367.410156 L 13.058594 367.167969 L 10.988281 366.085938 L 10.714844 366.445312 L 10.464844 366.769531 L 12.171875 367.71875 L 9.683594 372.066406 L 8.507812 372.601562 L 7.996094 373.472656 L 7.996094 374.734375 L 8.515625 374.738281 L 9.039062 374.738281 L 9.019531 373.667969 L 9.488281 373.117188 L 10.605469 372.648438 L 13.023438 367.890625 L 15.914062 368.390625 L 19.101562 370.167969 L 20.117188 368.390625 L 24.964844 370.226562 L 25.660156 368.6875 L 56.222656 380.550781 L 52.847656 388.089844 L 53.886719 388.515625 L 54.925781 388.9375 L 58.269531 381.335938 L 72.636719 386.839844 L 72.699219 390.953125 L 70.679688 397.949219 L 69.5 399.742188 L 65.273438 400.089844 L 60.222656 397.558594 L 52.691406 393.453125 L 46.351562 389.351562 L 38.914062 387.082031 L 31.351562 385.867188 L 19.316406 381.65625 L 11.90625 378 L 4.671875 373.378906 L 6.71875 369.679688 L 5.457031 366.242188 L 2.761719 365.601562 L 0.332031 365.867188 L 3.640625 361.246094 L 8.15625 356.625 L 8.382812 356.625 L 9.707031 355.300781 L 9.816406 354.964844 Z M 12.972656 355.457031 "/>
</g>
<path style=" stroke:none;fill-rule:nonzero;fill:rgb(39.99939%,39.99939%,39.99939%);fill-opacity:0.3;" d="M 132.578125 268.59375 L 147.796875 272.917969 L 147.675781 274.511719 L 146.714844 279.171875 L 146.355469 282.359375 L 146.234375 286.113281 L 146.59375 291.003906 L 131.617188 284.972656 L 124.785156 281.671875 Z M 132.578125 268.59375 "/>
<path style=" stroke:none;fill-rule:nonzero;fill:rgb(39.99939%,39.99939%,39.99939%);fill-opacity:0.3;" d="M 187.210938 272.730469 L 183.914062 272.730469 L 176.324219 272.445312 L 173.992188 272.21875 L 183.882812 272.519531 Z M 187.210938 272.730469 "/>
<path style=" stroke:none;fill-rule:nonzero;fill:rgb(39.99939%,39.99939%,39.99939%);fill-opacity:0.3;" d="M 188.492188 344.636719 L 187.257812 330.84375 L 187.5625 329.980469 L 193.914062 320.511719 L 214.171875 326.160156 L 214.441406 325.441406 L 214.777344 324.535156 L 194.621094 318.789062 L 197.746094 314.289062 L 195.527344 314.289062 L 185.242188 329.980469 L 187.027344 346.941406 L 186.167969 348.296875 L 185.570312 348.699219 L 178.738281 346.898438 L 173.121094 344.726562 L 171.019531 347.121094 L 170.535156 347.484375 L 171.882812 338.855469 L 171.320312 336.988281 L 169.078125 333.527344 L 168.515625 331.792969 L 173.292969 308.910156 L 187.382812 310.957031 L 202.15625 311.453125 L 224.730469 321.335938 L 242.9375 329.039062 L 245.640625 330.410156 L 241.792969 340.085938 L 218.890625 330.390625 L 215.410156 329.1875 L 211.117188 328.15625 L 207.996094 328.070312 L 203.113281 328.972656 L 198.433594 330.507812 L 197.582031 329.578125 L 199.636719 326.988281 L 198.882812 326.449219 L 198.125 325.90625 L 196.308594 328.191406 L 195.238281 327.027344 L 194.523438 327.617188 L 193.8125 328.207031 L 196.773438 331.4375 L 193.28125 337.101562 Z M 188.492188 344.636719 "/>
<path style=" stroke:none;fill-rule:nonzero;fill:rgb(39.99939%,39.99939%,39.99939%);fill-opacity:0.3;" d="M 131.332031 266.097656 L 122.777344 264.8125 L 122.945312 264.226562 L 125.601562 264.570312 Z M 131.332031 266.097656 "/>
<path style=" stroke:none;fill-rule:nonzero;fill:rgb(39.99939%,39.99939%,39.99939%);fill-opacity:0.3;" d="M 121.527344 264.042969 L 121.402344 264.46875 L 102.867188 261.289062 L 102.953125 261.007812 L 104.078125 261.257812 L 115.335938 263.246094 Z M 121.527344 264.042969 "/>
<path style=" stroke:none;fill-rule:nonzero;fill:rgb(39.99939%,39.99939%,39.99939%);fill-opacity:0.3;" d="M 48.730469 248.738281 L 48.472656 249.59375 L 48.339844 249.5625 L 48.449219 248.675781 Z M 48.730469 248.738281 "/>
<path style=" stroke:none;fill-rule:nonzero;fill:rgb(39.99939%,39.99939%,39.99939%);fill-opacity:0.3;" d="M 101.148438 260.601562 L 100.902344 261.378906 L 67.128906 252.976562 Z M 101.148438 260.601562 "/>
<path style=" stroke:none;fill-rule:nonzero;fill:rgb(39.99939%,39.99939%,39.99939%);fill-opacity:0.3;" d="M 148.554688 289.515625 L 148.316406 282.464844 L 149.273438 279.050781 L 150.59375 276.777344 L 152.632812 276.664062 L 186.210938 293.070312 L 188.308594 295.578125 L 188.953125 297.519531 L 189.542969 299.726562 L 190.648438 302.855469 L 187.984375 304.300781 L 185.128906 305.695312 L 182.730469 306.265625 L 176.140625 306.71875 L 151.664062 306.121094 L 148.914062 292.472656 L 154.730469 293.003906 L 155.984375 292.359375 L 157.660156 289.175781 L 172.277344 296.570312 L 172.636719 296.117188 L 172.996094 295.660156 L 155.984375 287.128906 L 154.546875 289.972656 Z M 148.554688 289.515625 "/>
<path style=" stroke:none;fill-rule:nonzero;fill:rgb(39.99939%,39.99939%,39.99939%);fill-opacity:0.3;" d="M 124.304688 282.695312 L 146.710938 292.9375 L 148.746094 306.46875 L 145.390625 311.132812 L 113.398438 301.457031 L 115.554688 297.59375 L 137.632812 302.597656 L 137.835938 302.058594 L 138.035156 301.523438 L 116.273438 296.683594 Z M 124.304688 282.695312 "/>
<path style=" stroke:none;fill-rule:nonzero;fill:rgb(39.99939%,39.99939%,39.99939%);fill-opacity:0.3;" d="M 101.269531 263.089844 L 114.929688 265.480469 L 109.535156 279.46875 L 110.375 279.640625 L 111.210938 279.8125 L 116.726562 265.824219 L 131.054688 268.363281 L 112.179688 300.917969 L 92.394531 295.046875 Z M 101.269531 263.089844 "/>
<path style=" stroke:none;fill-rule:nonzero;fill:rgb(39.99939%,39.99939%,39.99939%);fill-opacity:0.3;" d="M -26.910156 101.410156 L 1.578125 109.660156 L 6.40625 121.671875 L 5.683594 126.605469 L 4.414062 139.289062 L -5.167969 133.503906 L -7.882812 132.753906 L -14.035156 131.136719 L -14.167969 129.457031 L -14.429688 125.046875 L -27.324219 121.875 L -31.710938 133.867188 L -39.5 132.3125 L -44.914062 143.664062 L -48.796875 142.589844 L -49.015625 143.230469 L -49.238281 143.882812 L -45.636719 144.941406 L -49.089844 155.121094 L -42.960938 156.382812 L -43.289062 158.019531 L -45.960938 171.308594 L -44.878906 171.890625 L -44.839844 172.207031 L -44.851562 172.71875 L -46.671875 175.65625 L -47.808594 179.566406 L -61.894531 175.921875 L -61.582031 167.246094 L -62.445312 167.199219 L -63.347656 167.148438 L -63.972656 176.023438 L -65.53125 175.628906 L -67.496094 173.769531 L -68.90625 171.9375 L -70.507812 169.925781 L -71.558594 168.117188 L -74.617188 164.855469 L -79.230469 161.546875 L -82.148438 159.046875 L -82.855469 157.300781 L -83.984375 156.007812 L -83.089844 153.371094 L -79.605469 153.59375 L -78.144531 153.417969 L -80.550781 150.789062 L -82.101562 148.824219 L -83.890625 147.394531 L -86.433594 146.589844 L -82.753906 130.15625 L -79.457031 115.191406 L -79.347656 114.519531 L -79.066406 113.441406 L -79.003906 113.074219 L -78.375 113.242188 L -72.417969 88.40625 L -72.34375 87.40625 L -59.605469 90.621094 L -59.707031 92.894531 L -59.078125 95.28125 L -57.390625 96.371094 Z M -26.910156 101.410156 "/>
<path style=" stroke:none;fill-rule:nonzero;fill:rgb(39.99939%,39.99939%,39.99939%);fill-opacity:0.3;" d="M 5.199219 75.777344 L 1.230469 107.113281 L -26.308594 99.496094 L -49.488281 96.429688 L -55.390625 95.351562 L -57.246094 94.449219 L -57.742188 92.839844 L -57.398438 90.050781 L -56.332031 87 L -53.5625 76.4375 L -54.433594 76.371094 L -55.304688 76.308594 L -59.179688 89.429688 L -72.28125 86.472656 L -69.761719 50.648438 L -69.703125 50.667969 Z M 5.199219 75.777344 "/>
<path style=" stroke:none;fill-rule:nonzero;fill:rgb(39.99939%,39.99939%,39.99939%);fill-opacity:0.3;" d="M -41.433594 155.472656 L -47.347656 154.164062 L -45.246094 147.882812 L -44.039062 144.992188 L -38.882812 134.417969 L -30.316406 136.25 L -25.9375 123.789062 L -16.503906 126.210938 L -15.800781 132.691406 L -5.867188 135.328125 L -2.457031 136.945312 L 4.28125 140.605469 L 3.796875 145.476562 L 4.246094 156.449219 L 3.445312 158.445312 L -10.269531 156.910156 L -10.363281 157.625 L -10.460938 158.386719 L 2.839844 160.070312 L 1.015625 166.308594 L -0.902344 170.808594 L -2.617188 176.261719 L -12.5 173.390625 L -12.726562 174.125 L -13.003906 175.015625 L -3.625 177.890625 L -7.574219 191.726562 L -8.628906 192.796875 L -10.390625 192.460938 L -24.199219 185.90625 L -18.703125 174.40625 L -19.378906 174.058594 L -20.039062 173.738281 L -25.328125 185.304688 L -31.878906 183.097656 L -46.152344 179.988281 L -45.90625 176.636719 L -43.953125 173.476562 L -43.421875 171.769531 L -44.363281 170.652344 L -41.660156 156.65625 Z M -41.433594 155.472656 "/>
<path style=" stroke:none;fill-rule:nonzero;fill:rgb(39.99939%,39.99939%,39.99939%);fill-opacity:0.3;" d="M 107.679688 173.984375 L 107.667969 173.882812 L 109.648438 165.433594 L 112.15625 155.796875 L 112.566406 153.820312 L 114.140625 154.253906 L 111.363281 162.582031 L 109.707031 167.878906 L 109.046875 170.195312 Z M 107.679688 173.984375 "/>
<path style=" stroke:none;fill-rule:nonzero;fill:rgb(39.99939%,39.99939%,39.99939%);fill-opacity:0.3;" d="M 114.726562 152.496094 L 113.199219 152.117188 L 118.589844 137.863281 L 119.5 138.167969 Z M 114.726562 152.496094 "/>
<path style=" stroke:none;fill-rule:nonzero;fill:rgb(39.99939%,39.99939%,39.99939%);fill-opacity:0.3;" d="M 119.816406 137.269531 L 118.90625 136.945312 L 127.421875 112.015625 L 129.476562 112.636719 L 127.921875 115.226562 Z M 119.816406 137.269531 "/>
<path style=" stroke:none;fill-rule:nonzero;fill:rgb(39.99939%,39.99939%,39.99939%);fill-opacity:0.3;" d="M 13.0625 223.195312 L 35.859375 224.074219 L 33.347656 236.289062 L 31.210938 244.367188 L 11.359375 237.75 L 10.609375 237.53125 Z M 13.0625 223.195312 "/>
<path style=" stroke:none;fill-rule:nonzero;fill:rgb(39.99939%,39.99939%,39.99939%);fill-opacity:0.3;" d="M -19.25 225.929688 L -2.964844 226.714844 L 4.953125 227.5625 L 10.328125 228.4375 L 8.855469 237.023438 L -18.441406 229.140625 L -18.6875 230.550781 L -19.855469 230.246094 Z M -19.25 225.929688 "/>
<path style=" stroke:none;fill-rule:nonzero;fill:rgb(39.99939%,39.99939%,39.99939%);fill-opacity:0.3;" d="M 56.765625 224.21875 L 58.660156 224.929688 L 51.429688 249.339844 L 49.59375 248.929688 Z M 56.765625 224.21875 "/>
<path style=" stroke:none;fill-rule:nonzero;fill:rgb(39.99939%,39.99939%,39.99939%);fill-opacity:0.3;" d="M -17.03125 215.550781 L 5.644531 208.21875 L 4.964844 221.398438 L 8.34375 222.183594 L 7.742188 226.386719 L -1.640625 225.386719 L -18.535156 224.386719 Z M -17.03125 215.550781 "/>
<path style=" stroke:none;fill-rule:nonzero;fill:rgb(39.99939%,39.99939%,39.99939%);fill-opacity:0.3;" d="M 9.554688 221.316406 L 6.542969 220.257812 L 7.671875 207.578125 L 16.191406 205.953125 L 25.171875 204.863281 L 31.59375 204.023438 L 43.734375 203.148438 L 40.152344 221.972656 L 13.574219 221.5625 L 10.914062 221.859375 Z M 9.554688 221.316406 "/>
<path style=" stroke:none;fill-rule:nonzero;fill:rgb(39.99939%,39.99939%,39.99939%);fill-opacity:0.3;" d="M 63.019531 201.515625 L 64.914062 201.59375 L 59.375 222.515625 L 59.320312 222.695312 L 57.121094 221.800781 L 59.238281 215.347656 L 61.179688 209.234375 Z M 63.019531 201.515625 "/>
<path style=" stroke:none;fill-rule:nonzero;fill:rgb(39.99939%,39.99939%,39.99939%);fill-opacity:0.3;" d="M 94.84375 201.878906 L 104.023438 176.441406 L 106.101562 178.050781 L 106.164062 178.1875 L 97.457031 202.316406 L 95.535156 202.136719 Z M 94.84375 201.878906 "/>
<path style=" stroke:none;fill-rule:nonzero;fill:rgb(39.99939%,39.99939%,39.99939%);fill-opacity:0.3;" d="M 38.082031 141.304688 L 46.621094 142.820312 L 47.558594 142.992188 L 58.167969 144.945312 L 61.976562 158.078125 L 62.542969 165.226562 L 62.09375 173.214844 L 55.300781 172.996094 L 48.089844 172.367188 L 37.320312 170.398438 L 28.703125 167.171875 L 22.75 166.335938 L 20.996094 165.753906 L 21.90625 162.375 L 22.652344 156.554688 L 23.152344 150.421875 L 22.449219 150.359375 L 21.75 150.300781 L 21.078125 156.949219 L 20.5 162.53125 L 19.019531 166.597656 L 10.851562 166.082031 L 6.011719 165.347656 L 3.796875 164.839844 L 7.125 154.851562 L 6.179688 147.683594 L 6.066406 140.855469 L 6.890625 134.023438 L 7.484375 126.523438 L 8.308594 121.484375 L 7.132812 118.015625 L 3.605469 109.542969 L 3.84375 106.632812 L 3.84375 101.816406 L 4.433594 97.5625 L 4.730469 94.367188 L 5.273438 89.21875 L 6.050781 83.777344 L 6.363281 79.886719 L 6.90625 76.242188 L 124.757812 111.453125 L 115.386719 137.890625 L 109.464844 136.015625 L 109.167969 136.734375 L 108.867188 137.460938 L 114.738281 139.519531 L 105.804688 166.835938 L 101.511719 163.941406 L 97.652344 159.804688 L 90.082031 155.664062 L 88.554688 154.40625 L 85.140625 147.855469 L 87.253906 139.835938 L 86.230469 139.628906 L 85.285156 139.433594 L 83.171875 146.117188 L 75.691406 142.632812 L 72.453125 141.355469 L 70.539062 140.847656 L 67.617188 140.535156 L 60.789062 143.183594 L 63.425781 131.664062 L 65.347656 128.070312 L 67.191406 123.515625 L 68.667969 118.789062 L 69.59375 115.867188 L 68.578125 115.644531 L 67.5625 115.425781 L 65.347656 123.339844 L 61.933594 130.605469 L 58.707031 143.503906 L 53.121094 142.738281 L 48.367188 141.699219 L 49.527344 135.199219 L 39.796875 133.300781 L 39.734375 133.886719 L 39.660156 134.589844 L 47.902344 136.164062 L 46.890625 141.414062 L 38.421875 139.785156 L 38.257812 140.519531 Z M 38.082031 141.304688 "/>
<path style=" stroke:none;fill-rule:nonzero;fill:rgb(39.99939%,39.99939%,39.99939%);fill-opacity:0.3;" d="M 17.933594 168.808594 L 18.492188 168.886719 L 23.339844 168.886719 L 31.769531 170.488281 L 37.15625 173.109375 L 48.871094 174.835938 L 54.054688 175.09375 L 61.75 176.191406 L 58.570312 199.230469 L 49.078125 200.1875 L 50.359375 190.859375 L 49.585938 190.792969 L 48.808594 190.730469 L 47.675781 200.222656 L 42.335938 201.269531 L 42.445312 196.023438 L 41.734375 196.085938 L 41.03125 196.144531 L 40.871094 201.34375 L 37.175781 201.925781 L 37.566406 187.753906 L 37.257812 187.535156 L 32.871094 187.53125 L 32.714844 182.929688 L 23.632812 182.417969 L 23.597656 182.90625 L 23.554688 183.511719 L 31.792969 184.023438 L 31.792969 188.191406 L 32.332031 188.628906 L 36.488281 188.773438 L 36.023438 202.074219 L 26.230469 202.839844 L 25.808594 197.40625 L 25.125 197.472656 L 24.421875 197.542969 L 24.730469 203.179688 L 20.324219 203.527344 L 18.136719 203.902344 L 11.804688 204.71875 L 10.523438 204.910156 L 1.6875 206.964844 L 0.00390625 207.605469 L -8.277344 209.839844 L -9.289062 210.160156 L -14.539062 211.5 L -14.875 208.734375 L -12.472656 202.917969 L -2.550781 202.742188 L -2.484375 202.039062 L -2.414062 201.3125 L -11.867188 201.636719 L -9.832031 197.5625 L -8.25 195.527344 L -5.511719 193.527344 L -5.171875 191.960938 L -2.070312 184.804688 L -0.320312 177.265625 L 3.320312 166.785156 L 16.105469 168.554688 L 13.867188 178.792969 L 14.972656 178.917969 L 16.09375 179.042969 Z M 17.933594 168.808594 "/>
<path style=" stroke:none;fill-rule:nonzero;fill:rgb(39.99939%,39.99939%,39.99939%);fill-opacity:0.3;" d="M 64.65625 174.644531 L 65.632812 167.390625 L 65.582031 159.898438 L 63.855469 154.019531 L 60.828125 145.519531 L 66.671875 143.347656 L 70.132812 143.085938 L 73.535156 144.402344 L 83.230469 148.828125 L 87.941406 157.574219 L 96.089844 161.519531 L 105.105469 169.246094 L 101.628906 178.046875 L 97.078125 176.457031 L 96.632812 177.300781 L 96.191406 178.144531 L 100.84375 179.933594 L 97.285156 188.988281 L 93.414062 201.542969 L 80.605469 199.683594 L 75.582031 198.984375 L 75.796875 192.796875 L 75.660156 185.425781 L 74.195312 185.425781 L 74.085938 198.984375 L 61.183594 199.402344 L 62.179688 186.195312 L 63.917969 176.445312 L 74.128906 178.59375 L 74.351562 177.746094 L 74.570312 176.894531 Z M 64.65625 174.644531 "/>
<path style=" stroke:none;fill-rule:nonzero;fill:rgb(39.99939%,39.99939%,39.99939%);fill-opacity:0.3;" d="M 45.070312 203.027344 L 53.226562 201.671875 L 61.511719 201.285156 L 56.230469 221.761719 L 49.386719 221.726562 L 51.5625 214.203125 L 50.953125 214.011719 L 50.34375 213.816406 L 48.183594 221.726562 L 41.679688 221.898438 Z M 45.070312 203.027344 "/>
<path style=" stroke:none;fill-rule:nonzero;fill:rgb(39.99939%,39.99939%,39.99939%);fill-opacity:0.3;" d="M 41.605469 247.085938 L 42.925781 242.363281 L 42.183594 242.199219 L 41.421875 242.027344 L 40.195312 246.757812 L 34.210938 245.363281 L 32.859375 244.914062 L 37.640625 223.933594 L 47.976562 223.398438 L 47.441406 229.378906 L 48.488281 229.425781 L 49.21875 223.425781 L 54.109375 223.449219 L 56.167969 224.042969 L 48.730469 248.738281 L 48.449219 248.675781 Z M 41.605469 247.085938 "/>
<g clip-path="url(#clip10)" clip-rule="nonzero">
<path style=" stroke:none;fill-rule:nonzero;fill:rgb(39.99939%,39.99939%,39.99939%);fill-opacity:0.3;" d="M 304.007812 297.757812 L 302.285156 302.28125 L 301.445312 303.15625 L 299.449219 303.28125 L 298.210938 303.339844 L 297.800781 304.066406 L 297.976562 304.679688 L 299.859375 304.792969 L 302.6875 304.066406 L 305.84375 297.734375 L 307.492188 297.410156 L 311.230469 297.730469 L 318.425781 298.894531 L 322.058594 297.253906 L 325.992188 293.921875 L 329.058594 303.71875 L 330.960938 308.390625 L 334.136719 312.910156 L 337.941406 316.523438 L 340.164062 318.183594 L 342.542969 320.292969 L 344.199219 322.710938 L 345.402344 324.316406 L 346.382812 325.394531 L 347.238281 326.148438 L 347.941406 326.21875 L 349.246094 326.0625 L 349.574219 325.054688 L 349.183594 324.066406 L 348.011719 322.597656 L 346.0625 320.941406 L 343.804688 318.503906 L 338.980469 314.511719 L 335.492188 311.683594 L 332.617188 307.398438 L 329.949219 300.480469 L 328.636719 293.898438 L 331.285156 293.871094 L 337.445312 294.550781 L 389.226562 310.085938 L 388.417969 315.214844 L 387.617188 320.585938 L 386.078125 325.277344 L 383.4375 329.761719 L 380.910156 332.265625 L 379.152344 333.410156 L 379.632812 334.125 L 380.140625 334.871094 L 383.546875 332.265625 L 382.667969 336.855469 L 383.675781 337.140625 L 384.863281 337.480469 L 385.414062 331.328125 L 387.175781 326.425781 L 388.714844 322.984375 L 389.816406 316.101562 L 390.054688 314.246094 L 390.621094 309.589844 L 354.316406 298.152344 L 338.0625 293.273438 L 333.664062 292.28125 L 328.636719 292.078125 L 324.371094 292.511719 L 322.054688 293.894531 L 320.007812 295.324219 L 316.554688 296.101562 L 312.433594 295.625 L 307.734375 294.820312 L 307.203125 293.546875 L 307.546875 290.859375 L 317.347656 261.023438 L 332.667969 259.421875 L 345.867188 257.65625 L 361.882812 256.03125 L 364.066406 279.488281 L 365.421875 279.304688 L 366.621094 279.144531 L 364.742188 255.617188 L 375.492188 254.078125 L 400.964844 250.867188 L 433.9375 247.042969 L 459.140625 243.46875 L 474.128906 241.871094 L 489.417969 240.863281 L 478.734375 287.730469 L 430.320312 267.996094 L 429.730469 269.109375 L 429.15625 270.203125 L 443.640625 276.449219 L 448.074219 278.410156 L 444.566406 287.355469 L 445.578125 287.703125 L 446.652344 288.070312 L 450.242188 279.4375 L 460.679688 283.453125 L 466.378906 285.578125 L 473.535156 289.242188 L 470.050781 299.472656 L 468.550781 298.96875 L 466.714844 303.832031 L 469.214844 304.609375 L 470.125 304.890625 L 475.042969 289.785156 L 486.800781 295.722656 L 479.949219 315.097656 L 468.476562 311.210938 L 454.507812 306.351562 L 435.78125 299.539062 L 435.464844 299.578125 L 432.320312 307.757812 L 427.148438 321.125 L 427.84375 321.464844 L 428.535156 321.800781 L 436.664062 300.976562 L 446.203125 304.542969 L 438.652344 318.636719 L 439.441406 319.066406 L 440.09375 319.417969 L 447.832031 305.21875 L 468.90625 312.527344 L 479.539062 316.257812 L 469.421875 344.84375 L 445.058594 336.328125 L 435.871094 333.355469 L 430.671875 330.550781 L 428.46875 328.421875 L 427.878906 327.039062 L 427.03125 327.527344 L 426.179688 328.019531 L 427.074219 329.835938 L 429.589844 332.414062 L 435.515625 335.820312 L 444.171875 338.84375 L 468.410156 347.117188 L 454.109375 388.179688 L 447.761719 386.113281 L 427.339844 380.765625 L 378.789062 371.105469 L 332.28125 360.160156 L 328.003906 358.078125 L 330.246094 354.640625 L 260.066406 325.726562 L 235.972656 313.480469 L 240.371094 306.386719 L 240.445312 305.851562 L 235.601562 303.285156 L 238.492188 298.503906 L 250.417969 296.382812 L 250.140625 295.320312 L 249.859375 294.261719 L 238.191406 295.777344 L 240.828125 291.136719 L 254.246094 291.351562 L 253.714844 293.605469 L 254.703125 296.03125 L 261.917969 296.382812 L 272.855469 296.039062 L 282.210938 295.808594 L 288.078125 297.089844 L 293.75 298.582031 L 299.582031 298.582031 Z M 304.007812 297.757812 "/>
</g>
<path style=" stroke:none;fill-rule:nonzero;fill:rgb(39.99939%,39.99939%,39.99939%);fill-opacity:0.3;" d="M 238.363281 291.097656 L 235.71875 295.785156 L 231.300781 303.535156 L 237.78125 306.835938 L 234.285156 312.375 L 226.171875 308.878906 L 225.332031 308.570312 L 236.203125 291.0625 Z M 238.363281 291.097656 "/>
<path style=" stroke:none;fill-rule:nonzero;fill:rgb(39.99939%,39.99939%,39.99939%);fill-opacity:0.3;" d="M 336.023438 178.058594 L 334.460938 182.8125 L 322.867188 214.925781 L 316.789062 227.726562 L 312.96875 232.621094 L 309.261719 237.027344 L 308.570312 237.851562 L 301.765625 197.351562 L 295.804688 195.363281 L 293.488281 192.050781 L 290.175781 188.078125 L 285.871094 185.761719 L 279.25 185.761719 L 275.9375 182.78125 L 271.300781 180.460938 L 264.015625 177.480469 L 259.382812 172.847656 L 256.402344 167.878906 L 261.242188 154.375 L 281.804688 160.972656 Z M 336.023438 178.058594 "/>
<path style=" stroke:none;fill-rule:nonzero;fill:rgb(39.99939%,39.99939%,39.99939%);fill-opacity:0.3;" d="M 308.070312 238.453125 L 305.851562 241.105469 L 298.363281 238.492188 L 299.335938 236.601562 L 292.804688 234.136719 L 282.027344 228.230469 L 270.804688 224.636719 L 273.289062 224.171875 L 276.933594 224.503906 Z M 308.070312 238.453125 "/>
<g clip-path="url(#clip11)" clip-rule="nonzero">
<path style=" stroke:none;fill-rule:nonzero;fill:rgb(39.99939%,39.99939%,39.99939%);fill-opacity:0.3;" d="M 420.292969 203.703125 L 415.773438 218.292969 L 407.054688 215.945312 L 406.570312 217.601562 L 406.140625 219.0625 L 415.988281 222.035156 L 415.808594 232.996094 L 415.128906 246.136719 L 391.289062 249.503906 L 393.0625 235.929688 L 391.679688 235.75 L 390.066406 235.542969 L 388.15625 250.148438 L 357.457031 253.269531 L 326.375 257.421875 L 327.601562 246.949219 L 326.605469 247.011719 L 325.421875 247.078125 L 324.195312 257.550781 L 302.160156 260.148438 L 298.804688 260.539062 L 300.496094 258.464844 L 301.9375 255.414062 L 301.941406 252.21875 L 306.707031 242.335938 L 307.59375 241.179688 L 318.230469 228.878906 L 320.78125 223.519531 L 325.351562 213.671875 L 337.660156 178.558594 L 352.390625 182.976562 L 396.085938 196.1875 Z M 420.292969 203.703125 "/>
</g>
<path style=" stroke:none;fill-rule:nonzero;fill:rgb(39.99939%,39.99939%,39.99939%);fill-opacity:0.3;" d="M 261.792969 267.644531 L 292.917969 263.808594 L 290.898438 273.601562 L 292.003906 273.546875 L 293.027344 273.496094 L 295.5 263.703125 L 305.59375 262.640625 L 303.234375 273.390625 L 304.261719 273.609375 L 305.253906 273.820312 L 308.171875 262.003906 L 315.726562 261.273438 L 305.753906 290.644531 L 304.863281 293.636719 L 304.109375 294.9375 L 302.789062 295.648438 L 301.371094 295.796875 L 299.15625 296.097656 L 282.835938 293.636719 L 279.808594 294.09375 L 271.207031 294.011719 L 261.050781 294.519531 L 256.753906 293.640625 L 256.476562 292.847656 L 259.691406 276.902344 L 261.511719 268.351562 Z M 261.792969 267.644531 "/>
<path style=" stroke:none;fill-rule:nonzero;fill:rgb(39.99939%,39.99939%,39.99939%);fill-opacity:0.3;" d="M 268.347656 225.097656 L 281.777344 229.488281 L 285.183594 231.496094 L 292.804688 235.386719 L 297.667969 237.214844 L 296.570312 239.457031 L 304.90625 242.175781 L 303.449219 245.460938 L 300.332031 251.894531 L 300.523438 255.125 L 298.730469 258.265625 L 297.59375 259.605469 L 297.210938 260.703125 L 279.976562 262.746094 L 268.734375 264.078125 L 251.886719 266.074219 L 256.402344 223.179688 L 264.015625 223.839844 L 267.992188 225.164062 Z M 268.347656 225.097656 "/>
<path style=" stroke:none;fill-rule:nonzero;fill:rgb(39.99939%,39.99939%,39.99939%);fill-opacity:0.3;" d="M 240.828125 291.136719 L 253.570312 268.6875 L 259.789062 267.914062 L 254.246094 291.351562 Z M 240.828125 291.136719 "/>
<path style=" stroke:none;fill-rule:nonzero;fill:rgb(39.99939%,39.99939%,39.99939%);fill-opacity:0.3;" d="M 202.664062 274.667969 L 207.71875 274.175781 L 250.691406 269.226562 L 238.363281 291.097656 L 236.203125 291.0625 L 225.332031 308.570312 L 221.996094 307.351562 L 219.285156 305.765625 L 216.070312 304.800781 L 211.074219 302.789062 L 205.089844 300.648438 L 200.769531 298.347656 L 203.089844 288.742188 L 202.757812 286.425781 L 203.75 278.148438 Z M 202.664062 274.667969 "/>
<path style=" stroke:none;fill-rule:nonzero;fill:rgb(39.99939%,39.99939%,39.99939%);fill-opacity:0.3;" d="M 179.484375 150.820312 L 177.351562 150.019531 L 175.714844 149.550781 L 169.726562 165.394531 L 142.445312 165.660156 L 140.410156 169.035156 L 128.34375 166.105469 L 122.585938 164.339844 L 119.210938 165.222656 L 119.414062 166.207031 L 119.601562 167.136719 L 122.96875 166.140625 L 130.113281 168.246094 L 140.582031 171.40625 L 142.875 167.769531 L 166.667969 167.773438 L 168.917969 168.875 L 159.832031 182.835938 L 153.964844 192.023438 L 152.144531 196.789062 L 147.027344 209.75 L 146.488281 211.035156 L 145.789062 212.246094 L 142.882812 211.667969 L 143.523438 206.257812 L 143.988281 204.4375 L 142.882812 204.3125 L 141.78125 204.191406 L 141.253906 206.421875 L 141.078125 208.90625 L 140.554688 211.503906 L 134.628906 210.855469 L 132.699219 210.957031 L 125.992188 210.921875 L 119.382812 210.550781 L 119.699219 206.792969 L 120.945312 203.253906 L 119.886719 203.199219 L 118.9375 203.148438 L 117.875 206.46875 L 117.652344 209.792969 L 113.789062 208.859375 L 110.164062 207.644531 L 103.808594 204.898438 L 108.179688 190.929688 L 110.164062 182.511719 L 125.015625 185.332031 L 125.175781 184.613281 L 125.332031 183.894531 L 108.960938 180.589844 L 108.046875 177.65625 L 107.679688 173.984375 L 109.046875 170.195312 L 109.707031 167.878906 L 111.363281 162.582031 L 114.140625 154.253906 L 120.949219 156.132812 L 121.195312 155.132812 L 121.484375 154.1875 L 114.726562 152.496094 L 119.5 138.167969 L 122.308594 139.113281 L 125.175781 139.773438 L 127.09375 136.039062 L 128.332031 134.964844 L 133.703125 137.230469 L 133.84375 136.808594 L 133.925781 136.421875 L 128.070312 133.984375 L 126.476562 135.347656 L 124.742188 138.625 L 122.140625 138.097656 L 119.816406 137.269531 L 127.921875 115.226562 L 129.476562 112.636719 L 136.691406 114.824219 L 133.445312 124.050781 L 133.984375 124.226562 L 134.523438 124.40625 L 138.167969 115.105469 L 193.617188 132.265625 L 187.960938 150.769531 L 188.535156 151.796875 L 190.109375 151.1875 L 192.523438 142.363281 L 195.609375 132.824219 L 221.144531 140.785156 L 246.128906 148.957031 L 254.019531 151.859375 L 253 159.148438 L 247.207031 166.796875 L 239.742188 170.808594 L 239.027344 172.105469 L 233.167969 179.949219 L 228.710938 187.511719 L 219.28125 202.78125 L 213.855469 209.152344 L 206.910156 213.851562 L 199.515625 219.519531 L 194.039062 224.101562 L 191.300781 226.394531 L 189.417969 227.019531 L 184.777344 225.117188 L 176.914062 222.566406 L 182.085938 209.980469 L 181.214844 209.773438 L 180.289062 209.550781 L 175.003906 221.605469 L 174.105469 221.820312 L 166.960938 219.765625 L 168.976562 215.289062 L 171.007812 210.128906 L 171.609375 208.28125 L 170.875 208.109375 L 170.125 207.933594 L 169.632812 209.847656 L 169.179688 211.242188 L 167.710938 214.421875 L 165.304688 219.386719 L 160.703125 217.960938 L 153.3125 214.988281 L 155.226562 209.335938 L 154.648438 209.167969 L 153.761719 208.90625 L 151.625 214.453125 L 148.238281 213.402344 L 148.769531 211.089844 L 149.886719 208.527344 L 153.175781 199.605469 L 156.964844 192.332031 L 160.941406 186.558594 L 185.019531 194.296875 L 185.824219 192.835938 L 182.742188 191.996094 L 168.28125 187.117188 L 161.894531 185.097656 L 163.351562 182.15625 L 171.355469 170.152344 L 177.007812 157.546875 L 188.808594 161.578125 L 189.117188 160.730469 L 189.433594 159.730469 L 177.589844 155.828125 Z M 179.484375 150.820312 "/>
<path style=" stroke:none;fill-rule:nonzero;fill:rgb(39.99939%,39.99939%,39.99939%);fill-opacity:0.3;" d="M 308.570312 237.851562 L 308.070312 238.453125 L 276.933594 224.503906 L 273.289062 224.171875 L 270.804688 224.636719 L 246.863281 216.972656 L 235.992188 214.425781 L 229.613281 216.273438 L 222.40625 214.109375 L 215.03125 210.230469 L 221.453125 201.296875 L 228.835938 189.753906 L 232.371094 182.953125 L 240.628906 171.910156 L 248.214844 167.382812 L 254.441406 159.503906 L 255.570312 152.554688 L 261.242188 154.375 L 256.402344 167.878906 L 259.382812 172.847656 L 264.015625 177.480469 L 271.300781 180.460938 L 275.9375 182.78125 L 279.25 185.761719 L 285.871094 185.761719 L 290.175781 188.078125 L 293.488281 192.050781 L 295.804688 195.363281 L 301.765625 197.351562 Z M 308.570312 237.851562 "/>
<path style=" stroke:none;fill-rule:nonzero;fill:rgb(39.99939%,39.99939%,39.99939%);fill-opacity:0.3;" d="M 58.660156 224.929688 L 68.71875 228.695312 L 63.15625 252.066406 L 51.429688 249.339844 Z M 58.660156 224.929688 "/>
<path style=" stroke:none;fill-rule:nonzero;fill:rgb(39.99939%,39.99939%,39.99939%);fill-opacity:0.3;" d="M 114.183594 211.8125 L 119.261719 213.183594 L 117.402344 222.214844 L 114.257812 230.820312 L 110.832031 238.148438 L 107.664062 243.128906 L 100.445312 239.601562 L 103.667969 233.632812 L 106.269531 228.988281 L 109.90625 221.996094 L 112.546875 216.042969 Z M 114.183594 211.8125 "/>
<path style=" stroke:none;fill-rule:nonzero;fill:rgb(39.99939%,39.99939%,39.99939%);fill-opacity:0.3;" d="M 64.914062 201.59375 L 72.925781 201.921875 L 69.007812 226.648438 L 59.320312 222.695312 L 59.375 222.515625 Z M 64.914062 201.59375 "/>
<path style=" stroke:none;fill-rule:nonzero;fill:rgb(39.99939%,39.99939%,39.99939%);fill-opacity:0.3;" d="M 74.421875 202.019531 L 83.136719 202.304688 L 92.285156 203.625 L 80.949219 230.933594 L 70.21875 226.886719 Z M 74.421875 202.019531 "/>
<path style=" stroke:none;fill-rule:nonzero;fill:rgb(39.99939%,39.99939%,39.99939%);fill-opacity:0.3;" d="M 106.164062 178.1875 L 108.195312 182.699219 L 106.867188 190.679688 L 102.488281 204.742188 L 95.535156 202.136719 L 97.457031 202.316406 Z M 106.164062 178.1875 "/>
<path style=" stroke:none;fill-rule:nonzero;fill:rgb(39.99939%,39.99939%,39.99939%);fill-opacity:0.3;" d="M 211.019531 270.914062 L 208.234375 271.320312 L 202.324219 272.113281 L 195.988281 272.621094 L 190.132812 272.734375 L 187.210938 272.730469 L 183.882812 272.519531 L 173.992188 272.21875 L 164.351562 271.273438 L 144.527344 267.941406 L 144.769531 266.941406 L 147.09375 257.515625 L 148.261719 254.113281 L 151.023438 246.796875 L 163.707031 251.234375 L 162.285156 257.09375 L 163.300781 257.355469 L 164.121094 257.570312 L 165.792969 251.867188 L 166.335938 250.058594 L 151.796875 244.75 L 152.769531 242.707031 L 155.582031 236.878906 L 160.136719 229.300781 L 164.0625 221.941406 L 176.683594 225.035156 L 183.824219 227.390625 L 188.476562 229.503906 L 203.894531 239.46875 L 204.414062 238.8125 L 205.074219 237.976562 L 191.835938 229.140625 L 194.066406 227.222656 L 196.679688 224.742188 L 200.058594 221.839844 L 203.53125 219.246094 L 208.796875 215.207031 L 212.578125 212.027344 L 214.207031 211.9375 L 221.238281 215.390625 L 229.136719 217.84375 L 236.277344 215.574219 L 240.449219 216.441406 L 246.738281 218.117188 L 261.9375 223.003906 L 268.347656 225.097656 L 267.992188 225.164062 L 264.015625 223.839844 L 256.402344 223.179688 L 251.886719 266.074219 L 242.359375 267.203125 L 227.402344 268.972656 L 211.523438 270.855469 Z M 211.019531 270.914062 "/>
<path style=" stroke:none;fill-rule:nonzero;fill:rgb(39.99939%,39.99939%,39.99939%);fill-opacity:0.3;" d="M 158.375 227.472656 L 155.945312 231.15625 L 152.683594 236.421875 L 150.449219 241.09375 L 147.707031 247.363281 L 142.023438 267.707031 L 131.332031 266.097656 L 125.601562 264.570312 L 122.945312 264.226562 L 128.21875 245.894531 L 120.195312 243.363281 L 126.121094 236.761719 L 129.414062 233.257812 L 131.3125 231.363281 L 137.5 227.007812 L 145.660156 222.25 L 145.304688 221.78125 L 144.9375 221.289062 L 138.1875 225.003906 L 138.695312 222.871094 L 144.210938 220.117188 L 143.894531 219.742188 L 143.628906 219.429688 L 138.769531 221.425781 L 136.601562 220.570312 L 134.808594 220.472656 L 130.210938 230.671875 L 118.863281 242.921875 L 111.523438 240.566406 L 114.226562 234.832031 L 118.410156 224.820312 L 120.898438 213.476562 L 131.761719 212.792969 L 135.011719 213.113281 L 137.140625 213.316406 L 135.726562 218.011719 L 136.5625 218.234375 L 137.492188 218.480469 L 138.976562 213.449219 L 150.425781 216.671875 L 161.609375 221.132812 Z M 158.375 227.472656 "/>
<path style=" stroke:none;fill-rule:nonzero;fill:rgb(39.99939%,39.99939%,39.99939%);fill-opacity:0.3;" d="M 108.175781 243.824219 L 110.652344 241.496094 L 126.574219 246.5 L 121.527344 264.042969 L 115.335938 263.246094 L 104.078125 261.257812 L 102.953125 261.007812 L 104.113281 257.234375 L 108.332031 258.683594 L 108.675781 257.96875 L 109.007812 257.285156 L 104.464844 255.511719 Z M 108.175781 243.824219 "/>
<path style=" stroke:none;fill-rule:nonzero;fill:rgb(39.99939%,39.99939%,39.99939%);fill-opacity:0.3;" d="M 94.25 204.003906 L 103.726562 208.355469 L 101.085938 213.449219 L 101.542969 213.75 L 101.996094 214.054688 L 104.816406 208.703125 L 113.183594 211.554688 L 99.355469 238.910156 L 89.441406 234.765625 L 90.988281 231.574219 L 90.535156 231.269531 L 90.078125 230.96875 L 88.457031 234.195312 L 82.078125 231.378906 Z M 94.25 204.003906 "/>
<path style=" stroke:none;fill-rule:nonzero;fill:rgb(39.99939%,39.99939%,39.99939%);fill-opacity:0.3;" d="M 79.671875 241.042969 L 81.320312 236.839844 L 78.769531 235.945312 L 80.082031 232.78125 L 86.613281 236.089844 L 85.882812 237.316406 L 83.847656 239.589844 L 84.695312 241.820312 L 83.609375 245.238281 L 84.234375 245.535156 L 84.882812 245.84375 L 85.929688 241.199219 L 85.6875 239.847656 L 87.976562 236.609375 L 98.070312 241.445312 L 97.886719 244.808594 L 98.523438 245.113281 L 99.160156 245.414062 L 99.527344 242.136719 L 106.109375 245.148438 L 101.148438 260.601562 L 67.128906 252.976562 L 64.15625 252.238281 L 69.808594 229.109375 L 78.636719 232.417969 L 77.117188 236.386719 L 79.957031 237.378906 L 78.726562 240.730469 L 79.195312 240.886719 Z M 79.671875 241.042969 "/>
<path style="fill-rule:nonzero;fill:rgb(39.99939%,39.99939%,39.99939%);fill-opacity:1;stroke-width:0.03;stroke-linecap:square;stroke-linejoin:miter;stroke:rgb(39.99939%,39.99939%,39.99939%);stroke-opacity:1;stroke-miterlimit:3.239307;" d="M 314.828125 304.136719 L 327.570312 281.6875 L 333.789062 280.914062 L 328.246094 304.351562 Z M 314.828125 304.136719 " transform="matrix(1,0,0,1,-74,-13)"/>
<path style="fill-rule:nonzero;fill:rgb(39.99939%,39.99939%,39.99939%);fill-opacity:1;stroke-width:0.03;stroke-linecap:square;stroke-linejoin:miter;stroke:rgb(39.99939%,39.99939%,39.99939%);stroke-opacity:1;stroke-miterlimit:3.239307;" d="M 276.664062 287.667969 L 281.71875 287.175781 L 324.691406 282.226562 L 312.363281 304.097656 L 310.203125 304.0625 L 299.332031 321.570312 L 295.996094 320.351562 L 293.285156 318.765625 L 290.070312 317.800781 L 285.074219 315.789062 L 279.089844 313.648438 L 274.769531 311.347656 L 277.089844 301.742188 L 276.757812 299.425781 L 277.75 291.148438 Z M 276.664062 287.667969 " transform="matrix(1,0,0,1,-74,-13)"/>
<path style="fill-rule:nonzero;fill:rgb(39.99939%,39.99939%,39.99939%);fill-opacity:1;stroke-width:0.03;stroke-linecap:square;stroke-linejoin:miter;stroke:rgb(39.99939%,39.99939%,39.99939%);stroke-opacity:1;stroke-miterlimit:3.239307;" d="M 253.484375 163.820312 L 251.351562 163.019531 L 249.714844 162.550781 L 243.726562 178.394531 L 216.445312 178.660156 L 214.410156 182.035156 L 202.34375 179.105469 L 196.585938 177.339844 L 193.210938 178.222656 L 193.414062 179.207031 L 193.601562 180.136719 L 196.96875 179.140625 L 204.113281 181.246094 L 214.582031 184.40625 L 216.875 180.769531 L 240.667969 180.773438 L 242.917969 181.875 L 233.832031 195.835938 L 227.964844 205.023438 L 226.144531 209.789062 L 221.027344 222.75 L 220.488281 224.035156 L 219.789062 225.246094 L 216.882812 224.667969 L 217.523438 219.257812 L 217.988281 217.4375 L 216.882812 217.3125 L 215.78125 217.191406 L 215.253906 219.421875 L 215.078125 221.90625 L 214.554688 224.503906 L 208.628906 223.855469 L 206.699219 223.957031 L 199.992188 223.921875 L 193.382812 223.550781 L 193.699219 219.792969 L 194.945312 216.253906 L 193.886719 216.199219 L 192.9375 216.148438 L 191.875 219.46875 L 191.652344 222.792969 L 187.789062 221.859375 L 184.164062 220.644531 L 177.808594 217.898438 L 182.179688 203.929688 L 184.164062 195.511719 L 199.015625 198.332031 L 199.175781 197.613281 L 199.332031 196.894531 L 182.960938 193.589844 L 182.046875 190.65625 L 181.679688 186.984375 L 183.046875 183.195312 L 183.707031 180.878906 L 185.363281 175.582031 L 188.140625 167.253906 L 194.949219 169.132812 L 195.195312 168.132812 L 195.484375 167.1875 L 188.726562 165.496094 L 193.5 151.167969 L 196.308594 152.113281 L 199.175781 152.773438 L 201.09375 149.039062 L 202.332031 147.964844 L 207.703125 150.230469 L 207.84375 149.808594 L 207.925781 149.421875 L 202.070312 146.984375 L 200.476562 148.347656 L 198.742188 151.625 L 196.140625 151.097656 L 193.816406 150.269531 L 201.921875 128.226562 L 203.476562 125.636719 L 210.691406 127.824219 L 207.445312 137.050781 L 207.984375 137.226562 L 208.523438 137.40625 L 212.167969 128.105469 L 267.617188 145.265625 L 261.960938 163.769531 L 262.535156 164.796875 L 264.109375 164.1875 L 266.523438 155.363281 L 269.609375 145.824219 L 295.144531 153.785156 L 320.128906 161.957031 L 328.019531 164.859375 L 327 172.148438 L 321.207031 179.796875 L 313.742188 183.808594 L 313.027344 185.105469 L 307.167969 192.949219 L 302.710938 200.511719 L 293.28125 215.78125 L 287.855469 222.152344 L 280.910156 226.851562 L 273.515625 232.519531 L 268.039062 237.101562 L 265.300781 239.394531 L 263.417969 240.019531 L 258.777344 238.117188 L 250.914062 235.566406 L 256.085938 222.980469 L 255.214844 222.773438 L 254.289062 222.550781 L 249.003906 234.605469 L 248.105469 234.820312 L 240.960938 232.765625 L 242.976562 228.289062 L 245.007812 223.128906 L 245.609375 221.28125 L 244.875 221.109375 L 244.125 220.933594 L 243.632812 222.847656 L 243.179688 224.242188 L 241.710938 227.421875 L 239.304688 232.386719 L 234.703125 230.960938 L 227.3125 227.988281 L 229.226562 222.335938 L 228.648438 222.167969 L 227.761719 221.90625 L 225.625 227.453125 L 222.238281 226.402344 L 222.769531 224.089844 L 223.886719 221.527344 L 227.175781 212.605469 L 230.964844 205.332031 L 234.941406 199.558594 L 259.019531 207.296875 L 259.824219 205.835938 L 256.742188 204.996094 L 242.28125 200.117188 L 235.894531 198.097656 L 237.351562 195.15625 L 245.355469 183.152344 L 251.007812 170.546875 L 262.808594 174.578125 L 263.117188 173.730469 L 263.433594 172.730469 L 251.589844 168.828125 Z M 253.484375 163.820312 " transform="matrix(1,0,0,1,-74,-13)"/>
<path style="fill-rule:nonzero;fill:rgb(39.99939%,39.99939%,39.99939%);fill-opacity:1;stroke-width:0.03;stroke-linecap:square;stroke-linejoin:miter;stroke:rgb(39.99939%,39.99939%,39.99939%);stroke-opacity:1;stroke-miterlimit:3.239307;" d="M 382.570312 250.851562 L 382.070312 251.453125 L 350.933594 237.503906 L 347.289062 237.171875 L 344.804688 237.636719 L 320.863281 229.972656 L 309.992188 227.425781 L 303.613281 229.273438 L 296.40625 227.109375 L 289.03125 223.230469 L 295.453125 214.296875 L 302.835938 202.753906 L 306.371094 195.953125 L 314.628906 184.910156 L 322.214844 180.382812 L 328.441406 172.503906 L 329.570312 165.554688 L 335.242188 167.375 L 330.402344 180.878906 L 333.382812 185.847656 L 338.015625 190.480469 L 345.300781 193.460938 L 349.9375 195.78125 L 353.25 198.761719 L 359.871094 198.761719 L 364.175781 201.078125 L 367.488281 205.050781 L 369.804688 208.363281 L 375.765625 210.351562 Z M 382.570312 250.851562 " transform="matrix(1,0,0,1,-74,-13)"/>
<path style="fill-rule:nonzero;fill:rgb(39.99939%,39.99939%,39.99939%);fill-opacity:1;stroke-width:0.03;stroke-linecap:square;stroke-linejoin:miter;stroke:rgb(39.99939%,39.99939%,39.99939%);stroke-opacity:1;stroke-miterlimit:3.239307;" d="M 132.660156 237.929688 L 142.71875 241.695312 L 137.15625 265.066406 L 125.429688 262.339844 Z M 132.660156 237.929688 " transform="matrix(1,0,0,1,-74,-13)"/>
<path style="fill-rule:nonzero;fill:rgb(39.99939%,39.99939%,39.99939%);fill-opacity:1;stroke-width:0.03;stroke-linecap:square;stroke-linejoin:miter;stroke:rgb(39.99939%,39.99939%,39.99939%);stroke-opacity:1;stroke-miterlimit:3.239307;" d="M 188.183594 224.8125 L 193.261719 226.183594 L 191.402344 235.214844 L 188.257812 243.820312 L 184.832031 251.148438 L 181.664062 256.128906 L 174.445312 252.601562 L 177.667969 246.632812 L 180.269531 241.988281 L 183.90625 234.996094 L 186.546875 229.042969 Z M 188.183594 224.8125 " transform="matrix(1,0,0,1,-74,-13)"/>
<path style="fill-rule:nonzero;fill:rgb(39.99939%,39.99939%,39.99939%);fill-opacity:1;stroke-width:0.03;stroke-linecap:square;stroke-linejoin:miter;stroke:rgb(39.99939%,39.99939%,39.99939%);stroke-opacity:1;stroke-miterlimit:3.239307;" d="M 138.914062 214.59375 L 146.925781 214.921875 L 143.007812 239.648438 L 133.320312 235.695312 L 133.375 235.515625 Z M 138.914062 214.59375 " transform="matrix(1,0,0,1,-74,-13)"/>
<path style="fill-rule:nonzero;fill:rgb(39.99939%,39.99939%,39.99939%);fill-opacity:1;stroke-width:0.03;stroke-linecap:square;stroke-linejoin:miter;stroke:rgb(39.99939%,39.99939%,39.99939%);stroke-opacity:1;stroke-miterlimit:3.239307;" d="M 148.421875 215.019531 L 157.136719 215.304688 L 166.285156 216.625 L 154.949219 243.933594 L 144.21875 239.886719 Z M 148.421875 215.019531 " transform="matrix(1,0,0,1,-74,-13)"/>
<path style="fill-rule:nonzero;fill:rgb(39.99939%,39.99939%,39.99939%);fill-opacity:1;stroke-width:0.03;stroke-linecap:square;stroke-linejoin:miter;stroke:rgb(39.99939%,39.99939%,39.99939%);stroke-opacity:1;stroke-miterlimit:3.239307;" d="M 180.164062 191.1875 L 182.195312 195.699219 L 180.867188 203.679688 L 176.488281 217.742188 L 169.535156 215.136719 L 171.457031 215.316406 Z M 180.164062 191.1875 " transform="matrix(1,0,0,1,-74,-13)"/>
<path style="fill-rule:nonzero;fill:rgb(39.99939%,39.99939%,39.99939%);fill-opacity:1;stroke-width:0.03;stroke-linecap:square;stroke-linejoin:miter;stroke:rgb(39.99939%,39.99939%,39.99939%);stroke-opacity:1;stroke-miterlimit:3.239307;" d="M 285.019531 283.914062 L 282.234375 284.320312 L 276.324219 285.113281 L 269.988281 285.621094 L 264.132812 285.734375 L 261.210938 285.730469 L 257.882812 285.519531 L 247.992188 285.21875 L 238.351562 284.273438 L 218.527344 280.941406 L 218.769531 279.941406 L 221.09375 270.515625 L 222.261719 267.113281 L 225.023438 259.796875 L 237.707031 264.234375 L 236.285156 270.09375 L 237.300781 270.355469 L 238.121094 270.570312 L 239.792969 264.867188 L 240.335938 263.058594 L 225.796875 257.75 L 226.769531 255.707031 L 229.582031 249.878906 L 234.136719 242.300781 L 238.0625 234.941406 L 250.683594 238.035156 L 257.824219 240.390625 L 262.476562 242.503906 L 277.894531 252.46875 L 278.414062 251.8125 L 279.074219 250.976562 L 265.835938 242.140625 L 268.066406 240.222656 L 270.679688 237.742188 L 274.058594 234.839844 L 277.53125 232.246094 L 282.796875 228.207031 L 286.578125 225.027344 L 288.207031 224.9375 L 295.238281 228.390625 L 303.136719 230.84375 L 310.277344 228.574219 L 314.449219 229.441406 L 320.738281 231.117188 L 335.9375 236.003906 L 342.347656 238.097656 L 341.992188 238.164062 L 338.015625 236.839844 L 330.402344 236.179688 L 325.886719 279.074219 L 316.359375 280.203125 L 301.402344 281.972656 L 285.523438 283.855469 Z M 285.019531 283.914062 " transform="matrix(1,0,0,1,-74,-13)"/>
<path style="fill-rule:nonzero;fill:rgb(39.99939%,39.99939%,39.99939%);fill-opacity:1;stroke-width:0.03;stroke-linecap:square;stroke-linejoin:miter;stroke:rgb(39.99939%,39.99939%,39.99939%);stroke-opacity:1;stroke-miterlimit:3.239307;" d="M 232.375 240.472656 L 229.945312 244.15625 L 226.683594 249.421875 L 224.449219 254.09375 L 221.707031 260.363281 L 216.023438 280.707031 L 205.332031 279.097656 L 199.601562 277.570312 L 196.945312 277.226562 L 202.21875 258.894531 L 194.195312 256.363281 L 200.121094 249.761719 L 203.414062 246.257812 L 205.3125 244.363281 L 211.5 240.007812 L 219.660156 235.25 L 219.304688 234.78125 L 218.9375 234.289062 L 212.1875 238.003906 L 212.695312 235.871094 L 218.210938 233.117188 L 217.894531 232.742188 L 217.628906 232.429688 L 212.769531 234.425781 L 210.601562 233.570312 L 208.808594 233.472656 L 204.210938 243.671875 L 192.863281 255.921875 L 185.523438 253.566406 L 188.226562 247.832031 L 192.410156 237.820312 L 194.898438 226.476562 L 205.761719 225.792969 L 209.011719 226.113281 L 211.140625 226.316406 L 209.726562 231.011719 L 210.5625 231.234375 L 211.492188 231.480469 L 212.976562 226.449219 L 224.425781 229.671875 L 235.609375 234.132812 Z M 232.375 240.472656 " transform="matrix(1,0,0,1,-74,-13)"/>
<path style="fill-rule:nonzero;fill:rgb(39.99939%,39.99939%,39.99939%);fill-opacity:1;stroke-width:0.03;stroke-linecap:square;stroke-linejoin:miter;stroke:rgb(39.99939%,39.99939%,39.99939%);stroke-opacity:1;stroke-miterlimit:3.239307;" d="M 182.175781 256.824219 L 184.652344 254.496094 L 200.574219 259.5 L 195.527344 277.042969 L 189.335938 276.246094 L 178.078125 274.257812 L 176.953125 274.007812 L 178.113281 270.234375 L 182.332031 271.683594 L 182.675781 270.96875 L 183.007812 270.285156 L 178.464844 268.511719 Z M 182.175781 256.824219 " transform="matrix(1,0,0,1,-74,-13)"/>
<path style="fill-rule:nonzero;fill:rgb(39.99939%,39.99939%,39.99939%);fill-opacity:1;stroke-width:0.03;stroke-linecap:square;stroke-linejoin:miter;stroke:rgb(39.99939%,39.99939%,39.99939%);stroke-opacity:1;stroke-miterlimit:3.239307;" d="M 168.25 217.003906 L 177.726562 221.355469 L 175.085938 226.449219 L 175.542969 226.75 L 175.996094 227.054688 L 178.816406 221.703125 L 187.183594 224.554688 L 173.355469 251.910156 L 163.441406 247.765625 L 164.988281 244.574219 L 164.535156 244.269531 L 164.078125 243.96875 L 162.457031 247.195312 L 156.078125 244.378906 Z M 168.25 217.003906 " transform="matrix(1,0,0,1,-74,-13)"/>
<path style="fill-rule:nonzero;fill:rgb(39.99939%,39.99939%,39.99939%);fill-opacity:1;stroke-width:0.03;stroke-linecap:square;stroke-linejoin:miter;stroke:rgb(39.99939%,39.99939%,39.99939%);stroke-opacity:1;stroke-miterlimit:3.239307;" d="M 153.671875 254.042969 L 155.320312 249.839844 L 152.769531 248.945312 L 154.082031 245.78125 L 160.613281 249.089844 L 159.882812 250.316406 L 157.847656 252.589844 L 158.695312 254.820312 L 157.609375 258.238281 L 158.234375 258.535156 L 158.882812 258.84375 L 159.929688 254.199219 L 159.6875 252.847656 L 161.976562 249.609375 L 172.070312 254.445312 L 171.886719 257.808594 L 172.523438 258.113281 L 173.160156 258.414062 L 173.527344 255.136719 L 180.109375 258.148438 L 175.148438 273.601562 L 141.128906 265.976562 L 138.15625 265.238281 L 143.808594 242.109375 L 152.636719 245.417969 L 151.117188 249.386719 L 153.957031 250.378906 L 152.726562 253.730469 L 153.195312 253.886719 Z M 153.671875 254.042969 " transform="matrix(1,0,0,1,-74,-13)"/>
<path style=" stroke:none;fill-rule:evenodd;fill:rgb(85.096741%,85.096741%,81.959534%);fill-opacity:0.7;" d="M 121.246094 302 C 121.246094 298.488281 119.851562 295.117188 117.367188 292.632812 C 114.882812 290.148438 111.511719 288.753906 108 288.753906 C 104.488281 288.753906 101.117188 290.148438 98.632812 292.632812 C 96.148438 295.117188 94.753906 298.488281 94.753906 302 C 94.753906 305.511719 96.148438 308.882812 98.632812 311.367188 C 101.117188 313.851562 104.488281 315.246094 108 315.246094 C 111.511719 315.246094 114.882812 313.851562 117.367188 311.367188 C 119.851562 308.882812 121.246094 305.511719 121.246094 302 Z M 121.246094 302 "/>
</g>
</svg>
