<?xml version="1.0" encoding="UTF-8"?>
<svg xmlns="http://www.w3.org/2000/svg" xmlns:xlink="http://www.w3.org/1999/xlink" width="361pt" height="361pt" viewBox="0 0 361 361" version="1.1">
<defs>
<clipPath id="clip1">
  <path d="M 94 349 L 154 349 L 154 360 L 94 360 Z M 94 349 "/>
</clipPath>
<clipPath id="clip2">
  <path d="M 0 318 L 65 318 L 65 360 L 0 360 Z M 0 318 "/>
</clipPath>
<clipPath id="clip3">
  <path d="M 59 359 L 82 359 L 82 360 L 59 360 Z M 59 359 "/>
</clipPath>
<clipPath id="clip4">
  <path d="M 62 340 L 102 340 L 102 360 L 62 360 Z M 62 340 "/>
</clipPath>
<clipPath id="clip5">
  <path d="M 103 310 L 177 310 L 177 360 L 103 360 Z M 103 310 "/>
</clipPath>
<clipPath id="clip6">
  <path d="M 308 17 L 360 17 L 360 159 L 308 159 Z M 308 17 "/>
</clipPath>
<clipPath id="clip7">
  <path d="M 324 0 L 360 0 L 360 23 L 324 23 Z M 324 0 "/>
</clipPath>
<clipPath id="clip8">
  <path d="M 305 333 L 353 333 L 353 360 L 305 360 Z M 305 333 "/>
</clipPath>
<clipPath id="clip9">
  <path d="M 211 343 L 254 343 L 254 360 L 211 360 Z M 211 343 "/>
</clipPath>
<clipPath id="clip10">
  <path d="M 257 324 L 312 324 L 312 360 L 257 360 Z M 257 324 "/>
</clipPath>
<clipPath id="clip11">
  <path d="M 173 338 L 208 338 L 208 360 L 173 360 Z M 173 338 "/>
</clipPath>
<clipPath id="clip12">
  <path d="M 190 336 L 217 336 L 217 360 L 190 360 Z M 190 336 "/>
</clipPath>
<clipPath id="clip13">
  <path d="M 348 343 L 360 343 L 360 360 L 348 360 Z M 348 343 "/>
</clipPath>
<clipPath id="clip14">
  <path d="M 249 358 L 302 358 L 302 360 L 249 360 Z M 249 358 "/>
</clipPath>
<clipPath id="clip15">
  <path d="M 359 293 L 360 293 L 360 356 L 359 356 Z M 359 293 "/>
</clipPath>
<clipPath id="clip16">
  <path d="M 350 130 L 360 130 L 360 195 L 350 195 Z M 350 130 "/>
</clipPath>
<clipPath id="clip17">
  <path d="M 315 297 L 360 297 L 360 341 L 315 341 Z M 315 297 "/>
</clipPath>
<clipPath id="clip18">
  <path d="M 323 285 L 360 285 L 360 303 L 323 303 Z M 323 285 "/>
</clipPath>
<clipPath id="clip19">
  <path d="M 345 121 L 360 121 L 360 156 L 345 156 Z M 345 121 "/>
</clipPath>
<clipPath id="clip20">
  <path d="M 326 248 L 360 248 L 360 290 L 326 290 Z M 326 248 "/>
</clipPath>
<clipPath id="clip21">
  <path d="M 335 190 L 360 190 L 360 252 L 335 252 Z M 335 190 "/>
</clipPath>
</defs>
<g id="surface546">
<path style="fill-rule:nonzero;fill:rgb(0%,0%,0%);fill-opacity:1;stroke-width:0.03;stroke-linecap:square;stroke-linejoin:miter;stroke:rgb(0%,0%,0%);stroke-opacity:1;stroke-miterlimit:10;" d="M 0 178 L 360 178 L 360 -182 L 0 -182 Z M 0 178 " transform="matrix(1,0,0,1,0,182)"/>
<g clip-path="url(#clip1)" clip-rule="nonzero">
<path style=" stroke:none;fill-rule:nonzero;fill:rgb(39.99939%,39.99939%,39.99939%);fill-opacity:0.3;" d="M 109.132812 405.050781 L 106.070312 404.859375 L 100.449219 407.648438 L 94.03125 407.527344 L 98.644531 378.308594 L 105.921875 380.230469 L 104.519531 386.386719 L 104.835938 386.457031 L 105.15625 386.53125 L 106.707031 380.417969 L 108.171875 380.773438 L 108.375 380.09375 L 106.507812 379.566406 L 98.863281 377.441406 L 101.515625 362.6875 L 109.855469 364.503906 L 109.917969 364.15625 L 109.976562 363.804688 L 101.613281 361.882812 L 103.9375 349.460938 L 111.132812 351.289062 L 108.824219 361.570312 L 109.632812 361.796875 L 110.441406 362.027344 L 112.835938 351.730469 L 120.296875 353.546875 L 121.507812 353.902344 L 122.273438 354.027344 L 153.1875 361.554688 L 146.59375 370.628906 L 140.746094 384.132812 L 121.21875 379.296875 L 114.585938 396.515625 Z M 109.132812 405.050781 "/>
</g>
<g clip-path="url(#clip2)" clip-rule="nonzero">
<path style=" stroke:none;fill-rule:nonzero;fill:rgb(39.99939%,39.99939%,39.99939%);fill-opacity:0.3;" d="M -25.28125 321.960938 L -24.289062 321.570312 L -16.453125 318.429688 L 36.117188 331.9375 L 33.902344 338.441406 L 26.632812 338.683594 L 26.632812 339.363281 L 26.628906 340.046875 L 35.09375 339.78125 L 37.871094 332.328125 L 64.871094 339.445312 L 59.609375 355.765625 L 58.722656 361.144531 L 58.238281 367.664062 L 52.617188 366.175781 L 52.320312 367.027344 L 58.15625 368.597656 L 57.171875 374.976562 L 34.609375 372.117188 L 17.890625 368.574219 L -11.152344 365.867188 L -10.984375 356.480469 L -11.738281 356.464844 L -12.472656 356.449219 L -12.589844 365.742188 L -28.21875 364.511719 L -27.636719 357.980469 L -28.824219 357.886719 L -29.324219 364.390625 L -34.222656 363.902344 L -34.003906 357.765625 L -33.585938 352.160156 L -34.28125 352.117188 L -34.980469 352.078125 L -35.464844 357.496094 L -52.5 354.75 L -45.042969 339.59375 L -45.207031 339.527344 Z M -25.28125 321.960938 "/>
</g>
<g clip-path="url(#clip3)" clip-rule="nonzero">
<path style=" stroke:none;fill-rule:nonzero;fill:rgb(39.99939%,39.99939%,39.99939%);fill-opacity:0.3;" d="M 62.933594 359.105469 L 77.105469 361.308594 L 76.523438 366.089844 L 71.183594 365.859375 L 71.164062 366.386719 L 71.148438 366.917969 L 77.375 367.234375 L 81.546875 367.445312 L 79.085938 378.523438 L 72.179688 376.75 L 72.039062 377.132812 L 71.902344 377.515625 L 78.488281 379.089844 L 73.046875 396.855469 L 70.601562 396.242188 L 69.558594 399.089844 L 59.035156 397.375 L 62.167969 365.152344 Z M 62.933594 359.105469 "/>
</g>
<g clip-path="url(#clip4)" clip-rule="nonzero">
<path style=" stroke:none;fill-rule:nonzero;fill:rgb(39.99939%,39.99939%,39.99939%);fill-opacity:0.3;" d="M 68.507812 340.199219 L 84.867188 344.390625 L 79.351562 354.265625 L 79.992188 354.4375 L 80.582031 354.597656 L 86.15625 344.738281 L 101.089844 348.710938 L 98.105469 367.21875 L 77.738281 363.664062 L 78.128906 360.503906 L 62.90625 358.003906 Z M 68.507812 340.199219 "/>
</g>
<path style=" stroke:none;fill-rule:nonzero;fill:rgb(39.99939%,39.99939%,39.99939%);fill-opacity:0.3;" d="M 36.957031 228.542969 L 42.511719 217.324219 L 58.460938 222.691406 L 65.765625 221.375 L 71.464844 221.886719 L 89.890625 225.6875 L 95.996094 226.015625 L 97.128906 236.1875 L 92.742188 249.007812 L 43.898438 231.277344 Z M 36.957031 228.542969 "/>
<path style=" stroke:none;fill-rule:nonzero;fill:rgb(39.99939%,39.99939%,39.99939%);fill-opacity:0.3;" d="M 77.011719 138.5 L 86.777344 136.117188 L 110.191406 190.84375 L 103.109375 191.140625 L 90.59375 191.667969 L 90.613281 192.34375 L 90.636719 193.140625 L 92.339844 193.078125 L 94.640625 213.78125 L 86.46875 208.410156 L 83.660156 204.09375 L 82.515625 198.675781 Z M 77.011719 138.5 "/>
<path style=" stroke:none;fill-rule:nonzero;fill:rgb(39.99939%,39.99939%,39.99939%);fill-opacity:0.3;" d="M 44.390625 319.273438 L 59.984375 324.335938 L 56.484375 335.101562 L 39.761719 329.742188 Z M 44.390625 319.273438 "/>
<path style=" stroke:none;fill-rule:nonzero;fill:rgb(39.99939%,39.99939%,39.99939%);fill-opacity:0.3;" d="M 114.542969 289.707031 L 173.714844 303.03125 L 177.320312 312.691406 L 175.753906 323.21875 L 147.179688 316.4375 L 149.761719 304.574219 L 149.292969 304.46875 L 148.757812 304.351562 L 146.199219 316.203125 L 109.339844 307.242188 Z M 114.542969 289.707031 "/>
<path style=" stroke:none;fill-rule:nonzero;fill:rgb(39.99939%,39.99939%,39.99939%);fill-opacity:0.3;" d="M 81.644531 304.042969 L 106.859375 310.105469 L 105.671875 317.441406 L 99.214844 318.015625 L 92.308594 318.074219 L 86.816406 317.738281 L 82.488281 316.898438 L 77.242188 315.519531 Z M 81.644531 304.042969 "/>
<path style=" stroke:none;fill-rule:nonzero;fill:rgb(39.99939%,39.99939%,39.99939%);fill-opacity:0.3;" d="M 10.070312 298.484375 L 31.902344 287.109375 L 27.648438 302.59375 Z M 10.070312 298.484375 "/>
<path style=" stroke:none;fill-rule:nonzero;fill:rgb(39.99939%,39.99939%,39.99939%);fill-opacity:0.3;" d="M 120.296875 353.546875 L 122.273438 354.027344 L 121.507812 353.902344 Z M 120.296875 353.546875 "/>
<g clip-path="url(#clip5)" clip-rule="nonzero">
<path style=" stroke:none;fill-rule:nonzero;fill:rgb(39.99939%,39.99939%,39.99939%);fill-opacity:0.3;" d="M 109.605469 310.828125 L 149.84375 319.132812 L 176.714844 325.195312 L 176.746094 333.335938 L 174.65625 345.152344 L 173.894531 348.128906 L 161.1875 345.429688 L 161.410156 341.71875 L 159.289062 340.714844 L 158.984375 341.136719 L 158.675781 341.5625 L 160.183594 342.25 L 160.015625 346.699219 L 173.699219 349.40625 L 168.507812 363.152344 L 140.738281 356.105469 L 147.015625 339.371094 L 145.53125 339.074219 L 142.183594 348.988281 L 131.738281 347.210938 L 130.335938 347.65625 L 125.347656 346.769531 L 125.109375 347.144531 L 124.878906 347.507812 L 141.851562 350.242188 L 139.53125 355.71875 L 103.589844 347.355469 L 104.980469 339.757812 L 111.335938 340.992188 L 111.496094 340.453125 L 111.652344 339.914062 L 105.167969 338.578125 L 106.710938 329.90625 L 107.707031 324.007812 Z M 109.605469 310.828125 "/>
</g>
<path style=" stroke:none;fill-rule:nonzero;fill:rgb(39.99939%,39.99939%,39.99939%);fill-opacity:0.3;" d="M 87.84375 284.421875 L 111.527344 289.964844 L 106.582031 307.472656 L 81.457031 301.777344 Z M 87.84375 284.421875 "/>
<path style=" stroke:none;fill-rule:nonzero;fill:rgb(39.99939%,39.99939%,39.99939%);fill-opacity:0.3;" d="M -0.875 305.324219 L 7.824219 299.109375 L 30.082031 304.386719 L 33.265625 293.054688 L 78.027344 303.554688 L 74.011719 314.78125 L 56.082031 310.0625 L 52.269531 309.253906 L 41.074219 309.15625 L 30.753906 310.621094 L 23.390625 309.9375 L 18.351562 309.125 L 14.347656 308.054688 L 14.253906 308.304688 L 14.15625 308.554688 L 18.070312 309.625 L 16.582031 313.414062 L 4.667969 309.519531 Z M -0.875 305.324219 "/>
<path style=" stroke:none;fill-rule:nonzero;fill:rgb(39.99939%,39.99939%,39.99939%);fill-opacity:0.3;" d="M 42.75 280.65625 L 49.09375 279.722656 L 53.984375 279.289062 L 59.734375 279.175781 L 66.597656 279.511719 L 72.070312 280.316406 L 85.480469 283.757812 L 79.085938 301.136719 L 32.71875 290.628906 L 34.097656 285.386719 Z M 42.75 280.65625 "/>
<path style=" stroke:none;fill-rule:nonzero;fill:rgb(39.99939%,39.99939%,39.99939%);fill-opacity:0.3;" d="M 53.164062 311.378906 L 72.972656 316.402344 L 66.347656 337.832031 L 57.757812 335.480469 L 61.308594 323.859375 L 50 320.28125 Z M 53.164062 311.378906 "/>
<path style=" stroke:none;fill-rule:nonzero;fill:rgb(39.99939%,39.99939%,39.99939%);fill-opacity:0.3;" d="M 106.015625 319.203125 L 105.714844 322.042969 L 102.921875 322.246094 L 101.90625 330.351562 L 103.964844 330.660156 L 101.113281 346.605469 L 92.175781 343.992188 L 69.832031 338.328125 L 76.480469 316.9375 L 83.34375 318.480469 L 82.445312 322.222656 L 82.902344 322.285156 L 83.40625 322.359375 L 84.300781 318.730469 L 87.578125 319.445312 L 86.398438 326.191406 L 94.367188 328.816406 L 93.496094 332.230469 L 94.019531 332.328125 L 94.621094 332.433594 L 95.386719 329.171875 L 95.066406 327.953125 L 87.949219 325.785156 L 89.015625 319.5 L 92.085938 319.617188 Z M 106.015625 319.203125 "/>
<path style=" stroke:none;fill-rule:nonzero;fill:rgb(39.99939%,39.99939%,39.99939%);fill-opacity:0.3;" d="M -2.496094 306.695312 L 3.359375 309.941406 L 16.972656 314.195312 L 18.675781 310.246094 L 23.414062 311.277344 L 31.171875 311.953125 L 41.660156 310.300781 L 51.617188 310.835938 L 48.457031 319.777344 L 43.601562 318.222656 L 38.367188 329.476562 L -14.996094 315.535156 L -13.472656 313.402344 Z M -2.496094 306.695312 "/>
<path style=" stroke:none;fill-rule:nonzero;fill:rgb(39.99939%,39.99939%,39.99939%);fill-opacity:0.3;" d="M 121.9375 261.945312 L 129.128906 264.109375 L 128.40625 267.621094 L 150.773438 274.441406 L 162.25 273.730469 L 173.058594 298.992188 L 115.554688 286.230469 Z M 121.9375 261.945312 "/>
<path style=" stroke:none;fill-rule:nonzero;fill:rgb(39.99939%,39.99939%,39.99939%);fill-opacity:0.3;" d="M 116.539062 245.871094 L 116.425781 246.027344 L 114.832031 248.101562 L 111.542969 246.394531 L 111.265625 246.71875 L 110.984375 247.042969 L 114.523438 249.21875 L 109.445312 255.070312 L 92.742188 249.007812 L 97.128906 236.1875 L 100.9375 238.855469 L 110.082031 244.1875 Z M 116.539062 245.871094 "/>
<path style=" stroke:none;fill-rule:nonzero;fill:rgb(39.99939%,39.99939%,39.99939%);fill-opacity:0.3;" d="M 110.757812 258.34375 L 119.890625 261.082031 L 113.386719 286.738281 L 74.601562 277.550781 L 91.4375 274.683594 L 100.09375 271.429688 L 103.878906 274.253906 L 104.445312 273.566406 L 105.011719 272.882812 L 101.320312 269.9375 Z M 110.757812 258.34375 "/>
<path style=" stroke:none;fill-rule:nonzero;fill:rgb(39.99939%,39.99939%,39.99939%);fill-opacity:0.3;" d="M 113.738281 257.527344 L 122.640625 247.464844 L 151.625 255.027344 L 161.53125 272.054688 L 150.429688 272.5625 L 139.1875 269.78125 L 139.671875 264.746094 L 138.304688 264.636719 L 137.871094 269.460938 L 130.679688 266.46875 L 131.351562 263.148438 L 133.730469 251.597656 L 130.113281 251.0625 L 130.058594 251.457031 L 130.003906 251.863281 L 132.277344 252.214844 L 129.425781 262.804688 Z M 113.738281 257.527344 "/>
<path style=" stroke:none;fill-rule:nonzero;fill:rgb(39.99939%,39.99939%,39.99939%);fill-opacity:0.3;" d="M 51.15625 236.894531 L 56.511719 238.847656 L 55.355469 243.734375 L 55.90625 243.96875 L 56.460938 244.203125 L 57.613281 239.261719 L 67.242188 242.691406 L 65.710938 248.957031 L 66.460938 249.222656 L 67.214844 249.492188 L 68.742188 243.253906 L 80.445312 247.664062 L 74.160156 265.214844 L 67.953125 263.675781 L 67.808594 264.101562 L 67.570312 264.804688 L 75.28125 266.84375 L 82.105469 248.292969 L 91.742188 251.546875 L 87.011719 260.183594 L 86.722656 262.457031 L 87.304688 262.578125 L 87.839844 262.691406 L 88.128906 260.574219 L 93.132812 252.027344 L 99.988281 254.585938 L 97.285156 260.753906 L 97.886719 261.027344 L 98.492188 261.296875 L 101.226562 255.050781 L 108.199219 257.492188 L 102.539062 262.808594 L 94.488281 266.507812 L 84.535156 270.207031 L 76.398438 272.707031 L 69.152344 272.984375 L 62.691406 272.613281 L 55.347656 271.871094 L 54.828125 265.632812 L 54.164062 257.332031 L 52.539062 243.46875 Z M 51.15625 236.894531 "/>
<path style=" stroke:none;fill-rule:nonzero;fill:rgb(39.99939%,39.99939%,39.99939%);fill-opacity:0.3;" d="M 21.785156 4.382812 L 84.636719 -32.613281 L 136.421875 45.84375 L 49.515625 45.609375 Z M 21.785156 4.382812 "/>
<path style=" stroke:none;fill-rule:nonzero;fill:rgb(39.99939%,39.99939%,39.99939%);fill-opacity:0.3;" d="M 288.625 34.667969 L 302.0625 27.402344 L 311.488281 41.382812 L 307.253906 63.453125 Z M 288.625 34.667969 "/>
<path style=" stroke:none;fill-rule:nonzero;fill:rgb(39.99939%,39.99939%,39.99939%);fill-opacity:0.3;" d="M 290.089844 70.921875 L 300.476562 65.351562 L 305.734375 73.160156 L 299.371094 77.664062 Z M 290.089844 70.921875 "/>
<path style=" stroke:none;fill-rule:nonzero;fill:rgb(39.99939%,39.99939%,39.99939%);fill-opacity:0.3;" d="M 306.128906 25.804688 L 316.34375 19.960938 L 313.597656 35.847656 Z M 306.128906 25.804688 "/>
<path style=" stroke:none;fill-rule:nonzero;fill:rgb(39.99939%,39.99939%,39.99939%);fill-opacity:0.3;" d="M 227.25 -22.914062 L 239.296875 -30.019531 L 259.445312 0.582031 L 247.40625 7.761719 Z M 227.25 -22.914062 "/>
<path style=" stroke:none;fill-rule:nonzero;fill:rgb(39.99939%,39.99939%,39.99939%);fill-opacity:0.3;" d="M 283.089844 -8.285156 L 295.980469 -15.972656 L 315.773438 14.117188 L 303.402344 21.367188 Z M 283.089844 -8.285156 "/>
<path style=" stroke:none;fill-rule:nonzero;fill:rgb(39.99939%,39.99939%,39.99939%);fill-opacity:0.3;" d="M 300.539062 -19.007812 L 313.851562 -26.945312 L 322.242188 -14.285156 L 317.953125 8.242188 Z M 300.539062 -19.007812 "/>
<path style=" stroke:none;fill-rule:nonzero;fill:rgb(39.99939%,39.99939%,39.99939%);fill-opacity:0.3;" d="M 175.921875 6.992188 L 188.9375 -0.683594 L 209.265625 30.140625 L 196.484375 37.765625 Z M 175.921875 6.992188 "/>
<path style=" stroke:none;fill-rule:nonzero;fill:rgb(39.99939%,39.99939%,39.99939%);fill-opacity:0.3;" d="M 198.539062 41.078125 L 211.410156 33.402344 L 219.519531 45.699219 L 201.941406 46.003906 Z M 198.539062 41.078125 "/>
<path style=" stroke:none;fill-rule:nonzero;fill:rgb(39.99939%,39.99939%,39.99939%);fill-opacity:0.3;" d="M 136.617188 -16.136719 L 149.992188 -24.078125 L 169.875 5.878906 L 156.265625 13.539062 Z M 136.617188 -16.136719 "/>
<path style=" stroke:none;fill-rule:nonzero;fill:rgb(39.99939%,39.99939%,39.99939%);fill-opacity:0.3;" d="M 209.59375 -13.046875 L 222.324219 -20.554688 L 242.496094 10.144531 L 229.765625 17.734375 Z M 209.59375 -13.046875 "/>
<path style=" stroke:none;fill-rule:nonzero;fill:rgb(39.99939%,39.99939%,39.99939%);fill-opacity:0.3;" d="M 231.945312 20.996094 L 244.679688 13.402344 L 264.710938 43.507812 L 255.761719 46.824219 L 247.484375 46.199219 Z M 231.945312 20.996094 "/>
<path style=" stroke:none;fill-rule:nonzero;fill:rgb(39.99939%,39.99939%,39.99939%);fill-opacity:0.3;" d="M 158.542969 17.085938 L 171.980469 9.160156 L 192.457031 40.011719 L 182.398438 45.90625 L 177.605469 45.765625 Z M 158.542969 17.085938 "/>
<path style=" stroke:none;fill-rule:nonzero;fill:rgb(39.99939%,39.99939%,39.99939%);fill-opacity:0.3;" d="M 141.503906 27.007812 L 154.464844 19.363281 L 171.742188 45.859375 L 153.609375 45.644531 Z M 141.503906 27.007812 "/>
<path style=" stroke:none;fill-rule:nonzero;fill:rgb(39.99939%,39.99939%,39.99939%);fill-opacity:0.3;" d="M 215.003906 30.980469 L 227.226562 23.691406 L 241.480469 45.441406 L 224.507812 45.394531 Z M 215.003906 30.980469 "/>
<path style=" stroke:none;fill-rule:nonzero;fill:rgb(39.99939%,39.99939%,39.99939%);fill-opacity:0.3;" d="M 119.546875 -6.195312 L 132.433594 -13.851562 L 152.078125 15.8125 L 139.109375 23.460938 Z M 119.546875 -6.195312 "/>
<path style=" stroke:none;fill-rule:nonzero;fill:rgb(39.99939%,39.99939%,39.99939%);fill-opacity:0.3;" d="M 131.984375 -59.679688 L 145.203125 -67.460938 L 186.898438 -4.25 L 173.871094 3.433594 Z M 131.984375 -59.679688 "/>
<path style=" stroke:none;fill-rule:nonzero;fill:rgb(39.99939%,39.99939%,39.99939%);fill-opacity:0.3;" d="M 192.914062 -3.082031 L 205.28125 -10.375 L 225.46875 20.429688 L 213.234375 27.726562 Z M 192.914062 -3.082031 "/>
<path style=" stroke:none;fill-rule:nonzero;fill:rgb(39.99939%,39.99939%,39.99939%);fill-opacity:0.3;" d="M 261.738281 49.941406 L 267.359375 46.484375 L 279.082031 62.605469 Z M 261.738281 49.941406 "/>
<path style=" stroke:none;fill-rule:nonzero;fill:rgb(39.99939%,39.99939%,39.99939%);fill-opacity:0.3;" d="M 249.5625 11.097656 L 261.601562 3.914062 L 281.238281 33.742188 L 269.109375 40.847656 Z M 249.5625 11.097656 "/>
<path style=" stroke:none;fill-rule:nonzero;fill:rgb(39.99939%,39.99939%,39.99939%);fill-opacity:0.3;" d="M 271.855469 43.996094 L 284.53125 36.546875 L 299.191406 59.992188 L 286.628906 66.878906 Z M 271.855469 43.996094 "/>
<path style=" stroke:none;fill-rule:nonzero;fill:rgb(39.99939%,39.99939%,39.99939%);fill-opacity:0.3;" d="M 266.65625 1.5625 L 279.800781 -6.277344 L 299.585938 23.644531 L 286.3125 31.425781 Z M 266.65625 1.5625 "/>
<g clip-path="url(#clip6)" clip-rule="nonzero">
<path style=" stroke:none;fill-rule:nonzero;fill:rgb(39.99939%,39.99939%,39.99939%);fill-opacity:0.3;" d="M 321.097656 17.109375 L 437.992188 32.738281 L 419.691406 158.644531 L 308.683594 81.78125 Z M 321.097656 17.109375 "/>
</g>
<g clip-path="url(#clip7)" clip-rule="nonzero">
<path style=" stroke:none;fill-rule:nonzero;fill:rgb(39.99939%,39.99939%,39.99939%);fill-opacity:0.3;" d="M 387.535156 3.78125 L 385.136719 22.871094 L 324.203125 14.246094 L 326.714844 -4.464844 Z M 387.535156 3.78125 "/>
</g>
<g clip-path="url(#clip8)" clip-rule="nonzero">
<path style=" stroke:none;fill-rule:nonzero;fill:rgb(39.99939%,39.99939%,39.99939%);fill-opacity:0.3;" d="M 328.632812 379.285156 L 330.449219 373.164062 L 329.773438 373.007812 L 329.09375 372.851562 L 327.191406 378.707031 L 325.226562 377.917969 L 305.550781 371.300781 L 314.46875 333.695312 L 329.023438 337.414062 L 327.898438 343.03125 L 328.359375 344.828125 L 327.472656 350.101562 L 333.367188 351.507812 L 333.421875 351.03125 L 333.472656 350.558594 L 328.714844 349.390625 L 329.585938 344.730469 L 328.972656 342.738281 L 330.097656 337.59375 L 352.691406 342.769531 L 350.351562 355.007812 L 343.234375 352.789062 L 343.011719 353.574219 L 342.792969 354.359375 L 350.046875 356.492188 L 344.976562 385.84375 Z M 328.632812 379.285156 "/>
</g>
<g clip-path="url(#clip9)" clip-rule="nonzero">
<path style=" stroke:none;fill-rule:nonzero;fill:rgb(39.99939%,39.99939%,39.99939%);fill-opacity:0.3;" d="M 219.023438 343.601562 L 232.980469 348.886719 L 237.613281 365.34375 L 237.773438 367.390625 L 236.402344 369.863281 L 235.027344 371.167969 L 229.492188 371.148438 L 229.492188 373.363281 L 237.613281 373.46875 L 239.148438 369.863281 L 239.699219 367.128906 L 239.421875 363.871094 L 235.328125 351.03125 L 253.761719 357.566406 L 251.425781 365.015625 L 246.695312 383.695312 L 240.734375 382.296875 L 213.933594 375.191406 L 211.648438 372.988281 Z M 219.023438 343.601562 "/>
</g>
<g clip-path="url(#clip10)" clip-rule="nonzero">
<path style=" stroke:none;fill-rule:nonzero;fill:rgb(39.99939%,39.99939%,39.99939%);fill-opacity:0.3;" d="M 266.730469 324.246094 L 311.570312 333.003906 L 302.707031 370.359375 L 257.351562 356.238281 Z M 266.730469 324.246094 "/>
</g>
<g clip-path="url(#clip11)" clip-rule="nonzero">
<path style=" stroke:none;fill-rule:nonzero;fill:rgb(39.99939%,39.99939%,39.99939%);fill-opacity:0.3;" d="M 182.03125 338.117188 L 188.238281 339.167969 L 207.46875 373.457031 L 173.058594 363.738281 Z M 182.03125 338.117188 "/>
</g>
<g clip-path="url(#clip12)" clip-rule="nonzero">
<path style=" stroke:none;fill-rule:nonzero;fill:rgb(39.99939%,39.99939%,39.99939%);fill-opacity:0.3;" d="M 190.832031 336.207031 L 216.484375 342.902344 L 209.703125 370.035156 L 204.871094 363.984375 L 197.996094 351.992188 L 195.183594 346.386719 Z M 190.832031 336.207031 "/>
</g>
<path style=" stroke:none;fill-rule:nonzero;fill:rgb(39.99939%,39.99939%,39.99939%);fill-opacity:0.3;" d="M 184.210938 306.625 L 236.890625 317.292969 L 230.644531 341.632812 L 190.96875 330.09375 L 188.632812 328.613281 L 187.410156 325.976562 L 185.519531 321.964844 L 184.511719 319.292969 L 183.066406 316.132812 Z M 184.210938 306.625 "/>
<path style=" stroke:none;fill-rule:nonzero;fill:rgb(39.99939%,39.99939%,39.99939%);fill-opacity:0.3;" d="M 240.214844 318.71875 L 263.757812 323.488281 L 255.492188 354.28125 L 245.351562 350.574219 L 245.917969 348.089844 L 233.882812 343.984375 Z M 240.214844 318.71875 "/>
<g clip-path="url(#clip13)" clip-rule="nonzero">
<path style=" stroke:none;fill-rule:nonzero;fill:rgb(39.99939%,39.99939%,39.99939%);fill-opacity:0.3;" d="M 357.488281 343.640625 L 431.125 358.519531 L 418.539062 408.675781 L 348.71875 391.445312 Z M 357.488281 343.640625 "/>
</g>
<g clip-path="url(#clip14)" clip-rule="nonzero">
<path style=" stroke:none;fill-rule:nonzero;fill:rgb(39.99939%,39.99939%,39.99939%);fill-opacity:0.3;" d="M 256.238281 358.265625 L 301.46875 373.238281 L 295.144531 395.628906 L 277.179688 391.410156 L 279.234375 382.207031 L 278.414062 381.988281 L 277.597656 381.773438 L 275.355469 390.96875 L 266.613281 388.519531 L 261.320312 386.667969 L 260.714844 386.546875 L 262.023438 380.605469 L 261.53125 380.566406 L 260.945312 380.515625 L 259.488281 386.300781 L 249.476562 384.296875 L 253.976562 365.902344 L 258.460938 366.480469 L 258.527344 365.96875 L 258.585938 365.523438 L 254.277344 364.894531 Z M 256.238281 358.265625 "/>
</g>
<path style=" stroke:none;fill-rule:nonzero;fill:rgb(39.99939%,39.99939%,39.99939%);fill-opacity:0.3;" d="M 95.996094 226.015625 L 102.035156 226.339844 L 104.476562 223.964844 L 124.566406 233.703125 L 119.238281 241.679688 L 114.734375 239.75 L 116.074219 236.261719 L 104.28125 232.082031 L 104.144531 232.320312 L 104.003906 232.5625 L 115.144531 236.496094 L 113.652344 240.089844 L 119.054688 242.445312 L 116.539062 245.871094 L 110.082031 244.1875 L 100.9375 238.855469 L 97.128906 236.1875 Z M 95.996094 226.015625 "/>
<path style=" stroke:none;fill-rule:nonzero;fill:rgb(39.99939%,39.99939%,39.99939%);fill-opacity:0.3;" d="M 115.871094 52.964844 L 145.652344 52.984375 L 150.289062 59.800781 L 136.363281 64.644531 L 136.472656 65.59375 L 136.589844 66.628906 L 151.617188 61.375 L 162.734375 78.289062 L 113.863281 70.652344 Z M 115.871094 52.964844 "/>
<path style=" stroke:none;fill-rule:nonzero;fill:rgb(39.99939%,39.99939%,39.99939%);fill-opacity:0.3;" d="M 193.691406 226.5 L 240.964844 233.480469 L 235.574219 246.558594 L 217.171875 245.207031 L 216.960938 246.273438 L 216.75 247.34375 L 234.742188 248.675781 L 226.789062 267.285156 L 189.464844 260.445312 L 191.445312 242.941406 L 203.644531 242.441406 L 203.644531 240.84375 L 191.867188 241.207031 Z M 193.691406 226.5 "/>
<path style=" stroke:none;fill-rule:nonzero;fill:rgb(39.99939%,39.99939%,39.99939%);fill-opacity:0.3;" d="M 137.601562 218.957031 L 190.40625 226.179688 L 187.523438 248.441406 L 178.824219 247.507812 L 178.757812 248.144531 L 178.6875 248.78125 L 187.375 249.722656 L 186.175781 260.054688 L 156.050781 254.96875 L 152.753906 248.921875 L 149.988281 242.617188 L 163.347656 240.449219 L 163.019531 239.058594 L 162.695312 237.667969 L 148.359375 239.832031 L 136.304688 222.367188 Z M 137.601562 218.957031 "/>
<path style=" stroke:none;fill-rule:nonzero;fill:rgb(39.99939%,39.99939%,39.99939%);fill-opacity:0.3;" d="M 122.640625 247.464844 L 125.394531 244.355469 L 144.851562 243.378906 L 151.625 255.027344 Z M 122.640625 247.464844 "/>
<path style=" stroke:none;fill-rule:nonzero;fill:rgb(39.99939%,39.99939%,39.99939%);fill-opacity:0.3;" d="M 170.90625 90.3125 L 201.226562 133.511719 L 202.699219 137.613281 L 202.886719 141.464844 L 200.332031 160.796875 L 157.984375 154.164062 L 161.847656 134.53125 L 181.0625 137.996094 L 181.238281 137.289062 L 181.414062 136.578125 L 162.203125 133.179688 Z M 170.90625 90.3125 "/>
<path style=" stroke:none;fill-rule:nonzero;fill:rgb(39.99939%,39.99939%,39.99939%);fill-opacity:0.3;" d="M 163.496094 55.386719 L 178.675781 56.09375 L 178.910156 51.429688 L 206.90625 52.160156 L 203.363281 83.019531 L 201.78125 97.070312 L 202.605469 97.15625 L 203.425781 97.242188 L 205.203125 83.820312 L 242.136719 91.273438 L 236.625 119.707031 L 237.542969 119.886719 L 238.457031 120.066406 L 244.109375 91.691406 L 266.308594 96.34375 L 269.046875 97.019531 L 291.894531 101.992188 L 269.792969 160.105469 L 264.140625 160.707031 L 264.746094 157.503906 L 264.070312 157.417969 L 263.398438 157.332031 L 262.734375 160.6875 L 252.761719 160.035156 L 261.960938 117.71875 L 260.824219 117.5625 L 259.691406 117.410156 L 250.210938 159.367188 L 246.449219 158.296875 L 243.5 168.859375 L 245.515625 169.566406 L 257.125 172.132812 L 260.644531 162.570312 L 269.207031 162.105469 L 254.957031 199.125 L 253.320312 200.757812 L 252.769531 202.796875 L 172.621094 77.683594 Z M 163.496094 55.386719 "/>
<path style=" stroke:none;fill-rule:nonzero;fill:rgb(39.99939%,39.99939%,39.99939%);fill-opacity:0.3;" d="M 209.507812 60.679688 L 232.585938 61.996094 L 232.492188 59.527344 L 209.804688 58.171875 L 210.570312 51.683594 L 251.238281 52.75 L 256.84375 54.261719 L 300.746094 83.253906 L 294.828125 98.375 L 207.246094 79.882812 Z M 209.507812 60.679688 "/>
<path style=" stroke:none;fill-rule:nonzero;fill:rgb(39.99939%,39.99939%,39.99939%);fill-opacity:0.3;" d="M 113.609375 73.394531 L 162.953125 82.085938 L 162.011719 90.117188 L 162.449219 90.164062 L 162.90625 90.171875 L 164.027344 82.335938 L 167.945312 83.050781 L 158.203125 133.65625 L 107.964844 127.550781 L 111.859375 93.335938 L 148.710938 100.300781 L 149.09375 99.0625 L 149.472656 97.824219 L 111.917969 90.953125 Z M 113.609375 73.394531 "/>
<path style=" stroke:none;fill-rule:nonzero;fill:rgb(39.99939%,39.99939%,39.99939%);fill-opacity:0.3;" d="M 198.222656 202.027344 L 221.945312 206.507812 L 222.070312 227.632812 L 194.953125 223.746094 Z M 198.222656 202.027344 "/>
<path style=" stroke:none;fill-rule:nonzero;fill:rgb(39.99939%,39.99939%,39.99939%);fill-opacity:0.3;" d="M 70.078125 86.289062 L 108.675781 92.941406 L 103.96875 146.203125 L 97.074219 145.300781 L 82.730469 114.121094 Z M 70.078125 86.289062 "/>
<path style=" stroke:none;fill-rule:nonzero;fill:rgb(39.99939%,39.99939%,39.99939%);fill-opacity:0.3;" d="M 116.867188 188.125 L 98.464844 148.863281 L 124.941406 152.660156 L 124.730469 161.578125 L 127.378906 161.640625 L 127.605469 153.019531 L 153.480469 156.863281 L 148.972656 180.15625 L 143.617188 215.859375 L 129.886719 213.980469 L 128.089844 211.53125 L 121.546875 199.753906 L 118.386719 191.429688 L 131.226562 192.335938 L 131.386719 190.773438 L 131.546875 189.214844 Z M 116.867188 188.125 "/>
<path style=" stroke:none;fill-rule:nonzero;fill:rgb(39.99939%,39.99939%,39.99939%);fill-opacity:0.3;" d="M 157.378906 157.679688 L 177.164062 160.363281 L 166.59375 196.324219 L 193.960938 201.191406 L 190.558594 223.6875 L 178.457031 222.035156 L 181.769531 208.21875 L 180.710938 207.933594 L 179.65625 207.648438 L 176.285156 221.738281 L 147.023438 217.734375 L 152.625 181.027344 Z M 157.378906 157.679688 "/>
<path style=" stroke:none;fill-rule:nonzero;fill:rgb(39.99939%,39.99939%,39.99939%);fill-opacity:0.3;" d="M 206.4375 142.167969 L 246.714844 199.933594 L 248.382812 204.976562 L 249.144531 209.949219 L 248.953125 215.679688 L 244.429688 226.730469 L 242.402344 230.917969 L 224.417969 228.09375 L 225.050781 205.328125 L 223.476562 186.660156 L 222.214844 186.753906 L 220.957031 186.847656 L 222.367188 204.675781 L 197.71875 200.3125 L 200.785156 183.59375 L 207.6875 183.742188 L 208.316406 180.480469 L 216.078125 180.972656 L 213.789062 173.386719 L 212.066406 166.246094 L 203.183594 166.273438 Z M 206.4375 142.167969 "/>
<path style=" stroke:none;fill-rule:nonzero;fill:rgb(39.99939%,39.99939%,39.99939%);fill-opacity:0.3;" d="M 82.445312 52.941406 L 110.882812 52.953125 L 108.175781 89.9375 L 79 85.65625 Z M 82.445312 52.941406 "/>
<path style=" stroke:none;fill-rule:nonzero;fill:rgb(39.99939%,39.99939%,39.99939%);fill-opacity:0.3;" d="M 187.90625 281.414062 L 190.171875 262.863281 L 226.472656 269.234375 L 221.125 288.097656 L 214.910156 308.570312 L 185.324219 302.578125 Z M 187.90625 281.414062 "/>
<path style=" stroke:none;fill-rule:nonzero;fill:rgb(39.99939%,39.99939%,39.99939%);fill-opacity:0.3;" d="M 107.875 129.398438 L 157.796875 135.605469 L 154.183594 153.46875 L 106.25 146.964844 Z M 107.875 129.398438 "/>
<path style=" stroke:none;fill-rule:nonzero;fill:rgb(39.99939%,39.99939%,39.99939%);fill-opacity:0.3;" d="M 51.429688 52.945312 L 78.035156 52.734375 L 74.839844 84.238281 L 71.582031 83.789062 L 68.40625 82.46875 L 66.21875 80.585938 Z M 51.429688 52.945312 "/>
<path style=" stroke:none;fill-rule:nonzero;fill:rgb(39.99939%,39.99939%,39.99939%);fill-opacity:0.3;" d="M 179.265625 160.898438 L 199.601562 163.65625 L 194.097656 199.160156 L 169.007812 194.671875 L 175.371094 172.253906 L 182.851562 173.628906 L 184.554688 166.191406 L 177.542969 164.929688 Z M 179.265625 160.898438 "/>
<path style=" stroke:none;fill-rule:nonzero;fill:rgb(39.99939%,39.99939%,39.99939%);fill-opacity:0.3;" d="M 92.339844 193.078125 L 102.316406 192.714844 L 102.433594 196.75 L 103.320312 196.691406 L 104.207031 196.628906 L 104.210938 192.660156 L 110.847656 192.339844 L 118.527344 208.703125 L 127.945312 222.675781 L 139.085938 236.601562 L 128.695312 235.75 L 128.3125 232.261719 L 107 221.910156 L 94.640625 213.78125 Z M 92.339844 193.078125 "/>
<path style=" stroke:none;fill-rule:nonzero;fill:rgb(39.99939%,39.99939%,39.99939%);fill-opacity:0.3;" d="M 158.015625 257.210938 L 186.925781 261.476562 L 183.355469 302.292969 L 180.082031 301.863281 L 177.3125 298.015625 L 172.148438 285.652344 L 165.855469 273.503906 Z M 158.015625 257.210938 "/>
<g clip-path="url(#clip15)" clip-rule="nonzero">
<path style=" stroke:none;fill-rule:nonzero;fill:rgb(39.99939%,39.99939%,39.99939%);fill-opacity:0.3;" d="M 369.136719 293.011719 L 383.0625 295.929688 L 391.320312 296.992188 L 389.410156 306.183594 L 387.847656 313.699219 L 388.902344 313.910156 L 390.515625 306.101562 L 417.175781 309.710938 L 417.425781 308.453125 L 390.722656 304.902344 L 392.652344 297.335938 L 414.167969 300.726562 L 445.363281 304.003906 L 436.292969 338.175781 L 421.867188 336.441406 L 421.480469 337.65625 L 421.09375 338.867188 L 435.890625 340.855469 L 432.25 355.035156 L 401.277344 350.339844 L 400.710938 350.210938 L 403.953125 336.945312 L 403.320312 336.894531 L 402.691406 336.84375 L 399.285156 349.867188 L 387.710938 347.289062 L 389.035156 342.003906 L 387.433594 341.628906 L 386.195312 346.730469 L 359.203125 340.722656 Z M 369.136719 293.011719 "/>
</g>
<path style=" stroke:none;fill-rule:nonzero;fill:rgb(39.99939%,39.99939%,39.99939%);fill-opacity:0.3;" d="M 267.15625 175.183594 L 286.921875 181.433594 L 284.574219 191.40625 L 277.507812 189.359375 L 277.183594 190.453125 L 276.867188 191.515625 L 285.976562 194.066406 L 289.007812 182.050781 L 291.210938 182.675781 L 294.125 183.136719 L 296.917969 183.367188 L 303.472656 183.300781 L 305.078125 183.367188 L 301.078125 195.566406 L 297.886719 206.367188 L 292.441406 205.5625 L 293.921875 200.382812 L 293.148438 200.242188 L 292.378906 200.105469 L 290.648438 206.699219 L 297.519531 207.613281 L 288.582031 237.863281 L 258.417969 233.402344 L 259.648438 227.945312 L 261.609375 228.179688 L 261.792969 215.859375 L 263.570312 216.03125 L 265.40625 206.371094 L 264.765625 206.222656 L 264.128906 206.070312 L 262.40625 213.242188 L 260.300781 214.546875 L 258.179688 214.058594 L 255.425781 222.367188 L 254.261719 222.25 L 253.648438 224.867188 L 258.730469 225.679688 L 256.769531 233.15625 L 246.40625 231.628906 L 253.410156 214.5625 L 259.367188 196.085938 Z M 267.15625 175.183594 "/>
<g clip-path="url(#clip16)" clip-rule="nonzero">
<path style=" stroke:none;fill-rule:nonzero;fill:rgb(39.99939%,39.99939%,39.99939%);fill-opacity:0.3;" d="M 365.015625 130.34375 L 398.691406 153.660156 L 393.929688 172.644531 L 382.265625 170.488281 L 382.058594 171 L 381.847656 171.511719 L 393.25 174.738281 L 389.601562 194.515625 L 350.835938 187.90625 L 358.265625 157.605469 L 370.390625 159.949219 L 370.605469 159.203125 L 370.820312 158.460938 L 358.644531 155.847656 Z M 365.015625 130.34375 "/>
</g>
<g clip-path="url(#clip17)" clip-rule="nonzero">
<path style=" stroke:none;fill-rule:nonzero;fill:rgb(39.99939%,39.99939%,39.99939%);fill-opacity:0.3;" d="M 348.398438 338.292969 L 315.296875 330.695312 L 319.464844 312.953125 L 332.355469 315.679688 L 332.515625 314.988281 L 332.675781 314.300781 L 320.023438 311.496094 L 323.101562 297.246094 L 343.332031 300.195312 L 340.730469 312.6875 L 341.285156 312.820312 L 341.835938 312.953125 L 344.507812 300.476562 L 363.933594 304.292969 L 356.964844 340.257812 L 350.027344 338.664062 L 351.746094 330.746094 L 350.917969 330.570312 L 350.085938 330.398438 Z M 348.398438 338.292969 "/>
</g>
<path style=" stroke:none;fill-rule:nonzero;fill:rgb(39.99939%,39.99939%,39.99939%);fill-opacity:0.3;" d="M 274.234375 299.519531 L 285.660156 301.375 L 285.464844 303.707031 L 287.800781 303.902344 L 288.496094 297.519531 L 286.015625 297.210938 L 285.757812 299.605469 L 274.648438 297.867188 L 276.523438 290.417969 L 320.035156 296.765625 L 312.609375 330.023438 L 275.570312 322.25 L 277.117188 315.183594 L 276.007812 314.980469 L 274.898438 314.78125 L 273.359375 321.589844 L 268.921875 320.636719 Z M 274.234375 299.519531 "/>
<path style=" stroke:none;fill-rule:nonzero;fill:rgb(39.99939%,39.99939%,39.99939%);fill-opacity:0.3;" d="M 302.703125 85.96875 L 312.089844 92.171875 L 330.8125 105.71875 L 325.972656 120.472656 L 318.308594 118.617188 L 318.042969 119.941406 L 317.78125 121.265625 L 325.148438 122.984375 L 305.988281 181.402344 L 298.890625 181.445312 L 296.097656 181.214844 L 293.179688 180.753906 L 287.316406 179.078125 L 290.050781 171.453125 L 289.476562 171.253906 L 288.902344 171.050781 L 286.171875 178.652344 L 283.183594 177.707031 L 269.023438 171.570312 Z M 302.703125 85.96875 "/>
<path style=" stroke:none;fill-rule:nonzero;fill:rgb(39.99939%,39.99939%,39.99939%);fill-opacity:0.3;" d="M 254.957031 199.125 L 253.25 203.550781 L 252.769531 202.796875 L 253.320312 200.757812 Z M 254.957031 199.125 "/>
<path style=" stroke:none;fill-rule:nonzero;fill:rgb(39.99939%,39.99939%,39.99939%);fill-opacity:0.3;" d="M 290.769531 241.191406 L 310.539062 244.152344 L 306.75 259.375 L 309.328125 259.9375 L 313.035156 244.527344 L 332.054688 247.378906 L 323.515625 281.4375 L 280.894531 274.613281 L 287.042969 253.972656 L 293.226562 255.738281 L 293.484375 255.066406 L 293.761719 254.335938 L 287.546875 252.261719 L 288.925781 248.289062 L 295.363281 249.292969 L 295.574219 248.613281 L 295.746094 248.054688 L 289.296875 246.914062 Z M 290.769531 241.191406 "/>
<path style=" stroke:none;fill-rule:nonzero;fill:rgb(39.99939%,39.99939%,39.99939%);fill-opacity:0.3;" d="M 279.808594 279.445312 L 322.828125 285.359375 L 320.300781 295.601562 L 276.867188 289.269531 Z M 279.808594 279.445312 "/>
<g clip-path="url(#clip18)" clip-rule="nonzero">
<path style=" stroke:none;fill-rule:nonzero;fill:rgb(39.99939%,39.99939%,39.99939%);fill-opacity:0.3;" d="M 325.898438 285.765625 L 336.1875 287.347656 L 366.144531 292.683594 L 364.613281 302.679688 L 323.375 296.082031 Z M 325.898438 285.765625 "/>
</g>
<path style=" stroke:none;fill-rule:nonzero;fill:rgb(39.99939%,39.99939%,39.99939%);fill-opacity:0.3;" d="M 319.519531 149.1875 L 354.046875 157.824219 L 347.132812 187.453125 L 308.863281 181.800781 Z M 319.519531 149.1875 "/>
<g clip-path="url(#clip19)" clip-rule="nonzero">
<path style=" stroke:none;fill-rule:nonzero;fill:rgb(39.99939%,39.99939%,39.99939%);fill-opacity:0.3;" d="M 353.085938 121.332031 L 361.28125 127.449219 L 354.785156 155.390625 L 345.625 153.097656 Z M 353.085938 121.332031 "/>
</g>
<path style=" stroke:none;fill-rule:nonzero;fill:rgb(39.99939%,39.99939%,39.99939%);fill-opacity:0.3;" d="M 230.464844 270.660156 L 276.378906 278.945312 L 265.96875 318.914062 L 219.824219 309.566406 L 224.535156 286.558594 Z M 230.464844 270.660156 "/>
<path style=" stroke:none;fill-rule:nonzero;fill:rgb(39.99939%,39.99939%,39.99939%);fill-opacity:0.3;" d="M 245.359375 234.929688 L 260.144531 237.109375 L 257.0625 249.238281 L 258.207031 249.449219 L 259.351562 249.65625 L 262.351562 237.4375 L 287.964844 241.226562 L 278.121094 274.554688 L 231.773438 266.542969 Z M 245.359375 234.929688 "/>
<g clip-path="url(#clip20)" clip-rule="nonzero">
<path style=" stroke:none;fill-rule:nonzero;fill:rgb(39.99939%,39.99939%,39.99939%);fill-opacity:0.3;" d="M 335.164062 248.316406 L 362.070312 251.699219 L 359.820312 263.035156 L 360.691406 263.183594 L 361.429688 263.3125 L 363.875 251.972656 L 372.96875 253.433594 L 365.277344 289.769531 L 331.683594 283.214844 L 326.816406 282.4375 L 330.648438 266.777344 L 346.054688 270.121094 L 346.203125 269.578125 L 346.355469 269.03125 L 330.914062 265.691406 Z M 335.164062 248.316406 "/>
</g>
<path style=" stroke:none;fill-rule:nonzero;fill:rgb(39.99939%,39.99939%,39.99939%);fill-opacity:0.3;" d="M 308.136719 183.441406 L 346.480469 189.703125 L 340.738281 212.492188 L 326.335938 210.566406 L 326.296875 211.179688 L 326.261719 211.792969 L 340.324219 213.71875 L 332.714844 244.363281 L 307.878906 241.085938 L 310.023438 232.191406 L 308.992188 232.183594 L 306.796875 240.953125 L 291.488281 238.183594 L 306.4375 190.597656 L 309.160156 191.214844 L 307.269531 198.859375 L 307.679688 198.894531 L 308.167969 198.941406 L 310.328125 190.5 L 306.824219 189.71875 Z M 308.136719 183.441406 "/>
<path style=" stroke:none;fill-rule:nonzero;fill:rgb(39.99939%,39.99939%,39.99939%);fill-opacity:0.3;" d="M 333.179688 107.109375 L 351.15625 120.226562 L 343.34375 152.75 L 332.097656 149.9375 L 338.90625 128.542969 L 338.070312 128.300781 L 337.121094 128.027344 L 330.265625 149.480469 L 320.117188 146.941406 Z M 333.179688 107.109375 "/>
<g clip-path="url(#clip21)" clip-rule="nonzero">
<path style=" stroke:none;fill-rule:nonzero;fill:rgb(39.99939%,39.99939%,39.99939%);fill-opacity:0.3;" d="M 349.238281 190.359375 L 389.089844 197.210938 L 377.761719 238.300781 L 361.667969 234.855469 L 361.503906 235.246094 L 361.285156 235.761719 L 377.554688 239.070312 L 375.054688 251.1875 L 335.601562 245.449219 L 340.734375 224.957031 L 351.101562 226.839844 L 351.265625 226.023438 L 351.425781 225.207031 L 341.214844 223.050781 L 343.78125 213.402344 L 362.320312 218.582031 L 362.628906 218.140625 L 362.925781 217.722656 L 344.03125 212.660156 Z M 349.238281 190.359375 "/>
</g>
<path style="fill-rule:nonzero;fill:rgb(39.99939%,39.99939%,39.99939%);fill-opacity:1;stroke-width:0.03;stroke-linecap:square;stroke-linejoin:miter;stroke:rgb(39.99939%,39.99939%,39.99939%);stroke-opacity:1;stroke-miterlimit:3.239307;" d="M 169.996094 239.015625 L 176.035156 239.339844 L 178.476562 236.964844 L 198.566406 246.703125 L 193.238281 254.679688 L 188.734375 252.75 L 190.074219 249.261719 L 178.28125 245.082031 L 178.144531 245.320312 L 178.003906 245.5625 L 189.144531 249.496094 L 187.652344 253.089844 L 193.054688 255.445312 L 190.539062 258.871094 L 184.082031 257.1875 L 174.9375 251.855469 L 171.128906 249.1875 Z M 169.996094 239.015625 " transform="matrix(1,0,0,1,-74,-13)"/>
<path style="fill-rule:nonzero;fill:rgb(39.99939%,39.99939%,39.99939%);fill-opacity:1;stroke-width:0.03;stroke-linecap:square;stroke-linejoin:miter;stroke:rgb(39.99939%,39.99939%,39.99939%);stroke-opacity:1;stroke-miterlimit:3.239307;" d="M 189.871094 65.964844 L 219.652344 65.984375 L 224.289062 72.800781 L 210.363281 77.644531 L 210.472656 78.59375 L 210.589844 79.628906 L 225.617188 74.375 L 236.734375 91.289062 L 187.863281 83.652344 Z M 189.871094 65.964844 " transform="matrix(1,0,0,1,-74,-13)"/>
<path style="fill-rule:nonzero;fill:rgb(39.99939%,39.99939%,39.99939%);fill-opacity:1;stroke-width:0.03;stroke-linecap:square;stroke-linejoin:miter;stroke:rgb(39.99939%,39.99939%,39.99939%);stroke-opacity:1;stroke-miterlimit:3.239307;" d="M 267.691406 239.5 L 314.964844 246.480469 L 309.574219 259.558594 L 291.171875 258.207031 L 290.960938 259.273438 L 290.75 260.34375 L 308.742188 261.675781 L 300.789062 280.285156 L 263.464844 273.445312 L 265.445312 255.941406 L 277.644531 255.441406 L 277.644531 253.84375 L 265.867188 254.207031 Z M 267.691406 239.5 " transform="matrix(1,0,0,1,-74,-13)"/>
<path style="fill-rule:nonzero;fill:rgb(39.99939%,39.99939%,39.99939%);fill-opacity:1;stroke-width:0.03;stroke-linecap:square;stroke-linejoin:miter;stroke:rgb(39.99939%,39.99939%,39.99939%);stroke-opacity:1;stroke-miterlimit:3.239307;" d="M 211.601562 231.957031 L 264.40625 239.179688 L 261.523438 261.441406 L 252.824219 260.507812 L 252.757812 261.144531 L 252.6875 261.78125 L 261.375 262.722656 L 260.175781 273.054688 L 230.050781 267.96875 L 226.753906 261.921875 L 223.988281 255.617188 L 237.347656 253.449219 L 237.019531 252.058594 L 236.695312 250.667969 L 222.359375 252.832031 L 210.304688 235.367188 Z M 211.601562 231.957031 " transform="matrix(1,0,0,1,-74,-13)"/>
<path style="fill-rule:nonzero;fill:rgb(39.99939%,39.99939%,39.99939%);fill-opacity:1;stroke-width:0.03;stroke-linecap:square;stroke-linejoin:miter;stroke:rgb(39.99939%,39.99939%,39.99939%);stroke-opacity:1;stroke-miterlimit:3.239307;" d="M 196.640625 260.464844 L 199.394531 257.355469 L 218.851562 256.378906 L 225.625 268.027344 Z M 196.640625 260.464844 " transform="matrix(1,0,0,1,-74,-13)"/>
<path style="fill-rule:nonzero;fill:rgb(39.99939%,39.99939%,39.99939%);fill-opacity:1;stroke-width:0.03;stroke-linecap:square;stroke-linejoin:miter;stroke:rgb(39.99939%,39.99939%,39.99939%);stroke-opacity:1;stroke-miterlimit:3.239307;" d="M 244.90625 103.3125 L 275.226562 146.511719 L 276.699219 150.613281 L 276.886719 154.464844 L 274.332031 173.796875 L 231.984375 167.164062 L 235.847656 147.53125 L 255.0625 150.996094 L 255.238281 150.289062 L 255.414062 149.578125 L 236.203125 146.179688 Z M 244.90625 103.3125 " transform="matrix(1,0,0,1,-74,-13)"/>
<path style="fill-rule:nonzero;fill:rgb(39.99939%,39.99939%,39.99939%);fill-opacity:1;stroke-width:0.03;stroke-linecap:square;stroke-linejoin:miter;stroke:rgb(39.99939%,39.99939%,39.99939%);stroke-opacity:1;stroke-miterlimit:3.239307;" d="M 237.496094 68.386719 L 252.675781 69.09375 L 252.910156 64.429688 L 280.90625 65.160156 L 277.363281 96.019531 L 275.78125 110.070312 L 276.605469 110.15625 L 277.425781 110.242188 L 279.203125 96.820312 L 316.136719 104.273438 L 310.625 132.707031 L 311.542969 132.886719 L 312.457031 133.066406 L 318.109375 104.691406 L 340.308594 109.34375 L 343.046875 110.019531 L 365.894531 114.992188 L 343.792969 173.105469 L 338.140625 173.707031 L 338.746094 170.503906 L 338.070312 170.417969 L 337.398438 170.332031 L 336.734375 173.6875 L 326.761719 173.035156 L 335.960938 130.71875 L 334.824219 130.5625 L 333.691406 130.410156 L 324.210938 172.367188 L 320.449219 171.296875 L 317.5 181.859375 L 319.515625 182.566406 L 331.125 185.132812 L 334.644531 175.570312 L 343.207031 175.105469 L 328.957031 212.125 L 327.320312 213.757812 L 326.769531 215.796875 L 246.621094 90.683594 Z M 237.496094 68.386719 " transform="matrix(1,0,0,1,-74,-13)"/>
<path style="fill-rule:nonzero;fill:rgb(39.99939%,39.99939%,39.99939%);fill-opacity:1;stroke-width:0.03;stroke-linecap:square;stroke-linejoin:miter;stroke:rgb(39.99939%,39.99939%,39.99939%);stroke-opacity:1;stroke-miterlimit:3.239307;" d="M 283.507812 73.679688 L 306.585938 74.996094 L 306.492188 72.527344 L 283.804688 71.171875 L 284.570312 64.683594 L 325.238281 65.75 L 330.84375 67.261719 L 374.746094 96.253906 L 368.828125 111.375 L 281.246094 92.882812 Z M 283.507812 73.679688 " transform="matrix(1,0,0,1,-74,-13)"/>
<path style="fill-rule:nonzero;fill:rgb(39.99939%,39.99939%,39.99939%);fill-opacity:1;stroke-width:0.03;stroke-linecap:square;stroke-linejoin:miter;stroke:rgb(39.99939%,39.99939%,39.99939%);stroke-opacity:1;stroke-miterlimit:3.239307;" d="M 187.609375 86.394531 L 236.953125 95.085938 L 236.011719 103.117188 L 236.449219 103.164062 L 236.90625 103.171875 L 238.027344 95.335938 L 241.945312 96.050781 L 232.203125 146.65625 L 181.964844 140.550781 L 185.859375 106.335938 L 222.710938 113.300781 L 223.09375 112.0625 L 223.472656 110.824219 L 185.917969 103.953125 Z M 187.609375 86.394531 " transform="matrix(1,0,0,1,-74,-13)"/>
<path style="fill-rule:nonzero;fill:rgb(39.99939%,39.99939%,39.99939%);fill-opacity:1;stroke-width:0.03;stroke-linecap:square;stroke-linejoin:miter;stroke:rgb(39.99939%,39.99939%,39.99939%);stroke-opacity:1;stroke-miterlimit:3.239307;" d="M 272.222656 215.027344 L 295.945312 219.507812 L 296.070312 240.632812 L 268.953125 236.746094 Z M 272.222656 215.027344 " transform="matrix(1,0,0,1,-74,-13)"/>
<path style="fill-rule:nonzero;fill:rgb(39.99939%,39.99939%,39.99939%);fill-opacity:1;stroke-width:0.03;stroke-linecap:square;stroke-linejoin:miter;stroke:rgb(39.99939%,39.99939%,39.99939%);stroke-opacity:1;stroke-miterlimit:3.239307;" d="M 144.078125 99.289062 L 182.675781 105.941406 L 177.96875 159.203125 L 171.074219 158.300781 L 156.730469 127.121094 Z M 144.078125 99.289062 " transform="matrix(1,0,0,1,-74,-13)"/>
<path style="fill-rule:nonzero;fill:rgb(39.99939%,39.99939%,39.99939%);fill-opacity:1;stroke-width:0.03;stroke-linecap:square;stroke-linejoin:miter;stroke:rgb(39.99939%,39.99939%,39.99939%);stroke-opacity:1;stroke-miterlimit:3.239307;" d="M 190.867188 201.125 L 172.464844 161.863281 L 198.941406 165.660156 L 198.730469 174.578125 L 201.378906 174.640625 L 201.605469 166.019531 L 227.480469 169.863281 L 222.972656 193.15625 L 217.617188 228.859375 L 203.886719 226.980469 L 202.089844 224.53125 L 195.546875 212.753906 L 192.386719 204.429688 L 205.226562 205.335938 L 205.386719 203.773438 L 205.546875 202.214844 Z M 190.867188 201.125 " transform="matrix(1,0,0,1,-74,-13)"/>
<path style="fill-rule:nonzero;fill:rgb(39.99939%,39.99939%,39.99939%);fill-opacity:1;stroke-width:0.03;stroke-linecap:square;stroke-linejoin:miter;stroke:rgb(39.99939%,39.99939%,39.99939%);stroke-opacity:1;stroke-miterlimit:3.239307;" d="M 231.378906 170.679688 L 251.164062 173.363281 L 240.59375 209.324219 L 267.960938 214.191406 L 264.558594 236.6875 L 252.457031 235.035156 L 255.769531 221.21875 L 254.710938 220.933594 L 253.65625 220.648438 L 250.285156 234.738281 L 221.023438 230.734375 L 226.625 194.027344 Z M 231.378906 170.679688 " transform="matrix(1,0,0,1,-74,-13)"/>
<path style="fill-rule:nonzero;fill:rgb(39.99939%,39.99939%,39.99939%);fill-opacity:1;stroke-width:0.03;stroke-linecap:square;stroke-linejoin:miter;stroke:rgb(39.99939%,39.99939%,39.99939%);stroke-opacity:1;stroke-miterlimit:3.239307;" d="M 280.4375 155.167969 L 320.714844 212.933594 L 322.382812 217.976562 L 323.144531 222.949219 L 322.953125 228.679688 L 318.429688 239.730469 L 316.402344 243.917969 L 298.417969 241.09375 L 299.050781 218.328125 L 297.476562 199.660156 L 296.214844 199.753906 L 294.957031 199.847656 L 296.367188 217.675781 L 271.71875 213.3125 L 274.785156 196.59375 L 281.6875 196.742188 L 282.316406 193.480469 L 290.078125 193.972656 L 287.789062 186.386719 L 286.066406 179.246094 L 277.183594 179.273438 Z M 280.4375 155.167969 " transform="matrix(1,0,0,1,-74,-13)"/>
<path style="fill-rule:nonzero;fill:rgb(39.99939%,39.99939%,39.99939%);fill-opacity:1;stroke-width:0.03;stroke-linecap:square;stroke-linejoin:miter;stroke:rgb(39.99939%,39.99939%,39.99939%);stroke-opacity:1;stroke-miterlimit:3.239307;" d="M 156.445312 65.941406 L 184.882812 65.953125 L 182.175781 102.9375 L 153 98.65625 Z M 156.445312 65.941406 " transform="matrix(1,0,0,1,-74,-13)"/>
<path style="fill-rule:nonzero;fill:rgb(39.99939%,39.99939%,39.99939%);fill-opacity:1;stroke-width:0.03;stroke-linecap:square;stroke-linejoin:miter;stroke:rgb(39.99939%,39.99939%,39.99939%);stroke-opacity:1;stroke-miterlimit:3.239307;" d="M 261.90625 294.414062 L 264.171875 275.863281 L 300.472656 282.234375 L 295.125 301.097656 L 288.910156 321.570312 L 259.324219 315.578125 Z M 261.90625 294.414062 " transform="matrix(1,0,0,1,-74,-13)"/>
<path style="fill-rule:nonzero;fill:rgb(39.99939%,39.99939%,39.99939%);fill-opacity:1;stroke-width:0.03;stroke-linecap:square;stroke-linejoin:miter;stroke:rgb(39.99939%,39.99939%,39.99939%);stroke-opacity:1;stroke-miterlimit:3.239307;" d="M 181.875 142.398438 L 231.796875 148.605469 L 228.183594 166.46875 L 180.25 159.964844 Z M 181.875 142.398438 " transform="matrix(1,0,0,1,-74,-13)"/>
<path style="fill-rule:nonzero;fill:rgb(39.99939%,39.99939%,39.99939%);fill-opacity:1;stroke-width:0.03;stroke-linecap:square;stroke-linejoin:miter;stroke:rgb(39.99939%,39.99939%,39.99939%);stroke-opacity:1;stroke-miterlimit:3.239307;" d="M 125.429688 65.945312 L 152.035156 65.734375 L 148.839844 97.238281 L 145.582031 96.789062 L 142.40625 95.46875 L 140.21875 93.585938 Z M 125.429688 65.945312 " transform="matrix(1,0,0,1,-74,-13)"/>
<path style="fill-rule:nonzero;fill:rgb(39.99939%,39.99939%,39.99939%);fill-opacity:1;stroke-width:0.03;stroke-linecap:square;stroke-linejoin:miter;stroke:rgb(39.99939%,39.99939%,39.99939%);stroke-opacity:1;stroke-miterlimit:3.239307;" d="M 253.265625 173.898438 L 273.601562 176.65625 L 268.097656 212.160156 L 243.007812 207.671875 L 249.371094 185.253906 L 256.851562 186.628906 L 258.554688 179.191406 L 251.542969 177.929688 Z M 253.265625 173.898438 " transform="matrix(1,0,0,1,-74,-13)"/>
<path style="fill-rule:nonzero;fill:rgb(39.99939%,39.99939%,39.99939%);fill-opacity:1;stroke-width:0.03;stroke-linecap:square;stroke-linejoin:miter;stroke:rgb(39.99939%,39.99939%,39.99939%);stroke-opacity:1;stroke-miterlimit:3.239307;" d="M 166.339844 206.078125 L 176.316406 205.714844 L 176.433594 209.75 L 177.320312 209.691406 L 178.207031 209.628906 L 178.210938 205.660156 L 184.847656 205.339844 L 192.527344 221.703125 L 201.945312 235.675781 L 213.085938 249.601562 L 202.695312 248.75 L 202.3125 245.261719 L 181 234.910156 L 168.640625 226.78125 Z M 166.339844 206.078125 " transform="matrix(1,0,0,1,-74,-13)"/>
<path style="fill-rule:nonzero;fill:rgb(39.99939%,39.99939%,39.99939%);fill-opacity:1;stroke-width:0.03;stroke-linecap:square;stroke-linejoin:miter;stroke:rgb(39.99939%,39.99939%,39.99939%);stroke-opacity:1;stroke-miterlimit:3.239307;" d="M 232.015625 270.210938 L 260.925781 274.476562 L 257.355469 315.292969 L 254.082031 314.863281 L 251.3125 311.015625 L 246.148438 298.652344 L 239.855469 286.503906 Z M 232.015625 270.210938 " transform="matrix(1,0,0,1,-74,-13)"/>
<path style="fill-rule:nonzero;fill:rgb(99.998474%,99.998474%,30.587769%);fill-opacity:0.8;stroke-width:0.288;stroke-linecap:square;stroke-linejoin:miter;stroke:rgb(0%,0%,0%);stroke-opacity:0.8;stroke-miterlimit:3.25;" d="M 323.128906 175.28125 L 290.140625 232.425781 L 356.121094 232.425781 Z M 323.128906 175.28125 " transform="matrix(1,0,0,1,-74,-13)"/>
</g>
</svg>
