<?xml version="1.0" encoding="UTF-8"?>
<svg xmlns="http://www.w3.org/2000/svg" xmlns:xlink="http://www.w3.org/1999/xlink" width="361pt" height="361pt" viewBox="0 0 361 361" version="1.1">
<defs>
<clipPath id="clip1">
  <path d="M 44 358 L 77 358 L 77 360 L 44 360 Z M 44 358 "/>
</clipPath>
<clipPath id="clip2">
  <path d="M 79 350 L 126 350 L 126 360 L 79 360 Z M 79 350 "/>
</clipPath>
<clipPath id="clip3">
  <path d="M 319 316 L 359 316 L 359 360 L 319 360 Z M 319 316 "/>
</clipPath>
<clipPath id="clip4">
  <path d="M 354 208 L 360 208 L 360 244 L 354 244 Z M 354 208 "/>
</clipPath>
<clipPath id="clip5">
  <path d="M 127 301 L 207 301 L 207 360 L 127 360 Z M 127 301 "/>
</clipPath>
<clipPath id="clip6">
  <path d="M 301 221 L 360 221 L 360 318 L 301 318 Z M 301 221 "/>
</clipPath>
<clipPath id="clip7">
  <path d="M 291 343 L 327 343 L 327 360 L 291 360 Z M 291 343 "/>
</clipPath>
<clipPath id="clip8">
  <path d="M 349 285 L 360 285 L 360 360 L 349 360 Z M 349 285 "/>
</clipPath>
<clipPath id="clip9">
  <path d="M 271 292 L 339 292 L 339 360 L 271 360 Z M 271 292 "/>
</clipPath>
<clipPath id="clip10">
  <path d="M 307 333 L 360 333 L 360 360 L 307 360 Z M 307 333 "/>
</clipPath>
<clipPath id="clip11">
  <path d="M 169 335 L 202 335 L 202 360 L 169 360 Z M 169 335 "/>
</clipPath>
<clipPath id="clip12">
  <path d="M 207 355 L 287 355 L 287 360 L 207 360 Z M 207 355 "/>
</clipPath>
<clipPath id="clip13">
  <path d="M 186 339 L 260 339 L 260 360 L 186 360 Z M 186 339 "/>
</clipPath>
<clipPath id="clip14">
  <path d="M 44 341 L 80 341 L 80 360 L 44 360 Z M 44 341 "/>
</clipPath>
<clipPath id="clip15">
  <path d="M 21 338 L 43 338 L 43 360 L 21 360 Z M 21 338 "/>
</clipPath>
<clipPath id="clip16">
  <path d="M 0 338 L 2 338 L 2 360 L 0 360 Z M 0 338 "/>
</clipPath>
<clipPath id="clip17">
  <path d="M 0 338 L 20 338 L 20 360 L 0 360 Z M 0 338 "/>
</clipPath>
<clipPath id="clip18">
  <path d="M 343 5 L 360 5 L 360 28 L 343 28 Z M 343 5 "/>
</clipPath>
<clipPath id="clip19">
  <path d="M 356 3 L 360 3 L 360 40 L 356 40 Z M 356 3 "/>
</clipPath>
<clipPath id="clip20">
  <path d="M 327 0 L 360 0 L 360 6 L 327 6 Z M 327 0 "/>
</clipPath>
<clipPath id="clip21">
  <path d="M 358 0 L 360 0 L 360 2 L 358 2 Z M 358 0 "/>
</clipPath>
<clipPath id="clip22">
  <path d="M 348 132 L 360 132 L 360 237 L 348 237 Z M 348 132 "/>
</clipPath>
<clipPath id="clip23">
  <path d="M 352 17 L 360 17 L 360 29 L 352 29 Z M 352 17 "/>
</clipPath>
<clipPath id="clip24">
  <path d="M 338 69 L 360 69 L 360 146 L 338 146 Z M 338 69 "/>
</clipPath>
<clipPath id="clip25">
  <path d="M 347 25 L 360 25 L 360 72 L 347 72 Z M 347 25 "/>
</clipPath>
</defs>
<g id="surface7686">
<path style="fill-rule:nonzero;fill:rgb(0%,0%,0%);fill-opacity:1;stroke-width:0.03;stroke-linecap:square;stroke-linejoin:miter;stroke:rgb(0%,0%,0%);stroke-opacity:1;stroke-miterlimit:10;" d="M 0 178 L 360 178 L 360 -182 L 0 -182 Z M 0 178 " transform="matrix(1,0,0,1,0,182)"/>
<path style=" stroke:none;fill-rule:nonzero;fill:rgb(39.99939%,39.99939%,39.99939%);fill-opacity:0.3;" d="M 14.796875 262.445312 L 24.644531 267.074219 L 31.402344 270.875 L 22.289062 289.519531 L 15.566406 301.351562 L 13.910156 301.34375 L 14.425781 263.503906 Z M 14.796875 262.445312 "/>
<path style=" stroke:none;fill-rule:nonzero;fill:rgb(39.99939%,39.99939%,39.99939%);fill-opacity:0.3;" d="M 26.023438 246.894531 L 25.105469 246.691406 L 26.242188 246.707031 Z M 26.023438 246.894531 "/>
<path style=" stroke:none;fill-rule:nonzero;fill:rgb(39.99939%,39.99939%,39.99939%);fill-opacity:0.3;" d="M -6.1875 307.605469 L -7.457031 254.96875 L -4.683594 255.246094 L 3.671875 257.339844 L 10.601562 259.535156 L 11.890625 305.523438 L 11.210938 306.394531 Z M -6.1875 307.605469 "/>
<path style=" stroke:none;fill-rule:nonzero;fill:rgb(39.99939%,39.99939%,39.99939%);fill-opacity:0.3;" d="M -126.25 270.253906 L -124.574219 265.21875 L -124.441406 253.46875 L -112.78125 249.691406 L -103.066406 244.179688 L -90.90625 241.8125 L -76.476562 241.726562 L -72.121094 240.066406 L -65.90625 241.839844 L -57.574219 243.414062 L -51.445312 244.207031 L -51.53125 247.589844 L -4.691406 246.265625 L 13.636719 246.527344 L 19.445312 247.867188 L 23.628906 248.933594 L 13.777344 257.335938 L 5.429688 253.148438 L -4.253906 251.902344 L -10.457031 250.910156 L -18.089844 251.539062 L -28.324219 253.230469 L -37.625 256.15625 L -49.847656 259.886719 L -67.058594 264.5 L -83.5625 268.589844 L -88.726562 268.949219 L -94.398438 268.492188 L -101.25 268.679688 L -114.980469 269.53125 Z M -126.25 270.253906 "/>
<path style=" stroke:none;fill-rule:nonzero;fill:rgb(39.99939%,39.99939%,39.99939%);fill-opacity:0.3;" d="M 127.011719 335.066406 L 127.023438 335.640625 L 101.5 348.160156 L 81.664062 357.105469 L 81.761719 355.988281 L 100.921875 347.898438 Z M 127.011719 335.066406 "/>
<path style=" stroke:none;fill-rule:nonzero;fill:rgb(39.99939%,39.99939%,39.99939%);fill-opacity:0.3;" d="M 107.339844 349.117188 L 127.75 339.160156 L 126.09375 352 Z M 107.339844 349.117188 "/>
<g clip-path="url(#clip1)" clip-rule="nonzero">
<path style=" stroke:none;fill-rule:nonzero;fill:rgb(39.99939%,39.99939%,39.99939%);fill-opacity:0.3;" d="M 76.996094 358.316406 L 76.4375 361.449219 L 44.328125 375.070312 L 44.351562 374.636719 Z M 76.996094 358.316406 "/>
</g>
<g clip-path="url(#clip2)" clip-rule="nonzero">
<path style=" stroke:none;fill-rule:nonzero;fill:rgb(39.99939%,39.99939%,39.99939%);fill-opacity:0.3;" d="M 81.355469 360.351562 L 102.300781 350.785156 L 125.832031 354.199219 L 124.234375 377.511719 L 117.054688 376.996094 L 79.714844 373.347656 Z M 81.355469 360.351562 "/>
</g>
<g clip-path="url(#clip3)" clip-rule="nonzero">
<path style=" stroke:none;fill-rule:nonzero;fill:rgb(39.99939%,39.99939%,39.99939%);fill-opacity:0.3;" d="M 323.441406 340.820312 L 341.082031 321.894531 L 346.601562 316.652344 L 349.601562 332.089844 L 338.242188 337.265625 L 338.820312 338.679688 L 349.949219 333.769531 L 354.835938 362.359375 L 356.980469 377.132812 L 358.074219 400.71875 L 357.871094 401.140625 L 356.078125 404.859375 L 351.988281 409 L 338.523438 416.984375 L 326.664062 423.421875 L 325.304688 422.117188 L 319.71875 414.804688 L 329.503906 408.082031 Z M 323.441406 340.820312 "/>
</g>
<g clip-path="url(#clip4)" clip-rule="nonzero">
<path style=" stroke:none;fill-rule:nonzero;fill:rgb(39.99939%,39.99939%,39.99939%);fill-opacity:0.3;" d="M 382.136719 208.855469 L 383.15625 208.875 L 376.175781 231.652344 L 367.738281 240.871094 L 361.175781 243.671875 L 356.34375 240.226562 L 354.921875 236.59375 L 376.660156 221.960938 Z M 382.136719 208.855469 "/>
</g>
<path style=" stroke:none;fill-rule:nonzero;fill:rgb(39.99939%,39.99939%,39.99939%);fill-opacity:0.3;" d="M 351.628906 228.191406 L 349.75 223.390625 L 349.839844 209.496094 L 351.085938 209.441406 L 351.472656 213.566406 L 351.03125 225.496094 Z M 351.628906 228.191406 "/>
<path style=" stroke:none;fill-rule:nonzero;fill:rgb(39.99939%,39.99939%,39.99939%);fill-opacity:0.3;" d="M 350.933594 207.816406 L 349.90625 207.847656 L 348.398438 180.21875 L 348.820312 185.285156 Z M 350.933594 207.816406 "/>
<g clip-path="url(#clip5)" clip-rule="nonzero">
<path style=" stroke:none;fill-rule:nonzero;fill:rgb(39.99939%,39.99939%,39.99939%);fill-opacity:0.3;" d="M 172.332031 310.367188 L 184.089844 311.046875 L 202.851562 301.308594 L 207 318.292969 L 203.566406 336.589844 L 201.21875 349.808594 L 180.460938 335.96875 L 177.449219 345.800781 L 181.65625 330.910156 L 180.851562 330.621094 L 180.050781 330.332031 L 173.84375 351.460938 L 164.011719 348.714844 L 163.734375 349.429688 L 163.453125 350.140625 L 173.394531 352.917969 L 169.566406 366.867188 L 166.90625 379.765625 L 156.4375 380.007812 L 127.207031 377.941406 L 128.523438 354.671875 L 142.730469 356.84375 L 142.941406 355.691406 L 143.15625 354.539062 L 129.019531 352.484375 L 130.621094 336.6875 L 163.492188 320.238281 Z M 172.332031 310.367188 "/>
</g>
<path style=" stroke:none;fill-rule:nonzero;fill:rgb(39.99939%,39.99939%,39.99939%);fill-opacity:0.3;" d="M 144.328125 295.84375 L 147.425781 297.074219 L 151.070312 298.421875 L 162.5625 300.601562 L 167.035156 300.796875 L 170.308594 302.339844 L 170.769531 308.765625 L 162 318.253906 L 130.824219 333.339844 L 129.667969 331.429688 L 134.058594 308.28125 L 133.097656 308.144531 L 133.03125 308.132812 Z M 144.328125 295.84375 "/>
<path style=" stroke:none;fill-rule:nonzero;fill:rgb(39.99939%,39.99939%,39.99939%);fill-opacity:0.3;" d="M 131.824219 309.445312 L 130.796875 314.183594 L 131.410156 309.898438 Z M 131.824219 309.445312 "/>
<path style=" stroke:none;fill-rule:nonzero;fill:rgb(39.99939%,39.99939%,39.99939%);fill-opacity:0.3;" d="M 208.796875 320.132812 L 225.277344 321.515625 L 246.574219 316.273438 L 249.5625 337.195312 L 203.523438 350.53125 L 206 337.894531 L 217.570312 339.492188 L 217.960938 337.625 L 206.257812 336.003906 Z M 208.796875 320.132812 "/>
<g clip-path="url(#clip6)" clip-rule="nonzero">
<path style=" stroke:none;fill-rule:nonzero;fill:rgb(39.99939%,39.99939%,39.99939%);fill-opacity:0.3;" d="M 301.269531 250.464844 L 301.285156 249.925781 L 301.539062 249.800781 L 305.898438 225.234375 L 306.949219 221.710938 L 310.828125 224.414062 L 324.84375 229.976562 L 323.015625 238.085938 L 323.667969 238.308594 L 324.324219 238.527344 L 326.246094 230.460938 L 335.953125 234.289062 L 348.160156 238.675781 L 354.835938 242.03125 L 358.652344 244.59375 L 362.875 250.261719 L 372.953125 265.457031 L 374.367188 268.339844 L 366.101562 278.757812 L 366.832031 279.25 L 367.566406 279.742188 L 374.890625 270.976562 L 381.046875 280.78125 L 381.171875 282.753906 L 367.21875 293.746094 L 347.15625 312.230469 L 340.914062 317.910156 L 322.785156 289.820312 L 320.257812 285.527344 L 325.613281 282.222656 L 325.144531 281.511719 L 324.675781 280.804688 L 319.613281 283.992188 Z M 301.269531 250.464844 "/>
</g>
<g clip-path="url(#clip7)" clip-rule="nonzero">
<path style=" stroke:none;fill-rule:nonzero;fill:rgb(39.99939%,39.99939%,39.99939%);fill-opacity:0.3;" d="M 291.160156 383.058594 L 321.25 343.726562 L 326.890625 407.078125 L 318.445312 412.953125 Z M 291.160156 383.058594 "/>
</g>
<path style=" stroke:none;fill-rule:nonzero;fill:rgb(39.99939%,39.99939%,39.99939%);fill-opacity:0.3;" d="M 206.984375 296.515625 L 206.988281 296.640625 L 204.59375 298.054688 L 204.542969 297.640625 L 204.765625 297.523438 Z M 206.984375 296.515625 "/>
<path style=" stroke:none;fill-rule:nonzero;fill:rgb(39.99939%,39.99939%,39.99939%);fill-opacity:0.3;" d="M 222.042969 292.933594 L 244.082031 282.386719 L 245.089844 312.796875 L 226.261719 317.851562 Z M 222.042969 292.933594 "/>
<path style=" stroke:none;fill-rule:nonzero;fill:rgb(39.99939%,39.99939%,39.99939%);fill-opacity:0.3;" d="M 205.460938 300.347656 L 219.820312 293.9375 L 223.730469 318.457031 L 209.203125 317.707031 Z M 205.460938 300.347656 "/>
<g clip-path="url(#clip8)" clip-rule="nonzero">
<path style=" stroke:none;fill-rule:nonzero;fill:rgb(39.99939%,39.99939%,39.99939%);fill-opacity:0.3;" d="M 349.359375 315.007812 L 368.8125 296.003906 L 382.070312 285.257812 L 401.164062 331.460938 L 357.351562 359.535156 L 352.363281 331.507812 Z M 349.359375 315.007812 "/>
</g>
<path style=" stroke:none;fill-rule:nonzero;fill:rgb(39.99939%,39.99939%,39.99939%);fill-opacity:0.3;" d="M 332.742188 176.578125 L 328.300781 177.28125 L 330.261719 176.886719 Z M 332.742188 176.578125 "/>
<path style=" stroke:none;fill-rule:nonzero;fill:rgb(39.99939%,39.99939%,39.99939%);fill-opacity:0.3;" d="M 317.210938 179.496094 L 300.484375 184.558594 L 300.339844 183.671875 L 304.191406 182.191406 L 314.796875 179.980469 Z M 317.210938 179.496094 "/>
<path style=" stroke:none;fill-rule:nonzero;fill:rgb(39.99939%,39.99939%,39.99939%);fill-opacity:0.3;" d="M 247.109375 280.945312 L 272.816406 267.34375 L 284.378906 303.902344 L 248.101562 312.125 Z M 247.109375 280.945312 "/>
<path style=" stroke:none;fill-rule:nonzero;fill:rgb(39.99939%,39.99939%,39.99939%);fill-opacity:0.3;" d="M 147.070312 293.738281 L 147.019531 295.601562 L 145.191406 294.902344 L 146.433594 293.546875 Z M 147.070312 293.738281 "/>
<path style=" stroke:none;fill-rule:nonzero;fill:rgb(39.99939%,39.99939%,39.99939%);fill-opacity:0.3;" d="M 283.523438 193.511719 L 299.839844 187.585938 L 321.253906 180.804688 L 345.015625 177.394531 L 345.21875 185.453125 L 346.605469 188.074219 L 347.0625 209.480469 L 347.078125 223.417969 L 350.789062 235.300781 L 348.984375 237.023438 L 336.757812 232.667969 L 326.296875 228.441406 L 312.582031 222.605469 L 308.871094 220.691406 L 308.925781 219.808594 L 310.691406 219.742188 L 314.375 209.785156 L 314.128906 209.570312 L 313.886719 209.355469 L 310.1875 218.992188 L 308.570312 218.851562 L 301.925781 215.871094 L 293.007812 209.875 L 291.226562 207.792969 L 286.683594 202.054688 Z M 283.523438 193.511719 "/>
<g clip-path="url(#clip9)" clip-rule="nonzero">
<path style=" stroke:none;fill-rule:nonzero;fill:rgb(39.99939%,39.99939%,39.99939%);fill-opacity:0.3;" d="M 320.746094 292.441406 L 338.3125 320.640625 L 321.890625 338.875 L 288.605469 379.804688 L 271.453125 360.691406 L 286.429688 346.582031 L 293.6875 332.03125 L 305 326.421875 L 304.066406 324.277344 L 303.132812 322.128906 L 294.082031 325.652344 L 287.542969 305.585938 L 301.800781 300.917969 L 313.53125 296.371094 Z M 320.746094 292.441406 "/>
</g>
<g clip-path="url(#clip10)" clip-rule="nonzero">
<path style=" stroke:none;fill-rule:nonzero;fill:rgb(39.99939%,39.99939%,39.99939%);fill-opacity:0.3;" d="M 307.097656 446.191406 L 326.28125 427.136719 L 340.597656 418.691406 L 353.46875 410.800781 L 358.339844 406.414062 L 360.878906 400.984375 L 359.613281 377.226562 L 357.625 361.605469 L 402.019531 333.015625 L 408.863281 347.304688 L 408.558594 352.035156 L 407.511719 359.542969 L 404.273438 367.765625 L 400.132812 382.171875 L 395.753906 397.519531 L 395.097656 397.574219 L 392.714844 388.34375 L 396.152344 370.375 L 395.339844 370.238281 L 394.53125 370.097656 L 391.101562 388.375 L 393.8125 398.042969 L 391.414062 398.96875 L 378.878906 378.3125 L 378.21875 378.65625 L 377.558594 379.003906 L 390.152344 399.796875 L 393.835938 403.316406 L 393.566406 407.9375 L 393.023438 417.773438 L 390.625 431.03125 L 388.4375 443.257812 L 386.546875 448.554688 L 375.335938 457.046875 L 362.078125 465.882812 L 353.433594 469.640625 L 345.371094 453.453125 L 354.375 447.929688 L 353.519531 446.410156 L 352.667969 444.894531 L 340.714844 452.699219 L 351.066406 470.667969 L 348.820312 471.628906 L 329.820312 479.582031 L 319.542969 465.699219 Z M 307.097656 446.191406 "/>
</g>
<path style=" stroke:none;fill-rule:nonzero;fill:rgb(39.99939%,39.99939%,39.99939%);fill-opacity:0.3;" d="M 161.796875 298.332031 L 161.761719 299.199219 L 151.167969 297.273438 L 148.144531 296.121094 L 148.21875 294.085938 L 161.019531 297.964844 Z M 161.796875 298.332031 "/>
<path style=" stroke:none;fill-rule:nonzero;fill:rgb(39.99939%,39.99939%,39.99939%);fill-opacity:0.3;" d="M 163.347656 299.34375 L 163.359375 299.070312 L 164.042969 299.390625 Z M 163.347656 299.34375 "/>
<path style=" stroke:none;fill-rule:nonzero;fill:rgb(39.99939%,39.99939%,39.99939%);fill-opacity:0.3;" d="M 201.839844 299.046875 L 201.921875 299.628906 L 183.808594 308.894531 L 172.433594 308.304688 L 171.8125 303.046875 L 183.554688 308.570312 Z M 201.839844 299.046875 "/>
<path style=" stroke:none;fill-rule:nonzero;fill:rgb(39.99939%,39.99939%,39.99939%);fill-opacity:0.3;" d="M 286.316406 302.332031 L 274.453125 265.804688 L 285.699219 258.417969 L 299.097656 251.941406 L 320.125 289.984375 L 312.601562 294.617188 L 300.859375 299.492188 L 295.0625 301.074219 Z M 286.316406 302.332031 "/>
<path style=" stroke:none;fill-rule:nonzero;fill:rgb(39.99939%,39.99939%,39.99939%);fill-opacity:0.3;" d="M 249.53125 315.296875 L 284.917969 306.308594 L 291.3125 326.902344 L 284.316406 333.273438 L 278.210938 339.105469 L 272.757812 342.617188 L 264.480469 341.433594 L 253.214844 338.179688 L 252.929688 337.734375 L 252.78125 337.777344 Z M 249.53125 315.296875 "/>
<path style=" stroke:none;fill-rule:nonzero;fill:rgb(39.99939%,39.99939%,39.99939%);fill-opacity:0.3;" d="M 255.558594 340.96875 L 264.148438 343.789062 L 273.328125 345.261719 L 280.128906 341.039062 L 283.507812 337.492188 L 285.308594 336.34375 L 286.699219 336.339844 L 287.316406 337.21875 L 284.207031 345.96875 L 270.035156 358.230469 Z M 255.558594 340.96875 "/>
<path style=" stroke:none;fill-rule:nonzero;fill:rgb(39.99939%,39.99939%,39.99939%);fill-opacity:0.3;" d="M 298.640625 184.324219 L 298.777344 185.179688 L 282.011719 191.152344 L 281.863281 190.777344 Z M 298.640625 184.324219 "/>
<g clip-path="url(#clip11)" clip-rule="nonzero">
<path style=" stroke:none;fill-rule:nonzero;fill:rgb(39.99939%,39.99939%,39.99939%);fill-opacity:0.3;" d="M 201.21875 349.808594 L 200.761719 352.386719 L 191.796875 359.203125 L 184.726562 367.671875 L 183.921875 371.289062 L 183.890625 379.117188 L 175.839844 380.746094 L 169.160156 381.121094 L 171.949219 367.144531 L 175.503906 352.683594 L 177.449219 345.800781 L 180.460938 335.96875 Z M 201.21875 349.808594 "/>
</g>
<g clip-path="url(#clip12)" clip-rule="nonzero">
<path style=" stroke:none;fill-rule:nonzero;fill:rgb(39.99939%,39.99939%,39.99939%);fill-opacity:0.3;" d="M 207.644531 381.984375 L 261.089844 355.402344 L 267.089844 362.4375 L 286.820312 386.035156 L 259.203125 421.992188 L 245.019531 412.542969 L 241.421875 411.292969 L 236.722656 411.324219 L 233.902344 412.027344 L 230.515625 413.558594 L 227.628906 414.882812 L 217.148438 396.453125 L 219.476562 393.214844 L 222.355469 390.261719 L 225.980469 388.742188 L 225.277344 387.296875 L 221.417969 388.914062 L 218.1875 392.257812 L 216.019531 395.054688 Z M 207.644531 381.984375 "/>
</g>
<g clip-path="url(#clip13)" clip-rule="nonzero">
<path style=" stroke:none;fill-rule:nonzero;fill:rgb(39.99939%,39.99939%,39.99939%);fill-opacity:0.3;" d="M 186.027344 371.207031 L 186.808594 368.222656 L 193.613281 360.253906 L 200.824219 354.675781 L 204.390625 352.785156 L 249.257812 339.789062 L 259.726562 353.609375 L 204.714844 381.367188 L 199.535156 379.371094 L 191.855469 378.433594 L 186.152344 378.785156 Z M 186.027344 371.207031 "/>
</g>
<path style=" stroke:none;fill-rule:nonzero;fill:rgb(39.99939%,39.99939%,39.99939%);fill-opacity:0.3;" d="M 253.214844 338.179688 L 252.824219 338.066406 L 252.78125 337.777344 L 252.929688 337.734375 Z M 253.214844 338.179688 "/>
<path style=" stroke:none;fill-rule:nonzero;fill:rgb(39.99939%,39.99939%,39.99939%);fill-opacity:0.3;" d="M 106.195312 289.738281 L 109.851562 291.15625 L 113.238281 291.574219 L 118.746094 290.558594 L 122.710938 289.589844 L 132.140625 291 L 144.328125 295.84375 L 133.03125 308.132812 L 132.136719 308.003906 L 131.824219 309.445312 L 131.410156 309.898438 L 130.796875 314.183594 L 126.949219 331.949219 L 127.011719 335.066406 L 100.921875 347.898438 L 81.761719 355.988281 L 82.488281 347.789062 L 84.695312 334.238281 L 94.34375 335.140625 L 94.433594 334.277344 L 94.523438 333.410156 L 85.046875 332.394531 L 94.542969 309.851562 L 102.207031 311.84375 L 118.148438 314.789062 L 118.332031 314.144531 L 118.515625 313.503906 L 102.828125 310.605469 L 95.957031 307.15625 L 97.972656 303.371094 Z M 106.195312 289.738281 "/>
<path style=" stroke:none;fill-rule:nonzero;fill:rgb(39.99939%,39.99939%,39.99939%);fill-opacity:0.3;" d="M -12.988281 317.070312 L 19.632812 317.117188 L 18.808594 336.742188 L 4.699219 337.089844 L 6.042969 329.519531 L 5.484375 329.375 L 4.890625 329.222656 L 3.261719 336.882812 L -14.824219 336.945312 Z M -12.988281 317.070312 "/>
<g clip-path="url(#clip14)" clip-rule="nonzero">
<path style=" stroke:none;fill-rule:nonzero;fill:rgb(39.99939%,39.99939%,39.99939%);fill-opacity:0.3;" d="M 46.421875 341.300781 L 79.246094 345.730469 L 76.996094 358.316406 L 44.351562 374.636719 Z M 46.421875 341.300781 "/>
</g>
<g clip-path="url(#clip15)" clip-rule="nonzero">
<path style=" stroke:none;fill-rule:nonzero;fill:rgb(39.99939%,39.99939%,39.99939%);fill-opacity:0.3;" d="M 21.257812 338.570312 L 42.175781 341.332031 L 41.710938 376.078125 L 37.660156 378.476562 L 24.464844 385.65625 L 22.355469 384.464844 Z M 21.257812 338.570312 "/>
</g>
<path style=" stroke:none;fill-rule:nonzero;fill:rgb(39.99939%,39.99939%,39.99939%);fill-opacity:0.3;" d="M 21.164062 317.085938 L 45.011719 316.757812 L 44.128906 339.464844 L 20.488281 336.945312 Z M 21.164062 317.085938 "/>
<path style=" stroke:none;fill-rule:nonzero;fill:rgb(39.99939%,39.99939%,39.99939%);fill-opacity:0.3;" d="M 24.644531 267.074219 L 31.652344 270.371094 L 31.402344 270.875 Z M 24.644531 267.074219 "/>
<path style=" stroke:none;fill-rule:nonzero;fill:rgb(39.99939%,39.99939%,39.99939%);fill-opacity:0.3;" d="M 85.617188 278.644531 L 85.65625 278.472656 L 86.351562 279.050781 Z M 85.617188 278.644531 "/>
<g clip-path="url(#clip16)" clip-rule="nonzero">
<path style=" stroke:none;fill-rule:nonzero;fill:rgb(39.99939%,39.99939%,39.99939%);fill-opacity:0.3;" d="M -23.070312 410.066406 L -25.046875 375.546875 L -27.320312 369.601562 L -29.1875 365.726562 L -31.828125 360.71875 L -34.160156 357.511719 L -36.65625 355.152344 L -40.378906 352.546875 L -44.65625 350.894531 L -37.335938 344.335938 L -29.753906 339.003906 L 1.535156 338.589844 L -11.574219 367.199219 L -20.339844 369.554688 L -20.144531 370.554688 L -19.945312 371.554688 L -11.785156 369.292969 L -9.246094 403.613281 Z M -23.070312 410.066406 "/>
</g>
<path style=" stroke:none;fill-rule:nonzero;fill:rgb(39.99939%,39.99939%,39.99939%);fill-opacity:0.3;" d="M 42.429688 254.230469 L 50.316406 257.390625 L 56.96875 259.800781 L 64.609375 263.773438 L 72.632812 272.964844 L 84.246094 280.410156 L 92.917969 285.242188 L 93.949219 285.378906 L 101.925781 292.027344 L 96.253906 300.789062 L 79.269531 295.992188 L 59.683594 285.660156 L 40.207031 274.371094 L 35.820312 269.34375 L 37.277344 266.195312 L 39.523438 260.78125 L 41.371094 256.121094 Z M 42.429688 254.230469 "/>
<path style=" stroke:none;fill-rule:nonzero;fill:rgb(39.99939%,39.99939%,39.99939%);fill-opacity:0.3;" d="M 62.503906 206.40625 L 41.925781 251.640625 L 36.355469 249.527344 L 30.066406 247.785156 L 26.023438 246.894531 L 26.242188 246.707031 L 25.105469 246.691406 L 21.382812 245.871094 L 36.28125 213.777344 L 47.183594 210.675781 Z M 62.503906 206.40625 "/>
<path style=" stroke:none;fill-rule:nonzero;fill:rgb(39.99939%,39.99939%,39.99939%);fill-opacity:0.3;" d="M 34.507812 214.1875 L 19.632812 245.347656 L 12.070312 243.714844 L 0.976562 242.453125 L 3.558594 235.0625 L 13.394531 238.636719 L 13.613281 237.714844 L 3.894531 234.160156 L 8.070312 221.988281 L 22.027344 217.578125 L 19.675781 223.050781 L 18.011719 227.316406 L 18.355469 227.464844 L 18.703125 227.613281 L 20.398438 223.234375 L 22.890625 217.441406 Z M 34.507812 214.1875 "/>
<path style=" stroke:none;fill-rule:nonzero;fill:rgb(39.99939%,39.99939%,39.99939%);fill-opacity:0.3;" d="M -33.949219 230.789062 L -15.773438 228.046875 L -4.195312 225.320312 L 6.613281 222.203125 L 3.839844 230.011719 L 2.585938 233.503906 L -13.601562 234.511719 L -13.644531 235.105469 L -13.691406 235.699219 L 2.289062 234.722656 L -0.382812 242.183594 L -17.25 240.933594 L -36.070312 241.984375 L -48.058594 242.496094 L -48.914062 233.324219 Z M -33.949219 230.789062 "/>
<g clip-path="url(#clip17)" clip-rule="nonzero">
<path style=" stroke:none;fill-rule:nonzero;fill:rgb(39.99939%,39.99939%,39.99939%);fill-opacity:0.3;" d="M 4.675781 338.53125 L 18.695312 338.308594 L 19.796875 385.355469 L 19.5625 389.183594 L 8.648438 394.847656 L 5.917969 376.089844 L 4.230469 376.402344 L 6.550781 395.640625 L -6.757812 402.320312 L -9.269531 368.285156 Z M 4.675781 338.53125 "/>
</g>
<path style=" stroke:none;fill-rule:nonzero;fill:rgb(39.99939%,39.99939%,39.99939%);fill-opacity:0.3;" d="M 47.585938 317.140625 L 54.539062 317.351562 L 58.9375 317.414062 L 69.191406 329.488281 L 80.605469 334.519531 L 79.125 344.058594 L 46.074219 338.996094 Z M 47.585938 317.140625 "/>
<path style=" stroke:none;fill-rule:nonzero;fill:rgb(39.99939%,39.99939%,39.99939%);fill-opacity:0.3;" d="M 64.558594 205.894531 L 72.730469 204.035156 L 71.753906 208.261719 L 51.429688 252.453125 L 51.75 252.664062 L 50.582031 255.238281 L 43.914062 252.644531 Z M 64.558594 205.894531 "/>
<path style=" stroke:none;fill-rule:nonzero;fill:rgb(39.99939%,39.99939%,39.99939%);fill-opacity:0.3;" d="M 64.464844 261.027344 L 64.300781 261.527344 L 57.957031 258.320312 L 52.347656 256.105469 L 53.414062 253.753906 L 64.242188 260.847656 Z M 64.464844 261.027344 "/>
<path style=" stroke:none;fill-rule:nonzero;fill:rgb(39.99939%,39.99939%,39.99939%);fill-opacity:0.3;" d="M 132.820312 290.171875 L 133.121094 286.078125 L 134.503906 286.035156 L 146.433594 293.546875 L 145.191406 294.902344 Z M 132.820312 290.171875 "/>
<path style=" stroke:none;fill-rule:nonzero;fill:rgb(39.99939%,39.99939%,39.99939%);fill-opacity:0.3;" d="M -6.167969 308.53125 L -6.1875 307.605469 L 11.210938 306.394531 L 9.902344 308.070312 L 0.671875 308.855469 Z M -6.167969 308.53125 "/>
<path style=" stroke:none;fill-rule:nonzero;fill:rgb(39.99939%,39.99939%,39.99939%);fill-opacity:0.3;" d="M 73.777344 271.253906 L 66.328125 263.050781 L 66.457031 262.667969 L 83.921875 277.027344 L 83.820312 277.480469 Z M 73.777344 271.253906 "/>
<path style=" stroke:none;fill-rule:nonzero;fill:rgb(39.99939%,39.99939%,39.99939%);fill-opacity:0.3;" d="M 11.933594 309.277344 L 17.398438 304.195312 L 31.425781 277.398438 L 34.660156 276.871094 L 58.269531 288.21875 L 78.308594 298.34375 L 95.351562 302.929688 L 93.164062 306.800781 L 83.515625 329.09375 L 70.789062 323.21875 L 68.339844 313.609375 L 63.167969 309.03125 L 55.53125 308.871094 L 36.984375 310.769531 L 15.746094 312.316406 Z M 11.933594 309.277344 "/>
<path style=" stroke:none;fill-rule:nonzero;fill:rgb(39.99939%,39.99939%,39.99939%);fill-opacity:0.3;" d="M 10.75 218.773438 L 7.457031 219.75 L -2.191406 222.339844 L 5.472656 220.191406 Z M 10.75 218.773438 "/>
<path style=" stroke:none;fill-rule:nonzero;fill:rgb(39.99939%,39.99939%,39.99939%);fill-opacity:0.3;" d="M 131.800781 286.121094 L 131.539062 289.855469 L 122.714844 288.480469 L 118.265625 289.496094 L 113.367188 290.277344 L 109.75 289.824219 L 106.953125 288.417969 L 107.515625 286.878906 Z M 131.800781 286.121094 "/>
<path style=" stroke:none;fill-rule:nonzero;fill:rgb(39.99939%,39.99939%,39.99939%);fill-opacity:0.3;" d="M -51.445312 244.207031 L -50.394531 244.34375 L -48.402344 244.59375 L -35.988281 243.882812 L -17.554688 243.050781 L -0.0117188 244.320312 L 11.414062 246.015625 L 13.636719 246.527344 L -4.691406 246.265625 L -51.53125 247.589844 Z M -51.445312 244.207031 "/>
<path style=" stroke:none;fill-rule:nonzero;fill:rgb(39.99939%,39.99939%,39.99939%);fill-opacity:0.3;" d="M 23.628906 248.933594 L 40.4375 253.226562 L 33.5625 266.703125 L 14.1875 257.542969 L 13.777344 257.335938 Z M 23.628906 248.933594 "/>
<path style=" stroke:none;fill-rule:nonzero;fill:rgb(39.99939%,39.99939%,39.99939%);fill-opacity:0.3;" d="M -7.730469 -24.34375 L -8.105469 -23 L -8.3125 -22.246094 L -10.910156 -9.207031 L -9.839844 -9.089844 L -8.765625 -8.96875 L -6.058594 -22.027344 L 5.738281 -20.703125 L 4.285156 -15.097656 L 2.683594 -6.878906 L 2.710938 0.207031 L 3.386719 8.210938 L 4.449219 16.359375 L 5.761719 30.675781 L 4.710938 35.007812 L -0.980469 37.667969 L -2.609375 37.070312 L -3.582031 30.667969 L -4.503906 7.949219 L -5.925781 7.964844 L -5.136719 30.628906 L -4.007812 38.082031 L -0.0585938 39.445312 L 5.195312 36.550781 L 8.800781 39.613281 L 24.875 48.519531 L 34.523438 50.796875 L 45.441406 51.953125 L 53.828125 53.6875 L 50.722656 57.394531 L 35.75 58.933594 L 25.710938 58.164062 L 12.667969 55.046875 L -1.890625 51.121094 L -10.332031 46.476562 L -15.183594 39.960938 L -15.609375 18.578125 L -16.414062 -3.34375 L -13.28125 -24.75 Z M -7.730469 -24.34375 "/>
<path style=" stroke:none;fill-rule:nonzero;fill:rgb(39.99939%,39.99939%,39.99939%);fill-opacity:0.3;" d="M -103.988281 68.335938 L -94.902344 66.609375 L -77.378906 64.566406 L -70.183594 64.875 L -64.230469 67.390625 L -57.894531 73.246094 L -40.773438 83.769531 L -33.621094 90.054688 L -18.648438 100.84375 L -8.84375 104.984375 L -4.25 108.171875 L 8.785156 106.742188 L 17.320312 101.609375 L 21.539062 101.746094 L 23.910156 107.117188 L 20.703125 110.605469 L 10.957031 115.949219 L 5.085938 120.734375 L 0.238281 118.378906 L -6.457031 118.46875 L -11.234375 120.355469 L -14.332031 118.019531 L -12.914062 117.308594 L -11.050781 117.554688 L -6.6875 115.496094 L -7.828125 114.703125 L -8.964844 113.90625 L -11.425781 114.9375 L -12.542969 116.105469 L -14.96875 117.3125 L -20.578125 113.949219 L -28.402344 103.851562 L -31.273438 100.878906 L -51.230469 87.808594 L -58.980469 82.898438 L -72.839844 74.183594 L -72.683594 69.03125 L -73.476562 68.949219 L -74.265625 68.867188 L -74.773438 72.949219 L -86.160156 73.105469 L -97.5 75.132812 L -102.488281 75.078125 Z M -103.988281 68.335938 "/>
<path style=" stroke:none;fill-rule:nonzero;fill:rgb(39.99939%,39.99939%,39.99939%);fill-opacity:0.3;" d="M 58.902344 145.878906 L 76.855469 143 L 103.792969 131.175781 L 105.074219 133.167969 L 103.359375 138.820312 L 100.070312 142.597656 L 97.464844 148.316406 L 86.601562 153.46875 L 81.480469 146.996094 L 80.6875 147.234375 L 79.886719 147.449219 L 85.550781 154.941406 L 99.417969 172.070312 L 111.628906 186.242188 L 108.3125 188.875 L 106.644531 189.851562 L 103.953125 191.144531 L 94.476562 182.339844 L 82.367188 169.164062 L 81.976562 169.472656 L 81.589844 169.78125 L 94.023438 183.21875 L 100.402344 189.3125 L 100.339844 193.074219 L 98.265625 194.121094 L 96.386719 194.976562 L 92.535156 196.238281 L 84.214844 198.324219 L 82.867188 193.085938 L 78.46875 184.359375 L 74.136719 177.292969 L 59.773438 156.816406 Z M 58.902344 145.878906 "/>
<path style=" stroke:none;fill-rule:nonzero;fill:rgb(39.99939%,39.99939%,39.99939%);fill-opacity:0.3;" d="M 58.65625 146.058594 L 59.589844 156.960938 L 59.105469 157.199219 L 58.625 157.441406 L 62.230469 162.648438 L 50.601562 174.371094 L 51.140625 174.882812 L 51.679688 175.390625 L 63.066406 163.734375 L 73.285156 178.105469 L 77.3125 184.855469 L 81.863281 193.371094 L 83.304688 199.03125 L 75.542969 201.121094 L 65.871094 203.265625 L 54.652344 178.769531 L 53.972656 179.054688 L 53.292969 179.34375 L 64.359375 203.601562 L 46.839844 208.308594 L 41.910156 194.914062 L 39.789062 188.347656 L 39.117188 188.476562 L 38.445312 188.601562 L 40.222656 194.683594 L 9.371094 202.332031 L 6.980469 192.027344 L 30.046875 187.15625 L 32.050781 185.726562 L 32.871094 183.550781 L 31.339844 180.992188 L 31.546875 179.390625 L 38.773438 175.683594 L 47.949219 169.867188 L 53.058594 164.953125 L 51.070312 163.15625 L 50.699219 163.433594 L 50.332031 163.714844 L 51.578125 165.070312 L 47.601562 168.597656 L 42.417969 163.117188 L 47.535156 157.058594 L 55.980469 151.199219 Z M 58.65625 146.058594 "/>
<path style=" stroke:none;fill-rule:nonzero;fill:rgb(39.99939%,39.99939%,39.99939%);fill-opacity:0.3;" d="M -26.582031 197.609375 L -25.285156 196.113281 L -12.015625 193.527344 L -2.382812 191.839844 L -2.625 190.496094 L -11.363281 192.0625 L -11.542969 190.066406 L -7.9375 188.546875 L -8.554688 182.753906 L -8.941406 182.78125 L -9.328125 182.8125 L -8.820312 188.082031 L -12.65625 189.589844 L -12.570312 192.175781 L -27.09375 194.800781 L -30.257812 185.753906 L -27.027344 186.132812 L -15.179688 185.855469 L -13.304688 184.265625 L -14.046875 178.121094 L -15.363281 169.488281 L -15.3125 165.515625 L -8.1875 165.195312 L 0.0273438 162.507812 L 2.902344 178.410156 L 5.476562 191.84375 L 8.128906 202.785156 L -11.601562 207.460938 L -13.847656 205.246094 L -22.996094 207.421875 L -25.023438 202.152344 L -19.308594 200.675781 L -19.550781 199.941406 L -19.792969 199.203125 L -25.539062 200.664062 Z M -26.582031 197.609375 "/>
<path style=" stroke:none;fill-rule:nonzero;fill:rgb(39.99939%,39.99939%,39.99939%);fill-opacity:0.3;" d="M 104.953125 -25.554688 L 106.121094 -27.195312 L 121.710938 -29.207031 L 118.890625 2.371094 L 116.464844 2.289062 Z M 104.953125 -25.554688 "/>
<path style=" stroke:none;fill-rule:nonzero;fill:rgb(39.99939%,39.99939%,39.99939%);fill-opacity:0.3;" d="M 80.257812 38.546875 L 97.453125 25.914062 L 107.949219 19.421875 L 118.59375 13.867188 L 117.789062 29.242188 L 93.296875 49.058594 Z M 80.257812 38.546875 "/>
<path style=" stroke:none;fill-rule:nonzero;fill:rgb(39.99939%,39.99939%,39.99939%);fill-opacity:0.3;" d="M 30.277344 23.242188 L 39.675781 13.9375 L 46.484375 9.316406 L 50.988281 7.414062 L 58.195312 15.105469 L 40.40625 32.40625 L 32.984375 27.210938 Z M 30.277344 23.242188 "/>
<path style=" stroke:none;fill-rule:nonzero;fill:rgb(39.99939%,39.99939%,39.99939%);fill-opacity:0.3;" d="M 155.457031 -29.636719 L 172.929688 -29.667969 L 181 6.5625 L 164.039062 10.109375 Z M 155.457031 -29.636719 "/>
<path style=" stroke:none;fill-rule:nonzero;fill:rgb(39.99939%,39.99939%,39.99939%);fill-opacity:0.3;" d="M 97.5625 149.898438 L 114.234375 172.878906 L 120.28125 180.363281 L 113.035156 185.105469 L 100.917969 171.308594 L 87.925781 154.691406 Z M 97.5625 149.898438 "/>
<path style=" stroke:none;fill-rule:nonzero;fill:rgb(39.99939%,39.99939%,39.99939%);fill-opacity:0.3;" d="M 2.507812 161.484375 L 12.238281 152.960938 L 20.984375 145.671875 L 26.464844 141.632812 L 37.175781 140.839844 L 43.289062 141.191406 L 50.035156 142.734375 L 57.390625 145.800781 L 54.890625 150.214844 L 46.484375 156.179688 L 40.480469 163.25 L 46.382812 169.578125 L 38.269531 174.699219 L 30.089844 179.046875 L 29.753906 180.796875 L 31.546875 183.859375 L 30.652344 185.21875 L 29.476562 186.203125 L 6.808594 190.691406 L 4.539062 178.117188 Z M 2.507812 161.484375 "/>
<path style=" stroke:none;fill-rule:nonzero;fill:rgb(39.99939%,39.99939%,39.99939%);fill-opacity:0.3;" d="M 41.664062 33.332031 L 57.800781 17.214844 L 59.394531 16.992188 L 69.425781 31.414062 L 78.46875 39.507812 L 92.585938 50.386719 L 103.503906 60.1875 L 106.402344 63.691406 L 109.503906 68.851562 L 112.347656 74.378906 L 114.46875 82.402344 L 113.765625 99.832031 L 112.015625 100.289062 L 107.296875 87.875 L 104.101562 80.421875 L 97.699219 69.890625 L 94.101562 65.089844 L 87.027344 55.886719 L 82.914062 51.691406 L 78.160156 48.453125 L 69.128906 42.613281 L 53.183594 37.882812 Z M 41.664062 33.332031 "/>
<path style=" stroke:none;fill-rule:nonzero;fill:rgb(39.99939%,39.99939%,39.99939%);fill-opacity:0.3;" d="M 148.171875 112.414062 L 140.433594 119.800781 L 139.699219 112.15625 L 139.160156 112.214844 L 138.617188 112.269531 L 139.472656 120.484375 L 128.210938 127.625 L 124.925781 123.097656 L 125.375 119.28125 L 123.800781 114.300781 L 123.515625 94.246094 L 124.734375 94.207031 L 127.285156 95.90625 L 131.050781 96.125 L 134.542969 95.859375 L 142.304688 98.453125 L 145.230469 101.308594 L 147.039062 107.21875 Z M 148.171875 112.414062 "/>
<path style=" stroke:none;fill-rule:nonzero;fill:rgb(39.99939%,39.99939%,39.99939%);fill-opacity:0.3;" d="M 146.707031 162.695312 L 121.460938 179.460938 L 115.914062 172.164062 L 123.949219 163.992188 L 116.144531 155.507812 L 115.777344 155.738281 L 115.40625 155.96875 L 122.636719 164.238281 L 115.511719 171.351562 L 99.0625 149.121094 L 101.886719 143.027344 L 104.953125 140.003906 L 109.992188 134.84375 L 114.941406 126.925781 L 116.796875 123.265625 L 120.027344 118.820312 L 121.476562 119.605469 L 117.761719 124.707031 L 116.113281 127.78125 L 113.097656 133.65625 Z M 146.707031 162.695312 "/>
<path style=" stroke:none;fill-rule:nonzero;fill:rgb(39.99939%,39.99939%,39.99939%);fill-opacity:0.3;" d="M 148.671875 161.371094 L 118.792969 135.710938 L 128.722656 129.4375 L 140.375 121.996094 L 147.507812 116.808594 L 156.667969 117.648438 L 170.277344 120.648438 L 192.902344 125.300781 L 168.84375 146.632812 L 147.296875 130.28125 L 146.242188 131.234375 L 167.570312 147.402344 Z M 148.671875 161.371094 "/>
<path style=" stroke:none;fill-rule:nonzero;fill:rgb(39.99939%,39.99939%,39.99939%);fill-opacity:0.3;" d="M 24.28125 26.980469 L 28.527344 30.203125 L 38.65625 34.355469 L 52.0625 39.21875 L 68.363281 43.835938 L 76.871094 49.410156 L 81.828125 52.726562 L 85.417969 56.578125 L 92.664062 65.839844 L 96.183594 70.78125 L 102.535156 80.703125 L 85.949219 69.199219 L 74.175781 64.691406 L 65.722656 59.652344 L 54.484375 52.59375 L 45.675781 50.59375 L 34.707031 49.269531 L 25.789062 46.414062 L 12.542969 38.164062 L 8.675781 35.316406 L 15.496094 31.035156 Z M 24.28125 26.980469 "/>
<path style=" stroke:none;fill-rule:nonzero;fill:rgb(39.99939%,39.99939%,39.99939%);fill-opacity:0.3;" d="M -13.640625 -24.773438 L -16.675781 -3.34375 L -16.324219 18.238281 L -15.410156 39.960938 L -10.519531 46.597656 L -1.890625 51.445312 L 25.53125 58.476562 L 35.476562 59.234375 L 50.863281 57.71875 L 54.160156 53.8125 L 64.5625 60.601562 L 73.542969 65.835938 L 84.898438 70.78125 L 102.300781 82.25 L 105.335938 88.585938 L 109.601562 100.878906 L 114.414062 121.53125 L 108.265625 132.425781 L 104.191406 129.050781 L 76.398438 141.09375 L 58.292969 144.277344 L 50.347656 141.417969 L 43.351562 139.753906 L 36.796875 139.40625 L 27.28125 139.835938 L 24.191406 130.695312 L 16.429688 125.191406 L 10.644531 124.28125 L 5.175781 120.820312 L 11.046875 116.035156 L 20.785156 110.695312 L 24.039062 107.113281 L 21.539062 101.636719 L 17.289062 101.492188 L 8.730469 106.632812 L -4.234375 108.050781 L -8.800781 104.871094 L -18.601562 100.730469 L -33.527344 89.976562 L -40.707031 83.664062 L -57.929688 73.132812 L -64.238281 67.269531 L -70.152344 64.757812 L -77.367188 64.445312 L -94.9375 66.496094 L -104.011719 68.21875 L -121.085938 -8.53125 L -17.507812 -25.054688 Z M -13.640625 -24.773438 "/>
<path style=" stroke:none;fill-rule:nonzero;fill:rgb(39.99939%,39.99939%,39.99939%);fill-opacity:0.3;" d="M 88.027344 -23.890625 L 102.832031 -26.773438 L 115.050781 2.789062 L 118.625 12.515625 L 108.007812 18.261719 Z M 88.027344 -23.890625 "/>
<path style=" stroke:none;fill-rule:nonzero;fill:rgb(39.99939%,39.99939%,39.99939%);fill-opacity:0.3;" d="M 117.660156 30.789062 L 113.414062 70.011719 L 107.917969 62.984375 L 104.902344 59.308594 L 94.085938 49.945312 Z M 117.660156 30.789062 "/>
<path style=" stroke:none;fill-rule:nonzero;fill:rgb(39.99939%,39.99939%,39.99939%);fill-opacity:0.3;" d="M 140.203125 -29.789062 L 154.183594 -29.707031 L 162.566406 10.265625 L 156.65625 11.714844 L 150.625 -2.28125 L 144.003906 -11.945312 Z M 140.203125 -29.789062 "/>
<path style=" stroke:none;fill-rule:nonzero;fill:rgb(39.99939%,39.99939%,39.99939%);fill-opacity:0.3;" d="M 139.261719 35.570312 L 162.605469 28.871094 L 174.632812 54.628906 L 158.503906 60.671875 L 158.753906 61.269531 L 159.007812 61.871094 L 175.144531 55.761719 L 178.980469 64.140625 L 182.910156 76.074219 L 182.605469 79.019531 L 176.21875 80.035156 L 159.808594 81.992188 L 158.550781 82.105469 L 153.054688 64.515625 L 144.105469 45.6875 Z M 139.261719 35.570312 "/>
<path style=" stroke:none;fill-rule:nonzero;fill:rgb(39.99939%,39.99939%,39.99939%);fill-opacity:0.3;" d="M -49.914062 121.773438 L -47.519531 119.714844 L -36.722656 111.71875 L -29.695312 105.859375 L -22.089844 115.097656 L -17.742188 118.191406 L -24.398438 122.46875 L -23.046875 123.53125 L -15.96875 119.25 L -11.304688 123.300781 L -5.632812 120.917969 L 0.722656 121.015625 L 6.585938 129.886719 L -6.035156 136.011719 L -12.8125 139.539062 L -18.679688 141.273438 L -25.210938 142.542969 L -29.824219 141.882812 L -32.4375 137.320312 L -37.113281 132.09375 L -40.777344 125.890625 L -46.167969 124.78125 L -49.742188 122.945312 Z M -49.914062 121.773438 "/>
<path style=" stroke:none;fill-rule:nonzero;fill:rgb(39.99939%,39.99939%,39.99939%);fill-opacity:0.3;" d="M 86.652344 -23.597656 L 106.960938 18.824219 L 97.183594 24.746094 L 84.324219 11.007812 L 83.425781 11.671875 L 96.214844 25.355469 L 79.207031 37.9375 L 70.652344 30.222656 L 60.417969 15.171875 L 76.335938 6.195312 L 76.042969 5.769531 L 75.746094 5.34375 L 59.691406 14.496094 L 53.558594 7.882812 L 53.816406 6.5 L 56.796875 5.511719 L 64.75 1.132812 L 74.894531 -4.875 L 75.082031 -7.15625 L 74.242188 -9.359375 L 78.65625 -18.425781 L 80.371094 -22.640625 Z M 86.652344 -23.597656 "/>
<path style=" stroke:none;fill-rule:nonzero;fill:rgb(39.99939%,39.99939%,39.99939%);fill-opacity:0.3;" d="M 138.601562 34.070312 L 129.3125 13.246094 L 129.820312 -0.199219 L 131.101562 -0.3125 L 136.390625 10.480469 L 137.679688 9.808594 L 130.28125 -5.058594 L 132.6875 -29.617188 L 137.796875 -29.660156 L 141.566406 -11.585938 L 148.199219 -1.878906 L 154.949219 13.121094 L 161.480469 27.4375 Z M 138.601562 34.070312 "/>
<path style=" stroke:none;fill-rule:nonzero;fill:rgb(39.99939%,39.99939%,39.99939%);fill-opacity:0.3;" d="M 157.421875 13.375 L 163.703125 11.8125 L 181.925781 7.992188 L 191.027344 43.5 L 196.050781 57.617188 L 201.871094 75.007812 L 186.015625 78.210938 L 180.652344 63.394531 L 176.609375 54.078125 L 164.144531 27.941406 Z M 157.421875 13.375 "/>
<path style=" stroke:none;fill-rule:nonzero;fill:rgb(39.99939%,39.99939%,39.99939%);fill-opacity:0.3;" d="M 126.5625 42.761719 L 128.253906 22.296875 L 131.074219 21.753906 L 136.945312 35.289062 L 142.125 46.40625 L 150.824219 64.949219 L 156.332031 82.414062 L 145.636719 83.6875 L 130.558594 53.414062 Z M 126.5625 42.761719 "/>
<path style=" stroke:none;fill-rule:nonzero;fill:rgb(39.99939%,39.99939%,39.99939%);fill-opacity:0.3;" d="M 52.8125 4.683594 L 52.550781 -1.195312 L 53.875 -12.324219 L 55.121094 -19.792969 L 67.007812 -21.007812 L 78.429688 -22.4375 L 78.792969 -21.863281 L 77.5625 -18.671875 L 73.679688 -18.195312 L 73.65625 -17.808594 L 73.628906 -17.425781 L 77.285156 -17.921875 L 72.984375 -9.355469 L 73.972656 -6.855469 L 73.597656 -5.265625 L 64.273438 0.132812 L 56.277344 4.25 Z M 52.8125 4.683594 "/>
<path style=" stroke:none;fill-rule:nonzero;fill:rgb(39.99939%,39.99939%,39.99939%);fill-opacity:0.3;" d="M 123.820312 90.757812 L 126.207031 53.445312 L 128.695312 53.699219 L 143.742188 84.742188 L 146.042969 88.507812 L 147.382812 91.269531 L 147.226562 94.027344 L 144.152344 95.601562 L 134.570312 93.984375 L 130.714844 94.289062 L 128.113281 94.191406 L 126.039062 93.222656 Z M 123.820312 90.757812 "/>
<path style=" stroke:none;fill-rule:nonzero;fill:rgb(39.99939%,39.99939%,39.99939%);fill-opacity:0.3;" d="M 190.039062 121.960938 L 171.117188 118.164062 L 157.867188 114.71875 L 152 110.914062 L 149.367188 106.675781 L 146.761719 100.390625 L 150.871094 99.199219 L 153.066406 104.183594 L 154.472656 103.785156 L 151.964844 98.308594 L 151.957031 93.816406 L 150.082031 93.816406 L 148.75 87.441406 L 147.746094 85.769531 L 158.824219 83.964844 L 160.777344 95.039062 L 157.914062 95.65625 L 158.292969 96.882812 L 158.566406 97.964844 L 163.480469 96.726562 L 161.136719 83.964844 L 175.652344 82.070312 L 176.277344 92.570312 L 174.398438 102.667969 L 175.117188 102.796875 L 175.835938 102.929688 L 177.792969 93 L 177.171875 81.925781 L 183.292969 80.90625 L 184.867188 91.882812 L 185.601562 91.722656 L 186.339844 91.5625 L 184.890625 80.742188 L 203.007812 77.074219 L 210.855469 95.113281 L 193.871094 93.988281 L 193.765625 94.640625 L 193.65625 95.292969 L 211.417969 96.386719 L 214.757812 106.261719 L 211.28125 111.824219 L 187.164062 107.71875 L 186.796875 109.414062 L 209.203125 113.386719 L 197.097656 122.464844 Z M 190.039062 121.960938 "/>
<path style=" stroke:none;fill-rule:nonzero;fill:rgb(39.99939%,39.99939%,39.99939%);fill-opacity:0.3;" d="M -16.421875 225.488281 L -22.160156 208.699219 L -14.449219 206.660156 L -12.214844 209.035156 L 9.082031 203.945312 L 40.824219 196.082031 L 45.28125 208.605469 L 35.96875 211.585938 L 23.136719 215.109375 L 10.75 218.773438 L 5.472656 220.191406 L -2.191406 222.339844 L -5.003906 223.09375 Z M -16.421875 225.488281 "/>
<path style=" stroke:none;fill-rule:nonzero;fill:rgb(39.99939%,39.99939%,39.99939%);fill-opacity:0.3;" d="M -4.378906 138.101562 L 9.914062 131.113281 L 8.433594 126.203125 L 15.605469 127.292969 L 22.164062 131.664062 L 25.140625 140.199219 L 19.222656 144.152344 L 10.765625 151.351562 L 2.6875 158.335938 L 1.679688 157.730469 L -0.804688 147.382812 Z M -4.378906 138.101562 "/>
<path style=" stroke:none;fill-rule:nonzero;fill:rgb(39.99939%,39.99939%,39.99939%);fill-opacity:0.3;" d="M 115.398438 132.011719 L 116.929688 128.457031 L 119.015625 125.089844 L 122.320312 121.90625 L 127.035156 128.578125 L 118.082031 134.4375 Z M 115.398438 132.011719 "/>
<path style=" stroke:none;fill-rule:nonzero;fill:rgb(39.99939%,39.99939%,39.99939%);fill-opacity:0.3;" d="M 5.734375 8.492188 L 4.941406 0.03125 L 4.808594 -5.761719 L 19.480469 -5.5625 L 20.023438 0.433594 L 22.046875 6.859375 L 22.9375 18.429688 L 23.9375 25.480469 L 14.925781 29.570312 L 8.929688 32.65625 L 8.65625 30.363281 L 7.132812 16.816406 Z M 5.734375 8.492188 "/>
<path style=" stroke:none;fill-rule:nonzero;fill:rgb(39.99939%,39.99939%,39.99939%);fill-opacity:0.3;" d="M 24.359375 6.539062 L 22.285156 -0.523438 L 21.710938 -5.625 L 21.5 -13.222656 L 22.679688 -20.398438 L 37.152344 -20.40625 L 32.242188 -8.582031 L 32.777344 -8.484375 L 33.308594 -8.386719 L 38.164062 -20.519531 L 51.6875 -20.222656 L 51.613281 -13.035156 L 50.457031 -1.429688 L 51.015625 5.976562 L 45.4375 8.503906 L 38.789062 12.992188 L 29.15625 22.324219 L 25.949219 23.351562 L 25.066406 18.367188 Z M 24.359375 6.539062 "/>
<g clip-path="url(#clip18)" clip-rule="nonzero">
<path style=" stroke:none;fill-rule:nonzero;fill:rgb(39.99939%,39.99939%,39.99939%);fill-opacity:0.3;" d="M 343.855469 7.601562 L 353.921875 5.433594 L 367.367188 26.429688 L 365.875 27.910156 L 364.730469 27.085938 L 354.125 19.574219 L 352.007812 17.988281 L 344.140625 11.976562 Z M 343.855469 7.601562 "/>
</g>
<g clip-path="url(#clip19)" clip-rule="nonzero">
<path style=" stroke:none;fill-rule:nonzero;fill:rgb(39.99939%,39.99939%,39.99939%);fill-opacity:0.3;" d="M 356.019531 5.003906 L 365.46875 3.402344 L 378.515625 27.34375 L 383.417969 37.460938 L 381.535156 39.03125 L 379.988281 38.042969 L 369.015625 30.164062 L 370.792969 27.976562 Z M 356.019531 5.003906 "/>
</g>
<path style=" stroke:none;fill-rule:nonzero;fill:rgb(39.99939%,39.99939%,39.99939%);fill-opacity:0.3;" d="M 280.707031 -50.675781 L 291.96875 -50.265625 L 324.378906 -54.515625 L 341.402344 8.847656 L 339.90625 9.246094 L 338.214844 8.085938 L 330.90625 2.746094 L 308.074219 -15.285156 L 302.269531 -38.921875 L 304.597656 -39.429688 L 304.164062 -41.472656 L 303.730469 -43.519531 L 298.816406 -42.820312 L 304.390625 -19.292969 L 303.066406 -18.367188 L 295.484375 -24.339844 L 284 -32.777344 L 274.175781 -39.59375 L 263.648438 -47 Z M 280.707031 -50.675781 "/>
<g clip-path="url(#clip20)" clip-rule="nonzero">
<path style=" stroke:none;fill-rule:nonzero;fill:rgb(39.99939%,39.99939%,39.99939%);fill-opacity:0.3;" d="M 327.914062 -54.148438 L 354.339844 -59.71875 L 355.910156 -46.949219 L 363.058594 -1.167969 L 364.414062 2.238281 L 343.535156 5.9375 Z M 327.914062 -54.148438 "/>
</g>
<g clip-path="url(#clip21)" clip-rule="nonzero">
<path style=" stroke:none;fill-rule:nonzero;fill:rgb(39.99939%,39.99939%,39.99939%);fill-opacity:0.3;" d="M 365.648438 -0.921875 L 358.59375 -46.335938 L 378.164062 -50.097656 L 379.5 -45.660156 L 384.078125 -34.34375 L 388.03125 -30.042969 L 393.039062 -25.214844 L 384.257812 -20.410156 L 384.667969 -14.511719 L 386.699219 -15.105469 L 386.109375 -19.683594 L 394.265625 -24.042969 L 403.53125 -20.632812 L 407.269531 -17.027344 L 385.800781 -1.578125 L 381.210938 -2.125 L 374.550781 -1.425781 L 367.207031 1.492188 Z M 365.648438 -0.921875 "/>
</g>
<g clip-path="url(#clip22)" clip-rule="nonzero">
<path style=" stroke:none;fill-rule:nonzero;fill:rgb(39.99939%,39.99939%,39.99939%);fill-opacity:0.3;" d="M 411.214844 132.238281 L 421.09375 146.46875 L 433.257812 156.566406 L 432.765625 157.59375 L 432.15625 158.324219 L 430.769531 159.386719 L 428.707031 160.03125 L 426.152344 160.882812 L 423.207031 161.433594 L 420.667969 161.917969 L 418.570312 162.660156 L 416.804688 163.464844 L 414.335938 164.96875 L 413.691406 166.097656 L 413.1875 167.757812 L 412.773438 170.351562 L 412.667969 172.269531 L 408.667969 175.027344 L 407.375 174.695312 L 404.996094 173.066406 L 403.25 171.949219 L 401.113281 171.164062 L 399.804688 171.164062 L 398.285156 172.109375 L 396.839844 173.816406 L 395.507812 175.710938 L 394.703125 177.539062 L 389.484375 187.476562 L 385.300781 201.28125 L 383.164062 206.394531 L 376.800781 206.378906 L 376.726562 207.523438 L 376.648438 208.742188 L 382.136719 208.855469 L 376.660156 221.960938 L 354.921875 236.59375 L 351.628906 228.191406 L 351.03125 225.496094 L 351.472656 213.566406 L 351.085938 209.441406 L 359.707031 209.0625 L 359.683594 208.300781 L 359.664062 207.542969 L 350.933594 207.816406 L 348.820312 185.285156 L 348.398438 180.21875 L 348.332031 178.992188 L 368.269531 179.792969 L 368.289062 179.027344 L 368.304688 178.257812 L 361.484375 177.914062 L 361.324219 160.816406 L 360.714844 160.832031 L 360.101562 160.847656 L 360.355469 177.816406 L 348.328125 177.304688 L 348.671875 160.429688 L 349.46875 145.566406 L 359.667969 144.863281 L 368.429688 145.542969 L 376.925781 146.550781 L 384.878906 147.269531 L 390.742188 143.945312 L 396.425781 151.167969 L 397.714844 150.183594 L 392.175781 143.101562 L 398.992188 138.972656 L 404.742188 146.429688 L 412.304688 153.957031 L 412.691406 153.628906 L 413.074219 153.300781 L 405.515625 145.964844 L 400.253906 138.605469 Z M 411.214844 132.238281 "/>
</g>
<g clip-path="url(#clip23)" clip-rule="nonzero">
<path style=" stroke:none;fill-rule:nonzero;fill:rgb(39.99939%,39.99939%,39.99939%);fill-opacity:0.3;" d="M 365.875 27.910156 L 365.492188 28.289062 L 352.007812 17.988281 L 354.125 19.574219 L 364.730469 27.085938 Z M 365.875 27.910156 "/>
</g>
<path style=" stroke:none;fill-rule:nonzero;fill:rgb(39.99939%,39.99939%,39.99939%);fill-opacity:0.3;" d="M 282.089844 -23.238281 L 305.855469 -5.171875 L 306.859375 14.886719 L 287.796875 25.042969 Z M 282.089844 -23.238281 "/>
<path style=" stroke:none;fill-rule:nonzero;fill:rgb(39.99939%,39.99939%,39.99939%);fill-opacity:0.3;" d="M 291.582031 120.835938 L 340.90625 107.363281 L 346.246094 142.738281 L 343.074219 144.375 L 317.226562 142.066406 L 326.445312 135.863281 L 325.953125 135.300781 L 325.464844 134.738281 L 314.785156 141.671875 L 307.222656 140.984375 L 294.40625 140.253906 Z M 291.582031 120.835938 "/>
<path style=" stroke:none;fill-rule:nonzero;fill:rgb(39.99939%,39.99939%,39.99939%);fill-opacity:0.3;" d="M 267.886719 -34.199219 L 280.101562 -24.6875 L 285.871094 26.605469 L 282.746094 28.644531 L 275.886719 11.625 L 254.171875 11.707031 L 253.558594 6.355469 L 247.894531 -47.945312 L 265.683594 -35.484375 L 273.195312 -9.578125 L 274.007812 -9.589844 L 274.824219 -9.601562 Z M 267.886719 -34.199219 "/>
<g clip-path="url(#clip24)" clip-rule="nonzero">
<path style=" stroke:none;fill-rule:nonzero;fill:rgb(39.99939%,39.99939%,39.99939%);fill-opacity:0.3;" d="M 338.589844 79.53125 L 345.425781 78.050781 L 362.375 74.53125 L 367.671875 73.285156 L 382.839844 69.390625 L 395.777344 99.0625 L 379.644531 105.890625 L 380.386719 107.648438 L 396.550781 100.761719 L 404.480469 120.660156 L 393.609375 121.027344 L 393.675781 121.964844 L 393.738281 122.902344 L 405.226562 122.535156 L 409.871094 130.679688 L 398.234375 137.105469 L 391.226562 141.183594 L 384.320312 145.019531 L 377.539062 144.601562 L 369.535156 143.496094 L 359.578125 142.933594 L 349.796875 143.652344 L 341.4375 93.660156 L 354.460938 90.347656 L 354.328125 86.308594 L 353.253906 86.3125 L 352.179688 86.3125 L 352.195312 89.015625 L 341.050781 91.898438 Z M 338.589844 79.53125 "/>
</g>
<path style=" stroke:none;fill-rule:nonzero;fill:rgb(39.99939%,39.99939%,39.99939%);fill-opacity:0.3;" d="M 289.429688 119.140625 L 291.902344 140.832031 L 257.230469 147.15625 L 243.503906 134.871094 L 252.210938 128.867188 L 261.535156 126.46875 L 268.34375 124.789062 L 274.433594 121.554688 Z M 289.429688 119.140625 "/>
<path style=" stroke:none;fill-rule:nonzero;fill:rgb(39.99939%,39.99939%,39.99939%);fill-opacity:0.3;" d="M 308.082031 -3.058594 L 322.339844 7.421875 L 309.285156 14.148438 Z M 308.082031 -3.058594 "/>
<path style=" stroke:none;fill-rule:nonzero;fill:rgb(39.99939%,39.99939%,39.99939%);fill-opacity:0.3;" d="M 285.339844 87.160156 L 295.171875 111.683594 L 295.417969 116.960938 L 289.851562 117.554688 L 282.382812 118.421875 L 283.859375 107.109375 L 283.035156 107.082031 L 282.207031 107.050781 L 280.980469 118.421875 L 274.203125 119.484375 L 270.382812 104.453125 L 269.179688 104.695312 L 272.914062 120.085938 L 267.925781 123.253906 L 260.945312 124.871094 L 251.46875 127.242188 L 241.917969 133.980469 L 234.851562 127.125 L 249.425781 117.640625 L 248.332031 114.589844 L 227.6875 115.695312 L 220.792969 104.464844 L 241.714844 93.390625 L 251.886719 88.722656 L 255.304688 87.78125 L 267.996094 87.453125 Z M 285.339844 87.160156 "/>
<path style=" stroke:none;fill-rule:nonzero;fill:rgb(39.99939%,39.99939%,39.99939%);fill-opacity:0.3;" d="M 359.628906 71.324219 L 345.484375 74.394531 L 322.105469 32.730469 L 312.140625 16.984375 L 326.320312 9.304688 L 338.933594 18.625 L 330.445312 23.847656 L 331.289062 25.089844 L 340.238281 19.574219 L 347.851562 25.125 L 347.019531 34.589844 L 345.917969 45.621094 L 347.285156 48.640625 Z M 359.628906 71.324219 "/>
<g clip-path="url(#clip25)" clip-rule="nonzero">
<path style=" stroke:none;fill-rule:nonzero;fill:rgb(39.99939%,39.99939%,39.99939%);fill-opacity:0.3;" d="M 386.113281 51.820312 L 379.695312 55.9375 L 374.644531 51.835938 L 371.453125 53.96875 L 371.953125 54.621094 L 372.457031 55.269531 L 374.621094 53.738281 L 379.515625 57.945312 L 387.015625 52.78125 L 393.640625 58.410156 L 382.441406 66.761719 L 366.691406 70.519531 L 363.570312 64.457031 L 362.507812 64.746094 L 365.621094 70.808594 L 361.972656 71.644531 L 348.980469 47.972656 L 347.902344 45.488281 L 349.671875 25.996094 Z M 386.113281 51.820312 "/>
</g>
<path style=" stroke:none;fill-rule:nonzero;fill:rgb(39.99939%,39.99939%,39.99939%);fill-opacity:0.3;" d="M 339.90625 9.246094 L 339.207031 9.433594 L 334.726562 5.757812 L 330.90625 2.746094 L 338.214844 8.085938 Z M 339.90625 9.246094 "/>
<path style=" stroke:none;fill-rule:nonzero;fill:rgb(39.99939%,39.99939%,39.99939%);fill-opacity:0.3;" d="M 283.097656 84.429688 L 281.882812 75.847656 L 280.664062 75.878906 L 281.675781 84.257812 L 267.859375 84.578125 L 255.730469 84.800781 L 253.425781 77.707031 L 252.609375 77.875 L 251.792969 78.039062 L 254.128906 85.191406 L 250.984375 85.96875 L 241.753906 89.828125 L 229.007812 62.332031 L 235.773438 60.160156 L 257.453125 48.863281 L 264.210938 45.238281 L 268.238281 53.355469 L 269.222656 52.730469 L 270.207031 52.109375 L 266.226562 43.96875 L 283.304688 31.554688 L 287.832031 28.4375 L 309.125 17.6875 L 319.125 33.34375 L 310.304688 36.28125 L 310.859375 37.539062 L 319.691406 34.582031 L 334.71875 60.621094 L 335.984375 62.8125 L 343.042969 75.042969 L 336.8125 76.445312 L 330.464844 77.449219 L 328.261719 77.8125 L 301.875 82.035156 L 296.019531 61.511719 L 294.996094 61.78125 L 293.976562 62.050781 L 299.683594 82.535156 L 285.140625 84.285156 Z M 283.097656 84.429688 "/>
<path style=" stroke:none;fill-rule:nonzero;fill:rgb(39.99939%,39.99939%,39.99939%);fill-opacity:0.3;" d="M 254.117188 13.851562 L 274.558594 13.164062 L 281.183594 29.578125 L 263.945312 42.449219 L 258.332031 45.367188 Z M 254.117188 13.851562 "/>
<path style=" stroke:none;fill-rule:nonzero;fill:rgb(39.99939%,39.99939%,39.99939%);fill-opacity:0.3;" d="M 217.589844 -41.507812 L 245.488281 -47.4375 L 250.609375 5.429688 L 228.738281 6.710938 L 227.476562 -4.832031 L 225.484375 -13.890625 Z M 217.589844 -41.507812 "/>
<path style=" stroke:none;fill-rule:nonzero;fill:rgb(39.99939%,39.99939%,39.99939%);fill-opacity:0.3;" d="M 197.125 -37.902344 L 215.660156 -41.078125 L 223.65625 -13.464844 L 225.363281 -4.738281 L 226.710938 6.738281 L 209.355469 8.8125 Z M 197.125 -37.902344 "/>
<path style=" stroke:none;fill-rule:nonzero;fill:rgb(39.99939%,39.99939%,39.99939%);fill-opacity:0.3;" d="M 195.167969 -37.550781 L 200.078125 -19.859375 L 207.253906 9.191406 L 204.753906 11.605469 L 201.019531 12.554688 L 193.726562 17.023438 L 189.457031 17.976562 L 177.46875 -33.757812 Z M 195.167969 -37.550781 "/>
<path style=" stroke:none;fill-rule:nonzero;fill:rgb(39.99939%,39.99939%,39.99939%);fill-opacity:0.3;" d="M 229.429688 8.90625 L 250.613281 7.667969 L 256.304688 46.859375 L 234.703125 58.140625 L 228.472656 60.238281 L 224.757812 47.984375 L 234.292969 44.609375 L 230.175781 24.757812 Z M 229.429688 8.90625 "/>
<path style=" stroke:none;fill-rule:nonzero;fill:rgb(39.99939%,39.99939%,39.99939%);fill-opacity:0.3;" d="M 293.761719 143.257812 L 306.433594 143.589844 L 306.988281 150.429688 L 307.757812 150.332031 L 308.527344 150.230469 L 307.902344 143.796875 L 327.230469 145.332031 L 326.929688 150.011719 L 328.460938 150.113281 L 328.898438 145.320312 L 346.386719 146.734375 L 345.265625 160.378906 L 345.164062 174.613281 L 332.742188 176.578125 L 330.261719 176.886719 L 328.300781 177.28125 L 320.429688 178.523438 L 317.210938 179.496094 L 314.796875 179.980469 L 304.191406 182.191406 L 300.339844 183.671875 Z M 293.761719 143.257812 "/>
<path style=" stroke:none;fill-rule:nonzero;fill:rgb(39.99939%,39.99939%,39.99939%);fill-opacity:0.3;" d="M 287.179688 87.203125 L 301.597656 85.539062 L 336.195312 80.28125 L 338.382812 93.492188 L 339.941406 104.648438 L 300.238281 115.207031 Z M 287.179688 87.203125 "/>
<path style=" stroke:none;fill-rule:nonzero;fill:rgb(39.99939%,39.99939%,39.99939%);fill-opacity:0.3;" d="M 189.609375 19.546875 L 194.15625 18.332031 L 201.738281 14.554688 L 207.0625 13 L 209.46875 10.699219 L 226.714844 9.113281 L 227.207031 24.628906 L 231.242188 43.269531 L 224.066406 45.972656 L 219.4375 21.53125 L 218.171875 21.730469 L 216.902344 21.929688 L 221.746094 47.515625 L 225.84375 61.402344 L 217.703125 64.332031 L 217.949219 64.941406 L 218.195312 65.546875 L 226.164062 62.671875 L 239.101562 90.628906 L 218.011719 101.828125 L 215.410156 94.835938 L 207.097656 74.960938 L 200.960938 56.582031 L 196.03125 42.894531 Z M 189.609375 19.546875 "/>
<path style=" stroke:none;fill-rule:nonzero;fill:rgb(39.99939%,39.99939%,39.99939%);fill-opacity:0.3;" d="M 292.058594 143.398438 L 298.640625 184.324219 L 281.863281 190.777344 L 280.175781 186.519531 L 276.863281 179.464844 L 273.917969 173.039062 L 266.046875 159.308594 L 258.535156 148.816406 Z M 292.058594 143.398438 "/>
<path style=" stroke:none;fill-rule:nonzero;fill:rgb(39.99939%,39.99939%,39.99939%);fill-opacity:0.3;" d="M 167.035156 300.796875 L 170.207031 300.9375 L 170.308594 302.339844 Z M 167.035156 300.796875 "/>
<path style=" stroke:none;fill-rule:nonzero;fill:rgb(39.99939%,39.99939%,39.99939%);fill-opacity:0.3;" d="M 301.285156 249.925781 L 301.476562 243.460938 L 302.792969 235.652344 L 305.898438 225.234375 L 301.539062 249.800781 Z M 301.285156 249.925781 "/>
<path style=" stroke:none;fill-rule:nonzero;fill:rgb(39.99939%,39.99939%,39.99939%);fill-opacity:0.3;" d="M 108.3125 188.875 L 107.742188 189.324219 L 106.644531 189.851562 Z M 108.3125 188.875 "/>
<path style=" stroke:none;fill-rule:nonzero;fill:rgb(39.99939%,39.99939%,39.99939%);fill-opacity:0.3;" d="M 98.265625 194.121094 L 96.921875 194.800781 L 96.386719 194.976562 Z M 98.265625 194.121094 "/>
<path style=" stroke:none;fill-rule:nonzero;fill:rgb(39.99939%,39.99939%,39.99939%);fill-opacity:0.3;" d="M 195.476562 240.960938 L 195.210938 239.34375 L 198.382812 239.183594 L 205.132812 238.703125 L 206.984375 296.515625 L 204.765625 297.523438 L 204.542969 297.640625 L 202.707031 282.785156 L 200.144531 261.097656 L 199.058594 252.1875 Z M 195.476562 240.960938 "/>
<path style=" stroke:none;fill-rule:nonzero;fill:rgb(39.99939%,39.99939%,39.99939%);fill-opacity:0.3;" d="M 262.859375 231.519531 L 278.3125 227.484375 L 289.472656 226.207031 L 302.449219 224.628906 L 299.175781 235.648438 L 298.359375 243.65625 L 297.886719 250.234375 L 285.535156 255.699219 L 278.003906 236.988281 L 265.871094 240.761719 L 264.304688 235.367188 Z M 262.859375 231.519531 "/>
<path style=" stroke:none;fill-rule:nonzero;fill:rgb(39.99939%,39.99939%,39.99939%);fill-opacity:0.3;" d="M 85.65625 278.472656 L 96 232.085938 L 105.738281 193.601562 L 110.226562 191.167969 L 114.074219 188.691406 L 115.949219 193.410156 L 117.699219 201.015625 L 119.460938 209.398438 L 116.125 232.421875 L 114.5 233.78125 L 109.011719 262.839844 L 105.464844 284.847656 L 93.851562 283.203125 L 86.351562 279.050781 Z M 85.65625 278.472656 "/>
<path style=" stroke:none;fill-rule:nonzero;fill:rgb(39.99939%,39.99939%,39.99939%);fill-opacity:0.3;" d="M 277.402344 188.335938 L 282.496094 201.203125 L 282.082031 202.171875 L 255.59375 205.46875 L 234.859375 207.546875 L 191.683594 206.609375 L 186.023438 206.867188 L 186.449219 196.402344 L 186.53125 187.140625 L 208.085938 186.347656 L 217.035156 185.726562 L 225.6875 185.738281 L 235.664062 185.070312 L 271.019531 174.472656 Z M 277.402344 188.335938 "/>
<path style=" stroke:none;fill-rule:nonzero;fill:rgb(39.99939%,39.99939%,39.99939%);fill-opacity:0.3;" d="M 93.949219 285.378906 L 104.167969 286.765625 L 104.871094 287.476562 L 101.925781 292.027344 Z M 93.949219 285.378906 "/>
<path style=" stroke:none;fill-rule:nonzero;fill:rgb(39.99939%,39.99939%,39.99939%);fill-opacity:0.3;" d="M 72.730469 204.035156 L 73.914062 203.769531 L 51.75 252.664062 L 51.429688 252.453125 L 71.753906 208.261719 Z M 72.730469 204.035156 "/>
<path style=" stroke:none;fill-rule:nonzero;fill:rgb(39.99939%,39.99939%,39.99939%);fill-opacity:0.3;" d="M 76.304688 203.347656 L 90.039062 199.515625 L 78.90625 218.65625 L 69.480469 245.71875 L 64.464844 261.027344 L 64.242188 260.847656 L 53.414062 253.753906 Z M 76.304688 203.347656 "/>
<path style=" stroke:none;fill-rule:nonzero;fill:rgb(39.99939%,39.99939%,39.99939%);fill-opacity:0.3;" d="M 243.527344 232.925781 L 260.46875 232.03125 L 267.925781 254.671875 L 261.109375 255.683594 L 261.222656 256.179688 L 261.335938 256.671875 L 268.371094 255.679688 L 271.398438 264.570312 L 246.480469 277.476562 Z M 243.527344 232.925781 "/>
<path style=" stroke:none;fill-rule:nonzero;fill:rgb(39.99939%,39.99939%,39.99939%);fill-opacity:0.3;" d="M 266.304688 242.019531 L 277.035156 238.566406 L 283.933594 256.542969 L 273.816406 263.203125 Z M 266.304688 242.019531 "/>
<path style=" stroke:none;fill-rule:nonzero;fill:rgb(39.99939%,39.99939%,39.99939%);fill-opacity:0.3;" d="M 133.121094 286.078125 L 136.515625 239.78125 L 148.59375 241.648438 L 147.070312 293.738281 L 146.433594 293.546875 L 134.503906 286.035156 Z M 133.121094 286.078125 "/>
<path style=" stroke:none;fill-rule:nonzero;fill:rgb(39.99939%,39.99939%,39.99939%);fill-opacity:0.3;" d="M 170.660156 184.363281 L 168.566406 210.492188 L 160.902344 207.550781 L 163.660156 183.398438 L 166.535156 170.328125 L 171.816406 151.890625 L 172.34375 148.347656 L 194.429688 128.722656 L 194.976562 133.816406 L 184.183594 174.496094 L 183.464844 181.050781 L 183.699219 186.925781 L 183.445312 196.824219 L 183.109375 207.976562 L 183.667969 216.25 L 169.523438 210.882812 L 171.726562 184.457031 L 171.195312 184.410156 Z M 170.660156 184.363281 "/>
<path style=" stroke:none;fill-rule:nonzero;fill:rgb(39.99939%,39.99939%,39.99939%);fill-opacity:0.3;" d="M 190.574219 227.675781 L 201.320312 225.773438 L 205.835938 232.777344 L 206.535156 232.625 L 207.234375 232.46875 L 202.871094 225.34375 L 208.535156 224.863281 L 219.246094 227.050781 L 221.613281 289.574219 L 208.339844 295.753906 L 206.53125 237.621094 L 198.457031 238.199219 L 196.546875 233.003906 L 195.703125 233.191406 L 197.4375 238.25 L 194.824219 238.382812 L 193.914062 235.246094 Z M 190.574219 227.675781 "/>
<path style=" stroke:none;fill-rule:nonzero;fill:rgb(39.99939%,39.99939%,39.99939%);fill-opacity:0.3;" d="M 224.042969 288.453125 L 221.519531 227.539062 L 229.304688 230.089844 L 241.003906 231.800781 L 243.351562 278.570312 Z M 224.042969 288.453125 "/>
<path style=" stroke:none;fill-rule:nonzero;fill:rgb(39.99939%,39.99939%,39.99939%);fill-opacity:0.3;" d="M 308.570312 218.851562 L 306.019531 218.625 L 301.925781 215.871094 Z M 308.570312 218.851562 "/>
<path style=" stroke:none;fill-rule:nonzero;fill:rgb(39.99939%,39.99939%,39.99939%);fill-opacity:0.3;" d="M 293.007812 209.875 L 292.71875 209.675781 L 291.226562 207.792969 Z M 293.007812 209.875 "/>
<path style=" stroke:none;fill-rule:nonzero;fill:rgb(39.99939%,39.99939%,39.99939%);fill-opacity:0.3;" d="M 119.269531 199.941406 L 117.949219 193.003906 L 116.007812 187.78125 L 122.988281 183.078125 L 135.90625 174.070312 L 130.773438 193.667969 L 131.472656 193.734375 L 132.167969 193.796875 L 137.578125 172.808594 L 149.75 164.183594 L 164.828125 153.066406 L 168.992188 154.527344 L 161.980469 182.90625 L 159.777344 206.929688 L 129.835938 201.390625 Z M 119.269531 199.941406 "/>
<path style=" stroke:none;fill-rule:nonzero;fill:rgb(39.99939%,39.99939%,39.99939%);fill-opacity:0.3;" d="M 234.363281 209.28125 L 255.785156 206.75 L 283.492188 203.589844 L 288.84375 211.441406 L 304.054688 219.539062 L 303.171875 222.59375 L 289.015625 224.261719 L 277.570312 225.644531 L 261.378906 229.714844 L 241.996094 230.363281 L 230.003906 228.425781 L 220.707031 225.636719 L 208.535156 223.007812 L 200.867188 223.683594 L 189.636719 225.488281 L 186.082031 215.652344 L 186.09375 208.738281 Z M 234.363281 209.28125 "/>
<path style=" stroke:none;fill-rule:nonzero;fill:rgb(39.99939%,39.99939%,39.99939%);fill-opacity:0.3;" d="M 66.457031 262.667969 L 71.855469 246.539062 L 81.148438 219.691406 L 93.121094 198.707031 L 98.167969 196.703125 L 103.503906 194.390625 L 94.183594 231.746094 L 83.921875 277.027344 Z M 66.457031 262.667969 "/>
<path style=" stroke:none;fill-rule:nonzero;fill:rgb(39.99939%,39.99939%,39.99939%);fill-opacity:0.3;" d="M 150.066406 241.96875 L 167.703125 244.742188 L 181.144531 244.53125 L 193.640625 242.515625 L 196.152344 252.132812 L 197.59375 260.746094 L 163.367188 261.957031 L 161.796875 298.332031 L 161.019531 297.964844 L 148.21875 294.085938 Z M 150.066406 241.96875 "/>
<path style=" stroke:none;fill-rule:nonzero;fill:rgb(39.99939%,39.99939%,39.99939%);fill-opacity:0.3;" d="M 186.328125 185.613281 L 186.25 181.25 L 187.136719 174.371094 L 198.179688 133.558594 L 197.941406 126.132812 L 217.113281 110.699219 L 218.523438 110.824219 L 229.613281 127.898438 L 235.070312 133.929688 L 208.007812 142.953125 L 208.242188 143.816406 L 208.472656 144.679688 L 236.472656 135.207031 L 238.011719 137.523438 L 232.308594 143.035156 L 231.972656 158.648438 L 208.410156 164.09375 L 208.484375 164.910156 L 208.558594 165.730469 L 233.414062 160.148438 L 233.839844 143.96875 L 240.410156 137.25 L 253.675781 149.296875 L 263.746094 161.238281 L 270.601562 173.117188 L 235.613281 183.472656 L 225.648438 184.382812 L 216.78125 184.394531 L 207.917969 184.867188 Z M 186.328125 185.613281 "/>
<path style=" stroke:none;fill-rule:nonzero;fill:rgb(39.99939%,39.99939%,39.99939%);fill-opacity:0.3;" d="M 123.039062 202.425781 L 128.898438 203.371094 L 160.089844 208.40625 L 168.644531 212.03125 L 184.652344 217.929688 L 187.996094 227.121094 L 191.910156 235.867188 L 192.632812 240.46875 L 181.167969 242.675781 L 167.585938 242.644531 L 149.75 239.777344 L 135.601562 237.363281 L 118.195312 232.835938 L 121.964844 209.800781 Z M 123.039062 202.425781 "/>
<path style=" stroke:none;fill-rule:nonzero;fill:rgb(39.99939%,39.99939%,39.99939%);fill-opacity:0.3;" d="M 116.820312 235.230469 L 135.054688 239.707031 L 131.800781 286.121094 L 107.515625 286.878906 L 108.28125 284.765625 L 111.921875 263.207031 Z M 116.820312 235.230469 "/>
<path style=" stroke:none;fill-rule:nonzero;fill:rgb(39.99939%,39.99939%,39.99939%);fill-opacity:0.3;" d="M 163.359375 299.070312 L 165.238281 264.058594 L 197.714844 262.519531 L 199.40625 282.09375 L 188.71875 282.789062 L 188.792969 284.050781 L 188.863281 285.308594 L 199.765625 284.566406 L 201.839844 299.046875 L 183.554688 308.570312 L 171.8125 303.046875 L 171.441406 299.886719 L 164.042969 299.390625 Z M 163.359375 299.070312 "/>
<path style="fill-rule:nonzero;fill:rgb(39.99939%,39.99939%,39.99939%);fill-opacity:1;stroke-width:0.03;stroke-linecap:square;stroke-linejoin:miter;stroke:rgb(39.99939%,39.99939%,39.99939%);stroke-opacity:1;stroke-miterlimit:3.239307;" d="M 241.035156 313.796875 L 244.207031 313.9375 L 244.308594 315.339844 Z M 241.035156 313.796875 " transform="matrix(1,0,0,1,-74,-13)"/>
<path style="fill-rule:nonzero;fill:rgb(39.99939%,39.99939%,39.99939%);fill-opacity:1;stroke-width:0.03;stroke-linecap:square;stroke-linejoin:miter;stroke:rgb(39.99939%,39.99939%,39.99939%);stroke-opacity:1;stroke-miterlimit:3.239307;" d="M 375.285156 262.925781 L 375.476562 256.460938 L 376.792969 248.652344 L 379.898438 238.234375 L 375.539062 262.800781 Z M 375.285156 262.925781 " transform="matrix(1,0,0,1,-74,-13)"/>
<path style="fill-rule:nonzero;fill:rgb(39.99939%,39.99939%,39.99939%);fill-opacity:1;stroke-width:0.03;stroke-linecap:square;stroke-linejoin:miter;stroke:rgb(39.99939%,39.99939%,39.99939%);stroke-opacity:1;stroke-miterlimit:3.239307;" d="M 182.3125 201.875 L 181.742188 202.324219 L 180.644531 202.851562 Z M 182.3125 201.875 " transform="matrix(1,0,0,1,-74,-13)"/>
<path style="fill-rule:nonzero;fill:rgb(39.99939%,39.99939%,39.99939%);fill-opacity:1;stroke-width:0.03;stroke-linecap:square;stroke-linejoin:miter;stroke:rgb(39.99939%,39.99939%,39.99939%);stroke-opacity:1;stroke-miterlimit:3.239307;" d="M 172.265625 207.121094 L 170.921875 207.800781 L 170.386719 207.976562 Z M 172.265625 207.121094 " transform="matrix(1,0,0,1,-74,-13)"/>
<path style="fill-rule:nonzero;fill:rgb(39.99939%,39.99939%,39.99939%);fill-opacity:1;stroke-width:0.03;stroke-linecap:square;stroke-linejoin:miter;stroke:rgb(39.99939%,39.99939%,39.99939%);stroke-opacity:1;stroke-miterlimit:3.239307;" d="M 269.476562 253.960938 L 269.210938 252.34375 L 272.382812 252.183594 L 279.132812 251.703125 L 280.984375 309.515625 L 278.765625 310.523438 L 278.542969 310.640625 L 276.707031 295.785156 L 274.144531 274.097656 L 273.058594 265.1875 Z M 269.476562 253.960938 " transform="matrix(1,0,0,1,-74,-13)"/>
<path style="fill-rule:nonzero;fill:rgb(39.99939%,39.99939%,39.99939%);fill-opacity:1;stroke-width:0.03;stroke-linecap:square;stroke-linejoin:miter;stroke:rgb(39.99939%,39.99939%,39.99939%);stroke-opacity:1;stroke-miterlimit:3.239307;" d="M 336.859375 244.519531 L 352.3125 240.484375 L 363.472656 239.207031 L 376.449219 237.628906 L 373.175781 248.648438 L 372.359375 256.65625 L 371.886719 263.234375 L 359.535156 268.699219 L 352.003906 249.988281 L 339.871094 253.761719 L 338.304688 248.367188 Z M 336.859375 244.519531 " transform="matrix(1,0,0,1,-74,-13)"/>
<path style="fill-rule:nonzero;fill:rgb(39.99939%,39.99939%,39.99939%);fill-opacity:1;stroke-width:0.03;stroke-linecap:square;stroke-linejoin:miter;stroke:rgb(39.99939%,39.99939%,39.99939%);stroke-opacity:1;stroke-miterlimit:3.239307;" d="M 159.65625 291.472656 L 170 245.085938 L 179.738281 206.601562 L 184.226562 204.167969 L 188.074219 201.691406 L 189.949219 206.410156 L 191.699219 214.015625 L 193.460938 222.398438 L 190.125 245.421875 L 188.5 246.78125 L 183.011719 275.839844 L 179.464844 297.847656 L 167.851562 296.203125 L 160.351562 292.050781 Z M 159.65625 291.472656 " transform="matrix(1,0,0,1,-74,-13)"/>
<path style="fill-rule:nonzero;fill:rgb(39.99939%,39.99939%,39.99939%);fill-opacity:1;stroke-width:0.03;stroke-linecap:square;stroke-linejoin:miter;stroke:rgb(39.99939%,39.99939%,39.99939%);stroke-opacity:1;stroke-miterlimit:3.239307;" d="M 351.402344 201.335938 L 356.496094 214.203125 L 356.082031 215.171875 L 329.59375 218.46875 L 308.859375 220.546875 L 265.683594 219.609375 L 260.023438 219.867188 L 260.449219 209.402344 L 260.53125 200.140625 L 282.085938 199.347656 L 291.035156 198.726562 L 299.6875 198.738281 L 309.664062 198.070312 L 345.019531 187.472656 Z M 351.402344 201.335938 " transform="matrix(1,0,0,1,-74,-13)"/>
<path style="fill-rule:nonzero;fill:rgb(39.99939%,39.99939%,39.99939%);fill-opacity:1;stroke-width:0.03;stroke-linecap:square;stroke-linejoin:miter;stroke:rgb(39.99939%,39.99939%,39.99939%);stroke-opacity:1;stroke-miterlimit:3.239307;" d="M 167.949219 298.378906 L 178.167969 299.765625 L 178.871094 300.476562 L 175.925781 305.027344 Z M 167.949219 298.378906 " transform="matrix(1,0,0,1,-74,-13)"/>
<path style="fill-rule:nonzero;fill:rgb(39.99939%,39.99939%,39.99939%);fill-opacity:1;stroke-width:0.03;stroke-linecap:square;stroke-linejoin:miter;stroke:rgb(39.99939%,39.99939%,39.99939%);stroke-opacity:1;stroke-miterlimit:3.239307;" d="M 146.730469 217.035156 L 147.914062 216.769531 L 125.75 265.664062 L 125.429688 265.453125 L 145.753906 221.261719 Z M 146.730469 217.035156 " transform="matrix(1,0,0,1,-74,-13)"/>
<path style="fill-rule:nonzero;fill:rgb(39.99939%,39.99939%,39.99939%);fill-opacity:1;stroke-width:0.03;stroke-linecap:square;stroke-linejoin:miter;stroke:rgb(39.99939%,39.99939%,39.99939%);stroke-opacity:1;stroke-miterlimit:3.239307;" d="M 150.304688 216.347656 L 164.039062 212.515625 L 152.90625 231.65625 L 143.480469 258.71875 L 138.464844 274.027344 L 138.242188 273.847656 L 127.414062 266.753906 Z M 150.304688 216.347656 " transform="matrix(1,0,0,1,-74,-13)"/>
<path style="fill-rule:nonzero;fill:rgb(39.99939%,39.99939%,39.99939%);fill-opacity:1;stroke-width:0.03;stroke-linecap:square;stroke-linejoin:miter;stroke:rgb(39.99939%,39.99939%,39.99939%);stroke-opacity:1;stroke-miterlimit:3.239307;" d="M 317.527344 245.925781 L 334.46875 245.03125 L 341.925781 267.671875 L 335.109375 268.683594 L 335.222656 269.179688 L 335.335938 269.671875 L 342.371094 268.679688 L 345.398438 277.570312 L 320.480469 290.476562 Z M 317.527344 245.925781 " transform="matrix(1,0,0,1,-74,-13)"/>
<path style="fill-rule:nonzero;fill:rgb(39.99939%,39.99939%,39.99939%);fill-opacity:1;stroke-width:0.03;stroke-linecap:square;stroke-linejoin:miter;stroke:rgb(39.99939%,39.99939%,39.99939%);stroke-opacity:1;stroke-miterlimit:3.239307;" d="M 340.304688 255.019531 L 351.035156 251.566406 L 357.933594 269.542969 L 347.816406 276.203125 Z M 340.304688 255.019531 " transform="matrix(1,0,0,1,-74,-13)"/>
<path style="fill-rule:nonzero;fill:rgb(39.99939%,39.99939%,39.99939%);fill-opacity:1;stroke-width:0.03;stroke-linecap:square;stroke-linejoin:miter;stroke:rgb(39.99939%,39.99939%,39.99939%);stroke-opacity:1;stroke-miterlimit:3.239307;" d="M 207.121094 299.078125 L 210.515625 252.78125 L 222.59375 254.648438 L 221.070312 306.738281 L 220.433594 306.546875 L 208.503906 299.035156 Z M 207.121094 299.078125 " transform="matrix(1,0,0,1,-74,-13)"/>
<path style="fill-rule:nonzero;fill:rgb(39.99939%,39.99939%,39.99939%);fill-opacity:1;stroke-width:0.03;stroke-linecap:square;stroke-linejoin:miter;stroke:rgb(39.99939%,39.99939%,39.99939%);stroke-opacity:1;stroke-miterlimit:3.239307;" d="M 244.660156 197.363281 L 242.566406 223.492188 L 234.902344 220.550781 L 237.660156 196.398438 L 240.535156 183.328125 L 245.816406 164.890625 L 246.34375 161.347656 L 268.429688 141.722656 L 268.976562 146.816406 L 258.183594 187.496094 L 257.464844 194.050781 L 257.699219 199.925781 L 257.445312 209.824219 L 257.109375 220.976562 L 257.667969 229.25 L 243.523438 223.882812 L 245.726562 197.457031 L 245.195312 197.410156 Z M 244.660156 197.363281 " transform="matrix(1,0,0,1,-74,-13)"/>
<path style="fill-rule:nonzero;fill:rgb(39.99939%,39.99939%,39.99939%);fill-opacity:1;stroke-width:0.03;stroke-linecap:square;stroke-linejoin:miter;stroke:rgb(39.99939%,39.99939%,39.99939%);stroke-opacity:1;stroke-miterlimit:3.239307;" d="M 264.574219 240.675781 L 275.320312 238.773438 L 279.835938 245.777344 L 280.535156 245.625 L 281.234375 245.46875 L 276.871094 238.34375 L 282.535156 237.863281 L 293.246094 240.050781 L 295.613281 302.574219 L 282.339844 308.753906 L 280.53125 250.621094 L 272.457031 251.199219 L 270.546875 246.003906 L 269.703125 246.191406 L 271.4375 251.25 L 268.824219 251.382812 L 267.914062 248.246094 Z M 264.574219 240.675781 " transform="matrix(1,0,0,1,-74,-13)"/>
<path style="fill-rule:nonzero;fill:rgb(39.99939%,39.99939%,39.99939%);fill-opacity:1;stroke-width:0.03;stroke-linecap:square;stroke-linejoin:miter;stroke:rgb(39.99939%,39.99939%,39.99939%);stroke-opacity:1;stroke-miterlimit:3.239307;" d="M 298.042969 301.453125 L 295.519531 240.539062 L 303.304688 243.089844 L 315.003906 244.800781 L 317.351562 291.570312 Z M 298.042969 301.453125 " transform="matrix(1,0,0,1,-74,-13)"/>
<path style="fill-rule:nonzero;fill:rgb(39.99939%,39.99939%,39.99939%);fill-opacity:1;stroke-width:0.03;stroke-linecap:square;stroke-linejoin:miter;stroke:rgb(39.99939%,39.99939%,39.99939%);stroke-opacity:1;stroke-miterlimit:3.239307;" d="M 382.570312 231.851562 L 380.019531 231.625 L 375.925781 228.871094 Z M 382.570312 231.851562 " transform="matrix(1,0,0,1,-74,-13)"/>
<path style="fill-rule:nonzero;fill:rgb(39.99939%,39.99939%,39.99939%);fill-opacity:1;stroke-width:0.03;stroke-linecap:square;stroke-linejoin:miter;stroke:rgb(39.99939%,39.99939%,39.99939%);stroke-opacity:1;stroke-miterlimit:3.239307;" d="M 367.007812 222.875 L 366.71875 222.675781 L 365.226562 220.792969 Z M 367.007812 222.875 " transform="matrix(1,0,0,1,-74,-13)"/>
<path style="fill-rule:nonzero;fill:rgb(39.99939%,39.99939%,39.99939%);fill-opacity:1;stroke-width:0.03;stroke-linecap:square;stroke-linejoin:miter;stroke:rgb(39.99939%,39.99939%,39.99939%);stroke-opacity:1;stroke-miterlimit:3.239307;" d="M 193.269531 212.941406 L 191.949219 206.003906 L 190.007812 200.78125 L 196.988281 196.078125 L 209.90625 187.070312 L 204.773438 206.667969 L 205.472656 206.734375 L 206.167969 206.796875 L 211.578125 185.808594 L 223.75 177.183594 L 238.828125 166.066406 L 242.992188 167.527344 L 235.980469 195.90625 L 233.777344 219.929688 L 203.835938 214.390625 Z M 193.269531 212.941406 " transform="matrix(1,0,0,1,-74,-13)"/>
<path style="fill-rule:nonzero;fill:rgb(39.99939%,39.99939%,39.99939%);fill-opacity:1;stroke-width:0.03;stroke-linecap:square;stroke-linejoin:miter;stroke:rgb(39.99939%,39.99939%,39.99939%);stroke-opacity:1;stroke-miterlimit:3.239307;" d="M 308.363281 222.28125 L 329.785156 219.75 L 357.492188 216.589844 L 362.84375 224.441406 L 378.054688 232.539062 L 377.171875 235.59375 L 363.015625 237.261719 L 351.570312 238.644531 L 335.378906 242.714844 L 315.996094 243.363281 L 304.003906 241.425781 L 294.707031 238.636719 L 282.535156 236.007812 L 274.867188 236.683594 L 263.636719 238.488281 L 260.082031 228.652344 L 260.09375 221.738281 Z M 308.363281 222.28125 " transform="matrix(1,0,0,1,-74,-13)"/>
<path style="fill-rule:nonzero;fill:rgb(39.99939%,39.99939%,39.99939%);fill-opacity:1;stroke-width:0.03;stroke-linecap:square;stroke-linejoin:miter;stroke:rgb(39.99939%,39.99939%,39.99939%);stroke-opacity:1;stroke-miterlimit:3.239307;" d="M 140.457031 275.667969 L 145.855469 259.539062 L 155.148438 232.691406 L 167.121094 211.707031 L 172.167969 209.703125 L 177.503906 207.390625 L 168.183594 244.746094 L 157.921875 290.027344 Z M 140.457031 275.667969 " transform="matrix(1,0,0,1,-74,-13)"/>
<path style="fill-rule:nonzero;fill:rgb(39.99939%,39.99939%,39.99939%);fill-opacity:1;stroke-width:0.03;stroke-linecap:square;stroke-linejoin:miter;stroke:rgb(39.99939%,39.99939%,39.99939%);stroke-opacity:1;stroke-miterlimit:3.239307;" d="M 224.066406 254.96875 L 241.703125 257.742188 L 255.144531 257.53125 L 267.640625 255.515625 L 270.152344 265.132812 L 271.59375 273.746094 L 237.367188 274.957031 L 235.796875 311.332031 L 235.019531 310.964844 L 222.21875 307.085938 Z M 224.066406 254.96875 " transform="matrix(1,0,0,1,-74,-13)"/>
<path style="fill-rule:nonzero;fill:rgb(39.99939%,39.99939%,39.99939%);fill-opacity:1;stroke-width:0.03;stroke-linecap:square;stroke-linejoin:miter;stroke:rgb(39.99939%,39.99939%,39.99939%);stroke-opacity:1;stroke-miterlimit:3.239307;" d="M 260.328125 198.613281 L 260.25 194.25 L 261.136719 187.371094 L 272.179688 146.558594 L 271.941406 139.132812 L 291.113281 123.699219 L 292.523438 123.824219 L 303.613281 140.898438 L 309.070312 146.929688 L 282.007812 155.953125 L 282.242188 156.816406 L 282.472656 157.679688 L 310.472656 148.207031 L 312.011719 150.523438 L 306.308594 156.035156 L 305.972656 171.648438 L 282.410156 177.09375 L 282.484375 177.910156 L 282.558594 178.730469 L 307.414062 173.148438 L 307.839844 156.96875 L 314.410156 150.25 L 327.675781 162.296875 L 337.746094 174.238281 L 344.601562 186.117188 L 309.613281 196.472656 L 299.648438 197.382812 L 290.78125 197.394531 L 281.917969 197.867188 Z M 260.328125 198.613281 " transform="matrix(1,0,0,1,-74,-13)"/>
<path style="fill-rule:nonzero;fill:rgb(39.99939%,39.99939%,39.99939%);fill-opacity:1;stroke-width:0.03;stroke-linecap:square;stroke-linejoin:miter;stroke:rgb(39.99939%,39.99939%,39.99939%);stroke-opacity:1;stroke-miterlimit:3.239307;" d="M 197.039062 215.425781 L 202.898438 216.371094 L 234.089844 221.40625 L 242.644531 225.03125 L 258.652344 230.929688 L 261.996094 240.121094 L 265.910156 248.867188 L 266.632812 253.46875 L 255.167969 255.675781 L 241.585938 255.644531 L 223.75 252.777344 L 209.601562 250.363281 L 192.195312 245.835938 L 195.964844 222.800781 Z M 197.039062 215.425781 " transform="matrix(1,0,0,1,-74,-13)"/>
<path style="fill-rule:nonzero;fill:rgb(39.99939%,39.99939%,39.99939%);fill-opacity:1;stroke-width:0.03;stroke-linecap:square;stroke-linejoin:miter;stroke:rgb(39.99939%,39.99939%,39.99939%);stroke-opacity:1;stroke-miterlimit:3.239307;" d="M 190.820312 248.230469 L 209.054688 252.707031 L 205.800781 299.121094 L 181.515625 299.878906 L 182.28125 297.765625 L 185.921875 276.207031 Z M 190.820312 248.230469 " transform="matrix(1,0,0,1,-74,-13)"/>
<path style="fill-rule:nonzero;fill:rgb(39.99939%,39.99939%,39.99939%);fill-opacity:1;stroke-width:0.03;stroke-linecap:square;stroke-linejoin:miter;stroke:rgb(39.99939%,39.99939%,39.99939%);stroke-opacity:1;stroke-miterlimit:3.239307;" d="M 237.359375 312.070312 L 239.238281 277.058594 L 271.714844 275.519531 L 273.40625 295.09375 L 262.71875 295.789062 L 262.792969 297.050781 L 262.863281 298.308594 L 273.765625 297.566406 L 275.839844 312.046875 L 257.554688 321.570312 L 245.8125 316.046875 L 245.441406 312.886719 L 238.042969 312.390625 Z M 237.359375 312.070312 " transform="matrix(1,0,0,1,-74,-13)"/>
<path style=" stroke:none;fill-rule:evenodd;fill:rgb(85.096741%,85.096741%,81.959534%);fill-opacity:0.7;" d="M 49.675781 273 C 49.675781 268.3125 47.8125 263.816406 44.5 260.5 C 41.183594 257.1875 36.6875 255.324219 32 255.324219 C 27.3125 255.324219 22.816406 257.1875 19.5 260.5 C 16.1875 263.816406 14.324219 268.3125 14.324219 273 C 14.324219 277.6875 16.1875 282.183594 19.5 285.5 C 22.816406 288.8125 27.3125 290.675781 32 290.675781 C 36.6875 290.675781 41.183594 288.8125 44.5 285.5 C 47.8125 282.183594 49.675781 277.6875 49.675781 273 Z M 49.675781 273 "/>
<path style=" stroke:none;fill-rule:evenodd;fill:rgb(85.096741%,85.096741%,81.959534%);fill-opacity:0.7;" d="M 310.675781 65 C 310.675781 60.3125 308.8125 55.816406 305.5 52.5 C 302.183594 49.1875 297.6875 47.324219 293 47.324219 C 288.3125 47.324219 283.816406 49.1875 280.5 52.5 C 277.1875 55.816406 275.324219 60.3125 275.324219 65 C 275.324219 69.6875 277.1875 74.183594 280.5 77.5 C 283.816406 80.8125 288.3125 82.675781 293 82.675781 C 297.6875 82.675781 302.183594 80.8125 305.5 77.5 C 308.8125 74.183594 310.675781 69.6875 310.675781 65 Z M 310.675781 65 "/>
<path style=" stroke:none;fill-rule:evenodd;fill:rgb(85.096741%,85.096741%,81.959534%);fill-opacity:0.7;" d="M 269.675781 28 C 269.675781 23.3125 267.8125 18.816406 264.5 15.5 C 261.183594 12.1875 256.6875 10.324219 252 10.324219 C 247.3125 10.324219 242.816406 12.1875 239.5 15.5 C 236.1875 18.816406 234.324219 23.3125 234.324219 28 C 234.324219 32.6875 236.1875 37.183594 239.5 40.5 C 242.816406 43.8125 247.3125 45.675781 252 45.675781 C 256.6875 45.675781 261.183594 43.8125 264.5 40.5 C 267.8125 37.183594 269.675781 32.6875 269.675781 28 Z M 269.675781 28 "/>
<path style=" stroke:none;fill-rule:evenodd;fill:rgb(85.096741%,85.096741%,81.959534%);fill-opacity:0.7;" d="M 265.675781 144 C 265.675781 139.3125 263.8125 134.816406 260.5 131.5 C 257.183594 128.1875 252.6875 126.324219 248 126.324219 C 243.3125 126.324219 238.816406 128.1875 235.5 131.5 C 232.1875 134.816406 230.324219 139.3125 230.324219 144 C 230.324219 148.6875 232.1875 153.183594 235.5 156.5 C 238.816406 159.8125 243.3125 161.675781 248 161.675781 C 252.6875 161.675781 257.183594 159.8125 260.5 156.5 C 263.8125 153.183594 265.675781 148.6875 265.675781 144 Z M 265.675781 144 "/>
</g>
</svg>
