<?xml version="1.0" encoding="UTF-8"?>
<svg xmlns="http://www.w3.org/2000/svg" xmlns:xlink="http://www.w3.org/1999/xlink" width="361pt" height="361pt" viewBox="0 0 361 361" version="1.1">
<defs>
<clipPath id="clip1">
  <path d="M 0 357 L 9 357 L 9 360 L 0 360 Z M 0 357 "/>
</clipPath>
<clipPath id="clip2">
  <path d="M 39 297 L 96 297 L 96 360 L 39 360 Z M 39 297 "/>
</clipPath>
<clipPath id="clip3">
  <path d="M 73 327 L 127 327 L 127 360 L 73 360 Z M 73 327 "/>
</clipPath>
<clipPath id="clip4">
  <path d="M 10 358 L 29 358 L 29 360 L 10 360 Z M 10 358 "/>
</clipPath>
<clipPath id="clip5">
  <path d="M 29 359 L 43 359 L 43 360 L 29 360 Z M 29 359 "/>
</clipPath>
</defs>
<g id="surface7882">
<path style="fill-rule:nonzero;fill:rgb(0%,0%,0%);fill-opacity:1;stroke-width:0.03;stroke-linecap:square;stroke-linejoin:miter;stroke:rgb(0%,0%,0%);stroke-opacity:1;stroke-miterlimit:10;" d="M 0 178 L 360 178 L 360 -182 L 0 -182 Z M 0 178 " transform="matrix(1,0,0,1,0,182)"/>
<path style=" stroke:none;fill-rule:nonzero;fill:rgb(39.99939%,39.99939%,39.99939%);fill-opacity:0.3;" d="M 307.382812 272.378906 L 306.445312 271.898438 L 305.402344 271.429688 L 304.34375 271.007812 L 303.183594 270.609375 L 300.453125 270.433594 L 300.5625 269.273438 L 302.554688 268.464844 L 304.152344 268.742188 L 306.042969 269.332031 L 306.722656 265.296875 L 308.570312 265.246094 Z M 307.382812 272.378906 "/>
<path style=" stroke:none;fill-rule:nonzero;fill:rgb(39.99939%,39.99939%,39.99939%);fill-opacity:0.3;" d="M 109.269531 222.199219 L 107.09375 222.277344 L 104.515625 223.039062 L 102.179688 225.027344 L 100.410156 227.324219 L 99.363281 228.929688 L 97.75 229.3125 L 78.898438 217.617188 L 76.796875 230.53125 L 76.167969 245.042969 L 69.84375 244.8125 L 70.277344 240.410156 L 69.96875 240.378906 L 69.664062 240.351562 L 69.199219 244.789062 L 53.269531 244.210938 L 53.804688 227.082031 L 54.472656 211.941406 L 55.257812 182.292969 L 54.722656 160.5625 L 61.515625 135.773438 L 63.589844 139.59375 L 65.640625 143.328125 L 67.199219 146.28125 L 69.421875 150.496094 L 71.625 154.523438 L 73.046875 157.3125 L 76.007812 162.625 L 78.554688 167.292969 L 81.585938 172.894531 L 83.242188 176.136719 L 85.09375 179.515625 L 86.757812 182.960938 L 88.761719 186.371094 L 90.453125 189.429688 L 92.613281 193.144531 L 94.453125 195.859375 L 96.367188 198.378906 L 98.8125 201.511719 L 101.472656 204.511719 L 104.371094 207.496094 L 108.316406 211.394531 L 112.972656 216.066406 L 113.8125 219.164062 L 112.699219 220.960938 L 111.050781 222.027344 Z M 109.269531 222.199219 "/>
<path style=" stroke:none;fill-rule:nonzero;fill:rgb(39.99939%,39.99939%,39.99939%);fill-opacity:0.3;" d="M 97.832031 230.839844 L 99.765625 230.304688 L 101.457031 228.011719 L 102.90625 225.71875 L 105.113281 223.867188 L 107.175781 223.222656 L 109.300781 223.285156 L 112.175781 223.089844 L 113.671875 221.597656 L 116.011719 219.082031 L 116.800781 219.859375 L 118.394531 221.433594 L 117.578125 224.597656 L 118.425781 224.832031 L 118.457031 225.71875 L 120.152344 226.054688 L 119.933594 228.21875 L 115.941406 228.308594 L 115.894531 228.640625 L 115.84375 228.976562 L 116.683594 228.972656 L 120.125 229.148438 L 121.113281 229.875 L 121.113281 230.578125 L 125.976562 230.523438 L 126.050781 230.054688 L 126.125 229.589844 L 121.796875 229.382812 L 121.867188 226.628906 L 120.507812 225.40625 L 119.25 225.117188 L 119.605469 222.484375 L 121.226562 223.773438 L 123 225.054688 L 124.75 226.1875 L 126.195312 226.953125 L 128.097656 227.957031 L 131.074219 229.167969 L 136.613281 230.871094 L 141.105469 232.042969 L 147.34375 233.683594 L 155.65625 235.746094 L 167.222656 238.835938 L 171.152344 239.832031 L 170.875 242.390625 L 168.511719 244.984375 L 166.023438 245.953125 L 163.988281 245.933594 L 161.609375 245.835938 L 161.570312 246.316406 L 161.535156 246.796875 L 166.070312 246.921875 L 169.085938 245.742188 L 171.410156 243.039062 L 174.480469 244.324219 L 182.328125 248.054688 L 181.949219 250.636719 L 181.757812 254.363281 L 181.230469 259.597656 L 178.679688 263.230469 L 176.085938 264.535156 L 173.199219 265.671875 L 170.863281 266.117188 L 169.066406 266.558594 L 168.0625 268.902344 L 166.792969 269.140625 L 164.898438 268.578125 L 161.035156 266.863281 L 162.347656 262.648438 L 161.699219 262.460938 L 160.21875 266.4375 L 154.691406 263.8125 L 152.277344 262.878906 L 150.207031 262.226562 L 147.582031 261.511719 L 144.816406 260.859375 L 142.035156 260.410156 L 139.875 260.226562 L 137.902344 260.289062 L 136.105469 260.484375 L 133.476562 260.902344 L 134.09375 249.726562 L 128.339844 248.523438 L 128.714844 245.6875 L 127.816406 245.617188 L 126.921875 245.546875 L 126.546875 249.445312 L 132.671875 250.792969 L 132.175781 261.105469 L 131.273438 261.25 L 128.457031 261.695312 L 124.988281 262.203125 L 120.488281 262.890625 L 114.96875 263.78125 L 111.617188 264.226562 L 107.578125 264.527344 L 103.738281 264.730469 L 100.917969 264.621094 L 97.335938 264.480469 L 89.457031 263.722656 L 76.574219 262.613281 L 77.945312 230.492188 L 79.5 219.429688 Z M 97.832031 230.839844 "/>
<path style=" stroke:none;fill-rule:nonzero;fill:rgb(39.99939%,39.99939%,39.99939%);fill-opacity:0.3;" d="M 136.375 303.507812 L 139.5 305.050781 L 139.175781 304.960938 L 136.535156 303.859375 Z M 136.375 303.507812 "/>
<path style=" stroke:none;fill-rule:nonzero;fill:rgb(39.99939%,39.99939%,39.99939%);fill-opacity:0.3;" d="M 94.125 295.976562 L 94.390625 295.304688 L 95.308594 292.574219 L 95.8125 290.125 L 96.914062 287.628906 L 96.484375 287.570312 L 96.058594 287.511719 L 94.957031 289.953125 L 94.34375 292.683594 L 93.285156 295.320312 L 93.058594 296.003906 L 72.621094 296.550781 L 74.433594 291.078125 L 75.742188 286.515625 L 76.125 281.15625 L 84.136719 281.648438 L 105.4375 282.769531 L 107.5625 283.832031 L 103.742188 295.71875 Z M 94.125 295.976562 "/>
<path style=" stroke:none;fill-rule:nonzero;fill:rgb(39.99939%,39.99939%,39.99939%);fill-opacity:0.3;" d="M 198.382812 278.359375 L 198.117188 276.351562 L 198.050781 274.972656 L 198.136719 272.851562 L 197.777344 272.578125 L 197.492188 272.066406 L 197.492188 271.113281 L 197.714844 269.816406 L 197.714844 269.1875 L 197.90625 268.296875 L 198.238281 267.773438 L 198.347656 267.378906 L 198.238281 267.089844 L 197.078125 265.570312 L 196.484375 264.496094 L 200.691406 263.449219 L 207.472656 262.09375 L 212.871094 261.015625 L 214.984375 260.632812 L 215.699219 261.53125 L 216.898438 263.339844 L 218.300781 265.496094 L 219.164062 267.03125 L 220.4375 269.449219 L 221.179688 271.234375 L 222.179688 274.070312 L 222.878906 276.0625 L 223.566406 278.226562 L 221.8125 277.917969 L 219.808594 277.78125 L 217.503906 277.785156 L 215.175781 277.355469 L 212.550781 278.238281 L 206.710938 283.457031 L 205.019531 283.710938 L 202.886719 283.207031 L 201.375 282.953125 L 200.382812 283.539062 L 200.371094 283.164062 L 200.367188 282.753906 L 200.035156 281.6875 L 198.648438 279.742188 Z M 198.382812 278.359375 "/>
<path style=" stroke:none;fill-rule:nonzero;fill:rgb(39.99939%,39.99939%,39.99939%);fill-opacity:0.3;" d="M 175.996094 243.886719 L 172.210938 242.027344 L 172.378906 240.179688 L 173.8125 240.554688 L 179.640625 241.875 L 184.859375 243.257812 L 189.734375 244.6875 L 192.507812 245.542969 L 195.171875 246.472656 L 197.542969 247.433594 L 199.902344 248.597656 L 201.875 249.726562 L 204.320312 251.214844 L 206.484375 252.710938 L 208.195312 253.9375 L 209.996094 255.433594 L 211.679688 256.894531 L 212.933594 258.171875 L 213.691406 259.058594 L 207.089844 260.355469 L 200.261719 261.722656 L 193.285156 263.453125 L 190.75 264.191406 L 189 264.855469 L 186.648438 265.875 L 183.179688 267.332031 L 181.269531 268.148438 L 179.15625 268.898438 L 177.097656 269.652344 L 175.410156 270.101562 L 174.101562 270.328125 L 172.417969 270.402344 L 170.394531 270.128906 L 169.234375 269.835938 L 169.851562 267.398438 L 173.375 266.464844 L 176.605469 265.164062 L 179.265625 264.058594 L 181.96875 259.902344 L 182.652344 254.476562 L 182.734375 250.871094 L 183.164062 247.15625 Z M 175.996094 243.886719 "/>
<path style=" stroke:none;fill-rule:nonzero;fill:rgb(39.99939%,39.99939%,39.99939%);fill-opacity:0.3;" d="M 126.566406 291.359375 L 115.886719 286.074219 L 106.917969 281.671875 L 108.828125 274.003906 L 110.742188 266.074219 L 111.820312 265.992188 L 115.257812 265.535156 L 120.792969 264.640625 L 125.28125 263.957031 L 128.753906 263.449219 L 131.582031 263 L 136.367188 262.242188 L 138.039062 262.058594 L 139.820312 262.003906 L 141.792969 262.171875 L 144.433594 262.597656 L 147.097656 263.226562 L 149.65625 263.921875 L 151.628906 264.542969 L 153.925781 265.433594 L 156.679688 266.726562 L 158.914062 267.914062 L 158.023438 269.742188 L 156.246094 271.554688 L 153.949219 274.828125 L 151.996094 277.238281 L 149.59375 279.195312 L 146.179688 282.074219 L 144.125 284.4375 L 130.265625 279.765625 L 129.847656 281.121094 Z M 126.566406 291.359375 "/>
<path style=" stroke:none;fill-rule:nonzero;fill:rgb(39.99939%,39.99939%,39.99939%);fill-opacity:0.3;" d="M 197.34375 267.445312 L 197.015625 267.96875 L 196.769531 269.097656 L 196.769531 269.746094 L 196.550781 271.042969 L 196.550781 272.292969 L 197.039062 273.164062 L 197.175781 273.269531 L 197.109375 274.976562 L 197.179688 276.429688 L 197.453125 278.496094 L 197.757812 280.085938 L 199.171875 282.074219 L 199.425781 282.886719 L 199.429688 283.183594 L 199.464844 284.292969 L 177.765625 307.9375 L 174.972656 308.570312 L 160.183594 303.230469 L 159.988281 303.863281 L 157 303.199219 L 152.820312 302.980469 L 149.078125 306.5 L 148.371094 306.542969 L 145.058594 304.890625 L 142.257812 303.636719 L 137.949219 301.953125 L 135.097656 299.109375 L 133.566406 297.792969 L 132.132812 295.496094 L 129.546875 293.945312 L 128.179688 292.335938 L 131.269531 281.390625 L 143.351562 285.480469 L 144.652344 285.9375 L 146.851562 283.527344 L 149.976562 280.472656 L 152.605469 278.289062 L 154.792969 275.695312 L 155.449219 274.894531 L 157.445312 272.460938 L 160.125 269.964844 L 161.679688 269.175781 L 164.242188 270.242188 L 167.917969 271.339844 L 170.023438 271.871094 L 172.328125 272.179688 L 174.3125 272.097656 L 175.832031 271.835938 L 177.6875 271.339844 L 179.820312 270.558594 L 181.980469 269.789062 L 183.9375 268.953125 L 187.414062 267.496094 L 189.734375 266.488281 L 191.371094 265.867188 L 193.792969 265.164062 L 195.546875 264.726562 L 196.273438 266.042969 Z M 197.34375 267.445312 "/>
<path style=" stroke:none;fill-rule:nonzero;fill:rgb(39.99939%,39.99939%,39.99939%);fill-opacity:0.3;" d="M 60.195312 133.269531 L 58.570312 139.269531 L 56.628906 125.082031 L 57.449219 126.9375 L 58.679688 129.808594 L 59.757812 132.410156 Z M 60.195312 133.269531 "/>
<path style=" stroke:none;fill-rule:nonzero;fill:rgb(39.99939%,39.99939%,39.99939%);fill-opacity:0.3;" d="M 51.742188 239.019531 L 51.601562 244.105469 L 51.429688 244.101562 Z M 51.742188 239.019531 "/>
<path style=" stroke:none;fill-rule:nonzero;fill:rgb(39.99939%,39.99939%,39.99939%);fill-opacity:0.3;" d="M 53.214844 245.464844 L 76.117188 246.179688 L 75.414062 262.515625 L 71.058594 262.140625 L 66.382812 261.757812 L 59.3125 261.253906 L 54.246094 260.8125 L 52.835938 260.6875 L 52.960938 251.25 Z M 53.214844 245.464844 "/>
<path style=" stroke:none;fill-rule:nonzero;fill:rgb(39.99939%,39.99939%,39.99939%);fill-opacity:0.3;" d="M 52.660156 262.570312 L 54.074219 262.582031 L 59.15625 263.023438 L 66.234375 263.527344 L 70.894531 263.90625 L 78.398438 264.554688 L 77.71875 273.964844 L 76.0625 277.042969 L 74.132812 279.542969 L 52.28125 278.855469 L 52.566406 270.523438 Z M 52.660156 262.570312 "/>
<path style=" stroke:none;fill-rule:nonzero;fill:rgb(39.99939%,39.99939%,39.99939%);fill-opacity:0.3;" d="M 80.105469 264.699219 L 89.277344 265.488281 L 97.203125 266.253906 L 100.84375 266.394531 L 103.75 266.507812 L 107.703125 266.296875 L 109.40625 266.171875 L 107.613281 273.683594 L 105.589844 281.269531 L 75.824219 279.632812 L 77.214844 277.722656 L 78.941406 274.238281 L 79.589844 270.480469 Z M 80.105469 264.699219 "/>
<path style=" stroke:none;fill-rule:nonzero;fill:rgb(39.99939%,39.99939%,39.99939%);fill-opacity:0.3;" d="M 52.15625 279.996094 L 73.949219 281.035156 L 74.164062 286.558594 L 72.832031 290.652344 L 70.515625 295.960938 L 51.566406 295.371094 L 52.078125 286.804688 Z M 52.15625 279.996094 "/>
<path style=" stroke:none;fill-rule:nonzero;fill:rgb(39.99939%,39.99939%,39.99939%);fill-opacity:0.3;" d="M -0.914062 295.15625 L 33.574219 296.054688 L 30.710938 323.941406 L -0.972656 323.425781 L 2.855469 307.292969 L 0.0273438 307.21875 Z M -0.914062 295.15625 "/>
<g clip-path="url(#clip1)" clip-rule="nonzero">
<path style=" stroke:none;fill-rule:nonzero;fill:rgb(39.99939%,39.99939%,39.99939%);fill-opacity:0.3;" d="M -6.375 357.972656 L -0.898438 358.011719 L -2.058594 373.863281 L -4.488281 373.820312 L -4.457031 374.703125 L -1.484375 374.699219 L -0.238281 358.03125 L 8.527344 358.363281 L 8.179688 375.503906 L 7.738281 382.324219 L -17.699219 375.617188 L -15.433594 373.375 L -14.265625 371.988281 L -9.441406 360.554688 L -7.988281 360.664062 Z M -6.375 357.972656 "/>
</g>
<path style=" stroke:none;fill-rule:nonzero;fill:rgb(39.99939%,39.99939%,39.99939%);fill-opacity:0.3;" d="M 2.804688 294.113281 L -1.003906 294.015625 L -1.007812 293.957031 Z M 2.804688 294.113281 "/>
<path style=" stroke:none;fill-rule:nonzero;fill:rgb(39.99939%,39.99939%,39.99939%);fill-opacity:0.3;" d="M 8.152344 324.738281 L 11.28125 324.804688 L 10.539062 336.269531 L 10.210938 339.558594 Z M 8.152344 324.738281 "/>
<path style=" stroke:none;fill-rule:nonzero;fill:rgb(39.99939%,39.99939%,39.99939%);fill-opacity:0.3;" d="M -10.25 324.390625 L 5.863281 324.6875 L 9.445312 342.238281 L 8.628906 357.304688 L -12.007812 356.265625 L -11.289062 340.027344 L -7.898438 340.082031 L -7.898438 339.6875 L -11.277344 339.574219 Z M -10.25 324.390625 "/>
<path style=" stroke:none;fill-rule:nonzero;fill:rgb(39.99939%,39.99939%,39.99939%);fill-opacity:0.3;" d="M -8.769531 294.953125 L -0.914062 295.15625 L 0.0273438 307.21875 L -8.816406 306.988281 Z M -8.769531 294.953125 "/>
<path style=" stroke:none;fill-rule:nonzero;fill:rgb(39.99939%,39.99939%,39.99939%);fill-opacity:0.3;" d="M 58.570312 139.269531 L 54.636719 153.785156 L 48.484375 132.988281 L 43.644531 115.480469 L 39.875 106.628906 L 34.785156 97.328125 L 27.484375 87.492188 L 26.164062 79.269531 L 26.164062 71.402344 L 26.347656 62.996094 L 27.449219 53.425781 L 28.476562 50.59375 L 30.085938 48.550781 L 32.25 54.710938 L 37.027344 68.707031 L 39.246094 75.40625 L 41.816406 82.949219 L 43.667969 88.722656 L 45.832031 94.792969 L 47.390625 99.378906 L 49.035156 104.375 L 51.15625 110.382812 L 52.773438 115.074219 L 54.226562 119.175781 L 55.71875 123.027344 L 56.628906 125.082031 Z M 58.570312 139.269531 "/>
<path style=" stroke:none;fill-rule:nonzero;fill:rgb(39.99939%,39.99939%,39.99939%);fill-opacity:0.3;" d="M 53.378906 155.039062 L 52.839844 160.222656 L 53.558594 182.378906 L 52.488281 212.078125 L 51.742188 239.019531 L 51.429688 244.101562 L 33.230469 243.609375 L 34.011719 228.4375 L 33.042969 218.65625 L 34.003906 206.1875 L 34.625 186.109375 L 33.929688 169.847656 L 34.273438 138.40625 L 33.492188 132.328125 L 31.582031 118.21875 L 29.242188 101.707031 L 27.9375 89.929688 L 33.464844 98.132812 L 38.179688 107.164062 L 42.136719 116.015625 L 45.707031 128.566406 Z M 53.378906 155.039062 "/>
<path style=" stroke:none;fill-rule:nonzero;fill:rgb(39.99939%,39.99939%,39.99939%);fill-opacity:0.3;" d="M 17.492188 193.34375 L 28.308594 179.707031 L 32.546875 174.203125 L 32.808594 186.277344 L 32.527344 206.1875 L 31.375 218.960938 L 32.40625 227.828125 L 31.945312 243.570312 L 14.882812 243.074219 Z M 17.492188 193.34375 "/>
<path style=" stroke:none;fill-rule:nonzero;fill:rgb(39.99939%,39.99939%,39.99939%);fill-opacity:0.3;" d="M -3.824219 227.214844 L -3.289062 225.546875 L -3.152344 221.640625 L 0.429688 215.648438 L 14.957031 196.570312 L 12.636719 260.417969 L -5.449219 260.363281 Z M -3.824219 227.214844 "/>
<path style=" stroke:none;fill-rule:nonzero;fill:rgb(39.99939%,39.99939%,39.99939%);fill-opacity:0.3;" d="M -6.109375 261.574219 L 13.496094 261.5 L 13.039062 276.972656 L -6.539062 276.726562 Z M -6.109375 261.574219 "/>
<path style=" stroke:none;fill-rule:nonzero;fill:rgb(39.99939%,39.99939%,39.99939%);fill-opacity:0.3;" d="M 33.152344 244.984375 L 51.097656 245.464844 L 50.972656 253.808594 L 50.789062 260.5 L 50.027344 260.433594 L 45.578125 260.171875 L 40.359375 259.914062 L 35.871094 259.859375 L 32.304688 259.757812 L 32.71875 252.597656 Z M 33.152344 244.984375 "/>
<path style=" stroke:none;fill-rule:nonzero;fill:rgb(39.99939%,39.99939%,39.99939%);fill-opacity:0.3;" d="M 15.601562 262.191406 L 16.839844 262.15625 L 21.066406 261.84375 L 26.324219 261.515625 L 29.550781 261.453125 L 30.910156 261.492188 L 30.558594 277.621094 L 15.140625 277.027344 Z M 15.601562 262.191406 "/>
<path style=" stroke:none;fill-rule:nonzero;fill:rgb(39.99939%,39.99939%,39.99939%);fill-opacity:0.3;" d="M 32.070312 261.527344 L 35.832031 261.636719 L 40.300781 261.6875 L 45.472656 261.941406 L 49.878906 262.203125 L 51.332031 262.332031 L 50.992188 278.773438 L 31.558594 277.621094 Z M 32.070312 261.527344 "/>
<path style=" stroke:none;fill-rule:nonzero;fill:rgb(39.99939%,39.99939%,39.99939%);fill-opacity:0.3;" d="M -7.015625 278.109375 L 12.710938 278.539062 L 12.347656 294.363281 L 2.804688 294.113281 L -1.007812 293.957031 L -1.003906 294.015625 L -8.164062 293.828125 Z M -7.015625 278.109375 "/>
<path style=" stroke:none;fill-rule:nonzero;fill:rgb(39.99939%,39.99939%,39.99939%);fill-opacity:0.3;" d="M 15.171875 278.464844 L 30.289062 279.082031 L 29.792969 294.792969 L 14.515625 294.382812 Z M 15.171875 278.464844 "/>
<path style=" stroke:none;fill-rule:nonzero;fill:rgb(39.99939%,39.99939%,39.99939%);fill-opacity:0.3;" d="M 31.828125 278.894531 L 50.96875 279.933594 L 51.074219 286.671875 L 50.625 295.367188 L 31.179688 294.8125 Z M 31.828125 278.894531 "/>
<path style=" stroke:none;fill-rule:nonzero;fill:rgb(39.99939%,39.99939%,39.99939%);fill-opacity:0.3;" d="M 14.800781 244.367188 L 31.871094 244.863281 L 31.023438 259.722656 L 29.558594 259.679688 L 26.242188 259.742188 L 20.933594 260.074219 L 16.742188 260.382812 L 14.359375 260.445312 Z M 14.800781 244.367188 "/>
<path style=" stroke:none;fill-rule:nonzero;fill:rgb(39.99939%,39.99939%,39.99939%);fill-opacity:0.3;" d="M -35.570312 80.65625 L -37.300781 80.414062 L -39.230469 80.273438 L -41.152344 80.128906 L -43.539062 80.09375 L -45.25 80.128906 L -47.3125 80.289062 L -49.15625 80.515625 L -50.769531 80.820312 L -52.792969 81.359375 L -52.90625 81.398438 L -45.636719 71.847656 L -41.921875 70.125 L -34.628906 66.613281 L -28.980469 64.046875 L -24.59375 59.9375 L -22.070312 55.714844 L -20.742188 50.3125 L -19.660156 43.179688 L -19.425781 37.414062 L -9.800781 24.769531 L 22.1875 76.550781 L 26.027344 90.257812 L 28.195312 107.503906 L 32.457031 136.578125 L 31.859375 170.886719 L 30.738281 174.421875 L 14.53125 193.453125 L -3.449219 217.691406 L -3.636719 217.753906 L -3.925781 217.773438 L -4.214844 217.730469 L -4.902344 217.542969 L -5.628906 217.296875 L -6.609375 216.964844 L -7.453125 216.765625 L -8.246094 216.589844 L -8.925781 216.476562 L -9.789062 216.457031 L -10.898438 216.460938 L -12.011719 216.367188 L -13.765625 215.8125 L -14.773438 215.257812 L -15.675781 214.09375 L -16.015625 213.316406 L -16.113281 212.804688 L -16.121094 212.199219 L -16.039062 211.582031 L -15.898438 210.890625 L -15.679688 210.253906 L -15.359375 209.546875 L -14.980469 209 L -14.464844 208.324219 L -13.878906 207.71875 L -10.820312 204.78125 L -6.378906 200.152344 L -2.664062 195.65625 L 2.027344 189.769531 L 5.042969 186.015625 L 6.910156 183.421875 L 8.714844 180.851562 L 10.605469 177.722656 L 12.121094 175.058594 L 13.398438 172.730469 L 15.066406 169.113281 L 15.835938 167.164062 L 16.671875 164.769531 L 17.164062 162.800781 L 17.441406 160.683594 L 17.5 157.171875 L 17.238281 154.320312 L 16.84375 150.894531 L 16.378906 148.078125 L 15.734375 145.402344 L 15.339844 143.222656 L 15.148438 141.09375 L 15.03125 138.34375 L 15.148438 136.1875 L 15.316406 134.296875 L 15.410156 131.324219 L 15.34375 128.132812 L 15.078125 125.488281 L 14.609375 122.988281 L 14.066406 121.25 L 13.316406 119.628906 L 12.011719 117.691406 L 10.746094 116.605469 L 9.152344 115.59375 L 8.078125 114.816406 L 6.804688 113.726562 L 5.859375 112.832031 L 4.695312 111.460938 L 2.554688 108.816406 L 1.132812 106.601562 L -0.0703125 104.019531 L -1.460938 101.695312 L -2.777344 99.632812 L -4.023438 97.890625 L -5.539062 95.703125 L -7.238281 93.75 L -9.136719 92.140625 L -10.882812 91.09375 L -12.257812 90.480469 L -14.007812 89.894531 L -15.789062 89.347656 L -17.328125 88.945312 L -18.667969 88.695312 L -19.980469 88.503906 L -21.175781 88.222656 L -22.425781 87.65625 L -23.75 86.699219 L -25.644531 85.378906 L -27.503906 84.15625 L -29.21875 83.199219 L -30.761719 82.324219 L -32.386719 81.589844 L -34.011719 81.039062 Z M -35.570312 80.65625 "/>
<path style=" stroke:none;fill-rule:nonzero;fill:rgb(39.99939%,39.99939%,39.99939%);fill-opacity:0.3;" d="M 12.792969 -0.574219 L 13.488281 0.65625 L 14.230469 3.101562 L 15.542969 6.648438 L 17.363281 11.457031 L 20.410156 20.222656 L 22.417969 25.933594 L 24.355469 32.0625 L 26.207031 37.15625 L 26.726562 46.296875 L 25.804688 56.839844 L 24.960938 63.375 L 24.617188 68 L 24.375 75.957031 L -8.296875 22.832031 Z M 12.792969 -0.574219 "/>
<g clip-path="url(#clip2)" clip-rule="nonzero">
<path style=" stroke:none;fill-rule:nonzero;fill:rgb(39.99939%,39.99939%,39.99939%);fill-opacity:0.3;" d="M 60.109375 310.691406 L 62.699219 307.796875 L 65.179688 305 L 67.398438 302.503906 L 68.992188 300.363281 L 71.304688 297.347656 L 75.960938 298.683594 L 89.710938 301.964844 L 94.355469 304.652344 L 95.78125 305.9375 L 94.496094 313.160156 L 91.550781 322.855469 L 90.300781 326.222656 L 87.933594 332.6875 L 86.753906 339.378906 L 85.15625 344.316406 L 82.757812 348.683594 L 80.15625 354 L 77.15625 358.371094 L 75.285156 362.210938 L 72.734375 365.921875 L 70.101562 370.359375 L 68.316406 373.347656 L 65.765625 376.414062 L 60.984375 381.625 L 57.613281 385.621094 L 54.984375 386.453125 L 49.011719 384.492188 L 46.214844 383.53125 L 39.144531 381.269531 L 39.378906 378.40625 L 44.976562 373.65625 L 49.941406 367.910156 L 49.511719 367.664062 L 49.082031 367.421875 L 44.234375 373.058594 L 39.609375 377.234375 L 42.628906 369.648438 L 43.730469 360.402344 L 47.070312 343.574219 L 48.976562 327.746094 L 53.941406 328.171875 L 53.320312 330.78125 L 55.761719 336.621094 L 56.21875 336.402344 L 56.679688 336.183594 L 54.394531 330.609375 L 54.929688 328.566406 L 57.878906 329.183594 L 72.121094 333.570312 L 71.261719 335.488281 L 69.765625 337.964844 L 67.644531 340.808594 L 64.308594 344.097656 L 61.339844 346.121094 L 61.746094 346.566406 L 62.15625 347.015625 L 65 345.117188 L 68.492188 341.953125 L 70.761719 338.976562 L 72.660156 335.917969 L 74.222656 332.863281 L 76.605469 328.84375 L 78.242188 326.078125 L 80.789062 323.3125 L 82.9375 320.335938 L 83.429688 316.71875 L 82.746094 316.476562 L 82.0625 316.230469 L 81.523438 319.34375 L 77.097656 317.945312 L 76.976562 318.441406 L 76.851562 318.9375 L 81.035156 320.453125 L 78.425781 323.316406 L 76.785156 325.386719 L 75.148438 327.980469 L 72.300781 332.351562 L 55.332031 327.199219 L 56.058594 323.148438 L 56.855469 318.175781 L 58.339844 313.988281 L 59.011719 312.78125 Z M 60.109375 310.691406 "/>
</g>
<path style=" stroke:none;fill-rule:nonzero;fill:rgb(39.99939%,39.99939%,39.99939%);fill-opacity:0.3;" d="M 125.855469 293.195312 L 128.414062 297.628906 L 127.226562 301.875 L 127.722656 302.003906 L 128.214844 302.132812 L 129.691406 298.234375 L 134.414062 302.457031 L 133.101562 306.03125 L 134.40625 306.445312 L 135.511719 303.082031 L 136.375 303.507812 L 136.535156 303.859375 L 139.175781 304.960938 L 139.5 305.050781 L 145.679688 308.097656 L 146.878906 321.683594 L 131.914062 326.964844 L 126.621094 335.160156 L 125.828125 332.964844 L 120.578125 331.761719 L 110.996094 330.042969 L 91.71875 326.640625 L 93.238281 321.601562 L 118.542969 328.566406 L 118.628906 327.816406 L 93.484375 321.066406 L 94.449219 318.082031 L 104.785156 320.3125 L 104.855469 319.941406 L 104.929688 319.566406 L 94.773438 317.320312 L 95.699219 314.222656 L 115.9375 318.644531 L 116.027344 318.339844 L 116.121094 318.03125 L 95.738281 313.09375 L 96.667969 306.726562 L 97.121094 306.390625 L 97.78125 306.4375 L 99.042969 307.253906 L 100.578125 308.226562 L 103.597656 309.269531 L 107.691406 309.984375 L 110.828125 310.273438 L 111.839844 309.988281 L 115.457031 308.0625 L 115.191406 307.777344 L 114.921875 307.488281 L 110.726562 309.363281 L 108.25 309.265625 L 104.101562 308.519531 L 101.476562 307.585938 L 100.542969 307.199219 L 98.226562 305.777344 L 97.390625 305.183594 L 95.148438 303.789062 L 90.613281 300.765625 L 92.507812 299.195312 L 93.609375 297.277344 L 94.125 295.976562 L 103.742188 295.71875 L 107.5625 283.832031 L 115.351562 287.71875 Z M 125.855469 293.195312 "/>
<g clip-path="url(#clip3)" clip-rule="nonzero">
<path style=" stroke:none;fill-rule:nonzero;fill:rgb(39.99939%,39.99939%,39.99939%);fill-opacity:0.3;" d="M 117.195312 374.089844 L 117.011719 372.539062 L 115.625 370.605469 L 110.824219 369.851562 L 110.125 369.660156 L 109.269531 369.605469 L 103.808594 368.75 L 98.429688 368.546875 L 96.261719 367.679688 L 95.914062 368.65625 L 95.65625 368.675781 L 94.191406 370.609375 L 84.511719 369.226562 L 73.828125 367.773438 L 75.441406 364.460938 L 79.226562 358.734375 L 81.609375 354.738281 L 84.554688 349.28125 L 86.65625 345.019531 L 88.199219 339.558594 L 89.457031 333.300781 L 91.445312 327.320312 L 110.929688 330.753906 L 120.367188 332.648438 L 125.226562 333.738281 L 126.039062 335.769531 L 126.332031 335.605469 L 125.089844 337.53125 L 122.007812 344.351562 L 120.910156 349.632812 L 120.6875 356.015625 Z M 117.195312 374.089844 "/>
</g>
<path style=" stroke:none;fill-rule:nonzero;fill:rgb(39.99939%,39.99939%,39.99939%);fill-opacity:0.3;" d="M 93.058594 296.003906 L 92.753906 296.929688 L 89.1875 300.710938 L 86.980469 300.539062 L 83.085938 299.511719 L 72.589844 296.648438 L 72.621094 296.550781 Z M 93.058594 296.003906 "/>
<path style=" stroke:none;fill-rule:nonzero;fill:rgb(39.99939%,39.99939%,39.99939%);fill-opacity:0.3;" d="M 51.644531 296.597656 L 69.773438 296.996094 L 67.386719 300.484375 L 64.976562 303.15625 L 62.300781 305.84375 L 59.625 308.773438 L 58.027344 311.027344 L 57.25 312.75 L 56.277344 315.285156 L 55.441406 318.566406 L 54.597656 322.84375 L 54.046875 327.003906 L 49.179688 326.539062 L 49.570312 321.703125 Z M 51.644531 296.597656 "/>
<path style=" stroke:none;fill-rule:nonzero;fill:rgb(39.99939%,39.99939%,39.99939%);fill-opacity:0.3;" d="M 34.597656 309.015625 L 49.492188 309.402344 L 48.707031 319.027344 L 48.1875 325.613281 L 45.722656 343.359375 L 42.847656 358.65625 L 29.605469 358.066406 L 30.742188 336.332031 Z M 34.597656 309.015625 "/>
<g clip-path="url(#clip4)" clip-rule="nonzero">
<path style=" stroke:none;fill-rule:nonzero;fill:rgb(39.99939%,39.99939%,39.99939%);fill-opacity:0.3;" d="M 10.746094 358.671875 L 28.855469 359.363281 L 28.59375 373.78125 L 16.925781 373.527344 L 10.035156 373.238281 Z M 10.746094 358.671875 "/>
</g>
<path style=" stroke:none;fill-rule:nonzero;fill:rgb(39.99939%,39.99939%,39.99939%);fill-opacity:0.3;" d="M 11.707031 342.019531 L 29.089844 342.535156 L 28.390625 358.085938 L 10.761719 357.386719 L 11.179688 349.125 L 14 349.207031 L 14.039062 348.15625 L 14.082031 347.109375 L 11.332031 346.839844 Z M 11.707031 342.019531 "/>
<path style=" stroke:none;fill-rule:nonzero;fill:rgb(39.99939%,39.99939%,39.99939%);fill-opacity:0.3;" d="M 133.566406 297.792969 L 130.765625 295.378906 L 129.546875 293.945312 L 132.132812 295.496094 Z M 133.566406 297.792969 "/>
<path style=" stroke:none;fill-rule:nonzero;fill:rgb(39.99939%,39.99939%,39.99939%);fill-opacity:0.3;" d="M 35.78125 296.113281 L 50.597656 296.574219 L 49.566406 308.507812 L 34.730469 308.125 Z M 35.78125 296.113281 "/>
<g clip-path="url(#clip5)" clip-rule="nonzero">
<path style=" stroke:none;fill-rule:nonzero;fill:rgb(39.99939%,39.99939%,39.99939%);fill-opacity:0.3;" d="M 29.695312 359.394531 L 42.683594 359.910156 L 41.355469 369.246094 L 39.28125 374.898438 L 37.960938 378.253906 L 37.15625 378.597656 L 36.746094 378.179688 L 33.320312 372.960938 L 29.800781 373.996094 L 29.496094 373.960938 Z M 29.695312 359.394531 "/>
</g>
<path style=" stroke:none;fill-rule:nonzero;fill:rgb(39.99939%,39.99939%,39.99939%);fill-opacity:0.3;" d="M 12.976562 325.082031 L 30.804688 325.714844 L 29.175781 341.332031 L 11.753906 340.816406 Z M 12.976562 325.082031 "/>
<path style=" stroke:none;fill-rule:nonzero;fill:rgb(39.99939%,39.99939%,39.99939%);fill-opacity:0.3;" d="M 10.539062 336.269531 L 10.289062 340.125 L 10.210938 339.558594 Z M 10.539062 336.269531 "/>
<path style="fill-rule:nonzero;fill:rgb(39.99939%,39.99939%,39.99939%);fill-opacity:1;stroke-width:0.03;stroke-linecap:square;stroke-linejoin:miter;stroke:rgb(39.99939%,39.99939%,39.99939%);stroke-opacity:1;stroke-miterlimit:3.239307;" d="M 381.382812 285.378906 L 380.445312 284.898438 L 379.402344 284.429688 L 378.34375 284.007812 L 377.183594 283.609375 L 374.453125 283.433594 L 374.5625 282.273438 L 376.554688 281.464844 L 378.152344 281.742188 L 380.042969 282.332031 L 380.722656 278.296875 L 382.570312 278.246094 Z M 381.382812 285.378906 " transform="matrix(1,0,0,1,-74,-13)"/>
<path style="fill-rule:nonzero;fill:rgb(39.99939%,39.99939%,39.99939%);fill-opacity:1;stroke-width:0.03;stroke-linecap:square;stroke-linejoin:miter;stroke:rgb(39.99939%,39.99939%,39.99939%);stroke-opacity:1;stroke-miterlimit:3.239307;" d="M 183.269531 235.199219 L 181.09375 235.277344 L 178.515625 236.039062 L 176.179688 238.027344 L 174.410156 240.324219 L 173.363281 241.929688 L 171.75 242.3125 L 152.898438 230.617188 L 150.796875 243.53125 L 150.167969 258.042969 L 143.84375 257.8125 L 144.277344 253.410156 L 143.96875 253.378906 L 143.664062 253.351562 L 143.199219 257.789062 L 127.269531 257.210938 L 127.804688 240.082031 L 128.472656 224.941406 L 129.257812 195.292969 L 128.722656 173.5625 L 135.515625 148.773438 L 137.589844 152.59375 L 139.640625 156.328125 L 141.199219 159.28125 L 143.421875 163.496094 L 145.625 167.523438 L 147.046875 170.3125 L 150.007812 175.625 L 152.554688 180.292969 L 155.585938 185.894531 L 157.242188 189.136719 L 159.09375 192.515625 L 160.757812 195.960938 L 162.761719 199.371094 L 164.453125 202.429688 L 166.613281 206.144531 L 168.453125 208.859375 L 170.367188 211.378906 L 172.8125 214.511719 L 175.472656 217.511719 L 178.371094 220.496094 L 182.316406 224.394531 L 186.972656 229.066406 L 187.8125 232.164062 L 186.699219 233.960938 L 185.050781 235.027344 Z M 183.269531 235.199219 " transform="matrix(1,0,0,1,-74,-13)"/>
<path style="fill-rule:nonzero;fill:rgb(39.99939%,39.99939%,39.99939%);fill-opacity:1;stroke-width:0.03;stroke-linecap:square;stroke-linejoin:miter;stroke:rgb(39.99939%,39.99939%,39.99939%);stroke-opacity:1;stroke-miterlimit:3.239307;" d="M 171.832031 243.839844 L 173.765625 243.304688 L 175.457031 241.011719 L 176.90625 238.71875 L 179.113281 236.867188 L 181.175781 236.222656 L 183.300781 236.285156 L 186.175781 236.089844 L 187.671875 234.597656 L 190.011719 232.082031 L 190.800781 232.859375 L 192.394531 234.433594 L 191.578125 237.597656 L 192.425781 237.832031 L 192.457031 238.71875 L 194.152344 239.054688 L 193.933594 241.21875 L 189.941406 241.308594 L 189.894531 241.640625 L 189.84375 241.976562 L 190.683594 241.972656 L 194.125 242.148438 L 195.113281 242.875 L 195.113281 243.578125 L 199.976562 243.523438 L 200.050781 243.054688 L 200.125 242.589844 L 195.796875 242.382812 L 195.867188 239.628906 L 194.507812 238.40625 L 193.25 238.117188 L 193.605469 235.484375 L 195.226562 236.773438 L 197 238.054688 L 198.75 239.1875 L 200.195312 239.953125 L 202.097656 240.957031 L 205.074219 242.167969 L 210.613281 243.871094 L 215.105469 245.042969 L 221.34375 246.683594 L 229.65625 248.746094 L 241.222656 251.835938 L 245.152344 252.832031 L 244.875 255.390625 L 242.511719 257.984375 L 240.023438 258.953125 L 237.988281 258.933594 L 235.609375 258.835938 L 235.570312 259.316406 L 235.535156 259.796875 L 240.070312 259.921875 L 243.085938 258.742188 L 245.410156 256.039062 L 248.480469 257.324219 L 256.328125 261.054688 L 255.949219 263.636719 L 255.757812 267.363281 L 255.230469 272.597656 L 252.679688 276.230469 L 250.085938 277.535156 L 247.199219 278.671875 L 244.863281 279.117188 L 243.066406 279.558594 L 242.0625 281.902344 L 240.792969 282.140625 L 238.898438 281.578125 L 235.035156 279.863281 L 236.347656 275.648438 L 235.699219 275.460938 L 234.21875 279.4375 L 228.691406 276.8125 L 226.277344 275.878906 L 224.207031 275.226562 L 221.582031 274.511719 L 218.816406 273.859375 L 216.035156 273.410156 L 213.875 273.226562 L 211.902344 273.289062 L 210.105469 273.484375 L 207.476562 273.902344 L 208.09375 262.726562 L 202.339844 261.523438 L 202.714844 258.6875 L 201.816406 258.617188 L 200.921875 258.546875 L 200.546875 262.445312 L 206.671875 263.792969 L 206.175781 274.105469 L 205.273438 274.25 L 202.457031 274.695312 L 198.988281 275.203125 L 194.488281 275.890625 L 188.96875 276.78125 L 185.617188 277.226562 L 181.578125 277.527344 L 177.738281 277.730469 L 174.917969 277.621094 L 171.335938 277.480469 L 163.457031 276.722656 L 150.574219 275.613281 L 151.945312 243.492188 L 153.5 232.429688 Z M 171.832031 243.839844 " transform="matrix(1,0,0,1,-74,-13)"/>
<path style="fill-rule:nonzero;fill:rgb(39.99939%,39.99939%,39.99939%);fill-opacity:1;stroke-width:0.03;stroke-linecap:square;stroke-linejoin:miter;stroke:rgb(39.99939%,39.99939%,39.99939%);stroke-opacity:1;stroke-miterlimit:3.239307;" d="M 210.375 316.507812 L 213.5 318.050781 L 213.175781 317.960938 L 210.535156 316.859375 Z M 210.375 316.507812 " transform="matrix(1,0,0,1,-74,-13)"/>
<path style="fill-rule:nonzero;fill:rgb(39.99939%,39.99939%,39.99939%);fill-opacity:1;stroke-width:0.03;stroke-linecap:square;stroke-linejoin:miter;stroke:rgb(39.99939%,39.99939%,39.99939%);stroke-opacity:1;stroke-miterlimit:3.239307;" d="M 168.125 308.976562 L 168.390625 308.304688 L 169.308594 305.574219 L 169.8125 303.125 L 170.914062 300.628906 L 170.484375 300.570312 L 170.058594 300.511719 L 168.957031 302.953125 L 168.34375 305.683594 L 167.285156 308.320312 L 167.058594 309.003906 L 146.621094 309.550781 L 148.433594 304.078125 L 149.742188 299.515625 L 150.125 294.15625 L 158.136719 294.648438 L 179.4375 295.769531 L 181.5625 296.832031 L 177.742188 308.71875 Z M 168.125 308.976562 " transform="matrix(1,0,0,1,-74,-13)"/>
<path style="fill-rule:nonzero;fill:rgb(39.99939%,39.99939%,39.99939%);fill-opacity:1;stroke-width:0.03;stroke-linecap:square;stroke-linejoin:miter;stroke:rgb(39.99939%,39.99939%,39.99939%);stroke-opacity:1;stroke-miterlimit:3.239307;" d="M 272.382812 291.359375 L 272.117188 289.351562 L 272.050781 287.972656 L 272.136719 285.851562 L 271.777344 285.578125 L 271.492188 285.066406 L 271.492188 284.113281 L 271.714844 282.816406 L 271.714844 282.1875 L 271.90625 281.296875 L 272.238281 280.773438 L 272.347656 280.378906 L 272.238281 280.089844 L 271.078125 278.570312 L 270.484375 277.496094 L 274.691406 276.449219 L 281.472656 275.09375 L 286.871094 274.015625 L 288.984375 273.632812 L 289.699219 274.53125 L 290.898438 276.339844 L 292.300781 278.496094 L 293.164062 280.03125 L 294.4375 282.449219 L 295.179688 284.234375 L 296.179688 287.070312 L 296.878906 289.0625 L 297.566406 291.226562 L 295.8125 290.917969 L 293.808594 290.78125 L 291.503906 290.785156 L 289.175781 290.355469 L 286.550781 291.238281 L 280.710938 296.457031 L 279.019531 296.710938 L 276.886719 296.207031 L 275.375 295.953125 L 274.382812 296.539062 L 274.371094 296.164062 L 274.367188 295.753906 L 274.035156 294.6875 L 272.648438 292.742188 Z M 272.382812 291.359375 " transform="matrix(1,0,0,1,-74,-13)"/>
<path style="fill-rule:nonzero;fill:rgb(39.99939%,39.99939%,39.99939%);fill-opacity:1;stroke-width:0.03;stroke-linecap:square;stroke-linejoin:miter;stroke:rgb(39.99939%,39.99939%,39.99939%);stroke-opacity:1;stroke-miterlimit:3.239307;" d="M 249.996094 256.886719 L 246.210938 255.027344 L 246.378906 253.179688 L 247.8125 253.554688 L 253.640625 254.875 L 258.859375 256.257812 L 263.734375 257.6875 L 266.507812 258.542969 L 269.171875 259.472656 L 271.542969 260.433594 L 273.902344 261.597656 L 275.875 262.726562 L 278.320312 264.214844 L 280.484375 265.710938 L 282.195312 266.9375 L 283.996094 268.433594 L 285.679688 269.894531 L 286.933594 271.171875 L 287.691406 272.058594 L 281.089844 273.355469 L 274.261719 274.722656 L 267.285156 276.453125 L 264.75 277.191406 L 263 277.855469 L 260.648438 278.875 L 257.179688 280.332031 L 255.269531 281.148438 L 253.15625 281.898438 L 251.097656 282.652344 L 249.410156 283.101562 L 248.101562 283.328125 L 246.417969 283.402344 L 244.394531 283.128906 L 243.234375 282.835938 L 243.851562 280.398438 L 247.375 279.464844 L 250.605469 278.164062 L 253.265625 277.058594 L 255.96875 272.902344 L 256.652344 267.476562 L 256.734375 263.871094 L 257.164062 260.15625 Z M 249.996094 256.886719 " transform="matrix(1,0,0,1,-74,-13)"/>
<path style="fill-rule:nonzero;fill:rgb(39.99939%,39.99939%,39.99939%);fill-opacity:1;stroke-width:0.03;stroke-linecap:square;stroke-linejoin:miter;stroke:rgb(39.99939%,39.99939%,39.99939%);stroke-opacity:1;stroke-miterlimit:3.239307;" d="M 200.566406 304.359375 L 189.886719 299.074219 L 180.917969 294.671875 L 182.828125 287.003906 L 184.742188 279.074219 L 185.820312 278.992188 L 189.257812 278.535156 L 194.792969 277.640625 L 199.28125 276.957031 L 202.753906 276.449219 L 205.582031 276 L 210.367188 275.242188 L 212.039062 275.058594 L 213.820312 275.003906 L 215.792969 275.171875 L 218.433594 275.597656 L 221.097656 276.226562 L 223.65625 276.921875 L 225.628906 277.542969 L 227.925781 278.433594 L 230.679688 279.726562 L 232.914062 280.914062 L 232.023438 282.742188 L 230.246094 284.554688 L 227.949219 287.828125 L 225.996094 290.238281 L 223.59375 292.195312 L 220.179688 295.074219 L 218.125 297.4375 L 204.265625 292.765625 L 203.847656 294.121094 Z M 200.566406 304.359375 " transform="matrix(1,0,0,1,-74,-13)"/>
<path style="fill-rule:nonzero;fill:rgb(39.99939%,39.99939%,39.99939%);fill-opacity:1;stroke-width:0.03;stroke-linecap:square;stroke-linejoin:miter;stroke:rgb(39.99939%,39.99939%,39.99939%);stroke-opacity:1;stroke-miterlimit:3.239307;" d="M 271.34375 280.445312 L 271.015625 280.96875 L 270.769531 282.097656 L 270.769531 282.746094 L 270.550781 284.042969 L 270.550781 285.292969 L 271.039062 286.164062 L 271.175781 286.269531 L 271.109375 287.976562 L 271.179688 289.429688 L 271.453125 291.496094 L 271.757812 293.085938 L 273.171875 295.074219 L 273.425781 295.886719 L 273.429688 296.183594 L 273.464844 297.292969 L 251.765625 320.9375 L 248.972656 321.570312 L 234.183594 316.230469 L 233.988281 316.863281 L 231 316.199219 L 226.820312 315.980469 L 223.078125 319.5 L 222.371094 319.542969 L 219.058594 317.890625 L 216.257812 316.636719 L 211.949219 314.953125 L 209.097656 312.109375 L 207.566406 310.792969 L 206.132812 308.496094 L 203.546875 306.945312 L 202.179688 305.335938 L 205.269531 294.390625 L 217.351562 298.480469 L 218.652344 298.9375 L 220.851562 296.527344 L 223.976562 293.472656 L 226.605469 291.289062 L 228.792969 288.695312 L 229.449219 287.894531 L 231.445312 285.460938 L 234.125 282.964844 L 235.679688 282.175781 L 238.242188 283.242188 L 241.917969 284.339844 L 244.023438 284.871094 L 246.328125 285.179688 L 248.3125 285.097656 L 249.832031 284.835938 L 251.6875 284.339844 L 253.820312 283.558594 L 255.980469 282.789062 L 257.9375 281.953125 L 261.414062 280.496094 L 263.734375 279.488281 L 265.371094 278.867188 L 267.792969 278.164062 L 269.546875 277.726562 L 270.273438 279.042969 Z M 271.34375 280.445312 " transform="matrix(1,0,0,1,-74,-13)"/>
<path style="fill-rule:nonzero;fill:rgb(39.99939%,39.99939%,39.99939%);fill-opacity:1;stroke-width:0.03;stroke-linecap:square;stroke-linejoin:miter;stroke:rgb(39.99939%,39.99939%,39.99939%);stroke-opacity:1;stroke-miterlimit:3.239307;" d="M 134.195312 146.269531 L 132.570312 152.269531 L 130.628906 138.082031 L 131.449219 139.9375 L 132.679688 142.808594 L 133.757812 145.410156 Z M 134.195312 146.269531 " transform="matrix(1,0,0,1,-74,-13)"/>
<path style="fill-rule:nonzero;fill:rgb(39.99939%,39.99939%,39.99939%);fill-opacity:1;stroke-width:0.03;stroke-linecap:square;stroke-linejoin:miter;stroke:rgb(39.99939%,39.99939%,39.99939%);stroke-opacity:1;stroke-miterlimit:3.239307;" d="M 125.742188 252.019531 L 125.601562 257.105469 L 125.429688 257.101562 Z M 125.742188 252.019531 " transform="matrix(1,0,0,1,-74,-13)"/>
<path style="fill-rule:nonzero;fill:rgb(39.99939%,39.99939%,39.99939%);fill-opacity:1;stroke-width:0.03;stroke-linecap:square;stroke-linejoin:miter;stroke:rgb(39.99939%,39.99939%,39.99939%);stroke-opacity:1;stroke-miterlimit:3.239307;" d="M 127.214844 258.464844 L 150.117188 259.179688 L 149.414062 275.515625 L 145.058594 275.140625 L 140.382812 274.757812 L 133.3125 274.253906 L 128.246094 273.8125 L 126.835938 273.6875 L 126.960938 264.25 Z M 127.214844 258.464844 " transform="matrix(1,0,0,1,-74,-13)"/>
<path style="fill-rule:nonzero;fill:rgb(39.99939%,39.99939%,39.99939%);fill-opacity:1;stroke-width:0.03;stroke-linecap:square;stroke-linejoin:miter;stroke:rgb(39.99939%,39.99939%,39.99939%);stroke-opacity:1;stroke-miterlimit:3.239307;" d="M 126.660156 275.570312 L 128.074219 275.582031 L 133.15625 276.023438 L 140.234375 276.527344 L 144.894531 276.90625 L 152.398438 277.554688 L 151.71875 286.964844 L 150.0625 290.042969 L 148.132812 292.542969 L 126.28125 291.855469 L 126.566406 283.523438 Z M 126.660156 275.570312 " transform="matrix(1,0,0,1,-74,-13)"/>
<path style="fill-rule:nonzero;fill:rgb(39.99939%,39.99939%,39.99939%);fill-opacity:1;stroke-width:0.03;stroke-linecap:square;stroke-linejoin:miter;stroke:rgb(39.99939%,39.99939%,39.99939%);stroke-opacity:1;stroke-miterlimit:3.239307;" d="M 154.105469 277.699219 L 163.277344 278.488281 L 171.203125 279.253906 L 174.84375 279.394531 L 177.75 279.507812 L 181.703125 279.296875 L 183.40625 279.171875 L 181.613281 286.683594 L 179.589844 294.269531 L 149.824219 292.632812 L 151.214844 290.722656 L 152.941406 287.238281 L 153.589844 283.480469 Z M 154.105469 277.699219 " transform="matrix(1,0,0,1,-74,-13)"/>
<path style="fill-rule:nonzero;fill:rgb(39.99939%,39.99939%,39.99939%);fill-opacity:1;stroke-width:0.03;stroke-linecap:square;stroke-linejoin:miter;stroke:rgb(39.99939%,39.99939%,39.99939%);stroke-opacity:1;stroke-miterlimit:3.239307;" d="M 126.15625 292.996094 L 147.949219 294.035156 L 148.164062 299.558594 L 146.832031 303.652344 L 144.515625 308.960938 L 125.566406 308.371094 L 126.078125 299.804688 Z M 126.15625 292.996094 " transform="matrix(1,0,0,1,-74,-13)"/>
</g>
</svg>
