<?xml version="1.0" encoding="UTF-8"?>
<svg xmlns="http://www.w3.org/2000/svg" xmlns:xlink="http://www.w3.org/1999/xlink" width="361pt" height="361pt" viewBox="0 0 361 361" version="1.1">
<defs>
<clipPath id="clip1">
  <path d="M 147 357 L 190 357 L 190 360 L 147 360 Z M 147 357 "/>
</clipPath>
<clipPath id="clip2">
  <path d="M 0 278 L 31 278 L 31 360 L 0 360 Z M 0 278 "/>
</clipPath>
<clipPath id="clip3">
  <path d="M 41 344 L 70 344 L 70 360 L 41 360 Z M 41 344 "/>
</clipPath>
<clipPath id="clip4">
  <path d="M 80 350 L 108 350 L 108 360 L 80 360 Z M 80 350 "/>
</clipPath>
<clipPath id="clip5">
  <path d="M 106 353 L 148 353 L 148 360 L 106 360 Z M 106 353 "/>
</clipPath>
<clipPath id="clip6">
  <path d="M 151 319 L 251 319 L 251 360 L 151 360 Z M 151 319 "/>
</clipPath>
<clipPath id="clip7">
  <path d="M 270 338 L 321 338 L 321 360 L 270 360 Z M 270 338 "/>
</clipPath>
<clipPath id="clip8">
  <path d="M 350 352 L 360 352 L 360 360 L 350 360 Z M 350 352 "/>
</clipPath>
<clipPath id="clip9">
  <path d="M 314 345 L 353 345 L 353 360 L 314 360 Z M 314 345 "/>
</clipPath>
<clipPath id="clip10">
  <path d="M 244 333 L 277 333 L 277 360 L 244 360 Z M 244 333 "/>
</clipPath>
<clipPath id="clip11">
  <path d="M 294 66 L 360 66 L 360 195 L 294 195 Z M 294 66 "/>
</clipPath>
<clipPath id="clip12">
  <path d="M 358 102 L 360 102 L 360 167 L 358 167 Z M 358 102 "/>
</clipPath>
<clipPath id="clip13">
  <path d="M 340 72 L 360 72 L 360 110 L 340 110 Z M 340 72 "/>
</clipPath>
<clipPath id="clip14">
  <path d="M 345 48 L 360 48 L 360 88 L 345 88 Z M 345 48 "/>
</clipPath>
<clipPath id="clip15">
  <path d="M 350 0 L 360 0 L 360 51 L 350 51 Z M 350 0 "/>
</clipPath>
<clipPath id="clip16">
  <path d="M 322 0 L 360 0 L 360 38 L 322 38 Z M 322 0 "/>
</clipPath>
<clipPath id="clip17">
  <path d="M 332 185 L 360 185 L 360 246 L 332 246 Z M 332 185 "/>
</clipPath>
<clipPath id="clip18">
  <path d="M 0 241 L 39 241 L 39 360 L 0 360 Z M 0 241 "/>
</clipPath>
<clipPath id="clip19">
  <path d="M 323 260 L 360 260 L 360 352 L 323 352 Z M 323 260 "/>
</clipPath>
</defs>
<g id="surface1036">
<path style="fill-rule:nonzero;fill:rgb(0%,0%,0%);fill-opacity:1;stroke-width:0.03;stroke-linecap:square;stroke-linejoin:miter;stroke:rgb(0%,0%,0%);stroke-opacity:1;stroke-miterlimit:10;" d="M 0 178 L 360 178 L 360 -182 L 0 -182 Z M 0 178 " transform="matrix(1,0,0,1,0,182)"/>
<g clip-path="url(#clip1)" clip-rule="nonzero">
<path style=" stroke:none;fill-rule:nonzero;fill:rgb(39.99939%,39.99939%,39.99939%);fill-opacity:0.3;" d="M 150.445312 357.722656 L 172.703125 359.925781 L 189.003906 365.617188 L 185.410156 407.25 L 147.648438 404.152344 L 148.765625 386.144531 L 167.058594 387.160156 L 167.144531 386.234375 L 167.214844 385.445312 L 148.761719 384.128906 L 149.671875 370.332031 L 167.203125 371.269531 L 167.203125 369.628906 L 149.8125 368.515625 Z M 150.445312 357.722656 "/>
</g>
<g clip-path="url(#clip2)" clip-rule="nonzero">
<path style=" stroke:none;fill-rule:nonzero;fill:rgb(39.99939%,39.99939%,39.99939%);fill-opacity:0.3;" d="M -250.65625 303.824219 L -221.304688 312.5 L -139.398438 336.679688 L -132.324219 338.632812 L -122.695312 341.476562 L -77.285156 353.894531 L -42.988281 361.464844 L -33.308594 363.597656 L 0.332031 371.355469 L 22.90625 377.757812 L 30.800781 381.441406 L 27.71875 461.175781 L 26.0625 540.128906 L 25.015625 550.839844 L 22.308594 558.230469 L 18.378906 565.273438 L 12.265625 571.628906 L 3.070312 578.160156 L -5.332031 580.78125 L -14.429688 581.527344 L -23.644531 581.152344 L -33.445312 577.417969 L -42.101562 571.335938 L -48.839844 567.15625 L -79.222656 557.816406 L -111.554688 550.511719 L -136.347656 543.714844 L -168.179688 532.382812 L -207.429688 519.316406 L -330.019531 480.847656 L -377.875 465.421875 L -450.632812 442.140625 L -474.347656 434.339844 L -558.257812 408.050781 L -541.167969 350.910156 L -539.457031 348.269531 L -483.347656 317.488281 L -479.503906 315.371094 L -427.460938 298.304688 L -392.242188 288.628906 L -367.050781 282.203125 L -357.128906 280.101562 L -347.6875 278.726562 L -339.199219 278.382812 L -326.703125 280.183594 L -278.707031 294.722656 Z M -250.65625 303.824219 "/>
</g>
<g clip-path="url(#clip3)" clip-rule="nonzero">
<path style=" stroke:none;fill-rule:nonzero;fill:rgb(39.99939%,39.99939%,39.99939%);fill-opacity:0.3;" d="M 43.035156 344.277344 L 69.074219 347.59375 L 65.429688 384.996094 L 41.441406 375.253906 Z M 43.035156 344.277344 "/>
</g>
<g clip-path="url(#clip4)" clip-rule="nonzero">
<path style=" stroke:none;fill-rule:nonzero;fill:rgb(39.99939%,39.99939%,39.99939%);fill-opacity:0.3;" d="M 83.171875 350.371094 L 107.628906 352.945312 L 103.238281 400.652344 L 80.304688 391.257812 Z M 83.171875 350.371094 "/>
</g>
<g clip-path="url(#clip5)" clip-rule="nonzero">
<path style=" stroke:none;fill-rule:nonzero;fill:rgb(39.99939%,39.99939%,39.99939%);fill-opacity:0.3;" d="M 110.683594 353.519531 L 147.214844 357.523438 L 145.847656 367.816406 L 128.421875 366.828125 L 128.285156 367.492188 L 128.117188 368.28125 L 145.695312 369.847656 L 143.433594 404.355469 L 106.140625 400.9375 Z M 110.683594 353.519531 "/>
</g>
<path style=" stroke:none;fill-rule:nonzero;fill:rgb(39.99939%,39.99939%,39.99939%);fill-opacity:0.3;" d="M 146.148438 331.734375 L 150.355469 332.148438 L 149.039062 354.992188 L 111.027344 351.023438 L 111.5625 341.433594 L 112.148438 328.832031 Z M 146.148438 331.734375 "/>
<path style=" stroke:none;fill-rule:nonzero;fill:rgb(39.99939%,39.99939%,39.99939%);fill-opacity:0.3;" d="M 88.507812 300.324219 L 103.269531 302.445312 L 109.871094 313.300781 L 107.597656 350.46875 L 83.90625 347.3125 Z M 88.507812 300.324219 "/>
<path style=" stroke:none;fill-rule:nonzero;fill:rgb(39.99939%,39.99939%,39.99939%);fill-opacity:0.3;" d="M 43.617188 290.082031 L 73.613281 297.195312 L 69.078125 345.730469 L 42.6875 342.15625 L 44.613281 307.148438 L 44.308594 300.203125 Z M 43.617188 290.082031 "/>
<path style=" stroke:none;fill-rule:nonzero;fill:rgb(39.99939%,39.99939%,39.99939%);fill-opacity:0.3;" d="M 62.914062 183.476562 L 69.367188 183.808594 L 69.171875 190.566406 L 62.453125 190.273438 Z M 62.914062 183.476562 "/>
<path style=" stroke:none;fill-rule:nonzero;fill:rgb(39.99939%,39.99939%,39.99939%);fill-opacity:0.3;" d="M 100.710938 299.472656 L 100.664062 300.15625 L 88.679688 298.03125 L 88.742188 297.292969 Z M 100.710938 299.472656 "/>
<path style=" stroke:none;fill-rule:nonzero;fill:rgb(39.99939%,39.99939%,39.99939%);fill-opacity:0.3;" d="M 154.125 316.558594 L 154.414062 308.492188 L 154.71875 308.570312 Z M 154.125 316.558594 "/>
<path style=" stroke:none;fill-rule:nonzero;fill:rgb(39.99939%,39.99939%,39.99939%);fill-opacity:0.3;" d="M 150.742188 307.53125 L 116.703125 300.191406 L 123.101562 300.308594 Z M 150.742188 307.53125 "/>
<path style=" stroke:none;fill-rule:nonzero;fill:rgb(39.99939%,39.99939%,39.99939%);fill-opacity:0.3;" d="M 51.335938 160.050781 L 85.734375 166.859375 L 81.316406 211.136719 L 78.625 244.355469 L 73.921875 292.703125 L 43.789062 285.863281 L 51.117188 180.777344 L 57.90625 181.761719 L 57.910156 180.027344 L 57.910156 178.292969 L 51.640625 177.308594 Z M 51.335938 160.050781 "/>
<path style=" stroke:none;fill-rule:nonzero;fill:rgb(39.99939%,39.99939%,39.99939%);fill-opacity:0.3;" d="M 77.929688 221.851562 L 70.464844 221.210938 L 73.425781 185.757812 L 80.957031 186.324219 Z M 77.929688 221.851562 "/>
<path style=" stroke:none;fill-rule:nonzero;fill:rgb(39.99939%,39.99939%,39.99939%);fill-opacity:0.3;" d="M 57.9375 217.976562 L 50.640625 217.394531 L 52.523438 181.871094 L 59.84375 182.535156 Z M 57.9375 217.976562 "/>
<path style=" stroke:none;fill-rule:nonzero;fill:rgb(39.99939%,39.99939%,39.99939%);fill-opacity:0.3;" d="M 77.40625 225.324219 L 76.1875 244.441406 L 68.671875 243.578125 L 70.15625 224.777344 Z M 77.40625 225.324219 "/>
<path style=" stroke:none;fill-rule:nonzero;fill:rgb(39.99939%,39.99939%,39.99939%);fill-opacity:0.3;" d="M 66.203125 242.359375 L 59.316406 241.921875 L 59.957031 235.621094 L 66.828125 235.886719 Z M 66.203125 242.359375 "/>
<path style=" stroke:none;fill-rule:nonzero;fill:rgb(39.99939%,39.99939%,39.99939%);fill-opacity:0.3;" d="M 56.785156 240.503906 L 49.570312 239.992188 L 51.125 221.496094 L 58.324219 222.109375 Z M 56.785156 240.503906 "/>
<path style=" stroke:none;fill-rule:nonzero;fill:rgb(39.99939%,39.99939%,39.99939%);fill-opacity:0.3;" d="M 105.28125 300.769531 L 118.226562 303.402344 L 152.070312 310.277344 L 150.234375 330.761719 L 113.097656 327.410156 L 112.007812 313.511719 L 110.785156 310.324219 Z M 105.28125 300.769531 "/>
<path style=" stroke:none;fill-rule:nonzero;fill:rgb(39.99939%,39.99939%,39.99939%);fill-opacity:0.3;" d="M 234.066406 161.703125 L 279.03125 172.769531 L 289.730469 185.503906 L 285.625 203.070312 L 286.261719 203.261719 L 286.925781 203.460938 L 290.753906 186.863281 L 297.921875 193.589844 L 292.925781 225.175781 L 276.746094 221.714844 L 279.589844 208.667969 L 279.007812 208.503906 L 278.351562 208.324219 L 275.507812 221.441406 L 262.691406 218.773438 L 271.191406 181.75 L 270.679688 181.679688 L 270.164062 181.613281 L 261.453125 218.5 L 228.375 211.273438 L 233.269531 194.417969 L 257.417969 200.253906 L 257.632812 199.644531 L 257.855469 199.027344 L 233.496094 192.765625 L 234.703125 188.171875 L 235.8125 183.578125 L 235.617188 180.957031 L 234.402344 179.253906 L 232.609375 178.175781 L 230.570312 177.421875 L 228.242188 176.753906 Z M 234.066406 161.703125 "/>
<path style=" stroke:none;fill-rule:nonzero;fill:rgb(39.99939%,39.99939%,39.99939%);fill-opacity:0.3;" d="M 210.9375 175.03125 L 231.429688 179.546875 L 233.609375 180.277344 L 234.316406 181.871094 L 233.960938 184.808594 L 217.753906 244.765625 L 204.015625 243.820312 L 208.699219 213.078125 L 207.980469 213.023438 L 207.824219 213.011719 L 206.945312 212.945312 L 202.261719 243.960938 L 178.441406 242.339844 L 178.589844 219.636719 L 177.535156 219.703125 L 177.496094 219.707031 L 176.398438 219.777344 L 176.246094 242.203125 L 157.101562 240.570312 L 157.265625 218.832031 L 157.28125 183.558594 L 222.15625 194.082031 L 222 193.347656 L 221.800781 192.394531 L 207.9375 189.925781 Z M 210.9375 175.03125 "/>
<path style=" stroke:none;fill-rule:nonzero;fill:rgb(39.99939%,39.99939%,39.99939%);fill-opacity:0.3;" d="M 157.203125 132.5 L 166.632812 131.644531 L 175.546875 130.449219 L 182.640625 129.613281 L 188.917969 128.738281 L 195.15625 128.050781 L 201.039062 127.195312 L 204.828125 126.707031 L 211.601562 126.355469 L 217.835938 126.175781 L 224.785156 127.003906 L 231.554688 128.507812 L 237.078125 129.84375 L 242.226562 130.757812 L 238.027344 145.898438 L 221.8125 141.882812 L 220.738281 147.117188 L 217.351562 147.121094 L 217.351562 148.640625 L 220.394531 149.019531 L 219.84375 153.023438 L 220.734375 153.113281 L 221.445312 153.1875 L 223.21875 143.753906 L 237.464844 147.078125 L 227.132812 175.453125 L 216.765625 173.121094 L 206.960938 171.621094 L 196.980469 170.964844 L 186.464844 170.644531 L 178.980469 170.828125 L 172.738281 170.667969 L 165.609375 170.679688 L 162.402344 171.023438 L 157.230469 171.199219 L 157.1875 133.035156 Z M 157.203125 132.5 "/>
<path style=" stroke:none;fill-rule:nonzero;fill:rgb(39.99939%,39.99939%,39.99939%);fill-opacity:0.3;" d="M 244.429688 131.1875 L 247.816406 132.363281 L 280.929688 169.417969 L 280.574219 171.273438 L 235.496094 160.230469 Z M 244.429688 131.1875 "/>
<path style=" stroke:none;fill-rule:nonzero;fill:rgb(39.99939%,39.99939%,39.99939%);fill-opacity:0.3;" d="M 250.042969 132.3125 L 246.820312 130.429688 L 248.132812 130.722656 Z M 250.042969 132.3125 "/>
<path style=" stroke:none;fill-rule:nonzero;fill:rgb(39.99939%,39.99939%,39.99939%);fill-opacity:0.3;" d="M 250.347656 132.59375 L 250.246094 132.480469 L 250.289062 132.519531 Z M 250.347656 132.59375 "/>
<path style=" stroke:none;fill-rule:nonzero;fill:rgb(39.99939%,39.99939%,39.99939%);fill-opacity:0.3;" d="M 300.976562 196.203125 L 326.734375 225.386719 L 334.386719 234.058594 L 341.824219 242.488281 L 340.0625 247.125 L 321.152344 241.390625 L 324.359375 231.203125 L 295.8125 225.175781 L 297.125 216.546875 L 306.589844 219.425781 L 306.691406 219.074219 L 306.808594 218.667969 L 297.195312 215.648438 Z M 300.976562 196.203125 "/>
<path style=" stroke:none;fill-rule:nonzero;fill:rgb(39.99939%,39.99939%,39.99939%);fill-opacity:0.3;" d="M 295.359375 227.230469 L 322.3125 232.847656 L 319.835938 240.675781 L 304.675781 236.925781 L 304.585938 237.785156 L 304.476562 238.816406 L 319.304688 242.648438 L 315.542969 254.464844 L 291.144531 252.023438 Z M 295.359375 227.230469 "/>
<path style=" stroke:none;fill-rule:nonzero;fill:rgb(39.99939%,39.99939%,39.99939%);fill-opacity:0.3;" d="M 320.644531 243.0625 L 338.84375 248.25 L 335.71875 256.382812 L 316.8125 254.445312 Z M 320.644531 243.0625 "/>
<path style=" stroke:none;fill-rule:nonzero;fill:rgb(39.99939%,39.99939%,39.99939%);fill-opacity:0.3;" d="M 342.792969 244.203125 L 344.234375 246.023438 L 341.910156 247.851562 L 340.953125 249.28125 Z M 342.792969 244.203125 "/>
<path style=" stroke:none;fill-rule:nonzero;fill:rgb(39.99939%,39.99939%,39.99939%);fill-opacity:0.3;" d="M 227.875 213.136719 L 294.195312 227.167969 L 289.945312 252.359375 L 279.085938 251.433594 L 283.1875 234.515625 L 279.085938 234 L 274.652344 250.707031 L 259.46875 249.054688 L 261.910156 236.550781 L 260.582031 236.660156 L 257.917969 248.953125 L 242.847656 247.296875 L 246.949219 229.859375 L 246.175781 229.652344 L 245.398438 229.441406 L 241.296875 247.40625 L 219.871094 244.917969 Z M 227.875 213.136719 "/>
<path style=" stroke:none;fill-rule:nonzero;fill:rgb(39.99939%,39.99939%,39.99939%);fill-opacity:0.3;" d="M 156.75 243.179688 L 215.550781 247.632812 L 196.792969 320.640625 L 176.839844 318.113281 L 172.265625 320.582031 L 154.078125 317.851562 L 154.125 316.558594 L 154.71875 308.570312 L 154.644531 302.082031 Z M 156.75 243.179688 "/>
<path style=" stroke:none;fill-rule:nonzero;fill:rgb(39.99939%,39.99939%,39.99939%);fill-opacity:0.3;" d="M 174.78125 320.441406 L 177.589844 319.253906 L 184.03125 320.230469 L 182.789062 329.195312 L 173.855469 327.378906 Z M 174.78125 320.441406 "/>
<g clip-path="url(#clip6)" clip-rule="nonzero">
<path style=" stroke:none;fill-rule:nonzero;fill:rgb(39.99939%,39.99939%,39.99939%);fill-opacity:0.3;" d="M 154.308594 319.289062 L 172.914062 322.214844 L 172.082031 327.636719 L 183.828125 330.375 L 185.382812 320.421875 L 250.6875 333.136719 L 242.253906 374.597656 L 190.496094 362.171875 L 180.257812 359.746094 L 179.855469 352.175781 L 178.980469 351.992188 L 177.457031 351.671875 L 177.332031 358.992188 L 174.621094 358.21875 L 172.3125 357.734375 L 151.644531 355.375 L 152.300781 342.5 L 177.988281 343.46875 L 178.050781 342.480469 L 178.117188 341.449219 L 152.832031 340.480469 Z M 154.308594 319.289062 "/>
</g>
<path style=" stroke:none;fill-rule:nonzero;fill:rgb(39.99939%,39.99939%,39.99939%);fill-opacity:0.3;" d="M 298.191406 255.679688 L 316.476562 257.636719 L 304.824219 299.167969 L 297.925781 297.898438 L 297.84375 298.902344 L 297.777344 299.75 L 304.523438 301.300781 L 295.277344 338.363281 L 278.34375 335.636719 Z M 298.191406 255.679688 "/>
<path style=" stroke:none;fill-rule:nonzero;fill:rgb(39.99939%,39.99939%,39.99939%);fill-opacity:0.3;" d="M 318.960938 257.992188 L 337.410156 259.796875 L 320.464844 340.695312 L 316.726562 342.277344 L 300.3125 339.550781 L 299.175781 335.925781 L 307.414062 302.921875 L 314.164062 303.621094 L 314.230469 302.667969 L 314.3125 301.488281 L 308.164062 300.644531 Z M 318.960938 257.992188 "/>
<path style=" stroke:none;fill-rule:nonzero;fill:rgb(39.99939%,39.99939%,39.99939%);fill-opacity:0.3;" d="M 217.980469 247.628906 L 242.746094 250.191406 L 226.410156 326.503906 L 198.664062 320.835938 Z M 217.980469 247.628906 "/>
<path style=" stroke:none;fill-rule:nonzero;fill:rgb(39.99939%,39.99939%,39.99939%);fill-opacity:0.3;" d="M 246.308594 250.492188 L 273.664062 253.664062 L 252.433594 331.894531 L 229.628906 327.484375 Z M 246.308594 250.492188 "/>
<path style=" stroke:none;fill-rule:nonzero;fill:rgb(39.99939%,39.99939%,39.99939%);fill-opacity:0.3;" d="M 276.824219 253.265625 L 295.4375 255.378906 L 279.59375 320.210938 L 276.019531 335.035156 L 256.382812 331.917969 L 260.378906 316.535156 Z M 276.824219 253.265625 "/>
<path style=" stroke:none;fill-rule:nonzero;fill:rgb(39.99939%,39.99939%,39.99939%);fill-opacity:0.3;" d="M 340.878906 260.449219 L 341.09375 260.480469 L 339.515625 267.132812 Z M 340.878906 260.449219 "/>
<path style=" stroke:none;fill-rule:nonzero;fill:rgb(39.99939%,39.99939%,39.99939%);fill-opacity:0.3;" d="M 205.582031 189.722656 L 157.816406 182.039062 L 157.644531 172.925781 L 166.917969 172.96875 L 172.566406 172.714844 L 176.804688 172.710938 L 190.441406 172.703125 L 198.285156 172.859375 L 206.660156 173.183594 L 209.15625 173.683594 Z M 205.582031 189.722656 "/>
<g clip-path="url(#clip7)" clip-rule="nonzero">
<path style=" stroke:none;fill-rule:nonzero;fill:rgb(39.99939%,39.99939%,39.99939%);fill-opacity:0.3;" d="M 279.136719 338.160156 L 320.382812 344.980469 L 318.128906 357.464844 L 316.71875 363.71875 L 314.523438 370.867188 L 312.800781 381.589844 L 310.503906 388.382812 L 289.730469 384.316406 L 270.113281 380.183594 L 274.027344 364.097656 Z M 279.136719 338.160156 "/>
</g>
<g clip-path="url(#clip8)" clip-rule="nonzero">
<path style=" stroke:none;fill-rule:nonzero;fill:rgb(39.99939%,39.99939%,39.99939%);fill-opacity:0.3;" d="M 355.210938 352.882812 L 369.613281 355.101562 L 364.726562 390.125 L 350.429688 393.523438 Z M 355.210938 352.882812 "/>
</g>
<g clip-path="url(#clip9)" clip-rule="nonzero">
<path style=" stroke:none;fill-rule:nonzero;fill:rgb(39.99939%,39.99939%,39.99939%);fill-opacity:0.3;" d="M 323.757812 345.453125 L 352.53125 350.417969 L 347.222656 394.640625 L 344.429688 395.253906 L 314.53125 388.960938 L 315.9375 377.195312 L 317.347656 368.855469 L 320.484375 361.257812 Z M 323.757812 345.453125 "/>
</g>
<g clip-path="url(#clip10)" clip-rule="nonzero">
<path style=" stroke:none;fill-rule:nonzero;fill:rgb(39.99939%,39.99939%,39.99939%);fill-opacity:0.3;" d="M 253.332031 333.761719 L 276.539062 337.675781 L 267.914062 379.59375 L 244.996094 375.316406 Z M 253.332031 333.761719 "/>
</g>
<path style=" stroke:none;fill-rule:nonzero;fill:rgb(39.99939%,39.99939%,39.99939%);fill-opacity:0.3;" d="M -70.542969 -13.027344 L -62.703125 -12.765625 L -64.328125 -3.75 L -62.640625 -3.46875 L -60.25 -12.453125 L -54.300781 -12.484375 L -44.253906 -11.6875 L -45.65625 -5.863281 L -52.296875 -6.917969 L -52.546875 -6.214844 L -52.796875 -5.515625 L -38.40625 -3.167969 L -38.253906 -3.730469 L -38.105469 -4.292969 L -42.375 -5.136719 L -41.175781 -11.40625 L -34.425781 -10.558594 L -29.460938 -9.902344 L -22.148438 -8.242188 L -12.476562 -5.433594 L -4.300781 -2.273438 L 1.835938 0.0078125 L 9.085938 2.460938 L 15.402344 4.742188 L 19.726562 7.632812 L 21.964844 10.878906 L 22.382812 13.792969 L 19.507812 16.066406 L 11.664062 18.066406 L -27.34375 19.441406 L -24.394531 4.628906 L -34.617188 2.566406 L -34.714844 3.5 L -34.816406 4.4375 L -26.878906 5.75 L -29.96875 19.605469 L -54.566406 20.480469 L -54.789062 21.640625 L -55.011719 22.804688 L -25.324219 22.0625 L -50.582031 93.839844 L -103.046875 77.382812 L -96.253906 52.367188 L -91.632812 39.125 L -88.417969 31.34375 L -84.5 21.453125 L -81.101562 12.898438 Z M -70.542969 -13.027344 "/>
<path style=" stroke:none;fill-rule:nonzero;fill:rgb(39.99939%,39.99939%,39.99939%);fill-opacity:0.3;" d="M 50.574219 35.0625 L 50.035156 42.019531 L 45.101562 34.414062 Z M 50.574219 35.0625 "/>
<path style=" stroke:none;fill-rule:nonzero;fill:rgb(39.99939%,39.99939%,39.99939%);fill-opacity:0.3;" d="M 52.878906 2.042969 L 52.03125 14.238281 L 40.894531 12.695312 L 40.796875 14.117188 L 40.726562 15.164062 L 52.023438 17.019531 L 51.664062 31.84375 L 42.660156 31.230469 L 30.738281 12.691406 Z M 52.878906 2.042969 "/>
<path style=" stroke:none;fill-rule:nonzero;fill:rgb(39.99939%,39.99939%,39.99939%);fill-opacity:0.3;" d="M 29.753906 11.457031 L 26.976562 7.75 L 23.867188 4.8125 L 21.085938 2.34375 L 17.484375 0.179688 L 14.703125 -1.261719 L 11.671875 -2.945312 L 13.367188 -3.445312 L 15.867188 -3.867188 L 18.539062 -4.03125 L 21.570312 -3.613281 L 23.355469 -3.191406 L 25.582031 -2.351562 L 27.984375 -1.003906 L 30.925781 -0.5 L 34.402344 -0.332031 L 41.890625 0.257812 L 50.671875 1.257812 Z M 29.753906 11.457031 "/>
<path style=" stroke:none;fill-rule:nonzero;fill:rgb(39.99939%,39.99939%,39.99939%);fill-opacity:0.3;" d="M -23.8125 30.207031 L 50.28125 53.722656 L 48.847656 77.308594 L -32.136719 51.710938 Z M -23.8125 30.207031 "/>
<path style=" stroke:none;fill-rule:nonzero;fill:rgb(39.99939%,39.99939%,39.99939%);fill-opacity:0.3;" d="M -20.738281 21.265625 L 9.429688 20.125 L 13.570312 19.445312 L 18.765625 17.832031 L 22.414062 16.851562 L 25.457031 14.886719 L 34.738281 28.15625 L 40.511719 36.695312 L 35.484375 37.558594 L 36.316406 38.949219 L 36.925781 39.976562 L 41.769531 39.082031 L 49.585938 51.003906 L 21.613281 42.207031 L -22.832031 27.804688 Z M -20.738281 21.265625 "/>
<path style=" stroke:none;fill-rule:nonzero;fill:rgb(39.99939%,39.99939%,39.99939%);fill-opacity:0.3;" d="M -32.191406 54.15625 L 49.546875 79.347656 L 48.328125 93.070312 L 39.023438 98.386719 L 28.105469 102.222656 L 21.832031 102.933594 L 14.363281 103.292969 L 9.488281 103.207031 L 5.078125 103.121094 L -0.867188 103.390625 L -5.558594 103.304688 L -9.59375 103.21875 L -15.785156 102.957031 L -23.195312 101.804688 L -28.917969 100.125 L -32.949219 98.886719 L -47.105469 94.835938 Z M -32.191406 54.15625 "/>
<g clip-path="url(#clip11)" clip-rule="nonzero">
<path style=" stroke:none;fill-rule:nonzero;fill:rgb(39.99939%,39.99939%,39.99939%);fill-opacity:0.3;" d="M 303.386719 98.5 L 306.082031 93.609375 L 307.652344 90.84375 L 309.449219 86.410156 L 311.472656 80.75 L 314.007812 66.421875 L 329.808594 70 L 325.578125 89.105469 L 326.367188 89.253906 L 326.894531 89.355469 L 330.992188 70.621094 L 342.058594 72.589844 L 333.613281 107.765625 L 335.019531 108.140625 L 336.421875 108.519531 L 339.773438 95.074219 L 368.84375 100.855469 L 362.757812 122.441406 L 356.371094 146.1875 L 355.75 152.476562 L 356.367188 158.371094 L 354.707031 159.75 L 344.132812 157.808594 L 344.046875 158.871094 L 343.925781 160.367188 L 358.855469 163.28125 L 355.328125 173.507812 L 351.800781 172.730469 L 351.480469 174.253906 L 351.179688 175.679688 L 359.679688 177.429688 L 360.925781 174.085938 L 360.71875 172.710938 L 363.210938 164.644531 L 385.195312 168.777344 L 377.933594 194.347656 L 346.359375 183.308594 L 329.546875 179.921875 L 329.542969 176.929688 L 317.265625 174.039062 L 328.179688 137.738281 L 340.074219 140.898438 L 337.410156 151.898438 L 338.09375 152.105469 L 338.695312 152.292969 L 341.605469 140.496094 L 346.238281 141.453125 L 346.722656 140.078125 L 294.972656 127.761719 L 295.859375 119.796875 L 297.25 109.628906 L 315.589844 113.519531 L 315.59375 113.015625 L 315.59375 112.316406 L 297.710938 108.101562 L 298.753906 104.601562 L 300.132812 101.164062 Z M 303.386719 98.5 "/>
</g>
<g clip-path="url(#clip12)" clip-rule="nonzero">
<path style=" stroke:none;fill-rule:nonzero;fill:rgb(39.99939%,39.99939%,39.99939%);fill-opacity:0.3;" d="M 371.753906 102.195312 L 388.421875 105.554688 L 383.640625 130.128906 L 384.390625 130.363281 L 384.886719 130.519531 L 389.96875 105.550781 L 402.15625 108.984375 L 396.175781 133.945312 L 396.148438 133.9375 L 399.546875 119.296875 L 398.195312 119.707031 L 396.6875 120.167969 L 386.121094 166.085938 L 359.578125 160.273438 L 358.335938 154.75 L 358.132812 150.230469 Z M 371.753906 102.195312 "/>
</g>
<g clip-path="url(#clip13)" clip-rule="nonzero">
<path style=" stroke:none;fill-rule:nonzero;fill:rgb(39.99939%,39.99939%,39.99939%);fill-opacity:0.3;" d="M 344.734375 72.960938 L 378.089844 80.167969 L 424.949219 89.871094 L 420.765625 109.027344 L 402.003906 105.285156 L 388.617188 102.113281 L 372.878906 98.878906 L 375.800781 89.144531 L 375.007812 88.96875 L 373.921875 88.730469 L 370.863281 98.601562 L 340.578125 92.320312 Z M 344.734375 72.960938 "/>
</g>
<g clip-path="url(#clip14)" clip-rule="nonzero">
<path style=" stroke:none;fill-rule:nonzero;fill:rgb(39.99939%,39.99939%,39.99939%);fill-opacity:0.3;" d="M 350.355469 48 L 364.363281 51.0625 L 362.40625 58.664062 L 363.464844 58.867188 L 364.542969 59.078125 L 366.632812 51.558594 L 383.578125 55.261719 L 381.828125 61.472656 L 383.117188 61.800781 L 384.480469 62.152344 L 386.148438 55.824219 L 431.410156 65.71875 L 427.667969 79.332031 L 409.226562 77.054688 L 409.121094 77.398438 L 408.902344 78.105469 L 427.164062 80.496094 L 425.28125 87.808594 L 391.828125 81.308594 L 393.898438 74.113281 L 401.457031 75.019531 L 401.648438 74.425781 L 401.871094 73.730469 L 393.363281 72.734375 L 390.582031 81.117188 L 345.226562 71.300781 Z M 350.355469 48 "/>
</g>
<g clip-path="url(#clip15)" clip-rule="nonzero">
<path style=" stroke:none;fill-rule:nonzero;fill:rgb(39.99939%,39.99939%,39.99939%);fill-opacity:0.3;" d="M 363.820312 -4.636719 L 382.804688 0.0546875 L 379.628906 11.953125 L 380.4375 12.160156 L 381.269531 12.371094 L 384.359375 0.6875 L 398.117188 6.441406 L 384.382812 50.351562 L 350.574219 43.140625 L 357.980469 15.398438 L 376.9375 20.296875 L 377.335938 18.714844 L 377.683594 17.324219 L 358.878906 11.722656 Z M 363.820312 -4.636719 "/>
</g>
<path style=" stroke:none;fill-rule:nonzero;fill:rgb(39.99939%,39.99939%,39.99939%);fill-opacity:0.3;" d="M 297.339844 164.144531 L 316.980469 168.753906 L 311.421875 184.839844 L 299.941406 171.539062 Z M 297.339844 164.144531 "/>
<path style=" stroke:none;fill-rule:nonzero;fill:rgb(39.99939%,39.99939%,39.99939%);fill-opacity:0.3;" d="M 294.8125 129.28125 L 326.835938 137.566406 L 317.140625 167.851562 L 297.339844 163.09375 L 290.90625 148.707031 Z M 294.8125 129.28125 "/>
<path style=" stroke:none;fill-rule:nonzero;fill:rgb(39.99939%,39.99939%,39.99939%);fill-opacity:0.3;" d="M 262.75 87.425781 L 277.011719 100.40625 L 266.90625 133.316406 L 254.753906 117.9375 Z M 262.75 87.425781 "/>
<path style=" stroke:none;fill-rule:nonzero;fill:rgb(39.99939%,39.99939%,39.99939%);fill-opacity:0.3;" d="M 279.398438 101.664062 L 295.917969 108.085938 L 289.003906 147.445312 L 268.945312 133.804688 Z M 279.398438 101.664062 "/>
<path style=" stroke:none;fill-rule:nonzero;fill:rgb(39.99939%,39.99939%,39.99939%);fill-opacity:0.3;" d="M 267.695312 67.417969 L 310.632812 79.125 L 308.832031 84.226562 L 307.375 88.265625 L 304.34375 92.414062 L 299.40625 97.660156 L 298.503906 102.121094 L 297.828125 105.097656 L 297.042969 107.117188 L 296.144531 107.222656 L 280.230469 100.042969 L 263.652344 85.113281 Z M 267.695312 67.417969 "/>
<path style=" stroke:none;fill-rule:nonzero;fill:rgb(39.99939%,39.99939%,39.99939%);fill-opacity:0.3;" d="M 328.78125 36.011719 L 339.71875 38.355469 L 338.683594 43.644531 L 328.34375 41.632812 Z M 328.78125 36.011719 "/>
<path style=" stroke:none;fill-rule:nonzero;fill:rgb(39.99939%,39.99939%,39.99939%);fill-opacity:0.3;" d="M 288.941406 61 L 311.90625 65.992188 L 309.695312 76.289062 L 285.898438 70.117188 Z M 288.941406 61 "/>
<path style=" stroke:none;fill-rule:nonzero;fill:rgb(39.99939%,39.99939%,39.99939%);fill-opacity:0.3;" d="M 317.484375 33.925781 L 327.1875 36.035156 L 326.648438 41.945312 L 339.722656 44.9375 L 341.195312 38.5625 L 349.816406 39.996094 L 342.417969 70.511719 L 315.371094 64.417969 L 316.726562 52.0625 Z M 317.484375 33.925781 "/>
<path style=" stroke:none;fill-rule:nonzero;fill:rgb(39.99939%,39.99939%,39.99939%);fill-opacity:0.3;" d="M 297.6875 29.988281 L 314.488281 33.78125 L 313.925781 47.183594 L 313.691406 57.390625 L 312.957031 63.234375 L 288.566406 58.574219 Z M 297.6875 29.988281 "/>
<path style=" stroke:none;fill-rule:nonzero;fill:rgb(39.99939%,39.99939%,39.99939%);fill-opacity:0.3;" d="M 277.550781 25.808594 L 295.992188 29.492188 L 283.167969 68.875 L 267.082031 63.144531 Z M 277.550781 25.808594 "/>
<g clip-path="url(#clip16)" clip-rule="nonzero">
<path style=" stroke:none;fill-rule:nonzero;fill:rgb(39.99939%,39.99939%,39.99939%);fill-opacity:0.3;" d="M 332.835938 -10.257812 L 360.148438 -5.136719 L 348.707031 37.636719 L 322.277344 32.445312 Z M 332.835938 -10.257812 "/>
</g>
<path style=" stroke:none;fill-rule:nonzero;fill:rgb(39.99939%,39.99939%,39.99939%);fill-opacity:0.3;" d="M 289.832031 -16.585938 L 319.691406 -13.90625 L 318.875 -11.140625 L 300.355469 4.570312 L 285.199219 1.175781 Z M 289.832031 -16.585938 "/>
<path style=" stroke:none;fill-rule:nonzero;fill:rgb(39.99939%,39.99939%,39.99939%);fill-opacity:0.3;" d="M 284.609375 2.769531 L 298.730469 5.957031 L 297.339844 10.457031 L 299.367188 10.925781 L 302.0625 11.59375 L 306.847656 12.675781 L 307.019531 11.792969 L 307.1875 10.910156 L 300.65625 9.070312 L 301.410156 6.492188 L 323.421875 -12.996094 L 331.539062 -11.632812 L 319.90625 31.953125 L 278.863281 23.863281 Z M 284.609375 2.769531 "/>
<path style=" stroke:none;fill-rule:nonzero;fill:rgb(39.99939%,39.99939%,39.99939%);fill-opacity:0.3;" d="M 316.429688 175.289062 L 326.742188 177.683594 L 326.105469 179.902344 L 340.453125 184.40625 L 330.644531 209.199219 L 328.089844 206.484375 L 331.316406 194.882812 L 330.605469 194.644531 L 329.964844 194.429688 L 327.023438 205.050781 L 324.460938 201.960938 L 328.136719 190.046875 L 327.367188 190.054688 L 326.765625 190.058594 L 323.375 200.757812 L 322.226562 199.410156 L 325.050781 189.503906 L 324.445312 189.453125 L 323.988281 189.414062 L 321.308594 198.292969 L 312.84375 188.238281 Z M 316.429688 175.289062 "/>
<g clip-path="url(#clip17)" clip-rule="nonzero">
<path style=" stroke:none;fill-rule:nonzero;fill:rgb(39.99939%,39.99939%,39.99939%);fill-opacity:0.3;" d="M 342.222656 185.046875 L 366.203125 192.734375 L 360.539062 207.0625 L 361.261719 207.515625 L 361.535156 207.691406 L 367.09375 193.257812 L 379.195312 197.585938 L 361.546875 245.203125 L 332.394531 210.742188 Z M 342.222656 185.046875 "/>
</g>
<path style=" stroke:none;fill-rule:nonzero;fill:rgb(39.99939%,39.99939%,39.99939%);fill-opacity:0.3;" d="M 209.980469 27.425781 L 237.757812 34.730469 L 227.417969 63.261719 L 201.578125 55.308594 Z M 209.980469 27.425781 "/>
<path style=" stroke:none;fill-rule:nonzero;fill:rgb(39.99939%,39.99939%,39.99939%);fill-opacity:0.3;" d="M 254.925781 -3.449219 L 277.964844 2.871094 L 267.742188 41.230469 L 242.53125 34.003906 Z M 254.925781 -3.449219 "/>
<path style=" stroke:none;fill-rule:nonzero;fill:rgb(39.99939%,39.99939%,39.99939%);fill-opacity:0.3;" d="M 252.246094 -4.183594 L 239.304688 33.328125 L 181.472656 17.667969 L 188.292969 -12.632812 L 190.375 -21.136719 Z M 252.246094 -4.183594 "/>
<path style=" stroke:none;fill-rule:nonzero;fill:rgb(39.99939%,39.99939%,39.99939%);fill-opacity:0.3;" d="M 162.566406 94.558594 L 222.359375 111.519531 L 220.746094 118.945312 L 215.222656 118.621094 L 212.007812 124.191406 L 206.191406 124.996094 L 198.703125 125.683594 L 188.367188 126.882812 L 181.949219 127.910156 L 175.53125 128.761719 L 166.617188 129.789062 L 157.234375 130.792969 L 157.234375 129.34375 L 158.066406 124.238281 L 158.609375 118.167969 L 158.96875 115.492188 L 160.105469 108.085938 L 161.429688 98.839844 Z M 162.566406 94.558594 "/>
<path style=" stroke:none;fill-rule:nonzero;fill:rgb(39.99939%,39.99939%,39.99939%);fill-opacity:0.3;" d="M 223.796875 111.851562 L 242.324219 117.378906 L 252.285156 132.199219 L 259.40625 142.644531 L 250.347656 132.59375 L 250.289062 132.519531 L 250.246094 132.480469 L 250.148438 132.375 L 250.042969 132.3125 L 248.132812 130.722656 L 246.820312 130.429688 L 246.410156 130.1875 L 241.421875 128.34375 L 234.828125 126.839844 L 221.46875 124.675781 Z M 223.796875 111.851562 "/>
<path style=" stroke:none;fill-rule:nonzero;fill:rgb(39.99939%,39.99939%,39.99939%);fill-opacity:0.3;" d="M 205.835938 61.515625 L 195.347656 94.996094 L 164.289062 86.035156 L 171.546875 51.085938 Z M 205.835938 61.515625 "/>
<path style=" stroke:none;fill-rule:nonzero;fill:rgb(39.99939%,39.99939%,39.99939%);fill-opacity:0.3;" d="M 208.152344 26.933594 L 199.617188 55.066406 L 173.792969 47.660156 L 180.695312 19.242188 Z M 208.152344 26.933594 "/>
<path style=" stroke:none;fill-rule:nonzero;fill:rgb(39.99939%,39.99939%,39.99939%);fill-opacity:0.3;" d="M 116.308594 -10.839844 L 143.828125 -4.707031 L 132.582031 35.925781 L 112.792969 30.441406 Z M 116.308594 -10.839844 "/>
<path style=" stroke:none;fill-rule:nonzero;fill:rgb(39.99939%,39.99939%,39.99939%);fill-opacity:0.3;" d="M 136.074219 40.957031 L 169.261719 50.542969 L 161.253906 84.777344 L 126.675781 73.636719 Z M 136.074219 40.957031 "/>
<path style=" stroke:none;fill-rule:nonzero;fill:rgb(39.99939%,39.99939%,39.99939%);fill-opacity:0.3;" d="M 153.265625 -16.890625 L 184.058594 -9.492188 L 179.492188 8.753906 L 170.023438 46.585938 L 136.691406 37.09375 L 142.753906 12.175781 L 156.644531 15.296875 L 156.90625 13.839844 L 157.171875 12.367188 L 143.5625 9.886719 L 150.597656 -15.746094 Z M 153.265625 -16.890625 "/>
<path style=" stroke:none;fill-rule:nonzero;fill:rgb(39.99939%,39.99939%,39.99939%);fill-opacity:0.3;" d="M 98.421875 28.566406 L 92.613281 27.011719 L 98.5625 5.371094 Z M 98.421875 28.566406 "/>
<path style=" stroke:none;fill-rule:nonzero;fill:rgb(39.99939%,39.99939%,39.99939%);fill-opacity:0.3;" d="M 90.625 28.335938 L 96.652344 30.09375 L 92.96875 65.523438 L 81.644531 61.5625 Z M 90.625 28.335938 "/>
<path style=" stroke:none;fill-rule:nonzero;fill:rgb(39.99939%,39.99939%,39.99939%);fill-opacity:0.3;" d="M 57.019531 19.003906 L 88.546875 27.796875 L 79.816406 61.046875 L 71.574219 58.335938 L 62.378906 54.910156 L 55.761719 51.429688 Z M 57.019531 19.003906 "/>
<path style=" stroke:none;fill-rule:nonzero;fill:rgb(39.99939%,39.99939%,39.99939%);fill-opacity:0.3;" d="M 59.058594 -0.289062 L 98.375 -2.613281 L 90.601562 26.402344 L 58.195312 17 Z M 59.058594 -0.289062 "/>
<path style=" stroke:none;fill-rule:nonzero;fill:rgb(39.99939%,39.99939%,39.99939%);fill-opacity:0.3;" d="M 112.066406 34.765625 L 132.15625 40.058594 L 122.855469 72.261719 L 108.65625 68.042969 Z M 112.066406 34.765625 "/>
<path style=" stroke:none;fill-rule:nonzero;fill:rgb(39.99939%,39.99939%,39.99939%);fill-opacity:0.3;" d="M 230.0625 67.945312 L 234.734375 69.664062 L 239.710938 71.621094 L 244.328125 73.628906 L 249.152344 76.066406 L 252.5625 77.808594 L 256.003906 79.800781 L 247.476562 109.238281 L 245.429688 109.425781 L 224.707031 84.3125 Z M 230.0625 67.945312 "/>
<path style=" stroke:none;fill-rule:nonzero;fill:rgb(39.99939%,39.99939%,39.99939%);fill-opacity:0.3;" d="M 208.390625 62.214844 L 226.804688 67.609375 L 221.050781 83.742188 L 243.324219 111.304688 L 198.21875 95.59375 Z M 208.390625 62.214844 "/>
<path style=" stroke:none;fill-rule:nonzero;fill:rgb(39.99939%,39.99939%,39.99939%);fill-opacity:0.3;" d="M 241.539062 35.804688 L 266.882812 43.050781 L 256.839844 77.945312 L 251.609375 75.027344 L 244.808594 71.765625 L 239.058594 69.308594 L 234.605469 67.378906 L 230.492188 65.804688 Z M 241.539062 35.804688 "/>
<path style=" stroke:none;fill-rule:nonzero;fill:rgb(39.99939%,39.99939%,39.99939%);fill-opacity:0.3;" d="M 5.207031 108.117188 L 11.191406 108.035156 L 17.558594 107.652344 L 23.789062 106.953125 L 26.941406 106.378906 L 31.027344 105.492188 L 35.050781 104.410156 L 38.601562 103.460938 L 41.617188 102.507812 L 44.152344 101.488281 L 47.785156 100.035156 L 47.394531 122.359375 Z M 5.207031 108.117188 "/>
<path style=" stroke:none;fill-rule:nonzero;fill:rgb(39.99939%,39.99939%,39.99939%);fill-opacity:0.3;" d="M 28.246094 154.828125 L 45.585938 158.386719 L 41.578125 224.542969 L 21.527344 223.351562 Z M 28.246094 154.828125 "/>
<path style=" stroke:none;fill-rule:nonzero;fill:rgb(39.99939%,39.99939%,39.99939%);fill-opacity:0.3;" d="M 29.988281 123.320312 L 46.792969 128.347656 L 45.464844 156.257812 L 28.121094 152.570312 Z M 29.988281 123.320312 "/>
<path style=" stroke:none;fill-rule:nonzero;fill:rgb(39.99939%,39.99939%,39.99939%);fill-opacity:0.3;" d="M 14.125 118.542969 L 26.386719 122.257812 L 25.144531 152.011719 L 6.328125 148.082031 Z M 14.125 118.542969 "/>
<path style=" stroke:none;fill-rule:nonzero;fill:rgb(39.99939%,39.99939%,39.99939%);fill-opacity:0.3;" d="M -28.917969 112.359375 L -9.332031 110.859375 L 11.257812 117.230469 L 3.015625 146.792969 L -38.273438 138.222656 Z M -28.917969 112.359375 "/>
<path style=" stroke:none;fill-rule:nonzero;fill:rgb(39.99939%,39.99939%,39.99939%);fill-opacity:0.3;" d="M 5.898438 150.566406 L 24.773438 154.492188 L 17.933594 226.003906 L 40.539062 228.136719 L 36.914062 281.640625 L -5.953125 265.953125 L 1.675781 234.316406 L 0.511719 234.199219 L -0.921875 234.058594 L -5.019531 249.46875 L -22.109375 244.046875 L -18.421875 230.96875 L -19.433594 230.847656 L -20.609375 230.710938 L -24.296875 243.269531 L -58.34375 232.292969 L -58.472656 232.730469 L -58.753906 233.714844 L -44.535156 238.753906 L -46.449219 242.898438 L -56.019531 240.964844 L -56.28125 241.582031 L -56.566406 242.257812 L -46.855469 244.582031 L -48.449219 249.1875 L -76.042969 239.503906 L -66.339844 214.253906 L -60.050781 215.285156 L -61.554688 220.203125 L -60.5625 220.277344 L -59.777344 220.332031 L -58.410156 215.414062 L -27.875 221.75 L -28.695312 226.152344 L -27.054688 226.152344 L -26.371094 222.007812 L -16.554688 224.363281 L -16.929688 226.636719 L -15.546875 226.851562 L -14.339844 227.039062 L -9.691406 209.3125 L 2.476562 211.113281 L 2.628906 210.332031 L 2.75 209.6875 L -9.464844 207.667969 L -4.785156 189.214844 Z M 5.898438 150.566406 "/>
<path style=" stroke:none;fill-rule:nonzero;fill:rgb(39.99939%,39.99939%,39.99939%);fill-opacity:0.3;" d="M 48.328125 93.070312 L 48.324219 93.105469 L 47.105469 96.09375 L 45.226562 97.777344 L 42.132812 99.019531 L 35.65625 100.621094 L 28.902344 102.132812 L 28.105469 102.222656 L 39.023438 98.386719 Z M 48.328125 93.070312 "/>
<path style=" stroke:none;fill-rule:nonzero;fill:rgb(39.99939%,39.99939%,39.99939%);fill-opacity:0.3;" d="M 51.816406 156.148438 L 50.929688 155.917969 L 51.429688 150.066406 Z M 51.816406 156.148438 "/>
<path style=" stroke:none;fill-rule:nonzero;fill:rgb(39.99939%,39.99939%,39.99939%);fill-opacity:0.3;" d="M -39.675781 140.90625 L -20.039062 145.195312 L -26.878906 170.804688 L -25.574219 171.128906 L -25.507812 171.144531 L -24.136719 171.488281 L -17.402344 145.757812 L 2.328125 149.925781 L -12.414062 208.28125 L -59.875 197.828125 L -52.074219 175.242188 L -32.675781 179.59375 L -32.4375 178.421875 L -32.351562 178 L -32.199219 177.246094 L -51.128906 172.667969 Z M -39.675781 140.90625 "/>
<g clip-path="url(#clip18)" clip-rule="nonzero">
<path style=" stroke:none;fill-rule:nonzero;fill:rgb(39.99939%,39.99939%,39.99939%);fill-opacity:0.3;" d="M -46.058594 256.019531 L -44.1875 256.691406 L -23.78125 264.011719 L -14.25 267.429688 L 38.035156 286.183594 L 34.027344 369.867188 L 16.574219 362.917969 L 12.089844 352.121094 L 4.25 334.578125 L -0.0273438 326.824219 L -1.269531 327.246094 L -1.375 327.28125 L -2.597656 327.699219 L 7.519531 350.847656 L 3.855469 360.429688 L -91.582031 339.714844 L -84.507812 315.347656 L -72.226562 318.386719 L -74.464844 329.210938 L -73.074219 329.488281 L -71.90625 329.71875 L -69.695312 318.800781 L -61.855469 320.863281 L -61.613281 319.699219 L -61.335938 318.367188 L -100.820312 307.753906 L -97.414062 297.1875 L -90.351562 275.273438 L -91.570312 274.9375 L -92.789062 274.597656 L -103.421875 307.265625 L -119.597656 303.203125 L -109.511719 267.402344 L -108.652344 264.882812 L -107.175781 261.410156 L -100.964844 256.507812 L -94.257812 250.035156 L -91.804688 245.277344 L -89.417969 241.398438 L -77.859375 244.085938 L -89.273438 270.417969 L -88.472656 270.824219 L -87.621094 271.257812 L -76.082031 244.683594 Z M -46.058594 256.019531 "/>
</g>
<path style=" stroke:none;fill-rule:nonzero;fill:rgb(39.99939%,39.99939%,39.99939%);fill-opacity:0.3;" d="M 342.402344 265.808594 L 347.480469 266.496094 L 346.742188 271.316406 L 341.664062 270.628906 Z M 342.402344 265.808594 "/>
<path style=" stroke:none;fill-rule:nonzero;fill:rgb(39.99939%,39.99939%,39.99939%);fill-opacity:0.3;" d="M 337.214844 293.019531 L 342.292969 293.710938 L 341.558594 298.53125 L 336.480469 297.84375 Z M 337.214844 293.019531 "/>
<path style=" stroke:none;fill-rule:nonzero;fill:rgb(39.99939%,39.99939%,39.99939%);fill-opacity:0.3;" d="M 340.097656 275.324219 L 349.214844 276.703125 L 347.011719 289.6875 L 337.894531 288.3125 L 338.386719 285.726562 L 344.640625 286.5625 L 345.933594 278.980469 L 339.675781 278.148438 Z M 340.097656 275.324219 "/>
<path style=" stroke:none;fill-rule:nonzero;fill:rgb(39.99939%,39.99939%,39.99939%);fill-opacity:0.3;" d="M 339.523438 279.625 L 344.601562 280.3125 L 343.867188 285.132812 L 338.785156 284.445312 Z M 339.523438 279.625 "/>
<path style=" stroke:none;fill-rule:nonzero;fill:rgb(39.99939%,39.99939%,39.99939%);fill-opacity:0.3;" d="M 342.976562 261.511719 L 352.09375 262.886719 L 349.890625 275.871094 L 340.769531 274.496094 L 341.265625 271.914062 L 347.519531 272.746094 L 348.8125 265.167969 L 342.554688 264.332031 Z M 342.976562 261.511719 "/>
<path style=" stroke:none;fill-rule:nonzero;fill:rgb(39.99939%,39.99939%,39.99939%);fill-opacity:0.3;" d="M 344.234375 246.023438 L 354.160156 258.550781 L 338.203125 256.878906 L 340.953125 249.28125 L 341.910156 247.851562 Z M 344.234375 246.023438 "/>
<path style=" stroke:none;fill-rule:nonzero;fill:rgb(39.99939%,39.99939%,39.99939%);fill-opacity:0.3;" d="M 331.929688 315.960938 L 341.050781 317.335938 L 338.847656 330.324219 L 329.726562 328.949219 L 330.222656 326.363281 L 336.476562 327.199219 L 337.765625 319.617188 L 331.511719 318.78125 Z M 331.929688 315.960938 "/>
<path style=" stroke:none;fill-rule:nonzero;fill:rgb(39.99939%,39.99939%,39.99939%);fill-opacity:0.3;" d="M 331.359375 320.257812 L 336.4375 320.945312 L 335.699219 325.769531 L 330.621094 325.078125 Z M 331.359375 320.257812 "/>
<path style=" stroke:none;fill-rule:nonzero;fill:rgb(39.99939%,39.99939%,39.99939%);fill-opacity:0.3;" d="M 334.652344 302.242188 L 343.773438 303.621094 L 341.570312 316.609375 L 332.449219 315.230469 L 332.945312 312.648438 L 339.199219 313.480469 L 340.488281 305.898438 L 334.234375 305.066406 Z M 334.652344 302.242188 "/>
<path style=" stroke:none;fill-rule:nonzero;fill:rgb(39.99939%,39.99939%,39.99939%);fill-opacity:0.3;" d="M 334.078125 306.542969 L 339.15625 307.230469 L 338.421875 312.050781 L 333.34375 311.363281 Z M 334.078125 306.542969 "/>
<path style=" stroke:none;fill-rule:nonzero;fill:rgb(39.99939%,39.99939%,39.99939%);fill-opacity:0.3;" d="M 337.53125 288.664062 L 346.652344 290.039062 L 344.449219 303.027344 L 335.328125 301.648438 L 335.824219 299.066406 L 342.078125 299.902344 L 343.371094 292.320312 L 337.113281 291.484375 Z M 337.53125 288.664062 "/>
<g clip-path="url(#clip19)" clip-rule="nonzero">
<path style=" stroke:none;fill-rule:nonzero;fill:rgb(39.99939%,39.99939%,39.99939%);fill-opacity:0.3;" d="M 341.09375 260.480469 L 358.679688 263.019531 L 380.230469 288.316406 L 372.210938 343.984375 L 371.0625 351.957031 L 323.964844 343.449219 L 339.515625 267.132812 Z M 341.09375 260.480469 "/>
</g>
<path style=" stroke:none;fill-rule:nonzero;fill:rgb(39.99939%,39.99939%,39.99939%);fill-opacity:0.3;" d="M 158.96875 115.492188 L 159.691406 110.074219 L 160.054688 105.6875 L 161.132812 99.957031 L 161.429688 98.839844 L 160.105469 108.085938 Z M 158.96875 115.492188 "/>
<path style=" stroke:none;fill-rule:nonzero;fill:rgb(39.99939%,39.99939%,39.99939%);fill-opacity:0.3;" d="M 157.234375 130.792969 L 156.992188 130.816406 L 157.234375 129.34375 Z M 157.234375 130.792969 "/>
<path style=" stroke:none;fill-rule:nonzero;fill:rgb(39.99939%,39.99939%,39.99939%);fill-opacity:0.3;" d="M 123.382812 82.894531 L 159.191406 94.46875 L 157.039062 104.921875 L 133.695312 100.238281 L 133.601562 101.085938 L 133.511719 101.925781 L 140.460938 103.601562 L 136.339844 120.464844 L 137.429688 120.691406 L 137.945312 120.800781 L 142.421875 103.765625 L 156.5 106.609375 L 155.0625 115.714844 L 154.339844 123.136719 L 153.972656 132.242188 L 154.324219 137.300781 L 154.675781 140.507812 L 148.4375 140.011719 L 142.199219 139.34375 L 134.714844 137.667969 L 127.585938 135.824219 L 121.527344 133.804688 L 117.429688 132.125 Z M 123.382812 82.894531 "/>
<path style=" stroke:none;fill-rule:nonzero;fill:rgb(39.99939%,39.99939%,39.99939%);fill-opacity:0.3;" d="M 157.1875 132.503906 L 157.203125 132.5 L 157.1875 133.035156 Z M 157.1875 132.503906 "/>
<path style=" stroke:none;fill-rule:nonzero;fill:rgb(39.99939%,39.99939%,39.99939%);fill-opacity:0.3;" d="M 94.257812 231.324219 L 105.519531 233.34375 L 100.710938 299.472656 L 88.742188 297.292969 Z M 94.257812 231.324219 "/>
<path style=" stroke:none;fill-rule:nonzero;fill:rgb(39.99939%,39.99939%,39.99939%);fill-opacity:0.3;" d="M 154.414062 308.492188 L 154.644531 302.082031 L 154.71875 308.570312 Z M 154.414062 308.492188 "/>
<path style=" stroke:none;fill-rule:nonzero;fill:rgb(39.99939%,39.99939%,39.99939%);fill-opacity:0.3;" d="M 109.648438 234.082031 L 153.242188 242.929688 L 152.582031 279.511719 L 126.878906 273.292969 L 126.804688 274 L 126.707031 274.941406 L 152.757812 281.15625 L 152.070312 307.820312 L 150.742188 307.53125 L 123.101562 300.308594 L 116.703125 300.191406 L 104.835938 297.632812 Z M 109.648438 234.082031 "/>
<path style=" stroke:none;fill-rule:nonzero;fill:rgb(39.99939%,39.99939%,39.99939%);fill-opacity:0.3;" d="M 116.699219 149.5625 L 127.953125 153.050781 L 130.898438 139.476562 L 137.988281 140.78125 L 145.699219 142.230469 L 155.863281 143.457031 L 154.925781 169.710938 L 150.4375 169.046875 L 138.066406 163.0625 L 131.261719 161.898438 L 131.101562 167.902344 L 132.105469 168.195312 L 133.113281 168.484375 L 133.578125 163.652344 L 137.136719 164.527344 L 146.417969 168.613281 L 149.355469 170.21875 L 154.925781 171.238281 L 153.976562 190.742188 L 153.957031 240.847656 L 109.878906 231.652344 L 113.507812 189.472656 Z M 116.699219 149.5625 "/>
<path style=" stroke:none;fill-rule:nonzero;fill:rgb(39.99939%,39.99939%,39.99939%);fill-opacity:0.3;" d="M 97.210938 177.007812 L 108.464844 178.746094 L 103.835938 230.496094 L 92.5625 228.550781 Z M 97.210938 177.007812 "/>
<path style=" stroke:none;fill-rule:nonzero;fill:rgb(39.99939%,39.99939%,39.99939%);fill-opacity:0.3;" d="M 117.535156 135.472656 L 120.386719 136.144531 L 125.019531 137.65625 L 129.117188 138.496094 L 126.253906 151.148438 L 115.917969 147.789062 Z M 117.535156 135.472656 "/>
<path style=" stroke:none;fill-rule:nonzero;fill:rgb(39.99939%,39.99939%,39.99939%);fill-opacity:0.3;" d="M 102.570312 126.152344 L 113.4375 131.367188 L 108.710938 176.648438 L 97.207031 175.164062 Z M 102.570312 126.152344 "/>
<path style=" stroke:none;fill-rule:nonzero;fill:rgb(39.99939%,39.99939%,39.99939%);fill-opacity:0.3;" d="M 71.59375 109.84375 L 88.804688 117.804688 L 84.859375 163.453125 L 61.910156 158.8125 Z M 71.59375 109.84375 "/>
<path style=" stroke:none;fill-rule:nonzero;fill:rgb(39.99939%,39.99939%,39.99939%);fill-opacity:0.3;" d="M 69.726562 108.800781 L 59.273438 158.089844 L 51.816406 156.148438 L 51.429688 150.066406 L 55.558594 101.714844 Z M 69.726562 108.800781 "/>
<path style=" stroke:none;fill-rule:nonzero;fill:rgb(39.99939%,39.99939%,39.99939%);fill-opacity:0.3;" d="M 91.851562 101.117188 L 84.675781 112.894531 L 55.667969 97.023438 L 56.039062 93.457031 L 86.277344 73.429688 L 87.992188 72.398438 L 90.015625 72.398438 L 91.726562 72.691406 L 93.128906 73.277344 L 94.214844 74.160156 Z M 91.851562 101.117188 "/>
<path style=" stroke:none;fill-rule:nonzero;fill:rgb(39.99939%,39.99939%,39.99939%);fill-opacity:0.3;" d="M 107.339844 78.699219 L 119.28125 81.214844 L 115.292969 127.40625 L 104.242188 122.699219 Z M 107.339844 78.699219 "/>
<path style=" stroke:none;fill-rule:nonzero;fill:rgb(39.99939%,39.99939%,39.99939%);fill-opacity:0.3;" d="M 90.617188 68.546875 L 89.835938 70.3125 L 84.8125 70.4375 L 81.660156 71.234375 L 78.925781 72.625 L 74.402344 75.40625 L 53.148438 89.917969 L 55.285156 55.894531 Z M 90.617188 68.546875 "/>
<path style=" stroke:none;fill-rule:nonzero;fill:rgb(39.99939%,39.99939%,39.99939%);fill-opacity:0.3;" d="M 71.574219 58.335938 L 55.695312 53.121094 L 55.761719 51.429688 L 62.378906 54.910156 Z M 71.574219 58.335938 "/>
<path style="fill-rule:nonzero;fill:rgb(39.99939%,39.99939%,39.99939%);fill-opacity:1;stroke-width:0.03;stroke-linecap:square;stroke-linejoin:miter;stroke:rgb(39.99939%,39.99939%,39.99939%);stroke-opacity:1;stroke-miterlimit:3.239307;" d="M 232.96875 128.492188 L 233.691406 123.074219 L 234.054688 118.6875 L 235.132812 112.957031 L 235.429688 111.839844 L 234.105469 121.085938 Z M 232.96875 128.492188 " transform="matrix(1,0,0,1,-74,-13)"/>
<path style="fill-rule:nonzero;fill:rgb(39.99939%,39.99939%,39.99939%);fill-opacity:1;stroke-width:0.03;stroke-linecap:square;stroke-linejoin:miter;stroke:rgb(39.99939%,39.99939%,39.99939%);stroke-opacity:1;stroke-miterlimit:3.239307;" d="M 231.234375 143.792969 L 230.992188 143.816406 L 231.234375 142.34375 Z M 231.234375 143.792969 " transform="matrix(1,0,0,1,-74,-13)"/>
<path style="fill-rule:nonzero;fill:rgb(39.99939%,39.99939%,39.99939%);fill-opacity:1;stroke-width:0.03;stroke-linecap:square;stroke-linejoin:miter;stroke:rgb(39.99939%,39.99939%,39.99939%);stroke-opacity:1;stroke-miterlimit:3.239307;" d="M 197.382812 95.894531 L 233.191406 107.46875 L 231.039062 117.921875 L 207.695312 113.238281 L 207.601562 114.085938 L 207.511719 114.925781 L 214.460938 116.601562 L 210.339844 133.464844 L 211.429688 133.691406 L 211.945312 133.800781 L 216.421875 116.765625 L 230.5 119.609375 L 229.0625 128.714844 L 228.339844 136.136719 L 227.972656 145.242188 L 228.324219 150.300781 L 228.675781 153.507812 L 222.4375 153.011719 L 216.199219 152.34375 L 208.714844 150.667969 L 201.585938 148.824219 L 195.527344 146.804688 L 191.429688 145.125 Z M 197.382812 95.894531 " transform="matrix(1,0,0,1,-74,-13)"/>
<path style="fill-rule:nonzero;fill:rgb(39.99939%,39.99939%,39.99939%);fill-opacity:1;stroke-width:0.03;stroke-linecap:square;stroke-linejoin:miter;stroke:rgb(39.99939%,39.99939%,39.99939%);stroke-opacity:1;stroke-miterlimit:3.239307;" d="M 231.1875 145.503906 L 231.203125 145.5 L 231.1875 146.035156 Z M 231.1875 145.503906 " transform="matrix(1,0,0,1,-74,-13)"/>
<path style="fill-rule:nonzero;fill:rgb(39.99939%,39.99939%,39.99939%);fill-opacity:1;stroke-width:0.03;stroke-linecap:square;stroke-linejoin:miter;stroke:rgb(39.99939%,39.99939%,39.99939%);stroke-opacity:1;stroke-miterlimit:3.239307;" d="M 168.257812 244.324219 L 179.519531 246.34375 L 174.710938 312.472656 L 162.742188 310.292969 Z M 168.257812 244.324219 " transform="matrix(1,0,0,1,-74,-13)"/>
<path style="fill-rule:nonzero;fill:rgb(39.99939%,39.99939%,39.99939%);fill-opacity:1;stroke-width:0.03;stroke-linecap:square;stroke-linejoin:miter;stroke:rgb(39.99939%,39.99939%,39.99939%);stroke-opacity:1;stroke-miterlimit:3.239307;" d="M 228.414062 321.492188 L 228.644531 315.082031 L 228.71875 321.570312 Z M 228.414062 321.492188 " transform="matrix(1,0,0,1,-74,-13)"/>
<path style="fill-rule:nonzero;fill:rgb(39.99939%,39.99939%,39.99939%);fill-opacity:1;stroke-width:0.03;stroke-linecap:square;stroke-linejoin:miter;stroke:rgb(39.99939%,39.99939%,39.99939%);stroke-opacity:1;stroke-miterlimit:3.239307;" d="M 183.648438 247.082031 L 227.242188 255.929688 L 226.582031 292.511719 L 200.878906 286.292969 L 200.804688 287 L 200.707031 287.941406 L 226.757812 294.15625 L 226.070312 320.820312 L 224.742188 320.53125 L 197.101562 313.308594 L 190.703125 313.191406 L 178.835938 310.632812 Z M 183.648438 247.082031 " transform="matrix(1,0,0,1,-74,-13)"/>
<path style="fill-rule:nonzero;fill:rgb(39.99939%,39.99939%,39.99939%);fill-opacity:1;stroke-width:0.03;stroke-linecap:square;stroke-linejoin:miter;stroke:rgb(39.99939%,39.99939%,39.99939%);stroke-opacity:1;stroke-miterlimit:3.239307;" d="M 190.699219 162.5625 L 201.953125 166.050781 L 204.898438 152.476562 L 211.988281 153.78125 L 219.699219 155.230469 L 229.863281 156.457031 L 228.925781 182.710938 L 224.4375 182.046875 L 212.066406 176.0625 L 205.261719 174.898438 L 205.101562 180.902344 L 206.105469 181.195312 L 207.113281 181.484375 L 207.578125 176.652344 L 211.136719 177.527344 L 220.417969 181.613281 L 223.355469 183.21875 L 228.925781 184.238281 L 227.976562 203.742188 L 227.957031 253.847656 L 183.878906 244.652344 L 187.507812 202.472656 Z M 190.699219 162.5625 " transform="matrix(1,0,0,1,-74,-13)"/>
<path style="fill-rule:nonzero;fill:rgb(39.99939%,39.99939%,39.99939%);fill-opacity:1;stroke-width:0.03;stroke-linecap:square;stroke-linejoin:miter;stroke:rgb(39.99939%,39.99939%,39.99939%);stroke-opacity:1;stroke-miterlimit:3.239307;" d="M 171.210938 190.007812 L 182.464844 191.746094 L 177.835938 243.496094 L 166.5625 241.550781 Z M 171.210938 190.007812 " transform="matrix(1,0,0,1,-74,-13)"/>
<path style="fill-rule:nonzero;fill:rgb(39.99939%,39.99939%,39.99939%);fill-opacity:1;stroke-width:0.03;stroke-linecap:square;stroke-linejoin:miter;stroke:rgb(39.99939%,39.99939%,39.99939%);stroke-opacity:1;stroke-miterlimit:3.239307;" d="M 191.535156 148.472656 L 194.386719 149.144531 L 199.019531 150.65625 L 203.117188 151.496094 L 200.253906 164.148438 L 189.917969 160.789062 Z M 191.535156 148.472656 " transform="matrix(1,0,0,1,-74,-13)"/>
<path style="fill-rule:nonzero;fill:rgb(39.99939%,39.99939%,39.99939%);fill-opacity:1;stroke-width:0.03;stroke-linecap:square;stroke-linejoin:miter;stroke:rgb(39.99939%,39.99939%,39.99939%);stroke-opacity:1;stroke-miterlimit:3.239307;" d="M 176.570312 139.152344 L 187.4375 144.367188 L 182.710938 189.648438 L 171.207031 188.164062 Z M 176.570312 139.152344 " transform="matrix(1,0,0,1,-74,-13)"/>
<path style="fill-rule:nonzero;fill:rgb(39.99939%,39.99939%,39.99939%);fill-opacity:1;stroke-width:0.03;stroke-linecap:square;stroke-linejoin:miter;stroke:rgb(39.99939%,39.99939%,39.99939%);stroke-opacity:1;stroke-miterlimit:3.239307;" d="M 145.59375 122.84375 L 162.804688 130.804688 L 158.859375 176.453125 L 135.910156 171.8125 Z M 145.59375 122.84375 " transform="matrix(1,0,0,1,-74,-13)"/>
<path style="fill-rule:nonzero;fill:rgb(39.99939%,39.99939%,39.99939%);fill-opacity:1;stroke-width:0.03;stroke-linecap:square;stroke-linejoin:miter;stroke:rgb(39.99939%,39.99939%,39.99939%);stroke-opacity:1;stroke-miterlimit:3.239307;" d="M 143.726562 121.800781 L 133.273438 171.089844 L 125.816406 169.148438 L 125.429688 163.066406 L 129.558594 114.714844 Z M 143.726562 121.800781 " transform="matrix(1,0,0,1,-74,-13)"/>
<path style="fill-rule:nonzero;fill:rgb(39.99939%,39.99939%,39.99939%);fill-opacity:1;stroke-width:0.03;stroke-linecap:square;stroke-linejoin:miter;stroke:rgb(39.99939%,39.99939%,39.99939%);stroke-opacity:1;stroke-miterlimit:3.239307;" d="M 165.851562 114.117188 L 158.675781 125.894531 L 129.667969 110.023438 L 130.039062 106.457031 L 160.277344 86.429688 L 161.992188 85.398438 L 164.015625 85.398438 L 165.726562 85.691406 L 167.128906 86.277344 L 168.214844 87.160156 Z M 165.851562 114.117188 " transform="matrix(1,0,0,1,-74,-13)"/>
<path style="fill-rule:nonzero;fill:rgb(39.99939%,39.99939%,39.99939%);fill-opacity:1;stroke-width:0.03;stroke-linecap:square;stroke-linejoin:miter;stroke:rgb(39.99939%,39.99939%,39.99939%);stroke-opacity:1;stroke-miterlimit:3.239307;" d="M 181.339844 91.699219 L 193.28125 94.214844 L 189.292969 140.40625 L 178.242188 135.699219 Z M 181.339844 91.699219 " transform="matrix(1,0,0,1,-74,-13)"/>
<path style="fill-rule:nonzero;fill:rgb(39.99939%,39.99939%,39.99939%);fill-opacity:1;stroke-width:0.03;stroke-linecap:square;stroke-linejoin:miter;stroke:rgb(39.99939%,39.99939%,39.99939%);stroke-opacity:1;stroke-miterlimit:3.239307;" d="M 164.617188 81.546875 L 163.835938 83.3125 L 158.8125 83.4375 L 155.660156 84.234375 L 152.925781 85.625 L 148.402344 88.40625 L 127.148438 102.917969 L 129.285156 68.894531 Z M 164.617188 81.546875 " transform="matrix(1,0,0,1,-74,-13)"/>
<path style="fill-rule:nonzero;fill:rgb(39.99939%,39.99939%,39.99939%);fill-opacity:1;stroke-width:0.03;stroke-linecap:square;stroke-linejoin:miter;stroke:rgb(39.99939%,39.99939%,39.99939%);stroke-opacity:1;stroke-miterlimit:3.239307;" d="M 145.574219 71.335938 L 129.695312 66.121094 L 129.761719 64.429688 L 136.378906 67.910156 Z M 145.574219 71.335938 " transform="matrix(1,0,0,1,-74,-13)"/>
<path style=" stroke:none;fill-rule:evenodd;fill:rgb(85.096741%,85.096741%,81.959534%);fill-opacity:0.7;" d="M 86.371094 220 C 86.371094 216.1875 84.859375 212.53125 82.164062 209.835938 C 79.46875 207.140625 75.8125 205.628906 72 205.628906 C 68.1875 205.628906 64.53125 207.140625 61.835938 209.835938 C 59.140625 212.53125 57.628906 216.1875 57.628906 220 C 57.628906 223.8125 59.140625 227.46875 61.835938 230.164062 C 64.53125 232.859375 68.1875 234.371094 72 234.371094 C 75.8125 234.371094 79.46875 232.859375 82.164062 230.164062 C 84.859375 227.46875 86.371094 223.8125 86.371094 220 Z M 86.371094 220 "/>
<path style=" stroke:none;fill-rule:evenodd;fill:rgb(85.096741%,85.096741%,81.959534%);fill-opacity:0.7;" d="M 249.371094 179 C 249.371094 175.1875 247.859375 171.53125 245.164062 168.835938 C 242.46875 166.140625 238.8125 164.628906 235 164.628906 C 231.1875 164.628906 227.53125 166.140625 224.835938 168.835938 C 222.140625 171.53125 220.628906 175.1875 220.628906 179 C 220.628906 182.8125 222.140625 186.46875 224.835938 189.164062 C 227.53125 191.859375 231.1875 193.371094 235 193.371094 C 238.8125 193.371094 242.46875 191.859375 245.164062 189.164062 C 247.859375 186.46875 249.371094 182.8125 249.371094 179 Z M 249.371094 179 "/>
<path style=" stroke:none;fill-rule:evenodd;fill:rgb(85.096741%,85.096741%,81.959534%);fill-opacity:0.7;" d="M 359.371094 109 C 359.371094 105.1875 357.859375 101.53125 355.164062 98.835938 C 352.46875 96.140625 348.8125 94.628906 345 94.628906 C 341.1875 94.628906 337.53125 96.140625 334.835938 98.835938 C 332.140625 101.53125 330.628906 105.1875 330.628906 109 C 330.628906 112.8125 332.140625 116.46875 334.835938 119.164062 C 337.53125 121.859375 341.1875 123.371094 345 123.371094 C 348.8125 123.371094 352.46875 121.859375 355.164062 119.164062 C 357.859375 116.46875 359.371094 112.8125 359.371094 109 Z M 359.371094 109 "/>
<path style=" stroke:none;fill-rule:evenodd;fill:rgb(85.096741%,85.096741%,81.959534%);fill-opacity:0.7;" d="M 139.371094 61 C 139.371094 57.1875 137.859375 53.53125 135.164062 50.835938 C 132.46875 48.140625 128.8125 46.628906 125 46.628906 C 121.1875 46.628906 117.53125 48.140625 114.835938 50.835938 C 112.140625 53.53125 110.628906 57.1875 110.628906 61 C 110.628906 64.8125 112.140625 68.46875 114.835938 71.164062 C 117.53125 73.859375 121.1875 75.371094 125 75.371094 C 128.8125 75.371094 132.46875 73.859375 135.164062 71.164062 C 137.859375 68.46875 139.371094 64.8125 139.371094 61 Z M 139.371094 61 "/>
<path style=" stroke:none;fill-rule:evenodd;fill:rgb(85.096741%,85.096741%,81.959534%);fill-opacity:0.7;" d="M 169.371094 295 C 169.371094 291.1875 167.859375 287.53125 165.164062 284.835938 C 162.46875 282.140625 158.8125 280.628906 155 280.628906 C 151.1875 280.628906 147.53125 282.140625 144.835938 284.835938 C 142.140625 287.53125 140.628906 291.1875 140.628906 295 C 140.628906 298.8125 142.140625 302.46875 144.835938 305.164062 C 147.53125 307.859375 151.1875 309.371094 155 309.371094 C 158.8125 309.371094 162.46875 307.859375 165.164062 305.164062 C 167.859375 302.46875 169.371094 298.8125 169.371094 295 Z M 169.371094 295 "/>
<path style=" stroke:none;fill-rule:evenodd;fill:rgb(85.096741%,85.096741%,81.959534%);fill-opacity:0.7;" d="M 295.371094 143 C 295.371094 139.1875 293.859375 135.53125 291.164062 132.835938 C 288.46875 130.140625 284.8125 128.628906 281 128.628906 C 277.1875 128.628906 273.53125 130.140625 270.835938 132.835938 C 268.140625 135.53125 266.628906 139.1875 266.628906 143 C 266.628906 146.8125 268.140625 150.46875 270.835938 153.164062 C 273.53125 155.859375 277.1875 157.371094 281 157.371094 C 284.8125 157.371094 288.46875 155.859375 291.164062 153.164062 C 293.859375 150.46875 295.371094 146.8125 295.371094 143 Z M 295.371094 143 "/>
</g>
</svg>
