<?xml version="1.0" encoding="UTF-8"?>
<svg xmlns="http://www.w3.org/2000/svg" xmlns:xlink="http://www.w3.org/1999/xlink" width="361pt" height="361pt" viewBox="0 0 361 361" version="1.1">
<defs>
<clipPath id="clip1">
  <path d="M 354 229 L 360 229 L 360 255 L 354 255 Z M 354 229 "/>
</clipPath>
<clipPath id="clip2">
  <path d="M 328 201 L 360 201 L 360 227 L 328 227 Z M 328 201 "/>
</clipPath>
<clipPath id="clip3">
  <path d="M 328 105 L 360 105 L 360 130 L 328 130 Z M 328 105 "/>
</clipPath>
<clipPath id="clip4">
  <path d="M 333 126 L 360 126 L 360 151 L 333 151 Z M 333 126 "/>
</clipPath>
<clipPath id="clip5">
  <path d="M 346 148 L 360 148 L 360 171 L 346 171 Z M 346 148 "/>
</clipPath>
<clipPath id="clip6">
  <path d="M 337 166 L 360 166 L 360 205 L 337 205 Z M 337 166 "/>
</clipPath>
<clipPath id="clip7">
  <path d="M 359 86 L 360 86 L 360 102 L 359 102 Z M 359 86 "/>
</clipPath>
<clipPath id="clip8">
  <path d="M 0 359 L 31 359 L 31 360 L 0 360 Z M 0 359 "/>
</clipPath>
<clipPath id="clip9">
  <path d="M 0 355 L 1 355 L 1 360 L 0 360 Z M 0 355 "/>
</clipPath>
<clipPath id="clip10">
  <path d="M 0 310 L 45 310 L 45 360 L 0 360 Z M 0 310 "/>
</clipPath>
<clipPath id="clip11">
  <path d="M 352 0 L 360 0 L 360 31 L 352 31 Z M 352 0 "/>
</clipPath>
<clipPath id="clip12">
  <path d="M 283 0 L 360 0 L 360 24 L 283 24 Z M 283 0 "/>
</clipPath>
<clipPath id="clip13">
  <path d="M 276 11 L 360 11 L 360 73 L 276 73 Z M 276 11 "/>
</clipPath>
<clipPath id="clip14">
  <path d="M 343 149 L 360 149 L 360 169 L 343 169 Z M 343 149 "/>
</clipPath>
<clipPath id="clip15">
  <path d="M 328 318 L 360 318 L 360 357 L 328 357 Z M 328 318 "/>
</clipPath>
<clipPath id="clip16">
  <path d="M 327 317 L 360 317 L 360 358 L 327 358 Z M 327 317 "/>
</clipPath>
<clipPath id="clip17">
  <path d="M 328 29 L 360 29 L 360 67 L 328 67 Z M 328 29 "/>
</clipPath>
<clipPath id="clip18">
  <path d="M 327 28 L 360 28 L 360 69 L 327 69 Z M 327 28 "/>
</clipPath>
</defs>
<g id="surface1337">
<path style="fill-rule:nonzero;fill:rgb(0%,0%,0%);fill-opacity:1;stroke-width:0.03;stroke-linecap:square;stroke-linejoin:miter;stroke:rgb(0%,0%,0%);stroke-opacity:1;stroke-miterlimit:10;" d="M 0 178 L 360 178 L 360 -182 L 0 -182 Z M 0 178 " transform="matrix(1,0,0,1,0,182)"/>
<g clip-path="url(#clip1)" clip-rule="nonzero">
<path style=" stroke:none;fill-rule:nonzero;fill:rgb(39.99939%,39.99939%,39.99939%);fill-opacity:0.3;" d="M 359.132812 229.917969 L 382.351562 236 L 377.222656 254.351562 L 354.273438 248.933594 Z M 359.132812 229.917969 "/>
</g>
<g clip-path="url(#clip2)" clip-rule="nonzero">
<path style=" stroke:none;fill-rule:nonzero;fill:rgb(39.99939%,39.99939%,39.99939%);fill-opacity:0.3;" d="M 336.742188 201.378906 L 361.144531 207.652344 L 356.449219 226.65625 L 328.289062 220.042969 L 330.914062 213.667969 Z M 336.742188 201.378906 "/>
</g>
<path style=" stroke:none;fill-rule:nonzero;fill:rgb(39.99939%,39.99939%,39.99939%);fill-opacity:0.3;" d="M 327.207031 221.859375 L 356.078125 229.226562 L 350.292969 248.066406 L 319.59375 239.742188 Z M 327.207031 221.859375 "/>
<path style=" stroke:none;fill-rule:nonzero;fill:rgb(39.99939%,39.99939%,39.99939%);fill-opacity:0.3;" d="M 319.417969 111.859375 L 325.679688 110.546875 L 329.503906 128.535156 L 327.433594 128.957031 Z M 319.417969 111.859375 "/>
<path style=" stroke:none;fill-rule:nonzero;fill:rgb(39.99939%,39.99939%,39.99939%);fill-opacity:0.3;" d="M 313.3125 110.449219 L 302.113281 112.933594 L 297.328125 87.953125 L 299.902344 87.460938 Z M 313.3125 110.449219 "/>
<path style=" stroke:none;fill-rule:nonzero;fill:rgb(39.99939%,39.99939%,39.99939%);fill-opacity:0.3;" d="M 302.445312 114.835938 L 314.664062 112.808594 L 324.070312 129.523438 L 304.40625 126.394531 Z M 302.445312 114.835938 "/>
<path style=" stroke:none;fill-rule:nonzero;fill:rgb(39.99939%,39.99939%,39.99939%);fill-opacity:0.3;" d="M 302.476562 83.207031 L 320.238281 85.792969 L 325.128906 108.058594 L 317.222656 109.785156 Z M 302.476562 83.207031 "/>
<path style=" stroke:none;fill-rule:nonzero;fill:rgb(39.99939%,39.99939%,39.99939%);fill-opacity:0.3;" d="M 323.71875 86.070312 L 331.296875 85.160156 L 339.65625 84.886719 L 355.222656 86.375 L 358.585938 102.589844 L 328.210938 107.453125 Z M 323.71875 86.070312 "/>
<g clip-path="url(#clip3)" clip-rule="nonzero">
<path style=" stroke:none;fill-rule:nonzero;fill:rgb(39.99939%,39.99939%,39.99939%);fill-opacity:0.3;" d="M 328.414062 110.195312 L 359.265625 105.355469 L 362.976562 123.3125 L 331.941406 129.714844 Z M 328.414062 110.195312 "/>
</g>
<g clip-path="url(#clip4)" clip-rule="nonzero">
<path style=" stroke:none;fill-rule:nonzero;fill:rgb(39.99939%,39.99939%,39.99939%);fill-opacity:0.3;" d="M 336.488281 141.988281 L 334.019531 134.378906 L 333.886719 133.027344 L 335.625 132.429688 L 363.734375 126.238281 L 367.96875 145.953125 L 346.601562 150.421875 L 338.953125 145.054688 Z M 336.488281 141.988281 "/>
</g>
<g clip-path="url(#clip5)" clip-rule="nonzero">
<path style=" stroke:none;fill-rule:nonzero;fill:rgb(39.99939%,39.99939%,39.99939%);fill-opacity:0.3;" d="M 346.546875 152.855469 L 368.425781 148.402344 L 373.140625 167.652344 L 360.519531 170.183594 Z M 346.546875 152.855469 "/>
</g>
<g clip-path="url(#clip6)" clip-rule="nonzero">
<path style=" stroke:none;fill-rule:nonzero;fill:rgb(39.99939%,39.99939%,39.99939%);fill-opacity:0.3;" d="M 351.679688 166.21875 L 367.875 183.035156 L 361.90625 204.746094 L 337.542969 198.269531 Z M 351.679688 166.21875 "/>
</g>
<g clip-path="url(#clip7)" clip-rule="nonzero">
<path style=" stroke:none;fill-rule:nonzero;fill:rgb(39.99939%,39.99939%,39.99939%);fill-opacity:0.3;" d="M 359.464844 86.578125 L 391.136719 88.613281 L 392.449219 95.523438 L 362.746094 101.84375 Z M 359.464844 86.578125 "/>
</g>
<path style=" stroke:none;fill-rule:nonzero;fill:rgb(39.99939%,39.99939%,39.99939%);fill-opacity:0.3;" d="M 326.121094 133.0625 L 349.347656 163.636719 L 333.8125 199.636719 L 333.503906 199.574219 L 331.757812 199.078125 L 317.296875 226.503906 L 312.3125 226.003906 L 306.824219 225.503906 L 299.097656 225.257812 L 292.863281 224.507812 L 284.386719 224.007812 L 278.152344 223.511719 L 272.167969 223.261719 L 266.183594 222.511719 L 261.199219 222.265625 L 256.460938 222.265625 L 253.46875 222.015625 L 249.730469 221.765625 L 242.996094 221.765625 L 242.996094 179.878906 L 242.746094 151.953125 L 242.996094 128.515625 L 243.246094 126.519531 L 244.742188 125.523438 L 246.738281 125.523438 L 252.222656 126.269531 L 260.699219 127.269531 L 268.179688 128.015625 L 276.90625 129.511719 L 284.136719 130.511719 L 301.839844 132.753906 L 293.613281 156.191406 L 302.835938 156.9375 L 310.566406 157.6875 L 318.046875 158.433594 L 323.53125 145.71875 L 326.523438 139.984375 L 323.78125 137.988281 L 320.289062 136.492188 Z M 326.121094 133.0625 "/>
<path style=" stroke:none;fill-rule:nonzero;fill:rgb(39.99939%,39.99939%,39.99939%);fill-opacity:0.3;" d="M 345.917969 71.667969 L 342.234375 71.835938 L 335.820312 71.785156 L 327.027344 71.027344 L 333.503906 71.167969 L 345.472656 71.667969 Z M 345.917969 71.667969 "/>
<path style=" stroke:none;fill-rule:nonzero;fill:rgb(39.99939%,39.99939%,39.99939%);fill-opacity:0.3;" d="M 60.863281 308.460938 L 53.042969 307.4375 L 51.429688 307.207031 L 51.960938 304.988281 L 53.070312 302.605469 L 55.113281 299.722656 L 57.679688 297.171875 L 60.597656 294.175781 L 64.507812 290.460938 L 70.140625 285.203125 L 76.914062 279.550781 L 84.734375 273.058594 L 89.589844 268.8125 L 90.5 268.644531 L 91.667969 270.023438 L 92.042969 271.546875 L 91.457031 272.949219 L 66.984375 302.960938 L 66.785156 303.859375 L 66.859375 304.789062 L 68.335938 306.714844 L 70.019531 307.746094 L 66.476562 308.28125 L 62.113281 308.570312 Z M 60.863281 308.460938 "/>
<path style=" stroke:none;fill-rule:nonzero;fill:rgb(39.99939%,39.99939%,39.99939%);fill-opacity:0.3;" d="M 112.773438 248.335938 L 117.476562 249.597656 L 111.730469 255.980469 L 103.316406 263.902344 L 96.464844 268.914062 L 94.664062 270.011719 L 93.53125 270.289062 L 92.394531 269.699219 L 91.679688 268.917969 L 91.484375 267.679688 L 93.683594 265.671875 L 98.167969 262.183594 L 102.894531 258.085938 L 108.1875 252.832031 Z M 112.773438 248.335938 "/>
<path style=" stroke:none;fill-rule:nonzero;fill:rgb(39.99939%,39.99939%,39.99939%);fill-opacity:0.3;" d="M 187.851562 274.179688 L 194.878906 281.351562 L 201.34375 284.300781 L 215.824219 287.390625 L 212.394531 301.292969 L 182.566406 301.472656 L 184.976562 293.496094 L 183.074219 292.144531 L 182.601562 291.425781 Z M 187.851562 274.179688 "/>
<path style=" stroke:none;fill-rule:nonzero;fill:rgb(39.99939%,39.99939%,39.99939%);fill-opacity:0.3;" d="M 184.273438 265.421875 L 208.671875 266.960938 L 219.796875 272.128906 L 215.828125 286.5 L 201.863281 283.546875 L 195.507812 280.367188 L 188.796875 273.796875 L 187.464844 271.996094 L 182.710938 269.886719 Z M 184.273438 265.421875 "/>
<path style=" stroke:none;fill-rule:nonzero;fill:rgb(39.99939%,39.99939%,39.99939%);fill-opacity:0.3;" d="M 170.671875 266.523438 L 187.324219 273.144531 L 181.507812 291.246094 L 182.507812 292.550781 L 184.027344 293.765625 L 181.378906 301.699219 L 159.886719 301.507812 L 164.230469 283.410156 Z M 170.671875 266.523438 "/>
<path style=" stroke:none;fill-rule:nonzero;fill:rgb(39.99939%,39.99939%,39.99939%);fill-opacity:0.3;" d="M 115.890625 300.578125 L 116.011719 298.816406 L 118.492188 299.046875 L 129.84375 255.808594 L 169.769531 266.75 L 162.804688 283.367188 L 158.652344 301.375 L 136.398438 300.496094 Z M 115.890625 300.578125 "/>
<path style=" stroke:none;fill-rule:nonzero;fill:rgb(39.99939%,39.99939%,39.99939%);fill-opacity:0.3;" d="M 119.617188 283.457031 L 102.71875 279.476562 L 91.324219 276.378906 L 94.371094 272.117188 L 96.472656 271.28125 L 104.359375 264.511719 L 112.542969 256.699219 L 118.359375 249.847656 L 128.53125 252.632812 Z M 119.617188 283.457031 "/>
<path style=" stroke:none;fill-rule:nonzero;fill:rgb(39.99939%,39.99939%,39.99939%);fill-opacity:0.3;" d="M 170.878906 264.816406 L 171.800781 262.394531 L 183.132812 265.335938 L 181.808594 269.390625 Z M 170.878906 264.816406 "/>
<path style=" stroke:none;fill-rule:nonzero;fill:rgb(39.99939%,39.99939%,39.99939%);fill-opacity:0.3;" d="M 131.246094 252.730469 L 170.992188 262.253906 L 169.832031 265.019531 L 130.957031 254.296875 Z M 131.246094 252.730469 "/>
<path style=" stroke:none;fill-rule:nonzero;fill:rgb(39.99939%,39.99939%,39.99939%);fill-opacity:0.3;" d="M 89.152344 277.820312 L 119.046875 284.835938 L 116.066406 297.492188 L 113.972656 297.316406 L 113.242188 300.011719 L 105.679688 299.671875 L 100.222656 300.382812 L 96.871094 300.691406 L 94.769531 301.332031 L 91.917969 302.042969 L 89.773438 302.277344 L 79.207031 305.21875 L 75.957031 305.785156 L 74.03125 306.238281 L 70.222656 306.777344 L 69.351562 306.449219 L 68.4375 305.417969 L 67.945312 304.1875 L 68.011719 303.125 L 71.589844 299.09375 Z M 89.152344 277.820312 "/>
<path style=" stroke:none;fill-rule:nonzero;fill:rgb(39.99939%,39.99939%,39.99939%);fill-opacity:0.3;" d="M 212.011719 266.558594 L 258.578125 265.914062 L 272.535156 269.992188 L 265.058594 290.214844 L 247.472656 281.609375 L 248.867188 278.273438 L 247.414062 277.625 L 245.90625 280.699219 Z M 212.011719 266.558594 "/>
<path style=" stroke:none;fill-rule:nonzero;fill:rgb(39.99939%,39.99939%,39.99939%);fill-opacity:0.3;" d="M 291.191406 304.429688 L 290.394531 304.390625 L 305.855469 267.382812 L 307.648438 264.148438 L 308.570312 264.152344 L 305.578125 271.132812 L 294.609375 296.316406 Z M 291.191406 304.429688 "/>
<path style=" stroke:none;fill-rule:nonzero;fill:rgb(39.99939%,39.99939%,39.99939%);fill-opacity:0.3;" d="M 241.8125 281.160156 L 241.582031 282.757812 L 241.105469 285.382812 L 239.253906 291.613281 L 236.675781 298.273438 L 235.253906 301.476562 L 233.554688 302.609375 L 214.085938 301.417969 L 221.128906 272.867188 Z M 241.8125 281.160156 "/>
<path style=" stroke:none;fill-rule:nonzero;fill:rgb(39.99939%,39.99939%,39.99939%);fill-opacity:0.3;" d="M 237.726562 302.398438 L 236.601562 301.191406 L 237.792969 298.277344 L 240.253906 291.601562 L 241.894531 286.488281 L 243.011719 282.226562 L 268.667969 293.527344 L 269.941406 294.0625 L 270.367188 295.070312 L 270.582031 296.277344 L 270.726562 297.152344 L 270.65625 298.15625 L 270.445312 299.234375 L 270.167969 300.710938 L 269.746094 302.121094 L 269.320312 303.398438 Z M 237.726562 302.398438 "/>
<path style=" stroke:none;fill-rule:nonzero;fill:rgb(39.99939%,39.99939%,39.99939%);fill-opacity:0.3;" d="M 261.269531 265.707031 L 304.070312 266.988281 L 299.527344 278.1875 L 294.730469 290.007812 L 289.007812 304.109375 L 270.554688 303.296875 L 271.160156 300.707031 L 271.648438 298.359375 L 271.785156 296.34375 L 271.359375 294.128906 L 270.960938 292.917969 L 266.050781 290.886719 L 269.78125 280.929688 L 274.160156 269.25 Z M 261.269531 265.707031 "/>
<path style=" stroke:none;fill-rule:nonzero;fill:rgb(39.99939%,39.99939%,39.99939%);fill-opacity:0.3;" d="M 59.808594 288.855469 L 59.847656 289.054688 L 58.554688 290.273438 Z M 59.808594 288.855469 "/>
<path style=" stroke:none;fill-rule:nonzero;fill:rgb(39.99939%,39.99939%,39.99939%);fill-opacity:0.3;" d="M 67.492188 282.277344 L 61.28125 287.699219 L 61.234375 287.464844 Z M 67.492188 282.277344 "/>
<path style=" stroke:none;fill-rule:nonzero;fill:rgb(39.99939%,39.99939%,39.99939%);fill-opacity:0.3;" d="M 242.75 117.746094 L 242.039062 118.351562 L 234.671875 114.464844 L 235.113281 113.523438 Z M 242.75 117.746094 "/>
<path style=" stroke:none;fill-rule:nonzero;fill:rgb(39.99939%,39.99939%,39.99939%);fill-opacity:0.3;" d="M 336.042969 201.203125 L 336.742188 201.378906 L 330.914062 213.667969 Z M 336.042969 201.203125 "/>
<path style=" stroke:none;fill-rule:nonzero;fill:rgb(39.99939%,39.99939%,39.99939%);fill-opacity:0.3;" d="M 247.980469 120 L 246.75 119.855469 L 246.878906 119.746094 Z M 247.980469 120 "/>
<path style=" stroke:none;fill-rule:nonzero;fill:rgb(39.99939%,39.99939%,39.99939%);fill-opacity:0.3;" d="M 308.03125 263.453125 L 308.804688 263.625 L 308.570312 264.152344 L 307.648438 264.148438 Z M 308.03125 263.453125 "/>
<path style=" stroke:none;fill-rule:nonzero;fill:rgb(39.99939%,39.99939%,39.99939%);fill-opacity:0.3;" d="M 318.023438 242.214844 L 318.21875 242.265625 L 314.359375 251.023438 Z M 318.023438 242.214844 "/>
<path style=" stroke:none;fill-rule:nonzero;fill:rgb(39.99939%,39.99939%,39.99939%);fill-opacity:0.3;" d="M 143.382812 250.683594 L 115.75 244.878906 L 118.046875 239.449219 L 121.300781 233.71875 L 126.023438 228.363281 L 136.453125 220.6875 L 149.667969 210.234375 L 159.359375 202.855469 L 176.304688 182.183594 L 227.328125 124.648438 L 232.625 117.039062 L 242.492188 121.4375 L 325.136719 131.769531 L 326.121094 133.0625 L 320.289062 136.492188 L 323.78125 137.988281 L 326.523438 139.984375 L 323.53125 145.71875 L 318.046875 158.433594 L 310.566406 157.6875 L 302.835938 156.9375 L 293.613281 156.191406 L 301.839844 132.753906 L 284.136719 130.511719 L 276.90625 129.511719 L 268.179688 128.015625 L 260.699219 127.269531 L 252.222656 126.269531 L 246.738281 125.523438 L 244.742188 125.523438 L 243.246094 126.519531 L 242.996094 128.515625 L 242.746094 151.953125 L 242.996094 179.878906 L 242.996094 221.765625 L 249.730469 221.765625 L 253.46875 222.015625 L 256.460938 222.265625 L 261.199219 222.265625 L 266.183594 222.511719 L 272.167969 223.261719 L 278.152344 223.511719 L 284.386719 224.007812 L 292.863281 224.507812 L 299.097656 225.257812 L 306.824219 225.503906 L 312.3125 226.003906 L 317.296875 226.503906 L 331.757812 199.078125 L 333.503906 199.574219 L 333.8125 199.636719 L 310.128906 254.527344 L 257.5625 246.074219 L 256.03125 245.550781 L 241 240.367188 L 227.355469 235.671875 L 214.851562 231.363281 L 206.453125 228.9375 L 185.851562 224.265625 L 171.367188 223.046875 L 169.117188 233.175781 L 168.269531 233.136719 L 170.386719 222.796875 L 164.753906 220.59375 L 156.957031 234.820312 L 153.59375 233.96875 Z M 143.382812 250.683594 "/>
<path style=" stroke:none;fill-rule:nonzero;fill:rgb(39.99939%,39.99939%,39.99939%);fill-opacity:0.3;" d="M 143.429688 250.691406 L 153.613281 234.011719 L 156.976562 234.863281 L 164.765625 220.636719 L 170.34375 222.816406 L 168.230469 233.164062 L 169.148438 233.210938 L 171.398438 223.085938 L 185.84375 224.308594 L 206.4375 228.980469 L 214.828125 231.402344 L 227.324219 235.707031 L 240.96875 240.40625 L 256.003906 245.585938 L 257.546875 246.117188 L 310.109375 254.570312 L 306.386719 262.464844 L 247.863281 261.90625 L 227.597656 261.714844 L 206.03125 261.511719 L 194.582031 261.390625 L 200.75 251.992188 L 200.28125 251.777344 L 199.808594 251.566406 L 193.359375 261.316406 L 186.140625 261.320312 Z M 143.429688 250.691406 "/>
<path style=" stroke:none;fill-rule:nonzero;fill:rgb(39.99939%,39.99939%,39.99939%);fill-opacity:0.3;" d="M 252.929688 71.734375 L 255.613281 64.863281 L 256.738281 63.113281 L 258.167969 62.335938 L 260.691406 62.234375 L 282.511719 75.082031 L 278.785156 84.199219 L 278.574219 91.542969 L 278.574219 93.746094 L 277.558594 94.964844 L 270.390625 95.011719 L 268.730469 95.644531 L 255.539062 106.867188 L 242.75 117.746094 L 235.113281 113.523438 L 240.265625 102.488281 L 249.9375 79.394531 L 250.832031 77.109375 Z M 252.929688 71.734375 "/>
<path style=" stroke:none;fill-rule:nonzero;fill:rgb(39.99939%,39.99939%,39.99939%);fill-opacity:0.3;" d="M 260.234375 108.066406 L 299.882812 114.339844 L 301.601562 126.191406 L 247.980469 120 L 246.878906 119.746094 Z M 260.234375 108.066406 "/>
<path style=" stroke:none;fill-rule:nonzero;fill:rgb(39.99939%,39.99939%,39.99939%);fill-opacity:0.3;" d="M 261.921875 105.59375 L 265.265625 102.609375 L 272.191406 99.773438 L 280.539062 98.03125 L 282.117188 96.050781 L 282.445312 92.902344 L 282.109375 86.296875 L 282.21875 85.140625 L 285.25 76.605469 L 291.847656 80.210938 L 299.066406 111.621094 Z M 261.921875 105.59375 "/>
<g clip-path="url(#clip8)" clip-rule="nonzero">
<path style=" stroke:none;fill-rule:nonzero;fill:rgb(39.99939%,39.99939%,39.99939%);fill-opacity:0.3;" d="M 29.226562 371.9375 L 30.398438 372.625 L 22.726562 410.316406 L 14.875 449.964844 L 13.160156 451.597656 L 1.605469 450.492188 L -1.421875 450.785156 L -8.066406 450.402344 L -12.363281 451.582031 L -16.476562 454.644531 L -19.421875 456.566406 L -22.046875 457.308594 L -24.644531 454.261719 L -38.964844 444.140625 L -36.699219 437.292969 L -33.410156 434.367188 L -32.773438 431.496094 L -31.511719 422.109375 L -27.875 408.515625 L -24.671875 388.730469 L -21.785156 381.574219 L -19.328125 380.070312 L -19.386719 377.0625 L -14.910156 376.953125 L -11.0625 375.730469 L -6.449219 373 L -3.53125 369.785156 L 1.746094 364.230469 L 5.792969 359.457031 L 11.574219 361.183594 L 27.367188 366.238281 L 27.511719 367.796875 L 27.945312 369.746094 L 28.496094 370.90625 Z M 29.226562 371.9375 "/>
</g>
<g clip-path="url(#clip9)" clip-rule="nonzero">
<path style=" stroke:none;fill-rule:nonzero;fill:rgb(39.99939%,39.99939%,39.99939%);fill-opacity:0.3;" d="M -9.21875 355.636719 L 0.222656 358.839844 L -0.921875 362.226562 L -4.367188 366.648438 L -10.53125 371.820312 L -17.355469 375.476562 L -19.414062 374.734375 Z M -9.21875 355.636719 "/>
</g>
<path style=" stroke:none;fill-rule:nonzero;fill:rgb(39.99939%,39.99939%,39.99939%);fill-opacity:0.3;" d="M 44.253906 204.921875 L 51.652344 241.242188 L 35.816406 243.207031 L 19.886719 244.816406 L 14.621094 245.710938 L 11.578125 246.710938 L 0.695312 248.277344 L -9.132812 250.175781 L -15.453125 250.847656 L -19.71875 251.191406 L -27.34375 250.390625 L -21.503906 224.625 L 0.910156 229.53125 L 12.820312 227.460938 L 12.699219 226.792969 L 12.601562 226.253906 L 1.027344 228.574219 L -21.167969 223.671875 L -18.316406 210.164062 L -3.054688 213.6875 L 4.574219 212.691406 L 4.535156 212.207031 L 4.488281 211.785156 L -3.128906 212.765625 L -18.164062 209.390625 L -11.53125 182.703125 L -10.789062 182.023438 L 25.949219 175 L 25.832031 174.199219 L 38.265625 171.585938 L 44.007812 204.191406 L 36.597656 205.496094 L 35.3125 198.058594 L 34.785156 198.128906 L 34.265625 198.21875 L 35.621094 205.75 L 27.324219 207.152344 L 25.847656 199.601562 L 25.375 199.636719 L 24.796875 199.699219 L 27.335938 213.167969 L 27.808594 213.097656 L 28.347656 212.976562 L 27.441406 207.925781 L 35.789062 206.496094 L 37.023438 212.902344 L 37.441406 212.8125 L 37.84375 212.738281 L 36.734375 206.28125 Z M 44.253906 204.921875 "/>
<path style=" stroke:none;fill-rule:nonzero;fill:rgb(39.99939%,39.99939%,39.99939%);fill-opacity:0.3;" d="M -55.355469 250.5625 L -31.660156 251.988281 L -26.984375 252.371094 L -19.921875 253.003906 L -15.546875 252.785156 L -11.609375 252.15625 L -5.992188 251.375 L -1.292969 250.691406 L 2.328125 250.003906 L 7.125 249.128906 L 12.140625 248.289062 L 15.777344 246.871094 L 21.523438 246.011719 L 26.015625 245.621094 L 31.121094 245.132812 L 35.714844 244.835938 L 39.496094 244.445312 L 43.78125 243.859375 L 50.214844 243.335938 L 51.160156 248.992188 L -41.554688 262.847656 Z M -55.355469 250.5625 "/>
<path style=" stroke:none;fill-rule:nonzero;fill:rgb(39.99939%,39.99939%,39.99939%);fill-opacity:0.3;" d="M 78.195312 130.742188 L 73.128906 153.050781 L 64.167969 150.78125 L 65.3125 144.265625 L 62.984375 143.757812 L 60.769531 143.335938 L 59.417969 149.953125 L 45.609375 146.542969 L 48.988281 132.328125 L 73.136719 137.085938 L 73.714844 132.9375 L 72.335938 132.746094 L 70.828125 132.535156 L 70.445312 134.722656 L 49.449219 130.742188 L 54.15625 111.804688 L 73.433594 115.039062 L 73.664062 113.863281 L 73.878906 112.746094 L 54.71875 109.53125 L 58.886719 90.660156 L 88.417969 95.683594 L 85.847656 111.4375 L 86.761719 111.546875 L 87.683594 111.644531 L 90.414062 95.972656 L 92.066406 101.546875 L 94.972656 111.363281 L 99.785156 133.316406 L 90.886719 135.289062 L 84.910156 133.148438 Z M 78.195312 130.742188 "/>
<path style=" stroke:none;fill-rule:nonzero;fill:rgb(39.99939%,39.99939%,39.99939%);fill-opacity:0.3;" d="M 90.417969 65.125 L 101.453125 64.777344 L 97.359375 84.09375 L 96.136719 89.863281 Z M 90.417969 65.125 "/>
<path style=" stroke:none;fill-rule:nonzero;fill:rgb(39.99939%,39.99939%,39.99939%);fill-opacity:0.3;" d="M 12.601562 81.640625 L 56.433594 90.605469 L 43.460938 145.851562 L -0.199219 136.199219 Z M 12.601562 81.640625 "/>
<path style=" stroke:none;fill-rule:nonzero;fill:rgb(39.99939%,39.99939%,39.99939%);fill-opacity:0.3;" d="M 91.753906 137.539062 L 100.199219 136.421875 L 105.675781 160.171875 L 86.433594 154.910156 Z M 91.753906 137.539062 "/>
<path style=" stroke:none;fill-rule:nonzero;fill:rgb(39.99939%,39.99939%,39.99939%);fill-opacity:0.3;" d="M 78.90625 133.933594 L 89.230469 136.839844 L 83.890625 154.410156 L 74.75 152.507812 Z M 78.90625 133.933594 "/>
<path style=" stroke:none;fill-rule:nonzero;fill:rgb(39.99939%,39.99939%,39.99939%);fill-opacity:0.3;" d="M 67.039062 184.234375 L 63.929688 170.332031 L 74.296875 172.152344 L 88.652344 174.824219 L 89.664062 180.109375 Z M 67.039062 184.234375 "/>
<path style=" stroke:none;fill-rule:nonzero;fill:rgb(39.99939%,39.99939%,39.99939%);fill-opacity:0.3;" d="M 52.898438 245.128906 L 115.136719 235.609375 L 112.660156 238.996094 L 106.363281 240.214844 L 101.332031 241.191406 L 53.460938 248.117188 Z M 52.898438 245.128906 "/>
<path style=" stroke:none;fill-rule:nonzero;fill:rgb(39.99939%,39.99939%,39.99939%);fill-opacity:0.3;" d="M 17.5625 45.640625 L 12.789062 65.957031 L 6.851562 64.777344 L 6.5 66.429688 L 6.144531 68.082031 L 11.773438 69.238281 L 9.960938 77.605469 L -31.265625 67.882812 L -21.464844 37.273438 Z M 17.5625 45.640625 "/>
<path style=" stroke:none;fill-rule:nonzero;fill:rgb(39.99939%,39.99939%,39.99939%);fill-opacity:0.3;" d="M -47.652344 126.058594 L -43.761719 112.160156 L -32.261719 71.082031 L -19.78125 74.164062 L -21.984375 83.285156 L -20.875 83.480469 L -19.542969 83.71875 L -19.214844 82.234375 L -17.566406 74.738281 L -12.410156 75.945312 L 9.644531 81.09375 L -3.203125 135.871094 L -10.09375 134.292969 L -9.066406 129.480469 L -9.582031 129.367188 L -10.09375 129.253906 L -11.144531 134.035156 L -20.964844 131.835938 L -32.621094 129.3125 L -38.464844 128.046875 Z M -47.652344 126.058594 "/>
<path style=" stroke:none;fill-rule:nonzero;fill:rgb(39.99939%,39.99939%,39.99939%);fill-opacity:0.3;" d="M -1.09375 138.679688 L 15.988281 142.542969 L 8.5625 175.949219 L -10.886719 179.75 Z M -1.09375 138.679688 "/>
<path style=" stroke:none;fill-rule:nonzero;fill:rgb(39.99939%,39.99939%,39.99939%);fill-opacity:0.3;" d="M 18.207031 142.914062 L 34.207031 146.136719 L 43.121094 147.929688 L 41.300781 155.617188 L 37.980469 170.261719 L 10.535156 175.714844 Z M 18.207031 142.914062 "/>
<path style=" stroke:none;fill-rule:nonzero;fill:rgb(39.99939%,39.99939%,39.99939%);fill-opacity:0.3;" d="M 95.617188 234.210938 L 77.601562 237.296875 L 53.480469 240.871094 L 46.757812 204.714844 L 76.242188 199.558594 L 75.972656 198.460938 L 75.699219 197.363281 L 46.632812 202.300781 L 40.765625 172.558594 L 46.472656 172.527344 L 59.601562 169.554688 L 62.152344 170.527344 L 65.285156 184.632812 L 55.6875 186.203125 L 55.910156 187.128906 L 56.132812 188.050781 L 66.476562 186.222656 L 92.535156 181.613281 L 90.972656 173.636719 L 86.585938 172.6875 L 69.851562 169.414062 L 62.695312 168.128906 L 59.207031 168.324219 L 46.207031 171.515625 L 40.347656 170.933594 L 45.140625 148.988281 L 105.507812 162.625 L 119.074219 228.722656 L 117.40625 230.894531 Z M 95.617188 234.210938 "/>
<path style=" stroke:none;fill-rule:nonzero;fill:rgb(39.99939%,39.99939%,39.99939%);fill-opacity:0.3;" d="M 82.996094 33.769531 L 107.6875 38.464844 L 102.179688 62.46875 L 90.1875 62.808594 Z M 82.996094 33.769531 "/>
<path style=" stroke:none;fill-rule:nonzero;fill:rgb(39.99939%,39.99939%,39.99939%);fill-opacity:0.3;" d="M 77.578125 32.203125 L 92.050781 93.878906 L 59.582031 88.3125 L 73.125 30.683594 Z M 77.578125 32.203125 "/>
<path style=" stroke:none;fill-rule:nonzero;fill:rgb(39.99939%,39.99939%,39.99939%);fill-opacity:0.3;" d="M 62.316406 -32.792969 L 70.726562 3.488281 L 32.507812 -4.664062 L 37.421875 -25.871094 L 42.679688 -26.34375 L 46.695312 -26.585938 L 50.414062 -27.335938 L 53.890625 -28.242188 L 57.933594 -29.886719 Z M 62.316406 -32.792969 "/>
<path style=" stroke:none;fill-rule:nonzero;fill:rgb(39.99939%,39.99939%,39.99939%);fill-opacity:0.3;" d="M 32.691406 -2.8125 L 70.777344 5.722656 L 73.367188 18.554688 L 71.210938 28.308594 L 26.988281 19.027344 Z M 32.691406 -2.8125 "/>
<path style=" stroke:none;fill-rule:nonzero;fill:rgb(39.99939%,39.99939%,39.99939%);fill-opacity:0.3;" d="M 26.65625 20.824219 L 70.554688 30.347656 L 57.296875 87.9375 L 13.289062 77.375 Z M 26.65625 20.824219 "/>
<path style=" stroke:none;fill-rule:nonzero;fill:rgb(39.99939%,39.99939%,39.99939%);fill-opacity:0.3;" d="M 74.167969 21.136719 L 76.46875 29.0625 L 73.394531 28.253906 Z M 74.167969 21.136719 "/>
<path style=" stroke:none;fill-rule:nonzero;fill:rgb(39.99939%,39.99939%,39.99939%);fill-opacity:0.3;" d="M 126.046875 -29.933594 L 164.128906 -22.507812 L 171.441406 -15.402344 L 168.179688 -1.6875 L 165.863281 8.039062 L 159.3125 6.652344 L 119.578125 -1.761719 Z M 126.046875 -29.933594 "/>
<path style=" stroke:none;fill-rule:nonzero;fill:rgb(39.99939%,39.99939%,39.99939%);fill-opacity:0.3;" d="M 118.847656 0.882812 L 164.269531 11.066406 L 155.75 45.175781 L 149.070312 43.835938 L 143.78125 42.773438 L 126.1875 39.25 L 111.117188 36.226562 Z M 118.847656 0.882812 "/>
<path style=" stroke:none;fill-rule:nonzero;fill:rgb(39.99939%,39.99939%,39.99939%);fill-opacity:0.3;" d="M -14.460938 12.382812 L 24.394531 20.710938 L 18.671875 44.679688 L -21.464844 35.777344 Z M -14.460938 12.382812 "/>
<path style=" stroke:none;fill-rule:nonzero;fill:rgb(39.99939%,39.99939%,39.99939%);fill-opacity:0.3;" d="M 81.425781 -6.785156 L 116.496094 0.421875 L 112.988281 14.050781 L 108.867188 13.304688 L 108.734375 14.039062 L 108.597656 14.769531 L 110.390625 15.070312 L 112.679688 15.453125 L 108.480469 35.691406 L 81.875 30.367188 L 77.347656 10.109375 Z M 81.425781 -6.785156 "/>
<path style=" stroke:none;fill-rule:nonzero;fill:rgb(39.99939%,39.99939%,39.99939%);fill-opacity:0.3;" d="M 67.90625 -38.03125 L 69.640625 -41.601562 L 86.53125 -38.210938 L 76.425781 3.894531 L 75.53125 -0.519531 Z M 67.90625 -38.03125 "/>
<path style=" stroke:none;fill-rule:nonzero;fill:rgb(39.99939%,39.99939%,39.99939%);fill-opacity:0.3;" d="M -8.859375 -11.496094 L -1.773438 -9.9375 L 30.089844 -2.921875 L 24.773438 18.660156 L -13.660156 9.671875 Z M -8.859375 -11.496094 "/>
<path style=" stroke:none;fill-rule:nonzero;fill:rgb(39.99939%,39.99939%,39.99939%);fill-opacity:0.3;" d="M 150.042969 114.292969 L 163.175781 118.371094 L 163.867188 116.84375 L 176.910156 121.171875 L 167.175781 144.199219 L 157.753906 139.886719 L 155.433594 135.800781 L 152.121094 128.886719 L 151.46875 127.984375 L 145.785156 125.058594 Z M 150.042969 114.292969 "/>
<path style=" stroke:none;fill-rule:nonzero;fill:rgb(39.99939%,39.99939%,39.99939%);fill-opacity:0.3;" d="M 175.933594 127.699219 L 208.292969 138.78125 L 194.191406 153.585938 L 169.03125 144.394531 Z M 175.933594 127.699219 "/>
<path style=" stroke:none;fill-rule:nonzero;fill:rgb(39.99939%,39.99939%,39.99939%);fill-opacity:0.3;" d="M 118.171875 116.042969 L 128.113281 117.964844 L 123.007812 131.246094 L 122.292969 131.359375 L 121.582031 131.25 L 120.988281 130.910156 Z M 118.171875 116.042969 "/>
<path style=" stroke:none;fill-rule:nonzero;fill:rgb(39.99939%,39.99939%,39.99939%);fill-opacity:0.3;" d="M 112.867188 164.011719 L 174.0625 176.175781 L 170.433594 181.605469 L 167.179688 186.152344 L 162.84375 191.621094 L 158.945312 195.960938 L 154.914062 199.546875 L 152.007812 201.847656 L 148.394531 204.550781 L 144.207031 207.753906 L 138.222656 212.5 L 133.019531 216.621094 L 124.691406 222.972656 Z M 112.867188 164.011719 "/>
<path style=" stroke:none;fill-rule:nonzero;fill:rgb(39.99939%,39.99939%,39.99939%);fill-opacity:0.3;" d="M 161.542969 87.933594 L 170.640625 91.203125 L 162.265625 116.277344 L 150.851562 112.769531 Z M 161.542969 87.933594 "/>
<path style=" stroke:none;fill-rule:nonzero;fill:rgb(39.99939%,39.99939%,39.99939%);fill-opacity:0.3;" d="M 172.460938 52.363281 L 187.609375 56.28125 L 182.648438 75.097656 L 176.113281 77.527344 L 171.84375 88.046875 L 162.574219 84.878906 L 167.363281 67.394531 L 166.3125 60.015625 Z M 172.460938 52.363281 "/>
<path style=" stroke:none;fill-rule:nonzero;fill:rgb(39.99939%,39.99939%,39.99939%);fill-opacity:0.3;" d="M 99.019531 98.132812 L 108.765625 100.132812 L 116.820312 102.015625 L 122.792969 103.261719 L 126.902344 104.285156 L 129.769531 105.089844 L 131.707031 105.675781 L 135.492188 106.925781 L 140.011719 108.597656 L 142.296875 109.285156 L 144.871094 110.203125 L 147.539062 111.664062 L 148.710938 112.5 L 140.574219 134.492188 L 135.695312 147.679688 L 136.363281 147.9375 L 137.039062 148.195312 L 145.339844 126.042969 L 150.089844 128.375 L 151.140625 129.777344 L 155.96875 139.851562 L 154.5625 142.367188 L 192.277344 155.585938 L 175.847656 173.953125 L 138.003906 166.210938 L 139.441406 155.5 L 138.285156 155.453125 L 137.125 155.40625 L 135.363281 165.769531 L 112.0625 161.097656 L 108.027344 140.015625 L 124.820312 136.601562 L 131.214844 116.746094 L 118.175781 113.953125 L 117.140625 110.945312 L 115.867188 111.152344 L 114.570312 111.355469 L 115.304688 114.828125 L 119.589844 135.039062 L 107.992188 137.335938 Z M 99.019531 98.132812 "/>
<path style=" stroke:none;fill-rule:nonzero;fill:rgb(39.99939%,39.99939%,39.99939%);fill-opacity:0.3;" d="M 183.804688 77.410156 L 210.980469 86.574219 L 203.628906 103.589844 L 229.246094 112.59375 L 220.078125 124.957031 L 209.664062 136.765625 L 198.933594 133.511719 L 199.378906 126.011719 L 192.421875 122.503906 L 196.648438 113.152344 L 195.851562 112.902344 L 195.058594 112.652344 L 194.269531 114.332031 L 190.765625 121.816406 L 183.300781 118.160156 L 178.691406 115.898438 L 177.105469 119.351562 L 168.175781 116.558594 L 164.246094 115.328125 L 177.007812 80.640625 Z M 183.804688 77.410156 "/>
<path style=" stroke:none;fill-rule:nonzero;fill:rgb(39.99939%,39.99939%,39.99939%);fill-opacity:0.3;" d="M 213 86.632812 L 221.359375 89.585938 L 219.53125 93.585938 L 219.945312 93.734375 L 220.359375 93.886719 L 222.273438 89.941406 L 236.265625 94.949219 L 230.195312 109.683594 L 206.695312 102.167969 Z M 213 86.632812 "/>
<path style=" stroke:none;fill-rule:nonzero;fill:rgb(39.99939%,39.99939%,39.99939%);fill-opacity:0.3;" d="M 111.535156 39.828125 L 135.972656 44.53125 L 148.003906 46.847656 L 155.84375 48.355469 L 153.859375 59.511719 L 155.132812 59.761719 L 156.402344 60.011719 L 159.285156 49.035156 L 169.453125 51.480469 L 164.410156 59.226562 L 164.613281 67.707031 L 160.046875 82.433594 L 159.152344 85.542969 L 149.851562 110.140625 L 145.820312 108.601562 L 142.332031 107.574219 L 138.6875 106.476562 L 136.746094 105.378906 L 134.652344 104.128906 L 132.171875 103.617188 L 123.410156 101.570312 L 98.546875 95.101562 Z M 111.535156 39.828125 "/>
<path style=" stroke:none;fill-rule:nonzero;fill:rgb(39.99939%,39.99939%,39.99939%);fill-opacity:0.3;" d="M 179.613281 118.140625 L 197.601562 127.113281 L 196.820312 132.894531 L 176.402344 125.816406 Z M 179.613281 118.140625 "/>
<path style=" stroke:none;fill-rule:nonzero;fill:rgb(39.99939%,39.99939%,39.99939%);fill-opacity:0.3;" d="M 247.644531 67.515625 L 237.574219 92.238281 L 199.710938 79.429688 L 185.042969 75.003906 L 190.664062 54.375 L 159.824219 46.28125 L 168.359375 12.796875 L 170.363281 4.9375 L 174.445312 -11.074219 L 181.441406 -6.070312 L 186.90625 0.410156 L 187.871094 1.574219 L 203.808594 20.734375 L 208.109375 25.472656 L 212.839844 30.6875 L 218.800781 36.554688 L 222.726562 39.917969 L 230.199219 44.515625 L 251.890625 56.628906 Z M 247.644531 67.515625 "/>
<path style=" stroke:none;fill-rule:nonzero;fill:rgb(39.99939%,39.99939%,39.99939%);fill-opacity:0.3;" d="M 112.660156 238.996094 L 112.210938 239.617188 L 101.332031 241.191406 L 106.363281 240.214844 Z M 112.660156 238.996094 "/>
<g clip-path="url(#clip10)" clip-rule="nonzero">
<path style=" stroke:none;fill-rule:nonzero;fill:rgb(39.99939%,39.99939%,39.99939%);fill-opacity:0.3;" d="M 15.75 310.648438 L 44.273438 310.25 L 34.144531 359.34375 L 32.933594 359.875 L 31.910156 360.757812 L 30.839844 362.128906 L -7.011719 351.734375 Z M 15.75 310.648438 "/>
</g>
<path style=" stroke:none;fill-rule:nonzero;fill:rgb(39.99939%,39.99939%,39.99939%);fill-opacity:0.3;" d="M 11.785156 315.566406 L -4.355469 344.5 L -4.089844 343.9375 L -0.601562 336.957031 L 5.382812 326.234375 Z M 11.785156 315.566406 "/>
<path style=" stroke:none;fill-rule:nonzero;fill:rgb(39.99939%,39.99939%,39.99939%);fill-opacity:0.3;" d="M 107.203125 247.796875 L 93.488281 259.410156 L 93.171875 256.289062 L 92.621094 252.875 L 91.800781 251.238281 L 90.964844 249.414062 L 89.921875 247.949219 L 87.027344 245.386719 L 104.859375 242.921875 L 105.800781 243.105469 L 106.699219 243.441406 L 107.351562 243.972656 L 107.820312 244.515625 L 108.214844 245.121094 L 108.25 246.121094 L 107.785156 247.21875 Z M 107.203125 247.796875 "/>
<path style=" stroke:none;fill-rule:nonzero;fill:rgb(39.99939%,39.99939%,39.99939%);fill-opacity:0.3;" d="M 9.585938 258.355469 L 33.769531 254.78125 L 35.578125 271.503906 L 37.476562 271.339844 L 35.652344 254.421875 L 52.539062 251.859375 L 59.808594 288.855469 L 58.554688 290.273438 L 53.769531 294.796875 L 50.070312 299.011719 L 46.21875 305.25 L 43.953125 309.09375 L 26.773438 309.128906 L 19.210938 309.335938 L 15.335938 309.648438 L 15.855469 308.78125 L 16.105469 299.804688 L 14.609375 282.105469 Z M 9.585938 258.355469 "/>
<path style=" stroke:none;fill-rule:nonzero;fill:rgb(39.99939%,39.99939%,39.99939%);fill-opacity:0.3;" d="M 54.503906 251.207031 L 83.375 246.929688 L 85.84375 247.511719 L 87.589844 248.992188 L 88.671875 250.574219 L 89.425781 252.269531 L 89.882812 253.722656 L 90.242188 255.332031 L 90.5 257.039062 L 90.691406 259.171875 L 90.820312 261.90625 L 67.492188 282.277344 L 61.234375 287.464844 L 56.359375 263.089844 Z M 54.503906 251.207031 "/>
<path style=" stroke:none;fill-rule:nonzero;fill:rgb(39.99939%,39.99939%,39.99939%);fill-opacity:0.3;" d="M -49.84375 338.632812 L -70.910156 332.242188 L -65.601562 327.839844 L -46.246094 322.5625 L -34.527344 319.410156 L -31.042969 318.625 L -27.714844 317.96875 L -25.503906 317.566406 L -18.402344 316.351562 L -10.867188 315.132812 L -7.371094 314.535156 L 0.453125 313.121094 L 4.414062 312.390625 L 14.390625 310.894531 L 11.785156 315.566406 L 5.382812 326.234375 L -0.601562 336.957031 L -4.089844 343.9375 L -4.355469 344.5 L -8.242188 351.46875 Z M -49.84375 338.632812 "/>
<path style=" stroke:none;fill-rule:nonzero;fill:rgb(39.99939%,39.99939%,39.99939%);fill-opacity:0.3;" d="M -40.960938 265.828125 L 9.585938 258.355469 L 14.609375 282.105469 L 16.105469 299.804688 L 15.855469 308.78125 L 15.335938 309.648438 L 14.59375 309.707031 L 9.917969 310.28125 L 5.109375 311.066406 L -11.972656 313.898438 L -13.972656 314.230469 L -31.277344 317.46875 L -36.476562 318.667969 L -40.097656 319.597656 L -68.101562 327.289062 L -65.074219 315.945312 L -63.800781 312.195312 L -62.410156 309.207031 L -61.039062 307.097656 L -60.167969 306.039062 L -58.589844 304.382812 L -50.582031 296.066406 L -48.484375 293.355469 L -46.769531 290.695312 L -45.382812 288.167969 L -44.554688 286.46875 L -44.015625 285.203125 L -42.046875 281.003906 L -40.445312 276.75 L -39.980469 271.667969 L -40.015625 269.707031 L -40.605469 268.496094 Z M -40.960938 265.828125 "/>
<path style=" stroke:none;fill-rule:nonzero;fill:rgb(39.99939%,39.99939%,39.99939%);fill-opacity:0.3;" d="M 213.609375 -33.640625 L 225.464844 -25.53125 L 226.679688 -23.058594 L 227.8125 -20.734375 L 228.472656 -19.480469 L 229.398438 -17.886719 L 230.265625 -16.523438 L 231.320312 -15.007812 L 232.644531 -13.238281 L 234.136719 -11.179688 L 210.242188 10.304688 L 190.613281 -11.886719 L 199.992188 -20.851562 L 205.382812 -16.789062 L 206.113281 -17.503906 L 206.84375 -18.214844 L 201.480469 -22.257812 Z M 213.609375 -33.640625 "/>
<path style=" stroke:none;fill-rule:nonzero;fill:rgb(39.99939%,39.99939%,39.99939%);fill-opacity:0.3;" d="M 282.953125 -43.574219 L 300.605469 -37.210938 L 299.90625 -35.773438 L 298.445312 -34.21875 L 290.753906 -24.179688 L 289.269531 -22.183594 L 287.226562 -17.816406 L 285.417969 -13.808594 L 276.160156 5.203125 L 271.910156 2.726562 L 267.773438 -0.355469 L 265.808594 -4.683594 L 261.925781 -10.308594 L 272.867188 -24.546875 L 275.496094 -27.714844 Z M 282.953125 -43.574219 "/>
<path style=" stroke:none;fill-rule:nonzero;fill:rgb(39.99939%,39.99939%,39.99939%);fill-opacity:0.3;" d="M 264.429688 30.617188 L 256.496094 45.261719 L 249.621094 41.496094 L 240.410156 35.707031 L 231.058594 29.527344 L 218.945312 19.121094 L 212.449219 12.570312 L 236.003906 -8.605469 Z M 264.429688 30.617188 "/>
<path style=" stroke:none;fill-rule:nonzero;fill:rgb(39.99939%,39.99939%,39.99939%);fill-opacity:0.3;" d="M 263.410156 -3.015625 L 266.296875 1.597656 L 271.496094 5.261719 L 274.472656 7.363281 L 266.003906 27.058594 L 250.867188 6.175781 L 238.792969 -11.113281 L 250.621094 -21.742188 L 258.804688 -10.382812 Z M 263.410156 -3.015625 "/>
<g clip-path="url(#clip11)" clip-rule="nonzero">
<path style=" stroke:none;fill-rule:nonzero;fill:rgb(39.99939%,39.99939%,39.99939%);fill-opacity:0.3;" d="M 352.394531 19.804688 L 361.179688 9.414062 L 370.433594 2.742188 L 380.628906 -3.191406 L 386.304688 -6.652344 L 390.144531 -8.230469 L 394.515625 -8.742188 L 408.457031 -9.753906 L 418.59375 -9.316406 L 417.742188 -3.136719 L 417.347656 -0.527344 L 416.558594 1.335938 L 414.722656 3.320312 L 413.144531 5.433594 L 408.417969 11.769531 L 406.578125 14.128906 L 404.347656 16.363281 L 402.773438 18.101562 L 400.148438 18.722656 L 397.523438 19.09375 L 395.683594 18.722656 L 394.121094 18.441406 L 391.621094 20.511719 L 387.675781 24.929688 L 385.839844 28.160156 L 384.113281 30.132812 L 379.800781 28.28125 L 376.390625 25.542969 L 373.917969 24.355469 L 371.273438 23.925781 L 368.648438 24.046875 L 365.828125 23.519531 L 357.625 21.054688 Z M 352.394531 19.804688 "/>
</g>
<path style=" stroke:none;fill-rule:nonzero;fill:rgb(39.99939%,39.99939%,39.99939%);fill-opacity:0.3;" d="M 268.507812 35.984375 L 283.828125 59.453125 L 284.8125 61.300781 L 285.402344 62.78125 L 283.035156 61.800781 L 261.730469 48.4375 Z M 268.507812 35.984375 "/>
<g clip-path="url(#clip12)" clip-rule="nonzero">
<path style=" stroke:none;fill-rule:nonzero;fill:rgb(39.99939%,39.99939%,39.99939%);fill-opacity:0.3;" d="M 307.386719 -33.546875 L 384.703125 -13.089844 L 386.160156 -12.648438 L 386.941406 -11.019531 L 386.464844 -9.210938 L 369.414062 0.882812 L 360.160156 7.929688 L 352.316406 16.683594 L 349.652344 19.503906 L 347.058594 21.148438 L 343.121094 23.027344 L 340.46875 23.75 L 337.023438 23.910156 L 333.5 23.421875 L 330.414062 22.234375 L 318.640625 17.035156 L 307.324219 13.578125 L 294.5625 10.902344 L 283.523438 8.707031 L 294 -12.640625 L 296.621094 -18.335938 L 298.109375 -21.28125 L 300.445312 -24.5625 Z M 307.386719 -33.546875 "/>
</g>
<g clip-path="url(#clip13)" clip-rule="nonzero">
<path style=" stroke:none;fill-rule:nonzero;fill:rgb(39.99939%,39.99939%,39.99939%);fill-opacity:0.3;" d="M 365.464844 25.269531 L 367.445312 25.695312 L 371.164062 25.820312 L 373.125 26.171875 L 375.835938 27.554688 L 378.378906 29.808594 L 382.9375 32.445312 L 382.6875 34.132812 L 380.9375 39.054688 L 378.453125 46.050781 L 369.15625 72.230469 L 367.871094 72.757812 L 361.253906 71.660156 L 354.710938 71.097656 L 348.347656 71.554688 L 345.917969 71.667969 L 345.472656 71.667969 L 333.503906 71.167969 L 327.027344 71.027344 L 305.714844 69.191406 L 297.617188 64.34375 L 276.332031 28.804688 L 276.121094 25.007812 L 282.609375 11.089844 L 292.917969 13.042969 L 299.8125 14.621094 L 305.816406 15.8125 L 317.324219 19.0625 L 329.664062 24.996094 L 333.378906 26.507812 L 337.546875 27.222656 L 340.71875 26.988281 L 343.300781 26.042969 L 348.640625 23.285156 L 350.558594 22.496094 L 352.386719 21.929688 L 354.445312 22.089844 L 357.070312 22.84375 L 360.363281 24.027344 L 363.199219 24.78125 Z M 365.464844 25.269531 "/>
</g>
<path style="fill-rule:nonzero;fill:rgb(39.99939%,39.99939%,39.99939%);fill-opacity:1;stroke-width:0.03;stroke-linecap:square;stroke-linejoin:miter;stroke:rgb(39.99939%,39.99939%,39.99939%);stroke-opacity:1;stroke-miterlimit:3.239307;" d="M 134.863281 321.460938 L 127.042969 320.4375 L 125.429688 320.207031 L 125.960938 317.988281 L 127.070312 315.605469 L 129.113281 312.722656 L 131.679688 310.171875 L 134.597656 307.175781 L 138.507812 303.460938 L 144.140625 298.203125 L 150.914062 292.550781 L 158.734375 286.058594 L 163.589844 281.8125 L 164.5 281.644531 L 165.667969 283.023438 L 166.042969 284.546875 L 165.457031 285.949219 L 140.984375 315.960938 L 140.785156 316.859375 L 140.859375 317.789062 L 142.335938 319.714844 L 144.019531 320.746094 L 140.476562 321.28125 L 136.113281 321.570312 Z M 134.863281 321.460938 " transform="matrix(1,0,0,1,-74,-13)"/>
<path style="fill-rule:nonzero;fill:rgb(39.99939%,39.99939%,39.99939%);fill-opacity:1;stroke-width:0.03;stroke-linecap:square;stroke-linejoin:miter;stroke:rgb(39.99939%,39.99939%,39.99939%);stroke-opacity:1;stroke-miterlimit:3.239307;" d="M 186.773438 261.335938 L 191.476562 262.597656 L 185.730469 268.980469 L 177.316406 276.902344 L 170.464844 281.914062 L 168.664062 283.011719 L 167.53125 283.289062 L 166.394531 282.699219 L 165.679688 281.917969 L 165.484375 280.679688 L 167.683594 278.671875 L 172.167969 275.183594 L 176.894531 271.085938 L 182.1875 265.832031 Z M 186.773438 261.335938 " transform="matrix(1,0,0,1,-74,-13)"/>
<path style="fill-rule:nonzero;fill:rgb(39.99939%,39.99939%,39.99939%);fill-opacity:1;stroke-width:0.03;stroke-linecap:square;stroke-linejoin:miter;stroke:rgb(39.99939%,39.99939%,39.99939%);stroke-opacity:1;stroke-miterlimit:3.239307;" d="M 261.851562 287.179688 L 268.878906 294.351562 L 275.34375 297.300781 L 289.824219 300.390625 L 286.394531 314.292969 L 256.566406 314.472656 L 258.976562 306.496094 L 257.074219 305.144531 L 256.601562 304.425781 Z M 261.851562 287.179688 " transform="matrix(1,0,0,1,-74,-13)"/>
<path style="fill-rule:nonzero;fill:rgb(39.99939%,39.99939%,39.99939%);fill-opacity:1;stroke-width:0.03;stroke-linecap:square;stroke-linejoin:miter;stroke:rgb(39.99939%,39.99939%,39.99939%);stroke-opacity:1;stroke-miterlimit:3.239307;" d="M 258.273438 278.421875 L 282.671875 279.960938 L 293.796875 285.128906 L 289.828125 299.5 L 275.863281 296.546875 L 269.507812 293.367188 L 262.796875 286.796875 L 261.464844 284.996094 L 256.710938 282.886719 Z M 258.273438 278.421875 " transform="matrix(1,0,0,1,-74,-13)"/>
<path style="fill-rule:nonzero;fill:rgb(39.99939%,39.99939%,39.99939%);fill-opacity:1;stroke-width:0.03;stroke-linecap:square;stroke-linejoin:miter;stroke:rgb(39.99939%,39.99939%,39.99939%);stroke-opacity:1;stroke-miterlimit:3.239307;" d="M 244.671875 279.523438 L 261.324219 286.144531 L 255.507812 304.246094 L 256.507812 305.550781 L 258.027344 306.765625 L 255.378906 314.699219 L 233.886719 314.507812 L 238.230469 296.410156 Z M 244.671875 279.523438 " transform="matrix(1,0,0,1,-74,-13)"/>
<path style="fill-rule:nonzero;fill:rgb(39.99939%,39.99939%,39.99939%);fill-opacity:1;stroke-width:0.03;stroke-linecap:square;stroke-linejoin:miter;stroke:rgb(39.99939%,39.99939%,39.99939%);stroke-opacity:1;stroke-miterlimit:3.239307;" d="M 189.890625 313.578125 L 190.011719 311.816406 L 192.492188 312.046875 L 203.84375 268.808594 L 243.769531 279.75 L 236.804688 296.367188 L 232.652344 314.375 L 210.398438 313.496094 Z M 189.890625 313.578125 " transform="matrix(1,0,0,1,-74,-13)"/>
<path style="fill-rule:nonzero;fill:rgb(39.99939%,39.99939%,39.99939%);fill-opacity:1;stroke-width:0.03;stroke-linecap:square;stroke-linejoin:miter;stroke:rgb(39.99939%,39.99939%,39.99939%);stroke-opacity:1;stroke-miterlimit:3.239307;" d="M 193.617188 296.457031 L 176.71875 292.476562 L 165.324219 289.378906 L 168.371094 285.117188 L 170.472656 284.28125 L 178.359375 277.511719 L 186.542969 269.699219 L 192.359375 262.847656 L 202.53125 265.632812 Z M 193.617188 296.457031 " transform="matrix(1,0,0,1,-74,-13)"/>
<path style="fill-rule:nonzero;fill:rgb(39.99939%,39.99939%,39.99939%);fill-opacity:1;stroke-width:0.03;stroke-linecap:square;stroke-linejoin:miter;stroke:rgb(39.99939%,39.99939%,39.99939%);stroke-opacity:1;stroke-miterlimit:3.239307;" d="M 244.878906 277.816406 L 245.800781 275.394531 L 257.132812 278.335938 L 255.808594 282.390625 Z M 244.878906 277.816406 " transform="matrix(1,0,0,1,-74,-13)"/>
<path style="fill-rule:nonzero;fill:rgb(39.99939%,39.99939%,39.99939%);fill-opacity:1;stroke-width:0.03;stroke-linecap:square;stroke-linejoin:miter;stroke:rgb(39.99939%,39.99939%,39.99939%);stroke-opacity:1;stroke-miterlimit:3.239307;" d="M 205.246094 265.730469 L 244.992188 275.253906 L 243.832031 278.019531 L 204.957031 267.296875 Z M 205.246094 265.730469 " transform="matrix(1,0,0,1,-74,-13)"/>
<path style="fill-rule:nonzero;fill:rgb(39.99939%,39.99939%,39.99939%);fill-opacity:1;stroke-width:0.03;stroke-linecap:square;stroke-linejoin:miter;stroke:rgb(39.99939%,39.99939%,39.99939%);stroke-opacity:1;stroke-miterlimit:3.239307;" d="M 163.152344 290.820312 L 193.046875 297.835938 L 190.066406 310.492188 L 187.972656 310.316406 L 187.242188 313.011719 L 179.679688 312.671875 L 174.222656 313.382812 L 170.871094 313.691406 L 168.769531 314.332031 L 165.917969 315.042969 L 163.773438 315.277344 L 153.207031 318.21875 L 149.957031 318.785156 L 148.03125 319.238281 L 144.222656 319.777344 L 143.351562 319.449219 L 142.4375 318.417969 L 141.945312 317.1875 L 142.011719 316.125 L 145.589844 312.09375 Z M 163.152344 290.820312 " transform="matrix(1,0,0,1,-74,-13)"/>
<path style="fill-rule:nonzero;fill:rgb(39.99939%,39.99939%,39.99939%);fill-opacity:1;stroke-width:0.03;stroke-linecap:square;stroke-linejoin:miter;stroke:rgb(39.99939%,39.99939%,39.99939%);stroke-opacity:1;stroke-miterlimit:3.239307;" d="M 286.011719 279.558594 L 332.578125 278.914062 L 346.535156 282.992188 L 339.058594 303.214844 L 321.472656 294.609375 L 322.867188 291.273438 L 321.414062 290.625 L 319.90625 293.699219 Z M 286.011719 279.558594 " transform="matrix(1,0,0,1,-74,-13)"/>
<path style="fill-rule:nonzero;fill:rgb(39.99939%,39.99939%,39.99939%);fill-opacity:1;stroke-width:0.03;stroke-linecap:square;stroke-linejoin:miter;stroke:rgb(39.99939%,39.99939%,39.99939%);stroke-opacity:1;stroke-miterlimit:3.239307;" d="M 365.191406 317.429688 L 364.394531 317.390625 L 379.855469 280.382812 L 381.648438 277.148438 L 382.570312 277.152344 L 379.578125 284.132812 L 368.609375 309.316406 Z M 365.191406 317.429688 " transform="matrix(1,0,0,1,-74,-13)"/>
<path style="fill-rule:nonzero;fill:rgb(39.99939%,39.99939%,39.99939%);fill-opacity:1;stroke-width:0.03;stroke-linecap:square;stroke-linejoin:miter;stroke:rgb(39.99939%,39.99939%,39.99939%);stroke-opacity:1;stroke-miterlimit:3.239307;" d="M 315.8125 294.160156 L 315.582031 295.757812 L 315.105469 298.382812 L 313.253906 304.613281 L 310.675781 311.273438 L 309.253906 314.476562 L 307.554688 315.609375 L 288.085938 314.417969 L 295.128906 285.867188 Z M 315.8125 294.160156 " transform="matrix(1,0,0,1,-74,-13)"/>
<path style="fill-rule:nonzero;fill:rgb(39.99939%,39.99939%,39.99939%);fill-opacity:1;stroke-width:0.03;stroke-linecap:square;stroke-linejoin:miter;stroke:rgb(39.99939%,39.99939%,39.99939%);stroke-opacity:1;stroke-miterlimit:3.239307;" d="M 311.726562 315.398438 L 310.601562 314.191406 L 311.792969 311.277344 L 314.253906 304.601562 L 315.894531 299.488281 L 317.011719 295.226562 L 342.667969 306.527344 L 343.941406 307.0625 L 344.367188 308.070312 L 344.582031 309.277344 L 344.726562 310.152344 L 344.65625 311.15625 L 344.445312 312.234375 L 344.167969 313.710938 L 343.746094 315.121094 L 343.320312 316.398438 Z M 311.726562 315.398438 " transform="matrix(1,0,0,1,-74,-13)"/>
<path style="fill-rule:nonzero;fill:rgb(39.99939%,39.99939%,39.99939%);fill-opacity:1;stroke-width:0.03;stroke-linecap:square;stroke-linejoin:miter;stroke:rgb(39.99939%,39.99939%,39.99939%);stroke-opacity:1;stroke-miterlimit:3.239307;" d="M 335.269531 278.707031 L 378.070312 279.988281 L 373.527344 291.1875 L 368.730469 303.007812 L 363.007812 317.109375 L 344.554688 316.296875 L 345.160156 313.707031 L 345.648438 311.359375 L 345.785156 309.34375 L 345.359375 307.128906 L 344.960938 305.917969 L 340.050781 303.886719 L 343.78125 293.929688 L 348.160156 282.25 Z M 335.269531 278.707031 " transform="matrix(1,0,0,1,-74,-13)"/>
<path style="fill-rule:nonzero;fill:rgb(39.99939%,39.99939%,39.99939%);fill-opacity:1;stroke-width:0.03;stroke-linecap:square;stroke-linejoin:miter;stroke:rgb(39.99939%,39.99939%,39.99939%);stroke-opacity:1;stroke-miterlimit:3.239307;" d="M 133.808594 301.855469 L 133.847656 302.054688 L 132.554688 303.273438 Z M 133.808594 301.855469 " transform="matrix(1,0,0,1,-74,-13)"/>
<path style="fill-rule:nonzero;fill:rgb(39.99939%,39.99939%,39.99939%);fill-opacity:1;stroke-width:0.03;stroke-linecap:square;stroke-linejoin:miter;stroke:rgb(39.99939%,39.99939%,39.99939%);stroke-opacity:1;stroke-miterlimit:3.239307;" d="M 141.492188 295.277344 L 135.28125 300.699219 L 135.234375 300.464844 Z M 141.492188 295.277344 " transform="matrix(1,0,0,1,-74,-13)"/>
<g clip-path="url(#clip14)" clip-rule="nonzero">
<path style=" stroke:none;fill-rule:evenodd;fill:rgb(85.096741%,85.096741%,81.959534%);fill-opacity:0.7;" d="M 362.972656 159 C 362.972656 156.355469 361.921875 153.816406 360.050781 151.949219 C 358.183594 150.078125 355.644531 149.027344 353 149.027344 C 350.355469 149.027344 347.816406 150.078125 345.949219 151.949219 C 344.078125 153.816406 343.027344 156.355469 343.027344 159 C 343.027344 161.644531 344.078125 164.183594 345.949219 166.050781 C 347.816406 167.921875 350.355469 168.972656 353 168.972656 C 355.644531 168.972656 358.183594 167.921875 360.050781 166.050781 C 361.921875 164.183594 362.972656 161.644531 362.972656 159 Z M 362.972656 159 "/>
</g>
<path style=" stroke:none;fill-rule:evenodd;fill:rgb(85.096741%,85.096741%,81.959534%);fill-opacity:0.7;" d="M 345.972656 142 C 345.972656 139.355469 344.921875 136.816406 343.050781 134.949219 C 341.183594 133.078125 338.644531 132.027344 336 132.027344 C 333.355469 132.027344 330.816406 133.078125 328.949219 134.949219 C 327.078125 136.816406 326.027344 139.355469 326.027344 142 C 326.027344 144.644531 327.078125 147.183594 328.949219 149.050781 C 330.816406 150.921875 333.355469 151.972656 336 151.972656 C 338.644531 151.972656 341.183594 150.921875 343.050781 149.050781 C 344.921875 147.183594 345.972656 144.644531 345.972656 142 Z M 345.972656 142 "/>
<path style=" stroke:none;fill-rule:evenodd;fill:rgb(85.096741%,85.096741%,81.959534%);fill-opacity:0.7;" d="M 218.972656 133 C 218.972656 130.355469 217.921875 127.816406 216.050781 125.949219 C 214.183594 124.078125 211.644531 123.027344 209 123.027344 C 206.355469 123.027344 203.816406 124.078125 201.949219 125.949219 C 200.078125 127.816406 199.027344 130.355469 199.027344 133 C 199.027344 135.644531 200.078125 138.183594 201.949219 140.050781 C 203.816406 141.921875 206.355469 142.972656 209 142.972656 C 211.644531 142.972656 214.183594 141.921875 216.050781 140.050781 C 217.921875 138.183594 218.972656 135.644531 218.972656 133 Z M 218.972656 133 "/>
<path style=" stroke:none;fill-rule:evenodd;fill:rgb(85.096741%,85.096741%,81.959534%);fill-opacity:0.7;" d="M 335.972656 127 C 335.972656 124.355469 334.921875 121.816406 333.050781 119.949219 C 331.183594 118.078125 328.644531 117.027344 326 117.027344 C 323.355469 117.027344 320.816406 118.078125 318.949219 119.949219 C 317.078125 121.816406 316.027344 124.355469 316.027344 127 C 316.027344 129.644531 317.078125 132.183594 318.949219 134.050781 C 320.816406 135.921875 323.355469 136.972656 326 136.972656 C 328.644531 136.972656 331.183594 135.921875 333.050781 134.050781 C 334.921875 132.183594 335.972656 129.644531 335.972656 127 Z M 335.972656 127 "/>
<path style=" stroke:none;fill-rule:evenodd;fill:rgb(85.096741%,85.096741%,81.959534%);fill-opacity:0.7;" d="M 272.972656 88 C 272.972656 85.355469 271.921875 82.816406 270.050781 80.949219 C 268.183594 79.078125 265.644531 78.027344 263 78.027344 C 260.355469 78.027344 257.816406 79.078125 255.949219 80.949219 C 254.078125 82.816406 253.027344 85.355469 253.027344 88 C 253.027344 90.644531 254.078125 93.183594 255.949219 95.050781 C 257.816406 96.921875 260.355469 97.972656 263 97.972656 C 265.644531 97.972656 268.183594 96.921875 270.050781 95.050781 C 271.921875 93.183594 272.972656 90.644531 272.972656 88 Z M 272.972656 88 "/>
<path style=" stroke:none;fill-rule:evenodd;fill:rgb(85.096741%,85.096741%,81.959534%);fill-opacity:0.7;" d="M 283.972656 46 C 283.972656 43.355469 282.921875 40.816406 281.050781 38.949219 C 279.183594 37.078125 276.644531 36.027344 274 36.027344 C 271.355469 36.027344 268.816406 37.078125 266.949219 38.949219 C 265.078125 40.816406 264.027344 43.355469 264.027344 46 C 264.027344 48.644531 265.078125 51.183594 266.949219 53.050781 C 268.816406 54.921875 271.355469 55.972656 274 55.972656 C 276.644531 55.972656 279.183594 54.921875 281.050781 53.050781 C 282.921875 51.183594 283.972656 48.644531 283.972656 46 Z M 283.972656 46 "/>
<path style=" stroke:none;fill-rule:evenodd;fill:rgb(85.096741%,85.096741%,81.959534%);fill-opacity:0.7;" d="M 209.972656 19 C 209.972656 16.355469 208.921875 13.816406 207.050781 11.949219 C 205.183594 10.078125 202.644531 9.027344 200 9.027344 C 197.355469 9.027344 194.816406 10.078125 192.949219 11.949219 C 191.078125 13.816406 190.027344 16.355469 190.027344 19 C 190.027344 21.644531 191.078125 24.183594 192.949219 26.050781 C 194.816406 27.921875 197.355469 28.972656 200 28.972656 C 202.644531 28.972656 205.183594 27.921875 207.050781 26.050781 C 208.921875 24.183594 209.972656 21.644531 209.972656 19 Z M 209.972656 19 "/>
<path style=" stroke:none;fill-rule:evenodd;fill:rgb(85.096741%,85.096741%,81.959534%);fill-opacity:0.7;" d="M 260.972656 -1 C 260.972656 -3.644531 259.921875 -6.183594 258.050781 -8.050781 C 256.183594 -9.921875 253.644531 -10.972656 251 -10.972656 C 248.355469 -10.972656 245.816406 -9.921875 243.949219 -8.050781 C 242.078125 -6.183594 241.027344 -3.644531 241.027344 -1 C 241.027344 1.644531 242.078125 4.183594 243.949219 6.050781 C 245.816406 7.921875 248.355469 8.972656 251 8.972656 C 253.644531 8.972656 256.183594 7.921875 258.050781 6.050781 C 259.921875 4.183594 260.972656 1.644531 260.972656 -1 Z M 260.972656 -1 "/>
<path style=" stroke:none;fill-rule:evenodd;fill:rgb(85.096741%,85.096741%,81.959534%);fill-opacity:0.7;" d="M 253.972656 -5 C 253.972656 -7.644531 252.921875 -10.183594 251.050781 -12.050781 C 249.183594 -13.921875 246.644531 -14.972656 244 -14.972656 C 241.355469 -14.972656 238.816406 -13.921875 236.949219 -12.050781 C 235.078125 -10.183594 234.027344 -7.644531 234.027344 -5 C 234.027344 -2.355469 235.078125 0.183594 236.949219 2.050781 C 238.816406 3.921875 241.355469 4.972656 244 4.972656 C 246.644531 4.972656 249.183594 3.921875 251.050781 2.050781 C 252.921875 0.183594 253.972656 -2.355469 253.972656 -5 Z M 253.972656 -5 "/>
<path style=" stroke:none;fill-rule:evenodd;fill:rgb(85.096741%,85.096741%,81.959534%);fill-opacity:0.7;" d="M 284.972656 276 C 284.972656 273.355469 283.921875 270.816406 282.050781 268.949219 C 280.183594 267.078125 277.644531 266.027344 275 266.027344 C 272.355469 266.027344 269.816406 267.078125 267.949219 268.949219 C 266.078125 270.816406 265.027344 273.355469 265.027344 276 C 265.027344 278.644531 266.078125 281.183594 267.949219 283.050781 C 269.816406 284.921875 272.355469 285.972656 275 285.972656 C 277.644531 285.972656 280.183594 284.921875 282.050781 283.050781 C 283.921875 281.183594 284.972656 278.644531 284.972656 276 Z M 284.972656 276 "/>
<path style=" stroke:none;fill-rule:evenodd;fill:rgb(85.096741%,85.096741%,81.959534%);fill-opacity:0.7;" d="M 96.972656 264 C 96.972656 261.355469 95.921875 258.816406 94.050781 256.949219 C 92.183594 255.078125 89.644531 254.027344 87 254.027344 C 84.355469 254.027344 81.816406 255.078125 79.949219 256.949219 C 78.078125 258.816406 77.027344 261.355469 77.027344 264 C 77.027344 266.644531 78.078125 269.183594 79.949219 271.050781 C 81.816406 272.921875 84.355469 273.972656 87 273.972656 C 89.644531 273.972656 92.183594 272.921875 94.050781 271.050781 C 95.921875 269.183594 96.972656 266.644531 96.972656 264 Z M 96.972656 264 "/>
<path style=" stroke:none;fill-rule:evenodd;fill:rgb(85.096741%,85.096741%,81.959534%);fill-opacity:0.7;" d="M 95.972656 235 C 95.972656 232.355469 94.921875 229.816406 93.050781 227.949219 C 91.183594 226.078125 88.644531 225.027344 86 225.027344 C 83.355469 225.027344 80.816406 226.078125 78.949219 227.949219 C 77.078125 229.816406 76.027344 232.355469 76.027344 235 C 76.027344 237.644531 77.078125 240.183594 78.949219 242.050781 C 80.816406 243.921875 83.355469 244.972656 86 244.972656 C 88.644531 244.972656 91.183594 243.921875 93.050781 242.050781 C 94.921875 240.183594 95.972656 237.644531 95.972656 235 Z M 95.972656 235 "/>
<g clip-path="url(#clip15)" clip-rule="nonzero">
<path style=" stroke:none;fill-rule:nonzero;fill:rgb(99.998474%,99.998474%,30.587769%);fill-opacity:0.8;" d="M 350.460938 318.753906 L 328.867188 356.15625 L 372.050781 356.15625 Z M 350.460938 318.753906 "/>
</g>
<g clip-path="url(#clip16)" clip-rule="nonzero">
<path style="fill:none;stroke-width:0.288;stroke-linecap:square;stroke-linejoin:miter;stroke:rgb(0%,0%,0%);stroke-opacity:0.8;stroke-miterlimit:3.25;" d="M 424.460938 331.753906 L 402.867188 369.15625 L 446.050781 369.15625 Z M 424.460938 331.753906 " transform="matrix(1,0,0,1,-74,-13)"/>
</g>
<path style="fill-rule:nonzero;fill:rgb(99.998474%,99.998474%,30.587769%);fill-opacity:0.8;stroke-width:0.288;stroke-linecap:square;stroke-linejoin:miter;stroke:rgb(0%,0%,0%);stroke-opacity:0.8;stroke-miterlimit:3.25;" d="M 389.550781 316.796875 L 367.960938 354.195312 L 411.144531 354.195312 Z M 389.550781 316.796875 " transform="matrix(1,0,0,1,-74,-13)"/>
<path style="fill-rule:nonzero;fill:rgb(99.998474%,99.998474%,30.587769%);fill-opacity:0.8;stroke-width:0.288;stroke-linecap:square;stroke-linejoin:miter;stroke:rgb(0%,0%,0%);stroke-opacity:0.8;stroke-miterlimit:3.25;" d="M 112.792969 164.703125 L 91.203125 202.101562 L 134.386719 202.101562 Z M 112.792969 164.703125 " transform="matrix(1,0,0,1,-74,-13)"/>
<path style="fill-rule:nonzero;fill:rgb(99.998474%,99.998474%,30.587769%);fill-opacity:0.8;stroke-width:0.288;stroke-linecap:square;stroke-linejoin:miter;stroke:rgb(0%,0%,0%);stroke-opacity:0.8;stroke-miterlimit:3.25;" d="M 82.875 67.464844 L 61.28125 104.863281 L 104.46875 104.863281 Z M 82.875 67.464844 " transform="matrix(1,0,0,1,-74,-13)"/>
<g clip-path="url(#clip17)" clip-rule="nonzero">
<path style=" stroke:none;fill-rule:nonzero;fill:rgb(99.998474%,99.998474%,30.587769%);fill-opacity:0.8;" d="M 350.460938 29.53125 L 328.867188 66.929688 L 372.050781 66.929688 Z M 350.460938 29.53125 "/>
</g>
<g clip-path="url(#clip18)" clip-rule="nonzero">
<path style="fill:none;stroke-width:0.288;stroke-linecap:square;stroke-linejoin:miter;stroke:rgb(0%,0%,0%);stroke-opacity:0.8;stroke-miterlimit:3.25;" d="M 424.460938 42.53125 L 402.867188 79.929688 L 446.050781 79.929688 Z M 424.460938 42.53125 " transform="matrix(1,0,0,1,-74,-13)"/>
</g>
</g>
</svg>
