<?xml version="1.0" encoding="UTF-8"?>
<svg xmlns="http://www.w3.org/2000/svg" xmlns:xlink="http://www.w3.org/1999/xlink" width="361pt" height="361pt" viewBox="0 0 361 361" version="1.1">
<defs>
<clipPath id="clip1">
  <path d="M 0 264 L 18 264 L 18 360 L 0 360 Z M 0 264 "/>
</clipPath>
<clipPath id="clip2">
  <path d="M 39 277 L 94 277 L 94 360 L 39 360 Z M 39 277 "/>
</clipPath>
<clipPath id="clip3">
  <path d="M 0 271 L 56 271 L 56 360 L 0 360 Z M 0 271 "/>
</clipPath>
<clipPath id="clip4">
  <path d="M 166 311 L 185 311 L 185 360 L 166 360 Z M 166 311 "/>
</clipPath>
<clipPath id="clip5">
  <path d="M 149 306 L 169 306 L 169 360 L 149 360 Z M 149 306 "/>
</clipPath>
<clipPath id="clip6">
  <path d="M 107 344 L 130 344 L 130 360 L 107 360 Z M 107 344 "/>
</clipPath>
<clipPath id="clip7">
  <path d="M 91 346 L 114 346 L 114 360 L 91 360 Z M 91 346 "/>
</clipPath>
<clipPath id="clip8">
  <path d="M 75 349 L 99 349 L 99 360 L 75 360 Z M 75 349 "/>
</clipPath>
<clipPath id="clip9">
  <path d="M 114 295 L 157 295 L 157 360 L 114 360 Z M 114 295 "/>
</clipPath>
<clipPath id="clip10">
  <path d="M 180 282 L 304 282 L 304 360 L 180 360 Z M 180 282 "/>
</clipPath>
</defs>
<g id="surface2016">
<path style="fill-rule:nonzero;fill:rgb(0%,0%,0%);fill-opacity:1;stroke-width:0.03;stroke-linecap:square;stroke-linejoin:miter;stroke:rgb(0%,0%,0%);stroke-opacity:1;stroke-miterlimit:10;" d="M 0 178 L 360 178 L 360 -182 L 0 -182 Z M 0 178 " transform="matrix(1,0,0,1,0,182)"/>
<path style=" stroke:none;fill-rule:nonzero;fill:rgb(39.99939%,39.99939%,39.99939%);fill-opacity:0.3;" d="M 22.421875 288.808594 L 21.878906 282.980469 L 23.792969 282.933594 L 24.1875 284.9375 L 25.070312 284.84375 L 25.019531 282.886719 L 27.035156 282.699219 L 27.726562 288.710938 L 25.8125 288.714844 L 25.464844 286.941406 L 24.582031 287.082031 L 24.535156 288.714844 Z M 22.421875 288.808594 "/>
<g clip-path="url(#clip1)" clip-rule="nonzero">
<path style=" stroke:none;fill-rule:nonzero;fill:rgb(39.99939%,39.99939%,39.99939%);fill-opacity:0.3;" d="M -50.324219 264.328125 L -4.929688 270.636719 L -3.367188 271.226562 L -2.429688 272.113281 L -1.804688 273.300781 L 17.609375 461.851562 L -8.316406 455.511719 L -8.480469 453.867188 L -8.570312 452 L -12.609375 412.398438 L -19.765625 340.601562 L -13.914062 342.46875 L -14.015625 340.921875 L -14.121094 339.378906 L -20.007812 337.4375 L -25.371094 282.652344 L -25.574219 282.625 L -25.578125 282.601562 L -26.101562 282.554688 L -65.023438 277.238281 L -61.671875 265.355469 L -59.085938 264.816406 L -54.929688 264.386719 Z M -50.324219 264.328125 "/>
</g>
<g clip-path="url(#clip2)" clip-rule="nonzero">
<path style=" stroke:none;fill-rule:nonzero;fill:rgb(39.99939%,39.99939%,39.99939%);fill-opacity:0.3;" d="M 39.621094 279.878906 L 40.375 278.855469 L 41.570312 278.363281 L 47.589844 278.714844 L 61.441406 277.964844 L 81.632812 395.613281 L 74.296875 396.507812 L 74.539062 398.339844 L 74.765625 400.0625 L 82.574219 399.3125 L 93.109375 460.757812 L 58.292969 462.570312 Z M 39.621094 279.878906 "/>
</g>
<g clip-path="url(#clip3)" clip-rule="nonzero">
<path style=" stroke:none;fill-rule:nonzero;fill:rgb(39.99939%,39.99939%,39.99939%);fill-opacity:0.3;" d="M 0.382812 273.148438 L 0.539062 272.261719 L 1.160156 271.667969 L 3.035156 271.664062 L 35.675781 277.703125 L 36.769531 278.445312 L 37.707031 279.480469 L 38.019531 280.8125 L 55.953125 462.574219 L 40.652344 463.921875 L 28.003906 464.378906 L 19.726562 462.609375 Z M 0.382812 273.148438 "/>
</g>
<path style=" stroke:none;fill-rule:nonzero;fill:rgb(39.99939%,39.99939%,39.99939%);fill-opacity:0.3;" d="M 22.320312 296.042969 L 22.035156 290.898438 L 24.019531 290.824219 L 24.144531 293.15625 L 25.742188 293.0625 L 25.667969 290.820312 L 27.546875 290.730469 L 27.972656 295.945312 L 25.988281 296.039062 L 25.847656 294.035156 L 24.320312 294.140625 L 24.421875 296.011719 Z M 22.320312 296.042969 "/>
<path style=" stroke:none;fill-rule:nonzero;fill:rgb(39.99939%,39.99939%,39.99939%);fill-opacity:0.3;" d="M 11.125 209.046875 L 14.835938 209.488281 L 11.851562 223.6875 L 8.117188 223.1875 Z M 11.125 209.046875 "/>
<path style=" stroke:none;fill-rule:nonzero;fill:rgb(39.99939%,39.99939%,39.99939%);fill-opacity:0.3;" d="M 2.21875 248.820312 L 5.976562 249.261719 L 2.804688 264.273438 L -0.972656 263.773438 Z M 2.21875 248.820312 "/>
<path style=" stroke:none;fill-rule:nonzero;fill:rgb(39.99939%,39.99939%,39.99939%);fill-opacity:0.3;" d="M 40.640625 224.207031 L 13.828125 218.515625 L 15.628906 210.421875 L 41.316406 215.085938 Z M 40.640625 224.207031 "/>
<path style=" stroke:none;fill-rule:nonzero;fill:rgb(39.99939%,39.99939%,39.99939%);fill-opacity:0.3;" d="M -4.894531 225.871094 L 3.984375 227.789062 L 3.441406 230.015625 L -0.835938 229.019531 L -5.40625 228.109375 Z M -4.894531 225.871094 "/>
<path style=" stroke:none;fill-rule:nonzero;fill:rgb(39.99939%,39.99939%,39.99939%);fill-opacity:0.3;" d="M -10.171875 216.972656 L 7.234375 220.703125 L 6.699219 223.09375 L -10.734375 219.433594 Z M -10.171875 216.972656 "/>
<path style=" stroke:none;fill-rule:nonzero;fill:rgb(39.99939%,39.99939%,39.99939%);fill-opacity:0.3;" d="M 6.273438 229.558594 L 9.996094 230.148438 L 7.007812 244.347656 L 3.277344 243.847656 Z M 6.273438 229.558594 "/>
<path style=" stroke:none;fill-rule:nonzero;fill:rgb(39.99939%,39.99939%,39.99939%);fill-opacity:0.3;" d="M 31.707031 165.554688 L 34.351562 165.949219 L 31.777344 179.203125 L 29.082031 178.855469 Z M 31.707031 165.554688 "/>
<path style=" stroke:none;fill-rule:nonzero;fill:rgb(39.99939%,39.99939%,39.99939%);fill-opacity:0.3;" d="M 9.613281 120.097656 L 9.957031 119.105469 L 10.914062 118.527344 L 12.046875 118.691406 L 44.863281 125.53125 L 45.992188 126.027344 L 47.125 126.933594 L 47.90625 127.921875 L 48.34375 129.324219 L 47.742188 157.511719 L 3.109375 147.746094 Z M 9.613281 120.097656 "/>
<path style=" stroke:none;fill-rule:nonzero;fill:rgb(39.99939%,39.99939%,39.99939%);fill-opacity:0.3;" d="M 17.988281 204.976562 L 19.398438 197.769531 L 44.167969 202.65625 L 43.285156 209.339844 L 38.5625 210.019531 Z M 17.988281 204.976562 "/>
<path style=" stroke:none;fill-rule:nonzero;fill:rgb(39.99939%,39.99939%,39.99939%);fill-opacity:0.3;" d="M 24.636719 155.257812 L 44.476562 159.375 L 44.257812 161 L 24.226562 157.113281 Z M 24.636719 155.257812 "/>
<path style=" stroke:none;fill-rule:nonzero;fill:rgb(39.99939%,39.99939%,39.99939%);fill-opacity:0.3;" d="M 7.566406 151.699219 L 20.59375 154.417969 L 20.171875 156.3125 L 7.125 153.75 Z M 7.566406 151.699219 "/>
<path style=" stroke:none;fill-rule:nonzero;fill:rgb(39.99939%,39.99939%,39.99939%);fill-opacity:0.3;" d="M 28.925781 180.882812 L 31.566406 181.28125 L 28.996094 194.535156 L 26.300781 194.1875 Z M 28.925781 180.882812 "/>
<path style=" stroke:none;fill-rule:nonzero;fill:rgb(39.99939%,39.99939%,39.99939%);fill-opacity:0.3;" d="M 2.582031 150.167969 L 4.902344 150.726562 L 3.992188 154.8125 L 1.230469 167.179688 L -1.199219 166.730469 Z M 2.582031 150.167969 "/>
<path style=" stroke:none;fill-rule:nonzero;fill:rgb(39.99939%,39.99939%,39.99939%);fill-opacity:0.3;" d="M -2.082031 168.128906 L 0.238281 168.6875 L -3.175781 185.070312 L -5.765625 184.574219 Z M -2.082031 168.128906 "/>
<path style=" stroke:none;fill-rule:nonzero;fill:rgb(39.99939%,39.99939%,39.99939%);fill-opacity:0.3;" d="M 9.28125 185.640625 L 6.957031 185.191406 L 11.894531 163.972656 L 14.273438 164.445312 Z M 9.28125 185.640625 "/>
<path style=" stroke:none;fill-rule:nonzero;fill:rgb(39.99939%,39.99939%,39.99939%);fill-opacity:0.3;" d="M -10.066406 186.996094 L -8.90625 185.390625 L 3.902344 194.4375 L 5.257812 195.394531 L 4.308594 197 Z M -10.066406 186.996094 "/>
<path style=" stroke:none;fill-rule:nonzero;fill:rgb(39.99939%,39.99939%,39.99939%);fill-opacity:0.3;" d="M 12.660156 161.070312 L 13.027344 158.964844 L 30.40625 162.105469 L 30.117188 164.257812 Z M 12.660156 161.070312 "/>
<path style=" stroke:none;fill-rule:nonzero;fill:rgb(39.99939%,39.99939%,39.99939%);fill-opacity:0.3;" d="M -24.351562 119.96875 L -22.9375 112.765625 L 5.421875 117.855469 L 3.910156 125.230469 Z M -24.351562 119.96875 "/>
<path style=" stroke:none;fill-rule:nonzero;fill:rgb(39.99939%,39.99939%,39.99939%);fill-opacity:0.3;" d="M 58.78125 258.6875 L 61.734375 275.554688 L 55.152344 276.296875 L 52.632812 276.390625 L 50.117188 276.484375 L 45.46875 275.9375 L 40.238281 274.289062 L 44.757812 226.820312 L 49.980469 171.949219 L 50.320312 171.453125 L 50.941406 171.226562 L 51.476562 171.585938 L 51.703125 172.148438 L 52.898438 197.238281 L 53.347656 207.847656 L 53.65625 213.152344 L 54.171875 224.046875 L 54.71875 235.515625 Z M 58.78125 258.6875 "/>
<path style=" stroke:none;fill-rule:nonzero;fill:rgb(39.99939%,39.99939%,39.99939%);fill-opacity:0.3;" d="M 11.347656 235.4375 L 39.347656 241.023438 L 38.582031 249.082031 L 35.777344 248.640625 L 32.414062 249.300781 L 19.054688 246.164062 L 13.226562 244.792969 L 13.109375 245.414062 L 12.96875 246.144531 L 17.765625 247.183594 L 16.082031 259.21875 L 27.886719 261 L 27.949219 259.835938 L 25.488281 259.40625 L 26.921875 249.566406 L 32.539062 250.488281 L 35.972656 249.933594 L 38.4375 250.605469 L 36.558594 270.402344 L 36.296875 271.652344 L 35.671875 272.441406 L 34.675781 273.023438 L 33.558594 273.164062 L 32.304688 273.011719 L 3.832031 267.628906 Z M 11.347656 235.4375 "/>
<path style=" stroke:none;fill-rule:nonzero;fill:rgb(39.99939%,39.99939%,39.99939%);fill-opacity:0.3;" d="M 6.648438 -28.496094 L 31.21875 -26.089844 L 32.109375 -25.808594 L 33.023438 -25.265625 L 33.609375 -24.5 L 33.851562 -23.53125 L 23.496094 23.710938 L 22.742188 25.871094 L 21.414062 28.03125 L 19.710938 29.113281 L 19.417969 24.164062 L 18.269531 14.179688 L 17.21875 7.792969 L 16.171875 2.128906 L 14.359375 -3.765625 L 12.550781 -10.058594 L 10.742188 -14.734375 L 9.128906 -18.78125 L 7.320312 -22.828125 L 5.703125 -26.964844 L 5.890625 -27.683594 Z M 6.648438 -28.496094 "/>
<path style=" stroke:none;fill-rule:nonzero;fill:rgb(39.99939%,39.99939%,39.99939%);fill-opacity:0.3;" d="M 36.660156 39.035156 L 37.109375 37.496094 L 37.628906 36.878906 L 38.300781 36.554688 L 48.234375 38.148438 L 48.84375 38.75 L 49.117188 39.441406 L 49.179688 40.109375 L 44.5625 61.582031 L 44.183594 62.574219 L 43.613281 63.382812 L 42.578125 63.761719 L 33.339844 62.148438 L 32.464844 61.570312 L 32.136719 60.515625 L 32.132812 59.078125 Z M 36.660156 39.035156 "/>
<path style=" stroke:none;fill-rule:nonzero;fill:rgb(39.99939%,39.99939%,39.99939%);fill-opacity:0.3;" d="M 33.296875 100 L 34.253906 100.476562 L 34.808594 101.191406 L 35.210938 102.097656 L 33.109375 112.0625 L 32.507812 112.777344 L 31.65625 113.207031 L 30.648438 113.351562 L 8.332031 108.226562 L 7.375 107.558594 L 6.921875 107.035156 L 6.667969 106.273438 L 9.121094 95.972656 L 9.925781 95.351562 L 10.980469 95.207031 L 11.984375 95.253906 Z M 33.296875 100 "/>
<path style=" stroke:none;fill-rule:nonzero;fill:rgb(39.99939%,39.99939%,39.99939%);fill-opacity:0.3;" d="M -10.3125 30.207031 L -9.886719 29.71875 L -9.214844 29.425781 L 2.296875 30.902344 L 3.339844 31.742188 L 3.546875 33.171875 L 3.242188 39.292969 L 3.195312 43.859375 L 2.785156 49.238281 L 1.855469 55.359375 L 1.183594 59.335938 L 0.613281 62.398438 L -0.367188 66.886719 L -2.441406 74.390625 L -3.480469 78.667969 L -5.191406 85.480469 L -6.332031 90.59375 L -8.351562 99.132812 L -9.082031 102.058594 L -9.964844 102.996094 L -10.953125 103.292969 L -12.410156 103.246094 L -21.308594 101.183594 L -21.832031 100.839844 L -22.246094 100.445312 L -22.507812 99.949219 L -18.316406 79.835938 L -16.289062 71.722656 L -14.882812 66.902344 L -12.398438 55.207031 L -10.902344 46.933594 L -10.507812 40.679688 Z M -10.3125 30.207031 "/>
<path style=" stroke:none;fill-rule:nonzero;fill:rgb(39.99939%,39.99939%,39.99939%);fill-opacity:0.3;" d="M 16.660156 33.011719 L 17.699219 33.652344 L 18.375 34.441406 L 18.480469 35.328125 L 18.441406 45.03125 L 18.234375 46.855469 L 16.320312 56.332031 L 12.644531 72.796875 L 8.394531 91.09375 L 5.796875 102.09375 L 4.914062 105.597656 L 4.5 106.488281 L 3.824219 106.933594 L 2.835938 106.882812 L -5.90625 104.867188 L -6.84375 104.476562 L -7.417969 103.6875 L -7.46875 102.699219 L -6.847656 99.539062 L -4.980469 90.789062 L -1.089844 74.585938 L 0.933594 67.132812 L 2.433594 59.652344 L 3.15625 55.160156 L 3.980469 49.585938 L 4.441406 43.808594 L 4.796875 33.074219 L 5.628906 32.132812 L 6.980469 31.6875 Z M 16.660156 33.011719 "/>
<path style=" stroke:none;fill-rule:nonzero;fill:rgb(39.99939%,39.99939%,39.99939%);fill-opacity:0.3;" d="M 21.996094 36.1875 L 22.523438 34.988281 L 23.402344 34.214844 L 24.484375 33.894531 L 33.054688 35.597656 L 34.382812 36.222656 L 35.050781 37.214844 L 34.957031 38.832031 L 30.519531 58.539062 L 30.144531 60.070312 L 29.195312 60.96875 L 28.089844 61.214844 L 18.886719 59.601562 L 17.972656 58.882812 L 17.59375 57.957031 L 17.378906 56.8125 Z M 21.996094 36.1875 "/>
<path style=" stroke:none;fill-rule:nonzero;fill:rgb(39.99939%,39.99939%,39.99939%);fill-opacity:0.3;" d="M -28.507812 -28.554688 L -28.605469 -29.8125 L -27.753906 -30.804688 L -26.425781 -30.894531 L -13.714844 -29.917969 L -12.097656 -27.128906 L -9.914062 -22.542969 L -8.105469 -18.679688 L -6.203125 -14.722656 L -4.214844 -9.253906 L -1.167969 0.277344 L 0.261719 6.125 L 1.40625 11.789062 L 2.46875 18.292969 L 3.265625 26.988281 L 3.265625 28.289062 L 2.648438 29.171875 L 1.695312 29.277344 L -10.710938 27.84375 L -11.003906 22.359375 L -11.863281 16.0625 L -13.007812 10.394531 L -14.824219 3.710938 L -17.667969 -4.023438 L -20.921875 -12.332031 L -23.015625 -17.101562 L -25.675781 -22.496094 L -27.84375 -27.023438 Z M -28.507812 -28.554688 "/>
<path style=" stroke:none;fill-rule:nonzero;fill:rgb(39.99939%,39.99939%,39.99939%);fill-opacity:0.3;" d="M -11.695312 -30.246094 L -0.167969 -29.269531 L 1.652344 -28.761719 L 3.042969 -27.851562 L 3.792969 -26.835938 L 5.386719 -22.796875 L 7.574219 -17.582031 L 9.378906 -13.804688 L 10.617188 -10.476562 L 11.757812 -6.878906 L 12.808594 -3.238281 L 14.519531 3.191406 L 15.664062 8.09375 L 16.714844 14.480469 L 17.386719 19.25 L 17.746094 23.585938 L 18.035156 29.433594 L 17.183594 30.605469 L 16.046875 31.144531 L 6.65625 29.984375 L 5.589844 29.378906 L 4.792969 28.476562 L 4.414062 27.007812 L 3.691406 18.023438 L 2.738281 11.457031 L 1.6875 6.0625 L 0.546875 0.542969 L -0.851562 -4.617188 L -2.394531 -9.582031 L -4.5625 -15.410156 L -6.085938 -19.1875 L -7.132812 -21.433594 L -8.558594 -24.222656 L -10.175781 -27.460938 Z M -11.695312 -30.246094 "/>
<path style=" stroke:none;fill-rule:nonzero;fill:rgb(39.99939%,39.99939%,39.99939%);fill-opacity:0.3;" d="M 38.695312 -38.082031 L 39.273438 -38.535156 L 40.066406 -38.835938 L 50.671875 -37.195312 L 51.042969 -36.84375 L 51.058594 -36.019531 L 35.898438 32.566406 L 35.363281 33.289062 L 34.425781 33.460938 L 24.773438 31.648438 L 24.144531 30.800781 L 24.054688 29.992188 Z M 38.695312 -38.082031 "/>
<path style=" stroke:none;fill-rule:nonzero;fill:rgb(39.99939%,39.99939%,39.99939%);fill-opacity:0.3;" d="M 37.578125 32.867188 L 53.152344 -35.847656 L 53.523438 -36.496094 L 53.996094 -36.898438 L 64.023438 -36.105469 L 64.550781 -35.40625 L 64.601562 -34.253906 L 50.070312 35.351562 L 49.9375 35.902344 L 49.265625 36.199219 L 38.136719 34.304688 L 37.644531 33.667969 Z M 37.578125 32.867188 "/>
<path style=" stroke:none;fill-rule:nonzero;fill:rgb(39.99939%,39.99939%,39.99939%);fill-opacity:0.3;" d="M 52.089844 35.800781 L 67.117188 -34.894531 L 67.527344 -35.332031 L 68.085938 -35.582031 L 79.160156 -34.734375 L 79.542969 -34.375 L 79.558594 -33.777344 L 64.386719 37.875 L 64.230469 38.390625 L 63.824219 38.519531 L 52.214844 36.457031 L 52.089844 36.128906 Z M 52.089844 35.800781 "/>
<path style=" stroke:none;fill-rule:nonzero;fill:rgb(39.99939%,39.99939%,39.99939%);fill-opacity:0.3;" d="M 56.292969 91.515625 L 67.992188 93.128906 L 62.285156 118.367188 L 61.574219 119.566406 L 60.082031 120.09375 L 50.539062 118.195312 L 49.890625 117.425781 L 49.792969 116.410156 Z M 56.292969 91.515625 "/>
<path style=" stroke:none;fill-rule:nonzero;fill:rgb(39.99939%,39.99939%,39.99939%);fill-opacity:0.3;" d="M 19.335938 60.933594 L 40.679688 64.691406 L 42.007812 65.410156 L 42.960938 66.578125 L 43.054688 68.195312 L 35.832031 97.140625 L 35.472656 98.042969 L 34.5625 98.558594 L 33.511719 98.503906 L 12.070312 93.628906 L 11.023438 93.179688 L 10.265625 92.191406 L 10.074219 91.113281 L 16.398438 62.375 L 16.964844 61.296875 L 18.007812 60.84375 Z M 19.335938 60.933594 "/>
<path style=" stroke:none;fill-rule:nonzero;fill:rgb(39.99939%,39.99939%,39.99939%);fill-opacity:0.3;" d="M 50.585938 39.753906 L 51.027344 38.980469 L 51.839844 38.628906 L 63.28125 40.902344 L 63.488281 41.351562 L 63.488281 41.929688 L 47.703125 115.902344 L 47.253906 116.492188 L 46.324219 116.625 L 34.769531 113.753906 L 34.429688 113.085938 L 34.515625 112.308594 Z M 50.585938 39.753906 "/>
<path style=" stroke:none;fill-rule:nonzero;fill:rgb(39.99939%,39.99939%,39.99939%);fill-opacity:0.3;" d="M 181.453125 45.585938 L 194.285156 48.425781 L 194.585938 49.667969 L 194.789062 52.046875 L 194.292969 55.65625 L 193.191406 58.035156 L 192.390625 59.460938 L 191.289062 59.550781 L 190.085938 59.367188 L 180.160156 52.148438 L 179.855469 51.679688 Z M 181.453125 45.585938 "/>
<path style=" stroke:none;fill-rule:nonzero;fill:rgb(39.99939%,39.99939%,39.99939%);fill-opacity:0.3;" d="M 142.832031 18.109375 L 135.585938 16.679688 L 138.480469 3.484375 L 145.726562 4.917969 Z M 142.832031 18.109375 "/>
<path style=" stroke:none;fill-rule:nonzero;fill:rgb(39.99939%,39.99939%,39.99939%);fill-opacity:0.3;" d="M 107.890625 11.203125 L 100.734375 9.789062 L 103.625 -3.402344 L 110.78125 -1.988281 Z M 107.890625 11.203125 "/>
<path style=" stroke:none;fill-rule:nonzero;fill:rgb(39.99939%,39.99939%,39.99939%);fill-opacity:0.3;" d="M 125.667969 14.71875 L 118.375 13.277344 L 121.269531 0.0820312 L 128.5625 1.523438 Z M 125.667969 14.71875 "/>
<path style=" stroke:none;fill-rule:nonzero;fill:rgb(39.99939%,39.99939%,39.99939%);fill-opacity:0.3;" d="M 99.238281 9.496094 L 91.457031 7.957031 L 100.671875 -32.765625 L 107.828125 -31.359375 Z M 99.238281 9.496094 "/>
<path style=" stroke:none;fill-rule:nonzero;fill:rgb(39.99939%,39.99939%,39.99939%);fill-opacity:0.3;" d="M 116.882812 12.980469 L 109.382812 11.5 L 112.277344 -1.695312 L 119.773438 -0.210938 Z M 116.882812 12.980469 "/>
<path style=" stroke:none;fill-rule:nonzero;fill:rgb(39.99939%,39.99939%,39.99939%);fill-opacity:0.3;" d="M 134.089844 16.382812 L 127.164062 15.015625 L 130.058594 1.820312 L 136.984375 3.1875 Z M 134.089844 16.382812 "/>
<path style=" stroke:none;fill-rule:nonzero;fill:rgb(39.99939%,39.99939%,39.99939%);fill-opacity:0.3;" d="M 93.480469 10.554688 L 128.59375 17.386719 L 129.53125 18.09375 L 130.082031 19.144531 L 130.339844 20.085938 L 130.40625 20.929688 L 124.078125 49.65625 L 123.640625 50.304688 L 123.019531 50.722656 L 121.957031 50.839844 L 85.601562 43.527344 L 84.417969 42.9375 L 83.542969 41.753906 L 83.042969 39.863281 L 86.375 24.007812 L 87.058594 23.117188 L 88.03125 22.402344 L 89.339844 22.296875 L 96.492188 23.535156 L 97.308594 23.945312 L 97.863281 24.742188 L 98.09375 25.53125 L 96.71875 33.675781 L 93.117188 32.957031 L 93.011719 33.660156 L 92.902344 34.40625 L 113.832031 38.792969 L 113.535156 40.246094 L 114.136719 40.367188 L 114.71875 40.484375 L 117.445312 27.550781 L 119.902344 27.910156 L 119.984375 27.304688 L 120.0625 26.71875 L 89.507812 20.964844 L 88.820312 20.550781 L 88.382812 20.019531 L 88.070312 19.367188 L 89.683594 11.386719 L 90.304688 10.734375 L 91.363281 10.320312 L 92.359375 10.320312 Z M 93.480469 10.554688 "/>
<path style=" stroke:none;fill-rule:nonzero;fill:rgb(39.99939%,39.99939%,39.99939%);fill-opacity:0.3;" d="M 148.464844 5.445312 L 151.28125 6.109375 L 150.40625 9.144531 L 147.574219 8.535156 Z M 148.464844 5.445312 "/>
<path style=" stroke:none;fill-rule:nonzero;fill:rgb(39.99939%,39.99939%,39.99939%);fill-opacity:0.3;" d="M 138.171875 25.660156 L 146.0625 34.160156 L 145.097656 38.808594 L 135.78125 36.933594 Z M 138.171875 25.660156 "/>
<path style=" stroke:none;fill-rule:nonzero;fill:rgb(39.99939%,39.99939%,39.99939%);fill-opacity:0.3;" d="M 135.589844 37.835938 L 144.921875 39.664062 L 144.128906 43.5 L 134.789062 41.605469 Z M 135.589844 37.835938 "/>
<path style=" stroke:none;fill-rule:nonzero;fill:rgb(39.99939%,39.99939%,39.99939%);fill-opacity:0.3;" d="M 209.597656 -1.320312 L 209.183594 10.039062 L 208.34375 19.386719 L 189.144531 15.375 L 192.398438 -0.546875 L 193.8125 -5.140625 L 196.40625 -7.492188 L 200.488281 -9.71875 L 205.339844 -11.546875 L 206.953125 -11.628906 L 208.144531 -10.824219 L 208.996094 -7.039062 Z M 209.597656 -1.320312 "/>
<path style=" stroke:none;fill-rule:nonzero;fill:rgb(39.99939%,39.99939%,39.99939%);fill-opacity:0.3;" d="M 204.527344 20.394531 L 206.476562 20.71875 L 206.222656 22.050781 L 207.582031 22.242188 L 207.414062 23.195312 L 206.027344 23.027344 L 205.402344 26.304688 L 206.757812 26.515625 L 206.589844 27.394531 L 205.21875 27.25 L 204.859375 29.117188 L 202.875 28.71875 Z M 204.527344 20.394531 "/>
<path style=" stroke:none;fill-rule:nonzero;fill:rgb(39.99939%,39.99939%,39.99939%);fill-opacity:0.3;" d="M 169.945312 21.570312 L 167.859375 21.238281 L 174.839844 -11.683594 L 176.980469 -11.402344 L 176.710938 -10.144531 L 178.0625 -9.902344 L 177.84375 -8.878906 L 176.492188 -9.121094 L 175.835938 -6.042969 L 177.1875 -5.804688 L 176.96875 -4.78125 L 175.617188 -5.019531 L 174.933594 -1.804688 L 176.28125 -1.5625 L 176.066406 -0.539062 L 174.714844 -0.78125 L 174.105469 2.078125 L 175.453125 2.320312 L 175.238281 3.34375 L 173.886719 3.101562 L 173.144531 6.574219 L 174.496094 6.8125 L 174.277344 7.835938 L 172.925781 7.597656 L 172.265625 10.695312 L 173.617188 10.9375 L 173.398438 11.960938 L 172.046875 11.71875 L 171.363281 14.925781 L 172.714844 15.164062 L 172.496094 16.1875 L 171.144531 15.949219 L 170.476562 19.089844 L 171.828125 19.328125 L 171.609375 20.351562 L 170.257812 20.113281 Z M 169.945312 21.570312 "/>
<path style=" stroke:none;fill-rule:nonzero;fill:rgb(39.99939%,39.99939%,39.99939%);fill-opacity:0.3;" d="M 173.121094 31.621094 L 206.398438 37.769531 L 207.300781 38.148438 L 208.101562 39.003906 L 207.90625 42.042969 L 207.609375 46.703125 L 207.3125 50.980469 L 207.015625 53.492188 L 206.417969 56.4375 L 205.621094 58.910156 L 204.519531 61.667969 L 203.320312 64.042969 L 202.21875 65.71875 L 200.917969 67.90625 L 199.519531 69.941406 L 197.917969 72.320312 L 196.417969 74.03125 L 194.816406 75.171875 L 193.3125 75.746094 L 191.710938 75.367188 L 190.003906 74.511719 L 184.789062 69.765625 L 187.589844 66.777344 L 191.292969 62.820312 L 193.195312 60.726562 L 194.597656 58.730469 L 195.496094 55.933594 L 196.089844 52.132812 L 196.1875 49.28125 L 195.886719 46.617188 L 175.738281 41.792969 L 175.570312 42.539062 L 175.375 43.414062 L 179.960938 44.363281 L 180.25 44.636719 L 180.253906 45.085938 L 176.957031 56.140625 L 177.667969 56.277344 L 178.460938 56.425781 L 179.160156 54.945312 L 179.863281 54.46875 L 181.265625 54.75 L 189.289062 60.828125 L 189.890625 61.640625 L 189.492188 63.109375 L 183.683594 68.492188 L 182.683594 68.816406 L 181.378906 68.304688 L 180.050781 67.113281 L 178.867188 66.105469 L 169.433594 60.511719 L 167.199219 59.292969 L 166.335938 58.050781 L 166.335938 56.71875 L 171.019531 33.238281 L 171.320312 32.382812 L 172.019531 31.8125 Z M 173.121094 31.621094 "/>
<path style=" stroke:none;fill-rule:nonzero;fill:rgb(39.99939%,39.99939%,39.99939%);fill-opacity:0.3;" d="M 189.738281 26.027344 L 187.789062 25.703125 L 188.046875 24.371094 L 186.6875 24.179688 L 186.851562 23.226562 L 188.242188 23.394531 L 188.863281 20.117188 L 187.507812 19.90625 L 187.679688 19.027344 L 189.046875 19.171875 L 189.40625 17.304688 L 191.394531 17.703125 Z M 189.738281 26.027344 "/>
<path style=" stroke:none;fill-rule:nonzero;fill:rgb(39.99939%,39.99939%,39.99939%);fill-opacity:0.3;" d="M 193.222656 21.480469 L 193.53125 19.625 L 194.941406 19.847656 L 195.121094 18.554688 L 196.125 18.695312 L 195.972656 20.015625 L 199.433594 20.558594 L 199.632812 19.269531 L 200.5625 19.417969 L 200.429688 20.71875 L 202.398438 21.03125 L 202.011719 22.921875 Z M 193.222656 21.480469 "/>
<path style=" stroke:none;fill-rule:nonzero;fill:rgb(39.99939%,39.99939%,39.99939%);fill-opacity:0.3;" d="M 160.332031 6.507812 L 160.644531 5.046875 L 159.300781 4.769531 L 159.519531 3.746094 L 160.863281 4.023438 L 161.53125 0.882812 L 160.191406 0.605469 L 160.410156 -0.417969 L 161.75 -0.140625 L 162.433594 -3.34375 L 161.09375 -3.621094 L 161.3125 -4.644531 L 162.652344 -4.367188 L 163.316406 -7.46875 L 161.972656 -7.746094 L 162.191406 -8.769531 L 163.53125 -8.492188 L 164.273438 -11.960938 L 162.929688 -12.238281 L 163.148438 -13.261719 L 164.492188 -12.984375 L 165.101562 -15.847656 L 163.761719 -16.125 L 163.976562 -17.148438 L 165.320312 -16.871094 L 165.753906 -18.601562 L 167.8125 -18.179688 L 162.390625 6.972656 Z M 160.332031 6.507812 "/>
<path style=" stroke:none;fill-rule:nonzero;fill:rgb(39.99939%,39.99939%,39.99939%);fill-opacity:0.3;" d="M 157.679688 55.988281 L 156.136719 55.71875 L 155.867188 57 L 154.785156 56.808594 L 155.054688 55.53125 L 151.734375 54.949219 L 151.464844 56.226562 L 150.382812 56.039062 L 150.652344 54.757812 L 147.265625 54.167969 L 146.996094 55.445312 L 145.914062 55.257812 L 146.183594 53.976562 L 142.90625 53.40625 L 142.640625 54.683594 L 141.558594 54.496094 L 141.824219 53.214844 L 138.160156 52.574219 L 137.890625 53.851562 L 136.808594 53.664062 L 137.078125 52.382812 L 134.054688 51.855469 L 133.785156 53.132812 L 132.703125 52.945312 L 132.972656 51.667969 L 131.140625 51.285156 L 131.550781 49.324219 L 158.132812 54.027344 Z M 157.679688 55.988281 "/>
<path style=" stroke:none;fill-rule:nonzero;fill:rgb(39.99939%,39.99939%,39.99939%);fill-opacity:0.3;" d="M 130.257812 44.917969 L 128.171875 44.578125 L 133.59375 19.429688 L 135.660156 19.808594 L 135.34375 21.5625 L 136.695312 21.808594 L 136.472656 22.832031 L 135.121094 22.585938 L 134.5 25.441406 L 135.847656 25.6875 L 135.625 26.710938 L 134.277344 26.464844 L 133.519531 29.933594 L 134.871094 30.179688 L 134.648438 31.199219 L 133.296875 30.953125 L 132.625 34.054688 L 133.972656 34.300781 L 133.75 35.320312 L 132.402344 35.074219 L 131.703125 38.277344 L 133.054688 38.523438 L 132.832031 39.546875 L 131.480469 39.300781 L 130.796875 42.4375 L 132.148438 42.683594 L 131.921875 43.707031 L 130.574219 43.460938 Z M 130.257812 44.917969 "/>
<path style=" stroke:none;fill-rule:nonzero;fill:rgb(39.99939%,39.99939%,39.99939%);fill-opacity:0.3;" d="M 161.4375 57.765625 L 159.351562 57.425781 L 164.773438 32.277344 L 166.84375 32.65625 L 166.523438 34.410156 L 167.875 34.65625 L 167.652344 35.679688 L 166.300781 35.433594 L 165.679688 38.289062 L 167.027344 38.535156 L 166.804688 39.558594 L 165.457031 39.3125 L 164.703125 42.78125 L 166.050781 43.027344 L 165.828125 44.050781 L 164.480469 43.804688 L 163.804688 46.902344 L 165.152344 47.148438 L 164.929688 48.167969 L 163.582031 47.921875 L 162.882812 51.125 L 164.234375 51.371094 L 164.011719 52.394531 L 162.660156 52.148438 L 161.976562 55.285156 L 163.328125 55.53125 L 163.105469 56.554688 L 161.753906 56.308594 Z M 161.4375 57.765625 "/>
<path style=" stroke:none;fill-rule:nonzero;fill:rgb(39.99939%,39.99939%,39.99939%);fill-opacity:0.3;" d="M 169.066406 27.632812 L 169.378906 25.648438 L 204.171875 31.722656 L 203.910156 33.757812 L 202.582031 33.523438 L 202.351562 34.808594 L 201.269531 34.621094 L 201.5 33.332031 L 198.246094 32.761719 L 198.015625 34.046875 L 196.933594 33.859375 L 197.164062 32.574219 L 193.769531 31.976562 L 193.535156 33.261719 L 192.457031 33.070312 L 192.6875 31.785156 L 189.664062 31.253906 L 189.433594 32.539062 L 188.351562 32.351562 L 188.582031 31.0625 L 184.914062 30.417969 L 184.683594 31.707031 L 183.601562 31.515625 L 183.835938 30.230469 L 180.558594 29.652344 L 180.328125 30.941406 L 179.246094 30.75 L 179.476562 29.464844 L 176.089844 28.867188 L 175.859375 30.15625 L 174.777344 29.964844 L 175.007812 28.679688 L 171.6875 28.09375 L 171.457031 29.382812 L 170.375 29.191406 L 170.609375 27.90625 Z M 169.066406 27.632812 "/>
<path style=" stroke:none;fill-rule:nonzero;fill:rgb(39.99939%,39.99939%,39.99939%);fill-opacity:0.3;" d="M 165.855469 26.984375 L 165.46875 28.960938 L 139.050781 23.492188 L 139.476562 21.535156 L 141.320312 21.859375 L 141.597656 20.578125 L 142.671875 20.804688 L 142.394531 22.082031 L 145.394531 22.710938 L 145.671875 21.433594 L 146.746094 21.65625 L 146.46875 22.933594 L 150.113281 23.695312 L 150.386719 22.417969 L 151.460938 22.640625 L 151.1875 23.917969 L 154.441406 24.601562 L 154.714844 23.320312 L 155.789062 23.546875 L 155.515625 24.824219 L 158.878906 25.527344 L 159.15625 24.25 L 160.226562 24.472656 L 159.953125 25.753906 L 163.25 26.441406 L 163.523438 25.164062 L 164.597656 25.386719 L 164.324219 26.664062 Z M 165.855469 26.984375 "/>
<path style=" stroke:none;fill-rule:nonzero;fill:rgb(39.99939%,39.99939%,39.99939%);fill-opacity:0.3;" d="M 293.480469 138.371094 L 306.878906 138.59375 L 306.605469 142.347656 L 293.261719 141.765625 Z M 293.480469 138.371094 "/>
<path style=" stroke:none;fill-rule:nonzero;fill:rgb(39.99939%,39.99939%,39.99939%);fill-opacity:0.3;" d="M 307.90625 138.214844 L 312.722656 138.378906 L 312.601562 142.609375 L 307.847656 142.402344 Z M 307.90625 138.214844 "/>
<path style=" stroke:none;fill-rule:nonzero;fill:rgb(39.99939%,39.99939%,39.99939%);fill-opacity:0.3;" d="M 287.34375 137.308594 L 292.6875 137.625 L 292.378906 141.695312 L 287.054688 141.179688 Z M 287.34375 137.308594 "/>
<path style=" stroke:none;fill-rule:nonzero;fill:rgb(39.99939%,39.99939%,39.99939%);fill-opacity:0.3;" d="M 177.613281 109.359375 L 178.75 105.992188 L 179.757812 103.347656 L 182.414062 97.578125 L 185.449219 92.410156 L 189.9375 86.125 L 192.535156 84.472656 L 195.066406 84.46875 L 197.097656 85.667969 L 201.28125 88.429688 L 202.167969 90.109375 L 202.421875 91.550781 L 198.269531 112.46875 Z M 177.613281 109.359375 "/>
<path style=" stroke:none;fill-rule:nonzero;fill:rgb(39.99939%,39.99939%,39.99939%);fill-opacity:0.3;" d="M 226.496094 116.402344 L 233.78125 116.9375 L 232.675781 130.519531 L 225.390625 129.984375 Z M 226.496094 116.402344 "/>
<path style=" stroke:none;fill-rule:nonzero;fill:rgb(39.99939%,39.99939%,39.99939%);fill-opacity:0.3;" d="M 236.820312 100.300781 L 244.378906 100.855469 L 243.273438 114.4375 L 235.714844 113.882812 Z M 236.820312 100.300781 "/>
<path style=" stroke:none;fill-rule:nonzero;fill:rgb(39.99939%,39.99939%,39.99939%);fill-opacity:0.3;" d="M 235.457031 117.058594 L 243.015625 117.617188 L 241.90625 131.195312 L 234.347656 130.640625 Z M 235.457031 117.058594 "/>
<path style=" stroke:none;fill-rule:nonzero;fill:rgb(39.99939%,39.99939%,39.99939%);fill-opacity:0.3;" d="M 246.359375 159.914062 L 264.421875 168.886719 L 263.402344 170.824219 L 245.25 161.800781 Z M 246.359375 159.914062 "/>
<path style=" stroke:none;fill-rule:nonzero;fill:rgb(39.99939%,39.99939%,39.99939%);fill-opacity:0.3;" d="M 211.046875 170.996094 L 204.488281 183.144531 L 197.554688 179.761719 L 204.269531 168.039062 Z M 211.046875 170.996094 "/>
<path style=" stroke:none;fill-rule:nonzero;fill:rgb(39.99939%,39.99939%,39.99939%);fill-opacity:0.3;" d="M 212.523438 171.40625 L 218.9375 174.523438 L 212.273438 186.894531 L 205.847656 183.796875 Z M 212.523438 171.40625 "/>
<path style=" stroke:none;fill-rule:nonzero;fill:rgb(39.99939%,39.99939%,39.99939%);fill-opacity:0.3;" d="M 220.296875 175.183594 L 226.75 178.316406 L 220.101562 190.664062 L 213.636719 187.550781 Z M 220.296875 175.183594 "/>
<path style=" stroke:none;fill-rule:nonzero;fill:rgb(39.99939%,39.99939%,39.99939%);fill-opacity:0.3;" d="M 228.109375 178.976562 L 234.75 182.199219 L 228.109375 194.523438 L 221.460938 191.320312 Z M 228.109375 178.976562 "/>
<path style=" stroke:none;fill-rule:nonzero;fill:rgb(39.99939%,39.99939%,39.99939%);fill-opacity:0.3;" d="M 236.109375 182.859375 L 242.449219 185.9375 L 235.824219 198.238281 L 229.472656 195.175781 Z M 236.109375 182.859375 "/>
<path style=" stroke:none;fill-rule:nonzero;fill:rgb(39.99939%,39.99939%,39.99939%);fill-opacity:0.3;" d="M 237.1875 198.894531 L 244.917969 184.539062 L 252.4375 188.191406 L 244.714844 202.523438 Z M 237.1875 198.894531 "/>
<path style=" stroke:none;fill-rule:nonzero;fill:rgb(39.99939%,39.99939%,39.99939%);fill-opacity:0.3;" d="M 253.796875 188.851562 L 259.667969 191.699219 L 251.960938 206.011719 L 246.078125 203.179688 Z M 253.796875 188.851562 "/>
<path style=" stroke:none;fill-rule:nonzero;fill:rgb(39.99939%,39.99939%,39.99939%);fill-opacity:0.3;" d="M 261.027344 192.359375 L 267.597656 195.550781 L 259.902344 209.839844 L 253.320312 206.667969 Z M 261.027344 192.359375 "/>
<path style=" stroke:none;fill-rule:nonzero;fill:rgb(39.99939%,39.99939%,39.99939%);fill-opacity:0.3;" d="M 269.523438 191.96875 L 262.679688 188.644531 L 269.386719 176.121094 L 276.261719 179.460938 Z M 269.523438 191.96875 "/>
<path style=" stroke:none;fill-rule:nonzero;fill:rgb(39.99939%,39.99939%,39.99939%);fill-opacity:0.3;" d="M 262.152344 172.609375 L 267.988281 175.441406 L 261.378906 188.011719 L 255.289062 185.054688 Z M 262.152344 172.609375 "/>
<path style=" stroke:none;fill-rule:nonzero;fill:rgb(39.99939%,39.99939%,39.99939%);fill-opacity:0.3;" d="M 218.832031 154.804688 L 232.433594 161.371094 L 231.613281 162.84375 L 218.011719 156.277344 Z M 218.832031 154.804688 "/>
<path style=" stroke:none;fill-rule:nonzero;fill:rgb(39.99939%,39.99939%,39.99939%);fill-opacity:0.3;" d="M 268.988281 110.386719 L 268.988281 112.1875 L 256.699219 111.089844 L 257.394531 101.8125 L 282.308594 103.640625 L 279.835938 133.980469 L 243.582031 131.320312 L 246.054688 100.980469 L 254.644531 101.609375 L 253.761719 112.113281 L 252.785156 123.730469 L 252.628906 125.589844 L 253.769531 125.644531 L 255.445312 125.722656 L 255.605469 123.757812 L 273.164062 125.046875 L 273.253906 124.039062 L 273.3125 123.3125 L 270.71875 123.15625 L 271.609375 110.554688 L 270.160156 110.464844 Z M 268.988281 110.386719 "/>
<path style=" stroke:none;fill-rule:nonzero;fill:rgb(39.99939%,39.99939%,39.99939%);fill-opacity:0.3;" d="M 226.1875 99.519531 L 223.714844 129.859375 L 216.292969 129.304688 L 218.453125 98.953125 Z M 226.1875 99.519531 "/>
<path style=" stroke:none;fill-rule:nonzero;fill:rgb(39.99939%,39.99939%,39.99939%);fill-opacity:0.3;" d="M 217.191406 76.597656 L 236.230469 77.625 L 236.132812 80 L 233.296875 79.832031 L 233.207031 81.074219 L 231.988281 81.003906 L 232.078125 79.761719 L 228.851562 79.570312 L 228.761719 80.8125 L 227.542969 80.742188 L 227.632812 79.5 L 224.40625 79.308594 L 224.316406 80.550781 L 223.097656 80.480469 L 223.1875 79.238281 L 219.917969 79.042969 L 219.828125 80.285156 L 218.609375 80.214844 L 218.699219 78.972656 L 217.09375 78.878906 Z M 217.191406 76.597656 "/>
<path style=" stroke:none;fill-rule:nonzero;fill:rgb(39.99939%,39.99939%,39.99939%);fill-opacity:0.3;" d="M 277.839844 48.121094 L 286.425781 48.710938 L 283.070312 96.988281 L 274.488281 96.566406 L 276.828125 61.871094 Z M 277.839844 48.121094 "/>
<path style=" stroke:none;fill-rule:nonzero;fill:rgb(39.99939%,39.99939%,39.99939%);fill-opacity:0.3;" d="M 240.175781 73.742188 L 247.703125 74.265625 L 246.175781 96.078125 L 238.28125 95.527344 Z M 240.175781 73.742188 "/>
<path style=" stroke:none;fill-rule:nonzero;fill:rgb(39.99939%,39.99939%,39.99939%);fill-opacity:0.3;" d="M 249.074219 74.359375 L 256.355469 74.867188 L 254.835938 96.53125 L 247.546875 96.152344 Z M 249.074219 74.359375 "/>
<path style=" stroke:none;fill-rule:nonzero;fill:rgb(39.99939%,39.99939%,39.99939%);fill-opacity:0.3;" d="M 257.722656 74.960938 L 265.476562 75.5 L 263.96875 97.011719 L 256.207031 96.605469 Z M 257.722656 74.960938 "/>
<path style=" stroke:none;fill-rule:nonzero;fill:rgb(39.99939%,39.99939%,39.99939%);fill-opacity:0.3;" d="M 266.847656 75.59375 L 273.898438 76.082031 L 272.441406 97.453125 L 265.339844 97.082031 Z M 266.847656 75.59375 "/>
<path style=" stroke:none;fill-rule:nonzero;fill:rgb(39.99939%,39.99939%,39.99939%);fill-opacity:0.3;" d="M 211.21875 58.777344 L 211.363281 57.355469 L 213.078125 57.449219 L 213.101562 55.855469 L 214.199219 55.914062 L 214.175781 57.511719 L 217.714844 57.707031 L 217.738281 56.109375 L 218.835938 56.171875 L 218.8125 57.765625 L 222.121094 57.949219 L 222.144531 56.351562 L 223.242188 56.414062 L 223.21875 58.007812 L 226.542969 58.191406 L 226.566406 56.597656 L 227.664062 56.65625 L 227.640625 58.253906 L 229.46875 58.355469 L 229.421875 59.800781 Z M 211.21875 58.777344 "/>
<path style=" stroke:none;fill-rule:nonzero;fill:rgb(39.99939%,39.99939%,39.99939%);fill-opacity:0.3;" d="M 234.128906 57.457031 L 235.628906 57.59375 L 235.53125 59.222656 L 237.210938 59.246094 L 237.144531 60.289062 L 235.464844 60.265625 L 235.261719 63.625 L 236.941406 63.648438 L 236.878906 64.691406 L 235.195312 64.667969 L 235.003906 67.808594 L 236.683594 67.832031 L 236.621094 68.875 L 234.941406 68.851562 L 234.75 72.003906 L 236.429688 72.027344 L 236.363281 73.070312 L 234.683594 73.046875 L 234.578125 74.785156 L 233.058594 74.738281 Z M 234.128906 57.457031 "/>
<path style=" stroke:none;fill-rule:nonzero;fill:rgb(39.99939%,39.99939%,39.99939%);fill-opacity:0.3;" d="M 216.730469 61.871094 L 215.660156 79.152344 L 214.144531 79.03125 L 214.253906 77.292969 L 212.582031 77.128906 L 212.644531 76.085938 L 214.316406 76.25 L 214.515625 73.097656 L 212.84375 72.929688 L 212.910156 71.890625 L 214.582031 72.054688 L 214.78125 68.914062 L 213.109375 68.746094 L 213.175781 67.707031 L 214.847656 67.871094 L 215.058594 64.511719 L 213.386719 64.347656 L 213.453125 63.304688 L 215.125 63.46875 L 215.226562 61.839844 Z M 216.730469 61.871094 "/>
<path style=" stroke:none;fill-rule:nonzero;fill:rgb(39.99939%,39.99939%,39.99939%);fill-opacity:0.3;" d="M 205.078125 77.359375 L 211.792969 77.351562 L 211.792969 79.917969 L 205.082031 79.925781 Z M 205.078125 77.359375 "/>
<path style=" stroke:none;fill-rule:nonzero;fill:rgb(39.99939%,39.99939%,39.99939%);fill-opacity:0.3;" d="M 213.347656 102.617188 L 213.25 103.757812 L 214.621094 103.867188 L 214.542969 104.910156 L 213.171875 104.800781 L 212.933594 107.996094 L 214.300781 108.105469 L 214.222656 109.148438 L 212.855469 109.039062 L 212.609375 112.296875 L 213.980469 112.410156 L 213.902344 113.453125 L 212.53125 113.339844 L 212.296875 116.496094 L 213.664062 116.605469 L 213.585938 117.648438 L 212.21875 117.539062 L 211.953125 121.070312 L 213.320312 121.179688 L 213.242188 122.222656 L 211.875 122.109375 L 211.65625 125.019531 L 213.023438 125.132812 L 212.945312 126.175781 L 211.578125 126.0625 L 211.378906 127.832031 L 209.28125 127.664062 L 211.230469 102.417969 Z M 213.347656 102.617188 "/>
<path style=" stroke:none;fill-rule:nonzero;fill:rgb(39.99939%,39.99939%,39.99939%);fill-opacity:0.3;" d="M 267.167969 136.4375 L 267.058594 138.441406 L 231.808594 135.613281 L 231.859375 133.5625 L 233.207031 133.671875 L 233.304688 132.371094 L 234.402344 132.460938 L 234.304688 133.761719 L 237.597656 134.027344 L 237.695312 132.726562 L 238.792969 132.816406 L 238.695312 134.117188 L 242.136719 134.398438 L 242.234375 133.097656 L 243.332031 133.1875 L 243.234375 134.488281 L 246.296875 134.738281 L 246.394531 133.4375 L 247.488281 133.523438 L 247.390625 134.824219 L 251.109375 135.128906 L 251.207031 133.828125 L 252.300781 133.917969 L 252.203125 135.21875 L 255.523438 135.488281 L 255.621094 134.1875 L 256.71875 134.277344 L 256.617188 135.578125 L 260.050781 135.855469 L 260.148438 134.554688 L 261.242188 134.644531 L 261.144531 135.945312 L 264.507812 136.21875 L 264.605469 134.917969 L 265.703125 135.007812 L 265.605469 136.308594 Z M 267.167969 136.4375 "/>
<path style=" stroke:none;fill-rule:nonzero;fill:rgb(39.99939%,39.99939%,39.99939%);fill-opacity:0.3;" d="M 276.65625 140.75 L 278.773438 140.824219 L 276.300781 174.328125 L 274.140625 174.3125 L 274.238281 173.027344 L 272.863281 172.953125 L 272.941406 171.914062 L 274.316406 171.988281 L 274.550781 168.855469 L 273.179688 168.78125 L 273.257812 167.738281 L 274.628906 167.8125 L 274.875 164.542969 L 273.5 164.46875 L 273.578125 163.425781 L 274.953125 163.5 L 275.167969 160.589844 L 273.796875 160.515625 L 273.875 159.472656 L 275.246094 159.546875 L 275.511719 156.015625 L 274.140625 155.941406 L 274.21875 154.898438 L 275.589844 154.972656 L 275.828125 151.820312 L 274.457031 151.746094 L 274.535156 150.703125 L 275.90625 150.777344 L 276.148438 147.515625 L 274.777344 147.441406 L 274.855469 146.398438 L 276.226562 146.472656 L 276.46875 143.277344 L 275.097656 143.203125 L 275.175781 142.160156 L 276.546875 142.234375 Z M 276.65625 140.75 "/>
<path style=" stroke:none;fill-rule:nonzero;fill:rgb(39.99939%,39.99939%,39.99939%);fill-opacity:0.3;" d="M 222.710938 148.167969 L 240.777344 157.140625 L 239.753906 159.078125 L 221.601562 150.054688 Z M 222.710938 148.167969 "/>
<path style=" stroke:none;fill-rule:nonzero;fill:rgb(39.99939%,39.99939%,39.99939%);fill-opacity:0.3;" d="M 237.636719 164.132812 L 251.242188 170.699219 L 250.421875 172.171875 L 236.820312 165.605469 Z M 237.636719 164.132812 "/>
<path style=" stroke:none;fill-rule:nonzero;fill:rgb(39.99939%,39.99939%,39.99939%);fill-opacity:0.3;" d="M 201.265625 111.292969 L 203.761719 97.195312 L 205.257812 97.46875 L 204.953125 99.1875 L 206.597656 99.519531 L 206.414062 100.550781 L 204.769531 100.21875 L 204.21875 103.332031 L 205.863281 103.667969 L 205.679688 104.695312 L 204.039062 104.363281 L 203.488281 107.464844 L 205.132812 107.800781 L 204.949219 108.828125 L 203.308594 108.496094 L 202.777344 111.574219 Z M 201.265625 111.292969 "/>
<path style=" stroke:none;fill-rule:nonzero;fill:rgb(39.99939%,39.99939%,39.99939%);fill-opacity:0.3;" d="M 269.707031 152.515625 L 268.292969 151.871094 L 267.679688 153.039062 L 266.6875 152.585938 L 267.300781 151.417969 L 264.257812 150.03125 L 263.644531 151.199219 L 262.65625 150.746094 L 263.269531 149.578125 L 260.164062 148.160156 L 259.550781 149.328125 L 258.558594 148.875 L 259.171875 147.707031 L 256.167969 146.339844 L 255.554688 147.507812 L 254.566406 147.054688 L 255.179688 145.886719 L 251.816406 144.351562 L 251.203125 145.519531 L 250.214844 145.066406 L 250.824219 143.898438 L 248.054688 142.636719 L 247.441406 143.804688 L 246.453125 143.351562 L 247.0625 142.183594 L 245.402344 141.359375 L 246.339844 139.566406 L 270.6875 150.734375 Z M 269.707031 152.515625 "/>
<path style=" stroke:none;fill-rule:nonzero;fill:rgb(39.99939%,39.99939%,39.99939%);fill-opacity:0.3;" d="M 193.800781 165.085938 L 194.414062 163.882812 L 191.066406 162.226562 L 202.757812 141.746094 L 202.273438 141.464844 L 201.765625 141.171875 L 200.25 144.058594 L 181.476562 134.425781 L 180.3125 134.125 L 171.488281 132.980469 L 173.230469 125.621094 L 180.921875 125.773438 L 181.710938 125.933594 L 214.164062 141.03125 L 214.425781 141.363281 L 214.449219 141.921875 L 194.691406 176.019531 L 193.617188 176.894531 L 192.390625 176.75 L 167.949219 164.097656 L 166.566406 163.226562 L 165.949219 161.625 L 170.835938 135.976562 L 180.363281 136.695312 L 175.929688 157.097656 L 193.273438 166.121094 Z M 193.800781 165.085938 "/>
<path style=" stroke:none;fill-rule:nonzero;fill:rgb(39.99939%,39.99939%,39.99939%);fill-opacity:0.3;" d="M 197.929688 131.152344 L 199.371094 129.007812 L 215.648438 137.132812 L 214.746094 139.105469 Z M 197.929688 131.152344 "/>
<path style=" stroke:none;fill-rule:nonzero;fill:rgb(39.99939%,39.99939%,39.99939%);fill-opacity:0.3;" d="M 214.507812 145.507812 L 216.050781 146.414062 L 211.875 153.804688 L 210.382812 152.90625 Z M 214.507812 145.507812 "/>
<path style=" stroke:none;fill-rule:nonzero;fill:rgb(39.99939%,39.99939%,39.99939%);fill-opacity:0.3;" d="M 260.398438 171.757812 L 253.636719 184.253906 L 246.84375 180.957031 L 253.582031 168.449219 Z M 260.398438 171.757812 "/>
<path style=" stroke:none;fill-rule:nonzero;fill:rgb(39.99939%,39.99939%,39.99939%);fill-opacity:0.3;" d="M 227.859375 99.644531 L 235.148438 100.179688 L 234.042969 113.757812 L 226.753906 113.222656 Z M 227.859375 99.644531 "/>
<path style=" stroke:none;fill-rule:nonzero;fill:rgb(39.99939%,39.99939%,39.99939%);fill-opacity:0.3;" d="M 209.183594 74.316406 L 203.972656 74.132812 L 204.167969 69.1875 L 209.375 69.371094 Z M 209.183594 74.316406 "/>
<path style=" stroke:none;fill-rule:nonzero;fill:rgb(39.99939%,39.99939%,39.99939%);fill-opacity:0.3;" d="M 242.402344 45.648438 L 249.929688 46.167969 L 248.871094 59.898438 L 241.347656 59.375 Z M 242.402344 45.648438 "/>
<path style=" stroke:none;fill-rule:nonzero;fill:rgb(39.99939%,39.99939%,39.99939%);fill-opacity:0.3;" d="M 251.300781 46.265625 L 258.578125 46.769531 L 257.523438 60.5 L 250.242188 59.992188 Z M 251.300781 46.265625 "/>
<path style=" stroke:none;fill-rule:nonzero;fill:rgb(39.99939%,39.99939%,39.99939%);fill-opacity:0.3;" d="M 259.949219 46.863281 L 267.703125 47.402344 L 266.648438 61.132812 L 258.894531 60.59375 Z M 259.949219 46.863281 "/>
<path style=" stroke:none;fill-rule:nonzero;fill:rgb(39.99939%,39.99939%,39.99939%);fill-opacity:0.3;" d="M 269.074219 47.496094 L 276.125 47.988281 L 275.113281 61.71875 L 268.015625 61.226562 Z M 269.074219 47.496094 "/>
<path style=" stroke:none;fill-rule:nonzero;fill:rgb(39.99939%,39.99939%,39.99939%);fill-opacity:0.3;" d="M 272.796875 7.933594 L 288.203125 9.1875 L 286.707031 33.332031 L 271.457031 32.570312 Z M 272.796875 7.933594 "/>
<path style=" stroke:none;fill-rule:nonzero;fill:rgb(39.99939%,39.99939%,39.99939%);fill-opacity:0.3;" d="M 258.050781 -33.875 L 267.058594 -33.355469 L 265.132812 -3.230469 L 266.230469 -3.167969 L 267.359375 -3.101562 L 267.453125 -4.496094 L 282.738281 -3.613281 L 282.824219 -4.875 L 282.921875 -6.273438 L 280.269531 -6.425781 L 281.671875 -24.867188 L 281.015625 -24.90625 L 280.398438 -24.949219 L 280.253906 -22.789062 L 278.964844 -22.863281 L 269.703125 -23.398438 L 269.136719 -23.628906 L 268.808594 -24.097656 L 269.363281 -32.082031 L 269.671875 -32.503906 L 270.195312 -32.628906 L 290.515625 -31.457031 L 291.054688 -31.121094 L 291.144531 -30.421875 L 288.925781 3.3125 L 288.457031 4.265625 L 287.472656 4.882812 L 285.976562 5.171875 L 255.222656 3.402344 Z M 258.050781 -33.875 "/>
<path style=" stroke:none;fill-rule:nonzero;fill:rgb(39.99939%,39.99939%,39.99939%);fill-opacity:0.3;" d="M 247.949219 -10.074219 L 255.390625 -9.648438 L 254.546875 3.589844 L 247.101562 3.160156 Z M 247.949219 -10.074219 "/>
<path style=" stroke:none;fill-rule:nonzero;fill:rgb(39.99939%,39.99939%,39.99939%);fill-opacity:0.3;" d="M 230.257812 -11.09375 L 237.472656 -10.679688 L 236.628906 2.554688 L 229.34375 2.136719 Z M 230.257812 -11.09375 "/>
<path style=" stroke:none;fill-rule:nonzero;fill:rgb(39.99939%,39.99939%,39.99939%);fill-opacity:0.3;" d="M 212.425781 -33.121094 L 213.882812 -30.632812 L 215.957031 -26.917969 L 217.585938 -23.148438 L 218.988281 -19.800781 L 220.683594 -14.890625 L 222.382812 -9.785156 L 223.546875 -5.875 L 223.550781 -2.46875 L 223.238281 1.9375 L 218.484375 1.242188 L 214.046875 0.746094 L 214.253906 -1.257812 L 214.148438 -4.164062 L 213.507812 -7.769531 L 212.132812 -12.179688 L 210.964844 -15.28125 L 209.484375 -18.890625 L 208.316406 -21.492188 L 207.113281 -24.464844 L 205.488281 -27.542969 L 204.980469 -28.820312 L 205.429688 -30.039062 L 206.324219 -30.839844 Z M 212.425781 -33.121094 "/>
<path style=" stroke:none;fill-rule:nonzero;fill:rgb(39.99939%,39.99939%,39.99939%);fill-opacity:0.3;" d="M 245.613281 5.554688 L 253.941406 5.878906 L 253.023438 23.347656 L 244.8125 23.019531 Z M 245.613281 5.554688 "/>
<path style=" stroke:none;fill-rule:nonzero;fill:rgb(39.99939%,39.99939%,39.99939%);fill-opacity:0.3;" d="M 239 -10.589844 L 246.421875 -10.164062 L 245.578125 3.070312 L 238.152344 2.644531 Z M 239 -10.589844 "/>
<path style=" stroke:none;fill-rule:nonzero;fill:rgb(39.99939%,39.99939%,39.99939%);fill-opacity:0.3;" d="M 268.746094 43.171875 L 278.65625 43.75 L 278.597656 45.441406 L 276.558594 45.332031 L 276.472656 46.8125 L 275.511719 46.734375 L 275.613281 45.28125 L 271.640625 45.070312 L 271.511719 46.414062 L 270.628906 46.339844 L 270.710938 45.019531 L 268.640625 44.910156 Z M 268.746094 43.171875 "/>
<path style=" stroke:none;fill-rule:nonzero;fill:rgb(39.99939%,39.99939%,39.99939%);fill-opacity:0.3;" d="M 244.300781 38.339844 L 242.738281 38.222656 L 242.613281 39.523438 L 241.515625 39.441406 L 241.640625 38.144531 L 238.277344 37.898438 L 238.152344 39.199219 L 237.054688 39.117188 L 237.179688 37.820312 L 233.746094 37.566406 L 233.621094 38.867188 L 232.523438 38.789062 L 232.648438 37.488281 L 229.328125 37.246094 L 229.203125 38.542969 L 228.105469 38.464844 L 228.230469 37.164062 L 224.511719 36.894531 L 224.386719 38.195312 L 223.289062 38.113281 L 223.414062 36.816406 L 220.351562 36.589844 L 220.226562 37.890625 L 219.128906 37.808594 L 219.253906 36.511719 L 217.390625 36.316406 L 217.578125 34.324219 L 244.535156 36.339844 Z M 244.300781 38.339844 "/>
<path style=" stroke:none;fill-rule:nonzero;fill:rgb(39.99939%,39.99939%,39.99939%);fill-opacity:0.3;" d="M 243.140625 23.226562 L 242.535156 32.636719 L 240.75 32.582031 L 240.867188 30.644531 L 239.308594 30.5625 L 239.390625 29.652344 L 240.917969 29.746094 L 241.144531 25.976562 L 239.726562 25.851562 L 239.808594 25.019531 L 241.195312 25.09375 L 241.3125 23.128906 Z M 243.140625 23.226562 "/>
<path style=" stroke:none;fill-rule:nonzero;fill:rgb(39.99939%,39.99939%,39.99939%);fill-opacity:0.3;" d="M 241.214844 18.875 L 241.117188 20.878906 L 214.160156 18.863281 L 214.300781 16.867188 L 216.175781 16.949219 L 216.265625 15.648438 L 217.363281 15.734375 L 217.273438 17.035156 L 220.335938 17.269531 L 220.425781 15.96875 L 221.523438 16.050781 L 221.433594 17.355469 L 225.148438 17.640625 L 225.242188 16.339844 L 226.335938 16.421875 L 226.246094 17.722656 L 229.566406 17.980469 L 229.660156 16.675781 L 230.753906 16.761719 L 230.664062 18.0625 L 234.097656 18.328125 L 234.1875 17.027344 L 235.285156 17.109375 L 235.191406 18.410156 L 238.558594 18.667969 L 238.648438 17.367188 L 239.746094 17.453125 L 239.652344 18.753906 Z M 241.214844 18.875 "/>
<path style=" stroke:none;fill-rule:nonzero;fill:rgb(39.99939%,39.99939%,39.99939%);fill-opacity:0.3;" d="M 214.257812 21.785156 L 216.085938 21.898438 L 215.949219 23.863281 L 217.335938 23.949219 L 217.304688 24.789062 L 215.886719 24.746094 L 215.621094 28.515625 L 217.152344 28.597656 L 217.117188 29.511719 L 215.558594 29.410156 L 215.425781 31.347656 L 213.648438 31.195312 Z M 214.257812 21.785156 "/>
<path style=" stroke:none;fill-rule:nonzero;fill:rgb(39.99939%,39.99939%,39.99939%);fill-opacity:0.3;" d="M 250.203125 25.378906 L 252.039062 25.496094 L 251.929688 26.96875 L 253.324219 27.042969 L 253.292969 27.929688 L 251.851562 27.871094 L 251.613281 31.421875 L 253.144531 31.503906 L 253.109375 32.417969 L 251.550781 32.320312 L 251.496094 33.585938 L 251.386719 35.398438 L 252.773438 35.484375 L 252.746094 36.324219 L 251.324219 36.285156 L 251.058594 40.050781 L 252.589844 40.132812 L 252.554688 41.046875 L 250.996094 40.949219 L 250.863281 42.882812 L 249.085938 42.730469 L 249.6875 33.425781 Z M 250.203125 25.378906 "/>
<path style=" stroke:none;fill-rule:nonzero;fill:rgb(39.99939%,39.99939%,39.99939%);fill-opacity:0.3;" d="M 268.054688 36.988281 L 268.207031 35.253906 L 270.273438 35.421875 L 270.390625 34.105469 L 271.273438 34.148438 L 271.203125 35.496094 L 275.167969 35.8125 L 275.28125 34.363281 L 276.242188 34.410156 L 276.109375 35.886719 L 278.148438 36.050781 L 277.957031 37.734375 Z M 268.054688 36.988281 "/>
<path style=" stroke:none;fill-rule:nonzero;fill:rgb(39.99939%,39.99939%,39.99939%);fill-opacity:0.3;" d="M 255.019531 42.183594 L 264.929688 42.761719 L 264.875 44.453125 L 262.832031 44.34375 L 262.746094 45.824219 L 261.785156 45.746094 L 261.886719 44.292969 L 257.917969 44.082031 L 257.785156 45.425781 L 256.90625 45.351562 L 256.984375 44.03125 L 254.914062 43.921875 Z M 255.019531 42.183594 "/>
<path style=" stroke:none;fill-rule:nonzero;fill:rgb(39.99939%,39.99939%,39.99939%);fill-opacity:0.3;" d="M 283.796875 34.761719 L 285.621094 34.90625 L 285.449219 36.867188 L 286.835938 36.972656 L 286.792969 37.8125 L 285.371094 37.75 L 285.042969 41.511719 L 286.570312 41.617188 L 286.523438 42.53125 L 284.964844 42.40625 L 284.796875 44.34375 L 283.023438 44.160156 Z M 283.796875 34.761719 "/>
<path style=" stroke:none;fill-rule:nonzero;fill:rgb(39.99939%,39.99939%,39.99939%);fill-opacity:0.3;" d="M 285.804688 136.449219 L 290.828125 66.226562 L 297.410156 -18.910156 L 309.054688 -18.339844 L 323.078125 -17.789062 L 321.289062 8.054688 L 317.816406 68.3125 L 317.472656 74.285156 L 314.054688 138.117188 L 313.804688 142.660156 L 293.011719 141.753906 L 285.472656 141.027344 Z M 285.804688 136.449219 "/>
<path style=" stroke:none;fill-rule:nonzero;fill:rgb(39.99939%,39.99939%,39.99939%);fill-opacity:0.3;" d="M 306.605469 142.347656 L 306.527344 143.441406 L 293.183594 142.949219 L 293.261719 141.765625 Z M 306.605469 142.347656 "/>
<path style=" stroke:none;fill-rule:nonzero;fill:rgb(39.99939%,39.99939%,39.99939%);fill-opacity:0.3;" d="M 288.394531 208.4375 L 305.617188 209.289062 L 302.988281 216.585938 L 287.953125 215.042969 Z M 288.394531 208.4375 "/>
<path style=" stroke:none;fill-rule:nonzero;fill:rgb(39.99939%,39.99939%,39.99939%);fill-opacity:0.3;" d="M 289.613281 198.113281 L 302.742188 199.203125 L 302.421875 204.027344 L 289.28125 203.097656 Z M 289.613281 198.113281 "/>
<path style=" stroke:none;fill-rule:nonzero;fill:rgb(39.99939%,39.99939%,39.99939%);fill-opacity:0.3;" d="M 285.164062 186.953125 L 302.875 188.265625 L 302.515625 193.136719 L 284.910156 191.777344 Z M 285.164062 186.953125 "/>
<path style=" stroke:none;fill-rule:nonzero;fill:rgb(39.99939%,39.99939%,39.99939%);fill-opacity:0.3;" d="M 312.601562 142.609375 L 312.585938 143.183594 L 307.839844 143.050781 L 307.847656 142.402344 Z M 312.601562 142.609375 "/>
<path style=" stroke:none;fill-rule:nonzero;fill:rgb(39.99939%,39.99939%,39.99939%);fill-opacity:0.3;" d="M 308.710938 205.726562 L 303.222656 205.34375 L 303.835938 196.59375 L 309.273438 196.972656 Z M 308.710938 205.726562 "/>
<path style=" stroke:none;fill-rule:nonzero;fill:rgb(39.99939%,39.99939%,39.99939%);fill-opacity:0.3;" d="M 292.378906 141.695312 L 291.457031 153.882812 L 286.121094 153.644531 L 287.054688 141.179688 Z M 292.378906 141.695312 "/>
<path style=" stroke:none;fill-rule:nonzero;fill:rgb(39.99939%,39.99939%,39.99939%);fill-opacity:0.3;" d="M 307.304688 144.089844 L 312.488281 144.359375 L 311.933594 152.792969 L 306.726562 152.566406 Z M 307.304688 144.089844 "/>
<path style=" stroke:none;fill-rule:nonzero;fill:rgb(39.99939%,39.99939%,39.99939%);fill-opacity:0.3;" d="M 292.589844 146.136719 L 305.886719 146.976562 L 305.550781 152.074219 L 292.234375 151.238281 Z M 292.589844 146.136719 "/>
<path style=" stroke:none;fill-rule:nonzero;fill:rgb(39.99939%,39.99939%,39.99939%);fill-opacity:0.3;" d="M 287.0625 155.597656 L 304.789062 156.90625 L 304.484375 161.832031 L 286.808594 160.425781 Z M 287.0625 155.597656 "/>
<path style=" stroke:none;fill-rule:nonzero;fill:rgb(39.99939%,39.99939%,39.99939%);fill-opacity:0.3;" d="M 306.597656 154.308594 L 311.839844 154.613281 L 311.277344 163.0625 L 306.003906 162.761719 Z M 306.597656 154.308594 "/>
<path style=" stroke:none;fill-rule:nonzero;fill:rgb(39.99939%,39.99939%,39.99939%);fill-opacity:0.3;" d="M 305.84375 165.058594 L 311.148438 165.300781 L 310.585938 173.785156 L 305.28125 173.511719 Z M 305.84375 165.058594 "/>
<path style=" stroke:none;fill-rule:nonzero;fill:rgb(39.99939%,39.99939%,39.99939%);fill-opacity:0.3;" d="M 305.261719 175.675781 L 310.617188 175.980469 L 310.074219 184.414062 L 304.703125 184.15625 Z M 305.261719 175.675781 "/>
<path style=" stroke:none;fill-rule:nonzero;fill:rgb(39.99939%,39.99939%,39.99939%);fill-opacity:0.3;" d="M 291.636719 165.429688 L 304.835938 166.289062 L 304.453125 171.320312 L 291.230469 170.460938 Z M 291.636719 165.429688 "/>
<path style=" stroke:none;fill-rule:nonzero;fill:rgb(39.99939%,39.99939%,39.99939%);fill-opacity:0.3;" d="M 290.261719 177.414062 L 303.4375 178.253906 L 303.078125 183.214844 L 289.929688 182.398438 Z M 290.261719 177.414062 "/>
<path style=" stroke:none;fill-rule:nonzero;fill:rgb(39.99939%,39.99939%,39.99939%);fill-opacity:0.3;" d="M 285.1875 161.453125 L 290.488281 161.664062 L 288.640625 184.867188 L 283.453125 184.632812 Z M 285.1875 161.453125 "/>
<path style=" stroke:none;fill-rule:nonzero;fill:rgb(39.99939%,39.99939%,39.99939%);fill-opacity:0.3;" d="M 304.539062 186.34375 L 309.945312 186.601562 L 309.382812 195.074219 L 303.945312 194.773438 Z M 304.539062 186.34375 "/>
<path style=" stroke:none;fill-rule:nonzero;fill:rgb(39.99939%,39.99939%,39.99939%);fill-opacity:0.3;" d="M 283.191406 193.246094 L 288.359375 193.511719 L 286.511719 216.675781 L 281.421875 216.5 Z M 283.191406 193.246094 "/>
<path style=" stroke:none;fill-rule:nonzero;fill:rgb(39.99939%,39.99939%,39.99939%);fill-opacity:0.3;" d="M 284.855469 221.617188 L 287.347656 217.699219 L 297.527344 221.332031 L 294.558594 226.617188 Z M 284.855469 221.617188 "/>
<path style=" stroke:none;fill-rule:nonzero;fill:rgb(39.99939%,39.99939%,39.99939%);fill-opacity:0.3;" d="M 298.652344 230.71875 L 309.863281 216.464844 L 309.160156 235.9375 Z M 298.652344 230.71875 "/>
<path style=" stroke:none;fill-rule:nonzero;fill:rgb(39.99939%,39.99939%,39.99939%);fill-opacity:0.3;" d="M 313.804688 142.660156 L 310.296875 206.519531 L 309.285156 210.964844 L 295.871094 229.714844 L 279.617188 219.5625 L 279.886719 217.816406 L 285.472656 141.027344 L 293.011719 141.753906 Z M 313.804688 142.660156 "/>
<g clip-path="url(#clip4)" clip-rule="nonzero">
<path style=" stroke:none;fill-rule:nonzero;fill:rgb(39.99939%,39.99939%,39.99939%);fill-opacity:0.3;" d="M 170.148438 371.136719 L 166.34375 311.742188 L 180.875 316.4375 L 184.113281 370.117188 Z M 170.148438 371.136719 "/>
</g>
<g clip-path="url(#clip5)" clip-rule="nonzero">
<path style=" stroke:none;fill-rule:nonzero;fill:rgb(39.99939%,39.99939%,39.99939%);fill-opacity:0.3;" d="M 149.554688 306.3125 L 165.097656 311.324219 L 168.558594 371.304688 L 154.769531 372.15625 Z M 149.554688 306.3125 "/>
</g>
<path style=" stroke:none;fill-rule:nonzero;fill:rgb(39.99939%,39.99939%,39.99939%);fill-opacity:0.3;" d="M 148.242188 289.703125 L 179.441406 300.339844 L 180.871094 314.257812 L 148.898438 303.480469 Z M 148.242188 289.703125 "/>
<path style=" stroke:none;fill-rule:nonzero;fill:rgb(39.99939%,39.99939%,39.99939%);fill-opacity:0.3;" d="M 113.96875 291.476562 L 112.191406 277.625 L 145.535156 287.976562 L 146.902344 302.757812 Z M 113.96875 291.476562 "/>
<path style=" stroke:none;fill-rule:nonzero;fill:rgb(39.99939%,39.99939%,39.99939%);fill-opacity:0.3;" d="M 63.175781 275.398438 L 59.675781 260.15625 L 108.316406 275.609375 L 110.453125 290.417969 Z M 63.175781 275.398438 "/>
<path style=" stroke:none;fill-rule:nonzero;fill:rgb(39.99939%,39.99939%,39.99939%);fill-opacity:0.3;" d="M 59.476562 257.765625 L 57.136719 243.625 L 106.167969 259.261719 L 108.3125 273.585938 Z M 59.476562 257.765625 "/>
<path style=" stroke:none;fill-rule:nonzero;fill:rgb(39.99939%,39.99939%,39.99939%);fill-opacity:0.3;" d="M 111.910156 275.273438 L 110.140625 261.363281 L 144.550781 272.011719 L 145.53125 286.441406 Z M 111.910156 275.273438 "/>
<path style=" stroke:none;fill-rule:nonzero;fill:rgb(39.99939%,39.99939%,39.99939%);fill-opacity:0.3;" d="M 147.09375 272.660156 L 177.476562 282.730469 L 178.910156 297.320312 L 148.3125 287.457031 Z M 147.09375 272.660156 "/>
<path style=" stroke:none;fill-rule:nonzero;fill:rgb(39.99939%,39.99939%,39.99939%);fill-opacity:0.3;" d="M 73.304688 336.144531 L 118.734375 329.582031 L 120.972656 342.625 L 75.6875 350.078125 Z M 73.304688 336.144531 "/>
<g clip-path="url(#clip6)" clip-rule="nonzero">
<path style=" stroke:none;fill-rule:nonzero;fill:rgb(39.99939%,39.99939%,39.99939%);fill-opacity:0.3;" d="M 107.113281 346.535156 L 121.246094 344.375 L 129.253906 391.730469 L 115.367188 394.144531 Z M 107.113281 346.535156 "/>
</g>
<g clip-path="url(#clip7)" clip-rule="nonzero">
<path style=" stroke:none;fill-rule:nonzero;fill:rgb(39.99939%,39.99939%,39.99939%);fill-opacity:0.3;" d="M 91.714844 349.066406 L 105.734375 346.761719 L 113.921875 394.300781 L 99.925781 396.300781 Z M 91.714844 349.066406 "/>
</g>
<g clip-path="url(#clip8)" clip-rule="nonzero">
<path style=" stroke:none;fill-rule:nonzero;fill:rgb(39.99939%,39.99939%,39.99939%);fill-opacity:0.3;" d="M 75.96875 351.714844 L 89.847656 349.375 L 98.039062 396.339844 L 84.070312 398.335938 Z M 75.96875 351.714844 "/>
</g>
<path style=" stroke:none;fill-rule:nonzero;fill:rgb(39.99939%,39.99939%,39.99939%);fill-opacity:0.3;" d="M 97.359375 289.464844 L 112.816406 294.457031 L 118.414062 327.867188 L 104.308594 330.132812 Z M 97.359375 289.464844 "/>
<path style=" stroke:none;fill-rule:nonzero;fill:rgb(39.99939%,39.99939%,39.99939%);fill-opacity:0.3;" d="M 80.285156 283.953125 L 95.867188 288.933594 L 102.90625 330.324219 L 88.734375 332.316406 Z M 80.285156 283.953125 "/>
<path style=" stroke:none;fill-rule:nonzero;fill:rgb(39.99939%,39.99939%,39.99939%);fill-opacity:0.3;" d="M 63.273438 278.457031 L 78.441406 283.355469 L 86.929688 332.511719 L 73.023438 334.625 Z M 63.273438 278.457031 "/>
<g clip-path="url(#clip9)" clip-rule="nonzero">
<path style=" stroke:none;fill-rule:nonzero;fill:rgb(39.99939%,39.99939%,39.99939%);fill-opacity:0.3;" d="M 114.585938 295.015625 L 147.199219 305.570312 L 156.421875 428.03125 L 138.636719 429.761719 Z M 114.585938 295.015625 "/>
</g>
<g clip-path="url(#clip10)" clip-rule="nonzero">
<path style=" stroke:none;fill-rule:nonzero;fill:rgb(39.99939%,39.99939%,39.99939%);fill-opacity:0.3;" d="M 187.324219 387.339844 L 191.148438 387.097656 L 191.046875 385.449219 L 190.949219 383.894531 L 187.042969 384.03125 L 183.183594 316.652344 L 188.839844 315.640625 L 188.570312 312.921875 L 188.304688 310.277344 L 182.824219 311.621094 L 180.582031 282.84375 L 303.078125 308.570312 L 302.921875 310.324219 L 290.488281 449.683594 L 289.644531 450.59375 L 288.351562 451.023438 L 258.019531 452.542969 L 245.039062 453.195312 L 201 455.371094 L 201.332031 437.503906 L 209.753906 438.28125 L 209.808594 436.269531 L 209.859375 434.257812 L 199.222656 433.609375 L 199.441406 455.425781 L 192.378906 455.742188 Z M 187.324219 387.339844 "/>
</g>
<path style=" stroke:none;fill-rule:nonzero;fill:rgb(39.99939%,39.99939%,39.99939%);fill-opacity:0.3;" d="M 52.898438 197.238281 L 53.65625 213.152344 L 53.347656 207.847656 Z M 52.898438 197.238281 "/>
<path style=" stroke:none;fill-rule:nonzero;fill:rgb(39.99939%,39.99939%,39.99939%);fill-opacity:0.3;" d="M 129.335938 160.328125 L 130.015625 159.171875 L 130.867188 158.476562 L 132.152344 158.179688 L 133.75 158.605469 L 166.667969 174.589844 L 168.160156 175.457031 L 169.191406 176.652344 L 169.652344 178.390625 L 170.230469 184.914062 L 170.351562 189.914062 L 169.78125 191.109375 L 168.519531 191.546875 L 166.800781 191.113281 L 127.234375 171.054688 L 125.859375 170.1875 L 125.363281 169.101562 L 125.410156 167.578125 L 125.78125 166.566406 Z M 129.335938 160.328125 "/>
<path style=" stroke:none;fill-rule:nonzero;fill:rgb(39.99939%,39.99939%,39.99939%);fill-opacity:0.3;" d="M 107.53125 167.167969 L 107.503906 166.152344 L 107.960938 165.355469 L 108.742188 164.847656 L 109.617188 164.773438 L 121.382812 170.25 L 122.1875 171.335938 L 122.417969 172.964844 L 124.25 204.179688 L 123.808594 205.019531 L 122.707031 205.789062 L 121.675781 206.207031 L 112.839844 206.289062 L 111.660156 205.9375 L 110.847656 205.171875 L 110.296875 204.199219 Z M 107.53125 167.167969 "/>
<path style=" stroke:none;fill-rule:nonzero;fill:rgb(39.99939%,39.99939%,39.99939%);fill-opacity:0.3;" d="M 110.375 210.367188 L 110.507812 208.886719 L 111.035156 208.152344 L 111.96875 207.738281 L 123.894531 207.703125 L 124.632812 208.167969 L 124.96875 208.851562 L 125.097656 210.019531 L 127.644531 244.066406 L 127.792969 246.230469 L 127.351562 247.347656 L 125.714844 247.890625 L 115.625 244.6875 L 114.445312 243.988281 L 113.339844 242.875 L 112.894531 241.058594 Z M 110.375 210.367188 "/>
<path style=" stroke:none;fill-rule:nonzero;fill:rgb(39.99939%,39.99939%,39.99939%);fill-opacity:0.3;" d="M 123.796875 172.75 L 124.171875 172.011719 L 124.949219 171.710938 L 136.980469 178.0625 L 137.898438 178.820312 L 138.472656 180.34375 L 144.050781 250.632812 L 143.976562 252.097656 L 143.390625 253.007812 L 142.515625 253.269531 L 141.496094 253.164062 L 130.132812 249.386719 L 129.171875 248.480469 L 128.804688 247.085938 L 128.503906 243.734375 Z M 123.796875 172.75 "/>
<path style=" stroke:none;fill-rule:nonzero;fill:rgb(39.99939%,39.99939%,39.99939%);fill-opacity:0.3;" d="M 145.277344 252.636719 L 143.253906 221.164062 L 143.253906 220.011719 L 143.671875 219.015625 L 144.34375 218.296875 L 144.972656 217.859375 L 154.75 217.570312 L 155.757812 217.886719 L 156.554688 218.523438 L 156.765625 219.558594 L 156.8125 220.753906 L 160.371094 255.425781 L 160.375 256.796875 L 159.910156 258.167969 L 158.980469 258.316406 L 158.054688 258.363281 L 146.828125 254.59375 L 146.003906 254.105469 L 145.484375 253.222656 Z M 145.277344 252.636719 "/>
<path style=" stroke:none;fill-rule:nonzero;fill:rgb(39.99939%,39.99939%,39.99939%);fill-opacity:0.3;" d="M 160.144531 233.992188 L 158.65625 220.988281 L 158.867188 219 L 159.328125 218.003906 L 159.789062 217.367188 L 160.417969 216.925781 L 170.785156 216.320312 L 171.664062 216.398438 L 172.421875 216.996094 L 172.882812 217.710938 L 173.09375 219.183594 L 176.847656 261.285156 L 176.644531 262.363281 L 176.332031 263 L 175.765625 263.585938 L 174.683594 264.078125 L 173.671875 264.210938 L 164.148438 260.808594 L 163.164062 260.023438 L 162.804688 259.046875 L 162.492188 257.527344 Z M 160.144531 233.992188 "/>
<path style=" stroke:none;fill-rule:nonzero;fill:rgb(39.99939%,39.99939%,39.99939%);fill-opacity:0.3;" d="M 145.800781 256.433594 L 175.691406 266.128906 L 177.121094 280.21875 L 146.878906 271.023438 Z M 145.800781 256.433594 "/>
<path style=" stroke:none;fill-rule:nonzero;fill:rgb(39.99939%,39.99939%,39.99939%);fill-opacity:0.3;" d="M 107.945312 244.078125 L 143.855469 255.855469 L 144.605469 270.09375 L 109.773438 258.46875 Z M 107.945312 244.078125 "/>
<path style=" stroke:none;fill-rule:nonzero;fill:rgb(39.99939%,39.99939%,39.99939%);fill-opacity:0.3;" d="M 55.03125 227.066406 L 104.390625 242.660156 L 105.953125 256.617188 L 56.554688 240.503906 Z M 55.03125 227.066406 "/>
<path style=" stroke:none;fill-rule:nonzero;fill:rgb(39.99939%,39.99939%,39.99939%);fill-opacity:0.3;" d="M 107.855469 208.863281 L 108.425781 209.042969 L 108.910156 209.417969 L 109.253906 209.859375 L 109.375 210.222656 L 110.175781 219.378906 L 109.90625 220.296875 L 109.457031 220.945312 L 108.859375 221.390625 L 107.929688 221.699219 L 57.691406 223.097656 L 57.121094 222.980469 L 56.46875 222.75 L 55.9375 222.363281 L 55.570312 221.976562 L 55.066406 210.683594 L 55.1875 210.296875 L 55.515625 210.105469 L 56.046875 210.066406 L 56.574219 210.027344 Z M 107.855469 208.863281 "/>
<path style=" stroke:none;fill-rule:nonzero;fill:rgb(39.99939%,39.99939%,39.99939%);fill-opacity:0.3;" d="M 106.425781 193.246094 L 107.375 193.484375 L 107.949219 194.328125 L 108.203125 195.289062 L 108.96875 205.421875 L 108.738281 205.984375 L 108.300781 206.402344 L 107.460938 206.675781 L 56.605469 207.90625 L 55.835938 207.734375 L 55.296875 207.308594 L 54.933594 206.796875 L 54.378906 195.078125 L 54.964844 194.394531 L 55.777344 194.136719 L 56.632812 193.964844 Z M 106.425781 193.246094 "/>
<path style=" stroke:none;fill-rule:nonzero;fill:rgb(39.99939%,39.99939%,39.99939%);fill-opacity:0.3;" d="M 105.375 177.859375 L 106.222656 177.945312 L 106.882812 178.4375 L 107.113281 179.527344 L 107.695312 189.636719 L 107.367188 190.664062 L 106.847656 191.289062 L 106.171875 191.679688 L 56.523438 192.964844 L 55.71875 192.832031 L 54.984375 192.507812 L 54.449219 191.867188 L 54 180.835938 L 54.355469 180.078125 L 54.921875 179.445312 L 55.605469 179.304688 Z M 105.375 177.859375 "/>
<path style=" stroke:none;fill-rule:nonzero;fill:rgb(39.99939%,39.99939%,39.99939%);fill-opacity:0.3;" d="M 53.101562 164.429688 L 102.589844 163.460938 L 103.832031 164.253906 L 104.695312 165.117188 L 105.246094 166.136719 L 105.785156 174.613281 L 105.484375 175.136719 L 105.042969 175.605469 L 104.496094 175.761719 L 54.859375 177.609375 L 54.027344 177.5 L 53.550781 177.128906 L 53.285156 176.457031 L 52.269531 165.144531 L 52.570312 164.582031 Z M 53.101562 164.429688 "/>
<path style=" stroke:none;fill-rule:nonzero;fill:rgb(39.99939%,39.99939%,39.99939%);fill-opacity:0.3;" d="M 51.535156 145.464844 L 51.714844 144.664062 L 52.289062 144.203125 L 57.183594 144.6875 L 62.785156 145.746094 L 68.894531 147.175781 L 73.617188 148.609375 L 76.496094 149.519531 L 80.429688 150.871094 L 83.703125 152.0625 L 88.636719 154.457031 L 96.136719 158.460938 L 96.804688 159.148438 L 96.769531 159.972656 L 96.195312 161.066406 L 52.125 161.929688 Z M 51.535156 145.464844 "/>
<path style=" stroke:none;fill-rule:nonzero;fill:rgb(39.99939%,39.99939%,39.99939%);fill-opacity:0.3;" d="M 51.671875 128.824219 L 52.34375 127.972656 L 53.683594 127.6875 L 55.253906 127.757812 L 67.835938 131.167969 L 77.292969 132.839844 L 82.460938 133.953125 L 87.78125 136.050781 L 94.285156 138.988281 L 101.085938 142.484375 L 106.257812 145.28125 L 110.542969 147.097656 L 126.089844 154.683594 L 127.53125 155.410156 L 128.011719 156.140625 L 128.011719 157.140625 L 122.550781 167.710938 L 121.976562 168.257812 L 120.824219 167.984375 L 107.757812 162.078125 L 102.863281 159.363281 L 98.15625 156.855469 L 93.804688 154.363281 L 88.664062 151.847656 L 85.503906 150.289062 L 79.835938 148.21875 L 73.296875 146.042969 L 63.75 143.796875 L 56.0625 142.765625 L 52.585938 142.367188 L 51.890625 142.023438 L 51.429688 141.527344 Z M 51.671875 128.824219 "/>
<path style=" stroke:none;fill-rule:nonzero;fill:rgb(39.99939%,39.99939%,39.99939%);fill-opacity:0.3;" d="M 106.761719 223.363281 L 107.957031 223.367188 L 108.90625 223.578125 L 109.570312 224.066406 L 110.015625 224.90625 L 111.234375 240.992188 L 111.066406 241.75 L 110.75 242.234375 L 110.253906 242.589844 L 109.738281 242.800781 L 67.125 228.652344 L 66.234375 228.332031 L 65.429688 227.816406 L 62.996094 225.582031 Z M 106.761719 223.363281 "/>
<path style=" stroke:none;fill-rule:nonzero;fill:rgb(39.99939%,39.99939%,39.99939%);fill-opacity:0.3;" d="M 145.863281 216.601562 L 144.027344 216.386719 L 142.765625 215.734375 L 142.535156 214.648438 L 140.601562 182.964844 L 140.738281 182.199219 L 141.148438 181.421875 L 141.863281 180.789062 L 142.632812 180.546875 L 169.449219 193.964844 L 171.054688 195.703125 L 172.21875 212.988281 L 171.761719 214.183594 L 170.386719 214.945312 Z M 145.863281 216.601562 "/>
<path style=" stroke:none;fill-rule:nonzero;fill:rgb(39.99939%,39.99939%,39.99939%);fill-opacity:0.3;" d="M 180.582031 282.84375 L 180.5625 282.597656 L 172.40625 178.09375 L 181.480469 182.6875 L 274.917969 229.976562 L 308.570312 247.007812 L 303.078125 308.570312 Z M 180.582031 282.84375 "/>
<path style=" stroke:none;fill-rule:nonzero;fill:rgb(39.99939%,39.99939%,39.99939%);fill-opacity:0.3;" d="M 144.710938 98.253906 L 149.429688 74.976562 L 150.238281 73.328125 L 151.742188 72.449219 L 162.757812 74.480469 L 164.566406 75.136719 L 166.378906 76.335938 L 168.421875 77.917969 L 170.324219 79.761719 L 171.664062 81.757812 L 171.976562 82.964844 L 171.320312 84.175781 L 168.914062 87.59375 L 166.347656 92.183594 L 164.027344 97.296875 L 162.375 101.015625 L 162.015625 101.417969 L 161.335938 101.539062 Z M 144.710938 98.253906 "/>
<path style=" stroke:none;fill-rule:nonzero;fill:rgb(39.99939%,39.99939%,39.99939%);fill-opacity:0.3;" d="M 160.609375 158.929688 L 159.621094 159.3125 L 158.222656 159.1875 L 139.078125 150.382812 L 123.351562 142.25 L 127.289062 125.84375 L 167.070312 133.125 L 161.171875 158.179688 Z M 160.609375 158.929688 "/>
<path style=" stroke:none;fill-rule:nonzero;fill:rgb(39.99939%,39.99939%,39.99939%);fill-opacity:0.3;" d="M 71.585938 97.96875 L 121.988281 106.710938 L 114.640625 138.359375 L 103.734375 132.632812 L 97.910156 130.144531 L 90.226562 126.65625 L 86.84375 125.492188 L 81.96875 124.253906 L 77.890625 123.515625 L 71.785156 122.304688 L 69.738281 121.699219 L 68.332031 120.617188 L 67.328125 119.246094 L 67.285156 117.679688 Z M 71.585938 97.96875 "/>
<path style=" stroke:none;fill-rule:nonzero;fill:rgb(39.99939%,39.99939%,39.99939%);fill-opacity:0.3;" d="M 141.539062 58.914062 L 162.273438 62.628906 L 164.476562 63.175781 L 166.210938 63.945312 L 173.046875 67.449219 L 179.300781 71.503906 L 188.339844 78.632812 L 189.148438 79.621094 L 188.570312 80.71875 L 185.09375 84.710938 L 182.550781 88.445312 L 180.125 91.523438 L 177.351562 95.917969 L 173.859375 103.226562 L 172.695312 103.597656 L 164.398438 101.535156 L 165.863281 97.992188 L 167.941406 93.808594 L 170.140625 89.859375 L 171.605469 87.359375 L 174.050781 84.355469 L 174.515625 83.625 L 174.773438 82.894531 L 174.792969 82.011719 L 174.46875 81.347656 L 171.433594 77.78125 L 168.699219 75.808594 L 166.101562 74.050781 L 163.503906 72.867188 L 160.25 72.066406 L 157.5625 71.496094 L 154.964844 70.929688 L 152.554688 70.578125 L 149.894531 70.363281 L 150.125 68.792969 L 148.273438 68.464844 L 142.84375 97.992188 L 141.140625 97.683594 L 140.816406 99.753906 L 172.738281 106.277344 L 171.019531 113.917969 L 131.753906 106.828125 Z M 141.539062 58.914062 "/>
<path style=" stroke:none;fill-rule:nonzero;fill:rgb(39.99939%,39.99939%,39.99939%);fill-opacity:0.3;" d="M 126.703125 85.179688 L 134.5 86.621094 L 134.089844 88.613281 L 126.296875 87.171875 Z M 126.703125 85.179688 "/>
<path style=" stroke:none;fill-rule:nonzero;fill:rgb(39.99939%,39.99939%,39.99939%);fill-opacity:0.3;" d="M 118.382812 136.398438 L 116.296875 136.058594 L 121.914062 110.953125 L 123.785156 111.285156 L 123.46875 113.042969 L 124.816406 113.289062 L 124.59375 114.308594 L 123.246094 114.0625 L 122.625 116.921875 L 123.972656 117.167969 L 123.75 118.191406 L 122.402344 117.945312 L 121.644531 121.410156 L 122.996094 121.65625 L 122.773438 122.679688 L 121.421875 122.433594 L 120.75 125.53125 L 122.097656 125.777344 L 121.875 126.800781 L 120.527344 126.554688 L 119.828125 129.757812 L 121.175781 130.003906 L 120.953125 131.023438 L 119.605469 130.777344 L 118.921875 133.917969 L 120.269531 134.164062 L 120.046875 135.1875 L 118.699219 134.941406 Z M 118.382812 136.398438 "/>
<path style=" stroke:none;fill-rule:nonzero;fill:rgb(39.99939%,39.99939%,39.99939%);fill-opacity:0.3;" d="M 134.023438 83.664062 L 131.9375 83.324219 L 137.359375 58.171875 L 139.429688 58.550781 L 139.113281 60.304688 L 140.460938 60.550781 L 140.238281 61.574219 L 138.886719 61.328125 L 138.265625 64.1875 L 139.617188 64.433594 L 139.394531 65.457031 L 138.042969 65.210938 L 137.289062 68.675781 L 138.636719 68.921875 L 138.414062 69.945312 L 137.066406 69.699219 L 136.390625 72.796875 L 137.738281 73.042969 L 137.515625 74.066406 L 136.167969 73.820312 L 135.46875 77.019531 L 136.820312 77.265625 L 136.597656 78.289062 L 135.246094 78.042969 L 134.5625 81.183594 L 135.914062 81.429688 L 135.691406 82.449219 L 134.339844 82.203125 Z M 134.023438 83.664062 "/>
<path style=" stroke:none;fill-rule:nonzero;fill:rgb(39.99939%,39.99939%,39.99939%);fill-opacity:0.3;" d="M 121.613281 86.347656 L 121.925781 84.886719 L 120.582031 84.609375 L 120.800781 83.585938 L 122.144531 83.863281 L 122.8125 80.722656 L 121.472656 80.445312 L 121.6875 79.421875 L 123.03125 79.699219 L 123.714844 76.496094 L 122.375 76.21875 L 122.589844 75.195312 L 123.933594 75.472656 L 124.597656 72.371094 L 123.253906 72.09375 L 123.472656 71.070312 L 124.8125 71.347656 L 125.554688 67.878906 L 124.210938 67.601562 L 124.429688 66.578125 L 125.773438 66.855469 L 126.382812 63.992188 L 125.039062 63.714844 L 125.257812 62.691406 L 126.601562 62.96875 L 127.035156 61.238281 L 129.09375 61.660156 L 123.671875 86.8125 Z M 121.613281 86.347656 "/>
<path style=" stroke:none;fill-rule:nonzero;fill:rgb(39.99939%,39.99939%,39.99939%);fill-opacity:0.3;" d="M 115.503906 102.332031 L 108.554688 100.941406 L 112.398438 82.734375 L 119.144531 84.105469 Z M 115.503906 102.332031 "/>
<path style=" stroke:none;fill-rule:nonzero;fill:rgb(39.99939%,39.99939%,39.99939%);fill-opacity:0.3;" d="M 80.6875 95.371094 L 73.128906 93.945312 L 76.816406 75.636719 L 84.929688 77.261719 Z M 80.6875 95.371094 "/>
<path style=" stroke:none;fill-rule:nonzero;fill:rgb(39.99939%,39.99939%,39.99939%);fill-opacity:0.3;" d="M 98.367188 98.902344 L 90.828125 97.394531 L 95.0625 79.285156 L 102.3125 80.738281 Z M 98.367188 98.902344 "/>
<path style=" stroke:none;fill-rule:nonzero;fill:rgb(39.99939%,39.99939%,39.99939%);fill-opacity:0.3;" d="M 89.191406 97.066406 L 82.367188 95.703125 L 86.359375 77.546875 L 93.496094 78.972656 Z M 89.191406 97.066406 "/>
<path style=" stroke:none;fill-rule:nonzero;fill:rgb(39.99939%,39.99939%,39.99939%);fill-opacity:0.3;" d="M 106.804688 100.589844 L 99.761719 99.179688 L 103.65625 81.007812 L 110.582031 82.390625 Z M 106.804688 100.589844 "/>
<path style=" stroke:none;fill-rule:nonzero;fill:rgb(39.99939%,39.99939%,39.99939%);fill-opacity:0.3;" d="M 151.667969 114.941406 L 152.011719 113.546875 L 153.699219 113.855469 L 153.945312 112.277344 L 155.023438 112.476562 L 154.777344 114.054688 L 158.257812 114.695312 L 158.503906 113.117188 L 159.585938 113.316406 L 159.335938 114.894531 L 162.589844 115.492188 L 162.839844 113.914062 L 163.917969 114.113281 L 163.671875 115.691406 L 166.9375 116.292969 L 167.183594 114.714844 L 168.265625 114.910156 L 168.019531 116.488281 L 169.820312 116.820312 L 169.566406 118.246094 Z M 151.667969 114.941406 "/>
<path style=" stroke:none;fill-rule:nonzero;fill:rgb(39.99939%,39.99939%,39.99939%);fill-opacity:0.3;" d="M 130.414062 111.15625 L 130.722656 109.757812 L 132.414062 110.027344 L 132.621094 108.441406 L 133.707031 108.617188 L 133.5 110.199219 L 136.996094 110.757812 L 137.199219 109.175781 L 138.285156 109.347656 L 138.078125 110.933594 L 141.347656 111.453125 L 141.554688 109.871094 L 142.640625 110.042969 L 142.433594 111.628906 L 145.714844 112.152344 L 145.921875 110.570312 L 147.003906 110.742188 L 146.800781 112.324219 L 148.609375 112.613281 L 148.394531 114.046875 Z M 130.414062 111.15625 "/>
<path style=" stroke:none;fill-rule:nonzero;fill:rgb(39.99939%,39.99939%,39.99939%);fill-opacity:0.3;" d="M 122.320312 69.246094 L 115.074219 67.816406 L 117.964844 54.621094 L 125.214844 56.054688 Z M 122.320312 69.246094 "/>
<path style=" stroke:none;fill-rule:nonzero;fill:rgb(39.99939%,39.99939%,39.99939%);fill-opacity:0.3;" d="M 87.375 62.339844 L 80.21875 60.925781 L 83.113281 47.734375 L 90.269531 49.148438 Z M 87.375 62.339844 "/>
<path style=" stroke:none;fill-rule:nonzero;fill:rgb(39.99939%,39.99939%,39.99939%);fill-opacity:0.3;" d="M 105.15625 65.855469 L 97.863281 64.414062 L 100.753906 51.21875 L 108.050781 52.660156 Z M 105.15625 65.855469 "/>
<path style=" stroke:none;fill-rule:nonzero;fill:rgb(39.99939%,39.99939%,39.99939%);fill-opacity:0.3;" d="M 96.367188 64.117188 L 88.871094 62.636719 L 91.765625 49.441406 L 99.261719 50.925781 Z M 96.367188 64.117188 "/>
<path style=" stroke:none;fill-rule:nonzero;fill:rgb(39.99939%,39.99939%,39.99939%);fill-opacity:0.3;" d="M 113.578125 67.519531 L 106.652344 66.152344 L 109.542969 52.957031 L 116.472656 54.324219 Z M 113.578125 67.519531 "/>
<path style=" stroke:none;fill-rule:nonzero;fill:rgb(39.99939%,39.99939%,39.99939%);fill-opacity:0.3;" d="M 123.078125 139.921875 L 120.367188 138.769531 L 123.636719 125.195312 L 126.382812 125.707031 Z M 123.078125 139.921875 "/>
<path style=" stroke:none;fill-rule:nonzero;fill:rgb(39.99939%,39.99939%,39.99939%);fill-opacity:0.3;" d="M 128.027344 56.519531 L 135.972656 57.988281 L 135.5625 59.980469 L 127.621094 58.511719 Z M 128.027344 56.519531 "/>
<path style="fill-rule:nonzero;fill:rgb(39.99939%,39.99939%,39.99939%);fill-opacity:1;stroke-width:0.03;stroke-linecap:square;stroke-linejoin:miter;stroke:rgb(39.99939%,39.99939%,39.99939%);stroke-opacity:1;stroke-miterlimit:3.239307;" d="M 126.898438 210.238281 L 127.65625 226.152344 L 127.347656 220.847656 Z M 126.898438 210.238281 " transform="matrix(1,0,0,1,-74,-13)"/>
<path style="fill-rule:nonzero;fill:rgb(39.99939%,39.99939%,39.99939%);fill-opacity:1;stroke-width:0.03;stroke-linecap:square;stroke-linejoin:miter;stroke:rgb(39.99939%,39.99939%,39.99939%);stroke-opacity:1;stroke-miterlimit:3.239307;" d="M 203.335938 173.328125 L 204.015625 172.171875 L 204.867188 171.476562 L 206.152344 171.179688 L 207.75 171.605469 L 240.667969 187.589844 L 242.160156 188.457031 L 243.191406 189.652344 L 243.652344 191.390625 L 244.230469 197.914062 L 244.351562 202.914062 L 243.78125 204.109375 L 242.519531 204.546875 L 240.800781 204.113281 L 201.234375 184.054688 L 199.859375 183.1875 L 199.363281 182.101562 L 199.410156 180.578125 L 199.78125 179.566406 Z M 203.335938 173.328125 " transform="matrix(1,0,0,1,-74,-13)"/>
<path style="fill-rule:nonzero;fill:rgb(39.99939%,39.99939%,39.99939%);fill-opacity:1;stroke-width:0.03;stroke-linecap:square;stroke-linejoin:miter;stroke:rgb(39.99939%,39.99939%,39.99939%);stroke-opacity:1;stroke-miterlimit:3.239307;" d="M 181.53125 180.167969 L 181.503906 179.152344 L 181.960938 178.355469 L 182.742188 177.847656 L 183.617188 177.773438 L 195.382812 183.25 L 196.1875 184.335938 L 196.417969 185.964844 L 198.25 217.179688 L 197.808594 218.019531 L 196.707031 218.789062 L 195.675781 219.207031 L 186.839844 219.289062 L 185.660156 218.9375 L 184.847656 218.171875 L 184.296875 217.199219 Z M 181.53125 180.167969 " transform="matrix(1,0,0,1,-74,-13)"/>
<path style="fill-rule:nonzero;fill:rgb(39.99939%,39.99939%,39.99939%);fill-opacity:1;stroke-width:0.03;stroke-linecap:square;stroke-linejoin:miter;stroke:rgb(39.99939%,39.99939%,39.99939%);stroke-opacity:1;stroke-miterlimit:3.239307;" d="M 184.375 223.367188 L 184.507812 221.886719 L 185.035156 221.152344 L 185.96875 220.738281 L 197.894531 220.703125 L 198.632812 221.167969 L 198.96875 221.851562 L 199.097656 223.019531 L 201.644531 257.066406 L 201.792969 259.230469 L 201.351562 260.347656 L 199.714844 260.890625 L 189.625 257.6875 L 188.445312 256.988281 L 187.339844 255.875 L 186.894531 254.058594 Z M 184.375 223.367188 " transform="matrix(1,0,0,1,-74,-13)"/>
<path style="fill-rule:nonzero;fill:rgb(39.99939%,39.99939%,39.99939%);fill-opacity:1;stroke-width:0.03;stroke-linecap:square;stroke-linejoin:miter;stroke:rgb(39.99939%,39.99939%,39.99939%);stroke-opacity:1;stroke-miterlimit:3.239307;" d="M 197.796875 185.75 L 198.171875 185.011719 L 198.949219 184.710938 L 210.980469 191.0625 L 211.898438 191.820312 L 212.472656 193.34375 L 218.050781 263.632812 L 217.976562 265.097656 L 217.390625 266.007812 L 216.515625 266.269531 L 215.496094 266.164062 L 204.132812 262.386719 L 203.171875 261.480469 L 202.804688 260.085938 L 202.503906 256.734375 Z M 197.796875 185.75 " transform="matrix(1,0,0,1,-74,-13)"/>
<path style="fill-rule:nonzero;fill:rgb(39.99939%,39.99939%,39.99939%);fill-opacity:1;stroke-width:0.03;stroke-linecap:square;stroke-linejoin:miter;stroke:rgb(39.99939%,39.99939%,39.99939%);stroke-opacity:1;stroke-miterlimit:3.239307;" d="M 219.277344 265.636719 L 217.253906 234.164062 L 217.253906 233.011719 L 217.671875 232.015625 L 218.34375 231.296875 L 218.972656 230.859375 L 228.75 230.570312 L 229.757812 230.886719 L 230.554688 231.523438 L 230.765625 232.558594 L 230.8125 233.753906 L 234.371094 268.425781 L 234.375 269.796875 L 233.910156 271.167969 L 232.980469 271.316406 L 232.054688 271.363281 L 220.828125 267.59375 L 220.003906 267.105469 L 219.484375 266.222656 Z M 219.277344 265.636719 " transform="matrix(1,0,0,1,-74,-13)"/>
<path style="fill-rule:nonzero;fill:rgb(39.99939%,39.99939%,39.99939%);fill-opacity:1;stroke-width:0.03;stroke-linecap:square;stroke-linejoin:miter;stroke:rgb(39.99939%,39.99939%,39.99939%);stroke-opacity:1;stroke-miterlimit:3.239307;" d="M 234.144531 246.992188 L 232.65625 233.988281 L 232.867188 232 L 233.328125 231.003906 L 233.789062 230.367188 L 234.417969 229.925781 L 244.785156 229.320312 L 245.664062 229.398438 L 246.421875 229.996094 L 246.882812 230.710938 L 247.09375 232.183594 L 250.847656 274.285156 L 250.644531 275.363281 L 250.332031 276 L 249.765625 276.585938 L 248.683594 277.078125 L 247.671875 277.210938 L 238.148438 273.808594 L 237.164062 273.023438 L 236.804688 272.046875 L 236.492188 270.527344 Z M 234.144531 246.992188 " transform="matrix(1,0,0,1,-74,-13)"/>
<path style="fill-rule:nonzero;fill:rgb(39.99939%,39.99939%,39.99939%);fill-opacity:1;stroke-width:0.03;stroke-linecap:square;stroke-linejoin:miter;stroke:rgb(39.99939%,39.99939%,39.99939%);stroke-opacity:1;stroke-miterlimit:3.239307;" d="M 219.800781 269.433594 L 249.691406 279.128906 L 251.121094 293.21875 L 220.878906 284.023438 Z M 219.800781 269.433594 " transform="matrix(1,0,0,1,-74,-13)"/>
<path style="fill-rule:nonzero;fill:rgb(39.99939%,39.99939%,39.99939%);fill-opacity:1;stroke-width:0.03;stroke-linecap:square;stroke-linejoin:miter;stroke:rgb(39.99939%,39.99939%,39.99939%);stroke-opacity:1;stroke-miterlimit:3.239307;" d="M 181.945312 257.078125 L 217.855469 268.855469 L 218.605469 283.09375 L 183.773438 271.46875 Z M 181.945312 257.078125 " transform="matrix(1,0,0,1,-74,-13)"/>
<path style="fill-rule:nonzero;fill:rgb(39.99939%,39.99939%,39.99939%);fill-opacity:1;stroke-width:0.03;stroke-linecap:square;stroke-linejoin:miter;stroke:rgb(39.99939%,39.99939%,39.99939%);stroke-opacity:1;stroke-miterlimit:3.239307;" d="M 129.03125 240.066406 L 178.390625 255.660156 L 179.953125 269.617188 L 130.554688 253.503906 Z M 129.03125 240.066406 " transform="matrix(1,0,0,1,-74,-13)"/>
<path style="fill-rule:nonzero;fill:rgb(39.99939%,39.99939%,39.99939%);fill-opacity:1;stroke-width:0.03;stroke-linecap:square;stroke-linejoin:miter;stroke:rgb(39.99939%,39.99939%,39.99939%);stroke-opacity:1;stroke-miterlimit:3.239307;" d="M 181.855469 221.863281 L 182.425781 222.042969 L 182.910156 222.417969 L 183.253906 222.859375 L 183.375 223.222656 L 184.175781 232.378906 L 183.90625 233.296875 L 183.457031 233.945312 L 182.859375 234.390625 L 181.929688 234.699219 L 131.691406 236.097656 L 131.121094 235.980469 L 130.46875 235.75 L 129.9375 235.363281 L 129.570312 234.976562 L 129.066406 223.683594 L 129.1875 223.296875 L 129.515625 223.105469 L 130.046875 223.066406 L 130.574219 223.027344 Z M 181.855469 221.863281 " transform="matrix(1,0,0,1,-74,-13)"/>
<path style="fill-rule:nonzero;fill:rgb(39.99939%,39.99939%,39.99939%);fill-opacity:1;stroke-width:0.03;stroke-linecap:square;stroke-linejoin:miter;stroke:rgb(39.99939%,39.99939%,39.99939%);stroke-opacity:1;stroke-miterlimit:3.239307;" d="M 180.425781 206.246094 L 181.375 206.484375 L 181.949219 207.328125 L 182.203125 208.289062 L 182.96875 218.421875 L 182.738281 218.984375 L 182.300781 219.402344 L 181.460938 219.675781 L 130.605469 220.90625 L 129.835938 220.734375 L 129.296875 220.308594 L 128.933594 219.796875 L 128.378906 208.078125 L 128.964844 207.394531 L 129.777344 207.136719 L 130.632812 206.964844 Z M 180.425781 206.246094 " transform="matrix(1,0,0,1,-74,-13)"/>
<path style="fill-rule:nonzero;fill:rgb(39.99939%,39.99939%,39.99939%);fill-opacity:1;stroke-width:0.03;stroke-linecap:square;stroke-linejoin:miter;stroke:rgb(39.99939%,39.99939%,39.99939%);stroke-opacity:1;stroke-miterlimit:3.239307;" d="M 179.375 190.859375 L 180.222656 190.945312 L 180.882812 191.4375 L 181.113281 192.527344 L 181.695312 202.636719 L 181.367188 203.664062 L 180.847656 204.289062 L 180.171875 204.679688 L 130.523438 205.964844 L 129.71875 205.832031 L 128.984375 205.507812 L 128.449219 204.867188 L 128 193.835938 L 128.355469 193.078125 L 128.921875 192.445312 L 129.605469 192.304688 Z M 179.375 190.859375 " transform="matrix(1,0,0,1,-74,-13)"/>
<path style="fill-rule:nonzero;fill:rgb(39.99939%,39.99939%,39.99939%);fill-opacity:1;stroke-width:0.03;stroke-linecap:square;stroke-linejoin:miter;stroke:rgb(39.99939%,39.99939%,39.99939%);stroke-opacity:1;stroke-miterlimit:3.239307;" d="M 127.101562 177.429688 L 176.589844 176.460938 L 177.832031 177.253906 L 178.695312 178.117188 L 179.246094 179.136719 L 179.785156 187.613281 L 179.484375 188.136719 L 179.042969 188.605469 L 178.496094 188.761719 L 128.859375 190.609375 L 128.027344 190.5 L 127.550781 190.128906 L 127.285156 189.457031 L 126.269531 178.144531 L 126.570312 177.582031 Z M 127.101562 177.429688 " transform="matrix(1,0,0,1,-74,-13)"/>
<path style="fill-rule:nonzero;fill:rgb(39.99939%,39.99939%,39.99939%);fill-opacity:1;stroke-width:0.03;stroke-linecap:square;stroke-linejoin:miter;stroke:rgb(39.99939%,39.99939%,39.99939%);stroke-opacity:1;stroke-miterlimit:3.239307;" d="M 125.535156 158.464844 L 125.714844 157.664062 L 126.289062 157.203125 L 131.183594 157.6875 L 136.785156 158.746094 L 142.894531 160.175781 L 147.617188 161.609375 L 150.496094 162.519531 L 154.429688 163.871094 L 157.703125 165.0625 L 162.636719 167.457031 L 170.136719 171.460938 L 170.804688 172.148438 L 170.769531 172.972656 L 170.195312 174.066406 L 126.125 174.929688 Z M 125.535156 158.464844 " transform="matrix(1,0,0,1,-74,-13)"/>
<path style="fill-rule:nonzero;fill:rgb(39.99939%,39.99939%,39.99939%);fill-opacity:1;stroke-width:0.03;stroke-linecap:square;stroke-linejoin:miter;stroke:rgb(39.99939%,39.99939%,39.99939%);stroke-opacity:1;stroke-miterlimit:3.239307;" d="M 125.671875 141.824219 L 126.34375 140.972656 L 127.683594 140.6875 L 129.253906 140.757812 L 141.835938 144.167969 L 151.292969 145.839844 L 156.460938 146.953125 L 161.78125 149.050781 L 168.285156 151.988281 L 175.085938 155.484375 L 180.257812 158.28125 L 184.542969 160.097656 L 200.089844 167.683594 L 201.53125 168.410156 L 202.011719 169.140625 L 202.011719 170.140625 L 196.550781 180.710938 L 195.976562 181.257812 L 194.824219 180.984375 L 181.757812 175.078125 L 176.863281 172.363281 L 172.15625 169.855469 L 167.804688 167.363281 L 162.664062 164.847656 L 159.503906 163.289062 L 153.835938 161.21875 L 147.296875 159.042969 L 137.75 156.796875 L 130.0625 155.765625 L 126.585938 155.367188 L 125.890625 155.023438 L 125.429688 154.527344 Z M 125.671875 141.824219 " transform="matrix(1,0,0,1,-74,-13)"/>
<path style="fill-rule:nonzero;fill:rgb(39.99939%,39.99939%,39.99939%);fill-opacity:1;stroke-width:0.03;stroke-linecap:square;stroke-linejoin:miter;stroke:rgb(39.99939%,39.99939%,39.99939%);stroke-opacity:1;stroke-miterlimit:3.239307;" d="M 180.761719 236.363281 L 181.957031 236.367188 L 182.90625 236.578125 L 183.570312 237.066406 L 184.015625 237.90625 L 185.234375 253.992188 L 185.066406 254.75 L 184.75 255.234375 L 184.253906 255.589844 L 183.738281 255.800781 L 141.125 241.652344 L 140.234375 241.332031 L 139.429688 240.816406 L 136.996094 238.582031 Z M 180.761719 236.363281 " transform="matrix(1,0,0,1,-74,-13)"/>
<path style="fill-rule:nonzero;fill:rgb(39.99939%,39.99939%,39.99939%);fill-opacity:1;stroke-width:0.03;stroke-linecap:square;stroke-linejoin:miter;stroke:rgb(39.99939%,39.99939%,39.99939%);stroke-opacity:1;stroke-miterlimit:3.239307;" d="M 219.863281 229.601562 L 218.027344 229.386719 L 216.765625 228.734375 L 216.535156 227.648438 L 214.601562 195.964844 L 214.738281 195.199219 L 215.148438 194.421875 L 215.863281 193.789062 L 216.632812 193.546875 L 243.449219 206.964844 L 245.054688 208.703125 L 246.21875 225.988281 L 245.761719 227.183594 L 244.386719 227.945312 Z M 219.863281 229.601562 " transform="matrix(1,0,0,1,-74,-13)"/>
<path style="fill-rule:nonzero;fill:rgb(39.99939%,39.99939%,39.99939%);fill-opacity:1;stroke-width:0.03;stroke-linecap:square;stroke-linejoin:miter;stroke:rgb(39.99939%,39.99939%,39.99939%);stroke-opacity:1;stroke-miterlimit:3.239307;" d="M 254.582031 295.84375 L 254.5625 295.597656 L 246.40625 191.09375 L 255.480469 195.6875 L 348.917969 242.976562 L 382.570312 260.007812 L 377.078125 321.570312 Z M 254.582031 295.84375 " transform="matrix(1,0,0,1,-74,-13)"/>
<path style="fill-rule:nonzero;fill:rgb(99.998474%,99.998474%,30.587769%);fill-opacity:0.8;stroke-width:0.288;stroke-linecap:square;stroke-linejoin:miter;stroke:rgb(0%,0%,0%);stroke-opacity:0.8;stroke-miterlimit:3.25;" d="M 199.535156 206.410156 L 171.75 254.535156 L 227.320312 254.535156 Z M 199.535156 206.410156 " transform="matrix(1,0,0,1,-74,-13)"/>
</g>
</svg>
