<?xml version="1.0" encoding="UTF-8"?>
<svg xmlns="http://www.w3.org/2000/svg" xmlns:xlink="http://www.w3.org/1999/xlink" width="361pt" height="361pt" viewBox="0 0 361 361" version="1.1">
<defs>
<clipPath id="clip1">
  <path d="M 0 317 L 39 317 L 39 360 L 0 360 Z M 0 317 "/>
</clipPath>
<clipPath id="clip2">
  <path d="M 287 0 L 360 0 L 360 11 L 287 11 Z M 287 0 "/>
</clipPath>
<clipPath id="clip3">
  <path d="M 358 0 L 360 0 L 360 12 L 358 12 Z M 358 0 "/>
</clipPath>
<clipPath id="clip4">
  <path d="M 188 0 L 360 0 L 360 133 L 188 133 Z M 188 0 "/>
</clipPath>
<clipPath id="clip5">
  <path d="M 352 151 L 360 151 L 360 161 L 352 161 Z M 352 151 "/>
</clipPath>
<clipPath id="clip6">
  <path d="M 351 145 L 360 145 L 360 151 L 351 151 Z M 351 145 "/>
</clipPath>
<clipPath id="clip7">
  <path d="M 336 150 L 360 150 L 360 222 L 336 222 Z M 336 150 "/>
</clipPath>
<clipPath id="clip8">
  <path d="M 359 110 L 360 110 L 360 117 L 359 117 Z M 359 110 "/>
</clipPath>
<clipPath id="clip9">
  <path d="M 358 116 L 360 116 L 360 123 L 358 123 Z M 358 116 "/>
</clipPath>
<clipPath id="clip10">
  <path d="M 357 121 L 360 121 L 360 128 L 357 128 Z M 357 121 "/>
</clipPath>
<clipPath id="clip11">
  <path d="M 265 61 L 360 61 L 360 146 L 265 146 Z M 265 61 "/>
</clipPath>
<clipPath id="clip12">
  <path d="M 351 121 L 360 121 L 360 162 L 351 162 Z M 351 121 "/>
</clipPath>
<clipPath id="clip13">
  <path d="M 354 153 L 360 153 L 360 269 L 354 269 Z M 354 153 "/>
</clipPath>
<clipPath id="clip14">
  <path d="M 358 10 L 360 10 L 360 14 L 358 14 Z M 358 10 "/>
</clipPath>
<clipPath id="clip15">
  <path d="M 287 12 L 360 12 L 360 89 L 287 89 Z M 287 12 "/>
</clipPath>
<clipPath id="clip16">
  <path d="M 53 338 L 137 338 L 137 360 L 53 360 Z M 53 338 "/>
</clipPath>
<clipPath id="clip17">
  <path d="M 132 241 L 206 241 L 206 360 L 132 360 Z M 132 241 "/>
</clipPath>
<clipPath id="clip18">
  <path d="M 199 257 L 292 257 L 292 360 L 199 360 Z M 199 257 "/>
</clipPath>
<clipPath id="clip19">
  <path d="M 18 318 L 76 318 L 76 360 L 18 360 Z M 18 318 "/>
</clipPath>
<clipPath id="clip20">
  <path d="M 277 330 L 286 330 L 286 360 L 277 360 Z M 277 330 "/>
</clipPath>
<clipPath id="clip21">
  <path d="M 355 305 L 360 305 L 360 340 L 355 340 Z M 355 305 "/>
</clipPath>
<clipPath id="clip22">
  <path d="M 344 285 L 360 285 L 360 301 L 344 301 Z M 344 285 "/>
</clipPath>
<clipPath id="clip23">
  <path d="M 327 300 L 360 300 L 360 360 L 327 360 Z M 327 300 "/>
</clipPath>
<clipPath id="clip24">
  <path d="M 294 219 L 360 219 L 360 345 L 294 345 Z M 294 219 "/>
</clipPath>
<clipPath id="clip25">
  <path d="M 359 264 L 360 264 L 360 288 L 359 288 Z M 359 264 "/>
</clipPath>
<clipPath id="clip26">
  <path d="M 335 217 L 360 217 L 360 270 L 335 270 Z M 335 217 "/>
</clipPath>
<clipPath id="clip27">
  <path d="M 264 290 L 339 290 L 339 360 L 264 360 Z M 264 290 "/>
</clipPath>
<clipPath id="clip28">
  <path d="M 0 300 L 7 300 L 7 360 L 0 360 Z M 0 300 "/>
</clipPath>
<clipPath id="clip29">
  <path d="M 245 331 L 279 331 L 279 360 L 245 360 Z M 245 331 "/>
</clipPath>
</defs>
<g id="surface6797">
<path style="fill-rule:nonzero;fill:rgb(0%,0%,0%);fill-opacity:1;stroke-width:0.03;stroke-linecap:square;stroke-linejoin:miter;stroke:rgb(0%,0%,0%);stroke-opacity:1;stroke-miterlimit:10;" d="M 0 178 L 360 178 L 360 -182 L 0 -182 Z M 0 178 " transform="matrix(1,0,0,1,0,182)"/>
<path style=" stroke:none;fill-rule:nonzero;fill:rgb(39.99939%,39.99939%,39.99939%);fill-opacity:0.3;" d="M 106.457031 12.589844 L 122.867188 15.222656 L 108.59375 75.152344 L 92.339844 70.75 Z M 106.457031 12.589844 "/>
<path style=" stroke:none;fill-rule:nonzero;fill:rgb(39.99939%,39.99939%,39.99939%);fill-opacity:0.3;" d="M 90.488281 9.941406 L 103.507812 12.097656 L 89.980469 70.039062 L 78.699219 66.515625 L 77.351562 66.078125 Z M 90.488281 9.941406 "/>
<path style=" stroke:none;fill-rule:nonzero;fill:rgb(39.99939%,39.99939%,39.99939%);fill-opacity:0.3;" d="M 52.0625 46.632812 L 79.230469 50.679688 L 75.222656 65.390625 L 49.863281 57.175781 L 51.132812 50.289062 Z M 52.0625 46.632812 "/>
<path style=" stroke:none;fill-rule:nonzero;fill:rgb(39.99939%,39.99939%,39.99939%);fill-opacity:0.3;" d="M 168.207031 24.34375 L 203.421875 29.929688 L 200.914062 43.050781 L 165.703125 39.730469 Z M 168.207031 24.34375 "/>
<path style=" stroke:none;fill-rule:nonzero;fill:rgb(39.99939%,39.99939%,39.99939%);fill-opacity:0.3;" d="M 125 15.484375 L 149.109375 20.101562 L 141.601562 52.902344 L 117.550781 49.46875 Z M 125 15.484375 "/>
<path style=" stroke:none;fill-rule:nonzero;fill:rgb(39.99939%,39.99939%,39.99939%);fill-opacity:0.3;" d="M 142.320312 55.433594 L 158.492188 58.746094 L 152.625 87.867188 L 137.183594 83.167969 L 136.226562 82.898438 Z M 142.320312 55.433594 "/>
<path style=" stroke:none;fill-rule:nonzero;fill:rgb(39.99939%,39.99939%,39.99939%);fill-opacity:0.3;" d="M 158.417969 73.957031 L 192.753906 83.480469 L 187.480469 99.105469 L 155.65625 89.707031 L 155.867188 88.855469 L 155.160156 88.636719 Z M 158.417969 73.957031 "/>
<path style=" stroke:none;fill-rule:nonzero;fill:rgb(39.99939%,39.99939%,39.99939%);fill-opacity:0.3;" d="M 161.804688 59.164062 L 197.773438 63.917969 L 193.382812 81.691406 L 158.921875 71.929688 Z M 161.804688 59.164062 "/>
<path style=" stroke:none;fill-rule:nonzero;fill:rgb(39.99939%,39.99939%,39.99939%);fill-opacity:0.3;" d="M 165.316406 42.289062 L 201.03125 45.011719 L 198.273438 62.066406 L 162.308594 57.195312 Z M 165.316406 42.289062 "/>
<path style=" stroke:none;fill-rule:nonzero;fill:rgb(39.99939%,39.99939%,39.99939%);fill-opacity:0.3;" d="M 116.964844 51.644531 L 140.183594 54.953125 L 133.71875 82.195312 L 111.28125 75.882812 Z M 116.964844 51.644531 "/>
<path style=" stroke:none;fill-rule:nonzero;fill:rgb(39.99939%,39.99939%,39.99939%);fill-opacity:0.3;" d="M 150.957031 20.6875 L 165.808594 23.667969 L 159.625 56.46875 L 143.550781 53.101562 Z M 150.957031 20.6875 "/>
<path style=" stroke:none;fill-rule:nonzero;fill:rgb(39.99939%,39.99939%,39.99939%);fill-opacity:0.3;" d="M 74.183594 7.578125 L 87.964844 9.917969 L 78.851562 48.394531 L 65.382812 46.054688 Z M 74.183594 7.578125 "/>
<path style=" stroke:none;fill-rule:nonzero;fill:rgb(39.99939%,39.99939%,39.99939%);fill-opacity:0.3;" d="M 103.53125 -38.609375 L 161.65625 -29.480469 L 159.460938 -20.023438 L 145.253906 -22.453125 L 144.910156 -21.652344 L 144.570312 -20.851562 L 159.046875 -18.25 L 155.269531 -1.992188 L 127.171875 -7.238281 L 128.496094 -14.523438 L 127.792969 -14.664062 L 126.476562 -14.925781 L 120.414062 11.550781 L 92.238281 6.898438 Z M 103.53125 -38.609375 "/>
<path style=" stroke:none;fill-rule:nonzero;fill:rgb(39.99939%,39.99939%,39.99939%);fill-opacity:0.3;" d="M 68.925781 -44.777344 L 100.914062 -38.84375 L 89.746094 6.664062 L 60.957031 1.898438 L 62.550781 -6.738281 L 73.625 -4.875 L 73.835938 -6.484375 L 73.992188 -7.675781 L 62.671875 -9.304688 L 65.613281 -25.757812 L 76.933594 -24.246094 L 77.339844 -25.207031 L 77.671875 -25.996094 L 65.859375 -27.507812 Z M 68.925781 -44.777344 "/>
<path style=" stroke:none;fill-rule:nonzero;fill:rgb(39.99939%,39.99939%,39.99939%);fill-opacity:0.3;" d="M 37.757812 -49.90625 L 66.550781 -45.023438 L 63.484375 -26.703125 L 51.671875 -29.378906 L 51.414062 -28.402344 L 51.058594 -27.046875 L 63.238281 -24.367188 L 60.910156 -9.082031 L 48.851562 -11.292969 L 48.855469 -10.242188 L 48.855469 -9.191406 L 59.804688 -7.332031 L 58.328125 0.339844 L 42.554688 -2.527344 L 30.5 -4.410156 Z M 37.757812 -49.90625 "/>
<path style=" stroke:none;fill-rule:nonzero;fill:rgb(39.99939%,39.99939%,39.99939%);fill-opacity:0.3;" d="M 52.894531 36.484375 L 53.28125 36.503906 L 59.597656 4.835938 L 72.769531 7.421875 L 63.660156 45.75 L 52.355469 43.664062 L 52.707031 41.742188 Z M 52.894531 36.484375 "/>
<path style=" stroke:none;fill-rule:nonzero;fill:rgb(39.99939%,39.99939%,39.99939%);fill-opacity:0.3;" d="M 176.855469 -13.457031 L 194.519531 -10.15625 L 187.660156 24.132812 L 169.277344 20.828125 Z M 176.855469 -13.457031 "/>
<path style=" stroke:none;fill-rule:nonzero;fill:rgb(39.99939%,39.99939%,39.99939%);fill-opacity:0.3;" d="M 161.585938 -16.292969 L 174.835938 -13.609375 L 171.910156 1.292969 L 158.375 -1.484375 Z M 161.585938 -16.292969 "/>
<path style=" stroke:none;fill-rule:nonzero;fill:rgb(39.99939%,39.99939%,39.99939%);fill-opacity:0.3;" d="M 157.621094 0.851562 L 171.117188 3.371094 L 167.664062 20.5 L 153.371094 17.457031 Z M 157.621094 0.851562 "/>
<path style=" stroke:none;fill-rule:nonzero;fill:rgb(39.99939%,39.99939%,39.99939%);fill-opacity:0.3;" d="M 127.34375 -4.863281 L 154.710938 0.402344 L 150.835938 17.09375 L 123.292969 11.824219 Z M 127.34375 -4.863281 "/>
<path style=" stroke:none;fill-rule:nonzero;fill:rgb(39.99939%,39.99939%,39.99939%);fill-opacity:0.3;" d="M 196.792969 -9.695312 L 211.769531 -6.6875 L 205.222656 27.042969 L 189.714844 24.226562 Z M 196.792969 -9.695312 "/>
<path style=" stroke:none;fill-rule:nonzero;fill:rgb(39.99939%,39.99939%,39.99939%);fill-opacity:0.3;" d="M 154.886719 92.855469 L 186.570312 101.625 L 183.292969 116.304688 L 174.546875 114.847656 L 162.738281 111.738281 L 157.179688 110.140625 L 153.023438 108.753906 L 151.433594 107.164062 L 151.699219 105.890625 Z M 154.886719 92.855469 "/>
<path style=" stroke:none;fill-rule:nonzero;fill:rgb(39.99939%,39.99939%,39.99939%);fill-opacity:0.3;" d="M -37.875 71.289062 L -37.992188 71.628906 L -31.027344 73.398438 L -13.054688 78.929688 L -15.367188 85.183594 L -14.09375 85.523438 L -12.824219 85.859375 L -11.707031 82.675781 L 7.3125 88.453125 L 3.128906 102.453125 L -5.773438 100.226562 L -8.617188 101.039062 L -9.265625 101.605469 L -8.257812 98.625 L -27.039062 93.089844 L -27.601562 95.042969 L -11.566406 99.671875 L -12.914062 103.878906 L -17.960938 103.878906 L -24.457031 102.664062 L -24.578125 103.125 L -56.902344 91.550781 L -47.285156 68.378906 L -46.792969 68.546875 Z M -37.875 71.289062 "/>
<path style=" stroke:none;fill-rule:nonzero;fill:rgb(39.99939%,39.99939%,39.99939%);fill-opacity:0.3;" d="M 8.429688 84.917969 L 7.753906 87.125 L -11.445312 80.675781 L -11.046875 79.546875 L -9.835938 79.917969 L -8.210938 81.136719 Z M 8.429688 84.917969 "/>
<path style=" stroke:none;fill-rule:nonzero;fill:rgb(39.99939%,39.99939%,39.99939%);fill-opacity:0.3;" d="M 8.578125 88.777344 L 8.960938 88.875 L 6.816406 100.226562 L 6.484375 100.996094 L 5.148438 100.6875 Z M 8.578125 88.777344 "/>
<path style=" stroke:none;fill-rule:nonzero;fill:rgb(39.99939%,39.99939%,39.99939%);fill-opacity:0.3;" d="M 31.972656 42.472656 L 49.71875 45.953125 L 47.621094 55.304688 L 30.070312 51.386719 Z M 31.972656 42.472656 "/>
<path style=" stroke:none;fill-rule:nonzero;fill:rgb(39.99939%,39.99939%,39.99939%);fill-opacity:0.3;" d="M 29.675781 52.945312 L 47.226562 56.738281 L 44.785156 66.882812 L 29.152344 60.425781 L 28.253906 61.566406 L 27.546875 61.292969 Z M 29.675781 52.945312 "/>
<path style=" stroke:none;fill-rule:nonzero;fill:rgb(39.99939%,39.99939%,39.99939%);fill-opacity:0.3;" d="M -31.289062 29.648438 L 30.335938 42.097656 L 25.546875 60.746094 L -4.648438 49.203125 L -25.710938 40.550781 L -34.695312 35.082031 Z M -31.289062 29.648438 "/>
<path style=" stroke:none;fill-rule:nonzero;fill:rgb(39.99939%,39.99939%,39.99939%);fill-opacity:0.3;" d="M 49.386719 59.75 L 48.777344 59.582031 L 51.132812 50.289062 L 49.863281 57.175781 Z M 49.386719 59.75 "/>
<path style=" stroke:none;fill-rule:nonzero;fill:rgb(39.99939%,39.99939%,39.99939%);fill-opacity:0.3;" d="M 47.792969 61.976562 L 48.917969 62.289062 L 47.835938 68.140625 L 46.335938 67.523438 Z M 47.792969 61.976562 "/>
<path style=" stroke:none;fill-rule:nonzero;fill:rgb(39.99939%,39.99939%,39.99939%);fill-opacity:0.3;" d="M 23.023438 -1.027344 L 39.480469 1.859375 L 30.523438 39.453125 L 14.636719 36.488281 Z M 23.023438 -1.027344 "/>
<path style=" stroke:none;fill-rule:nonzero;fill:rgb(39.99939%,39.99939%,39.99939%);fill-opacity:0.3;" d="M 10.648438 -3.117188 L 21.496094 -1.292969 L 13.472656 36.257812 L -0.597656 33.484375 Z M 10.648438 -3.117188 "/>
<path style=" stroke:none;fill-rule:nonzero;fill:rgb(39.99939%,39.99939%,39.99939%);fill-opacity:0.3;" d="M -5.457031 -5.898438 L 8.804688 -3.515625 L -1.867188 33.234375 L -12.738281 31.09375 Z M -5.457031 -5.898438 "/>
<path style=" stroke:none;fill-rule:nonzero;fill:rgb(39.99939%,39.99939%,39.99939%);fill-opacity:0.3;" d="M 58.328125 0.339844 L 58.210938 0.953125 L 30.402344 -3.816406 L 30.5 -4.410156 L 42.554688 -2.527344 Z M 58.328125 0.339844 "/>
<path style=" stroke:none;fill-rule:nonzero;fill:rgb(39.99939%,39.99939%,39.99939%);fill-opacity:0.3;" d="M 41.304688 2.125 L 57.167969 4.433594 L 50.648438 36.359375 L 51.964844 36.429688 L 52.894531 36.484375 L 52.707031 41.742188 L 52.355469 43.664062 L 31.917969 39.894531 Z M 41.304688 2.125 "/>
<path style=" stroke:none;fill-rule:nonzero;fill:rgb(39.99939%,39.99939%,39.99939%);fill-opacity:0.3;" d="M -1.710938 53.210938 L 16.097656 60.152344 L 26.25 64.113281 L 11.40625 82.976562 L 13.632812 75.667969 L 12.472656 75.253906 L 11.5 74.90625 L 8.429688 84.917969 L -8.210938 81.136719 L -9.835938 79.917969 L -11.046875 79.546875 Z M -1.710938 53.210938 "/>
<path style=" stroke:none;fill-rule:nonzero;fill:rgb(39.99939%,39.99939%,39.99939%);fill-opacity:0.3;" d="M 44.785156 66.882812 L 44.539062 67.898438 L 28.253906 61.566406 L 29.152344 60.425781 Z M 44.785156 66.882812 "/>
<path style=" stroke:none;fill-rule:nonzero;fill:rgb(39.99939%,39.99939%,39.99939%);fill-opacity:0.3;" d="M 108.59375 75.152344 L 108.351562 76.167969 L 92.089844 71.769531 L 92.339844 70.75 Z M 108.59375 75.152344 "/>
<path style=" stroke:none;fill-rule:nonzero;fill:rgb(39.99939%,39.99939%,39.99939%);fill-opacity:0.3;" d="M 89.980469 70.039062 L 89.75 71.027344 L 77.050781 67.363281 L 77.351562 66.078125 L 78.699219 66.515625 Z M 89.980469 70.039062 "/>
<path style=" stroke:none;fill-rule:nonzero;fill:rgb(39.99939%,39.99939%,39.99939%);fill-opacity:0.3;" d="M 75.222656 65.390625 L 74.835938 66.808594 L 49.386719 59.75 L 49.863281 57.175781 Z M 75.222656 65.390625 "/>
<path style=" stroke:none;fill-rule:nonzero;fill:rgb(39.99939%,39.99939%,39.99939%);fill-opacity:0.3;" d="M 48.917969 62.289062 L 88.898438 73.300781 L 84.863281 89.035156 L 43.679688 77.632812 L 46.335938 67.523438 L 47.835938 68.140625 Z M 48.917969 62.289062 "/>
<path style=" stroke:none;fill-rule:nonzero;fill:rgb(39.99939%,39.99939%,39.99939%);fill-opacity:0.3;" d="M 152.625 87.867188 L 152.40625 88.941406 L 135.828125 84.707031 L 136.226562 82.898438 L 137.183594 83.167969 Z M 152.625 87.867188 "/>
<path style=" stroke:none;fill-rule:nonzero;fill:rgb(39.99939%,39.99939%,39.99939%);fill-opacity:0.3;" d="M 155.65625 89.707031 L 154.96875 89.5 L 155.160156 88.636719 L 155.867188 88.855469 Z M 155.65625 89.707031 "/>
<path style=" stroke:none;fill-rule:nonzero;fill:rgb(39.99939%,39.99939%,39.99939%);fill-opacity:0.3;" d="M 133.71875 82.195312 L 133.285156 84.03125 L 110.90625 77.484375 L 111.28125 75.882812 Z M 133.71875 82.195312 "/>
<path style=" stroke:none;fill-rule:nonzero;fill:rgb(39.99939%,39.99939%,39.99939%);fill-opacity:0.3;" d="M 102.414062 166.425781 L 105.285156 156.449219 L 104.347656 156.332031 L 103.40625 156.214844 L 100.535156 167.261719 L 88.269531 165.125 L 89.167969 162.277344 L 92.621094 162.796875 L 92.933594 161.53125 L 89.332031 160.882812 L 91.828125 150.910156 L 98.183594 152.226562 L 98.496094 150.960938 L 91.984375 149.625 L 96.003906 133.703125 L 105.515625 132.8125 L 107.75 128.921875 L 116.328125 128.5625 L 116.234375 127.679688 L 116.140625 126.792969 L 107.191406 127.507812 L 104.769531 131.929688 L 96.75 132.113281 L 105.734375 97.957031 L 148.4375 109.558594 L 146.566406 117.144531 L 145.800781 118.148438 L 144.398438 118.148438 L 133.621094 117.277344 L 119.65625 116.617188 L 119.828125 117.652344 L 119.949219 118.351562 L 131.929688 119.324219 L 146.707031 120.921875 L 151.652344 121.632812 L 156.253906 122.085938 L 160.625 122.285156 L 168.925781 122.746094 L 169.03125 124.265625 L 168.109375 127.1875 L 164.417969 130.839844 L 161.339844 135.074219 L 161.957031 137.121094 L 164.417969 133.90625 L 167.34375 131.421875 L 170.726562 133.496094 L 163.582031 142.464844 L 156.273438 145.304688 L 115.660156 156.273438 L 110.378906 166.425781 Z M 102.414062 166.425781 "/>
<path style=" stroke:none;fill-rule:nonzero;fill:rgb(39.99939%,39.99939%,39.99939%);fill-opacity:0.3;" d="M 101.316406 171.195312 L 101.445312 170.855469 L 101.445312 170.890625 Z M 101.316406 171.195312 "/>
<path style=" stroke:none;fill-rule:nonzero;fill:rgb(39.99939%,39.99939%,39.99939%);fill-opacity:0.3;" d="M 171.796875 117.113281 L 181.441406 120.054688 L 171.917969 132 L 168.417969 129.816406 L 170.878906 125.433594 L 171.339844 123.097656 L 171.953125 119.449219 Z M 171.796875 117.113281 "/>
<path style=" stroke:none;fill-rule:nonzero;fill:rgb(39.99939%,39.99939%,39.99939%);fill-opacity:0.3;" d="M 150.464844 110.421875 L 167.503906 115.953125 L 168.828125 117.535156 L 169.105469 119.3125 L 169.175781 120.433594 L 169.109375 121.492188 L 158.882812 120.441406 L 152.695312 119.917969 L 148.035156 118.996094 Z M 150.464844 110.421875 "/>
<g clip-path="url(#clip1)" clip-rule="nonzero">
<path style=" stroke:none;fill-rule:nonzero;fill:rgb(39.99939%,39.99939%,39.99939%);fill-opacity:0.3;" d="M -3.621094 317.824219 L 38.28125 330.183594 L 19.667969 379.105469 L 14.746094 381.566406 Z M -3.621094 317.824219 "/>
</g>
<path style=" stroke:none;fill-rule:nonzero;fill:rgb(39.99939%,39.99939%,39.99939%);fill-opacity:0.3;" d="M -3.734375 259.410156 L 57.125 279.214844 L 48.511719 302.515625 L 33.304688 297.273438 L 32.988281 298.558594 L 32.730469 299.617188 L 47.777344 304.5 L 39.167969 327.777344 L -4.460938 314.898438 L -12.257812 291.574219 L 29.046875 304.292969 L 29.289062 302.917969 L 29.441406 302.046875 L -12.109375 289.839844 L -12.484375 287.3125 Z M -3.734375 259.410156 "/>
<path style=" stroke:none;fill-rule:nonzero;fill:rgb(39.99939%,39.99939%,39.99939%);fill-opacity:0.3;" d="M -25.117188 105.203125 L -14.058594 109.019531 L -14.664062 112.292969 L -13.386719 112.507812 L -11.976562 112.746094 L -9.839844 104.773438 L 1.765625 106.703125 L -13.175781 155.398438 L -15.207031 160.707031 L -20.492188 171.132812 L -40.449219 163.96875 L -40.296875 163.582031 Z M -25.117188 105.203125 "/>
<path style=" stroke:none;fill-rule:nonzero;fill:rgb(39.99939%,39.99939%,39.99939%);fill-opacity:0.3;" d="M 3.128906 102.453125 L 2.441406 104.753906 L -9.636719 102.695312 L -9.265625 101.605469 L -8.617188 101.039062 L -5.773438 100.226562 Z M 3.128906 102.453125 "/>
<path style=" stroke:none;fill-rule:nonzero;fill:rgb(39.99939%,39.99939%,39.99939%);fill-opacity:0.3;" d="M 63.804688 114.808594 L 96.480469 122.09375 L 85.519531 164.449219 L 70.953125 162.015625 L 76.734375 138.394531 L 74.824219 137.84375 L 72.914062 137.296875 L 67.300781 161.203125 L 52.058594 158.972656 Z M 63.804688 114.808594 "/>
<path style=" stroke:none;fill-rule:nonzero;fill:rgb(39.99939%,39.99939%,39.99939%);fill-opacity:0.3;" d="M 23.636719 157.300781 L 49.222656 161.058594 L 43.882812 182.609375 L 36.085938 180.984375 L 35.910156 181.800781 L 35.769531 182.332031 L 43.511719 184.203125 L 41.875 190.699219 L 18.507812 185.300781 Z M 23.636719 157.300781 "/>
<path style=" stroke:none;fill-rule:nonzero;fill:rgb(39.99939%,39.99939%,39.99939%);fill-opacity:0.3;" d="M 0.652344 178.421875 L 15.917969 182.167969 L 6.804688 214.457031 L -52.734375 191.953125 L -47.945312 181.328125 L -47.347656 180.230469 L -21.164062 189.539062 L -20.867188 188.695312 L -20.574219 187.863281 L -46.480469 178.644531 L -45.578125 176.984375 L -42.769531 169.855469 L -41.398438 166.808594 L -0.527344 180.257812 Z M 0.652344 178.421875 "/>
<path style=" stroke:none;fill-rule:nonzero;fill:rgb(39.99939%,39.99939%,39.99939%);fill-opacity:0.3;" d="M -53.535156 193.65625 L 6.25 216.246094 L 0.703125 234.164062 L -61.59375 211.59375 Z M -53.535156 193.65625 "/>
<path style=" stroke:none;fill-rule:nonzero;fill:rgb(39.99939%,39.99939%,39.99939%);fill-opacity:0.3;" d="M -11.921875 159 L 18.515625 166.710938 L 16.421875 179.429688 L 5.746094 176.824219 L 6.523438 173.8125 L 5.722656 173.699219 L 4.570312 173.441406 L 3.519531 176.28125 L 0.992188 175.664062 L -1.042969 177.5 L -18.378906 172.308594 Z M -11.921875 159 "/>
<path style=" stroke:none;fill-rule:nonzero;fill:rgb(39.99939%,39.99939%,39.99939%);fill-opacity:0.3;" d="M 33.597656 109.800781 L 60.539062 115.800781 L 49.613281 158.566406 L 24.207031 154.597656 Z M 33.597656 109.800781 "/>
<path style=" stroke:none;fill-rule:nonzero;fill:rgb(39.99939%,39.99939%,39.99939%);fill-opacity:0.3;" d="M 52.046875 161.574219 L 99.6875 170.503906 L 67.988281 252.449219 L 5.929688 231.683594 L 17.746094 186.683594 L 42.800781 192.996094 L 44.5625 186.167969 L 57.605469 190.28125 L 57.832031 189.636719 L 58.011719 189.125 L 45.105469 184.492188 L 47.707031 175.492188 L 70.125 184.371094 L 70.574219 183.882812 L 71.078125 183.339844 L 48.65625 174.332031 Z M 52.046875 161.574219 "/>
<path style=" stroke:none;fill-rule:nonzero;fill:rgb(39.99939%,39.99939%,39.99939%);fill-opacity:0.3;" d="M 26.25 64.113281 L 43.042969 70.660156 L 37.328125 94.15625 L 9.96875 87.695312 L 11.40625 82.976562 Z M 26.25 64.113281 "/>
<path style=" stroke:none;fill-rule:nonzero;fill:rgb(39.99939%,39.99939%,39.99939%);fill-opacity:0.3;" d="M 8.960938 88.875 L 34.792969 95.359375 L 32.011719 106.835938 L 6.484375 100.996094 L 6.816406 100.226562 Z M 8.960938 88.875 "/>
<path style=" stroke:none;fill-rule:nonzero;fill:rgb(39.99939%,39.99939%,39.99939%);fill-opacity:0.3;" d="M 4.515625 103.328125 L 15.667969 106.089844 L 12.132812 119.382812 L 1.105469 116.246094 Z M 4.515625 103.328125 "/>
<path style=" stroke:none;fill-rule:nonzero;fill:rgb(39.99939%,39.99939%,39.99939%);fill-opacity:0.3;" d="M 18.546875 106.230469 L 30.632812 109.585938 L 23.480469 140.988281 L 10.253906 138.210938 Z M 18.546875 106.230469 "/>
<path style=" stroke:none;fill-rule:nonzero;fill:rgb(39.99939%,39.99939%,39.99939%);fill-opacity:0.3;" d="M 91.691406 75.3125 L 106.96875 79.253906 L 97.125 119 L 71.132812 112.871094 L 86.050781 95.609375 Z M 91.691406 75.3125 "/>
<path style=" stroke:none;fill-rule:nonzero;fill:rgb(39.99939%,39.99939%,39.99939%);fill-opacity:0.3;" d="M 72.101562 87.164062 L 84.472656 90.589844 L 83.421875 96.308594 L 68.53125 112.574219 L 64.882812 112.050781 Z M 72.101562 87.164062 "/>
<path style=" stroke:none;fill-rule:nonzero;fill:rgb(39.99939%,39.99939%,39.99939%);fill-opacity:0.3;" d="M 42.546875 78.882812 L 69.242188 86.164062 L 61.367188 113.390625 L 52.519531 111.484375 L 57.746094 89.78125 L 56.765625 89.636719 L 55.785156 89.496094 L 50.558594 111.058594 L 35.511719 107.332031 Z M 42.546875 78.882812 "/>
<path style=" stroke:none;fill-rule:nonzero;fill:rgb(39.99939%,39.99939%,39.99939%);fill-opacity:0.3;" d="M 154.453125 92.734375 L 154.886719 92.855469 L 151.699219 105.890625 Z M 154.453125 92.734375 "/>
<path style=" stroke:none;fill-rule:nonzero;fill:rgb(39.99939%,39.99939%,39.99939%);fill-opacity:0.3;" d="M 183.292969 116.304688 L 183.011719 117.570312 L 162.738281 111.738281 L 174.546875 114.847656 Z M 183.292969 116.304688 "/>
<path style=" stroke:none;fill-rule:nonzero;fill:rgb(39.99939%,39.99939%,39.99939%);fill-opacity:0.3;" d="M 157.179688 110.140625 L 151.171875 108.414062 L 151.433594 107.164062 L 153.023438 108.753906 Z M 157.179688 110.140625 "/>
<path style=" stroke:none;fill-rule:nonzero;fill:rgb(39.99939%,39.99939%,39.99939%);fill-opacity:0.3;" d="M 110.511719 80.15625 L 152.101562 92.035156 L 148.675781 106.867188 L 107.082031 94.664062 Z M 110.511719 80.15625 "/>
<path style=" stroke:none;fill-rule:nonzero;fill:rgb(39.99939%,39.99939%,39.99939%);fill-opacity:0.3;" d="M 5.390625 233.46875 L 67.574219 253.898438 L 64.378906 261.976562 L 44.070312 254.59375 L 43.605469 255.808594 L 43.085938 257.164062 L 63.183594 264.996094 L 58.082031 277.890625 L -3.367188 257.808594 Z M 5.390625 233.46875 "/>
<path style=" stroke:none;fill-rule:nonzero;fill:rgb(39.99939%,39.99939%,39.99939%);fill-opacity:0.3;" d="M -38.25 243.539062 L -38.445312 244.375 L -38.640625 245.207031 L -6.1875 256.425781 L -15.691406 287.117188 L -32.183594 263.496094 L -76.355469 244.28125 L -71.605469 233.8125 L -46.5 242.488281 L -46.148438 241.664062 L -45.792969 240.839844 L -70.742188 231.910156 L -68.171875 226.25 L -56.296875 230.601562 L -55.628906 229.328125 L -54.960938 228.058594 L -66.816406 223.183594 L -62.507812 213.625 L 0.226562 235.707031 L -5.796875 255.15625 Z M -38.25 243.539062 "/>
<path style=" stroke:none;fill-rule:nonzero;fill:rgb(39.99939%,39.99939%,39.99939%);fill-opacity:0.3;" d="M 13.871094 152.648438 L -7.800781 147.203125 L 0.660156 117.433594 L 11.6875 120.484375 L 7.488281 137.4375 L 5.6875 144.097656 L 6.832031 144.40625 L 7.972656 144.714844 L 9.175781 139.972656 L 23.070312 143.222656 L 18.023438 165.371094 L -12.003906 157.382812 L -9.5625 148.882812 L 13.144531 154.734375 Z M 13.871094 152.648438 "/>
<g clip-path="url(#clip2)" clip-rule="nonzero">
<path style=" stroke:none;fill-rule:nonzero;fill:rgb(39.99939%,39.99939%,39.99939%);fill-opacity:0.3;" d="M 483.785156 -145.855469 L 480.511719 -127.378906 L 478.457031 -127.6875 L 443.589844 -132.945312 L 437.921875 -133.800781 L 434.945312 -134.160156 L 423.113281 -136.03125 L 420.984375 -136.351562 L 419.101562 -136.636719 L 407.066406 -138.363281 L 405.421875 -138.609375 L 403.746094 -138.863281 L 397.421875 -139.816406 L 396.125 -140.074219 L 387.773438 -141.359375 L 384.839844 -126.148438 L 375.671875 -78.839844 L 375.164062 -76.085938 L 374.8125 -74.382812 L 358.507812 10.890625 L 287.574219 8.359375 L 303.699219 -89.03125 L 333.75 -167.417969 L 376.800781 -152.390625 L 382.488281 -150.765625 L 387.765625 -150.765625 L 396.296875 -151.578125 L 401.574219 -154.015625 L 412.136719 -161.730469 L 437.316406 -186.910156 L 441.78125 -177.570312 L 444.625 -167.820312 L 446.25 -161.730469 L 445.84375 -157.667969 L 480.773438 -151.171875 Z M 483.785156 -145.855469 "/>
</g>
<g clip-path="url(#clip3)" clip-rule="nonzero">
<path style=" stroke:none;fill-rule:nonzero;fill:rgb(39.99939%,39.99939%,39.99939%);fill-opacity:0.3;" d="M 374.988281 -74.355469 L 382.722656 -72.882812 L 365.949219 11.15625 L 358.613281 10.894531 Z M 374.988281 -74.355469 "/>
</g>
<g clip-path="url(#clip4)" clip-rule="nonzero">
<path style=" stroke:none;fill-rule:nonzero;fill:rgb(39.99939%,39.99939%,39.99939%);fill-opacity:0.3;" d="M 544.128906 -378.445312 L 543.15625 -378.441406 L 541.253906 -378.476562 L 541.539062 -374.984375 L 541.351562 -371.480469 L 540.78125 -369.414062 L 539.078125 -367.347656 L 537.136719 -365.992188 L 537.019531 -365.949219 L 532.324219 -365.425781 L 527.421875 -366.410156 L 525.445312 -367.234375 L 525.332031 -366.632812 L 523.851562 -366.582031 L 520.992188 -363.929688 L 502.449219 -264.648438 L 503.257812 -255.769531 L 483.785156 -145.855469 L 480.773438 -151.171875 L 445.84375 -157.667969 L 446.25 -161.730469 L 444.625 -167.820312 L 441.78125 -177.570312 L 437.316406 -186.910156 L 412.136719 -161.730469 L 401.574219 -154.015625 L 396.296875 -151.578125 L 387.765625 -150.765625 L 382.488281 -150.765625 L 376.800781 -152.390625 L 333.75 -167.417969 L 303.699219 -89.03125 L 287.574219 8.359375 L 272.792969 96.421875 L 264.902344 94.964844 L 253.320312 132.863281 L 247.363281 131.480469 L 221 125.667969 L 221.253906 125 L 198.914062 120.53125 L 188.265625 117.574219 L 192.449219 95.683594 L 201.117188 67.878906 L 206.570312 40.625 L 215.234375 1.90625 L 217.15625 -7.601562 L 220.253906 -19.636719 L 224.207031 -36.382812 L 228.199219 -44.097656 L 231.765625 -47.421875 L 236.746094 -53.625 L 243.234375 -62.246094 L 245.371094 -68.957031 L 247.957031 -84.21875 L 252.730469 -117.769531 L 254.671875 -126.390625 L 257.386719 -140.503906 L 260.28125 -162.023438 L 261.792969 -169.617188 L 265.035156 -178.03125 L 268.492188 -185.625 L 272.382812 -190.554688 L 277.730469 -195.410156 L 280.585938 -201.148438 L 281.5 -205.632812 L 283.390625 -205.1875 L 289.078125 -263.667969 L 300.871094 -263.441406 L 351.722656 -259.839844 L 351.664062 -262.464844 L 352.433594 -262.449219 L 355.1875 -320.265625 L 358.566406 -318.882812 L 375.300781 -314.640625 L 392.636719 -309.265625 L 402.199219 -308.417969 L 415.492188 -309.210938 L 415.789062 -309.15625 L 416.097656 -309.25 L 416.542969 -309.277344 L 416.875 -309.480469 L 419.851562 -310.375 L 422.414062 -312.9375 L 427 -315.800781 L 431.453125 -320.847656 L 443 -328.652344 L 489.300781 -402.972656 L 505.546875 -413.53125 L 536.816406 -433.839844 L 567.683594 -465.515625 L 582.304688 -499.632812 L 612.359375 -515.472656 L 609.964844 -519.359375 L 617.289062 -522.660156 L 625.691406 -525.203125 L 637.5 -529.40625 L 642.371094 -530.667969 L 646.0625 -531.089844 L 651.820312 -530.8125 L 668.503906 -529.5625 L 679.457031 -528.734375 L 680.507812 -521.402344 L 683.707031 -516.742188 L 692.320312 -508.582031 L 697.984375 -502.902344 L 693.585938 -489.074219 L 696.023438 -482.574219 L 696.429688 -476.484375 L 693.992188 -463.488281 L 688.710938 -443.585938 L 700.625 -444.460938 L 700.285156 -441.597656 L 712.164062 -440.90625 L 713.957031 -440.792969 L 715.730469 -440.644531 L 726.320312 -440.066406 L 727.8125 -439.957031 L 728.835938 -439.902344 L 734.410156 -439.597656 L 736.105469 -439.476562 L 737.351562 -439.421875 L 745.125 -481.667969 L 888.4375 -453.359375 L 898.089844 -451.375 L 901.300781 -450.398438 L 902.03125 -449.199219 L 916.628906 -409.394531 L 929.488281 -370.558594 L 928.097656 -367.785156 L 925.28125 -365.78125 L 918.417969 -363.609375 L 915.597656 -362.9375 L 915.601562 -360.933594 L 922.476562 -343.144531 L 930.578125 -341.476562 L 937.699219 -334.546875 L 944.386719 -326.792969 L 960.335938 -280.714844 L 938.484375 -278.695312 L 933.203125 -279.101562 L 897.464844 -288.445312 L 871.066406 -295.347656 L 856.851562 -298.597656 L 845.886719 -301.847656 L 820.296875 -308.75 L 795.929688 -315.65625 L 769.125 -321.339844 L 766.6875 -322.558594 L 758.160156 -324.996094 L 745.976562 -328.246094 L 711.859375 -336.773438 L 620.074219 -361.546875 L 562 -376.980469 L 553.46875 -379.417969 L 544.128906 -385.507812 Z M 544.128906 -378.445312 "/>
</g>
<path style=" stroke:none;fill-rule:nonzero;fill:rgb(39.99939%,39.99939%,39.99939%);fill-opacity:0.3;" d="M 290.714844 191.722656 L 291.488281 187.308594 L 299.625 141.796875 L 347.253906 149.960938 L 333.257812 216.578125 L 308.570312 212.765625 Z M 290.714844 191.722656 "/>
<path style=" stroke:none;fill-rule:nonzero;fill:rgb(39.99939%,39.99939%,39.99939%);fill-opacity:0.3;" d="M 264.964844 95.058594 L 272.78125 96.503906 L 272.019531 101.039062 L 271.015625 105.15625 L 270.714844 105.105469 L 269.738281 104.9375 L 262.800781 134.933594 L 253.398438 132.890625 Z M 264.964844 95.058594 "/>
<path style=" stroke:none;fill-rule:nonzero;fill:rgb(39.99939%,39.99939%,39.99939%);fill-opacity:0.3;" d="M 348.507812 145.246094 L 347.675781 146.667969 L 337.957031 145.003906 L 286.011719 137.570312 L 286.496094 134.519531 L 305.324219 136.777344 Z M 348.507812 145.246094 "/>
<path style=" stroke:none;fill-rule:nonzero;fill:rgb(39.99939%,39.99939%,39.99939%);fill-opacity:0.3;" d="M 284.304688 134.417969 L 283.824219 137.226562 L 265.109375 135.277344 L 265.265625 134.570312 L 266.332031 134.746094 L 273.644531 135.558594 Z M 284.304688 134.417969 "/>
<path style=" stroke:none;fill-rule:nonzero;fill:rgb(39.99939%,39.99939%,39.99939%);fill-opacity:0.3;" d="M 341.769531 199.9375 L 351.699219 201.609375 L 350.476562 208.882812 L 340.546875 207.207031 Z M 341.769531 199.9375 "/>
<path style=" stroke:none;fill-rule:nonzero;fill:rgb(39.99939%,39.99939%,39.99939%);fill-opacity:0.3;" d="M 343.503906 190.578125 L 353.433594 192.253906 L 352.210938 199.523438 L 342.28125 197.847656 Z M 343.503906 190.578125 "/>
<path style=" stroke:none;fill-rule:nonzero;fill:rgb(39.99939%,39.99939%,39.99939%);fill-opacity:0.3;" d="M 345.683594 178.828125 L 355.613281 180.503906 L 354.390625 187.773438 L 344.460938 186.097656 Z M 345.683594 178.828125 "/>
<path style=" stroke:none;fill-rule:nonzero;fill:rgb(39.99939%,39.99939%,39.99939%);fill-opacity:0.3;" d="M 349.183594 159.964844 L 359.113281 161.640625 L 357.890625 168.910156 L 347.960938 167.234375 Z M 349.183594 159.964844 "/>
<g clip-path="url(#clip5)" clip-rule="nonzero">
<path style=" stroke:none;fill-rule:nonzero;fill:rgb(39.99939%,39.99939%,39.99939%);fill-opacity:0.3;" d="M 353.628906 151.765625 L 363.5625 153.441406 L 362.339844 160.710938 L 352.410156 159.035156 Z M 353.628906 151.765625 "/>
</g>
<path style=" stroke:none;fill-rule:nonzero;fill:rgb(39.99939%,39.99939%,39.99939%);fill-opacity:0.3;" d="M 342.046875 209.703125 L 351.980469 211.378906 L 350.757812 218.648438 L 340.824219 216.972656 Z M 342.046875 209.703125 "/>
<path style=" stroke:none;fill-rule:nonzero;fill:rgb(39.99939%,39.99939%,39.99939%);fill-opacity:0.3;" d="M 347.382812 169.675781 L 357.3125 171.351562 L 356.089844 178.621094 L 346.160156 176.945312 Z M 347.382812 169.675781 "/>
<g clip-path="url(#clip6)" clip-rule="nonzero">
<path style=" stroke:none;fill-rule:nonzero;fill:rgb(39.99939%,39.99939%,39.99939%);fill-opacity:0.3;" d="M 351.144531 147.402344 L 351.667969 145.863281 L 367.460938 148.960938 L 367.296875 150.023438 Z M 351.144531 147.402344 "/>
</g>
<g clip-path="url(#clip7)" clip-rule="nonzero">
<path style=" stroke:none;fill-rule:nonzero;fill:rgb(39.99939%,39.99939%,39.99939%);fill-opacity:0.3;" d="M 349.707031 150.878906 L 366.714844 153.757812 L 364.617188 167.238281 L 361.367188 185.511719 L 354.058594 216.378906 L 360.554688 221.660156 L 339.84375 217.597656 L 336.453125 217.074219 Z M 349.707031 150.878906 "/>
</g>
<path style=" stroke:none;fill-rule:nonzero;fill:rgb(39.99939%,39.99939%,39.99939%);fill-opacity:0.3;" d="M 245.273438 154.6875 L 248.210938 155.261719 L 245.304688 168.816406 L 242.367188 168.242188 Z M 245.273438 154.6875 "/>
<path style=" stroke:none;fill-rule:nonzero;fill:rgb(39.99939%,39.99939%,39.99939%);fill-opacity:0.3;" d="M 236.109375 152.761719 L 243.945312 154.390625 L 240.292969 170.910156 L 235.722656 169.960938 L 235.183594 172.390625 L 231.917969 171.710938 Z M 236.109375 152.761719 "/>
<path style=" stroke:none;fill-rule:nonzero;fill:rgb(39.99939%,39.99939%,39.99939%);fill-opacity:0.3;" d="M 234.714844 152.441406 L 230.605469 170.953125 L 227.328125 170.328125 L 227.625 168.949219 L 223.039062 168.074219 L 226.875 150.832031 Z M 234.714844 152.441406 "/>
<path style=" stroke:none;fill-rule:nonzero;fill:rgb(39.99939%,39.99939%,39.99939%);fill-opacity:0.3;" d="M 214.8125 161.164062 L 217.550781 147.574219 L 220.839844 148.148438 L 220.566406 149.53125 L 225.167969 150.335938 L 222.703125 162.539062 Z M 214.8125 161.164062 "/>
<path style=" stroke:none;fill-rule:nonzero;fill:rgb(39.99939%,39.99939%,39.99939%);fill-opacity:0.3;" d="M 212.914062 147.15625 L 215.988281 147.691406 L 213.414062 160.570312 L 208.207031 159.660156 Z M 212.914062 147.15625 "/>
<path style=" stroke:none;fill-rule:nonzero;fill:rgb(39.99939%,39.99939%,39.99939%);fill-opacity:0.3;" d="M 289.851562 157.359375 L 292.53125 157.632812 L 290.683594 173.796875 L 288.003906 173.523438 Z M 289.851562 157.359375 "/>
<path style=" stroke:none;fill-rule:nonzero;fill:rgb(39.99939%,39.99939%,39.99939%);fill-opacity:0.3;" d="M 265.164062 158.027344 L 267.839844 158.300781 L 266.804688 167.222656 L 264.125 166.949219 Z M 265.164062 158.027344 "/>
<path style=" stroke:none;fill-rule:nonzero;fill:rgb(39.99939%,39.99939%,39.99939%);fill-opacity:0.3;" d="M 275.304688 157.394531 L 277.984375 157.667969 L 276.195312 173.382812 L 273.472656 173.050781 L 273.546875 172.382812 L 269 171.917969 L 270.523438 158.519531 L 275.125 158.980469 Z M 275.304688 157.394531 "/>
<path style=" stroke:none;fill-rule:nonzero;fill:rgb(39.99939%,39.99939%,39.99939%);fill-opacity:0.3;" d="M 280.789062 157.734375 L 285.777344 158.242188 L 285.878906 157.335938 L 288.558594 157.609375 L 286.710938 173.773438 L 281.726562 173.21875 L 281.621094 174.148438 L 278.941406 173.875 Z M 280.789062 157.734375 "/>
<path style=" stroke:none;fill-rule:nonzero;fill:rgb(39.99939%,39.99939%,39.99939%);fill-opacity:0.3;" d="M 221 125.667969 L 188.105469 118.410156 L 188.265625 117.574219 L 198.914062 120.53125 L 221.253906 125 Z M 221 125.667969 "/>
<path style=" stroke:none;fill-rule:nonzero;fill:rgb(39.99939%,39.99939%,39.99939%);fill-opacity:0.3;" d="M 284.066406 267.402344 L 288.90625 268.167969 L 287.917969 274.53125 L 285.398438 274.132812 L 283.394531 271.746094 Z M 284.066406 267.402344 "/>
<path style=" stroke:none;fill-rule:nonzero;fill:rgb(39.99939%,39.99939%,39.99939%);fill-opacity:0.3;" d="M 279.652344 261.621094 L 284.488281 262.386719 L 283.5 268.75 L 280.476562 268.273438 L 278.917969 266.328125 Z M 279.652344 261.621094 "/>
<path style=" stroke:none;fill-rule:nonzero;fill:rgb(39.99939%,39.99939%,39.99939%);fill-opacity:0.3;" d="M 275.253906 256.121094 L 280.089844 256.886719 L 279.101562 263.25 L 276.074219 262.769531 L 274.519531 260.832031 Z M 275.253906 256.121094 "/>
<path style=" stroke:none;fill-rule:nonzero;fill:rgb(39.99939%,39.99939%,39.99939%);fill-opacity:0.3;" d="M 308.097656 215.441406 L 287.1875 211.804688 L 290.714844 191.722656 L 308.570312 212.765625 Z M 308.097656 215.441406 "/>
<path style=" stroke:none;fill-rule:nonzero;fill:rgb(39.99939%,39.99939%,39.99939%);fill-opacity:0.3;" d="M 286.667969 214.445312 L 307.628906 218.085938 L 300.796875 256.722656 L 275.648438 252.378906 L 273.007812 258.941406 L 270.800781 256.179688 L 265.925781 252.523438 L 257.398438 249.277344 L 256.664062 253.925781 L 252.984375 250.75 L 222.957031 232.988281 L 223.34375 230.667969 L 223.0625 228.464844 L 222.296875 226.617188 L 221.394531 225.335938 L 220.355469 224.3125 L 219.066406 223.429688 L 217.496094 222.734375 L 216.027344 222.378906 L 214.4375 222.273438 L 212.691406 222.480469 L 211.332031 222.882812 L 210.332031 223.34375 L 209.402344 223.917969 L 208.511719 224.644531 L 207.855469 225.328125 L 207.035156 226.46875 L 205.738281 228.664062 L 202.066406 228.066406 L 198.644531 227.816406 L 194.636719 227.886719 L 190.738281 228.339844 L 185.988281 229.425781 L 181.050781 231.234375 L 176.269531 233.753906 L 170.566406 238.070312 L 167.328125 241.421875 L 160.675781 243.515625 L 160.332031 243.589844 L 129.46875 250.496094 L 109.972656 253.335938 L 107.730469 259.003906 L 115.953125 232.378906 L 117.589844 227.378906 L 120.648438 221.417969 L 123.113281 218.621094 L 125.628906 216.164062 L 128.539062 213.917969 L 134.984375 210.546875 L 145.753906 204.398438 L 153.957031 199.347656 L 163.609375 193.921875 L 173.101562 189.152344 L 176.066406 188.359375 L 180.957031 187.386719 L 186.535156 186.945312 L 190.390625 187.042969 L 189.457031 203.152344 L 206.84375 205.382812 L 207.308594 203.84375 L 207.785156 202.25 L 192.363281 200.242188 L 193.144531 187.324219 L 194.886719 187.578125 L 197.96875 188.214844 L 201.523438 189.234375 L 205.90625 190.957031 L 210.253906 193.035156 L 215.285156 196.601562 L 217.914062 198.957031 L 222.703125 200.691406 L 227.070312 202.425781 L 230.171875 204.5625 L 235.148438 205.726562 Z M 286.667969 214.445312 "/>
<path style=" stroke:none;fill-rule:nonzero;fill:rgb(39.99939%,39.99939%,39.99939%);fill-opacity:0.3;" d="M 188.972656 127.910156 L 187.679688 129.605469 L 181.980469 156.859375 L 195.730469 159.082031 L 193.859375 172.644531 L 192.195312 184.703125 L 187.867188 184.414062 L 182.3125 184.570312 L 176.820312 185.3125 L 174.101562 186.304688 L 171.539062 187.3125 L 168.976562 188.558594 L 159.992188 193.429688 L 151.210938 198.566406 L 132.417969 209.230469 L 126.640625 212.503906 L 124.339844 214.378906 L 120.804688 217.367188 L 118.570312 220.347656 L 116.679688 224.003906 L 113.867188 230.597656 L 102.980469 261.941406 L 84.773438 308.078125 L 51.429688 302.34375 L 90.039062 201.589844 L 123.230469 178.359375 L 120.765625 176.066406 L 122.703125 173.613281 L 118.867188 169.671875 L 115.640625 171.089844 L 102.039062 167.726562 L 102.414062 166.425781 L 110.378906 166.425781 L 115.660156 156.273438 L 156.273438 145.304688 L 163.582031 142.464844 L 170.726562 133.496094 L 175.195312 136.238281 L 173.351562 141.929688 L 174.671875 142.242188 L 175.816406 142.515625 L 177.503906 137.257812 L 181.8125 132.144531 L 185.402344 127.46875 L 188.21875 121.5625 L 191.15625 122.117188 L 187.753906 127.355469 L 188.332031 127.621094 Z M 188.972656 127.910156 "/>
<path style=" stroke:none;fill-rule:nonzero;fill:rgb(39.99939%,39.99939%,39.99939%);fill-opacity:0.3;" d="M 273.074219 259.023438 L 275.710938 252.445312 L 300.78125 256.796875 L 295.574219 286.234375 L 280.546875 268.363281 Z M 273.074219 259.023438 "/>
<path style=" stroke:none;fill-rule:nonzero;fill:rgb(39.99939%,39.99939%,39.99939%);fill-opacity:0.3;" d="M 105.871094 262.621094 L 106.359375 262.464844 L 103.511719 269.660156 Z M 105.871094 262.621094 "/>
<path style=" stroke:none;fill-rule:nonzero;fill:rgb(39.99939%,39.99939%,39.99939%);fill-opacity:0.3;" d="M 87.59375 308.5625 L 88.699219 305.972656 L 87.636719 308.570312 Z M 87.59375 308.5625 "/>
<path style=" stroke:none;fill-rule:nonzero;fill:rgb(39.99939%,39.99939%,39.99939%);fill-opacity:0.3;" d="M 173.652344 241.449219 L 175.011719 239.589844 L 183.890625 235.769531 L 183.492188 242.675781 Z M 173.652344 241.449219 "/>
<path style=" stroke:none;fill-rule:nonzero;fill:rgb(39.99939%,39.99939%,39.99939%);fill-opacity:0.3;" d="M 184.28125 250.613281 L 193.960938 251.164062 L 194.03125 248.796875 L 194.097656 246.425781 L 188.0625 246.164062 L 188.828125 233.546875 L 191.800781 231.816406 L 198.253906 232.671875 L 204.914062 233.917969 L 208.800781 237.074219 L 205.335938 267.296875 L 180.234375 259.835938 Z M 184.28125 250.613281 "/>
<path style=" stroke:none;fill-rule:nonzero;fill:rgb(39.99939%,39.99939%,39.99939%);fill-opacity:0.3;" d="M 217.917969 239.703125 L 220.769531 238.617188 L 223.621094 238.292969 L 252.03125 254.613281 L 249.359375 275.648438 L 249.277344 275.675781 L 214.753906 269.582031 L 214.074219 269.457031 Z M 217.917969 239.703125 "/>
<path style=" stroke:none;fill-rule:nonzero;fill:rgb(39.99939%,39.99939%,39.99939%);fill-opacity:0.3;" d="M 253.050781 273.253906 L 255.0625 256.992188 L 256.042969 257.871094 L 253.742188 272.425781 Z M 253.050781 273.253906 "/>
<path style=" stroke:none;fill-rule:nonzero;fill:rgb(39.99939%,39.99939%,39.99939%);fill-opacity:0.3;" d="M 259.453125 188.804688 L 257.640625 198.941406 L 261.503906 199.664062 L 260.070312 207.398438 L 251.878906 205.8125 L 255.179688 188.003906 Z M 259.453125 188.804688 "/>
<path style=" stroke:none;fill-rule:nonzero;fill:rgb(39.99939%,39.99939%,39.99939%);fill-opacity:0.3;" d="M 119.949219 177.875 L 90.792969 198.953125 L 96.332031 184.34375 L 105.742188 183.171875 L 105.777344 182.152344 L 105.804688 181.316406 L 97.09375 182.339844 L 101.316406 171.195312 L 101.445312 170.890625 L 101.445312 170.855469 L 101.527344 170.644531 L 107.695312 172 L 107.898438 170.757812 L 115.734375 172.597656 Z M 119.949219 177.875 "/>
<path style=" stroke:none;fill-rule:nonzero;fill:rgb(39.99939%,39.99939%,39.99939%);fill-opacity:0.3;" d="M 181.441406 120.054688 L 185.65625 121.339844 L 181.8125 128.933594 L 175.195312 134.046875 L 171.917969 132 Z M 181.441406 120.054688 "/>
<path style=" stroke:none;fill-rule:nonzero;fill:rgb(39.99939%,39.99939%,39.99939%);fill-opacity:0.3;" d="M 243.074219 204.148438 L 246.226562 186.386719 L 254.0625 187.792969 L 250.964844 205.628906 Z M 243.074219 204.148438 "/>
<path style=" stroke:none;fill-rule:nonzero;fill:rgb(39.99939%,39.99939%,39.99939%);fill-opacity:0.3;" d="M 233.835938 202.382812 L 236.992188 184.621094 L 244.828125 186.027344 L 241.726562 203.859375 Z M 233.835938 202.382812 "/>
<path style=" stroke:none;fill-rule:nonzero;fill:rgb(39.99939%,39.99939%,39.99939%);fill-opacity:0.3;" d="M 225.589844 197.777344 L 228.203125 183.015625 L 236.035156 184.421875 L 233.480469 199.257812 Z M 225.589844 197.777344 "/>
<path style=" stroke:none;fill-rule:nonzero;fill:rgb(39.99939%,39.99939%,39.99939%);fill-opacity:0.3;" d="M 217.398438 192.847656 L 219.410156 181.242188 L 227.246094 182.648438 L 225.289062 194.328125 Z M 217.398438 192.847656 "/>
<path style=" stroke:none;fill-rule:nonzero;fill:rgb(39.99939%,39.99939%,39.99939%);fill-opacity:0.3;" d="M 214.785156 177.515625 L 217.457031 177.855469 L 215.40625 189.847656 L 212.738281 189.347656 Z M 214.785156 177.515625 "/>
<path style=" stroke:none;fill-rule:nonzero;fill:rgb(39.99939%,39.99939%,39.99939%);fill-opacity:0.3;" d="M 184.921875 147.011719 L 187.875 147.476562 L 186.550781 155.132812 L 183.59375 154.667969 Z M 184.921875 147.011719 "/>
<path style=" stroke:none;fill-rule:nonzero;fill:rgb(39.99939%,39.99939%,39.99939%);fill-opacity:0.3;" d="M 189.578125 147.988281 L 203.117188 150.382812 L 201.730469 157.882812 L 188.15625 155.484375 Z M 189.578125 147.988281 "/>
<path style=" stroke:none;fill-rule:nonzero;fill:rgb(39.99939%,39.99939%,39.99939%);fill-opacity:0.3;" d="M 188.972656 128.964844 L 191.90625 129.539062 L 189.183594 142.269531 L 186.25 141.691406 Z M 188.972656 128.964844 "/>
<path style=" stroke:none;fill-rule:nonzero;fill:rgb(39.99939%,39.99939%,39.99939%);fill-opacity:0.3;" d="M 190.277344 142.554688 L 192.84375 129.710938 L 200.742188 131.054688 L 198.167969 143.929688 Z M 190.277344 142.554688 "/>
<path style=" stroke:none;fill-rule:nonzero;fill:rgb(39.99939%,39.99939%,39.99939%);fill-opacity:0.3;" d="M 199.847656 144.1875 L 202.414062 131.34375 L 210.3125 132.6875 L 207.738281 145.566406 Z M 199.847656 144.1875 "/>
<path style=" stroke:none;fill-rule:nonzero;fill:rgb(39.99939%,39.99939%,39.99939%);fill-opacity:0.3;" d="M 205.523438 159.195312 L 208.371094 144.933594 L 211.660156 145.507812 L 211.382812 146.890625 L 212.914062 147.15625 L 208.207031 159.660156 Z M 205.523438 159.195312 "/>
<path style=" stroke:none;fill-rule:nonzero;fill:rgb(39.99939%,39.99939%,39.99939%);fill-opacity:0.3;" d="M 282.4375 193.289062 L 285.105469 193.628906 L 281.949219 211.453125 L 279.28125 210.953125 Z M 282.4375 193.289062 "/>
<path style=" stroke:none;fill-rule:nonzero;fill:rgb(39.99939%,39.99939%,39.99939%);fill-opacity:0.3;" d="M 270.125 209.234375 L 273.28125 191.476562 L 276.566406 192.050781 L 276.292969 193.433594 L 280.894531 194.234375 L 278.015625 210.714844 Z M 270.125 209.234375 "/>
<path style=" stroke:none;fill-rule:nonzero;fill:rgb(39.99939%,39.99939%,39.99939%);fill-opacity:0.3;" d="M 267.988281 190.40625 L 272.261719 191.207031 L 268.976562 208.957031 L 260.757812 207.507812 L 262.183594 199.792969 L 266.121094 200.53125 Z M 267.988281 190.40625 "/>
<path style=" stroke:none;fill-rule:nonzero;fill:rgb(39.99939%,39.99939%,39.99939%);fill-opacity:0.3;" d="M 288.679688 271.726562 L 293.519531 272.492188 L 292.53125 278.855469 L 288.886719 278.28125 L 287.855469 277.050781 Z M 288.679688 271.726562 "/>
<path style=" stroke:none;fill-rule:nonzero;fill:rgb(39.99939%,39.99939%,39.99939%);fill-opacity:0.3;" d="M 358.507812 10.890625 L 358.28125 12.070312 L 355.09375 28.503906 L 295.886719 19.445312 L 287.855469 57.824219 L 287.488281 59.578125 L 287.152344 61.1875 L 279.367188 97.636719 L 272.792969 96.421875 L 287.574219 8.359375 Z M 358.507812 10.890625 "/>
<g clip-path="url(#clip8)" clip-rule="nonzero">
<path style=" stroke:none;fill-rule:nonzero;fill:rgb(39.99939%,39.99939%,39.99939%);fill-opacity:0.3;" d="M 360.515625 110.496094 L 368.382812 111.777344 L 367.640625 116.449219 L 359.773438 115.167969 Z M 360.515625 110.496094 "/>
</g>
<g clip-path="url(#clip9)" clip-rule="nonzero">
<path style=" stroke:none;fill-rule:nonzero;fill:rgb(39.99939%,39.99939%,39.99939%);fill-opacity:0.3;" d="M 359.453125 116.390625 L 367.320312 117.671875 L 366.578125 122.339844 L 358.710938 121.058594 Z M 359.453125 116.390625 "/>
</g>
<g clip-path="url(#clip10)" clip-rule="nonzero">
<path style=" stroke:none;fill-rule:nonzero;fill:rgb(39.99939%,39.99939%,39.99939%);fill-opacity:0.3;" d="M 358.464844 121.855469 L 366.332031 123.136719 L 365.59375 127.804688 L 357.726562 126.523438 Z M 358.464844 121.855469 "/>
</g>
<path style=" stroke:none;fill-rule:nonzero;fill:rgb(39.99939%,39.99939%,39.99939%);fill-opacity:0.3;" d="M 342.175781 94.632812 L 352.652344 96.597656 L 346.128906 127.984375 L 335.652344 126.019531 Z M 342.175781 94.632812 "/>
<g clip-path="url(#clip11)" clip-rule="nonzero">
<path style=" stroke:none;fill-rule:nonzero;fill:rgb(39.99939%,39.99939%,39.99939%);fill-opacity:0.3;" d="M 272.78125 96.503906 L 279.417969 97.730469 L 287.253906 61.21875 L 380.09375 78.035156 L 372.207031 127.699219 L 369.65625 133.753906 L 365.773438 137.878906 L 360.246094 140.371094 L 350.132812 142.472656 L 348.507812 145.246094 L 305.324219 136.777344 L 286.496094 134.519531 L 290.828125 107.140625 L 289.976562 106.945312 L 289.019531 106.726562 L 284.304688 134.417969 L 273.644531 135.558594 L 266.332031 134.746094 L 265.265625 134.570312 L 271.691406 105.277344 L 271.015625 105.15625 L 272.019531 101.039062 Z M 272.78125 96.503906 "/>
</g>
<path style=" stroke:none;fill-rule:nonzero;fill:rgb(39.99939%,39.99939%,39.99939%);fill-opacity:0.3;" d="M 346.238281 73.570312 L 356.769531 75.558594 L 353.03125 93.980469 L 342.503906 91.996094 Z M 346.238281 73.570312 "/>
<path style=" stroke:none;fill-rule:nonzero;fill:rgb(39.99939%,39.99939%,39.99939%);fill-opacity:0.3;" d="M 341.699219 28.820312 L 352.15625 30.730469 L 349.679688 42.929688 L 339.222656 41.015625 Z M 341.699219 28.820312 "/>
<path style=" stroke:none;fill-rule:nonzero;fill:rgb(39.99939%,39.99939%,39.99939%);fill-opacity:0.3;" d="M 310.359375 24.539062 L 320.816406 26.449219 L 318.339844 38.648438 L 307.882812 36.738281 Z M 310.359375 24.539062 "/>
<path style=" stroke:none;fill-rule:nonzero;fill:rgb(39.99939%,39.99939%,39.99939%);fill-opacity:0.3;" d="M 327.621094 27.433594 L 338.078125 29.34375 L 335.601562 41.542969 L 325.144531 39.632812 Z M 327.621094 27.433594 "/>
<path style=" stroke:none;fill-rule:nonzero;fill:rgb(39.99939%,39.99939%,39.99939%);fill-opacity:0.3;" d="M 294.535156 36.664062 L 301.855469 38 L 300.125 46.539062 L 292.804688 45.203125 Z M 294.535156 36.664062 "/>
<path style=" stroke:none;fill-rule:nonzero;fill:rgb(39.99939%,39.99939%,39.99939%);fill-opacity:0.3;" d="M 338.835938 43.882812 L 346.886719 45.355469 L 344.980469 54.746094 L 336.929688 53.273438 Z M 338.835938 43.882812 "/>
<path style=" stroke:none;fill-rule:nonzero;fill:rgb(39.99939%,39.99939%,39.99939%);fill-opacity:0.3;" d="M 297.628906 21.992188 L 308.085938 23.902344 L 305.609375 36.101562 L 295.152344 34.1875 Z M 297.628906 21.992188 "/>
<g clip-path="url(#clip12)" clip-rule="nonzero">
<path style=" stroke:none;fill-rule:nonzero;fill:rgb(39.99939%,39.99939%,39.99939%);fill-opacity:0.3;" d="M 351.667969 145.863281 L 352.234375 144.210938 L 360.546875 142.3125 L 366.628906 140.605469 L 369.527344 139.03125 L 372.84375 136.277344 L 374.636719 133.523438 L 376.019531 129.984375 L 406.140625 126.171875 L 443.308594 121.957031 L 444.550781 122.21875 L 436.925781 161.320312 L 367.296875 150.023438 L 367.460938 148.960938 Z M 351.667969 145.863281 "/>
</g>
<g clip-path="url(#clip13)" clip-rule="nonzero">
<path style=" stroke:none;fill-rule:nonzero;fill:rgb(39.99939%,39.99939%,39.99939%);fill-opacity:0.3;" d="M 366.714844 153.757812 L 485.917969 173.910156 L 487.863281 174.238281 L 506.542969 177.398438 L 509.257812 177.855469 L 520.539062 179.761719 L 523.714844 180.300781 L 638.511719 199.710938 L 624.960938 268.820312 L 546.566406 254.960938 L 360.554688 221.660156 L 354.058594 216.378906 L 361.367188 185.511719 L 364.617188 167.238281 Z M 366.714844 153.757812 "/>
</g>
<g clip-path="url(#clip14)" clip-rule="nonzero">
<path style=" stroke:none;fill-rule:nonzero;fill:rgb(39.99939%,39.99939%,39.99939%);fill-opacity:0.3;" d="M 365.949219 11.15625 L 365.515625 13.324219 L 358.386719 12.078125 L 358.613281 10.894531 Z M 365.949219 11.15625 "/>
</g>
<g clip-path="url(#clip15)" clip-rule="nonzero">
<path style=" stroke:none;fill-rule:nonzero;fill:rgb(39.99939%,39.99939%,39.99939%);fill-opacity:0.3;" d="M 295.945312 19.53125 L 355.160156 28.597656 L 358.382812 12.09375 L 365.511719 13.332031 L 366.859375 13.566406 L 369.070312 13.953125 L 381.441406 16.113281 L 388.578125 19 L 389.390625 50.675781 L 384.113281 75.453125 L 396.296875 77.886719 L 414.164062 80.730469 L 433.253906 83.980469 L 451.207031 86.273438 L 450.839844 88.230469 L 287.949219 57.84375 Z M 295.945312 19.53125 "/>
</g>
<path style=" stroke:none;fill-rule:nonzero;fill:rgb(39.99939%,39.99939%,39.99939%);fill-opacity:0.3;" d="M 285.398438 274.132812 L 283.078125 273.765625 L 283.394531 271.746094 Z M 285.398438 274.132812 "/>
<path style=" stroke:none;fill-rule:nonzero;fill:rgb(39.99939%,39.99939%,39.99939%);fill-opacity:0.3;" d="M 280.476562 268.273438 L 278.664062 267.984375 L 278.917969 266.328125 Z M 280.476562 268.273438 "/>
<path style=" stroke:none;fill-rule:nonzero;fill:rgb(39.99939%,39.99939%,39.99939%);fill-opacity:0.3;" d="M 276.074219 262.769531 L 274.265625 262.484375 L 274.519531 260.832031 Z M 276.074219 262.769531 "/>
<path style=" stroke:none;fill-rule:nonzero;fill:rgb(39.99939%,39.99939%,39.99939%);fill-opacity:0.3;" d="M 273.007812 258.941406 L 272.109375 261.179688 L 270.082031 262.234375 L 267.539062 263.316406 L 256.664062 253.925781 L 257.398438 249.277344 L 265.925781 252.523438 L 270.800781 256.179688 Z M 273.007812 258.941406 "/>
<path style=" stroke:none;fill-rule:nonzero;fill:rgb(39.99939%,39.99939%,39.99939%);fill-opacity:0.3;" d="M 160.675781 243.515625 L 107.339844 260.273438 L 107.730469 259.003906 L 109.972656 253.335938 L 129.46875 250.496094 L 160.332031 243.589844 Z M 160.675781 243.515625 "/>
<path style=" stroke:none;fill-rule:nonzero;fill:rgb(39.99939%,39.99939%,39.99939%);fill-opacity:0.3;" d="M 84.773438 308.078125 L 77.507812 326.492188 L 46.277344 315.78125 L 51.429688 302.34375 Z M 84.773438 308.078125 "/>
<path style=" stroke:none;fill-rule:nonzero;fill:rgb(39.99939%,39.99939%,39.99939%);fill-opacity:0.3;" d="M 272.1875 261.234375 L 273.074219 259.023438 L 280.546875 268.363281 L 295.574219 286.234375 L 294.925781 288.179688 L 294.464844 288.085938 L 291.59375 284.449219 L 278.160156 269.886719 Z M 272.1875 261.234375 "/>
<g clip-path="url(#clip16)" clip-rule="nonzero">
<path style=" stroke:none;fill-rule:nonzero;fill:rgb(39.99939%,39.99939%,39.99939%);fill-opacity:0.3;" d="M 97.890625 346.101562 L 101.117188 348.25 L 111.199219 350.691406 L 120.859375 352.539062 L 136.265625 354.503906 L 123.902344 393.789062 L 113.792969 409.144531 L 57.140625 400.625 L 53.8125 392.128906 L 67.28125 360.589844 L 68.742188 359.203125 L 91.703125 360.8125 L 92.828125 361.390625 L 93.894531 362.308594 L 95.152344 363.285156 L 97.796875 363.886719 L 98.167969 362.863281 L 98.675781 361.460938 L 96.65625 361.140625 L 95.234375 360.476562 L 95.023438 359.089844 L 95.230469 357.410156 L 96.585938 356.515625 L 99.714844 356.121094 L 99.828125 354.972656 L 99.921875 354.042969 L 95.960938 354.441406 L 93.769531 355.234375 L 91.867188 357.191406 L 90.359375 358.410156 L 73.433594 357.519531 L 70.722656 357.125 L 69.441406 355.300781 L 75.257812 338.320312 L 96.988281 342.757812 Z M 97.890625 346.101562 "/>
</g>
<path style=" stroke:none;fill-rule:nonzero;fill:rgb(39.99939%,39.99939%,39.99939%);fill-opacity:0.3;" d="M 106.359375 262.464844 L 125.597656 256.300781 L 117.796875 279.214844 L 101.578125 275.433594 L 103.511719 269.660156 Z M 106.359375 262.464844 "/>
<path style=" stroke:none;fill-rule:nonzero;fill:rgb(39.99939%,39.99939%,39.99939%);fill-opacity:0.3;" d="M 100.527344 278.21875 L 153.394531 292.15625 L 136.863281 352.574219 L 117.894531 349.910156 L 109.152344 348.046875 L 105.152344 344.644531 L 103.648438 341.625 L 76.09375 335.546875 L 87.59375 308.5625 L 87.636719 308.570312 L 88.699219 305.972656 Z M 100.527344 278.21875 "/>
<g clip-path="url(#clip17)" clip-rule="nonzero">
<path style=" stroke:none;fill-rule:nonzero;fill:rgb(39.99939%,39.99939%,39.99939%);fill-opacity:0.3;" d="M 170.714844 245.449219 L 173.652344 241.449219 L 183.492188 242.675781 L 183.273438 246.429688 L 181.609375 246.433594 L 181.472656 248.441406 L 181.332031 250.445312 L 184.28125 250.613281 L 180.234375 259.835938 L 205.335938 267.296875 L 198.34375 328.226562 L 185.378906 422.441406 L 167.40625 419.5 L 178.164062 359.578125 L 176.800781 359.457031 L 175.433594 359.335938 L 171.667969 381.753906 L 153.71875 379.039062 L 158.332031 355.328125 L 157.121094 355.183594 L 155.90625 355.035156 L 151.464844 378.699219 L 132.984375 375.910156 Z M 170.714844 245.449219 "/>
</g>
<path style=" stroke:none;fill-rule:nonzero;fill:rgb(39.99939%,39.99939%,39.99939%);fill-opacity:0.3;" d="M 129.378906 255.089844 L 142.058594 251.027344 L 155.679688 246.664062 L 167.628906 242.835938 L 154.121094 288.730469 L 121.566406 279.863281 Z M 129.378906 255.089844 "/>
<path style=" stroke:none;fill-rule:nonzero;fill:rgb(39.99939%,39.99939%,39.99939%);fill-opacity:0.3;" d="M 249.359375 275.648438 L 249.109375 277.636719 L 213.710938 272.277344 L 214.074219 269.457031 L 214.753906 269.582031 L 249.277344 275.675781 Z M 249.359375 275.648438 "/>
<g clip-path="url(#clip18)" clip-rule="nonzero">
<path style=" stroke:none;fill-rule:nonzero;fill:rgb(39.99939%,39.99939%,39.99939%);fill-opacity:0.3;" d="M 213.363281 274.957031 L 252.113281 280.828125 L 253.050781 273.253906 L 253.742188 272.425781 L 256.042969 257.871094 L 291.011719 289.203125 L 280.472656 339.265625 L 257.105469 335.695312 L 256.824219 337.222656 L 256.546875 338.746094 L 280.054688 342.1875 L 274.902344 369.722656 L 245.621094 365.023438 L 235.925781 374.050781 L 230.15625 373.179688 L 229.183594 381.195312 L 199.535156 377.179688 L 205.429688 337.234375 L 236.175781 341.84375 L 235.648438 345.0625 L 238.054688 345.367188 L 240.421875 345.664062 L 241.476562 337.316406 L 239.195312 337.066406 L 236.917969 336.816406 L 236.386719 339.53125 L 205.640625 334.722656 L 210.992188 293.296875 L 244.414062 298.011719 L 244.019531 303.78125 L 246.25 303.910156 L 248.082031 304.011719 L 249.347656 292.128906 L 247.863281 291.992188 L 245.382812 291.757812 L 244.992188 294.839844 L 211.4375 289.859375 Z M 213.363281 274.957031 "/>
</g>
<g clip-path="url(#clip19)" clip-rule="nonzero">
<path style=" stroke:none;fill-rule:nonzero;fill:rgb(39.99939%,39.99939%,39.99939%);fill-opacity:0.3;" d="M 44.765625 318.316406 L 75.675781 328.878906 L 49.378906 391.152344 L 42.617188 394.96875 L 37.863281 396.015625 L 30.734375 395.84375 L 22.683594 392.378906 L 18.292969 388.394531 Z M 44.765625 318.316406 "/>
</g>
<path style=" stroke:none;fill-rule:nonzero;fill:rgb(39.99939%,39.99939%,39.99939%);fill-opacity:0.3;" d="M 294.003906 290.214844 L 294.234375 290.257812 L 293.621094 292.089844 Z M 294.003906 290.214844 "/>
<g clip-path="url(#clip20)" clip-rule="nonzero">
<path style=" stroke:none;fill-rule:nonzero;fill:rgb(39.99939%,39.99939%,39.99939%);fill-opacity:0.3;" d="M 277.71875 370.175781 L 285.789062 330.542969 L 281.765625 352.433594 L 278.519531 370.304688 Z M 277.71875 370.175781 "/>
</g>
<path style=" stroke:none;fill-rule:nonzero;fill:rgb(39.99939%,39.99939%,39.99939%);fill-opacity:0.3;" d="M 288.886719 278.28125 L 287.691406 278.089844 L 287.855469 277.050781 Z M 288.886719 278.28125 "/>
<path style=" stroke:none;fill-rule:nonzero;fill:rgb(39.99939%,39.99939%,39.99939%);fill-opacity:0.3;" d="M 338.527344 223.820312 L 353.25 226.328125 L 351.800781 234.910156 L 337.078125 232.402344 Z M 338.527344 223.820312 "/>
<path style=" stroke:none;fill-rule:nonzero;fill:rgb(39.99939%,39.99939%,39.99939%);fill-opacity:0.3;" d="M 345.589844 236.835938 L 350.78125 237.726562 L 348.285156 252.109375 L 343.09375 251.214844 Z M 345.589844 236.835938 "/>
<path style=" stroke:none;fill-rule:nonzero;fill:rgb(39.99939%,39.99939%,39.99939%);fill-opacity:0.3;" d="M 353.816406 261.917969 L 359.007812 262.808594 L 358.421875 266.859375 L 353.230469 265.96875 Z M 353.816406 261.917969 "/>
<path style=" stroke:none;fill-rule:nonzero;fill:rgb(39.99939%,39.99939%,39.99939%);fill-opacity:0.3;" d="M 342.722656 252.386719 L 347.910156 253.28125 L 344.285156 273.851562 L 339.09375 272.957031 Z M 342.722656 252.386719 "/>
<g clip-path="url(#clip21)" clip-rule="nonzero">
<path style=" stroke:none;fill-rule:nonzero;fill:rgb(39.99939%,39.99939%,39.99939%);fill-opacity:0.3;" d="M 361.234375 339.351562 L 355.675781 338.375 L 361.878906 305.453125 L 367.433594 306.429688 Z M 361.234375 339.351562 "/>
</g>
<path style=" stroke:none;fill-rule:nonzero;fill:rgb(39.99939%,39.99939%,39.99939%);fill-opacity:0.3;" d="M 352.453125 268.277344 L 357.640625 269.171875 L 354.917969 285.558594 L 349.726562 284.664062 Z M 352.453125 268.277344 "/>
<g clip-path="url(#clip22)" clip-rule="nonzero">
<path style=" stroke:none;fill-rule:nonzero;fill:rgb(39.99939%,39.99939%,39.99939%);fill-opacity:0.3;" d="M 346.304688 285.765625 L 366.582031 289.242188 L 364.59375 300.730469 L 344.316406 297.253906 Z M 346.304688 285.765625 "/>
</g>
<path style=" stroke:none;fill-rule:nonzero;fill:rgb(39.99939%,39.99939%,39.99939%);fill-opacity:0.3;" d="M 336.476562 235.261719 L 341.667969 236.15625 L 335.210938 272.46875 L 330.019531 271.578125 Z M 336.476562 235.261719 "/>
<g clip-path="url(#clip23)" clip-rule="nonzero">
<path style=" stroke:none;fill-rule:nonzero;fill:rgb(39.99939%,39.99939%,39.99939%);fill-opacity:0.3;" d="M 342.503906 300.378906 L 435.136719 317.492188 L 421.539062 385.941406 L 327.917969 369.777344 Z M 342.503906 300.378906 "/>
</g>
<path style=" stroke:none;fill-rule:nonzero;fill:rgb(39.99939%,39.99939%,39.99939%);fill-opacity:0.3;" d="M 328.167969 281.640625 L 342.898438 284.109375 L 340.910156 295.597656 L 326.179688 293.128906 Z M 328.167969 281.640625 "/>
<path style=" stroke:none;fill-rule:nonzero;fill:rgb(39.99939%,39.99939%,39.99939%);fill-opacity:0.3;" d="M 314.136719 216.492188 L 308.097656 215.441406 L 308.570312 212.765625 L 333.257812 216.578125 L 332.628906 219.578125 Z M 314.136719 216.492188 "/>
<path style=" stroke:none;fill-rule:nonzero;fill:rgb(39.99939%,39.99939%,39.99939%);fill-opacity:0.3;" d="M 307.628906 218.085938 L 314.339844 219.253906 L 308.488281 258.050781 L 300.796875 256.722656 Z M 307.628906 218.085938 "/>
<g clip-path="url(#clip24)" clip-rule="nonzero">
<path style=" stroke:none;fill-rule:nonzero;fill:rgb(39.99939%,39.99939%,39.99939%);fill-opacity:0.3;" d="M 300.78125 256.796875 L 308.5625 258.148438 L 314.417969 219.265625 L 433.0625 239.5625 L 624.085938 272.441406 L 610.539062 344.402344 L 567.058594 336.953125 L 396.324219 307.164062 L 344.246094 297.988281 L 294.925781 288.179688 L 295.574219 286.234375 Z M 300.78125 256.796875 "/>
</g>
<g clip-path="url(#clip25)" clip-rule="nonzero">
<path style=" stroke:none;fill-rule:nonzero;fill:rgb(39.99939%,39.99939%,39.99939%);fill-opacity:0.3;" d="M 362.855469 264.304688 L 368.042969 265.195312 L 364.304688 287.054688 L 359.113281 286.160156 Z M 362.855469 264.304688 "/>
</g>
<g clip-path="url(#clip26)" clip-rule="nonzero">
<path style=" stroke:none;fill-rule:nonzero;fill:rgb(39.99939%,39.99939%,39.99939%);fill-opacity:0.3;" d="M 624.960938 268.820312 L 624.796875 269.65625 L 335.902344 219.816406 L 336.453125 217.074219 L 339.84375 217.597656 L 360.554688 221.660156 L 546.566406 254.960938 Z M 624.960938 268.820312 "/>
</g>
<g clip-path="url(#clip27)" clip-rule="nonzero">
<path style=" stroke:none;fill-rule:nonzero;fill:rgb(39.99939%,39.99939%,39.99939%);fill-opacity:0.3;" d="M 294.234375 290.257812 L 338.945312 299.277344 L 325.417969 365.503906 L 310.984375 363.320312 L 310.585938 365.816406 L 310.1875 368.316406 L 324.980469 372.488281 L 312.214844 443.945312 L 264.464844 435.25 L 277.71875 370.175781 L 278.519531 370.304688 L 281.765625 352.433594 L 285.789062 330.542969 L 293.621094 292.089844 Z M 294.234375 290.257812 "/>
</g>
<g clip-path="url(#clip28)" clip-rule="nonzero">
<path style=" stroke:none;fill-rule:nonzero;fill:rgb(39.99939%,39.99939%,39.99939%);fill-opacity:0.3;" d="M -19.378906 300.667969 L 6.234375 381.855469 L -0.0898438 380.050781 L -0.152344 380.273438 L -10.46875 374.796875 L -7.839844 368.367188 L -9.953125 364.15625 L -13.097656 361.300781 L -16.894531 358.324219 L -17.390625 359.613281 L -17.898438 360.9375 L -11.25 368.074219 L -13.574219 373.539062 L -22.765625 368.609375 L -28.414062 365.667969 L -37.386719 358.535156 L -40.5625 354.058594 Z M -19.378906 300.667969 "/>
</g>
<path style="fill-rule:nonzero;fill:rgb(39.99939%,39.99939%,39.99939%);fill-opacity:1;stroke-width:0.03;stroke-linecap:square;stroke-linejoin:miter;stroke:rgb(39.99939%,39.99939%,39.99939%);stroke-opacity:1;stroke-miterlimit:3.239307;" d="M 295 138.667969 L 262.105469 131.410156 L 262.265625 130.574219 L 272.914062 133.53125 L 295.253906 138 Z M 295 138.667969 " transform="matrix(1,0,0,1,-74,-13)"/>
<path style="fill-rule:nonzero;fill:rgb(39.99939%,39.99939%,39.99939%);fill-opacity:1;stroke-width:0.03;stroke-linecap:square;stroke-linejoin:miter;stroke:rgb(39.99939%,39.99939%,39.99939%);stroke-opacity:1;stroke-miterlimit:3.239307;" d="M 358.066406 280.402344 L 362.90625 281.167969 L 361.917969 287.53125 L 359.398438 287.132812 L 357.394531 284.746094 Z M 358.066406 280.402344 " transform="matrix(1,0,0,1,-74,-13)"/>
<path style="fill-rule:nonzero;fill:rgb(39.99939%,39.99939%,39.99939%);fill-opacity:1;stroke-width:0.03;stroke-linecap:square;stroke-linejoin:miter;stroke:rgb(39.99939%,39.99939%,39.99939%);stroke-opacity:1;stroke-miterlimit:3.239307;" d="M 353.652344 274.621094 L 358.488281 275.386719 L 357.5 281.75 L 354.476562 281.273438 L 352.917969 279.328125 Z M 353.652344 274.621094 " transform="matrix(1,0,0,1,-74,-13)"/>
<path style="fill-rule:nonzero;fill:rgb(39.99939%,39.99939%,39.99939%);fill-opacity:1;stroke-width:0.03;stroke-linecap:square;stroke-linejoin:miter;stroke:rgb(39.99939%,39.99939%,39.99939%);stroke-opacity:1;stroke-miterlimit:3.239307;" d="M 349.253906 269.121094 L 354.089844 269.886719 L 353.101562 276.25 L 350.074219 275.769531 L 348.519531 273.832031 Z M 349.253906 269.121094 " transform="matrix(1,0,0,1,-74,-13)"/>
<path style="fill-rule:nonzero;fill:rgb(39.99939%,39.99939%,39.99939%);fill-opacity:1;stroke-width:0.03;stroke-linecap:square;stroke-linejoin:miter;stroke:rgb(39.99939%,39.99939%,39.99939%);stroke-opacity:1;stroke-miterlimit:3.239307;" d="M 382.097656 228.441406 L 361.1875 224.804688 L 364.714844 204.722656 L 382.570312 225.765625 Z M 382.097656 228.441406 " transform="matrix(1,0,0,1,-74,-13)"/>
<path style="fill-rule:nonzero;fill:rgb(39.99939%,39.99939%,39.99939%);fill-opacity:1;stroke-width:0.03;stroke-linecap:square;stroke-linejoin:miter;stroke:rgb(39.99939%,39.99939%,39.99939%);stroke-opacity:1;stroke-miterlimit:3.239307;" d="M 360.667969 227.445312 L 381.628906 231.085938 L 374.796875 269.722656 L 349.648438 265.378906 L 347.007812 271.941406 L 344.800781 269.179688 L 339.925781 265.523438 L 331.398438 262.277344 L 330.664062 266.925781 L 326.984375 263.75 L 296.957031 245.988281 L 297.34375 243.667969 L 297.0625 241.464844 L 296.296875 239.617188 L 295.394531 238.335938 L 294.355469 237.3125 L 293.066406 236.429688 L 291.496094 235.734375 L 290.027344 235.378906 L 288.4375 235.273438 L 286.691406 235.480469 L 285.332031 235.882812 L 284.332031 236.34375 L 283.402344 236.917969 L 282.511719 237.644531 L 281.855469 238.328125 L 281.035156 239.46875 L 279.738281 241.664062 L 276.066406 241.066406 L 272.644531 240.816406 L 268.636719 240.886719 L 264.738281 241.339844 L 259.988281 242.425781 L 255.050781 244.234375 L 250.269531 246.753906 L 244.566406 251.070312 L 241.328125 254.421875 L 234.675781 256.515625 L 234.332031 256.589844 L 203.46875 263.496094 L 183.972656 266.335938 L 181.730469 272.003906 L 189.953125 245.378906 L 191.589844 240.378906 L 194.648438 234.417969 L 197.113281 231.621094 L 199.628906 229.164062 L 202.539062 226.917969 L 208.984375 223.546875 L 219.753906 217.398438 L 227.957031 212.347656 L 237.609375 206.921875 L 247.101562 202.152344 L 250.066406 201.359375 L 254.957031 200.386719 L 260.535156 199.945312 L 264.390625 200.042969 L 263.457031 216.152344 L 280.84375 218.382812 L 281.308594 216.84375 L 281.785156 215.25 L 266.363281 213.242188 L 267.144531 200.324219 L 268.886719 200.578125 L 271.96875 201.214844 L 275.523438 202.234375 L 279.90625 203.957031 L 284.253906 206.035156 L 289.285156 209.601562 L 291.914062 211.957031 L 296.703125 213.691406 L 301.070312 215.425781 L 304.171875 217.5625 L 309.148438 218.726562 Z M 360.667969 227.445312 " transform="matrix(1,0,0,1,-74,-13)"/>
<path style="fill-rule:nonzero;fill:rgb(39.99939%,39.99939%,39.99939%);fill-opacity:1;stroke-width:0.03;stroke-linecap:square;stroke-linejoin:miter;stroke:rgb(39.99939%,39.99939%,39.99939%);stroke-opacity:1;stroke-miterlimit:3.239307;" d="M 262.972656 140.910156 L 261.679688 142.605469 L 255.980469 169.859375 L 269.730469 172.082031 L 267.859375 185.644531 L 266.195312 197.703125 L 261.867188 197.414062 L 256.3125 197.570312 L 250.820312 198.3125 L 248.101562 199.304688 L 245.539062 200.3125 L 242.976562 201.558594 L 233.992188 206.429688 L 225.210938 211.566406 L 206.417969 222.230469 L 200.640625 225.503906 L 198.339844 227.378906 L 194.804688 230.367188 L 192.570312 233.347656 L 190.679688 237.003906 L 187.867188 243.597656 L 176.980469 274.941406 L 158.773438 321.078125 L 125.429688 315.34375 L 164.039062 214.589844 L 197.230469 191.359375 L 194.765625 189.066406 L 196.703125 186.613281 L 192.867188 182.671875 L 189.640625 184.089844 L 176.039062 180.726562 L 176.414062 179.425781 L 184.378906 179.425781 L 189.660156 169.273438 L 230.273438 158.304688 L 237.582031 155.464844 L 244.726562 146.496094 L 249.195312 149.238281 L 247.351562 154.929688 L 248.671875 155.242188 L 249.816406 155.515625 L 251.503906 150.257812 L 255.8125 145.144531 L 259.402344 140.46875 L 262.21875 134.5625 L 265.15625 135.117188 L 261.753906 140.355469 L 262.332031 140.621094 Z M 262.972656 140.910156 " transform="matrix(1,0,0,1,-74,-13)"/>
<path style="fill-rule:nonzero;fill:rgb(39.99939%,39.99939%,39.99939%);fill-opacity:1;stroke-width:0.03;stroke-linecap:square;stroke-linejoin:miter;stroke:rgb(39.99939%,39.99939%,39.99939%);stroke-opacity:1;stroke-miterlimit:3.239307;" d="M 347.074219 272.023438 L 349.710938 265.445312 L 374.78125 269.796875 L 369.574219 299.234375 L 354.546875 281.363281 Z M 347.074219 272.023438 " transform="matrix(1,0,0,1,-74,-13)"/>
<path style="fill-rule:nonzero;fill:rgb(39.99939%,39.99939%,39.99939%);fill-opacity:1;stroke-width:0.03;stroke-linecap:square;stroke-linejoin:miter;stroke:rgb(39.99939%,39.99939%,39.99939%);stroke-opacity:1;stroke-miterlimit:3.239307;" d="M 179.871094 275.621094 L 180.359375 275.464844 L 177.511719 282.660156 Z M 179.871094 275.621094 " transform="matrix(1,0,0,1,-74,-13)"/>
<path style="fill-rule:nonzero;fill:rgb(39.99939%,39.99939%,39.99939%);fill-opacity:1;stroke-width:0.03;stroke-linecap:square;stroke-linejoin:miter;stroke:rgb(39.99939%,39.99939%,39.99939%);stroke-opacity:1;stroke-miterlimit:3.239307;" d="M 161.59375 321.5625 L 162.699219 318.972656 L 161.636719 321.570312 Z M 161.59375 321.5625 " transform="matrix(1,0,0,1,-74,-13)"/>
<path style="fill-rule:nonzero;fill:rgb(39.99939%,39.99939%,39.99939%);fill-opacity:1;stroke-width:0.03;stroke-linecap:square;stroke-linejoin:miter;stroke:rgb(39.99939%,39.99939%,39.99939%);stroke-opacity:1;stroke-miterlimit:3.239307;" d="M 247.652344 254.449219 L 249.011719 252.589844 L 257.890625 248.769531 L 257.492188 255.675781 Z M 247.652344 254.449219 " transform="matrix(1,0,0,1,-74,-13)"/>
<path style="fill-rule:nonzero;fill:rgb(39.99939%,39.99939%,39.99939%);fill-opacity:1;stroke-width:0.03;stroke-linecap:square;stroke-linejoin:miter;stroke:rgb(39.99939%,39.99939%,39.99939%);stroke-opacity:1;stroke-miterlimit:3.239307;" d="M 258.28125 263.613281 L 267.960938 264.164062 L 268.03125 261.796875 L 268.097656 259.425781 L 262.0625 259.164062 L 262.828125 246.546875 L 265.800781 244.816406 L 272.253906 245.671875 L 278.914062 246.917969 L 282.800781 250.074219 L 279.335938 280.296875 L 254.234375 272.835938 Z M 258.28125 263.613281 " transform="matrix(1,0,0,1,-74,-13)"/>
<path style="fill-rule:nonzero;fill:rgb(39.99939%,39.99939%,39.99939%);fill-opacity:1;stroke-width:0.03;stroke-linecap:square;stroke-linejoin:miter;stroke:rgb(39.99939%,39.99939%,39.99939%);stroke-opacity:1;stroke-miterlimit:3.239307;" d="M 291.917969 252.703125 L 294.769531 251.617188 L 297.621094 251.292969 L 326.03125 267.613281 L 323.359375 288.648438 L 323.277344 288.675781 L 288.753906 282.582031 L 288.074219 282.457031 Z M 291.917969 252.703125 " transform="matrix(1,0,0,1,-74,-13)"/>
<path style="fill-rule:nonzero;fill:rgb(39.99939%,39.99939%,39.99939%);fill-opacity:1;stroke-width:0.03;stroke-linecap:square;stroke-linejoin:miter;stroke:rgb(39.99939%,39.99939%,39.99939%);stroke-opacity:1;stroke-miterlimit:3.239307;" d="M 327.050781 286.253906 L 329.0625 269.992188 L 330.042969 270.871094 L 327.742188 285.425781 Z M 327.050781 286.253906 " transform="matrix(1,0,0,1,-74,-13)"/>
<path style="fill-rule:nonzero;fill:rgb(39.99939%,39.99939%,39.99939%);fill-opacity:1;stroke-width:0.03;stroke-linecap:square;stroke-linejoin:miter;stroke:rgb(39.99939%,39.99939%,39.99939%);stroke-opacity:1;stroke-miterlimit:3.239307;" d="M 333.453125 201.804688 L 331.640625 211.941406 L 335.503906 212.664062 L 334.070312 220.398438 L 325.878906 218.8125 L 329.179688 201.003906 Z M 333.453125 201.804688 " transform="matrix(1,0,0,1,-74,-13)"/>
<path style="fill-rule:nonzero;fill:rgb(39.99939%,39.99939%,39.99939%);fill-opacity:1;stroke-width:0.03;stroke-linecap:square;stroke-linejoin:miter;stroke:rgb(39.99939%,39.99939%,39.99939%);stroke-opacity:1;stroke-miterlimit:3.239307;" d="M 193.949219 190.875 L 164.792969 211.953125 L 170.332031 197.34375 L 179.742188 196.171875 L 179.777344 195.152344 L 179.804688 194.316406 L 171.09375 195.339844 L 175.316406 184.195312 L 175.445312 183.890625 L 175.445312 183.855469 L 175.527344 183.644531 L 181.695312 185 L 181.898438 183.757812 L 189.734375 185.597656 Z M 193.949219 190.875 " transform="matrix(1,0,0,1,-74,-13)"/>
<path style="fill-rule:nonzero;fill:rgb(39.99939%,39.99939%,39.99939%);fill-opacity:1;stroke-width:0.03;stroke-linecap:square;stroke-linejoin:miter;stroke:rgb(39.99939%,39.99939%,39.99939%);stroke-opacity:1;stroke-miterlimit:3.239307;" d="M 255.441406 133.054688 L 259.65625 134.339844 L 255.8125 141.933594 L 249.195312 147.046875 L 245.917969 145 Z M 255.441406 133.054688 " transform="matrix(1,0,0,1,-74,-13)"/>
<path style="fill-rule:nonzero;fill:rgb(39.99939%,39.99939%,39.99939%);fill-opacity:1;stroke-width:0.03;stroke-linecap:square;stroke-linejoin:miter;stroke:rgb(39.99939%,39.99939%,39.99939%);stroke-opacity:1;stroke-miterlimit:3.239307;" d="M 317.074219 217.148438 L 320.226562 199.386719 L 328.0625 200.792969 L 324.964844 218.628906 Z M 317.074219 217.148438 " transform="matrix(1,0,0,1,-74,-13)"/>
<path style="fill-rule:nonzero;fill:rgb(39.99939%,39.99939%,39.99939%);fill-opacity:1;stroke-width:0.03;stroke-linecap:square;stroke-linejoin:miter;stroke:rgb(39.99939%,39.99939%,39.99939%);stroke-opacity:1;stroke-miterlimit:3.239307;" d="M 307.835938 215.382812 L 310.992188 197.621094 L 318.828125 199.027344 L 315.726562 216.859375 Z M 307.835938 215.382812 " transform="matrix(1,0,0,1,-74,-13)"/>
<path style="fill-rule:nonzero;fill:rgb(39.99939%,39.99939%,39.99939%);fill-opacity:1;stroke-width:0.03;stroke-linecap:square;stroke-linejoin:miter;stroke:rgb(39.99939%,39.99939%,39.99939%);stroke-opacity:1;stroke-miterlimit:3.239307;" d="M 299.589844 210.777344 L 302.203125 196.015625 L 310.035156 197.421875 L 307.480469 212.257812 Z M 299.589844 210.777344 " transform="matrix(1,0,0,1,-74,-13)"/>
<path style="fill-rule:nonzero;fill:rgb(39.99939%,39.99939%,39.99939%);fill-opacity:1;stroke-width:0.03;stroke-linecap:square;stroke-linejoin:miter;stroke:rgb(39.99939%,39.99939%,39.99939%);stroke-opacity:1;stroke-miterlimit:3.239307;" d="M 291.398438 205.847656 L 293.410156 194.242188 L 301.246094 195.648438 L 299.289062 207.328125 Z M 291.398438 205.847656 " transform="matrix(1,0,0,1,-74,-13)"/>
<path style="fill-rule:nonzero;fill:rgb(39.99939%,39.99939%,39.99939%);fill-opacity:1;stroke-width:0.03;stroke-linecap:square;stroke-linejoin:miter;stroke:rgb(39.99939%,39.99939%,39.99939%);stroke-opacity:1;stroke-miterlimit:3.239307;" d="M 288.785156 190.515625 L 291.457031 190.855469 L 289.40625 202.847656 L 286.738281 202.347656 Z M 288.785156 190.515625 " transform="matrix(1,0,0,1,-74,-13)"/>
<path style="fill-rule:nonzero;fill:rgb(39.99939%,39.99939%,39.99939%);fill-opacity:1;stroke-width:0.03;stroke-linecap:square;stroke-linejoin:miter;stroke:rgb(39.99939%,39.99939%,39.99939%);stroke-opacity:1;stroke-miterlimit:3.239307;" d="M 258.921875 160.011719 L 261.875 160.476562 L 260.550781 168.132812 L 257.59375 167.667969 Z M 258.921875 160.011719 " transform="matrix(1,0,0,1,-74,-13)"/>
<path style="fill-rule:nonzero;fill:rgb(39.99939%,39.99939%,39.99939%);fill-opacity:1;stroke-width:0.03;stroke-linecap:square;stroke-linejoin:miter;stroke:rgb(39.99939%,39.99939%,39.99939%);stroke-opacity:1;stroke-miterlimit:3.239307;" d="M 263.578125 160.988281 L 277.117188 163.382812 L 275.730469 170.882812 L 262.15625 168.484375 Z M 263.578125 160.988281 " transform="matrix(1,0,0,1,-74,-13)"/>
<path style="fill-rule:nonzero;fill:rgb(39.99939%,39.99939%,39.99939%);fill-opacity:1;stroke-width:0.03;stroke-linecap:square;stroke-linejoin:miter;stroke:rgb(39.99939%,39.99939%,39.99939%);stroke-opacity:1;stroke-miterlimit:3.239307;" d="M 262.972656 141.964844 L 265.90625 142.539062 L 263.183594 155.269531 L 260.25 154.691406 Z M 262.972656 141.964844 " transform="matrix(1,0,0,1,-74,-13)"/>
<path style="fill-rule:nonzero;fill:rgb(39.99939%,39.99939%,39.99939%);fill-opacity:1;stroke-width:0.03;stroke-linecap:square;stroke-linejoin:miter;stroke:rgb(39.99939%,39.99939%,39.99939%);stroke-opacity:1;stroke-miterlimit:3.239307;" d="M 264.277344 155.554688 L 266.84375 142.710938 L 274.742188 144.054688 L 272.167969 156.929688 Z M 264.277344 155.554688 " transform="matrix(1,0,0,1,-74,-13)"/>
<path style="fill-rule:nonzero;fill:rgb(39.99939%,39.99939%,39.99939%);fill-opacity:1;stroke-width:0.03;stroke-linecap:square;stroke-linejoin:miter;stroke:rgb(39.99939%,39.99939%,39.99939%);stroke-opacity:1;stroke-miterlimit:3.239307;" d="M 273.847656 157.1875 L 276.414062 144.34375 L 284.3125 145.6875 L 281.738281 158.566406 Z M 273.847656 157.1875 " transform="matrix(1,0,0,1,-74,-13)"/>
<path style="fill-rule:nonzero;fill:rgb(39.99939%,39.99939%,39.99939%);fill-opacity:1;stroke-width:0.03;stroke-linecap:square;stroke-linejoin:miter;stroke:rgb(39.99939%,39.99939%,39.99939%);stroke-opacity:1;stroke-miterlimit:3.239307;" d="M 279.523438 172.195312 L 282.371094 157.933594 L 285.660156 158.507812 L 285.382812 159.890625 L 286.914062 160.15625 L 282.207031 172.660156 Z M 279.523438 172.195312 " transform="matrix(1,0,0,1,-74,-13)"/>
<path style="fill-rule:nonzero;fill:rgb(39.99939%,39.99939%,39.99939%);fill-opacity:1;stroke-width:0.03;stroke-linecap:square;stroke-linejoin:miter;stroke:rgb(39.99939%,39.99939%,39.99939%);stroke-opacity:1;stroke-miterlimit:3.239307;" d="M 356.4375 206.289062 L 359.105469 206.628906 L 355.949219 224.453125 L 353.28125 223.953125 Z M 356.4375 206.289062 " transform="matrix(1,0,0,1,-74,-13)"/>
<path style="fill-rule:nonzero;fill:rgb(39.99939%,39.99939%,39.99939%);fill-opacity:1;stroke-width:0.03;stroke-linecap:square;stroke-linejoin:miter;stroke:rgb(39.99939%,39.99939%,39.99939%);stroke-opacity:1;stroke-miterlimit:3.239307;" d="M 344.125 222.234375 L 347.28125 204.476562 L 350.566406 205.050781 L 350.292969 206.433594 L 354.894531 207.234375 L 352.015625 223.714844 Z M 344.125 222.234375 " transform="matrix(1,0,0,1,-74,-13)"/>
<path style="fill-rule:nonzero;fill:rgb(39.99939%,39.99939%,39.99939%);fill-opacity:1;stroke-width:0.03;stroke-linecap:square;stroke-linejoin:miter;stroke:rgb(39.99939%,39.99939%,39.99939%);stroke-opacity:1;stroke-miterlimit:3.239307;" d="M 341.988281 203.40625 L 346.261719 204.207031 L 342.976562 221.957031 L 334.757812 220.507812 L 336.183594 212.792969 L 340.121094 213.53125 Z M 341.988281 203.40625 " transform="matrix(1,0,0,1,-74,-13)"/>
<path style="fill-rule:nonzero;fill:rgb(39.99939%,39.99939%,39.99939%);fill-opacity:1;stroke-width:0.03;stroke-linecap:square;stroke-linejoin:miter;stroke:rgb(39.99939%,39.99939%,39.99939%);stroke-opacity:1;stroke-miterlimit:3.239307;" d="M 362.679688 284.726562 L 367.519531 285.492188 L 366.53125 291.855469 L 362.886719 291.28125 L 361.855469 290.050781 Z M 362.679688 284.726562 " transform="matrix(1,0,0,1,-74,-13)"/>
<g clip-path="url(#clip29)" clip-rule="nonzero">
<path style=" stroke:none;fill-rule:evenodd;fill:rgb(85.096741%,85.096741%,81.959534%);fill-opacity:0.7;" d="M 278.246094 348 C 278.246094 343.691406 276.535156 339.558594 273.488281 336.511719 C 270.441406 333.464844 266.308594 331.753906 262 331.753906 C 257.691406 331.753906 253.558594 333.464844 250.511719 336.511719 C 247.464844 339.558594 245.753906 343.691406 245.753906 348 C 245.753906 352.308594 247.464844 356.441406 250.511719 359.488281 C 253.558594 362.535156 257.691406 364.246094 262 364.246094 C 266.308594 364.246094 270.441406 362.535156 273.488281 359.488281 C 276.535156 356.441406 278.246094 352.308594 278.246094 348 Z M 278.246094 348 "/>
</g>
<path style=" stroke:none;fill-rule:evenodd;fill:rgb(85.096741%,85.096741%,81.959534%);fill-opacity:0.7;" d="M 30.246094 197 C 30.246094 192.691406 28.535156 188.558594 25.488281 185.511719 C 22.441406 182.464844 18.308594 180.753906 14 180.753906 C 9.691406 180.753906 5.558594 182.464844 2.511719 185.511719 C -0.535156 188.558594 -2.246094 192.691406 -2.246094 197 C -2.246094 201.308594 -0.535156 205.441406 2.511719 208.488281 C 5.558594 211.535156 9.691406 213.246094 14 213.246094 C 18.308594 213.246094 22.441406 211.535156 25.488281 208.488281 C 28.535156 205.441406 30.246094 201.308594 30.246094 197 Z M 30.246094 197 "/>
</g>
</svg>
