<?xml version="1.0" encoding="UTF-8"?>
<svg xmlns="http://www.w3.org/2000/svg" xmlns:xlink="http://www.w3.org/1999/xlink" width="361pt" height="361pt" viewBox="0 0 361 361" version="1.1">
<defs>
<clipPath id="clip1">
  <path d="M 0 342 L 52 342 L 52 360 L 0 360 Z M 0 342 "/>
</clipPath>
<clipPath id="clip2">
  <path d="M 15 359 L 90 359 L 90 360 L 15 360 Z M 15 359 "/>
</clipPath>
<clipPath id="clip3">
  <path d="M 259 0 L 360 0 L 360 107 L 259 107 Z M 259 0 "/>
</clipPath>
<clipPath id="clip4">
  <path d="M 170 83 L 360 83 L 360 348 L 170 348 Z M 170 83 "/>
</clipPath>
<clipPath id="clip5">
  <path d="M 72 293 L 360 293 L 360 360 L 72 360 Z M 72 293 "/>
</clipPath>
<clipPath id="clip6">
  <path d="M 359 111 L 360 111 L 360 187 L 359 187 Z M 359 111 "/>
</clipPath>
<clipPath id="clip7">
  <path d="M 340 135 L 360 135 L 360 211 L 340 211 Z M 340 135 "/>
</clipPath>
</defs>
<g id="surface714">
<path style="fill-rule:nonzero;fill:rgb(0%,0%,0%);fill-opacity:1;stroke-width:0.03;stroke-linecap:square;stroke-linejoin:miter;stroke:rgb(0%,0%,0%);stroke-opacity:1;stroke-miterlimit:10;" d="M 0 178 L 360 178 L 360 -182 L 0 -182 Z M 0 178 " transform="matrix(1,0,0,1,0,182)"/>
<path style=" stroke:none;fill-rule:nonzero;fill:rgb(39.99939%,39.99939%,39.99939%);fill-opacity:0.3;" d="M 24.585938 226.972656 L 40.929688 224.773438 L 43.375 239.992188 L 26.496094 242.019531 Z M 24.585938 226.972656 "/>
<g clip-path="url(#clip1)" clip-rule="nonzero">
<path style=" stroke:none;fill-rule:nonzero;fill:rgb(39.99939%,39.99939%,39.99939%);fill-opacity:0.3;" d="M 3.542969 342.1875 L 51.851562 354.609375 L 6.957031 476.503906 L -31.488281 465.601562 Z M 3.542969 342.1875 "/>
</g>
<path style=" stroke:none;fill-rule:nonzero;fill:rgb(39.99939%,39.99939%,39.99939%);fill-opacity:0.3;" d="M -107.925781 237.117188 L 18.199219 270.109375 L -6.414062 357.277344 L -135.519531 323.152344 Z M -107.925781 237.117188 "/>
<path style=" stroke:none;fill-rule:nonzero;fill:rgb(39.99939%,39.99939%,39.99939%);fill-opacity:0.3;" d="M -35.804688 142.09375 L 3.523438 151.292969 L -24.046875 251.757812 L -64.429688 241.976562 Z M -35.804688 142.09375 "/>
<path style=" stroke:none;fill-rule:nonzero;fill:rgb(39.99939%,39.99939%,39.99939%);fill-opacity:0.3;" d="M 93.011719 37.035156 L 218.507812 70.695312 L 138.136719 247.871094 L 144.667969 184.207031 L 148.5625 124.679688 L 148 102.640625 L 145.25 90.195312 L 141.121094 80.859375 L 136.171875 71.527344 L 128.199219 61.414062 L 113.628906 48.191406 Z M 93.011719 37.035156 "/>
<g clip-path="url(#clip2)" clip-rule="nonzero">
<path style=" stroke:none;fill-rule:nonzero;fill:rgb(39.99939%,39.99939%,39.99939%);fill-opacity:0.3;" d="M 61.367188 359.53125 L 89.894531 366.226562 L 35.527344 484.53125 L 15.953125 480 Z M 61.367188 359.53125 "/>
</g>
<path style=" stroke:none;fill-rule:nonzero;fill:rgb(39.99939%,39.99939%,39.99939%);fill-opacity:0.3;" d="M 17.480469 294.203125 L 109.015625 316.933594 L 89.347656 359.285156 L 5.984375 337.390625 Z M 17.480469 294.203125 "/>
<path style=" stroke:none;fill-rule:nonzero;fill:rgb(39.99939%,39.99939%,39.99939%);fill-opacity:0.3;" d="M 16.515625 161.476562 L 32.953125 160.011719 L 34.636719 175.320312 L 17.671875 176.589844 Z M 16.515625 161.476562 "/>
<path style=" stroke:none;fill-rule:nonzero;fill:rgb(39.99939%,39.99939%,39.99939%);fill-opacity:0.3;" d="M 19.269531 182.152344 L 35.707031 180.683594 L 37.394531 195.992188 L 20.429688 197.261719 Z M 19.269531 182.152344 "/>
<path style=" stroke:none;fill-rule:nonzero;fill:rgb(39.99939%,39.99939%,39.99939%);fill-opacity:0.3;" d="M 22.8125 201.457031 L 39.253906 200.058594 L 40.867188 215.375 L 23.898438 216.574219 Z M 22.8125 201.457031 "/>
<path style=" stroke:none;fill-rule:nonzero;fill:rgb(39.99939%,39.99939%,39.99939%);fill-opacity:0.3;" d="M 72.902344 73.960938 L 85.394531 77.5 L 84.0625 83.824219 L 70.695312 80.226562 Z M 72.902344 73.960938 "/>
<path style=" stroke:none;fill-rule:nonzero;fill:rgb(39.99939%,39.99939%,39.99939%);fill-opacity:0.3;" d="M 35.890625 128.042969 L 32.957031 141.582031 L 16.433594 137.699219 L 19.746094 125.039062 Z M 35.890625 128.042969 "/>
<path style=" stroke:none;fill-rule:nonzero;fill:rgb(39.99939%,39.99939%,39.99939%);fill-opacity:0.3;" d="M 16.460938 140.605469 L 32.546875 144.144531 L 29.011719 159.160156 L 12.488281 155.277344 Z M 16.460938 140.605469 "/>
<path style=" stroke:none;fill-rule:nonzero;fill:rgb(39.99939%,39.99939%,39.99939%);fill-opacity:0.3;" d="M 18.171875 123.761719 L 24.710938 103.882812 L 27.800781 102.195312 L 25.757812 99.078125 L 21.085938 100.765625 L 17.460938 98.152344 L 14.632812 100.214844 L 18.46875 102.816406 L 6.949219 146.632812 L -29.992188 138.8125 L -19.863281 92.972656 L -22.355469 92.777344 L -24.894531 92.578125 L -26.875 99.894531 L -69.960938 89.824219 L -63.40625 64.964844 L -42.742188 70.0625 L -41.695312 67.425781 L -40.949219 65.542969 L -61.613281 60.445312 L -46.753906 11.347656 L -4.941406 21.199219 L -23.472656 66.304688 L -21.4375 67.199219 L -19.394531 68.097656 L -0.871094 23.484375 L 77.160156 45.769531 L 68.9375 80.167969 L 68.542969 83.339844 L 67.445312 92.894531 L 65.210938 107.039062 L 62.289062 116.492188 L 56.59375 131 L 44.652344 128.964844 Z M 18.171875 123.761719 "/>
<path style=" stroke:none;fill-rule:nonzero;fill:rgb(39.99939%,39.99939%,39.99939%);fill-opacity:0.3;" d="M 18.171875 123.765625 L 44.652344 128.964844 L 56.589844 131.003906 L 53.304688 138.257812 L 50.234375 146.757812 L 47.171875 160.441406 L 45.429688 175.277344 L 46.105469 195.808594 L 48.09375 207.214844 L 50.085938 221.59375 L 54.53125 239.324219 L 59.398438 247.078125 L 70.351562 257.707031 L 78.570312 268.621094 L 80.398438 274.9375 L 80.15625 284.878906 L 77.992188 303.941406 L 19.015625 289.214844 L 24.542969 265.992188 L -17.976562 255.191406 Z M 18.171875 123.765625 "/>
<path style=" stroke:none;fill-rule:nonzero;fill:rgb(39.99939%,39.99939%,39.99939%);fill-opacity:0.3;" d="M 79.105469 47.835938 L 90.882812 51.429688 L 89.585938 57.59375 L 76.894531 54.097656 Z M 79.105469 47.835938 "/>
<path style=" stroke:none;fill-rule:nonzero;fill:rgb(39.99939%,39.99939%,39.99939%);fill-opacity:0.3;" d="M 77.390625 60.589844 L 88.304688 63.683594 L 86.96875 70.027344 L 75.179688 66.851562 Z M 77.390625 60.589844 "/>
<path style=" stroke:none;fill-rule:nonzero;fill:rgb(39.99939%,39.99939%,39.99939%);fill-opacity:0.3;" d="M 89.167969 303.425781 L 84.332031 302.367188 L 86.683594 286.609375 L 89.832031 286.257812 Z M 89.167969 303.425781 "/>
<path style=" stroke:none;fill-rule:nonzero;fill:rgb(39.99939%,39.99939%,39.99939%);fill-opacity:0.3;" d="M 74.003906 110.167969 L 81.21875 113.121094 L 59.859375 163.730469 L 52.53125 160.1875 Z M 74.003906 110.167969 "/>
<path style=" stroke:none;fill-rule:nonzero;fill:rgb(39.99939%,39.99939%,39.99939%);fill-opacity:0.3;" d="M 62.675781 214.832031 L 86.457031 212.785156 L 87.417969 222.285156 L 63.5 224.589844 Z M 62.675781 214.832031 "/>
<path style=" stroke:none;fill-rule:nonzero;fill:rgb(39.99939%,39.99939%,39.99939%);fill-opacity:0.3;" d="M 97.925781 211.292969 L 117.085938 209.246094 L 118.046875 217.972656 L 98.882812 219.765625 Z M 97.925781 211.292969 "/>
<path style=" stroke:none;fill-rule:nonzero;fill:rgb(39.99939%,39.99939%,39.99939%);fill-opacity:0.3;" d="M 58.136719 173.207031 L 62.578125 211.574219 L 55.648438 212.5625 L 51.429688 173.382812 Z M 58.136719 173.207031 "/>
<path style=" stroke:none;fill-rule:nonzero;fill:rgb(39.99939%,39.99939%,39.99939%);fill-opacity:0.3;" d="M 98.117188 118.386719 L 83.015625 159.851562 L 75.453125 157.375 L 90.257812 116.1875 Z M 98.117188 118.386719 "/>
<path style=" stroke:none;fill-rule:nonzero;fill:rgb(39.99939%,39.99939%,39.99939%);fill-opacity:0.3;" d="M 78.078125 165.617188 L 82.765625 209.570312 L 75.496094 210.390625 L 70.511719 165.890625 Z M 78.078125 165.617188 "/>
<path style=" stroke:none;fill-rule:nonzero;fill:rgb(39.99939%,39.99939%,39.99939%);fill-opacity:0.3;" d="M 109.867188 143.601562 L 108.375 201.144531 L 99.851562 200.511719 L 101.1875 143.558594 Z M 109.867188 143.601562 "/>
<path style=" stroke:none;fill-rule:nonzero;fill:rgb(39.99939%,39.99939%,39.99939%);fill-opacity:0.3;" d="M 127.203125 171.1875 L 125.609375 208.734375 L 117.722656 208.21875 L 119.296875 170.757812 Z M 127.203125 171.1875 "/>
<path style=" stroke:none;fill-rule:nonzero;fill:rgb(39.99939%,39.99939%,39.99939%);fill-opacity:0.3;" d="M 131.160156 108.078125 L 129.507812 162.316406 L 120.613281 161.859375 L 123.464844 108.300781 Z M 131.160156 108.078125 "/>
<path style=" stroke:none;fill-rule:nonzero;fill:rgb(39.99939%,39.99939%,39.99939%);fill-opacity:0.3;" d="M 78.925781 250.953125 L 102.636719 249.75 L 103.558594 260.375 L 80.121094 261.71875 Z M 78.925781 250.953125 "/>
<path style=" stroke:none;fill-rule:nonzero;fill:rgb(39.99939%,39.99939%,39.99939%);fill-opacity:0.3;" d="M 85.394531 77.5 L 95.152344 80.265625 L 93.253906 86.296875 L 84.0625 83.824219 Z M 85.394531 77.5 "/>
<path style=" stroke:none;fill-rule:nonzero;fill:rgb(39.99939%,39.99939%,39.99939%);fill-opacity:0.3;" d="M 103.492188 95.648438 L 111.894531 95.882812 L 110.640625 137.042969 L 102.179688 136.804688 Z M 103.492188 95.648438 "/>
<path style=" stroke:none;fill-rule:nonzero;fill:rgb(39.99939%,39.99939%,39.99939%);fill-opacity:0.3;" d="M 113.742188 63.328125 L 128.320312 82.289062 L 123.058594 85.546875 L 108.042969 67.148438 Z M 113.742188 63.328125 "/>
<path style=" stroke:none;fill-rule:nonzero;fill:rgb(39.99939%,39.99939%,39.99939%);fill-opacity:0.3;" d="M 90.882812 51.429688 L 102.71875 55.039062 L 100.507812 60.601562 L 89.585938 57.59375 Z M 90.882812 51.429688 "/>
<path style=" stroke:none;fill-rule:nonzero;fill:rgb(39.99939%,39.99939%,39.99939%);fill-opacity:0.3;" d="M 88.304688 63.683594 L 99.640625 66.894531 L 97.742188 72.925781 L 86.96875 70.027344 Z M 88.304688 63.683594 "/>
<path style=" stroke:none;fill-rule:nonzero;fill:rgb(39.99939%,39.99939%,39.99939%);fill-opacity:0.3;" d="M 122.824219 282.558594 L 112.746094 308.570312 L 89.167969 303.425781 L 89.832031 286.257812 Z M 122.824219 282.558594 "/>
<path style=" stroke:none;fill-rule:nonzero;fill:rgb(39.99939%,39.99939%,39.99939%);fill-opacity:0.3;" d="M 109.410156 229.375 L 110.5 238.597656 L 69.265625 241.921875 L 69.257812 232.953125 Z M 109.410156 229.375 "/>
<path style=" stroke:none;fill-rule:nonzero;fill:rgb(39.99939%,39.99939%,39.99939%);fill-opacity:0.3;" d="M 14.511719 -171.710938 L 59.375 -157.296875 L -1.433594 2.160156 L -47.566406 -9.859375 Z M 14.511719 -171.710938 "/>
<path style=" stroke:none;fill-rule:nonzero;fill:rgb(39.99939%,39.99939%,39.99939%);fill-opacity:0.3;" d="M 242.859375 -97.25 L 280.933594 -84.660156 L 222.902344 61.347656 L 186.582031 51.773438 Z M 242.859375 -97.25 "/>
<path style=" stroke:none;fill-rule:nonzero;fill:rgb(39.99939%,39.99939%,39.99939%);fill-opacity:0.3;" d="M 65.847656 -155.003906 L 105.230469 -142.355469 L 45.578125 14.179688 L 5.957031 3.835938 Z M 65.847656 -155.003906 "/>
<path style=" stroke:none;fill-rule:nonzero;fill:rgb(39.99939%,39.99939%,39.99939%);fill-opacity:0.3;" d="M 197.429688 -111.882812 L 236.871094 -99.34375 L 179.742188 50.117188 L 140.550781 39.800781 Z M 197.429688 -111.882812 "/>
<path style=" stroke:none;fill-rule:nonzero;fill:rgb(39.99939%,39.99939%,39.99939%);fill-opacity:0.3;" d="M 153.820312 -126.085938 L 191.253906 -113.75 L 133.628906 37.996094 L 95.078125 27.902344 Z M 153.820312 -126.085938 "/>
<path style=" stroke:none;fill-rule:nonzero;fill:rgb(39.99939%,39.99939%,39.99939%);fill-opacity:0.3;" d="M 110.414062 -140.671875 L 147.566406 -128.5 L 88.191406 25.75 L 51.675781 16.125 Z M 110.414062 -140.671875 "/>
<g clip-path="url(#clip3)" clip-rule="nonzero">
<path style=" stroke:none;fill-rule:nonzero;fill:rgb(39.99939%,39.99939%,39.99939%);fill-opacity:0.3;" d="M 359.355469 -186.953125 L 455.925781 -124.4375 L 380.035156 106.941406 L 259.996094 71.160156 Z M 359.355469 -186.953125 "/>
</g>
<g clip-path="url(#clip4)" clip-rule="nonzero">
<path style=" stroke:none;fill-rule:nonzero;fill:rgb(39.99939%,39.99939%,39.99939%);fill-opacity:0.3;" d="M 260.257812 83.824219 L 317.5625 100.96875 L 379.847656 119.121094 L 426.46875 132.230469 L 467.039062 142.320312 L 398.144531 347.246094 L 170.210938 280.105469 Z M 260.257812 83.824219 "/>
</g>
<g clip-path="url(#clip5)" clip-rule="nonzero">
<path style=" stroke:none;fill-rule:nonzero;fill:rgb(39.99939%,39.99939%,39.99939%);fill-opacity:0.3;" d="M 135.503906 344.96875 L 158.96875 293.398438 L 391.421875 361.667969 L 331.074219 556.964844 L 327.847656 564.859375 L 324.617188 567.914062 L 320.308594 568.167969 L 72.03125 493.726562 L 114.289062 391.355469 Z M 135.503906 344.96875 "/>
</g>
<path style="fill-rule:nonzero;fill:rgb(39.99939%,39.99939%,39.99939%);fill-opacity:1;stroke-width:0.03;stroke-linecap:square;stroke-linejoin:miter;stroke:rgb(39.99939%,39.99939%,39.99939%);stroke-opacity:1;stroke-miterlimit:3.239307;" d="M 148.003906 123.167969 L 155.21875 126.121094 L 133.859375 176.730469 L 126.53125 173.1875 Z M 148.003906 123.167969 " transform="matrix(1,0,0,1,-74,-13)"/>
<path style="fill-rule:nonzero;fill:rgb(39.99939%,39.99939%,39.99939%);fill-opacity:1;stroke-width:0.03;stroke-linecap:square;stroke-linejoin:miter;stroke:rgb(39.99939%,39.99939%,39.99939%);stroke-opacity:1;stroke-miterlimit:3.239307;" d="M 136.675781 227.832031 L 160.457031 225.785156 L 161.417969 235.285156 L 137.5 237.589844 Z M 136.675781 227.832031 " transform="matrix(1,0,0,1,-74,-13)"/>
<path style="fill-rule:nonzero;fill:rgb(39.99939%,39.99939%,39.99939%);fill-opacity:1;stroke-width:0.03;stroke-linecap:square;stroke-linejoin:miter;stroke:rgb(39.99939%,39.99939%,39.99939%);stroke-opacity:1;stroke-miterlimit:3.239307;" d="M 171.925781 224.292969 L 191.085938 222.246094 L 192.046875 230.972656 L 172.882812 232.765625 Z M 171.925781 224.292969 " transform="matrix(1,0,0,1,-74,-13)"/>
<path style="fill-rule:nonzero;fill:rgb(39.99939%,39.99939%,39.99939%);fill-opacity:1;stroke-width:0.03;stroke-linecap:square;stroke-linejoin:miter;stroke:rgb(39.99939%,39.99939%,39.99939%);stroke-opacity:1;stroke-miterlimit:3.239307;" d="M 132.136719 186.207031 L 136.578125 224.574219 L 129.648438 225.5625 L 125.429688 186.382812 Z M 132.136719 186.207031 " transform="matrix(1,0,0,1,-74,-13)"/>
<path style="fill-rule:nonzero;fill:rgb(39.99939%,39.99939%,39.99939%);fill-opacity:1;stroke-width:0.03;stroke-linecap:square;stroke-linejoin:miter;stroke:rgb(39.99939%,39.99939%,39.99939%);stroke-opacity:1;stroke-miterlimit:3.239307;" d="M 172.117188 131.386719 L 157.015625 172.851562 L 149.453125 170.375 L 164.257812 129.1875 Z M 172.117188 131.386719 " transform="matrix(1,0,0,1,-74,-13)"/>
<path style="fill-rule:nonzero;fill:rgb(39.99939%,39.99939%,39.99939%);fill-opacity:1;stroke-width:0.03;stroke-linecap:square;stroke-linejoin:miter;stroke:rgb(39.99939%,39.99939%,39.99939%);stroke-opacity:1;stroke-miterlimit:3.239307;" d="M 152.078125 178.617188 L 156.765625 222.570312 L 149.496094 223.390625 L 144.511719 178.890625 Z M 152.078125 178.617188 " transform="matrix(1,0,0,1,-74,-13)"/>
<path style="fill-rule:nonzero;fill:rgb(39.99939%,39.99939%,39.99939%);fill-opacity:1;stroke-width:0.03;stroke-linecap:square;stroke-linejoin:miter;stroke:rgb(39.99939%,39.99939%,39.99939%);stroke-opacity:1;stroke-miterlimit:3.239307;" d="M 183.867188 156.601562 L 182.375 214.144531 L 173.851562 213.511719 L 175.1875 156.558594 Z M 183.867188 156.601562 " transform="matrix(1,0,0,1,-74,-13)"/>
<path style="fill-rule:nonzero;fill:rgb(39.99939%,39.99939%,39.99939%);fill-opacity:1;stroke-width:0.03;stroke-linecap:square;stroke-linejoin:miter;stroke:rgb(39.99939%,39.99939%,39.99939%);stroke-opacity:1;stroke-miterlimit:3.239307;" d="M 201.203125 184.1875 L 199.609375 221.734375 L 191.722656 221.21875 L 193.296875 183.757812 Z M 201.203125 184.1875 " transform="matrix(1,0,0,1,-74,-13)"/>
<path style="fill-rule:nonzero;fill:rgb(39.99939%,39.99939%,39.99939%);fill-opacity:1;stroke-width:0.03;stroke-linecap:square;stroke-linejoin:miter;stroke:rgb(39.99939%,39.99939%,39.99939%);stroke-opacity:1;stroke-miterlimit:3.239307;" d="M 205.160156 121.078125 L 203.507812 175.316406 L 194.613281 174.859375 L 197.464844 121.300781 Z M 205.160156 121.078125 " transform="matrix(1,0,0,1,-74,-13)"/>
<path style="fill-rule:nonzero;fill:rgb(39.99939%,39.99939%,39.99939%);fill-opacity:1;stroke-width:0.03;stroke-linecap:square;stroke-linejoin:miter;stroke:rgb(39.99939%,39.99939%,39.99939%);stroke-opacity:1;stroke-miterlimit:3.239307;" d="M 152.925781 263.953125 L 176.636719 262.75 L 177.558594 273.375 L 154.121094 274.71875 Z M 152.925781 263.953125 " transform="matrix(1,0,0,1,-74,-13)"/>
<path style="fill-rule:nonzero;fill:rgb(39.99939%,39.99939%,39.99939%);fill-opacity:1;stroke-width:0.03;stroke-linecap:square;stroke-linejoin:miter;stroke:rgb(39.99939%,39.99939%,39.99939%);stroke-opacity:1;stroke-miterlimit:3.239307;" d="M 159.394531 90.5 L 169.152344 93.265625 L 167.253906 99.296875 L 158.0625 96.824219 Z M 159.394531 90.5 " transform="matrix(1,0,0,1,-74,-13)"/>
<path style="fill-rule:nonzero;fill:rgb(39.99939%,39.99939%,39.99939%);fill-opacity:1;stroke-width:0.03;stroke-linecap:square;stroke-linejoin:miter;stroke:rgb(39.99939%,39.99939%,39.99939%);stroke-opacity:1;stroke-miterlimit:3.239307;" d="M 177.492188 108.648438 L 185.894531 108.882812 L 184.640625 150.042969 L 176.179688 149.804688 Z M 177.492188 108.648438 " transform="matrix(1,0,0,1,-74,-13)"/>
<path style="fill-rule:nonzero;fill:rgb(39.99939%,39.99939%,39.99939%);fill-opacity:1;stroke-width:0.03;stroke-linecap:square;stroke-linejoin:miter;stroke:rgb(39.99939%,39.99939%,39.99939%);stroke-opacity:1;stroke-miterlimit:3.239307;" d="M 187.742188 76.328125 L 202.320312 95.289062 L 197.058594 98.546875 L 182.042969 80.148438 Z M 187.742188 76.328125 " transform="matrix(1,0,0,1,-74,-13)"/>
<path style="fill-rule:nonzero;fill:rgb(39.99939%,39.99939%,39.99939%);fill-opacity:1;stroke-width:0.03;stroke-linecap:square;stroke-linejoin:miter;stroke:rgb(39.99939%,39.99939%,39.99939%);stroke-opacity:1;stroke-miterlimit:3.239307;" d="M 164.882812 64.429688 L 176.71875 68.039062 L 174.507812 73.601562 L 163.585938 70.59375 Z M 164.882812 64.429688 " transform="matrix(1,0,0,1,-74,-13)"/>
<path style="fill-rule:nonzero;fill:rgb(39.99939%,39.99939%,39.99939%);fill-opacity:1;stroke-width:0.03;stroke-linecap:square;stroke-linejoin:miter;stroke:rgb(39.99939%,39.99939%,39.99939%);stroke-opacity:1;stroke-miterlimit:3.239307;" d="M 162.304688 76.683594 L 173.640625 79.894531 L 171.742188 85.925781 L 160.96875 83.027344 Z M 162.304688 76.683594 " transform="matrix(1,0,0,1,-74,-13)"/>
<path style="fill-rule:nonzero;fill:rgb(39.99939%,39.99939%,39.99939%);fill-opacity:1;stroke-width:0.03;stroke-linecap:square;stroke-linejoin:miter;stroke:rgb(39.99939%,39.99939%,39.99939%);stroke-opacity:1;stroke-miterlimit:3.239307;" d="M 196.824219 295.558594 L 186.746094 321.570312 L 163.167969 316.425781 L 163.832031 299.257812 Z M 196.824219 295.558594 " transform="matrix(1,0,0,1,-74,-13)"/>
<path style="fill-rule:nonzero;fill:rgb(39.99939%,39.99939%,39.99939%);fill-opacity:1;stroke-width:0.03;stroke-linecap:square;stroke-linejoin:miter;stroke:rgb(39.99939%,39.99939%,39.99939%);stroke-opacity:1;stroke-miterlimit:3.239307;" d="M 183.410156 242.375 L 184.5 251.597656 L 143.265625 254.921875 L 143.257812 245.953125 Z M 183.410156 242.375 " transform="matrix(1,0,0,1,-74,-13)"/>
<path style=" stroke:none;fill-rule:evenodd;fill:rgb(85.096741%,85.096741%,81.959534%);fill-opacity:0.7;" d="M 143.308594 195 C 143.308594 185.105469 139.378906 175.617188 132.378906 168.621094 C 125.382812 161.621094 115.894531 157.691406 106 157.691406 C 96.105469 157.691406 86.617188 161.621094 79.621094 168.621094 C 72.621094 175.617188 68.691406 185.105469 68.691406 195 C 68.691406 204.894531 72.621094 214.382812 79.621094 221.378906 C 86.617188 228.378906 96.105469 232.308594 106 232.308594 C 115.894531 232.308594 125.382812 228.378906 132.378906 221.378906 C 139.378906 214.382812 143.308594 204.894531 143.308594 195 Z M 143.308594 195 "/>
<g clip-path="url(#clip6)" clip-rule="nonzero">
<path style=" stroke:none;fill-rule:evenodd;fill:rgb(85.096741%,85.096741%,81.959534%);fill-opacity:0.7;" d="M 434.308594 149 C 434.308594 139.105469 430.378906 129.617188 423.378906 122.621094 C 416.382812 115.621094 406.894531 111.691406 397 111.691406 C 387.105469 111.691406 377.617188 115.621094 370.621094 122.621094 C 363.621094 129.617188 359.691406 139.105469 359.691406 149 C 359.691406 158.894531 363.621094 168.382812 370.621094 175.378906 C 377.617188 182.378906 387.105469 186.308594 397 186.308594 C 406.894531 186.308594 416.382812 182.378906 423.378906 175.378906 C 430.378906 168.382812 434.308594 158.894531 434.308594 149 Z M 434.308594 149 "/>
</g>
<g clip-path="url(#clip7)" clip-rule="nonzero">
<path style=" stroke:none;fill-rule:evenodd;fill:rgb(85.096741%,85.096741%,81.959534%);fill-opacity:0.7;" d="M 415.308594 173 C 415.308594 163.105469 411.378906 153.617188 404.378906 146.621094 C 397.382812 139.621094 387.894531 135.691406 378 135.691406 C 368.105469 135.691406 358.617188 139.621094 351.621094 146.621094 C 344.621094 153.617188 340.691406 163.105469 340.691406 173 C 340.691406 182.894531 344.621094 192.382812 351.621094 199.378906 C 358.617188 206.378906 368.105469 210.308594 378 210.308594 C 387.894531 210.308594 397.382812 206.378906 404.378906 199.378906 C 411.378906 192.382812 415.308594 182.894531 415.308594 173 Z M 415.308594 173 "/>
</g>
</g>
</svg>
