<?xml version="1.0" encoding="UTF-8"?>
<svg xmlns="http://www.w3.org/2000/svg" xmlns:xlink="http://www.w3.org/1999/xlink" width="361pt" height="361pt" viewBox="0 0 361 361" version="1.1">
<defs>
<clipPath id="clip1">
  <path d="M 155 322 L 201 322 L 201 360 L 155 360 Z M 155 322 "/>
</clipPath>
<clipPath id="clip2">
  <path d="M 337 108 L 360 108 L 360 142 L 337 142 Z M 337 108 "/>
</clipPath>
<clipPath id="clip3">
  <path d="M 351 35 L 360 35 L 360 130 L 351 130 Z M 351 35 "/>
</clipPath>
<clipPath id="clip4">
  <path d="M 196 0 L 360 0 L 360 106 L 196 106 Z M 196 0 "/>
</clipPath>
<clipPath id="clip5">
  <path d="M 357 83 L 360 83 L 360 204 L 357 204 Z M 357 83 "/>
</clipPath>
<clipPath id="clip6">
  <path d="M 349 144 L 360 144 L 360 160 L 349 160 Z M 349 144 "/>
</clipPath>
<clipPath id="clip7">
  <path d="M 334 158 L 360 158 L 360 229 L 334 229 Z M 334 158 "/>
</clipPath>
<clipPath id="clip8">
  <path d="M 332 0 L 360 0 L 360 31 L 332 31 Z M 332 0 "/>
</clipPath>
<clipPath id="clip9">
  <path d="M 330 0 L 360 0 L 360 34 L 330 34 Z M 330 0 "/>
</clipPath>
<clipPath id="clip10">
  <path d="M 133 355 L 219 355 L 219 360 L 133 360 Z M 133 355 "/>
</clipPath>
<clipPath id="clip11">
  <path d="M 150 354 L 331 354 L 331 360 L 150 360 Z M 150 354 "/>
</clipPath>
<clipPath id="clip12">
  <path d="M 317 222 L 360 222 L 360 327 L 317 327 Z M 317 222 "/>
</clipPath>
<clipPath id="clip13">
  <path d="M 351 327 L 360 327 L 360 330 L 351 330 Z M 351 327 "/>
</clipPath>
<clipPath id="clip14">
  <path d="M 347 327 L 360 327 L 360 360 L 347 360 Z M 347 327 "/>
</clipPath>
<clipPath id="clip15">
  <path d="M 331 326 L 347 326 L 347 360 L 331 360 Z M 331 326 "/>
</clipPath>
<clipPath id="clip16">
  <path d="M 324 341 L 331 341 L 331 360 L 324 360 Z M 324 341 "/>
</clipPath>
<clipPath id="clip17">
  <path d="M 201 302 L 330 302 L 330 360 L 201 360 Z M 201 302 "/>
</clipPath>
<clipPath id="clip18">
  <path d="M 108 358 L 176 358 L 176 360 L 108 360 Z M 108 358 "/>
</clipPath>
<clipPath id="clip19">
  <path d="M 80 338 L 150 338 L 150 360 L 80 360 Z M 80 338 "/>
</clipPath>
<clipPath id="clip20">
  <path d="M 54 316 L 122 316 L 122 360 L 54 360 Z M 54 316 "/>
</clipPath>
<clipPath id="clip21">
  <path d="M 27 295 L 95 295 L 95 360 L 27 360 Z M 27 295 "/>
</clipPath>
<clipPath id="clip22">
  <path d="M 0 352 L 45 352 L 45 360 L 0 360 Z M 0 352 "/>
</clipPath>
<clipPath id="clip23">
  <path d="M 0 331 L 19 331 L 19 360 L 0 360 Z M 0 331 "/>
</clipPath>
</defs>
<g id="surface1568">
<path style="fill-rule:nonzero;fill:rgb(0%,0%,0%);fill-opacity:1;stroke-width:0.03;stroke-linecap:square;stroke-linejoin:miter;stroke:rgb(0%,0%,0%);stroke-opacity:1;stroke-miterlimit:10;" d="M 0 178 L 360 178 L 360 -182 L 0 -182 Z M 0 178 " transform="matrix(1,0,0,1,0,182)"/>
<path style=" stroke:none;fill-rule:nonzero;fill:rgb(39.99939%,39.99939%,39.99939%);fill-opacity:0.3;" d="M 130.882812 -31.132812 L 147.703125 -77.570312 L 199.03125 -48.566406 L 194.960938 -37.574219 L 195.628906 -37.207031 L 196.292969 -36.839844 L 200.25 -47.832031 L 214.375 -39.28125 L 211.390625 -32.226562 L 211.886719 -32.175781 L 212.386719 -32.125 L 215.152344 -38.863281 L 231.585938 -29.726562 L 224.613281 -10.570312 L 222.753906 -8.320312 L 220.894531 -6.230469 L 218.191406 -4.222656 L 215.230469 -2.851562 L 210.40625 -0.839844 L 203.722656 1.046875 L 204.027344 -0.519531 L 204.828125 -3.234375 L 208.914062 -25.132812 L 183.933594 -31.277344 L 183.839844 -30.9375 L 177.511719 -32.605469 L 172.128906 -14.148438 L 169.589844 -4.976562 L 197.699219 2.25 L 190.691406 3.921875 L 184.375 5.882812 L 161.679688 -0.195312 L 162.734375 -1.40625 L 165.960938 -0.25 L 166.679688 -1.609375 L 162.941406 -2.910156 L 159.320312 1.058594 L 182.472656 6.945312 L 157.207031 17.601562 L 153.902344 18.851562 L 143.148438 14.613281 L 142.980469 15.351562 L 142.8125 16.09375 L 152.320312 19.449219 L 146.476562 21.660156 L 133.863281 26.96875 L 132.832031 27.085938 L 127.828125 26.160156 L 128.933594 23.316406 L 130.941406 18.550781 L 132.15625 14.652344 L 133.707031 10.863281 L 139.351562 3.699219 L 144.011719 -2.628906 L 147.664062 -9.054688 L 149.875 -14.742188 L 149.980469 -18.320312 L 166.074219 -14.234375 L 166.183594 -14.867188 L 166.292969 -15.496094 L 149.535156 -20 L 148.421875 -22.421875 L 146.976562 -24.734375 L 145.644531 -26.835938 L 143.53125 -28.835938 L 140.203125 -30.410156 L 137.316406 -31.246094 L 134.320312 -31.453125 Z M 130.882812 -31.132812 "/>
<path style=" stroke:none;fill-rule:nonzero;fill:rgb(39.99939%,39.99939%,39.99939%);fill-opacity:0.3;" d="M 132.585938 39.695312 L 198.480469 57.375 L 194.621094 66.609375 L 189.570312 72.429688 L 181.746094 78.507812 L 172.335938 84.96875 L 167.246094 87.660156 L 165.234375 88.027344 L 156.160156 86.496094 L 148.351562 83.820312 L 141.808594 80.875 L 138.097656 78.519531 L 133.714844 71.765625 L 131.195312 65.550781 L 130.265625 61.875 L 128.039062 54.082031 L 127.316406 50.332031 L 126.441406 45.964844 L 126.269531 42.605469 L 127.246094 38.351562 Z M 132.585938 39.695312 "/>
<path style=" stroke:none;fill-rule:nonzero;fill:rgb(39.99939%,39.99939%,39.99939%);fill-opacity:0.3;" d="M 157.882812 33.316406 L 156.261719 31.648438 L 154.945312 29.929688 L 154.019531 28.046875 L 153.652344 26.324219 L 195.324219 8.488281 L 206.855469 3.097656 L 215.320312 1 L 220.058594 0.433594 L 217.273438 7.179688 L 203.023438 42.816406 L 202.167969 43.640625 L 201.070312 44.125 L 200.054688 44.367188 Z M 157.882812 33.316406 "/>
<path style=" stroke:none;fill-rule:nonzero;fill:rgb(39.99939%,39.99939%,39.99939%);fill-opacity:0.3;" d="M 104.394531 -3.769531 L 108.15625 -12.46875 L 110.261719 -15.808594 L 114.867188 -21 L 118.1875 -23.394531 L 124.808594 -21.019531 L 122.378906 -11.578125 L 122.832031 -11.371094 L 123.28125 -11.164062 L 125.625 -20.777344 L 129.773438 -29.34375 L 134.101562 -29.347656 L 139.316406 -28.828125 L 142.757812 -26.625 L 145.839844 -22.664062 L 147.539062 -18.890625 L 147.316406 -15.148438 L 145.546875 -9.671875 L 142.015625 -3.257812 L 138.359375 1.480469 L 134.640625 5.917969 L 131.707031 10.445312 L 130.269531 13.917969 L 128.613281 18.132812 L 127.066406 22.449219 L 126.273438 24.265625 L 125.386719 25.53125 L 107.519531 21.027344 L 106.40625 18.503906 L 105.089844 15.003906 L 104.53125 12.582031 L 103.96875 9.007812 L 103.632812 5.746094 L 105.335938 -0.65625 Z M 104.394531 -3.769531 "/>
<path style=" stroke:none;fill-rule:nonzero;fill:rgb(39.99939%,39.99939%,39.99939%);fill-opacity:0.3;" d="M 95.390625 106.378906 L 95.5 105.96875 L 106.917969 109.027344 L 109.878906 109.226562 L 114.867188 109 L 118.558594 110.191406 L 123.128906 113.03125 L 124.164062 113.777344 L 120.207031 111.683594 L 114.140625 110.167969 L 105.804688 110.546875 Z M 95.390625 106.378906 "/>
<path style=" stroke:none;fill-rule:nonzero;fill:rgb(39.99939%,39.99939%,39.99939%);fill-opacity:0.3;" d="M 128.410156 116.855469 L 129.054688 117.324219 L 131.71875 120.058594 L 133.996094 123.574219 L 138.484375 125.015625 L 134.609375 124.570312 L 130.816406 119.261719 Z M 128.410156 116.855469 "/>
<path style=" stroke:none;fill-rule:nonzero;fill:rgb(39.99939%,39.99939%,39.99939%);fill-opacity:0.3;" d="M -32.84375 -84.507812 L -28.242188 -81.039062 L -26.726562 -79.933594 L -29.042969 -74.445312 L -34.339844 -73.28125 L -37.191406 -71.566406 L -37.828125 -67.34375 L -38.035156 -64.957031 L -39.082031 -63.164062 L -39.917969 -60.777344 L -40.542969 -57.992188 L -40.746094 -53.417969 L -40.949219 -49.839844 L -39.796875 -50.535156 L -38.644531 -51.234375 L -38.027344 -60.976562 L -36.144531 -63.566406 L -35.503906 -71.347656 L -32.59375 -72.398438 L -29.972656 -72.953125 L -28.285156 -72.460938 L -25.136719 -69.8125 L -23.355469 -67.757812 L -21.882812 -64.179688 L -20.410156 -61 L -18.726562 -56.828125 L -17.738281 -54.273438 L -16.832031 -53.25 L -13.054688 -50.667969 L -10.535156 -49.480469 L -8.644531 -47.492188 L -8.015625 -46.5 L -8.644531 -45.503906 L -11.367188 -44.109375 L -14.71875 -40.921875 L -17.652344 -39.925781 L -21.007812 -39.125 L -25.410156 -36.929688 L -28.132812 -34.9375 L -29.179688 -33.546875 L -29.476562 -29.097656 L -30.199219 -27.671875 L -34.835938 -27.574219 L -39.992188 -28.589844 L -44.96875 -30.796875 L -45.355469 -30.269531 L -45.746094 -29.746094 L -40.714844 -27.3125 L -35.253906 -26.179688 L -30.25 -26.34375 L -28.753906 -26.785156 L -28.234375 -29 L -27.566406 -33.324219 L -25.859375 -34.996094 L -23.375 -36.226562 L -19.832031 -37.679688 L -16.15625 -38.617188 L -12.6875 -39.503906 L -8.421875 -37.351562 L -5.066406 -36.957031 L -0.71875 -36.476562 L 4.566406 -36.578125 L 4.589844 -37.21875 L 4.617188 -37.855469 L -0.871094 -37.757812 L -7.585938 -38.546875 L -10.761719 -39.9375 L -11.957031 -41.066406 L -10.351562 -43.035156 L -5.078125 -45.90625 L -5.1875 -48.160156 L -6.972656 -50.082031 L -12.847656 -53.253906 L -15.367188 -55.4375 L -16.839844 -57.425781 L -17.683594 -60.804688 L -19.542969 -65.515625 L -14.539062 -68.449219 L -15.03125 -69.386719 L -20.183594 -66.453125 L -21.644531 -68.4375 L -23.148438 -70.144531 L -27.140625 -74.117188 L -25.214844 -79.644531 L -23.476562 -78.921875 L -18.253906 -79.480469 L -17.964844 -78.652344 L -12.527344 -77.734375 L -12.476562 -78.285156 L -12.429688 -78.839844 L -17.480469 -80.125 L -22.238281 -80.765625 L -25.675781 -81.058594 L -31.203125 -85.109375 L -31.386719 -89.726562 L -27.355469 -92.691406 L -23.148438 -96.78125 L -17.78125 -100.023438 L -9.746094 -102.273438 L -3.675781 -103.210938 L 1.425781 -104.425781 L 2.945312 -96.957031 L 2.832031 -95.695312 L -1.402344 -95.777344 L -1.738281 -94.199219 L 1.847656 -94.15625 L 2.070312 -92.996094 L 4.074219 -92.523438 L 4.570312 -95.257812 L 3.035156 -105.460938 L 2.847656 -108.972656 L 7.191406 -109.570312 L 15.957031 -110.886719 L 20.089844 -111.726562 L 20.71875 -107.921875 L 21.976562 -103.882812 L 26.410156 -99.621094 L 27.226562 -96.402344 L 27.253906 -92.078125 L 13.480469 -89.789062 L 13.722656 -88.867188 L 13.96875 -87.945312 L 27.074219 -89.957031 L 27.867188 -76.121094 L 25.703125 -74.835938 L 23.84375 -69.355469 L 16.335938 -69.667969 L 14.925781 -64.960938 L 15.121094 -64.777344 L 15.320312 -64.589844 L 16.878906 -69.152344 L 24.25 -68.738281 L 26.242188 -74.6875 L 28.195312 -75.617188 L 36.644531 -72.519531 L 40.199219 -70.417969 L 42.855469 -65.726562 L 44.796875 -63.449219 L 46.429688 -61.023438 L 47.132812 -58.449219 L 45.824219 -52.046875 L 58.464844 -47.324219 L 58.007812 -42.699219 L 57.230469 -38.480469 L 57.230469 -36.441406 L 59.257812 -32.722656 L 61.175781 -31.085938 L 63.496094 -27.308594 L 65.984375 -22.609375 L 70.667969 -16.300781 L 73.453125 -12.46875 L 77.882812 -8.28125 L 82.695312 -4.296875 L 87.875 -1.820312 L 94.449219 0.328125 L 98.496094 2.359375 L 100.171875 4.707031 L 101.566406 9.5 L 102.316406 19.164062 L 70.394531 11.941406 L 72.839844 3.335938 L 71.988281 3.066406 L 71.140625 2.796875 L 68.316406 11.496094 L 41.703125 5.554688 L 33.554688 3.738281 L 23.183594 1.433594 L 17.976562 1.132812 L 0.628906 0.0507812 L -26.023438 -1.605469 L -91.28125 -5.667969 L -90.902344 -7.324219 L -78.394531 -34.234375 L -71.027344 -55.515625 L -65.035156 -70.589844 L -53.019531 -67.15625 L -52.507812 -68.949219 L -51.996094 -70.738281 L -64.375 -74.714844 L -60.480469 -83.933594 L -58.925781 -84.710938 L -33.257812 -89.421875 Z M -32.84375 -84.507812 "/>
<path style=" stroke:none;fill-rule:nonzero;fill:rgb(39.99939%,39.99939%,39.99939%);fill-opacity:0.3;" d="M 93.964844 94.296875 L 88.015625 90.910156 L 81.011719 88.757812 L 73.816406 87.660156 L 72.378906 87.664062 L 50.847656 59 L 57.265625 22.277344 L 99.347656 31.921875 L 95.921875 44.0625 L 92.75 49.066406 L 91.933594 53.824219 L 91.449219 60.265625 L 90.464844 68.652344 L 93.332031 71.84375 L 99.007812 76.96875 L 101.1875 79.308594 L 101.695312 82.988281 L 100.222656 90.507812 L 98.765625 94.046875 L 96.386719 96.597656 Z M 93.964844 94.296875 "/>
<path style=" stroke:none;fill-rule:nonzero;fill:rgb(39.99939%,39.99939%,39.99939%);fill-opacity:0.3;" d="M 73.199219 88.753906 L 73.792969 88.769531 L 80.910156 89.765625 L 87.664062 92.082031 L 93.503906 95.191406 L 95.671875 97.574219 L 94.441406 102.730469 L 93 105.324219 L 81.621094 99.972656 Z M 73.199219 88.753906 "/>
<path style=" stroke:none;fill-rule:nonzero;fill:rgb(39.99939%,39.99939%,39.99939%);fill-opacity:0.3;" d="M 96.300781 100.925781 L 101.089844 93.132812 L 102.210938 88.660156 L 103.621094 79.679688 L 116.984375 83.679688 L 117.09375 83.300781 L 117.238281 82.890625 L 103.621094 78.464844 L 92.050781 68.527344 L 92.214844 65.066406 L 94.132812 54.714844 L 95.488281 50.765625 L 97.820312 47.125 L 106.6875 50.6875 L 106.835938 50.175781 L 106.960938 49.675781 L 98.285156 46.003906 L 102.710938 32.636719 L 125.203125 38.371094 L 124.625 43.828125 L 124.53125 48.300781 L 125.574219 53.953125 L 127.136719 60.058594 L 128.953125 64.9375 L 130.363281 69.363281 L 133.054688 74.804688 L 136.070312 79.203125 L 139.402344 82 L 145.429688 85.382812 L 151.9375 87.488281 L 158.824219 89.070312 L 164.582031 90.320312 L 155.925781 100.316406 L 148.179688 111.296875 L 141.976562 123.992188 L 133.941406 120.847656 L 132.359375 118.09375 L 128.03125 114.5625 L 122.039062 109.9375 L 117.027344 107.289062 L 114.78125 106.65625 L 112.796875 106.890625 L 109.550781 107.953125 L 105.269531 107.230469 L 98.570312 105.191406 L 95.847656 103.679688 Z M 96.300781 100.925781 "/>
<path style=" stroke:none;fill-rule:nonzero;fill:rgb(39.99939%,39.99939%,39.99939%);fill-opacity:0.3;" d="M 6.980469 58.824219 L 7.105469 70.292969 L 12.789062 89.644531 L 13.410156 90.675781 L 12.1875 91.21875 L 3.851562 92.734375 L -6.003906 85.910156 L -16.617188 101.070312 L -25.710938 114.714844 L -34.429688 127.601562 L -41.25 137.835938 L -50.347656 150.722656 L -69.304688 181.34375 L -72.199219 179.457031 L -61.246094 162.480469 L -60.65625 161.449219 L -60.0625 160.421875 L -50.542969 145.578125 L -49.84375 143.273438 L -49.15625 141.125 L -22.554688 104.699219 L -1.171875 71.449219 L 4.492188 63.191406 Z M 6.980469 58.824219 "/>
<path style=" stroke:none;fill-rule:nonzero;fill:rgb(39.99939%,39.99939%,39.99939%);fill-opacity:0.3;" d="M -14.324219 219.332031 L 4.621094 193.632812 L 24.160156 205.742188 L 25.015625 204.695312 L 25.875 203.644531 L 6.632812 191.253906 L 11.441406 185.347656 L 28.808594 197.242188 L 30.644531 194.796875 L 13.417969 182.867188 L 20.289062 175.347656 L 38.125 188.289062 L 38.960938 187.257812 L 39.800781 186.226562 L 22.359375 173.46875 L 43.609375 153.960938 L 46.492188 150.644531 L 47.660156 150.648438 L 50.296875 152.144531 L 52.144531 155.265625 L 54.785156 159.636719 L 57.136719 165.160156 L 58.984375 170.742188 L 59.355469 175.046875 L 60.730469 182.167969 L 61.296875 192.761719 L 51.277344 218.519531 L 46 232.09375 L 44.464844 235.859375 L 36.082031 256.4375 L 34.867188 257.175781 L 33.207031 256.757812 L 9.628906 237.90625 L -4.140625 227.1875 Z M -14.324219 219.332031 "/>
<path style=" stroke:none;fill-rule:nonzero;fill:rgb(39.99939%,39.99939%,39.99939%);fill-opacity:0.3;" d="M 89.1875 115.449219 L 92.089844 113.53125 L 94.472656 109.820312 L 95.390625 106.378906 L 105.804688 110.546875 L 114.140625 110.167969 L 120.207031 111.683594 L 124.164062 113.777344 L 128.410156 116.855469 L 130.816406 119.261719 L 134.609375 124.570312 L 138.484375 125.015625 L 142.183594 126.207031 L 139.601562 131.871094 L 136.765625 136.441406 L 132.957031 144.1875 L 125.511719 156.382812 L 115.847656 170.875 L 110.933594 178.246094 L 99.839844 192.253906 L 67.082031 229.675781 L 58.925781 236.621094 L 56.492188 236.9375 L 53.726562 236 L 52.226562 234.132812 L 51.839844 231.496094 L 52.265625 228.421875 L 65.597656 195.992188 L 66.035156 192.742188 L 66.328125 189.453125 L 65.734375 179.136719 L 65.339844 170.59375 L 63.839844 162.734375 L 61.003906 157.507812 L 57.023438 150.578125 L 53.488281 146.582031 L 52.726562 145.320312 L 53.351562 143.648438 L 60.089844 131.683594 L 68.023438 139.777344 L 68.273438 139.019531 L 68.523438 138.257812 L 60.691406 130.636719 L 67.222656 121.625 L 68.222656 120.859375 L 69.847656 119.949219 L 75.070312 119.253906 L 80.039062 119.070312 L 84.742188 117.863281 L 85.863281 117.300781 L 86.472656 117.746094 Z M 89.1875 115.449219 "/>
<path style=" stroke:none;fill-rule:nonzero;fill:rgb(39.99939%,39.99939%,39.99939%);fill-opacity:0.3;" d="M -104.207031 50.539062 L -88.011719 51.070312 L -74.050781 51.195312 L -73.109375 66.476562 L -71.910156 66.3125 L -70.707031 66.148438 L -71.710938 51.035156 L -62.464844 50.984375 L -26.726562 50.796875 L 7.089844 50.617188 L 6.875 53.660156 L 5.109375 56.703125 L -2.289062 63.425781 L -6.378906 65.527344 L -10.355469 66.730469 L -13.710938 67.519531 L -17.523438 68.355469 L -57.742188 80.28125 L -57.265625 81.1875 L -56.789062 82.089844 L -44.441406 78.425781 L -42.714844 84.15625 L -41.152344 83.765625 L -42.667969 77.902344 L -9.027344 68.675781 L -20.878906 79.335938 L -34.5625 104.691406 L -60.800781 95.585938 L -57.714844 87.191406 L -58.933594 86.878906 L -60.148438 86.566406 L -62.242188 92.234375 L -70.320312 89.980469 L -70.707031 91.21875 L -71.089844 92.453125 L -63.195312 94.808594 L -68.679688 109.65625 L -91.019531 102.605469 L -84.191406 78.914062 L -86.695312 79.550781 L -89.195312 80.1875 L -94.941406 101.367188 L -110.257812 96.976562 L -106.886719 85.496094 L -109.707031 80.675781 Z M -104.207031 50.539062 "/>
<path style=" stroke:none;fill-rule:nonzero;fill:rgb(39.99939%,39.99939%,39.99939%);fill-opacity:0.3;" d="M 26.429688 117.601562 L 27.976562 118.539062 L 28.601562 122.875 L 28.730469 126.164062 L 29.628906 129.503906 L 31.074219 132.550781 L 33.074219 135.886719 L 35.457031 138.636719 L 37.257812 140.152344 L 39.636719 142.039062 L 42.851562 144.074219 L 44.007812 145.4375 L 44.894531 146.753906 L 44.820312 148.09375 L 42.566406 151.171875 L 30.097656 161.910156 L 17.570312 173.851562 L 11.414062 180.429688 L 3.847656 189.082031 L -4.699219 200.238281 L -17.066406 217.09375 L -38.628906 199.230469 L -25.890625 184.636719 L -15.90625 175.113281 L -9.054688 166.804688 L -2.128906 158.074219 L 5.289062 146.9375 L 20.414062 124.367188 L 24.390625 117.898438 Z M 26.429688 117.601562 "/>
<path style=" stroke:none;fill-rule:nonzero;fill:rgb(39.99939%,39.99939%,39.99939%);fill-opacity:0.3;" d="M 6.980469 58.753906 L 4.4375 63.148438 L -1.226562 71.40625 L -22.609375 104.65625 L -49.21875 141.085938 L -54.203125 139.6875 L -37.839844 114.414062 L -31.800781 103.953125 L -22.976562 86.847656 L -18.722656 80.484375 L -6.277344 69.050781 L -0.863281 64.113281 L 2.78125 60.753906 L 4.878906 58.757812 L 6.207031 58.230469 Z M 6.980469 58.753906 "/>
<path style=" stroke:none;fill-rule:nonzero;fill:rgb(39.99939%,39.99939%,39.99939%);fill-opacity:0.3;" d="M -43.382812 9.582031 L 11.445312 12.894531 L 8.808594 39.105469 L 8.667969 40.507812 L -7.179688 40.277344 L -7.324219 47.570312 L -8.195312 47.570312 L -44.839844 47.542969 Z M -43.382812 9.582031 "/>
<path style=" stroke:none;fill-rule:nonzero;fill:rgb(39.99939%,39.99939%,39.99939%);fill-opacity:0.3;" d="M 72.378906 87.664062 L 67.890625 87.675781 L 67.882812 88.164062 L 67.859375 88.644531 L 73.199219 88.753906 L 81.621094 99.972656 L 75.140625 109.484375 L 83.84375 115.828125 L 83.75 115.867188 L 77.410156 117.027344 L 70.238281 117.386719 L 67.992188 117.652344 L 66.214844 118.96875 L 63.921875 121.46875 L 58.476562 128.472656 L 48.667969 141.675781 L 47.746094 141.703125 L 45.332031 141.199219 L 37.992188 135.167969 L 33.820312 125.839844 L 32.21875 116.742188 L 32.28125 112.140625 L 26.929688 102.308594 L 21.484375 94.542969 L 15.738281 83.613281 L 13.953125 75.097656 L 13.242188 68.695312 L 18.917969 68.449219 L 18.898438 67.96875 L 18.886719 67.65625 L 13.199219 67.957031 L 13.117188 54.3125 L 22.371094 56.171875 L 24.554688 57.234375 L 38.050781 79.304688 L 48.703125 95.292969 L 49.28125 94.382812 L 49.796875 93.464844 L 37.632812 75.523438 L 43.570312 68.15625 L 43.109375 67.855469 L 42.625 67.53125 L 37.015625 74.203125 L 27.128906 57.652344 L 39.097656 58.621094 L 41.007812 58.683594 L 45.074219 64.652344 L 45.507812 64.207031 L 45.921875 63.804688 L 42.515625 58.734375 L 50.847656 59 Z M 72.378906 87.664062 "/>
<path style=" stroke:none;fill-rule:nonzero;fill:rgb(39.99939%,39.99939%,39.99939%);fill-opacity:0.3;" d="M 16.835938 53.484375 L 15.804688 53.296875 L 15.457031 52.816406 Z M 16.835938 53.484375 "/>
<path style=" stroke:none;fill-rule:nonzero;fill:rgb(39.99939%,39.99939%,39.99939%);fill-opacity:0.3;" d="M 11.929688 49.890625 L 11.496094 49.671875 L 12.824219 41.160156 Z M 11.929688 49.890625 "/>
<path style=" stroke:none;fill-rule:nonzero;fill:rgb(39.99939%,39.99939%,39.99939%);fill-opacity:0.3;" d="M -0.402344 88.34375 L -1.574219 84.714844 L 1.933594 83.746094 L 0.839844 79.570312 L 5.113281 78.265625 L 6.320312 82.414062 L 8.742188 81.699219 L 9.859375 85.621094 L 7.5625 86.230469 L 8.589844 89.308594 L 4.175781 90.628906 L 3.183594 87.496094 Z M -0.402344 88.34375 "/>
<path style=" stroke:none;fill-rule:nonzero;fill:rgb(39.99939%,39.99939%,39.99939%);fill-opacity:0.3;" d="M 180.523438 224.140625 L 199.15625 251.265625 L 192.777344 257.847656 L 177.6875 248.117188 L 159.199219 269.191406 L 194.664062 292.726562 L 187.199219 302.664062 L 174.964844 294.9375 L 174.011719 296.46875 L 185.398438 304.386719 L 174.902344 318.265625 L 156.074219 305.902344 L 155.441406 306.84375 L 154.804688 307.789062 L 162.875 313.320312 L 160.15625 316.988281 L 160.753906 317.390625 L 161.355469 317.796875 L 164.046875 314.089844 L 173.90625 320.332031 L 151.667969 350.066406 L 130.011719 332.378906 L 135.140625 326.414062 L 132.5 324.320312 L 129.855469 322.222656 L 124.582031 328.324219 L 103.960938 311.246094 L 114.273438 301.25 L 138.007812 315.964844 L 138.253906 315.621094 L 138.496094 315.269531 L 114.835938 300.695312 L 120.160156 292.375 L 118.570312 291.410156 L 118.632812 280.667969 L 118.3125 275.148438 L 122.867188 268.925781 L 150.089844 232.703125 L 152.613281 229.9375 L 157.4375 228.109375 L 161.675781 228.988281 L 172.722656 226.644531 Z M 180.523438 224.140625 "/>
<path style=" stroke:none;fill-rule:nonzero;fill:rgb(39.99939%,39.99939%,39.99939%);fill-opacity:0.3;" d="M 253.753906 215.574219 L 253.535156 213.308594 L 253.996094 215.152344 Z M 253.753906 215.574219 "/>
<path style=" stroke:none;fill-rule:nonzero;fill:rgb(39.99939%,39.99939%,39.99939%);fill-opacity:0.3;" d="M 216.777344 208.359375 L 217.089844 208.289062 L 229.574219 206.15625 L 238.703125 220.992188 L 227.507812 226.8125 L 216.691406 208.390625 Z M 216.777344 208.359375 "/>
<path style=" stroke:none;fill-rule:nonzero;fill:rgb(39.99939%,39.99939%,39.99939%);fill-opacity:0.3;" d="M 246.582031 203.472656 L 248.851562 212.949219 L 248.167969 216.21875 L 241.207031 219.808594 L 232.71875 205.617188 L 238.835938 204.539062 Z M 246.582031 203.472656 "/>
<path style=" stroke:none;fill-rule:nonzero;fill:rgb(39.99939%,39.99939%,39.99939%);fill-opacity:0.3;" d="M 229.730469 230.136719 L 248.933594 219.769531 L 248.933594 220.898438 L 234.925781 239.449219 Z M 229.730469 230.136719 "/>
<path style=" stroke:none;fill-rule:nonzero;fill:rgb(39.99939%,39.99939%,39.99939%);fill-opacity:0.3;" d="M 215.488281 237.425781 L 226.386719 231.984375 L 232.445312 242.25 L 224.46875 252.363281 Z M 215.488281 237.425781 "/>
<path style=" stroke:none;fill-rule:nonzero;fill:rgb(39.99939%,39.99939%,39.99939%);fill-opacity:0.3;" d="M 184.429688 223.511719 L 198.882812 216.039062 L 222.484375 255.671875 L 196.460938 289.640625 L 181.667969 280.285156 L 205.214844 253.730469 Z M 184.429688 223.511719 "/>
<path style=" stroke:none;fill-rule:nonzero;fill:rgb(39.99939%,39.99939%,39.99939%);fill-opacity:0.3;" d="M 163.5625 268.019531 L 177.542969 252.164062 L 191.617188 261.714844 L 178.019531 278.214844 Z M 163.5625 268.019531 "/>
<path style=" stroke:none;fill-rule:nonzero;fill:rgb(39.99939%,39.99939%,39.99939%);fill-opacity:0.3;" d="M 201.992188 214.394531 L 209.128906 211.191406 L 213.058594 209.734375 L 224.375 228.359375 L 213.550781 233.980469 Z M 201.992188 214.394531 "/>
<path style=" stroke:none;fill-rule:nonzero;fill:rgb(39.99939%,39.99939%,39.99939%);fill-opacity:0.3;" d="M 262.484375 335.515625 L 272.898438 313.84375 L 276.515625 304.285156 L 277.769531 302.136719 L 278.628906 302.324219 L 271.050781 320.136719 L 262.710938 335.675781 Z M 262.484375 335.515625 "/>
<g clip-path="url(#clip1)" clip-rule="nonzero">
<path style=" stroke:none;fill-rule:nonzero;fill:rgb(39.99939%,39.99939%,39.99939%);fill-opacity:0.3;" d="M 200.765625 346.296875 L 198.230469 352.578125 L 181.371094 371.398438 L 178.453125 371.324219 L 155.835938 352.960938 L 178.226562 322.121094 Z M 200.765625 346.296875 "/>
</g>
<path style=" stroke:none;fill-rule:nonzero;fill:rgb(39.99939%,39.99939%,39.99939%);fill-opacity:0.3;" d="M 232.984375 249.179688 L 249.347656 258.601562 L 241.582031 269.347656 L 242.839844 270.023438 L 244.101562 270.695312 L 251.671875 259.941406 L 270.332031 270.691406 L 257.753906 289.703125 L 258.683594 290.140625 L 259.613281 290.582031 L 272.417969 271.890625 L 272.980469 272.214844 L 257.785156 297.773438 L 275.941406 301.738281 L 275.425781 302.660156 L 271.128906 313.347656 L 269.179688 317.199219 L 261.191406 332.984375 L 253.484375 329.21875 L 221.019531 306.492188 L 221.007812 306.484375 L 221.847656 304.535156 L 199.339844 293.960938 Z M 232.984375 249.179688 "/>
<path style=" stroke:none;fill-rule:nonzero;fill:rgb(39.99939%,39.99939%,39.99939%);fill-opacity:0.3;" d="M 196.441406 107.089844 L 204.460938 106.691406 L 206.457031 104.347656 L 209.425781 100.371094 L 216.945312 94.347656 L 221.652344 91.566406 L 225.980469 90.054688 L 232.179688 91.1875 L 239.816406 93.953125 L 238.726562 98.738281 L 239.640625 101.617188 L 242.121094 102.925781 L 239.667969 112.496094 L 236.757812 116.894531 L 235.761719 117.449219 L 233.773438 119.480469 L 231.578125 129.269531 L 219.320312 125.730469 L 217.777344 125.574219 L 213.820312 124.191406 L 210.789062 124.191406 L 209.546875 124.742188 L 208.953125 124.679688 L 206.785156 125.140625 L 200.191406 128.425781 L 197.378906 128.929688 L 195.148438 125.65625 L 194.675781 123.757812 L 195.226562 116.5 Z M 196.441406 107.089844 "/>
<g clip-path="url(#clip2)" clip-rule="nonzero">
<path style=" stroke:none;fill-rule:nonzero;fill:rgb(39.99939%,39.99939%,39.99939%);fill-opacity:0.3;" d="M 337.644531 134.136719 L 337.085938 132.617188 L 337.511719 131.109375 L 350.078125 108.183594 L 352.6875 110.21875 L 354.660156 111.4375 L 357.003906 111.957031 L 359.28125 112.289062 L 360.933594 112.523438 L 362.335938 112.679688 L 363.738281 112.910156 L 364.808594 113.296875 L 364.722656 117.460938 L 368.949219 121.59375 L 368.933594 128.570312 L 364.191406 129.933594 L 360.058594 132.011719 L 354.417969 141.546875 L 353.582031 141.785156 L 349.109375 140.011719 L 344.375 138.195312 L 340.003906 136.023438 L 338.457031 134.902344 Z M 337.644531 134.136719 "/>
</g>
<g clip-path="url(#clip3)" clip-rule="nonzero">
<path style=" stroke:none;fill-rule:nonzero;fill:rgb(39.99939%,39.99939%,39.99939%);fill-opacity:0.3;" d="M 365.277344 35.09375 L 401.851562 81.136719 L 399.210938 85.285156 L 396.992188 83.785156 L 395.859375 85.011719 L 394.675781 86.289062 L 397.3125 87.488281 L 394.9375 92.554688 L 392.722656 97.640625 L 390.75 104.152344 L 388.664062 110.851562 L 387.101562 114.945312 L 386.320312 117.925781 L 386.367188 123.546875 L 384.066406 128.089844 L 372.777344 129.089844 L 371.378906 127.90625 L 371.089844 121.269531 L 368.679688 119.21875 L 365.925781 116.675781 L 366.378906 112.4375 L 368.394531 110.167969 L 367.78125 109.6875 L 367.199219 109.226562 L 366.292969 110.011719 L 364.644531 111.816406 L 362.5 111.660156 L 356.636719 110.808594 L 353.996094 109.714844 L 351.066406 106.757812 L 353.988281 98.171875 L 352.285156 97.851562 L 352.234375 90.835938 L 351.847656 76.972656 L 351.011719 71.652344 L 351.378906 66.582031 L 369.234375 74.152344 L 369.765625 73.421875 L 370.207031 72.738281 L 351.863281 64.644531 L 357.121094 48.878906 L 361.152344 40.722656 L 363.070312 37.785156 Z M 365.277344 35.09375 "/>
</g>
<path style=" stroke:none;fill-rule:nonzero;fill:rgb(39.99939%,39.99939%,39.99939%);fill-opacity:0.3;" d="M 308.257812 169.023438 L 311.496094 167.855469 L 308.570312 170.050781 Z M 308.257812 169.023438 "/>
<path style=" stroke:none;fill-rule:nonzero;fill:rgb(39.99939%,39.99939%,39.99939%);fill-opacity:0.3;" d="M 311.695312 167.785156 L 314.203125 166.878906 L 317.300781 166.984375 L 316.539062 168.246094 Z M 311.695312 167.785156 "/>
<path style=" stroke:none;fill-rule:nonzero;fill:rgb(39.99939%,39.99939%,39.99939%);fill-opacity:0.3;" d="M 317.835938 168.371094 L 318.65625 167.074219 L 326.679688 168.203125 L 326.246094 169.265625 L 322.59375 168.914062 L 319.5625 168.535156 Z M 317.835938 168.371094 "/>
<path style=" stroke:none;fill-rule:nonzero;fill:rgb(39.99939%,39.99939%,39.99939%);fill-opacity:0.3;" d="M 328.015625 169.4375 L 328.566406 168.199219 L 330.8125 168.34375 L 331.007812 169.726562 Z M 328.015625 169.4375 "/>
<path style=" stroke:none;fill-rule:nonzero;fill:rgb(39.99939%,39.99939%,39.99939%);fill-opacity:0.3;" d="M 343.566406 209.980469 L 346.050781 211.1875 L 345.847656 211.851562 L 343.820312 210.605469 Z M 343.566406 209.980469 "/>
<path style=" stroke:none;fill-rule:nonzero;fill:rgb(39.99939%,39.99939%,39.99939%);fill-opacity:0.3;" d="M 283.800781 82.046875 L 272.996094 106.503906 L 265.386719 105.496094 L 253.039062 102.636719 L 248.640625 102.027344 L 244.746094 102.085938 L 241.75 101.222656 L 240.859375 98.089844 L 241.988281 92.945312 L 243.332031 84.523438 L 244.207031 81.074219 L 245.8125 79.605469 L 248.773438 78.941406 L 252.050781 79.242188 L 256.074219 81.519531 L 260.449219 83.976562 L 262.082031 84.0625 L 271.207031 81.359375 L 276.371094 81.101562 L 280.460938 79.789062 L 282.675781 80.429688 Z M 283.800781 82.046875 "/>
<g clip-path="url(#clip4)" clip-rule="nonzero">
<path style=" stroke:none;fill-rule:nonzero;fill:rgb(39.99939%,39.99939%,39.99939%);fill-opacity:0.3;" d="M 326.117188 -8.042969 L 340.472656 7.042969 L 363.195312 33.378906 L 358.707031 40.164062 L 355.332031 47.226562 L 348.085938 41.496094 L 344.703125 37.226562 L 342.953125 33.460938 L 342.476562 33.695312 L 342.078125 33.976562 L 343.765625 37.589844 L 347.53125 42.230469 L 354.746094 48.582031 L 352.152344 58.875 L 351.765625 59.269531 L 330.597656 50 L 329.835938 48.878906 L 327.921875 43.707031 L 324.058594 42.792969 L 315.671875 43.523438 L 311.355469 44.195312 L 311.964844 30.761719 L 311.207031 30.785156 L 310.386719 30.796875 L 309.890625 44.230469 L 301.484375 43.839844 L 299.265625 44.855469 L 294.796875 49.234375 L 288.746094 49.726562 L 283.863281 47.449219 L 284.222656 40.164062 L 279.339844 35.199219 L 271.53125 31.625 L 268.675781 31.835938 L 267.265625 35.964844 L 265.699219 39.984375 L 263.554688 43.3125 L 259.546875 45.300781 L 256.746094 45.128906 L 246.386719 43.105469 L 246.105469 43.769531 L 245.828125 44.433594 L 257.984375 47.003906 L 258.679688 62.089844 L 256.46875 69.144531 L 252.414062 78.132812 L 248.8125 78.113281 L 246.890625 77.683594 L 245.839844 76.996094 L 244.171875 75.09375 L 241.347656 73.519531 L 235.457031 72.144531 L 236.75 58.851562 L 235.964844 58.871094 L 235.210938 58.890625 L 234.136719 72.65625 L 240.8125 74.382812 L 243.066406 76.121094 L 244.039062 78.039062 L 243.128906 80.546875 L 241.949219 82.648438 L 240.484375 92.136719 L 232.644531 89.363281 L 225.3125 88.132812 L 228.628906 79.304688 L 228.167969 79.136719 L 227.632812 78.941406 L 223.808594 88.34375 L 221.523438 89.804688 L 217.851562 92.265625 L 207.824219 99.132812 L 202.722656 105.292969 L 197.871094 105.4375 L 198.636719 97.605469 L 199.003906 90.429688 L 197.867188 85.378906 L 196.597656 81.453125 L 205.550781 83.835938 L 205.742188 83.179688 L 205.945312 82.570312 L 196.945312 80.101562 L 201.015625 73.3125 L 207.917969 62.394531 L 211.09375 54.484375 L 216.074219 43.738281 L 220.753906 38.707031 L 228.601562 35.882812 L 240.058594 32.28125 L 259.042969 27.53125 L 302.089844 13.089844 L 309.96875 9.59375 L 319.304688 1.523438 Z M 326.117188 -8.042969 "/>
</g>
<path style=" stroke:none;fill-rule:nonzero;fill:rgb(39.99939%,39.99939%,39.99939%);fill-opacity:0.3;" d="M 299.664062 45.984375 L 301.636719 45.140625 L 306.429688 45.148438 L 311.875 45.054688 L 316.253906 44.375 L 320.28125 43.832031 L 324.046875 43.691406 L 326.636719 44.496094 L 329.4375 49.878906 L 329.597656 56.640625 L 330.324219 61.632812 L 328.785156 67.558594 L 327.839844 72.355469 L 319.238281 74.90625 L 310.761719 77.664062 L 307.289062 76.460938 L 301.464844 73.890625 L 298.914062 72.210938 L 296.171875 69.515625 L 293.246094 63.289062 L 291.066406 59 L 288.601562 52.289062 L 289.085938 50.566406 L 295.734375 50.351562 Z M 299.664062 45.984375 "/>
<path style=" stroke:none;fill-rule:nonzero;fill:rgb(39.99939%,39.99939%,39.99939%);fill-opacity:0.3;" d="M 259.515625 47.355469 L 263.558594 45.90625 L 265.609375 43.429688 L 267.101562 40.601562 L 268.03125 38.195312 L 269.230469 34.421875 L 270.273438 32.664062 L 272.972656 33.601562 L 275.214844 34.660156 L 278.148438 36.339844 L 280.601562 38.46875 L 282.753906 40.988281 L 282.046875 47.289062 L 286.761719 50.015625 L 287.554688 52.515625 L 289.894531 59.339844 L 292.035156 63.492188 L 295.300781 69.933594 L 297.929688 72.757812 L 300.304688 74.425781 L 304.648438 76.503906 L 304.867188 80.675781 L 301.832031 81.941406 L 296.742188 83.660156 L 291.191406 83.46875 L 281.414062 78.683594 L 278.792969 75.125 L 274.648438 70.925781 L 274.328125 71.234375 L 273.988281 71.554688 L 277.972656 75.507812 L 280.308594 78.691406 L 275.871094 79.945312 L 270.902344 80.441406 L 263.105469 82.664062 L 267.210938 75.574219 L 264.34375 73.550781 L 264.074219 73.957031 L 263.855469 74.300781 L 266 75.777344 L 261.992188 82.6875 L 261.121094 82.863281 L 256.761719 81.011719 L 254.078125 78.65625 L 255.292969 75.3125 L 259.328125 66.648438 L 260.195312 61.605469 Z M 259.515625 47.355469 "/>
<path style=" stroke:none;fill-rule:nonzero;fill:rgb(39.99939%,39.99939%,39.99939%);fill-opacity:0.3;" d="M 340.960938 31.84375 L 339.914062 34.710938 L 338.023438 34.222656 L 337.328125 36.121094 L 339.21875 36.613281 L 338.183594 39.449219 L 336.371094 38.976562 L 335.863281 40.140625 L 337.75 40.632812 L 336.671875 43.585938 L 330.007812 41.808594 L 331.070312 38.898438 L 333.050781 39.410156 L 333.480469 38.226562 L 331.503906 37.714844 L 332.539062 34.878906 L 334.519531 35.390625 L 335.214844 33.492188 L 333.179688 32.953125 L 333.769531 31.515625 L 334.28125 30.109375 Z M 340.960938 31.84375 "/>
<path style=" stroke:none;fill-rule:nonzero;fill:rgb(39.99939%,39.99939%,39.99939%);fill-opacity:0.3;" d="M 330.660156 50.941406 L 351.089844 60.414062 L 349.511719 68.441406 L 349.402344 69.234375 L 329.597656 71.578125 L 330.453125 66.996094 L 331.292969 60.867188 L 330.46875 55.285156 Z M 330.660156 50.941406 "/>
<g clip-path="url(#clip5)" clip-rule="nonzero">
<path style=" stroke:none;fill-rule:evenodd;fill:rgb(39.99939%,39.99939%,39.99939%);fill-opacity:0.3;" d="M 403.554688 83.257812 L 438.144531 128.101562 L 449.847656 143.277344 L 462.390625 159.535156 L 457.917969 177.550781 L 430.847656 170.660156 L 428.308594 171.402344 L 413.554688 166.328125 L 414.40625 161.078125 L 416.265625 153.535156 L 416.960938 149.988281 L 416.085938 149.820312 L 415.207031 149.65625 L 414.628906 152.429688 L 411.210938 166.976562 L 413.363281 168.828125 L 429.269531 173.925781 L 430.90625 172.925781 L 457.503906 178.996094 L 454.070312 193.078125 L 427.820312 185.558594 L 426.554688 186.589844 L 419.554688 185.96875 L 418.714844 188.085938 L 413.175781 203.992188 L 402.582031 201.417969 L 401.136719 200.980469 L 400.386719 200.597656 L 402.6875 194.1875 L 405.542969 193.234375 L 408.976562 177.890625 L 408.371094 177.792969 L 407.769531 177.699219 L 403.820312 192.359375 L 398.753906 189.589844 L 395.097656 187.910156 L 391.589844 185.230469 L 388.765625 183.007812 L 386.199219 178.261719 L 386.210938 173.515625 L 386.085938 170.761719 L 385.875 167.933594 L 385.871094 164.234375 L 385.605469 162.648438 L 390.75 162.679688 L 390.59375 161.273438 L 385.640625 161.316406 L 384.398438 158.492188 L 382.597656 156.671875 L 377.601562 154.117188 L 373.859375 152.9375 L 364.085938 151.566406 L 363.476562 149.9375 L 362.476562 148.078125 L 361.796875 146.796875 L 360.273438 145.339844 L 358.429688 143.9375 L 357.558594 143.324219 L 362.425781 134.066406 L 365.445312 132.164062 L 369.757812 131.042969 L 373.679688 130.542969 L 378.679688 130.210938 L 382.058594 130.046875 L 385.417969 129.867188 L 386.972656 127.714844 L 388.949219 124.757812 L 388.570312 118.640625 L 389.773438 115.207031 L 391.1875 110.84375 L 392.871094 105.582031 L 394.894531 99.871094 L 396.171875 95.632812 L 397.554688 92.070312 L 399.378906 88.597656 Z M 435.539062 165.125 L 440.125 165.652344 L 448.652344 143.027344 L 437.699219 130.710938 L 425.570312 162.242188 Z M 435.539062 165.125 "/>
</g>
<g clip-path="url(#clip6)" clip-rule="nonzero">
<path style=" stroke:none;fill-rule:nonzero;fill:rgb(39.99939%,39.99939%,39.99939%);fill-opacity:0.3;" d="M 355.171875 144.089844 L 356.863281 144.710938 L 359.636719 146.574219 L 361.023438 149.269531 L 361.496094 152.261719 L 361.121094 156.035156 L 360.386719 159.183594 L 349.667969 157.054688 Z M 355.171875 144.089844 "/>
</g>
<path style=" stroke:none;fill-rule:nonzero;fill:rgb(39.99939%,39.99939%,39.99939%);fill-opacity:0.3;" d="M 342.035156 138.851562 L 344.175781 139.375 L 347.464844 140.753906 L 352.820312 143.113281 L 346.789062 156.4375 L 338.171875 154.871094 Z M 342.035156 138.851562 "/>
<g clip-path="url(#clip7)" clip-rule="nonzero">
<path style=" stroke:none;fill-rule:nonzero;fill:rgb(39.99939%,39.99939%,39.99939%);fill-opacity:0.3;" d="M 388.40625 228.480469 L 347.988281 218.074219 L 349.375 210.085938 L 344.601562 208.308594 L 342.472656 207.300781 L 339.648438 200.371094 L 335.480469 176.113281 L 334.722656 172.703125 L 334.710938 172.628906 L 347.667969 175.375 L 346.4375 183.601562 L 347.585938 183.648438 L 348.730469 183.699219 L 350.386719 173.726562 L 335.824219 170.140625 L 337.371094 158.011719 L 361.839844 162.628906 L 361.992188 164.757812 L 363.378906 166.410156 L 364.683594 167.445312 L 366.140625 168.445312 L 367.269531 169.359375 L 361.117188 180.0625 L 362.089844 180.699219 L 363.058594 181.335938 L 369.167969 170.429688 L 370.816406 171.265625 L 372.3125 172.113281 L 374.105469 172.820312 L 376.050781 173.527344 L 379.640625 175.507812 L 381.582031 176.636719 L 383.082031 179.753906 L 385.175781 181.878906 L 387.570312 184.285156 L 390.265625 187.398438 L 395 190.578125 L 399.335938 192.601562 L 400.136719 193.765625 L 394.167969 210.878906 Z M 388.40625 228.480469 "/>
</g>
<path style=" stroke:none;fill-rule:nonzero;fill:rgb(39.99939%,39.99939%,39.99939%);fill-opacity:0.3;" d="M 194.476562 81.980469 L 195.71875 85.894531 L 195.25 85.152344 L 193.769531 82.40625 Z M 194.476562 81.980469 "/>
<g clip-path="url(#clip8)" clip-rule="nonzero">
<path style=" stroke:none;fill-rule:nonzero;fill:rgb(39.99939%,39.99939%,39.99939%);fill-opacity:0.3;" d="M 370.628906 30.394531 L 358.113281 16.863281 L 332.304688 -11.042969 L 337.753906 -6.566406 L 368.832031 28.300781 Z M 370.628906 30.394531 "/>
</g>
<path style=" stroke:none;fill-rule:nonzero;fill:rgb(39.99939%,39.99939%,39.99939%);fill-opacity:0.3;" d="M 259.789062 104.992188 L 266.613281 106.796875 L 264.796875 112.207031 L 262.144531 116.6875 L 259.746094 119.921875 L 253.882812 118.019531 L 249.308594 115.53125 L 243.90625 113.140625 L 242.050781 112.542969 L 242.539062 107.429688 L 243.464844 103.007812 L 253.03125 103.824219 Z M 259.789062 104.992188 "/>
<path style=" stroke:none;fill-rule:nonzero;fill:rgb(39.99939%,39.99939%,39.99939%);fill-opacity:0.3;" d="M 320.550781 107.542969 L 319.972656 107.472656 L 319.277344 107.398438 L 318.125 121.824219 L 313.570312 121.375 L 307.777344 119.664062 L 302.410156 117.371094 L 301.980469 108.558594 L 302.316406 107.179688 L 302.816406 106.414062 L 316.378906 99.078125 L 316.195312 98.527344 L 316.007812 97.953125 L 301.652344 105.710938 L 300.898438 107.128906 L 300.832031 108.355469 L 301.070312 117.339844 L 293.828125 115.140625 L 298.34375 108.613281 L 299.9375 102.863281 L 299.382812 98.65625 L 298.996094 98.773438 L 298.59375 98.878906 L 299.058594 102.761719 L 297.523438 108.332031 L 292.980469 114.761719 L 286.550781 110.082031 L 278.457031 108 L 275.167969 106.777344 L 274.886719 105.617188 L 275.089844 104.304688 L 284.726562 83.128906 L 285.230469 82.773438 L 286.300781 82.941406 L 289.269531 84.363281 L 293.273438 85.257812 L 299.605469 84.859375 L 310.5 78.996094 L 323.484375 74.804688 L 328.074219 74.078125 L 323.203125 92.636719 L 323.511719 92.761719 L 323.910156 92.921875 L 329.21875 73.667969 L 342.363281 71.820312 L 348.378906 71.433594 L 349.554688 73.691406 L 349.96875 76.21875 L 350.757812 84.519531 L 350.769531 99.765625 L 348.757812 106.382812 L 336.441406 130.019531 L 327.132812 124.878906 L 319.285156 121.835938 Z M 320.550781 107.542969 "/>
<path style=" stroke:none;fill-rule:nonzero;fill:rgb(39.99939%,39.99939%,39.99939%);fill-opacity:0.3;" d="M 231.738281 130.191406 L 232.367188 130.527344 L 230.550781 129.894531 Z M 231.738281 130.191406 "/>
<path style=" stroke:none;fill-rule:nonzero;fill:rgb(39.99939%,39.99939%,39.99939%);fill-opacity:0.3;" d="M 236.996094 132.136719 L 242.109375 132.882812 L 242.171875 132.578125 L 242.238281 132.257812 L 235.195312 131.082031 L 232.875 129.882812 L 234.617188 120.121094 L 236.277344 118.199219 L 237.4375 118.140625 L 240.324219 113.570312 L 244.671875 114.613281 L 242.34375 124.511719 L 242.777344 124.625 L 243.179688 124.738281 L 245.425781 115.1875 L 250.1875 117.191406 L 254.660156 119.441406 L 259.617188 121.160156 L 258.738281 124.183594 L 258.160156 128.285156 L 256.761719 129.382812 L 254.351562 130.472656 L 251.480469 130.867188 L 250.957031 131.660156 L 251.234375 137.898438 L 252.339844 139.945312 L 261.925781 140.867188 L 248.308594 142.003906 L 247.550781 138.59375 L 243.761719 137.457031 L 242.625 133.664062 L 239.214844 132.90625 Z M 236.996094 132.136719 "/>
<path style=" stroke:none;fill-rule:nonzero;fill:rgb(39.99939%,39.99939%,39.99939%);fill-opacity:0.3;" d="M 261.953125 140.871094 L 262.871094 140.960938 L 262.414062 144.527344 L 262.328125 145.136719 L 261.953125 145.035156 Z M 261.953125 140.871094 "/>
<path style=" stroke:none;fill-rule:nonzero;fill:rgb(39.99939%,39.99939%,39.99939%);fill-opacity:0.3;" d="M 263.1875 145.367188 L 263.289062 144.632812 L 263.988281 138.902344 L 263.535156 138.851562 L 263.113281 138.808594 L 262.953125 140.132812 L 252.882812 139.164062 L 252.179688 137.953125 L 251.910156 131.933594 L 252.25 131.417969 L 254.980469 131.039062 L 257.503906 129.902344 L 259.082031 128.664062 L 259.679688 124.433594 L 260.46875 121.980469 L 264.011719 123.617188 L 265.078125 124.78125 L 265.011719 125.96875 L 265.503906 125.996094 L 265.964844 126.023438 L 266.046875 124.683594 L 264.464844 122.902344 L 260.679688 120.957031 L 264.195312 116.15625 L 266.117188 111.808594 L 266.941406 108.332031 L 267.761719 107.535156 L 274.28125 107.742188 L 282.878906 110.070312 L 286.375 110.835938 L 287.945312 112.480469 L 289.679688 114.203125 L 286.941406 121.566406 L 279.785156 120.464844 L 276.644531 126.128906 L 277.691406 126.660156 L 280.25 121.535156 L 287.871094 122.664062 L 290.464844 115.183594 L 299.261719 117.941406 L 305.027344 119.984375 L 307.484375 120.710938 L 313.421875 122.285156 L 319.203125 122.941406 L 326.210938 125.203125 L 323.929688 131.269531 L 322.714844 135.289062 L 322.113281 139.058594 L 317.847656 139.105469 L 316.152344 142.191406 L 315.414062 144.925781 L 315.390625 147.589844 L 315.699219 147.605469 L 316.015625 147.609375 L 316.046875 145 L 316.824219 142.375 L 318.265625 139.800781 L 322.816406 139.675781 L 323.394531 135.542969 L 324.875 131.34375 L 327.109375 125.78125 L 335.769531 130.617188 L 335.652344 134.179688 L 336.5625 135.761719 L 339.847656 138.507812 L 334.519531 167.40625 L 314.5625 164.8125 L 307.582031 166.808594 L 304.402344 156.40625 Z M 263.1875 145.367188 "/>
<path style=" stroke:none;fill-rule:nonzero;fill:rgb(39.99939%,39.99939%,39.99939%);fill-opacity:0.3;" d="M 191.839844 119.265625 L 192.355469 119.648438 L 193.730469 125.605469 L 193.355469 124.949219 Z M 191.839844 119.265625 "/>
<path style=" stroke:none;fill-rule:nonzero;fill:rgb(39.99939%,39.99939%,39.99939%);fill-opacity:0.3;" d="M 197.21875 131.253906 L 202.289062 129.523438 L 198.28125 132.527344 Z M 197.21875 131.253906 "/>
<path style=" stroke:none;fill-rule:nonzero;fill:rgb(39.99939%,39.99939%,39.99939%);fill-opacity:0.3;" d="M 348.777344 19.550781 L 353.09375 24.695312 L 350.460938 26.421875 L 349.242188 24.964844 L 347.5 26.109375 L 348.722656 27.566406 L 346.121094 29.277344 L 344.949219 27.878906 L 343.816406 28.535156 L 345.035156 29.988281 L 342.328125 31.769531 L 338.054688 26.597656 L 340.71875 24.847656 L 342 26.371094 L 343.082031 25.65625 L 341.804688 24.132812 L 344.40625 22.425781 L 345.683594 23.949219 L 347.425781 22.804688 L 346.117188 21.230469 L 347.488281 20.398438 Z M 348.777344 19.550781 "/>
<path style=" stroke:none;fill-rule:nonzero;fill:rgb(39.99939%,39.99939%,39.99939%);fill-opacity:0.3;" d="M 217.777344 125.574219 L 209.546875 124.742188 L 210.789062 124.191406 L 213.820312 124.191406 Z M 217.777344 125.574219 "/>
<path style=" stroke:none;fill-rule:nonzero;fill:rgb(39.99939%,39.99939%,39.99939%);fill-opacity:0.3;" d="M 232.367188 130.527344 L 234.789062 131.816406 L 236.996094 132.136719 L 239.214844 132.90625 L 242.625 133.664062 L 243.761719 137.457031 L 247.550781 138.59375 L 248.308594 142.003906 L 261.925781 140.867188 L 261.953125 140.871094 L 261.953125 145.035156 L 239.972656 154.09375 L 213.289062 161.445312 L 209.421875 145.984375 L 198.28125 132.527344 L 202.289062 129.523438 L 203.402344 129.144531 L 208.890625 126.449219 L 209.773438 126.34375 L 218.140625 126.472656 L 223.964844 128.246094 L 230.550781 129.894531 Z M 232.367188 130.527344 "/>
<g clip-path="url(#clip9)" clip-rule="nonzero">
<path style=" stroke:none;fill-rule:nonzero;fill:rgb(39.99939%,39.99939%,39.99939%);fill-opacity:0.3;" d="M 330.003906 -13.527344 L 343.359375 -32.992188 L 357.476562 -53.570312 L 382.316406 27.125 L 381.832031 29.4375 L 380.851562 31.003906 L 379.597656 32.371094 L 377.34375 33.445312 L 375.085938 33.566406 L 373.015625 32.976562 L 370.628906 30.394531 L 368.832031 28.300781 L 337.753906 -6.566406 L 332.304688 -11.042969 Z M 330.003906 -13.527344 "/>
</g>
<g clip-path="url(#clip10)" clip-rule="nonzero">
<path style=" stroke:none;fill-rule:nonzero;fill:rgb(39.99939%,39.99939%,39.99939%);fill-opacity:0.3;" d="M 194.921875 389.425781 L 150.289062 436.285156 L 219 471.359375 L 215.355469 477.371094 L 149.957031 444.464844 L 147.605469 443.28125 L 133.773438 433.949219 L 146.90625 419.28125 L 180.007812 380.972656 L 184.789062 384.679688 L 187.105469 382.390625 L 189.085938 380.433594 L 184.109375 376.636719 L 201.585938 355.289062 L 218.578125 364.75 Z M 194.921875 389.425781 "/>
</g>
<g clip-path="url(#clip11)" clip-rule="nonzero">
<path style=" stroke:none;fill-rule:nonzero;fill:rgb(39.99939%,39.99939%,39.99939%);fill-opacity:0.3;" d="M 201.628906 355.238281 L 201.925781 354.484375 L 216.851562 361.449219 L 220.261719 364.101562 L 222.917969 372.816406 L 235.800781 377.367188 L 248.6875 384.945312 L 258.921875 401.621094 L 270.671875 409.203125 L 272.945312 416.023438 L 275.597656 418.679688 L 282.800781 420.953125 L 294.167969 414.507812 L 318.425781 405.035156 L 325.625 403.519531 L 329.261719 402.609375 L 330.429688 417.519531 L 320.011719 432.328125 L 321.457031 433.253906 L 322.785156 434.097656 L 309.804688 453.265625 L 309.375 453.90625 L 308.9375 454.558594 L 276.949219 500.019531 L 223.007812 473.386719 L 221.070312 472.277344 L 219.070312 471.253906 L 150.359375 436.273438 L 194.984375 389.480469 L 218.652344 364.738281 Z M 201.628906 355.238281 "/>
</g>
<g clip-path="url(#clip12)" clip-rule="nonzero">
<path style=" stroke:none;fill-rule:nonzero;fill:rgb(39.99939%,39.99939%,39.99939%);fill-opacity:0.3;" d="M 348.734375 222.089844 L 376.042969 228.3125 L 390.472656 232.433594 L 377.941406 268.808594 L 373.902344 280.992188 L 373.125 283.957031 L 368.777344 287.203125 L 365.484375 290.34375 L 362.3125 295.03125 L 360.894531 299.230469 L 360.367188 303.109375 L 360.234375 307.375 L 360.390625 311.191406 L 361.261719 315.566406 L 363.171875 318.96875 L 364.269531 321.367188 L 363.5625 326.859375 L 357.664062 326.515625 L 348.648438 325.753906 L 348.9375 319.832031 L 333.984375 316.136719 L 331.734375 324.140625 L 328.84375 324.261719 L 322.488281 324.191406 L 318.605469 322.550781 L 317.269531 321.25 L 319.394531 316.378906 L 322.484375 307.484375 L 323.640625 300.445312 L 323.765625 297.957031 L 328.660156 280.339844 L 333.585938 269.730469 L 337.070312 256.085938 L 338.378906 252.097656 L 345.570312 253.65625 L 345.882812 252.375 L 339.09375 250.449219 Z M 348.734375 222.089844 "/>
</g>
<g clip-path="url(#clip13)" clip-rule="nonzero">
<path style=" stroke:none;fill-rule:nonzero;fill:rgb(39.99939%,39.99939%,39.99939%);fill-opacity:0.3;" d="M 351.160156 327.066406 L 362.996094 328.394531 L 362.546875 329.710938 L 351.070312 327.359375 Z M 351.160156 327.066406 "/>
</g>
<path style=" stroke:none;fill-rule:nonzero;fill:rgb(39.99939%,39.99939%,39.99939%);fill-opacity:0.3;" d="M 336.09375 318.804688 L 346.109375 320.636719 L 346.316406 326.78125 L 334.003906 326.011719 Z M 336.09375 318.804688 "/>
<path style=" stroke:none;fill-rule:nonzero;fill:rgb(39.99939%,39.99939%,39.99939%);fill-opacity:0.3;" d="M 323.765625 297.957031 L 323.921875 294.789062 L 324.34375 291.070312 L 326.390625 285.054688 L 331.96875 271.605469 L 337.070312 256.085938 L 333.585938 269.730469 L 328.660156 280.339844 Z M 323.765625 297.957031 "/>
<path style=" stroke:none;fill-rule:nonzero;fill:rgb(39.99939%,39.99939%,39.99939%);fill-opacity:0.3;" d="M 288.664062 287.691406 L 293.304688 279.660156 L 253.808594 256.910156 L 258.789062 249.992188 L 261.398438 246.148438 L 263.589844 243.023438 L 267.945312 245.320312 L 268.550781 244.410156 L 269.160156 243.496094 L 264.007812 240.21875 L 261.058594 244.386719 L 259.203125 243.507812 L 250.808594 255.183594 L 235.246094 246.222656 L 254.1875 220.066406 L 253.753906 215.574219 L 253.996094 215.152344 L 253.535156 213.308594 L 252.570312 203.324219 L 256.339844 201.765625 L 261.730469 198.632812 L 264.933594 195.230469 L 264.695312 198 L 268.402344 201.507812 L 269.4375 201.300781 L 270.46875 201.09375 L 266.328125 197.585938 L 266.867188 195.414062 L 265.789062 193.800781 L 268.777344 191.273438 L 274.082031 188.621094 L 283.9375 183.695312 L 305.917969 171.566406 L 308.570312 170.050781 L 311.496094 167.855469 L 311.695312 167.785156 L 316.539062 168.246094 L 313.339844 173.554688 L 311.214844 176.039062 L 311.769531 176.289062 L 312.328125 176.542969 L 313.972656 174.472656 L 317.835938 168.371094 L 319.5625 168.535156 L 322.59375 168.914062 L 326.246094 169.265625 L 324.382812 173.859375 L 322.1875 178.628906 L 320.414062 182.023438 L 318.394531 184.601562 L 314.824219 187.28125 L 312.472656 189.386719 L 310.703125 193.265625 L 309.738281 196.050781 L 308.761719 198.195312 L 308.65625 200.886719 L 309.203125 200.90625 L 309.941406 200.925781 L 309.953125 198.445312 L 310.835938 196.660156 L 311.921875 193.40625 L 313.988281 189.859375 L 316.25 187.648438 L 319.59375 185.171875 L 321.828125 182.386719 L 323.339844 179.714844 L 325.882812 174.226562 L 328.015625 169.4375 L 331.007812 169.726562 L 331.316406 171.855469 L 332.316406 181.730469 L 333.3125 187.28125 L 334.789062 192.320312 L 336.003906 195.507812 L 336.90625 202.867188 L 338.878906 207.703125 L 343.566406 209.980469 L 343.820312 210.605469 L 345.847656 211.851562 L 335.734375 244.71875 L 331.144531 244.09375 L 325.976562 243.199219 L 324.464844 244.910156 L 322.238281 245.089844 L 318.207031 241.816406 L 317.667969 242.308594 L 317.070312 242.851562 L 320.675781 246.441406 L 318.664062 246.96875 L 315.011719 245.761719 L 313.023438 244.910156 L 312.035156 243.570312 L 311.371094 242.179688 L 310.847656 241.011719 L 309.507812 239.027344 L 294.207031 237.96875 L 294.230469 238.488281 L 294.253906 238.957031 L 301.277344 239.449219 L 308.941406 240.0625 L 310.425781 242.628906 L 311.964844 245.328125 L 314.589844 246.617188 L 316.722656 247.378906 L 318.640625 247.972656 L 316.925781 250.417969 L 315.269531 252.214844 L 307.503906 251.558594 L 307.40625 252.28125 L 307.3125 252.988281 L 314.464844 253.609375 L 307.605469 263.882812 L 295.621094 264.300781 L 295.503906 265.136719 L 295.386719 265.964844 L 308.128906 265.320312 L 314.902344 256.308594 L 317.738281 251.769531 L 319.675781 249.429688 L 320.574219 248.441406 L 323.191406 248.191406 L 323.851562 246.4375 L 326.03125 246.433594 L 327.257812 244.949219 L 335.101562 246.230469 L 333.621094 251.269531 L 318.789062 296.292969 L 310.039062 291.222656 L 308.65625 287.40625 L 304.953125 289.015625 L 306.972656 293.636719 L 317.679688 300.152344 L 315.824219 306.109375 L 306.273438 302.46875 L 301.613281 299.011719 L 298.085938 295.671875 Z M 288.664062 287.691406 "/>
<path style=" stroke:none;fill-rule:nonzero;fill:rgb(39.99939%,39.99939%,39.99939%);fill-opacity:0.3;" d="M 342.472656 207.300781 L 340.835938 206.527344 L 338.664062 202.414062 L 338.015625 194.355469 L 336.585938 190.652344 L 335.585938 183.898438 L 334.675781 177.101562 L 334.613281 172.609375 L 334.710938 172.628906 L 334.722656 172.703125 L 335.480469 176.113281 L 339.648438 200.371094 Z M 342.472656 207.300781 "/>
<path style=" stroke:none;fill-rule:nonzero;fill:rgb(39.99939%,39.99939%,39.99939%);fill-opacity:0.3;" d="M 303.695312 304.507812 L 317.105469 311.691406 L 313.25 319.476562 L 298.855469 311.65625 Z M 303.695312 304.507812 "/>
<path style=" stroke:none;fill-rule:nonzero;fill:rgb(39.99939%,39.99939%,39.99939%);fill-opacity:0.3;" d="M 285.777344 288.664062 L 295.554688 298.429688 L 301.324219 303.164062 L 296.679688 310.054688 L 278.957031 300.121094 Z M 285.777344 288.664062 "/>
<path style=" stroke:none;fill-rule:nonzero;fill:rgb(39.99939%,39.99939%,39.99939%);fill-opacity:0.3;" d="M 277.769531 302.136719 L 277.917969 301.875 L 279.5 302.773438 L 278.628906 302.324219 Z M 277.769531 302.136719 "/>
<path style=" stroke:none;fill-rule:nonzero;fill:rgb(39.99939%,39.99939%,39.99939%);fill-opacity:0.3;" d="M 272.980469 272.214844 L 288.066406 280.902344 L 280.726562 293.207031 L 276.824219 300.167969 L 275.941406 301.738281 L 257.785156 297.773438 Z M 272.980469 272.214844 "/>
<path style=" stroke:none;fill-rule:nonzero;fill:rgb(39.99939%,39.99939%,39.99939%);fill-opacity:0.3;" d="M 265.789062 193.800781 L 265.53125 193.414062 L 268.097656 190.414062 L 279.710938 185.496094 L 286.828125 181.964844 L 294.78125 176.273438 L 303.90625 170.59375 L 308.257812 169.023438 L 308.570312 170.050781 L 305.917969 171.566406 L 283.9375 183.695312 L 274.082031 188.621094 L 268.777344 191.273438 Z M 265.789062 193.800781 "/>
<path style=" stroke:none;fill-rule:nonzero;fill:rgb(39.99939%,39.99939%,39.99939%);fill-opacity:0.3;" d="M 217.089844 208.289062 L 229.25 205.625 L 229.574219 206.15625 Z M 217.089844 208.289062 "/>
<path style=" stroke:none;fill-rule:nonzero;fill:rgb(39.99939%,39.99939%,39.99939%);fill-opacity:0.3;" d="M 216.683594 208.378906 L 216.777344 208.359375 L 216.691406 208.390625 Z M 216.683594 208.378906 "/>
<path style=" stroke:none;fill-rule:nonzero;fill:rgb(39.99939%,39.99939%,39.99939%);fill-opacity:0.3;" d="M 232.707031 205.59375 L 246.425781 202.816406 L 246.582031 203.472656 L 238.835938 204.539062 L 232.71875 205.617188 Z M 232.707031 205.59375 "/>
<path style=" stroke:none;fill-rule:nonzero;fill:rgb(39.99939%,39.99939%,39.99939%);fill-opacity:0.3;" d="M 209.128906 211.191406 L 212.910156 209.492188 L 213.058594 209.734375 Z M 209.128906 211.191406 "/>
<path style=" stroke:none;fill-rule:nonzero;fill:rgb(39.99939%,39.99939%,39.99939%);fill-opacity:0.3;" d="M 195.71875 85.894531 L 196.101562 87.089844 L 196.710938 91.464844 L 196.429688 97.101562 L 195.339844 102.675781 L 194.335938 108.847656 L 192.285156 113.710938 L 188.074219 117.597656 L 179.367188 125.378906 L 177.054688 126.011719 L 173.714844 125.75 L 169.652344 124.582031 L 165.234375 123.824219 L 162.109375 123.683594 L 158.796875 123.277344 L 154.332031 122.898438 L 154.097656 121.519531 L 161.671875 108.332031 L 169.449219 97.738281 L 176.714844 92.652344 L 193.769531 82.40625 L 195.25 85.152344 Z M 195.71875 85.894531 "/>
<path style=" stroke:none;fill-rule:nonzero;fill:rgb(39.99939%,39.99939%,39.99939%);fill-opacity:0.3;" d="M 262.328125 145.136719 L 260.730469 156.535156 L 261.144531 156.589844 L 261.605469 156.648438 L 263.1875 145.367188 L 304.402344 156.40625 L 307.582031 166.808594 L 306.765625 167.042969 L 306.839844 164.921875 L 295.445312 164.609375 L 295.464844 165.289062 L 295.460938 166.082031 L 305.011719 166.214844 L 305.101562 167.808594 L 298.148438 172.066406 L 292.753906 175.074219 L 284.488281 180.5 L 272.035156 185.863281 L 269.785156 178.96875 L 269.207031 172.117188 L 264.519531 166.34375 L 251.40625 161.503906 L 247.085938 161.640625 L 247.203125 162.320312 L 247.277344 162.859375 L 251.65625 162.746094 L 263.714844 167.363281 L 268.25 172.5 L 268.566406 179.128906 L 270.789062 186.535156 L 265.195312 190.664062 L 257.875 198.570312 L 251.382812 201.546875 L 242.386719 201.328125 L 243.964844 195.105469 L 251.742188 181.886719 L 249.28125 175.28125 L 247.714844 175.835938 L 246.324219 176.335938 L 248.351562 182.242188 L 237.890625 201.964844 L 211.019531 207.25 L 210.957031 206.023438 L 227.050781 187.789062 L 225.460938 187.285156 L 224.214844 186.800781 L 203.242188 210.808594 L 196.742188 214.039062 L 189.277344 217.699219 L 178.476562 221.785156 L 166.613281 223.929688 L 180.320312 206.007812 L 177.929688 204.421875 L 162.9375 224.460938 L 157.128906 224.921875 L 153.632812 225.714844 L 149.441406 228.4375 L 147.871094 230.746094 L 144.40625 235.339844 L 135.375 247.144531 L 129.210938 254.726562 L 122.542969 264.203125 L 116.824219 271.273438 L 114.636719 274.273438 L 114.554688 276.53125 L 115.433594 282.429688 L 115.042969 288.679688 L 113.949219 294.019531 L 106.914062 302.574219 L 101.058594 308.570312 L 74.085938 287.078125 L 51.429688 270.820312 L 60.945312 254.882812 L 72.84375 239.757812 L 90.402344 216.445312 L 101.480469 205.761719 L 111.234375 195.957031 L 120.070312 186.15625 L 128.898438 172.679688 L 135.230469 159.671875 L 152.984375 125.5 L 154.984375 124.550781 L 158.460938 124.878906 L 161.632812 125.296875 L 164.984375 125.5 L 167.121094 125.660156 L 169.582031 126.347656 L 173.175781 127.347656 L 177.410156 127.976562 L 180.242188 127.199219 L 190.222656 118.867188 L 191.121094 118.957031 L 191.742188 119.191406 L 191.839844 119.265625 L 193.355469 124.949219 L 193.730469 125.605469 L 193.914062 126.40625 L 195.589844 130.621094 L 196.949219 131.34375 L 197.21875 131.253906 L 198.28125 132.527344 L 209.421875 145.984375 L 213.289062 161.445312 L 239.972656 154.09375 L 261.953125 145.035156 Z M 262.328125 145.136719 "/>
<path style=" stroke:none;fill-rule:nonzero;fill:rgb(39.99939%,39.99939%,39.99939%);fill-opacity:0.3;" d="M 183.839844 -30.9375 L 176.257812 -3.597656 L 197.796875 2.226562 L 197.699219 2.25 L 169.589844 -4.976562 L 172.128906 -14.148438 L 177.511719 -32.605469 Z M 183.839844 -30.9375 "/>
<path style=" stroke:none;fill-rule:nonzero;fill:rgb(39.99939%,39.99939%,39.99939%);fill-opacity:0.3;" d="M 203.722656 1.046875 L 203.550781 1.097656 L 204.027344 -0.519531 Z M 203.722656 1.046875 "/>
<path style=" stroke:none;fill-rule:nonzero;fill:rgb(39.99939%,39.99939%,39.99939%);fill-opacity:0.3;" d="M 220.753906 38.707031 L 220.988281 38.457031 L 229.222656 34.996094 L 240.058594 32.28125 L 228.601562 35.882812 Z M 220.753906 38.707031 "/>
<path style=" stroke:none;fill-rule:nonzero;fill:rgb(39.99939%,39.99939%,39.99939%);fill-opacity:0.3;" d="M 235.265625 -29.753906 L 246.417969 -67.550781 L 247.082031 -69.871094 L 249.707031 -70.515625 L 255.898438 -61.53125 L 262.9375 -52.542969 L 272.878906 -44.234375 L 276.632812 -41.328125 L 316 -14.457031 L 321.953125 -9.855469 L 317.667969 -4.0625 L 311.59375 2.390625 L 305.6875 6.34375 L 297.273438 9.65625 L 277.578125 15.9375 L 253.917969 22.769531 L 246.695312 24.804688 L 244.050781 25.582031 L 241.203125 26.742188 L 237.84375 27.613281 L 234.894531 28.488281 L 230.625 29.84375 L 225.84375 31.492188 L 221.773438 33.039062 L 218.316406 34.011719 L 216.890625 33.820312 L 215.769531 33.144531 L 214.648438 31.601562 L 214.070312 29.449219 L 214.445312 27.285156 L 215.652344 23.101562 L 217.082031 19.023438 L 226.140625 -3.796875 L 243.832031 2.09375 L 244.332031 0.621094 L 244.828125 -0.851562 L 227.402344 -6.722656 Z M 235.265625 -29.753906 "/>
<path style=" stroke:none;fill-rule:nonzero;fill:rgb(39.99939%,39.99939%,39.99939%);fill-opacity:0.3;" d="M 322.398438 327.765625 L 331.535156 327.570312 L 330.40625 340.191406 L 324.441406 340.027344 Z M 322.398438 327.765625 "/>
<path style=" stroke:none;fill-rule:nonzero;fill:rgb(39.99939%,39.99939%,39.99939%);fill-opacity:0.3;" d="M 197.304688 296.777344 L 218.304688 305.660156 L 207.597656 329.472656 L 184.164062 314.464844 Z M 197.304688 296.777344 "/>
<g clip-path="url(#clip14)" clip-rule="nonzero">
<path style=" stroke:none;fill-rule:nonzero;fill:rgb(39.99939%,39.99939%,39.99939%);fill-opacity:0.3;" d="M 362.546875 329.710938 L 359.859375 337.574219 L 360.070312 361.292969 L 347.933594 361.066406 L 347.839844 336.582031 L 349.460938 332.644531 L 351.070312 327.359375 Z M 362.546875 329.710938 "/>
</g>
<g clip-path="url(#clip15)" clip-rule="nonzero">
<path style=" stroke:none;fill-rule:nonzero;fill:rgb(39.99939%,39.99939%,39.99939%);fill-opacity:0.3;" d="M 346.316406 326.78125 L 346.328125 327.117188 L 345.167969 330.804688 L 343.8125 334.773438 L 343.457031 361.144531 L 331.902344 361.253906 L 331.695312 338.800781 L 331.867188 336.855469 L 332.15625 334.019531 L 332.503906 331.183594 L 334.003906 326.011719 Z M 346.316406 326.78125 "/>
</g>
<g clip-path="url(#clip16)" clip-rule="nonzero">
<path style=" stroke:none;fill-rule:nonzero;fill:rgb(39.99939%,39.99939%,39.99939%);fill-opacity:0.3;" d="M 324.84375 341.332031 L 330.695312 341.648438 L 330.710938 380.628906 L 330.5625 381.003906 L 330.183594 381.195312 L 329.710938 381.132812 L 329.410156 380.863281 Z M 324.84375 341.332031 "/>
</g>
<g clip-path="url(#clip17)" clip-rule="nonzero">
<path style=" stroke:none;fill-rule:nonzero;fill:rgb(39.99939%,39.99939%,39.99939%);fill-opacity:0.3;" d="M 201.925781 354.484375 L 217.808594 314.148438 L 262.308594 335.882812 L 262.484375 335.515625 L 262.710938 335.675781 L 271.050781 320.136719 L 278.628906 302.324219 L 279.5 302.773438 L 311.792969 321.148438 L 320.066406 328.609375 L 328.628906 394.550781 L 329.261719 402.609375 L 325.625 403.519531 L 318.425781 405.035156 L 294.167969 414.507812 L 282.800781 420.953125 L 275.597656 418.679688 L 272.945312 416.023438 L 270.671875 409.203125 L 258.921875 401.621094 L 248.6875 384.945312 L 235.800781 377.367188 L 222.917969 372.816406 L 220.261719 364.101562 L 216.851562 361.449219 Z M 201.925781 354.484375 "/>
</g>
<path style=" stroke:none;fill-rule:nonzero;fill:rgb(39.99939%,39.99939%,39.99939%);fill-opacity:0.3;" d="M 181.582031 317.5 L 206.257812 332.691406 L 200.765625 346.296875 L 178.226562 322.121094 Z M 181.582031 317.5 "/>
<path style=" stroke:none;fill-rule:nonzero;fill:rgb(39.99939%,39.99939%,39.99939%);fill-opacity:0.3;" d="M 253.484375 329.21875 L 234.863281 320.113281 L 218.566406 312.148438 L 221.007812 306.484375 L 221.019531 306.492188 Z M 253.484375 329.21875 "/>
<path style=" stroke:none;fill-rule:nonzero;fill:rgb(39.99939%,39.99939%,39.99939%);fill-opacity:0.3;" d="M 0.960938 326.777344 L 47.230469 273.699219 L 70.058594 291.1875 L 22.894531 344.09375 Z M 0.960938 326.777344 "/>
<path style=" stroke:none;fill-rule:nonzero;fill:rgb(39.99939%,39.99939%,39.99939%);fill-opacity:0.3;" d="M -37.777344 296.191406 L 8.953125 243.011719 L 32.125 261.113281 L -15.175781 314.035156 Z M -37.777344 296.191406 "/>
<path style=" stroke:none;fill-rule:nonzero;fill:rgb(39.99939%,39.99939%,39.99939%);fill-opacity:0.3;" d="M -63.605469 275.46875 L -16.570312 223.082031 L 5 239.925781 L -42.167969 292.726562 Z M -63.605469 275.46875 "/>
<g clip-path="url(#clip18)" clip-rule="nonzero">
<path style=" stroke:none;fill-rule:nonzero;fill:rgb(39.99939%,39.99939%,39.99939%);fill-opacity:0.3;" d="M 130.148438 428.769531 L 108.035156 411.316406 L 153.226562 358.816406 L 175.902344 377.507812 Z M 130.148438 428.769531 "/>
</g>
<g clip-path="url(#clip19)" clip-rule="nonzero">
<path style=" stroke:none;fill-rule:nonzero;fill:rgb(39.99939%,39.99939%,39.99939%);fill-opacity:0.3;" d="M 126.753906 338.003906 L 149.75 356.175781 L 103.527344 407.753906 L 80.492188 389.746094 Z M 126.753906 338.003906 "/>
</g>
<g clip-path="url(#clip20)" clip-rule="nonzero">
<path style=" stroke:none;fill-rule:nonzero;fill:rgb(39.99939%,39.99939%,39.99939%);fill-opacity:0.3;" d="M 100.144531 316.605469 L 121.410156 333.707031 L 75.753906 385.824219 L 54.070312 368.707031 Z M 100.144531 316.605469 "/>
</g>
<g clip-path="url(#clip21)" clip-rule="nonzero">
<path style=" stroke:none;fill-rule:nonzero;fill:rgb(39.99939%,39.99939%,39.99939%);fill-opacity:0.3;" d="M 73.941406 295.53125 L 94.800781 312.308594 L 48.523438 364.328125 L 27.875 347.917969 Z M 73.941406 295.53125 "/>
</g>
<g clip-path="url(#clip22)" clip-rule="nonzero">
<path style=" stroke:none;fill-rule:nonzero;fill:rgb(39.99939%,39.99939%,39.99939%);fill-opacity:0.3;" d="M 23.296875 352.699219 L 44.496094 369.636719 L -1.457031 422.007812 L -22.894531 404.839844 Z M 23.296875 352.699219 "/>
</g>
<g clip-path="url(#clip23)" clip-rule="nonzero">
<path style=" stroke:none;fill-rule:nonzero;fill:rgb(39.99939%,39.99939%,39.99939%);fill-opacity:0.3;" d="M -3.179688 331.457031 L 18.582031 348.933594 L -27.773438 400.9375 L -49.359375 383.652344 Z M -3.179688 331.457031 "/>
</g>
<path style=" stroke:none;fill-rule:nonzero;fill:rgb(39.99939%,39.99939%,39.99939%);fill-opacity:0.3;" d="M 13.410156 90.675781 L 19.785156 101.269531 L 22.710938 107.484375 L 22.597656 111.035156 L 11.273438 126.507812 L -6.65625 156.652344 L -18.242188 171.992188 L -20.292969 170.617188 L -37.839844 159.058594 L -50.347656 150.722656 L -41.25 137.835938 L -34.429688 127.601562 L -25.710938 114.714844 L -16.617188 101.070312 L -6.003906 85.910156 L 3.851562 92.734375 L 12.1875 91.21875 Z M 13.410156 90.675781 "/>
<path style=" stroke:none;fill-rule:nonzero;fill:rgb(39.99939%,39.99939%,39.99939%);fill-opacity:0.3;" d="M 1.070312 116.042969 L 2.980469 119.710938 L 0.589844 120.96875 L 2.300781 124.296875 L -1.726562 126.183594 L -3.765625 122.351562 L -6.519531 123.71875 L -9.164062 118.921875 L -5.980469 117.332031 L -6.871094 115.742188 L -2.710938 113.824219 L -0.933594 116.964844 Z M 1.070312 116.042969 "/>
<path style=" stroke:none;fill-rule:nonzero;fill:rgb(39.99939%,39.99939%,39.99939%);fill-opacity:0.3;" d="M 13.785156 95.554688 L 16.433594 98.785156 L 14.355469 100.472656 L 16.734375 103.410156 L 13.1875 106.023438 L 10.378906 102.65625 L 7.96875 104.515625 L 4.367188 100.316406 L 7.152344 98.15625 L 5.945312 96.769531 L 9.617188 94.097656 L 12.019531 96.839844 Z M 13.785156 95.554688 "/>
<path style=" stroke:none;fill-rule:nonzero;fill:rgb(39.99939%,39.99939%,39.99939%);fill-opacity:0.3;" d="M -3.570312 92.097656 L 0.785156 94.648438 L -1.546875 97.957031 L 0.707031 99.246094 L -1.582031 102.910156 L -4.53125 101.175781 L -6.257812 103.710938 L -9.453125 101.992188 L -7.890625 99.503906 L -11.203125 97.550781 L -9.0625 93.953125 L -6 95.621094 Z M -3.570312 92.097656 "/>
<path style=" stroke:none;fill-rule:nonzero;fill:rgb(39.99939%,39.99939%,39.99939%);fill-opacity:0.3;" d="M 88.003906 116.234375 L 89.1875 115.449219 L 86.472656 117.746094 L 85.863281 117.300781 Z M 88.003906 116.234375 "/>
<path style=" stroke:none;fill-rule:nonzero;fill:rgb(39.99939%,39.99939%,39.99939%);fill-opacity:0.3;" d="M 93 105.324219 L 89.453125 111.703125 L 85.945312 114.976562 L 83.84375 115.828125 L 75.140625 109.484375 L 81.621094 99.972656 Z M 93 105.324219 "/>
<path style=" stroke:none;fill-rule:nonzero;fill:rgb(39.99939%,39.99939%,39.99939%);fill-opacity:0.3;" d="M 25.753906 16.769531 L 30.019531 17.527344 L 27.960938 32.15625 L 25.503906 31.738281 Z M 25.753906 16.769531 "/>
<path style=" stroke:none;fill-rule:nonzero;fill:rgb(39.99939%,39.99939%,39.99939%);fill-opacity:0.3;" d="M 32.953125 17.222656 L 37.691406 18.109375 L 31.882812 49.945312 L 28.027344 49.371094 Z M 32.953125 17.222656 "/>
<path style=" stroke:none;fill-rule:nonzero;fill:rgb(39.99939%,39.99939%,39.99939%);fill-opacity:0.3;" d="M 25.777344 33.007812 L 30.078125 33.578125 L 27.644531 48.652344 L 25.230469 48.078125 L 25.445312 35.308594 Z M 25.777344 33.007812 "/>
<path style=" stroke:none;fill-rule:nonzero;fill:rgb(39.99939%,39.99939%,39.99939%);fill-opacity:0.3;" d="M 27.128906 57.652344 L 26.671875 56.882812 L 40.9375 58.578125 L 41.007812 58.683594 L 39.097656 58.621094 Z M 27.128906 57.652344 "/>
<path style=" stroke:none;fill-rule:nonzero;fill:rgb(39.99939%,39.99939%,39.99939%);fill-opacity:0.3;" d="M 42.515625 58.734375 L 42.375 58.523438 L 44.476562 58.722656 L 44.425781 58.253906 L 44.402344 57.746094 L 25.238281 55 L 25.117188 54.980469 L 25.785156 14.785156 L 46.015625 19.699219 L 57.265625 22.277344 L 50.847656 59 Z M 42.515625 58.734375 "/>
<path style=" stroke:none;fill-rule:nonzero;fill:rgb(39.99939%,39.99939%,39.99939%);fill-opacity:0.3;" d="M 23.527344 16.375 L 25.753906 16.769531 L 25.503906 31.738281 L 21.632812 31.085938 Z M 23.527344 16.375 "/>
<path style=" stroke:none;fill-rule:nonzero;fill:rgb(39.99939%,39.99939%,39.99939%);fill-opacity:0.3;" d="M 25.230469 48.078125 L 14.207031 45.46875 L 14.84375 42.238281 L 24.117188 44.449219 L 25.445312 35.308594 Z M 25.230469 48.078125 "/>
<path style=" stroke:none;fill-rule:nonzero;fill:rgb(39.99939%,39.99939%,39.99939%);fill-opacity:0.3;" d="M 22.371094 56.171875 L 24.121094 56.523438 L 24.554688 57.234375 Z M 22.371094 56.171875 "/>
<path style=" stroke:none;fill-rule:nonzero;fill:rgb(39.99939%,39.99939%,39.99939%);fill-opacity:0.3;" d="M 25.117188 54.980469 L 16.835938 53.484375 L 15.457031 52.816406 L 14.484375 51.453125 L 12.828125 50.34375 L 11.929688 49.890625 L 12.824219 41.160156 L 13.035156 39.820312 L 14.230469 30.8125 L 16.894531 12.625 L 25.785156 14.785156 Z M 25.117188 54.980469 "/>
<path style=" stroke:none;fill-rule:nonzero;fill:rgb(39.99939%,39.99939%,39.99939%);fill-opacity:0.3;" d="M 8.667969 40.507812 L 7.957031 47.578125 L -7.324219 47.570312 L -7.179688 40.277344 Z M 8.667969 40.507812 "/>
<path style="fill-rule:nonzero;fill:rgb(39.99939%,39.99939%,39.99939%);fill-opacity:1;stroke-width:0.03;stroke-linecap:square;stroke-linejoin:miter;stroke:rgb(39.99939%,39.99939%,39.99939%);stroke-opacity:1;stroke-miterlimit:3.239307;" d="M 339.789062 206.800781 L 339.53125 206.414062 L 342.097656 203.414062 L 353.710938 198.496094 L 360.828125 194.964844 L 368.78125 189.273438 L 377.90625 183.59375 L 382.257812 182.023438 L 382.570312 183.050781 L 379.917969 184.566406 L 357.9375 196.695312 L 348.082031 201.621094 L 342.777344 204.273438 Z M 339.789062 206.800781 " transform="matrix(1,0,0,1,-74,-13)"/>
<path style="fill-rule:nonzero;fill:rgb(39.99939%,39.99939%,39.99939%);fill-opacity:1;stroke-width:0.03;stroke-linecap:square;stroke-linejoin:miter;stroke:rgb(39.99939%,39.99939%,39.99939%);stroke-opacity:1;stroke-miterlimit:3.239307;" d="M 291.089844 221.289062 L 303.25 218.625 L 303.574219 219.15625 Z M 291.089844 221.289062 " transform="matrix(1,0,0,1,-74,-13)"/>
<path style="fill-rule:nonzero;fill:rgb(39.99939%,39.99939%,39.99939%);fill-opacity:1;stroke-width:0.03;stroke-linecap:square;stroke-linejoin:miter;stroke:rgb(39.99939%,39.99939%,39.99939%);stroke-opacity:1;stroke-miterlimit:3.239307;" d="M 290.683594 221.378906 L 290.777344 221.359375 L 290.691406 221.390625 Z M 290.683594 221.378906 " transform="matrix(1,0,0,1,-74,-13)"/>
<path style="fill-rule:nonzero;fill:rgb(39.99939%,39.99939%,39.99939%);fill-opacity:1;stroke-width:0.03;stroke-linecap:square;stroke-linejoin:miter;stroke:rgb(39.99939%,39.99939%,39.99939%);stroke-opacity:1;stroke-miterlimit:3.239307;" d="M 306.707031 218.59375 L 320.425781 215.816406 L 320.582031 216.472656 L 312.835938 217.539062 L 306.71875 218.617188 Z M 306.707031 218.59375 " transform="matrix(1,0,0,1,-74,-13)"/>
<path style="fill-rule:nonzero;fill:rgb(39.99939%,39.99939%,39.99939%);fill-opacity:1;stroke-width:0.03;stroke-linecap:square;stroke-linejoin:miter;stroke:rgb(39.99939%,39.99939%,39.99939%);stroke-opacity:1;stroke-miterlimit:3.239307;" d="M 283.128906 224.191406 L 286.910156 222.492188 L 287.058594 222.734375 Z M 283.128906 224.191406 " transform="matrix(1,0,0,1,-74,-13)"/>
<path style="fill-rule:nonzero;fill:rgb(39.99939%,39.99939%,39.99939%);fill-opacity:1;stroke-width:0.03;stroke-linecap:square;stroke-linejoin:miter;stroke:rgb(39.99939%,39.99939%,39.99939%);stroke-opacity:1;stroke-miterlimit:3.239307;" d="M 269.71875 98.894531 L 270.101562 100.089844 L 270.710938 104.464844 L 270.429688 110.101562 L 269.339844 115.675781 L 268.335938 121.847656 L 266.285156 126.710938 L 262.074219 130.597656 L 253.367188 138.378906 L 251.054688 139.011719 L 247.714844 138.75 L 243.652344 137.582031 L 239.234375 136.824219 L 236.109375 136.683594 L 232.796875 136.277344 L 228.332031 135.898438 L 228.097656 134.519531 L 235.671875 121.332031 L 243.449219 110.738281 L 250.714844 105.652344 L 267.769531 95.40625 L 269.25 98.152344 Z M 269.71875 98.894531 " transform="matrix(1,0,0,1,-74,-13)"/>
<path style="fill-rule:nonzero;fill:rgb(39.99939%,39.99939%,39.99939%);fill-opacity:1;stroke-width:0.03;stroke-linecap:square;stroke-linejoin:miter;stroke:rgb(39.99939%,39.99939%,39.99939%);stroke-opacity:1;stroke-miterlimit:3.239307;" d="M 336.328125 158.136719 L 334.730469 169.535156 L 335.144531 169.589844 L 335.605469 169.648438 L 337.1875 158.367188 L 378.402344 169.40625 L 381.582031 179.808594 L 380.765625 180.042969 L 380.839844 177.921875 L 369.445312 177.609375 L 369.464844 178.289062 L 369.460938 179.082031 L 379.011719 179.214844 L 379.101562 180.808594 L 372.148438 185.066406 L 366.753906 188.074219 L 358.488281 193.5 L 346.035156 198.863281 L 343.785156 191.96875 L 343.207031 185.117188 L 338.519531 179.34375 L 325.40625 174.503906 L 321.085938 174.640625 L 321.203125 175.320312 L 321.277344 175.859375 L 325.65625 175.746094 L 337.714844 180.363281 L 342.25 185.5 L 342.566406 192.128906 L 344.789062 199.535156 L 339.195312 203.664062 L 331.875 211.570312 L 325.382812 214.546875 L 316.386719 214.328125 L 317.964844 208.105469 L 325.742188 194.886719 L 323.28125 188.28125 L 321.714844 188.835938 L 320.324219 189.335938 L 322.351562 195.242188 L 311.890625 214.964844 L 285.019531 220.25 L 284.957031 219.023438 L 301.050781 200.789062 L 299.460938 200.285156 L 298.214844 199.800781 L 277.242188 223.808594 L 270.742188 227.039062 L 263.277344 230.699219 L 252.476562 234.785156 L 240.613281 236.929688 L 254.320312 219.007812 L 251.929688 217.421875 L 236.9375 237.460938 L 231.128906 237.921875 L 227.632812 238.714844 L 223.441406 241.4375 L 221.871094 243.746094 L 218.40625 248.339844 L 209.375 260.144531 L 203.210938 267.726562 L 196.542969 277.203125 L 190.824219 284.273438 L 188.636719 287.273438 L 188.554688 289.53125 L 189.433594 295.429688 L 189.042969 301.679688 L 187.949219 307.019531 L 180.914062 315.574219 L 175.058594 321.570312 L 148.085938 300.078125 L 125.429688 283.820312 L 134.945312 267.882812 L 146.84375 252.757812 L 164.402344 229.445312 L 175.480469 218.761719 L 185.234375 208.957031 L 194.070312 199.15625 L 202.898438 185.679688 L 209.230469 172.671875 L 226.984375 138.5 L 228.984375 137.550781 L 232.460938 137.878906 L 235.632812 138.296875 L 238.984375 138.5 L 241.121094 138.660156 L 243.582031 139.347656 L 247.175781 140.347656 L 251.410156 140.976562 L 254.242188 140.199219 L 264.222656 131.867188 L 265.121094 131.957031 L 265.742188 132.191406 L 265.839844 132.265625 L 267.355469 137.949219 L 267.730469 138.605469 L 267.914062 139.40625 L 269.589844 143.621094 L 270.949219 144.34375 L 271.21875 144.253906 L 272.28125 145.527344 L 283.421875 158.984375 L 287.289062 174.445312 L 313.972656 167.09375 L 335.953125 158.035156 Z M 336.328125 158.136719 " transform="matrix(1,0,0,1,-74,-13)"/>
<path style=" stroke:none;fill-rule:evenodd;fill:rgb(85.096741%,85.096741%,81.959534%);fill-opacity:0.7;" d="M 100.160156 66 C 100.160156 61.980469 98.5625 58.125 95.71875 55.28125 C 92.875 52.4375 89.019531 50.839844 85 50.839844 C 80.980469 50.839844 77.125 52.4375 74.28125 55.28125 C 71.4375 58.125 69.839844 61.980469 69.839844 66 C 69.839844 70.019531 71.4375 73.875 74.28125 76.71875 C 77.125 79.5625 80.980469 81.160156 85 81.160156 C 89.019531 81.160156 92.875 79.5625 95.71875 76.71875 C 98.5625 73.875 100.160156 70.019531 100.160156 66 Z M 100.160156 66 "/>
<path style=" stroke:none;fill-rule:evenodd;fill:rgb(85.096741%,85.096741%,81.959534%);fill-opacity:0.7;" d="M 156.160156 28 C 156.160156 23.980469 154.5625 20.125 151.71875 17.28125 C 148.875 14.4375 145.019531 12.839844 141 12.839844 C 136.980469 12.839844 133.125 14.4375 130.28125 17.28125 C 127.4375 20.125 125.839844 23.980469 125.839844 28 C 125.839844 32.019531 127.4375 35.875 130.28125 38.71875 C 133.125 41.5625 136.980469 43.160156 141 43.160156 C 145.019531 43.160156 148.875 41.5625 151.71875 38.71875 C 154.5625 35.875 156.160156 32.019531 156.160156 28 Z M 156.160156 28 "/>
<path style=" stroke:none;fill-rule:evenodd;fill:rgb(85.096741%,85.096741%,81.959534%);fill-opacity:0.7;" d="M 353.160156 7 C 353.160156 2.980469 351.5625 -0.875 348.71875 -3.71875 C 345.875 -6.5625 342.019531 -8.160156 338 -8.160156 C 333.980469 -8.160156 330.125 -6.5625 327.28125 -3.71875 C 324.4375 -0.875 322.839844 2.980469 322.839844 7 C 322.839844 11.019531 324.4375 14.875 327.28125 17.71875 C 330.125 20.5625 333.980469 22.160156 338 22.160156 C 342.019531 22.160156 345.875 20.5625 348.71875 17.71875 C 351.5625 14.875 353.160156 11.019531 353.160156 7 Z M 353.160156 7 "/>
<path style=" stroke:none;fill-rule:evenodd;fill:rgb(85.096741%,85.096741%,81.959534%);fill-opacity:0.7;" d="M 340.160156 -12 C 340.160156 -16.019531 338.5625 -19.875 335.71875 -22.71875 C 332.875 -25.5625 329.019531 -27.160156 325 -27.160156 C 320.980469 -27.160156 317.125 -25.5625 314.28125 -22.71875 C 311.4375 -19.875 309.839844 -16.019531 309.839844 -12 C 309.839844 -7.980469 311.4375 -4.125 314.28125 -1.28125 C 317.125 1.5625 320.980469 3.160156 325 3.160156 C 329.019531 3.160156 332.875 1.5625 335.71875 -1.28125 C 338.5625 -4.125 340.160156 -7.980469 340.160156 -12 Z M 340.160156 -12 "/>
<path style=" stroke:none;fill-rule:evenodd;fill:rgb(85.096741%,85.096741%,81.959534%);fill-opacity:0.7;" d="M 68.160156 8 C 68.160156 3.980469 66.5625 0.125 63.71875 -2.71875 C 60.875 -5.5625 57.019531 -7.160156 53 -7.160156 C 48.980469 -7.160156 45.125 -5.5625 42.28125 -2.71875 C 39.4375 0.125 37.839844 3.980469 37.839844 8 C 37.839844 12.019531 39.4375 15.875 42.28125 18.71875 C 45.125 21.5625 48.980469 23.160156 53 23.160156 C 57.019531 23.160156 60.875 21.5625 63.71875 18.71875 C 66.5625 15.875 68.160156 12.019531 68.160156 8 Z M 68.160156 8 "/>
<path style="fill-rule:nonzero;fill:rgb(99.998474%,99.998474%,30.587769%);fill-opacity:0.8;stroke-width:0.288;stroke-linecap:square;stroke-linejoin:miter;stroke:rgb(0%,0%,0%);stroke-opacity:0.8;stroke-miterlimit:3.25;" d="M 188.898438 133.78125 L 156.078125 190.628906 L 221.722656 190.628906 Z M 188.898438 133.78125 " transform="matrix(1,0,0,1,-74,-13)"/>
</g>
</svg>
