<?xml version="1.0" encoding="UTF-8"?>
<svg xmlns="http://www.w3.org/2000/svg" xmlns:xlink="http://www.w3.org/1999/xlink" width="361pt" height="361pt" viewBox="0 0 361 361" version="1.1">
<defs>
<clipPath id="clip1">
  <path d="M 101 310 L 176 310 L 176 360 L 101 360 Z M 101 310 "/>
</clipPath>
<clipPath id="clip2">
  <path d="M 176 315 L 248 315 L 248 360 L 176 360 Z M 176 315 "/>
</clipPath>
<clipPath id="clip3">
  <path d="M 246 318 L 313 318 L 313 360 L 246 360 Z M 246 318 "/>
</clipPath>
<clipPath id="clip4">
  <path d="M 351 180 L 360 180 L 360 245 L 351 245 Z M 351 180 "/>
</clipPath>
<clipPath id="clip5">
  <path d="M 346 246 L 360 246 L 360 320 L 346 320 Z M 346 246 "/>
</clipPath>
<clipPath id="clip6">
  <path d="M 317 321 L 360 321 L 360 360 L 317 360 Z M 317 321 "/>
</clipPath>
</defs>
<g id="surface7875">
<path style="fill-rule:nonzero;fill:rgb(0%,0%,0%);fill-opacity:1;stroke-width:0.03;stroke-linecap:square;stroke-linejoin:miter;stroke:rgb(0%,0%,0%);stroke-opacity:1;stroke-miterlimit:10;" d="M 0 178 L 360 178 L 360 -182 L 0 -182 Z M 0 178 " transform="matrix(1,0,0,1,0,182)"/>
<path style=" stroke:none;fill-rule:nonzero;fill:rgb(39.99939%,39.99939%,39.99939%);fill-opacity:0.3;" d="M 68.121094 -6.691406 L 130.324219 -3.507812 L 124.882812 71.71875 L 65.171875 67.773438 L 63.554688 65.992188 Z M 68.121094 -6.691406 "/>
<path style=" stroke:none;fill-rule:nonzero;fill:rgb(39.99939%,39.99939%,39.99939%);fill-opacity:0.3;" d="M 51.429688 221.019531 L 51.296875 221.015625 L 51.628906 216.933594 Z M 51.429688 221.019531 "/>
<path style=" stroke:none;fill-rule:nonzero;fill:rgb(39.99939%,39.99939%,39.99939%);fill-opacity:0.3;" d="M 62.292969 70.320312 L 123.054688 76.347656 L 117.148438 155.640625 L 56.074219 151.15625 Z M 62.292969 70.320312 "/>
<path style=" stroke:none;fill-rule:nonzero;fill:rgb(39.99939%,39.99939%,39.99939%);fill-opacity:0.3;" d="M 130.773438 76.792969 L 194.722656 80.078125 L 189.65625 156.820312 L 126.058594 153.023438 Z M 130.773438 76.792969 "/>
<path style=" stroke:none;fill-rule:nonzero;fill:rgb(39.99939%,39.99939%,39.99939%);fill-opacity:0.3;" d="M 141.796875 -4.625 L 200.195312 -1.917969 L 194.800781 75.609375 L 174.390625 75.046875 L 130.980469 72.089844 L 136.707031 -0.933594 L 138.570312 -2.839844 Z M 141.796875 -4.625 "/>
<path style=" stroke:none;fill-rule:nonzero;fill:rgb(39.99939%,39.99939%,39.99939%);fill-opacity:0.3;" d="M 202.726562 80.699219 L 240.492188 84.410156 L 256.238281 83.628906 L 264.882812 84.179688 L 262.355469 124.648438 L 251.472656 122.945312 L 251.484375 123.671875 L 251.492188 124.632812 L 262.097656 126.480469 L 259.195312 162.234375 L 195.910156 156.902344 Z M 202.726562 80.699219 "/>
<path style=" stroke:none;fill-rule:nonzero;fill:rgb(39.99939%,39.99939%,39.99939%);fill-opacity:0.3;" d="M 209.5625 -0.015625 L 272.703125 3.546875 L 264.878906 79.523438 L 202.4375 76.78125 Z M 209.5625 -0.015625 "/>
<path style=" stroke:none;fill-rule:nonzero;fill:rgb(39.99939%,39.99939%,39.99939%);fill-opacity:0.3;" d="M -12.226562 152.828125 L 52.359375 156.9375 L 48.496094 220.863281 L -16.515625 216.320312 Z M -12.226562 152.828125 "/>
<path style=" stroke:none;fill-rule:nonzero;fill:rgb(39.99939%,39.99939%,39.99939%);fill-opacity:0.3;" d="M -7.03125 68.597656 L 58.914062 74.335938 L 53.109375 151.003906 L -11.074219 146.546875 Z M -7.03125 68.597656 "/>
<path style=" stroke:none;fill-rule:nonzero;fill:rgb(39.99939%,39.99939%,39.99939%);fill-opacity:0.3;" d="M 0.386719 -11.261719 L 65.425781 -7.179688 L 59.257812 68.628906 L 56.683594 70.4375 L 41.214844 69.976562 L -8.003906 64.546875 Z M 0.386719 -11.261719 "/>
<g clip-path="url(#clip1)" clip-rule="nonzero">
<path style=" stroke:none;fill-rule:nonzero;fill:rgb(39.99939%,39.99939%,39.99939%);fill-opacity:0.3;" d="M 113.695312 312.855469 L 115.34375 310.058594 L 175.058594 313.839844 L 175.726562 317.332031 L 172.703125 397.339844 L 171.476562 408.75 L 167.617188 471.375 L 165.308594 472.679688 L 102.238281 461.78125 L 102.589844 446.351562 L 101.238281 444.058594 L 111.476562 336.226562 L 112.234375 330.027344 L 112.324219 327.304688 Z M 113.695312 312.855469 "/>
</g>
<g clip-path="url(#clip2)" clip-rule="nonzero">
<path style=" stroke:none;fill-rule:nonzero;fill:rgb(39.99939%,39.99939%,39.99939%);fill-opacity:0.3;" d="M 180.820312 316.820312 L 182.941406 315.03125 L 247.109375 318.191406 L 245.96875 337 L 223.78125 335.074219 L 223.484375 337.34375 L 223.191406 339.613281 L 245.371094 341.460938 L 242.382812 396.1875 L 176.246094 396.519531 Z M 180.820312 316.820312 "/>
</g>
<g clip-path="url(#clip3)" clip-rule="nonzero">
<path style=" stroke:none;fill-rule:nonzero;fill:rgb(39.99939%,39.99939%,39.99939%);fill-opacity:0.3;" d="M 253.097656 318.453125 L 312.128906 320.304688 L 310.441406 399.070312 L 246.441406 395.914062 Z M 253.097656 318.453125 "/>
</g>
<g clip-path="url(#clip4)" clip-rule="nonzero">
<path style=" stroke:none;fill-rule:nonzero;fill:rgb(39.99939%,39.99939%,39.99939%);fill-opacity:0.3;" d="M 354.167969 180.957031 L 399.972656 183.066406 L 398.683594 244.105469 L 351.355469 242.011719 Z M 354.167969 180.957031 "/>
</g>
<g clip-path="url(#clip5)" clip-rule="nonzero">
<path style=" stroke:none;fill-rule:nonzero;fill:rgb(39.99939%,39.99939%,39.99939%);fill-opacity:0.3;" d="M 352.175781 246.691406 L 398.507812 248.6875 L 393.832031 319.398438 L 346.847656 314.464844 Z M 352.175781 246.691406 "/>
</g>
<path style=" stroke:none;fill-rule:nonzero;fill:rgb(39.99939%,39.99939%,39.99939%);fill-opacity:0.3;" d="M 318.179688 178.753906 L 319.542969 177.160156 L 345.800781 179.167969 L 346.960938 180.601562 L 339.78125 308.75 L 337.75 310.140625 L 336.964844 310.964844 L 316.160156 309.816406 L 313.792969 307.847656 L 312.164062 304.960938 Z M 318.179688 178.753906 "/>
<path style=" stroke:none;fill-rule:nonzero;fill:rgb(39.99939%,39.99939%,39.99939%);fill-opacity:0.3;" d="M 321.734375 320.972656 L 335.816406 321.753906 L 320.96875 345.582031 Z M 321.734375 320.972656 "/>
<g clip-path="url(#clip6)" clip-rule="nonzero">
<path style=" stroke:none;fill-rule:nonzero;fill:rgb(39.99939%,39.99939%,39.99939%);fill-opacity:0.3;" d="M 341.949219 321.703125 L 393.242188 327.882812 L 391.042969 348.269531 L 373.078125 346.179688 L 373.007812 347.457031 L 372.945312 348.601562 L 390.734375 351.003906 L 388.351562 372.21875 L 373.507812 371.101562 L 373.460938 372.886719 L 373.410156 374.882812 L 387.929688 375.984375 L 384.394531 407.441406 L 317.023438 399.433594 L 318.183594 379.617188 L 333.402344 381.003906 L 333.558594 379.144531 L 333.714844 377.28125 L 318.417969 375.890625 L 320.464844 356.859375 Z M 341.949219 321.703125 "/>
</g>
<path style=" stroke:none;fill-rule:nonzero;fill:rgb(39.99939%,39.99939%,39.99939%);fill-opacity:0.3;" d="M 56.53125 156.367188 L 116.636719 160.574219 L 115.167969 223.027344 L 51.429688 221.019531 L 51.628906 216.933594 Z M 56.53125 156.367188 "/>
<path style=" stroke:none;fill-rule:nonzero;fill:rgb(39.99939%,39.99939%,39.99939%);fill-opacity:0.3;" d="M 123.828125 224.308594 L 124.867188 160.910156 L 209.945312 166.367188 L 264.449219 169.859375 L 306.113281 176.574219 L 308.570312 178.679688 L 306.6875 233.160156 L 305.371094 234.527344 L 302.777344 234.988281 Z M 123.828125 224.308594 "/>
<path style=" stroke:none;fill-rule:nonzero;fill:rgb(39.99939%,39.99939%,39.99939%);fill-opacity:0.3;" d="M 123.695312 232.402344 L 303.183594 242.652344 L 304.859375 245.289062 L 302.035156 304.949219 L 299.746094 308.570312 L 171.886719 304.042969 L 120.03125 302.144531 Z M 123.695312 232.402344 "/>
<path style="fill-rule:nonzero;fill:rgb(39.99939%,39.99939%,39.99939%);fill-opacity:1;stroke-width:0.03;stroke-linecap:square;stroke-linejoin:miter;stroke:rgb(39.99939%,39.99939%,39.99939%);stroke-opacity:1;stroke-miterlimit:3.239307;" d="M 130.53125 169.367188 L 190.636719 173.574219 L 189.167969 236.027344 L 125.429688 234.019531 L 125.628906 229.933594 Z M 130.53125 169.367188 " transform="matrix(1,0,0,1,-74,-13)"/>
<path style="fill-rule:nonzero;fill:rgb(39.99939%,39.99939%,39.99939%);fill-opacity:1;stroke-width:0.03;stroke-linecap:square;stroke-linejoin:miter;stroke:rgb(39.99939%,39.99939%,39.99939%);stroke-opacity:1;stroke-miterlimit:3.239307;" d="M 197.828125 237.308594 L 198.867188 173.910156 L 283.945312 179.367188 L 338.449219 182.859375 L 380.113281 189.574219 L 382.570312 191.679688 L 380.6875 246.160156 L 379.371094 247.527344 L 376.777344 247.988281 Z M 197.828125 237.308594 " transform="matrix(1,0,0,1,-74,-13)"/>
<path style="fill-rule:nonzero;fill:rgb(39.99939%,39.99939%,39.99939%);fill-opacity:1;stroke-width:0.03;stroke-linecap:square;stroke-linejoin:miter;stroke:rgb(39.99939%,39.99939%,39.99939%);stroke-opacity:1;stroke-miterlimit:3.239307;" d="M 197.695312 245.402344 L 377.183594 255.652344 L 378.859375 258.289062 L 376.035156 317.949219 L 373.746094 321.570312 L 245.886719 317.042969 L 194.03125 315.144531 Z M 197.695312 245.402344 " transform="matrix(1,0,0,1,-74,-13)"/>
</g>
</svg>
