<?xml version="1.0" encoding="UTF-8"?>
<svg xmlns="http://www.w3.org/2000/svg" xmlns:xlink="http://www.w3.org/1999/xlink" width="361pt" height="361pt" viewBox="0 0 361 361" version="1.1">
<defs>
<clipPath id="clip1">
  <path d="M 354 170 L 360 170 L 360 214 L 354 214 Z M 354 170 "/>
</clipPath>
<clipPath id="clip2">
  <path d="M 323 0 L 360 0 L 360 16 L 323 16 Z M 323 0 "/>
</clipPath>
<clipPath id="clip3">
  <path d="M 315 131 L 360 131 L 360 190 L 315 190 Z M 315 131 "/>
</clipPath>
<clipPath id="clip4">
  <path d="M 325 84 L 360 84 L 360 123 L 325 123 Z M 325 84 "/>
</clipPath>
<clipPath id="clip5">
  <path d="M 340 107 L 360 107 L 360 137 L 340 137 Z M 340 107 "/>
</clipPath>
<clipPath id="clip6">
  <path d="M 313 69 L 360 69 L 360 111 L 313 111 Z M 313 69 "/>
</clipPath>
<clipPath id="clip7">
  <path d="M 333 54 L 360 54 L 360 78 L 333 78 Z M 333 54 "/>
</clipPath>
<clipPath id="clip8">
  <path d="M 349 39 L 360 39 L 360 81 L 349 81 Z M 349 39 "/>
</clipPath>
<clipPath id="clip9">
  <path d="M 336 0 L 360 0 L 360 42 L 336 42 Z M 336 0 "/>
</clipPath>
<clipPath id="clip10">
  <path d="M 328 204 L 360 204 L 360 244 L 328 244 Z M 328 204 "/>
</clipPath>
<clipPath id="clip11">
  <path d="M 352 219 L 360 219 L 360 253 L 352 253 Z M 352 219 "/>
</clipPath>
</defs>
<g id="surface1092">
<path style="fill-rule:nonzero;fill:rgb(0%,0%,0%);fill-opacity:1;stroke-width:0.03;stroke-linecap:square;stroke-linejoin:miter;stroke:rgb(0%,0%,0%);stroke-opacity:1;stroke-miterlimit:10;" d="M 0 178 L 360 178 L 360 -182 L 0 -182 Z M 0 178 " transform="matrix(1,0,0,1,0,182)"/>
<path style=" stroke:none;fill-rule:nonzero;fill:rgb(39.99939%,39.99939%,39.99939%);fill-opacity:0.3;" d="M 126.703125 306.050781 L 126.757812 300.226562 L 127.394531 288.902344 L 127.476562 282.320312 L 127.003906 277.753906 L 127.566406 274.160156 L 127.75 270.566406 L 128.121094 265.175781 L 129.308594 260.5 L 130.960938 252.964844 L 135.890625 239.496094 L 137.550781 235.632812 L 143.222656 231.3125 L 149.847656 228.25 L 154.957031 228.066406 L 159.125 228.597656 L 162.722656 229.3125 L 156.914062 235.753906 L 170.84375 253.226562 L 171.5625 252.511719 L 172.277344 251.792969 L 159.410156 235.175781 L 164.429688 230.027344 L 170.730469 239.789062 L 174.246094 244.777344 L 177.101562 248.515625 L 178.859375 252.050781 L 182.597656 257.246094 L 185.453125 261.402344 L 168.691406 262.347656 L 163.480469 258.265625 L 161.917969 258.851562 L 168.542969 264.164062 L 181.617188 263.277344 L 186.550781 262.859375 L 189.621094 263.269531 L 195.101562 263.472656 L 203.65625 263.460938 L 209.355469 262.203125 L 215.050781 260.117188 L 218.304688 258.65625 L 223.160156 255.53125 L 229.515625 253.027344 L 233.800781 270.988281 L 215.574219 279.292969 L 215.910156 280.128906 L 216.195312 280.84375 L 233.882812 273.09375 L 237.351562 285.011719 L 253.890625 278.632812 L 276.871094 269.875 L 281.082031 281.71875 L 260.042969 289.234375 L 240.292969 296.160156 L 225.414062 300.304688 L 213.527344 302.820312 L 199.597656 305.398438 L 176.863281 306.1875 L 178.683594 302.824219 L 189.015625 299.105469 L 222.335938 292.820312 L 222.332031 291.882812 L 222.332031 290.949219 L 180.242188 298.074219 L 178.703125 294.957031 L 176.289062 292.464844 L 173.652344 290.804688 L 169.925781 290.808594 L 167.078125 292.476562 L 165.546875 293.726562 L 164.890625 295.597656 L 165.492188 296.363281 L 166.273438 296.539062 L 166.824219 296.839844 L 167.007812 297.929688 L 167.375 298.449219 L 168.84375 298.144531 L 169.300781 297.753906 L 169.714844 297.492188 L 170.355469 297.359375 L 171.183594 297.574219 L 173.382812 298.398438 L 175.585938 297.960938 L 177.144531 298.351562 L 177.925781 298.785156 L 178.492188 299.535156 L 171.847656 306.316406 L 160.761719 306.613281 L 149.03125 306.582031 L 140.460938 306.496094 Z M 126.703125 306.050781 "/>
<path style=" stroke:none;fill-rule:nonzero;fill:rgb(39.99939%,39.99939%,39.99939%);fill-opacity:0.3;" d="M 52.589844 302.855469 L 58.195312 305.832031 L 58.757812 307.097656 L 58.726562 308.398438 L 58.652344 308.570312 Z M 52.589844 302.855469 "/>
<path style=" stroke:none;fill-rule:nonzero;fill:rgb(39.99939%,39.99939%,39.99939%);fill-opacity:0.3;" d="M 63.570312 271.582031 L 64.179688 271.738281 L 58.511719 281.574219 Z M 63.570312 271.582031 "/>
<path style=" stroke:none;fill-rule:nonzero;fill:rgb(39.99939%,39.99939%,39.99939%);fill-opacity:0.3;" d="M 126.660156 300.207031 L 126.664062 306.046875 L 122.5 305.78125 L 118.902344 304.527344 L 107.855469 304.882812 L 102.410156 304.644531 L 98.515625 304.03125 L 94.753906 302.4375 L 93.964844 295.671875 L 122.472656 286.558594 L 123.226562 282.605469 L 127.191406 282.421875 L 127.207031 288.890625 Z M 126.660156 300.207031 "/>
<path style=" stroke:none;fill-rule:nonzero;fill:rgb(39.99939%,39.99939%,39.99939%);fill-opacity:0.3;" d="M 67.324219 271.351562 L 79.773438 278.425781 L 73.503906 290.03125 L 67.058594 301.476562 L 61.472656 303.96875 L 55.710938 300.878906 L 51.429688 298.757812 Z M 67.324219 271.351562 "/>
<path style=" stroke:none;fill-rule:nonzero;fill:rgb(39.99939%,39.99939%,39.99939%);fill-opacity:0.3;" d="M 82.996094 281.085938 L 95.089844 288.253906 L 90.738281 294.800781 L 89.6875 297.074219 L 92.625 299.132812 L 93.160156 305.429688 L 87.496094 305.433594 L 87.238281 303.511719 L 80.027344 303.882812 L 75.214844 303.167969 L 71.671875 300.652344 Z M 82.996094 281.085938 "/>
<path style=" stroke:none;fill-rule:nonzero;fill:rgb(39.99939%,39.99939%,39.99939%);fill-opacity:0.3;" d="M 96.492188 289.121094 L 101.089844 282.046875 L 107.328125 271.984375 L 114.914062 257.539062 L 126.027344 261.429688 L 123.632812 273.253906 L 119.441406 284.589844 L 96.492188 292.085938 L 94.042969 292.882812 Z M 96.492188 289.121094 "/>
<path style=" stroke:none;fill-rule:nonzero;fill:rgb(39.99939%,39.99939%,39.99939%);fill-opacity:0.3;" d="M 112.957031 220.25 L 122.664062 234.40625 L 112.195312 253.035156 L 108.332031 251.207031 L 104.039062 249.105469 L 100.128906 247.160156 Z M 112.957031 220.25 "/>
<path style=" stroke:none;fill-rule:nonzero;fill:rgb(39.99939%,39.99939%,39.99939%);fill-opacity:0.3;" d="M 96.492188 248.269531 L 96.964844 248.527344 L 96.492188 249.355469 L 81.480469 275.542969 L 66.820312 267.765625 L 82.488281 240.675781 Z M 96.492188 248.269531 "/>
<path style=" stroke:none;fill-rule:nonzero;fill:rgb(39.99939%,39.99939%,39.99939%);fill-opacity:0.3;" d="M 96.492188 254.253906 L 99.148438 249.648438 L 104.984375 252.335938 L 111.53125 255.652344 L 96.648438 285.3125 L 96.492188 285.261719 L 91.3125 283.570312 L 86.898438 280.378906 L 83.261719 277.183594 Z M 96.492188 254.253906 "/>
<path style=" stroke:none;fill-rule:nonzero;fill:rgb(39.99939%,39.99939%,39.99939%);fill-opacity:0.3;" d="M 135.847656 239.476562 L 130.945312 252.957031 L 129.25 260.503906 L 114.664062 255.320312 L 122.550781 238.824219 L 125.660156 234.882812 L 120.007812 226.082031 L 139.246094 214.316406 L 147.886719 226.226562 L 139.160156 231.742188 L 136.410156 234.015625 L 133.199219 237.792969 L 134.519531 238.632812 Z M 135.847656 239.476562 "/>
<path style=" stroke:none;fill-rule:nonzero;fill:rgb(39.99939%,39.99939%,39.99939%);fill-opacity:0.3;" d="M 234.476562 218.453125 L 235.023438 225.222656 L 229.601562 227.988281 L 222.824219 231.492188 L 215.855469 234.808594 L 209.371094 235.726562 L 205.292969 236.199219 Z M 234.476562 218.453125 "/>
<path style=" stroke:none;fill-rule:nonzero;fill:rgb(39.99939%,39.99939%,39.99939%);fill-opacity:0.3;" d="M 196.164062 241.476562 L 206.558594 238.523438 L 215.664062 237.589844 L 223.796875 233.71875 L 230.769531 230.585938 L 231.96875 248.960938 L 220.984375 254.945312 L 214.550781 257.84375 L 208.015625 259.917969 L 200.367188 261.664062 L 189.464844 261.820312 L 186.996094 260.195312 L 183.628906 255.449219 L 181.90625 252.40625 L 181.082031 250.28125 L 181.679688 249.5 Z M 196.164062 241.476562 "/>
<path style=" stroke:none;fill-rule:nonzero;fill:rgb(39.99939%,39.99939%,39.99939%);fill-opacity:0.3;" d="M 202.011719 217.566406 L 209.863281 229.035156 L 179.753906 246.863281 L 176.976562 243.578125 L 174 239.046875 L 171.515625 235.695312 Z M 202.011719 217.566406 "/>
<path style=" stroke:none;fill-rule:nonzero;fill:rgb(39.99939%,39.99939%,39.99939%);fill-opacity:0.3;" d="M 232.527344 252.242188 L 238.898438 249.105469 L 246.367188 245.765625 L 254.800781 243.574219 L 261.003906 244.300781 L 267.46875 246.023438 L 271.089844 247.863281 L 274.101562 255.226562 L 274.871094 257.785156 L 276.628906 267.078125 L 271.707031 269.074219 L 267.824219 270.582031 L 262.207031 272.613281 L 256.78125 274.457031 L 251.746094 276.300781 L 246.128906 278.515625 L 239.160156 281.648438 L 237.40625 275.585938 L 236.042969 270.4375 L 234.28125 260.144531 Z M 232.527344 252.242188 "/>
<path style=" stroke:none;fill-rule:nonzero;fill:rgb(39.99939%,39.99939%,39.99939%);fill-opacity:0.3;" d="M 234.742188 228.542969 L 249.464844 223.558594 L 256.429688 222.09375 L 262.4375 222.085938 L 270.585938 223.53125 L 271.996094 224.863281 L 271.941406 225.039062 L 271.554688 226.8125 L 271.367188 227.390625 L 270.890625 229.867188 L 270.035156 233.804688 L 269.964844 234.730469 L 269.445312 237.875 L 269.507812 240.671875 L 269.3125 243.1875 L 261.3125 241.375 L 255.496094 240.648438 L 249.996094 241.125 L 243.097656 243.238281 L 234.769531 247.109375 Z M 234.742188 228.542969 "/>
<path style=" stroke:none;fill-rule:nonzero;fill:rgb(39.99939%,39.99939%,39.99939%);fill-opacity:0.3;" d="M 128.808594 198.308594 L 135.101562 207.152344 L 138.136719 212.011719 L 119.039062 223.484375 L 110.277344 211.070312 Z M 128.808594 198.308594 "/>
<path style=" stroke:none;fill-rule:nonzero;fill:rgb(39.99939%,39.99939%,39.99939%);fill-opacity:0.3;" d="M 96.492188 213.738281 L 101.097656 204.617188 L 111.46875 218.464844 L 97.96875 246.140625 L 96.492188 245.351562 L 83.910156 238.648438 Z M 96.492188 213.738281 "/>
<path style=" stroke:none;fill-rule:nonzero;fill:rgb(39.99939%,39.99939%,39.99939%);fill-opacity:0.3;" d="M 99.699219 197.953125 L 118.640625 184.964844 L 127.828125 196.957031 L 109.042969 209.710938 Z M 99.699219 197.953125 "/>
<path style=" stroke:none;fill-rule:nonzero;fill:rgb(39.99939%,39.99939%,39.99939%);fill-opacity:0.3;" d="M 191.019531 202.273438 L 200.03125 215.238281 L 169.835938 233.382812 L 165.652344 227.761719 L 163.640625 223.648438 L 161.542969 221.066406 Z M 191.019531 202.273438 "/>
<path style=" stroke:none;fill-rule:nonzero;fill:rgb(39.99939%,39.99939%,39.99939%);fill-opacity:0.3;" d="M 276.046875 148.730469 L 277.582031 149.519531 L 255.171875 162.542969 L 272.320312 152.222656 Z M 276.046875 148.730469 "/>
<path style=" stroke:none;fill-rule:nonzero;fill:rgb(39.99939%,39.99939%,39.99939%);fill-opacity:0.3;" d="M 225.851562 182.527344 L 234.015625 194.191406 L 202.65625 213.773438 L 194.136719 201.144531 Z M 225.851562 182.527344 "/>
<path style=" stroke:none;fill-rule:nonzero;fill:rgb(39.99939%,39.99939%,39.99939%);fill-opacity:0.3;" d="M 296.859375 162.539062 L 301.480469 166.511719 L 305.429688 170.144531 L 308.570312 173.554688 L 279.121094 188.742188 L 256.113281 201.136719 L 235.480469 212.886719 L 211.808594 226.664062 L 204.019531 215.613281 L 223.785156 203.910156 L 241.542969 192.804688 L 256.582031 183.648438 L 271.820312 175.550781 L 285.1875 168.335938 Z M 296.859375 162.539062 "/>
<path style=" stroke:none;fill-rule:nonzero;fill:rgb(39.99939%,39.99939%,39.99939%);fill-opacity:0.3;" d="M 237.417969 217.5625 L 264.222656 202.429688 L 276.953125 194.636719 L 278.539062 195.332031 L 279.390625 197.351562 L 276.285156 210.820312 L 275.371094 213.980469 L 272.773438 222.355469 L 268.128906 220.632812 L 261.539062 220.089844 L 256.304688 219.902344 L 248.941406 221.199219 L 237.660156 224.699219 Z M 237.417969 217.5625 "/>
<path style=" stroke:none;fill-rule:nonzero;fill:rgb(39.99939%,39.99939%,39.99939%);fill-opacity:0.3;" d="M 281.195312 150.515625 L 287.648438 154.96875 L 294.921875 160.777344 L 275.636719 170.597656 L 262.613281 177.839844 L 236.542969 193.445312 L 228.589844 182.199219 Z M 281.195312 150.515625 "/>
<path style=" stroke:none;fill-rule:nonzero;fill:rgb(39.99939%,39.99939%,39.99939%);fill-opacity:0.3;" d="M 90.433594 72.023438 L 91.628906 104.832031 L 59.371094 90.332031 L 26.890625 72.09375 L 7.492188 61.246094 L 5.90625 60.007812 L 5.59375 59.351562 L 5.421875 58.796875 L 5.523438 57.945312 L 5.96875 57.226562 L 6.589844 56.636719 L 7.3125 56.472656 L 8.140625 56.539062 Z M 90.433594 72.023438 "/>
<path style=" stroke:none;fill-rule:nonzero;fill:rgb(39.99939%,39.99939%,39.99939%);fill-opacity:0.3;" d="M 96.492188 73.042969 L 116.28125 76.390625 L 117.339844 112.585938 L 96.683594 105.519531 L 96.492188 99.964844 L 95.566406 72.886719 Z M 96.492188 73.042969 "/>
<path style=" stroke:none;fill-rule:nonzero;fill:rgb(39.99939%,39.99939%,39.99939%);fill-opacity:0.3;" d="M 119.628906 76.972656 L 139.617188 80.023438 L 141.8125 119.875 L 141.695312 121.589844 L 120.453125 113.816406 Z M 119.628906 76.972656 "/>
<path style=" stroke:none;fill-rule:nonzero;fill:rgb(39.99939%,39.99939%,39.99939%);fill-opacity:0.3;" d="M 142.082031 80.5 L 161.019531 83.398438 L 162.910156 102.28125 L 163.289062 116.769531 L 143.925781 112.542969 Z M 142.082031 80.5 "/>
<path style=" stroke:none;fill-rule:nonzero;fill:rgb(39.99939%,39.99939%,39.99939%);fill-opacity:0.3;" d="M 22.699219 12.070312 L 41.886719 15.671875 L 43.578125 56.929688 L 24.722656 53.171875 Z M 22.699219 12.070312 "/>
<path style=" stroke:none;fill-rule:nonzero;fill:rgb(39.99939%,39.99939%,39.99939%);fill-opacity:0.3;" d="M -1.257812 7.304688 L 18.140625 11.234375 L 20.222656 52.582031 L 1.394531 49.472656 Z M -1.257812 7.304688 "/>
<path style=" stroke:none;fill-rule:nonzero;fill:rgb(39.99939%,39.99939%,39.99939%);fill-opacity:0.3;" d="M 46.054688 16.871094 L 66.546875 21.15625 L 67.085938 61.554688 L 47.59375 57.699219 Z M 46.054688 16.871094 "/>
<path style=" stroke:none;fill-rule:nonzero;fill:rgb(39.99939%,39.99939%,39.99939%);fill-opacity:0.3;" d="M 17.96875 -36.058594 L 37.699219 -32.890625 L 41.328125 10.429688 L 21.570312 6.503906 Z M 17.96875 -36.058594 "/>
<path style=" stroke:none;fill-rule:nonzero;fill:rgb(39.99939%,39.99939%,39.99939%);fill-opacity:0.3;" d="M -5.5 -40.910156 L 13.644531 -36.699219 L 17.582031 6.164062 L -1.8125 2.234375 Z M -5.5 -40.910156 "/>
<path style=" stroke:none;fill-rule:nonzero;fill:rgb(39.99939%,39.99939%,39.99939%);fill-opacity:0.3;" d="M 41.792969 -32.058594 L 61.285156 -28.660156 L 65.199219 14.699219 L 45.222656 11.304688 Z M 41.792969 -32.058594 "/>
<path style=" stroke:none;fill-rule:nonzero;fill:rgb(39.99939%,39.99939%,39.99939%);fill-opacity:0.3;" d="M 116.289062 29.640625 L 136.824219 33.027344 L 139.035156 73.015625 L 117.234375 69.847656 Z M 116.289062 29.640625 "/>
<path style=" stroke:none;fill-rule:nonzero;fill:rgb(39.99939%,39.99939%,39.99939%);fill-opacity:0.3;" d="M 70.722656 21.921875 L 90.140625 25.394531 L 91.574219 66.460938 L 70.957031 62.414062 Z M 70.722656 21.921875 "/>
<path style=" stroke:none;fill-rule:nonzero;fill:rgb(39.99939%,39.99939%,39.99939%);fill-opacity:0.3;" d="M 96.492188 26.390625 L 113.777344 29.246094 L 114.566406 69.679688 L 96.492188 67.0625 L 94.570312 66.78125 L 93.40625 25.878906 Z M 96.492188 26.390625 "/>
<path style=" stroke:none;fill-rule:nonzero;fill:rgb(39.99939%,39.99939%,39.99939%);fill-opacity:0.3;" d="M 139.398438 33.585938 L 157.789062 37.234375 L 161.003906 76.277344 L 161.003906 76.992188 L 141.679688 73.390625 Z M 139.398438 33.585938 "/>
<path style=" stroke:none;fill-rule:nonzero;fill:rgb(39.99939%,39.99939%,39.99939%);fill-opacity:0.3;" d="M 96.492188 -22.09375 L 109.003906 -19.535156 L 109.933594 -6.53125 L 112.136719 24.277344 L 96.492188 21.082031 L 91.515625 20.066406 L 89.144531 -9.503906 L 87.996094 -23.828125 Z M 96.492188 -22.09375 "/>
<path style=" stroke:none;fill-rule:nonzero;fill:rgb(39.99939%,39.99939%,39.99939%);fill-opacity:0.3;" d="M 65.617188 -27.828125 L 84.628906 -24.429688 L 88.058594 19.160156 L 69.179688 15.207031 Z M 65.617188 -27.828125 "/>
<path style=" stroke:none;fill-rule:nonzero;fill:rgb(39.99939%,39.99939%,39.99939%);fill-opacity:0.3;" d="M 112.972656 -18.640625 L 132.679688 -14.582031 L 136.191406 28.15625 L 116.261719 24.597656 Z M 112.972656 -18.640625 "/>
<path style=" stroke:none;fill-rule:nonzero;fill:rgb(39.99939%,39.99939%,39.99939%);fill-opacity:0.3;" d="M 135.90625 -13.941406 L 155.015625 -10.257812 L 157.660156 32.527344 L 139.457031 28.640625 Z M 135.90625 -13.941406 "/>
<path style=" stroke:none;fill-rule:nonzero;fill:rgb(39.99939%,39.99939%,39.99939%);fill-opacity:0.3;" d="M 357.6875 182.023438 L 350.347656 189.769531 L 349.757812 189.3125 Z M 357.6875 182.023438 "/>
<g clip-path="url(#clip1)" clip-rule="nonzero">
<path style=" stroke:none;fill-rule:nonzero;fill:rgb(39.99939%,39.99939%,39.99939%);fill-opacity:0.3;" d="M 354.269531 191.675781 L 373.359375 170.886719 L 404.234375 195.558594 L 394.96875 203.628906 L 384.398438 212.84375 L 383.546875 213.183594 L 382.550781 213.117188 L 380.554688 212.308594 L 374.976562 208.921875 L 370.75 205.75 L 366.519531 202.160156 L 362.871094 198.710938 L 358.496094 195.261719 Z M 354.269531 191.675781 "/>
</g>
<path style=" stroke:none;fill-rule:nonzero;fill:rgb(39.99939%,39.99939%,39.99939%);fill-opacity:0.3;" d="M 286.6875 -13.496094 L 319.578125 -21.253906 L 320.734375 -4.035156 L 310.605469 3.605469 Z M 286.6875 -13.496094 "/>
<path style=" stroke:none;fill-rule:nonzero;fill:rgb(39.99939%,39.99939%,39.99939%);fill-opacity:0.3;" d="M 193.546875 79.210938 L 206.066406 86.53125 L 205.605469 87.414062 L 203.324219 93.285156 L 185.636719 131.238281 L 174.714844 127.648438 L 172.65625 123.058594 Z M 193.546875 79.210938 "/>
<path style=" stroke:none;fill-rule:nonzero;fill:rgb(39.99939%,39.99939%,39.99939%);fill-opacity:0.3;" d="M 181.550781 72.761719 L 191.382812 78.261719 L 170.738281 120.976562 L 167.761719 119.296875 L 165.625 99.292969 Z M 181.550781 72.761719 "/>
<path style=" stroke:none;fill-rule:nonzero;fill:rgb(39.99939%,39.99939%,39.99939%);fill-opacity:0.3;" d="M 197.703125 18.261719 L 209.707031 26.734375 L 181.171875 68.503906 L 167.773438 59.113281 Z M 197.703125 18.261719 "/>
<path style=" stroke:none;fill-rule:nonzero;fill:rgb(39.99939%,39.99939%,39.99939%);fill-opacity:0.3;" d="M 162.316406 63.539062 L 165.113281 65.183594 L 166.785156 62.382812 L 173.226562 66.871094 L 179.457031 71.195312 L 165.597656 94.269531 Z M 162.316406 63.539062 "/>
<path style=" stroke:none;fill-rule:nonzero;fill:rgb(39.99939%,39.99939%,39.99939%);fill-opacity:0.3;" d="M 163 57.683594 L 162.007812 53.652344 L 161.117188 38.835938 L 183.15625 7.542969 L 195.820312 16.625 L 167.707031 53.578125 L 164.375 57.121094 Z M 163 57.683594 "/>
<path style=" stroke:none;fill-rule:nonzero;fill:rgb(39.99939%,39.99939%,39.99939%);fill-opacity:0.3;" d="M 192.222656 76.007812 L 182.359375 70.34375 L 211.441406 28.253906 L 214.753906 30.78125 Z M 192.222656 76.007812 "/>
<path style=" stroke:none;fill-rule:nonzero;fill:rgb(39.99939%,39.99939%,39.99939%);fill-opacity:0.3;" d="M 216.386719 31.992188 L 229.523438 41.433594 L 228.921875 42.636719 L 207.175781 84.398438 L 194.707031 77.003906 Z M 216.386719 31.992188 "/>
<path style=" stroke:none;fill-rule:nonzero;fill:rgb(39.99939%,39.99939%,39.99939%);fill-opacity:0.3;" d="M 251.3125 7.550781 L 251.738281 7.226562 L 252.417969 7.183594 L 253.1875 7.34375 L 261.460938 15.121094 L 244.660156 47.976562 L 233.382812 39.375 Z M 251.3125 7.550781 "/>
<path style=" stroke:none;fill-rule:nonzero;fill:rgb(39.99939%,39.99939%,39.99939%);fill-opacity:0.3;" d="M 291.261719 39.402344 L 303.546875 48.691406 L 288.984375 78.34375 L 287.246094 81.347656 L 274.152344 71.539062 Z M 291.261719 39.402344 "/>
<path style=" stroke:none;fill-rule:nonzero;fill:rgb(39.99939%,39.99939%,39.99939%);fill-opacity:0.3;" d="M 277.664062 27.976562 L 289.636719 37.882812 L 272.351562 70.152344 L 260.285156 60.585938 Z M 277.664062 27.976562 "/>
<path style=" stroke:none;fill-rule:nonzero;fill:rgb(39.99939%,39.99939%,39.99939%);fill-opacity:0.3;" d="M 263.089844 16.039062 L 275.433594 26.195312 L 257.960938 58.746094 L 246.347656 49.421875 Z M 263.089844 16.039062 "/>
<path style=" stroke:none;fill-rule:nonzero;fill:rgb(39.99939%,39.99939%,39.99939%);fill-opacity:0.3;" d="M 254.835938 5.265625 L 186.152344 -49.96875 L 184.894531 -51.921875 L 184.019531 -53.34375 L 183.140625 -55.03125 L 182.636719 -56.820312 L 182.226562 -58.605469 L 181.828125 -59.945312 L 181.90625 -60.753906 L 182.273438 -61.476562 L 183.015625 -62.296875 L 184.417969 -63.035156 L 185.8125 -64.3125 L 187.425781 -63.980469 L 189.714844 -62.578125 L 192.773438 -60.652344 L 262.183594 -1.804688 Z M 254.835938 5.265625 "/>
<path style=" stroke:none;fill-rule:nonzero;fill:rgb(39.99939%,39.99939%,39.99939%);fill-opacity:0.3;" d="M 208.171875 -29.128906 L 222.496094 -17.421875 L 195.414062 12.285156 L 179.746094 0.5625 Z M 208.171875 -29.128906 "/>
<path style=" stroke:none;fill-rule:nonzero;fill:rgb(39.99939%,39.99939%,39.99939%);fill-opacity:0.3;" d="M 224.441406 -16.261719 L 250.480469 4.683594 L 231.441406 38.367188 L 197.339844 13.355469 Z M 224.441406 -16.261719 "/>
<path style=" stroke:none;fill-rule:nonzero;fill:rgb(39.99939%,39.99939%,39.99939%);fill-opacity:0.3;" d="M 265.910156 -4.316406 L 277.199219 -15.296875 L 309.769531 8.445312 L 297.730469 22.800781 Z M 265.910156 -4.316406 "/>
<path style=" stroke:none;fill-rule:nonzero;fill:rgb(39.99939%,39.99939%,39.99939%);fill-opacity:0.3;" d="M 256.589844 6.34375 L 264.285156 -1.476562 L 311.800781 38.308594 L 305.601562 46.648438 L 296.082031 39.554688 L 287.652344 32.847656 L 274.433594 21.789062 L 264.660156 13.996094 Z M 256.589844 6.34375 "/>
<path style=" stroke:none;fill-rule:nonzero;fill:rgb(39.99939%,39.99939%,39.99939%);fill-opacity:0.3;" d="M 298.820312 25.023438 L 317.644531 3.152344 L 332.785156 16.929688 L 330.238281 19.351562 L 329.886719 19.554688 L 329.066406 20.464844 L 322.464844 26.746094 L 313.125 37.207031 Z M 298.820312 25.023438 "/>
<g clip-path="url(#clip2)" clip-rule="nonzero">
<path style=" stroke:none;fill-rule:nonzero;fill:rgb(39.99939%,39.99939%,39.99939%);fill-opacity:0.3;" d="M 323.003906 3.726562 L 332.757812 -2.097656 L 342.316406 -7.011719 L 360.683594 -13.027344 L 360.921875 -14.90625 L 369.339844 -16.1875 L 376.226562 -17.46875 L 385.78125 -12.863281 L 373.542969 -6.3125 L 356.140625 2.785156 L 340.558594 10.949219 L 334.722656 15.339844 Z M 323.003906 3.726562 "/>
</g>
<path style=" stroke:none;fill-rule:nonzero;fill:rgb(39.99939%,39.99939%,39.99939%);fill-opacity:0.3;" d="M 168.710938 -2.777344 L 180.460938 6.144531 L 160.082031 32.589844 L 158.285156 12.101562 Z M 168.710938 -2.777344 "/>
<path style=" stroke:none;fill-rule:nonzero;fill:rgb(39.99939%,39.99939%,39.99939%);fill-opacity:0.3;" d="M 161.019531 83.398438 L 162.136719 83.570312 L 164.140625 117.25 L 163.289062 116.769531 L 162.910156 102.28125 Z M 161.019531 83.398438 "/>
<path style=" stroke:none;fill-rule:nonzero;fill:rgb(39.99939%,39.99939%,39.99939%);fill-opacity:0.3;" d="M 161.003906 76.277344 L 161.0625 77 L 161.003906 76.992188 Z M 161.003906 76.277344 "/>
<path style=" stroke:none;fill-rule:nonzero;fill:rgb(39.99939%,39.99939%,39.99939%);fill-opacity:0.3;" d="M 157.261719 -9.9375 L 160.914062 -9.425781 L 164.324219 -6.65625 L 167.558594 -3.949219 L 158.453125 8.628906 Z M 157.261719 -9.9375 "/>
<path style=" stroke:none;fill-rule:nonzero;fill:rgb(39.99939%,39.99939%,39.99939%);fill-opacity:0.3;" d="M -6.992188 211.597656 L 8.710938 217.976562 L -10.503906 256.792969 L -26.347656 249.761719 Z M -6.992188 211.597656 "/>
<path style=" stroke:none;fill-rule:nonzero;fill:rgb(39.99939%,39.99939%,39.99939%);fill-opacity:0.3;" d="M 2.679688 277.90625 L 17.265625 284.40625 L 4.523438 317.3125 L -10.617188 311.746094 Z M 2.679688 277.90625 "/>
<path style=" stroke:none;fill-rule:nonzero;fill:rgb(39.99939%,39.99939%,39.99939%);fill-opacity:0.3;" d="M -11.617188 314.195312 L 2.253906 319.378906 L -10.734375 350.726562 L -24.183594 344.660156 Z M -11.617188 314.195312 "/>
<path style=" stroke:none;fill-rule:nonzero;fill:rgb(39.99939%,39.99939%,39.99939%);fill-opacity:0.3;" d="M 19.253906 285.480469 L 33.441406 292.117188 L 24.152344 315.0625 L 24.328125 318.339844 L 26.058594 320.628906 L 30.203125 322.589844 L 24.339844 326.367188 L 6.542969 318.042969 Z M 19.253906 285.480469 "/>
<path style=" stroke:none;fill-rule:nonzero;fill:rgb(39.99939%,39.99939%,39.99939%);fill-opacity:0.3;" d="M 5.164062 320.414062 L 21.933594 328.417969 L 14.1875 334.953125 L 10.066406 339.105469 L 4.546875 345.664062 L 0.117188 350.464844 L -3.085938 353.746094 L -8.019531 351.65625 Z M 5.164062 320.414062 "/>
<path style=" stroke:none;fill-rule:nonzero;fill:rgb(39.99939%,39.99939%,39.99939%);fill-opacity:0.3;" d="M 36.191406 293.667969 L 49.230469 301.070312 L 52.589844 302.855469 L 58.652344 308.570312 L 58.375 309.230469 L 57.007812 310.101562 L 54.242188 311.164062 L 41.605469 315.007812 L 29.445312 318.125 L 27.082031 316.5 L 27.417969 313.296875 L 30.042969 307.523438 Z M 36.191406 293.667969 "/>
<path style=" stroke:none;fill-rule:nonzero;fill:rgb(39.99939%,39.99939%,39.99939%);fill-opacity:0.3;" d="M 3.644531 236.34375 L 16.746094 242.355469 L 2.015625 274.261719 L -12.230469 268.484375 Z M 3.644531 236.34375 "/>
<path style=" stroke:none;fill-rule:nonzero;fill:rgb(39.99939%,39.99939%,39.99939%);fill-opacity:0.3;" d="M -13.472656 271.28125 L 0.78125 276.992188 L -12.886719 310.941406 L -28.914062 304.371094 Z M -13.472656 271.28125 "/>
<path style=" stroke:none;fill-rule:nonzero;fill:rgb(39.99939%,39.99939%,39.99939%);fill-opacity:0.3;" d="M 36.015625 250.464844 L 42.890625 253.003906 L 47.230469 255.441406 L 51.457031 258.878906 L 35.578125 289.332031 L 30.179688 286.863281 L 26.292969 284.992188 L 21.328125 282.648438 Z M 36.015625 250.464844 "/>
<path style=" stroke:none;fill-rule:nonzero;fill:rgb(39.99939%,39.99939%,39.99939%);fill-opacity:0.3;" d="M 20.027344 243.472656 L 33.378906 249.664062 L 18.507812 281.371094 L 5.40625 275.574219 Z M 20.027344 243.472656 "/>
<path style=" stroke:none;fill-rule:nonzero;fill:rgb(39.99939%,39.99939%,39.99939%);fill-opacity:0.3;" d="M 51.125 265.992188 L 56.695312 268.929688 L 60.242188 270.726562 L 63.570312 271.582031 L 58.511719 281.574219 L 49.257812 297.628906 L 47.3125 296.605469 L 43.898438 294.785156 L 37.746094 291.527344 Z M 51.125 265.992188 "/>
<path style=" stroke:none;fill-rule:nonzero;fill:rgb(39.99939%,39.99939%,39.99939%);fill-opacity:0.3;" d="M 33.367188 179.425781 L 45.957031 184.941406 L 41.578125 194.324219 L 18.179688 239.207031 L 4.871094 232.871094 L 28.226562 188.652344 Z M 33.367188 179.425781 "/>
<path style=" stroke:none;fill-rule:nonzero;fill:rgb(39.99939%,39.99939%,39.99939%);fill-opacity:0.3;" d="M 49.214844 187.316406 L 63.15625 194.003906 L 49.292969 221.367188 L 46.921875 220.394531 L 33.992188 247.121094 L 20.972656 240.902344 Z M 49.214844 187.316406 "/>
<path style=" stroke:none;fill-rule:nonzero;fill:rgb(39.99939%,39.99939%,39.99939%);fill-opacity:0.3;" d="M 65.167969 195.378906 L 79.257812 202.144531 L 64.753906 229.957031 L 50.910156 223.730469 Z M 65.167969 195.378906 "/>
<path style=" stroke:none;fill-rule:nonzero;fill:rgb(39.99939%,39.99939%,39.99939%);fill-opacity:0.3;" d="M 36.964844 248.109375 L 48.460938 224.648438 L 60.285156 229.828125 L 48.882812 252.738281 Z M 36.964844 248.109375 "/>
<path style=" stroke:none;fill-rule:nonzero;fill:rgb(39.99939%,39.99939%,39.99939%);fill-opacity:0.3;" d="M 63.222656 231.214844 L 79.617188 239.164062 L 64.230469 265.582031 L 59.496094 261.765625 L 57.625 258.582031 L 55.007812 256.046875 L 52.394531 254.214844 Z M 63.222656 231.214844 "/>
<path style=" stroke:none;fill-rule:nonzero;fill:rgb(39.99939%,39.99939%,39.99939%);fill-opacity:0.3;" d="M 96.492188 172.011719 L 101.082031 163.339844 L 106.890625 169.726562 L 96.492188 175.800781 L 93.589844 177.496094 Z M 96.492188 172.011719 "/>
<path style=" stroke:none;fill-rule:nonzero;fill:rgb(39.99939%,39.99939%,39.99939%);fill-opacity:0.3;" d="M 96.492188 199.042969 L 99.523438 203.128906 L 96.492188 208.976562 L 81.65625 237.605469 L 67.792969 230.847656 L 88.726562 188.585938 Z M 96.492188 199.042969 "/>
<path style=" stroke:none;fill-rule:nonzero;fill:rgb(39.99939%,39.99939%,39.99939%);fill-opacity:0.3;" d="M 96.492188 158.796875 L 100.121094 160.867188 L 96.492188 167.871094 L 80.339844 199.050781 L 68.15625 192.703125 L 87.960938 153.929688 Z M 96.492188 158.796875 "/>
<path style=" stroke:none;fill-rule:nonzero;fill:rgb(39.99939%,39.99939%,39.99939%);fill-opacity:0.3;" d="M 96.492188 178.542969 L 109.566406 171.109375 L 116.621094 180.675781 L 118.066406 182.910156 L 98.828125 195.96875 L 96.492188 192.730469 L 91.527344 185.84375 L 93.492188 180.25 Z M 96.492188 178.542969 "/>
<path style=" stroke:none;fill-rule:nonzero;fill:rgb(39.99939%,39.99939%,39.99939%);fill-opacity:0.3;" d="M 96.492188 134.816406 L 105.160156 117.71875 L 120.601562 124.570312 L 110.675781 143.113281 L 106.714844 150.472656 L 100.496094 157.503906 L 96.492188 155.183594 L 88.507812 150.5625 Z M 96.492188 134.816406 "/>
<path style=" stroke:none;fill-rule:nonzero;fill:rgb(39.99939%,39.99939%,39.99939%);fill-opacity:0.3;" d="M 103.058594 158.789062 L 103.027344 158.753906 L 103.164062 158.621094 Z M 103.058594 158.789062 "/>
<path style=" stroke:none;fill-rule:nonzero;fill:rgb(39.99939%,39.99939%,39.99939%);fill-opacity:0.3;" d="M 122.601562 125.339844 L 136.972656 131.601562 L 111.535156 146.714844 L 111.144531 146.460938 Z M 122.601562 125.339844 "/>
<path style=" stroke:none;fill-rule:nonzero;fill:rgb(39.99939%,39.99939%,39.99939%);fill-opacity:0.3;" d="M 52.058594 138.195312 L 67.421875 144.9375 L 48.296875 182.929688 L 33.21875 175.953125 Z M 52.058594 138.195312 "/>
<path style=" stroke:none;fill-rule:nonzero;fill:rgb(39.99939%,39.99939%,39.99939%);fill-opacity:0.3;" d="M 67.503906 103.683594 L 71.285156 105.441406 L 56.203125 136.171875 L 52.636719 134.453125 Z M 67.503906 103.683594 "/>
<path style=" stroke:none;fill-rule:nonzero;fill:rgb(39.99939%,39.99939%,39.99939%);fill-opacity:0.3;" d="M 69.875 145.828125 L 84.929688 152.757812 L 65.941406 190.71875 L 50.949219 183.90625 Z M 69.875 145.828125 "/>
<path style=" stroke:none;fill-rule:nonzero;fill:rgb(39.99939%,39.99939%,39.99939%);fill-opacity:0.3;" d="M 72.832031 106.332031 L 85.503906 112.214844 L 69.449219 142.050781 L 57.996094 136.964844 Z M 72.832031 106.332031 "/>
<path style=" stroke:none;fill-rule:nonzero;fill:rgb(39.99939%,39.99939%,39.99939%);fill-opacity:0.3;" d="M 96.492188 113.636719 L 102.535156 116.125 L 96.492188 128.105469 L 85.929688 149.046875 L 71.359375 142.707031 L 88.757812 110.453125 Z M 96.492188 113.636719 "/>
<path style=" stroke:none;fill-rule:nonzero;fill:rgb(39.99939%,39.99939%,39.99939%);fill-opacity:0.3;" d="M -1.648438 163.875 L 13.234375 170.539062 L -6.835938 208 L -22.304688 201.082031 Z M -1.648438 163.875 "/>
<path style=" stroke:none;fill-rule:nonzero;fill:rgb(39.99939%,39.99939%,39.99939%);fill-opacity:0.3;" d="M 15.546875 171.589844 L 30.128906 178.160156 L 10.191406 215.0625 L -4.566406 208.800781 Z M 15.546875 171.589844 "/>
<path style=" stroke:none;fill-rule:nonzero;fill:rgb(39.99939%,39.99939%,39.99939%);fill-opacity:0.3;" d="M -14.136719 107.550781 L 0.125 114.457031 L -19.230469 151.507812 L -33.546875 144.742188 Z M -14.136719 107.550781 "/>
<path style=" stroke:none;fill-rule:nonzero;fill:rgb(39.99939%,39.99939%,39.99939%);fill-opacity:0.3;" d="M 2.480469 115.457031 L 16.964844 122.039062 L -2.542969 159.667969 L -16.644531 152.894531 Z M 2.480469 115.457031 "/>
<path style=" stroke:none;fill-rule:nonzero;fill:rgb(39.99939%,39.99939%,39.99939%);fill-opacity:0.3;" d="M 21.230469 79.671875 L 33.976562 87.570312 L 18.316406 118.035156 L 5.4375 112.445312 Z M 21.230469 79.671875 "/>
<path style=" stroke:none;fill-rule:nonzero;fill:rgb(39.99939%,39.99939%,39.99939%);fill-opacity:0.3;" d="M 37.179688 89.203125 L 51.042969 96.238281 L 35.582031 126.328125 L 21.242188 119.96875 Z M 37.179688 89.203125 "/>
<path style=" stroke:none;fill-rule:nonzero;fill:rgb(39.99939%,39.99939%,39.99939%);fill-opacity:0.3;" d="M 18.96875 123.234375 L 34.003906 129.902344 L 15.246094 167.746094 L -0.703125 160.390625 Z M 18.96875 123.234375 "/>
<path style=" stroke:none;fill-rule:nonzero;fill:rgb(39.99939%,39.99939%,39.99939%);fill-opacity:0.3;" d="M 35.707031 130.640625 L 50.363281 137.484375 L 31.503906 175.085938 L 17.054688 168.5 Z M 35.707031 130.640625 "/>
<path style=" stroke:none;fill-rule:nonzero;fill:rgb(39.99939%,39.99939%,39.99939%);fill-opacity:0.3;" d="M 53.460938 97.160156 L 67.503906 103.683594 L 52.636719 134.453125 L 38.105469 127.4375 Z M 53.460938 97.160156 "/>
<path style=" stroke:none;fill-rule:nonzero;fill:rgb(39.99939%,39.99939%,39.99939%);fill-opacity:0.3;" d="M -11.535156 59.835938 L 0.628906 67.558594 L -17.210938 102.03125 L -30.097656 96.230469 Z M -11.535156 59.835938 "/>
<path style=" stroke:none;fill-rule:nonzero;fill:rgb(39.99939%,39.99939%,39.99939%);fill-opacity:0.3;" d="M 3.347656 69.445312 L 16.878906 77.203125 L 0.679688 110.242188 L -13.550781 103.359375 Z M 3.347656 69.445312 "/>
<path style=" stroke:none;fill-rule:nonzero;fill:rgb(39.99939%,39.99939%,39.99939%);fill-opacity:0.3;" d="M 287.621094 140.425781 L 322.523438 114.304688 L 333.972656 123.925781 L 299.8125 148.933594 Z M 287.621094 140.425781 "/>
<path style=" stroke:none;fill-rule:nonzero;fill:rgb(39.99939%,39.99939%,39.99939%);fill-opacity:0.3;" d="M 295.257812 103.546875 L 296.210938 104.074219 L 301.203125 96.355469 L 320.933594 113.027344 L 285.699219 138.828125 L 265.964844 129.152344 L 288.371094 87.523438 L 299.703125 95.46875 L 294.53125 103.144531 Z M 295.257812 103.546875 "/>
<path style=" stroke:none;fill-rule:nonzero;fill:rgb(39.99939%,39.99939%,39.99939%);fill-opacity:0.3;" d="M 290.117188 85.328125 L 307.445312 50.789062 L 325.578125 65.328125 L 305.746094 96.320312 Z M 290.117188 85.328125 "/>
<path style=" stroke:none;fill-rule:nonzero;fill:rgb(39.99939%,39.99939%,39.99939%);fill-opacity:0.3;" d="M 301.625 150.890625 L 336.757812 125.652344 L 347.773438 137.339844 L 312.566406 160.089844 Z M 301.625 150.890625 "/>
<g clip-path="url(#clip3)" clip-rule="nonzero">
<path style=" stroke:none;fill-rule:nonzero;fill:rgb(39.99939%,39.99939%,39.99939%);fill-opacity:0.3;" d="M 353.171875 150.273438 L 351.242188 151.816406 L 370.472656 168.53125 L 357.6875 182.023438 L 349.757812 189.3125 L 315.136719 162.414062 L 362.355469 131.683594 L 371.417969 139.730469 L 381.960938 133.777344 L 383.113281 134.742188 L 382.878906 135.066406 L 393.496094 145.320312 L 373.289062 165.453125 L 354.558594 149.167969 Z M 353.171875 150.273438 "/>
</g>
<g clip-path="url(#clip4)" clip-rule="nonzero">
<path style=" stroke:none;fill-rule:nonzero;fill:rgb(39.99939%,39.99939%,39.99939%);fill-opacity:0.3;" d="M 371.617188 84.535156 L 379.402344 95.511719 L 337.222656 122.339844 L 325.921875 112.902344 Z M 371.617188 84.535156 "/>
</g>
<g clip-path="url(#clip5)" clip-rule="nonzero">
<path style=" stroke:none;fill-rule:nonzero;fill:rgb(39.99939%,39.99939%,39.99939%);fill-opacity:0.3;" d="M 365.746094 107.460938 L 387.179688 127.164062 L 371.960938 136.734375 L 362.289062 127.582031 L 350.226562 135.617188 L 340.035156 124.664062 Z M 365.746094 107.460938 "/>
</g>
<g clip-path="url(#clip6)" clip-rule="nonzero">
<path style=" stroke:none;fill-rule:nonzero;fill:rgb(39.99939%,39.99939%,39.99939%);fill-opacity:0.3;" d="M 314.226562 103.320312 L 313.761719 99.761719 L 362.90625 69.539062 L 370.234375 81.085938 L 324.265625 110.984375 Z M 314.226562 103.320312 "/>
</g>
<path style=" stroke:none;fill-rule:nonzero;fill:rgb(39.99939%,39.99939%,39.99939%);fill-opacity:0.3;" d="M 308.253906 97.253906 L 328.96875 67.0625 L 341.597656 78.707031 L 322.71875 90.75 L 318.925781 93.042969 L 314.445312 96.160156 L 310.65625 99.109375 Z M 308.253906 97.253906 "/>
<g clip-path="url(#clip7)" clip-rule="nonzero">
<path style=" stroke:none;fill-rule:nonzero;fill:rgb(39.99939%,39.99939%,39.99939%);fill-opacity:0.3;" d="M 353.191406 54.335938 L 362.160156 64.40625 L 344.082031 77.191406 L 333.800781 67.488281 Z M 353.191406 54.335938 "/>
</g>
<path style=" stroke:none;fill-rule:nonzero;fill:rgb(39.99939%,39.99939%,39.99939%);fill-opacity:0.3;" d="M 332.835938 31.445312 L 333.910156 30.410156 L 327.660156 24.746094 L 332.585938 20.238281 L 346.890625 31.75 L 354.632812 37.984375 L 343.863281 47.648438 L 349.664062 53.421875 L 331.332031 65.472656 L 325.226562 60.75 L 318.953125 55.8125 L 323.335938 51.140625 L 322.410156 50.421875 L 321.789062 49.941406 L 317.4375 54.640625 L 308.011719 47.691406 L 316.78125 36.300781 L 325.589844 27.015625 L 331.632812 32.609375 Z M 332.835938 31.445312 "/>
<g clip-path="url(#clip8)" clip-rule="nonzero">
<path style=" stroke:none;fill-rule:nonzero;fill:rgb(39.99939%,39.99939%,39.99939%);fill-opacity:0.3;" d="M 386.097656 55.515625 L 395.011719 66.699219 L 372.550781 80.046875 L 365.636719 68.601562 L 364.546875 63.25 L 361.886719 60.136719 L 354.246094 51.507812 L 349.359375 46.164062 L 356.667969 39.359375 L 381.078125 59.570312 Z M 386.097656 55.515625 "/>
</g>
<g clip-path="url(#clip9)" clip-rule="nonzero">
<path style=" stroke:none;fill-rule:nonzero;fill:rgb(39.99939%,39.99939%,39.99939%);fill-opacity:0.3;" d="M 336.449219 18.125 L 370.070312 -0.609375 L 397.15625 21.832031 L 364.359375 41.507812 L 356.605469 34.773438 L 367.6875 22.957031 L 366.632812 22.460938 L 365.964844 22.144531 L 355.070312 33.324219 Z M 336.449219 18.125 "/>
</g>
<path style=" stroke:none;fill-rule:nonzero;fill:rgb(39.99939%,39.99939%,39.99939%);fill-opacity:0.3;" d="M 288.984375 78.34375 L 287.4375 81.488281 L 287.246094 81.347656 Z M 288.984375 78.34375 "/>
<path style=" stroke:none;fill-rule:nonzero;fill:rgb(39.99939%,39.99939%,39.99939%);fill-opacity:0.3;" d="M 330.238281 19.351562 L 329.066406 20.464844 L 329.886719 19.554688 Z M 330.238281 19.351562 "/>
<path style=" stroke:none;fill-rule:nonzero;fill:rgb(39.99939%,39.99939%,39.99939%);fill-opacity:0.3;" d="M 311.820312 175.332031 L 334.058594 194.378906 L 328.492188 200.554688 L 317.59375 211.582031 L 313.820312 215.929688 L 311.105469 213.910156 L 303.234375 205 L 297.085938 200.847656 L 286.46875 196.292969 L 282.785156 194.460938 L 281.039062 192.621094 L 282.003906 191.335938 L 292.460938 185.4375 Z M 311.820312 175.332031 "/>
<path style=" stroke:none;fill-rule:nonzero;fill:rgb(39.99939%,39.99939%,39.99939%);fill-opacity:0.3;" d="M 276.902344 215.765625 L 303.175781 221.058594 L 300.050781 229.078125 L 295.277344 243.410156 L 293.542969 250.214844 L 292.976562 259.59375 L 295.214844 268.53125 L 298.296875 276.222656 L 294.570312 276.644531 L 289.964844 277.691406 L 285.144531 279.570312 L 282.507812 274.996094 L 278.246094 263.097656 L 274.359375 249.84375 L 272.054688 244.125 L 271.324219 241.3125 L 271.054688 238.558594 L 271.316406 235.429688 L 271.921875 232.777344 L 274.238281 225.980469 L 275.632812 221.332031 Z M 276.902344 215.765625 "/>
<path style=" stroke:none;fill-rule:nonzero;fill:rgb(39.99939%,39.99939%,39.99939%);fill-opacity:0.3;" d="M 274.871094 257.785156 L 275.847656 261.039062 L 277.382812 266.773438 L 276.628906 267.078125 Z M 274.871094 257.785156 "/>
<path style=" stroke:none;fill-rule:nonzero;fill:rgb(39.99939%,39.99939%,39.99939%);fill-opacity:0.3;" d="M 271.996094 224.863281 L 272.140625 225 L 271.554688 226.8125 L 271.941406 225.039062 Z M 271.996094 224.863281 "/>
<path style=" stroke:none;fill-rule:nonzero;fill:rgb(39.99939%,39.99939%,39.99939%);fill-opacity:0.3;" d="M 270.890625 229.867188 L 270.019531 234.378906 L 269.964844 234.730469 L 270.035156 233.804688 Z M 270.890625 229.867188 "/>
<path style=" stroke:none;fill-rule:nonzero;fill:rgb(39.99939%,39.99939%,39.99939%);fill-opacity:0.3;" d="M 269.507812 240.671875 L 269.5625 243.242188 L 269.3125 243.1875 Z M 269.507812 240.671875 "/>
<path style=" stroke:none;fill-rule:nonzero;fill:rgb(39.99939%,39.99939%,39.99939%);fill-opacity:0.3;" d="M 310.109375 216.949219 L 319.292969 225.066406 L 324.5625 230.339844 L 320.109375 244.875 L 316.832031 257.011719 L 314.292969 269.753906 L 300.925781 274.761719 L 297.542969 261.898438 L 297.078125 252.769531 L 298.789062 243.453125 L 301.488281 235.542969 L 306.925781 222.453125 Z M 310.109375 216.949219 "/>
<path style=" stroke:none;fill-rule:nonzero;fill:rgb(39.99939%,39.99939%,39.99939%);fill-opacity:0.3;" d="M 276.285156 210.820312 L 273.558594 222.648438 L 272.773438 222.355469 L 275.371094 213.980469 Z M 276.285156 210.820312 "/>
<path style=" stroke:none;fill-rule:nonzero;fill:rgb(39.99939%,39.99939%,39.99939%);fill-opacity:0.3;" d="M 281.210938 197.242188 L 283.34375 197.054688 L 296.660156 204.039062 L 302.804688 209.230469 L 306.453125 214.289062 L 305.265625 216.390625 L 303.695312 218.382812 L 277.964844 213.167969 Z M 281.210938 197.242188 "/>
<g clip-path="url(#clip10)" clip-rule="nonzero">
<path style=" stroke:none;fill-rule:nonzero;fill:rgb(39.99939%,39.99939%,39.99939%);fill-opacity:0.3;" d="M 347.5625 204.988281 L 362.929688 217.863281 L 360.742188 221.195312 L 358.117188 226.816406 L 357.027344 230.5625 L 355.933594 232.851562 L 353.628906 237.472656 L 350.464844 243.441406 L 343.011719 241.398438 L 335.765625 236.832031 L 331.292969 231.859375 L 328.746094 228.359375 Z M 347.5625 204.988281 "/>
</g>
<path style=" stroke:none;fill-rule:nonzero;fill:rgb(39.99939%,39.99939%,39.99939%);fill-opacity:0.3;" d="M 327.613281 230.835938 L 335.519531 239.144531 L 342.324219 243.507812 L 354.027344 250.640625 L 358.726562 254.492188 L 345.320312 257.824219 L 334.277344 261.144531 L 317.621094 266.867188 L 320.121094 254.546875 L 321.664062 247.375 L 324.773438 238.121094 Z M 327.613281 230.835938 "/>
<g clip-path="url(#clip11)" clip-rule="nonzero">
<path style=" stroke:none;fill-rule:nonzero;fill:rgb(39.99939%,39.99939%,39.99939%);fill-opacity:0.3;" d="M 365.09375 219.761719 L 375.410156 226.199219 L 378.125 228.464844 L 377.539062 229.992188 L 361.382812 252.121094 L 358.605469 251.671875 L 352.136719 246.863281 L 355.589844 240.289062 L 357.660156 236.34375 L 359.414062 231.746094 L 361.375 225.800781 Z M 365.09375 219.761719 "/>
</g>
<path style=" stroke:none;fill-rule:nonzero;fill:rgb(39.99939%,39.99939%,39.99939%);fill-opacity:0.3;" d="M 336.097656 195.738281 L 346.011719 203.339844 L 325.734375 226.578125 L 315.109375 217.652344 L 322.105469 210.289062 L 331.21875 200.882812 Z M 336.097656 195.738281 "/>
<path style=" stroke:none;fill-rule:nonzero;fill:rgb(39.99939%,39.99939%,39.99939%);fill-opacity:0.3;" d="M 135.101562 207.152344 L 138.433594 211.832031 L 138.136719 212.011719 Z M 135.101562 207.152344 "/>
<path style=" stroke:none;fill-rule:nonzero;fill:rgb(39.99939%,39.99939%,39.99939%);fill-opacity:0.3;" d="M 116.621094 180.675781 L 118.199219 182.820312 L 118.066406 182.910156 Z M 116.621094 180.675781 "/>
<path style=" stroke:none;fill-rule:nonzero;fill:rgb(39.99939%,39.99939%,39.99939%);fill-opacity:0.3;" d="M 111.867188 169.335938 L 153.417969 144.613281 L 161.898438 156.371094 L 120.902344 181.976562 Z M 111.867188 169.335938 "/>
<path style=" stroke:none;fill-rule:nonzero;fill:rgb(39.99939%,39.99939%,39.99939%);fill-opacity:0.3;" d="M 173.832031 173.40625 L 182.039062 184.578125 L 140.6875 210.722656 L 132.300781 198.398438 Z M 173.832031 173.40625 "/>
<path style=" stroke:none;fill-rule:nonzero;fill:rgb(39.99939%,39.99939%,39.99939%);fill-opacity:0.3;" d="M 163.214844 158.582031 L 172.558594 171.289062 L 131.125 195.839844 L 122.445312 183.933594 Z M 163.214844 158.582031 "/>
<path style=" stroke:none;fill-rule:nonzero;fill:rgb(39.99939%,39.99939%,39.99939%);fill-opacity:0.3;" d="M 182.683594 187.042969 L 190.816406 199.097656 L 166.644531 214.492188 L 161.269531 218.1875 L 157.96875 219.902344 L 153.65625 221.882812 L 149.855469 223.726562 L 142.050781 212.515625 Z M 182.683594 187.042969 "/>
<path style=" stroke:none;fill-rule:nonzero;fill:rgb(39.99939%,39.99939%,39.99939%);fill-opacity:0.3;" d="M 112.484375 149.753906 L 143.804688 130.761719 L 152.410156 142.777344 L 110.898438 167.554688 L 103.058594 158.789062 L 103.164062 158.621094 Z M 112.484375 149.753906 "/>
<path style=" stroke:none;fill-rule:nonzero;fill:rgb(39.99939%,39.99939%,39.99939%);fill-opacity:0.3;" d="M 145.984375 130.433594 L 150.160156 130.621094 L 156.488281 132.394531 L 163.171875 135.875 L 169.628906 138.023438 L 174.902344 139.398438 L 177.757812 141.433594 L 161.832031 151.398438 Z M 145.984375 130.433594 "/>
<path style=" stroke:none;fill-rule:nonzero;fill:rgb(39.99939%,39.99939%,39.99939%);fill-opacity:0.3;" d="M 179.382812 142.539062 L 186.59375 144.601562 L 194.457031 146.039062 L 201.664062 146.03125 L 210.289062 144.53125 L 214.109375 146.636719 L 174.554688 170.328125 L 162.433594 153.0625 Z M 179.382812 142.539062 "/>
<path style=" stroke:none;fill-rule:nonzero;fill:rgb(39.99939%,39.99939%,39.99939%);fill-opacity:0.3;" d="M 262 142.554688 L 269.664062 145.433594 L 276.046875 148.730469 L 272.320312 152.222656 L 255.171875 162.542969 L 227.1875 178.796875 L 219.671875 167.726562 Z M 262 142.554688 "/>
<path style=" stroke:none;fill-rule:nonzero;fill:rgb(39.99939%,39.99939%,39.99939%);fill-opacity:0.3;" d="M 216.378906 168.382812 L 224.308594 179.910156 L 194.292969 197.382812 L 186.355469 185.863281 Z M 216.378906 168.382812 "/>
<path style=" stroke:none;fill-rule:nonzero;fill:rgb(39.99939%,39.99939%,39.99939%);fill-opacity:0.3;" d="M 206.988281 154.054688 L 215.613281 165.488281 L 184.667969 184.21875 L 176.515625 172.972656 Z M 206.988281 154.054688 "/>
<path style=" stroke:none;fill-rule:nonzero;fill:rgb(39.99939%,39.99939%,39.99939%);fill-opacity:0.3;" d="M 210.300781 152.4375 L 217.53125 147.851562 L 222.570312 145.972656 L 239.003906 143.660156 L 248.53125 140.699219 L 252.414062 141.234375 L 254.394531 143.269531 L 218.128906 164.003906 Z M 210.300781 152.4375 "/>
<path style=" stroke:none;fill-rule:nonzero;fill:rgb(39.99939%,39.99939%,39.99939%);fill-opacity:0.3;" d="M 174.714844 127.648438 L 171.042969 126.445312 L 172.65625 123.058594 Z M 174.714844 127.648438 "/>
<path style=" stroke:none;fill-rule:nonzero;fill:rgb(39.99939%,39.99939%,39.99939%);fill-opacity:0.3;" d="M 170.738281 120.976562 L 168.449219 125.710938 L 167.761719 119.296875 Z M 170.738281 120.976562 "/>
<path style=" stroke:none;fill-rule:nonzero;fill:rgb(39.99939%,39.99939%,39.99939%);fill-opacity:0.3;" d="M 141.8125 119.875 L 141.910156 121.667969 L 141.695312 121.589844 Z M 141.8125 119.875 "/>
<path style=" stroke:none;fill-rule:nonzero;fill:rgb(39.99939%,39.99939%,39.99939%);fill-opacity:0.3;" d="M 164.140625 117.25 L 164.832031 128.914062 L 144.503906 122.59375 L 143.925781 112.542969 L 163.289062 116.769531 Z M 164.140625 117.25 "/>
<path style=" stroke:none;fill-rule:nonzero;fill:rgb(39.99939%,39.99939%,39.99939%);fill-opacity:0.3;" d="M 206.066406 86.53125 L 206.386719 86.714844 L 203.324219 93.285156 L 205.605469 87.414062 Z M 206.066406 86.53125 "/>
<path style=" stroke:none;fill-rule:nonzero;fill:rgb(39.99939%,39.99939%,39.99939%);fill-opacity:0.3;" d="M 259.078125 65.453125 L 270.503906 74.246094 L 259.167969 96.195312 L 253.882812 105.507812 L 243.128906 129.902344 L 235.425781 130.707031 L 227.570312 131.023438 L 231.734375 118.191406 L 238.1875 104.96875 Z M 259.078125 65.453125 "/>
<path style=" stroke:none;fill-rule:nonzero;fill:rgb(39.99939%,39.99939%,39.99939%);fill-opacity:0.3;" d="M 231.085938 42.46875 L 243.785156 52.140625 L 228.136719 80.992188 L 224.488281 87.472656 L 221.089844 93.671875 L 218.941406 97.65625 L 216.859375 101.898438 L 212.871094 112.28125 L 204.792969 133.863281 L 188.300781 132.257812 Z M 231.085938 42.46875 "/>
<path style=" stroke:none;fill-rule:nonzero;fill:rgb(39.99939%,39.99939%,39.99939%);fill-opacity:0.3;" d="M 244.808594 54.058594 L 257.410156 64.222656 L 243.351562 90.414062 L 236.679688 103.546875 L 229.378906 117.136719 L 224.773438 131.539062 L 208.097656 134.316406 L 215.1875 112.132812 L 219.242188 102.242188 L 221.636719 97.621094 Z M 244.808594 54.058594 "/>
<path style=" stroke:none;fill-rule:nonzero;fill:rgb(39.99939%,39.99939%,39.99939%);fill-opacity:0.3;" d="M 273.601562 76.140625 L 284.835938 84.566406 L 263.714844 127.695312 L 247.644531 128.960938 L 253.316406 115.367188 L 257.03125 107.359375 L 259.769531 101.585938 Z M 273.601562 76.140625 "/>
<path style=" stroke:none;fill-rule:nonzero;fill:rgb(39.99939%,39.99939%,39.99939%);fill-opacity:0.3;" d="M 228.921875 42.636719 L 207.839844 84.792969 L 207.175781 84.398438 Z M 228.921875 42.636719 "/>
<path style="fill-rule:nonzero;fill:rgb(39.99939%,39.99939%,39.99939%);fill-opacity:1;stroke-width:0.03;stroke-linecap:square;stroke-linejoin:miter;stroke:rgb(39.99939%,39.99939%,39.99939%);stroke-opacity:1;stroke-miterlimit:3.239307;" d="M 200.703125 319.050781 L 200.757812 313.226562 L 201.394531 301.902344 L 201.476562 295.320312 L 201.003906 290.753906 L 201.566406 287.160156 L 201.75 283.566406 L 202.121094 278.175781 L 203.308594 273.5 L 204.960938 265.964844 L 209.890625 252.496094 L 211.550781 248.632812 L 217.222656 244.3125 L 223.847656 241.25 L 228.957031 241.066406 L 233.125 241.597656 L 236.722656 242.3125 L 230.914062 248.753906 L 244.84375 266.226562 L 245.5625 265.511719 L 246.277344 264.792969 L 233.410156 248.175781 L 238.429688 243.027344 L 244.730469 252.789062 L 248.246094 257.777344 L 251.101562 261.515625 L 252.859375 265.050781 L 256.597656 270.246094 L 259.453125 274.402344 L 242.691406 275.347656 L 237.480469 271.265625 L 235.917969 271.851562 L 242.542969 277.164062 L 255.617188 276.277344 L 260.550781 275.859375 L 263.621094 276.269531 L 269.101562 276.472656 L 277.65625 276.460938 L 283.355469 275.203125 L 289.050781 273.117188 L 292.304688 271.65625 L 297.160156 268.53125 L 303.515625 266.027344 L 307.800781 283.988281 L 289.574219 292.292969 L 289.910156 293.128906 L 290.195312 293.84375 L 307.882812 286.09375 L 311.351562 298.011719 L 327.890625 291.632812 L 350.871094 282.875 L 355.082031 294.71875 L 334.042969 302.234375 L 314.292969 309.160156 L 299.414062 313.304688 L 287.527344 315.820312 L 273.597656 318.398438 L 250.863281 319.1875 L 252.683594 315.824219 L 263.015625 312.105469 L 296.335938 305.820312 L 296.332031 304.882812 L 296.332031 303.949219 L 254.242188 311.074219 L 252.703125 307.957031 L 250.289062 305.464844 L 247.652344 303.804688 L 243.925781 303.808594 L 241.078125 305.476562 L 239.546875 306.726562 L 238.890625 308.597656 L 239.492188 309.363281 L 240.273438 309.539062 L 240.824219 309.839844 L 241.007812 310.929688 L 241.375 311.449219 L 242.84375 311.144531 L 243.300781 310.753906 L 243.714844 310.492188 L 244.355469 310.359375 L 245.183594 310.574219 L 247.382812 311.398438 L 249.585938 310.960938 L 251.144531 311.351562 L 251.925781 311.785156 L 252.492188 312.535156 L 245.847656 319.316406 L 234.761719 319.613281 L 223.03125 319.582031 L 214.460938 319.496094 Z M 200.703125 319.050781 " transform="matrix(1,0,0,1,-74,-13)"/>
<path style="fill-rule:nonzero;fill:rgb(39.99939%,39.99939%,39.99939%);fill-opacity:1;stroke-width:0.03;stroke-linecap:square;stroke-linejoin:miter;stroke:rgb(39.99939%,39.99939%,39.99939%);stroke-opacity:1;stroke-miterlimit:3.239307;" d="M 126.589844 315.855469 L 132.195312 318.832031 L 132.757812 320.097656 L 132.726562 321.398438 L 132.652344 321.570312 Z M 126.589844 315.855469 " transform="matrix(1,0,0,1,-74,-13)"/>
<path style="fill-rule:nonzero;fill:rgb(39.99939%,39.99939%,39.99939%);fill-opacity:1;stroke-width:0.03;stroke-linecap:square;stroke-linejoin:miter;stroke:rgb(39.99939%,39.99939%,39.99939%);stroke-opacity:1;stroke-miterlimit:3.239307;" d="M 137.570312 284.582031 L 138.179688 284.738281 L 132.511719 294.574219 Z M 137.570312 284.582031 " transform="matrix(1,0,0,1,-74,-13)"/>
<path style="fill-rule:nonzero;fill:rgb(39.99939%,39.99939%,39.99939%);fill-opacity:1;stroke-width:0.03;stroke-linecap:square;stroke-linejoin:miter;stroke:rgb(39.99939%,39.99939%,39.99939%);stroke-opacity:1;stroke-miterlimit:3.239307;" d="M 200.660156 313.207031 L 200.664062 319.046875 L 196.5 318.78125 L 192.902344 317.527344 L 181.855469 317.882812 L 176.410156 317.644531 L 172.515625 317.03125 L 168.753906 315.4375 L 167.964844 308.671875 L 196.472656 299.558594 L 197.226562 295.605469 L 201.191406 295.421875 L 201.207031 301.890625 Z M 200.660156 313.207031 " transform="matrix(1,0,0,1,-74,-13)"/>
<path style="fill-rule:nonzero;fill:rgb(39.99939%,39.99939%,39.99939%);fill-opacity:1;stroke-width:0.03;stroke-linecap:square;stroke-linejoin:miter;stroke:rgb(39.99939%,39.99939%,39.99939%);stroke-opacity:1;stroke-miterlimit:3.239307;" d="M 141.324219 284.351562 L 153.773438 291.425781 L 147.503906 303.03125 L 141.058594 314.476562 L 135.472656 316.96875 L 129.710938 313.878906 L 125.429688 311.757812 Z M 141.324219 284.351562 " transform="matrix(1,0,0,1,-74,-13)"/>
<path style="fill-rule:nonzero;fill:rgb(39.99939%,39.99939%,39.99939%);fill-opacity:1;stroke-width:0.03;stroke-linecap:square;stroke-linejoin:miter;stroke:rgb(39.99939%,39.99939%,39.99939%);stroke-opacity:1;stroke-miterlimit:3.239307;" d="M 156.996094 294.085938 L 169.089844 301.253906 L 164.738281 307.800781 L 163.6875 310.074219 L 166.625 312.132812 L 167.160156 318.429688 L 161.496094 318.433594 L 161.238281 316.511719 L 154.027344 316.882812 L 149.214844 316.167969 L 145.671875 313.652344 Z M 156.996094 294.085938 " transform="matrix(1,0,0,1,-74,-13)"/>
<path style="fill-rule:nonzero;fill:rgb(39.99939%,39.99939%,39.99939%);fill-opacity:1;stroke-width:0.03;stroke-linecap:square;stroke-linejoin:miter;stroke:rgb(39.99939%,39.99939%,39.99939%);stroke-opacity:1;stroke-miterlimit:3.239307;" d="M 170.492188 302.121094 L 175.089844 295.046875 L 181.328125 284.984375 L 188.914062 270.539062 L 200.027344 274.429688 L 197.632812 286.253906 L 193.441406 297.589844 L 170.492188 305.085938 L 168.042969 305.882812 Z M 170.492188 302.121094 " transform="matrix(1,0,0,1,-74,-13)"/>
<path style="fill-rule:nonzero;fill:rgb(39.99939%,39.99939%,39.99939%);fill-opacity:1;stroke-width:0.03;stroke-linecap:square;stroke-linejoin:miter;stroke:rgb(39.99939%,39.99939%,39.99939%);stroke-opacity:1;stroke-miterlimit:3.239307;" d="M 186.957031 233.25 L 196.664062 247.40625 L 186.195312 266.035156 L 182.332031 264.207031 L 178.039062 262.105469 L 174.128906 260.160156 Z M 186.957031 233.25 " transform="matrix(1,0,0,1,-74,-13)"/>
<path style="fill-rule:nonzero;fill:rgb(39.99939%,39.99939%,39.99939%);fill-opacity:1;stroke-width:0.03;stroke-linecap:square;stroke-linejoin:miter;stroke:rgb(39.99939%,39.99939%,39.99939%);stroke-opacity:1;stroke-miterlimit:3.239307;" d="M 170.492188 261.269531 L 170.964844 261.527344 L 170.492188 262.355469 L 155.480469 288.542969 L 140.820312 280.765625 L 156.488281 253.675781 Z M 170.492188 261.269531 " transform="matrix(1,0,0,1,-74,-13)"/>
<path style="fill-rule:nonzero;fill:rgb(39.99939%,39.99939%,39.99939%);fill-opacity:1;stroke-width:0.03;stroke-linecap:square;stroke-linejoin:miter;stroke:rgb(39.99939%,39.99939%,39.99939%);stroke-opacity:1;stroke-miterlimit:3.239307;" d="M 170.492188 267.253906 L 173.148438 262.648438 L 178.984375 265.335938 L 185.53125 268.652344 L 170.648438 298.3125 L 170.492188 298.261719 L 165.3125 296.570312 L 160.898438 293.378906 L 157.261719 290.183594 Z M 170.492188 267.253906 " transform="matrix(1,0,0,1,-74,-13)"/>
<path style="fill-rule:nonzero;fill:rgb(39.99939%,39.99939%,39.99939%);fill-opacity:1;stroke-width:0.03;stroke-linecap:square;stroke-linejoin:miter;stroke:rgb(39.99939%,39.99939%,39.99939%);stroke-opacity:1;stroke-miterlimit:3.239307;" d="M 209.847656 252.476562 L 204.945312 265.957031 L 203.25 273.503906 L 188.664062 268.320312 L 196.550781 251.824219 L 199.660156 247.882812 L 194.007812 239.082031 L 213.246094 227.316406 L 221.886719 239.226562 L 213.160156 244.742188 L 210.410156 247.015625 L 207.199219 250.792969 L 208.519531 251.632812 Z M 209.847656 252.476562 " transform="matrix(1,0,0,1,-74,-13)"/>
<path style="fill-rule:nonzero;fill:rgb(39.99939%,39.99939%,39.99939%);fill-opacity:1;stroke-width:0.03;stroke-linecap:square;stroke-linejoin:miter;stroke:rgb(39.99939%,39.99939%,39.99939%);stroke-opacity:1;stroke-miterlimit:3.239307;" d="M 308.476562 231.453125 L 309.023438 238.222656 L 303.601562 240.988281 L 296.824219 244.492188 L 289.855469 247.808594 L 283.371094 248.726562 L 279.292969 249.199219 Z M 308.476562 231.453125 " transform="matrix(1,0,0,1,-74,-13)"/>
<path style="fill-rule:nonzero;fill:rgb(39.99939%,39.99939%,39.99939%);fill-opacity:1;stroke-width:0.03;stroke-linecap:square;stroke-linejoin:miter;stroke:rgb(39.99939%,39.99939%,39.99939%);stroke-opacity:1;stroke-miterlimit:3.239307;" d="M 270.164062 254.476562 L 280.558594 251.523438 L 289.664062 250.589844 L 297.796875 246.71875 L 304.769531 243.585938 L 305.96875 261.960938 L 294.984375 267.945312 L 288.550781 270.84375 L 282.015625 272.917969 L 274.367188 274.664062 L 263.464844 274.820312 L 260.996094 273.195312 L 257.628906 268.449219 L 255.90625 265.40625 L 255.082031 263.28125 L 255.679688 262.5 Z M 270.164062 254.476562 " transform="matrix(1,0,0,1,-74,-13)"/>
<path style="fill-rule:nonzero;fill:rgb(39.99939%,39.99939%,39.99939%);fill-opacity:1;stroke-width:0.03;stroke-linecap:square;stroke-linejoin:miter;stroke:rgb(39.99939%,39.99939%,39.99939%);stroke-opacity:1;stroke-miterlimit:3.239307;" d="M 276.011719 230.566406 L 283.863281 242.035156 L 253.753906 259.863281 L 250.976562 256.578125 L 248 252.046875 L 245.515625 248.695312 Z M 276.011719 230.566406 " transform="matrix(1,0,0,1,-74,-13)"/>
<path style="fill-rule:nonzero;fill:rgb(39.99939%,39.99939%,39.99939%);fill-opacity:1;stroke-width:0.03;stroke-linecap:square;stroke-linejoin:miter;stroke:rgb(39.99939%,39.99939%,39.99939%);stroke-opacity:1;stroke-miterlimit:3.239307;" d="M 306.527344 265.242188 L 312.898438 262.105469 L 320.367188 258.765625 L 328.800781 256.574219 L 335.003906 257.300781 L 341.46875 259.023438 L 345.089844 260.863281 L 348.101562 268.226562 L 348.871094 270.785156 L 350.628906 280.078125 L 345.707031 282.074219 L 341.824219 283.582031 L 336.207031 285.613281 L 330.78125 287.457031 L 325.746094 289.300781 L 320.128906 291.515625 L 313.160156 294.648438 L 311.40625 288.585938 L 310.042969 283.4375 L 308.28125 273.144531 Z M 306.527344 265.242188 " transform="matrix(1,0,0,1,-74,-13)"/>
<path style="fill-rule:nonzero;fill:rgb(39.99939%,39.99939%,39.99939%);fill-opacity:1;stroke-width:0.03;stroke-linecap:square;stroke-linejoin:miter;stroke:rgb(39.99939%,39.99939%,39.99939%);stroke-opacity:1;stroke-miterlimit:3.239307;" d="M 308.742188 241.542969 L 323.464844 236.558594 L 330.429688 235.09375 L 336.4375 235.085938 L 344.585938 236.53125 L 345.996094 237.863281 L 345.941406 238.039062 L 345.554688 239.8125 L 345.367188 240.390625 L 344.890625 242.867188 L 344.035156 246.804688 L 343.964844 247.730469 L 343.445312 250.875 L 343.507812 253.671875 L 343.3125 256.1875 L 335.3125 254.375 L 329.496094 253.648438 L 323.996094 254.125 L 317.097656 256.238281 L 308.769531 260.109375 Z M 308.742188 241.542969 " transform="matrix(1,0,0,1,-74,-13)"/>
<path style="fill-rule:nonzero;fill:rgb(39.99939%,39.99939%,39.99939%);fill-opacity:1;stroke-width:0.03;stroke-linecap:square;stroke-linejoin:miter;stroke:rgb(39.99939%,39.99939%,39.99939%);stroke-opacity:1;stroke-miterlimit:3.239307;" d="M 202.808594 211.308594 L 209.101562 220.152344 L 212.136719 225.011719 L 193.039062 236.484375 L 184.277344 224.070312 Z M 202.808594 211.308594 " transform="matrix(1,0,0,1,-74,-13)"/>
<path style="fill-rule:nonzero;fill:rgb(39.99939%,39.99939%,39.99939%);fill-opacity:1;stroke-width:0.03;stroke-linecap:square;stroke-linejoin:miter;stroke:rgb(39.99939%,39.99939%,39.99939%);stroke-opacity:1;stroke-miterlimit:3.239307;" d="M 170.492188 226.738281 L 175.097656 217.617188 L 185.46875 231.464844 L 171.96875 259.140625 L 170.492188 258.351562 L 157.910156 251.648438 Z M 170.492188 226.738281 " transform="matrix(1,0,0,1,-74,-13)"/>
<path style="fill-rule:nonzero;fill:rgb(39.99939%,39.99939%,39.99939%);fill-opacity:1;stroke-width:0.03;stroke-linecap:square;stroke-linejoin:miter;stroke:rgb(39.99939%,39.99939%,39.99939%);stroke-opacity:1;stroke-miterlimit:3.239307;" d="M 173.699219 210.953125 L 192.640625 197.964844 L 201.828125 209.957031 L 183.042969 222.710938 Z M 173.699219 210.953125 " transform="matrix(1,0,0,1,-74,-13)"/>
<path style="fill-rule:nonzero;fill:rgb(39.99939%,39.99939%,39.99939%);fill-opacity:1;stroke-width:0.03;stroke-linecap:square;stroke-linejoin:miter;stroke:rgb(39.99939%,39.99939%,39.99939%);stroke-opacity:1;stroke-miterlimit:3.239307;" d="M 265.019531 215.273438 L 274.03125 228.238281 L 243.835938 246.382812 L 239.652344 240.761719 L 237.640625 236.648438 L 235.542969 234.066406 Z M 265.019531 215.273438 " transform="matrix(1,0,0,1,-74,-13)"/>
<path style="fill-rule:nonzero;fill:rgb(39.99939%,39.99939%,39.99939%);fill-opacity:1;stroke-width:0.03;stroke-linecap:square;stroke-linejoin:miter;stroke:rgb(39.99939%,39.99939%,39.99939%);stroke-opacity:1;stroke-miterlimit:3.239307;" d="M 350.046875 161.730469 L 351.582031 162.519531 L 329.171875 175.542969 L 346.320312 165.222656 Z M 350.046875 161.730469 " transform="matrix(1,0,0,1,-74,-13)"/>
<path style="fill-rule:nonzero;fill:rgb(39.99939%,39.99939%,39.99939%);fill-opacity:1;stroke-width:0.03;stroke-linecap:square;stroke-linejoin:miter;stroke:rgb(39.99939%,39.99939%,39.99939%);stroke-opacity:1;stroke-miterlimit:3.239307;" d="M 299.851562 195.527344 L 308.015625 207.191406 L 276.65625 226.773438 L 268.136719 214.144531 Z M 299.851562 195.527344 " transform="matrix(1,0,0,1,-74,-13)"/>
<path style="fill-rule:nonzero;fill:rgb(39.99939%,39.99939%,39.99939%);fill-opacity:1;stroke-width:0.03;stroke-linecap:square;stroke-linejoin:miter;stroke:rgb(39.99939%,39.99939%,39.99939%);stroke-opacity:1;stroke-miterlimit:3.239307;" d="M 370.859375 175.539062 L 375.480469 179.511719 L 379.429688 183.144531 L 382.570312 186.554688 L 353.121094 201.742188 L 330.113281 214.136719 L 309.480469 225.886719 L 285.808594 239.664062 L 278.019531 228.613281 L 297.785156 216.910156 L 315.542969 205.804688 L 330.582031 196.648438 L 345.820312 188.550781 L 359.1875 181.335938 Z M 370.859375 175.539062 " transform="matrix(1,0,0,1,-74,-13)"/>
<path style="fill-rule:nonzero;fill:rgb(39.99939%,39.99939%,39.99939%);fill-opacity:1;stroke-width:0.03;stroke-linecap:square;stroke-linejoin:miter;stroke:rgb(39.99939%,39.99939%,39.99939%);stroke-opacity:1;stroke-miterlimit:3.239307;" d="M 311.417969 230.5625 L 338.222656 215.429688 L 350.953125 207.636719 L 352.539062 208.332031 L 353.390625 210.351562 L 350.285156 223.820312 L 349.371094 226.980469 L 346.773438 235.355469 L 342.128906 233.632812 L 335.539062 233.089844 L 330.304688 232.902344 L 322.941406 234.199219 L 311.660156 237.699219 Z M 311.417969 230.5625 " transform="matrix(1,0,0,1,-74,-13)"/>
<path style="fill-rule:nonzero;fill:rgb(39.99939%,39.99939%,39.99939%);fill-opacity:1;stroke-width:0.03;stroke-linecap:square;stroke-linejoin:miter;stroke:rgb(39.99939%,39.99939%,39.99939%);stroke-opacity:1;stroke-miterlimit:3.239307;" d="M 355.195312 163.515625 L 361.648438 167.96875 L 368.921875 173.777344 L 349.636719 183.597656 L 336.613281 190.839844 L 310.542969 206.445312 L 302.589844 195.199219 Z M 355.195312 163.515625 " transform="matrix(1,0,0,1,-74,-13)"/>
<path style=" stroke:none;fill-rule:evenodd;fill:rgb(85.096741%,85.096741%,81.959534%);fill-opacity:0.7;" d="M 13.25 36 C 13.25 31.957031 11.640625 28.078125 8.78125 25.21875 C 5.921875 22.359375 2.042969 20.75 -2 20.75 C -6.042969 20.75 -9.921875 22.359375 -12.78125 25.21875 C -15.640625 28.078125 -17.25 31.957031 -17.25 36 C -17.25 40.042969 -15.640625 43.921875 -12.78125 46.78125 C -9.921875 49.640625 -6.042969 51.25 -2 51.25 C 2.042969 51.25 5.921875 49.640625 8.78125 46.78125 C 11.640625 43.921875 13.25 40.042969 13.25 36 Z M 13.25 36 "/>
<path style=" stroke:none;fill-rule:evenodd;fill:rgb(85.096741%,85.096741%,81.959534%);fill-opacity:0.7;" d="M 291.25 263 C 291.25 258.957031 289.640625 255.078125 286.78125 252.21875 C 283.921875 249.359375 280.042969 247.75 276 247.75 C 271.957031 247.75 268.078125 249.359375 265.21875 252.21875 C 262.359375 255.078125 260.75 258.957031 260.75 263 C 260.75 267.042969 262.359375 270.921875 265.21875 273.78125 C 268.078125 276.640625 271.957031 278.25 276 278.25 C 280.042969 278.25 283.921875 276.640625 286.78125 273.78125 C 289.640625 270.921875 291.25 267.042969 291.25 263 Z M 291.25 263 "/>
</g>
</svg>
