<?xml version="1.0" encoding="UTF-8"?>
<svg xmlns="http://www.w3.org/2000/svg" xmlns:xlink="http://www.w3.org/1999/xlink" width="361pt" height="361pt" viewBox="0 0 361 361" version="1.1">
<defs>
<clipPath id="clip1">
  <path d="M 352 318 L 360 318 L 360 351 L 352 351 Z M 352 318 "/>
</clipPath>
<clipPath id="clip2">
  <path d="M 359 269 L 360 269 L 360 318 L 359 318 Z M 359 269 "/>
</clipPath>
<clipPath id="clip3">
  <path d="M 339 265 L 360 265 L 360 313 L 339 313 Z M 339 265 "/>
</clipPath>
<clipPath id="clip4">
  <path d="M 319 346 L 345 346 L 345 360 L 319 360 Z M 319 346 "/>
</clipPath>
<clipPath id="clip5">
  <path d="M 300 343 L 327 343 L 327 360 L 300 360 Z M 300 343 "/>
</clipPath>
<clipPath id="clip6">
  <path d="M 278 338 L 311 338 L 311 360 L 278 360 Z M 278 338 "/>
</clipPath>
<clipPath id="clip7">
  <path d="M 357 354 L 360 354 L 360 360 L 357 360 Z M 357 354 "/>
</clipPath>
<clipPath id="clip8">
  <path d="M 339 351 L 360 351 L 360 360 L 339 360 Z M 339 351 "/>
</clipPath>
<clipPath id="clip9">
  <path d="M 284 266 L 360 266 L 360 360 L 284 360 Z M 284 266 "/>
</clipPath>
<clipPath id="clip10">
  <path d="M 184 348 L 223 348 L 223 360 L 184 360 Z M 184 348 "/>
</clipPath>
<clipPath id="clip11">
  <path d="M 217 357 L 246 357 L 246 360 L 217 360 Z M 217 357 "/>
</clipPath>
<clipPath id="clip12">
  <path d="M 104 347 L 162 347 L 162 360 L 104 360 Z M 104 347 "/>
</clipPath>
<clipPath id="clip13">
  <path d="M 161 347 L 186 347 L 186 360 L 161 360 Z M 161 347 "/>
</clipPath>
<clipPath id="clip14">
  <path d="M 313 205 L 360 205 L 360 297 L 313 297 Z M 313 205 "/>
</clipPath>
<clipPath id="clip15">
  <path d="M 345 117 L 360 117 L 360 147 L 345 147 Z M 345 117 "/>
</clipPath>
<clipPath id="clip16">
  <path d="M 353 146 L 360 146 L 360 184 L 353 184 Z M 353 146 "/>
</clipPath>
<clipPath id="clip17">
  <path d="M 358 19 L 360 19 L 360 64 L 358 64 Z M 358 19 "/>
</clipPath>
<clipPath id="clip18">
  <path d="M 351 64 L 360 64 L 360 107 L 351 107 Z M 351 64 "/>
</clipPath>
<clipPath id="clip19">
  <path d="M 339 101 L 360 101 L 360 127 L 339 127 Z M 339 101 "/>
</clipPath>
<clipPath id="clip20">
  <path d="M 324 53 L 360 53 L 360 103 L 324 103 Z M 324 53 "/>
</clipPath>
</defs>
<g id="surface2247">
<path style="fill-rule:nonzero;fill:rgb(0%,0%,0%);fill-opacity:1;stroke-width:0.03;stroke-linecap:square;stroke-linejoin:miter;stroke:rgb(0%,0%,0%);stroke-opacity:1;stroke-miterlimit:10;" d="M 0 178 L 360 178 L 360 -182 L 0 -182 Z M 0 178 " transform="matrix(1,0,0,1,0,182)"/>
<path style=" stroke:none;fill-rule:nonzero;fill:rgb(39.99939%,39.99939%,39.99939%);fill-opacity:0.3;" d="M 10.253906 214.625 L 12.414062 214.75 L 11.839844 221.292969 L 9.613281 221.109375 Z M 10.253906 214.625 "/>
<path style=" stroke:none;fill-rule:nonzero;fill:rgb(39.99939%,39.99939%,39.99939%);fill-opacity:0.3;" d="M 2.441406 214.683594 L 4.800781 214.605469 L 4.554688 219.285156 L 2.226562 219.242188 Z M 2.441406 214.683594 "/>
<path style=" stroke:none;fill-rule:nonzero;fill:rgb(39.99939%,39.99939%,39.99939%);fill-opacity:0.3;" d="M 4.304688 223.226562 L 6.539062 223.679688 L 5.097656 230.042969 L 2.863281 229.585938 Z M 4.304688 223.226562 "/>
<path style=" stroke:none;fill-rule:nonzero;fill:rgb(39.99939%,39.99939%,39.99939%);fill-opacity:0.3;" d="M -0.886719 225.496094 L 1.144531 226.054688 L -0.421875 232.222656 L -2.65625 231.769531 Z M -0.886719 225.496094 "/>
<path style=" stroke:none;fill-rule:nonzero;fill:rgb(39.99939%,39.99939%,39.99939%);fill-opacity:0.3;" d="M 13.023438 211.976562 L 17.035156 211.253906 L 19.078125 232.84375 L 18.898438 241.277344 L -20.832031 248.148438 L -22.03125 248.230469 L -22.140625 247.792969 L -22.296875 247.171875 L -30.414062 248.800781 L -33.804688 249.03125 L -31.460938 243.980469 L -27.347656 235.117188 L -24.089844 228.089844 L -19.316406 218.308594 L -3.109375 214.882812 Z M 13.023438 211.976562 "/>
<g clip-path="url(#clip1)" clip-rule="nonzero">
<path style=" stroke:none;fill-rule:nonzero;fill:rgb(39.99939%,39.99939%,39.99939%);fill-opacity:0.3;" d="M 357.816406 318.929688 L 389.402344 325.222656 L 383.3125 350.734375 L 352.363281 344.289062 Z M 357.816406 318.929688 "/>
</g>
<path style=" stroke:none;fill-rule:nonzero;fill:rgb(39.99939%,39.99939%,39.99939%);fill-opacity:0.3;" d="M 336.890625 316.742188 L 351.507812 319.195312 L 346.183594 343.101562 L 331.832031 340.238281 Z M 336.890625 316.742188 "/>
<path style=" stroke:none;fill-rule:nonzero;fill:rgb(39.99939%,39.99939%,39.99939%);fill-opacity:0.3;" d="M 319.914062 312.996094 L 333.421875 316.039062 L 328.554688 339.429688 L 314.53125 336.511719 Z M 319.914062 312.996094 "/>
<path style=" stroke:none;fill-rule:nonzero;fill:rgb(39.99939%,39.99939%,39.99939%);fill-opacity:0.3;" d="M 296.992188 308.199219 L 316.941406 312.292969 L 311.296875 335.949219 L 290.441406 331.699219 Z M 296.992188 308.199219 "/>
<path style=" stroke:none;fill-rule:nonzero;fill:rgb(39.99939%,39.99939%,39.99939%);fill-opacity:0.3;" d="M 312.144531 257.613281 L 326.800781 260.714844 L 316.992188 306.257812 L 299.203125 302.753906 Z M 312.144531 257.613281 "/>
<g clip-path="url(#clip2)" clip-rule="nonzero">
<path style=" stroke:none;fill-rule:nonzero;fill:rgb(39.99939%,39.99939%,39.99939%);fill-opacity:0.3;" d="M 368.78125 269.457031 L 383.210938 272.816406 L 373.941406 317.035156 L 359.628906 314.28125 Z M 368.78125 269.457031 "/>
</g>
<path style=" stroke:none;fill-rule:nonzero;fill:rgb(39.99939%,39.99939%,39.99939%);fill-opacity:0.3;" d="M 330.621094 261.484375 L 344.820312 264.445312 L 335.179688 309.390625 L 320.839844 306.632812 Z M 330.621094 261.484375 "/>
<g clip-path="url(#clip3)" clip-rule="nonzero">
<path style=" stroke:none;fill-rule:nonzero;fill:rgb(39.99939%,39.99939%,39.99939%);fill-opacity:0.3;" d="M 348.679688 265.238281 L 362.414062 268.085938 L 352.515625 312.816406 L 339.027344 310.140625 Z M 348.679688 265.238281 "/>
</g>
<g clip-path="url(#clip4)" clip-rule="nonzero">
<path style=" stroke:none;fill-rule:nonzero;fill:rgb(39.99939%,39.99939%,39.99939%);fill-opacity:0.3;" d="M 330.660156 346.992188 L 344.527344 349.597656 L 332.644531 404.417969 L 319.097656 401.585938 Z M 330.660156 346.992188 "/>
</g>
<g clip-path="url(#clip5)" clip-rule="nonzero">
<path style=" stroke:none;fill-rule:nonzero;fill:rgb(39.99939%,39.99939%,39.99939%);fill-opacity:0.3;" d="M 312.671875 343.339844 L 326.851562 346.109375 L 315.183594 400.824219 L 300.988281 397.921875 L 302.710938 390.214844 L 309.644531 390.96875 L 310.304688 386.554688 L 309.542969 386.464844 L 308.78125 386.378906 L 308.320312 389.050781 L 303.210938 388.507812 Z M 312.671875 343.339844 "/>
</g>
<g clip-path="url(#clip6)" clip-rule="nonzero">
<path style=" stroke:none;fill-rule:nonzero;fill:rgb(39.99939%,39.99939%,39.99939%);fill-opacity:0.3;" d="M 288.058594 338.402344 L 310.175781 342.59375 L 305.300781 364.8125 L 294.347656 363.664062 L 293.386719 366.304688 L 304.621094 367.683594 L 299.902344 389.398438 L 282.410156 390.066406 L 281.253906 388.222656 L 279.976562 385.804688 L 279.089844 383.847656 L 278.300781 380.871094 L 278.199219 377.800781 L 278.292969 375.074219 L 279.265625 370.046875 L 281.988281 357.542969 Z M 288.058594 338.402344 "/>
</g>
<g clip-path="url(#clip7)" clip-rule="nonzero">
<path style=" stroke:none;fill-rule:nonzero;fill:rgb(39.99939%,39.99939%,39.99939%);fill-opacity:0.3;" d="M 369.9375 354.679688 L 383.675781 357.375 L 371.890625 412.421875 L 357.464844 409.367188 Z M 369.9375 354.679688 "/>
</g>
<g clip-path="url(#clip8)" clip-rule="nonzero">
<path style=" stroke:none;fill-rule:nonzero;fill:rgb(39.99939%,39.99939%,39.99939%);fill-opacity:0.3;" d="M 351.046875 351.101562 L 365.953125 353.855469 L 354.105469 408.867188 L 339.507812 405.628906 Z M 351.046875 351.101562 "/>
</g>
<g clip-path="url(#clip9)" clip-rule="nonzero">
<path style=" stroke:none;fill-rule:nonzero;fill:rgb(39.99939%,39.99939%,39.99939%);fill-opacity:0.3;" d="M 583.640625 296.710938 L 550.359375 409.488281 L 522.140625 530.117188 L 518.453125 546.660156 L 514.5 546.523438 L 468.59375 544.632812 L 350.386719 538.644531 L 304.773438 536.242188 L 303.8125 535.640625 L 301.753906 528.234375 L 299.574219 519.648438 L 298.996094 517.367188 L 296.078125 505.800781 L 293.203125 493.417969 L 302.847656 492.082031 L 302.933594 491.023438 L 303.019531 489.96875 L 292.75 491.335938 L 284.769531 458.339844 L 366.234375 458.476562 L 382.652344 376.882812 L 406.4375 270.613281 L 385.957031 266.351562 L 388.199219 266.753906 L 405.90625 269.753906 Z M 583.640625 296.710938 "/>
</g>
<g clip-path="url(#clip10)" clip-rule="nonzero">
<path style=" stroke:none;fill-rule:nonzero;fill:rgb(39.99939%,39.99939%,39.99939%);fill-opacity:0.3;" d="M 189.441406 348.8125 L 208.882812 354.054688 L 218.601562 357.273438 L 222.269531 357.273438 L 214.207031 380.949219 L 184.632812 374.84375 Z M 189.441406 348.8125 "/>
</g>
<g clip-path="url(#clip11)" clip-rule="nonzero">
<path style=" stroke:none;fill-rule:nonzero;fill:rgb(39.99939%,39.99939%,39.99939%);fill-opacity:0.3;" d="M 225.25 357.742188 L 245.996094 359.929688 L 238.21875 385.808594 L 217.246094 381.585938 Z M 225.25 357.742188 "/>
</g>
<g clip-path="url(#clip12)" clip-rule="nonzero">
<path style=" stroke:none;fill-rule:nonzero;fill:rgb(39.99939%,39.99939%,39.99939%);fill-opacity:0.3;" d="M 148.992188 348.0625 L 148.996094 348.402344 L 148.996094 349.527344 L 161.558594 349.929688 L 157.703125 370.707031 L 104.144531 359.570312 L 104.261719 359 L 139.71875 347.179688 Z M 148.992188 348.0625 "/>
</g>
<g clip-path="url(#clip13)" clip-rule="nonzero">
<path style=" stroke:none;fill-rule:nonzero;fill:rgb(39.99939%,39.99939%,39.99939%);fill-opacity:0.3;" d="M 185.160156 347.78125 L 183.609375 357.859375 L 180.695312 374.035156 L 161.488281 370.015625 L 165.308594 349.488281 L 172.429688 347.78125 Z M 185.160156 347.78125 "/>
</g>
<path style=" stroke:none;fill-rule:nonzero;fill:rgb(39.99939%,39.99939%,39.99939%);fill-opacity:0.3;" d="M 196.332031 310.375 L 203.003906 312.753906 L 215.558594 329.101562 L 214.871094 335.515625 L 208.429688 334.25 L 208.269531 335.0625 L 208.105469 335.878906 L 214.457031 337.054688 L 210.957031 350.730469 L 189.921875 345.363281 Z M 196.332031 310.375 "/>
<path style=" stroke:none;fill-rule:nonzero;fill:rgb(39.99939%,39.99939%,39.99939%);fill-opacity:0.3;" d="M 150.214844 271.375 L 156.574219 274.820312 L 169.675781 281.304688 L 175.238281 283.453125 L 171.261719 300.488281 L 149.648438 295.5 L 149.378906 296.574219 L 148.667969 299.371094 L 154.945312 300.941406 L 155.253906 298.945312 L 170.875 302.675781 L 166.625 322.804688 L 156.300781 320.660156 L 156.695312 318.898438 L 155.726562 318.734375 L 154.804688 318.519531 L 154.390625 320.214844 L 144.691406 318.050781 L 146.605469 308.53125 L 139.253906 307.097656 L 139.453125 305.128906 L 138.972656 305.054688 L 138.492188 304.984375 L 138.242188 307.53125 L 145.578125 309.191406 L 143.804688 319.15625 L 131.730469 316.570312 L 133.476562 308.113281 L 128.355469 306.824219 L 128.308594 307.207031 L 128.257812 307.59375 L 132.3125 308.546875 L 130.804688 317.058594 L 144.085938 319.863281 L 166.277344 324.554688 L 161.996094 347.761719 L 148.992188 347.277344 L 148.992188 348.0625 L 139.71875 347.179688 L 104.261719 359 L 111.515625 323.960938 L 110.046875 323.890625 L 108.574219 323.820312 L 100.804688 358.660156 L 86.289062 308.570312 L 93.503906 303.667969 L 114.511719 291.960938 Z M 150.214844 271.375 "/>
<path style=" stroke:none;fill-rule:nonzero;fill:rgb(39.99939%,39.99939%,39.99939%);fill-opacity:0.3;" d="M 173.632812 304.738281 L 191.226562 309.4375 L 187.320312 324.292969 L 187.785156 324.320312 L 188.246094 324.34375 L 192.101562 309.644531 L 193.792969 310.109375 L 187.851562 336.226562 L 179.84375 335.300781 L 179.457031 337.109375 L 180.621094 337.21875 L 180.761719 336.203125 L 187.710938 337.03125 L 186.117188 344.3125 L 177.632812 342.097656 L 176.914062 345.183594 L 185.21875 347.402344 L 185.160156 347.78125 L 172.429688 347.78125 L 165.308594 349.488281 Z M 173.632812 304.738281 "/>
<path style=" stroke:none;fill-rule:nonzero;fill:rgb(39.99939%,39.99939%,39.99939%);fill-opacity:0.3;" d="M 202.816406 279.8125 L 281.355469 303 L 264.800781 359.523438 L 250.167969 358.140625 L 239.824219 357.03125 L 231.605469 356.347656 L 222.835938 354.972656 L 217.332031 353.835938 L 213.976562 352.292969 L 219.378906 332.234375 L 225.832031 327.605469 L 225.496094 327.199219 L 225.160156 326.796875 L 219.558594 330.90625 L 222.710938 318.882812 L 222.164062 318.824219 L 221.613281 318.769531 L 218.402344 330.675781 L 206.359375 313.847656 L 203.1875 311.019531 L 197.273438 308.367188 L 190.050781 306.007812 L 174.453125 302.261719 L 178.726562 284.125 L 179.894531 283.839844 L 179.929688 283.859375 L 184.132812 285.359375 L 187.132812 283.859375 L 189.671875 279.039062 L 191.324219 277.726562 L 193.042969 277.101562 L 193.996094 277.101562 L 197.183594 277.921875 L 200.414062 278.984375 L 197.910156 287.171875 L 199.050781 287.480469 L 200.207031 287.789062 Z M 202.816406 279.8125 "/>
<path style=" stroke:none;fill-rule:nonzero;fill:rgb(39.99939%,39.99939%,39.99939%);fill-opacity:0.3;" d="M 157.292969 271.359375 L 156.332031 270.257812 L 155.722656 268.9375 L 155.734375 268.464844 Z M 157.292969 271.359375 "/>
<path style=" stroke:none;fill-rule:nonzero;fill:rgb(39.99939%,39.99939%,39.99939%);fill-opacity:0.3;" d="M 80.613281 291.285156 L 83.851562 290.238281 L 88.652344 289.796875 L 94.78125 289.789062 L 98.136719 289.507812 L 101.953125 288.1875 L 106.886719 289.605469 L 111.457031 291.1875 L 85.101562 305.910156 Z M 80.613281 291.285156 "/>
<path style=" stroke:none;fill-rule:nonzero;fill:rgb(39.99939%,39.99939%,39.99939%);fill-opacity:0.3;" d="M 273.292969 291.5625 L 284.230469 294.648438 L 282.566406 298.980469 L 272.523438 296.148438 Z M 273.292969 291.5625 "/>
<path style=" stroke:none;fill-rule:nonzero;fill:rgb(39.99939%,39.99939%,39.99939%);fill-opacity:0.3;" d="M 209.59375 194.492188 L 268.015625 197.757812 L 264.949219 198.65625 L 260.46875 200.449219 L 257.050781 201.917969 L 251.335938 204.414062 L 247.894531 206.507812 L 243.773438 209.03125 L 238.953125 212.484375 L 233.574219 215.609375 L 228.863281 218.523438 L 223.898438 221.304688 L 222.316406 221.804688 L 202.636719 221.164062 Z M 209.59375 194.492188 "/>
<path style=" stroke:none;fill-rule:nonzero;fill:rgb(39.99939%,39.99939%,39.99939%);fill-opacity:0.3;" d="M 172.839844 192.492188 L 206.226562 193.789062 L 200.007812 221.390625 L 171.824219 222.175781 Z M 172.839844 192.492188 "/>
<path style=" stroke:none;fill-rule:nonzero;fill:rgb(39.99939%,39.99939%,39.99939%);fill-opacity:0.3;" d="M 149.445312 270.957031 L 150.214844 271.375 L 114.511719 291.960938 L 93.503906 303.667969 L 86.289062 308.570312 L 85.859375 307.082031 Z M 149.445312 270.957031 "/>
<path style=" stroke:none;fill-rule:nonzero;fill:rgb(39.99939%,39.99939%,39.99939%);fill-opacity:0.3;" d="M 179.894531 283.839844 L 182.503906 283.203125 L 186.191406 281.367188 L 189.261719 279.363281 L 189.671875 279.039062 L 187.132812 283.859375 L 184.132812 285.359375 L 179.929688 283.859375 Z M 179.894531 283.839844 "/>
<path style=" stroke:none;fill-rule:nonzero;fill:rgb(39.99939%,39.99939%,39.99939%);fill-opacity:0.3;" d="M 191.324219 277.726562 L 192.113281 277.097656 L 193.042969 277.101562 Z M 191.324219 277.726562 "/>
<path style=" stroke:none;fill-rule:nonzero;fill:rgb(39.99939%,39.99939%,39.99939%);fill-opacity:0.3;" d="M 193.996094 277.101562 L 194.699219 277.101562 L 197.183594 277.921875 Z M 193.996094 277.101562 "/>
<path style=" stroke:none;fill-rule:nonzero;fill:rgb(39.99939%,39.99939%,39.99939%);fill-opacity:0.3;" d="M 78.089844 186.472656 L 91.9375 186.855469 L 74.730469 252.542969 L 69.988281 253.546875 L 65.222656 237.472656 Z M 78.089844 186.472656 "/>
<path style=" stroke:none;fill-rule:nonzero;fill:rgb(39.99939%,39.99939%,39.99939%);fill-opacity:0.3;" d="M 51.429688 185.113281 L 74.964844 186.375 L 65.914062 224.136719 L 64.90625 225.101562 L 63.386719 224.910156 Z M 51.429688 185.113281 "/>
<path style=" stroke:none;fill-rule:nonzero;fill:rgb(39.99939%,39.99939%,39.99939%);fill-opacity:0.3;" d="M 213.75 240.003906 L 217.679688 224.25 L 224.207031 223.65625 L 228.96875 220.785156 L 234.90625 217.132812 L 240.144531 213.808594 L 246.503906 209.625 L 252.089844 206.101562 L 259.007812 202.976562 L 265.226562 200.648438 L 269.351562 199.386719 L 273.3125 198.367188 L 276.539062 198.363281 L 303.828125 208.628906 L 305.578125 209.5625 L 307.46875 211.800781 L 308.175781 213.738281 L 308.570312 215.601562 L 308.496094 217.835938 L 303.859375 233.585938 L 285.570312 293.851562 L 272.226562 289.949219 L 265.539062 281.132812 L 264.289062 280.09375 L 263.917969 280.386719 L 263.542969 280.683594 L 264.828125 281.808594 L 266.703125 284.101562 L 270.949219 290.082031 L 270.101562 295.472656 L 247.386719 289.394531 L 238.886719 287.121094 L 241.5625 277.164062 L 240.773438 276.890625 L 239.988281 276.613281 L 237.035156 286.632812 L 203.582031 277.679688 L 213.398438 241.585938 L 221.746094 242.074219 L 221.921875 241.242188 L 222.09375 240.410156 Z M 213.75 240.003906 "/>
<path style=" stroke:none;fill-rule:nonzero;fill:rgb(39.99939%,39.99939%,39.99939%);fill-opacity:0.3;" d="M 215.132812 223.585938 L 201.472656 277.347656 L 196.109375 275.523438 L 192.507812 275.191406 L 189.960938 276.363281 L 187.066406 278.449219 L 184.609375 279.953125 L 181.621094 281.539062 L 178.78125 281.890625 L 157.984375 272.148438 L 157.292969 271.359375 L 155.734375 268.464844 L 155.804688 266.136719 L 155.800781 261.933594 L 154.488281 256.742188 L 151.582031 252.300781 L 147.699219 248.257812 L 142.363281 244.445312 L 138.957031 242.378906 L 148.957031 238.847656 L 156.238281 235.304688 L 162.921875 230.359375 L 166.3125 227.035156 L 169.28125 224.410156 Z M 215.132812 223.585938 "/>
<path style=" stroke:none;fill-rule:nonzero;fill:rgb(39.99939%,39.99939%,39.99939%);fill-opacity:0.3;" d="M 70.140625 256.363281 L 110.285156 248.207031 L 128.339844 244.542969 L 134.09375 244.039062 L 136.839844 245.148438 L 140.371094 246.507812 L 143.507812 248.488281 L 145.867188 250.714844 L 149.007812 254.183594 L 151.140625 258.164062 L 152.117188 262.996094 L 150.101562 267.445312 L 139.414062 274.128906 L 113.191406 290.527344 L 107.460938 288.453125 L 102.023438 286.976562 L 101.214844 287.03125 L 98.078125 288.300781 L 94.722656 288.636719 L 88.589844 288.589844 L 83.503906 289.035156 L 80.265625 289.914062 Z M 70.140625 256.363281 "/>
<path style=" stroke:none;fill-rule:nonzero;fill:rgb(39.99939%,39.99939%,39.99939%);fill-opacity:0.3;" d="M 150.09375 190.972656 L 169.839844 192.742188 L 168.953125 221.558594 L 167.519531 223.167969 L 164.78125 225.890625 L 163.160156 227.464844 L 158.15625 231.554688 L 154.207031 234.308594 L 137.085938 240.578125 L 132.515625 241.585938 L 135.480469 223.832031 L 134.78125 223.792969 L 134.074219 223.75 L 131.023438 242.003906 L 121.269531 243.875 L 101.921875 247.589844 L 78.332031 252.121094 L 81.933594 237.875 L 94.644531 187.148438 Z M 150.09375 190.972656 "/>
<g clip-path="url(#clip14)" clip-rule="nonzero">
<path style=" stroke:none;fill-rule:nonzero;fill:rgb(39.99939%,39.99939%,39.99939%);fill-opacity:0.3;" d="M 345.289062 205.886719 L 415.496094 210.582031 L 457.148438 213.585938 L 565.714844 221.414062 L 601.996094 224.097656 L 587.835938 282.5 L 583.640625 296.710938 L 405.90625 269.753906 L 388.199219 266.753906 L 385.957031 266.351562 L 313.648438 251.300781 L 321.179688 217.953125 Z M 345.289062 205.886719 "/>
</g>
<path style=" stroke:none;fill-rule:nonzero;fill:rgb(39.99939%,39.99939%,39.99939%);fill-opacity:0.3;" d="M 110.363281 112.828125 L 106.761719 133.234375 L 99.699219 132.046875 L 99.253906 135.164062 L 106.261719 136.3125 L 99.878906 173.171875 L 58.917969 170.917969 L 56.855469 169.960938 L 56.085938 168.214844 L 56.445312 166.257812 L 57.53125 164.691406 L 89.6875 135.101562 L 89.753906 133.332031 L 89.460938 131.277344 Z M 110.363281 112.828125 "/>
<path style=" stroke:none;fill-rule:nonzero;fill:rgb(39.99939%,39.99939%,39.99939%);fill-opacity:0.3;" d="M 132.894531 142.015625 L 152.796875 145 L 148.207031 175.007812 L 138.929688 174.65625 L 142.3125 156.207031 L 141.082031 155.972656 L 139.851562 155.742188 L 136.261719 174.554688 L 127.410156 174.195312 Z M 132.894531 142.015625 "/>
<path style=" stroke:none;fill-rule:nonzero;fill:rgb(39.99939%,39.99939%,39.99939%);fill-opacity:0.3;" d="M 119.773438 103.492188 L 139.257812 85.773438 L 135.941406 105.050781 L 134.953125 105.730469 Z M 119.773438 103.492188 "/>
<path style=" stroke:none;fill-rule:nonzero;fill:rgb(39.99939%,39.99939%,39.99939%);fill-opacity:0.3;" d="M 114.382812 107.851562 L 116.378906 106.0625 L 134.390625 108.722656 L 135.105469 109.660156 L 130.421875 137.320312 L 109.792969 134.164062 Z M 114.382812 107.851562 "/>
<path style=" stroke:none;fill-rule:nonzero;fill:rgb(39.99939%,39.99939%,39.99939%);fill-opacity:0.3;" d="M 109.355469 138.035156 L 130.164062 141.304688 L 124.34375 174.074219 L 103.804688 173.316406 Z M 109.355469 138.035156 "/>
<path style=" stroke:none;fill-rule:nonzero;fill:rgb(39.99939%,39.99939%,39.99939%);fill-opacity:0.3;" d="M 143.152344 82.972656 L 146.742188 79.746094 L 164.175781 82.484375 L 159.640625 108.574219 L 157.996094 109.714844 L 140.652344 107.132812 L 139.917969 106.195312 Z M 143.152344 82.972656 "/>
<path style=" stroke:none;fill-rule:nonzero;fill:rgb(39.99939%,39.99939%,39.99939%);fill-opacity:0.3;" d="M 139.648438 109.558594 L 157.777344 112.261719 L 158.964844 113.824219 L 154.378906 141.039062 L 133.996094 137.917969 L 138.667969 110.242188 Z M 139.648438 109.558594 "/>
<path style=" stroke:none;fill-rule:nonzero;fill:rgb(39.99939%,39.99939%,39.99939%);fill-opacity:0.3;" d="M 167.296875 84.871094 L 169.515625 83.480469 L 187.40625 86.296875 L 183.238281 110.210938 L 182.171875 110.386719 L 181.167969 110.824219 L 180.5 111.234375 L 179.832031 111.832031 L 179.308594 112.453125 L 178.859375 112.984375 L 164.242188 110.804688 L 163.0625 109.242188 Z M 167.296875 84.871094 "/>
<path style=" stroke:none;fill-rule:nonzero;fill:rgb(39.99939%,39.99939%,39.99939%);fill-opacity:0.3;" d="M 161.808594 114.601562 L 163.464844 113.332031 L 178.3125 115.539062 L 178.578125 116.683594 L 179.167969 117.855469 L 180.007812 118.835938 L 180.65625 119.355469 L 181.242188 119.707031 L 177.023438 144.734375 L 157.238281 141.699219 Z M 161.808594 114.601562 "/>
<path style=" stroke:none;fill-rule:nonzero;fill:rgb(39.99939%,39.99939%,39.99939%);fill-opacity:0.3;" d="M 156.429688 145.445312 L 176.214844 148.480469 L 171.496094 176.246094 L 151.449219 175.132812 Z M 156.429688 145.445312 "/>
<path style=" stroke:none;fill-rule:nonzero;fill:rgb(39.99939%,39.99939%,39.99939%);fill-opacity:0.3;" d="M 190.605469 88.152344 L 192.761719 86.949219 L 210.671875 89.777344 L 206.25 116.40625 L 205.269531 117.0625 L 189.699219 114.476562 L 189.519531 113.769531 L 189.011719 112.65625 L 188.53125 111.976562 L 188.042969 111.457031 L 187.523438 111.023438 L 186.710938 110.519531 Z M 190.605469 88.152344 "/>
<path style=" stroke:none;fill-rule:nonzero;fill:rgb(39.99939%,39.99939%,39.99939%);fill-opacity:0.3;" d="M 189.203125 118.390625 L 189.863281 117.527344 L 205.34375 119.984375 L 206.054688 120.914062 L 201.339844 148.722656 L 181.332031 145.648438 L 185.546875 120.652344 L 186.613281 120.382812 L 187.617188 119.917969 L 188.542969 119.253906 Z M 189.203125 118.390625 "/>
<path style=" stroke:none;fill-rule:nonzero;fill:rgb(39.99939%,39.99939%,39.99939%);fill-opacity:0.3;" d="M 180.042969 148.925781 L 200.082031 152.003906 L 196.636719 177.675781 L 175.667969 176.46875 Z M 180.042969 148.925781 "/>
<path style=" stroke:none;fill-rule:nonzero;fill:rgb(39.99939%,39.99939%,39.99939%);fill-opacity:0.3;" d="M 214.371094 90.359375 L 235.765625 93.742188 L 231.25 120.527344 L 230.269531 121.183594 L 211.214844 118.042969 L 210.488281 117.105469 Z M 214.371094 90.359375 "/>
<path style=" stroke:none;fill-rule:nonzero;fill:rgb(39.99939%,39.99939%,39.99939%);fill-opacity:0.3;" d="M 210.753906 120.890625 L 230.058594 123.957031 L 230.765625 124.890625 L 226.011719 152.566406 L 204.734375 149.292969 L 209.765625 121.550781 Z M 210.753906 120.890625 "/>
<path style=" stroke:none;fill-rule:nonzero;fill:rgb(39.99939%,39.99939%,39.99939%);fill-opacity:0.3;" d="M 204.125 152.425781 L 225.394531 155.695312 L 221.101562 178.957031 L 200.226562 177.863281 Z M 204.125 152.425781 "/>
<path style=" stroke:none;fill-rule:nonzero;fill:rgb(39.99939%,39.99939%,39.99939%);fill-opacity:0.3;" d="M 239.953125 94.675781 L 260.261719 97.375 L 255.789062 124.136719 L 254.808594 124.792969 L 236.230469 121.726562 L 235.523438 120.792969 Z M 239.953125 94.675781 "/>
<path style=" stroke:none;fill-rule:nonzero;fill:rgb(39.99939%,39.99939%,39.99939%);fill-opacity:0.3;" d="M 263.527344 98.621094 L 283.722656 101.933594 L 279.089844 128.332031 L 278.101562 128.992188 L 259.699219 125.949219 L 258.996094 125.011719 Z M 263.527344 98.621094 "/>
<path style=" stroke:none;fill-rule:nonzero;fill:rgb(39.99939%,39.99939%,39.99939%);fill-opacity:0.3;" d="M 234.828125 125.527344 L 236.257812 124.71875 L 254.175781 127.292969 L 254.882812 128.226562 L 250.175781 155.933594 L 229.878906 152.683594 Z M 234.828125 125.527344 "/>
<path style=" stroke:none;fill-rule:nonzero;fill:rgb(39.99939%,39.99939%,39.99939%);fill-opacity:0.3;" d="M 229.417969 155.6875 L 249.652344 158.929688 L 246.023438 180.421875 L 225.261719 179.316406 Z M 229.417969 155.6875 "/>
<path style=" stroke:none;fill-rule:nonzero;fill:rgb(39.99939%,39.99939%,39.99939%);fill-opacity:0.3;" d="M 258.679688 129.0625 L 259.886719 128.257812 L 277.785156 131.050781 L 278.488281 131.984375 L 273.554688 159.683594 L 253.585938 156.480469 Z M 258.679688 129.0625 "/>
<path style=" stroke:none;fill-rule:nonzero;fill:rgb(39.99939%,39.99939%,39.99939%);fill-opacity:0.3;" d="M 253.066406 159.476562 L 273.007812 162.675781 L 269.632812 181.683594 L 249.496094 180.609375 Z M 253.066406 159.476562 "/>
<path style=" stroke:none;fill-rule:nonzero;fill:rgb(39.99939%,39.99939%,39.99939%);fill-opacity:0.3;" d="M 283.011719 132.398438 L 300.238281 135.125 L 302.105469 137.644531 L 297.589844 163.773438 L 276.882812 160.484375 L 281.941406 133.027344 Z M 283.011719 132.398438 "/>
<path style=" stroke:none;fill-rule:nonzero;fill:rgb(39.99939%,39.99939%,39.99939%);fill-opacity:0.3;" d="M 276.476562 163.230469 L 297.027344 166.527344 L 294.351562 182.054688 L 292.941406 182.613281 L 290.792969 182.816406 L 273.164062 181.886719 Z M 276.476562 163.230469 "/>
<path style=" stroke:none;fill-rule:nonzero;fill:rgb(39.99939%,39.99939%,39.99939%);fill-opacity:0.3;" d="M 305.300781 137.941406 L 308.265625 136.082031 L 326.105469 138.929688 L 322.605469 157.441406 L 321.363281 161.652344 L 320.375 164.585938 L 318.945312 165.984375 L 317.1875 166.855469 L 300.789062 164.222656 Z M 305.300781 137.941406 "/>
<path style=" stroke:none;fill-rule:nonzero;fill:rgb(39.99939%,39.99939%,39.99939%);fill-opacity:0.3;" d="M 47.972656 -23.882812 L 57.445312 -22.351562 L 59.023438 -19.980469 L 53.605469 11.511719 L 52.25 12.34375 L 29.101562 8.742188 L 32.253906 -9.632812 L 35.078125 -25.96875 Z M 47.972656 -23.882812 "/>
<path style=" stroke:none;fill-rule:nonzero;fill:rgb(39.99939%,39.99939%,39.99939%);fill-opacity:0.3;" d="M 120.152344 75.75 L 140.449219 78.929688 L 140.222656 80.242188 L 115.566406 101.636719 Z M 120.152344 75.75 "/>
<path style=" stroke:none;fill-rule:nonzero;fill:rgb(39.99939%,39.99939%,39.99939%);fill-opacity:0.3;" d="M 5.351562 -30.769531 L 31.90625 -26.484375 L 25.929688 8.25 L 0.0117188 4.253906 L -0.863281 0.925781 Z M 5.351562 -30.769531 "/>
<path style=" stroke:none;fill-rule:nonzero;fill:rgb(39.99939%,39.99939%,39.99939%);fill-opacity:0.3;" d="M 63.265625 -20.007812 L 65.382812 -21.300781 L 83.980469 -18.28125 L 77.679688 16.644531 L 59.015625 13.488281 L 57.910156 11.835938 Z M 63.265625 -20.007812 "/>
<path style=" stroke:none;fill-rule:nonzero;fill:rgb(39.99939%,39.99939%,39.99939%);fill-opacity:0.3;" d="M 87.636719 -17.699219 L 106.976562 -14.558594 L 100.144531 20.269531 L 81.464844 17.335938 Z M 87.636719 -17.699219 "/>
<path style=" stroke:none;fill-rule:nonzero;fill:rgb(39.99939%,39.99939%,39.99939%);fill-opacity:0.3;" d="M 114.039062 -12.527344 L 126.476562 -10.785156 L 126.726562 -9.210938 L 127.410156 -7.664062 L 127.949219 -6.914062 L 129.0625 -5.851562 L 130.316406 -5.097656 L 125.132812 24.515625 L 107.988281 21.707031 Z M 114.039062 -12.527344 "/>
<path style=" stroke:none;fill-rule:nonzero;fill:rgb(39.99939%,39.99939%,39.99939%);fill-opacity:0.3;" d="M 1.8125 10.835938 L 3.515625 8.660156 L 24.820312 11.941406 L 17.773438 53.691406 L 13.4375 52.992188 Z M 1.8125 10.835938 "/>
<path style=" stroke:none;fill-rule:nonzero;fill:rgb(39.99939%,39.99939%,39.99939%);fill-opacity:0.3;" d="M 81.011719 20.914062 L 99.527344 23.824219 L 91.011719 65.03125 L 73.597656 62.328125 Z M 81.011719 20.914062 "/>
<path style=" stroke:none;fill-rule:nonzero;fill:rgb(39.99939%,39.99939%,39.99939%);fill-opacity:0.3;" d="M 107.5625 25.234375 L 124.730469 27.929688 L 117.730469 67.878906 L 100.636719 65.207031 Z M 107.5625 25.234375 "/>
<path style=" stroke:none;fill-rule:nonzero;fill:rgb(39.99939%,39.99939%,39.99939%);fill-opacity:0.3;" d="M 16.449219 59.738281 L 44.699219 64.207031 L 45.367188 65.625 L 40.957031 91.664062 L 24.886719 89.25 Z M 16.449219 59.738281 "/>
<path style=" stroke:none;fill-rule:nonzero;fill:rgb(39.99939%,39.99939%,39.99939%);fill-opacity:0.3;" d="M 48.761719 65.980469 L 49.9375 64.519531 L 68.964844 67.589844 L 64.253906 94.769531 L 44.40625 91.742188 Z M 48.761719 65.980469 "/>
<path style=" stroke:none;fill-rule:nonzero;fill:rgb(39.99939%,39.99939%,39.99939%);fill-opacity:0.3;" d="M 72.675781 68.34375 L 89.726562 71.40625 L 84.328125 98.304688 L 67.996094 95.371094 Z M 72.675781 68.34375 "/>
<path style=" stroke:none;fill-rule:nonzero;fill:rgb(39.99939%,39.99939%,39.99939%);fill-opacity:0.3;" d="M 99.65625 72.003906 L 116.71875 74.667969 L 111.785156 102.5 L 94.871094 100.050781 Z M 99.65625 72.003906 "/>
<path style=" stroke:none;fill-rule:nonzero;fill:rgb(39.99939%,39.99939%,39.99939%);fill-opacity:0.3;" d="M 24.972656 92.378906 L 63.363281 98.167969 L 53.65625 155.625 L 49.574219 159.246094 L 47.714844 159.5625 L 46.058594 158.980469 L 44.527344 158.285156 L 43.386719 157.046875 Z M 24.972656 92.378906 "/>
<path style=" stroke:none;fill-rule:nonzero;fill:rgb(39.99939%,39.99939%,39.99939%);fill-opacity:0.3;" d="M 61.980469 130.472656 L 74.296875 131.757812 L 75.492188 132.207031 L 76.433594 133.277344 L 76.621094 134.582031 L 76.371094 135.738281 L 60.402344 150 L 58.789062 148.773438 Z M 61.980469 130.472656 "/>
<path style=" stroke:none;fill-rule:nonzero;fill:rgb(39.99939%,39.99939%,39.99939%);fill-opacity:0.3;" d="M 67.539062 98.820312 L 84.101562 101.542969 L 78.476562 129.304688 L 78.113281 129.554688 L 77.628906 129.460938 L 76.757812 128.960938 L 75.207031 128.367188 L 73.921875 128.039062 L 70.03125 127.4375 L 62.851562 126.597656 Z M 67.539062 98.820312 "/>
<path style=" stroke:none;fill-rule:nonzero;fill:rgb(39.99939%,39.99939%,39.99939%);fill-opacity:0.3;" d="M 94.328125 103.085938 L 110.753906 105.480469 L 90.882812 123.128906 Z M 94.328125 103.085938 "/>
<path style=" stroke:none;fill-rule:nonzero;fill:rgb(39.99939%,39.99939%,39.99939%);fill-opacity:0.3;" d="M 291.808594 74.582031 L 304.519531 95.691406 L 303.898438 97.910156 L 289.96875 95.347656 L 288.765625 92.425781 Z M 291.808594 74.582031 "/>
<path style=" stroke:none;fill-rule:nonzero;fill:rgb(39.99939%,39.99939%,39.99939%);fill-opacity:0.3;" d="M 288.261719 103.640625 L 289.863281 102.679688 L 300.140625 104.5625 L 307.878906 107.097656 L 303.199219 130.917969 L 300.660156 132.542969 L 283.914062 129.585938 L 283.480469 128.578125 Z M 288.261719 103.640625 "/>
<path style=" stroke:none;fill-rule:nonzero;fill:rgb(39.99939%,39.99939%,39.99939%);fill-opacity:0.3;" d="M 311.433594 109.171875 L 312.101562 109.253906 L 313.300781 110.46875 L 327.046875 133.3125 L 326.039062 137.125 L 308.355469 134.179688 L 306.886719 131.757812 Z M 311.433594 109.171875 "/>
<path style=" stroke:none;fill-rule:nonzero;fill:rgb(39.99939%,39.99939%,39.99939%);fill-opacity:0.3;" d="M 300.125 167.027344 L 312.746094 169.035156 L 310.203125 170.160156 L 307.550781 171.613281 L 305.195312 173.0625 L 303.011719 174.90625 L 301.09375 176.824219 L 299.476562 178.476562 L 298.0625 179.109375 Z M 300.125 167.027344 "/>
<path style=" stroke:none;fill-rule:nonzero;fill:rgb(39.99939%,39.99939%,39.99939%);fill-opacity:0.3;" d="M 56.550781 18.351562 L 58.429688 17.203125 L 77.023438 20.109375 L 69.742188 61.769531 L 51.210938 58.929688 L 49.976562 57.3125 Z M 56.550781 18.351562 "/>
<path style=" stroke:none;fill-rule:nonzero;fill:rgb(39.99939%,39.99939%,39.99939%);fill-opacity:0.3;" d="M 28.351562 12.660156 L 51.246094 16.21875 L 52.421875 17.976562 L 45.847656 56.988281 L 44.375 58.027344 L 21.304688 54.433594 Z M 28.351562 12.660156 "/>
<path style=" stroke:none;fill-rule:nonzero;fill:rgb(39.99939%,39.99939%,39.99939%);fill-opacity:0.3;" d="M 344.050781 48.152344 L 343.953125 49.667969 L 342.429688 58.769531 L 320.265625 55.050781 L 325.957031 20.886719 L 326.847656 20.339844 L 348.3125 23.671875 Z M 344.050781 48.152344 "/>
<path style=" stroke:none;fill-rule:nonzero;fill:rgb(39.99939%,39.99939%,39.99939%);fill-opacity:0.3;" d="M 213.554688 -41.894531 L 216.226562 -41.476562 L 231.066406 -19.523438 L 227.765625 0.132812 L 226.8125 0.769531 L 207.710938 -2.230469 L 207.046875 -3.125 Z M 213.554688 -41.894531 "/>
<path style=" stroke:none;fill-rule:nonzero;fill:rgb(39.99939%,39.99939%,39.99939%);fill-opacity:0.3;" d="M 237.875 -38.472656 L 258.1875 -35.304688 L 251.535156 3.28125 L 250.378906 4.125 L 232.394531 1.277344 L 231.65625 0.351562 Z M 237.875 -38.472656 "/>
<path style=" stroke:none;fill-rule:nonzero;fill:rgb(39.99939%,39.99939%,39.99939%);fill-opacity:0.3;" d="M 258.894531 -12.421875 L 279.214844 -9.085938 L 276.375 7.632812 L 275.46875 8.246094 L 256.71875 5.304688 L 256.03125 4.285156 Z M 258.894531 -12.421875 "/>
<path style=" stroke:none;fill-rule:nonzero;fill:rgb(39.99939%,39.99939%,39.99939%);fill-opacity:0.3;" d="M 282.542969 -8.386719 L 302.417969 -5.132812 L 299.953125 9.339844 L 299.042969 9.601562 L 298.34375 9.933594 L 297.71875 10.34375 L 297.132812 10.863281 L 296.570312 11.691406 L 280.429688 9.171875 L 279.714844 8.265625 Z M 282.542969 -8.386719 "/>
<path style=" stroke:none;fill-rule:nonzero;fill:rgb(39.99939%,39.99939%,39.99939%);fill-opacity:0.3;" d="M 305.839844 -4.648438 L 326.742188 -1.230469 L 323.976562 14.921875 L 322.679688 15.679688 L 306.230469 13.121094 L 305.902344 12.179688 L 305.503906 11.480469 L 305.089844 10.949219 L 304.179688 10.144531 L 303.394531 9.6875 Z M 305.839844 -4.648438 "/>
<path style=" stroke:none;fill-rule:nonzero;fill:rgb(39.99939%,39.99939%,39.99939%);fill-opacity:0.3;" d="M 330.078125 -0.953125 L 350.75 2.421875 L 351.882812 3.878906 L 349.398438 19.558594 L 328.019531 16.246094 L 327.289062 15.328125 Z M 330.078125 -0.953125 "/>
<path style=" stroke:none;fill-rule:nonzero;fill:rgb(39.99939%,39.99939%,39.99939%);fill-opacity:0.3;" d="M 134.042969 -4.464844 L 135.375 -4.71875 L 136.347656 -5.078125 L 137.652344 -5.84375 L 138.5625 -6.652344 L 139.359375 -7.675781 L 139.933594 -8.804688 L 154.152344 -6.695312 L 155.15625 -5.390625 L 149.152344 28.039062 L 128.839844 25.050781 Z M 134.042969 -4.464844 "/>
<path style=" stroke:none;fill-rule:nonzero;fill:rgb(39.99939%,39.99939%,39.99939%);fill-opacity:0.3;" d="M 158.273438 -4.824219 L 159.871094 -5.824219 L 178.097656 -3.050781 L 178.914062 -2.003906 L 172.785156 31.6875 L 152.246094 28.476562 Z M 158.273438 -4.824219 "/>
<path style=" stroke:none;fill-rule:nonzero;fill:rgb(39.99939%,39.99939%,39.99939%);fill-opacity:0.3;" d="M 182.253906 -1.390625 L 183.605469 -2.214844 L 201.511719 0.507812 L 202.203125 1.480469 L 197.105469 28.90625 L 190.699219 34.554688 L 176.125 32.296875 Z M 182.253906 -1.390625 "/>
<path style=" stroke:none;fill-rule:nonzero;fill:rgb(39.99939%,39.99939%,39.99939%);fill-opacity:0.3;" d="M 206.035156 2.097656 L 207.101562 1.359375 L 224.832031 4.058594 L 204.277344 22.449219 L 202.3125 21.984375 Z M 206.035156 2.097656 "/>
<path style=" stroke:none;fill-rule:nonzero;fill:rgb(39.99939%,39.99939%,39.99939%);fill-opacity:0.3;" d="M 201.105469 31.222656 L 226.585938 9.003906 L 220.492188 39.269531 L 200.214844 35.976562 Z M 201.105469 31.222656 "/>
<path style=" stroke:none;fill-rule:nonzero;fill:rgb(39.99939%,39.99939%,39.99939%);fill-opacity:0.3;" d="M 230.566406 5.8125 L 231.738281 5.023438 L 249.609375 7.863281 L 250.421875 9.011719 L 244.351562 43.148438 L 223.867188 39.695312 Z M 230.566406 5.8125 "/>
<path style=" stroke:none;fill-rule:nonzero;fill:rgb(39.99939%,39.99939%,39.99939%);fill-opacity:0.3;" d="M 253.949219 13.441406 L 270.136719 40.355469 L 268.835938 47.273438 L 248.527344 43.914062 Z M 253.949219 13.441406 "/>
<path style=" stroke:none;fill-rule:nonzero;fill:rgb(39.99939%,39.99939%,39.99939%);fill-opacity:0.3;" d="M 257.9375 10.378906 L 258.617188 9.421875 L 274.140625 11.859375 L 274.847656 12.824219 L 272.109375 29.460938 L 269.652344 29.492188 Z M 257.9375 10.378906 "/>
<path style=" stroke:none;fill-rule:nonzero;fill:rgb(39.99939%,39.99939%,39.99939%);fill-opacity:0.3;" d="M 278.585938 13.710938 L 279.644531 12.976562 L 295.5625 15.46875 L 295.796875 16.273438 L 296.167969 17.03125 L 296.691406 17.757812 L 297.382812 18.421875 L 298.097656 18.90625 L 292.589844 50.8125 L 281.023438 49.078125 L 274.429688 37.808594 Z M 278.585938 13.710938 "/>
<path style=" stroke:none;fill-rule:nonzero;fill:rgb(39.99939%,39.99939%,39.99939%);fill-opacity:0.3;" d="M 301.539062 19.574219 L 302.386719 19.398438 L 303.398438 18.988281 L 304.128906 18.523438 L 304.804688 17.90625 L 305.46875 17.011719 L 321.945312 19.578125 L 322.835938 20.539062 L 317.148438 54.5625 L 296.09375 51.464844 Z M 301.539062 19.574219 "/>
<path style=" stroke:none;fill-rule:nonzero;fill:rgb(39.99939%,39.99939%,39.99939%);fill-opacity:0.3;" d="M 128.253906 28.863281 L 148.550781 31.878906 L 141.527344 71.984375 L 121.25 68.804688 Z M 128.253906 28.863281 "/>
<path style=" stroke:none;fill-rule:nonzero;fill:rgb(39.99939%,39.99939%,39.99939%);fill-opacity:0.3;" d="M 152.136719 32.199219 L 172.636719 35.351562 L 169.222656 54.472656 L 148.632812 72.769531 L 145.101562 72.339844 Z M 152.136719 32.199219 "/>
<path style=" stroke:none;fill-rule:nonzero;fill:rgb(39.99939%,39.99939%,39.99939%);fill-opacity:0.3;" d="M 172.195312 56.789062 L 192.835938 38.488281 L 195.777344 38.945312 L 188.578125 79.339844 L 168.757812 76.222656 Z M 172.195312 56.789062 "/>
<path style=" stroke:none;fill-rule:nonzero;fill:rgb(39.99939%,39.99939%,39.99939%);fill-opacity:0.3;" d="M 198.953125 39.441406 L 219.242188 42.75 L 211.515625 83.269531 L 191.699219 80.144531 Z M 198.953125 39.441406 "/>
<path style=" stroke:none;fill-rule:nonzero;fill:rgb(39.99939%,39.99939%,39.99939%);fill-opacity:0.3;" d="M 222.941406 43.355469 L 243.578125 46.742188 L 236.558594 87.226562 L 215.21875 83.855469 Z M 222.941406 43.355469 "/>
<path style=" stroke:none;fill-rule:nonzero;fill:rgb(39.99939%,39.99939%,39.99939%);fill-opacity:0.3;" d="M 247.863281 47.445312 L 268.210938 50.558594 L 261.078125 91.101562 L 241.0625 87.9375 Z M 247.863281 47.445312 "/>
<path style=" stroke:none;fill-rule:nonzero;fill:rgb(39.99939%,39.99939%,39.99939%);fill-opacity:0.3;" d="M 272.105469 51.0625 L 278 51.890625 L 289.304688 70.742188 L 285.230469 94.625 L 265.015625 91.425781 Z M 272.105469 51.0625 "/>
<path style=" stroke:none;fill-rule:nonzero;fill:rgb(39.99939%,39.99939%,39.99939%);fill-opacity:0.3;" d="M 295.382812 54.675781 L 316.417969 57.9375 L 309.628906 93.269531 L 308.394531 93.949219 L 292.980469 68.328125 Z M 295.382812 54.675781 "/>
<path style=" stroke:none;fill-rule:nonzero;fill:rgb(39.99939%,39.99939%,39.99939%);fill-opacity:0.3;" d="M 319.535156 58.425781 L 341.792969 62.121094 L 336.394531 92.066406 L 334.53125 95.257812 L 332.445312 96.84375 L 330.261719 98.863281 L 327.253906 99.609375 L 323.113281 100.410156 L 311.824219 98.621094 Z M 319.535156 58.425781 "/>
<path style=" stroke:none;fill-rule:nonzero;fill:rgb(39.99939%,39.99939%,39.99939%);fill-opacity:0.3;" d="M 175.472656 35.652344 L 187.390625 37.550781 L 174.222656 49.449219 L 173.039062 49.265625 Z M 175.472656 35.652344 "/>
<path style=" stroke:none;fill-rule:nonzero;fill:rgb(39.99939%,39.99939%,39.99939%);fill-opacity:0.3;" d="M 155.65625 73.832031 L 155 71.875 L 168.199219 60.097656 L 165.503906 75.378906 Z M 155.65625 73.832031 "/>
<path style=" stroke:none;fill-rule:nonzero;fill:rgb(39.99939%,39.99939%,39.99939%);fill-opacity:0.3;" d="M 283.480469 53.316406 L 292.289062 54.695312 L 290.472656 64.996094 Z M 283.480469 53.316406 "/>
<path style=" stroke:none;fill-rule:nonzero;fill:rgb(39.99939%,39.99939%,39.99939%);fill-opacity:0.3;" d="M -13 72.242188 L -10.207031 55.140625 L 6.390625 58.132812 L 10.484375 75.574219 L 20.039062 109.796875 L 20.582031 127.773438 L 25.097656 127.726562 L 25.03125 150.375 L 29.574219 153.214844 L 31.972656 154.25 L 33.464844 156.058594 L 35.367188 162.523438 L 35.128906 164.492188 L 34.019531 165.941406 L 32.15625 166.707031 L -45.152344 164.429688 L -45.308594 161.253906 L -43.078125 158.636719 L -40.914062 107.96875 L -41.992188 106.769531 L -40.660156 104.011719 L -40.359375 100.46875 L -38.570312 99.492188 L -17.492188 99.21875 Z M -13 72.242188 "/>
<path style=" stroke:none;fill-rule:nonzero;fill:rgb(39.99939%,39.99939%,39.99939%);fill-opacity:0.3;" d="M -3.808594 25.367188 L 3.714844 51.402344 L -9.050781 49.367188 Z M -3.808594 25.367188 "/>
<g clip-path="url(#clip15)" clip-rule="nonzero">
<path style=" stroke:none;fill-rule:nonzero;fill:rgb(39.99939%,39.99939%,39.99939%);fill-opacity:0.3;" d="M 354.953125 126.003906 L 365.140625 118.480469 L 367.191406 117.769531 L 370.25 117.136719 L 377.742188 117.113281 L 374.894531 135.296875 L 373.148438 146.351562 L 345.214844 141.332031 L 347.480469 131.925781 L 347.855469 131.21875 Z M 354.953125 126.003906 "/>
</g>
<path style=" stroke:none;fill-rule:nonzero;fill:rgb(39.99939%,39.99939%,39.99939%);fill-opacity:0.3;" d="M 343.5 143.480469 L 356.152344 145.703125 L 356.84375 146.648438 L 350.355469 180.890625 L 349.484375 180.960938 L 340.257812 169.804688 L 339.53125 168.773438 L 338.878906 167.464844 L 338.664062 165.574219 L 338.667969 163.714844 Z M 343.5 143.480469 "/>
<g clip-path="url(#clip16)" clip-rule="nonzero">
<path style=" stroke:none;fill-rule:nonzero;fill:rgb(39.99939%,39.99939%,39.99939%);fill-opacity:0.3;" d="M 359.5625 147.085938 L 360.511719 146.464844 L 372.269531 148.535156 L 372.714844 149.199219 L 367.621094 182.496094 L 366.71875 183.410156 L 354.15625 182.382812 L 353.109375 181.476562 Z M 359.5625 147.085938 "/>
</g>
<g clip-path="url(#clip17)" clip-rule="nonzero">
<path style=" stroke:none;fill-rule:nonzero;fill:rgb(39.99939%,39.99939%,39.99939%);fill-opacity:0.3;" d="M 359.132812 53.035156 L 364.667969 20.820312 L 366.136719 19.484375 L 376.972656 21.179688 L 377.492188 21.691406 L 371.019531 62.109375 L 369.757812 63.007812 L 359.167969 61.320312 L 358.296875 60.109375 L 358.921875 54.804688 Z M 359.132812 53.035156 "/>
</g>
<g clip-path="url(#clip18)" clip-rule="nonzero">
<path style=" stroke:none;fill-rule:nonzero;fill:rgb(39.99939%,39.99939%,39.99939%);fill-opacity:0.3;" d="M 357.3125 65.136719 L 358.277344 64.4375 L 369.023438 66.144531 L 369.800781 67.085938 L 363.109375 105.53125 L 361.9375 106.722656 L 360.070312 106.257812 L 358.394531 105.019531 L 356.011719 103.339844 L 353.953125 101.339844 L 352.929688 99.417969 L 351.949219 97.078125 L 351.800781 94.964844 Z M 357.3125 65.136719 "/>
</g>
<path style="fill-rule:nonzero;fill:rgb(39.99939%,39.99939%,39.99939%);fill-opacity:1;stroke-width:0.03;stroke-linecap:square;stroke-linejoin:miter;stroke:rgb(39.99939%,39.99939%,39.99939%);stroke-opacity:1;stroke-miterlimit:3.239307;" d="M 154.613281 304.285156 L 157.851562 303.238281 L 162.652344 302.796875 L 168.78125 302.789062 L 172.136719 302.507812 L 175.953125 301.1875 L 180.886719 302.605469 L 185.457031 304.1875 L 159.101562 318.910156 Z M 154.613281 304.285156 " transform="matrix(1,0,0,1,-74,-13)"/>
<path style="fill-rule:nonzero;fill:rgb(39.99939%,39.99939%,39.99939%);fill-opacity:1;stroke-width:0.03;stroke-linecap:square;stroke-linejoin:miter;stroke:rgb(39.99939%,39.99939%,39.99939%);stroke-opacity:1;stroke-miterlimit:3.239307;" d="M 347.292969 304.5625 L 358.230469 307.648438 L 356.566406 311.980469 L 346.523438 309.148438 Z M 347.292969 304.5625 " transform="matrix(1,0,0,1,-74,-13)"/>
<path style="fill-rule:nonzero;fill:rgb(39.99939%,39.99939%,39.99939%);fill-opacity:1;stroke-width:0.03;stroke-linecap:square;stroke-linejoin:miter;stroke:rgb(39.99939%,39.99939%,39.99939%);stroke-opacity:1;stroke-miterlimit:3.239307;" d="M 283.59375 207.492188 L 342.015625 210.757812 L 338.949219 211.65625 L 334.46875 213.449219 L 331.050781 214.917969 L 325.335938 217.414062 L 321.894531 219.507812 L 317.773438 222.03125 L 312.953125 225.484375 L 307.574219 228.609375 L 302.863281 231.523438 L 297.898438 234.304688 L 296.316406 234.804688 L 276.636719 234.164062 Z M 283.59375 207.492188 " transform="matrix(1,0,0,1,-74,-13)"/>
<path style="fill-rule:nonzero;fill:rgb(39.99939%,39.99939%,39.99939%);fill-opacity:1;stroke-width:0.03;stroke-linecap:square;stroke-linejoin:miter;stroke:rgb(39.99939%,39.99939%,39.99939%);stroke-opacity:1;stroke-miterlimit:3.239307;" d="M 246.839844 205.492188 L 280.226562 206.789062 L 274.007812 234.390625 L 245.824219 235.175781 Z M 246.839844 205.492188 " transform="matrix(1,0,0,1,-74,-13)"/>
<path style="fill-rule:nonzero;fill:rgb(39.99939%,39.99939%,39.99939%);fill-opacity:1;stroke-width:0.03;stroke-linecap:square;stroke-linejoin:miter;stroke:rgb(39.99939%,39.99939%,39.99939%);stroke-opacity:1;stroke-miterlimit:3.239307;" d="M 223.445312 283.957031 L 224.214844 284.375 L 188.511719 304.960938 L 167.503906 316.667969 L 160.289062 321.570312 L 159.859375 320.082031 Z M 223.445312 283.957031 " transform="matrix(1,0,0,1,-74,-13)"/>
<path style="fill-rule:nonzero;fill:rgb(39.99939%,39.99939%,39.99939%);fill-opacity:1;stroke-width:0.03;stroke-linecap:square;stroke-linejoin:miter;stroke:rgb(39.99939%,39.99939%,39.99939%);stroke-opacity:1;stroke-miterlimit:3.239307;" d="M 253.894531 296.839844 L 256.503906 296.203125 L 260.191406 294.367188 L 263.261719 292.363281 L 263.671875 292.039062 L 261.132812 296.859375 L 258.132812 298.359375 L 253.929688 296.859375 Z M 253.894531 296.839844 " transform="matrix(1,0,0,1,-74,-13)"/>
<path style="fill-rule:nonzero;fill:rgb(39.99939%,39.99939%,39.99939%);fill-opacity:1;stroke-width:0.03;stroke-linecap:square;stroke-linejoin:miter;stroke:rgb(39.99939%,39.99939%,39.99939%);stroke-opacity:1;stroke-miterlimit:3.239307;" d="M 265.324219 290.726562 L 266.113281 290.097656 L 267.042969 290.101562 Z M 265.324219 290.726562 " transform="matrix(1,0,0,1,-74,-13)"/>
<path style="fill-rule:nonzero;fill:rgb(39.99939%,39.99939%,39.99939%);fill-opacity:1;stroke-width:0.03;stroke-linecap:square;stroke-linejoin:miter;stroke:rgb(39.99939%,39.99939%,39.99939%);stroke-opacity:1;stroke-miterlimit:3.239307;" d="M 267.996094 290.101562 L 268.699219 290.101562 L 271.183594 290.921875 Z M 267.996094 290.101562 " transform="matrix(1,0,0,1,-74,-13)"/>
<path style="fill-rule:nonzero;fill:rgb(39.99939%,39.99939%,39.99939%);fill-opacity:1;stroke-width:0.03;stroke-linecap:square;stroke-linejoin:miter;stroke:rgb(39.99939%,39.99939%,39.99939%);stroke-opacity:1;stroke-miterlimit:3.239307;" d="M 152.089844 199.472656 L 165.9375 199.855469 L 148.730469 265.542969 L 143.988281 266.546875 L 139.222656 250.472656 Z M 152.089844 199.472656 " transform="matrix(1,0,0,1,-74,-13)"/>
<path style="fill-rule:nonzero;fill:rgb(39.99939%,39.99939%,39.99939%);fill-opacity:1;stroke-width:0.03;stroke-linecap:square;stroke-linejoin:miter;stroke:rgb(39.99939%,39.99939%,39.99939%);stroke-opacity:1;stroke-miterlimit:3.239307;" d="M 125.429688 198.113281 L 148.964844 199.375 L 139.914062 237.136719 L 138.90625 238.101562 L 137.386719 237.910156 Z M 125.429688 198.113281 " transform="matrix(1,0,0,1,-74,-13)"/>
<path style="fill-rule:nonzero;fill:rgb(39.99939%,39.99939%,39.99939%);fill-opacity:1;stroke-width:0.03;stroke-linecap:square;stroke-linejoin:miter;stroke:rgb(39.99939%,39.99939%,39.99939%);stroke-opacity:1;stroke-miterlimit:3.239307;" d="M 287.75 253.003906 L 291.679688 237.25 L 298.207031 236.65625 L 302.96875 233.785156 L 308.90625 230.132812 L 314.144531 226.808594 L 320.503906 222.625 L 326.089844 219.101562 L 333.007812 215.976562 L 339.226562 213.648438 L 343.351562 212.386719 L 347.3125 211.367188 L 350.539062 211.363281 L 377.828125 221.628906 L 379.578125 222.5625 L 381.46875 224.800781 L 382.175781 226.738281 L 382.570312 228.601562 L 382.496094 230.835938 L 377.859375 246.585938 L 359.570312 306.851562 L 346.226562 302.949219 L 339.539062 294.132812 L 338.289062 293.09375 L 337.917969 293.386719 L 337.542969 293.683594 L 338.828125 294.808594 L 340.703125 297.101562 L 344.949219 303.082031 L 344.101562 308.472656 L 321.386719 302.394531 L 312.886719 300.121094 L 315.5625 290.164062 L 314.773438 289.890625 L 313.988281 289.613281 L 311.035156 299.632812 L 277.582031 290.679688 L 287.398438 254.585938 L 295.746094 255.074219 L 295.921875 254.242188 L 296.09375 253.410156 Z M 287.75 253.003906 " transform="matrix(1,0,0,1,-74,-13)"/>
<path style="fill-rule:nonzero;fill:rgb(39.99939%,39.99939%,39.99939%);fill-opacity:1;stroke-width:0.03;stroke-linecap:square;stroke-linejoin:miter;stroke:rgb(39.99939%,39.99939%,39.99939%);stroke-opacity:1;stroke-miterlimit:3.239307;" d="M 289.132812 236.585938 L 275.472656 290.347656 L 270.109375 288.523438 L 266.507812 288.191406 L 263.960938 289.363281 L 261.066406 291.449219 L 258.609375 292.953125 L 255.621094 294.539062 L 252.78125 294.890625 L 231.984375 285.148438 L 231.292969 284.359375 L 229.734375 281.464844 L 229.804688 279.136719 L 229.800781 274.933594 L 228.488281 269.742188 L 225.582031 265.300781 L 221.699219 261.257812 L 216.363281 257.445312 L 212.957031 255.378906 L 222.957031 251.847656 L 230.238281 248.304688 L 236.921875 243.359375 L 240.3125 240.035156 L 243.28125 237.410156 Z M 289.132812 236.585938 " transform="matrix(1,0,0,1,-74,-13)"/>
<path style="fill-rule:nonzero;fill:rgb(39.99939%,39.99939%,39.99939%);fill-opacity:1;stroke-width:0.03;stroke-linecap:square;stroke-linejoin:miter;stroke:rgb(39.99939%,39.99939%,39.99939%);stroke-opacity:1;stroke-miterlimit:3.239307;" d="M 144.140625 269.363281 L 184.285156 261.207031 L 202.339844 257.542969 L 208.09375 257.039062 L 210.839844 258.148438 L 214.371094 259.507812 L 217.507812 261.488281 L 219.867188 263.714844 L 223.007812 267.183594 L 225.140625 271.164062 L 226.117188 275.996094 L 224.101562 280.445312 L 213.414062 287.128906 L 187.191406 303.527344 L 181.460938 301.453125 L 176.023438 299.976562 L 175.214844 300.03125 L 172.078125 301.300781 L 168.722656 301.636719 L 162.589844 301.589844 L 157.503906 302.035156 L 154.265625 302.914062 Z M 144.140625 269.363281 " transform="matrix(1,0,0,1,-74,-13)"/>
<path style="fill-rule:nonzero;fill:rgb(39.99939%,39.99939%,39.99939%);fill-opacity:1;stroke-width:0.03;stroke-linecap:square;stroke-linejoin:miter;stroke:rgb(39.99939%,39.99939%,39.99939%);stroke-opacity:1;stroke-miterlimit:3.239307;" d="M 224.09375 203.972656 L 243.839844 205.742188 L 242.953125 234.558594 L 241.519531 236.167969 L 238.78125 238.890625 L 237.160156 240.464844 L 232.15625 244.554688 L 228.207031 247.308594 L 211.085938 253.578125 L 206.515625 254.585938 L 209.480469 236.832031 L 208.78125 236.792969 L 208.074219 236.75 L 205.023438 255.003906 L 195.269531 256.875 L 175.921875 260.589844 L 152.332031 265.121094 L 155.933594 250.875 L 168.644531 200.148438 Z M 224.09375 203.972656 " transform="matrix(1,0,0,1,-74,-13)"/>
<path style=" stroke:none;fill-rule:evenodd;fill:rgb(85.096741%,85.096741%,81.959534%);fill-opacity:0.7;" d="M 110.003906 334 C 110.003906 330.816406 108.738281 327.761719 106.488281 325.511719 C 104.238281 323.261719 101.183594 321.996094 98 321.996094 C 94.816406 321.996094 91.761719 323.261719 89.511719 325.511719 C 87.261719 327.761719 85.996094 330.816406 85.996094 334 C 85.996094 337.183594 87.261719 340.238281 89.511719 342.488281 C 91.761719 344.738281 94.816406 346.003906 98 346.003906 C 101.183594 346.003906 104.238281 344.738281 106.488281 342.488281 C 108.738281 340.238281 110.003906 337.183594 110.003906 334 Z M 110.003906 334 "/>
<path style=" stroke:none;fill-rule:evenodd;fill:rgb(85.096741%,85.096741%,81.959534%);fill-opacity:0.7;" d="M 346.003906 330 C 346.003906 326.816406 344.738281 323.761719 342.488281 321.511719 C 340.238281 319.261719 337.183594 317.996094 334 317.996094 C 330.816406 317.996094 327.761719 319.261719 325.511719 321.511719 C 323.261719 323.761719 321.996094 326.816406 321.996094 330 C 321.996094 333.183594 323.261719 336.238281 325.511719 338.488281 C 327.761719 340.738281 330.816406 342.003906 334 342.003906 C 337.183594 342.003906 340.238281 340.738281 342.488281 338.488281 C 344.738281 336.238281 346.003906 333.183594 346.003906 330 Z M 346.003906 330 "/>
<path style=" stroke:none;fill-rule:evenodd;fill:rgb(85.096741%,85.096741%,81.959534%);fill-opacity:0.7;" d="M 295.003906 291 C 295.003906 287.816406 293.738281 284.761719 291.488281 282.511719 C 289.238281 280.261719 286.183594 278.996094 283 278.996094 C 279.816406 278.996094 276.761719 280.261719 274.511719 282.511719 C 272.261719 284.761719 270.996094 287.816406 270.996094 291 C 270.996094 294.183594 272.261719 297.238281 274.511719 299.488281 C 276.761719 301.738281 279.816406 303.003906 283 303.003906 C 286.183594 303.003906 289.238281 301.738281 291.488281 299.488281 C 293.738281 297.238281 295.003906 294.183594 295.003906 291 Z M 295.003906 291 "/>
<path style=" stroke:none;fill-rule:evenodd;fill:rgb(85.096741%,85.096741%,81.959534%);fill-opacity:0.7;" d="M 144.003906 279 C 144.003906 275.816406 142.738281 272.761719 140.488281 270.511719 C 138.238281 268.261719 135.183594 266.996094 132 266.996094 C 128.816406 266.996094 125.761719 268.261719 123.511719 270.511719 C 121.261719 272.761719 119.996094 275.816406 119.996094 279 C 119.996094 282.183594 121.261719 285.238281 123.511719 287.488281 C 125.761719 289.738281 128.816406 291.003906 132 291.003906 C 135.183594 291.003906 138.238281 289.738281 140.488281 287.488281 C 142.738281 285.238281 144.003906 282.183594 144.003906 279 Z M 144.003906 279 "/>
<path style=" stroke:none;fill-rule:evenodd;fill:rgb(85.096741%,85.096741%,81.959534%);fill-opacity:0.7;" d="M 301.003906 243 C 301.003906 239.816406 299.738281 236.761719 297.488281 234.511719 C 295.238281 232.261719 292.183594 230.996094 289 230.996094 C 285.816406 230.996094 282.761719 232.261719 280.511719 234.511719 C 278.261719 236.761719 276.996094 239.816406 276.996094 243 C 276.996094 246.183594 278.261719 249.238281 280.511719 251.488281 C 282.761719 253.738281 285.816406 255.003906 289 255.003906 C 292.183594 255.003906 295.238281 253.738281 297.488281 251.488281 C 299.738281 249.238281 301.003906 246.183594 301.003906 243 Z M 301.003906 243 "/>
<path style=" stroke:none;fill-rule:evenodd;fill:rgb(85.096741%,85.096741%,81.959534%);fill-opacity:0.7;" d="M 140.003906 163 C 140.003906 159.816406 138.738281 156.761719 136.488281 154.511719 C 134.238281 152.261719 131.183594 150.996094 128 150.996094 C 124.816406 150.996094 121.761719 152.261719 119.511719 154.511719 C 117.261719 156.761719 115.996094 159.816406 115.996094 163 C 115.996094 166.183594 117.261719 169.238281 119.511719 171.488281 C 121.761719 173.738281 124.816406 175.003906 128 175.003906 C 131.183594 175.003906 134.238281 173.738281 136.488281 171.488281 C 138.738281 169.238281 140.003906 166.183594 140.003906 163 Z M 140.003906 163 "/>
<path style=" stroke:none;fill-rule:evenodd;fill:rgb(85.096741%,85.096741%,81.959534%);fill-opacity:0.7;" d="M 138.003906 163 C 138.003906 159.816406 136.738281 156.761719 134.488281 154.511719 C 132.238281 152.261719 129.183594 150.996094 126 150.996094 C 122.816406 150.996094 119.761719 152.261719 117.511719 154.511719 C 115.261719 156.761719 113.996094 159.816406 113.996094 163 C 113.996094 166.183594 115.261719 169.238281 117.511719 171.488281 C 119.761719 173.738281 122.816406 175.003906 126 175.003906 C 129.183594 175.003906 132.238281 173.738281 134.488281 171.488281 C 136.738281 169.238281 138.003906 166.183594 138.003906 163 Z M 138.003906 163 "/>
<path style=" stroke:none;fill-rule:evenodd;fill:rgb(85.096741%,85.096741%,81.959534%);fill-opacity:0.7;" d="M 136.003906 162 C 136.003906 158.816406 134.738281 155.761719 132.488281 153.511719 C 130.238281 151.261719 127.183594 149.996094 124 149.996094 C 120.816406 149.996094 117.761719 151.261719 115.511719 153.511719 C 113.261719 155.761719 111.996094 158.816406 111.996094 162 C 111.996094 165.183594 113.261719 168.238281 115.511719 170.488281 C 117.761719 172.738281 120.816406 174.003906 124 174.003906 C 127.183594 174.003906 130.238281 172.738281 132.488281 170.488281 C 134.738281 168.238281 136.003906 165.183594 136.003906 162 Z M 136.003906 162 "/>
<path style=" stroke:none;fill-rule:evenodd;fill:rgb(85.096741%,85.096741%,81.959534%);fill-opacity:0.7;" d="M 243.003906 149 C 243.003906 145.816406 241.738281 142.761719 239.488281 140.511719 C 237.238281 138.261719 234.183594 136.996094 231 136.996094 C 227.816406 136.996094 224.761719 138.261719 222.511719 140.511719 C 220.261719 142.761719 218.996094 145.816406 218.996094 149 C 218.996094 152.183594 220.261719 155.238281 222.511719 157.488281 C 224.761719 159.738281 227.816406 161.003906 231 161.003906 C 234.183594 161.003906 237.238281 159.738281 239.488281 157.488281 C 241.738281 155.238281 243.003906 152.183594 243.003906 149 Z M 243.003906 149 "/>
<path style=" stroke:none;fill-rule:evenodd;fill:rgb(85.096741%,85.096741%,81.959534%);fill-opacity:0.7;" d="M 267.003906 149 C 267.003906 145.816406 265.738281 142.761719 263.488281 140.511719 C 261.238281 138.261719 258.183594 136.996094 255 136.996094 C 251.816406 136.996094 248.761719 138.261719 246.511719 140.511719 C 244.261719 142.761719 242.996094 145.816406 242.996094 149 C 242.996094 152.183594 244.261719 155.238281 246.511719 157.488281 C 248.761719 159.738281 251.816406 161.003906 255 161.003906 C 258.183594 161.003906 261.238281 159.738281 263.488281 157.488281 C 265.738281 155.238281 267.003906 152.183594 267.003906 149 Z M 267.003906 149 "/>
<path style=" stroke:none;fill-rule:evenodd;fill:rgb(85.096741%,85.096741%,81.959534%);fill-opacity:0.7;" d="M 120.003906 148 C 120.003906 144.816406 118.738281 141.761719 116.488281 139.511719 C 114.238281 137.261719 111.183594 135.996094 108 135.996094 C 104.816406 135.996094 101.761719 137.261719 99.511719 139.511719 C 97.261719 141.761719 95.996094 144.816406 95.996094 148 C 95.996094 151.183594 97.261719 154.238281 99.511719 156.488281 C 101.761719 158.738281 104.816406 160.003906 108 160.003906 C 111.183594 160.003906 114.238281 158.738281 116.488281 156.488281 C 118.738281 154.238281 120.003906 151.183594 120.003906 148 Z M 120.003906 148 "/>
<path style=" stroke:none;fill-rule:evenodd;fill:rgb(85.096741%,85.096741%,81.959534%);fill-opacity:0.7;" d="M 289.003906 133 C 289.003906 129.816406 287.738281 126.761719 285.488281 124.511719 C 283.238281 122.261719 280.183594 120.996094 277 120.996094 C 273.816406 120.996094 270.761719 122.261719 268.511719 124.511719 C 266.261719 126.761719 264.996094 129.816406 264.996094 133 C 264.996094 136.183594 266.261719 139.238281 268.511719 141.488281 C 270.761719 143.738281 273.816406 145.003906 277 145.003906 C 280.183594 145.003906 283.238281 143.738281 285.488281 141.488281 C 287.738281 139.238281 289.003906 136.183594 289.003906 133 Z M 289.003906 133 "/>
<path style=" stroke:none;fill-rule:evenodd;fill:rgb(85.096741%,85.096741%,81.959534%);fill-opacity:0.7;" d="M 289.003906 131 C 289.003906 127.816406 287.738281 124.761719 285.488281 122.511719 C 283.238281 120.261719 280.183594 118.996094 277 118.996094 C 273.816406 118.996094 270.761719 120.261719 268.511719 122.511719 C 266.261719 124.761719 264.996094 127.816406 264.996094 131 C 264.996094 134.183594 266.261719 137.238281 268.511719 139.488281 C 270.761719 141.738281 273.816406 143.003906 277 143.003906 C 280.183594 143.003906 283.238281 141.738281 285.488281 139.488281 C 287.738281 137.238281 289.003906 134.183594 289.003906 131 Z M 289.003906 131 "/>
<path style=" stroke:none;fill-rule:evenodd;fill:rgb(85.096741%,85.096741%,81.959534%);fill-opacity:0.7;" d="M 300.003906 130 C 300.003906 126.816406 298.738281 123.761719 296.488281 121.511719 C 294.238281 119.261719 291.183594 117.996094 288 117.996094 C 284.816406 117.996094 281.761719 119.261719 279.511719 121.511719 C 277.261719 123.761719 275.996094 126.816406 275.996094 130 C 275.996094 133.183594 277.261719 136.238281 279.511719 138.488281 C 281.761719 140.738281 284.816406 142.003906 288 142.003906 C 291.183594 142.003906 294.238281 140.738281 296.488281 138.488281 C 298.738281 136.238281 300.003906 133.183594 300.003906 130 Z M 300.003906 130 "/>
<path style=" stroke:none;fill-rule:evenodd;fill:rgb(85.096741%,85.096741%,81.959534%);fill-opacity:0.7;" d="M 287.003906 124 C 287.003906 120.816406 285.738281 117.761719 283.488281 115.511719 C 281.238281 113.261719 278.183594 111.996094 275 111.996094 C 271.816406 111.996094 268.761719 113.261719 266.511719 115.511719 C 264.261719 117.761719 262.996094 120.816406 262.996094 124 C 262.996094 127.183594 264.261719 130.238281 266.511719 132.488281 C 268.761719 134.738281 271.816406 136.003906 275 136.003906 C 278.183594 136.003906 281.238281 134.738281 283.488281 132.488281 C 285.738281 130.238281 287.003906 127.183594 287.003906 124 Z M 287.003906 124 "/>
<path style=" stroke:none;fill-rule:evenodd;fill:rgb(85.096741%,85.096741%,81.959534%);fill-opacity:0.7;" d="M 287.003906 123 C 287.003906 119.816406 285.738281 116.761719 283.488281 114.511719 C 281.238281 112.261719 278.183594 110.996094 275 110.996094 C 271.816406 110.996094 268.761719 112.261719 266.511719 114.511719 C 264.261719 116.761719 262.996094 119.816406 262.996094 123 C 262.996094 126.183594 264.261719 129.238281 266.511719 131.488281 C 268.761719 133.738281 271.816406 135.003906 275 135.003906 C 278.183594 135.003906 281.238281 133.738281 283.488281 131.488281 C 285.738281 129.238281 287.003906 126.183594 287.003906 123 Z M 287.003906 123 "/>
<path style=" stroke:none;fill-rule:evenodd;fill:rgb(85.096741%,85.096741%,81.959534%);fill-opacity:0.7;" d="M 320.003906 116 C 320.003906 112.816406 318.738281 109.761719 316.488281 107.511719 C 314.238281 105.261719 311.183594 103.996094 308 103.996094 C 304.816406 103.996094 301.761719 105.261719 299.511719 107.511719 C 297.261719 109.761719 295.996094 112.816406 295.996094 116 C 295.996094 119.183594 297.261719 122.238281 299.511719 124.488281 C 301.761719 126.738281 304.816406 128.003906 308 128.003906 C 311.183594 128.003906 314.238281 126.738281 316.488281 124.488281 C 318.738281 122.238281 320.003906 119.183594 320.003906 116 Z M 320.003906 116 "/>
<path style=" stroke:none;fill-rule:evenodd;fill:rgb(85.096741%,85.096741%,81.959534%);fill-opacity:0.7;" d="M 312.003906 116 C 312.003906 112.816406 310.738281 109.761719 308.488281 107.511719 C 306.238281 105.261719 303.183594 103.996094 300 103.996094 C 296.816406 103.996094 293.761719 105.261719 291.511719 107.511719 C 289.261719 109.761719 287.996094 112.816406 287.996094 116 C 287.996094 119.183594 289.261719 122.238281 291.511719 124.488281 C 293.761719 126.738281 296.816406 128.003906 300 128.003906 C 303.183594 128.003906 306.238281 126.738281 308.488281 124.488281 C 310.738281 122.238281 312.003906 119.183594 312.003906 116 Z M 312.003906 116 "/>
<path style=" stroke:none;fill-rule:evenodd;fill:rgb(85.096741%,85.096741%,81.959534%);fill-opacity:0.7;" d="M 315.003906 115 C 315.003906 111.816406 313.738281 108.761719 311.488281 106.511719 C 309.238281 104.261719 306.183594 102.996094 303 102.996094 C 299.816406 102.996094 296.761719 104.261719 294.511719 106.511719 C 292.261719 108.761719 290.996094 111.816406 290.996094 115 C 290.996094 118.183594 292.261719 121.238281 294.511719 123.488281 C 296.761719 125.738281 299.816406 127.003906 303 127.003906 C 306.183594 127.003906 309.238281 125.738281 311.488281 123.488281 C 313.738281 121.238281 315.003906 118.183594 315.003906 115 Z M 315.003906 115 "/>
<path style=" stroke:none;fill-rule:evenodd;fill:rgb(85.096741%,85.096741%,81.959534%);fill-opacity:0.7;" d="M 315.003906 115 C 315.003906 111.816406 313.738281 108.761719 311.488281 106.511719 C 309.238281 104.261719 306.183594 102.996094 303 102.996094 C 299.816406 102.996094 296.761719 104.261719 294.511719 106.511719 C 292.261719 108.761719 290.996094 111.816406 290.996094 115 C 290.996094 118.183594 292.261719 121.238281 294.511719 123.488281 C 296.761719 125.738281 299.816406 127.003906 303 127.003906 C 306.183594 127.003906 309.238281 125.738281 311.488281 123.488281 C 313.738281 121.238281 315.003906 118.183594 315.003906 115 Z M 315.003906 115 "/>
<g clip-path="url(#clip19)" clip-rule="nonzero">
<path style=" stroke:none;fill-rule:evenodd;fill:rgb(85.096741%,85.096741%,81.959534%);fill-opacity:0.7;" d="M 364.003906 114 C 364.003906 110.816406 362.738281 107.761719 360.488281 105.511719 C 358.238281 103.261719 355.183594 101.996094 352 101.996094 C 348.816406 101.996094 345.761719 103.261719 343.511719 105.511719 C 341.261719 107.761719 339.996094 110.816406 339.996094 114 C 339.996094 117.183594 341.261719 120.238281 343.511719 122.488281 C 345.761719 124.738281 348.816406 126.003906 352 126.003906 C 355.183594 126.003906 358.238281 124.738281 360.488281 122.488281 C 362.738281 120.238281 364.003906 117.183594 364.003906 114 Z M 364.003906 114 "/>
</g>
<path style=" stroke:none;fill-rule:evenodd;fill:rgb(85.096741%,85.096741%,81.959534%);fill-opacity:0.7;" d="M 270.003906 109 C 270.003906 105.816406 268.738281 102.761719 266.488281 100.511719 C 264.238281 98.261719 261.183594 96.996094 258 96.996094 C 254.816406 96.996094 251.761719 98.261719 249.511719 100.511719 C 247.261719 102.761719 245.996094 105.816406 245.996094 109 C 245.996094 112.183594 247.261719 115.238281 249.511719 117.488281 C 251.761719 119.738281 254.816406 121.003906 258 121.003906 C 261.183594 121.003906 264.238281 119.738281 266.488281 117.488281 C 268.738281 115.238281 270.003906 112.183594 270.003906 109 Z M 270.003906 109 "/>
<path style=" stroke:none;fill-rule:evenodd;fill:rgb(85.096741%,85.096741%,81.959534%);fill-opacity:0.7;" d="M 269.003906 107 C 269.003906 103.816406 267.738281 100.761719 265.488281 98.511719 C 263.238281 96.261719 260.183594 94.996094 257 94.996094 C 253.816406 94.996094 250.761719 96.261719 248.511719 98.511719 C 246.261719 100.761719 244.996094 103.816406 244.996094 107 C 244.996094 110.183594 246.261719 113.238281 248.511719 115.488281 C 250.761719 117.738281 253.816406 119.003906 257 119.003906 C 260.183594 119.003906 263.238281 117.738281 265.488281 115.488281 C 267.738281 113.238281 269.003906 110.183594 269.003906 107 Z M 269.003906 107 "/>
<path style=" stroke:none;fill-rule:evenodd;fill:rgb(85.096741%,85.096741%,81.959534%);fill-opacity:0.7;" d="M 300.003906 104 C 300.003906 100.816406 298.738281 97.761719 296.488281 95.511719 C 294.238281 93.261719 291.183594 91.996094 288 91.996094 C 284.816406 91.996094 281.761719 93.261719 279.511719 95.511719 C 277.261719 97.761719 275.996094 100.816406 275.996094 104 C 275.996094 107.183594 277.261719 110.238281 279.511719 112.488281 C 281.761719 114.738281 284.816406 116.003906 288 116.003906 C 291.183594 116.003906 294.238281 114.738281 296.488281 112.488281 C 298.738281 110.238281 300.003906 107.183594 300.003906 104 Z M 300.003906 104 "/>
<path style=" stroke:none;fill-rule:evenodd;fill:rgb(85.096741%,85.096741%,81.959534%);fill-opacity:0.7;" d="M 269.003906 99 C 269.003906 95.816406 267.738281 92.761719 265.488281 90.511719 C 263.238281 88.261719 260.183594 86.996094 257 86.996094 C 253.816406 86.996094 250.761719 88.261719 248.511719 90.511719 C 246.261719 92.761719 244.996094 95.816406 244.996094 99 C 244.996094 102.183594 246.261719 105.238281 248.511719 107.488281 C 250.761719 109.738281 253.816406 111.003906 257 111.003906 C 260.183594 111.003906 263.238281 109.738281 265.488281 107.488281 C 267.738281 105.238281 269.003906 102.183594 269.003906 99 Z M 269.003906 99 "/>
<path style=" stroke:none;fill-rule:evenodd;fill:rgb(85.096741%,85.096741%,81.959534%);fill-opacity:0.7;" d="M 336.003906 97 C 336.003906 93.816406 334.738281 90.761719 332.488281 88.511719 C 330.238281 86.261719 327.183594 84.996094 324 84.996094 C 320.816406 84.996094 317.761719 86.261719 315.511719 88.511719 C 313.261719 90.761719 311.996094 93.816406 311.996094 97 C 311.996094 100.183594 313.261719 103.238281 315.511719 105.488281 C 317.761719 107.738281 320.816406 109.003906 324 109.003906 C 327.183594 109.003906 330.238281 107.738281 332.488281 105.488281 C 334.738281 103.238281 336.003906 100.183594 336.003906 97 Z M 336.003906 97 "/>
<path style=" stroke:none;fill-rule:evenodd;fill:rgb(85.096741%,85.096741%,81.959534%);fill-opacity:0.7;" d="M 245.003906 93 C 245.003906 89.816406 243.738281 86.761719 241.488281 84.511719 C 239.238281 82.261719 236.183594 80.996094 233 80.996094 C 229.816406 80.996094 226.761719 82.261719 224.511719 84.511719 C 222.261719 86.761719 220.996094 89.816406 220.996094 93 C 220.996094 96.183594 222.261719 99.238281 224.511719 101.488281 C 226.761719 103.738281 229.816406 105.003906 233 105.003906 C 236.183594 105.003906 239.238281 103.738281 241.488281 101.488281 C 243.738281 99.238281 245.003906 96.183594 245.003906 93 Z M 245.003906 93 "/>
<path style=" stroke:none;fill-rule:evenodd;fill:rgb(85.096741%,85.096741%,81.959534%);fill-opacity:0.7;" d="M 198.003906 88 C 198.003906 84.816406 196.738281 81.761719 194.488281 79.511719 C 192.238281 77.261719 189.183594 75.996094 186 75.996094 C 182.816406 75.996094 179.761719 77.261719 177.511719 79.511719 C 175.261719 81.761719 173.996094 84.816406 173.996094 88 C 173.996094 91.183594 175.261719 94.238281 177.511719 96.488281 C 179.761719 98.738281 182.816406 100.003906 186 100.003906 C 189.183594 100.003906 192.238281 98.738281 194.488281 96.488281 C 196.738281 94.238281 198.003906 91.183594 198.003906 88 Z M 198.003906 88 "/>
<path style=" stroke:none;fill-rule:evenodd;fill:rgb(85.096741%,85.096741%,81.959534%);fill-opacity:0.7;" d="M 16.003906 69 C 16.003906 65.816406 14.738281 62.761719 12.488281 60.511719 C 10.238281 58.261719 7.183594 56.996094 4 56.996094 C 0.816406 56.996094 -2.238281 58.261719 -4.488281 60.511719 C -6.738281 62.761719 -8.003906 65.816406 -8.003906 69 C -8.003906 72.183594 -6.738281 75.238281 -4.488281 77.488281 C -2.238281 79.738281 0.816406 81.003906 4 81.003906 C 7.183594 81.003906 10.238281 79.738281 12.488281 77.488281 C 14.738281 75.238281 16.003906 72.183594 16.003906 69 Z M 16.003906 69 "/>
<path style=" stroke:none;fill-rule:evenodd;fill:rgb(85.096741%,85.096741%,81.959534%);fill-opacity:0.7;" d="M 36.003906 56 C 36.003906 52.816406 34.738281 49.761719 32.488281 47.511719 C 30.238281 45.261719 27.183594 43.996094 24 43.996094 C 20.816406 43.996094 17.761719 45.261719 15.511719 47.511719 C 13.261719 49.761719 11.996094 52.816406 11.996094 56 C 11.996094 59.183594 13.261719 62.238281 15.511719 64.488281 C 17.761719 66.738281 20.816406 68.003906 24 68.003906 C 27.183594 68.003906 30.238281 66.738281 32.488281 64.488281 C 34.738281 62.238281 36.003906 59.183594 36.003906 56 Z M 36.003906 56 "/>
<path style=" stroke:none;fill-rule:evenodd;fill:rgb(85.096741%,85.096741%,81.959534%);fill-opacity:0.7;" d="M 49.003906 51 C 49.003906 47.816406 47.738281 44.761719 45.488281 42.511719 C 43.238281 40.261719 40.183594 38.996094 37 38.996094 C 33.816406 38.996094 30.761719 40.261719 28.511719 42.511719 C 26.261719 44.761719 24.996094 47.816406 24.996094 51 C 24.996094 54.183594 26.261719 57.238281 28.511719 59.488281 C 30.761719 61.738281 33.816406 63.003906 37 63.003906 C 40.183594 63.003906 43.238281 61.738281 45.488281 59.488281 C 47.738281 57.238281 49.003906 54.183594 49.003906 51 Z M 49.003906 51 "/>
<path style=" stroke:none;fill-rule:evenodd;fill:rgb(85.096741%,85.096741%,81.959534%);fill-opacity:0.7;" d="M 38.003906 47 C 38.003906 43.816406 36.738281 40.761719 34.488281 38.511719 C 32.238281 36.261719 29.183594 34.996094 26 34.996094 C 22.816406 34.996094 19.761719 36.261719 17.511719 38.511719 C 15.261719 40.761719 13.996094 43.816406 13.996094 47 C 13.996094 50.183594 15.261719 53.238281 17.511719 55.488281 C 19.761719 57.738281 22.816406 59.003906 26 59.003906 C 29.183594 59.003906 32.238281 57.738281 34.488281 55.488281 C 36.738281 53.238281 38.003906 50.183594 38.003906 47 Z M 38.003906 47 "/>
<path style=" stroke:none;fill-rule:evenodd;fill:rgb(85.096741%,85.096741%,81.959534%);fill-opacity:0.7;" d="M 158.003906 23 C 158.003906 19.816406 156.738281 16.761719 154.488281 14.511719 C 152.238281 12.261719 149.183594 10.996094 146 10.996094 C 142.816406 10.996094 139.761719 12.261719 137.511719 14.511719 C 135.261719 16.761719 133.996094 19.816406 133.996094 23 C 133.996094 26.183594 135.261719 29.238281 137.511719 31.488281 C 139.761719 33.738281 142.816406 35.003906 146 35.003906 C 149.183594 35.003906 152.238281 33.738281 154.488281 31.488281 C 156.738281 29.238281 158.003906 26.183594 158.003906 23 Z M 158.003906 23 "/>
<path style=" stroke:none;fill-rule:evenodd;fill:rgb(85.096741%,85.096741%,81.959534%);fill-opacity:0.7;" d="M 221.003906 21 C 221.003906 17.816406 219.738281 14.761719 217.488281 12.511719 C 215.238281 10.261719 212.183594 8.996094 209 8.996094 C 205.816406 8.996094 202.761719 10.261719 200.511719 12.511719 C 198.261719 14.761719 196.996094 17.816406 196.996094 21 C 196.996094 24.183594 198.261719 27.238281 200.511719 29.488281 C 202.761719 31.738281 205.816406 33.003906 209 33.003906 C 212.183594 33.003906 215.238281 31.738281 217.488281 29.488281 C 219.738281 27.238281 221.003906 24.183594 221.003906 21 Z M 221.003906 21 "/>
<path style=" stroke:none;fill-rule:evenodd;fill:rgb(85.096741%,85.096741%,81.959534%);fill-opacity:0.7;" d="M 254.003906 7 C 254.003906 3.816406 252.738281 0.761719 250.488281 -1.488281 C 248.238281 -3.738281 245.183594 -5.003906 242 -5.003906 C 238.816406 -5.003906 235.761719 -3.738281 233.511719 -1.488281 C 231.261719 0.761719 229.996094 3.816406 229.996094 7 C 229.996094 10.183594 231.261719 13.238281 233.511719 15.488281 C 235.761719 17.738281 238.816406 19.003906 242 19.003906 C 245.183594 19.003906 248.238281 17.738281 250.488281 15.488281 C 252.738281 13.238281 254.003906 10.183594 254.003906 7 Z M 254.003906 7 "/>
<path style=" stroke:none;fill-rule:evenodd;fill:rgb(85.096741%,85.096741%,81.959534%);fill-opacity:0.7;" d="M 96.003906 131 C 96.003906 127.816406 94.738281 124.761719 92.488281 122.511719 C 90.238281 120.261719 87.183594 118.996094 84 118.996094 C 80.816406 118.996094 77.761719 120.261719 75.511719 122.511719 C 73.261719 124.761719 71.996094 127.816406 71.996094 131 C 71.996094 134.183594 73.261719 137.238281 75.511719 139.488281 C 77.761719 141.738281 80.816406 143.003906 84 143.003906 C 87.183594 143.003906 90.238281 141.738281 92.488281 139.488281 C 94.738281 137.238281 96.003906 134.183594 96.003906 131 Z M 96.003906 131 "/>
<path style=" stroke:none;fill-rule:evenodd;fill:rgb(85.096741%,85.096741%,81.959534%);fill-opacity:0.7;" d="M 230.003906 344 C 230.003906 340.816406 228.738281 337.761719 226.488281 335.511719 C 224.238281 333.261719 221.183594 331.996094 218 331.996094 C 214.816406 331.996094 211.761719 333.261719 209.511719 335.511719 C 207.261719 337.761719 205.996094 340.816406 205.996094 344 C 205.996094 347.183594 207.261719 350.238281 209.511719 352.488281 C 211.761719 354.738281 214.816406 356.003906 218 356.003906 C 221.183594 356.003906 224.238281 354.738281 226.488281 352.488281 C 228.738281 350.238281 230.003906 347.183594 230.003906 344 Z M 230.003906 344 "/>
<path style=" stroke:none;fill-rule:evenodd;fill:rgb(85.096741%,85.096741%,81.959534%);fill-opacity:0.7;" d="M 190.003906 343 C 190.003906 339.816406 188.738281 336.761719 186.488281 334.511719 C 184.238281 332.261719 181.183594 330.996094 178 330.996094 C 174.816406 330.996094 171.761719 332.261719 169.511719 334.511719 C 167.261719 336.761719 165.996094 339.816406 165.996094 343 C 165.996094 346.183594 167.261719 349.238281 169.511719 351.488281 C 171.761719 353.738281 174.816406 355.003906 178 355.003906 C 181.183594 355.003906 184.238281 353.738281 186.488281 351.488281 C 188.738281 349.238281 190.003906 346.183594 190.003906 343 Z M 190.003906 343 "/>
<path style=" stroke:none;fill-rule:evenodd;fill:rgb(85.096741%,85.096741%,81.959534%);fill-opacity:0.7;" d="M 188.003906 300 C 188.003906 296.816406 186.738281 293.761719 184.488281 291.511719 C 182.238281 289.261719 179.183594 287.996094 176 287.996094 C 172.816406 287.996094 169.761719 289.261719 167.511719 291.511719 C 165.261719 293.761719 163.996094 296.816406 163.996094 300 C 163.996094 303.183594 165.261719 306.238281 167.511719 308.488281 C 169.761719 310.738281 172.816406 312.003906 176 312.003906 C 179.183594 312.003906 182.238281 310.738281 184.488281 308.488281 C 186.738281 306.238281 188.003906 303.183594 188.003906 300 Z M 188.003906 300 "/>
<path style=" stroke:none;fill-rule:evenodd;fill:rgb(85.096741%,85.096741%,81.959534%);fill-opacity:0.7;" d="M 310.003906 248 C 310.003906 244.816406 308.738281 241.761719 306.488281 239.511719 C 304.238281 237.261719 301.183594 235.996094 298 235.996094 C 294.816406 235.996094 291.761719 237.261719 289.511719 239.511719 C 287.261719 241.761719 285.996094 244.816406 285.996094 248 C 285.996094 251.183594 287.261719 254.238281 289.511719 256.488281 C 291.761719 258.738281 294.816406 260.003906 298 260.003906 C 301.183594 260.003906 304.238281 258.738281 306.488281 256.488281 C 308.738281 254.238281 310.003906 251.183594 310.003906 248 Z M 310.003906 248 "/>
<path style=" stroke:none;fill-rule:evenodd;fill:rgb(85.096741%,85.096741%,81.959534%);fill-opacity:0.7;" d="M 182.003906 223 C 182.003906 219.816406 180.738281 216.761719 178.488281 214.511719 C 176.238281 212.261719 173.183594 210.996094 170 210.996094 C 166.816406 210.996094 163.761719 212.261719 161.511719 214.511719 C 159.261719 216.761719 157.996094 219.816406 157.996094 223 C 157.996094 226.183594 159.261719 229.238281 161.511719 231.488281 C 163.761719 233.738281 166.816406 235.003906 170 235.003906 C 173.183594 235.003906 176.238281 233.738281 178.488281 231.488281 C 180.738281 229.238281 182.003906 226.183594 182.003906 223 Z M 182.003906 223 "/>
<path style=" stroke:none;fill-rule:evenodd;fill:rgb(85.096741%,85.096741%,81.959534%);fill-opacity:0.7;" d="M 121.003906 215 C 121.003906 211.816406 119.738281 208.761719 117.488281 206.511719 C 115.238281 204.261719 112.183594 202.996094 109 202.996094 C 105.816406 202.996094 102.761719 204.261719 100.511719 206.511719 C 98.261719 208.761719 96.996094 211.816406 96.996094 215 C 96.996094 218.183594 98.261719 221.238281 100.511719 223.488281 C 102.761719 225.738281 105.816406 227.003906 109 227.003906 C 112.183594 227.003906 115.238281 225.738281 117.488281 223.488281 C 119.738281 221.238281 121.003906 218.183594 121.003906 215 Z M 121.003906 215 "/>
<path style=" stroke:none;fill-rule:evenodd;fill:rgb(85.096741%,85.096741%,81.959534%);fill-opacity:0.7;" d="M 270.003906 110 C 270.003906 106.816406 268.738281 103.761719 266.488281 101.511719 C 264.238281 99.261719 261.183594 97.996094 258 97.996094 C 254.816406 97.996094 251.761719 99.261719 249.511719 101.511719 C 247.261719 103.761719 245.996094 106.816406 245.996094 110 C 245.996094 113.183594 247.261719 116.238281 249.511719 118.488281 C 251.761719 120.738281 254.816406 122.003906 258 122.003906 C 261.183594 122.003906 264.238281 120.738281 266.488281 118.488281 C 268.738281 116.238281 270.003906 113.183594 270.003906 110 Z M 270.003906 110 "/>
<path style=" stroke:none;fill-rule:evenodd;fill:rgb(85.096741%,85.096741%,81.959534%);fill-opacity:0.7;" d="M 197.003906 89 C 197.003906 85.816406 195.738281 82.761719 193.488281 80.511719 C 191.238281 78.261719 188.183594 76.996094 185 76.996094 C 181.816406 76.996094 178.761719 78.261719 176.511719 80.511719 C 174.261719 82.761719 172.996094 85.816406 172.996094 89 C 172.996094 92.183594 174.261719 95.238281 176.511719 97.488281 C 178.761719 99.738281 181.816406 101.003906 185 101.003906 C 188.183594 101.003906 191.238281 99.738281 193.488281 97.488281 C 195.738281 95.238281 197.003906 92.183594 197.003906 89 Z M 197.003906 89 "/>
<path style=" stroke:none;fill-rule:evenodd;fill:rgb(85.096741%,85.096741%,81.959534%);fill-opacity:0.7;" d="M 323.003906 74 C 323.003906 70.816406 321.738281 67.761719 319.488281 65.511719 C 317.238281 63.261719 314.183594 61.996094 311 61.996094 C 307.816406 61.996094 304.761719 63.261719 302.511719 65.511719 C 300.261719 67.761719 298.996094 70.816406 298.996094 74 C 298.996094 77.183594 300.261719 80.238281 302.511719 82.488281 C 304.761719 84.738281 307.816406 86.003906 311 86.003906 C 314.183594 86.003906 317.238281 84.738281 319.488281 82.488281 C 321.738281 80.238281 323.003906 77.183594 323.003906 74 Z M 323.003906 74 "/>
<path style=" stroke:none;fill-rule:evenodd;fill:rgb(85.096741%,85.096741%,81.959534%);fill-opacity:0.7;" d="M 36.003906 47 C 36.003906 43.816406 34.738281 40.761719 32.488281 38.511719 C 30.238281 36.261719 27.183594 34.996094 24 34.996094 C 20.816406 34.996094 17.761719 36.261719 15.511719 38.511719 C 13.261719 40.761719 11.996094 43.816406 11.996094 47 C 11.996094 50.183594 13.261719 53.238281 15.511719 55.488281 C 17.761719 57.738281 20.816406 59.003906 24 59.003906 C 27.183594 59.003906 30.238281 57.738281 32.488281 55.488281 C 34.738281 53.238281 36.003906 50.183594 36.003906 47 Z M 36.003906 47 "/>
<path style=" stroke:none;fill-rule:evenodd;fill:rgb(85.096741%,85.096741%,81.959534%);fill-opacity:0.7;" d="M 303.003906 17 C 303.003906 13.816406 301.738281 10.761719 299.488281 8.511719 C 297.238281 6.261719 294.183594 4.996094 291 4.996094 C 287.816406 4.996094 284.761719 6.261719 282.511719 8.511719 C 280.261719 10.761719 278.996094 13.816406 278.996094 17 C 278.996094 20.183594 280.261719 23.238281 282.511719 25.488281 C 284.761719 27.738281 287.816406 29.003906 291 29.003906 C 294.183594 29.003906 297.238281 27.738281 299.488281 25.488281 C 301.738281 23.238281 303.003906 20.183594 303.003906 17 Z M 303.003906 17 "/>
<path style=" stroke:none;fill-rule:evenodd;fill:rgb(85.096741%,85.096741%,81.959534%);fill-opacity:0.7;" d="M 237.003906 -1 C 237.003906 -4.183594 235.738281 -7.238281 233.488281 -9.488281 C 231.238281 -11.738281 228.183594 -13.003906 225 -13.003906 C 221.816406 -13.003906 218.761719 -11.738281 216.511719 -9.488281 C 214.261719 -7.238281 212.996094 -4.183594 212.996094 -1 C 212.996094 2.183594 214.261719 5.238281 216.511719 7.488281 C 218.761719 9.738281 221.816406 11.003906 225 11.003906 C 228.183594 11.003906 231.238281 9.738281 233.488281 7.488281 C 235.738281 5.238281 237.003906 2.183594 237.003906 -1 Z M 237.003906 -1 "/>
<g clip-path="url(#clip20)" clip-rule="nonzero">
<path style=" stroke:none;fill-rule:evenodd;fill:rgb(76.469421%,0.392151%,0%);fill-opacity:0.7;" d="M 373.007812 78 C 373.007812 71.632812 370.476562 65.527344 365.976562 61.023438 C 361.472656 56.523438 355.367188 53.992188 349 53.992188 C 342.632812 53.992188 336.527344 56.523438 332.023438 61.023438 C 327.523438 65.527344 324.992188 71.632812 324.992188 78 C 324.992188 84.367188 327.523438 90.472656 332.023438 94.976562 C 336.527344 99.476562 342.632812 102.007812 349 102.007812 C 355.367188 102.007812 361.472656 99.476562 365.976562 94.976562 C 370.476562 90.472656 373.007812 84.367188 373.007812 78 Z M 373.007812 78 "/>
</g>
<path style="fill-rule:nonzero;fill:rgb(99.998474%,99.998474%,30.587769%);fill-opacity:0.8;stroke-width:0.288;stroke-linecap:square;stroke-linejoin:miter;stroke:rgb(0%,0%,0%);stroke-opacity:0.8;stroke-miterlimit:3.25;" d="M 122.789062 138.707031 L 96.800781 183.722656 L 148.777344 183.722656 Z M 122.789062 138.707031 " transform="matrix(1,0,0,1,-74,-13)"/>
<path style="fill-rule:nonzero;fill:rgb(99.998474%,99.998474%,30.587769%);fill-opacity:0.8;stroke-width:0.288;stroke-linecap:square;stroke-linejoin:miter;stroke:rgb(0%,0%,0%);stroke-opacity:0.8;stroke-miterlimit:3.25;" d="M 293.84375 231.738281 L 267.855469 276.753906 L 319.832031 276.753906 Z M 293.84375 231.738281 " transform="matrix(1,0,0,1,-74,-13)"/>
<path style="fill-rule:nonzero;fill:rgb(99.998474%,99.998474%,30.587769%);fill-opacity:0.8;stroke-width:0.288;stroke-linecap:square;stroke-linejoin:miter;stroke:rgb(0%,0%,0%);stroke-opacity:0.8;stroke-miterlimit:3.25;" d="M 191.8125 3.664062 L 165.820312 48.679688 L 217.800781 48.679688 Z M 191.8125 3.664062 " transform="matrix(1,0,0,1,-74,-13)"/>
<path style="fill-rule:nonzero;fill:rgb(99.998474%,99.998474%,30.587769%);fill-opacity:0.8;stroke-width:0.288;stroke-linecap:square;stroke-linejoin:miter;stroke:rgb(0%,0%,0%);stroke-opacity:0.8;stroke-miterlimit:3.25;" d="M 200.8125 141.710938 L 174.824219 186.722656 L 226.804688 186.722656 Z M 200.8125 141.710938 " transform="matrix(1,0,0,1,-74,-13)"/>
<path style="fill-rule:nonzero;fill:rgb(99.998474%,99.998474%,30.587769%);fill-opacity:0.8;stroke-width:0.288;stroke-linecap:square;stroke-linejoin:miter;stroke:rgb(0%,0%,0%);stroke-opacity:0.8;stroke-miterlimit:3.25;" d="M 113.785156 63.683594 L 87.796875 108.699219 L 139.773438 108.699219 Z M 113.785156 63.683594 " transform="matrix(1,0,0,1,-74,-13)"/>
<path style="fill-rule:nonzero;fill:rgb(99.998474%,99.998474%,30.587769%);fill-opacity:0.8;stroke-width:0.288;stroke-linecap:square;stroke-linejoin:miter;stroke:rgb(0%,0%,0%);stroke-opacity:0.8;stroke-miterlimit:3.25;" d="M 269.835938 99.695312 L 243.847656 144.710938 L 295.824219 144.710938 Z M 269.835938 99.695312 " transform="matrix(1,0,0,1,-74,-13)"/>
</g>
</svg>
