<?xml version="1.0" encoding="UTF-8"?>
<svg xmlns="http://www.w3.org/2000/svg" xmlns:xlink="http://www.w3.org/1999/xlink" width="361pt" height="361pt" viewBox="0 0 361 361" version="1.1">
<g id="surface2163">
<path style="fill-rule:nonzero;fill:rgb(0%,0%,0%);fill-opacity:1;stroke-width:0.03;stroke-linecap:square;stroke-linejoin:miter;stroke:rgb(0%,0%,0%);stroke-opacity:1;stroke-miterlimit:10;" d="M 0 178 L 360 178 L 360 -182 L 0 -182 Z M 0 178 " transform="matrix(1,0,0,1,0,182)"/>
<path style=" stroke:none;fill-rule:nonzero;fill:rgb(39.99939%,39.99939%,39.99939%);fill-opacity:0.3;" d="M 170.085938 66.3125 L 121.808594 273.371094 L 51.429688 252.832031 L 119.058594 51.429688 Z M 170.085938 66.3125 "/>
<path style=" stroke:none;fill-rule:nonzero;fill:rgb(39.99939%,39.99939%,39.99939%);fill-opacity:0.3;" d="M 144.347656 279.949219 L 190.949219 72.398438 L 297.421875 103.453125 L 242.425781 308.570312 Z M 144.347656 279.949219 "/>
<path style="fill-rule:nonzero;fill:rgb(39.99939%,39.99939%,39.99939%);fill-opacity:1;stroke-width:0.03;stroke-linecap:square;stroke-linejoin:miter;stroke:rgb(39.99939%,39.99939%,39.99939%);stroke-opacity:1;stroke-miterlimit:3.239307;" d="M 244.085938 79.3125 L 195.808594 286.371094 L 125.429688 265.832031 L 193.058594 64.429688 Z M 244.085938 79.3125 " transform="matrix(1,0,0,1,-74,-13)"/>
<path style="fill-rule:nonzero;fill:rgb(39.99939%,39.99939%,39.99939%);fill-opacity:1;stroke-width:0.03;stroke-linecap:square;stroke-linejoin:miter;stroke:rgb(39.99939%,39.99939%,39.99939%);stroke-opacity:1;stroke-miterlimit:3.239307;" d="M 218.347656 292.949219 L 264.949219 85.398438 L 371.421875 116.453125 L 316.425781 321.570312 Z M 218.347656 292.949219 " transform="matrix(1,0,0,1,-74,-13)"/>
<path style=" stroke:none;fill-rule:evenodd;fill:rgb(85.096741%,85.096741%,81.959534%);fill-opacity:0.7;" d="M 169.273438 -18 C 169.273438 -96.84375 137.953125 -172.453125 82.203125 -228.203125 C 26.453125 -283.953125 -49.15625 -315.273438 -128 -315.273438 C -206.84375 -315.273438 -282.453125 -283.953125 -338.203125 -228.203125 C -393.953125 -172.453125 -425.273438 -96.84375 -425.273438 -18 C -425.273438 60.84375 -393.953125 136.453125 -338.203125 192.203125 C -282.453125 247.953125 -206.84375 279.273438 -128 279.273438 C -49.15625 279.273438 26.453125 247.953125 82.203125 192.203125 C 137.953125 136.453125 169.273438 60.84375 169.273438 -18 Z M 169.273438 -18 "/>
</g>
</svg>
