<?xml version="1.0" encoding="UTF-8"?>
<svg xmlns="http://www.w3.org/2000/svg" xmlns:xlink="http://www.w3.org/1999/xlink" width="361pt" height="361pt" viewBox="0 0 361 361" version="1.1">
<g id="surface7056">
<path style="fill-rule:nonzero;fill:rgb(0%,0%,0%);fill-opacity:1;stroke-width:0.03;stroke-linecap:square;stroke-linejoin:miter;stroke:rgb(0%,0%,0%);stroke-opacity:1;stroke-miterlimit:10;" d="M 0 178 L 360 178 L 360 -182 L 0 -182 Z M 0 178 " transform="matrix(1,0,0,1,0,182)"/>
<path style=" stroke:none;fill-rule:nonzero;fill:rgb(39.99939%,39.99939%,39.99939%);fill-opacity:0.3;" d="M 162.121094 -253.195312 L 168.980469 -255.898438 L 176.117188 -256.203125 L 183.628906 -254.945312 L 279.894531 -229.882812 L 288.3125 -226.761719 L 294.777344 -223.78125 L 299.4375 -220.050781 L 304.390625 -214.527344 L 307.886719 -209.414062 L 310.367188 -204.167969 L 312.550781 -197.949219 L 313.71875 -191.320312 L 313.574219 -184.824219 L 312.847656 -178.195312 L 310.519531 -171.976562 L 307.023438 -165.621094 L 126.636719 59.4375 L 125.371094 60.589844 L 119.203125 63.578125 L 117.804688 63.425781 L 117.75 63.398438 L 19.871094 4.101562 L -2.429688 -9.019531 L 92.554688 -158.167969 L 138.191406 -223.238281 Z M 162.121094 -253.195312 "/>
<path style=" stroke:none;fill-rule:nonzero;fill:rgb(39.99939%,39.99939%,39.99939%);fill-opacity:0.3;" d="M 239.550781 298.417969 L 234.589844 299.054688 L 229.734375 274.964844 L 234.695312 274.324219 Z M 239.550781 298.417969 "/>
<path style=" stroke:none;fill-rule:nonzero;fill:rgb(39.99939%,39.99939%,39.99939%);fill-opacity:0.3;" d="M 231.09375 295.203125 L 226.128906 295.84375 L 221.273438 271.75 L 226.238281 271.113281 Z M 231.09375 295.203125 "/>
<path style=" stroke:none;fill-rule:nonzero;fill:rgb(39.99939%,39.99939%,39.99939%);fill-opacity:0.3;" d="M 190.605469 275.8125 L 185.644531 276.449219 L 183.027344 264.160156 L 187.988281 263.523438 Z M 190.605469 275.8125 "/>
<path style=" stroke:none;fill-rule:nonzero;fill:rgb(39.99939%,39.99939%,39.99939%);fill-opacity:0.3;" d="M 198.738281 280.738281 L 193.777344 281.378906 L 190.46875 264.511719 L 195.433594 263.875 Z M 198.738281 280.738281 "/>
<path style=" stroke:none;fill-rule:nonzero;fill:rgb(39.99939%,39.99939%,39.99939%);fill-opacity:0.3;" d="M 210.476562 281.515625 L 205.515625 282.152344 L 202.898438 269.863281 L 207.859375 269.226562 Z M 210.476562 281.515625 "/>
<path style=" stroke:none;fill-rule:nonzero;fill:rgb(39.99939%,39.99939%,39.99939%);fill-opacity:0.3;" d="M 219.5625 289.425781 L 214.597656 290.0625 L 211.292969 273.199219 L 216.257812 272.5625 Z M 219.5625 289.425781 "/>
<path style=" stroke:none;fill-rule:nonzero;fill:rgb(39.99939%,39.99939%,39.99939%);fill-opacity:0.3;" d="M 169.042969 261.367188 L 164.082031 262.003906 L 160.257812 244.09375 L 165.21875 243.457031 Z M 169.042969 261.367188 "/>
<path style=" stroke:none;fill-rule:nonzero;fill:rgb(39.99939%,39.99939%,39.99939%);fill-opacity:0.3;" d="M 177.738281 268.160156 L 172.777344 268.800781 L 167.496094 242.496094 L 172.457031 241.859375 Z M 177.738281 268.160156 "/>
<path style=" stroke:none;fill-rule:nonzero;fill:rgb(39.99939%,39.99939%,39.99939%);fill-opacity:0.3;" d="M 184.679688 251.957031 L 179.71875 252.59375 L 177.097656 240.304688 L 182.0625 239.667969 Z M 184.679688 251.957031 "/>
<path style=" stroke:none;fill-rule:nonzero;fill:rgb(39.99939%,39.99939%,39.99939%);fill-opacity:0.3;" d="M 191.636719 250.578125 L 186.675781 251.214844 L 184.054688 238.925781 L 189.019531 238.289062 Z M 191.636719 250.578125 "/>
<path style=" stroke:none;fill-rule:nonzero;fill:rgb(39.99939%,39.99939%,39.99939%);fill-opacity:0.3;" d="M 202.53125 248.269531 L 197.570312 248.90625 L 194.953125 236.617188 L 199.914062 235.980469 Z M 202.53125 248.269531 "/>
<path style=" stroke:none;fill-rule:nonzero;fill:rgb(39.99939%,39.99939%,39.99939%);fill-opacity:0.3;" d="M 209.4375 246.84375 L 204.472656 247.480469 L 201.855469 235.191406 L 206.820312 234.554688 Z M 209.4375 246.84375 "/>
<path style=" stroke:none;fill-rule:nonzero;fill:rgb(39.99939%,39.99939%,39.99939%);fill-opacity:0.3;" d="M 222.882812 264.671875 L 217.921875 265.308594 L 211.515625 233.152344 L 216.480469 232.515625 Z M 222.882812 264.671875 "/>
<path style=" stroke:none;fill-rule:nonzero;fill:rgb(39.99939%,39.99939%,39.99939%);fill-opacity:0.3;" d="M 230.628906 262.914062 L 225.664062 263.550781 L 219.261719 231.394531 L 224.222656 230.757812 Z M 230.628906 262.914062 "/>
<path style=" stroke:none;fill-rule:nonzero;fill:rgb(39.99939%,39.99939%,39.99939%);fill-opacity:0.3;" d="M 148.105469 257.953125 L 143.144531 258.589844 L 141.027344 248.207031 L 145.992188 247.566406 Z M 148.105469 257.953125 "/>
<path style=" stroke:none;fill-rule:nonzero;fill:rgb(39.99939%,39.99939%,39.99939%);fill-opacity:0.3;" d="M 157.359375 258.039062 L 152.394531 258.675781 L 149.777344 246.386719 L 154.742188 245.75 Z M 157.359375 258.039062 "/>
<path style=" stroke:none;fill-rule:nonzero;fill:rgb(39.99939%,39.99939%,39.99939%);fill-opacity:0.3;" d="M 280.714844 270.316406 L 275.753906 270.953125 L 268.386719 233.140625 L 273.347656 232.5 Z M 280.714844 270.316406 "/>
<path style=" stroke:none;fill-rule:nonzero;fill:rgb(39.99939%,39.99939%,39.99939%);fill-opacity:0.3;" d="M 287.308594 261.972656 L 282.34375 262.613281 L 275.941406 230.457031 L 280.902344 229.820312 Z M 287.308594 261.972656 "/>
<path style=" stroke:none;fill-rule:nonzero;fill:rgb(39.99939%,39.99939%,39.99939%);fill-opacity:0.3;" d="M 293.664062 246.011719 L 288.703125 246.652344 L 283.847656 222.558594 L 288.808594 221.921875 Z M 293.664062 246.011719 "/>
<path style=" stroke:none;fill-rule:nonzero;fill:rgb(39.99939%,39.99939%,39.99939%);fill-opacity:0.3;" d="M 299.699219 239.023438 L 294.738281 239.660156 L 291.433594 222.796875 L 296.394531 222.160156 Z M 299.699219 239.023438 "/>
<path style=" stroke:none;fill-rule:nonzero;fill:rgb(39.99939%,39.99939%,39.99939%);fill-opacity:0.3;" d="M 308.570312 229.738281 L 303.609375 230.375 L 299.511719 208.941406 L 304.472656 208.304688 Z M 308.570312 229.738281 "/>
<path style=" stroke:none;fill-rule:nonzero;fill:rgb(39.99939%,39.99939%,39.99939%);fill-opacity:0.3;" d="M 268.382812 218.5625 L 263.421875 219.203125 L 257.015625 187.046875 L 261.976562 186.40625 Z M 268.382812 218.5625 "/>
<path style=" stroke:none;fill-rule:nonzero;fill:rgb(39.99939%,39.99939%,39.99939%);fill-opacity:0.3;" d="M 255.464844 206.753906 L 250.503906 207.390625 L 244.097656 175.234375 L 249.0625 174.597656 Z M 255.464844 206.753906 "/>
<path style=" stroke:none;fill-rule:nonzero;fill:rgb(39.99939%,39.99939%,39.99939%);fill-opacity:0.3;" d="M 247.386719 203.578125 L 242.425781 204.21875 L 236.019531 172.0625 L 240.980469 171.421875 Z M 247.386719 203.578125 "/>
<path style=" stroke:none;fill-rule:nonzero;fill:rgb(39.99939%,39.99939%,39.99939%);fill-opacity:0.3;" d="M 225.207031 189.617188 L 220.242188 190.253906 L 214.910156 163.429688 L 219.871094 162.789062 Z M 225.207031 189.617188 "/>
<path style=" stroke:none;fill-rule:nonzero;fill:rgb(39.99939%,39.99939%,39.99939%);fill-opacity:0.3;" d="M 234.378906 194.605469 L 229.417969 195.246094 L 223.011719 163.089844 L 227.976562 162.449219 Z M 234.378906 194.605469 "/>
<path style=" stroke:none;fill-rule:nonzero;fill:rgb(39.99939%,39.99939%,39.99939%);fill-opacity:0.3;" d="M 167.75 142.425781 L 162.789062 143.0625 L 157.085938 114.933594 L 162.050781 114.292969 Z M 167.75 142.425781 "/>
<path style=" stroke:none;fill-rule:nonzero;fill:rgb(39.99939%,39.99939%,39.99939%);fill-opacity:0.3;" d="M 177.175781 178.953125 L 172.210938 179.59375 L 165.808594 147.4375 L 170.769531 146.796875 Z M 177.175781 178.953125 "/>
<path style=" stroke:none;fill-rule:nonzero;fill:rgb(39.99939%,39.99939%,39.99939%);fill-opacity:0.3;" d="M 169.316406 180.304688 L 164.355469 180.945312 L 158.652344 152.8125 L 163.613281 152.175781 Z M 169.316406 180.304688 "/>
<path style=" stroke:none;fill-rule:nonzero;fill:rgb(39.99939%,39.99939%,39.99939%);fill-opacity:0.3;" d="M 160.804688 143.65625 L 155.839844 144.292969 L 149.4375 112.140625 L 154.398438 111.5 Z M 160.804688 143.65625 "/>
<path style=" stroke:none;fill-rule:nonzero;fill:rgb(39.99939%,39.99939%,39.99939%);fill-opacity:0.3;" d="M 120.347656 124.1875 L 115.382812 124.824219 L 112.765625 112.535156 L 117.730469 111.898438 Z M 120.347656 124.1875 "/>
<path style=" stroke:none;fill-rule:nonzero;fill:rgb(39.99939%,39.99939%,39.99939%);fill-opacity:0.3;" d="M 128.84375 131.90625 L 123.882812 132.542969 L 118.179688 104.414062 L 123.140625 103.773438 Z M 128.84375 131.90625 "/>
<path style=" stroke:none;fill-rule:nonzero;fill:rgb(39.99939%,39.99939%,39.99939%);fill-opacity:0.3;" d="M 139.886719 133.058594 L 134.925781 133.695312 L 128.519531 101.539062 L 133.480469 100.902344 Z M 139.886719 133.058594 "/>
<path style=" stroke:none;fill-rule:nonzero;fill:rgb(39.99939%,39.99939%,39.99939%);fill-opacity:0.3;" d="M 146.835938 131.828125 L 141.871094 132.464844 L 136.171875 104.332031 L 141.132812 103.695312 Z M 146.835938 131.828125 "/>
<path style=" stroke:none;fill-rule:nonzero;fill:rgb(39.99939%,39.99939%,39.99939%);fill-opacity:0.3;" d="M 157.917969 177.613281 L 152.957031 178.25 L 147.253906 150.117188 L 152.214844 149.480469 Z M 157.917969 177.613281 "/>
<path style=" stroke:none;fill-rule:nonzero;fill:rgb(39.99939%,39.99939%,39.99939%);fill-opacity:0.3;" d="M 149.097656 169.769531 L 144.132812 170.410156 L 140.140625 151.019531 L 145.101562 150.382812 Z M 149.097656 169.769531 "/>
<path style=" stroke:none;fill-rule:nonzero;fill:rgb(39.99939%,39.99939%,39.99939%);fill-opacity:0.3;" d="M 133.855469 155.664062 L 128.894531 156.300781 L 124.898438 136.910156 L 129.863281 136.273438 Z M 133.855469 155.664062 "/>
<path style=" stroke:none;fill-rule:nonzero;fill:rgb(39.99939%,39.99939%,39.99939%);fill-opacity:0.3;" d="M 125.324219 148.949219 L 120.363281 149.589844 L 117.742188 137.300781 L 122.707031 136.660156 Z M 125.324219 148.949219 "/>
<path style=" stroke:none;fill-rule:nonzero;fill:rgb(39.99939%,39.99939%,39.99939%);fill-opacity:0.3;" d="M 276.15625 217.113281 L 271.195312 217.753906 L 266.339844 193.660156 L 271.300781 193.023438 Z M 276.15625 217.113281 "/>
<path style=" stroke:none;fill-rule:nonzero;fill:rgb(39.99939%,39.99939%,39.99939%);fill-opacity:0.3;" d="M 82.269531 219.804688 L 77.277344 220.210938 L 75.4375 208.589844 L 80.425781 208.179688 Z M 82.269531 219.804688 "/>
<path style=" stroke:none;fill-rule:nonzero;fill:rgb(39.99939%,39.99939%,39.99939%);fill-opacity:0.3;" d="M 90.886719 226.199219 L 85.898438 226.609375 L 83.695312 212.503906 L 88.683594 212.097656 Z M 90.886719 226.199219 "/>
<path style=" stroke:none;fill-rule:nonzero;fill:rgb(39.99939%,39.99939%,39.99939%);fill-opacity:0.3;" d="M 100.710938 224.371094 L 95.71875 224.78125 L 92.726562 205.226562 L 97.714844 204.820312 Z M 100.710938 224.371094 "/>
<path style=" stroke:none;fill-rule:nonzero;fill:rgb(39.99939%,39.99939%,39.99939%);fill-opacity:0.3;" d="M 70.085938 216.160156 L 65.097656 216.566406 L 62.894531 202.464844 L 67.882812 202.058594 Z M 70.085938 216.160156 "/>
<path style=" stroke:none;fill-rule:nonzero;fill:rgb(39.99939%,39.99939%,39.99939%);fill-opacity:0.3;" d="M 107.386719 220.253906 L 102.398438 220.660156 L 99.402344 201.109375 L 104.394531 200.703125 Z M 107.386719 220.253906 "/>
<path style=" stroke:none;fill-rule:nonzero;fill:rgb(39.99939%,39.99939%,39.99939%);fill-opacity:0.3;" d="M 77.8125 202.964844 L 72.824219 203.371094 L 70.980469 191.75 L 75.96875 191.34375 Z M 77.8125 202.964844 "/>
<path style=" stroke:none;fill-rule:nonzero;fill:rgb(39.99939%,39.99939%,39.99939%);fill-opacity:0.3;" d="M 83.957031 193.816406 L 78.964844 194.226562 L 76.761719 180.121094 L 81.75 179.714844 Z M 83.957031 193.816406 "/>
<path style=" stroke:none;fill-rule:nonzero;fill:rgb(39.99939%,39.99939%,39.99939%);fill-opacity:0.3;" d="M 100.59375 190.453125 L 95.605469 190.859375 L 92.613281 171.308594 L 97.601562 170.898438 Z M 100.59375 190.453125 "/>
<path style=" stroke:none;fill-rule:nonzero;fill:rgb(39.99939%,39.99939%,39.99939%);fill-opacity:0.3;" d="M 92.15625 186.925781 L 87.164062 187.335938 L 84.171875 167.78125 L 89.160156 167.375 Z M 92.15625 186.925781 "/>
<path style=" stroke:none;fill-rule:nonzero;fill:rgb(39.99939%,39.99939%,39.99939%);fill-opacity:0.3;" d="M 114.734375 147.359375 L 109.773438 147.996094 L 105.777344 128.605469 L 110.738281 127.96875 Z M 114.734375 147.359375 "/>
<path style=" stroke:none;fill-rule:nonzero;fill:rgb(39.99939%,39.99939%,39.99939%);fill-opacity:0.3;" d="M 106.46875 143.859375 L 101.507812 144.5 L 98.890625 132.210938 L 103.851562 131.570312 Z M 106.46875 143.859375 "/>
<path style=" stroke:none;fill-rule:nonzero;fill:rgb(39.99939%,39.99939%,39.99939%);fill-opacity:0.3;" d="M 294.566406 214.664062 L 289.601562 215.300781 L 286.984375 203.011719 L 291.945312 202.375 Z M 294.566406 214.664062 "/>
<path style=" stroke:none;fill-rule:nonzero;fill:rgb(39.99939%,39.99939%,39.99939%);fill-opacity:0.3;" d="M 286.667969 215.628906 L 281.707031 216.269531 L 277.320312 193.9375 L 282.28125 193.296875 Z M 286.667969 215.628906 "/>
<path style=" stroke:none;fill-rule:nonzero;fill:rgb(39.99939%,39.99939%,39.99939%);fill-opacity:0.3;" d="M 252.6875 303.839844 L 247.726562 304.476562 L 242.871094 280.386719 L 247.832031 279.746094 Z M 252.6875 303.839844 "/>
<path style=" stroke:none;fill-rule:nonzero;fill:rgb(39.99939%,39.99939%,39.99939%);fill-opacity:0.3;" d="M 261.3125 307.933594 L 256.347656 308.570312 L 249.945312 276.414062 L 254.90625 275.777344 Z M 261.3125 307.933594 "/>
<path style=" stroke:none;fill-rule:nonzero;fill:rgb(39.99939%,39.99939%,39.99939%);fill-opacity:0.3;" d="M 267.753906 294.738281 L 262.792969 295.375 L 257.9375 271.285156 L 262.898438 270.644531 Z M 267.753906 294.738281 "/>
<path style=" stroke:none;fill-rule:nonzero;fill:rgb(39.99939%,39.99939%,39.99939%);fill-opacity:0.3;" d="M 274.234375 289.113281 L 269.535156 289.9375 L 264.679688 265.847656 L 269.644531 265.207031 Z M 274.234375 289.113281 "/>
<path style=" stroke:none;fill-rule:nonzero;fill:rgb(39.99939%,39.99939%,39.99939%);fill-opacity:0.3;" d="M 126.777344 250.996094 L 122.835938 258.3125 L 51.429688 222.824219 L 54.886719 215.847656 Z M 126.777344 250.996094 "/>
<path style="fill-rule:nonzero;fill:rgb(39.99939%,39.99939%,39.99939%);fill-opacity:1;stroke-width:0.03;stroke-linecap:square;stroke-linejoin:miter;stroke:rgb(39.99939%,39.99939%,39.99939%);stroke-opacity:1;stroke-miterlimit:3.239307;" d="M 313.550781 311.417969 L 308.589844 312.054688 L 303.734375 287.964844 L 308.695312 287.324219 Z M 313.550781 311.417969 " transform="matrix(1,0,0,1,-74,-13)"/>
<path style="fill-rule:nonzero;fill:rgb(39.99939%,39.99939%,39.99939%);fill-opacity:1;stroke-width:0.03;stroke-linecap:square;stroke-linejoin:miter;stroke:rgb(39.99939%,39.99939%,39.99939%);stroke-opacity:1;stroke-miterlimit:3.239307;" d="M 305.09375 308.203125 L 300.128906 308.84375 L 295.273438 284.75 L 300.238281 284.113281 Z M 305.09375 308.203125 " transform="matrix(1,0,0,1,-74,-13)"/>
<path style="fill-rule:nonzero;fill:rgb(39.99939%,39.99939%,39.99939%);fill-opacity:1;stroke-width:0.03;stroke-linecap:square;stroke-linejoin:miter;stroke:rgb(39.99939%,39.99939%,39.99939%);stroke-opacity:1;stroke-miterlimit:3.239307;" d="M 264.605469 288.8125 L 259.644531 289.449219 L 257.027344 277.160156 L 261.988281 276.523438 Z M 264.605469 288.8125 " transform="matrix(1,0,0,1,-74,-13)"/>
<path style="fill-rule:nonzero;fill:rgb(39.99939%,39.99939%,39.99939%);fill-opacity:1;stroke-width:0.03;stroke-linecap:square;stroke-linejoin:miter;stroke:rgb(39.99939%,39.99939%,39.99939%);stroke-opacity:1;stroke-miterlimit:3.239307;" d="M 272.738281 293.738281 L 267.777344 294.378906 L 264.46875 277.511719 L 269.433594 276.875 Z M 272.738281 293.738281 " transform="matrix(1,0,0,1,-74,-13)"/>
<path style="fill-rule:nonzero;fill:rgb(39.99939%,39.99939%,39.99939%);fill-opacity:1;stroke-width:0.03;stroke-linecap:square;stroke-linejoin:miter;stroke:rgb(39.99939%,39.99939%,39.99939%);stroke-opacity:1;stroke-miterlimit:3.239307;" d="M 284.476562 294.515625 L 279.515625 295.152344 L 276.898438 282.863281 L 281.859375 282.226562 Z M 284.476562 294.515625 " transform="matrix(1,0,0,1,-74,-13)"/>
<path style="fill-rule:nonzero;fill:rgb(39.99939%,39.99939%,39.99939%);fill-opacity:1;stroke-width:0.03;stroke-linecap:square;stroke-linejoin:miter;stroke:rgb(39.99939%,39.99939%,39.99939%);stroke-opacity:1;stroke-miterlimit:3.239307;" d="M 293.5625 302.425781 L 288.597656 303.0625 L 285.292969 286.199219 L 290.257812 285.5625 Z M 293.5625 302.425781 " transform="matrix(1,0,0,1,-74,-13)"/>
<path style="fill-rule:nonzero;fill:rgb(39.99939%,39.99939%,39.99939%);fill-opacity:1;stroke-width:0.03;stroke-linecap:square;stroke-linejoin:miter;stroke:rgb(39.99939%,39.99939%,39.99939%);stroke-opacity:1;stroke-miterlimit:3.239307;" d="M 243.042969 274.367188 L 238.082031 275.003906 L 234.257812 257.09375 L 239.21875 256.457031 Z M 243.042969 274.367188 " transform="matrix(1,0,0,1,-74,-13)"/>
<path style="fill-rule:nonzero;fill:rgb(39.99939%,39.99939%,39.99939%);fill-opacity:1;stroke-width:0.03;stroke-linecap:square;stroke-linejoin:miter;stroke:rgb(39.99939%,39.99939%,39.99939%);stroke-opacity:1;stroke-miterlimit:3.239307;" d="M 251.738281 281.160156 L 246.777344 281.800781 L 241.496094 255.496094 L 246.457031 254.859375 Z M 251.738281 281.160156 " transform="matrix(1,0,0,1,-74,-13)"/>
<path style="fill-rule:nonzero;fill:rgb(39.99939%,39.99939%,39.99939%);fill-opacity:1;stroke-width:0.03;stroke-linecap:square;stroke-linejoin:miter;stroke:rgb(39.99939%,39.99939%,39.99939%);stroke-opacity:1;stroke-miterlimit:3.239307;" d="M 258.679688 264.957031 L 253.71875 265.59375 L 251.097656 253.304688 L 256.0625 252.667969 Z M 258.679688 264.957031 " transform="matrix(1,0,0,1,-74,-13)"/>
<path style="fill-rule:nonzero;fill:rgb(39.99939%,39.99939%,39.99939%);fill-opacity:1;stroke-width:0.03;stroke-linecap:square;stroke-linejoin:miter;stroke:rgb(39.99939%,39.99939%,39.99939%);stroke-opacity:1;stroke-miterlimit:3.239307;" d="M 265.636719 263.578125 L 260.675781 264.214844 L 258.054688 251.925781 L 263.019531 251.289062 Z M 265.636719 263.578125 " transform="matrix(1,0,0,1,-74,-13)"/>
<path style="fill-rule:nonzero;fill:rgb(39.99939%,39.99939%,39.99939%);fill-opacity:1;stroke-width:0.03;stroke-linecap:square;stroke-linejoin:miter;stroke:rgb(39.99939%,39.99939%,39.99939%);stroke-opacity:1;stroke-miterlimit:3.239307;" d="M 276.53125 261.269531 L 271.570312 261.90625 L 268.953125 249.617188 L 273.914062 248.980469 Z M 276.53125 261.269531 " transform="matrix(1,0,0,1,-74,-13)"/>
<path style="fill-rule:nonzero;fill:rgb(39.99939%,39.99939%,39.99939%);fill-opacity:1;stroke-width:0.03;stroke-linecap:square;stroke-linejoin:miter;stroke:rgb(39.99939%,39.99939%,39.99939%);stroke-opacity:1;stroke-miterlimit:3.239307;" d="M 283.4375 259.84375 L 278.472656 260.480469 L 275.855469 248.191406 L 280.820312 247.554688 Z M 283.4375 259.84375 " transform="matrix(1,0,0,1,-74,-13)"/>
<path style="fill-rule:nonzero;fill:rgb(39.99939%,39.99939%,39.99939%);fill-opacity:1;stroke-width:0.03;stroke-linecap:square;stroke-linejoin:miter;stroke:rgb(39.99939%,39.99939%,39.99939%);stroke-opacity:1;stroke-miterlimit:3.239307;" d="M 296.882812 277.671875 L 291.921875 278.308594 L 285.515625 246.152344 L 290.480469 245.515625 Z M 296.882812 277.671875 " transform="matrix(1,0,0,1,-74,-13)"/>
<path style="fill-rule:nonzero;fill:rgb(39.99939%,39.99939%,39.99939%);fill-opacity:1;stroke-width:0.03;stroke-linecap:square;stroke-linejoin:miter;stroke:rgb(39.99939%,39.99939%,39.99939%);stroke-opacity:1;stroke-miterlimit:3.239307;" d="M 304.628906 275.914062 L 299.664062 276.550781 L 293.261719 244.394531 L 298.222656 243.757812 Z M 304.628906 275.914062 " transform="matrix(1,0,0,1,-74,-13)"/>
<path style="fill-rule:nonzero;fill:rgb(39.99939%,39.99939%,39.99939%);fill-opacity:1;stroke-width:0.03;stroke-linecap:square;stroke-linejoin:miter;stroke:rgb(39.99939%,39.99939%,39.99939%);stroke-opacity:1;stroke-miterlimit:3.239307;" d="M 222.105469 270.953125 L 217.144531 271.589844 L 215.027344 261.207031 L 219.992188 260.566406 Z M 222.105469 270.953125 " transform="matrix(1,0,0,1,-74,-13)"/>
<path style="fill-rule:nonzero;fill:rgb(39.99939%,39.99939%,39.99939%);fill-opacity:1;stroke-width:0.03;stroke-linecap:square;stroke-linejoin:miter;stroke:rgb(39.99939%,39.99939%,39.99939%);stroke-opacity:1;stroke-miterlimit:3.239307;" d="M 231.359375 271.039062 L 226.394531 271.675781 L 223.777344 259.386719 L 228.742188 258.75 Z M 231.359375 271.039062 " transform="matrix(1,0,0,1,-74,-13)"/>
<path style="fill-rule:nonzero;fill:rgb(39.99939%,39.99939%,39.99939%);fill-opacity:1;stroke-width:0.03;stroke-linecap:square;stroke-linejoin:miter;stroke:rgb(39.99939%,39.99939%,39.99939%);stroke-opacity:1;stroke-miterlimit:3.239307;" d="M 354.714844 283.316406 L 349.753906 283.953125 L 342.386719 246.140625 L 347.347656 245.5 Z M 354.714844 283.316406 " transform="matrix(1,0,0,1,-74,-13)"/>
<path style="fill-rule:nonzero;fill:rgb(39.99939%,39.99939%,39.99939%);fill-opacity:1;stroke-width:0.03;stroke-linecap:square;stroke-linejoin:miter;stroke:rgb(39.99939%,39.99939%,39.99939%);stroke-opacity:1;stroke-miterlimit:3.239307;" d="M 361.308594 274.972656 L 356.34375 275.613281 L 349.941406 243.457031 L 354.902344 242.820312 Z M 361.308594 274.972656 " transform="matrix(1,0,0,1,-74,-13)"/>
<path style="fill-rule:nonzero;fill:rgb(39.99939%,39.99939%,39.99939%);fill-opacity:1;stroke-width:0.03;stroke-linecap:square;stroke-linejoin:miter;stroke:rgb(39.99939%,39.99939%,39.99939%);stroke-opacity:1;stroke-miterlimit:3.239307;" d="M 367.664062 259.011719 L 362.703125 259.652344 L 357.847656 235.558594 L 362.808594 234.921875 Z M 367.664062 259.011719 " transform="matrix(1,0,0,1,-74,-13)"/>
<path style="fill-rule:nonzero;fill:rgb(39.99939%,39.99939%,39.99939%);fill-opacity:1;stroke-width:0.03;stroke-linecap:square;stroke-linejoin:miter;stroke:rgb(39.99939%,39.99939%,39.99939%);stroke-opacity:1;stroke-miterlimit:3.239307;" d="M 373.699219 252.023438 L 368.738281 252.660156 L 365.433594 235.796875 L 370.394531 235.160156 Z M 373.699219 252.023438 " transform="matrix(1,0,0,1,-74,-13)"/>
<path style="fill-rule:nonzero;fill:rgb(39.99939%,39.99939%,39.99939%);fill-opacity:1;stroke-width:0.03;stroke-linecap:square;stroke-linejoin:miter;stroke:rgb(39.99939%,39.99939%,39.99939%);stroke-opacity:1;stroke-miterlimit:3.239307;" d="M 382.570312 242.738281 L 377.609375 243.375 L 373.511719 221.941406 L 378.472656 221.304688 Z M 382.570312 242.738281 " transform="matrix(1,0,0,1,-74,-13)"/>
<path style="fill-rule:nonzero;fill:rgb(39.99939%,39.99939%,39.99939%);fill-opacity:1;stroke-width:0.03;stroke-linecap:square;stroke-linejoin:miter;stroke:rgb(39.99939%,39.99939%,39.99939%);stroke-opacity:1;stroke-miterlimit:3.239307;" d="M 342.382812 231.5625 L 337.421875 232.203125 L 331.015625 200.046875 L 335.976562 199.40625 Z M 342.382812 231.5625 " transform="matrix(1,0,0,1,-74,-13)"/>
<path style="fill-rule:nonzero;fill:rgb(39.99939%,39.99939%,39.99939%);fill-opacity:1;stroke-width:0.03;stroke-linecap:square;stroke-linejoin:miter;stroke:rgb(39.99939%,39.99939%,39.99939%);stroke-opacity:1;stroke-miterlimit:3.239307;" d="M 329.464844 219.753906 L 324.503906 220.390625 L 318.097656 188.234375 L 323.0625 187.597656 Z M 329.464844 219.753906 " transform="matrix(1,0,0,1,-74,-13)"/>
<path style="fill-rule:nonzero;fill:rgb(39.99939%,39.99939%,39.99939%);fill-opacity:1;stroke-width:0.03;stroke-linecap:square;stroke-linejoin:miter;stroke:rgb(39.99939%,39.99939%,39.99939%);stroke-opacity:1;stroke-miterlimit:3.239307;" d="M 321.386719 216.578125 L 316.425781 217.21875 L 310.019531 185.0625 L 314.980469 184.421875 Z M 321.386719 216.578125 " transform="matrix(1,0,0,1,-74,-13)"/>
<path style="fill-rule:nonzero;fill:rgb(39.99939%,39.99939%,39.99939%);fill-opacity:1;stroke-width:0.03;stroke-linecap:square;stroke-linejoin:miter;stroke:rgb(39.99939%,39.99939%,39.99939%);stroke-opacity:1;stroke-miterlimit:3.239307;" d="M 299.207031 202.617188 L 294.242188 203.253906 L 288.910156 176.429688 L 293.871094 175.789062 Z M 299.207031 202.617188 " transform="matrix(1,0,0,1,-74,-13)"/>
<path style="fill-rule:nonzero;fill:rgb(39.99939%,39.99939%,39.99939%);fill-opacity:1;stroke-width:0.03;stroke-linecap:square;stroke-linejoin:miter;stroke:rgb(39.99939%,39.99939%,39.99939%);stroke-opacity:1;stroke-miterlimit:3.239307;" d="M 308.378906 207.605469 L 303.417969 208.246094 L 297.011719 176.089844 L 301.976562 175.449219 Z M 308.378906 207.605469 " transform="matrix(1,0,0,1,-74,-13)"/>
<path style="fill-rule:nonzero;fill:rgb(39.99939%,39.99939%,39.99939%);fill-opacity:1;stroke-width:0.03;stroke-linecap:square;stroke-linejoin:miter;stroke:rgb(39.99939%,39.99939%,39.99939%);stroke-opacity:1;stroke-miterlimit:3.239307;" d="M 241.75 155.425781 L 236.789062 156.0625 L 231.085938 127.933594 L 236.050781 127.292969 Z M 241.75 155.425781 " transform="matrix(1,0,0,1,-74,-13)"/>
<path style="fill-rule:nonzero;fill:rgb(39.99939%,39.99939%,39.99939%);fill-opacity:1;stroke-width:0.03;stroke-linecap:square;stroke-linejoin:miter;stroke:rgb(39.99939%,39.99939%,39.99939%);stroke-opacity:1;stroke-miterlimit:3.239307;" d="M 251.175781 191.953125 L 246.210938 192.59375 L 239.808594 160.4375 L 244.769531 159.796875 Z M 251.175781 191.953125 " transform="matrix(1,0,0,1,-74,-13)"/>
<path style="fill-rule:nonzero;fill:rgb(39.99939%,39.99939%,39.99939%);fill-opacity:1;stroke-width:0.03;stroke-linecap:square;stroke-linejoin:miter;stroke:rgb(39.99939%,39.99939%,39.99939%);stroke-opacity:1;stroke-miterlimit:3.239307;" d="M 243.316406 193.304688 L 238.355469 193.945312 L 232.652344 165.8125 L 237.613281 165.175781 Z M 243.316406 193.304688 " transform="matrix(1,0,0,1,-74,-13)"/>
<path style="fill-rule:nonzero;fill:rgb(39.99939%,39.99939%,39.99939%);fill-opacity:1;stroke-width:0.03;stroke-linecap:square;stroke-linejoin:miter;stroke:rgb(39.99939%,39.99939%,39.99939%);stroke-opacity:1;stroke-miterlimit:3.239307;" d="M 234.804688 156.65625 L 229.839844 157.292969 L 223.4375 125.140625 L 228.398438 124.5 Z M 234.804688 156.65625 " transform="matrix(1,0,0,1,-74,-13)"/>
<path style="fill-rule:nonzero;fill:rgb(39.99939%,39.99939%,39.99939%);fill-opacity:1;stroke-width:0.03;stroke-linecap:square;stroke-linejoin:miter;stroke:rgb(39.99939%,39.99939%,39.99939%);stroke-opacity:1;stroke-miterlimit:3.239307;" d="M 194.347656 137.1875 L 189.382812 137.824219 L 186.765625 125.535156 L 191.730469 124.898438 Z M 194.347656 137.1875 " transform="matrix(1,0,0,1,-74,-13)"/>
<path style="fill-rule:nonzero;fill:rgb(39.99939%,39.99939%,39.99939%);fill-opacity:1;stroke-width:0.03;stroke-linecap:square;stroke-linejoin:miter;stroke:rgb(39.99939%,39.99939%,39.99939%);stroke-opacity:1;stroke-miterlimit:3.239307;" d="M 202.84375 144.90625 L 197.882812 145.542969 L 192.179688 117.414062 L 197.140625 116.773438 Z M 202.84375 144.90625 " transform="matrix(1,0,0,1,-74,-13)"/>
<path style="fill-rule:nonzero;fill:rgb(39.99939%,39.99939%,39.99939%);fill-opacity:1;stroke-width:0.03;stroke-linecap:square;stroke-linejoin:miter;stroke:rgb(39.99939%,39.99939%,39.99939%);stroke-opacity:1;stroke-miterlimit:3.239307;" d="M 213.886719 146.058594 L 208.925781 146.695312 L 202.519531 114.539062 L 207.480469 113.902344 Z M 213.886719 146.058594 " transform="matrix(1,0,0,1,-74,-13)"/>
<path style="fill-rule:nonzero;fill:rgb(39.99939%,39.99939%,39.99939%);fill-opacity:1;stroke-width:0.03;stroke-linecap:square;stroke-linejoin:miter;stroke:rgb(39.99939%,39.99939%,39.99939%);stroke-opacity:1;stroke-miterlimit:3.239307;" d="M 220.835938 144.828125 L 215.871094 145.464844 L 210.171875 117.332031 L 215.132812 116.695312 Z M 220.835938 144.828125 " transform="matrix(1,0,0,1,-74,-13)"/>
<path style="fill-rule:nonzero;fill:rgb(39.99939%,39.99939%,39.99939%);fill-opacity:1;stroke-width:0.03;stroke-linecap:square;stroke-linejoin:miter;stroke:rgb(39.99939%,39.99939%,39.99939%);stroke-opacity:1;stroke-miterlimit:3.239307;" d="M 231.917969 190.613281 L 226.957031 191.25 L 221.253906 163.117188 L 226.214844 162.480469 Z M 231.917969 190.613281 " transform="matrix(1,0,0,1,-74,-13)"/>
<path style="fill-rule:nonzero;fill:rgb(39.99939%,39.99939%,39.99939%);fill-opacity:1;stroke-width:0.03;stroke-linecap:square;stroke-linejoin:miter;stroke:rgb(39.99939%,39.99939%,39.99939%);stroke-opacity:1;stroke-miterlimit:3.239307;" d="M 223.097656 182.769531 L 218.132812 183.410156 L 214.140625 164.019531 L 219.101562 163.382812 Z M 223.097656 182.769531 " transform="matrix(1,0,0,1,-74,-13)"/>
<path style="fill-rule:nonzero;fill:rgb(39.99939%,39.99939%,39.99939%);fill-opacity:1;stroke-width:0.03;stroke-linecap:square;stroke-linejoin:miter;stroke:rgb(39.99939%,39.99939%,39.99939%);stroke-opacity:1;stroke-miterlimit:3.239307;" d="M 207.855469 168.664062 L 202.894531 169.300781 L 198.898438 149.910156 L 203.863281 149.273438 Z M 207.855469 168.664062 " transform="matrix(1,0,0,1,-74,-13)"/>
<path style="fill-rule:nonzero;fill:rgb(39.99939%,39.99939%,39.99939%);fill-opacity:1;stroke-width:0.03;stroke-linecap:square;stroke-linejoin:miter;stroke:rgb(39.99939%,39.99939%,39.99939%);stroke-opacity:1;stroke-miterlimit:3.239307;" d="M 199.324219 161.949219 L 194.363281 162.589844 L 191.742188 150.300781 L 196.707031 149.660156 Z M 199.324219 161.949219 " transform="matrix(1,0,0,1,-74,-13)"/>
<path style="fill-rule:nonzero;fill:rgb(39.99939%,39.99939%,39.99939%);fill-opacity:1;stroke-width:0.03;stroke-linecap:square;stroke-linejoin:miter;stroke:rgb(39.99939%,39.99939%,39.99939%);stroke-opacity:1;stroke-miterlimit:3.239307;" d="M 350.15625 230.113281 L 345.195312 230.753906 L 340.339844 206.660156 L 345.300781 206.023438 Z M 350.15625 230.113281 " transform="matrix(1,0,0,1,-74,-13)"/>
<path style="fill-rule:nonzero;fill:rgb(39.99939%,39.99939%,39.99939%);fill-opacity:1;stroke-width:0.03;stroke-linecap:square;stroke-linejoin:miter;stroke:rgb(39.99939%,39.99939%,39.99939%);stroke-opacity:1;stroke-miterlimit:3.239307;" d="M 156.269531 232.804688 L 151.277344 233.210938 L 149.4375 221.589844 L 154.425781 221.179688 Z M 156.269531 232.804688 " transform="matrix(1,0,0,1,-74,-13)"/>
<path style="fill-rule:nonzero;fill:rgb(39.99939%,39.99939%,39.99939%);fill-opacity:1;stroke-width:0.03;stroke-linecap:square;stroke-linejoin:miter;stroke:rgb(39.99939%,39.99939%,39.99939%);stroke-opacity:1;stroke-miterlimit:3.239307;" d="M 164.886719 239.199219 L 159.898438 239.609375 L 157.695312 225.503906 L 162.683594 225.097656 Z M 164.886719 239.199219 " transform="matrix(1,0,0,1,-74,-13)"/>
<path style="fill-rule:nonzero;fill:rgb(39.99939%,39.99939%,39.99939%);fill-opacity:1;stroke-width:0.03;stroke-linecap:square;stroke-linejoin:miter;stroke:rgb(39.99939%,39.99939%,39.99939%);stroke-opacity:1;stroke-miterlimit:3.239307;" d="M 174.710938 237.371094 L 169.71875 237.78125 L 166.726562 218.226562 L 171.714844 217.820312 Z M 174.710938 237.371094 " transform="matrix(1,0,0,1,-74,-13)"/>
<path style="fill-rule:nonzero;fill:rgb(39.99939%,39.99939%,39.99939%);fill-opacity:1;stroke-width:0.03;stroke-linecap:square;stroke-linejoin:miter;stroke:rgb(39.99939%,39.99939%,39.99939%);stroke-opacity:1;stroke-miterlimit:3.239307;" d="M 144.085938 229.160156 L 139.097656 229.566406 L 136.894531 215.464844 L 141.882812 215.058594 Z M 144.085938 229.160156 " transform="matrix(1,0,0,1,-74,-13)"/>
<path style="fill-rule:nonzero;fill:rgb(39.99939%,39.99939%,39.99939%);fill-opacity:1;stroke-width:0.03;stroke-linecap:square;stroke-linejoin:miter;stroke:rgb(39.99939%,39.99939%,39.99939%);stroke-opacity:1;stroke-miterlimit:3.239307;" d="M 181.386719 233.253906 L 176.398438 233.660156 L 173.402344 214.109375 L 178.394531 213.703125 Z M 181.386719 233.253906 " transform="matrix(1,0,0,1,-74,-13)"/>
<path style="fill-rule:nonzero;fill:rgb(39.99939%,39.99939%,39.99939%);fill-opacity:1;stroke-width:0.03;stroke-linecap:square;stroke-linejoin:miter;stroke:rgb(39.99939%,39.99939%,39.99939%);stroke-opacity:1;stroke-miterlimit:3.239307;" d="M 151.8125 215.964844 L 146.824219 216.371094 L 144.980469 204.75 L 149.96875 204.34375 Z M 151.8125 215.964844 " transform="matrix(1,0,0,1,-74,-13)"/>
<path style="fill-rule:nonzero;fill:rgb(39.99939%,39.99939%,39.99939%);fill-opacity:1;stroke-width:0.03;stroke-linecap:square;stroke-linejoin:miter;stroke:rgb(39.99939%,39.99939%,39.99939%);stroke-opacity:1;stroke-miterlimit:3.239307;" d="M 157.957031 206.816406 L 152.964844 207.226562 L 150.761719 193.121094 L 155.75 192.714844 Z M 157.957031 206.816406 " transform="matrix(1,0,0,1,-74,-13)"/>
<path style="fill-rule:nonzero;fill:rgb(39.99939%,39.99939%,39.99939%);fill-opacity:1;stroke-width:0.03;stroke-linecap:square;stroke-linejoin:miter;stroke:rgb(39.99939%,39.99939%,39.99939%);stroke-opacity:1;stroke-miterlimit:3.239307;" d="M 174.59375 203.453125 L 169.605469 203.859375 L 166.613281 184.308594 L 171.601562 183.898438 Z M 174.59375 203.453125 " transform="matrix(1,0,0,1,-74,-13)"/>
<path style="fill-rule:nonzero;fill:rgb(39.99939%,39.99939%,39.99939%);fill-opacity:1;stroke-width:0.03;stroke-linecap:square;stroke-linejoin:miter;stroke:rgb(39.99939%,39.99939%,39.99939%);stroke-opacity:1;stroke-miterlimit:3.239307;" d="M 166.15625 199.925781 L 161.164062 200.335938 L 158.171875 180.78125 L 163.160156 180.375 Z M 166.15625 199.925781 " transform="matrix(1,0,0,1,-74,-13)"/>
<path style="fill-rule:nonzero;fill:rgb(39.99939%,39.99939%,39.99939%);fill-opacity:1;stroke-width:0.03;stroke-linecap:square;stroke-linejoin:miter;stroke:rgb(39.99939%,39.99939%,39.99939%);stroke-opacity:1;stroke-miterlimit:3.239307;" d="M 188.734375 160.359375 L 183.773438 160.996094 L 179.777344 141.605469 L 184.738281 140.96875 Z M 188.734375 160.359375 " transform="matrix(1,0,0,1,-74,-13)"/>
<path style="fill-rule:nonzero;fill:rgb(39.99939%,39.99939%,39.99939%);fill-opacity:1;stroke-width:0.03;stroke-linecap:square;stroke-linejoin:miter;stroke:rgb(39.99939%,39.99939%,39.99939%);stroke-opacity:1;stroke-miterlimit:3.239307;" d="M 180.46875 156.859375 L 175.507812 157.5 L 172.890625 145.210938 L 177.851562 144.570312 Z M 180.46875 156.859375 " transform="matrix(1,0,0,1,-74,-13)"/>
<path style="fill-rule:nonzero;fill:rgb(39.99939%,39.99939%,39.99939%);fill-opacity:1;stroke-width:0.03;stroke-linecap:square;stroke-linejoin:miter;stroke:rgb(39.99939%,39.99939%,39.99939%);stroke-opacity:1;stroke-miterlimit:3.239307;" d="M 368.566406 227.664062 L 363.601562 228.300781 L 360.984375 216.011719 L 365.945312 215.375 Z M 368.566406 227.664062 " transform="matrix(1,0,0,1,-74,-13)"/>
<path style="fill-rule:nonzero;fill:rgb(39.99939%,39.99939%,39.99939%);fill-opacity:1;stroke-width:0.03;stroke-linecap:square;stroke-linejoin:miter;stroke:rgb(39.99939%,39.99939%,39.99939%);stroke-opacity:1;stroke-miterlimit:3.239307;" d="M 360.667969 228.628906 L 355.707031 229.269531 L 351.320312 206.9375 L 356.28125 206.296875 Z M 360.667969 228.628906 " transform="matrix(1,0,0,1,-74,-13)"/>
<path style="fill-rule:nonzero;fill:rgb(39.99939%,39.99939%,39.99939%);fill-opacity:1;stroke-width:0.03;stroke-linecap:square;stroke-linejoin:miter;stroke:rgb(39.99939%,39.99939%,39.99939%);stroke-opacity:1;stroke-miterlimit:3.239307;" d="M 326.6875 316.839844 L 321.726562 317.476562 L 316.871094 293.386719 L 321.832031 292.746094 Z M 326.6875 316.839844 " transform="matrix(1,0,0,1,-74,-13)"/>
<path style="fill-rule:nonzero;fill:rgb(39.99939%,39.99939%,39.99939%);fill-opacity:1;stroke-width:0.03;stroke-linecap:square;stroke-linejoin:miter;stroke:rgb(39.99939%,39.99939%,39.99939%);stroke-opacity:1;stroke-miterlimit:3.239307;" d="M 335.3125 320.933594 L 330.347656 321.570312 L 323.945312 289.414062 L 328.90625 288.777344 Z M 335.3125 320.933594 " transform="matrix(1,0,0,1,-74,-13)"/>
<path style="fill-rule:nonzero;fill:rgb(39.99939%,39.99939%,39.99939%);fill-opacity:1;stroke-width:0.03;stroke-linecap:square;stroke-linejoin:miter;stroke:rgb(39.99939%,39.99939%,39.99939%);stroke-opacity:1;stroke-miterlimit:3.239307;" d="M 341.753906 307.738281 L 336.792969 308.375 L 331.9375 284.285156 L 336.898438 283.644531 Z M 341.753906 307.738281 " transform="matrix(1,0,0,1,-74,-13)"/>
<path style="fill-rule:nonzero;fill:rgb(39.99939%,39.99939%,39.99939%);fill-opacity:1;stroke-width:0.03;stroke-linecap:square;stroke-linejoin:miter;stroke:rgb(39.99939%,39.99939%,39.99939%);stroke-opacity:1;stroke-miterlimit:3.239307;" d="M 348.234375 302.113281 L 343.535156 302.9375 L 338.679688 278.847656 L 343.644531 278.207031 Z M 348.234375 302.113281 " transform="matrix(1,0,0,1,-74,-13)"/>
<path style="fill-rule:nonzero;fill:rgb(39.99939%,39.99939%,39.99939%);fill-opacity:1;stroke-width:0.03;stroke-linecap:square;stroke-linejoin:miter;stroke:rgb(39.99939%,39.99939%,39.99939%);stroke-opacity:1;stroke-miterlimit:3.239307;" d="M 200.777344 263.996094 L 196.835938 271.3125 L 125.429688 235.824219 L 128.886719 228.847656 Z M 200.777344 263.996094 " transform="matrix(1,0,0,1,-74,-13)"/>
</g>
</svg>
