<?xml version="1.0" encoding="UTF-8"?>
<svg xmlns="http://www.w3.org/2000/svg" xmlns:xlink="http://www.w3.org/1999/xlink" width="361pt" height="361pt" viewBox="0 0 361 361" version="1.1">
<g id="surface1330">
<path style="fill-rule:nonzero;fill:rgb(0%,0%,0%);fill-opacity:1;stroke-width:0.03;stroke-linecap:square;stroke-linejoin:miter;stroke:rgb(0%,0%,0%);stroke-opacity:1;stroke-miterlimit:10;" d="M 0 178 L 360 178 L 360 -182 L 0 -182 Z M 0 178 " transform="matrix(1,0,0,1,0,182)"/>
<path style=" stroke:none;fill-rule:nonzero;fill:rgb(39.99939%,39.99939%,39.99939%);fill-opacity:0.3;" d="M 138.417969 218.617188 L 148.683594 220.296875 L 141.8125 253.519531 L 131.550781 251.839844 Z M 138.417969 218.617188 "/>
<path style=" stroke:none;fill-rule:nonzero;fill:rgb(39.99939%,39.99939%,39.99939%);fill-opacity:0.3;" d="M 127.9375 219.476562 L 126.386719 228.363281 L 111.660156 226.265625 L 112.984375 216.957031 Z M 127.9375 219.476562 "/>
<path style=" stroke:none;fill-rule:nonzero;fill:rgb(39.99939%,39.99939%,39.99939%);fill-opacity:0.3;" d="M 98.476562 209.570312 L 107.847656 210.40625 L 103.433594 244.046875 L 93.839844 243 Z M 98.476562 209.570312 "/>
<path style=" stroke:none;fill-rule:nonzero;fill:rgb(39.99939%,39.99939%,39.99939%);fill-opacity:0.3;" d="M 142.019531 165.28125 L 155.109375 168.382812 L 143.246094 209.636719 L 130.933594 206.5 Z M 142.019531 165.28125 "/>
<path style=" stroke:none;fill-rule:nonzero;fill:rgb(39.99939%,39.99939%,39.99939%);fill-opacity:0.3;" d="M 166.503906 180.425781 L 178.105469 183.164062 L 168.996094 210.042969 L 156.945312 206.460938 Z M 166.503906 180.425781 "/>
<path style=" stroke:none;fill-rule:nonzero;fill:rgb(39.99939%,39.99939%,39.99939%);fill-opacity:0.3;" d="M 124.332031 160.195312 L 135.195312 162.414062 L 122.59375 205.867188 L 110.191406 203.121094 Z M 124.332031 160.195312 "/>
<path style=" stroke:none;fill-rule:nonzero;fill:rgb(39.99939%,39.99939%,39.99939%);fill-opacity:0.3;" d="M 265.664062 141.253906 L 276.152344 141.863281 L 273.375 173.6875 L 262.535156 172.789062 Z M 265.664062 141.253906 "/>
<path style=" stroke:none;fill-rule:nonzero;fill:rgb(39.99939%,39.99939%,39.99939%);fill-opacity:0.3;" d="M 227.675781 141.550781 L 239.132812 141.160156 L 237.949219 163.921875 L 226.628906 163.707031 Z M 227.675781 141.550781 "/>
<path style=" stroke:none;fill-rule:nonzero;fill:rgb(39.99939%,39.99939%,39.99939%);fill-opacity:0.3;" d="M 236.730469 183.082031 L 247.59375 185.296875 L 240.589844 216.226562 L 229.726562 214.011719 Z M 236.730469 183.082031 "/>
<path style=" stroke:none;fill-rule:nonzero;fill:rgb(39.99939%,39.99939%,39.99939%);fill-opacity:0.3;" d="M 211.484375 194.117188 L 221.363281 196.847656 L 213.746094 226.835938 L 202.882812 224.621094 Z M 211.484375 194.117188 "/>
<path style=" stroke:none;fill-rule:nonzero;fill:rgb(39.99939%,39.99939%,39.99939%);fill-opacity:0.3;" d="M 186.375 147.070312 L 209.980469 145.898438 L 208.554688 163.429688 L 202.488281 163.707031 L 187.851562 225.4375 L 171.410156 220.839844 L 192.101562 164.261719 L 185.8125 164.570312 Z M 186.375 147.070312 "/>
<path style=" stroke:none;fill-rule:nonzero;fill:rgb(39.99939%,39.99939%,39.99939%);fill-opacity:0.3;" d="M 279.128906 128.378906 L 298.640625 124.863281 L 308.570312 229.851562 L 307.695312 270.855469 L 114.492188 304.273438 L 108.664062 304.667969 L 108.132812 302.535156 L 107.378906 299.511719 L 67.910156 307.449219 L 51.429688 308.570312 L 62.820312 284.011719 L 82.8125 240.898438 L 98.652344 206.738281 L 121.867188 159.171875 L 200.671875 142.515625 Z M 279.128906 128.378906 "/>
<path style="fill-rule:nonzero;fill:rgb(39.99939%,39.99939%,39.99939%);fill-opacity:1;stroke-width:0.03;stroke-linecap:square;stroke-linejoin:miter;stroke:rgb(39.99939%,39.99939%,39.99939%);stroke-opacity:1;stroke-miterlimit:3.239307;" d="M 212.417969 231.617188 L 222.683594 233.296875 L 215.8125 266.519531 L 205.550781 264.839844 Z M 212.417969 231.617188 " transform="matrix(1,0,0,1,-74,-13)"/>
<path style="fill-rule:nonzero;fill:rgb(39.99939%,39.99939%,39.99939%);fill-opacity:1;stroke-width:0.03;stroke-linecap:square;stroke-linejoin:miter;stroke:rgb(39.99939%,39.99939%,39.99939%);stroke-opacity:1;stroke-miterlimit:3.239307;" d="M 201.9375 232.476562 L 200.386719 241.363281 L 185.660156 239.265625 L 186.984375 229.957031 Z M 201.9375 232.476562 " transform="matrix(1,0,0,1,-74,-13)"/>
<path style="fill-rule:nonzero;fill:rgb(39.99939%,39.99939%,39.99939%);fill-opacity:1;stroke-width:0.03;stroke-linecap:square;stroke-linejoin:miter;stroke:rgb(39.99939%,39.99939%,39.99939%);stroke-opacity:1;stroke-miterlimit:3.239307;" d="M 172.476562 222.570312 L 181.847656 223.40625 L 177.433594 257.046875 L 167.839844 256 Z M 172.476562 222.570312 " transform="matrix(1,0,0,1,-74,-13)"/>
<path style="fill-rule:nonzero;fill:rgb(39.99939%,39.99939%,39.99939%);fill-opacity:1;stroke-width:0.03;stroke-linecap:square;stroke-linejoin:miter;stroke:rgb(39.99939%,39.99939%,39.99939%);stroke-opacity:1;stroke-miterlimit:3.239307;" d="M 216.019531 178.28125 L 229.109375 181.382812 L 217.246094 222.636719 L 204.933594 219.5 Z M 216.019531 178.28125 " transform="matrix(1,0,0,1,-74,-13)"/>
<path style="fill-rule:nonzero;fill:rgb(39.99939%,39.99939%,39.99939%);fill-opacity:1;stroke-width:0.03;stroke-linecap:square;stroke-linejoin:miter;stroke:rgb(39.99939%,39.99939%,39.99939%);stroke-opacity:1;stroke-miterlimit:3.239307;" d="M 240.503906 193.425781 L 252.105469 196.164062 L 242.996094 223.042969 L 230.945312 219.460938 Z M 240.503906 193.425781 " transform="matrix(1,0,0,1,-74,-13)"/>
<path style="fill-rule:nonzero;fill:rgb(39.99939%,39.99939%,39.99939%);fill-opacity:1;stroke-width:0.03;stroke-linecap:square;stroke-linejoin:miter;stroke:rgb(39.99939%,39.99939%,39.99939%);stroke-opacity:1;stroke-miterlimit:3.239307;" d="M 198.332031 173.195312 L 209.195312 175.414062 L 196.59375 218.867188 L 184.191406 216.121094 Z M 198.332031 173.195312 " transform="matrix(1,0,0,1,-74,-13)"/>
<path style="fill-rule:nonzero;fill:rgb(39.99939%,39.99939%,39.99939%);fill-opacity:1;stroke-width:0.03;stroke-linecap:square;stroke-linejoin:miter;stroke:rgb(39.99939%,39.99939%,39.99939%);stroke-opacity:1;stroke-miterlimit:3.239307;" d="M 339.664062 154.253906 L 350.152344 154.863281 L 347.375 186.6875 L 336.535156 185.789062 Z M 339.664062 154.253906 " transform="matrix(1,0,0,1,-74,-13)"/>
<path style="fill-rule:nonzero;fill:rgb(39.99939%,39.99939%,39.99939%);fill-opacity:1;stroke-width:0.03;stroke-linecap:square;stroke-linejoin:miter;stroke:rgb(39.99939%,39.99939%,39.99939%);stroke-opacity:1;stroke-miterlimit:3.239307;" d="M 301.675781 154.550781 L 313.132812 154.160156 L 311.949219 176.921875 L 300.628906 176.707031 Z M 301.675781 154.550781 " transform="matrix(1,0,0,1,-74,-13)"/>
<path style="fill-rule:nonzero;fill:rgb(39.99939%,39.99939%,39.99939%);fill-opacity:1;stroke-width:0.03;stroke-linecap:square;stroke-linejoin:miter;stroke:rgb(39.99939%,39.99939%,39.99939%);stroke-opacity:1;stroke-miterlimit:3.239307;" d="M 310.730469 196.082031 L 321.59375 198.296875 L 314.589844 229.226562 L 303.726562 227.011719 Z M 310.730469 196.082031 " transform="matrix(1,0,0,1,-74,-13)"/>
<path style="fill-rule:nonzero;fill:rgb(39.99939%,39.99939%,39.99939%);fill-opacity:1;stroke-width:0.03;stroke-linecap:square;stroke-linejoin:miter;stroke:rgb(39.99939%,39.99939%,39.99939%);stroke-opacity:1;stroke-miterlimit:3.239307;" d="M 285.484375 207.117188 L 295.363281 209.847656 L 287.746094 239.835938 L 276.882812 237.621094 Z M 285.484375 207.117188 " transform="matrix(1,0,0,1,-74,-13)"/>
<path style="fill-rule:nonzero;fill:rgb(39.99939%,39.99939%,39.99939%);fill-opacity:1;stroke-width:0.03;stroke-linecap:square;stroke-linejoin:miter;stroke:rgb(39.99939%,39.99939%,39.99939%);stroke-opacity:1;stroke-miterlimit:3.239307;" d="M 260.375 160.070312 L 283.980469 158.898438 L 282.554688 176.429688 L 276.488281 176.707031 L 261.851562 238.4375 L 245.410156 233.839844 L 266.101562 177.261719 L 259.8125 177.570312 Z M 260.375 160.070312 " transform="matrix(1,0,0,1,-74,-13)"/>
<path style="fill-rule:nonzero;fill:rgb(39.99939%,39.99939%,39.99939%);fill-opacity:1;stroke-width:0.03;stroke-linecap:square;stroke-linejoin:miter;stroke:rgb(39.99939%,39.99939%,39.99939%);stroke-opacity:1;stroke-miterlimit:3.239307;" d="M 353.128906 141.378906 L 372.640625 137.863281 L 382.570312 242.851562 L 381.695312 283.855469 L 188.492188 317.273438 L 182.664062 317.667969 L 182.132812 315.535156 L 181.378906 312.511719 L 141.910156 320.449219 L 125.429688 321.570312 L 136.820312 297.011719 L 156.8125 253.898438 L 172.652344 219.738281 L 195.867188 172.171875 L 274.671875 155.515625 Z M 353.128906 141.378906 " transform="matrix(1,0,0,1,-74,-13)"/>
</g>
</svg>
