<?xml version="1.0" encoding="UTF-8"?>
<svg xmlns="http://www.w3.org/2000/svg" xmlns:xlink="http://www.w3.org/1999/xlink" width="361pt" height="361pt" viewBox="0 0 361 361" version="1.1">
<defs>
<clipPath id="clip1">
  <path d="M 305 241 L 360 241 L 360 360 L 305 360 Z M 305 241 "/>
</clipPath>
<clipPath id="clip2">
  <path d="M 0 319 L 26 319 L 26 360 L 0 360 Z M 0 319 "/>
</clipPath>
<clipPath id="clip3">
  <path d="M 0 357 L 127 357 L 127 360 L 0 360 Z M 0 357 "/>
</clipPath>
<clipPath id="clip4">
  <path d="M 26 327 L 51 327 L 51 360 L 26 360 Z M 26 327 "/>
</clipPath>
<clipPath id="clip5">
  <path d="M 130 347 L 203 347 L 203 360 L 130 360 Z M 130 347 "/>
</clipPath>
<clipPath id="clip6">
  <path d="M 192 65 L 360 65 L 360 290 L 192 290 Z M 192 65 "/>
</clipPath>
<clipPath id="clip7">
  <path d="M 212 0 L 360 0 L 360 73 L 212 73 Z M 212 0 "/>
</clipPath>
<clipPath id="clip8">
  <path d="M 342 185 L 360 185 L 360 249 L 342 249 Z M 342 185 "/>
</clipPath>
<clipPath id="clip9">
  <path d="M 344 251 L 360 251 L 360 286 L 344 286 Z M 344 251 "/>
</clipPath>
<clipPath id="clip10">
  <path d="M 308 330 L 360 330 L 360 360 L 308 360 Z M 308 330 "/>
</clipPath>
<clipPath id="clip11">
  <path d="M 312 278 L 360 278 L 360 355 L 312 355 Z M 312 278 "/>
</clipPath>
<clipPath id="clip12">
  <path d="M 349 190 L 360 190 L 360 246 L 349 246 Z M 349 190 "/>
</clipPath>
<clipPath id="clip13">
  <path d="M 247 359 L 305 359 L 305 360 L 247 360 Z M 247 359 "/>
</clipPath>
</defs>
<g id="surface9030">
<path style="fill-rule:nonzero;fill:rgb(0%,0%,0%);fill-opacity:1;stroke-width:0.03;stroke-linecap:square;stroke-linejoin:miter;stroke:rgb(0%,0%,0%);stroke-opacity:1;stroke-miterlimit:10;" d="M 0 178 L 360 178 L 360 -182 L 0 -182 Z M 0 178 " transform="matrix(1,0,0,1,0,182)"/>
<path style=" stroke:none;fill-rule:nonzero;fill:rgb(39.99939%,39.99939%,39.99939%);fill-opacity:0.3;" d="M 16.492188 140.105469 L 26.765625 142.46875 L 28.1875 136.925781 L 31.65625 137.722656 L 30.238281 143.269531 L 40.511719 145.636719 L 39.667969 148.929688 L 15.648438 143.394531 Z M 16.492188 140.105469 "/>
<path style=" stroke:none;fill-rule:nonzero;fill:rgb(39.99939%,39.99939%,39.99939%);fill-opacity:0.3;" d="M -14.90625 125.832031 L -4.628906 128.199219 L -3.210938 122.65625 L 0.257812 123.453125 L -1.160156 129 L 9.113281 131.367188 L 8.269531 134.660156 L -15.746094 129.125 Z M -14.90625 125.832031 "/>
<path style=" stroke:none;fill-rule:nonzero;fill:rgb(39.99939%,39.99939%,39.99939%);fill-opacity:0.3;" d="M 113.664062 221.066406 L 123.046875 223.0625 L 117.691406 248.382812 L 108.136719 246.640625 Z M 113.664062 221.066406 "/>
<path style=" stroke:none;fill-rule:nonzero;fill:rgb(39.99939%,39.99939%,39.99939%);fill-opacity:0.3;" d="M 61.050781 168.097656 L 71.625 169.9375 L 66.988281 195.492188 L 56.191406 194.027344 Z M 61.050781 168.097656 "/>
<path style=" stroke:none;fill-rule:nonzero;fill:rgb(39.99939%,39.99939%,39.99939%);fill-opacity:0.3;" d="M 52.695312 233.179688 L 62.363281 235.304688 L 56.378906 263.796875 L 46.195312 261.558594 Z M 52.695312 233.179688 "/>
<path style=" stroke:none;fill-rule:nonzero;fill:rgb(39.99939%,39.99939%,39.99939%);fill-opacity:0.3;" d="M 45.84375 201.003906 L 55.636719 202.882812 L 49.578125 230.863281 L 39.671875 228.320312 Z M 45.84375 201.003906 "/>
<path style=" stroke:none;fill-rule:nonzero;fill:rgb(39.99939%,39.99939%,39.99939%);fill-opacity:0.3;" d="M 38.421875 168.003906 L 48.417969 169.308594 L 43.101562 198.457031 L 32.503906 196.191406 Z M 38.421875 168.003906 "/>
<path style=" stroke:none;fill-rule:nonzero;fill:rgb(39.99939%,39.99939%,39.99939%);fill-opacity:0.3;" d="M 58.109375 201.4375 L 63.808594 202.453125 L 62.289062 211.761719 L 94.960938 218.234375 L 93.851562 223.730469 L 83.742188 222.125 L 77.128906 256.304688 L 65.335938 254.363281 L 70.792969 226.703125 L 67.605469 226.160156 L 65.851562 234.054688 L 52.207031 231.152344 Z M 58.109375 201.4375 "/>
<path style=" stroke:none;fill-rule:nonzero;fill:rgb(39.99939%,39.99939%,39.99939%);fill-opacity:0.3;" d="M 94.667969 194.15625 L 104.5 200.078125 L 103.347656 214.496094 L 92.691406 213.488281 Z M 94.667969 194.15625 "/>
<path style=" stroke:none;fill-rule:nonzero;fill:rgb(39.99939%,39.99939%,39.99939%);fill-opacity:0.3;" d="M 82.320312 193.609375 L 93.640625 194.582031 L 92.039062 210.160156 L 80.484375 209.109375 Z M 82.320312 193.609375 "/>
<path style=" stroke:none;fill-rule:nonzero;fill:rgb(39.99939%,39.99939%,39.99939%);fill-opacity:0.3;" d="M 73.804688 171.703125 L 84.550781 173.324219 L 77.257812 211.394531 L 66.335938 209.183594 Z M 73.804688 171.703125 "/>
<path style=" stroke:none;fill-rule:nonzero;fill:rgb(39.99939%,39.99939%,39.99939%);fill-opacity:0.3;" d="M 85.375 223.574219 L 96.464844 225.984375 L 89.011719 260.441406 L 77.964844 258.578125 Z M 85.375 223.574219 "/>
<path style=" stroke:none;fill-rule:nonzero;fill:rgb(39.99939%,39.99939%,39.99939%);fill-opacity:0.3;" d="M 100.527344 220.394531 L 111.730469 222.363281 L 105.347656 251.867188 L 94.144531 249.902344 Z M 100.527344 220.394531 "/>
<path style=" stroke:none;fill-rule:nonzero;fill:rgb(39.99939%,39.99939%,39.99939%);fill-opacity:0.3;" d="M 4.59375 263.246094 L 2.679688 252.21875 L 1.136719 232.433594 L 0.746094 222.675781 L -1.035156 210.597656 L -1.675781 205.679688 L -3.328125 199.925781 L -4.980469 192.015625 L -6.519531 169.332031 L -6.578125 168.976562 L -6.605469 168.726562 L -6.617188 168.472656 L -6.613281 168.214844 L -6.597656 167.960938 L -6.566406 167.710938 L -6.523438 167.457031 L -6.464844 167.210938 L -6.394531 166.964844 L -6.308594 166.722656 L -6.210938 166.484375 L -6.101562 166.253906 L -5.976562 166.027344 L -5.839844 165.808594 L -5.695312 165.597656 L -5.535156 165.390625 L -5.363281 165.195312 L -5.238281 165.0625 L -4.992188 164.828125 L -4.792969 164.660156 L -4.582031 164.5 L -4.363281 164.355469 L -4.136719 164.214844 L -3.90625 164.089844 L -3.664062 163.976562 L -3.417969 163.875 L -3.167969 163.785156 L -2.914062 163.710938 L -2.652344 163.644531 L -2.390625 163.59375 L -2.125 163.554688 L 10.023438 161.773438 L 10.480469 161.742188 L 10.914062 161.730469 L 11.347656 161.746094 L 11.78125 161.777344 L 12.210938 161.832031 L 12.636719 161.910156 L 13.058594 162.007812 L 13.472656 162.125 L 13.882812 162.261719 L 14.28125 162.421875 L 14.671875 162.601562 L 15.054688 162.796875 L 15.421875 163.015625 L 15.777344 163.25 L 16.121094 163.5 L 16.449219 163.769531 L 16.765625 164.054688 L 17.0625 164.351562 L 17.34375 164.667969 L 17.605469 164.992188 L 17.851562 165.332031 L 18.074219 165.683594 L 18.28125 166.046875 L 18.46875 166.417969 L 18.632812 166.800781 L 24.484375 186.023438 L 26.027344 204.964844 L 27.691406 222.917969 L 29.097656 232.628906 L 30.757812 244.136719 L 31.527344 250.335938 L 31.867188 255.117188 L 32.191406 260.058594 L 31.523438 264.519531 L 31.054688 265 L 30.40625 265.597656 L 29.726562 266.164062 L 29.015625 266.695312 L 28.277344 267.1875 L 27.511719 267.648438 L 26.722656 268.066406 L 25.914062 268.445312 L 25.082031 268.785156 L 24.234375 269.082031 L 23.371094 269.335938 L 22.492188 269.546875 L 21.605469 269.714844 L 20.710938 269.835938 L 19.8125 269.914062 L 18.910156 269.949219 L 18.003906 269.9375 L 17.101562 269.882812 L 16.203125 269.78125 L 15.3125 269.636719 L 14.429688 269.445312 L 13.5625 269.210938 L 12.707031 268.9375 L 11.867188 268.617188 L 11.042969 268.257812 L 10.246094 267.859375 L 9.46875 267.421875 L 8.714844 266.945312 L 7.992188 266.429688 L 7.296875 265.882812 L 6.632812 265.300781 L 6.003906 264.683594 L 5.40625 264.039062 Z M 4.59375 263.246094 "/>
<g clip-path="url(#clip1)" clip-rule="nonzero">
<path style=" stroke:none;fill-rule:nonzero;fill:rgb(39.99939%,39.99939%,39.99939%);fill-opacity:0.3;" d="M 315.347656 573.75 L 323.476562 543.777344 L 330.773438 506.328125 L 337.890625 485.691406 L 339.066406 483.101562 L 345.078125 472.695312 L 352.074219 459.023438 L 354.878906 455.132812 L 358.324219 452.183594 L 360.582031 450.625 L 362.429688 449.5 L 364.214844 448.492188 L 365.585938 448.097656 L 366.957031 447.664062 L 368.402344 447.394531 L 369.527344 447.191406 L 370.972656 447.359375 L 372.273438 447.890625 L 373.507812 448.457031 L 374.917969 449.289062 L 376.988281 450.855469 L 379.179688 452.851562 L 403.007812 477.511719 L 420.324219 495.511719 L 421.582031 494.523438 L 422.835938 493.539062 L 407.320312 476.742188 L 391.117188 460.503906 L 384.925781 453.929688 L 382.070312 451.140625 L 381.015625 450.265625 L 379.789062 449.214844 L 378.878906 448.667969 L 377.984375 448.070312 L 376.964844 447.417969 L 375.617188 446.699219 L 374.152344 446.066406 L 372.730469 445.511719 L 371.386719 445.105469 L 370.226562 444.921875 L 368.949219 444.804688 L 367.882812 444.863281 L 366.207031 445.074219 L 365.390625 445.289062 L 364.351562 445.746094 L 363.085938 446.347656 L 361.714844 447.335938 L 360.488281 448.148438 L 358.707031 448.960938 L 360.824219 446.300781 L 363.472656 443.324219 L 430.296875 371.335938 L 476.085938 330.542969 L 489.902344 314.355469 L 524.601562 280.90625 L 577.71875 241.753906 L 812.585938 262.152344 L 813.492188 310.554688 L 674.265625 299.941406 L 674.175781 301.429688 L 674.082031 302.921875 L 811.96875 313.1875 L 818.253906 313.25 L 825.515625 312.992188 L 833.84375 312.957031 L 841.210938 310.414062 L 846.4375 307.914062 L 851.011719 303.429688 L 868.128906 305.03125 L 843.664062 427.339844 L 835.371094 433.472656 L 829.019531 438.410156 L 824.789062 441.9375 L 820.042969 449.320312 L 805.109375 454.964844 L 778.296875 456.769531 L 746.710938 462.917969 L 693.207031 479.570312 L 631.296875 504.671875 L 581.546875 529.167969 L 474.96875 563.136719 L 462.058594 529.503906 L 456.886719 531.277344 L 470.019531 564.816406 L 315.152344 615.46875 L 314.234375 615.578125 L 312.964844 615.566406 L 311.714844 615.367188 L 310.511719 614.980469 L 309.386719 614.425781 L 308.285156 613.640625 L 307.21875 612.535156 L 306.539062 611.519531 L 306.035156 610.414062 L 305.800781 609.640625 L 311.074219 592.949219 L 314.601562 578.128906 Z M 315.347656 573.75 "/>
</g>
<path style=" stroke:none;fill-rule:nonzero;fill:rgb(39.99939%,39.99939%,39.99939%);fill-opacity:0.3;" d="M 138.703125 -21.019531 L 163.53125 25.050781 L 127.480469 46.835938 L 126.660156 43.207031 L 125.839844 38.507812 L 125.28125 33.769531 L 124.980469 29.015625 L 124.945312 24.25 L 125.171875 19.488281 L 125.660156 14.746094 L 126.410156 10.035156 L 127.417969 5.367188 L 128.683594 0.757812 L 130.203125 -3.785156 L 131.96875 -8.246094 L 133.976562 -12.613281 L 136.222656 -16.875 Z M 138.703125 -21.019531 "/>
<path style=" stroke:none;fill-rule:nonzero;fill:rgb(39.99939%,39.99939%,39.99939%);fill-opacity:0.3;" d="M 147.203125 -27.335938 L 169.738281 -48.371094 L 202.085938 2.242188 L 174.476562 19.019531 Z M 147.203125 -27.335938 "/>
<g clip-path="url(#clip2)" clip-rule="nonzero">
<path style=" stroke:none;fill-rule:nonzero;fill:rgb(39.99939%,39.99939%,39.99939%);fill-opacity:0.3;" d="M -10.820312 321.707031 L 23.085938 319.011719 L 25.382812 360.75 L 16.632812 361.078125 L 9.332031 361.890625 L -8.472656 364.398438 Z M -10.820312 321.707031 "/>
</g>
<path style=" stroke:none;fill-rule:nonzero;fill:rgb(39.99939%,39.99939%,39.99939%);fill-opacity:0.3;" d="M 125.917969 318.105469 L 147.117188 316.160156 L 146.253906 350.140625 L 127.914062 351.878906 Z M 125.917969 318.105469 "/>
<path style=" stroke:none;fill-rule:nonzero;fill:rgb(39.99939%,39.99939%,39.99939%);fill-opacity:0.3;" d="M 101.394531 318.925781 L 121.257812 318.109375 L 123.019531 353.296875 L 102.304688 355.175781 Z M 101.394531 318.925781 "/>
<path style=" stroke:none;fill-rule:nonzero;fill:rgb(39.99939%,39.99939%,39.99939%);fill-opacity:0.3;" d="M 188.964844 314.898438 L 233.375 312.425781 L 243.867188 335.773438 L 202.949219 340.445312 Z M 188.964844 314.898438 "/>
<g clip-path="url(#clip3)" clip-rule="nonzero">
<path style=" stroke:none;fill-rule:nonzero;fill:rgb(39.99939%,39.99939%,39.99939%);fill-opacity:0.3;" d="M -36.265625 373.566406 L -10.464844 370.554688 L 7.152344 368.328125 L 16.210938 367.246094 L 22.628906 366.523438 L 29.613281 366.335938 L 34.8125 366.328125 L 41.449219 365.371094 L 52.949219 365.144531 L 75.273438 362.769531 L 101.207031 359.964844 L 124.480469 357.296875 L 126.425781 367.128906 L 93.78125 372.367188 L 76.820312 374.089844 L 56.300781 377.101562 L 42.222656 378.390625 L 34.199219 379.050781 L 24.917969 379.910156 L 17.554688 381.757812 L 13.855469 383.503906 L -11.40625 386.191406 L -33.082031 387.429688 Z M -36.265625 373.566406 "/>
</g>
<path style=" stroke:none;fill-rule:nonzero;fill:rgb(39.99939%,39.99939%,39.99939%);fill-opacity:0.3;" d="M 53.179688 327.425781 L 71.667969 325.695312 L 73.847656 357.960938 L 62.691406 359.472656 L 54.570312 359.695312 Z M 53.179688 327.425781 "/>
<g clip-path="url(#clip4)" clip-rule="nonzero">
<path style=" stroke:none;fill-rule:nonzero;fill:rgb(39.99939%,39.99939%,39.99939%);fill-opacity:0.3;" d="M 26.847656 329.09375 L 48.546875 327.988281 L 50.0625 360.769531 L 42.015625 361.449219 L 35.605469 361.257812 L 28.59375 360.855469 Z M 26.847656 329.09375 "/>
</g>
<path style=" stroke:none;fill-rule:nonzero;fill:rgb(39.99939%,39.99939%,39.99939%);fill-opacity:0.3;" d="M 75.085938 320.277344 L 96.945312 319.175781 L 97.871094 355.714844 L 76.546875 357.757812 Z M 75.085938 320.277344 "/>
<path style=" stroke:none;fill-rule:nonzero;fill:rgb(39.99939%,39.99939%,39.99939%);fill-opacity:0.3;" d="M 141.132812 256.832031 L 167.714844 297.332031 L 99.988281 300.945312 L 71.582031 301.796875 L 51.203125 303.054688 L 35.71875 303.683594 L 23.359375 303.488281 L 10.566406 303.300781 L -1.144531 303.519531 L -16.320312 304.765625 L -47.742188 306.820312 L -47.882812 306.5625 L -25.359375 282.074219 L -24.433594 281.273438 L -23.015625 280.179688 L -21.820312 279.363281 L -20.578125 278.605469 L -19.296875 277.910156 L -17.980469 277.277344 L -16.628906 276.714844 L -15.25 276.21875 L -13.84375 275.789062 L -12.414062 275.433594 L -10.972656 275.148438 L -9.511719 274.933594 L -8.042969 274.792969 L -6.570312 274.726562 L 22.507812 274.257812 L 46.246094 273.90625 L 74.421875 274.082031 L 112.714844 273.730469 L 114.273438 273.742188 L 115.832031 273.675781 L 117.382812 273.53125 L 118.925781 273.308594 L 120.453125 273.011719 L 121.960938 272.636719 L 123.449219 272.1875 L 124.90625 271.667969 L 126.335938 271.074219 L 127.730469 270.414062 L 129.085938 269.679688 L 130.398438 268.882812 L 131.667969 268.023438 L 132.886719 267.097656 L 134.050781 266.117188 L 135.160156 265.078125 L 136.210938 263.984375 L 137.203125 262.839844 L 138.125 261.648438 L 138.984375 260.414062 L 139.773438 259.136719 Z M 141.132812 256.832031 "/>
<path style=" stroke:none;fill-rule:nonzero;fill:rgb(39.99939%,39.99939%,39.99939%);fill-opacity:0.3;" d="M 238.722656 312.199219 L 280.019531 308.628906 L 293.003906 329.980469 L 248.75 335.328125 Z M 238.722656 312.199219 "/>
<path style=" stroke:none;fill-rule:nonzero;fill:rgb(39.99939%,39.99939%,39.99939%);fill-opacity:0.3;" d="M 273.695312 302.117188 L 275.726562 304.582031 L 183.238281 310.070312 L 178.605469 298.28125 L 185.46875 308.570312 L 222.867188 305.75 Z M 273.695312 302.117188 "/>
<path style=" stroke:none;fill-rule:nonzero;fill:rgb(39.99939%,39.99939%,39.99939%);fill-opacity:0.3;" d="M -44.027344 310.722656 L -26.945312 309.167969 L -15.628906 308.113281 L -0.925781 307.566406 L 10.882812 307.132812 L 23.585938 307.011719 L 43.527344 307.644531 L 58.058594 306.121094 L 72.800781 305.902344 L 169.929688 301.304688 L 172.570312 308.710938 L 28.757812 318.289062 L 27.480469 315.910156 L -42.558594 320.378906 Z M -44.027344 310.722656 "/>
<path style=" stroke:none;fill-rule:nonzero;fill:rgb(39.99939%,39.99939%,39.99939%);fill-opacity:0.3;" d="M 205.992188 346.6875 L 295.734375 334.25 L 299.464844 344.160156 L 209.261719 357.261719 Z M 205.992188 346.6875 "/>
<g clip-path="url(#clip5)" clip-rule="nonzero">
<path style=" stroke:none;fill-rule:nonzero;fill:rgb(39.99939%,39.99939%,39.99939%);fill-opacity:0.3;" d="M 130.074219 355.941406 L 198.285156 347.402344 L 202.308594 357.597656 L 132.023438 366.929688 Z M 130.074219 355.941406 "/>
</g>
<path style=" stroke:none;fill-rule:nonzero;fill:rgb(39.99939%,39.99939%,39.99939%);fill-opacity:0.3;" d="M 170.761719 315.105469 L 177.835938 314.566406 L 194.734375 342.179688 L 172.636719 345.195312 Z M 170.761719 315.105469 "/>
<path style=" stroke:none;fill-rule:nonzero;fill:rgb(39.99939%,39.99939%,39.99939%);fill-opacity:0.3;" d="M 151.851562 315.941406 L 166.285156 315.5 L 167.449219 346.484375 L 151.210938 348.8125 Z M 151.851562 315.941406 "/>
<g clip-path="url(#clip6)" clip-rule="nonzero">
<path style=" stroke:none;fill-rule:nonzero;fill:rgb(39.99939%,39.99939%,39.99939%);fill-opacity:0.3;" d="M 473.421875 88.945312 L 490.242188 91.238281 L 500.863281 92.683594 L 495.109375 142.53125 L 490.308594 184.378906 L 482.710938 188.335938 L 480.675781 188.007812 L 468.113281 186.375 L 458 193.519531 L 442.949219 189.421875 L 423.863281 194.929688 L 417.042969 186.5625 L 413.140625 181.777344 L 393.484375 193.320312 L 377.585938 203.214844 L 338.5625 226.847656 L 350.714844 242.023438 L 358.035156 251.59375 L 346.355469 268.347656 L 344.085938 270.183594 L 338.804688 264.605469 L 337.339844 265.597656 L 335.878906 266.585938 L 341.375 272.375 L 328.007812 283.167969 L 324.460938 284.621094 L 319.523438 277.953125 L 316.875 279.632812 L 321.496094 285.832031 L 312.484375 289.519531 L 299.460938 288.386719 L 280.820312 262.203125 L 236.714844 204.421875 L 266.195312 182.898438 L 261.648438 176.5 L 231.355469 196.925781 L 206.882812 167.890625 L 192.253906 146.996094 L 225.128906 124.699219 L 244.007812 111.589844 L 244.363281 111.039062 L 244.6875 110.46875 L 244.980469 109.886719 L 245.238281 109.289062 L 245.371094 108.929688 L 245.449219 108.871094 L 249.683594 101.109375 L 246.859375 91.9375 L 226.351562 65.925781 L 337.5625 75.273438 Z M 473.421875 88.945312 "/>
</g>
<g clip-path="url(#clip7)" clip-rule="nonzero">
<path style=" stroke:none;fill-rule:nonzero;fill:rgb(39.99939%,39.99939%,39.99939%);fill-opacity:0.3;" d="M 493.289062 10.527344 L 494.484375 10.648438 L 498.933594 11.09375 L 501.429688 72.890625 L 491.34375 72.144531 L 464.53125 69.542969 L 418.71875 65.28125 L 314.78125 54.480469 L 266.796875 48.585938 L 229.792969 48.410156 L 217.679688 50.945312 L 212 40.183594 L 230.433594 31.152344 L 244.054688 22.523438 L 265.777344 7.082031 L 280.828125 -4.304688 L 299.570312 -13.070312 L 325.988281 -30.300781 L 315.414062 -49.558594 L 352.988281 -70.851562 L 365.332031 -53.796875 L 369.730469 -44.308594 L 377.160156 -49.152344 L 372.964844 -58.078125 L 360.4375 -75.289062 L 384.109375 -84.925781 L 393.050781 -65.988281 L 431.339844 -65.917969 L 430.851562 -57.828125 L 432.601562 -57.761719 L 434.132812 -57.703125 L 434.722656 -65.339844 L 455.773438 -64.046875 L 455.191406 -56.566406 L 457.035156 -56.277344 L 458.878906 -55.984375 L 459.980469 -63.976562 L 500.539062 -67.113281 Z M 493.289062 10.527344 "/>
</g>
<path style=" stroke:none;fill-rule:nonzero;fill:rgb(39.99939%,39.99939%,39.99939%);fill-opacity:0.3;" d="M 246.199219 -10.667969 L 309.292969 -47.054688 L 319.644531 -29.464844 L 297.34375 -15.328125 L 278.9375 -6.632812 L 263.339844 4.601562 L 258.746094 7.871094 Z M 246.199219 -10.667969 "/>
<g clip-path="url(#clip8)" clip-rule="nonzero">
<path style=" stroke:none;fill-rule:nonzero;fill:rgb(39.99939%,39.99939%,39.99939%);fill-opacity:0.3;" d="M 342.648438 227.800781 L 411.796875 185.132812 L 426.0625 202.027344 L 419.304688 206.621094 L 419.039062 206.253906 L 406.335938 190.023438 L 394.339844 198.488281 L 349.882812 230.246094 L 362.585938 245.0625 L 362.429688 245.285156 L 358.378906 248.039062 Z M 342.648438 227.800781 "/>
</g>
<path style=" stroke:none;fill-rule:nonzero;fill:rgb(39.99939%,39.99939%,39.99939%);fill-opacity:0.3;" d="M 189.085938 22.246094 L 241.945312 -8.019531 L 255.054688 10.84375 L 241.878906 19.90625 L 230.25 26.5 L 211.070312 34.460938 L 203.035156 36.933594 L 197.1875 32.222656 Z M 189.085938 22.246094 "/>
<path style=" stroke:none;fill-rule:nonzero;fill:rgb(39.99939%,39.99939%,39.99939%);fill-opacity:0.3;" d="M 137.824219 51.429688 L 185.839844 27.144531 L 208.714844 54.804688 Z M 137.824219 51.429688 "/>
<path style=" stroke:none;fill-rule:nonzero;fill:rgb(39.99939%,39.99939%,39.99939%);fill-opacity:0.3;" d="M 196.160156 138.632812 L 189.511719 143.074219 L 188.289062 141.332031 Z M 196.160156 138.632812 "/>
<g clip-path="url(#clip9)" clip-rule="nonzero">
<path style=" stroke:none;fill-rule:nonzero;fill:rgb(39.99939%,39.99939%,39.99939%);fill-opacity:0.3;" d="M 358.035156 251.59375 L 375.855469 274.882812 L 359.046875 285.964844 L 344.085938 270.183594 L 346.355469 268.347656 Z M 358.035156 251.59375 "/>
</g>
<path style=" stroke:none;fill-rule:nonzero;fill:rgb(39.99939%,39.99939%,39.99939%);fill-opacity:0.3;" d="M 341.375 272.375 L 356.121094 287.894531 L 336.480469 300.847656 L 324.460938 284.621094 L 328.007812 283.167969 Z M 341.375 272.375 "/>
<path style=" stroke:none;fill-rule:nonzero;fill:rgb(39.99939%,39.99939%,39.99939%);fill-opacity:0.3;" d="M 321.496094 285.832031 L 333.8125 302.367188 L 309.984375 318.320312 L 303.914062 294.636719 L 299.460938 288.386719 L 312.484375 289.519531 Z M 321.496094 285.832031 "/>
<g clip-path="url(#clip10)" clip-rule="nonzero">
<path style=" stroke:none;fill-rule:nonzero;fill:rgb(39.99939%,39.99939%,39.99939%);fill-opacity:0.3;" d="M 309.914062 473.207031 L 308.707031 455.242188 L 310.753906 439.796875 L 314.398438 420.429688 L 322.136719 369.832031 L 324.257812 357.957031 L 363.003906 350.335938 L 361.636719 359.085938 L 371.714844 359.578125 L 373.292969 348.914062 L 464.742188 330.378906 L 460.425781 334.480469 L 423.617188 368.808594 L 410.984375 383.882812 L 371.707031 426.078125 L 349.640625 451.886719 L 338.316406 465 L 330.53125 476.320312 L 329.527344 477.695312 L 327.363281 479.628906 L 325.839844 480.507812 L 323.75 481.371094 L 321.265625 481.652344 L 319.480469 481.601562 L 317.726562 481.289062 L 314.988281 480.199219 L 312.636719 478.476562 L 310.78125 476.117188 Z M 309.914062 473.207031 "/>
</g>
<g clip-path="url(#clip11)" clip-rule="nonzero">
<path style=" stroke:none;fill-rule:nonzero;fill:rgb(39.99939%,39.99939%,39.99939%);fill-opacity:0.3;" d="M 312.382812 324.863281 L 320.511719 318.65625 L 323.777344 335.820312 L 324.992188 335.304688 L 326.207031 334.792969 L 324.027344 320.96875 L 323.355469 316.328125 L 335.542969 307.574219 L 379.023438 278.410156 L 392.617188 295.226562 L 382.339844 297.285156 L 369.101562 299.9375 L 369.378906 301.578125 L 369.660156 303.21875 L 381.363281 300.90625 L 383.441406 316.074219 L 386.050781 341.773438 L 372.699219 344.238281 L 346.136719 349.511719 L 342.488281 336.519531 L 337.496094 336.527344 L 337.703125 337.433594 L 337.890625 338.28125 L 340.382812 338.351562 L 343.5 349.878906 L 322.449219 354.035156 Z M 312.382812 324.863281 "/>
</g>
<g clip-path="url(#clip12)" clip-rule="nonzero">
<path style=" stroke:none;fill-rule:nonzero;fill:rgb(39.99939%,39.99939%,39.99939%);fill-opacity:0.3;" d="M 419.304688 206.621094 L 362.429688 245.285156 L 362.585938 245.0625 L 349.882812 230.246094 L 394.339844 198.488281 L 406.335938 190.023438 L 419.039062 206.253906 Z M 419.304688 206.621094 "/>
</g>
<path style=" stroke:none;fill-rule:nonzero;fill:rgb(39.99939%,39.99939%,39.99939%);fill-opacity:0.3;" d="M 206.882812 167.890625 L 190.355469 148.285156 L 192.253906 146.996094 Z M 206.882812 167.890625 "/>
<path style=" stroke:none;fill-rule:nonzero;fill:rgb(39.99939%,39.99939%,39.99939%);fill-opacity:0.3;" d="M 245.371094 108.929688 L 245.464844 108.675781 L 245.660156 108.058594 L 245.816406 107.429688 L 245.941406 106.792969 L 246.027344 106.152344 L 246.082031 105.507812 L 246.097656 104.859375 L 246.09375 104.527344 L 246.054688 103.882812 L 245.984375 103.242188 L 245.875 102.601562 L 245.734375 101.96875 L 245.554688 101.34375 L 245.34375 100.730469 L 245.097656 100.128906 L 223.96875 65.722656 L 226.351562 65.925781 L 246.859375 91.9375 L 249.683594 101.109375 L 245.449219 108.871094 Z M 245.371094 108.929688 "/>
<path style=" stroke:none;fill-rule:nonzero;fill:rgb(39.99939%,39.99939%,39.99939%);fill-opacity:0.3;" d="M 86.039062 151.945312 L 137.011719 117.101562 L 160.683594 147.441406 L 109.757812 185.328125 Z M 86.039062 151.945312 "/>
<path style=" stroke:none;fill-rule:nonzero;fill:rgb(39.99939%,39.99939%,39.99939%);fill-opacity:0.3;" d="M 78.621094 147.921875 L 51.429688 106.121094 L 103.078125 78.179688 L 112.304688 88.847656 L 131.101562 110.578125 L 117.113281 120.53125 Z M 78.621094 147.921875 "/>
<path style=" stroke:none;fill-rule:nonzero;fill:rgb(39.99939%,39.99939%,39.99939%);fill-opacity:0.3;" d="M 111.644531 194.550781 L 165.550781 155.035156 L 209.054688 217.367188 L 155.324219 257.761719 Z M 111.644531 194.550781 "/>
<path style=" stroke:none;fill-rule:nonzero;fill:rgb(39.99939%,39.99939%,39.99939%);fill-opacity:0.3;" d="M 212.648438 223.378906 L 257.195312 280.113281 L 173.414062 286.648438 L 158.6875 265.347656 Z M 212.648438 223.378906 "/>
<path style=" stroke:none;fill-rule:nonzero;fill:rgb(39.99939%,39.99939%,39.99939%);fill-opacity:0.3;" d="M 176.0625 291.800781 L 261.042969 286.75 L 273.695312 302.117188 L 222.867188 305.75 L 185.46875 308.570312 L 178.605469 298.28125 Z M 176.0625 291.800781 "/>
<path style=" stroke:none;fill-rule:nonzero;fill:rgb(39.99939%,39.99939%,39.99939%);fill-opacity:0.3;" d="M 210.03125 56.398438 L 133.015625 53.859375 L 137.824219 51.429688 L 208.714844 54.804688 Z M 210.03125 56.398438 "/>
<path style=" stroke:none;fill-rule:nonzero;fill:rgb(39.99939%,39.99939%,39.99939%);fill-opacity:0.3;" d="M 241.839844 102.554688 L 241.96875 102.832031 L 242.089844 103.105469 L 242.191406 103.390625 L 242.28125 103.675781 L 242.351562 103.96875 L 242.402344 104.265625 L 242.441406 104.5625 L 242.460938 104.859375 L 242.46875 105.085938 L 242.460938 105.386719 L 242.433594 105.683594 L 242.394531 105.980469 L 242.335938 106.277344 L 242.265625 106.566406 L 242.175781 106.855469 L 242.070312 107.136719 L 241.949219 107.414062 L 241.816406 107.683594 L 241.664062 107.949219 L 241.5 108.203125 L 241.269531 108.515625 L 196.160156 138.632812 L 188.289062 141.332031 L 189.511719 143.074219 L 188.207031 143.941406 L 170.140625 119.9375 L 127.644531 63.480469 L 199.351562 64.480469 L 216.625 64.71875 Z M 241.839844 102.554688 "/>
<g clip-path="url(#clip13)" clip-rule="nonzero">
<path style=" stroke:none;fill-rule:nonzero;fill:rgb(39.99939%,39.99939%,39.99939%);fill-opacity:0.3;" d="M 247.621094 367.769531 L 304.492188 359.253906 L 294.058594 448.152344 L 251.644531 453.621094 L 248.011719 427.160156 L 252.019531 417.957031 L 250.804688 406.652344 L 247.601562 387.296875 Z M 247.621094 367.769531 "/>
</g>
<path style=" stroke:none;fill-rule:nonzero;fill:rgb(39.99939%,39.99939%,39.99939%);fill-opacity:0.3;" d="M 122.253906 -45.796875 L 116.125 -39.671875 L 111.957031 -33.789062 L 108.117188 -27.707031 L 104.621094 -21.441406 L 101.472656 -15.011719 L 98.683594 -8.433594 L 96.261719 -1.726562 L 94.210938 5.089844 L 92.542969 12 L 92.003906 14.675781 L 27.820312 47.285156 L 28.953125 51.167969 L 30.089844 55.046875 L 91.527344 26.375 L 96.074219 47.253906 L 95.191406 61.515625 L 71.492188 74.394531 L 43.558594 89.421875 L 8.003906 107.132812 L -20.101562 110.359375 L -59.066406 107.726562 L -91.832031 98.398438 L -131.667969 82.113281 L -139.820312 43.476562 L -141.144531 35.800781 L -144.105469 10.933594 L -36.953125 -15.125 L 1.761719 -25.652344 L 38.253906 -46.140625 L 97.007812 -81.585938 Z M 122.253906 -45.796875 "/>
<path style="fill-rule:nonzero;fill:rgb(39.99939%,39.99939%,39.99939%);fill-opacity:1;stroke-width:0.03;stroke-linecap:square;stroke-linejoin:miter;stroke:rgb(39.99939%,39.99939%,39.99939%);stroke-opacity:1;stroke-miterlimit:3.239307;" d="M 280.882812 180.890625 L 264.355469 161.285156 L 266.253906 159.996094 Z M 280.882812 180.890625 " transform="matrix(1,0,0,1,-74,-13)"/>
<path style="fill-rule:nonzero;fill:rgb(39.99939%,39.99939%,39.99939%);fill-opacity:1;stroke-width:0.03;stroke-linecap:square;stroke-linejoin:miter;stroke:rgb(39.99939%,39.99939%,39.99939%);stroke-opacity:1;stroke-miterlimit:3.239307;" d="M 319.371094 121.929688 L 319.464844 121.675781 L 319.660156 121.058594 L 319.816406 120.429688 L 319.941406 119.792969 L 320.027344 119.152344 L 320.082031 118.507812 L 320.097656 117.859375 L 320.09375 117.527344 L 320.054688 116.882812 L 319.984375 116.242188 L 319.875 115.601562 L 319.734375 114.96875 L 319.554688 114.34375 L 319.34375 113.730469 L 319.097656 113.128906 L 297.96875 78.722656 L 300.351562 78.925781 L 320.859375 104.9375 L 323.683594 114.109375 L 319.449219 121.871094 Z M 319.371094 121.929688 " transform="matrix(1,0,0,1,-74,-13)"/>
<path style="fill-rule:nonzero;fill:rgb(39.99939%,39.99939%,39.99939%);fill-opacity:1;stroke-width:0.03;stroke-linecap:square;stroke-linejoin:miter;stroke:rgb(39.99939%,39.99939%,39.99939%);stroke-opacity:1;stroke-miterlimit:3.239307;" d="M 160.039062 164.945312 L 211.011719 130.101562 L 234.683594 160.441406 L 183.757812 198.328125 Z M 160.039062 164.945312 " transform="matrix(1,0,0,1,-74,-13)"/>
<path style="fill-rule:nonzero;fill:rgb(39.99939%,39.99939%,39.99939%);fill-opacity:1;stroke-width:0.03;stroke-linecap:square;stroke-linejoin:miter;stroke:rgb(39.99939%,39.99939%,39.99939%);stroke-opacity:1;stroke-miterlimit:3.239307;" d="M 152.621094 160.921875 L 125.429688 119.121094 L 177.078125 91.179688 L 186.304688 101.847656 L 205.101562 123.578125 L 191.113281 133.53125 Z M 152.621094 160.921875 " transform="matrix(1,0,0,1,-74,-13)"/>
<path style="fill-rule:nonzero;fill:rgb(39.99939%,39.99939%,39.99939%);fill-opacity:1;stroke-width:0.03;stroke-linecap:square;stroke-linejoin:miter;stroke:rgb(39.99939%,39.99939%,39.99939%);stroke-opacity:1;stroke-miterlimit:3.239307;" d="M 185.644531 207.550781 L 239.550781 168.035156 L 283.054688 230.367188 L 229.324219 270.761719 Z M 185.644531 207.550781 " transform="matrix(1,0,0,1,-74,-13)"/>
<path style="fill-rule:nonzero;fill:rgb(39.99939%,39.99939%,39.99939%);fill-opacity:1;stroke-width:0.03;stroke-linecap:square;stroke-linejoin:miter;stroke:rgb(39.99939%,39.99939%,39.99939%);stroke-opacity:1;stroke-miterlimit:3.239307;" d="M 286.648438 236.378906 L 331.195312 293.113281 L 247.414062 299.648438 L 232.6875 278.347656 Z M 286.648438 236.378906 " transform="matrix(1,0,0,1,-74,-13)"/>
<path style="fill-rule:nonzero;fill:rgb(39.99939%,39.99939%,39.99939%);fill-opacity:1;stroke-width:0.03;stroke-linecap:square;stroke-linejoin:miter;stroke:rgb(39.99939%,39.99939%,39.99939%);stroke-opacity:1;stroke-miterlimit:3.239307;" d="M 250.0625 304.800781 L 335.042969 299.75 L 347.695312 315.117188 L 296.867188 318.75 L 259.46875 321.570312 L 252.605469 311.28125 Z M 250.0625 304.800781 " transform="matrix(1,0,0,1,-74,-13)"/>
<path style="fill-rule:nonzero;fill:rgb(39.99939%,39.99939%,39.99939%);fill-opacity:1;stroke-width:0.03;stroke-linecap:square;stroke-linejoin:miter;stroke:rgb(39.99939%,39.99939%,39.99939%);stroke-opacity:1;stroke-miterlimit:3.239307;" d="M 284.03125 69.398438 L 207.015625 66.859375 L 211.824219 64.429688 L 282.714844 67.804688 Z M 284.03125 69.398438 " transform="matrix(1,0,0,1,-74,-13)"/>
<path style="fill-rule:nonzero;fill:rgb(39.99939%,39.99939%,39.99939%);fill-opacity:1;stroke-width:0.03;stroke-linecap:square;stroke-linejoin:miter;stroke:rgb(39.99939%,39.99939%,39.99939%);stroke-opacity:1;stroke-miterlimit:3.239307;" d="M 315.839844 115.554688 L 315.96875 115.832031 L 316.089844 116.105469 L 316.191406 116.390625 L 316.28125 116.675781 L 316.351562 116.96875 L 316.402344 117.265625 L 316.441406 117.5625 L 316.460938 117.859375 L 316.46875 118.085938 L 316.460938 118.386719 L 316.433594 118.683594 L 316.394531 118.980469 L 316.335938 119.277344 L 316.265625 119.566406 L 316.175781 119.855469 L 316.070312 120.136719 L 315.949219 120.414062 L 315.816406 120.683594 L 315.664062 120.949219 L 315.5 121.203125 L 315.269531 121.515625 L 270.160156 151.632812 L 262.289062 154.332031 L 263.511719 156.074219 L 262.207031 156.941406 L 244.140625 132.9375 L 201.644531 76.480469 L 273.351562 77.480469 L 290.625 77.71875 Z M 315.839844 115.554688 " transform="matrix(1,0,0,1,-74,-13)"/>
<path style=" stroke:none;fill-rule:evenodd;fill:rgb(85.096741%,85.096741%,81.959534%);fill-opacity:0.7;" d="M 39.226562 110 C 39.226562 102.515625 36.253906 95.335938 30.957031 90.042969 C 25.664062 84.746094 18.484375 81.773438 11 81.773438 C 3.515625 81.773438 -3.664062 84.746094 -8.957031 90.042969 C -14.253906 95.335938 -17.226562 102.515625 -17.226562 110 C -17.226562 117.484375 -14.253906 124.664062 -8.957031 129.957031 C -3.664062 135.253906 3.515625 138.226562 11 138.226562 C 18.484375 138.226562 25.664062 135.253906 30.957031 129.957031 C 36.253906 124.664062 39.226562 117.484375 39.226562 110 Z M 39.226562 110 "/>
</g>
</svg>
