<?xml version="1.0" encoding="UTF-8"?>
<svg xmlns="http://www.w3.org/2000/svg" xmlns:xlink="http://www.w3.org/1999/xlink" width="361pt" height="361pt" viewBox="0 0 361 361" version="1.1">
<defs>
<clipPath id="clip1">
  <path d="M 313 0 L 360 0 L 360 136 L 313 136 Z M 313 0 "/>
</clipPath>
<clipPath id="clip2">
  <path d="M 228 85 L 360 85 L 360 358 L 228 358 Z M 228 85 "/>
</clipPath>
<clipPath id="clip3">
  <path d="M 263 237 L 360 237 L 360 360 L 263 360 Z M 263 237 "/>
</clipPath>
<clipPath id="clip4">
  <path d="M 305 0 L 360 0 L 360 35 L 305 35 Z M 305 0 "/>
</clipPath>
<clipPath id="clip5">
  <path d="M 263 315 L 360 315 L 360 360 L 263 360 Z M 263 315 "/>
</clipPath>
<clipPath id="clip6">
  <path d="M 314 358 L 360 358 L 360 360 L 314 360 Z M 314 358 "/>
</clipPath>
<clipPath id="clip7">
  <path d="M 223 315 L 360 315 L 360 360 L 223 360 Z M 223 315 "/>
</clipPath>
</defs>
<g id="surface2086">
<path style="fill-rule:nonzero;fill:rgb(0%,0%,0%);fill-opacity:1;stroke-width:0.03;stroke-linecap:square;stroke-linejoin:miter;stroke:rgb(0%,0%,0%);stroke-opacity:1;stroke-miterlimit:10;" d="M 0 178 L 360 178 L 360 -182 L 0 -182 Z M 0 178 " transform="matrix(1,0,0,1,0,182)"/>
<path style=" stroke:none;fill-rule:nonzero;fill:rgb(39.99939%,39.99939%,39.99939%);fill-opacity:0.3;" d="M 225.863281 194.992188 L 231.105469 199.320312 L 225.179688 195.742188 Z M 225.863281 194.992188 "/>
<path style=" stroke:none;fill-rule:nonzero;fill:rgb(39.99939%,39.99939%,39.99939%);fill-opacity:0.3;" d="M 247.191406 209.039062 L 272.003906 222.761719 L 271.234375 223.566406 Z M 247.191406 209.039062 "/>
<path style=" stroke:none;fill-rule:nonzero;fill:rgb(39.99939%,39.99939%,39.99939%);fill-opacity:0.3;" d="M 284.988281 281.648438 L 285.085938 281.738281 L 284.632812 282.21875 Z M 284.988281 281.648438 "/>
<path style=" stroke:none;fill-rule:nonzero;fill:rgb(39.99939%,39.99939%,39.99939%);fill-opacity:0.3;" d="M 229.234375 72.640625 L 248.558594 66.582031 L 261.96875 105.40625 L 263.253906 104.949219 L 264.339844 104.558594 L 251.546875 65.511719 L 271.972656 59.179688 L 301.929688 147.898438 L 257.089844 162.1875 Z M 229.234375 72.640625 "/>
<path style=" stroke:none;fill-rule:nonzero;fill:rgb(39.99939%,39.99939%,39.99939%);fill-opacity:0.3;" d="M 167.695312 85.546875 L 233.300781 15.917969 L 248.0625 61.84375 Z M 167.695312 85.546875 "/>
<path style=" stroke:none;fill-rule:nonzero;fill:rgb(39.99939%,39.99939%,39.99939%);fill-opacity:0.3;" d="M 283.855469 -36.953125 L 309.164062 43.078125 L 300.925781 45.671875 L 294.144531 23.144531 L 292.707031 23.464844 L 291.683594 23.691406 L 298.347656 46.402344 L 275.667969 53.394531 L 258.761719 2.914062 L 255.230469 -7.253906 L 273.746094 -25.976562 L 279.886719 -7.953125 L 280.796875 -8.464844 L 282.027344 -9.15625 L 275.75 -28.519531 Z M 283.855469 -36.953125 "/>
<path style=" stroke:none;fill-rule:nonzero;fill:rgb(39.99939%,39.99939%,39.99939%);fill-opacity:0.3;" d="M 252.171875 -4.09375 L 254.738281 4.140625 L 272.144531 54.414062 L 250.523438 61.480469 L 235.039062 13.996094 L 245.105469 3.542969 Z M 252.171875 -4.09375 "/>
<path style=" stroke:none;fill-rule:nonzero;fill:rgb(39.99939%,39.99939%,39.99939%);fill-opacity:0.3;" d="M 309.796875 47.398438 L 319.859375 79.84375 L 307.105469 83.007812 L 299.503906 60.902344 L 297.777344 61.304688 L 296.015625 61.714844 L 303.847656 83.519531 L 304.90625 86.203125 L 320.800781 83.0625 L 338.601562 136.730469 L 304.328125 147.015625 L 274.671875 58.28125 Z M 309.796875 47.398438 "/>
<g clip-path="url(#clip1)" clip-rule="nonzero">
<path style=" stroke:none;fill-rule:nonzero;fill:rgb(39.99939%,39.99939%,39.99939%);fill-opacity:0.3;" d="M 448.707031 37.734375 L 449.214844 39.539062 L 473.3125 32.261719 L 491.296875 89.613281 L 342.605469 135.371094 L 330.863281 99.261719 L 360.367188 91.046875 L 359.835938 89.398438 L 359.304688 87.753906 L 329.699219 95.640625 L 322.847656 74.511719 L 351.109375 65.527344 L 350.609375 63.925781 L 350.148438 62.445312 L 321.761719 71.03125 L 313.707031 46.394531 L 379.101562 25.917969 L 392.65625 67.558594 L 393.855469 67.175781 L 395.054688 66.796875 L 381.75 25.03125 L 464.011719 0.628906 L 472.351562 29.320312 L 448.253906 36.144531 Z M 448.707031 37.734375 "/>
</g>
<g clip-path="url(#clip2)" clip-rule="nonzero">
<path style=" stroke:none;fill-rule:nonzero;fill:rgb(39.99939%,39.99939%,39.99939%);fill-opacity:0.3;" d="M 466.816406 292.964844 L 465.894531 292.550781 L 465.140625 293.566406 L 463.71875 294.199219 L 461.363281 294.667969 L 459.28125 295.019531 L 457.078125 295.378906 L 456.21875 295.585938 L 455.523438 296.144531 L 455.148438 297.523438 L 454.828125 298.796875 L 454.828125 300.328125 L 455.90625 302.515625 L 457.199219 304.046875 L 457.738281 304.859375 L 458.167969 305.574219 L 457.769531 306.285156 L 456.074219 306.390625 L 454.140625 306.191406 L 443.703125 303.121094 L 435.757812 300.15625 L 439.777344 281.660156 L 439.050781 281.554688 L 438.285156 281.4375 L 433.984375 299.601562 L 412.515625 294.578125 L 399.992188 288.789062 L 390.984375 283.210938 L 379.707031 275.046875 L 368.441406 269.363281 L 350.625 261.277344 L 309.0625 239.421875 L 274.460938 220.691406 L 235.960938 199.542969 L 228.234375 192.941406 L 242.347656 176.75 L 257.183594 165.25 L 292.410156 154.277344 L 390.175781 124.699219 L 394.550781 125.523438 L 397.757812 126.347656 L 400.539062 129.34375 L 403.878906 133.90625 L 406.847656 138.46875 L 413.835938 154.542969 L 416.46875 161.179688 L 420.273438 171.964844 L 426.882812 193.101562 L 431.085938 208.226562 L 432.832031 221.992188 L 430.328125 233.566406 L 424.617188 249.289062 L 425.886719 249.890625 L 427.296875 250.414062 L 433.304688 234.398438 L 436.660156 221.894531 L 435.195312 207.171875 L 431.308594 192.238281 L 452.949219 186.308594 L 452.394531 184.621094 L 451.835938 182.933594 L 431.121094 188.253906 L 423.738281 167.261719 L 420.023438 157.78125 L 412.648438 140.4375 L 405.496094 128.566406 L 403.003906 124.40625 L 402.417969 121.914062 L 403.289062 119.976562 L 513.820312 87.140625 L 521.496094 85.34375 L 523.089844 85.644531 L 524.363281 86.703125 L 525.496094 97.882812 L 527.589844 114.804688 L 526.960938 120.699219 L 523.9375 125.234375 L 537.253906 122.839844 L 540.199219 144.691406 L 545.769531 178.535156 L 549.128906 211.507812 L 553.539062 236.519531 L 556.773438 249.195312 L 560.253906 259.757812 L 562.984375 266.566406 L 565.964844 274.308594 L 568.761719 282.371094 L 568.886719 283.007812 L 568.550781 283.527344 L 567.960938 283.730469 L 553.042969 285.46875 L 552.027344 283.1875 L 551.308594 281.078125 L 548.722656 279.238281 L 545.738281 277.613281 L 538.855469 271.433594 L 532.472656 264.964844 L 531.582031 265.554688 L 530.695312 266.148438 L 532.910156 268.585938 L 534.765625 270.34375 L 541.433594 276.871094 L 545.597656 280.640625 L 544.414062 282.15625 L 538.207031 280.296875 L 538.003906 280.914062 L 537.785156 281.503906 L 543.375 283.253906 L 542.992188 284.207031 L 541.414062 286.546875 L 541.726562 286.695312 L 541.988281 286.824219 L 543.996094 285.8125 L 545.035156 285.335938 L 546.808594 285.773438 L 549.625 286.429688 L 553.019531 287.519531 L 554.464844 287.320312 L 570.640625 286.121094 L 570.675781 286.214844 L 585.566406 319.71875 L 586.339844 321.886719 L 586.992188 324.089844 L 586.996094 325.765625 L 585.976562 328.414062 L 582.914062 332.207031 L 580.132812 336.003906 L 576.046875 342.222656 L 568.59375 328.027344 L 567.5625 328.488281 L 566.527344 328.945312 L 574.574219 344.589844 L 572.1875 348.003906 L 570.597656 349.867188 L 569.0625 351.527344 L 567.210938 353.390625 L 564.347656 355.257812 L 560.746094 356.71875 L 555.125 357.328125 L 549.8125 357.371094 L 534.457031 323.949219 L 536.402344 323.492188 L 538.273438 324.617188 L 540.316406 325.828125 L 541.078125 325.058594 L 541.84375 324.292969 L 540.226562 323.003906 L 537.417969 321.472656 L 532.488281 321.078125 L 526 320.234375 L 523.304688 319.230469 L 520.769531 317.914062 L 518.726562 316.136719 L 517.0625 312.035156 L 514.074219 304.539062 L 512.199219 300.429688 L 510.4375 296.664062 L 508.953125 294.503906 L 507.164062 291.683594 L 505.375 288.460938 L 503.585938 285.476562 L 502.335938 283.5 L 496.660156 285.222656 L 489.730469 286.625 L 486.925781 285.578125 L 481.308594 282.84375 L 480.121094 284.054688 L 485.992188 287.113281 L 487.523438 287.757812 L 489.5625 288.398438 L 494.40625 287.667969 L 498.148438 286.613281 L 500.949219 286.125 L 503.441406 289.890625 L 506.925781 295.617188 L 508.289062 298.980469 L 510.503906 303.414062 L 512.292969 307.285156 L 514 311.636719 L 515.726562 315.601562 L 517.421875 319.3125 L 519.710938 321.226562 L 521.496094 322.355469 L 522.6875 322.753906 L 523.449219 323.222656 L 523.570312 324.363281 L 523.25 325.894531 L 522.328125 327.515625 L 521.40625 328.933594 L 519.703125 330.6875 L 516.648438 333.320312 L 512.03125 336.429688 L 504.753906 340.46875 L 490.789062 327.800781 L 484.628906 323.15625 L 479.929688 319.601562 L 475.023438 316.441406 L 461.242188 307.15625 L 457.894531 301.546875 L 457.246094 300.476562 L 457.085938 298.898438 L 457.246094 298.183594 L 457.460938 297.875 L 458.425781 297.46875 L 460.84375 296.800781 L 463.367188 296.390625 L 465.277344 295.96875 L 466.253906 295.546875 L 467.140625 294.660156 L 468.164062 293.675781 L 467.179688 293.125 L 467.074219 293.089844 Z M 466.816406 292.964844 "/>
</g>
<path style=" stroke:none;fill-rule:nonzero;fill:rgb(39.99939%,39.99939%,39.99939%);fill-opacity:0.3;" d="M 275.113281 223.65625 L 296.792969 236.054688 L 295.917969 237.039062 L 273.792969 225.027344 Z M 275.113281 223.65625 "/>
<g clip-path="url(#clip3)" clip-rule="nonzero">
<path style=" stroke:none;fill-rule:nonzero;fill:rgb(39.99939%,39.99939%,39.99939%);fill-opacity:0.3;" d="M 297.328125 237.804688 L 298.003906 237.0625 L 337.679688 257.796875 L 359.5 268.390625 L 373.070312 274.640625 L 385.59375 282.707031 L 393.777344 287.910156 L 401.34375 291.699219 L 411.769531 296.476562 L 422.101562 299.796875 L 418.003906 313.355469 L 419.816406 313.941406 L 424.148438 300.457031 L 444.394531 305.957031 L 438.386719 320.335938 L 439.269531 320.71875 L 440.199219 321.121094 L 446.15625 306.703125 L 454.867188 309.28125 L 459.707031 311.109375 L 465.675781 315.121094 L 472.277344 319.878906 L 478.5625 324.191406 L 484.0625 327.910156 L 489.234375 331.472656 L 491.433594 333.109375 L 493.34375 343.089844 L 487.21875 341.457031 L 480.925781 341.4375 L 476.234375 342.8125 L 473.71875 344.199219 L 471.207031 345.839844 L 468.707031 347.910156 L 466.792969 349.925781 L 465.414062 355.679688 L 465.574219 360.296875 L 466.679688 365.0625 L 467.757812 368.632812 L 468.054688 370.390625 L 467.667969 373.585938 L 467.277344 374.882812 L 466.792969 376.085938 L 465.769531 377.519531 L 464.503906 378.496094 L 462.648438 378.730469 L 460.0625 378.175781 L 457.121094 376.839844 L 450.4375 371.578125 L 443.589844 365.375 L 436.671875 359.382812 L 432.230469 355.523438 L 429.464844 353.042969 L 425.167969 349.664062 L 436.34375 338.476562 L 444.765625 327.710938 L 442.390625 325.960938 L 436.074219 334.222656 L 428.148438 323.816406 L 426.339844 324.769531 L 424.988281 325.480469 L 432.914062 336.980469 L 430.808594 339.734375 L 427.121094 342.992188 L 422.292969 347.691406 L 415.238281 343.566406 L 411.148438 340.785156 L 415.316406 334.855469 L 412.863281 333.300781 L 408.453125 339.894531 L 406.566406 338.996094 L 394.847656 333.117188 L 398.71875 326.5625 L 397.429688 325.878906 L 396.144531 325.191406 L 392.238281 331.804688 L 371.453125 323.773438 L 363.847656 321.507812 L 361.679688 320.9375 L 357.265625 319.796875 L 348.789062 317.953125 L 336.480469 316.054688 L 318.546875 314.074219 L 331.058594 298.046875 L 324.75 294.359375 L 316.050781 289.433594 L 316.578125 287.503906 L 315.925781 283.722656 L 323.332031 276.148438 L 317.113281 270.875 L 315.722656 272.109375 L 320.617188 276.234375 L 313.246094 283.496094 L 314.039062 286.746094 L 312.589844 289.984375 L 314.902344 291.625 L 321.640625 295.265625 L 327.800781 298.910156 L 320.695312 308.226562 L 314.441406 313.992188 L 301.003906 313.054688 L 282.148438 311.335938 L 263.933594 308.042969 L 287.535156 283.84375 L 288.277344 278.554688 L 287.308594 277.925781 L 308.570312 243.90625 Z M 297.328125 237.804688 "/>
</g>
<path style=" stroke:none;fill-rule:nonzero;fill:rgb(39.99939%,39.99939%,39.99939%);fill-opacity:0.3;" d="M 297.40625 -52.167969 L 303.125 -53.875 L 332.277344 35.667969 L 312.15625 42.433594 L 286.289062 -39.824219 Z M 297.40625 -52.167969 "/>
<g clip-path="url(#clip4)" clip-rule="nonzero">
<path style=" stroke:none;fill-rule:nonzero;fill:rgb(39.99939%,39.99939%,39.99939%);fill-opacity:0.3;" d="M 305.140625 -54.472656 L 337.035156 -64.566406 L 348.777344 -30.707031 L 349.992188 -31.074219 L 351.035156 -31.390625 L 339.347656 -65.371094 L 412.808594 -87.382812 L 447.113281 -41.003906 L 428.632812 -35.144531 L 429.246094 -33.621094 L 429.910156 -31.972656 L 448.898438 -37.910156 L 459.523438 -2.804688 L 415.25 10.445312 L 406.042969 -23.628906 L 404.464844 -23.414062 L 402.816406 -23.183594 L 412.125 11.40625 L 334.730469 34.289062 Z M 305.140625 -54.472656 "/>
</g>
<path style=" stroke:none;fill-rule:nonzero;fill:rgb(39.99939%,39.99939%,39.99939%);fill-opacity:0.3;" d="M 186.308594 158.796875 L 210.886719 182.398438 L 210.554688 182.78125 L 189.902344 163.417969 Z M 186.308594 158.796875 "/>
<path style=" stroke:none;fill-rule:nonzero;fill:rgb(39.99939%,39.99939%,39.99939%);fill-opacity:0.3;" d="M 212.238281 184.359375 L 212.539062 184.015625 L 222.695312 192.578125 L 221.921875 193.4375 Z M 212.238281 184.359375 "/>
<path style=" stroke:none;fill-rule:nonzero;fill:rgb(39.99939%,39.99939%,39.99939%);fill-opacity:0.3;" d="M 142.527344 115.527344 L 143.214844 114.78125 L 150.167969 120.914062 L 160.867188 130.734375 L 168.003906 138.558594 L 171.691406 143.015625 L 153.269531 126.269531 Z M 142.527344 115.527344 "/>
<path style=" stroke:none;fill-rule:nonzero;fill:rgb(39.99939%,39.99939%,39.99939%);fill-opacity:0.3;" d="M 145.367188 112.859375 L 159.671875 94.105469 L 178.390625 88.3125 L 186.089844 107.222656 L 194.539062 116.671875 L 195.332031 115.917969 L 196.324219 114.96875 L 187.621094 105.035156 L 180.472656 87.515625 L 201.574219 80.617188 L 218.890625 129.46875 L 219.863281 129.285156 L 220.835938 129.105469 L 203.515625 79.832031 L 225.914062 72.320312 L 253.6875 162.53125 L 238.734375 174.878906 L 225.136719 190.59375 L 218.015625 184.644531 L 185.84375 154.484375 L 178.675781 145.78125 L 189.445312 131.472656 L 188.292969 130.746094 L 187.144531 130.019531 L 176.679688 143.371094 L 161.5625 127.308594 Z M 145.367188 112.859375 "/>
<g clip-path="url(#clip5)" clip-rule="nonzero">
<path style=" stroke:none;fill-rule:nonzero;fill:rgb(39.99939%,39.99939%,39.99939%);fill-opacity:0.3;" d="M 263.558594 315.894531 L 300.5 316.808594 L 335.851562 319.8125 L 346.402344 321.25 L 359.242188 323.9375 L 373.578125 328.335938 L 388.675781 334.421875 L 399.738281 339.859375 L 407.671875 343.644531 L 414.925781 347.460938 L 417.890625 349.414062 L 424.808594 354.351562 L 431.683594 360.003906 L 463.269531 389.042969 L 473.300781 398.597656 L 482.550781 406.367188 L 501.90625 423.507812 L 504.394531 425.699219 L 502.570312 428.617188 L 513.921875 439.453125 L 536.1875 453.492188 L 551.214844 466.167969 L 552.027344 466.871094 L 541.085938 466.0625 L 532.734375 466.070312 L 526.472656 466.574219 L 518.988281 467.90625 L 513.25 468.902344 L 503.507812 471.554688 L 487.484375 460.347656 L 465.359375 440.730469 L 448.351562 424.796875 L 419.429688 397.921875 L 409.484375 390.460938 L 398.289062 381.90625 L 392.90625 378.238281 L 388.25 375.011719 L 380.238281 371.222656 L 369.617188 366.945312 L 355.8125 362.488281 L 341.886719 359.039062 L 329.007812 356.410156 L 316.476562 355.4375 L 309.691406 356.105469 L 297.507812 347.71875 L 290.402344 342.625 L 280.714844 336.3125 L 270.8125 328.367188 L 265.859375 322.847656 Z M 263.558594 315.894531 "/>
</g>
<g clip-path="url(#clip6)" clip-rule="nonzero">
<path style=" stroke:none;fill-rule:nonzero;fill:rgb(39.99939%,39.99939%,39.99939%);fill-opacity:0.3;" d="M 334.621094 391.238281 L 333.746094 384.96875 L 331.125 377.871094 L 326.09375 371.085938 L 321.363281 366.824219 L 314.28125 359.578125 L 314.339844 359.035156 L 314.738281 358.871094 L 325.878906 359.222656 L 332.316406 360.039062 L 337.886719 360.859375 L 343.109375 362.171875 L 348.15625 363.652344 L 356.863281 365.953125 L 361.796875 367.820312 L 371.03125 371.050781 L 376.703125 373.261719 L 382.132812 375.542969 L 389.074219 379.824219 L 402.957031 389.535156 L 410.871094 395.511719 L 417.140625 400.671875 L 424.386719 407.527344 L 430.097656 413.15625 L 439.070312 420.898438 L 452.527344 433.882812 L 461.765625 441.625 L 468.605469 446.675781 L 472.566406 449.921875 L 477.316406 454.417969 L 481.273438 457.914062 L 484.078125 461.851562 L 483.726562 462.769531 L 482.453125 463.023438 L 474.425781 461.921875 L 469.523438 461.765625 L 463.160156 461.355469 L 455.1875 461.433594 L 447.714844 461.878906 L 440.40625 463.046875 L 432.578125 464.707031 L 426.1875 457.730469 L 421.175781 453.988281 L 415.636719 449.742188 L 411.324219 446.078125 L 406.445312 442.285156 L 400.351562 437.503906 L 390.738281 430.839844 L 384.398438 425.988281 L 379.269531 421.128906 L 372.625 415.527344 L 367.050781 411.078125 L 359.949219 406.277344 L 349.347656 400.234375 Z M 334.621094 391.238281 "/>
</g>
<g clip-path="url(#clip7)" clip-rule="nonzero">
<path style=" stroke:none;fill-rule:nonzero;fill:rgb(39.99939%,39.99939%,39.99939%);fill-opacity:0.3;" d="M 236.414062 315.027344 L 247.320312 317.613281 L 254.398438 321.410156 L 260.714844 325.394531 L 268.148438 329.964844 L 281.15625 339.226562 L 291.933594 345.789062 L 300.109375 351.882812 L 306.679688 357.277344 L 313.492188 363.023438 L 319.617188 369.804688 L 325.816406 378.953125 L 329.664062 387.285156 L 332.769531 395.738281 L 337.003906 405.777344 L 340.867188 422.796875 L 343.605469 433.480469 L 348.96875 448.558594 L 351.703125 455.132812 L 355.929688 463.730469 L 360.027344 472.1875 L 364.617188 480.871094 L 373.441406 492.535156 L 383.480469 501.917969 L 392.527344 510.949219 L 403.5 520.050781 L 419.042969 533.636719 L 444.132812 557.054688 L 453.945312 566.566406 L 458.4375 571.152344 L 462.457031 574.507812 L 465.292969 577.078125 L 466.320312 578.351562 L 458.183594 585.011719 L 450.332031 585.289062 L 443.753906 584.828125 L 438.816406 583.898438 L 434.867188 582.1875 L 432.507812 579.902344 L 430.121094 577.777344 L 426.332031 574.722656 L 423.101562 571.398438 L 418.890625 567.808594 L 414.539062 563.824219 L 409.628906 558.902344 L 402.039062 553.234375 L 396 546.664062 L 389.058594 540.664062 L 383.625 536.09375 L 373.660156 526.953125 L 362.1875 515.238281 L 351.921875 504.667969 L 340.710938 491.660156 L 335.164062 481.496094 L 330.199219 469.523438 L 325.925781 455.246094 L 323.226562 444.207031 L 319.445312 430.449219 L 315.261719 415.324219 L 313.273438 409.570312 L 310.101562 401.160156 L 304.964844 391.726562 L 297.714844 382.582031 L 289.261719 373.726562 L 279.300781 366.585938 L 268.4375 359.734375 L 257.273438 352.882812 L 245.199219 344.890625 L 223.53125 333.265625 Z M 236.414062 315.027344 "/>
</g>
<path style=" stroke:none;fill-rule:nonzero;fill:rgb(39.99939%,39.99939%,39.99939%);fill-opacity:0.3;" d="M 233.082031 316.300781 L 222.066406 332.339844 L 215 328.648438 L 204.019531 321.664062 L 195.015625 315.617188 L 183.402344 308.210938 L 177.039062 304.632812 L 170.578125 300.195312 L 165.246094 296.351562 L 160.421875 292.746094 L 152.902344 287.242188 L 152.84375 285.953125 L 153.722656 284.667969 L 155.078125 284.777344 L 173.105469 293.210938 L 176.40625 294.652344 L 187.574219 299.933594 L 191.128906 301.851562 L 196.203125 304.011719 L 205.402344 308.183594 L 218.640625 313.386719 Z M 233.082031 316.300781 "/>
<path style=" stroke:none;fill-rule:nonzero;fill:rgb(39.99939%,39.99939%,39.99939%);fill-opacity:0.3;" d="M 231.84375 -22.136719 L 250.25 -8.5 L 199.445312 45.882812 L 180.90625 30.472656 Z M 231.84375 -22.136719 "/>
<path style=" stroke:none;fill-rule:nonzero;fill:rgb(39.99939%,39.99939%,39.99939%);fill-opacity:0.3;" d="M 46.425781 125.324219 L 36.492188 135.808594 L 35.695312 135.191406 Z M 46.425781 125.324219 "/>
<path style=" stroke:none;fill-rule:nonzero;fill:rgb(39.99939%,39.99939%,39.99939%);fill-opacity:0.3;" d="M 80.835938 61.335938 L 96.246094 74.296875 L 94.890625 75.648438 L 80.519531 61.777344 Z M 80.835938 61.335938 "/>
<path style=" stroke:none;fill-rule:nonzero;fill:rgb(39.99939%,39.99939%,39.99939%);fill-opacity:0.3;" d="M 135.316406 -5.363281 L 153.8125 9.222656 L 97.78125 70.324219 L 84.417969 58.328125 L 92.578125 53.144531 L 123.023438 14.457031 L 126.78125 8.679688 Z M 135.316406 -5.363281 "/>
<path style=" stroke:none;fill-rule:nonzero;fill:rgb(39.99939%,39.99939%,39.99939%);fill-opacity:0.3;" d="M 96.789062 42.03125 L 89.898438 49.792969 L 89.785156 49.691406 Z M 96.789062 42.03125 "/>
<path style=" stroke:none;fill-rule:nonzero;fill:rgb(39.99939%,39.99939%,39.99939%);fill-opacity:0.3;" d="M 137.980469 -13.503906 L 119.761719 9.457031 L 130.050781 -7.363281 Z M 137.980469 -13.503906 "/>
<path style=" stroke:none;fill-rule:nonzero;fill:rgb(39.99939%,39.99939%,39.99939%);fill-opacity:0.3;" d="M 137.046875 -8.253906 L 143.195312 -16.375 L 145.558594 -19.375 L 154.925781 -26.632812 L 159.257812 -29.054688 L 166.785156 -31.988281 L 172.9375 -35.242188 L 178.75 -38.171875 L 183.878906 -42.070312 L 186.953125 -45.324219 L 188.660156 -48.246094 L 193.367188 -53.773438 L 203.722656 -45.019531 L 155.546875 6.65625 Z M 137.046875 -8.253906 "/>
<path style=" stroke:none;fill-rule:nonzero;fill:rgb(39.99939%,39.99939%,39.99939%);fill-opacity:0.3;" d="M 41.800781 138.386719 L 67.636719 110.253906 L 109.425781 143.644531 L 96.886719 154.570312 L 82.578125 167.039062 L 81.425781 167.496094 L 80.074219 167.40625 L 77.375 166.316406 L 69.828125 161.730469 L 64.105469 157.4375 L 58.378906 152.582031 L 53.445312 147.914062 L 47.523438 143.242188 Z M 41.800781 138.386719 "/>
<path style=" stroke:none;fill-rule:nonzero;fill:rgb(39.99939%,39.99939%,39.99939%);fill-opacity:0.3;" d="M 97.546875 79.007812 L 139.546875 111.757812 L 111.792969 140.40625 L 88.367188 122.003906 L 70.625 107.429688 Z M 97.546875 79.007812 "/>
<path style=" stroke:none;fill-rule:nonzero;fill:rgb(39.99939%,39.99939%,39.99939%);fill-opacity:0.3;" d="M 156.785156 12.363281 L 175.128906 29.316406 L 130.296875 73.117188 L 132.429688 75.046875 L 134.304688 76.746094 L 178.769531 33.480469 L 196.097656 47.988281 L 140.738281 107.324219 L 99.816406 75.074219 Z M 156.785156 12.363281 "/>
<path style=" stroke:none;fill-rule:nonzero;fill:rgb(39.99939%,39.99939%,39.99939%);fill-opacity:0.3;" d="M 207.734375 -41.574219 L 226.804688 -26.082031 L 177.433594 25.988281 L 159.402344 9.484375 Z M 207.734375 -41.574219 "/>
<path style=" stroke:none;fill-rule:nonzero;fill:rgb(39.99939%,39.99939%,39.99939%);fill-opacity:0.3;" d="M 231.105469 199.320312 L 232.679688 200.621094 L 226.53125 206.960938 L 227.488281 207.886719 L 228.554688 208.921875 L 235.289062 202.453125 L 247.191406 209.039062 L 271.234375 223.566406 L 244.925781 251.09375 L 230.8125 244.046875 L 225.023438 241.34375 L 220.992188 239.542969 L 216.003906 237.253906 L 208.820312 233.371094 L 202.515625 229.417969 L 198.417969 224.992188 L 225.179688 195.742188 Z M 231.105469 199.320312 "/>
<path style=" stroke:none;fill-rule:nonzero;fill:rgb(39.99939%,39.99939%,39.99939%);fill-opacity:0.3;" d="M 195.332031 227.757812 L 201.144531 232.578125 L 210.796875 238.460938 L 222.78125 244.257812 L 235.003906 250.058594 L 237.296875 251.453125 L 238.253906 253.039062 L 238.183594 254.320312 L 236.835938 255.632812 L 231.261719 261.074219 L 226.683594 265.261719 L 220.882812 270.6875 L 213.796875 277.082031 L 205.332031 284.871094 L 199.578125 280.34375 L 190.414062 272.910156 L 181.90625 266.410156 L 176.671875 263.003906 L 168.78125 258.484375 L 168.027344 257.769531 L 167.726562 256.773438 L 167.523438 255.773438 L 167.824219 254.679688 L 168.523438 253.296875 L 169.363281 252.265625 L 178.441406 244.082031 L 187.484375 234.980469 L 192.476562 230.5 Z M 195.332031 227.757812 "/>
<path style=" stroke:none;fill-rule:nonzero;fill:rgb(39.99939%,39.99939%,39.99939%);fill-opacity:0.3;" d="M 244.785156 254.621094 L 271.933594 271.742188 L 280.792969 277.757812 L 284.988281 281.648438 L 284.632812 282.21875 L 259.984375 308.570312 L 249.527344 307.527344 L 237.878906 302.652344 L 224.128906 296.039062 L 210.347656 287.105469 L 222.125 276.328125 L 229.234375 269.355469 L 237.484375 261.203125 Z M 244.785156 254.621094 "/>
<path style=" stroke:none;fill-rule:nonzero;fill:rgb(39.99939%,39.99939%,39.99939%);fill-opacity:0.3;" d="M 295.917969 237.039062 L 286.976562 247.082031 L 287.515625 247.550781 L 288.054688 248.015625 L 297.328125 237.804688 L 308.570312 243.90625 L 287.308594 277.925781 L 271.253906 267.5 L 265.398438 264.238281 L 256.734375 258.589844 L 247.300781 252.578125 L 273.792969 225.027344 Z M 295.917969 237.039062 "/>
<path style=" stroke:none;fill-rule:nonzero;fill:rgb(39.99939%,39.99939%,39.99939%);fill-opacity:0.3;" d="M 74.089844 188.179688 L 80.515625 193.546875 L 88.242188 200.855469 L 94.78125 207.886719 L 100.429688 214.636719 L 103.699219 219.699219 L 109.914062 231.902344 L 109.554688 232.671875 L 108.542969 232.84375 L 93.753906 228.5625 L 86.417969 226.949219 L 75.179688 224.050781 L 51.429688 220.199219 L 73.296875 190.25 Z M 74.089844 188.179688 "/>
<path style=" stroke:none;fill-rule:nonzero;fill:rgb(39.99939%,39.99939%,39.99939%);fill-opacity:0.3;" d="M 88.714844 181.507812 L 92.5 185.1875 L 96.53125 189.527344 L 101.445312 194.28125 L 111.148438 204.425781 L 118.6875 213.351562 L 126.871094 221.449219 L 133.578125 227.695312 L 140.503906 235.320312 L 146.167969 241.871094 L 149.949219 246.757812 L 156.742188 252.710938 L 166.605469 260.386719 L 178.429688 266.929688 L 200.832031 284.078125 L 209.285156 289.589844 L 223.5 298.277344 L 233.375 302.496094 L 234.957031 303.144531 L 235.660156 303.507812 L 235.835938 304.367188 L 235.28125 305.117188 L 234.023438 305.316406 L 231.574219 304.863281 L 221.445312 301.796875 L 214.078125 299.617188 L 199.378906 293.511719 L 186.421875 287.984375 L 170.152344 280.0625 L 160.84375 276.015625 L 154.160156 272.976562 L 147.816406 269.855469 L 139.945312 265.773438 L 134.675781 263.15625 L 130.136719 252.15625 L 125.75 241.835938 L 120.214844 230.246094 L 116.484375 222.882812 L 111.296875 214.449219 L 105.300781 206.324219 L 100.113281 200.347656 L 95.417969 195.902344 L 90.074219 191 L 84.242188 184.40625 Z M 88.714844 181.507812 "/>
<path style=" stroke:none;fill-rule:nonzero;fill:rgb(39.99939%,39.99939%,39.99939%);fill-opacity:0.3;" d="M 155.484375 186.371094 L 193.097656 224.648438 L 183.976562 232.601562 L 171.566406 245.132812 L 162.128906 254.453125 L 157.5625 250.136719 L 146.992188 238.539062 L 142.90625 233.535156 L 139.300781 229.445312 L 136.175781 225.578125 L 131.613281 221.488281 L 127.765625 217.621094 L 123.921875 213.300781 L 131.589844 206.917969 L 140.9375 199.851562 L 146.449219 194.609375 L 151.242188 190.277344 Z M 155.484375 186.371094 "/>
<path style=" stroke:none;fill-rule:nonzero;fill:rgb(39.99939%,39.99939%,39.99939%);fill-opacity:0.3;" d="M 112.566406 147.792969 L 129.554688 163.777344 L 116.957031 175.753906 L 118.042969 176.582031 L 130.679688 164.675781 L 151.691406 183.5625 L 119.574219 210.894531 L 114.976562 205.394531 L 104.511719 193.511719 L 99.300781 188.425781 L 94.609375 183.660156 L 88.515625 178.132812 L 84.117188 173.492188 Z M 112.566406 147.792969 "/>
<path style=" stroke:none;fill-rule:nonzero;fill:rgb(39.99939%,39.99939%,39.99939%);fill-opacity:0.3;" d="M 184.015625 156.597656 L 186.308594 158.796875 L 189.902344 163.417969 L 210.554688 182.78125 L 203.789062 190.566406 L 204.722656 191.257812 L 205.660156 191.949219 L 212.238281 184.359375 L 221.921875 193.4375 L 195.339844 222.914062 L 157.996094 183.777344 Z M 184.015625 156.597656 "/>
<path style=" stroke:none;fill-rule:nonzero;fill:rgb(39.99939%,39.99939%,39.99939%);fill-opacity:0.3;" d="M 114.65625 145.53125 L 142.527344 115.527344 L 153.269531 126.269531 L 171.691406 143.015625 L 180.222656 153.332031 L 153.980469 181.34375 Z M 114.65625 145.53125 "/>
<path style=" stroke:none;fill-rule:nonzero;fill:rgb(39.99939%,39.99939%,39.99939%);fill-opacity:0.3;" d="M -48.402344 69.027344 L -1.164062 33.675781 L 14.332031 46.695312 L -31.902344 80.542969 Z M -48.402344 69.027344 "/>
<path style=" stroke:none;fill-rule:nonzero;fill:rgb(39.99939%,39.99939%,39.99939%);fill-opacity:0.3;" d="M -45.019531 -5.542969 L -21.570312 -52.285156 L 2.96875 -32.605469 L -23.867188 9.335938 Z M -45.019531 -5.542969 "/>
<path style=" stroke:none;fill-rule:nonzero;fill:rgb(39.99939%,39.99939%,39.99939%);fill-opacity:0.3;" d="M -29.445312 83.191406 L 18.105469 49.03125 L 33.011719 64.851562 L -14.640625 95.640625 Z M -29.445312 83.191406 "/>
<path style=" stroke:none;fill-rule:nonzero;fill:rgb(39.99939%,39.99939%,39.99939%);fill-opacity:0.3;" d="M 40.316406 82.359375 L 37.703125 84.445312 L 63.734375 107.0625 L 46.425781 125.324219 L 35.695312 135.191406 L -11.160156 98.785156 L 52.746094 57.195312 L 65.007812 68.085938 L 79.28125 60.027344 L 80.835938 61.335938 L 80.519531 61.777344 L 94.890625 75.648438 L 67.542969 102.898438 L 42.191406 80.859375 Z M 40.316406 82.359375 "/>
<path style=" stroke:none;fill-rule:nonzero;fill:rgb(39.99939%,39.99939%,39.99939%);fill-opacity:0.3;" d="M 65.277344 -6.617188 L 75.816406 8.238281 L 18.734375 44.550781 L 3.4375 31.78125 Z M 65.277344 -6.617188 "/>
<path style=" stroke:none;fill-rule:nonzero;fill:rgb(39.99939%,39.99939%,39.99939%);fill-opacity:0.3;" d="M 57.332031 24.414062 L 86.339844 51.082031 L 65.75 64.03125 L 52.65625 51.644531 L 36.332031 62.519531 L 22.539062 47.699219 Z M 57.332031 24.414062 "/>
<path style=" stroke:none;fill-rule:nonzero;fill:rgb(39.99939%,39.99939%,39.99939%);fill-opacity:0.3;" d="M 60.554688 23.285156 L 78.285156 13.742188 L 102.878906 35.167969 L 96.789062 42.03125 L 89.785156 49.691406 Z M 60.554688 23.285156 "/>
<path style=" stroke:none;fill-rule:nonzero;fill:rgb(39.99939%,39.99939%,39.99939%);fill-opacity:0.3;" d="M -12.390625 18.808594 L -13.023438 13.992188 L 53.492188 -26.910156 L 63.40625 -11.28125 L 1.195312 29.183594 Z M -12.390625 18.808594 "/>
<path style=" stroke:none;fill-rule:nonzero;fill:rgb(39.99939%,39.99939%,39.99939%);fill-opacity:0.3;" d="M -20.476562 10.601562 L 7.5625 -30.261719 L 24.652344 -14.5 L -0.902344 1.792969 L -6.03125 4.902344 L -12.097656 9.117188 L -17.226562 13.109375 Z M -20.476562 10.601562 "/>
<path style=" stroke:none;fill-rule:nonzero;fill:rgb(39.99939%,39.99939%,39.99939%);fill-opacity:0.3;" d="M 67.410156 -8.199219 L 125.640625 -42.527344 L 138.605469 -28.925781 L 78.15625 7.828125 Z M 67.410156 -8.199219 "/>
<path style=" stroke:none;fill-rule:nonzero;fill:rgb(39.99939%,39.99939%,39.99939%);fill-opacity:0.3;" d="M 82.027344 9.949219 L 141.535156 -26.378906 L 145.742188 -23.285156 L 137.980469 -13.503906 L 130.050781 -7.363281 L 119.761719 9.457031 L 104.328125 28.898438 Z M 82.027344 9.949219 "/>
<path style=" stroke:none;fill-rule:nonzero;fill:rgb(39.99939%,39.99939%,39.99939%);fill-opacity:0.3;" d="M -15.644531 116.273438 L 14.445312 142.046875 L 6.914062 150.402344 L -7.835938 165.332031 L -12.941406 171.214844 L -16.617188 168.480469 L -27.269531 156.425781 L -35.589844 150.804688 L -49.960938 144.636719 L -54.945312 142.15625 L -57.308594 139.671875 L -56 137.929688 L -41.851562 129.949219 Z M -15.644531 116.273438 "/>
<path style=" stroke:none;fill-rule:nonzero;fill:rgb(39.99939%,39.99939%,39.99939%);fill-opacity:0.3;" d="M -17.964844 172.59375 L -5.539062 183.582031 L 1.59375 190.714844 L -4.429688 210.390625 L -8.867188 226.816406 L -12.300781 244.0625 L -30.394531 250.839844 L -34.972656 233.429688 L -35.601562 221.074219 L -33.289062 208.464844 L -29.632812 197.761719 L -22.277344 180.046875 Z M -17.964844 172.59375 "/>
<path style=" stroke:none;fill-rule:nonzero;fill:rgb(39.99939%,39.99939%,39.99939%);fill-opacity:0.3;" d="M 32.726562 156.40625 L 53.523438 173.835938 L 50.5625 178.34375 L 47.011719 185.949219 L 45.535156 191.019531 L 44.054688 194.117188 L 40.9375 200.371094 L 36.652344 208.449219 L 26.5625 205.683594 L 16.761719 199.503906 L 10.703125 192.777344 L 7.261719 188.039062 Z M 32.726562 156.40625 "/>
<path style=" stroke:none;fill-rule:nonzero;fill:rgb(39.99939%,39.99939%,39.99939%);fill-opacity:0.3;" d="M 5.726562 191.386719 L 16.425781 202.636719 L 25.636719 208.535156 L 41.476562 218.195312 L 47.835938 223.40625 L 29.6875 227.914062 L 14.746094 232.410156 L -7.796875 240.152344 L -4.414062 223.480469 L -2.328125 213.773438 L 1.882812 201.246094 Z M 5.726562 191.386719 "/>
<path style=" stroke:none;fill-rule:nonzero;fill:rgb(39.99939%,39.99939%,39.99939%);fill-opacity:0.3;" d="M 56.453125 176.402344 L 70.414062 185.113281 L 74.089844 188.179688 L 73.296875 190.25 L 51.429688 220.199219 L 47.671875 219.589844 L 38.914062 213.082031 L 43.589844 204.183594 L 46.390625 198.84375 L 48.765625 192.621094 L 51.417969 184.574219 Z M 56.453125 176.402344 "/>
<path style=" stroke:none;fill-rule:nonzero;fill:rgb(39.99939%,39.99939%,39.99939%);fill-opacity:0.3;" d="M 17.207031 143.886719 L 30.625 154.179688 L 3.179688 185.628906 L -11.195312 173.546875 L -1.730469 163.582031 L 10.605469 150.851562 Z M 17.207031 143.886719 "/>
<path style="fill-rule:nonzero;fill:rgb(39.99939%,39.99939%,39.99939%);fill-opacity:1;stroke-width:0.03;stroke-linecap:square;stroke-linejoin:miter;stroke:rgb(39.99939%,39.99939%,39.99939%);stroke-opacity:1;stroke-miterlimit:3.239307;" d="M 305.105469 212.320312 L 306.679688 213.621094 L 300.53125 219.960938 L 301.488281 220.886719 L 302.554688 221.921875 L 309.289062 215.453125 L 321.191406 222.039062 L 345.234375 236.566406 L 318.925781 264.09375 L 304.8125 257.046875 L 299.023438 254.34375 L 294.992188 252.542969 L 290.003906 250.253906 L 282.820312 246.371094 L 276.515625 242.417969 L 272.417969 237.992188 L 299.179688 208.742188 Z M 305.105469 212.320312 " transform="matrix(1,0,0,1,-74,-13)"/>
<path style="fill-rule:nonzero;fill:rgb(39.99939%,39.99939%,39.99939%);fill-opacity:1;stroke-width:0.03;stroke-linecap:square;stroke-linejoin:miter;stroke:rgb(39.99939%,39.99939%,39.99939%);stroke-opacity:1;stroke-miterlimit:3.239307;" d="M 269.332031 240.757812 L 275.144531 245.578125 L 284.796875 251.460938 L 296.78125 257.257812 L 309.003906 263.058594 L 311.296875 264.453125 L 312.253906 266.039062 L 312.183594 267.320312 L 310.835938 268.632812 L 305.261719 274.074219 L 300.683594 278.261719 L 294.882812 283.6875 L 287.796875 290.082031 L 279.332031 297.871094 L 273.578125 293.34375 L 264.414062 285.910156 L 255.90625 279.410156 L 250.671875 276.003906 L 242.78125 271.484375 L 242.027344 270.769531 L 241.726562 269.773438 L 241.523438 268.773438 L 241.824219 267.679688 L 242.523438 266.296875 L 243.363281 265.265625 L 252.441406 257.082031 L 261.484375 247.980469 L 266.476562 243.5 Z M 269.332031 240.757812 " transform="matrix(1,0,0,1,-74,-13)"/>
<path style="fill-rule:nonzero;fill:rgb(39.99939%,39.99939%,39.99939%);fill-opacity:1;stroke-width:0.03;stroke-linecap:square;stroke-linejoin:miter;stroke:rgb(39.99939%,39.99939%,39.99939%);stroke-opacity:1;stroke-miterlimit:3.239307;" d="M 318.785156 267.621094 L 345.933594 284.742188 L 354.792969 290.757812 L 358.988281 294.648438 L 358.632812 295.21875 L 333.984375 321.570312 L 323.527344 320.527344 L 311.878906 315.652344 L 298.128906 309.039062 L 284.347656 300.105469 L 296.125 289.328125 L 303.234375 282.355469 L 311.484375 274.203125 Z M 318.785156 267.621094 " transform="matrix(1,0,0,1,-74,-13)"/>
<path style="fill-rule:nonzero;fill:rgb(39.99939%,39.99939%,39.99939%);fill-opacity:1;stroke-width:0.03;stroke-linecap:square;stroke-linejoin:miter;stroke:rgb(39.99939%,39.99939%,39.99939%);stroke-opacity:1;stroke-miterlimit:3.239307;" d="M 369.917969 250.039062 L 360.976562 260.082031 L 361.515625 260.550781 L 362.054688 261.015625 L 371.328125 250.804688 L 382.570312 256.90625 L 361.308594 290.925781 L 345.253906 280.5 L 339.398438 277.238281 L 330.734375 271.589844 L 321.300781 265.578125 L 347.792969 238.027344 Z M 369.917969 250.039062 " transform="matrix(1,0,0,1,-74,-13)"/>
<path style="fill-rule:nonzero;fill:rgb(39.99939%,39.99939%,39.99939%);fill-opacity:1;stroke-width:0.03;stroke-linecap:square;stroke-linejoin:miter;stroke:rgb(39.99939%,39.99939%,39.99939%);stroke-opacity:1;stroke-miterlimit:3.239307;" d="M 148.089844 201.179688 L 154.515625 206.546875 L 162.242188 213.855469 L 168.78125 220.886719 L 174.429688 227.636719 L 177.699219 232.699219 L 183.914062 244.902344 L 183.554688 245.671875 L 182.542969 245.84375 L 167.753906 241.5625 L 160.417969 239.949219 L 149.179688 237.050781 L 125.429688 233.199219 L 147.296875 203.25 Z M 148.089844 201.179688 " transform="matrix(1,0,0,1,-74,-13)"/>
<path style="fill-rule:nonzero;fill:rgb(39.99939%,39.99939%,39.99939%);fill-opacity:1;stroke-width:0.03;stroke-linecap:square;stroke-linejoin:miter;stroke:rgb(39.99939%,39.99939%,39.99939%);stroke-opacity:1;stroke-miterlimit:3.239307;" d="M 162.714844 194.507812 L 166.5 198.1875 L 170.53125 202.527344 L 175.445312 207.28125 L 185.148438 217.425781 L 192.6875 226.351562 L 200.871094 234.449219 L 207.578125 240.695312 L 214.503906 248.320312 L 220.167969 254.871094 L 223.949219 259.757812 L 230.742188 265.710938 L 240.605469 273.386719 L 252.429688 279.929688 L 274.832031 297.078125 L 283.285156 302.589844 L 297.5 311.277344 L 307.375 315.496094 L 308.957031 316.144531 L 309.660156 316.507812 L 309.835938 317.367188 L 309.28125 318.117188 L 308.023438 318.316406 L 305.574219 317.863281 L 295.445312 314.796875 L 288.078125 312.617188 L 273.378906 306.511719 L 260.421875 300.984375 L 244.152344 293.0625 L 234.84375 289.015625 L 228.160156 285.976562 L 221.816406 282.855469 L 213.945312 278.773438 L 208.675781 276.15625 L 204.136719 265.15625 L 199.75 254.835938 L 194.214844 243.246094 L 190.484375 235.882812 L 185.296875 227.449219 L 179.300781 219.324219 L 174.113281 213.347656 L 169.417969 208.902344 L 164.074219 204 L 158.242188 197.40625 Z M 162.714844 194.507812 " transform="matrix(1,0,0,1,-74,-13)"/>
<path style="fill-rule:nonzero;fill:rgb(39.99939%,39.99939%,39.99939%);fill-opacity:1;stroke-width:0.03;stroke-linecap:square;stroke-linejoin:miter;stroke:rgb(39.99939%,39.99939%,39.99939%);stroke-opacity:1;stroke-miterlimit:3.239307;" d="M 229.484375 199.371094 L 267.097656 237.648438 L 257.976562 245.601562 L 245.566406 258.132812 L 236.128906 267.453125 L 231.5625 263.136719 L 220.992188 251.539062 L 216.90625 246.535156 L 213.300781 242.445312 L 210.175781 238.578125 L 205.613281 234.488281 L 201.765625 230.621094 L 197.921875 226.300781 L 205.589844 219.917969 L 214.9375 212.851562 L 220.449219 207.609375 L 225.242188 203.277344 Z M 229.484375 199.371094 " transform="matrix(1,0,0,1,-74,-13)"/>
<path style="fill-rule:nonzero;fill:rgb(39.99939%,39.99939%,39.99939%);fill-opacity:1;stroke-width:0.03;stroke-linecap:square;stroke-linejoin:miter;stroke:rgb(39.99939%,39.99939%,39.99939%);stroke-opacity:1;stroke-miterlimit:3.239307;" d="M 186.566406 160.792969 L 203.554688 176.777344 L 190.957031 188.753906 L 192.042969 189.582031 L 204.679688 177.675781 L 225.691406 196.5625 L 193.574219 223.894531 L 188.976562 218.394531 L 178.511719 206.511719 L 173.300781 201.425781 L 168.609375 196.660156 L 162.515625 191.132812 L 158.117188 186.492188 Z M 186.566406 160.792969 " transform="matrix(1,0,0,1,-74,-13)"/>
<path style="fill-rule:nonzero;fill:rgb(39.99939%,39.99939%,39.99939%);fill-opacity:1;stroke-width:0.03;stroke-linecap:square;stroke-linejoin:miter;stroke:rgb(39.99939%,39.99939%,39.99939%);stroke-opacity:1;stroke-miterlimit:3.239307;" d="M 258.015625 169.597656 L 260.308594 171.796875 L 263.902344 176.417969 L 284.554688 195.78125 L 277.789062 203.566406 L 278.722656 204.257812 L 279.660156 204.949219 L 286.238281 197.359375 L 295.921875 206.4375 L 269.339844 235.914062 L 231.996094 196.777344 Z M 258.015625 169.597656 " transform="matrix(1,0,0,1,-74,-13)"/>
<path style="fill-rule:nonzero;fill:rgb(39.99939%,39.99939%,39.99939%);fill-opacity:1;stroke-width:0.03;stroke-linecap:square;stroke-linejoin:miter;stroke:rgb(39.99939%,39.99939%,39.99939%);stroke-opacity:1;stroke-miterlimit:3.239307;" d="M 188.65625 158.53125 L 216.527344 128.527344 L 227.269531 139.269531 L 245.691406 156.015625 L 254.222656 166.332031 L 227.980469 194.34375 Z M 188.65625 158.53125 " transform="matrix(1,0,0,1,-74,-13)"/>
<path style=" stroke:none;fill-rule:evenodd;fill:rgb(85.096741%,85.096741%,81.959534%);fill-opacity:0.7;" d="M 172.636719 185 C 172.636719 179.527344 170.464844 174.277344 166.59375 170.40625 C 162.722656 166.535156 157.472656 164.363281 152 164.363281 C 146.527344 164.363281 141.277344 166.535156 137.40625 170.40625 C 133.535156 174.277344 131.363281 179.527344 131.363281 185 C 131.363281 190.472656 133.535156 195.722656 137.40625 199.59375 C 141.277344 203.464844 146.527344 205.636719 152 205.636719 C 157.472656 205.636719 162.722656 203.464844 166.59375 199.59375 C 170.464844 195.722656 172.636719 190.472656 172.636719 185 Z M 172.636719 185 "/>
</g>
</svg>
