<?xml version="1.0" encoding="UTF-8"?>
<svg xmlns="http://www.w3.org/2000/svg" xmlns:xlink="http://www.w3.org/1999/xlink" width="361pt" height="361pt" viewBox="0 0 361 361" version="1.1">
<defs>
<clipPath id="clip1">
  <path d="M 133 333 L 158 333 L 158 360 L 133 360 Z M 133 333 "/>
</clipPath>
<clipPath id="clip2">
  <path d="M 185 343 L 209 343 L 209 360 L 185 360 Z M 185 343 "/>
</clipPath>
<clipPath id="clip3">
  <path d="M 158 338 L 183 338 L 183 360 L 158 360 Z M 158 338 "/>
</clipPath>
<clipPath id="clip4">
  <path d="M 211 349 L 236 349 L 236 360 L 211 360 Z M 211 349 "/>
</clipPath>
<clipPath id="clip5">
  <path d="M 239 354 L 263 354 L 263 360 L 239 360 Z M 239 354 "/>
</clipPath>
<clipPath id="clip6">
  <path d="M 264 359 L 289 359 L 289 360 L 264 360 Z M 264 359 "/>
</clipPath>
<clipPath id="clip7">
  <path d="M 286 309 L 313 309 L 313 360 L 286 360 Z M 286 309 "/>
</clipPath>
<clipPath id="clip8">
  <path d="M 312 314 L 337 314 L 337 360 L 312 360 Z M 312 314 "/>
</clipPath>
<clipPath id="clip9">
  <path d="M 303 185 L 360 185 L 360 257 L 303 257 Z M 303 185 "/>
</clipPath>
<clipPath id="clip10">
  <path d="M 351 129 L 360 129 L 360 194 L 351 194 Z M 351 129 "/>
</clipPath>
<clipPath id="clip11">
  <path d="M 358 208 L 360 208 L 360 255 L 358 255 Z M 358 208 "/>
</clipPath>
<clipPath id="clip12">
  <path d="M 347 70 L 360 70 L 360 128 L 347 128 Z M 347 70 "/>
</clipPath>
<clipPath id="clip13">
  <path d="M 343 10 L 360 10 L 360 68 L 343 68 Z M 343 10 "/>
</clipPath>
<clipPath id="clip14">
  <path d="M 337 0 L 360 0 L 360 9 L 337 9 Z M 337 0 "/>
</clipPath>
<clipPath id="clip15">
  <path d="M 347 350 L 360 350 L 360 360 L 347 360 Z M 347 350 "/>
</clipPath>
<clipPath id="clip16">
  <path d="M 340 338 L 360 338 L 360 360 L 340 360 Z M 340 338 "/>
</clipPath>
<clipPath id="clip17">
  <path d="M 342 282 L 360 282 L 360 330 L 342 330 Z M 342 282 "/>
</clipPath>
<clipPath id="clip18">
  <path d="M 337 327 L 360 327 L 360 360 L 337 360 Z M 337 327 "/>
</clipPath>
<clipPath id="clip19">
  <path d="M 314 260 L 360 260 L 360 317 L 314 317 Z M 314 260 "/>
</clipPath>
<clipPath id="clip20">
  <path d="M 52 357 L 92 357 L 92 360 L 52 360 Z M 52 357 "/>
</clipPath>
<clipPath id="clip21">
  <path d="M 67 355 L 73 355 L 73 360 L 67 360 Z M 67 355 "/>
</clipPath>
<clipPath id="clip22">
  <path d="M 100 352 L 130 352 L 130 360 L 100 360 Z M 100 352 "/>
</clipPath>
<clipPath id="clip23">
  <path d="M 0 352 L 16 352 L 16 360 L 0 360 Z M 0 352 "/>
</clipPath>
<clipPath id="clip24">
  <path d="M 7 350 L 57 350 L 57 360 L 7 360 Z M 7 350 "/>
</clipPath>
<clipPath id="clip25">
  <path d="M 30 348 L 67 348 L 67 360 L 30 360 Z M 30 348 "/>
</clipPath>
<clipPath id="clip26">
  <path d="M 57 351 L 71 351 L 71 360 L 57 360 Z M 57 351 "/>
</clipPath>
<clipPath id="clip27">
  <path d="M 141 353 L 177 353 L 177 360 L 141 360 Z M 141 353 "/>
</clipPath>
</defs>
<g id="surface2142">
<path style="fill-rule:nonzero;fill:rgb(0%,0%,0%);fill-opacity:1;stroke-width:0.03;stroke-linecap:square;stroke-linejoin:miter;stroke:rgb(0%,0%,0%);stroke-opacity:1;stroke-miterlimit:10;" d="M 0 178 L 360 178 L 360 -182 L 0 -182 Z M 0 178 " transform="matrix(1,0,0,1,0,182)"/>
<g clip-path="url(#clip1)" clip-rule="nonzero">
<path style=" stroke:none;fill-rule:nonzero;fill:rgb(39.99939%,39.99939%,39.99939%);fill-opacity:0.3;" d="M 133.164062 333.003906 L 154.621094 338.15625 L 157.929688 385.382812 L 149.515625 381.3125 L 134.839844 373.125 Z M 133.164062 333.003906 "/>
</g>
<g clip-path="url(#clip2)" clip-rule="nonzero">
<path style=" stroke:none;fill-rule:nonzero;fill:rgb(39.99939%,39.99939%,39.99939%);fill-opacity:0.3;" d="M 185.621094 343.664062 L 207.050781 347.6875 L 208.9375 393.761719 L 187.886719 389.566406 Z M 185.621094 343.664062 "/>
</g>
<g clip-path="url(#clip3)" clip-rule="nonzero">
<path style=" stroke:none;fill-rule:nonzero;fill:rgb(39.99939%,39.99939%,39.99939%);fill-opacity:0.3;" d="M 158.871094 338.34375 L 180.53125 342.730469 L 182.859375 388.90625 L 161.835938 385.433594 Z M 158.871094 338.34375 "/>
</g>
<g clip-path="url(#clip4)" clip-rule="nonzero">
<path style=" stroke:none;fill-rule:nonzero;fill:rgb(39.99939%,39.99939%,39.99939%);fill-opacity:0.3;" d="M 211.707031 349.027344 L 234.589844 353.8125 L 235.191406 398.925781 L 213.425781 394.621094 Z M 211.707031 349.027344 "/>
</g>
<path style=" stroke:none;fill-rule:nonzero;fill:rgb(39.99939%,39.99939%,39.99939%);fill-opacity:0.3;" d="M 129.011719 278.101562 L 149.640625 282.695312 L 153.597656 332.882812 L 132.351562 328.703125 Z M 129.011719 278.101562 "/>
<path style=" stroke:none;fill-rule:nonzero;fill:rgb(39.99939%,39.99939%,39.99939%);fill-opacity:0.3;" d="M 180.339844 289.917969 L 202.378906 293.457031 L 206.429688 341.835938 L 184.363281 337.449219 Z M 180.339844 289.917969 "/>
<path style=" stroke:none;fill-rule:nonzero;fill:rgb(39.99939%,39.99939%,39.99939%);fill-opacity:0.3;" d="M 154.132812 284.5 L 175.511719 289.203125 L 179.910156 337.070312 L 158.25 332.683594 Z M 154.132812 284.5 "/>
<path style=" stroke:none;fill-rule:nonzero;fill:rgb(39.99939%,39.99939%,39.99939%);fill-opacity:0.3;" d="M 206.945312 294.386719 L 228.714844 298.179688 L 233.085938 346.601562 L 210.777344 342.808594 Z M 206.945312 294.386719 "/>
<path style=" stroke:none;fill-rule:nonzero;fill:rgb(39.99939%,39.99939%,39.99939%);fill-opacity:0.3;" d="M 133.023438 273.304688 L 126.003906 271.722656 L 125.914062 270.863281 Z M 133.023438 273.304688 "/>
<g clip-path="url(#clip5)" clip-rule="nonzero">
<path style=" stroke:none;fill-rule:nonzero;fill:rgb(39.99939%,39.99939%,39.99939%);fill-opacity:0.3;" d="M 239.253906 354.667969 L 260.941406 358.546875 L 262.542969 404.410156 L 239.515625 399.886719 Z M 239.253906 354.667969 "/>
</g>
<g clip-path="url(#clip6)" clip-rule="nonzero">
<path style=" stroke:none;fill-rule:nonzero;fill:rgb(39.99939%,39.99939%,39.99939%);fill-opacity:0.3;" d="M 268.03125 359.65625 L 287.335938 362.847656 L 288.214844 408 L 268.03125 405.078125 L 265.886719 404.765625 L 264.585938 359.085938 Z M 268.03125 359.65625 "/>
</g>
<path style=" stroke:none;fill-rule:nonzero;fill:rgb(39.99939%,39.99939%,39.99939%);fill-opacity:0.3;" d="M 268.03125 305.515625 L 282.007812 308.371094 L 283.042969 322.894531 L 285.503906 357.296875 L 268.03125 353.730469 L 262.476562 352.597656 L 259.828125 319.574219 L 258.546875 303.578125 Z M 268.03125 305.515625 "/>
<path style=" stroke:none;fill-rule:nonzero;fill:rgb(39.99939%,39.99939%,39.99939%);fill-opacity:0.3;" d="M 233.554688 299.109375 L 254.785156 302.902344 L 258.617188 351.582031 L 237.53125 347.167969 Z M 233.554688 299.109375 "/>
<g clip-path="url(#clip7)" clip-rule="nonzero">
<path style=" stroke:none;fill-rule:nonzero;fill:rgb(39.99939%,39.99939%,39.99939%);fill-opacity:0.3;" d="M 286.4375 309.371094 L 308.445312 313.902344 L 312.367188 361.628906 L 290.109375 357.65625 Z M 286.4375 309.371094 "/>
</g>
<g clip-path="url(#clip8)" clip-rule="nonzero">
<path style=" stroke:none;fill-rule:nonzero;fill:rgb(39.99939%,39.99939%,39.99939%);fill-opacity:0.3;" d="M 312.050781 314.617188 L 333.390625 318.730469 L 336.339844 366.511719 L 316.015625 362.171875 Z M 312.050781 314.617188 "/>
</g>
<path style=" stroke:none;fill-rule:nonzero;fill:rgb(39.99939%,39.99939%,39.99939%);fill-opacity:0.3;" d="M 268.03125 137.597656 L 268.957031 137.550781 L 269.949219 150.195312 L 268.03125 149.003906 L 251.042969 138.441406 Z M 268.03125 137.597656 "/>
<path style=" stroke:none;fill-rule:nonzero;fill:rgb(39.99939%,39.99939%,39.99939%);fill-opacity:0.3;" d="M 272.984375 137.21875 L 294.933594 136.304688 L 296.414062 158.019531 L 273.640625 149.835938 Z M 272.984375 137.21875 "/>
<path style=" stroke:none;fill-rule:nonzero;fill:rgb(39.99939%,39.99939%,39.99939%);fill-opacity:0.3;" d="M 213.75 83.507812 L 236.808594 81.828125 L 241.21875 129.757812 L 217.890625 120.425781 L 215.832031 119.75 Z M 213.75 83.507812 "/>
<path style=" stroke:none;fill-rule:nonzero;fill:rgb(39.99939%,39.99939%,39.99939%);fill-opacity:0.3;" d="M 212.285156 60.3125 L 234.914062 59.25 L 235.980469 77.59375 L 213.574219 78.855469 Z M 212.285156 60.3125 "/>
<path style=" stroke:none;fill-rule:nonzero;fill:rgb(39.99939%,39.99939%,39.99939%);fill-opacity:0.3;" d="M 131.515625 30.140625 L 153.328125 28.539062 L 156.671875 82.976562 L 135.777344 83.695312 Z M 131.515625 30.140625 "/>
<path style=" stroke:none;fill-rule:nonzero;fill:rgb(39.99939%,39.99939%,39.99939%);fill-opacity:0.3;" d="M 133.640625 87.371094 L 156.480469 87.171875 L 157.191406 99.152344 L 147.511719 96.246094 Z M 133.640625 87.371094 "/>
<path style=" stroke:none;fill-rule:nonzero;fill:rgb(39.99939%,39.99939%,39.99939%);fill-opacity:0.3;" d="M 183.34375 25.734375 L 204.933594 24.519531 L 208.582031 79.703125 L 187.347656 80.917969 Z M 183.34375 25.734375 "/>
<path style=" stroke:none;fill-rule:nonzero;fill:rgb(39.99939%,39.99939%,39.99939%);fill-opacity:0.3;" d="M 159.921875 85.8125 L 184.316406 84.933594 L 186.117188 109.886719 L 161.171875 100.4375 Z M 159.921875 85.8125 "/>
<path style=" stroke:none;fill-rule:nonzero;fill:rgb(39.99939%,39.99939%,39.99939%);fill-opacity:0.3;" d="M 157.46875 27.796875 L 179.417969 26.078125 L 183.421875 81.429688 L 160.941406 82.644531 Z M 157.46875 27.796875 "/>
<path style=" stroke:none;fill-rule:nonzero;fill:rgb(39.99939%,39.99939%,39.99939%);fill-opacity:0.3;" d="M 188.957031 84.417969 L 210.371094 83.542969 L 212.507812 118.65625 L 190.773438 111.515625 Z M 188.957031 84.417969 "/>
<path style=" stroke:none;fill-rule:nonzero;fill:rgb(39.99939%,39.99939%,39.99939%);fill-opacity:0.3;" d="M 98.195312 -28.066406 L 120.769531 -29.484375 L 125.726562 25.675781 L 102.988281 27.089844 Z M 98.195312 -28.066406 "/>
<path style=" stroke:none;fill-rule:nonzero;fill:rgb(39.99939%,39.99939%,39.99939%);fill-opacity:0.3;" d="M 123.894531 -30.117188 L 146.796875 -31.84375 L 151.625 23.335938 L 128.558594 25.132812 Z M 123.894531 -30.117188 "/>
<path style=" stroke:none;fill-rule:nonzero;fill:rgb(39.99939%,39.99939%,39.99939%);fill-opacity:0.3;" d="M 177.855469 -34.058594 L 200.128906 -35.765625 L 204.046875 19.511719 L 183.097656 20.9375 Z M 177.855469 -34.058594 "/>
<path style=" stroke:none;fill-rule:nonzero;fill:rgb(39.99939%,39.99939%,39.99939%);fill-opacity:0.3;" d="M 151.34375 -32.464844 L 173.433594 -34.035156 L 178.238281 21.378906 L 155.847656 22.851562 Z M 151.34375 -32.464844 "/>
<path style=" stroke:none;fill-rule:nonzero;fill:rgb(39.99939%,39.99939%,39.99939%);fill-opacity:0.3;" d="M 268.03125 57.675781 L 273.175781 57.445312 L 270.53125 19.511719 L 285.378906 18.289062 L 289.484375 71.832031 L 268.03125 73.371094 L 266.140625 73.507812 L 265.472656 57.792969 Z M 268.03125 57.675781 "/>
<path style=" stroke:none;fill-rule:nonzero;fill:rgb(39.99939%,39.99939%,39.99939%);fill-opacity:0.3;" d="M 241.648438 81.085938 L 261.992188 79.773438 L 266.332031 134.171875 L 246.765625 134.9375 Z M 241.648438 81.085938 "/>
<path style=" stroke:none;fill-rule:nonzero;fill:rgb(39.99939%,39.99939%,39.99939%);fill-opacity:0.3;" d="M 238.917969 59.007812 L 261.324219 58.015625 L 261.851562 74.128906 L 240.097656 75.597656 Z M 238.917969 59.007812 "/>
<path style=" stroke:none;fill-rule:nonzero;fill:rgb(39.99939%,39.99939%,39.99939%);fill-opacity:0.3;" d="M 268.746094 78.597656 L 290.152344 77.25 L 294.039062 132.667969 L 271.953125 133.617188 Z M 268.746094 78.597656 "/>
<path style=" stroke:none;fill-rule:nonzero;fill:rgb(39.99939%,39.99939%,39.99939%);fill-opacity:0.3;" d="M 206.925781 -7.914062 L 263.410156 -11.765625 L 267.746094 53.996094 L 211.726562 56.488281 Z M 206.925781 -7.914062 "/>
<path style=" stroke:none;fill-rule:nonzero;fill:rgb(39.99939%,39.99939%,39.99939%);fill-opacity:0.3;" d="M 268.03125 -40.875 L 282.398438 -42.1875 L 285.824219 12.679688 L 270.1875 13.960938 L 268.167969 -16.261719 L 268.03125 -16.261719 L 259.226562 -15.695312 L 257.421875 -39.90625 Z M 268.03125 -40.875 "/>
<path style=" stroke:none;fill-rule:nonzero;fill:rgb(39.99939%,39.99939%,39.99939%);fill-opacity:0.3;" d="M 76.875 34.542969 L 97.929688 32.820312 L 101.929688 76.164062 L 80.324219 66.542969 Z M 76.875 34.542969 "/>
<path style=" stroke:none;fill-rule:nonzero;fill:rgb(39.99939%,39.99939%,39.99939%);fill-opacity:0.3;" d="M -0.695312 57.84375 L -1.628906 49.078125 L 5.054688 52.777344 L 12.738281 55.738281 L 18.074219 57.53125 Z M -0.695312 57.84375 "/>
<path style=" stroke:none;fill-rule:nonzero;fill:rgb(39.99939%,39.99939%,39.99939%);fill-opacity:0.3;" d="M 51 36.777344 L 72.234375 35.054688 L 75.5 64.683594 L 52.636719 55.90625 L 51.726562 44.394531 Z M 51 36.777344 "/>
<path style=" stroke:none;fill-rule:nonzero;fill:rgb(39.99939%,39.99939%,39.99939%);fill-opacity:0.3;" d="M 21.765625 59.640625 L 22.207031 59.871094 L 14.089844 59.480469 Z M 21.765625 59.640625 "/>
<path style=" stroke:none;fill-rule:nonzero;fill:rgb(39.99939%,39.99939%,39.99939%);fill-opacity:0.3;" d="M 7.425781 40.214844 L 44.71875 37.117188 L 45.277344 51.335938 L 38.679688 56.933594 L 32.976562 60.097656 L 19.160156 54.5 L 7.441406 49.1875 Z M 7.425781 40.214844 "/>
<path style=" stroke:none;fill-rule:nonzero;fill:rgb(39.99939%,39.99939%,39.99939%);fill-opacity:0.3;" d="M 102.746094 31.96875 L 123.671875 29.976562 L 128.09375 85.257812 L 106.953125 78.402344 Z M 102.746094 31.96875 "/>
<path style=" stroke:none;fill-rule:nonzero;fill:rgb(39.99939%,39.99939%,39.99939%);fill-opacity:0.3;" d="M -7.902344 -20.898438 L 13.757812 -22.515625 L 19.289062 33.601562 L 6.234375 34.886719 L -3.316406 29.027344 Z M -7.902344 -20.898438 "/>
<path style=" stroke:none;fill-rule:nonzero;fill:rgb(39.99939%,39.99939%,39.99939%);fill-opacity:0.3;" d="M 18.777344 -22.035156 L 40.429688 -23.859375 L 45.058594 31.34375 L 24.140625 32.957031 Z M 18.777344 -22.035156 "/>
<path style=" stroke:none;fill-rule:nonzero;fill:rgb(39.99939%,39.99939%,39.99939%);fill-opacity:0.3;" d="M 71.226562 -26.183594 L 93.648438 -27.753906 L 97.527344 27.015625 L 75.589844 28.601562 Z M 71.226562 -26.183594 "/>
<path style=" stroke:none;fill-rule:nonzero;fill:rgb(39.99939%,39.99939%,39.99939%);fill-opacity:0.3;" d="M 44.75 -24.226562 L 67.050781 -25.929688 L 71.46875 29.207031 L 49.855469 31.140625 Z M 44.75 -24.226562 "/>
<g clip-path="url(#clip9)" clip-rule="nonzero">
<path style=" stroke:none;fill-rule:nonzero;fill:rgb(39.99939%,39.99939%,39.99939%);fill-opacity:0.3;" d="M 303.765625 185.511719 L 342.027344 200.773438 L 342.464844 214.019531 L 343.554688 214.140625 L 344.421875 214.242188 L 344.140625 201.90625 L 355.246094 207.542969 L 357.195312 224.035156 L 343.726562 224.632812 L 340.417969 222.484375 L 339.386719 222.972656 L 338.355469 223.464844 L 343.730469 226.984375 L 357.558594 226.574219 L 361.109375 255.160156 L 359.160156 256.589844 L 357.367188 256.875 L 323.523438 249.015625 L 308.554688 244.027344 Z M 303.765625 185.511719 "/>
</g>
<path style=" stroke:none;fill-rule:nonzero;fill:rgb(39.99939%,39.99939%,39.99939%);fill-opacity:0.3;" d="M 298.5 135.960938 L 322.449219 134.191406 L 325.601562 170.984375 L 300.015625 161.621094 Z M 298.5 135.960938 "/>
<path style=" stroke:none;fill-rule:nonzero;fill:rgb(39.99939%,39.99939%,39.99939%);fill-opacity:0.3;" d="M 326.171875 133.878906 L 348.683594 132.460938 L 353.136719 181.34375 L 329.175781 171.285156 Z M 326.171875 133.878906 "/>
<g clip-path="url(#clip10)" clip-rule="nonzero">
<path style=" stroke:none;fill-rule:nonzero;fill:rgb(39.99939%,39.99939%,39.99939%);fill-opacity:0.3;" d="M 351.746094 132.246094 L 376.964844 129.300781 L 380.566406 193.375 L 356.09375 182.1875 Z M 351.746094 132.246094 "/>
</g>
<g clip-path="url(#clip11)" clip-rule="nonzero">
<path style=" stroke:none;fill-rule:nonzero;fill:rgb(39.99939%,39.99939%,39.99939%);fill-opacity:0.3;" d="M 385.578125 253.203125 L 382.082031 252.734375 L 377.839844 252.976562 L 371.347656 253.457031 L 364.410156 254.175781 L 358.566406 208.75 L 384.367188 219.769531 Z M 385.578125 253.203125 "/>
</g>
<path style=" stroke:none;fill-rule:nonzero;fill:rgb(39.99939%,39.99939%,39.99939%);fill-opacity:0.3;" d="M 321.914062 74.609375 L 344.699219 72.792969 L 349.230469 128.46875 L 325.683594 130.234375 Z M 321.914062 74.609375 "/>
<path style=" stroke:none;fill-rule:nonzero;fill:rgb(39.99939%,39.99939%,39.99939%);fill-opacity:0.3;" d="M 319.015625 74.730469 L 322.214844 130.523438 L 298.785156 132.15625 L 295.121094 76.421875 Z M 319.015625 74.730469 "/>
<g clip-path="url(#clip12)" clip-rule="nonzero">
<path style=" stroke:none;fill-rule:nonzero;fill:rgb(39.99939%,39.99939%,39.99939%);fill-opacity:0.3;" d="M 347.984375 72.25 L 372.136719 70.484375 L 376.476562 125.246094 L 352.503906 127.878906 Z M 347.984375 72.25 "/>
</g>
<path style=" stroke:none;fill-rule:nonzero;fill:rgb(39.99939%,39.99939%,39.99939%);fill-opacity:0.3;" d="M 285.644531 -42.613281 L 308.210938 -44.601562 L 312.144531 10.777344 L 289.496094 12.40625 Z M 285.644531 -42.613281 "/>
<path style=" stroke:none;fill-rule:nonzero;fill:rgb(39.99939%,39.99939%,39.99939%);fill-opacity:0.3;" d="M 289.75 16.726562 L 313.480469 14.804688 L 318.636719 70.050781 L 294.328125 71.859375 Z M 289.75 16.726562 "/>
<path style=" stroke:none;fill-rule:nonzero;fill:rgb(39.99939%,39.99939%,39.99939%);fill-opacity:0.3;" d="M 316.734375 14.535156 L 340.671875 12.804688 L 343.863281 68.207031 L 321.65625 69.761719 Z M 316.734375 14.535156 "/>
<path style=" stroke:none;fill-rule:nonzero;fill:rgb(39.99939%,39.99939%,39.99939%);fill-opacity:0.3;" d="M 311.957031 -45.019531 L 334.269531 -46.726562 L 338.675781 8.542969 L 316 10.453125 Z M 311.957031 -45.019531 "/>
<g clip-path="url(#clip13)" clip-rule="nonzero">
<path style=" stroke:none;fill-rule:nonzero;fill:rgb(39.99939%,39.99939%,39.99939%);fill-opacity:0.3;" d="M 343.101562 12.621094 L 367.171875 10.996094 L 371.6875 66.054688 L 346.757812 67.863281 Z M 343.101562 12.621094 "/>
</g>
<g clip-path="url(#clip14)" clip-rule="nonzero">
<path style=" stroke:none;fill-rule:nonzero;fill:rgb(39.99939%,39.99939%,39.99939%);fill-opacity:0.3;" d="M 337.84375 -47.328125 L 361.316406 -49.148438 L 365.820312 5.988281 L 341.703125 8.175781 Z M 337.84375 -47.328125 "/>
</g>
<g clip-path="url(#clip15)" clip-rule="nonzero">
<path style=" stroke:none;fill-rule:nonzero;fill:rgb(39.99939%,39.99939%,39.99939%);fill-opacity:0.3;" d="M 381.058594 350.578125 L 394.464844 360.042969 L 362.597656 406.6875 L 347.632812 396.203125 Z M 381.058594 350.578125 "/>
</g>
<g clip-path="url(#clip16)" clip-rule="nonzero">
<path style=" stroke:none;fill-rule:nonzero;fill:rgb(39.99939%,39.99939%,39.99939%);fill-opacity:0.3;" d="M 342.308594 394.605469 L 341.199219 390.101562 L 340.203125 373.558594 L 364.816406 338.609375 L 378.957031 348.75 L 347.5625 390.019531 L 343.839844 393.976562 Z M 342.308594 394.605469 "/>
</g>
<g clip-path="url(#clip17)" clip-rule="nonzero">
<path style=" stroke:none;fill-rule:nonzero;fill:rgb(39.99939%,39.99939%,39.99939%);fill-opacity:0.3;" d="M 373.445312 282.453125 L 389.773438 295.453125 L 358.257812 329.175781 L 342.640625 317.097656 Z M 373.445312 282.453125 "/>
</g>
<g clip-path="url(#clip18)" clip-rule="nonzero">
<path style=" stroke:none;fill-rule:nonzero;fill:rgb(39.99939%,39.99939%,39.99939%);fill-opacity:0.3;" d="M 348.683594 327.085938 L 361.804688 337.050781 L 339.046875 366.582031 L 337.039062 343.699219 Z M 348.683594 327.085938 "/>
</g>
<g clip-path="url(#clip19)" clip-rule="nonzero">
<path style=" stroke:none;fill-rule:nonzero;fill:rgb(39.99939%,39.99939%,39.99939%);fill-opacity:0.3;" d="M 314.535156 310.820312 L 359.957031 260.871094 L 360.585938 263.03125 L 360.984375 265.714844 L 361.625 268.941406 L 362.066406 271.851562 L 364.703125 274.96875 L 367.339844 277.464844 L 371.511719 280.789062 L 340.132812 316.019531 Z M 314.535156 310.820312 "/>
</g>
<path style=" stroke:none;fill-rule:nonzero;fill:rgb(39.99939%,39.99939%,39.99939%);fill-opacity:0.3;" d="M 308.417969 283.097656 L 334.382812 255.175781 L 356.480469 260.625 L 312.703125 309.515625 L 311.402344 309.515625 L 310.421875 308.976562 L 309.851562 307.742188 Z M 308.417969 283.097656 "/>
<path style=" stroke:none;fill-rule:nonzero;fill:rgb(39.99939%,39.99939%,39.99939%);fill-opacity:0.3;" d="M 307.25 249.566406 L 330.898438 254.984375 L 308.253906 279.203125 L 308.105469 274.78125 L 308.570312 273.691406 L 307.640625 261.128906 Z M 307.25 249.566406 "/>
<path style=" stroke:none;fill-rule:nonzero;fill:rgb(39.99939%,39.99939%,39.99939%);fill-opacity:0.3;" d="M 335.898438 319.089844 L 339.972656 319.660156 L 343.78125 322.753906 L 347.398438 325.777344 L 337.226562 339.824219 Z M 335.898438 319.089844 "/>
<path style=" stroke:none;fill-rule:nonzero;fill:rgb(39.99939%,39.99939%,39.99939%);fill-opacity:0.3;" d="M 359.160156 256.589844 L 358.429688 257.121094 L 357.367188 256.875 Z M 359.160156 256.589844 "/>
<path style=" stroke:none;fill-rule:nonzero;fill:rgb(39.99939%,39.99939%,39.99939%);fill-opacity:0.3;" d="M 323.523438 249.015625 L 308.683594 245.566406 L 308.554688 244.027344 Z M 323.523438 249.015625 "/>
<path style=" stroke:none;fill-rule:nonzero;fill:rgb(39.99939%,39.99939%,39.99939%);fill-opacity:0.3;" d="M 243.804688 156.578125 L 251.566406 241.792969 L 228.800781 236.644531 L 220.613281 147.039062 Z M 243.804688 156.578125 "/>
<path style=" stroke:none;fill-rule:nonzero;fill:rgb(39.99939%,39.99939%,39.99939%);fill-opacity:0.3;" d="M 299.894531 184.09375 L 304.488281 251.878906 L 283.636719 247.402344 L 276.320312 172.066406 Z M 299.894531 184.09375 "/>
<path style=" stroke:none;fill-rule:nonzero;fill:rgb(39.99939%,39.99939%,39.99939%);fill-opacity:0.3;" d="M 241.21875 129.757812 L 241.730469 135.3125 L 216.097656 124.382812 L 215.832031 119.75 L 217.890625 120.425781 Z M 241.21875 129.757812 "/>
<path style=" stroke:none;fill-rule:nonzero;fill:rgb(39.99939%,39.99939%,39.99939%);fill-opacity:0.3;" d="M 157.191406 99.152344 L 157.394531 102.574219 L 147.511719 96.246094 Z M 157.191406 99.152344 "/>
<path style=" stroke:none;fill-rule:nonzero;fill:rgb(39.99939%,39.99939%,39.99939%);fill-opacity:0.3;" d="M 186.117188 109.886719 L 186.503906 115.234375 L 161.683594 106.464844 L 161.171875 100.4375 Z M 186.117188 109.886719 "/>
<path style=" stroke:none;fill-rule:nonzero;fill:rgb(39.99939%,39.99939%,39.99939%);fill-opacity:0.3;" d="M 212.507812 118.65625 L 212.785156 123.207031 L 190.933594 113.867188 L 190.773438 111.515625 Z M 212.507812 118.65625 "/>
<path style=" stroke:none;fill-rule:nonzero;fill:rgb(39.99939%,39.99939%,39.99939%);fill-opacity:0.3;" d="M 53.804688 135.472656 L 54.832031 135.390625 L 55.511719 145.226562 Z M 53.804688 135.472656 "/>
<path style=" stroke:none;fill-rule:nonzero;fill:rgb(39.99939%,39.99939%,39.99939%);fill-opacity:0.3;" d="M 61.9375 173.449219 L 111.046875 170.472656 L 112.082031 185.355469 L 62.464844 187.371094 Z M 61.9375 173.449219 "/>
<path style=" stroke:none;fill-rule:nonzero;fill:rgb(39.99939%,39.99939%,39.99939%);fill-opacity:0.3;" d="M 60.675781 156.484375 L 109.839844 152.230469 L 111.015625 167.929688 L 62.125 171.210938 Z M 60.675781 156.484375 "/>
<path style=" stroke:none;fill-rule:nonzero;fill:rgb(39.99939%,39.99939%,39.99939%);fill-opacity:0.3;" d="M 90.300781 189.734375 L 112.757812 187.625 L 113.894531 202.300781 L 103.152344 203.152344 L 95.847656 203.410156 L 88.972656 203.019531 L 84.585938 202.707031 L 78.175781 202.554688 L 69.570312 201.285156 L 63.15625 198.894531 L 62.636719 190.574219 Z M 90.300781 189.734375 "/>
<path style=" stroke:none;fill-rule:nonzero;fill:rgb(39.99939%,39.99939%,39.99939%);fill-opacity:0.3;" d="M 53.195312 116.347656 L 53.796875 116.304688 L 54.738281 132.382812 L 53.523438 132.476562 Z M 53.195312 116.347656 "/>
<path style=" stroke:none;fill-rule:nonzero;fill:rgb(39.99939%,39.99939%,39.99939%);fill-opacity:0.3;" d="M 51.429688 78.742188 L 52.332031 92.8125 L 51.472656 92.882812 L 51.429688 92.328125 Z M 51.429688 78.742188 "/>
<path style=" stroke:none;fill-rule:nonzero;fill:rgb(39.99939%,39.99939%,39.99939%);fill-opacity:0.3;" d="M 55.554688 76.269531 L 62.15625 75.582031 L 75.015625 82.675781 L 75.742188 91.816406 L 56.828125 93.199219 Z M 55.554688 76.269531 "/>
<path style=" stroke:none;fill-rule:nonzero;fill:rgb(39.99939%,39.99939%,39.99939%);fill-opacity:0.3;" d="M 55.90625 96.980469 L 77.320312 95.257812 L 82.753906 150.273438 L 61.164062 152.164062 Z M 55.90625 96.980469 "/>
<path style=" stroke:none;fill-rule:nonzero;fill:rgb(39.99939%,39.99939%,39.99939%);fill-opacity:0.3;" d="M 82.019531 94.566406 L 97.367188 94.039062 L 105.9375 98.257812 L 108.867188 147.179688 L 87.214844 149.25 Z M 82.019531 94.566406 "/>
<path style=" stroke:none;fill-rule:nonzero;fill:rgb(39.99939%,39.99939%,39.99939%);fill-opacity:0.3;" d="M 108.988281 96.910156 L 133.632812 110.082031 L 135.824219 145.121094 L 112.09375 146.339844 Z M 108.988281 96.910156 "/>
<path style=" stroke:none;fill-rule:nonzero;fill:rgb(39.99939%,39.99939%,39.99939%);fill-opacity:0.3;" d="M 140.121094 150.078125 L 163.375 147.910156 L 169.613281 226.105469 L 147.460938 222.339844 Z M 140.121094 150.078125 "/>
<path style=" stroke:none;fill-rule:nonzero;fill:rgb(39.99939%,39.99939%,39.99939%);fill-opacity:0.3;" d="M 137.226562 110.089844 L 160.976562 120.722656 L 162.078125 142.898438 L 139.417969 144.453125 Z M 137.226562 110.089844 "/>
<path style=" stroke:none;fill-rule:nonzero;fill:rgb(39.99939%,39.99939%,39.99939%);fill-opacity:0.3;" d="M 167.617188 147.304688 L 190.183594 145.488281 L 198.371094 230.355469 L 173.6875 226.402344 Z M 167.617188 147.304688 "/>
<path style=" stroke:none;fill-rule:nonzero;fill:rgb(39.99939%,39.99939%,39.99939%);fill-opacity:0.3;" d="M 166.40625 122.109375 L 187.761719 132.707031 L 188.488281 141.847656 L 167.433594 142.554688 Z M 166.40625 122.109375 "/>
<path style=" stroke:none;fill-rule:nonzero;fill:rgb(39.99939%,39.99939%,39.99939%);fill-opacity:0.3;" d="M 193.523438 145.265625 L 216.386719 143.925781 L 225.082031 235.855469 L 201.703125 230.933594 Z M 193.523438 145.265625 "/>
<path style=" stroke:none;fill-rule:nonzero;fill:rgb(39.99939%,39.99939%,39.99939%);fill-opacity:0.3;" d="M 191.480469 134.089844 L 209.722656 140.46875 L 192.066406 141.679688 Z M 191.480469 134.089844 "/>
<path style=" stroke:none;fill-rule:nonzero;fill:rgb(39.99939%,39.99939%,39.99939%);fill-opacity:0.3;" d="M 249.535156 160 L 273.402344 171.222656 L 280.125 246.820312 L 268.03125 244.386719 L 255.824219 241.929688 Z M 249.535156 160 "/>
<path style=" stroke:none;fill-rule:nonzero;fill:rgb(39.99939%,39.99939%,39.99939%);fill-opacity:0.3;" d="M 268.03125 251.085938 L 278.066406 252.746094 L 281.652344 302.28125 L 268.03125 299.726562 L 259.199219 298.070312 L 255.855469 249.074219 Z M 268.03125 251.085938 "/>
<path style=" stroke:none;fill-rule:nonzero;fill:rgb(39.99939%,39.99939%,39.99939%);fill-opacity:0.3;" d="M 229.710938 244.984375 L 251.394531 248.777344 L 254.554688 297.324219 L 233.042969 293.027344 Z M 229.710938 244.984375 "/>
<path style=" stroke:none;fill-rule:nonzero;fill:rgb(39.99939%,39.99939%,39.99939%);fill-opacity:0.3;" d="M 281.769531 253 L 304.40625 257.832031 L 307.316406 308.570312 L 285.683594 303.105469 Z M 281.769531 253 "/>
<path style=" stroke:none;fill-rule:nonzero;fill:rgb(39.99939%,39.99939%,39.99939%);fill-opacity:0.3;" d="M 308.105469 274.78125 L 307.640625 261.128906 L 308.570312 273.691406 Z M 308.105469 274.78125 "/>
<path style=" stroke:none;fill-rule:nonzero;fill:rgb(39.99939%,39.99939%,39.99939%);fill-opacity:0.3;" d="M 80.613281 82.472656 L 103.238281 90.316406 L 103.179688 91.761719 L 81.269531 91.304688 Z M 80.613281 82.472656 "/>
<path style=" stroke:none;fill-rule:nonzero;fill:rgb(39.99939%,39.99939%,39.99939%);fill-opacity:0.3;" d="M 145.269531 228.667969 L 150.269531 277.183594 L 133.023438 273.304688 L 125.914062 270.863281 L 121.398438 226.136719 Z M 145.269531 228.667969 "/>
<path style=" stroke:none;fill-rule:nonzero;fill:rgb(39.99939%,39.99939%,39.99939%);fill-opacity:0.3;" d="M 177.34375 235.242188 L 199.492188 239.375 L 202.070312 286.871094 L 180.324219 282.90625 Z M 177.34375 235.242188 "/>
<path style=" stroke:none;fill-rule:nonzero;fill:rgb(39.99939%,39.99939%,39.99939%);fill-opacity:0.3;" d="M 149.578125 229.449219 L 172.691406 234.316406 L 176.117188 282.453125 L 155.03125 278.90625 Z M 149.578125 229.449219 "/>
<path style=" stroke:none;fill-rule:nonzero;fill:rgb(39.99939%,39.99939%,39.99939%);fill-opacity:0.3;" d="M 203.644531 240.152344 L 225.523438 244.144531 L 228.40625 291.859375 L 206.144531 287.417969 Z M 203.644531 240.152344 "/>
<path style=" stroke:none;fill-rule:nonzero;fill:rgb(39.99939%,39.99939%,39.99939%);fill-opacity:0.3;" d="M 118.78125 218.957031 L 114.355469 151.828125 L 135.828125 150.511719 L 143.554688 221.796875 Z M 118.78125 218.957031 "/>
<g clip-path="url(#clip20)" clip-rule="nonzero">
<path style=" stroke:none;fill-rule:nonzero;fill:rgb(39.99939%,39.99939%,39.99939%);fill-opacity:0.3;" d="M 75.828125 357.382812 L 91.984375 365.222656 L 67.046875 409.875 L 52.117188 402.328125 Z M 75.828125 357.382812 "/>
</g>
<g clip-path="url(#clip21)" clip-rule="nonzero">
<path style=" stroke:none;fill-rule:nonzero;fill:rgb(39.99939%,39.99939%,39.99939%);fill-opacity:0.3;" d="M 70.523438 355.980469 L 72.414062 356.578125 L 68.195312 364.171875 L 67.085938 362.855469 Z M 70.523438 355.980469 "/>
</g>
<path style=" stroke:none;fill-rule:nonzero;fill:rgb(39.99939%,39.99939%,39.99939%);fill-opacity:0.3;" d="M -26.011719 141.332031 L 2.59375 139.675781 L 4.167969 156.023438 L -24.558594 157.585938 Z M -26.011719 141.332031 "/>
<path style=" stroke:none;fill-rule:nonzero;fill:rgb(39.99939%,39.99939%,39.99939%);fill-opacity:0.3;" d="M -23.753906 162.136719 L 3.492188 160.871094 L 4.3125 174.816406 L -13.140625 176.332031 L -22.96875 176.75 Z M -23.753906 162.136719 "/>
<path style=" stroke:none;fill-rule:nonzero;fill:rgb(39.99939%,39.99939%,39.99939%);fill-opacity:0.3;" d="M 8.972656 177.847656 L 57.550781 174.421875 L 58.214844 189.535156 L 36.507812 190.960938 L 9.496094 189.207031 Z M 8.972656 177.847656 "/>
<path style=" stroke:none;fill-rule:nonzero;fill:rgb(39.99939%,39.99939%,39.99939%);fill-opacity:0.3;" d="M 7.640625 160.042969 L 56.238281 156.4375 L 57.210938 171.542969 L 8.914062 175.109375 Z M 7.640625 160.042969 "/>
<path style=" stroke:none;fill-rule:nonzero;fill:rgb(39.99939%,39.99939%,39.99939%);fill-opacity:0.3;" d="M 5.886719 139.242188 L 53.804688 135.472656 L 55.511719 145.226562 L 56.019531 152.527344 L 7.453125 156.179688 Z M 5.886719 139.242188 "/>
<path style=" stroke:none;fill-rule:nonzero;fill:rgb(39.99939%,39.99939%,39.99939%);fill-opacity:0.3;" d="M -26.941406 120.933594 L 0.640625 120.039062 L 2.132812 136.410156 L -26.011719 138.039062 Z M -26.941406 120.933594 "/>
<path style=" stroke:none;fill-rule:nonzero;fill:rgb(39.99939%,39.99939%,39.99939%);fill-opacity:0.3;" d="M 22.207031 59.871094 L 26.34375 61.996094 L 29.234375 63.898438 L 36.941406 65.335938 L 41.25 66.671875 L 46.328125 68.804688 L 46.050781 73.347656 L 21.742188 74.640625 L 9.546875 75.285156 L -0.441406 75.816406 L -1.253906 60.0625 L 9.0625 59.371094 L 14.089844 59.480469 Z M 22.207031 59.871094 "/>
<path style=" stroke:none;fill-rule:nonzero;fill:rgb(39.99939%,39.99939%,39.99939%);fill-opacity:0.3;" d="M 5.6875 119.886719 L 53.195312 116.347656 L 53.523438 132.476562 L 6.730469 136.117188 Z M 5.6875 119.886719 "/>
<path style=" stroke:none;fill-rule:nonzero;fill:rgb(39.99939%,39.99939%,39.99939%);fill-opacity:0.3;" d="M 4.128906 100.019531 L 51.734375 96.328125 L 53.078125 113.914062 L 4.917969 117.222656 Z M 4.128906 100.019531 "/>
<path style=" stroke:none;fill-rule:nonzero;fill:rgb(39.99939%,39.99939%,39.99939%);fill-opacity:0.3;" d="M 0.0273438 79.507812 L 51.269531 76.277344 L 51.429688 78.742188 L 51.429688 92.328125 L 51.472656 92.882812 L 1.121094 96.941406 Z M 0.0273438 79.507812 "/>
<path style=" stroke:none;fill-rule:nonzero;fill:rgb(39.99939%,39.99939%,39.99939%);fill-opacity:0.3;" d="M 4.3125 174.816406 L 4.359375 175.59375 L -13.140625 176.332031 Z M 4.3125 174.816406 "/>
<path style=" stroke:none;fill-rule:nonzero;fill:rgb(39.99939%,39.99939%,39.99939%);fill-opacity:0.3;" d="M 58.214844 189.535156 L 58.226562 189.761719 L 45.40625 190.578125 L 38.152344 191.066406 L 36.507812 190.960938 Z M 58.214844 189.535156 "/>
<path style=" stroke:none;fill-rule:nonzero;fill:rgb(39.99939%,39.99939%,39.99939%);fill-opacity:0.3;" d="M -20.363281 287.296875 L 14.433594 285.515625 L 15.613281 339.980469 L -16.734375 349.351562 L -17.113281 344.789062 L -17.535156 338.6875 Z M -20.363281 287.296875 "/>
<path style=" stroke:none;fill-rule:nonzero;fill:rgb(39.99939%,39.99939%,39.99939%);fill-opacity:0.3;" d="M 18.996094 321.316406 L 70.90625 318.234375 L 72.761719 337.796875 L 19.472656 337.863281 Z M 18.996094 321.316406 "/>
<path style=" stroke:none;fill-rule:nonzero;fill:rgb(39.99939%,39.99939%,39.99939%);fill-opacity:0.3;" d="M 18.96875 302.769531 L 69.261719 299.035156 L 71.105469 314.394531 L 19.140625 318.035156 Z M 18.96875 302.769531 "/>
<path style=" stroke:none;fill-rule:nonzero;fill:rgb(39.99939%,39.99939%,39.99939%);fill-opacity:0.3;" d="M 18.1875 283.085938 L 66.761719 278.941406 L 67.871094 295.570312 L 18.8125 299.773438 Z M 18.1875 283.085938 "/>
<g clip-path="url(#clip22)" clip-rule="nonzero">
<path style=" stroke:none;fill-rule:nonzero;fill:rgb(39.99939%,39.99939%,39.99939%);fill-opacity:0.3;" d="M 128.300781 352.035156 L 129.765625 372.046875 L 117.988281 365.433594 L 104.277344 356.035156 L 100.359375 353.226562 Z M 128.300781 352.035156 "/>
</g>
<path style=" stroke:none;fill-rule:nonzero;fill:rgb(39.99939%,39.99939%,39.99939%);fill-opacity:0.3;" d="M 127.5 333.171875 L 128.285156 349.484375 L 99.347656 350.675781 L 91.871094 346.597656 L 84.074219 343.550781 L 79.503906 342.28125 L 77.457031 341.457031 L 77.246094 336.082031 Z M 127.5 333.171875 "/>
<path style=" stroke:none;fill-rule:nonzero;fill:rgb(39.99939%,39.99939%,39.99939%);fill-opacity:0.3;" d="M 125.804688 313.585938 L 126.433594 329.328125 L 76.050781 332.851562 L 74.40625 317.109375 Z M 125.804688 313.585938 "/>
<path style=" stroke:none;fill-rule:nonzero;fill:rgb(39.99939%,39.99939%,39.99939%);fill-opacity:0.3;" d="M 124.359375 294.355469 L 125.324219 309.714844 L 74.601562 313.429688 L 72.960938 297.878906 Z M 124.359375 294.355469 "/>
<path style=" stroke:none;fill-rule:nonzero;fill:rgb(39.99939%,39.99939%,39.99939%);fill-opacity:0.3;" d="M 121.585938 274.886719 L 123.289062 291.265625 L 71.320312 294.925781 L 70 278.476562 L 84.78125 277.023438 L 94.722656 275.992188 Z M 121.585938 274.886719 "/>
<path style=" stroke:none;fill-rule:nonzero;fill:rgb(39.99939%,39.99939%,39.99939%);fill-opacity:0.3;" d="M -23.367188 228.007812 L 8.558594 225.351562 L 10.003906 240.339844 L 10.191406 241.570312 L 11.070312 253.085938 L 13.503906 280.847656 L -20.203125 282.738281 Z M -23.367188 228.007812 "/>
<path style=" stroke:none;fill-rule:nonzero;fill:rgb(39.99939%,39.99939%,39.99939%);fill-opacity:0.3;" d="M 34.441406 193.359375 L 58.953125 192.335938 L 60.964844 216.023438 L 36 217.796875 Z M 34.441406 193.359375 "/>
<path style=" stroke:none;fill-rule:nonzero;fill:rgb(39.99939%,39.99939%,39.99939%);fill-opacity:0.3;" d="M 10.492188 193.984375 L 31.578125 193.316406 L 32.625 218.28125 L 11.910156 219.863281 Z M 10.492188 193.984375 "/>
<path style=" stroke:none;fill-rule:nonzero;fill:rgb(39.99939%,39.99939%,39.99939%);fill-opacity:0.3;" d="M 16.171875 262.710938 L 66.238281 258.308594 L 67.726562 275.710938 L 17.757812 279.53125 Z M 16.171875 262.710938 "/>
<path style=" stroke:none;fill-rule:nonzero;fill:rgb(39.99939%,39.99939%,39.99939%);fill-opacity:0.3;" d="M 14.421875 243.847656 L 46.769531 240.53125 L 54.886719 239.800781 L 63.945312 238.96875 L 64.933594 249.117188 L 65.265625 254.957031 L 15.960938 259.773438 Z M 14.421875 243.847656 "/>
<path style=" stroke:none;fill-rule:nonzero;fill:rgb(39.99939%,39.99939%,39.99939%);fill-opacity:0.3;" d="M 12.542969 224.402344 L 61.96875 220.492188 L 63.449219 236.324219 L 14.167969 240.855469 Z M 12.542969 224.402344 "/>
<path style=" stroke:none;fill-rule:nonzero;fill:rgb(39.99939%,39.99939%,39.99939%);fill-opacity:0.3;" d="M 64.703125 203.210938 L 81.746094 206.070312 L 93.46875 206.542969 L 114.332031 205.929688 L 115.175781 220.621094 L 80.945312 223.574219 L 75.546875 224.382812 L 66.59375 224.332031 Z M 64.703125 203.210938 "/>
<path style=" stroke:none;fill-rule:nonzero;fill:rgb(39.99939%,39.99939%,39.99939%);fill-opacity:0.3;" d="M -25.773438 180.609375 L 5.207031 179.433594 L 7.15625 220.238281 L -23.210938 221.84375 Z M -25.773438 180.609375 "/>
<path style=" stroke:none;fill-rule:nonzero;fill:rgb(39.99939%,39.99939%,39.99939%);fill-opacity:0.3;" d="M 119.398438 255.808594 L 120.71875 272.105469 L 106.296875 272.125 L 92.683594 273.0625 L 70.96875 274.9375 L 69.804688 258.152344 Z M 119.398438 255.808594 "/>
<path style=" stroke:none;fill-rule:nonzero;fill:rgb(39.99939%,39.99939%,39.99939%);fill-opacity:0.3;" d="M 116.941406 237.207031 L 118.480469 253.136719 L 69.15625 255.105469 L 67.996094 238.964844 Z M 116.941406 237.207031 "/>
<path style=" stroke:none;fill-rule:nonzero;fill:rgb(39.99939%,39.99939%,39.99939%);fill-opacity:0.3;" d="M 115.257812 222.253906 L 116.53125 234.652344 L 67.339844 236.320312 L 66.679688 227.097656 L 73.1875 226.625 L 77.289062 226.546875 L 81.789062 225.171875 Z M 115.257812 222.253906 "/>
<g clip-path="url(#clip23)" clip-rule="nonzero">
<path style=" stroke:none;fill-rule:nonzero;fill:rgb(39.99939%,39.99939%,39.99939%);fill-opacity:0.3;" d="M -15.253906 356.074219 L 1.335938 352.457031 L 15.039062 369.589844 L -14.378906 376.835938 Z M -15.253906 356.074219 "/>
</g>
<g clip-path="url(#clip24)" clip-rule="nonzero">
<path style=" stroke:none;fill-rule:nonzero;fill:rgb(39.99939%,39.99939%,39.99939%);fill-opacity:0.3;" d="M 27.527344 350.535156 L 56.953125 384.886719 L 48.304688 400.847656 L 30.484375 381.019531 L 16.738281 365.417969 L 7.945312 354.59375 L 19.332031 352.273438 Z M 27.527344 350.535156 "/>
</g>
<g clip-path="url(#clip25)" clip-rule="nonzero">
<path style=" stroke:none;fill-rule:nonzero;fill:rgb(39.99939%,39.99939%,39.99939%);fill-opacity:0.3;" d="M 30.15625 348.703125 L 50.96875 350.332031 L 52.285156 350.332031 L 54.046875 351.195312 L 66.265625 364.613281 L 58.933594 380.9375 L 58.480469 381.765625 Z M 30.15625 348.703125 "/>
</g>
<g clip-path="url(#clip26)" clip-rule="nonzero">
<path style=" stroke:none;fill-rule:nonzero;fill:rgb(39.99939%,39.99939%,39.99939%);fill-opacity:0.3;" d="M 57.914062 351.996094 L 70.523438 355.980469 L 67.085938 362.855469 Z M 57.914062 351.996094 "/>
</g>
<path style="fill-rule:nonzero;fill:rgb(39.99939%,39.99939%,39.99939%);fill-opacity:1;stroke-width:0.03;stroke-linecap:square;stroke-linejoin:miter;stroke:rgb(39.99939%,39.99939%,39.99939%);stroke-opacity:1;stroke-miterlimit:3.239307;" d="M 317.804688 169.578125 L 325.566406 254.792969 L 302.800781 249.644531 L 294.613281 160.039062 Z M 317.804688 169.578125 " transform="matrix(1,0,0,1,-74,-13)"/>
<path style="fill-rule:nonzero;fill:rgb(39.99939%,39.99939%,39.99939%);fill-opacity:1;stroke-width:0.03;stroke-linecap:square;stroke-linejoin:miter;stroke:rgb(39.99939%,39.99939%,39.99939%);stroke-opacity:1;stroke-miterlimit:3.239307;" d="M 373.894531 197.09375 L 378.488281 264.878906 L 357.636719 260.402344 L 350.320312 185.066406 Z M 373.894531 197.09375 " transform="matrix(1,0,0,1,-74,-13)"/>
<path style="fill-rule:nonzero;fill:rgb(39.99939%,39.99939%,39.99939%);fill-opacity:1;stroke-width:0.03;stroke-linecap:square;stroke-linejoin:miter;stroke:rgb(39.99939%,39.99939%,39.99939%);stroke-opacity:1;stroke-miterlimit:3.239307;" d="M 315.21875 142.757812 L 315.730469 148.3125 L 290.097656 137.382812 L 289.832031 132.75 L 291.890625 133.425781 Z M 315.21875 142.757812 " transform="matrix(1,0,0,1,-74,-13)"/>
<path style="fill-rule:nonzero;fill:rgb(39.99939%,39.99939%,39.99939%);fill-opacity:1;stroke-width:0.03;stroke-linecap:square;stroke-linejoin:miter;stroke:rgb(39.99939%,39.99939%,39.99939%);stroke-opacity:1;stroke-miterlimit:3.239307;" d="M 231.191406 112.152344 L 231.394531 115.574219 L 221.511719 109.246094 Z M 231.191406 112.152344 " transform="matrix(1,0,0,1,-74,-13)"/>
<path style="fill-rule:nonzero;fill:rgb(39.99939%,39.99939%,39.99939%);fill-opacity:1;stroke-width:0.03;stroke-linecap:square;stroke-linejoin:miter;stroke:rgb(39.99939%,39.99939%,39.99939%);stroke-opacity:1;stroke-miterlimit:3.239307;" d="M 260.117188 122.886719 L 260.503906 128.234375 L 235.683594 119.464844 L 235.171875 113.4375 Z M 260.117188 122.886719 " transform="matrix(1,0,0,1,-74,-13)"/>
<path style="fill-rule:nonzero;fill:rgb(39.99939%,39.99939%,39.99939%);fill-opacity:1;stroke-width:0.03;stroke-linecap:square;stroke-linejoin:miter;stroke:rgb(39.99939%,39.99939%,39.99939%);stroke-opacity:1;stroke-miterlimit:3.239307;" d="M 286.507812 131.65625 L 286.785156 136.207031 L 264.933594 126.867188 L 264.773438 124.515625 Z M 286.507812 131.65625 " transform="matrix(1,0,0,1,-74,-13)"/>
<path style="fill-rule:nonzero;fill:rgb(39.99939%,39.99939%,39.99939%);fill-opacity:1;stroke-width:0.03;stroke-linecap:square;stroke-linejoin:miter;stroke:rgb(39.99939%,39.99939%,39.99939%);stroke-opacity:1;stroke-miterlimit:3.239307;" d="M 127.804688 148.472656 L 128.832031 148.390625 L 129.511719 158.226562 Z M 127.804688 148.472656 " transform="matrix(1,0,0,1,-74,-13)"/>
<path style="fill-rule:nonzero;fill:rgb(39.99939%,39.99939%,39.99939%);fill-opacity:1;stroke-width:0.03;stroke-linecap:square;stroke-linejoin:miter;stroke:rgb(39.99939%,39.99939%,39.99939%);stroke-opacity:1;stroke-miterlimit:3.239307;" d="M 135.9375 186.449219 L 185.046875 183.472656 L 186.082031 198.355469 L 136.464844 200.371094 Z M 135.9375 186.449219 " transform="matrix(1,0,0,1,-74,-13)"/>
<path style="fill-rule:nonzero;fill:rgb(39.99939%,39.99939%,39.99939%);fill-opacity:1;stroke-width:0.03;stroke-linecap:square;stroke-linejoin:miter;stroke:rgb(39.99939%,39.99939%,39.99939%);stroke-opacity:1;stroke-miterlimit:3.239307;" d="M 134.675781 169.484375 L 183.839844 165.230469 L 185.015625 180.929688 L 136.125 184.210938 Z M 134.675781 169.484375 " transform="matrix(1,0,0,1,-74,-13)"/>
<path style="fill-rule:nonzero;fill:rgb(39.99939%,39.99939%,39.99939%);fill-opacity:1;stroke-width:0.03;stroke-linecap:square;stroke-linejoin:miter;stroke:rgb(39.99939%,39.99939%,39.99939%);stroke-opacity:1;stroke-miterlimit:3.239307;" d="M 164.300781 202.734375 L 186.757812 200.625 L 187.894531 215.300781 L 177.152344 216.152344 L 169.847656 216.410156 L 162.972656 216.019531 L 158.585938 215.707031 L 152.175781 215.554688 L 143.570312 214.285156 L 137.15625 211.894531 L 136.636719 203.574219 Z M 164.300781 202.734375 " transform="matrix(1,0,0,1,-74,-13)"/>
<path style="fill-rule:nonzero;fill:rgb(39.99939%,39.99939%,39.99939%);fill-opacity:1;stroke-width:0.03;stroke-linecap:square;stroke-linejoin:miter;stroke:rgb(39.99939%,39.99939%,39.99939%);stroke-opacity:1;stroke-miterlimit:3.239307;" d="M 127.195312 129.347656 L 127.796875 129.304688 L 128.738281 145.382812 L 127.523438 145.476562 Z M 127.195312 129.347656 " transform="matrix(1,0,0,1,-74,-13)"/>
<path style="fill-rule:nonzero;fill:rgb(39.99939%,39.99939%,39.99939%);fill-opacity:1;stroke-width:0.03;stroke-linecap:square;stroke-linejoin:miter;stroke:rgb(39.99939%,39.99939%,39.99939%);stroke-opacity:1;stroke-miterlimit:3.239307;" d="M 125.429688 91.742188 L 126.332031 105.8125 L 125.472656 105.882812 L 125.429688 105.328125 Z M 125.429688 91.742188 " transform="matrix(1,0,0,1,-74,-13)"/>
<path style="fill-rule:nonzero;fill:rgb(39.99939%,39.99939%,39.99939%);fill-opacity:1;stroke-width:0.03;stroke-linecap:square;stroke-linejoin:miter;stroke:rgb(39.99939%,39.99939%,39.99939%);stroke-opacity:1;stroke-miterlimit:3.239307;" d="M 129.554688 89.269531 L 136.15625 88.582031 L 149.015625 95.675781 L 149.742188 104.816406 L 130.828125 106.199219 Z M 129.554688 89.269531 " transform="matrix(1,0,0,1,-74,-13)"/>
<path style="fill-rule:nonzero;fill:rgb(39.99939%,39.99939%,39.99939%);fill-opacity:1;stroke-width:0.03;stroke-linecap:square;stroke-linejoin:miter;stroke:rgb(39.99939%,39.99939%,39.99939%);stroke-opacity:1;stroke-miterlimit:3.239307;" d="M 129.90625 109.980469 L 151.320312 108.257812 L 156.753906 163.273438 L 135.164062 165.164062 Z M 129.90625 109.980469 " transform="matrix(1,0,0,1,-74,-13)"/>
<path style="fill-rule:nonzero;fill:rgb(39.99939%,39.99939%,39.99939%);fill-opacity:1;stroke-width:0.03;stroke-linecap:square;stroke-linejoin:miter;stroke:rgb(39.99939%,39.99939%,39.99939%);stroke-opacity:1;stroke-miterlimit:3.239307;" d="M 156.019531 107.566406 L 171.367188 107.039062 L 179.9375 111.257812 L 182.867188 160.179688 L 161.214844 162.25 Z M 156.019531 107.566406 " transform="matrix(1,0,0,1,-74,-13)"/>
<path style="fill-rule:nonzero;fill:rgb(39.99939%,39.99939%,39.99939%);fill-opacity:1;stroke-width:0.03;stroke-linecap:square;stroke-linejoin:miter;stroke:rgb(39.99939%,39.99939%,39.99939%);stroke-opacity:1;stroke-miterlimit:3.239307;" d="M 182.988281 109.910156 L 207.632812 123.082031 L 209.824219 158.121094 L 186.09375 159.339844 Z M 182.988281 109.910156 " transform="matrix(1,0,0,1,-74,-13)"/>
<path style="fill-rule:nonzero;fill:rgb(39.99939%,39.99939%,39.99939%);fill-opacity:1;stroke-width:0.03;stroke-linecap:square;stroke-linejoin:miter;stroke:rgb(39.99939%,39.99939%,39.99939%);stroke-opacity:1;stroke-miterlimit:3.239307;" d="M 214.121094 163.078125 L 237.375 160.910156 L 243.613281 239.105469 L 221.460938 235.339844 Z M 214.121094 163.078125 " transform="matrix(1,0,0,1,-74,-13)"/>
<path style="fill-rule:nonzero;fill:rgb(39.99939%,39.99939%,39.99939%);fill-opacity:1;stroke-width:0.03;stroke-linecap:square;stroke-linejoin:miter;stroke:rgb(39.99939%,39.99939%,39.99939%);stroke-opacity:1;stroke-miterlimit:3.239307;" d="M 211.226562 123.089844 L 234.976562 133.722656 L 236.078125 155.898438 L 213.417969 157.453125 Z M 211.226562 123.089844 " transform="matrix(1,0,0,1,-74,-13)"/>
<path style="fill-rule:nonzero;fill:rgb(39.99939%,39.99939%,39.99939%);fill-opacity:1;stroke-width:0.03;stroke-linecap:square;stroke-linejoin:miter;stroke:rgb(39.99939%,39.99939%,39.99939%);stroke-opacity:1;stroke-miterlimit:3.239307;" d="M 241.617188 160.304688 L 264.183594 158.488281 L 272.371094 243.355469 L 247.6875 239.402344 Z M 241.617188 160.304688 " transform="matrix(1,0,0,1,-74,-13)"/>
<path style="fill-rule:nonzero;fill:rgb(39.99939%,39.99939%,39.99939%);fill-opacity:1;stroke-width:0.03;stroke-linecap:square;stroke-linejoin:miter;stroke:rgb(39.99939%,39.99939%,39.99939%);stroke-opacity:1;stroke-miterlimit:3.239307;" d="M 240.40625 135.109375 L 261.761719 145.707031 L 262.488281 154.847656 L 241.433594 155.554688 Z M 240.40625 135.109375 " transform="matrix(1,0,0,1,-74,-13)"/>
<path style="fill-rule:nonzero;fill:rgb(39.99939%,39.99939%,39.99939%);fill-opacity:1;stroke-width:0.03;stroke-linecap:square;stroke-linejoin:miter;stroke:rgb(39.99939%,39.99939%,39.99939%);stroke-opacity:1;stroke-miterlimit:3.239307;" d="M 267.523438 158.265625 L 290.386719 156.925781 L 299.082031 248.855469 L 275.703125 243.933594 Z M 267.523438 158.265625 " transform="matrix(1,0,0,1,-74,-13)"/>
<path style="fill-rule:nonzero;fill:rgb(39.99939%,39.99939%,39.99939%);fill-opacity:1;stroke-width:0.03;stroke-linecap:square;stroke-linejoin:miter;stroke:rgb(39.99939%,39.99939%,39.99939%);stroke-opacity:1;stroke-miterlimit:3.239307;" d="M 265.480469 147.089844 L 283.722656 153.46875 L 266.066406 154.679688 Z M 265.480469 147.089844 " transform="matrix(1,0,0,1,-74,-13)"/>
<path style="fill-rule:nonzero;fill:rgb(39.99939%,39.99939%,39.99939%);fill-opacity:1;stroke-width:0.03;stroke-linecap:square;stroke-linejoin:miter;stroke:rgb(39.99939%,39.99939%,39.99939%);stroke-opacity:1;stroke-miterlimit:3.239307;" d="M 323.535156 173 L 347.402344 184.222656 L 354.125 259.820312 L 342.03125 257.386719 L 329.824219 254.929688 Z M 323.535156 173 " transform="matrix(1,0,0,1,-74,-13)"/>
<path style="fill-rule:nonzero;fill:rgb(39.99939%,39.99939%,39.99939%);fill-opacity:1;stroke-width:0.03;stroke-linecap:square;stroke-linejoin:miter;stroke:rgb(39.99939%,39.99939%,39.99939%);stroke-opacity:1;stroke-miterlimit:3.239307;" d="M 342.03125 264.085938 L 352.066406 265.746094 L 355.652344 315.28125 L 342.03125 312.726562 L 333.199219 311.070312 L 329.855469 262.074219 Z M 342.03125 264.085938 " transform="matrix(1,0,0,1,-74,-13)"/>
<path style="fill-rule:nonzero;fill:rgb(39.99939%,39.99939%,39.99939%);fill-opacity:1;stroke-width:0.03;stroke-linecap:square;stroke-linejoin:miter;stroke:rgb(39.99939%,39.99939%,39.99939%);stroke-opacity:1;stroke-miterlimit:3.239307;" d="M 303.710938 257.984375 L 325.394531 261.777344 L 328.554688 310.324219 L 307.042969 306.027344 Z M 303.710938 257.984375 " transform="matrix(1,0,0,1,-74,-13)"/>
<path style="fill-rule:nonzero;fill:rgb(39.99939%,39.99939%,39.99939%);fill-opacity:1;stroke-width:0.03;stroke-linecap:square;stroke-linejoin:miter;stroke:rgb(39.99939%,39.99939%,39.99939%);stroke-opacity:1;stroke-miterlimit:3.239307;" d="M 355.769531 266 L 378.40625 270.832031 L 381.316406 321.570312 L 359.683594 316.105469 Z M 355.769531 266 " transform="matrix(1,0,0,1,-74,-13)"/>
<path style="fill-rule:nonzero;fill:rgb(39.99939%,39.99939%,39.99939%);fill-opacity:1;stroke-width:0.03;stroke-linecap:square;stroke-linejoin:miter;stroke:rgb(39.99939%,39.99939%,39.99939%);stroke-opacity:1;stroke-miterlimit:3.239307;" d="M 382.105469 287.78125 L 381.640625 274.128906 L 382.570312 286.691406 Z M 382.105469 287.78125 " transform="matrix(1,0,0,1,-74,-13)"/>
<path style="fill-rule:nonzero;fill:rgb(39.99939%,39.99939%,39.99939%);fill-opacity:1;stroke-width:0.03;stroke-linecap:square;stroke-linejoin:miter;stroke:rgb(39.99939%,39.99939%,39.99939%);stroke-opacity:1;stroke-miterlimit:3.239307;" d="M 154.613281 95.472656 L 177.238281 103.316406 L 177.179688 104.761719 L 155.269531 104.304688 Z M 154.613281 95.472656 " transform="matrix(1,0,0,1,-74,-13)"/>
<path style="fill-rule:nonzero;fill:rgb(39.99939%,39.99939%,39.99939%);fill-opacity:1;stroke-width:0.03;stroke-linecap:square;stroke-linejoin:miter;stroke:rgb(39.99939%,39.99939%,39.99939%);stroke-opacity:1;stroke-miterlimit:3.239307;" d="M 219.269531 241.667969 L 224.269531 290.183594 L 207.023438 286.304688 L 199.914062 283.863281 L 195.398438 239.136719 Z M 219.269531 241.667969 " transform="matrix(1,0,0,1,-74,-13)"/>
<path style="fill-rule:nonzero;fill:rgb(39.99939%,39.99939%,39.99939%);fill-opacity:1;stroke-width:0.03;stroke-linecap:square;stroke-linejoin:miter;stroke:rgb(39.99939%,39.99939%,39.99939%);stroke-opacity:1;stroke-miterlimit:3.239307;" d="M 251.34375 248.242188 L 273.492188 252.375 L 276.070312 299.871094 L 254.324219 295.90625 Z M 251.34375 248.242188 " transform="matrix(1,0,0,1,-74,-13)"/>
<path style="fill-rule:nonzero;fill:rgb(39.99939%,39.99939%,39.99939%);fill-opacity:1;stroke-width:0.03;stroke-linecap:square;stroke-linejoin:miter;stroke:rgb(39.99939%,39.99939%,39.99939%);stroke-opacity:1;stroke-miterlimit:3.239307;" d="M 223.578125 242.449219 L 246.691406 247.316406 L 250.117188 295.453125 L 229.03125 291.90625 Z M 223.578125 242.449219 " transform="matrix(1,0,0,1,-74,-13)"/>
<path style="fill-rule:nonzero;fill:rgb(39.99939%,39.99939%,39.99939%);fill-opacity:1;stroke-width:0.03;stroke-linecap:square;stroke-linejoin:miter;stroke:rgb(39.99939%,39.99939%,39.99939%);stroke-opacity:1;stroke-miterlimit:3.239307;" d="M 277.644531 253.152344 L 299.523438 257.144531 L 302.40625 304.859375 L 280.144531 300.417969 Z M 277.644531 253.152344 " transform="matrix(1,0,0,1,-74,-13)"/>
<path style="fill-rule:nonzero;fill:rgb(39.99939%,39.99939%,39.99939%);fill-opacity:1;stroke-width:0.03;stroke-linecap:square;stroke-linejoin:miter;stroke:rgb(39.99939%,39.99939%,39.99939%);stroke-opacity:1;stroke-miterlimit:3.239307;" d="M 192.78125 231.957031 L 188.355469 164.828125 L 209.828125 163.511719 L 217.554688 234.796875 Z M 192.78125 231.957031 " transform="matrix(1,0,0,1,-74,-13)"/>
<g clip-path="url(#clip27)" clip-rule="nonzero">
<path style=" stroke:none;fill-rule:evenodd;fill:rgb(85.096741%,85.096741%,81.959534%);fill-opacity:0.7;" d="M 176.03125 371 C 176.03125 366.484375 174.234375 362.152344 171.042969 358.957031 C 167.847656 355.765625 163.515625 353.96875 159 353.96875 C 154.484375 353.96875 150.152344 355.765625 146.957031 358.957031 C 143.765625 362.152344 141.96875 366.484375 141.96875 371 C 141.96875 375.515625 143.765625 379.847656 146.957031 383.042969 C 150.152344 386.234375 154.484375 388.03125 159 388.03125 C 163.515625 388.03125 167.847656 386.234375 171.042969 383.042969 C 174.234375 379.847656 176.03125 375.515625 176.03125 371 Z M 176.03125 371 "/>
</g>
<path style=" stroke:none;fill-rule:evenodd;fill:rgb(85.096741%,85.096741%,81.959534%);fill-opacity:0.7;" d="M 348.03125 289 C 348.03125 284.484375 346.234375 280.152344 343.042969 276.957031 C 339.847656 273.765625 335.515625 271.96875 331 271.96875 C 326.484375 271.96875 322.152344 273.765625 318.957031 276.957031 C 315.765625 280.152344 313.96875 284.484375 313.96875 289 C 313.96875 293.515625 315.765625 297.847656 318.957031 301.042969 C 322.152344 304.234375 326.484375 306.03125 331 306.03125 C 335.515625 306.03125 339.847656 304.234375 343.042969 301.042969 C 346.234375 297.847656 348.03125 293.515625 348.03125 289 Z M 348.03125 289 "/>
</g>
</svg>
