<?xml version="1.0" encoding="UTF-8"?>
<svg xmlns="http://www.w3.org/2000/svg" xmlns:xlink="http://www.w3.org/1999/xlink" width="361pt" height="361pt" viewBox="0 0 361 361" version="1.1">
<defs>
<clipPath id="clip1">
  <path d="M 13 348 L 39 348 L 39 360 L 13 360 Z M 13 348 "/>
</clipPath>
<clipPath id="clip2">
  <path d="M 0 344 L 12 344 L 12 360 L 0 360 Z M 0 344 "/>
</clipPath>
<clipPath id="clip3">
  <path d="M 79 357 L 119 357 L 119 360 L 79 360 Z M 79 357 "/>
</clipPath>
<clipPath id="clip4">
  <path d="M 81 343 L 119 343 L 119 360 L 81 360 Z M 81 343 "/>
</clipPath>
<clipPath id="clip5">
  <path d="M 38 352 L 80 352 L 80 360 L 38 360 Z M 38 352 "/>
</clipPath>
<clipPath id="clip6">
  <path d="M 192 351 L 212 351 L 212 360 L 192 360 Z M 192 351 "/>
</clipPath>
<clipPath id="clip7">
  <path d="M 152 350 L 166 350 L 166 360 L 152 360 Z M 152 350 "/>
</clipPath>
<clipPath id="clip8">
  <path d="M 137 349 L 151 349 L 151 360 L 137 360 Z M 137 349 "/>
</clipPath>
<clipPath id="clip9">
  <path d="M 126 349 L 137 349 L 137 360 L 126 360 Z M 126 349 "/>
</clipPath>
<clipPath id="clip10">
  <path d="M 167 350 L 191 350 L 191 360 L 167 360 Z M 167 350 "/>
</clipPath>
<clipPath id="clip11">
  <path d="M 284 331 L 314 331 L 314 360 L 284 360 Z M 284 331 "/>
</clipPath>
<clipPath id="clip12">
  <path d="M 247 322 L 265 322 L 265 360 L 247 360 Z M 247 322 "/>
</clipPath>
<clipPath id="clip13">
  <path d="M 213 314 L 246 314 L 246 360 L 213 360 Z M 213 314 "/>
</clipPath>
<clipPath id="clip14">
  <path d="M 266 326 L 287 326 L 287 360 L 266 360 Z M 266 326 "/>
</clipPath>
<clipPath id="clip15">
  <path d="M 288 338 L 332 338 L 332 360 L 288 360 Z M 288 338 "/>
</clipPath>
<clipPath id="clip16">
  <path d="M 345 143 L 360 143 L 360 190 L 345 190 Z M 345 143 "/>
</clipPath>
<clipPath id="clip17">
  <path d="M 332 96 L 360 96 L 360 187 L 332 187 Z M 332 96 "/>
</clipPath>
<clipPath id="clip18">
  <path d="M 352 53 L 360 53 L 360 95 L 352 95 Z M 352 53 "/>
</clipPath>
<clipPath id="clip19">
  <path d="M 358 102 L 360 102 L 360 192 L 358 192 Z M 358 102 "/>
</clipPath>
<clipPath id="clip20">
  <path d="M 342 51 L 360 51 L 360 93 L 342 93 Z M 342 51 "/>
</clipPath>
<clipPath id="clip21">
  <path d="M 318 190 L 360 190 L 360 281 L 318 281 Z M 318 190 "/>
</clipPath>
<clipPath id="clip22">
  <path d="M 352 197 L 360 197 L 360 310 L 352 310 Z M 352 197 "/>
</clipPath>
<clipPath id="clip23">
  <path d="M 300 0 L 360 0 L 360 52 L 300 52 Z M 300 0 "/>
</clipPath>
<clipPath id="clip24">
  <path d="M 315 345 L 339 345 L 339 360 L 315 360 Z M 315 345 "/>
</clipPath>
<clipPath id="clip25">
  <path d="M 192 340 L 216 340 L 216 360 L 192 360 Z M 192 340 "/>
</clipPath>
</defs>
<g id="surface3633">
<path style="fill-rule:nonzero;fill:rgb(0%,0%,0%);fill-opacity:1;stroke-width:0.03;stroke-linecap:square;stroke-linejoin:miter;stroke:rgb(0%,0%,0%);stroke-opacity:1;stroke-miterlimit:10;" d="M 0 178 L 360 178 L 360 -182 L 0 -182 Z M 0 178 " transform="matrix(1,0,0,1,0,182)"/>
<path style=" stroke:none;fill-rule:nonzero;fill:rgb(39.99939%,39.99939%,39.99939%);fill-opacity:0.3;" d="M -51.460938 -4.96875 L -52.59375 -6.613281 L -78.4375 2.371094 L -145.675781 -12.527344 L -145.546875 -27.433594 L -147.007812 -33.796875 L -157.621094 -55.269531 L -165.894531 -69.753906 L -175.203125 -85.707031 L -179.050781 -91.394531 L -182.453125 -95.625 L -187.039062 -100.421875 L -189.554688 -102.675781 L -203.664062 -113.277344 L -48.316406 -78.941406 L 18.6875 101.21875 L -106.414062 38.058594 L -42.207031 15.449219 L -41.804688 13.753906 L -41.402344 12.085938 L -41.203125 11.253906 L -38.496094 5.089844 L -38.074219 0.160156 L -39.148438 -0.105469 L -40.21875 -0.375 Z M -51.460938 -4.96875 "/>
<path style=" stroke:none;fill-rule:nonzero;fill:rgb(39.99939%,39.99939%,39.99939%);fill-opacity:0.3;" d="M 22.945312 165.636719 L 45.308594 171.601562 L 50.847656 185.941406 L 19.640625 177.011719 Z M 22.945312 165.636719 "/>
<path style=" stroke:none;fill-rule:nonzero;fill:rgb(39.99939%,39.99939%,39.99939%);fill-opacity:0.3;" d="M -28.480469 149.6875 L 19.617188 164.460938 L 16.222656 175.96875 L -32.097656 160.875 Z M -28.480469 149.6875 "/>
<path style=" stroke:none;fill-rule:nonzero;fill:rgb(39.99939%,39.99939%,39.99939%);fill-opacity:0.3;" d="M 27.28125 151.015625 L 38.015625 153.714844 L 43.769531 168.328125 L 23.601562 162.804688 Z M 27.28125 151.015625 "/>
<path style=" stroke:none;fill-rule:nonzero;fill:rgb(39.99939%,39.99939%,39.99939%);fill-opacity:0.3;" d="M -23.710938 136.496094 L 23.804688 149.972656 L 20.382812 161.796875 L -27.589844 147.351562 Z M -23.710938 136.496094 "/>
<path style=" stroke:none;fill-rule:nonzero;fill:rgb(39.99939%,39.99939%,39.99939%);fill-opacity:0.3;" d="M 31.316406 137.9375 L 37.074219 151.222656 L 28.085938 148.460938 Z M 31.316406 137.9375 "/>
<path style=" stroke:none;fill-rule:nonzero;fill:rgb(39.99939%,39.99939%,39.99939%);fill-opacity:0.3;" d="M -19.132812 122.476562 L 27.953125 136.648438 L 25.035156 146.726562 L -22.605469 133.242188 Z M -19.132812 122.476562 "/>
<path style=" stroke:none;fill-rule:nonzero;fill:rgb(39.99939%,39.99939%,39.99939%);fill-opacity:0.3;" d="M -14.429688 109.082031 L 25.714844 121.792969 L 29.898438 133.859375 L -17.9375 120.011719 Z M -14.429688 109.082031 "/>
<path style=" stroke:none;fill-rule:nonzero;fill:rgb(39.99939%,39.99939%,39.99939%);fill-opacity:0.3;" d="M -9.222656 93.675781 L 21.972656 108.898438 L 25.261719 119.605469 L -13.136719 106.910156 Z M -9.222656 93.675781 "/>
<path style=" stroke:none;fill-rule:nonzero;fill:rgb(39.99939%,39.99939%,39.99939%);fill-opacity:0.3;" d="M 25.171875 292.308594 L 48.453125 295.804688 L 46.230469 307.921875 L 38.476562 307.097656 L 30.449219 305.988281 L 23.324219 305.304688 Z M 25.171875 292.308594 "/>
<path style=" stroke:none;fill-rule:nonzero;fill:rgb(39.99939%,39.99939%,39.99939%);fill-opacity:0.3;" d="M 19.910156 307.957031 L 20.625 307.015625 L 21.796875 306.160156 L 45.878906 309.402344 L 43.671875 321.710938 L 18.089844 317.886719 L 19.015625 310.265625 Z M 19.910156 307.957031 "/>
<path style=" stroke:none;fill-rule:nonzero;fill:rgb(39.99939%,39.99939%,39.99939%);fill-opacity:0.3;" d="M 17.363281 319.507812 L 43.460938 323.371094 L 41.132812 335.609375 L 15.296875 332.242188 Z M 17.363281 319.507812 "/>
<g clip-path="url(#clip1)" clip-rule="nonzero">
<path style=" stroke:none;fill-rule:nonzero;fill:rgb(39.99939%,39.99939%,39.99939%);fill-opacity:0.3;" d="M 14.644531 348.316406 L 38.261719 351.621094 L 36.25 363.011719 L 29.667969 361.96875 L 29.515625 362.871094 L 29.367188 363.773438 L 35.664062 364.90625 L 33.234375 378.96875 L 24.003906 378.3125 L 23.785156 369.617188 L 23.34375 369.730469 L 22.90625 369.847656 L 22.886719 378.242188 L 14.683594 377.488281 L 15.832031 358.214844 L 13.511719 358.296875 Z M 14.644531 348.316406 "/>
</g>
<g clip-path="url(#clip2)" clip-rule="nonzero">
<path style=" stroke:none;fill-rule:nonzero;fill:rgb(39.99939%,39.99939%,39.99939%);fill-opacity:0.3;" d="M -9.691406 344.851562 L 11.707031 347.863281 L 10.546875 365.425781 L -12.710938 362.246094 Z M -9.691406 344.851562 "/>
</g>
<path style=" stroke:none;fill-rule:nonzero;fill:rgb(39.99939%,39.99939%,39.99939%);fill-opacity:0.3;" d="M -6.71875 324.828125 L 12.746094 328 L 12.082031 333.074219 L 13.410156 333.15625 L 12.605469 340.21875 L 13.058594 340.277344 L 13.515625 340.332031 L 14.375 333.285156 L 40.820312 337.164062 L 38.722656 349.191406 L 12.992188 345.5 L -9.429688 342.28125 Z M -6.71875 324.828125 "/>
<path style=" stroke:none;fill-rule:nonzero;fill:rgb(39.99939%,39.99939%,39.99939%);fill-opacity:0.3;" d="M -4.035156 304.746094 L 18.230469 308.273438 L 14.507812 326.316406 L -6.550781 322.863281 Z M -4.035156 304.746094 "/>
<path style=" stroke:none;fill-rule:nonzero;fill:rgb(39.99939%,39.99939%,39.99939%);fill-opacity:0.3;" d="M -0.226562 284.03125 L 22.222656 283.335938 L 21.4375 291.203125 L 23.871094 291.546875 L 22.851562 298.550781 L 21.046875 298.722656 L 20.082031 306.417969 L -2.488281 302.839844 Z M -0.226562 284.03125 "/>
<path style=" stroke:none;fill-rule:nonzero;fill:rgb(39.99939%,39.99939%,39.99939%);fill-opacity:0.3;" d="M 24.519531 283.785156 L 37.59375 284.175781 L 50.292969 285.359375 L 48.359375 294.261719 L 24.539062 290.941406 Z M 24.519531 283.785156 "/>
<path style=" stroke:none;fill-rule:nonzero;fill:rgb(39.99939%,39.99939%,39.99939%);fill-opacity:0.3;" d="M 50.953125 296.597656 L 51.050781 296.609375 L 50.636719 298.378906 Z M 50.953125 296.597656 "/>
<path style=" stroke:none;fill-rule:nonzero;fill:rgb(39.99939%,39.99939%,39.99939%);fill-opacity:0.3;" d="M 52.898438 285.527344 L 53.019531 285.539062 L 51.480469 294.769531 L 51.480469 294.773438 L 51.128906 294.722656 Z M 52.898438 285.527344 "/>
<path style=" stroke:none;fill-rule:nonzero;fill:rgb(39.99939%,39.99939%,39.99939%);fill-opacity:0.3;" d="M 25.054688 275.660156 L 25.070312 276.015625 L 2.601562 276.121094 L 2.726562 275.378906 Z M 25.054688 275.660156 "/>
<path style=" stroke:none;fill-rule:nonzero;fill:rgb(39.99939%,39.99939%,39.99939%);fill-opacity:0.3;" d="M -13.433594 208.25 L 10.503906 211.949219 L 8.527344 223.191406 L -14.800781 219.585938 Z M -13.433594 208.25 "/>
<path style=" stroke:none;fill-rule:nonzero;fill:rgb(39.99939%,39.99939%,39.99939%);fill-opacity:0.3;" d="M 11.246094 223.570312 L 13.121094 212.519531 L 63.378906 219.425781 L 68.148438 232.128906 Z M 11.246094 223.570312 "/>
<path style=" stroke:none;fill-rule:nonzero;fill:rgb(39.99939%,39.99939%,39.99939%);fill-opacity:0.3;" d="M -34.269531 175.328125 L 15.136719 182.722656 L 13.363281 194.636719 L -36.234375 186.953125 Z M -34.269531 175.328125 "/>
<path style=" stroke:none;fill-rule:nonzero;fill:rgb(39.99939%,39.99939%,39.99939%);fill-opacity:0.3;" d="M -32.796875 165.894531 L 7.039062 178.914062 L -33.976562 172.660156 Z M -32.796875 165.894531 "/>
<path style=" stroke:none;fill-rule:nonzero;fill:rgb(39.99939%,39.99939%,39.99939%);fill-opacity:0.3;" d="M 57.292969 263.578125 L 81.308594 267.1875 L 84.285156 273.800781 L 82.808594 276.265625 L 81.078125 278.378906 L 81.023438 278.414062 L 79.832031 278.652344 L 73.539062 278.652344 L 55.292969 276.105469 Z M 57.292969 263.578125 "/>
<path style=" stroke:none;fill-rule:nonzero;fill:rgb(39.99939%,39.99939%,39.99939%);fill-opacity:0.3;" d="M -15.589844 224.445312 L 7.640625 227.765625 L 5.664062 239.199219 L -17.257812 235.785156 Z M -15.589844 224.445312 "/>
<path style=" stroke:none;fill-rule:nonzero;fill:rgb(39.99939%,39.99939%,39.99939%);fill-opacity:0.3;" d="M 57.429688 262.164062 L 59.84375 248.179688 L 70.808594 239.011719 L 80.597656 265.074219 Z M 57.429688 262.164062 "/>
<path style=" stroke:none;fill-rule:nonzero;fill:rgb(39.99939%,39.99939%,39.99939%);fill-opacity:0.3;" d="M 10.554688 228.242188 L 70.140625 237.058594 L 57.425781 247.046875 L 8.480469 239.675781 Z M 10.554688 228.242188 "/>
<path style=" stroke:none;fill-rule:nonzero;fill:rgb(39.99939%,39.99939%,39.99939%);fill-opacity:0.3;" d="M 7.996094 242.503906 L 56.226562 249.714844 L 54.453125 261.753906 L 6.023438 254.414062 Z M 7.996094 242.503906 "/>
<path style=" stroke:none;fill-rule:nonzero;fill:rgb(39.99939%,39.99939%,39.99939%);fill-opacity:0.3;" d="M 5.820312 255.839844 L 54.375 263.136719 L 52.453125 275.679688 L 3.761719 268.511719 Z M 5.820312 255.839844 "/>
<path style=" stroke:none;fill-rule:nonzero;fill:rgb(39.99939%,39.99939%,39.99939%);fill-opacity:0.3;" d="M 3.539062 270.5 L 24.984375 273.742188 L 25.054688 275.660156 L 2.726562 275.378906 Z M 3.539062 270.5 "/>
<path style=" stroke:none;fill-rule:nonzero;fill:rgb(39.99939%,39.99939%,39.99939%);fill-opacity:0.3;" d="M -44.175781 234.082031 L 5.382812 242.21875 L 3.308594 253.9375 L -46.324219 246.4375 Z M -44.175781 234.082031 "/>
<path style=" stroke:none;fill-rule:nonzero;fill:rgb(39.99939%,39.99939%,39.99939%);fill-opacity:0.3;" d="M -46.496094 247.957031 L 3.011719 255.414062 L 0.949219 267.945312 L -48.664062 260.4375 Z M -46.496094 247.957031 "/>
<path style=" stroke:none;fill-rule:nonzero;fill:rgb(39.99939%,39.99939%,39.99939%);fill-opacity:0.3;" d="M -48.921875 262.554688 L 0.578125 270.050781 L -0.210938 275.050781 L -31.144531 277.894531 L -51.019531 274.558594 Z M -48.921875 262.554688 "/>
<path style=" stroke:none;fill-rule:nonzero;fill:rgb(39.99939%,39.99939%,39.99939%);fill-opacity:0.3;" d="M 15.585938 197.875 L 57.679688 204.242188 L 62.328125 216.214844 L 13.710938 209.976562 Z M 15.585938 197.875 "/>
<path style=" stroke:none;fill-rule:nonzero;fill:rgb(39.99939%,39.99939%,39.99939%);fill-opacity:0.3;" d="M -36.625 189.71875 L 12.769531 197.402344 L 10.792969 209.410156 L -38.789062 202.007812 Z M -36.625 189.71875 "/>
<path style=" stroke:none;fill-rule:nonzero;fill:rgb(39.99939%,39.99939%,39.99939%);fill-opacity:0.3;" d="M 18.15625 183.101562 L 34.882812 185.578125 L 52.289062 189.8125 L 56.679688 201.191406 L 16.078125 194.824219 Z M 18.15625 183.101562 "/>
<path style=" stroke:none;fill-rule:nonzero;fill:rgb(39.99939%,39.99939%,39.99939%);fill-opacity:0.3;" d="M 100.269531 271.332031 L 99.929688 273.179688 L 98.953125 273.277344 L 97.414062 268.996094 L 99.234375 270.296875 Z M 100.269531 271.332031 "/>
<path style=" stroke:none;fill-rule:nonzero;fill:rgb(39.99939%,39.99939%,39.99939%);fill-opacity:0.3;" d="M 81.023438 278.414062 L 79.429688 279.472656 L 73.539062 278.652344 L 79.832031 278.652344 Z M 81.023438 278.414062 "/>
<g clip-path="url(#clip3)" clip-rule="nonzero">
<path style=" stroke:none;fill-rule:nonzero;fill:rgb(39.99939%,39.99939%,39.99939%);fill-opacity:0.3;" d="M 81.6875 357.980469 L 118.101562 363.085938 L 116.394531 374.65625 L 79.335938 369.113281 Z M 81.6875 357.980469 "/>
</g>
<g clip-path="url(#clip4)" clip-rule="nonzero">
<path style=" stroke:none;fill-rule:nonzero;fill:rgb(39.99939%,39.99939%,39.99939%);fill-opacity:0.3;" d="M 84.609375 343.699219 L 112.808594 347.992188 L 118.074219 360.789062 L 81.949219 355.523438 Z M 84.609375 343.699219 "/>
</g>
<path style=" stroke:none;fill-rule:nonzero;fill:rgb(39.99939%,39.99939%,39.99939%);fill-opacity:0.3;" d="M 87.078125 330.117188 L 107.40625 333.824219 L 112.335938 346.582031 L 84.839844 341.992188 Z M 87.078125 330.117188 "/>
<path style=" stroke:none;fill-rule:nonzero;fill:rgb(39.99939%,39.99939%,39.99939%);fill-opacity:0.3;" d="M 89.628906 316.410156 L 101.238281 317.863281 L 106.667969 331.398438 L 87.605469 327.503906 Z M 89.628906 316.410156 "/>
<path style=" stroke:none;fill-rule:nonzero;fill:rgb(39.99939%,39.99939%,39.99939%);fill-opacity:0.3;" d="M 91.875 303.457031 L 95.625 303.628906 L 100.210938 315.144531 L 89.976562 313.878906 Z M 91.875 303.457031 "/>
<g clip-path="url(#clip5)" clip-rule="nonzero">
<path style=" stroke:none;fill-rule:nonzero;fill:rgb(39.99939%,39.99939%,39.99939%);fill-opacity:0.3;" d="M 40.828125 352.230469 L 79.257812 357.800781 L 77.109375 369.050781 L 38.609375 363.289062 Z M 40.828125 352.230469 "/>
</g>
<path style=" stroke:none;fill-rule:nonzero;fill:rgb(39.99939%,39.99939%,39.99939%);fill-opacity:0.3;" d="M 43.324219 337.855469 L 81.792969 343.703125 L 79.574219 354.894531 L 41.09375 349.464844 Z M 43.324219 337.855469 "/>
<path style=" stroke:none;fill-rule:nonzero;fill:rgb(39.99939%,39.99939%,39.99939%);fill-opacity:0.3;" d="M 45.929688 323.726562 L 84.261719 329.898438 L 82.179688 341.996094 L 43.789062 335.878906 Z M 45.929688 323.726562 "/>
<path style=" stroke:none;fill-rule:nonzero;fill:rgb(39.99939%,39.99939%,39.99939%);fill-opacity:0.3;" d="M 48.566406 309.535156 L 86.769531 315.984375 L 84.785156 327.34375 L 46.183594 322.136719 Z M 48.566406 309.535156 "/>
<path style=" stroke:none;fill-rule:nonzero;fill:rgb(39.99939%,39.99939%,39.99939%);fill-opacity:0.3;" d="M 51.050781 296.609375 L 89.300781 302.214844 L 87.179688 313.261719 L 48.90625 308.066406 L 50.636719 298.378906 Z M 51.050781 296.609375 "/>
<path style=" stroke:none;fill-rule:nonzero;fill:rgb(39.99939%,39.99939%,39.99939%);fill-opacity:0.3;" d="M 53.019531 285.539062 L 87.300781 288.367188 L 89.78125 289.660156 L 90.898438 292.011719 L 89.550781 300.191406 L 51.480469 294.773438 L 51.480469 294.769531 Z M 53.019531 285.539062 "/>
<path style=" stroke:none;fill-rule:nonzero;fill:rgb(39.99939%,39.99939%,39.99939%);fill-opacity:0.3;" d="M 99.929688 273.179688 L 99.589844 275.039062 L 98.953125 273.277344 Z M 99.929688 273.179688 "/>
<path style=" stroke:none;fill-rule:nonzero;fill:rgb(39.99939%,39.99939%,39.99939%);fill-opacity:0.3;" d="M 113.230469 316.476562 L 113.210938 316.472656 L 113 315.882812 Z M 113.230469 316.476562 "/>
<path style=" stroke:none;fill-rule:nonzero;fill:rgb(39.99939%,39.99939%,39.99939%);fill-opacity:0.3;" d="M 106.097656 279.785156 L 102.335938 278.9375 L 103.101562 274.640625 L 104.902344 277.160156 Z M 106.097656 279.785156 "/>
<path style=" stroke:none;fill-rule:nonzero;fill:rgb(39.99939%,39.99939%,39.99939%);fill-opacity:0.3;" d="M 112.246094 -0.632812 L 104.230469 42.859375 L 10.433594 18.316406 L 8.15625 31.574219 L 7.101562 32.355469 L -2.824219 5.730469 L -2.269531 4.421875 L 169.800781 -58.691406 L 176.617188 -40.136719 L 173.640625 -38.996094 L 174.847656 -35.800781 L 177.964844 -37.015625 L 189.605469 -6.253906 L 151.785156 6.054688 L 149.808594 5.539062 L 115.265625 -3.457031 L 112.925781 -4.066406 Z M 112.246094 -0.632812 "/>
<path style=" stroke:none;fill-rule:nonzero;fill:rgb(39.99939%,39.99939%,39.99939%);fill-opacity:0.3;" d="M 162.953125 -80.351562 L 169.726562 -61.820312 L -4.339844 0.847656 L -11.984375 -18.476562 L 159.113281 -78.992188 L 159.816406 -78.589844 L 159.609375 -79.167969 Z M 162.953125 -80.351562 "/>
<path style=" stroke:none;fill-rule:nonzero;fill:rgb(39.99939%,39.99939%,39.99939%);fill-opacity:0.3;" d="M 125.453125 1.730469 L 117.285156 46.671875 L 107.25 44.152344 L 115.648438 -0.792969 Z M 125.453125 1.730469 "/>
<path style=" stroke:none;fill-rule:nonzero;fill:rgb(39.99939%,39.99939%,39.99939%);fill-opacity:0.3;" d="M 127.421875 7.242188 L 128.308594 2.371094 L 128.398438 2.394531 Z M 127.421875 7.242188 "/>
<path style=" stroke:none;fill-rule:nonzero;fill:rgb(39.99939%,39.99939%,39.99939%);fill-opacity:0.3;" d="M 151.183594 8.035156 L 151.132812 8.308594 L 144.421875 6.296875 Z M 151.183594 8.035156 "/>
<path style=" stroke:none;fill-rule:nonzero;fill:rgb(39.99939%,39.99939%,39.99939%);fill-opacity:0.3;" d="M 29.152344 26.734375 L 39.792969 29.621094 L 31.929688 68.542969 L 21.074219 65.734375 Z M 29.152344 26.734375 "/>
<path style=" stroke:none;fill-rule:nonzero;fill:rgb(39.99939%,39.99939%,39.99939%);fill-opacity:0.3;" d="M 61.453125 76.199219 L 69.007812 37.609375 L 78.367188 40.175781 L 70.867188 78.621094 Z M 61.453125 76.199219 "/>
<path style=" stroke:none;fill-rule:nonzero;fill:rgb(39.99939%,39.99939%,39.99939%);fill-opacity:0.3;" d="M 43.164062 30.273438 L 53.21875 33.054688 L 45.863281 71.929688 L 35.109375 69.152344 Z M 43.164062 30.273438 "/>
<path style=" stroke:none;fill-rule:nonzero;fill:rgb(39.99939%,39.99939%,39.99939%);fill-opacity:0.3;" d="M 81.488281 41.019531 L 91.375 43.761719 L 83.804688 81.941406 L 74.078125 79.441406 Z M 81.488281 41.019531 "/>
<path style=" stroke:none;fill-rule:nonzero;fill:rgb(39.99939%,39.99939%,39.99939%);fill-opacity:0.3;" d="M 103.9375 46.515625 L 96.550781 84.683594 L 86.582031 82.226562 L 94.347656 43.871094 Z M 103.9375 46.515625 "/>
<path style=" stroke:none;fill-rule:nonzero;fill:rgb(39.99939%,39.99939%,39.99939%);fill-opacity:0.3;" d="M 109.324219 87.628906 L 99.214844 85.449219 L 106.625 47.199219 L 116.453125 49.640625 Z M 109.324219 87.628906 "/>
<path style=" stroke:none;fill-rule:nonzero;fill:rgb(39.99939%,39.99939%,39.99939%);fill-opacity:0.3;" d="M 59.246094 75.390625 L 49.039062 72.757812 L 56.472656 33.941406 L 66.992188 36.832031 Z M 59.246094 75.390625 "/>
<path style=" stroke:none;fill-rule:nonzero;fill:rgb(39.99939%,39.99939%,39.99939%);fill-opacity:0.3;" d="M 11.714844 43.769531 L 16.550781 22.023438 L 26.460938 24.667969 L 19.554688 61.464844 Z M 11.714844 43.769531 "/>
<path style=" stroke:none;fill-rule:nonzero;fill:rgb(39.99939%,39.99939%,39.99939%);fill-opacity:0.3;" d="M 67.757812 114.921875 L 77.738281 116.433594 L 71.257812 154.257812 L 60.550781 151.539062 Z M 67.757812 114.921875 "/>
<path style=" stroke:none;fill-rule:nonzero;fill:rgb(39.99939%,39.99939%,39.99939%);fill-opacity:0.3;" d="M 54.679688 112.757812 L 65.347656 114.488281 L 58.484375 151.65625 L 53.019531 150.269531 L 51.429688 149.722656 L 49.328125 140.90625 Z M 54.679688 112.757812 "/>
<path style=" stroke:none;fill-rule:nonzero;fill:rgb(39.99939%,39.99939%,39.99939%);fill-opacity:0.3;" d="M 78.632812 125.363281 L 88.382812 127.960938 L 83.367188 157.339844 L 73.476562 154.824219 Z M 78.632812 125.363281 "/>
<path style=" stroke:none;fill-rule:nonzero;fill:rgb(39.99939%,39.99939%,39.99939%);fill-opacity:0.3;" d="M 61.117188 79.640625 L 70.609375 82.035156 L 65.679688 110.265625 L 55.683594 108.417969 Z M 61.117188 79.640625 "/>
<path style=" stroke:none;fill-rule:nonzero;fill:rgb(39.99939%,39.99939%,39.99939%);fill-opacity:0.3;" d="M 36.453125 109.625 L 50.945312 112.179688 L 46.480469 136.996094 Z M 36.453125 109.625 "/>
<path style=" stroke:none;fill-rule:nonzero;fill:rgb(39.99939%,39.99939%,39.99939%);fill-opacity:0.3;" d="M 48.09375 76.351562 L 58.765625 79.046875 L 53.480469 108.007812 L 42.347656 105.988281 Z M 48.09375 76.351562 "/>
<path style=" stroke:none;fill-rule:nonzero;fill:rgb(39.99939%,39.99939%,39.99939%);fill-opacity:0.3;" d="M 21.359375 69.222656 L 32.371094 72.023438 L 28.570312 90.277344 Z M 21.359375 69.222656 "/>
<path style=" stroke:none;fill-rule:nonzero;fill:rgb(39.99939%,39.99939%,39.99939%);fill-opacity:0.3;" d="M 34.886719 73.011719 L 45.851562 75.785156 L 39.800781 105.480469 L 34.617188 104.519531 L 30.464844 94.132812 Z M 34.886719 73.011719 "/>
<path style=" stroke:none;fill-rule:nonzero;fill:rgb(39.99939%,39.99939%,39.99939%);fill-opacity:0.3;" d="M 74.234375 82.945312 L 83.566406 85.292969 L 78.636719 112.667969 L 69.320312 110.941406 Z M 74.234375 82.945312 "/>
<path style=" stroke:none;fill-rule:nonzero;fill:rgb(39.99939%,39.99939%,39.99939%);fill-opacity:0.3;" d="M 86.257812 85.96875 L 96 88.40625 L 93.28125 103.351562 L 83.324219 101.660156 Z M 86.257812 85.96875 "/>
<path style=" stroke:none;fill-rule:nonzero;fill:rgb(39.99939%,39.99939%,39.99939%);fill-opacity:0.3;" d="M 283.878906 223.457031 L 291.582031 243.726562 L 281.132812 241.394531 L 280.597656 240.378906 Z M 283.878906 223.457031 "/>
<path style=" stroke:none;fill-rule:nonzero;fill:rgb(39.99939%,39.99939%,39.99939%);fill-opacity:0.3;" d="M 308.570312 286.734375 L 288.894531 282.121094 L 294.699219 253.046875 Z M 308.570312 286.734375 "/>
<path style=" stroke:none;fill-rule:nonzero;fill:rgb(39.99939%,39.99939%,39.99939%);fill-opacity:0.3;" d="M 271.816406 207.132812 L 277.359375 208.25 L 282.222656 219.328125 L 277.863281 240.679688 L 266.308594 237.835938 Z M 271.816406 207.132812 "/>
<path style=" stroke:none;fill-rule:nonzero;fill:rgb(39.99939%,39.99939%,39.99939%);fill-opacity:0.3;" d="M 198.082031 301.65625 L 222.035156 271.414062 L 237.183594 274.839844 L 212.636719 304.941406 L 198.164062 301.675781 Z M 198.082031 301.65625 "/>
<path style=" stroke:none;fill-rule:nonzero;fill:rgb(39.99939%,39.99939%,39.99939%);fill-opacity:0.3;" d="M 251.875 202.226562 L 246.164062 233.273438 L 231.921875 229.886719 L 237.734375 198.671875 Z M 251.875 202.226562 "/>
<path style=" stroke:none;fill-rule:nonzero;fill:rgb(39.99939%,39.99939%,39.99939%);fill-opacity:0.3;" d="M 267.070312 206.046875 L 261.515625 236.925781 L 248.875 233.917969 L 254.582031 202.90625 Z M 267.070312 206.046875 "/>
<path style=" stroke:none;fill-rule:nonzero;fill:rgb(39.99939%,39.99939%,39.99939%);fill-opacity:0.3;" d="M 88.902344 199.132812 L 82.800781 232.492188 L 75.597656 212.171875 L 78.652344 196.738281 Z M 88.902344 199.132812 "/>
<path style=" stroke:none;fill-rule:nonzero;fill:rgb(39.99939%,39.99939%,39.99939%);fill-opacity:0.3;" d="M 101.722656 202.125 L 95.113281 236.355469 L 84.902344 233.828125 L 91.191406 199.664062 Z M 101.722656 202.125 "/>
<path style=" stroke:none;fill-rule:nonzero;fill:rgb(39.99939%,39.99939%,39.99939%);fill-opacity:0.3;" d="M 114.359375 205.078125 L 108.085938 239.378906 L 97.707031 236.894531 L 104.011719 202.660156 Z M 114.359375 205.078125 "/>
<path style=" stroke:none;fill-rule:nonzero;fill:rgb(39.99939%,39.99939%,39.99939%);fill-opacity:0.3;" d="M 127.183594 208.070312 L 120.894531 242.449219 L 110.332031 239.917969 L 116.648438 205.609375 Z M 127.183594 208.070312 "/>
<path style=" stroke:none;fill-rule:nonzero;fill:rgb(39.99939%,39.99939%,39.99939%);fill-opacity:0.3;" d="M 140.203125 211.488281 L 133.964844 245.582031 L 123.140625 242.988281 L 129.46875 208.605469 Z M 140.203125 211.488281 "/>
<path style=" stroke:none;fill-rule:nonzero;fill:rgb(39.99939%,39.99939%,39.99939%);fill-opacity:0.3;" d="M 152.753906 214.046875 L 146.449219 248.574219 L 136.214844 246.121094 L 142.503906 211.652344 Z M 152.753906 214.046875 "/>
<path style=" stroke:none;fill-rule:nonzero;fill:rgb(39.99939%,39.99939%,39.99939%);fill-opacity:0.3;" d="M 165.574219 217.042969 L 159.28125 251.648438 L 148.769531 249.128906 L 155.042969 214.582031 Z M 165.574219 217.042969 "/>
<path style=" stroke:none;fill-rule:nonzero;fill:rgb(39.99939%,39.99939%,39.99939%);fill-opacity:0.3;" d="M 178.183594 220.199219 L 171.871094 254.875 L 161.324219 252.347656 L 167.6875 217.746094 Z M 178.183594 220.199219 "/>
<path style=" stroke:none;fill-rule:nonzero;fill:rgb(39.99939%,39.99939%,39.99939%);fill-opacity:0.3;" d="M 52.847656 152.492188 L 57.296875 153.605469 L 56.328125 160.046875 Z M 52.847656 152.492188 "/>
<path style=" stroke:none;fill-rule:nonzero;fill:rgb(39.99939%,39.99939%,39.99939%);fill-opacity:0.3;" d="M 95.972656 162.867188 L 89.789062 195.933594 L 79.773438 193.554688 L 85.535156 160.246094 Z M 95.972656 162.867188 "/>
<path style=" stroke:none;fill-rule:nonzero;fill:rgb(39.99939%,39.99939%,39.99939%);fill-opacity:0.3;" d="M 108.4375 165.910156 L 102.382812 198.832031 L 91.910156 196.34375 L 98.058594 163.300781 Z M 108.4375 165.910156 "/>
<path style=" stroke:none;fill-rule:nonzero;fill:rgb(39.99939%,39.99939%,39.99939%);fill-opacity:0.3;" d="M 121.34375 169.28125 L 115.308594 202.035156 L 105.09375 199.605469 L 111.144531 166.71875 Z M 121.34375 169.28125 "/>
<path style=" stroke:none;fill-rule:nonzero;fill:rgb(39.99939%,39.99939%,39.99939%);fill-opacity:0.3;" d="M 133.425781 172.203125 L 127.359375 204.773438 L 117.804688 202.5 L 123.835938 169.789062 Z M 133.425781 172.203125 "/>
<path style=" stroke:none;fill-rule:nonzero;fill:rgb(39.99939%,39.99939%,39.99939%);fill-opacity:0.3;" d="M 146.238281 175.585938 L 140.203125 207.988281 L 129.859375 205.527344 L 135.917969 172.992188 Z M 146.238281 175.585938 "/>
<path style=" stroke:none;fill-rule:nonzero;fill:rgb(39.99939%,39.99939%,39.99939%);fill-opacity:0.3;" d="M 159.109375 178.320312 L 153.128906 210.421875 L 143.382812 208.101562 L 149.410156 175.734375 L 150.367188 175.976562 Z M 159.109375 178.320312 "/>
<path style=" stroke:none;fill-rule:nonzero;fill:rgb(39.99939%,39.99939%,39.99939%);fill-opacity:0.3;" d="M 183.871094 185.125 L 177.925781 217.035156 L 168.074219 214.691406 L 174.042969 182.652344 Z M 183.871094 185.125 "/>
<path style=" stroke:none;fill-rule:nonzero;fill:rgb(39.99939%,39.99939%,39.99939%);fill-opacity:0.3;" d="M 171.867188 181.671875 L 165.945312 213.472656 L 155.765625 211.050781 L 161.734375 179.015625 Z M 171.867188 181.671875 "/>
<path style=" stroke:none;fill-rule:nonzero;fill:rgb(39.99939%,39.99939%,39.99939%);fill-opacity:0.3;" d="M 196.941406 188.410156 L 191.027344 220.15625 L 180.5625 217.664062 L 186.5 185.785156 Z M 196.941406 188.410156 "/>
<path style=" stroke:none;fill-rule:nonzero;fill:rgb(39.99939%,39.99939%,39.99939%);fill-opacity:0.3;" d="M 210.007812 191.695312 L 204.125 223.269531 L 193.664062 220.78125 L 199.570312 189.070312 Z M 210.007812 191.695312 "/>
<path style=" stroke:none;fill-rule:nonzero;fill:rgb(39.99939%,39.99939%,39.99939%);fill-opacity:0.3;" d="M 70.550781 156.351562 L 65.570312 187.605469 L 58.007812 166.972656 L 59.894531 153.683594 Z M 70.550781 156.351562 "/>
<path style=" stroke:none;fill-rule:nonzero;fill:rgb(39.99939%,39.99939%,39.99939%);fill-opacity:0.3;" d="M 82.996094 159.808594 L 77.300781 193.160156 L 67.140625 190.78125 L 73.078125 157.316406 Z M 82.996094 159.808594 "/>
<path style=" stroke:none;fill-rule:nonzero;fill:rgb(39.99939%,39.99939%,39.99939%);fill-opacity:0.3;" d="M 190.109375 223.246094 L 183.878906 257.039062 L 173.554688 254.566406 L 179.863281 220.996094 Z M 190.109375 223.246094 "/>
<path style=" stroke:none;fill-rule:nonzero;fill:rgb(39.99939%,39.99939%,39.99939%);fill-opacity:0.3;" d="M 228.34375 231.910156 L 221.914062 266.402344 L 211.800781 263.976562 L 217.929688 229.710938 Z M 228.34375 231.910156 "/>
<path style=" stroke:none;fill-rule:nonzero;fill:rgb(39.99939%,39.99939%,39.99939%);fill-opacity:0.3;" d="M 244.859375 236.273438 L 238.519531 270.382812 L 224.398438 267 L 230.976562 232.691406 Z M 244.859375 236.273438 "/>
<path style=" stroke:none;fill-rule:nonzero;fill:rgb(39.99939%,39.99939%,39.99939%);fill-opacity:0.3;" d="M 259.59375 239.226562 L 253.226562 273.824219 L 241.328125 270.96875 L 247.9375 236.464844 Z M 259.59375 239.226562 "/>
<path style=" stroke:none;fill-rule:nonzero;fill:rgb(39.99939%,39.99939%,39.99939%);fill-opacity:0.3;" d="M 276.71875 243.316406 L 270.796875 278.042969 L 257.816406 274.929688 L 265.425781 241.050781 Z M 276.71875 243.316406 "/>
<path style=" stroke:none;fill-rule:nonzero;fill:rgb(39.99939%,39.99939%,39.99939%);fill-opacity:0.3;" d="M 291.984375 246.65625 L 292.226562 249.992188 L 285.871094 281.535156 L 272.738281 278.386719 L 279.296875 243.839844 Z M 291.984375 246.65625 "/>
<path style=" stroke:none;fill-rule:nonzero;fill:rgb(39.99939%,39.99939%,39.99939%);fill-opacity:0.3;" d="M 92.574219 242.613281 L 90.902344 253.546875 L 86.617188 241.160156 Z M 92.574219 242.613281 "/>
<path style=" stroke:none;fill-rule:nonzero;fill:rgb(39.99939%,39.99939%,39.99939%);fill-opacity:0.3;" d="M 105.277344 244.109375 L 100.269531 271.332031 L 99.234375 270.296875 L 97.414062 268.996094 L 93.472656 258.050781 L 96.445312 242.113281 Z M 105.277344 244.109375 "/>
<path style=" stroke:none;fill-rule:nonzero;fill:rgb(39.99939%,39.99939%,39.99939%);fill-opacity:0.3;" d="M 132.394531 250.019531 L 126.132812 284.226562 L 118.914062 282.601562 L 115.796875 281.515625 L 122.042969 247.601562 Z M 132.394531 250.019531 "/>
<path style=" stroke:none;fill-rule:nonzero;fill:rgb(39.99939%,39.99939%,39.99939%);fill-opacity:0.3;" d="M 144.453125 253.371094 L 140.269531 288.117188 L 129.039062 285.585938 L 134.398438 251.097656 Z M 144.453125 253.371094 "/>
<path style=" stroke:none;fill-rule:nonzero;fill:rgb(39.99939%,39.99939%,39.99939%);fill-opacity:0.3;" d="M 157.445312 256.792969 L 155.050781 291.9375 L 143.359375 289.265625 L 147.390625 254.519531 Z M 157.445312 256.792969 "/>
<path style=" stroke:none;fill-rule:nonzero;fill:rgb(39.99939%,39.99939%,39.99939%);fill-opacity:0.3;" d="M 170.355469 259.386719 L 169.515625 294.871094 L 157.945312 292.242188 L 160.300781 257.113281 Z M 170.355469 259.386719 "/>
<path style=" stroke:none;fill-rule:nonzero;fill:rgb(39.99939%,39.99939%,39.99939%);fill-opacity:0.3;" d="M 182.410156 262.109375 L 181.554688 297.585938 L 171.941406 295.414062 L 173.035156 259.992188 Z M 182.410156 262.109375 "/>
<path style=" stroke:none;fill-rule:nonzero;fill:rgb(39.99939%,39.99939%,39.99939%);fill-opacity:0.3;" d="M 194.484375 265.046875 L 193.898438 300.554688 L 191.261719 299.984375 L 185.089844 298.59375 L 186.179688 263.171875 Z M 194.484375 265.046875 "/>
<path style=" stroke:none;fill-rule:nonzero;fill:rgb(39.99939%,39.99939%,39.99939%);fill-opacity:0.3;" d="M 208.226562 266.964844 L 204.800781 288.746094 L 196.871094 298.214844 L 197.90625 264.632812 Z M 208.226562 266.964844 "/>
<path style=" stroke:none;fill-rule:nonzero;fill:rgb(39.99939%,39.99939%,39.99939%);fill-opacity:0.3;" d="M 220.746094 269.796875 L 209.726562 282.769531 L 209.125 282.769531 L 208.757812 282.332031 L 211.5 267.707031 Z M 220.746094 269.796875 "/>
<path style=" stroke:none;fill-rule:nonzero;fill:rgb(39.99939%,39.99939%,39.99939%);fill-opacity:0.3;" d="M 215.722656 305.386719 L 239.921875 275.457031 L 253.152344 278.449219 L 228.679688 308.570312 Z M 215.722656 305.386719 "/>
<path style=" stroke:none;fill-rule:nonzero;fill:rgb(39.99939%,39.99939%,39.99939%);fill-opacity:0.3;" d="M 67.996094 194.796875 L 75.691406 196.609375 L 73.222656 208.953125 Z M 67.996094 194.796875 "/>
<path style=" stroke:none;fill-rule:nonzero;fill:rgb(39.99939%,39.99939%,39.99939%);fill-opacity:0.3;" d="M 222.109375 194.742188 L 216.257812 226.15625 L 206.761719 223.898438 L 212.636719 192.359375 Z M 222.109375 194.742188 "/>
<path style=" stroke:none;fill-rule:nonzero;fill:rgb(39.99939%,39.99939%,39.99939%);fill-opacity:0.3;" d="M 235.105469 198.007812 L 229.285156 229.257812 L 218.894531 226.785156 L 224.738281 195.402344 Z M 235.105469 198.007812 "/>
<path style=" stroke:none;fill-rule:nonzero;fill:rgb(39.99939%,39.99939%,39.99939%);fill-opacity:0.3;" d="M 118.828125 247.027344 L 112.753906 280.203125 L 103.242188 273.863281 L 108.476562 244.609375 Z M 118.828125 247.027344 "/>
<path style=" stroke:none;fill-rule:nonzero;fill:rgb(39.99939%,39.99939%,39.99939%);fill-opacity:0.3;" d="M 213.894531 229.710938 L 208.042969 263.601562 L 187.167969 258.570312 L 193.070312 224.953125 Z M 213.894531 229.710938 "/>
<path style=" stroke:none;fill-rule:nonzero;fill:rgb(39.99939%,39.99939%,39.99939%);fill-opacity:0.3;" d="M 53.019531 150.269531 L 51.464844 149.875 L 51.429688 149.722656 Z M 53.019531 150.269531 "/>
<path style=" stroke:none;fill-rule:nonzero;fill:rgb(39.99939%,39.99939%,39.99939%);fill-opacity:0.3;" d="M 198.078125 301.65625 L 198.082031 301.65625 L 198.164062 301.675781 Z M 198.078125 301.65625 "/>
<path style=" stroke:none;fill-rule:nonzero;fill:rgb(39.99939%,39.99939%,39.99939%);fill-opacity:0.3;" d="M 142.078125 297.964844 L 154 300.792969 L 152.507812 325.203125 L 141.03125 322.554688 Z M 142.078125 297.964844 "/>
<path style=" stroke:none;fill-rule:nonzero;fill:rgb(39.99939%,39.99939%,39.99939%);fill-opacity:0.3;" d="M 126.804688 294.71875 L 139.597656 297.679688 L 138.304688 322.148438 L 125.964844 319.304688 Z M 126.804688 294.71875 "/>
<path style=" stroke:none;fill-rule:nonzero;fill:rgb(39.99939%,39.99939%,39.99939%);fill-opacity:0.3;" d="M 195.050781 309.390625 L 211.824219 313.292969 L 210.621094 349.242188 L 193.332031 348.296875 Z M 195.050781 309.390625 "/>
<path style=" stroke:none;fill-rule:nonzero;fill:rgb(39.99939%,39.99939%,39.99939%);fill-opacity:0.3;" d="M 169.269531 332.25 L 190.886719 337.613281 L 190.207031 348.199219 L 168.363281 347.203125 Z M 169.269531 332.25 "/>
<path style=" stroke:none;fill-rule:nonzero;fill:rgb(39.99939%,39.99939%,39.99939%);fill-opacity:0.3;" d="M 151.882812 328.445312 L 150.839844 347.75 L 138.828125 347.269531 L 140.351562 325.625 Z M 151.882812 328.445312 "/>
<path style=" stroke:none;fill-rule:nonzero;fill:rgb(39.99939%,39.99939%,39.99939%);fill-opacity:0.3;" d="M 166.585938 331.671875 L 165.632812 347.957031 L 153.429688 347.464844 L 154.699219 328.765625 Z M 166.585938 331.671875 "/>
<g clip-path="url(#clip6)" clip-rule="nonzero">
<path style=" stroke:none;fill-rule:nonzero;fill:rgb(39.99939%,39.99939%,39.99939%);fill-opacity:0.3;" d="M 211.109375 352.164062 L 211.128906 366.945312 L 192.972656 366.203125 L 193.773438 351.542969 Z M 211.109375 352.164062 "/>
</g>
<path style=" stroke:none;fill-rule:nonzero;fill:rgb(39.99939%,39.99939%,39.99939%);fill-opacity:0.3;" d="M 137.980469 325.046875 L 136.300781 347.167969 L 126.710938 346.78125 L 124.648438 341.375 L 126.128906 322.148438 Z M 137.980469 325.046875 "/>
<g clip-path="url(#clip7)" clip-rule="nonzero">
<path style=" stroke:none;fill-rule:nonzero;fill:rgb(39.99939%,39.99939%,39.99939%);fill-opacity:0.3;" d="M 165.738281 350.539062 L 164.886719 365.058594 L 152.757812 364.566406 L 153.695312 350.109375 Z M 165.738281 350.539062 "/>
</g>
<g clip-path="url(#clip8)" clip-rule="nonzero">
<path style=" stroke:none;fill-rule:nonzero;fill:rgb(39.99939%,39.99939%,39.99939%);fill-opacity:0.3;" d="M 150.984375 350.011719 L 150.183594 364.460938 L 137.859375 363.960938 L 138.667969 349.574219 Z M 150.984375 350.011719 "/>
</g>
<g clip-path="url(#clip9)" clip-rule="nonzero">
<path style=" stroke:none;fill-rule:nonzero;fill:rgb(39.99939%,39.99939%,39.99939%);fill-opacity:0.3;" d="M 136.085938 349.480469 L 135.570312 363.867188 L 131.277344 363.691406 L 131.167969 363.410156 L 130.113281 360.648438 L 126.886719 349.15625 Z M 136.085938 349.480469 "/>
</g>
<g clip-path="url(#clip10)" clip-rule="nonzero">
<path style=" stroke:none;fill-rule:nonzero;fill:rgb(39.99939%,39.99939%,39.99939%);fill-opacity:0.3;" d="M 190.535156 351.425781 L 190.132812 366.089844 L 167.511719 365.167969 L 168.589844 350.640625 Z M 190.535156 351.425781 "/>
</g>
<path style=" stroke:none;fill-rule:nonzero;fill:rgb(39.99939%,39.99939%,39.99939%);fill-opacity:0.3;" d="M 118.914062 282.601562 L 115.730469 281.882812 L 115.796875 281.515625 Z M 118.914062 282.601562 "/>
<path style=" stroke:none;fill-rule:nonzero;fill:rgb(39.99939%,39.99939%,39.99939%);fill-opacity:0.3;" d="M 193.898438 300.554688 L 193.898438 300.582031 L 191.261719 299.984375 Z M 193.898438 300.554688 "/>
<path style=" stroke:none;fill-rule:nonzero;fill:rgb(39.99939%,39.99939%,39.99939%);fill-opacity:0.3;" d="M 171.613281 304.835938 L 180.277344 307.042969 L 179.136719 321.082031 L 181.007812 321.863281 L 182.929688 322.667969 L 183.929688 307.691406 L 192.003906 309.667969 L 191.003906 334.496094 L 170.457031 329.34375 L 169.859375 328.8125 Z M 171.613281 304.835938 "/>
<path style=" stroke:none;fill-rule:nonzero;fill:rgb(39.99939%,39.99939%,39.99939%);fill-opacity:0.3;" d="M 156.28125 301.265625 L 168.480469 304.101562 L 167.046875 328.558594 L 155.21875 325.828125 Z M 156.28125 301.265625 "/>
<path style=" stroke:none;fill-rule:nonzero;fill:rgb(39.99939%,39.99939%,39.99939%);fill-opacity:0.3;" d="M 122.941406 321.273438 L 122.269531 329.804688 L 122.101562 330.332031 L 121.566406 330.605469 L 120.882812 330.648438 L 120.363281 330.316406 L 119.761719 329.484375 L 116.199219 319.625 Z M 122.941406 321.273438 "/>
<path style=" stroke:none;fill-rule:nonzero;fill:rgb(39.99939%,39.99939%,39.99939%);fill-opacity:0.3;" d="M 112.265625 291.359375 L 124.460938 294.289062 L 122.953125 318.71875 L 113.230469 316.476562 L 113 315.882812 L 107.117188 299.542969 L 107.078125 298.851562 L 107.117188 298.316406 L 107.339844 297.472656 L 107.738281 296.378906 L 108.667969 294.902344 L 109.867188 293.382812 L 110.621094 292.371094 L 111.597656 291.441406 Z M 112.265625 291.359375 "/>
<path style=" stroke:none;fill-rule:nonzero;fill:rgb(39.99939%,39.99939%,39.99939%);fill-opacity:0.3;" d="M 112.753906 280.203125 L 112.5625 281.242188 L 106.097656 279.785156 L 104.902344 277.160156 L 103.101562 274.640625 L 103.242188 273.863281 Z M 112.753906 280.203125 "/>
<path style=" stroke:none;fill-rule:nonzero;fill:rgb(39.99939%,39.99939%,39.99939%);fill-opacity:0.3;" d="M 251.183594 284.226562 L 252.171875 284.566406 L 245.171875 311.957031 L 231.851562 309.042969 Z M 251.183594 284.226562 "/>
<g clip-path="url(#clip11)" clip-rule="nonzero">
<path style=" stroke:none;fill-rule:nonzero;fill:rgb(39.99939%,39.99939%,39.99939%);fill-opacity:0.3;" d="M 290 331.84375 L 313.496094 337.167969 L 286.894531 369.074219 L 284.417969 368.289062 Z M 290 331.84375 "/>
</g>
<g clip-path="url(#clip12)" clip-rule="nonzero">
<path style=" stroke:none;fill-rule:nonzero;fill:rgb(39.99939%,39.99939%,39.99939%);fill-opacity:0.3;" d="M 249.378906 322.351562 L 264.070312 325.765625 L 263.746094 368.363281 L 247.96875 367.777344 Z M 249.378906 322.351562 "/>
</g>
<g clip-path="url(#clip13)" clip-rule="nonzero">
<path style=" stroke:none;fill-rule:nonzero;fill:rgb(39.99939%,39.99939%,39.99939%);fill-opacity:0.3;" d="M 215.730469 314.816406 L 229.746094 318.078125 L 228.863281 346.695312 L 230.304688 346.75 L 231.695312 346.808594 L 232.960938 318.824219 L 245.265625 321.6875 L 243.785156 367.824219 L 213.613281 366.089844 Z M 215.730469 314.816406 "/>
</g>
<path style=" stroke:none;fill-rule:nonzero;fill:rgb(39.99939%,39.99939%,39.99939%);fill-opacity:0.3;" d="M 257.53125 278.753906 L 267.851562 281.210938 L 268.519531 282.003906 L 268.355469 283.273438 L 256.015625 298.34375 L 253.675781 297.707031 L 256.933594 279.65625 Z M 257.53125 278.753906 "/>
<path style=" stroke:none;fill-rule:nonzero;fill:rgb(39.99939%,39.99939%,39.99939%);fill-opacity:0.3;" d="M 299.917969 289.554688 L 300.128906 289.8125 L 300.175781 290.132812 L 300.097656 290.453125 L 276.925781 317.949219 L 263.550781 315.023438 L 287.1875 286.527344 Z M 299.917969 289.554688 "/>
<path style=" stroke:none;fill-rule:nonzero;fill:rgb(39.99939%,39.99939%,39.99939%);fill-opacity:0.3;" d="M 283.796875 286.691406 L 284.007812 286.945312 L 284.054688 287.265625 L 283.976562 287.585938 L 260.425781 315.292969 L 247.324219 312.425781 L 271.070312 283.660156 Z M 283.796875 286.691406 "/>
<path style=" stroke:none;fill-rule:nonzero;fill:rgb(39.99939%,39.99939%,39.99939%);fill-opacity:0.3;" d="M 311.316406 291.90625 L 311.792969 292.222656 L 313.222656 297.125 L 313.175781 297.746094 L 293.28125 321.160156 L 280.164062 318.289062 L 303.476562 290.039062 Z M 311.316406 291.90625 "/>
<path style=" stroke:none;fill-rule:nonzero;fill:rgb(39.99939%,39.99939%,39.99939%);fill-opacity:0.3;" d="M 314.339844 300.464844 L 322.238281 321.039062 L 323.085938 323.277344 L 323.394531 324.164062 L 323.539062 324.78125 L 323.652344 325.480469 L 323.683594 325.988281 L 323.597656 326.550781 L 323.457031 326.925781 L 323.203125 327.328125 L 322.808594 327.652344 L 322.359375 327.917969 L 321.824219 328.105469 L 321.371094 328.214844 L 320.777344 328.269531 L 320.183594 328.214844 L 319.5625 328.132812 L 311.910156 326.3125 L 313.59375 323.210938 L 313.066406 323.007812 L 312.511719 322.796875 L 310.074219 325.878906 L 296.339844 322.613281 Z M 314.339844 300.464844 "/>
<g clip-path="url(#clip14)" clip-rule="nonzero">
<path style=" stroke:none;fill-rule:nonzero;fill:rgb(39.99939%,39.99939%,39.99939%);fill-opacity:0.3;" d="M 266.640625 326.34375 L 286.230469 331.015625 L 280.210938 369.828125 L 266.144531 368.542969 Z M 266.640625 326.34375 "/>
</g>
<g clip-path="url(#clip15)" clip-rule="nonzero">
<path style=" stroke:none;fill-rule:nonzero;fill:rgb(39.99939%,39.99939%,39.99939%);fill-opacity:0.3;" d="M 316.398438 338.460938 L 330.75 341.921875 L 331.164062 342.09375 L 331.402344 342.316406 L 331.550781 342.65625 L 331.550781 342.878906 L 331.554688 343.246094 L 331.40625 343.554688 L 331.082031 343.949219 L 302.15625 378.765625 L 301.757812 378.859375 L 301.257812 378.890625 L 300.859375 378.796875 L 300.394531 378.636719 L 289.042969 372.816406 L 288.84375 372.4375 L 288.808594 371.964844 L 288.941406 371.425781 L 289.207031 370.921875 L 289.570312 370.480469 Z M 316.398438 338.460938 "/>
</g>
<path style=" stroke:none;fill-rule:nonzero;fill:rgb(39.99939%,39.99939%,39.99939%);fill-opacity:0.3;" d="M 259.992188 172.378906 L 263.128906 173.28125 L 269.433594 190.828125 L 267.554688 203.019531 L 254.996094 199.859375 Z M 259.992188 172.378906 "/>
<path style=" stroke:none;fill-rule:nonzero;fill:rgb(39.99939%,39.99939%,39.99939%);fill-opacity:0.3;" d="M 257.628906 172.007812 L 252.539062 199.558594 L 238.539062 196.035156 L 243.699219 168.320312 Z M 257.628906 172.007812 "/>
<path style=" stroke:none;fill-rule:nonzero;fill:rgb(39.99939%,39.99939%,39.99939%);fill-opacity:0.3;" d="M 240.695312 168.351562 L 235.527344 196.101562 L 225.160156 193.492188 L 230.351562 165.613281 Z M 240.695312 168.351562 "/>
<path style=" stroke:none;fill-rule:nonzero;fill:rgb(39.99939%,39.99939%,39.99939%);fill-opacity:0.3;" d="M 293.851562 151.742188 L 291.550781 169.761719 L 290.832031 170.71875 L 290.351562 170.683594 L 283.097656 152.085938 L 283.65625 150.386719 Z M 293.851562 151.742188 "/>
<path style=" stroke:none;fill-rule:nonzero;fill:rgb(39.99939%,39.99939%,39.99939%);fill-opacity:0.3;" d="M 271.816406 196.964844 L 275.34375 204.578125 L 270.890625 203.460938 Z M 271.816406 196.964844 "/>
<path style=" stroke:none;fill-rule:nonzero;fill:rgb(39.99939%,39.99939%,39.99939%);fill-opacity:0.3;" d="M 231.324219 162.414062 L 231.585938 161.203125 L 233.449219 152.1875 L 254.078125 149.394531 L 261.351562 169.796875 L 243.5625 165.421875 L 244.417969 161.015625 L 243.597656 160.945312 L 242.78125 160.871094 L 241.941406 164.992188 Z M 231.324219 162.414062 "/>
<path style=" stroke:none;fill-rule:nonzero;fill:rgb(39.99939%,39.99939%,39.99939%);fill-opacity:0.3;" d="M 218.246094 159.351562 L 222.402344 137.164062 L 237.242188 133.734375 L 243.15625 148.3125 L 232.769531 149.679688 L 233.226562 145.152344 L 231.539062 145.371094 L 230.929688 149.605469 L 228.257812 161.941406 Z M 218.246094 159.351562 "/>
<path style=" stroke:none;fill-rule:nonzero;fill:rgb(39.99939%,39.99939%,39.99939%);fill-opacity:0.3;" d="M 213.019531 117.335938 L 229.050781 111.902344 L 234.261719 125.574219 L 220.9375 129.730469 L 215.597656 158.714844 L 205.222656 155.773438 L 210.101562 131.019531 Z M 213.019531 117.335938 "/>
<path style=" stroke:none;fill-rule:nonzero;fill:rgb(39.99939%,39.99939%,39.99939%);fill-opacity:0.3;" d="M 202.617188 158.269531 L 197.363281 186.5 L 186.921875 183.875 L 192.199219 155.511719 Z M 202.617188 158.269531 "/>
<path style=" stroke:none;fill-rule:nonzero;fill:rgb(39.99939%,39.99939%,39.99939%);fill-opacity:0.3;" d="M 215.652344 161.71875 L 210.429688 189.789062 L 200 187.140625 L 205.242188 158.964844 Z M 215.652344 161.71875 "/>
<path style=" stroke:none;fill-rule:nonzero;fill:rgb(39.99939%,39.99939%,39.99939%);fill-opacity:0.3;" d="M 227.726562 164.917969 L 222.53125 192.832031 L 213.058594 190.449219 L 218.277344 162.414062 Z M 227.726562 164.917969 "/>
<path style=" stroke:none;fill-rule:nonzero;fill:rgb(39.99939%,39.99939%,39.99939%);fill-opacity:0.3;" d="M 234.761719 127.066406 L 236.355469 131.71875 L 233.183594 132.648438 L 231.625 127.996094 Z M 234.761719 127.066406 "/>
<path style=" stroke:none;fill-rule:nonzero;fill:rgb(39.99939%,39.99939%,39.99939%);fill-opacity:0.3;" d="M 230.121094 111.050781 L 237.898438 108.253906 L 252.257812 146.804688 L 244.195312 147.921875 Z M 230.121094 111.050781 "/>
<path style=" stroke:none;fill-rule:nonzero;fill:rgb(39.99939%,39.99939%,39.99939%);fill-opacity:0.3;" d="M 159.136719 178.179688 L 159.109375 178.320312 L 150.367188 175.976562 Z M 159.136719 178.179688 "/>
<path style=" stroke:none;fill-rule:nonzero;fill:rgb(39.99939%,39.99939%,39.99939%);fill-opacity:0.3;" d="M 171.917969 181.394531 L 171.867188 181.671875 L 161.734375 179.015625 L 161.765625 178.84375 Z M 171.917969 181.394531 "/>
<path style=" stroke:none;fill-rule:nonzero;fill:rgb(39.99939%,39.99939%,39.99939%);fill-opacity:0.3;" d="M 138.578125 5.011719 L 130.421875 49.875 L 120.144531 47.296875 L 127.421875 7.242188 L 128.398438 2.394531 Z M 138.578125 5.011719 "/>
<path style=" stroke:none;fill-rule:nonzero;fill:rgb(39.99939%,39.99939%,39.99939%);fill-opacity:0.3;" d="M 151.132812 8.308594 L 143.035156 52.820312 L 133.09375 50.324219 L 141.25 5.476562 L 144.421875 6.296875 Z M 151.132812 8.308594 "/>
<path style=" stroke:none;fill-rule:nonzero;fill:rgb(39.99939%,39.99939%,39.99939%);fill-opacity:0.3;" d="M 165.167969 5.589844 L 155.195312 56.261719 L 145.347656 53.746094 L 154.933594 8.992188 Z M 165.167969 5.589844 "/>
<path style=" stroke:none;fill-rule:nonzero;fill:rgb(39.99939%,39.99939%,39.99939%);fill-opacity:0.3;" d="M 166.453125 10.671875 L 173.894531 25.832031 L 174.238281 26.820312 L 174.238281 28.304688 L 168.078125 59.40625 L 157.554688 56.730469 Z M 166.453125 10.671875 "/>
<path style=" stroke:none;fill-rule:nonzero;fill:rgb(39.99939%,39.99939%,39.99939%);fill-opacity:0.3;" d="M 206.839844 53.761719 L 209.421875 60.242188 L 197.589844 64.996094 L 196.128906 65.292969 L 194.382812 65.296875 L 192.648438 65.203125 L 191.023438 64.917969 L 183.234375 63.402344 L 184.484375 55.683594 L 190.765625 56.792969 L 193.855469 57.167969 L 195.738281 57.164062 L 197.820312 56.976562 L 199.488281 56.640625 Z M 206.839844 53.761719 "/>
<path style=" stroke:none;fill-rule:nonzero;fill:rgb(39.99939%,39.99939%,39.99939%);fill-opacity:0.3;" d="M 203.492188 45.847656 L 206.347656 52.546875 L 198.761719 55.265625 L 196.988281 55.667969 L 194.535156 55.667969 L 192.164062 55.429688 L 184.976562 54.476562 L 185.78125 47.621094 L 192.890625 48.605469 L 194.960938 48.695312 L 196.8125 48.417969 Z M 203.492188 45.847656 "/>
<path style=" stroke:none;fill-rule:nonzero;fill:rgb(39.99939%,39.99939%,39.99939%);fill-opacity:0.3;" d="M 132.25 53.695312 L 141.378906 55.929688 L 138.320312 72.359375 L 137.328125 72.101562 L 133.3125 94.097656 L 124.871094 91.890625 Z M 132.25 53.695312 "/>
<path style=" stroke:none;fill-rule:nonzero;fill:rgb(39.99939%,39.99939%,39.99939%);fill-opacity:0.3;" d="M 157.613281 60.242188 L 167.785156 62.78125 L 160.566406 101.527344 L 150.15625 98.808594 Z M 157.613281 60.242188 "/>
<path style=" stroke:none;fill-rule:nonzero;fill:rgb(39.99939%,39.99939%,39.99939%);fill-opacity:0.3;" d="M 203.941406 98.816406 L 209.660156 97.371094 L 212.867188 107.078125 L 225.226562 103.09375 L 228.046875 109.679688 L 211.449219 115.242188 L 200.753906 113.015625 Z M 203.941406 98.816406 "/>
<path style=" stroke:none;fill-rule:nonzero;fill:rgb(39.99939%,39.99939%,39.99939%);fill-opacity:0.3;" d="M 187.984375 109 L 194.296875 73.65625 L 196.5 67.976562 L 209.398438 62.789062 L 223.710938 101.628906 L 215.375 104.386719 L 204.191406 74.097656 L 203.359375 74.425781 L 202.601562 74.722656 L 205.066406 81.59375 L 199.347656 83.59375 L 198.875 85.355469 L 201.402344 97.046875 L 197.933594 111.59375 Z M 187.984375 109 "/>
<path style=" stroke:none;fill-rule:nonzero;fill:rgb(39.99939%,39.99939%,39.99939%);fill-opacity:0.3;" d="M 210.933594 62.453125 L 218.800781 59.613281 L 237.613281 105.453125 L 229.304688 108.808594 Z M 210.933594 62.453125 "/>
<path style=" stroke:none;fill-rule:nonzero;fill:rgb(39.99939%,39.99939%,39.99939%);fill-opacity:0.3;" d="M 170.625 60.054688 L 177.0625 30.515625 L 177.226562 29.007812 L 176.910156 27.652344 L 167.761719 5.300781 L 184.523438 -0.523438 L 202.832031 44.175781 L 196.03125 46.617188 L 190.824219 33.550781 L 183.605469 15.445312 L 182.410156 15.898438 L 181.214844 16.355469 L 184.386719 25.390625 L 183.503906 25.609375 L 186.878906 35.101562 L 181.816406 62.347656 Z M 170.625 60.054688 "/>
<path style=" stroke:none;fill-rule:nonzero;fill:rgb(39.99939%,39.99939%,39.99939%);fill-opacity:0.3;" d="M 119.429688 50.457031 L 129.886719 53.046875 L 122.792969 91.347656 L 112.164062 88.695312 Z M 119.429688 50.457031 "/>
<path style=" stroke:none;fill-rule:nonzero;fill:rgb(39.99939%,39.99939%,39.99939%);fill-opacity:0.3;" d="M 144.78125 56.84375 L 154.871094 59.347656 L 147.253906 97.867188 L 138.691406 95.628906 L 142.183594 74.363281 L 141.402344 74.011719 Z M 144.78125 56.84375 "/>
<path style=" stroke:none;fill-rule:nonzero;fill:rgb(39.99939%,39.99939%,39.99939%);fill-opacity:0.3;" d="M 169.90625 63.355469 L 180.074219 65.894531 L 172.878906 104.796875 L 162.960938 102.210938 Z M 169.90625 63.355469 "/>
<path style=" stroke:none;fill-rule:nonzero;fill:rgb(39.99939%,39.99939%,39.99939%);fill-opacity:0.3;" d="M 182.726562 66.566406 L 188.78125 68.101562 L 189.929688 68.398438 L 190.800781 68.847656 L 191.339844 69.574219 L 191.738281 70.363281 L 191.910156 71.476562 L 191.773438 72.335938 L 185.261719 108.027344 L 175.613281 105.511719 Z M 182.726562 66.566406 "/>
<path style=" stroke:none;fill-rule:nonzero;fill:rgb(39.99939%,39.99939%,39.99939%);fill-opacity:0.3;" d="M 212.78125 117.414062 L 213.019531 117.335938 L 210.101562 131.019531 Z M 212.78125 117.414062 "/>
<path style=" stroke:none;fill-rule:nonzero;fill:rgb(39.99939%,39.99939%,39.99939%);fill-opacity:0.3;" d="M 103.734375 132.0625 L 124.484375 137.496094 L 119.324219 166.800781 L 98.199219 161.488281 Z M 103.734375 132.0625 "/>
<path style=" stroke:none;fill-rule:nonzero;fill:rgb(39.99939%,39.99939%,39.99939%);fill-opacity:0.3;" d="M 197.382812 113.972656 L 190.25 152.417969 L 180.441406 149.824219 L 187.5625 111.453125 Z M 197.382812 113.972656 "/>
<path style=" stroke:none;fill-rule:nonzero;fill:rgb(39.99939%,39.99939%,39.99939%);fill-opacity:0.3;" d="M 209.78125 116.867188 L 202.757812 155.488281 L 192.871094 153.113281 L 200.175781 114.691406 Z M 209.78125 116.867188 "/>
<path style=" stroke:none;fill-rule:nonzero;fill:rgb(39.99939%,39.99939%,39.99939%);fill-opacity:0.3;" d="M 101.546875 131.476562 L 96.046875 160.949219 L 86.226562 158.480469 L 91.429688 128.773438 Z M 101.546875 131.476562 "/>
<path style=" stroke:none;fill-rule:nonzero;fill:rgb(39.99939%,39.99939%,39.99939%);fill-opacity:0.3;" d="M 139.144531 141.460938 L 133.746094 170.5 L 124.152344 168.089844 L 129.519531 138.910156 Z M 139.144531 141.460938 "/>
<path style=" stroke:none;fill-rule:nonzero;fill:rgb(39.99939%,39.99939%,39.99939%);fill-opacity:0.3;" d="M 152.066406 144.882812 L 146.695312 173.757812 L 136.417969 170.933594 L 141.742188 142.308594 Z M 152.066406 144.882812 "/>
<path style=" stroke:none;fill-rule:nonzero;fill:rgb(39.99939%,39.99939%,39.99939%);fill-opacity:0.3;" d="M 164.394531 148.148438 L 159.050781 176.867188 L 149.359375 174.230469 L 154.691406 145.578125 Z M 164.394531 148.148438 "/>
<path style=" stroke:none;fill-rule:nonzero;fill:rgb(39.99939%,39.99939%,39.99939%);fill-opacity:0.3;" d="M 177.148438 151.523438 L 171.835938 180.082031 L 161.683594 177.527344 L 167.019531 148.84375 Z M 177.148438 151.523438 "/>
<path style=" stroke:none;fill-rule:nonzero;fill:rgb(39.99939%,39.99939%,39.99939%);fill-opacity:0.3;" d="M 189.578125 154.816406 L 184.292969 183.214844 L 174.464844 180.742188 L 179.773438 152.21875 Z M 189.578125 154.816406 "/>
<path style=" stroke:none;fill-rule:nonzero;fill:rgb(39.99939%,39.99939%,39.99939%);fill-opacity:0.3;" d="M 146.859375 101.003906 L 139.816406 139.0625 L 130.433594 136.578125 L 137.140625 98.507812 Z M 146.859375 101.003906 "/>
<path style=" stroke:none;fill-rule:nonzero;fill:rgb(39.99939%,39.99939%,39.99939%);fill-opacity:0.3;" d="M 159.804688 104.328125 L 152.738281 142.484375 L 142.441406 139.757812 L 149.488281 101.679688 Z M 159.804688 104.328125 "/>
<path style=" stroke:none;fill-rule:nonzero;fill:rgb(39.99939%,39.99939%,39.99939%);fill-opacity:0.3;" d="M 172.15625 107.5 L 165.066406 145.75 L 155.359375 143.179688 L 162.449219 104.90625 Z M 172.15625 107.5 "/>
<path style=" stroke:none;fill-rule:nonzero;fill:rgb(39.99939%,39.99939%,39.99939%);fill-opacity:0.3;" d="M 184.933594 110.777344 L 177.820312 149.128906 L 167.976562 146.332031 L 174.785156 108.171875 Z M 184.933594 110.777344 "/>
<path style=" stroke:none;fill-rule:nonzero;fill:rgb(39.99939%,39.99939%,39.99939%);fill-opacity:0.3;" d="M 99.113281 88.449219 L 108.164062 90.476562 L 105.386719 105.804688 L 96.28125 103.957031 Z M 99.113281 88.449219 "/>
<path style=" stroke:none;fill-rule:nonzero;fill:rgb(39.99939%,39.99939%,39.99939%);fill-opacity:0.3;" d="M 111.40625 91.1875 L 132.105469 96.441406 L 125.546875 135.636719 L 79.40625 123.609375 L 83.105469 103.582031 L 108.1875 108.699219 Z M 111.40625 91.1875 "/>
<path style=" stroke:none;fill-rule:nonzero;fill:rgb(39.99939%,39.99939%,39.99939%);fill-opacity:0.3;" d="M 192.898438 -3.855469 L 217.753906 57.039062 L 210.808594 59.488281 L 186.269531 -1.582031 Z M 192.898438 -3.855469 "/>
<path style=" stroke:none;fill-rule:nonzero;fill:rgb(39.99939%,39.99939%,39.99939%);fill-opacity:0.3;" d="M 306.75 153.453125 L 302.691406 178.691406 L 293.597656 177.328125 L 297.433594 152.171875 Z M 306.75 153.453125 "/>
<path style=" stroke:none;fill-rule:nonzero;fill:rgb(39.99939%,39.99939%,39.99939%);fill-opacity:0.3;" d="M 291.550781 169.761719 L 291.421875 170.765625 L 290.832031 170.71875 Z M 291.550781 169.761719 "/>
<path style=" stroke:none;fill-rule:nonzero;fill:rgb(39.99939%,39.99939%,39.99939%);fill-opacity:0.3;" d="M 321.710938 152.335938 L 317.089844 181.707031 L 306.316406 179.574219 L 310.722656 154.183594 L 315.335938 154.417969 Z M 321.710938 152.335938 "/>
<path style=" stroke:none;fill-rule:nonzero;fill:rgb(39.99939%,39.99939%,39.99939%);fill-opacity:0.3;" d="M 336.882812 147.089844 L 330.246094 184.316406 L 319.902344 182.320312 L 324.976562 150.945312 Z M 336.882812 147.089844 "/>
<g clip-path="url(#clip16)" clip-rule="nonzero">
<path style=" stroke:none;fill-rule:nonzero;fill:rgb(39.99939%,39.99939%,39.99939%);fill-opacity:0.3;" d="M 365.691406 145.710938 L 364.570312 149.984375 L 361.375 149.351562 L 360.929688 151.03125 L 364.199219 151.714844 L 354.84375 189.355469 L 345.195312 187.402344 L 351.941406 152.890625 L 353.914062 143.117188 Z M 365.691406 145.710938 "/>
</g>
<path style=" stroke:none;fill-rule:nonzero;fill:rgb(39.99939%,39.99939%,39.99939%);fill-opacity:0.3;" d="M 348.511719 97.199219 L 338.203125 134.355469 L 338.101562 126.738281 L 342.304688 96.082031 Z M 348.511719 97.199219 "/>
<g clip-path="url(#clip17)" clip-rule="nonzero">
<path style=" stroke:none;fill-rule:nonzero;fill:rgb(39.99939%,39.99939%,39.99939%);fill-opacity:0.3;" d="M 376.324219 100.429688 L 365.910156 142.210938 L 354.210938 139.660156 L 361.835938 107.328125 L 360.796875 107.144531 L 359.351562 106.886719 L 352.929688 135.09375 L 347.433594 160.929688 L 342.183594 186.683594 L 332.664062 184.949219 L 340.234375 140.085938 L 351.585938 96.878906 L 361.496094 98.234375 L 360.890625 101.460938 L 362.339844 101.652344 L 363.789062 101.847656 L 364.527344 98.6875 Z M 376.324219 100.429688 "/>
</g>
<g clip-path="url(#clip18)" clip-rule="nonzero">
<path style=" stroke:none;fill-rule:nonzero;fill:rgb(39.99939%,39.99939%,39.99939%);fill-opacity:0.3;" d="M 373.941406 54.605469 L 363.484375 94.296875 L 352.835938 92.828125 L 363.289062 53.148438 Z M 373.941406 54.605469 "/>
</g>
<g clip-path="url(#clip19)" clip-rule="nonzero">
<path style=" stroke:none;fill-rule:nonzero;fill:rgb(39.99939%,39.99939%,39.99939%);fill-opacity:0.3;" d="M 389.902344 103.789062 L 367.710938 191.960938 L 358.050781 190.007812 L 379.78125 102.476562 Z M 389.902344 103.789062 "/>
</g>
<g clip-path="url(#clip20)" clip-rule="nonzero">
<path style=" stroke:none;fill-rule:nonzero;fill:rgb(39.99939%,39.99939%,39.99939%);fill-opacity:0.3;" d="M 360.972656 52.832031 L 350.519531 92.507812 L 342.910156 91.652344 L 347.859375 51.039062 Z M 360.972656 52.832031 "/>
</g>
<path style=" stroke:none;fill-rule:nonzero;fill:rgb(39.99939%,39.99939%,39.99939%);fill-opacity:0.3;" d="M 252.710938 70.160156 L 250.542969 69.484375 L 246.375 58.867188 L 334.164062 28.535156 L 334.84375 28.535156 L 335.527344 28.597656 L 336.070312 28.792969 L 336.613281 29.050781 L 337.089844 29.304688 L 337.628906 29.886719 L 342.855469 45.292969 L 330.09375 142.339844 L 315.398438 148.65625 L 313.816406 148.914062 L 312.402344 149.070312 L 310.820312 148.914062 L 308.699219 148.757812 L 307.226562 148.5 L 295.316406 146.449219 L 287.875 145.171875 L 286.449219 144.8125 L 284.617188 143.984375 L 282.925781 143.050781 L 281.796875 142.09375 L 280.898438 141.199219 L 279.996094 139.980469 L 279.125 138.550781 L 278.613281 136.414062 L 278.976562 135.117188 L 280.078125 132.90625 L 281.058594 130.644531 L 281.914062 128.335938 L 282.640625 125.984375 L 283.238281 123.601562 L 283.703125 121.191406 L 284.035156 118.761719 L 284.234375 116.316406 L 284.296875 113.867188 L 284.242188 111.640625 L 284.046875 109.191406 L 283.722656 106.753906 L 283.261719 104.335938 L 282.667969 101.941406 L 281.949219 99.582031 L 281.097656 97.253906 L 280.121094 94.972656 L 279.023438 92.738281 L 277.804688 90.554688 L 276.46875 88.433594 L 275.023438 86.4375 L 273.46875 84.519531 L 271.8125 82.675781 L 270.050781 80.910156 L 268.195312 79.234375 L 266.246094 77.648438 L 264.210938 76.160156 L 262.097656 74.773438 L 259.910156 73.492188 L 257.65625 72.316406 L 255.335938 71.257812 Z M 252.710938 70.160156 "/>
<path style=" stroke:none;fill-rule:nonzero;fill:rgb(39.99939%,39.99939%,39.99939%);fill-opacity:0.3;" d="M 295.234375 181.207031 L 315.933594 185.503906 L 309.832031 219.222656 L 309.554688 219.484375 L 309.097656 219.660156 L 308.636719 219.570312 L 308.082031 219.308594 L 307.621094 218.957031 L 307.34375 218.539062 L 294.222656 181.996094 Z M 295.234375 181.207031 "/>
<path style=" stroke:none;fill-rule:nonzero;fill:rgb(39.99939%,39.99939%,39.99939%);fill-opacity:0.3;" d="M 353.421875 253.664062 L 345.152344 286.996094 L 344.953125 288.011719 L 344.824219 288.480469 L 344.652344 289.035156 L 344.421875 289.375 L 344.144531 289.703125 L 343.71875 290.152344 L 343.28125 290.480469 L 342.789062 290.726562 L 342.394531 290.914062 L 341.9375 291.007812 L 341.410156 291.070312 L 340.917969 291.070312 L 340.457031 291.039062 L 339.933594 290.914062 L 339.375 290.726562 L 338.878906 290.507812 L 338.386719 290.226562 L 337.992188 289.914062 L 337.597656 289.476562 L 337.234375 289.039062 L 336.804688 288.476562 L 336.542969 287.976562 L 336.082031 287.070312 L 335.816406 286.351562 L 335.585938 285.574219 L 335.378906 284.375 L 335.214844 283.113281 L 335.132812 281.699219 L 335.210938 279.328125 L 335.328125 277.6875 L 335.949219 274.445312 L 337.226562 269.3125 L 337.902344 268.667969 L 341.511719 251.96875 Z M 353.421875 253.664062 "/>
<g clip-path="url(#clip21)" clip-rule="nonzero">
<path style=" stroke:none;fill-rule:nonzero;fill:rgb(39.99939%,39.99939%,39.99939%);fill-opacity:0.3;" d="M 365.796875 197.640625 L 354.195312 252.621094 L 340.761719 250.3125 L 333.285156 280.304688 L 318.769531 244.277344 L 331.105469 190.347656 L 341.402344 192.511719 L 335.046875 218.679688 L 337.558594 224.945312 L 338.246094 223.417969 L 339.082031 221.558594 L 337.929688 219.734375 L 344.414062 193.144531 L 353.914062 195.140625 L 343.425781 238.96875 L 344.328125 239.167969 L 345.230469 239.363281 L 356.1875 195.621094 Z M 365.796875 197.640625 "/>
</g>
<path style=" stroke:none;fill-rule:nonzero;fill:rgb(39.99939%,39.99939%,39.99939%);fill-opacity:0.3;" d="M 329.269531 187.601562 L 317.519531 237.097656 L 317.34375 237.265625 L 317.15625 237.300781 L 316.96875 237.289062 L 316.792969 237.242188 L 316.632812 237.167969 L 316.480469 237.039062 L 316.367188 236.835938 L 316.292969 236.527344 L 311.929688 223.445312 L 319.765625 185.605469 Z M 329.269531 187.601562 "/>
<g clip-path="url(#clip22)" clip-rule="nonzero">
<path style=" stroke:none;fill-rule:nonzero;fill:rgb(39.99939%,39.99939%,39.99939%);fill-opacity:0.3;" d="M 440.804688 209.449219 L 418.886719 236.234375 L 407.6875 249.992188 L 359.675781 308.769531 L 358.957031 309.246094 L 358.027344 309.617188 L 357.121094 309.792969 L 356.253906 309.832031 L 355.640625 309.707031 L 355.121094 309.503906 L 354.074219 308.804688 L 353.21875 307.847656 L 352.558594 306.777344 L 352.058594 304.449219 L 366.972656 230.125 L 374.75 197.25 L 389.550781 199.792969 L 380.871094 240.234375 L 381.785156 240.332031 L 382.714844 240.433594 L 391.792969 200.179688 Z M 440.804688 209.449219 "/>
</g>
<g clip-path="url(#clip23)" clip-rule="nonzero">
<path style=" stroke:none;fill-rule:nonzero;fill:rgb(39.99939%,39.99939%,39.99939%);fill-opacity:0.3;" d="M 300.460938 -86.355469 L 300.753906 -86.738281 L 301.074219 -86.992188 L 301.515625 -87.089844 L 302.28125 -87.039062 L 303.59375 -86.832031 L 420.605469 -65.886719 L 421.683594 -65.546875 L 422.34375 -64.976562 L 422.820312 -64.183594 L 423.09375 -63.277344 L 423.109375 -62.496094 L 423.058594 -61.523438 L 422.679688 -60.050781 L 402.53125 46.773438 L 402.039062 48.261719 L 401.585938 48.925781 L 400.824219 49.605469 L 399.855469 50.265625 L 398.851562 50.820312 L 397.75 51.132812 L 396.703125 51.289062 L 354.234375 45.433594 L 353.289062 45.210938 L 352.257812 44.769531 L 351.171875 44.09375 L 350.257812 43.359375 L 349.566406 42.65625 L 348.3125 40.226562 L 300.3125 -83.355469 L 300.085938 -83.96875 L 300.019531 -84.460938 L 300.058594 -84.90625 L 300.125 -85.328125 L 300.207031 -85.683594 L 300.324219 -86.039062 Z M 300.460938 -86.355469 "/>
</g>
<path style=" stroke:none;fill-rule:nonzero;fill:rgb(39.99939%,39.99939%,39.99939%);fill-opacity:0.3;" d="M 185.582031 -107.628906 L 287.59375 -88.238281 L 288.394531 -87.960938 L 289.164062 -87.558594 L 289.910156 -86.960938 L 290.484375 -86.414062 L 291.070312 -85.636719 L 335.941406 23.519531 L 246.367188 55.054688 L 245.46875 55.179688 L 244.832031 54.9375 L 244.390625 54.394531 L 180.691406 -103.59375 L 180.601562 -104.253906 L 180.6875 -104.890625 L 180.855469 -105.570312 L 181.195312 -106.171875 L 181.703125 -106.816406 L 182.296875 -107.21875 L 182.886719 -107.539062 L 183.527344 -107.703125 L 184.320312 -107.78125 L 185.101562 -107.703125 Z M 185.582031 -107.628906 "/>
<path style="fill-rule:nonzero;fill:rgb(39.99939%,39.99939%,39.99939%);fill-opacity:1;stroke-width:0.03;stroke-linecap:square;stroke-linejoin:miter;stroke:rgb(39.99939%,39.99939%,39.99939%);stroke-opacity:1;stroke-miterlimit:3.239307;" d="M 357.878906 236.457031 L 365.582031 256.726562 L 355.132812 254.394531 L 354.597656 253.378906 Z M 357.878906 236.457031 " transform="matrix(1,0,0,1,-74,-13)"/>
<path style="fill-rule:nonzero;fill:rgb(39.99939%,39.99939%,39.99939%);fill-opacity:1;stroke-width:0.03;stroke-linecap:square;stroke-linejoin:miter;stroke:rgb(39.99939%,39.99939%,39.99939%);stroke-opacity:1;stroke-miterlimit:3.239307;" d="M 382.570312 299.734375 L 362.894531 295.121094 L 368.699219 266.046875 Z M 382.570312 299.734375 " transform="matrix(1,0,0,1,-74,-13)"/>
<path style="fill-rule:nonzero;fill:rgb(39.99939%,39.99939%,39.99939%);fill-opacity:1;stroke-width:0.03;stroke-linecap:square;stroke-linejoin:miter;stroke:rgb(39.99939%,39.99939%,39.99939%);stroke-opacity:1;stroke-miterlimit:3.239307;" d="M 345.816406 220.132812 L 351.359375 221.25 L 356.222656 232.328125 L 351.863281 253.679688 L 340.308594 250.835938 Z M 345.816406 220.132812 " transform="matrix(1,0,0,1,-74,-13)"/>
<path style="fill-rule:nonzero;fill:rgb(39.99939%,39.99939%,39.99939%);fill-opacity:1;stroke-width:0.03;stroke-linecap:square;stroke-linejoin:miter;stroke:rgb(39.99939%,39.99939%,39.99939%);stroke-opacity:1;stroke-miterlimit:3.239307;" d="M 272.082031 314.65625 L 296.035156 284.414062 L 311.183594 287.839844 L 286.636719 317.941406 L 272.164062 314.675781 Z M 272.082031 314.65625 " transform="matrix(1,0,0,1,-74,-13)"/>
<path style="fill-rule:nonzero;fill:rgb(39.99939%,39.99939%,39.99939%);fill-opacity:1;stroke-width:0.03;stroke-linecap:square;stroke-linejoin:miter;stroke:rgb(39.99939%,39.99939%,39.99939%);stroke-opacity:1;stroke-miterlimit:3.239307;" d="M 325.875 215.226562 L 320.164062 246.273438 L 305.921875 242.886719 L 311.734375 211.671875 Z M 325.875 215.226562 " transform="matrix(1,0,0,1,-74,-13)"/>
<path style="fill-rule:nonzero;fill:rgb(39.99939%,39.99939%,39.99939%);fill-opacity:1;stroke-width:0.03;stroke-linecap:square;stroke-linejoin:miter;stroke:rgb(39.99939%,39.99939%,39.99939%);stroke-opacity:1;stroke-miterlimit:3.239307;" d="M 341.070312 219.046875 L 335.515625 249.925781 L 322.875 246.917969 L 328.582031 215.90625 Z M 341.070312 219.046875 " transform="matrix(1,0,0,1,-74,-13)"/>
<path style="fill-rule:nonzero;fill:rgb(39.99939%,39.99939%,39.99939%);fill-opacity:1;stroke-width:0.03;stroke-linecap:square;stroke-linejoin:miter;stroke:rgb(39.99939%,39.99939%,39.99939%);stroke-opacity:1;stroke-miterlimit:3.239307;" d="M 162.902344 212.132812 L 156.800781 245.492188 L 149.597656 225.171875 L 152.652344 209.738281 Z M 162.902344 212.132812 " transform="matrix(1,0,0,1,-74,-13)"/>
<path style="fill-rule:nonzero;fill:rgb(39.99939%,39.99939%,39.99939%);fill-opacity:1;stroke-width:0.03;stroke-linecap:square;stroke-linejoin:miter;stroke:rgb(39.99939%,39.99939%,39.99939%);stroke-opacity:1;stroke-miterlimit:3.239307;" d="M 175.722656 215.125 L 169.113281 249.355469 L 158.902344 246.828125 L 165.191406 212.664062 Z M 175.722656 215.125 " transform="matrix(1,0,0,1,-74,-13)"/>
<path style="fill-rule:nonzero;fill:rgb(39.99939%,39.99939%,39.99939%);fill-opacity:1;stroke-width:0.03;stroke-linecap:square;stroke-linejoin:miter;stroke:rgb(39.99939%,39.99939%,39.99939%);stroke-opacity:1;stroke-miterlimit:3.239307;" d="M 188.359375 218.078125 L 182.085938 252.378906 L 171.707031 249.894531 L 178.011719 215.660156 Z M 188.359375 218.078125 " transform="matrix(1,0,0,1,-74,-13)"/>
<path style="fill-rule:nonzero;fill:rgb(39.99939%,39.99939%,39.99939%);fill-opacity:1;stroke-width:0.03;stroke-linecap:square;stroke-linejoin:miter;stroke:rgb(39.99939%,39.99939%,39.99939%);stroke-opacity:1;stroke-miterlimit:3.239307;" d="M 201.183594 221.070312 L 194.894531 255.449219 L 184.332031 252.917969 L 190.648438 218.609375 Z M 201.183594 221.070312 " transform="matrix(1,0,0,1,-74,-13)"/>
<path style="fill-rule:nonzero;fill:rgb(39.99939%,39.99939%,39.99939%);fill-opacity:1;stroke-width:0.03;stroke-linecap:square;stroke-linejoin:miter;stroke:rgb(39.99939%,39.99939%,39.99939%);stroke-opacity:1;stroke-miterlimit:3.239307;" d="M 214.203125 224.488281 L 207.964844 258.582031 L 197.140625 255.988281 L 203.46875 221.605469 Z M 214.203125 224.488281 " transform="matrix(1,0,0,1,-74,-13)"/>
<path style="fill-rule:nonzero;fill:rgb(39.99939%,39.99939%,39.99939%);fill-opacity:1;stroke-width:0.03;stroke-linecap:square;stroke-linejoin:miter;stroke:rgb(39.99939%,39.99939%,39.99939%);stroke-opacity:1;stroke-miterlimit:3.239307;" d="M 226.753906 227.046875 L 220.449219 261.574219 L 210.214844 259.121094 L 216.503906 224.652344 Z M 226.753906 227.046875 " transform="matrix(1,0,0,1,-74,-13)"/>
<path style="fill-rule:nonzero;fill:rgb(39.99939%,39.99939%,39.99939%);fill-opacity:1;stroke-width:0.03;stroke-linecap:square;stroke-linejoin:miter;stroke:rgb(39.99939%,39.99939%,39.99939%);stroke-opacity:1;stroke-miterlimit:3.239307;" d="M 239.574219 230.042969 L 233.28125 264.648438 L 222.769531 262.128906 L 229.042969 227.582031 Z M 239.574219 230.042969 " transform="matrix(1,0,0,1,-74,-13)"/>
<path style="fill-rule:nonzero;fill:rgb(39.99939%,39.99939%,39.99939%);fill-opacity:1;stroke-width:0.03;stroke-linecap:square;stroke-linejoin:miter;stroke:rgb(39.99939%,39.99939%,39.99939%);stroke-opacity:1;stroke-miterlimit:3.239307;" d="M 252.183594 233.199219 L 245.871094 267.875 L 235.324219 265.347656 L 241.6875 230.746094 Z M 252.183594 233.199219 " transform="matrix(1,0,0,1,-74,-13)"/>
<path style="fill-rule:nonzero;fill:rgb(39.99939%,39.99939%,39.99939%);fill-opacity:1;stroke-width:0.03;stroke-linecap:square;stroke-linejoin:miter;stroke:rgb(39.99939%,39.99939%,39.99939%);stroke-opacity:1;stroke-miterlimit:3.239307;" d="M 126.847656 165.492188 L 131.296875 166.605469 L 130.328125 173.046875 Z M 126.847656 165.492188 " transform="matrix(1,0,0,1,-74,-13)"/>
<path style="fill-rule:nonzero;fill:rgb(39.99939%,39.99939%,39.99939%);fill-opacity:1;stroke-width:0.03;stroke-linecap:square;stroke-linejoin:miter;stroke:rgb(39.99939%,39.99939%,39.99939%);stroke-opacity:1;stroke-miterlimit:3.239307;" d="M 169.972656 175.867188 L 163.789062 208.933594 L 153.773438 206.554688 L 159.535156 173.246094 Z M 169.972656 175.867188 " transform="matrix(1,0,0,1,-74,-13)"/>
<path style="fill-rule:nonzero;fill:rgb(39.99939%,39.99939%,39.99939%);fill-opacity:1;stroke-width:0.03;stroke-linecap:square;stroke-linejoin:miter;stroke:rgb(39.99939%,39.99939%,39.99939%);stroke-opacity:1;stroke-miterlimit:3.239307;" d="M 182.4375 178.910156 L 176.382812 211.832031 L 165.910156 209.34375 L 172.058594 176.300781 Z M 182.4375 178.910156 " transform="matrix(1,0,0,1,-74,-13)"/>
<path style="fill-rule:nonzero;fill:rgb(39.99939%,39.99939%,39.99939%);fill-opacity:1;stroke-width:0.03;stroke-linecap:square;stroke-linejoin:miter;stroke:rgb(39.99939%,39.99939%,39.99939%);stroke-opacity:1;stroke-miterlimit:3.239307;" d="M 195.34375 182.28125 L 189.308594 215.035156 L 179.09375 212.605469 L 185.144531 179.71875 Z M 195.34375 182.28125 " transform="matrix(1,0,0,1,-74,-13)"/>
<path style="fill-rule:nonzero;fill:rgb(39.99939%,39.99939%,39.99939%);fill-opacity:1;stroke-width:0.03;stroke-linecap:square;stroke-linejoin:miter;stroke:rgb(39.99939%,39.99939%,39.99939%);stroke-opacity:1;stroke-miterlimit:3.239307;" d="M 207.425781 185.203125 L 201.359375 217.773438 L 191.804688 215.5 L 197.835938 182.789062 Z M 207.425781 185.203125 " transform="matrix(1,0,0,1,-74,-13)"/>
<path style="fill-rule:nonzero;fill:rgb(39.99939%,39.99939%,39.99939%);fill-opacity:1;stroke-width:0.03;stroke-linecap:square;stroke-linejoin:miter;stroke:rgb(39.99939%,39.99939%,39.99939%);stroke-opacity:1;stroke-miterlimit:3.239307;" d="M 220.238281 188.585938 L 214.203125 220.988281 L 203.859375 218.527344 L 209.917969 185.992188 Z M 220.238281 188.585938 " transform="matrix(1,0,0,1,-74,-13)"/>
<path style="fill-rule:nonzero;fill:rgb(39.99939%,39.99939%,39.99939%);fill-opacity:1;stroke-width:0.03;stroke-linecap:square;stroke-linejoin:miter;stroke:rgb(39.99939%,39.99939%,39.99939%);stroke-opacity:1;stroke-miterlimit:3.239307;" d="M 233.109375 191.320312 L 227.128906 223.421875 L 217.382812 221.101562 L 223.410156 188.734375 L 224.367188 188.976562 Z M 233.109375 191.320312 " transform="matrix(1,0,0,1,-74,-13)"/>
<path style="fill-rule:nonzero;fill:rgb(39.99939%,39.99939%,39.99939%);fill-opacity:1;stroke-width:0.03;stroke-linecap:square;stroke-linejoin:miter;stroke:rgb(39.99939%,39.99939%,39.99939%);stroke-opacity:1;stroke-miterlimit:3.239307;" d="M 257.871094 198.125 L 251.925781 230.035156 L 242.074219 227.691406 L 248.042969 195.652344 Z M 257.871094 198.125 " transform="matrix(1,0,0,1,-74,-13)"/>
<path style="fill-rule:nonzero;fill:rgb(39.99939%,39.99939%,39.99939%);fill-opacity:1;stroke-width:0.03;stroke-linecap:square;stroke-linejoin:miter;stroke:rgb(39.99939%,39.99939%,39.99939%);stroke-opacity:1;stroke-miterlimit:3.239307;" d="M 245.867188 194.671875 L 239.945312 226.472656 L 229.765625 224.050781 L 235.734375 192.015625 Z M 245.867188 194.671875 " transform="matrix(1,0,0,1,-74,-13)"/>
<path style="fill-rule:nonzero;fill:rgb(39.99939%,39.99939%,39.99939%);fill-opacity:1;stroke-width:0.03;stroke-linecap:square;stroke-linejoin:miter;stroke:rgb(39.99939%,39.99939%,39.99939%);stroke-opacity:1;stroke-miterlimit:3.239307;" d="M 270.941406 201.410156 L 265.027344 233.15625 L 254.5625 230.664062 L 260.5 198.785156 Z M 270.941406 201.410156 " transform="matrix(1,0,0,1,-74,-13)"/>
<path style="fill-rule:nonzero;fill:rgb(39.99939%,39.99939%,39.99939%);fill-opacity:1;stroke-width:0.03;stroke-linecap:square;stroke-linejoin:miter;stroke:rgb(39.99939%,39.99939%,39.99939%);stroke-opacity:1;stroke-miterlimit:3.239307;" d="M 284.007812 204.695312 L 278.125 236.269531 L 267.664062 233.78125 L 273.570312 202.070312 Z M 284.007812 204.695312 " transform="matrix(1,0,0,1,-74,-13)"/>
<path style="fill-rule:nonzero;fill:rgb(39.99939%,39.99939%,39.99939%);fill-opacity:1;stroke-width:0.03;stroke-linecap:square;stroke-linejoin:miter;stroke:rgb(39.99939%,39.99939%,39.99939%);stroke-opacity:1;stroke-miterlimit:3.239307;" d="M 144.550781 169.351562 L 139.570312 200.605469 L 132.007812 179.972656 L 133.894531 166.683594 Z M 144.550781 169.351562 " transform="matrix(1,0,0,1,-74,-13)"/>
<path style="fill-rule:nonzero;fill:rgb(39.99939%,39.99939%,39.99939%);fill-opacity:1;stroke-width:0.03;stroke-linecap:square;stroke-linejoin:miter;stroke:rgb(39.99939%,39.99939%,39.99939%);stroke-opacity:1;stroke-miterlimit:3.239307;" d="M 156.996094 172.808594 L 151.300781 206.160156 L 141.140625 203.78125 L 147.078125 170.316406 Z M 156.996094 172.808594 " transform="matrix(1,0,0,1,-74,-13)"/>
<path style="fill-rule:nonzero;fill:rgb(39.99939%,39.99939%,39.99939%);fill-opacity:1;stroke-width:0.03;stroke-linecap:square;stroke-linejoin:miter;stroke:rgb(39.99939%,39.99939%,39.99939%);stroke-opacity:1;stroke-miterlimit:3.239307;" d="M 264.109375 236.246094 L 257.878906 270.039062 L 247.554688 267.566406 L 253.863281 233.996094 Z M 264.109375 236.246094 " transform="matrix(1,0,0,1,-74,-13)"/>
<path style="fill-rule:nonzero;fill:rgb(39.99939%,39.99939%,39.99939%);fill-opacity:1;stroke-width:0.03;stroke-linecap:square;stroke-linejoin:miter;stroke:rgb(39.99939%,39.99939%,39.99939%);stroke-opacity:1;stroke-miterlimit:3.239307;" d="M 302.34375 244.910156 L 295.914062 279.402344 L 285.800781 276.976562 L 291.929688 242.710938 Z M 302.34375 244.910156 " transform="matrix(1,0,0,1,-74,-13)"/>
<path style="fill-rule:nonzero;fill:rgb(39.99939%,39.99939%,39.99939%);fill-opacity:1;stroke-width:0.03;stroke-linecap:square;stroke-linejoin:miter;stroke:rgb(39.99939%,39.99939%,39.99939%);stroke-opacity:1;stroke-miterlimit:3.239307;" d="M 318.859375 249.273438 L 312.519531 283.382812 L 298.398438 280 L 304.976562 245.691406 Z M 318.859375 249.273438 " transform="matrix(1,0,0,1,-74,-13)"/>
<path style="fill-rule:nonzero;fill:rgb(39.99939%,39.99939%,39.99939%);fill-opacity:1;stroke-width:0.03;stroke-linecap:square;stroke-linejoin:miter;stroke:rgb(39.99939%,39.99939%,39.99939%);stroke-opacity:1;stroke-miterlimit:3.239307;" d="M 333.59375 252.226562 L 327.226562 286.824219 L 315.328125 283.96875 L 321.9375 249.464844 Z M 333.59375 252.226562 " transform="matrix(1,0,0,1,-74,-13)"/>
<path style="fill-rule:nonzero;fill:rgb(39.99939%,39.99939%,39.99939%);fill-opacity:1;stroke-width:0.03;stroke-linecap:square;stroke-linejoin:miter;stroke:rgb(39.99939%,39.99939%,39.99939%);stroke-opacity:1;stroke-miterlimit:3.239307;" d="M 350.71875 256.316406 L 344.796875 291.042969 L 331.816406 287.929688 L 339.425781 254.050781 Z M 350.71875 256.316406 " transform="matrix(1,0,0,1,-74,-13)"/>
<path style="fill-rule:nonzero;fill:rgb(39.99939%,39.99939%,39.99939%);fill-opacity:1;stroke-width:0.03;stroke-linecap:square;stroke-linejoin:miter;stroke:rgb(39.99939%,39.99939%,39.99939%);stroke-opacity:1;stroke-miterlimit:3.239307;" d="M 365.984375 259.65625 L 366.226562 262.992188 L 359.871094 294.535156 L 346.738281 291.386719 L 353.296875 256.839844 Z M 365.984375 259.65625 " transform="matrix(1,0,0,1,-74,-13)"/>
<path style="fill-rule:nonzero;fill:rgb(39.99939%,39.99939%,39.99939%);fill-opacity:1;stroke-width:0.03;stroke-linecap:square;stroke-linejoin:miter;stroke:rgb(39.99939%,39.99939%,39.99939%);stroke-opacity:1;stroke-miterlimit:3.239307;" d="M 166.574219 255.613281 L 164.902344 266.546875 L 160.617188 254.160156 Z M 166.574219 255.613281 " transform="matrix(1,0,0,1,-74,-13)"/>
<path style="fill-rule:nonzero;fill:rgb(39.99939%,39.99939%,39.99939%);fill-opacity:1;stroke-width:0.03;stroke-linecap:square;stroke-linejoin:miter;stroke:rgb(39.99939%,39.99939%,39.99939%);stroke-opacity:1;stroke-miterlimit:3.239307;" d="M 179.277344 257.109375 L 174.269531 284.332031 L 173.234375 283.296875 L 171.414062 281.996094 L 167.472656 271.050781 L 170.445312 255.113281 Z M 179.277344 257.109375 " transform="matrix(1,0,0,1,-74,-13)"/>
<path style="fill-rule:nonzero;fill:rgb(39.99939%,39.99939%,39.99939%);fill-opacity:1;stroke-width:0.03;stroke-linecap:square;stroke-linejoin:miter;stroke:rgb(39.99939%,39.99939%,39.99939%);stroke-opacity:1;stroke-miterlimit:3.239307;" d="M 206.394531 263.019531 L 200.132812 297.226562 L 192.914062 295.601562 L 189.796875 294.515625 L 196.042969 260.601562 Z M 206.394531 263.019531 " transform="matrix(1,0,0,1,-74,-13)"/>
<path style="fill-rule:nonzero;fill:rgb(39.99939%,39.99939%,39.99939%);fill-opacity:1;stroke-width:0.03;stroke-linecap:square;stroke-linejoin:miter;stroke:rgb(39.99939%,39.99939%,39.99939%);stroke-opacity:1;stroke-miterlimit:3.239307;" d="M 218.453125 266.371094 L 214.269531 301.117188 L 203.039062 298.585938 L 208.398438 264.097656 Z M 218.453125 266.371094 " transform="matrix(1,0,0,1,-74,-13)"/>
<path style="fill-rule:nonzero;fill:rgb(39.99939%,39.99939%,39.99939%);fill-opacity:1;stroke-width:0.03;stroke-linecap:square;stroke-linejoin:miter;stroke:rgb(39.99939%,39.99939%,39.99939%);stroke-opacity:1;stroke-miterlimit:3.239307;" d="M 231.445312 269.792969 L 229.050781 304.9375 L 217.359375 302.265625 L 221.390625 267.519531 Z M 231.445312 269.792969 " transform="matrix(1,0,0,1,-74,-13)"/>
<path style="fill-rule:nonzero;fill:rgb(39.99939%,39.99939%,39.99939%);fill-opacity:1;stroke-width:0.03;stroke-linecap:square;stroke-linejoin:miter;stroke:rgb(39.99939%,39.99939%,39.99939%);stroke-opacity:1;stroke-miterlimit:3.239307;" d="M 244.355469 272.386719 L 243.515625 307.871094 L 231.945312 305.242188 L 234.300781 270.113281 Z M 244.355469 272.386719 " transform="matrix(1,0,0,1,-74,-13)"/>
<path style="fill-rule:nonzero;fill:rgb(39.99939%,39.99939%,39.99939%);fill-opacity:1;stroke-width:0.03;stroke-linecap:square;stroke-linejoin:miter;stroke:rgb(39.99939%,39.99939%,39.99939%);stroke-opacity:1;stroke-miterlimit:3.239307;" d="M 256.410156 275.109375 L 255.554688 310.585938 L 245.941406 308.414062 L 247.035156 272.992188 Z M 256.410156 275.109375 " transform="matrix(1,0,0,1,-74,-13)"/>
<path style="fill-rule:nonzero;fill:rgb(39.99939%,39.99939%,39.99939%);fill-opacity:1;stroke-width:0.03;stroke-linecap:square;stroke-linejoin:miter;stroke:rgb(39.99939%,39.99939%,39.99939%);stroke-opacity:1;stroke-miterlimit:3.239307;" d="M 268.484375 278.046875 L 267.898438 313.554688 L 265.261719 312.984375 L 259.089844 311.59375 L 260.179688 276.171875 Z M 268.484375 278.046875 " transform="matrix(1,0,0,1,-74,-13)"/>
<path style="fill-rule:nonzero;fill:rgb(39.99939%,39.99939%,39.99939%);fill-opacity:1;stroke-width:0.03;stroke-linecap:square;stroke-linejoin:miter;stroke:rgb(39.99939%,39.99939%,39.99939%);stroke-opacity:1;stroke-miterlimit:3.239307;" d="M 282.226562 279.964844 L 278.800781 301.746094 L 270.871094 311.214844 L 271.90625 277.632812 Z M 282.226562 279.964844 " transform="matrix(1,0,0,1,-74,-13)"/>
<path style="fill-rule:nonzero;fill:rgb(39.99939%,39.99939%,39.99939%);fill-opacity:1;stroke-width:0.03;stroke-linecap:square;stroke-linejoin:miter;stroke:rgb(39.99939%,39.99939%,39.99939%);stroke-opacity:1;stroke-miterlimit:3.239307;" d="M 294.746094 282.796875 L 283.726562 295.769531 L 283.125 295.769531 L 282.757812 295.332031 L 285.5 280.707031 Z M 294.746094 282.796875 " transform="matrix(1,0,0,1,-74,-13)"/>
<path style="fill-rule:nonzero;fill:rgb(39.99939%,39.99939%,39.99939%);fill-opacity:1;stroke-width:0.03;stroke-linecap:square;stroke-linejoin:miter;stroke:rgb(39.99939%,39.99939%,39.99939%);stroke-opacity:1;stroke-miterlimit:3.239307;" d="M 289.722656 318.386719 L 313.921875 288.457031 L 327.152344 291.449219 L 302.679688 321.570312 Z M 289.722656 318.386719 " transform="matrix(1,0,0,1,-74,-13)"/>
<path style="fill-rule:nonzero;fill:rgb(39.99939%,39.99939%,39.99939%);fill-opacity:1;stroke-width:0.03;stroke-linecap:square;stroke-linejoin:miter;stroke:rgb(39.99939%,39.99939%,39.99939%);stroke-opacity:1;stroke-miterlimit:3.239307;" d="M 141.996094 207.796875 L 149.691406 209.609375 L 147.222656 221.953125 Z M 141.996094 207.796875 " transform="matrix(1,0,0,1,-74,-13)"/>
<path style="fill-rule:nonzero;fill:rgb(39.99939%,39.99939%,39.99939%);fill-opacity:1;stroke-width:0.03;stroke-linecap:square;stroke-linejoin:miter;stroke:rgb(39.99939%,39.99939%,39.99939%);stroke-opacity:1;stroke-miterlimit:3.239307;" d="M 296.109375 207.742188 L 290.257812 239.15625 L 280.761719 236.898438 L 286.636719 205.359375 Z M 296.109375 207.742188 " transform="matrix(1,0,0,1,-74,-13)"/>
<path style="fill-rule:nonzero;fill:rgb(39.99939%,39.99939%,39.99939%);fill-opacity:1;stroke-width:0.03;stroke-linecap:square;stroke-linejoin:miter;stroke:rgb(39.99939%,39.99939%,39.99939%);stroke-opacity:1;stroke-miterlimit:3.239307;" d="M 309.105469 211.007812 L 303.285156 242.257812 L 292.894531 239.785156 L 298.738281 208.402344 Z M 309.105469 211.007812 " transform="matrix(1,0,0,1,-74,-13)"/>
<path style="fill-rule:nonzero;fill:rgb(39.99939%,39.99939%,39.99939%);fill-opacity:1;stroke-width:0.03;stroke-linecap:square;stroke-linejoin:miter;stroke:rgb(39.99939%,39.99939%,39.99939%);stroke-opacity:1;stroke-miterlimit:3.239307;" d="M 192.828125 260.027344 L 186.753906 293.203125 L 177.242188 286.863281 L 182.476562 257.609375 Z M 192.828125 260.027344 " transform="matrix(1,0,0,1,-74,-13)"/>
<path style="fill-rule:nonzero;fill:rgb(39.99939%,39.99939%,39.99939%);fill-opacity:1;stroke-width:0.03;stroke-linecap:square;stroke-linejoin:miter;stroke:rgb(39.99939%,39.99939%,39.99939%);stroke-opacity:1;stroke-miterlimit:3.239307;" d="M 287.894531 242.710938 L 282.042969 276.601562 L 261.167969 271.570312 L 267.070312 237.953125 Z M 287.894531 242.710938 " transform="matrix(1,0,0,1,-74,-13)"/>
<path style="fill-rule:nonzero;fill:rgb(39.99939%,39.99939%,39.99939%);fill-opacity:1;stroke-width:0.03;stroke-linecap:square;stroke-linejoin:miter;stroke:rgb(39.99939%,39.99939%,39.99939%);stroke-opacity:1;stroke-miterlimit:3.239307;" d="M 127.019531 163.269531 L 125.464844 162.875 L 125.429688 162.722656 Z M 127.019531 163.269531 " transform="matrix(1,0,0,1,-74,-13)"/>
<g clip-path="url(#clip24)" clip-rule="nonzero">
<path style=" stroke:none;fill-rule:evenodd;fill:rgb(85.096741%,85.096741%,81.959534%);fill-opacity:0.7;" d="M 338.9375 357 C 338.9375 353.832031 337.679688 350.796875 335.441406 348.558594 C 333.203125 346.320312 330.167969 345.0625 327 345.0625 C 323.832031 345.0625 320.796875 346.320312 318.558594 348.558594 C 316.320312 350.796875 315.0625 353.832031 315.0625 357 C 315.0625 360.167969 316.320312 363.203125 318.558594 365.441406 C 320.796875 367.679688 323.832031 368.9375 327 368.9375 C 330.167969 368.9375 333.203125 367.679688 335.441406 365.441406 C 337.679688 363.203125 338.9375 360.167969 338.9375 357 Z M 338.9375 357 "/>
</g>
<g clip-path="url(#clip25)" clip-rule="nonzero">
<path style=" stroke:none;fill-rule:evenodd;fill:rgb(85.096741%,85.096741%,81.959534%);fill-opacity:0.7;" d="M 215.9375 352 C 215.9375 348.832031 214.679688 345.796875 212.441406 343.558594 C 210.203125 341.320312 207.167969 340.0625 204 340.0625 C 200.832031 340.0625 197.796875 341.320312 195.558594 343.558594 C 193.320312 345.796875 192.0625 348.832031 192.0625 352 C 192.0625 355.167969 193.320312 358.203125 195.558594 360.441406 C 197.796875 362.679688 200.832031 363.9375 204 363.9375 C 207.167969 363.9375 210.203125 362.679688 212.441406 360.441406 C 214.679688 358.203125 215.9375 355.167969 215.9375 352 Z M 215.9375 352 "/>
</g>
<path style=" stroke:none;fill-rule:evenodd;fill:rgb(85.096741%,85.096741%,81.959534%);fill-opacity:0.7;" d="M 104.9375 251 C 104.9375 247.832031 103.679688 244.796875 101.441406 242.558594 C 99.203125 240.320312 96.167969 239.0625 93 239.0625 C 89.832031 239.0625 86.796875 240.320312 84.558594 242.558594 C 82.320312 244.796875 81.0625 247.832031 81.0625 251 C 81.0625 254.167969 82.320312 257.203125 84.558594 259.441406 C 86.796875 261.679688 89.832031 262.9375 93 262.9375 C 96.167969 262.9375 99.203125 261.679688 101.441406 259.441406 C 103.679688 257.203125 104.9375 254.167969 104.9375 251 Z M 104.9375 251 "/>
<path style=" stroke:none;fill-rule:evenodd;fill:rgb(85.096741%,85.096741%,81.959534%);fill-opacity:0.7;" d="M 109.9375 245 C 109.9375 241.832031 108.679688 238.796875 106.441406 236.558594 C 104.203125 234.320312 101.167969 233.0625 98 233.0625 C 94.832031 233.0625 91.796875 234.320312 89.558594 236.558594 C 87.320312 238.796875 86.0625 241.832031 86.0625 245 C 86.0625 248.167969 87.320312 251.203125 89.558594 253.441406 C 91.796875 255.679688 94.832031 256.9375 98 256.9375 C 101.167969 256.9375 104.203125 255.679688 106.441406 253.441406 C 108.679688 251.203125 109.9375 248.167969 109.9375 245 Z M 109.9375 245 "/>
<path style=" stroke:none;fill-rule:evenodd;fill:rgb(85.096741%,85.096741%,81.959534%);fill-opacity:0.7;" d="M 92.9375 230 C 92.9375 226.832031 91.679688 223.796875 89.441406 221.558594 C 87.203125 219.320312 84.167969 218.0625 81 218.0625 C 77.832031 218.0625 74.796875 219.320312 72.558594 221.558594 C 70.320312 223.796875 69.0625 226.832031 69.0625 230 C 69.0625 233.167969 70.320312 236.203125 72.558594 238.441406 C 74.796875 240.679688 77.832031 241.9375 81 241.9375 C 84.167969 241.9375 87.203125 240.679688 89.441406 238.441406 C 91.679688 236.203125 92.9375 233.167969 92.9375 230 Z M 92.9375 230 "/>
<path style=" stroke:none;fill-rule:evenodd;fill:rgb(85.096741%,85.096741%,81.959534%);fill-opacity:0.7;" d="M 167.9375 147 C 167.9375 143.832031 166.679688 140.796875 164.441406 138.558594 C 162.203125 136.320312 159.167969 135.0625 156 135.0625 C 152.832031 135.0625 149.796875 136.320312 147.558594 138.558594 C 145.320312 140.796875 144.0625 143.832031 144.0625 147 C 144.0625 150.167969 145.320312 153.203125 147.558594 155.441406 C 149.796875 157.679688 152.832031 158.9375 156 158.9375 C 159.167969 158.9375 162.203125 157.679688 164.441406 155.441406 C 166.679688 153.203125 167.9375 150.167969 167.9375 147 Z M 167.9375 147 "/>
</g>
</svg>
