<?xml version="1.0" encoding="UTF-8"?>
<svg xmlns="http://www.w3.org/2000/svg" xmlns:xlink="http://www.w3.org/1999/xlink" width="361pt" height="361pt" viewBox="0 0 361 361" version="1.1">
<defs>
<clipPath id="clip1">
  <path d="M 94 0 L 360 0 L 360 41 L 94 41 Z M 94 0 "/>
</clipPath>
<clipPath id="clip2">
  <path d="M 282 0 L 360 0 L 360 11 L 282 11 Z M 282 0 "/>
</clipPath>
<clipPath id="clip3">
  <path d="M 341 0 L 360 0 L 360 24 L 341 24 Z M 341 0 "/>
</clipPath>
<clipPath id="clip4">
  <path d="M 219 302 L 251 302 L 251 360 L 219 360 Z M 219 302 "/>
</clipPath>
<clipPath id="clip5">
  <path d="M 251 300 L 284 300 L 284 360 L 251 360 Z M 251 300 "/>
</clipPath>
<clipPath id="clip6">
  <path d="M 349 291 L 360 291 L 360 314 L 349 314 Z M 349 291 "/>
</clipPath>
<clipPath id="clip7">
  <path d="M 48 302 L 192 302 L 192 360 L 48 360 Z M 48 302 "/>
</clipPath>
<clipPath id="clip8">
  <path d="M 0 0 L 192 0 L 192 360 L 0 360 Z M 0 0 "/>
</clipPath>
<clipPath id="clip9">
  <path d="M 260 317 L 360 317 L 360 360 L 260 360 Z M 260 317 "/>
</clipPath>
<clipPath id="clip10">
  <path d="M 333 120 L 360 120 L 360 158 L 333 158 Z M 333 120 "/>
</clipPath>
<clipPath id="clip11">
  <path d="M 318 49 L 360 49 L 360 109 L 318 109 Z M 318 49 "/>
</clipPath>
<clipPath id="clip12">
  <path d="M 309 67 L 360 67 L 360 126 L 309 126 Z M 309 67 "/>
</clipPath>
<clipPath id="clip13">
  <path d="M 297 142 L 360 142 L 360 228 L 297 228 Z M 297 142 "/>
</clipPath>
<clipPath id="clip14">
  <path d="M 324 12 L 360 12 L 360 70 L 324 70 Z M 324 12 "/>
</clipPath>
<clipPath id="clip15">
  <path d="M 346 162 L 360 162 L 360 238 L 346 238 Z M 346 162 "/>
</clipPath>
<clipPath id="clip16">
  <path d="M 331 236 L 360 236 L 360 313 L 331 313 Z M 331 236 "/>
</clipPath>
<clipPath id="clip17">
  <path d="M 308 195 L 360 195 L 360 265 L 308 265 Z M 308 195 "/>
</clipPath>
</defs>
<g id="surface952">
<path style="fill-rule:nonzero;fill:rgb(0%,0%,0%);fill-opacity:1;stroke-width:0.03;stroke-linecap:square;stroke-linejoin:miter;stroke:rgb(0%,0%,0%);stroke-opacity:1;stroke-miterlimit:10;" d="M 0 178 L 360 178 L 360 -182 L 0 -182 Z M 0 178 " transform="matrix(1,0,0,1,0,182)"/>
<g clip-path="url(#clip1)" clip-rule="nonzero">
<path style=" stroke:none;fill-rule:nonzero;fill:rgb(39.99939%,39.99939%,39.99939%);fill-opacity:0.3;" d="M 196.78125 -498.441406 L 451.953125 -71.703125 L 452.070312 -71.496094 L 450.742188 -68.550781 L 440.050781 -63.859375 L 429.300781 -60.449219 L 418.75 -59.785156 L 411.875 -57.945312 L 404.976562 -56.855469 L 398.480469 -55.496094 L 392.078125 -55.167969 L 387.0625 -54.285156 L 381.21875 -53.269531 L 376.765625 -51.289062 L 372.511719 -49.164062 L 367.835938 -46.214844 L 357.921875 -38.003906 L 340.421875 -25.835938 L 331.4375 -18.804688 L 325.175781 -14.46875 L 311.417969 -12.597656 L 282.4375 2.8125 L 279.707031 3.992188 L 276.730469 5.253906 L 272.359375 5.726562 L 269.378906 6.625 L 266.847656 7.078125 L 263.316406 7.460938 L 259.894531 7.8125 L 251.648438 8.507812 L 242.808594 9.199219 L 236.257812 10.328125 L 226.339844 13.960938 L 220.40625 16.855469 L 210.519531 26.472656 L 208.015625 28.492188 L 205.570312 30.464844 L 201.335938 34.863281 L 196.089844 40.648438 L 94.203125 -459.371094 L 110.902344 -467.3125 L 150.898438 -481.734375 L 153.167969 -482.59375 L 155.054688 -483.257812 Z M 196.78125 -498.441406 "/>
</g>
<g clip-path="url(#clip2)" clip-rule="nonzero">
<path style=" stroke:none;fill-rule:nonzero;fill:rgb(39.99939%,39.99939%,39.99939%);fill-opacity:0.3;" d="M 282.597656 2.957031 L 311.515625 -12.234375 L 325.253906 -14.324219 L 331.585938 -18.707031 L 340.507812 -25.550781 L 358.359375 -37.871094 L 367.992188 -46.160156 L 372.636719 -49.042969 L 376.910156 -51.167969 L 381.296875 -53.125 L 387.113281 -54.152344 L 392.125 -55.09375 L 398.480469 -55.351562 L 404.945312 -56.699219 L 411.902344 -57.78125 L 418.960938 -59.515625 L 429.371094 -60.09375 L 440.15625 -63.542969 L 450.65625 -68.359375 L 446.164062 -58.414062 L 446.460938 -55.75 L 442.238281 -53.832031 L 438.089844 -51.453125 L 433.679688 -47.582031 L 428.589844 -43.710938 L 424.519531 -41.128906 L 419.375 -40.03125 L 413.464844 -39.546875 L 408.308594 -38.824219 L 394.355469 -34.75 L 379.6875 -29.152344 L 371.007812 -23.835938 L 364.796875 -18.828125 L 360.742188 -15.101562 L 355.269531 -10.601562 L 346.089844 -4.941406 L 340.214844 -3.859375 L 321.199219 -2.46875 L 314.71875 0.507812 L 311.503906 10.621094 Z M 282.597656 2.957031 "/>
</g>
<g clip-path="url(#clip3)" clip-rule="nonzero">
<path style=" stroke:none;fill-rule:nonzero;fill:rgb(39.99939%,39.99939%,39.99939%);fill-opacity:0.3;" d="M 341.070312 2.78125 L 347.609375 -0.0898438 L 352.636719 -2.605469 L 357.035156 -6.1875 L 364.222656 -11.59375 L 369.535156 -15.582031 L 374.84375 -20.367188 L 384.632812 -26.488281 L 396.660156 -31.8125 L 407.878906 -35.558594 L 418.75 -35.894531 L 427.917969 -38.160156 L 436.398438 -46.226562 L 443.082031 -51.117188 L 446.234375 -52.285156 L 446.859375 -52.164062 L 447.507812 -46.332031 L 443.792969 -41.976562 L 437.671875 -33.988281 L 430.152344 -23.011719 L 423.871094 -14.953125 L 413.121094 -5.042969 L 403.929688 1.59375 L 394.042969 9.832031 L 388.082031 15.746094 L 379.296875 23.003906 Z M 341.070312 2.78125 "/>
</g>
<path style=" stroke:none;fill-rule:nonzero;fill:rgb(39.99939%,39.99939%,39.99939%);fill-opacity:0.3;" d="M 266.878906 7.675781 L 269.347656 7.160156 L 272.515625 6.0625 L 276.835938 5.511719 L 311.136719 14.21875 L 298.457031 45.941406 L 255.765625 35.429688 Z M 266.878906 7.675781 "/>
<path style=" stroke:none;fill-rule:nonzero;fill:rgb(39.99939%,39.99939%,39.99939%);fill-opacity:0.3;" d="M 212.300781 25.8125 L 220.28125 17.746094 L 226.609375 14.433594 L 235.152344 11.121094 L 242.859375 9.636719 L 251.722656 9.039062 L 259.847656 8.386719 L 248.582031 34.695312 Z M 212.300781 25.8125 "/>
<path style=" stroke:none;fill-rule:nonzero;fill:rgb(39.99939%,39.99939%,39.99939%);fill-opacity:0.3;" d="M 208.261719 28.875 L 296.976562 49.734375 L 291.132812 65.308594 L 265.988281 57.910156 L 254.09375 54.9375 L 236.742188 50.066406 L 229.605469 48.816406 L 220.507812 46.542969 L 197.769531 43.042969 L 196.96875 43.101562 L 196.335938 42.992188 L 196.082031 41.074219 L 201.515625 35.128906 L 205.890625 30.859375 Z M 208.261719 28.875 "/>
<path style=" stroke:none;fill-rule:nonzero;fill:rgb(39.99939%,39.99939%,39.99939%);fill-opacity:0.3;" d="M -29.792969 -415.214844 L -29.019531 -415.460938 L -22 -418.148438 L 9.386719 -431.210938 L 11.210938 -431.957031 L 13.179688 -432.816406 L 35.78125 -440.941406 L 37.550781 -441.519531 L 39.304688 -441.9375 L 54.402344 -446.65625 L 56.1875 -447.527344 L 58.519531 -448.414062 L 88.175781 -457.429688 L 93.425781 -459.105469 L 110.5625 -375.75 L 127.808594 -292.574219 L 144.546875 -210.113281 L 161.757812 -126.074219 L 178.894531 -42.625 L 195.859375 40.773438 L 193.226562 43.378906 L 92.199219 50.828125 Z M -29.792969 -415.214844 "/>
<path style=" stroke:none;fill-rule:nonzero;fill:rgb(39.99939%,39.99939%,39.99939%);fill-opacity:0.3;" d="M 324.460938 45.050781 L 322.597656 43.65625 L 313.847656 61.773438 L 312.628906 65.933594 L 311.238281 69.246094 L 309.453125 71.703125 L 306.222656 74.53125 L 302.09375 71.433594 L 301.816406 69.917969 L 301.117188 68.429688 L 299.914062 67.085938 L 298.320312 66.3125 L 301.199219 50.785156 L 316.355469 15.871094 L 318.941406 9.304688 L 320.375 3.835938 L 328.152344 2.460938 L 337.085938 2.175781 L 337.957031 7.917969 L 346.28125 12.210938 L 326.339844 41.292969 Z M 324.460938 45.050781 "/>
<path style=" stroke:none;fill-rule:nonzero;fill:rgb(39.99939%,39.99939%,39.99939%);fill-opacity:0.3;" d="M 280.222656 279.609375 L 279.945312 267.496094 L 289.03125 268.300781 L 303.597656 280.066406 Z M 280.222656 279.609375 "/>
<path style=" stroke:none;fill-rule:nonzero;fill:rgb(39.99939%,39.99939%,39.99939%);fill-opacity:0.3;" d="M 216.765625 264.152344 L 260.773438 264.476562 L 260.949219 267.140625 L 276.078125 266.910156 L 276.078125 279.527344 L 217.75 278.382812 Z M 216.765625 264.152344 "/>
<path style=" stroke:none;fill-rule:nonzero;fill:rgb(39.99939%,39.99939%,39.99939%);fill-opacity:0.3;" d="M 158.839844 160.09375 L 158.976562 162.335938 L 138.191406 159.175781 L 138.167969 157.871094 Z M 158.839844 160.09375 "/>
<path style=" stroke:none;fill-rule:nonzero;fill:rgb(39.99939%,39.99939%,39.99939%);fill-opacity:0.3;" d="M 182.914062 162.679688 L 183.195312 166.003906 L 162.039062 162.78125 L 161.878906 160.417969 Z M 182.914062 162.679688 "/>
<path style=" stroke:none;fill-rule:nonzero;fill:rgb(39.99939%,39.99939%,39.99939%);fill-opacity:0.3;" d="M 102.140625 157.085938 L 192.5 171.363281 L 190.433594 180.695312 L 98.738281 165.738281 Z M 102.140625 157.085938 "/>
<path style=" stroke:none;fill-rule:nonzero;fill:rgb(39.99939%,39.99939%,39.99939%);fill-opacity:0.3;" d="M 135.171875 157.546875 L 135.175781 158.710938 L 108.886719 154.722656 Z M 135.171875 157.546875 "/>
<path style=" stroke:none;fill-rule:nonzero;fill:rgb(39.99939%,39.99939%,39.99939%);fill-opacity:0.3;" d="M 97.1875 169.6875 L 184.234375 182.945312 L 185.785156 209.515625 L 86.015625 198.09375 Z M 97.1875 169.6875 "/>
<path style=" stroke:none;fill-rule:nonzero;fill:rgb(39.99939%,39.99939%,39.99939%);fill-opacity:0.3;" d="M 83.984375 203.257812 L 185.789062 213.265625 L 188.378906 244.886719 L 72.625 232.136719 L 72.695312 231.964844 Z M 83.984375 203.257812 "/>
<path style=" stroke:none;fill-rule:nonzero;fill:rgb(39.99939%,39.99939%,39.99939%);fill-opacity:0.3;" d="M 71.082031 235.949219 L 188.851562 248.808594 L 189.351562 278.332031 L 59.820312 263.722656 Z M 71.082031 235.949219 "/>
<path style=" stroke:none;fill-rule:nonzero;fill:rgb(39.99939%,39.99939%,39.99939%);fill-opacity:0.3;" d="M 58.5625 268.277344 L 190.34375 281.628906 L 190.726562 307.820312 L 188.09375 308.570312 L 51.429688 296.105469 Z M 58.5625 268.277344 "/>
<path style=" stroke:none;fill-rule:nonzero;fill:rgb(39.99939%,39.99939%,39.99939%);fill-opacity:0.3;" d="M 207.429688 169.65625 L 224.8125 169.898438 L 244.890625 169.914062 L 257.5625 166.332031 L 260.765625 165.054688 L 266.984375 165.835938 L 274.027344 175.988281 L 277.914062 181.371094 L 282.101562 185.859375 L 273.140625 189.238281 L 274.109375 191.207031 L 274.171875 191.351562 L 275.035156 193.332031 L 284.195312 189.425781 L 292.421875 198.929688 L 300.445312 207.394531 L 305.105469 211.507812 L 304.921875 214.90625 L 292.824219 216.007812 L 289.589844 212.539062 L 288.636719 213.105469 L 287.746094 213.632812 L 290.792969 217.09375 L 292.410156 221.578125 L 292.628906 234.429688 L 279.992188 234.445312 L 278.09375 232.246094 L 272.632812 226.085938 L 271.90625 226.691406 L 271.132812 227.339844 L 276.136719 233.421875 L 276.042969 264.800781 L 262.238281 263.117188 L 262.230469 260.632812 L 214.730469 260.304688 L 214.382812 231.507812 L 260.265625 230.417969 L 260.265625 228.75 L 260.261719 226.617188 L 214.011719 227.015625 L 210.65625 199.59375 L 252.171875 202.339844 L 252.285156 200.429688 L 252.382812 198.796875 L 209.972656 195.867188 Z M 207.429688 169.65625 "/>
<path style=" stroke:none;fill-rule:nonzero;fill:rgb(39.99939%,39.99939%,39.99939%);fill-opacity:0.3;" d="M 278.441406 237.542969 L 298.191406 237.640625 L 298.351562 238.085938 L 280.859375 238.960938 L 280.859375 249.796875 L 278.574219 249.726562 Z M 278.441406 237.542969 "/>
<path style=" stroke:none;fill-rule:nonzero;fill:rgb(39.99939%,39.99939%,39.99939%);fill-opacity:0.3;" d="M 307.039062 214.714844 L 307.066406 213.148438 L 308.570312 214.574219 Z M 307.039062 214.714844 "/>
<path style=" stroke:none;fill-rule:nonzero;fill:rgb(39.99939%,39.99939%,39.99939%);fill-opacity:0.3;" d="M 297.050781 234.46875 L 295.730469 234.425781 L 295.640625 230.558594 Z M 297.050781 234.46875 "/>
<path style=" stroke:none;fill-rule:nonzero;fill:rgb(39.99939%,39.99939%,39.99939%);fill-opacity:0.3;" d="M 286.023438 265.871094 L 278.695312 265.21875 L 278.808594 253.003906 L 280.859375 253.042969 L 280.859375 261.699219 Z M 286.023438 265.871094 "/>
<path style=" stroke:none;fill-rule:nonzero;fill:rgb(39.99939%,39.99939%,39.99939%);fill-opacity:0.3;" d="M 249.832031 163.773438 L 242.234375 166.105469 L 216.371094 166.347656 Z M 249.832031 163.773438 "/>
<path style=" stroke:none;fill-rule:nonzero;fill:rgb(39.99939%,39.99939%,39.99939%);fill-opacity:0.3;" d="M 305.578125 280.660156 L 304.832031 284.871094 L 280.429688 288.492188 L 280.222656 279.609375 L 303.597656 280.066406 Z M 305.578125 280.660156 "/>
<path style=" stroke:none;fill-rule:nonzero;fill:rgb(39.99939%,39.99939%,39.99939%);fill-opacity:0.3;" d="M 276.078125 279.527344 L 276.074219 295.738281 L 219.140625 298.550781 L 217.75 278.382812 Z M 276.078125 279.527344 "/>
<g clip-path="url(#clip4)" clip-rule="nonzero">
<path style=" stroke:none;fill-rule:nonzero;fill:rgb(39.99939%,39.99939%,39.99939%);fill-opacity:0.3;" d="M 219.429688 304.671875 L 245.910156 302.738281 L 250.8125 373.539062 L 224.734375 374.710938 Z M 219.429688 304.671875 "/>
</g>
<path style=" stroke:none;fill-rule:nonzero;fill:rgb(39.99939%,39.99939%,39.99939%);fill-opacity:0.3;" d="M 281.613281 300.035156 L 302.074219 298.488281 L 304.53125 306.042969 L 308.917969 309.214844 L 316.859375 313.488281 L 317.894531 311.90625 L 318.929688 310.320312 L 314.3125 307.75 L 308.855469 304.546875 L 306.488281 297.722656 L 326.613281 300.132812 L 331.296875 288.199219 L 338.40625 289.453125 L 338.902344 289.816406 L 342.882812 291.53125 L 347.589844 292.554688 L 351.9375 298.386719 L 356.652344 306.621094 L 359.78125 314.113281 L 356.304688 316.230469 L 353.050781 320.699219 L 347.992188 324.824219 L 345.800781 326.382812 L 336.835938 332.546875 L 336.433594 333.035156 L 335.820312 333.46875 L 330.890625 339.808594 L 328.964844 342.167969 L 315.84375 345.664062 L 304.472656 343.914062 L 294.851562 344.789062 L 287.875 348.277344 Z M 281.613281 300.035156 "/>
<g clip-path="url(#clip5)" clip-rule="nonzero">
<path style=" stroke:none;fill-rule:nonzero;fill:rgb(39.99939%,39.99939%,39.99939%);fill-opacity:0.3;" d="M 251.125 301.972656 L 276.800781 300.039062 L 283.128906 351.644531 L 276.761719 356.953125 L 276.332031 357.214844 L 266.050781 365.144531 L 256.640625 372.871094 L 256.5 372.953125 Z M 251.125 301.972656 "/>
</g>
<g clip-path="url(#clip6)" clip-rule="nonzero">
<path style=" stroke:none;fill-rule:nonzero;fill:rgb(39.99939%,39.99939%,39.99939%);fill-opacity:0.3;" d="M 370.03125 312.378906 L 362.640625 313.96875 L 353.589844 297.847656 L 350.121094 291.710938 L 349.707031 291.449219 L 354.589844 292.3125 Z M 370.03125 312.378906 "/>
</g>
<path style=" stroke:none;fill-rule:nonzero;fill:rgb(39.99939%,39.99939%,39.99939%);fill-opacity:0.3;" d="M 306.738281 286.273438 L 307.824219 281.335938 L 324.226562 286.257812 L 322.0625 292.75 L 280.898438 295.425781 L 280.636719 290.179688 Z M 306.738281 286.273438 "/>
<path style=" stroke:none;fill-rule:nonzero;fill:rgb(39.99939%,39.99939%,39.99939%);fill-opacity:0.3;" d="M 307.484375 269.941406 L 305.578125 280.660156 L 303.597656 280.066406 L 289.03125 268.300781 Z M 307.484375 269.941406 "/>
<path style=" stroke:none;fill-rule:nonzero;fill:rgb(39.99939%,39.99939%,39.99939%);fill-opacity:0.3;" d="M 304.921875 214.90625 L 304.886719 215.582031 L 293.050781 216.25 L 292.824219 216.007812 Z M 304.921875 214.90625 "/>
<path style=" stroke:none;fill-rule:nonzero;fill:rgb(39.99939%,39.99939%,39.99939%);fill-opacity:0.3;" d="M 290.792969 217.09375 L 292.363281 218.875 L 292.410156 221.578125 Z M 290.792969 217.09375 "/>
<path style=" stroke:none;fill-rule:nonzero;fill:rgb(39.99939%,39.99939%,39.99939%);fill-opacity:0.3;" d="M 322.765625 228.003906 L 331.75 230.601562 L 340 232.546875 L 339.710938 234.558594 L 328.441406 274.371094 L 310.359375 269.378906 Z M 322.765625 228.003906 "/>
<path style=" stroke:none;fill-rule:nonzero;fill:rgb(39.99939%,39.99939%,39.99939%);fill-opacity:0.3;" d="M 298.191406 237.640625 L 314.648438 237.722656 L 311.996094 250.78125 L 280.859375 249.796875 L 280.859375 238.960938 L 298.351562 238.085938 Z M 298.191406 237.640625 "/>
<path style=" stroke:none;fill-rule:nonzero;fill:rgb(39.99939%,39.99939%,39.99939%);fill-opacity:0.3;" d="M 295.359375 218.4375 L 306.996094 217.507812 L 307.039062 214.714844 L 308.570312 214.574219 L 311.589844 217.429688 L 319.566406 224.75 L 315.828125 235.074219 L 297.050781 234.46875 L 295.640625 230.558594 Z M 295.359375 218.4375 "/>
<path style=" stroke:none;fill-rule:nonzero;fill:rgb(39.99939%,39.99939%,39.99939%);fill-opacity:0.3;" d="M 307.824219 281.335938 L 309.878906 271.992188 L 327.242188 277.222656 L 324.226562 286.257812 Z M 307.824219 281.335938 "/>
<path style=" stroke:none;fill-rule:nonzero;fill:rgb(39.99939%,39.99939%,39.99939%);fill-opacity:0.3;" d="M 311.539062 253.625 L 307.855469 267.8125 L 286.023438 265.871094 L 280.859375 261.699219 L 280.859375 253.042969 Z M 311.539062 253.625 "/>
<g clip-path="url(#clip7)" clip-rule="nonzero">
<path style=" stroke:none;fill-rule:nonzero;fill:rgb(39.99939%,39.99939%,39.99939%);fill-opacity:0.3;" d="M 139.359375 370.355469 L 136.625 325.945312 L 49.742188 319.101562 L 49.21875 311.425781 L 48.878906 302.355469 L 171.152344 312.976562 L 169.980469 354.460938 L 171.53125 354.519531 L 173.085938 354.574219 L 174.347656 313.25 L 190.742188 314.710938 L 191.417969 373.21875 L 164.734375 366.476562 L 164.550781 367.882812 L 164.363281 369.328125 L 191.375 376.054688 L 190.90625 385.871094 L 164.082031 378.132812 Z M 139.359375 370.355469 "/>
</g>
<path style=" stroke:none;fill-rule:nonzero;fill:rgb(39.99939%,39.99939%,39.99939%);fill-opacity:0.3;" d="M 103.035156 151.566406 L 97.980469 156.429688 L 102.140625 157.085938 L 98.738281 165.738281 L 89.050781 164.160156 L 93.851562 150.894531 L 101.519531 137.488281 Z M 103.035156 151.566406 "/>
<path style=" stroke:none;fill-rule:nonzero;fill:rgb(39.99939%,39.99939%,39.99939%);fill-opacity:0.3;" d="M 87.09375 168.148438 L 97.1875 169.6875 L 86.015625 198.09375 L 74.597656 196.785156 L 82.113281 179.664062 Z M 87.09375 168.148438 "/>
<path style=" stroke:none;fill-rule:nonzero;fill:rgb(39.99939%,39.99939%,39.99939%);fill-opacity:0.3;" d="M 72.070312 202.089844 L 83.984375 203.257812 L 72.695312 231.964844 L 72.625 232.136719 L 61.199219 230.878906 L 68.144531 211.894531 Z M 72.070312 202.089844 "/>
<path style=" stroke:none;fill-rule:nonzero;fill:rgb(39.99939%,39.99939%,39.99939%);fill-opacity:0.3;" d="M 54.261719 248.5625 L 59.804688 234.71875 L 71.082031 235.949219 L 59.820312 263.722656 L 52.386719 262.882812 Z M 54.261719 248.5625 "/>
<path style=" stroke:none;fill-rule:nonzero;fill:rgb(39.99939%,39.99939%,39.99939%);fill-opacity:0.3;" d="M 49.808594 279.789062 L 50.988281 267.511719 L 58.5625 268.277344 L 51.429688 296.105469 L 49.175781 295.898438 Z M 49.808594 279.789062 "/>
<path style=" stroke:none;fill-rule:nonzero;fill:rgb(39.99939%,39.99939%,39.99939%);fill-opacity:0.3;" d="M 190.726562 307.820312 L 190.742188 308.8125 L 188.09375 308.570312 Z M 190.726562 307.820312 "/>
<g clip-path="url(#clip8)" clip-rule="nonzero">
<path style=" stroke:none;fill-rule:nonzero;fill:rgb(39.99939%,39.99939%,39.99939%);fill-opacity:0.3;" d="M -302.394531 546.894531 L -486.964844 418.808594 L -609.664062 392.503906 L -700.160156 372.167969 L -790.652344 351.828125 L -825.441406 369.847656 L -841.359375 378.527344 L -870.851562 366.867188 L -875.976562 327.414062 L -880.546875 288.058594 L -881.789062 258.628906 L -880.511719 246.347656 L -885.125 184.65625 L -891.308594 157.34375 L -902.265625 130.328125 L -873.488281 114.644531 L -870.617188 108.183594 L -870.890625 97.503906 L -874.050781 84.839844 L -878 67.210938 L -883.253906 56.785156 L -889.554688 41.640625 L -914.320312 44.382812 L -919.660156 45.652344 L -920.914062 40.882812 L -921.777344 37.617188 L -934.421875 -6.914062 L -885.035156 -23.480469 L -895.5 -45.054688 L -898.050781 -50.996094 L -860.574219 -63.917969 L -851.609375 -67.203125 L -847.929688 -70.042969 L -847.546875 -73.296875 L -847.25 -75.28125 L -848.867188 -82.265625 L -868.585938 -143.195312 L -891.054688 -218.824219 L -889.292969 -223.789062 L -882.644531 -226.085938 L -772.429688 -234.902344 L -700.914062 -246.570312 L -698.15625 -247.011719 L -695.707031 -247.421875 L -639.027344 -257.902344 L -521.0625 -279.554688 L -518.816406 -283.453125 L -449 -295.382812 L -357.9375 -310.484375 L -271.132812 -337.507812 L -229.332031 -352.164062 L -184.796875 -366.199219 L -68.554688 -403.285156 L -60.503906 -405.484375 L -29.792969 -415.214844 L 92.199219 50.828125 L 101.394531 136.332031 L 101.015625 136.796875 L 92.789062 150.476562 L 88.023438 163.949219 L 87.054688 165.75 L 86.570312 167.992188 L 81.6875 179.558594 L 73.875 196.8125 L 72.648438 198.964844 L 71.480469 201.839844 L 67.703125 211.574219 L 60.492188 230.835938 L 59.871094 232.503906 L 59.148438 234.433594 L 54 248.5 L 51.855469 262.777344 L 50.976562 264.71875 L 50.398438 267.410156 L 49.523438 279.726562 L 48.675781 296.347656 L 48.511719 299.015625 L 48.398438 302.386719 L 48.871094 311.402344 L 49.46875 319.40625 L 136.199219 326.367188 L 138.621094 370.910156 L 164.648438 378.882812 L 190.605469 386.5 L 191.761719 387.105469 L 191.644531 387.648438 L 175.902344 415.636719 L 164.53125 418.257812 L 154.035156 427.003906 L 124.300781 446.246094 L 94.5625 475.109375 L 63.074219 490.851562 L 36.835938 499.601562 L -272.253906 599.84375 L -258.363281 577.183594 L -262.78125 574.070312 Z M -302.394531 546.894531 "/>
</g>
<path style=" stroke:none;fill-rule:nonzero;fill:rgb(39.99939%,39.99939%,39.99939%);fill-opacity:0.3;" d="M 330.890625 339.808594 L 323.5625 349.230469 L 315.320312 347.367188 L 310.210938 346.933594 L 302.898438 346.722656 L 295.125 347.722656 L 288.164062 350.484375 L 287.875 348.277344 L 294.851562 344.789062 L 304.472656 343.914062 L 315.84375 345.664062 L 328.964844 342.167969 Z M 330.890625 339.808594 "/>
<path style=" stroke:none;fill-rule:nonzero;fill:rgb(39.99939%,39.99939%,39.99939%);fill-opacity:0.3;" d="M 345.800781 326.382812 L 336.433594 333.035156 L 336.835938 332.546875 Z M 345.800781 326.382812 "/>
<path style=" stroke:none;fill-rule:nonzero;fill:rgb(39.99939%,39.99939%,39.99939%);fill-opacity:0.3;" d="M 283.128906 351.644531 L 283.285156 352.945312 L 276.761719 356.953125 Z M 283.128906 351.644531 "/>
<g clip-path="url(#clip9)" clip-rule="nonzero">
<path style=" stroke:none;fill-rule:nonzero;fill:rgb(39.99939%,39.99939%,39.99939%);fill-opacity:0.3;" d="M 269.878906 389.71875 L 260.5 389.96875 L 260.085938 379.78125 L 266.496094 371.015625 L 272.90625 365.300781 L 284.128906 356.152344 L 290.507812 351.792969 L 296.75 349.152344 L 303.480469 348.152344 L 312.972656 348.722656 L 325.414062 352.898438 L 329.820312 346.800781 L 337.933594 337.464844 L 351.691406 328.527344 L 358.367188 320.398438 L 369.582031 317.273438 L 370.957031 317.003906 L 382.832031 378.128906 Z M 269.878906 389.71875 "/>
</g>
<g clip-path="url(#clip10)" clip-rule="nonzero">
<path style=" stroke:none;fill-rule:nonzero;fill:rgb(39.99939%,39.99939%,39.99939%);fill-opacity:0.3;" d="M 358.300781 120.214844 L 393.011719 136.167969 L 386.851562 146.9375 L 379.460938 157.085938 L 360.207031 148.234375 L 333.707031 137.660156 L 342.898438 133.164062 L 350.5625 128.105469 L 354.335938 124.515625 Z M 358.300781 120.214844 "/>
</g>
<path style=" stroke:none;fill-rule:nonzero;fill:rgb(39.99939%,39.99939%,39.99939%);fill-opacity:0.3;" d="M 137.601562 124.8125 L 155.617188 107.257812 L 158.839844 160.09375 L 138.167969 157.871094 Z M 137.601562 124.8125 "/>
<path style=" stroke:none;fill-rule:nonzero;fill:rgb(39.99939%,39.99939%,39.99939%);fill-opacity:0.3;" d="M 158.152344 105.53125 L 176.453125 86.488281 L 182.914062 162.679688 L 161.878906 160.417969 Z M 158.152344 105.53125 "/>
<g clip-path="url(#clip11)" clip-rule="nonzero">
<path style=" stroke:none;fill-rule:nonzero;fill:rgb(39.99939%,39.99939%,39.99939%);fill-opacity:0.3;" d="M 325.695312 49.691406 L 356.628906 75.058594 L 358.003906 76.859375 L 359.539062 86.589844 L 360.683594 92.285156 L 363.691406 97.09375 L 371.195312 102.953125 L 365.433594 108.578125 L 318.734375 64.132812 Z M 325.695312 49.691406 "/>
</g>
<g clip-path="url(#clip12)" clip-rule="nonzero">
<path style=" stroke:none;fill-rule:nonzero;fill:rgb(39.99939%,39.99939%,39.99939%);fill-opacity:0.3;" d="M 317.582031 67.664062 L 342.902344 92.621094 L 363.363281 111.953125 L 361.527344 114.445312 L 358.054688 118.347656 L 350.507812 125.550781 L 309.9375 81.035156 Z M 317.582031 67.664062 "/>
</g>
<path style=" stroke:none;fill-rule:nonzero;fill:rgb(39.99939%,39.99939%,39.99939%);fill-opacity:0.3;" d="M 285.4375 120.785156 L 316.003906 96.175781 L 323.929688 104.878906 L 329 110.558594 L 296.929688 136.730469 Z M 285.4375 120.785156 "/>
<path style=" stroke:none;fill-rule:nonzero;fill:rgb(39.99939%,39.99939%,39.99939%);fill-opacity:0.3;" d="M 203.742188 130.175781 L 215.082031 129.886719 L 226.710938 129.320312 L 232.8125 124.898438 L 251.117188 112.464844 L 259.25 106.660156 L 263.902344 105.550781 L 271.464844 104.640625 L 275.53125 101.875 L 281.339844 97.730469 L 285.40625 93.863281 L 293.832031 86.679688 L 300.507812 80.128906 L 312.738281 93.082031 L 284.851562 115.734375 L 281.273438 118.886719 L 274.121094 120.429688 L 265.265625 122.488281 L 259.21875 126.597656 L 253.175781 131.222656 L 240.683594 141.71875 L 232.546875 145.316406 L 221.207031 145.878906 L 205.429688 146.140625 Z M 203.742188 130.175781 "/>
<path style=" stroke:none;fill-rule:nonzero;fill:rgb(39.99939%,39.99939%,39.99939%);fill-opacity:0.3;" d="M 243.441406 56.128906 L 250.128906 58.328125 L 255.949219 59.976562 L 261.765625 61.898438 L 262.398438 101.625 L 255.46875 104.457031 L 247.621094 109.433594 Z M 243.441406 56.128906 "/>
<path style=" stroke:none;fill-rule:nonzero;fill:rgb(39.99939%,39.99939%,39.99939%);fill-opacity:0.3;" d="M 291.132812 65.308594 L 290.558594 66.832031 L 274.851562 61.332031 L 258.269531 56.109375 L 254.09375 54.9375 L 265.988281 57.910156 Z M 291.132812 65.308594 "/>
<path style=" stroke:none;fill-rule:nonzero;fill:rgb(39.99939%,39.99939%,39.99939%);fill-opacity:0.3;" d="M 229.605469 48.816406 L 196.96875 43.101562 L 197.769531 43.042969 L 220.507812 46.542969 Z M 229.605469 48.816406 "/>
<path style=" stroke:none;fill-rule:nonzero;fill:rgb(39.99939%,39.99939%,39.99939%);fill-opacity:0.3;" d="M 265.257812 62.503906 L 273.402344 64.703125 L 279.804688 66.902344 L 286.203125 68.273438 L 292.3125 70.472656 L 294.929688 74.574219 L 295.226562 80.09375 L 290.875 85.097656 L 283.902344 90.070312 L 279.257812 93.9375 L 275.480469 96.152344 L 271.121094 98.640625 L 265.886719 100.300781 Z M 265.257812 62.503906 "/>
<path style=" stroke:none;fill-rule:nonzero;fill:rgb(39.99939%,39.99939%,39.99939%);fill-opacity:0.3;" d="M 164.316406 71.675781 L 179.980469 56.558594 L 189.054688 47.894531 L 192.746094 65.269531 L 103.035156 151.566406 L 101.519531 137.488281 L 101.636719 137.28125 L 115.867188 119.519531 L 124.101562 111.152344 L 142.027344 93.503906 Z M 164.316406 71.675781 "/>
<path style=" stroke:none;fill-rule:nonzero;fill:rgb(39.99939%,39.99939%,39.99939%);fill-opacity:0.3;" d="M 107.703125 154.539062 L 135.0625 127.539062 L 135.171875 157.546875 L 108.886719 154.722656 Z M 107.703125 154.539062 "/>
<path style=" stroke:none;fill-rule:nonzero;fill:rgb(39.99939%,39.99939%,39.99939%);fill-opacity:0.3;" d="M 260.765625 165.054688 L 265.21875 163.285156 L 266.984375 165.835938 Z M 260.765625 165.054688 "/>
<g clip-path="url(#clip13)" clip-rule="nonzero">
<path style=" stroke:none;fill-rule:nonzero;fill:rgb(39.99939%,39.99939%,39.99939%);fill-opacity:0.3;" d="M 378.183594 160.382812 L 339.347656 227.996094 L 330.527344 225.410156 L 323.832031 221.378906 L 319.570312 216.191406 L 320.773438 205.230469 L 322.273438 191.09375 L 325.304688 183.015625 L 328.828125 176.519531 L 327.335938 175.351562 L 325.839844 174.179688 L 322.257812 179.269531 L 319.53125 185.039062 L 317.714844 191.386719 L 316.8125 198.890625 L 314.6875 213.1875 L 297.050781 196.625 L 300.253906 190.125 L 321.035156 165.898438 L 339.292969 142.378906 Z M 378.183594 160.382812 "/>
</g>
<path style=" stroke:none;fill-rule:nonzero;fill:rgb(39.99939%,39.99939%,39.99939%);fill-opacity:0.3;" d="M 205.90625 149.242188 L 225.574219 148.910156 L 236.910156 147.519531 L 242.433594 144.476562 L 252.3125 137.566406 L 259.28125 131.214844 L 265.960938 125.964844 L 273.230469 123.199219 L 283 123.84375 L 288.535156 132.035156 L 285.707031 134.449219 L 281.980469 137.207031 L 277.160156 141.109375 L 270.9375 146.390625 L 264.382812 155.296875 L 258.707031 161.050781 L 249.832031 163.773438 L 216.371094 166.347656 L 206.96875 166.4375 Z M 205.90625 149.242188 "/>
<path style=" stroke:none;fill-rule:nonzero;fill:rgb(39.99939%,39.99939%,39.99939%);fill-opacity:0.3;" d="M 221.441406 51.78125 L 239.992188 55.09375 L 244.425781 111.09375 L 238.613281 114.410156 L 231.640625 119.109375 L 225.832031 123.253906 Z M 221.441406 51.78125 "/>
<path style=" stroke:none;fill-rule:nonzero;fill:rgb(39.99939%,39.99939%,39.99939%);fill-opacity:0.3;" d="M 205.09375 48.789062 L 217.890625 51.808594 L 222.636719 125.1875 L 203.445312 126.039062 L 197.429688 48.117188 Z M 205.09375 48.789062 "/>
<path style=" stroke:none;fill-rule:nonzero;fill:rgb(39.99939%,39.99939%,39.99939%);fill-opacity:0.3;" d="M 193.226562 43.378906 L 188.90625 47.652344 L 179.867188 56.328125 L 142.480469 92.460938 L 123.710938 110.859375 L 115.296875 119.199219 L 101.394531 136.332031 L 92.199219 50.828125 Z M 193.226562 43.378906 "/>
<g clip-path="url(#clip14)" clip-rule="nonzero">
<path style=" stroke:none;fill-rule:nonzero;fill:rgb(39.99939%,39.99939%,39.99939%);fill-opacity:0.3;" d="M 347.472656 12.828125 L 374.476562 26.695312 L 382.523438 28.867188 L 381.378906 33.59375 L 379.304688 38.261719 L 357.820312 38.492188 L 357.921875 40.417969 L 358.019531 42.347656 L 379.09375 42.789062 L 378.886719 50.613281 L 380.578125 67.621094 L 361.359375 67.460938 L 356.75 69.222656 L 324.460938 45.050781 L 326.339844 41.292969 L 346.28125 12.210938 Z M 347.472656 12.828125 "/>
</g>
<path style=" stroke:none;fill-rule:nonzero;fill:rgb(39.99939%,39.99939%,39.99939%);fill-opacity:0.3;" d="M 309.453125 71.703125 L 306.1875 76.203125 L 302.296875 72.539062 L 302.09375 71.433594 L 306.222656 74.53125 Z M 309.453125 71.703125 "/>
<path style=" stroke:none;fill-rule:nonzero;fill:rgb(39.99939%,39.99939%,39.99939%);fill-opacity:0.3;" d="M 347.359375 127.679688 L 341.320312 131.792969 L 330.554688 137.167969 L 310.714844 150.871094 L 306.175781 158.941406 L 290.023438 171.457031 L 282.011719 178.511719 L 273.332031 166.859375 L 271.609375 153.253906 L 273.128906 147.347656 L 279.761719 141.839844 L 290.25 133.945312 L 296.257812 140.597656 L 330.265625 111.75 Z M 347.359375 127.679688 "/>
<path style=" stroke:none;fill-rule:nonzero;fill:rgb(39.99939%,39.99939%,39.99939%);fill-opacity:0.3;" d="M 331.296875 288.199219 L 331.761719 287.023438 L 335.640625 287.417969 L 338.40625 289.453125 Z M 331.296875 288.199219 "/>
<g clip-path="url(#clip15)" clip-rule="nonzero">
<path style=" stroke:none;fill-rule:nonzero;fill:rgb(39.99939%,39.99939%,39.99939%);fill-opacity:0.3;" d="M 384.875 162.980469 L 397.515625 168.265625 L 356.6875 237.78125 L 346.527344 232.539062 Z M 384.875 162.980469 "/>
</g>
<g clip-path="url(#clip16)" clip-rule="nonzero">
<path style=" stroke:none;fill-rule:nonzero;fill:rgb(39.99939%,39.99939%,39.99939%);fill-opacity:0.3;" d="M 343.425781 236.054688 L 356.273438 242.132812 L 365.910156 248.210938 L 369.96875 250.644531 L 374.316406 254.417969 L 378.09375 259.472656 L 364.433594 266.378906 L 365.007812 267.550781 L 365.375 268.304688 L 379.035156 262.066406 L 391.695312 261.605469 L 422.816406 264.316406 L 436.925781 261.898438 L 429.867188 280.332031 L 421.363281 305.1875 L 393.1875 306.035156 L 372.941406 311.75 L 370.03125 312.378906 L 354.589844 292.3125 L 349.707031 291.449219 L 347.863281 290.285156 L 342.144531 289.007812 L 336.121094 285.160156 L 331.90625 284.308594 Z M 343.425781 236.054688 "/>
</g>
<path style=" stroke:none;fill-rule:nonzero;fill:rgb(39.99939%,39.99939%,39.99939%);fill-opacity:0.3;" d="M 340 232.546875 L 340.265625 232.609375 L 339.710938 234.558594 Z M 340 232.546875 "/>
<path style="fill-rule:nonzero;fill:rgb(39.99939%,39.99939%,39.99939%);fill-opacity:1;stroke-width:0.03;stroke-linecap:square;stroke-linejoin:miter;stroke:rgb(39.99939%,39.99939%,39.99939%);stroke-opacity:1;stroke-miterlimit:3.239307;" d="M 354.222656 292.609375 L 353.945312 280.496094 L 363.03125 281.300781 L 377.597656 293.066406 Z M 354.222656 292.609375 " transform="matrix(1,0,0,1,-74,-13)"/>
<path style="fill-rule:nonzero;fill:rgb(39.99939%,39.99939%,39.99939%);fill-opacity:1;stroke-width:0.03;stroke-linecap:square;stroke-linejoin:miter;stroke:rgb(39.99939%,39.99939%,39.99939%);stroke-opacity:1;stroke-miterlimit:3.239307;" d="M 290.765625 277.152344 L 334.773438 277.476562 L 334.949219 280.140625 L 350.078125 279.910156 L 350.078125 292.527344 L 291.75 291.382812 Z M 290.765625 277.152344 " transform="matrix(1,0,0,1,-74,-13)"/>
<path style="fill-rule:nonzero;fill:rgb(39.99939%,39.99939%,39.99939%);fill-opacity:1;stroke-width:0.03;stroke-linecap:square;stroke-linejoin:miter;stroke:rgb(39.99939%,39.99939%,39.99939%);stroke-opacity:1;stroke-miterlimit:3.239307;" d="M 232.839844 173.09375 L 232.976562 175.335938 L 212.191406 172.175781 L 212.167969 170.871094 Z M 232.839844 173.09375 " transform="matrix(1,0,0,1,-74,-13)"/>
<path style="fill-rule:nonzero;fill:rgb(39.99939%,39.99939%,39.99939%);fill-opacity:1;stroke-width:0.03;stroke-linecap:square;stroke-linejoin:miter;stroke:rgb(39.99939%,39.99939%,39.99939%);stroke-opacity:1;stroke-miterlimit:3.239307;" d="M 256.914062 175.679688 L 257.195312 179.003906 L 236.039062 175.78125 L 235.878906 173.417969 Z M 256.914062 175.679688 " transform="matrix(1,0,0,1,-74,-13)"/>
<path style="fill-rule:nonzero;fill:rgb(39.99939%,39.99939%,39.99939%);fill-opacity:1;stroke-width:0.03;stroke-linecap:square;stroke-linejoin:miter;stroke:rgb(39.99939%,39.99939%,39.99939%);stroke-opacity:1;stroke-miterlimit:3.239307;" d="M 176.140625 170.085938 L 266.5 184.363281 L 264.433594 193.695312 L 172.738281 178.738281 Z M 176.140625 170.085938 " transform="matrix(1,0,0,1,-74,-13)"/>
<path style="fill-rule:nonzero;fill:rgb(39.99939%,39.99939%,39.99939%);fill-opacity:1;stroke-width:0.03;stroke-linecap:square;stroke-linejoin:miter;stroke:rgb(39.99939%,39.99939%,39.99939%);stroke-opacity:1;stroke-miterlimit:3.239307;" d="M 209.171875 170.546875 L 209.175781 171.710938 L 182.886719 167.722656 Z M 209.171875 170.546875 " transform="matrix(1,0,0,1,-74,-13)"/>
<path style="fill-rule:nonzero;fill:rgb(39.99939%,39.99939%,39.99939%);fill-opacity:1;stroke-width:0.03;stroke-linecap:square;stroke-linejoin:miter;stroke:rgb(39.99939%,39.99939%,39.99939%);stroke-opacity:1;stroke-miterlimit:3.239307;" d="M 171.1875 182.6875 L 258.234375 195.945312 L 259.785156 222.515625 L 160.015625 211.09375 Z M 171.1875 182.6875 " transform="matrix(1,0,0,1,-74,-13)"/>
<path style="fill-rule:nonzero;fill:rgb(39.99939%,39.99939%,39.99939%);fill-opacity:1;stroke-width:0.03;stroke-linecap:square;stroke-linejoin:miter;stroke:rgb(39.99939%,39.99939%,39.99939%);stroke-opacity:1;stroke-miterlimit:3.239307;" d="M 157.984375 216.257812 L 259.789062 226.265625 L 262.378906 257.886719 L 146.625 245.136719 L 146.695312 244.964844 Z M 157.984375 216.257812 " transform="matrix(1,0,0,1,-74,-13)"/>
<path style="fill-rule:nonzero;fill:rgb(39.99939%,39.99939%,39.99939%);fill-opacity:1;stroke-width:0.03;stroke-linecap:square;stroke-linejoin:miter;stroke:rgb(39.99939%,39.99939%,39.99939%);stroke-opacity:1;stroke-miterlimit:3.239307;" d="M 145.082031 248.949219 L 262.851562 261.808594 L 263.351562 291.332031 L 133.820312 276.722656 Z M 145.082031 248.949219 " transform="matrix(1,0,0,1,-74,-13)"/>
<path style="fill-rule:nonzero;fill:rgb(39.99939%,39.99939%,39.99939%);fill-opacity:1;stroke-width:0.03;stroke-linecap:square;stroke-linejoin:miter;stroke:rgb(39.99939%,39.99939%,39.99939%);stroke-opacity:1;stroke-miterlimit:3.239307;" d="M 132.5625 281.277344 L 264.34375 294.628906 L 264.726562 320.820312 L 262.09375 321.570312 L 125.429688 309.105469 Z M 132.5625 281.277344 " transform="matrix(1,0,0,1,-74,-13)"/>
<path style="fill-rule:nonzero;fill:rgb(39.99939%,39.99939%,39.99939%);fill-opacity:1;stroke-width:0.03;stroke-linecap:square;stroke-linejoin:miter;stroke:rgb(39.99939%,39.99939%,39.99939%);stroke-opacity:1;stroke-miterlimit:3.239307;" d="M 281.429688 182.65625 L 298.8125 182.898438 L 318.890625 182.914062 L 331.5625 179.332031 L 334.765625 178.054688 L 340.984375 178.835938 L 348.027344 188.988281 L 351.914062 194.371094 L 356.101562 198.859375 L 347.140625 202.238281 L 348.109375 204.207031 L 348.171875 204.351562 L 349.035156 206.332031 L 358.195312 202.425781 L 366.421875 211.929688 L 374.445312 220.394531 L 379.105469 224.507812 L 378.921875 227.90625 L 366.824219 229.007812 L 363.589844 225.539062 L 362.636719 226.105469 L 361.746094 226.632812 L 364.792969 230.09375 L 366.410156 234.578125 L 366.628906 247.429688 L 353.992188 247.445312 L 352.09375 245.246094 L 346.632812 239.085938 L 345.90625 239.691406 L 345.132812 240.339844 L 350.136719 246.421875 L 350.042969 277.800781 L 336.238281 276.117188 L 336.230469 273.632812 L 288.730469 273.304688 L 288.382812 244.507812 L 334.265625 243.417969 L 334.265625 241.75 L 334.261719 239.617188 L 288.011719 240.015625 L 284.65625 212.59375 L 326.171875 215.339844 L 326.285156 213.429688 L 326.382812 211.796875 L 283.972656 208.867188 Z M 281.429688 182.65625 " transform="matrix(1,0,0,1,-74,-13)"/>
<path style="fill-rule:nonzero;fill:rgb(39.99939%,39.99939%,39.99939%);fill-opacity:1;stroke-width:0.03;stroke-linecap:square;stroke-linejoin:miter;stroke:rgb(39.99939%,39.99939%,39.99939%);stroke-opacity:1;stroke-miterlimit:3.239307;" d="M 352.441406 250.542969 L 372.191406 250.640625 L 372.351562 251.085938 L 354.859375 251.960938 L 354.859375 262.796875 L 352.574219 262.726562 Z M 352.441406 250.542969 " transform="matrix(1,0,0,1,-74,-13)"/>
<path style="fill-rule:nonzero;fill:rgb(39.99939%,39.99939%,39.99939%);fill-opacity:1;stroke-width:0.03;stroke-linecap:square;stroke-linejoin:miter;stroke:rgb(39.99939%,39.99939%,39.99939%);stroke-opacity:1;stroke-miterlimit:3.239307;" d="M 381.039062 227.714844 L 381.066406 226.148438 L 382.570312 227.574219 Z M 381.039062 227.714844 " transform="matrix(1,0,0,1,-74,-13)"/>
<path style="fill-rule:nonzero;fill:rgb(39.99939%,39.99939%,39.99939%);fill-opacity:1;stroke-width:0.03;stroke-linecap:square;stroke-linejoin:miter;stroke:rgb(39.99939%,39.99939%,39.99939%);stroke-opacity:1;stroke-miterlimit:3.239307;" d="M 371.050781 247.46875 L 369.730469 247.425781 L 369.640625 243.558594 Z M 371.050781 247.46875 " transform="matrix(1,0,0,1,-74,-13)"/>
<path style="fill-rule:nonzero;fill:rgb(39.99939%,39.99939%,39.99939%);fill-opacity:1;stroke-width:0.03;stroke-linecap:square;stroke-linejoin:miter;stroke:rgb(39.99939%,39.99939%,39.99939%);stroke-opacity:1;stroke-miterlimit:3.239307;" d="M 360.023438 278.871094 L 352.695312 278.21875 L 352.808594 266.003906 L 354.859375 266.042969 L 354.859375 274.699219 Z M 360.023438 278.871094 " transform="matrix(1,0,0,1,-74,-13)"/>
<path style="fill-rule:nonzero;fill:rgb(39.99939%,39.99939%,39.99939%);fill-opacity:1;stroke-width:0.03;stroke-linecap:square;stroke-linejoin:miter;stroke:rgb(39.99939%,39.99939%,39.99939%);stroke-opacity:1;stroke-miterlimit:3.239307;" d="M 323.832031 176.773438 L 316.234375 179.105469 L 290.371094 179.347656 Z M 323.832031 176.773438 " transform="matrix(1,0,0,1,-74,-13)"/>
<g clip-path="url(#clip17)" clip-rule="nonzero">
<path style=" stroke:none;fill-rule:evenodd;fill:rgb(85.096741%,85.096741%,81.959534%);fill-opacity:0.7;" d="M 377.984375 230 C 377.984375 220.722656 374.300781 211.824219 367.738281 205.261719 C 361.175781 198.699219 352.277344 195.015625 343 195.015625 C 333.722656 195.015625 324.824219 198.699219 318.261719 205.261719 C 311.699219 211.824219 308.015625 220.722656 308.015625 230 C 308.015625 239.277344 311.699219 248.175781 318.261719 254.738281 C 324.824219 261.300781 333.722656 264.984375 343 264.984375 C 352.277344 264.984375 361.175781 261.300781 367.738281 254.738281 C 374.300781 248.175781 377.984375 239.277344 377.984375 230 Z M 377.984375 230 "/>
</g>
</g>
</svg>
