<?xml version="1.0" encoding="UTF-8"?>
<svg xmlns="http://www.w3.org/2000/svg" xmlns:xlink="http://www.w3.org/1999/xlink" width="361pt" height="361pt" viewBox="0 0 361 361" version="1.1">
<defs>
<clipPath id="clip1">
  <path d="M 0 0 L 360 0 L 360 360 L 0 360 Z M 0 0 "/>
</clipPath>
<clipPath id="clip2">
  <path d="M 102 0 L 360 0 L 360 296 L 102 296 Z M 102 0 "/>
</clipPath>
<clipPath id="clip3">
  <path d="M 95 339 L 119 339 L 119 360 L 95 360 Z M 95 339 "/>
</clipPath>
<clipPath id="clip4">
  <path d="M 81 357 L 94 357 L 94 360 L 81 360 Z M 81 357 "/>
</clipPath>
<clipPath id="clip5">
  <path d="M 189 344 L 218 344 L 218 360 L 189 360 Z M 189 344 "/>
</clipPath>
<clipPath id="clip6">
  <path d="M 241 336 L 266 336 L 266 360 L 241 360 Z M 241 336 "/>
</clipPath>
<clipPath id="clip7">
  <path d="M 229 300 L 271 300 L 271 360 L 229 360 Z M 229 300 "/>
</clipPath>
<clipPath id="clip8">
  <path d="M 221 328 L 246 328 L 246 360 L 221 360 Z M 221 328 "/>
</clipPath>
<clipPath id="clip9">
  <path d="M 125 326 L 168 326 L 168 360 L 125 360 Z M 125 326 "/>
</clipPath>
<clipPath id="clip10">
  <path d="M 36 283 L 167 283 L 167 360 L 36 360 Z M 36 283 "/>
</clipPath>
<clipPath id="clip11">
  <path d="M 257 312 L 311 312 L 311 360 L 257 360 Z M 257 312 "/>
</clipPath>
<clipPath id="clip12">
  <path d="M 265 345 L 287 345 L 287 360 L 265 360 Z M 265 345 "/>
</clipPath>
<clipPath id="clip13">
  <path d="M 253 306 L 292 306 L 292 360 L 253 360 Z M 253 306 "/>
</clipPath>
<clipPath id="clip14">
  <path d="M 153 359 L 193 359 L 193 360 L 153 360 Z M 153 359 "/>
</clipPath>
<clipPath id="clip15">
  <path d="M 146 351 L 189 351 L 189 360 L 146 360 Z M 146 351 "/>
</clipPath>
<clipPath id="clip16">
  <path d="M 139 343 L 182 343 L 182 360 L 139 360 Z M 139 343 "/>
</clipPath>
<clipPath id="clip17">
  <path d="M 132 335 L 175 335 L 175 360 L 132 360 Z M 132 335 "/>
</clipPath>
<clipPath id="clip18">
  <path d="M 56 358 L 64 358 L 64 360 L 56 360 Z M 56 358 "/>
</clipPath>
<clipPath id="clip19">
  <path d="M 48 352 L 56 352 L 56 360 L 48 360 Z M 48 352 "/>
</clipPath>
<clipPath id="clip20">
  <path d="M 41 359 L 47 359 L 47 360 L 41 360 Z M 41 359 "/>
</clipPath>
<clipPath id="clip21">
  <path d="M 60 352 L 70 352 L 70 360 L 60 360 Z M 60 352 "/>
</clipPath>
<clipPath id="clip22">
  <path d="M 67 359 L 76 359 L 76 360 L 67 360 Z M 67 359 "/>
</clipPath>
<clipPath id="clip23">
  <path d="M 14 359 L 20 359 L 20 360 L 14 360 Z M 14 359 "/>
</clipPath>
<clipPath id="clip24">
  <path d="M 273 346 L 297 346 L 297 360 L 273 360 Z M 273 346 "/>
</clipPath>
</defs>
<g id="surface154">
<path style="fill-rule:nonzero;fill:rgb(0%,0%,0%);fill-opacity:1;stroke-width:0.03;stroke-linecap:square;stroke-linejoin:miter;stroke:rgb(0%,0%,0%);stroke-opacity:1;stroke-miterlimit:10;" d="M 0 178 L 360 178 L 360 -182 L 0 -182 Z M 0 178 " transform="matrix(1,0,0,1,0,182)"/>
<g clip-path="url(#clip1)" clip-rule="nonzero">
<path style=" stroke:none;fill-rule:nonzero;fill:rgb(39.99939%,39.99939%,39.99939%);fill-opacity:0.3;" d="M -691.359375 211.265625 L -689.59375 208.730469 L -687.515625 206.242188 L -685.703125 204.699219 L -684.121094 203.582031 L -681.949219 202.421875 L -679.503906 201.519531 L -676.835938 200.875 L -673.847656 200.789062 L -671.332031 200.917969 L -667.15625 201.53125 L -658.375 204.359375 L -652.871094 206.769531 L -646.058594 213.976562 L -632.523438 206.269531 L -626.988281 207.148438 L -588.789062 185.804688 L -587.691406 184.375 L -586.832031 182.738281 L -586.574219 181.105469 L -586.488281 179.472656 L -586.402344 177.59375 L -586.402344 176.613281 L -585.886719 175.632812 L -584.851562 174.816406 L -572.269531 168.382812 L -568.433594 174.058594 L -490.207031 129.21875 L -458.421875 111.035156 L -453.765625 108.371094 L -440.976562 101.054688 L -422.625 90.554688 L -372.832031 62.070312 L -372.605469 53.386719 L -372.628906 53.101562 L -372.71875 52.644531 L -372.773438 52.257812 L -372.335938 50.875 L -357.5625 -8.605469 L -346.808594 -50.320312 L -345.019531 -56.6875 L -343.929688 -57.800781 L -282.183594 -82.929688 L -282.957031 -84.300781 L -283.300781 -84.914062 L -276.019531 -87.574219 L -271.789062 -82.5 L -248.378906 -90.394531 L -230.328125 -96.601562 L -227.789062 -97.449219 L -222.148438 -100.269531 L -221.300781 -102.242188 L -219.609375 -106.191406 L -222.429688 -118.601562 L -223.277344 -124.242188 L -222.992188 -128.472656 L -218.761719 -132.988281 L -209.378906 -139.691406 L -208.355469 -138.652344 L -185.09375 -154.859375 L -181.921875 -156.695312 L -177.316406 -158.210938 L -173.691406 -159.097656 L -138.851562 -148.015625 L -133.617188 -145.945312 L -128.628906 -145.238281 L -123.09375 -144.851562 L -116.671875 -145.304688 L -113.1875 -146.085938 L -97.808594 -151.097656 L -95.855469 -151.832031 L -94.300781 -151.957031 L -93.28125 -151.847656 L -61.535156 -141.09375 L 19.140625 -112.472656 L 37.269531 -105.96875 L 43.460938 -103.714844 L 43.855469 -103.605469 L 44.242188 -103.585938 L 44.8125 -103.769531 L 109.460938 -127.191406 L 180.664062 -153.339844 L 212.722656 -165.347656 L 268.660156 -186.230469 L 317.152344 -204.738281 L 319.992188 -206.101562 L 333.78125 -221.125 L 345.164062 -232.277344 L 352.242188 -239.789062 L 367.34375 -248.628906 L 371.554688 -243.792969 L 395.332031 -198.148438 L 399.246094 -190.890625 L 419.371094 -153.855469 L 429.039062 -136.882812 L 457.261719 -86.601562 L 462.050781 -76.972656 L 463.71875 -71.582031 L 464.210938 -67.273438 L 464.253906 -63.121094 L 463.542969 -58.898438 L 462.21875 -54.121094 L 459.539062 -48.488281 L 455.550781 -44.136719 L 449.4375 -39.328125 L 434.5 -30.648438 L 423.410156 -24.496094 L 402.011719 -12.789062 L 355.699219 13.070312 L 309.324219 39.480469 L 251.445312 71.992188 L 199.882812 100.660156 L 118.414062 147.253906 L 112.128906 152.273438 L 106.402344 159.121094 L 53.296875 233.453125 L 52.320312 234.839844 L 19.023438 295.128906 L 15.035156 302.355469 L 5.183594 325.992188 L -1.375 337.710938 L -2.914062 339.609375 L -4.726562 341.195312 L -22.15625 354.472656 L -24.128906 355.824219 L -24.808594 355.898438 L -28.941406 354.683594 L -30.449219 353.554688 L -59.164062 322.765625 L -128.476562 291.113281 L -258.09375 366.21875 L -260.253906 367.289062 L -265.457031 370.328125 L -266.089844 370.792969 L -266.453125 372.105469 L -273.21875 420.894531 L -282.765625 489.238281 L -286.523438 516.933594 L -287.4375 524.304688 L -287.554688 525.308594 L -287.710938 526.085938 L -287.710938 526.976562 L -287.511719 527.683594 L -287.015625 528.417969 L -285.234375 529.09375 L -284.21875 529.527344 L -283.382812 529.847656 L -282.679688 530.566406 L -282.375 531.953125 L -285.714844 554.59375 L -294.117188 618.617188 L -295.945312 633.328125 L -297.09375 646.589844 L -297.304688 647.851562 L -297.582031 649.046875 L -298.773438 649.710938 L -299.824219 650.113281 L -301.296875 650.710938 L -302.558594 651.773438 L -304.222656 653.09375 L -305.148438 655.09375 L -305.777344 657.753906 L -306.6875 663.863281 L -307.59375 671.171875 L -308.503906 673.894531 L -309.695312 675.488281 L -311.234375 676.6875 L -312.496094 677.683594 L -313.96875 678.214844 L -316.285156 678.402344 L -318.261719 678.167969 L -320.792969 677.292969 L -387.71875 638.449219 L -388.976562 640.535156 L -389.6875 640.121094 L -403.789062 663.53125 L -408.867188 660.710938 L -418.410156 655.472656 L -438.609375 642.210938 L -455.539062 630.164062 L -457.828125 628.507812 L -460.132812 626.335938 L -462.234375 623.894531 L -468.886719 613.839844 L -472.589844 606.785156 L -480.160156 595.453125 L -487.363281 586.75 L -493.644531 580.722656 L -501.238281 575.304688 L -541.328125 552.992188 L -545.257812 550.804688 L -549.449219 548.46875 L -552.871094 546.5625 L -555.378906 545.082031 L -602.988281 516.960938 L -650.101562 490.179688 L -683.550781 471.308594 L -717.5625 450.636719 L -740.429688 435.648438 L -788.800781 405.667969 L -793.148438 402.886719 L -794.113281 402.164062 L -794.476562 401.820312 L -794.746094 401.34375 L -794.941406 400.789062 L -795.097656 400.109375 L -795.160156 399.460938 L -795.132812 398.988281 L -795.007812 398.160156 L -793.421875 394.539062 L -782.40625 375.414062 L -771.808594 354.039062 L -762.171875 338.03125 L -751.671875 318.796875 L -744.304688 305.335938 L -716.34375 255.015625 L -707.828125 240.457031 L -699.425781 225.574219 Z M -691.359375 211.265625 "/>
</g>
<path style=" stroke:none;fill-rule:nonzero;fill:rgb(39.99939%,39.99939%,39.99939%);fill-opacity:0.3;" d="M 34.140625 275.519531 L 38.507812 267.125 L 39.539062 265.140625 L 44.027344 256.511719 L 47.347656 250.121094 L 55.25 235.363281 L 63.195312 222.339844 L 63.3125 222.175781 L 63.46875 222.082031 L 63.644531 222.039062 L 63.851562 222.0625 L 64.027344 222.132812 L 64.164062 222.179688 L 64.273438 222.246094 L 64.367188 222.304688 L 64.484375 222.375 L 64.566406 222.445312 L 64.671875 222.535156 L 64.753906 222.625 L 64.824219 222.710938 L 64.898438 222.835938 L 64.945312 222.964844 L 64.964844 223.183594 L 64.957031 223.460938 L 64.824219 224.808594 L 64.824219 225.867188 L 64.878906 226.921875 L 64.992188 227.976562 L 65.167969 229.023438 L 65.398438 230.058594 L 65.683594 231.082031 L 66.027344 232.089844 L 66.425781 233.078125 L 66.875 234.046875 L 67.378906 234.988281 L 67.9375 235.90625 L 68.542969 236.796875 L 69.195312 237.65625 L 69.261719 237.730469 L 64.984375 245.8125 L 69.214844 247.222656 L 69.019531 247.558594 L 65.453125 246.617188 L 62.859375 245.738281 L 62.367188 246.613281 L 61.878906 247.488281 L 64.609375 248.351562 L 51.050781 276.398438 L 48.210938 278.882812 L 46.867188 279.152344 L 43.976562 278.601562 L 37.375 277.339844 L 35.378906 285.472656 L 31.800781 290.054688 L 30.730469 290.027344 L 30.101562 290.042969 L 29.570312 290.132812 L 29.160156 290.253906 L 28.757812 290.390625 L 28.363281 290.550781 L 27.980469 290.730469 L 27.605469 290.929688 L 27.242188 291.144531 L 26.890625 291.378906 L 26.554688 291.632812 L 26.230469 291.898438 L 25.921875 292.183594 L 25.632812 292.480469 L 25.359375 292.792969 L 25.101562 293.117188 L 24.863281 293.457031 L 16.558594 308.949219 L 16.140625 308.714844 L 26.023438 289.222656 L 27.878906 286.011719 Z M 34.140625 275.519531 "/>
<path style=" stroke:none;fill-rule:nonzero;fill:rgb(39.99939%,39.99939%,39.99939%);fill-opacity:0.3;" d="M 324.3125 289.460938 L 322.699219 294.449219 L 319.40625 293.492188 L 321.019531 288.503906 Z M 324.3125 289.460938 "/>
<g clip-path="url(#clip2)" clip-rule="nonzero">
<path style=" stroke:none;fill-rule:nonzero;fill:rgb(39.99939%,39.99939%,39.99939%);fill-opacity:0.3;" d="M 443.433594 17.796875 L 439.960938 21.339844 L 432.058594 32.371094 L 423.570312 47.464844 L 403.136719 93.105469 L 319.289062 279.960938 L 318.210938 282.105469 L 317.230469 284.808594 L 316.546875 287.886719 L 315.960938 290.683594 L 315.472656 292.550781 L 315.195312 293.054688 L 314.496094 294.320312 L 313.023438 295.535156 L 311.15625 295.816406 L 308.191406 295.125 L 295.84375 291.960938 L 279.0625 287.273438 L 284.703125 266.964844 L 151.855469 236.503906 L 102.113281 170.910156 L 109.664062 159.519531 L 112.964844 155.367188 L 117.039062 151.675781 L 121.339844 148.691406 L 171.539062 120.128906 L 327.085938 32.710938 L 386.152344 -0.890625 L 431.4375 -25.945312 Z M 443.433594 17.796875 "/>
</g>
<path style=" stroke:none;fill-rule:nonzero;fill:rgb(39.99939%,39.99939%,39.99939%);fill-opacity:0.3;" d="M 45.710938 322.304688 L 48.3125 325.457031 L 44.480469 328.496094 L 43.464844 327.300781 L 46.136719 325.1875 L 45.777344 324.765625 L 43.109375 326.933594 L 41.792969 325.320312 Z M 45.710938 322.304688 "/>
<g clip-path="url(#clip3)" clip-rule="nonzero">
<path style=" stroke:none;fill-rule:nonzero;fill:rgb(39.99939%,39.99939%,39.99939%);fill-opacity:0.3;" d="M 97.859375 339.960938 L 98.175781 339.632812 L 98.875 339.503906 L 99.675781 339.851562 L 118.261719 362.367188 L 118.328125 363.054688 L 118 363.492188 L 117.207031 363.679688 L 95.59375 361.066406 Z M 97.859375 339.960938 "/>
</g>
<path style=" stroke:none;fill-rule:nonzero;fill:rgb(39.99939%,39.99939%,39.99939%);fill-opacity:0.3;" d="M 63.875 299.347656 L 54.933594 306.144531 L 53.78125 304.742188 L 62.707031 297.929688 Z M 63.875 299.347656 "/>
<path style=" stroke:none;fill-rule:nonzero;fill:rgb(39.99939%,39.99939%,39.99939%);fill-opacity:0.3;" d="M 62.265625 297.417969 L 53.375 304.226562 L 52.226562 302.765625 L 61.082031 296.015625 Z M 62.265625 297.417969 "/>
<path style=" stroke:none;fill-rule:nonzero;fill:rgb(39.99939%,39.99939%,39.99939%);fill-opacity:0.3;" d="M 65.417969 301.210938 L 56.476562 308.015625 L 55.304688 306.597656 L 64.253906 299.789062 Z M 65.417969 301.210938 "/>
<path style=" stroke:none;fill-rule:nonzero;fill:rgb(39.99939%,39.99939%,39.99939%);fill-opacity:0.3;" d="M 66.988281 303.125 L 58.082031 309.90625 L 56.910156 308.488281 L 65.824219 301.703125 Z M 66.988281 303.125 "/>
<path style=" stroke:none;fill-rule:nonzero;fill:rgb(39.99939%,39.99939%,39.99939%);fill-opacity:0.3;" d="M 68.5625 304.984375 L 59.609375 311.8125 L 58.410156 310.402344 L 67.394531 303.5625 Z M 68.5625 304.984375 "/>
<path style=" stroke:none;fill-rule:nonzero;fill:rgb(39.99939%,39.99939%,39.99939%);fill-opacity:0.3;" d="M 70.058594 306.746094 L 61.066406 313.59375 L 59.902344 312.171875 L 68.890625 305.328125 Z M 70.058594 306.746094 "/>
<path style=" stroke:none;fill-rule:nonzero;fill:rgb(39.99939%,39.99939%,39.99939%);fill-opacity:0.3;" d="M 71.554688 308.542969 L 62.558594 315.390625 L 61.390625 313.980469 L 70.386719 307.125 Z M 71.554688 308.542969 "/>
<path style=" stroke:none;fill-rule:nonzero;fill:rgb(39.99939%,39.99939%,39.99939%);fill-opacity:0.3;" d="M 73.121094 310.445312 L 64.121094 317.308594 L 62.972656 315.878906 L 71.957031 309.023438 Z M 73.121094 310.445312 "/>
<path style=" stroke:none;fill-rule:nonzero;fill:rgb(39.99939%,39.99939%,39.99939%);fill-opacity:0.3;" d="M 74.660156 312.25 L 65.628906 319.121094 L 64.464844 317.710938 L 73.5 310.832031 Z M 74.660156 312.25 "/>
<path style=" stroke:none;fill-rule:nonzero;fill:rgb(39.99939%,39.99939%,39.99939%);fill-opacity:0.3;" d="M 76.113281 314.003906 L 67.085938 320.890625 L 65.910156 319.476562 L 74.949219 312.582031 Z M 76.113281 314.003906 "/>
<path style=" stroke:none;fill-rule:nonzero;fill:rgb(39.99939%,39.99939%,39.99939%);fill-opacity:0.3;" d="M 78.976562 316.714844 L 79.078125 321.535156 L 77.183594 321.582031 L 77.085938 316.75 Z M 78.976562 316.714844 "/>
<path style=" stroke:none;fill-rule:nonzero;fill:rgb(39.99939%,39.99939%,39.99939%);fill-opacity:0.3;" d="M 80.898438 324.101562 L 72.726562 323.472656 L 72.941406 321.675781 L 81.125 322.3125 Z M 80.898438 324.101562 "/>
<path style=" stroke:none;fill-rule:nonzero;fill:rgb(39.99939%,39.99939%,39.99939%);fill-opacity:0.3;" d="M 46.089844 300.300781 L 36.570312 307.589844 L 35.382812 306.15625 L 44.910156 298.898438 Z M 46.089844 300.300781 "/>
<path style=" stroke:none;fill-rule:nonzero;fill:rgb(39.99939%,39.99939%,39.99939%);fill-opacity:0.3;" d="M 47.613281 302.152344 L 38.089844 309.441406 L 36.902344 308.007812 L 46.429688 300.75 Z M 47.613281 302.152344 "/>
<path style=" stroke:none;fill-rule:nonzero;fill:rgb(39.99939%,39.99939%,39.99939%);fill-opacity:0.3;" d="M 49.242188 304.054688 L 39.71875 311.34375 L 38.53125 309.910156 L 48.058594 302.652344 Z M 49.242188 304.054688 "/>
<path style=" stroke:none;fill-rule:nonzero;fill:rgb(39.99939%,39.99939%,39.99939%);fill-opacity:0.3;" d="M 50.839844 305.945312 L 41.257812 313.257812 L 40.070312 311.824219 L 49.660156 304.542969 Z M 50.839844 305.945312 "/>
<path style=" stroke:none;fill-rule:nonzero;fill:rgb(39.99939%,39.99939%,39.99939%);fill-opacity:0.3;" d="M 52.332031 307.671875 L 42.707031 315.039062 L 41.519531 313.605469 L 51.148438 306.269531 Z M 52.332031 307.671875 "/>
<path style=" stroke:none;fill-rule:nonzero;fill:rgb(39.99939%,39.99939%,39.99939%);fill-opacity:0.3;" d="M 53.84375 309.511719 L 44.21875 316.878906 L 43.03125 315.445312 L 52.664062 308.109375 Z M 53.84375 309.511719 "/>
<path style=" stroke:none;fill-rule:nonzero;fill:rgb(39.99939%,39.99939%,39.99939%);fill-opacity:0.3;" d="M 55.453125 311.414062 L 45.808594 318.8125 L 44.621094 317.378906 L 54.273438 310.011719 Z M 55.453125 311.414062 "/>
<path style=" stroke:none;fill-rule:nonzero;fill:rgb(39.99939%,39.99939%,39.99939%);fill-opacity:0.3;" d="M 57.078125 313.324219 L 47.390625 320.742188 L 46.207031 319.308594 L 55.898438 311.921875 Z M 57.078125 313.324219 "/>
<path style=" stroke:none;fill-rule:nonzero;fill:rgb(39.99939%,39.99939%,39.99939%);fill-opacity:0.3;" d="M 58.539062 315.21875 L 48.914062 322.59375 L 47.730469 321.160156 L 57.433594 313.765625 Z M 58.539062 315.21875 "/>
<path style=" stroke:none;fill-rule:nonzero;fill:rgb(39.99939%,39.99939%,39.99939%);fill-opacity:0.3;" d="M 60 317.058594 L 50.40625 324.402344 L 49.21875 322.96875 L 58.875 315.621094 Z M 60 317.058594 "/>
<path style=" stroke:none;fill-rule:nonzero;fill:rgb(39.99939%,39.99939%,39.99939%);fill-opacity:0.3;" d="M 61.5625 319.050781 L 52.023438 326.378906 L 50.835938 324.945312 L 60.464844 317.625 Z M 61.5625 319.050781 "/>
<path style=" stroke:none;fill-rule:nonzero;fill:rgb(39.99939%,39.99939%,39.99939%);fill-opacity:0.3;" d="M 44.488281 298.359375 L 34.976562 305.628906 L 33.789062 304.195312 L 43.308594 296.957031 Z M 44.488281 298.359375 "/>
<path style=" stroke:none;fill-rule:nonzero;fill:rgb(39.99939%,39.99939%,39.99939%);fill-opacity:0.3;" d="M 42.980469 296.585938 L 33.496094 303.851562 L 32.308594 302.417969 L 41.800781 295.183594 Z M 42.980469 296.585938 "/>
<path style=" stroke:none;fill-rule:nonzero;fill:rgb(39.99939%,39.99939%,39.99939%);fill-opacity:0.3;" d="M 39.988281 295.769531 L 31.9375 301.957031 L 30.753906 300.523438 L 38.808594 294.367188 Z M 39.988281 295.769531 "/>
<path style=" stroke:none;fill-rule:nonzero;fill:rgb(39.99939%,39.99939%,39.99939%);fill-opacity:0.3;" d="M 36.214844 295.492188 L 30.339844 300.003906 L 29.152344 298.570312 L 35.035156 294.089844 Z M 36.214844 295.492188 "/>
<path style=" stroke:none;fill-rule:nonzero;fill:rgb(39.99939%,39.99939%,39.99939%);fill-opacity:0.3;" d="M 64.382812 337.28125 L 52.695312 336.402344 L 52.910156 334.605469 L 64.625 335.5 Z M 64.382812 337.28125 "/>
<path style=" stroke:none;fill-rule:nonzero;fill:rgb(39.99939%,39.99939%,39.99939%);fill-opacity:0.3;" d="M 64.667969 334.992188 L 52.976562 334.113281 L 53.191406 332.3125 L 64.910156 333.25 Z M 64.667969 334.992188 "/>
<path style=" stroke:none;fill-rule:nonzero;fill:rgb(39.99939%,39.99939%,39.99939%);fill-opacity:0.3;" d="M 65.007812 332.667969 L 53.300781 331.734375 L 53.519531 329.933594 L 65.234375 330.882812 Z M 65.007812 332.667969 "/>
<path style=" stroke:none;fill-rule:nonzero;fill:rgb(39.99939%,39.99939%,39.99939%);fill-opacity:0.3;" d="M 65.335938 330.0625 L 53.628906 329.128906 L 53.84375 327.328125 L 65.558594 328.277344 Z M 65.335938 330.0625 "/>
<path style=" stroke:none;fill-rule:nonzero;fill:rgb(39.99939%,39.99939%,39.99939%);fill-opacity:0.3;" d="M 65.527344 327.90625 L 53.820312 326.96875 L 54.039062 325.171875 L 65.753906 326.117188 Z M 65.527344 327.90625 "/>
<path style=" stroke:none;fill-rule:nonzero;fill:rgb(39.99939%,39.99939%,39.99939%);fill-opacity:0.3;" d="M 47.125 331.339844 L 48.554688 330.277344 L 49.035156 330.933594 L 49.171875 331.570312 L 49.109375 332.230469 L 48.953125 332.796875 L 48.839844 333.105469 Z M 47.125 331.339844 "/>
<path style=" stroke:none;fill-rule:nonzero;fill:rgb(39.99939%,39.99939%,39.99939%);fill-opacity:0.3;" d="M 94.648438 336.269531 L 84.964844 335.5 L 85.105469 333.488281 L 94.789062 334.257812 Z M 94.648438 336.269531 "/>
<path style=" stroke:none;fill-rule:nonzero;fill:rgb(39.99939%,39.99939%,39.99939%);fill-opacity:0.3;" d="M 87.027344 332.617188 L 85.109375 332.371094 L 85.628906 328.691406 L 87.542969 328.941406 Z M 87.027344 332.617188 "/>
<path style=" stroke:none;fill-rule:nonzero;fill:rgb(39.99939%,39.99939%,39.99939%);fill-opacity:0.3;" d="M 91.417969 333.738281 L 87.839844 329.1875 L 89.671875 327.882812 L 93.25 332.429688 Z M 91.417969 333.738281 "/>
<path style=" stroke:none;fill-rule:nonzero;fill:rgb(39.99939%,39.99939%,39.99939%);fill-opacity:0.3;" d="M 95.847656 339.042969 L 84.605469 338.167969 L 84.746094 336.15625 L 95.992188 337.03125 Z M 95.847656 339.042969 "/>
<path style=" stroke:none;fill-rule:nonzero;fill:rgb(39.99939%,39.99939%,39.99939%);fill-opacity:0.3;" d="M 95.660156 341.503906 L 84.277344 340.601562 L 84.417969 338.585938 L 95.800781 339.488281 Z M 95.660156 341.503906 "/>
<path style=" stroke:none;fill-rule:nonzero;fill:rgb(39.99939%,39.99939%,39.99939%);fill-opacity:0.3;" d="M 95.414062 343.828125 L 83.917969 342.953125 L 84.0625 340.941406 L 95.554688 341.816406 Z M 95.414062 343.828125 "/>
<path style=" stroke:none;fill-rule:nonzero;fill:rgb(39.99939%,39.99939%,39.99939%);fill-opacity:0.3;" d="M 95.195312 346.242188 L 83.761719 345.3125 L 83.902344 343.300781 L 95.335938 344.230469 Z M 95.195312 346.242188 "/>
<path style=" stroke:none;fill-rule:nonzero;fill:rgb(39.99939%,39.99939%,39.99939%);fill-opacity:0.3;" d="M 95.03125 348.453125 L 83.519531 347.550781 L 83.660156 345.539062 L 95.171875 346.441406 Z M 95.03125 348.453125 "/>
<path style=" stroke:none;fill-rule:nonzero;fill:rgb(39.99939%,39.99939%,39.99939%);fill-opacity:0.3;" d="M 94.859375 350.785156 L 83.054688 349.882812 L 83.199219 347.871094 L 95.003906 348.769531 Z M 94.859375 350.785156 "/>
<path style=" stroke:none;fill-rule:nonzero;fill:rgb(39.99939%,39.99939%,39.99939%);fill-opacity:0.3;" d="M 94.574219 353.28125 L 82.769531 352.324219 L 82.910156 350.3125 L 94.714844 351.269531 Z M 94.574219 353.28125 "/>
<path style=" stroke:none;fill-rule:nonzero;fill:rgb(39.99939%,39.99939%,39.99939%);fill-opacity:0.3;" d="M 94.109375 355.777344 L 82.304688 354.820312 L 82.449219 352.808594 L 94.253906 353.765625 Z M 94.109375 355.777344 "/>
<path style=" stroke:none;fill-rule:nonzero;fill:rgb(39.99939%,39.99939%,39.99939%);fill-opacity:0.3;" d="M 93.882812 358.21875 L 82.078125 357.265625 L 82.21875 355.25 L 94.023438 356.207031 Z M 93.882812 358.21875 "/>
<g clip-path="url(#clip4)" clip-rule="nonzero">
<path style=" stroke:none;fill-rule:nonzero;fill:rgb(39.99939%,39.99939%,39.99939%);fill-opacity:0.3;" d="M 93.71875 360.761719 L 81.914062 359.808594 L 82.054688 357.792969 L 93.859375 358.75 Z M 93.71875 360.761719 "/>
</g>
<path style=" stroke:none;fill-rule:nonzero;fill:rgb(39.99939%,39.99939%,39.99939%);fill-opacity:0.3;" d="M 79.15625 338.109375 L 67.449219 337.175781 L 67.667969 335.375 L 79.382812 336.324219 Z M 79.15625 338.109375 "/>
<path style=" stroke:none;fill-rule:nonzero;fill:rgb(39.99939%,39.99939%,39.99939%);fill-opacity:0.3;" d="M 79.375 335.964844 L 67.667969 335.027344 L 67.882812 333.230469 L 79.597656 334.175781 Z M 79.375 335.964844 "/>
<path style=" stroke:none;fill-rule:nonzero;fill:rgb(39.99939%,39.99939%,39.99939%);fill-opacity:0.3;" d="M 79.710938 333.394531 L 68.003906 332.460938 L 68.21875 330.660156 L 79.933594 331.609375 Z M 79.710938 333.394531 "/>
<path style=" stroke:none;fill-rule:nonzero;fill:rgb(39.99939%,39.99939%,39.99939%);fill-opacity:0.3;" d="M 79.996094 331.171875 L 68.289062 330.234375 L 68.507812 328.4375 L 80.222656 329.386719 Z M 79.996094 331.171875 "/>
<path style=" stroke:none;fill-rule:nonzero;fill:rgb(39.99939%,39.99939%,39.99939%);fill-opacity:0.3;" d="M 80.308594 328.824219 L 68.601562 327.890625 L 68.816406 326.089844 L 80.53125 327.039062 Z M 80.308594 328.824219 "/>
<path style=" stroke:none;fill-rule:nonzero;fill:rgb(39.99939%,39.99939%,39.99939%);fill-opacity:0.3;" d="M 80.605469 326.46875 L 68.898438 325.53125 L 69.117188 323.730469 L 80.832031 324.679688 Z M 80.605469 326.46875 "/>
<path style=" stroke:none;fill-rule:nonzero;fill:rgb(39.99939%,39.99939%,39.99939%);fill-opacity:0.3;" d="M 77.738281 315.902344 L 68.316406 322.789062 L 67.148438 321.367188 L 76.550781 314.5 Z M 77.738281 315.902344 "/>
<path style=" stroke:none;fill-rule:nonzero;fill:rgb(39.99939%,39.99939%,39.99939%);fill-opacity:0.3;" d="M 52.097656 296.160156 L 48.753906 298.613281 L 47.589844 297.191406 L 50.96875 294.722656 Z M 52.097656 296.160156 "/>
<path style=" stroke:none;fill-rule:nonzero;fill:rgb(39.99939%,39.99939%,39.99939%);fill-opacity:0.3;" d="M 55.78125 296.300781 L 50.199219 300.347656 L 49.011719 298.929688 L 54.523438 294.9375 Z M 55.78125 296.300781 "/>
<path style=" stroke:none;fill-rule:nonzero;fill:rgb(39.99939%,39.99939%,39.99939%);fill-opacity:0.3;" d="M 59.148438 296.75 L 51.832031 302.296875 L 50.636719 300.878906 L 58.003906 295.3125 Z M 59.148438 296.75 "/>
<path style=" stroke:none;fill-rule:nonzero;fill:rgb(39.99939%,39.99939%,39.99939%);fill-opacity:0.3;" d="M 77.929688 347.542969 L 66.226562 346.609375 L 66.441406 344.808594 L 78.15625 345.757812 Z M 77.929688 347.542969 "/>
<path style=" stroke:none;fill-rule:nonzero;fill:rgb(39.99939%,39.99939%,39.99939%);fill-opacity:0.3;" d="M 78.25 345.171875 L 66.542969 344.234375 L 66.757812 342.433594 L 78.472656 343.382812 Z M 78.25 345.171875 "/>
<path style=" stroke:none;fill-rule:nonzero;fill:rgb(39.99939%,39.99939%,39.99939%);fill-opacity:0.3;" d="M 78.519531 342.90625 L 66.8125 341.972656 L 67.027344 340.171875 L 78.742188 341.121094 Z M 78.519531 342.90625 "/>
<path style=" stroke:none;fill-rule:nonzero;fill:rgb(39.99939%,39.99939%,39.99939%);fill-opacity:0.3;" d="M 78.792969 340.507812 L 67.085938 339.570312 L 67.304688 337.769531 L 79.019531 338.71875 Z M 78.792969 340.507812 "/>
<path style=" stroke:none;fill-rule:nonzero;fill:rgb(39.99939%,39.99939%,39.99939%);fill-opacity:0.3;" d="M 77.429688 351.859375 L 65.722656 350.921875 L 65.941406 349.121094 L 77.65625 350.070312 Z M 77.429688 351.859375 "/>
<path style=" stroke:none;fill-rule:nonzero;fill:rgb(39.99939%,39.99939%,39.99939%);fill-opacity:0.3;" d="M 77.152344 358.800781 L 74.882812 358.601562 L 75.621094 352.148438 L 77.890625 352.347656 Z M 77.152344 358.800781 "/>
<path style=" stroke:none;fill-rule:nonzero;fill:rgb(39.99939%,39.99939%,39.99939%);fill-opacity:0.3;" d="M 73.160156 356.640625 L 71.886719 357.78125 L 67.648438 353.464844 L 68.957031 352.296875 Z M 73.160156 356.640625 "/>
<path style=" stroke:none;fill-rule:nonzero;fill:rgb(39.99939%,39.99939%,39.99939%);fill-opacity:0.3;" d="M 77.65625 349.792969 L 65.949219 348.859375 L 66.167969 347.058594 L 77.882812 348.007812 Z M 77.65625 349.792969 "/>
<path style=" stroke:none;fill-rule:nonzero;fill:rgb(39.99939%,39.99939%,39.99939%);fill-opacity:0.3;" d="M 64.019531 340.6875 L 63.800781 344.730469 L 61.902344 344.566406 L 62.113281 340.597656 Z M 64.019531 340.6875 "/>
<path style=" stroke:none;fill-rule:nonzero;fill:rgb(39.99939%,39.99939%,39.99939%);fill-opacity:0.3;" d="M 32.71875 306.539062 L 27.105469 310.78125 L 25.8125 309.453125 L 31.597656 305.09375 Z M 32.71875 306.539062 "/>
<path style=" stroke:none;fill-rule:nonzero;fill:rgb(39.99939%,39.99939%,39.99939%);fill-opacity:0.3;" d="M 85.488281 318.894531 L 67.273438 297.578125 L 64.816406 295.25 L 63.328125 293.917969 L 65.265625 294.886719 L 68.648438 297.707031 Z M 85.488281 318.894531 "/>
<path style=" stroke:none;fill-rule:nonzero;fill:rgb(39.99939%,39.99939%,39.99939%);fill-opacity:0.3;" d="M 31.222656 304.660156 L 25.414062 309.046875 L 24.121094 307.71875 L 30.042969 303.257812 Z M 31.222656 304.660156 "/>
<path style=" stroke:none;fill-rule:nonzero;fill:rgb(39.99939%,39.99939%,39.99939%);fill-opacity:0.3;" d="M 34.367188 308.472656 L 28.949219 312.675781 L 27.617188 311.308594 L 33.183594 307.046875 Z M 34.367188 308.472656 "/>
<path style=" stroke:none;fill-rule:nonzero;fill:rgb(39.99939%,39.99939%,39.99939%);fill-opacity:0.3;" d="M 35.941406 310.339844 L 30.601562 314.371094 L 29.289062 313.027344 L 34.761719 308.9375 Z M 35.941406 310.339844 "/>
<path style=" stroke:none;fill-rule:nonzero;fill:rgb(39.99939%,39.99939%,39.99939%);fill-opacity:0.3;" d="M 37.429688 312.230469 L 32.3125 316.128906 L 31.011719 314.792969 L 36.25 310.824219 Z M 37.429688 312.230469 "/>
<path style=" stroke:none;fill-rule:nonzero;fill:rgb(39.99939%,39.99939%,39.99939%);fill-opacity:0.3;" d="M 39.152344 314.273438 L 34.179688 318.046875 L 32.875 316.707031 L 37.972656 312.871094 Z M 39.152344 314.273438 "/>
<path style=" stroke:none;fill-rule:nonzero;fill:rgb(39.99939%,39.99939%,39.99939%);fill-opacity:0.3;" d="M 40.511719 316.015625 L 35.738281 319.644531 L 34.429688 318.304688 L 39.386719 314.570312 Z M 40.511719 316.015625 "/>
<path style=" stroke:none;fill-rule:nonzero;fill:rgb(39.99939%,39.99939%,39.99939%);fill-opacity:0.3;" d="M 41.972656 317.773438 L 37.335938 321.289062 L 36.042969 319.960938 L 40.851562 316.355469 Z M 41.972656 317.773438 "/>
<path style=" stroke:none;fill-rule:nonzero;fill:rgb(39.99939%,39.99939%,39.99939%);fill-opacity:0.3;" d="M 43.644531 319.742188 L 39.160156 323.160156 L 37.855469 321.820312 L 42.480469 318.335938 Z M 43.644531 319.742188 "/>
<path style=" stroke:none;fill-rule:nonzero;fill:rgb(39.99939%,39.99939%,39.99939%);fill-opacity:0.3;" d="M 45.195312 321.675781 L 40.882812 324.933594 L 39.582031 323.597656 L 44.011719 320.273438 Z M 45.195312 321.675781 "/>
<path style=" stroke:none;fill-rule:nonzero;fill:rgb(39.99939%,39.99939%,39.99939%);fill-opacity:0.3;" d="M 50.011719 327.507812 L 46.207031 330.402344 L 44.894531 329.054688 L 48.84375 326.113281 Z M 50.011719 327.507812 "/>
<path style=" stroke:none;fill-rule:nonzero;fill:rgb(39.99939%,39.99939%,39.99939%);fill-opacity:0.3;" d="M 29.710938 302.828125 L 23.765625 307.351562 L 22.359375 305.90625 L 26.664062 299.195312 Z M 29.710938 302.828125 "/>
<path style=" stroke:none;fill-rule:nonzero;fill:rgb(39.99939%,39.99939%,39.99939%);fill-opacity:0.3;" d="M 53.265625 337.785156 L 53.339844 337.183594 L 64.304688 338.058594 L 64.183594 339.960938 L 56.390625 339.371094 L 62.269531 345.394531 L 61.007812 346.402344 Z M 53.265625 337.785156 "/>
<path style=" stroke:none;fill-rule:nonzero;fill:rgb(39.99939%,39.99939%,39.99939%);fill-opacity:0.3;" d="M 61.671875 322.128906 L 58.121094 325.019531 L 56.933594 323.710938 L 61.675781 319.851562 L 65.335938 324.285156 L 64.121094 325.171875 Z M 61.671875 322.128906 "/>
<g clip-path="url(#clip5)" clip-rule="nonzero">
<path style=" stroke:none;fill-rule:nonzero;fill:rgb(39.99939%,39.99939%,39.99939%);fill-opacity:0.3;" d="M 203 344.5625 L 209.164062 352.175781 L 217.394531 362.339844 L 216.9375 364.242188 L 216.144531 366.152344 L 215.460938 367.261719 L 214.527344 368.035156 L 212.832031 368.375 L 199.914062 367.058594 L 195.457031 361.828125 L 189.484375 354.816406 Z M 203 344.5625 "/>
</g>
<path style=" stroke:none;fill-rule:nonzero;fill:rgb(39.99939%,39.99939%,39.99939%);fill-opacity:0.3;" d="M 35.378906 285.472656 L 34.21875 290.203125 L 32.476562 290.074219 L 31.800781 290.054688 Z M 35.378906 285.472656 "/>
<path style=" stroke:none;fill-rule:nonzero;fill:rgb(39.99939%,39.99939%,39.99939%);fill-opacity:0.3;" d="M 194.144531 333.625 L 200.863281 341.921875 L 186.875 351.796875 L 180.074219 343.808594 L 168.035156 329.667969 L 182.375 319.089844 Z M 194.144531 333.625 "/>
<path style=" stroke:none;fill-rule:nonzero;fill:rgb(39.99939%,39.99939%,39.99939%);fill-opacity:0.3;" d="M 83.511719 289.191406 L 83.320312 289.460938 L 81.308594 288.980469 L 77.441406 288.445312 L 76.382812 287.929688 L 75.09375 286.6875 L 75.699219 286.992188 L 79.367188 288.402344 Z M 83.511719 289.191406 "/>
<path style=" stroke:none;fill-rule:nonzero;fill:rgb(39.99939%,39.99939%,39.99939%);fill-opacity:0.3;" d="M 78.582031 297.105469 L 85.59375 292.164062 L 94.84375 292.273438 L 82.414062 301.738281 Z M 78.582031 297.105469 "/>
<path style=" stroke:none;fill-rule:nonzero;fill:rgb(39.99939%,39.99939%,39.99939%);fill-opacity:0.3;" d="M 98.003906 293.050781 L 112.054688 293.042969 L 89.144531 309.808594 L 84.039062 303.890625 Z M 98.003906 293.050781 "/>
<path style=" stroke:none;fill-rule:nonzero;fill:rgb(39.99939%,39.99939%,39.99939%);fill-opacity:0.3;" d="M 116.152344 292.597656 L 129.382812 293.589844 L 96.445312 318.59375 L 90.527344 311.628906 Z M 116.152344 292.597656 "/>
<g clip-path="url(#clip6)" clip-rule="nonzero">
<path style=" stroke:none;fill-rule:nonzero;fill:rgb(39.99939%,39.99939%,39.99939%);fill-opacity:0.3;" d="M 257.6875 336.910156 L 265.6875 340.222656 L 250.996094 372.292969 L 241.738281 371.578125 Z M 257.6875 336.910156 "/>
</g>
<path style=" stroke:none;fill-rule:nonzero;fill:rgb(39.99939%,39.99939%,39.99939%);fill-opacity:0.3;" d="M 273.5 303.410156 L 281.578125 305.597656 L 266.371094 338.519531 L 258.511719 335.257812 Z M 273.5 303.410156 "/>
<g clip-path="url(#clip7)" clip-rule="nonzero">
<path style=" stroke:none;fill-rule:nonzero;fill:rgb(39.99939%,39.99939%,39.99939%);fill-opacity:0.3;" d="M 262.125 300.332031 L 270.679688 302.648438 L 239.492188 371.40625 L 229.976562 370.679688 Z M 262.125 300.332031 "/>
</g>
<g clip-path="url(#clip8)" clip-rule="nonzero">
<path style=" stroke:none;fill-rule:nonzero;fill:rgb(39.99939%,39.99939%,39.99939%);fill-opacity:0.3;" d="M 236.9375 328.121094 L 245.222656 331.671875 L 227.484375 369.175781 L 221.371094 361.984375 Z M 236.9375 328.121094 "/>
</g>
<path style=" stroke:none;fill-rule:nonzero;fill:rgb(39.99939%,39.99939%,39.99939%);fill-opacity:0.3;" d="M 250.433594 298.835938 L 259.898438 299.25 L 245.707031 330.59375 L 237.5625 327.078125 Z M 250.433594 298.835938 "/>
<path style=" stroke:none;fill-rule:nonzero;fill:rgb(39.99939%,39.99939%,39.99939%);fill-opacity:0.3;" d="M 202.304688 296.5625 L 211.511719 296.996094 L 204.65625 312.871094 L 196.578125 309.386719 Z M 202.304688 296.5625 "/>
<path style=" stroke:none;fill-rule:nonzero;fill:rgb(39.99939%,39.99939%,39.99939%);fill-opacity:0.3;" d="M 133.671875 293.503906 L 139.605469 300.429688 L 103.347656 326.894531 L 97.792969 320.398438 Z M 133.671875 293.503906 "/>
<path style=" stroke:none;fill-rule:nonzero;fill:rgb(39.99939%,39.99939%,39.99939%);fill-opacity:0.3;" d="M 140.628906 301.847656 L 146.226562 308.28125 L 110.328125 335.292969 L 104.5 328.445312 Z M 140.628906 301.847656 "/>
<path style=" stroke:none;fill-rule:nonzero;fill:rgb(39.99939%,39.99939%,39.99939%);fill-opacity:0.3;" d="M 147.8125 310.167969 L 152.921875 316.230469 L 117.210938 343.570312 L 111.933594 337.226562 Z M 147.8125 310.167969 "/>
<path style=" stroke:none;fill-rule:nonzero;fill:rgb(39.99939%,39.99939%,39.99939%);fill-opacity:0.3;" d="M 154.835938 318.546875 L 160.183594 324.851562 L 124.167969 351.9375 L 118.808594 345.542969 Z M 154.835938 318.546875 "/>
<g clip-path="url(#clip9)" clip-rule="nonzero">
<path style=" stroke:none;fill-rule:nonzero;fill:rgb(39.99939%,39.99939%,39.99939%);fill-opacity:0.3;" d="M 125.875 354.058594 L 161.765625 326.742188 L 167.28125 333.273438 L 131.433594 360.675781 Z M 125.875 354.058594 "/>
</g>
<path style=" stroke:none;fill-rule:nonzero;fill:rgb(39.99939%,39.99939%,39.99939%);fill-opacity:0.3;" d="M 216.335938 319.226562 L 224.4375 322.726562 L 211.921875 350.835938 L 205.714844 343.640625 Z M 216.335938 319.226562 "/>
<path style=" stroke:none;fill-rule:nonzero;fill:rgb(39.99939%,39.99939%,39.99939%);fill-opacity:0.3;" d="M 203.839844 341.296875 L 197.574219 333.902344 L 214.285156 297.128906 L 223.296875 297.554688 Z M 203.839844 341.296875 "/>
<path style=" stroke:none;fill-rule:nonzero;fill:rgb(39.99939%,39.99939%,39.99939%);fill-opacity:0.3;" d="M 238.226562 298.257812 L 247.378906 298.691406 L 219.625 359.921875 L 213.679688 352.804688 Z M 238.226562 298.257812 "/>
<path style=" stroke:none;fill-rule:nonzero;fill:rgb(39.99939%,39.99939%,39.99939%);fill-opacity:0.3;" d="M 226.320312 297.695312 L 235.265625 298.117188 L 224.726562 321.535156 L 216.601562 318.027344 Z M 226.320312 297.695312 "/>
<path style=" stroke:none;fill-rule:nonzero;fill:rgb(39.99939%,39.99939%,39.99939%);fill-opacity:0.3;" d="M 179.800781 295.667969 L 188.105469 295.890625 L 179.902344 313.042969 L 175.855469 308.09375 L 175.480469 307.355469 L 175.332031 306.507812 L 175.285156 305.527344 L 175.324219 304.386719 L 175.417969 303.433594 L 175.625 302.59375 L 175.859375 301.566406 L 176.195312 300.542969 L 176.53125 299.644531 L 177.003906 298.714844 L 177.40625 297.878906 L 177.929688 297.128906 L 178.652344 296.210938 Z M 179.800781 295.667969 "/>
<g clip-path="url(#clip10)" clip-rule="nonzero">
<path style=" stroke:none;fill-rule:nonzero;fill:rgb(39.99939%,39.99939%,39.99939%);fill-opacity:0.3;" d="M 40.089844 283.980469 L 62.652344 285.644531 L 64.289062 286.128906 L 66.742188 287.582031 L 69.199219 289.421875 L 71.65625 292.140625 L 166.179688 405.550781 L 165.703125 412.746094 L 85.488281 318.894531 L 68.648438 297.707031 L 65.265625 294.886719 L 63.328125 293.917969 L 62.972656 293.601562 L 60.925781 292.050781 L 59.082031 291.371094 L 36.511719 289.503906 Z M 40.089844 283.980469 "/>
</g>
<g clip-path="url(#clip11)" clip-rule="nonzero">
<path style=" stroke:none;fill-rule:nonzero;fill:rgb(39.99939%,39.99939%,39.99939%);fill-opacity:0.3;" d="M 305.675781 312.117188 L 310.355469 313.382812 L 276.992188 390.882812 L 274.546875 393.605469 L 261.011719 423.222656 L 259.273438 424.464844 L 257.214844 424.210938 L 257.496094 418.054688 Z M 305.675781 312.117188 "/>
</g>
<g clip-path="url(#clip12)" clip-rule="nonzero">
<path style=" stroke:none;fill-rule:nonzero;fill:rgb(39.99939%,39.99939%,39.99939%);fill-opacity:0.3;" d="M 278.484375 345.515625 L 286.378906 348.785156 L 275.035156 374.144531 L 265.589844 373.417969 Z M 278.484375 345.515625 "/>
</g>
<path style=" stroke:none;fill-rule:nonzero;fill:rgb(39.99939%,39.99939%,39.99939%);fill-opacity:0.3;" d="M 294.875 309.191406 L 303.535156 311.535156 L 287.402344 347.222656 L 279.128906 343.800781 Z M 294.875 309.191406 "/>
<g clip-path="url(#clip13)" clip-rule="nonzero">
<path style=" stroke:none;fill-rule:nonzero;fill:rgb(39.99939%,39.99939%,39.99939%);fill-opacity:0.3;" d="M 283.84375 306.207031 L 291.867188 308.378906 L 262.988281 373.214844 L 253.542969 372.488281 Z M 283.84375 306.207031 "/>
</g>
<g clip-path="url(#clip14)" clip-rule="nonzero">
<path style=" stroke:none;fill-rule:nonzero;fill:rgb(39.99939%,39.99939%,39.99939%);fill-opacity:0.3;" d="M 190.160156 359.976562 L 192.003906 369.113281 L 159.148438 394.003906 L 153.765625 387.574219 Z M 190.160156 359.976562 "/>
</g>
<g clip-path="url(#clip15)" clip-rule="nonzero">
<path style=" stroke:none;fill-rule:nonzero;fill:rgb(39.99939%,39.99939%,39.99939%);fill-opacity:0.3;" d="M 182.921875 351.839844 L 188.164062 358.0625 L 152.066406 385.488281 L 146.828125 379.191406 Z M 182.921875 351.839844 "/>
</g>
<g clip-path="url(#clip16)" clip-rule="nonzero">
<path style=" stroke:none;fill-rule:nonzero;fill:rgb(39.99939%,39.99939%,39.99939%);fill-opacity:0.3;" d="M 175.789062 343.371094 L 181.105469 349.6875 L 145.183594 377.214844 L 139.925781 370.847656 Z M 175.789062 343.371094 "/>
</g>
<g clip-path="url(#clip17)" clip-rule="nonzero">
<path style=" stroke:none;fill-rule:nonzero;fill:rgb(39.99939%,39.99939%,39.99939%);fill-opacity:0.3;" d="M 137.757812 368.195312 L 132.890625 362.460938 L 168.597656 335.097656 L 174.023438 341.28125 Z M 137.757812 368.195312 "/>
</g>
<path style=" stroke:none;fill-rule:nonzero;fill:rgb(39.99939%,39.99939%,39.99939%);fill-opacity:0.3;" d="M 195.964844 310.433594 L 204.570312 314.148438 L 196.003906 332.046875 L 189.589844 324.476562 Z M 195.964844 310.433594 "/>
<path style=" stroke:none;fill-rule:nonzero;fill:rgb(39.99939%,39.99939%,39.99939%);fill-opacity:0.3;" d="M 190.273438 295.980469 L 199.246094 296.417969 L 187.804688 322.371094 L 181.714844 315.183594 Z M 190.273438 295.980469 "/>
<path style=" stroke:none;fill-rule:nonzero;fill:rgb(39.99939%,39.99939%,39.99939%);fill-opacity:0.3;" d="M 139.042969 295.808594 L 140.914062 294.742188 L 143.578125 294.121094 L 173.648438 295.746094 L 173.324219 297.035156 L 172.816406 299.65625 L 172.398438 303.117188 L 172.742188 305.660156 L 173.8125 308.519531 L 180.402344 316.660156 L 165.988281 327.230469 Z M 139.042969 295.808594 "/>
<path style=" stroke:none;fill-rule:nonzero;fill:rgb(39.99939%,39.99939%,39.99939%);fill-opacity:0.3;" d="M 69.261719 237.730469 L 69.894531 238.480469 L 70.640625 239.265625 L 71.425781 240.019531 L 72.253906 240.726562 L 73.117188 241.394531 L 74.019531 242.019531 L 74.953125 242.597656 L 75.914062 243.128906 L 76.90625 243.613281 L 77.925781 244.046875 L 78.964844 244.429688 L 80.023438 244.757812 L 81.285156 245.074219 L 173.328125 269.574219 L 171.863281 274.648438 L 69.019531 247.558594 L 69.214844 247.222656 L 64.984375 245.8125 Z M 69.261719 237.730469 "/>
<path style=" stroke:none;fill-rule:nonzero;fill:rgb(39.99939%,39.99939%,39.99939%);fill-opacity:0.3;" d="M 141.265625 268.742188 L 160.8125 273.828125 L 152.597656 291.75 L 134.148438 290.910156 Z M 141.265625 268.742188 "/>
<path style=" stroke:none;fill-rule:nonzero;fill:rgb(39.99939%,39.99939%,39.99939%);fill-opacity:0.3;" d="M 108.398438 259.449219 L 117.027344 261.972656 L 115.011719 267.726562 L 112.601562 273.359375 L 109.328125 278.402344 L 104.652344 283.445312 L 98.59375 289.511719 L 86.472656 289.515625 L 88.804688 285.460938 L 92.9375 282.265625 L 96.289062 279.445312 L 99.953125 275.589844 L 102.449219 271.957031 L 104.9375 267.359375 L 106.734375 263.851562 Z M 108.398438 259.449219 "/>
<path style=" stroke:none;fill-rule:nonzero;fill:rgb(39.99939%,39.99939%,39.99939%);fill-opacity:0.3;" d="M 97.636719 256.296875 L 106.507812 258.792969 L 104.800781 262.816406 L 103.492188 265.65625 L 101.914062 269.15625 L 100.398438 272.042969 L 99.316406 273.609375 L 98.03125 275.214844 L 96.226562 276.914062 L 93.570312 279.261719 L 90.53125 281.519531 L 86.613281 284.773438 L 83.511719 289.191406 L 79.367188 288.402344 L 75.699219 286.992188 L 75.09375 286.6875 L 74.699219 286.308594 L 73.972656 285.085938 L 74.453125 283.785156 L 78.175781 280.710938 L 82.578125 277.511719 L 88.519531 271.867188 L 91.460938 268.796875 L 93.453125 266.089844 L 95.15625 262.933594 L 96.484375 260.316406 Z M 97.636719 256.296875 "/>
<path style=" stroke:none;fill-rule:nonzero;fill:rgb(39.99939%,39.99939%,39.99939%);fill-opacity:0.3;" d="M 87.105469 253.671875 L 95.699219 255.773438 L 94.871094 258.476562 L 94.457031 260.28125 L 93.722656 261.957031 L 92.921875 263.617188 L 90.992188 266.3125 L 88.339844 269.527344 L 87.617188 270.0625 L 85.523438 271.828125 L 83.246094 273.8125 L 77.808594 277.667969 L 75.476562 279.261719 L 73.554688 280.792969 L 72.179688 282.324219 L 70.558594 284.253906 L 69.289062 283.40625 L 67.445312 282.570312 L 65.964844 282.046875 L 64.042969 281.613281 L 64.605469 279.472656 L 65.648438 277.101562 L 67.945312 274.632812 L 69.9375 272.828125 L 72.3125 271.019531 L 74.652344 269.378906 L 76.339844 268.15625 L 78.007812 266.867188 L 80.285156 265.335938 L 81.488281 264.101562 L 83.015625 261.882812 L 84.539062 258.828125 Z M 87.105469 253.671875 "/>
<path style=" stroke:none;fill-rule:nonzero;fill:rgb(39.99939%,39.99939%,39.99939%);fill-opacity:0.3;" d="M 76.296875 251.179688 L 84.507812 253.664062 L 83.226562 257.210938 L 81.230469 260.730469 L 79.855469 262.660156 L 77.148438 265.0625 L 74.113281 267.230469 L 70.601562 269.847656 L 67.753906 271.921875 L 66.34375 273.140625 L 64.714844 274.628906 L 63.765625 275.804688 L 62.589844 277.625 L 61.195312 281.386719 L 51.429688 281.035156 L 52.34375 277.808594 L 53.304688 275.589844 L 54.429688 273.375 L 55.472656 271.996094 L 56.757812 270.542969 L 59.007812 268.25 L 60.859375 266.566406 L 63.351562 264.65625 L 65.363281 263.203125 L 67.9375 261.367188 L 69.625 260.144531 L 71.066406 259.128906 L 73.164062 257.46875 Z M 76.296875 251.179688 "/>
<path style=" stroke:none;fill-rule:nonzero;fill:rgb(39.99939%,39.99939%,39.99939%);fill-opacity:0.3;" d="M 69.230469 248.550781 L 74.441406 250.507812 L 64.273438 261.949219 L 61.960938 259.851562 Z M 69.230469 248.550781 "/>
<path style=" stroke:none;fill-rule:nonzero;fill:rgb(39.99939%,39.99939%,39.99939%);fill-opacity:0.3;" d="M 232.492188 285.125 L 304.769531 303.824219 L 305.894531 304.324219 L 307.144531 305.101562 L 308.21875 305.929688 L 308.273438 305.992188 L 308.324219 306.066406 L 308.367188 306.140625 L 308.410156 306.21875 L 308.445312 306.300781 L 308.476562 306.382812 L 308.503906 306.464844 L 308.527344 306.546875 L 308.546875 306.632812 L 308.558594 306.71875 L 308.566406 306.804688 L 308.570312 306.890625 L 308.570312 307.003906 L 308.5625 307.089844 L 308.550781 307.175781 L 308.535156 307.261719 L 308.511719 307.347656 L 308.488281 307.429688 L 308.457031 307.511719 L 308.421875 307.59375 L 308.382812 307.671875 L 308.339844 307.746094 L 308.292969 307.820312 L 308.238281 307.894531 L 308.183594 307.960938 L 308.125 308.027344 L 308.0625 308.089844 L 307.996094 308.148438 L 307.925781 308.207031 L 307.855469 308.257812 L 307.777344 308.308594 L 307.695312 308.359375 L 306.652344 308.554688 L 305.417969 308.570312 L 304.070312 308.34375 L 293.265625 306.066406 L 259.03125 296.960938 L 255.085938 295.699219 L 250.066406 295.523438 L 239.175781 295.441406 L 227.734375 294.773438 Z M 232.492188 285.125 "/>
<path style=" stroke:none;fill-rule:nonzero;fill:rgb(39.99939%,39.99939%,39.99939%);fill-opacity:0.3;" d="M 210.164062 279.253906 L 218.730469 281.523438 L 213.019531 294.140625 L 203.890625 293.777344 Z M 210.164062 279.253906 "/>
<path style=" stroke:none;fill-rule:nonzero;fill:rgb(39.99939%,39.99939%,39.99939%);fill-opacity:0.3;" d="M 221.496094 282.246094 L 229.519531 284.371094 L 224.65625 294.605469 L 215.621094 294.246094 Z M 221.496094 282.246094 "/>
<path style=" stroke:none;fill-rule:nonzero;fill:rgb(39.99939%,39.99939%,39.99939%);fill-opacity:0.3;" d="M 198.925781 276.28125 L 206.554688 278.292969 L 200 293.648438 L 191.324219 293.304688 Z M 198.925781 276.28125 "/>
<path style=" stroke:none;fill-rule:nonzero;fill:rgb(39.99939%,39.99939%,39.99939%);fill-opacity:0.3;" d="M 188.019531 273.410156 L 196.179688 275.558594 L 188.957031 293.242188 L 179.558594 292.890625 Z M 188.019531 273.410156 "/>
<path style=" stroke:none;fill-rule:nonzero;fill:rgb(39.99939%,39.99939%,39.99939%);fill-opacity:0.3;" d="M 176.921875 270.460938 L 186.148438 272.910156 L 177.304688 292.769531 L 166.945312 292.355469 Z M 176.921875 270.460938 "/>
<path style=" stroke:none;fill-rule:nonzero;fill:rgb(39.99939%,39.99939%,39.99939%);fill-opacity:0.3;" d="M 163.269531 274.46875 L 171.480469 276.601562 L 164.261719 292.1875 L 155.40625 291.8125 Z M 163.269531 274.46875 "/>
<path style=" stroke:none;fill-rule:nonzero;fill:rgb(39.99939%,39.99939%,39.99939%);fill-opacity:0.3;" d="M 130.304688 265.902344 L 139.285156 268.238281 L 131.175781 290.84375 L 116.996094 290.261719 L 121.082031 285.804688 L 124.800781 279.664062 L 127.582031 274.710938 L 129.003906 270.546875 Z M 130.304688 265.902344 "/>
<path style=" stroke:none;fill-rule:nonzero;fill:rgb(39.99939%,39.99939%,39.99939%);fill-opacity:0.3;" d="M 119.570312 263.109375 L 128.285156 265.375 L 126.964844 270.488281 L 123.597656 278.515625 L 119.578125 284.644531 L 117.082031 287.757812 L 114.894531 290.175781 L 103.207031 289.699219 L 107.070312 284.828125 L 111.761719 279.894531 L 115.265625 274.265625 L 117.210938 269.597656 Z M 119.570312 263.109375 "/>
<path style=" stroke:none;fill-rule:nonzero;fill:rgb(39.99939%,39.99939%,39.99939%);fill-opacity:0.3;" d="M 295.84375 291.960938 L 97.601562 241.164062 L 91.011719 238.460938 L 87.371094 235.386719 L 82.253906 229.417969 L 80.085938 225.316406 L 78.507812 221.867188 L 77.519531 217.574219 L 77.417969 213.9375 L 77.902344 210.023438 L 79.644531 205.65625 L 82.78125 199.964844 L 95.035156 181.59375 L 102.113281 170.910156 L 151.855469 236.503906 L 284.703125 266.964844 L 279.0625 287.273438 Z M 295.84375 291.960938 "/>
<g clip-path="url(#clip18)" clip-rule="nonzero">
<path style=" stroke:none;fill-rule:nonzero;fill:rgb(39.99939%,39.99939%,39.99939%);fill-opacity:0.3;" d="M 58.730469 359.648438 L 59.519531 359.722656 L 59.644531 358.566406 L 61.257812 358.722656 L 60.871094 362.386719 L 60.75 363.546875 L 61.539062 363.621094 L 61.664062 362.464844 L 63.277344 362.621094 L 62.890625 366.285156 L 61.273438 366.128906 L 61.410156 364.851562 L 60.617188 364.777344 L 60.484375 366.054688 L 58.867188 365.898438 L 59.253906 362.230469 L 59.390625 360.953125 L 58.597656 360.878906 L 58.464844 362.15625 L 56.847656 361.996094 L 57.234375 358.332031 L 58.851562 358.488281 Z M 58.730469 359.648438 "/>
</g>
<g clip-path="url(#clip19)" clip-rule="nonzero">
<path style=" stroke:none;fill-rule:nonzero;fill:rgb(39.99939%,39.99939%,39.99939%);fill-opacity:0.3;" d="M 53.183594 353.867188 L 53.976562 353.945312 L 54.097656 352.785156 L 55.714844 352.941406 L 55.328125 356.605469 L 53.710938 356.449219 L 53.847656 355.171875 L 53.054688 355.097656 L 52.917969 356.375 L 52.40625 361.199219 L 53.199219 361.273438 L 53.324219 360.117188 L 54.9375 360.273438 L 54.550781 363.9375 L 52.933594 363.78125 L 53.070312 362.503906 L 52.277344 362.429688 L 52.140625 363.707031 L 50.527344 363.546875 L 50.914062 359.882812 L 51.050781 358.605469 L 50.257812 358.527344 L 50.121094 359.804688 L 48.507812 359.648438 L 48.894531 355.984375 L 50.511719 356.140625 L 50.386719 357.300781 L 51.179688 357.375 L 51.304688 356.21875 L 51.691406 352.550781 L 53.308594 352.707031 Z M 53.183594 353.867188 "/>
</g>
<path style=" stroke:none;fill-rule:nonzero;fill:rgb(39.99939%,39.99939%,39.99939%);fill-opacity:0.3;" d="M 46.398438 346.445312 L 46.527344 345.285156 L 48.140625 345.445312 L 47.742188 349.109375 L 47.617188 350.269531 L 48.410156 350.347656 L 48.535156 349.1875 L 50.152344 349.351562 L 49.753906 353.015625 L 48.136719 352.855469 L 48.277344 351.578125 L 47.484375 351.5 L 47.34375 352.777344 L 46.945312 356.441406 L 45.332031 356.28125 L 45.46875 355.003906 L 44.679688 354.925781 L 44.539062 356.203125 L 42.925781 356.042969 L 43.320312 352.375 L 44.9375 352.535156 L 44.8125 353.695312 L 45.605469 353.773438 L 46.128906 348.949219 L 46.265625 347.671875 L 45.476562 347.59375 L 45.335938 348.871094 L 43.71875 348.710938 L 44.117188 345.046875 L 45.734375 345.207031 L 45.609375 346.367188 Z M 46.398438 346.445312 "/>
<g clip-path="url(#clip20)" clip-rule="nonzero">
<path style=" stroke:none;fill-rule:nonzero;fill:rgb(39.99939%,39.99939%,39.99939%);fill-opacity:0.3;" d="M 43.480469 361.164062 L 44.273438 361.238281 L 44.394531 360.082031 L 46.011719 360.238281 L 45.621094 363.902344 L 44.007812 363.746094 L 44.140625 362.46875 L 43.351562 362.390625 L 43.214844 363.667969 L 41.597656 363.511719 L 41.988281 359.847656 L 43.601562 360.003906 Z M 43.480469 361.164062 "/>
</g>
<path style=" stroke:none;fill-rule:nonzero;fill:rgb(39.99939%,39.99939%,39.99939%);fill-opacity:0.3;" d="M 37.933594 337.664062 L 38.726562 337.738281 L 38.847656 336.582031 L 40.464844 336.738281 L 40.078125 340.402344 L 38.460938 340.246094 L 38.597656 338.96875 L 37.804688 338.890625 L 37.667969 340.167969 L 36.054688 340.011719 L 36.441406 336.347656 L 38.058594 336.503906 Z M 37.933594 337.664062 "/>
<path style=" stroke:none;fill-rule:nonzero;fill:rgb(39.99939%,39.99939%,39.99939%);fill-opacity:0.3;" d="M 36.882812 353.835938 L 37.671875 353.910156 L 37.796875 352.753906 L 39.414062 352.910156 L 39.023438 356.574219 L 37.40625 356.417969 L 37.542969 355.140625 L 36.75 355.066406 L 36.617188 356.34375 L 35 356.1875 L 35.386719 352.519531 L 37.003906 352.675781 Z M 36.882812 353.835938 "/>
<path style=" stroke:none;fill-rule:nonzero;fill:rgb(39.99939%,39.99939%,39.99939%);fill-opacity:0.3;" d="M 46.046875 332.140625 L 47.125 331.339844 L 48.839844 333.105469 L 48.765625 333.308594 L 48.511719 333.757812 L 48.039062 334.328125 Z M 46.046875 332.140625 "/>
<path style=" stroke:none;fill-rule:nonzero;fill:rgb(39.99939%,39.99939%,39.99939%);fill-opacity:0.3;" d="M 30.972656 329.910156 L 31.765625 329.988281 L 31.886719 328.828125 L 33.503906 328.984375 L 33.113281 332.648438 L 32.992188 333.808594 L 33.785156 333.886719 L 33.90625 332.726562 L 35.523438 332.882812 L 35.132812 336.550781 L 33.515625 336.390625 L 33.652344 335.113281 L 32.859375 335.039062 L 32.726562 336.316406 L 31.109375 336.160156 L 31.5 332.492188 L 31.632812 331.214844 L 30.84375 331.140625 L 30.707031 332.417969 L 29.089844 332.261719 L 29.480469 328.59375 L 31.09375 328.75 Z M 30.972656 329.910156 "/>
<path style=" stroke:none;fill-rule:nonzero;fill:rgb(39.99939%,39.99939%,39.99939%);fill-opacity:0.3;" d="M 24.671875 322.417969 L 24.796875 321.257812 L 26.414062 321.417969 L 26.015625 325.082031 L 25.890625 326.242188 L 26.679688 326.320312 L 26.808594 325.160156 L 28.421875 325.320312 L 28.023438 328.988281 L 26.410156 328.828125 L 26.546875 327.550781 L 25.757812 327.46875 L 25.617188 328.746094 L 25.21875 332.414062 L 23.601562 332.25 L 23.742188 330.976562 L 22.949219 330.894531 L 22.8125 332.171875 L 21.195312 332.011719 L 21.59375 328.347656 L 23.210938 328.507812 L 23.082031 329.667969 L 23.875 329.746094 L 24.398438 324.921875 L 24.539062 323.644531 L 23.746094 323.566406 L 23.609375 324.84375 L 21.992188 324.683594 L 22.390625 321.019531 L 24.007812 321.179688 L 23.882812 322.335938 Z M 24.671875 322.417969 "/>
<path style=" stroke:none;fill-rule:nonzero;fill:rgb(39.99939%,39.99939%,39.99939%);fill-opacity:0.3;" d="M 17.519531 320.101562 L 18.3125 320.179688 L 18.433594 319.019531 L 20.050781 319.175781 L 19.660156 322.84375 L 18.046875 322.6875 L 18.179688 321.410156 L 17.390625 321.332031 L 17.253906 322.609375 L 15.636719 322.453125 L 16.027344 318.789062 L 17.644531 318.945312 Z M 17.519531 320.101562 "/>
<path style=" stroke:none;fill-rule:nonzero;fill:rgb(39.99939%,39.99939%,39.99939%);fill-opacity:0.3;" d="M 28.425781 343.171875 L 29.214844 343.257812 L 29.351562 342.101562 L 30.96875 342.277344 L 30.527344 345.9375 L 28.914062 345.761719 L 29.066406 344.484375 L 28.277344 344.398438 L 28.125 345.675781 L 27.6875 349.335938 L 26.074219 349.160156 L 26.226562 347.882812 L 25.433594 347.796875 L 25.28125 349.074219 L 23.667969 348.898438 L 24.105469 345.234375 L 25.71875 345.410156 L 25.582031 346.570312 L 26.371094 346.65625 L 26.511719 345.5 L 26.949219 341.835938 L 28.5625 342.011719 Z M 28.425781 343.171875 "/>
<path style=" stroke:none;fill-rule:nonzero;fill:rgb(39.99939%,39.99939%,39.99939%);fill-opacity:0.3;" d="M 10.546875 333.480469 L 11.335938 333.554688 L 11.460938 332.398438 L 13.074219 332.554688 L 12.6875 336.21875 L 12.5625 337.378906 L 13.355469 337.457031 L 13.480469 336.296875 L 15.09375 336.453125 L 14.707031 340.121094 L 13.089844 339.960938 L 13.226562 338.683594 L 12.433594 338.609375 L 12.296875 339.886719 L 10.683594 339.730469 L 11.070312 336.0625 L 11.207031 334.785156 L 10.414062 334.710938 L 10.277344 335.988281 L 8.664062 335.832031 L 9.050781 332.164062 L 10.667969 332.320312 Z M 10.546875 333.480469 "/>
<path style=" stroke:none;fill-rule:nonzero;fill:rgb(39.99939%,39.99939%,39.99939%);fill-opacity:0.3;" d="M 14.390625 324.851562 L 15.179688 324.929688 L 15.304688 323.769531 L 16.921875 323.925781 L 16.53125 327.59375 L 16.40625 328.75 L 17.199219 328.828125 L 17.324219 327.667969 L 18.9375 327.828125 L 18.550781 331.492188 L 16.933594 331.335938 L 17.070312 330.058594 L 16.277344 329.980469 L 16.140625 331.257812 L 14.527344 331.101562 L 14.914062 327.4375 L 15.050781 326.160156 L 14.257812 326.082031 L 14.125 327.359375 L 12.507812 327.203125 L 12.894531 323.539062 L 14.511719 323.695312 Z M 14.390625 324.851562 "/>
<path style=" stroke:none;fill-rule:nonzero;fill:rgb(39.99939%,39.99939%,39.99939%);fill-opacity:0.3;" d="M 61.613281 351.527344 L 59.34375 353.386719 L 52.59375 346.191406 L 54.863281 344.332031 Z M 61.613281 351.527344 "/>
<path style=" stroke:none;fill-rule:nonzero;fill:rgb(39.99939%,39.99939%,39.99939%);fill-opacity:0.3;" d="M 40.464844 343.257812 L 41.253906 343.332031 L 41.378906 342.175781 L 42.996094 342.332031 L 42.605469 345.996094 L 40.988281 345.839844 L 41.125 344.5625 L 40.332031 344.484375 L 40.199219 345.761719 L 39.808594 349.429688 L 38.191406 349.273438 L 38.328125 347.996094 L 37.535156 347.917969 L 37.402344 349.195312 L 35.785156 349.039062 L 36.175781 345.375 L 37.789062 345.53125 L 37.667969 346.6875 L 38.460938 346.765625 L 38.582031 345.605469 L 38.96875 341.941406 L 40.585938 342.097656 Z M 40.464844 343.257812 "/>
<path style=" stroke:none;fill-rule:nonzero;fill:rgb(39.99939%,39.99939%,39.99939%);fill-opacity:0.3;" d="M 21.292969 337.511719 L 21.421875 336.351562 L 23.035156 336.515625 L 22.636719 340.179688 L 22.511719 341.335938 L 23.304688 341.414062 L 23.429688 340.257812 L 25.046875 340.417969 L 24.648438 344.082031 L 23.03125 343.921875 L 23.171875 342.644531 L 22.378906 342.566406 L 22.238281 343.84375 L 21.839844 347.507812 L 20.226562 347.347656 L 20.363281 346.070312 L 19.574219 345.992188 L 19.433594 347.269531 L 17.820312 347.109375 L 18.214844 343.445312 L 19.832031 343.605469 L 19.707031 344.761719 L 20.5 344.839844 L 21.023438 340.019531 L 21.160156 338.742188 L 20.371094 338.664062 L 20.230469 339.941406 L 18.613281 339.777344 L 19.011719 336.113281 L 20.628906 336.273438 L 20.503906 337.433594 Z M 21.292969 337.511719 "/>
<path style=" stroke:none;fill-rule:nonzero;fill:rgb(39.99939%,39.99939%,39.99939%);fill-opacity:0.3;" d="M 71.886719 357.78125 L 71.5 358.125 L 67.296875 353.777344 L 67.648438 353.464844 Z M 71.886719 357.78125 "/>
<path style=" stroke:none;fill-rule:nonzero;fill:rgb(39.99939%,39.99939%,39.99939%);fill-opacity:0.3;" d="M 23.496094 311.359375 L 21.222656 313.21875 L 17.769531 309.535156 L 19.230469 306.816406 Z M 23.496094 311.359375 "/>
<g clip-path="url(#clip21)" clip-rule="nonzero">
<path style=" stroke:none;fill-rule:nonzero;fill:rgb(39.99939%,39.99939%,39.99939%);fill-opacity:0.3;" d="M 69.078125 359.605469 L 66.808594 361.464844 L 60.058594 354.269531 L 62.328125 352.410156 Z M 69.078125 359.605469 "/>
</g>
<g clip-path="url(#clip22)" clip-rule="nonzero">
<path style=" stroke:none;fill-rule:nonzero;fill:rgb(39.99939%,39.99939%,39.99939%);fill-opacity:0.3;" d="M 75.539062 366.65625 L 73.269531 368.515625 L 67.011719 361.746094 L 69.28125 359.886719 Z M 75.539062 366.65625 "/>
</g>
<path style=" stroke:none;fill-rule:nonzero;fill:rgb(39.99939%,39.99939%,39.99939%);fill-opacity:0.3;" d="M 5.664062 342.535156 L 6.449219 342.660156 L 6.648438 341.511719 L 8.25 341.761719 L 7.621094 345.398438 L 6.015625 345.144531 L 6.238281 343.878906 L 5.453125 343.753906 L 5.230469 345.019531 L 3.628906 344.769531 L 4.261719 341.132812 L 5.863281 341.386719 Z M 5.664062 342.535156 "/>
<path style=" stroke:none;fill-rule:nonzero;fill:rgb(39.99939%,39.99939%,39.99939%);fill-opacity:0.3;" d="M 3.34375 348.328125 L 4.128906 348.453125 L 4.328125 347.304688 L 5.929688 347.558594 L 5.300781 351.191406 L 3.699219 350.941406 L 3.917969 349.671875 L 3.132812 349.550781 L 2.914062 350.816406 L 2.28125 354.453125 L 0.679688 354.199219 L 0.898438 352.933594 L 0.113281 352.808594 L -0.105469 354.074219 L -1.707031 353.820312 L -1.078125 350.1875 L 0.523438 350.4375 L 0.324219 351.589844 L 1.109375 351.710938 L 1.3125 350.5625 L 1.941406 346.929688 L 3.542969 347.179688 Z M 3.34375 348.328125 "/>
<g clip-path="url(#clip23)" clip-rule="nonzero">
<path style=" stroke:none;fill-rule:nonzero;fill:rgb(39.99939%,39.99939%,39.99939%);fill-opacity:0.3;" d="M 16.484375 360.773438 L 17.269531 360.898438 L 17.46875 359.75 L 19.070312 360 L 18.441406 363.636719 L 16.835938 363.382812 L 17.058594 362.117188 L 16.273438 361.992188 L 16.050781 363.261719 L 14.449219 363.007812 L 15.078125 359.371094 L 16.683594 359.625 Z M 16.484375 360.773438 "/>
</g>
<path style=" stroke:none;fill-rule:nonzero;fill:rgb(39.99939%,39.99939%,39.99939%);fill-opacity:0.3;" d="M 8.460938 359.796875 L 4.6875 359.253906 L 5.253906 355.664062 L 9.03125 356.210938 Z M 8.460938 359.796875 "/>
<path style=" stroke:none;fill-rule:nonzero;fill:rgb(39.99939%,39.99939%,39.99939%);fill-opacity:0.3;" d="M 12.644531 349.226562 L 13.429688 349.347656 L 13.628906 348.199219 L 15.234375 348.453125 L 14.601562 352.089844 L 13 351.835938 L 13.21875 350.566406 L 12.433594 350.445312 L 12.214844 351.710938 L 11.382812 356.496094 L 12.167969 356.621094 L 12.367188 355.46875 L 13.972656 355.722656 L 13.339844 359.359375 L 11.738281 359.105469 L 11.957031 357.839844 L 11.171875 357.714844 L 10.953125 358.980469 L 9.351562 358.730469 L 9.980469 355.09375 L 10.199219 353.828125 L 9.414062 353.703125 L 9.195312 354.96875 L 7.59375 354.714844 L 8.222656 351.082031 L 9.828125 351.335938 L 9.625 352.484375 L 10.414062 352.605469 L 10.613281 351.457031 L 11.242188 347.824219 L 12.84375 348.074219 Z M 12.644531 349.226562 "/>
<path style=" stroke:none;fill-rule:nonzero;fill:rgb(39.99939%,39.99939%,39.99939%);fill-opacity:0.3;" d="M 27.105469 310.78125 L 26.601562 311.160156 L 25.367188 309.789062 L 25.8125 309.453125 Z M 27.105469 310.78125 "/>
<path style=" stroke:none;fill-rule:nonzero;fill:rgb(39.99939%,39.99939%,39.99939%);fill-opacity:0.3;" d="M 25.414062 309.046875 L 24.992188 309.363281 L 23.757812 307.992188 L 24.121094 307.71875 Z M 25.414062 309.046875 "/>
<path style=" stroke:none;fill-rule:nonzero;fill:rgb(39.99939%,39.99939%,39.99939%);fill-opacity:0.3;" d="M 28.949219 312.675781 L 28.371094 313.125 L 27.101562 311.703125 L 27.617188 311.308594 Z M 28.949219 312.675781 "/>
<path style=" stroke:none;fill-rule:nonzero;fill:rgb(39.99939%,39.99939%,39.99939%);fill-opacity:0.3;" d="M 30.601562 314.371094 L 29.929688 314.875 L 28.695312 313.46875 L 29.289062 313.027344 Z M 30.601562 314.371094 "/>
<path style=" stroke:none;fill-rule:nonzero;fill:rgb(39.99939%,39.99939%,39.99939%);fill-opacity:0.3;" d="M 32.3125 316.128906 L 31.558594 316.707031 L 30.324219 315.316406 L 31.011719 314.792969 Z M 32.3125 316.128906 "/>
<path style=" stroke:none;fill-rule:nonzero;fill:rgb(39.99939%,39.99939%,39.99939%);fill-opacity:0.3;" d="M 34.179688 318.046875 L 33.335938 318.6875 L 32.121094 317.28125 L 32.875 316.707031 Z M 34.179688 318.046875 "/>
<path style=" stroke:none;fill-rule:nonzero;fill:rgb(39.99939%,39.99939%,39.99939%);fill-opacity:0.3;" d="M 35.738281 319.644531 L 34.839844 320.328125 L 33.585938 318.941406 L 34.429688 318.304688 Z M 35.738281 319.644531 "/>
<path style=" stroke:none;fill-rule:nonzero;fill:rgb(39.99939%,39.99939%,39.99939%);fill-opacity:0.3;" d="M 37.335938 321.289062 L 36.339844 322.039062 L 35.125 320.652344 L 36.042969 319.960938 Z M 37.335938 321.289062 "/>
<path style=" stroke:none;fill-rule:nonzero;fill:rgb(39.99939%,39.99939%,39.99939%);fill-opacity:0.3;" d="M 39.160156 323.160156 L 38.074219 323.988281 L 36.839844 322.582031 L 37.855469 321.820312 Z M 39.160156 323.160156 "/>
<path style=" stroke:none;fill-rule:nonzero;fill:rgb(39.99939%,39.99939%,39.99939%);fill-opacity:0.3;" d="M 40.882812 324.933594 L 39.726562 325.804688 L 38.492188 324.417969 L 39.582031 323.597656 Z M 40.882812 324.933594 "/>
<path style=" stroke:none;fill-rule:nonzero;fill:rgb(39.99939%,39.99939%,39.99939%);fill-opacity:0.3;" d="M 46.207031 330.402344 L 46.148438 330.445312 L 44.890625 329.058594 L 44.894531 329.054688 Z M 46.207031 330.402344 "/>
<path style=" stroke:none;fill-rule:nonzero;fill:rgb(39.99939%,39.99939%,39.99939%);fill-opacity:0.3;" d="M 52.609375 342.105469 L 50.339844 343.964844 L 43.589844 336.765625 L 45.859375 334.90625 Z M 52.609375 342.105469 "/>
<path style=" stroke:none;fill-rule:nonzero;fill:rgb(39.99939%,39.99939%,39.99939%);fill-opacity:0.3;" d="M 44.882812 333.988281 L 42.613281 335.847656 L 35.863281 328.652344 L 38.132812 326.792969 Z M 44.882812 333.988281 "/>
<path style=" stroke:none;fill-rule:nonzero;fill:rgb(39.99939%,39.99939%,39.99939%);fill-opacity:0.3;" d="M 37.351562 326.046875 L 35.082031 327.90625 L 28.332031 320.707031 L 30.601562 318.847656 Z M 37.351562 326.046875 "/>
<path style=" stroke:none;fill-rule:nonzero;fill:rgb(39.99939%,39.99939%,39.99939%);fill-opacity:0.3;" d="M 29.871094 318.152344 L 27.601562 320.011719 L 21.6875 313.722656 L 23.957031 311.863281 Z M 29.871094 318.152344 "/>
<path style=" stroke:none;fill-rule:nonzero;fill:rgb(39.99939%,39.99939%,39.99939%);fill-opacity:0.3;" d="M 23.765625 307.351562 L 23.4375 307.601562 L 22.167969 306.203125 L 22.359375 305.90625 Z M 23.765625 307.351562 "/>
<path style=" stroke:none;fill-rule:nonzero;fill:rgb(39.99939%,39.99939%,39.99939%);fill-opacity:0.3;" d="M 53.121094 338.984375 L 53.265625 337.785156 L 61.007812 346.402344 L 60.632812 346.699219 Z M 53.121094 338.984375 "/>
<path style="fill-rule:nonzero;fill:rgb(39.99939%,39.99939%,39.99939%);fill-opacity:1;stroke-width:0.03;stroke-linecap:square;stroke-linejoin:miter;stroke:rgb(39.99939%,39.99939%,39.99939%);stroke-opacity:1;stroke-miterlimit:3.239307;" d="M 143.261719 250.730469 L 143.894531 251.480469 L 144.640625 252.265625 L 145.425781 253.019531 L 146.253906 253.726562 L 147.117188 254.394531 L 148.019531 255.019531 L 148.953125 255.597656 L 149.914062 256.128906 L 150.90625 256.613281 L 151.925781 257.046875 L 152.964844 257.429688 L 154.023438 257.757812 L 155.285156 258.074219 L 247.328125 282.574219 L 245.863281 287.648438 L 143.019531 260.558594 L 143.214844 260.222656 L 138.984375 258.8125 Z M 143.261719 250.730469 " transform="matrix(1,0,0,1,-74,-13)"/>
<path style="fill-rule:nonzero;fill:rgb(39.99939%,39.99939%,39.99939%);fill-opacity:1;stroke-width:0.03;stroke-linecap:square;stroke-linejoin:miter;stroke:rgb(39.99939%,39.99939%,39.99939%);stroke-opacity:1;stroke-miterlimit:3.239307;" d="M 215.265625 281.742188 L 234.8125 286.828125 L 226.597656 304.75 L 208.148438 303.910156 Z M 215.265625 281.742188 " transform="matrix(1,0,0,1,-74,-13)"/>
<path style="fill-rule:nonzero;fill:rgb(39.99939%,39.99939%,39.99939%);fill-opacity:1;stroke-width:0.03;stroke-linecap:square;stroke-linejoin:miter;stroke:rgb(39.99939%,39.99939%,39.99939%);stroke-opacity:1;stroke-miterlimit:3.239307;" d="M 182.398438 272.449219 L 191.027344 274.972656 L 189.011719 280.726562 L 186.601562 286.359375 L 183.328125 291.402344 L 178.652344 296.445312 L 172.59375 302.511719 L 160.472656 302.515625 L 162.804688 298.460938 L 166.9375 295.265625 L 170.289062 292.445312 L 173.953125 288.589844 L 176.449219 284.957031 L 178.9375 280.359375 L 180.734375 276.851562 Z M 182.398438 272.449219 " transform="matrix(1,0,0,1,-74,-13)"/>
<path style="fill-rule:nonzero;fill:rgb(39.99939%,39.99939%,39.99939%);fill-opacity:1;stroke-width:0.03;stroke-linecap:square;stroke-linejoin:miter;stroke:rgb(39.99939%,39.99939%,39.99939%);stroke-opacity:1;stroke-miterlimit:3.239307;" d="M 171.636719 269.296875 L 180.507812 271.792969 L 178.800781 275.816406 L 177.492188 278.65625 L 175.914062 282.15625 L 174.398438 285.042969 L 173.316406 286.609375 L 172.03125 288.214844 L 170.226562 289.914062 L 167.570312 292.261719 L 164.53125 294.519531 L 160.613281 297.773438 L 157.511719 302.191406 L 153.367188 301.402344 L 149.699219 299.992188 L 149.09375 299.6875 L 148.699219 299.308594 L 147.972656 298.085938 L 148.453125 296.785156 L 152.175781 293.710938 L 156.578125 290.511719 L 162.519531 284.867188 L 165.460938 281.796875 L 167.453125 279.089844 L 169.15625 275.933594 L 170.484375 273.316406 Z M 171.636719 269.296875 " transform="matrix(1,0,0,1,-74,-13)"/>
<path style="fill-rule:nonzero;fill:rgb(39.99939%,39.99939%,39.99939%);fill-opacity:1;stroke-width:0.03;stroke-linecap:square;stroke-linejoin:miter;stroke:rgb(39.99939%,39.99939%,39.99939%);stroke-opacity:1;stroke-miterlimit:3.239307;" d="M 161.105469 266.671875 L 169.699219 268.773438 L 168.871094 271.476562 L 168.457031 273.28125 L 167.722656 274.957031 L 166.921875 276.617188 L 164.992188 279.3125 L 162.339844 282.527344 L 161.617188 283.0625 L 159.523438 284.828125 L 157.246094 286.8125 L 151.808594 290.667969 L 149.476562 292.261719 L 147.554688 293.792969 L 146.179688 295.324219 L 144.558594 297.253906 L 143.289062 296.40625 L 141.445312 295.570312 L 139.964844 295.046875 L 138.042969 294.613281 L 138.605469 292.472656 L 139.648438 290.101562 L 141.945312 287.632812 L 143.9375 285.828125 L 146.3125 284.019531 L 148.652344 282.378906 L 150.339844 281.15625 L 152.007812 279.867188 L 154.285156 278.335938 L 155.488281 277.101562 L 157.015625 274.882812 L 158.539062 271.828125 Z M 161.105469 266.671875 " transform="matrix(1,0,0,1,-74,-13)"/>
<path style="fill-rule:nonzero;fill:rgb(39.99939%,39.99939%,39.99939%);fill-opacity:1;stroke-width:0.03;stroke-linecap:square;stroke-linejoin:miter;stroke:rgb(39.99939%,39.99939%,39.99939%);stroke-opacity:1;stroke-miterlimit:3.239307;" d="M 150.296875 264.179688 L 158.507812 266.664062 L 157.226562 270.210938 L 155.230469 273.730469 L 153.855469 275.660156 L 151.148438 278.0625 L 148.113281 280.230469 L 144.601562 282.847656 L 141.753906 284.921875 L 140.34375 286.140625 L 138.714844 287.628906 L 137.765625 288.804688 L 136.589844 290.625 L 135.195312 294.386719 L 125.429688 294.035156 L 126.34375 290.808594 L 127.304688 288.589844 L 128.429688 286.375 L 129.472656 284.996094 L 130.757812 283.542969 L 133.007812 281.25 L 134.859375 279.566406 L 137.351562 277.65625 L 139.363281 276.203125 L 141.9375 274.367188 L 143.625 273.144531 L 145.066406 272.128906 L 147.164062 270.46875 Z M 150.296875 264.179688 " transform="matrix(1,0,0,1,-74,-13)"/>
<path style="fill-rule:nonzero;fill:rgb(39.99939%,39.99939%,39.99939%);fill-opacity:1;stroke-width:0.03;stroke-linecap:square;stroke-linejoin:miter;stroke:rgb(39.99939%,39.99939%,39.99939%);stroke-opacity:1;stroke-miterlimit:3.239307;" d="M 143.230469 261.550781 L 148.441406 263.507812 L 138.273438 274.949219 L 135.960938 272.851562 Z M 143.230469 261.550781 " transform="matrix(1,0,0,1,-74,-13)"/>
<path style="fill-rule:nonzero;fill:rgb(39.99939%,39.99939%,39.99939%);fill-opacity:1;stroke-width:0.03;stroke-linecap:square;stroke-linejoin:miter;stroke:rgb(39.99939%,39.99939%,39.99939%);stroke-opacity:1;stroke-miterlimit:3.239307;" d="M 306.492188 298.125 L 378.769531 316.824219 L 379.894531 317.324219 L 381.144531 318.101562 L 382.21875 318.929688 L 382.273438 318.992188 L 382.324219 319.066406 L 382.367188 319.140625 L 382.410156 319.21875 L 382.445312 319.300781 L 382.476562 319.382812 L 382.503906 319.464844 L 382.527344 319.546875 L 382.546875 319.632812 L 382.558594 319.71875 L 382.566406 319.804688 L 382.570312 319.890625 L 382.570312 320.003906 L 382.5625 320.089844 L 382.550781 320.175781 L 382.535156 320.261719 L 382.511719 320.347656 L 382.488281 320.429688 L 382.457031 320.511719 L 382.421875 320.59375 L 382.382812 320.671875 L 382.339844 320.746094 L 382.292969 320.820312 L 382.238281 320.894531 L 382.183594 320.960938 L 382.125 321.027344 L 382.0625 321.089844 L 381.996094 321.148438 L 381.925781 321.207031 L 381.855469 321.257812 L 381.777344 321.308594 L 381.695312 321.359375 L 380.652344 321.554688 L 379.417969 321.570312 L 378.070312 321.34375 L 367.265625 319.066406 L 333.03125 309.960938 L 329.085938 308.699219 L 324.066406 308.523438 L 313.175781 308.441406 L 301.734375 307.773438 Z M 306.492188 298.125 " transform="matrix(1,0,0,1,-74,-13)"/>
<path style="fill-rule:nonzero;fill:rgb(39.99939%,39.99939%,39.99939%);fill-opacity:1;stroke-width:0.03;stroke-linecap:square;stroke-linejoin:miter;stroke:rgb(39.99939%,39.99939%,39.99939%);stroke-opacity:1;stroke-miterlimit:3.239307;" d="M 284.164062 292.253906 L 292.730469 294.523438 L 287.019531 307.140625 L 277.890625 306.777344 Z M 284.164062 292.253906 " transform="matrix(1,0,0,1,-74,-13)"/>
<path style="fill-rule:nonzero;fill:rgb(39.99939%,39.99939%,39.99939%);fill-opacity:1;stroke-width:0.03;stroke-linecap:square;stroke-linejoin:miter;stroke:rgb(39.99939%,39.99939%,39.99939%);stroke-opacity:1;stroke-miterlimit:3.239307;" d="M 295.496094 295.246094 L 303.519531 297.371094 L 298.65625 307.605469 L 289.621094 307.246094 Z M 295.496094 295.246094 " transform="matrix(1,0,0,1,-74,-13)"/>
<path style="fill-rule:nonzero;fill:rgb(39.99939%,39.99939%,39.99939%);fill-opacity:1;stroke-width:0.03;stroke-linecap:square;stroke-linejoin:miter;stroke:rgb(39.99939%,39.99939%,39.99939%);stroke-opacity:1;stroke-miterlimit:3.239307;" d="M 272.925781 289.28125 L 280.554688 291.292969 L 274 306.648438 L 265.324219 306.304688 Z M 272.925781 289.28125 " transform="matrix(1,0,0,1,-74,-13)"/>
<path style="fill-rule:nonzero;fill:rgb(39.99939%,39.99939%,39.99939%);fill-opacity:1;stroke-width:0.03;stroke-linecap:square;stroke-linejoin:miter;stroke:rgb(39.99939%,39.99939%,39.99939%);stroke-opacity:1;stroke-miterlimit:3.239307;" d="M 262.019531 286.410156 L 270.179688 288.558594 L 262.957031 306.242188 L 253.558594 305.890625 Z M 262.019531 286.410156 " transform="matrix(1,0,0,1,-74,-13)"/>
<path style="fill-rule:nonzero;fill:rgb(39.99939%,39.99939%,39.99939%);fill-opacity:1;stroke-width:0.03;stroke-linecap:square;stroke-linejoin:miter;stroke:rgb(39.99939%,39.99939%,39.99939%);stroke-opacity:1;stroke-miterlimit:3.239307;" d="M 250.921875 283.460938 L 260.148438 285.910156 L 251.304688 305.769531 L 240.945312 305.355469 Z M 250.921875 283.460938 " transform="matrix(1,0,0,1,-74,-13)"/>
<path style="fill-rule:nonzero;fill:rgb(39.99939%,39.99939%,39.99939%);fill-opacity:1;stroke-width:0.03;stroke-linecap:square;stroke-linejoin:miter;stroke:rgb(39.99939%,39.99939%,39.99939%);stroke-opacity:1;stroke-miterlimit:3.239307;" d="M 237.269531 287.46875 L 245.480469 289.601562 L 238.261719 305.1875 L 229.40625 304.8125 Z M 237.269531 287.46875 " transform="matrix(1,0,0,1,-74,-13)"/>
<path style="fill-rule:nonzero;fill:rgb(39.99939%,39.99939%,39.99939%);fill-opacity:1;stroke-width:0.03;stroke-linecap:square;stroke-linejoin:miter;stroke:rgb(39.99939%,39.99939%,39.99939%);stroke-opacity:1;stroke-miterlimit:3.239307;" d="M 204.304688 278.902344 L 213.285156 281.238281 L 205.175781 303.84375 L 190.996094 303.261719 L 195.082031 298.804688 L 198.800781 292.664062 L 201.582031 287.710938 L 203.003906 283.546875 Z M 204.304688 278.902344 " transform="matrix(1,0,0,1,-74,-13)"/>
<path style="fill-rule:nonzero;fill:rgb(39.99939%,39.99939%,39.99939%);fill-opacity:1;stroke-width:0.03;stroke-linecap:square;stroke-linejoin:miter;stroke:rgb(39.99939%,39.99939%,39.99939%);stroke-opacity:1;stroke-miterlimit:3.239307;" d="M 193.570312 276.109375 L 202.285156 278.375 L 200.964844 283.488281 L 197.597656 291.515625 L 193.578125 297.644531 L 191.082031 300.757812 L 188.894531 303.175781 L 177.207031 302.699219 L 181.070312 297.828125 L 185.761719 292.894531 L 189.265625 287.265625 L 191.210938 282.597656 Z M 193.570312 276.109375 " transform="matrix(1,0,0,1,-74,-13)"/>
<path style="fill-rule:nonzero;fill:rgb(39.99939%,39.99939%,39.99939%);fill-opacity:1;stroke-width:0.03;stroke-linecap:square;stroke-linejoin:miter;stroke:rgb(39.99939%,39.99939%,39.99939%);stroke-opacity:1;stroke-miterlimit:3.239307;" d="M 369.84375 304.960938 L 171.601562 254.164062 L 165.011719 251.460938 L 161.371094 248.386719 L 156.253906 242.417969 L 154.085938 238.316406 L 152.507812 234.867188 L 151.519531 230.574219 L 151.417969 226.9375 L 151.902344 223.023438 L 153.644531 218.65625 L 156.78125 212.964844 L 169.035156 194.59375 L 176.113281 183.910156 L 225.855469 249.503906 L 358.703125 279.964844 L 353.0625 300.273438 Z M 369.84375 304.960938 " transform="matrix(1,0,0,1,-74,-13)"/>
<g clip-path="url(#clip24)" clip-rule="nonzero">
<path style=" stroke:none;fill-rule:evenodd;fill:rgb(85.096741%,85.096741%,81.959534%);fill-opacity:0.7;" d="M 296.28125 358 C 296.28125 355.007812 295.09375 352.136719 292.976562 350.023438 C 290.863281 347.90625 287.992188 346.71875 285 346.71875 C 282.007812 346.71875 279.136719 347.90625 277.023438 350.023438 C 274.90625 352.136719 273.71875 355.007812 273.71875 358 C 273.71875 360.992188 274.90625 363.863281 277.023438 365.976562 C 279.136719 368.09375 282.007812 369.28125 285 369.28125 C 287.992188 369.28125 290.863281 368.09375 292.976562 365.976562 C 295.09375 363.863281 296.28125 360.992188 296.28125 358 Z M 296.28125 358 "/>
</g>
<path style=" stroke:none;fill-rule:evenodd;fill:rgb(85.096741%,85.096741%,81.959534%);fill-opacity:0.7;" d="M 203.28125 311 C 203.28125 308.007812 202.09375 305.136719 199.976562 303.023438 C 197.863281 300.90625 194.992188 299.71875 192 299.71875 C 189.007812 299.71875 186.136719 300.90625 184.023438 303.023438 C 181.90625 305.136719 180.71875 308.007812 180.71875 311 C 180.71875 313.992188 181.90625 316.863281 184.023438 318.976562 C 186.136719 321.09375 189.007812 322.28125 192 322.28125 C 194.992188 322.28125 197.863281 321.09375 199.976562 318.976562 C 202.09375 316.863281 203.28125 313.992188 203.28125 311 Z M 203.28125 311 "/>
</g>
</svg>
