<?xml version="1.0" encoding="UTF-8"?>
<svg xmlns="http://www.w3.org/2000/svg" xmlns:xlink="http://www.w3.org/1999/xlink" width="361pt" height="361pt" viewBox="0 0 361 361" version="1.1">
<defs>
<clipPath id="clip1">
  <path d="M 130 324 L 176 324 L 176 360 L 130 360 Z M 130 324 "/>
</clipPath>
<clipPath id="clip2">
  <path d="M 133 324 L 144 324 L 144 360 L 133 360 Z M 133 324 "/>
</clipPath>
<clipPath id="clip3">
  <path d="M 182 356 L 201 356 L 201 360 L 182 360 Z M 182 356 "/>
</clipPath>
<clipPath id="clip4">
  <path d="M 261 287 L 298 287 L 298 360 L 261 360 Z M 261 287 "/>
</clipPath>
<clipPath id="clip5">
  <path d="M 164 275 L 268 275 L 268 360 L 164 360 Z M 164 275 "/>
</clipPath>
<clipPath id="clip6">
  <path d="M 0 280 L 3 280 L 3 360 L 0 360 Z M 0 280 "/>
</clipPath>
<clipPath id="clip7">
  <path d="M 95 318 L 143 318 L 143 360 L 95 360 Z M 95 318 "/>
</clipPath>
<clipPath id="clip8">
  <path d="M 62 298 L 108 298 L 108 360 L 62 360 Z M 62 298 "/>
</clipPath>
<clipPath id="clip9">
  <path d="M 23 291 L 75 291 L 75 360 L 23 360 Z M 23 291 "/>
</clipPath>
<clipPath id="clip10">
  <path d="M 0 285 L 37 285 L 37 360 L 0 360 Z M 0 285 "/>
</clipPath>
<clipPath id="clip11">
  <path d="M 358 176 L 360 176 L 360 230 L 358 230 Z M 358 176 "/>
</clipPath>
<clipPath id="clip12">
  <path d="M 346 355 L 360 355 L 360 360 L 346 360 Z M 346 355 "/>
</clipPath>
<clipPath id="clip13">
  <path d="M 328 356 L 344 356 L 344 360 L 328 360 Z M 328 356 "/>
</clipPath>
<clipPath id="clip14">
  <path d="M 352 236 L 360 236 L 360 291 L 352 291 Z M 352 236 "/>
</clipPath>
<clipPath id="clip15">
  <path d="M 312 296 L 360 296 L 360 360 L 312 360 Z M 312 296 "/>
</clipPath>
</defs>
<g id="surface5544">
<path style="fill-rule:nonzero;fill:rgb(0%,0%,0%);fill-opacity:1;stroke-width:0.03;stroke-linecap:square;stroke-linejoin:miter;stroke:rgb(0%,0%,0%);stroke-opacity:1;stroke-miterlimit:10;" d="M 0 178 L 360 178 L 360 -182 L 0 -182 Z M 0 178 " transform="matrix(1,0,0,1,0,182)"/>
<path style=" stroke:none;fill-rule:nonzero;fill:rgb(39.99939%,39.99939%,39.99939%);fill-opacity:0.3;" d="M 148.804688 293.9375 L 181.773438 300.109375 L 176.109375 327.652344 L 142.671875 321.324219 L 146.785156 293.539062 Z M 148.804688 293.9375 "/>
<g clip-path="url(#clip1)" clip-rule="nonzero">
<path style=" stroke:none;fill-rule:nonzero;fill:rgb(39.99939%,39.99939%,39.99939%);fill-opacity:0.3;" d="M 146.011719 324.894531 L 175.199219 330.269531 L 159.617188 405.371094 L 130.816406 397.945312 Z M 146.011719 324.894531 "/>
</g>
<g clip-path="url(#clip2)" clip-rule="nonzero">
<path style=" stroke:none;fill-rule:nonzero;fill:rgb(39.99939%,39.99939%,39.99939%);fill-opacity:0.3;" d="M 142.234375 324.199219 L 143.003906 324.339844 L 133.0625 372.136719 Z M 142.234375 324.199219 "/>
</g>
<path style=" stroke:none;fill-rule:nonzero;fill:rgb(39.99939%,39.99939%,39.99939%);fill-opacity:0.3;" d="M 157.003906 252.6875 L 186.765625 260.671875 L 181.179688 294.804688 L 150.988281 289.441406 Z M 157.003906 252.6875 "/>
<path style=" stroke:none;fill-rule:nonzero;fill:rgb(39.99939%,39.99939%,39.99939%);fill-opacity:0.3;" d="M 188.1875 339.863281 L 193.476562 340.640625 L 192.867188 344.410156 L 198.15625 345.1875 L 198.765625 341.417969 L 204.058594 342.195312 L 202.023438 354.761719 L 196.734375 353.984375 L 197.546875 348.957031 L 192.257812 348.183594 L 191.441406 353.210938 L 186.152344 352.433594 Z M 188.1875 339.863281 "/>
<g clip-path="url(#clip3)" clip-rule="nonzero">
<path style=" stroke:none;fill-rule:nonzero;fill:rgb(39.99939%,39.99939%,39.99939%);fill-opacity:0.3;" d="M 184.457031 356.894531 L 189.746094 357.671875 L 189.136719 361.445312 L 194.425781 362.21875 L 195.035156 358.449219 L 200.324219 359.226562 L 198.296875 371.796875 L 193.003906 371.019531 L 193.816406 365.992188 L 188.527344 365.214844 L 187.714844 370.246094 L 182.425781 369.46875 Z M 184.457031 356.894531 "/>
</g>
<path style=" stroke:none;fill-rule:nonzero;fill:rgb(39.99939%,39.99939%,39.99939%);fill-opacity:0.3;" d="M 264.121094 287.558594 L 263.320312 296.421875 L 220.203125 281.363281 L 242.066406 284.578125 Z M 264.121094 287.558594 "/>
<g clip-path="url(#clip4)" clip-rule="nonzero">
<path style=" stroke:none;fill-rule:nonzero;fill:rgb(39.99939%,39.99939%,39.99939%);fill-opacity:0.3;" d="M 297.132812 308.570312 L 295.867188 317.867188 L 286.085938 389.640625 L 278.949219 435.179688 L 261.796875 431.710938 L 269.191406 383.992188 L 269.773438 355.46875 L 269.742188 342.992188 L 266.203125 301.0625 L 265.96875 298.320312 L 267.109375 287.960938 L 268.0625 288.089844 Z M 297.132812 308.570312 "/>
</g>
<g clip-path="url(#clip5)" clip-rule="nonzero">
<path style=" stroke:none;fill-rule:nonzero;fill:rgb(39.99939%,39.99939%,39.99939%);fill-opacity:0.3;" d="M 266.292969 387.175781 L 258.539062 430.664062 L 164.117188 408.039062 L 180.933594 332.933594 L 189.15625 275.703125 L 240.597656 294.617188 L 236.816406 316.5625 L 238.875 316.789062 L 241.25 316.914062 L 245.039062 296.175781 L 263.058594 302.804688 L 267.199219 351.226562 Z M 266.292969 387.175781 "/>
</g>
<path style=" stroke:none;fill-rule:nonzero;fill:rgb(39.99939%,39.99939%,39.99939%);fill-opacity:0.3;" d="M 204.988281 284.410156 L 208.925781 286.046875 L 210.90625 287.726562 L 212.785156 290.1875 L 214.050781 292.980469 L 212.394531 306.960938 L 185.605469 303.359375 L 186.828125 295.820312 L 187.847656 289.542969 L 189.070312 282.023438 Z M 204.988281 284.410156 "/>
<path style=" stroke:none;fill-rule:nonzero;fill:rgb(39.99939%,39.99939%,39.99939%);fill-opacity:0.3;" d="M 219.695312 294.84375 L 224.644531 295.632812 L 223.773438 300.566406 L 228.917969 301.386719 L 229.808594 296.335938 L 234.757812 297.125 L 232.675781 308.910156 L 227.726562 308.121094 L 228.382812 304.421875 L 223.257812 303.484375 L 222.5625 307.417969 L 217.613281 306.628906 Z M 219.695312 294.84375 "/>
<path style=" stroke:none;fill-rule:nonzero;fill:rgb(39.99939%,39.99939%,39.99939%);fill-opacity:0.3;" d="M 246.789062 305.488281 L 251.738281 306.277344 L 250.867188 311.210938 L 256.011719 312.03125 L 256.902344 306.980469 L 261.851562 307.769531 L 259.769531 319.558594 L 254.820312 318.769531 L 255.476562 315.066406 L 250.351562 314.128906 L 249.65625 318.0625 L 244.707031 317.273438 Z M 246.789062 305.488281 "/>
<path style=" stroke:none;fill-rule:nonzero;fill:rgb(39.99939%,39.99939%,39.99939%);fill-opacity:0.3;" d="M 191.878906 323.339844 L 196.828125 324.128906 L 195.957031 329.0625 L 201.105469 329.882812 L 201.996094 324.835938 L 206.945312 325.625 L 204.867188 337.414062 L 199.917969 336.625 L 200.570312 332.921875 L 195.445312 331.980469 L 194.996094 335.320312 L 189.789062 334.410156 Z M 191.878906 323.339844 "/>
<path style=" stroke:none;fill-rule:nonzero;fill:rgb(39.99939%,39.99939%,39.99939%);fill-opacity:0.3;" d="M 217.941406 327.894531 L 222.890625 328.683594 L 222.019531 333.617188 L 227.164062 334.4375 L 228.054688 329.386719 L 233.003906 330.175781 L 230.925781 341.96875 L 225.976562 341.179688 L 226.628906 337.476562 L 221.503906 336.535156 L 220.8125 340.472656 L 215.863281 339.683594 Z M 217.941406 327.894531 "/>
<path style=" stroke:none;fill-rule:nonzero;fill:rgb(39.99939%,39.99939%,39.99939%);fill-opacity:0.3;" d="M 242.214844 332.660156 L 247.164062 333.449219 L 246.292969 338.386719 L 251.4375 339.207031 L 252.328125 334.15625 L 257.277344 334.945312 L 255.199219 346.742188 L 250.25 345.949219 L 250.902344 342.246094 L 245.777344 341.304688 L 245.085938 345.242188 L 240.136719 344.453125 Z M 242.214844 332.660156 "/>
<path style=" stroke:none;fill-rule:nonzero;fill:rgb(39.99939%,39.99939%,39.99939%);fill-opacity:0.3;" d="M 142.671875 321.324219 L 110.824219 315.296875 L 114.507812 287.179688 L 146.785156 293.539062 Z M 142.671875 321.324219 "/>
<g clip-path="url(#clip6)" clip-rule="nonzero">
<path style=" stroke:none;fill-rule:nonzero;fill:rgb(39.99939%,39.99939%,39.99939%);fill-opacity:0.3;" d="M -20.519531 280.847656 L 2.933594 285.085938 L -12.917969 361.074219 L -36.015625 355.15625 Z M -20.519531 280.847656 "/>
</g>
<g clip-path="url(#clip7)" clip-rule="nonzero">
<path style=" stroke:none;fill-rule:nonzero;fill:rgb(39.99939%,39.99939%,39.99939%);fill-opacity:0.3;" d="M 110.054688 318.273438 L 142.234375 324.199219 L 133.0625 372.136719 L 127.8125 397.363281 L 95.359375 388.832031 Z M 110.054688 318.273438 "/>
</g>
<g clip-path="url(#clip8)" clip-rule="nonzero">
<path style=" stroke:none;fill-rule:nonzero;fill:rgb(39.99939%,39.99939%,39.99939%);fill-opacity:0.3;" d="M 79.105469 298.875 L 107.8125 304.078125 L 90.417969 387.5625 L 62.125 380.308594 Z M 79.105469 298.875 "/>
</g>
<path style=" stroke:none;fill-rule:nonzero;fill:rgb(39.99939%,39.99939%,39.99939%);fill-opacity:0.3;" d="M 92.976562 235.523438 L 116.910156 241.9375 L 107.722656 298.113281 L 79.089844 292.820312 L 88.605469 234.632812 L 92.394531 235.390625 Z M 92.976562 235.523438 "/>
<path style=" stroke:none;fill-rule:nonzero;fill:rgb(39.99939%,39.99939%,39.99939%);fill-opacity:0.3;" d="M -8.085938 199.347656 L 18.375 201.773438 L 5.175781 278.4375 L -20.914062 273.90625 Z M -8.085938 199.347656 "/>
<path style=" stroke:none;fill-rule:nonzero;fill:rgb(39.99939%,39.99939%,39.99939%);fill-opacity:0.3;" d="M 21.699219 202.113281 L 50.140625 205.035156 L 36.574219 284.753906 L 8.449219 279.046875 L 11.976562 258.566406 Z M 21.699219 202.113281 "/>
<path style=" stroke:none;fill-rule:nonzero;fill:rgb(39.99939%,39.99939%,39.99939%);fill-opacity:0.3;" d="M 58.621094 226.320312 L 77.726562 231.4375 L 84.589844 233.726562 L 75.046875 292.070312 L 40.761719 285.53125 L 51.429688 224.832031 Z M 58.621094 226.320312 "/>
<g clip-path="url(#clip9)" clip-rule="nonzero">
<path style=" stroke:none;fill-rule:nonzero;fill:rgb(39.99939%,39.99939%,39.99939%);fill-opacity:0.3;" d="M 40.363281 291.859375 L 74.28125 298 L 57.367188 379.089844 L 23.953125 370.523438 Z M 40.363281 291.859375 "/>
</g>
<g clip-path="url(#clip10)" clip-rule="nonzero">
<path style=" stroke:none;fill-rule:nonzero;fill:rgb(39.99939%,39.99939%,39.99939%);fill-opacity:0.3;" d="M 7.136719 285.84375 L 36.101562 291.085938 L 19.753906 369.445312 L -8.777344 362.132812 Z M 7.136719 285.84375 "/>
</g>
<path style=" stroke:none;fill-rule:nonzero;fill:rgb(39.99939%,39.99939%,39.99939%);fill-opacity:0.3;" d="M 198.78125 -29.117188 L 219.828125 -27.332031 L 217.53125 1.003906 L 196.484375 -0.382812 Z M 198.78125 -29.117188 "/>
<path style=" stroke:none;fill-rule:nonzero;fill:rgb(39.99939%,39.99939%,39.99939%);fill-opacity:0.3;" d="M 224.246094 -26.140625 L 245.40625 -24.347656 L 242.476562 3.589844 L 221.949219 2.199219 Z M 224.246094 -26.140625 "/>
<path style=" stroke:none;fill-rule:nonzero;fill:rgb(39.99939%,39.99939%,39.99939%);fill-opacity:0.3;" d="M 249.613281 -23.949219 L 269.820312 -22.5625 L 267.3125 5.574219 L 245.84375 3.789062 Z M 249.613281 -23.949219 "/>
<path style=" stroke:none;fill-rule:nonzero;fill:rgb(39.99939%,39.99939%,39.99939%);fill-opacity:0.3;" d="M 273.1875 -22.765625 L 294.988281 -20.851562 L 292.144531 7.753906 L 270.46875 5.96875 Z M 273.1875 -22.765625 "/>
<path style=" stroke:none;fill-rule:nonzero;fill:rgb(39.99939%,39.99939%,39.99939%);fill-opacity:0.3;" d="M 81.890625 114.449219 L 82.09375 114.472656 L 73.519531 199.636719 L 71.734375 199.519531 L 78.339844 144.042969 Z M 81.890625 114.449219 "/>
<path style=" stroke:none;fill-rule:nonzero;fill:rgb(39.99939%,39.99939%,39.99939%);fill-opacity:0.3;" d="M 155.542969 154.929688 L 176.113281 156.839844 L 171.074219 208.972656 L 150.507812 207.0625 Z M 155.542969 154.929688 "/>
<path style=" stroke:none;fill-rule:nonzero;fill:rgb(39.99939%,39.99939%,39.99939%);fill-opacity:0.3;" d="M 130.230469 152.773438 L 151.828125 154.433594 L 146.539062 206.5625 L 125.96875 204.652344 Z M 130.230469 152.773438 "/>
<path style=" stroke:none;fill-rule:nonzero;fill:rgb(39.99939%,39.99939%,39.99939%);fill-opacity:0.3;" d="M 105.28125 150.144531 L 126.371094 152.050781 L 121.339844 203.929688 L 100.261719 202.265625 Z M 105.28125 150.144531 "/>
<path style=" stroke:none;fill-rule:nonzero;fill:rgb(39.99939%,39.99939%,39.99939%);fill-opacity:0.3;" d="M 82.144531 149.160156 L 101.941406 150.714844 L 96.917969 202.273438 L 77.378906 200.605469 Z M 82.144531 149.160156 "/>
<path style=" stroke:none;fill-rule:nonzero;fill:rgb(39.99939%,39.99939%,39.99939%);fill-opacity:0.3;" d="M 158.605469 121.394531 L 179.507812 123.707031 L 176.828125 149.390625 L 156.179688 147.308594 Z M 158.605469 121.394531 "/>
<path style=" stroke:none;fill-rule:nonzero;fill:rgb(39.99939%,39.99939%,39.99939%);fill-opacity:0.3;" d="M 133.972656 119.324219 L 155.121094 121.164062 L 152.445312 147.082031 L 131.546875 145.003906 Z M 133.972656 119.324219 "/>
<path style=" stroke:none;fill-rule:nonzero;fill:rgb(39.99939%,39.99939%,39.99939%);fill-opacity:0.3;" d="M 108.230469 117.003906 L 129.636719 119.078125 L 127.460938 144.753906 L 105.8125 142.679688 Z M 108.230469 117.003906 "/>
<path style=" stroke:none;fill-rule:nonzero;fill:rgb(39.99939%,39.99939%,39.99939%);fill-opacity:0.3;" d="M 85.828125 114.933594 L 105.246094 116.539062 L 103.074219 142.6875 L 83.167969 140.84375 Z M 85.828125 114.933594 "/>
<path style=" stroke:none;fill-rule:nonzero;fill:rgb(39.99939%,39.99939%,39.99939%);fill-opacity:0.3;" d="M 164.800781 59.519531 L 185.109375 61.710938 L 179.984375 115.695312 L 159.832031 113.855469 Z M 164.800781 59.519531 "/>
<path style=" stroke:none;fill-rule:nonzero;fill:rgb(39.99939%,39.99939%,39.99939%);fill-opacity:0.3;" d="M 139.652344 57.222656 L 161.066406 59.058594 L 155.847656 112.921875 L 134.695312 111.550781 Z M 139.652344 57.222656 "/>
<path style=" stroke:none;fill-rule:nonzero;fill:rgb(39.99939%,39.99939%,39.99939%);fill-opacity:0.3;" d="M 114 55.164062 L 135.382812 56.910156 L 130.714844 110.855469 L 109.558594 109.25 Z M 114 55.164062 "/>
<path style=" stroke:none;fill-rule:nonzero;fill:rgb(39.99939%,39.99939%,39.99939%);fill-opacity:0.3;" d="M 91.828125 53.335938 L 111.507812 54.699219 L 106.074219 108.789062 L 86.65625 106.710938 Z M 91.828125 53.335938 "/>
<path style=" stroke:none;fill-rule:nonzero;fill:rgb(39.99939%,39.99939%,39.99939%);fill-opacity:0.3;" d="M 170.421875 0.558594 L 191.101562 2.394531 L 186.433594 54.292969 L 165.273438 52.691406 Z M 170.421875 0.558594 "/>
<path style=" stroke:none;fill-rule:nonzero;fill:rgb(39.99939%,39.99939%,39.99939%);fill-opacity:0.3;" d="M 145.746094 -1.027344 L 166.933594 0.804688 L 161.789062 52.464844 L 140.621094 50.160156 Z M 145.746094 -1.027344 "/>
<path style=" stroke:none;fill-rule:nonzero;fill:rgb(39.99939%,39.99939%,39.99939%);fill-opacity:0.3;" d="M 120.558594 -3.082031 L 141.503906 -1.957031 L 136.636719 49.933594 L 115.214844 47.628906 Z M 120.558594 -3.082031 "/>
<path style=" stroke:none;fill-rule:nonzero;fill:rgb(39.99939%,39.99939%,39.99939%);fill-opacity:0.3;" d="M 97.480469 -4.929688 L 117.316406 -3.542969 L 112.226562 47.636719 L 92.542969 45.804688 Z M 97.480469 -4.929688 "/>
<path style=" stroke:none;fill-rule:nonzero;fill:rgb(39.99939%,39.99939%,39.99939%);fill-opacity:0.3;" d="M 244.644531 6.980469 L 265.804688 9.050781 L 260.230469 61.734375 L 239.324219 59.421875 Z M 244.644531 6.980469 "/>
<path style=" stroke:none;fill-rule:nonzero;fill:rgb(39.99939%,39.99939%,39.99939%);fill-opacity:0.3;" d="M 219.246094 4.683594 L 241.15625 6.753906 L 235.59375 59.195312 L 214.4375 57.355469 Z M 219.246094 4.683594 "/>
<path style=" stroke:none;fill-rule:nonzero;fill:rgb(39.99939%,39.99939%,39.99939%);fill-opacity:0.3;" d="M 195.335938 2.855469 L 215.507812 4.457031 L 210.207031 56.660156 L 189.796875 55.292969 Z M 195.335938 2.855469 "/>
<path style=" stroke:none;fill-rule:nonzero;fill:rgb(39.99939%,39.99939%,39.99939%);fill-opacity:0.3;" d="M 262.980469 68.792969 L 285.871094 70.863281 L 280.738281 124.679688 L 257.851562 122.605469 Z M 262.980469 68.792969 "/>
<path style=" stroke:none;fill-rule:nonzero;fill:rgb(39.99939%,39.99939%,39.99939%);fill-opacity:0.3;" d="M 238.597656 66.253906 L 259.746094 68.5625 L 254.867188 122.375 L 233.972656 120.769531 Z M 238.597656 66.253906 "/>
<path style=" stroke:none;fill-rule:nonzero;fill:rgb(39.99939%,39.99939%,39.99939%);fill-opacity:0.3;" d="M 213.464844 64.1875 L 234.863281 66.027344 L 229.742188 120.070312 L 208.101562 118.464844 Z M 213.464844 64.1875 "/>
<path style=" stroke:none;fill-rule:nonzero;fill:rgb(39.99939%,39.99939%,39.99939%);fill-opacity:0.3;" d="M 189.320312 61.886719 L 209.976562 63.722656 L 204.617188 117.53125 L 184.214844 115.921875 Z M 189.320312 61.886719 "/>
<path style=" stroke:none;fill-rule:nonzero;fill:rgb(39.99939%,39.99939%,39.99939%);fill-opacity:0.3;" d="M 256.875 130.617188 L 280.253906 133.398438 L 277.066406 158.382812 L 254.1875 156.777344 Z M 256.875 130.617188 "/>
<path style=" stroke:none;fill-rule:nonzero;fill:rgb(39.99939%,39.99939%,39.99939%);fill-opacity:0.3;" d="M 232.496094 128.3125 L 253.890625 130.625 L 250.953125 156.078125 L 230.308594 154.46875 Z M 232.496094 128.3125 "/>
<path style=" stroke:none;fill-rule:nonzero;fill:rgb(39.99939%,39.99939%,39.99939%);fill-opacity:0.3;" d="M 207.371094 126.710938 L 228.515625 128.082031 L 226.328125 154.003906 L 205.183594 151.691406 Z M 207.371094 126.710938 "/>
<path style=" stroke:none;fill-rule:nonzero;fill:rgb(39.99939%,39.99939%,39.99939%);fill-opacity:0.3;" d="M 183.238281 123.933594 L 203.640625 126.011719 L 201.453125 151.695312 L 180.808594 149.617188 Z M 183.238281 123.933594 "/>
<path style=" stroke:none;fill-rule:nonzero;fill:rgb(39.99939%,39.99939%,39.99939%);fill-opacity:0.3;" d="M 254.265625 163.992188 L 276.375 165.898438 L 271.0625 218.046875 L 248.960938 215.894531 Z M 254.265625 163.992188 "/>
<path style=" stroke:none;fill-rule:nonzero;fill:rgb(39.99939%,39.99939%,39.99939%);fill-opacity:0.3;" d="M 229.332031 161.363281 L 250.152344 163.515625 L 245.105469 215.414062 L 224.542969 213.746094 Z M 229.332031 161.363281 "/>
<path style=" stroke:none;fill-rule:nonzero;fill:rgb(39.99939%,39.99939%,39.99939%);fill-opacity:0.3;" d="M 204.394531 159.21875 L 225.476562 161.613281 L 220.429688 213.023438 L 199.09375 211.113281 Z M 204.394531 159.21875 "/>
<path style=" stroke:none;fill-rule:nonzero;fill:rgb(39.99939%,39.99939%,39.99939%);fill-opacity:0.3;" d="M 180.226562 157.316406 L 200.28125 158.984375 L 195.496094 210.875 L 174.671875 208.964844 Z M 180.226562 157.316406 "/>
<path style=" stroke:none;fill-rule:nonzero;fill:rgb(39.99939%,39.99939%,39.99939%);fill-opacity:0.3;" d="M 269.039062 8.808594 L 291.441406 11.117188 L 286.601562 63.5625 L 263.960938 61.726562 Z M 269.039062 8.808594 "/>
<path style=" stroke:none;fill-rule:nonzero;fill:rgb(39.99939%,39.99939%,39.99939%);fill-opacity:0.3;" d="M 332.640625 -17.769531 L 334.335938 -17.015625 L 336.417969 -15.582031 L 338.164062 -13.617188 L 339.109375 -12.128906 L 340.40625 -8.972656 L 329.402344 71.765625 L 320.609375 136.292969 L 315.960938 170.394531 L 308.570312 224.632812 L 274.582031 220.140625 L 280.929688 162.519531 L 282.273438 150.324219 L 284.054688 133.355469 L 290.640625 70.53125 L 299.890625 -17.742188 L 300.570312 -18.816406 L 301.699219 -19.839844 L 303.496094 -20.496094 L 306.050781 -20.539062 Z M 332.640625 -17.769531 "/>
<g clip-path="url(#clip11)" clip-rule="nonzero">
<path style=" stroke:none;fill-rule:nonzero;fill:rgb(39.99939%,39.99939%,39.99939%);fill-opacity:0.3;" d="M 363.128906 176.179688 L 386.804688 178.382812 L 381.984375 229.964844 L 358.222656 227.707031 Z M 363.128906 176.179688 "/>
</g>
<path style=" stroke:none;fill-rule:nonzero;fill:rgb(39.99939%,39.99939%,39.99939%);fill-opacity:0.3;" d="M 64.179688 50.101562 L 87.839844 52.640625 L 82.816406 106.464844 L 58.523438 104.332031 Z M 64.179688 50.101562 "/>
<path style=" stroke:none;fill-rule:nonzero;fill:rgb(39.99939%,39.99939%,39.99939%);fill-opacity:0.3;" d="M 11.253906 83.804688 L 54.460938 87.210938 L 52.933594 103.707031 L 7.59375 99.578125 Z M 11.253906 83.804688 "/>
<path style=" stroke:none;fill-rule:nonzero;fill:rgb(39.99939%,39.99939%,39.99939%);fill-opacity:0.3;" d="M 18.003906 46.382812 L 59.175781 50.265625 L 54.855469 84.871094 L 12.238281 81.683594 Z M 18.003906 46.382812 "/>
<path style=" stroke:none;fill-rule:nonzero;fill:rgb(39.99939%,39.99939%,39.99939%);fill-opacity:0.3;" d="M -6.238281 43.875 L 13.507812 45.925781 L 2.855469 99.121094 L -16.59375 96.820312 Z M -6.238281 43.875 "/>
<path style=" stroke:none;fill-rule:nonzero;fill:rgb(39.99939%,39.99939%,39.99939%);fill-opacity:0.3;" d="M 60.683594 112.164062 L 81.890625 114.449219 L 78.339844 144.042969 L 71.734375 199.519531 L 51.921875 198.21875 Z M 60.683594 112.164062 "/>
<path style=" stroke:none;fill-rule:nonzero;fill:rgb(39.99939%,39.99939%,39.99939%);fill-opacity:0.3;" d="M 38.519531 110.566406 L 55.203125 111.941406 L 49.203125 176.015625 L 31.457031 175.078125 Z M 38.519531 110.566406 "/>
<path style=" stroke:none;fill-rule:nonzero;fill:rgb(39.99939%,39.99939%,39.99939%);fill-opacity:0.3;" d="M 15.351562 108.503906 L 35.78125 110.339844 L 28.367188 174.109375 L 7.273438 172.449219 Z M 15.351562 108.503906 "/>
<path style=" stroke:none;fill-rule:nonzero;fill:rgb(39.99939%,39.99939%,39.99939%);fill-opacity:0.3;" d="M -6.09375 106.539062 L 11.617188 108.511719 L 3.671875 171.726562 L -15.367188 170.550781 Z M -6.09375 106.539062 "/>
<path style=" stroke:none;fill-rule:nonzero;fill:rgb(39.99939%,39.99939%,39.99939%);fill-opacity:0.3;" d="M -15.867188 175.417969 L 48.1875 181.375 L 46.945312 197.445312 L -18.648438 191.734375 Z M -15.867188 175.417969 "/>
<path style=" stroke:none;fill-rule:nonzero;fill:rgb(39.99939%,39.99939%,39.99939%);fill-opacity:0.3;" d="M 71.992188 -7.207031 L 93.984375 -5.15625 L 89.054688 45.578125 L 66.867188 43.515625 Z M 71.992188 -7.207031 "/>
<path style=" stroke:none;fill-rule:nonzero;fill:rgb(39.99939%,39.99939%,39.99939%);fill-opacity:0.3;" d="M 29.800781 -43.824219 L 49.285156 -42.125 L 41.234375 24.464844 L 21.738281 22.644531 Z M 29.800781 -43.824219 "/>
<path style=" stroke:none;fill-rule:nonzero;fill:rgb(39.99939%,39.99939%,39.99939%);fill-opacity:0.3;" d="M 9.214844 -46.105469 L 27.050781 -44.171875 L 18.5 22.316406 L -2.808594 20.152344 Z M 9.214844 -46.105469 "/>
<path style=" stroke:none;fill-rule:nonzero;fill:rgb(39.99939%,39.99939%,39.99939%);fill-opacity:0.3;" d="M -12.429688 -110.96875 L 16.804688 -108.464844 L -11.128906 36.160156 L -41.289062 33.421875 Z M -12.429688 -110.96875 "/>
<path style=" stroke:none;fill-rule:nonzero;fill:rgb(39.99939%,39.99939%,39.99939%);fill-opacity:0.3;" d="M -3.019531 23.207031 L 19.011719 25.003906 L 17.632812 38.882812 L -5.617188 36.847656 Z M -3.019531 23.207031 "/>
<path style=" stroke:none;fill-rule:nonzero;fill:rgb(39.99939%,39.99939%,39.99939%);fill-opacity:0.3;" d="M 21.765625 25.464844 L 40.757812 27.050781 L 39.609375 40.933594 L 20.382812 39.109375 Z M 21.765625 25.464844 "/>
<path style=" stroke:none;fill-rule:nonzero;fill:rgb(39.99939%,39.99939%,39.99939%);fill-opacity:0.3;" d="M 52.703125 -41.941406 L 70.070312 -40.433594 L 62.0625 42.753906 L 42.355469 41.394531 Z M 52.703125 -41.941406 "/>
<path style=" stroke:none;fill-rule:nonzero;fill:rgb(39.99939%,39.99939%,39.99939%);fill-opacity:0.3;" d="M 346.785156 351.027344 L 334.980469 347.636719 L 339.816406 331.445312 L 351.660156 334.734375 Z M 346.785156 351.027344 "/>
<g clip-path="url(#clip12)" clip-rule="nonzero">
<path style=" stroke:none;fill-rule:nonzero;fill:rgb(39.99939%,39.99939%,39.99939%);fill-opacity:0.3;" d="M 348.695312 355.625 L 352.539062 356.199219 L 351.417969 362.304688 L 354.609375 362.8125 L 355.738281 356.679688 L 359.242188 357.207031 L 357.035156 370.992188 L 346.460938 369.457031 Z M 348.695312 355.625 "/>
</g>
<g clip-path="url(#clip13)" clip-rule="nonzero">
<path style=" stroke:none;fill-rule:nonzero;fill:rgb(39.99939%,39.99939%,39.99939%);fill-opacity:0.3;" d="M 341.152344 369.207031 L 328.410156 367.21875 L 330.351562 356.035156 L 343.03125 357.996094 L 342.519531 361.050781 L 338 360.328125 L 337.167969 364.867188 L 341.753906 365.601562 Z M 341.152344 369.207031 "/>
</g>
<g clip-path="url(#clip14)" clip-rule="nonzero">
<path style=" stroke:none;fill-rule:nonzero;fill:rgb(39.99939%,39.99939%,39.99939%);fill-opacity:0.3;" d="M 358.21875 236.171875 L 381.164062 238.339844 L 375.011719 290.394531 L 352.558594 288.898438 Z M 358.21875 236.171875 "/>
</g>
<g clip-path="url(#clip15)" clip-rule="nonzero">
<path style=" stroke:none;fill-rule:nonzero;fill:rgb(39.99939%,39.99939%,39.99939%);fill-opacity:0.3;" d="M 330.769531 351.207031 L 348.929688 296.464844 L 398.871094 300.644531 L 391.644531 369.492188 L 390.210938 384.71875 L 379.761719 383.824219 L 379.46875 386.585938 L 379.160156 389.472656 L 389.609375 390.367188 L 381.675781 466.085938 L 312.777344 450.59375 L 317.503906 426.226562 L 327.710938 369.613281 Z M 330.769531 351.207031 "/>
</g>
<path style=" stroke:none;fill-rule:nonzero;fill:rgb(39.99939%,39.99939%,39.99939%);fill-opacity:0.3;" d="M 88.652344 234.363281 L 92.976562 235.523438 L 92.394531 235.390625 L 88.605469 234.632812 Z M 88.652344 234.363281 "/>
<path style=" stroke:none;fill-rule:nonzero;fill:rgb(39.99939%,39.99939%,39.99939%);fill-opacity:0.3;" d="M 54.75 206.386719 L 71.550781 208.996094 L 69.457031 226.054688 L 52.664062 221.726562 Z M 54.75 206.386719 "/>
<path style=" stroke:none;fill-rule:nonzero;fill:rgb(39.99939%,39.99939%,39.99939%);fill-opacity:0.3;" d="M 51.503906 224.410156 L 58.621094 226.320312 L 51.429688 224.832031 Z M 51.503906 224.410156 "/>
<path style=" stroke:none;fill-rule:nonzero;fill:rgb(39.99939%,39.99939%,39.99939%);fill-opacity:0.3;" d="M 77.726562 231.4375 L 84.660156 233.296875 L 84.589844 233.726562 Z M 77.726562 231.4375 "/>
<path style=" stroke:none;fill-rule:nonzero;fill:rgb(39.99939%,39.99939%,39.99939%);fill-opacity:0.3;" d="M 147.167969 215.003906 L 168.953125 217.242188 L 166.289062 250.925781 L 144.886719 245.1875 Z M 147.167969 215.003906 "/>
<path style=" stroke:none;fill-rule:nonzero;fill:rgb(39.99939%,39.99939%,39.99939%);fill-opacity:0.3;" d="M 123.835938 212.605469 L 144.714844 214.75 L 142.46875 244.539062 L 121.863281 238.734375 Z M 123.835938 212.605469 "/>
<path style=" stroke:none;fill-rule:nonzero;fill:rgb(39.99939%,39.99939%,39.99939%);fill-opacity:0.3;" d="M 99.277344 210.707031 L 121.410156 212.355469 L 119.449219 238.367188 L 96.765625 233.324219 Z M 99.277344 210.707031 "/>
<path style=" stroke:none;fill-rule:nonzero;fill:rgb(39.99939%,39.99939%,39.99939%);fill-opacity:0.3;" d="M 75.761719 209.386719 L 96.449219 211.347656 L 94.199219 232.703125 L 73.699219 227.738281 Z M 75.761719 209.386719 "/>
<path style=" stroke:none;fill-rule:nonzero;fill:rgb(39.99939%,39.99939%,39.99939%);fill-opacity:0.3;" d="M 247.21875 225.296875 L 269.535156 227.59375 L 265.300781 274.464844 L 242.0625 268.351562 Z M 247.21875 225.296875 "/>
<path style=" stroke:none;fill-rule:nonzero;fill:rgb(39.99939%,39.99939%,39.99939%);fill-opacity:0.3;" d="M 196.425781 220.070312 L 220.359375 222.53125 L 218.238281 243.382812 L 219.53125 243.460938 L 220.828125 243.539062 L 222.9375 222.796875 L 244.722656 225.039062 L 239.269531 270.605469 L 265.039062 277.382812 L 264.121094 287.558594 L 242.066406 284.578125 L 220.203125 281.363281 L 190.316406 270.925781 Z M 196.425781 220.070312 "/>
<path style=" stroke:none;fill-rule:nonzero;fill:rgb(39.99939%,39.99939%,39.99939%);fill-opacity:0.3;" d="M 171.535156 217.507812 L 193.125 219.738281 L 189.222656 257.074219 L 168.957031 251.640625 Z M 171.535156 217.507812 "/>
<path style=" stroke:none;fill-rule:nonzero;fill:rgb(39.99939%,39.99939%,39.99939%);fill-opacity:0.3;" d="M 308.570312 224.632812 L 297.132812 308.570312 L 268.0625 288.089844 L 267.109375 287.960938 L 274.582031 220.140625 Z M 308.570312 224.632812 "/>
<path style="fill-rule:nonzero;fill:rgb(39.99939%,39.99939%,39.99939%);fill-opacity:1;stroke-width:0.03;stroke-linecap:square;stroke-linejoin:miter;stroke:rgb(39.99939%,39.99939%,39.99939%);stroke-opacity:1;stroke-miterlimit:3.239307;" d="M 162.652344 247.363281 L 166.976562 248.523438 L 166.394531 248.390625 L 162.605469 247.632812 Z M 162.652344 247.363281 " transform="matrix(1,0,0,1,-74,-13)"/>
<path style="fill-rule:nonzero;fill:rgb(39.99939%,39.99939%,39.99939%);fill-opacity:1;stroke-width:0.03;stroke-linecap:square;stroke-linejoin:miter;stroke:rgb(39.99939%,39.99939%,39.99939%);stroke-opacity:1;stroke-miterlimit:3.239307;" d="M 128.75 219.386719 L 145.550781 221.996094 L 143.457031 239.054688 L 126.664062 234.726562 Z M 128.75 219.386719 " transform="matrix(1,0,0,1,-74,-13)"/>
<path style="fill-rule:nonzero;fill:rgb(39.99939%,39.99939%,39.99939%);fill-opacity:1;stroke-width:0.03;stroke-linecap:square;stroke-linejoin:miter;stroke:rgb(39.99939%,39.99939%,39.99939%);stroke-opacity:1;stroke-miterlimit:3.239307;" d="M 125.503906 237.410156 L 132.621094 239.320312 L 125.429688 237.832031 Z M 125.503906 237.410156 " transform="matrix(1,0,0,1,-74,-13)"/>
<path style="fill-rule:nonzero;fill:rgb(39.99939%,39.99939%,39.99939%);fill-opacity:1;stroke-width:0.03;stroke-linecap:square;stroke-linejoin:miter;stroke:rgb(39.99939%,39.99939%,39.99939%);stroke-opacity:1;stroke-miterlimit:3.239307;" d="M 151.726562 244.4375 L 158.660156 246.296875 L 158.589844 246.726562 Z M 151.726562 244.4375 " transform="matrix(1,0,0,1,-74,-13)"/>
<path style="fill-rule:nonzero;fill:rgb(39.99939%,39.99939%,39.99939%);fill-opacity:1;stroke-width:0.03;stroke-linecap:square;stroke-linejoin:miter;stroke:rgb(39.99939%,39.99939%,39.99939%);stroke-opacity:1;stroke-miterlimit:3.239307;" d="M 221.167969 228.003906 L 242.953125 230.242188 L 240.289062 263.925781 L 218.886719 258.1875 Z M 221.167969 228.003906 " transform="matrix(1,0,0,1,-74,-13)"/>
<path style="fill-rule:nonzero;fill:rgb(39.99939%,39.99939%,39.99939%);fill-opacity:1;stroke-width:0.03;stroke-linecap:square;stroke-linejoin:miter;stroke:rgb(39.99939%,39.99939%,39.99939%);stroke-opacity:1;stroke-miterlimit:3.239307;" d="M 197.835938 225.605469 L 218.714844 227.75 L 216.46875 257.539062 L 195.863281 251.734375 Z M 197.835938 225.605469 " transform="matrix(1,0,0,1,-74,-13)"/>
<path style="fill-rule:nonzero;fill:rgb(39.99939%,39.99939%,39.99939%);fill-opacity:1;stroke-width:0.03;stroke-linecap:square;stroke-linejoin:miter;stroke:rgb(39.99939%,39.99939%,39.99939%);stroke-opacity:1;stroke-miterlimit:3.239307;" d="M 173.277344 223.707031 L 195.410156 225.355469 L 193.449219 251.367188 L 170.765625 246.324219 Z M 173.277344 223.707031 " transform="matrix(1,0,0,1,-74,-13)"/>
<path style="fill-rule:nonzero;fill:rgb(39.99939%,39.99939%,39.99939%);fill-opacity:1;stroke-width:0.03;stroke-linecap:square;stroke-linejoin:miter;stroke:rgb(39.99939%,39.99939%,39.99939%);stroke-opacity:1;stroke-miterlimit:3.239307;" d="M 149.761719 222.386719 L 170.449219 224.347656 L 168.199219 245.703125 L 147.699219 240.738281 Z M 149.761719 222.386719 " transform="matrix(1,0,0,1,-74,-13)"/>
<path style="fill-rule:nonzero;fill:rgb(39.99939%,39.99939%,39.99939%);fill-opacity:1;stroke-width:0.03;stroke-linecap:square;stroke-linejoin:miter;stroke:rgb(39.99939%,39.99939%,39.99939%);stroke-opacity:1;stroke-miterlimit:3.239307;" d="M 321.21875 238.296875 L 343.535156 240.59375 L 339.300781 287.464844 L 316.0625 281.351562 Z M 321.21875 238.296875 " transform="matrix(1,0,0,1,-74,-13)"/>
<path style="fill-rule:nonzero;fill:rgb(39.99939%,39.99939%,39.99939%);fill-opacity:1;stroke-width:0.03;stroke-linecap:square;stroke-linejoin:miter;stroke:rgb(39.99939%,39.99939%,39.99939%);stroke-opacity:1;stroke-miterlimit:3.239307;" d="M 270.425781 233.070312 L 294.359375 235.53125 L 292.238281 256.382812 L 293.53125 256.460938 L 294.828125 256.539062 L 296.9375 235.796875 L 318.722656 238.039062 L 313.269531 283.605469 L 339.039062 290.382812 L 338.121094 300.558594 L 316.066406 297.578125 L 294.203125 294.363281 L 264.316406 283.925781 Z M 270.425781 233.070312 " transform="matrix(1,0,0,1,-74,-13)"/>
<path style="fill-rule:nonzero;fill:rgb(39.99939%,39.99939%,39.99939%);fill-opacity:1;stroke-width:0.03;stroke-linecap:square;stroke-linejoin:miter;stroke:rgb(39.99939%,39.99939%,39.99939%);stroke-opacity:1;stroke-miterlimit:3.239307;" d="M 245.535156 230.507812 L 267.125 232.738281 L 263.222656 270.074219 L 242.957031 264.640625 Z M 245.535156 230.507812 " transform="matrix(1,0,0,1,-74,-13)"/>
<path style="fill-rule:nonzero;fill:rgb(39.99939%,39.99939%,39.99939%);fill-opacity:1;stroke-width:0.03;stroke-linecap:square;stroke-linejoin:miter;stroke:rgb(39.99939%,39.99939%,39.99939%);stroke-opacity:1;stroke-miterlimit:3.239307;" d="M 382.570312 237.632812 L 371.132812 321.570312 L 342.0625 301.089844 L 341.109375 300.960938 L 348.582031 233.140625 Z M 382.570312 237.632812 " transform="matrix(1,0,0,1,-74,-13)"/>
</g>
</svg>
