<?xml version="1.0" encoding="UTF-8"?>
<svg xmlns="http://www.w3.org/2000/svg" xmlns:xlink="http://www.w3.org/1999/xlink" width="361pt" height="361pt" viewBox="0 0 361 361" version="1.1">
<defs>
<clipPath id="clip1">
  <path d="M 197 308 L 285 308 L 285 360 L 197 360 Z M 197 308 "/>
</clipPath>
<clipPath id="clip2">
  <path d="M 122 329 L 200 329 L 200 360 L 122 360 Z M 122 329 "/>
</clipPath>
<clipPath id="clip3">
  <path d="M 99 296 L 126 296 L 126 360 L 99 360 Z M 99 296 "/>
</clipPath>
<clipPath id="clip4">
  <path d="M 69 294 L 112 294 L 112 360 L 69 360 Z M 69 294 "/>
</clipPath>
<clipPath id="clip5">
  <path d="M 0 334 L 18 334 L 18 360 L 0 360 Z M 0 334 "/>
</clipPath>
<clipPath id="clip6">
  <path d="M 0 286 L 97 286 L 97 360 L 0 360 Z M 0 286 "/>
</clipPath>
<clipPath id="clip7">
  <path d="M 327 0 L 360 0 L 360 20 L 327 20 Z M 327 0 "/>
</clipPath>
<clipPath id="clip8">
  <path d="M 350 31 L 360 31 L 360 106 L 350 106 Z M 350 31 "/>
</clipPath>
<clipPath id="clip9">
  <path d="M 354 0 L 360 0 L 360 33 L 354 33 Z M 354 0 "/>
</clipPath>
<clipPath id="clip10">
  <path d="M 317 167 L 360 167 L 360 200 L 317 200 Z M 317 167 "/>
</clipPath>
<clipPath id="clip11">
  <path d="M 315 204 L 360 204 L 360 235 L 315 235 Z M 315 204 "/>
</clipPath>
<clipPath id="clip12">
  <path d="M 320 113 L 360 113 L 360 173 L 320 173 Z M 320 113 "/>
</clipPath>
<clipPath id="clip13">
  <path d="M 313 235 L 360 235 L 360 293 L 313 293 Z M 313 235 "/>
</clipPath>
<clipPath id="clip14">
  <path d="M 308 308 L 360 308 L 360 358 L 308 358 Z M 308 308 "/>
</clipPath>
<clipPath id="clip15">
  <path d="M 290 341 L 360 341 L 360 360 L 290 360 Z M 290 341 "/>
</clipPath>
</defs>
<g id="surface966">
<path style="fill-rule:nonzero;fill:rgb(0%,0%,0%);fill-opacity:1;stroke-width:0.03;stroke-linecap:square;stroke-linejoin:miter;stroke:rgb(0%,0%,0%);stroke-opacity:1;stroke-miterlimit:10;" d="M 0 178 L 360 178 L 360 -182 L 0 -182 Z M 0 178 " transform="matrix(1,0,0,1,0,182)"/>
<path style=" stroke:none;fill-rule:nonzero;fill:rgb(39.99939%,39.99939%,39.99939%);fill-opacity:0.3;" d="M 35.5 89.113281 L 81.367188 95.996094 L 76.980469 119.871094 L 61.710938 118.246094 L 45.890625 116.0625 L 31.855469 114.722656 Z M 35.5 89.113281 "/>
<path style=" stroke:none;fill-rule:nonzero;fill:rgb(39.99939%,39.99939%,39.99939%);fill-opacity:0.3;" d="M 25.128906 119.945312 L 26.542969 118.089844 L 28.84375 116.40625 L 76.292969 122.789062 L 71.941406 147.039062 L 21.542969 139.507812 L 23.371094 124.492188 Z M 25.128906 119.945312 "/>
<path style=" stroke:none;fill-rule:nonzero;fill:rgb(39.99939%,39.99939%,39.99939%);fill-opacity:0.3;" d="M 20.113281 142.695312 L 71.527344 150.304688 L 66.941406 174.417969 L 16.042969 167.789062 Z M 20.113281 142.695312 "/>
<path style=" stroke:none;fill-rule:nonzero;fill:rgb(39.99939%,39.99939%,39.99939%);fill-opacity:0.3;" d="M 14.757812 199.457031 L 61.28125 205.96875 L 57.320312 228.410156 L 44.351562 226.351562 L 43.757812 229.90625 L 56.164062 232.136719 L 51.378906 259.84375 L 33.195312 258.554688 L 32.761719 241.421875 L 31.898438 241.648438 L 31.03125 241.871094 L 30.996094 258.410156 L 14.835938 256.929688 L 17.09375 218.957031 L 12.527344 219.121094 Z M 14.757812 199.457031 "/>
<path style=" stroke:none;fill-rule:nonzero;fill:rgb(39.99939%,39.99939%,39.99939%);fill-opacity:0.3;" d="M 14.480469 260.605469 L 50.777344 263.027344 L 45.738281 281.835938 L 10.847656 276.988281 L 11.167969 271.480469 L 13.367188 271.027344 Z M 14.480469 260.605469 "/>
<path style=" stroke:none;fill-rule:nonzero;fill:rgb(39.99939%,39.99939%,39.99939%);fill-opacity:0.3;" d="M -47.308594 273.191406 L 37.0625 285.234375 L 18.714844 292.652344 L -5.238281 303.832031 L -16.289062 310.582031 L -40.035156 326.070312 L -55.816406 324.132812 Z M -47.308594 273.191406 "/>
<path style=" stroke:none;fill-rule:nonzero;fill:rgb(39.99939%,39.99939%,39.99939%);fill-opacity:0.3;" d="M -40.707031 231.519531 L 12.921875 239.078125 L 11.484375 253.757812 L 10.683594 259.371094 L 8.019531 276.546875 L -46.664062 268.898438 Z M -40.707031 231.519531 "/>
<path style=" stroke:none;fill-rule:nonzero;fill:rgb(39.99939%,39.99939%,39.99939%);fill-opacity:0.3;" d="M -33.1875 192.628906 L 8.972656 198.5625 L 6.6875 233.164062 L -39.132812 226.898438 Z M -33.1875 192.628906 "/>
<path style=" stroke:none;fill-rule:nonzero;fill:rgb(39.99939%,39.99939%,39.99939%);fill-opacity:0.3;" d="M -27.332031 153.179688 L 11.015625 159.429688 L 9.707031 169.425781 L 12.328125 169.585938 L 10.738281 183.5 L 11.636719 183.613281 L 12.53125 183.730469 L 14.222656 169.839844 L 66.328125 177.484375 L 62.195312 201.183594 L 11.5 193.90625 L -32.667969 187.566406 Z M -27.332031 153.179688 "/>
<path style=" stroke:none;fill-rule:nonzero;fill:rgb(39.99939%,39.99939%,39.99939%);fill-opacity:0.3;" d="M -22.042969 113.617188 L 21.820312 120.5625 L 14.488281 156.117188 L -27 149.308594 Z M -22.042969 113.617188 "/>
<path style=" stroke:none;fill-rule:nonzero;fill:rgb(39.99939%,39.99939%,39.99939%);fill-opacity:0.3;" d="M -14.539062 72.804688 L 29.683594 71.4375 L 28.136719 86.9375 L 32.9375 87.609375 L 30.921875 101.414062 L 27.371094 101.75 L 25.472656 116.914062 L -19 109.863281 Z M -14.539062 72.804688 "/>
<path style=" stroke:none;fill-rule:nonzero;fill:rgb(39.99939%,39.99939%,39.99939%);fill-opacity:0.3;" d="M 34.207031 72.324219 L 59.96875 73.09375 L 84.992188 75.421875 L 81.179688 92.964844 L 34.246094 86.417969 Z M 34.207031 72.324219 "/>
<path style=" stroke:none;fill-rule:nonzero;fill:rgb(39.99939%,39.99939%,39.99939%);fill-opacity:0.3;" d="M 86.292969 97.5625 L 86.480469 97.589844 L 85.664062 101.070312 Z M 86.292969 97.5625 "/>
<path style=" stroke:none;fill-rule:nonzero;fill:rgb(39.99939%,39.99939%,39.99939%);fill-opacity:0.3;" d="M 90.125 75.753906 L 90.359375 75.773438 L 87.328125 93.960938 L 87.328125 93.96875 L 86.632812 93.871094 Z M 90.125 75.753906 "/>
<path style=" stroke:none;fill-rule:nonzero;fill:rgb(39.99939%,39.99939%,39.99939%);fill-opacity:0.3;" d="M 35.269531 56.316406 L 35.296875 57.011719 L -8.964844 57.21875 L -8.722656 55.761719 Z M 35.269531 56.316406 "/>
<path style=" stroke:none;fill-rule:nonzero;fill:rgb(39.99939%,39.99939%,39.99939%);fill-opacity:0.3;" d="M 223.132812 308.097656 L 221.9375 308.023438 L 221.484375 307.933594 Z M 223.132812 308.097656 "/>
<g clip-path="url(#clip1)" clip-rule="nonzero">
<path style=" stroke:none;fill-rule:nonzero;fill:rgb(39.99939%,39.99939%,39.99939%);fill-opacity:0.3;" d="M 210.628906 310.960938 L 216.144531 311.785156 L 225.914062 312.414062 L 233.367188 312.148438 L 239.074219 311.503906 L 244.199219 310.496094 L 250.292969 308.382812 L 262.089844 342.292969 L 245.480469 341.398438 L 245.726562 343.984375 L 245.972656 346.566406 L 264.234375 347.238281 L 284.78125 402.980469 L 197.40625 394.722656 L 206.640625 339.21875 L 221.636719 341.410156 L 221.867188 339.679688 L 222.101562 337.949219 L 206.707031 335.691406 Z M 210.628906 310.960938 "/>
</g>
<g clip-path="url(#clip2)" clip-rule="nonzero">
<path style=" stroke:none;fill-rule:nonzero;fill:rgb(39.99939%,39.99939%,39.99939%);fill-opacity:0.3;" d="M 127.332031 329.097656 L 199.984375 338.488281 L 195.636719 364.292969 L 167.621094 360.210938 L 166.847656 363.132812 L 194.601562 366.972656 L 188.585938 393.972656 L 122.011719 385.710938 Z M 127.332031 329.097656 "/>
</g>
<path style=" stroke:none;fill-rule:nonzero;fill:rgb(39.99939%,39.99939%,39.99939%);fill-opacity:0.3;" d="M 130.675781 298.871094 L 204.695312 311.660156 L 200.675781 334.789062 L 128.335938 325.707031 Z M 130.675781 298.871094 "/>
<g clip-path="url(#clip3)" clip-rule="nonzero">
<path style=" stroke:none;fill-rule:nonzero;fill:rgb(39.99939%,39.99939%,39.99939%);fill-opacity:0.3;" d="M 114.28125 296.507812 L 125.589844 298.042969 L 113.398438 388.523438 L 99.011719 387.816406 Z M 114.28125 296.507812 "/>
</g>
<g clip-path="url(#clip4)" clip-rule="nonzero">
<path style=" stroke:none;fill-rule:nonzero;fill:rgb(39.99939%,39.99939%,39.99939%);fill-opacity:0.3;" d="M 100.046875 294.496094 L 111.992188 296.03125 L 96.445312 387.574219 L 69.210938 382.992188 Z M 100.046875 294.496094 "/>
</g>
<g clip-path="url(#clip5)" clip-rule="nonzero">
<path style=" stroke:none;fill-rule:nonzero;fill:rgb(39.99939%,39.99939%,39.99939%);fill-opacity:0.3;" d="M -7.28125 334.414062 L 17.953125 338.089844 L 13.941406 376.054688 L -13.144531 373.160156 Z M -7.28125 334.414062 "/>
</g>
<g clip-path="url(#clip6)" clip-rule="nonzero">
<path style=" stroke:none;fill-rule:nonzero;fill:rgb(39.99939%,39.99939%,39.99939%);fill-opacity:0.3;" d="M -3.101562 306.992188 L 12.664062 300.675781 L 13.042969 316.1875 L 14.4375 316.066406 L 15.835938 315.945312 L 15.078125 298.746094 L 46.589844 286.78125 L 96.109375 293.902344 L 71.007812 368.640625 L 70.234375 363.777344 L 69.976562 359.15625 L 72.804688 346.5 L 73.835938 334.816406 L 68.953125 332.636719 L 69.214844 326.304688 L 67.160156 325.578125 L 65.101562 324.851562 L 65.867188 336.289062 L 70.492188 337.257812 L 67.410156 361.105469 L 68.695312 375.941406 L 65.09375 383.078125 L 16.074219 377.582031 L 18.625 353.894531 L 41.277344 356.660156 L 42.066406 354.980469 L 19.027344 351.746094 L 20.738281 338.527344 L 45.507812 341.421875 L 45.507812 337.90625 L -5.578125 330.894531 Z M -3.101562 306.992188 "/>
</g>
<path style=" stroke:none;fill-rule:nonzero;fill:rgb(39.99939%,39.99939%,39.99939%);fill-opacity:0.3;" d="M 98.777344 32.507812 L 146.09375 39.617188 L 151.957031 52.652344 L 149.046875 57.503906 L 145.640625 61.667969 L 145.53125 61.738281 L 143.1875 62.207031 L 130.785156 62.207031 L 94.835938 57.195312 Z M 98.777344 32.507812 "/>
<path style=" stroke:none;fill-rule:nonzero;fill:rgb(39.99939%,39.99939%,39.99939%);fill-opacity:0.3;" d="M 99.046875 29.726562 L 103.804688 2.175781 L 125.40625 -15.886719 L 144.691406 35.460938 Z M 99.046875 29.726562 "/>
<path style=" stroke:none;fill-rule:nonzero;fill:rgb(39.99939%,39.99939%,39.99939%);fill-opacity:0.3;" d="M 1.65625 -9.007812 L 96.679688 5.199219 L 93.183594 28.914062 L -2.226562 14.457031 Z M 1.65625 -9.007812 "/>
<path style=" stroke:none;fill-rule:nonzero;fill:rgb(39.99939%,39.99939%,39.99939%);fill-opacity:0.3;" d="M -2.625 17.261719 L 93.03125 31.644531 L 89.242188 56.347656 L -6.683594 42.234375 Z M -2.625 17.261719 "/>
<path style=" stroke:none;fill-rule:nonzero;fill:rgb(39.99939%,39.99939%,39.99939%);fill-opacity:0.3;" d="M -7.125 46.148438 L 35.128906 52.535156 L 35.269531 56.316406 L -8.722656 55.761719 Z M -7.125 46.148438 "/>
<path style=" stroke:none;fill-rule:nonzero;fill:rgb(39.99939%,39.99939%,39.99939%);fill-opacity:0.3;" d="M 183.449219 47.789062 L 182.78125 51.429688 L 180.855469 51.621094 L 177.820312 43.183594 L 181.40625 45.746094 Z M 183.449219 47.789062 "/>
<path style=" stroke:none;fill-rule:nonzero;fill:rgb(39.99939%,39.99939%,39.99939%);fill-opacity:0.3;" d="M 145.53125 61.738281 L 142.394531 63.828125 L 130.785156 62.207031 L 143.1875 62.207031 Z M 145.53125 61.738281 "/>
<path style=" stroke:none;fill-rule:nonzero;fill:rgb(39.99939%,39.99939%,39.99939%);fill-opacity:0.3;" d="M 222.632812 238.902344 L 229.546875 253.476562 L 220.652344 251.945312 Z M 222.632812 238.902344 "/>
<path style=" stroke:none;fill-rule:nonzero;fill:rgb(39.99939%,39.99939%,39.99939%);fill-opacity:0.3;" d="M 220.359375 255.566406 L 229.75 257.054688 L 239.007812 283.007812 L 216.546875 279.621094 Z M 220.359375 255.566406 "/>
<path style=" stroke:none;fill-rule:nonzero;fill:rgb(39.99939%,39.99939%,39.99939%);fill-opacity:0.3;" d="M 215.871094 283.535156 L 238.9375 286.410156 L 248.640625 305.449219 L 239.257812 308.109375 L 230.550781 308.570312 L 223.132812 308.097656 L 221.484375 307.933594 L 212.550781 306.191406 Z M 215.871094 283.535156 "/>
<path style=" stroke:none;fill-rule:nonzero;fill:rgb(39.99939%,39.99939%,39.99939%);fill-opacity:0.3;" d="M 137.265625 272.0625 L 210.550781 282.804688 L 206.9375 305.273438 L 132.84375 294.132812 Z M 137.265625 272.0625 "/>
<path style=" stroke:none;fill-rule:nonzero;fill:rgb(39.99939%,39.99939%,39.99939%);fill-opacity:0.3;" d="M 142.320312 244.554688 L 214.742188 254.742188 L 211.125 278.890625 L 138.109375 267.773438 Z M 142.320312 244.554688 "/>
<path style=" stroke:none;fill-rule:nonzero;fill:rgb(39.99939%,39.99939%,39.99939%);fill-opacity:0.3;" d="M 146.835938 218.496094 L 218.578125 228.554688 L 215.21875 251.347656 L 142.203125 240.425781 Z M 146.835938 218.496094 "/>
<path style=" stroke:none;fill-rule:nonzero;fill:rgb(39.99939%,39.99939%,39.99939%);fill-opacity:0.3;" d="M 152.597656 190.359375 L 208.148438 198.816406 L 218.527344 224.027344 L 147.355469 213.65625 Z M 152.597656 190.359375 "/>
<path style=" stroke:none;fill-rule:nonzero;fill:rgb(39.99939%,39.99939%,39.99939%);fill-opacity:0.3;" d="M 157.460938 163.605469 L 197.507812 170.902344 L 207.21875 196.039062 L 153.050781 187 Z M 157.460938 163.605469 "/>
<path style=" stroke:none;fill-rule:nonzero;fill:rgb(39.99939%,39.99939%,39.99939%);fill-opacity:0.3;" d="M 162.484375 136.59375 L 185.355469 139.460938 L 196.054688 166.125 L 158.496094 158.453125 Z M 162.484375 136.59375 "/>
<path style=" stroke:none;fill-rule:nonzero;fill:rgb(39.99939%,39.99939%,39.99939%);fill-opacity:0.3;" d="M 166.914062 111.078125 L 174.296875 111.417969 L 183.332031 134.101562 L 163.167969 131.613281 Z M 166.914062 111.078125 "/>
<path style=" stroke:none;fill-rule:nonzero;fill:rgb(39.99939%,39.99939%,39.99939%);fill-opacity:0.3;" d="M 56.164062 260.042969 L 132.335938 271.316406 L 127.652344 293.722656 L 51.429688 282.800781 Z M 56.164062 260.042969 "/>
<path style=" stroke:none;fill-rule:nonzero;fill:rgb(39.99939%,39.99939%,39.99939%);fill-opacity:0.3;" d="M 61.800781 232.144531 L 137.085938 243.492188 L 132.691406 267.417969 L 57.109375 256.484375 Z M 61.800781 232.144531 "/>
<path style=" stroke:none;fill-rule:nonzero;fill:rgb(39.99939%,39.99939%,39.99939%);fill-opacity:0.3;" d="M 66.339844 207.164062 L 142.050781 218.140625 L 137.820312 240.300781 L 61.96875 228.957031 Z M 66.339844 207.164062 "/>
<path style=" stroke:none;fill-rule:nonzero;fill:rgb(39.99939%,39.99939%,39.99939%);fill-opacity:0.3;" d="M 71.253906 178.847656 L 147.042969 190.363281 L 142.675781 212.414062 L 66.863281 201.714844 Z M 71.253906 178.847656 "/>
<path style=" stroke:none;fill-rule:nonzero;fill:rgb(39.99939%,39.99939%,39.99939%);fill-opacity:0.3;" d="M 76.390625 151.015625 L 151.90625 163.167969 L 147.804688 187 L 72.175781 174.949219 Z M 76.390625 151.015625 "/>
<path style=" stroke:none;fill-rule:nonzero;fill:rgb(39.99939%,39.99939%,39.99939%);fill-opacity:0.3;" d="M 81.589844 123.054688 L 156.851562 135.753906 L 152.941406 158.136719 L 76.894531 147.875 Z M 81.589844 123.054688 "/>
<path style=" stroke:none;fill-rule:nonzero;fill:rgb(39.99939%,39.99939%,39.99939%);fill-opacity:0.3;" d="M 86.480469 97.589844 L 161.835938 108.628906 L 157.65625 130.394531 L 82.253906 120.160156 L 85.664062 101.070312 Z M 86.480469 97.589844 "/>
<path style=" stroke:none;fill-rule:nonzero;fill:rgb(39.99939%,39.99939%,39.99939%);fill-opacity:0.3;" d="M 90.359375 75.773438 L 157.894531 81.347656 L 162.785156 83.898438 L 164.984375 88.523438 L 162.328125 104.640625 L 87.328125 93.96875 L 87.328125 93.960938 Z M 90.359375 75.773438 "/>
<path style=" stroke:none;fill-rule:nonzero;fill:rgb(39.99939%,39.99939%,39.99939%);fill-opacity:0.3;" d="M 244.535156 229.75 L 243.914062 229.722656 L 242.238281 223.75 L 244.320312 229.195312 Z M 244.535156 229.75 "/>
<path style=" stroke:none;fill-rule:nonzero;fill:rgb(39.99939%,39.99939%,39.99939%);fill-opacity:0.3;" d="M 182.78125 51.429688 L 182.105469 55.09375 L 180.855469 51.621094 Z M 182.78125 51.429688 "/>
<path style=" stroke:none;fill-rule:nonzero;fill:rgb(39.99939%,39.99939%,39.99939%);fill-opacity:0.3;" d="M 208.980469 136.730469 L 208.945312 136.722656 L 208.527344 135.558594 Z M 208.980469 136.730469 "/>
<path style=" stroke:none;fill-rule:nonzero;fill:rgb(39.99939%,39.99939%,39.99939%);fill-opacity:0.3;" d="M 194.925781 64.4375 L 187.515625 62.769531 L 189.03125 54.300781 L 192.578125 59.269531 Z M 194.925781 64.4375 "/>
<path style=" stroke:none;fill-rule:nonzero;fill:rgb(39.99939%,39.99939%,39.99939%);fill-opacity:0.3;" d="M 286.847656 -65.074219 L 274.425781 2.949219 L 254.265625 -1.882812 L 266.652344 -69.789062 Z M 286.847656 -65.074219 "/>
<path style=" stroke:none;fill-rule:nonzero;fill:rgb(39.99939%,39.99939%,39.99939%);fill-opacity:0.3;" d="M 312.105469 -59.171875 L 299.707031 9.007812 L 278.996094 4.042969 L 291.355469 -64.019531 Z M 312.105469 -59.171875 "/>
<path style=" stroke:none;fill-rule:nonzero;fill:rgb(39.99939%,39.99939%,39.99939%);fill-opacity:0.3;" d="M 336.945312 -52.953125 L 324.507812 15.367188 L 303.734375 10.386719 L 316.265625 -57.785156 Z M 336.945312 -52.953125 "/>
<g clip-path="url(#clip7)" clip-rule="nonzero">
<path style=" stroke:none;fill-rule:nonzero;fill:rgb(39.99939%,39.99939%,39.99939%);fill-opacity:0.3;" d="M 360.445312 -46.949219 L 348.167969 19.628906 L 327.832031 14.753906 L 340.253906 -51.382812 Z M 360.445312 -46.949219 "/>
</g>
<path style=" stroke:none;fill-rule:nonzero;fill:rgb(39.99939%,39.99939%,39.99939%);fill-opacity:0.3;" d="M 168.289062 -8.789062 L 164.996094 12.75 L 156.546875 -11.652344 Z M 168.289062 -8.789062 "/>
<path style=" stroke:none;fill-rule:nonzero;fill:rgb(39.99939%,39.99939%,39.99939%);fill-opacity:0.3;" d="M 193.316406 -5.84375 L 183.449219 47.789062 L 181.40625 45.746094 L 177.820312 43.183594 L 170.058594 21.617188 L 175.914062 -9.773438 Z M 193.316406 -5.84375 "/>
<path style=" stroke:none;fill-rule:nonzero;fill:rgb(39.99939%,39.99939%,39.99939%);fill-opacity:0.3;" d="M 246.738281 5.800781 L 234.402344 73.191406 L 220.183594 69.984375 L 214.035156 67.855469 L 226.34375 1.035156 Z M 246.738281 5.800781 "/>
<path style=" stroke:none;fill-rule:nonzero;fill:rgb(39.99939%,39.99939%,39.99939%);fill-opacity:0.3;" d="M 270.496094 12.402344 L 262.253906 80.855469 L 240.128906 75.867188 L 250.6875 7.921875 Z M 270.496094 12.402344 "/>
<path style=" stroke:none;fill-rule:nonzero;fill:rgb(39.99939%,39.99939%,39.99939%);fill-opacity:0.3;" d="M 296.089844 19.144531 L 291.375 88.378906 L 268.339844 83.121094 L 276.28125 14.667969 Z M 296.089844 19.144531 "/>
<path style=" stroke:none;fill-rule:nonzero;fill:rgb(39.99939%,39.99939%,39.99939%);fill-opacity:0.3;" d="M 321.523438 24.25 L 319.871094 94.164062 L 297.078125 88.984375 L 301.710938 19.773438 Z M 321.523438 24.25 "/>
<path style=" stroke:none;fill-rule:nonzero;fill:rgb(39.99939%,39.99939%,39.99939%);fill-opacity:0.3;" d="M 345.277344 29.621094 L 343.589844 99.511719 L 324.648438 95.230469 L 326.804688 25.445312 Z M 345.277344 29.621094 "/>
<g clip-path="url(#clip8)" clip-rule="nonzero">
<path style=" stroke:none;fill-rule:nonzero;fill:rgb(39.99939%,39.99939%,39.99939%);fill-opacity:0.3;" d="M 369.0625 35.410156 L 367.910156 105.363281 L 362.714844 104.238281 L 350.550781 101.496094 L 352.703125 31.710938 Z M 369.0625 35.410156 "/>
</g>
<path style=" stroke:none;fill-rule:nonzero;fill:rgb(39.99939%,39.99939%,39.99939%);fill-opacity:0.3;" d="M 220.007812 -0.09375 L 208.042969 65.265625 L 189.304688 52.773438 L 199.613281 -4.859375 Z M 220.007812 -0.09375 "/>
<g clip-path="url(#clip9)" clip-rule="nonzero">
<path style=" stroke:none;fill-rule:nonzero;fill:rgb(39.99939%,39.99939%,39.99939%);fill-opacity:0.3;" d="M 407.296875 -34.210938 L 395.777344 32.554688 L 354.644531 22.640625 L 366.273438 -43.585938 Z M 407.296875 -34.210938 "/>
</g>
<path style=" stroke:none;fill-rule:nonzero;fill:rgb(39.99939%,39.99939%,39.99939%);fill-opacity:0.3;" d="M 265.816406 100.253906 L 289.300781 105.828125 L 286.359375 153.917969 L 263.753906 148.703125 Z M 265.816406 100.253906 "/>
<path style=" stroke:none;fill-rule:nonzero;fill:rgb(39.99939%,39.99939%,39.99939%);fill-opacity:0.3;" d="M 235.722656 93.863281 L 260.925781 99.699219 L 258.378906 147.902344 L 234.070312 142.296875 Z M 235.722656 93.863281 "/>
<g clip-path="url(#clip10)" clip-rule="nonzero">
<path style=" stroke:none;fill-rule:nonzero;fill:rgb(39.99939%,39.99939%,39.99939%);fill-opacity:0.3;" d="M 319.382812 167.804688 L 361.972656 178.367188 L 360.632812 199.222656 L 317.601562 197.261719 Z M 319.382812 167.804688 "/>
</g>
<path style=" stroke:none;fill-rule:nonzero;fill:rgb(39.99939%,39.99939%,39.99939%);fill-opacity:0.3;" d="M 285.128906 160.304688 L 283.074219 198.339844 L 259.414062 197.390625 L 262.414062 154.75 Z M 285.128906 160.304688 "/>
<path style=" stroke:none;fill-rule:nonzero;fill:rgb(39.99939%,39.99939%,39.99939%);fill-opacity:0.3;" d="M 314.101562 166.664062 L 312.222656 198.746094 L 288.179688 197.78125 L 290.679688 160.9375 Z M 314.101562 166.664062 "/>
<path style=" stroke:none;fill-rule:nonzero;fill:rgb(39.99939%,39.99939%,39.99939%);fill-opacity:0.3;" d="M 257.742188 153.609375 L 254.4375 197.191406 L 235.539062 196.433594 L 231.476562 185.777344 L 234.390625 147.902344 Z M 257.742188 153.609375 "/>
<path style=" stroke:none;fill-rule:nonzero;fill:rgb(39.99939%,39.99939%,39.99939%);fill-opacity:0.3;" d="M 312.429688 203.835938 L 310.75 232.441406 L 286.855469 231.46875 L 288.699219 202.988281 Z M 312.429688 203.835938 "/>
<path style=" stroke:none;fill-rule:nonzero;fill:rgb(39.99939%,39.99939%,39.99939%);fill-opacity:0.3;" d="M 283.363281 202.796875 L 281.785156 231.261719 L 257.507812 230.277344 L 259.09375 201.933594 Z M 283.363281 202.796875 "/>
<path style=" stroke:none;fill-rule:nonzero;fill:rgb(39.99939%,39.99939%,39.99939%);fill-opacity:0.3;" d="M 254.011719 201.75 L 252.992188 230.09375 L 244.535156 229.75 L 244.320312 229.195312 L 242.238281 223.75 L 235.890625 201.105469 Z M 254.011719 201.75 "/>
<g clip-path="url(#clip11)" clip-rule="nonzero">
<path style=" stroke:none;fill-rule:nonzero;fill:rgb(39.99939%,39.99939%,39.99939%);fill-opacity:0.3;" d="M 361.28125 205.582031 L 360.488281 234.46875 L 315.925781 232.652344 L 318.042969 204.035156 Z M 361.28125 205.582031 "/>
</g>
<path style=" stroke:none;fill-rule:nonzero;fill:rgb(39.99939%,39.99939%,39.99939%);fill-opacity:0.3;" d="M 220.183594 69.984375 L 213.902344 68.570312 L 214.035156 67.855469 Z M 220.183594 69.984375 "/>
<g clip-path="url(#clip12)" clip-rule="nonzero">
<path style=" stroke:none;fill-rule:nonzero;fill:rgb(39.99939%,39.99939%,39.99939%);fill-opacity:0.3;" d="M 324.003906 113.792969 L 341.070312 118.140625 L 338.824219 145.800781 L 342.511719 147.34375 L 346.300781 148.925781 L 348.265625 119.417969 L 364.175781 123.3125 L 362.203125 172.230469 L 321.726562 162.078125 L 320.550781 161.03125 Z M 324.003906 113.792969 "/>
</g>
<path style=" stroke:none;fill-rule:nonzero;fill:rgb(39.99939%,39.99939%,39.99939%);fill-opacity:0.3;" d="M 293.800781 106.757812 L 317.828125 112.34375 L 315.007812 160.527344 L 291.703125 155.152344 Z M 293.800781 106.757812 "/>
<path style=" stroke:none;fill-rule:nonzero;fill:rgb(39.99939%,39.99939%,39.99939%);fill-opacity:0.3;" d="M 228.113281 146.179688 L 226.789062 162.984375 L 226.457031 164.023438 L 225.402344 164.5625 L 224.0625 164.644531 L 223.035156 163.996094 L 221.851562 162.355469 L 214.828125 142.933594 Z M 228.113281 146.179688 "/>
<path style=" stroke:none;fill-rule:nonzero;fill:rgb(39.99939%,39.99939%,39.99939%);fill-opacity:0.3;" d="M 207.078125 87.242188 L 231.109375 93.011719 L 228.132812 141.148438 L 208.980469 136.730469 L 208.527344 135.558594 L 196.9375 103.363281 L 196.859375 102.007812 L 196.9375 100.953125 L 197.375 99.289062 L 198.160156 97.128906 L 199.996094 94.222656 L 202.355469 91.230469 L 203.839844 89.234375 L 205.765625 87.40625 Z M 207.078125 87.242188 "/>
<path style=" stroke:none;fill-rule:nonzero;fill:rgb(39.99939%,39.99939%,39.99939%);fill-opacity:0.3;" d="M 311.144531 235.667969 L 307.976562 289.648438 L 283.625 288.691406 L 285.195312 260.582031 L 282.332031 260.582031 L 279.472656 260.578125 L 278.351562 289.019531 L 278.242188 289.039062 L 270.5625 288.394531 L 247.164062 236 L 246.933594 234.476562 L 247.390625 233.390625 L 248.304688 232.957031 L 249.679688 232.523438 Z M 311.144531 235.667969 "/>
<g clip-path="url(#clip13)" clip-rule="nonzero">
<path style=" stroke:none;fill-rule:nonzero;fill:rgb(39.99939%,39.99939%,39.99939%);fill-opacity:0.3;" d="M 361.203125 237.8125 L 358.742188 292.152344 L 322.652344 290.566406 L 313.472656 289.941406 L 315.722656 235.90625 Z M 361.203125 237.8125 "/>
</g>
<path style=" stroke:none;fill-rule:nonzero;fill:rgb(39.99939%,39.99939%,39.99939%);fill-opacity:0.3;" d="M 208.042969 65.265625 L 207.667969 67.308594 L 194.925781 64.4375 L 192.578125 59.269531 L 189.03125 54.300781 L 189.304688 52.773438 Z M 208.042969 65.265625 "/>
<path style=" stroke:none;fill-rule:nonzero;fill:rgb(39.99939%,39.99939%,39.99939%);fill-opacity:0.3;" d="M 305.21875 294.867188 L 304.621094 304.359375 L 304.484375 304.808594 L 304.011719 305.320312 L 303.203125 305.574219 L 302.054688 305.640625 L 275.960938 303.054688 L 275.082031 302.796875 L 274.609375 302.414062 L 274.273438 301.898438 L 272.304688 294.203125 L 272.375 293.625 L 272.644531 293.367188 L 273.25 293.113281 L 273.925781 293.050781 L 304.070312 294.542969 L 304.679688 294.609375 Z M 305.21875 294.867188 "/>
<path style=" stroke:none;fill-rule:nonzero;fill:rgb(39.99939%,39.99939%,39.99939%);fill-opacity:0.3;" d="M 356.730469 296.960938 L 355.863281 308.636719 L 310.089844 304.441406 L 310.769531 293.933594 Z M 356.730469 296.960938 "/>
<path style=" stroke:none;fill-rule:nonzero;fill:rgb(39.99939%,39.99939%,39.99939%);fill-opacity:0.3;" d="M 305.601562 308.421875 L 303.027344 340.320312 L 288.898438 339.074219 L 276.855469 308.09375 L 277.175781 307.167969 L 277.988281 306.550781 L 279.613281 306.246094 Z M 305.601562 308.421875 "/>
<g clip-path="url(#clip14)" clip-rule="nonzero">
<path style=" stroke:none;fill-rule:nonzero;fill:rgb(39.99939%,39.99939%,39.99939%);fill-opacity:0.3;" d="M 397.578125 316.582031 L 395.832031 356.652344 L 395.019531 357.113281 L 394.042969 357.113281 L 385.59375 354.636719 L 375.03125 351.699219 L 362.191406 347.988281 L 353.257812 346.132812 L 338.636719 343.808594 L 308.257812 340.238281 L 310.828125 308.804688 Z M 397.578125 316.582031 "/>
</g>
<path style=" stroke:none;fill-rule:nonzero;fill:rgb(39.99939%,39.99939%,39.99939%);fill-opacity:0.3;" d="M 307.976562 289.648438 L 307.949219 290.125 L 283.617188 288.835938 L 283.625 288.691406 Z M 307.976562 289.648438 "/>
<path style=" stroke:none;fill-rule:nonzero;fill:rgb(39.99939%,39.99939%,39.99939%);fill-opacity:0.3;" d="M 278.351562 289.019531 L 278.351562 289.050781 L 278.242188 289.039062 Z M 278.351562 289.019531 "/>
<path style=" stroke:none;fill-rule:nonzero;fill:rgb(39.99939%,39.99939%,39.99939%);fill-opacity:0.3;" d="M 322.652344 290.566406 L 313.464844 290.164062 L 313.472656 289.941406 Z M 322.652344 290.566406 "/>
<g clip-path="url(#clip15)" clip-rule="nonzero">
<path style=" stroke:none;fill-rule:nonzero;fill:rgb(39.99939%,39.99939%,39.99939%);fill-opacity:0.3;" d="M 314.628906 405.148438 L 290.84375 344.542969 L 291.179688 342.816406 L 293.667969 341.222656 L 295.890625 341.03125 L 311.082031 343.136719 L 310.816406 350.378906 L 311.820312 350.414062 L 312.824219 350.453125 L 312.96875 343.398438 L 342.941406 347.546875 L 341.386719 367.929688 L 342.933594 368.347656 L 344.5625 368.789062 L 346.074219 348.15625 L 354.542969 350.488281 L 368.101562 353.359375 L 394.613281 360.375 L 393.359375 380.808594 L 396.960938 381.042969 L 400.566406 381.277344 L 401.523438 363.542969 L 419.570312 365.257812 L 416.386719 425.011719 L 321.484375 413.316406 L 320.09375 413.140625 L 319 412.851562 L 318.039062 412.4375 L 317.386719 411.941406 L 316.816406 411.234375 L 316.425781 410.488281 L 316.117188 409.578125 L 315.460938 407.550781 Z M 314.628906 405.148438 "/>
</g>
<path style="fill-rule:nonzero;fill:rgb(39.99939%,39.99939%,39.99939%);fill-opacity:1;stroke-width:0.03;stroke-linecap:square;stroke-linejoin:miter;stroke:rgb(39.99939%,39.99939%,39.99939%);stroke-opacity:1;stroke-miterlimit:3.239307;" d="M 219.53125 74.738281 L 216.394531 76.828125 L 204.785156 75.207031 L 217.1875 75.207031 Z M 219.53125 74.738281 " transform="matrix(1,0,0,1,-74,-13)"/>
<path style="fill-rule:nonzero;fill:rgb(39.99939%,39.99939%,39.99939%);fill-opacity:1;stroke-width:0.03;stroke-linecap:square;stroke-linejoin:miter;stroke:rgb(39.99939%,39.99939%,39.99939%);stroke-opacity:1;stroke-miterlimit:3.239307;" d="M 296.632812 251.902344 L 303.546875 266.476562 L 294.652344 264.945312 Z M 296.632812 251.902344 " transform="matrix(1,0,0,1,-74,-13)"/>
<path style="fill-rule:nonzero;fill:rgb(39.99939%,39.99939%,39.99939%);fill-opacity:1;stroke-width:0.03;stroke-linecap:square;stroke-linejoin:miter;stroke:rgb(39.99939%,39.99939%,39.99939%);stroke-opacity:1;stroke-miterlimit:3.239307;" d="M 294.359375 268.566406 L 303.75 270.054688 L 313.007812 296.007812 L 290.546875 292.621094 Z M 294.359375 268.566406 " transform="matrix(1,0,0,1,-74,-13)"/>
<path style="fill-rule:nonzero;fill:rgb(39.99939%,39.99939%,39.99939%);fill-opacity:1;stroke-width:0.03;stroke-linecap:square;stroke-linejoin:miter;stroke:rgb(39.99939%,39.99939%,39.99939%);stroke-opacity:1;stroke-miterlimit:3.239307;" d="M 289.871094 296.535156 L 312.9375 299.410156 L 322.640625 318.449219 L 313.257812 321.109375 L 304.550781 321.570312 L 297.132812 321.097656 L 295.484375 320.933594 L 286.550781 319.191406 Z M 289.871094 296.535156 " transform="matrix(1,0,0,1,-74,-13)"/>
<path style="fill-rule:nonzero;fill:rgb(39.99939%,39.99939%,39.99939%);fill-opacity:1;stroke-width:0.03;stroke-linecap:square;stroke-linejoin:miter;stroke:rgb(39.99939%,39.99939%,39.99939%);stroke-opacity:1;stroke-miterlimit:3.239307;" d="M 211.265625 285.0625 L 284.550781 295.804688 L 280.9375 318.273438 L 206.84375 307.132812 Z M 211.265625 285.0625 " transform="matrix(1,0,0,1,-74,-13)"/>
<path style="fill-rule:nonzero;fill:rgb(39.99939%,39.99939%,39.99939%);fill-opacity:1;stroke-width:0.03;stroke-linecap:square;stroke-linejoin:miter;stroke:rgb(39.99939%,39.99939%,39.99939%);stroke-opacity:1;stroke-miterlimit:3.239307;" d="M 216.320312 257.554688 L 288.742188 267.742188 L 285.125 291.890625 L 212.109375 280.773438 Z M 216.320312 257.554688 " transform="matrix(1,0,0,1,-74,-13)"/>
<path style="fill-rule:nonzero;fill:rgb(39.99939%,39.99939%,39.99939%);fill-opacity:1;stroke-width:0.03;stroke-linecap:square;stroke-linejoin:miter;stroke:rgb(39.99939%,39.99939%,39.99939%);stroke-opacity:1;stroke-miterlimit:3.239307;" d="M 220.835938 231.496094 L 292.578125 241.554688 L 289.21875 264.347656 L 216.203125 253.425781 Z M 220.835938 231.496094 " transform="matrix(1,0,0,1,-74,-13)"/>
<path style="fill-rule:nonzero;fill:rgb(39.99939%,39.99939%,39.99939%);fill-opacity:1;stroke-width:0.03;stroke-linecap:square;stroke-linejoin:miter;stroke:rgb(39.99939%,39.99939%,39.99939%);stroke-opacity:1;stroke-miterlimit:3.239307;" d="M 226.597656 203.359375 L 282.148438 211.816406 L 292.527344 237.027344 L 221.355469 226.65625 Z M 226.597656 203.359375 " transform="matrix(1,0,0,1,-74,-13)"/>
<path style="fill-rule:nonzero;fill:rgb(39.99939%,39.99939%,39.99939%);fill-opacity:1;stroke-width:0.03;stroke-linecap:square;stroke-linejoin:miter;stroke:rgb(39.99939%,39.99939%,39.99939%);stroke-opacity:1;stroke-miterlimit:3.239307;" d="M 231.460938 176.605469 L 271.507812 183.902344 L 281.21875 209.039062 L 227.050781 200 Z M 231.460938 176.605469 " transform="matrix(1,0,0,1,-74,-13)"/>
<path style="fill-rule:nonzero;fill:rgb(39.99939%,39.99939%,39.99939%);fill-opacity:1;stroke-width:0.03;stroke-linecap:square;stroke-linejoin:miter;stroke:rgb(39.99939%,39.99939%,39.99939%);stroke-opacity:1;stroke-miterlimit:3.239307;" d="M 236.484375 149.59375 L 259.355469 152.460938 L 270.054688 179.125 L 232.496094 171.453125 Z M 236.484375 149.59375 " transform="matrix(1,0,0,1,-74,-13)"/>
<path style="fill-rule:nonzero;fill:rgb(39.99939%,39.99939%,39.99939%);fill-opacity:1;stroke-width:0.03;stroke-linecap:square;stroke-linejoin:miter;stroke:rgb(39.99939%,39.99939%,39.99939%);stroke-opacity:1;stroke-miterlimit:3.239307;" d="M 240.914062 124.078125 L 248.296875 124.417969 L 257.332031 147.101562 L 237.167969 144.613281 Z M 240.914062 124.078125 " transform="matrix(1,0,0,1,-74,-13)"/>
<path style="fill-rule:nonzero;fill:rgb(39.99939%,39.99939%,39.99939%);fill-opacity:1;stroke-width:0.03;stroke-linecap:square;stroke-linejoin:miter;stroke:rgb(39.99939%,39.99939%,39.99939%);stroke-opacity:1;stroke-miterlimit:3.239307;" d="M 130.164062 273.042969 L 206.335938 284.316406 L 201.652344 306.722656 L 125.429688 295.800781 Z M 130.164062 273.042969 " transform="matrix(1,0,0,1,-74,-13)"/>
<path style="fill-rule:nonzero;fill:rgb(39.99939%,39.99939%,39.99939%);fill-opacity:1;stroke-width:0.03;stroke-linecap:square;stroke-linejoin:miter;stroke:rgb(39.99939%,39.99939%,39.99939%);stroke-opacity:1;stroke-miterlimit:3.239307;" d="M 135.800781 245.144531 L 211.085938 256.492188 L 206.691406 280.417969 L 131.109375 269.484375 Z M 135.800781 245.144531 " transform="matrix(1,0,0,1,-74,-13)"/>
<path style="fill-rule:nonzero;fill:rgb(39.99939%,39.99939%,39.99939%);fill-opacity:1;stroke-width:0.03;stroke-linecap:square;stroke-linejoin:miter;stroke:rgb(39.99939%,39.99939%,39.99939%);stroke-opacity:1;stroke-miterlimit:3.239307;" d="M 140.339844 220.164062 L 216.050781 231.140625 L 211.820312 253.300781 L 135.96875 241.957031 Z M 140.339844 220.164062 " transform="matrix(1,0,0,1,-74,-13)"/>
<path style="fill-rule:nonzero;fill:rgb(39.99939%,39.99939%,39.99939%);fill-opacity:1;stroke-width:0.03;stroke-linecap:square;stroke-linejoin:miter;stroke:rgb(39.99939%,39.99939%,39.99939%);stroke-opacity:1;stroke-miterlimit:3.239307;" d="M 145.253906 191.847656 L 221.042969 203.363281 L 216.675781 225.414062 L 140.863281 214.714844 Z M 145.253906 191.847656 " transform="matrix(1,0,0,1,-74,-13)"/>
<path style="fill-rule:nonzero;fill:rgb(39.99939%,39.99939%,39.99939%);fill-opacity:1;stroke-width:0.03;stroke-linecap:square;stroke-linejoin:miter;stroke:rgb(39.99939%,39.99939%,39.99939%);stroke-opacity:1;stroke-miterlimit:3.239307;" d="M 150.390625 164.015625 L 225.90625 176.167969 L 221.804688 200 L 146.175781 187.949219 Z M 150.390625 164.015625 " transform="matrix(1,0,0,1,-74,-13)"/>
<path style="fill-rule:nonzero;fill:rgb(39.99939%,39.99939%,39.99939%);fill-opacity:1;stroke-width:0.03;stroke-linecap:square;stroke-linejoin:miter;stroke:rgb(39.99939%,39.99939%,39.99939%);stroke-opacity:1;stroke-miterlimit:3.239307;" d="M 155.589844 136.054688 L 230.851562 148.753906 L 226.941406 171.136719 L 150.894531 160.875 Z M 155.589844 136.054688 " transform="matrix(1,0,0,1,-74,-13)"/>
<path style="fill-rule:nonzero;fill:rgb(39.99939%,39.99939%,39.99939%);fill-opacity:1;stroke-width:0.03;stroke-linecap:square;stroke-linejoin:miter;stroke:rgb(39.99939%,39.99939%,39.99939%);stroke-opacity:1;stroke-miterlimit:3.239307;" d="M 160.480469 110.589844 L 235.835938 121.628906 L 231.65625 143.394531 L 156.253906 133.160156 L 159.664062 114.070312 Z M 160.480469 110.589844 " transform="matrix(1,0,0,1,-74,-13)"/>
<path style="fill-rule:nonzero;fill:rgb(39.99939%,39.99939%,39.99939%);fill-opacity:1;stroke-width:0.03;stroke-linecap:square;stroke-linejoin:miter;stroke:rgb(39.99939%,39.99939%,39.99939%);stroke-opacity:1;stroke-miterlimit:3.239307;" d="M 164.359375 88.773438 L 231.894531 94.347656 L 236.785156 96.898438 L 238.984375 101.523438 L 236.328125 117.640625 L 161.328125 106.96875 L 161.328125 106.960938 Z M 164.359375 88.773438 " transform="matrix(1,0,0,1,-74,-13)"/>
<path style="fill-rule:nonzero;fill:rgb(39.99939%,39.99939%,39.99939%);fill-opacity:1;stroke-width:0.03;stroke-linecap:square;stroke-linejoin:miter;stroke:rgb(39.99939%,39.99939%,39.99939%);stroke-opacity:1;stroke-miterlimit:3.239307;" d="M 318.535156 242.75 L 317.914062 242.722656 L 316.238281 236.75 L 318.320312 242.195312 Z M 318.535156 242.75 " transform="matrix(1,0,0,1,-74,-13)"/>
<path style="fill-rule:nonzero;fill:rgb(39.99939%,39.99939%,39.99939%);fill-opacity:1;stroke-width:0.03;stroke-linecap:square;stroke-linejoin:miter;stroke:rgb(39.99939%,39.99939%,39.99939%);stroke-opacity:1;stroke-miterlimit:3.239307;" d="M 256.78125 64.429688 L 256.105469 68.09375 L 254.855469 64.621094 Z M 256.78125 64.429688 " transform="matrix(1,0,0,1,-74,-13)"/>
<path style="fill-rule:nonzero;fill:rgb(39.99939%,39.99939%,39.99939%);fill-opacity:1;stroke-width:0.03;stroke-linecap:square;stroke-linejoin:miter;stroke:rgb(39.99939%,39.99939%,39.99939%);stroke-opacity:1;stroke-miterlimit:3.239307;" d="M 282.980469 149.730469 L 282.945312 149.722656 L 282.527344 148.558594 Z M 282.980469 149.730469 " transform="matrix(1,0,0,1,-74,-13)"/>
<path style="fill-rule:nonzero;fill:rgb(39.99939%,39.99939%,39.99939%);fill-opacity:1;stroke-width:0.03;stroke-linecap:square;stroke-linejoin:miter;stroke:rgb(39.99939%,39.99939%,39.99939%);stroke-opacity:1;stroke-miterlimit:3.239307;" d="M 268.925781 77.4375 L 261.515625 75.769531 L 263.03125 67.300781 L 266.578125 72.269531 Z M 268.925781 77.4375 " transform="matrix(1,0,0,1,-74,-13)"/>
<path style=" stroke:none;fill-rule:evenodd;fill:rgb(85.096741%,85.096741%,81.959534%);fill-opacity:0.7;" d="M 192.519531 8 C 192.519531 1.761719 190.042969 -4.21875 185.628906 -8.628906 C 181.21875 -13.042969 175.238281 -15.519531 169 -15.519531 C 162.761719 -15.519531 156.78125 -13.042969 152.371094 -8.628906 C 147.957031 -4.21875 145.480469 1.761719 145.480469 8 C 145.480469 14.238281 147.957031 20.21875 152.371094 24.628906 C 156.78125 29.042969 162.761719 31.519531 169 31.519531 C 175.238281 31.519531 181.21875 29.042969 185.628906 24.628906 C 190.042969 20.21875 192.519531 14.238281 192.519531 8 Z M 192.519531 8 "/>
<path style=" stroke:none;fill-rule:evenodd;fill:rgb(85.096741%,85.096741%,81.959534%);fill-opacity:0.7;" d="M 201.519531 -5 C 201.519531 -11.238281 199.042969 -17.21875 194.628906 -21.628906 C 190.21875 -26.042969 184.238281 -28.519531 178 -28.519531 C 171.761719 -28.519531 165.78125 -26.042969 161.371094 -21.628906 C 156.957031 -17.21875 154.480469 -11.238281 154.480469 -5 C 154.480469 1.238281 156.957031 7.21875 161.371094 11.628906 C 165.78125 16.042969 171.761719 18.519531 178 18.519531 C 184.238281 18.519531 190.21875 16.042969 194.628906 11.628906 C 199.042969 7.21875 201.519531 1.238281 201.519531 -5 Z M 201.519531 -5 "/>
</g>
</svg>
