<?xml version="1.0" encoding="UTF-8"?>
<svg xmlns="http://www.w3.org/2000/svg" xmlns:xlink="http://www.w3.org/1999/xlink" width="361pt" height="361pt" viewBox="0 0 361 361" version="1.1">
<defs>
<clipPath id="clip1">
  <path d="M 235 348 L 283 348 L 283 360 L 235 360 Z M 235 348 "/>
</clipPath>
<clipPath id="clip2">
  <path d="M 254 236 L 312 236 L 312 360 L 254 360 Z M 254 236 "/>
</clipPath>
<clipPath id="clip3">
  <path d="M 336 253 L 360 253 L 360 304 L 336 304 Z M 336 253 "/>
</clipPath>
<clipPath id="clip4">
  <path d="M 356 254 L 360 254 L 360 283 L 356 283 Z M 356 254 "/>
</clipPath>
<clipPath id="clip5">
  <path d="M 351 283 L 360 283 L 360 306 L 351 306 Z M 351 283 "/>
</clipPath>
<clipPath id="clip6">
  <path d="M 320 323 L 345 323 L 345 360 L 320 360 Z M 320 323 "/>
</clipPath>
<clipPath id="clip7">
  <path d="M 290 318 L 321 318 L 321 360 L 290 360 Z M 290 318 "/>
</clipPath>
<clipPath id="clip8">
  <path d="M 338 346 L 350 346 L 350 360 L 338 360 Z M 338 346 "/>
</clipPath>
<clipPath id="clip9">
  <path d="M 344 327 L 360 327 L 360 360 L 344 360 Z M 344 327 "/>
</clipPath>
<clipPath id="clip10">
  <path d="M 354 310 L 360 310 L 360 319 L 354 319 Z M 354 310 "/>
</clipPath>
<clipPath id="clip11">
  <path d="M 356 168 L 360 168 L 360 178 L 356 178 Z M 356 168 "/>
</clipPath>
<clipPath id="clip12">
  <path d="M 334 188 L 360 188 L 360 209 L 334 209 Z M 334 188 "/>
</clipPath>
<clipPath id="clip13">
  <path d="M 340 121 L 360 121 L 360 151 L 340 151 Z M 340 121 "/>
</clipPath>
<clipPath id="clip14">
  <path d="M 355 116 L 360 116 L 360 147 L 355 147 Z M 355 116 "/>
</clipPath>
<clipPath id="clip15">
  <path d="M 350 150 L 360 150 L 360 173 L 350 173 Z M 350 150 "/>
</clipPath>
<clipPath id="clip16">
  <path d="M 0 355 L 13 355 L 13 360 L 0 360 Z M 0 355 "/>
</clipPath>
<clipPath id="clip17">
  <path d="M 9 334 L 71 334 L 71 360 L 9 360 Z M 9 334 "/>
</clipPath>
<clipPath id="clip18">
  <path d="M 0 352 L 82 352 L 82 360 L 0 360 Z M 0 352 "/>
</clipPath>
<clipPath id="clip19">
  <path d="M 189 358 L 236 358 L 236 360 L 189 360 Z M 189 358 "/>
</clipPath>
<clipPath id="clip20">
  <path d="M 110 314 L 161 314 L 161 360 L 110 360 Z M 110 314 "/>
</clipPath>
<clipPath id="clip21">
  <path d="M 131 305 L 183 305 L 183 360 L 131 360 Z M 131 305 "/>
</clipPath>
<clipPath id="clip22">
  <path d="M 70 331 L 111 331 L 111 360 L 70 360 Z M 70 331 "/>
</clipPath>
<clipPath id="clip23">
  <path d="M 88 322 L 136 322 L 136 360 L 88 360 Z M 88 322 "/>
</clipPath>
<clipPath id="clip24">
  <path d="M 135 358 L 140 358 L 140 360 L 135 360 Z M 135 358 "/>
</clipPath>
<clipPath id="clip25">
  <path d="M 326 33 L 360 33 L 360 76 L 326 76 Z M 326 33 "/>
</clipPath>
<clipPath id="clip26">
  <path d="M 323 0 L 360 0 L 360 29 L 323 29 Z M 323 0 "/>
</clipPath>
<clipPath id="clip27">
  <path d="M 349 22 L 360 22 L 360 64 L 349 64 Z M 349 22 "/>
</clipPath>
<clipPath id="clip28">
  <path d="M 351 0 L 360 0 L 360 17 L 351 17 Z M 351 0 "/>
</clipPath>
<clipPath id="clip29">
  <path d="M 346 69 L 360 69 L 360 110 L 346 110 Z M 346 69 "/>
</clipPath>
<clipPath id="clip30">
  <path d="M 169 351 L 211 351 L 211 360 L 169 360 Z M 169 351 "/>
</clipPath>
<clipPath id="clip31">
  <path d="M 326 284 L 360 284 L 360 326 L 326 326 Z M 326 284 "/>
</clipPath>
</defs>
<g id="surface8652">
<path style="fill-rule:nonzero;fill:rgb(0%,0%,0%);fill-opacity:1;stroke-width:0.03;stroke-linecap:square;stroke-linejoin:miter;stroke:rgb(0%,0%,0%);stroke-opacity:1;stroke-miterlimit:10;" d="M 0 178 L 360 178 L 360 -182 L 0 -182 Z M 0 178 " transform="matrix(1,0,0,1,0,182)"/>
<g clip-path="url(#clip1)" clip-rule="nonzero">
<path style=" stroke:none;fill-rule:nonzero;fill:rgb(39.99939%,39.99939%,39.99939%);fill-opacity:0.3;" d="M 253.398438 373.203125 L 253.6875 384.40625 L 282.328125 382.78125 L 281.765625 389.597656 L 241.289062 391.910156 L 237.277344 396.722656 L 237.726562 395.242188 L 238.46875 390.175781 L 239.164062 381.371094 L 239.359375 375.019531 L 239.230469 370.453125 L 239.050781 366.769531 L 235.847656 355.34375 L 258.578125 351.136719 L 274.0625 348.511719 L 271.777344 365.25 Z M 253.398438 373.203125 "/>
</g>
<g clip-path="url(#clip2)" clip-rule="nonzero">
<path style=" stroke:none;fill-rule:nonzero;fill:rgb(39.99939%,39.99939%,39.99939%);fill-opacity:0.3;" d="M 277.890625 334.839844 L 282.824219 306.882812 L 280.535156 304.964844 L 285.539062 280.933594 L 289.605469 276.898438 L 296.339844 242.144531 L 298.128906 239.25 L 300.671875 237.523438 L 302.75 236.6875 L 304.175781 236.484375 L 305.992188 236.734375 L 307.667969 237.351562 L 309.042969 238.125 L 310.308594 239.4375 L 311.125 241.257812 L 311.117188 246.421875 L 297.472656 294.757812 L 287.671875 342.699219 L 283.269531 366.917969 L 279.019531 378.699219 L 265.8125 376.621094 L 265.65625 377.429688 L 265.496094 378.265625 L 278.519531 380.246094 L 282.027344 382.117188 L 254.691406 383.328125 L 254.492188 373.722656 L 273.058594 365.707031 L 275.472656 348.148438 L 275.914062 344.6875 Z M 277.890625 334.839844 "/>
</g>
<path style=" stroke:none;fill-rule:nonzero;fill:rgb(39.99939%,39.99939%,39.99939%);fill-opacity:0.3;" d="M 334.078125 263.144531 L 325.738281 298.375 L 315.09375 296.265625 L 306.945312 292.605469 L 312.835938 268.425781 L 318.128906 259.902344 Z M 334.078125 263.144531 "/>
<g clip-path="url(#clip3)" clip-rule="nonzero">
<path style=" stroke:none;fill-rule:nonzero;fill:rgb(39.99939%,39.99939%,39.99939%);fill-opacity:0.3;" d="M 347.046875 253.332031 L 361.34375 256.058594 L 350.730469 303.332031 L 336.820312 300.574219 Z M 347.046875 253.332031 "/>
</g>
<g clip-path="url(#clip4)" clip-rule="nonzero">
<path style=" stroke:none;fill-rule:nonzero;fill:rgb(39.99939%,39.99939%,39.99939%);fill-opacity:0.3;" d="M 362.980469 254.566406 L 370.566406 255.875 L 364.800781 282.472656 L 356.625 280.945312 Z M 362.980469 254.566406 "/>
</g>
<path style=" stroke:none;fill-rule:nonzero;fill:rgb(39.99939%,39.99939%,39.99939%);fill-opacity:0.3;" d="M 337.496094 255.378906 L 345.25 256.832031 L 340.144531 280.449219 L 331.621094 278.910156 Z M 337.496094 255.378906 "/>
<path style=" stroke:none;fill-rule:nonzero;fill:rgb(39.99939%,39.99939%,39.99939%);fill-opacity:0.3;" d="M 331.542969 279.949219 L 339.925781 281.417969 L 335.511719 300.316406 L 327.042969 298.636719 Z M 331.542969 279.949219 "/>
<g clip-path="url(#clip5)" clip-rule="nonzero">
<path style=" stroke:none;fill-rule:nonzero;fill:rgb(39.99939%,39.99939%,39.99939%);fill-opacity:0.3;" d="M 356 283.648438 L 364.238281 285.308594 L 359.585938 305.089844 L 351.789062 303.542969 Z M 356 283.648438 "/>
</g>
<path style=" stroke:none;fill-rule:nonzero;fill:rgb(39.99939%,39.99939%,39.99939%);fill-opacity:0.3;" d="M 335.015625 225.277344 L 340.808594 226.03125 L 337.785156 244.929688 L 331.714844 243.789062 Z M 335.015625 225.277344 "/>
<path style=" stroke:none;fill-rule:nonzero;fill:rgb(39.99939%,39.99939%,39.99939%);fill-opacity:0.3;" d="M 353.164062 219.90625 L 358.066406 220.988281 L 353.449219 239.847656 L 348.542969 238.765625 Z M 353.164062 219.90625 "/>
<path style=" stroke:none;fill-rule:nonzero;fill:rgb(39.99939%,39.99939%,39.99939%);fill-opacity:0.3;" d="M 285.222656 280.328125 L 267.566406 257.148438 L 291.332031 247.554688 L 292.972656 247.210938 L 293.898438 247.503906 L 294.085938 248.050781 L 288.851562 276.769531 Z M 285.222656 280.328125 "/>
<g clip-path="url(#clip6)" clip-rule="nonzero">
<path style=" stroke:none;fill-rule:nonzero;fill:rgb(39.99939%,39.99939%,39.99939%);fill-opacity:0.3;" d="M 332.101562 323.007812 L 344.066406 325.089844 L 332.605469 382.394531 L 320.050781 380.359375 Z M 332.101562 323.007812 "/>
</g>
<path style=" stroke:none;fill-rule:nonzero;fill:rgb(39.99939%,39.99939%,39.99939%);fill-opacity:0.3;" d="M 318.480469 335.945312 L 327.878906 337.519531 L 323.328125 359.199219 L 314.019531 357.464844 Z M 318.480469 335.945312 "/>
<path style=" stroke:none;fill-rule:nonzero;fill:rgb(39.99939%,39.99939%,39.99939%);fill-opacity:0.3;" d="M 321.574219 321.273438 L 330.847656 322.816406 L 328.292969 335.679688 L 318.929688 333.910156 Z M 321.574219 321.273438 "/>
<g clip-path="url(#clip7)" clip-rule="nonzero">
<path style=" stroke:none;fill-rule:nonzero;fill:rgb(39.99939%,39.99939%,39.99939%);fill-opacity:0.3;" d="M 305.4375 318.367188 L 320.085938 321.019531 L 306 386.027344 L 292.417969 383.75 L 296.371094 363.417969 L 290.75 361.527344 L 295.472656 340.648438 L 299.984375 341.511719 Z M 305.4375 318.367188 "/>
</g>
<path style=" stroke:none;fill-rule:nonzero;fill:rgb(39.99939%,39.99939%,39.99939%);fill-opacity:0.3;" d="M 308.089844 302.414062 L 314.761719 303.714844 L 315.324219 300.957031 L 318.683594 301.613281 L 318.230469 304.390625 L 325.652344 305.835938 L 325.140625 308.953125 L 307.472656 305.671875 Z M 308.089844 302.414062 "/>
<g clip-path="url(#clip8)" clip-rule="nonzero">
<path style=" stroke:none;fill-rule:nonzero;fill:rgb(39.99939%,39.99939%,39.99939%);fill-opacity:0.3;" d="M 340.976562 346.320312 L 349.1875 347.945312 L 346.292969 362.628906 L 338.042969 361.222656 Z M 340.976562 346.320312 "/>
</g>
<path style=" stroke:none;fill-rule:nonzero;fill:rgb(39.99939%,39.99939%,39.99939%);fill-opacity:0.3;" d="M 344.375 329.085938 L 352.621094 330.5 L 349.667969 345.507812 L 341.445312 343.945312 Z M 344.375 329.085938 "/>
<g clip-path="url(#clip9)" clip-rule="nonzero">
<path style=" stroke:none;fill-rule:nonzero;fill:rgb(39.99939%,39.99939%,39.99939%);fill-opacity:0.3;" d="M 355.042969 327.285156 L 368.894531 329.414062 L 358.523438 380.792969 L 344.769531 378.28125 Z M 355.042969 327.285156 "/>
</g>
<g clip-path="url(#clip10)" clip-rule="nonzero">
<path style=" stroke:none;fill-rule:nonzero;fill:rgb(39.99939%,39.99939%,39.99939%);fill-opacity:0.3;" d="M 355.492188 311.652344 L 362.476562 313.011719 L 363.144531 310.277344 L 367.039062 311.035156 L 366.496094 313.796875 L 373.144531 315.089844 L 372.46875 318.523438 L 354.792969 315.261719 Z M 355.492188 311.652344 "/>
</g>
<path style=" stroke:none;fill-rule:nonzero;fill:rgb(39.99939%,39.99939%,39.99939%);fill-opacity:0.3;" d="M 331.617188 307 L 338.582031 308.355469 L 339.214844 305.613281 L 343.132812 306.375 L 342.566406 309.132812 L 349.6875 310.519531 L 348.992188 314.070312 L 330.949219 310.789062 Z M 331.617188 307 "/>
<path style=" stroke:none;fill-rule:nonzero;fill:rgb(39.99939%,39.99939%,39.99939%);fill-opacity:0.3;" d="M 354.207031 172.980469 L 355.890625 178.007812 L 340.855469 182.953125 L 338.859375 176.957031 L 341.175781 176.34375 Z M 354.207031 172.980469 "/>
<g clip-path="url(#clip11)" clip-rule="nonzero">
<path style=" stroke:none;fill-rule:nonzero;fill:rgb(39.99939%,39.99939%,39.99939%);fill-opacity:0.3;" d="M 369.210938 168.824219 L 370.605469 172.976562 L 358.078125 177.257812 L 356.441406 172.402344 L 356.972656 172.265625 Z M 369.210938 168.824219 "/>
</g>
<path style=" stroke:none;fill-rule:nonzero;fill:rgb(39.99939%,39.99939%,39.99939%);fill-opacity:0.3;" d="M 321.828125 183.863281 L 323.644531 189.035156 L 316.625 191.4375 Z M 321.828125 183.863281 "/>
<path style=" stroke:none;fill-rule:nonzero;fill:rgb(39.99939%,39.99939%,39.99939%);fill-opacity:0.3;" d="M 311.074219 193.335938 L 310.992188 193.363281 L 310.300781 191.398438 Z M 311.074219 193.335938 "/>
<g clip-path="url(#clip12)" clip-rule="nonzero">
<path style=" stroke:none;fill-rule:nonzero;fill:rgb(39.99939%,39.99939%,39.99939%);fill-opacity:0.3;" d="M 334.835938 199.042969 L 363.09375 188.25 L 366.382812 196.910156 L 339.679688 208.703125 Z M 334.835938 199.042969 "/>
</g>
<path style=" stroke:none;fill-rule:nonzero;fill:rgb(39.99939%,39.99939%,39.99939%);fill-opacity:0.3;" d="M 305.601562 211.085938 L 332.15625 200.742188 L 335.925781 210.234375 L 309.765625 222.492188 L 308.140625 218.148438 Z M 305.601562 211.085938 "/>
<path style=" stroke:none;fill-rule:nonzero;fill:rgb(39.99939%,39.99939%,39.99939%);fill-opacity:0.3;" d="M 292.371094 173.574219 L 301.414062 170.667969 L 309.558594 193.851562 L 301.015625 196.777344 Z M 292.371094 173.574219 "/>
<path style=" stroke:none;fill-rule:nonzero;fill:rgb(39.99939%,39.99939%,39.99939%);fill-opacity:0.3;" d="M 337.027344 177.441406 L 339.089844 183.753906 L 325.515625 188.394531 L 323.300781 181.722656 L 323.847656 180.929688 Z M 337.027344 177.441406 "/>
<path style=" stroke:none;fill-rule:nonzero;fill:rgb(39.99939%,39.99939%,39.99939%);fill-opacity:0.3;" d="M 275.308594 333.703125 L 274.769531 329.761719 L 273.859375 325.875 L 271.882812 319.625 L 263.648438 304.917969 L 261.785156 302.28125 L 275.511719 290.664062 L 281.175781 298.992188 L 279.890625 305.257812 L 282.273438 307.324219 L 277.535156 334.15625 Z M 275.308594 333.703125 "/>
<path style=" stroke:none;fill-rule:nonzero;fill:rgb(39.99939%,39.99939%,39.99939%);fill-opacity:0.3;" d="M 58.960938 226.019531 L 73.84375 220.621094 L 98.683594 289.511719 L 87.046875 294.222656 L 73.640625 297.417969 L 70.9375 285.828125 L 63.554688 248.355469 L 70.011719 246.183594 L 69.914062 245.105469 L 69.816406 244.023438 L 63.359375 245.832031 Z M 58.960938 226.019531 "/>
<path style=" stroke:none;fill-rule:nonzero;fill:rgb(39.99939%,39.99939%,39.99939%);fill-opacity:0.3;" d="M -56.925781 136.921875 L -53.804688 134.671875 L -8.800781 104.675781 L -3.230469 104.007812 L 0.277344 106.519531 L 3.269531 112.53125 L 8.429688 121.53125 L 15.320312 157.609375 L 3.105469 215.140625 L -7.320312 231.464844 L -13.796875 243.988281 L -17.726562 252.542969 L -17.898438 238.003906 Z M -56.925781 136.921875 "/>
<path style=" stroke:none;fill-rule:nonzero;fill:rgb(39.99939%,39.99939%,39.99939%);fill-opacity:0.3;" d="M -41.585938 96.652344 L -34.957031 87.621094 L -4.84375 82.695312 L -2.542969 83.285156 L -0.445312 84.871094 L 0.8125 86.65625 L 0.816406 88.839844 L -26.394531 110.523438 Z M -41.585938 96.652344 "/>
<path style=" stroke:none;fill-rule:nonzero;fill:rgb(39.99939%,39.99939%,39.99939%);fill-opacity:0.3;" d="M 31.507812 155.367188 L 38.859375 152.476562 L 45.257812 169.886719 L 47.378906 175.65625 L 49.132812 175.050781 L 50.886719 174.449219 L 48.640625 168.839844 L 53.59375 166.863281 L 63.183594 193.152344 L 47.429688 197.582031 Z M 31.507812 155.367188 "/>
<path style=" stroke:none;fill-rule:nonzero;fill:rgb(39.99939%,39.99939%,39.99939%);fill-opacity:0.3;" d="M 23.191406 113.027344 L 19.371094 114.199219 L 11.214844 112.296875 L 12.847656 101.351562 L 17.753906 99.746094 Z M 23.191406 113.027344 "/>
<path style=" stroke:none;fill-rule:nonzero;fill:rgb(39.99939%,39.99939%,39.99939%);fill-opacity:0.3;" d="M 23.476562 260.527344 L 61.457031 254.507812 L 64.578125 273.847656 L 26.703125 280.179688 Z M 23.476562 260.527344 "/>
<path style=" stroke:none;fill-rule:nonzero;fill:rgb(39.99939%,39.99939%,39.99939%);fill-opacity:0.3;" d="M 19.503906 236.945312 L 56.363281 231.722656 L 59.714844 251.523438 L 42.808594 253.230469 L 23.449219 257.445312 Z M 19.503906 236.945312 "/>
<path style=" stroke:none;fill-rule:nonzero;fill:rgb(39.99939%,39.99939%,39.99939%);fill-opacity:0.3;" d="M 27.183594 157.078125 L 43.917969 205.820312 L 24.367188 210.511719 L 21.375 190.679688 L 21.058594 187.730469 L 21.847656 176.214844 L 21.074219 158.640625 Z M 27.183594 157.078125 "/>
<path style=" stroke:none;fill-rule:nonzero;fill:rgb(39.99939%,39.99939%,39.99939%);fill-opacity:0.3;" d="M 49.691406 208.621094 L 55.304688 229.152344 L 17.800781 233.4375 L 14.59375 215.417969 Z M 49.691406 208.621094 "/>
<path style=" stroke:none;fill-rule:nonzero;fill:rgb(39.99939%,39.99939%,39.99939%);fill-opacity:0.3;" d="M 10.894531 225.488281 L 13.039062 234.945312 L -0.796875 237.882812 Z M 10.894531 225.488281 "/>
<path style=" stroke:none;fill-rule:nonzero;fill:rgb(39.99939%,39.99939%,39.99939%);fill-opacity:0.3;" d="M 15.105469 238.800781 L 18.117188 257.441406 L -8.484375 262.226562 L -6.9375 251.367188 L -5.640625 247.652344 L -4.890625 242.101562 Z M 15.105469 238.800781 "/>
<path style=" stroke:none;fill-rule:nonzero;fill:rgb(39.99939%,39.99939%,39.99939%);fill-opacity:0.3;" d="M 27.066406 312.945312 L 30.460938 336.226562 L 13.78125 342.503906 L 0.238281 346.714844 L -5.464844 317.53125 L 8.996094 315.363281 Z M 27.066406 312.945312 "/>
<path style=" stroke:none;fill-rule:nonzero;fill:rgb(39.99939%,39.99939%,39.99939%);fill-opacity:0.3;" d="M 32.015625 312.296875 L 69.730469 305.734375 L 72.875 318.421875 L 35.160156 333.304688 Z M 32.015625 312.296875 "/>
<path style=" stroke:none;fill-rule:nonzero;fill:rgb(39.99939%,39.99939%,39.99939%);fill-opacity:0.3;" d="M 27.070312 285.078125 L 65.101562 278.691406 L 67.804688 298.1875 L 29.734375 304.722656 Z M 27.070312 285.078125 "/>
<path style=" stroke:none;fill-rule:nonzero;fill:rgb(39.99939%,39.99939%,39.99939%);fill-opacity:0.3;" d="M 18.296875 262.03125 L 21.539062 282.578125 L -10.914062 286.988281 L -12.121094 275.523438 L -10.585938 266.8125 Z M 18.296875 262.03125 "/>
<path style=" stroke:none;fill-rule:nonzero;fill:rgb(39.99939%,39.99939%,39.99939%);fill-opacity:0.3;" d="M -10.15625 290.355469 L 22.832031 285.425781 L 25 305.699219 L -6.445312 311.539062 Z M -10.15625 290.355469 "/>
<path style=" stroke:none;fill-rule:nonzero;fill:rgb(39.99939%,39.99939%,39.99939%);fill-opacity:0.3;" d="M 6.734375 72.847656 L -1.300781 81.433594 L -16.023438 66.699219 L -9.453125 61.910156 L -0.820312 54.410156 Z M 6.734375 72.847656 "/>
<path style=" stroke:none;fill-rule:nonzero;fill:rgb(39.99939%,39.99939%,39.99939%);fill-opacity:0.3;" d="M 46.539062 149.207031 L 51.972656 164.523438 L 47.042969 166.339844 L 41.144531 150.886719 Z M 46.539062 149.207031 "/>
<path style=" stroke:none;fill-rule:nonzero;fill:rgb(39.99939%,39.99939%,39.99939%);fill-opacity:0.3;" d="M 49.453125 199.195312 L 64.132812 195.078125 L 72.6875 217.65625 L 56.6875 222.371094 L 51.40625 204.824219 Z M 49.453125 199.195312 "/>
<path style=" stroke:none;fill-rule:nonzero;fill:rgb(39.99939%,39.99939%,39.99939%);fill-opacity:0.3;" d="M 16.53125 120.367188 L 23.277344 118.046875 L 34.460938 149.222656 L 26.734375 151.957031 Z M 16.53125 120.367188 "/>
<path style=" stroke:none;fill-rule:nonzero;fill:rgb(39.99939%,39.99939%,39.99939%);fill-opacity:0.3;" d="M 14 130.652344 L 17.644531 129.792969 L 24.511719 152.464844 L 17.898438 154.636719 Z M 14 130.652344 "/>
<path style=" stroke:none;fill-rule:nonzero;fill:rgb(39.99939%,39.99939%,39.99939%);fill-opacity:0.3;" d="M 25.886719 116.914062 L 32.308594 114.8125 L 46.164062 145.558594 L 37.175781 148.371094 Z M 25.886719 116.914062 "/>
<path style=" stroke:none;fill-rule:nonzero;fill:rgb(39.99939%,39.99939%,39.99939%);fill-opacity:0.3;" d="M 74.671875 305.410156 L 84.296875 304.386719 L 83.441406 301.289062 L 100.59375 294.25 L 106.4375 308.222656 L 106.535156 308.570312 L 77.332031 317.9375 Z M 74.671875 305.410156 "/>
<path style=" stroke:none;fill-rule:nonzero;fill:rgb(39.99939%,39.99939%,39.99939%);fill-opacity:0.3;" d="M 122.320312 237.816406 L 124.972656 249.71875 L 109.375 254.917969 L 108.042969 248.980469 L 106.847656 249.089844 L 105.648438 249.195312 L 107.003906 256.609375 L 108.339844 263.941406 L 96.136719 268.761719 L 91.019531 255.957031 L 85.445312 240.828125 L 78.304688 221.460938 L 116.289062 208.484375 L 120.71875 230.027344 Z M 122.320312 237.816406 "/>
<path style=" stroke:none;fill-rule:nonzero;fill:rgb(39.99939%,39.99939%,39.99939%);fill-opacity:0.3;" d="M 194.085938 181.910156 L 212.644531 175.570312 L 235.738281 236.832031 L 241.707031 252.667969 L 223.539062 260.050781 L 217.027344 242.78125 Z M 194.085938 181.910156 "/>
<path style=" stroke:none;fill-rule:nonzero;fill:rgb(39.99939%,39.99939%,39.99939%);fill-opacity:0.3;" d="M 133.402344 266.957031 L 126.226562 240.019531 L 120.207031 207.148438 L 139.769531 200.464844 L 159.203125 259.96875 L 166.765625 283.128906 L 160.378906 285.863281 L 141.015625 293.597656 Z M 133.402344 266.957031 "/>
<path style=" stroke:none;fill-rule:nonzero;fill:rgb(39.99939%,39.99939%,39.99939%);fill-opacity:0.3;" d="M 51.429688 150.164062 L 69.265625 144.070312 L 80.476562 173.035156 L 62.820312 178.902344 Z M 51.429688 150.164062 "/>
<path style=" stroke:none;fill-rule:nonzero;fill:rgb(39.99939%,39.99939%,39.99939%);fill-opacity:0.3;" d="M 262.183594 155.300781 L 280.644531 149.75 L 308.570312 225.492188 L 291.570312 231.792969 Z M 262.183594 155.300781 "/>
<path style=" stroke:none;fill-rule:nonzero;fill:rgb(39.99939%,39.99939%,39.99939%);fill-opacity:0.3;" d="M 117.355469 127.644531 L 142.371094 119.097656 L 166.699219 183.644531 L 141.6875 192.1875 Z M 117.355469 127.644531 "/>
<path style=" stroke:none;fill-rule:nonzero;fill:rgb(39.99939%,39.99939%,39.99939%);fill-opacity:0.3;" d="M 185.769531 104.273438 L 192.503906 122.132812 L 197.308594 134.882812 L 210.101562 168.820312 L 191.539062 175.160156 L 178.59375 140.816406 L 173.746094 127.957031 L 167.207031 110.613281 Z M 185.769531 104.273438 "/>
<path style=" stroke:none;fill-rule:nonzero;fill:rgb(39.99939%,39.99939%,39.99939%);fill-opacity:0.3;" d="M 189.6875 102.9375 L 208.9375 96.359375 L 233.265625 160.90625 L 214.019531 167.480469 Z M 189.6875 102.9375 "/>
<path style=" stroke:none;fill-rule:nonzero;fill:rgb(39.99939%,39.99939%,39.99939%);fill-opacity:0.3;" d="M 92.511719 136.128906 L 112.890625 129.167969 L 137.222656 193.714844 L 116.84375 200.675781 Z M 92.511719 136.128906 "/>
<path style=" stroke:none;fill-rule:nonzero;fill:rgb(39.99939%,39.99939%,39.99939%);fill-opacity:0.3;" d="M 109.203125 256.910156 L 125.277344 251.640625 L 126.296875 256.4375 L 110.542969 262.398438 Z M 109.203125 256.910156 "/>
<path style=" stroke:none;fill-rule:nonzero;fill:rgb(39.99939%,39.99939%,39.99939%);fill-opacity:0.3;" d="M 144.273438 198.878906 L 169.246094 190.398438 L 199.226562 269.933594 L 170.375 281.660156 Z M 144.273438 198.878906 "/>
<path style=" stroke:none;fill-rule:nonzero;fill:rgb(39.99939%,39.99939%,39.99939%);fill-opacity:0.3;" d="M 173.640625 188.894531 L 191.351562 182.84375 L 220.863281 261.140625 L 203.53125 268.183594 Z M 173.640625 188.894531 "/>
<path style=" stroke:none;fill-rule:nonzero;fill:rgb(39.99939%,39.99939%,39.99939%);fill-opacity:0.3;" d="M 63.527344 181.097656 L 81.238281 175.265625 L 94.050781 208.941406 L 75.761719 214.710938 Z M 63.527344 181.097656 "/>
<path style=" stroke:none;fill-rule:nonzero;fill:rgb(39.99939%,39.99939%,39.99939%);fill-opacity:0.3;" d="M 97.507812 272.398438 L 126.910156 259.414062 L 137.496094 295.246094 L 110.136719 305.898438 Z M 97.507812 272.398438 "/>
<path style=" stroke:none;fill-rule:nonzero;fill:rgb(39.99939%,39.99939%,39.99939%);fill-opacity:0.3;" d="M 72.007812 143.136719 L 89.863281 137.035156 L 114.195312 201.582031 L 96.339844 207.679688 Z M 72.007812 143.136719 "/>
<path style=" stroke:none;fill-rule:nonzero;fill:rgb(39.99939%,39.99939%,39.99939%);fill-opacity:0.3;" d="M 106.4375 308.222656 L 106.578125 308.558594 L 106.535156 308.570312 Z M 106.4375 308.222656 "/>
<path style=" stroke:none;fill-rule:nonzero;fill:rgb(39.99939%,39.99939%,39.99939%);fill-opacity:0.3;" d="M 212.210938 95.242188 L 231.742188 88.570312 L 256.074219 153.117188 L 236.4375 159.824219 Z M 212.210938 95.242188 "/>
<path style=" stroke:none;fill-rule:nonzero;fill:rgb(39.99939%,39.99939%,39.99939%);fill-opacity:0.3;" d="M 234.816406 86.378906 L 250.777344 74.449219 L 279.226562 145.207031 L 259.128906 152.070312 Z M 234.816406 86.378906 "/>
<path style=" stroke:none;fill-rule:nonzero;fill:rgb(39.99939%,39.99939%,39.99939%);fill-opacity:0.3;" d="M 216.5625 174.234375 L 235.8125 167.660156 L 264.382812 243.453125 L 245.542969 251.109375 Z M 216.5625 174.234375 "/>
<path style=" stroke:none;fill-rule:nonzero;fill:rgb(39.99939%,39.99939%,39.99939%);fill-opacity:0.3;" d="M 238.984375 166.574219 L 258.621094 159.867188 L 286.707031 234.378906 L 267.488281 242.191406 Z M 238.984375 166.574219 "/>
<path style=" stroke:none;fill-rule:nonzero;fill:rgb(39.99939%,39.99939%,39.99939%);fill-opacity:0.3;" d="M 305.515625 211.121094 L 305.601562 211.085938 L 308.140625 218.148438 Z M 305.515625 211.121094 "/>
<path style=" stroke:none;fill-rule:nonzero;fill:rgb(39.99939%,39.99939%,39.99939%);fill-opacity:0.3;" d="M 164.476562 111.546875 L 173.316406 135.003906 L 188.804688 176.09375 L 171.097656 182.144531 L 155.40625 140.519531 L 146.765625 117.597656 Z M 164.476562 111.546875 "/>
<path style=" stroke:none;fill-rule:nonzero;fill:rgb(39.99939%,39.99939%,39.99939%);fill-opacity:0.3;" d="M 281.179688 140.804688 L 297.144531 133.890625 L 320.785156 129.601562 L 281.640625 142.28125 Z M 281.179688 140.804688 "/>
<path style=" stroke:none;fill-rule:nonzero;fill:rgb(39.99939%,39.99939%,39.99939%);fill-opacity:0.3;" d="M 279.363281 113.566406 L 288.351562 134.53125 L 279.925781 138.457031 L 273.363281 117.269531 Z M 279.363281 113.566406 "/>
<path style=" stroke:none;fill-rule:nonzero;fill:rgb(39.99939%,39.99939%,39.99939%);fill-opacity:0.3;" d="M 280.457031 113.003906 L 280.617188 112.921875 L 285.625 120.792969 L 288.683594 128.4375 L 291.230469 132.515625 L 293.25 132.3125 L 289.628906 133.9375 Z M 280.457031 113.003906 "/>
<path style=" stroke:none;fill-rule:nonzero;fill:rgb(39.99939%,39.99939%,39.99939%);fill-opacity:0.3;" d="M 307.566406 136.546875 L 321.980469 131.316406 L 329.964844 156.738281 L 316.460938 161.210938 Z M 307.566406 136.546875 "/>
<path style=" stroke:none;fill-rule:nonzero;fill:rgb(39.99939%,39.99939%,39.99939%);fill-opacity:0.3;" d="M 323.867188 130.710938 L 338.167969 126.285156 L 346.863281 151.445312 L 331.894531 156.253906 Z M 323.867188 130.710938 "/>
<g clip-path="url(#clip13)" clip-rule="nonzero">
<path style=" stroke:none;fill-rule:nonzero;fill:rgb(39.99939%,39.99939%,39.99939%);fill-opacity:0.3;" d="M 340.539062 125.355469 L 353.214844 121.285156 L 361.625 146.707031 L 348.949219 150.777344 Z M 340.539062 125.355469 "/>
</g>
<path style=" stroke:none;fill-rule:nonzero;fill:rgb(39.99939%,39.99939%,39.99939%);fill-opacity:0.3;" d="M 333.347656 160.414062 L 348.378906 155.585938 L 354.207031 172.980469 L 341.175781 176.34375 L 338.859375 176.957031 Z M 333.347656 160.414062 "/>
<g clip-path="url(#clip14)" clip-rule="nonzero">
<path style=" stroke:none;fill-rule:nonzero;fill:rgb(39.99939%,39.99939%,39.99939%);fill-opacity:0.3;" d="M 355.085938 120.683594 L 369.3125 116.113281 L 377.722656 141.535156 L 363.496094 146.105469 Z M 355.085938 120.683594 "/>
</g>
<g clip-path="url(#clip15)" clip-rule="nonzero">
<path style=" stroke:none;fill-rule:nonzero;fill:rgb(39.99939%,39.99939%,39.99939%);fill-opacity:0.3;" d="M 350.535156 154.894531 L 363.167969 150.835938 L 369.210938 168.824219 L 356.972656 172.265625 L 356.441406 172.402344 Z M 350.535156 154.894531 "/>
</g>
<path style=" stroke:none;fill-rule:nonzero;fill:rgb(39.99939%,39.99939%,39.99939%);fill-opacity:0.3;" d="M 282.007812 145.246094 L 300.378906 138.597656 L 309.21875 163.566406 L 290.832031 169.441406 Z M 282.007812 145.246094 "/>
<path style=" stroke:none;fill-rule:nonzero;fill:rgb(39.99939%,39.99939%,39.99939%);fill-opacity:0.3;" d="M 302.851562 170.207031 L 315.589844 166.117188 L 321.828125 183.863281 L 316.625 191.4375 L 311.074219 193.335938 L 310.300781 191.398438 Z M 302.851562 170.207031 "/>
<path style=" stroke:none;fill-rule:nonzero;fill:rgb(39.99939%,39.99939%,39.99939%);fill-opacity:0.3;" d="M 317.878906 165.382812 L 331.644531 160.960938 L 337.027344 177.441406 L 323.847656 180.929688 L 323.300781 181.722656 Z M 317.878906 165.382812 "/>
<path style=" stroke:none;fill-rule:nonzero;fill:rgb(39.99939%,39.99939%,39.99939%);fill-opacity:0.3;" d="M 33.632812 94.550781 L 38.558594 108.324219 L 23.191406 113.027344 L 17.753906 99.746094 Z M 33.632812 94.550781 "/>
<path style=" stroke:none;fill-rule:nonzero;fill:rgb(39.99939%,39.99939%,39.99939%);fill-opacity:0.3;" d="M 5.457031 -31.324219 L 5.613281 -30.566406 L 6.550781 -28.234375 L 7.640625 -26.742188 L 9.976562 -24.941406 L 13.3125 -23.378906 L 16.023438 -22.382812 L 18.519531 -21.421875 L 21.507812 -19.878906 L 24.03125 -17.890625 L 25.976562 -15.269531 L 26.902344 -13.132812 L 27.453125 -11.1875 L 27.855469 -8.898438 L 28.089844 -5.121094 L 27.90625 -1.25 L 27.433594 2.539062 L 26.578125 6.664062 L 25.210938 10.722656 L 23.359375 14.464844 L 20.582031 19.566406 L 15.28125 27.929688 L 10.429688 36.820312 L -0.503906 50.828125 L -1.804688 52.007812 L -27.277344 -10.175781 L -27.277344 -13.234375 L -28.804688 -17.3125 L -32.371094 -22.40625 L -38.488281 -29.03125 L -6.179688 -29.132812 Z M 5.457031 -31.324219 "/>
<path style=" stroke:none;fill-rule:nonzero;fill:rgb(39.99939%,39.99939%,39.99939%);fill-opacity:0.3;" d="M 60.871094 -10.878906 L 61.28125 -5.070312 L 61.824219 -0.160156 L 60.890625 7.304688 L 59.398438 12.132812 L 57.085938 17.183594 L 54.660156 21.625 L 6.734375 72.847656 L -0.820312 54.410156 L 2.296875 51.699219 L 13.46875 38.6875 L 19.476562 29.648438 L 24.082031 21.550781 L 27.148438 16.253906 L 28.859375 13.027344 L 29.777344 10.859375 L 30.488281 8.902344 L 31.308594 6.164062 L 31.84375 3.910156 L 32.308594 1.351562 L 32.609375 -1.078125 L 32.757812 -3.082031 L 32.808594 -5.097656 L 32.777344 -6.761719 L 32.671875 -8.5 L 32.589844 -9.367188 L 32.457031 -10.503906 L 32.210938 -12.042969 L 31.335938 -15.34375 L 30.574219 -17.105469 L 29.601562 -18.621094 L 28.25 -20.277344 L 26.6875 -21.683594 L 25.199219 -22.804688 L 23.914062 -23.679688 L 22.488281 -24.574219 L 20.882812 -25.445312 L 19.386719 -26.097656 L 17.621094 -26.648438 L 15.863281 -27.03125 L 13.6875 -27.527344 L 12.414062 -27.96875 L 11.128906 -28.746094 L 10.144531 -30.019531 L 9.464844 -31.851562 L 9.410156 -32.070312 L 17.367188 -33.566406 Z M 60.871094 -10.878906 "/>
<path style=" stroke:none;fill-rule:nonzero;fill:rgb(39.99939%,39.99939%,39.99939%);fill-opacity:0.3;" d="M 52.476562 80.5625 L 64.4375 67.800781 L 74.738281 96.503906 L 59.8125 101.019531 Z M 52.476562 80.5625 "/>
<path style=" stroke:none;fill-rule:nonzero;fill:rgb(39.99939%,39.99939%,39.99939%);fill-opacity:0.3;" d="M 36.160156 93.402344 L 50.71875 86.296875 L 56.417969 102.183594 L 41.1875 107.417969 Z M 36.160156 93.402344 "/>
<path style=" stroke:none;fill-rule:nonzero;fill:rgb(39.99939%,39.99939%,39.99939%);fill-opacity:0.3;" d="M 32.308594 114.8125 L 39.988281 112.304688 L 51.335938 143.9375 L 46.164062 145.558594 Z M 32.308594 114.8125 "/>
<path style=" stroke:none;fill-rule:nonzero;fill:rgb(39.99939%,39.99939%,39.99939%);fill-opacity:0.3;" d="M 42.617188 111.402344 L 57.847656 106.167969 L 69.304688 138.113281 L 53.992188 143.105469 Z M 42.617188 111.402344 "/>
<path style=" stroke:none;fill-rule:nonzero;fill:rgb(39.99939%,39.99939%,39.99939%);fill-opacity:0.3;" d="M 255.84375 1.066406 L 268.78125 -6.757812 L 284.59375 37.320312 L 272.453125 47.359375 Z M 255.84375 1.066406 "/>
<path style=" stroke:none;fill-rule:nonzero;fill:rgb(39.99939%,39.99939%,39.99939%);fill-opacity:0.3;" d="M 209.125 29.503906 L 221.816406 21.640625 L 240.070312 72.527344 L 227.460938 80.605469 Z M 209.125 29.503906 "/>
<path style=" stroke:none;fill-rule:nonzero;fill:rgb(39.99939%,39.99939%,39.99939%);fill-opacity:0.3;" d="M 223.636719 20.539062 L 235.878906 12.597656 L 254.363281 62.316406 L 248.683594 67.015625 L 241.875 71.375 Z M 223.636719 20.539062 "/>
<path style=" stroke:none;fill-rule:nonzero;fill:rgb(39.99939%,39.99939%,39.99939%);fill-opacity:0.3;" d="M 238.644531 11.464844 L 253.527344 2.464844 L 270.277344 49.160156 L 256.3125 60.707031 Z M 238.644531 11.464844 "/>
<path style=" stroke:none;fill-rule:nonzero;fill:rgb(39.99939%,39.99939%,39.99939%);fill-opacity:0.3;" d="M 209.054688 -49.804688 L 213.535156 -51.734375 L 235.109375 8.644531 L 222.175781 16.464844 L 200.265625 -42.734375 Z M 209.054688 -49.804688 "/>
<path style=" stroke:none;fill-rule:nonzero;fill:rgb(39.99939%,39.99939%,39.99939%);fill-opacity:0.3;" d="M 215.734375 -52.539062 L 232.054688 -57.375 L 252.066406 -1.605469 L 237.183594 7.390625 Z M 215.734375 -52.539062 "/>
<path style=" stroke:none;fill-rule:nonzero;fill:rgb(39.99939%,39.99939%,39.99939%);fill-opacity:0.3;" d="M 271.5625 -8.4375 L 285.515625 -16.875 L 300.296875 24.335938 L 287.203125 35.164062 Z M 271.5625 -8.4375 "/>
<path style=" stroke:none;fill-rule:nonzero;fill:rgb(39.99939%,39.99939%,39.99939%);fill-opacity:0.3;" d="M 288.648438 -18.769531 L 301.519531 -26.550781 L 312.597656 4.335938 L 310.367188 16.011719 L 303.238281 21.902344 Z M 288.648438 -18.769531 "/>
<path style=" stroke:none;fill-rule:nonzero;fill:rgb(39.99939%,39.99939%,39.99939%);fill-opacity:0.3;" d="M 172.691406 -21.757812 L 184.734375 -31.023438 L 205.867188 26.683594 L 193.324219 35.757812 Z M 172.691406 -21.757812 "/>
<path style=" stroke:none;fill-rule:nonzero;fill:rgb(39.99939%,39.99939%,39.99939%);fill-opacity:0.3;" d="M 118.050781 40.949219 L 128.328125 26.484375 L 144.613281 71.875 L 130.84375 76.605469 Z M 118.050781 40.949219 "/>
<path style=" stroke:none;fill-rule:nonzero;fill:rgb(39.99939%,39.99939%,39.99939%);fill-opacity:0.3;" d="M 131.589844 26.300781 L 145.082031 18.964844 L 160.8125 60.019531 L 151.070312 69.09375 L 147.082031 70.878906 Z M 131.589844 26.300781 "/>
<path style=" stroke:none;fill-rule:nonzero;fill:rgb(39.99939%,39.99939%,39.99939%);fill-opacity:0.3;" d="M 145.191406 9.992188 L 151.726562 5.980469 L 156.976562 -1.160156 L 174.980469 49.023438 L 162.558594 58.398438 Z M 145.191406 9.992188 "/>
<path style=" stroke:none;fill-rule:nonzero;fill:rgb(39.99939%,39.99939%,39.99939%);fill-opacity:0.3;" d="M 157.464844 -7.328125 L 169.917969 -19.355469 L 190.4375 37.839844 L 177.082031 47.5 Z M 157.464844 -7.328125 "/>
<path style=" stroke:none;fill-rule:nonzero;fill:rgb(39.99939%,39.99939%,39.99939%);fill-opacity:0.3;" d="M 178.554688 51.609375 L 191.914062 41.949219 L 209.539062 91.082031 L 194.511719 96.089844 Z M 178.554688 51.609375 "/>
<path style=" stroke:none;fill-rule:nonzero;fill:rgb(39.99939%,39.99939%,39.99939%);fill-opacity:0.3;" d="M 194.796875 39.867188 L 206.878906 31.125 L 225.160156 82.078125 L 212.785156 90.003906 Z M 194.796875 39.867188 "/>
<path style=" stroke:none;fill-rule:nonzero;fill:rgb(39.99939%,39.99939%,39.99939%);fill-opacity:0.3;" d="M 186.910156 -32.429688 L 198.941406 -42.125 L 220.355469 17.566406 L 207.652344 25.394531 Z M 186.910156 -32.429688 "/>
<path style=" stroke:none;fill-rule:nonzero;fill:rgb(39.99939%,39.99939%,39.99939%);fill-opacity:0.3;" d="M 97.484375 47.585938 L 113.628906 41.492188 L 126.730469 78.019531 L 110.414062 83.628906 Z M 97.484375 47.585938 "/>
<path style=" stroke:none;fill-rule:nonzero;fill:rgb(39.99939%,39.99939%,39.99939%);fill-opacity:0.3;" d="M 111.84375 87.609375 L 128.160156 82 L 139.804688 114.453125 L 123.441406 119.941406 Z M 111.84375 87.609375 "/>
<path style=" stroke:none;fill-rule:nonzero;fill:rgb(39.99939%,39.99939%,39.99939%);fill-opacity:0.3;" d="M 132.273438 80.589844 L 146.042969 75.855469 L 157.730469 108.4375 L 143.925781 113.070312 Z M 132.273438 80.589844 "/>
<path style=" stroke:none;fill-rule:nonzero;fill:rgb(39.99939%,39.99939%,39.99939%);fill-opacity:0.3;" d="M 148.953125 74.707031 L 152.917969 72.933594 L 162.050781 64.429688 L 175.675781 102.414062 L 160.699219 107.441406 Z M 148.953125 74.707031 "/>
<path style=" stroke:none;fill-rule:nonzero;fill:rgb(39.99939%,39.99939%,39.99939%);fill-opacity:0.3;" d="M 164.054688 62.5625 L 176.453125 53.128906 L 192.148438 96.882812 L 178.0625 101.613281 Z M 164.054688 62.5625 "/>
<path style=" stroke:none;fill-rule:nonzero;fill:rgb(39.99939%,39.99939%,39.99939%);fill-opacity:0.3;" d="M 95.691406 93.160156 L 109.378906 88.457031 L 120.96875 120.773438 L 107.269531 125.371094 Z M 95.691406 93.160156 "/>
<path style=" stroke:none;fill-rule:nonzero;fill:rgb(39.99939%,39.99939%,39.99939%);fill-opacity:0.3;" d="M 66.554688 64.886719 L 78.746094 55.140625 L 91.320312 90.1875 L 77.355469 94.988281 Z M 66.554688 64.886719 "/>
<path style=" stroke:none;fill-rule:nonzero;fill:rgb(39.99939%,39.99939%,39.99939%);fill-opacity:0.3;" d="M 61.242188 105 L 75.96875 99.9375 L 87.476562 132.015625 L 72.710938 136.96875 Z M 61.242188 105 "/>
<path style=" stroke:none;fill-rule:nonzero;fill:rgb(39.99939%,39.99939%,39.99939%);fill-opacity:0.3;" d="M 78.78125 98.972656 L 92.75 94.171875 L 104.300781 126.367188 L 90.296875 131.066406 Z M 78.78125 98.972656 "/>
<path style=" stroke:none;fill-rule:nonzero;fill:rgb(39.99939%,39.99939%,39.99939%);fill-opacity:0.3;" d="M 81.410156 53.292969 L 94.957031 48.265625 L 107.949219 84.476562 L 94.28125 89.171875 Z M 81.410156 53.292969 "/>
<g clip-path="url(#clip16)" clip-rule="nonzero">
<path style=" stroke:none;fill-rule:nonzero;fill:rgb(39.99939%,39.99939%,39.99939%);fill-opacity:0.3;" d="M -83.816406 387.425781 L 6.230469 355.652344 L 12.371094 369.722656 L -79.117188 400.90625 Z M -83.816406 387.425781 "/>
</g>
<g clip-path="url(#clip17)" clip-rule="nonzero">
<path style=" stroke:none;fill-rule:nonzero;fill:rgb(39.99939%,39.99939%,39.99939%);fill-opacity:0.3;" d="M 9.972656 354.402344 L 62.375 334.324219 L 70.753906 347.960938 L 15.984375 368.59375 Z M 9.972656 354.402344 "/>
</g>
<g clip-path="url(#clip18)" clip-rule="nonzero">
<path style=" stroke:none;fill-rule:nonzero;fill:rgb(39.99939%,39.99939%,39.99939%);fill-opacity:0.3;" d="M -74.785156 404.417969 L 71.769531 352.511719 L 81.34375 366.746094 L -68.628906 419.960938 Z M -74.785156 404.417969 "/>
</g>
<g clip-path="url(#clip19)" clip-rule="nonzero">
<path style=" stroke:none;fill-rule:nonzero;fill:rgb(39.99939%,39.99939%,39.99939%);fill-opacity:0.3;" d="M 214.019531 387.476562 L 214.667969 382.695312 L 214.902344 379.601562 L 214.964844 376.519531 L 214.839844 373.78125 L 214.558594 371.222656 L 214.105469 368.46875 L 213.554688 365.726562 L 212.84375 362.347656 L 232.246094 358.582031 L 233.527344 365.253906 L 234.28125 370.371094 L 234.757812 374.144531 L 235.074219 377.230469 L 235.328125 381.394531 L 235.332031 384.410156 L 235.113281 387.667969 L 234.769531 390.109375 L 233.855469 394.324219 L 231.644531 401.347656 L 229.746094 406.367188 L 224.09375 419.335938 L 219.386719 428.867188 L 212.757812 441.433594 L 189.042969 441.140625 L 196.832031 429.207031 L 201.722656 420.980469 L 205.195312 414.398438 L 208.027344 408.210938 L 210.316406 402.203125 L 212.777344 393.671875 Z M 214.019531 387.476562 "/>
</g>
<path style=" stroke:none;fill-rule:nonzero;fill:rgb(39.99939%,39.99939%,39.99939%);fill-opacity:0.3;" d="M 216.492188 279.734375 L 235.699219 272.101562 L 245.910156 284.847656 L 251.445312 292.871094 L 256.316406 300.929688 L 267.40625 321.808594 L 270.578125 327.796875 L 271.671875 331.109375 L 272.140625 334.84375 L 272.023438 338.871094 L 255.503906 342.261719 L 249.71875 330.882812 L 240.066406 313.609375 L 231.230469 300.0625 Z M 216.492188 279.734375 "/>
<path style=" stroke:none;fill-rule:nonzero;fill:rgb(39.99939%,39.99939%,39.99939%);fill-opacity:0.3;" d="M 153.96875 304.132812 L 170.027344 297.863281 L 177.738281 307.167969 L 184.617188 316.027344 L 188.460938 321.472656 L 193.277344 328.875 L 197.90625 336.597656 L 201.664062 343.222656 L 206.539062 352.089844 L 187.488281 356.046875 Z M 153.96875 304.132812 "/>
<g clip-path="url(#clip20)" clip-rule="nonzero">
<path style=" stroke:none;fill-rule:nonzero;fill:rgb(39.99939%,39.99939%,39.99939%);fill-opacity:0.3;" d="M 110.757812 320.996094 L 128.683594 314 L 160.867188 360.902344 L 139.492188 364.78125 L 135 358.644531 Z M 110.757812 320.996094 "/>
</g>
<g clip-path="url(#clip21)" clip-rule="nonzero">
<path style=" stroke:none;fill-rule:nonzero;fill:rgb(39.99939%,39.99939%,39.99939%);fill-opacity:0.3;" d="M 131.761719 312.796875 L 151.019531 305.285156 L 182.789062 356.566406 L 164.121094 360.039062 Z M 131.761719 312.796875 "/>
</g>
<path style=" stroke:none;fill-rule:nonzero;fill:rgb(39.99939%,39.99939%,39.99939%);fill-opacity:0.3;" d="M 172.792969 296.785156 L 192.714844 289.011719 L 202.960938 302.535156 L 213.296875 316.742188 L 220.859375 329 L 226.59375 339.90625 L 230.175781 347.167969 L 209.25 350.714844 L 205.453125 343.796875 L 199.398438 333.140625 L 191.625 320.773438 Z M 172.792969 296.785156 "/>
<path style=" stroke:none;fill-rule:nonzero;fill:rgb(39.99939%,39.99939%,39.99939%);fill-opacity:0.3;" d="M 194.539062 288.300781 L 213.816406 280.746094 L 226.128906 297.351562 L 233.925781 308.882812 L 239.855469 318.597656 L 245.640625 329.132812 L 252.800781 342.71875 L 232.195312 347.089844 L 226.859375 336.347656 L 221.90625 327.136719 L 215.316406 316.539062 Z M 194.539062 288.300781 "/>
<path style=" stroke:none;fill-rule:nonzero;fill:rgb(39.99939%,39.99939%,39.99939%);fill-opacity:0.3;" d="M 261.785156 302.28125 L 238.371094 269.097656 L 255.570312 261.53125 L 267.375 278.707031 L 275.511719 290.664062 Z M 261.785156 302.28125 "/>
<g clip-path="url(#clip22)" clip-rule="nonzero">
<path style=" stroke:none;fill-rule:nonzero;fill:rgb(39.99939%,39.99939%,39.99939%);fill-opacity:0.3;" d="M 70.085938 336.867188 L 83.777344 331.523438 L 110.433594 370.570312 L 95.441406 376.074219 Z M 70.085938 336.867188 "/>
</g>
<g clip-path="url(#clip23)" clip-rule="nonzero">
<path style=" stroke:none;fill-rule:nonzero;fill:rgb(39.99939%,39.99939%,39.99939%);fill-opacity:0.3;" d="M 88.351562 329.738281 L 107.429688 322.292969 L 135.394531 365.902344 L 114.074219 370.382812 Z M 88.351562 329.738281 "/>
</g>
<g clip-path="url(#clip24)" clip-rule="nonzero">
<path style=" stroke:none;fill-rule:nonzero;fill:rgb(39.99939%,39.99939%,39.99939%);fill-opacity:0.3;" d="M 139.492188 364.78125 L 139.007812 364.867188 L 135 358.644531 Z M 139.492188 364.78125 "/>
</g>
<path style=" stroke:none;fill-rule:nonzero;fill:rgb(39.99939%,39.99939%,39.99939%);fill-opacity:0.3;" d="M 259.53125 78.257812 L 279.960938 67.738281 L 297.964844 98.878906 L 280.417969 107.886719 L 267.757812 81.089844 L 261.164062 82.957031 Z M 259.53125 78.257812 "/>
<path style=" stroke:none;fill-rule:nonzero;fill:rgb(39.99939%,39.99939%,39.99939%);fill-opacity:0.3;" d="M 280.617188 112.921875 L 300.253906 102.835938 L 311.925781 123.941406 L 293.25 132.3125 L 291.230469 132.515625 L 288.683594 128.4375 L 285.625 120.792969 Z M 280.617188 112.921875 "/>
<path style=" stroke:none;fill-rule:nonzero;fill:rgb(39.99939%,39.99939%,39.99939%);fill-opacity:0.3;" d="M 282.628906 66.367188 L 302.554688 56.109375 L 320.574219 87.273438 L 300.632812 97.507812 Z M 282.628906 66.367188 "/>
<path style=" stroke:none;fill-rule:nonzero;fill:rgb(39.99939%,39.99939%,39.99939%);fill-opacity:0.3;" d="M 322.53125 45.824219 L 340.5625 77.007812 L 323.109375 85.96875 L 305.089844 54.804688 Z M 322.53125 45.824219 "/>
<g clip-path="url(#clip25)" clip-rule="nonzero">
<path style=" stroke:none;fill-rule:nonzero;fill:rgb(39.99939%,39.99939%,39.99939%);fill-opacity:0.3;" d="M 326.007812 44.035156 L 345.941406 33.773438 L 363 65.488281 L 344.039062 75.222656 Z M 326.007812 44.035156 "/>
</g>
<path style=" stroke:none;fill-rule:nonzero;fill:rgb(39.99939%,39.99939%,39.99939%);fill-opacity:0.3;" d="M 322.390625 -9.796875 L 341.988281 29.914062 L 323.382812 39.492188 L 313.457031 22.324219 Z M 322.390625 -9.796875 "/>
<g clip-path="url(#clip26)" clip-rule="nonzero">
<path style=" stroke:none;fill-rule:nonzero;fill:rgb(39.99939%,39.99939%,39.99939%);fill-opacity:0.3;" d="M 330.25 -44.304688 L 365.019531 18.058594 L 345.59375 28.058594 L 323.078125 -15.871094 Z M 330.25 -44.304688 "/>
</g>
<g clip-path="url(#clip27)" clip-rule="nonzero">
<path style=" stroke:none;fill-rule:nonzero;fill:rgb(39.99939%,39.99939%,39.99939%);fill-opacity:0.3;" d="M 349.464844 31.960938 L 367.679688 22.585938 L 385.945312 53.707031 L 366.789062 63.542969 Z M 349.464844 31.960938 "/>
</g>
<g clip-path="url(#clip28)" clip-rule="nonzero">
<path style=" stroke:none;fill-rule:nonzero;fill:rgb(39.99939%,39.99939%,39.99939%);fill-opacity:0.3;" d="M 377.621094 11.628906 L 368.507812 16.316406 L 361.722656 4.539062 L 351.574219 -13.355469 L 392.714844 -34.535156 L 402.460938 -17.03125 L 409.414062 -4.734375 Z M 377.621094 11.628906 "/>
</g>
<path style=" stroke:none;fill-rule:nonzero;fill:rgb(39.99939%,39.99939%,39.99939%);fill-opacity:0.3;" d="M 310.828125 25.578125 L 319.90625 41.28125 L 258.066406 73.117188 L 256.488281 70.390625 Z M 310.828125 25.578125 "/>
<path style=" stroke:none;fill-rule:nonzero;fill:rgb(39.99939%,39.99939%,39.99939%);fill-opacity:0.3;" d="M 302.921875 101.464844 L 322.859375 91.226562 L 337.554688 116.648438 L 315.351562 122.964844 Z M 302.921875 101.464844 "/>
<path style=" stroke:none;fill-rule:nonzero;fill:rgb(39.99939%,39.99939%,39.99939%);fill-opacity:0.3;" d="M 325.394531 89.925781 L 342.847656 80.960938 L 359.816406 110.3125 L 340.378906 115.84375 Z M 325.394531 89.925781 "/>
<g clip-path="url(#clip29)" clip-rule="nonzero">
<path style=" stroke:none;fill-rule:nonzero;fill:rgb(39.99939%,39.99939%,39.99939%);fill-opacity:0.3;" d="M 346.324219 79.175781 L 365.160156 69.503906 L 384.050781 104.613281 L 372.371094 107.949219 L 363.878906 109.53125 Z M 346.324219 79.175781 "/>
</g>
<path style=" stroke:none;fill-rule:nonzero;fill:rgb(39.99939%,39.99939%,39.99939%);fill-opacity:0.3;" d="M 261.699219 84.492188 L 266.945312 83.214844 L 279.289062 108.464844 L 271.425781 112.503906 Z M 261.699219 84.492188 "/>
<path style="fill-rule:nonzero;fill:rgb(39.99939%,39.99939%,39.99939%);fill-opacity:1;stroke-width:0.03;stroke-linecap:square;stroke-linejoin:miter;stroke:rgb(39.99939%,39.99939%,39.99939%);stroke-opacity:1;stroke-miterlimit:3.239307;" d="M 196.320312 250.816406 L 198.972656 262.71875 L 183.375 267.917969 L 182.042969 261.980469 L 180.847656 262.089844 L 179.648438 262.195312 L 181.003906 269.609375 L 182.339844 276.941406 L 170.136719 281.761719 L 165.019531 268.957031 L 159.445312 253.828125 L 152.304688 234.460938 L 190.289062 221.484375 L 194.71875 243.027344 Z M 196.320312 250.816406 " transform="matrix(1,0,0,1,-74,-13)"/>
<path style="fill-rule:nonzero;fill:rgb(39.99939%,39.99939%,39.99939%);fill-opacity:1;stroke-width:0.03;stroke-linecap:square;stroke-linejoin:miter;stroke:rgb(39.99939%,39.99939%,39.99939%);stroke-opacity:1;stroke-miterlimit:3.239307;" d="M 268.085938 194.910156 L 286.644531 188.570312 L 309.738281 249.832031 L 315.707031 265.667969 L 297.539062 273.050781 L 291.027344 255.78125 Z M 268.085938 194.910156 " transform="matrix(1,0,0,1,-74,-13)"/>
<path style="fill-rule:nonzero;fill:rgb(39.99939%,39.99939%,39.99939%);fill-opacity:1;stroke-width:0.03;stroke-linecap:square;stroke-linejoin:miter;stroke:rgb(39.99939%,39.99939%,39.99939%);stroke-opacity:1;stroke-miterlimit:3.239307;" d="M 207.402344 279.957031 L 200.226562 253.019531 L 194.207031 220.148438 L 213.769531 213.464844 L 233.203125 272.96875 L 240.765625 296.128906 L 234.378906 298.863281 L 215.015625 306.597656 Z M 207.402344 279.957031 " transform="matrix(1,0,0,1,-74,-13)"/>
<path style="fill-rule:nonzero;fill:rgb(39.99939%,39.99939%,39.99939%);fill-opacity:1;stroke-width:0.03;stroke-linecap:square;stroke-linejoin:miter;stroke:rgb(39.99939%,39.99939%,39.99939%);stroke-opacity:1;stroke-miterlimit:3.239307;" d="M 125.429688 163.164062 L 143.265625 157.070312 L 154.476562 186.035156 L 136.820312 191.902344 Z M 125.429688 163.164062 " transform="matrix(1,0,0,1,-74,-13)"/>
<path style="fill-rule:nonzero;fill:rgb(39.99939%,39.99939%,39.99939%);fill-opacity:1;stroke-width:0.03;stroke-linecap:square;stroke-linejoin:miter;stroke:rgb(39.99939%,39.99939%,39.99939%);stroke-opacity:1;stroke-miterlimit:3.239307;" d="M 336.183594 168.300781 L 354.644531 162.75 L 382.570312 238.492188 L 365.570312 244.792969 Z M 336.183594 168.300781 " transform="matrix(1,0,0,1,-74,-13)"/>
<path style="fill-rule:nonzero;fill:rgb(39.99939%,39.99939%,39.99939%);fill-opacity:1;stroke-width:0.03;stroke-linecap:square;stroke-linejoin:miter;stroke:rgb(39.99939%,39.99939%,39.99939%);stroke-opacity:1;stroke-miterlimit:3.239307;" d="M 191.355469 140.644531 L 216.371094 132.097656 L 240.699219 196.644531 L 215.6875 205.1875 Z M 191.355469 140.644531 " transform="matrix(1,0,0,1,-74,-13)"/>
<path style="fill-rule:nonzero;fill:rgb(39.99939%,39.99939%,39.99939%);fill-opacity:1;stroke-width:0.03;stroke-linecap:square;stroke-linejoin:miter;stroke:rgb(39.99939%,39.99939%,39.99939%);stroke-opacity:1;stroke-miterlimit:3.239307;" d="M 259.769531 117.273438 L 266.503906 135.132812 L 271.308594 147.882812 L 284.101562 181.820312 L 265.539062 188.160156 L 252.59375 153.816406 L 247.746094 140.957031 L 241.207031 123.613281 Z M 259.769531 117.273438 " transform="matrix(1,0,0,1,-74,-13)"/>
<path style="fill-rule:nonzero;fill:rgb(39.99939%,39.99939%,39.99939%);fill-opacity:1;stroke-width:0.03;stroke-linecap:square;stroke-linejoin:miter;stroke:rgb(39.99939%,39.99939%,39.99939%);stroke-opacity:1;stroke-miterlimit:3.239307;" d="M 263.6875 115.9375 L 282.9375 109.359375 L 307.265625 173.90625 L 288.019531 180.480469 Z M 263.6875 115.9375 " transform="matrix(1,0,0,1,-74,-13)"/>
<path style="fill-rule:nonzero;fill:rgb(39.99939%,39.99939%,39.99939%);fill-opacity:1;stroke-width:0.03;stroke-linecap:square;stroke-linejoin:miter;stroke:rgb(39.99939%,39.99939%,39.99939%);stroke-opacity:1;stroke-miterlimit:3.239307;" d="M 166.511719 149.128906 L 186.890625 142.167969 L 211.222656 206.714844 L 190.84375 213.675781 Z M 166.511719 149.128906 " transform="matrix(1,0,0,1,-74,-13)"/>
<path style="fill-rule:nonzero;fill:rgb(39.99939%,39.99939%,39.99939%);fill-opacity:1;stroke-width:0.03;stroke-linecap:square;stroke-linejoin:miter;stroke:rgb(39.99939%,39.99939%,39.99939%);stroke-opacity:1;stroke-miterlimit:3.239307;" d="M 183.203125 269.910156 L 199.277344 264.640625 L 200.296875 269.4375 L 184.542969 275.398438 Z M 183.203125 269.910156 " transform="matrix(1,0,0,1,-74,-13)"/>
<path style="fill-rule:nonzero;fill:rgb(39.99939%,39.99939%,39.99939%);fill-opacity:1;stroke-width:0.03;stroke-linecap:square;stroke-linejoin:miter;stroke:rgb(39.99939%,39.99939%,39.99939%);stroke-opacity:1;stroke-miterlimit:3.239307;" d="M 218.273438 211.878906 L 243.246094 203.398438 L 273.226562 282.933594 L 244.375 294.660156 Z M 218.273438 211.878906 " transform="matrix(1,0,0,1,-74,-13)"/>
<path style="fill-rule:nonzero;fill:rgb(39.99939%,39.99939%,39.99939%);fill-opacity:1;stroke-width:0.03;stroke-linecap:square;stroke-linejoin:miter;stroke:rgb(39.99939%,39.99939%,39.99939%);stroke-opacity:1;stroke-miterlimit:3.239307;" d="M 247.640625 201.894531 L 265.351562 195.84375 L 294.863281 274.140625 L 277.53125 281.183594 Z M 247.640625 201.894531 " transform="matrix(1,0,0,1,-74,-13)"/>
<path style="fill-rule:nonzero;fill:rgb(39.99939%,39.99939%,39.99939%);fill-opacity:1;stroke-width:0.03;stroke-linecap:square;stroke-linejoin:miter;stroke:rgb(39.99939%,39.99939%,39.99939%);stroke-opacity:1;stroke-miterlimit:3.239307;" d="M 137.527344 194.097656 L 155.238281 188.265625 L 168.050781 221.941406 L 149.761719 227.710938 Z M 137.527344 194.097656 " transform="matrix(1,0,0,1,-74,-13)"/>
<path style="fill-rule:nonzero;fill:rgb(39.99939%,39.99939%,39.99939%);fill-opacity:1;stroke-width:0.03;stroke-linecap:square;stroke-linejoin:miter;stroke:rgb(39.99939%,39.99939%,39.99939%);stroke-opacity:1;stroke-miterlimit:3.239307;" d="M 171.507812 285.398438 L 200.910156 272.414062 L 211.496094 308.246094 L 184.136719 318.898438 Z M 171.507812 285.398438 " transform="matrix(1,0,0,1,-74,-13)"/>
<path style="fill-rule:nonzero;fill:rgb(39.99939%,39.99939%,39.99939%);fill-opacity:1;stroke-width:0.03;stroke-linecap:square;stroke-linejoin:miter;stroke:rgb(39.99939%,39.99939%,39.99939%);stroke-opacity:1;stroke-miterlimit:3.239307;" d="M 146.007812 156.136719 L 163.863281 150.035156 L 188.195312 214.582031 L 170.339844 220.679688 Z M 146.007812 156.136719 " transform="matrix(1,0,0,1,-74,-13)"/>
<path style="fill-rule:nonzero;fill:rgb(39.99939%,39.99939%,39.99939%);fill-opacity:1;stroke-width:0.03;stroke-linecap:square;stroke-linejoin:miter;stroke:rgb(39.99939%,39.99939%,39.99939%);stroke-opacity:1;stroke-miterlimit:3.239307;" d="M 180.4375 321.222656 L 180.578125 321.558594 L 180.535156 321.570312 Z M 180.4375 321.222656 " transform="matrix(1,0,0,1,-74,-13)"/>
<path style="fill-rule:nonzero;fill:rgb(39.99939%,39.99939%,39.99939%);fill-opacity:1;stroke-width:0.03;stroke-linecap:square;stroke-linejoin:miter;stroke:rgb(39.99939%,39.99939%,39.99939%);stroke-opacity:1;stroke-miterlimit:3.239307;" d="M 286.210938 108.242188 L 305.742188 101.570312 L 330.074219 166.117188 L 310.4375 172.824219 Z M 286.210938 108.242188 " transform="matrix(1,0,0,1,-74,-13)"/>
<path style="fill-rule:nonzero;fill:rgb(39.99939%,39.99939%,39.99939%);fill-opacity:1;stroke-width:0.03;stroke-linecap:square;stroke-linejoin:miter;stroke:rgb(39.99939%,39.99939%,39.99939%);stroke-opacity:1;stroke-miterlimit:3.239307;" d="M 308.816406 99.378906 L 324.777344 87.449219 L 353.226562 158.207031 L 333.128906 165.070312 Z M 308.816406 99.378906 " transform="matrix(1,0,0,1,-74,-13)"/>
<path style="fill-rule:nonzero;fill:rgb(39.99939%,39.99939%,39.99939%);fill-opacity:1;stroke-width:0.03;stroke-linecap:square;stroke-linejoin:miter;stroke:rgb(39.99939%,39.99939%,39.99939%);stroke-opacity:1;stroke-miterlimit:3.239307;" d="M 290.5625 187.234375 L 309.8125 180.660156 L 338.382812 256.453125 L 319.542969 264.109375 Z M 290.5625 187.234375 " transform="matrix(1,0,0,1,-74,-13)"/>
<path style="fill-rule:nonzero;fill:rgb(39.99939%,39.99939%,39.99939%);fill-opacity:1;stroke-width:0.03;stroke-linecap:square;stroke-linejoin:miter;stroke:rgb(39.99939%,39.99939%,39.99939%);stroke-opacity:1;stroke-miterlimit:3.239307;" d="M 312.984375 179.574219 L 332.621094 172.867188 L 360.707031 247.378906 L 341.488281 255.191406 Z M 312.984375 179.574219 " transform="matrix(1,0,0,1,-74,-13)"/>
<path style="fill-rule:nonzero;fill:rgb(39.99939%,39.99939%,39.99939%);fill-opacity:1;stroke-width:0.03;stroke-linecap:square;stroke-linejoin:miter;stroke:rgb(39.99939%,39.99939%,39.99939%);stroke-opacity:1;stroke-miterlimit:3.239307;" d="M 379.515625 224.121094 L 379.601562 224.085938 L 382.140625 231.148438 Z M 379.515625 224.121094 " transform="matrix(1,0,0,1,-74,-13)"/>
<path style="fill-rule:nonzero;fill:rgb(39.99939%,39.99939%,39.99939%);fill-opacity:1;stroke-width:0.03;stroke-linecap:square;stroke-linejoin:miter;stroke:rgb(39.99939%,39.99939%,39.99939%);stroke-opacity:1;stroke-miterlimit:3.239307;" d="M 238.476562 124.546875 L 247.316406 148.003906 L 262.804688 189.09375 L 245.097656 195.144531 L 229.40625 153.519531 L 220.765625 130.597656 Z M 238.476562 124.546875 " transform="matrix(1,0,0,1,-74,-13)"/>
<path style=" stroke:none;fill-rule:evenodd;fill:rgb(85.096741%,85.096741%,81.959534%);fill-opacity:0.7;" d="M 259.382812 7 C 259.382812 1.59375 257.238281 -3.589844 253.414062 -7.414062 C 249.589844 -11.238281 244.40625 -13.382812 239 -13.382812 C 233.59375 -13.382812 228.410156 -11.238281 224.585938 -7.414062 C 220.761719 -3.589844 218.617188 1.59375 218.617188 7 C 218.617188 12.40625 220.761719 17.589844 224.585938 21.414062 C 228.410156 25.238281 233.59375 27.382812 239 27.382812 C 244.40625 27.382812 249.589844 25.238281 253.414062 21.414062 C 257.238281 17.589844 259.382812 12.40625 259.382812 7 Z M 259.382812 7 "/>
<g clip-path="url(#clip30)" clip-rule="nonzero">
<path style=" stroke:none;fill-rule:evenodd;fill:rgb(85.096741%,85.096741%,81.959534%);fill-opacity:0.7;" d="M 210.382812 372 C 210.382812 366.59375 208.238281 361.410156 204.414062 357.585938 C 200.589844 353.761719 195.40625 351.617188 190 351.617188 C 184.59375 351.617188 179.410156 353.761719 175.585938 357.585938 C 171.761719 361.410156 169.617188 366.59375 169.617188 372 C 169.617188 377.40625 171.761719 382.589844 175.585938 386.414062 C 179.410156 390.238281 184.59375 392.382812 190 392.382812 C 195.40625 392.382812 200.589844 390.238281 204.414062 386.414062 C 208.238281 382.589844 210.382812 377.40625 210.382812 372 Z M 210.382812 372 "/>
</g>
<g clip-path="url(#clip31)" clip-rule="nonzero">
<path style=" stroke:none;fill-rule:evenodd;fill:rgb(85.096741%,85.096741%,81.959534%);fill-opacity:0.7;" d="M 367.382812 305 C 367.382812 299.59375 365.238281 294.410156 361.414062 290.585938 C 357.589844 286.761719 352.40625 284.617188 347 284.617188 C 341.59375 284.617188 336.410156 286.761719 332.585938 290.585938 C 328.761719 294.410156 326.617188 299.59375 326.617188 305 C 326.617188 310.40625 328.761719 315.589844 332.585938 319.414062 C 336.410156 323.238281 341.59375 325.382812 347 325.382812 C 352.40625 325.382812 357.589844 323.238281 361.414062 319.414062 C 365.238281 315.589844 367.382812 310.40625 367.382812 305 Z M 367.382812 305 "/>
</g>
<path style=" stroke:none;fill-rule:evenodd;fill:rgb(85.096741%,85.096741%,81.959534%);fill-opacity:0.7;" d="M 210.382812 -18 C 210.382812 -23.40625 208.238281 -28.589844 204.414062 -32.414062 C 200.589844 -36.238281 195.40625 -38.382812 190 -38.382812 C 184.59375 -38.382812 179.410156 -36.238281 175.585938 -32.414062 C 171.761719 -28.589844 169.617188 -23.40625 169.617188 -18 C 169.617188 -12.59375 171.761719 -7.410156 175.585938 -3.585938 C 179.410156 0.238281 184.59375 2.382812 190 2.382812 C 195.40625 2.382812 200.589844 0.238281 204.414062 -3.585938 C 208.238281 -7.410156 210.382812 -12.59375 210.382812 -18 Z M 210.382812 -18 "/>
</g>
</svg>
