<?xml version="1.0" encoding="UTF-8"?>
<svg xmlns="http://www.w3.org/2000/svg" xmlns:xlink="http://www.w3.org/1999/xlink" width="361pt" height="361pt" viewBox="0 0 361 361" version="1.1">
<defs>
<clipPath id="clip1">
  <path d="M 7 322 L 42 322 L 42 360 L 7 360 Z M 7 322 "/>
</clipPath>
<clipPath id="clip2">
  <path d="M 0 285 L 113 285 L 113 360 L 0 360 Z M 0 285 "/>
</clipPath>
<clipPath id="clip3">
  <path d="M 295 30 L 360 30 L 360 108 L 295 108 Z M 295 30 "/>
</clipPath>
<clipPath id="clip4">
  <path d="M 283 90 L 360 90 L 360 224 L 283 224 Z M 283 90 "/>
</clipPath>
<clipPath id="clip5">
  <path d="M 293 43 L 360 43 L 360 124 L 293 124 Z M 293 43 "/>
</clipPath>
<clipPath id="clip6">
  <path d="M 342 27 L 360 27 L 360 71 L 342 71 Z M 342 27 "/>
</clipPath>
<clipPath id="clip7">
  <path d="M 304 77 L 360 77 L 360 134 L 304 134 Z M 304 77 "/>
</clipPath>
<clipPath id="clip8">
  <path d="M 332 0 L 360 0 L 360 4 L 332 4 Z M 332 0 "/>
</clipPath>
<clipPath id="clip9">
  <path d="M 311 0 L 360 0 L 360 44 L 311 44 Z M 311 0 "/>
</clipPath>
<clipPath id="clip10">
  <path d="M 270 209 L 360 209 L 360 360 L 270 360 Z M 270 209 "/>
</clipPath>
<clipPath id="clip11">
  <path d="M 267 274 L 360 274 L 360 360 L 267 360 Z M 267 274 "/>
</clipPath>
<clipPath id="clip12">
  <path d="M 60 325 L 180 325 L 180 360 L 60 360 Z M 60 325 "/>
</clipPath>
<clipPath id="clip13">
  <path d="M 95 284 L 255 284 L 255 360 L 95 360 Z M 95 284 "/>
</clipPath>
</defs>
<g id="surface9352">
<path style="fill-rule:nonzero;fill:rgb(0%,0%,0%);fill-opacity:1;stroke-width:0.03;stroke-linecap:square;stroke-linejoin:miter;stroke:rgb(0%,0%,0%);stroke-opacity:1;stroke-miterlimit:10;" d="M 0 178 L 360 178 L 360 -182 L 0 -182 Z M 0 178 " transform="matrix(1,0,0,1,0,182)"/>
<g clip-path="url(#clip1)" clip-rule="nonzero">
<path style=" stroke:none;fill-rule:nonzero;fill:rgb(39.99939%,39.99939%,39.99939%);fill-opacity:0.3;" d="M 24.519531 322.203125 L 29.363281 333.539062 L 26.1875 334.804688 L 26.769531 336.121094 L 29.945312 334.851562 L 33.199219 342.214844 L 30.027344 343.480469 L 30.652344 344.894531 L 33.824219 343.628906 L 36.679688 350.070312 L 33.503906 351.339844 L 34.210938 352.929688 L 37.382812 351.664062 L 41.183594 360.257812 L 34.785156 363.125 L 32.546875 358.066406 L 29.851562 359.140625 L 32.136719 364.3125 L 24.546875 367.867188 L 20.382812 358.457031 L 23.953125 357.03125 L 23.246094 355.441406 L 19.675781 356.867188 L 16.824219 350.417969 L 20.386719 348.996094 L 19.757812 347.582031 L 16.199219 349.003906 L 12.945312 341.648438 L 16.496094 340.226562 L 15.910156 338.914062 L 12.363281 340.332031 L 7.371094 329.054688 L 15.160156 325.941406 L 17.515625 331.269531 L 20.210938 330.191406 L 17.855469 324.867188 Z M 24.519531 322.203125 "/>
</g>
<path style=" stroke:none;fill-rule:nonzero;fill:rgb(39.99939%,39.99939%,39.99939%);fill-opacity:0.3;" d="M 13.78125 293.511719 L 18.09375 304.648438 L 12.515625 306.667969 L 13.992188 310.480469 L 19.578125 308.480469 L 23.1875 317.804688 L 5.347656 324.191406 L 1.738281 314.867188 L 6.554688 313.144531 L 5.070312 309.3125 L 0.253906 311.035156 L -4.058594 299.902344 Z M 13.78125 293.511719 "/>
<g clip-path="url(#clip2)" clip-rule="nonzero">
<path style=" stroke:none;fill-rule:nonzero;fill:rgb(39.99939%,39.99939%,39.99939%);fill-opacity:0.3;" d="M -252.6875 463.851562 L -244.335938 460.828125 L -213.488281 442.128906 L -160.40625 384.277344 L -141.726562 371.957031 L -110.246094 355.21875 L -54.105469 352.609375 L -23.402344 341.644531 L 3.070312 327.253906 L -7.75 298.734375 L 15.117188 290.089844 L 30.113281 325.960938 L 66.25 314.1875 L 70.464844 285.574219 L 107.136719 308.570312 L 112.007812 332.125 L 80.207031 344.933594 L 29.070312 369.808594 L -27.988281 399.304688 L -92.734375 435.742188 L -115.789062 450.15625 L -131.921875 462.371094 L -137.285156 466.976562 L -145.566406 473.601562 L -177.371094 501.105469 L -196.28125 517.4375 L -208.625 528.332031 L -216.246094 534.195312 L -238.398438 485.636719 Z M -252.6875 463.851562 "/>
</g>
<g clip-path="url(#clip3)" clip-rule="nonzero">
<path style=" stroke:none;fill-rule:nonzero;fill:rgb(39.99939%,39.99939%,39.99939%);fill-opacity:0.3;" d="M 295.375 97.691406 L 305.011719 90.988281 L 324.5625 69.363281 L 334.574219 57.039062 L 345.550781 47.785156 L 356.1875 39.246094 L 365.59375 33.257812 L 370.480469 30.480469 L 371.457031 30.601562 L 371.871094 31.058594 L 371.710938 32.011719 L 358.558594 42.722656 L 349.90625 49.953125 L 345.101562 54.523438 L 340.988281 58.550781 L 338.929688 61.269531 L 338.019531 64.859375 L 338.484375 68.335938 L 340.320312 71.59375 L 342.152344 73.222656 L 318.914062 90.15625 L 295.375 107.3125 Z M 295.375 97.691406 "/>
</g>
<g clip-path="url(#clip4)" clip-rule="nonzero">
<path style=" stroke:none;fill-rule:nonzero;fill:rgb(39.99939%,39.99939%,39.99939%);fill-opacity:0.3;" d="M 293.359375 113.050781 L 302.957031 123.921875 L 303.679688 124.667969 L 304.21875 125.390625 L 311.066406 133.199219 L 372.175781 90.140625 L 377.515625 90.117188 L 432.179688 137.449219 L 437.320312 141.820312 L 467.519531 167.492188 L 450.113281 171.839844 L 435.023438 176.953125 L 413.222656 183.03125 L 401.738281 188.175781 L 387.585938 194.054688 L 377.449219 201.527344 L 350.402344 221.460938 L 347.363281 223.148438 L 327.074219 193.910156 L 324.957031 195.558594 L 324.929688 195.582031 L 283.339844 136.664062 Z M 293.359375 113.050781 "/>
</g>
<g clip-path="url(#clip5)" clip-rule="nonzero">
<path style=" stroke:none;fill-rule:nonzero;fill:rgb(39.99939%,39.99939%,39.99939%);fill-opacity:0.3;" d="M 303.050781 123.847656 L 293.445312 112.902344 L 340.125 80.792969 L 369.125 63.109375 L 380.820312 56.085938 L 394.441406 49.238281 L 408.21875 43.988281 L 412.507812 43.980469 L 418.484375 44.117188 L 425.9375 46.855469 L 444.699219 59.933594 L 425.839844 80.914062 L 416.796875 73.445312 L 428.960938 55.183594 L 427.289062 54.113281 L 414.867188 72.523438 L 410.4375 72.550781 L 405.527344 72.683594 L 397.617188 73.859375 L 392.679688 75.621094 L 389.714844 77.628906 L 387.738281 79.507812 L 381.65625 73.238281 L 377.558594 76.019531 L 373.140625 71.5 L 328.59375 104.769531 Z M 303.050781 123.847656 "/>
</g>
<g clip-path="url(#clip6)" clip-rule="nonzero">
<path style=" stroke:none;fill-rule:nonzero;fill:rgb(39.99939%,39.99939%,39.99939%);fill-opacity:0.3;" d="M 400.210938 41.238281 L 389.757812 44.609375 L 365.265625 57.265625 L 356.871094 64.253906 L 352.324219 68.578125 L 348.125 70.246094 L 345.324219 70.25 L 342.871094 68.59375 L 342.515625 66.265625 L 347.757812 58.289062 L 354.046875 50.972656 L 368.042969 42.316406 L 370.492188 40.984375 L 373.636719 36.328125 L 380.617188 27.132812 Z M 400.210938 41.238281 "/>
</g>
<g clip-path="url(#clip7)" clip-rule="nonzero">
<path style=" stroke:none;fill-rule:nonzero;fill:rgb(39.99939%,39.99939%,39.99939%);fill-opacity:0.3;" d="M 372.117188 90.085938 L 311.078125 133.03125 L 304.363281 125.289062 L 330.382812 106.460938 L 369.65625 78.039062 L 374.027344 81.785156 L 380.472656 77.085938 L 384.132812 80.308594 L 371.113281 88.738281 L 371.617188 89.414062 Z M 372.117188 90.085938 "/>
</g>
<path style=" stroke:none;fill-rule:nonzero;fill:rgb(39.99939%,39.99939%,39.99939%);fill-opacity:0.3;" d="M 287.507812 103.164062 L 295.375 97.691406 L 295.375 107.3125 L 292.769531 109.207031 Z M 287.507812 103.164062 "/>
<g clip-path="url(#clip8)" clip-rule="nonzero">
<path style=" stroke:none;fill-rule:nonzero;fill:rgb(39.99939%,39.99939%,39.99939%);fill-opacity:0.3;" d="M 335.238281 3.8125 L 332.742188 -2.6875 L 339.578125 -17.148438 L 384.078125 -34.480469 L 424.6875 -49.347656 L 426.921875 -48.734375 L 429.296875 -45.738281 L 430.132812 -43.082031 L 429.460938 -39.484375 L 422.054688 -35.234375 L 423.558594 -27.457031 L 383.640625 -12.339844 L 371.214844 -7.894531 Z M 335.238281 3.8125 "/>
</g>
<path style=" stroke:none;fill-rule:nonzero;fill:rgb(39.99939%,39.99939%,39.99939%);fill-opacity:0.3;" d="M 270.398438 81.867188 L 272 89.757812 L 273.78125 91.625 L 283.503906 101.832031 L 284.382812 102.835938 L 292.242188 111.667969 L 293.324219 113.011719 L 293.359375 113.050781 L 283.339844 136.664062 L 324.929688 195.582031 L 322.796875 197.242188 L 342.691406 227.125 L 336.890625 233.507812 L 329.089844 238.496094 L 314.238281 246.71875 L 299.832031 252.257812 L 285.601562 257.042969 L 281.960938 258.371094 L 258.640625 194.4375 L 257.160156 183.949219 L 253.582031 160.109375 L 253.054688 150.8125 L 250.425781 121.78125 L 247.71875 81.441406 Z M 270.398438 81.867188 "/>
<path style=" stroke:none;fill-rule:nonzero;fill:rgb(39.99939%,39.99939%,39.99939%);fill-opacity:0.3;" d="M 223.351562 35.789062 L 228.734375 104.699219 L 204.515625 108.242188 L 196.945312 38.761719 Z M 223.351562 35.789062 "/>
<path style=" stroke:none;fill-rule:nonzero;fill:rgb(39.99939%,39.99939%,39.99939%);fill-opacity:0.3;" d="M 172.324219 -6.347656 L 161.339844 40.257812 L 169.265625 114.128906 L 168.164062 114.316406 L 157.0625 114.933594 L 149.941406 112.871094 L 125.441406 92.347656 L 128.902344 87.726562 L 138.355469 67.566406 L 147.765625 40.726562 L 154.792969 26.675781 L 161.113281 11.953125 Z M 172.324219 -6.347656 "/>
<path style=" stroke:none;fill-rule:nonzero;fill:rgb(39.99939%,39.99939%,39.99939%);fill-opacity:0.3;" d="M 164.597656 42.40625 L 193.742188 39.125 L 201.304688 108.710938 L 198.246094 109.160156 L 172.152344 113.632812 Z M 164.597656 42.40625 "/>
<path style=" stroke:none;fill-rule:nonzero;fill:rgb(39.99939%,39.99939%,39.99939%);fill-opacity:0.3;" d="M 187.882812 -19.96875 L 193.433594 36.269531 L 164.296875 39.550781 L 176.214844 -8.011719 Z M 187.882812 -19.96875 "/>
<path style=" stroke:none;fill-rule:nonzero;fill:rgb(39.99939%,39.99939%,39.99939%);fill-opacity:0.3;" d="M 217.105469 -42.074219 L 223.125 32.921875 L 196.632812 35.910156 L 191.050781 -21.976562 Z M 217.105469 -42.074219 "/>
<path style=" stroke:none;fill-rule:nonzero;fill:rgb(39.99939%,39.99939%,39.99939%);fill-opacity:0.3;" d="M 349.839844 21.835938 L 358.5 35.539062 L 353.636719 38.695312 L 348.9375 42.1875 L 340.203125 28.765625 Z M 349.839844 21.835938 "/>
<path style=" stroke:none;fill-rule:nonzero;fill:rgb(39.99939%,39.99939%,39.99939%);fill-opacity:0.3;" d="M 279.703125 76.425781 L 244.449219 76.820312 L 242.554688 51.40625 L 285.351562 49.785156 L 294.25 52.265625 Z M 279.703125 76.425781 "/>
<path style=" stroke:none;fill-rule:nonzero;fill:rgb(39.99939%,39.99939%,39.99939%);fill-opacity:0.3;" d="M 302.90625 83.488281 L 295.222656 89.300781 L 286.726562 78.273438 L 293.617188 70.78125 Z M 302.90625 83.488281 "/>
<path style=" stroke:none;fill-rule:nonzero;fill:rgb(39.99939%,39.99939%,39.99939%);fill-opacity:0.3;" d="M 285.367188 81.367188 L 294.054688 91.871094 L 283.628906 101.699219 L 273.855469 91.542969 L 280.566406 86.09375 Z M 285.367188 81.367188 "/>
<path style=" stroke:none;fill-rule:nonzero;fill:rgb(39.99939%,39.99939%,39.99939%);fill-opacity:0.3;" d="M 301.9375 61.746094 L 310.398438 75.398438 L 304.140625 81.667969 L 295.191406 68.90625 Z M 301.9375 61.746094 "/>
<path style=" stroke:none;fill-rule:nonzero;fill:rgb(39.99939%,39.99939%,39.99939%);fill-opacity:0.3;" d="M 321.550781 44.617188 L 332.503906 56.277344 L 322.363281 65 L 312.71875 52.683594 Z M 321.550781 44.617188 "/>
<path style=" stroke:none;fill-rule:nonzero;fill:rgb(39.99939%,39.99939%,39.99939%);fill-opacity:0.3;" d="M 338.265625 30.253906 L 347.054688 43.785156 L 343.953125 46.421875 L 335.488281 53.96875 L 324.746094 42.070312 Z M 338.265625 30.253906 "/>
<g clip-path="url(#clip9)" clip-rule="nonzero">
<path style=" stroke:none;fill-rule:nonzero;fill:rgb(39.99939%,39.99939%,39.99939%);fill-opacity:0.3;" d="M 375.8125 -7.792969 L 396.21875 -14.105469 L 421.332031 -23.46875 L 390.511719 5.875 L 370.175781 26.792969 L 360.261719 34.472656 L 349.582031 18.789062 L 317.421875 43.015625 L 311.980469 37.976562 L 322.101562 19.289062 L 323.867188 16.210938 L 327.742188 12.511719 L 340.917969 6.167969 L 346.355469 18.105469 L 347.972656 17.375 L 342.488281 5.515625 Z M 375.8125 -7.792969 "/>
</g>
<path style=" stroke:none;fill-rule:nonzero;fill:rgb(39.99939%,39.99939%,39.99939%);fill-opacity:0.3;" d="M 304.257812 59.609375 L 310.523438 53.875 L 319.71875 67.132812 L 316.359375 69.777344 L 312.464844 73.449219 Z M 304.257812 59.609375 "/>
<path style=" stroke:none;fill-rule:nonzero;fill:rgb(39.99939%,39.99939%,39.99939%);fill-opacity:0.3;" d="M 322.332031 -17.320312 L 314.902344 -35.191406 L 326.316406 -16.332031 L 334.445312 -18.207031 L 334.792969 -17.132812 L 297.078125 48.261719 L 288.773438 45.171875 L 242.308594 48.097656 L 240.5625 24.71875 L 291.960938 19.539062 L 300.890625 19.90625 L 302.523438 17.042969 L 304.191406 14.113281 L 319.171875 -12.171875 L 320.753906 -14.746094 Z M 322.332031 -17.320312 "/>
<path style=" stroke:none;fill-rule:nonzero;fill:rgb(39.99939%,39.99939%,39.99939%);fill-opacity:0.3;" d="M 304.1875 14.113281 L 240.359375 20.617188 L 238.40625 -4.226562 L 319.171875 -12.171875 Z M 304.1875 14.113281 "/>
<path style=" stroke:none;fill-rule:nonzero;fill:rgb(39.99939%,39.99939%,39.99939%);fill-opacity:0.3;" d="M 342.691406 227.125 L 343.9375 229 L 336.890625 233.507812 Z M 342.691406 227.125 "/>
<path style=" stroke:none;fill-rule:nonzero;fill:rgb(39.99939%,39.99939%,39.99939%);fill-opacity:0.3;" d="M 350.402344 221.460938 L 347.617188 223.515625 L 347.363281 223.148438 Z M 350.402344 221.460938 "/>
<g clip-path="url(#clip10)" clip-rule="nonzero">
<path style=" stroke:none;fill-rule:nonzero;fill:rgb(39.99939%,39.99939%,39.99939%);fill-opacity:0.3;" d="M 441.378906 272.980469 L 433.613281 270.828125 L 419.242188 265.011719 L 408.289062 256.597656 L 394.601562 250.132812 L 385.015625 244.957031 L 377.488281 240.429688 L 373.386719 241.730469 L 373.402344 250.808594 L 372.046875 259.242188 L 367.953125 265.085938 L 361.109375 263.796875 L 357.703125 272.230469 L 361.816406 278.0625 L 365.246094 283.894531 L 372.089844 286.480469 L 377.558594 285.824219 L 383.710938 283.867188 L 396.714844 290.984375 L 404.25 298.105469 L 407.6875 309.125 L 407.703125 318.851562 L 412.5 326.628906 L 415.941406 340.890625 L 418.691406 348.667969 L 424.859375 359.035156 L 428.296875 368.757812 L 429.691406 385.617188 L 416.675781 372.664062 L 412.554688 362.292969 L 406.386719 353.871094 L 398.851562 344.15625 L 390.625 331.847656 L 385.140625 324.070312 L 383.761719 316.292969 L 377.597656 310.464844 L 367.347656 316.964844 L 356.414062 320.871094 L 348.886719 318.9375 L 343.414062 318.292969 L 337.265625 320.898438 L 337.957031 324.789062 L 344.808594 333.855469 L 345.503906 340.988281 L 340.71875 341.644531 L 335.246094 341.652344 L 326.34375 335.179688 L 318.816406 331.949219 L 308.5625 333.257812 L 312.671875 338.441406 L 312.6875 347.519531 L 317.476562 349.457031 L 324.328125 355.933594 L 328.433594 357.875 L 338.007812 359.15625 L 344.851562 361.742188 L 349.664062 377.945312 L 354.472656 390.910156 L 361.316406 393.492188 L 368.84375 396.726562 L 385.257812 399.296875 L 405.105469 408.996094 L 419.484375 418.054688 L 439.339844 432.941406 L 459.878906 447.828125 L 473.582031 465.316406 L 486.59375 477.621094 L 499.613281 493.8125 L 498.546875 498.3125 L 495.925781 500.390625 L 490.246094 504.546875 L 477.574219 512.859375 L 471.894531 517.429688 L 457.898438 519.523438 L 442.589844 520.375 L 432.105469 520.539062 L 416.15625 517.160156 L 400.105469 510.664062 L 391.394531 505.554688 L 338.351562 428.046875 L 304.828125 380.773438 L 286.777344 344.671875 L 277.324219 339.515625 L 273.027344 301.695312 L 270.214844 274.292969 L 308.207031 259.359375 L 315.679688 257.644531 L 327.945312 251.804688 L 344.246094 240.359375 L 359.003906 229.347656 L 382.65625 209.351562 L 434.492188 262.691406 L 436.105469 261.332031 Z M 441.378906 272.980469 "/>
</g>
<path style=" stroke:none;fill-rule:nonzero;fill:rgb(39.99939%,39.99939%,39.99939%);fill-opacity:0.3;" d="M 281.960938 258.371094 L 277.839844 259.871094 L 260.714844 209.085938 L 258.640625 194.4375 Z M 281.960938 258.371094 "/>
<path style=" stroke:none;fill-rule:nonzero;fill:rgb(39.99939%,39.99939%,39.99939%);fill-opacity:0.3;" d="M 70.464844 285.574219 L 81.085938 213.453125 L 51.429688 167.292969 L 79.628906 138.382812 L 80.492188 122.914062 L 86.507812 65.324219 L 97.875 51.429688 L 99.34375 52.890625 L 110.496094 70.589844 L 117.707031 91.871094 L 108.976562 105.507812 L 111.898438 107.632812 L 114.914062 105.292969 L 156.789062 119.761719 L 165.875 136.894531 L 152.804688 149.746094 L 154.070312 187.738281 L 221.367188 280.589844 L 204.804688 286.25 L 195.230469 290.183594 L 181.914062 275.050781 L 180.910156 275.203125 L 178.089844 274.058594 L 174.460938 274.359375 L 170.671875 276.765625 L 149.328125 280.019531 L 153.710938 269.957031 L 156.453125 263.828125 L 156.265625 260.484375 L 155.226562 256.648438 L 144.992188 237.554688 L 144.90625 230.175781 L 144.109375 225.679688 L 143.492188 226.339844 L 142.875 227.003906 L 143.035156 230.355469 L 143.015625 237.5 L 152.496094 255.582031 L 153.722656 259.148438 L 154.105469 262.199219 L 153.351562 264.757812 L 149.292969 273.101562 L 146.234375 280.492188 L 131.203125 282.785156 L 123.46875 293.960938 L 107.136719 308.570312 Z M 70.464844 285.574219 "/>
<path style=" stroke:none;fill-rule:nonzero;fill:rgb(39.99939%,39.99939%,39.99939%);fill-opacity:0.3;" d="M 228.734375 104.699219 L 229.097656 109.335938 L 205.015625 112.828125 L 204.515625 108.242188 Z M 228.734375 104.699219 "/>
<path style=" stroke:none;fill-rule:nonzero;fill:rgb(39.99939%,39.99939%,39.99939%);fill-opacity:0.3;" d="M 169.265625 114.128906 L 169.746094 118.605469 L 157.0625 114.933594 L 168.164062 114.316406 Z M 169.265625 114.128906 "/>
<path style=" stroke:none;fill-rule:nonzero;fill:rgb(39.99939%,39.99939%,39.99939%);fill-opacity:0.3;" d="M 149.941406 112.871094 L 117.175781 103.390625 L 125.441406 92.347656 Z M 149.941406 112.871094 "/>
<path style=" stroke:none;fill-rule:nonzero;fill:rgb(39.99939%,39.99939%,39.99939%);fill-opacity:0.3;" d="M 201.304688 108.710938 L 201.753906 112.832031 L 172.519531 117.132812 L 172.152344 113.632812 L 198.246094 109.160156 Z M 201.304688 108.710938 "/>
<path style=" stroke:none;fill-rule:nonzero;fill:rgb(39.99939%,39.99939%,39.99939%);fill-opacity:0.3;" d="M 170.316406 121.9375 L 202.003906 117.402344 L 204.054688 135.503906 L 207.519531 135.191406 L 210.984375 134.882812 L 208.945312 115.507812 L 231.015625 112.613281 L 245.15625 270.359375 L 228.148438 278.277344 L 208.171875 251.015625 L 201.953125 167.839844 L 198.046875 168.003906 L 204.554688 246.035156 L 178.921875 212.457031 L 160.957031 183.609375 L 158.199219 147.460938 L 172.371094 137.023438 Z M 170.316406 121.9375 "/>
<path style=" stroke:none;fill-rule:nonzero;fill:rgb(39.99939%,39.99939%,39.99939%);fill-opacity:0.3;" d="M 239.394531 162.992188 L 248.972656 161.921875 L 256.914062 211.898438 L 265.277344 236.449219 L 272.675781 262.648438 L 249.335938 268.476562 Z M 239.394531 162.992188 "/>
<g clip-path="url(#clip11)" clip-rule="nonzero">
<path style=" stroke:none;fill-rule:nonzero;fill:rgb(39.99939%,39.99939%,39.99939%);fill-opacity:0.3;" d="M 391.394531 505.554688 L 386.800781 502.859375 L 354.671875 473.351562 L 338.914062 454.605469 L 284.632812 416.820312 L 267.636719 275.304688 L 270.214844 274.292969 L 273.027344 301.695312 L 277.324219 339.515625 L 286.777344 344.671875 L 304.828125 380.773438 L 338.351562 428.046875 Z M 391.394531 505.554688 "/>
</g>
<path style=" stroke:none;fill-rule:nonzero;fill:rgb(39.99939%,39.99939%,39.99939%);fill-opacity:0.3;" d="M 195.230469 290.183594 L 194.890625 290.320312 L 185.359375 280.054688 L 181.722656 275.53125 L 180.910156 275.203125 L 181.914062 275.050781 Z M 195.230469 290.183594 "/>
<path style=" stroke:none;fill-rule:nonzero;fill:rgb(39.99939%,39.99939%,39.99939%);fill-opacity:0.3;" d="M 170.671875 276.765625 L 168.246094 278.304688 L 163.132812 282.765625 L 152.90625 285.710938 L 148.449219 286.898438 L 147.824219 285.421875 L 147.714844 283.453125 L 148.648438 281.582031 L 149.328125 280.019531 Z M 170.671875 276.765625 "/>
<path style=" stroke:none;fill-rule:nonzero;fill:rgb(39.99939%,39.99939%,39.99939%);fill-opacity:0.3;" d="M 146.234375 280.492188 L 145.257812 282.851562 L 145.765625 286.402344 L 147.136719 288.722656 L 149.082031 288.789062 L 153.472656 287.6875 L 162.113281 285.832031 L 164.847656 284.464844 L 170.167969 280.152344 L 173.117188 277.960938 L 174.988281 277.140625 L 177.292969 277.410156 L 182.269531 280.886719 L 184.570312 284.636719 L 190.613281 292.023438 L 175.113281 299.40625 L 161.953125 308.589844 L 150.507812 316.617188 L 112.007812 332.125 L 107.136719 308.570312 L 123.46875 293.960938 L 131.203125 282.785156 Z M 146.234375 280.492188 "/>
<g clip-path="url(#clip12)" clip-rule="nonzero">
<path style=" stroke:none;fill-rule:nonzero;fill:rgb(39.99939%,39.99939%,39.99939%);fill-opacity:0.3;" d="M 160.269531 325.660156 L 179.011719 442.464844 L 92.578125 433.363281 L 86.914062 422.203125 L 60.65625 363.09375 L 79.507812 354.527344 L 104.648438 416.632812 L 107.105469 420.394531 L 110.71875 421.460938 L 165.054688 429.605469 L 155.328125 361.335938 L 153.546875 359.089844 L 149.988281 357.410156 L 143.761719 356.855469 L 96.425781 367.09375 L 92.542969 348.960938 L 128.5 335.960938 L 146.316406 329.078125 Z M 160.269531 325.660156 "/>
</g>
<g clip-path="url(#clip13)" clip-rule="nonzero">
<path style=" stroke:none;fill-rule:nonzero;fill:rgb(39.99939%,39.99939%,39.99939%);fill-opacity:0.3;" d="M 179.15625 442.5 L 160.386719 325.542969 L 190.710938 301.972656 L 233.171875 284.492188 L 239.125 284.558594 L 243.554688 286.523438 L 247.265625 291.363281 L 254.992188 424.140625 L 253.566406 437.878906 L 248.175781 505.003906 L 150.046875 544.761719 L 149.257812 543.230469 L 135.59375 485.855469 L 132.148438 473.484375 L 124.347656 462.902344 L 112.140625 453.597656 L 95.535156 439.144531 L 95.496094 439.066406 L 131.929688 445.164062 L 165.640625 449.394531 L 179.574219 449.480469 L 179.398438 446.636719 Z M 179.15625 442.5 "/>
</g>
<path style=" stroke:none;fill-rule:nonzero;fill:rgb(39.99939%,39.99939%,39.99939%);fill-opacity:0.3;" d="M 54.738281 87.398438 L 51.714844 70.902344 L 55.597656 59.800781 L 69.105469 29.269531 L 69.574219 23.292969 L 68.136719 16.636719 L 64.34375 7.085938 L 56.761719 -0.355469 L 34.910156 -18.917969 L 38.875 -23 L 48.730469 -18.5625 L 56.441406 -14.925781 L 64.175781 -9.605469 L 77.214844 3.832031 L 82.183594 13.296875 L 87.5 41.101562 L 97.875 51.429688 L 86.507812 65.324219 Z M 54.738281 87.398438 "/>
<path style=" stroke:none;fill-rule:nonzero;fill:rgb(39.99939%,39.99939%,39.99939%);fill-opacity:0.3;" d="M 99.773438 42.503906 L 92.308594 37.3125 L 89.042969 23.484375 Z M 99.773438 42.503906 "/>
<path style=" stroke:none;fill-rule:nonzero;fill:rgb(39.99939%,39.99939%,39.99939%);fill-opacity:0.3;" d="M 55.769531 16.238281 L 25.234375 4.976562 L 31.261719 -9.867188 Z M 55.769531 16.238281 "/>
<path style=" stroke:none;fill-rule:nonzero;fill:rgb(39.99939%,39.99939%,39.99939%);fill-opacity:0.3;" d="M 22.78125 11.011719 L 54.796875 23.609375 L 55.628906 27.53125 L 55.925781 33.003906 L 55.355469 36.558594 L 51.941406 42.289062 L 16.214844 27.191406 Z M 22.78125 11.011719 "/>
<path style=" stroke:none;fill-rule:nonzero;fill:rgb(39.99939%,39.99939%,39.99939%);fill-opacity:0.3;" d="M 14.558594 31.652344 L 50.808594 46.011719 L 49.320312 50.519531 L 49.039062 55.992188 L 45.589844 63.65625 L 43.148438 69.113281 L 7.5 51.21875 L 6.597656 50.875 Z M 14.558594 31.652344 "/>
<path style=" stroke:none;fill-rule:nonzero;fill:rgb(39.99939%,39.99939%,39.99939%);fill-opacity:0.3;" d="M 30.113281 88.597656 L -3.121094 74.628906 L 4.6875 55.402344 L 38.347656 71.648438 L 34.300781 78.429688 L 33.730469 82.535156 L 34.890625 87.457031 L 34.847656 90.203125 Z M 30.113281 88.597656 "/>
<path style=" stroke:none;fill-rule:nonzero;fill:rgb(39.99939%,39.99939%,39.99939%);fill-opacity:0.3;" d="M 26.015625 -15.171875 L 19.390625 3.484375 L -23.488281 -10.210938 L -18.382812 -14.730469 L -10.875 -23.335938 L -7.460938 -27.066406 L -5.949219 -26.894531 Z M 26.015625 -15.171875 "/>
<path style=" stroke:none;fill-rule:nonzero;fill:rgb(39.99939%,39.99939%,39.99939%);fill-opacity:0.3;" d="M 16.832031 8.671875 L 10.171875 25.261719 L -45.695312 7.679688 L -35.109375 -0.117188 L -28.453125 -5.800781 L -26.574219 -7.425781 L -25.304688 -7.910156 Z M 16.832031 8.671875 "/>
<path style=" stroke:none;fill-rule:nonzero;fill:rgb(39.99939%,39.99939%,39.99939%);fill-opacity:0.3;" d="M 8.34375 29.820312 L 0.78125 48.664062 L -18.5625 40.914062 L -57.453125 29.421875 L -57.125 19.53125 L -56.101562 14.03125 L -54.574219 11.261719 L -51.320312 10.511719 Z M 8.34375 29.820312 "/>
<path style=" stroke:none;fill-rule:nonzero;fill:rgb(39.99939%,39.99939%,39.99939%);fill-opacity:0.3;" d="M -47.605469 59.339844 L -8.820312 72.496094 L -6.308594 73.546875 L -3.207031 74.847656 L 13.375 81.847656 L 20.128906 84.699219 L 26.757812 87.460938 L -10.621094 74.777344 L -60.472656 55.007812 L -67.347656 25.785156 L -72.507812 14.609375 L -69.308594 11.105469 L -61.105469 9.542969 L -62.738281 31.394531 L -57.722656 36.453125 L -52.242188 50.59375 L -50.421875 54.027344 Z M -47.605469 59.339844 "/>
<path style=" stroke:none;fill-rule:nonzero;fill:rgb(39.99939%,39.99939%,39.99939%);fill-opacity:0.3;" d="M 37.128906 93.222656 L 40.824219 97.070312 L 35.792969 100.5625 Z M 37.128906 93.222656 "/>
<path style=" stroke:none;fill-rule:nonzero;fill:rgb(39.99939%,39.99939%,39.99939%);fill-opacity:0.3;" d="M 51.429688 167.292969 L 47.824219 161.683594 L 60.285156 117.675781 L 54.738281 87.398438 L 86.507812 65.324219 L 80.492188 122.914062 L 79.628906 138.382812 Z M 51.429688 167.292969 "/>
<path style=" stroke:none;fill-rule:nonzero;fill:rgb(39.99939%,39.99939%,39.99939%);fill-opacity:0.3;" d="M 34.839844 90.585938 L 30.113281 88.597656 L 34.847656 90.203125 Z M 34.839844 90.585938 "/>
<path style=" stroke:none;fill-rule:nonzero;fill:rgb(39.99939%,39.99939%,39.99939%);fill-opacity:0.3;" d="M 26.757812 87.460938 L 34.820312 90.820312 L 37.128906 93.222656 L 35.792969 100.5625 L 40.824219 97.070312 L 44.203125 100.585938 L 49.046875 105.628906 L 53.34375 121.25 L 49.703125 140.527344 L 44.847656 151.9375 L 35.097656 161.792969 L 21.082031 178.019531 L 1.578125 196.570312 L -11.871094 206.457031 L -24.207031 215.394531 L -150.722656 14.609375 L -118.0625 18.050781 L -97.433594 17.191406 L -72.507812 14.609375 L -67.347656 25.785156 L -60.472656 55.007812 L -10.621094 74.777344 Z M 26.757812 87.460938 "/>
<path style=" stroke:none;fill-rule:nonzero;fill:rgb(39.99939%,39.99939%,39.99939%);fill-opacity:0.3;" d="M 87.996094 19.046875 L 134.945312 -75.097656 L 210.148438 -125.96875 L 210.808594 -125.230469 L 213.71875 -114.320312 L 209.503906 -98.070312 L 159.234375 -56.183594 L 131.117188 -12.148438 L 104.453125 45.757812 L 99.773438 42.503906 L 89.042969 23.484375 Z M 87.996094 19.046875 "/>
<path style=" stroke:none;fill-rule:nonzero;fill:rgb(39.99939%,39.99939%,39.99939%);fill-opacity:0.3;" d="M 70.09375 -16.851562 L 118.828125 -109.984375 L 194.753906 -158.832031 L 209.421875 -133.136719 L 135.285156 -84.976562 L 84.765625 6.128906 Z M 70.09375 -16.851562 "/>
<path style=" stroke:none;fill-rule:nonzero;fill:rgb(39.99939%,39.99939%,39.99939%);fill-opacity:0.3;" d="M 107.675781 51.875 L 162.097656 -53.109375 L 209.546875 -91.402344 L 215.800781 -92.390625 L 215.910156 -91.765625 L 211.027344 -67.230469 L 211.046875 -55.890625 L 203.890625 -45.105469 L 195.808594 -34.738281 L 184.292969 -23.390625 L 160.75 -3.363281 L 126.253906 67.753906 Z M 107.675781 51.875 "/>
<path style="fill-rule:nonzero;fill:rgb(39.99939%,39.99939%,39.99939%);fill-opacity:1;stroke-width:0.03;stroke-linecap:square;stroke-linejoin:miter;stroke:rgb(39.99939%,39.99939%,39.99939%);stroke-opacity:1;stroke-miterlimit:3.239307;" d="M 355.960938 271.371094 L 351.839844 272.871094 L 334.714844 222.085938 L 332.640625 207.4375 Z M 355.960938 271.371094 " transform="matrix(1,0,0,1,-74,-13)"/>
<path style="fill-rule:nonzero;fill:rgb(39.99939%,39.99939%,39.99939%);fill-opacity:1;stroke-width:0.03;stroke-linecap:square;stroke-linejoin:miter;stroke:rgb(39.99939%,39.99939%,39.99939%);stroke-opacity:1;stroke-miterlimit:3.239307;" d="M 144.464844 298.574219 L 155.085938 226.453125 L 125.429688 180.292969 L 153.628906 151.382812 L 154.492188 135.914062 L 160.507812 78.324219 L 171.875 64.429688 L 173.34375 65.890625 L 184.496094 83.589844 L 191.707031 104.871094 L 182.976562 118.507812 L 185.898438 120.632812 L 188.914062 118.292969 L 230.789062 132.761719 L 239.875 149.894531 L 226.804688 162.746094 L 228.070312 200.738281 L 295.367188 293.589844 L 278.804688 299.25 L 269.230469 303.183594 L 255.914062 288.050781 L 254.910156 288.203125 L 252.089844 287.058594 L 248.460938 287.359375 L 244.671875 289.765625 L 223.328125 293.019531 L 227.710938 282.957031 L 230.453125 276.828125 L 230.265625 273.484375 L 229.226562 269.648438 L 218.992188 250.554688 L 218.90625 243.175781 L 218.109375 238.679688 L 217.492188 239.339844 L 216.875 240.003906 L 217.035156 243.355469 L 217.015625 250.5 L 226.496094 268.582031 L 227.722656 272.148438 L 228.105469 275.199219 L 227.351562 277.757812 L 223.292969 286.101562 L 220.234375 293.492188 L 205.203125 295.785156 L 197.46875 306.960938 L 181.136719 321.570312 Z M 144.464844 298.574219 " transform="matrix(1,0,0,1,-74,-13)"/>
<path style="fill-rule:nonzero;fill:rgb(39.99939%,39.99939%,39.99939%);fill-opacity:1;stroke-width:0.03;stroke-linecap:square;stroke-linejoin:miter;stroke:rgb(39.99939%,39.99939%,39.99939%);stroke-opacity:1;stroke-miterlimit:3.239307;" d="M 302.734375 117.699219 L 303.097656 122.335938 L 279.015625 125.828125 L 278.515625 121.242188 Z M 302.734375 117.699219 " transform="matrix(1,0,0,1,-74,-13)"/>
<path style="fill-rule:nonzero;fill:rgb(39.99939%,39.99939%,39.99939%);fill-opacity:1;stroke-width:0.03;stroke-linecap:square;stroke-linejoin:miter;stroke:rgb(39.99939%,39.99939%,39.99939%);stroke-opacity:1;stroke-miterlimit:3.239307;" d="M 243.265625 127.128906 L 243.746094 131.605469 L 231.0625 127.933594 L 242.164062 127.316406 Z M 243.265625 127.128906 " transform="matrix(1,0,0,1,-74,-13)"/>
<path style="fill-rule:nonzero;fill:rgb(39.99939%,39.99939%,39.99939%);fill-opacity:1;stroke-width:0.03;stroke-linecap:square;stroke-linejoin:miter;stroke:rgb(39.99939%,39.99939%,39.99939%);stroke-opacity:1;stroke-miterlimit:3.239307;" d="M 223.941406 125.871094 L 191.175781 116.390625 L 199.441406 105.347656 Z M 223.941406 125.871094 " transform="matrix(1,0,0,1,-74,-13)"/>
<path style="fill-rule:nonzero;fill:rgb(39.99939%,39.99939%,39.99939%);fill-opacity:1;stroke-width:0.03;stroke-linecap:square;stroke-linejoin:miter;stroke:rgb(39.99939%,39.99939%,39.99939%);stroke-opacity:1;stroke-miterlimit:3.239307;" d="M 275.304688 121.710938 L 275.753906 125.832031 L 246.519531 130.132812 L 246.152344 126.632812 L 272.246094 122.160156 Z M 275.304688 121.710938 " transform="matrix(1,0,0,1,-74,-13)"/>
<path style="fill-rule:nonzero;fill:rgb(39.99939%,39.99939%,39.99939%);fill-opacity:1;stroke-width:0.03;stroke-linecap:square;stroke-linejoin:miter;stroke:rgb(39.99939%,39.99939%,39.99939%);stroke-opacity:1;stroke-miterlimit:3.239307;" d="M 244.316406 134.9375 L 276.003906 130.402344 L 278.054688 148.503906 L 281.519531 148.191406 L 284.984375 147.882812 L 282.945312 128.507812 L 305.015625 125.613281 L 319.15625 283.359375 L 302.148438 291.277344 L 282.171875 264.015625 L 275.953125 180.839844 L 272.046875 181.003906 L 278.554688 259.035156 L 252.921875 225.457031 L 234.957031 196.609375 L 232.199219 160.460938 L 246.371094 150.023438 Z M 244.316406 134.9375 " transform="matrix(1,0,0,1,-74,-13)"/>
<path style="fill-rule:nonzero;fill:rgb(39.99939%,39.99939%,39.99939%);fill-opacity:1;stroke-width:0.03;stroke-linecap:square;stroke-linejoin:miter;stroke:rgb(39.99939%,39.99939%,39.99939%);stroke-opacity:1;stroke-miterlimit:3.239307;" d="M 313.394531 175.992188 L 322.972656 174.921875 L 330.914062 224.898438 L 339.277344 249.449219 L 346.675781 275.648438 L 323.335938 281.476562 Z M 313.394531 175.992188 " transform="matrix(1,0,0,1,-74,-13)"/>
</g>
</svg>
