<?xml version="1.0" encoding="UTF-8"?>
<svg xmlns="http://www.w3.org/2000/svg" xmlns:xlink="http://www.w3.org/1999/xlink" width="361pt" height="361pt" viewBox="0 0 361 361" version="1.1">
<defs>
<clipPath id="clip1">
  <path d="M 225 172 L 360 172 L 360 196 L 225 196 Z M 225 172 "/>
</clipPath>
<clipPath id="clip2">
  <path d="M 335 8 L 360 8 L 360 40 L 335 40 Z M 335 8 "/>
</clipPath>
<clipPath id="clip3">
  <path d="M 331 33 L 360 33 L 360 73 L 331 73 Z M 331 33 "/>
</clipPath>
<clipPath id="clip4">
  <path d="M 318 59 L 360 59 L 360 128 L 318 128 Z M 318 59 "/>
</clipPath>
<clipPath id="clip5">
  <path d="M 318 0 L 360 0 L 360 58 L 318 58 Z M 318 0 "/>
</clipPath>
<clipPath id="clip6">
  <path d="M 299 0 L 360 0 L 360 25 L 299 25 Z M 299 0 "/>
</clipPath>
<clipPath id="clip7">
  <path d="M 350 138 L 360 138 L 360 171 L 350 171 Z M 350 138 "/>
</clipPath>
<clipPath id="clip8">
  <path d="M 350 96 L 360 96 L 360 131 L 350 131 Z M 350 96 "/>
</clipPath>
<clipPath id="clip9">
  <path d="M 194 293 L 300 293 L 300 360 L 194 360 Z M 194 293 "/>
</clipPath>
<clipPath id="clip10">
  <path d="M 83 299 L 188 299 L 188 360 L 83 360 Z M 83 299 "/>
</clipPath>
<clipPath id="clip11">
  <path d="M 304 331 L 360 331 L 360 360 L 304 360 Z M 304 331 "/>
</clipPath>
<clipPath id="clip12">
  <path d="M 303 291 L 360 291 L 360 325 L 303 325 Z M 303 291 "/>
</clipPath>
<clipPath id="clip13">
  <path d="M 0 359 L 20 359 L 20 360 L 0 360 Z M 0 359 "/>
</clipPath>
<clipPath id="clip14">
  <path d="M 270 191 L 360 191 L 360 239 L 270 239 Z M 270 191 "/>
</clipPath>
<clipPath id="clip15">
  <path d="M 352 190 L 360 190 L 360 209 L 352 209 Z M 352 190 "/>
</clipPath>
<clipPath id="clip16">
  <path d="M 335 270 L 360 270 L 360 287 L 335 287 Z M 335 270 "/>
</clipPath>
<clipPath id="clip17">
  <path d="M 263 205 L 360 205 L 360 265 L 263 265 Z M 263 205 "/>
</clipPath>
</defs>
<g id="surface9695">
<path style="fill-rule:nonzero;fill:rgb(0%,0%,0%);fill-opacity:1;stroke-width:0.03;stroke-linecap:square;stroke-linejoin:miter;stroke:rgb(0%,0%,0%);stroke-opacity:1;stroke-miterlimit:10;" d="M 0 178 L 360 178 L 360 -182 L 0 -182 Z M 0 178 " transform="matrix(1,0,0,1,0,182)"/>
<path style=" stroke:none;fill-rule:nonzero;fill:rgb(39.99939%,39.99939%,39.99939%);fill-opacity:0.3;" d="M 255.746094 12.121094 L 240.855469 4.121094 L 243.414062 -3.273438 L 243.097656 -13.4375 L 257.539062 -16.269531 L 259.601562 -7.753906 L 260.5625 -1.941406 L 260.976562 3.222656 L 260.027344 6.96875 L 257.445312 10.460938 Z M 255.746094 12.121094 "/>
<path style=" stroke:none;fill-rule:nonzero;fill:rgb(39.99939%,39.99939%,39.99939%);fill-opacity:0.3;" d="M 109.742188 -14.460938 L 130.691406 -6.019531 L 116.113281 54.070312 L 93.09375 50.726562 Z M 109.742188 -14.460938 "/>
<path style=" stroke:none;fill-rule:nonzero;fill:rgb(39.99939%,39.99939%,39.99939%);fill-opacity:0.3;" d="M 83.9375 -26.246094 L 107.039062 -15.699219 L 101.789062 2.652344 L 88.492188 -0.894531 L 88.019531 0.640625 L 87.457031 2.457031 L 100.769531 5.953125 L 89.570312 50.027344 L 65.820312 46.949219 Z M 83.9375 -26.246094 "/>
<path style=" stroke:none;fill-rule:nonzero;fill:rgb(39.99939%,39.99939%,39.99939%);fill-opacity:0.3;" d="M 134.300781 -3.726562 L 148.980469 4.710938 L 140.042969 61.792969 L 120.882812 55.359375 Z M 134.300781 -3.726562 "/>
<path style=" stroke:none;fill-rule:nonzero;fill:rgb(39.99939%,39.99939%,39.99939%);fill-opacity:0.3;" d="M 150.183594 34.597656 L 176.816406 43.921875 L 170.988281 60.386719 L 161.136719 79.566406 L 143.976562 63.554688 Z M 150.183594 34.597656 "/>
<path style=" stroke:none;fill-rule:nonzero;fill:rgb(39.99939%,39.99939%,39.99939%);fill-opacity:0.3;" d="M 147.507812 106.164062 L 170.613281 137.507812 L 184.167969 153.695312 L 204.03125 176.652344 L 202.804688 179.453125 L 199.121094 177.875 L 170.421875 144.957031 L 147.378906 106.300781 Z M 147.507812 106.164062 "/>
<path style=" stroke:none;fill-rule:nonzero;fill:rgb(39.99939%,39.99939%,39.99939%);fill-opacity:0.3;" d="M 36.238281 -66.964844 L 46.816406 -65.402344 L 17.421875 35.457031 L 0.707031 23.414062 L 2.753906 -11.367188 L 9.613281 -11.535156 L 9.355469 -12.757812 L 9.097656 -13.976562 L 3.09375 -13.96875 L 3.875 -26.152344 L 9.425781 -25.851562 L 9.761719 -33.707031 L 21.597656 -33.355469 L 22.433594 -37.652344 L 25.710938 -49.027344 L 29.300781 -55.851562 L 31.992188 -60.132812 Z M 36.238281 -66.964844 "/>
<path style=" stroke:none;fill-rule:nonzero;fill:rgb(39.99939%,39.99939%,39.99939%);fill-opacity:0.3;" d="M 51.402344 -64.8125 L 66.566406 -62.136719 L 47.363281 -17.484375 L 35.195312 43.550781 L 21.214844 37.949219 Z M 51.402344 -64.8125 "/>
<path style=" stroke:none;fill-rule:nonzero;fill:rgb(39.99939%,39.99939%,39.99939%);fill-opacity:0.3;" d="M 153.558594 10.125 L 180.582031 13.996094 L 177.601562 40.464844 L 150.84375 31.414062 Z M 153.558594 10.125 "/>
<path style=" stroke:none;fill-rule:nonzero;fill:rgb(39.99939%,39.99939%,39.99939%);fill-opacity:0.3;" d="M 61.363281 -39.144531 L 80.953125 -27.75 L 62.5625 47.214844 L 39.972656 44.390625 L 51.074219 -15.992188 Z M 61.363281 -39.144531 "/>
<path style=" stroke:none;fill-rule:nonzero;fill:rgb(39.99939%,39.99939%,39.99939%);fill-opacity:0.3;" d="M -11.890625 -62.941406 L 0.0976562 -55.382812 L -5.128906 20.984375 L -11.820312 19.691406 L -19.195312 19.699219 L -21.433594 15.148438 L -19.71875 12.707031 Z M -11.890625 -62.941406 "/>
<path style=" stroke:none;fill-rule:nonzero;fill:rgb(39.99939%,39.99939%,39.99939%);fill-opacity:0.3;" d="M 165.300781 -66.257812 L 186.738281 -62.890625 L 182.070312 10.917969 L 154.710938 6.945312 Z M 165.300781 -66.257812 "/>
<path style=" stroke:none;fill-rule:nonzero;fill:rgb(39.99939%,39.99939%,39.99939%);fill-opacity:0.3;" d="M 160.386719 91.753906 L 190.679688 115.734375 L 214.21875 128.207031 L 228.667969 131.816406 L 225.996094 170.273438 L 201.550781 151.570312 L 180.359375 130.21875 L 154.410156 98.648438 Z M 160.386719 91.753906 "/>
<path style=" stroke:none;fill-rule:nonzero;fill:rgb(39.99939%,39.99939%,39.99939%);fill-opacity:0.3;" d="M 294.980469 61.613281 L 312.820312 61.121094 L 321.777344 88.359375 L 291.0625 93.097656 Z M 294.980469 61.613281 "/>
<path style=" stroke:none;fill-rule:nonzero;fill:rgb(39.99939%,39.99939%,39.99939%);fill-opacity:0.3;" d="M 297.414062 27.625 L 314.761719 27.113281 L 313.925781 58.71875 L 295.261719 58.582031 Z M 297.414062 27.625 "/>
<g clip-path="url(#clip1)" clip-rule="nonzero">
<path style=" stroke:none;fill-rule:nonzero;fill:rgb(39.99939%,39.99939%,39.99939%);fill-opacity:0.3;" d="M 225.300781 183.210938 L 244.496094 183.050781 L 252.496094 182.261719 L 259.4375 180.019531 L 274.46875 174.785156 L 287.277344 172.046875 L 308.8125 175.285156 L 338.097656 179.535156 L 379.878906 188.257812 L 341.769531 188.308594 L 320.859375 191.515625 L 313.066406 192.222656 L 291.121094 193.910156 L 270.820312 195.179688 L 253.71875 192.910156 Z M 225.300781 183.210938 "/>
</g>
<path style=" stroke:none;fill-rule:nonzero;fill:rgb(39.99939%,39.99939%,39.99939%);fill-opacity:0.3;" d="M 206.90625 178.5625 L 224.9375 186.820312 L 216.84375 185.472656 L 205.851562 180.761719 Z M 206.90625 178.5625 "/>
<g clip-path="url(#clip2)" clip-rule="nonzero">
<path style=" stroke:none;fill-rule:nonzero;fill:rgb(39.99939%,39.99939%,39.99939%);fill-opacity:0.3;" d="M 384.519531 13.871094 L 377.636719 39.40625 L 335.738281 29.347656 L 337.730469 20.988281 L 340.546875 8.148438 L 351.773438 9.695312 L 365.492188 11.636719 Z M 384.519531 13.871094 "/>
</g>
<g clip-path="url(#clip3)" clip-rule="nonzero">
<path style=" stroke:none;fill-rule:nonzero;fill:rgb(39.99939%,39.99939%,39.99939%);fill-opacity:0.3;" d="M 335.167969 33.835938 L 376.539062 43.742188 L 368.566406 64.621094 L 364.675781 72.980469 L 331.222656 58.457031 Z M 335.167969 33.835938 "/>
</g>
<g clip-path="url(#clip4)" clip-rule="nonzero">
<path style=" stroke:none;fill-rule:nonzero;fill:rgb(39.99939%,39.99939%,39.99939%);fill-opacity:0.3;" d="M 327.792969 59.371094 L 330.039062 63.023438 L 339.582031 67.484375 L 351.75 71.984375 L 362.898438 76.964844 L 365.378906 82.347656 L 366.722656 86.0625 L 368.648438 90.054688 L 371.78125 96.34375 L 375.808594 104.210938 L 383.71875 125.433594 L 375.199219 127.960938 L 367.0625 106.902344 L 360.113281 98.042969 L 345.210938 88.265625 L 322.753906 71.324219 L 319.269531 62.972656 L 318.640625 60.417969 Z M 327.792969 59.371094 "/>
</g>
<g clip-path="url(#clip5)" clip-rule="nonzero">
<path style=" stroke:none;fill-rule:nonzero;fill:rgb(39.99939%,39.99939%,39.99939%);fill-opacity:0.3;" d="M 351.574219 -46.414062 L 359.65625 -38.945312 L 363.789062 -34.070312 L 364.527344 -29.839844 L 374.097656 -23.921875 L 384.496094 -23.15625 L 385.132812 -8.855469 L 383.257812 9.351562 L 362.101562 7.988281 L 336.75 4.421875 L 328.558594 34.570312 L 325.984375 56.328125 L 318 57.40625 L 322.238281 27.96875 L 327.777344 -7.140625 L 330.0625 -14.1875 L 335.003906 -24.464844 L 343.046875 -36.183594 Z M 351.574219 -46.414062 "/>
</g>
<g clip-path="url(#clip6)" clip-rule="nonzero">
<path style=" stroke:none;fill-rule:nonzero;fill:rgb(39.99939%,39.99939%,39.99939%);fill-opacity:0.3;" d="M 365.621094 -61.296875 L 361.03125 -58.515625 L 356.601562 -55.515625 L 352.339844 -52.296875 L 348.265625 -48.871094 L 344.386719 -45.246094 L 340.710938 -41.433594 L 337.25 -37.445312 L 334.011719 -33.289062 L 331.011719 -28.980469 L 328.25 -24.527344 L 325.742188 -19.941406 L 323.484375 -15.242188 L 321.492188 -10.433594 L 319.769531 -5.53125 L 318.316406 -0.550781 L 317.140625 4.492188 L 316.246094 9.589844 L 315.632812 14.722656 L 315.304688 19.878906 L 315.25 24.15625 L 299.332031 23.703125 L 299.492188 -60.949219 L 309.816406 -60.433594 L 309.855469 -32.65625 L 312.785156 -32.792969 L 315.714844 -32.925781 L 315.957031 -60.441406 L 328.792969 -59.925781 L 329.09375 -42.203125 L 331.746094 -42.339844 L 334.398438 -42.472656 L 334.371094 -59.933594 Z M 365.621094 -61.296875 "/>
</g>
<path style=" stroke:none;fill-rule:nonzero;fill:rgb(39.99939%,39.99939%,39.99939%);fill-opacity:0.3;" d="M 271.84375 -60.664062 L 294.621094 -60.828125 L 294.046875 32.410156 L 281.257812 36.367188 L 278.035156 32.15625 L 276.707031 30.417969 L 275.855469 29.167969 L 275.40625 28.4375 L 274.964844 27.648438 L 274.054688 25.632812 L 273.347656 23.117188 L 273.082031 20.988281 L 273.105469 18.925781 L 273.371094 17.019531 L 273.621094 15.976562 L 273.875 15.136719 L 274.277344 13.96875 L 274.507812 12.808594 L 274.265625 11.65625 L 273.492188 10.507812 L 271.921875 9.003906 L 270.894531 8.085938 L 269.964844 7.144531 L 269.257812 6.152344 L 268.886719 5.320312 L 268.652344 4.414062 L 268.527344 3.242188 L 269.050781 -0.3125 Z M 271.84375 -60.664062 "/>
<path style=" stroke:none;fill-rule:nonzero;fill:rgb(39.99939%,39.99939%,39.99939%);fill-opacity:0.3;" d="M 309.894531 93.605469 L 325.933594 91.136719 L 347.546875 93.558594 L 349.109375 131.160156 L 332.457031 132.632812 L 326.53125 120.796875 L 323.3125 121.035156 L 321.929688 113.148438 L 319.820312 113.722656 L 317.714844 114.296875 L 320.339844 125.921875 L 324.535156 125.34375 L 327.359375 133.15625 L 314.984375 133.46875 Z M 309.894531 93.605469 "/>
<g clip-path="url(#clip7)" clip-rule="nonzero">
<path style=" stroke:none;fill-rule:nonzero;fill:rgb(39.99939%,39.99939%,39.99939%);fill-opacity:0.3;" d="M 350.75 139.707031 L 365.890625 138.832031 L 369.722656 170.449219 L 350.25 168.078125 Z M 350.75 139.707031 "/>
</g>
<path style=" stroke:none;fill-rule:nonzero;fill:rgb(39.99939%,39.99939%,39.99939%);fill-opacity:0.3;" d="M 320.511719 141.761719 L 348.226562 140.050781 L 347.785156 168.164062 L 320.679688 164.023438 Z M 320.511719 141.761719 "/>
<g clip-path="url(#clip8)" clip-rule="nonzero">
<path style=" stroke:none;fill-rule:nonzero;fill:rgb(39.99939%,39.99939%,39.99939%);fill-opacity:0.3;" d="M 350.859375 96.640625 L 357.007812 102.609375 L 368.058594 129.183594 L 352.050781 130.875 Z M 350.859375 96.640625 "/>
</g>
<path style=" stroke:none;fill-rule:nonzero;fill:rgb(39.99939%,39.99939%,39.99939%);fill-opacity:0.3;" d="M 185.511719 14.578125 L 186.722656 -3.703125 L 211.246094 -4.105469 L 218.191406 -7.742188 L 240.085938 -10.964844 L 240.761719 -3.367188 L 239.355469 1.636719 L 237.976562 3.027344 L 232.808594 4.484375 L 228.964844 6.371094 L 225.925781 8.300781 L 223.882812 10.488281 L 209.902344 37.886719 L 175.242188 96.253906 L 164.296875 83.449219 L 174.050781 62.957031 L 180.664062 42.941406 Z M 185.511719 14.578125 "/>
<path style=" stroke:none;fill-rule:nonzero;fill:rgb(39.99939%,39.99939%,39.99939%);fill-opacity:0.3;" d="M 234.128906 133.796875 L 250.035156 134.207031 L 246.539062 172.636719 L 230.988281 172.363281 Z M 234.128906 133.796875 "/>
<path style=" stroke:none;fill-rule:nonzero;fill:rgb(39.99939%,39.99939%,39.99939%);fill-opacity:0.3;" d="M 243.828125 56.011719 L 239.898438 54.167969 L 232.679688 68.019531 L 211.160156 104.722656 L 204.457031 116.058594 L 191.589844 110.386719 L 179.683594 100.824219 L 207.164062 52.617188 L 218.226562 59.25 L 218.945312 58.152344 L 219.664062 57.050781 L 208.683594 50.167969 L 226.203125 18.277344 L 239.339844 5.320312 L 254.242188 13.769531 L 253.652344 16.464844 L 253.210938 19.1875 L 252.921875 21.925781 L 252.78125 24.671875 L 252.792969 27.425781 L 252.960938 30.171875 L 253.273438 32.910156 L 253.742188 35.625 L 254.359375 38.316406 L 255.121094 40.96875 L 256.027344 43.582031 L 257.082031 46.148438 L 258.273438 48.65625 L 259.617188 51.132812 L 261.292969 53.707031 L 262.652344 55.78125 L 264.367188 58.003906 L 266.203125 60.132812 L 268.207031 62.226562 L 264.820312 69.320312 L 259.648438 78.445312 L 238.003906 67.367188 Z M 243.828125 56.011719 "/>
<path style=" stroke:none;fill-rule:nonzero;fill:rgb(39.99939%,39.99939%,39.99939%);fill-opacity:0.3;" d="M 235.941406 69.886719 L 252.832031 78.570312 L 242.304688 98.941406 L 224.109375 89.527344 Z M 235.941406 69.886719 "/>
<path style=" stroke:none;fill-rule:nonzero;fill:rgb(39.99939%,39.99939%,39.99939%);fill-opacity:0.3;" d="M 221.710938 93.84375 L 240.539062 103.480469 L 229.609375 126.039062 L 207.269531 117.503906 L 216.910156 102.609375 Z M 221.710938 93.84375 "/>
<path style=" stroke:none;fill-rule:nonzero;fill:rgb(39.99939%,39.99939%,39.99939%);fill-opacity:0.3;" d="M 276.503906 136.554688 L 317.480469 141.546875 L 317.320312 162.882812 L 311.625 160.859375 L 307.785156 160.335938 L 299.875 160.207031 L 290.042969 160.859375 L 282.664062 162.136719 L 276.058594 164.167969 Z M 276.503906 136.554688 "/>
<path style=" stroke:none;fill-rule:nonzero;fill:rgb(39.99939%,39.99939%,39.99939%);fill-opacity:0.3;" d="M 290.570312 96.644531 L 306.457031 93.984375 L 310.773438 133.316406 L 285.144531 131.011719 Z M 290.570312 96.644531 "/>
<path style=" stroke:none;fill-rule:nonzero;fill:rgb(39.99939%,39.99939%,39.99939%);fill-opacity:0.3;" d="M 256.09375 80.167969 L 287.660156 96.167969 L 280.761719 130.46875 L 232.847656 127.003906 L 243.011719 104.652344 L 262.773438 114.589844 L 263.671875 112.597656 L 264.570312 110.601562 L 245.296875 100.628906 L 248.121094 94.542969 L 273.503906 109.179688 L 274.496094 107.414062 L 275.484375 105.644531 L 249.925781 90.796875 Z M 256.09375 80.167969 "/>
<path style=" stroke:none;fill-rule:nonzero;fill:rgb(39.99939%,39.99939%,39.99939%);fill-opacity:0.3;" d="M 268.148438 70.765625 L 289.828125 79.308594 L 288.492188 93.039062 L 262.792969 80.203125 Z M 268.148438 70.765625 "/>
<path style=" stroke:none;fill-rule:nonzero;fill:rgb(39.99939%,39.99939%,39.99939%);fill-opacity:0.3;" d="M 290.058594 37.808594 L 293.035156 38.042969 L 289.789062 76.097656 L 268.984375 67.675781 L 273.929688 55.195312 L 278.136719 47.664062 L 281.851562 41.773438 L 286.3125 38.710938 Z M 290.058594 37.808594 "/>
<path style=" stroke:none;fill-rule:nonzero;fill:rgb(39.99939%,39.99939%,39.99939%);fill-opacity:0.3;" d="M 252.910156 134.367188 L 272.316406 136.171875 L 272.355469 163.351562 L 268.769531 165.933594 L 261.90625 169.136719 L 254.261719 171.238281 L 249.539062 171.550781 Z M 252.910156 134.367188 "/>
<path style=" stroke:none;fill-rule:nonzero;fill:rgb(39.99939%,39.99939%,39.99939%);fill-opacity:0.3;" d="M 256.992188 13.277344 L 259.105469 12.347656 L 261.449219 8.339844 L 262.773438 3.804688 L 262.769531 -0.449219 L 261.554688 -6.011719 L 259.796875 -16.496094 L 266.90625 -17.800781 L 265.796875 7.140625 L 269.136719 12.328125 L 268.875 13.5625 L 268.613281 14.789062 L 268.453125 16.039062 L 268.363281 17.289062 L 268.34375 18.546875 L 268.390625 19.804688 L 268.507812 21.054688 L 268.695312 22.300781 L 268.949219 23.53125 L 269.269531 24.75 L 269.660156 25.953125 L 270.113281 27.132812 L 270.632812 28.289062 L 271.214844 29.417969 L 271.859375 30.515625 L 272.5625 31.578125 L 273.324219 32.609375 L 274.140625 33.597656 L 275.011719 34.542969 L 275.933594 35.449219 L 276.902344 36.304688 L 277.917969 37.109375 L 278.976562 37.863281 L 279.867188 38.4375 L 269.214844 59.378906 L 262.511719 51.167969 L 258.777344 43.40625 L 256.035156 35.644531 L 255.28125 26.46875 Z M 256.992188 13.277344 "/>
<path style=" stroke:none;fill-rule:nonzero;fill:rgb(39.99939%,39.99939%,39.99939%);fill-opacity:0.3;" d="M 155.464844 -23.5625 L 154.949219 -23.683594 L 154.429688 -23.808594 L 153.902344 -23.890625 L 153.371094 -23.949219 L 152.835938 -23.980469 L 152.300781 -23.984375 L 151.765625 -23.960938 L 151.234375 -23.914062 L 150.703125 -23.839844 L 150.179688 -23.738281 L 149.660156 -23.609375 L 149.152344 -23.457031 L 148.648438 -23.28125 L 148.160156 -23.078125 L 147.679688 -22.851562 L 147.214844 -22.601562 L 146.761719 -22.328125 L 146.328125 -22.035156 L 145.910156 -21.71875 L 145.125 -21.027344 L 144.765625 -20.652344 L 144.425781 -20.257812 L 144.105469 -19.851562 L 143.808594 -19.429688 L 143.539062 -18.992188 L 143.292969 -18.539062 L 143.070312 -18.078125 L 142.875 -17.605469 L 142.695312 -17.097656 L 143.796875 -16.917969 L 144.894531 -16.738281 L 145.179688 -17.289062 L 145.613281 -17.964844 L 146.117188 -18.589844 L 146.6875 -19.164062 L 147.320312 -19.675781 L 148.003906 -20.125 L 148.730469 -20.503906 L 149.5 -20.804688 L 149.894531 -20.929688 L 150.296875 -21.03125 L 150.703125 -21.113281 L 151.113281 -21.175781 L 151.527344 -21.21875 L 151.941406 -21.242188 L 152.355469 -21.242188 L 152.769531 -21.222656 L 153.183594 -21.183594 L 153.59375 -21.121094 L 154.003906 -21.039062 L 154.402344 -20.9375 L 154.800781 -20.816406 L 150.875 0.460938 L 111.964844 -18.367188 L 118.324219 -43.675781 L 130.621094 -40.992188 L 128.808594 -29.226562 L 130.351562 -29.015625 L 131.890625 -28.808594 L 133.863281 -40.402344 L 157.1875 -37.199219 Z M 155.464844 -23.5625 "/>
<g clip-path="url(#clip9)" clip-rule="nonzero">
<path style=" stroke:none;fill-rule:nonzero;fill:rgb(39.99939%,39.99939%,39.99939%);fill-opacity:0.3;" d="M 194.125 440.339844 L 195.550781 357.964844 L 265.324219 293.871094 L 296.703125 293.644531 L 300 435.609375 L 242.5625 436.046875 L 241.746094 436.015625 L 240.925781 436.027344 L 240.105469 436.078125 L 239.292969 436.171875 L 238.484375 436.304688 L 237.6875 436.476562 L 236.898438 436.6875 L 236.121094 436.941406 L 235.359375 437.230469 L 234.617188 437.554688 L 233.890625 437.917969 L 233.1875 438.316406 L 232.507812 438.75 L 231.851562 439.214844 L 231.222656 439.714844 L 230.621094 440.242188 L 230.046875 440.800781 L 229.507812 441.386719 L 228.964844 442.042969 L 225.390625 445.964844 L 224.925781 446.675781 L 224.421875 447.367188 L 223.882812 448.03125 L 223.304688 448.664062 L 222.695312 449.269531 L 222.050781 449.847656 L 221.378906 450.386719 L 220.675781 450.894531 L 219.945312 451.367188 L 219.1875 451.804688 L 218.410156 452.199219 L 217.609375 452.558594 L 216.792969 452.875 L 215.957031 453.152344 L 215.109375 453.386719 L 214.25 453.578125 L 213.378906 453.730469 L 212.503906 453.835938 L 211.621094 453.898438 L 210.738281 453.917969 L 209.855469 453.890625 L 208.976562 453.820312 L 208.097656 453.707031 L 207.230469 453.550781 L 206.371094 453.351562 L 205.527344 453.113281 L 204.695312 452.828125 L 203.878906 452.503906 L 203.082031 452.140625 L 202.308594 451.738281 L 201.558594 451.296875 L 200.832031 450.816406 L 200.132812 450.304688 L 199.460938 449.757812 L 198.824219 449.175781 L 198.21875 448.566406 L 197.648438 447.925781 L 197.113281 447.257812 L 196.613281 446.566406 L 196.15625 445.847656 L 195.738281 445.109375 L 195.359375 444.351562 L 195.027344 443.578125 L 194.734375 442.785156 L 194.484375 441.980469 L 194.285156 441.164062 Z M 194.125 440.339844 "/>
</g>
<path style=" stroke:none;fill-rule:nonzero;fill:rgb(39.99939%,39.99939%,39.99939%);fill-opacity:0.3;" d="M 195.3125 357.3125 L 189.460938 322.9375 L 185.773438 295.816406 L 264.140625 292.445312 L 264.640625 293.816406 Z M 195.3125 357.3125 "/>
<g clip-path="url(#clip10)" clip-rule="nonzero">
<path style=" stroke:none;fill-rule:nonzero;fill:rgb(39.99939%,39.99939%,39.99939%);fill-opacity:0.3;" d="M 83.761719 312.613281 L 178.640625 299.347656 L 184.265625 337.875 L 159.980469 340.320312 L 160.308594 342.738281 L 160.632812 345.15625 L 184.589844 342.691406 L 187.480469 371.925781 L 95.269531 387.230469 L 89.988281 352.429688 L 117.832031 349.5625 L 117.554688 347.242188 L 117.277344 344.917969 L 89.273438 347.863281 Z M 83.761719 312.613281 "/>
</g>
<g clip-path="url(#clip11)" clip-rule="nonzero">
<path style=" stroke:none;fill-rule:nonzero;fill:rgb(39.99939%,39.99939%,39.99939%);fill-opacity:0.3;" d="M 304.511719 331.8125 L 370.066406 331.703125 L 370.578125 364.335938 L 305.023438 364.496094 Z M 304.511719 331.8125 "/>
</g>
<g clip-path="url(#clip12)" clip-rule="nonzero">
<path style=" stroke:none;fill-rule:nonzero;fill:rgb(39.99939%,39.99939%,39.99939%);fill-opacity:0.3;" d="M 303.886719 291.984375 L 335.355469 291.90625 L 369.441406 291.824219 L 369.945312 323.964844 L 304.390625 324.128906 Z M 303.886719 291.984375 "/>
</g>
<path style=" stroke:none;fill-rule:nonzero;fill:rgb(39.99939%,39.99939%,39.99939%);fill-opacity:0.3;" d="M -7.5625 201.441406 L 14.785156 198.472656 L 19.734375 234.847656 L -2.128906 237.039062 Z M -7.5625 201.441406 "/>
<g clip-path="url(#clip13)" clip-rule="nonzero">
<path style=" stroke:none;fill-rule:nonzero;fill:rgb(39.99939%,39.99939%,39.99939%);fill-opacity:0.3;" d="M 19.363281 359.984375 L 19.382812 382.132812 L -2.488281 380.019531 L -2.507812 363.363281 Z M 19.363281 359.984375 "/>
</g>
<path style=" stroke:none;fill-rule:nonzero;fill:rgb(39.99939%,39.99939%,39.99939%);fill-opacity:0.3;" d="M 12.320312 156.617188 L 32.945312 153.527344 L 35.535156 177.726562 L 15.140625 180.191406 Z M 12.320312 156.617188 "/>
<path style=" stroke:none;fill-rule:nonzero;fill:rgb(39.99939%,39.99939%,39.99939%);fill-opacity:0.3;" d="M 41.269531 178.589844 L 59.304688 176.613281 L 60.558594 230.441406 L 47.53125 231.488281 Z M 41.269531 178.589844 "/>
<path style=" stroke:none;fill-rule:nonzero;fill:rgb(39.99939%,39.99939%,39.99939%);fill-opacity:0.3;" d="M 16.316406 184.046875 L 37.902344 181.207031 L 45.050781 231.820312 L 23.132812 234.519531 Z M 16.316406 184.046875 "/>
<path style=" stroke:none;fill-rule:nonzero;fill:rgb(39.99939%,39.99939%,39.99939%);fill-opacity:0.3;" d="M 44.320312 243.609375 L 69.320312 239.972656 L 73.710938 285.023438 L 50.972656 287.261719 Z M 44.320312 243.609375 "/>
<path style=" stroke:none;fill-rule:nonzero;fill:rgb(39.99939%,39.99939%,39.99939%);fill-opacity:0.3;" d="M 15.070312 247.625 L 40.574219 244.046875 L 46.785156 288.335938 L 20.214844 290.945312 Z M 15.070312 247.625 "/>
<path style=" stroke:none;fill-rule:nonzero;fill:rgb(39.99939%,39.99939%,39.99939%);fill-opacity:0.3;" d="M -13.210938 160.996094 L 9.386719 156.976562 L 13.785156 195.074219 L -8.929688 198.542969 Z M -13.210938 160.996094 "/>
<path style=" stroke:none;fill-rule:nonzero;fill:rgb(39.99939%,39.99939%,39.99939%);fill-opacity:0.3;" d="M -21.285156 250.898438 L 5.578125 247.882812 L 11.210938 291.617188 L -16.105469 295.25 Z M -21.285156 250.898438 "/>
<path style=" stroke:none;fill-rule:nonzero;fill:rgb(39.99939%,39.99939%,39.99939%);fill-opacity:0.3;" d="M -108.339844 309.929688 L -73.085938 305.730469 L -7.714844 297.4375 L 74.441406 287.914062 L 76.121094 304.058594 L 18.699219 308.863281 L -104.609375 322.410156 Z M -108.339844 309.929688 "/>
<path style=" stroke:none;fill-rule:nonzero;fill:rgb(39.99939%,39.99939%,39.99939%);fill-opacity:0.3;" d="M 32.167969 125.765625 L 34.992188 149.328125 L 13.945312 151.292969 L 11.5625 128.535156 L 29.464844 126.386719 Z M 32.167969 125.765625 "/>
<path style=" stroke:none;fill-rule:nonzero;fill:rgb(39.99939%,39.99939%,39.99939%);fill-opacity:0.3;" d="M 8.753906 128.875 L 11.429688 151.023438 L -16.585938 154.007812 L -20.363281 133.617188 L -14.425781 132.296875 L 8.363281 128.921875 Z M 8.753906 128.875 "/>
<path style=" stroke:none;fill-rule:nonzero;fill:rgb(39.99939%,39.99939%,39.99939%);fill-opacity:0.3;" d="M 48.054688 122.097656 L 51.429688 121.820312 L 52.253906 145.800781 L 57.320312 171.121094 L 58.464844 171.195312 L 58.867188 174.011719 L 38.527344 176.085938 L 32.648438 125.652344 Z M 48.054688 122.097656 "/>
<path style=" stroke:none;fill-rule:nonzero;fill:rgb(39.99939%,39.99939%,39.99939%);fill-opacity:0.3;" d="M 161.457031 244.996094 L 162.289062 245.414062 L 162.953125 245.796875 L 163.597656 246.210938 L 164.214844 246.652344 L 164.808594 247.128906 L 165.375 247.632812 L 165.914062 248.164062 L 166.421875 248.722656 L 166.898438 249.300781 L 167.339844 249.90625 L 167.75 250.53125 L 168.125 251.179688 L 168.464844 251.839844 L 168.765625 252.519531 L 169.03125 253.210938 L 169.253906 253.917969 L 169.441406 254.632812 L 169.585938 255.355469 L 176.054688 295.3125 L 82.53125 308.570312 L 74.351562 239.734375 L 73.777344 234.917969 L 71.125 209.089844 L 71.257812 208.71875 L 71.429688 208.296875 L 71.628906 207.886719 L 71.847656 207.484375 L 72.089844 207.09375 L 72.355469 206.714844 L 72.636719 206.351562 L 72.941406 206 L 73.261719 205.664062 L 73.601562 205.347656 L 73.960938 205.046875 L 74.332031 204.761719 L 74.722656 204.5 L 75.125 204.257812 L 75.539062 204.03125 L 75.96875 203.828125 L 76.40625 203.648438 L 76.851562 203.488281 L 77.308594 203.351562 L 77.769531 203.238281 L 78.238281 203.148438 L 78.710938 203.078125 L 79.183594 203.035156 L 79.664062 203.015625 L 80.140625 203.019531 L 80.617188 203.046875 L 81.089844 203.097656 L 81.5625 203.171875 L 82.027344 203.269531 L 82.488281 203.390625 L 82.941406 203.53125 L 83.386719 203.699219 L 83.820312 203.886719 L 84.246094 204.09375 L 84.65625 204.324219 L 85.054688 204.574219 L 110.605469 218.089844 Z M 161.457031 244.996094 "/>
<path style=" stroke:none;fill-rule:nonzero;fill:rgb(39.99939%,39.99939%,39.99939%);fill-opacity:0.3;" d="M 184.132812 221.988281 L 177.589844 236.898438 L 168.457031 242.515625 L 167.539062 241.550781 L 160.574219 236.96875 L 144.035156 227.566406 L 106.765625 209.625 L 110.011719 203.445312 L 162.871094 225.082031 L 163.796875 223.15625 L 164.71875 221.234375 L 111.011719 200.023438 L 70.386719 183.980469 L 71.433594 178.367188 L 72.511719 175 L 73.6875 172.613281 L 75.722656 169.746094 L 77.417969 168.023438 L 79.171875 166.675781 L 81.347656 165.476562 L 82.660156 164.941406 L 86.414062 163.867188 L 96.113281 161.695312 L 178.828125 193.433594 L 179.683594 190.78125 L 180.542969 188.125 L 100.421875 157.3125 L 120.628906 134.832031 L 154.453125 151.117188 L 155.492188 149.4375 L 156.601562 147.644531 L 123.421875 131.96875 L 147.378906 106.300781 L 170.421875 144.957031 L 199.121094 177.875 L 189.835938 204.882812 Z M 184.132812 221.988281 "/>
<path style=" stroke:none;fill-rule:nonzero;fill:rgb(39.99939%,39.99939%,39.99939%);fill-opacity:0.3;" d="M 79.539062 118.984375 L 88.964844 109.226562 L 90.433594 98.378906 L 103.976562 94.609375 L 140.476562 103.199219 L 100.6875 145.851562 L 84.507812 156.429688 Z M 79.539062 118.984375 "/>
<path style=" stroke:none;fill-rule:nonzero;fill:rgb(39.99939%,39.99939%,39.99939%);fill-opacity:0.3;" d="M 86.929688 54.613281 L 110.832031 58.277344 L 126.171875 63.609375 L 138.570312 70.488281 L 149.234375 77.347656 L 151.71875 81.703125 L 152.289062 87.800781 L 150.808594 92.289062 L 148.828125 92.828125 L 146.359375 92.429688 L 133.699219 84.496094 L 121.574219 79.550781 L 109.324219 76.640625 L 94.558594 74.871094 L 84.363281 74.148438 Z M 86.929688 54.613281 "/>
<path style=" stroke:none;fill-rule:nonzero;fill:rgb(39.99939%,39.99939%,39.99939%);fill-opacity:0.3;" d="M 63.785156 51.429688 L 82.03125 53.625 L 80.296875 74.378906 L 58.128906 78.894531 L 59.792969 65.398438 Z M 63.785156 51.429688 "/>
<path style=" stroke:none;fill-rule:nonzero;fill:rgb(39.99939%,39.99939%,39.99939%);fill-opacity:0.3;" d="M 53.425781 117.535156 L 64.425781 117.328125 L 65.414062 121.445312 L 77.125 120.320312 L 81.394531 158.488281 L 71.925781 162.761719 L 69.886719 167.957031 L 60.296875 170.707031 Z M 53.425781 117.535156 "/>
<path style=" stroke:none;fill-rule:nonzero;fill:rgb(39.99939%,39.99939%,39.99939%);fill-opacity:0.3;" d="M 51.429688 121.820312 L 51.441406 121.820312 L 58.464844 171.195312 L 57.320312 171.121094 L 52.253906 145.800781 Z M 51.429688 121.820312 "/>
<path style=" stroke:none;fill-rule:nonzero;fill:rgb(39.99939%,39.99939%,39.99939%);fill-opacity:0.3;" d="M 202.804688 179.453125 L 184.132812 221.988281 L 189.835938 204.882812 L 199.121094 177.875 Z M 202.804688 179.453125 "/>
<path style=" stroke:none;fill-rule:nonzero;fill:rgb(39.99939%,39.99939%,39.99939%);fill-opacity:0.3;" d="M 177.589844 236.898438 L 173.015625 247.316406 L 168.457031 242.515625 Z M 177.589844 236.898438 "/>
<path style=" stroke:none;fill-rule:nonzero;fill:rgb(39.99939%,39.99939%,39.99939%);fill-opacity:0.3;" d="M 193.320312 208.457031 L 213.085938 217.859375 L 208.453125 263.519531 L 178.222656 243.523438 Z M 193.320312 208.457031 "/>
<path style=" stroke:none;fill-rule:nonzero;fill:rgb(39.99939%,39.99939%,39.99939%);fill-opacity:0.3;" d="M 185.773438 295.816406 L 184.230469 284.460938 L 180.339844 261.859375 L 179.199219 258.847656 L 176.164062 252.984375 L 181.480469 248.914062 L 208.050781 266.761719 L 259.386719 279.402344 L 264.140625 292.445312 Z M 185.773438 295.816406 "/>
<path style=" stroke:none;fill-rule:nonzero;fill:rgb(39.99939%,39.99939%,39.99939%);fill-opacity:0.3;" d="M 216.78125 266.140625 L 212.238281 264.230469 L 215.453125 218.792969 L 231.894531 226.769531 L 260.648438 235.0625 L 259.421875 276.609375 Z M 216.78125 266.140625 "/>
<g clip-path="url(#clip14)" clip-rule="nonzero">
<path style=" stroke:none;fill-rule:nonzero;fill:rgb(39.99939%,39.99939%,39.99939%);fill-opacity:0.3;" d="M 272.898438 224.855469 L 280.972656 226.335938 L 284.859375 226.851562 L 290.585938 227.386719 L 299.136719 227.707031 L 302.488281 227.675781 L 308.734375 227.390625 L 313.152344 227 L 317.464844 226.460938 L 320.925781 225.914062 L 323.351562 225.464844 L 326.550781 224.621094 L 330.820312 223.722656 L 336.820312 221.890625 L 341.515625 220.152344 L 344.917969 218.9375 L 347.613281 217.609375 L 352.882812 214.804688 L 355.554688 213.347656 L 361.285156 210.03125 L 389.058594 192.738281 L 397.882812 191.289062 L 396.425781 200.820312 L 381.777344 210.773438 L 374.246094 215.585938 L 369.933594 218.203125 L 364.03125 221.609375 L 350.988281 228.378906 L 341.269531 232.605469 L 336.277344 234.210938 L 332.195312 235.359375 L 329.269531 236.054688 L 323.441406 237.160156 L 318.496094 237.828125 L 316.40625 238.039062 L 310.621094 238.425781 L 303.269531 238.515625 L 298.511719 238.355469 L 291.40625 237.8125 L 284.085938 236.910156 L 270.921875 234.441406 Z M 272.898438 224.855469 "/>
</g>
<path style=" stroke:none;fill-rule:nonzero;fill:rgb(39.99939%,39.99939%,39.99939%);fill-opacity:0.3;" d="M 317.6875 196.617188 L 335.339844 193.964844 L 339.582031 217.34375 L 334.660156 219.054688 L 332.8125 219.609375 L 331.074219 220.101562 L 329.144531 220.605469 L 324.140625 221.738281 L 322.265625 222.101562 L 319.582031 222.5625 Z M 317.6875 196.617188 "/>
<g clip-path="url(#clip15)" clip-rule="nonzero">
<path style=" stroke:none;fill-rule:nonzero;fill:rgb(39.99939%,39.99939%,39.99939%);fill-opacity:0.3;" d="M 352.488281 191.3125 L 368.019531 190.636719 L 381.765625 195.054688 L 357.804688 208.582031 Z M 352.488281 191.3125 "/>
</g>
<g clip-path="url(#clip16)" clip-rule="nonzero">
<path style=" stroke:none;fill-rule:nonzero;fill:rgb(39.99939%,39.99939%,39.99939%);fill-opacity:0.3;" d="M 369.113281 270.765625 L 369.359375 286.46875 L 335.367188 286.277344 Z M 369.113281 270.765625 "/>
</g>
<path style=" stroke:none;fill-rule:nonzero;fill:rgb(39.99939%,39.99939%,39.99939%);fill-opacity:0.3;" d="M 337.558594 193.664062 L 348.957031 191.792969 L 354.015625 210.699219 L 348.644531 213.464844 L 342.253906 216.332031 Z M 337.558594 193.664062 "/>
<path style=" stroke:none;fill-rule:nonzero;fill:rgb(39.99939%,39.99939%,39.99939%);fill-opacity:0.3;" d="M 272.167969 199.574219 L 313.90625 196.859375 L 315.960938 223.164062 L 310.078125 223.695312 L 303.714844 224.042969 L 297.234375 224.074219 L 292.558594 223.890625 L 286.433594 223.394531 L 279.339844 222.4375 L 276.988281 222.027344 Z M 272.167969 199.574219 "/>
<path style=" stroke:none;fill-rule:nonzero;fill:rgb(39.99939%,39.99939%,39.99939%);fill-opacity:0.3;" d="M 257.15625 196.691406 L 269.265625 199.785156 L 274.894531 221.652344 L 268.019531 220.019531 L 264.101562 218.917969 L 259.34375 217.425781 L 254.234375 215.667969 L 245.0625 212.222656 Z M 257.15625 196.691406 "/>
<path style=" stroke:none;fill-rule:nonzero;fill:rgb(39.99939%,39.99939%,39.99939%);fill-opacity:0.3;" d="M 320.859375 191.515625 L 301.519531 194.484375 L 275.039062 195.742188 L 270.820312 195.179688 L 291.121094 193.910156 L 313.066406 192.222656 Z M 320.859375 191.515625 "/>
<g clip-path="url(#clip17)" clip-rule="nonzero">
<path style=" stroke:none;fill-rule:nonzero;fill:rgb(39.99939%,39.99939%,39.99939%);fill-opacity:0.3;" d="M 265.046875 236.164062 L 276.453125 238.597656 L 286.109375 240.117188 L 292.324219 240.792969 L 297.457031 241.15625 L 305.121094 241.417969 L 311.269531 241.171875 L 318.09375 240.597656 L 319.25 240.460938 L 321.671875 240.125 L 325.757812 239.429688 L 331.410156 238.167969 L 338.226562 236.597656 L 341.054688 236.015625 L 349.457031 232.609375 L 358.152344 228.941406 L 367.457031 224.746094 L 376.003906 219.828125 L 386.878906 214.183594 L 394.292969 208.546875 L 400.140625 205.007812 L 441.457031 205.164062 L 401.539062 215.71875 L 402.558594 218.503906 L 403.578125 221.285156 L 450.917969 211.019531 L 451.804688 214.359375 L 301.371094 264.773438 L 263.785156 263.710938 Z M 265.046875 236.164062 "/>
</g>
<path style=" stroke:none;fill-rule:nonzero;fill:rgb(39.99939%,39.99939%,39.99939%);fill-opacity:0.3;" d="M 224.9375 186.820312 L 229.789062 189.042969 L 223.5 202.441406 L 225.792969 203.089844 L 228.082031 203.742188 L 233.320312 190.949219 L 254.515625 195.46875 L 240.589844 213.941406 L 249.757812 217.710938 L 260.367188 221.433594 L 265.167969 222.894531 L 270.152344 224.195312 L 268.398438 233.878906 L 264.125 232.921875 L 260.421875 231.976562 L 256.304688 230.867188 L 253.359375 230.039062 L 252.195312 229.703125 L 250.6875 229.265625 L 243.644531 227.101562 L 232.941406 223.808594 L 210.902344 212.980469 L 193.910156 205.671875 L 205.851562 180.761719 L 216.84375 185.472656 Z M 224.9375 186.820312 "/>
<path style=" stroke:none;fill-rule:nonzero;fill:rgb(39.99939%,39.99939%,39.99939%);fill-opacity:0.3;" d="M 5.832031 33.375 L 6.765625 33.828125 L 9.429688 35.191406 L 11.191406 36.335938 L 13.898438 38.429688 L 18.054688 42.027344 L 21.921875 44.832031 L 24.601562 46.367188 L 27.222656 47.613281 L 30.050781 48.71875 L 33.144531 49.664062 L 35.476562 50.183594 L 39.390625 50.769531 L 44.144531 51.09375 L 50.785156 51.128906 L 59.542969 51.050781 L 55.785156 79.15625 L 51.199219 78.410156 L 48.269531 77.742188 L 46.160156 77.082031 L 44.085938 76.265625 L 41.882812 75.222656 L 39.75 74.042969 L 37.707031 72.777344 L 30.125 67.515625 L 26.226562 64.644531 L 9.445312 49.207031 L 7.339844 46.996094 L 5.179688 44.390625 L 2.691406 40.867188 L 1.863281 39.550781 L 0.945312 37.960938 L 0.351562 36.808594 L 0 36.039062 L -0.34375 35.15625 L -0.582031 34.347656 L -0.679688 33.769531 L -0.695312 33.390625 L -0.675781 33.136719 L -0.550781 32.707031 L -0.292969 32.371094 L -0.105469 32.246094 L 0.148438 32.140625 L 0.535156 32.066406 L 1.292969 32.0625 L 2.226562 32.199219 L 3.367188 32.484375 L 4.097656 32.714844 Z M 5.832031 33.375 "/>
<path style=" stroke:none;fill-rule:nonzero;fill:rgb(39.99939%,39.99939%,39.99939%);fill-opacity:0.3;" d="M 61.550781 51.160156 L 63.785156 51.429688 L 59.792969 65.398438 Z M 61.550781 51.160156 "/>
<path style=" stroke:none;fill-rule:nonzero;fill:rgb(39.99939%,39.99939%,39.99939%);fill-opacity:0.3;" d="M 11.230469 125.398438 L 22.675781 123.953125 L 31.886719 123.421875 L 32.167969 125.765625 L 29.464844 126.386719 L 11.5625 128.535156 Z M 11.230469 125.398438 "/>
<path style=" stroke:none;fill-rule:nonzero;fill:rgb(39.99939%,39.99939%,39.99939%);fill-opacity:0.3;" d="M -20.542969 132.640625 L -6.1875 128.191406 L 8.398438 125.921875 L 8.753906 128.875 L 8.363281 128.921875 L -14.425781 132.296875 L -20.363281 133.617188 Z M -20.542969 132.640625 "/>
<path style=" stroke:none;fill-rule:nonzero;fill:rgb(39.99939%,39.99939%,39.99939%);fill-opacity:0.3;" d="M 32.382812 123.390625 L 48.054688 122.097656 L 32.648438 125.652344 Z M 32.382812 123.390625 "/>
<path style="fill-rule:nonzero;fill:rgb(39.99939%,39.99939%,39.99939%);fill-opacity:1;stroke-width:0.03;stroke-linecap:square;stroke-linejoin:miter;stroke:rgb(39.99939%,39.99939%,39.99939%);stroke-opacity:1;stroke-miterlimit:3.239307;" d="M 235.457031 257.996094 L 236.289062 258.414062 L 236.953125 258.796875 L 237.597656 259.210938 L 238.214844 259.652344 L 238.808594 260.128906 L 239.375 260.632812 L 239.914062 261.164062 L 240.421875 261.722656 L 240.898438 262.300781 L 241.339844 262.90625 L 241.75 263.53125 L 242.125 264.179688 L 242.464844 264.839844 L 242.765625 265.519531 L 243.03125 266.210938 L 243.253906 266.917969 L 243.441406 267.632812 L 243.585938 268.355469 L 250.054688 308.3125 L 156.53125 321.570312 L 148.351562 252.734375 L 147.777344 247.917969 L 145.125 222.089844 L 145.257812 221.71875 L 145.429688 221.296875 L 145.628906 220.886719 L 145.847656 220.484375 L 146.089844 220.09375 L 146.355469 219.714844 L 146.636719 219.351562 L 146.941406 219 L 147.261719 218.664062 L 147.601562 218.347656 L 147.960938 218.046875 L 148.332031 217.761719 L 148.722656 217.5 L 149.125 217.257812 L 149.539062 217.03125 L 149.96875 216.828125 L 150.40625 216.648438 L 150.851562 216.488281 L 151.308594 216.351562 L 151.769531 216.238281 L 152.238281 216.148438 L 152.710938 216.078125 L 153.183594 216.035156 L 153.664062 216.015625 L 154.140625 216.019531 L 154.617188 216.046875 L 155.089844 216.097656 L 155.5625 216.171875 L 156.027344 216.269531 L 156.488281 216.390625 L 156.941406 216.53125 L 157.386719 216.699219 L 157.820312 216.886719 L 158.246094 217.09375 L 158.65625 217.324219 L 159.054688 217.574219 L 184.605469 231.089844 Z M 235.457031 257.996094 " transform="matrix(1,0,0,1,-74,-13)"/>
<path style="fill-rule:nonzero;fill:rgb(39.99939%,39.99939%,39.99939%);fill-opacity:1;stroke-width:0.03;stroke-linecap:square;stroke-linejoin:miter;stroke:rgb(39.99939%,39.99939%,39.99939%);stroke-opacity:1;stroke-miterlimit:3.239307;" d="M 258.132812 234.988281 L 251.589844 249.898438 L 242.457031 255.515625 L 241.539062 254.550781 L 234.574219 249.96875 L 218.035156 240.566406 L 180.765625 222.625 L 184.011719 216.445312 L 236.871094 238.082031 L 237.796875 236.15625 L 238.71875 234.234375 L 185.011719 213.023438 L 144.386719 196.980469 L 145.433594 191.367188 L 146.511719 188 L 147.6875 185.613281 L 149.722656 182.746094 L 151.417969 181.023438 L 153.171875 179.675781 L 155.347656 178.476562 L 156.660156 177.941406 L 160.414062 176.867188 L 170.113281 174.695312 L 252.828125 206.433594 L 253.683594 203.78125 L 254.542969 201.125 L 174.421875 170.3125 L 194.628906 147.832031 L 228.453125 164.117188 L 229.492188 162.4375 L 230.601562 160.644531 L 197.421875 144.96875 L 221.378906 119.300781 L 244.421875 157.957031 L 273.121094 190.875 L 263.835938 217.882812 Z M 258.132812 234.988281 " transform="matrix(1,0,0,1,-74,-13)"/>
<path style="fill-rule:nonzero;fill:rgb(39.99939%,39.99939%,39.99939%);fill-opacity:1;stroke-width:0.03;stroke-linecap:square;stroke-linejoin:miter;stroke:rgb(39.99939%,39.99939%,39.99939%);stroke-opacity:1;stroke-miterlimit:3.239307;" d="M 153.539062 131.984375 L 162.964844 122.226562 L 164.433594 111.378906 L 177.976562 107.609375 L 214.476562 116.199219 L 174.6875 158.851562 L 158.507812 169.429688 Z M 153.539062 131.984375 " transform="matrix(1,0,0,1,-74,-13)"/>
<path style="fill-rule:nonzero;fill:rgb(39.99939%,39.99939%,39.99939%);fill-opacity:1;stroke-width:0.03;stroke-linecap:square;stroke-linejoin:miter;stroke:rgb(39.99939%,39.99939%,39.99939%);stroke-opacity:1;stroke-miterlimit:3.239307;" d="M 160.929688 67.613281 L 184.832031 71.277344 L 200.171875 76.609375 L 212.570312 83.488281 L 223.234375 90.347656 L 225.71875 94.703125 L 226.289062 100.800781 L 224.808594 105.289062 L 222.828125 105.828125 L 220.359375 105.429688 L 207.699219 97.496094 L 195.574219 92.550781 L 183.324219 89.640625 L 168.558594 87.871094 L 158.363281 87.148438 Z M 160.929688 67.613281 " transform="matrix(1,0,0,1,-74,-13)"/>
<path style="fill-rule:nonzero;fill:rgb(39.99939%,39.99939%,39.99939%);fill-opacity:1;stroke-width:0.03;stroke-linecap:square;stroke-linejoin:miter;stroke:rgb(39.99939%,39.99939%,39.99939%);stroke-opacity:1;stroke-miterlimit:3.239307;" d="M 137.785156 64.429688 L 156.03125 66.625 L 154.296875 87.378906 L 132.128906 91.894531 L 133.792969 78.398438 Z M 137.785156 64.429688 " transform="matrix(1,0,0,1,-74,-13)"/>
<path style="fill-rule:nonzero;fill:rgb(39.99939%,39.99939%,39.99939%);fill-opacity:1;stroke-width:0.03;stroke-linecap:square;stroke-linejoin:miter;stroke:rgb(39.99939%,39.99939%,39.99939%);stroke-opacity:1;stroke-miterlimit:3.239307;" d="M 127.425781 130.535156 L 138.425781 130.328125 L 139.414062 134.445312 L 151.125 133.320312 L 155.394531 171.488281 L 145.925781 175.761719 L 143.886719 180.957031 L 134.296875 183.707031 Z M 127.425781 130.535156 " transform="matrix(1,0,0,1,-74,-13)"/>
<path style="fill-rule:nonzero;fill:rgb(39.99939%,39.99939%,39.99939%);fill-opacity:1;stroke-width:0.03;stroke-linecap:square;stroke-linejoin:miter;stroke:rgb(39.99939%,39.99939%,39.99939%);stroke-opacity:1;stroke-miterlimit:3.239307;" d="M 125.429688 134.820312 L 125.441406 134.820312 L 132.464844 184.195312 L 131.320312 184.121094 L 126.253906 158.800781 Z M 125.429688 134.820312 " transform="matrix(1,0,0,1,-74,-13)"/>
<path style=" stroke:none;fill-rule:evenodd;fill:rgb(85.096741%,85.096741%,81.959534%);fill-opacity:0.7;" d="M 331.761719 -3 C 331.761719 -11.953125 328.203125 -20.542969 321.875 -26.875 C 315.542969 -33.203125 306.953125 -36.761719 298 -36.761719 C 289.046875 -36.761719 280.457031 -33.203125 274.125 -26.875 C 267.796875 -20.542969 264.238281 -11.953125 264.238281 -3 C 264.238281 5.953125 267.796875 14.542969 274.125 20.875 C 280.457031 27.203125 289.046875 30.761719 298 30.761719 C 306.953125 30.761719 315.542969 27.203125 321.875 20.875 C 328.203125 14.542969 331.761719 5.953125 331.761719 -3 Z M 331.761719 -3 "/>
</g>
</svg>
