<?xml version="1.0" encoding="UTF-8"?>
<svg xmlns="http://www.w3.org/2000/svg" xmlns:xlink="http://www.w3.org/1999/xlink" width="361pt" height="361pt" viewBox="0 0 361 361" version="1.1">
<defs>
<clipPath id="clip1">
  <path d="M 330 0 L 360 0 L 360 57 L 330 57 Z M 330 0 "/>
</clipPath>
<clipPath id="clip2">
  <path d="M 312 142 L 360 142 L 360 226 L 312 226 Z M 312 142 "/>
</clipPath>
<clipPath id="clip3">
  <path d="M 312 161 L 360 161 L 360 231 L 312 231 Z M 312 161 "/>
</clipPath>
<clipPath id="clip4">
  <path d="M 315 110 L 360 110 L 360 181 L 315 181 Z M 315 110 "/>
</clipPath>
<clipPath id="clip5">
  <path d="M 312 95 L 360 95 L 360 160 L 312 160 Z M 312 95 "/>
</clipPath>
<clipPath id="clip6">
  <path d="M 332 19 L 360 19 L 360 57 L 332 57 Z M 332 19 "/>
</clipPath>
<clipPath id="clip7">
  <path d="M 327 46 L 360 46 L 360 83 L 327 83 Z M 327 46 "/>
</clipPath>
<clipPath id="clip8">
  <path d="M 324 44 L 360 44 L 360 103 L 324 103 Z M 324 44 "/>
</clipPath>
<clipPath id="clip9">
  <path d="M 257 349 L 274 349 L 274 360 L 257 360 Z M 257 349 "/>
</clipPath>
<clipPath id="clip10">
  <path d="M 277 350 L 294 350 L 294 360 L 277 360 Z M 277 350 "/>
</clipPath>
<clipPath id="clip11">
  <path d="M 318 263 L 360 263 L 360 360 L 318 360 Z M 318 263 "/>
</clipPath>
<clipPath id="clip12">
  <path d="M 298 353 L 315 353 L 315 360 L 298 360 Z M 298 353 "/>
</clipPath>
<clipPath id="clip13">
  <path d="M 248 292 L 319 292 L 319 360 L 248 360 Z M 248 292 "/>
</clipPath>
<clipPath id="clip14">
  <path d="M 206 356 L 216 356 L 216 360 L 206 360 Z M 206 356 "/>
</clipPath>
<clipPath id="clip15">
  <path d="M 192 326 L 267 326 L 267 360 L 192 360 Z M 192 326 "/>
</clipPath>
<clipPath id="clip16">
  <path d="M 272 337 L 304 337 L 304 360 L 272 360 Z M 272 337 "/>
</clipPath>
<clipPath id="clip17">
  <path d="M 350 94 L 360 94 L 360 126 L 350 126 Z M 350 94 "/>
</clipPath>
<clipPath id="clip18">
  <path d="M 102 356 L 134 356 L 134 360 L 102 360 Z M 102 356 "/>
</clipPath>
<clipPath id="clip19">
  <path d="M 325 79 L 360 79 L 360 137 L 325 137 Z M 325 79 "/>
</clipPath>
<clipPath id="clip20">
  <path d="M 323 77 L 360 77 L 360 139 L 323 139 Z M 323 77 "/>
</clipPath>
<clipPath id="clip21">
  <path d="M 352 125 L 360 125 L 360 183 L 352 183 Z M 352 125 "/>
</clipPath>
<clipPath id="clip22">
  <path d="M 350 123 L 360 123 L 360 185 L 350 185 Z M 350 123 "/>
</clipPath>
<clipPath id="clip23">
  <path d="M 336 105 L 360 105 L 360 164 L 336 164 Z M 336 105 "/>
</clipPath>
<clipPath id="clip24">
  <path d="M 335 104 L 360 104 L 360 165 L 335 165 Z M 335 104 "/>
</clipPath>
<clipPath id="clip25">
  <path d="M 0 344 L 12 344 L 12 360 L 0 360 Z M 0 344 "/>
</clipPath>
<clipPath id="clip26">
  <path d="M 0 343 L 13 343 L 13 360 L 0 360 Z M 0 343 "/>
</clipPath>
<clipPath id="clip27">
  <path d="M 336 117 L 360 117 L 360 176 L 336 176 Z M 336 117 "/>
</clipPath>
<clipPath id="clip28">
  <path d="M 335 116 L 360 116 L 360 177 L 335 177 Z M 335 116 "/>
</clipPath>
<clipPath id="clip29">
  <path d="M 325 94 L 360 94 L 360 153 L 325 153 Z M 325 94 "/>
</clipPath>
<clipPath id="clip30">
  <path d="M 323 93 L 360 93 L 360 154 L 323 154 Z M 323 93 "/>
</clipPath>
</defs>
<g id="surface9982">
<path style="fill-rule:nonzero;fill:rgb(0%,0%,0%);fill-opacity:1;stroke-width:0.03;stroke-linecap:square;stroke-linejoin:miter;stroke:rgb(0%,0%,0%);stroke-opacity:1;stroke-miterlimit:10;" d="M 0 178 L 360 178 L 360 -182 L 0 -182 Z M 0 178 " transform="matrix(1,0,0,1,0,182)"/>
<path style=" stroke:none;fill-rule:nonzero;fill:rgb(39.99939%,39.99939%,39.99939%);fill-opacity:0.3;" d="M 13.777344 295.960938 L 16.578125 295.957031 L 16.582031 300.382812 L 21.324219 300.378906 L 21.320312 296.085938 L 24.335938 296.082031 L 24.347656 304.800781 L 21.328125 304.804688 L 21.324219 301.875 L 16.515625 301.882812 L 16.519531 305.21875 L 13.71875 305.222656 Z M 13.777344 295.960938 "/>
<path style=" stroke:none;fill-rule:nonzero;fill:rgb(39.99939%,39.99939%,39.99939%);fill-opacity:0.3;" d="M -47.335938 230.128906 L -45.605469 229.046875 L -34.289062 215.859375 L -8.820312 198.089844 L 44.71875 166.867188 L 54.664062 161.777344 L 59.683594 158.605469 L 65.339844 156.359375 L 73.042969 155.457031 L 55.472656 182.914062 L 20.753906 200.324219 L 21.15625 200.863281 L 21.539062 201.367188 L 54.847656 185.371094 L 49.515625 195.519531 L 47.324219 202.230469 L 28.082031 211.144531 L 28.707031 211.964844 L 29.257812 212.691406 L 47.957031 204.46875 L 47.496094 211.625 L 48.445312 217.292969 L 34.09375 224.359375 L 25.351562 229.589844 L 18.09375 234.691406 L 12.382812 238.703125 L 12 238.652344 L 12.03125 238.605469 L 10.296875 238.417969 L -6.8125 236.050781 L -13.023438 235.390625 L -15.414062 235.597656 L -16.039062 235.53125 L -16.597656 235.691406 L -18.382812 235.796875 L -21.769531 236.871094 L -23.207031 237.578125 L -24.113281 237.835938 L -24.269531 238.101562 L -39.101562 245.375 L -46.402344 232.183594 Z M -47.335938 230.128906 "/>
<path style=" stroke:none;fill-rule:nonzero;fill:rgb(39.99939%,39.99939%,39.99939%);fill-opacity:0.3;" d="M -5.992188 299.4375 L -20.851562 304.53125 L -21.679688 304.648438 L -22.628906 304.683594 L -23.554688 304.511719 L -24.117188 304.222656 L -24.429688 303.933594 L -24.613281 303.660156 L -24.757812 303.296875 L -24.78125 302.730469 L -24.660156 302.265625 L -24.234375 301.453125 L -23.746094 300.773438 L 1.792969 259.859375 L 14.851562 256.636719 L 21.105469 273.3125 L 2.484375 279.265625 L 2.84375 280.234375 L 3.234375 281.28125 L 21.609375 275.328125 L 26.25 286.945312 Z M -5.992188 299.4375 "/>
<path style=" stroke:none;fill-rule:nonzero;fill:rgb(39.99939%,39.99939%,39.99939%);fill-opacity:0.3;" d="M -140.570312 232.507812 L -137.167969 231.488281 L -116.734375 222.1875 L -92.019531 210.140625 L -61.828125 195.121094 L -43.019531 185.84375 L -26.851562 176.445312 L -17.933594 170.648438 L -10.117188 165.300781 L 7.050781 185.355469 L -36.386719 215.457031 L -46.8125 227.378906 L -95.378906 255.476562 L -126.230469 274.222656 Z M -140.570312 232.507812 "/>
<path style=" stroke:none;fill-rule:nonzero;fill:rgb(39.99939%,39.99939%,39.99939%);fill-opacity:0.3;" d="M 16.714844 241.1875 L 53.078125 231.449219 L 56.167969 240.410156 L 48.144531 242.191406 L 55.429688 265.632812 L 31.285156 249.6875 L 5.632812 255.480469 Z M 16.714844 241.1875 "/>
<path style=" stroke:none;fill-rule:nonzero;fill:rgb(39.99939%,39.99939%,39.99939%);fill-opacity:0.3;" d="M 50.148438 243.679688 L 56.960938 242.109375 L 59.210938 248.847656 L 61.382812 256.433594 L 64.359375 266.804688 L 57.433594 265.875 L 54.898438 258.15625 L 52.402344 250.539062 Z M 50.148438 243.679688 "/>
<path style=" stroke:none;fill-rule:nonzero;fill:rgb(39.99939%,39.99939%,39.99939%);fill-opacity:0.3;" d="M 17.199219 255.921875 L 24.96875 253.832031 L 30.898438 253.738281 L 36.023438 255.851562 L 50.394531 265.921875 L 23.578125 273.007812 Z M 17.199219 255.921875 "/>
<path style=" stroke:none;fill-rule:nonzero;fill:rgb(39.99939%,39.99939%,39.99939%);fill-opacity:0.3;" d="M 50.285156 221.335938 L 52.636719 229.886719 L 20.980469 238.09375 L 19.226562 237.1875 Z M 50.285156 221.335938 "/>
<path style=" stroke:none;fill-rule:nonzero;fill:rgb(39.99939%,39.99939%,39.99939%);fill-opacity:0.3;" d="M 110.640625 182.976562 L 122.320312 170.457031 L 162.796875 139.40625 L 171.191406 139.0625 L 170.621094 145.3125 L 163.15625 164.769531 L 141.230469 181.203125 Z M 110.640625 182.976562 "/>
<path style=" stroke:none;fill-rule:nonzero;fill:rgb(39.99939%,39.99939%,39.99939%);fill-opacity:0.3;" d="M 92.140625 164.09375 L 136.855469 129.054688 L 149.167969 131.808594 L 144.910156 146.0625 L 124.042969 161.9375 L 118.617188 166.007812 L 116.625 167.765625 L 113.78125 170.6875 L 111.765625 173.1875 L 110.15625 175.597656 L 108.4375 178.644531 L 106.65625 182.152344 Z M 92.140625 164.09375 "/>
<path style=" stroke:none;fill-rule:nonzero;fill:rgb(39.99939%,39.99939%,39.99939%);fill-opacity:0.3;" d="M 61.761719 181.339844 L 87.558594 166.667969 L 103.582031 184.269531 L 53 212.8125 L 52.375 207.519531 L 52.359375 202.351562 L 53.046875 198.378906 L 54.242188 194.414062 L 55.347656 191.503906 L 58.765625 185.171875 Z M 61.761719 181.339844 "/>
<path style=" stroke:none;fill-rule:nonzero;fill:rgb(39.99939%,39.99939%,39.99939%);fill-opacity:0.3;" d="M 61.492188 241.433594 L 117.722656 210.164062 L 125.046875 221.050781 L 110.316406 236.546875 L 94.796875 250.683594 L 83.183594 256.640625 L 71.105469 260.820312 L 66.679688 261.472656 Z M 61.492188 241.433594 "/>
<path style=" stroke:none;fill-rule:nonzero;fill:rgb(39.99939%,39.99939%,39.99939%);fill-opacity:0.3;" d="M 54.601562 218.90625 L 111.242188 188.269531 L 132.683594 186.816406 L 122.925781 203.125 L 60.519531 237.457031 Z M 54.601562 218.90625 "/>
<path style=" stroke:none;fill-rule:nonzero;fill:rgb(39.99939%,39.99939%,39.99939%);fill-opacity:0.3;" d="M 105.308594 121.246094 L 132.328125 127.3125 L 89.183594 161.003906 L 81.023438 150.832031 Z M 105.308594 121.246094 "/>
<path style=" stroke:none;fill-rule:nonzero;fill:rgb(39.99939%,39.99939%,39.99939%);fill-opacity:0.3;" d="M 50.40625 117.207031 L 53.886719 114.914062 L 81.136719 117.15625 L 91.816406 118.589844 L 90.953125 122.515625 L 88.449219 127.789062 L 84.457031 133.785156 L 74.523438 144.640625 Z M 50.40625 117.207031 "/>
<path style=" stroke:none;fill-rule:nonzero;fill:rgb(39.99939%,39.99939%,39.99939%);fill-opacity:0.3;" d="M 76.972656 155.003906 L 85.160156 163.792969 L 64.894531 174.402344 Z M 76.972656 155.003906 "/>
<path style=" stroke:none;fill-rule:nonzero;fill:rgb(39.99939%,39.99939%,39.99939%);fill-opacity:0.3;" d="M -4.671875 162.800781 L 47.46875 120.539062 L 70.925781 146.15625 L 71.085938 147.351562 L 69.199219 148.84375 L 58.359375 154.375 L 44.378906 161.996094 L 11.703125 182.164062 Z M -4.671875 162.800781 "/>
<path style=" stroke:none;fill-rule:nonzero;fill:rgb(39.99939%,39.99939%,39.99939%);fill-opacity:0.3;" d="M 170.480469 103.328125 L 184.875 104.207031 L 181.40625 116.484375 L 177.460938 125.933594 L 174.171875 132.226562 L 166.527344 129.925781 Z M 170.480469 103.328125 "/>
<path style=" stroke:none;fill-rule:nonzero;fill:rgb(39.99939%,39.99939%,39.99939%);fill-opacity:0.3;" d="M 111.765625 102.386719 L 149.789062 103.285156 L 160.054688 103.527344 L 165.976562 103.667969 L 162.800781 129 L 109.171875 116.285156 Z M 111.765625 102.386719 "/>
<path style=" stroke:none;fill-rule:nonzero;fill:rgb(39.99939%,39.99939%,39.99939%);fill-opacity:0.3;" d="M 68.265625 95.679688 L 106.152344 97.90625 L 101.222656 106.921875 L 100.644531 107.609375 L 99.8125 108.046875 L 98.847656 108.484375 L 97.671875 108.792969 L 96.625 108.976562 L 95.222656 109.148438 L 52.917969 108.742188 Z M 68.265625 95.679688 "/>
<path style=" stroke:none;fill-rule:nonzero;fill:rgb(39.99939%,39.99939%,39.99939%);fill-opacity:0.3;" d="M 85.53125 78.148438 L 115.695312 80.191406 L 108.667969 95.085938 L 71.664062 92.554688 L 77.828125 87.363281 L 83 81.851562 Z M 85.53125 78.148438 "/>
<path style=" stroke:none;fill-rule:nonzero;fill:rgb(39.99939%,39.99939%,39.99939%);fill-opacity:0.3;" d="M 97.527344 59.832031 L 125.238281 62.296875 L 117.835938 77.332031 L 89.015625 74.335938 L 91.28125 71.15625 L 95.046875 64.539062 Z M 97.527344 59.832031 "/>
<path style=" stroke:none;fill-rule:nonzero;fill:rgb(39.99939%,39.99939%,39.99939%);fill-opacity:0.3;" d="M 195.980469 -9.667969 L 184.703125 100.554688 L 113.976562 95.769531 L 125.316406 70.507812 L 142.117188 35.25 L 149.359375 25.957031 L 152.753906 23.242188 L 163.101562 15.46875 L 168.21875 12.226562 L 169.683594 11.738281 L 170.671875 10.671875 L 174.054688 8.53125 L 193.632812 -10.574219 Z M 195.980469 -9.667969 "/>
<path style=" stroke:none;fill-rule:nonzero;fill:rgb(39.99939%,39.99939%,39.99939%);fill-opacity:0.3;" d="M 24.332031 274.335938 L 51.234375 267.246094 L 62.636719 275.839844 L 45.605469 290.277344 L 33.820312 287.636719 L 28.703125 285.796875 Z M 24.332031 274.335938 "/>
<path style=" stroke:none;fill-rule:nonzero;fill:rgb(39.99939%,39.99939%,39.99939%);fill-opacity:0.3;" d="M 45.566406 279.359375 L 44.324219 278.089844 L 47.761719 275.636719 L 49.003906 275.089844 L 53.210938 273.90625 L 57.039062 273.902344 L 56.851562 275.535156 L 52.929688 275.722656 L 49.199219 276.90625 Z M 45.566406 279.359375 "/>
<path style=" stroke:none;fill-rule:nonzero;fill:rgb(39.99939%,39.99939%,39.99939%);fill-opacity:0.3;" d="M 126.234375 205.003906 L 128.863281 202.265625 L 137.121094 187.386719 L 143.242188 184.621094 L 153.40625 175.710938 L 155.539062 175.234375 L 156.917969 175.351562 L 157.546875 176.539062 L 157.421875 178.207031 L 141.722656 203.667969 L 128.507812 219.277344 L 121.171875 208.886719 Z M 126.234375 205.003906 "/>
<path style=" stroke:none;fill-rule:nonzero;fill:rgb(39.99939%,39.99939%,39.99939%);fill-opacity:0.3;" d="M 306.371094 106.164062 L 321.285156 95.828125 L 321.742188 102.921875 L 318.289062 105.414062 Z M 306.371094 106.164062 "/>
<path style=" stroke:none;fill-rule:nonzero;fill:rgb(39.99939%,39.99939%,39.99939%);fill-opacity:0.3;" d="M 324.800781 5.277344 L 326.859375 6.46875 L 327.808594 10.078125 L 328.132812 21.507812 L 327.476562 33.457031 L 327.523438 36.175781 L 327.71875 48.382812 L 327.625 58.90625 L 299.867188 78.234375 L 278.957031 62.964844 Z M 324.800781 5.277344 "/>
<path style=" stroke:none;fill-rule:nonzero;fill:rgb(39.99939%,39.99939%,39.99939%);fill-opacity:0.3;" d="M 292.546875 -4.0625 L 321.394531 2.277344 L 275.222656 61 L 252.257812 45.515625 Z M 292.546875 -4.0625 "/>
<path style=" stroke:none;fill-rule:nonzero;fill:rgb(39.99939%,39.99939%,39.99939%);fill-opacity:0.3;" d="M 243.898438 106.46875 L 257.679688 107.34375 L 219.695312 135.871094 Z M 243.898438 106.46875 "/>
<path style=" stroke:none;fill-rule:nonzero;fill:rgb(39.99939%,39.99939%,39.99939%);fill-opacity:0.3;" d="M 249.515625 46.953125 L 272.980469 62.808594 L 242.566406 102.992188 L 205.609375 101.546875 Z M 249.515625 46.953125 "/>
<path style=" stroke:none;fill-rule:nonzero;fill:rgb(39.99939%,39.99939%,39.99939%);fill-opacity:0.3;" d="M 275.90625 64.996094 L 295.265625 79.691406 L 262.785156 103.609375 L 246.5 103.203125 Z M 275.90625 64.996094 "/>
<path style=" stroke:none;fill-rule:nonzero;fill:rgb(39.99939%,39.99939%,39.99939%);fill-opacity:0.3;" d="M 203.019531 104.910156 L 239.0625 106.703125 L 209.910156 142.324219 L 196.582031 139.394531 L 199.105469 121.390625 Z M 203.019531 104.910156 "/>
<path style=" stroke:none;fill-rule:nonzero;fill:rgb(39.99939%,39.99939%,39.99939%);fill-opacity:0.3;" d="M 324.636719 67.070312 L 320.527344 92.386719 L 301.628906 104.914062 L 272.128906 103.613281 Z M 324.636719 67.070312 "/>
<path style=" stroke:none;fill-rule:nonzero;fill:rgb(39.99939%,39.99939%,39.99939%);fill-opacity:0.3;" d="M 264.882812 107.925781 L 295.261719 109.964844 L 240.886719 149.605469 L 213.164062 143.464844 Z M 264.882812 107.925781 "/>
<path style=" stroke:none;fill-rule:nonzero;fill:rgb(39.99939%,39.99939%,39.99939%);fill-opacity:0.3;" d="M 295.800781 114.820312 L 303.746094 109.214844 L 312.28125 109.628906 L 313.488281 110.355469 L 313.816406 111.480469 L 313.804688 112.667969 L 310.003906 121.09375 L 306.410156 130.511719 L 302.933594 134.550781 L 298.300781 138.589844 L 259.503906 153.117188 L 246.125 150.046875 Z M 295.800781 114.820312 "/>
<path style=" stroke:none;fill-rule:nonzero;fill:rgb(39.99939%,39.99939%,39.99939%);fill-opacity:0.3;" d="M 83.210938 72.882812 L 82.113281 74.78125 L 81.484375 75.066406 Z M 83.210938 72.882812 "/>
<path style=" stroke:none;fill-rule:nonzero;fill:rgb(39.99939%,39.99939%,39.99939%);fill-opacity:0.3;" d="M 270.214844 -12.109375 L 273.949219 -7.640625 L 288.132812 -5.324219 L 237.050781 55.148438 L 221.058594 74.082031 L 203.324219 95.082031 L 205.828125 65.03125 L 210.925781 3.925781 L 225.5625 7.796875 L 225.878906 5.988281 L 226.1875 4.246094 L 210.742188 0.179688 L 211.113281 -5.972656 L 211.929688 -19.40625 L 212.363281 -19.40625 L 219.671875 -15.945312 Z M 270.214844 -12.109375 "/>
<path style=" stroke:none;fill-rule:nonzero;fill:rgb(39.99939%,39.99939%,39.99939%);fill-opacity:0.3;" d="M 307.195312 139.421875 L 308.089844 158.621094 L 308.636719 170.40625 L 302.457031 176.292969 L 295.226562 183.183594 L 292.730469 184.773438 L 288.113281 185.160156 L 281.960938 183.234375 L 271.964844 180.160156 L 265.894531 179.582031 L 265.296875 179.476562 L 264.472656 179.445312 L 263.890625 179.390625 L 263.789062 179.421875 L 262.503906 179.371094 L 259.753906 179.722656 L 257.203125 180.457031 L 254.378906 181.777344 L 241.933594 189.632812 L 238.710938 191.222656 L 232.0625 192.703125 L 228.253906 192.800781 L 225.074219 192.890625 L 220.589844 193.957031 L 215.863281 195.210938 L 211.523438 189.542969 L 209.597656 185.519531 L 259.300781 160.328125 L 276.167969 152.882812 L 293.929688 145.175781 L 299.875 142.597656 Z M 307.195312 139.421875 "/>
<path style=" stroke:none;fill-rule:nonzero;fill:rgb(39.99939%,39.99939%,39.99939%);fill-opacity:0.3;" d="M 209.007812 146.621094 L 257.230469 156.664062 L 227.125 172.503906 Z M 209.007812 146.621094 "/>
<path style=" stroke:none;fill-rule:nonzero;fill:rgb(39.99939%,39.99939%,39.99939%);fill-opacity:0.3;" d="M 203.09375 144.84375 L 222.859375 173.898438 L 206.609375 182.644531 L 189.378906 158.136719 L 195.480469 147.96875 Z M 203.09375 144.84375 "/>
<path style=" stroke:none;fill-rule:nonzero;fill:rgb(39.99939%,39.99939%,39.99939%);fill-opacity:0.3;" d="M 187.117188 161.617188 L 204.316406 184.332031 L 188.601562 194.339844 L 177.382812 178.546875 L 183.3125 164.421875 Z M 187.117188 161.617188 "/>
<path style=" stroke:none;fill-rule:nonzero;fill:rgb(39.99939%,39.99939%,39.99939%);fill-opacity:0.3;" d="M 175.5 182.613281 L 185.246094 195.875 L 169.800781 207.527344 L 164.59375 201.210938 Z M 175.5 182.613281 "/>
<path style=" stroke:none;fill-rule:nonzero;fill:rgb(39.99939%,39.99939%,39.99939%);fill-opacity:0.3;" d="M 189.949219 197.148438 L 205.265625 186.257812 L 213.558594 197.585938 L 198.742188 209.761719 Z M 189.949219 197.148438 "/>
<path style=" stroke:none;fill-rule:nonzero;fill:rgb(39.99939%,39.99939%,39.99939%);fill-opacity:0.3;" d="M 162.5625 202.175781 L 167.636719 208.363281 L 153.625 223.671875 L 149.785156 218.628906 Z M 162.5625 202.175781 "/>
<path style=" stroke:none;fill-rule:nonzero;fill:rgb(39.99939%,39.99939%,39.99939%);fill-opacity:0.3;" d="M 155.988281 226.917969 L 169.925781 212.394531 L 181.546875 228.691406 L 168.097656 242.835938 Z M 155.988281 226.917969 "/>
<path style=" stroke:none;fill-rule:nonzero;fill:rgb(39.99939%,39.99939%,39.99939%);fill-opacity:0.3;" d="M 171.558594 210.21875 L 187.136719 198.570312 L 197.019531 212.59375 L 183.042969 226.769531 Z M 171.558594 210.21875 "/>
<path style=" stroke:none;fill-rule:nonzero;fill:rgb(39.99939%,39.99939%,39.99939%);fill-opacity:0.3;" d="M 127.90625 249.242188 L 130.199219 260.171875 L 122.761719 259.996094 L 116.917969 260.171875 L 111.453125 260.28125 L 109.089844 259.761719 L 118.714844 251.449219 Z M 127.90625 249.242188 "/>
<path style=" stroke:none;fill-rule:nonzero;fill:rgb(39.99939%,39.99939%,39.99939%);fill-opacity:0.3;" d="M 154.410156 229.566406 L 167.25 246.097656 L 164.421875 261.972656 L 163.734375 263.414062 L 162.378906 265.523438 L 157.378906 268.597656 L 152.378906 268.984375 L 151.878906 268.828125 L 151.730469 268.742188 L 143.648438 264.191406 L 133.671875 261.230469 L 131.109375 248.476562 Z M 154.410156 229.566406 "/>
<path style=" stroke:none;fill-rule:nonzero;fill:rgb(39.99939%,39.99939%,39.99939%);fill-opacity:0.3;" d="M 147.945312 222.398438 L 152.351562 226.816406 L 142.921875 235.1875 L 137.945312 239.101562 L 132.664062 242.453125 L 127.5625 245.386719 L 121.867188 247.53125 L 140.042969 230.375 Z M 147.945312 222.398438 "/>
<path style=" stroke:none;fill-rule:nonzero;fill:rgb(39.99939%,39.99939%,39.99939%);fill-opacity:0.3;" d="M -2.9375 283.21875 L -5.109375 279.011719 L -1.824219 277.492188 L 0.347656 281.699219 Z M -2.9375 283.21875 "/>
<path style=" stroke:none;fill-rule:nonzero;fill:rgb(39.99939%,39.99939%,39.99939%);fill-opacity:0.3;" d="M 0.148438 288.511719 L -2.027344 284.308594 L 1.257812 282.789062 L 3.433594 286.996094 Z M 0.148438 288.511719 "/>
<path style=" stroke:none;fill-rule:nonzero;fill:rgb(39.99939%,39.99939%,39.99939%);fill-opacity:0.3;" d="M 2.972656 293.5 L 0.796875 289.296875 L 4.082031 287.777344 L 6.257812 291.980469 Z M 2.972656 293.5 "/>
<path style=" stroke:none;fill-rule:nonzero;fill:rgb(39.99939%,39.99939%,39.99939%);fill-opacity:0.3;" d="M 9.214844 240.730469 L 9.636719 241.367188 L 9.199219 242.5 L 8.292969 243.203125 L 2.078125 246.957031 L -5.097656 258.964844 L -29.546875 270.339844 L -40.316406 276.316406 L -47.199219 276.539062 L -26.582031 241.972656 L -21.636719 239.570312 L -12.476562 238.441406 L -1.292969 238.929688 Z M 9.214844 240.730469 "/>
<path style=" stroke:none;fill-rule:nonzero;fill:rgb(39.99939%,39.99939%,39.99939%);fill-opacity:0.3;" d="M 12 238.652344 L 10.296875 238.417969 L 12.03125 238.605469 Z M 12 238.652344 "/>
<g clip-path="url(#clip1)" clip-rule="nonzero">
<path style=" stroke:none;fill-rule:nonzero;fill:rgb(39.99939%,39.99939%,39.99939%);fill-opacity:0.3;" d="M 378.96875 -20.335938 L 387.542969 19.824219 L 356.558594 40.964844 L 332.546875 56.09375 L 332.445312 56.109375 L 331.441406 54.292969 L 332.902344 22.605469 L 332.527344 14.457031 L 332.320312 10.410156 L 331.660156 7.546875 L 330.585938 4.363281 L 330.378906 1.347656 L 331.136719 -1.605469 L 333.195312 -4.910156 L 335.453125 -8.460938 L 337.851562 -11.425781 L 358.402344 -15.699219 Z M 378.96875 -20.335938 "/>
</g>
<path style=" stroke:none;fill-rule:nonzero;fill:rgb(39.99939%,39.99939%,39.99939%);fill-opacity:0.3;" d="M -32.96875 -31.746094 L -10.5 -28.105469 L -18.613281 9.238281 L -20.40625 8.914062 L -22.074219 9.183594 L -23.457031 9.894531 L -24.5 10.917969 L -25.164062 12.144531 L -25.433594 13.585938 L -25.214844 15.09375 L -24.578125 16.355469 L -23.402344 17.527344 L -21.960938 18.234375 L -20.375 18.472656 L -18.964844 18.273438 L -17.367188 17.507812 L -16.21875 16.351562 L -15.585938 15.089844 L -15.375 13.40625 L -6.523438 -27.839844 L 32.226562 -19.078125 L 41.503906 -17.28125 L 32.835938 23.175781 L 34.851562 23.625 L 37.085938 24.011719 L 46.121094 -16.664062 L 62.042969 -13.5625 L 52.164062 25.414062 L 56.976562 25.851562 L 66.046875 -12.828125 L 81.292969 -8.449219 L 72.5 28.335938 L 74.761719 28.648438 L 76.691406 28.917969 L 84.859375 -7.148438 L 99.121094 -2.769531 L 100.34375 5.792969 L 101.136719 12.289062 L 101.585938 17.652344 L 101.59375 23.960938 L 100.828125 31.011719 L 98.71875 37.894531 L -17.882812 27.515625 L -21.496094 44.34375 L -50.441406 41.109375 Z M -32.96875 -31.746094 "/>
<path style=" stroke:none;fill-rule:nonzero;fill:rgb(39.99939%,39.99939%,39.99939%);fill-opacity:0.3;" d="M 168.21875 12.226562 L 170.671875 10.671875 L 169.683594 11.738281 Z M 168.21875 12.226562 "/>
<path style=" stroke:none;fill-rule:nonzero;fill:rgb(39.99939%,39.99939%,39.99939%);fill-opacity:0.3;" d="M 38.902344 -90.957031 L 46.171875 -91.300781 L 51.207031 -90.480469 L 57.828125 -88.769531 L 64.199219 -85.644531 L 68.554688 -83.355469 L 72.6875 -81.132812 L 77.316406 -80.160156 L 82.972656 -79.003906 L 85.9375 -78.410156 L 88.628906 -78.714844 L 96.59375 -78.832031 L 200.792969 -50.476562 L 197.769531 -18.566406 L 169.292969 6.101562 L 168.738281 6.464844 L 167.871094 6.910156 L 166.949219 7.246094 L 165.757812 7.566406 L 164.628906 7.800781 L 163.554688 7.953125 L 162.195312 8.125 L 161.070312 8.144531 L 160.175781 8.183594 L 159.039062 8.105469 L 157.964844 7.800781 L 106.820312 -6.566406 L 102.820312 -18.941406 L 97.074219 -29.839844 L 91.316406 -40.042969 L 84.1875 -48.035156 L 77.847656 -54.527344 L 70.453125 -62.269531 L 64.378906 -67.761719 L 56.722656 -74.753906 L 51.117188 -78.378906 L 46.894531 -81.121094 L 40.824219 -84.117188 L 35.976562 -85.621094 Z M 38.902344 -90.957031 "/>
<path style=" stroke:none;fill-rule:nonzero;fill:rgb(39.99939%,39.99939%,39.99939%);fill-opacity:0.3;" d="M 108.15625 37.921875 L 134.46875 8.007812 L 155.949219 13.839844 L 146 21.355469 L 140.5625 26.523438 L 136.058594 34.21875 L 124.1875 57.699219 L 101.46875 55.421875 Z M 108.15625 37.921875 "/>
<path style=" stroke:none;fill-rule:nonzero;fill:rgb(39.99939%,39.99939%,39.99939%);fill-opacity:0.3;" d="M 132.441406 6.992188 L 110.492188 31.105469 L 109.953125 31.246094 L 109.34375 31.132812 L 108.675781 30.71875 L 108.519531 29.867188 L 109.867188 0.21875 Z M 132.441406 6.992188 "/>
<path style=" stroke:none;fill-rule:nonzero;fill:rgb(39.99939%,39.99939%,39.99939%);fill-opacity:0.3;" d="M 27.226562 34.777344 L 98.679688 40.65625 L 95.878906 48.410156 L 92.707031 54.871094 L 29.109375 50.804688 L 27.644531 50.375 L 26.703125 49.628906 L 26.289062 48.53125 L 26.296875 41.828125 Z M 27.226562 34.777344 "/>
<path style=" stroke:none;fill-rule:nonzero;fill:rgb(39.99939%,39.99939%,39.99939%);fill-opacity:0.3;" d="M -14.226562 30.863281 L 25.183594 34.738281 L 23.941406 50.648438 L -17.042969 45.324219 Z M -14.226562 30.863281 "/>
<g clip-path="url(#clip2)" clip-rule="nonzero">
<path style=" stroke:none;fill-rule:nonzero;fill:rgb(39.99939%,39.99939%,39.99939%);fill-opacity:0.3;" d="M 312.855469 173.121094 L 320.308594 179.992188 L 324.496094 181.917969 L 328.570312 182.421875 L 334.253906 182.3125 L 338.324219 181.597656 L 341.753906 180.472656 L 378.113281 142.621094 L 391.703125 143.28125 L 412.945312 144.316406 L 421.097656 147.011719 L 419.109375 149.398438 L 414.792969 153.253906 L 406.636719 158.273438 L 393.949219 164.371094 L 384.929688 169.097656 L 376.953125 174.9375 L 346.859375 200.578125 L 312.195312 225.699219 Z M 312.855469 173.121094 "/>
</g>
<g clip-path="url(#clip3)" clip-rule="nonzero">
<path style=" stroke:none;fill-rule:nonzero;fill:rgb(39.99939%,39.99939%,39.99939%);fill-opacity:0.3;" d="M 312.949219 228.367188 L 348.761719 202.503906 L 385.546875 171.941406 L 404.226562 162.40625 L 406.820312 161.082031 L 372.710938 216.347656 L 362.984375 219.132812 L 328.875 227.070312 L 313.605469 230.570312 L 313.339844 230.167969 L 312.878906 229.109375 Z M 312.949219 228.367188 "/>
</g>
<g clip-path="url(#clip4)" clip-rule="nonzero">
<path style=" stroke:none;fill-rule:nonzero;fill:rgb(39.99939%,39.99939%,39.99939%);fill-opacity:0.3;" d="M 375.691406 110.886719 L 375.769531 127.738281 L 375.820312 138.617188 L 349.703125 167.160156 L 340.121094 177.035156 L 338.074219 178.390625 L 334.515625 179.660156 L 331.753906 180.171875 L 328.1875 180.269531 L 325.789062 179.839844 L 322.253906 178.171875 L 318.839844 175.710938 L 315.699219 172.265625 Z M 375.691406 110.886719 "/>
</g>
<path style=" stroke:none;fill-rule:nonzero;fill:rgb(39.99939%,39.99939%,39.99939%);fill-opacity:0.3;" d="M 336.402344 98.996094 L 332.347656 100.746094 L 327.820312 102.382812 L 326.761719 102.351562 L 326.671875 102.296875 Z M 336.402344 98.996094 "/>
<path style=" stroke:none;fill-rule:nonzero;fill:rgb(39.99939%,39.99939%,39.99939%);fill-opacity:0.3;" d="M 295.226562 183.183594 L 293.828125 184.515625 L 291.0625 185.589844 L 288.632812 185.96875 L 286.496094 185.796875 L 284.4375 185.378906 L 282.167969 184.621094 L 281.960938 183.234375 L 288.113281 185.160156 L 292.730469 184.773438 Z M 295.226562 183.183594 "/>
<path style=" stroke:none;fill-rule:nonzero;fill:rgb(39.99939%,39.99939%,39.99939%);fill-opacity:0.3;" d="M 284.398438 188.21875 L 307.140625 186.144531 L 308.3125 195.433594 L 284.441406 189.359375 Z M 284.398438 188.21875 "/>
<path style=" stroke:none;fill-rule:nonzero;fill:rgb(39.99939%,39.99939%,39.99939%);fill-opacity:0.3;" d="M 284.484375 190.558594 L 290.195312 191.902344 L 297.855469 193.949219 L 308.082031 196.660156 L 309.070312 229.507812 L 291.9375 231.90625 Z M 284.484375 190.558594 "/>
<g clip-path="url(#clip5)" clip-rule="nonzero">
<path style=" stroke:none;fill-rule:nonzero;fill:rgb(39.99939%,39.99939%,39.99939%);fill-opacity:0.3;" d="M 315.945312 158.769531 L 314.367188 157.300781 L 313.148438 154.886719 L 313.300781 151.144531 L 313.503906 146.59375 L 313.371094 142.578125 L 312.683594 136.621094 L 313.613281 130.773438 L 314.816406 125.957031 L 316.746094 121.601562 L 323.027344 112.882812 L 330.9375 105.585938 L 335.859375 103.476562 L 340.367188 101.550781 L 348.226562 99.570312 L 350.550781 98.988281 L 357.1875 97.199219 L 364.671875 96.027344 L 370.402344 95.722656 L 372.234375 96.207031 L 373.695312 96.925781 L 374.839844 97.964844 L 375.515625 99.519531 L 375.808594 101.253906 L 375.996094 103.023438 L 375.84375 104.828125 L 354.578125 126.71875 L 341.660156 140.015625 L 324.589844 157.585938 L 322.976562 159.207031 L 321.71875 159.800781 L 318.445312 159.59375 Z M 315.945312 158.769531 "/>
</g>
<g clip-path="url(#clip6)" clip-rule="nonzero">
<path style=" stroke:none;fill-rule:nonzero;fill:rgb(39.99939%,39.99939%,39.99939%);fill-opacity:0.3;" d="M 387.542969 19.824219 L 387.75 20.808594 L 334.910156 55.757812 L 332.546875 56.09375 L 356.558594 40.964844 Z M 387.542969 19.824219 "/>
</g>
<g clip-path="url(#clip7)" clip-rule="nonzero">
<path style=" stroke:none;fill-rule:nonzero;fill:rgb(39.99939%,39.99939%,39.99939%);fill-opacity:0.3;" d="M 333.644531 63.144531 L 336.746094 59.351562 L 339.441406 56.96875 L 343.050781 53.722656 L 346.296875 51.585938 L 349.5 49.929688 L 353.253906 48.417969 L 356.800781 47.355469 L 359.691406 46.890625 L 361.269531 46.9375 L 362.59375 47.5 L 363.351562 49.285156 L 363.246094 50.855469 L 362.691406 52.636719 L 361.09375 55.078125 L 358.105469 58.839844 L 353.527344 64.082031 L 350.621094 66.890625 L 346.460938 70.457031 L 342.007812 73.691406 L 337.054688 77.328125 L 333.925781 80.101562 L 332.1875 81.640625 L 330.023438 82.191406 L 328.59375 81.652344 L 327.65625 80.160156 L 327.261719 77.351562 L 327.898438 74.132812 L 329.730469 69.53125 Z M 333.644531 63.144531 "/>
</g>
<g clip-path="url(#clip8)" clip-rule="nonzero">
<path style=" stroke:none;fill-rule:nonzero;fill:rgb(39.99939%,39.99939%,39.99939%);fill-opacity:0.3;" d="M 369.96875 46.136719 L 371.042969 45.171875 L 372.136719 44.746094 L 373.253906 44.765625 L 374.476562 45.296875 L 375.199219 45.953125 L 375.511719 46.414062 L 375.933594 47.390625 L 382.648438 89.84375 L 372.980469 90.820312 L 362.101562 92.582031 L 353.300781 94.066406 L 345.484375 95.964844 L 338.902344 97.914062 L 336.402344 98.996094 L 326.671875 102.296875 L 325.195312 101.410156 L 324.496094 99.632812 L 324.660156 97.648438 L 325.523438 95.722656 L 330.722656 88.886719 L 335.65625 83.277344 L 340.4375 79.113281 L 345.472656 75.503906 L 352.28125 70.097656 L 357.257812 65.273438 L 361.105469 61.375 L 364.625 57.058594 L 367.851562 51.1875 L 369.402344 47.496094 Z M 369.96875 46.136719 "/>
</g>
<path style=" stroke:none;fill-rule:nonzero;fill:rgb(39.99939%,39.99939%,39.99939%);fill-opacity:0.3;" d="M 222.558594 347.597656 L 219.773438 351.625 L 219.589844 351.597656 Z M 222.558594 347.597656 "/>
<path style=" stroke:none;fill-rule:nonzero;fill:rgb(39.99939%,39.99939%,39.99939%);fill-opacity:0.3;" d="M 301.867188 332.324219 L 308.234375 335.039062 L 305.023438 342.308594 L 298.660156 339.59375 L 299.980469 336.601562 L 299.3125 336.316406 L 297.992188 339.308594 L 291.625 336.59375 L 294.835938 329.324219 L 301.199219 332.039062 L 299.878906 335.03125 L 300.546875 335.316406 Z M 301.867188 332.324219 "/>
<path style=" stroke:none;fill-rule:nonzero;fill:rgb(39.99939%,39.99939%,39.99939%);fill-opacity:0.3;" d="M 282.390625 334.152344 L 288.757812 336.867188 L 285.546875 344.132812 L 279.179688 341.417969 L 280.503906 338.425781 L 279.835938 338.140625 L 278.511719 341.132812 L 272.148438 338.417969 L 275.355469 331.152344 L 281.722656 333.867188 L 280.402344 336.859375 L 281.070312 337.144531 Z M 282.390625 334.152344 "/>
<g clip-path="url(#clip9)" clip-rule="nonzero">
<path style=" stroke:none;fill-rule:nonzero;fill:rgb(39.99939%,39.99939%,39.99939%);fill-opacity:0.3;" d="M 267.398438 352.175781 L 273.765625 354.890625 L 270.554688 362.15625 L 264.1875 359.441406 L 265.511719 356.449219 L 264.84375 356.164062 L 263.519531 359.15625 L 257.15625 356.441406 L 260.363281 349.175781 L 266.730469 351.890625 L 265.410156 354.882812 L 266.078125 355.167969 Z M 267.398438 352.175781 "/>
</g>
<g clip-path="url(#clip10)" clip-rule="nonzero">
<path style=" stroke:none;fill-rule:nonzero;fill:rgb(39.99939%,39.99939%,39.99939%);fill-opacity:0.3;" d="M 287.445312 353.296875 L 293.808594 356.011719 L 290.597656 363.28125 L 284.234375 360.566406 L 285.554688 357.574219 L 284.886719 357.289062 L 283.566406 360.28125 L 277.199219 357.566406 L 280.410156 350.296875 L 286.777344 353.011719 L 285.453125 356.003906 L 286.121094 356.289062 Z M 287.445312 353.296875 "/>
</g>
<g clip-path="url(#clip11)" clip-rule="nonzero">
<path style=" stroke:none;fill-rule:nonzero;fill:rgb(39.99939%,39.99939%,39.99939%);fill-opacity:0.3;" d="M 326.109375 372.003906 L 318.070312 327.027344 L 322.292969 302.683594 L 325.929688 287.707031 L 419.488281 263.945312 L 415.664062 318.554688 L 410.574219 319.640625 L 386.3125 323.972656 L 374.183594 328.816406 L 364.050781 335.300781 L 356.003906 342.1875 L 349.085938 348.585938 L 331.019531 372.464844 L 329.882812 373.238281 L 328.648438 373.4375 L 327.023438 373.140625 Z M 326.109375 372.003906 "/>
</g>
<g clip-path="url(#clip12)" clip-rule="nonzero">
<path style=" stroke:none;fill-rule:nonzero;fill:rgb(39.99939%,39.99939%,39.99939%);fill-opacity:0.3;" d="M 301.417969 353.171875 L 314.816406 358.886719 L 311.609375 366.15625 L 298.207031 360.4375 Z M 301.417969 353.171875 "/>
</g>
<g clip-path="url(#clip13)" clip-rule="nonzero">
<path style=" stroke:none;fill-rule:nonzero;fill:rgb(39.99939%,39.99939%,39.99939%);fill-opacity:0.3;" d="M 248.117188 325.175781 L 274.734375 301.21875 L 277.175781 299.230469 L 281.710938 297.683594 L 293.269531 295.214844 L 300.015625 293.773438 L 303.734375 293.109375 L 306.761719 292.996094 L 309.175781 293.066406 L 311.265625 293.832031 L 312.679688 295.042969 L 314.058594 296.765625 L 315.582031 299.820312 L 315.867188 304.058594 L 312.398438 330.808594 L 318.050781 367.464844 L 317.863281 369.804688 L 317.140625 371.601562 L 315.0625 376.488281 L 308.839844 384.53125 L 303.007812 393.84375 L 302.011719 396.640625 L 300.851562 397.777344 L 298.46875 399.320312 L 295.414062 400.507812 L 289.160156 402.136719 L 280.664062 403.464844 L 275.933594 403.695312 L 272.664062 403.527344 L 271.195312 403.167969 L 270.464844 402.789062 L 266.96875 397.996094 L 263.125 393.0625 L 260.289062 389.425781 L 258.59375 386.609375 L 257.632812 383.839844 L 257.71875 381.152344 L 256.292969 372.496094 L 254.289062 347.101562 L 252.488281 333.023438 Z M 248.117188 325.175781 "/>
</g>
<g clip-path="url(#clip14)" clip-rule="nonzero">
<path style=" stroke:none;fill-rule:nonzero;fill:rgb(39.99939%,39.99939%,39.99939%);fill-opacity:0.3;" d="M 206.609375 364.277344 L 206.601562 364.273438 L 215.375 356.53125 L 214.023438 358.09375 L 209.863281 361.542969 Z M 206.609375 364.277344 "/>
</g>
<g clip-path="url(#clip15)" clip-rule="nonzero">
<path style=" stroke:none;fill-rule:nonzero;fill:rgb(39.99939%,39.99939%,39.99939%);fill-opacity:0.3;" d="M 192.738281 377.644531 L 203.648438 370.425781 L 207.9375 376.398438 L 208.636719 375.859375 L 209.347656 375.308594 L 205.34375 369.3125 L 216.957031 361.65625 L 224.933594 369.894531 L 225.347656 369.511719 L 225.839844 369.058594 L 218.109375 360.625 L 226.082031 349.542969 L 236.496094 335.070312 L 242.269531 327.042969 L 243.1875 326.398438 L 244.835938 326.445312 L 246.09375 327.222656 L 248.714844 330.300781 L 250.171875 332.960938 L 250.90625 337.601562 L 251.300781 343.941406 L 251.410156 348.339844 L 251.507812 352.410156 L 251.558594 354.484375 L 242.84375 360.96875 L 244.832031 363.664062 L 246.710938 366.214844 L 252.113281 361.691406 L 252.632812 367.550781 L 253.675781 377.804688 L 254.847656 385.859375 L 256.113281 389.355469 L 258.074219 392.730469 L 263.84375 399 L 264.902344 400.308594 L 266.042969 402.003906 L 265.800781 403.546875 L 264.585938 404.398438 L 262.6875 404.976562 L 256.183594 405.972656 L 250.632812 408.15625 L 247.46875 409.6875 L 244.476562 410.554688 L 198.5625 417.996094 Z M 192.738281 377.644531 "/>
</g>
<path style=" stroke:none;fill-rule:nonzero;fill:rgb(39.99939%,39.99939%,39.99939%);fill-opacity:0.3;" d="M 86.304688 278.464844 L 105.054688 263.53125 L 110.199219 262.960938 L 116.886719 262.953125 L 121.261719 263.253906 L 128.851562 263.914062 L 130.296875 264.464844 L 140.496094 269.207031 L 143.84375 272.375 L 143.65625 275.121094 L 155.441406 297.480469 L 137.113281 304.6875 L 133 303.929688 L 131.617188 302.820312 L 120.078125 299.746094 L 114.125 299.617188 L 116.160156 288.113281 L 115.097656 287.921875 L 114.21875 287.765625 L 111.996094 299.574219 L 107.765625 299.484375 L 103.148438 298.953125 L 106.910156 284.792969 L 105.78125 284.453125 L 104.597656 284.09375 L 101.253906 296.355469 Z M 86.304688 278.464844 "/>
<path style=" stroke:none;fill-rule:nonzero;fill:rgb(39.99939%,39.99939%,39.99939%);fill-opacity:0.3;" d="M 282.167969 184.621094 L 269.703125 180.460938 L 267.273438 179.824219 L 265.894531 179.582031 L 271.964844 180.160156 L 281.960938 183.234375 Z M 282.167969 184.621094 "/>
<path style=" stroke:none;fill-rule:nonzero;fill:rgb(39.99939%,39.99939%,39.99939%);fill-opacity:0.3;" d="M 264.472656 179.445312 L 263.789062 179.421875 L 263.890625 179.390625 Z M 264.472656 179.445312 "/>
<path style=" stroke:none;fill-rule:nonzero;fill:rgb(39.99939%,39.99939%,39.99939%);fill-opacity:0.3;" d="M 238.710938 191.222656 L 238.695312 191.230469 L 236.359375 192.074219 L 233.550781 192.664062 L 232.0625 192.703125 Z M 238.710938 191.222656 "/>
<path style=" stroke:none;fill-rule:nonzero;fill:rgb(39.99939%,39.99939%,39.99939%);fill-opacity:0.3;" d="M 238.839844 273.234375 L 236.003906 274.21875 L 226 277.433594 L 212.863281 276.144531 L 214.285156 270.359375 L 207.878906 260.40625 L 214.78125 259.078125 L 233.46875 255.484375 L 246.316406 253.128906 L 249.273438 249.382812 L 252.03125 246.761719 L 254.992188 243.949219 L 258.144531 241.886719 L 260.515625 240.949219 L 264.070312 240.199219 L 268.804688 239.628906 L 308.570312 235.28125 L 308.199219 238.265625 L 305.800781 241.519531 L 303.191406 244.117188 L 284.878906 252.863281 Z M 238.839844 273.234375 "/>
<path style=" stroke:none;fill-rule:nonzero;fill:rgb(39.99939%,39.99939%,39.99939%);fill-opacity:0.3;" d="M 229.792969 196.613281 L 239.820312 193.859375 L 256.378906 238.132812 L 248.445312 242.796875 L 219.589844 198.707031 Z M 229.792969 196.613281 "/>
<path style=" stroke:none;fill-rule:nonzero;fill:rgb(39.99939%,39.99939%,39.99939%);fill-opacity:0.3;" d="M 243.597656 192.679688 L 256.375 185.910156 L 273.628906 234.644531 L 259.875 236.390625 Z M 243.597656 192.679688 "/>
<path style=" stroke:none;fill-rule:nonzero;fill:rgb(39.99939%,39.99939%,39.99939%);fill-opacity:0.3;" d="M 258.394531 184.109375 L 263.738281 183.527344 L 275.488281 184.785156 L 280.597656 187.113281 L 289.125 232.335938 L 276.21875 233.808594 Z M 258.394531 184.109375 "/>
<path style=" stroke:none;fill-rule:nonzero;fill:rgb(39.99939%,39.99939%,39.99939%);fill-opacity:0.3;" d="M 171.992188 247.28125 L 173.910156 241.929688 L 183.738281 232.273438 L 210.003906 269.597656 L 208.457031 278.019531 L 222.214844 278.660156 L 221.332031 278.9375 L 215.054688 280.132812 L 199.621094 285.488281 Z M 171.992188 247.28125 "/>
<path style=" stroke:none;fill-rule:nonzero;fill:rgb(39.99939%,39.99939%,39.99939%);fill-opacity:0.3;" d="M 200.714844 217.574219 L 226.035156 251.910156 L 206.085938 257.367188 L 185.6875 229.800781 L 197.03125 219.816406 Z M 200.714844 217.574219 "/>
<path style=" stroke:none;fill-rule:nonzero;fill:rgb(39.99939%,39.99939%,39.99939%);fill-opacity:0.3;" d="M 202.910156 214.625 L 216.359375 202.332031 L 244.609375 244.675781 L 243.339844 246.84375 L 239.128906 249.007812 L 236.554688 249.617188 L 234.199219 250.464844 L 231.914062 250.949219 L 229.914062 251.40625 Z M 202.910156 214.625 "/>
<path style=" stroke:none;fill-rule:nonzero;fill:rgb(39.99939%,39.99939%,39.99939%);fill-opacity:0.3;" d="M 148.257812 277.386719 L 160.429688 274.074219 L 173.179688 292.421875 L 159.105469 296.398438 Z M 148.257812 277.386719 "/>
<path style=" stroke:none;fill-rule:nonzero;fill:rgb(39.99939%,39.99939%,39.99939%);fill-opacity:0.3;" d="M 170.886719 252.015625 L 196.214844 286.671875 L 176.859375 291.417969 L 164.195312 271.734375 L 166.65625 269.535156 L 169.238281 266.480469 L 170.234375 262.269531 L 170.5625 258.796875 L 170.75 255.484375 Z M 170.886719 252.015625 "/>
<path style=" stroke:none;fill-rule:nonzero;fill:rgb(39.99939%,39.99939%,39.99939%);fill-opacity:0.3;" d="M 163.734375 263.414062 L 162.644531 265.691406 L 161.222656 267.605469 L 158.734375 269.636719 L 156.597656 270.085938 L 154.226562 270.203125 L 151.878906 268.828125 L 152.378906 268.984375 L 157.378906 268.597656 L 162.378906 265.523438 Z M 163.734375 263.414062 "/>
<path style=" stroke:none;fill-rule:nonzero;fill:rgb(39.99939%,39.99939%,39.99939%);fill-opacity:0.3;" d="M 84.617188 279.644531 L 100.996094 299.546875 L 71.339844 305.050781 L 51.429688 308.570312 Z M 84.617188 279.644531 "/>
<path style="fill-rule:nonzero;fill:rgb(39.99939%,39.99939%,39.99939%);fill-opacity:1;stroke-width:0.03;stroke-linecap:square;stroke-linejoin:miter;stroke:rgb(39.99939%,39.99939%,39.99939%);stroke-opacity:1;stroke-miterlimit:3.239307;" d="M 160.304688 291.464844 L 179.054688 276.53125 L 184.199219 275.960938 L 190.886719 275.953125 L 195.261719 276.253906 L 202.851562 276.914062 L 204.296875 277.464844 L 214.496094 282.207031 L 217.84375 285.375 L 217.65625 288.121094 L 229.441406 310.480469 L 211.113281 317.6875 L 207 316.929688 L 205.617188 315.820312 L 194.078125 312.746094 L 188.125 312.617188 L 190.160156 301.113281 L 189.097656 300.921875 L 188.21875 300.765625 L 185.996094 312.574219 L 181.765625 312.484375 L 177.148438 311.953125 L 180.910156 297.792969 L 179.78125 297.453125 L 178.597656 297.09375 L 175.253906 309.355469 Z M 160.304688 291.464844 " transform="matrix(1,0,0,1,-74,-13)"/>
<path style="fill-rule:nonzero;fill:rgb(39.99939%,39.99939%,39.99939%);fill-opacity:1;stroke-width:0.03;stroke-linecap:square;stroke-linejoin:miter;stroke:rgb(39.99939%,39.99939%,39.99939%);stroke-opacity:1;stroke-miterlimit:3.239307;" d="M 356.167969 197.621094 L 343.703125 193.460938 L 341.273438 192.824219 L 339.894531 192.582031 L 345.964844 193.160156 L 355.960938 196.234375 Z M 356.167969 197.621094 " transform="matrix(1,0,0,1,-74,-13)"/>
<path style="fill-rule:nonzero;fill:rgb(39.99939%,39.99939%,39.99939%);fill-opacity:1;stroke-width:0.03;stroke-linecap:square;stroke-linejoin:miter;stroke:rgb(39.99939%,39.99939%,39.99939%);stroke-opacity:1;stroke-miterlimit:3.239307;" d="M 338.472656 192.445312 L 337.789062 192.421875 L 337.890625 192.390625 Z M 338.472656 192.445312 " transform="matrix(1,0,0,1,-74,-13)"/>
<path style="fill-rule:nonzero;fill:rgb(39.99939%,39.99939%,39.99939%);fill-opacity:1;stroke-width:0.03;stroke-linecap:square;stroke-linejoin:miter;stroke:rgb(39.99939%,39.99939%,39.99939%);stroke-opacity:1;stroke-miterlimit:3.239307;" d="M 312.710938 204.222656 L 312.695312 204.230469 L 310.359375 205.074219 L 307.550781 205.664062 L 306.0625 205.703125 Z M 312.710938 204.222656 " transform="matrix(1,0,0,1,-74,-13)"/>
<path style="fill-rule:nonzero;fill:rgb(39.99939%,39.99939%,39.99939%);fill-opacity:1;stroke-width:0.03;stroke-linecap:square;stroke-linejoin:miter;stroke:rgb(39.99939%,39.99939%,39.99939%);stroke-opacity:1;stroke-miterlimit:3.239307;" d="M 312.839844 286.234375 L 310.003906 287.21875 L 300 290.433594 L 286.863281 289.144531 L 288.285156 283.359375 L 281.878906 273.40625 L 288.78125 272.078125 L 307.46875 268.484375 L 320.316406 266.128906 L 323.273438 262.382812 L 326.03125 259.761719 L 328.992188 256.949219 L 332.144531 254.886719 L 334.515625 253.949219 L 338.070312 253.199219 L 342.804688 252.628906 L 382.570312 248.28125 L 382.199219 251.265625 L 379.800781 254.519531 L 377.191406 257.117188 L 358.878906 265.863281 Z M 312.839844 286.234375 " transform="matrix(1,0,0,1,-74,-13)"/>
<path style="fill-rule:nonzero;fill:rgb(39.99939%,39.99939%,39.99939%);fill-opacity:1;stroke-width:0.03;stroke-linecap:square;stroke-linejoin:miter;stroke:rgb(39.99939%,39.99939%,39.99939%);stroke-opacity:1;stroke-miterlimit:3.239307;" d="M 303.792969 209.613281 L 313.820312 206.859375 L 330.378906 251.132812 L 322.445312 255.796875 L 293.589844 211.707031 Z M 303.792969 209.613281 " transform="matrix(1,0,0,1,-74,-13)"/>
<path style="fill-rule:nonzero;fill:rgb(39.99939%,39.99939%,39.99939%);fill-opacity:1;stroke-width:0.03;stroke-linecap:square;stroke-linejoin:miter;stroke:rgb(39.99939%,39.99939%,39.99939%);stroke-opacity:1;stroke-miterlimit:3.239307;" d="M 317.597656 205.679688 L 330.375 198.910156 L 347.628906 247.644531 L 333.875 249.390625 Z M 317.597656 205.679688 " transform="matrix(1,0,0,1,-74,-13)"/>
<path style="fill-rule:nonzero;fill:rgb(39.99939%,39.99939%,39.99939%);fill-opacity:1;stroke-width:0.03;stroke-linecap:square;stroke-linejoin:miter;stroke:rgb(39.99939%,39.99939%,39.99939%);stroke-opacity:1;stroke-miterlimit:3.239307;" d="M 332.394531 197.109375 L 337.738281 196.527344 L 349.488281 197.785156 L 354.597656 200.113281 L 363.125 245.335938 L 350.21875 246.808594 Z M 332.394531 197.109375 " transform="matrix(1,0,0,1,-74,-13)"/>
<path style="fill-rule:nonzero;fill:rgb(39.99939%,39.99939%,39.99939%);fill-opacity:1;stroke-width:0.03;stroke-linecap:square;stroke-linejoin:miter;stroke:rgb(39.99939%,39.99939%,39.99939%);stroke-opacity:1;stroke-miterlimit:3.239307;" d="M 245.992188 260.28125 L 247.910156 254.929688 L 257.738281 245.273438 L 284.003906 282.597656 L 282.457031 291.019531 L 296.214844 291.660156 L 295.332031 291.9375 L 289.054688 293.132812 L 273.621094 298.488281 Z M 245.992188 260.28125 " transform="matrix(1,0,0,1,-74,-13)"/>
<path style="fill-rule:nonzero;fill:rgb(39.99939%,39.99939%,39.99939%);fill-opacity:1;stroke-width:0.03;stroke-linecap:square;stroke-linejoin:miter;stroke:rgb(39.99939%,39.99939%,39.99939%);stroke-opacity:1;stroke-miterlimit:3.239307;" d="M 274.714844 230.574219 L 300.035156 264.910156 L 280.085938 270.367188 L 259.6875 242.800781 L 271.03125 232.816406 Z M 274.714844 230.574219 " transform="matrix(1,0,0,1,-74,-13)"/>
<path style="fill-rule:nonzero;fill:rgb(39.99939%,39.99939%,39.99939%);fill-opacity:1;stroke-width:0.03;stroke-linecap:square;stroke-linejoin:miter;stroke:rgb(39.99939%,39.99939%,39.99939%);stroke-opacity:1;stroke-miterlimit:3.239307;" d="M 276.910156 227.625 L 290.359375 215.332031 L 318.609375 257.675781 L 317.339844 259.84375 L 313.128906 262.007812 L 310.554688 262.617188 L 308.199219 263.464844 L 305.914062 263.949219 L 303.914062 264.40625 Z M 276.910156 227.625 " transform="matrix(1,0,0,1,-74,-13)"/>
<path style="fill-rule:nonzero;fill:rgb(39.99939%,39.99939%,39.99939%);fill-opacity:1;stroke-width:0.03;stroke-linecap:square;stroke-linejoin:miter;stroke:rgb(39.99939%,39.99939%,39.99939%);stroke-opacity:1;stroke-miterlimit:3.239307;" d="M 222.257812 290.386719 L 234.429688 287.074219 L 247.179688 305.421875 L 233.105469 309.398438 Z M 222.257812 290.386719 " transform="matrix(1,0,0,1,-74,-13)"/>
<path style="fill-rule:nonzero;fill:rgb(39.99939%,39.99939%,39.99939%);fill-opacity:1;stroke-width:0.03;stroke-linecap:square;stroke-linejoin:miter;stroke:rgb(39.99939%,39.99939%,39.99939%);stroke-opacity:1;stroke-miterlimit:3.239307;" d="M 244.886719 265.015625 L 270.214844 299.671875 L 250.859375 304.417969 L 238.195312 284.734375 L 240.65625 282.535156 L 243.238281 279.480469 L 244.234375 275.269531 L 244.5625 271.796875 L 244.75 268.484375 Z M 244.886719 265.015625 " transform="matrix(1,0,0,1,-74,-13)"/>
<path style="fill-rule:nonzero;fill:rgb(39.99939%,39.99939%,39.99939%);fill-opacity:1;stroke-width:0.03;stroke-linecap:square;stroke-linejoin:miter;stroke:rgb(39.99939%,39.99939%,39.99939%);stroke-opacity:1;stroke-miterlimit:3.239307;" d="M 237.734375 276.414062 L 236.644531 278.691406 L 235.222656 280.605469 L 232.734375 282.636719 L 230.597656 283.085938 L 228.226562 283.203125 L 225.878906 281.828125 L 226.378906 281.984375 L 231.378906 281.597656 L 236.378906 278.523438 Z M 237.734375 276.414062 " transform="matrix(1,0,0,1,-74,-13)"/>
<path style="fill-rule:nonzero;fill:rgb(39.99939%,39.99939%,39.99939%);fill-opacity:1;stroke-width:0.03;stroke-linecap:square;stroke-linejoin:miter;stroke:rgb(39.99939%,39.99939%,39.99939%);stroke-opacity:1;stroke-miterlimit:3.239307;" d="M 158.617188 292.644531 L 174.996094 312.546875 L 145.339844 318.050781 L 125.429688 321.570312 Z M 158.617188 292.644531 " transform="matrix(1,0,0,1,-74,-13)"/>
<g clip-path="url(#clip16)" clip-rule="nonzero">
<path style=" stroke:none;fill-rule:evenodd;fill:rgb(85.096741%,85.096741%,81.959534%);fill-opacity:0.7;" d="M 303.378906 353 C 303.378906 348.921875 301.761719 345.007812 298.875 342.125 C 295.992188 339.238281 292.078125 337.621094 288 337.621094 C 283.921875 337.621094 280.007812 339.238281 277.125 342.125 C 274.238281 345.007812 272.621094 348.921875 272.621094 353 C 272.621094 357.078125 274.238281 360.992188 277.125 363.875 C 280.007812 366.761719 283.921875 368.378906 288 368.378906 C 292.078125 368.378906 295.992188 366.761719 298.875 363.875 C 301.761719 360.992188 303.378906 357.078125 303.378906 353 Z M 303.378906 353 "/>
</g>
<path style=" stroke:none;fill-rule:evenodd;fill:rgb(85.096741%,85.096741%,81.959534%);fill-opacity:0.7;" d="M 304.378906 298 C 304.378906 293.921875 302.761719 290.007812 299.875 287.125 C 296.992188 284.238281 293.078125 282.621094 289 282.621094 C 284.921875 282.621094 281.007812 284.238281 278.125 287.125 C 275.238281 290.007812 273.621094 293.921875 273.621094 298 C 273.621094 302.078125 275.238281 305.992188 278.125 308.875 C 281.007812 311.761719 284.921875 313.378906 289 313.378906 C 293.078125 313.378906 296.992188 311.761719 299.875 308.875 C 302.761719 305.992188 304.378906 302.078125 304.378906 298 Z M 304.378906 298 "/>
<path style=" stroke:none;fill-rule:evenodd;fill:rgb(85.096741%,85.096741%,81.959534%);fill-opacity:0.7;" d="M 118.378906 157 C 118.378906 152.921875 116.761719 149.007812 113.875 146.125 C 110.992188 143.238281 107.078125 141.621094 103 141.621094 C 98.921875 141.621094 95.007812 143.238281 92.125 146.125 C 89.238281 149.007812 87.621094 152.921875 87.621094 157 C 87.621094 161.078125 89.238281 164.992188 92.125 167.875 C 95.007812 170.761719 98.921875 172.378906 103 172.378906 C 107.078125 172.378906 110.992188 170.761719 113.875 167.875 C 116.761719 164.992188 118.378906 161.078125 118.378906 157 Z M 118.378906 157 "/>
<path style=" stroke:none;fill-rule:evenodd;fill:rgb(85.096741%,85.096741%,81.959534%);fill-opacity:0.7;" d="M 352.378906 153 C 352.378906 148.921875 350.761719 145.007812 347.875 142.125 C 344.992188 139.238281 341.078125 137.621094 337 137.621094 C 332.921875 137.621094 329.007812 139.238281 326.125 142.125 C 323.238281 145.007812 321.621094 148.921875 321.621094 153 C 321.621094 157.078125 323.238281 160.992188 326.125 163.875 C 329.007812 166.761719 332.921875 168.378906 337 168.378906 C 341.078125 168.378906 344.992188 166.761719 347.875 163.875 C 350.761719 160.992188 352.378906 157.078125 352.378906 153 Z M 352.378906 153 "/>
<path style=" stroke:none;fill-rule:evenodd;fill:rgb(85.096741%,85.096741%,81.959534%);fill-opacity:0.7;" d="M 316.378906 136 C 316.378906 131.921875 314.761719 128.007812 311.875 125.125 C 308.992188 122.238281 305.078125 120.621094 301 120.621094 C 296.921875 120.621094 293.007812 122.238281 290.125 125.125 C 287.238281 128.007812 285.621094 131.921875 285.621094 136 C 285.621094 140.078125 287.238281 143.992188 290.125 146.875 C 293.007812 149.761719 296.921875 151.378906 301 151.378906 C 305.078125 151.378906 308.992188 149.761719 311.875 146.875 C 314.761719 143.992188 316.378906 140.078125 316.378906 136 Z M 316.378906 136 "/>
<g clip-path="url(#clip17)" clip-rule="nonzero">
<path style=" stroke:none;fill-rule:evenodd;fill:rgb(85.096741%,85.096741%,81.959534%);fill-opacity:0.7;" d="M 381.378906 110 C 381.378906 105.921875 379.761719 102.007812 376.875 99.125 C 373.992188 96.238281 370.078125 94.621094 366 94.621094 C 361.921875 94.621094 358.007812 96.238281 355.125 99.125 C 352.238281 102.007812 350.621094 105.921875 350.621094 110 C 350.621094 114.078125 352.238281 117.992188 355.125 120.875 C 358.007812 123.761719 361.921875 125.378906 366 125.378906 C 370.078125 125.378906 373.992188 123.761719 376.875 120.875 C 379.761719 117.992188 381.378906 114.078125 381.378906 110 Z M 381.378906 110 "/>
</g>
<path style=" stroke:none;fill-rule:evenodd;fill:rgb(85.096741%,85.096741%,81.959534%);fill-opacity:0.7;" d="M 320.378906 -5 C 320.378906 -9.078125 318.761719 -12.992188 315.875 -15.875 C 312.992188 -18.761719 309.078125 -20.378906 305 -20.378906 C 300.921875 -20.378906 297.007812 -18.761719 294.125 -15.875 C 291.238281 -12.992188 289.621094 -9.078125 289.621094 -5 C 289.621094 -0.921875 291.238281 2.992188 294.125 5.875 C 297.007812 8.761719 300.921875 10.378906 305 10.378906 C 309.078125 10.378906 312.992188 8.761719 315.875 5.875 C 318.761719 2.992188 320.378906 -0.921875 320.378906 -5 Z M 320.378906 -5 "/>
<g clip-path="url(#clip18)" clip-rule="nonzero">
<path style=" stroke:none;fill-rule:evenodd;fill:rgb(85.096741%,85.096741%,81.959534%);fill-opacity:0.7;" d="M 133.378906 372 C 133.378906 367.921875 131.761719 364.007812 128.875 361.125 C 125.992188 358.238281 122.078125 356.621094 118 356.621094 C 113.921875 356.621094 110.007812 358.238281 107.125 361.125 C 104.238281 364.007812 102.621094 367.921875 102.621094 372 C 102.621094 376.078125 104.238281 379.992188 107.125 382.875 C 110.007812 385.761719 113.921875 387.378906 118 387.378906 C 122.078125 387.378906 125.992188 385.761719 128.875 382.875 C 131.761719 379.992188 133.378906 376.078125 133.378906 372 Z M 133.378906 372 "/>
</g>
<path style=" stroke:none;fill-rule:evenodd;fill:rgb(85.096741%,85.096741%,81.959534%);fill-opacity:0.7;" d="M 99.378906 303 C 99.378906 298.921875 97.761719 295.007812 94.875 292.125 C 91.992188 289.238281 88.078125 287.621094 84 287.621094 C 79.921875 287.621094 76.007812 289.238281 73.125 292.125 C 70.238281 295.007812 68.621094 298.921875 68.621094 303 C 68.621094 307.078125 70.238281 310.992188 73.125 313.875 C 76.007812 316.761719 79.921875 318.378906 84 318.378906 C 88.078125 318.378906 91.992188 316.761719 94.875 313.875 C 97.761719 310.992188 99.378906 307.078125 99.378906 303 Z M 99.378906 303 "/>
<path style=" stroke:none;fill-rule:evenodd;fill:rgb(85.096741%,85.096741%,81.959534%);fill-opacity:0.7;" d="M 348.378906 27 C 348.378906 22.921875 346.761719 19.007812 343.875 16.125 C 340.992188 13.238281 337.078125 11.621094 333 11.621094 C 328.921875 11.621094 325.007812 13.238281 322.125 16.125 C 319.238281 19.007812 317.621094 22.921875 317.621094 27 C 317.621094 31.078125 319.238281 34.992188 322.125 37.875 C 325.007812 40.761719 328.921875 42.378906 333 42.378906 C 337.078125 42.378906 340.992188 40.761719 343.875 37.875 C 346.761719 34.992188 348.378906 31.078125 348.378906 27 Z M 348.378906 27 "/>
<g clip-path="url(#clip19)" clip-rule="nonzero">
<path style=" stroke:none;fill-rule:nonzero;fill:rgb(99.998474%,99.998474%,30.587769%);fill-opacity:0.8;" d="M 358.480469 79.03125 L 325.183594 136.707031 L 391.78125 136.707031 Z M 358.480469 79.03125 "/>
</g>
<g clip-path="url(#clip20)" clip-rule="nonzero">
<path style="fill:none;stroke-width:0.288;stroke-linecap:square;stroke-linejoin:miter;stroke:rgb(0%,0%,0%);stroke-opacity:0.8;stroke-miterlimit:3.25;" d="M 432.480469 92.03125 L 399.183594 149.707031 L 465.78125 149.707031 Z M 432.480469 92.03125 " transform="matrix(1,0,0,1,-74,-13)"/>
</g>
<path style="fill-rule:nonzero;fill:rgb(99.998474%,99.998474%,30.587769%);fill-opacity:0.8;stroke-width:0.288;stroke-linecap:square;stroke-linejoin:miter;stroke:rgb(0%,0%,0%);stroke-opacity:0.8;stroke-miterlimit:3.25;" d="M 267.140625 249.683594 L 233.839844 307.363281 L 300.4375 307.363281 Z M 267.140625 249.683594 " transform="matrix(1,0,0,1,-74,-13)"/>
<g clip-path="url(#clip21)" clip-rule="nonzero">
<path style=" stroke:none;fill-rule:nonzero;fill:rgb(99.998474%,99.998474%,30.587769%);fill-opacity:0.8;" d="M 385.398438 125.171875 L 352.097656 182.851562 L 418.699219 182.851562 Z M 385.398438 125.171875 "/>
</g>
<g clip-path="url(#clip22)" clip-rule="nonzero">
<path style="fill:none;stroke-width:0.288;stroke-linecap:square;stroke-linejoin:miter;stroke:rgb(0%,0%,0%);stroke-opacity:0.8;stroke-miterlimit:3.25;" d="M 459.398438 138.171875 L 426.097656 195.851562 L 492.699219 195.851562 Z M 459.398438 138.171875 " transform="matrix(1,0,0,1,-74,-13)"/>
</g>
<g clip-path="url(#clip23)" clip-rule="nonzero">
<path style=" stroke:none;fill-rule:nonzero;fill:rgb(99.998474%,99.998474%,30.587769%);fill-opacity:0.8;" d="M 370.019531 105.949219 L 336.71875 163.625 L 403.316406 163.625 Z M 370.019531 105.949219 "/>
</g>
<g clip-path="url(#clip24)" clip-rule="nonzero">
<path style="fill:none;stroke-width:0.288;stroke-linecap:square;stroke-linejoin:miter;stroke:rgb(0%,0%,0%);stroke-opacity:0.8;stroke-miterlimit:3.25;" d="M 444.019531 118.949219 L 410.71875 176.625 L 477.316406 176.625 Z M 444.019531 118.949219 " transform="matrix(1,0,0,1,-74,-13)"/>
</g>
<g clip-path="url(#clip25)" clip-rule="nonzero">
<path style=" stroke:none;fill-rule:nonzero;fill:rgb(99.998474%,99.998474%,30.587769%);fill-opacity:0.8;" d="M -22.191406 344.347656 L -55.492188 402.027344 L 11.109375 402.027344 Z M -22.191406 344.347656 "/>
</g>
<g clip-path="url(#clip26)" clip-rule="nonzero">
<path style="fill:none;stroke-width:0.288;stroke-linecap:square;stroke-linejoin:miter;stroke:rgb(0%,0%,0%);stroke-opacity:0.8;stroke-miterlimit:3.25;" d="M 51.808594 357.347656 L 18.507812 415.027344 L 85.109375 415.027344 Z M 51.808594 357.347656 " transform="matrix(1,0,0,1,-74,-13)"/>
</g>
<g clip-path="url(#clip27)" clip-rule="nonzero">
<path style=" stroke:none;fill-rule:nonzero;fill:rgb(99.998474%,99.998474%,30.587769%);fill-opacity:0.8;" d="M 370.019531 117.484375 L 336.71875 175.160156 L 403.316406 175.160156 Z M 370.019531 117.484375 "/>
</g>
<g clip-path="url(#clip28)" clip-rule="nonzero">
<path style="fill:none;stroke-width:0.288;stroke-linecap:square;stroke-linejoin:miter;stroke:rgb(0%,0%,0%);stroke-opacity:0.8;stroke-miterlimit:3.25;" d="M 444.019531 130.484375 L 410.71875 188.160156 L 477.316406 188.160156 Z M 444.019531 130.484375 " transform="matrix(1,0,0,1,-74,-13)"/>
</g>
<g clip-path="url(#clip29)" clip-rule="nonzero">
<path style=" stroke:none;fill-rule:nonzero;fill:rgb(99.998474%,99.998474%,30.587769%);fill-opacity:0.8;" d="M 358.480469 94.410156 L 325.183594 152.089844 L 391.78125 152.089844 Z M 358.480469 94.410156 "/>
</g>
<g clip-path="url(#clip30)" clip-rule="nonzero">
<path style="fill:none;stroke-width:0.288;stroke-linecap:square;stroke-linejoin:miter;stroke:rgb(0%,0%,0%);stroke-opacity:0.8;stroke-miterlimit:3.25;" d="M 432.480469 107.410156 L 399.183594 165.089844 L 465.78125 165.089844 Z M 432.480469 107.410156 " transform="matrix(1,0,0,1,-74,-13)"/>
</g>
</g>
</svg>
