<?xml version="1.0" encoding="UTF-8"?>
<svg xmlns="http://www.w3.org/2000/svg" xmlns:xlink="http://www.w3.org/1999/xlink" width="361pt" height="361pt" viewBox="0 0 361 361" version="1.1">
<defs>
<clipPath id="clip1">
  <path d="M 273 184 L 360 184 L 360 245 L 273 245 Z M 273 184 "/>
</clipPath>
<clipPath id="clip2">
  <path d="M 286 163 L 360 163 L 360 225 L 286 225 Z M 286 163 "/>
</clipPath>
<clipPath id="clip3">
  <path d="M 300 140 L 360 140 L 360 204 L 300 204 Z M 300 140 "/>
</clipPath>
<clipPath id="clip4">
  <path d="M 317 117 L 360 117 L 360 178 L 317 178 Z M 317 117 "/>
</clipPath>
<clipPath id="clip5">
  <path d="M 331 96 L 360 96 L 360 159 L 331 159 Z M 331 96 "/>
</clipPath>
<clipPath id="clip6">
  <path d="M 344 77 L 360 77 L 360 140 L 344 140 Z M 344 77 "/>
</clipPath>
<clipPath id="clip7">
  <path d="M 356 59 L 360 59 L 360 121 L 356 121 Z M 356 59 "/>
</clipPath>
<clipPath id="clip8">
  <path d="M 288 324 L 360 324 L 360 360 L 288 360 Z M 288 324 "/>
</clipPath>
<clipPath id="clip9">
  <path d="M 307 300 L 360 300 L 360 360 L 307 360 Z M 307 300 "/>
</clipPath>
<clipPath id="clip10">
  <path d="M 324 273 L 360 273 L 360 358 L 324 358 Z M 324 273 "/>
</clipPath>
<clipPath id="clip11">
  <path d="M 342 253 L 360 253 L 360 321 L 342 321 Z M 342 253 "/>
</clipPath>
<clipPath id="clip12">
  <path d="M 355 232 L 360 232 L 360 294 L 355 294 Z M 355 232 "/>
</clipPath>
<clipPath id="clip13">
  <path d="M 307 359 L 360 359 L 360 360 L 307 360 Z M 307 359 "/>
</clipPath>
<clipPath id="clip14">
  <path d="M 0 341 L 23 341 L 23 360 L 0 360 Z M 0 341 "/>
</clipPath>
<clipPath id="clip15">
  <path d="M 0 347 L 65 347 L 65 360 L 0 360 Z M 0 347 "/>
</clipPath>
<clipPath id="clip16">
  <path d="M 64 346 L 91 346 L 91 360 L 64 360 Z M 64 346 "/>
</clipPath>
<clipPath id="clip17">
  <path d="M 71 329 L 140 329 L 140 360 L 71 360 Z M 71 329 "/>
</clipPath>
<clipPath id="clip18">
  <path d="M 87 354 L 128 354 L 128 360 L 87 360 Z M 87 354 "/>
</clipPath>
<clipPath id="clip19">
  <path d="M 237 353 L 267 353 L 267 360 L 237 360 Z M 237 353 "/>
</clipPath>
<clipPath id="clip20">
  <path d="M 216 349 L 245 349 L 245 360 L 216 360 Z M 216 349 "/>
</clipPath>
<clipPath id="clip21">
  <path d="M 194 347 L 224 347 L 224 360 L 194 360 Z M 194 347 "/>
</clipPath>
<clipPath id="clip22">
  <path d="M 90 348 L 200 348 L 200 360 L 90 360 Z M 90 348 "/>
</clipPath>
</defs>
<g id="surface5180">
<path style="fill-rule:nonzero;fill:rgb(0%,0%,0%);fill-opacity:1;stroke-width:0.03;stroke-linecap:square;stroke-linejoin:miter;stroke:rgb(0%,0%,0%);stroke-opacity:1;stroke-miterlimit:10;" d="M 0 178 L 360 178 L 360 -182 L 0 -182 Z M 0 178 " transform="matrix(1,0,0,1,0,182)"/>
<path style=" stroke:none;fill-rule:nonzero;fill:rgb(39.99939%,39.99939%,39.99939%);fill-opacity:0.3;" d="M 187.089844 337.59375 L 196.421875 322.957031 L 280.257812 351.71875 L 279.65625 352.636719 Z M 187.089844 337.59375 "/>
<path style=" stroke:none;fill-rule:nonzero;fill:rgb(39.99939%,39.99939%,39.99939%);fill-opacity:0.3;" d="M 209.429688 302.566406 L 283.207031 347.222656 L 281.125 350.394531 L 198.121094 320.296875 Z M 209.429688 302.566406 "/>
<path style=" stroke:none;fill-rule:nonzero;fill:rgb(39.99939%,39.99939%,39.99939%);fill-opacity:0.3;" d="M 224.875 278.359375 L 298.980469 323.195312 L 285.601562 343.574219 L 211.789062 298.871094 Z M 224.875 278.359375 "/>
<path style=" stroke:none;fill-rule:nonzero;fill:rgb(39.99939%,39.99939%,39.99939%);fill-opacity:0.3;" d="M 245.265625 246.417969 L 316.6875 296.253906 L 302.039062 318.542969 L 227.863281 273.675781 Z M 245.265625 246.417969 "/>
<path style=" stroke:none;fill-rule:nonzero;fill:rgb(39.99939%,39.99939%,39.99939%);fill-opacity:0.3;" d="M 259.128906 224.703125 L 335.6875 267.363281 L 319.460938 292.03125 L 247.980469 242.160156 Z M 259.128906 224.703125 "/>
<path style=" stroke:none;fill-rule:nonzero;fill:rgb(39.99939%,39.99939%,39.99939%);fill-opacity:0.3;" d="M 272.011719 204.527344 L 348.863281 247.335938 L 337.96875 263.890625 L 261.363281 221.207031 Z M 272.011719 204.527344 "/>
<g clip-path="url(#clip1)" clip-rule="nonzero">
<path style=" stroke:none;fill-rule:nonzero;fill:rgb(39.99939%,39.99939%,39.99939%);fill-opacity:0.3;" d="M 284.558594 184.875 L 361.699219 227.828125 L 350.644531 244.625 L 273.753906 201.800781 Z M 284.558594 184.875 "/>
</g>
<g clip-path="url(#clip2)" clip-rule="nonzero">
<path style=" stroke:none;fill-rule:nonzero;fill:rgb(39.99939%,39.99939%,39.99939%);fill-opacity:0.3;" d="M 298.285156 163.382812 L 375.742188 206.492188 L 364.160156 224.089844 L 286.964844 181.113281 Z M 298.285156 163.382812 "/>
</g>
<g clip-path="url(#clip3)" clip-rule="nonzero">
<path style=" stroke:none;fill-rule:nonzero;fill:rgb(39.99939%,39.99939%,39.99939%);fill-opacity:0.3;" d="M 312.710938 140.792969 L 391.390625 183.160156 L 377.648438 203.59375 L 300.152344 160.460938 Z M 312.710938 140.792969 "/>
</g>
<g clip-path="url(#clip4)" clip-rule="nonzero">
<path style=" stroke:none;fill-rule:nonzero;fill:rgb(39.99939%,39.99939%,39.99939%);fill-opacity:0.3;" d="M 328.269531 117.246094 L 405.203125 163.546875 L 397.144531 177.164062 L 317.667969 133.292969 Z M 328.269531 117.246094 "/>
</g>
<g clip-path="url(#clip5)" clip-rule="nonzero">
<path style=" stroke:none;fill-rule:nonzero;fill:rgb(39.99939%,39.99939%,39.99939%);fill-opacity:0.3;" d="M 341.90625 96.597656 L 418.851562 142.890625 L 408.242188 158.949219 L 331.304688 112.648438 Z M 341.90625 96.597656 "/>
</g>
<g clip-path="url(#clip6)" clip-rule="nonzero">
<path style=" stroke:none;fill-rule:nonzero;fill:rgb(39.99939%,39.99939%,39.99939%);fill-opacity:0.3;" d="M 354.273438 77.882812 L 431.222656 124.160156 L 421.027344 139.59375 L 344.082031 93.308594 Z M 354.273438 77.882812 "/>
</g>
<g clip-path="url(#clip7)" clip-rule="nonzero">
<path style=" stroke:none;fill-rule:nonzero;fill:rgb(39.99939%,39.99939%,39.99939%);fill-opacity:0.3;" d="M 366.378906 59.554688 L 443.335938 105.820312 L 433.660156 120.46875 L 356.664062 74.265625 Z M 366.378906 59.554688 "/>
</g>
<g clip-path="url(#clip8)" clip-rule="nonzero">
<path style=" stroke:none;fill-rule:nonzero;fill:rgb(39.99939%,39.99939%,39.99939%);fill-opacity:0.3;" d="M 288.289062 350.488281 L 304.945312 324.960938 L 372.363281 365.632812 L 384.503906 373.289062 L 334.316406 358.753906 L 305.289062 349.566406 L 303.847656 349.757812 L 300.945312 355.871094 L 293.871094 354.621094 Z M 288.289062 350.488281 "/>
</g>
<g clip-path="url(#clip9)" clip-rule="nonzero">
<path style=" stroke:none;fill-rule:nonzero;fill:rgb(39.99939%,39.99939%,39.99939%);fill-opacity:0.3;" d="M 307.5 321.160156 L 321.589844 300.234375 L 423.125 366.207031 L 419.457031 387.117188 Z M 307.5 321.160156 "/>
</g>
<g clip-path="url(#clip10)" clip-rule="nonzero">
<path style=" stroke:none;fill-rule:nonzero;fill:rgb(39.99939%,39.99939%,39.99939%);fill-opacity:0.3;" d="M 324.867188 295.363281 L 339.648438 273.417969 L 430.324219 326.027344 L 424.648438 357.785156 Z M 324.867188 295.363281 "/>
</g>
<g clip-path="url(#clip11)" clip-rule="nonzero">
<path style=" stroke:none;fill-rule:nonzero;fill:rgb(39.99939%,39.99939%,39.99939%);fill-opacity:0.3;" d="M 342.285156 269.507812 L 353.390625 253.03125 L 435.242188 298.632812 L 431.375 320.167969 Z M 342.285156 269.507812 "/>
</g>
<g clip-path="url(#clip12)" clip-rule="nonzero">
<path style=" stroke:none;fill-rule:nonzero;fill:rgb(39.99939%,39.99939%,39.99939%);fill-opacity:0.3;" d="M 355.890625 249.316406 L 367.289062 232.414062 L 439.882812 272.816406 L 436.078125 293.980469 Z M 355.890625 249.316406 "/>
</g>
<g clip-path="url(#clip13)" clip-rule="nonzero">
<path style=" stroke:none;fill-rule:nonzero;fill:rgb(39.99939%,39.99939%,39.99939%);fill-opacity:0.3;" d="M 307.542969 359.832031 L 417.023438 391.835938 L 416.707031 393.8125 L 404.636719 391.953125 L 386.667969 389.558594 L 361.511719 385.964844 L 355.523438 385.269531 L 326.050781 380.4375 L 324.851562 380.125 Z M 307.542969 359.832031 "/>
</g>
<path style=" stroke:none;fill-rule:nonzero;fill:rgb(39.99939%,39.99939%,39.99939%);fill-opacity:0.3;" d="M 255.949219 108.863281 L 287.429688 125.492188 L 223.890625 223.75 L 194.378906 204.609375 Z M 255.949219 108.863281 "/>
<path style=" stroke:none;fill-rule:nonzero;fill:rgb(39.99939%,39.99939%,39.99939%);fill-opacity:0.3;" d="M 191.480469 210.441406 L 219.503906 229.242188 L 195.222656 267.554688 L 164.914062 250.5 Z M 191.480469 210.441406 "/>
<path style=" stroke:none;fill-rule:nonzero;fill:rgb(39.99939%,39.99939%,39.99939%);fill-opacity:0.3;" d="M 163.765625 252.226562 L 194.113281 269.304688 L 169.234375 308.570312 L 136.101562 293.957031 Z M 163.765625 252.226562 "/>
<path style=" stroke:none;fill-rule:nonzero;fill:rgb(39.99939%,39.99939%,39.99939%);fill-opacity:0.3;" d="M 108.019531 154.527344 L 136.363281 173.503906 L 115.636719 226.03125 L 84.6875 213.671875 Z M 108.019531 154.527344 "/>
<path style=" stroke:none;fill-rule:nonzero;fill:rgb(39.99939%,39.99939%,39.99939%);fill-opacity:0.3;" d="M 155.917969 136.058594 L 208.957031 171.855469 L 189.800781 201.644531 L 142.589844 171.0625 Z M 155.917969 136.058594 "/>
<path style=" stroke:none;fill-rule:nonzero;fill:rgb(39.99939%,39.99939%,39.99939%);fill-opacity:0.3;" d="M 140.460938 176.246094 L 187.925781 208.054688 L 180.1875 219.640625 L 165.550781 223.660156 L 152.332031 245.285156 L 154.515625 257.46875 L 131.722656 292.027344 L 98.640625 277.449219 L 115.464844 236.917969 L 122.683594 235.539062 L 134.3125 209.902344 L 128.632812 205.109375 Z M 140.460938 176.246094 "/>
<path style=" stroke:none;fill-rule:nonzero;fill:rgb(39.99939%,39.99939%,39.99939%);fill-opacity:0.3;" d="M 146.019531 51.429688 L 177.222656 67.355469 L 138.71875 168.558594 L 108.84375 149.226562 Z M 146.019531 51.429688 "/>
<path style=" stroke:none;fill-rule:nonzero;fill:rgb(39.99939%,39.99939%,39.99939%);fill-opacity:0.3;" d="M 181.246094 69.472656 L 215.097656 87.308594 L 181.960938 146.851562 L 157.96875 130.667969 Z M 181.246094 69.472656 "/>
<path style=" stroke:none;fill-rule:nonzero;fill:rgb(39.99939%,39.99939%,39.99939%);fill-opacity:0.3;" d="M 220.28125 90.042969 L 251.109375 106.308594 L 211.996094 167.128906 L 186.832031 150.140625 Z M 220.28125 90.042969 "/>
<path style=" stroke:none;fill-rule:nonzero;fill:rgb(39.99939%,39.99939%,39.99939%);fill-opacity:0.3;" d="M 82.144531 219.160156 L 113.558594 231.300781 L 95.835938 276.214844 L 64.089844 263.324219 L 67.390625 255.253906 L 69.230469 253.597656 L 78.949219 226.972656 Z M 82.144531 219.160156 "/>
<path style=" stroke:none;fill-rule:nonzero;fill:rgb(39.99939%,39.99939%,39.99939%);fill-opacity:0.3;" d="M 52.664062 285.640625 L 52.042969 291.425781 L 51.429688 291.371094 Z M 52.664062 285.640625 "/>
<path style=" stroke:none;fill-rule:nonzero;fill:rgb(39.99939%,39.99939%,39.99939%);fill-opacity:0.3;" d="M 59.753906 262.125 L 59.734375 262.175781 L 59.703125 262.171875 Z M 59.753906 262.125 "/>
<path style=" stroke:none;fill-rule:nonzero;fill:rgb(39.99939%,39.99939%,39.99939%);fill-opacity:0.3;" d="M 60.15625 268.578125 L 93.351562 281.746094 L 82.265625 308.203125 L 73.121094 304.808594 L 78.71875 291.8125 L 67.144531 286.660156 L 61.023438 299.433594 L 56.941406 296.53125 Z M 60.15625 268.578125 "/>
<path style=" stroke:none;fill-rule:nonzero;fill:rgb(39.99939%,39.99939%,39.99939%);fill-opacity:0.3;" d="M 75.824219 293.753906 L 71.011719 304.023438 L 68.53125 303.101562 L 62.386719 300.078125 L 67.65625 290.214844 Z M 75.824219 293.753906 "/>
<path style=" stroke:none;fill-rule:nonzero;fill:rgb(39.99939%,39.99939%,39.99939%);fill-opacity:0.3;" d="M 67.390625 255.253906 L 78.949219 226.972656 L 69.230469 253.597656 Z M 67.390625 255.253906 "/>
<g clip-path="url(#clip14)" clip-rule="nonzero">
<path style=" stroke:none;fill-rule:nonzero;fill:rgb(39.99939%,39.99939%,39.99939%);fill-opacity:0.3;" d="M -33.484375 341.445312 L 22.003906 346.527344 L 6.808594 389.890625 L -37.929688 385.960938 Z M -33.484375 341.445312 "/>
</g>
<path style=" stroke:none;fill-rule:nonzero;fill:rgb(39.99939%,39.99939%,39.99939%);fill-opacity:0.3;" d="M -7.515625 291.621094 L 11.109375 293.230469 L 5.945312 339.71875 L -12.664062 337.972656 Z M -7.515625 291.621094 "/>
<path style=" stroke:none;fill-rule:nonzero;fill:rgb(39.99939%,39.99939%,39.99939%);fill-opacity:0.3;" d="M 13.726562 293.457031 L 32.109375 295.050781 L 26.925781 341.691406 L 8.558594 339.964844 Z M 13.726562 293.457031 "/>
<path style=" stroke:none;fill-rule:nonzero;fill:rgb(39.99939%,39.99939%,39.99939%);fill-opacity:0.3;" d="M 34.019531 295.871094 L 56.355469 298.152344 L 60.59375 301.664062 L 44.84375 342.796875 L 29.527344 341.992188 Z M 34.019531 295.871094 "/>
<path style=" stroke:none;fill-rule:nonzero;fill:rgb(39.99939%,39.99939%,39.99939%);fill-opacity:0.3;" d="M 36.292969 267.230469 L 54.460938 268.910156 L 52.664062 285.640625 L 51.429688 291.371094 L 33.878906 289.746094 Z M 36.292969 267.230469 "/>
<path style=" stroke:none;fill-rule:nonzero;fill:rgb(39.99939%,39.99939%,39.99939%);fill-opacity:0.3;" d="M 15.359375 265.300781 L 34.117188 267.03125 L 31.546875 289.53125 L 12.945312 287.8125 Z M 15.359375 265.300781 "/>
<path style=" stroke:none;fill-rule:nonzero;fill:rgb(39.99939%,39.99939%,39.99939%);fill-opacity:0.3;" d="M -6.367188 263.296875 L 13.484375 265.125 L 11.070312 287.636719 L -8.78125 285.804688 Z M -6.367188 263.296875 "/>
<path style=" stroke:none;fill-rule:nonzero;fill:rgb(39.99939%,39.99939%,39.99939%);fill-opacity:0.3;" d="M -0.582031 211.328125 L 18.570312 213.101562 L 13.671875 258.046875 L -5.476562 256.285156 Z M -0.582031 211.328125 "/>
<path style=" stroke:none;fill-rule:nonzero;fill:rgb(39.99939%,39.99939%,39.99939%);fill-opacity:0.3;" d="M 20.234375 213.253906 L 39.832031 215.066406 L 34.933594 260.003906 L 15.339844 258.203125 Z M 20.234375 213.253906 "/>
<path style=" stroke:none;fill-rule:nonzero;fill:rgb(39.99939%,39.99939%,39.99939%);fill-opacity:0.3;" d="M 42.066406 215.273438 L 60.511719 216.980469 L 55.613281 261.910156 L 37.167969 260.210938 Z M 42.066406 215.273438 "/>
<path style=" stroke:none;fill-rule:nonzero;fill:rgb(39.99939%,39.99939%,39.99939%);fill-opacity:0.3;" d="M 62.460938 217.160156 L 77.71875 218.398438 L 59.753906 262.125 L 59.703125 262.171875 L 57.574219 261.976562 Z M 62.460938 217.160156 "/>
<path style=" stroke:none;fill-rule:nonzero;fill:rgb(39.99939%,39.99939%,39.99939%);fill-opacity:0.3;" d="M -16.886719 156.261719 L 2.398438 158.027344 L -2.664062 205.050781 L -21.953125 203.332031 Z M -16.886719 156.261719 "/>
<path style=" stroke:none;fill-rule:nonzero;fill:rgb(39.99939%,39.99939%,39.99939%);fill-opacity:0.3;" d="M 4.289062 158.261719 L 23.660156 160.179688 L 18.621094 206.949219 L -0.769531 205.21875 Z M 4.289062 158.261719 "/>
<path style=" stroke:none;fill-rule:nonzero;fill:rgb(39.99939%,39.99939%,39.99939%);fill-opacity:0.3;" d="M 25.554688 160.367188 L 44.875 162.339844 L 39.863281 208.84375 L 20.515625 207.117188 Z M 25.554688 160.367188 "/>
<path style=" stroke:none;fill-rule:nonzero;fill:rgb(39.99939%,39.99939%,39.99939%);fill-opacity:0.3;" d="M 46.984375 162.296875 L 65.816406 164.078125 L 60.785156 210.707031 L 41.945312 209.027344 Z M 46.984375 162.296875 "/>
<path style=" stroke:none;fill-rule:nonzero;fill:rgb(39.99939%,39.99939%,39.99939%);fill-opacity:0.3;" d="M 67.941406 164.277344 L 86.628906 166.046875 L 84.230469 186.839844 L 85.394531 186.917969 L 86.648438 187.105469 L 89.304688 166.300781 L 97.914062 167.113281 L 80.554688 212.472656 L 62.910156 210.898438 Z M 67.941406 164.277344 "/>
<path style=" stroke:none;fill-rule:nonzero;fill:rgb(39.99939%,39.99939%,39.99939%);fill-opacity:0.3;" d="M -8.007812 81.96875 L 10.070312 93.476562 L 3.5625 154.851562 L -15.511719 152.992188 Z M -8.007812 81.96875 "/>
<path style=" stroke:none;fill-rule:nonzero;fill:rgb(39.99939%,39.99939%,39.99939%);fill-opacity:0.3;" d="M 12.515625 95.035156 L 28.46875 105.199219 L 22.992188 156.75 L 6.148438 155.105469 Z M 12.515625 95.035156 "/>
<path style=" stroke:none;fill-rule:nonzero;fill:rgb(39.99939%,39.99939%,39.99939%);fill-opacity:0.3;" d="M 30.832031 106.707031 L 49.746094 118.765625 L 45.46875 158.945312 L 25.488281 156.992188 Z M 30.832031 106.707031 "/>
<path style=" stroke:none;fill-rule:nonzero;fill:rgb(39.99939%,39.99939%,39.99939%);fill-opacity:0.3;" d="M 52.148438 120.296875 L 68.851562 130.957031 L 65.65625 160.917969 L 48.007812 159.191406 Z M 52.148438 120.296875 "/>
<path style=" stroke:none;fill-rule:nonzero;fill:rgb(39.99939%,39.99939%,39.99939%);fill-opacity:0.3;" d="M 71.746094 132.800781 L 89.183594 143.9375 L 87.144531 163.019531 L 68.714844 161.214844 Z M 71.746094 132.800781 "/>
<path style=" stroke:none;fill-rule:nonzero;fill:rgb(39.99939%,39.99939%,39.99939%);fill-opacity:0.3;" d="M 91.628906 145.496094 L 102.722656 152.585938 L 98.59375 164.136719 L 89.730469 163.269531 Z M 91.628906 145.496094 "/>
<g clip-path="url(#clip15)" clip-rule="nonzero">
<path style=" stroke:none;fill-rule:nonzero;fill:rgb(39.99939%,39.99939%,39.99939%);fill-opacity:0.3;" d="M 27.515625 347.597656 L 64.660156 351.113281 L 14.363281 472.648438 L 8.253906 502.796875 L -30.617188 493.554688 L -22.832031 461.070312 L -14.941406 462.019531 Z M 27.515625 347.597656 "/>
</g>
<path style=" stroke:none;fill-rule:nonzero;fill:rgb(39.99939%,39.99939%,39.99939%);fill-opacity:0.3;" d="M 62.449219 302.941406 L 81 311.429688 L 67.457031 343.984375 L 47.144531 342.917969 Z M 62.449219 302.941406 "/>
<path style=" stroke:none;fill-rule:nonzero;fill:rgb(39.99939%,39.99939%,39.99939%);fill-opacity:0.3;" d="M 82.265625 308.203125 L 81.960938 308.9375 L 72.9375 305.234375 L 73.121094 304.808594 Z M 82.265625 308.203125 "/>
<path style=" stroke:none;fill-rule:nonzero;fill:rgb(39.99939%,39.99939%,39.99939%);fill-opacity:0.3;" d="M 71.011719 304.023438 L 70.898438 304.265625 L 68.53125 303.101562 Z M 71.011719 304.023438 "/>
<g clip-path="url(#clip16)" clip-rule="nonzero">
<path style=" stroke:none;fill-rule:nonzero;fill:rgb(39.99939%,39.99939%,39.99939%);fill-opacity:0.3;" d="M 70.113281 346.457031 L 90.109375 353.722656 L 84.21875 368.503906 L 64.125 361.195312 Z M 70.113281 346.457031 "/>
</g>
<g clip-path="url(#clip17)" clip-rule="nonzero">
<path style=" stroke:none;fill-rule:nonzero;fill:rgb(39.99939%,39.99939%,39.99939%);fill-opacity:0.3;" d="M 77.6875 329.050781 L 139.234375 351.15625 L 129.566406 364.972656 L 71.605469 343.886719 Z M 77.6875 329.050781 "/>
</g>
<path style=" stroke:none;fill-rule:nonzero;fill:rgb(39.99939%,39.99939%,39.99939%);fill-opacity:0.3;" d="M 84.761719 311.800781 L 150.164062 335.550781 L 140.929688 348.738281 L 78.867188 326.179688 Z M 84.761719 311.800781 "/>
<path style=" stroke:none;fill-rule:nonzero;fill:rgb(39.99939%,39.99939%,39.99939%);fill-opacity:0.3;" d="M 96.277344 283.726562 L 114.746094 291.761719 L 104.824219 315.621094 L 85.996094 308.789062 Z M 96.277344 283.726562 "/>
<path style=" stroke:none;fill-rule:nonzero;fill:rgb(39.99939%,39.99939%,39.99939%);fill-opacity:0.3;" d="M 116.367188 292.46875 L 139.597656 302.800781 L 130.402344 324.910156 L 106.488281 316.222656 Z M 116.367188 292.46875 "/>
<path style=" stroke:none;fill-rule:nonzero;fill:rgb(39.99939%,39.99939%,39.99939%);fill-opacity:0.3;" d="M 141.433594 303.382812 L 165.382812 313.820312 L 152.09375 332.792969 L 132.210938 325.566406 Z M 141.433594 303.382812 "/>
<g clip-path="url(#clip18)" clip-rule="nonzero">
<path style=" stroke:none;fill-rule:nonzero;fill:rgb(39.99939%,39.99939%,39.99939%);fill-opacity:0.3;" d="M 93.019531 354.847656 L 127.964844 367.507812 L 118.429688 380.976562 L 87.085938 369.550781 Z M 93.019531 354.847656 "/>
</g>
<path style=" stroke:none;fill-rule:nonzero;fill:rgb(39.99939%,39.99939%,39.99939%);fill-opacity:0.3;" d="M -215.316406 -29.078125 L -192.449219 -79.34375 L 136.433594 -32.894531 L 140.195312 -31.6875 L 141.894531 -30.136719 L 142.6875 -26.628906 L 140.945312 -19.804688 L 137.53125 -13.164062 L 133.246094 -4.695312 L 130.199219 3.695312 L 129.464844 12.515625 L 130.085938 21.597656 L 131.933594 30.523438 L 135.210938 36.078125 L 141.269531 44.519531 L 141.832031 49.03125 L 140.433594 55.292969 L 138.09375 62.230469 L 105.195312 146.871094 L -83.28125 18.511719 L -88.339844 15.246094 L -94.949219 10.976562 L -100.03125 7.921875 L -106.667969 4.152344 L -112.417969 0.175781 L -127.019531 -6.941406 L -135.203125 -10.292969 L -142.945312 -13.429688 L -150.242188 -15.730469 L -160.941406 -18.765625 L -173.546875 -21.40625 Z M -215.316406 -29.078125 "/>
<g clip-path="url(#clip19)" clip-rule="nonzero">
<path style=" stroke:none;fill-rule:nonzero;fill:rgb(39.99939%,39.99939%,39.99939%);fill-opacity:0.3;" d="M 256.550781 417.820312 L 237.46875 415.683594 L 247.84375 353.308594 L 266.042969 355.664062 Z M 256.550781 417.820312 "/>
</g>
<g clip-path="url(#clip20)" clip-rule="nonzero">
<path style=" stroke:none;fill-rule:nonzero;fill:rgb(39.99939%,39.99939%,39.99939%);fill-opacity:0.3;" d="M 226.621094 349.339844 L 244.722656 351.734375 L 235.476562 410.695312 L 216.402344 408.070312 Z M 226.621094 349.339844 "/>
</g>
<g clip-path="url(#clip21)" clip-rule="nonzero">
<path style=" stroke:none;fill-rule:nonzero;fill:rgb(39.99939%,39.99939%,39.99939%);fill-opacity:0.3;" d="M 203.59375 347.234375 L 223.085938 349.417969 L 213.425781 408.398438 L 194.875 406.121094 Z M 203.59375 347.234375 "/>
</g>
<g clip-path="url(#clip22)" clip-rule="nonzero">
<path style=" stroke:none;fill-rule:nonzero;fill:rgb(39.99939%,39.99939%,39.99939%);fill-opacity:0.3;" d="M 191.882812 409.800781 L 173.523438 407.332031 L 171.671875 407.199219 L 169.824219 407.066406 L 168.238281 416.316406 L 164.761719 436.394531 L 142.390625 433.566406 L 130.273438 502.273438 L 90.484375 496.292969 L 137.605469 420.703125 L 151.882812 397.6875 L 183.976562 348.375 L 199.855469 350.453125 L 194.863281 386.980469 L 182.175781 385.242188 L 181.8125 390.039062 L 181.445312 394.832031 L 193.398438 396.570312 Z M 191.882812 409.800781 "/>
</g>
<path style="fill-rule:nonzero;fill:rgb(39.99939%,39.99939%,39.99939%);fill-opacity:1;stroke-width:0.03;stroke-linecap:square;stroke-linejoin:miter;stroke:rgb(39.99939%,39.99939%,39.99939%);stroke-opacity:1;stroke-miterlimit:3.239307;" d="M 329.949219 121.863281 L 361.429688 138.492188 L 297.890625 236.75 L 268.378906 217.609375 Z M 329.949219 121.863281 " transform="matrix(1,0,0,1,-74,-13)"/>
<path style="fill-rule:nonzero;fill:rgb(39.99939%,39.99939%,39.99939%);fill-opacity:1;stroke-width:0.03;stroke-linecap:square;stroke-linejoin:miter;stroke:rgb(39.99939%,39.99939%,39.99939%);stroke-opacity:1;stroke-miterlimit:3.239307;" d="M 265.480469 223.441406 L 293.503906 242.242188 L 269.222656 280.554688 L 238.914062 263.5 Z M 265.480469 223.441406 " transform="matrix(1,0,0,1,-74,-13)"/>
<path style="fill-rule:nonzero;fill:rgb(39.99939%,39.99939%,39.99939%);fill-opacity:1;stroke-width:0.03;stroke-linecap:square;stroke-linejoin:miter;stroke:rgb(39.99939%,39.99939%,39.99939%);stroke-opacity:1;stroke-miterlimit:3.239307;" d="M 237.765625 265.226562 L 268.113281 282.304688 L 243.234375 321.570312 L 210.101562 306.957031 Z M 237.765625 265.226562 " transform="matrix(1,0,0,1,-74,-13)"/>
<path style="fill-rule:nonzero;fill:rgb(39.99939%,39.99939%,39.99939%);fill-opacity:1;stroke-width:0.03;stroke-linecap:square;stroke-linejoin:miter;stroke:rgb(39.99939%,39.99939%,39.99939%);stroke-opacity:1;stroke-miterlimit:3.239307;" d="M 182.019531 167.527344 L 210.363281 186.503906 L 189.636719 239.03125 L 158.6875 226.671875 Z M 182.019531 167.527344 " transform="matrix(1,0,0,1,-74,-13)"/>
<path style="fill-rule:nonzero;fill:rgb(39.99939%,39.99939%,39.99939%);fill-opacity:1;stroke-width:0.03;stroke-linecap:square;stroke-linejoin:miter;stroke:rgb(39.99939%,39.99939%,39.99939%);stroke-opacity:1;stroke-miterlimit:3.239307;" d="M 229.917969 149.058594 L 282.957031 184.855469 L 263.800781 214.644531 L 216.589844 184.0625 Z M 229.917969 149.058594 " transform="matrix(1,0,0,1,-74,-13)"/>
<path style="fill-rule:nonzero;fill:rgb(39.99939%,39.99939%,39.99939%);fill-opacity:1;stroke-width:0.03;stroke-linecap:square;stroke-linejoin:miter;stroke:rgb(39.99939%,39.99939%,39.99939%);stroke-opacity:1;stroke-miterlimit:3.239307;" d="M 214.460938 189.246094 L 261.925781 221.054688 L 254.1875 232.640625 L 239.550781 236.660156 L 226.332031 258.285156 L 228.515625 270.46875 L 205.722656 305.027344 L 172.640625 290.449219 L 189.464844 249.917969 L 196.683594 248.539062 L 208.3125 222.902344 L 202.632812 218.109375 Z M 214.460938 189.246094 " transform="matrix(1,0,0,1,-74,-13)"/>
<path style="fill-rule:nonzero;fill:rgb(39.99939%,39.99939%,39.99939%);fill-opacity:1;stroke-width:0.03;stroke-linecap:square;stroke-linejoin:miter;stroke:rgb(39.99939%,39.99939%,39.99939%);stroke-opacity:1;stroke-miterlimit:3.239307;" d="M 220.019531 64.429688 L 251.222656 80.355469 L 212.71875 181.558594 L 182.84375 162.226562 Z M 220.019531 64.429688 " transform="matrix(1,0,0,1,-74,-13)"/>
<path style="fill-rule:nonzero;fill:rgb(39.99939%,39.99939%,39.99939%);fill-opacity:1;stroke-width:0.03;stroke-linecap:square;stroke-linejoin:miter;stroke:rgb(39.99939%,39.99939%,39.99939%);stroke-opacity:1;stroke-miterlimit:3.239307;" d="M 255.246094 82.472656 L 289.097656 100.308594 L 255.960938 159.851562 L 231.96875 143.667969 Z M 255.246094 82.472656 " transform="matrix(1,0,0,1,-74,-13)"/>
<path style="fill-rule:nonzero;fill:rgb(39.99939%,39.99939%,39.99939%);fill-opacity:1;stroke-width:0.03;stroke-linecap:square;stroke-linejoin:miter;stroke:rgb(39.99939%,39.99939%,39.99939%);stroke-opacity:1;stroke-miterlimit:3.239307;" d="M 294.28125 103.042969 L 325.109375 119.308594 L 285.996094 180.128906 L 260.832031 163.140625 Z M 294.28125 103.042969 " transform="matrix(1,0,0,1,-74,-13)"/>
<path style="fill-rule:nonzero;fill:rgb(39.99939%,39.99939%,39.99939%);fill-opacity:1;stroke-width:0.03;stroke-linecap:square;stroke-linejoin:miter;stroke:rgb(39.99939%,39.99939%,39.99939%);stroke-opacity:1;stroke-miterlimit:3.239307;" d="M 156.144531 232.160156 L 187.558594 244.300781 L 169.835938 289.214844 L 138.089844 276.324219 L 141.390625 268.253906 L 143.230469 266.597656 L 152.949219 239.972656 Z M 156.144531 232.160156 " transform="matrix(1,0,0,1,-74,-13)"/>
<path style="fill-rule:nonzero;fill:rgb(39.99939%,39.99939%,39.99939%);fill-opacity:1;stroke-width:0.03;stroke-linecap:square;stroke-linejoin:miter;stroke:rgb(39.99939%,39.99939%,39.99939%);stroke-opacity:1;stroke-miterlimit:3.239307;" d="M 126.664062 298.640625 L 126.042969 304.425781 L 125.429688 304.371094 Z M 126.664062 298.640625 " transform="matrix(1,0,0,1,-74,-13)"/>
<path style="fill-rule:nonzero;fill:rgb(39.99939%,39.99939%,39.99939%);fill-opacity:1;stroke-width:0.03;stroke-linecap:square;stroke-linejoin:miter;stroke:rgb(39.99939%,39.99939%,39.99939%);stroke-opacity:1;stroke-miterlimit:3.239307;" d="M 133.753906 275.125 L 133.734375 275.175781 L 133.703125 275.171875 Z M 133.753906 275.125 " transform="matrix(1,0,0,1,-74,-13)"/>
<path style="fill-rule:nonzero;fill:rgb(39.99939%,39.99939%,39.99939%);fill-opacity:1;stroke-width:0.03;stroke-linecap:square;stroke-linejoin:miter;stroke:rgb(39.99939%,39.99939%,39.99939%);stroke-opacity:1;stroke-miterlimit:3.239307;" d="M 134.15625 281.578125 L 167.351562 294.746094 L 156.265625 321.203125 L 147.121094 317.808594 L 152.71875 304.8125 L 141.144531 299.660156 L 135.023438 312.433594 L 130.941406 309.53125 Z M 134.15625 281.578125 " transform="matrix(1,0,0,1,-74,-13)"/>
<path style="fill-rule:nonzero;fill:rgb(39.99939%,39.99939%,39.99939%);fill-opacity:1;stroke-width:0.03;stroke-linecap:square;stroke-linejoin:miter;stroke:rgb(39.99939%,39.99939%,39.99939%);stroke-opacity:1;stroke-miterlimit:3.239307;" d="M 149.824219 306.753906 L 145.011719 317.023438 L 142.53125 316.101562 L 136.386719 313.078125 L 141.65625 303.214844 Z M 149.824219 306.753906 " transform="matrix(1,0,0,1,-74,-13)"/>
<path style=" stroke:none;fill-rule:evenodd;fill:rgb(85.096741%,85.096741%,81.959534%);fill-opacity:0.7;" d="M 167.957031 -19 C 167.957031 -25.355469 165.433594 -31.449219 160.941406 -35.941406 C 156.449219 -40.433594 150.355469 -42.957031 144 -42.957031 C 137.644531 -42.957031 131.550781 -40.433594 127.058594 -35.941406 C 122.566406 -31.449219 120.042969 -25.355469 120.042969 -19 C 120.042969 -12.644531 122.566406 -6.550781 127.058594 -2.058594 C 131.550781 2.433594 137.644531 4.957031 144 4.957031 C 150.355469 4.957031 156.449219 2.433594 160.941406 -2.058594 C 165.433594 -6.550781 167.957031 -12.644531 167.957031 -19 Z M 167.957031 -19 "/>
<path style=" stroke:none;fill-rule:evenodd;fill:rgb(85.096741%,85.096741%,81.959534%);fill-opacity:0.7;" d="M 267.957031 116 C 267.957031 109.644531 265.433594 103.550781 260.941406 99.058594 C 256.449219 94.566406 250.355469 92.042969 244 92.042969 C 237.644531 92.042969 231.550781 94.566406 227.058594 99.058594 C 222.566406 103.550781 220.042969 109.644531 220.042969 116 C 220.042969 122.355469 222.566406 128.449219 227.058594 132.941406 C 231.550781 137.433594 237.644531 139.957031 244 139.957031 C 250.355469 139.957031 256.449219 137.433594 260.941406 132.941406 C 265.433594 128.449219 267.957031 122.355469 267.957031 116 Z M 267.957031 116 "/>
</g>
</svg>
