<?xml version="1.0" encoding="UTF-8"?>
<svg xmlns="http://www.w3.org/2000/svg" xmlns:xlink="http://www.w3.org/1999/xlink" width="361pt" height="361pt" viewBox="0 0 361 361" version="1.1">
<defs>
<clipPath id="clip1">
  <path d="M 343 6 L 360 6 L 360 360 L 343 360 Z M 343 6 "/>
</clipPath>
<clipPath id="clip2">
  <path d="M 87 18 L 360 18 L 360 360 L 87 360 Z M 87 18 "/>
</clipPath>
<clipPath id="clip3">
  <path d="M 0 308 L 177 308 L 177 360 L 0 360 Z M 0 308 "/>
</clipPath>
<clipPath id="clip4">
  <path d="M 35 284 L 88 284 L 88 360 L 35 360 Z M 35 284 "/>
</clipPath>
</defs>
<g id="surface2730">
<path style="fill-rule:nonzero;fill:rgb(0%,0%,0%);fill-opacity:1;stroke-width:0.03;stroke-linecap:square;stroke-linejoin:miter;stroke:rgb(0%,0%,0%);stroke-opacity:1;stroke-miterlimit:10;" d="M 0 178 L 360 178 L 360 -182 L 0 -182 Z M 0 178 " transform="matrix(1,0,0,1,0,182)"/>
<path style=" stroke:none;fill-rule:nonzero;fill:rgb(39.99939%,39.99939%,39.99939%);fill-opacity:0.3;" d="M 158.953125 277.554688 L 144.527344 274.066406 L 149.089844 256.199219 L 163.433594 259.4375 Z M 158.953125 277.554688 "/>
<path style=" stroke:none;fill-rule:nonzero;fill:rgb(39.99939%,39.99939%,39.99939%);fill-opacity:0.3;" d="M 150.324219 236.378906 L 136.566406 233.472656 L 141.324219 216.976562 L 154.847656 219.574219 Z M 150.324219 236.378906 "/>
<path style=" stroke:none;fill-rule:nonzero;fill:rgb(39.99939%,39.99939%,39.99939%);fill-opacity:0.3;" d="M 121.003906 305.949219 L 106.21875 301.894531 L 111.792969 284.128906 L 125.691406 288.308594 Z M 121.003906 305.949219 "/>
<path style=" stroke:none;fill-rule:nonzero;fill:rgb(39.99939%,39.99939%,39.99939%);fill-opacity:0.3;" d="M 149.890625 294.980469 L 136.585938 292.242188 L 140.5 276.792969 L 153.726562 280.257812 Z M 149.890625 294.980469 "/>
<g clip-path="url(#clip1)" clip-rule="nonzero">
<path style=" stroke:none;fill-rule:nonzero;fill:rgb(39.99939%,39.99939%,39.99939%);fill-opacity:0.3;" d="M 415 271.109375 L 411.402344 270.972656 L 410.960938 271.574219 L 410.351562 272.398438 L 415 272.636719 L 415 296.398438 L 414.933594 296.996094 L 413.574219 300.609375 L 413.78125 306.679688 L 416.707031 322.046875 L 404.945312 326.332031 L 405.15625 327.15625 L 405.375 328.003906 L 417.351562 323.71875 L 430.65625 370.472656 L 437.859375 403.128906 L 418.054688 411.148438 L 418.261719 411.542969 L 418.464844 411.921875 L 438.265625 404.046875 L 440.675781 416.097656 L 441.484375 422.117188 L 442.417969 432.261719 L 441.195312 445.824219 L 440.800781 449.941406 L 437.886719 459.039062 L 434.964844 468.292969 L 431.875 474.472656 L 428.71875 479.128906 L 425.714844 483.386719 L 419.871094 489.71875 L 415.488281 494.101562 L 409.15625 498.484375 L 402.339844 501.40625 L 397.855469 502.527344 L 394.109375 497.757812 L 393.988281 488.988281 L 390.671875 486.890625 L 384.359375 485.265625 L 382.453125 475.417969 L 383.8125 468.9375 L 392.863281 460.640625 L 392.414062 447.410156 L 386.445312 435.652344 L 376.949219 435.867188 L 375.113281 419.539062 L 367.886719 404.875 L 366.195312 389.328125 L 365.222656 365.390625 L 360.429688 358.355469 L 361.574219 337.554688 L 362.628906 333.976562 L 362.816406 330.105469 L 359.664062 327.128906 L 358.035156 321.21875 L 356.464844 314.886719 L 358.53125 312.546875 L 361.082031 308.003906 L 360.824219 302.585938 L 355.761719 302.011719 L 356.433594 294.132812 L 360.65625 292.855469 L 355.480469 267.21875 L 347.246094 237.332031 L 349.453125 234.644531 L 350.027344 214.46875 L 347.746094 201.1875 L 345.4375 197.160156 L 343.425781 178.265625 L 343.246094 172.230469 L 349.53125 161.59375 L 352.105469 145.164062 L 359.710938 145.085938 L 363.214844 130.546875 L 366.9375 125.238281 L 359.054688 107.019531 L 356.835938 93.484375 L 356.5 82.476562 L 356.796875 72.359375 L 360.203125 54.195312 L 365.414062 40.675781 L 373.800781 13.636719 L 382.449219 6.164062 L 425.050781 88.613281 L 424.515625 89.359375 L 421.816406 90.902344 L 419.871094 95.773438 L 419.84375 95.929688 L 415 102.738281 L 415.835938 102.914062 L 416.632812 103.082031 L 418.515625 103.824219 L 402.828125 197.058594 L 415 241.859375 Z M 415 271.109375 "/>
</g>
<g clip-path="url(#clip2)" clip-rule="nonzero">
<path style=" stroke:none;fill-rule:nonzero;fill:rgb(39.99939%,39.99939%,39.99939%);fill-opacity:0.3;" d="M 242.351562 455.851562 L 230.171875 452.542969 L 229.363281 437.570312 L 227.570312 437.660156 L 225.773438 437.75 L 226.351562 451.71875 L 205.238281 450.542969 L 205.558594 438.007812 L 203.851562 437.535156 L 202.105469 437.050781 L 201.804688 449.816406 L 188.863281 450.074219 L 181.625 450.0625 L 179.316406 426.773438 L 179.828125 400.707031 L 180.664062 378.433594 L 180.878906 356.414062 L 180.550781 332.082031 L 180.039062 325.082031 L 179.363281 304.101562 L 184.628906 291.882812 L 189.960938 280.804688 L 194.78125 272.726562 L 199.050781 267.261719 L 202.84375 259.078125 L 205.054688 252.320312 L 205.28125 250.3125 L 205.070312 247.753906 L 203.996094 245.800781 L 202.128906 243.804688 L 200.25 242.988281 L 198.046875 242.644531 L 195.617188 243.082031 L 193.367188 243.914062 L 192.222656 245.21875 L 191.167969 246.703125 L 190.667969 248.488281 L 190.277344 250.539062 L 190.605469 254.945312 L 191.171875 261.742188 L 191.179688 267.308594 L 190.5625 272.046875 L 186.722656 278.605469 L 181.046875 290.167969 L 176.304688 303.265625 L 175.082031 304.605469 L 168.34375 304.476562 L 167.613281 312.839844 L 171.976562 316.199219 L 174.523438 319.128906 L 174.40625 327.707031 L 156.851562 328.292969 L 135 328.535156 L 126.847656 328.792969 L 121.339844 328.472656 L 121.328125 328.964844 L 119.417969 329.023438 L 87.765625 308.570312 L 155.453125 162.972656 L 185.292969 52.984375 L 188.515625 56.144531 L 193.535156 60.929688 L 201.675781 65.03125 L 218.488281 67.234375 L 229.148438 64.308594 L 232.570312 58.816406 L 233.464844 51.960938 L 233.320312 39.671875 L 239.203125 33.839844 L 248.664062 29.375 L 267.648438 27.6875 L 287.445312 25.613281 L 296.851562 24.277344 L 315.96875 18.515625 L 324.238281 19.527344 L 329.722656 27.191406 L 332.570312 30.921875 L 335.859375 33.613281 L 341.113281 35.679688 L 350.746094 35.457031 L 363.652344 32.949219 L 361.496094 40.445312 L 356.183594 54.4375 L 353.191406 72.066406 L 353.363281 82.777344 L 353.855469 93.339844 L 355.445312 107.027344 L 362.375 123.832031 L 359.046875 129.773438 L 356.359375 141.113281 L 347.335938 141.714844 L 346.742188 160.890625 L 339.453125 170.808594 L 339.125 197.554688 L 343.347656 202.792969 L 345.03125 206.578125 L 345.261719 213.894531 L 345.417969 232.792969 L 340.78125 236.507812 L 351.167969 267.226562 L 353.914062 286.039062 L 349.085938 291.535156 L 348.058594 302.777344 L 351.140625 306.027344 L 355.863281 306.484375 L 354.625 309.902344 L 351.878906 314.28125 L 354.046875 321.742188 L 354.589844 330.027344 L 358.246094 331.566406 L 358.949219 333.332031 L 356.15625 336.65625 L 355.949219 359.707031 L 360.089844 366.292969 L 362.28125 390.027344 L 363.167969 405.585938 L 358.707031 409.339844 L 353.140625 416.429688 L 350.296875 426.449219 L 337.460938 434.730469 L 331.050781 443.675781 L 315.210938 476.167969 L 311.453125 486.765625 L 313.273438 504.632812 L 307.492188 511.429688 L 294.90625 508.234375 L 285.554688 517.488281 L 282.855469 518.429688 L 245.617188 481.480469 L 248.847656 481.433594 L 247.449219 464.535156 L 244.207031 460.714844 L 242.316406 458.464844 L 242.59375 457.269531 L 246.761719 456.789062 L 251.765625 453.925781 L 256.945312 449.621094 L 256.441406 448.832031 L 255.9375 448.035156 L 250.5625 452.222656 L 245.855469 454.988281 Z M 242.351562 455.851562 "/>
</g>
<path style=" stroke:none;fill-rule:nonzero;fill:rgb(39.99939%,39.99939%,39.99939%);fill-opacity:0.3;" d="M 116.960938 325.726562 L 112.824219 324.3125 L 112.363281 320.796875 L 144.246094 318.671875 L 174.414062 319.210938 L 174.289062 327.636719 L 152.140625 328.34375 L 135 328.535156 L 128.324219 328.746094 L 121.371094 328.34375 Z M 116.960938 325.726562 "/>
<path style=" stroke:none;fill-rule:nonzero;fill:rgb(39.99939%,39.99939%,39.99939%);fill-opacity:0.3;" d="M 156.851562 328.292969 L 132.304688 329.105469 L 126.847656 328.792969 L 135 328.535156 Z M 156.851562 328.292969 "/>
<g clip-path="url(#clip3)" clip-rule="nonzero">
<path style=" stroke:none;fill-rule:evenodd;fill:rgb(39.99939%,39.99939%,39.99939%);fill-opacity:0.3;" d="M 121.328125 328.964844 L 121.308594 329.644531 L 121.277344 330.8125 L 131.742188 331.382812 L 133.09375 353.636719 L 140.582031 353.921875 L 140.601562 369.460938 L 141.234375 369.496094 L 141.867188 369.527344 L 141.875 353.789062 L 176.441406 353.574219 L 175.429688 376.375 L 149.3125 376.058594 L 149.347656 377.179688 L 149.382812 378.226562 L 175.199219 378.609375 L 173.894531 399.496094 L 150.429688 398.125 L 150.394531 398.75 L 150.359375 399.398438 L 173.863281 400.511719 L 174.5 418.753906 L 155.5625 418.84375 L 155.632812 419.949219 L 155.699219 420.945312 L 174.839844 421.300781 L 175.714844 449.5 L 175.59375 474.359375 L 176.476562 503.015625 L 174.445312 511.144531 L 173.929688 515.191406 L 172.617188 519.902344 L 169.734375 544.695312 L 164.746094 566.007812 L 163.445312 576.269531 L 161.8125 588.140625 L 157.835938 603.566406 L 153.636719 622.933594 L 149.9375 648.421875 L 139.34375 693.214844 L 127.523438 740.714844 L 122.472656 754.464844 L 118.503906 761.644531 L 113.164062 780.710938 L 107.601562 787.703125 L 99.613281 797.902344 L 98.542969 799.042969 L 92.894531 802.269531 L 75.589844 810.238281 L 60.308594 816.03125 L 55.488281 815.648438 L 46.863281 811.109375 L 36.148438 802.34375 L -1.832031 774.101562 L -1.382812 767.789062 L 2.765625 765.757812 L 17.105469 756.488281 L 24.824219 753.023438 L 35.6875 746.027344 L 40.984375 744.320312 L 45.609375 742.300781 L 46.921875 737.046875 L 49.042969 730.613281 L 62.007812 721.402344 L 63.035156 716.65625 L 66.46875 705.6875 L 74.398438 689.535156 L 84.722656 670.53125 L 95.417969 667.234375 L 97.992188 657.574219 L 99.699219 644.8125 L 103.34375 633.511719 L 105.019531 621.476562 L 107.664062 611.929688 L 116.941406 590.136719 L 119.460938 577.015625 L 117.515625 567.851562 L 118.59375 556.800781 L 119.535156 535.601562 L 120.242188 522.820312 L 121.1875 503.796875 L 115.589844 481.644531 L 106.75 474.011719 L 107.832031 469.882812 L 109.632812 462.648438 L 109.382812 457.488281 L 107.660156 450.746094 L 103.421875 445.929688 L 98.578125 441.230469 L 96.757812 438.824219 L 99.523438 429.757812 L 97.941406 423.910156 L 95.839844 418.292969 L 92.832031 413.671875 L 95.257812 407.890625 L 77.121094 375 L 67.753906 369.160156 L 87.765625 308.570312 L 119.417969 329.023438 Z M 161.714844 597.671875 L 161.710938 597.671875 L 161.738281 597.5625 Z M 161.714844 597.671875 "/>
</g>
<path style=" stroke:none;fill-rule:nonzero;fill:rgb(39.99939%,39.99939%,39.99939%);fill-opacity:0.3;" d="M 152.140625 328.34375 L 132.328125 328.976562 L 128.324219 328.746094 L 135 328.535156 Z M 152.140625 328.34375 "/>
<path style=" stroke:none;fill-rule:nonzero;fill:rgb(39.99939%,39.99939%,39.99939%);fill-opacity:0.3;" d="M 174.644531 330.757812 L 174.59375 352.046875 L 135.148438 351.621094 L 134.675781 339.179688 L 134.449219 331.1875 Z M 174.644531 330.757812 "/>
<g clip-path="url(#clip4)" clip-rule="nonzero">
<path style=" stroke:none;fill-rule:nonzero;fill:rgb(39.99939%,39.99939%,39.99939%);fill-opacity:0.3;" d="M 67.753906 369.160156 L 60.492188 364.628906 L 49.660156 364.644531 L 36.949219 364.976562 L 35.171875 339.808594 L 35.878906 324.183594 L 37.980469 311.472656 L 42.84375 300.367188 L 50.457031 286.015625 L 51.429688 284.523438 L 87.765625 308.570312 Z M 67.753906 369.160156 "/>
</g>
<path style=" stroke:none;fill-rule:nonzero;fill:rgb(39.99939%,39.99939%,39.99939%);fill-opacity:0.3;" d="M 51.429688 284.523438 L 64.449219 264.507812 L 72.484375 251.941406 L 79.757812 242.109375 L 88.5625 230.089844 L 100.621094 215.699219 L 114.398438 193.710938 L 116.363281 187.863281 L 121.257812 168.457031 L 124.144531 148.605469 L 129.335938 126.523438 L 137.691406 107.269531 L 141.242188 100.671875 L 145.109375 90.75 L 159.855469 70.753906 L 168.246094 61.910156 L 178.371094 52.109375 L 183.707031 51.429688 L 185.292969 52.984375 L 155.453125 162.972656 L 87.765625 308.570312 Z M 51.429688 284.523438 "/>
<path style="fill-rule:nonzero;fill:rgb(39.99939%,39.99939%,39.99939%);fill-opacity:1;stroke-width:0.03;stroke-linecap:square;stroke-linejoin:miter;stroke:rgb(39.99939%,39.99939%,39.99939%);stroke-opacity:1;stroke-miterlimit:3.239307;" d="M 125.429688 297.523438 L 138.449219 277.507812 L 146.484375 264.941406 L 153.757812 255.109375 L 162.5625 243.089844 L 174.621094 228.699219 L 188.398438 206.710938 L 190.363281 200.863281 L 195.257812 181.457031 L 198.144531 161.605469 L 203.335938 139.523438 L 211.691406 120.269531 L 215.242188 113.671875 L 219.109375 103.75 L 233.855469 83.753906 L 242.246094 74.910156 L 252.371094 65.109375 L 257.707031 64.429688 L 259.292969 65.984375 L 229.453125 175.972656 L 161.765625 321.570312 Z M 125.429688 297.523438 " transform="matrix(1,0,0,1,-74,-13)"/>
</g>
</svg>
