<?xml version="1.0" encoding="UTF-8"?>
<svg xmlns="http://www.w3.org/2000/svg" xmlns:xlink="http://www.w3.org/1999/xlink" width="361pt" height="361pt" viewBox="0 0 361 361" version="1.1">
<defs>
<clipPath id="clip1">
  <path d="M 75 0 L 360 0 L 360 360 L 75 360 Z M 75 0 "/>
</clipPath>
<clipPath id="clip2">
  <path d="M 75 339 L 163 339 L 163 360 L 75 360 Z M 75 339 "/>
</clipPath>
<clipPath id="clip3">
  <path d="M 0 256 L 178 256 L 178 360 L 0 360 Z M 0 256 "/>
</clipPath>
</defs>
<g id="surface2709">
<path style="fill-rule:nonzero;fill:rgb(0%,0%,0%);fill-opacity:1;stroke-width:0.03;stroke-linecap:square;stroke-linejoin:miter;stroke:rgb(0%,0%,0%);stroke-opacity:1;stroke-miterlimit:10;" d="M 0 178 L 360 178 L 360 -182 L 0 -182 Z M 0 178 " transform="matrix(1,0,0,1,0,182)"/>
<g clip-path="url(#clip1)" clip-rule="nonzero">
<path style=" stroke:none;fill-rule:nonzero;fill:rgb(39.99939%,39.99939%,39.99939%);fill-opacity:0.3;" d="M 622.578125 198.785156 L 621.363281 199.742188 L 607.679688 232.648438 L 599.996094 279.164062 L 606.039062 316.597656 L 610.371094 317.363281 L 607.929688 386.585938 L 593.496094 476.785156 L 586.269531 483.105469 L 568.742188 491.421875 L 554.617188 495.804688 L 519.511719 499.707031 L 467.503906 501.003906 L 368.683594 495.804688 L 332.644531 493.90625 L 352.339844 411.136719 L 367.359375 369.1875 L 380.945312 355.296875 L 395.773438 348.128906 L 403.332031 333.667969 L 401.789062 325.929688 L 397.1875 317.871094 L 393.609375 311.910156 L 405.207031 235.257812 L 414.671875 228.707031 L 417.816406 219.980469 L 418.375 210.714844 L 413.769531 204.449219 L 408.585938 198.1875 L 429.949219 33.058594 L 485.664062 41.695312 L 488.941406 58.890625 L 488.65625 75.628906 L 487.1875 91.105469 L 487.964844 99.929688 L 491.523438 109.484375 L 494.882812 115.730469 L 501.59375 113.378906 L 497.179688 107.046875 L 494.066406 98.699219 L 493.402344 91.125 L 494.84375 75.941406 L 495.136719 58.578125 L 492.484375 37.976562 L 489.996094 14.292969 L 486.871094 -0.894531 L 486.171875 -26.289062 L 488.910156 -48.773438 L 490.199219 -56.96875 L 491.488281 -65.9375 L 491.144531 -77.902344 L 491.125 -89.035156 L 493.878906 -100.207031 L 499.894531 -116.644531 L 506.242188 -131.847656 L 508.023438 -138.964844 L 509.105469 -147.929688 L 513.070312 -153.210938 L 515.453125 -156.230469 L 517.035156 -161.511719 L 518.21875 -166.792969 L 517.804688 -174.707031 L 516.605469 -178.476562 L 513.019531 -184.125 L 498.300781 -192.773438 L 496.390625 -190.402344 L 494.484375 -188.03125 L 508.488281 -179.878906 L 510.902344 -176.074219 L 511.660156 -173.699219 L 511.992188 -167.265625 L 511.019531 -162.929688 L 509.808594 -158.882812 L 508.070312 -156.675781 L 503.136719 -150.101562 L 501.914062 -139.980469 L 500.324219 -133.617188 L 494.089844 -118.691406 L 487.925781 -101.84375 L 484.933594 -89.710938 L 484.953125 -77.820312 L 485.285156 -66.257812 L 484.070312 -57.800781 L 482.769531 -49.542969 L 479.972656 -26.550781 L 480.695312 -0.25 L 483.867188 15.148438 L 485.09375 26.84375 L 440.140625 19.457031 L 436.507812 8.257812 L 436.160156 -2.410156 L 431.515625 -10.5625 L 425.550781 -17.457031 L 421.074219 -17.984375 L 421.03125 -45.6875 L 421.710938 -47.308594 L 422.125 -49.367188 L 422.117188 -51.109375 L 421.789062 -52.828125 L 421.304688 -54.148438 L 420.226562 -55.972656 L 418.90625 -57.429688 L 417.625 -58.421875 L 430.59375 -167.1875 L 431.851562 -168.304688 L 432.835938 -169.644531 L 433.417969 -170.890625 L 433.785156 -172.347656 L 433.84375 -173.984375 L 433.5 -175.722656 L 432.753906 -177.34375 L 432.199219 -178.140625 L 431.128906 -179.246094 L 430.101562 -179.992188 L 428.429688 -180.777344 L 427.464844 -181.050781 L 426.617188 -181.191406 L 425.179688 -181.234375 L 423.898438 -181.074219 L 422 -180.449219 L 420.886719 -179.824219 L 420.101562 -179.230469 L 419.121094 -178.230469 L 418.210938 -176.84375 L 417.660156 -175.4375 L 417.402344 -173.960938 L 417.464844 -172.324219 L 417.664062 -171.390625 L 418.15625 -170.109375 L 405.222656 -58.171875 L 403.382812 -56.46875 L 401.878906 -54.074219 L 401.128906 -51.378906 L 401.058594 -50.332031 L 401.140625 -48.9375 L 401.476562 -47.398438 L 401.910156 -46.25 L 402.78125 -44.710938 L 403.734375 -36.238281 L 403.171875 -15.324219 L 399.101562 -13.660156 L 395.148438 -4.242188 L 392.191406 6.433594 L 391.554688 21.179688 L 396.519531 28.75 L 402.886719 31.335938 L 387.039062 197.273438 L 379.726562 202.339844 L 375.308594 207.921875 L 373.96875 217.699219 L 379.777344 229.871094 L 390.109375 235.660156 L 377.128906 310.960938 L 365.070312 313.714844 L 357.523438 319.589844 L 354.734375 329.042969 L 354.242188 338.234375 L 358.117188 348.230469 L 344.527344 366.066406 L 326.929688 408.367188 L 300.664062 491.878906 L 262.691406 492.277344 L 239.960938 491.902344 L 206.15625 495.804688 L 205.320312 496.054688 L 201.289062 496.351562 L 166.730469 505.65625 L 130.242188 521.113281 L 109.351562 530.507812 L 79.175781 545.042969 L 75.859375 502.886719 L 162.40625 357.902344 L 173.902344 360.566406 L 180.453125 351.660156 L 191.53125 309.113281 L 191.855469 308.570312 L 268.242188 51.429688 L 305.742188 40.980469 L 339.828125 -101.722656 L 345.433594 -139.691406 L 368.878906 -182.632812 L 388.878906 -227.167969 L 434.625 -269.136719 L 571.085938 -300.730469 L 692.03125 -327.046875 L 703.113281 -331.230469 L 617.679688 -261.191406 L 549.417969 -151.710938 L 502.609375 17.320312 L 748.351562 17.320312 L 665.136719 166.847656 L 649.535156 169.445312 L 639.132812 175.949219 L 632.632812 182.449219 Z M 622.578125 198.785156 "/>
</g>
<g clip-path="url(#clip2)" clip-rule="nonzero">
<path style=" stroke:none;fill-rule:nonzero;fill:rgb(39.99939%,39.99939%,39.99939%);fill-opacity:0.3;" d="M 75.859375 502.886719 L 75.746094 501.46875 L 76.960938 441.222656 L 81.996094 368.710938 L 84.292969 339.792969 L 162.40625 357.902344 Z M 75.859375 502.886719 "/>
</g>
<path style=" stroke:none;fill-rule:nonzero;fill:rgb(39.99939%,39.99939%,39.99939%);fill-opacity:0.3;" d="M 191.53125 309.113281 L 191.6875 308.515625 L 191.855469 308.570312 Z M 191.53125 309.113281 "/>
<g clip-path="url(#clip3)" clip-rule="nonzero">
<path style=" stroke:none;fill-rule:nonzero;fill:rgb(39.99939%,39.99939%,39.99939%);fill-opacity:0.3;" d="M 177.332031 303.730469 L 168.917969 340.652344 L 58.199219 315.964844 L 60.234375 521.132812 L 61.289062 527.292969 L 41.210938 560.925781 L 22.894531 563.097656 L -2.886719 562.464844 L -46.03125 558.289062 L -51.503906 545.375 L -52.890625 531.164062 L -56.605469 484.652344 L -54.378906 457.945312 L -48.722656 435.523438 L -50.804688 420.464844 L -60.378906 399.375 L -62.65625 349.117188 L -61.203125 340.925781 L 51.429688 256.5625 L 65.730469 281.265625 L 80.035156 287.769531 L 125.542969 291.667969 L 160.648438 298.167969 Z M 177.332031 303.730469 "/>
</g>
<path style=" stroke:none;fill-rule:nonzero;fill:rgb(39.99939%,39.99939%,39.99939%);fill-opacity:0.3;" d="M 191.6875 308.515625 L 257.867188 54.320312 L 268.242188 51.429688 L 191.855469 308.570312 Z M 191.6875 308.515625 "/>
<path style=" stroke:none;fill-rule:nonzero;fill:rgb(39.99939%,39.99939%,39.99939%);fill-opacity:0.3;" d="M 59.273438 211.238281 L 228.285156 80.035156 L 177.332031 303.730469 L 160.648438 298.167969 L 125.542969 291.667969 L 80.035156 287.769531 L 65.730469 281.265625 L 51.429688 256.5625 Z M 59.273438 211.238281 "/>
<path style=" stroke:none;fill-rule:nonzero;fill:rgb(39.99939%,39.99939%,39.99939%);fill-opacity:0.3;" d="M -47.046875 293.773438 L 59.273438 211.238281 L 51.429688 256.5625 L -61.203125 340.925781 L -57.546875 320.3125 Z M -47.046875 293.773438 "/>
<path style="fill-rule:nonzero;fill:rgb(39.99939%,39.99939%,39.99939%);fill-opacity:1;stroke-width:0.03;stroke-linecap:square;stroke-linejoin:miter;stroke:rgb(39.99939%,39.99939%,39.99939%);stroke-opacity:1;stroke-miterlimit:3.239307;" d="M 265.6875 321.515625 L 331.867188 67.320312 L 342.242188 64.429688 L 265.855469 321.570312 Z M 265.6875 321.515625 " transform="matrix(1,0,0,1,-74,-13)"/>
<path style="fill-rule:nonzero;fill:rgb(39.99939%,39.99939%,39.99939%);fill-opacity:1;stroke-width:0.03;stroke-linecap:square;stroke-linejoin:miter;stroke:rgb(39.99939%,39.99939%,39.99939%);stroke-opacity:1;stroke-miterlimit:3.239307;" d="M 133.273438 224.238281 L 302.285156 93.035156 L 251.332031 316.730469 L 234.648438 311.167969 L 199.542969 304.667969 L 154.035156 300.769531 L 139.730469 294.265625 L 125.429688 269.5625 Z M 133.273438 224.238281 " transform="matrix(1,0,0,1,-74,-13)"/>
</g>
</svg>
