<?xml version="1.0" encoding="UTF-8"?>
<svg xmlns="http://www.w3.org/2000/svg" xmlns:xlink="http://www.w3.org/1999/xlink" width="361pt" height="361pt" viewBox="0 0 361 361" version="1.1">
<defs>
<clipPath id="clip1">
  <path d="M 3 0 L 360 0 L 360 2 L 3 2 Z M 3 0 "/>
</clipPath>
<clipPath id="clip2">
  <path d="M 322 0 L 360 0 L 360 66 L 322 66 Z M 322 0 "/>
</clipPath>
<clipPath id="clip3">
  <path d="M 16 286 L 43 286 L 43 360 L 16 360 Z M 16 286 "/>
</clipPath>
<clipPath id="clip4">
  <path d="M 0 287 L 14 287 L 14 360 L 0 360 Z M 0 287 "/>
</clipPath>
<clipPath id="clip5">
  <path d="M 46 284 L 78 284 L 78 360 L 46 360 Z M 46 284 "/>
</clipPath>
<clipPath id="clip6">
  <path d="M 299 52 L 360 52 L 360 273 L 299 273 Z M 299 52 "/>
</clipPath>
<clipPath id="clip7">
  <path d="M 76 187 L 299 187 L 299 360 L 76 360 Z M 76 187 "/>
</clipPath>
<clipPath id="clip8">
  <path d="M 330 274 L 360 274 L 360 360 L 330 360 Z M 330 274 "/>
</clipPath>
<clipPath id="clip9">
  <path d="M 356 275 L 360 275 L 360 360 L 356 360 Z M 356 275 "/>
</clipPath>
<clipPath id="clip10">
  <path d="M 162 349 L 206 349 L 206 360 L 162 360 Z M 162 349 "/>
</clipPath>
<clipPath id="clip11">
  <path d="M 320 0 L 360 0 L 360 9 L 320 9 Z M 320 0 "/>
</clipPath>
<clipPath id="clip12">
  <path d="M 349 105 L 360 105 L 360 187 L 349 187 Z M 349 105 "/>
</clipPath>
<clipPath id="clip13">
  <path d="M 347 104 L 360 104 L 360 188 L 347 188 Z M 347 104 "/>
</clipPath>
</defs>
<g id="surface1694">
<path style="fill-rule:nonzero;fill:rgb(0%,0%,0%);fill-opacity:1;stroke-width:0.03;stroke-linecap:square;stroke-linejoin:miter;stroke:rgb(0%,0%,0%);stroke-opacity:1;stroke-miterlimit:10;" d="M 0 178 L 360 178 L 360 -182 L 0 -182 Z M 0 178 " transform="matrix(1,0,0,1,0,182)"/>
<g clip-path="url(#clip1)" clip-rule="nonzero">
<path style=" stroke:none;fill-rule:nonzero;fill:rgb(39.99939%,39.99939%,39.99939%);fill-opacity:0.3;" d="M 359.460938 -278.472656 L 359.992188 -277.433594 L 360.019531 -276.109375 L 317.863281 -139.832031 L 274.265625 1.960938 L 191.578125 -33.132812 L 148.386719 -51.941406 L 44.625 -98.160156 L 22.234375 -110.839844 L 21.140625 -111.773438 L 12.601562 -129.828125 L 7.1875 -147.484375 L 3.242188 -179.839844 L 139.308594 -218.351562 L 260.875 -248.390625 Z M 359.460938 -278.472656 "/>
</g>
<g clip-path="url(#clip2)" clip-rule="nonzero">
<path style=" stroke:none;fill-rule:nonzero;fill:rgb(39.99939%,39.99939%,39.99939%);fill-opacity:0.3;" d="M 337.25 -26.246094 L 360.003906 -19.570312 L 362.222656 -18.664062 L 383.953125 -16.765625 L 420.894531 -15.125 L 435.375 -14.578125 L 426.3125 65.882812 L 322.820312 22.851562 Z M 337.25 -26.246094 "/>
</g>
<path style=" stroke:none;fill-rule:nonzero;fill:rgb(39.99939%,39.99939%,39.99939%);fill-opacity:0.3;" d="M 293.085938 -39.15625 L 330.332031 -29.386719 L 316.207031 19.402344 L 280.433594 4.867188 Z M 293.085938 -39.15625 "/>
<g clip-path="url(#clip3)" clip-rule="nonzero">
<path style=" stroke:none;fill-rule:nonzero;fill:rgb(39.99939%,39.99939%,39.99939%);fill-opacity:0.3;" d="M 32.382812 362.890625 L 19.554688 363.492188 L 16.773438 287.097656 L 40.101562 286.164062 L 42.269531 362.375 Z M 32.382812 362.890625 "/>
</g>
<g clip-path="url(#clip4)" clip-rule="nonzero">
<path style=" stroke:none;fill-rule:nonzero;fill:rgb(39.99939%,39.99939%,39.99939%);fill-opacity:0.3;" d="M -10.648438 288.1875 L 10.289062 287.351562 L 13.183594 359.875 L -7.265625 360.386719 Z M -10.648438 288.1875 "/>
</g>
<g clip-path="url(#clip5)" clip-rule="nonzero">
<path style=" stroke:none;fill-rule:nonzero;fill:rgb(39.99939%,39.99939%,39.99939%);fill-opacity:0.3;" d="M 76.414062 284.699219 L 77.507812 368.753906 L 49.605469 367.890625 L 46.714844 285.898438 Z M 76.414062 284.699219 "/>
</g>
<path style=" stroke:none;fill-rule:nonzero;fill:rgb(39.99939%,39.99939%,39.99939%);fill-opacity:0.3;" d="M 75.195312 254.371094 L 77.113281 278.636719 L 76.414062 278.664062 L 74.511719 254.371094 Z M 75.195312 254.371094 "/>
<path style=" stroke:none;fill-rule:nonzero;fill:rgb(39.99939%,39.99939%,39.99939%);fill-opacity:0.3;" d="M 170.585938 137.347656 L 179.480469 110.082031 L 305.351562 153.816406 L 305.351562 187.960938 Z M 170.585938 137.347656 "/>
<path style=" stroke:none;fill-rule:nonzero;fill:rgb(39.99939%,39.99939%,39.99939%);fill-opacity:0.3;" d="M 53.558594 96.324219 L 51.429688 65.625 L 57.667969 65.90625 L 176.757812 109.066406 L 167.78125 136.488281 Z M 53.558594 96.324219 "/>
<path style=" stroke:none;fill-rule:nonzero;fill:rgb(39.99939%,39.99939%,39.99939%);fill-opacity:0.3;" d="M 90.65625 114.417969 L 113.855469 122.730469 L 128.9375 190.777344 L 103.644531 187.476562 Z M 90.65625 114.417969 "/>
<path style=" stroke:none;fill-rule:nonzero;fill:rgb(39.99939%,39.99939%,39.99939%);fill-opacity:0.3;" d="M 76.339844 187.9375 L 76.203125 187.074219 L 202.871094 203.191406 L 174.445312 295.726562 L 122.609375 290.164062 L 122.398438 291.566406 L 122.332031 292.011719 L 115.847656 291.414062 L 127.121094 194.246094 L 99.203125 190.488281 L 79.34375 188.875 Z M 76.339844 187.9375 "/>
<path style=" stroke:none;fill-rule:nonzero;fill:rgb(39.99939%,39.99939%,39.99939%);fill-opacity:0.3;" d="M 195.949219 233.210938 L 221.410156 240.226562 L 203.414062 299.078125 L 176.753906 296 Z M 195.949219 233.210938 "/>
<path style=" stroke:none;fill-rule:nonzero;fill:rgb(39.99939%,39.99939%,39.99939%);fill-opacity:0.3;" d="M 212.324219 276.820312 L 280.703125 284.410156 L 280.722656 307.351562 L 206.140625 299.394531 Z M 212.324219 276.820312 "/>
<path style=" stroke:none;fill-rule:nonzero;fill:rgb(39.99939%,39.99939%,39.99939%);fill-opacity:0.3;" d="M 224.355469 241.113281 L 251.96875 247.125 L 252.460938 278.683594 L 214.390625 274.457031 Z M 224.355469 241.113281 "/>
<path style=" stroke:none;fill-rule:nonzero;fill:rgb(39.99939%,39.99939%,39.99939%);fill-opacity:0.3;" d="M 151.910156 193.765625 L 168.105469 141.59375 L 192.496094 150.015625 L 176.882812 197.039062 Z M 151.910156 193.765625 "/>
<path style=" stroke:none;fill-rule:nonzero;fill:rgb(39.99939%,39.99939%,39.99939%);fill-opacity:0.3;" d="M 180.898438 197.550781 L 195.828125 151.226562 L 215.25 158.011719 L 201.988281 200.308594 Z M 180.898438 197.550781 "/>
<path style=" stroke:none;fill-rule:nonzero;fill:rgb(39.99939%,39.99939%,39.99939%);fill-opacity:0.3;" d="M 218.761719 158.820312 L 244.710938 168.203125 L 222.261719 237.648438 L 197.03125 230.636719 Z M 218.761719 158.820312 "/>
<path style=" stroke:none;fill-rule:nonzero;fill:rgb(39.99939%,39.99939%,39.99939%);fill-opacity:0.3;" d="M 246.792969 169.050781 L 251.59375 171.011719 L 252.183594 244.234375 L 225.507812 238.421875 Z M 246.792969 169.050781 "/>
<path style=" stroke:none;fill-rule:nonzero;fill:rgb(39.99939%,39.99939%,39.99939%);fill-opacity:0.3;" d="M 254.351562 172.132812 L 279.195312 180.664062 L 280.964844 281.777344 L 255.042969 278.90625 Z M 254.351562 172.132812 "/>
<path style=" stroke:none;fill-rule:nonzero;fill:rgb(39.99939%,39.99939%,39.99939%);fill-opacity:0.3;" d="M 58.714844 103.242188 L 87.601562 113.347656 L 100.992188 187.070312 L 71.609375 183.296875 Z M 58.714844 103.242188 "/>
<path style=" stroke:none;fill-rule:nonzero;fill:rgb(39.99939%,39.99939%,39.99939%);fill-opacity:0.3;" d="M 148.371094 193.3125 L 132.3125 191.214844 L 116.773438 123.554688 L 164.355469 140.203125 Z M 148.371094 193.3125 "/>
<path style=" stroke:none;fill-rule:nonzero;fill:rgb(39.99939%,39.99939%,39.99939%);fill-opacity:0.3;" d="M 299.476562 272.53125 L 297.90625 272.539062 L 296.144531 308.570312 L 283.804688 307.460938 L 281.40625 181.378906 L 305.46875 190.46875 L 306.960938 217.328125 L 308.570312 246.855469 Z M 299.476562 272.53125 "/>
<path style=" stroke:none;fill-rule:nonzero;fill:rgb(39.99939%,39.99939%,39.99939%);fill-opacity:0.3;" d="M 305.351562 153.816406 L 306.03125 154.054688 L 306.933594 188.558594 L 305.351562 187.960938 Z M 305.351562 153.816406 "/>
<path style=" stroke:none;fill-rule:nonzero;fill:rgb(39.99939%,39.99939%,39.99939%);fill-opacity:0.3;" d="M 302.4375 28.203125 L 303.539062 28.664062 L 306.914062 151.703125 L 305.296875 151.121094 L 303.203125 61.109375 L 302.667969 30.507812 Z M 302.4375 28.203125 "/>
<path style=" stroke:none;fill-rule:nonzero;fill:rgb(39.99939%,39.99939%,39.99939%);fill-opacity:0.3;" d="M 311.316406 218.199219 L 353.660156 218.863281 L 351.941406 241.257812 L 350.203125 245.03125 L 347.074219 246.644531 L 331.570312 247.402344 L 317.144531 246.878906 L 313.957031 245.265625 L 312.03125 242.316406 Z M 311.316406 218.199219 "/>
<path style=" stroke:none;fill-rule:nonzero;fill:rgb(39.99939%,39.99939%,39.99939%);fill-opacity:0.3;" d="M 309.960938 174.882812 L 353.917969 174.722656 L 353.707031 215.265625 L 311.164062 214.679688 L 310.445312 191.019531 Z M 309.960938 174.882812 "/>
<g clip-path="url(#clip6)" clip-rule="nonzero">
<path style=" stroke:none;fill-rule:nonzero;fill:rgb(39.99939%,39.99939%,39.99939%);fill-opacity:0.3;" d="M 366.296875 184.746094 L 357.917969 184.511719 L 359.363281 122.316406 L 368.582031 122.871094 L 368.664062 120.886719 L 368.746094 118.90625 L 359.359375 118.222656 L 361.066406 52.886719 L 421.023438 78.023438 L 421.84375 79.363281 L 424.28125 83.085938 L 430.640625 93.609375 L 424.027344 182.398438 L 422.382812 196.929688 L 413.523438 271.949219 L 299.476562 272.53125 L 308.570312 246.855469 L 306.960938 217.328125 L 305.46875 190.46875 L 306.839844 190.984375 L 308.703125 238.460938 L 309.203125 246.003906 L 310.949219 248.832031 L 317.65625 250.476562 L 331.078125 250.464844 L 348.21875 249.742188 L 352.9375 246.679688 L 354.5625 236.75 L 357.910156 187.03125 L 364.996094 187.425781 L 366.296875 187.449219 L 366.335938 186.128906 Z M 366.296875 184.746094 "/>
</g>
<path style=" stroke:none;fill-rule:nonzero;fill:rgb(39.99939%,39.99939%,39.99939%);fill-opacity:0.3;" d="M 333.851562 75.214844 L 357.394531 84.824219 L 354.089844 171.527344 L 336.554688 171.53125 Z M 333.851562 75.214844 "/>
<path style=" stroke:none;fill-rule:nonzero;fill:rgb(39.99939%,39.99939%,39.99939%);fill-opacity:0.3;" d="M 307.9375 64.632812 L 330.960938 74.035156 L 333.367188 171.53125 L 310.878906 171.535156 Z M 307.9375 64.632812 "/>
<path style=" stroke:none;fill-rule:nonzero;fill:rgb(39.99939%,39.99939%,39.99939%);fill-opacity:0.3;" d="M 307.335938 30.164062 L 358.050781 51.632812 L 357.640625 82.15625 L 308.027344 62.023438 Z M 307.335938 30.164062 "/>
<path style=" stroke:none;fill-rule:nonzero;fill:rgb(39.99939%,39.99939%,39.99939%);fill-opacity:0.3;" d="M 123.746094 29.386719 L 147.238281 37.738281 L 126.929688 87.167969 L 103.765625 78.707031 Z M 123.746094 29.386719 "/>
<path style=" stroke:none;fill-rule:nonzero;fill:rgb(39.99939%,39.99939%,39.99939%);fill-opacity:0.3;" d="M 51.429688 65.625 L 51.289062 63.59375 L 57.667969 65.90625 Z M 51.429688 65.625 "/>
<path style=" stroke:none;fill-rule:nonzero;fill:rgb(39.99939%,39.99939%,39.99939%);fill-opacity:0.3;" d="M 65.640625 12.316406 L 50.457031 50.742188 L 42.308594 11.625 L 42.753906 9.488281 L 44.644531 7.777344 L 46.894531 7.007812 L 50.636719 6.546875 L 55.738281 6.332031 L 59.511719 6.75 L 63.0625 8.429688 L 65.183594 10.84375 Z M 65.640625 12.316406 "/>
<path style=" stroke:none;fill-rule:nonzero;fill:rgb(39.99939%,39.99939%,39.99939%);fill-opacity:0.3;" d="M 70.75 10.523438 L 92.3125 18.175781 L 72.238281 67.1875 L 50.640625 59.296875 Z M 70.75 10.523438 "/>
<path style=" stroke:none;fill-rule:nonzero;fill:rgb(39.99939%,39.99939%,39.99939%);fill-opacity:0.3;" d="M 92.117188 -63.394531 L 66.167969 1.105469 L 55.453125 0.183594 L 42.847656 1.535156 L 39.21875 -16.757812 L 47.789062 -66.09375 L 50.996094 -71.203125 L 54.273438 -74.589844 L 57.953125 -75.785156 L 62.277344 -76.570312 Z M 92.117188 -63.394531 "/>
<path style=" stroke:none;fill-rule:nonzero;fill:rgb(39.99939%,39.99939%,39.99939%);fill-opacity:0.3;" d="M 95.136719 19.195312 L 120.386719 28.191406 L 100.398438 77.476562 L 75.25 68.289062 Z M 95.136719 19.195312 "/>
<path style=" stroke:none;fill-rule:nonzero;fill:rgb(39.99939%,39.99939%,39.99939%);fill-opacity:0.3;" d="M 123.074219 -49.902344 L 145.980469 -40.019531 L 122.34375 22.558594 L 98.726562 14.148438 Z M 123.074219 -49.902344 "/>
<path style=" stroke:none;fill-rule:nonzero;fill:rgb(39.99939%,39.99939%,39.99939%);fill-opacity:0.3;" d="M 95.917969 -61.378906 L 119.554688 -51.507812 L 95.503906 12.988281 L 68.890625 3.511719 Z M 95.917969 -61.378906 "/>
<path style=" stroke:none;fill-rule:nonzero;fill:rgb(39.99939%,39.99939%,39.99939%);fill-opacity:0.3;" d="M 150.988281 39.054688 L 174.347656 47.402344 L 153.972656 97.050781 L 130.832031 88.59375 Z M 150.988281 39.054688 "/>
<path style=" stroke:none;fill-rule:nonzero;fill:rgb(39.99939%,39.99939%,39.99939%);fill-opacity:0.3;" d="M 212.417969 60.921875 L 237.382812 70.039062 L 217.746094 119.867188 L 191.511719 110.765625 Z M 212.417969 60.921875 "/>
<path style=" stroke:none;fill-rule:nonzero;fill:rgb(39.99939%,39.99939%,39.99939%);fill-opacity:0.3;" d="M 241.117188 71.40625 L 264.667969 80.007812 L 244.976562 129.382812 L 221.65625 121.234375 Z M 241.117188 71.40625 "/>
<path style=" stroke:none;fill-rule:nonzero;fill:rgb(39.99939%,39.99939%,39.99939%);fill-opacity:0.3;" d="M 281.109375 50.128906 L 291.226562 23.535156 L 302.4375 28.203125 L 302.667969 30.507812 L 303.203125 61.109375 L 305.296875 151.121094 L 282.296875 142.832031 Z M 281.109375 50.128906 "/>
<path style=" stroke:none;fill-rule:nonzero;fill:rgb(39.99939%,39.99939%,39.99939%);fill-opacity:0.3;" d="M 269.808594 75.238281 L 277.574219 55.972656 L 277.761719 78.144531 Z M 269.808594 75.238281 "/>
<path style=" stroke:none;fill-rule:nonzero;fill:rgb(39.99939%,39.99939%,39.99939%);fill-opacity:0.3;" d="M 268.289062 81.328125 L 278.75 85.152344 L 278.59375 141.5 L 248.953125 130.835938 Z M 268.289062 81.328125 "/>
<path style=" stroke:none;fill-rule:nonzero;fill:rgb(39.99939%,39.99939%,39.99939%);fill-opacity:0.3;" d="M 148.902344 -38.523438 L 172.496094 -28.167969 L 149.507812 32.230469 L 125.730469 23.660156 Z M 148.902344 -38.523438 "/>
<path style=" stroke:none;fill-rule:nonzero;fill:rgb(39.99939%,39.99939%,39.99939%);fill-opacity:0.3;" d="M 157.476562 98.328125 L 203.523438 -14.625 L 234.527344 -0.347656 L 187.214844 109.195312 Z M 157.476562 98.328125 "/>
<path style=" stroke:none;fill-rule:nonzero;fill:rgb(39.99939%,39.99939%,39.99939%);fill-opacity:0.3;" d="M 175.839844 -26.738281 L 200.191406 -16.238281 L 176.433594 41.8125 L 153.234375 33.558594 Z M 175.839844 -26.738281 "/>
<path style=" stroke:none;fill-rule:nonzero;fill:rgb(39.99939%,39.99939%,39.99939%);fill-opacity:0.3;" d="M 237.75 1.097656 L 260.695312 11 L 240.007812 64.355469 L 215.261719 55.242188 Z M 237.75 1.097656 "/>
<path style=" stroke:none;fill-rule:nonzero;fill:rgb(39.99939%,39.99939%,39.99939%);fill-opacity:0.3;" d="M 263.898438 12.289062 L 287.519531 21.9375 L 267.089844 74.246094 L 243.148438 65.53125 Z M 263.898438 12.289062 "/>
<path style=" stroke:none;fill-rule:nonzero;fill:rgb(39.99939%,39.99939%,39.99939%);fill-opacity:0.3;" d="M 26.542969 -31.621094 L 29.027344 -20.242188 L 31.171875 0.421875 Z M 26.542969 -31.621094 "/>
<g clip-path="url(#clip7)" clip-rule="nonzero">
<path style=" stroke:none;fill-rule:nonzero;fill:rgb(39.99939%,39.99939%,39.99939%);fill-opacity:0.3;" d="M 188.5625 316.261719 L 187.296875 316.144531 L 180.203125 385.367188 L 129.816406 377.6875 L 137.152344 306.882812 L 133.125 306.410156 L 130.207031 306.222656 L 122.332031 376.222656 L 91.757812 369.996094 L 86.644531 285.257812 L 91.820312 285.910156 L 76.339844 187.9375 L 79.34375 188.875 L 99.203125 190.488281 L 127.121094 194.246094 L 115.847656 291.414062 L 122.332031 292.011719 L 122.191406 292.972656 L 298.652344 312.097656 L 297.605469 354.722656 L 297.265625 361.269531 L 293.402344 404.878906 L 292.371094 410.375 L 242.53125 398.503906 L 247.445312 337.933594 L 244.933594 337.621094 L 242.207031 337.492188 L 241.632812 344.296875 L 219.472656 339.546875 L 219.335938 341.109375 L 219.207031 342.425781 L 241.453125 347.046875 L 236.648438 396.859375 L 185.367188 386.804688 L 190.496094 332.414062 L 189.121094 330.839844 L 190.15625 316.269531 Z M 188.5625 316.261719 "/>
</g>
<g clip-path="url(#clip8)" clip-rule="nonzero">
<path style=" stroke:none;fill-rule:nonzero;fill:rgb(39.99939%,39.99939%,39.99939%);fill-opacity:0.3;" d="M 342.878906 274.734375 L 355.476562 274.253906 L 358.335938 275.222656 L 359.105469 276.679688 L 352.984375 358.699219 L 352.085938 360.441406 L 349.441406 361.011719 L 332.167969 358.988281 L 330.476562 357.988281 L 330.050781 355.578125 L 336.539062 279.242188 L 336.960938 277.347656 L 338.652344 275.140625 Z M 342.878906 274.734375 "/>
</g>
<path style=" stroke:none;fill-rule:nonzero;fill:rgb(39.99939%,39.99939%,39.99939%);fill-opacity:0.3;" d="M 307.894531 274.867188 L 329.722656 274.648438 L 332.25 274.914062 L 334.027344 276.457031 L 334.285156 278.03125 L 326.671875 357.789062 L 324.347656 359.195312 L 316.4375 359.433594 L 308.003906 358.773438 L 305.894531 357.886719 L 304.488281 356.554688 L 303.316406 354.777344 L 303.714844 278.546875 L 304.457031 276.597656 L 306.140625 275.199219 Z M 307.894531 274.867188 "/>
<g clip-path="url(#clip9)" clip-rule="nonzero">
<path style=" stroke:none;fill-rule:nonzero;fill:rgb(39.99939%,39.99939%,39.99939%);fill-opacity:0.3;" d="M 362.328125 279.328125 L 362.980469 276.847656 L 364.191406 275.515625 L 365.3125 275.160156 L 383.625 275.234375 L 384.746094 275.855469 L 385.679688 276.917969 L 386.148438 278.511719 L 386.148438 279.753906 L 379.496094 361.378906 L 379.148438 363.25 L 378.523438 363.890625 L 377.210938 364.332031 L 357.367188 362.21875 L 356.617188 361.332031 L 356.382812 360.074219 Z M 362.328125 279.328125 "/>
</g>
<path style=" stroke:none;fill-rule:nonzero;fill:rgb(39.99939%,39.99939%,39.99939%);fill-opacity:0.3;" d="M -5.339844 127.214844 L 8.28125 128.640625 L 8.75 142.277344 L -4.722656 140.996094 Z M -5.339844 127.214844 "/>
<path style=" stroke:none;fill-rule:nonzero;fill:rgb(39.99939%,39.99939%,39.99939%);fill-opacity:0.3;" d="M -9.730469 81.527344 L -3.464844 73.714844 L 0.59375 76.648438 L -2.152344 80.074219 L -0.890625 80.984375 L 1.855469 77.558594 L 5.9375 80.511719 L -0.324219 88.324219 L -4.410156 85.371094 L -1.730469 82.03125 L -2.992188 81.121094 L -5.671875 84.460938 Z M -9.730469 81.527344 "/>
<path style=" stroke:none;fill-rule:nonzero;fill:rgb(39.99939%,39.99939%,39.99939%);fill-opacity:0.3;" d="M -106.121094 103.15625 L 27.941406 119.308594 L 25.984375 126.679688 L -106.527344 111.238281 Z M -106.121094 103.15625 "/>
<path style=" stroke:none;fill-rule:nonzero;fill:rgb(39.99939%,39.99939%,39.99939%);fill-opacity:0.3;" d="M 14.039062 129.847656 L 27.054688 131.496094 L 27.367188 143.839844 L 14.199219 142.417969 Z M 14.039062 129.847656 "/>
<path style=" stroke:none;fill-rule:nonzero;fill:rgb(39.99939%,39.99939%,39.99939%);fill-opacity:0.3;" d="M 2.996094 88.078125 L 9.257812 80.265625 L 13.316406 83.199219 L 10.570312 86.625 L 11.832031 87.535156 L 20.839844 76.300781 L 24.898438 79.234375 L 22.152344 82.660156 L 23.414062 83.570312 L 26.160156 80.144531 L 30.246094 83.097656 L 23.984375 90.910156 L 19.898438 87.957031 L 22.574219 84.617188 L 21.3125 83.707031 L 12.398438 94.875 L 8.316406 91.921875 L 10.992188 88.585938 L 9.730469 87.671875 L 7.054688 91.011719 Z M 2.996094 88.078125 "/>
<path style=" stroke:none;fill-rule:nonzero;fill:rgb(39.99939%,39.99939%,39.99939%);fill-opacity:0.3;" d="M 31.996094 84.578125 L 36.832031 87.863281 L 34.289062 91.082031 L 38.070312 93.550781 L 25.839844 109.542969 L 21.808594 106.976562 L 19.347656 109.785156 L 14.402344 106.558594 Z M 31.996094 84.578125 "/>
<path style=" stroke:none;fill-rule:nonzero;fill:rgb(39.99939%,39.99939%,39.99939%);fill-opacity:0.3;" d="M 40.484375 163.761719 L 40.652344 129.867188 L 41.101562 116.359375 L 48.839844 117.070312 L 59.546875 179.1875 L 39.777344 176.621094 Z M 40.484375 163.761719 "/>
<path style=" stroke:none;fill-rule:nonzero;fill:rgb(39.99939%,39.99939%,39.99939%);fill-opacity:0.3;" d="M 40.484375 163.761719 L 33.671875 163.546875 L 33.644531 129.910156 L 40.652344 129.867188 Z M 40.484375 163.761719 "/>
<path style=" stroke:none;fill-rule:nonzero;fill:rgb(39.99939%,39.99939%,39.99939%);fill-opacity:0.3;" d="M -30.761719 167.8125 L -29.882812 160.210938 L 33.039062 167.695312 L 32.40625 175.578125 Z M -30.761719 167.8125 "/>
<path style=" stroke:none;fill-rule:nonzero;fill:rgb(39.99939%,39.99939%,39.99939%);fill-opacity:0.3;" d="M 14.667969 159.355469 L 14.636719 145.515625 L 27.519531 146.710938 L 27.683594 159.921875 Z M 14.667969 159.355469 "/>
<path style=" stroke:none;fill-rule:nonzero;fill:rgb(39.99939%,39.99939%,39.99939%);fill-opacity:0.3;" d="M -4.265625 146.308594 L 8.90625 147.445312 L 8.761719 157.78125 L -4.101562 156.5 Z M -4.265625 146.308594 "/>
<path style=" stroke:none;fill-rule:nonzero;fill:rgb(39.99939%,39.99939%,39.99939%);fill-opacity:0.3;" d="M -104.222656 98.351562 L -115.496094 98.183594 L -120.296875 60.804688 L -120.808594 56.824219 L -120.339844 53.929688 L -119.363281 51.148438 L -117.898438 48.363281 L -98.832031 23.492188 L -81.890625 33.710938 L -64.804688 44.359375 L -55.609375 49.753906 L -46.066406 55.144531 L -34.378906 58.40625 L -18.492188 60.667969 L 7.703125 63.683594 L 39.769531 66.644531 L 40.765625 72.191406 L 48.984375 116.820312 L 41 116.117188 L 29.835938 114.503906 Z M -104.222656 98.351562 "/>
<path style=" stroke:none;fill-rule:nonzero;fill:rgb(39.99939%,39.99939%,39.99939%);fill-opacity:0.3;" d="M 13.191406 216.230469 L 36.929688 220.085938 L 40.300781 280.097656 L 16.523438 281.035156 Z M 13.191406 216.230469 "/>
<path style=" stroke:none;fill-rule:nonzero;fill:rgb(39.99939%,39.99939%,39.99939%);fill-opacity:0.3;" d="M -113.933594 161.046875 L 62.007812 183.910156 L 66.394531 199.433594 L 68.699219 209.597656 L 75.117188 253.40625 L 75.195312 254.371094 L 74.511719 254.371094 L 76.414062 278.664062 L 44.878906 279.917969 L 40.5 217.660156 L 10.394531 212.597656 L 12.9375 281.175781 L -12.375 282.191406 L -16.148438 210.683594 L -48.632812 205.125 L -46.003906 283.535156 L -73.414062 284.597656 L -77.917969 201.199219 L -111.605469 197.355469 Z M -113.933594 161.046875 "/>
<path style=" stroke:none;fill-rule:nonzero;fill:rgb(39.99939%,39.99939%,39.99939%);fill-opacity:0.3;" d="M -17.992188 -37.097656 L -1.105469 -58.613281 L 6.839844 4.011719 L -12.546875 6.125 Z M -17.992188 -37.097656 "/>
<path style=" stroke:none;fill-rule:nonzero;fill:rgb(39.99939%,39.99939%,39.99939%);fill-opacity:0.3;" d="M -12.269531 9.460938 L 7.214844 7.3125 L 14.589844 55.511719 L -6.488281 53.359375 Z M -12.269531 9.460938 "/>
<path style=" stroke:none;fill-rule:nonzero;fill:rgb(39.99939%,39.99939%,39.99939%);fill-opacity:0.3;" d="M 12.042969 6.785156 L 31.136719 4.144531 L 39.734375 58.863281 L 19.921875 55.023438 Z M 12.042969 6.785156 "/>
<path style=" stroke:none;fill-rule:nonzero;fill:rgb(39.99939%,39.99939%,39.99939%);fill-opacity:0.3;" d="M 31.207031 0.757812 L 11.070312 3.410156 L 0.0976562 -76.304688 L -2.515625 -79.3125 L -9.429688 -83.378906 L -14.285156 -86.5625 L -1.980469 -104.105469 L 12.214844 -97.210938 L 26.542969 -31.621094 L 31.171875 0.421875 Z M 31.207031 0.757812 "/>
<path style="fill-rule:nonzero;fill:rgb(39.99939%,39.99939%,39.99939%);fill-opacity:1;stroke-width:0.03;stroke-linecap:square;stroke-linejoin:miter;stroke:rgb(39.99939%,39.99939%,39.99939%);stroke-opacity:1;stroke-miterlimit:3.239307;" d="M 244.585938 150.347656 L 253.480469 123.082031 L 379.351562 166.816406 L 379.351562 200.960938 Z M 244.585938 150.347656 " transform="matrix(1,0,0,1,-74,-13)"/>
<path style="fill-rule:nonzero;fill:rgb(39.99939%,39.99939%,39.99939%);fill-opacity:1;stroke-width:0.03;stroke-linecap:square;stroke-linejoin:miter;stroke:rgb(39.99939%,39.99939%,39.99939%);stroke-opacity:1;stroke-miterlimit:3.239307;" d="M 127.558594 109.324219 L 125.429688 78.625 L 131.667969 78.90625 L 250.757812 122.066406 L 241.78125 149.488281 Z M 127.558594 109.324219 " transform="matrix(1,0,0,1,-74,-13)"/>
<path style="fill-rule:nonzero;fill:rgb(39.99939%,39.99939%,39.99939%);fill-opacity:1;stroke-width:0.03;stroke-linecap:square;stroke-linejoin:miter;stroke:rgb(39.99939%,39.99939%,39.99939%);stroke-opacity:1;stroke-miterlimit:3.239307;" d="M 164.65625 127.417969 L 187.855469 135.730469 L 202.9375 203.777344 L 177.644531 200.476562 Z M 164.65625 127.417969 " transform="matrix(1,0,0,1,-74,-13)"/>
<path style="fill-rule:nonzero;fill:rgb(39.99939%,39.99939%,39.99939%);fill-opacity:1;stroke-width:0.03;stroke-linecap:square;stroke-linejoin:miter;stroke:rgb(39.99939%,39.99939%,39.99939%);stroke-opacity:1;stroke-miterlimit:3.239307;" d="M 150.339844 200.9375 L 150.203125 200.074219 L 276.871094 216.191406 L 248.445312 308.726562 L 196.609375 303.164062 L 196.398438 304.566406 L 196.332031 305.011719 L 189.847656 304.414062 L 201.121094 207.246094 L 173.203125 203.488281 L 153.34375 201.875 Z M 150.339844 200.9375 " transform="matrix(1,0,0,1,-74,-13)"/>
<path style="fill-rule:nonzero;fill:rgb(39.99939%,39.99939%,39.99939%);fill-opacity:1;stroke-width:0.03;stroke-linecap:square;stroke-linejoin:miter;stroke:rgb(39.99939%,39.99939%,39.99939%);stroke-opacity:1;stroke-miterlimit:3.239307;" d="M 269.949219 246.210938 L 295.410156 253.226562 L 277.414062 312.078125 L 250.753906 309 Z M 269.949219 246.210938 " transform="matrix(1,0,0,1,-74,-13)"/>
<path style="fill-rule:nonzero;fill:rgb(39.99939%,39.99939%,39.99939%);fill-opacity:1;stroke-width:0.03;stroke-linecap:square;stroke-linejoin:miter;stroke:rgb(39.99939%,39.99939%,39.99939%);stroke-opacity:1;stroke-miterlimit:3.239307;" d="M 286.324219 289.820312 L 354.703125 297.410156 L 354.722656 320.351562 L 280.140625 312.394531 Z M 286.324219 289.820312 " transform="matrix(1,0,0,1,-74,-13)"/>
<path style="fill-rule:nonzero;fill:rgb(39.99939%,39.99939%,39.99939%);fill-opacity:1;stroke-width:0.03;stroke-linecap:square;stroke-linejoin:miter;stroke:rgb(39.99939%,39.99939%,39.99939%);stroke-opacity:1;stroke-miterlimit:3.239307;" d="M 298.355469 254.113281 L 325.96875 260.125 L 326.460938 291.683594 L 288.390625 287.457031 Z M 298.355469 254.113281 " transform="matrix(1,0,0,1,-74,-13)"/>
<path style="fill-rule:nonzero;fill:rgb(39.99939%,39.99939%,39.99939%);fill-opacity:1;stroke-width:0.03;stroke-linecap:square;stroke-linejoin:miter;stroke:rgb(39.99939%,39.99939%,39.99939%);stroke-opacity:1;stroke-miterlimit:3.239307;" d="M 225.910156 206.765625 L 242.105469 154.59375 L 266.496094 163.015625 L 250.882812 210.039062 Z M 225.910156 206.765625 " transform="matrix(1,0,0,1,-74,-13)"/>
<path style="fill-rule:nonzero;fill:rgb(39.99939%,39.99939%,39.99939%);fill-opacity:1;stroke-width:0.03;stroke-linecap:square;stroke-linejoin:miter;stroke:rgb(39.99939%,39.99939%,39.99939%);stroke-opacity:1;stroke-miterlimit:3.239307;" d="M 254.898438 210.550781 L 269.828125 164.226562 L 289.25 171.011719 L 275.988281 213.308594 Z M 254.898438 210.550781 " transform="matrix(1,0,0,1,-74,-13)"/>
<path style="fill-rule:nonzero;fill:rgb(39.99939%,39.99939%,39.99939%);fill-opacity:1;stroke-width:0.03;stroke-linecap:square;stroke-linejoin:miter;stroke:rgb(39.99939%,39.99939%,39.99939%);stroke-opacity:1;stroke-miterlimit:3.239307;" d="M 292.761719 171.820312 L 318.710938 181.203125 L 296.261719 250.648438 L 271.03125 243.636719 Z M 292.761719 171.820312 " transform="matrix(1,0,0,1,-74,-13)"/>
<path style="fill-rule:nonzero;fill:rgb(39.99939%,39.99939%,39.99939%);fill-opacity:1;stroke-width:0.03;stroke-linecap:square;stroke-linejoin:miter;stroke:rgb(39.99939%,39.99939%,39.99939%);stroke-opacity:1;stroke-miterlimit:3.239307;" d="M 320.792969 182.050781 L 325.59375 184.011719 L 326.183594 257.234375 L 299.507812 251.421875 Z M 320.792969 182.050781 " transform="matrix(1,0,0,1,-74,-13)"/>
<path style="fill-rule:nonzero;fill:rgb(39.99939%,39.99939%,39.99939%);fill-opacity:1;stroke-width:0.03;stroke-linecap:square;stroke-linejoin:miter;stroke:rgb(39.99939%,39.99939%,39.99939%);stroke-opacity:1;stroke-miterlimit:3.239307;" d="M 328.351562 185.132812 L 353.195312 193.664062 L 354.964844 294.777344 L 329.042969 291.90625 Z M 328.351562 185.132812 " transform="matrix(1,0,0,1,-74,-13)"/>
<path style="fill-rule:nonzero;fill:rgb(39.99939%,39.99939%,39.99939%);fill-opacity:1;stroke-width:0.03;stroke-linecap:square;stroke-linejoin:miter;stroke:rgb(39.99939%,39.99939%,39.99939%);stroke-opacity:1;stroke-miterlimit:3.239307;" d="M 132.714844 116.242188 L 161.601562 126.347656 L 174.992188 200.070312 L 145.609375 196.296875 Z M 132.714844 116.242188 " transform="matrix(1,0,0,1,-74,-13)"/>
<path style="fill-rule:nonzero;fill:rgb(39.99939%,39.99939%,39.99939%);fill-opacity:1;stroke-width:0.03;stroke-linecap:square;stroke-linejoin:miter;stroke:rgb(39.99939%,39.99939%,39.99939%);stroke-opacity:1;stroke-miterlimit:3.239307;" d="M 222.371094 206.3125 L 206.3125 204.214844 L 190.773438 136.554688 L 238.355469 153.203125 Z M 222.371094 206.3125 " transform="matrix(1,0,0,1,-74,-13)"/>
<path style="fill-rule:nonzero;fill:rgb(39.99939%,39.99939%,39.99939%);fill-opacity:1;stroke-width:0.03;stroke-linecap:square;stroke-linejoin:miter;stroke:rgb(39.99939%,39.99939%,39.99939%);stroke-opacity:1;stroke-miterlimit:3.239307;" d="M 373.476562 285.53125 L 371.90625 285.539062 L 370.144531 321.570312 L 357.804688 320.460938 L 355.40625 194.378906 L 379.46875 203.46875 L 380.960938 230.328125 L 382.570312 259.855469 Z M 373.476562 285.53125 " transform="matrix(1,0,0,1,-74,-13)"/>
<g clip-path="url(#clip10)" clip-rule="nonzero">
<path style=" stroke:none;fill-rule:evenodd;fill:rgb(85.096741%,85.096741%,81.959534%);fill-opacity:0.7;" d="M 205.472656 371 C 205.472656 365.304688 203.210938 359.84375 199.183594 355.816406 C 195.15625 351.789062 189.695312 349.527344 184 349.527344 C 178.304688 349.527344 172.84375 351.789062 168.816406 355.816406 C 164.789062 359.84375 162.527344 365.304688 162.527344 371 C 162.527344 376.695312 164.789062 382.15625 168.816406 386.183594 C 172.84375 390.210938 178.304688 392.472656 184 392.472656 C 189.695312 392.472656 195.15625 390.210938 199.183594 386.183594 C 203.210938 382.15625 205.472656 376.695312 205.472656 371 Z M 205.472656 371 "/>
</g>
<path style=" stroke:none;fill-rule:evenodd;fill:rgb(85.096741%,85.096741%,81.959534%);fill-opacity:0.7;" d="M 310.472656 313 C 310.472656 307.304688 308.210938 301.84375 304.183594 297.816406 C 300.15625 293.789062 294.695312 291.527344 289 291.527344 C 283.304688 291.527344 277.84375 293.789062 273.816406 297.816406 C 269.789062 301.84375 267.527344 307.304688 267.527344 313 C 267.527344 318.695312 269.789062 324.15625 273.816406 328.183594 C 277.84375 332.210938 283.304688 334.472656 289 334.472656 C 294.695312 334.472656 300.15625 332.210938 304.183594 328.183594 C 308.210938 324.15625 310.472656 318.695312 310.472656 313 Z M 310.472656 313 "/>
<path style=" stroke:none;fill-rule:evenodd;fill:rgb(85.096741%,85.096741%,81.959534%);fill-opacity:0.7;" d="M 63.472656 26 C 63.472656 20.304688 61.210938 14.84375 57.183594 10.816406 C 53.15625 6.789062 47.695312 4.527344 42 4.527344 C 36.304688 4.527344 30.84375 6.789062 26.816406 10.816406 C 22.789062 14.84375 20.527344 20.304688 20.527344 26 C 20.527344 31.695312 22.789062 37.15625 26.816406 41.183594 C 30.84375 45.210938 36.304688 47.472656 42 47.472656 C 47.695312 47.472656 53.15625 45.210938 57.183594 41.183594 C 61.210938 37.15625 63.472656 31.695312 63.472656 26 Z M 63.472656 26 "/>
<g clip-path="url(#clip11)" clip-rule="nonzero">
<path style=" stroke:none;fill-rule:evenodd;fill:rgb(76.469421%,0.392151%,0%);fill-opacity:0.7;" d="M 405.945312 -34 C 405.945312 -45.390625 401.421875 -56.3125 393.367188 -64.367188 C 385.3125 -72.421875 374.390625 -76.945312 363 -76.945312 C 351.609375 -76.945312 340.6875 -72.421875 332.632812 -64.367188 C 324.578125 -56.3125 320.054688 -45.390625 320.054688 -34 C 320.054688 -22.609375 324.578125 -11.6875 332.632812 -3.632812 C 340.6875 4.421875 351.609375 8.945312 363 8.945312 C 374.390625 8.945312 385.3125 4.421875 393.367188 -3.632812 C 401.421875 -11.6875 405.945312 -22.609375 405.945312 -34 Z M 405.945312 -34 "/>
</g>
<g clip-path="url(#clip12)" clip-rule="nonzero">
<path style=" stroke:none;fill-rule:nonzero;fill:rgb(99.998474%,99.998474%,30.587769%);fill-opacity:0.8;" d="M 395.539062 105.667969 L 349.046875 186.191406 L 442.03125 186.191406 Z M 395.539062 105.667969 "/>
</g>
<g clip-path="url(#clip13)" clip-rule="nonzero">
<path style="fill:none;stroke-width:0.288;stroke-linecap:square;stroke-linejoin:miter;stroke:rgb(0%,0%,0%);stroke-opacity:0.8;stroke-miterlimit:3.25;" d="M 469.539062 118.667969 L 423.046875 199.191406 L 516.03125 199.191406 Z M 469.539062 118.667969 " transform="matrix(1,0,0,1,-74,-13)"/>
</g>
</g>
</svg>
