<?xml version="1.0" encoding="UTF-8"?>
<svg xmlns="http://www.w3.org/2000/svg" xmlns:xlink="http://www.w3.org/1999/xlink" width="361pt" height="361pt" viewBox="0 0 361 361" version="1.1">
<defs>
<clipPath id="clip1">
  <path d="M 185 334 L 360 334 L 360 360 L 185 360 Z M 185 334 "/>
</clipPath>
<clipPath id="clip2">
  <path d="M 314 166 L 360 166 L 360 360 L 314 360 Z M 314 166 "/>
</clipPath>
<clipPath id="clip3">
  <path d="M 201 97 L 360 97 L 360 360 L 201 360 Z M 201 97 "/>
</clipPath>
<clipPath id="clip4">
  <path d="M 233 89 L 360 89 L 360 138 L 233 138 Z M 233 89 "/>
</clipPath>
<clipPath id="clip5">
  <path d="M 285 0 L 360 0 L 360 39 L 285 39 Z M 285 0 "/>
</clipPath>
<clipPath id="clip6">
  <path d="M 354 13 L 360 13 L 360 63 L 354 63 Z M 354 13 "/>
</clipPath>
<clipPath id="clip7">
  <path d="M 233 16 L 360 16 L 360 168 L 233 168 Z M 233 16 "/>
</clipPath>
<clipPath id="clip8">
  <path d="M 0 175 L 176 175 L 176 360 L 0 360 Z M 0 175 "/>
</clipPath>
<clipPath id="clip9">
  <path d="M 278 335 L 348 335 L 348 360 L 278 360 Z M 278 335 "/>
</clipPath>
</defs>
<g id="surface1414">
<path style="fill-rule:nonzero;fill:rgb(0%,0%,0%);fill-opacity:1;stroke-width:0.03;stroke-linecap:square;stroke-linejoin:miter;stroke:rgb(0%,0%,0%);stroke-opacity:1;stroke-miterlimit:10;" d="M 0 178 L 360 178 L 360 -182 L 0 -182 Z M 0 178 " transform="matrix(1,0,0,1,0,182)"/>
<g clip-path="url(#clip1)" clip-rule="nonzero">
<path style=" stroke:none;fill-rule:nonzero;fill:rgb(39.99939%,39.99939%,39.99939%);fill-opacity:0.3;" d="M 297.945312 454.84375 L 295.039062 450.441406 L 185.109375 404.628906 L 192.804688 345.53125 L 195.796875 339.003906 L 198.339844 335.839844 L 202.578125 334.257812 L 207.292969 339.28125 L 318.78125 392.21875 L 365.082031 412.792969 L 476.582031 462.5625 L 426.589844 558.136719 L 353.890625 695.882812 L 330.132812 737.933594 L 320.507812 755.945312 L 313.464844 763.382812 L 309.402344 763.257812 L 292.785156 762.382812 L 270.953125 760.660156 L 203.855469 702.234375 L 225.097656 662.136719 L 226.480469 659.714844 L 227.84375 657.335938 L 243.765625 627.457031 L 244.390625 626.230469 L 245.09375 624.867188 L 263.789062 592.902344 L 264.429688 591.578125 L 265.164062 590.074219 L 282.34375 560.015625 L 283.070312 558.632812 L 283.71875 557.402344 L 305.214844 519.246094 L 305.769531 518.3125 L 306.5 517.089844 L 332.960938 469.160156 L 320.976562 464.28125 L 319.621094 463.722656 L 318.363281 463.207031 Z M 297.945312 454.84375 "/>
</g>
<path style=" stroke:none;fill-rule:nonzero;fill:rgb(39.99939%,39.99939%,39.99939%);fill-opacity:0.3;" d="M 192.339844 220.277344 L 192.660156 220.402344 L 182.558594 309.621094 L 180.09375 308.570312 L 192.21875 221.078125 Z M 192.339844 220.277344 "/>
<path style=" stroke:none;fill-rule:nonzero;fill:rgb(39.99939%,39.99939%,39.99939%);fill-opacity:0.3;" d="M 199.863281 170.132812 L 201.109375 170.5625 L 195.703125 214.929688 L 193.289062 213.964844 Z M 199.863281 170.132812 "/>
<g clip-path="url(#clip2)" clip-rule="nonzero">
<path style=" stroke:none;fill-rule:nonzero;fill:rgb(39.99939%,39.99939%,39.99939%);fill-opacity:0.3;" d="M 503.855469 258.257812 L 503.65625 255.507812 L 502.6875 253.121094 L 501.71875 252.203125 L 498.621094 251.289062 L 494.753906 252.027344 L 491.65625 253.496094 L 487.980469 253.683594 L 464.125 246.078125 L 456.871094 236.964844 L 463.179688 214.019531 L 478.695312 166.003906 L 581.972656 194.789062 L 585.828125 196.777344 L 591.433594 199.433594 L 596.34375 203.746094 L 595.648438 211.058594 L 594.601562 217.371094 L 593.207031 224.019531 L 592.867188 231.992188 L 591.121094 237.976562 L 543.996094 315.484375 L 483.660156 442.265625 L 314.671875 368.976562 L 320.269531 360.664062 L 325.515625 352.683594 L 326.910156 346.039062 L 326.90625 339.390625 L 328.652344 334.074219 L 332.5 330.75 L 338.808594 323.699219 L 344.757812 319.375 L 353.160156 312.390625 L 367.171875 289.449219 L 372.457031 280.710938 L 375.953125 274.0625 L 379.101562 269.40625 L 426.441406 279.417969 L 426.964844 277.472656 L 427.445312 275.679688 L 379.449219 265.417969 L 378.609375 251.492188 L 379.074219 241.164062 L 381.871094 234.183594 L 386.769531 228.859375 L 392.371094 227.195312 L 396.964844 227.710938 L 462.238281 248.566406 L 487.789062 256.621094 L 490.5 257.902344 L 493.40625 259.554688 L 495.535156 261.386719 L 498.4375 262.300781 L 500.953125 262.117188 L 503.082031 260.648438 Z M 503.855469 258.257812 "/>
</g>
<path style=" stroke:none;fill-rule:nonzero;fill:rgb(39.99939%,39.99939%,39.99939%);fill-opacity:0.3;" d="M 236.335938 90.800781 L 236.636719 90.296875 L 238.566406 90.78125 L 272.277344 101.101562 Z M 236.335938 90.800781 "/>
<g clip-path="url(#clip3)" clip-rule="nonzero">
<path style=" stroke:none;fill-rule:nonzero;fill:rgb(39.99939%,39.99939%,39.99939%);fill-opacity:0.3;" d="M 318.96875 121.8125 L 421.015625 150.273438 L 401.9375 205.773438 L 405.25 207.867188 L 405.472656 211.214844 L 404.8125 214.566406 L 403.933594 217.496094 L 402.390625 219.382812 L 399.300781 220.851562 L 394.886719 221.273438 L 389.8125 221.695312 L 383.953125 224.832031 L 380.738281 227.707031 L 377.171875 232.792969 L 374.859375 240.457031 L 374.167969 251.09375 L 373.828125 261.398438 L 373.238281 266.667969 L 372.25 271.375 L 369.476562 275.515625 L 368.089844 277.023438 L 366.023438 278.800781 L 273.65625 240.480469 L 269.15625 249.257812 L 271.613281 250.535156 L 275.628906 252.625 L 284.238281 248.972656 L 364.457031 282.003906 L 364.039062 286.066406 L 360.945312 291.121094 L 356.992188 294.546875 L 353.929688 297.75 L 352.246094 301.09375 L 350.101562 305.75 L 344.6875 311.714844 L 338.386719 315.375 L 334.785156 318.414062 L 328.238281 325.351562 L 322.289062 332 L 320.191406 335.660156 L 317.40625 351.941406 L 313.910156 358.589844 L 310.761719 363.910156 L 307.613281 366.570312 L 234.363281 331.675781 L 201.582031 317.011719 L 233.167969 97.886719 Z M 318.96875 121.8125 "/>
</g>
<path style=" stroke:none;fill-rule:nonzero;fill:rgb(39.99939%,39.99939%,39.99939%);fill-opacity:0.3;" d="M 210.652344 89.003906 L 214.722656 90.230469 L 201.476562 164.074219 L 200.726562 163.816406 Z M 210.652344 89.003906 "/>
<g clip-path="url(#clip4)" clip-rule="nonzero">
<path style=" stroke:none;fill-rule:nonzero;fill:rgb(39.99939%,39.99939%,39.99939%);fill-opacity:0.3;" d="M 391.363281 137.570312 L 233.253906 93.410156 L 233.960938 89.628906 L 238.566406 90.78125 Z M 391.363281 137.570312 "/>
</g>
<path style=" stroke:none;fill-rule:nonzero;fill:rgb(39.99939%,39.99939%,39.99939%);fill-opacity:0.3;" d="M 136.945312 290.210938 L 172.269531 212.371094 L 192.339844 220.277344 L 192.21875 221.078125 L 180.09375 308.570312 Z M 136.945312 290.210938 "/>
<path style=" stroke:none;fill-rule:nonzero;fill:rgb(39.99939%,39.99939%,39.99939%);fill-opacity:0.3;" d="M 91.296875 88.277344 L 54.453125 161.808594 L 51.429688 160.738281 L 89.207031 87.644531 Z M 91.296875 88.277344 "/>
<path style=" stroke:none;fill-rule:nonzero;fill:rgb(39.99939%,39.99939%,39.99939%);fill-opacity:0.3;" d="M 96.933594 89.941406 L 143.679688 104.292969 L 130.957031 141.074219 L 95.796875 128.996094 L 97.535156 121.117188 L 95.003906 120.246094 L 92.539062 119.398438 L 88.917969 131.894531 L 199.863281 170.132812 L 193.289062 213.964844 L 172.046875 205.46875 L 172.109375 205.335938 L 160.582031 200.886719 L 61.53125 161.269531 Z M 96.933594 89.941406 "/>
<path style=" stroke:none;fill-rule:nonzero;fill:rgb(39.99939%,39.99939%,39.99939%);fill-opacity:0.3;" d="M 148.839844 106.050781 L 175.273438 114.007812 L 178.832031 118.9375 L 171.695312 154.058594 L 136.457031 142.597656 Z M 148.839844 106.050781 "/>
<path style=" stroke:none;fill-rule:nonzero;fill:rgb(39.99939%,39.99939%,39.99939%);fill-opacity:0.3;" d="M 101.34375 56.078125 L 128.953125 64.394531 L 210.652344 89.003906 L 200.726562 163.816406 L 177.101562 155.765625 L 185.199219 112.453125 L 187.214844 111.058594 L 188.496094 108.097656 L 188.308594 104.269531 L 185.738281 101.664062 L 184.265625 101.386719 L 182.066406 100.96875 L 178.949219 101.496094 L 176.566406 103.757812 L 174.921875 108.285156 L 119.578125 91.507812 L 91.59375 83.027344 L 91.65625 82.910156 Z M 101.34375 56.078125 "/>
<path style=" stroke:none;fill-rule:nonzero;fill:rgb(39.99939%,39.99939%,39.99939%);fill-opacity:0.3;" d="M 210.933594 82.746094 L 210.671875 83.503906 L 102.828125 51.972656 L 103.023438 51.429688 L 197.46875 78.539062 Z M 210.933594 82.746094 "/>
<path style=" stroke:none;fill-rule:nonzero;fill:rgb(39.99939%,39.99939%,39.99939%);fill-opacity:0.3;" d="M -47.039062 7.390625 L -29.613281 -41.234375 L 13.941406 -28.476562 L -3.628906 19.988281 Z M -47.039062 7.390625 "/>
<path style=" stroke:none;fill-rule:nonzero;fill:rgb(39.99939%,39.99939%,39.99939%);fill-opacity:0.3;" d="M 1.492188 21.46875 L 18.695312 -26.980469 L 51.171875 -17.429688 L 36.113281 23.941406 L 24.660156 28.238281 Z M 1.492188 21.46875 "/>
<path style=" stroke:none;fill-rule:nonzero;fill:rgb(39.99939%,39.99939%,39.99939%);fill-opacity:0.3;" d="M 39.785156 23.964844 L 54.824219 -16.425781 L 89.628906 -7.136719 L 76.789062 32.191406 Z M 39.785156 23.964844 "/>
<path style=" stroke:none;fill-rule:nonzero;fill:rgb(39.99939%,39.99939%,39.99939%);fill-opacity:0.3;" d="M -66.410156 41.441406 L 7.054688 62.769531 L -62.46875 204.035156 L -129.605469 174.519531 Z M -66.410156 41.441406 "/>
<path style=" stroke:none;fill-rule:nonzero;fill:rgb(39.99939%,39.99939%,39.99939%);fill-opacity:0.3;" d="M 54.453125 161.808594 L 16.085938 238.375 L -16.574219 224.1875 L 53.054688 76.675781 L 89.207031 87.644531 L 51.429688 160.738281 Z M 54.453125 161.808594 "/>
<path style=" stroke:none;fill-rule:nonzero;fill:rgb(39.99939%,39.99939%,39.99939%);fill-opacity:0.3;" d="M -53.746094 207.863281 L 16.066406 65.453125 L 48.1875 75.195312 L -21.6875 221.980469 Z M -53.746094 207.863281 "/>
<path style=" stroke:none;fill-rule:nonzero;fill:rgb(39.99939%,39.99939%,39.99939%);fill-opacity:0.3;" d="M 98.703125 183.382812 L 128.207031 195.011719 L 91.714844 270.957031 L 61 257.894531 Z M 98.703125 183.382812 "/>
<path style=" stroke:none;fill-rule:nonzero;fill:rgb(39.99939%,39.99939%,39.99939%);fill-opacity:0.3;" d="M 93.023438 181.148438 L 56.132812 255.796875 L 19.785156 240.003906 L 58.441406 167.558594 Z M 93.023438 181.148438 "/>
<path style=" stroke:none;fill-rule:nonzero;fill:rgb(39.99939%,39.99939%,39.99939%);fill-opacity:0.3;" d="M 97.585938 273.460938 L 133.972656 197.28125 L 167.367188 210.394531 L 131.378906 287.816406 Z M 97.585938 273.460938 "/>
<path style=" stroke:none;fill-rule:nonzero;fill:rgb(39.99939%,39.99939%,39.99939%);fill-opacity:0.3;" d="M 172.046875 205.46875 L 160.582031 200.886719 L 172.109375 205.335938 Z M 172.046875 205.46875 "/>
<path style=" stroke:none;fill-rule:nonzero;fill:rgb(39.99939%,39.99939%,39.99939%);fill-opacity:0.3;" d="M -48.378906 11.453125 L 21.632812 32.058594 L 9.976562 58.5625 L -59.863281 38.152344 Z M -48.378906 11.453125 "/>
<path style=" stroke:none;fill-rule:nonzero;fill:rgb(39.99939%,39.99939%,39.99939%);fill-opacity:0.3;" d="M 73.339844 42.949219 L 73.335938 42.957031 L 72.847656 42.804688 Z M 73.339844 42.949219 "/>
<path style=" stroke:none;fill-rule:nonzero;fill:rgb(39.99939%,39.99939%,39.99939%);fill-opacity:0.3;" d="M 18.636719 60.910156 L 29.796875 34.523438 L 101.34375 56.078125 L 91.65625 82.910156 L 91.59375 83.027344 Z M 18.636719 60.910156 "/>
<path style=" stroke:none;fill-rule:nonzero;fill:rgb(39.99939%,39.99939%,39.99939%);fill-opacity:0.3;" d="M 102.828125 51.972656 L 77.707031 44.628906 L 77.839844 44.234375 L 103.023438 51.429688 Z M 102.828125 51.972656 "/>
<path style=" stroke:none;fill-rule:nonzero;fill:rgb(39.99939%,39.99939%,39.99939%);fill-opacity:0.3;" d="M 36.113281 23.941406 L 33.597656 30.847656 L 24.660156 28.238281 Z M 36.113281 23.941406 "/>
<path style=" stroke:none;fill-rule:nonzero;fill:rgb(39.99939%,39.99939%,39.99939%);fill-opacity:0.3;" d="M 36.835938 31.882812 L 39.785156 23.964844 L 76.789062 32.191406 L 89.628906 -7.136719 L 90.855469 -6.808594 L 73.339844 42.949219 L 72.847656 42.804688 Z M 36.835938 31.882812 "/>
<path style=" stroke:none;fill-rule:nonzero;fill:rgb(39.99939%,39.99939%,39.99939%);fill-opacity:0.3;" d="M 209.246094 62.507812 L 139.253906 43.628906 L 146.039062 25.257812 L 215.203125 43.835938 Z M 209.246094 62.507812 "/>
<path style=" stroke:none;fill-rule:nonzero;fill:rgb(39.99939%,39.99939%,39.99939%);fill-opacity:0.3;" d="M 147.175781 22.167969 L 153.328125 5.558594 L 195.027344 16.746094 L 189.542969 33.527344 Z M 147.175781 22.167969 "/>
<path style=" stroke:none;fill-rule:nonzero;fill:rgb(39.99939%,39.99939%,39.99939%);fill-opacity:0.3;" d="M 236.636719 90.296875 L 244.308594 77.527344 L 333.042969 103.074219 L 326.574219 116.667969 L 272.277344 101.101562 L 238.566406 90.78125 Z M 236.636719 90.296875 "/>
<g clip-path="url(#clip5)" clip-rule="nonzero">
<path style=" stroke:none;fill-rule:nonzero;fill:rgb(39.99939%,39.99939%,39.99939%);fill-opacity:0.3;" d="M 285.117188 -79.632812 L 353.394531 -76.554688 L 353.054688 -65.882812 L 355.050781 -65.820312 L 357.234375 -65.75 L 357.351562 -76.308594 L 412.179688 -74.609375 L 419.066406 9.855469 L 355.742188 29.851562 L 358.066406 -40.175781 L 354.980469 -40.324219 L 350.886719 -40.519531 L 347.832031 38.121094 L 299.628906 25.988281 L 297.886719 9.835938 L 311.085938 11.058594 L 311.402344 8.550781 L 311.75 5.777344 L 296.617188 4.355469 Z M 285.117188 -79.632812 "/>
</g>
<g clip-path="url(#clip6)" clip-rule="nonzero">
<path style=" stroke:none;fill-rule:nonzero;fill:rgb(39.99939%,39.99939%,39.99939%);fill-opacity:0.3;" d="M 419.058594 13.90625 L 424.886719 62.355469 L 358.125 41.386719 L 355.230469 39.558594 L 354.378906 36.296875 L 354.855469 33.886719 L 355.914062 32.578125 L 375.699219 26.742188 L 387.984375 22.84375 L 405.085938 17.574219 Z M 419.058594 13.90625 "/>
</g>
<path style=" stroke:none;fill-rule:nonzero;fill:rgb(39.99939%,39.99939%,39.99939%);fill-opacity:0.3;" d="M -240.652344 -286.667969 L -257.417969 -291.574219 L -247.648438 -316.691406 L -148.175781 -341.46875 L -136.550781 -344.746094 L -131.816406 -347.203125 L -126.65625 -351.289062 L -112.890625 -366.824219 L -99.121094 -378.683594 L -89.65625 -383.59375 L -76.738281 -387.28125 L -70.070312 -386.796875 L -69.25 -385.8125 L -59.632812 -382.316406 L -52.636719 -384.066406 L -50.351562 -385.371094 L -49.707031 -385.324219 L 17.789062 -379.738281 L 18.199219 -379.691406 L 68.917969 -375.320312 L 71.222656 -375.320312 L 136.90625 -369.886719 L 157.722656 -188.757812 L 157.902344 -186.980469 L 163.769531 -128.617188 L 174.183594 -8.199219 L 175.945312 -8.546875 L 177.320312 -8.8125 L 168.125 -126.980469 L 193.21875 -120.851562 L 204.964844 -39.011719 L 210.195312 -2.5625 L 211.558594 -2.636719 L 212.730469 -2.699219 L 208.4375 -36.535156 L 227.414062 -36.78125 L 221.917969 6.785156 L 209.855469 5.046875 L 207.488281 15.382812 L 201.472656 14.183594 L 149.457031 0.5625 L 132.328125 46.902344 L 215.578125 69.167969 L 210.933594 82.746094 L 197.46875 78.539062 L 103.023438 51.429688 L 77.839844 44.234375 L 95.050781 -6.230469 L 95.046875 -8.78125 L 93.148438 -10.128906 L 90.832031 -10.800781 L 102.410156 -43.804688 L 24.652344 -67.398438 L 27.925781 -75.773438 L 29.796875 -80.558594 L 78.945312 -206.328125 L 74.054688 -207.78125 L -235.117188 -299.511719 Z M -240.652344 -286.667969 "/>
<g clip-path="url(#clip7)" clip-rule="nonzero">
<path style=" stroke:none;fill-rule:nonzero;fill:rgb(39.99939%,39.99939%,39.99939%);fill-opacity:0.3;" d="M 359.648438 48.585938 L 491.753906 86.3125 L 501.570312 167.417969 L 398.539062 139.574219 L 391.363281 137.570312 L 238.566406 90.78125 L 233.960938 89.628906 L 244.242188 34.628906 L 248.183594 16.8125 L 254.730469 18.40625 L 252.417969 28.820312 L 356.800781 57.992188 Z M 359.648438 48.585938 "/>
</g>
<path style=" stroke:none;fill-rule:nonzero;fill:rgb(39.99939%,39.99939%,39.99939%);fill-opacity:0.3;" d="M 250.488281 33.171875 L 340.015625 58.367188 L 339.933594 68.253906 L 249.53125 43.328125 Z M 250.488281 33.171875 "/>
<path style=" stroke:none;fill-rule:nonzero;fill:rgb(39.99939%,39.99939%,39.99939%);fill-opacity:0.3;" d="M 248.691406 45.617188 L 339.96875 70.722656 L 336.507812 84.664062 L 246.804688 59.042969 Z M 248.691406 45.617188 "/>
<path style=" stroke:none;fill-rule:nonzero;fill:rgb(39.99939%,39.99939%,39.99939%);fill-opacity:0.3;" d="M 245.304688 77.128906 L 247.671875 62.914062 L 335.410156 87.890625 L 330.894531 99.878906 Z M 245.304688 77.128906 "/>
<path style=" stroke:none;fill-rule:nonzero;fill:rgb(39.99939%,39.99939%,39.99939%);fill-opacity:0.3;" d="M 359.632812 48.554688 L 356.800781 57.992188 L 252.417969 28.820312 L 254.730469 18.40625 L 248.1875 16.8125 L 249.867188 7.800781 L 255.988281 9.996094 L 271.816406 11.585938 L 272.039062 10.019531 L 272.238281 8.78125 L 256.75 7.710938 L 249.652344 5.199219 L 254.324219 -33.992188 L 287.601562 -32.628906 L 288.722656 28.238281 Z M 359.632812 48.554688 "/>
<g clip-path="url(#clip8)" clip-rule="nonzero">
<path style=" stroke:none;fill-rule:nonzero;fill:rgb(39.99939%,39.99939%,39.99939%);fill-opacity:0.3;" d="M 175.507812 314.085938 L 175.429688 374.003906 L 134.398438 645.792969 L -73.21875 469.761719 L -281.046875 293.558594 L -137.597656 175.964844 L 56.257812 261.125 L 164.140625 308.519531 Z M 175.507812 314.085938 "/>
</g>
<path style="fill-rule:nonzero;fill:rgb(39.99939%,39.99939%,39.99939%);fill-opacity:1;stroke-width:0.03;stroke-linecap:square;stroke-linejoin:miter;stroke:rgb(39.99939%,39.99939%,39.99939%);stroke-opacity:1;stroke-miterlimit:3.239307;" d="M 210.945312 303.210938 L 246.269531 225.371094 L 266.339844 233.277344 L 266.21875 234.078125 L 254.09375 321.570312 Z M 210.945312 303.210938 " transform="matrix(1,0,0,1,-74,-13)"/>
<path style="fill-rule:nonzero;fill:rgb(39.99939%,39.99939%,39.99939%);fill-opacity:1;stroke-width:0.03;stroke-linecap:square;stroke-linejoin:miter;stroke:rgb(39.99939%,39.99939%,39.99939%);stroke-opacity:1;stroke-miterlimit:3.239307;" d="M 165.296875 101.277344 L 128.453125 174.808594 L 125.429688 173.738281 L 163.207031 100.644531 Z M 165.296875 101.277344 " transform="matrix(1,0,0,1,-74,-13)"/>
<path style="fill-rule:nonzero;fill:rgb(39.99939%,39.99939%,39.99939%);fill-opacity:1;stroke-width:0.03;stroke-linecap:square;stroke-linejoin:miter;stroke:rgb(39.99939%,39.99939%,39.99939%);stroke-opacity:1;stroke-miterlimit:3.239307;" d="M 170.933594 102.941406 L 217.679688 117.292969 L 204.957031 154.074219 L 169.796875 141.996094 L 171.535156 134.117188 L 169.003906 133.246094 L 166.539062 132.398438 L 162.917969 144.894531 L 273.863281 183.132812 L 267.289062 226.964844 L 246.046875 218.46875 L 246.109375 218.335938 L 234.582031 213.886719 L 135.53125 174.269531 Z M 170.933594 102.941406 " transform="matrix(1,0,0,1,-74,-13)"/>
<path style="fill-rule:nonzero;fill:rgb(39.99939%,39.99939%,39.99939%);fill-opacity:1;stroke-width:0.03;stroke-linecap:square;stroke-linejoin:miter;stroke:rgb(39.99939%,39.99939%,39.99939%);stroke-opacity:1;stroke-miterlimit:3.239307;" d="M 222.839844 119.050781 L 249.273438 127.007812 L 252.832031 131.9375 L 245.695312 167.058594 L 210.457031 155.597656 Z M 222.839844 119.050781 " transform="matrix(1,0,0,1,-74,-13)"/>
<path style="fill-rule:nonzero;fill:rgb(39.99939%,39.99939%,39.99939%);fill-opacity:1;stroke-width:0.03;stroke-linecap:square;stroke-linejoin:miter;stroke:rgb(39.99939%,39.99939%,39.99939%);stroke-opacity:1;stroke-miterlimit:3.239307;" d="M 175.34375 69.078125 L 202.953125 77.394531 L 284.652344 102.003906 L 274.726562 176.816406 L 251.101562 168.765625 L 259.199219 125.453125 L 261.214844 124.058594 L 262.496094 121.097656 L 262.308594 117.269531 L 259.738281 114.664062 L 258.265625 114.386719 L 256.066406 113.96875 L 252.949219 114.496094 L 250.566406 116.757812 L 248.921875 121.285156 L 193.578125 104.507812 L 165.59375 96.027344 L 165.65625 95.910156 Z M 175.34375 69.078125 " transform="matrix(1,0,0,1,-74,-13)"/>
<path style="fill-rule:nonzero;fill:rgb(39.99939%,39.99939%,39.99939%);fill-opacity:1;stroke-width:0.03;stroke-linecap:square;stroke-linejoin:miter;stroke:rgb(39.99939%,39.99939%,39.99939%);stroke-opacity:1;stroke-miterlimit:3.239307;" d="M 284.933594 95.746094 L 284.671875 96.503906 L 176.828125 64.972656 L 177.023438 64.429688 L 271.46875 91.539062 Z M 284.933594 95.746094 " transform="matrix(1,0,0,1,-74,-13)"/>
<g clip-path="url(#clip9)" clip-rule="nonzero">
<path style=" stroke:none;fill-rule:evenodd;fill:rgb(85.096741%,85.096741%,81.959534%);fill-opacity:0.7;" d="M 347.980469 370 C 347.980469 360.722656 344.292969 351.824219 337.734375 345.265625 C 331.175781 338.707031 322.277344 335.019531 313 335.019531 C 303.722656 335.019531 294.824219 338.707031 288.265625 345.265625 C 281.707031 351.824219 278.019531 360.722656 278.019531 370 C 278.019531 379.277344 281.707031 388.175781 288.265625 394.734375 C 294.824219 401.292969 303.722656 404.980469 313 404.980469 C 322.277344 404.980469 331.175781 401.292969 337.734375 394.734375 C 344.292969 388.175781 347.980469 379.277344 347.980469 370 Z M 347.980469 370 "/>
</g>
</g>
</svg>
