<?xml version="1.0" encoding="UTF-8"?>
<svg xmlns="http://www.w3.org/2000/svg" xmlns:xlink="http://www.w3.org/1999/xlink" width="361pt" height="361pt" viewBox="0 0 361 361" version="1.1">
<defs>
<clipPath id="clip1">
  <path d="M 318 138 L 360 138 L 360 297 L 318 297 Z M 318 138 "/>
</clipPath>
<clipPath id="clip2">
  <path d="M 356 0 L 360 0 L 360 142 L 356 142 Z M 356 0 "/>
</clipPath>
<clipPath id="clip3">
  <path d="M 309 0 L 360 0 L 360 103 L 309 103 Z M 309 0 "/>
</clipPath>
<clipPath id="clip4">
  <path d="M 119 0 L 360 0 L 360 90 L 119 90 Z M 119 0 "/>
</clipPath>
<clipPath id="clip5">
  <path d="M 0 276 L 83 276 L 83 360 L 0 360 Z M 0 276 "/>
</clipPath>
<clipPath id="clip6">
  <path d="M 0 295 L 360 295 L 360 360 L 0 360 Z M 0 295 "/>
</clipPath>
<clipPath id="clip7">
  <path d="M 306 305 L 360 305 L 360 360 L 306 360 Z M 306 305 "/>
</clipPath>
<clipPath id="clip8">
  <path d="M 356 307 L 360 307 L 360 360 L 356 360 Z M 356 307 "/>
</clipPath>
<clipPath id="clip9">
  <path d="M 308 263 L 360 263 L 360 339 L 308 339 Z M 308 263 "/>
</clipPath>
</defs>
<g id="surface1764">
<path style="fill-rule:nonzero;fill:rgb(0%,0%,0%);fill-opacity:1;stroke-width:0.03;stroke-linecap:square;stroke-linejoin:miter;stroke:rgb(0%,0%,0%);stroke-opacity:1;stroke-miterlimit:10;" d="M 0 178 L 360 178 L 360 -182 L 0 -182 Z M 0 178 " transform="matrix(1,0,0,1,0,182)"/>
<path style=" stroke:none;fill-rule:nonzero;fill:rgb(39.99939%,39.99939%,39.99939%);fill-opacity:0.3;" d="M 281.929688 210.570312 L 317.039062 217.800781 L 298.261719 292.945312 L 261.097656 290.960938 L 268.078125 262.207031 Z M 281.929688 210.570312 "/>
<g clip-path="url(#clip1)" clip-rule="nonzero">
<path style=" stroke:none;fill-rule:nonzero;fill:rgb(39.99939%,39.99939%,39.99939%);fill-opacity:0.3;" d="M 355.15625 138.347656 L 399.335938 147.0625 L 363.28125 296.371094 L 318.023438 293.992188 Z M 355.15625 138.347656 "/>
</g>
<g clip-path="url(#clip2)" clip-rule="nonzero">
<path style=" stroke:none;fill-rule:nonzero;fill:rgb(39.99939%,39.99939%,39.99939%);fill-opacity:0.3;" d="M 392.972656 -20.8125 L 436.476562 -11.699219 L 398.738281 141.082031 L 356.664062 132.253906 Z M 392.972656 -20.8125 "/>
</g>
<g clip-path="url(#clip3)" clip-rule="nonzero">
<path style=" stroke:none;fill-rule:nonzero;fill:rgb(39.99939%,39.99939%,39.99939%);fill-opacity:0.3;" d="M 356.941406 -102.28125 L 395.394531 -93.453125 L 346.226562 102.027344 L 309.894531 94.0625 Z M 356.941406 -102.28125 "/>
</g>
<path style=" stroke:none;fill-rule:nonzero;fill:rgb(39.99939%,39.99939%,39.99939%);fill-opacity:0.3;" d="M 308.570312 99.578125 L 344.902344 107.34375 L 318.808594 211.339844 L 283.5 204.191406 Z M 308.570312 99.578125 "/>
<path style=" stroke:none;fill-rule:nonzero;fill:rgb(39.99939%,39.99939%,39.99939%);fill-opacity:0.3;" d="M 136.699219 181.113281 L 179.425781 189.925781 L 156.695312 285.464844 L 112.636719 283.078125 Z M 136.699219 181.113281 "/>
<path style=" stroke:none;fill-rule:nonzero;fill:rgb(39.99939%,39.99939%,39.99939%);fill-opacity:0.3;" d="M 163.261719 68.335938 L 206.1875 77.476562 L 180.886719 183.945312 L 138.089844 175.265625 Z M 163.261719 68.335938 "/>
<path style=" stroke:none;fill-rule:nonzero;fill:rgb(39.99939%,39.99939%,39.99939%);fill-opacity:0.3;" d="M 117.988281 56.625 L 157.714844 67.140625 L 131.71875 174.078125 L 87.113281 164.027344 Z M 117.988281 56.625 "/>
<path style=" stroke:none;fill-rule:nonzero;fill:rgb(39.99939%,39.99939%,39.99939%);fill-opacity:0.3;" d="M 84.394531 168.789062 L 130.324219 179.859375 L 105.222656 282.683594 L 51.429688 274.980469 Z M 84.394531 168.789062 "/>
<path style=" stroke:none;fill-rule:nonzero;fill:rgb(39.99939%,39.99939%,39.99939%);fill-opacity:0.3;" d="M 280.675781 210.3125 L 281.929688 210.570312 L 268.078125 262.207031 Z M 280.675781 210.3125 "/>
<path style=" stroke:none;fill-rule:nonzero;fill:rgb(39.99939%,39.99939%,39.99939%);fill-opacity:0.3;" d="M 233.550781 200.777344 L 273.460938 208.988281 L 253.351562 290.585938 L 213.113281 288.398438 Z M 233.550781 200.777344 "/>
<path style=" stroke:none;fill-rule:nonzero;fill:rgb(39.99939%,39.99939%,39.99939%);fill-opacity:0.3;" d="M 184.886719 190.917969 L 227.386719 199.519531 L 207.648438 288.148438 L 162.082031 285.734375 Z M 184.886719 190.917969 "/>
<path style=" stroke:none;fill-rule:nonzero;fill:rgb(39.99939%,39.99939%,39.99939%);fill-opacity:0.3;" d="M 307.660156 99.382812 L 308.570312 99.578125 L 283.5 204.191406 L 282.210938 203.933594 Z M 307.660156 99.382812 "/>
<path style=" stroke:none;fill-rule:nonzero;fill:rgb(39.99939%,39.99939%,39.99939%);fill-opacity:0.3;" d="M 259.449219 89.035156 L 300.996094 97.964844 L 275.066406 202.609375 L 234.875 194.664062 Z M 259.449219 89.035156 "/>
<path style=" stroke:none;fill-rule:nonzero;fill:rgb(39.99939%,39.99939%,39.99939%);fill-opacity:0.3;" d="M 211.988281 78.734375 L 252.234375 87.496094 L 228.640625 193.410156 L 186.351562 184.9375 Z M 211.988281 78.734375 "/>
<path style=" stroke:none;fill-rule:nonzero;fill:rgb(39.99939%,39.99939%,39.99939%);fill-opacity:0.3;" d="M 109.9375 297.042969 L 236.429688 305.878906 L 233.082031 306.714844 L 212.652344 308.570312 L 161.582031 303.929688 Z M 109.9375 297.042969 "/>
<g clip-path="url(#clip4)" clip-rule="nonzero">
<path style=" stroke:none;fill-rule:nonzero;fill:rgb(39.99939%,39.99939%,39.99939%);fill-opacity:0.3;" d="M 119.410156 46.957031 L 177.445312 -153.90625 L 180.324219 -155.960938 L 296.230469 -126.230469 L 256.707031 20.945312 L 261.9375 22.648438 L 267.167969 24.355469 L 308.347656 -131.132812 L 188.769531 -164.210938 L 199.070312 -170.433594 L 209.867188 -176.132812 L 231.105469 -187.636719 L 254.96875 -197.5625 L 277.917969 -202.472656 L 301.730469 -203.71875 L 372.605469 -196.894531 L 304.527344 89.351562 Z M 119.410156 46.957031 "/>
</g>
<path style=" stroke:none;fill-rule:nonzero;fill:rgb(39.99939%,39.99939%,39.99939%);fill-opacity:0.3;" d="M -50.671875 162.867188 L 72.285156 174.777344 L 42.976562 273.746094 L -59.515625 260.089844 Z M -50.671875 162.867188 "/>
<path style=" stroke:none;fill-rule:nonzero;fill:rgb(39.99939%,39.99939%,39.99939%);fill-opacity:0.3;" d="M 356.554688 -102.371094 L 356.941406 -102.28125 L 309.894531 94.0625 L 309.003906 93.867188 Z M 356.554688 -102.371094 "/>
<path style=" stroke:none;fill-rule:nonzero;fill:rgb(39.99939%,39.99939%,39.99939%);fill-opacity:0.3;" d="M 110.601562 45.027344 L 74.546875 170.921875 L 34.914062 166.582031 L -4.796875 161.34375 L -54.765625 156.230469 L -69.574219 163.890625 L -93.035156 158.03125 L -104.476562 186.503906 L -78.921875 210.269531 L -82.78125 259.617188 L -126.933594 252.328125 L -106.691406 195.128906 L -213.953125 177.214844 L -207.085938 122.523438 L -188.972656 -64.238281 L -183.015625 -118.320312 L -142.015625 -128.808594 L -145.632812 -67.785156 L -73.175781 -64.519531 L -64.429688 -135.074219 L -74.589844 -139.472656 L -73.910156 -142.496094 L -37.863281 -145.632812 L -7.34375 -144.554688 L 60.691406 -142.890625 L 81.679688 -142.511719 L 102.105469 -141.515625 L 129.503906 -143.9375 L 151.496094 -146.355469 L 170.234375 -151.503906 Z M 110.601562 45.027344 "/>
<g clip-path="url(#clip5)" clip-rule="nonzero">
<path style=" stroke:none;fill-rule:nonzero;fill:rgb(39.99939%,39.99939%,39.99939%);fill-opacity:0.3;" d="M -49.195312 459.207031 L -48 443.035156 L -51.679688 442.976562 L -55.074219 442.925781 L -56.140625 456.585938 L -81.40625 455.34375 L -78.914062 432.070312 L -75.480469 388.335938 L -50.027344 389.308594 L -50.933594 403.613281 L -48.339844 403.671875 L -45.75 403.726562 L -43.636719 370.246094 L -46.230469 370.1875 L -48.824219 370.132812 L -49.757812 385.261719 L -75.121094 383.808594 L -65.914062 276.070312 L -51.460938 277.425781 L -42.082031 279.054688 L -43.984375 325.273438 L -41.488281 325.484375 L -38.066406 325.769531 L -36.6875 279.585938 L 2.488281 285.738281 L -10.890625 436.148438 L -33.390625 509.910156 L -29.722656 510.910156 L -25.507812 512.054688 L -2.25 436.796875 L 12.089844 287.578125 L 58.363281 293.605469 L 46.238281 338.105469 L 49.363281 339.082031 L 52.914062 340.195312 L 66.769531 294.40625 L 82.652344 295.699219 L 48.722656 403.839844 L 34.253906 398.910156 L 52.066406 343.695312 L 48.515625 342.890625 L 44.96875 342.085938 L 17.371094 425.742188 L 20.976562 426.863281 L 24.636719 428 L 31.988281 404.296875 L 46.476562 409.296875 L 27.523438 474.976562 L 14.460938 470.953125 L 22.941406 442.132812 L 19.484375 441.042969 L 16.128906 439.988281 L -0.550781 495.742188 L 2.25 496.492188 L 5.046875 497.242188 L 12.605469 475.449219 L 26.429688 479.941406 L 8.574219 543.410156 L -5.484375 537.832031 L 2.777344 513.882812 L -0.953125 512.617188 L -4.230469 511.507812 L -20.070312 555.414062 L -16.679688 556.703125 L -13.285156 557.996094 L -6.820312 540.929688 L 7.730469 546.503906 L -15.078125 623.59375 L -23.25 630.875 L -51.617188 619.675781 L -46.457031 597.542969 L -49.011719 597.144531 L -51.566406 596.742188 L -56.714844 617.660156 L -94.175781 602.875 L -89.65625 546.398438 L -58.136719 546.621094 L -58.941406 556.285156 L -50.199219 556.691406 L -41.460938 557.097656 L -36.976562 520.695312 L -43.5 520.316406 L -42.699219 506.785156 L -52.671875 506.261719 L -61.578125 505.792969 L -64.265625 532.324219 L -56.929688 532.703125 L -57.738281 540.046875 L -89.152344 540.082031 L -89.125 539.78125 L -87.269531 519.351562 L -81.8125 459.335938 L -56.480469 460.898438 L -57.566406 474.8125 L -53.863281 474.953125 L -50.371094 475.085938 Z M -49.195312 459.207031 "/>
</g>
<g clip-path="url(#clip6)" clip-rule="nonzero">
<path style=" stroke:none;fill-rule:nonzero;fill:rgb(39.99939%,39.99939%,39.99939%);fill-opacity:0.3;" d="M 377.777344 748.101562 L 257.976562 717.847656 L 188.289062 697.980469 L -11.484375 636.195312 L 89.199219 295.59375 L 109.9375 297.042969 L 161.582031 303.929688 L 212.652344 308.570312 L 233.082031 306.714844 L 236.429688 305.878906 L 244.550781 306.445312 L 256.164062 305.515625 L 264.390625 303.667969 L 311.035156 305.351562 L 306.4375 325.285156 L 308.292969 329.929688 L 341.722656 333.640625 L 335.222656 339.214844 L 320.363281 439.496094 L 363.078125 444.140625 L 404.863281 448.78125 L 399.292969 467.355469 L 422.785156 469.09375 L 410.097656 548.035156 L 403.25 583.621094 Z M 377.777344 748.101562 "/>
</g>
<g clip-path="url(#clip7)" clip-rule="nonzero">
<path style=" stroke:none;fill-rule:nonzero;fill:rgb(39.99939%,39.99939%,39.99939%);fill-opacity:0.3;" d="M 311.035156 305.351562 L 314.78125 305.488281 L 358.457031 307.25 L 356.25 322.433594 L 442.121094 330.664062 L 423.613281 464.171875 L 422.859375 468.621094 L 422.785156 469.09375 L 399.292969 467.355469 L 404.863281 448.78125 L 363.078125 444.140625 L 320.363281 439.496094 L 335.222656 339.214844 L 341.722656 333.640625 L 308.292969 329.929688 L 306.4375 325.285156 Z M 311.035156 305.351562 "/>
</g>
<g clip-path="url(#clip8)" clip-rule="nonzero">
<path style=" stroke:none;fill-rule:nonzero;fill:rgb(39.99939%,39.99939%,39.99939%);fill-opacity:0.3;" d="M 358.789062 307.363281 L 467.476562 316.585938 L 461.511719 355.121094 L 447.214844 463.769531 L 425.609375 461.238281 L 442.703125 330.1875 L 356.792969 322.15625 Z M 358.789062 307.363281 "/>
</g>
<path style="fill-rule:nonzero;fill:rgb(39.99939%,39.99939%,39.99939%);fill-opacity:1;stroke-width:0.03;stroke-linecap:square;stroke-linejoin:miter;stroke:rgb(39.99939%,39.99939%,39.99939%);stroke-opacity:1;stroke-miterlimit:3.239307;" d="M 210.699219 194.113281 L 253.425781 202.925781 L 230.695312 298.464844 L 186.636719 296.078125 Z M 210.699219 194.113281 " transform="matrix(1,0,0,1,-74,-13)"/>
<path style="fill-rule:nonzero;fill:rgb(39.99939%,39.99939%,39.99939%);fill-opacity:1;stroke-width:0.03;stroke-linecap:square;stroke-linejoin:miter;stroke:rgb(39.99939%,39.99939%,39.99939%);stroke-opacity:1;stroke-miterlimit:3.239307;" d="M 237.261719 81.335938 L 280.1875 90.476562 L 254.886719 196.945312 L 212.089844 188.265625 Z M 237.261719 81.335938 " transform="matrix(1,0,0,1,-74,-13)"/>
<path style="fill-rule:nonzero;fill:rgb(39.99939%,39.99939%,39.99939%);fill-opacity:1;stroke-width:0.03;stroke-linecap:square;stroke-linejoin:miter;stroke:rgb(39.99939%,39.99939%,39.99939%);stroke-opacity:1;stroke-miterlimit:3.239307;" d="M 191.988281 69.625 L 231.714844 80.140625 L 205.71875 187.078125 L 161.113281 177.027344 Z M 191.988281 69.625 " transform="matrix(1,0,0,1,-74,-13)"/>
<path style="fill-rule:nonzero;fill:rgb(39.99939%,39.99939%,39.99939%);fill-opacity:1;stroke-width:0.03;stroke-linecap:square;stroke-linejoin:miter;stroke:rgb(39.99939%,39.99939%,39.99939%);stroke-opacity:1;stroke-miterlimit:3.239307;" d="M 158.394531 181.789062 L 204.324219 192.859375 L 179.222656 295.683594 L 125.429688 287.980469 Z M 158.394531 181.789062 " transform="matrix(1,0,0,1,-74,-13)"/>
<path style="fill-rule:nonzero;fill:rgb(39.99939%,39.99939%,39.99939%);fill-opacity:1;stroke-width:0.03;stroke-linecap:square;stroke-linejoin:miter;stroke:rgb(39.99939%,39.99939%,39.99939%);stroke-opacity:1;stroke-miterlimit:3.239307;" d="M 354.675781 223.3125 L 355.929688 223.570312 L 342.078125 275.207031 Z M 354.675781 223.3125 " transform="matrix(1,0,0,1,-74,-13)"/>
<path style="fill-rule:nonzero;fill:rgb(39.99939%,39.99939%,39.99939%);fill-opacity:1;stroke-width:0.03;stroke-linecap:square;stroke-linejoin:miter;stroke:rgb(39.99939%,39.99939%,39.99939%);stroke-opacity:1;stroke-miterlimit:3.239307;" d="M 307.550781 213.777344 L 347.460938 221.988281 L 327.351562 303.585938 L 287.113281 301.398438 Z M 307.550781 213.777344 " transform="matrix(1,0,0,1,-74,-13)"/>
<path style="fill-rule:nonzero;fill:rgb(39.99939%,39.99939%,39.99939%);fill-opacity:1;stroke-width:0.03;stroke-linecap:square;stroke-linejoin:miter;stroke:rgb(39.99939%,39.99939%,39.99939%);stroke-opacity:1;stroke-miterlimit:3.239307;" d="M 258.886719 203.917969 L 301.386719 212.519531 L 281.648438 301.148438 L 236.082031 298.734375 Z M 258.886719 203.917969 " transform="matrix(1,0,0,1,-74,-13)"/>
<path style="fill-rule:nonzero;fill:rgb(39.99939%,39.99939%,39.99939%);fill-opacity:1;stroke-width:0.03;stroke-linecap:square;stroke-linejoin:miter;stroke:rgb(39.99939%,39.99939%,39.99939%);stroke-opacity:1;stroke-miterlimit:3.239307;" d="M 381.660156 112.382812 L 382.570312 112.578125 L 357.5 217.191406 L 356.210938 216.933594 Z M 381.660156 112.382812 " transform="matrix(1,0,0,1,-74,-13)"/>
<path style="fill-rule:nonzero;fill:rgb(39.99939%,39.99939%,39.99939%);fill-opacity:1;stroke-width:0.03;stroke-linecap:square;stroke-linejoin:miter;stroke:rgb(39.99939%,39.99939%,39.99939%);stroke-opacity:1;stroke-miterlimit:3.239307;" d="M 333.449219 102.035156 L 374.996094 110.964844 L 349.066406 215.609375 L 308.875 207.664062 Z M 333.449219 102.035156 " transform="matrix(1,0,0,1,-74,-13)"/>
<path style="fill-rule:nonzero;fill:rgb(39.99939%,39.99939%,39.99939%);fill-opacity:1;stroke-width:0.03;stroke-linecap:square;stroke-linejoin:miter;stroke:rgb(39.99939%,39.99939%,39.99939%);stroke-opacity:1;stroke-miterlimit:3.239307;" d="M 285.988281 91.734375 L 326.234375 100.496094 L 302.640625 206.410156 L 260.351562 197.9375 Z M 285.988281 91.734375 " transform="matrix(1,0,0,1,-74,-13)"/>
<path style="fill-rule:nonzero;fill:rgb(39.99939%,39.99939%,39.99939%);fill-opacity:1;stroke-width:0.03;stroke-linecap:square;stroke-linejoin:miter;stroke:rgb(39.99939%,39.99939%,39.99939%);stroke-opacity:1;stroke-miterlimit:3.239307;" d="M 183.9375 310.042969 L 310.429688 318.878906 L 307.082031 319.714844 L 286.652344 321.570312 L 235.582031 316.929688 Z M 183.9375 310.042969 " transform="matrix(1,0,0,1,-74,-13)"/>
<g clip-path="url(#clip9)" clip-rule="nonzero">
<path style=" stroke:none;fill-rule:evenodd;fill:rgb(85.096741%,85.096741%,81.959534%);fill-opacity:0.7;" d="M 383.140625 301 C 383.140625 291.148438 379.230469 281.703125 372.261719 274.738281 C 365.296875 267.769531 355.851562 263.859375 346 263.859375 C 336.148438 263.859375 326.703125 267.769531 319.738281 274.738281 C 312.769531 281.703125 308.859375 291.148438 308.859375 301 C 308.859375 310.851562 312.769531 320.296875 319.738281 327.261719 C 326.703125 334.230469 336.148438 338.140625 346 338.140625 C 355.851562 338.140625 365.296875 334.230469 372.261719 327.261719 C 379.230469 320.296875 383.140625 310.851562 383.140625 301 Z M 383.140625 301 "/>
</g>
</g>
</svg>
