<?xml version="1.0" encoding="UTF-8"?>
<svg xmlns="http://www.w3.org/2000/svg" xmlns:xlink="http://www.w3.org/1999/xlink" width="361pt" height="361pt" viewBox="0 0 361 361" version="1.1">
<defs>
<clipPath id="clip1">
  <path d="M 329 113 L 360 113 L 360 223 L 329 223 Z M 329 113 "/>
</clipPath>
<clipPath id="clip2">
  <path d="M 284 0 L 360 0 L 360 62 L 284 62 Z M 284 0 "/>
</clipPath>
<clipPath id="clip3">
  <path d="M 343 53 L 360 53 L 360 83 L 343 83 Z M 343 53 "/>
</clipPath>
<clipPath id="clip4">
  <path d="M 343 101 L 360 101 L 360 168 L 343 168 Z M 343 101 "/>
</clipPath>
<clipPath id="clip5">
  <path d="M 259 83 L 360 83 L 360 195 L 259 195 Z M 259 83 "/>
</clipPath>
<clipPath id="clip6">
  <path d="M 326 246 L 360 246 L 360 325 L 326 325 Z M 326 246 "/>
</clipPath>
<clipPath id="clip7">
  <path d="M 260 319 L 360 319 L 360 360 L 260 360 Z M 260 319 "/>
</clipPath>
<clipPath id="clip8">
  <path d="M 290 200 L 360 200 L 360 316 L 290 316 Z M 290 200 "/>
</clipPath>
<clipPath id="clip9">
  <path d="M 350 336 L 360 336 L 360 360 L 350 360 Z M 350 336 "/>
</clipPath>
<clipPath id="clip10">
  <path d="M 0 301 L 23 301 L 23 360 L 0 360 Z M 0 301 "/>
</clipPath>
<clipPath id="clip11">
  <path d="M 13 273 L 282 273 L 282 360 L 13 360 Z M 13 273 "/>
</clipPath>
</defs>
<g id="surface616">
<path style="fill-rule:nonzero;fill:rgb(0%,0%,0%);fill-opacity:1;stroke-width:0.03;stroke-linecap:square;stroke-linejoin:miter;stroke:rgb(0%,0%,0%);stroke-opacity:1;stroke-miterlimit:10;" d="M 0 178 L 360 178 L 360 -182 L 0 -182 Z M 0 178 " transform="matrix(1,0,0,1,0,182)"/>
<path style=" stroke:none;fill-rule:nonzero;fill:rgb(39.99939%,39.99939%,39.99939%);fill-opacity:0.3;" d="M 105.832031 6.683594 L 100.710938 29.683594 L 68.144531 24.25 L 67.617188 25.976562 L 67.125 27.597656 L 99.984375 32.703125 L 88.757812 75.417969 L 53.296875 67.660156 L 52.480469 70.300781 L 52.023438 71.78125 L 88.320312 79.429688 L 77.730469 122.378906 L 42.496094 114.667969 L 44.582031 104.394531 L 35.613281 102.324219 L 26.640625 100.25 L 25.066406 107.535156 L 16.640625 106.109375 L 16.203125 108.671875 L 15.765625 111.230469 L 41.453125 118.164062 L 77.058594 125.804688 L 71.796875 145.886719 L 70.886719 146.460938 L 59.40625 144.527344 L -13.214844 127.929688 L -14.007812 125.777344 L 6.789062 32.214844 L 33.199219 39.199219 L 33.777344 37.171875 L 34.453125 34.8125 L 8.886719 27.429688 L 16.457031 -8.910156 Z M 105.832031 6.683594 "/>
<path style=" stroke:none;fill-rule:nonzero;fill:rgb(39.99939%,39.99939%,39.99939%);fill-opacity:0.3;" d="M -35.78125 -19.734375 L 12.035156 -9.585938 L 2.742188 26.835938 L -45.742188 16.730469 Z M -35.78125 -19.734375 "/>
<path style=" stroke:none;fill-rule:nonzero;fill:rgb(39.99939%,39.99939%,39.99939%);fill-opacity:0.3;" d="M -41.191406 21.085938 L 1.363281 30.109375 L -22.289062 128.753906 L -75.867188 118.355469 L -58.847656 98.542969 L -62.269531 98.171875 L -65.6875 97.800781 L -82.152344 116.386719 L -117.226562 108.9375 L -102.15625 38.121094 L -75.511719 50.945312 L -75.046875 49.1875 L -74.652344 47.679688 L -100.867188 34.035156 L -95.03125 8.417969 L -46.652344 19.824219 L -50.476562 33.5 L -47.339844 34.144531 L -45.195312 34.585938 Z M -41.191406 21.085938 "/>
<g clip-path="url(#clip1)" clip-rule="nonzero">
<path style=" stroke:none;fill-rule:nonzero;fill:rgb(39.99939%,39.99939%,39.99939%);fill-opacity:0.3;" d="M 375.519531 113.910156 L 439.824219 183.703125 L 444.753906 189.355469 L 449.871094 196.28125 L 451.933594 203.492188 L 451.9375 210.851562 L 448.691406 222.429688 L 358.761719 202.726562 L 362.898438 182.96875 L 360.253906 182.398438 L 357.613281 181.828125 L 353.285156 201.527344 L 329.039062 196.214844 L 333.179688 178.554688 L 332.101562 175.78125 L 333.636719 172.863281 L 346.285156 173.855469 L 347.539062 169.511719 L 360.933594 170.523438 L 365.632812 149.316406 L 392.886719 154.832031 L 393.230469 152.863281 L 393.578125 150.890625 L 366.425781 144.964844 Z M 375.519531 113.910156 "/>
</g>
<g clip-path="url(#clip2)" clip-rule="nonzero">
<path style=" stroke:none;fill-rule:nonzero;fill:rgb(39.99939%,39.99939%,39.99939%);fill-opacity:0.3;" d="M 393.160156 -41.820312 L 403.808594 -40.320312 L 405.144531 -29.761719 L 406.015625 -15.542969 L 407.738281 0.9375 L 413.800781 12.058594 L 417.761719 24.691406 L 419.347656 36.019531 L 417.21875 49.390625 L 412.636719 57.28125 L 400.597656 61.636719 L 394.003906 57.289062 L 381.292969 52.886719 L 369.601562 49.1875 L 355.3125 46.316406 L 342.753906 47.558594 L 331.078125 32.304688 L 310.347656 0.113281 L 295.261719 -29.226562 L 286.664062 -49.910156 L 284.097656 -63.140625 L 289.722656 -74.257812 L 295.769531 -81.65625 L 302.671875 -81.210938 L 306.515625 -87.558594 L 306.53125 -97.464844 L 308.929688 -102.890625 L 315.5625 -97.011719 L 326.78125 -95.171875 L 324.152344 -87.800781 L 329.8125 -85.03125 L 330.625 -86.625 L 326.960938 -88.296875 L 329.167969 -94.777344 L 381.730469 -86.148438 L 386.054688 -83.746094 L 385.863281 -81.582031 L 387.332031 -79.824219 L 398.539062 -74.367188 L 398.378906 -72.695312 L 396.785156 -64.953125 L 373.386719 -71 L 373.160156 -69.867188 L 372.929688 -68.734375 L 395.902344 -62.582031 L 389.914062 -40.65625 L 372.304688 -48.542969 L 371.714844 -47.457031 L 371.125 -46.375 L 390.292969 -37.640625 L 392.160156 -38.378906 Z M 393.160156 -41.820312 "/>
</g>
<path style=" stroke:none;fill-rule:nonzero;fill:rgb(39.99939%,39.99939%,39.99939%);fill-opacity:0.3;" d="M 278.207031 35.121094 L 289.304688 10.269531 L 279.949219 4.722656 L 286.449219 -13.152344 L 320.453125 39.941406 L 298.476562 74.039062 L 316.496094 81.28125 L 302.957031 106.359375 L 295.808594 105.5 L 294.066406 105.878906 L 284.523438 128.621094 L 270.847656 123.109375 L 270.015625 125.394531 L 258.953125 162.878906 L 256.550781 181.574219 L 80.304688 145.175781 L 114.816406 5.523438 L 159.359375 15.117188 L 148.761719 48.441406 L 151.046875 48.855469 L 153.332031 49.265625 L 163.523438 15.726562 L 195 21.523438 L 184.378906 56.753906 L 185.878906 56.882812 L 187.382812 57.011719 L 197.730469 22.039062 L 245.226562 31.855469 L 228.0625 75.117188 L 229.5625 75.503906 L 231.0625 75.894531 L 248.636719 32.132812 L 265.449219 36.167969 L 250.234375 76.316406 L 253.554688 77.058594 L 269.132812 37.050781 L 289.449219 41.929688 L 289.839844 40.59375 L 290.539062 38.5625 Z M 278.207031 35.121094 "/>
<path style=" stroke:none;fill-rule:nonzero;fill:rgb(39.99939%,39.99939%,39.99939%);fill-opacity:0.3;" d="M 323.507812 43.488281 L 347.914062 81.464844 L 326.269531 100.742188 L 319.527344 99.675781 L 312.085938 111.921875 L 305.714844 108.253906 L 319.714844 81.710938 L 319.855469 79.007812 L 303.929688 72.425781 Z M 323.507812 43.488281 "/>
<path style=" stroke:none;fill-rule:nonzero;fill:rgb(39.99939%,39.99939%,39.99939%);fill-opacity:0.3;" d="M 154.421875 -163.84375 L 183.375 -158.242188 L 196.515625 -155.410156 L 198.320312 -125.957031 L 198.191406 -113.613281 L 200.085938 -106.828125 L 222.089844 -88.507812 L 244.875 -75.945312 L 256.945312 -63.933594 L 281.871094 -18.144531 L 272.851562 5.792969 L 285.125 11.933594 L 275.5 34.453125 L 115.816406 3.265625 L 151.933594 -161.261719 Z M 154.421875 -163.84375 "/>
<g clip-path="url(#clip3)" clip-rule="nonzero">
<path style=" stroke:none;fill-rule:nonzero;fill:rgb(39.99939%,39.99939%,39.99939%);fill-opacity:0.3;" d="M 361.660156 55.546875 L 377.125 59.253906 L 376.515625 62.78125 L 371.023438 73.628906 L 365.109375 81.265625 L 361.472656 82.90625 L 347.582031 63.992188 L 344.027344 58.460938 L 343.292969 57.066406 L 343.414062 56.015625 L 343.90625 55.316406 L 344.761719 54.734375 L 346.351562 54.5 L 349.675781 53.734375 L 355.40625 53.730469 Z M 361.660156 55.546875 "/>
</g>
<g clip-path="url(#clip4)" clip-rule="nonzero">
<path style=" stroke:none;fill-rule:nonzero;fill:rgb(39.99939%,39.99939%,39.99939%);fill-opacity:0.3;" d="M 348.011719 127.507812 L 353.980469 110.980469 L 362.289062 101.253906 L 372.832031 112.222656 L 366.671875 133.882812 L 360.929688 155.894531 L 358.59375 167.066406 L 348.839844 165.003906 L 343.074219 153.644531 Z M 348.011719 127.507812 "/>
</g>
<g clip-path="url(#clip5)" clip-rule="nonzero">
<path style=" stroke:none;fill-rule:nonzero;fill:rgb(39.99939%,39.99939%,39.99939%);fill-opacity:0.3;" d="M 310.8125 120 L 312.136719 120.203125 L 313.621094 120.53125 L 314.605469 113.613281 L 321.421875 101.777344 L 328.78125 102.855469 L 350.289062 83.949219 L 360.570312 97.332031 L 350.898438 108.269531 L 344.949219 125.730469 L 339.527344 154.253906 L 342.191406 167.351562 L 336.617188 169 L 328.800781 170.988281 L 323.542969 194.550781 L 319.859375 194.101562 L 310.730469 192.390625 L 308.179688 191.890625 L 306.796875 190.277344 L 291.46875 187.644531 L 294.675781 170.691406 L 291.746094 170.113281 L 288.816406 169.53125 L 285.609375 186.640625 L 259.414062 182.144531 L 261.496094 164.140625 L 272.488281 126.472656 L 284.589844 131.757812 L 292.113281 135.042969 L 292.425781 133.855469 L 292.738281 132.671875 L 287.066406 130.15625 L 296.367188 107.863281 L 303.238281 109.695312 L 311.644531 114.234375 Z M 310.8125 120 "/>
</g>
<g clip-path="url(#clip6)" clip-rule="nonzero">
<path style=" stroke:none;fill-rule:nonzero;fill:rgb(39.99939%,39.99939%,39.99939%);fill-opacity:0.3;" d="M 374.90625 306.753906 L 373.25 307.457031 L 366.269531 305.011719 L 366.03125 305.675781 L 365.792969 306.335938 L 372.550781 308.660156 L 367.527344 324.988281 L 326.007812 316.226562 L 334.09375 285.386719 L 351.300781 287.085938 L 355.054688 277.613281 L 357.269531 272.230469 L 358.339844 266.210938 L 360.207031 259.371094 L 366.578125 250.324219 L 373.792969 246.304688 L 375.378906 246.054688 L 376.710938 246.585938 L 378.050781 248.589844 L 378.128906 252.253906 L 369.890625 286.683594 L 370.679688 286.894531 L 371.46875 287.101562 L 373.6875 278.160156 L 405.757812 287.09375 L 403.246094 297.878906 L 400.644531 310.875 Z M 374.90625 306.753906 "/>
</g>
<g clip-path="url(#clip7)" clip-rule="nonzero">
<path style=" stroke:none;fill-rule:nonzero;fill:rgb(39.99939%,39.99939%,39.99939%);fill-opacity:0.3;" d="M 374.011719 335.335938 L 369.492188 356.414062 L 343.082031 351.40625 L 342.671875 352.921875 L 342.238281 354.527344 L 368.851562 359.390625 L 365.652344 374.3125 L 352.003906 371.097656 L 352.914062 366.496094 L 347.515625 362.332031 L 342.449219 361.058594 L 337.386719 359.789062 L 335.441406 370.585938 L 343.085938 372.449219 L 357.132812 375.785156 L 364.726562 377.429688 L 357.144531 411.757812 L 335.355469 406.546875 L 335.597656 407.925781 L 335.855469 409.382812 L 356.460938 414.851562 L 352.996094 430.535156 L 352.078125 436.476562 L 346.3125 462.960938 L 298.066406 454.875 L 262.710938 449.367188 L 260.796875 445.359375 L 277.769531 373.988281 L 280.882812 356.882812 L 282.625 351.214844 L 283.480469 349.65625 L 297.84375 352.019531 L 298.160156 350.425781 L 298.476562 348.835938 L 283.878906 346.433594 L 282.898438 344.691406 L 286.449219 327.035156 L 287.632812 321.402344 L 288.820312 319.898438 L 298.320312 319.144531 Z M 374.011719 335.335938 "/>
</g>
<path style=" stroke:none;fill-rule:nonzero;fill:rgb(39.99939%,39.99939%,39.99939%);fill-opacity:0.3;" d="M 308.875 197.691406 L 303.351562 221.125 L 308.570312 197.632812 Z M 308.875 197.691406 "/>
<g clip-path="url(#clip8)" clip-rule="nonzero">
<path style=" stroke:none;fill-rule:nonzero;fill:rgb(39.99939%,39.99939%,39.99939%);fill-opacity:0.3;" d="M 315.882812 200.34375 L 447.503906 228.355469 L 442.917969 246.65625 L 423.914062 242.941406 L 400.253906 239.4375 L 387.179688 239.484375 L 372.0625 243.070312 L 364.144531 248.355469 L 357.679688 257.527344 L 355.035156 271.03125 L 354.117188 274.535156 L 353.03125 277.234375 L 349.890625 285.230469 L 332.945312 283.609375 L 324.464844 315.855469 L 290.777344 310.085938 L 302.867188 257.5 L 346.890625 267.910156 L 347.515625 265.699219 L 303.46875 255.257812 L 310.726562 226.304688 L 332.09375 227.757812 L 336.054688 213.839844 L 333.695312 213.65625 L 331.304688 213.472656 L 329.324219 223.253906 L 311.125 222.167969 Z M 315.882812 200.34375 "/>
</g>
<g clip-path="url(#clip9)" clip-rule="nonzero">
<path style=" stroke:none;fill-rule:nonzero;fill:rgb(39.99939%,39.99939%,39.99939%);fill-opacity:0.3;" d="M 443.804688 350.742188 L 440.796875 365.277344 L 437.429688 364.621094 L 437.289062 362.339844 L 422.914062 360.445312 L 422.914062 361.710938 L 433.613281 363.292969 L 433.617188 366.78125 L 437.628906 367.414062 L 437.960938 366.460938 L 439.96875 366.777344 L 434.148438 393.609375 L 411.953125 468.601562 L 403.023438 477.675781 L 377.519531 470.960938 L 380.648438 461.339844 L 378.554688 460.679688 L 376.457031 460.023438 L 373.105469 469.796875 L 352.015625 464.242188 L 350.171875 462.992188 L 354.582031 443.382812 L 377.820312 448.097656 L 377.988281 446.832031 L 378.152344 445.5625 L 355.25 440.847656 L 359.773438 420.9375 L 397.015625 428.078125 L 399.882812 416.71875 L 407.703125 418.53125 L 408.160156 416.480469 L 408.621094 414.429688 L 394.769531 411.117188 L 391.746094 422.78125 L 360.941406 417.496094 L 364.105469 401.707031 L 377.714844 337.878906 L 381.785156 336.4375 Z M 443.804688 350.742188 "/>
</g>
<g clip-path="url(#clip10)" clip-rule="nonzero">
<path style=" stroke:none;fill-rule:nonzero;fill:rgb(39.99939%,39.99939%,39.99939%);fill-opacity:0.3;" d="M 22.382812 341.269531 L 8.820312 395.117188 L -169.183594 357.019531 L -156.390625 301.222656 Z M 22.382812 341.269531 "/>
</g>
<path style=" stroke:none;fill-rule:nonzero;fill:rgb(39.99939%,39.99939%,39.99939%);fill-opacity:0.3;" d="M 67.351562 154.242188 L 54.152344 206.230469 L 9.28125 195.351562 L 8.640625 197.152344 L 8.050781 198.824219 L 53.070312 210.042969 L 41.574219 259.609375 L -41.117188 240.878906 L -15.945312 136.496094 Z M 67.351562 154.242188 "/>
<path style=" stroke:none;fill-rule:nonzero;fill:rgb(39.99939%,39.99939%,39.99939%);fill-opacity:0.3;" d="M -103.484375 240.984375 L 38.515625 271.859375 L 24.945312 330.597656 L -117.109375 300.011719 L -159.125 290.570312 L -152.25 262.269531 L -144.191406 232.28125 Z M -103.484375 240.984375 "/>
<path style=" stroke:none;fill-rule:nonzero;fill:rgb(39.99939%,39.99939%,39.99939%);fill-opacity:0.3;" d="M 70.886719 146.460938 L 70.082031 146.96875 L 59.40625 144.527344 Z M 70.886719 146.460938 "/>
<g clip-path="url(#clip11)" clip-rule="nonzero">
<path style=" stroke:none;fill-rule:nonzero;fill:rgb(39.99939%,39.99939%,39.99939%);fill-opacity:0.3;" d="M 281.734375 317.441406 L 275.152344 346.5625 L 256.039062 343.601562 L 246.761719 342.164062 L 246.519531 343.652344 L 246.328125 344.835938 L 255.746094 346.480469 L 252.25 359.71875 L 253.628906 359.976562 L 254.871094 360.210938 L 258.371094 346.875 L 274.671875 349.347656 L 251.496094 442.199219 L 235.355469 438.34375 L 237.472656 430.101562 L 236.21875 429.78125 L 234.964844 429.457031 L 232 440.503906 L 250.621094 444.945312 L 242.308594 475.996094 L 13.078125 429.859375 L 49.734375 273.214844 Z M 281.734375 317.441406 "/>
</g>
<path style=" stroke:none;fill-rule:nonzero;fill:rgb(39.99939%,39.99939%,39.99939%);fill-opacity:0.3;" d="M 129.933594 276.636719 L 51.253906 262.382812 L 51.429688 261.71875 Z M 129.933594 276.636719 "/>
<path style=" stroke:none;fill-rule:nonzero;fill:rgb(39.99939%,39.99939%,39.99939%);fill-opacity:0.3;" d="M 303.351562 221.125 L 300.226562 234.375 L 275.632812 229.222656 L 275 232.074219 L 274.367188 234.929688 L 298.914062 239.953125 L 296.335938 250.878906 L 160.308594 223.472656 L 164.957031 202.730469 L 191.984375 207.632812 L 192.21875 206.546875 L 192.457031 205.457031 L 165.578125 200.363281 L 172.582031 171.089844 L 308.570312 197.632812 Z M 303.351562 221.125 "/>
<path style=" stroke:none;fill-rule:nonzero;fill:rgb(39.99939%,39.99939%,39.99939%);fill-opacity:0.3;" d="M 168.945312 171.457031 L 156.332031 222.699219 L 65.578125 206.195312 L 76.765625 156.222656 Z M 168.945312 171.457031 "/>
<path style=" stroke:none;fill-rule:nonzero;fill:rgb(39.99939%,39.99939%,39.99939%);fill-opacity:0.3;" d="M 155.488281 226.863281 L 143.246094 279.046875 L 129.933594 276.636719 L 51.429688 261.71875 L 64.746094 210.832031 Z M 155.488281 226.863281 "/>
<path style=" stroke:none;fill-rule:nonzero;fill:rgb(39.99939%,39.99939%,39.99939%);fill-opacity:0.3;" d="M 224 241.816406 L 223.175781 255.613281 L 225.578125 255.625 L 227.976562 255.636719 L 229.148438 242.507812 L 294.28125 255.875 L 281.089844 308.570312 L 147.226562 279.398438 L 159.378906 227.496094 Z M 224 241.816406 "/>
<path style="fill-rule:nonzero;fill:rgb(39.99939%,39.99939%,39.99939%);fill-opacity:1;stroke-width:0.03;stroke-linecap:square;stroke-linejoin:miter;stroke:rgb(39.99939%,39.99939%,39.99939%);stroke-opacity:1;stroke-miterlimit:3.239307;" d="M 377.351562 234.125 L 374.226562 247.375 L 349.632812 242.222656 L 349 245.074219 L 348.367188 247.929688 L 372.914062 252.953125 L 370.335938 263.878906 L 234.308594 236.472656 L 238.957031 215.730469 L 265.984375 220.632812 L 266.21875 219.546875 L 266.457031 218.457031 L 239.578125 213.363281 L 246.582031 184.089844 L 382.570312 210.632812 Z M 377.351562 234.125 " transform="matrix(1,0,0,1,-74,-13)"/>
<path style="fill-rule:nonzero;fill:rgb(39.99939%,39.99939%,39.99939%);fill-opacity:1;stroke-width:0.03;stroke-linecap:square;stroke-linejoin:miter;stroke:rgb(39.99939%,39.99939%,39.99939%);stroke-opacity:1;stroke-miterlimit:3.239307;" d="M 242.945312 184.457031 L 230.332031 235.699219 L 139.578125 219.195312 L 150.765625 169.222656 Z M 242.945312 184.457031 " transform="matrix(1,0,0,1,-74,-13)"/>
<path style="fill-rule:nonzero;fill:rgb(39.99939%,39.99939%,39.99939%);fill-opacity:1;stroke-width:0.03;stroke-linecap:square;stroke-linejoin:miter;stroke:rgb(39.99939%,39.99939%,39.99939%);stroke-opacity:1;stroke-miterlimit:3.239307;" d="M 229.488281 239.863281 L 217.246094 292.046875 L 203.933594 289.636719 L 125.429688 274.71875 L 138.746094 223.832031 Z M 229.488281 239.863281 " transform="matrix(1,0,0,1,-74,-13)"/>
<path style="fill-rule:nonzero;fill:rgb(39.99939%,39.99939%,39.99939%);fill-opacity:1;stroke-width:0.03;stroke-linecap:square;stroke-linejoin:miter;stroke:rgb(39.99939%,39.99939%,39.99939%);stroke-opacity:1;stroke-miterlimit:3.239307;" d="M 298 254.816406 L 297.175781 268.613281 L 299.578125 268.625 L 301.976562 268.636719 L 303.148438 255.507812 L 368.28125 268.875 L 355.089844 321.570312 L 221.226562 292.398438 L 233.378906 240.496094 Z M 298 254.816406 " transform="matrix(1,0,0,1,-74,-13)"/>
<path style=" stroke:none;fill-rule:evenodd;fill:rgb(85.096741%,85.096741%,81.959534%);fill-opacity:0.7;" d="M 53.503906 -16 C 53.503906 -26.476562 49.339844 -36.523438 41.933594 -43.933594 C 34.523438 -51.339844 24.476562 -55.503906 14 -55.503906 C 3.523438 -55.503906 -6.523438 -51.339844 -13.933594 -43.933594 C -21.339844 -36.523438 -25.503906 -26.476562 -25.503906 -16 C -25.503906 -5.523438 -21.339844 4.523438 -13.933594 11.933594 C -6.523438 19.339844 3.523438 23.503906 14 23.503906 C 24.476562 23.503906 34.523438 19.339844 41.933594 11.933594 C 49.339844 4.523438 53.503906 -5.523438 53.503906 -16 Z M 53.503906 -16 "/>
</g>
</svg>
