<?xml version="1.0" encoding="UTF-8"?>
<svg xmlns="http://www.w3.org/2000/svg" xmlns:xlink="http://www.w3.org/1999/xlink" width="361pt" height="361pt" viewBox="0 0 361 361" version="1.1">
<defs>
<clipPath id="clip1">
  <path d="M 355 111 L 360 111 L 360 171 L 355 171 Z M 355 111 "/>
</clipPath>
<clipPath id="clip2">
  <path d="M 324 288 L 360 288 L 360 322 L 324 322 Z M 324 288 "/>
</clipPath>
<clipPath id="clip3">
  <path d="M 266 353 L 314 353 L 314 360 L 266 360 Z M 266 353 "/>
</clipPath>
<clipPath id="clip4">
  <path d="M 338 67 L 360 67 L 360 87 L 338 87 Z M 338 67 "/>
</clipPath>
<clipPath id="clip5">
  <path d="M 318 321 L 360 321 L 360 360 L 318 360 Z M 318 321 "/>
</clipPath>
<clipPath id="clip6">
  <path d="M 275 91 L 360 91 L 360 142 L 275 142 Z M 275 91 "/>
</clipPath>
<clipPath id="clip7">
  <path d="M 335 224 L 360 224 L 360 258 L 335 258 Z M 335 224 "/>
</clipPath>
<clipPath id="clip8">
  <path d="M 345 160 L 360 160 L 360 195 L 345 195 Z M 345 160 "/>
</clipPath>
<clipPath id="clip9">
  <path d="M 329 255 L 360 255 L 360 290 L 329 290 Z M 329 255 "/>
</clipPath>
<clipPath id="clip10">
  <path d="M 340 192 L 360 192 L 360 226 L 340 226 Z M 340 192 "/>
</clipPath>
<clipPath id="clip11">
  <path d="M 240 52 L 360 52 L 360 107 L 240 107 Z M 240 52 "/>
</clipPath>
<clipPath id="clip12">
  <path d="M 312 358 L 360 358 L 360 360 L 312 360 Z M 312 358 "/>
</clipPath>
<clipPath id="clip13">
  <path d="M 13 316 L 64 316 L 64 360 L 13 360 Z M 13 316 "/>
</clipPath>
<clipPath id="clip14">
  <path d="M 130 332 L 174 332 L 174 360 L 130 360 Z M 130 332 "/>
</clipPath>
<clipPath id="clip15">
  <path d="M 175 338 L 218 338 L 218 360 L 175 360 Z M 175 338 "/>
</clipPath>
<clipPath id="clip16">
  <path d="M 66 358 L 105 358 L 105 360 L 66 360 Z M 66 358 "/>
</clipPath>
<clipPath id="clip17">
  <path d="M 68 286 L 130 286 L 130 360 L 68 360 Z M 68 286 "/>
</clipPath>
<clipPath id="clip18">
  <path d="M 219 345 L 259 345 L 259 360 L 219 360 Z M 219 345 "/>
</clipPath>
<clipPath id="clip19">
  <path d="M 108 350 L 138 350 L 138 360 L 108 360 Z M 108 350 "/>
</clipPath>
</defs>
<g id="surface175">
<path style="fill-rule:nonzero;fill:rgb(0%,0%,0%);fill-opacity:1;stroke-width:0.03;stroke-linecap:square;stroke-linejoin:miter;stroke:rgb(0%,0%,0%);stroke-opacity:1;stroke-miterlimit:10;" d="M 0 178 L 360 178 L 360 -182 L 0 -182 Z M 0 178 " transform="matrix(1,0,0,1,0,182)"/>
<path style=" stroke:none;fill-rule:nonzero;fill:rgb(39.99939%,39.99939%,39.99939%);fill-opacity:0.3;" d="M -4.476562 174.199219 L 17.660156 176.535156 L 13.714844 203.003906 L -10.445312 198.847656 Z M -4.476562 174.199219 "/>
<path style=" stroke:none;fill-rule:nonzero;fill:rgb(39.99939%,39.99939%,39.99939%);fill-opacity:0.3;" d="M -1.574219 82.609375 L 13.660156 91.203125 L 12.3125 98.601562 L 5.023438 129.253906 L -0.21875 128.746094 L -4.707031 127.316406 Z M -1.574219 82.609375 "/>
<path style=" stroke:none;fill-rule:nonzero;fill:rgb(39.99939%,39.99939%,39.99939%);fill-opacity:0.3;" d="M 23.894531 152.601562 L 59.71875 157.136719 L 55.472656 179.410156 L 20.679688 176.003906 Z M 23.894531 152.601562 "/>
<path style=" stroke:none;fill-rule:nonzero;fill:rgb(39.99939%,39.99939%,39.99939%);fill-opacity:0.3;" d="M -0.140625 -65.457031 L 6.738281 -68.585938 L 11.980469 -68.496094 L 16.785156 -67.625 L 23.0625 -66.453125 L 31.785156 -63.5625 L 37.582031 -55.226562 L 63.136719 -48.164062 L 67.699219 -45.394531 L 83.804688 -41.066406 L 97.183594 -34.945312 L 93.808594 -29.511719 L 91.644531 -18.519531 L 89.921875 -12.398438 L 77.113281 -0.0703125 L 69.152344 -9.445312 L 68.375 -8.910156 L 67.59375 -8.375 L 75.46875 1.144531 L 73.59375 2.851562 L 71.851562 3.894531 L 69.242188 5.601562 L 67.230469 9.160156 L 61.019531 16.546875 L 45.621094 13.644531 L 35.515625 5.65625 L 34.5625 6.976562 L 33.613281 8.296875 L 45.246094 16.726562 L 58.667969 19.136719 L 53.714844 25.378906 L 42.992188 36.5625 L 37.996094 42.664062 L 33.605469 48.828125 L 30.492188 54.035156 L 28.480469 58.636719 L 26.074219 65.605469 L 24.863281 69.550781 L -2.390625 60.511719 L -4.179688 55.292969 L -2.621094 46.949219 L -3.6875 45.691406 L 1.917969 45.289062 L 4.613281 35.796875 L 1.5625 29.269531 L 0.746094 29.675781 L -0.0703125 30.078125 L 2.695312 36 L 0.355469 43.742188 L -8.082031 44.28125 L -13.253906 39.984375 L -21.023438 22.746094 L -15.613281 19.230469 L -12.296875 14.238281 L -9.019531 -5.832031 L -10.394531 -16.84375 L -5.253906 -18.296875 L -3.046875 -36.273438 L -2.863281 -48.628906 Z M -0.140625 -65.457031 "/>
<path style=" stroke:none;fill-rule:nonzero;fill:rgb(39.99939%,39.99939%,39.99939%);fill-opacity:0.3;" d="M 183.949219 91.078125 L 175.976562 93.78125 L 176.152344 80.816406 L 175.261719 80.878906 L 174.371094 80.9375 L 174.199219 94.277344 L 152.917969 100.445312 L 143.070312 100.179688 L 148.195312 78.878906 L 146.9375 78.878906 L 141.777344 100.0625 L 129.613281 98.988281 L 128.8125 94.046875 L 128.8125 83.390625 L 140.867188 39.601562 L 168.714844 44.972656 L 169.582031 53.648438 L 184.566406 58.679688 L 184.808594 62.933594 L 186.113281 63.238281 Z M 183.949219 91.078125 "/>
<path style=" stroke:none;fill-rule:nonzero;fill:rgb(39.99939%,39.99939%,39.99939%);fill-opacity:0.3;" d="M 227.402344 54.59375 L 227.632812 54.109375 L 229.476562 52.175781 L 231.21875 51.335938 L 233.160156 51.429688 L 229.8125 52.601562 Z M 227.402344 54.59375 "/>
<path style=" stroke:none;fill-rule:nonzero;fill:rgb(39.99939%,39.99939%,39.99939%);fill-opacity:0.3;" d="M 105.625 21.21875 L 106.140625 19.878906 L 99.664062 17.421875 L 94.007812 15.855469 L 86.707031 14.226562 L 90.992188 3.496094 L 93.492188 -7.757812 L 92.894531 -9.785156 L 94.167969 -19.789062 L 102.042969 -18.578125 L 103.085938 -16.601562 L 106.792969 -16.492188 L 107.316406 -12.730469 L 117.679688 -2.316406 L 119.1875 -5.722656 L 110.613281 -14.183594 L 110.5 -18.359375 L 105.171875 -19.238281 L 104.824219 -20.777344 L 97.410156 -22.09375 L 99.492188 -30.226562 L 100.304688 -31.328125 L 105.4375 -31.261719 L 110.65625 -31.917969 L 115.941406 -32.902344 L 120.226562 -36.164062 L 122.542969 -35.503906 L 123.933594 -35.832031 L 127.40625 -39.128906 L 129.027344 -39.679688 L 130.652344 -38.472656 L 150.160156 -29.929688 L 154.667969 -24.0625 L 163.453125 -23.847656 L 168.605469 -23.96875 L 175.429688 -25.316406 L 171.773438 -17.246094 L 168.695312 -13.296875 L 166.542969 -10.703125 L 166.003906 -7.359375 L 162.257812 2.523438 L 161.457031 3.105469 L 155.628906 3.003906 L 153.933594 3.285156 L 152.894531 4.496094 L 146.371094 13.902344 L 138.421875 36.679688 L 134.984375 46.457031 L 130.722656 62.089844 L 126.960938 82.730469 L 125.71875 93.550781 L 125.6875 98.445312 L 109.703125 97.015625 L 104.925781 94.414062 L 109.503906 78.492188 L 115.582031 59.527344 L 114.46875 59.453125 L 113.460938 59.382812 L 107.8125 78.027344 L 103.054688 93.636719 L 82.59375 87.761719 L 89.628906 72.945312 L 88.53125 72.453125 L 87.429688 71.957031 L 80.441406 86.980469 L 74.59375 84.890625 L 76.960938 74.359375 L 75.421875 74.023438 L 73.105469 84.398438 L 61.808594 81.085938 L 70.777344 52.773438 L 76.566406 54.945312 L 77.085938 53.734375 L 77.605469 52.527344 L 72.261719 50.023438 L 75.679688 40.398438 L 85.804688 16.1875 L 94.007812 18.804688 L 98.625 19.386719 L 105.105469 22.582031 Z M 105.625 21.21875 "/>
<path style=" stroke:none;fill-rule:nonzero;fill:rgb(39.99939%,39.99939%,39.99939%);fill-opacity:0.3;" d="M -10.925781 200.445312 L 13.269531 204.78125 L 6.625 249.988281 L -4.390625 247.640625 L -4.5625 248.476562 L -4.730469 249.3125 L 5.515625 251.519531 L 3.273438 268.046875 L 1.40625 269.472656 L -25.699219 255.078125 L -13.753906 211.40625 L -9.597656 212.253906 L -9.308594 211.066406 L -9.019531 209.882812 L -13.164062 208.972656 Z M -10.925781 200.445312 "/>
<path style=" stroke:none;fill-rule:nonzero;fill:rgb(39.99939%,39.99939%,39.99939%);fill-opacity:0.3;" d="M -19.578125 130.199219 L -17.195312 128.351562 L -14.933594 127.875 L -11.007812 127.546875 L -6.523438 128.167969 L 3.503906 132.25 L -0.09375 146.507812 L -13.980469 145.207031 L -18.238281 146.652344 L -22.347656 145.0625 L -22.957031 146.019531 L -23.5625 146.976562 L -17.90625 148.851562 L -13.328125 147.136719 L -0.722656 148.535156 L -3.246094 158.632812 L -9.53125 157.394531 L -9.726562 158.769531 L -3.691406 160.21875 L -13.3125 198.109375 L -42.558594 193.84375 L -42.738281 192.535156 L -27 183.769531 L -19.355469 174.660156 L -17.355469 174.273438 L -15.265625 171.8125 L -14.539062 170.691406 L -11.363281 161.347656 L -14.539062 161.347656 L -17.007812 170.167969 L -18.304688 172.066406 L -20.890625 173.070312 L -27.953125 181.890625 L -39.007812 187.882812 L -45.753906 191.816406 L -54.808594 189.46875 L -62.335938 186.773438 L -59.09375 182.296875 L -55.519531 177.40625 L -52.78125 174.230469 L -49.738281 170.476562 L -43.804688 159.214844 L -41.367188 156.039062 L -39.390625 154.59375 L -37.414062 153.871094 L -33.824219 152.910156 L -34.824219 159.503906 L -33.988281 159.71875 L -33.152344 159.9375 L -32.140625 152.941406 L -25.808594 155.457031 L -21.351562 155.34375 L -21.320312 154.511719 L -21.289062 153.683594 L -25.496094 153.742188 L -31.296875 151.449219 Z M -19.578125 130.199219 "/>
<path style=" stroke:none;fill-rule:nonzero;fill:rgb(39.99939%,39.99939%,39.99939%);fill-opacity:0.3;" d="M 20.527344 177.339844 L 34.84375 179.140625 L 30.738281 206.902344 L 16.402344 203.261719 Z M 20.527344 177.339844 "/>
<path style=" stroke:none;fill-rule:nonzero;fill:rgb(39.99939%,39.99939%,39.99939%);fill-opacity:0.3;" d="M 54.683594 80.640625 L 69.316406 85.671875 L 68.203125 92.769531 L 69.203125 92.863281 L 70.351562 85.988281 L 86.488281 91.25 L 85.609375 100.113281 L 84.6875 101.742188 L 83.03125 109.542969 L 86.59375 109.777344 L 86.714844 108.933594 L 86.839844 108.074219 L 84.742188 107.988281 L 85.824219 102.1875 L 87.019531 100.054688 L 87.753906 92.277344 L 105.203125 97.878906 L 101.128906 112.539062 L 95.066406 111.046875 L 94.792969 112.238281 L 94.464844 113.683594 L 100.597656 114.867188 L 98.214844 132.320312 L 59.152344 124.117188 L 56.921875 122.910156 L 32.347656 107.921875 L 32.886719 99.789062 L 40.738281 99.625 L 42.214844 99.210938 Z M 54.683594 80.640625 "/>
<path style=" stroke:none;fill-rule:nonzero;fill:rgb(39.99939%,39.99939%,39.99939%);fill-opacity:0.3;" d="M 99.882812 135.449219 L 135.414062 143.171875 L 134.234375 159.851562 L 96.699219 155.824219 L 97.523438 141.492188 L 98.9375 138.808594 Z M 99.882812 135.449219 "/>
<path style=" stroke:none;fill-rule:nonzero;fill:rgb(39.99939%,39.99939%,39.99939%);fill-opacity:0.3;" d="M 16.101562 205.285156 L 31.359375 209.574219 L 28.589844 224.089844 L 29.84375 224.269531 L 31.054688 224.445312 L 33.972656 210.140625 L 58.589844 216.484375 L 59.449219 217.625 L 58.648438 279.078125 L 32.222656 276.230469 L 11.410156 273.097656 L 4.640625 272.003906 Z M 16.101562 205.285156 "/>
<path style=" stroke:none;fill-rule:nonzero;fill:rgb(39.99939%,39.99939%,39.99939%);fill-opacity:0.3;" d="M 36.320312 179.828125 L 55.242188 181.355469 L 48.34375 211.59375 L 32.335938 207.957031 Z M 36.320312 179.828125 "/>
<path style=" stroke:none;fill-rule:nonzero;fill:rgb(39.99939%,39.99939%,39.99939%);fill-opacity:0.3;" d="M 135.078125 101.457031 L 153.613281 102.5 L 182.835938 94.019531 L 179.738281 142.980469 L 138.878906 141.246094 L 138.878906 136.089844 L 138.214844 125.273438 L 148.515625 124.644531 L 148.453125 124 L 148.390625 123.359375 L 138.070312 123.992188 L 137.0625 115.117188 L 136.292969 109.625 Z M 135.078125 101.457031 "/>
<path style=" stroke:none;fill-rule:nonzero;fill:rgb(39.99939%,39.99939%,39.99939%);fill-opacity:0.3;" d="M 108.023438 98.789062 L 118.25 99.796875 L 117.828125 106.722656 L 118.652344 106.691406 L 119.597656 106.65625 L 120.003906 99.972656 L 132.347656 101.15625 L 133.996094 109.632812 L 134.621094 114.453125 L 135.453125 121.007812 L 124.402344 118.652344 L 123.953125 120.121094 L 123.554688 121.425781 L 135.453125 123.808594 L 135.648438 126.871094 L 136.136719 135.871094 L 135.664062 139.671875 L 127.179688 138.433594 L 127.613281 133.476562 L 119.070312 131.957031 L 110.191406 130.378906 L 109.332031 134.511719 L 100.890625 133.210938 L 103.789062 113.886719 Z M 108.023438 98.789062 "/>
<path style=" stroke:none;fill-rule:nonzero;fill:rgb(39.99939%,39.99939%,39.99939%);fill-opacity:0.3;" d="M 2.027344 148.992188 L 21.085938 151.398438 L 17.960938 175.308594 L -3.625 172.769531 L 0.179688 156.765625 L 9.859375 157.042969 L 9.90625 159.707031 L 10.871094 159.691406 L 12.019531 159.671875 L 11.890625 155.3125 L 0.511719 155.148438 Z M 2.027344 148.992188 "/>
<path style=" stroke:none;fill-rule:nonzero;fill:rgb(39.99939%,39.99939%,39.99939%);fill-opacity:0.3;" d="M 16.046875 91.953125 L 29.679688 100.472656 L 22.59375 148.546875 L 2.847656 146.546875 L 14.15625 99.152344 Z M 16.046875 91.953125 "/>
<path style=" stroke:none;fill-rule:nonzero;fill:rgb(39.99939%,39.99939%,39.99939%);fill-opacity:0.3;" d="M 20.078125 77.664062 L 20.910156 77.941406 L 22.949219 71.449219 L 29.941406 73.582031 L 22.511719 93.007812 L -0.242188 78.921875 L -3.863281 74.011719 L 0.472656 63.621094 L 21.207031 70.886719 L 19.203125 77.371094 Z M 20.078125 77.664062 "/>
<path style=" stroke:none;fill-rule:nonzero;fill:rgb(39.99939%,39.99939%,39.99939%);fill-opacity:0.3;" d="M 32.101562 74.390625 L 51.976562 80.777344 L 40.386719 98.816406 L 30.289062 97.957031 L 24.566406 94.46875 Z M 32.101562 74.390625 "/>
<path style=" stroke:none;fill-rule:nonzero;fill:rgb(39.99939%,39.99939%,39.99939%);fill-opacity:0.3;" d="M 59.453125 126.515625 L 95.914062 134.007812 L 95.546875 138.355469 L 95.011719 145.3125 L 93.105469 157.277344 L 89.46875 156.925781 L 51.589844 151.757812 Z M 59.453125 126.515625 "/>
<path style=" stroke:none;fill-rule:nonzero;fill:rgb(39.99939%,39.99939%,39.99939%);fill-opacity:0.3;" d="M 61.78125 18.535156 L 71.074219 6.265625 L 76.875 2.171875 L 89.980469 -10.675781 L 91.09375 -7.953125 L 91.125 -5.957031 L 89.714844 -0.726562 L 88.6875 3.203125 L 73.40625 39.105469 L 68.261719 53.546875 L 58.878906 80.835938 L 46.90625 76.863281 L 49.417969 69.96875 L 48.839844 69.800781 L 48.140625 69.597656 L 45.605469 76.433594 L 26.445312 70.078125 L 27.859375 66.074219 L 30.078125 59.328125 L 32.582031 54.089844 L 35.703125 48.605469 L 39.691406 43.242188 L 44.558594 37.832031 L 54.65625 27.308594 L 60.335938 20.074219 L 69.308594 24.402344 L 69.847656 23.425781 L 70.25 22.703125 Z M 61.78125 18.535156 "/>
<path style=" stroke:none;fill-rule:nonzero;fill:rgb(39.99939%,39.99939%,39.99939%);fill-opacity:0.3;" d="M 31.28125 109.964844 L 33.335938 110.066406 L 57.425781 125.863281 L 49.027344 151.640625 L 24.839844 149.574219 Z M 31.28125 109.964844 "/>
<path style=" stroke:none;fill-rule:nonzero;fill:rgb(39.99939%,39.99939%,39.99939%);fill-opacity:0.3;" d="M 92.59375 160.878906 L 88.628906 213.644531 L 51.429688 211.941406 L 63.511719 157.929688 Z M 92.59375 160.878906 "/>
<path style=" stroke:none;fill-rule:nonzero;fill:rgb(39.99939%,39.99939%,39.99939%);fill-opacity:0.3;" d="M 213.097656 76.78125 L 211.886719 76.953125 L 212.296875 81.476562 L 194.386719 87.542969 L 194.589844 76.472656 L 193.445312 76.53125 L 192.300781 76.59375 L 191.914062 88.378906 L 183.949219 91.078125 L 186.113281 63.238281 L 219.53125 71.089844 L 227.402344 54.59375 L 229.8125 52.601562 L 233.160156 51.429688 L 235.589844 51.546875 L 232.289062 65.835938 L 230.261719 77.226562 L 214.679688 80.667969 L 214.3125 76.609375 Z M 213.097656 76.78125 "/>
<path style=" stroke:none;fill-rule:nonzero;fill:rgb(39.99939%,39.99939%,39.99939%);fill-opacity:0.3;" d="M 246.210938 261.410156 L 265.644531 261.855469 L 263.84375 307.382812 L 244.332031 304.6875 Z M 246.210938 261.410156 "/>
<path style=" stroke:none;fill-rule:nonzero;fill:rgb(39.99939%,39.99939%,39.99939%);fill-opacity:0.3;" d="M 93.125 256.3125 L 109.171875 256.828125 L 108.234375 285.917969 L 92.511719 283.746094 Z M 93.125 256.3125 "/>
<path style=" stroke:none;fill-rule:nonzero;fill:rgb(39.99939%,39.99939%,39.99939%);fill-opacity:0.3;" d="M 94.023438 218.398438 L 110.554688 219.074219 L 109.421875 253.148438 L 93.273438 252.628906 Z M 94.023438 218.398438 "/>
<path style=" stroke:none;fill-rule:nonzero;fill:rgb(39.99939%,39.99939%,39.99939%);fill-opacity:0.3;" d="M 112.984375 256.949219 L 131.21875 257.535156 L 130.289062 288.957031 L 111.925781 286.425781 Z M 112.984375 256.949219 "/>
<path style=" stroke:none;fill-rule:nonzero;fill:rgb(39.99939%,39.99939%,39.99939%);fill-opacity:0.3;" d="M 114.132812 219.222656 L 132.6875 220.03125 L 131.21875 253.847656 L 112.75 253.253906 Z M 114.132812 219.222656 "/>
<path style=" stroke:none;fill-rule:nonzero;fill:rgb(39.99939%,39.99939%,39.99939%);fill-opacity:0.3;" d="M 134.933594 257.65625 L 154.320312 258.277344 L 152.90625 292.078125 L 133.957031 289.464844 Z M 134.933594 257.65625 "/>
<path style=" stroke:none;fill-rule:nonzero;fill:rgb(39.99939%,39.99939%,39.99939%);fill-opacity:0.3;" d="M 136.609375 220.136719 L 155.019531 220.890625 L 154.242188 254.585938 L 134.925781 253.964844 Z M 136.609375 220.136719 "/>
<path style=" stroke:none;fill-rule:nonzero;fill:rgb(39.99939%,39.99939%,39.99939%);fill-opacity:0.3;" d="M 139.15625 164.730469 L 157.535156 166.367188 L 155.082031 216.355469 L 136.847656 215.609375 Z M 139.15625 164.730469 "/>
<path style=" stroke:none;fill-rule:nonzero;fill:rgb(39.99939%,39.99939%,39.99939%);fill-opacity:0.3;" d="M 157.878906 258.390625 L 175.632812 258.960938 L 174.476562 295.054688 L 156.273438 292.542969 Z M 157.878906 258.390625 "/>
<path style=" stroke:none;fill-rule:nonzero;fill:rgb(39.99939%,39.99939%,39.99939%);fill-opacity:0.3;" d="M 179.484375 259.085938 L 197.703125 259.402344 L 196.09375 298.035156 L 178.40625 295.59375 Z M 179.484375 259.085938 "/>
<path style=" stroke:none;fill-rule:nonzero;fill:rgb(39.99939%,39.99939%,39.99939%);fill-opacity:0.3;" d="M 202.324219 259.820312 L 220.695312 260.410156 L 219.367188 301.246094 L 200.863281 298.691406 Z M 202.324219 259.820312 "/>
<path style=" stroke:none;fill-rule:nonzero;fill:rgb(39.99939%,39.99939%,39.99939%);fill-opacity:0.3;" d="M 205.285156 170.535156 L 224.390625 172.324219 L 221.851562 219.023438 L 203.667969 218.484375 Z M 205.285156 170.535156 "/>
<path style=" stroke:none;fill-rule:nonzero;fill:rgb(39.99939%,39.99939%,39.99939%);fill-opacity:0.3;" d="M 224.253906 260.613281 L 242.269531 261.035156 L 240.945312 304.222656 L 222.949219 301.738281 Z M 224.253906 260.613281 "/>
<path style=" stroke:none;fill-rule:nonzero;fill:rgb(39.99939%,39.99939%,39.99939%);fill-opacity:0.3;" d="M 247.734375 224.675781 L 266.5625 225.441406 L 265.074219 258.148438 L 246.441406 257.550781 Z M 247.734375 224.675781 "/>
<path style=" stroke:none;fill-rule:nonzero;fill:rgb(39.99939%,39.99939%,39.99939%);fill-opacity:0.3;" d="M 225.703125 223.773438 L 244.152344 224.527344 L 242.632812 257.429688 L 224.179688 256.835938 Z M 225.703125 223.773438 "/>
<path style=" stroke:none;fill-rule:nonzero;fill:rgb(39.99939%,39.99939%,39.99939%);fill-opacity:0.3;" d="M 228.148438 172.65625 L 246.765625 174.316406 L 244.148438 219.992188 L 225.851562 219.242188 Z M 228.148438 172.65625 "/>
<path style=" stroke:none;fill-rule:nonzero;fill:rgb(39.99939%,39.99939%,39.99939%);fill-opacity:0.3;" d="M 161.023438 166.679688 L 179.71875 168.34375 L 177.644531 217.277344 L 158.703125 216.503906 Z M 161.023438 166.679688 "/>
<path style=" stroke:none;fill-rule:nonzero;fill:rgb(39.99939%,39.99939%,39.99939%);fill-opacity:0.3;" d="M 272.75 176.21875 L 291.316406 177.9375 L 286.171875 220.617188 L 270.445312 219.976562 Z M 272.75 176.21875 "/>
<path style=" stroke:none;fill-rule:nonzero;fill:rgb(39.99939%,39.99939%,39.99939%);fill-opacity:0.3;" d="M 268.785156 261.957031 L 280.285156 262.328125 L 272.46875 308.570312 L 267.214844 307.847656 Z M 268.785156 261.957031 "/>
<path style=" stroke:none;fill-rule:nonzero;fill:rgb(39.99939%,39.99939%,39.99939%);fill-opacity:0.3;" d="M 139.3125 144.324219 L 158.585938 144.851562 L 157.789062 161.28125 L 138.753906 159.519531 Z M 139.3125 144.324219 "/>
<path style=" stroke:none;fill-rule:nonzero;fill:rgb(39.99939%,39.99939%,39.99939%);fill-opacity:0.3;" d="M 161.261719 144.691406 L 180.3125 145.855469 L 179.132812 163.660156 L 160.953125 161.867188 Z M 161.261719 144.691406 "/>
<path style=" stroke:none;fill-rule:nonzero;fill:rgb(39.99939%,39.99939%,39.99939%);fill-opacity:0.3;" d="M 184.578125 145.800781 L 202.039062 146.816406 L 201.34375 166.132812 L 183.34375 163.5625 Z M 184.578125 145.800781 "/>
<path style=" stroke:none;fill-rule:nonzero;fill:rgb(39.99939%,39.99939%,39.99939%);fill-opacity:0.3;" d="M 206.179688 146.914062 L 223.835938 147.1875 L 224.164062 167.9375 L 206.457031 166.144531 Z M 206.179688 146.914062 "/>
<path style=" stroke:none;fill-rule:nonzero;fill:rgb(39.99939%,39.99939%,39.99939%);fill-opacity:0.3;" d="M 208.394531 110.25 L 226.523438 110.789062 L 225.425781 144.125 L 207.050781 143.421875 Z M 208.394531 110.25 "/>
<path style=" stroke:none;fill-rule:nonzero;fill:rgb(39.99939%,39.99939%,39.99939%);fill-opacity:0.3;" d="M 231.148438 80.449219 L 249.417969 82.042969 L 249.074219 108.171875 L 230.527344 107.625 Z M 231.148438 80.449219 "/>
<path style=" stroke:none;fill-rule:nonzero;fill:rgb(39.99939%,39.99939%,39.99939%);fill-opacity:0.3;" d="M 253.148438 82.75 L 271.230469 90.53125 L 270.765625 108.816406 L 252.742188 108.28125 Z M 253.148438 82.75 "/>
<path style=" stroke:none;fill-rule:nonzero;fill:rgb(39.99939%,39.99939%,39.99939%);fill-opacity:0.3;" d="M 186.917969 92.019531 L 191.796875 90.363281 L 205.234375 86.289062 L 204.351562 105.429688 L 186.144531 104.5 Z M 186.917969 92.019531 "/>
<path style=" stroke:none;fill-rule:nonzero;fill:rgb(39.99939%,39.99939%,39.99939%);fill-opacity:0.3;" d="M 97.851562 161.175781 L 132.980469 164.179688 L 131.816406 215.410156 L 94.210938 213.871094 Z M 97.851562 161.175781 "/>
<path style=" stroke:none;fill-rule:nonzero;fill:rgb(39.99939%,39.99939%,39.99939%);fill-opacity:0.3;" d="M 185.871094 109.585938 L 204 110.121094 L 202.175781 144.222656 L 183.667969 143.394531 Z M 185.871094 109.585938 "/>
<path style=" stroke:none;fill-rule:nonzero;fill:rgb(39.99939%,39.99939%,39.99939%);fill-opacity:0.3;" d="M 229.105469 147.835938 L 246.664062 148.207031 L 246.375 170.167969 L 228.078125 168.492188 Z M 229.105469 147.835938 "/>
<path style=" stroke:none;fill-rule:nonzero;fill:rgb(39.99939%,39.99939%,39.99939%);fill-opacity:0.3;" d="M 230.230469 110.898438 L 248.871094 111.453125 L 247.007812 145.386719 L 229.316406 144.65625 Z M 230.230469 110.898438 "/>
<path style=" stroke:none;fill-rule:nonzero;fill:rgb(39.99939%,39.99939%,39.99939%);fill-opacity:0.3;" d="M 208.953125 85.386719 L 216.035156 82.960938 L 227.605469 80.449219 L 226.628906 107.507812 L 207.785156 106.949219 Z M 208.953125 85.386719 "/>
<path style=" stroke:none;fill-rule:nonzero;fill:rgb(39.99939%,39.99939%,39.99939%);fill-opacity:0.3;" d="M 250.902344 148.519531 L 268.65625 149.070312 L 269.320312 171.21875 L 249.222656 169.746094 Z M 250.902344 148.519531 "/>
<path style=" stroke:none;fill-rule:nonzero;fill:rgb(39.99939%,39.99939%,39.99939%);fill-opacity:0.3;" d="M 252.691406 111.566406 L 271.304688 112.117188 L 269.824219 146.210938 L 251.359375 145.523438 Z M 252.691406 111.566406 "/>
<path style=" stroke:none;fill-rule:nonzero;fill:rgb(39.99939%,39.99939%,39.99939%);fill-opacity:0.3;" d="M 273.667969 149.175781 L 298.933594 150.285156 L 296.496094 169.769531 L 288.917969 172.996094 L 272.238281 171.535156 Z M 273.667969 149.175781 "/>
<path style=" stroke:none;fill-rule:nonzero;fill:rgb(39.99939%,39.99939%,39.99939%);fill-opacity:0.3;" d="M 275.183594 112.230469 L 304.285156 113.09375 L 299.003906 147.265625 L 273.117188 146.21875 Z M 275.183594 112.230469 "/>
<path style=" stroke:none;fill-rule:nonzero;fill:rgb(39.99939%,39.99939%,39.99939%);fill-opacity:0.3;" d="M 93.105469 157.277344 L 93.082031 157.421875 L 89.46875 156.925781 Z M 93.105469 157.277344 "/>
<path style=" stroke:none;fill-rule:nonzero;fill:rgb(39.99939%,39.99939%,39.99939%);fill-opacity:0.3;" d="M 272.878906 87.757812 L 255.074219 80.164062 L 241.851562 77.976562 L 242.761719 73.074219 L 240.863281 72.679688 L 238.832031 72.253906 L 237.789062 77.457031 L 232.492188 76.753906 L 234.242188 65.125 L 237.46875 51.878906 L 240.800781 52.964844 L 241.734375 53.683594 L 248.238281 58.378906 L 255.824219 63.4375 L 265.578125 70.300781 Z M 272.878906 87.757812 "/>
<path style=" stroke:none;fill-rule:nonzero;fill:rgb(39.99939%,39.99939%,39.99939%);fill-opacity:0.3;" d="M 250.320312 174.632812 L 269.007812 176.296875 L 266.621094 220.90625 L 247.71875 220.136719 Z M 250.320312 174.632812 "/>
<path style=" stroke:none;fill-rule:nonzero;fill:rgb(39.99939%,39.99939%,39.99939%);fill-opacity:0.3;" d="M 71.28125 255.609375 L 89.789062 256.203125 L 89.539062 283.335938 L 70.359375 280.691406 Z M 71.28125 255.609375 "/>
<path style=" stroke:none;fill-rule:nonzero;fill:rgb(39.99939%,39.99939%,39.99939%);fill-opacity:0.3;" d="M 72.773438 217.53125 L 90.503906 218.257812 L 89.824219 252.515625 L 71.359375 251.925781 Z M 72.773438 217.53125 "/>
<path style=" stroke:none;fill-rule:nonzero;fill:rgb(39.99939%,39.99939%,39.99939%);fill-opacity:0.3;" d="M 183.652344 168.695312 L 202.15625 170.34375 L 199.558594 218.171875 L 181.511719 217.433594 Z M 183.652344 168.695312 "/>
<path style=" stroke:none;fill-rule:nonzero;fill:rgb(39.99939%,39.99939%,39.99939%);fill-opacity:0.3;" d="M 158.871094 221.046875 L 177.53125 221.808594 L 175.90625 255.285156 L 157.71875 254.699219 Z M 158.871094 221.046875 "/>
<path style=" stroke:none;fill-rule:nonzero;fill:rgb(39.99939%,39.99939%,39.99939%);fill-opacity:0.3;" d="M 181.027344 221.949219 L 199.480469 222.703125 L 197.800781 255.988281 L 179.757812 255.40625 Z M 181.027344 221.949219 "/>
<path style=" stroke:none;fill-rule:nonzero;fill:rgb(39.99939%,39.99939%,39.99939%);fill-opacity:0.3;" d="M 203.621094 222.875 L 222.253906 223.632812 L 220.742188 256.722656 L 202.570312 256.140625 Z M 203.621094 222.875 "/>
<path style=" stroke:none;fill-rule:nonzero;fill:rgb(39.99939%,39.99939%,39.99939%);fill-opacity:0.3;" d="M 270.589844 225.605469 L 285.253906 226.207031 L 280.242188 258.636719 L 268.867188 258.574219 Z M 270.589844 225.605469 "/>
<g clip-path="url(#clip1)" clip-rule="nonzero">
<path style=" stroke:none;fill-rule:nonzero;fill:rgb(39.99939%,39.99939%,39.99939%);fill-opacity:0.3;" d="M 432.429688 123.386719 L 435.164062 123.566406 L 445.257812 124.019531 L 447.71875 143.976562 L 471.679688 140.449219 L 471.648438 139.683594 L 471.621094 138.289062 L 471.652344 137.71875 L 465.671875 137.355469 L 448.050781 135.867188 L 447.238281 124.1875 L 473.429688 125.03125 L 473.746094 126.238281 L 491.75 121.285156 L 490.308594 133.582031 L 474.582031 138.195312 L 474.703125 139.304688 L 474.828125 140.417969 L 489.914062 136.496094 L 485.648438 170.285156 L 441.644531 163.15625 L 443.671875 148.703125 L 442.539062 148.546875 L 441.410156 148.394531 L 439.128906 162.746094 L 373.25 152.074219 L 355.765625 143.972656 L 365.578125 111.511719 L 429.277344 123.164062 Z M 432.429688 123.386719 "/>
</g>
<g clip-path="url(#clip2)" clip-rule="nonzero">
<path style=" stroke:none;fill-rule:nonzero;fill:rgb(39.99939%,39.99939%,39.99939%);fill-opacity:0.3;" d="M 328.980469 288.65625 L 353.480469 292.585938 L 351.992188 303.246094 L 353.792969 303.585938 L 355.570312 303.925781 L 357.011719 293.195312 L 370.222656 294.632812 L 365.777344 321.78125 L 324.527344 316.023438 Z M 328.980469 288.65625 "/>
</g>
<g clip-path="url(#clip3)" clip-rule="nonzero">
<path style=" stroke:none;fill-rule:nonzero;fill:rgb(39.99939%,39.99939%,39.99939%);fill-opacity:0.3;" d="M 271.039062 353.167969 L 313.371094 358.316406 L 307.839844 389.769531 L 266.132812 383.238281 Z M 271.039062 353.167969 "/>
</g>
<g clip-path="url(#clip4)" clip-rule="nonzero">
<path style=" stroke:none;fill-rule:nonzero;fill:rgb(39.99939%,39.99939%,39.99939%);fill-opacity:0.3;" d="M 374.570312 76.15625 L 370.441406 86.800781 L 338.816406 77.765625 L 340.933594 67.019531 Z M 374.570312 76.15625 "/>
</g>
<g clip-path="url(#clip5)" clip-rule="nonzero">
<path style=" stroke:none;fill-rule:nonzero;fill:rgb(39.99939%,39.99939%,39.99939%);fill-opacity:0.3;" d="M 323.535156 321.960938 L 364.871094 327.730469 L 360.285156 360.492188 L 318.265625 354.816406 Z M 323.535156 321.960938 "/>
</g>
<path style=" stroke:none;fill-rule:nonzero;fill:rgb(39.99939%,39.99939%,39.99939%);fill-opacity:0.3;" d="M 308.894531 116.597656 L 338.441406 139.289062 L 338.578125 138.078125 L 341.710938 138.152344 L 352.679688 142.476562 L 351.675781 146.960938 L 349.855469 150.703125 L 348.796875 151.484375 L 336.835938 150.25 L 337.300781 147.578125 L 304.464844 145.453125 Z M 308.894531 116.597656 "/>
<g clip-path="url(#clip6)" clip-rule="nonzero">
<path style=" stroke:none;fill-rule:nonzero;fill:rgb(39.99939%,39.99939%,39.99939%);fill-opacity:0.3;" d="M 275.332031 91.589844 L 280.835938 93.128906 L 286.203125 93.402344 L 300.1875 92.804688 L 309.753906 93.5 L 363.007812 110.695312 L 355.609375 135.300781 L 352.90625 141.871094 L 336.851562 133.519531 L 305.71875 111.046875 L 303.464844 109.789062 L 275.195312 108.949219 Z M 275.332031 91.589844 "/>
</g>
<path style=" stroke:none;fill-rule:nonzero;fill:rgb(39.99939%,39.99939%,39.99939%);fill-opacity:0.3;" d="M 303.351562 284.941406 L 323.636719 287.882812 L 319.128906 315.269531 L 294.390625 311.59375 Z M 303.351562 284.941406 "/>
<path style=" stroke:none;fill-rule:nonzero;fill:rgb(39.99939%,39.99939%,39.99939%);fill-opacity:0.3;" d="M 282.320312 281.894531 L 298.3125 284.210938 L 289.675781 310.945312 L 278.160156 309.355469 Z M 282.320312 281.894531 "/>
<path style=" stroke:none;fill-rule:nonzero;fill:rgb(39.99939%,39.99939%,39.99939%);fill-opacity:0.3;" d="M 297.417969 185.574219 L 332.441406 190.480469 L 321.800781 217.363281 L 292.984375 213.21875 Z M 297.417969 185.574219 "/>
<g clip-path="url(#clip7)" clip-rule="nonzero">
<path style=" stroke:none;fill-rule:nonzero;fill:rgb(39.99939%,39.99939%,39.99939%);fill-opacity:0.3;" d="M 339.410156 224.339844 L 381.394531 230.378906 L 377.96875 257.800781 L 335.195312 251.628906 Z M 339.410156 224.339844 "/>
</g>
<g clip-path="url(#clip8)" clip-rule="nonzero">
<path style=" stroke:none;fill-rule:nonzero;fill:rgb(39.99939%,39.99939%,39.99939%);fill-opacity:0.3;" d="M 348.671875 166.160156 L 350.128906 160.601562 L 352.878906 160.292969 L 389.746094 165.5625 L 385.558594 194.664062 L 345.363281 189.03125 Z M 348.671875 166.160156 "/>
</g>
<path style=" stroke:none;fill-rule:nonzero;fill:rgb(39.99939%,39.99939%,39.99939%);fill-opacity:0.3;" d="M 277.484375 315.589844 L 319.351562 321.378906 L 314.191406 354.242188 L 271.992188 348.25 Z M 277.484375 315.589844 "/>
<path style=" stroke:none;fill-rule:nonzero;fill:rgb(39.99939%,39.99939%,39.99939%);fill-opacity:0.3;" d="M 303.59375 150.421875 L 333.269531 151.898438 L 301.113281 167.078125 Z M 303.59375 150.421875 "/>
<path style=" stroke:none;fill-rule:nonzero;fill:rgb(39.99939%,39.99939%,39.99939%);fill-opacity:0.3;" d="M 292.386719 217.578125 L 320.023438 221.554688 L 311.390625 248.191406 L 288.609375 244.90625 Z M 292.386719 217.578125 "/>
<path style=" stroke:none;fill-rule:nonzero;fill:rgb(39.99939%,39.99939%,39.99939%);fill-opacity:0.3;" d="M 287.867188 249.289062 L 309.832031 252.460938 L 299.722656 279.570312 L 283.324219 277.191406 Z M 287.867188 249.289062 "/>
<path style=" stroke:none;fill-rule:nonzero;fill:rgb(39.99939%,39.99939%,39.99939%);fill-opacity:0.3;" d="M 337.792969 191.230469 L 339.410156 191.457031 L 334.867188 219.242188 L 328.027344 218.257812 Z M 337.792969 191.230469 "/>
<path style=" stroke:none;fill-rule:nonzero;fill:rgb(39.99939%,39.99939%,39.99939%);fill-opacity:0.3;" d="M 326.648438 222.507812 L 334.285156 223.605469 L 328.40625 250.71875 L 317.269531 249.109375 Z M 326.648438 222.507812 "/>
<path style=" stroke:none;fill-rule:nonzero;fill:rgb(39.99939%,39.99939%,39.99939%);fill-opacity:0.3;" d="M 315.75 253.316406 L 328.964844 255.222656 L 324.464844 283.15625 L 305.375 280.386719 Z M 315.75 253.316406 "/>
<g clip-path="url(#clip9)" clip-rule="nonzero">
<path style=" stroke:none;fill-rule:nonzero;fill:rgb(39.99939%,39.99939%,39.99939%);fill-opacity:0.3;" d="M 334.277344 255.988281 L 375.632812 261.957031 L 371.539062 289.976562 L 329.875 283.9375 Z M 334.277344 255.988281 "/>
</g>
<path style=" stroke:none;fill-rule:nonzero;fill:rgb(39.99939%,39.99939%,39.99939%);fill-opacity:0.3;" d="M 298.960938 181.691406 L 299.023438 176.085938 L 308.730469 172.066406 L 340.988281 159.742188 L 342.4375 163.472656 L 334.308594 186.628906 Z M 298.960938 181.691406 "/>
<g clip-path="url(#clip10)" clip-rule="nonzero">
<path style=" stroke:none;fill-rule:nonzero;fill:rgb(39.99939%,39.99939%,39.99939%);fill-opacity:0.3;" d="M 344.433594 192.160156 L 384.859375 197.824219 L 380.667969 225.828125 L 340.21875 220.011719 Z M 344.433594 192.160156 "/>
</g>
<g clip-path="url(#clip11)" clip-rule="nonzero">
<path style=" stroke:none;fill-rule:nonzero;fill:rgb(39.99939%,39.99939%,39.99939%);fill-opacity:0.3;" d="M 241.730469 53.265625 L 248.960938 57.855469 L 255.109375 59.40625 L 261.050781 65.007812 L 269.972656 70.664062 L 290.882812 74.558594 L 291.332031 81.203125 L 337.96875 82.898438 L 338.816406 79.171875 L 370.019531 88.109375 L 362.714844 106.6875 L 314.46875 92.074219 L 307.226562 90.441406 L 304.304688 90.605469 L 298.445312 90.523438 L 293.289062 90.523438 L 281.492188 90.628906 L 278.023438 89.953125 L 272.878906 87.757812 L 265.578125 70.300781 L 255.824219 63.4375 L 248.238281 58.378906 L 241.734375 53.683594 L 240.800781 52.964844 Z M 241.730469 53.265625 "/>
</g>
<g clip-path="url(#clip12)" clip-rule="nonzero">
<path style=" stroke:none;fill-rule:nonzero;fill:rgb(39.99939%,39.99939%,39.99939%);fill-opacity:0.3;" d="M 317.679688 358.925781 L 359.59375 364.859375 L 354.3125 397.042969 L 312.351562 390.476562 Z M 317.679688 358.925781 "/>
</g>
<path style=" stroke:none;fill-rule:nonzero;fill:rgb(39.99939%,39.99939%,39.99939%);fill-opacity:0.3;" d="M 2.921875 281.363281 L 26.351562 312.890625 L 11.21875 348.894531 L -4.886719 333.898438 Z M 2.921875 281.363281 "/>
<g clip-path="url(#clip13)" clip-rule="nonzero">
<path style=" stroke:none;fill-rule:nonzero;fill:rgb(39.99939%,39.99939%,39.99939%);fill-opacity:0.3;" d="M 28.8125 316.300781 L 63.648438 372.761719 L 49.421875 384.476562 L 13.972656 351.460938 Z M 28.8125 316.300781 "/>
</g>
<path style=" stroke:none;fill-rule:nonzero;fill:rgb(39.99939%,39.99939%,39.99939%);fill-opacity:0.3;" d="M -36.652344 299.671875 L -31.050781 276.441406 L -17.800781 282.753906 L -17.222656 281.792969 L -16.644531 280.835938 L -30.492188 273.914062 L -26.886719 259.882812 L 1.214844 274.730469 L -5.242188 315.878906 L -19.449219 320.640625 Z M -36.652344 299.671875 "/>
<g clip-path="url(#clip14)" clip-rule="nonzero">
<path style=" stroke:none;fill-rule:nonzero;fill:rgb(39.99939%,39.99939%,39.99939%);fill-opacity:0.3;" d="M 132.128906 332.1875 L 173.242188 338.242188 L 171.988281 371.359375 L 130.832031 365.410156 Z M 132.128906 332.1875 "/>
</g>
<path style=" stroke:none;fill-rule:nonzero;fill:rgb(39.99939%,39.99939%,39.99939%);fill-opacity:0.3;" d="M 133.328125 295.074219 L 174.125 300.613281 L 173.324219 335.195312 L 132.25 329.273438 Z M 133.328125 295.074219 "/>
<g clip-path="url(#clip15)" clip-rule="nonzero">
<path style=" stroke:none;fill-rule:nonzero;fill:rgb(39.99939%,39.99939%,39.99939%);fill-opacity:0.3;" d="M 176.417969 338.726562 L 217.382812 344.757812 L 215.972656 377.71875 L 175.144531 371.816406 Z M 176.417969 338.726562 "/>
</g>
<path style=" stroke:none;fill-rule:nonzero;fill:rgb(39.99939%,39.99939%,39.99939%);fill-opacity:0.3;" d="M 10.203125 278.320312 L 57.800781 284.578125 L 55.359375 343.023438 Z M 10.203125 278.320312 "/>
<g clip-path="url(#clip16)" clip-rule="nonzero">
<path style=" stroke:none;fill-rule:nonzero;fill:rgb(39.99939%,39.99939%,39.99939%);fill-opacity:0.3;" d="M 67.0625 363.097656 L 66.964844 358.085938 L 104.359375 364.464844 L 102.4375 397.164062 L 89.871094 396.417969 Z M 67.0625 363.097656 "/>
</g>
<g clip-path="url(#clip17)" clip-rule="nonzero">
<path style=" stroke:none;fill-rule:nonzero;fill:rgb(39.99939%,39.99939%,39.99939%);fill-opacity:0.3;" d="M 70.449219 286.164062 L 129.542969 294.699219 L 126.609375 364.800781 L 68.210938 356.121094 Z M 70.449219 286.164062 "/>
</g>
<path style=" stroke:none;fill-rule:nonzero;fill:rgb(39.99939%,39.99939%,39.99939%);fill-opacity:0.3;" d="M 177.625 301.054688 L 218.761719 306.546875 L 217.78125 341.742188 L 176.808594 335.707031 Z M 177.625 301.054688 "/>
<g clip-path="url(#clip18)" clip-rule="nonzero">
<path style=" stroke:none;fill-rule:nonzero;fill:rgb(39.99939%,39.99939%,39.99939%);fill-opacity:0.3;" d="M 220.648438 345.238281 L 258.777344 350.855469 L 253.332031 383.117188 L 219.25 378.191406 Z M 220.648438 345.238281 "/>
</g>
<path style=" stroke:none;fill-rule:nonzero;fill:rgb(39.99939%,39.99939%,39.99939%);fill-opacity:0.3;" d="M 222.550781 307.050781 L 265.25 312.75 L 259.394531 347.871094 L 221.523438 342.292969 Z M 222.550781 307.050781 "/>
<path style="fill-rule:nonzero;fill:rgb(39.99939%,39.99939%,39.99939%);fill-opacity:1;stroke-width:0.03;stroke-linecap:square;stroke-linejoin:miter;stroke:rgb(39.99939%,39.99939%,39.99939%);stroke-opacity:1;stroke-miterlimit:3.239307;" d="M 166.59375 173.878906 L 162.628906 226.644531 L 125.429688 224.941406 L 137.511719 170.929688 Z M 166.59375 173.878906 " transform="matrix(1,0,0,1,-74,-13)"/>
<path style="fill-rule:nonzero;fill:rgb(39.99939%,39.99939%,39.99939%);fill-opacity:1;stroke-width:0.03;stroke-linecap:square;stroke-linejoin:miter;stroke:rgb(39.99939%,39.99939%,39.99939%);stroke-opacity:1;stroke-miterlimit:3.239307;" d="M 287.097656 89.78125 L 285.886719 89.953125 L 286.296875 94.476562 L 268.386719 100.542969 L 268.589844 89.472656 L 267.445312 89.53125 L 266.300781 89.59375 L 265.914062 101.378906 L 257.949219 104.078125 L 260.113281 76.238281 L 293.53125 84.089844 L 301.402344 67.59375 L 303.8125 65.601562 L 307.160156 64.429688 L 309.589844 64.546875 L 306.289062 78.835938 L 304.261719 90.226562 L 288.679688 93.667969 L 288.3125 89.609375 Z M 287.097656 89.78125 " transform="matrix(1,0,0,1,-74,-13)"/>
<path style="fill-rule:nonzero;fill:rgb(39.99939%,39.99939%,39.99939%);fill-opacity:1;stroke-width:0.03;stroke-linecap:square;stroke-linejoin:miter;stroke:rgb(39.99939%,39.99939%,39.99939%);stroke-opacity:1;stroke-miterlimit:3.239307;" d="M 320.210938 274.410156 L 339.644531 274.855469 L 337.84375 320.382812 L 318.332031 317.6875 Z M 320.210938 274.410156 " transform="matrix(1,0,0,1,-74,-13)"/>
<path style="fill-rule:nonzero;fill:rgb(39.99939%,39.99939%,39.99939%);fill-opacity:1;stroke-width:0.03;stroke-linecap:square;stroke-linejoin:miter;stroke:rgb(39.99939%,39.99939%,39.99939%);stroke-opacity:1;stroke-miterlimit:3.239307;" d="M 167.125 269.3125 L 183.171875 269.828125 L 182.234375 298.917969 L 166.511719 296.746094 Z M 167.125 269.3125 " transform="matrix(1,0,0,1,-74,-13)"/>
<path style="fill-rule:nonzero;fill:rgb(39.99939%,39.99939%,39.99939%);fill-opacity:1;stroke-width:0.03;stroke-linecap:square;stroke-linejoin:miter;stroke:rgb(39.99939%,39.99939%,39.99939%);stroke-opacity:1;stroke-miterlimit:3.239307;" d="M 168.023438 231.398438 L 184.554688 232.074219 L 183.421875 266.148438 L 167.273438 265.628906 Z M 168.023438 231.398438 " transform="matrix(1,0,0,1,-74,-13)"/>
<path style="fill-rule:nonzero;fill:rgb(39.99939%,39.99939%,39.99939%);fill-opacity:1;stroke-width:0.03;stroke-linecap:square;stroke-linejoin:miter;stroke:rgb(39.99939%,39.99939%,39.99939%);stroke-opacity:1;stroke-miterlimit:3.239307;" d="M 186.984375 269.949219 L 205.21875 270.535156 L 204.289062 301.957031 L 185.925781 299.425781 Z M 186.984375 269.949219 " transform="matrix(1,0,0,1,-74,-13)"/>
<path style="fill-rule:nonzero;fill:rgb(39.99939%,39.99939%,39.99939%);fill-opacity:1;stroke-width:0.03;stroke-linecap:square;stroke-linejoin:miter;stroke:rgb(39.99939%,39.99939%,39.99939%);stroke-opacity:1;stroke-miterlimit:3.239307;" d="M 188.132812 232.222656 L 206.6875 233.03125 L 205.21875 266.847656 L 186.75 266.253906 Z M 188.132812 232.222656 " transform="matrix(1,0,0,1,-74,-13)"/>
<path style="fill-rule:nonzero;fill:rgb(39.99939%,39.99939%,39.99939%);fill-opacity:1;stroke-width:0.03;stroke-linecap:square;stroke-linejoin:miter;stroke:rgb(39.99939%,39.99939%,39.99939%);stroke-opacity:1;stroke-miterlimit:3.239307;" d="M 208.933594 270.65625 L 228.320312 271.277344 L 226.90625 305.078125 L 207.957031 302.464844 Z M 208.933594 270.65625 " transform="matrix(1,0,0,1,-74,-13)"/>
<path style="fill-rule:nonzero;fill:rgb(39.99939%,39.99939%,39.99939%);fill-opacity:1;stroke-width:0.03;stroke-linecap:square;stroke-linejoin:miter;stroke:rgb(39.99939%,39.99939%,39.99939%);stroke-opacity:1;stroke-miterlimit:3.239307;" d="M 210.609375 233.136719 L 229.019531 233.890625 L 228.242188 267.585938 L 208.925781 266.964844 Z M 210.609375 233.136719 " transform="matrix(1,0,0,1,-74,-13)"/>
<path style="fill-rule:nonzero;fill:rgb(39.99939%,39.99939%,39.99939%);fill-opacity:1;stroke-width:0.03;stroke-linecap:square;stroke-linejoin:miter;stroke:rgb(39.99939%,39.99939%,39.99939%);stroke-opacity:1;stroke-miterlimit:3.239307;" d="M 213.15625 177.730469 L 231.535156 179.367188 L 229.082031 229.355469 L 210.847656 228.609375 Z M 213.15625 177.730469 " transform="matrix(1,0,0,1,-74,-13)"/>
<path style="fill-rule:nonzero;fill:rgb(39.99939%,39.99939%,39.99939%);fill-opacity:1;stroke-width:0.03;stroke-linecap:square;stroke-linejoin:miter;stroke:rgb(39.99939%,39.99939%,39.99939%);stroke-opacity:1;stroke-miterlimit:3.239307;" d="M 231.878906 271.390625 L 249.632812 271.960938 L 248.476562 308.054688 L 230.273438 305.542969 Z M 231.878906 271.390625 " transform="matrix(1,0,0,1,-74,-13)"/>
<path style="fill-rule:nonzero;fill:rgb(39.99939%,39.99939%,39.99939%);fill-opacity:1;stroke-width:0.03;stroke-linecap:square;stroke-linejoin:miter;stroke:rgb(39.99939%,39.99939%,39.99939%);stroke-opacity:1;stroke-miterlimit:3.239307;" d="M 253.484375 272.085938 L 271.703125 272.402344 L 270.09375 311.035156 L 252.40625 308.59375 Z M 253.484375 272.085938 " transform="matrix(1,0,0,1,-74,-13)"/>
<path style="fill-rule:nonzero;fill:rgb(39.99939%,39.99939%,39.99939%);fill-opacity:1;stroke-width:0.03;stroke-linecap:square;stroke-linejoin:miter;stroke:rgb(39.99939%,39.99939%,39.99939%);stroke-opacity:1;stroke-miterlimit:3.239307;" d="M 276.324219 272.820312 L 294.695312 273.410156 L 293.367188 314.246094 L 274.863281 311.691406 Z M 276.324219 272.820312 " transform="matrix(1,0,0,1,-74,-13)"/>
<path style="fill-rule:nonzero;fill:rgb(39.99939%,39.99939%,39.99939%);fill-opacity:1;stroke-width:0.03;stroke-linecap:square;stroke-linejoin:miter;stroke:rgb(39.99939%,39.99939%,39.99939%);stroke-opacity:1;stroke-miterlimit:3.239307;" d="M 279.285156 183.535156 L 298.390625 185.324219 L 295.851562 232.023438 L 277.667969 231.484375 Z M 279.285156 183.535156 " transform="matrix(1,0,0,1,-74,-13)"/>
<path style="fill-rule:nonzero;fill:rgb(39.99939%,39.99939%,39.99939%);fill-opacity:1;stroke-width:0.03;stroke-linecap:square;stroke-linejoin:miter;stroke:rgb(39.99939%,39.99939%,39.99939%);stroke-opacity:1;stroke-miterlimit:3.239307;" d="M 298.253906 273.613281 L 316.269531 274.035156 L 314.945312 317.222656 L 296.949219 314.738281 Z M 298.253906 273.613281 " transform="matrix(1,0,0,1,-74,-13)"/>
<path style="fill-rule:nonzero;fill:rgb(39.99939%,39.99939%,39.99939%);fill-opacity:1;stroke-width:0.03;stroke-linecap:square;stroke-linejoin:miter;stroke:rgb(39.99939%,39.99939%,39.99939%);stroke-opacity:1;stroke-miterlimit:3.239307;" d="M 321.734375 237.675781 L 340.5625 238.441406 L 339.074219 271.148438 L 320.441406 270.550781 Z M 321.734375 237.675781 " transform="matrix(1,0,0,1,-74,-13)"/>
<path style="fill-rule:nonzero;fill:rgb(39.99939%,39.99939%,39.99939%);fill-opacity:1;stroke-width:0.03;stroke-linecap:square;stroke-linejoin:miter;stroke:rgb(39.99939%,39.99939%,39.99939%);stroke-opacity:1;stroke-miterlimit:3.239307;" d="M 299.703125 236.773438 L 318.152344 237.527344 L 316.632812 270.429688 L 298.179688 269.835938 Z M 299.703125 236.773438 " transform="matrix(1,0,0,1,-74,-13)"/>
<path style="fill-rule:nonzero;fill:rgb(39.99939%,39.99939%,39.99939%);fill-opacity:1;stroke-width:0.03;stroke-linecap:square;stroke-linejoin:miter;stroke:rgb(39.99939%,39.99939%,39.99939%);stroke-opacity:1;stroke-miterlimit:3.239307;" d="M 302.148438 185.65625 L 320.765625 187.316406 L 318.148438 232.992188 L 299.851562 232.242188 Z M 302.148438 185.65625 " transform="matrix(1,0,0,1,-74,-13)"/>
<path style="fill-rule:nonzero;fill:rgb(39.99939%,39.99939%,39.99939%);fill-opacity:1;stroke-width:0.03;stroke-linecap:square;stroke-linejoin:miter;stroke:rgb(39.99939%,39.99939%,39.99939%);stroke-opacity:1;stroke-miterlimit:3.239307;" d="M 235.023438 179.679688 L 253.71875 181.34375 L 251.644531 230.277344 L 232.703125 229.503906 Z M 235.023438 179.679688 " transform="matrix(1,0,0,1,-74,-13)"/>
<path style="fill-rule:nonzero;fill:rgb(39.99939%,39.99939%,39.99939%);fill-opacity:1;stroke-width:0.03;stroke-linecap:square;stroke-linejoin:miter;stroke:rgb(39.99939%,39.99939%,39.99939%);stroke-opacity:1;stroke-miterlimit:3.239307;" d="M 346.75 189.21875 L 365.316406 190.9375 L 360.171875 233.617188 L 344.445312 232.976562 Z M 346.75 189.21875 " transform="matrix(1,0,0,1,-74,-13)"/>
<path style="fill-rule:nonzero;fill:rgb(39.99939%,39.99939%,39.99939%);fill-opacity:1;stroke-width:0.03;stroke-linecap:square;stroke-linejoin:miter;stroke:rgb(39.99939%,39.99939%,39.99939%);stroke-opacity:1;stroke-miterlimit:3.239307;" d="M 342.785156 274.957031 L 354.285156 275.328125 L 346.46875 321.570312 L 341.214844 320.847656 Z M 342.785156 274.957031 " transform="matrix(1,0,0,1,-74,-13)"/>
<path style="fill-rule:nonzero;fill:rgb(39.99939%,39.99939%,39.99939%);fill-opacity:1;stroke-width:0.03;stroke-linecap:square;stroke-linejoin:miter;stroke:rgb(39.99939%,39.99939%,39.99939%);stroke-opacity:1;stroke-miterlimit:3.239307;" d="M 213.3125 157.324219 L 232.585938 157.851562 L 231.789062 174.28125 L 212.753906 172.519531 Z M 213.3125 157.324219 " transform="matrix(1,0,0,1,-74,-13)"/>
<path style="fill-rule:nonzero;fill:rgb(39.99939%,39.99939%,39.99939%);fill-opacity:1;stroke-width:0.03;stroke-linecap:square;stroke-linejoin:miter;stroke:rgb(39.99939%,39.99939%,39.99939%);stroke-opacity:1;stroke-miterlimit:3.239307;" d="M 235.261719 157.691406 L 254.3125 158.855469 L 253.132812 176.660156 L 234.953125 174.867188 Z M 235.261719 157.691406 " transform="matrix(1,0,0,1,-74,-13)"/>
<path style="fill-rule:nonzero;fill:rgb(39.99939%,39.99939%,39.99939%);fill-opacity:1;stroke-width:0.03;stroke-linecap:square;stroke-linejoin:miter;stroke:rgb(39.99939%,39.99939%,39.99939%);stroke-opacity:1;stroke-miterlimit:3.239307;" d="M 258.578125 158.800781 L 276.039062 159.816406 L 275.34375 179.132812 L 257.34375 176.5625 Z M 258.578125 158.800781 " transform="matrix(1,0,0,1,-74,-13)"/>
<path style="fill-rule:nonzero;fill:rgb(39.99939%,39.99939%,39.99939%);fill-opacity:1;stroke-width:0.03;stroke-linecap:square;stroke-linejoin:miter;stroke:rgb(39.99939%,39.99939%,39.99939%);stroke-opacity:1;stroke-miterlimit:3.239307;" d="M 280.179688 159.914062 L 297.835938 160.1875 L 298.164062 180.9375 L 280.457031 179.144531 Z M 280.179688 159.914062 " transform="matrix(1,0,0,1,-74,-13)"/>
<path style="fill-rule:nonzero;fill:rgb(39.99939%,39.99939%,39.99939%);fill-opacity:1;stroke-width:0.03;stroke-linecap:square;stroke-linejoin:miter;stroke:rgb(39.99939%,39.99939%,39.99939%);stroke-opacity:1;stroke-miterlimit:3.239307;" d="M 282.394531 123.25 L 300.523438 123.789062 L 299.425781 157.125 L 281.050781 156.421875 Z M 282.394531 123.25 " transform="matrix(1,0,0,1,-74,-13)"/>
<path style="fill-rule:nonzero;fill:rgb(39.99939%,39.99939%,39.99939%);fill-opacity:1;stroke-width:0.03;stroke-linecap:square;stroke-linejoin:miter;stroke:rgb(39.99939%,39.99939%,39.99939%);stroke-opacity:1;stroke-miterlimit:3.239307;" d="M 305.148438 93.449219 L 323.417969 95.042969 L 323.074219 121.171875 L 304.527344 120.625 Z M 305.148438 93.449219 " transform="matrix(1,0,0,1,-74,-13)"/>
<path style="fill-rule:nonzero;fill:rgb(39.99939%,39.99939%,39.99939%);fill-opacity:1;stroke-width:0.03;stroke-linecap:square;stroke-linejoin:miter;stroke:rgb(39.99939%,39.99939%,39.99939%);stroke-opacity:1;stroke-miterlimit:3.239307;" d="M 327.148438 95.75 L 345.230469 103.53125 L 344.765625 121.816406 L 326.742188 121.28125 Z M 327.148438 95.75 " transform="matrix(1,0,0,1,-74,-13)"/>
<path style="fill-rule:nonzero;fill:rgb(39.99939%,39.99939%,39.99939%);fill-opacity:1;stroke-width:0.03;stroke-linecap:square;stroke-linejoin:miter;stroke:rgb(39.99939%,39.99939%,39.99939%);stroke-opacity:1;stroke-miterlimit:3.239307;" d="M 260.917969 105.019531 L 265.796875 103.363281 L 279.234375 99.289062 L 278.351562 118.429688 L 260.144531 117.5 Z M 260.917969 105.019531 " transform="matrix(1,0,0,1,-74,-13)"/>
<path style="fill-rule:nonzero;fill:rgb(39.99939%,39.99939%,39.99939%);fill-opacity:1;stroke-width:0.03;stroke-linecap:square;stroke-linejoin:miter;stroke:rgb(39.99939%,39.99939%,39.99939%);stroke-opacity:1;stroke-miterlimit:3.239307;" d="M 171.851562 174.175781 L 206.980469 177.179688 L 205.816406 228.410156 L 168.210938 226.871094 Z M 171.851562 174.175781 " transform="matrix(1,0,0,1,-74,-13)"/>
<path style="fill-rule:nonzero;fill:rgb(39.99939%,39.99939%,39.99939%);fill-opacity:1;stroke-width:0.03;stroke-linecap:square;stroke-linejoin:miter;stroke:rgb(39.99939%,39.99939%,39.99939%);stroke-opacity:1;stroke-miterlimit:3.239307;" d="M 259.871094 122.585938 L 278 123.121094 L 276.175781 157.222656 L 257.667969 156.394531 Z M 259.871094 122.585938 " transform="matrix(1,0,0,1,-74,-13)"/>
<path style="fill-rule:nonzero;fill:rgb(39.99939%,39.99939%,39.99939%);fill-opacity:1;stroke-width:0.03;stroke-linecap:square;stroke-linejoin:miter;stroke:rgb(39.99939%,39.99939%,39.99939%);stroke-opacity:1;stroke-miterlimit:3.239307;" d="M 303.105469 160.835938 L 320.664062 161.207031 L 320.375 183.167969 L 302.078125 181.492188 Z M 303.105469 160.835938 " transform="matrix(1,0,0,1,-74,-13)"/>
<path style="fill-rule:nonzero;fill:rgb(39.99939%,39.99939%,39.99939%);fill-opacity:1;stroke-width:0.03;stroke-linecap:square;stroke-linejoin:miter;stroke:rgb(39.99939%,39.99939%,39.99939%);stroke-opacity:1;stroke-miterlimit:3.239307;" d="M 304.230469 123.898438 L 322.871094 124.453125 L 321.007812 158.386719 L 303.316406 157.65625 Z M 304.230469 123.898438 " transform="matrix(1,0,0,1,-74,-13)"/>
<path style="fill-rule:nonzero;fill:rgb(39.99939%,39.99939%,39.99939%);fill-opacity:1;stroke-width:0.03;stroke-linecap:square;stroke-linejoin:miter;stroke:rgb(39.99939%,39.99939%,39.99939%);stroke-opacity:1;stroke-miterlimit:3.239307;" d="M 282.953125 98.386719 L 290.035156 95.960938 L 301.605469 93.449219 L 300.628906 120.507812 L 281.785156 119.949219 Z M 282.953125 98.386719 " transform="matrix(1,0,0,1,-74,-13)"/>
<path style="fill-rule:nonzero;fill:rgb(39.99939%,39.99939%,39.99939%);fill-opacity:1;stroke-width:0.03;stroke-linecap:square;stroke-linejoin:miter;stroke:rgb(39.99939%,39.99939%,39.99939%);stroke-opacity:1;stroke-miterlimit:3.239307;" d="M 324.902344 161.519531 L 342.65625 162.070312 L 343.320312 184.21875 L 323.222656 182.746094 Z M 324.902344 161.519531 " transform="matrix(1,0,0,1,-74,-13)"/>
<path style="fill-rule:nonzero;fill:rgb(39.99939%,39.99939%,39.99939%);fill-opacity:1;stroke-width:0.03;stroke-linecap:square;stroke-linejoin:miter;stroke:rgb(39.99939%,39.99939%,39.99939%);stroke-opacity:1;stroke-miterlimit:3.239307;" d="M 326.691406 124.566406 L 345.304688 125.117188 L 343.824219 159.210938 L 325.359375 158.523438 Z M 326.691406 124.566406 " transform="matrix(1,0,0,1,-74,-13)"/>
<path style="fill-rule:nonzero;fill:rgb(39.99939%,39.99939%,39.99939%);fill-opacity:1;stroke-width:0.03;stroke-linecap:square;stroke-linejoin:miter;stroke:rgb(39.99939%,39.99939%,39.99939%);stroke-opacity:1;stroke-miterlimit:3.239307;" d="M 347.667969 162.175781 L 372.933594 163.285156 L 370.496094 182.769531 L 362.917969 185.996094 L 346.238281 184.535156 Z M 347.667969 162.175781 " transform="matrix(1,0,0,1,-74,-13)"/>
<path style="fill-rule:nonzero;fill:rgb(39.99939%,39.99939%,39.99939%);fill-opacity:1;stroke-width:0.03;stroke-linecap:square;stroke-linejoin:miter;stroke:rgb(39.99939%,39.99939%,39.99939%);stroke-opacity:1;stroke-miterlimit:3.239307;" d="M 349.183594 125.230469 L 378.285156 126.09375 L 373.003906 160.265625 L 347.117188 159.21875 Z M 349.183594 125.230469 " transform="matrix(1,0,0,1,-74,-13)"/>
<path style="fill-rule:nonzero;fill:rgb(39.99939%,39.99939%,39.99939%);fill-opacity:1;stroke-width:0.03;stroke-linecap:square;stroke-linejoin:miter;stroke:rgb(39.99939%,39.99939%,39.99939%);stroke-opacity:1;stroke-miterlimit:3.239307;" d="M 167.105469 170.277344 L 167.082031 170.421875 L 163.46875 169.925781 Z M 167.105469 170.277344 " transform="matrix(1,0,0,1,-74,-13)"/>
<path style="fill-rule:nonzero;fill:rgb(39.99939%,39.99939%,39.99939%);fill-opacity:1;stroke-width:0.03;stroke-linecap:square;stroke-linejoin:miter;stroke:rgb(39.99939%,39.99939%,39.99939%);stroke-opacity:1;stroke-miterlimit:3.239307;" d="M 346.878906 100.757812 L 329.074219 93.164062 L 315.851562 90.976562 L 316.761719 86.074219 L 314.863281 85.679688 L 312.832031 85.253906 L 311.789062 90.457031 L 306.492188 89.753906 L 308.242188 78.125 L 311.46875 64.878906 L 314.800781 65.964844 L 315.734375 66.683594 L 322.238281 71.378906 L 329.824219 76.4375 L 339.578125 83.300781 Z M 346.878906 100.757812 " transform="matrix(1,0,0,1,-74,-13)"/>
<path style="fill-rule:nonzero;fill:rgb(39.99939%,39.99939%,39.99939%);fill-opacity:1;stroke-width:0.03;stroke-linecap:square;stroke-linejoin:miter;stroke:rgb(39.99939%,39.99939%,39.99939%);stroke-opacity:1;stroke-miterlimit:3.239307;" d="M 324.320312 187.632812 L 343.007812 189.296875 L 340.621094 233.90625 L 321.71875 233.136719 Z M 324.320312 187.632812 " transform="matrix(1,0,0,1,-74,-13)"/>
<path style="fill-rule:nonzero;fill:rgb(39.99939%,39.99939%,39.99939%);fill-opacity:1;stroke-width:0.03;stroke-linecap:square;stroke-linejoin:miter;stroke:rgb(39.99939%,39.99939%,39.99939%);stroke-opacity:1;stroke-miterlimit:3.239307;" d="M 145.28125 268.609375 L 163.789062 269.203125 L 163.539062 296.335938 L 144.359375 293.691406 Z M 145.28125 268.609375 " transform="matrix(1,0,0,1,-74,-13)"/>
<path style="fill-rule:nonzero;fill:rgb(39.99939%,39.99939%,39.99939%);fill-opacity:1;stroke-width:0.03;stroke-linecap:square;stroke-linejoin:miter;stroke:rgb(39.99939%,39.99939%,39.99939%);stroke-opacity:1;stroke-miterlimit:3.239307;" d="M 146.773438 230.53125 L 164.503906 231.257812 L 163.824219 265.515625 L 145.359375 264.925781 Z M 146.773438 230.53125 " transform="matrix(1,0,0,1,-74,-13)"/>
<path style="fill-rule:nonzero;fill:rgb(39.99939%,39.99939%,39.99939%);fill-opacity:1;stroke-width:0.03;stroke-linecap:square;stroke-linejoin:miter;stroke:rgb(39.99939%,39.99939%,39.99939%);stroke-opacity:1;stroke-miterlimit:3.239307;" d="M 257.652344 181.695312 L 276.15625 183.34375 L 273.558594 231.171875 L 255.511719 230.433594 Z M 257.652344 181.695312 " transform="matrix(1,0,0,1,-74,-13)"/>
<path style="fill-rule:nonzero;fill:rgb(39.99939%,39.99939%,39.99939%);fill-opacity:1;stroke-width:0.03;stroke-linecap:square;stroke-linejoin:miter;stroke:rgb(39.99939%,39.99939%,39.99939%);stroke-opacity:1;stroke-miterlimit:3.239307;" d="M 232.871094 234.046875 L 251.53125 234.808594 L 249.90625 268.285156 L 231.71875 267.699219 Z M 232.871094 234.046875 " transform="matrix(1,0,0,1,-74,-13)"/>
<path style="fill-rule:nonzero;fill:rgb(39.99939%,39.99939%,39.99939%);fill-opacity:1;stroke-width:0.03;stroke-linecap:square;stroke-linejoin:miter;stroke:rgb(39.99939%,39.99939%,39.99939%);stroke-opacity:1;stroke-miterlimit:3.239307;" d="M 255.027344 234.949219 L 273.480469 235.703125 L 271.800781 268.988281 L 253.757812 268.40625 Z M 255.027344 234.949219 " transform="matrix(1,0,0,1,-74,-13)"/>
<path style="fill-rule:nonzero;fill:rgb(39.99939%,39.99939%,39.99939%);fill-opacity:1;stroke-width:0.03;stroke-linecap:square;stroke-linejoin:miter;stroke:rgb(39.99939%,39.99939%,39.99939%);stroke-opacity:1;stroke-miterlimit:3.239307;" d="M 277.621094 235.875 L 296.253906 236.632812 L 294.742188 269.722656 L 276.570312 269.140625 Z M 277.621094 235.875 " transform="matrix(1,0,0,1,-74,-13)"/>
<path style="fill-rule:nonzero;fill:rgb(39.99939%,39.99939%,39.99939%);fill-opacity:1;stroke-width:0.03;stroke-linecap:square;stroke-linejoin:miter;stroke:rgb(39.99939%,39.99939%,39.99939%);stroke-opacity:1;stroke-miterlimit:3.239307;" d="M 344.589844 238.605469 L 359.253906 239.207031 L 354.242188 271.636719 L 342.867188 271.574219 Z M 344.589844 238.605469 " transform="matrix(1,0,0,1,-74,-13)"/>
<path style=" stroke:none;fill-rule:evenodd;fill:rgb(85.096741%,85.096741%,81.959534%);fill-opacity:0.7;" d="M 286.449219 139 C 286.449219 135.167969 284.925781 131.492188 282.21875 128.78125 C 279.507812 126.074219 275.832031 124.550781 272 124.550781 C 268.167969 124.550781 264.492188 126.074219 261.78125 128.78125 C 259.074219 131.492188 257.550781 135.167969 257.550781 139 C 257.550781 142.832031 259.074219 146.507812 261.78125 149.21875 C 264.492188 151.925781 268.167969 153.449219 272 153.449219 C 275.832031 153.449219 279.507812 151.925781 282.21875 149.21875 C 284.925781 146.507812 286.449219 142.832031 286.449219 139 Z M 286.449219 139 "/>
<g clip-path="url(#clip19)" clip-rule="nonzero">
<path style=" stroke:none;fill-rule:evenodd;fill:rgb(85.096741%,85.096741%,81.959534%);fill-opacity:0.7;" d="M 137.449219 365 C 137.449219 361.167969 135.925781 357.492188 133.21875 354.78125 C 130.507812 352.074219 126.832031 350.550781 123 350.550781 C 119.167969 350.550781 115.492188 352.074219 112.78125 354.78125 C 110.074219 357.492188 108.550781 361.167969 108.550781 365 C 108.550781 368.832031 110.074219 372.507812 112.78125 375.21875 C 115.492188 377.925781 119.167969 379.449219 123 379.449219 C 126.832031 379.449219 130.507812 377.925781 133.21875 375.21875 C 135.925781 372.507812 137.449219 368.832031 137.449219 365 Z M 137.449219 365 "/>
</g>
<path style=" stroke:none;fill-rule:evenodd;fill:rgb(85.096741%,85.096741%,81.959534%);fill-opacity:0.7;" d="M 184.449219 219 C 184.449219 215.167969 182.925781 211.492188 180.21875 208.78125 C 177.507812 206.074219 173.832031 204.550781 170 204.550781 C 166.167969 204.550781 162.492188 206.074219 159.78125 208.78125 C 157.074219 211.492188 155.550781 215.167969 155.550781 219 C 155.550781 222.832031 157.074219 226.507812 159.78125 229.21875 C 162.492188 231.925781 166.167969 233.449219 170 233.449219 C 173.832031 233.449219 177.507812 231.925781 180.21875 229.21875 C 182.925781 226.507812 184.449219 222.832031 184.449219 219 Z M 184.449219 219 "/>
</g>
</svg>
