<?xml version="1.0" encoding="UTF-8"?>
<svg xmlns="http://www.w3.org/2000/svg" xmlns:xlink="http://www.w3.org/1999/xlink" width="361pt" height="361pt" viewBox="0 0 361 361" version="1.1">
<defs>
<clipPath id="clip1">
  <path d="M 352 320 L 360 320 L 360 349 L 352 349 Z M 352 320 "/>
</clipPath>
<clipPath id="clip2">
  <path d="M 358 301 L 360 301 L 360 330 L 358 330 Z M 358 301 "/>
</clipPath>
<clipPath id="clip3">
  <path d="M 359 245 L 360 245 L 360 277 L 359 277 Z M 359 245 "/>
</clipPath>
<clipPath id="clip4">
  <path d="M 0 322 L 171 322 L 171 360 L 0 360 Z M 0 322 "/>
</clipPath>
<clipPath id="clip5">
  <path d="M 173 344 L 217 344 L 217 360 L 173 360 Z M 173 344 "/>
</clipPath>
<clipPath id="clip6">
  <path d="M 338 149 L 360 149 L 360 165 L 338 165 Z M 338 149 "/>
</clipPath>
</defs>
<g id="surface889">
<path style="fill-rule:nonzero;fill:rgb(0%,0%,0%);fill-opacity:1;stroke-width:0.03;stroke-linecap:square;stroke-linejoin:miter;stroke:rgb(0%,0%,0%);stroke-opacity:1;stroke-miterlimit:10;" d="M 0 178 L 360 178 L 360 -182 L 0 -182 Z M 0 178 " transform="matrix(1,0,0,1,0,182)"/>
<g clip-path="url(#clip1)" clip-rule="nonzero">
<path style=" stroke:none;fill-rule:nonzero;fill:rgb(39.99939%,39.99939%,39.99939%);fill-opacity:0.3;" d="M 355.996094 320.15625 L 409.988281 336.625 L 406.117188 348.035156 L 352.125 331.570312 Z M 355.996094 320.15625 "/>
</g>
<g clip-path="url(#clip2)" clip-rule="nonzero">
<path style=" stroke:none;fill-rule:nonzero;fill:rgb(39.99939%,39.99939%,39.99939%);fill-opacity:0.3;" d="M 362.203125 301.496094 L 416.195312 317.964844 L 412.320312 329.371094 L 358.324219 312.90625 Z M 362.203125 301.496094 "/>
</g>
<path style=" stroke:none;fill-rule:nonzero;fill:rgb(39.99939%,39.99939%,39.99939%);fill-opacity:0.3;" d="M 319.011719 256.199219 L 329.609375 259.617188 L 317.828125 296.125 L 307.910156 293.191406 Z M 319.011719 256.199219 "/>
<path style=" stroke:none;fill-rule:nonzero;fill:rgb(39.99939%,39.99939%,39.99939%);fill-opacity:0.3;" d="M 288.839844 273.777344 L 307.128906 279.480469 L 305.101562 289.394531 L 286.796875 283.394531 Z M 288.839844 273.777344 "/>
<path style=" stroke:none;fill-rule:nonzero;fill:rgb(39.99939%,39.99939%,39.99939%);fill-opacity:0.3;" d="M 339.054688 261.90625 L 349.648438 265.324219 L 336.5 301.832031 L 326.113281 298.902344 Z M 339.054688 261.90625 "/>
<path style=" stroke:none;fill-rule:nonzero;fill:rgb(39.99939%,39.99939%,39.99939%);fill-opacity:0.3;" d="M 300.5625 234.183594 L 344.773438 247.871094 L 340.3125 257.363281 L 296.886719 243.949219 Z M 300.5625 234.183594 "/>
<g clip-path="url(#clip3)" clip-rule="nonzero">
<path style=" stroke:none;fill-rule:nonzero;fill:rgb(39.99939%,39.99939%,39.99939%);fill-opacity:0.3;" d="M 363.503906 245.558594 L 432.128906 266.609375 L 429.25 276.371094 L 359.90625 256.335938 Z M 363.503906 245.558594 "/>
</g>
<path style=" stroke:none;fill-rule:nonzero;fill:rgb(39.99939%,39.99939%,39.99939%);fill-opacity:0.3;" d="M 283.589844 298.507812 L 341.019531 316.015625 L 337.238281 325.769531 L 281.449219 308.570312 Z M 283.589844 298.507812 "/>
<path style=" stroke:none;fill-rule:nonzero;fill:rgb(39.99939%,39.99939%,39.99939%);fill-opacity:0.3;" d="M 308.570312 212.914062 L 353.796875 225.988281 L 348.296875 239.277344 L 303.96875 225.144531 Z M 308.570312 212.914062 "/>
<g clip-path="url(#clip4)" clip-rule="nonzero">
<path style=" stroke:none;fill-rule:nonzero;fill:rgb(39.99939%,39.99939%,39.99939%);fill-opacity:0.3;" d="M -8.804688 401.789062 L -0.597656 374.324219 L 14.253906 360.199219 L 46.199219 341.46875 L 65.515625 332.980469 L 87.929688 326.570312 L 104.761719 322.945312 L 100.863281 341.464844 L 156.917969 355.898438 L 159.996094 344.839844 L 170.191406 347.074219 L 166.214844 359.714844 L 141.050781 444.492188 Z M -8.804688 401.789062 "/>
</g>
<g clip-path="url(#clip5)" clip-rule="nonzero">
<path style=" stroke:none;fill-rule:nonzero;fill:rgb(39.99939%,39.99939%,39.99939%);fill-opacity:0.3;" d="M 186.398438 344.785156 L 210.199219 350.558594 L 208.523438 356.789062 L 216.257812 358.664062 L 213.316406 369.617188 L 206.773438 368.03125 L 204.792969 375.398438 L 180.996094 369.628906 L 182.464844 364.152344 L 173.34375 361.941406 L 176.484375 350.230469 L 184.730469 352.226562 Z M 186.398438 344.785156 "/>
</g>
<path style=" stroke:none;fill-rule:nonzero;fill:rgb(39.99939%,39.99939%,39.99939%);fill-opacity:0.3;" d="M 56.066406 269.695312 L 50.640625 270.433594 L 51.429688 268.292969 Z M 56.066406 269.695312 "/>
<path style=" stroke:none;fill-rule:nonzero;fill:rgb(39.99939%,39.99939%,39.99939%);fill-opacity:0.3;" d="M 244.476562 259.9375 L 288.839844 273.777344 L 286.796875 283.394531 L 242.105469 268.746094 Z M 244.476562 259.9375 "/>
<path style=" stroke:none;fill-rule:nonzero;fill:rgb(39.99939%,39.99939%,39.99939%);fill-opacity:0.3;" d="M 76.347656 259.996094 L 136.648438 279.628906 L 133.089844 290.496094 L 72.597656 270.734375 Z M 76.347656 259.996094 "/>
<path style=" stroke:none;fill-rule:nonzero;fill:rgb(39.99939%,39.99939%,39.99939%);fill-opacity:0.3;" d="M 86.675781 239.523438 L 130.089844 253.476562 L 125.714844 265.789062 L 81.726562 252.457031 Z M 86.675781 239.523438 "/>
<path style=" stroke:none;fill-rule:nonzero;fill:rgb(39.99939%,39.99939%,39.99939%);fill-opacity:0.3;" d="M 156.605469 259.835938 L 215.71875 276.808594 L 212.449219 287.734375 L 152.519531 270.375 Z M 156.605469 259.835938 "/>
<path style=" stroke:none;fill-rule:nonzero;fill:rgb(39.99939%,39.99939%,39.99939%);fill-opacity:0.3;" d="M 171.070312 219.730469 L 230.640625 239.605469 L 225.835938 253.007812 L 166.164062 233.386719 Z M 171.070312 219.730469 "/>
<path style=" stroke:none;fill-rule:nonzero;fill:rgb(39.99939%,39.99939%,39.99939%);fill-opacity:0.3;" d="M 153.261719 217.050781 L 165.578125 220.523438 L 148.796875 268.503906 L 136.074219 265.421875 Z M 153.261719 217.050781 "/>
<path style=" stroke:none;fill-rule:nonzero;fill:rgb(39.99939%,39.99939%,39.99939%);fill-opacity:0.3;" d="M 212.617188 250.039062 L 223.257812 253.167969 L 216.457031 270.382812 L 205.816406 267.253906 Z M 212.617188 250.039062 "/>
<path style=" stroke:none;fill-rule:nonzero;fill:rgb(39.99939%,39.99939%,39.99939%);fill-opacity:0.3;" d="M 258.183594 221.058594 L 300.5625 234.183594 L 296.886719 243.949219 L 253.496094 230.550781 Z M 258.183594 221.058594 "/>
<path style=" stroke:none;fill-rule:nonzero;fill:rgb(39.99939%,39.99939%,39.99939%);fill-opacity:0.3;" d="M 231.035156 282.480469 L 283.589844 298.507812 L 281.449219 308.570312 L 228.277344 292.179688 Z M 231.035156 282.480469 "/>
<path style=" stroke:none;fill-rule:nonzero;fill:rgb(39.99939%,39.99939%,39.99939%);fill-opacity:0.3;" d="M 76.378906 200.289062 L 86.421875 186.304688 L 94.71875 181.714844 L 99.464844 180.570312 L 103.804688 179.984375 L 107.558594 179.746094 L 72.210938 267.496094 L 56.066406 269.695312 L 51.429688 268.292969 Z M 76.378906 200.289062 "/>
<path style=" stroke:none;fill-rule:nonzero;fill:rgb(39.99939%,39.99939%,39.99939%);fill-opacity:0.3;" d="M 266.597656 200.78125 L 308.570312 212.914062 L 303.96875 225.144531 L 260.476562 211.28125 Z M 266.597656 200.78125 "/>
<path style=" stroke:none;fill-rule:nonzero;fill:rgb(39.99939%,39.99939%,39.99939%);fill-opacity:0.3;" d="M 100.5625 202.816406 L 142.492188 215.027344 L 138.78125 227.207031 L 96.730469 214.941406 Z M 100.5625 202.816406 "/>
<path style=" stroke:none;fill-rule:nonzero;fill:rgb(39.99939%,39.99939%,39.99939%);fill-opacity:0.3;" d="M 229.179688 211.863281 L 239.820312 214.988281 L 233.011719 232.195312 L 222.371094 229.070312 Z M 229.179688 211.863281 "/>
<path style=" stroke:none;fill-rule:nonzero;fill:rgb(39.99939%,39.99939%,39.99939%);fill-opacity:0.3;" d="M 105.84375 193.589844 L 107.796875 183.800781 L 254.378906 197.515625 L 254.957031 208.21875 Z M 105.84375 193.589844 "/>
<path style=" stroke:none;fill-rule:nonzero;fill:rgb(39.99939%,39.99939%,39.99939%);fill-opacity:0.3;" d="M 296.011719 162.164062 L 295.832031 162.582031 L 291.339844 161.113281 Z M 296.011719 162.164062 "/>
<path style=" stroke:none;fill-rule:nonzero;fill:rgb(39.99939%,39.99939%,39.99939%);fill-opacity:0.3;" d="M 240.78125 135.90625 L 299.058594 155.160156 L 296.011719 162.164062 L 291.339844 161.113281 L 237.40625 143.457031 Z M 240.78125 135.90625 "/>
<path style=" stroke:none;fill-rule:nonzero;fill:rgb(39.99939%,39.99939%,39.99939%);fill-opacity:0.3;" d="M 115.96875 64.148438 L 178.648438 88.835938 L 174.109375 99.191406 L 111.421875 73.3125 Z M 115.96875 64.148438 "/>
<path style=" stroke:none;fill-rule:nonzero;fill:rgb(39.99939%,39.99939%,39.99939%);fill-opacity:0.3;" d="M 105.71875 81.484375 L 169.230469 105.570312 L 164.648438 114.914062 L 101.785156 91.035156 Z M 105.71875 81.484375 "/>
<path style=" stroke:none;fill-rule:nonzero;fill:rgb(39.99939%,39.99939%,39.99939%);fill-opacity:0.3;" d="M 105.421875 112.847656 L 136.226562 123.699219 L 133.492188 129.65625 L 103.136719 118.984375 Z M 105.421875 112.847656 "/>
<path style=" stroke:none;fill-rule:nonzero;fill:rgb(39.99939%,39.99939%,39.99939%);fill-opacity:0.3;" d="M 195.210938 94.476562 L 247.960938 113.835938 L 244.824219 121.328125 L 192.539062 102.054688 Z M 195.210938 94.476562 "/>
<path style=" stroke:none;fill-rule:nonzero;fill:rgb(39.99939%,39.99939%,39.99939%);fill-opacity:0.3;" d="M 150.066406 121.792969 L 193.65625 138.375 L 190.710938 144.925781 L 147.121094 128.941406 Z M 150.066406 121.792969 "/>
<path style=" stroke:none;fill-rule:nonzero;fill:rgb(39.99939%,39.99939%,39.99939%);fill-opacity:0.3;" d="M 170.9375 112.394531 L 235.84375 133.980469 L 233.027344 141.402344 L 167.984375 119.679688 Z M 170.9375 112.394531 "/>
<path style=" stroke:none;fill-rule:nonzero;fill:rgb(39.99939%,39.99939%,39.99939%);fill-opacity:0.3;" d="M 252.050781 115.820312 L 306.363281 135.847656 L 303.785156 143.246094 L 249.289062 123.222656 Z M 252.050781 115.820312 "/>
<path style=" stroke:none;fill-rule:nonzero;fill:rgb(39.99939%,39.99939%,39.99939%);fill-opacity:0.3;" d="M 313.308594 138.320312 L 344.792969 149.820312 L 338.976562 156.164062 L 310.167969 145.542969 Z M 313.308594 138.320312 "/>
<g clip-path="url(#clip6)" clip-rule="nonzero">
<path style=" stroke:none;fill-rule:nonzero;fill:rgb(39.99939%,39.99939%,39.99939%);fill-opacity:0.3;" d="M 344.792969 149.820312 L 365.128906 157.246094 L 362.039062 164.667969 L 338.976562 156.164062 Z M 344.792969 149.820312 "/>
</g>
<path style="fill-rule:nonzero;fill:rgb(39.99939%,39.99939%,39.99939%);fill-opacity:1;stroke-width:0.03;stroke-linecap:square;stroke-linejoin:miter;stroke:rgb(39.99939%,39.99939%,39.99939%);stroke-opacity:1;stroke-miterlimit:3.239307;" d="M 318.476562 272.9375 L 362.839844 286.777344 L 360.796875 296.394531 L 316.105469 281.746094 Z M 318.476562 272.9375 " transform="matrix(1,0,0,1,-74,-13)"/>
<path style="fill-rule:nonzero;fill:rgb(39.99939%,39.99939%,39.99939%);fill-opacity:1;stroke-width:0.03;stroke-linecap:square;stroke-linejoin:miter;stroke:rgb(39.99939%,39.99939%,39.99939%);stroke-opacity:1;stroke-miterlimit:3.239307;" d="M 150.347656 272.996094 L 210.648438 292.628906 L 207.089844 303.496094 L 146.597656 283.734375 Z M 150.347656 272.996094 " transform="matrix(1,0,0,1,-74,-13)"/>
<path style="fill-rule:nonzero;fill:rgb(39.99939%,39.99939%,39.99939%);fill-opacity:1;stroke-width:0.03;stroke-linecap:square;stroke-linejoin:miter;stroke:rgb(39.99939%,39.99939%,39.99939%);stroke-opacity:1;stroke-miterlimit:3.239307;" d="M 160.675781 252.523438 L 204.089844 266.476562 L 199.714844 278.789062 L 155.726562 265.457031 Z M 160.675781 252.523438 " transform="matrix(1,0,0,1,-74,-13)"/>
<path style="fill-rule:nonzero;fill:rgb(39.99939%,39.99939%,39.99939%);fill-opacity:1;stroke-width:0.03;stroke-linecap:square;stroke-linejoin:miter;stroke:rgb(39.99939%,39.99939%,39.99939%);stroke-opacity:1;stroke-miterlimit:3.239307;" d="M 230.605469 272.835938 L 289.71875 289.808594 L 286.449219 300.734375 L 226.519531 283.375 Z M 230.605469 272.835938 " transform="matrix(1,0,0,1,-74,-13)"/>
<path style="fill-rule:nonzero;fill:rgb(39.99939%,39.99939%,39.99939%);fill-opacity:1;stroke-width:0.03;stroke-linecap:square;stroke-linejoin:miter;stroke:rgb(39.99939%,39.99939%,39.99939%);stroke-opacity:1;stroke-miterlimit:3.239307;" d="M 245.070312 232.730469 L 304.640625 252.605469 L 299.835938 266.007812 L 240.164062 246.386719 Z M 245.070312 232.730469 " transform="matrix(1,0,0,1,-74,-13)"/>
<path style="fill-rule:nonzero;fill:rgb(39.99939%,39.99939%,39.99939%);fill-opacity:1;stroke-width:0.03;stroke-linecap:square;stroke-linejoin:miter;stroke:rgb(39.99939%,39.99939%,39.99939%);stroke-opacity:1;stroke-miterlimit:3.239307;" d="M 227.261719 230.050781 L 239.578125 233.523438 L 222.796875 281.503906 L 210.074219 278.421875 Z M 227.261719 230.050781 " transform="matrix(1,0,0,1,-74,-13)"/>
<path style="fill-rule:nonzero;fill:rgb(39.99939%,39.99939%,39.99939%);fill-opacity:1;stroke-width:0.03;stroke-linecap:square;stroke-linejoin:miter;stroke:rgb(39.99939%,39.99939%,39.99939%);stroke-opacity:1;stroke-miterlimit:3.239307;" d="M 286.617188 263.039062 L 297.257812 266.167969 L 290.457031 283.382812 L 279.816406 280.253906 Z M 286.617188 263.039062 " transform="matrix(1,0,0,1,-74,-13)"/>
<path style="fill-rule:nonzero;fill:rgb(39.99939%,39.99939%,39.99939%);fill-opacity:1;stroke-width:0.03;stroke-linecap:square;stroke-linejoin:miter;stroke:rgb(39.99939%,39.99939%,39.99939%);stroke-opacity:1;stroke-miterlimit:3.239307;" d="M 332.183594 234.058594 L 374.5625 247.183594 L 370.886719 256.949219 L 327.496094 243.550781 Z M 332.183594 234.058594 " transform="matrix(1,0,0,1,-74,-13)"/>
<path style="fill-rule:nonzero;fill:rgb(39.99939%,39.99939%,39.99939%);fill-opacity:1;stroke-width:0.03;stroke-linecap:square;stroke-linejoin:miter;stroke:rgb(39.99939%,39.99939%,39.99939%);stroke-opacity:1;stroke-miterlimit:3.239307;" d="M 305.035156 295.480469 L 357.589844 311.507812 L 355.449219 321.570312 L 302.277344 305.179688 Z M 305.035156 295.480469 " transform="matrix(1,0,0,1,-74,-13)"/>
<path style="fill-rule:nonzero;fill:rgb(39.99939%,39.99939%,39.99939%);fill-opacity:1;stroke-width:0.03;stroke-linecap:square;stroke-linejoin:miter;stroke:rgb(39.99939%,39.99939%,39.99939%);stroke-opacity:1;stroke-miterlimit:3.239307;" d="M 150.378906 213.289062 L 160.421875 199.304688 L 168.71875 194.714844 L 173.464844 193.570312 L 177.804688 192.984375 L 181.558594 192.746094 L 146.210938 280.496094 L 130.066406 282.695312 L 125.429688 281.292969 Z M 150.378906 213.289062 " transform="matrix(1,0,0,1,-74,-13)"/>
<path style="fill-rule:nonzero;fill:rgb(39.99939%,39.99939%,39.99939%);fill-opacity:1;stroke-width:0.03;stroke-linecap:square;stroke-linejoin:miter;stroke:rgb(39.99939%,39.99939%,39.99939%);stroke-opacity:1;stroke-miterlimit:3.239307;" d="M 340.597656 213.78125 L 382.570312 225.914062 L 377.96875 238.144531 L 334.476562 224.28125 Z M 340.597656 213.78125 " transform="matrix(1,0,0,1,-74,-13)"/>
<path style="fill-rule:nonzero;fill:rgb(39.99939%,39.99939%,39.99939%);fill-opacity:1;stroke-width:0.03;stroke-linecap:square;stroke-linejoin:miter;stroke:rgb(39.99939%,39.99939%,39.99939%);stroke-opacity:1;stroke-miterlimit:3.239307;" d="M 174.5625 215.816406 L 216.492188 228.027344 L 212.78125 240.207031 L 170.730469 227.941406 Z M 174.5625 215.816406 " transform="matrix(1,0,0,1,-74,-13)"/>
<path style="fill-rule:nonzero;fill:rgb(39.99939%,39.99939%,39.99939%);fill-opacity:1;stroke-width:0.03;stroke-linecap:square;stroke-linejoin:miter;stroke:rgb(39.99939%,39.99939%,39.99939%);stroke-opacity:1;stroke-miterlimit:3.239307;" d="M 303.179688 224.863281 L 313.820312 227.988281 L 307.011719 245.195312 L 296.371094 242.070312 Z M 303.179688 224.863281 " transform="matrix(1,0,0,1,-74,-13)"/>
<path style="fill-rule:nonzero;fill:rgb(39.99939%,39.99939%,39.99939%);fill-opacity:1;stroke-width:0.03;stroke-linecap:square;stroke-linejoin:miter;stroke:rgb(39.99939%,39.99939%,39.99939%);stroke-opacity:1;stroke-miterlimit:3.239307;" d="M 179.84375 206.589844 L 181.796875 196.800781 L 328.378906 210.515625 L 328.957031 221.21875 Z M 179.84375 206.589844 " transform="matrix(1,0,0,1,-74,-13)"/>
</g>
</svg>
