<?xml version="1.0" encoding="UTF-8"?>
<svg xmlns="http://www.w3.org/2000/svg" xmlns:xlink="http://www.w3.org/1999/xlink" width="361pt" height="361pt" viewBox="0 0 361 361" version="1.1">
<defs>
<clipPath id="clip1">
  <path d="M 319 73 L 360 73 L 360 176 L 319 176 Z M 319 73 "/>
</clipPath>
<clipPath id="clip2">
  <path d="M 353 44 L 360 44 L 360 157 L 353 157 Z M 353 44 "/>
</clipPath>
<clipPath id="clip3">
  <path d="M 297 0 L 360 0 L 360 66 L 297 66 Z M 297 0 "/>
</clipPath>
</defs>
<g id="surface553">
<path style="fill-rule:nonzero;fill:rgb(0%,0%,0%);fill-opacity:1;stroke-width:0.03;stroke-linecap:square;stroke-linejoin:miter;stroke:rgb(0%,0%,0%);stroke-opacity:1;stroke-miterlimit:10;" d="M 0 178 L 360 178 L 360 -182 L 0 -182 Z M 0 178 " transform="matrix(1,0,0,1,0,182)"/>
<path style=" stroke:none;fill-rule:nonzero;fill:rgb(39.99939%,39.99939%,39.99939%);fill-opacity:0.3;" d="M 247.675781 105.304688 L 273.273438 96.261719 L 261.238281 199.875 L 236.957031 195.957031 Z M 247.675781 105.304688 "/>
<path style=" stroke:none;fill-rule:nonzero;fill:rgb(39.99939%,39.99939%,39.99939%);fill-opacity:0.3;" d="M 267.667969 208.261719 L 291.703125 210.945312 L 295.574219 213.960938 L 284.25 308.570312 L 261.921875 305.136719 L 257.238281 303.535156 Z M 267.667969 208.261719 "/>
<path style=" stroke:none;fill-rule:nonzero;fill:rgb(39.99939%,39.99939%,39.99939%);fill-opacity:0.3;" d="M 280.699219 94.65625 L 308.570312 87.261719 L 297.800781 205.992188 L 268.566406 200.621094 Z M 280.699219 94.65625 "/>
<path style=" stroke:none;fill-rule:nonzero;fill:rgb(39.99939%,39.99939%,39.99939%);fill-opacity:0.3;" d="M 62.90625 171.085938 L 89.691406 176.226562 L 78.21875 272.957031 L 51.429688 268.089844 Z M 62.90625 171.085938 "/>
<path style=" stroke:none;fill-rule:nonzero;fill:rgb(39.99939%,39.99939%,39.99939%);fill-opacity:0.3;" d="M 100.351562 178.394531 L 128.578125 183.257812 L 117.101562 279.167969 L 88.167969 275.371094 Z M 100.351562 178.394531 "/>
<path style=" stroke:none;fill-rule:nonzero;fill:rgb(39.99939%,39.99939%,39.99939%);fill-opacity:0.3;" d="M 133.542969 183.363281 L 159.511719 188.671875 L 147.285156 284.210938 L 121.710938 279.160156 Z M 133.542969 183.363281 "/>
<path style=" stroke:none;fill-rule:nonzero;fill:rgb(39.99939%,39.99939%,39.99939%);fill-opacity:0.3;" d="M 165.527344 189.847656 L 192.867188 193.839844 L 181.144531 289.613281 L 153.550781 285.152344 Z M 165.527344 189.847656 "/>
<path style=" stroke:none;fill-rule:nonzero;fill:rgb(39.99939%,39.99939%,39.99939%);fill-opacity:0.3;" d="M 200.660156 196.097656 L 230.222656 202.3125 L 218.753906 296.851562 L 189.535156 291.597656 Z M 200.660156 196.097656 "/>
<path style=" stroke:none;fill-rule:nonzero;fill:rgb(39.99939%,39.99939%,39.99939%);fill-opacity:0.3;" d="M 235.628906 202.492188 L 261.332031 207.179688 L 250.152344 301.4375 L 225.664062 297.929688 Z M 235.628906 202.492188 "/>
<path style=" stroke:none;fill-rule:nonzero;fill:rgb(39.99939%,39.99939%,39.99939%);fill-opacity:0.3;" d="M 63.652344 165.871094 L 64 161.808594 L 87.472656 154.195312 L 86.089844 169.449219 Z M 63.652344 165.871094 "/>
<path style=" stroke:none;fill-rule:nonzero;fill:rgb(39.99939%,39.99939%,39.99939%);fill-opacity:0.3;" d="M 102.976562 172.269531 L 105.285156 148.792969 L 131.453125 140.652344 L 128.191406 176.613281 Z M 102.976562 172.269531 "/>
<path style=" stroke:none;fill-rule:nonzero;fill:rgb(39.99939%,39.99939%,39.99939%);fill-opacity:0.3;" d="M 133 177.414062 L 137.722656 138.363281 L 165.898438 130.015625 L 159.914062 181.59375 Z M 133 177.414062 "/>
<path style=" stroke:none;fill-rule:nonzero;fill:rgb(39.99939%,39.99939%,39.99939%);fill-opacity:0.3;" d="M 165.925781 182.296875 L 172.410156 128.101562 L 200.460938 119.734375 L 193.484375 188.1875 Z M 165.925781 182.296875 "/>
<path style=" stroke:none;fill-rule:nonzero;fill:rgb(39.99939%,39.99939%,39.99939%);fill-opacity:0.3;" d="M 208.703125 117.671875 L 239.617188 107.164062 L 229.84375 194.21875 L 201.675781 189.066406 Z M 208.703125 117.671875 "/>
<g clip-path="url(#clip1)" clip-rule="nonzero">
<path style=" stroke:none;fill-rule:nonzero;fill:rgb(39.99939%,39.99939%,39.99939%);fill-opacity:0.3;" d="M 319.71875 81.660156 L 347.5 73.710938 L 395.121094 159.585938 L 362.082031 175.84375 Z M 319.71875 81.660156 "/>
</g>
<path style=" stroke:none;fill-rule:nonzero;fill:rgb(39.99939%,39.99939%,39.99939%);fill-opacity:0.3;" d="M 308.945312 197.160156 L 319.179688 101.957031 L 322.066406 101.957031 L 354.414062 175.320312 Z M 308.945312 197.160156 "/>
<g clip-path="url(#clip2)" clip-rule="nonzero">
<path style=" stroke:none;fill-rule:nonzero;fill:rgb(39.99939%,39.99939%,39.99939%);fill-opacity:0.3;" d="M 400.71875 156.121094 L 353.660156 71.574219 L 445.75 44.269531 L 479.078125 46.945312 L 501.511719 104.957031 Z M 400.71875 156.121094 "/>
</g>
<path style=" stroke:none;fill-rule:nonzero;fill:rgb(39.99939%,39.99939%,39.99939%);fill-opacity:0.3;" d="M 30.359375 171.421875 L 57.429688 163.445312 L 44.804688 267.285156 L 20.03125 263.234375 Z M 30.359375 171.421875 "/>
<path style=" stroke:none;fill-rule:nonzero;fill:rgb(39.99939%,39.99939%,39.99939%);fill-opacity:0.3;" d="M -71.382812 203.746094 L -22 188.214844 L -1.488281 181.765625 L 22.609375 174.1875 L 14 246.054688 L -8.609375 254.449219 L -24.855469 260.480469 L -86.558594 283.390625 L -85.960938 276.9375 L -84.566406 269.042969 L -80.964844 261.171875 L -76.765625 250.535156 L -67.972656 229.367188 L -63.777344 215.5 L -66.164062 210.378906 Z M -71.382812 203.746094 "/>
<path style=" stroke:none;fill-rule:nonzero;fill:rgb(39.99939%,39.99939%,39.99939%);fill-opacity:0.3;" d="M 50.660156 125.320312 L 49.335938 129.667969 L 41.890625 141.996094 L 35.082031 150.484375 L 28.113281 154.375 L 19.53125 157.460938 L -36.792969 174.761719 L -52.109375 179.464844 L -64.164062 158.808594 L -59.296875 136.488281 L -90.847656 130.835938 L -95.710938 164.3125 L -80.507812 165.101562 L -75.644531 136.792969 L -65.03125 137.859375 L -69.324219 166.4375 L -59.289062 181.441406 L -59.789062 181.746094 L -60.972656 183.144531 L -61.152344 184.085938 L -99.519531 194.453125 L -107.917969 175.609375 L -111.484375 167.609375 L -149.066406 147.820312 L -158.542969 88.015625 L -151.617188 87.105469 Z M 50.660156 125.320312 "/>
<path style=" stroke:none;fill-rule:nonzero;fill:rgb(39.99939%,39.99939%,39.99939%);fill-opacity:0.3;" d="M 126.347656 59.066406 L 132.078125 59.054688 L 132.078125 62.683594 L 126.347656 62.695312 Z M 126.347656 59.066406 "/>
<path style=" stroke:none;fill-rule:nonzero;fill:rgb(39.99939%,39.99939%,39.99939%);fill-opacity:0.3;" d="M 115.460938 108.5625 L 149.917969 112.363281 L 111.710938 125.210938 Z M 115.460938 108.5625 "/>
<path style=" stroke:none;fill-rule:nonzero;fill:rgb(39.99939%,39.99939%,39.99939%);fill-opacity:0.3;" d="M 32.722656 17.539062 L 38.367188 18.195312 L 35.597656 39.398438 L 29.953125 38.742188 Z M 32.722656 17.539062 "/>
<path style=" stroke:none;fill-rule:nonzero;fill:rgb(39.99939%,39.99939%,39.99939%);fill-opacity:0.3;" d="M 46.269531 5.882812 L 51.792969 6.65625 L 47.261719 36.140625 L 41.636719 35.355469 Z M 46.269531 5.882812 "/>
<path style=" stroke:none;fill-rule:nonzero;fill:rgb(39.99939%,39.99939%,39.99939%);fill-opacity:0.3;" d="M 24.46875 -6.464844 L 53.5 -2.1875 L 52.507812 3.8125 L 23.476562 -0.464844 Z M 24.46875 -6.464844 "/>
<g clip-path="url(#clip3)" clip-rule="nonzero">
<path style=" stroke:none;fill-rule:nonzero;fill:rgb(39.99939%,39.99939%,39.99939%);fill-opacity:0.3;" d="M 358.878906 17.070312 L 363.898438 -4.183594 L 348.042969 -7.738281 L 345.691406 6.367188 L 319.730469 3.6875 L 323.128906 -22.976562 L 324.234375 -26.917969 L 338.027344 -27.714844 L 432.96875 -9.851562 L 446.09375 -0.816406 L 464.539062 9.59375 L 467.035156 15.859375 L 312.433594 65.136719 L 297.324219 21.992188 L 356.867188 19.9375 Z M 358.878906 17.070312 "/>
</g>
<path style=" stroke:none;fill-rule:nonzero;fill:rgb(39.99939%,39.99939%,39.99939%);fill-opacity:0.3;" d="M 152.667969 7.589844 L 151.351562 14.742188 L 130.652344 11.335938 L 131.964844 4.1875 Z M 152.667969 7.589844 "/>
<path style=" stroke:none;fill-rule:nonzero;fill:rgb(39.99939%,39.99939%,39.99939%);fill-opacity:0.3;" d="M 160.792969 18.886719 L 159.554688 26.046875 L 127.507812 21.089844 L 128.75 13.925781 Z M 160.792969 18.886719 "/>
<path style=" stroke:none;fill-rule:nonzero;fill:rgb(39.99939%,39.99939%,39.99939%);fill-opacity:0.3;" d="M 141.046875 -35.332031 L 148.15625 -33.863281 L 138.914062 0.96875 L 131.519531 -0.84375 Z M 141.046875 -35.332031 "/>
<path style=" stroke:none;fill-rule:nonzero;fill:rgb(39.99939%,39.99939%,39.99939%);fill-opacity:0.3;" d="M 212.472656 57.664062 L 219.695312 58.492188 L 213.949219 93.988281 L 206.402344 92.84375 Z M 212.472656 57.664062 "/>
<path style=" stroke:none;fill-rule:nonzero;fill:rgb(39.99939%,39.99939%,39.99939%);fill-opacity:0.3;" d="M 134.457031 68.46875 L 141.679688 69.296875 L 135.929688 104.792969 L 128.386719 103.648438 Z M 134.457031 68.46875 "/>
<path style=" stroke:none;fill-rule:nonzero;fill:rgb(39.99939%,39.99939%,39.99939%);fill-opacity:0.3;" d="M 120.675781 66.117188 L 127.898438 66.945312 L 122.148438 102.441406 L 114.601562 101.296875 Z M 120.675781 66.117188 "/>
<path style=" stroke:none;fill-rule:nonzero;fill:rgb(39.99939%,39.99939%,39.99939%);fill-opacity:0.3;" d="M 162.046875 103.007812 L 160.734375 110.15625 L 140.035156 106.75 L 141.347656 99.601562 Z M 162.046875 103.007812 "/>
<path style=" stroke:none;fill-rule:nonzero;fill:rgb(39.99939%,39.99939%,39.99939%);fill-opacity:0.3;" d="M 200.601562 91.972656 L 199.285156 99.121094 L 178.585938 95.71875 L 179.898438 88.566406 Z M 200.601562 91.972656 "/>
<path style=" stroke:none;fill-rule:nonzero;fill:rgb(39.99939%,39.99939%,39.99939%);fill-opacity:0.3;" d="M 203.097656 79.191406 L 201.785156 86.339844 L 181.085938 82.933594 L 182.398438 75.785156 Z M 203.097656 79.191406 "/>
<path style=" stroke:none;fill-rule:nonzero;fill:rgb(39.99939%,39.99939%,39.99939%);fill-opacity:0.3;" d="M 205.597656 67.296875 L 204.285156 74.449219 L 183.585938 71.042969 L 184.898438 63.894531 Z M 205.597656 67.296875 "/>
<path style=" stroke:none;fill-rule:nonzero;fill:rgb(39.99939%,39.99939%,39.99939%);fill-opacity:0.3;" d="M -151.636719 87.097656 L -27.75 71.296875 L 60.550781 60.035156 L 57.4375 84.671875 L 56.292969 96.816406 L 53.84375 112.046875 L 52.402344 119.578125 L 50.660156 125.320312 L -151.617188 87.105469 Z M -151.636719 87.097656 "/>
<path style=" stroke:none;fill-rule:nonzero;fill:rgb(39.99939%,39.99939%,39.99939%);fill-opacity:0.3;" d="M -5.21875 12.472656 L 0.425781 13.128906 L -2.34375 34.332031 L -7.988281 33.675781 Z M -5.21875 12.472656 "/>
<path style=" stroke:none;fill-rule:nonzero;fill:rgb(39.99939%,39.99939%,39.99939%);fill-opacity:0.3;" d="M 5.527344 3.117188 L 34.558594 7.394531 L 33.570312 13.394531 L 4.539062 9.117188 Z M 5.527344 3.117188 "/>
<path style=" stroke:none;fill-rule:nonzero;fill:rgb(39.99939%,39.99939%,39.99939%);fill-opacity:0.3;" d="M 162.332031 63.664062 L 169.554688 64.492188 L 163.804688 99.988281 L 156.261719 98.84375 Z M 162.332031 63.664062 "/>
<path style=" stroke:none;fill-rule:nonzero;fill:rgb(39.99939%,39.99939%,39.99939%);fill-opacity:0.3;" d="M 256.96875 73.449219 L 255.65625 80.601562 L 234.953125 77.195312 L 236.269531 70.042969 Z M 256.96875 73.449219 "/>
<path style=" stroke:none;fill-rule:nonzero;fill:rgb(39.99939%,39.99939%,39.99939%);fill-opacity:0.3;" d="M 148.234375 61.90625 L 155.460938 62.734375 L 149.707031 98.230469 L 142.164062 97.085938 Z M 148.234375 61.90625 "/>
<path style=" stroke:none;fill-rule:nonzero;fill:rgb(39.99939%,39.99939%,39.99939%);fill-opacity:0.3;" d="M 285 46.410156 L 298.136719 43.445312 L 304.917969 65.949219 L 291.78125 68.917969 Z M 285 46.410156 "/>
<path style=" stroke:none;fill-rule:nonzero;fill:rgb(39.99939%,39.99939%,39.99939%);fill-opacity:0.3;" d="M 265.058594 51.796875 L 272.5 53.320312 L 268.484375 70.917969 L 261.042969 69.398438 Z M 265.058594 51.796875 "/>
<path style=" stroke:none;fill-rule:nonzero;fill:rgb(39.99939%,39.99939%,39.99939%);fill-opacity:0.3;" d="M 253.78125 47.953125 L 261.222656 49.476562 L 257.207031 67.074219 L 249.765625 65.550781 Z M 253.78125 47.953125 "/>
<path style=" stroke:none;fill-rule:nonzero;fill:rgb(39.99939%,39.99939%,39.99939%);fill-opacity:0.3;" d="M 241.25 45.597656 L 248.691406 47.121094 L 244.679688 64.71875 L 237.234375 63.195312 Z M 241.25 45.597656 "/>
<path style=" stroke:none;fill-rule:nonzero;fill:rgb(39.99939%,39.99939%,39.99939%);fill-opacity:0.3;" d="M 226.566406 52.882812 L 233.789062 53.710938 L 228.039062 89.207031 L 220.496094 88.0625 Z M 226.566406 52.882812 "/>
<path style=" stroke:none;fill-rule:nonzero;fill:rgb(39.99939%,39.99939%,39.99939%);fill-opacity:0.3;" d="M 207.785156 54.8125 L 206.46875 61.964844 L 185.769531 58.558594 L 187.085938 51.40625 Z M 207.785156 54.8125 "/>
<path style=" stroke:none;fill-rule:nonzero;fill:rgb(39.99939%,39.99939%,39.99939%);fill-opacity:0.3;" d="M 340.765625 7.203125 L 339.929688 14.417969 L 319.042969 12.253906 L 319.878906 5.039062 Z M 340.765625 7.203125 "/>
<path style=" stroke:none;fill-rule:nonzero;fill:rgb(39.99939%,39.99939%,39.99939%);fill-opacity:0.3;" d="M 351.226562 -5.136719 L 358.753906 -4.054688 L 355.902344 13.746094 L 348.375 12.664062 Z M 351.226562 -5.136719 "/>
<path style=" stroke:none;fill-rule:nonzero;fill:rgb(39.99939%,39.99939%,39.99939%);fill-opacity:0.3;" d="M 312.449219 -16.992188 L 319.976562 -15.914062 L 317.125 1.890625 L 309.597656 0.808594 Z M 312.449219 -16.992188 "/>
<path style=" stroke:none;fill-rule:nonzero;fill:rgb(39.99939%,39.99939%,39.99939%);fill-opacity:0.3;" d="M 298.460938 -14.644531 L 306.011719 -13.722656 L 303.578125 4.132812 L 296.027344 3.210938 Z M 298.460938 -14.644531 "/>
<path style=" stroke:none;fill-rule:nonzero;fill:rgb(39.99939%,39.99939%,39.99939%);fill-opacity:0.3;" d="M 303.234375 8.507812 L 301.921875 15.65625 L 281.222656 12.25 L 282.535156 5.101562 Z M 303.234375 8.507812 "/>
<path style=" stroke:none;fill-rule:nonzero;fill:rgb(39.99939%,39.99939%,39.99939%);fill-opacity:0.3;" d="M 275.230469 -18.601562 L 282.453125 -17.773438 L 276.707031 17.726562 L 269.160156 16.578125 Z M 275.230469 -18.601562 "/>
<path style=" stroke:none;fill-rule:nonzero;fill:rgb(39.99939%,39.99939%,39.99939%);fill-opacity:0.3;" d="M 264.710938 10.867188 L 263.394531 18.015625 L 242.695312 14.609375 L 244.011719 7.460938 Z M 264.710938 10.867188 "/>
<path style=" stroke:none;fill-rule:nonzero;fill:rgb(39.99939%,39.99939%,39.99939%);fill-opacity:0.3;" d="M 267.472656 0.117188 L 266.15625 7.269531 L 245.457031 3.863281 L 246.769531 -3.289062 Z M 267.472656 0.117188 "/>
<path style=" stroke:none;fill-rule:nonzero;fill:rgb(39.99939%,39.99939%,39.99939%);fill-opacity:0.3;" d="M 202.300781 14.992188 L 201.0625 22.15625 L 169.019531 17.195312 L 170.257812 10.035156 Z M 202.300781 14.992188 "/>
<path style=" stroke:none;fill-rule:nonzero;fill:rgb(39.99939%,39.99939%,39.99939%);fill-opacity:0.3;" d="M 236.878906 -20.195312 L 244.101562 -19.363281 L 238.351562 16.132812 L 230.808594 14.988281 Z M 236.878906 -20.195312 "/>
<path style=" stroke:none;fill-rule:nonzero;fill:rgb(39.99939%,39.99939%,39.99939%);fill-opacity:0.3;" d="M 224.804688 -14.445312 L 232.027344 -13.613281 L 226.28125 21.882812 L 218.738281 20.738281 Z M 224.804688 -14.445312 "/>
<path style=" stroke:none;fill-rule:nonzero;fill:rgb(39.99939%,39.99939%,39.99939%);fill-opacity:0.3;" d="M 212.980469 -16.8125 L 220.203125 -15.980469 L 214.453125 19.515625 L 206.910156 18.371094 Z M 212.980469 -16.8125 "/>
<path style=" stroke:none;fill-rule:nonzero;fill:rgb(39.99939%,39.99939%,39.99939%);fill-opacity:0.3;" d="M 197.714844 -7.292969 L 205.15625 -5.773438 L 201.144531 11.828125 L 193.703125 10.304688 Z M 197.714844 -7.292969 "/>
<path style=" stroke:none;fill-rule:nonzero;fill:rgb(39.99939%,39.99939%,39.99939%);fill-opacity:0.3;" d="M 188.574219 -26.792969 L 195.796875 -25.964844 L 190.046875 9.53125 L 182.503906 8.386719 Z M 188.574219 -26.792969 "/>
<path style=" stroke:none;fill-rule:nonzero;fill:rgb(39.99939%,39.99939%,39.99939%);fill-opacity:0.3;" d="M 162.664062 -19.585938 L 169.886719 -18.757812 L 164.136719 16.738281 L 156.59375 15.59375 Z M 162.664062 -19.585938 "/>
<path style=" stroke:none;fill-rule:nonzero;fill:rgb(39.99939%,39.99939%,39.99939%);fill-opacity:0.3;" d="M 153.128906 -34.007812 L 160.238281 -32.535156 L 150.996094 2.296875 L 143.601562 0.480469 Z M 153.128906 -34.007812 "/>
<path style=" stroke:none;fill-rule:nonzero;fill:rgb(39.99939%,39.99939%,39.99939%);fill-opacity:0.3;" d="M 24.667969 33.503906 L 24.023438 38.871094 L 1.671875 36.480469 L 2.320312 31.113281 Z M 24.667969 33.503906 "/>
<path style="fill-rule:nonzero;fill:rgb(39.99939%,39.99939%,39.99939%);fill-opacity:1;stroke-width:0.03;stroke-linecap:square;stroke-linejoin:miter;stroke:rgb(39.99939%,39.99939%,39.99939%);stroke-opacity:1;stroke-miterlimit:3.239307;" d="M 321.675781 118.304688 L 347.273438 109.261719 L 335.238281 212.875 L 310.957031 208.957031 Z M 321.675781 118.304688 " transform="matrix(1,0,0,1,-74,-13)"/>
<path style="fill-rule:nonzero;fill:rgb(39.99939%,39.99939%,39.99939%);fill-opacity:1;stroke-width:0.03;stroke-linecap:square;stroke-linejoin:miter;stroke:rgb(39.99939%,39.99939%,39.99939%);stroke-opacity:1;stroke-miterlimit:3.239307;" d="M 341.667969 221.261719 L 365.703125 223.945312 L 369.574219 226.960938 L 358.25 321.570312 L 335.921875 318.136719 L 331.238281 316.535156 Z M 341.667969 221.261719 " transform="matrix(1,0,0,1,-74,-13)"/>
<path style="fill-rule:nonzero;fill:rgb(39.99939%,39.99939%,39.99939%);fill-opacity:1;stroke-width:0.03;stroke-linecap:square;stroke-linejoin:miter;stroke:rgb(39.99939%,39.99939%,39.99939%);stroke-opacity:1;stroke-miterlimit:3.239307;" d="M 354.699219 107.65625 L 382.570312 100.261719 L 371.800781 218.992188 L 342.566406 213.621094 Z M 354.699219 107.65625 " transform="matrix(1,0,0,1,-74,-13)"/>
<path style="fill-rule:nonzero;fill:rgb(39.99939%,39.99939%,39.99939%);fill-opacity:1;stroke-width:0.03;stroke-linecap:square;stroke-linejoin:miter;stroke:rgb(39.99939%,39.99939%,39.99939%);stroke-opacity:1;stroke-miterlimit:3.239307;" d="M 136.90625 184.085938 L 163.691406 189.226562 L 152.21875 285.957031 L 125.429688 281.089844 Z M 136.90625 184.085938 " transform="matrix(1,0,0,1,-74,-13)"/>
<path style="fill-rule:nonzero;fill:rgb(39.99939%,39.99939%,39.99939%);fill-opacity:1;stroke-width:0.03;stroke-linecap:square;stroke-linejoin:miter;stroke:rgb(39.99939%,39.99939%,39.99939%);stroke-opacity:1;stroke-miterlimit:3.239307;" d="M 174.351562 191.394531 L 202.578125 196.257812 L 191.101562 292.167969 L 162.167969 288.371094 Z M 174.351562 191.394531 " transform="matrix(1,0,0,1,-74,-13)"/>
<path style="fill-rule:nonzero;fill:rgb(39.99939%,39.99939%,39.99939%);fill-opacity:1;stroke-width:0.03;stroke-linecap:square;stroke-linejoin:miter;stroke:rgb(39.99939%,39.99939%,39.99939%);stroke-opacity:1;stroke-miterlimit:3.239307;" d="M 207.542969 196.363281 L 233.511719 201.671875 L 221.285156 297.210938 L 195.710938 292.160156 Z M 207.542969 196.363281 " transform="matrix(1,0,0,1,-74,-13)"/>
<path style="fill-rule:nonzero;fill:rgb(39.99939%,39.99939%,39.99939%);fill-opacity:1;stroke-width:0.03;stroke-linecap:square;stroke-linejoin:miter;stroke:rgb(39.99939%,39.99939%,39.99939%);stroke-opacity:1;stroke-miterlimit:3.239307;" d="M 239.527344 202.847656 L 266.867188 206.839844 L 255.144531 302.613281 L 227.550781 298.152344 Z M 239.527344 202.847656 " transform="matrix(1,0,0,1,-74,-13)"/>
<path style="fill-rule:nonzero;fill:rgb(39.99939%,39.99939%,39.99939%);fill-opacity:1;stroke-width:0.03;stroke-linecap:square;stroke-linejoin:miter;stroke:rgb(39.99939%,39.99939%,39.99939%);stroke-opacity:1;stroke-miterlimit:3.239307;" d="M 274.660156 209.097656 L 304.222656 215.3125 L 292.753906 309.851562 L 263.535156 304.597656 Z M 274.660156 209.097656 " transform="matrix(1,0,0,1,-74,-13)"/>
<path style="fill-rule:nonzero;fill:rgb(39.99939%,39.99939%,39.99939%);fill-opacity:1;stroke-width:0.03;stroke-linecap:square;stroke-linejoin:miter;stroke:rgb(39.99939%,39.99939%,39.99939%);stroke-opacity:1;stroke-miterlimit:3.239307;" d="M 309.628906 215.492188 L 335.332031 220.179688 L 324.152344 314.4375 L 299.664062 310.929688 Z M 309.628906 215.492188 " transform="matrix(1,0,0,1,-74,-13)"/>
<path style="fill-rule:nonzero;fill:rgb(39.99939%,39.99939%,39.99939%);fill-opacity:1;stroke-width:0.03;stroke-linecap:square;stroke-linejoin:miter;stroke:rgb(39.99939%,39.99939%,39.99939%);stroke-opacity:1;stroke-miterlimit:3.239307;" d="M 137.652344 178.871094 L 138 174.808594 L 161.472656 167.195312 L 160.089844 182.449219 Z M 137.652344 178.871094 " transform="matrix(1,0,0,1,-74,-13)"/>
<path style="fill-rule:nonzero;fill:rgb(39.99939%,39.99939%,39.99939%);fill-opacity:1;stroke-width:0.03;stroke-linecap:square;stroke-linejoin:miter;stroke:rgb(39.99939%,39.99939%,39.99939%);stroke-opacity:1;stroke-miterlimit:3.239307;" d="M 176.976562 185.269531 L 179.285156 161.792969 L 205.453125 153.652344 L 202.191406 189.613281 Z M 176.976562 185.269531 " transform="matrix(1,0,0,1,-74,-13)"/>
<path style="fill-rule:nonzero;fill:rgb(39.99939%,39.99939%,39.99939%);fill-opacity:1;stroke-width:0.03;stroke-linecap:square;stroke-linejoin:miter;stroke:rgb(39.99939%,39.99939%,39.99939%);stroke-opacity:1;stroke-miterlimit:3.239307;" d="M 207 190.414062 L 211.722656 151.363281 L 239.898438 143.015625 L 233.914062 194.59375 Z M 207 190.414062 " transform="matrix(1,0,0,1,-74,-13)"/>
<path style="fill-rule:nonzero;fill:rgb(39.99939%,39.99939%,39.99939%);fill-opacity:1;stroke-width:0.03;stroke-linecap:square;stroke-linejoin:miter;stroke:rgb(39.99939%,39.99939%,39.99939%);stroke-opacity:1;stroke-miterlimit:3.239307;" d="M 239.925781 195.296875 L 246.410156 141.101562 L 274.460938 132.734375 L 267.484375 201.1875 Z M 239.925781 195.296875 " transform="matrix(1,0,0,1,-74,-13)"/>
<path style="fill-rule:nonzero;fill:rgb(39.99939%,39.99939%,39.99939%);fill-opacity:1;stroke-width:0.03;stroke-linecap:square;stroke-linejoin:miter;stroke:rgb(39.99939%,39.99939%,39.99939%);stroke-opacity:1;stroke-miterlimit:3.239307;" d="M 282.703125 130.671875 L 313.617188 120.164062 L 303.84375 207.21875 L 275.675781 202.066406 Z M 282.703125 130.671875 " transform="matrix(1,0,0,1,-74,-13)"/>
<path style=" stroke:none;fill-rule:evenodd;fill:rgb(85.096741%,85.096741%,81.959534%);fill-opacity:0.7;" d="M 203.765625 109 C 203.765625 101.902344 200.945312 95.09375 195.925781 90.074219 C 190.90625 85.054688 184.097656 82.234375 177 82.234375 C 169.902344 82.234375 163.09375 85.054688 158.074219 90.074219 C 153.054688 95.09375 150.234375 101.902344 150.234375 109 C 150.234375 116.097656 153.054688 122.90625 158.074219 127.925781 C 163.09375 132.945312 169.902344 135.765625 177 135.765625 C 184.097656 135.765625 190.90625 132.945312 195.925781 127.925781 C 200.945312 122.90625 203.765625 116.097656 203.765625 109 Z M 203.765625 109 "/>
<path style=" stroke:none;fill-rule:evenodd;fill:rgb(85.096741%,85.096741%,81.959534%);fill-opacity:0.7;" d="M 223.765625 103 C 223.765625 95.902344 220.945312 89.09375 215.925781 84.074219 C 210.90625 79.054688 204.097656 76.234375 197 76.234375 C 189.902344 76.234375 183.09375 79.054688 178.074219 84.074219 C 173.054688 89.09375 170.234375 95.902344 170.234375 103 C 170.234375 110.097656 173.054688 116.90625 178.074219 121.925781 C 183.09375 126.945312 189.902344 129.765625 197 129.765625 C 204.097656 129.765625 210.90625 126.945312 215.925781 121.925781 C 220.945312 116.90625 223.765625 110.097656 223.765625 103 Z M 223.765625 103 "/>
</g>
</svg>
