<?xml version="1.0" encoding="UTF-8"?>
<svg xmlns="http://www.w3.org/2000/svg" xmlns:xlink="http://www.w3.org/1999/xlink" width="361pt" height="361pt" viewBox="0 0 361 361" version="1.1">
<defs>
<clipPath id="clip1">
  <path d="M 0 317 L 13 317 L 13 360 L 0 360 Z M 0 317 "/>
</clipPath>
<clipPath id="clip2">
  <path d="M 162 331 L 224 331 L 224 360 L 162 360 Z M 162 331 "/>
</clipPath>
<clipPath id="clip3">
  <path d="M 121 353 L 159 353 L 159 360 L 121 360 Z M 121 353 "/>
</clipPath>
<clipPath id="clip4">
  <path d="M 224 340 L 278 340 L 278 360 L 224 360 Z M 224 340 "/>
</clipPath>
<clipPath id="clip5">
  <path d="M 274 351 L 280 351 L 280 360 L 274 360 Z M 274 351 "/>
</clipPath>
<clipPath id="clip6">
  <path d="M 222 354 L 273 354 L 273 360 L 222 360 Z M 222 354 "/>
</clipPath>
<clipPath id="clip7">
  <path d="M 160 357 L 219 357 L 219 360 L 160 360 Z M 160 357 "/>
</clipPath>
<clipPath id="clip8">
  <path d="M 6 343 L 41 343 L 41 360 L 6 360 Z M 6 343 "/>
</clipPath>
<clipPath id="clip9">
  <path d="M 50 352 L 105 352 L 105 360 L 50 360 Z M 50 352 "/>
</clipPath>
<clipPath id="clip10">
  <path d="M 28 347 L 58 347 L 58 360 L 28 360 Z M 28 347 "/>
</clipPath>
<clipPath id="clip11">
  <path d="M 27 267 L 152 267 L 152 360 L 27 360 Z M 27 267 "/>
</clipPath>
<clipPath id="clip12">
  <path d="M 348 56 L 360 56 L 360 113 L 348 113 Z M 348 56 "/>
</clipPath>
<clipPath id="clip13">
  <path d="M 280 67 L 360 67 L 360 146 L 280 146 Z M 280 67 "/>
</clipPath>
<clipPath id="clip14">
  <path d="M 237 133 L 360 133 L 360 243 L 237 243 Z M 237 133 "/>
</clipPath>
<clipPath id="clip15">
  <path d="M 353 142 L 360 142 L 360 159 L 353 159 Z M 353 142 "/>
</clipPath>
<clipPath id="clip16">
  <path d="M 309 177 L 360 177 L 360 226 L 309 226 Z M 309 177 "/>
</clipPath>
<clipPath id="clip17">
  <path d="M 318 161 L 360 161 L 360 199 L 318 199 Z M 318 161 "/>
</clipPath>
<clipPath id="clip18">
  <path d="M 294 201 L 360 201 L 360 253 L 294 253 Z M 294 201 "/>
</clipPath>
<clipPath id="clip19">
  <path d="M 359 34 L 360 34 L 360 66 L 359 66 Z M 359 34 "/>
</clipPath>
<clipPath id="clip20">
  <path d="M 305 0 L 360 0 L 360 54 L 305 54 Z M 305 0 "/>
</clipPath>
<clipPath id="clip21">
  <path d="M 347 248 L 360 248 L 360 272 L 347 272 Z M 347 248 "/>
</clipPath>
<clipPath id="clip22">
  <path d="M 348 267 L 360 267 L 360 302 L 348 302 Z M 348 267 "/>
</clipPath>
<clipPath id="clip23">
  <path d="M 264 300 L 360 300 L 360 360 L 264 360 Z M 264 300 "/>
</clipPath>
<clipPath id="clip24">
  <path d="M 275 351 L 328 351 L 328 360 L 275 360 Z M 275 351 "/>
</clipPath>
<clipPath id="clip25">
  <path d="M 332 64 L 360 64 L 360 120 L 332 120 Z M 332 64 "/>
</clipPath>
<clipPath id="clip26">
  <path d="M 331 63 L 360 63 L 360 121 L 331 121 Z M 331 63 "/>
</clipPath>
</defs>
<g id="surface868">
<path style="fill-rule:nonzero;fill:rgb(0%,0%,0%);fill-opacity:1;stroke-width:0.03;stroke-linecap:square;stroke-linejoin:miter;stroke:rgb(0%,0%,0%);stroke-opacity:1;stroke-miterlimit:10;" d="M 0 178 L 360 178 L 360 -182 L 0 -182 Z M 0 178 " transform="matrix(1,0,0,1,0,182)"/>
<g clip-path="url(#clip1)" clip-rule="nonzero">
<path style=" stroke:none;fill-rule:nonzero;fill:rgb(39.99939%,39.99939%,39.99939%);fill-opacity:0.3;" d="M -45.46875 317.867188 L 1.992188 332.542969 L -0.691406 341.777344 L -0.980469 343.5625 L -2.289062 345.003906 L -3.59375 346.308594 L -4.75 351.324219 L -3.46875 351.386719 L -1.992188 351.460938 L -0.761719 346.996094 L 1.457031 345.460938 L 1.558594 342.191406 L 4.066406 333.058594 L 12.59375 336.367188 L 1.367188 368.046875 L -31.320312 358.734375 L -30.558594 356.046875 L -31.714844 355.71875 L -32.746094 355.425781 L -38.738281 373.40625 L -3.191406 383.613281 L -12.972656 414.0625 L -84.183594 434.367188 L -90.914062 436.761719 L -94.945312 439.613281 L -96.023438 443.34375 L -96.101562 448.347656 L -126.066406 458.425781 L -103.917969 380.320312 L -102.527344 376.878906 L -100.582031 374.839844 L -95.335938 371.84375 L -69.519531 356.242188 L -65.390625 353.914062 L -62.996094 352.652344 L -59.132812 350.953125 L -57.203125 349.820312 L -55.070312 348.5625 L -53.273438 346.105469 L -50.679688 342.011719 L -48.882812 337.980469 L -19.855469 345.453125 L -19.582031 344.214844 L -19.3125 342.972656 L -48.832031 335.007812 L -49.050781 333.664062 L -47.097656 332.050781 L -46.089844 330.507812 L -45.566406 328.597656 L -45.566406 326.28125 Z M -45.46875 317.867188 "/>
</g>
<path style=" stroke:none;fill-rule:nonzero;fill:rgb(39.99939%,39.99939%,39.99939%);fill-opacity:0.3;" d="M -44.582031 62.28125 L 1.863281 73.710938 L -1.613281 89.234375 L -3.632812 95.839844 L -15.78125 92.648438 L -13.316406 84.515625 L -13.828125 84.394531 L -14.519531 84.230469 L -17.132812 92.292969 L -23.492188 90.417969 L -20.96875 82.390625 L -21.46875 82.230469 L -22.316406 81.964844 L -24.992188 90.0625 L -32.132812 88.253906 L -30.117188 81.464844 L -30.703125 81.363281 L -31.636719 81.203125 L -36.6875 99.5 L -35.957031 99.71875 L -35.261719 99.925781 L -32.503906 90.234375 L -25.453125 92.078125 L -28.363281 102.125 L -27.597656 102.3125 L -26.9375 102.476562 L -24.101562 92.574219 L -17.730469 94.078125 L -20.714844 104.390625 L -20.058594 104.558594 L -19.46875 104.707031 L -16.605469 94.550781 L -9.597656 96.210938 L -12.585938 106.597656 L -11.976562 106.789062 L -11.492188 106.945312 L -8.429688 96.472656 L -4.230469 97.75 L -7.921875 109.886719 L -12.117188 108.742188 L -12.316406 109.390625 L -8.121094 110.585938 L -10.554688 119.15625 L -99.210938 99.15625 L -99.328125 86.523438 L -54.324219 96.480469 L -52.929688 91.59375 L -51.253906 91.328125 Z M -44.582031 62.28125 "/>
<path style=" stroke:none;fill-rule:nonzero;fill:rgb(39.99939%,39.99939%,39.99939%);fill-opacity:0.3;" d="M 32.824219 158.84375 L 39.230469 157.980469 L 40.191406 163.949219 L 33.570312 164.742188 Z M 32.824219 158.84375 "/>
<path style=" stroke:none;fill-rule:nonzero;fill:rgb(39.99939%,39.99939%,39.99939%);fill-opacity:0.3;" d="M -4.628906 106.363281 L 12.894531 110.398438 L 9.527344 123.386719 L -7.722656 119.734375 L -6.199219 111.210938 Z M -4.628906 106.363281 "/>
<path style=" stroke:none;fill-rule:nonzero;fill:rgb(39.99939%,39.99939%,39.99939%);fill-opacity:0.3;" d="M 1.863281 73.710938 L 3.050781 74.003906 L -1.613281 89.234375 Z M 1.863281 73.710938 "/>
<path style=" stroke:none;fill-rule:nonzero;fill:rgb(39.99939%,39.99939%,39.99939%);fill-opacity:0.3;" d="M 24.570312 204.027344 L 43.515625 208.898438 L 25.910156 256.699219 L 10.832031 252.425781 Z M 24.570312 204.027344 "/>
<path style=" stroke:none;fill-rule:nonzero;fill:rgb(39.99939%,39.99939%,39.99939%);fill-opacity:0.3;" d="M -19.144531 162.820312 L 30.316406 175.761719 L 20.664062 209.945312 L -29.964844 196.5625 Z M -19.144531 162.820312 "/>
<path style=" stroke:none;fill-rule:nonzero;fill:rgb(39.99939%,39.99939%,39.99939%);fill-opacity:0.3;" d="M 9.140625 125.558594 L 24.5625 129.164062 L 13.75 168.5625 L -2.085938 164.726562 Z M 9.140625 125.558594 "/>
<path style=" stroke:none;fill-rule:nonzero;fill:rgb(39.99939%,39.99939%,39.99939%);fill-opacity:0.3;" d="M 59.65625 84.359375 L 108.871094 97.558594 L 77.351562 167.039062 L 79.914062 142.074219 L 81.441406 118.726562 L 81.222656 110.085938 L 80.140625 105.203125 L 78.523438 101.542969 L 76.582031 97.882812 L 73.457031 93.917969 L 67.742188 88.734375 Z M 59.65625 84.359375 "/>
<path style=" stroke:none;fill-rule:nonzero;fill:rgb(39.99939%,39.99939%,39.99939%);fill-opacity:0.3;" d="M 47.246094 210.828125 L 58.433594 213.453125 L 37.113281 259.847656 L 29.4375 258.070312 Z M 47.246094 210.828125 "/>
<path style=" stroke:none;fill-rule:nonzero;fill:rgb(39.99939%,39.99939%,39.99939%);fill-opacity:0.3;" d="M 30.035156 185.207031 L 65.933594 194.125 L 58.21875 210.730469 L 25.527344 202.144531 Z M 30.035156 185.207031 "/>
<path style=" stroke:none;fill-rule:nonzero;fill:rgb(39.99939%,39.99939%,39.99939%);fill-opacity:0.3;" d="M 29.65625 133.160156 L 36.101562 132.585938 L 36.765625 138.585938 L 30.113281 139.085938 Z M 29.65625 133.160156 "/>
<path style=" stroke:none;fill-rule:nonzero;fill:rgb(39.99939%,39.99939%,39.99939%);fill-opacity:0.3;" d="M 30.738281 141.265625 L 37.183594 140.691406 L 37.84375 146.695312 L 31.191406 147.191406 Z M 30.738281 141.265625 "/>
<path style=" stroke:none;fill-rule:nonzero;fill:rgb(39.99939%,39.99939%,39.99939%);fill-opacity:0.3;" d="M 32.125 148.835938 L 38.574219 148.289062 L 39.207031 154.296875 L 32.554688 154.765625 Z M 32.125 148.835938 "/>
<path style=" stroke:none;fill-rule:nonzero;fill:rgb(39.99939%,39.99939%,39.99939%);fill-opacity:0.3;" d="M 51.769531 98.839844 L 56.667969 100.226562 L 56.148438 102.707031 L 50.902344 101.296875 Z M 51.769531 98.839844 "/>
<path style=" stroke:none;fill-rule:nonzero;fill:rgb(39.99939%,39.99939%,39.99939%);fill-opacity:0.3;" d="M 37.253906 120.046875 L 36.105469 125.355469 L 29.625 123.832031 L 30.925781 118.871094 Z M 37.253906 120.046875 "/>
<path style=" stroke:none;fill-rule:nonzero;fill:rgb(39.99939%,39.99939%,39.99939%);fill-opacity:0.3;" d="M 29.636719 124.972656 L 35.945312 126.363281 L 34.558594 132.25 L 28.078125 130.726562 Z M 29.636719 124.972656 "/>
<path style=" stroke:none;fill-rule:nonzero;fill:rgb(39.99939%,39.99939%,39.99939%);fill-opacity:0.3;" d="M 30.308594 118.367188 L 32.871094 110.574219 L 34.082031 109.910156 L 33.28125 108.6875 L 31.449219 109.351562 L 30.027344 108.324219 L 29.472656 108.730469 L 28.917969 109.132812 L 30.425781 110.15625 L 25.90625 127.335938 L 11.417969 124.269531 L 15.390625 106.292969 L 14.414062 106.21875 L 13.417969 106.140625 L 12.640625 109.007812 L -4.253906 105.058594 L -1.683594 95.3125 L 6.417969 97.308594 L 6.828125 96.273438 L 7.121094 95.535156 L -0.980469 93.539062 L 4.847656 74.285156 L 21.242188 78.148438 L 13.976562 95.835938 L 14.773438 96.1875 L 15.574219 96.539062 L 22.839844 79.042969 L 53.441406 87.78125 L 50.214844 101.273438 L 50.0625 102.515625 L 49.628906 106.265625 L 48.753906 111.808594 L 47.609375 115.519531 L 45.375 121.207031 L 40.691406 120.40625 Z M 30.308594 118.367188 "/>
<path style=" stroke:none;fill-rule:nonzero;fill:rgb(39.99939%,39.99939%,39.99939%);fill-opacity:0.3;" d="M 30.308594 118.371094 L 40.691406 120.410156 L 45.375 121.207031 L 44.085938 124.054688 L 42.882812 127.386719 L 41.679688 132.753906 L 40.996094 138.570312 L 41.261719 146.621094 L 42.039062 151.09375 L 42.820312 156.734375 L 44.566406 163.6875 L 46.476562 166.730469 L 50.769531 170.894531 L 53.992188 175.175781 L 54.710938 177.652344 L 54.613281 181.550781 L 53.765625 189.027344 L 30.636719 183.253906 L 32.804688 174.144531 L 16.132812 169.910156 Z M 30.308594 118.371094 "/>
<path style=" stroke:none;fill-rule:nonzero;fill:rgb(39.99939%,39.99939%,39.99939%);fill-opacity:0.3;" d="M 3.78125 208.152344 L 18.933594 212.453125 L 8.21875 251.6875 L -7.390625 247.386719 Z M 3.78125 208.152344 "/>
<path style=" stroke:none;fill-rule:nonzero;fill:rgb(39.99939%,39.99939%,39.99939%);fill-opacity:0.3;" d="M -13.042969 203.710938 L 1.65625 207.722656 L -9.511719 246.957031 L -24.816406 242.800781 Z M -13.042969 203.710938 "/>
<path style=" stroke:none;fill-rule:nonzero;fill:rgb(39.99939%,39.99939%,39.99939%);fill-opacity:0.3;" d="M -7.089844 122.097656 L 7.644531 125.3125 L -3.964844 164.0625 L -19.417969 160.335938 Z M -7.089844 122.097656 "/>
<path style=" stroke:none;fill-rule:nonzero;fill:rgb(39.99939%,39.99939%,39.99939%);fill-opacity:0.3;" d="M 54.203125 88.59375 L 58.820312 90.003906 L 58.3125 92.421875 L 53.335938 91.046875 Z M 54.203125 88.59375 "/>
<path style=" stroke:none;fill-rule:nonzero;fill:rgb(39.99939%,39.99939%,39.99939%);fill-opacity:0.3;" d="M 53.53125 93.59375 L 57.808594 94.808594 L 57.285156 97.296875 L 52.664062 96.050781 Z M 53.53125 93.59375 "/>
<path style=" stroke:none;fill-rule:nonzero;fill:rgb(39.99939%,39.99939%,39.99939%);fill-opacity:0.3;" d="M 58.148438 188.824219 L 56.253906 188.410156 L 57.175781 182.230469 L 58.410156 182.09375 Z M 58.148438 188.824219 "/>
<path style=" stroke:none;fill-rule:nonzero;fill:rgb(39.99939%,39.99939%,39.99939%);fill-opacity:0.3;" d="M 52.203125 113.039062 L 55.03125 114.195312 L 46.65625 134.042969 L 43.78125 132.652344 Z M 52.203125 113.039062 "/>
<path style=" stroke:none;fill-rule:nonzero;fill:rgb(39.99939%,39.99939%,39.99939%);fill-opacity:0.3;" d="M 47.757812 154.082031 L 57.085938 153.28125 L 57.460938 157.003906 L 48.082031 157.910156 Z M 47.757812 154.082031 "/>
<path style=" stroke:none;fill-rule:nonzero;fill:rgb(39.99939%,39.99939%,39.99939%);fill-opacity:0.3;" d="M 61.582031 152.695312 L 69.097656 151.890625 L 69.472656 155.316406 L 61.957031 156.019531 Z M 61.582031 152.695312 "/>
<path style=" stroke:none;fill-rule:nonzero;fill:rgb(39.99939%,39.99939%,39.99939%);fill-opacity:0.3;" d="M 45.980469 137.757812 L 47.722656 152.804688 L 45.003906 153.191406 L 43.347656 137.828125 Z M 45.980469 137.757812 "/>
<path style=" stroke:none;fill-rule:nonzero;fill:rgb(39.99939%,39.99939%,39.99939%);fill-opacity:0.3;" d="M 61.65625 116.261719 L 55.738281 132.519531 L 52.769531 131.550781 L 58.578125 115.398438 Z M 61.65625 116.261719 "/>
<path style=" stroke:none;fill-rule:nonzero;fill:rgb(39.99939%,39.99939%,39.99939%);fill-opacity:0.3;" d="M 53.800781 134.78125 L 55.636719 152.019531 L 52.785156 152.339844 L 50.832031 134.890625 Z M 53.800781 134.78125 "/>
<path style=" stroke:none;fill-rule:nonzero;fill:rgb(39.99939%,39.99939%,39.99939%);fill-opacity:0.3;" d="M 66.265625 126.148438 L 65.679688 148.714844 L 62.339844 148.464844 L 62.863281 126.132812 Z M 66.265625 126.148438 "/>
<path style=" stroke:none;fill-rule:nonzero;fill:rgb(39.99939%,39.99939%,39.99939%);fill-opacity:0.3;" d="M 73.066406 136.964844 L 72.4375 151.691406 L 69.347656 151.488281 L 69.964844 136.796875 Z M 73.066406 136.964844 "/>
<path style=" stroke:none;fill-rule:nonzero;fill:rgb(39.99939%,39.99939%,39.99939%);fill-opacity:0.3;" d="M 74.617188 112.21875 L 73.96875 133.488281 L 70.480469 133.308594 L 71.597656 112.304688 Z M 74.617188 112.21875 "/>
<path style=" stroke:none;fill-rule:nonzero;fill:rgb(39.99939%,39.99939%,39.99939%);fill-opacity:0.3;" d="M 54.132812 168.25 L 63.429688 167.777344 L 63.792969 171.941406 L 54.601562 172.46875 Z M 54.132812 168.25 "/>
<path style=" stroke:none;fill-rule:nonzero;fill:rgb(39.99939%,39.99939%,39.99939%);fill-opacity:0.3;" d="M 56.667969 100.226562 L 60.496094 101.308594 L 59.75 103.675781 L 56.148438 102.707031 Z M 56.667969 100.226562 "/>
<path style=" stroke:none;fill-rule:nonzero;fill:rgb(39.99939%,39.99939%,39.99939%);fill-opacity:0.3;" d="M 63.765625 107.34375 L 67.0625 107.4375 L 66.570312 123.574219 L 63.253906 123.484375 Z M 63.765625 107.34375 "/>
<path style=" stroke:none;fill-rule:nonzero;fill:rgb(39.99939%,39.99939%,39.99939%);fill-opacity:0.3;" d="M 67.785156 94.667969 L 73.503906 102.105469 L 71.4375 103.382812 L 65.550781 96.167969 Z M 67.785156 94.667969 "/>
<path style=" stroke:none;fill-rule:nonzero;fill:rgb(39.99939%,39.99939%,39.99939%);fill-opacity:0.3;" d="M 58.820312 90.003906 L 63.460938 91.417969 L 62.59375 93.601562 L 58.3125 92.421875 Z M 58.820312 90.003906 "/>
<path style=" stroke:none;fill-rule:nonzero;fill:rgb(39.99939%,39.99939%,39.99939%);fill-opacity:0.3;" d="M 57.808594 94.808594 L 62.253906 96.066406 L 61.511719 98.433594 L 57.285156 97.296875 Z M 57.808594 94.808594 "/>
<path style=" stroke:none;fill-rule:nonzero;fill:rgb(39.99939%,39.99939%,39.99939%);fill-opacity:0.3;" d="M 71.347656 180.640625 L 67.394531 190.84375 L 58.148438 188.824219 L 58.410156 182.09375 Z M 71.347656 180.640625 "/>
<path style=" stroke:none;fill-rule:nonzero;fill:rgb(39.99939%,39.99939%,39.99939%);fill-opacity:0.3;" d="M 66.085938 159.785156 L 66.515625 163.402344 L 50.34375 164.707031 L 50.339844 161.1875 Z M 66.085938 159.785156 "/>
<g clip-path="url(#clip2)" clip-rule="nonzero">
<path style=" stroke:none;fill-rule:nonzero;fill:rgb(39.99939%,39.99939%,39.99939%);fill-opacity:0.3;" d="M 182.324219 331.691406 L 223.644531 339.957031 L 221.472656 351.394531 L 186.691406 345.15625 L 186.332031 346.523438 L 185.996094 347.789062 L 220.949219 353.910156 L 218.835938 365.605469 L 162.367188 354.179688 L 164.519531 341.753906 Z M 182.324219 331.691406 "/>
</g>
<path style=" stroke:none;fill-rule:nonzero;fill:rgb(39.99939%,39.99939%,39.99939%);fill-opacity:0.3;" d="M 202.496094 320.628906 L 227.28125 325.71875 L 224.929688 337.605469 L 187.8125 329.726562 Z M 202.496094 320.628906 "/>
<g clip-path="url(#clip3)" clip-rule="nonzero">
<path style=" stroke:none;fill-rule:nonzero;fill:rgb(39.99939%,39.99939%,39.99939%);fill-opacity:0.3;" d="M 140.695312 353.257812 L 158.648438 356.214844 L 156.058594 370.972656 L 121.058594 364.167969 Z M 140.695312 353.257812 "/>
</g>
<path style=" stroke:none;fill-rule:nonzero;fill:rgb(39.99939%,39.99939%,39.99939%);fill-opacity:0.3;" d="M 161.382812 342.09375 L 158.847656 353.375 L 145.660156 350.417969 Z M 161.382812 342.09375 "/>
<g clip-path="url(#clip4)" clip-rule="nonzero">
<path style=" stroke:none;fill-rule:nonzero;fill:rgb(39.99939%,39.99939%,39.99939%);fill-opacity:0.3;" d="M 227.390625 340.074219 L 277.566406 349.949219 L 273.390625 361.285156 L 224.957031 352.085938 Z M 227.390625 340.074219 "/>
</g>
<g clip-path="url(#clip5)" clip-rule="nonzero">
<path style=" stroke:none;fill-rule:nonzero;fill:rgb(39.99939%,39.99939%,39.99939%);fill-opacity:0.3;" d="M 279.171875 351.144531 L 279.261719 351.164062 L 275.136719 362.058594 L 274.855469 362 Z M 279.171875 351.144531 "/>
</g>
<g clip-path="url(#clip6)" clip-rule="nonzero">
<path style=" stroke:none;fill-rule:nonzero;fill:rgb(39.99939%,39.99939%,39.99939%);fill-opacity:0.3;" d="M 224.644531 354.394531 L 272.402344 363.910156 L 268.507812 374.453125 L 222.527344 366.273438 Z M 224.644531 354.394531 "/>
</g>
<g clip-path="url(#clip7)" clip-rule="nonzero">
<path style=" stroke:none;fill-rule:nonzero;fill:rgb(39.99939%,39.99939%,39.99939%);fill-opacity:0.3;" d="M 162.476562 357.835938 L 218.480469 368.664062 L 215.757812 381.703125 L 160 372.128906 Z M 162.476562 357.835938 "/>
</g>
<path style=" stroke:none;fill-rule:nonzero;fill:rgb(39.99939%,39.99939%,39.99939%);fill-opacity:0.3;" d="M 259.53125 287.46875 L 307.578125 259.050781 L 310.359375 261.175781 L 279.082031 347.671875 L 228.730469 338.027344 L 230.765625 324.472656 L 240.324219 325.679688 L 240.765625 327.152344 L 251.960938 329.148438 L 252.035156 327.808594 L 252.125 327.121094 L 235.398438 323.480469 L 226.648438 321.785156 L 224.734375 323.433594 L 204.125 319.574219 L 222.84375 308.792969 Z M 259.53125 287.46875 "/>
<g clip-path="url(#clip8)" clip-rule="nonzero">
<path style=" stroke:none;fill-rule:nonzero;fill:rgb(39.99939%,39.99939%,39.99939%);fill-opacity:0.3;" d="M 25.09375 343.191406 L 40.351562 347.160156 L 25.578125 395.738281 L 6.066406 402.359375 Z M 25.09375 343.191406 "/>
</g>
<g clip-path="url(#clip9)" clip-rule="nonzero">
<path style=" stroke:none;fill-rule:nonzero;fill:rgb(39.99939%,39.99939%,39.99939%);fill-opacity:0.3;" d="M 60.113281 352.25 L 104.386719 364.480469 L 71.472656 378.375 L 72.257812 372.367188 L 71.066406 372.59375 L 69.835938 372.824219 L 68.46875 379.695312 L 50.074219 386.640625 Z M 60.113281 352.25 "/>
</g>
<g clip-path="url(#clip10)" clip-rule="nonzero">
<path style=" stroke:none;fill-rule:nonzero;fill:rgb(39.99939%,39.99939%,39.99939%);fill-opacity:0.3;" d="M 42.207031 347.617188 L 57.464844 351.820312 L 47.398438 387.796875 L 28.371094 395.0625 Z M 42.207031 347.617188 "/>
</g>
<g clip-path="url(#clip11)" clip-rule="nonzero">
<path style=" stroke:none;fill-rule:nonzero;fill:rgb(39.99939%,39.99939%,39.99939%);fill-opacity:0.3;" d="M 49.558594 267.152344 L 130.636719 291.546875 L 151.503906 297.824219 L 137.238281 345.511719 L 109.886719 360.886719 L 63.371094 347.335938 L 27.203125 336.796875 Z M 49.558594 267.152344 "/>
</g>
<path style=" stroke:none;fill-rule:nonzero;fill:rgb(39.99939%,39.99939%,39.99939%);fill-opacity:0.3;" d="M 153.992188 299.191406 L 176.261719 305.667969 L 200.59375 312.742188 L 168.496094 330.765625 L 140.554688 346.453125 L 148.976562 316.832031 Z M 153.992188 299.191406 "/>
<path style=" stroke:none;fill-rule:nonzero;fill:rgb(39.99939%,39.99939%,39.99939%);fill-opacity:0.3;" d="M 28.871094 2.496094 L 46.464844 8.148438 L 22.617188 70.679688 L 4.527344 65.96875 Z M 28.871094 2.496094 "/>
<path style=" stroke:none;fill-rule:nonzero;fill:rgb(39.99939%,39.99939%,39.99939%);fill-opacity:0.3;" d="M 118.421875 31.695312 L 133.351562 36.632812 L 110.59375 93.894531 L 96.351562 90.136719 Z M 118.421875 31.695312 "/>
<path style=" stroke:none;fill-rule:nonzero;fill:rgb(39.99939%,39.99939%,39.99939%);fill-opacity:0.3;" d="M 49.003906 9.046875 L 64.449219 14.007812 L 41.054688 75.394531 L 25.515625 71.339844 Z M 49.003906 9.046875 "/>
<path style=" stroke:none;fill-rule:nonzero;fill:rgb(39.99939%,39.99939%,39.99939%);fill-opacity:0.3;" d="M -65.949219 -14.902344 L -60.296875 -29.757812 L -41.230469 -23.839844 L -30.796875 -11.144531 L -24.363281 -15.785156 L -20.15625 -14.394531 L 3.316406 -6.625 L 4.433594 -5.828125 L 5.691406 -4.632812 L 6.34375 -2.992188 L 5.5625 0.179688 L -2.15625 20.359375 L -17.4375 60.3125 L -87.28125 41.160156 L -75.640625 10.570312 Z M -65.949219 -14.902344 "/>
<path style=" stroke:none;fill-rule:nonzero;fill:rgb(39.99939%,39.99939%,39.99939%);fill-opacity:0.3;" d="M 136.679688 -19.203125 L 150.722656 -9.324219 L 134.09375 32.375 L 119.160156 27.242188 Z M 136.679688 -19.203125 "/>
<path style=" stroke:none;fill-rule:nonzero;fill:rgb(39.99939%,39.99939%,39.99939%);fill-opacity:0.3;" d="M 121.503906 -30.394531 L 135.183594 -20.601562 L 117.429688 26.488281 L 102.332031 21.285156 Z M 121.503906 -30.394531 "/>
<path style=" stroke:none;fill-rule:nonzero;fill:rgb(39.99939%,39.99939%,39.99939%);fill-opacity:0.3;" d="M 106.546875 -40.84375 L 119.433594 -31.984375 L 99.78125 20.421875 L 85.070312 15.519531 Z M 106.546875 -40.84375 "/>
<path style=" stroke:none;fill-rule:nonzero;fill:rgb(39.99939%,39.99939%,39.99939%);fill-opacity:0.3;" d="M 90.78125 -51.132812 L 104.226562 -42.226562 L 82.421875 14.914062 L 67.964844 10.019531 Z M 90.78125 -51.132812 "/>
<path style=" stroke:none;fill-rule:nonzero;fill:rgb(39.99939%,39.99939%,39.99939%);fill-opacity:0.3;" d="M 75.539062 -62.25 L 89.042969 -52.5625 L 65.871094 9.378906 L 50.667969 4.183594 Z M 75.539062 -62.25 "/>
<path style=" stroke:none;fill-rule:nonzero;fill:rgb(39.99939%,39.99939%,39.99939%);fill-opacity:0.3;" d="M 58.035156 -75.210938 L 73.335938 -64.117188 L 47.914062 3.136719 L 30.511719 -2.652344 Z M 58.035156 -75.210938 "/>
<path style=" stroke:none;fill-rule:nonzero;fill:rgb(39.99939%,39.99939%,39.99939%);fill-opacity:0.3;" d="M 100.605469 25.957031 L 116.070312 30.875 L 93.667969 89.488281 L 78.300781 85.441406 Z M 100.605469 25.957031 "/>
<path style=" stroke:none;fill-rule:nonzero;fill:rgb(39.99939%,39.99939%,39.99939%);fill-opacity:0.3;" d="M 83.503906 20.390625 L 98.183594 25.226562 L 75.585938 84.734375 L 60.46875 80.777344 Z M 83.503906 20.390625 "/>
<path style=" stroke:none;fill-rule:nonzero;fill:rgb(39.99939%,39.99939%,39.99939%);fill-opacity:0.3;" d="M 66.480469 14.667969 L 81.050781 19.441406 L 57.765625 79.933594 L 43.445312 76.15625 Z M 66.480469 14.667969 "/>
<path style=" stroke:none;fill-rule:nonzero;fill:rgb(39.99939%,39.99939%,39.99939%);fill-opacity:0.3;" d="M 9.402344 -0.515625 L 10.355469 -2.175781 L 11.472656 -2.839844 L 12.730469 -2.707031 L 23.777344 1.015625 L 25.035156 1.679688 L 25.59375 2.34375 L 25.871094 3.804688 L 24.46875 7.769531 L 2.671875 65.417969 L -13.964844 61.269531 Z M 9.402344 -0.515625 "/>
<path style=" stroke:none;fill-rule:nonzero;fill:rgb(39.99939%,39.99939%,39.99939%);fill-opacity:0.3;" d="M -30.9375 248.089844 L 34.417969 266.027344 L 12.390625 333.359375 L -11.246094 325.566406 L -7.3125 312.621094 L -1.265625 314.375 L -0.808594 313.285156 L -0.773438 313.207031 L -0.28125 312.042969 L -6.820312 310.058594 L -3.5 298.980469 L -4.671875 298.574219 L -5.84375 298.164062 L -13.589844 324.75 L -52.492188 313.285156 Z M -30.9375 248.089844 "/>
<path style=" stroke:none;fill-rule:nonzero;fill:rgb(39.99939%,39.99939%,39.99939%);fill-opacity:0.3;" d="M 270.265625 0.867188 L 271.105469 -1.664062 L 277.101562 0.144531 L 276.261719 2.679688 Z M 270.265625 0.867188 "/>
<path style=" stroke:none;fill-rule:nonzero;fill:rgb(39.99939%,39.99939%,39.99939%);fill-opacity:0.3;" d="M 260.691406 10.15625 L 261.527344 7.621094 L 267.523438 9.433594 L 266.6875 11.96875 Z M 260.691406 10.15625 "/>
<path style=" stroke:none;fill-rule:nonzero;fill:rgb(39.99939%,39.99939%,39.99939%);fill-opacity:0.3;" d="M 269.433594 11.136719 L 270.273438 8.601562 L 276.269531 10.414062 L 275.433594 12.949219 Z M 269.433594 11.136719 "/>
<path style=" stroke:none;fill-rule:nonzero;fill:rgb(39.99939%,39.99939%,39.99939%);fill-opacity:0.3;" d="M 275.453125 2.9375 L 278.140625 3.667969 L 276.425781 9.421875 L 273.738281 8.6875 Z M 275.453125 2.9375 "/>
<path style=" stroke:none;fill-rule:nonzero;fill:rgb(39.99939%,39.99939%,39.99939%);fill-opacity:0.3;" d="M 267.378906 -5.378906 L 270.066406 -4.644531 L 268.347656 1.105469 L 265.660156 0.371094 Z M 267.378906 -5.378906 "/>
<path style=" stroke:none;fill-rule:nonzero;fill:rgb(39.99939%,39.99939%,39.99939%);fill-opacity:0.3;" d="M 267.910156 2.28125 L 270.597656 3.015625 L 268.878906 8.765625 L 266.191406 8.03125 Z M 267.910156 2.28125 "/>
<path style=" stroke:none;fill-rule:nonzero;fill:rgb(39.99939%,39.99939%,39.99939%);fill-opacity:0.3;" d="M 263.519531 1.09375 L 266.207031 1.828125 L 264.488281 7.578125 L 261.800781 6.84375 Z M 263.519531 1.09375 "/>
<path style=" stroke:none;fill-rule:nonzero;fill:rgb(39.99939%,39.99939%,39.99939%);fill-opacity:0.3;" d="M 266.394531 13.042969 L 269.082031 13.777344 L 267.363281 19.53125 L 264.675781 18.796875 Z M 266.394531 13.042969 "/>
<path style=" stroke:none;fill-rule:nonzero;fill:rgb(39.99939%,39.99939%,39.99939%);fill-opacity:0.3;" d="M 309.15625 11.023438 L 302.667969 35.273438 L 290.5 29.945312 L 277.679688 24.308594 L 281.753906 13.058594 L 289.363281 12.375 L 293.136719 12.085938 L 296.707031 11.988281 L 302.625 11.605469 Z M 309.15625 11.023438 "/>
<path style=" stroke:none;fill-rule:nonzero;fill:rgb(39.99939%,39.99939%,39.99939%);fill-opacity:0.3;" d="M 304.628906 -60.023438 L 326.046875 -53.777344 L 323.851562 -44.5625 L 309.410156 9.378906 L 301.453125 10.148438 L 292.269531 10.339844 L 282.171875 11.207031 Z M 304.628906 -60.023438 "/>
<path style=" stroke:none;fill-rule:nonzero;fill:rgb(39.99939%,39.99939%,39.99939%);fill-opacity:0.3;" d="M 284.425781 -66.109375 L 301.984375 -60.863281 L 285.355469 -9.527344 L 274.597656 23.679688 L 257.507812 16.796875 L 267.914062 -15.261719 Z M 284.425781 -66.109375 "/>
<path style=" stroke:none;fill-rule:nonzero;fill:rgb(39.99939%,39.99939%,39.99939%);fill-opacity:0.3;" d="M 281.242188 -66.976562 L 255.039062 15.566406 L 237.921875 8.238281 L 263.683594 -72.355469 Z M 281.242188 -66.976562 "/>
<path style=" stroke:none;fill-rule:nonzero;fill:rgb(39.99939%,39.99939%,39.99939%);fill-opacity:0.3;" d="M 242.300781 -78.804688 L 260.285156 -73.296875 L 233.503906 7.324219 L 215.796875 2.898438 Z M 242.300781 -78.804688 "/>
<path style=" stroke:none;fill-rule:nonzero;fill:rgb(39.99939%,39.99939%,39.99939%);fill-opacity:0.3;" d="M 222.304688 -84.695312 L 239.863281 -79.054688 L 213.070312 3.09375 L 194.671875 -1.519531 Z M 222.304688 -84.695312 "/>
<path style=" stroke:none;fill-rule:nonzero;fill:rgb(39.99939%,39.99939%,39.99939%);fill-opacity:0.3;" d="M 298.542969 110.855469 L 300.125 105.730469 L 301.9375 106.226562 L 301.410156 107.933594 L 302.316406 108.183594 L 303.21875 108.429688 L 303.746094 106.722656 L 305.558594 107.21875 L 303.980469 112.339844 L 302.167969 111.847656 L 302.695312 110.136719 L 301.75 109.878906 L 300.882812 109.644531 L 300.355469 111.351562 Z M 298.542969 110.855469 "/>
<path style=" stroke:none;fill-rule:nonzero;fill:rgb(39.99939%,39.99939%,39.99939%);fill-opacity:0.3;" d="M 299.570312 86.429688 L 305.496094 88.40625 L 304.652344 90.636719 L 298.726562 88.664062 Z M 299.570312 86.429688 "/>
<path style=" stroke:none;fill-rule:nonzero;fill:rgb(39.99939%,39.99939%,39.99939%);fill-opacity:0.3;" d="M 297.117188 95.941406 L 303.042969 97.917969 L 302.203125 100.152344 L 296.277344 98.175781 Z M 297.117188 95.941406 "/>
<path style=" stroke:none;fill-rule:nonzero;fill:rgb(39.99939%,39.99939%,39.99939%);fill-opacity:0.3;" d="M 295.679688 99.574219 L 301.609375 101.550781 L 300.765625 103.785156 L 294.839844 101.808594 Z M 295.679688 99.574219 "/>
<path style=" stroke:none;fill-rule:nonzero;fill:rgb(39.99939%,39.99939%,39.99939%);fill-opacity:0.3;" d="M 303.609375 39.257812 L 356.390625 55.511719 L 345.378906 87.875 L 297.542969 65.203125 Z M 303.609375 39.257812 "/>
<path style=" stroke:none;fill-rule:nonzero;fill:rgb(39.99939%,39.99939%,39.99939%);fill-opacity:0.3;" d="M 169.457031 -3.402344 L 176.191406 -2.632812 L 188.851562 -0.324219 L 196.933594 0.957031 L 222.796875 6.851562 L 229.9375 8.390625 L 236.457031 10.609375 L 250.742188 16.765625 L 262.203125 21.640625 L 271.675781 25.546875 L 278.515625 28.578125 L 288.226562 32.433594 L 294.699219 35.132812 L 301.339844 38.636719 L 295.824219 63.675781 L 244.546875 38.039062 L 203.558594 17.738281 L 178.21875 2.742188 Z M 169.457031 -3.402344 "/>
<g clip-path="url(#clip12)" clip-rule="nonzero">
<path style=" stroke:none;fill-rule:nonzero;fill:rgb(39.99939%,39.99939%,39.99939%);fill-opacity:0.3;" d="M 358.539062 56.425781 L 399.894531 67.332031 L 399.628906 90.917969 L 383.589844 88.144531 L 383.441406 88.894531 L 383.273438 89.738281 L 399.007812 92.511719 L 398.375 97.296875 L 377.402344 92.777344 L 377.234375 93.25 L 376.9375 94.082031 L 397.90625 98.890625 L 395.863281 112.523438 L 348.195312 88.261719 Z M 358.539062 56.425781 "/>
</g>
<path style=" stroke:none;fill-rule:nonzero;fill:rgb(39.99939%,39.99939%,39.99939%);fill-opacity:0.3;" d="M 302.023438 104.554688 L 304.265625 99.015625 L 306.617188 99.859375 L 304.375 105.398438 Z M 302.023438 104.554688 "/>
<path style=" stroke:none;fill-rule:nonzero;fill:rgb(39.99939%,39.99939%,39.99939%);fill-opacity:0.3;" d="M 304.136719 96.414062 L 306.382812 90.878906 L 308.730469 91.722656 L 306.484375 97.257812 Z M 304.136719 96.414062 "/>
<path style=" stroke:none;fill-rule:nonzero;fill:rgb(39.99939%,39.99939%,39.99939%);fill-opacity:0.3;" d="M 312.160156 105.878906 L 314.402344 100.339844 L 316.753906 101.183594 L 314.507812 106.722656 Z M 312.160156 105.878906 "/>
<path style=" stroke:none;fill-rule:nonzero;fill:rgb(39.99939%,39.99939%,39.99939%);fill-opacity:0.3;" d="M 307.542969 74.308594 L 313.464844 76.28125 L 312.621094 78.507812 L 306.695312 76.535156 Z M 307.542969 74.308594 "/>
<path style=" stroke:none;fill-rule:nonzero;fill:rgb(39.99939%,39.99939%,39.99939%);fill-opacity:0.3;" d="M 308.261719 95.816406 L 314.1875 97.792969 L 313.347656 100.027344 L 307.417969 98.050781 Z M 308.261719 95.816406 "/>
<path style=" stroke:none;fill-rule:nonzero;fill:rgb(39.99939%,39.99939%,39.99939%);fill-opacity:0.3;" d="M 308.25 105.769531 L 314.175781 107.746094 L 313.335938 109.984375 L 307.40625 108.003906 Z M 308.25 105.769531 "/>
<path style=" stroke:none;fill-rule:nonzero;fill:rgb(39.99939%,39.99939%,39.99939%);fill-opacity:0.3;" d="M 284.996094 99.851562 L 276.996094 129.023438 L 271.550781 128.421875 L 274.046875 119.984375 L 279.722656 109.039062 Z M 284.996094 99.851562 "/>
<g clip-path="url(#clip13)" clip-rule="nonzero">
<path style=" stroke:none;fill-rule:nonzero;fill:rgb(39.99939%,39.99939%,39.99939%);fill-opacity:0.3;" d="M 349.699219 141.699219 L 347.792969 142.296875 L 345.523438 142.808594 L 343.339844 142.976562 L 311.542969 132.8125 L 297.644531 131.351562 L 281.550781 129.519531 L 280.519531 129.457031 L 283.894531 116.710938 L 290.761719 90.734375 L 291.394531 88.347656 L 296.894531 67.558594 L 305.441406 71.765625 L 317.992188 77.941406 L 326.28125 82.023438 L 344.003906 90.746094 L 395.972656 116.589844 L 394.5 145.121094 L 380.894531 144.453125 L 379.34375 144.289062 L 376.84375 144.054688 L 373.449219 143.488281 L 369.585938 142.933594 L 366.890625 142.253906 L 363.65625 141.3125 L 360.246094 140.6875 L 356.832031 140.238281 L 354.058594 140.761719 L 351.609375 141.359375 Z M 349.699219 141.699219 "/>
</g>
<g clip-path="url(#clip14)" clip-rule="nonzero">
<path style=" stroke:none;fill-rule:nonzero;fill:rgb(39.99939%,39.99939%,39.99939%);fill-opacity:0.3;" d="M 270.226562 133.511719 L 278.207031 133.777344 L 276.554688 142.957031 L 277.414062 143.101562 L 278.273438 143.242188 L 280.707031 134.097656 L 286.761719 134.066406 L 296.992188 134.875 L 295.5625 140.804688 L 288.800781 139.730469 L 288.292969 141.160156 L 302.945312 143.546875 L 303.25 142.40625 L 298.90625 141.546875 L 300.125 135.164062 L 306.996094 136.023438 L 312.046875 136.691406 L 319.496094 138.382812 L 329.339844 141.242188 L 337.664062 144.457031 L 343.910156 146.78125 L 351.289062 149.28125 L 357.722656 151.601562 L 362.121094 154.542969 L 364.402344 157.847656 L 364.824219 160.816406 L 361.902344 163.128906 L 353.914062 165.164062 L 314.203125 166.566406 L 317.207031 151.484375 L 306.800781 149.386719 L 306.597656 151.292969 L 314.679688 152.628906 L 311.53125 166.730469 L 286.488281 167.625 L 286.265625 168.804688 L 286.039062 169.988281 L 316.261719 169.234375 L 290.546875 242.300781 L 237.140625 225.550781 L 244.054688 200.085938 L 248.757812 186.601562 L 252.03125 178.679688 L 256.015625 168.613281 L 259.476562 159.90625 Z M 270.226562 133.511719 "/>
</g>
<g clip-path="url(#clip15)" clip-rule="nonzero">
<path style=" stroke:none;fill-rule:nonzero;fill:rgb(39.99939%,39.99939%,39.99939%);fill-opacity:0.3;" d="M 372.332031 158.4375 L 369.503906 154.664062 L 366.339844 151.675781 L 363.507812 149.15625 L 359.84375 146.957031 L 357.007812 145.488281 L 353.925781 143.777344 L 355.652344 143.265625 L 358.191406 142.839844 L 360.917969 142.667969 L 364 143.097656 L 365.816406 143.527344 L 368.082031 144.382812 L 370.53125 145.75 L 373.527344 146.265625 L 377.066406 146.4375 L 384.6875 147.039062 L 393.628906 148.054688 Z M 372.332031 158.4375 "/>
</g>
<g clip-path="url(#clip16)" clip-rule="nonzero">
<path style=" stroke:none;fill-rule:nonzero;fill:rgb(39.99939%,39.99939%,39.99939%);fill-opacity:0.3;" d="M 317.800781 177.523438 L 393.226562 201.464844 L 391.769531 225.476562 L 309.324219 199.417969 Z M 317.800781 177.523438 "/>
</g>
<g clip-path="url(#clip17)" clip-rule="nonzero">
<path style=" stroke:none;fill-rule:nonzero;fill:rgb(39.99939%,39.99939%,39.99939%);fill-opacity:0.3;" d="M 320.929688 168.425781 L 351.640625 167.261719 L 355.855469 166.570312 L 361.144531 164.925781 L 364.859375 163.925781 L 367.957031 161.929688 L 377.40625 175.4375 L 383.285156 184.132812 L 378.164062 185.007812 L 379.011719 186.425781 L 379.632812 187.46875 L 384.566406 186.558594 L 392.523438 198.695312 L 364.042969 189.738281 L 318.800781 175.078125 Z M 320.929688 168.425781 "/>
</g>
<g clip-path="url(#clip18)" clip-rule="nonzero">
<path style=" stroke:none;fill-rule:nonzero;fill:rgb(39.99939%,39.99939%,39.99939%);fill-opacity:0.3;" d="M 309.269531 201.90625 L 392.480469 227.554688 L 391.242188 241.519531 L 381.769531 246.933594 L 370.652344 250.835938 L 364.265625 251.5625 L 356.664062 251.925781 L 351.699219 251.839844 L 347.210938 251.753906 L 341.15625 252.027344 L 336.382812 251.941406 L 332.277344 251.851562 L 325.972656 251.585938 L 318.429688 250.414062 L 312.605469 248.703125 L 308.496094 247.441406 L 294.089844 243.316406 Z M 309.269531 201.90625 "/>
</g>
<path style=" stroke:none;fill-rule:nonzero;fill:rgb(39.99939%,39.99939%,39.99939%);fill-opacity:0.3;" d="M 343.339844 142.976562 L 340.753906 143.171875 L 336.648438 141.75 L 330.210938 139.035156 L 321.035156 136.320312 L 312.632812 133.949219 L 304.460938 132.824219 L 298.023438 131.789062 L 291.585938 130.882812 L 285.96875 130.105469 L 280.351562 130.101562 L 280.519531 129.457031 L 281.550781 129.519531 L 297.644531 131.351562 L 311.542969 132.8125 Z M 343.339844 142.976562 "/>
<path style=" stroke:none;fill-rule:nonzero;fill:rgb(39.99939%,39.99939%,39.99939%);fill-opacity:0.3;" d="M 204.5625 21.191406 L 260.027344 48.972656 L 234.238281 125.191406 L 208.03125 122.207031 L 174.746094 113.425781 L 174.355469 113.308594 L 182.378906 88.660156 L 183.445312 85.382812 L 213.316406 93.160156 L 213.527344 92.105469 L 213.738281 91.054688 L 184.285156 83.148438 L 188.496094 70.671875 L 214.875 78.308594 L 215.148438 77.605469 L 215.4375 76.867188 L 188.917969 68.964844 L 191.914062 60.007812 L 215.640625 67.246094 L 218.011719 67.773438 L 218.019531 65.542969 L 218.308594 62.398438 L 217.070312 62.320312 L 216.214844 62.265625 L 215.789062 64.492188 L 192.757812 57.78125 Z M 204.5625 21.191406 "/>
<path style=" stroke:none;fill-rule:nonzero;fill:rgb(39.99939%,39.99939%,39.99939%);fill-opacity:0.3;" d="M 164.105469 -3.480469 L 201.976562 21.035156 L 172.214844 111.773438 L 125.140625 97.738281 Z M 164.105469 -3.480469 "/>
<path style=" stroke:none;fill-rule:nonzero;fill:rgb(39.99939%,39.99939%,39.99939%);fill-opacity:0.3;" d="M 261.34375 49.824219 L 294.199219 66.289062 L 284.996094 99.851562 L 279.722656 109.039062 L 274.046875 119.984375 L 275.710938 114.351562 L 275.03125 113.90625 L 274.171875 113.347656 L 269.179688 128.53125 L 264.683594 128.304688 L 236.925781 125.496094 L 236.132812 125.40625 Z M 261.34375 49.824219 "/>
<path style=" stroke:none;fill-rule:nonzero;fill:rgb(39.99939%,39.99939%,39.99939%);fill-opacity:0.3;" d="M 234.238281 125.191406 L 234.03125 125.808594 L 223.917969 124.980469 L 220.410156 124.691406 L 203.78125 121.46875 L 188.148438 117.308594 L 174.265625 113.585938 L 174.355469 113.308594 L 174.746094 113.425781 L 208.03125 122.207031 Z M 234.238281 125.191406 "/>
<path style=" stroke:none;fill-rule:nonzero;fill:rgb(39.99939%,39.99939%,39.99939%);fill-opacity:0.3;" d="M 291.703125 247.484375 L 308.570312 252.292969 L 290.191406 259.789062 L 288.113281 258.058594 Z M 291.703125 247.484375 "/>
<path style=" stroke:none;fill-rule:nonzero;fill:rgb(39.99939%,39.99939%,39.99939%);fill-opacity:0.3;" d="M 233.996094 229.667969 L 288.992188 246.601562 L 281.472656 267.855469 L 211.488281 308.246094 L 210.121094 307.546875 Z M 233.996094 229.667969 "/>
<path style=" stroke:none;fill-rule:nonzero;fill:rgb(39.99939%,39.99939%,39.99939%);fill-opacity:0.3;" d="M 180.03125 212.53125 L 229.753906 227.484375 L 204.933594 308.570312 L 155.558594 294.339844 Z M 180.03125 212.53125 "/>
<path style=" stroke:none;fill-rule:nonzero;fill:rgb(39.99939%,39.99939%,39.99939%);fill-opacity:0.3;" d="M 125.242188 102.707031 L 147.714844 109.429688 L 172.140625 116.550781 L 190.425781 121.691406 L 206.335938 125.644531 L 179.316406 206.007812 L 89.929688 179.679688 Z M 125.242188 102.707031 "/>
<path style=" stroke:none;fill-rule:nonzero;fill:rgb(39.99939%,39.99939%,39.99939%);fill-opacity:0.3;" d="M 264.683594 128.304688 L 255.542969 127.84375 L 235.824219 126.339844 L 236.132812 125.40625 L 236.925781 125.496094 Z M 264.683594 128.304688 "/>
<path style=" stroke:none;fill-rule:nonzero;fill:rgb(39.99939%,39.99939%,39.99939%);fill-opacity:0.3;" d="M 208.550781 126.992188 L 215.808594 128.199219 L 226.621094 129.414062 L 237.574219 130.894531 L 246.828125 131.796875 L 253.339844 132.359375 L 259.371094 132.871094 L 266.179688 133.15625 L 260.519531 147.179688 L 254.097656 162.648438 L 249.296875 173.707031 L 245.269531 184.53125 L 240.28125 199.488281 L 232.539062 223.558594 L 183.027344 208.128906 L 198.695312 157.023438 L 203.734375 141.667969 Z M 208.550781 126.992188 "/>
<path style=" stroke:none;fill-rule:nonzero;fill:rgb(39.99939%,39.99939%,39.99939%);fill-opacity:0.3;" d="M 76.320312 205.117188 L 85.523438 184.890625 L 176.679688 211.664062 L 153.015625 288.253906 L 151.75 291.347656 L 150.484375 292.546875 L 148.792969 292.648438 L 51.429688 263.453125 L 68 223.308594 Z M 76.320312 205.117188 "/>
<g clip-path="url(#clip19)" clip-rule="nonzero">
<path style=" stroke:none;fill-rule:nonzero;fill:rgb(39.99939%,39.99939%,39.99939%);fill-opacity:0.3;" d="M 365.695312 34.449219 L 401.246094 44.3125 L 399.957031 65.992188 L 359.535156 54.480469 Z M 365.695312 34.449219 "/>
</g>
<g clip-path="url(#clip20)" clip-rule="nonzero">
<path style=" stroke:none;fill-rule:nonzero;fill:rgb(39.99939%,39.99939%,39.99939%);fill-opacity:0.3;" d="M 334.457031 -75.878906 L 385.589844 -32.441406 L 364.792969 31.175781 L 334.078125 21.855469 L 333.644531 23.097656 L 333.15625 24.511719 L 364.027344 33.6875 L 357.648438 53.777344 L 305.742188 36.585938 L 311.726562 12.046875 L 343.007812 8.386719 L 341.332031 16.34375 L 342.328125 16.5 L 343.195312 16.640625 L 345.335938 8.683594 L 360.203125 7.664062 L 360.199219 6.742188 L 360.195312 5.75 L 340.101562 6.953125 L 339.878906 0.496094 L 339.019531 0.691406 L 338.15625 0.886719 L 338.03125 2.25 L 336.695312 2.328125 L 336.722656 3.121094 L 338.058594 3.179688 L 338.046875 6.90625 L 312.011719 9.871094 L 323.042969 -31.335938 L 330.292969 -29.246094 L 330.523438 -25.285156 L 349.558594 -20.261719 L 349.667969 -20.804688 L 349.851562 -21.726562 L 332.347656 -26.769531 L 332.03125 -30.398438 L 323.777344 -33.367188 Z M 334.457031 -75.878906 "/>
</g>
<g clip-path="url(#clip21)" clip-rule="nonzero">
<path style=" stroke:none;fill-rule:nonzero;fill:rgb(39.99939%,39.99939%,39.99939%);fill-opacity:0.3;" d="M 347.34375 256.839844 L 353.433594 256.757812 L 359.914062 256.367188 L 366.261719 255.652344 L 369.464844 255.070312 L 373.628906 254.164062 L 377.722656 253.066406 L 381.339844 252.097656 L 384.410156 251.128906 L 386.988281 250.09375 L 390.6875 248.609375 L 390.289062 271.335938 Z M 347.34375 256.839844 "/>
</g>
<g clip-path="url(#clip22)" clip-rule="nonzero">
<path style=" stroke:none;fill-rule:nonzero;fill:rgb(39.99939%,39.99939%,39.99939%);fill-opacity:0.3;" d="M 356.421875 267.453125 L 368.90625 271.234375 L 367.640625 301.523438 L 348.484375 297.523438 Z M 356.421875 267.453125 "/>
</g>
<path style=" stroke:none;fill-rule:nonzero;fill:rgb(39.99939%,39.99939%,39.99939%);fill-opacity:0.3;" d="M 312.601562 261.160156 L 332.539062 259.632812 L 353.503906 266.117188 L 345.109375 296.210938 L 303.078125 287.484375 Z M 312.601562 261.160156 "/>
<g clip-path="url(#clip23)" clip-rule="nonzero">
<path style=" stroke:none;fill-rule:nonzero;fill:rgb(39.99939%,39.99939%,39.99939%);fill-opacity:0.3;" d="M 348.046875 300.054688 L 367.261719 304.050781 L 360.296875 376.851562 L 383.3125 379.023438 L 379.621094 433.488281 L 335.980469 417.515625 L 343.75 385.3125 L 342.5625 385.195312 L 341.105469 385.050781 L 336.929688 400.738281 L 319.53125 395.214844 L 323.289062 381.902344 L 322.257812 381.78125 L 321.0625 381.640625 L 317.304688 394.425781 L 282.644531 383.25 L 282.515625 383.695312 L 282.226562 384.699219 L 296.703125 389.832031 L 294.757812 394.050781 L 285.011719 392.078125 L 284.746094 392.707031 L 284.457031 393.398438 L 294.339844 395.761719 L 292.71875 400.453125 L 264.625 390.589844 L 274.503906 364.886719 L 280.910156 365.9375 L 279.378906 370.945312 L 280.386719 371.019531 L 281.1875 371.078125 L 282.578125 366.066406 L 313.664062 372.519531 L 312.828125 377 L 314.5 377 L 315.195312 372.78125 L 325.1875 375.179688 L 324.808594 377.496094 L 327.445312 377.90625 L 332.175781 359.855469 L 344.5625 361.691406 L 344.714844 360.894531 L 344.84375 360.242188 L 332.40625 358.183594 L 337.167969 339.394531 Z M 348.046875 300.054688 "/>
</g>
<g clip-path="url(#clip24)" clip-rule="nonzero">
<path style=" stroke:none;fill-rule:nonzero;fill:rgb(39.99939%,39.99939%,39.99939%);fill-opacity:0.3;" d="M 279.261719 351.164062 L 327.9375 361.382812 L 324.808594 372.78125 L 275.136719 362.058594 Z M 279.261719 351.164062 "/>
</g>
<path style=" stroke:none;fill-rule:nonzero;fill:rgb(39.99939%,39.99939%,39.99939%);fill-opacity:0.3;" d="M 301.652344 290.21875 L 321.640625 294.585938 L 314.679688 320.65625 L 316.007812 320.988281 L 316.074219 321.003906 L 317.46875 321.351562 L 324.324219 295.15625 L 344.410156 299.402344 L 329.402344 358.808594 L 281.089844 348.167969 L 289.03125 325.175781 L 308.777344 329.605469 L 309.019531 328.410156 L 309.105469 327.980469 L 309.261719 327.210938 L 289.992188 322.554688 Z M 301.652344 290.21875 "/>
<path style="fill-rule:nonzero;fill:rgb(39.99939%,39.99939%,39.99939%);fill-opacity:1;stroke-width:0.03;stroke-linecap:square;stroke-linejoin:miter;stroke:rgb(39.99939%,39.99939%,39.99939%);stroke-opacity:1;stroke-miterlimit:3.239307;" d="M 308.238281 138.191406 L 308.03125 138.808594 L 297.917969 137.980469 L 294.410156 137.691406 L 277.78125 134.46875 L 262.148438 130.308594 L 248.265625 126.585938 L 248.355469 126.308594 L 248.746094 126.425781 L 282.03125 135.207031 Z M 308.238281 138.191406 " transform="matrix(1,0,0,1,-74,-13)"/>
<path style="fill-rule:nonzero;fill:rgb(39.99939%,39.99939%,39.99939%);fill-opacity:1;stroke-width:0.03;stroke-linecap:square;stroke-linejoin:miter;stroke:rgb(39.99939%,39.99939%,39.99939%);stroke-opacity:1;stroke-miterlimit:3.239307;" d="M 365.703125 260.484375 L 382.570312 265.292969 L 364.191406 272.789062 L 362.113281 271.058594 Z M 365.703125 260.484375 " transform="matrix(1,0,0,1,-74,-13)"/>
<path style="fill-rule:nonzero;fill:rgb(39.99939%,39.99939%,39.99939%);fill-opacity:1;stroke-width:0.03;stroke-linecap:square;stroke-linejoin:miter;stroke:rgb(39.99939%,39.99939%,39.99939%);stroke-opacity:1;stroke-miterlimit:3.239307;" d="M 307.996094 242.667969 L 362.992188 259.601562 L 355.472656 280.855469 L 285.488281 321.246094 L 284.121094 320.546875 Z M 307.996094 242.667969 " transform="matrix(1,0,0,1,-74,-13)"/>
<path style="fill-rule:nonzero;fill:rgb(39.99939%,39.99939%,39.99939%);fill-opacity:1;stroke-width:0.03;stroke-linecap:square;stroke-linejoin:miter;stroke:rgb(39.99939%,39.99939%,39.99939%);stroke-opacity:1;stroke-miterlimit:3.239307;" d="M 254.03125 225.53125 L 303.753906 240.484375 L 278.933594 321.570312 L 229.558594 307.339844 Z M 254.03125 225.53125 " transform="matrix(1,0,0,1,-74,-13)"/>
<path style="fill-rule:nonzero;fill:rgb(39.99939%,39.99939%,39.99939%);fill-opacity:1;stroke-width:0.03;stroke-linecap:square;stroke-linejoin:miter;stroke:rgb(39.99939%,39.99939%,39.99939%);stroke-opacity:1;stroke-miterlimit:3.239307;" d="M 199.242188 115.707031 L 221.714844 122.429688 L 246.140625 129.550781 L 264.425781 134.691406 L 280.335938 138.644531 L 253.316406 219.007812 L 163.929688 192.679688 Z M 199.242188 115.707031 " transform="matrix(1,0,0,1,-74,-13)"/>
<path style="fill-rule:nonzero;fill:rgb(39.99939%,39.99939%,39.99939%);fill-opacity:1;stroke-width:0.03;stroke-linecap:square;stroke-linejoin:miter;stroke:rgb(39.99939%,39.99939%,39.99939%);stroke-opacity:1;stroke-miterlimit:3.239307;" d="M 338.683594 141.304688 L 329.542969 140.84375 L 309.824219 139.339844 L 310.132812 138.40625 L 310.925781 138.496094 Z M 338.683594 141.304688 " transform="matrix(1,0,0,1,-74,-13)"/>
<path style="fill-rule:nonzero;fill:rgb(39.99939%,39.99939%,39.99939%);fill-opacity:1;stroke-width:0.03;stroke-linecap:square;stroke-linejoin:miter;stroke:rgb(39.99939%,39.99939%,39.99939%);stroke-opacity:1;stroke-miterlimit:3.239307;" d="M 282.550781 139.992188 L 289.808594 141.199219 L 300.621094 142.414062 L 311.574219 143.894531 L 320.828125 144.796875 L 327.339844 145.359375 L 333.371094 145.871094 L 340.179688 146.15625 L 334.519531 160.179688 L 328.097656 175.648438 L 323.296875 186.707031 L 319.269531 197.53125 L 314.28125 212.488281 L 306.539062 236.558594 L 257.027344 221.128906 L 272.695312 170.023438 L 277.734375 154.667969 Z M 282.550781 139.992188 " transform="matrix(1,0,0,1,-74,-13)"/>
<path style="fill-rule:nonzero;fill:rgb(39.99939%,39.99939%,39.99939%);fill-opacity:1;stroke-width:0.03;stroke-linecap:square;stroke-linejoin:miter;stroke:rgb(39.99939%,39.99939%,39.99939%);stroke-opacity:1;stroke-miterlimit:3.239307;" d="M 150.320312 218.117188 L 159.523438 197.890625 L 250.679688 224.664062 L 227.015625 301.253906 L 225.75 304.347656 L 224.484375 305.546875 L 222.792969 305.648438 L 125.429688 276.453125 L 142 236.308594 Z M 150.320312 218.117188 " transform="matrix(1,0,0,1,-74,-13)"/>
<path style=" stroke:none;fill-rule:evenodd;fill:rgb(85.096741%,85.096741%,81.959534%);fill-opacity:0.7;" d="M 0.628906 329 C 0.628906 325.121094 -0.910156 321.398438 -3.65625 318.65625 C -6.398438 315.910156 -10.121094 314.371094 -14 314.371094 C -17.878906 314.371094 -21.601562 315.910156 -24.34375 318.65625 C -27.089844 321.398438 -28.628906 325.121094 -28.628906 329 C -28.628906 332.878906 -27.089844 336.601562 -24.34375 339.34375 C -21.601562 342.089844 -17.878906 343.628906 -14 343.628906 C -10.121094 343.628906 -6.398438 342.089844 -3.65625 339.34375 C -0.910156 336.601562 0.628906 332.878906 0.628906 329 Z M 0.628906 329 "/>
<path style=" stroke:none;fill-rule:evenodd;fill:rgb(85.096741%,85.096741%,81.959534%);fill-opacity:0.7;" d="M 312.628906 296 C 312.628906 292.121094 311.089844 288.398438 308.34375 285.65625 C 305.601562 282.910156 301.878906 281.371094 298 281.371094 C 294.121094 281.371094 290.398438 282.910156 287.65625 285.65625 C 284.910156 288.398438 283.371094 292.121094 283.371094 296 C 283.371094 299.878906 284.910156 303.601562 287.65625 306.34375 C 290.398438 309.089844 294.121094 310.628906 298 310.628906 C 301.878906 310.628906 305.601562 309.089844 308.34375 306.34375 C 311.089844 303.601562 312.628906 299.878906 312.628906 296 Z M 312.628906 296 "/>
<path style=" stroke:none;fill-rule:evenodd;fill:rgb(85.096741%,85.096741%,81.959534%);fill-opacity:0.7;" d="M 312.628906 290 C 312.628906 286.121094 311.089844 282.398438 308.34375 279.65625 C 305.601562 276.910156 301.878906 275.371094 298 275.371094 C 294.121094 275.371094 290.398438 276.910156 287.65625 279.65625 C 284.910156 282.398438 283.371094 286.121094 283.371094 290 C 283.371094 293.878906 284.910156 297.601562 287.65625 300.34375 C 290.398438 303.089844 294.121094 304.628906 298 304.628906 C 301.878906 304.628906 305.601562 303.089844 308.34375 300.34375 C 311.089844 297.601562 312.628906 293.878906 312.628906 290 Z M 312.628906 290 "/>
<path style=" stroke:none;fill-rule:evenodd;fill:rgb(85.096741%,85.096741%,81.959534%);fill-opacity:0.7;" d="M 79.628906 146 C 79.628906 142.121094 78.089844 138.398438 75.34375 135.65625 C 72.601562 132.910156 68.878906 131.371094 65 131.371094 C 61.121094 131.371094 57.398438 132.910156 54.65625 135.65625 C 51.910156 138.398438 50.371094 142.121094 50.371094 146 C 50.371094 149.878906 51.910156 153.601562 54.65625 156.34375 C 57.398438 159.089844 61.121094 160.628906 65 160.628906 C 68.878906 160.628906 72.601562 159.089844 75.34375 156.34375 C 78.089844 153.601562 79.628906 149.878906 79.628906 146 Z M 79.628906 146 "/>
<path style=" stroke:none;fill-rule:evenodd;fill:rgb(85.096741%,85.096741%,81.959534%);fill-opacity:0.7;" d="M 219.628906 138 C 219.628906 134.121094 218.089844 130.398438 215.34375 127.65625 C 212.601562 124.910156 208.878906 123.371094 205 123.371094 C 201.121094 123.371094 197.398438 124.910156 194.65625 127.65625 C 191.910156 130.398438 190.371094 134.121094 190.371094 138 C 190.371094 141.878906 191.910156 145.601562 194.65625 148.34375 C 197.398438 151.089844 201.121094 152.628906 205 152.628906 C 208.878906 152.628906 212.601562 151.089844 215.34375 148.34375 C 218.089844 145.601562 219.628906 141.878906 219.628906 138 Z M 219.628906 138 "/>
<path style=" stroke:none;fill-rule:evenodd;fill:rgb(85.096741%,85.096741%,81.959534%);fill-opacity:0.7;" d="M 216.628906 137 C 216.628906 133.121094 215.089844 129.398438 212.34375 126.65625 C 209.601562 123.910156 205.878906 122.371094 202 122.371094 C 198.121094 122.371094 194.398438 123.910156 191.65625 126.65625 C 188.910156 129.398438 187.371094 133.121094 187.371094 137 C 187.371094 140.878906 188.910156 144.601562 191.65625 147.34375 C 194.398438 150.089844 198.121094 151.628906 202 151.628906 C 205.878906 151.628906 209.601562 150.089844 212.34375 147.34375 C 215.089844 144.601562 216.628906 140.878906 216.628906 137 Z M 216.628906 137 "/>
<path style=" stroke:none;fill-rule:evenodd;fill:rgb(85.096741%,85.096741%,81.959534%);fill-opacity:0.7;" d="M 193.628906 128 C 193.628906 124.121094 192.089844 120.398438 189.34375 117.65625 C 186.601562 114.910156 182.878906 113.371094 179 113.371094 C 175.121094 113.371094 171.398438 114.910156 168.65625 117.65625 C 165.910156 120.398438 164.371094 124.121094 164.371094 128 C 164.371094 131.878906 165.910156 135.601562 168.65625 138.34375 C 171.398438 141.089844 175.121094 142.628906 179 142.628906 C 182.878906 142.628906 186.601562 141.089844 189.34375 138.34375 C 192.089844 135.601562 193.628906 131.878906 193.628906 128 Z M 193.628906 128 "/>
<path style=" stroke:none;fill-rule:evenodd;fill:rgb(85.096741%,85.096741%,81.959534%);fill-opacity:0.7;" d="M 257.628906 102 C 257.628906 98.121094 256.089844 94.398438 253.34375 91.65625 C 250.601562 88.910156 246.878906 87.371094 243 87.371094 C 239.121094 87.371094 235.398438 88.910156 232.65625 91.65625 C 229.910156 94.398438 228.371094 98.121094 228.371094 102 C 228.371094 105.878906 229.910156 109.601562 232.65625 112.34375 C 235.398438 115.089844 239.121094 116.628906 243 116.628906 C 246.878906 116.628906 250.601562 115.089844 253.34375 112.34375 C 256.089844 109.601562 257.628906 105.878906 257.628906 102 Z M 257.628906 102 "/>
<path style=" stroke:none;fill-rule:evenodd;fill:rgb(85.096741%,85.096741%,81.959534%);fill-opacity:0.7;" d="M 356.628906 25 C 356.628906 21.121094 355.089844 17.398438 352.34375 14.65625 C 349.601562 11.910156 345.878906 10.371094 342 10.371094 C 338.121094 10.371094 334.398438 11.910156 331.65625 14.65625 C 328.910156 17.398438 327.371094 21.121094 327.371094 25 C 327.371094 28.878906 328.910156 32.601562 331.65625 35.34375 C 334.398438 38.089844 338.121094 39.628906 342 39.628906 C 345.878906 39.628906 349.601562 38.089844 352.34375 35.34375 C 355.089844 32.601562 356.628906 28.878906 356.628906 25 Z M 356.628906 25 "/>
<path style=" stroke:none;fill-rule:evenodd;fill:rgb(85.096741%,85.096741%,81.959534%);fill-opacity:0.7;" d="M 185.628906 138 C 185.628906 134.121094 184.089844 130.398438 181.34375 127.65625 C 178.601562 124.910156 174.878906 123.371094 171 123.371094 C 167.121094 123.371094 163.398438 124.910156 160.65625 127.65625 C 157.910156 130.398438 156.371094 134.121094 156.371094 138 C 156.371094 141.878906 157.910156 145.601562 160.65625 148.34375 C 163.398438 151.089844 167.121094 152.628906 171 152.628906 C 174.878906 152.628906 178.601562 151.089844 181.34375 148.34375 C 184.089844 145.601562 185.628906 141.878906 185.628906 138 Z M 185.628906 138 "/>
<g clip-path="url(#clip25)" clip-rule="nonzero">
<path style=" stroke:none;fill-rule:nonzero;fill:rgb(99.998474%,99.998474%,30.587769%);fill-opacity:0.8;" d="M 364.214844 64.414062 L 332.535156 119.28125 L 395.890625 119.28125 Z M 364.214844 64.414062 "/>
</g>
<g clip-path="url(#clip26)" clip-rule="nonzero">
<path style="fill:none;stroke-width:0.288;stroke-linecap:square;stroke-linejoin:miter;stroke:rgb(0%,0%,0%);stroke-opacity:0.8;stroke-miterlimit:3.25;" d="M 438.214844 77.414062 L 406.535156 132.28125 L 469.890625 132.28125 Z M 438.214844 77.414062 " transform="matrix(1,0,0,1,-74,-13)"/>
</g>
</g>
</svg>
