<?xml version="1.0" encoding="UTF-8"?>
<svg xmlns="http://www.w3.org/2000/svg" xmlns:xlink="http://www.w3.org/1999/xlink" width="361pt" height="361pt" viewBox="0 0 361 361" version="1.1">
<defs>
<clipPath id="clip1">
  <path d="M 350 100 L 360 100 L 360 217 L 350 217 Z M 350 100 "/>
</clipPath>
<clipPath id="clip2">
  <path d="M 0 354 L 27 354 L 27 360 L 0 360 Z M 0 354 "/>
</clipPath>
<clipPath id="clip3">
  <path d="M 0 351 L 3 351 L 3 360 L 0 360 Z M 0 351 "/>
</clipPath>
<clipPath id="clip4">
  <path d="M 21 358 L 51 358 L 51 360 L 21 360 Z M 21 358 "/>
</clipPath>
<clipPath id="clip5">
  <path d="M 54 294 L 90 294 L 90 360 L 54 360 Z M 54 294 "/>
</clipPath>
<clipPath id="clip6">
  <path d="M 147 306 L 184 306 L 184 360 L 147 360 Z M 147 306 "/>
</clipPath>
<clipPath id="clip7">
  <path d="M 172 308 L 204 308 L 204 360 L 172 360 Z M 172 308 "/>
</clipPath>
<clipPath id="clip8">
  <path d="M 125 303 L 160 303 L 160 360 L 125 360 Z M 125 303 "/>
</clipPath>
<clipPath id="clip9">
  <path d="M 101 300 L 137 300 L 137 360 L 101 360 Z M 101 300 "/>
</clipPath>
<clipPath id="clip10">
  <path d="M 78 297 L 113 297 L 113 360 L 78 360 Z M 78 297 "/>
</clipPath>
<clipPath id="clip11">
  <path d="M 192 311 L 228 311 L 228 360 L 192 360 Z M 192 311 "/>
</clipPath>
<clipPath id="clip12">
  <path d="M 219 353 L 288 353 L 288 360 L 219 360 Z M 219 353 "/>
</clipPath>
<clipPath id="clip13">
  <path d="M 328 340 L 360 340 L 360 360 L 328 360 Z M 328 340 "/>
</clipPath>
<clipPath id="clip14">
  <path d="M 326 358 L 360 358 L 360 360 L 326 360 Z M 326 358 "/>
</clipPath>
<clipPath id="clip15">
  <path d="M 352 280 L 360 280 L 360 318 L 352 318 Z M 352 280 "/>
</clipPath>
<clipPath id="clip16">
  <path d="M 331 322 L 360 322 L 360 343 L 331 343 Z M 331 322 "/>
</clipPath>
<clipPath id="clip17">
  <path d="M 341 218 L 360 218 L 360 298 L 341 298 Z M 341 218 "/>
</clipPath>
<clipPath id="clip18">
  <path d="M 218 336 L 258 336 L 258 360 L 218 360 Z M 218 336 "/>
</clipPath>
</defs>
<g id="surface6468">
<path style="fill-rule:nonzero;fill:rgb(0%,0%,0%);fill-opacity:1;stroke-width:0.03;stroke-linecap:square;stroke-linejoin:miter;stroke:rgb(0%,0%,0%);stroke-opacity:1;stroke-miterlimit:10;" d="M 0 178 L 360 178 L 360 -182 L 0 -182 Z M 0 178 " transform="matrix(1,0,0,1,0,182)"/>
<path style=" stroke:none;fill-rule:nonzero;fill:rgb(39.99939%,39.99939%,39.99939%);fill-opacity:0.3;" d="M 312.046875 78.703125 L 321.488281 79.925781 L 310.078125 159.3125 L 300.636719 158.089844 Z M 312.046875 78.703125 "/>
<path style=" stroke:none;fill-rule:nonzero;fill:rgb(39.99939%,39.99939%,39.99939%);fill-opacity:0.3;" d="M 259.347656 134.777344 L 261.15625 138.261719 L 256.375 140.417969 L 254.511719 136.933594 Z M 259.347656 134.777344 "/>
<path style=" stroke:none;fill-rule:nonzero;fill:rgb(39.99939%,39.99939%,39.99939%);fill-opacity:0.3;" d="M 155.628906 -6.359375 L 171.941406 -4.300781 L 167.058594 26.441406 L 150.972656 24.167969 Z M 155.628906 -6.359375 "/>
<path style=" stroke:none;fill-rule:nonzero;fill:rgb(39.99939%,39.99939%,39.99939%);fill-opacity:0.3;" d="M 118.335938 -14.453125 L 126.933594 -13.007812 L 123.609375 13.75 L 144.550781 16.847656 L 143.699219 23.554688 L 112.585938 19.621094 Z M 118.335938 -14.453125 "/>
<path style=" stroke:none;fill-rule:nonzero;fill:rgb(39.99939%,39.99939%,39.99939%);fill-opacity:0.3;" d="M 22.976562 -31.046875 L 54.066406 -26.507812 L 48.238281 8.84375 L 17.464844 4.679688 Z M 22.976562 -31.046875 "/>
<path style=" stroke:none;fill-rule:nonzero;fill:rgb(39.99939%,39.99939%,39.99939%);fill-opacity:0.3;" d="M 131.160156 -12.375 L 149.898438 -9.691406 L 146.832031 10.792969 L 128.605469 8.105469 Z M 131.160156 -12.375 "/>
<path style=" stroke:none;fill-rule:nonzero;fill:rgb(39.99939%,39.99939%,39.99939%);fill-opacity:0.3;" d="M 54.996094 6.410156 L 56.113281 0.28125 L 102.300781 7.789062 L 101.179688 13.917969 Z M 54.996094 6.410156 "/>
<path style=" stroke:none;fill-rule:nonzero;fill:rgb(39.99939%,39.99939%,39.99939%);fill-opacity:0.3;" d="M 79.15625 -15.269531 L 96.972656 -12.332031 L 94.191406 2.644531 L 76.378906 -0.296875 Z M 79.15625 -15.269531 "/>
<path style=" stroke:none;fill-rule:nonzero;fill:rgb(39.99939%,39.99939%,39.99939%);fill-opacity:0.3;" d="M 89.273438 141.707031 L 94.875 142.492188 L 94.195312 146.550781 L 88.59375 145.761719 Z M 89.273438 141.707031 "/>
<path style=" stroke:none;fill-rule:nonzero;fill:rgb(39.99939%,39.99939%,39.99939%);fill-opacity:0.3;" d="M 84.246094 159.992188 L 93.925781 161.488281 L 92.410156 169.351562 L 82.75 167.839844 Z M 84.246094 159.992188 "/>
<path style=" stroke:none;fill-rule:nonzero;fill:rgb(39.99939%,39.99939%,39.99939%);fill-opacity:0.3;" d="M 83.390625 146.566406 L 88.144531 147.378906 L 86.703125 154.515625 L 81.953125 153.699219 Z M 83.390625 146.566406 "/>
<path style=" stroke:none;fill-rule:nonzero;fill:rgb(39.99939%,39.99939%,39.99939%);fill-opacity:0.3;" d="M 30.59375 128.894531 L 35.261719 129.667969 L 30.652344 154.921875 L 25.71875 154.335938 Z M 30.59375 128.894531 "/>
<path style=" stroke:none;fill-rule:nonzero;fill:rgb(39.99939%,39.99939%,39.99939%);fill-opacity:0.3;" d="M 54.675781 164.789062 L 69.160156 166.625 L 71.25 177.414062 L 49.441406 174.570312 Z M 54.675781 164.789062 "/>
<path style=" stroke:none;fill-rule:nonzero;fill:rgb(39.99939%,39.99939%,39.99939%);fill-opacity:0.3;" d="M 99.621094 153.246094 L 104.523438 154.148438 L 99.769531 181.046875 L 94.574219 180.632812 Z M 99.621094 153.246094 "/>
<path style=" stroke:none;fill-rule:nonzero;fill:rgb(39.99939%,39.99939%,39.99939%);fill-opacity:0.3;" d="M 4.097656 30.097656 L 46.917969 37.015625 L 45.851562 42.875 L 3.03125 35.953125 Z M 4.097656 30.097656 "/>
<path style=" stroke:none;fill-rule:nonzero;fill:rgb(39.99939%,39.99939%,39.99939%);fill-opacity:0.3;" d="M 49.222656 38.621094 L 55.246094 39.351562 L 52.382812 60.078125 L 46.363281 59.347656 Z M 49.222656 38.621094 "/>
<path style=" stroke:none;fill-rule:nonzero;fill:rgb(39.99939%,39.99939%,39.99939%);fill-opacity:0.3;" d="M 51.566406 100.367188 L 65.203125 102.546875 L 64.03125 108.96875 L 50.394531 106.789062 Z M 51.566406 100.367188 "/>
<path style=" stroke:none;fill-rule:nonzero;fill:rgb(39.99939%,39.99939%,39.99939%);fill-opacity:0.3;" d="M 67.082031 102.316406 L 96.066406 106.785156 L 94.769531 114.113281 L 65.789062 109.636719 Z M 67.082031 102.316406 "/>
<path style=" stroke:none;fill-rule:nonzero;fill:rgb(39.99939%,39.99939%,39.99939%);fill-opacity:0.3;" d="M 68.847656 90.566406 L 97.839844 95.03125 L 96.550781 102.347656 L 67.5625 97.878906 Z M 68.847656 90.566406 "/>
<path style=" stroke:none;fill-rule:nonzero;fill:rgb(39.99939%,39.99939%,39.99939%);fill-opacity:0.3;" d="M 80.46875 57.203125 L 86.113281 57.882812 L 85.601562 61.609375 L 82.25 85.976562 L 76.605469 85.296875 Z M 80.46875 57.203125 "/>
<path style=" stroke:none;fill-rule:nonzero;fill:rgb(39.99939%,39.99939%,39.99939%);fill-opacity:0.3;" d="M 107.910156 90.9375 L 135.933594 97.203125 L 134.851562 101.082031 L 106.878906 94.578125 Z M 107.910156 90.9375 "/>
<path style=" stroke:none;fill-rule:nonzero;fill:rgb(39.99939%,39.99939%,39.99939%);fill-opacity:0.3;" d="M 105.878906 97.957031 L 114.300781 99.21875 L 110.5 121.21875 L 102.082031 119.953125 Z M 105.878906 97.957031 "/>
<path style=" stroke:none;fill-rule:nonzero;fill:rgb(39.99939%,39.99939%,39.99939%);fill-opacity:0.3;" d="M 109.988281 55.824219 L 121.03125 57.527344 L 119.597656 65.714844 L 108.558594 64.011719 Z M 109.988281 55.824219 "/>
<path style=" stroke:none;fill-rule:nonzero;fill:rgb(39.99939%,39.99939%,39.99939%);fill-opacity:0.3;" d="M 77.910156 44.472656 L 102.601562 48.382812 L 101.675781 53.539062 L 76.988281 49.625 Z M 77.910156 44.472656 "/>
<path style=" stroke:none;fill-rule:nonzero;fill:rgb(39.99939%,39.99939%,39.99939%);fill-opacity:0.3;" d="M 23.261719 99.460938 L 29.035156 100.3125 L 26.425781 115.746094 L 20.652344 114.890625 Z M 23.261719 99.460938 "/>
<path style=" stroke:none;fill-rule:nonzero;fill:rgb(39.99939%,39.99939%,39.99939%);fill-opacity:0.3;" d="M 5.335938 88.597656 L 13.523438 89.859375 L 12.75 97.214844 L 12.304688 101.476562 L 16.464844 113.171875 L 7.5625 113.921875 L 4.4375 103.878906 Z M 5.335938 88.597656 "/>
<path style=" stroke:none;fill-rule:nonzero;fill:rgb(39.99939%,39.99939%,39.99939%);fill-opacity:0.3;" d="M 16.226562 90.652344 L 27.335938 91.9375 L 26.640625 97.152344 L 15.53125 95.867188 Z M 16.226562 90.652344 "/>
<path style=" stroke:none;fill-rule:nonzero;fill:rgb(39.99939%,39.99939%,39.99939%);fill-opacity:0.3;" d="M -2.574219 75.972656 L 26.152344 79.878906 L 25.539062 83.578125 L -3.359375 79.429688 Z M -2.574219 75.972656 "/>
<path style=" stroke:none;fill-rule:nonzero;fill:rgb(39.99939%,39.99939%,39.99939%);fill-opacity:0.3;" d="M 29.027344 81.09375 L 35.433594 81.824219 L 35.027344 84.496094 L 42.175781 85.195312 L 41.71875 88.269531 L 30.960938 86.921875 L 31.285156 84.960938 L 28.363281 84.59375 Z M 29.027344 81.09375 "/>
<path style=" stroke:none;fill-rule:nonzero;fill:rgb(39.99939%,39.99939%,39.99939%);fill-opacity:0.3;" d="M 122.351562 67.433594 L 133.765625 89.074219 L 125.769531 93.109375 L 117.859375 77.929688 L 106.328125 85.765625 L 101.660156 79.296875 Z M 122.351562 67.433594 "/>
<path style=" stroke:none;fill-rule:nonzero;fill:rgb(39.99939%,39.99939%,39.99939%);fill-opacity:0.3;" d="M 23.671875 54.304688 L 41.617188 56.804688 L 39.945312 64.640625 L 22.683594 62.480469 Z M 23.671875 54.304688 "/>
<path style=" stroke:none;fill-rule:nonzero;fill:rgb(39.99939%,39.99939%,39.99939%);fill-opacity:0.3;" d="M 79.53125 119.675781 L 92.617188 122.566406 L 76.066406 141.820312 L 75.132812 143.835938 L 73.90625 154.800781 L 73.367188 157.976562 L 72.363281 160.929688 L 57.40625 157.765625 L 57.742188 153.441406 L 58 149.949219 L 58.046875 146.953125 L 58.546875 143.792969 L 60.050781 141.027344 L 61.953125 139 Z M 79.53125 119.675781 "/>
<path style=" stroke:none;fill-rule:nonzero;fill:rgb(39.99939%,39.99939%,39.99939%);fill-opacity:0.3;" d="M 54.953125 125.867188 L 64.234375 129.921875 L 61.933594 133.03125 L 58.4375 136.910156 L 54.03125 142.496094 L 53.351562 144.800781 L 53.25 151.460938 L 53.230469 157.335938 L 42.566406 160.28125 L 43.085938 152.355469 L 43.753906 145.074219 L 44.171875 141.617188 L 45.21875 138.960938 L 48.507812 133.738281 Z M 54.953125 125.867188 "/>
<path style=" stroke:none;fill-rule:nonzero;fill:rgb(39.99939%,39.99939%,39.99939%);fill-opacity:0.3;" d="M -1.097656 137.035156 L 21.617188 139.710938 L 15.859375 171.164062 L -6.316406 168.65625 Z M -1.097656 137.035156 "/>
<path style=" stroke:none;fill-rule:nonzero;fill:rgb(39.99939%,39.99939%,39.99939%);fill-opacity:0.3;" d="M 12.859375 65.089844 L 21.34375 65.242188 L 21.246094 69.355469 L 12.679688 69.039062 Z M 12.859375 65.089844 "/>
<path style=" stroke:none;fill-rule:nonzero;fill:rgb(39.99939%,39.99939%,39.99939%);fill-opacity:0.3;" d="M 98.015625 137.46875 L 119.242188 140.261719 L 118.675781 143.128906 L 97.515625 140.308594 Z M 98.015625 137.46875 "/>
<path style=" stroke:none;fill-rule:nonzero;fill:rgb(39.99939%,39.99939%,39.99939%);fill-opacity:0.3;" d="M 96.390625 125.007812 L 128.40625 128.808594 L 127.503906 134.257812 L 95.328125 130.605469 Z M 96.390625 125.007812 "/>
<path style=" stroke:none;fill-rule:nonzero;fill:rgb(39.99939%,39.99939%,39.99939%);fill-opacity:0.3;" d="M 38.230469 164.179688 L 46.964844 164.800781 L 42.339844 174.082031 L 33.605469 173.464844 Z M 38.230469 164.179688 "/>
<path style=" stroke:none;fill-rule:nonzero;fill:rgb(39.99939%,39.99939%,39.99939%);fill-opacity:0.3;" d="M 215.128906 149.296875 L 241.773438 139.300781 L 244.179688 143.835938 L 217.042969 153.699219 Z M 215.128906 149.296875 "/>
<path style=" stroke:none;fill-rule:nonzero;fill:rgb(39.99939%,39.99939%,39.99939%);fill-opacity:0.3;" d="M 180.898438 186.273438 L 188.976562 187.175781 L 189.332031 184.578125 L 198.484375 185.65625 L 198.152344 188.734375 L 203.789062 189.460938 L 204.882812 183.898438 L 209.277344 184.351562 L 208.035156 193.875 L 180.3125 190.542969 Z M 180.898438 186.273438 "/>
<path style=" stroke:none;fill-rule:nonzero;fill:rgb(39.99939%,39.99939%,39.99939%);fill-opacity:0.3;" d="M 112.222656 162.105469 L 136.734375 165.542969 L 136.515625 169.222656 L 121.511719 167.675781 L 117.308594 180.21875 L 109.519531 179.027344 Z M 112.222656 162.105469 "/>
<path style=" stroke:none;fill-rule:nonzero;fill:rgb(39.99939%,39.99939%,39.99939%);fill-opacity:0.3;" d="M 183.324219 69.449219 L 187.949219 69.652344 L 185.234375 86.433594 L 173.226562 95.847656 L 157.40625 92.933594 L 158.453125 87.96875 L 172.125 90.316406 L 180.449219 84.199219 Z M 183.324219 69.449219 "/>
<path style=" stroke:none;fill-rule:nonzero;fill:rgb(39.99939%,39.99939%,39.99939%);fill-opacity:0.3;" d="M 164.820312 57.046875 L 179.894531 59.28125 L 179.28125 62.542969 L 164.132812 60.203125 Z M 164.820312 57.046875 "/>
<path style=" stroke:none;fill-rule:nonzero;fill:rgb(39.99939%,39.99939%,39.99939%);fill-opacity:0.3;" d="M 193.070312 65.273438 L 207.414062 66.953125 L 206.996094 69.722656 L 192.6875 67.933594 Z M 193.070312 65.273438 "/>
<path style=" stroke:none;fill-rule:nonzero;fill:rgb(39.99939%,39.99939%,39.99939%);fill-opacity:0.3;" d="M 122.34375 179.183594 L 136.996094 180.550781 L 136.53125 185.027344 L 122.105469 183.65625 Z M 122.34375 179.183594 "/>
<path style=" stroke:none;fill-rule:nonzero;fill:rgb(39.99939%,39.99939%,39.99939%);fill-opacity:0.3;" d="M 168.605469 102.445312 L 181.804688 103.648438 L 182.429688 96.570312 L 189.265625 97.316406 L 186.859375 118.855469 L 180.148438 118.425781 L 181.183594 109.703125 L 168.011719 108.480469 Z M 168.605469 102.445312 "/>
<path style=" stroke:none;fill-rule:nonzero;fill:rgb(39.99939%,39.99939%,39.99939%);fill-opacity:0.3;" d="M 304.957031 83.496094 L 304.035156 90.546875 L 301.269531 90.242188 L 299.632812 100.742188 L 289.472656 107.816406 L 264.191406 103.75 L 265.117188 99.492188 L 285.761719 102.78125 L 289.644531 99.75 L 291.539062 89.277344 L 299.871094 90.089844 L 300.839844 83.042969 Z M 304.957031 83.496094 "/>
<path style=" stroke:none;fill-rule:nonzero;fill:rgb(39.99939%,39.99939%,39.99939%);fill-opacity:0.3;" d="M 232.4375 68.125 L 255.199219 71.332031 L 254.128906 77.980469 L 231.371094 74.765625 Z M 232.4375 68.125 "/>
<path style=" stroke:none;fill-rule:nonzero;fill:rgb(39.99939%,39.99939%,39.99939%);fill-opacity:0.3;" d="M 144.640625 95.335938 L 151.460938 96.585938 L 148.296875 113.980469 L 141.660156 112.785156 Z M 144.640625 95.335938 "/>
<path style=" stroke:none;fill-rule:nonzero;fill:rgb(39.99939%,39.99939%,39.99939%);fill-opacity:0.3;" d="M 140.90625 117.660156 L 147.464844 118.683594 L 146.867188 121.988281 L 149.984375 122.472656 L 150.570312 119.25 L 157.785156 120.378906 L 156.566406 127.066406 L 149.355469 125.9375 L 149.742188 123.8125 L 146.542969 123.3125 L 143.53125 139.707031 L 137.222656 138.710938 Z M 140.90625 117.660156 "/>
<path style=" stroke:none;fill-rule:nonzero;fill:rgb(39.99939%,39.99939%,39.99939%);fill-opacity:0.3;" d="M 164.917969 125.324219 L 172.320312 126.554688 L 169.390625 141.578125 L 161.992188 140.339844 Z M 164.917969 125.324219 "/>
<path style=" stroke:none;fill-rule:nonzero;fill:rgb(39.99939%,39.99939%,39.99939%);fill-opacity:0.3;" d="M 193.078125 127.925781 L 197.695312 127.917969 L 197.597656 134.769531 L 192.980469 134.773438 Z M 193.078125 127.925781 "/>
<path style=" stroke:none;fill-rule:nonzero;fill:rgb(39.99939%,39.99939%,39.99939%);fill-opacity:0.3;" d="M 186.648438 135.261719 L 195.179688 135.253906 L 195.101562 139.894531 L 186.570312 139.902344 Z M 186.648438 135.261719 "/>
<path style=" stroke:none;fill-rule:nonzero;fill:rgb(39.99939%,39.99939%,39.99939%);fill-opacity:0.3;" d="M 182.042969 126.972656 L 186.664062 126.964844 L 186.570312 133.8125 L 181.953125 133.816406 Z M 182.042969 126.972656 "/>
<path style=" stroke:none;fill-rule:nonzero;fill:rgb(39.99939%,39.99939%,39.99939%);fill-opacity:0.3;" d="M 175.953125 147.011719 L 183.886719 147.640625 L 183.578125 150.507812 L 196.171875 151.511719 L 196.484375 151.539062 L 202.859375 152.046875 L 203.007812 150.683594 L 211.25 151.34375 L 210.421875 158.625 L 204.988281 158.1875 L 204.828125 159.554688 L 195.664062 158.816406 L 195.523438 160.03125 L 178.902344 158.691406 L 179.246094 155.65625 L 175.050781 155.320312 Z M 175.953125 147.011719 "/>
<path style=" stroke:none;fill-rule:nonzero;fill:rgb(39.99939%,39.99939%,39.99939%);fill-opacity:0.3;" d="M 208.277344 138.867188 L 216.066406 135.589844 L 219.078125 142.496094 L 211.277344 145.78125 Z M 208.277344 138.867188 "/>
<path style=" stroke:none;fill-rule:nonzero;fill:rgb(39.99939%,39.99939%,39.99939%);fill-opacity:0.3;" d="M 244.71875 161.164062 L 253.210938 161.894531 L 252.816406 169.03125 L 244.335938 168.292969 Z M 244.71875 161.164062 "/>
<path style=" stroke:none;fill-rule:nonzero;fill:rgb(39.99939%,39.99939%,39.99939%);fill-opacity:0.3;" d="M 230.769531 154.199219 L 238.320312 150.320312 L 241.800781 157.035156 L 234.335938 160.851562 Z M 230.769531 154.199219 "/>
<path style=" stroke:none;fill-rule:nonzero;fill:rgb(39.99939%,39.99939%,39.99939%);fill-opacity:0.3;" d="M 229.929688 170.566406 L 234.53125 164.238281 L 241.140625 168.382812 L 236.511719 174.730469 Z M 229.929688 170.566406 "/>
<path style=" stroke:none;fill-rule:nonzero;fill:rgb(39.99939%,39.99939%,39.99939%);fill-opacity:0.3;" d="M 219.214844 190.222656 L 231.496094 191.621094 L 230.851562 196.746094 L 218.570312 195.347656 Z M 219.214844 190.222656 "/>
<path style=" stroke:none;fill-rule:nonzero;fill:rgb(39.99939%,39.99939%,39.99939%);fill-opacity:0.3;" d="M 195.476562 167.972656 L 201.621094 168.824219 L 199.902344 182.613281 L 193.769531 181.75 Z M 195.476562 167.972656 "/>
<path style=" stroke:none;fill-rule:nonzero;fill:rgb(39.99939%,39.99939%,39.99939%);fill-opacity:0.3;" d="M 129.175781 149.769531 L 141.242188 151.265625 L 140.539062 155.773438 L 128.484375 154.269531 Z M 129.175781 149.769531 "/>
<path style=" stroke:none;fill-rule:nonzero;fill:rgb(39.99939%,39.99939%,39.99939%);fill-opacity:0.3;" d="M 180.25 166.179688 L 190.136719 167.28125 L 189.597656 173.410156 L 179.722656 172.296875 Z M 180.25 166.179688 "/>
<path style=" stroke:none;fill-rule:nonzero;fill:rgb(39.99939%,39.99939%,39.99939%);fill-opacity:0.3;" d="M 171.492188 164.320312 L 176.511719 164.949219 L 174.136719 186.765625 L 169.136719 186.117188 Z M 171.492188 164.320312 "/>
<path style=" stroke:none;fill-rule:nonzero;fill:rgb(39.99939%,39.99939%,39.99939%);fill-opacity:0.3;" d="M 154.214844 164.800781 L 159.136719 165.515625 L 157.875 173.949219 L 152.925781 173.414062 Z M 154.214844 164.800781 "/>
<path style=" stroke:none;fill-rule:nonzero;fill:rgb(39.99939%,39.99939%,39.99939%);fill-opacity:0.3;" d="M 135.8125 171.203125 L 143.074219 171.867188 L 142.761719 176.746094 L 135.503906 176.078125 Z M 135.8125 171.203125 "/>
<path style=" stroke:none;fill-rule:nonzero;fill:rgb(39.99939%,39.99939%,39.99939%);fill-opacity:0.3;" d="M 137.96875 50.910156 L 160.007812 54.679688 L 158.976562 61.554688 L 167.914062 63.269531 L 167.269531 69.160156 L 162.601562 69.089844 L 160.988281 77.984375 L 160.960938 81.070312 L 155.058594 80.09375 L 145.570312 77.890625 L 139.515625 77.398438 L 138.8125 72.648438 L 141.257812 57.601562 L 136.855469 56.773438 Z M 137.96875 50.910156 "/>
<path style=" stroke:none;fill-rule:nonzero;fill:rgb(39.99939%,39.99939%,39.99939%);fill-opacity:0.3;" d="M 145.832031 144.101562 L 168.878906 147.585938 L 167.976562 152.335938 L 162.320312 151.671875 L 161.945312 153.003906 L 144.742188 150.097656 Z M 145.832031 144.101562 "/>
<path style=" stroke:none;fill-rule:nonzero;fill:rgb(39.99939%,39.99939%,39.99939%);fill-opacity:0.3;" d="M 204.78125 162.214844 L 218.359375 156.746094 L 221.644531 163.523438 L 231.632812 184.125 L 217.929688 188.402344 Z M 204.78125 162.214844 "/>
<path style=" stroke:none;fill-rule:nonzero;fill:rgb(39.99939%,39.99939%,39.99939%);fill-opacity:0.3;" d="M 273.425781 55.9375 L 281.132812 57.261719 L 280.457031 60.746094 L 272.75 59.421875 Z M 273.425781 55.9375 "/>
<path style=" stroke:none;fill-rule:nonzero;fill:rgb(39.99939%,39.99939%,39.99939%);fill-opacity:0.3;" d="M 276.890625 73.589844 L 301.652344 76.5 L 301.050781 81.355469 L 276.113281 78.761719 Z M 276.890625 73.589844 "/>
<path style=" stroke:none;fill-rule:nonzero;fill:rgb(39.99939%,39.99939%,39.99939%);fill-opacity:0.3;" d="M 267.488281 73.605469 L 272.015625 74.320312 L 271.351562 78.617188 L 269.722656 89.175781 L 281.542969 90.6875 L 280.628906 97.414062 L 271.257812 95.914062 L 271.703125 92.894531 L 269.070312 92.394531 L 268.414062 95.714844 L 263.78125 95.21875 Z M 267.488281 73.605469 "/>
<path style=" stroke:none;fill-rule:nonzero;fill:rgb(39.99939%,39.99939%,39.99939%);fill-opacity:0.3;" d="M 144.894531 182.503906 L 152.738281 183.308594 L 153.421875 176.382812 L 159.085938 177.109375 L 158.203125 183.707031 L 156.109375 183.632812 L 155.8125 187.316406 L 144.585938 185.933594 Z M 144.894531 182.503906 "/>
<path style=" stroke:none;fill-rule:nonzero;fill:rgb(39.99939%,39.99939%,39.99939%);fill-opacity:0.3;" d="M 309.476562 209.058594 L 241.195312 200.105469 L 244.460938 172.378906 L 258.132812 173.417969 L 258.820312 164.914062 L 315.136719 171.261719 Z M 309.476562 209.058594 "/>
<path style=" stroke:none;fill-rule:nonzero;fill:rgb(39.99939%,39.99939%,39.99939%);fill-opacity:0.3;" d="M 255.527344 85.828125 L 254.566406 91.492188 L 229.710938 86.921875 L 215.847656 73.148438 L 220.320312 69.078125 L 232.523438 81.789062 Z M 255.527344 85.828125 "/>
<path style=" stroke:none;fill-rule:nonzero;fill:rgb(39.99939%,39.99939%,39.99939%);fill-opacity:0.3;" d="M 205.355469 -14.605469 L 266.386719 -4.035156 L 265.71875 0.769531 L 247.414062 -2.472656 L 204.910156 -10.007812 Z M 205.355469 -14.605469 "/>
<path style=" stroke:none;fill-rule:nonzero;fill:rgb(39.99939%,39.99939%,39.99939%);fill-opacity:0.3;" d="M 184.695312 -15.472656 L 187.597656 -15.191406 L 187.25 -13.1875 L 190.484375 -12.734375 L 190.890625 -14.835938 L 193.484375 -14.4375 L 185.449219 30.746094 L 182.5 30.246094 L 182.949219 27.636719 L 179.726562 27.199219 L 179.230469 29.640625 L 176.484375 29.199219 Z M 184.695312 -15.472656 "/>
<path style=" stroke:none;fill-rule:nonzero;fill:rgb(39.99939%,39.99939%,39.99939%);fill-opacity:0.3;" d="M 203.515625 -1.21875 L 222.25 1.886719 L 215.804688 35.566406 L 197.300781 32.667969 Z M 203.515625 -1.21875 "/>
<path style=" stroke:none;fill-rule:nonzero;fill:rgb(39.99939%,39.99939%,39.99939%);fill-opacity:0.3;" d="M 225.773438 2.507812 L 243.398438 5.617188 L 237.996094 38.765625 L 219.492188 35.859375 Z M 225.773438 2.507812 "/>
<path style=" stroke:none;fill-rule:nonzero;fill:rgb(39.99939%,39.99939%,39.99939%);fill-opacity:0.3;" d="M 247.367188 5.820312 L 266.746094 8.722656 L 261.617188 42.195312 L 242.019531 38.875 Z M 247.367188 5.820312 "/>
<path style=" stroke:none;fill-rule:nonzero;fill:rgb(39.99939%,39.99939%,39.99939%);fill-opacity:0.3;" d="M 289.300781 -21.191406 L 297.664062 -19.113281 L 295.675781 -11.59375 L 305.683594 7.085938 L 304.195312 17.398438 L 303.453125 20 L 288.339844 36.714844 L 285.585938 46.808594 L 277.089844 45.519531 L 279.757812 35.050781 L 293.660156 18.089844 L 294.113281 10.5625 L 286.871094 -11.996094 Z M 289.300781 -21.191406 "/>
<path style=" stroke:none;fill-rule:nonzero;fill:rgb(39.99939%,39.99939%,39.99939%);fill-opacity:0.3;" d="M 45.496094 62.207031 L 55.015625 63.476562 L 53.128906 74.992188 L 49.191406 74.300781 L 48.355469 78.144531 L 60.34375 80.332031 L 67 81.550781 L 67.746094 77.796875 L 64.070312 77.164062 L 66.113281 64.917969 L 75.589844 66.148438 L 72.230469 86.058594 L 42.660156 81.011719 Z M 45.496094 62.207031 "/>
<path style=" stroke:none;fill-rule:nonzero;fill:rgb(39.99939%,39.99939%,39.99939%);fill-opacity:0.3;" d="M 313.09375 -31.097656 L 329.355469 -28.199219 L 341.457031 -26.15625 L 331.679688 53.402344 L 288.351562 47.183594 L 289.707031 39.695312 L 290.585938 38.269531 L 304.105469 22.625 L 305.804688 19.929688 L 306.726562 16.292969 L 307.679688 12.289062 L 307.800781 7.808594 L 323.394531 8.636719 L 323.507812 7.171875 L 323.621094 5.710938 L 311.292969 4.472656 L 309.980469 -2.421875 L 306.242188 -7.636719 L 305.8125 -22.675781 L 312.195312 -25.609375 Z M 313.09375 -31.097656 "/>
<path style=" stroke:none;fill-rule:nonzero;fill:rgb(39.99939%,39.99939%,39.99939%);fill-opacity:0.3;" d="M 39.933594 111.230469 L 36.234375 110.824219 L 37.65625 100.523438 L 38.714844 92.855469 L 39.179688 89.488281 L 50.023438 90.785156 L 47.179688 111.996094 L 43.003906 111.523438 L 42.746094 115.335938 L 48.84375 116.113281 L 63.816406 118.019531 L 62.8125 122.03125 L 28.425781 117.765625 L 28.621094 113.617188 L 39.5625 114.929688 Z M 39.933594 111.230469 "/>
<path style=" stroke:none;fill-rule:nonzero;fill:rgb(39.99939%,39.99939%,39.99939%);fill-opacity:0.3;" d="M -7.214844 -35.027344 L 10.574219 -32.59375 L 4.839844 1.421875 L -12.707031 -0.863281 Z M -7.214844 -35.027344 "/>
<path style=" stroke:none;fill-rule:nonzero;fill:rgb(39.99939%,39.99939%,39.99939%);fill-opacity:0.3;" d="M -37.964844 20.542969 L -35.394531 2.320312 L 3.082031 8.125 L 1.910156 13.199219 L -0.449219 13.113281 L -2.40625 25.523438 L -18.605469 23.230469 Z M -37.964844 20.542969 "/>
<g clip-path="url(#clip1)" clip-rule="nonzero">
<path style=" stroke:none;fill-rule:nonzero;fill:rgb(39.99939%,39.99939%,39.99939%);fill-opacity:0.3;" d="M 422.507812 141.144531 L 421.488281 147.941406 L 411.152344 216.484375 L 350.566406 208.570312 L 362.234375 116.128906 L 364.566406 101.398438 L 364.648438 100.664062 L 387.535156 100.851562 L 411.828125 103.765625 L 404.382812 138.777344 Z M 422.507812 141.144531 "/>
</g>
<path style=" stroke:none;fill-rule:nonzero;fill:rgb(39.99939%,39.99939%,39.99939%);fill-opacity:0.3;" d="M -5.453125 344.839844 L 2.554688 345.84375 L 1.832031 350.5625 L -6.101562 349.503906 Z M -5.453125 344.839844 "/>
<path style=" stroke:none;fill-rule:nonzero;fill:rgb(39.99939%,39.99939%,39.99939%);fill-opacity:0.3;" d="M -29.167969 320.375 L -20.871094 321.90625 L -21.484375 326.972656 L -19.308594 327.226562 L -16.554688 327.550781 L -15.53125 322.488281 L 5.828125 325.007812 L 2.964844 343.898438 L -32.339844 339.429688 Z M -29.167969 320.375 "/>
<path style=" stroke:none;fill-rule:nonzero;fill:rgb(39.99939%,39.99939%,39.99939%);fill-opacity:0.3;" d="M -18.03125 284.789062 L 12.175781 288.355469 L 6.648438 322.671875 L -23.542969 318.40625 Z M -18.03125 284.789062 "/>
<path style=" stroke:none;fill-rule:nonzero;fill:rgb(39.99939%,39.99939%,39.99939%);fill-opacity:0.3;" d="M -9.421875 183.8125 L 3.25 185.226562 L -8.714844 270.34375 L -22.15625 268.753906 Z M -9.421875 183.8125 "/>
<path style=" stroke:none;fill-rule:nonzero;fill:rgb(39.99939%,39.99939%,39.99939%);fill-opacity:0.3;" d="M 7.492188 185.953125 L 20.648438 187.421875 L 8.929688 272.679688 L -4.960938 271.039062 Z M 7.492188 185.953125 "/>
<path style=" stroke:none;fill-rule:nonzero;fill:rgb(39.99939%,39.99939%,39.99939%);fill-opacity:0.3;" d="M 47.414062 191.582031 L 59.664062 192.945312 L 52.976562 264.726562 L 51.429688 278.875 L 36.742188 277.140625 Z M 47.414062 191.582031 "/>
<path style=" stroke:none;fill-rule:nonzero;fill:rgb(39.99939%,39.99939%,39.99939%);fill-opacity:0.3;" d="M 38.125 190.488281 L 45.441406 191.304688 L 35.402344 276.921875 L 26.652344 275.886719 Z M 38.125 190.488281 "/>
<path style=" stroke:none;fill-rule:nonzero;fill:rgb(39.99939%,39.99939%,39.99939%);fill-opacity:0.3;" d="M 23.351562 188.636719 L 34.792969 189.910156 L 22.113281 275.15625 L 12.582031 274.03125 Z M 23.351562 188.636719 "/>
<path style=" stroke:none;fill-rule:nonzero;fill:rgb(39.99939%,39.99939%,39.99939%);fill-opacity:0.3;" d="M 29.699219 290.425781 L 41.832031 291.859375 L 28.804688 353.960938 L 5.082031 350.996094 L 4.703125 350.945312 L 16.582031 288.875 Z M 29.699219 290.425781 "/>
<path style=" stroke:none;fill-rule:nonzero;fill:rgb(39.99939%,39.99939%,39.99939%);fill-opacity:0.3;" d="M 1.832031 350.5625 L 1.785156 350.886719 L -6.144531 349.808594 L -6.101562 349.503906 Z M 1.832031 350.5625 "/>
<g clip-path="url(#clip2)" clip-rule="nonzero">
<path style=" stroke:none;fill-rule:nonzero;fill:rgb(39.99939%,39.99939%,39.99939%);fill-opacity:0.3;" d="M 5.898438 354.875 L 26.886719 357.773438 L 17.8125 397.808594 L -2.632812 394.8125 Z M 5.898438 354.875 "/>
</g>
<g clip-path="url(#clip3)" clip-rule="nonzero">
<path style=" stroke:none;fill-rule:nonzero;fill:rgb(39.99939%,39.99939%,39.99939%);fill-opacity:0.3;" d="M -18.125 351.558594 L 2.515625 354.410156 L -6.390625 394.984375 L -26.648438 391.296875 Z M -18.125 351.558594 "/>
</g>
<g clip-path="url(#clip4)" clip-rule="nonzero">
<path style=" stroke:none;fill-rule:nonzero;fill:rgb(39.99939%,39.99939%,39.99939%);fill-opacity:0.3;" d="M 30.28125 358.242188 L 50.917969 361.089844 L 41.015625 401.207031 L 21.296875 398.316406 Z M 30.28125 358.242188 "/>
</g>
<g clip-path="url(#clip5)" clip-rule="nonzero">
<path style=" stroke:none;fill-rule:nonzero;fill:rgb(39.99939%,39.99939%,39.99939%);fill-opacity:0.3;" d="M 68.25 294.957031 L 89.277344 297.460938 L 74.933594 360.847656 L 54.527344 358.03125 Z M 68.25 294.957031 "/>
</g>
<path style=" stroke:none;fill-rule:nonzero;fill:rgb(39.99939%,39.99939%,39.99939%);fill-opacity:0.3;" d="M 51.691406 293.023438 L 66.023438 294.714844 L 52.285156 357.722656 L 31.132812 354.800781 L 44.664062 292.191406 Z M 51.691406 293.023438 "/>
<path style=" stroke:none;fill-rule:nonzero;fill:rgb(39.99939%,39.99939%,39.99939%);fill-opacity:0.3;" d="M 28.804688 353.960938 L 28.699219 354.464844 L 4.664062 351.144531 L 4.703125 350.945312 L 5.082031 350.996094 Z M 28.804688 353.960938 "/>
<g clip-path="url(#clip6)" clip-rule="nonzero">
<path style=" stroke:none;fill-rule:nonzero;fill:rgb(39.99939%,39.99939%,39.99939%);fill-opacity:0.3;" d="M 162.265625 306.078125 L 183.554688 308.59375 L 170.074219 373.984375 L 147.859375 370.917969 Z M 162.265625 306.078125 "/>
</g>
<g clip-path="url(#clip7)" clip-rule="nonzero">
<path style=" stroke:none;fill-rule:nonzero;fill:rgb(39.99939%,39.99939%,39.99939%);fill-opacity:0.3;" d="M 186.695312 308.964844 L 203.933594 311 L 190.421875 376.792969 L 172.066406 374.257812 Z M 186.695312 308.964844 "/>
</g>
<g clip-path="url(#clip8)" clip-rule="nonzero">
<path style=" stroke:none;fill-rule:nonzero;fill:rgb(39.99939%,39.99939%,39.99939%);fill-opacity:0.3;" d="M 139.289062 303.367188 L 159.464844 305.746094 L 145.101562 370.535156 L 125.03125 367.765625 Z M 139.289062 303.367188 "/>
</g>
<g clip-path="url(#clip9)" clip-rule="nonzero">
<path style=" stroke:none;fill-rule:nonzero;fill:rgb(39.99939%,39.99939%,39.99939%);fill-opacity:0.3;" d="M 115.402344 300.546875 L 136.671875 303.054688 L 122.261719 367.382812 L 101.34375 364.496094 Z M 115.402344 300.546875 "/>
</g>
<g clip-path="url(#clip10)" clip-rule="nonzero">
<path style=" stroke:none;fill-rule:nonzero;fill:rgb(39.99939%,39.99939%,39.99939%);fill-opacity:0.3;" d="M 96.632812 298.328125 L 112.261719 300.175781 L 98.960938 364.164062 L 78.441406 361.332031 L 92.335938 297.820312 Z M 96.632812 298.328125 "/>
</g>
<g clip-path="url(#clip11)" clip-rule="nonzero">
<path style=" stroke:none;fill-rule:nonzero;fill:rgb(39.99939%,39.99939%,39.99939%);fill-opacity:0.3;" d="M 207.414062 311.71875 L 227.769531 313.8125 L 213.132812 379.929688 L 192.792969 377.121094 Z M 207.414062 311.71875 "/>
</g>
<path style=" stroke:none;fill-rule:nonzero;fill:rgb(39.99939%,39.99939%,39.99939%);fill-opacity:0.3;" d="M 292.027344 330.347656 L 229.183594 323.398438 L 231.171875 314.214844 L 244.191406 315.753906 L 293.351562 321.558594 Z M 292.027344 330.347656 "/>
<path style=" stroke:none;fill-rule:nonzero;fill:rgb(39.99939%,39.99939%,39.99939%);fill-opacity:0.3;" d="M 259.859375 330.441406 L 291.332031 333.808594 L 288.074219 356.613281 L 223.296875 350.5625 L 228.386719 327.074219 Z M 259.859375 330.441406 "/>
<g clip-path="url(#clip12)" clip-rule="nonzero">
<path style=" stroke:none;fill-rule:nonzero;fill:rgb(39.99939%,39.99939%,39.99939%);fill-opacity:0.3;" d="M 222.652344 353.523438 L 287.742188 358.835938 L 284.894531 377.75 L 219.4375 368.355469 Z M 222.652344 353.523438 "/>
</g>
<path style=" stroke:none;fill-rule:nonzero;fill:rgb(39.99939%,39.99939%,39.99939%);fill-opacity:0.3;" d="M 117.742188 202.710938 L 128.6875 204.421875 L 123.890625 229.539062 L 113.03125 227.582031 L 113.433594 225.464844 Z M 117.742188 202.710938 "/>
<path style=" stroke:none;fill-rule:nonzero;fill:rgb(39.99939%,39.99939%,39.99939%);fill-opacity:0.3;" d="M 52.976562 264.726562 L 51.65625 278.902344 L 51.429688 278.875 Z M 52.976562 264.726562 "/>
<path style=" stroke:none;fill-rule:nonzero;fill:rgb(39.99939%,39.99939%,39.99939%);fill-opacity:0.3;" d="M 61.703125 193.492188 L 71.519531 194.457031 L 68.792969 215.785156 L 75.644531 216.769531 L 66.652344 280.996094 L 54.113281 279.515625 Z M 61.703125 193.492188 "/>
<path style=" stroke:none;fill-rule:nonzero;fill:rgb(39.99939%,39.99939%,39.99939%);fill-opacity:0.3;" d="M 135.210938 205.386719 L 144.867188 206.6875 L 139.984375 232.257812 L 130.328125 230.628906 Z M 135.210938 205.386719 "/>
<path style=" stroke:none;fill-rule:nonzero;fill:rgb(39.99939%,39.99939%,39.99939%);fill-opacity:0.3;" d="M 112.375 230.527344 L 140.585938 234.894531 L 137.089844 254.234375 L 108.5625 249.871094 Z M 112.375 230.527344 "/>
<path style=" stroke:none;fill-rule:nonzero;fill:rgb(39.99939%,39.99939%,39.99939%);fill-opacity:0.3;" d="M 147.714844 215.207031 L 160.21875 217.035156 L 146.996094 291.960938 L 134.09375 290.4375 Z M 147.714844 215.207031 "/>
<path style=" stroke:none;fill-rule:nonzero;fill:rgb(39.99939%,39.99939%,39.99939%);fill-opacity:0.3;" d="M 107.613281 252.890625 L 118.367188 254.734375 L 112.25 287.859375 L 101.996094 286.648438 Z M 107.613281 252.890625 "/>
<path style=" stroke:none;fill-rule:nonzero;fill:rgb(39.99939%,39.99939%,39.99939%);fill-opacity:0.3;" d="M 123.253906 255.429688 L 136.9375 257.273438 L 130.351562 289.996094 L 116.699219 288.382812 Z M 123.253906 255.429688 "/>
<path style=" stroke:none;fill-rule:nonzero;fill:rgb(39.99939%,39.99939%,39.99939%);fill-opacity:0.3;" d="M 97.816406 216.269531 L 111.011719 218.117188 L 99.8125 280.667969 L 85.398438 278.824219 Z M 97.816406 216.269531 "/>
<path style=" stroke:none;fill-rule:nonzero;fill:rgb(39.99939%,39.99939%,39.99939%);fill-opacity:0.3;" d="M 80.714844 213.730469 L 96.105469 216.039062 L 83.441406 278.128906 L 71.226562 276.050781 Z M 80.714844 213.730469 "/>
<path style=" stroke:none;fill-rule:nonzero;fill:rgb(39.99939%,39.99939%,39.99939%);fill-opacity:0.3;" d="M 199.246094 222.75 L 215.402344 225.113281 L 200.492188 298.277344 L 185.394531 296.496094 Z M 199.246094 222.75 "/>
<path style=" stroke:none;fill-rule:nonzero;fill:rgb(39.99939%,39.99939%,39.99939%);fill-opacity:0.3;" d="M 218.613281 225.585938 L 232.035156 227.550781 L 219.679688 300.542969 L 203.710938 298.660156 Z M 218.613281 225.585938 "/>
<path style=" stroke:none;fill-rule:nonzero;fill:rgb(39.99939%,39.99939%,39.99939%);fill-opacity:0.3;" d="M 162.878906 217.425781 L 178.042969 219.644531 L 164.617188 294.042969 L 150.664062 292.394531 Z M 162.878906 217.425781 "/>
<path style=" stroke:none;fill-rule:nonzero;fill:rgb(39.99939%,39.99939%,39.99939%);fill-opacity:0.3;" d="M 181.695312 220.179688 L 196.382812 222.332031 L 183.171875 296.234375 L 167.324219 294.363281 Z M 181.695312 220.179688 "/>
<path style=" stroke:none;fill-rule:nonzero;fill:rgb(39.99939%,39.99939%,39.99939%);fill-opacity:0.3;" d="M 238.453125 205.847656 L 308.570312 214.433594 L 296.480469 308.570312 L 221.371094 299.703125 Z M 238.453125 205.847656 "/>
<path style=" stroke:none;fill-rule:nonzero;fill:rgb(39.99939%,39.99939%,39.99939%);fill-opacity:0.3;" d="M 137.59375 192.339844 L 149.328125 194.054688 L 147.777344 201.769531 L 136.320312 200.117188 Z M 137.59375 192.339844 "/>
<path style=" stroke:none;fill-rule:nonzero;fill:rgb(39.99939%,39.99939%,39.99939%);fill-opacity:0.3;" d="M 120.628906 190.757812 L 132.359375 192.46875 L 130.8125 200.183594 L 119.355469 198.53125 Z M 120.628906 190.757812 "/>
<path style=" stroke:none;fill-rule:nonzero;fill:rgb(39.99939%,39.99939%,39.99939%);fill-opacity:0.3;" d="M 85.910156 186.394531 L 115.582031 190.589844 L 113.539062 202.265625 L 84.109375 198.066406 Z M 85.910156 186.394531 "/>
<path style=" stroke:none;fill-rule:nonzero;fill:rgb(39.99939%,39.99939%,39.99939%);fill-opacity:0.3;" d="M 82.898438 202.191406 L 112.496094 206.390625 L 110.789062 215.3125 L 81.703125 211.113281 Z M 82.898438 202.191406 "/>
<path style=" stroke:none;fill-rule:nonzero;fill:rgb(39.99939%,39.99939%,39.99939%);fill-opacity:0.3;" d="M 75.664062 185.804688 L 82.566406 186.488281 L 78.5 213.671875 L 71.65625 212.703125 Z M 75.664062 185.804688 "/>
<path style=" stroke:none;fill-rule:nonzero;fill:rgb(39.99939%,39.99939%,39.99939%);fill-opacity:0.3;" d="M 221.34375 203.765625 L 235.730469 205.308594 L 233.066406 223.964844 L 218.828125 222.042969 Z M 221.34375 203.765625 "/>
<path style=" stroke:none;fill-rule:nonzero;fill:rgb(39.99939%,39.99939%,39.99939%);fill-opacity:0.3;" d="M 202.003906 201.667969 L 218.921875 203.484375 L 216.257812 221.515625 L 199.765625 218.613281 Z M 202.003906 201.667969 "/>
<path style=" stroke:none;fill-rule:nonzero;fill:rgb(39.99939%,39.99939%,39.99939%);fill-opacity:0.3;" d="M 153.867188 194.878906 L 198.40625 200.160156 L 196.109375 217.976562 L 150.792969 211.035156 Z M 153.867188 194.878906 "/>
<g clip-path="url(#clip13)" clip-rule="nonzero">
<path style=" stroke:none;fill-rule:nonzero;fill:rgb(39.99939%,39.99939%,39.99939%);fill-opacity:0.3;" d="M 331.027344 340.179688 L 373.75 345.582031 L 371.148438 360.785156 L 328.835938 355.59375 Z M 331.027344 340.179688 "/>
</g>
<g clip-path="url(#clip14)" clip-rule="nonzero">
<path style=" stroke:none;fill-rule:nonzero;fill:rgb(39.99939%,39.99939%,39.99939%);fill-opacity:0.3;" d="M 328.484375 358.0625 L 370.648438 363.445312 L 368.1875 377.304688 L 326.558594 372.648438 Z M 328.484375 358.0625 "/>
</g>
<path style=" stroke:none;fill-rule:nonzero;fill:rgb(39.99939%,39.99939%,39.99939%);fill-opacity:0.3;" d="M 340.058594 278.511719 L 355.277344 280.023438 L 350.367188 315.785156 L 335.289062 313.871094 Z M 340.058594 278.511719 "/>
<g clip-path="url(#clip15)" clip-rule="nonzero">
<path style=" stroke:none;fill-rule:nonzero;fill:rgb(39.99939%,39.99939%,39.99939%);fill-opacity:0.3;" d="M 357.917969 280.285156 L 371.722656 281.660156 L 367.6875 317.980469 L 352.871094 316.101562 Z M 357.917969 280.285156 "/>
</g>
<g clip-path="url(#clip16)" clip-rule="nonzero">
<path style=" stroke:none;fill-rule:nonzero;fill:rgb(39.99939%,39.99939%,39.99939%);fill-opacity:0.3;" d="M 333.613281 322.574219 L 347.203125 324.160156 L 347.207031 329.574219 L 382.164062 334.363281 L 380.765625 342.546875 L 331.644531 336.421875 Z M 333.613281 322.574219 "/>
</g>
<g clip-path="url(#clip17)" clip-rule="nonzero">
<path style=" stroke:none;fill-rule:nonzero;fill:rgb(39.99939%,39.99939%,39.99939%);fill-opacity:0.3;" d="M 348.535156 218.480469 L 583.96875 246.941406 L 585.046875 249.234375 L 575.433594 268.269531 L 575.089844 268.179688 L 570.636719 266.6875 L 570.089844 268.046875 L 569.554688 269.363281 L 573.179688 271.703125 L 573.542969 272.007812 L 571.679688 275.703125 L 560.488281 297.039062 L 341.402344 273.988281 Z M 348.535156 218.480469 "/>
</g>
<path style="fill-rule:nonzero;fill:rgb(39.99939%,39.99939%,39.99939%);fill-opacity:1;stroke-width:0.03;stroke-linecap:square;stroke-linejoin:miter;stroke:rgb(39.99939%,39.99939%,39.99939%);stroke-opacity:1;stroke-miterlimit:3.239307;" d="M 191.742188 215.710938 L 202.6875 217.421875 L 197.890625 242.539062 L 187.03125 240.582031 L 187.433594 238.464844 Z M 191.742188 215.710938 " transform="matrix(1,0,0,1,-74,-13)"/>
<path style="fill-rule:nonzero;fill:rgb(39.99939%,39.99939%,39.99939%);fill-opacity:1;stroke-width:0.03;stroke-linecap:square;stroke-linejoin:miter;stroke:rgb(39.99939%,39.99939%,39.99939%);stroke-opacity:1;stroke-miterlimit:3.239307;" d="M 126.976562 277.726562 L 125.65625 291.902344 L 125.429688 291.875 Z M 126.976562 277.726562 " transform="matrix(1,0,0,1,-74,-13)"/>
<path style="fill-rule:nonzero;fill:rgb(39.99939%,39.99939%,39.99939%);fill-opacity:1;stroke-width:0.03;stroke-linecap:square;stroke-linejoin:miter;stroke:rgb(39.99939%,39.99939%,39.99939%);stroke-opacity:1;stroke-miterlimit:3.239307;" d="M 135.703125 206.492188 L 145.519531 207.457031 L 142.792969 228.785156 L 149.644531 229.769531 L 140.652344 293.996094 L 128.113281 292.515625 Z M 135.703125 206.492188 " transform="matrix(1,0,0,1,-74,-13)"/>
<path style="fill-rule:nonzero;fill:rgb(39.99939%,39.99939%,39.99939%);fill-opacity:1;stroke-width:0.03;stroke-linecap:square;stroke-linejoin:miter;stroke:rgb(39.99939%,39.99939%,39.99939%);stroke-opacity:1;stroke-miterlimit:3.239307;" d="M 209.210938 218.386719 L 218.867188 219.6875 L 213.984375 245.257812 L 204.328125 243.628906 Z M 209.210938 218.386719 " transform="matrix(1,0,0,1,-74,-13)"/>
<path style="fill-rule:nonzero;fill:rgb(39.99939%,39.99939%,39.99939%);fill-opacity:1;stroke-width:0.03;stroke-linecap:square;stroke-linejoin:miter;stroke:rgb(39.99939%,39.99939%,39.99939%);stroke-opacity:1;stroke-miterlimit:3.239307;" d="M 186.375 243.527344 L 214.585938 247.894531 L 211.089844 267.234375 L 182.5625 262.871094 Z M 186.375 243.527344 " transform="matrix(1,0,0,1,-74,-13)"/>
<path style="fill-rule:nonzero;fill:rgb(39.99939%,39.99939%,39.99939%);fill-opacity:1;stroke-width:0.03;stroke-linecap:square;stroke-linejoin:miter;stroke:rgb(39.99939%,39.99939%,39.99939%);stroke-opacity:1;stroke-miterlimit:3.239307;" d="M 221.714844 228.207031 L 234.21875 230.035156 L 220.996094 304.960938 L 208.09375 303.4375 Z M 221.714844 228.207031 " transform="matrix(1,0,0,1,-74,-13)"/>
<path style="fill-rule:nonzero;fill:rgb(39.99939%,39.99939%,39.99939%);fill-opacity:1;stroke-width:0.03;stroke-linecap:square;stroke-linejoin:miter;stroke:rgb(39.99939%,39.99939%,39.99939%);stroke-opacity:1;stroke-miterlimit:3.239307;" d="M 181.613281 265.890625 L 192.367188 267.734375 L 186.25 300.859375 L 175.996094 299.648438 Z M 181.613281 265.890625 " transform="matrix(1,0,0,1,-74,-13)"/>
<path style="fill-rule:nonzero;fill:rgb(39.99939%,39.99939%,39.99939%);fill-opacity:1;stroke-width:0.03;stroke-linecap:square;stroke-linejoin:miter;stroke:rgb(39.99939%,39.99939%,39.99939%);stroke-opacity:1;stroke-miterlimit:3.239307;" d="M 197.253906 268.429688 L 210.9375 270.273438 L 204.351562 302.996094 L 190.699219 301.382812 Z M 197.253906 268.429688 " transform="matrix(1,0,0,1,-74,-13)"/>
<path style="fill-rule:nonzero;fill:rgb(39.99939%,39.99939%,39.99939%);fill-opacity:1;stroke-width:0.03;stroke-linecap:square;stroke-linejoin:miter;stroke:rgb(39.99939%,39.99939%,39.99939%);stroke-opacity:1;stroke-miterlimit:3.239307;" d="M 171.816406 229.269531 L 185.011719 231.117188 L 173.8125 293.667969 L 159.398438 291.824219 Z M 171.816406 229.269531 " transform="matrix(1,0,0,1,-74,-13)"/>
<path style="fill-rule:nonzero;fill:rgb(39.99939%,39.99939%,39.99939%);fill-opacity:1;stroke-width:0.03;stroke-linecap:square;stroke-linejoin:miter;stroke:rgb(39.99939%,39.99939%,39.99939%);stroke-opacity:1;stroke-miterlimit:3.239307;" d="M 154.714844 226.730469 L 170.105469 229.039062 L 157.441406 291.128906 L 145.226562 289.050781 Z M 154.714844 226.730469 " transform="matrix(1,0,0,1,-74,-13)"/>
<path style="fill-rule:nonzero;fill:rgb(39.99939%,39.99939%,39.99939%);fill-opacity:1;stroke-width:0.03;stroke-linecap:square;stroke-linejoin:miter;stroke:rgb(39.99939%,39.99939%,39.99939%);stroke-opacity:1;stroke-miterlimit:3.239307;" d="M 273.246094 235.75 L 289.402344 238.113281 L 274.492188 311.277344 L 259.394531 309.496094 Z M 273.246094 235.75 " transform="matrix(1,0,0,1,-74,-13)"/>
<path style="fill-rule:nonzero;fill:rgb(39.99939%,39.99939%,39.99939%);fill-opacity:1;stroke-width:0.03;stroke-linecap:square;stroke-linejoin:miter;stroke:rgb(39.99939%,39.99939%,39.99939%);stroke-opacity:1;stroke-miterlimit:3.239307;" d="M 292.613281 238.585938 L 306.035156 240.550781 L 293.679688 313.542969 L 277.710938 311.660156 Z M 292.613281 238.585938 " transform="matrix(1,0,0,1,-74,-13)"/>
<path style="fill-rule:nonzero;fill:rgb(39.99939%,39.99939%,39.99939%);fill-opacity:1;stroke-width:0.03;stroke-linecap:square;stroke-linejoin:miter;stroke:rgb(39.99939%,39.99939%,39.99939%);stroke-opacity:1;stroke-miterlimit:3.239307;" d="M 236.878906 230.425781 L 252.042969 232.644531 L 238.617188 307.042969 L 224.664062 305.394531 Z M 236.878906 230.425781 " transform="matrix(1,0,0,1,-74,-13)"/>
<path style="fill-rule:nonzero;fill:rgb(39.99939%,39.99939%,39.99939%);fill-opacity:1;stroke-width:0.03;stroke-linecap:square;stroke-linejoin:miter;stroke:rgb(39.99939%,39.99939%,39.99939%);stroke-opacity:1;stroke-miterlimit:3.239307;" d="M 255.695312 233.179688 L 270.382812 235.332031 L 257.171875 309.234375 L 241.324219 307.363281 Z M 255.695312 233.179688 " transform="matrix(1,0,0,1,-74,-13)"/>
<path style="fill-rule:nonzero;fill:rgb(39.99939%,39.99939%,39.99939%);fill-opacity:1;stroke-width:0.03;stroke-linecap:square;stroke-linejoin:miter;stroke:rgb(39.99939%,39.99939%,39.99939%);stroke-opacity:1;stroke-miterlimit:3.239307;" d="M 312.453125 218.847656 L 382.570312 227.433594 L 370.480469 321.570312 L 295.371094 312.703125 Z M 312.453125 218.847656 " transform="matrix(1,0,0,1,-74,-13)"/>
<path style="fill-rule:nonzero;fill:rgb(39.99939%,39.99939%,39.99939%);fill-opacity:1;stroke-width:0.03;stroke-linecap:square;stroke-linejoin:miter;stroke:rgb(39.99939%,39.99939%,39.99939%);stroke-opacity:1;stroke-miterlimit:3.239307;" d="M 211.59375 205.339844 L 223.328125 207.054688 L 221.777344 214.769531 L 210.320312 213.117188 Z M 211.59375 205.339844 " transform="matrix(1,0,0,1,-74,-13)"/>
<path style="fill-rule:nonzero;fill:rgb(39.99939%,39.99939%,39.99939%);fill-opacity:1;stroke-width:0.03;stroke-linecap:square;stroke-linejoin:miter;stroke:rgb(39.99939%,39.99939%,39.99939%);stroke-opacity:1;stroke-miterlimit:3.239307;" d="M 194.628906 203.757812 L 206.359375 205.46875 L 204.8125 213.183594 L 193.355469 211.53125 Z M 194.628906 203.757812 " transform="matrix(1,0,0,1,-74,-13)"/>
<path style="fill-rule:nonzero;fill:rgb(39.99939%,39.99939%,39.99939%);fill-opacity:1;stroke-width:0.03;stroke-linecap:square;stroke-linejoin:miter;stroke:rgb(39.99939%,39.99939%,39.99939%);stroke-opacity:1;stroke-miterlimit:3.239307;" d="M 159.910156 199.394531 L 189.582031 203.589844 L 187.539062 215.265625 L 158.109375 211.066406 Z M 159.910156 199.394531 " transform="matrix(1,0,0,1,-74,-13)"/>
<path style="fill-rule:nonzero;fill:rgb(39.99939%,39.99939%,39.99939%);fill-opacity:1;stroke-width:0.03;stroke-linecap:square;stroke-linejoin:miter;stroke:rgb(39.99939%,39.99939%,39.99939%);stroke-opacity:1;stroke-miterlimit:3.239307;" d="M 156.898438 215.191406 L 186.496094 219.390625 L 184.789062 228.3125 L 155.703125 224.113281 Z M 156.898438 215.191406 " transform="matrix(1,0,0,1,-74,-13)"/>
<path style="fill-rule:nonzero;fill:rgb(39.99939%,39.99939%,39.99939%);fill-opacity:1;stroke-width:0.03;stroke-linecap:square;stroke-linejoin:miter;stroke:rgb(39.99939%,39.99939%,39.99939%);stroke-opacity:1;stroke-miterlimit:3.239307;" d="M 149.664062 198.804688 L 156.566406 199.488281 L 152.5 226.671875 L 145.65625 225.703125 Z M 149.664062 198.804688 " transform="matrix(1,0,0,1,-74,-13)"/>
<path style="fill-rule:nonzero;fill:rgb(39.99939%,39.99939%,39.99939%);fill-opacity:1;stroke-width:0.03;stroke-linecap:square;stroke-linejoin:miter;stroke:rgb(39.99939%,39.99939%,39.99939%);stroke-opacity:1;stroke-miterlimit:3.239307;" d="M 295.34375 216.765625 L 309.730469 218.308594 L 307.066406 236.964844 L 292.828125 235.042969 Z M 295.34375 216.765625 " transform="matrix(1,0,0,1,-74,-13)"/>
<path style="fill-rule:nonzero;fill:rgb(39.99939%,39.99939%,39.99939%);fill-opacity:1;stroke-width:0.03;stroke-linecap:square;stroke-linejoin:miter;stroke:rgb(39.99939%,39.99939%,39.99939%);stroke-opacity:1;stroke-miterlimit:3.239307;" d="M 276.003906 214.667969 L 292.921875 216.484375 L 290.257812 234.515625 L 273.765625 231.613281 Z M 276.003906 214.667969 " transform="matrix(1,0,0,1,-74,-13)"/>
<path style="fill-rule:nonzero;fill:rgb(39.99939%,39.99939%,39.99939%);fill-opacity:1;stroke-width:0.03;stroke-linecap:square;stroke-linejoin:miter;stroke:rgb(39.99939%,39.99939%,39.99939%);stroke-opacity:1;stroke-miterlimit:3.239307;" d="M 227.867188 207.878906 L 272.40625 213.160156 L 270.109375 230.976562 L 224.792969 224.035156 Z M 227.867188 207.878906 " transform="matrix(1,0,0,1,-74,-13)"/>
<path style=" stroke:none;fill-rule:evenodd;fill:rgb(85.096741%,85.096741%,81.959534%);fill-opacity:0.7;" d="M 148.886719 256 C 148.886719 250.726562 146.792969 245.667969 143.0625 241.9375 C 139.332031 238.207031 134.273438 236.113281 129 236.113281 C 123.726562 236.113281 118.667969 238.207031 114.9375 241.9375 C 111.207031 245.667969 109.113281 250.726562 109.113281 256 C 109.113281 261.273438 111.207031 266.332031 114.9375 270.0625 C 118.667969 273.792969 123.726562 275.886719 129 275.886719 C 134.273438 275.886719 139.332031 273.792969 143.0625 270.0625 C 146.792969 266.332031 148.886719 261.273438 148.886719 256 Z M 148.886719 256 "/>
<g clip-path="url(#clip18)" clip-rule="nonzero">
<path style=" stroke:none;fill-rule:evenodd;fill:rgb(85.096741%,85.096741%,81.959534%);fill-opacity:0.7;" d="M 257.886719 356 C 257.886719 350.726562 255.792969 345.667969 252.0625 341.9375 C 248.332031 338.207031 243.273438 336.113281 238 336.113281 C 232.726562 336.113281 227.667969 338.207031 223.9375 341.9375 C 220.207031 345.667969 218.113281 350.726562 218.113281 356 C 218.113281 361.273438 220.207031 366.332031 223.9375 370.0625 C 227.667969 373.792969 232.726562 375.886719 238 375.886719 C 243.273438 375.886719 248.332031 373.792969 252.0625 370.0625 C 255.792969 366.332031 257.886719 361.273438 257.886719 356 Z M 257.886719 356 "/>
</g>
<path style="fill-rule:nonzero;fill:rgb(99.998474%,99.998474%,30.587769%);fill-opacity:0.8;stroke-width:0.288;stroke-linecap:square;stroke-linejoin:miter;stroke:rgb(0%,0%,0%);stroke-opacity:0.8;stroke-miterlimit:3.25;" d="M 193.441406 -30.785156 L 150.382812 43.792969 L 236.5 43.792969 Z M 193.441406 -30.785156 " transform="matrix(1,0,0,1,-74,-13)"/>
</g>
</svg>
