<?xml version="1.0" encoding="UTF-8"?>
<svg xmlns="http://www.w3.org/2000/svg" xmlns:xlink="http://www.w3.org/1999/xlink" width="361pt" height="361pt" viewBox="0 0 361 361" version="1.1">
<defs>
<clipPath id="clip1">
  <path d="M 340 273 L 360 273 L 360 299 L 340 299 Z M 340 273 "/>
</clipPath>
<clipPath id="clip2">
  <path d="M 354 321 L 360 321 L 360 341 L 354 341 Z M 354 321 "/>
</clipPath>
<clipPath id="clip3">
  <path d="M 310 359 L 315 359 L 315 360 L 310 360 Z M 310 359 "/>
</clipPath>
<clipPath id="clip4">
  <path d="M 316 356 L 326 356 L 326 360 L 316 360 Z M 316 356 "/>
</clipPath>
<clipPath id="clip5">
  <path d="M 327 354 L 337 354 L 337 360 L 327 360 Z M 327 354 "/>
</clipPath>
<clipPath id="clip6">
  <path d="M 336 352 L 347 352 L 347 360 L 336 360 Z M 336 352 "/>
</clipPath>
<clipPath id="clip7">
  <path d="M 347 295 L 360 295 L 360 321 L 347 321 Z M 347 295 "/>
</clipPath>
<clipPath id="clip8">
  <path d="M 319 183 L 360 183 L 360 309 L 319 309 Z M 319 183 "/>
</clipPath>
<clipPath id="clip9">
  <path d="M 283 353 L 360 353 L 360 360 L 283 360 Z M 283 353 "/>
</clipPath>
</defs>
<g id="surface4116">
<path style="fill-rule:nonzero;fill:rgb(0%,0%,0%);fill-opacity:1;stroke-width:0.03;stroke-linecap:square;stroke-linejoin:miter;stroke:rgb(0%,0%,0%);stroke-opacity:1;stroke-miterlimit:10;" d="M 0 178 L 360 178 L 360 -182 L 0 -182 Z M 0 178 " transform="matrix(1,0,0,1,0,182)"/>
<g clip-path="url(#clip1)" clip-rule="nonzero">
<path style=" stroke:none;fill-rule:nonzero;fill:rgb(39.99939%,39.99939%,39.99939%);fill-opacity:0.3;" d="M 415.753906 273.445312 L 418.039062 282.796875 L 343.214844 298.757812 L 340.925781 289.390625 Z M 415.753906 273.445312 "/>
</g>
<path style=" stroke:none;fill-rule:nonzero;fill:rgb(39.99939%,39.99939%,39.99939%);fill-opacity:0.3;" d="M 315.417969 342.207031 L 310.773438 341.640625 L 314 324.84375 L 317.703125 325.292969 Z M 315.417969 342.207031 "/>
<path style=" stroke:none;fill-rule:nonzero;fill:rgb(39.99939%,39.99939%,39.99939%);fill-opacity:0.3;" d="M 326.105469 343.652344 L 318.617188 342.691406 L 321.03125 325.792969 L 328.523438 326.757812 Z M 326.105469 343.652344 "/>
<path style=" stroke:none;fill-rule:nonzero;fill:rgb(39.99939%,39.99939%,39.99939%);fill-opacity:0.3;" d="M 337.425781 345.074219 L 329.925781 344.167969 L 332.203125 327.253906 L 339.703125 328.160156 Z M 337.425781 345.074219 "/>
<path style=" stroke:none;fill-rule:nonzero;fill:rgb(39.99939%,39.99939%,39.99939%);fill-opacity:0.3;" d="M 353.824219 341.183594 L 346.390625 342.492188 L 343.125 325.726562 L 350.558594 324.414062 Z M 353.824219 341.183594 "/>
<g clip-path="url(#clip2)" clip-rule="nonzero">
<path style=" stroke:none;fill-rule:nonzero;fill:rgb(39.99939%,39.99939%,39.99939%);fill-opacity:0.3;" d="M 365.996094 338.445312 L 358.648438 340.128906 L 354.445312 323.550781 L 361.789062 321.863281 Z M 365.996094 338.445312 "/>
</g>
<g clip-path="url(#clip3)" clip-rule="nonzero">
<path style=" stroke:none;fill-rule:nonzero;fill:rgb(39.99939%,39.99939%,39.99939%);fill-opacity:0.3;" d="M 310.417969 359.519531 L 313.679688 359.210938 L 314.988281 371.675781 L 310.554688 372.027344 Z M 310.417969 359.519531 "/>
</g>
<g clip-path="url(#clip4)" clip-rule="nonzero">
<path style=" stroke:none;fill-rule:nonzero;fill:rgb(39.99939%,39.99939%,39.99939%);fill-opacity:0.3;" d="M 318.078125 371.433594 L 316.621094 357.542969 L 324.144531 356.824219 L 325.613281 370.835938 Z M 318.078125 371.433594 "/>
</g>
<g clip-path="url(#clip5)" clip-rule="nonzero">
<path style=" stroke:none;fill-rule:nonzero;fill:rgb(39.99939%,39.99939%,39.99939%);fill-opacity:0.3;" d="M 328.652344 370.597656 L 327.027344 355.109375 L 334.550781 354.394531 L 336.1875 370 Z M 328.652344 370.597656 "/>
</g>
<g clip-path="url(#clip6)" clip-rule="nonzero">
<path style=" stroke:none;fill-rule:nonzero;fill:rgb(39.99939%,39.99939%,39.99939%);fill-opacity:0.3;" d="M 346.257812 369.160156 L 343.308594 369.4375 L 338.730469 369.800781 L 336.957031 352.90625 L 344.476562 352.191406 Z M 346.257812 369.160156 "/>
</g>
<g clip-path="url(#clip7)" clip-rule="nonzero">
<path style=" stroke:none;fill-rule:nonzero;fill:rgb(39.99939%,39.99939%,39.99939%);fill-opacity:0.3;" d="M 424.375 304.898438 L 349.550781 320.855469 L 347.171875 311.113281 L 421.996094 295.15625 Z M 424.375 304.898438 "/>
</g>
<path style=" stroke:none;fill-rule:nonzero;fill:rgb(39.99939%,39.99939%,39.99939%);fill-opacity:0.3;" d="M 318.96875 298.957031 L 330.429688 297.34375 L 331.054688 301.84375 L 340.167969 300.6875 L 341.492188 310.226562 L 332.40625 311.609375 L 333.539062 319.769531 L 320.644531 321.359375 L 318.140625 303.285156 Z M 318.96875 298.957031 "/>
<g clip-path="url(#clip8)" clip-rule="nonzero">
<path style=" stroke:none;fill-rule:nonzero;fill:rgb(39.99939%,39.99939%,39.99939%);fill-opacity:0.3;" d="M 471.773438 183.125 L 471.539062 184.335938 L 355.34375 212.679688 L 354.828125 215.355469 L 354.164062 218.8125 L 357.992188 217.878906 L 358.375 236.703125 L 346.066406 239.851562 L 346.402344 241.832031 L 346.738281 243.808594 L 362.632812 239.742188 L 362.167969 216.863281 L 400.628906 207.484375 L 389.320312 274.386719 L 394.117188 273.214844 L 405.429688 206.316406 L 470.359375 190.472656 L 446.738281 305.46875 L 430.050781 308.890625 L 422.988281 271.488281 L 415.65625 273.050781 L 340.835938 289.015625 L 319.835938 294.449219 L 334.914062 215.921875 L 363.6875 208.730469 L 406.847656 198.453125 Z M 471.773438 183.125 "/>
</g>
<path style=" stroke:none;fill-rule:nonzero;fill:rgb(39.99939%,39.99939%,39.99939%);fill-opacity:0.3;" d="M 223.714844 216.078125 L 222.429688 223.179688 L 195.433594 218.355469 L 194.996094 214.242188 L 198.242188 199.625 L 197.203125 208.730469 L 205.425781 211.8125 Z M 223.714844 216.078125 "/>
<path style=" stroke:none;fill-rule:nonzero;fill:rgb(39.99939%,39.99939%,39.99939%);fill-opacity:0.3;" d="M 206.828125 161 L 208.570312 153.160156 L 210.355469 153.472656 Z M 206.828125 161 "/>
<path style=" stroke:none;fill-rule:nonzero;fill:rgb(39.99939%,39.99939%,39.99939%);fill-opacity:0.3;" d="M 158.949219 122.433594 L 91.097656 111.433594 L 95.019531 91.386719 L 162.375 104.160156 Z M 158.949219 122.433594 "/>
<path style=" stroke:none;fill-rule:nonzero;fill:rgb(39.99939%,39.99939%,39.99939%);fill-opacity:0.3;" d="M 100.210938 57.175781 L 168.847656 70.195312 L 165.101562 90.242188 L 96.707031 77.917969 Z M 100.210938 57.175781 "/>
<path style=" stroke:none;fill-rule:nonzero;fill:rgb(39.99939%,39.99939%,39.99939%);fill-opacity:0.3;" d="M 89.417969 251.351562 L 135.457031 240.855469 L 136.15625 262.683594 L 131.226562 264.085938 L 97.210938 273.230469 L 93.738281 273.4375 L 90.277344 273.273438 L 84.816406 272.445312 Z M 89.417969 251.351562 "/>
<path style=" stroke:none;fill-rule:nonzero;fill:rgb(39.99939%,39.99939%,39.99939%);fill-opacity:0.3;" d="M 187.484375 272.972656 L 194.601562 274.417969 L 191.214844 287.375 L 189.074219 295.101562 L 133.078125 280.914062 L 135.929688 268.210938 L 149.757812 264.613281 L 150.738281 262.175781 L 188.289062 270.128906 Z M 187.484375 272.972656 "/>
<path style=" stroke:none;fill-rule:nonzero;fill:rgb(39.99939%,39.99939%,39.99939%);fill-opacity:0.3;" d="M 164.929688 223.152344 L 173.363281 249.519531 L 169.820312 254.300781 L 149.003906 257.601562 L 134.484375 219.875 L 137.414062 217 Z M 164.929688 223.152344 "/>
<path style=" stroke:none;fill-rule:nonzero;fill:rgb(39.99939%,39.99939%,39.99939%);fill-opacity:0.3;" d="M 187.597656 221.5 L 197.636719 223.527344 L 194.617188 243.507812 L 205.984375 246.285156 L 203.8125 255.359375 L 201.214844 265.289062 L 181.324219 261.265625 L 175.785156 241.246094 L 170.242188 221.320312 L 174.824219 221.691406 L 175.410156 218.917969 Z M 187.597656 221.5 "/>
<path style=" stroke:none;fill-rule:nonzero;fill:rgb(39.99939%,39.99939%,39.99939%);fill-opacity:0.3;" d="M 92.214844 130.101562 L 86.265625 177.695312 L 75.597656 176.5 L 80.496094 140.332031 L 76.316406 139.835938 L 77.820312 129.046875 Z M 92.214844 130.101562 "/>
<path style=" stroke:none;fill-rule:nonzero;fill:rgb(39.99939%,39.99939%,39.99939%);fill-opacity:0.3;" d="M 68.160156 205.09375 L 92.855469 209.550781 L 78.832031 272.945312 L 53.757812 268.359375 Z M 68.160156 205.09375 "/>
<path style=" stroke:none;fill-rule:nonzero;fill:rgb(39.99939%,39.99939%,39.99939%);fill-opacity:0.3;" d="M 70.722656 51.429688 L 91.101562 55.445312 L 91.542969 69.789062 L 88.3125 96.914062 L 64.824219 93.152344 L 64.484375 96.339844 L 64.078125 100.15625 L 82.863281 103.648438 L 79.429688 127.21875 L 69.121094 126.5625 L 66.222656 141.957031 L 76.589844 144.023438 L 73.625 174.832031 L 51.644531 173.957031 L 51.429688 175.832031 L 53.328125 137.820312 L 56.414062 122.40625 L 62.578125 103.90625 Z M 70.722656 51.429688 "/>
<path style=" stroke:none;fill-rule:nonzero;fill:rgb(39.99939%,39.99939%,39.99939%);fill-opacity:0.3;" d="M 150 166.175781 L 92.003906 155.238281 L 95.304688 131.585938 L 155.28125 142.101562 Z M 150 166.175781 "/>
<path style=" stroke:none;fill-rule:nonzero;fill:rgb(39.99939%,39.99939%,39.99939%);fill-opacity:0.3;" d="M 184.960938 158.074219 L 205.046875 152.652344 L 199.550781 176.308594 L 180.972656 180.644531 L 166.085938 184.117188 L 159.398438 183.511719 L 164.140625 162.648438 Z M 184.960938 158.074219 "/>
<path style=" stroke:none;fill-rule:nonzero;fill:rgb(39.99939%,39.99939%,39.99939%);fill-opacity:0.3;" d="M 124.589844 169.101562 L 149.488281 171.082031 L 160.722656 210.261719 L 134.117188 204.863281 Z M 124.589844 169.101562 "/>
<path style=" stroke:none;fill-rule:nonzero;fill:rgb(39.99939%,39.99939%,39.99939%);fill-opacity:0.3;" d="M 203.382812 145.816406 L 180.035156 141.507812 L 185.851562 112.710938 L 208.984375 116.484375 Z M 203.382812 145.816406 "/>
<path style=" stroke:none;fill-rule:nonzero;fill:rgb(39.99939%,39.99939%,39.99939%);fill-opacity:0.3;" d="M 256.804688 217.21875 L 246.691406 308.570312 L 226.804688 304.191406 L 227.140625 296.601562 L 198.984375 290.574219 L 210.136719 241.941406 L 228.832031 246.671875 L 234.429688 218.582031 L 236.253906 219.007812 Z M 256.804688 217.21875 "/>
<path style=" stroke:none;fill-rule:nonzero;fill:rgb(39.99939%,39.99939%,39.99939%);fill-opacity:0.3;" d="M 115.863281 163.996094 L 131.945312 228.949219 L 115.523438 225.746094 L 99.183594 222.785156 L 103.34375 205.214844 L 106.050781 205.726562 L 106.589844 202.777344 L 93.535156 201.15625 L 95.261719 185.296875 L 87.984375 184.269531 L 89.929688 162.65625 L 95.175781 163.507812 L 95.550781 160.59375 L 100.226562 161.359375 L 99.863281 164.589844 L 106.480469 165.550781 L 106.660156 162.851562 Z M 115.863281 163.996094 "/>
<path style=" stroke:none;fill-rule:nonzero;fill:rgb(39.99939%,39.99939%,39.99939%);fill-opacity:0.3;" d="M 225.171875 208.023438 L 223.714844 216.078125 L 205.425781 211.8125 L 197.203125 208.730469 L 198.242188 199.625 L 206.828125 161 L 210.355469 153.472656 L 214.65625 154.214844 L 204.613281 204.855469 Z M 225.171875 208.023438 "/>
<path style=" stroke:none;fill-rule:nonzero;fill:rgb(39.99939%,39.99939%,39.99939%);fill-opacity:0.3;" d="M 261.199219 209.234375 L 260.417969 209.0625 L 257.769531 208.480469 L 256.804688 217.21875 L 236.253906 219.007812 L 234.429688 218.582031 L 237.269531 204.332031 L 248.414062 206.304688 L 269.304688 89.371094 L 281.105469 91.601562 Z M 261.199219 209.234375 "/>
<path style=" stroke:none;fill-rule:nonzero;fill:rgb(39.99939%,39.99939%,39.99939%);fill-opacity:0.3;" d="M 258.558594 96.460938 L 232.507812 92 L 234.425781 82.136719 L 260.480469 86.597656 Z M 258.558594 96.460938 "/>
<path style=" stroke:none;fill-rule:nonzero;fill:rgb(39.99939%,39.99939%,39.99939%);fill-opacity:0.3;" d="M 251.417969 119.40625 L 230.652344 115.730469 L 234.535156 96.109375 L 255.300781 99.785156 Z M 251.417969 119.40625 "/>
<path style=" stroke:none;fill-rule:nonzero;fill:rgb(39.99939%,39.99939%,39.99939%);fill-opacity:0.3;" d="M 246.144531 141.980469 L 225.378906 138.300781 L 229.261719 118.6875 L 250.027344 122.363281 Z M 246.144531 141.980469 "/>
<path style=" stroke:none;fill-rule:nonzero;fill:rgb(39.99939%,39.99939%,39.99939%);fill-opacity:0.3;" d="M 240.351562 167.222656 L 219.585938 163.546875 L 223.472656 143.9375 L 244.238281 147.613281 Z M 240.351562 167.222656 "/>
<path style=" stroke:none;fill-rule:nonzero;fill:rgb(39.99939%,39.99939%,39.99939%);fill-opacity:0.3;" d="M 227.097656 187.238281 L 211.121094 184.386719 L 215.011719 164.78125 L 230.988281 167.632812 Z M 227.097656 187.238281 "/>
<path style=" stroke:none;fill-rule:nonzero;fill:rgb(39.99939%,39.99939%,39.99939%);fill-opacity:0.3;" d="M 246.074219 190.363281 L 230.730469 187.589844 L 232.65625 177.734375 L 248 180.511719 Z M 246.074219 190.363281 "/>
<path style=" stroke:none;fill-rule:nonzero;fill:rgb(39.99939%,39.99939%,39.99939%);fill-opacity:0.3;" d="M -30.554688 31.457031 L 2 37.871094 L -7.03125 117.945312 L -4.8125 118.199219 L -2.59375 118.449219 L 7.050781 38.875 L 25.160156 42.445312 L 19.414062 129.597656 L -3.191406 123.433594 L -24.773438 119.320312 L -39.160156 122.40625 L -35.050781 78.214844 Z M -30.554688 31.457031 "/>
<path style=" stroke:none;fill-rule:nonzero;fill:rgb(39.99939%,39.99939%,39.99939%);fill-opacity:0.3;" d="M 12.132812 50.070312 L 21.15625 50.925781 L 21.035156 52.023438 L 24.507812 52.351562 L 23.941406 60.980469 L 22.949219 60.886719 L 23.191406 58.664062 L 20.34375 58.394531 L 19.867188 62.757812 L 23.796875 63.128906 L 23.554688 66.796875 L 19.472656 66.410156 L 19.191406 68.992188 L 23.386719 69.390625 L 22.804688 78.171875 L 21.085938 78.007812 L 21.371094 75.394531 L 18.523438 75.125 L 17.90625 80.792969 L 22.605469 81.238281 L 22.410156 84.160156 L 17.589844 83.703125 L 17.347656 85.925781 L 22.265625 86.390625 L 21.699219 94.957031 L 19.269531 94.726562 L 19.535156 92.265625 L 16.6875 91.996094 L 16.152344 96.910156 L 21.539062 97.421875 L 21.289062 101.160156 L 21.214844 101.863281 L 15.671875 101.335938 L 15.417969 103.683594 L 20.960938 104.210938 L 20.0625 112.441406 L 17.371094 112.1875 L 17.640625 109.707031 L 14.792969 109.4375 L 14.273438 114.199219 L 19.816406 114.722656 L 19.34375 119.074219 L 13.800781 118.546875 L 13.875 120.753906 L 4.542969 119.867188 L 4.78125 117.691406 L -0.761719 117.167969 L -0.0390625 110.535156 L 2.652344 110.789062 L 2.40625 113.074219 L 5.253906 113.34375 L 5.769531 108.582031 L 0.230469 108.058594 L 0.855469 102.304688 L 6.394531 102.828125 L 6.652344 100.480469 L 1.109375 99.957031 L 1.859375 93.078125 L 4.550781 93.332031 L 4.285156 95.785156 L 7.132812 96.054688 L 7.667969 91.140625 L 2.125 90.617188 L 2.785156 84.546875 L 8.328125 85.070312 L 8.570312 82.847656 L 3.027344 82.320312 L 3.675781 76.359375 L 6.371094 76.613281 L 6.039062 79.667969 L 8.886719 79.9375 L 9.5 74.269531 L 3.960938 73.746094 L 4.628906 67.613281 L 10.167969 68.136719 L 10.449219 65.554688 L 4.90625 65.027344 L 5.539062 59.234375 L 8.230469 59.492188 L 8 61.632812 L 10.847656 61.902344 L 11.320312 57.539062 L 5.78125 57.011719 L 6.46875 50.65625 L 12.011719 51.167969 Z M 12.132812 50.070312 "/>
<g clip-path="url(#clip9)" clip-rule="nonzero">
<path style=" stroke:none;fill-rule:nonzero;fill:rgb(39.99939%,39.99939%,39.99939%);fill-opacity:0.3;" d="M 309.644531 378.175781 L 356.609375 369.382812 L 356.976562 372.746094 L 440.453125 353.621094 L 406.945312 520.988281 L 283.527344 554.027344 Z M 309.644531 378.175781 "/>
</g>
<path style="fill-rule:nonzero;fill:rgb(39.99939%,39.99939%,39.99939%);fill-opacity:1;stroke-width:0.03;stroke-linecap:square;stroke-linejoin:miter;stroke:rgb(39.99939%,39.99939%,39.99939%);stroke-opacity:1;stroke-miterlimit:3.239307;" d="M 297.714844 229.078125 L 296.429688 236.179688 L 269.433594 231.355469 L 268.996094 227.242188 L 272.242188 212.625 L 271.203125 221.730469 L 279.425781 224.8125 Z M 297.714844 229.078125 " transform="matrix(1,0,0,1,-74,-13)"/>
<path style="fill-rule:nonzero;fill:rgb(39.99939%,39.99939%,39.99939%);fill-opacity:1;stroke-width:0.03;stroke-linecap:square;stroke-linejoin:miter;stroke:rgb(39.99939%,39.99939%,39.99939%);stroke-opacity:1;stroke-miterlimit:3.239307;" d="M 280.828125 174 L 282.570312 166.160156 L 284.355469 166.472656 Z M 280.828125 174 " transform="matrix(1,0,0,1,-74,-13)"/>
<path style="fill-rule:nonzero;fill:rgb(39.99939%,39.99939%,39.99939%);fill-opacity:1;stroke-width:0.03;stroke-linecap:square;stroke-linejoin:miter;stroke:rgb(39.99939%,39.99939%,39.99939%);stroke-opacity:1;stroke-miterlimit:3.239307;" d="M 232.949219 135.433594 L 165.097656 124.433594 L 169.019531 104.386719 L 236.375 117.160156 Z M 232.949219 135.433594 " transform="matrix(1,0,0,1,-74,-13)"/>
<path style="fill-rule:nonzero;fill:rgb(39.99939%,39.99939%,39.99939%);fill-opacity:1;stroke-width:0.03;stroke-linecap:square;stroke-linejoin:miter;stroke:rgb(39.99939%,39.99939%,39.99939%);stroke-opacity:1;stroke-miterlimit:3.239307;" d="M 174.210938 70.175781 L 242.847656 83.195312 L 239.101562 103.242188 L 170.707031 90.917969 Z M 174.210938 70.175781 " transform="matrix(1,0,0,1,-74,-13)"/>
<path style="fill-rule:nonzero;fill:rgb(39.99939%,39.99939%,39.99939%);fill-opacity:1;stroke-width:0.03;stroke-linecap:square;stroke-linejoin:miter;stroke:rgb(39.99939%,39.99939%,39.99939%);stroke-opacity:1;stroke-miterlimit:3.239307;" d="M 163.417969 264.351562 L 209.457031 253.855469 L 210.15625 275.683594 L 205.226562 277.085938 L 171.210938 286.230469 L 167.738281 286.4375 L 164.277344 286.273438 L 158.816406 285.445312 Z M 163.417969 264.351562 " transform="matrix(1,0,0,1,-74,-13)"/>
<path style="fill-rule:nonzero;fill:rgb(39.99939%,39.99939%,39.99939%);fill-opacity:1;stroke-width:0.03;stroke-linecap:square;stroke-linejoin:miter;stroke:rgb(39.99939%,39.99939%,39.99939%);stroke-opacity:1;stroke-miterlimit:3.239307;" d="M 261.484375 285.972656 L 268.601562 287.417969 L 265.214844 300.375 L 263.074219 308.101562 L 207.078125 293.914062 L 209.929688 281.210938 L 223.757812 277.613281 L 224.738281 275.175781 L 262.289062 283.128906 Z M 261.484375 285.972656 " transform="matrix(1,0,0,1,-74,-13)"/>
<path style="fill-rule:nonzero;fill:rgb(39.99939%,39.99939%,39.99939%);fill-opacity:1;stroke-width:0.03;stroke-linecap:square;stroke-linejoin:miter;stroke:rgb(39.99939%,39.99939%,39.99939%);stroke-opacity:1;stroke-miterlimit:3.239307;" d="M 238.929688 236.152344 L 247.363281 262.519531 L 243.820312 267.300781 L 223.003906 270.601562 L 208.484375 232.875 L 211.414062 230 Z M 238.929688 236.152344 " transform="matrix(1,0,0,1,-74,-13)"/>
<path style="fill-rule:nonzero;fill:rgb(39.99939%,39.99939%,39.99939%);fill-opacity:1;stroke-width:0.03;stroke-linecap:square;stroke-linejoin:miter;stroke:rgb(39.99939%,39.99939%,39.99939%);stroke-opacity:1;stroke-miterlimit:3.239307;" d="M 261.597656 234.5 L 271.636719 236.527344 L 268.617188 256.507812 L 279.984375 259.285156 L 277.8125 268.359375 L 275.214844 278.289062 L 255.324219 274.265625 L 249.785156 254.246094 L 244.242188 234.320312 L 248.824219 234.691406 L 249.410156 231.917969 Z M 261.597656 234.5 " transform="matrix(1,0,0,1,-74,-13)"/>
<path style="fill-rule:nonzero;fill:rgb(39.99939%,39.99939%,39.99939%);fill-opacity:1;stroke-width:0.03;stroke-linecap:square;stroke-linejoin:miter;stroke:rgb(39.99939%,39.99939%,39.99939%);stroke-opacity:1;stroke-miterlimit:3.239307;" d="M 166.214844 143.101562 L 160.265625 190.695312 L 149.597656 189.5 L 154.496094 153.332031 L 150.316406 152.835938 L 151.820312 142.046875 Z M 166.214844 143.101562 " transform="matrix(1,0,0,1,-74,-13)"/>
<path style="fill-rule:nonzero;fill:rgb(39.99939%,39.99939%,39.99939%);fill-opacity:1;stroke-width:0.03;stroke-linecap:square;stroke-linejoin:miter;stroke:rgb(39.99939%,39.99939%,39.99939%);stroke-opacity:1;stroke-miterlimit:3.239307;" d="M 142.160156 218.09375 L 166.855469 222.550781 L 152.832031 285.945312 L 127.757812 281.359375 Z M 142.160156 218.09375 " transform="matrix(1,0,0,1,-74,-13)"/>
<path style="fill-rule:nonzero;fill:rgb(39.99939%,39.99939%,39.99939%);fill-opacity:1;stroke-width:0.03;stroke-linecap:square;stroke-linejoin:miter;stroke:rgb(39.99939%,39.99939%,39.99939%);stroke-opacity:1;stroke-miterlimit:3.239307;" d="M 144.722656 64.429688 L 165.101562 68.445312 L 165.542969 82.789062 L 162.3125 109.914062 L 138.824219 106.152344 L 138.484375 109.339844 L 138.078125 113.15625 L 156.863281 116.648438 L 153.429688 140.21875 L 143.121094 139.5625 L 140.222656 154.957031 L 150.589844 157.023438 L 147.625 187.832031 L 125.644531 186.957031 L 125.429688 188.832031 L 127.328125 150.820312 L 130.414062 135.40625 L 136.578125 116.90625 Z M 144.722656 64.429688 " transform="matrix(1,0,0,1,-74,-13)"/>
<path style="fill-rule:nonzero;fill:rgb(39.99939%,39.99939%,39.99939%);fill-opacity:1;stroke-width:0.03;stroke-linecap:square;stroke-linejoin:miter;stroke:rgb(39.99939%,39.99939%,39.99939%);stroke-opacity:1;stroke-miterlimit:3.239307;" d="M 224 179.175781 L 166.003906 168.238281 L 169.304688 144.585938 L 229.28125 155.101562 Z M 224 179.175781 " transform="matrix(1,0,0,1,-74,-13)"/>
<path style="fill-rule:nonzero;fill:rgb(39.99939%,39.99939%,39.99939%);fill-opacity:1;stroke-width:0.03;stroke-linecap:square;stroke-linejoin:miter;stroke:rgb(39.99939%,39.99939%,39.99939%);stroke-opacity:1;stroke-miterlimit:3.239307;" d="M 258.960938 171.074219 L 279.046875 165.652344 L 273.550781 189.308594 L 254.972656 193.644531 L 240.085938 197.117188 L 233.398438 196.511719 L 238.140625 175.648438 Z M 258.960938 171.074219 " transform="matrix(1,0,0,1,-74,-13)"/>
<path style="fill-rule:nonzero;fill:rgb(39.99939%,39.99939%,39.99939%);fill-opacity:1;stroke-width:0.03;stroke-linecap:square;stroke-linejoin:miter;stroke:rgb(39.99939%,39.99939%,39.99939%);stroke-opacity:1;stroke-miterlimit:3.239307;" d="M 198.589844 182.101562 L 223.488281 184.082031 L 234.722656 223.261719 L 208.117188 217.863281 Z M 198.589844 182.101562 " transform="matrix(1,0,0,1,-74,-13)"/>
<path style="fill-rule:nonzero;fill:rgb(39.99939%,39.99939%,39.99939%);fill-opacity:1;stroke-width:0.03;stroke-linecap:square;stroke-linejoin:miter;stroke:rgb(39.99939%,39.99939%,39.99939%);stroke-opacity:1;stroke-miterlimit:3.239307;" d="M 277.382812 158.816406 L 254.035156 154.507812 L 259.851562 125.710938 L 282.984375 129.484375 Z M 277.382812 158.816406 " transform="matrix(1,0,0,1,-74,-13)"/>
<path style="fill-rule:nonzero;fill:rgb(39.99939%,39.99939%,39.99939%);fill-opacity:1;stroke-width:0.03;stroke-linecap:square;stroke-linejoin:miter;stroke:rgb(39.99939%,39.99939%,39.99939%);stroke-opacity:1;stroke-miterlimit:3.239307;" d="M 330.804688 230.21875 L 320.691406 321.570312 L 300.804688 317.191406 L 301.140625 309.601562 L 272.984375 303.574219 L 284.136719 254.941406 L 302.832031 259.671875 L 308.429688 231.582031 L 310.253906 232.007812 Z M 330.804688 230.21875 " transform="matrix(1,0,0,1,-74,-13)"/>
<path style="fill-rule:nonzero;fill:rgb(39.99939%,39.99939%,39.99939%);fill-opacity:1;stroke-width:0.03;stroke-linecap:square;stroke-linejoin:miter;stroke:rgb(39.99939%,39.99939%,39.99939%);stroke-opacity:1;stroke-miterlimit:3.239307;" d="M 189.863281 176.996094 L 205.945312 241.949219 L 189.523438 238.746094 L 173.183594 235.785156 L 177.34375 218.214844 L 180.050781 218.726562 L 180.589844 215.777344 L 167.535156 214.15625 L 169.261719 198.296875 L 161.984375 197.269531 L 163.929688 175.65625 L 169.175781 176.507812 L 169.550781 173.59375 L 174.226562 174.359375 L 173.863281 177.589844 L 180.480469 178.550781 L 180.660156 175.851562 Z M 189.863281 176.996094 " transform="matrix(1,0,0,1,-74,-13)"/>
</g>
</svg>
