<?xml version="1.0" encoding="UTF-8"?>
<svg xmlns="http://www.w3.org/2000/svg" xmlns:xlink="http://www.w3.org/1999/xlink" width="361pt" height="361pt" viewBox="0 0 361 361" version="1.1">
<defs>
<clipPath id="clip1">
  <path d="M 304 351 L 348 351 L 348 360 L 304 360 Z M 304 351 "/>
</clipPath>
<clipPath id="clip2">
  <path d="M 0 339 L 106 339 L 106 360 L 0 360 Z M 0 339 "/>
</clipPath>
<clipPath id="clip3">
  <path d="M 2 250 L 178 250 L 178 360 L 2 360 Z M 2 250 "/>
</clipPath>
<clipPath id="clip4">
  <path d="M 296 77 L 360 77 L 360 164 L 296 164 Z M 296 77 "/>
</clipPath>
<clipPath id="clip5">
  <path d="M 321 0 L 360 0 L 360 70 L 321 70 Z M 321 0 "/>
</clipPath>
<clipPath id="clip6">
  <path d="M 310 36 L 360 36 L 360 111 L 310 111 Z M 310 36 "/>
</clipPath>
<clipPath id="clip7">
  <path d="M 331 321 L 360 321 L 360 360 L 331 360 Z M 331 321 "/>
</clipPath>
<clipPath id="clip8">
  <path d="M 309 146 L 360 146 L 360 208 L 309 208 Z M 309 146 "/>
</clipPath>
<clipPath id="clip9">
  <path d="M 280 219 L 360 219 L 360 329 L 280 329 Z M 280 219 "/>
</clipPath>
<clipPath id="clip10">
  <path d="M 203 168 L 360 168 L 360 280 L 203 280 Z M 203 168 "/>
</clipPath>
<clipPath id="clip11">
  <path d="M 320 352 L 329 352 L 329 360 L 320 360 Z M 320 352 "/>
</clipPath>
<clipPath id="clip12">
  <path d="M 120 310 L 324 310 L 324 360 L 120 360 Z M 120 310 "/>
</clipPath>
<clipPath id="clip13">
  <path d="M 135 303 L 201 303 L 201 360 L 135 360 Z M 135 303 "/>
</clipPath>
</defs>
<g id="surface4956">
<path style="fill-rule:nonzero;fill:rgb(0%,0%,0%);fill-opacity:1;stroke-width:0.03;stroke-linecap:square;stroke-linejoin:miter;stroke:rgb(0%,0%,0%);stroke-opacity:1;stroke-miterlimit:10;" d="M 0 178 L 360 178 L 360 -182 L 0 -182 Z M 0 178 " transform="matrix(1,0,0,1,0,182)"/>
<g clip-path="url(#clip1)" clip-rule="nonzero">
<path style=" stroke:none;fill-rule:nonzero;fill:rgb(39.99939%,39.99939%,39.99939%);fill-opacity:0.3;" d="M 304.023438 397.0625 L 320.054688 367.953125 L 322.914062 363.226562 L 328.476562 352.652344 L 329.386719 351.003906 L 347.347656 361.378906 L 323.992188 408.765625 Z M 304.023438 397.0625 "/>
</g>
<path style=" stroke:none;fill-rule:nonzero;fill:rgb(39.99939%,39.99939%,39.99939%);fill-opacity:0.3;" d="M 39.183594 4.882812 L 125.460938 38.414062 L 118.585938 54.15625 L 128.933594 59.316406 L 132.167969 52.597656 L 126.992188 50.5 L 131.34375 40.511719 L 153.453125 50.453125 L 108.039062 133.769531 L 87.027344 122.816406 L 100.207031 98.761719 L 97.859375 97.65625 L 95.332031 96.46875 L 90.25 106.316406 L 48.242188 87.023438 L 46.976562 89.167969 L 45.410156 91.828125 L 61.855469 100.1875 L 58.226562 108.171875 L 43.597656 102 L 37.933594 113.71875 L 40.695312 114.890625 L 44.28125 116.410156 L 48.472656 109.28125 L 62.679688 115.582031 L 69.53125 103.429688 L 84.152344 110.773438 L 77.246094 122.742188 L 106.101562 136.992188 L 83.734375 174.375 L 68.144531 166.109375 L 82.566406 138.660156 L 80.953125 137.882812 L 78.691406 136.792969 L 60.84375 168.890625 L 81.597656 178.199219 L 46.304688 241.339844 L -32.648438 201.882812 L -18.835938 143.632812 L -18.433594 142.195312 L -1.5 147.65625 L -4.230469 156.128906 L -2.414062 156.726562 L -0.980469 157.199219 L 1.878906 148.746094 L 32.933594 158.765625 L 27.726562 172.695312 L 31.300781 173.894531 L 34.546875 174.984375 L 39.589844 160.914062 L 52.011719 164.925781 L 52.769531 161.867188 L 53.527344 158.8125 L 0.425781 142.875 L 7.390625 125.210938 L 5.234375 124.28125 L 3.3125 123.441406 L -3.972656 140.511719 L -16.160156 136.394531 L -0.136719 93.960938 L 19.789062 60.742188 Z M 39.183594 4.882812 "/>
<path style=" stroke:none;fill-rule:nonzero;fill:rgb(39.99939%,39.99939%,39.99939%);fill-opacity:0.3;" d="M -12.375 322.46875 L -39.132812 308.832031 L -35.886719 297.03125 L -37.347656 296.609375 L -38.808594 296.191406 L -42.265625 307.191406 L -72.3125 291.542969 L -63.800781 267.75 L -36.992188 213.105469 L -34.410156 210.730469 L -31.566406 210.324219 L 42.320312 247.863281 L -2.070312 319.605469 L -3.585938 319.449219 L -5.109375 319.476562 L -6.621094 319.683594 L -8.089844 320.066406 L -9.5 320.621094 L -10.824219 321.339844 L -11.976562 322.128906 Z M -12.375 322.46875 "/>
<g clip-path="url(#clip2)" clip-rule="nonzero">
<path style=" stroke:none;fill-rule:nonzero;fill:rgb(39.99939%,39.99939%,39.99939%);fill-opacity:0.3;" d="M -5.414062 341.164062 L -4.636719 341.214844 L -3.109375 341.1875 L -1.601562 340.984375 L -0.128906 340.597656 L 1.277344 340.042969 L 2.605469 339.324219 L 32.199219 354.699219 L 3.761719 402.976562 L 8.191406 405.0625 L -3.191406 424.554688 L -27.871094 412.335938 L -30.167969 416.015625 L -32.929688 420.433594 L -11.730469 430.5625 L -9.832031 427.863281 L 2.1875 433.527344 L 4.402344 429.328125 L -0.34375 426.945312 L 14.199219 403.550781 L 54.058594 425.328125 L 55.640625 423.40625 L 56.90625 421.730469 L 12.296875 397.566406 L 37.261719 358.582031 L 105.910156 395.285156 L 58.808594 451.074219 L 35.085938 437.347656 L 15.472656 472.125 L 17.84375 473.015625 L 20.214844 473.910156 L 36.035156 447.828125 L 53.433594 457.972656 L 17.03125 495.851562 L -68.363281 431.90625 L -6.152344 341.058594 Z M -5.414062 341.164062 "/>
</g>
<g clip-path="url(#clip3)" clip-rule="nonzero">
<path style=" stroke:none;fill-rule:nonzero;fill:rgb(39.99939%,39.99939%,39.99939%);fill-opacity:0.3;" d="M 2 322.226562 L 13.285156 303.875 L 42.0625 305.609375 L 47.496094 306.503906 L 67.902344 314.394531 L 68.40625 313.453125 L 68.90625 312.511719 L 49.09375 304.6875 L 41.742188 303.1875 L 15.21875 301.128906 L 46.390625 250.5 L 177.027344 309.550781 L 107.851562 390.214844 L 63.878906 366.335938 L 74.617188 345.054688 L 92.011719 351.910156 L 94.855469 345.316406 L 89.828125 342.117188 L 98.28125 322.675781 L 89.140625 318.675781 L 80.621094 339.652344 L 71.128906 335.777344 L 56.917969 362.457031 L 38.46875 352.984375 L 52.308594 341.460938 L 64.332031 344.5625 L 65.460938 342.296875 L 66.589844 340.035156 L 52.714844 334.289062 L 32.222656 349.769531 L 3.457031 334.996094 L 4.085938 333.679688 L 4.53125 332.296875 L 4.792969 330.875 L 4.867188 329.429688 L 4.746094 327.988281 L 4.4375 326.574219 L 3.941406 325.210938 L 3.273438 323.914062 L 2.433594 322.707031 Z M 2 322.226562 "/>
</g>
<path style=" stroke:none;fill-rule:nonzero;fill:rgb(39.99939%,39.99939%,39.99939%);fill-opacity:0.3;" d="M 183.230469 315.039062 L 184.390625 313.679688 L 185.246094 313.601562 Z M 183.230469 315.039062 "/>
<path style=" stroke:none;fill-rule:nonzero;fill:rgb(39.99939%,39.99939%,39.99939%);fill-opacity:0.3;" d="M 126.832031 109.453125 L 145.332031 75.480469 L 143.101562 74.671875 L 156.949219 50.652344 L 158.84375 51.429688 L 136.304688 93.5 Z M 126.832031 109.453125 "/>
<path style=" stroke:none;fill-rule:nonzero;fill:rgb(39.99939%,39.99939%,39.99939%);fill-opacity:0.3;" d="M 159.71875 37.914062 L 158.882812 39.105469 L 158.183594 39.769531 L 157.765625 40.164062 L 156.597656 40.464844 L 155.390625 40.300781 L 127.046875 28.996094 L 150.84375 -18.519531 L 158.730469 -16.527344 L 159.414062 -18.375 L 160.0625 -20.105469 L 148.777344 -24.890625 L 121.722656 -36.378906 L 137.109375 -64.847656 L 174.628906 -48.34375 L 175.421875 -50.414062 L 176.566406 -53.410156 L 139.71875 -69.660156 L 168.886719 -124.417969 L 195.402344 -115.832031 L 179.964844 -87.09375 L 181.535156 -86.273438 L 182.753906 -85.632812 L 200.976562 -119.355469 L 211.054688 -115.539062 L 222.097656 -135.964844 L 219.96875 -136.867188 L 217.671875 -137.835938 L 208.089844 -120.667969 L 174.953125 -134.40625 L 206.964844 -188.777344 L 272.753906 -160.484375 Z M 159.71875 37.914062 "/>
<path style=" stroke:none;fill-rule:nonzero;fill:rgb(39.99939%,39.99939%,39.99939%);fill-opacity:0.3;" d="M 83.527344 -168.828125 L 89.378906 -169.203125 L 95.265625 -163.273438 L 99.195312 -156.40625 L 161.171875 -130.410156 L 148.070312 -109.679688 L 136.367188 -114.253906 L 135.640625 -112.179688 L 134.917969 -110.109375 L 144.667969 -105.53125 L 128.660156 -73.289062 L 90.140625 -89.292969 L 88.203125 -83.769531 L 127.699219 -67.761719 L 92.265625 1.367188 L 96.660156 3.054688 L 100.550781 4.574219 L 118.867188 -31.90625 L 142.648438 -21.40625 L 118.796875 28.347656 L 40.023438 -1.574219 L 51.21875 -32.519531 L 52.371094 -35.253906 L 52.4375 -36.027344 L 53.328125 -41.84375 L 53.3125 -46.511719 L 54.003906 -54.8125 L 53.191406 -85.59375 L 53.765625 -87.195312 L 62.152344 -107.777344 L 72.746094 -132.222656 L 77.632812 -147.707031 L 81.707031 -161.558594 Z M 83.527344 -168.828125 "/>
<path style=" stroke:none;fill-rule:nonzero;fill:rgb(39.99939%,39.99939%,39.99939%);fill-opacity:0.3;" d="M 291.128906 79.539062 L 289.847656 80.058594 L 272.171875 75.550781 L 250.257812 68.933594 L 250.839844 66.738281 L 251.203125 63.960938 L 255.761719 51.644531 L 257.40625 49.214844 L 259.234375 47.132812 L 269.859375 51.285156 L 270.953125 49.117188 L 272.050781 46.945312 L 261.792969 42.273438 L 261.789062 41.058594 L 262.519531 39.84375 L 265.703125 33.777344 L 279.648438 42.492188 L 280.191406 41.660156 L 280.824219 40.699219 L 268.296875 31.761719 L 268.296875 30.867188 L 273.246094 23.257812 L 279.171875 16.140625 L 300.917969 27.554688 L 301.53125 26.355469 L 302.148438 25.15625 L 281.410156 13.542969 L 282.140625 12.402344 L 309.0625 25.863281 L 315.667969 29.421875 L 306.152344 48.097656 Z M 291.128906 79.539062 "/>
<path style=" stroke:none;fill-rule:nonzero;fill:rgb(39.99939%,39.99939%,39.99939%);fill-opacity:0.3;" d="M 202 -19.136719 L 268.023438 16.71875 L 252.769531 41.164062 L 248.636719 49.617188 L 245.464844 59.886719 L 240.703125 74.378906 L 165.734375 44.289062 L 185.992188 8.859375 L 237.320312 35.59375 L 238.125 34.109375 L 238.863281 32.746094 L 187.730469 5.816406 Z M 202 -19.136719 "/>
<path style=" stroke:none;fill-rule:nonzero;fill:rgb(39.99939%,39.99939%,39.99939%);fill-opacity:0.3;" d="M 278.738281 -157.1875 L 302.839844 -146.722656 L 281.253906 -106.839844 L 284.761719 -104.730469 L 307.617188 -144.726562 L 334.796875 -133.027344 L 312.820312 -93.589844 L 315.054688 -92.6875 L 317.285156 -91.785156 L 338.742188 -131.164062 L 355.824219 -123.890625 L 318.617188 -57.03125 L 304.300781 -41.03125 L 270.558594 11.402344 L 269.445312 12.140625 L 268.777344 12.140625 L 203.605469 -23.128906 L 223.421875 -57.609375 L 246.699219 -46.335938 L 250.667969 -52.957031 L 247.503906 -54.433594 L 242.703125 -56.667969 L 240.507812 -52.582031 L 224.917969 -60.171875 Z M 278.738281 -157.1875 "/>
<path style=" stroke:none;fill-rule:nonzero;fill:rgb(39.99939%,39.99939%,39.99939%);fill-opacity:0.3;" d="M 272.171875 75.550781 L 250.003906 69.898438 L 250.257812 68.933594 Z M 272.171875 75.550781 "/>
<path style=" stroke:none;fill-rule:nonzero;fill:rgb(39.99939%,39.99939%,39.99939%);fill-opacity:0.3;" d="M 282.140625 12.402344 L 293.273438 -4.941406 L 314.535156 3.992188 L 314.886719 2.984375 L 315.242188 1.980469 L 295.160156 -6.730469 L 295.160156 -7.851562 L 301.988281 -19.484375 L 317.601562 -41.484375 L 318.542969 -43.5 L 323.492188 -48.421875 L 329.382812 -54.015625 L 330.800781 -54.6875 L 356.761719 -53.578125 L 357.941406 -53.128906 L 357.941406 -52.234375 L 342.414062 -22.039062 L 338.398438 -23.378906 L 336.191406 -18.296875 L 333.929688 -13.089844 L 336.53125 -11.527344 L 315.667969 29.421875 L 309.0625 25.863281 Z M 282.140625 12.402344 "/>
<g clip-path="url(#clip4)" clip-rule="nonzero">
<path style=" stroke:none;fill-rule:nonzero;fill:rgb(39.99939%,39.99939%,39.99939%);fill-opacity:0.3;" d="M 375.691406 92.113281 L 363.835938 116.703125 L 410.292969 136.285156 L 408.855469 149.648438 L 399.136719 155.179688 L 376.765625 151.035156 L 357.789062 143.664062 L 358.070312 134.378906 L 355.792969 134.515625 L 353.554688 134.652344 L 353.40625 140.441406 L 347.3125 141.355469 L 319.222656 155.714844 L 306.875 162.308594 L 302.707031 163.335938 L 299.929688 163.050781 L 296.035156 161.671875 L 302.046875 131.132812 L 314.105469 139.320312 L 314.566406 138.222656 L 315.03125 137.125 L 302.316406 128.023438 L 305.425781 114.734375 L 325.671875 125.992188 L 326.757812 124 L 327.828125 122.039062 L 307.160156 110.507812 L 312.007812 97.601562 L 333.90625 106.808594 L 350.308594 77.921875 Z M 375.691406 92.113281 "/>
</g>
<g clip-path="url(#clip5)" clip-rule="nonzero">
<path style=" stroke:none;fill-rule:nonzero;fill:rgb(39.99939%,39.99939%,39.99939%);fill-opacity:0.3;" d="M 337.886719 -1.359375 L 370.960938 6.003906 L 404.816406 -38.414062 L 425.054688 -19.730469 L 431.886719 -10.867188 L 449.605469 11.175781 L 449.03125 11.804688 L 438.996094 9.734375 L 436.472656 11.410156 L 395.132812 69.605469 L 378.558594 60.925781 L 390.015625 40.644531 L 387.9375 39.90625 L 385.855469 39.167969 L 374.710938 59.113281 L 321.023438 30.816406 Z M 337.886719 -1.359375 "/>
</g>
<path style=" stroke:none;fill-rule:nonzero;fill:rgb(39.99939%,39.99939%,39.99939%);fill-opacity:0.3;" d="M 311.863281 92.070312 L 326.234375 63.832031 L 346.753906 75.402344 L 333.238281 101.472656 Z M 311.863281 92.070312 "/>
<path style=" stroke:none;fill-rule:nonzero;fill:rgb(39.99939%,39.99939%,39.99939%);fill-opacity:0.3;" d="M 323.542969 63.816406 L 307.050781 96.078125 L 301.71875 111.75 L 294.9375 136.179688 L 291.085938 168.445312 L 280.394531 177.210938 L 271.660156 179.621094 L 259.351562 180.691406 L 256.828125 182.109375 L 249.257812 182.769531 L 241.472656 183.238281 L 226.417969 210.914062 L 222.144531 213.875 L 216.378906 213.03125 L 214.167969 211.871094 L 211.957031 209.316406 L 211.09375 206.757812 L 210.601562 202.457031 L 211.3125 196.640625 L 231.109375 134.789062 L 275.855469 143.148438 L 277.203125 133.644531 L 286.304688 134.628906 L 286.503906 132.589844 L 286.742188 130.15625 L 274.0625 129 L 272.890625 137.6875 L 233.136719 129.785156 L 250.878906 77.585938 L 260.507812 79.441406 L 260.59375 92.773438 L 262.460938 92.59375 L 264.234375 92.425781 L 264.410156 84.070312 L 265.539062 80.265625 L 291.464844 86.429688 L 290.296875 96.550781 L 291.878906 96.550781 L 293.914062 96.546875 L 295.605469 87.570312 L 297.972656 87.964844 L 298.558594 84.742188 L 296.191406 84.195312 L 296.28125 82.101562 L 312.125 55.101562 L 323.804688 61.875 Z M 323.542969 63.816406 "/>
<path style=" stroke:none;fill-rule:nonzero;fill:rgb(39.99939%,39.99939%,39.99939%);fill-opacity:0.3;" d="M 297.652344 170.679688 L 301.125 167.28125 L 302.28125 168.304688 L 300.914062 169.28125 Z M 297.652344 170.679688 "/>
<path style=" stroke:none;fill-rule:nonzero;fill:rgb(39.99939%,39.99939%,39.99939%);fill-opacity:0.3;" d="M 229.441406 213.359375 L 235.34375 203.605469 L 230.015625 213.285156 Z M 229.441406 213.359375 "/>
<g clip-path="url(#clip6)" clip-rule="nonzero">
<path style=" stroke:none;fill-rule:nonzero;fill:rgb(39.99939%,39.99939%,39.99939%);fill-opacity:0.3;" d="M 320.707031 36.488281 L 365.253906 60.074219 L 369.222656 62.789062 L 372.53125 65.292969 L 375.175781 66.546875 L 383.332031 69.886719 L 389.285156 72.394531 L 398.542969 76.988281 L 402.511719 79.078125 L 402.511719 80.332031 L 408.460938 82.210938 L 410.003906 81.375 L 422.125 87.226562 L 418.195312 110.40625 L 417.316406 110.824219 L 405.855469 106.855469 L 310.808594 50.070312 L 318.285156 37.117188 Z M 320.707031 36.488281 "/>
</g>
<path style=" stroke:none;fill-rule:nonzero;fill:rgb(39.99939%,39.99939%,39.99939%);fill-opacity:0.3;" d="M -4.914062 82.753906 L -112.296875 35.695312 L -106.945312 30.613281 L -102.566406 25.996094 L -102.121094 13.578125 L -78.167969 23.132812 L -76.953125 20.824219 L -75.742188 18.523438 L -102.632812 8.066406 L -104.632812 -2.488281 L -104.203125 -13.511719 L -102.300781 -23.613281 L -98.929688 -31.890625 L -96.066406 -38.414062 L -95.683594 -38.777344 L -52.617188 -21.609375 L -26.757812 -9.121094 L -24.96875 -12.519531 L -46.320312 -22.484375 L -47.226562 -23.933594 L -47.617188 -25.261719 L -45.152344 -30.335938 L -39.476562 -28.074219 L -33.667969 -41.894531 L -40.445312 -44.273438 L -42.164062 -44.878906 L -50.835938 -26.941406 L -51.605469 -26.453125 L -80.210938 -39.910156 L -78.414062 -43.949219 L -64.621094 -38.96875 L -63.894531 -40.90625 L -79.042969 -46.851562 L -83.261719 -38.175781 L -94.925781 -43.6875 L -94.835938 -45.722656 L -85.765625 -57.972656 L -84.734375 -59.921875 L -83.945312 -62.609375 L -83.269531 -67.007812 L -83.378906 -69.457031 L -83.734375 -72.515625 L -84.589844 -77.160156 L -86.21875 -81.320312 L -88.492188 -84.503906 L -92.792969 -90.007812 L -100.128906 -99.371094 L -100.789062 -100.964844 L -100.28125 -102.398438 L -38.53125 -76.730469 L -37.308594 -79.433594 L -36.085938 -82.132812 L -59.027344 -91.855469 L -55.097656 -99.730469 L -57.292969 -100.796875 L -58.957031 -101.605469 L -62.878906 -94.199219 L -73.980469 -98.421875 L -69.5625 -109.210938 L -71.339844 -110 L -73.074219 -110.769531 L -77.960938 -100.269531 L -103.257812 -110.40625 L -106.253906 -115.46875 L -114.082031 -126.574219 L -117.519531 -131.800781 L -114.34375 -136.941406 L -112.847656 -138.195312 L -10.925781 -92.84375 L 16.933594 -80.144531 L 19.957031 -78.421875 L 21.304688 -77.160156 L 21.550781 -75.644531 L 20.257812 -55.347656 L 12.578125 50.003906 Z M -4.914062 82.753906 "/>
<path style=" stroke:none;fill-rule:nonzero;fill:rgb(39.99939%,39.99939%,39.99939%);fill-opacity:0.3;" d="M 45.390625 -273.140625 L 47.660156 -274.40625 L 51.296875 -257.371094 L 64.546875 -210.898438 L 75.789062 -168.933594 L 53.261719 -101.285156 L 48.445312 -92.949219 L 48.195312 -82.476562 L 47.710938 -49.59375 L 46.878906 -38.839844 L 35.132812 -8.714844 L 32.449219 -0.320312 L 25.921875 18.292969 L 23.597656 13.558594 Z M 45.390625 -273.140625 "/>
<path style=" stroke:none;fill-rule:nonzero;fill:rgb(39.99939%,39.99939%,39.99939%);fill-opacity:0.3;" d="M 271.660156 179.621094 L 265.316406 181.371094 L 256.828125 182.109375 L 259.351562 180.691406 Z M 271.660156 179.621094 "/>
<g clip-path="url(#clip7)" clip-rule="nonzero">
<path style=" stroke:none;fill-rule:nonzero;fill:rgb(39.99939%,39.99939%,39.99939%);fill-opacity:0.3;" d="M 331.570312 345.90625 L 332.207031 343.378906 L 336.316406 338.828125 L 338.644531 338.824219 L 351.796875 328.683594 L 358.792969 326.058594 L 367.828125 322.570312 L 375.089844 321.527344 L 385.917969 321.003906 L 395.925781 321.519531 L 402.09375 322.167969 L 409.222656 323.859375 L 423.347656 328.792969 L 434.316406 332.953125 L 438.976562 335.550781 L 445.878906 340.339844 L 465.832031 350.949219 L 454.667969 367.089844 L 456.15625 368.734375 L 457.59375 370.320312 L 468.753906 354.640625 L 486.277344 365.714844 L 472.796875 381.933594 L 474.449219 383.277344 L 476.089844 384.621094 L 490.65625 367.5625 L 497.628906 371.582031 L 486.707031 383.597656 L 482.789062 428.269531 L 426.984375 396.148438 L 417.410156 391.109375 L 396.253906 379.523438 L 384.890625 373.984375 Z M 331.570312 345.90625 "/>
</g>
<g clip-path="url(#clip8)" clip-rule="nonzero">
<path style=" stroke:none;fill-rule:nonzero;fill:rgb(39.99939%,39.99939%,39.99939%);fill-opacity:0.3;" d="M 309.226562 165.960938 L 319.953125 161.277344 L 338.945312 179.242188 L 340.890625 177.75 L 342.832031 176.011719 L 324.835938 159.300781 L 325.40625 157.492188 L 349.601562 146.511719 L 357.699219 148.300781 L 354.34375 159.132812 L 355.65625 159.578125 L 356.746094 159.949219 L 361.195312 149.78125 L 364.367188 150.960938 L 370.425781 153.867188 L 379.21875 156.929688 L 397.511719 160.996094 L 399.316406 164.320312 L 367.644531 206.683594 L 365.738281 207.769531 L 364.210938 207.769531 L 333.078125 187.339844 L 326.300781 182.933594 Z M 309.226562 165.960938 "/>
</g>
<g clip-path="url(#clip9)" clip-rule="nonzero">
<path style=" stroke:none;fill-rule:nonzero;fill:rgb(39.99939%,39.99939%,39.99939%);fill-opacity:0.3;" d="M 280.984375 282.097656 L 332.789062 260.234375 L 353.628906 271.34375 L 354.863281 269.472656 L 356.71875 266.667969 L 336.699219 255.191406 L 364.535156 219.777344 L 402.558594 246.726562 L 384.929688 265.273438 L 387.265625 266.914062 L 389.433594 268.4375 L 407.710938 250.589844 L 431.304688 264.265625 L 402.632812 304.238281 L 401.789062 306.074219 L 401.195312 315.710938 L 400.230469 316.859375 L 387.421875 314.148438 L 383.40625 313.421875 L 378.808594 313.308594 L 370.097656 313.886719 L 364.074219 315.539062 L 354.058594 305.972656 L 352.726562 307.039062 L 351.761719 307.8125 L 361.9375 316.988281 L 352.984375 321.464844 L 339.242188 328.914062 L 331.484375 322.933594 L 329.261719 317.808594 L 324.414062 312.761719 L 319.261719 306.28125 L 318.410156 302.835938 L 318.289062 300.65625 L 316.347656 299.28125 L 309.808594 296.53125 L 306.421875 296.992188 L 280.625 284.046875 Z M 280.984375 282.097656 "/>
</g>
<g clip-path="url(#clip10)" clip-rule="nonzero">
<path style=" stroke:none;fill-rule:nonzero;fill:rgb(39.99939%,39.99939%,39.99939%);fill-opacity:0.3;" d="M 203.941406 238.980469 L 204.53125 235.769531 L 211.324219 217.320312 L 223.984375 222.378906 L 229.441406 213.359375 L 230.015625 213.285156 L 235.34375 203.605469 L 237.101562 200.695312 L 292.628906 249.972656 L 295.019531 248.207031 L 297.007812 246.742188 L 241.546875 196.101562 L 247.253906 187.601562 L 259.957031 186.84375 L 267.953125 185.621094 L 275.523438 183.605469 L 285.0625 180.152344 L 290.113281 176.679688 L 296.410156 171.894531 L 297.652344 170.679688 L 300.914062 169.28125 L 302.28125 168.304688 L 326.261719 189.539062 L 360.363281 214.269531 L 339.714844 237.503906 L 313.65625 218.363281 L 312.441406 219.710938 L 311.566406 220.679688 L 337.78125 239.972656 L 329.128906 256.402344 L 272.710938 279.496094 L 251.296875 278.132812 L 236.449219 271.238281 L 241.070312 265.285156 L 234.832031 259.5 L 232.859375 261.644531 L 230.917969 263.757812 L 234.519531 266.644531 L 233.007812 268.675781 L 231.335938 269.394531 L 203.941406 255.621094 Z M 203.941406 238.980469 "/>
</g>
<path style=" stroke:none;fill-rule:nonzero;fill:rgb(39.99939%,39.99939%,39.99939%);fill-opacity:0.3;" d="M 205.105469 261.722656 L 229.675781 272.511719 L 232.476562 273.324219 L 251.769531 282.597656 L 271.042969 283.894531 L 272.769531 284.507812 L 312.203125 304.066406 L 313.925781 305.699219 L 315.222656 308.351562 L 318.890625 313.246094 L 322.984375 317.121094 L 320.621094 319.980469 L 322.992188 323.855469 L 333.554688 331.195312 L 325.375 337.53125 L 322.363281 337.734375 L 318.914062 337.125 L 315.683594 335.085938 L 312.019531 333.660156 L 309.433594 333.660156 L 305.773438 333.664062 L 302.113281 334.074219 L 296.726562 333.875 L 289.621094 333.269531 L 282.511719 332.253906 L 275.617188 330.832031 L 199.984375 306.308594 L 200.496094 299.859375 L 201.050781 299.890625 L 201.195312 291.089844 L 203.425781 262.980469 Z M 205.105469 261.722656 "/>
<g clip-path="url(#clip11)" clip-rule="nonzero">
<path style=" stroke:none;fill-rule:nonzero;fill:rgb(39.99939%,39.99939%,39.99939%);fill-opacity:0.3;" d="M 320.054688 367.953125 L 328.476562 352.652344 L 322.914062 363.226562 Z M 320.054688 367.953125 "/>
</g>
<g clip-path="url(#clip12)" clip-rule="nonzero">
<path style=" stroke:none;fill-rule:nonzero;fill:rgb(39.99939%,39.99939%,39.99939%);fill-opacity:0.3;" d="M 323.484375 350.402344 L 307.402344 382.757812 L 295.984375 399.875 L 240.382812 360.773438 L 238.375 363.707031 L 236.277344 366.769531 L 265.175781 386.867188 L 259.179688 393.234375 L 260.511719 394.183594 L 261.84375 395.136719 L 267.582031 388.789062 L 289.816406 405.433594 L 269.519531 431.738281 L 252.460938 450.027344 L 238.238281 460.222656 L 220.53125 449.457031 L 240.113281 422.777344 L 238.535156 421.582031 L 236.953125 420.382812 L 216.101562 446.765625 L 170.878906 420.464844 L 193.304688 388.085938 L 191.003906 386.863281 L 188.246094 385.394531 L 166.453125 417.773438 L 120.273438 390.441406 L 149.96875 354.453125 L 176.847656 365.195312 L 171.796875 372.390625 L 175.367188 374.410156 L 178.121094 375.976562 L 189.488281 359.789062 L 180.636719 356.507812 L 178.109375 360.101562 L 153.441406 349.957031 L 183.230469 315.039062 L 185.246094 313.601562 L 191.027344 313.070312 L 199.246094 310.363281 L 274.171875 335.136719 L 299.773438 339.308594 Z M 323.484375 350.402344 "/>
</g>
<path style=" stroke:none;fill-rule:nonzero;fill:rgb(39.99939%,39.99939%,39.99939%);fill-opacity:0.3;" d="M 150.34375 196.878906 L 201.273438 216.941406 L 199.59375 231.972656 L 143.796875 209.191406 Z M 150.34375 196.878906 "/>
<path style=" stroke:none;fill-rule:nonzero;fill:rgb(39.99939%,39.99939%,39.99939%);fill-opacity:0.3;" d="M 191.816406 173.441406 L 204.164062 177.417969 L 202.023438 186.539062 L 200.5 194.460938 L 199.449219 201.492188 L 200.285156 210.222656 L 180.371094 202.3125 Z M 191.816406 173.441406 "/>
<path style=" stroke:none;fill-rule:nonzero;fill:rgb(39.99939%,39.99939%,39.99939%);fill-opacity:0.3;" d="M 198.09375 157.253906 L 208.746094 162.171875 L 205.054688 175.585938 L 192.40625 171.226562 Z M 198.09375 157.253906 "/>
<path style=" stroke:none;fill-rule:nonzero;fill:rgb(39.99939%,39.99939%,39.99939%);fill-opacity:0.3;" d="M 179.476562 149.253906 L 195.476562 155.847656 L 177.519531 201.296875 L 161.203125 195.125 Z M 179.476562 149.253906 "/>
<path style=" stroke:none;fill-rule:nonzero;fill:rgb(39.99939%,39.99939%,39.99939%);fill-opacity:0.3;" d="M 201.144531 254.214844 L 203.941406 238.980469 L 203.941406 255.621094 Z M 201.144531 254.214844 "/>
<path style=" stroke:none;fill-rule:nonzero;fill:rgb(39.99939%,39.99939%,39.99939%);fill-opacity:0.3;" d="M 199.984375 306.308594 L 197.824219 305.609375 L 197.386719 299.691406 L 200.496094 299.859375 Z M 199.984375 306.308594 "/>
<path style=" stroke:none;fill-rule:nonzero;fill:rgb(39.99939%,39.99939%,39.99939%);fill-opacity:0.3;" d="M 201.195312 291.089844 L 201.589844 266.941406 L 202.945312 263.335938 L 203.425781 262.980469 Z M 201.195312 291.089844 "/>
<path style=" stroke:none;fill-rule:nonzero;fill:rgb(39.99939%,39.99939%,39.99939%);fill-opacity:0.3;" d="M 186.363281 134.566406 L 199.585938 97.765625 L 209.148438 71.457031 L 236.429688 81.707031 L 214.289062 144.210938 L 209.257812 160 L 179.695312 146.390625 L 180.6875 143.765625 L 167.1875 137.554688 L 166.765625 138.601562 L 166.347656 139.652344 L 176.453125 144.34375 L 171.359375 156.820312 L 159.152344 151.738281 L 158.582031 152.921875 L 158.007812 154.105469 L 170.363281 159.117188 L 162.101562 179.0625 L 150.699219 175.070312 L 150.226562 176.246094 L 149.757812 177.421875 L 161.039062 181.527344 L 158.710938 187.203125 L 148.066406 183.53125 L 147.6875 184.492188 L 147.304688 185.453125 L 158.035156 188.964844 L 155.410156 194.917969 L 145.21875 191.648438 L 144.695312 193.007812 L 144.167969 194.367188 L 147.515625 195.5625 L 140.539062 208.898438 L 127.867188 203.605469 L 126.953125 205.195312 L 125.851562 207.195312 L 138.695312 212.761719 L 129.726562 233.742188 L 131.226562 234.449219 L 132.722656 235.15625 L 142.027344 214.335938 L 187.609375 234.347656 L 190.640625 234.820312 L 193.671875 235.058594 L 195.441406 236.011719 L 195.945312 237.445312 L 196.199219 238.640625 L 194.96875 269.976562 L 195.96875 291.574219 L 195.464844 293.964844 L 190.007812 304.695312 L 188.15625 308.328125 L 186.386719 308.570312 L 183.859375 307.386719 L 51.429688 245.410156 L 51.429688 243.738281 L 77.863281 196.632812 L 102.960938 206.046875 L 94.839844 222.019531 L 97.054688 223.417969 L 99.265625 224.820312 L 116.890625 187.046875 L 114.738281 186.238281 L 112.589844 185.433594 L 104.851562 200.261719 L 80.640625 191.605469 L 118.308594 124.746094 L 144.507812 136.332031 L 129.03125 172.472656 L 130.582031 173.015625 L 132.136719 173.558594 L 134.957031 166.988281 L 139.183594 157.132812 L 148.328125 136.089844 L 154.976562 120.789062 L 153.203125 120.164062 L 151.277344 119.488281 L 145.796875 132.65625 L 120.453125 121.164062 L 126.832031 109.453125 L 136.304688 93.5 L 158.84375 51.429688 L 202.203125 69.238281 L 179.992188 132.808594 L 183.171875 133.683594 Z M 186.363281 134.566406 "/>
<path style="fill-rule:nonzero;fill:rgb(39.99939%,39.99939%,39.99939%);fill-opacity:1;stroke-width:0.03;stroke-linecap:square;stroke-linejoin:miter;stroke:rgb(39.99939%,39.99939%,39.99939%);stroke-opacity:1;stroke-miterlimit:3.239307;" d="M 224.34375 209.878906 L 275.273438 229.941406 L 273.59375 244.972656 L 217.796875 222.191406 Z M 224.34375 209.878906 " transform="matrix(1,0,0,1,-74,-13)"/>
<path style="fill-rule:nonzero;fill:rgb(39.99939%,39.99939%,39.99939%);fill-opacity:1;stroke-width:0.03;stroke-linecap:square;stroke-linejoin:miter;stroke:rgb(39.99939%,39.99939%,39.99939%);stroke-opacity:1;stroke-miterlimit:3.239307;" d="M 265.816406 186.441406 L 278.164062 190.417969 L 276.023438 199.539062 L 274.5 207.460938 L 273.449219 214.492188 L 274.285156 223.222656 L 254.371094 215.3125 Z M 265.816406 186.441406 " transform="matrix(1,0,0,1,-74,-13)"/>
<path style="fill-rule:nonzero;fill:rgb(39.99939%,39.99939%,39.99939%);fill-opacity:1;stroke-width:0.03;stroke-linecap:square;stroke-linejoin:miter;stroke:rgb(39.99939%,39.99939%,39.99939%);stroke-opacity:1;stroke-miterlimit:3.239307;" d="M 272.09375 170.253906 L 282.746094 175.171875 L 279.054688 188.585938 L 266.40625 184.226562 Z M 272.09375 170.253906 " transform="matrix(1,0,0,1,-74,-13)"/>
<path style="fill-rule:nonzero;fill:rgb(39.99939%,39.99939%,39.99939%);fill-opacity:1;stroke-width:0.03;stroke-linecap:square;stroke-linejoin:miter;stroke:rgb(39.99939%,39.99939%,39.99939%);stroke-opacity:1;stroke-miterlimit:3.239307;" d="M 253.476562 162.253906 L 269.476562 168.847656 L 251.519531 214.296875 L 235.203125 208.125 Z M 253.476562 162.253906 " transform="matrix(1,0,0,1,-74,-13)"/>
<path style="fill-rule:nonzero;fill:rgb(39.99939%,39.99939%,39.99939%);fill-opacity:1;stroke-width:0.03;stroke-linecap:square;stroke-linejoin:miter;stroke:rgb(39.99939%,39.99939%,39.99939%);stroke-opacity:1;stroke-miterlimit:3.239307;" d="M 275.144531 267.214844 L 277.941406 251.980469 L 277.941406 268.621094 Z M 275.144531 267.214844 " transform="matrix(1,0,0,1,-74,-13)"/>
<path style="fill-rule:nonzero;fill:rgb(39.99939%,39.99939%,39.99939%);fill-opacity:1;stroke-width:0.03;stroke-linecap:square;stroke-linejoin:miter;stroke:rgb(39.99939%,39.99939%,39.99939%);stroke-opacity:1;stroke-miterlimit:3.239307;" d="M 273.984375 319.308594 L 271.824219 318.609375 L 271.386719 312.691406 L 274.496094 312.859375 Z M 273.984375 319.308594 " transform="matrix(1,0,0,1,-74,-13)"/>
<path style="fill-rule:nonzero;fill:rgb(39.99939%,39.99939%,39.99939%);fill-opacity:1;stroke-width:0.03;stroke-linecap:square;stroke-linejoin:miter;stroke:rgb(39.99939%,39.99939%,39.99939%);stroke-opacity:1;stroke-miterlimit:3.239307;" d="M 275.195312 304.089844 L 275.589844 279.941406 L 276.945312 276.335938 L 277.425781 275.980469 Z M 275.195312 304.089844 " transform="matrix(1,0,0,1,-74,-13)"/>
<path style="fill-rule:nonzero;fill:rgb(39.99939%,39.99939%,39.99939%);fill-opacity:1;stroke-width:0.03;stroke-linecap:square;stroke-linejoin:miter;stroke:rgb(39.99939%,39.99939%,39.99939%);stroke-opacity:1;stroke-miterlimit:3.239307;" d="M 260.363281 147.566406 L 273.585938 110.765625 L 283.148438 84.457031 L 310.429688 94.707031 L 288.289062 157.210938 L 283.257812 173 L 253.695312 159.390625 L 254.6875 156.765625 L 241.1875 150.554688 L 240.765625 151.601562 L 240.347656 152.652344 L 250.453125 157.34375 L 245.359375 169.820312 L 233.152344 164.738281 L 232.582031 165.921875 L 232.007812 167.105469 L 244.363281 172.117188 L 236.101562 192.0625 L 224.699219 188.070312 L 224.226562 189.246094 L 223.757812 190.421875 L 235.039062 194.527344 L 232.710938 200.203125 L 222.066406 196.53125 L 221.6875 197.492188 L 221.304688 198.453125 L 232.035156 201.964844 L 229.410156 207.917969 L 219.21875 204.648438 L 218.695312 206.007812 L 218.167969 207.367188 L 221.515625 208.5625 L 214.539062 221.898438 L 201.867188 216.605469 L 200.953125 218.195312 L 199.851562 220.195312 L 212.695312 225.761719 L 203.726562 246.742188 L 205.226562 247.449219 L 206.722656 248.15625 L 216.027344 227.335938 L 261.609375 247.347656 L 264.640625 247.820312 L 267.671875 248.058594 L 269.441406 249.011719 L 269.945312 250.445312 L 270.199219 251.640625 L 268.96875 282.976562 L 269.96875 304.574219 L 269.464844 306.964844 L 264.007812 317.695312 L 262.15625 321.328125 L 260.386719 321.570312 L 257.859375 320.386719 L 125.429688 258.410156 L 125.429688 256.738281 L 151.863281 209.632812 L 176.960938 219.046875 L 168.839844 235.019531 L 171.054688 236.417969 L 173.265625 237.820312 L 190.890625 200.046875 L 188.738281 199.238281 L 186.589844 198.433594 L 178.851562 213.261719 L 154.640625 204.605469 L 192.308594 137.746094 L 218.507812 149.332031 L 203.03125 185.472656 L 204.582031 186.015625 L 206.136719 186.558594 L 208.957031 179.988281 L 213.183594 170.132812 L 222.328125 149.089844 L 228.976562 133.789062 L 227.203125 133.164062 L 225.277344 132.488281 L 219.796875 145.65625 L 194.453125 134.164062 L 200.832031 122.453125 L 210.304688 106.5 L 232.84375 64.429688 L 276.203125 82.238281 L 253.992188 145.808594 L 257.171875 146.683594 Z M 260.363281 147.566406 " transform="matrix(1,0,0,1,-74,-13)"/>
<g clip-path="url(#clip13)" clip-rule="nonzero">
<path style=" stroke:none;fill-rule:evenodd;fill:rgb(85.096741%,85.096741%,81.959534%);fill-opacity:0.7;" d="M 200.59375 336 C 200.59375 327.355469 197.160156 319.0625 191.046875 312.953125 C 184.9375 306.839844 176.644531 303.40625 168 303.40625 C 159.355469 303.40625 151.0625 306.839844 144.953125 312.953125 C 138.839844 319.0625 135.40625 327.355469 135.40625 336 C 135.40625 344.644531 138.839844 352.9375 144.953125 359.046875 C 151.0625 365.160156 159.355469 368.59375 168 368.59375 C 176.644531 368.59375 184.9375 365.160156 191.046875 359.046875 C 197.160156 352.9375 200.59375 344.644531 200.59375 336 Z M 200.59375 336 "/>
</g>
</g>
</svg>
