<?xml version="1.0" encoding="UTF-8"?>
<svg xmlns="http://www.w3.org/2000/svg" xmlns:xlink="http://www.w3.org/1999/xlink" width="361pt" height="361pt" viewBox="0 0 361 361" version="1.1">
<defs>
<clipPath id="clip1">
  <path d="M 185 354 L 193 354 L 193 360 L 185 360 Z M 185 354 "/>
</clipPath>
<clipPath id="clip2">
  <path d="M 182 303 L 240 303 L 240 360 L 182 360 Z M 182 303 "/>
</clipPath>
<clipPath id="clip3">
  <path d="M 157 353 L 171 353 L 171 360 L 157 360 Z M 157 353 "/>
</clipPath>
<clipPath id="clip4">
  <path d="M 141 324 L 185 324 L 185 360 L 141 360 Z M 141 324 "/>
</clipPath>
<clipPath id="clip5">
  <path d="M 340 95 L 360 95 L 360 214 L 340 214 Z M 340 95 "/>
</clipPath>
<clipPath id="clip6">
  <path d="M 249 358 L 321 358 L 321 360 L 249 360 Z M 249 358 "/>
</clipPath>
<clipPath id="clip7">
  <path d="M 357 73 L 360 73 L 360 115 L 357 115 Z M 357 73 "/>
</clipPath>
<clipPath id="clip8">
  <path d="M 306 212 L 360 212 L 360 278 L 306 278 Z M 306 212 "/>
</clipPath>
<clipPath id="clip9">
  <path d="M 318 272 L 360 272 L 360 360 L 318 360 Z M 318 272 "/>
</clipPath>
<clipPath id="clip10">
  <path d="M 350 0 L 360 0 L 360 4 L 350 4 Z M 350 0 "/>
</clipPath>
<clipPath id="clip11">
  <path d="M 287 4 L 360 4 L 360 59 L 287 59 Z M 287 4 "/>
</clipPath>
<clipPath id="clip12">
  <path d="M 340 12 L 360 12 L 360 82 L 340 82 Z M 340 12 "/>
</clipPath>
</defs>
<g id="surface3157">
<path style="fill-rule:nonzero;fill:rgb(0%,0%,0%);fill-opacity:1;stroke-width:0.03;stroke-linecap:square;stroke-linejoin:miter;stroke:rgb(0%,0%,0%);stroke-opacity:1;stroke-miterlimit:10;" d="M 0 178 L 360 178 L 360 -182 L 0 -182 Z M 0 178 " transform="matrix(1,0,0,1,0,182)"/>
<path style=" stroke:none;fill-rule:nonzero;fill:rgb(39.99939%,39.99939%,39.99939%);fill-opacity:0.3;" d="M 24.40625 143.421875 L 35.421875 146.8125 L 28.46875 168.613281 L 17.542969 165.097656 Z M 24.40625 143.421875 "/>
<path style=" stroke:none;fill-rule:nonzero;fill:rgb(39.99939%,39.99939%,39.99939%);fill-opacity:0.3;" d="M 12.921875 139.878906 L 23.917969 143.324219 L 16.839844 165.09375 L 5.933594 161.523438 Z M 12.921875 139.878906 "/>
<path style=" stroke:none;fill-rule:nonzero;fill:rgb(39.99939%,39.99939%,39.99939%);fill-opacity:0.3;" d="M 87.523438 176.367188 L 86.378906 176.324219 L 91.847656 165.386719 L 92.992188 165.429688 Z M 87.523438 176.367188 "/>
<path style=" stroke:none;fill-rule:nonzero;fill:rgb(39.99939%,39.99939%,39.99939%);fill-opacity:0.3;" d="M 71.097656 212.691406 L 68.8125 212.644531 L 84.367188 179.550781 L 85.96875 179.640625 Z M 71.097656 212.691406 "/>
<path style=" stroke:none;fill-rule:nonzero;fill:rgb(39.99939%,39.99939%,39.99939%);fill-opacity:0.3;" d="M 59.230469 230.765625 L 71.097656 231.34375 L 56.144531 245.941406 L 51.898438 245.832031 Z M 59.230469 230.765625 "/>
<path style=" stroke:none;fill-rule:nonzero;fill:rgb(39.99939%,39.99939%,39.99939%);fill-opacity:0.3;" d="M 49.609375 249.957031 L 53.925781 250.085938 L 51.429688 265.066406 L 48.53125 265.050781 L 43.664062 262.167969 Z M 49.609375 249.957031 "/>
<path style=" stroke:none;fill-rule:nonzero;fill:rgb(39.99939%,39.99939%,39.99939%);fill-opacity:0.3;" d="M 48.027344 216.542969 L 59.128906 220.207031 L 54.972656 231.230469 L 44.039062 227.625 Z M 48.027344 216.542969 "/>
<path style=" stroke:none;fill-rule:nonzero;fill:rgb(39.99939%,39.99939%,39.99939%);fill-opacity:0.3;" d="M 30.84375 202.941406 L 14.476562 248.359375 L 12.136719 250.03125 L -24.925781 220.566406 L -19.285156 212.4375 L 7.371094 229.304688 L 15.660156 204.320312 L -13.546875 194.492188 L -28.777344 216.265625 L -38.996094 207.550781 L -20.988281 187.132812 L 23.90625 200.570312 Z M 30.84375 202.941406 "/>
<path style=" stroke:none;fill-rule:nonzero;fill:rgb(39.99939%,39.99939%,39.99939%);fill-opacity:0.3;" d="M 29.691406 229.378906 L 32.769531 230.449219 L 28.46875 241.757812 L 25.460938 240.796875 Z M 29.691406 229.378906 "/>
<path style=" stroke:none;fill-rule:nonzero;fill:rgb(39.99939%,39.99939%,39.99939%);fill-opacity:0.3;" d="M 0.734375 136.121094 L 11.75 139.511719 L 4.796875 161.316406 L -6.128906 157.800781 Z M 0.734375 136.121094 "/>
<path style=" stroke:none;fill-rule:nonzero;fill:rgb(39.99939%,39.99939%,39.99939%);fill-opacity:0.3;" d="M 45.910156 215.839844 L 41.898438 226.917969 L 30.964844 223.3125 L 35.117188 212.300781 Z M 45.910156 215.839844 "/>
<path style=" stroke:none;fill-rule:nonzero;fill:rgb(39.99939%,39.99939%,39.99939%);fill-opacity:0.3;" d="M 50.429688 231.273438 L 53.503906 232.335938 L 49.195312 243.640625 L 46.195312 242.679688 Z M 50.429688 231.273438 "/>
<path style=" stroke:none;fill-rule:nonzero;fill:rgb(39.99939%,39.99939%,39.99939%);fill-opacity:0.3;" d="M 33.957031 193.609375 L 32.78125 197.167969 L 30.886719 196.566406 L 30.378906 198.207031 L 28.394531 197.53125 L 28.90625 195.941406 L 24.917969 194.675781 L 24.410156 196.316406 L 22.421875 195.640625 L 22.933594 194.050781 L 18.171875 192.535156 L 17.664062 194.175781 L 15.660156 193.535156 L 16.1875 191.910156 L 12.242188 190.660156 L 11.738281 192.285156 L 9.738281 191.648438 L 10.257812 190.03125 L 6.34375 188.792969 L 5.835938 190.429688 L 3.847656 189.757812 L 4.359375 188.164062 L 0.367188 186.902344 L -0.140625 188.539062 L -2.128906 187.863281 L -1.617188 186.273438 L -4.195312 185.5 L -2.902344 181.9375 Z M 33.957031 193.609375 "/>
<path style=" stroke:none;fill-rule:nonzero;fill:rgb(39.99939%,39.99939%,39.99939%);fill-opacity:0.3;" d="M 53.910156 169.160156 L 52.992188 171.570312 L 54.640625 172.148438 L 54 174.054688 L 52.316406 173.445312 L 50.957031 177.222656 L 52.605469 177.800781 L 51.972656 179.710938 L 50.289062 179.101562 L 48.964844 182.808594 L 50.636719 183.394531 L 49.964844 185.289062 L 48.292969 184.683594 L 46.953125 188.417969 L 48.640625 189.003906 L 47.964844 190.898438 L 46.28125 190.292969 L 45.507812 192.4375 L 41.796875 191.210938 L 50.128906 167.980469 Z M 53.910156 169.160156 "/>
<path style=" stroke:none;fill-rule:nonzero;fill:rgb(39.99939%,39.99939%,39.99939%);fill-opacity:0.3;" d="M 72.683594 186.683594 L 73.6875 184.304688 L 72.066406 183.671875 L 72.773438 181.789062 L 74.433594 182.453125 L 75.925781 178.726562 L 74.300781 178.089844 L 75.007812 176.207031 L 76.667969 176.871094 L 78.140625 173.21875 L 76.492188 172.574219 L 76.996094 171.3125 L 77.855469 170.957031 L 78.886719 171.367188 L 79.289062 170.363281 L 84.339844 168.277344 L 76.417969 187.988281 Z M 72.683594 186.683594 "/>
<path style=" stroke:none;fill-rule:nonzero;fill:rgb(39.99939%,39.99939%,39.99939%);fill-opacity:0.3;" d="M 39.300781 200.867188 L 41.867188 201.664062 L 42.429688 200.085938 L 44.457031 200.636719 L 43.863281 202.25 L 47.875 203.425781 L 48.4375 201.851562 L 50.460938 202.398438 L 49.867188 204.011719 L 53.800781 205.164062 L 54.375 203.566406 L 56.382812 204.148438 L 55.796875 205.753906 L 59.777344 206.933594 L 60.347656 205.316406 L 62.367188 205.914062 L 61.777344 207.527344 L 64.066406 208.207031 L 62.882812 211.765625 L 38.167969 204.480469 Z M 39.300781 200.867188 "/>
<path style=" stroke:none;fill-rule:nonzero;fill:rgb(39.99939%,39.99939%,39.99939%);fill-opacity:0.3;" d="M 36.59375 147.179688 L 47.589844 150.625 L 40.511719 172.386719 L 29.605469 168.820312 Z M 36.59375 147.179688 "/>
<path style=" stroke:none;fill-rule:nonzero;fill:rgb(39.99939%,39.99939%,39.99939%);fill-opacity:0.3;" d="M 70.191406 90.125 L 65.902344 101.8125 L 62.347656 100.566406 L 63.089844 98.570312 L 61.246094 97.902344 L 61.886719 96.109375 L 63.734375 96.644531 L 65.136719 92.679688 L 63.308594 92.148438 L 63.957031 90.335938 L 65.785156 90.851562 L 66.476562 88.898438 Z M 70.191406 90.125 "/>
<path style=" stroke:none;fill-rule:nonzero;fill:rgb(39.99939%,39.99939%,39.99939%);fill-opacity:0.3;" d="M 22.121094 87.535156 L 23.394531 84.011719 L 59.320312 95.726562 L 58.09375 99.042969 L 56.070312 98.40625 L 55.480469 99.9375 L 53.832031 99.414062 L 54.359375 97.839844 L 50.175781 96.488281 L 49.574219 98.050781 L 47.71875 97.46875 L 48.3125 95.914062 L 44.550781 94.695312 L 43.980469 96.28125 L 41.808594 95.59375 L 42.40625 94.023438 L 41.394531 93.699219 L 40.855469 95.289062 L 35.101562 93.460938 L 35.671875 91.867188 L 32.703125 90.921875 L 31.976562 92.46875 L 29.675781 91.738281 L 30.308594 90.148438 L 26.367188 88.890625 L 25.75 90.492188 L 23.753906 89.855469 L 24.386719 88.257812 Z M 22.121094 87.535156 "/>
<path style=" stroke:none;fill-rule:nonzero;fill:rgb(39.99939%,39.99939%,39.99939%);fill-opacity:0.3;" d="M 25.621094 77.480469 L 27.898438 78.175781 L 28.390625 76.535156 L 30.394531 77.152344 L 29.886719 78.789062 L 33.84375 80 L 34.332031 78.367188 L 39.167969 79.84375 L 38.695312 81.480469 L 40.363281 81.992188 L 40.847656 80.375 L 43.972656 81.335938 L 43.476562 82.945312 L 45.75 83.652344 L 46.234375 82.035156 L 48.234375 82.667969 L 47.738281 84.265625 L 51.796875 85.511719 L 52.28125 83.898438 L 54.285156 84.527344 L 53.789062 86.121094 L 57.734375 87.308594 L 58.210938 85.726562 L 60.214844 86.347656 L 59.726562 87.910156 L 61.753906 88.539062 L 60.65625 91.898438 L 24.4375 81.03125 Z M 25.621094 77.480469 "/>
<path style=" stroke:none;fill-rule:nonzero;fill:rgb(39.99939%,39.99939%,39.99939%);fill-opacity:0.3;" d="M 7.226562 71.082031 L 8.101562 68.660156 L 6.445312 68.105469 L 7.054688 66.191406 L 8.746094 66.777344 L 10.046875 62.984375 L 8.390625 62.429688 L 8.996094 60.515625 L 10.691406 61.101562 L 11.964844 57.382812 L 10.28125 56.816406 L 10.929688 54.917969 L 12.609375 55.496094 L 13.894531 51.75 L 12.199219 51.183594 L 12.84375 49.28125 L 14.539062 49.867188 L 15.277344 47.710938 L 19.007812 48.886719 L 10.722656 72.261719 Z M 7.226562 71.082031 "/>
<path style=" stroke:none;fill-rule:nonzero;fill:rgb(39.99939%,39.99939%,39.99939%);fill-opacity:0.3;" d="M -1.746094 68.488281 L -5.3125 67.515625 L 2.277344 43.929688 L 6.035156 45.035156 L 5.3125 47.195312 L 7.050781 47.652344 L 6.410156 49.558594 L 4.683594 49.082031 L 3.429688 52.839844 L 5.152344 53.292969 L 4.511719 55.195312 L 2.800781 54.726562 L 1.554688 58.457031 L 3.292969 58.914062 L 2.613281 60.808594 L 0.925781 60.34375 L -0.34375 64.144531 L 1.394531 64.601562 L 0.714844 66.496094 L -0.972656 66.03125 Z M -1.746094 68.488281 "/>
<path style=" stroke:none;fill-rule:nonzero;fill:rgb(39.99939%,39.99939%,39.99939%);fill-opacity:0.3;" d="M 62.890625 37.664062 L 72.460938 42.511719 L 65.535156 64.628906 L 54.835938 61.859375 Z M 62.890625 37.664062 "/>
<path style=" stroke:none;fill-rule:nonzero;fill:rgb(39.99939%,39.99939%,39.99939%);fill-opacity:0.3;" d="M 51.90625 32.101562 L 61.363281 36.890625 L 53.253906 61.449219 L 43.066406 58.8125 Z M 51.90625 32.101562 "/>
<path style=" stroke:none;fill-rule:nonzero;fill:rgb(39.99939%,39.99939%,39.99939%);fill-opacity:0.3;" d="M 39.859375 26.003906 L 50.378906 31.328125 L 41.285156 58.351562 L 30.152344 55.46875 Z M 39.859375 26.003906 "/>
<path style=" stroke:none;fill-rule:nonzero;fill:rgb(39.99939%,39.99939%,39.99939%);fill-opacity:0.3;" d="M 73.886719 43.234375 L 78.253906 45.445312 L 71.851562 66.265625 L 66.984375 65.003906 Z M 73.886719 43.234375 "/>
<path style=" stroke:none;fill-rule:nonzero;fill:rgb(39.99939%,39.99939%,39.99939%);fill-opacity:0.3;" d="M -11.597656 22.113281 L -7.664062 23.078125 L -4.558594 10.273438 L -10.808594 3.21875 L -22.429688 -0.714844 L -18.65625 -11.765625 L -7.066406 -9.085938 L 9.128906 6.984375 L 1.1875 31.9375 L -47.367188 17.359375 L -37.011719 -15.96875 L -32.632812 -14.625 L -32.101562 -16.230469 L -23.835938 -13.679688 L -33.273438 15.480469 L -25.523438 17.671875 Z M -11.597656 22.113281 "/>
<path style=" stroke:none;fill-rule:nonzero;fill:rgb(39.99939%,39.99939%,39.99939%);fill-opacity:0.3;" d="M 17.023438 88.679688 L 64.453125 104.460938 L 61.519531 112.324219 L 24.714844 100.867188 L 16.738281 124.871094 L 18.082031 125.277344 L 19.542969 125.722656 L 20.953125 121.652344 L 48.433594 130.304688 L 49.195312 128.058594 L 49.953125 125.808594 L 44.484375 124.175781 L 48.457031 112.09375 L 60.320312 115.625 L 50.496094 142.605469 L 4.195312 128.140625 Z M 17.023438 88.679688 "/>
<path style=" stroke:none;fill-rule:nonzero;fill:rgb(39.99939%,39.99939%,39.99939%);fill-opacity:0.3;" d="M 17.261719 75.535156 L 2.789062 126.828125 L -19.730469 97.53125 L -9.898438 67.058594 Z M 17.261719 75.535156 "/>
<path style=" stroke:none;fill-rule:nonzero;fill:rgb(39.99939%,39.99939%,39.99939%);fill-opacity:0.3;" d="M 12.839844 7.429688 L 32.164062 18.726562 L 24.558594 43.390625 L 3.824219 36.691406 Z M 12.839844 7.429688 "/>
<path style=" stroke:none;fill-rule:nonzero;fill:rgb(39.99939%,39.99939%,39.99939%);fill-opacity:0.3;" d="M 67.304688 215.652344 L 70.835938 215.839844 L 73.046875 228.363281 L 61.226562 227.863281 Z M 67.304688 215.652344 "/>
<path style=" stroke:none;fill-rule:nonzero;fill:rgb(39.99939%,39.99939%,39.99939%);fill-opacity:0.3;" d="M 191.011719 146.535156 L 222.566406 146.71875 L 222.113281 154.800781 L 191.011719 154.902344 Z M 191.011719 146.535156 "/>
<path style=" stroke:none;fill-rule:nonzero;fill:rgb(39.99939%,39.99939%,39.99939%);fill-opacity:0.3;" d="M 191.875 104.644531 L 221.804688 137.984375 L 221.925781 145.03125 L 190.617188 144.804688 Z M 191.875 104.644531 "/>
<path style=" stroke:none;fill-rule:nonzero;fill:rgb(39.99939%,39.99939%,39.99939%);fill-opacity:0.3;" d="M 228.082031 149.417969 L 230.042969 149.175781 L 236.902344 160.613281 L 236.742188 171.613281 L 191.765625 170.011719 L 191.597656 156.9375 L 222.539062 157.238281 L 224.871094 155.960938 L 226.878906 152.921875 Z M 228.082031 149.417969 "/>
<path style=" stroke:none;fill-rule:nonzero;fill:rgb(39.99939%,39.99939%,39.99939%);fill-opacity:0.3;" d="M 192.652344 172.585938 L 237.246094 174.226562 L 237.257812 184.730469 L 192.546875 182.71875 Z M 192.652344 172.585938 "/>
<path style=" stroke:none;fill-rule:nonzero;fill:rgb(39.99939%,39.99939%,39.99939%);fill-opacity:0.3;" d="M 191.238281 184.882812 L 237.796875 187.824219 L 237.78125 199.722656 L 191.417969 195.628906 Z M 191.238281 184.882812 "/>
<path style=" stroke:none;fill-rule:nonzero;fill:rgb(39.99939%,39.99939%,39.99939%);fill-opacity:0.3;" d="M 191.460938 198.175781 L 237.777344 202.695312 L 237.765625 212.613281 L 191.671875 210.464844 Z M 191.460938 198.175781 "/>
<path style=" stroke:none;fill-rule:nonzero;fill:rgb(39.99939%,39.99939%,39.99939%);fill-opacity:0.3;" d="M 192.199219 228.148438 L 207.96875 228.820312 L 208.027344 227.492188 L 208.097656 225.886719 L 191.964844 225.085938 L 191.570312 213.351562 L 237.519531 215.75 L 237.972656 229.097656 L 237.9375 257.152344 L 192.617188 253.207031 L 192.4375 242.359375 L 192.527344 241.421875 L 192.523438 240.273438 L 192.378906 239.027344 Z M 192.199219 228.148438 "/>
<path style=" stroke:none;fill-rule:nonzero;fill:rgb(39.99939%,39.99939%,39.99939%);fill-opacity:0.3;" d="M 143.167969 225.960938 L 188.179688 227.652344 L 188.191406 239.164062 L 143.039062 236.621094 Z M 143.167969 225.960938 "/>
<path style=" stroke:none;fill-rule:nonzero;fill:rgb(39.99939%,39.99939%,39.99939%);fill-opacity:0.3;" d="M 143.023438 240.074219 L 188.855469 242.5625 L 188.707031 253.144531 L 142.917969 250.371094 Z M 143.023438 240.074219 "/>
<path style=" stroke:none;fill-rule:nonzero;fill:rgb(39.99939%,39.99939%,39.99939%);fill-opacity:0.3;" d="M 142.144531 181.617188 L 186.617188 184.195312 L 186.660156 195.492188 L 142.039062 194.027344 Z M 142.144531 181.617188 "/>
<path style=" stroke:none;fill-rule:nonzero;fill:rgb(39.99939%,39.99939%,39.99939%);fill-opacity:0.3;" d="M 143.253906 211.527344 L 188.566406 213.371094 L 188.132812 224.675781 L 143.15625 222.898438 Z M 143.253906 211.527344 "/>
<path style=" stroke:none;fill-rule:nonzero;fill:rgb(39.99939%,39.99939%,39.99939%);fill-opacity:0.3;" d="M 142.019531 196.386719 L 187.109375 198.226562 L 187.125 209.65625 L 141.921875 207.652344 Z M 142.019531 196.386719 "/>
<path style=" stroke:none;fill-rule:nonzero;fill:rgb(39.99939%,39.99939%,39.99939%);fill-opacity:0.3;" d="M 142.40625 140.796875 L 187.238281 141.988281 L 187.152344 153.382812 L 142.761719 151.371094 Z M 142.40625 140.796875 "/>
<path style=" stroke:none;fill-rule:nonzero;fill:rgb(39.99939%,39.99939%,39.99939%);fill-opacity:0.3;" d="M 142.507812 153.785156 L 187.152344 155.726562 L 187.167969 167.191406 L 142.417969 164.648438 Z M 142.507812 153.785156 "/>
<path style=" stroke:none;fill-rule:nonzero;fill:rgb(39.99939%,39.99939%,39.99939%);fill-opacity:0.3;" d="M 142.738281 167.359375 L 187.175781 170.011719 L 187.390625 181.542969 L 142.371094 178.835938 Z M 142.738281 167.359375 "/>
<path style=" stroke:none;fill-rule:nonzero;fill:rgb(39.99939%,39.99939%,39.99939%);fill-opacity:0.3;" d="M 142.707031 126.183594 L 187.625 127.988281 L 187.644531 140.332031 L 142.8125 139.503906 Z M 142.707031 126.183594 "/>
<path style=" stroke:none;fill-rule:nonzero;fill:rgb(39.99939%,39.99939%,39.99939%);fill-opacity:0.3;" d="M 192.628906 287.121094 L 237.816406 289.769531 L 237.574219 301.523438 L 192.265625 300.402344 Z M 192.628906 287.121094 "/>
<path style=" stroke:none;fill-rule:nonzero;fill:rgb(39.99939%,39.99939%,39.99939%);fill-opacity:0.3;" d="M 193.035156 272.117188 L 238.121094 274.945312 L 237.867188 287.308594 L 192.683594 285.09375 Z M 193.035156 272.117188 "/>
<path style=" stroke:none;fill-rule:nonzero;fill:rgb(39.99939%,39.99939%,39.99939%);fill-opacity:0.3;" d="M 192.917969 256.308594 L 237.882812 260.253906 L 237.667969 270.882812 L 192.601562 268.027344 Z M 192.917969 256.308594 "/>
<path style=" stroke:none;fill-rule:nonzero;fill:rgb(39.99939%,39.99939%,39.99939%);fill-opacity:0.3;" d="M 142.101562 268.238281 L 187.769531 271.425781 L 187.4375 283.773438 L 141.925781 280.773438 Z M 142.101562 268.238281 "/>
<path style=" stroke:none;fill-rule:nonzero;fill:rgb(39.99939%,39.99939%,39.99939%);fill-opacity:0.3;" d="M 141.890625 283.261719 L 187.363281 286.589844 L 186.996094 300.222656 L 141.671875 298.652344 Z M 141.890625 283.261719 "/>
<path style=" stroke:none;fill-rule:nonzero;fill:rgb(39.99939%,39.99939%,39.99939%);fill-opacity:0.3;" d="M 142.914062 253.628906 L 188.777344 256.699219 L 188.441406 269.28125 L 142.738281 266.191406 Z M 142.914062 253.628906 "/>
<path style=" stroke:none;fill-rule:nonzero;fill:rgb(39.99939%,39.99939%,39.99939%);fill-opacity:0.3;" d="M 142.148438 112.886719 L 187.808594 114.703125 L 187.488281 126.007812 L 142.351562 123.917969 Z M 142.148438 112.886719 "/>
<path style=" stroke:none;fill-rule:nonzero;fill:rgb(39.99939%,39.99939%,39.99939%);fill-opacity:0.3;" d="M 137.347656 178.222656 L 87.523438 176.367188 L 92.992188 165.429688 L 137.484375 167.121094 Z M 137.347656 178.222656 "/>
<path style=" stroke:none;fill-rule:nonzero;fill:rgb(39.99939%,39.99939%,39.99939%);fill-opacity:0.3;" d="M 100.324219 149.398438 L 137.324219 151.195312 L 137.636719 164.050781 L 93.800781 162.519531 Z M 100.324219 149.398438 "/>
<path style=" stroke:none;fill-rule:nonzero;fill:rgb(39.99939%,39.99939%,39.99939%);fill-opacity:0.3;" d="M 136.898438 198.445312 L 136.605469 209.652344 L 86.527344 205.621094 L 86.710938 198.113281 L 92.609375 195.480469 Z M 136.898438 198.445312 "/>
<path style=" stroke:none;fill-rule:nonzero;fill:rgb(39.99939%,39.99939%,39.99939%);fill-opacity:0.3;" d="M 137.089844 182.457031 L 137.277344 195.3125 L 86.292969 191.835938 L 83.097656 196.113281 L 81.230469 210.464844 L 79.03125 212.839844 L 71.097656 212.691406 L 85.96875 179.640625 Z M 137.089844 182.457031 "/>
<path style=" stroke:none;fill-rule:nonzero;fill:rgb(39.99939%,39.99939%,39.99939%);fill-opacity:0.3;" d="M 137.867188 212.488281 L 137.507812 223.394531 L 88.253906 219.984375 L 88.601562 214.082031 L 91.214844 214 L 91.925781 208.867188 Z M 137.867188 212.488281 "/>
<path style=" stroke:none;fill-rule:nonzero;fill:rgb(39.99939%,39.99939%,39.99939%);fill-opacity:0.3;" d="M 88.152344 223.082031 L 136.488281 226.316406 L 136.378906 236.867188 L 88.230469 233.03125 Z M 88.152344 223.082031 "/>
<path style=" stroke:none;fill-rule:nonzero;fill:rgb(39.99939%,39.99939%,39.99939%);fill-opacity:0.3;" d="M 88.652344 236.332031 L 136.78125 240.28125 L 136.6875 250.878906 L 88.546875 247.75 Z M 88.652344 236.332031 "/>
<path style=" stroke:none;fill-rule:nonzero;fill:rgb(39.99939%,39.99939%,39.99939%);fill-opacity:0.3;" d="M 70.792969 108.421875 L 138.339844 110.574219 L 138.15625 124.585938 L 65.914062 123.789062 Z M 70.792969 108.421875 "/>
<path style=" stroke:none;fill-rule:nonzero;fill:rgb(39.99939%,39.99939%,39.99939%);fill-opacity:0.3;" d="M 87.046875 280.699219 L 137.035156 282.824219 L 137.175781 294.296875 L 87.15625 291.339844 Z M 87.046875 280.699219 "/>
<path style=" stroke:none;fill-rule:nonzero;fill:rgb(39.99939%,39.99939%,39.99939%);fill-opacity:0.3;" d="M 87.1875 294.175781 L 136.695312 296.925781 L 136.492188 308.570312 L 87.296875 305.066406 Z M 87.1875 294.175781 "/>
<path style=" stroke:none;fill-rule:nonzero;fill:rgb(39.99939%,39.99939%,39.99939%);fill-opacity:0.3;" d="M 86.894531 266.019531 L 136.851562 267.953125 L 137.011719 280.976562 L 87.027344 278.851562 Z M 86.894531 266.019531 "/>
<path style=" stroke:none;fill-rule:nonzero;fill:rgb(39.99939%,39.99939%,39.99939%);fill-opacity:0.3;" d="M 86.738281 251.195312 L 136.679688 254.101562 L 136.828125 266.121094 L 86.867188 263.683594 Z M 86.738281 251.195312 "/>
<path style=" stroke:none;fill-rule:nonzero;fill:rgb(39.99939%,39.99939%,39.99939%);fill-opacity:0.3;" d="M 71.097656 231.34375 L 83.089844 231.925781 L 83.386719 246.636719 L 56.144531 245.941406 Z M 71.097656 231.34375 "/>
<path style=" stroke:none;fill-rule:nonzero;fill:rgb(39.99939%,39.99939%,39.99939%);fill-opacity:0.3;" d="M 52.242188 268.699219 L 83.472656 268.953125 L 83.5625 280.746094 L 58.371094 280.609375 Z M 52.242188 268.699219 "/>
<path style=" stroke:none;fill-rule:nonzero;fill:rgb(39.99939%,39.99939%,39.99939%);fill-opacity:0.3;" d="M 83.652344 285.300781 L 84 302.769531 L 62.976562 285.417969 Z M 83.652344 285.300781 "/>
<path style=" stroke:none;fill-rule:nonzero;fill:rgb(39.99939%,39.99939%,39.99939%);fill-opacity:0.3;" d="M 53.925781 250.085938 L 82.964844 250.945312 L 83.253906 265.226562 L 51.429688 265.066406 Z M 53.925781 250.085938 "/>
<path style=" stroke:none;fill-rule:nonzero;fill:rgb(39.99939%,39.99939%,39.99939%);fill-opacity:0.3;" d="M 61.292969 134.140625 L 72.949219 137.921875 L 71.617188 142.164062 L 69.804688 141.613281 L 70.179688 140.40625 L 65.382812 138.988281 L 64.113281 143.035156 L 68.984375 144.453125 L 69.371094 143.140625 L 71.136719 143.691406 L 69.949219 147.480469 L 58.117188 144.101562 Z M 61.292969 134.140625 "/>
<path style=" stroke:none;fill-rule:nonzero;fill:rgb(39.99939%,39.99939%,39.99939%);fill-opacity:0.3;" d="M 222.722656 126.613281 L 240.289062 126.445312 L 240.1875 149.589844 Z M 222.722656 126.613281 "/>
<path style=" stroke:none;fill-rule:nonzero;fill:rgb(39.99939%,39.99939%,39.99939%);fill-opacity:0.3;" d="M 76.996094 171.3125 L 77.238281 170.707031 L 77.855469 170.957031 Z M 76.996094 171.3125 "/>
<path style=" stroke:none;fill-rule:nonzero;fill:rgb(39.99939%,39.99939%,39.99939%);fill-opacity:0.3;" d="M 79.289062 170.363281 L 80.367188 167.6875 L 78.707031 167.042969 L 79.453125 165.171875 L 81.113281 165.835938 L 81.964844 163.71875 L 85.628906 165.074219 L 84.339844 168.277344 Z M 79.289062 170.363281 "/>
<path style=" stroke:none;fill-rule:nonzero;fill:rgb(39.99939%,39.99939%,39.99939%);fill-opacity:0.3;" d="M 74.796875 145.347656 L 86.449219 149.128906 L 85.117188 153.371094 L 83.304688 152.820312 L 83.679688 151.613281 L 78.882812 150.195312 L 77.613281 154.242188 L 82.484375 155.65625 L 82.871094 154.347656 L 84.640625 154.898438 L 83.449219 158.6875 L 71.617188 155.308594 Z M 74.796875 145.347656 "/>
<path style=" stroke:none;fill-rule:nonzero;fill:rgb(39.99939%,39.99939%,39.99939%);fill-opacity:0.3;" d="M 57.410156 146.636719 L 69.066406 150.414062 L 67.734375 154.65625 L 65.921875 154.105469 L 66.296875 152.898438 L 61.5 151.484375 L 60.226562 155.53125 L 65.101562 156.945312 L 65.488281 155.632812 L 67.253906 156.1875 L 66.066406 159.972656 L 54.234375 156.597656 Z M 57.410156 146.636719 "/>
<path style=" stroke:none;fill-rule:nonzero;fill:rgb(39.99939%,39.99939%,39.99939%);fill-opacity:0.3;" d="M 142.261719 103.65625 L 187.960938 105.550781 L 187.972656 112.15625 L 142.304688 110.507812 Z M 142.261719 103.65625 "/>
<path style=" stroke:none;fill-rule:nonzero;fill:rgb(39.99939%,39.99939%,39.99939%);fill-opacity:0.3;" d="M 164.589844 86.40625 L 178.527344 94.855469 L 188.261719 102.039062 L 162.480469 100.527344 Z M 164.589844 86.40625 "/>
<path style=" stroke:none;fill-rule:nonzero;fill:rgb(39.99939%,39.99939%,39.99939%);fill-opacity:0.3;" d="M 150.921875 80.1875 L 158.578125 83.628906 L 156.277344 100.519531 L 142.507812 99.585938 L 144.605469 85.742188 L 148.21875 85.851562 Z M 150.921875 80.1875 "/>
<path style=" stroke:none;fill-rule:nonzero;fill:rgb(39.99939%,39.99939%,39.99939%);fill-opacity:0.3;" d="M 76.09375 94.179688 L 138.527344 98.785156 L 137.925781 107.769531 L 72.292969 105.539062 L 74.199219 99.199219 Z M 76.09375 94.179688 "/>
<path style=" stroke:none;fill-rule:nonzero;fill:rgb(39.99939%,39.99939%,39.99939%);fill-opacity:0.3;" d="M 81.632812 81.390625 L 140.273438 86.125 L 138.734375 96.292969 L 77.09375 91.671875 Z M 81.632812 81.390625 "/>
<path style=" stroke:none;fill-rule:nonzero;fill:rgb(39.99939%,39.99939%,39.99939%);fill-opacity:0.3;" d="M 87.625 67.769531 L 133.996094 72.136719 L 143.28125 77.019531 L 140.828125 84.015625 L 82.535156 79.125 Z M 87.625 67.769531 "/>
<path style=" stroke:none;fill-rule:nonzero;fill:rgb(39.99939%,39.99939%,39.99939%);fill-opacity:0.3;" d="M 95.730469 51.429688 L 128.863281 68.183594 L 89.863281 64.382812 Z M 95.730469 51.429688 "/>
<path style=" stroke:none;fill-rule:nonzero;fill:rgb(39.99939%,39.99939%,39.99939%);fill-opacity:0.3;" d="M 65.101562 125.4375 L 137.902344 126.847656 L 137.832031 146.078125 L 93.03125 144.375 Z M 65.101562 125.4375 "/>
<path style=" stroke:none;fill-rule:nonzero;fill:rgb(39.99939%,39.99939%,39.99939%);fill-opacity:0.3;" d="M 70.835938 215.839844 L 83.992188 216.539062 L 83.339844 228.796875 L 73.046875 228.363281 Z M 70.835938 215.839844 "/>
<path style=" stroke:none;fill-rule:nonzero;fill:rgb(39.99939%,39.99939%,39.99939%);fill-opacity:0.3;" d="M 190.484375 309.085938 L 203 309.554688 L 203.152344 323.652344 L 190.574219 323.109375 Z M 190.484375 309.085938 "/>
<path style=" stroke:none;fill-rule:nonzero;fill:rgb(39.99939%,39.99939%,39.99939%);fill-opacity:0.3;" d="M 207.371094 309.722656 L 215.90625 310.046875 L 216.128906 324.21875 L 207.738281 323.851562 Z M 207.371094 309.722656 "/>
<path style=" stroke:none;fill-rule:nonzero;fill:rgb(39.99939%,39.99939%,39.99939%);fill-opacity:0.3;" d="M 220.28125 310.210938 L 233.15625 310.707031 L 233.09375 324.964844 L 220.570312 324.414062 Z M 220.28125 310.210938 "/>
<path style=" stroke:none;fill-rule:nonzero;fill:rgb(39.99939%,39.99939%,39.99939%);fill-opacity:0.3;" d="M 207.875 330.601562 L 216.214844 330.902344 L 216.503906 349.175781 L 208.351562 349.113281 Z M 207.875 330.601562 "/>
<path style=" stroke:none;fill-rule:nonzero;fill:rgb(39.99939%,39.99939%,39.99939%);fill-opacity:0.3;" d="M 190.609375 329.984375 L 203.214844 330.433594 L 203.414062 349.074219 L 190.726562 348.984375 Z M 190.609375 329.984375 "/>
<path style=" stroke:none;fill-rule:nonzero;fill:rgb(39.99939%,39.99939%,39.99939%);fill-opacity:0.3;" d="M 184.644531 334.980469 L 187.320312 334.976562 L 187.328125 342.332031 L 183.128906 342.335938 Z M 184.644531 334.980469 "/>
<path style=" stroke:none;fill-rule:nonzero;fill:rgb(39.99939%,39.99939%,39.99939%);fill-opacity:0.3;" d="M 220.679688 331.066406 L 233.070312 331.519531 L 232.988281 349.308594 L 221.046875 349.210938 Z M 220.679688 331.066406 "/>
<g clip-path="url(#clip1)" clip-rule="nonzero">
<path style=" stroke:none;fill-rule:nonzero;fill:rgb(39.99939%,39.99939%,39.99939%);fill-opacity:0.3;" d="M 185.839844 354.792969 L 192.960938 354.785156 L 192.972656 368.746094 L 185.855469 368.753906 Z M 185.839844 354.792969 "/>
</g>
<g clip-path="url(#clip2)" clip-rule="nonzero">
<path style=" stroke:none;fill-rule:nonzero;fill:rgb(39.99939%,39.99939%,39.99939%);fill-opacity:0.3;" d="M 191.050781 303.867188 L 234.953125 305.097656 L 236.011719 395.441406 L 191.523438 392.695312 L 191.8125 394.480469 L 192.101562 396.269531 L 238.859375 400.160156 L 239.277344 403.230469 L 238.871094 406.144531 L 236.425781 409.628906 L 234.894531 411.660156 L 233.367188 412.914062 L 231.632812 413.972656 L 230 414.738281 L 225.820312 415.589844 L 219.558594 414.585938 L 211.214844 413.34375 L 207.265625 412.65625 L 203.3125 412.101562 L 197.308594 407.121094 L 189.480469 399.703125 L 188.101562 397.757812 L 189.886719 395.339844 L 184.515625 389.890625 L 183.402344 367.359375 L 183.402344 350.269531 L 182.050781 347.570312 Z M 191.050781 303.867188 "/>
</g>
<path style=" stroke:none;fill-rule:nonzero;fill:rgb(39.99939%,39.99939%,39.99939%);fill-opacity:0.3;" d="M 153.753906 335.003906 L 184.644531 334.980469 L 183.128906 342.335938 L 161.390625 342.351562 Z M 153.753906 335.003906 "/>
<path style=" stroke:none;fill-rule:nonzero;fill:rgb(39.99939%,39.99939%,39.99939%);fill-opacity:0.3;" d="M 142.898438 302.515625 L 191.050781 303.867188 L 182.050781 347.570312 L 176.65625 346.222656 L 165.410156 346.222656 L 142.34375 324.023438 Z M 142.898438 302.515625 "/>
<path style=" stroke:none;fill-rule:nonzero;fill:rgb(39.99939%,39.99939%,39.99939%);fill-opacity:0.3;" d="M 145.449219 312.117188 L 176.769531 312.960938 L 176.550781 320.308594 L 145.230469 319.46875 Z M 145.449219 312.117188 "/>
<path style=" stroke:none;fill-rule:nonzero;fill:rgb(39.99939%,39.99939%,39.99939%);fill-opacity:0.3;" d="M 145.359375 303.917969 L 156.097656 304.199219 L 155.941406 309.570312 L 145.203125 309.289062 Z M 145.359375 303.917969 "/>
<path style=" stroke:none;fill-rule:nonzero;fill:rgb(39.99939%,39.99939%,39.99939%);fill-opacity:0.3;" d="M 167.285156 304.628906 L 178.023438 304.910156 L 177.867188 310.28125 L 167.128906 310 Z M 167.285156 304.628906 "/>
<path style=" stroke:none;fill-rule:nonzero;fill:rgb(39.99939%,39.99939%,39.99939%);fill-opacity:0.3;" d="M 161.945312 326.667969 L 178.65625 326.65625 L 178.660156 331.605469 L 161.949219 331.617188 Z M 161.945312 326.667969 "/>
<path style=" stroke:none;fill-rule:nonzero;fill:rgb(39.99939%,39.99939%,39.99939%);fill-opacity:0.3;" d="M 144.351562 335.011719 L 153.753906 335.003906 L 161.390625 342.351562 L 144.355469 342.367188 Z M 144.351562 335.011719 "/>
<g clip-path="url(#clip3)" clip-rule="nonzero">
<path style=" stroke:none;fill-rule:nonzero;fill:rgb(39.99939%,39.99939%,39.99939%);fill-opacity:0.3;" d="M 157.394531 353.332031 L 170.742188 353.324219 L 170.746094 361.660156 L 157.402344 361.671875 Z M 157.394531 353.332031 "/>
</g>
<g clip-path="url(#clip4)" clip-rule="nonzero">
<path style=" stroke:none;fill-rule:nonzero;fill:rgb(39.99939%,39.99939%,39.99939%);fill-opacity:0.3;" d="M 184.515625 389.890625 L 159.671875 364.675781 L 142.054688 348.476562 L 141.910156 340.886719 L 142.34375 324.023438 L 165.410156 346.222656 L 176.65625 346.222656 L 182.050781 347.570312 L 183.402344 350.269531 L 183.402344 367.359375 Z M 184.515625 389.890625 "/>
</g>
<path style=" stroke:none;fill-rule:nonzero;fill:rgb(39.99939%,39.99939%,39.99939%);fill-opacity:0.3;" d="M 258.621094 189.308594 L 245.523438 190.574219 L 245.976562 185.792969 L 246.339844 184.402344 L 246.796875 183.449219 L 247.53125 182.667969 L 248.535156 182.0625 L 249.359375 181.800781 L 250.367188 181.71875 L 251.46875 181.722656 L 252.75 181.984375 L 253.851562 182.335938 L 254.582031 182.773438 L 255.5 183.558594 L 256.234375 184.605469 Z M 258.621094 189.308594 "/>
<path style=" stroke:none;fill-rule:nonzero;fill:rgb(39.99939%,39.99939%,39.99939%);fill-opacity:0.3;" d="M 300.03125 306.472656 L 311.191406 306.265625 L 313.476562 333.285156 L 300.035156 333.234375 Z M 300.03125 306.472656 "/>
<path style=" stroke:none;fill-rule:nonzero;fill:rgb(39.99939%,39.99939%,39.99939%);fill-opacity:0.3;" d="M 274.519531 213 L 281.734375 224.777344 L 282.898438 228.800781 L 246.476562 231.355469 L 246.75 217.855469 Z M 274.519531 213 "/>
<path style=" stroke:none;fill-rule:nonzero;fill:rgb(39.99939%,39.99939%,39.99939%);fill-opacity:0.3;" d="M 299.890625 252.335938 L 303.390625 256.394531 L 306.566406 265.171875 L 247.828125 267.847656 L 247.816406 255.664062 Z M 299.890625 252.335938 "/>
<path style=" stroke:none;fill-rule:nonzero;fill:rgb(39.99939%,39.99939%,39.99939%);fill-opacity:0.3;" d="M 286.546875 232.261719 L 292.523438 243.105469 L 293.632812 248.71875 L 247.605469 251.121094 L 247.230469 234.117188 Z M 286.546875 232.261719 "/>
<path style=" stroke:none;fill-rule:nonzero;fill:rgb(39.99939%,39.99939%,39.99939%);fill-opacity:0.3;" d="M 261.171875 192.953125 L 268.039062 203.933594 L 271.832031 209.402344 L 246.085938 213.765625 L 245.679688 195.503906 Z M 261.171875 192.953125 "/>
<path style=" stroke:none;fill-rule:nonzero;fill:rgb(39.99939%,39.99939%,39.99939%);fill-opacity:0.3;" d="M 269.476562 184.457031 L 309.828125 169.066406 L 316.792969 190.65625 L 341.332031 181.636719 L 340.253906 179.453125 L 339.195312 177.3125 L 319.589844 184.132812 L 314.097656 168.320312 L 347.261719 156.953125 L 358.644531 216.546875 L 301.765625 236.804688 Z M 269.476562 184.457031 "/>
<path style=" stroke:none;fill-rule:nonzero;fill:rgb(39.99939%,39.99939%,39.99939%);fill-opacity:0.3;" d="M 248.757812 152.25 L 299.214844 138.214844 L 302.929688 138.339844 L 304.367188 141.925781 L 306.699219 141.195312 L 309.441406 140.464844 L 307.019531 130.632812 L 340.945312 123.789062 L 345.640625 154.082031 L 339.945312 155.847656 L 338.734375 150.039062 L 333.5 151.6875 L 334.695312 157.988281 L 319.269531 162.882812 L 317.390625 156.28125 L 314.792969 157.046875 L 312.054688 157.78125 L 314.199219 164.382812 L 298.699219 169.199219 L 296.449219 163.664062 L 293.1875 164.917969 L 289.929688 166.171875 L 291.246094 172.15625 L 266.691406 180.695312 L 258.660156 167.742188 L 301.367188 152.164062 L 300.4375 149.695312 L 257.058594 165.296875 Z M 248.757812 152.25 "/>
<path style=" stroke:none;fill-rule:nonzero;fill:rgb(39.99939%,39.99939%,39.99939%);fill-opacity:0.3;" d="M 301.554688 112.078125 L 335.507812 101.898438 L 340.777344 120.160156 L 306.238281 127.574219 Z M 301.554688 112.078125 "/>
<g clip-path="url(#clip5)" clip-rule="nonzero">
<path style=" stroke:none;fill-rule:nonzero;fill:rgb(39.99939%,39.99939%,39.99939%);fill-opacity:0.3;" d="M 340.285156 100.214844 L 353.539062 95.835938 L 357.847656 109.558594 L 365.300781 142.199219 L 373.699219 174.792969 L 377.859375 208.355469 L 362.902344 213.09375 L 358.332031 191.109375 L 351.269531 145.832031 Z M 340.285156 100.214844 "/>
</g>
<path style=" stroke:none;fill-rule:nonzero;fill:rgb(39.99939%,39.99939%,39.99939%);fill-opacity:0.3;" d="M 247.394531 127.757812 L 292.628906 114.996094 L 297.800781 134.90625 L 248.011719 148.582031 Z M 247.394531 127.757812 "/>
<g clip-path="url(#clip6)" clip-rule="nonzero">
<path style=" stroke:none;fill-rule:nonzero;fill:rgb(39.99939%,39.99939%,39.99939%);fill-opacity:0.3;" d="M 250.105469 362.703125 L 316.394531 358.671875 L 317.640625 396.230469 L 317.648438 406.269531 L 319.175781 430.335938 L 309.59375 431.625 L 309.898438 432.789062 L 310.242188 434.09375 L 319.355469 433.210938 L 319.71875 438.925781 L 307.390625 441.832031 L 307.691406 443.121094 L 307.996094 444.410156 L 319.867188 441.242188 L 320.101562 444.976562 L 319.207031 459.3125 L 317.699219 466.769531 L 317.074219 467.613281 L 310.132812 466.199219 L 309.074219 468.066406 L 308.019531 469.929688 L 314.378906 471.242188 L 308.328125 479.390625 L 296.949219 487.066406 L 291.691406 489.441406 L 291.054688 459.335938 L 289.585938 459.507812 L 289.496094 454.179688 L 288.066406 454.21875 L 286.632812 454.253906 L 286.835938 460.03125 L 250.695312 462.554688 L 249.929688 407.105469 L 288.59375 406.003906 L 288.289062 402.277344 L 249.578125 402.628906 L 249.6875 396.328125 L 290.097656 395.96875 L 290.050781 393.90625 L 249.457031 393.503906 L 249.550781 380.4375 L 290.496094 379.480469 L 290.496094 378.054688 L 290.492188 376.632812 L 249.816406 377.640625 Z M 250.105469 362.703125 "/>
</g>
<path style=" stroke:none;fill-rule:nonzero;fill:rgb(39.99939%,39.99939%,39.99939%);fill-opacity:0.3;" d="M 300.738281 337.472656 L 313.921875 337.433594 L 315.074219 355.566406 L 301.335938 355.78125 Z M 300.738281 337.472656 "/>
<path style=" stroke:none;fill-rule:nonzero;fill:rgb(39.99939%,39.99939%,39.99939%);fill-opacity:0.3;" d="M 247.867188 272.632812 L 306.4375 269.722656 L 307.019531 278.855469 L 300.109375 278.949219 L 300.710938 289.449219 L 308.867188 288.996094 L 309.769531 303.386719 L 296.320312 303.539062 L 298.027344 355.703125 L 249.140625 357.933594 L 248.527344 339.828125 L 288.664062 337.183594 L 288.511719 335.886719 L 288.363281 334.59375 L 247.921875 336.953125 L 248.214844 322.304688 L 288.359375 320.210938 L 288.207031 318.773438 L 288.054688 317.332031 L 247.910156 318.570312 L 247.882812 311.910156 Z M 247.867188 272.632812 "/>
<g clip-path="url(#clip7)" clip-rule="nonzero">
<path style=" stroke:none;fill-rule:nonzero;fill:rgb(39.99939%,39.99939%,39.99939%);fill-opacity:0.3;" d="M 431.914062 73.664062 L 434.019531 84.539062 L 411.625 89.695312 L 413.34375 93.570312 L 434.726562 88.203125 L 436.574219 105.324219 L 426.863281 106.742188 L 410.445312 106.445312 L 396.570312 107.703125 L 381.792969 108.386719 L 373.789062 110.484375 L 362.277344 114.46875 L 357.140625 97.464844 L 386.886719 87.171875 L 414.351562 78.042969 Z M 431.914062 73.664062 "/>
</g>
<g clip-path="url(#clip8)" clip-rule="nonzero">
<path style=" stroke:none;fill-rule:nonzero;fill:rgb(39.99939%,39.99939%,39.99939%);fill-opacity:0.3;" d="M 306.300781 238.660156 L 378.703125 212.398438 L 386.753906 270.414062 L 370.230469 271.503906 L 365.398438 232.851562 L 363.632812 233.285156 L 362.230469 233.628906 L 367.066406 272.265625 L 318.523438 277.347656 L 316.070312 261.203125 L 311.925781 250.457031 Z M 306.300781 238.660156 "/>
</g>
<g clip-path="url(#clip9)" clip-rule="nonzero">
<path style=" stroke:none;fill-rule:nonzero;fill:rgb(39.99939%,39.99939%,39.99939%);fill-opacity:0.3;" d="M 318.246094 281.265625 L 343.808594 277.976562 L 370.804688 274.523438 L 373.746094 288.558594 L 375.363281 288.125 L 376.75 287.75 L 374.035156 274.308594 L 387.011719 272.929688 L 387.699219 291.648438 L 419.265625 307.59375 L 450.378906 373.054688 L 449.792969 376.507812 L 443.761719 385.128906 L 438.011719 388.59375 L 431.65625 391.488281 L 409.535156 393.367188 L 331.484375 400.222656 L 326.121094 351.609375 Z M 318.246094 281.265625 "/>
</g>
<path style=" stroke:none;fill-rule:nonzero;fill:rgb(39.99939%,39.99939%,39.99939%);fill-opacity:0.3;" d="M 256.503906 62.308594 L 281.445312 62.65625 L 281.175781 111.921875 L 247.890625 121.96875 L 246.96875 86.484375 L 250.433594 76.867188 Z M 256.503906 62.308594 "/>
<g clip-path="url(#clip10)" clip-rule="nonzero">
<path style=" stroke:none;fill-rule:nonzero;fill:rgb(39.99939%,39.99939%,39.99939%);fill-opacity:0.3;" d="M 351.109375 -32.148438 L 359.9375 -32.070312 L 372.761719 -32.1875 L 381.027344 -33.34375 L 386.074219 -37.816406 L 402.457031 -7.214844 L 397.429688 -0.226562 L 391.035156 1.707031 L 386.203125 -5.949219 L 389.128906 -7.679688 L 387.949219 -9.257812 L 386.449219 -11.257812 L 380.054688 -7.539062 L 385.695312 1.894531 L 379.015625 2.582031 L 350.398438 3.875 Z M 351.109375 -32.148438 "/>
</g>
<path style=" stroke:none;fill-rule:nonzero;fill:rgb(39.99939%,39.99939%,39.99939%);fill-opacity:0.3;" d="M 298.226562 2.359375 L 303.234375 -42.074219 L 318.511719 -38.695312 L 321.753906 -24.96875 L 325.371094 -24.769531 L 332.945312 -24.25 L 333.449219 -25.378906 L 333.953125 -26.503906 L 323.933594 -27.828125 L 323.066406 -37.148438 L 346.367188 -31.917969 L 344.582031 5.628906 L 335.75 6.59375 L 334.65625 -2.554688 L 330.914062 -2.722656 L 328.230469 -2.84375 L 327.980469 6.300781 Z M 298.226562 2.359375 "/>
<g clip-path="url(#clip11)" clip-rule="nonzero">
<path style=" stroke:none;fill-rule:nonzero;fill:rgb(39.99939%,39.99939%,39.99939%);fill-opacity:0.3;" d="M 332.417969 9.214844 L 335.328125 16.648438 L 336.871094 16.132812 L 339.378906 15.292969 L 337.628906 9.242188 L 347.1875 8.472656 L 363.105469 6.933594 L 395.527344 4.355469 L 400.988281 15.269531 L 380.800781 26.554688 L 372.132812 31.152344 L 362.882812 36.308594 L 348.703125 42.546875 L 337.695312 43.589844 L 329.007812 46.023438 L 320.320312 50.109375 L 303.519531 57.191406 L 293.375 58.253906 L 287.574219 57.132812 L 289.875 46.144531 L 301.757812 43.710938 L 312.1875 40.453125 L 334.773438 30.933594 L 334.121094 29.699219 L 333.554688 28.628906 L 326.210938 31.871094 L 320.121094 9.570312 Z M 332.417969 9.214844 "/>
</g>
<g clip-path="url(#clip12)" clip-rule="nonzero">
<path style=" stroke:none;fill-rule:nonzero;fill:rgb(39.99939%,39.99939%,39.99939%);fill-opacity:0.3;" d="M 417.394531 12.398438 L 419.835938 21.289062 L 416.261719 22.632812 L 415.835938 32.144531 L 416.015625 41.917969 L 409.230469 42.453125 L 409.246094 42.964844 L 409.265625 43.636719 L 416.261719 43.222656 L 416.421875 58.648438 L 397.316406 58.859375 L 396.25 58.394531 L 392.316406 51.230469 L 398.449219 48.878906 L 397.824219 47.871094 L 397.386719 47.160156 L 391.253906 49.210938 L 387.714844 42.917969 L 376.132812 46.59375 L 368.515625 52.621094 L 360.289062 62.132812 L 358.824219 74.847656 L 357.964844 81.519531 L 353.132812 75.949219 L 355.8125 70.859375 L 354.660156 69.554688 L 353.398438 68.121094 L 350.089844 74.066406 L 344.261719 68.144531 L 350.832031 59.699219 L 350.246094 59.324219 L 349.570312 58.898438 L 342.734375 67.363281 L 340.085938 64.289062 L 340.117188 56.351562 L 343.816406 50.738281 L 348.101562 46.8125 L 358.570312 43.925781 L 369.863281 37.457031 L 372.230469 42.667969 L 373.867188 42 L 375.328125 41.402344 L 372.980469 35.675781 L 374.449219 34.835938 L 397.253906 20.914062 L 408.328125 14.792969 Z M 417.394531 12.398438 "/>
</g>
<path style=" stroke:none;fill-rule:nonzero;fill:rgb(39.99939%,39.99939%,39.99939%);fill-opacity:0.3;" d="M 341.941406 47.347656 L 342.183594 48.785156 L 341.199219 50.894531 L 334.222656 56.386719 L 333.21875 60.28125 L 330.863281 59.847656 L 324.695312 59.714844 L 318.625 61.503906 L 311.6875 61.042969 L 309.578125 59.042969 L 313.652344 56.847656 L 322.574219 52.835938 L 330.332031 49.925781 Z M 341.941406 47.347656 "/>
<path style=" stroke:none;fill-rule:nonzero;fill:rgb(39.99939%,39.99939%,39.99939%);fill-opacity:0.3;" d="M 254.039062 -13.925781 L 258.367188 36.707031 L 251.730469 59.511719 L 247.691406 72.425781 L 247.441406 72.746094 L 246.914062 73.046875 L 246.167969 73.144531 L 245.503906 73.066406 L 245 72.863281 L 244.414062 72.511719 L 244.09375 72.082031 L 243.910156 71.328125 L 243.746094 69.613281 L 245.714844 -13.699219 Z M 254.039062 -13.925781 "/>
<path style=" stroke:none;fill-rule:nonzero;fill:rgb(39.99939%,39.99939%,39.99939%);fill-opacity:0.3;" d="M 353.550781 91.882812 L 318.007812 101.808594 L 317.921875 100.617188 L 322.09375 93.089844 L 328.238281 83.398438 L 337.800781 69.417969 L 349.347656 79.636719 L 352.003906 86.261719 Z M 353.550781 91.882812 "/>
<path style=" stroke:none;fill-rule:nonzero;fill:rgb(39.99939%,39.99939%,39.99939%);fill-opacity:0.3;" d="M 329.417969 63.386719 L 329.644531 66.589844 L 317.429688 83.40625 L 311.347656 88.058594 L 305.859375 100.140625 L 303.0625 104.953125 L 285.320312 110.519531 L 286.234375 63.195312 Z M 329.417969 63.386719 "/>
<path style=" stroke:none;fill-rule:nonzero;fill:rgb(39.99939%,39.99939%,39.99939%);fill-opacity:0.3;" d="M 283.675781 -12.292969 L 287.976562 -4.347656 L 292.632812 1.152344 L 293.503906 3.628906 L 289.746094 25.097656 L 282.511719 58.410156 L 258.109375 57.601562 L 263.613281 39.984375 L 260.214844 -12.273438 Z M 283.675781 -12.292969 "/>
<path style=" stroke:none;fill-rule:nonzero;fill:rgb(39.99939%,39.99939%,39.99939%);fill-opacity:0.3;" d="M 302.246094 41.597656 L 289.96875 43.933594 L 297.878906 5.328125 L 307.851562 7.785156 L 316.953125 9.011719 L 324.199219 33.367188 L 310.621094 38.988281 Z M 302.246094 41.597656 "/>
<path style=" stroke:none;fill-rule:nonzero;fill:rgb(39.99939%,39.99939%,39.99939%);fill-opacity:0.3;" d="M 155.371094 19.347656 L 157.789062 18.230469 L 159.21875 21.007812 L 160.941406 20.214844 L 159.511719 17.4375 L 162.09375 16.246094 L 165.226562 22.328125 L 162.644531 23.519531 L 162.078125 22.417969 L 160.355469 23.210938 L 163.761719 29.824219 L 161.347656 30.9375 L 160.613281 29.507812 L 159.023438 30.242188 L 159.757812 31.671875 L 157.261719 32.824219 L 154.421875 27.3125 L 156.917969 26.160156 L 158.203125 28.652344 L 159.792969 27.917969 Z M 155.371094 19.347656 "/>
<path style=" stroke:none;fill-rule:nonzero;fill:rgb(39.99939%,39.99939%,39.99939%);fill-opacity:0.3;" d="M 154.210938 2.039062 L 158.792969 10.535156 L 160.367188 9.773438 L 159.035156 7.308594 L 161.507812 6.113281 L 164.457031 11.574219 L 161.980469 12.765625 L 161.21875 11.351562 L 159.644531 12.113281 L 160.40625 13.527344 L 158.015625 14.683594 L 154.480469 8.132812 L 152.773438 8.957031 L 153.363281 10.046875 L 150.804688 11.285156 L 147.550781 5.257812 L 150.109375 4.023438 L 151.59375 6.773438 L 153.300781 5.949219 L 151.816406 3.199219 Z M 154.210938 2.039062 "/>
<path style=" stroke:none;fill-rule:nonzero;fill:rgb(39.99939%,39.99939%,39.99939%);fill-opacity:0.3;" d="M 141.539062 17.894531 L 143.953125 16.777344 L 145.386719 19.554688 L 147.105469 18.757812 L 145.675781 15.984375 L 148.257812 14.792969 L 151.394531 20.875 L 148.8125 22.066406 L 148.242188 20.964844 L 146.519531 21.757812 L 149.929688 28.371094 L 147.515625 29.484375 L 146.777344 28.054688 L 145.1875 28.789062 L 145.925781 30.21875 L 143.429688 31.371094 L 140.585938 25.859375 L 143.085938 24.707031 L 144.367188 27.199219 L 145.957031 26.464844 Z M 141.539062 17.894531 "/>
<path style=" stroke:none;fill-rule:nonzero;fill:rgb(39.99939%,39.99939%,39.99939%);fill-opacity:0.3;" d="M 127.796875 21.128906 L 132.375 29.625 L 133.953125 28.863281 L 132.621094 26.394531 L 135.09375 25.199219 L 138.042969 30.660156 L 135.566406 31.855469 L 134.804688 30.441406 L 133.226562 31.203125 L 133.992188 32.617188 L 131.601562 33.773438 L 128.0625 27.222656 L 126.359375 28.046875 L 126.945312 29.140625 L 124.390625 30.375 L 121.136719 24.351562 L 123.695312 23.113281 L 125.179688 25.863281 L 126.886719 25.039062 L 125.402344 22.289062 Z M 127.796875 21.128906 "/>
<path style=" stroke:none;fill-rule:nonzero;fill:rgb(39.99939%,39.99939%,39.99939%);fill-opacity:0.3;" d="M 126.121094 42.710938 L 128.644531 41.613281 L 129.34375 43.058594 L 130.953125 42.359375 L 130.25 40.914062 L 132.691406 39.851562 L 137.09375 48.949219 L 138.835938 48.195312 L 137.136719 44.667969 L 139.789062 43.617188 L 142.734375 49.683594 L 135.9375 52.636719 L 131.734375 43.96875 L 130.125 44.667969 L 131.347656 47.183594 L 128.824219 48.28125 Z M 126.121094 42.710938 "/>
<path style=" stroke:none;fill-rule:nonzero;fill:rgb(39.99939%,39.99939%,39.99939%);fill-opacity:0.3;" d="M 152.175781 33.679688 L 154.851562 39.265625 L 152.320312 40.351562 L 151.113281 37.828125 L 149.5 38.515625 L 153.660156 47.203125 L 146.847656 50.121094 L 143.9375 44.039062 L 146.515625 42.835938 L 148.214844 46.359375 L 149.960938 45.613281 L 145.589844 36.503906 L 148.035156 35.453125 L 148.726562 36.902344 L 150.339844 36.210938 L 149.648438 34.765625 Z M 152.175781 33.679688 "/>
<path style=" stroke:none;fill-rule:nonzero;fill:rgb(39.99939%,39.99939%,39.99939%);fill-opacity:0.3;" d="M 133.925781 -0.761719 L 138.507812 7.734375 L 140.082031 6.972656 L 138.75 4.503906 L 141.226562 3.308594 L 144.171875 8.769531 L 141.695312 9.964844 L 140.933594 8.550781 L 139.359375 9.3125 L 140.121094 10.726562 L 137.730469 11.882812 L 134.195312 5.332031 L 132.488281 6.15625 L 133.078125 7.246094 L 130.519531 8.484375 L 127.265625 2.460938 L 129.824219 1.222656 L 131.308594 3.972656 L 133.015625 3.148438 L 131.53125 0.398438 Z M 133.925781 -0.761719 "/>
<path style=" stroke:none;fill-rule:nonzero;fill:rgb(39.99939%,39.99939%,39.99939%);fill-opacity:0.3;" d="M 125.996094 18.035156 L 123.542969 19.085938 L 122.199219 16.273438 L 120.453125 17.019531 L 121.800781 19.832031 L 119.179688 20.957031 L 116.230469 14.792969 L 118.847656 13.671875 L 119.382812 14.789062 L 121.128906 14.039062 L 117.921875 7.339844 L 120.371094 6.289062 L 121.0625 7.738281 L 122.671875 7.046875 L 121.980469 5.601562 L 124.511719 4.515625 L 127.183594 10.097656 L 124.652344 11.183594 L 123.445312 8.660156 L 121.835938 9.351562 Z M 125.996094 18.035156 "/>
<path style=" stroke:none;fill-rule:nonzero;fill:rgb(39.99939%,39.99939%,39.99939%);fill-opacity:0.3;" d="M 152.359375 -1.023438 L 149.910156 0.0273438 L 148.5625 -2.785156 L 146.816406 -2.039062 L 148.164062 0.773438 L 145.546875 1.894531 L 142.597656 -4.269531 L 145.214844 -5.390625 L 145.75 -4.273438 L 147.492188 -5.019531 L 144.285156 -11.722656 L 146.734375 -12.769531 L 147.425781 -11.320312 L 149.039062 -12.011719 L 148.34375 -13.457031 L 150.875 -14.542969 L 153.546875 -8.957031 L 151.019531 -7.875 L 149.808594 -10.398438 L 148.199219 -9.707031 Z M 152.359375 -1.023438 "/>
<path style=" stroke:none;fill-rule:nonzero;fill:rgb(39.99939%,39.99939%,39.99939%);fill-opacity:0.3;" d="M 116.640625 -26.429688 L 99.578125 17.792969 L 92.011719 36.636719 L 91.679688 36.722656 L 91.257812 36.722656 L 90.742188 36.636719 L 90.046875 36.4375 L 89.53125 36.179688 L 87.808594 35.375 L 18.878906 -3.980469 L 15.757812 -6.070312 L 11.398438 -9.335938 L 10.097656 -10.613281 L 9.347656 -11.371094 L 8.644531 -12.273438 L 8.457031 -12.546875 L 17.527344 -29.019531 L 69.699219 -9.859375 L 77.917969 -30.167969 L 79.222656 -30.441406 L 80.261719 -30.6875 L 81.476562 -30.769531 L 82.949219 -30.769531 L 83.992188 -30.605469 L 85.378906 -30.277344 L 104.902344 -24.03125 L 106.992188 -29.695312 Z M 116.640625 -26.429688 "/>
<path style=" stroke:none;fill-rule:nonzero;fill:rgb(39.99939%,39.99939%,39.99939%);fill-opacity:0.3;" d="M 170.9375 33.835938 L 174.851562 26.605469 L 174.40625 28.238281 Z M 170.9375 33.835938 "/>
<path style=" stroke:none;fill-rule:nonzero;fill:rgb(39.99939%,39.99939%,39.99939%);fill-opacity:0.3;" d="M 238.703125 57.796875 L 238.875 83.53125 L 220.28125 81.984375 L 218.707031 59.40625 Z M 238.703125 57.796875 "/>
<path style=" stroke:none;fill-rule:nonzero;fill:rgb(39.99939%,39.99939%,39.99939%);fill-opacity:0.3;" d="M 217.757812 119.785156 L 216.796875 115.632812 L 215.789062 113.617188 L 207.582031 104.375 L 204.496094 100.648438 L 202.511719 98.484375 L 200.515625 96.625 L 194.363281 92.507812 L 192.847656 90.59375 L 192.140625 88.875 L 191.535156 87.25 L 189.300781 85.214844 L 182.339844 81.289062 L 153.59375 65.878906 L 170.9375 33.835938 L 174.40625 28.238281 L 174.851562 26.605469 L 177.128906 22.394531 L 156.542969 -17.136719 L 157.515625 -17.621094 L 238.214844 -17.210938 L 238.703125 57.796875 L 218.707031 59.40625 L 220.28125 81.984375 L 238.875 83.53125 L 239.050781 110.761719 L 238.980469 112.722656 L 238.878906 114.171875 L 238.667969 115.925781 L 238.300781 117.328125 L 237.511719 118.777344 L 236.878906 119.726562 L 235.984375 120.628906 L 234.925781 121.476562 L 233.765625 122.023438 L 232.550781 122.421875 L 231.125 122.71875 L 229.4375 122.964844 L 227.851562 123.0625 L 226.425781 123.109375 L 224.578125 123.054688 L 223.519531 122.953125 L 222.304688 122.75 L 221.300781 122.496094 L 220.453125 122.046875 L 219.714844 121.644531 L 219.183594 121.140625 L 218.390625 120.4375 Z M 217.757812 119.785156 "/>
<path style="fill-rule:nonzero;fill:rgb(39.99939%,39.99939%,39.99939%);fill-opacity:1;stroke-width:0.03;stroke-linecap:square;stroke-linejoin:miter;stroke:rgb(39.99939%,39.99939%,39.99939%);stroke-opacity:1;stroke-miterlimit:3.239307;" d="M 265.011719 159.535156 L 296.566406 159.71875 L 296.113281 167.800781 L 265.011719 167.902344 Z M 265.011719 159.535156 " transform="matrix(1,0,0,1,-74,-13)"/>
<path style="fill-rule:nonzero;fill:rgb(39.99939%,39.99939%,39.99939%);fill-opacity:1;stroke-width:0.03;stroke-linecap:square;stroke-linejoin:miter;stroke:rgb(39.99939%,39.99939%,39.99939%);stroke-opacity:1;stroke-miterlimit:3.239307;" d="M 265.875 117.644531 L 295.804688 150.984375 L 295.925781 158.03125 L 264.617188 157.804688 Z M 265.875 117.644531 " transform="matrix(1,0,0,1,-74,-13)"/>
<path style="fill-rule:nonzero;fill:rgb(39.99939%,39.99939%,39.99939%);fill-opacity:1;stroke-width:0.03;stroke-linecap:square;stroke-linejoin:miter;stroke:rgb(39.99939%,39.99939%,39.99939%);stroke-opacity:1;stroke-miterlimit:3.239307;" d="M 302.082031 162.417969 L 304.042969 162.175781 L 310.902344 173.613281 L 310.742188 184.613281 L 265.765625 183.011719 L 265.597656 169.9375 L 296.539062 170.238281 L 298.871094 168.960938 L 300.878906 165.921875 Z M 302.082031 162.417969 " transform="matrix(1,0,0,1,-74,-13)"/>
<path style="fill-rule:nonzero;fill:rgb(39.99939%,39.99939%,39.99939%);fill-opacity:1;stroke-width:0.03;stroke-linecap:square;stroke-linejoin:miter;stroke:rgb(39.99939%,39.99939%,39.99939%);stroke-opacity:1;stroke-miterlimit:3.239307;" d="M 266.652344 185.585938 L 311.246094 187.226562 L 311.257812 197.730469 L 266.546875 195.71875 Z M 266.652344 185.585938 " transform="matrix(1,0,0,1,-74,-13)"/>
<path style="fill-rule:nonzero;fill:rgb(39.99939%,39.99939%,39.99939%);fill-opacity:1;stroke-width:0.03;stroke-linecap:square;stroke-linejoin:miter;stroke:rgb(39.99939%,39.99939%,39.99939%);stroke-opacity:1;stroke-miterlimit:3.239307;" d="M 265.238281 197.882812 L 311.796875 200.824219 L 311.78125 212.722656 L 265.417969 208.628906 Z M 265.238281 197.882812 " transform="matrix(1,0,0,1,-74,-13)"/>
<path style="fill-rule:nonzero;fill:rgb(39.99939%,39.99939%,39.99939%);fill-opacity:1;stroke-width:0.03;stroke-linecap:square;stroke-linejoin:miter;stroke:rgb(39.99939%,39.99939%,39.99939%);stroke-opacity:1;stroke-miterlimit:3.239307;" d="M 265.460938 211.175781 L 311.777344 215.695312 L 311.765625 225.613281 L 265.671875 223.464844 Z M 265.460938 211.175781 " transform="matrix(1,0,0,1,-74,-13)"/>
<path style="fill-rule:nonzero;fill:rgb(39.99939%,39.99939%,39.99939%);fill-opacity:1;stroke-width:0.03;stroke-linecap:square;stroke-linejoin:miter;stroke:rgb(39.99939%,39.99939%,39.99939%);stroke-opacity:1;stroke-miterlimit:3.239307;" d="M 266.199219 241.148438 L 281.96875 241.820312 L 282.027344 240.492188 L 282.097656 238.886719 L 265.964844 238.085938 L 265.570312 226.351562 L 311.519531 228.75 L 311.972656 242.097656 L 311.9375 270.152344 L 266.617188 266.207031 L 266.4375 255.359375 L 266.527344 254.421875 L 266.523438 253.273438 L 266.378906 252.027344 Z M 266.199219 241.148438 " transform="matrix(1,0,0,1,-74,-13)"/>
<path style="fill-rule:nonzero;fill:rgb(39.99939%,39.99939%,39.99939%);fill-opacity:1;stroke-width:0.03;stroke-linecap:square;stroke-linejoin:miter;stroke:rgb(39.99939%,39.99939%,39.99939%);stroke-opacity:1;stroke-miterlimit:3.239307;" d="M 217.167969 238.960938 L 262.179688 240.652344 L 262.191406 252.164062 L 217.039062 249.621094 Z M 217.167969 238.960938 " transform="matrix(1,0,0,1,-74,-13)"/>
<path style="fill-rule:nonzero;fill:rgb(39.99939%,39.99939%,39.99939%);fill-opacity:1;stroke-width:0.03;stroke-linecap:square;stroke-linejoin:miter;stroke:rgb(39.99939%,39.99939%,39.99939%);stroke-opacity:1;stroke-miterlimit:3.239307;" d="M 217.023438 253.074219 L 262.855469 255.5625 L 262.707031 266.144531 L 216.917969 263.371094 Z M 217.023438 253.074219 " transform="matrix(1,0,0,1,-74,-13)"/>
<path style="fill-rule:nonzero;fill:rgb(39.99939%,39.99939%,39.99939%);fill-opacity:1;stroke-width:0.03;stroke-linecap:square;stroke-linejoin:miter;stroke:rgb(39.99939%,39.99939%,39.99939%);stroke-opacity:1;stroke-miterlimit:3.239307;" d="M 216.144531 194.617188 L 260.617188 197.195312 L 260.660156 208.492188 L 216.039062 207.027344 Z M 216.144531 194.617188 " transform="matrix(1,0,0,1,-74,-13)"/>
<path style="fill-rule:nonzero;fill:rgb(39.99939%,39.99939%,39.99939%);fill-opacity:1;stroke-width:0.03;stroke-linecap:square;stroke-linejoin:miter;stroke:rgb(39.99939%,39.99939%,39.99939%);stroke-opacity:1;stroke-miterlimit:3.239307;" d="M 217.253906 224.527344 L 262.566406 226.371094 L 262.132812 237.675781 L 217.15625 235.898438 Z M 217.253906 224.527344 " transform="matrix(1,0,0,1,-74,-13)"/>
<path style="fill-rule:nonzero;fill:rgb(39.99939%,39.99939%,39.99939%);fill-opacity:1;stroke-width:0.03;stroke-linecap:square;stroke-linejoin:miter;stroke:rgb(39.99939%,39.99939%,39.99939%);stroke-opacity:1;stroke-miterlimit:3.239307;" d="M 216.019531 209.386719 L 261.109375 211.226562 L 261.125 222.65625 L 215.921875 220.652344 Z M 216.019531 209.386719 " transform="matrix(1,0,0,1,-74,-13)"/>
<path style="fill-rule:nonzero;fill:rgb(39.99939%,39.99939%,39.99939%);fill-opacity:1;stroke-width:0.03;stroke-linecap:square;stroke-linejoin:miter;stroke:rgb(39.99939%,39.99939%,39.99939%);stroke-opacity:1;stroke-miterlimit:3.239307;" d="M 216.40625 153.796875 L 261.238281 154.988281 L 261.152344 166.382812 L 216.761719 164.371094 Z M 216.40625 153.796875 " transform="matrix(1,0,0,1,-74,-13)"/>
<path style="fill-rule:nonzero;fill:rgb(39.99939%,39.99939%,39.99939%);fill-opacity:1;stroke-width:0.03;stroke-linecap:square;stroke-linejoin:miter;stroke:rgb(39.99939%,39.99939%,39.99939%);stroke-opacity:1;stroke-miterlimit:3.239307;" d="M 216.507812 166.785156 L 261.152344 168.726562 L 261.167969 180.191406 L 216.417969 177.648438 Z M 216.507812 166.785156 " transform="matrix(1,0,0,1,-74,-13)"/>
<path style="fill-rule:nonzero;fill:rgb(39.99939%,39.99939%,39.99939%);fill-opacity:1;stroke-width:0.03;stroke-linecap:square;stroke-linejoin:miter;stroke:rgb(39.99939%,39.99939%,39.99939%);stroke-opacity:1;stroke-miterlimit:3.239307;" d="M 216.738281 180.359375 L 261.175781 183.011719 L 261.390625 194.542969 L 216.371094 191.835938 Z M 216.738281 180.359375 " transform="matrix(1,0,0,1,-74,-13)"/>
<path style="fill-rule:nonzero;fill:rgb(39.99939%,39.99939%,39.99939%);fill-opacity:1;stroke-width:0.03;stroke-linecap:square;stroke-linejoin:miter;stroke:rgb(39.99939%,39.99939%,39.99939%);stroke-opacity:1;stroke-miterlimit:3.239307;" d="M 216.707031 139.183594 L 261.625 140.988281 L 261.644531 153.332031 L 216.8125 152.503906 Z M 216.707031 139.183594 " transform="matrix(1,0,0,1,-74,-13)"/>
<path style="fill-rule:nonzero;fill:rgb(39.99939%,39.99939%,39.99939%);fill-opacity:1;stroke-width:0.03;stroke-linecap:square;stroke-linejoin:miter;stroke:rgb(39.99939%,39.99939%,39.99939%);stroke-opacity:1;stroke-miterlimit:3.239307;" d="M 266.628906 300.121094 L 311.816406 302.769531 L 311.574219 314.523438 L 266.265625 313.402344 Z M 266.628906 300.121094 " transform="matrix(1,0,0,1,-74,-13)"/>
<path style="fill-rule:nonzero;fill:rgb(39.99939%,39.99939%,39.99939%);fill-opacity:1;stroke-width:0.03;stroke-linecap:square;stroke-linejoin:miter;stroke:rgb(39.99939%,39.99939%,39.99939%);stroke-opacity:1;stroke-miterlimit:3.239307;" d="M 267.035156 285.117188 L 312.121094 287.945312 L 311.867188 300.308594 L 266.683594 298.09375 Z M 267.035156 285.117188 " transform="matrix(1,0,0,1,-74,-13)"/>
<path style="fill-rule:nonzero;fill:rgb(39.99939%,39.99939%,39.99939%);fill-opacity:1;stroke-width:0.03;stroke-linecap:square;stroke-linejoin:miter;stroke:rgb(39.99939%,39.99939%,39.99939%);stroke-opacity:1;stroke-miterlimit:3.239307;" d="M 266.917969 269.308594 L 311.882812 273.253906 L 311.667969 283.882812 L 266.601562 281.027344 Z M 266.917969 269.308594 " transform="matrix(1,0,0,1,-74,-13)"/>
<path style="fill-rule:nonzero;fill:rgb(39.99939%,39.99939%,39.99939%);fill-opacity:1;stroke-width:0.03;stroke-linecap:square;stroke-linejoin:miter;stroke:rgb(39.99939%,39.99939%,39.99939%);stroke-opacity:1;stroke-miterlimit:3.239307;" d="M 216.101562 281.238281 L 261.769531 284.425781 L 261.4375 296.773438 L 215.925781 293.773438 Z M 216.101562 281.238281 " transform="matrix(1,0,0,1,-74,-13)"/>
<path style="fill-rule:nonzero;fill:rgb(39.99939%,39.99939%,39.99939%);fill-opacity:1;stroke-width:0.03;stroke-linecap:square;stroke-linejoin:miter;stroke:rgb(39.99939%,39.99939%,39.99939%);stroke-opacity:1;stroke-miterlimit:3.239307;" d="M 215.890625 296.261719 L 261.363281 299.589844 L 260.996094 313.222656 L 215.671875 311.652344 Z M 215.890625 296.261719 " transform="matrix(1,0,0,1,-74,-13)"/>
<path style="fill-rule:nonzero;fill:rgb(39.99939%,39.99939%,39.99939%);fill-opacity:1;stroke-width:0.03;stroke-linecap:square;stroke-linejoin:miter;stroke:rgb(39.99939%,39.99939%,39.99939%);stroke-opacity:1;stroke-miterlimit:3.239307;" d="M 216.914062 266.628906 L 262.777344 269.699219 L 262.441406 282.28125 L 216.738281 279.191406 Z M 216.914062 266.628906 " transform="matrix(1,0,0,1,-74,-13)"/>
<path style="fill-rule:nonzero;fill:rgb(39.99939%,39.99939%,39.99939%);fill-opacity:1;stroke-width:0.03;stroke-linecap:square;stroke-linejoin:miter;stroke:rgb(39.99939%,39.99939%,39.99939%);stroke-opacity:1;stroke-miterlimit:3.239307;" d="M 216.148438 125.886719 L 261.808594 127.703125 L 261.488281 139.007812 L 216.351562 136.917969 Z M 216.148438 125.886719 " transform="matrix(1,0,0,1,-74,-13)"/>
<path style="fill-rule:nonzero;fill:rgb(39.99939%,39.99939%,39.99939%);fill-opacity:1;stroke-width:0.03;stroke-linecap:square;stroke-linejoin:miter;stroke:rgb(39.99939%,39.99939%,39.99939%);stroke-opacity:1;stroke-miterlimit:3.239307;" d="M 211.347656 191.222656 L 161.523438 189.367188 L 166.992188 178.429688 L 211.484375 180.121094 Z M 211.347656 191.222656 " transform="matrix(1,0,0,1,-74,-13)"/>
<path style="fill-rule:nonzero;fill:rgb(39.99939%,39.99939%,39.99939%);fill-opacity:1;stroke-width:0.03;stroke-linecap:square;stroke-linejoin:miter;stroke:rgb(39.99939%,39.99939%,39.99939%);stroke-opacity:1;stroke-miterlimit:3.239307;" d="M 174.324219 162.398438 L 211.324219 164.195312 L 211.636719 177.050781 L 167.800781 175.519531 Z M 174.324219 162.398438 " transform="matrix(1,0,0,1,-74,-13)"/>
<path style="fill-rule:nonzero;fill:rgb(39.99939%,39.99939%,39.99939%);fill-opacity:1;stroke-width:0.03;stroke-linecap:square;stroke-linejoin:miter;stroke:rgb(39.99939%,39.99939%,39.99939%);stroke-opacity:1;stroke-miterlimit:3.239307;" d="M 210.898438 211.445312 L 210.605469 222.652344 L 160.527344 218.621094 L 160.710938 211.113281 L 166.609375 208.480469 Z M 210.898438 211.445312 " transform="matrix(1,0,0,1,-74,-13)"/>
<path style="fill-rule:nonzero;fill:rgb(39.99939%,39.99939%,39.99939%);fill-opacity:1;stroke-width:0.03;stroke-linecap:square;stroke-linejoin:miter;stroke:rgb(39.99939%,39.99939%,39.99939%);stroke-opacity:1;stroke-miterlimit:3.239307;" d="M 211.089844 195.457031 L 211.277344 208.3125 L 160.292969 204.835938 L 157.097656 209.113281 L 155.230469 223.464844 L 153.03125 225.839844 L 145.097656 225.691406 L 159.96875 192.640625 Z M 211.089844 195.457031 " transform="matrix(1,0,0,1,-74,-13)"/>
<path style="fill-rule:nonzero;fill:rgb(39.99939%,39.99939%,39.99939%);fill-opacity:1;stroke-width:0.03;stroke-linecap:square;stroke-linejoin:miter;stroke:rgb(39.99939%,39.99939%,39.99939%);stroke-opacity:1;stroke-miterlimit:3.239307;" d="M 211.867188 225.488281 L 211.507812 236.394531 L 162.253906 232.984375 L 162.601562 227.082031 L 165.214844 227 L 165.925781 221.867188 Z M 211.867188 225.488281 " transform="matrix(1,0,0,1,-74,-13)"/>
<path style="fill-rule:nonzero;fill:rgb(39.99939%,39.99939%,39.99939%);fill-opacity:1;stroke-width:0.03;stroke-linecap:square;stroke-linejoin:miter;stroke:rgb(39.99939%,39.99939%,39.99939%);stroke-opacity:1;stroke-miterlimit:3.239307;" d="M 162.152344 236.082031 L 210.488281 239.316406 L 210.378906 249.867188 L 162.230469 246.03125 Z M 162.152344 236.082031 " transform="matrix(1,0,0,1,-74,-13)"/>
<path style="fill-rule:nonzero;fill:rgb(39.99939%,39.99939%,39.99939%);fill-opacity:1;stroke-width:0.03;stroke-linecap:square;stroke-linejoin:miter;stroke:rgb(39.99939%,39.99939%,39.99939%);stroke-opacity:1;stroke-miterlimit:3.239307;" d="M 162.652344 249.332031 L 210.78125 253.28125 L 210.6875 263.878906 L 162.546875 260.75 Z M 162.652344 249.332031 " transform="matrix(1,0,0,1,-74,-13)"/>
<path style="fill-rule:nonzero;fill:rgb(39.99939%,39.99939%,39.99939%);fill-opacity:1;stroke-width:0.03;stroke-linecap:square;stroke-linejoin:miter;stroke:rgb(39.99939%,39.99939%,39.99939%);stroke-opacity:1;stroke-miterlimit:3.239307;" d="M 144.792969 121.421875 L 212.339844 123.574219 L 212.15625 137.585938 L 139.914062 136.789062 Z M 144.792969 121.421875 " transform="matrix(1,0,0,1,-74,-13)"/>
<path style="fill-rule:nonzero;fill:rgb(39.99939%,39.99939%,39.99939%);fill-opacity:1;stroke-width:0.03;stroke-linecap:square;stroke-linejoin:miter;stroke:rgb(39.99939%,39.99939%,39.99939%);stroke-opacity:1;stroke-miterlimit:3.239307;" d="M 161.046875 293.699219 L 211.035156 295.824219 L 211.175781 307.296875 L 161.15625 304.339844 Z M 161.046875 293.699219 " transform="matrix(1,0,0,1,-74,-13)"/>
<path style="fill-rule:nonzero;fill:rgb(39.99939%,39.99939%,39.99939%);fill-opacity:1;stroke-width:0.03;stroke-linecap:square;stroke-linejoin:miter;stroke:rgb(39.99939%,39.99939%,39.99939%);stroke-opacity:1;stroke-miterlimit:3.239307;" d="M 161.1875 307.175781 L 210.695312 309.925781 L 210.492188 321.570312 L 161.296875 318.066406 Z M 161.1875 307.175781 " transform="matrix(1,0,0,1,-74,-13)"/>
<path style="fill-rule:nonzero;fill:rgb(39.99939%,39.99939%,39.99939%);fill-opacity:1;stroke-width:0.03;stroke-linecap:square;stroke-linejoin:miter;stroke:rgb(39.99939%,39.99939%,39.99939%);stroke-opacity:1;stroke-miterlimit:3.239307;" d="M 160.894531 279.019531 L 210.851562 280.953125 L 211.011719 293.976562 L 161.027344 291.851562 Z M 160.894531 279.019531 " transform="matrix(1,0,0,1,-74,-13)"/>
<path style="fill-rule:nonzero;fill:rgb(39.99939%,39.99939%,39.99939%);fill-opacity:1;stroke-width:0.03;stroke-linecap:square;stroke-linejoin:miter;stroke:rgb(39.99939%,39.99939%,39.99939%);stroke-opacity:1;stroke-miterlimit:3.239307;" d="M 160.738281 264.195312 L 210.679688 267.101562 L 210.828125 279.121094 L 160.867188 276.683594 Z M 160.738281 264.195312 " transform="matrix(1,0,0,1,-74,-13)"/>
<path style="fill-rule:nonzero;fill:rgb(39.99939%,39.99939%,39.99939%);fill-opacity:1;stroke-width:0.03;stroke-linecap:square;stroke-linejoin:miter;stroke:rgb(39.99939%,39.99939%,39.99939%);stroke-opacity:1;stroke-miterlimit:3.239307;" d="M 145.097656 244.34375 L 157.089844 244.925781 L 157.386719 259.636719 L 130.144531 258.941406 Z M 145.097656 244.34375 " transform="matrix(1,0,0,1,-74,-13)"/>
<path style="fill-rule:nonzero;fill:rgb(39.99939%,39.99939%,39.99939%);fill-opacity:1;stroke-width:0.03;stroke-linecap:square;stroke-linejoin:miter;stroke:rgb(39.99939%,39.99939%,39.99939%);stroke-opacity:1;stroke-miterlimit:3.239307;" d="M 126.242188 281.699219 L 157.472656 281.953125 L 157.5625 293.746094 L 132.371094 293.609375 Z M 126.242188 281.699219 " transform="matrix(1,0,0,1,-74,-13)"/>
<path style="fill-rule:nonzero;fill:rgb(39.99939%,39.99939%,39.99939%);fill-opacity:1;stroke-width:0.03;stroke-linecap:square;stroke-linejoin:miter;stroke:rgb(39.99939%,39.99939%,39.99939%);stroke-opacity:1;stroke-miterlimit:3.239307;" d="M 157.652344 298.300781 L 158 315.769531 L 136.976562 298.417969 Z M 157.652344 298.300781 " transform="matrix(1,0,0,1,-74,-13)"/>
<path style="fill-rule:nonzero;fill:rgb(39.99939%,39.99939%,39.99939%);fill-opacity:1;stroke-width:0.03;stroke-linecap:square;stroke-linejoin:miter;stroke:rgb(39.99939%,39.99939%,39.99939%);stroke-opacity:1;stroke-miterlimit:3.239307;" d="M 127.925781 263.085938 L 156.964844 263.945312 L 157.253906 278.226562 L 125.429688 278.066406 Z M 127.925781 263.085938 " transform="matrix(1,0,0,1,-74,-13)"/>
<path style="fill-rule:nonzero;fill:rgb(39.99939%,39.99939%,39.99939%);fill-opacity:1;stroke-width:0.03;stroke-linecap:square;stroke-linejoin:miter;stroke:rgb(39.99939%,39.99939%,39.99939%);stroke-opacity:1;stroke-miterlimit:3.239307;" d="M 135.292969 147.140625 L 146.949219 150.921875 L 145.617188 155.164062 L 143.804688 154.613281 L 144.179688 153.40625 L 139.382812 151.988281 L 138.113281 156.035156 L 142.984375 157.453125 L 143.371094 156.140625 L 145.136719 156.691406 L 143.949219 160.480469 L 132.117188 157.101562 Z M 135.292969 147.140625 " transform="matrix(1,0,0,1,-74,-13)"/>
<path style="fill-rule:nonzero;fill:rgb(39.99939%,39.99939%,39.99939%);fill-opacity:1;stroke-width:0.03;stroke-linecap:square;stroke-linejoin:miter;stroke:rgb(39.99939%,39.99939%,39.99939%);stroke-opacity:1;stroke-miterlimit:3.239307;" d="M 296.722656 139.613281 L 314.289062 139.445312 L 314.1875 162.589844 Z M 296.722656 139.613281 " transform="matrix(1,0,0,1,-74,-13)"/>
<path style="fill-rule:nonzero;fill:rgb(39.99939%,39.99939%,39.99939%);fill-opacity:1;stroke-width:0.03;stroke-linecap:square;stroke-linejoin:miter;stroke:rgb(39.99939%,39.99939%,39.99939%);stroke-opacity:1;stroke-miterlimit:3.239307;" d="M 150.996094 184.3125 L 151.238281 183.707031 L 151.855469 183.957031 Z M 150.996094 184.3125 " transform="matrix(1,0,0,1,-74,-13)"/>
<path style="fill-rule:nonzero;fill:rgb(39.99939%,39.99939%,39.99939%);fill-opacity:1;stroke-width:0.03;stroke-linecap:square;stroke-linejoin:miter;stroke:rgb(39.99939%,39.99939%,39.99939%);stroke-opacity:1;stroke-miterlimit:3.239307;" d="M 153.289062 183.363281 L 154.367188 180.6875 L 152.707031 180.042969 L 153.453125 178.171875 L 155.113281 178.835938 L 155.964844 176.71875 L 159.628906 178.074219 L 158.339844 181.277344 Z M 153.289062 183.363281 " transform="matrix(1,0,0,1,-74,-13)"/>
<path style="fill-rule:nonzero;fill:rgb(39.99939%,39.99939%,39.99939%);fill-opacity:1;stroke-width:0.03;stroke-linecap:square;stroke-linejoin:miter;stroke:rgb(39.99939%,39.99939%,39.99939%);stroke-opacity:1;stroke-miterlimit:3.239307;" d="M 148.796875 158.347656 L 160.449219 162.128906 L 159.117188 166.371094 L 157.304688 165.820312 L 157.679688 164.613281 L 152.882812 163.195312 L 151.613281 167.242188 L 156.484375 168.65625 L 156.871094 167.347656 L 158.640625 167.898438 L 157.449219 171.6875 L 145.617188 168.308594 Z M 148.796875 158.347656 " transform="matrix(1,0,0,1,-74,-13)"/>
<path style="fill-rule:nonzero;fill:rgb(39.99939%,39.99939%,39.99939%);fill-opacity:1;stroke-width:0.03;stroke-linecap:square;stroke-linejoin:miter;stroke:rgb(39.99939%,39.99939%,39.99939%);stroke-opacity:1;stroke-miterlimit:3.239307;" d="M 131.410156 159.636719 L 143.066406 163.414062 L 141.734375 167.65625 L 139.921875 167.105469 L 140.296875 165.898438 L 135.5 164.484375 L 134.226562 168.53125 L 139.101562 169.945312 L 139.488281 168.632812 L 141.253906 169.1875 L 140.066406 172.972656 L 128.234375 169.597656 Z M 131.410156 159.636719 " transform="matrix(1,0,0,1,-74,-13)"/>
<path style="fill-rule:nonzero;fill:rgb(39.99939%,39.99939%,39.99939%);fill-opacity:1;stroke-width:0.03;stroke-linecap:square;stroke-linejoin:miter;stroke:rgb(39.99939%,39.99939%,39.99939%);stroke-opacity:1;stroke-miterlimit:3.239307;" d="M 216.261719 116.65625 L 261.960938 118.550781 L 261.972656 125.15625 L 216.304688 123.507812 Z M 216.261719 116.65625 " transform="matrix(1,0,0,1,-74,-13)"/>
<path style="fill-rule:nonzero;fill:rgb(39.99939%,39.99939%,39.99939%);fill-opacity:1;stroke-width:0.03;stroke-linecap:square;stroke-linejoin:miter;stroke:rgb(39.99939%,39.99939%,39.99939%);stroke-opacity:1;stroke-miterlimit:3.239307;" d="M 238.589844 99.40625 L 252.527344 107.855469 L 262.261719 115.039062 L 236.480469 113.527344 Z M 238.589844 99.40625 " transform="matrix(1,0,0,1,-74,-13)"/>
<path style="fill-rule:nonzero;fill:rgb(39.99939%,39.99939%,39.99939%);fill-opacity:1;stroke-width:0.03;stroke-linecap:square;stroke-linejoin:miter;stroke:rgb(39.99939%,39.99939%,39.99939%);stroke-opacity:1;stroke-miterlimit:3.239307;" d="M 224.921875 93.1875 L 232.578125 96.628906 L 230.277344 113.519531 L 216.507812 112.585938 L 218.605469 98.742188 L 222.21875 98.851562 Z M 224.921875 93.1875 " transform="matrix(1,0,0,1,-74,-13)"/>
<path style="fill-rule:nonzero;fill:rgb(39.99939%,39.99939%,39.99939%);fill-opacity:1;stroke-width:0.03;stroke-linecap:square;stroke-linejoin:miter;stroke:rgb(39.99939%,39.99939%,39.99939%);stroke-opacity:1;stroke-miterlimit:3.239307;" d="M 150.09375 107.179688 L 212.527344 111.785156 L 211.925781 120.769531 L 146.292969 118.539062 L 148.199219 112.199219 Z M 150.09375 107.179688 " transform="matrix(1,0,0,1,-74,-13)"/>
<path style="fill-rule:nonzero;fill:rgb(39.99939%,39.99939%,39.99939%);fill-opacity:1;stroke-width:0.03;stroke-linecap:square;stroke-linejoin:miter;stroke:rgb(39.99939%,39.99939%,39.99939%);stroke-opacity:1;stroke-miterlimit:3.239307;" d="M 155.632812 94.390625 L 214.273438 99.125 L 212.734375 109.292969 L 151.09375 104.671875 Z M 155.632812 94.390625 " transform="matrix(1,0,0,1,-74,-13)"/>
<path style="fill-rule:nonzero;fill:rgb(39.99939%,39.99939%,39.99939%);fill-opacity:1;stroke-width:0.03;stroke-linecap:square;stroke-linejoin:miter;stroke:rgb(39.99939%,39.99939%,39.99939%);stroke-opacity:1;stroke-miterlimit:3.239307;" d="M 161.625 80.769531 L 207.996094 85.136719 L 217.28125 90.019531 L 214.828125 97.015625 L 156.535156 92.125 Z M 161.625 80.769531 " transform="matrix(1,0,0,1,-74,-13)"/>
<path style="fill-rule:nonzero;fill:rgb(39.99939%,39.99939%,39.99939%);fill-opacity:1;stroke-width:0.03;stroke-linecap:square;stroke-linejoin:miter;stroke:rgb(39.99939%,39.99939%,39.99939%);stroke-opacity:1;stroke-miterlimit:3.239307;" d="M 169.730469 64.429688 L 202.863281 81.183594 L 163.863281 77.382812 Z M 169.730469 64.429688 " transform="matrix(1,0,0,1,-74,-13)"/>
<path style="fill-rule:nonzero;fill:rgb(39.99939%,39.99939%,39.99939%);fill-opacity:1;stroke-width:0.03;stroke-linecap:square;stroke-linejoin:miter;stroke:rgb(39.99939%,39.99939%,39.99939%);stroke-opacity:1;stroke-miterlimit:3.239307;" d="M 139.101562 138.4375 L 211.902344 139.847656 L 211.832031 159.078125 L 167.03125 157.375 Z M 139.101562 138.4375 " transform="matrix(1,0,0,1,-74,-13)"/>
<path style="fill-rule:nonzero;fill:rgb(39.99939%,39.99939%,39.99939%);fill-opacity:1;stroke-width:0.03;stroke-linecap:square;stroke-linejoin:miter;stroke:rgb(39.99939%,39.99939%,39.99939%);stroke-opacity:1;stroke-miterlimit:3.239307;" d="M 144.835938 228.839844 L 157.992188 229.539062 L 157.339844 241.796875 L 147.046875 241.363281 Z M 144.835938 228.839844 " transform="matrix(1,0,0,1,-74,-13)"/>
<path style=" stroke:none;fill-rule:evenodd;fill:rgb(85.096741%,85.096741%,81.959534%);fill-opacity:0.7;" d="M 347.992188 184 C 347.992188 179.230469 346.09375 174.652344 342.722656 171.277344 C 339.347656 167.90625 334.769531 166.007812 330 166.007812 C 325.230469 166.007812 320.652344 167.90625 317.277344 171.277344 C 313.90625 174.652344 312.007812 179.230469 312.007812 184 C 312.007812 188.769531 313.90625 193.347656 317.277344 196.722656 C 320.652344 200.09375 325.230469 201.992188 330 201.992188 C 334.769531 201.992188 339.347656 200.09375 342.722656 196.722656 C 346.09375 193.347656 347.992188 188.769531 347.992188 184 Z M 347.992188 184 "/>
</g>
</svg>
