<?xml version="1.0" encoding="UTF-8"?>
<svg xmlns="http://www.w3.org/2000/svg" xmlns:xlink="http://www.w3.org/1999/xlink" width="361pt" height="361pt" viewBox="0 0 361 361" version="1.1">
<defs>
<clipPath id="clip1">
  <path d="M 71 218 L 195 218 L 195 360 L 71 360 Z M 71 218 "/>
</clipPath>
<clipPath id="clip2">
  <path d="M 103 319 L 134 319 L 134 360 L 103 360 Z M 103 319 "/>
</clipPath>
<clipPath id="clip3">
  <path d="M 93 354 L 124 354 L 124 360 L 93 360 Z M 93 354 "/>
</clipPath>
<clipPath id="clip4">
  <path d="M 0 0 L 121 0 L 121 360 L 0 360 Z M 0 0 "/>
</clipPath>
<clipPath id="clip5">
  <path d="M 0 345 L 58 345 L 58 360 L 0 360 Z M 0 345 "/>
</clipPath>
<clipPath id="clip6">
  <path d="M 13 301 L 67 301 L 67 360 L 13 360 Z M 13 301 "/>
</clipPath>
<clipPath id="clip7">
  <path d="M 62 320 L 99 320 L 99 360 L 62 360 Z M 62 320 "/>
</clipPath>
<clipPath id="clip8">
  <path d="M 0 352 L 85 352 L 85 360 L 0 360 Z M 0 352 "/>
</clipPath>
<clipPath id="clip9">
  <path d="M 0 350 L 4 350 L 4 360 L 0 360 Z M 0 350 "/>
</clipPath>
<clipPath id="clip10">
  <path d="M 7 358 L 41 358 L 41 360 L 7 360 Z M 7 358 "/>
</clipPath>
</defs>
<g id="surface4319">
<path style="fill-rule:nonzero;fill:rgb(0%,0%,0%);fill-opacity:1;stroke-width:0.03;stroke-linecap:square;stroke-linejoin:miter;stroke:rgb(0%,0%,0%);stroke-opacity:1;stroke-miterlimit:10;" d="M 0 178 L 360 178 L 360 -182 L 0 -182 Z M 0 178 " transform="matrix(1,0,0,1,0,182)"/>
<path style=" stroke:none;fill-rule:nonzero;fill:rgb(39.99939%,39.99939%,39.99939%);fill-opacity:0.3;" d="M 159.894531 213.597656 L 167.066406 228.308594 L 155.277344 233.464844 L 149.671875 221.972656 L 143.414062 224.710938 L 136.578125 210.6875 L 142.835938 207.945312 L 137.238281 196.445312 L 149.03125 191.285156 L 156.195312 206.003906 L 150.988281 208.28125 L 154.6875 215.875 Z M 159.894531 213.597656 "/>
<path style=" stroke:none;fill-rule:nonzero;fill:rgb(39.99939%,39.99939%,39.99939%);fill-opacity:0.3;" d="M 159.429688 204.722656 L 152.265625 190.003906 L 164.058594 184.839844 L 169.65625 196.34375 L 175.914062 193.605469 L 182.746094 207.632812 L 176.488281 210.371094 L 182.089844 221.867188 L 170.300781 227.027344 L 163.128906 212.316406 L 168.332031 210.039062 L 164.632812 202.445312 Z M 159.429688 204.722656 "/>
<path style=" stroke:none;fill-rule:nonzero;fill:rgb(39.99939%,39.99939%,39.99939%);fill-opacity:0.3;" d="M 120.886719 218.984375 L 155.042969 131.550781 L 176.308594 77.117188 L 245.117188 98.5 L 248.765625 105.871094 L 211.617188 206.359375 L 194.992188 251.691406 Z M 120.886719 218.984375 "/>
<path style=" stroke:none;fill-rule:nonzero;fill:rgb(39.99939%,39.99939%,39.99939%);fill-opacity:0.3;" d="M 190.460938 264.046875 L 183.355469 283.421875 L 172.535156 308.570312 Z M 190.460938 264.046875 "/>
<path style=" stroke:none;fill-rule:nonzero;fill:rgb(39.99939%,39.99939%,39.99939%);fill-opacity:0.3;" d="M 181.386719 148.988281 L 174.230469 134.261719 L 186.03125 129.097656 L 191.621094 140.605469 L 197.882812 137.867188 L 204.703125 151.90625 L 198.441406 154.648438 L 204.035156 166.152344 L 192.238281 171.316406 L 185.078125 156.589844 L 190.285156 154.3125 L 186.59375 146.710938 Z M 181.386719 148.988281 "/>
<path style=" stroke:none;fill-rule:nonzero;fill:rgb(39.99939%,39.99939%,39.99939%);fill-opacity:0.3;" d="M 181.84375 157.871094 L 189 172.597656 L 177.207031 177.757812 L 171.613281 166.253906 L 165.351562 168.996094 L 158.527344 154.957031 L 164.789062 152.214844 L 159.199219 140.707031 L 170.996094 135.542969 L 178.148438 150.273438 L 172.941406 152.550781 L 176.636719 160.152344 Z M 181.84375 157.871094 "/>
<path style=" stroke:none;fill-rule:nonzero;fill:rgb(39.99939%,39.99939%,39.99939%);fill-opacity:0.3;" d="M 81.433594 112.347656 L 141 132.449219 L 163.296875 73.054688 L 174.019531 76.6875 L 120.210938 218.6875 L 83.15625 202.332031 L 51.429688 192.269531 L 75.417969 125.71875 Z M 81.433594 112.347656 "/>
<path style=" stroke:none;fill-rule:nonzero;fill:rgb(39.99939%,39.99939%,39.99939%);fill-opacity:0.3;" d="M 115.8125 51.429688 L 115.171875 52.953125 L 113.863281 52.511719 Z M 115.8125 51.429688 "/>
<path style=" stroke:none;fill-rule:nonzero;fill:rgb(39.99939%,39.99939%,39.99939%);fill-opacity:0.3;" d="M 133.953125 63.902344 L 158.8125 71.820312 L 139.183594 127.328125 L 114.328125 119.410156 Z M 133.953125 63.902344 "/>
<path style=" stroke:none;fill-rule:nonzero;fill:rgb(39.99939%,39.99939%,39.99939%);fill-opacity:0.3;" d="M 108.15625 55.679688 L 130.304688 62.738281 L 110.683594 118.25 L 85.136719 110.113281 L 103.449219 58.296875 Z M 108.15625 55.679688 "/>
<path style=" stroke:none;fill-rule:nonzero;fill:rgb(39.99939%,39.99939%,39.99939%);fill-opacity:0.3;" d="M 230.960938 88.515625 L 228.410156 88.636719 L 225.402344 88.433594 L 119.769531 54.78125 L 121.007812 51.777344 L 138.101562 56.84375 L 164.414062 64.582031 Z M 230.960938 88.515625 "/>
<path style=" stroke:none;fill-rule:nonzero;fill:rgb(39.99939%,39.99939%,39.99939%);fill-opacity:0.3;" d="M 136.0625 161.050781 L 116.472656 217.035156 L 102.269531 210.765625 L 123.261719 156.480469 Z M 136.0625 161.050781 "/>
<path style=" stroke:none;fill-rule:nonzero;fill:rgb(39.99939%,39.99939%,39.99939%);fill-opacity:0.3;" d="M 81.011719 114.773438 L 93.125 118.820312 L 73.496094 170.59375 L 61.019531 166.117188 Z M 81.011719 114.773438 "/>
<g clip-path="url(#clip1)" clip-rule="nonzero">
<path style=" stroke:none;fill-rule:nonzero;fill:rgb(39.99939%,39.99939%,39.99939%);fill-opacity:0.3;" d="M 82.292969 383.144531 L 103.910156 324.367188 L 104.269531 323.390625 L 120.992188 277.925781 L 100.730469 270.574219 L 120.886719 218.984375 L 194.992188 251.691406 L 190.460938 264.046875 L 172.535156 308.570312 L 143.261719 376.613281 L 104.914062 474.226562 L 71.214844 460.101562 Z M 82.292969 383.144531 "/>
</g>
<path style=" stroke:none;fill-rule:nonzero;fill:rgb(39.99939%,39.99939%,39.99939%);fill-opacity:0.3;" d="M 134.488281 261.105469 L 141.699219 275.785156 L 129.929688 280.9375 L 124.289062 269.46875 L 118.039062 272.203125 L 111.171875 258.203125 L 117.421875 255.464844 L 111.804688 243.980469 L 123.585938 238.824219 L 130.773438 253.523438 L 125.574219 255.800781 L 129.289062 263.378906 Z M 134.488281 261.105469 "/>
<path style=" stroke:none;fill-rule:nonzero;fill:rgb(39.99939%,39.99939%,39.99939%);fill-opacity:0.3;" d="M 134.007812 252.242188 L 126.820312 237.542969 L 138.605469 232.382812 L 144.21875 243.871094 L 150.472656 241.132812 L 157.324219 255.144531 L 151.074219 257.882812 L 156.707031 269.355469 L 144.929688 274.507812 L 137.71875 259.824219 L 142.917969 257.546875 L 139.207031 249.964844 Z M 134.007812 252.242188 "/>
<path style=" stroke:none;fill-rule:nonzero;fill:rgb(39.99939%,39.99939%,39.99939%);fill-opacity:0.3;" d="M 121.035156 305.855469 L 116.21875 295.410156 L 128.507812 290.191406 L 133.324219 300.644531 Z M 121.035156 305.855469 "/>
<path style=" stroke:none;fill-rule:nonzero;fill:rgb(39.99939%,39.99939%,39.99939%);fill-opacity:0.3;" d="M 130.359375 325.902344 L 125.523438 315.46875 L 137.808594 310.257812 L 142.644531 320.695312 Z M 130.359375 325.902344 "/>
<g clip-path="url(#clip2)" clip-rule="nonzero">
<path style=" stroke:none;fill-rule:nonzero;fill:rgb(39.99939%,39.99939%,39.99939%);fill-opacity:0.3;" d="M 126.613281 341.5625 L 133.707031 356.308594 L 121.894531 361.480469 L 116.351562 349.957031 L 110.085938 352.703125 L 103.332031 338.640625 L 109.597656 335.894531 L 104.953125 324.71875 L 115.878906 319.1875 L 122.957031 333.949219 L 117.746094 336.230469 L 121.402344 343.84375 Z M 126.613281 341.5625 "/>
</g>
<g clip-path="url(#clip3)" clip-rule="nonzero">
<path style=" stroke:none;fill-rule:nonzero;fill:rgb(39.99939%,39.99939%,39.99939%);fill-opacity:0.3;" d="M 100.644531 374.4375 L 93.550781 359.695312 L 105.363281 354.523438 L 110.902344 366.046875 L 117.171875 363.300781 L 123.933594 377.355469 L 117.667969 380.097656 L 123.214844 391.609375 L 111.402344 396.777344 L 104.304688 382.042969 L 109.515625 379.761719 L 105.855469 372.15625 Z M 100.644531 374.4375 "/>
</g>
<g clip-path="url(#clip4)" clip-rule="nonzero">
<path style=" stroke:none;fill-rule:nonzero;fill:rgb(39.99939%,39.99939%,39.99939%);fill-opacity:0.3;" d="M 9.726562 356.875 L 32.054688 300.308594 L 28.679688 299.140625 L 25.300781 297.972656 L 3.730469 354.875 L 1.128906 354.007812 L -8.933594 350.910156 L -14.140625 365.191406 L -23.335938 361.785156 L -25.808594 368.511719 L -28.285156 375.238281 L -18.988281 378.496094 L -33.535156 418.398438 L -303.078125 313.425781 L -302.617188 312.078125 L -154.789062 -29.636719 L 42.140625 37.496094 L 42.757812 37.707031 L 23.175781 93.710938 L 69.433594 108.296875 L 81.433594 112.347656 L 75.417969 125.71875 L 51.429688 192.269531 L 83.15625 202.332031 L 120.210938 218.6875 L 100.515625 270.664062 L 120.746094 277.988281 L 82.652344 380.652344 L 84.703125 366.390625 L 46.011719 352.460938 L 40.59375 367.164062 Z M 9.726562 356.875 "/>
</g>
<path style=" stroke:none;fill-rule:nonzero;fill:rgb(39.99939%,39.99939%,39.99939%);fill-opacity:0.3;" d="M 70.25 47.09375 L 51.746094 99.472656 L 26.332031 91.378906 L 45.015625 38.476562 Z M 70.25 47.09375 "/>
<path style=" stroke:none;fill-rule:nonzero;fill:rgb(39.99939%,39.99939%,39.99939%);fill-opacity:0.3;" d="M 99.78125 57.195312 L 81.488281 108.949219 L 55.390625 100.636719 L 73.871094 48.332031 Z M 99.78125 57.195312 "/>
<g clip-path="url(#clip5)" clip-rule="nonzero">
<path style=" stroke:none;fill-rule:nonzero;fill:rgb(39.99939%,39.99939%,39.99939%);fill-opacity:0.3;" d="M 55.375 496.640625 L 56.308594 497.273438 L 57.105469 498.28125 L 57.503906 499.417969 L 57.542969 499.917969 L 57.46875 500.488281 L 57.269531 501.246094 L 56.90625 502.234375 L -52.042969 791.984375 L -52.847656 793.117188 L -53.777344 793.679688 L -55.066406 794.011719 L -56.355469 794.007812 L -57.53125 793.914062 L -128.25 761.769531 L -334.144531 665.828125 L -353.300781 655.8125 L -432.941406 615.621094 L -432.625 614.808594 L -313.136719 346.382812 L -311.84375 345.773438 Z M 55.375 496.640625 "/>
</g>
<path style=" stroke:none;fill-rule:nonzero;fill:rgb(39.99939%,39.99939%,39.99939%);fill-opacity:0.3;" d="M 5.730469 311.078125 L 17.84375 315.128906 L 2.914062 354.601562 L 1.128906 354.007812 L -8.933594 350.910156 L -9.023438 351.164062 L -9.53125 350.988281 Z M 5.730469 311.078125 "/>
<path style=" stroke:none;fill-rule:nonzero;fill:rgb(39.99939%,39.99939%,39.99939%);fill-opacity:0.3;" d="M -7.46875 306.820312 L 4.644531 310.871094 L -10.511719 350.941406 L -22.640625 346.554688 Z M -7.46875 306.820312 "/>
<path style=" stroke:none;fill-rule:nonzero;fill:rgb(39.99939%,39.99939%,39.99939%);fill-opacity:0.3;" d="M -0.515625 88.703125 L 11.597656 92.753906 L -58.152344 281.566406 L -70.628906 277.089844 Z M -0.515625 88.703125 "/>
<path style=" stroke:none;fill-rule:nonzero;fill:rgb(39.99939%,39.99939%,39.99939%);fill-opacity:0.3;" d="M 17.636719 95.003906 L 29.746094 99.050781 L -40 287.867188 L -52.480469 283.386719 Z M 17.636719 95.003906 "/>
<path style=" stroke:none;fill-rule:nonzero;fill:rgb(39.99939%,39.99939%,39.99939%);fill-opacity:0.3;" d="M 33.550781 99.785156 L 45.660156 103.832031 L 26.03125 155.605469 L 13.554688 151.125 Z M 33.550781 99.785156 "/>
<path style=" stroke:none;fill-rule:nonzero;fill:rgb(39.99939%,39.99939%,39.99939%);fill-opacity:0.3;" d="M 48.464844 104.808594 L 60.578125 108.855469 L 40.949219 160.628906 L 28.46875 156.152344 Z M 48.464844 104.808594 "/>
<path style=" stroke:none;fill-rule:nonzero;fill:rgb(39.99939%,39.99939%,39.99939%);fill-opacity:0.3;" d="M 64.195312 109.652344 L 76.304688 113.703125 L 56.675781 165.472656 L 44.199219 160.996094 Z M 64.195312 109.652344 "/>
<path style=" stroke:none;fill-rule:nonzero;fill:rgb(39.99939%,39.99939%,39.99939%);fill-opacity:0.3;" d="M 116.472656 217.035156 L 97.765625 270.480469 L 79.957031 265.320312 L 64.445312 260.429688 L 68.144531 250.105469 L 86.621094 255.28125 L 91.695312 240.546875 L 72.761719 235.390625 L 76.488281 225.371094 L 94.65625 230.445312 L 102.269531 210.765625 Z M 116.472656 217.035156 "/>
<path style=" stroke:none;fill-rule:nonzero;fill:rgb(39.99939%,39.99939%,39.99939%);fill-opacity:0.3;" d="M -22.988281 266.082031 L -9.5 227.238281 L 18.917969 236.050781 L 11.941406 255.03125 L -3.898438 250.183594 L -11.246094 270.125 Z M -22.988281 266.082031 "/>
<g clip-path="url(#clip6)" clip-rule="nonzero">
<path style=" stroke:none;fill-rule:nonzero;fill:rgb(39.99939%,39.99939%,39.99939%);fill-opacity:0.3;" d="M 63.378906 322.28125 L 60.46875 321.171875 L 56.691406 329.675781 L 59.601562 330.785156 L 56.894531 337.199219 L 53.984375 336.09375 L 52.546875 339.5 L 44.0625 336.277344 L 45.496094 332.875 L 38.199219 329.910156 L 34.210938 338.121094 L 37.0625 339.203125 L 34.355469 345.621094 L 31.441406 344.511719 L 27.625 352.734375 L 30.535156 353.84375 L 27.832031 360.257812 L 24.917969 359.152344 L 23.84375 361.578125 L 15.207031 358.699219 L 16.433594 355.929688 L 13.515625 354.785156 L 16.242188 348.320312 L 19.140625 349.515625 L 22.957031 341.292969 L 20.042969 340.148438 L 22.769531 333.683594 L 25.664062 334.878906 L 29.578125 326.636719 L 26.660156 325.492188 L 29.386719 319.027344 L 32.28125 320.222656 L 36.0625 311.714844 L 33.144531 310.570312 L 35.871094 304.105469 L 38.769531 305.300781 L 40.203125 301.894531 L 48.691406 305.113281 L 47.253906 308.519531 L 50.164062 309.625 L 51.792969 310.339844 L 54.691406 311.535156 L 56.125 308.132812 L 64.609375 311.351562 L 63.175781 314.753906 L 66.085938 315.863281 Z M 63.378906 322.28125 "/>
</g>
<g clip-path="url(#clip7)" clip-rule="nonzero">
<path style=" stroke:none;fill-rule:nonzero;fill:rgb(39.99939%,39.99939%,39.99939%);fill-opacity:0.3;" d="M 96.917969 331.941406 L 94.515625 331.160156 L 91.738281 338.464844 L 94.144531 339.246094 L 92.238281 344.542969 L 89.832031 343.761719 L 87.152344 350.792969 L 89.554688 351.574219 L 87.648438 356.871094 L 85.246094 356.089844 L 82.605469 363.171875 L 85.011719 363.953125 L 84.199219 366.207031 L 72.507812 361.996094 L 73.207031 360.054688 L 75.601562 360.90625 L 78.238281 353.824219 L 72.09375 351.675781 L 71.082031 354.488281 L 64.074219 352.222656 L 65.085938 349.410156 L 62.675781 348.597656 L 64.597656 343.261719 L 66.992188 344.113281 L 69.675781 337.082031 L 67.265625 336.269531 L 69.183594 330.933594 L 71.582031 331.785156 L 72.59375 328.972656 L 79.597656 331.242188 L 78.585938 334.050781 L 84.734375 336.199219 L 87.507812 328.894531 L 85.101562 328.082031 L 87.019531 322.742188 L 89.414062 323.59375 L 90.425781 320.785156 L 97.433594 323.050781 L 96.421875 325.863281 L 98.824219 326.644531 Z M 96.917969 331.941406 "/>
</g>
<g clip-path="url(#clip8)" clip-rule="nonzero">
<path style=" stroke:none;fill-rule:nonzero;fill:rgb(39.99939%,39.99939%,39.99939%);fill-opacity:0.3;" d="M 60.398438 381.089844 L 34.527344 444.664062 L -16.96875 424.488281 L 9.726562 356.875 L 40.59375 367.164062 L 46.011719 352.460938 L 84.703125 366.390625 L 82.652344 380.652344 L 80.023438 387.730469 Z M 60.398438 381.089844 "/>
</g>
<g clip-path="url(#clip9)" clip-rule="nonzero">
<path style=" stroke:none;fill-rule:nonzero;fill:rgb(39.99939%,39.99939%,39.99939%);fill-opacity:0.3;" d="M 3.730469 354.875 L -1.902344 369.722656 L -14.140625 365.191406 L -8.933594 350.910156 L 1.128906 354.007812 Z M 3.730469 354.875 "/>
</g>
<path style=" stroke:none;fill-rule:nonzero;fill:rgb(39.99939%,39.99939%,39.99939%);fill-opacity:0.3;" d="M 2.914062 354.601562 L 2.691406 355.199219 L -9.023438 351.164062 L -8.933594 350.910156 L 1.128906 354.007812 Z M 2.914062 354.601562 "/>
<g clip-path="url(#clip10)" clip-rule="nonzero">
<path style=" stroke:none;fill-rule:nonzero;fill:rgb(39.99939%,39.99939%,39.99939%);fill-opacity:0.3;" d="M 23.84375 361.578125 L 21.128906 367.726562 L 28.859375 370.585938 L 30.296875 367.183594 L 38.78125 370.402344 L 37.34375 373.808594 L 40.257812 374.914062 L 37.550781 381.332031 L 34.636719 380.222656 L 33.203125 383.628906 L 24.71875 380.410156 L 26.152344 377.003906 L 18.421875 374.140625 L 16.984375 377.546875 L 8.5 374.328125 L 9.9375 370.921875 L 7.019531 369.773438 L 9.746094 363.308594 L 12.644531 364.507812 L 15.207031 358.699219 Z M 23.84375 361.578125 "/>
</g>
<path style=" stroke:none;fill-rule:nonzero;fill:rgb(39.99939%,39.99939%,39.99939%);fill-opacity:0.3;" d="M -154.789062 -29.636719 L -147.570312 -46.320312 L 46.761719 26.265625 L 42.757812 37.707031 L 42.140625 37.496094 Z M -154.789062 -29.636719 "/>
<path style=" stroke:none;fill-rule:nonzero;fill:rgb(39.99939%,39.99939%,39.99939%);fill-opacity:0.3;" d="M 116.269531 50.335938 L 115.8125 51.429688 L 113.863281 52.511719 L 55.839844 32.9375 L 58.039062 30.523438 L 59.941406 31.304688 Z M 116.269531 50.335938 "/>
<path style=" stroke:none;fill-rule:nonzero;fill:rgb(39.99939%,39.99939%,39.99939%);fill-opacity:0.3;" d="M 71.359375 43.953125 L 70.25 47.09375 L 45.015625 38.476562 L 45.941406 35.851562 Z M 71.359375 43.953125 "/>
<path style=" stroke:none;fill-rule:nonzero;fill:rgb(39.99939%,39.99939%,39.99939%);fill-opacity:0.3;" d="M 104.757812 54.597656 L 108.15625 55.679688 L 103.449219 58.296875 Z M 104.757812 54.597656 "/>
<path style=" stroke:none;fill-rule:nonzero;fill:rgb(39.99939%,39.99939%,39.99939%);fill-opacity:0.3;" d="M 101.109375 53.4375 L 99.78125 57.195312 L 73.871094 48.332031 L 75.007812 45.117188 Z M 101.109375 53.4375 "/>
<path style=" stroke:none;fill-rule:nonzero;fill:rgb(39.99939%,39.99939%,39.99939%);fill-opacity:0.3;" d="M 153.015625 -36.101562 L 136.503906 2.003906 L 116.269531 50.335938 L 59.941406 31.304688 L 63.128906 24.933594 L 63.65625 24.355469 L 66.738281 22.027344 L 94.765625 -20.269531 L 107.027344 -57.285156 L 108.695312 -60.78125 L 161.316406 -57.6875 Z M 153.015625 -36.101562 "/>
<path style=" stroke:none;fill-rule:nonzero;fill:rgb(39.99939%,39.99939%,39.99939%);fill-opacity:0.3;" d="M 69.6875 11.882812 L 69.605469 11.980469 L 69.660156 11.871094 Z M 69.6875 11.882812 "/>
<path style=" stroke:none;fill-rule:nonzero;fill:rgb(39.99939%,39.99939%,39.99939%);fill-opacity:0.3;" d="M 73.472656 5.03125 L 71.691406 7.855469 L 71.671875 7.847656 L 72.324219 6.542969 Z M 73.472656 5.03125 "/>
<path style=" stroke:none;fill-rule:nonzero;fill:rgb(39.99939%,39.99939%,39.99939%);fill-opacity:0.3;" d="M 94.742188 5.058594 L 99.613281 18.277344 L 94.976562 19.820312 L 93.882812 16.84375 L 90.757812 17.882812 L 91.855469 20.859375 L 87.464844 22.320312 L 88.25 24.445312 L 85.113281 25.488281 L 86.207031 28.453125 L 89.339844 27.410156 L 90.046875 29.328125 L 94.433594 27.871094 L 95.53125 30.847656 L 98.652344 29.808594 L 97.554688 26.832031 L 102.1875 25.289062 L 107.0625 38.507812 L 102.425781 40.050781 L 101.332031 37.074219 L 98.207031 38.113281 L 99.304688 41.089844 L 94.671875 42.628906 L 90.714844 31.894531 L 77.046875 36.441406 L 75.425781 32.042969 L 78.558594 31 L 77.464844 28.035156 L 74.332031 29.078125 L 72.710938 24.675781 L 86.382812 20.125 L 82.351562 9.183594 L 86.984375 7.640625 L 88.082031 10.617188 L 91.203125 9.578125 L 90.105469 6.601562 Z M 94.742188 5.058594 "/>
<path style=" stroke:none;fill-rule:nonzero;fill:rgb(39.99939%,39.99939%,39.99939%);fill-opacity:0.3;" d="M 133.105469 -0.914062 L 128.46875 0.628906 L 127.371094 -2.347656 L 124.25 -1.308594 L 125.347656 1.667969 L 120.710938 3.210938 L 116.648438 -7.820312 L 113.832031 -6.882812 L 112.734375 -9.859375 L 109.613281 -8.820312 L 110.707031 -5.84375 L 107.714844 -4.847656 L 111.835938 6.332031 L 107.203125 7.875 L 106.105469 4.898438 L 102.980469 5.9375 L 104.078125 8.914062 L 99.445312 10.457031 L 94.574219 -2.761719 L 99.207031 -4.304688 L 100.304688 -1.328125 L 103.425781 -2.367188 L 102.328125 -5.34375 L 105.324219 -6.339844 L 101.203125 -17.519531 L 105.835938 -19.0625 L 106.933594 -16.085938 L 110.058594 -17.125 L 108.960938 -20.101562 L 110.796875 -20.714844 L 109.1875 -25.074219 L 112.324219 -26.117188 L 111.230469 -29.082031 L 108.097656 -28.039062 L 106.476562 -32.441406 L 112.660156 -34.5 L 108.71875 -45.199219 L 113.355469 -46.742188 L 114.449219 -43.765625 L 117.574219 -44.804688 L 116.476562 -47.78125 L 121.113281 -49.324219 L 124.359375 -40.503906 L 138.285156 -45.136719 L 139.90625 -40.734375 L 136.769531 -39.691406 L 137.863281 -36.722656 L 140.996094 -37.765625 L 142.621094 -33.363281 L 128.699219 -28.734375 L 127.074219 -33.136719 L 130.210938 -34.179688 L 129.117188 -37.144531 L 121.347656 -34.558594 L 122.019531 -32.671875 L 118.882812 -31.628906 L 119.976562 -28.664062 L 123.109375 -29.707031 L 124.730469 -25.304688 L 113.59375 -21.644531 L 117.660156 -10.613281 L 120.476562 -11.550781 L 121.570312 -8.574219 L 124.695312 -9.613281 L 123.597656 -12.589844 L 128.234375 -14.132812 Z M 133.105469 -0.914062 "/>
<path style=" stroke:none;fill-rule:nonzero;fill:rgb(39.99939%,39.99939%,39.99939%);fill-opacity:0.3;" d="M 166.207031 -58.011719 L 295.691406 -39.175781 L 249.355469 80.777344 L 248.636719 81.648438 L 247.316406 83.003906 L 245.851562 84.222656 L 244.261719 85.285156 L 242.5625 86.1875 L 240.777344 86.914062 L 239.855469 87.210938 L 238.917969 87.460938 L 237.96875 87.664062 L 237.007812 87.820312 L 235.894531 88.042969 L 234.113281 88.222656 L 231.382812 88.496094 L 230.960938 88.515625 L 164.414062 64.582031 L 138.101562 56.84375 L 121.007812 51.777344 Z M 166.207031 -58.011719 "/>
<path style=" stroke:none;fill-rule:nonzero;fill:rgb(39.99939%,39.99939%,39.99939%);fill-opacity:0.3;" d="M 175.066406 -14.445312 L 166.746094 8.746094 L 159.078125 6.347656 L 160.144531 3.269531 L 158 2.601562 L 156.933594 5.675781 L 149.261719 3.277344 L 157.585938 -19.914062 L 165.253906 -17.515625 L 164.183594 -14.4375 L 166.328125 -13.769531 L 167.398438 -16.84375 Z M 175.066406 -14.445312 "/>
<path style=" stroke:none;fill-rule:nonzero;fill:rgb(39.99939%,39.99939%,39.99939%);fill-opacity:0.3;" d="M 166.410156 10.269531 L 158.292969 30.644531 L 150.625 28.246094 L 151.695312 25.171875 L 149.550781 24.5 L 148.480469 27.574219 L 140.8125 25.179688 L 148.929688 4.800781 L 156.597656 7.199219 L 155.53125 10.273438 L 157.675781 10.945312 L 158.742188 7.871094 Z M 166.410156 10.269531 "/>
<path style=" stroke:none;fill-rule:nonzero;fill:rgb(39.99939%,39.99939%,39.99939%);fill-opacity:0.3;" d="M 204.78125 -5.535156 L 196.765625 16.78125 L 189.09375 14.382812 L 190.164062 11.304688 L 188.019531 10.636719 L 186.949219 13.710938 L 179.28125 11.3125 L 187.296875 -11.003906 L 194.964844 -8.605469 L 193.898438 -5.527344 L 196.042969 -4.859375 L 197.109375 -7.933594 Z M 204.78125 -5.535156 "/>
<path style=" stroke:none;fill-rule:nonzero;fill:rgb(39.99939%,39.99939%,39.99939%);fill-opacity:0.3;" d="M 196.15625 17.785156 L 188.242188 40.777344 L 180.574219 38.378906 L 181.640625 35.304688 L 179.496094 34.632812 L 178.429688 37.710938 L 170.761719 35.3125 L 178.671875 12.316406 L 186.339844 14.714844 L 185.273438 17.789062 L 187.417969 18.460938 L 188.484375 15.386719 Z M 196.15625 17.785156 "/>
<path style=" stroke:none;fill-rule:nonzero;fill:rgb(39.99939%,39.99939%,39.99939%);fill-opacity:0.3;" d="M 242.867188 -19.582031 L 235.875 4.578125 L 228.203125 2.179688 L 229.273438 -0.898438 L 227.128906 -1.566406 L 226.058594 1.507812 L 218.386719 -0.890625 L 225.382812 -25.050781 L 233.050781 -22.652344 L 231.984375 -19.574219 L 234.128906 -18.90625 L 235.195312 -21.980469 Z M 242.867188 -19.582031 "/>
<path style=" stroke:none;fill-rule:nonzero;fill:rgb(39.99939%,39.99939%,39.99939%);fill-opacity:0.3;" d="M 235.449219 5.128906 L 227.023438 27.25 L 219.351562 24.851562 L 220.421875 21.777344 L 218.277344 21.105469 L 217.207031 24.183594 L 209.539062 21.785156 L 217.964844 -0.335938 L 225.632812 2.0625 L 224.566406 5.136719 L 226.710938 5.808594 L 227.777344 2.730469 Z M 235.449219 5.128906 "/>
<path style=" stroke:none;fill-rule:nonzero;fill:rgb(39.99939%,39.99939%,39.99939%);fill-opacity:0.3;" d="M 226.75 28.199219 L 218.324219 51.582031 L 210.652344 49.183594 L 211.722656 46.109375 L 209.578125 45.4375 L 208.507812 48.511719 L 200.839844 46.113281 L 209.261719 22.734375 L 216.933594 25.132812 L 215.863281 28.207031 L 218.011719 28.878906 L 219.078125 25.804688 Z M 226.75 28.199219 "/>
<path style=" stroke:none;fill-rule:nonzero;fill:rgb(39.99939%,39.99939%,39.99939%);fill-opacity:0.3;" d="M 58.039062 30.523438 L 63.128906 24.933594 L 59.941406 31.304688 Z M 58.039062 30.523438 "/>
<path style=" stroke:none;fill-rule:nonzero;fill:rgb(39.99939%,39.99939%,39.99939%);fill-opacity:0.3;" d="M -23.480469 -24.296875 L 33.609375 -1.914062 L 27.75 10.9375 L -6.140625 -1.832031 L -18.21875 -8.160156 L -28.796875 -11.6875 Z M -23.480469 -24.296875 "/>
<path style=" stroke:none;fill-rule:nonzero;fill:rgb(39.99939%,39.99939%,39.99939%);fill-opacity:0.3;" d="M 69.605469 11.980469 L 60.425781 23.140625 L 47.644531 20.28125 L 34.5625 15.523438 L 41.261719 0.535156 L 69.660156 11.871094 Z M 69.605469 11.980469 "/>
<path style=" stroke:none;fill-rule:nonzero;fill:rgb(39.99939%,39.99939%,39.99939%);fill-opacity:0.3;" d="M 79.527344 -4.546875 L 73.472656 5.03125 L 72.324219 6.542969 L 71.671875 7.847656 L 42.769531 -3.175781 L 48.566406 -16.152344 Z M 79.527344 -4.546875 "/>
<path style="fill-rule:nonzero;fill:rgb(39.99939%,39.99939%,39.99939%);fill-opacity:1;stroke-width:0.03;stroke-linecap:square;stroke-linejoin:miter;stroke:rgb(39.99939%,39.99939%,39.99939%);stroke-opacity:1;stroke-miterlimit:3.239307;" d="M 233.894531 226.597656 L 241.066406 241.308594 L 229.277344 246.464844 L 223.671875 234.972656 L 217.414062 237.710938 L 210.578125 223.6875 L 216.835938 220.945312 L 211.238281 209.445312 L 223.03125 204.285156 L 230.195312 219.003906 L 224.988281 221.28125 L 228.6875 228.875 Z M 233.894531 226.597656 " transform="matrix(1,0,0,1,-74,-13)"/>
<path style="fill-rule:nonzero;fill:rgb(39.99939%,39.99939%,39.99939%);fill-opacity:1;stroke-width:0.03;stroke-linecap:square;stroke-linejoin:miter;stroke:rgb(39.99939%,39.99939%,39.99939%);stroke-opacity:1;stroke-miterlimit:3.239307;" d="M 233.429688 217.722656 L 226.265625 203.003906 L 238.058594 197.839844 L 243.65625 209.34375 L 249.914062 206.605469 L 256.746094 220.632812 L 250.488281 223.371094 L 256.089844 234.867188 L 244.300781 240.027344 L 237.128906 225.316406 L 242.332031 223.039062 L 238.632812 215.445312 Z M 233.429688 217.722656 " transform="matrix(1,0,0,1,-74,-13)"/>
<path style="fill-rule:nonzero;fill:rgb(39.99939%,39.99939%,39.99939%);fill-opacity:1;stroke-width:0.03;stroke-linecap:square;stroke-linejoin:miter;stroke:rgb(39.99939%,39.99939%,39.99939%);stroke-opacity:1;stroke-miterlimit:3.239307;" d="M 194.886719 231.984375 L 229.042969 144.550781 L 250.308594 90.117188 L 319.117188 111.5 L 322.765625 118.871094 L 285.617188 219.359375 L 268.992188 264.691406 Z M 194.886719 231.984375 " transform="matrix(1,0,0,1,-74,-13)"/>
<path style="fill-rule:nonzero;fill:rgb(39.99939%,39.99939%,39.99939%);fill-opacity:1;stroke-width:0.03;stroke-linecap:square;stroke-linejoin:miter;stroke:rgb(39.99939%,39.99939%,39.99939%);stroke-opacity:1;stroke-miterlimit:3.239307;" d="M 264.460938 277.046875 L 257.355469 296.421875 L 246.535156 321.570312 Z M 264.460938 277.046875 " transform="matrix(1,0,0,1,-74,-13)"/>
<path style="fill-rule:nonzero;fill:rgb(39.99939%,39.99939%,39.99939%);fill-opacity:1;stroke-width:0.03;stroke-linecap:square;stroke-linejoin:miter;stroke:rgb(39.99939%,39.99939%,39.99939%);stroke-opacity:1;stroke-miterlimit:3.239307;" d="M 255.386719 161.988281 L 248.230469 147.261719 L 260.03125 142.097656 L 265.621094 153.605469 L 271.882812 150.867188 L 278.703125 164.90625 L 272.441406 167.648438 L 278.035156 179.152344 L 266.238281 184.316406 L 259.078125 169.589844 L 264.285156 167.3125 L 260.59375 159.710938 Z M 255.386719 161.988281 " transform="matrix(1,0,0,1,-74,-13)"/>
<path style="fill-rule:nonzero;fill:rgb(39.99939%,39.99939%,39.99939%);fill-opacity:1;stroke-width:0.03;stroke-linecap:square;stroke-linejoin:miter;stroke:rgb(39.99939%,39.99939%,39.99939%);stroke-opacity:1;stroke-miterlimit:3.239307;" d="M 255.84375 170.871094 L 263 185.597656 L 251.207031 190.757812 L 245.613281 179.253906 L 239.351562 181.996094 L 232.527344 167.957031 L 238.789062 165.214844 L 233.199219 153.707031 L 244.996094 148.542969 L 252.148438 163.273438 L 246.941406 165.550781 L 250.636719 173.152344 Z M 255.84375 170.871094 " transform="matrix(1,0,0,1,-74,-13)"/>
<path style="fill-rule:nonzero;fill:rgb(39.99939%,39.99939%,39.99939%);fill-opacity:1;stroke-width:0.03;stroke-linecap:square;stroke-linejoin:miter;stroke:rgb(39.99939%,39.99939%,39.99939%);stroke-opacity:1;stroke-miterlimit:3.239307;" d="M 155.433594 125.347656 L 215 145.449219 L 237.296875 86.054688 L 248.019531 89.6875 L 194.210938 231.6875 L 157.15625 215.332031 L 125.429688 205.269531 L 149.417969 138.71875 Z M 155.433594 125.347656 " transform="matrix(1,0,0,1,-74,-13)"/>
<path style="fill-rule:nonzero;fill:rgb(39.99939%,39.99939%,39.99939%);fill-opacity:1;stroke-width:0.03;stroke-linecap:square;stroke-linejoin:miter;stroke:rgb(39.99939%,39.99939%,39.99939%);stroke-opacity:1;stroke-miterlimit:3.239307;" d="M 189.8125 64.429688 L 189.171875 65.953125 L 187.863281 65.511719 Z M 189.8125 64.429688 " transform="matrix(1,0,0,1,-74,-13)"/>
<path style="fill-rule:nonzero;fill:rgb(39.99939%,39.99939%,39.99939%);fill-opacity:1;stroke-width:0.03;stroke-linecap:square;stroke-linejoin:miter;stroke:rgb(39.99939%,39.99939%,39.99939%);stroke-opacity:1;stroke-miterlimit:3.239307;" d="M 207.953125 76.902344 L 232.8125 84.820312 L 213.183594 140.328125 L 188.328125 132.410156 Z M 207.953125 76.902344 " transform="matrix(1,0,0,1,-74,-13)"/>
<path style="fill-rule:nonzero;fill:rgb(39.99939%,39.99939%,39.99939%);fill-opacity:1;stroke-width:0.03;stroke-linecap:square;stroke-linejoin:miter;stroke:rgb(39.99939%,39.99939%,39.99939%);stroke-opacity:1;stroke-miterlimit:3.239307;" d="M 182.15625 68.679688 L 204.304688 75.738281 L 184.683594 131.25 L 159.136719 123.113281 L 177.449219 71.296875 Z M 182.15625 68.679688 " transform="matrix(1,0,0,1,-74,-13)"/>
<path style="fill-rule:nonzero;fill:rgb(39.99939%,39.99939%,39.99939%);fill-opacity:1;stroke-width:0.03;stroke-linecap:square;stroke-linejoin:miter;stroke:rgb(39.99939%,39.99939%,39.99939%);stroke-opacity:1;stroke-miterlimit:3.239307;" d="M 304.960938 101.515625 L 302.410156 101.636719 L 299.402344 101.433594 L 193.769531 67.78125 L 195.007812 64.777344 L 212.101562 69.84375 L 238.414062 77.582031 Z M 304.960938 101.515625 " transform="matrix(1,0,0,1,-74,-13)"/>
<path style="fill-rule:nonzero;fill:rgb(39.99939%,39.99939%,39.99939%);fill-opacity:1;stroke-width:0.03;stroke-linecap:square;stroke-linejoin:miter;stroke:rgb(39.99939%,39.99939%,39.99939%);stroke-opacity:1;stroke-miterlimit:3.239307;" d="M 210.0625 174.050781 L 190.472656 230.035156 L 176.269531 223.765625 L 197.261719 169.480469 Z M 210.0625 174.050781 " transform="matrix(1,0,0,1,-74,-13)"/>
<path style="fill-rule:nonzero;fill:rgb(39.99939%,39.99939%,39.99939%);fill-opacity:1;stroke-width:0.03;stroke-linecap:square;stroke-linejoin:miter;stroke:rgb(39.99939%,39.99939%,39.99939%);stroke-opacity:1;stroke-miterlimit:3.239307;" d="M 155.011719 127.773438 L 167.125 131.820312 L 147.496094 183.59375 L 135.019531 179.117188 Z M 155.011719 127.773438 " transform="matrix(1,0,0,1,-74,-13)"/>
</g>
</svg>
