<?xml version="1.0" encoding="UTF-8"?>
<svg xmlns="http://www.w3.org/2000/svg" xmlns:xlink="http://www.w3.org/1999/xlink" width="361pt" height="361pt" viewBox="0 0 361 361" version="1.1">
<defs>
<clipPath id="clip1">
  <path d="M 208 316 L 288 316 L 288 360 L 208 360 Z M 208 316 "/>
</clipPath>
<clipPath id="clip2">
  <path d="M 169 308 L 227 308 L 227 360 L 169 360 Z M 169 308 "/>
</clipPath>
<clipPath id="clip3">
  <path d="M 137 302 L 190 302 L 190 360 L 137 360 Z M 137 302 "/>
</clipPath>
<clipPath id="clip4">
  <path d="M 104 297 L 158 297 L 158 360 L 104 360 Z M 104 297 "/>
</clipPath>
<clipPath id="clip5">
  <path d="M 0 348 L 27 348 L 27 360 L 0 360 Z M 0 348 "/>
</clipPath>
<clipPath id="clip6">
  <path d="M 27 355 L 75 355 L 75 360 L 27 360 Z M 27 355 "/>
</clipPath>
<clipPath id="clip7">
  <path d="M 85 291 L 126 291 L 126 360 L 85 360 Z M 85 291 "/>
</clipPath>
<clipPath id="clip8">
  <path d="M 316 344 L 358 344 L 358 360 L 316 360 Z M 316 344 "/>
</clipPath>
<clipPath id="clip9">
  <path d="M 327 332 L 360 332 L 360 360 L 327 360 Z M 327 332 "/>
</clipPath>
<clipPath id="clip10">
  <path d="M 330 256 L 360 256 L 360 324 L 330 324 Z M 330 256 "/>
</clipPath>
<clipPath id="clip11">
  <path d="M 351 125 L 360 125 L 360 194 L 351 194 Z M 351 125 "/>
</clipPath>
<clipPath id="clip12">
  <path d="M 338 183 L 360 183 L 360 259 L 338 259 Z M 338 183 "/>
</clipPath>
<clipPath id="clip13">
  <path d="M 154 325 L 216 325 L 216 360 L 154 360 Z M 154 325 "/>
</clipPath>
<clipPath id="clip14">
  <path d="M 356 124 L 360 124 L 360 186 L 356 186 Z M 356 124 "/>
</clipPath>
</defs>
<g id="surface805">
<path style="fill-rule:nonzero;fill:rgb(0%,0%,0%);fill-opacity:1;stroke-width:0.03;stroke-linecap:square;stroke-linejoin:miter;stroke:rgb(0%,0%,0%);stroke-opacity:1;stroke-miterlimit:10;" d="M 0 178 L 360 178 L 360 -182 L 0 -182 Z M 0 178 " transform="matrix(1,0,0,1,0,182)"/>
<path style=" stroke:none;fill-rule:nonzero;fill:rgb(39.99939%,39.99939%,39.99939%);fill-opacity:0.3;" d="M 83.609375 63.097656 L 163.9375 74.132812 L 152.21875 154.773438 L 121.761719 150.621094 L 110.25 149.339844 L 118.6875 96.917969 L 116.496094 96.601562 L 114.304688 96.289062 L 106.113281 148.785156 L 71.785156 143.367188 Z M 83.609375 63.097656 "/>
<path style=" stroke:none;fill-rule:nonzero;fill:rgb(39.99939%,39.99939%,39.99939%);fill-opacity:0.3;" d="M -32.777344 -70.3125 L 22.167969 -63.511719 L 8.808594 21.242188 L -46.058594 11.640625 Z M -32.777344 -70.3125 "/>
<path style=" stroke:none;fill-rule:nonzero;fill:rgb(39.99939%,39.99939%,39.99939%);fill-opacity:0.3;" d="M 169.722656 92.253906 L 192.007812 93.46875 L 180.875 159.464844 L 160.019531 155.988281 Z M 169.722656 92.253906 "/>
<path style=" stroke:none;fill-rule:nonzero;fill:rgb(39.99939%,39.99939%,39.99939%);fill-opacity:0.3;" d="M 86.195312 42.648438 L 166.894531 52.617188 L 164.910156 67.765625 L 84.257812 56.734375 Z M 86.195312 42.648438 "/>
<path style=" stroke:none;fill-rule:nonzero;fill:rgb(39.99939%,39.99939%,39.99939%);fill-opacity:0.3;" d="M 173.824219 55.5 L 247.738281 63.894531 L 242.628906 96.875 L 224.128906 95.667969 L 224.34375 91.539062 L 196.925781 89.109375 L 169.570312 88.234375 Z M 173.824219 55.5 "/>
<path style=" stroke:none;fill-rule:nonzero;fill:rgb(39.99939%,39.99939%,39.99939%);fill-opacity:0.3;" d="M 260.777344 65.507812 L 326.714844 73.683594 L 321.554688 107.082031 L 254.863281 99.503906 L 251.722656 95.125 L 255.519531 68.765625 Z M 260.777344 65.507812 "/>
<path style=" stroke:none;fill-rule:nonzero;fill:rgb(39.99939%,39.99939%,39.99939%);fill-opacity:0.3;" d="M 338.507812 -3.398438 L 327.953125 64.285156 L 257.234375 55.523438 L 265.292969 1.523438 L 268.394531 0.863281 L 270.90625 -0.152344 L 273.914062 -2.046875 L 276.226562 -4.171875 L 277.988281 -6.378906 L 279.21875 -8.417969 L 280.449219 -11.273438 Z M 338.507812 -3.398438 "/>
<path style=" stroke:none;fill-rule:nonzero;fill:rgb(39.99939%,39.99939%,39.99939%);fill-opacity:0.3;" d="M 102.035156 3.207031 L 172.441406 12.757812 L 167.925781 45.214844 L 97.253906 36.359375 Z M 102.035156 3.207031 "/>
<path style=" stroke:none;fill-rule:nonzero;fill:rgb(39.99939%,39.99939%,39.99939%);fill-opacity:0.3;" d="M 106.714844 -34.628906 L 177.066406 -25.15625 L 172.617188 6.835938 L 102.238281 -2.71875 Z M 106.714844 -34.628906 "/>
<path style=" stroke:none;fill-rule:nonzero;fill:rgb(39.99939%,39.99939%,39.99939%);fill-opacity:0.3;" d="M 249.066406 104.507812 L 320.824219 112.632812 L 310.167969 174.742188 L 239.964844 166.992188 Z M 249.066406 104.507812 "/>
<path style=" stroke:none;fill-rule:nonzero;fill:rgb(39.99939%,39.99939%,39.99939%);fill-opacity:0.3;" d="M 223.082031 102.722656 L 241.183594 103.789062 L 232.21875 166.046875 L 225.253906 164.972656 L 214.246094 163.324219 Z M 223.082031 102.722656 "/>
<path style=" stroke:none;fill-rule:nonzero;fill:rgb(39.99939%,39.99939%,39.99939%);fill-opacity:0.3;" d="M 196.875 93.460938 L 219.78125 96.292969 L 209.6875 162.664062 L 186.726562 160.441406 L 184.898438 160.136719 Z M 196.875 93.460938 "/>
<path style=" stroke:none;fill-rule:nonzero;fill:rgb(39.99939%,39.99939%,39.99939%);fill-opacity:0.3;" d="M 180.382812 10.070312 L 185.054688 -23.492188 L 244.984375 -15.292969 L 244.753906 -12.96875 L 245.285156 -10.558594 L 246.449219 -7.949219 L 247.617188 -5.742188 L 249.097656 -4.035156 L 251.429688 -2.332031 L 253.761719 -0.828125 L 256.089844 0.171875 L 247.753906 55.035156 L 175.355469 46.164062 L 178.640625 22.582031 Z M 180.382812 10.070312 "/>
<path style=" stroke:none;fill-rule:nonzero;fill:rgb(39.99939%,39.99939%,39.99939%);fill-opacity:0.3;" d="M 22.601562 -6.6875 L 82.414062 1.410156 L 78.429688 29.050781 L 18.03125 22.339844 Z M 22.601562 -6.6875 "/>
<path style=" stroke:none;fill-rule:nonzero;fill:rgb(39.99939%,39.99939%,39.99939%);fill-opacity:0.3;" d="M 160.082031 287.148438 L 159.566406 290.15625 L 98.359375 279.28125 L 98.382812 279.152344 L 130.070312 283.574219 Z M 160.082031 287.148438 "/>
<path style=" stroke:none;fill-rule:nonzero;fill:rgb(39.99939%,39.99939%,39.99939%);fill-opacity:0.3;" d="M 89.117188 277.390625 L 87.589844 278.175781 L 69.875 275.027344 L 68.523438 273.371094 Z M 89.117188 277.390625 "/>
<path style=" stroke:none;fill-rule:nonzero;fill:rgb(39.99939%,39.99939%,39.99939%);fill-opacity:0.3;" d="M 61.808594 272.257812 L 60.335938 273.332031 L 51.253906 271.722656 L 51.429688 270.664062 Z M 61.808594 272.257812 "/>
<path style=" stroke:none;fill-rule:nonzero;fill:rgb(39.99939%,39.99939%,39.99939%);fill-opacity:0.3;" d="M 28.335938 151.128906 L 58.636719 155.15625 L 52.980469 192.734375 L 49.167969 196.167969 L 21.515625 192.3125 Z M 28.335938 151.128906 "/>
<path style=" stroke:none;fill-rule:nonzero;fill:rgb(39.99939%,39.99939%,39.99939%);fill-opacity:0.3;" d="M -3.207031 146.9375 L 20.175781 150.046875 L 13.402344 191.300781 L -9.691406 188.164062 Z M -3.207031 146.9375 "/>
<path style=" stroke:none;fill-rule:nonzero;fill:rgb(39.99939%,39.99939%,39.99939%);fill-opacity:0.3;" d="M 48.855469 283.003906 L 87.644531 289.894531 L 76.175781 355.226562 L 38.023438 348.890625 L 41.402344 328.339844 L 64.160156 331.917969 L 64.398438 330.347656 L 64.632812 328.78125 L 41.925781 325.144531 Z M 48.855469 283.003906 "/>
<path style=" stroke:none;fill-rule:nonzero;fill:rgb(39.99939%,39.99939%,39.99939%);fill-opacity:0.3;" d="M -28.828125 269.574219 L 3.46875 275.304688 L -7.339844 341.757812 L -75.125 330.484375 L -64.328125 316.265625 L -42.179688 319.300781 L -41.585938 314.964844 L -61.203125 312.25 Z M -28.828125 269.574219 "/>
<g clip-path="url(#clip1)" clip-rule="nonzero">
<path style=" stroke:none;fill-rule:nonzero;fill:rgb(39.99939%,39.99939%,39.99939%);fill-opacity:0.3;" d="M 258.144531 320.769531 L 287.859375 326.054688 L 278.089844 391.890625 L 268.8125 454.460938 L 266.730469 454.140625 L 208.902344 443.570312 L 231.328125 316 Z M 258.144531 320.769531 "/>
</g>
<g clip-path="url(#clip2)" clip-rule="nonzero">
<path style=" stroke:none;fill-rule:nonzero;fill:rgb(39.99939%,39.99939%,39.99939%);fill-opacity:0.3;" d="M 193.359375 308.925781 L 226.414062 315.195312 L 204.285156 442.710938 L 169.5625 436.035156 Z M 193.359375 308.925781 "/>
</g>
<g clip-path="url(#clip3)" clip-rule="nonzero">
<path style=" stroke:none;fill-rule:nonzero;fill:rgb(39.99939%,39.99939%,39.99939%);fill-opacity:0.3;" d="M 161.707031 302.980469 L 189.261719 307.878906 L 166.148438 435.390625 L 137.074219 431.425781 Z M 161.707031 302.980469 "/>
</g>
<g clip-path="url(#clip4)" clip-rule="nonzero">
<path style=" stroke:none;fill-rule:nonzero;fill:rgb(39.99939%,39.99939%,39.99939%);fill-opacity:0.3;" d="M 129.542969 297.335938 L 157.488281 302.304688 L 132.265625 430.761719 L 111.78125 427.761719 L 104.828125 426.550781 Z M 129.542969 297.335938 "/>
</g>
<path style=" stroke:none;fill-rule:nonzero;fill:rgb(39.99939%,39.99939%,39.99939%);fill-opacity:0.3;" d="M 22.738281 279.917969 L 38.65625 282.816406 L 27.816406 348.757812 L 14.039062 346.472656 Z M 22.738281 279.917969 "/>
<path style=" stroke:none;fill-rule:nonzero;fill:rgb(39.99939%,39.99939%,39.99939%);fill-opacity:0.3;" d="M 6.042969 276.65625 L 18.863281 278.933594 L 10.011719 345.496094 L -3.667969 343.226562 Z M 6.042969 276.65625 "/>
<g clip-path="url(#clip5)" clip-rule="nonzero">
<path style=" stroke:none;fill-rule:nonzero;fill:rgb(39.99939%,39.99939%,39.99939%);fill-opacity:0.3;" d="M -3.859375 348.980469 L 26.875 354.082031 L 17.421875 411.597656 L -7.484375 407.257812 L -12.589844 406.179688 Z M -3.859375 348.980469 "/>
</g>
<g clip-path="url(#clip6)" clip-rule="nonzero">
<path style=" stroke:none;fill-rule:nonzero;fill:rgb(39.99939%,39.99939%,39.99939%);fill-opacity:0.3;" d="M 36.941406 355.46875 L 74.878906 361.765625 L 63.472656 419.34375 L 27.476562 413.070312 Z M 36.941406 355.46875 "/>
</g>
<g clip-path="url(#clip7)" clip-rule="nonzero">
<path style=" stroke:none;fill-rule:nonzero;fill:rgb(39.99939%,39.99939%,39.99939%);fill-opacity:0.3;" d="M 96.371094 291.441406 L 125.65625 296.644531 L 112.40625 361.242188 L 85.019531 356.691406 Z M 96.371094 291.441406 "/>
</g>
<path style=" stroke:none;fill-rule:nonzero;fill:rgb(39.99939%,39.99939%,39.99939%);fill-opacity:0.3;" d="M 291.390625 308.570312 L 290.5625 313.8125 L 232.417969 303.46875 L 233.296875 297.953125 Z M 291.390625 308.570312 "/>
<path style=" stroke:none;fill-rule:nonzero;fill:rgb(39.99939%,39.99939%,39.99939%);fill-opacity:0.3;" d="M 226.363281 296.617188 L 225.515625 301.964844 L 206.359375 298.558594 L 206.988281 294.464844 L 210.902344 293.394531 Z M 226.363281 296.617188 "/>
<path style=" stroke:none;fill-rule:nonzero;fill:rgb(39.99939%,39.99939%,39.99939%);fill-opacity:0.3;" d="M 198.839844 294.910156 L 198.386719 297.863281 L 172.457031 293.253906 L 173.074219 289.65625 L 195.039062 294.152344 Z M 198.839844 294.910156 "/>
<path style=" stroke:none;fill-rule:nonzero;fill:rgb(39.99939%,39.99939%,39.99939%);fill-opacity:0.3;" d="M 5.101562 198.171875 L 51.460938 204.472656 L 40.917969 268.546875 L -9.367188 259.640625 L -82.539062 246.683594 L -73.027344 187.550781 Z M 5.101562 198.171875 "/>
<path style=" stroke:none;fill-rule:nonzero;fill:rgb(39.99939%,39.99939%,39.99939%);fill-opacity:0.3;" d="M 57.230469 141.308594 L 55.742188 142.425781 L 30.449219 139.128906 L 30.644531 137.925781 Z M 57.230469 141.308594 "/>
<path style=" stroke:none;fill-rule:nonzero;fill:rgb(39.99939%,39.99939%,39.99939%);fill-opacity:0.3;" d="M 21.761719 136.796875 L 21.550781 138.066406 L -1.640625 135.046875 L -1.464844 133.894531 Z M 21.761719 136.796875 "/>
<path style=" stroke:none;fill-rule:nonzero;fill:rgb(39.99939%,39.99939%,39.99939%);fill-opacity:0.3;" d="M 111.171875 215.195312 L 124.363281 218.175781 L 169.351562 233.136719 L 160.082031 287.148438 L 130.070312 283.574219 L 98.382812 279.152344 Z M 111.171875 215.195312 "/>
<path style=" stroke:none;fill-rule:nonzero;fill:rgb(39.99939%,39.99939%,39.99939%);fill-opacity:0.3;" d="M 76.347656 209.175781 L 87.492188 210.695312 L 102.886719 214.144531 L 90.414062 276.722656 L 89.117188 277.390625 L 68.523438 273.371094 L 67.730469 272.402344 Z M 76.347656 209.175781 "/>
<path style=" stroke:none;fill-rule:nonzero;fill:rgb(39.99939%,39.99939%,39.99939%);fill-opacity:0.3;" d="M 61.871094 207.207031 L 72.328125 208.628906 L 62.902344 271.460938 L 61.808594 272.257812 L 51.429688 270.664062 Z M 61.871094 207.207031 "/>
<path style=" stroke:none;fill-rule:nonzero;fill:rgb(39.99939%,39.99939%,39.99939%);fill-opacity:0.3;" d="M 123.746094 163.816406 L 149.679688 167.269531 L 140.761719 215.332031 L 126.921875 210.683594 L 113.5 207.675781 Z M 123.746094 163.816406 "/>
<path style=" stroke:none;fill-rule:nonzero;fill:rgb(39.99939%,39.99939%,39.99939%);fill-opacity:0.3;" d="M 69.683594 156.625 L 114.714844 162.613281 L 104.894531 205.484375 L 86.367188 201.226562 L 67.804688 198.703125 L 63.835938 194.816406 Z M 69.683594 156.625 "/>
<path style=" stroke:none;fill-rule:nonzero;fill:rgb(39.99939%,39.99939%,39.99939%);fill-opacity:0.3;" d="M 152.21875 154.773438 L 152.03125 156.046875 L 110.082031 150.378906 L 110.25 149.339844 L 121.761719 150.621094 Z M 152.21875 154.773438 "/>
<path style=" stroke:none;fill-rule:nonzero;fill:rgb(39.99939%,39.99939%,39.99939%);fill-opacity:0.3;" d="M 106.113281 148.785156 L 105.949219 149.820312 L 71.519531 145.167969 L 71.785156 143.367188 Z M 106.113281 148.785156 "/>
<path style=" stroke:none;fill-rule:nonzero;fill:rgb(39.99939%,39.99939%,39.99939%);fill-opacity:0.3;" d="M 180.875 159.464844 L 180.761719 160.136719 L 159.816406 157.304688 L 160.019531 155.988281 Z M 180.875 159.464844 "/>
<path style=" stroke:none;fill-rule:nonzero;fill:rgb(39.99939%,39.99939%,39.99939%);fill-opacity:0.3;" d="M 241.679688 245.210938 L 300.082031 253.636719 L 291.390625 308.570312 L 233.296875 297.953125 Z M 241.679688 245.210938 "/>
<path style=" stroke:none;fill-rule:nonzero;fill:rgb(39.99939%,39.99939%,39.99939%);fill-opacity:0.3;" d="M 215.097656 241.523438 L 234.722656 244.003906 L 226.363281 296.617188 L 210.902344 293.394531 L 206.988281 294.464844 Z M 215.097656 241.523438 "/>
<path style=" stroke:none;fill-rule:nonzero;fill:rgb(39.99939%,39.99939%,39.99939%);fill-opacity:0.3;" d="M 181.933594 238.015625 L 207.058594 241.28125 L 198.839844 294.910156 L 195.039062 294.152344 L 173.074219 289.65625 Z M 181.933594 238.015625 "/>
<path style=" stroke:none;fill-rule:nonzero;fill:rgb(39.99939%,39.99939%,39.99939%);fill-opacity:0.3;" d="M 157.714844 168.339844 L 180.484375 171.460938 L 171.222656 225.414062 L 148.523438 217.871094 Z M 157.714844 168.339844 "/>
<path style=" stroke:none;fill-rule:nonzero;fill:rgb(39.99939%,39.99939%,39.99939%);fill-opacity:0.3;" d="M 192.980469 173.214844 L 216.910156 176.574219 L 208.292969 232.789062 L 183.335938 229.402344 Z M 192.980469 173.214844 "/>
<path style=" stroke:none;fill-rule:nonzero;fill:rgb(39.99939%,39.99939%,39.99939%);fill-opacity:0.3;" d="M 232.21875 166.046875 L 232.070312 167.078125 L 214.054688 164.640625 L 214.246094 163.324219 L 225.253906 164.972656 Z M 232.21875 166.046875 "/>
<path style=" stroke:none;fill-rule:nonzero;fill:rgb(39.99939%,39.99939%,39.99939%);fill-opacity:0.3;" d="M 209.6875 162.664062 L 209.480469 164.019531 L 184.800781 160.683594 L 184.898438 160.136719 L 186.726562 160.441406 Z M 209.6875 162.664062 "/>
<path style=" stroke:none;fill-rule:nonzero;fill:rgb(39.99939%,39.99939%,39.99939%);fill-opacity:0.3;" d="M 222.023438 202.929688 L 225.871094 177.832031 L 245.8125 180.628906 L 241.585938 207.203125 L 236.941406 236.40625 L 217.273438 233.921875 Z M 222.023438 202.929688 "/>
<path style=" stroke:none;fill-rule:nonzero;fill:rgb(39.99939%,39.99939%,39.99939%);fill-opacity:0.3;" d="M 301.25 246.023438 L 242.957031 237.613281 L 251.152344 186.066406 L 255.300781 182.410156 L 308.570312 189.890625 Z M 301.25 246.023438 "/>
<g clip-path="url(#clip8)" clip-rule="nonzero">
<path style=" stroke:none;fill-rule:nonzero;fill:rgb(39.99939%,39.99939%,39.99939%);fill-opacity:0.3;" d="M 325.957031 344.582031 L 357.285156 370.265625 L 354.292969 395.269531 L 350.933594 416.035156 L 348.46875 417.78125 L 318.117188 413.8125 L 316.273438 411.503906 Z M 325.957031 344.582031 "/>
</g>
<g clip-path="url(#clip9)" clip-rule="nonzero">
<path style=" stroke:none;fill-rule:nonzero;fill:rgb(39.99939%,39.99939%,39.99939%);fill-opacity:0.3;" d="M 327.960938 334.765625 L 328.230469 332.921875 L 360.457031 336.34375 L 357.683594 359.53125 Z M 327.960938 334.765625 "/>
</g>
<path style=" stroke:none;fill-rule:nonzero;fill:rgb(39.99939%,39.99939%,39.99939%);fill-opacity:0.3;" d="M 358.433594 322.746094 L 330.824219 320.101562 L 330.972656 318.929688 Z M 358.433594 322.746094 "/>
<g clip-path="url(#clip10)" clip-rule="nonzero">
<path style=" stroke:none;fill-rule:nonzero;fill:rgb(39.99939%,39.99939%,39.99939%);fill-opacity:0.3;" d="M 337.4375 267.957031 L 371.257812 256.308594 L 363.648438 323.246094 L 358.433594 322.746094 L 330.972656 318.929688 Z M 337.4375 267.957031 "/>
</g>
<g clip-path="url(#clip11)" clip-rule="nonzero">
<path style=" stroke:none;fill-rule:nonzero;fill:rgb(39.99939%,39.99939%,39.99939%);fill-opacity:0.3;" d="M 357.796875 125.839844 L 390.765625 130.007812 L 381.507812 193.417969 L 351.210938 170.9375 Z M 357.796875 125.839844 "/>
</g>
<g clip-path="url(#clip12)" clip-rule="nonzero">
<path style=" stroke:none;fill-rule:nonzero;fill:rgb(39.99939%,39.99939%,39.99939%);fill-opacity:0.3;" d="M 340.421875 244.910156 L 349.003906 185.808594 L 350.195312 184.558594 L 351.875 183.628906 L 354.296875 183.347656 L 356.402344 183.871094 L 415.066406 227.734375 L 415.671875 229.15625 L 415.511719 230.117188 L 415.144531 230.886719 L 414.496094 232.003906 L 373.804688 245.957031 L 338.539062 258.050781 Z M 340.421875 244.910156 "/>
</g>
<path style=" stroke:none;fill-rule:nonzero;fill:rgb(39.99939%,39.99939%,39.99939%);fill-opacity:0.3;" d="M 8.808594 21.242188 L 2.9375 58.472656 L -0.640625 61.179688 L -52.941406 54.101562 L -46.058594 11.640625 Z M 8.808594 21.242188 "/>
<path style=" stroke:none;fill-rule:nonzero;fill:rgb(39.99939%,39.99939%,39.99939%);fill-opacity:0.3;" d="M 40.039062 80.726562 L 46.296875 75.582031 L 66.449219 78.3125 L 69.347656 81.808594 L 61.203125 138.335938 L 57.230469 141.308594 L 30.644531 137.925781 Z M 40.039062 80.726562 "/>
<path style=" stroke:none;fill-rule:nonzero;fill:rgb(39.99939%,39.99939%,39.99939%);fill-opacity:0.3;" d="M 7.601562 74.507812 L 12.859375 71.152344 L 26.65625 73.019531 L 31.128906 79.742188 L 21.761719 136.796875 L -1.464844 133.894531 Z M 7.601562 74.507812 "/>
<path style=" stroke:none;fill-rule:nonzero;fill:rgb(39.99939%,39.99939%,39.99939%);fill-opacity:0.3;" d="M -24.445312 69.753906 L -20.5625 66.625 L -2.011719 69.136719 L 0.949219 73.769531 L -8.375 133.019531 L -33.621094 129.699219 Z M -24.445312 69.753906 "/>
<path style=" stroke:none;fill-rule:nonzero;fill:rgb(39.99939%,39.99939%,39.99939%);fill-opacity:0.3;" d="M 16.570312 34.523438 L 76.992188 42.191406 L 73.085938 69.289062 L 71.664062 70.710938 L 69.464844 71.3125 L 15.324219 63.976562 L 13.628906 62.480469 L 12.644531 59.460938 Z M 16.570312 34.523438 "/>
<path style=" stroke:none;fill-rule:nonzero;fill:rgb(39.99939%,39.99939%,39.99939%);fill-opacity:0.3;" d="M 78.429688 29.050781 L 77.597656 34.804688 L 17.242188 27.363281 L 18.03125 22.339844 Z M 78.429688 29.050781 "/>
<path style="fill-rule:nonzero;fill:rgb(39.99939%,39.99939%,39.99939%);fill-opacity:1;stroke-width:0.03;stroke-linecap:square;stroke-linejoin:miter;stroke:rgb(39.99939%,39.99939%,39.99939%);stroke-opacity:1;stroke-miterlimit:3.239307;" d="M 185.171875 228.195312 L 198.363281 231.175781 L 243.351562 246.136719 L 234.082031 300.148438 L 204.070312 296.574219 L 172.382812 292.152344 Z M 185.171875 228.195312 " transform="matrix(1,0,0,1,-74,-13)"/>
<path style="fill-rule:nonzero;fill:rgb(39.99939%,39.99939%,39.99939%);fill-opacity:1;stroke-width:0.03;stroke-linecap:square;stroke-linejoin:miter;stroke:rgb(39.99939%,39.99939%,39.99939%);stroke-opacity:1;stroke-miterlimit:3.239307;" d="M 150.347656 222.175781 L 161.492188 223.695312 L 176.886719 227.144531 L 164.414062 289.722656 L 163.117188 290.390625 L 142.523438 286.371094 L 141.730469 285.402344 Z M 150.347656 222.175781 " transform="matrix(1,0,0,1,-74,-13)"/>
<path style="fill-rule:nonzero;fill:rgb(39.99939%,39.99939%,39.99939%);fill-opacity:1;stroke-width:0.03;stroke-linecap:square;stroke-linejoin:miter;stroke:rgb(39.99939%,39.99939%,39.99939%);stroke-opacity:1;stroke-miterlimit:3.239307;" d="M 135.871094 220.207031 L 146.328125 221.628906 L 136.902344 284.460938 L 135.808594 285.257812 L 125.429688 283.664062 Z M 135.871094 220.207031 " transform="matrix(1,0,0,1,-74,-13)"/>
<path style="fill-rule:nonzero;fill:rgb(39.99939%,39.99939%,39.99939%);fill-opacity:1;stroke-width:0.03;stroke-linecap:square;stroke-linejoin:miter;stroke:rgb(39.99939%,39.99939%,39.99939%);stroke-opacity:1;stroke-miterlimit:3.239307;" d="M 197.746094 176.816406 L 223.679688 180.269531 L 214.761719 228.332031 L 200.921875 223.683594 L 187.5 220.675781 Z M 197.746094 176.816406 " transform="matrix(1,0,0,1,-74,-13)"/>
<path style="fill-rule:nonzero;fill:rgb(39.99939%,39.99939%,39.99939%);fill-opacity:1;stroke-width:0.03;stroke-linecap:square;stroke-linejoin:miter;stroke:rgb(39.99939%,39.99939%,39.99939%);stroke-opacity:1;stroke-miterlimit:3.239307;" d="M 143.683594 169.625 L 188.714844 175.613281 L 178.894531 218.484375 L 160.367188 214.226562 L 141.804688 211.703125 L 137.835938 207.816406 Z M 143.683594 169.625 " transform="matrix(1,0,0,1,-74,-13)"/>
<path style="fill-rule:nonzero;fill:rgb(39.99939%,39.99939%,39.99939%);fill-opacity:1;stroke-width:0.03;stroke-linecap:square;stroke-linejoin:miter;stroke:rgb(39.99939%,39.99939%,39.99939%);stroke-opacity:1;stroke-miterlimit:3.239307;" d="M 226.21875 167.773438 L 226.03125 169.046875 L 184.082031 163.378906 L 184.25 162.339844 L 195.761719 163.621094 Z M 226.21875 167.773438 " transform="matrix(1,0,0,1,-74,-13)"/>
<path style="fill-rule:nonzero;fill:rgb(39.99939%,39.99939%,39.99939%);fill-opacity:1;stroke-width:0.03;stroke-linecap:square;stroke-linejoin:miter;stroke:rgb(39.99939%,39.99939%,39.99939%);stroke-opacity:1;stroke-miterlimit:3.239307;" d="M 180.113281 161.785156 L 179.949219 162.820312 L 145.519531 158.167969 L 145.785156 156.367188 Z M 180.113281 161.785156 " transform="matrix(1,0,0,1,-74,-13)"/>
<path style="fill-rule:nonzero;fill:rgb(39.99939%,39.99939%,39.99939%);fill-opacity:1;stroke-width:0.03;stroke-linecap:square;stroke-linejoin:miter;stroke:rgb(39.99939%,39.99939%,39.99939%);stroke-opacity:1;stroke-miterlimit:3.239307;" d="M 254.875 172.464844 L 254.761719 173.136719 L 233.816406 170.304688 L 234.019531 168.988281 Z M 254.875 172.464844 " transform="matrix(1,0,0,1,-74,-13)"/>
<path style="fill-rule:nonzero;fill:rgb(39.99939%,39.99939%,39.99939%);fill-opacity:1;stroke-width:0.03;stroke-linecap:square;stroke-linejoin:miter;stroke:rgb(39.99939%,39.99939%,39.99939%);stroke-opacity:1;stroke-miterlimit:3.239307;" d="M 315.679688 258.210938 L 374.082031 266.636719 L 365.390625 321.570312 L 307.296875 310.953125 Z M 315.679688 258.210938 " transform="matrix(1,0,0,1,-74,-13)"/>
<path style="fill-rule:nonzero;fill:rgb(39.99939%,39.99939%,39.99939%);fill-opacity:1;stroke-width:0.03;stroke-linecap:square;stroke-linejoin:miter;stroke:rgb(39.99939%,39.99939%,39.99939%);stroke-opacity:1;stroke-miterlimit:3.239307;" d="M 289.097656 254.523438 L 308.722656 257.003906 L 300.363281 309.617188 L 284.902344 306.394531 L 280.988281 307.464844 Z M 289.097656 254.523438 " transform="matrix(1,0,0,1,-74,-13)"/>
<path style="fill-rule:nonzero;fill:rgb(39.99939%,39.99939%,39.99939%);fill-opacity:1;stroke-width:0.03;stroke-linecap:square;stroke-linejoin:miter;stroke:rgb(39.99939%,39.99939%,39.99939%);stroke-opacity:1;stroke-miterlimit:3.239307;" d="M 255.933594 251.015625 L 281.058594 254.28125 L 272.839844 307.910156 L 269.039062 307.152344 L 247.074219 302.65625 Z M 255.933594 251.015625 " transform="matrix(1,0,0,1,-74,-13)"/>
<path style="fill-rule:nonzero;fill:rgb(39.99939%,39.99939%,39.99939%);fill-opacity:1;stroke-width:0.03;stroke-linecap:square;stroke-linejoin:miter;stroke:rgb(39.99939%,39.99939%,39.99939%);stroke-opacity:1;stroke-miterlimit:3.239307;" d="M 231.714844 181.339844 L 254.484375 184.460938 L 245.222656 238.414062 L 222.523438 230.871094 Z M 231.714844 181.339844 " transform="matrix(1,0,0,1,-74,-13)"/>
<path style="fill-rule:nonzero;fill:rgb(39.99939%,39.99939%,39.99939%);fill-opacity:1;stroke-width:0.03;stroke-linecap:square;stroke-linejoin:miter;stroke:rgb(39.99939%,39.99939%,39.99939%);stroke-opacity:1;stroke-miterlimit:3.239307;" d="M 266.980469 186.214844 L 290.910156 189.574219 L 282.292969 245.789062 L 257.335938 242.402344 Z M 266.980469 186.214844 " transform="matrix(1,0,0,1,-74,-13)"/>
<path style="fill-rule:nonzero;fill:rgb(39.99939%,39.99939%,39.99939%);fill-opacity:1;stroke-width:0.03;stroke-linecap:square;stroke-linejoin:miter;stroke:rgb(39.99939%,39.99939%,39.99939%);stroke-opacity:1;stroke-miterlimit:3.239307;" d="M 306.21875 179.046875 L 306.070312 180.078125 L 288.054688 177.640625 L 288.246094 176.324219 L 299.253906 177.972656 Z M 306.21875 179.046875 " transform="matrix(1,0,0,1,-74,-13)"/>
<path style="fill-rule:nonzero;fill:rgb(39.99939%,39.99939%,39.99939%);fill-opacity:1;stroke-width:0.03;stroke-linecap:square;stroke-linejoin:miter;stroke:rgb(39.99939%,39.99939%,39.99939%);stroke-opacity:1;stroke-miterlimit:3.239307;" d="M 283.6875 175.664062 L 283.480469 177.019531 L 258.800781 173.683594 L 258.898438 173.136719 L 260.726562 173.441406 Z M 283.6875 175.664062 " transform="matrix(1,0,0,1,-74,-13)"/>
<path style="fill-rule:nonzero;fill:rgb(39.99939%,39.99939%,39.99939%);fill-opacity:1;stroke-width:0.03;stroke-linecap:square;stroke-linejoin:miter;stroke:rgb(39.99939%,39.99939%,39.99939%);stroke-opacity:1;stroke-miterlimit:3.239307;" d="M 296.023438 215.929688 L 299.871094 190.832031 L 319.8125 193.628906 L 315.585938 220.203125 L 310.941406 249.40625 L 291.273438 246.921875 Z M 296.023438 215.929688 " transform="matrix(1,0,0,1,-74,-13)"/>
<path style="fill-rule:nonzero;fill:rgb(39.99939%,39.99939%,39.99939%);fill-opacity:1;stroke-width:0.03;stroke-linecap:square;stroke-linejoin:miter;stroke:rgb(39.99939%,39.99939%,39.99939%);stroke-opacity:1;stroke-miterlimit:3.239307;" d="M 375.25 259.023438 L 316.957031 250.613281 L 325.152344 199.066406 L 329.300781 195.410156 L 382.570312 202.890625 Z M 375.25 259.023438 " transform="matrix(1,0,0,1,-74,-13)"/>
<g clip-path="url(#clip13)" clip-rule="nonzero">
<path style=" stroke:none;fill-rule:evenodd;fill:rgb(85.096741%,85.096741%,81.959534%);fill-opacity:0.7;" d="M 215.214844 356 C 215.214844 347.984375 212.035156 340.300781 206.367188 334.632812 C 200.699219 328.964844 193.015625 325.785156 185 325.785156 C 176.984375 325.785156 169.300781 328.964844 163.632812 334.632812 C 157.964844 340.300781 154.785156 347.984375 154.785156 356 C 154.785156 364.015625 157.964844 371.699219 163.632812 377.367188 C 169.300781 383.035156 176.984375 386.214844 185 386.214844 C 193.015625 386.214844 200.699219 383.035156 206.367188 377.367188 C 212.035156 371.699219 215.214844 364.015625 215.214844 356 Z M 215.214844 356 "/>
</g>
<path style=" stroke:none;fill-rule:evenodd;fill:rgb(85.096741%,85.096741%,81.959534%);fill-opacity:0.7;" d="M 81.214844 319 C 81.214844 310.984375 78.035156 303.300781 72.367188 297.632812 C 66.699219 291.964844 59.015625 288.785156 51 288.785156 C 42.984375 288.785156 35.300781 291.964844 29.632812 297.632812 C 23.964844 303.300781 20.785156 310.984375 20.785156 319 C 20.785156 327.015625 23.964844 334.699219 29.632812 340.367188 C 35.300781 346.035156 42.984375 349.214844 51 349.214844 C 59.015625 349.214844 66.699219 346.035156 72.367188 340.367188 C 78.035156 334.699219 81.214844 327.015625 81.214844 319 Z M 81.214844 319 "/>
<path style=" stroke:none;fill-rule:evenodd;fill:rgb(85.096741%,85.096741%,81.959534%);fill-opacity:0.7;" d="M 7.214844 316 C 7.214844 307.984375 4.035156 300.300781 -1.632812 294.632812 C -7.300781 288.964844 -14.984375 285.785156 -23 285.785156 C -31.015625 285.785156 -38.699219 288.964844 -44.367188 294.632812 C -50.035156 300.300781 -53.214844 307.984375 -53.214844 316 C -53.214844 324.015625 -50.035156 331.699219 -44.367188 337.367188 C -38.699219 343.035156 -31.015625 346.214844 -23 346.214844 C -14.984375 346.214844 -7.300781 343.035156 -1.632812 337.367188 C 4.035156 331.699219 7.214844 324.015625 7.214844 316 Z M 7.214844 316 "/>
<path style=" stroke:none;fill-rule:evenodd;fill:rgb(85.096741%,85.096741%,81.959534%);fill-opacity:0.7;" d="M 225.214844 231 C 225.214844 222.984375 222.035156 215.300781 216.367188 209.632812 C 210.699219 203.964844 203.015625 200.785156 195 200.785156 C 186.984375 200.785156 179.300781 203.964844 173.632812 209.632812 C 167.964844 215.300781 164.785156 222.984375 164.785156 231 C 164.785156 239.015625 167.964844 246.699219 173.632812 252.367188 C 179.300781 258.035156 186.984375 261.214844 195 261.214844 C 203.015625 261.214844 210.699219 258.035156 216.367188 252.367188 C 222.035156 246.699219 225.214844 239.015625 225.214844 231 Z M 225.214844 231 "/>
<g clip-path="url(#clip14)" clip-rule="nonzero">
<path style=" stroke:none;fill-rule:evenodd;fill:rgb(85.096741%,85.096741%,81.959534%);fill-opacity:0.7;" d="M 417.214844 155 C 417.214844 146.984375 414.035156 139.300781 408.367188 133.632812 C 402.699219 127.964844 395.015625 124.785156 387 124.785156 C 378.984375 124.785156 371.300781 127.964844 365.632812 133.632812 C 359.964844 139.300781 356.785156 146.984375 356.785156 155 C 356.785156 163.015625 359.964844 170.699219 365.632812 176.367188 C 371.300781 182.035156 378.984375 185.214844 387 185.214844 C 395.015625 185.214844 402.699219 182.035156 408.367188 176.367188 C 414.035156 170.699219 417.214844 163.015625 417.214844 155 Z M 417.214844 155 "/>
</g>
<path style=" stroke:none;fill-rule:evenodd;fill:rgb(85.096741%,85.096741%,81.959534%);fill-opacity:0.7;" d="M 187.214844 67 C 187.214844 58.984375 184.035156 51.300781 178.367188 45.632812 C 172.699219 39.964844 165.015625 36.785156 157 36.785156 C 148.984375 36.785156 141.300781 39.964844 135.632812 45.632812 C 129.964844 51.300781 126.785156 58.984375 126.785156 67 C 126.785156 75.015625 129.964844 82.699219 135.632812 88.367188 C 141.300781 94.035156 148.984375 97.214844 157 97.214844 C 165.015625 97.214844 172.699219 94.035156 178.367188 88.367188 C 184.035156 82.699219 187.214844 75.015625 187.214844 67 Z M 187.214844 67 "/>
<path style=" stroke:none;fill-rule:evenodd;fill:rgb(85.096741%,85.096741%,81.959534%);fill-opacity:0.7;" d="M 73.214844 318 C 73.214844 309.984375 70.035156 302.300781 64.367188 296.632812 C 58.699219 290.964844 51.015625 287.785156 43 287.785156 C 34.984375 287.785156 27.300781 290.964844 21.632812 296.632812 C 15.964844 302.300781 12.785156 309.984375 12.785156 318 C 12.785156 326.015625 15.964844 333.699219 21.632812 339.367188 C 27.300781 345.035156 34.984375 348.214844 43 348.214844 C 51.015625 348.214844 58.699219 345.035156 64.367188 339.367188 C 70.035156 333.699219 73.214844 326.015625 73.214844 318 Z M 73.214844 318 "/>
<path style=" stroke:none;fill-rule:evenodd;fill:rgb(85.096741%,85.096741%,81.959534%);fill-opacity:0.7;" d="M 192.214844 212 C 192.214844 203.984375 189.035156 196.300781 183.367188 190.632812 C 177.699219 184.964844 170.015625 181.785156 162 181.785156 C 153.984375 181.785156 146.300781 184.964844 140.632812 190.632812 C 134.964844 196.300781 131.785156 203.984375 131.785156 212 C 131.785156 220.015625 134.964844 227.699219 140.632812 233.367188 C 146.300781 239.035156 153.984375 242.214844 162 242.214844 C 170.015625 242.214844 177.699219 239.035156 183.367188 233.367188 C 189.035156 227.699219 192.214844 220.015625 192.214844 212 Z M 192.214844 212 "/>
</g>
</svg>
