<?xml version="1.0" encoding="UTF-8"?>
<svg xmlns="http://www.w3.org/2000/svg" xmlns:xlink="http://www.w3.org/1999/xlink" width="361pt" height="361pt" viewBox="0 0 361 361" version="1.1">
<defs>
<clipPath id="clip1">
  <path d="M 349 0 L 360 0 L 360 18 L 349 18 Z M 349 0 "/>
</clipPath>
<clipPath id="clip2">
  <path d="M 290 138 L 360 138 L 360 172 L 290 172 Z M 290 138 "/>
</clipPath>
<clipPath id="clip3">
  <path d="M 279 297 L 360 297 L 360 360 L 279 360 Z M 279 297 "/>
</clipPath>
<clipPath id="clip4">
  <path d="M 237 296 L 299 296 L 299 360 L 237 360 Z M 237 296 "/>
</clipPath>
<clipPath id="clip5">
  <path d="M 308 258 L 360 258 L 360 303 L 308 303 Z M 308 258 "/>
</clipPath>
<clipPath id="clip6">
  <path d="M 344 320 L 360 320 L 360 360 L 344 360 Z M 344 320 "/>
</clipPath>
<clipPath id="clip7">
  <path d="M 345 180 L 360 180 L 360 227 L 345 227 Z M 345 180 "/>
</clipPath>
<clipPath id="clip8">
  <path d="M 330 224 L 360 224 L 360 255 L 330 255 Z M 330 224 "/>
</clipPath>
<clipPath id="clip9">
  <path d="M 320 8 L 360 8 L 360 109 L 320 109 Z M 320 8 "/>
</clipPath>
<clipPath id="clip10">
  <path d="M 307 107 L 360 107 L 360 147 L 307 147 Z M 307 107 "/>
</clipPath>
<clipPath id="clip11">
  <path d="M 0 351 L 7 351 L 7 360 L 0 360 Z M 0 351 "/>
</clipPath>
<clipPath id="clip12">
  <path d="M 14 326 L 167 326 L 167 360 L 14 360 Z M 14 326 "/>
</clipPath>
<clipPath id="clip13">
  <path d="M 146 335 L 268 335 L 268 360 L 146 360 Z M 146 335 "/>
</clipPath>
</defs>
<g id="surface3276">
<path style="fill-rule:nonzero;fill:rgb(0%,0%,0%);fill-opacity:1;stroke-width:0.03;stroke-linecap:square;stroke-linejoin:miter;stroke:rgb(0%,0%,0%);stroke-opacity:1;stroke-miterlimit:10;" d="M 0 178 L 360 178 L 360 -182 L 0 -182 Z M 0 178 " transform="matrix(1,0,0,1,0,182)"/>
<path style=" stroke:none;fill-rule:nonzero;fill:rgb(39.99939%,39.99939%,39.99939%);fill-opacity:0.3;" d="M 181.589844 152.058594 L 217.15625 168.453125 L 217.539062 168.816406 L 217.792969 169.546875 L 217.796875 170.394531 L 217.289062 171.484375 L 177.269531 248.457031 L 176.777344 248.335938 L 176.160156 248.21875 L 175.050781 247.980469 L 158.40625 240.925781 L 168.582031 201.921875 L 169.792969 199.320312 L 170.28125 197.210938 L 170.277344 195.429688 Z M 181.589844 152.058594 "/>
<path style=" stroke:none;fill-rule:nonzero;fill:rgb(39.99939%,39.99939%,39.99939%);fill-opacity:0.3;" d="M 212.296875 191.105469 L 222.4375 170.636719 L 222.820312 170.515625 L 223.328125 170.394531 L 223.964844 170.398438 L 224.984375 170.644531 L 243.574219 178.851562 L 244.082031 179.339844 L 244.59375 180.191406 L 246.386719 185.660156 L 248.054688 191.25 L 248.617188 193.726562 L 248.941406 196.433594 L 249.140625 198.378906 L 249.242188 200.324219 L 249.246094 202.085938 L 248.988281 203.714844 L 248.574219 205.972656 L 248.097656 208.285156 L 247.324219 210.414062 L 246.390625 212.90625 L 245.296875 215.035156 L 243.167969 218.640625 L 219.046875 265.398438 L 218.632812 265.777344 L 218.183594 265.882812 L 217.507812 265.878906 L 216.613281 265.769531 L 215.714844 265.605469 L 214.589844 265.121094 L 212.625 264.152344 L 183.1875 250.164062 L 183.074219 249.839844 L 183.074219 249.519531 L 183.519531 248.558594 Z M 212.296875 191.105469 "/>
<path style=" stroke:none;fill-rule:nonzero;fill:rgb(39.99939%,39.99939%,39.99939%);fill-opacity:0.3;" d="M 220.441406 116.4375 L 222.207031 121.980469 L 221.996094 122.378906 L 221.15625 122.777344 L 175.082031 114.453125 L 173.546875 107.40625 L 219.441406 115.851562 L 220.011719 116.054688 Z M 220.441406 116.4375 "/>
<path style=" stroke:none;fill-rule:nonzero;fill:rgb(39.99939%,39.99939%,39.99939%);fill-opacity:0.3;" d="M 175.589844 116.777344 L 221.371094 124.988281 L 222.214844 125.59375 L 223.058594 126.398438 L 223.484375 127.605469 L 225.398438 135.042969 L 226.667969 138.664062 L 228.363281 141.882812 L 229.84375 145.101562 L 231.746094 148.121094 L 232.804688 150.535156 L 234.285156 153.757812 L 243.386719 173.277344 L 243.386719 174.078125 L 242.757812 174.878906 L 242.335938 174.878906 L 240.441406 174.46875 L 235.792969 172.785156 L 233.632812 171.925781 L 206.90625 159.101562 L 206.777344 158.496094 L 213.359375 144.585938 L 212.269531 144.214844 L 211.195312 143.851562 L 204.613281 157.398438 L 204.359375 157.519531 L 203.722656 157.515625 L 202.832031 157.394531 L 202.066406 157.148438 L 182.390625 147.980469 L 181.175781 142.410156 L 187.394531 138.441406 L 188.03125 137.839844 L 188.410156 136.871094 L 188.535156 136.023438 L 188.527344 132.75 L 188.398438 131.660156 L 188.015625 131.050781 L 187.632812 130.566406 L 186.699219 129.65625 L 185.679688 128.925781 L 184.277344 128.316406 L 177.597656 125.988281 Z M 175.589844 116.777344 "/>
<g clip-path="url(#clip1)" clip-rule="nonzero">
<path style=" stroke:none;fill-rule:nonzero;fill:rgb(39.99939%,39.99939%,39.99939%);fill-opacity:0.3;" d="M 393.390625 17.273438 L 391.910156 17.273438 L 390.003906 16.875 L 370.382812 5.472656 L 372.804688 0.433594 L 372.292969 0.105469 L 371.714844 -0.261719 L 368.773438 5.066406 L 365.457031 9.476562 L 363.550781 9.878906 L 362.070312 9.882812 L 350.007812 6.683594 L 349.796875 5.480469 L 356.546875 -20.375 L 359.285156 -33.203125 L 360.128906 -35.808594 L 360.820312 -37.828125 L 363.871094 -37.175781 L 367.082031 -36.871094 L 373.339844 -36.421875 L 378.3125 -35.359375 L 383.609375 -33.84375 L 383.769531 -34.910156 L 383.929688 -35.972656 L 379.4375 -36.730469 L 374.78125 -37.789062 L 371.894531 -38.089844 L 368.363281 -38.089844 L 362.746094 -38.996094 L 362.105469 -39.453125 L 361.625 -39.90625 L 361.460938 -41.125 L 365.195312 -50.640625 L 366.886719 -51.242188 L 369.003906 -51.046875 L 397.148438 -47.257812 L 390.265625 -29.671875 L 391.375 -29.359375 L 392.484375 -29.042969 L 399.617188 -46.738281 L 404.496094 -45.492188 L 401.808594 -41.25 L 402.027344 -33.03125 L 401.605469 -29.226562 L 400.339844 -26.019531 L 398.648438 -22.609375 L 397.382812 -20.804688 L 397.59375 -19.601562 L 398.441406 -18.601562 L 401.191406 -16 L 405.847656 -14.199219 L 407.121094 -13.195312 L 407.121094 -12.394531 L 394.871094 15.871094 Z M 393.390625 17.273438 "/>
</g>
<path style=" stroke:none;fill-rule:nonzero;fill:rgb(39.99939%,39.99939%,39.99939%);fill-opacity:0.3;" d="M 180.964844 51.429688 L 178.429688 51.746094 L 178.464844 51.429688 Z M 180.964844 51.429688 "/>
<path style=" stroke:none;fill-rule:nonzero;fill:rgb(39.99939%,39.99939%,39.99939%);fill-opacity:0.3;" d="M 222.660156 50.78125 L 221.0625 73.242188 L 220.523438 78.503906 L 219.445312 89.910156 L 218.546875 97.804688 L 218.191406 103.246094 L 218.570312 107.8125 L 218.390625 109.566406 L 218.023438 110.621094 L 217.105469 111.492188 L 216.371094 111.664062 L 213.972656 111.480469 L 211.394531 110.769531 L 172.75 102.875 L 177.835938 57.074219 L 204.808594 53.164062 L 203.191406 69.480469 L 204.703125 69.554688 L 207.242188 69.671875 L 209.59375 52.65625 L 210.332031 51.957031 L 221.738281 50.601562 Z M 222.660156 50.78125 "/>
<path style=" stroke:none;fill-rule:nonzero;fill:rgb(39.99939%,39.99939%,39.99939%);fill-opacity:0.3;" d="M 301.652344 137.34375 L 286.027344 163.253906 L 285.289062 163.601562 L 283.992188 163.414062 L 281.953125 162.871094 L 276.945312 160.53125 L 231.464844 132.558594 L 229.890625 131.054688 L 229.230469 128.929688 L 228.039062 123.3125 L 227.375 119.441406 L 226.972656 114.820312 L 226.824219 111.390625 L 227.4375 95.546875 L 228.089844 83.285156 L 228.460938 82.578125 L 229.015625 82.050781 L 230.503906 82.058594 L 252.605469 82.144531 L 252.601562 81.066406 L 252.597656 80.019531 L 230.148438 79.367188 L 229.21875 79.007812 L 228.660156 78.117188 L 228.65625 77.234375 L 230.4375 49.25 L 230.242188 47.742188 L 229.496094 46.675781 L 229.332031 46.597656 L 256.1875 37.496094 L 256.355469 40.636719 L 257.476562 43.476562 L 259.339844 47.03125 L 260.09375 50.402344 L 263.136719 66.132812 L 267.265625 82.632812 L 273.0625 100.207031 L 276.246094 110.324219 L 278.296875 114.769531 L 280.339844 117.617188 L 283.316406 121.359375 L 287.398438 125.464844 L 292.40625 130.285156 L 296.511719 133.089844 L 299.101562 134.53125 L 300.769531 135.429688 L 301.464844 135.871094 L 301.820312 136.246094 L 301.855469 136.582031 L 301.855469 136.953125 Z M 301.652344 137.34375 "/>
<path style=" stroke:none;fill-rule:nonzero;fill:rgb(39.99939%,39.99939%,39.99939%);fill-opacity:0.3;" d="M 186.8125 328.34375 L 150.535156 311.84375 L 178.707031 256.515625 L 215.972656 274.039062 Z M 186.8125 328.34375 "/>
<path style=" stroke:none;fill-rule:nonzero;fill:rgb(39.99939%,39.99939%,39.99939%);fill-opacity:0.3;" d="M 279.367188 166.855469 L 255.753906 203.613281 L 255.292969 204.054688 L 254.753906 204.199219 L 253.980469 204.046875 L 253.285156 203.75 L 252.511719 203.15625 L 252.125 202.199219 L 251.8125 201.238281 L 252.800781 195.132812 L 253.488281 191.972656 L 253.40625 189.320312 L 253.167969 186.523438 L 252.464844 183.28125 L 251.421875 180.347656 L 249.605469 176.601562 L 247.789062 173 L 246.277344 170.550781 L 245.066406 168.242188 L 239.761719 155.570312 L 233.101562 143.320312 L 231.589844 141.160156 L 231.136719 140.007812 L 231.132812 138.859375 L 231.582031 138.140625 L 232.183594 137.855469 L 233.390625 137.863281 L 234.898438 138.15625 L 236.859375 139.316406 L 251.488281 148.152344 L 278.15625 164.835938 L 279.0625 165.417969 L 279.363281 165.992188 Z M 279.367188 166.855469 "/>
<g clip-path="url(#clip2)" clip-rule="nonzero">
<path style=" stroke:none;fill-rule:nonzero;fill:rgb(39.99939%,39.99939%,39.99939%);fill-opacity:0.3;" d="M 307.847656 138.0625 L 367.824219 149.464844 L 369.019531 149.816406 L 369.546875 150.304688 L 369.941406 151.039062 L 369.800781 151.910156 L 360.332031 171.019531 L 360.082031 171.507812 L 359.320312 171.742188 L 357.667969 171.714844 L 356.269531 171.449219 L 353.214844 171.15625 L 315.757812 167.589844 L 299.542969 164.980469 L 290.839844 164.425781 Z M 307.847656 138.0625 "/>
</g>
<g clip-path="url(#clip3)" clip-rule="nonzero">
<path style=" stroke:none;fill-rule:nonzero;fill:rgb(39.99939%,39.99939%,39.99939%);fill-opacity:0.3;" d="M 304.9375 309.257812 L 305.238281 308.890625 L 305.546875 308.726562 L 305.894531 308.601562 L 306.300781 308.492188 L 396.929688 297.089844 L 397.535156 297.394531 L 397.761719 297.835938 L 393.304688 309.074219 L 392.289062 310.984375 L 389.328125 314.339844 L 388.652344 314.769531 L 388.121094 314.90625 L 382.601562 315.265625 L 375.339844 317.285156 L 365.632812 322.242188 L 352.375 335.113281 L 342.792969 346.996094 L 335.894531 365.5625 L 335.714844 369.34375 L 336.652344 378.902344 L 336.589844 382.269531 L 323.292969 394.121094 L 321.875 394.683594 L 321.046875 394.792969 L 320.335938 394.675781 L 279.722656 373.332031 L 283.445312 364.496094 L 279.753906 362.496094 Z M 304.9375 309.257812 "/>
</g>
<g clip-path="url(#clip4)" clip-rule="nonzero">
<path style=" stroke:none;fill-rule:nonzero;fill:rgb(39.99939%,39.99939%,39.99939%);fill-opacity:0.3;" d="M 266.933594 296.164062 L 298.707031 311.238281 L 270.554688 369.023438 L 237.273438 352.179688 Z M 266.933594 296.164062 "/>
</g>
<path style=" stroke:none;fill-rule:nonzero;fill:rgb(39.99939%,39.99939%,39.99939%);fill-opacity:0.3;" d="M 191.726562 331.183594 L 221.820312 276.792969 L 261.515625 295.53125 L 230.574219 350.75 Z M 191.726562 331.183594 "/>
<g clip-path="url(#clip5)" clip-rule="nonzero">
<path style=" stroke:none;fill-rule:nonzero;fill:rgb(39.99939%,39.99939%,39.99939%);fill-opacity:0.3;" d="M 327.199219 258.800781 L 408.261719 258.773438 L 399.78125 290.734375 L 308.132812 302.484375 Z M 327.199219 258.800781 "/>
</g>
<g clip-path="url(#clip6)" clip-rule="nonzero">
<path style=" stroke:none;fill-rule:nonzero;fill:rgb(39.99939%,39.99939%,39.99939%);fill-opacity:0.3;" d="M 382.53125 324.71875 L 374.207031 337.234375 L 364.414062 351.828125 L 355.082031 365.726562 L 349.960938 372.46875 L 348.785156 373.40625 L 348 373.777344 L 345.671875 373.996094 L 345.054688 373.5625 L 344.464844 372.425781 L 345.664062 368.085938 L 346.996094 361.671875 L 348.554688 357.152344 L 350.703125 352.265625 L 352.839844 347.621094 L 354.347656 345.523438 L 364.15625 330.339844 L 369.027344 324.992188 L 373.300781 322.816406 L 379.53125 320.71875 L 380.976562 320.738281 L 381.785156 321.195312 L 382.597656 322.152344 Z M 382.53125 324.71875 "/>
</g>
<g clip-path="url(#clip7)" clip-rule="nonzero">
<path style=" stroke:none;fill-rule:nonzero;fill:rgb(39.99939%,39.99939%,39.99939%);fill-opacity:0.3;" d="M 360.394531 182.085938 L 361.199219 180.933594 L 361.53125 180.617188 L 361.972656 180.515625 L 363.308594 180.539062 L 364.421875 180.773438 L 428.804688 187.867188 L 429.726562 188.074219 L 430.183594 188.394531 L 430.296875 188.9375 L 430.296875 189.371094 L 416.878906 223.167969 L 415.867188 224.925781 L 415.433594 225.46875 L 414.714844 226.148438 L 413.570312 226.433594 L 412.136719 226.585938 L 346.363281 217.304688 L 345.949219 217.167969 L 345.53125 216.628906 L 345.386719 215.960938 L 345.796875 214.632812 L 346.753906 212.382812 Z M 360.394531 182.085938 "/>
</g>
<path style=" stroke:none;fill-rule:nonzero;fill:rgb(39.99939%,39.99939%,39.99939%);fill-opacity:0.3;" d="M 284.9375 170.773438 L 285.902344 169.714844 L 286.414062 169.472656 L 287.050781 169.355469 L 288.707031 169.488281 L 354.644531 177.371094 L 355.40625 177.625 L 355.785156 177.875 L 356.039062 178.367188 L 356.042969 178.730469 L 355.796875 179.703125 L 340.121094 215.425781 L 339.898438 215.761719 L 339.660156 215.992188 L 339.347656 216.054688 L 338.867188 216.074219 L 338.292969 216.089844 L 337.402344 216.082031 L 336.199219 216.046875 L 266.023438 205.425781 L 265.34375 205.019531 L 264.769531 204.199219 L 264.625 203.515625 L 264.765625 202.425781 L 265.191406 201.199219 Z M 284.9375 170.773438 "/>
<g clip-path="url(#clip8)" clip-rule="nonzero">
<path style=" stroke:none;fill-rule:nonzero;fill:rgb(39.99939%,39.99939%,39.99939%);fill-opacity:0.3;" d="M 343.132812 224.042969 L 416.808594 234.5 L 411.21875 254.148438 L 372.308594 254.570312 L 330.246094 253.671875 Z M 343.132812 224.042969 "/>
</g>
<path style=" stroke:none;fill-rule:nonzero;fill:rgb(39.99939%,39.99939%,39.99939%);fill-opacity:0.3;" d="M 260.195312 211.429688 L 337.042969 222.863281 L 324.195312 251.058594 L 242.378906 239.960938 Z M 260.195312 211.429688 "/>
<path style=" stroke:none;fill-rule:nonzero;fill:rgb(39.99939%,39.99939%,39.99939%);fill-opacity:0.3;" d="M 237.121094 246.03125 L 320.660156 257.320312 L 298.835938 305.050781 L 224.574219 269.777344 Z M 237.121094 246.03125 "/>
<path style=" stroke:none;fill-rule:nonzero;fill:rgb(39.99939%,39.99939%,39.99939%);fill-opacity:0.3;" d="M 261.777344 39.007812 L 261.34375 38.921875 L 260.644531 38.03125 L 260.582031 36.003906 L 261.117188 35.824219 Z M 261.777344 39.007812 "/>
<path style=" stroke:none;fill-rule:nonzero;fill:rgb(39.99939%,39.99939%,39.99939%);fill-opacity:0.3;" d="M 326.867188 56.195312 L 326.035156 60.332031 L 325.84375 62.945312 L 326.285156 66.769531 L 326.894531 72.996094 L 326.808594 75.667969 L 325.898438 78.21875 L 319.46875 77.535156 L 318.007812 78.121094 L 316.972656 79.515625 L 316.566406 82.125 L 315.347656 88.75 L 314.519531 90.148438 L 312.851562 91.136719 L 280.746094 90.222656 L 278.640625 90.207031 L 275.90625 89.582031 L 274.007812 88.558594 L 272.738281 87.140625 L 267.433594 65.742188 L 268.804688 65.703125 L 269.789062 68.769531 L 305.625 61.253906 Z M 326.867188 56.195312 "/>
<path style=" stroke:none;fill-rule:nonzero;fill:rgb(39.99939%,39.99939%,39.99939%);fill-opacity:0.3;" d="M 267.816406 62.632812 L 266.757812 62.121094 L 263.347656 49.203125 L 262.488281 44.566406 L 262.484375 43.15625 L 262.609375 43.035156 L 264.585938 52.585938 Z M 267.816406 62.632812 "/>
<path style=" stroke:none;fill-rule:nonzero;fill:rgb(39.99939%,39.99939%,39.99939%);fill-opacity:0.3;" d="M 326.007812 80.523438 L 324.175781 87.21875 L 322.851562 93.597656 L 321.167969 97.347656 L 318.8125 102.730469 L 305.789062 130.484375 L 305.105469 131.296875 L 303.738281 131.613281 L 302.710938 131.4375 L 297.390625 127.617188 L 289.484375 120.820312 L 286.761719 116.992188 L 281.546875 107.03125 L 281.789062 105.617188 L 301.972656 102.25 L 301.351562 100.238281 L 299.257812 99.511719 L 297.285156 98.902344 L 290.886719 100.144531 L 285.222656 101.039062 L 279.308594 101.464844 L 276.878906 95.933594 L 276.875 94.457031 L 277.730469 93.96875 L 279.445312 93.820312 L 282.183594 93.019531 L 282.695312 92.367188 L 291.164062 92.5625 L 313.035156 93.484375 L 314.839844 92.515625 L 316.367188 91.550781 L 317.214844 90.410156 L 317.886719 88.617188 L 318.382812 86.164062 L 319.882812 80.277344 L 320.558594 79.140625 Z M 326.007812 80.523438 "/>
<g clip-path="url(#clip9)" clip-rule="nonzero">
<path style=" stroke:none;fill-rule:nonzero;fill:rgb(39.99939%,39.99939%,39.99939%);fill-opacity:0.3;" d="M 350.988281 11.519531 L 361.109375 13.460938 L 363.773438 13.460938 L 365.636719 12.703125 L 368.5625 9.421875 L 369.628906 8.664062 L 371.757812 9.164062 L 374.957031 10.171875 L 391.210938 20 L 392.011719 21.511719 L 391.480469 23.027344 L 384.835938 38.671875 L 383.238281 42.960938 L 382.175781 47 L 379.253906 54.570312 L 378.191406 59.363281 L 377.394531 62.644531 L 374.207031 70.71875 L 371.015625 76.019531 L 369.953125 81.066406 L 367.570312 100.996094 L 366.777344 106.296875 L 366.578125 106.949219 L 366.273438 107.726562 L 365.351562 108.5 L 364.230469 108.789062 L 362.492188 108.792969 L 358.199219 108.214844 L 349.515625 107.542969 L 336.332031 107.070312 L 326.625 106.59375 L 323.5625 105.433594 L 321.925781 104.757812 L 321.003906 103.789062 L 320.699219 102.824219 L 320.695312 101.46875 L 321.105469 99.820312 L 322.125 97.113281 L 326.304688 85.300781 L 327.933594 79.203125 L 328.339844 75.234375 L 328.335938 73.011719 L 328.414062 66.53125 L 328.390625 63.859375 L 330.203125 54.882812 L 330.628906 54.238281 L 331.566406 54.15625 L 356.792969 56.566406 L 356.964844 55.515625 L 357.132812 54.464844 L 350.648438 53.742188 L 352.859375 43.398438 L 350.425781 42.953125 L 347.996094 42.511719 L 346.058594 52.878906 L 345.714844 53.039062 L 344.863281 52.960938 L 332.816406 50.199219 L 332.046875 49.714844 L 331.960938 49.066406 L 333.582031 45.671875 L 334.773438 42.519531 L 336.390625 39.933594 L 340.605469 29.796875 L 358.566406 37.191406 L 359.410156 35.464844 L 360.25 33.738281 L 342.914062 26.59375 L 342.679688 25.96875 L 346.8125 15.394531 L 349.65625 12.191406 Z M 350.988281 11.519531 "/>
</g>
<g clip-path="url(#clip10)" clip-rule="nonzero">
<path style=" stroke:none;fill-rule:nonzero;fill:rgb(39.99939%,39.99939%,39.99939%);fill-opacity:0.3;" d="M 383.261719 118.773438 L 371.101562 145.386719 L 370.605469 145.976562 L 369.363281 146.097656 L 367.5 145.980469 L 309.066406 136.367188 L 308.199219 136.015625 L 307.949219 135.308594 L 307.949219 134.015625 L 308.445312 132.835938 L 321.226562 108.925781 L 321.847656 108.21875 L 322.96875 107.867188 L 324.085938 107.984375 L 325.949219 108.6875 L 328.933594 109.273438 L 331.296875 109.507812 L 339.128906 109.855469 L 348.449219 109.730469 L 353.796875 110.316406 L 363.367188 111.957031 L 373.191406 113.714844 L 380.027344 115.476562 L 382.140625 116.417969 L 383.136719 117.242188 Z M 383.261719 118.773438 "/>
</g>
<path style=" stroke:none;fill-rule:nonzero;fill:rgb(39.99939%,39.99939%,39.99939%);fill-opacity:0.3;" d="M 91.746094 144.769531 L 92.375 142.15625 L 99.136719 125.308594 L 106.332031 108.464844 L 112.003906 97.441406 L 115.277344 90.582031 L 117.019531 86.839844 L 118.855469 83.269531 L 119.433594 82.722656 L 119.925781 82.722656 L 105.636719 113.851562 Z M 91.746094 144.769531 "/>
<path style=" stroke:none;fill-rule:nonzero;fill:rgb(39.99939%,39.99939%,39.99939%);fill-opacity:0.3;" d="M 84.101562 77.3125 L 116.101562 78.953125 L 116.949219 79.355469 L 117.375 80.160156 L 115.054688 83.78125 L 113.152344 87.402344 L 102.386719 107.921875 L 99.644531 114.5625 L 86.5625 145.953125 L 85.503906 146.355469 L 72.359375 147.152344 L 71.089844 147.152344 L 69.179688 146.746094 L 58.847656 143.664062 L 56.507812 142.753906 L 53.984375 141.070312 L 63.25 120.863281 L 73.308594 124.652344 L 73.601562 123.871094 L 73.898438 123.089844 L 64.574219 118.917969 L 83.042969 77.714844 Z M 84.101562 77.3125 "/>
<path style=" stroke:none;fill-rule:nonzero;fill:rgb(39.99939%,39.99939%,39.99939%);fill-opacity:0.3;" d="M 10.390625 95.703125 L 26.875 108.210938 L 27.554688 108.984375 L 28.238281 110.015625 L 28.648438 111.308594 L 29.628906 126.273438 L 29.355469 126.789062 L 28.675781 126.789062 L 6.894531 116.472656 L 6.347656 115.957031 L 6.074219 115.441406 L 9.710938 96.21875 Z M 10.390625 95.703125 "/>
<path style=" stroke:none;fill-rule:nonzero;fill:rgb(39.99939%,39.99939%,39.99939%);fill-opacity:0.3;" d="M 14.597656 79.066406 L 31.488281 91.445312 L 31.625 91.960938 L 31.355469 92.476562 L 22.941406 101.507812 L 11.226562 93.128906 L 10.953125 92.613281 L 12.699219 82.679688 L 13.511719 80.230469 Z M 14.597656 79.066406 "/>
<path style=" stroke:none;fill-rule:nonzero;fill:rgb(39.99939%,39.99939%,39.99939%);fill-opacity:0.3;" d="M 8.242188 77.515625 L 0.734375 112.839844 L -46.046875 92.828125 L -33.476562 63.191406 L -9.464844 66.457031 Z M 8.242188 77.515625 "/>
<path style=" stroke:none;fill-rule:nonzero;fill:rgb(39.99939%,39.99939%,39.99939%);fill-opacity:0.3;" d="M 53.671875 22.898438 L 57.496094 28.015625 L 48.597656 34.136719 L 48.597656 35.984375 L 48.605469 38.507812 L 59.804688 31.367188 L 67.519531 41.183594 L 68.734375 51.960938 L 67.609375 73.933594 L 67.296875 80.039062 L 68.492188 80.609375 L 69.6875 81.175781 L 71.179688 78.625 L 74.167969 79.191406 L 47.667969 133.652344 L 39.964844 129.199219 L 37.394531 125.953125 L 49.75 109.984375 L 48.648438 109.3125 L 47.410156 108.558594 L 36.703125 122.386719 L 36 122.765625 L 35.179688 122.347656 L 31.789062 114.925781 L 31.640625 113.785156 L 31.726562 112.40625 L 43.199219 102.066406 L 43.039062 101.09375 L 42.867188 100.96875 L 41.914062 100.273438 L 32.820312 109.125 L 31.878906 108.800781 L 24.601562 103.609375 L 24.515625 103.285156 L 24.855469 102.394531 L 33.023438 93.773438 L 51.644531 72.464844 L 50.714844 71.785156 L 49.523438 70.914062 L 33.222656 89.800781 L 22.453125 81.457031 L 47.214844 53.660156 L 46.382812 52.195312 L 45.40625 50.484375 L 20.054688 79.191406 L 14.558594 74.5 L 25.347656 34.667969 L 43.011719 37.390625 L 44.882812 22.917969 L 45.804688 22.332031 Z M 53.671875 22.898438 "/>
<path style=" stroke:none;fill-rule:nonzero;fill:rgb(39.99939%,39.99939%,39.99939%);fill-opacity:0.3;" d="M -43.351562 -38.792969 L -32.136719 -36.46875 L -30.144531 -35.769531 L -28.648438 -34.828125 L -27.148438 -33.421875 L 5.527344 -6.625 L 6.027344 -5.917969 L 5.53125 -4.976562 L -0.90625 10.589844 L -1.152344 12.003906 L -0.402344 12.945312 L 1.089844 13.179688 L 6.570312 14.585938 L -9.003906 63.40625 L -9.746094 64.347656 L -11.738281 64.585938 L -15.722656 64.355469 L -22.445312 62.710938 L -27.675781 61.304688 L -28.671875 60.597656 L -29.421875 59.65625 L -18.53125 -4.390625 L -19.03125 -5.332031 L -20.773438 -6.035156 L -20.902344 -5.796875 L -51.007812 -13.8125 L -51.511719 -14.753906 L -45.09375 -38.316406 Z M -43.351562 -38.792969 "/>
<path style=" stroke:none;fill-rule:nonzero;fill:rgb(39.99939%,39.99939%,39.99939%);fill-opacity:0.3;" d="M 75.664062 48.835938 L 88.84375 57.433594 L 95.226562 61.535156 L 101.191406 64.273438 L 112.097656 69.363281 L 119.089844 72.300781 L 120.324219 72.886719 L 120.941406 73.472656 L 120.941406 74.253906 L 119.304688 76.988281 L 118.277344 76.984375 L 99.15625 74.035156 L 85.992188 72.855469 L 77.765625 72.457031 L 74.066406 72.847656 L 72.214844 72.457031 L 71.183594 72.066406 L 70.976562 71.089844 L 72.578125 49.222656 L 73.195312 48.25 L 74.222656 48.054688 Z M 75.664062 48.835938 "/>
<path style=" stroke:none;fill-rule:nonzero;fill:rgb(39.99939%,39.99939%,39.99939%);fill-opacity:0.3;" d="M 73.171875 39.238281 L 74.808594 39.675781 L 76.160156 41.023438 L 82.515625 46.804688 L 95.8125 56.628906 L 104.597656 62.179688 L 98.300781 59.554688 L 96.242188 58.1875 L 73.589844 42.945312 L 72.5625 41.773438 L 72.558594 40.214844 Z M 73.171875 39.238281 "/>
<path style=" stroke:none;fill-rule:nonzero;fill:rgb(39.99939%,39.99939%,39.99939%);fill-opacity:0.3;" d="M 71.070312 35.738281 L 69.871094 34.941406 L 68.019531 33.769531 L 61.769531 24.421875 L 62.867188 25.417969 L 67.488281 30.621094 Z M 71.070312 35.738281 "/>
<path style=" stroke:none;fill-rule:nonzero;fill:rgb(39.99939%,39.99939%,39.99939%);fill-opacity:0.3;" d="M 30.03125 21.589844 L 34.953125 22.753906 L 37.566406 23.042969 L 42.328125 23.042969 L 41.167969 34.457031 L 26.671875 31.792969 L 28.957031 22.027344 Z M 30.03125 21.589844 "/>
<path style=" stroke:none;fill-rule:nonzero;fill:rgb(39.99939%,39.99939%,39.99939%);fill-opacity:0.3;" d="M 25.945312 16.597656 L 15.730469 54.34375 L 8.027344 51.480469 L 7.507812 53.59375 L 6.9375 55.914062 L 14.367188 58.773438 L 11.09375 71.027344 L -4.324219 62.960938 L 10.773438 12.046875 Z M 25.945312 16.597656 "/>
<path style=" stroke:none;fill-rule:nonzero;fill:rgb(39.99939%,39.99939%,39.99939%);fill-opacity:0.3;" d="M -90.988281 233.097656 L -51.890625 223.03125 L -39.4375 228.535156 L -51.875 245.117188 L -52.84375 245.65625 L -53.820312 245.964844 L -54.386719 245.964844 L -61.546875 237.34375 L -63.253906 238.363281 L -64.789062 239.269531 L -56.902344 246.351562 L -56.492188 247.195312 L -46.898438 257.203125 L -46.515625 256.777344 L -45.925781 256.125 L -51.214844 249.734375 L -51.257812 248.273438 L -36.859375 229.671875 L -14.660156 239.488281 L -29.238281 264.386719 L -25.953125 264.386719 L -12.535156 240.433594 L 2 246.945312 L -5.738281 271.195312 L -4.171875 271.617188 L -2.753906 271.996094 L 4.675781 248.050781 L 16.121094 253.375 L 4.171875 289.601562 L -28.140625 301.675781 L -26.726562 274.925781 L -28.328125 274.699219 L -30.503906 302.242188 L -55.300781 308.125 Z M -90.988281 233.097656 "/>
<path style=" stroke:none;fill-rule:nonzero;fill:rgb(39.99939%,39.99939%,39.99939%);fill-opacity:0.3;" d="M 9.253906 287.886719 L 19.613281 255.683594 L 40.898438 265.511719 L 35.589844 278.988281 Z M 9.253906 287.886719 "/>
<path style=" stroke:none;fill-rule:nonzero;fill:rgb(39.99939%,39.99939%,39.99939%);fill-opacity:0.3;" d="M 33.992188 285.933594 L 8.414062 355.792969 L -19.21875 345.070312 L -0.425781 298.492188 Z M 33.992188 285.933594 "/>
<path style=" stroke:none;fill-rule:nonzero;fill:rgb(39.99939%,39.99939%,39.99939%);fill-opacity:0.3;" d="M 170.445312 192.582031 L 169.53125 181.414062 L 169.78125 179.59375 L 170.542969 177.777344 L 176.507812 164.445312 L 176.507812 162.625 L 176.5 160.5625 L 175.988281 158.375 L 175.34375 155.949219 L 175.078125 150.121094 L 175.460938 149.636719 L 175.96875 149.519531 L 176.609375 149.761719 L 181.589844 152.058594 L 170.277344 195.429688 L 170.273438 194.632812 Z M 170.445312 192.582031 "/>
<path style=" stroke:none;fill-rule:nonzero;fill:rgb(39.99939%,39.99939%,39.99939%);fill-opacity:0.3;" d="M 158.40625 240.925781 L 143.367188 234.550781 L 143.246094 234.199219 L 143.738281 233.613281 L 145.703125 230.214844 L 146.6875 229.75 L 148.164062 229.632812 L 150.136719 229.167969 L 152.722656 228.351562 L 154.445312 227.535156 L 156.289062 224.84375 L 157.394531 223.203125 L 158.746094 221.683594 L 160.222656 219.925781 L 168.582031 201.921875 Z M 158.40625 240.925781 "/>
<path style=" stroke:none;fill-rule:nonzero;fill:rgb(39.99939%,39.99939%,39.99939%);fill-opacity:0.3;" d="M 143.953125 192.28125 L 144.328125 175.851562 L 144.046875 168.535156 L 143.636719 165.835938 L 143.089844 163.269531 L 142.414062 161.601562 L 140.238281 154.023438 L 139.832031 151.585938 L 139.691406 149.144531 L 139.242188 141.910156 L 139.238281 141.527344 L 139.507812 141.269531 L 140.050781 141.269531 L 159.347656 143.105469 L 159.261719 142.394531 L 159.210938 141.949219 L 139.910156 139.601562 L 139.371094 139.34375 L 138.828125 138.828125 L 138.558594 137.929688 L 138.421875 136.648438 L 137.867188 129.074219 L 137.59375 126.636719 L 137.554688 107.875 L 137.15625 106.128906 L 136.101562 104.507812 L 131.242188 97.046875 L 131.328125 96.722656 L 131.539062 96.523438 L 132.222656 96.722656 L 136.265625 98.851562 L 139.328125 100.871094 L 140.746094 101.992188 L 141.453125 103.339844 L 142.28125 105.355469 L 142.636719 106.472656 L 142.757812 107.257812 L 143.230469 108.15625 L 143.9375 108.9375 L 144.761719 109.277344 L 145.820312 109.503906 L 146.882812 109.839844 L 147.351562 110.175781 L 148.058594 110.851562 L 148.296875 111.410156 L 148.296875 112.304688 L 148.300781 113.089844 L 147.832031 114.765625 L 146.777344 117.5625 L 146.664062 118.234375 L 147.015625 119.019531 L 147.488281 119.578125 L 149.40625 121.355469 L 154.769531 124.074219 L 158.625 126.3125 L 163.488281 129.511719 L 165.167969 133.019531 L 167.539062 143.527344 L 167.542969 144.3125 L 167.34375 147.664062 L 167.757812 152.414062 L 168.167969 154.59375 L 168.574219 155.878906 L 168.847656 156.90625 L 169.117188 158.191406 L 169.257812 159.472656 L 169.394531 160.5 L 169.261719 161.914062 L 169.261719 162.941406 L 169.132812 164.609375 L 168.867188 166.789062 L 168.597656 167.945312 L 166.589844 174.996094 L 165.785156 177.179688 L 165.515625 178.71875 L 165.382812 180 L 165.386719 181.796875 L 165.945312 192.324219 L 166.300781 194.71875 L 166.078125 196.421875 L 165.1875 198.546875 L 155.171875 220.214844 L 153.835938 222.550781 L 152.945312 224.25 L 151.605469 225.523438 L 150.265625 226.371094 L 146.46875 227.214844 L 143.339844 228.0625 L 142 228.910156 L 139.769531 232.734375 L 138.652344 233.15625 L 131.492188 229.742188 L 131.269531 228.890625 L 131.488281 227.191406 L 135.496094 217.414062 L 141.277344 200.199219 L 143.28125 194.671875 Z M 143.953125 192.28125 "/>
<path style=" stroke:none;fill-rule:nonzero;fill:rgb(39.99939%,39.99939%,39.99939%);fill-opacity:0.3;" d="M 135.472656 197.660156 L 98.417969 188.390625 L 79.121094 183.207031 L 89.070312 158.0625 L 89.769531 157.230469 L 90.472656 157.066406 L 92.050781 157.066406 L 94.152344 157.402344 L 101.515625 159.34375 L 95.496094 173.359375 L 99.410156 174.039062 L 105.429688 160.53125 L 136.234375 168.449219 L 137.289062 169.117188 L 138.167969 170.453125 L 138.519531 171.953125 L 138.875 173.953125 L 139.769531 184.449219 L 139.59375 185.78125 L 136.402344 196.382812 Z M 135.472656 197.660156 "/>
<path style=" stroke:none;fill-rule:nonzero;fill:rgb(39.99939%,39.99939%,39.99939%);fill-opacity:0.3;" d="M 131.503906 104.335938 L 133.984375 135.382812 L 133.664062 135.660156 L 133.300781 135.710938 L 119.167969 133.699219 L 120.40625 125.492188 L 119.121094 125.3125 L 117.527344 125.089844 L 115.871094 135.386719 L 116.082031 135.734375 L 116.554688 136.035156 L 134.140625 138.199219 L 134.414062 138.394531 L 135.96875 151.578125 L 136.628906 153.453125 L 137.292969 156.367188 L 137.742188 163.445312 L 137.308594 164.484375 L 136.652344 164.898438 L 135.121094 165.105469 L 93.710938 153.8125 L 93.054688 152.980469 L 92.175781 151.9375 L 91.734375 149.648438 L 91.511719 147.566406 L 91.722656 144.863281 L 91.746094 144.769531 L 105.636719 113.851562 L 119.925781 82.722656 L 120.011719 82.722656 L 121.027344 83 L 121.75 83.824219 L 122.042969 84.925781 L 122.773438 87.402344 L 124.078125 89.878906 L 125.675781 92.496094 L 126.835938 94.285156 L 128 96.074219 L 129.160156 97.589844 L 130.03125 99.242188 L 130.757812 101.304688 L 131.050781 102.957031 Z M 131.503906 104.335938 "/>
<path style=" stroke:none;fill-rule:nonzero;fill:rgb(39.99939%,39.99939%,39.99939%);fill-opacity:0.3;" d="M 175.082031 114.453125 L 168 113.171875 L 167.898438 114.277344 L 167.792969 115.382812 L 175.589844 116.777344 L 177.597656 125.988281 L 153.824219 117.703125 L 153.058594 116.972656 L 152.800781 116.246094 L 152.671875 115.398438 L 152.796875 114.1875 L 153.050781 113.09375 L 153.429688 112.128906 L 153.9375 111.402344 L 154.953125 109.222656 L 155.714844 108.253906 L 156.730469 107.289062 L 158.894531 105.472656 L 159.402344 105.234375 L 160.550781 105.234375 L 163.097656 105.484375 L 173.546875 107.40625 Z M 175.082031 114.453125 "/>
<path style=" stroke:none;fill-rule:nonzero;fill:rgb(39.99939%,39.99939%,39.99939%);fill-opacity:0.3;" d="M 182.390625 147.980469 L 178.246094 146.050781 L 177.988281 145.566406 L 177.988281 144.960938 L 178.242188 144.476562 L 178.625 144.113281 L 179.257812 143.628906 L 181.175781 142.410156 Z M 182.390625 147.980469 "/>
<path style=" stroke:none;fill-rule:nonzero;fill:rgb(39.99939%,39.99939%,39.99939%);fill-opacity:0.3;" d="M 64.421875 224.859375 L 123.613281 241.402344 L 119.417969 256.636719 L 59.796875 237.0625 Z M 64.421875 224.859375 "/>
<path style=" stroke:none;fill-rule:nonzero;fill:rgb(39.99939%,39.99939%,39.99939%);fill-opacity:0.3;" d="M 110.988281 293.621094 L 90.257812 282.660156 L 88.957031 280.945312 L 52.1875 263.886719 L 51.683594 263.40625 L 51.429688 262.804688 L 51.753906 261.78125 L 58.214844 241.910156 L 58.398438 241.679688 L 58.710938 241.496094 L 59.148438 241.425781 L 60.070312 241.585938 L 98.289062 253.59375 L 117.878906 260.945312 L 118.132812 261.425781 L 118.386719 262.507812 L 115.632812 275.359375 L 114.738281 275.769531 L 81.125 262.34375 L 80.117188 265.226562 L 114.375 279.445312 Z M 110.988281 293.621094 "/>
<path style=" stroke:none;fill-rule:nonzero;fill:rgb(39.99939%,39.99939%,39.99939%);fill-opacity:0.3;" d="M 155.957031 68.492188 L 156.164062 71.90625 L 157.835938 77.175781 L 158.527344 79.261719 L 159.316406 81.132812 L 160.757812 82.503906 L 162.203125 84.253906 L 162.992188 85.125 L 163.648438 86.125 L 164.042969 87.496094 L 164.308594 88.617188 L 155.636719 86.113281 L 155.554688 86.992188 L 155.46875 87.871094 L 163.972656 90.105469 L 163.664062 93.226562 L 163.011719 94.46875 L 161.964844 95.960938 L 160.660156 97.203125 L 157.785156 99.9375 L 155.953125 101.554688 L 152.421875 105.035156 L 149.8125 108.890625 L 149.417969 109.265625 L 148.765625 109.261719 L 148.109375 109.011719 L 146.535156 107.886719 L 145.484375 106.265625 L 144.035156 102.527344 L 143.242188 100.035156 L 142.457031 99.035156 L 141.273438 98.285156 L 129.816406 92.433594 L 128.550781 91.785156 L 126.582031 90.539062 L 125.398438 89.414062 L 130.339844 89.214844 L 130.039062 88.535156 L 129.734375 87.855469 L 124.347656 88.042969 L 123.558594 86.546875 L 122.902344 85.175781 L 122.242188 82.808594 L 121.847656 81.5625 L 121.84375 80.191406 L 122.234375 79.570312 L 124.71875 75.710938 L 125.503906 75.460938 L 126.550781 75.464844 L 127.734375 75.714844 L 140.976562 79.351562 L 141.234375 78.332031 L 141.296875 78.105469 L 142.628906 78.59375 Z M 155.957031 68.492188 "/>
<path style=" stroke:none;fill-rule:nonzero;fill:rgb(39.99939%,39.99939%,39.99939%);fill-opacity:0.3;" d="M 132.226562 74.78125 L 127.074219 73.347656 L 126.808594 72.847656 L 126.808594 72.792969 Z M 132.226562 74.78125 "/>
<path style=" stroke:none;fill-rule:nonzero;fill:rgb(39.99939%,39.99939%,39.99939%);fill-opacity:0.3;" d="M 178.429688 51.746094 L 177.972656 51.800781 L 178.464844 51.429688 Z M 178.429688 51.746094 "/>
<path style=" stroke:none;fill-rule:nonzero;fill:rgb(39.99939%,39.99939%,39.99939%);fill-opacity:0.3;" d="M 172.75 102.875 L 163.425781 100.96875 L 163.242188 100.089844 L 163.238281 98.683594 L 164.15625 97.28125 L 165.445312 95.882812 L 167.101562 93.601562 L 168.019531 91.671875 L 168.199219 89.214844 L 168.195312 86.757812 L 167.636719 84.824219 L 166.898438 83.417969 L 162.632812 74.804688 L 161.335938 71.992188 L 160.777344 70.0625 L 160.589844 67.425781 L 160.449219 65.085938 L 169.40625 58.292969 L 177.835938 57.074219 Z M 172.75 102.875 "/>
<path style=" stroke:none;fill-rule:nonzero;fill:rgb(39.99939%,39.99939%,39.99939%);fill-opacity:0.3;" d="M 146.101562 308.570312 L 135.402344 303.546875 L 157.066406 258.21875 L 157.785156 254.773438 L 149.898438 247.417969 L 149.214844 245.472656 L 144.21875 242.761719 L 142.851562 239.574219 L 142.960938 238.820312 L 173.535156 253.773438 Z M 146.101562 308.570312 "/>
<path style=" stroke:none;fill-rule:nonzero;fill:rgb(39.99939%,39.99939%,39.99939%);fill-opacity:0.3;" d="M 77.652344 186.378906 L 135.191406 200.65625 L 129.421875 217.535156 L 71.726562 202.660156 Z M 77.652344 186.378906 "/>
<path style=" stroke:none;fill-rule:nonzero;fill:rgb(39.99939%,39.99939%,39.99939%);fill-opacity:0.3;" d="M 70.738281 205.714844 L 128.960938 220.941406 L 124.460938 237.140625 L 65.273438 220.972656 Z M 70.738281 205.714844 "/>
<path style=" stroke:none;fill-rule:nonzero;fill:rgb(39.99939%,39.99939%,39.99939%);fill-opacity:0.3;" d="M 128.953125 233.390625 L 136.550781 235.628906 L 136.960938 240.382812 L 138.085938 242.949219 L 140.113281 244.875 L 142.8125 248.300781 L 143.714844 251.292969 L 143.726562 257.917969 L 143.285156 262.835938 L 141.722656 267.964844 L 139.933594 271.808594 L 138.140625 275.226562 L 136.796875 278.21875 L 135.902344 279.5 L 134.554688 280.140625 L 132.984375 281.632812 L 131.191406 283.984375 L 130.523438 286.121094 L 127.625 300.019531 L 118.628906 295.300781 L 117.953125 294.445312 L 118.386719 284.394531 L 120.609375 270.496094 L 123.726562 254.039062 Z M 128.953125 233.390625 "/>
<path style=" stroke:none;fill-rule:nonzero;fill:rgb(39.99939%,39.99939%,39.99939%);fill-opacity:0.3;" d="M -29.523438 192.160156 L -11.503906 157.347656 L -9.398438 158.179688 L -7.734375 155.183594 L -6.074219 152.183594 L -8.359375 150.6875 L 5.285156 123.710938 L 5.808594 123.210938 L 6.6875 123.042969 L 7.914062 123.207031 L 9.671875 123.875 L 46.035156 140.691406 L 46.5625 141.023438 L 46.914062 141.855469 L 46.914062 142.855469 L 46.742188 143.855469 L 46.21875 145.519531 L -2.882812 239.042969 L -3.511719 240.234375 L -3.71875 240.433594 L -3.988281 240.574219 L -4.375 240.6875 L -4.625 240.6875 L -11.695312 237.542969 L -20.785156 233.410156 L -43.488281 222.199219 L -43.691406 221.734375 L -43.710938 221.40625 L -43.65625 220.953125 L -43.472656 220.398438 L -43.273438 220.050781 Z M -29.523438 192.160156 "/>
<path style=" stroke:none;fill-rule:nonzero;fill:rgb(39.99939%,39.99939%,39.99939%);fill-opacity:0.3;" d="M 29.046875 190.929688 L 51.953125 146.800781 L 52.652344 146.300781 L 53.53125 146.300781 L 55.285156 146.46875 L 81.257812 154.144531 L 82.660156 154.644531 L 83.363281 155.476562 L 83.542969 156.144531 L 83.367188 157.308594 L 65 202.757812 L 64.484375 203.445312 L 64.070312 203.640625 L 63.347656 203.640625 L 61.902344 203.441406 L 60.25 202.753906 L 29.574219 191.277344 Z M 29.046875 190.929688 "/>
<path style=" stroke:none;fill-rule:nonzero;fill:rgb(39.99939%,39.99939%,39.99939%);fill-opacity:0.3;" d="M 58.847656 143.664062 L 54.328125 142.3125 L 53.691406 141.707031 L 53.984375 141.070312 L 56.507812 142.753906 Z M 58.847656 143.664062 "/>
<path style=" stroke:none;fill-rule:nonzero;fill:rgb(39.99939%,39.99939%,39.99939%);fill-opacity:0.3;" d="M 1.679688 118.851562 L -20.023438 160.179688 L -80.730469 131.796875 L -47.949219 97.042969 Z M 1.679688 118.851562 "/>
<path style=" stroke:none;fill-rule:nonzero;fill:rgb(39.99939%,39.99939%,39.99939%);fill-opacity:0.3;" d="M 27.800781 194.460938 L 62.53125 208.558594 L 53.425781 233.726562 L 38.582031 223.527344 L 37.476562 224.578125 L 36.375 225.625 L 51.691406 235.765625 L 52.457031 236.636719 L 52.691406 237.21875 L 52.421875 238.300781 L 44.308594 260.234375 L 22.078125 250.875 L 30.472656 238.0625 L 27.628906 236.328125 L 18.464844 249.609375 L 6.601562 244.042969 L 5.527344 243.167969 L 5.066406 242.441406 L 4.757812 241.496094 L 4.757812 240.40625 Z M 27.800781 194.460938 "/>
<g clip-path="url(#clip11)" clip-rule="nonzero">
<path style=" stroke:none;fill-rule:nonzero;fill:rgb(39.99939%,39.99939%,39.99939%);fill-opacity:0.3;" d="M -0.628906 395.464844 L -27.972656 390.671875 L -26.367188 363.933594 L -21.910156 352.792969 L -19.03125 352.964844 L -18.257812 351.335938 L 6.652344 361.472656 L 0.132812 379.441406 Z M -0.628906 395.464844 "/>
</g>
<path style=" stroke:none;fill-rule:nonzero;fill:rgb(39.99939%,39.99939%,39.99939%);fill-opacity:0.3;" d="M 141.527344 46.417969 L 163.871094 51.910156 L 165.164062 52.613281 L 165.722656 54.019531 L 163.894531 55.203125 L 161.789062 56.328125 L 158.164062 58.214844 L 157.058594 58.914062 L 156.691406 59.617188 L 156.140625 60.667969 L 155.773438 61.898438 L 155.777344 63.125 L 155.78125 65.585938 L 155.957031 68.492188 L 142.628906 78.59375 L 141.296875 78.105469 L 141.496094 77.359375 L 132.226562 74.78125 L 126.808594 72.792969 L 126.808594 72.101562 L 127.199219 71.480469 L 130.464844 65.753906 L 130.988281 65.503906 L 131.773438 65.507812 L 132.957031 65.757812 L 151.175781 71.148438 L 151.523438 69.691406 L 151.824219 68.410156 L 132.683594 62.363281 L 132.550781 61.863281 L 132.683594 61.242188 L 139.730469 47.429688 L 140.121094 46.929688 L 140.644531 46.683594 Z M 141.527344 46.417969 "/>
<path style=" stroke:none;fill-rule:nonzero;fill:rgb(39.99939%,39.99939%,39.99939%);fill-opacity:0.3;" d="M 161.855469 7.546875 L 166.25 8.0625 L 171.339844 8.574219 L 182.050781 10.613281 L 186.613281 11.460938 L 191.175781 12.3125 L 198.894531 13.679688 L 201.351562 14.859375 L 202.40625 15.863281 L 207.328125 21.398438 L 210.144531 25.585938 L 211.023438 27.429688 L 211.554688 29.4375 L 211.910156 31.273438 L 212.265625 33.617188 L 211.746094 36.121094 L 209.140625 44.796875 L 208.617188 46.132812 L 207.917969 46.964844 L 206.34375 47.628906 L 204.941406 47.957031 L 200.910156 48.945312 L 180.964844 51.429688 L 178.464844 51.429688 L 177.972656 51.800781 L 169.507812 52.855469 L 168.097656 50.511719 L 165.8125 49.839844 L 162.648438 48.996094 L 143.488281 44.441406 L 143.484375 43.773438 L 144.011719 42.9375 L 150.835938 28.246094 L 151.710938 27.914062 L 152.238281 28.082031 L 169.109375 30.792969 L 169.808594 30.460938 L 195.4375 34.050781 L 199.671875 35.902344 L 199.46875 41.015625 L 200.894531 41.757812 L 202.933594 39.886719 L 205.792969 37.265625 L 206.304688 32.753906 L 203.675781 32.410156 L 202.972656 31.574219 L 202.792969 29.734375 L 194.902344 29.035156 L 194.554688 31.207031 L 191.398438 30.527344 L 192.605469 23.011719 L 191.464844 22.925781 L 190.324219 22.835938 L 189.113281 29.683594 L 188.414062 29.847656 L 186.835938 29.84375 L 175.421875 27.304688 L 173.308594 25.625 L 173.308594 23.953125 L 165.753906 22.933594 L 164.703125 24.933594 L 163.828125 25.097656 L 154.164062 23.40625 L 153.984375 22.738281 L 160.804688 8.546875 Z M 161.855469 7.546875 "/>
<path style=" stroke:none;fill-rule:nonzero;fill:rgb(39.99939%,39.99939%,39.99939%);fill-opacity:0.3;" d="M 160.449219 65.085938 L 160.207031 61.105469 L 160.757812 60.054688 L 161.496094 59.878906 L 169.242188 58.316406 L 169.40625 58.292969 Z M 160.449219 65.085938 "/>
<path style=" stroke:none;fill-rule:nonzero;fill:rgb(39.99939%,39.99939%,39.99939%);fill-opacity:0.3;" d="M 229.011719 -7.386719 L 227.808594 -1.382812 L 226.945312 3.457031 L 226.261719 8.800781 L 225.585938 16.648438 L 224.90625 23.996094 L 224.394531 29.171875 L 222.332031 42.363281 L 222.160156 43.699219 L 221.460938 44.195312 L 220.234375 44.523438 L 215.332031 44.835938 L 214.453125 44.496094 L 213.75 43.828125 L 213.574219 42.488281 L 213.917969 40.484375 L 215.472656 31.46875 L 215.289062 29.464844 L 214.761719 27.957031 L 210.535156 20.085938 L 205.960938 13.214844 L 202.089844 7.1875 L 199.980469 3.335938 L 199.09375 -0.0117188 L 199.4375 -2.347656 L 200.132812 -4.515625 L 201.359375 -5.515625 L 203.109375 -6.34375 L 205.734375 -6.667969 L 208.714844 -6.652344 L 213.617188 -6.796875 L 219.21875 -7.105469 L 223.589844 -7.582031 L 226.035156 -9.242188 L 227.082031 -9.902344 L 228.304688 -10.0625 L 229.007812 -9.558594 Z M 229.011719 -7.386719 "/>
<path style=" stroke:none;fill-rule:nonzero;fill:rgb(39.99939%,39.99939%,39.99939%);fill-opacity:0.3;" d="M 74.808594 39.675781 L 128.914062 54.125 L 129.53125 54.710938 L 129.738281 55.6875 L 124.011719 68.371094 L 123.394531 68.957031 L 122.164062 68.953125 L 119.902344 68.558594 L 104.597656 62.179688 L 95.8125 56.628906 L 82.515625 46.804688 L 76.160156 41.023438 Z M 74.808594 39.675781 "/>
<path style=" stroke:none;fill-rule:nonzero;fill:rgb(39.99939%,39.99939%,39.99939%);fill-opacity:0.3;" d="M 138.734375 35.984375 L 130.960938 51.394531 L 129.730469 51.78125 L 127.878906 51.390625 L 71.933594 36.308594 L 71.070312 35.738281 L 67.488281 30.621094 L 62.867188 25.417969 L 61.769531 24.421875 L 59.144531 20.5 L 59.144531 19.523438 L 99.265625 27.34375 L 111.808594 29.503906 L 137.296875 35.785156 Z M 138.734375 35.984375 "/>
<path style=" stroke:none;fill-rule:nonzero;fill:rgb(39.99939%,39.99939%,39.99939%);fill-opacity:0.3;" d="M 111.347656 4.523438 L 121.828125 6.097656 L 127.171875 7.664062 L 148.542969 14.339844 L 149.160156 14.925781 L 149.574219 16.097656 L 148.960938 18.246094 L 141.191406 32.480469 L 137.113281 31.707031 L 119.925781 27.964844 L 110.769531 24.824219 L 109.742188 24.238281 L 109.328125 22.871094 L 110.9375 5.109375 Z M 111.347656 4.523438 "/>
<path style=" stroke:none;fill-rule:nonzero;fill:rgb(39.99939%,39.99939%,39.99939%);fill-opacity:0.3;" d="M 50.851562 -8.570312 L 58.675781 -6.035156 L 73.292969 -2.71875 L 82.34375 -1.9375 L 86.871094 0.015625 L 91.195312 1.777344 L 95.511719 2.558594 L 102.09375 3.34375 L 106 3.738281 L 107.234375 4.714844 L 105.835938 23.453125 L 105.21875 24.429688 L 104.191406 24.816406 L 102.753906 25.011719 L 58.3125 16.992188 L 55.636719 16.015625 L 53.988281 15.042969 L 53.574219 14.066406 L 49.207031 -7.203125 Z M 50.851562 -8.570312 "/>
<path style=" stroke:none;fill-rule:nonzero;fill:rgb(39.99939%,39.99939%,39.99939%);fill-opacity:0.3;" d="M 162.949219 -8.019531 L 153.589844 10.234375 L 152.976562 10.625 L 151.546875 10.621094 L 150.320312 10.421875 L 139.679688 6.320312 L 136.402344 5.148438 L 123.714844 2.019531 L 123.097656 1.238281 L 122.6875 0.265625 L 132.664062 -21.6875 L 133.480469 -22.074219 L 134.300781 -22.074219 L 136.144531 -21.292969 L 140.238281 -18.953125 L 162.539062 -8.992188 Z M 162.949219 -8.019531 "/>
<path style=" stroke:none;fill-rule:nonzero;fill:rgb(39.99939%,39.99939%,39.99939%);fill-opacity:0.3;" d="M 126.402344 -80.785156 L 135.613281 -76.886719 L 140.324219 -74.351562 L 155.261719 -65.578125 L 155.671875 -64.796875 L 155.265625 -64.019531 L 131.210938 -31.601562 L 130.398438 -29.660156 L 118.386719 -0.125 L 117.777344 0.648438 L 116.957031 0.648438 L 111.429688 -0.132812 L 110.8125 -0.71875 L 110.609375 -1.496094 L 112.175781 -35.902344 L 113.175781 -45.621094 L 116.8125 -67.96875 L 117.832031 -70.300781 L 124.96875 -80.785156 Z M 126.402344 -80.785156 "/>
<path style=" stroke:none;fill-rule:nonzero;fill:rgb(39.99939%,39.99939%,39.99939%);fill-opacity:0.3;" d="M 227.234375 45.433594 L 226.894531 44.890625 L 226.519531 43.648438 L 228.867188 21.34375 L 229.238281 20.8125 L 229.980469 20.640625 L 230.148438 20.625 L 229.328125 26.574219 Z M 227.234375 45.433594 "/>
<path style=" stroke:none;fill-rule:nonzero;fill:rgb(39.99939%,39.99939%,39.99939%);fill-opacity:0.3;" d="M 231.886719 8.636719 L 233.136719 1.691406 L 233.652344 -1.640625 L 234.433594 -5.34375 L 238.574219 -17.027344 L 244.617188 -39.605469 L 247.136719 -48.695312 L 246.089844 -43.363281 L 241.464844 -26.023438 L 237.421875 -12.730469 L 233.953125 -1.167969 Z M 231.886719 8.636719 "/>
<path style=" stroke:none;fill-rule:nonzero;fill:rgb(39.99939%,39.99939%,39.99939%);fill-opacity:0.3;" d="M 231.027344 14.265625 L 230.902344 14.117188 L 231.523438 10.671875 Z M 231.027344 14.265625 "/>
<path style=" stroke:none;fill-rule:nonzero;fill:rgb(39.99939%,39.99939%,39.99939%);fill-opacity:0.3;" d="M 173.597656 -16.167969 L 177.9375 -24.855469 L 178.628906 -25.789062 L 179.519531 -26.070312 L 180.410156 -26.160156 L 189.707031 -25.375 L 190.496094 -25.183594 L 190.894531 -24.902344 L 191.09375 -24.617188 L 191.289062 -24.242188 L 181.160156 -1.832031 L 182.195312 -1.59375 L 183.238281 -1.355469 L 193.476562 -24.144531 L 193.871094 -24.710938 L 194.464844 -25.082031 L 195.054688 -25.269531 L 200.292969 -24.683594 L 214.21875 -23.433594 L 214.617188 -25.222656 L 214.882812 -26.417969 L 182.6875 -29.175781 L 182.09375 -29.554688 L 181.695312 -30.027344 L 181.695312 -30.78125 L 181.792969 -31.816406 L 185.136719 -38.117188 L 206.457031 -80.351562 L 217.980469 -100.574219 L 224.671875 -111.1875 L 235.085938 -125.832031 L 241.78125 -134.640625 L 242.917969 -136.546875 L 244.191406 -137.191406 L 244.972656 -137.089844 L 245.367188 -136.710938 L 245.738281 -135.96875 L 247.472656 -127.527344 L 249.234375 -116.511719 L 251.863281 -101.464844 L 251.496094 -93.320312 L 247.238281 -87.308594 L 244.835938 -85.027344 L 239.839844 -82.308594 L 221.59375 -74.457031 L 220.335938 -71.316406 L 225.039062 -66.59375 L 231.082031 -61.09375 L 229.421875 -22.007812 L 228.746094 -18.769531 L 227.960938 -17.171875 L 227.175781 -16.046875 L 226.390625 -15.203125 L 225.5 -14.164062 L 224.0625 -13.085938 L 222.734375 -12.382812 L 220.503906 -11.558594 L 218.484375 -11 L 213.875 -9.898438 L 210.71875 -9.253906 L 206.671875 -8.613281 L 202.820312 -7.96875 L 200.84375 -7.695312 L 199.363281 -7.136719 L 198.082031 -6.199219 L 197.074219 -5.210938 L 196.308594 -3.378906 L 195.425781 -1.214844 L 195.03125 0.289062 L 195.132812 1.421875 L 195.238281 2.550781 L 196.558594 6.53125 L 197.027344 7.71875 L 197.09375 8.285156 L 196.949219 8.890625 L 196.605469 9.347656 L 195.617188 9.4375 L 187.410156 8.371094 L 184.441406 7.796875 L 182.261719 7.128906 L 180.28125 6.652344 L 166.617188 4.351562 L 165.726562 3.878906 L 165.429688 3.40625 L 165.328125 3.03125 L 167.988281 -3.085938 Z M 173.597656 -16.167969 "/>
<path style=" stroke:none;fill-rule:nonzero;fill:rgb(39.99939%,39.99939%,39.99939%);fill-opacity:0.3;" d="M 36.042969 -52.132812 L 60.0625 -38.777344 L 60.179688 -37.742188 L 44.597656 -13.710938 L 31.242188 -13.863281 L 31.210938 -12.394531 L 31.171875 -10.808594 L 45.128906 -10.992188 L 45.5 -10.132812 L 47.957031 14.9375 L 47.746094 16.054688 L 47.425781 16.460938 L 36.613281 16.667969 L 32.867188 16.265625 L 29.4375 14.949219 L 6.613281 7.765625 L 5.539062 6.855469 L 5.296875 6.148438 Z M 36.042969 -52.132812 "/>
<path style=" stroke:none;fill-rule:nonzero;fill:rgb(39.99939%,39.99939%,39.99939%);fill-opacity:0.3;" d="M 10.941406 11.476562 L 26.097656 16.027344 L 25.945312 16.597656 L 10.773438 12.046875 Z M 10.941406 11.476562 "/>
<path style=" stroke:none;fill-rule:nonzero;fill:rgb(39.99939%,39.99939%,39.99939%);fill-opacity:0.3;" d="M 328.375 16.203125 L 334.257812 17.070312 L 340.742188 18.320312 L 336.257812 28.53125 L 334.808594 28.992188 L 332.632812 28.992188 L 330.214844 27.851562 L 321.269531 24.882812 L 315.214844 21.6875 L 311.839844 20.308594 L 308.457031 19.398438 L 305.3125 18.710938 L 303.621094 18.253906 L 302.65625 17.339844 L 302.171875 16.425781 L 302.742188 11.957031 L 306.398438 12.570312 L 309.675781 13.148438 L 313.0625 13.773438 L 319.105469 14.800781 Z M 328.375 16.203125 "/>
<path style=" stroke:none;fill-rule:nonzero;fill:rgb(39.99939%,39.99939%,39.99939%);fill-opacity:0.3;" d="M 305.175781 -21.074219 L 317.441406 -18.296875 L 325.585938 -17.273438 L 336.183594 -16.964844 L 342.082031 -16.351562 L 345.765625 -15.707031 L 348.953125 -14.824219 L 350.179688 -14.148438 L 350.910156 -13.238281 L 351.152344 -11.863281 L 351.386719 -10.023438 L 350.878906 -6.570312 L 345.644531 7.984375 L 344.65625 8.691406 L 343.667969 9.164062 L 342.4375 9.179688 L 340.714844 9.203125 L 319.753906 6.304688 L 307.464844 4.289062 L 304.386719 3.792969 L 302.25 2.847656 L 301.535156 2.15625 L 301.054688 0.777344 L 300.570312 -1.054688 L 300.554688 -3.566406 L 301.652344 -17.472656 L 301.878906 -19.523438 L 302.058594 -20.074219 L 302.234375 -20.535156 L 302.503906 -20.921875 L 302.84375 -21.164062 L 303.292969 -21.300781 L 303.847656 -21.292969 L 304.566406 -21.179688 Z M 305.175781 -21.074219 "/>
<path style=" stroke:none;fill-rule:nonzero;fill:rgb(39.99939%,39.99939%,39.99939%);fill-opacity:0.3;" d="M 273.660156 -32.121094 L 276.039062 -32.097656 L 278.652344 -31.84375 L 282.21875 -31.117188 L 285.3125 -29.941406 L 287.925781 -28.765625 L 292.4375 -27.570312 L 295.992188 -27.066406 L 297.886719 -26.582031 L 298.835938 -25.886719 L 299.316406 -24.738281 L 297.332031 0.117188 L 297.167969 13.589844 L 297.417969 16.332031 L 296.476562 17.917969 L 295.292969 18.363281 L 292.441406 18.332031 L 270.296875 16.058594 L 265.046875 15.789062 L 263.375 15.773438 L 261.941406 15.308594 L 261.699219 14.390625 L 261.933594 13.25 L 262.164062 11.421875 L 265.199219 -5.695312 L 265.664062 -9.578125 L 266.125 -12.773438 L 269.167969 -25.769531 L 270.339844 -29.644531 L 271.046875 -31.234375 Z M 273.660156 -32.121094 "/>
<path style=" stroke:none;fill-rule:nonzero;fill:rgb(39.99939%,39.99939%,39.99939%);fill-opacity:0.3;" d="M 263.53125 42.15625 L 275.933594 41.652344 L 280.972656 41.492188 L 287.480469 41.757812 L 297.539062 42.664062 L 303.402344 43.539062 L 308.960938 44.269531 L 308.992188 43.058594 L 309.027344 41.847656 L 304.921875 41.101562 L 299.402344 40.375 L 293.648438 39.648438 L 281.664062 39.085938 L 271.972656 39.003906 L 266.429688 39.402344 L 262.5 39.152344 L 261.777344 39.007812 L 261.117188 35.824219 L 261.117188 19.042969 L 261.144531 19.019531 L 262.578125 18.542969 L 264.273438 18.363281 L 282.039062 18.742188 L 294.472656 19.757812 L 300.449219 20.710938 L 305.273438 21.65625 L 310.097656 23.488281 L 317.214844 27.570312 L 321.34375 29.398438 L 326.386719 30.796875 L 332.355469 33.148438 L 333.546875 33.796875 L 334.253906 35.347656 L 332.796875 38.9375 L 328.96875 45.578125 L 327.941406 48.609375 L 327.640625 51.511719 L 327.445312 53.320312 L 326.867188 56.195312 L 305.625 61.253906 L 269.789062 68.769531 L 268.804688 65.703125 L 283.589844 65.277344 L 283.238281 63.933594 L 282.953125 62.855469 L 268.023438 62.734375 L 267.816406 62.632812 L 264.585938 52.585938 L 262.609375 43.035156 Z M 263.53125 42.15625 "/>
<path style=" stroke:none;fill-rule:nonzero;fill:rgb(39.99939%,39.99939%,39.99939%);fill-opacity:0.3;" d="M 303.429688 6.839844 L 303.667969 6.085938 L 304.03125 5.535156 L 304.574219 5.164062 L 336.425781 9.945312 L 342.527344 10.214844 L 343.253906 10.902344 L 343.496094 12.273438 L 340.898438 16.761719 L 330.113281 15.460938 L 302.875 10.925781 Z M 303.429688 6.839844 "/>
<path style=" stroke:none;fill-rule:nonzero;fill:rgb(39.99939%,39.99939%,39.99939%);fill-opacity:0.3;" d="M 229.332031 46.597656 L 228.382812 46.140625 L 227.453125 45.78125 L 227.234375 45.433594 L 229.328125 26.574219 L 230.148438 20.625 L 243.136719 19.476562 L 244.988281 18.78125 L 246.46875 18.257812 L 255.351562 17.785156 L 256.28125 18.148438 L 256.101562 19.917969 L 255.960938 33.371094 L 256.1875 37.496094 Z M 229.332031 46.597656 "/>
<path style=" stroke:none;fill-rule:nonzero;fill:rgb(39.99939%,39.99939%,39.99939%);fill-opacity:0.3;" d="M 251.90625 -59.304688 L 270.898438 -54.269531 L 255.375 15.285156 L 231.253906 14.535156 L 231.027344 14.265625 L 231.523438 10.671875 L 231.886719 8.636719 L 233.953125 -1.167969 L 237.421875 -12.730469 L 241.464844 -26.023438 L 246.089844 -43.363281 L 247.136719 -48.695312 L 249.425781 -56.949219 L 250.207031 -58.273438 L 251.160156 -59.019531 Z M 251.90625 -59.304688 "/>
<path style=" stroke:none;fill-rule:nonzero;fill:rgb(39.99939%,39.99939%,39.99939%);fill-opacity:0.3;" d="M 260.582031 36.003906 L 260.070312 20.066406 L 261.117188 19.042969 L 261.117188 35.824219 Z M 260.582031 36.003906 "/>
<path style=" stroke:none;fill-rule:nonzero;fill:rgb(39.99939%,39.99939%,39.99939%);fill-opacity:0.3;" d="M 183.222656 331.957031 L 169.136719 359.277344 L 121.472656 336.097656 L 128.488281 305.246094 Z M 183.222656 331.957031 "/>
<g clip-path="url(#clip12)" clip-rule="nonzero">
<path style=" stroke:none;fill-rule:nonzero;fill:rgb(39.99939%,39.99939%,39.99939%);fill-opacity:0.3;" d="M 26.835938 326.101562 L 92.824219 352.066406 L 96.007812 350.074219 L 113.660156 341.703125 L 114.417969 341.617188 L 115.433594 342.128906 L 111.820312 357.066406 L 113.03125 357.308594 L 114.210938 357.507812 L 117.421875 343.574219 L 117.929688 343.1875 L 119.25 343.480469 L 143.804688 354.550781 L 165.914062 365.34375 L 166.21875 365.734375 L 166.222656 366.507812 L 166.015625 367.023438 L 139.027344 416.945312 L 138.804688 417.117188 L 138.378906 417.117188 L 137.863281 417.035156 L 137.179688 416.671875 L 122.066406 403.40625 L 122.324219 401.144531 L 115.625 395.605469 L 115.316406 393.851562 L 115.8125 391.417969 L 117.222656 388.402344 L 118.660156 387.847656 L 120.300781 387.5625 L 122.027344 387.722656 L 129.070312 390.046875 L 129.671875 390.179688 L 130.496094 389.996094 L 131.113281 389.292969 L 140.097656 375.800781 L 138.980469 375.214844 L 137.863281 374.632812 L 130.191406 386.277344 L 117.09375 383.777344 L 110.789062 390.550781 L 105.933594 384.832031 L 116.703125 376.644531 L 120.105469 365.496094 L 118.835938 365.203125 L 117.570312 364.910156 L 114.09375 374.859375 L 104.066406 381.972656 L 99.210938 375.90625 L 76.480469 368.046875 L 69.765625 382.171875 L 14.988281 355.554688 Z M 26.835938 326.101562 "/>
</g>
<path style=" stroke:none;fill-rule:nonzero;fill:rgb(39.99939%,39.99939%,39.99939%);fill-opacity:0.3;" d="M 41.976562 287.351562 L 119.910156 313.871094 L 120.449219 314.6875 L 120.664062 315.304688 L 116.558594 335.292969 L 95.929688 344.9375 L 93.710938 345.460938 L 91.308594 345.203125 L 29.152344 322.503906 Z M 41.976562 287.351562 "/>
<path style=" stroke:none;fill-rule:nonzero;fill:rgb(39.99939%,39.99939%,39.99939%);fill-opacity:0.3;" d="M 49.894531 270.007812 L 96.019531 291.910156 L 91.59375 300.460938 L 43.144531 283.519531 L 42.699219 282.886719 L 42.695312 281.832031 L 43.136719 280.777344 L 48.339844 270.324219 Z M 49.894531 270.007812 "/>
<g clip-path="url(#clip13)" clip-rule="nonzero">
<path style=" stroke:none;fill-rule:nonzero;fill:rgb(39.99939%,39.99939%,39.99939%);fill-opacity:0.3;" d="M 188.25 335.902344 L 228.785156 355.550781 L 210.410156 393.703125 L 197.109375 388.261719 L 195.9375 390.496094 L 194.765625 392.726562 L 214 400.449219 L 233.988281 358.054688 L 267.039062 373.835938 L 235.941406 442.851562 L 215.179688 435.125 L 219.3125 425.5625 L 212.53125 422.910156 L 211.847656 424.4375 L 211.125 426.058594 L 216.144531 428.066406 L 213.152344 434.371094 L 202.9375 430.519531 L 199.238281 437.742188 L 146.710938 418.070312 L 159.714844 392.640625 L 210.652344 413.925781 L 211.5 412.3125 L 212.34375 410.714844 L 160.832031 389.191406 L 165.980469 376.675781 L 187.875 386.628906 L 189.628906 384.867188 L 191.382812 383.109375 L 169.28125 373.152344 Z M 188.25 335.902344 "/>
</g>
<path style="fill-rule:nonzero;fill:rgb(39.99939%,39.99939%,39.99939%);fill-opacity:1;stroke-width:0.03;stroke-linecap:square;stroke-linejoin:miter;stroke:rgb(39.99939%,39.99939%,39.99939%);stroke-opacity:1;stroke-miterlimit:3.239307;" d="M 244.445312 205.582031 L 243.53125 194.414062 L 243.78125 192.59375 L 244.542969 190.777344 L 250.507812 177.445312 L 250.507812 175.625 L 250.5 173.5625 L 249.988281 171.375 L 249.34375 168.949219 L 249.078125 163.121094 L 249.460938 162.636719 L 249.96875 162.519531 L 250.609375 162.761719 L 255.589844 165.058594 L 244.277344 208.429688 L 244.273438 207.632812 Z M 244.445312 205.582031 " transform="matrix(1,0,0,1,-74,-13)"/>
<path style="fill-rule:nonzero;fill:rgb(39.99939%,39.99939%,39.99939%);fill-opacity:1;stroke-width:0.03;stroke-linecap:square;stroke-linejoin:miter;stroke:rgb(39.99939%,39.99939%,39.99939%);stroke-opacity:1;stroke-miterlimit:3.239307;" d="M 232.40625 253.925781 L 217.367188 247.550781 L 217.246094 247.199219 L 217.738281 246.613281 L 219.703125 243.214844 L 220.6875 242.75 L 222.164062 242.632812 L 224.136719 242.167969 L 226.722656 241.351562 L 228.445312 240.535156 L 230.289062 237.84375 L 231.394531 236.203125 L 232.746094 234.683594 L 234.222656 232.925781 L 242.582031 214.921875 Z M 232.40625 253.925781 " transform="matrix(1,0,0,1,-74,-13)"/>
<path style="fill-rule:nonzero;fill:rgb(39.99939%,39.99939%,39.99939%);fill-opacity:1;stroke-width:0.03;stroke-linecap:square;stroke-linejoin:miter;stroke:rgb(39.99939%,39.99939%,39.99939%);stroke-opacity:1;stroke-miterlimit:3.239307;" d="M 217.953125 205.28125 L 218.328125 188.851562 L 218.046875 181.535156 L 217.636719 178.835938 L 217.089844 176.269531 L 216.414062 174.601562 L 214.238281 167.023438 L 213.832031 164.585938 L 213.691406 162.144531 L 213.242188 154.910156 L 213.238281 154.527344 L 213.507812 154.269531 L 214.050781 154.269531 L 233.347656 156.105469 L 233.261719 155.394531 L 233.210938 154.949219 L 213.910156 152.601562 L 213.371094 152.34375 L 212.828125 151.828125 L 212.558594 150.929688 L 212.421875 149.648438 L 211.867188 142.074219 L 211.59375 139.636719 L 211.554688 120.875 L 211.15625 119.128906 L 210.101562 117.507812 L 205.242188 110.046875 L 205.328125 109.722656 L 205.539062 109.523438 L 206.222656 109.722656 L 210.265625 111.851562 L 213.328125 113.871094 L 214.746094 114.992188 L 215.453125 116.339844 L 216.28125 118.355469 L 216.636719 119.472656 L 216.757812 120.257812 L 217.230469 121.15625 L 217.9375 121.9375 L 218.761719 122.277344 L 219.820312 122.503906 L 220.882812 122.839844 L 221.351562 123.175781 L 222.058594 123.851562 L 222.296875 124.410156 L 222.296875 125.304688 L 222.300781 126.089844 L 221.832031 127.765625 L 220.777344 130.5625 L 220.664062 131.234375 L 221.015625 132.019531 L 221.488281 132.578125 L 223.40625 134.355469 L 228.769531 137.074219 L 232.625 139.3125 L 237.488281 142.511719 L 239.167969 146.019531 L 241.539062 156.527344 L 241.542969 157.3125 L 241.34375 160.664062 L 241.757812 165.414062 L 242.167969 167.59375 L 242.574219 168.878906 L 242.847656 169.90625 L 243.117188 171.191406 L 243.257812 172.472656 L 243.394531 173.5 L 243.261719 174.914062 L 243.261719 175.941406 L 243.132812 177.609375 L 242.867188 179.789062 L 242.597656 180.945312 L 240.589844 187.996094 L 239.785156 190.179688 L 239.515625 191.71875 L 239.382812 193 L 239.386719 194.796875 L 239.945312 205.324219 L 240.300781 207.71875 L 240.078125 209.421875 L 239.1875 211.546875 L 229.171875 233.214844 L 227.835938 235.550781 L 226.945312 237.25 L 225.605469 238.523438 L 224.265625 239.371094 L 220.46875 240.214844 L 217.339844 241.0625 L 216 241.910156 L 213.769531 245.734375 L 212.652344 246.15625 L 205.492188 242.742188 L 205.269531 241.890625 L 205.488281 240.191406 L 209.496094 230.414062 L 215.277344 213.199219 L 217.28125 207.671875 Z M 217.953125 205.28125 " transform="matrix(1,0,0,1,-74,-13)"/>
<path style="fill-rule:nonzero;fill:rgb(39.99939%,39.99939%,39.99939%);fill-opacity:1;stroke-width:0.03;stroke-linecap:square;stroke-linejoin:miter;stroke:rgb(39.99939%,39.99939%,39.99939%);stroke-opacity:1;stroke-miterlimit:3.239307;" d="M 209.472656 210.660156 L 172.417969 201.390625 L 153.121094 196.207031 L 163.070312 171.0625 L 163.769531 170.230469 L 164.472656 170.066406 L 166.050781 170.066406 L 168.152344 170.402344 L 175.515625 172.34375 L 169.496094 186.359375 L 173.410156 187.039062 L 179.429688 173.53125 L 210.234375 181.449219 L 211.289062 182.117188 L 212.167969 183.453125 L 212.519531 184.953125 L 212.875 186.953125 L 213.769531 197.449219 L 213.59375 198.78125 L 210.402344 209.382812 Z M 209.472656 210.660156 " transform="matrix(1,0,0,1,-74,-13)"/>
<path style="fill-rule:nonzero;fill:rgb(39.99939%,39.99939%,39.99939%);fill-opacity:1;stroke-width:0.03;stroke-linecap:square;stroke-linejoin:miter;stroke:rgb(39.99939%,39.99939%,39.99939%);stroke-opacity:1;stroke-miterlimit:3.239307;" d="M 205.503906 117.335938 L 207.984375 148.382812 L 207.664062 148.660156 L 207.300781 148.710938 L 193.167969 146.699219 L 194.40625 138.492188 L 193.121094 138.3125 L 191.527344 138.089844 L 189.871094 148.386719 L 190.082031 148.734375 L 190.554688 149.035156 L 208.140625 151.199219 L 208.414062 151.394531 L 209.96875 164.578125 L 210.628906 166.453125 L 211.292969 169.367188 L 211.742188 176.445312 L 211.308594 177.484375 L 210.652344 177.898438 L 209.121094 178.105469 L 167.710938 166.8125 L 167.054688 165.980469 L 166.175781 164.9375 L 165.734375 162.648438 L 165.511719 160.566406 L 165.722656 157.863281 L 165.746094 157.769531 L 179.636719 126.851562 L 193.925781 95.722656 L 194.011719 95.722656 L 195.027344 96 L 195.75 96.824219 L 196.042969 97.925781 L 196.773438 100.402344 L 198.078125 102.878906 L 199.675781 105.496094 L 200.835938 107.285156 L 202 109.074219 L 203.160156 110.589844 L 204.03125 112.242188 L 204.757812 114.304688 L 205.050781 115.957031 Z M 205.503906 117.335938 " transform="matrix(1,0,0,1,-74,-13)"/>
<path style="fill-rule:nonzero;fill:rgb(39.99939%,39.99939%,39.99939%);fill-opacity:1;stroke-width:0.03;stroke-linecap:square;stroke-linejoin:miter;stroke:rgb(39.99939%,39.99939%,39.99939%);stroke-opacity:1;stroke-miterlimit:3.239307;" d="M 249.082031 127.453125 L 242 126.171875 L 241.898438 127.277344 L 241.792969 128.382812 L 249.589844 129.777344 L 251.597656 138.988281 L 227.824219 130.703125 L 227.058594 129.972656 L 226.800781 129.246094 L 226.671875 128.398438 L 226.796875 127.1875 L 227.050781 126.09375 L 227.429688 125.128906 L 227.9375 124.402344 L 228.953125 122.222656 L 229.714844 121.253906 L 230.730469 120.289062 L 232.894531 118.472656 L 233.402344 118.234375 L 234.550781 118.234375 L 237.097656 118.484375 L 247.546875 120.40625 Z M 249.082031 127.453125 " transform="matrix(1,0,0,1,-74,-13)"/>
<path style="fill-rule:nonzero;fill:rgb(39.99939%,39.99939%,39.99939%);fill-opacity:1;stroke-width:0.03;stroke-linecap:square;stroke-linejoin:miter;stroke:rgb(39.99939%,39.99939%,39.99939%);stroke-opacity:1;stroke-miterlimit:3.239307;" d="M 256.390625 160.980469 L 252.246094 159.050781 L 251.988281 158.566406 L 251.988281 157.960938 L 252.242188 157.476562 L 252.625 157.113281 L 253.257812 156.628906 L 255.175781 155.410156 Z M 256.390625 160.980469 " transform="matrix(1,0,0,1,-74,-13)"/>
<path style="fill-rule:nonzero;fill:rgb(39.99939%,39.99939%,39.99939%);fill-opacity:1;stroke-width:0.03;stroke-linecap:square;stroke-linejoin:miter;stroke:rgb(39.99939%,39.99939%,39.99939%);stroke-opacity:1;stroke-miterlimit:3.239307;" d="M 138.421875 237.859375 L 197.613281 254.402344 L 193.417969 269.636719 L 133.796875 250.0625 Z M 138.421875 237.859375 " transform="matrix(1,0,0,1,-74,-13)"/>
<path style="fill-rule:nonzero;fill:rgb(39.99939%,39.99939%,39.99939%);fill-opacity:1;stroke-width:0.03;stroke-linecap:square;stroke-linejoin:miter;stroke:rgb(39.99939%,39.99939%,39.99939%);stroke-opacity:1;stroke-miterlimit:3.239307;" d="M 184.988281 306.621094 L 164.257812 295.660156 L 162.957031 293.945312 L 126.1875 276.886719 L 125.683594 276.40625 L 125.429688 275.804688 L 125.753906 274.78125 L 132.214844 254.910156 L 132.398438 254.679688 L 132.710938 254.496094 L 133.148438 254.425781 L 134.070312 254.585938 L 172.289062 266.59375 L 191.878906 273.945312 L 192.132812 274.425781 L 192.386719 275.507812 L 189.632812 288.359375 L 188.738281 288.769531 L 155.125 275.34375 L 154.117188 278.226562 L 188.375 292.445312 Z M 184.988281 306.621094 " transform="matrix(1,0,0,1,-74,-13)"/>
<path style="fill-rule:nonzero;fill:rgb(39.99939%,39.99939%,39.99939%);fill-opacity:1;stroke-width:0.03;stroke-linecap:square;stroke-linejoin:miter;stroke:rgb(39.99939%,39.99939%,39.99939%);stroke-opacity:1;stroke-miterlimit:3.239307;" d="M 229.957031 81.492188 L 230.164062 84.90625 L 231.835938 90.175781 L 232.527344 92.261719 L 233.316406 94.132812 L 234.757812 95.503906 L 236.203125 97.253906 L 236.992188 98.125 L 237.648438 99.125 L 238.042969 100.496094 L 238.308594 101.617188 L 229.636719 99.113281 L 229.554688 99.992188 L 229.46875 100.871094 L 237.972656 103.105469 L 237.664062 106.226562 L 237.011719 107.46875 L 235.964844 108.960938 L 234.660156 110.203125 L 231.785156 112.9375 L 229.953125 114.554688 L 226.421875 118.035156 L 223.8125 121.890625 L 223.417969 122.265625 L 222.765625 122.261719 L 222.109375 122.011719 L 220.535156 120.886719 L 219.484375 119.265625 L 218.035156 115.527344 L 217.242188 113.035156 L 216.457031 112.035156 L 215.273438 111.285156 L 203.816406 105.433594 L 202.550781 104.785156 L 200.582031 103.539062 L 199.398438 102.414062 L 204.339844 102.214844 L 204.039062 101.535156 L 203.734375 100.855469 L 198.347656 101.042969 L 197.558594 99.546875 L 196.902344 98.175781 L 196.242188 95.808594 L 195.847656 94.5625 L 195.84375 93.191406 L 196.234375 92.570312 L 198.71875 88.710938 L 199.503906 88.460938 L 200.550781 88.464844 L 201.734375 88.714844 L 214.976562 92.351562 L 215.234375 91.332031 L 215.296875 91.105469 L 216.628906 91.59375 Z M 229.957031 81.492188 " transform="matrix(1,0,0,1,-74,-13)"/>
<path style="fill-rule:nonzero;fill:rgb(39.99939%,39.99939%,39.99939%);fill-opacity:1;stroke-width:0.03;stroke-linecap:square;stroke-linejoin:miter;stroke:rgb(39.99939%,39.99939%,39.99939%);stroke-opacity:1;stroke-miterlimit:3.239307;" d="M 206.226562 87.78125 L 201.074219 86.347656 L 200.808594 85.847656 L 200.808594 85.792969 Z M 206.226562 87.78125 " transform="matrix(1,0,0,1,-74,-13)"/>
<path style="fill-rule:nonzero;fill:rgb(39.99939%,39.99939%,39.99939%);fill-opacity:1;stroke-width:0.03;stroke-linecap:square;stroke-linejoin:miter;stroke:rgb(39.99939%,39.99939%,39.99939%);stroke-opacity:1;stroke-miterlimit:3.239307;" d="M 252.429688 64.746094 L 251.972656 64.800781 L 252.464844 64.429688 Z M 252.429688 64.746094 " transform="matrix(1,0,0,1,-74,-13)"/>
<path style="fill-rule:nonzero;fill:rgb(39.99939%,39.99939%,39.99939%);fill-opacity:1;stroke-width:0.03;stroke-linecap:square;stroke-linejoin:miter;stroke:rgb(39.99939%,39.99939%,39.99939%);stroke-opacity:1;stroke-miterlimit:3.239307;" d="M 246.75 115.875 L 237.425781 113.96875 L 237.242188 113.089844 L 237.238281 111.683594 L 238.15625 110.28125 L 239.445312 108.882812 L 241.101562 106.601562 L 242.019531 104.671875 L 242.199219 102.214844 L 242.195312 99.757812 L 241.636719 97.824219 L 240.898438 96.417969 L 236.632812 87.804688 L 235.335938 84.992188 L 234.777344 83.0625 L 234.589844 80.425781 L 234.449219 78.085938 L 243.40625 71.292969 L 251.835938 70.074219 Z M 246.75 115.875 " transform="matrix(1,0,0,1,-74,-13)"/>
<path style="fill-rule:nonzero;fill:rgb(39.99939%,39.99939%,39.99939%);fill-opacity:1;stroke-width:0.03;stroke-linecap:square;stroke-linejoin:miter;stroke:rgb(39.99939%,39.99939%,39.99939%);stroke-opacity:1;stroke-miterlimit:3.239307;" d="M 220.101562 321.570312 L 209.402344 316.546875 L 231.066406 271.21875 L 231.785156 267.773438 L 223.898438 260.417969 L 223.214844 258.472656 L 218.21875 255.761719 L 216.851562 252.574219 L 216.960938 251.820312 L 247.535156 266.773438 Z M 220.101562 321.570312 " transform="matrix(1,0,0,1,-74,-13)"/>
<path style="fill-rule:nonzero;fill:rgb(39.99939%,39.99939%,39.99939%);fill-opacity:1;stroke-width:0.03;stroke-linecap:square;stroke-linejoin:miter;stroke:rgb(39.99939%,39.99939%,39.99939%);stroke-opacity:1;stroke-miterlimit:3.239307;" d="M 151.652344 199.378906 L 209.191406 213.65625 L 203.421875 230.535156 L 145.726562 215.660156 Z M 151.652344 199.378906 " transform="matrix(1,0,0,1,-74,-13)"/>
<path style="fill-rule:nonzero;fill:rgb(39.99939%,39.99939%,39.99939%);fill-opacity:1;stroke-width:0.03;stroke-linecap:square;stroke-linejoin:miter;stroke:rgb(39.99939%,39.99939%,39.99939%);stroke-opacity:1;stroke-miterlimit:3.239307;" d="M 144.738281 218.714844 L 202.960938 233.941406 L 198.460938 250.140625 L 139.273438 233.972656 Z M 144.738281 218.714844 " transform="matrix(1,0,0,1,-74,-13)"/>
<path style="fill-rule:nonzero;fill:rgb(39.99939%,39.99939%,39.99939%);fill-opacity:1;stroke-width:0.03;stroke-linecap:square;stroke-linejoin:miter;stroke:rgb(39.99939%,39.99939%,39.99939%);stroke-opacity:1;stroke-miterlimit:3.239307;" d="M 202.953125 246.390625 L 210.550781 248.628906 L 210.960938 253.382812 L 212.085938 255.949219 L 214.113281 257.875 L 216.8125 261.300781 L 217.714844 264.292969 L 217.726562 270.917969 L 217.285156 275.835938 L 215.722656 280.964844 L 213.933594 284.808594 L 212.140625 288.226562 L 210.796875 291.21875 L 209.902344 292.5 L 208.554688 293.140625 L 206.984375 294.632812 L 205.191406 296.984375 L 204.523438 299.121094 L 201.625 313.019531 L 192.628906 308.300781 L 191.953125 307.445312 L 192.386719 297.394531 L 194.609375 283.496094 L 197.726562 267.039062 Z M 202.953125 246.390625 " transform="matrix(1,0,0,1,-74,-13)"/>
</g>
</svg>
