<?xml version="1.0" encoding="UTF-8"?>
<svg xmlns="http://www.w3.org/2000/svg" xmlns:xlink="http://www.w3.org/1999/xlink" width="361pt" height="361pt" viewBox="0 0 361 361" version="1.1">
<defs>
<clipPath id="clip1">
  <path d="M 317 65 L 360 65 L 360 110 L 317 110 Z M 317 65 "/>
</clipPath>
<clipPath id="clip2">
  <path d="M 323 94 L 360 94 L 360 128 L 323 128 Z M 323 94 "/>
</clipPath>
<clipPath id="clip3">
  <path d="M 355 61 L 360 61 L 360 74 L 355 74 Z M 355 61 "/>
</clipPath>
<clipPath id="clip4">
  <path d="M 359 112 L 360 112 L 360 124 L 359 124 Z M 359 112 "/>
</clipPath>
<clipPath id="clip5">
  <path d="M 0 331 L 28 331 L 28 360 L 0 360 Z M 0 331 "/>
</clipPath>
<clipPath id="clip6">
  <path d="M 0 351 L 3 351 L 3 360 L 0 360 Z M 0 351 "/>
</clipPath>
<clipPath id="clip7">
  <path d="M 318 337 L 344 337 L 344 360 L 318 360 Z M 318 337 "/>
</clipPath>
<clipPath id="clip8">
  <path d="M 233 339 L 301 339 L 301 360 L 233 360 Z M 233 339 "/>
</clipPath>
<clipPath id="clip9">
  <path d="M 297 325 L 334 325 L 334 360 L 297 360 Z M 297 325 "/>
</clipPath>
<clipPath id="clip10">
  <path d="M 356 298 L 360 298 L 360 358 L 356 358 Z M 356 298 "/>
</clipPath>
<clipPath id="clip11">
  <path d="M 346 336 L 360 336 L 360 360 L 346 360 Z M 346 336 "/>
</clipPath>
<clipPath id="clip12">
  <path d="M 343 284 L 360 284 L 360 314 L 343 314 Z M 343 284 "/>
</clipPath>
<clipPath id="clip13">
  <path d="M 337 301 L 360 301 L 360 334 L 337 334 Z M 337 301 "/>
</clipPath>
<clipPath id="clip14">
  <path d="M 337 357 L 360 357 L 360 360 L 337 360 Z M 337 357 "/>
</clipPath>
<clipPath id="clip15">
  <path d="M 343 265 L 360 265 L 360 296 L 343 296 Z M 343 265 "/>
</clipPath>
<clipPath id="clip16">
  <path d="M 352 0 L 360 0 L 360 1 L 352 1 Z M 352 0 "/>
</clipPath>
<clipPath id="clip17">
  <path d="M 356 246 L 360 246 L 360 317 L 356 317 Z M 356 246 "/>
</clipPath>
<clipPath id="clip18">
  <path d="M 268 196 L 360 196 L 360 277 L 268 277 Z M 268 196 "/>
</clipPath>
<clipPath id="clip19">
  <path d="M 352 112 L 360 112 L 360 162 L 352 162 Z M 352 112 "/>
</clipPath>
<clipPath id="clip20">
  <path d="M 312 0 L 360 0 L 360 57 L 312 57 Z M 312 0 "/>
</clipPath>
<clipPath id="clip21">
  <path d="M 357 46 L 360 46 L 360 84 L 357 84 Z M 357 46 "/>
</clipPath>
<clipPath id="clip22">
  <path d="M 340 0 L 360 0 L 360 58 L 340 58 Z M 340 0 "/>
</clipPath>
<clipPath id="clip23">
  <path d="M 335 267 L 360 267 L 360 293 L 335 293 Z M 335 267 "/>
</clipPath>
</defs>
<g id="surface7910">
<path style="fill-rule:nonzero;fill:rgb(0%,0%,0%);fill-opacity:1;stroke-width:0.03;stroke-linecap:square;stroke-linejoin:miter;stroke:rgb(0%,0%,0%);stroke-opacity:1;stroke-miterlimit:10;" d="M 0 178 L 360 178 L 360 -182 L 0 -182 Z M 0 178 " transform="matrix(1,0,0,1,0,182)"/>
<path style=" stroke:none;fill-rule:nonzero;fill:rgb(39.99939%,39.99939%,39.99939%);fill-opacity:0.3;" d="M -21.148438 112.734375 L 9.628906 132.03125 L 12.644531 138.078125 L 9.828125 157.832031 L -2.335938 155.730469 L -15.558594 153.578125 L -15.78125 153.539062 L -8.109375 130.210938 L -9.367188 129.75 L -17 153.164062 L -24.53125 151.867188 L -15.113281 125.707031 L -15.945312 125.417969 L -16.78125 125.125 L -22.976562 142.0625 L -26.199219 139.925781 L -31.34375 133.617188 L -25 119.992188 Z M -21.148438 112.734375 "/>
<path style=" stroke:none;fill-rule:nonzero;fill:rgb(39.99939%,39.99939%,39.99939%);fill-opacity:0.3;" d="M 99.855469 173.074219 L 69.90625 168.015625 L 71.726562 157.484375 L 74.457031 155.578125 L 74.035156 150.5 L 73.160156 150.566406 L 72.28125 150.632812 L 72.625 154.78125 L 70.109375 156.542969 L 68.171875 167.722656 L 34.230469 161.992188 L 35.285156 148.910156 L 34.40625 148.84375 L 33.53125 148.78125 L 32.488281 161.695312 L 19.671875 159.53125 L 11.558594 158.132812 L 14.457031 137.808594 L 11.007812 130.894531 L 3.175781 125.984375 L 7.628906 117.027344 L 6.832031 116.671875 L 6.039062 116.3125 L 1.691406 125.054688 L -4.789062 120.992188 L 7.933594 93.804688 L 6.324219 93.125 L -6.277344 120.058594 L -11.558594 116.746094 L 3.398438 87.71875 L 28.417969 109.910156 Z M 99.855469 173.074219 "/>
<path style=" stroke:none;fill-rule:nonzero;fill:rgb(39.99939%,39.99939%,39.99939%);fill-opacity:0.3;" d="M 2.054688 86.527344 L -13.039062 115.816406 L -20.351562 111.230469 L -4.277344 80.914062 Z M 2.054688 86.527344 "/>
<path style=" stroke:none;fill-rule:nonzero;fill:rgb(39.99939%,39.99939%,39.99939%);fill-opacity:0.3;" d="M 125.800781 177.394531 L 125.878906 177.464844 L 118.640625 176.246094 Z M 125.800781 177.394531 "/>
<path style=" stroke:none;fill-rule:nonzero;fill:rgb(39.99939%,39.99939%,39.99939%);fill-opacity:0.3;" d="M 55.070312 265.617188 L 51.429688 275.527344 L 53.632812 269.207031 Z M 55.070312 265.617188 "/>
<path style=" stroke:none;fill-rule:nonzero;fill:rgb(39.99939%,39.99939%,39.99939%);fill-opacity:0.3;" d="M 270.503906 213.179688 L 277.105469 219.519531 L 281.289062 225.230469 L 274.460938 242.292969 L 264.863281 228.742188 Z M 270.503906 213.179688 "/>
<path style=" stroke:none;fill-rule:nonzero;fill:rgb(39.99939%,39.99939%,39.99939%);fill-opacity:0.3;" d="M 281.882812 226.367188 L 291.863281 240.160156 L 284.816406 255.0625 L 275.351562 243.289062 Z M 281.882812 226.367188 "/>
<path style=" stroke:none;fill-rule:nonzero;fill:rgb(39.99939%,39.99939%,39.99939%);fill-opacity:0.3;" d="M 293.929688 241.667969 L 304.945312 254.253906 L 297.28125 270.453125 L 286.484375 256.859375 Z M 293.929688 241.667969 "/>
<path style=" stroke:none;fill-rule:nonzero;fill:rgb(39.99939%,39.99939%,39.99939%);fill-opacity:0.3;" d="M 275.328125 245.851562 L 283.964844 256.773438 L 278.503906 272.230469 L 268.480469 261.269531 L 272.214844 251.691406 L 274.707031 246.179688 Z M 275.328125 245.851562 "/>
<path style=" stroke:none;fill-rule:nonzero;fill:rgb(39.99939%,39.99939%,39.99939%);fill-opacity:0.3;" d="M 262.46875 229.34375 L 274.355469 244.980469 L 267.527344 260.453125 L 258.25 247.46875 L 259.496094 237.414062 L 261.222656 231.378906 L 261.5 229.671875 Z M 262.46875 229.34375 "/>
<path style=" stroke:none;fill-rule:nonzero;fill:rgb(39.99939%,39.99939%,39.99939%);fill-opacity:0.3;" d="M 259.984375 228.253906 L 229.910156 218.570312 L 224.636719 217.027344 L 230.015625 197.390625 L 248.539062 201.980469 L 266.554688 210.789062 L 266.523438 213.925781 Z M 259.984375 228.253906 "/>
<path style=" stroke:none;fill-rule:nonzero;fill:rgb(39.99939%,39.99939%,39.99939%);fill-opacity:0.3;" d="M 278.628906 275.320312 L 279.515625 273.050781 L 284.949219 258.042969 L 296.359375 271.589844 L 290.867188 281.257812 L 289.789062 282.066406 L 289.671875 282.292969 L 288.382812 284.746094 L 275.292969 280.664062 L 264.394531 277.246094 L 255.742188 274.558594 L 251.292969 273.285156 L 239.992188 269.835938 L 243.355469 266.039062 L 246.457031 263.039062 L 251.984375 258.222656 L 254.128906 255.066406 L 255.710938 252.710938 L 256.875 250.433594 L 261.570312 254.773438 L 264.925781 260.226562 L 266.230469 262.828125 L 267.496094 264.96875 L 274.824219 272.023438 Z M 278.628906 275.320312 "/>
<path style=" stroke:none;fill-rule:nonzero;fill:rgb(39.99939%,39.99939%,39.99939%);fill-opacity:0.3;" d="M 306.566406 255.863281 L 306.855469 256.09375 L 299.652344 270.746094 L 298.769531 272.316406 L 298.644531 272.203125 Z M 306.566406 255.863281 "/>
<path style=" stroke:none;fill-rule:nonzero;fill:rgb(39.99939%,39.99939%,39.99939%);fill-opacity:0.3;" d="M 239.34375 270.507812 L 288.007812 285.375 L 276.871094 307.585938 L 238.460938 295.351562 L 238.585938 291.832031 L 244.707031 293.710938 L 245.160156 291.40625 L 238.222656 289.515625 Z M 239.34375 270.507812 "/>
<path style=" stroke:none;fill-rule:nonzero;fill:rgb(39.99939%,39.99939%,39.99939%);fill-opacity:0.3;" d="M 279.554688 308.4375 L 280.058594 307.085938 L 284.4375 297.53125 L 285.804688 295.132812 L 287.5625 292.171875 L 290.730469 285.445312 L 295.824219 275.671875 L 297.3125 272.945312 L 298.023438 273.644531 L 291.351562 285.507812 L 279.972656 308.570312 Z M 279.554688 308.4375 "/>
<path style=" stroke:none;fill-rule:nonzero;fill:rgb(39.99939%,39.99939%,39.99939%);fill-opacity:0.3;" d="M 267.128906 207.53125 L 266.699219 208.15625 L 258.152344 203.976562 L 250.113281 200.253906 L 249.472656 199.429688 L 249.546875 198.839844 L 260.90625 204.9375 Z M 267.128906 207.53125 "/>
<path style=" stroke:none;fill-rule:nonzero;fill:rgb(39.99939%,39.99939%,39.99939%);fill-opacity:0.3;" d="M 226.984375 193.652344 L 227 193.824219 L 226.4375 193.5625 Z M 226.984375 193.652344 "/>
<path style=" stroke:none;fill-rule:nonzero;fill:rgb(39.99939%,39.99939%,39.99939%);fill-opacity:0.3;" d="M 281 219.058594 L 280.15625 218.085938 L 280.195312 218.054688 Z M 281 219.058594 "/>
<path style=" stroke:none;fill-rule:nonzero;fill:rgb(39.99939%,39.99939%,39.99939%);fill-opacity:0.3;" d="M 279.542969 217.238281 L 279.480469 217.296875 L 275.4375 213.476562 L 271.613281 210.128906 L 271.667969 210.164062 L 275.972656 213.546875 L 279.050781 216.621094 Z M 279.542969 217.238281 "/>
<path style=" stroke:none;fill-rule:nonzero;fill:rgb(39.99939%,39.99939%,39.99939%);fill-opacity:0.3;" d="M 270.078125 209.152344 L 268.527344 208.414062 L 268.636719 208.234375 Z M 270.078125 209.152344 "/>
<path style=" stroke:none;fill-rule:nonzero;fill:rgb(39.99939%,39.99939%,39.99939%);fill-opacity:0.3;" d="M 308.539062 252.667969 L 307.347656 251.320312 L 308.570312 252.601562 Z M 308.539062 252.667969 "/>
<path style=" stroke:none;fill-rule:nonzero;fill:rgb(39.99939%,39.99939%,39.99939%);fill-opacity:0.3;" d="M 223.03125 193.015625 L 223.015625 193.625 L 203 189.796875 Z M 223.03125 193.015625 "/>
<path style=" stroke:none;fill-rule:nonzero;fill:rgb(39.99939%,39.99939%,39.99939%);fill-opacity:0.3;" d="M 245.40625 197.757812 L 245.039062 197.910156 L 244.425781 197.617188 Z M 245.40625 197.757812 "/>
<path style=" stroke:none;fill-rule:nonzero;fill:rgb(39.99939%,39.99939%,39.99939%);fill-opacity:0.3;" d="M 0.382812 72.125 L 27.601562 94.902344 L 45.390625 110.109375 L 68.695312 129.71875 L 81.609375 140.421875 L 96.378906 152.859375 L 124 175.71875 L 125.800781 177.394531 L 118.640625 176.246094 L 99.855469 173.074219 L 28.417969 109.910156 L 3.398438 87.71875 L 5.804688 83.046875 L 4.226562 82.3125 L 2.054688 86.527344 L -4.277344 80.914062 Z M 0.382812 72.125 "/>
<path style=" stroke:none;fill-rule:nonzero;fill:rgb(39.99939%,39.99939%,39.99939%);fill-opacity:0.3;" d="M 326.773438 46.328125 L 326.367188 47.207031 L 320.582031 45.402344 L 320.945312 44.503906 L 324.871094 45.636719 Z M 326.773438 46.328125 "/>
<path style=" stroke:none;fill-rule:nonzero;fill:rgb(39.99939%,39.99939%,39.99939%);fill-opacity:0.3;" d="M 319.753906 44.160156 L 319.382812 45.039062 L 317.902344 44.617188 L 307.933594 41.960938 L 295.464844 39.382812 L 298.117188 39.792969 L 307.648438 41.023438 L 311.03125 41.640625 Z M 319.753906 44.160156 "/>
<path style=" stroke:none;fill-rule:nonzero;fill:rgb(39.99939%,39.99939%,39.99939%);fill-opacity:0.3;" d="M 284.03125 37.609375 L 277.8125 36.800781 L 278.644531 28.085938 L 280.277344 37.027344 Z M 284.03125 37.609375 "/>
<path style=" stroke:none;fill-rule:nonzero;fill:rgb(39.99939%,39.99939%,39.99939%);fill-opacity:0.3;" d="M 278.324219 26.339844 L 277.484375 23.140625 L 277.398438 21.261719 Z M 278.324219 26.339844 "/>
<path style=" stroke:none;fill-rule:nonzero;fill:rgb(39.99939%,39.99939%,39.99939%);fill-opacity:0.3;" d="M 274.378906 4.398438 L 268.636719 2.34375 L 269.410156 -0.746094 L 270.128906 -0.492188 L 273.820312 1.046875 Z M 274.378906 4.398438 "/>
<path style=" stroke:none;fill-rule:nonzero;fill:rgb(39.99939%,39.99939%,39.99939%);fill-opacity:0.3;" d="M 155.203125 -4.136719 L 199.660156 45.953125 L 185.972656 39.136719 L 185.285156 39.675781 L 201.492188 48.007812 L 215.75 64.078125 L 215.785156 66.074219 L 137.460938 24.308594 L 136.027344 23.519531 L 101.554688 4.152344 L 105.496094 -3.714844 Z M 155.203125 -4.136719 "/>
<path style=" stroke:none;fill-rule:nonzero;fill:rgb(39.99939%,39.99939%,39.99939%);fill-opacity:0.3;" d="M 220.339844 -6.144531 L 217.265625 7.484375 L 216.152344 48.371094 L 215.988281 61.882812 L 197.050781 40.867188 L 201.890625 30.878906 L 201.390625 30.621094 L 200.890625 30.367188 L 195.945312 39.414062 L 192.859375 35.617188 L 160.5 -4.1875 Z M 220.339844 -6.144531 "/>
<path style=" stroke:none;fill-rule:nonzero;fill:rgb(39.99939%,39.99939%,39.99939%);fill-opacity:0.3;" d="M 274.082031 39.785156 L 278.859375 39.394531 L 289.046875 40.171875 L 283.644531 59.597656 L 284.453125 59.675781 L 285.261719 59.75 L 292.046875 40.613281 L 294.328125 41.296875 L 298.351562 42.304688 L 307.316406 43.957031 L 318.804688 47.136719 L 312.644531 62.261719 L 313.589844 62.433594 L 319.675781 47.355469 L 324.324219 48.753906 L 319.886719 60.125 L 320.511719 60.371094 L 321.214844 60.652344 L 325.65625 49.488281 L 327.160156 49.824219 L 328.984375 50.648438 L 324.210938 62.019531 L 324.871094 62.125 L 325.542969 62.230469 L 331.578125 51.007812 L 335.132812 52.070312 L 343.296875 55.15625 L 349.980469 57.53125 L 348.796875 61.429688 L 346.855469 63.957031 L 345.164062 65.417969 L 338.160156 69.902344 L 329.691406 65.582031 L 329.417969 66.007812 L 329.140625 66.429688 L 337.167969 70.597656 L 329.683594 76.226562 L 322.140625 82.339844 L 316.996094 86.570312 L 313.960938 89.875 L 299.308594 111.394531 L 292.097656 107.449219 L 288.796875 105.425781 L 292.082031 100.6875 L 291.546875 100.25 L 291.0625 99.851562 L 287.316406 104.765625 L 280.335938 111.21875 L 265.3125 105.277344 L 272.800781 87.027344 L 272.417969 85.164062 L 274.066406 80.839844 L 260.25 77.761719 L 266.582031 54.652344 L 267.742188 49.761719 L 269.597656 43.714844 L 271.679688 41.792969 Z M 274.082031 39.785156 "/>
<path style=" stroke:none;fill-rule:nonzero;fill:rgb(39.99939%,39.99939%,39.99939%);fill-opacity:0.3;" d="M 85.945312 -2.417969 L 87.207031 -1.730469 L 79.371094 14.296875 L 68.414062 8.613281 Z M 85.945312 -2.417969 "/>
<path style=" stroke:none;fill-rule:nonzero;fill:rgb(39.99939%,39.99939%,39.99939%);fill-opacity:0.3;" d="M 102.699219 -3.691406 L 99.367188 2.875 L 93.039062 -0.390625 L 94.730469 -3.625 Z M 102.699219 -3.691406 "/>
<path style=" stroke:none;fill-rule:nonzero;fill:rgb(39.99939%,39.99939%,39.99939%);fill-opacity:0.3;" d="M 294.074219 124.980469 L 302.699219 126.492188 L 301.226562 130.734375 L 300.410156 134.25 L 305.121094 136.242188 L 303.753906 141.148438 L 310.085938 143.335938 L 310.640625 144.828125 L 318.070312 147.15625 L 318.320312 146.53125 L 311.625 144.410156 L 311.707031 143.023438 L 305.023438 140.601562 L 306.277344 135.921875 L 301.585938 133.972656 L 302.152344 131.148438 L 303.410156 126.648438 L 306.746094 127.375 L 312.960938 128.722656 L 317.320312 130.066406 L 325.980469 133.648438 L 324.007812 142.597656 L 348.773438 148.84375 L 346.683594 155.308594 L 342.796875 165.390625 L 324.847656 158.601562 L 324.597656 159.09375 L 324.34375 159.589844 L 342.308594 166.308594 L 335.117188 179.878906 L 329.328125 190.824219 L 293.171875 178.425781 L 296.75 170.707031 L 273.941406 159.144531 L 282.039062 144.972656 L 301.625 152.398438 L 301.726562 152.089844 L 301.824219 151.777344 L 282.394531 144.378906 L 285.238281 139.542969 L 290.933594 141.785156 L 291.253906 141.128906 L 285.785156 138.816406 Z M 294.074219 124.980469 "/>
<path style=" stroke:none;fill-rule:nonzero;fill:rgb(39.99939%,39.99939%,39.99939%);fill-opacity:0.3;" d="M 254.761719 190.226562 L 257.617188 185.515625 L 260.941406 180.972656 L 266.542969 171.652344 L 273.488281 160.101562 L 295.59375 171.199219 L 292.164062 179.070312 L 328.792969 191.921875 L 326.035156 198.929688 L 330.277344 200.613281 L 330.40625 208.625 L 314.480469 203.378906 L 319.070312 193.003906 L 317.953125 192.691406 L 313.285156 202.988281 L 304.265625 200.015625 L 301.121094 197.597656 L 306.046875 188.101562 L 305.382812 187.867188 L 304.722656 187.632812 L 299.625 196.792969 L 296.269531 196.015625 L 291.964844 194.789062 L 288.582031 194.480469 L 287.914062 195.148438 L 285.789062 194.410156 L 284.324219 197.679688 L 283.179688 198.996094 L 283.046875 199.09375 L 278.742188 198.476562 L 275.667969 198.476562 L 273.820312 199.398438 L 273.746094 199.515625 L 272.183594 199.296875 L 269.824219 203.617188 L 267.128906 207.53125 L 260.90625 204.9375 L 249.546875 198.839844 L 249.585938 198.546875 L 253.285156 192.332031 Z M 254.761719 190.226562 "/>
<path style=" stroke:none;fill-rule:nonzero;fill:rgb(39.99939%,39.99939%,39.99939%);fill-opacity:0.3;" d="M 89.453125 0.886719 L 155.722656 36.464844 L 149.730469 50.976562 L 150.480469 51.371094 L 151.332031 51.816406 L 157.636719 37.421875 L 181.308594 50.351562 L 165.015625 94.328125 L 158.875 111.355469 L 130.902344 100.773438 L 130.5625 101.496094 L 130.140625 102.40625 L 159.738281 113.5625 L 166.632812 95.3125 L 173.417969 77.882812 L 221.285156 98.382812 L 222.773438 109.304688 L 224.179688 126.734375 L 222.726562 139.539062 L 224.503906 163.984375 L 226.984375 193.652344 L 226.4375 193.5625 L 211.398438 186.558594 L 216.5625 165.914062 L 215.832031 165.667969 L 215.101562 165.417969 L 210.023438 185.851562 L 181.839844 172.40625 L 170.722656 167.796875 L 147.78125 154.335938 L 113.503906 130.53125 L 54.84375 72.910156 Z M 89.453125 0.886719 "/>
<path style=" stroke:none;fill-rule:nonzero;fill:rgb(39.99939%,39.99939%,39.99939%);fill-opacity:0.3;" d="M 183.457031 51.679688 L 217.570312 68.554688 L 218.480469 77.972656 L 219.378906 77.992188 L 220.523438 78.019531 L 220.171875 73.378906 L 230.167969 76.261719 L 229.503906 89.878906 L 252.132812 97.46875 L 251.917969 102.1875 L 252.03125 103.148438 L 252.667969 103.996094 L 262.71875 107.089844 L 252.691406 132.820312 L 247.640625 130.496094 L 247.292969 131.164062 L 246.949219 131.835938 L 252.019531 134.097656 L 251.65625 137.09375 L 251.453125 152.046875 L 251.464844 160.0625 L 250.230469 165.949219 L 248.75 172.410156 L 246.722656 179.46875 L 244.925781 189.078125 L 241.960938 196.925781 L 228.445312 193.871094 L 227.570312 183.6875 L 226.027344 165.859375 L 224.078125 139.277344 L 225.582031 126.675781 L 223.945312 108.800781 L 221.21875 87.257812 L 220.617188 79.273438 L 219.496094 79.382812 L 218.625 79.472656 L 220.191406 95.691406 L 174.71875 74.902344 L 176.519531 70.175781 L 196.117188 77.585938 L 196.546875 76.46875 L 177.011719 68.84375 L 181.199219 57.683594 L 200.652344 66.351562 L 200.917969 65.738281 L 201.179688 65.128906 L 181.753906 56.214844 Z M 183.457031 51.679688 "/>
<path style=" stroke:none;fill-rule:nonzero;fill:rgb(39.99939%,39.99939%,39.99939%);fill-opacity:0.3;" d="M 147.554688 157.53125 L 170.164062 169.027344 L 181.117188 173.800781 L 223.03125 193.007812 L 223.03125 193.015625 L 203 189.796875 L 140.570312 177.859375 Z M 147.554688 157.53125 "/>
<path style=" stroke:none;fill-rule:nonzero;fill:rgb(39.99939%,39.99939%,39.99939%);fill-opacity:0.3;" d="M 326.617188 47.808594 L 327.242188 46.5 L 328.253906 46.867188 L 331.816406 48.367188 L 331.167969 49.738281 Z M 326.617188 47.808594 "/>
<path style=" stroke:none;fill-rule:nonzero;fill:rgb(39.99939%,39.99939%,39.99939%);fill-opacity:0.3;" d="M 335.25 49.851562 L 333.804688 49.300781 L 333.84375 49.222656 L 334.097656 49.328125 Z M 335.25 49.851562 "/>
<path style=" stroke:none;fill-rule:nonzero;fill:rgb(39.99939%,39.99939%,39.99939%);fill-opacity:0.3;" d="M 259.804688 117.632812 L 288.9375 129.058594 L 280.578125 143.683594 L 253.976562 133.347656 Z M 259.804688 117.632812 "/>
<path style=" stroke:none;fill-rule:nonzero;fill:rgb(39.99939%,39.99939%,39.99939%);fill-opacity:0.3;" d="M 332.71875 127.394531 L 329.65625 125.683594 L 321.4375 122.527344 L 323.589844 116.304688 L 332.789062 118.4375 L 339.363281 120.390625 L 348.582031 127.316406 L 355.433594 128.863281 L 349.171875 147.175781 L 326.375 140.832031 L 328.125 133.152344 L 319.050781 129.285156 L 321.21875 123.191406 L 329.257812 126.316406 L 332.210938 128.074219 Z M 332.71875 127.394531 "/>
<path style=" stroke:none;fill-rule:nonzero;fill:rgb(39.99939%,39.99939%,39.99939%);fill-opacity:0.3;" d="M 302.929688 110.777344 L 322.53125 115.929688 L 318.242188 128.898438 L 306.140625 126.074219 L 298.703125 124.4375 L 297.175781 124.15625 L 295.273438 123.851562 L 295.503906 122.441406 Z M 302.929688 110.777344 "/>
<path style=" stroke:none;fill-rule:nonzero;fill:rgb(39.99939%,39.99939%,39.99939%);fill-opacity:0.3;" d="M 259.964844 78.570312 L 273.039062 81.515625 L 271.464844 85.410156 L 272.007812 87.195312 L 264.605469 105.023438 L 254.132812 101.367188 Z M 259.964844 78.570312 "/>
<path style=" stroke:none;fill-rule:nonzero;fill:rgb(39.99939%,39.99939%,39.99939%);fill-opacity:0.3;" d="M 316.347656 90.089844 L 322.832031 91.996094 L 329.039062 94.367188 L 323.273438 110.84375 L 323.757812 112.21875 L 323.273438 113.59375 L 322.722656 115.101562 L 321.335938 114.675781 L 303.550781 109.546875 Z M 316.347656 90.089844 "/>
<g clip-path="url(#clip1)" clip-rule="nonzero">
<path style=" stroke:none;fill-rule:nonzero;fill:rgb(39.99939%,39.99939%,39.99939%);fill-opacity:0.3;" d="M 352.394531 65.039062 L 353.925781 65.351562 L 364.96875 71.214844 L 372.898438 74.640625 L 368.027344 89.535156 L 361.730469 87.222656 L 361.527344 87.804688 L 361.296875 88.464844 L 367.699219 90.625 L 363.011719 104.390625 L 361.449219 109.441406 L 356.835938 106.863281 L 353.65625 103.445312 L 354.503906 101.890625 L 346.105469 99.003906 L 341.046875 97.429688 L 335.496094 95.503906 L 332.117188 94.574219 L 334.195312 89.191406 L 333.589844 88.996094 L 332.957031 88.792969 L 330.976562 94.160156 L 326.960938 92.613281 L 323.964844 91.484375 L 322.707031 90.980469 L 319.890625 90.082031 L 317.683594 89.367188 L 317.644531 88.640625 L 320.703125 86.011719 L 325.527344 81.953125 L 330.289062 78.246094 L 337.558594 72.742188 L 340.246094 71.0625 Z M 352.394531 65.039062 "/>
</g>
<g clip-path="url(#clip2)" clip-rule="nonzero">
<path style=" stroke:none;fill-rule:nonzero;fill:rgb(39.99939%,39.99939%,39.99939%);fill-opacity:0.3;" d="M 329.75 94.664062 L 340.628906 98.320312 L 338.785156 102.730469 L 338.777344 104.734375 L 339.628906 105.542969 L 342.097656 106.683594 L 339.933594 111.414062 L 340.320312 111.558594 L 340.707031 111.707031 L 343.175781 106.296875 L 340.089844 104.882812 L 339.640625 104.175781 L 339.628906 102.828125 L 341.300781 98.496094 L 349.652344 101.390625 L 354.140625 105.894531 L 357.136719 108.996094 L 361.011719 110.839844 L 355.917969 127.300781 L 350.484375 126.15625 L 346.730469 124.371094 L 340.003906 119.601562 L 331.925781 117.234375 L 326.105469 115.679688 L 323.453125 115.25 L 323.734375 113.773438 L 324.1875 113.691406 L 325.226562 106.824219 L 331.578125 109.453125 L 331.742188 109.023438 L 331.90625 108.589844 L 325.542969 106.027344 Z M 329.75 94.664062 "/>
</g>
<g clip-path="url(#clip3)" clip-rule="nonzero">
<path style=" stroke:none;fill-rule:nonzero;fill:rgb(39.99939%,39.99939%,39.99939%);fill-opacity:0.3;" d="M 355.859375 61.707031 L 357.226562 61.066406 L 361.773438 63.472656 L 378.070312 72.699219 L 377.871094 73.277344 L 376.984375 73.5625 L 366.808594 68.585938 Z M 355.859375 61.707031 "/>
</g>
<path style=" stroke:none;fill-rule:nonzero;fill:rgb(39.99939%,39.99939%,39.99939%);fill-opacity:0.3;" d="M 257.578125 40.941406 L 260.125 40.277344 L 268.277344 42.464844 L 255.90625 87.59375 L 252.644531 96.128906 L 230.316406 88.839844 L 231.714844 76.40625 L 247.609375 80.824219 L 247.726562 80.085938 L 247.839844 79.351562 L 232.878906 75.375 L 230.359375 75.398438 L 221.191406 72 L 218.855469 66.964844 L 230.972656 70.496094 L 234.96875 72.011719 L 239.644531 72.660156 L 245.007812 71.796875 L 246.949219 70.28125 L 249.117188 66.707031 L 250.257812 64.757812 L 251.398438 63.242188 L 252.101562 62.453125 Z M 257.578125 40.941406 "/>
<g clip-path="url(#clip4)" clip-rule="nonzero">
<path style=" stroke:none;fill-rule:nonzero;fill:rgb(39.99939%,39.99939%,39.99939%);fill-opacity:0.3;" d="M 359.863281 123.488281 L 360.707031 120.199219 L 363.835938 112.84375 L 363.953125 112.859375 Z M 359.863281 123.488281 "/>
</g>
<path style=" stroke:none;fill-rule:nonzero;fill:rgb(39.99939%,39.99939%,39.99939%);fill-opacity:0.3;" d="M 247.992188 178.617188 L 257.277344 182.054688 L 248.644531 195.199219 L 246.5625 197.277344 L 245.40625 197.757812 L 244.425781 197.617188 L 244.347656 197.578125 L 243.976562 197.054688 L 244.242188 195.675781 L 244.746094 193.902344 L 246.164062 189.441406 L 247.707031 184.382812 L 247.507812 180.605469 Z M 247.992188 178.617188 "/>
<path style=" stroke:none;fill-rule:nonzero;fill:rgb(39.99939%,39.99939%,39.99939%);fill-opacity:0.3;" d="M 260.261719 116.582031 L 264.316406 106.324219 L 280.613281 112.984375 L 287.503906 106.644531 L 298.554688 112.753906 L 289.753906 128.109375 L 279.300781 123.320312 L 269.941406 119.617188 Z M 260.261719 116.582031 "/>
<path style=" stroke:none;fill-rule:nonzero;fill:rgb(39.99939%,39.99939%,39.99939%);fill-opacity:0.3;" d="M 253.007812 160.109375 L 268.65625 164.191406 L 257.652344 181.421875 L 248.3125 177.804688 Z M 253.007812 160.109375 "/>
<path style=" stroke:none;fill-rule:nonzero;fill:rgb(39.99939%,39.99939%,39.99939%);fill-opacity:0.3;" d="M 253.308594 134.503906 L 280.191406 144.234375 L 269.082031 163.621094 L 253.089844 159.253906 L 252.796875 147.417969 Z M 253.308594 134.503906 "/>
<path style=" stroke:none;fill-rule:nonzero;fill:rgb(39.99939%,39.99939%,39.99939%);fill-opacity:0.3;" d="M 268.042969 -1.226562 L 267.652344 0.136719 L 266.082031 1.441406 L 253.15625 5.144531 L 244.09375 7.574219 L 237.796875 8.421875 L 231.132812 8.953125 L 225.550781 8.714844 L 220.578125 8.011719 L 224.082031 -6.265625 L 226.15625 -6.332031 L 261.210938 -13.714844 L 260.90625 -10.640625 L 265.519531 -8.179688 L 264.902344 -2.335938 Z M 268.042969 -1.226562 "/>
<path style=" stroke:none;fill-rule:nonzero;fill:rgb(39.99939%,39.99939%,39.99939%);fill-opacity:0.3;" d="M 265.503906 3.234375 L 274.554688 5.453125 L 274.652344 6.046875 L 275.195312 23.324219 L 276.664062 24.984375 L 276.597656 27.269531 L 275.167969 37.796875 L 273.964844 38.226562 L 271.753906 39.652344 L 269.4375 41.402344 L 260.074219 38.804688 L 253.269531 40.59375 L 247.457031 39.605469 L 241.832031 37.269531 L 241.40625 38.03125 L 240.980469 38.796875 L 246.890625 41.085938 L 252.5625 42.25 L 255.96875 41.363281 L 250.761719 61.808594 L 250.242188 62.386719 L 249.019531 64.011719 L 247.84375 66.023438 L 245.8125 69.367188 L 244.378906 70.488281 L 239.628906 71.253906 L 235.351562 70.660156 L 231.460938 69.183594 L 218.136719 65.300781 L 217.730469 61.03125 L 218.914062 47.941406 L 218.753906 32.410156 L 219.605469 10.199219 L 230.609375 10.308594 L 238.410156 9.59375 L 247.476562 8.359375 L 259.167969 5.140625 Z M 265.503906 3.234375 "/>
<path style=" stroke:none;fill-rule:nonzero;fill:rgb(39.99939%,39.99939%,39.99939%);fill-opacity:0.3;" d="M 27.652344 347.191406 L 27.59375 347.457031 L 13.707031 342.074219 L 15.5 342.707031 L 23.1875 344.550781 Z M 27.652344 347.191406 "/>
<g clip-path="url(#clip5)" clip-rule="nonzero">
<path style=" stroke:none;fill-rule:nonzero;fill:rgb(39.99939%,39.99939%,39.99939%);fill-opacity:0.3;" d="M 5.066406 339.03125 L 4.878906 339.554688 L 4.558594 340.433594 L 14.769531 344.351562 L 13.410156 348.3125 L 14.203125 348.496094 L 14.992188 348.683594 L 16.226562 344.972656 L 27.191406 349.175781 L 23.421875 363.667969 L 26.441406 368.207031 L 23.148438 381.375 L 23.105469 386.503906 L 19.398438 403.796875 L 20.191406 405.933594 L 20.15625 407.589844 L 19.101562 410.066406 L 18.269531 410.363281 L 12.734375 410.363281 L 9.042969 406.363281 L 5.96875 399.90625 L 5.871094 399.878906 L 5.15625 397.421875 L 4.480469 387.144531 L 2.214844 383.523438 L -1.027344 379.957031 L -2.167969 374.964844 L -2.667969 371.476562 L -3.023438 369.265625 L -3.726562 366.722656 L -5.304688 363.796875 L -12.488281 357.375 L -7.296875 345.691406 L -8.101562 345.328125 L -8.90625 344.96875 L -13.738281 356.148438 L -24.035156 347.335938 L -23.246094 345.167969 L -25.9375 343.511719 L -22.488281 335.636719 L -16.789062 331.328125 Z M 5.066406 339.03125 "/>
</g>
<g clip-path="url(#clip6)" clip-rule="nonzero">
<path style=" stroke:none;fill-rule:nonzero;fill:rgb(39.99939%,39.99939%,39.99939%);fill-opacity:0.3;" d="M 0.976562 386.691406 L 2.527344 399.957031 L 1.660156 414.667969 L -15.558594 432.503906 L -20.789062 430.964844 L -25.707031 430.042969 L -28.214844 429.484375 L -31.894531 428.441406 L -32.382812 428.164062 L -33.394531 427.0625 L -33.394531 425.125 L -33.328125 424.527344 L -32.238281 417.289062 L -31.550781 414.359375 L -31.425781 413.9375 L -25.507812 423.1875 L -24.671875 422.515625 L -30.964844 412.371094 L -30.011719 409.132812 L -29.167969 407.195312 L -28.941406 406.914062 L -28.585938 405.871094 L -27.859375 404.210938 L -27.246094 400.828125 L -27.246094 400.519531 L -27.445312 397.304688 L -19.207031 399.402344 L -19.101562 398.878906 L -18.996094 398.359375 L -27.523438 396.105469 L -27.554688 395.601562 L -28.78125 387.605469 L -28.476562 383.914062 L -27.246094 377.765625 L -26.9375 368.539062 L -26.015625 364.539062 L -25.09375 361.15625 L -25.09375 353.550781 L -22.8125 351.09375 L -6.535156 365.96875 L -5.8125 369.976562 L -2.667969 381.03125 L -0.441406 383.460938 Z M 0.976562 386.691406 "/>
</g>
<path style=" stroke:none;fill-rule:nonzero;fill:rgb(39.99939%,39.99939%,39.99939%);fill-opacity:0.3;" d="M 6.90625 322.003906 L 30.941406 332.644531 L 27.652344 347.191406 L 23.1875 344.550781 L 15.5 342.707031 L 13.707031 342.074219 L 5.164062 338.765625 L 5.066406 339.03125 L -16.789062 331.328125 L -6.949219 321.796875 L -4.488281 318.414062 L -3.875 314.722656 L -3.566406 310.722656 L -3.6875 308.886719 L -3.550781 308.917969 L -1.636719 310.253906 L -0.457031 311.636719 L 0.0625 312.628906 L 0.277344 314.53125 L 0.894531 315.921875 L 1.570312 316.507812 L 2.976562 316.777344 L 4.1875 317.492188 L 4.945312 318.210938 L 5.425781 319.132812 L 5.890625 320.425781 Z M 6.90625 322.003906 "/>
<path style=" stroke:none;fill-rule:nonzero;fill:rgb(39.99939%,39.99939%,39.99939%);fill-opacity:0.3;" d="M 7.664062 320.203125 L 6.652344 318.625 L 6.1875 317.332031 L 5.707031 316.410156 L 4.945312 315.691406 L 3.738281 314.976562 L 2.328125 314.707031 L 1.65625 314.121094 L 1.035156 312.730469 L 0.820312 310.828125 L 0.300781 309.835938 L -0.878906 308.453125 L -2.792969 307.117188 L -3.828125 306.808594 L -3.875 306.109375 L -4.796875 302.726562 L -4.488281 300.269531 L 6.582031 303.652344 L 10.273438 305.496094 L 11.503906 308.570312 L 11.195312 312.875 L 9.964844 317.796875 L 9.964844 320.566406 L 11.503906 321.488281 L 13.960938 322.410156 L 31.800781 329.175781 L 31.910156 329.199219 L 31.5 330.371094 Z M 7.664062 320.203125 "/>
<path style=" stroke:none;fill-rule:nonzero;fill:rgb(39.99939%,39.99939%,39.99939%);fill-opacity:0.3;" d="M 272.890625 314.988281 L 265.316406 342.121094 L 250.128906 339.460938 L 237.964844 336.871094 L 238.261719 297.570312 L 275.488281 309.46875 Z M 272.890625 314.988281 "/>
<g clip-path="url(#clip7)" clip-rule="nonzero">
<path style=" stroke:none;fill-rule:nonzero;fill:rgb(39.99939%,39.99939%,39.99939%);fill-opacity:0.3;" d="M 327.996094 337.199219 L 343.421875 354.5625 L 330.207031 376.613281 L 318.664062 364.484375 Z M 327.996094 337.199219 "/>
</g>
<g clip-path="url(#clip8)" clip-rule="nonzero">
<path style=" stroke:none;fill-rule:nonzero;fill:rgb(39.99939%,39.99939%,39.99939%);fill-opacity:0.3;" d="M 252.183594 341.148438 L 273.234375 344.667969 L 300.84375 350.296875 L 297.808594 404.292969 L 298.113281 412.945312 L 295.605469 415.226562 L 294.117188 415.394531 L 291.464844 415.09375 L 287.574219 414.757812 L 283.050781 406.765625 L 277.167969 403.734375 L 269.089844 403.457031 L 251.410156 400.375 L 238.832031 398.101562 L 233.914062 393.019531 L 238.300781 339.109375 Z M 252.183594 341.148438 "/>
</g>
<path style=" stroke:none;fill-rule:nonzero;fill:rgb(39.99939%,39.99939%,39.99939%);fill-opacity:0.3;" d="M 276.871094 307.585938 L 276.570312 308.191406 L 238.4375 296.046875 L 238.460938 295.351562 Z M 276.871094 307.585938 "/>
<path style=" stroke:none;fill-rule:nonzero;fill:rgb(39.99939%,39.99939%,39.99939%);fill-opacity:0.3;" d="M 295.398438 322.726562 L 278.3125 317.96875 L 276.199219 317.464844 L 279.554688 308.4375 L 279.972656 308.570312 L 302.382812 306.113281 L 301.597656 308.089844 Z M 295.398438 322.726562 "/>
<path style=" stroke:none;fill-rule:nonzero;fill:rgb(39.99939%,39.99939%,39.99939%);fill-opacity:0.3;" d="M 315.742188 318.578125 L 315.167969 319.890625 L 303.730469 307.933594 L 304.507812 305.878906 L 305.1875 305.804688 Z M 315.742188 318.578125 "/>
<path style=" stroke:none;fill-rule:nonzero;fill:rgb(39.99939%,39.99939%,39.99939%);fill-opacity:0.3;" d="M 328.058594 332.175781 L 327.652344 333.121094 L 315.796875 321.011719 L 316.496094 319.492188 L 316.875 319.949219 Z M 328.058594 332.175781 "/>
<path style=" stroke:none;fill-rule:nonzero;fill:rgb(39.99939%,39.99939%,39.99939%);fill-opacity:0.3;" d="M 345.691406 351.386719 L 344.800781 352.984375 L 328.882812 335.378906 L 329.582031 333.839844 L 330.097656 334.402344 Z M 345.691406 351.386719 "/>
<path style=" stroke:none;fill-rule:nonzero;fill:rgb(39.99939%,39.99939%,39.99939%);fill-opacity:0.3;" d="M 314.804688 323.375 L 326.457031 335.265625 L 323.34375 343.785156 L 310.238281 335.882812 Z M 314.804688 323.375 "/>
<path style=" stroke:none;fill-rule:nonzero;fill:rgb(39.99939%,39.99939%,39.99939%);fill-opacity:0.3;" d="M 296.75 323.269531 L 302.597656 309.527344 L 313.035156 322.042969 L 308.410156 334.503906 Z M 296.75 323.269531 "/>
<path style=" stroke:none;fill-rule:nonzero;fill:rgb(39.99939%,39.99939%,39.99939%);fill-opacity:0.3;" d="M 275.402344 319.550781 L 295.046875 324.464844 L 300.132812 338.632812 L 303.976562 343.882812 L 303.132812 346.789062 L 298.042969 346.890625 L 288.917969 345.78125 L 276.082031 343.664062 L 268.128906 342.152344 L 271.84375 330.644531 L 285.785156 333.585938 L 286.007812 332.585938 L 286.183594 331.804688 L 272.328125 328.976562 Z M 275.402344 319.550781 "/>
<g clip-path="url(#clip9)" clip-rule="nonzero">
<path style=" stroke:none;fill-rule:nonzero;fill:rgb(39.99939%,39.99939%,39.99939%);fill-opacity:0.3;" d="M 297.074219 325.617188 L 307.824219 336.210938 L 309.734375 337.511719 L 322.699219 345.34375 L 315.851562 364.546875 L 333.640625 382.691406 L 326.433594 410.453125 L 318.535156 422.558594 L 316.710938 423.527344 L 314.074219 424.046875 L 311.101562 423.703125 L 300.75 418.253906 L 299.269531 417.90625 L 299.746094 403.582031 L 304.046875 351.484375 L 307.472656 343.066406 L 305.546875 341.601562 L 302.929688 339.457031 Z M 297.074219 325.617188 "/>
</g>
<g clip-path="url(#clip10)" clip-rule="nonzero">
<path style=" stroke:none;fill-rule:nonzero;fill:rgb(39.99939%,39.99939%,39.99939%);fill-opacity:0.3;" d="M 382.277344 298.0625 L 386.101562 299.9375 L 388.257812 301.300781 L 395.804688 306.996094 L 408.167969 313.175781 L 421.378906 318.902344 L 421.964844 320.878906 L 410.234375 333.144531 L 395.394531 345.511719 L 379.511719 357.722656 L 368.3125 346.269531 L 356.972656 334.53125 L 371.511719 314.082031 L 377.277344 305.230469 L 380.933594 299.894531 Z M 382.277344 298.0625 "/>
</g>
<g clip-path="url(#clip11)" clip-rule="nonzero">
<path style=" stroke:none;fill-rule:nonzero;fill:rgb(39.99939%,39.99939%,39.99939%);fill-opacity:0.3;" d="M 356 336.496094 L 365.875 346.914062 L 377.746094 358.863281 L 361.773438 370.253906 L 346.816406 355.433594 L 350.4375 348.140625 L 352.054688 344.210938 Z M 356 336.496094 "/>
</g>
<path style=" stroke:none;fill-rule:nonzero;fill:rgb(39.99939%,39.99939%,39.99939%);fill-opacity:0.3;" d="M 306.855469 256.09375 L 313.695312 261.480469 L 319.640625 265.5625 L 310.910156 285.328125 L 303.996094 277.214844 L 298.769531 272.316406 L 299.652344 270.746094 Z M 306.855469 256.09375 "/>
<path style=" stroke:none;fill-rule:nonzero;fill:rgb(39.99939%,39.99939%,39.99939%);fill-opacity:0.3;" d="M 320.75 266.324219 L 327.363281 271.707031 L 334.453125 276.625 L 323.5625 300.480469 L 312.039062 286.550781 Z M 320.75 266.324219 "/>
<path style=" stroke:none;fill-rule:nonzero;fill:rgb(39.99939%,39.99939%,39.99939%);fill-opacity:0.3;" d="M 335.117188 276.96875 L 342.136719 280.929688 L 348.941406 284.148438 L 336.648438 313.054688 L 324.097656 301.113281 Z M 335.117188 276.96875 "/>
<g clip-path="url(#clip12)" clip-rule="nonzero">
<path style=" stroke:none;fill-rule:nonzero;fill:rgb(39.99939%,39.99939%,39.99939%);fill-opacity:0.3;" d="M 350.351562 284.691406 L 366.828125 291.980469 L 380.664062 297.5 L 369.160156 313.378906 L 343.535156 300.710938 Z M 350.351562 284.691406 "/>
</g>
<path style=" stroke:none;fill-rule:nonzero;fill:rgb(39.99939%,39.99939%,39.99939%);fill-opacity:0.3;" d="M 298.023438 273.644531 L 304.210938 279.75 L 309.945312 287.066406 L 302.382812 306.113281 L 279.972656 308.570312 L 291.351562 285.507812 Z M 298.023438 273.644531 "/>
<path style=" stroke:none;fill-rule:nonzero;fill:rgb(39.99939%,39.99939%,39.99939%);fill-opacity:0.3;" d="M 311.070312 288.503906 L 322.847656 302.367188 L 315.742188 318.578125 L 305.1875 305.804688 L 304.507812 305.878906 Z M 311.070312 288.503906 "/>
<path style=" stroke:none;fill-rule:nonzero;fill:rgb(39.99939%,39.99939%,39.99939%);fill-opacity:0.3;" d="M 323.832031 303.496094 L 335.371094 315.175781 L 328.058594 332.175781 L 316.875 319.949219 L 316.496094 319.492188 Z M 323.832031 303.496094 "/>
<g clip-path="url(#clip13)" clip-rule="nonzero">
<path style=" stroke:none;fill-rule:nonzero;fill:rgb(39.99939%,39.99939%,39.99939%);fill-opacity:0.3;" d="M 343.144531 301.773438 L 368.269531 314.75 L 355.785156 333.570312 L 337.253906 315.523438 Z M 343.144531 301.773438 "/>
</g>
<path style=" stroke:none;fill-rule:nonzero;fill:rgb(39.99939%,39.99939%,39.99939%);fill-opacity:0.3;" d="M 336.964844 317.585938 L 354.960938 334.769531 L 345.691406 351.386719 L 330.097656 334.402344 L 329.582031 333.839844 Z M 336.964844 317.585938 "/>
<g clip-path="url(#clip14)" clip-rule="nonzero">
<path style=" stroke:none;fill-rule:nonzero;fill:rgb(39.99939%,39.99939%,39.99939%);fill-opacity:0.3;" d="M 345.417969 357.605469 L 359.308594 371.539062 L 348.308594 379.921875 L 337.902344 368.96875 Z M 345.417969 357.605469 "/>
</g>
<g clip-path="url(#clip15)" clip-rule="nonzero">
<path style=" stroke:none;fill-rule:nonzero;fill:rgb(39.99939%,39.99939%,39.99939%);fill-opacity:0.3;" d="M 355.761719 265.074219 L 370.9375 270.753906 L 371.242188 270.03125 L 371.332031 269.824219 L 397.445312 269.824219 L 396.074219 272.808594 L 394.019531 272.375 L 394.285156 271.644531 L 393.464844 271.324219 L 392.640625 271 L 383.140625 295.460938 L 374.292969 292.195312 L 358.421875 285.578125 L 348.6875 281.382812 L 343.375 278.433594 L 348.054688 272.777344 Z M 355.761719 265.074219 "/>
</g>
<path style=" stroke:none;fill-rule:nonzero;fill:rgb(39.99939%,39.99939%,39.99939%);fill-opacity:0.3;" d="M 357.71875 263.914062 L 357.140625 263.691406 L 357.160156 263.671875 Z M 357.71875 263.914062 "/>
<path style=" stroke:none;fill-rule:nonzero;fill:rgb(39.99939%,39.99939%,39.99939%);fill-opacity:0.3;" d="M 341.976562 276.460938 L 340.957031 277.640625 L 335.777344 274.25 L 329.109375 269.601562 L 321.636719 263.921875 L 311.765625 256.3125 L 308.539062 252.667969 L 308.570312 252.601562 L 323.023438 263.367188 L 329.484375 268.59375 L 337.480469 274.4375 Z M 341.976562 276.460938 "/>
<g clip-path="url(#clip16)" clip-rule="nonzero">
<path style=" stroke:none;fill-rule:nonzero;fill:rgb(39.99939%,39.99939%,39.99939%);fill-opacity:0.3;" d="M 437.65625 -3.152344 L 437.644531 -3.167969 L 435.761719 -7.011719 L 434.507812 -9.476562 L 433.902344 -10.09375 L 433.167969 -10.636719 L 433.488281 -15.8125 L 416.464844 -22.828125 L 419.3125 -30.207031 L 418.800781 -30.4375 L 418.285156 -30.667969 L 414.871094 -22.15625 L 432.121094 -15.269531 L 432.207031 -14.519531 L 431.949219 -9.960938 L 433.039062 -9.476562 L 433.632812 -9.050781 L 433.925781 -8.351562 L 436.191406 -3.457031 L 433.027344 -4.121094 L 417.128906 -4.796875 L 396.613281 -8.683594 L 398.367188 -12.90625 L 405.359375 -10.429688 L 405.5625 -10.902344 L 405.769531 -11.371094 L 398.824219 -14.011719 L 408.519531 -37.371094 L 408.019531 -37.519531 L 407.515625 -37.667969 L 394.757812 -9.035156 L 377.917969 -12.230469 L 382.207031 -22.207031 L 381.753906 -22.441406 L 381.296875 -22.675781 L 376.902344 -12.421875 L 353.984375 -16.765625 L 354.21875 -17.324219 L 353.234375 -17.65625 L 352.460938 -17.917969 L 361.304688 -50.851562 L 367.820312 -56.226562 L 379.398438 -59.832031 L 410.535156 -52.375 L 411.765625 -51.164062 L 445.007812 -38.734375 L 451.085938 -34.496094 L 473.890625 -24.953125 L 459.484375 -3.667969 L 454.53125 0.378906 Z M 437.65625 -3.152344 "/>
</g>
<path style=" stroke:none;fill-rule:nonzero;fill:rgb(39.99939%,39.99939%,39.99939%);fill-opacity:0.3;" d="M 330.277344 200.613281 L 334.75 202.390625 L 332.347656 210.871094 L 314.050781 204.34375 L 314.480469 203.378906 L 330.40625 208.625 Z M 330.277344 200.613281 "/>
<path style=" stroke:none;fill-rule:nonzero;fill:rgb(39.99939%,39.99939%,39.99939%);fill-opacity:0.3;" d="M 313.285156 202.988281 L 312.863281 203.917969 L 300.183594 199.410156 L 301.121094 197.597656 L 304.265625 200.015625 Z M 313.285156 202.988281 "/>
<path style=" stroke:none;fill-rule:nonzero;fill:rgb(39.99939%,39.99939%,39.99939%);fill-opacity:0.3;" d="M 299.625 196.792969 L 298.503906 198.8125 L 287.914062 195.148438 L 288.582031 194.480469 L 291.964844 194.789062 L 296.269531 196.015625 Z M 299.625 196.792969 "/>
<path style=" stroke:none;fill-rule:nonzero;fill:rgb(39.99939%,39.99939%,39.99939%);fill-opacity:0.3;" d="M 283.179688 198.996094 L 282.511719 199.761719 L 279.484375 200.320312 L 273.746094 199.515625 L 273.820312 199.398438 L 275.667969 198.476562 L 278.742188 198.476562 L 283.046875 199.09375 Z M 283.179688 198.996094 "/>
<path style=" stroke:none;fill-rule:nonzero;fill:rgb(39.99939%,39.99939%,39.99939%);fill-opacity:0.3;" d="M 354.746094 264.691406 L 355.761719 265.074219 L 348.054688 272.777344 Z M 354.746094 264.691406 "/>
<g clip-path="url(#clip17)" clip-rule="nonzero">
<path style=" stroke:none;fill-rule:nonzero;fill:rgb(39.99939%,39.99939%,39.99939%);fill-opacity:0.3;" d="M 371.332031 269.824219 L 371.546875 269.308594 L 357.71875 263.914062 L 357.160156 263.671875 L 357.140625 263.691406 L 356.210938 263.328125 L 361.609375 252.480469 L 365.457031 252.480469 L 385.789062 257.164062 L 386.847656 254.65625 L 390.15625 246.875 L 404.699219 248.507812 L 413.691406 251.019531 L 422.019531 255.539062 L 418.316406 268.96875 L 430.082031 273.738281 L 436.164062 268.46875 L 449.125 271.609375 L 455.867188 276.003906 L 458.046875 280.183594 L 462.210938 288.179688 L 460.308594 293.035156 L 445.546875 290.613281 L 429.027344 285.503906 L 428.757812 286.296875 L 428.484375 287.09375 L 444.808594 292.140625 L 440.308594 302.078125 L 430.828125 306.476562 L 425.089844 316.746094 L 423.378906 316.15625 L 420.511719 314.722656 L 397.039062 304.359375 L 396.617188 304.0625 L 390.679688 298.421875 L 385.898438 296.828125 L 385.234375 296.386719 L 395.355469 274.367188 L 397.648438 274.851562 L 398.03125 273.21875 L 396.074219 272.808594 L 397.445312 269.824219 Z M 371.332031 269.824219 "/>
</g>
<g clip-path="url(#clip18)" clip-rule="nonzero">
<path style=" stroke:none;fill-rule:nonzero;fill:rgb(39.99939%,39.99939%,39.99939%);fill-opacity:0.3;" d="M 343.925781 217.40625 L 344.394531 215.679688 L 340.246094 213.644531 L 333.78125 211.355469 L 336.261719 202.148438 L 341.722656 203.703125 L 340.957031 206.601562 L 347.058594 209.824219 L 362.371094 214.066406 L 352.4375 247.613281 L 358.464844 252.171875 L 353.214844 263.457031 L 341.976562 276.460938 L 337.480469 274.4375 L 329.484375 268.59375 L 323.023438 263.367188 L 308.570312 252.601562 L 307.347656 251.320312 L 294.199219 236.472656 L 289.871094 231.191406 L 288.078125 228.484375 L 285.359375 224.402344 L 291.152344 219.023438 L 290.726562 218.578125 L 290.199219 218.054688 L 284.539062 223.15625 L 281 219.058594 L 280.195312 218.054688 L 285.25 213.535156 L 284.828125 213.066406 L 284.414062 212.664062 L 279.542969 217.238281 L 279.050781 216.621094 L 275.972656 213.546875 L 271.667969 210.164062 L 271.613281 210.128906 L 270.996094 209.585938 L 270.078125 209.152344 L 268.636719 208.234375 L 273.050781 200.984375 L 278.027344 201.507812 L 282.980469 201.285156 L 285.71875 199.070312 L 286.785156 196.855469 L 331.773438 212.113281 L 333.773438 212.988281 L 335.613281 213.863281 Z M 343.925781 217.40625 "/>
</g>
<g clip-path="url(#clip19)" clip-rule="nonzero">
<path style=" stroke:none;fill-rule:nonzero;fill:rgb(39.99939%,39.99939%,39.99939%);fill-opacity:0.3;" d="M 407.171875 118.097656 L 407.285156 119.441406 L 406.886719 121.050781 L 406.21875 122.101562 L 405.554688 123.367188 L 405.332031 124.84375 L 404.886719 126.105469 L 403.554688 129.898438 L 401.109375 133.902344 L 399.335938 137.066406 L 397.335938 143.597656 L 394.890625 148.867188 L 392.449219 155.820312 L 391.792969 158.820312 L 389.988281 160.679688 L 386.027344 161.480469 L 380.902344 160.453125 L 373.796875 158.132812 L 368.691406 156.027344 L 364.253906 153.074219 L 359.8125 151.386719 L 356.925781 150.753906 L 353.375 148.4375 L 352.042969 147.382812 L 358.707031 127.996094 L 359.863281 123.488281 L 363.953125 112.859375 L 390.585938 115.898438 L 394.171875 115.1875 L 398.582031 115.117188 L 403.4375 116.324219 Z M 407.171875 118.097656 "/>
</g>
<path style=" stroke:none;fill-rule:nonzero;fill:rgb(39.99939%,39.99939%,39.99939%);fill-opacity:0.3;" d="M 292.933594 -15.152344 L 316.3125 -9.609375 L 314.664062 -4.234375 L 314.542969 -3.675781 L 312.730469 2.269531 L 313.882812 2.632812 L 310.578125 14.011719 L 316.109375 15.835938 L 315.1875 18.972656 L 335.394531 27.582031 L 326.773438 46.328125 L 324.871094 45.636719 L 320.945312 44.503906 L 325.628906 32.894531 L 324.652344 32.558594 L 319.753906 44.160156 L 311.03125 41.640625 L 307.648438 41.023438 L 298.117188 39.792969 L 295.464844 39.382812 L 291.726562 38.609375 L 284.03125 37.609375 L 280.277344 37.027344 L 278.644531 28.085938 L 278.683594 27.691406 L 278.324219 26.339844 L 277.398438 21.261719 L 276.660156 5.214844 L 274.378906 4.398438 L 273.820312 1.046875 L 270.128906 -0.492188 L 269.410156 -0.746094 L 269.582031 -1.433594 L 286.828125 -2.421875 L 286.894531 -3.097656 L 286.957031 -3.773438 L 270.105469 -2.546875 L 271.257812 -8.449219 L 289.328125 -6.078125 Z M 292.933594 -15.152344 "/>
<g clip-path="url(#clip20)" clip-rule="nonzero">
<path style=" stroke:none;fill-rule:nonzero;fill:rgb(39.99939%,39.99939%,39.99939%);fill-opacity:0.3;" d="M 327.242188 46.5 L 336.675781 26.75 L 316.480469 18.242188 L 317.582031 15.316406 L 312.753906 13.667969 L 319.515625 10.816406 L 319.3125 10.375 L 319.113281 9.945312 L 312.523438 12.65625 L 316.078125 0.90625 L 341.933594 10.570312 L 337.996094 18.742188 L 364.703125 29.929688 L 359.132812 43.765625 L 338.027344 34.503906 L 337.804688 35.054688 L 337.515625 35.710938 L 358.574219 45.273438 L 353.042969 56.539062 L 344.207031 53.277344 L 335.25 49.851562 L 334.097656 49.328125 L 333.84375 49.222656 L 335.257812 46.546875 L 334.21875 45.800781 L 335.570312 43.371094 L 333.566406 42.324219 L 332.289062 42.707031 L 332.414062 43.277344 L 333.675781 44.421875 L 331.816406 48.367188 L 328.253906 46.867188 Z M 327.242188 46.5 "/>
</g>
<g clip-path="url(#clip21)" clip-rule="nonzero">
<path style=" stroke:none;fill-rule:nonzero;fill:rgb(39.99939%,39.99939%,39.99939%);fill-opacity:0.3;" d="M 357.226562 61.066406 L 388.464844 46.445312 L 403.691406 55.546875 L 420.472656 61.964844 L 419.15625 65.671875 L 417.078125 71.128906 L 416.480469 73.167969 L 422.957031 75.613281 L 419.5625 83.988281 L 399.417969 78.507812 L 385.324219 73.652344 L 380.691406 72.359375 L 378.925781 72.933594 L 378.070312 72.699219 L 361.773438 63.472656 Z M 357.226562 61.066406 "/>
</g>
<g clip-path="url(#clip22)" clip-rule="nonzero">
<path style=" stroke:none;fill-rule:nonzero;fill:rgb(39.99939%,39.99939%,39.99939%);fill-opacity:0.3;" d="M 376.902344 -12.421875 L 370.21875 3.171875 L 365.0625 1.007812 L 364.6875 1.683594 L 364.40625 2.269531 L 385.847656 11.039062 L 378.707031 21.621094 L 378.890625 22.476562 L 379.507812 22.847656 L 405.59375 33.621094 L 357.886719 57.253906 L 355.808594 56.816406 L 362.464844 41.757812 L 366.507812 32.304688 L 367.363281 30.40625 L 367.011719 28.332031 L 340.871094 17.792969 L 343.71875 11.363281 L 344.648438 8.320312 L 351.425781 -10.636719 L 353.984375 -16.765625 Z M 376.902344 -12.421875 "/>
</g>
<path style=" stroke:none;fill-rule:nonzero;fill:rgb(39.99939%,39.99939%,39.99939%);fill-opacity:0.3;" d="M 351.957031 -17.214844 L 342.25 8.339844 L 316.730469 -2.25 L 326.824219 -27.863281 Z M 351.957031 -17.214844 "/>
<path style=" stroke:none;fill-rule:nonzero;fill:rgb(39.99939%,39.99939%,39.99939%);fill-opacity:0.3;" d="M 274.554688 5.453125 L 274.636719 5.472656 L 274.652344 6.046875 Z M 274.554688 5.453125 "/>
<path style="fill-rule:nonzero;fill:rgb(39.99939%,39.99939%,39.99939%);fill-opacity:1;stroke-width:0.03;stroke-linecap:square;stroke-linejoin:miter;stroke:rgb(39.99939%,39.99939%,39.99939%);stroke-opacity:1;stroke-miterlimit:3.239307;" d="M 199.800781 190.394531 L 199.878906 190.464844 L 192.640625 189.246094 Z M 199.800781 190.394531 " transform="matrix(1,0,0,1,-74,-13)"/>
<path style="fill-rule:nonzero;fill:rgb(39.99939%,39.99939%,39.99939%);fill-opacity:1;stroke-width:0.03;stroke-linecap:square;stroke-linejoin:miter;stroke:rgb(39.99939%,39.99939%,39.99939%);stroke-opacity:1;stroke-miterlimit:3.239307;" d="M 129.070312 278.617188 L 125.429688 288.527344 L 127.632812 282.207031 Z M 129.070312 278.617188 " transform="matrix(1,0,0,1,-74,-13)"/>
<path style="fill-rule:nonzero;fill:rgb(39.99939%,39.99939%,39.99939%);fill-opacity:1;stroke-width:0.03;stroke-linecap:square;stroke-linejoin:miter;stroke:rgb(39.99939%,39.99939%,39.99939%);stroke-opacity:1;stroke-miterlimit:3.239307;" d="M 344.503906 226.179688 L 351.105469 232.519531 L 355.289062 238.230469 L 348.460938 255.292969 L 338.863281 241.742188 Z M 344.503906 226.179688 " transform="matrix(1,0,0,1,-74,-13)"/>
<path style="fill-rule:nonzero;fill:rgb(39.99939%,39.99939%,39.99939%);fill-opacity:1;stroke-width:0.03;stroke-linecap:square;stroke-linejoin:miter;stroke:rgb(39.99939%,39.99939%,39.99939%);stroke-opacity:1;stroke-miterlimit:3.239307;" d="M 355.882812 239.367188 L 365.863281 253.160156 L 358.816406 268.0625 L 349.351562 256.289062 Z M 355.882812 239.367188 " transform="matrix(1,0,0,1,-74,-13)"/>
<path style="fill-rule:nonzero;fill:rgb(39.99939%,39.99939%,39.99939%);fill-opacity:1;stroke-width:0.03;stroke-linecap:square;stroke-linejoin:miter;stroke:rgb(39.99939%,39.99939%,39.99939%);stroke-opacity:1;stroke-miterlimit:3.239307;" d="M 367.929688 254.667969 L 378.945312 267.253906 L 371.28125 283.453125 L 360.484375 269.859375 Z M 367.929688 254.667969 " transform="matrix(1,0,0,1,-74,-13)"/>
<path style="fill-rule:nonzero;fill:rgb(39.99939%,39.99939%,39.99939%);fill-opacity:1;stroke-width:0.03;stroke-linecap:square;stroke-linejoin:miter;stroke:rgb(39.99939%,39.99939%,39.99939%);stroke-opacity:1;stroke-miterlimit:3.239307;" d="M 349.328125 258.851562 L 357.964844 269.773438 L 352.503906 285.230469 L 342.480469 274.269531 L 346.214844 264.691406 L 348.707031 259.179688 Z M 349.328125 258.851562 " transform="matrix(1,0,0,1,-74,-13)"/>
<path style="fill-rule:nonzero;fill:rgb(39.99939%,39.99939%,39.99939%);fill-opacity:1;stroke-width:0.03;stroke-linecap:square;stroke-linejoin:miter;stroke:rgb(39.99939%,39.99939%,39.99939%);stroke-opacity:1;stroke-miterlimit:3.239307;" d="M 336.46875 242.34375 L 348.355469 257.980469 L 341.527344 273.453125 L 332.25 260.46875 L 333.496094 250.414062 L 335.222656 244.378906 L 335.5 242.671875 Z M 336.46875 242.34375 " transform="matrix(1,0,0,1,-74,-13)"/>
<path style="fill-rule:nonzero;fill:rgb(39.99939%,39.99939%,39.99939%);fill-opacity:1;stroke-width:0.03;stroke-linecap:square;stroke-linejoin:miter;stroke:rgb(39.99939%,39.99939%,39.99939%);stroke-opacity:1;stroke-miterlimit:3.239307;" d="M 333.984375 241.253906 L 303.910156 231.570312 L 298.636719 230.027344 L 304.015625 210.390625 L 322.539062 214.980469 L 340.554688 223.789062 L 340.523438 226.925781 Z M 333.984375 241.253906 " transform="matrix(1,0,0,1,-74,-13)"/>
<path style="fill-rule:nonzero;fill:rgb(39.99939%,39.99939%,39.99939%);fill-opacity:1;stroke-width:0.03;stroke-linecap:square;stroke-linejoin:miter;stroke:rgb(39.99939%,39.99939%,39.99939%);stroke-opacity:1;stroke-miterlimit:3.239307;" d="M 352.628906 288.320312 L 353.515625 286.050781 L 358.949219 271.042969 L 370.359375 284.589844 L 364.867188 294.257812 L 363.789062 295.066406 L 363.671875 295.292969 L 362.382812 297.746094 L 349.292969 293.664062 L 338.394531 290.246094 L 329.742188 287.558594 L 325.292969 286.285156 L 313.992188 282.835938 L 317.355469 279.039062 L 320.457031 276.039062 L 325.984375 271.222656 L 328.128906 268.066406 L 329.710938 265.710938 L 330.875 263.433594 L 335.570312 267.773438 L 338.925781 273.226562 L 340.230469 275.828125 L 341.496094 277.96875 L 348.824219 285.023438 Z M 352.628906 288.320312 " transform="matrix(1,0,0,1,-74,-13)"/>
<path style="fill-rule:nonzero;fill:rgb(39.99939%,39.99939%,39.99939%);fill-opacity:1;stroke-width:0.03;stroke-linecap:square;stroke-linejoin:miter;stroke:rgb(39.99939%,39.99939%,39.99939%);stroke-opacity:1;stroke-miterlimit:3.239307;" d="M 380.566406 268.863281 L 380.855469 269.09375 L 373.652344 283.746094 L 372.769531 285.316406 L 372.644531 285.203125 Z M 380.566406 268.863281 " transform="matrix(1,0,0,1,-74,-13)"/>
<path style="fill-rule:nonzero;fill:rgb(39.99939%,39.99939%,39.99939%);fill-opacity:1;stroke-width:0.03;stroke-linecap:square;stroke-linejoin:miter;stroke:rgb(39.99939%,39.99939%,39.99939%);stroke-opacity:1;stroke-miterlimit:3.239307;" d="M 313.34375 283.507812 L 362.007812 298.375 L 350.871094 320.585938 L 312.460938 308.351562 L 312.585938 304.832031 L 318.707031 306.710938 L 319.160156 304.40625 L 312.222656 302.515625 Z M 313.34375 283.507812 " transform="matrix(1,0,0,1,-74,-13)"/>
<path style="fill-rule:nonzero;fill:rgb(39.99939%,39.99939%,39.99939%);fill-opacity:1;stroke-width:0.03;stroke-linecap:square;stroke-linejoin:miter;stroke:rgb(39.99939%,39.99939%,39.99939%);stroke-opacity:1;stroke-miterlimit:3.239307;" d="M 353.554688 321.4375 L 354.058594 320.085938 L 358.4375 310.53125 L 359.804688 308.132812 L 361.5625 305.171875 L 364.730469 298.445312 L 369.824219 288.671875 L 371.3125 285.945312 L 372.023438 286.644531 L 365.351562 298.507812 L 353.972656 321.570312 Z M 353.554688 321.4375 " transform="matrix(1,0,0,1,-74,-13)"/>
<path style="fill-rule:nonzero;fill:rgb(39.99939%,39.99939%,39.99939%);fill-opacity:1;stroke-width:0.03;stroke-linecap:square;stroke-linejoin:miter;stroke:rgb(39.99939%,39.99939%,39.99939%);stroke-opacity:1;stroke-miterlimit:3.239307;" d="M 341.128906 220.53125 L 340.699219 221.15625 L 332.152344 216.976562 L 324.113281 213.253906 L 323.472656 212.429688 L 323.546875 211.839844 L 334.90625 217.9375 Z M 341.128906 220.53125 " transform="matrix(1,0,0,1,-74,-13)"/>
<path style="fill-rule:nonzero;fill:rgb(39.99939%,39.99939%,39.99939%);fill-opacity:1;stroke-width:0.03;stroke-linecap:square;stroke-linejoin:miter;stroke:rgb(39.99939%,39.99939%,39.99939%);stroke-opacity:1;stroke-miterlimit:3.239307;" d="M 300.984375 206.652344 L 301 206.824219 L 300.4375 206.5625 Z M 300.984375 206.652344 " transform="matrix(1,0,0,1,-74,-13)"/>
<path style="fill-rule:nonzero;fill:rgb(39.99939%,39.99939%,39.99939%);fill-opacity:1;stroke-width:0.03;stroke-linecap:square;stroke-linejoin:miter;stroke:rgb(39.99939%,39.99939%,39.99939%);stroke-opacity:1;stroke-miterlimit:3.239307;" d="M 355 232.058594 L 354.15625 231.085938 L 354.195312 231.054688 Z M 355 232.058594 " transform="matrix(1,0,0,1,-74,-13)"/>
<path style="fill-rule:nonzero;fill:rgb(39.99939%,39.99939%,39.99939%);fill-opacity:1;stroke-width:0.03;stroke-linecap:square;stroke-linejoin:miter;stroke:rgb(39.99939%,39.99939%,39.99939%);stroke-opacity:1;stroke-miterlimit:3.239307;" d="M 353.542969 230.238281 L 353.480469 230.296875 L 349.4375 226.476562 L 345.613281 223.128906 L 345.667969 223.164062 L 349.972656 226.546875 L 353.050781 229.621094 Z M 353.542969 230.238281 " transform="matrix(1,0,0,1,-74,-13)"/>
<path style="fill-rule:nonzero;fill:rgb(39.99939%,39.99939%,39.99939%);fill-opacity:1;stroke-width:0.03;stroke-linecap:square;stroke-linejoin:miter;stroke:rgb(39.99939%,39.99939%,39.99939%);stroke-opacity:1;stroke-miterlimit:3.239307;" d="M 344.078125 222.152344 L 342.527344 221.414062 L 342.636719 221.234375 Z M 344.078125 222.152344 " transform="matrix(1,0,0,1,-74,-13)"/>
<path style="fill-rule:nonzero;fill:rgb(39.99939%,39.99939%,39.99939%);fill-opacity:1;stroke-width:0.03;stroke-linecap:square;stroke-linejoin:miter;stroke:rgb(39.99939%,39.99939%,39.99939%);stroke-opacity:1;stroke-miterlimit:3.239307;" d="M 382.539062 265.667969 L 381.347656 264.320312 L 382.570312 265.601562 Z M 382.539062 265.667969 " transform="matrix(1,0,0,1,-74,-13)"/>
<path style="fill-rule:nonzero;fill:rgb(39.99939%,39.99939%,39.99939%);fill-opacity:1;stroke-width:0.03;stroke-linecap:square;stroke-linejoin:miter;stroke:rgb(39.99939%,39.99939%,39.99939%);stroke-opacity:1;stroke-miterlimit:3.239307;" d="M 297.03125 206.015625 L 297.015625 206.625 L 277 202.796875 Z M 297.03125 206.015625 " transform="matrix(1,0,0,1,-74,-13)"/>
<path style="fill-rule:nonzero;fill:rgb(39.99939%,39.99939%,39.99939%);fill-opacity:1;stroke-width:0.03;stroke-linecap:square;stroke-linejoin:miter;stroke:rgb(39.99939%,39.99939%,39.99939%);stroke-opacity:1;stroke-miterlimit:3.239307;" d="M 319.40625 210.757812 L 319.039062 210.910156 L 318.425781 210.617188 Z M 319.40625 210.757812 " transform="matrix(1,0,0,1,-74,-13)"/>
<g clip-path="url(#clip23)" clip-rule="nonzero">
<path style=" stroke:none;fill-rule:evenodd;fill:rgb(85.096741%,85.096741%,81.959534%);fill-opacity:0.7;" d="M 360.300781 280 C 360.300781 276.738281 359.003906 273.609375 356.699219 271.300781 C 354.390625 268.996094 351.261719 267.699219 348 267.699219 C 344.738281 267.699219 341.609375 268.996094 339.300781 271.300781 C 336.996094 273.609375 335.699219 276.738281 335.699219 280 C 335.699219 283.261719 336.996094 286.390625 339.300781 288.699219 C 341.609375 291.003906 344.738281 292.300781 348 292.300781 C 351.261719 292.300781 354.390625 291.003906 356.699219 288.699219 C 359.003906 286.390625 360.300781 283.261719 360.300781 280 Z M 360.300781 280 "/>
</g>
</g>
</svg>
