<?xml version="1.0" encoding="UTF-8"?>
<svg xmlns="http://www.w3.org/2000/svg" xmlns:xlink="http://www.w3.org/1999/xlink" width="361pt" height="361pt" viewBox="0 0 361 361" version="1.1">
<defs>
<clipPath id="clip1">
  <path d="M 335 0 L 360 0 L 360 42 L 335 42 Z M 335 0 "/>
</clipPath>
<clipPath id="clip2">
  <path d="M 295 46 L 360 46 L 360 124 L 295 124 Z M 295 46 "/>
</clipPath>
<clipPath id="clip3">
  <path d="M 302 0 L 360 0 L 360 58 L 302 58 Z M 302 0 "/>
</clipPath>
<clipPath id="clip4">
  <path d="M 115 293 L 188 293 L 188 360 L 115 360 Z M 115 293 "/>
</clipPath>
<clipPath id="clip5">
  <path d="M 174 273 L 282 273 L 282 360 L 174 360 Z M 174 273 "/>
</clipPath>
<clipPath id="clip6">
  <path d="M 238 348 L 289 348 L 289 360 L 238 360 Z M 238 348 "/>
</clipPath>
<clipPath id="clip7">
  <path d="M 57 283 L 134 283 L 134 360 L 57 360 Z M 57 283 "/>
</clipPath>
<clipPath id="clip8">
  <path d="M 0 293 L 27 293 L 27 360 L 0 360 Z M 0 293 "/>
</clipPath>
<clipPath id="clip9">
  <path d="M 0 296 L 81 296 L 81 360 L 0 360 Z M 0 296 "/>
</clipPath>
<clipPath id="clip10">
  <path d="M 353 306 L 360 306 L 360 347 L 353 347 Z M 353 306 "/>
</clipPath>
<clipPath id="clip11">
  <path d="M 334 324 L 360 324 L 360 360 L 334 360 Z M 334 324 "/>
</clipPath>
<clipPath id="clip12">
  <path d="M 308 348 L 360 348 L 360 360 L 308 360 Z M 308 348 "/>
</clipPath>
<clipPath id="clip13">
  <path d="M 300 194 L 360 194 L 360 315 L 300 315 Z M 300 194 "/>
</clipPath>
<clipPath id="clip14">
  <path d="M 297 143 L 360 143 L 360 236 L 297 236 Z M 297 143 "/>
</clipPath>
<clipPath id="clip15">
  <path d="M 333 94 L 360 94 L 360 185 L 333 185 Z M 333 94 "/>
</clipPath>
<clipPath id="clip16">
  <path d="M 262 274 L 360 274 L 360 360 L 262 360 Z M 262 274 "/>
</clipPath>
<clipPath id="clip17">
  <path d="M 285 60 L 360 60 L 360 304 L 285 304 Z M 285 60 "/>
</clipPath>
</defs>
<g id="surface9709">
<path style="fill-rule:nonzero;fill:rgb(0%,0%,0%);fill-opacity:1;stroke-width:0.03;stroke-linecap:square;stroke-linejoin:miter;stroke:rgb(0%,0%,0%);stroke-opacity:1;stroke-miterlimit:10;" d="M 0 178 L 360 178 L 360 -182 L 0 -182 Z M 0 178 " transform="matrix(1,0,0,1,0,182)"/>
<path style=" stroke:none;fill-rule:nonzero;fill:rgb(39.99939%,39.99939%,39.99939%);fill-opacity:0.3;" d="M 315.945312 -32.644531 L 328.882812 -8.539062 L 297.820312 6.699219 L 286.050781 -17.214844 Z M 315.945312 -32.644531 "/>
<path style=" stroke:none;fill-rule:nonzero;fill:rgb(39.99939%,39.99939%,39.99939%);fill-opacity:0.3;" d="M 287.980469 176.441406 L 240.734375 180.214844 L 233.6875 181.625 L 229.503906 176.394531 L 219.640625 165.4375 L 275.8125 146.800781 Z M 287.980469 176.441406 "/>
<path style=" stroke:none;fill-rule:nonzero;fill:rgb(39.99939%,39.99939%,39.99939%);fill-opacity:0.3;" d="M 260.964844 95.992188 L 289.089844 82.546875 L 314.105469 130.925781 L 296.871094 159.972656 L 294.75 160.414062 L 291.222656 159.546875 L 284.957031 147.121094 Z M 260.964844 95.992188 "/>
<path style=" stroke:none;fill-rule:nonzero;fill:rgb(39.99939%,39.99939%,39.99939%);fill-opacity:0.3;" d="M 283.132812 -15.710938 L 294.453125 7.664062 L 263.882812 21.203125 L 252.964844 -0.675781 L 278.769531 -13.457031 Z M 283.132812 -15.710938 "/>
<path style=" stroke:none;fill-rule:nonzero;fill:rgb(39.99939%,39.99939%,39.99939%);fill-opacity:0.3;" d="M 299.625 189.832031 L 330.351562 142.941406 L 330.769531 143.453125 L 323.226562 154.765625 L 313.617188 180 L 301.597656 189.613281 Z M 299.625 189.832031 "/>
<path style=" stroke:none;fill-rule:nonzero;fill:rgb(39.99939%,39.99939%,39.99939%);fill-opacity:0.3;" d="M 211.882812 19.679688 L 224.683594 44.722656 L 165.617188 76.328125 L 153.386719 60.746094 L 147.792969 51.429688 Z M 211.882812 19.679688 "/>
<path style=" stroke:none;fill-rule:nonzero;fill:rgb(39.99939%,39.99939%,39.99939%);fill-opacity:0.3;" d="M 195.054688 126.113281 L 252.851562 99.898438 L 272.546875 138.5 L 216.164062 160.289062 Z M 195.054688 126.113281 "/>
<path style=" stroke:none;fill-rule:nonzero;fill:rgb(39.99939%,39.99939%,39.99939%);fill-opacity:0.3;" d="M 267.207031 26.707031 L 296.851562 11.992188 L 324.570312 59.378906 L 291.804688 72.617188 Z M 267.207031 26.707031 "/>
<path style=" stroke:none;fill-rule:nonzero;fill:rgb(39.99939%,39.99939%,39.99939%);fill-opacity:0.3;" d="M 232.960938 46.71875 L 264.308594 31.019531 L 287.632812 74.285156 L 256.398438 88.800781 Z M 232.960938 46.71875 "/>
<path style=" stroke:none;fill-rule:nonzero;fill:rgb(39.99939%,39.99939%,39.99939%);fill-opacity:0.3;" d="M 167.816406 83.679688 L 227.011719 50.851562 L 249.929688 93.125 L 190.667969 119.234375 L 168.148438 84.59375 Z M 167.816406 83.679688 "/>
<path style=" stroke:none;fill-rule:nonzero;fill:rgb(39.99939%,39.99939%,39.99939%);fill-opacity:0.3;" d="M 229.816406 39.273438 L 218.765625 16.269531 L 248.03125 1.769531 L 260.15625 24.777344 Z M 229.816406 39.273438 "/>
<g clip-path="url(#clip1)" clip-rule="nonzero">
<path style=" stroke:none;fill-rule:nonzero;fill:rgb(39.99939%,39.99939%,39.99939%);fill-opacity:0.3;" d="M 335.628906 -4.816406 L 376.148438 -25.113281 L 399.625 27.476562 L 367.109375 41.738281 Z M 335.628906 -4.816406 "/>
</g>
<g clip-path="url(#clip2)" clip-rule="nonzero">
<path style=" stroke:none;fill-rule:nonzero;fill:rgb(39.99939%,39.99939%,39.99939%);fill-opacity:0.3;" d="M 295.835938 77.632812 L 380.53125 46.644531 L 376.683594 56.238281 L 372.292969 59.921875 L 368.25 63.359375 L 363.941406 67.113281 L 359.480469 71.132812 L 354.101562 76.234375 L 350.390625 79.972656 L 346.609375 84.023438 L 342.3125 88.996094 L 339.65625 94.015625 L 333.753906 103.363281 L 326.671875 114.957031 L 321.496094 123.527344 Z M 295.835938 77.632812 "/>
</g>
<g clip-path="url(#clip3)" clip-rule="nonzero">
<path style=" stroke:none;fill-rule:nonzero;fill:rgb(39.99939%,39.99939%,39.99939%);fill-opacity:0.3;" d="M 302.785156 11.089844 L 331.917969 -3.082031 L 363.160156 44.105469 L 329.578125 57.683594 Z M 302.785156 11.089844 "/>
</g>
<path style=" stroke:none;fill-rule:nonzero;fill:rgb(39.99939%,39.99939%,39.99939%);fill-opacity:0.3;" d="M 106.699219 65.488281 L 103.628906 57.324219 L 104.535156 51.429688 L 101.710938 52.214844 L 101.265625 51.035156 L 131.285156 43.503906 L 138.792969 54.507812 Z M 106.699219 65.488281 "/>
<path style=" stroke:none;fill-rule:nonzero;fill:rgb(39.99939%,39.99939%,39.99939%);fill-opacity:0.3;" d="M 38.964844 -75.164062 L 115.90625 -96.398438 L 143.640625 28.847656 L 131.84375 35.015625 L 117.578125 13.550781 L 105.511719 -6.914062 L 91.445312 -9.5 L 78.515625 -8.664062 L 59.566406 -7.320312 Z M 38.964844 -75.164062 "/>
<path style=" stroke:none;fill-rule:nonzero;fill:rgb(39.99939%,39.99939%,39.99939%);fill-opacity:0.3;" d="M -53.523438 55.082031 L 11.59375 52.066406 L 20.71875 74.214844 L 20.070312 74.402344 L -37.253906 87.476562 L -39.65625 71.855469 L -47.96875 72.195312 Z M -53.523438 55.082031 "/>
<path style=" stroke:none;fill-rule:nonzero;fill:rgb(39.99939%,39.99939%,39.99939%);fill-opacity:0.3;" d="M 69.285156 -0.867188 L 90.753906 -4.847656 L 100.632812 -2.6875 L 128.378906 38.757812 L 88.914062 45.621094 Z M 69.285156 -0.867188 "/>
<path style=" stroke:none;fill-rule:nonzero;fill:rgb(39.99939%,39.99939%,39.99939%);fill-opacity:0.3;" d="M 152.894531 26.738281 L 171.453125 18.246094 L 181.925781 33.792969 L 183.703125 32.546875 L 185.214844 31.292969 L 177.394531 17.972656 L 202.414062 1.15625 L 211.882812 19.679688 L 147.792969 51.429688 L 146.4375 51.894531 L 137.675781 40.734375 Z M 152.894531 26.738281 "/>
<path style=" stroke:none;fill-rule:nonzero;fill:rgb(39.99939%,39.99939%,39.99939%);fill-opacity:0.3;" d="M 101.917969 -218.921875 L 145.28125 -219.351562 L 170.738281 -142.222656 L 191.667969 -100.824219 L 217.652344 -53.273438 L 190.8125 -50.28125 L 189.925781 -50.886719 L 188.878906 -51.972656 L 182.605469 -68.636719 L 180.445312 -67.90625 L 179.058594 -67.449219 L 189.847656 -38.003906 L 198.828125 -4.859375 L 151.550781 19.644531 Z M 101.917969 -218.921875 "/>
<path style=" stroke:none;fill-rule:nonzero;fill:rgb(39.99939%,39.99939%,39.99939%);fill-opacity:0.3;" d="M -100.070312 -92.742188 L -57.320312 -111.089844 L -15.40625 15.042969 L -42.84375 18.09375 L -42.355469 20.941406 L -41.871094 23.789062 L 2.332031 18.894531 L 10.203125 46.386719 L -55.578125 48.75 L -63.105469 24.8125 Z M -100.070312 -92.742188 "/>
<path style=" stroke:none;fill-rule:nonzero;fill:rgb(39.99939%,39.99939%,39.99939%);fill-opacity:0.3;" d="M -27.03125 -57.175781 L 31.078125 -73.894531 L 52.742188 -0.835938 L 69.609375 11.125 L 76.425781 31.953125 L 84.261719 55.890625 L 29.761719 71.609375 L 22.96875 50.246094 L 49.277344 43.320312 L 48.421875 40.535156 L 47.566406 37.746094 L 20.792969 44.234375 L 10.503906 11.632812 L -0.996094 12.441406 Z M -27.03125 -57.175781 "/>
<path style=" stroke:none;fill-rule:nonzero;fill:rgb(39.99939%,39.99939%,39.99939%);fill-opacity:0.3;" d="M 218.765625 16.269531 L 209.203125 -3.640625 L 235.183594 -22.613281 L 248.03125 1.769531 Z M 218.765625 16.269531 "/>
<path style=" stroke:none;fill-rule:nonzero;fill:rgb(39.99939%,39.99939%,39.99939%);fill-opacity:0.3;" d="M 251.578125 247.421875 L 256.789062 265.992188 L 235.703125 268.96875 L 224.957031 270.242188 Z M 251.578125 247.421875 "/>
<path style=" stroke:none;fill-rule:nonzero;fill:rgb(39.99939%,39.99939%,39.99939%);fill-opacity:0.3;" d="M 304.074219 240.382812 L 303.375 235.054688 L 309.824219 235.828125 Z M 304.074219 240.382812 "/>
<g clip-path="url(#clip4)" clip-rule="nonzero">
<path style=" stroke:none;fill-rule:nonzero;fill:rgb(39.99939%,39.99939%,39.99939%);fill-opacity:0.3;" d="M 168.144531 305.847656 L 187.953125 375.203125 L 140.769531 389.324219 L 116.515625 305.976562 L 115.40625 293.96875 Z M 168.144531 305.847656 "/>
</g>
<g clip-path="url(#clip5)" clip-rule="nonzero">
<path style=" stroke:none;fill-rule:nonzero;fill:rgb(39.99939%,39.99939%,39.99939%);fill-opacity:0.3;" d="M 214.453125 279.242188 L 218.988281 278.84375 L 240.914062 276.207031 L 259.671875 273.554688 L 281.539062 298.589844 L 281.171875 298.957031 L 265.550781 325.394531 L 254.738281 341.015625 L 257.472656 343.75 L 239.820312 361.621094 L 218.007812 366.804688 L 221.753906 357.734375 L 224.777344 343.707031 L 221.734375 344.636719 L 218.691406 345.570312 L 216.316406 356.914062 L 211.277344 367.175781 L 193.320312 372.667969 L 181.855469 331.957031 L 216.195312 324.597656 L 215.882812 323.167969 L 215.511719 321.394531 L 180.898438 328.566406 L 174.804688 307.347656 L 180.238281 308.570312 Z M 214.453125 279.242188 "/>
</g>
<g clip-path="url(#clip6)" clip-rule="nonzero">
<path style=" stroke:none;fill-rule:nonzero;fill:rgb(39.99939%,39.99939%,39.99939%);fill-opacity:0.3;" d="M 249.472656 364.699219 L 260.535156 350.238281 L 262.082031 348.359375 L 288.953125 375.230469 L 285.898438 378.472656 L 274.714844 394.171875 L 266.972656 408.25 L 259.945312 424.3125 L 238.496094 422.570312 L 243.058594 377.40625 Z M 249.472656 364.699219 "/>
</g>
<g clip-path="url(#clip7)" clip-rule="nonzero">
<path style=" stroke:none;fill-rule:nonzero;fill:rgb(39.99939%,39.99939%,39.99939%);fill-opacity:0.3;" d="M 57.472656 297.660156 L 66.867188 283.039062 L 109.824219 292.710938 L 110.558594 300.695312 L 110.273438 308.242188 L 133.621094 391.457031 L 88.378906 404.195312 Z M 57.472656 297.660156 "/>
</g>
<path style=" stroke:none;fill-rule:nonzero;fill:rgb(39.99939%,39.99939%,39.99939%);fill-opacity:0.3;" d="M 271.1875 262.695312 L 262.722656 269.089844 L 257.753906 244.414062 L 257.382812 242.78125 L 275.164062 231.667969 L 298.390625 234.457031 L 299.679688 244.941406 Z M 271.1875 262.695312 "/>
<path style=" stroke:none;fill-rule:nonzero;fill:rgb(39.99939%,39.99939%,39.99939%);fill-opacity:0.3;" d="M 285.542969 294.589844 L 262.726562 269.089844 L 271.1875 262.695312 L 299.679688 244.945312 L 301.875 242.664062 L 304.074219 240.382812 L 309.824219 235.828125 L 335.246094 238.878906 L 306.40625 273.726562 Z M 285.542969 294.589844 "/>
<g clip-path="url(#clip8)" clip-rule="nonzero">
<path style=" stroke:none;fill-rule:nonzero;fill:rgb(39.99939%,39.99939%,39.99939%);fill-opacity:0.3;" d="M -9.824219 293.484375 L 26.429688 422.648438 L -17.589844 435.046875 L -54.742188 302.671875 Z M -9.824219 293.484375 "/>
</g>
<g clip-path="url(#clip9)" clip-rule="nonzero">
<path style=" stroke:none;fill-rule:nonzero;fill:rgb(39.99939%,39.99939%,39.99939%);fill-opacity:0.3;" d="M -1.886719 296.863281 L 25.457031 301.882812 L 52.464844 305.765625 L 80.960938 407.289062 L 32.90625 420.824219 Z M -1.886719 296.863281 "/>
</g>
<path style=" stroke:none;fill-rule:nonzero;fill:rgb(39.99939%,39.99939%,39.99939%);fill-opacity:0.3;" d="M 105.890625 94.601562 L 100.027344 76.691406 L 104.515625 75.390625 L 109.34375 92.28125 L 109.773438 93.140625 Z M 105.890625 94.601562 "/>
<path style=" stroke:none;fill-rule:nonzero;fill:rgb(39.99939%,39.99939%,39.99939%);fill-opacity:0.3;" d="M 103.628906 57.324219 L 101.710938 52.214844 L 104.535156 51.429688 Z M 103.628906 57.324219 "/>
<path style=" stroke:none;fill-rule:nonzero;fill:rgb(39.99939%,39.99939%,39.99939%);fill-opacity:0.3;" d="M 57.445312 150.082031 L 114.65625 132.433594 L 105.738281 158.371094 L 75.699219 169.1875 L 63.746094 173.402344 Z M 57.445312 150.082031 "/>
<path style=" stroke:none;fill-rule:nonzero;fill:rgb(39.99939%,39.99939%,39.99939%);fill-opacity:0.3;" d="M 114.699219 106.433594 L 110.335938 98.421875 L 111.988281 97.855469 Z M 114.699219 106.433594 "/>
<path style=" stroke:none;fill-rule:nonzero;fill:rgb(39.99939%,39.99939%,39.99939%);fill-opacity:0.3;" d="M -39.851562 97.195312 L 22.347656 79.257812 L 31.894531 108.785156 L -30.269531 126.710938 Z M -39.851562 97.195312 "/>
<path style=" stroke:none;fill-rule:nonzero;fill:rgb(39.99939%,39.99939%,39.99939%);fill-opacity:0.3;" d="M 20.070312 74.402344 L -41.488281 92.15625 L -47.96875 72.195312 L -39.65625 71.855469 L -37.253906 87.476562 Z M 20.070312 74.402344 "/>
<path style=" stroke:none;fill-rule:nonzero;fill:rgb(39.99939%,39.99939%,39.99939%);fill-opacity:0.3;" d="M -6.203125 203.222656 L 54.371094 187.316406 L 51.429688 223.054688 L 50.992188 223.132812 L 28.761719 223.839844 L 11.734375 225.21875 L -2.792969 214.445312 Z M -6.203125 203.222656 "/>
<path style=" stroke:none;fill-rule:nonzero;fill:rgb(39.99939%,39.99939%,39.99939%);fill-opacity:0.3;" d="M 44.625 112.480469 L 98.710938 96.25 L 109.851562 125.652344 L 55.011719 142.542969 Z M 44.625 112.480469 "/>
<path style=" stroke:none;fill-rule:nonzero;fill:rgb(39.99939%,39.99939%,39.99939%);fill-opacity:0.3;" d="M 31.410156 76.644531 L 85.910156 60.929688 L 95.566406 90.421875 L 41.0625 106.140625 Z M 31.410156 76.644531 "/>
<path style=" stroke:none;fill-rule:nonzero;fill:rgb(39.99939%,39.99939%,39.99939%);fill-opacity:0.3;" d="M -17.535156 167.082031 L 44.917969 149.070312 L 55.515625 176.308594 L 55.269531 176.394531 L 54.9375 180.433594 L -8.089844 195.027344 Z M -17.535156 167.082031 "/>
<path style=" stroke:none;fill-rule:nonzero;fill:rgb(39.99939%,39.99939%,39.99939%);fill-opacity:0.3;" d="M -28.621094 131.785156 L 33.53125 113.859375 L 42.980469 143.085938 L -19.136719 161 Z M -28.621094 131.785156 "/>
<path style=" stroke:none;fill-rule:nonzero;fill:rgb(39.99939%,39.99939%,39.99939%);fill-opacity:0.3;" d="M 104.515625 75.390625 L 109.839844 73.847656 L 106.699219 65.488281 L 138.792969 54.507812 L 153.859375 76.589844 L 109.773438 93.140625 L 109.34375 92.28125 Z M 104.515625 75.390625 "/>
<path style=" stroke:none;fill-rule:nonzero;fill:rgb(39.99939%,39.99939%,39.99939%);fill-opacity:0.3;" d="M 114.65625 132.433594 L 126.804688 128.683594 L 114.699219 106.433594 L 111.988281 97.855469 L 156.367188 82.6875 L 176.320312 126.558594 L 138.625 143.949219 L 136 144.988281 L 133.625 146.632812 L 130.601562 150.882812 L 132.0625 160.644531 L 65.164062 178.660156 L 63.746094 173.402344 L 75.699219 169.1875 L 105.738281 158.371094 Z M 114.65625 132.433594 "/>
<path style=" stroke:none;fill-rule:nonzero;fill:rgb(39.99939%,39.99939%,39.99939%);fill-opacity:0.3;" d="M 69.476562 184.71875 L 133.871094 167.964844 L 135.296875 200.339844 L 81.878906 217.230469 Z M 69.476562 184.71875 "/>
<path style=" stroke:none;fill-rule:nonzero;fill:rgb(39.99939%,39.99939%,39.99939%);fill-opacity:0.3;" d="M 54.371094 187.316406 L 59.574219 185.949219 L 72.59375 219.335938 L 51.429688 223.054688 Z M 54.371094 187.316406 "/>
<path style=" stroke:none;fill-rule:nonzero;fill:rgb(39.99939%,39.99939%,39.99939%);fill-opacity:0.3;" d="M 55.515625 176.308594 L 56.941406 179.96875 L 54.9375 180.433594 L 55.269531 176.394531 Z M 55.515625 176.308594 "/>
<path style=" stroke:none;fill-rule:nonzero;fill:rgb(39.99939%,39.99939%,39.99939%);fill-opacity:0.3;" d="M 147.539062 212.769531 L 169.589844 209.636719 L 187.589844 273.773438 L 165.035156 275.105469 Z M 147.539062 212.769531 "/>
<path style=" stroke:none;fill-rule:nonzero;fill:rgb(39.99939%,39.99939%,39.99939%);fill-opacity:0.3;" d="M 185.910156 243.472656 L 247.542969 233.039062 L 251.578125 247.421875 L 224.957031 270.242188 L 213.097656 271.644531 L 193.585938 273.347656 Z M 185.910156 243.472656 "/>
<path style=" stroke:none;fill-rule:nonzero;fill:rgb(39.99939%,39.99939%,39.99939%);fill-opacity:0.3;" d="M 210.3125 190.46875 L 201.324219 199.578125 L 155.113281 187.125 L 199.625 167.941406 Z M 210.3125 190.46875 "/>
<path style=" stroke:none;fill-rule:nonzero;fill:rgb(39.99939%,39.99939%,39.99939%);fill-opacity:0.3;" d="M 139.617188 188.574219 L 140.96875 149.714844 L 178.894531 131.621094 L 193.96875 162.59375 Z M 139.617188 188.574219 "/>
<path style=" stroke:none;fill-rule:nonzero;fill:rgb(39.99939%,39.99939%,39.99939%);fill-opacity:0.3;" d="M 233.6875 181.625 L 217.402344 184.890625 L 209.679688 168.746094 L 219.640625 165.4375 L 229.503906 176.394531 Z M 233.6875 181.625 "/>
<path style=" stroke:none;fill-rule:nonzero;fill:rgb(39.99939%,39.99939%,39.99939%);fill-opacity:0.3;" d="M 173.363281 302.320312 L 170.371094 302.75 L 167.382812 303.179688 L 168.144531 305.847656 L 115.40625 293.96875 L 113.816406 276.769531 L 113.550781 258.3125 L 111.589844 241.378906 L 109.058594 228.753906 L 107.515625 222.070312 L 143.597656 217.554688 L 161.949219 282.78125 L 167.851562 282.554688 L 190.421875 281.242188 L 196.421875 280.824219 L 214.453125 279.242188 L 180.238281 308.570312 L 174.804688 307.347656 Z M 173.363281 302.320312 "/>
<path style=" stroke:none;fill-rule:nonzero;fill:rgb(39.99939%,39.99939%,39.99939%);fill-opacity:0.3;" d="M 66.867188 283.039062 L 103.640625 225.800781 L 109.824219 292.710938 Z M 66.867188 283.039062 "/>
<path style=" stroke:none;fill-rule:nonzero;fill:rgb(39.99939%,39.99939%,39.99939%);fill-opacity:0.3;" d="M 153.386719 60.746094 L 146.4375 51.894531 L 147.792969 51.429688 Z M 153.386719 60.746094 "/>
<path style=" stroke:none;fill-rule:nonzero;fill:rgb(39.99939%,39.99939%,39.99939%);fill-opacity:0.3;" d="M 257.382812 242.78125 L 248.394531 203.050781 L 259.246094 200.890625 L 275.164062 231.667969 Z M 257.382812 242.78125 "/>
<path style=" stroke:none;fill-rule:nonzero;fill:rgb(39.99939%,39.99939%,39.99939%);fill-opacity:0.3;" d="M 189.15625 128.789062 L 195.054688 126.113281 L 216.164062 160.289062 L 206.65625 163.964844 Z M 189.15625 128.789062 "/>
<path style=" stroke:none;fill-rule:nonzero;fill:rgb(39.99939%,39.99939%,39.99939%);fill-opacity:0.3;" d="M 190.667969 119.234375 L 182.136719 122.992188 L 168.148438 84.59375 Z M 190.667969 119.234375 "/>
<g clip-path="url(#clip10)" clip-rule="nonzero">
<path style=" stroke:none;fill-rule:nonzero;fill:rgb(39.99939%,39.99939%,39.99939%);fill-opacity:0.3;" d="M 385.152344 346.929688 L 353.914062 320.558594 L 366.660156 306.226562 L 396.148438 330.511719 L 395.324219 331.402344 Z M 385.152344 346.929688 "/>
</g>
<g clip-path="url(#clip11)" clip-rule="nonzero">
<path style=" stroke:none;fill-rule:nonzero;fill:rgb(39.99939%,39.99939%,39.99939%);fill-opacity:0.3;" d="M 382.113281 351.257812 L 365.859375 368.695312 L 334.457031 342.1875 L 350.710938 324.746094 Z M 382.113281 351.257812 "/>
</g>
<g clip-path="url(#clip12)" clip-rule="nonzero">
<path style=" stroke:none;fill-rule:nonzero;fill:rgb(39.99939%,39.99939%,39.99939%);fill-opacity:0.3;" d="M 326.816406 348.234375 L 361.910156 371.804688 L 356.964844 376.875 L 349.664062 381.867188 L 340.90625 389.65625 L 308.699219 368.023438 Z M 326.816406 348.234375 "/>
</g>
<g clip-path="url(#clip13)" clip-rule="nonzero">
<path style=" stroke:none;fill-rule:nonzero;fill:rgb(39.99939%,39.99939%,39.99939%);fill-opacity:0.3;" d="M 403.976562 204.4375 L 381.46875 237.585938 L 313.03125 314.515625 L 300.847656 304.671875 L 370.179688 228.875 L 391.628906 194.636719 Z M 403.976562 204.4375 "/>
</g>
<g clip-path="url(#clip14)" clip-rule="nonzero">
<path style=" stroke:none;fill-rule:nonzero;fill:rgb(39.99939%,39.99939%,39.99939%);fill-opacity:0.3;" d="M 303.375 235.054688 L 297.800781 192.613281 L 299.625 189.832031 L 301.597656 189.613281 L 313.617188 180 L 323.226562 154.765625 L 330.769531 143.453125 L 368.472656 189.367188 L 309.824219 235.828125 Z M 303.375 235.054688 "/>
</g>
<g clip-path="url(#clip15)" clip-rule="nonzero">
<path style=" stroke:none;fill-rule:nonzero;fill:rgb(39.99939%,39.99939%,39.99939%);fill-opacity:0.3;" d="M 413.253906 128.800781 L 370.195312 184.445312 L 333.179688 139.992188 L 372.828125 94.78125 Z M 413.253906 128.800781 "/>
</g>
<path style=" stroke:none;fill-rule:nonzero;fill:rgb(39.99939%,39.99939%,39.99939%);fill-opacity:0.3;" d="M 281.539062 298.589844 L 288.953125 307.074219 L 265.898438 335.519531 L 260.957031 340.214844 L 257.472656 343.75 L 254.738281 341.015625 L 265.550781 325.394531 L 281.171875 298.957031 Z M 281.539062 298.589844 "/>
<g clip-path="url(#clip16)" clip-rule="nonzero">
<path style=" stroke:none;fill-rule:nonzero;fill:rgb(39.99939%,39.99939%,39.99939%);fill-opacity:0.3;" d="M 262.082031 348.359375 L 293.417969 310.394531 L 311.003906 324.140625 L 355.773438 274.136719 L 372.222656 288.042969 L 320.617188 342.320312 L 306.640625 326.792969 L 304.21875 328.769531 L 301.796875 330.742188 L 315.894531 346.695312 L 288.953125 375.230469 Z M 262.082031 348.359375 "/>
</g>
<path style=" stroke:none;fill-rule:nonzero;fill:rgb(39.99939%,39.99939%,39.99939%);fill-opacity:0.3;" d="M 259.246094 200.890625 L 293.4375 194.082031 L 298.390625 234.457031 L 275.164062 231.667969 Z M 259.246094 200.890625 "/>
<g clip-path="url(#clip17)" clip-rule="nonzero">
<path style=" stroke:none;fill-rule:nonzero;fill:rgb(39.99939%,39.99939%,39.99939%);fill-opacity:0.3;" d="M 368.472656 189.367188 L 369.335938 186.90625 L 370.195312 184.445312 L 413.253906 128.800781 L 415.082031 126.425781 L 375.023438 92.015625 L 376.410156 90.703125 L 382.105469 86.273438 L 400.128906 74.257812 L 401.6875 66.828125 L 407.867188 60.988281 L 409.621094 60.230469 L 412.019531 60.285156 L 413.171875 61.078125 L 487.996094 131.277344 L 468.023438 150.589844 L 407.550781 91.074219 L 405.53125 92.789062 L 403.507812 94.503906 L 464.703125 153.609375 L 446.144531 169.660156 L 427.496094 188.859375 L 413.589844 203.820312 L 395 190.972656 L 419.511719 162.582031 L 415.898438 156.714844 L 429.449219 139.144531 L 427.148438 137.199219 L 424.851562 135.253906 L 408.082031 154.878906 L 412.09375 157.804688 L 390.183594 188.777344 L 364.605469 224.933594 L 293.511719 303.5 L 285.542969 294.589844 L 306.40625 273.726562 L 335.246094 238.878906 L 309.824219 235.828125 Z M 368.472656 189.367188 "/>
</g>
<path style="fill-rule:nonzero;fill:rgb(39.99939%,39.99939%,39.99939%);fill-opacity:1;stroke-width:0.03;stroke-linecap:square;stroke-linejoin:miter;stroke:rgb(39.99939%,39.99939%,39.99939%);stroke-opacity:1;stroke-miterlimit:3.239307;" d="M 178.515625 88.390625 L 183.839844 86.847656 L 180.699219 78.488281 L 212.792969 67.507812 L 227.859375 89.589844 L 183.773438 106.140625 L 183.34375 105.28125 Z M 178.515625 88.390625 " transform="matrix(1,0,0,1,-74,-13)"/>
<path style="fill-rule:nonzero;fill:rgb(39.99939%,39.99939%,39.99939%);fill-opacity:1;stroke-width:0.03;stroke-linecap:square;stroke-linejoin:miter;stroke:rgb(39.99939%,39.99939%,39.99939%);stroke-opacity:1;stroke-miterlimit:3.239307;" d="M 188.65625 145.433594 L 200.804688 141.683594 L 188.699219 119.433594 L 185.988281 110.855469 L 230.367188 95.6875 L 250.320312 139.558594 L 212.625 156.949219 L 210 157.988281 L 207.625 159.632812 L 204.601562 163.882812 L 206.0625 173.644531 L 139.164062 191.660156 L 137.746094 186.402344 L 149.699219 182.1875 L 179.738281 171.371094 Z M 188.65625 145.433594 " transform="matrix(1,0,0,1,-74,-13)"/>
<path style="fill-rule:nonzero;fill:rgb(39.99939%,39.99939%,39.99939%);fill-opacity:1;stroke-width:0.03;stroke-linecap:square;stroke-linejoin:miter;stroke:rgb(39.99939%,39.99939%,39.99939%);stroke-opacity:1;stroke-miterlimit:3.239307;" d="M 143.476562 197.71875 L 207.871094 180.964844 L 209.296875 213.339844 L 155.878906 230.230469 Z M 143.476562 197.71875 " transform="matrix(1,0,0,1,-74,-13)"/>
<path style="fill-rule:nonzero;fill:rgb(39.99939%,39.99939%,39.99939%);fill-opacity:1;stroke-width:0.03;stroke-linecap:square;stroke-linejoin:miter;stroke:rgb(39.99939%,39.99939%,39.99939%);stroke-opacity:1;stroke-miterlimit:3.239307;" d="M 128.371094 200.316406 L 133.574219 198.949219 L 146.59375 232.335938 L 125.429688 236.054688 Z M 128.371094 200.316406 " transform="matrix(1,0,0,1,-74,-13)"/>
<path style="fill-rule:nonzero;fill:rgb(39.99939%,39.99939%,39.99939%);fill-opacity:1;stroke-width:0.03;stroke-linecap:square;stroke-linejoin:miter;stroke:rgb(39.99939%,39.99939%,39.99939%);stroke-opacity:1;stroke-miterlimit:3.239307;" d="M 129.515625 189.308594 L 130.941406 192.96875 L 128.9375 193.433594 L 129.269531 189.394531 Z M 129.515625 189.308594 " transform="matrix(1,0,0,1,-74,-13)"/>
<path style="fill-rule:nonzero;fill:rgb(39.99939%,39.99939%,39.99939%);fill-opacity:1;stroke-width:0.03;stroke-linecap:square;stroke-linejoin:miter;stroke:rgb(39.99939%,39.99939%,39.99939%);stroke-opacity:1;stroke-miterlimit:3.239307;" d="M 221.539062 225.769531 L 243.589844 222.636719 L 261.589844 286.773438 L 239.035156 288.105469 Z M 221.539062 225.769531 " transform="matrix(1,0,0,1,-74,-13)"/>
<path style="fill-rule:nonzero;fill:rgb(39.99939%,39.99939%,39.99939%);fill-opacity:1;stroke-width:0.03;stroke-linecap:square;stroke-linejoin:miter;stroke:rgb(39.99939%,39.99939%,39.99939%);stroke-opacity:1;stroke-miterlimit:3.239307;" d="M 259.910156 256.472656 L 321.542969 246.039062 L 325.578125 260.421875 L 298.957031 283.242188 L 287.097656 284.644531 L 267.585938 286.347656 Z M 259.910156 256.472656 " transform="matrix(1,0,0,1,-74,-13)"/>
<path style="fill-rule:nonzero;fill:rgb(39.99939%,39.99939%,39.99939%);fill-opacity:1;stroke-width:0.03;stroke-linecap:square;stroke-linejoin:miter;stroke:rgb(39.99939%,39.99939%,39.99939%);stroke-opacity:1;stroke-miterlimit:3.239307;" d="M 284.3125 203.46875 L 275.324219 212.578125 L 229.113281 200.125 L 273.625 180.941406 Z M 284.3125 203.46875 " transform="matrix(1,0,0,1,-74,-13)"/>
<path style="fill-rule:nonzero;fill:rgb(39.99939%,39.99939%,39.99939%);fill-opacity:1;stroke-width:0.03;stroke-linecap:square;stroke-linejoin:miter;stroke:rgb(39.99939%,39.99939%,39.99939%);stroke-opacity:1;stroke-miterlimit:3.239307;" d="M 213.617188 201.574219 L 214.96875 162.714844 L 252.894531 144.621094 L 267.96875 175.59375 Z M 213.617188 201.574219 " transform="matrix(1,0,0,1,-74,-13)"/>
<path style="fill-rule:nonzero;fill:rgb(39.99939%,39.99939%,39.99939%);fill-opacity:1;stroke-width:0.03;stroke-linecap:square;stroke-linejoin:miter;stroke:rgb(39.99939%,39.99939%,39.99939%);stroke-opacity:1;stroke-miterlimit:3.239307;" d="M 307.6875 194.625 L 291.402344 197.890625 L 283.679688 181.746094 L 293.640625 178.4375 L 303.503906 189.394531 Z M 307.6875 194.625 " transform="matrix(1,0,0,1,-74,-13)"/>
<path style="fill-rule:nonzero;fill:rgb(39.99939%,39.99939%,39.99939%);fill-opacity:1;stroke-width:0.03;stroke-linecap:square;stroke-linejoin:miter;stroke:rgb(39.99939%,39.99939%,39.99939%);stroke-opacity:1;stroke-miterlimit:3.239307;" d="M 247.363281 315.320312 L 244.371094 315.75 L 241.382812 316.179688 L 242.144531 318.847656 L 189.40625 306.96875 L 187.816406 289.769531 L 187.550781 271.3125 L 185.589844 254.378906 L 183.058594 241.753906 L 181.515625 235.070312 L 217.597656 230.554688 L 235.949219 295.78125 L 241.851562 295.554688 L 264.421875 294.242188 L 270.421875 293.824219 L 288.453125 292.242188 L 254.238281 321.570312 L 248.804688 320.347656 Z M 247.363281 315.320312 " transform="matrix(1,0,0,1,-74,-13)"/>
<path style="fill-rule:nonzero;fill:rgb(39.99939%,39.99939%,39.99939%);fill-opacity:1;stroke-width:0.03;stroke-linecap:square;stroke-linejoin:miter;stroke:rgb(39.99939%,39.99939%,39.99939%);stroke-opacity:1;stroke-miterlimit:3.239307;" d="M 140.867188 296.039062 L 177.640625 238.800781 L 183.824219 305.710938 Z M 140.867188 296.039062 " transform="matrix(1,0,0,1,-74,-13)"/>
<path style="fill-rule:nonzero;fill:rgb(39.99939%,39.99939%,39.99939%);fill-opacity:1;stroke-width:0.03;stroke-linecap:square;stroke-linejoin:miter;stroke:rgb(39.99939%,39.99939%,39.99939%);stroke-opacity:1;stroke-miterlimit:3.239307;" d="M 227.386719 73.746094 L 220.4375 64.894531 L 221.792969 64.429688 Z M 227.386719 73.746094 " transform="matrix(1,0,0,1,-74,-13)"/>
<path style="fill-rule:nonzero;fill:rgb(39.99939%,39.99939%,39.99939%);fill-opacity:1;stroke-width:0.03;stroke-linecap:square;stroke-linejoin:miter;stroke:rgb(39.99939%,39.99939%,39.99939%);stroke-opacity:1;stroke-miterlimit:3.239307;" d="M 331.382812 255.78125 L 322.394531 216.050781 L 333.246094 213.890625 L 349.164062 244.667969 Z M 331.382812 255.78125 " transform="matrix(1,0,0,1,-74,-13)"/>
<path style="fill-rule:nonzero;fill:rgb(39.99939%,39.99939%,39.99939%);fill-opacity:1;stroke-width:0.03;stroke-linecap:square;stroke-linejoin:miter;stroke:rgb(39.99939%,39.99939%,39.99939%);stroke-opacity:1;stroke-miterlimit:3.239307;" d="M 263.15625 141.789062 L 269.054688 139.113281 L 290.164062 173.289062 L 280.65625 176.964844 Z M 263.15625 141.789062 " transform="matrix(1,0,0,1,-74,-13)"/>
<path style="fill-rule:nonzero;fill:rgb(39.99939%,39.99939%,39.99939%);fill-opacity:1;stroke-width:0.03;stroke-linecap:square;stroke-linejoin:miter;stroke:rgb(39.99939%,39.99939%,39.99939%);stroke-opacity:1;stroke-miterlimit:3.239307;" d="M 264.667969 132.234375 L 256.136719 135.992188 L 242.148438 97.59375 Z M 264.667969 132.234375 " transform="matrix(1,0,0,1,-74,-13)"/>
<path style=" stroke:none;fill-rule:evenodd;fill:rgb(85.096741%,85.096741%,81.959534%);fill-opacity:0.7;" d="M 243.0625 62 C 243.0625 49.253906 238 37.027344 228.988281 28.011719 C 219.972656 19 207.746094 13.9375 195 13.9375 C 182.253906 13.9375 170.027344 19 161.011719 28.011719 C 152 37.027344 146.9375 49.253906 146.9375 62 C 146.9375 74.746094 152 86.972656 161.011719 95.988281 C 170.027344 105 182.253906 110.0625 195 110.0625 C 207.746094 110.0625 219.972656 105 228.988281 95.988281 C 238 86.972656 243.0625 74.746094 243.0625 62 Z M 243.0625 62 "/>
</g>
</svg>
