<?xml version="1.0" encoding="UTF-8"?>
<svg xmlns="http://www.w3.org/2000/svg" xmlns:xlink="http://www.w3.org/1999/xlink" width="361pt" height="361pt" viewBox="0 0 361 361" version="1.1">
<defs>
<clipPath id="clip1">
  <path d="M 0 226 L 141 226 L 141 360 L 0 360 Z M 0 226 "/>
</clipPath>
<clipPath id="clip2">
  <path d="M 342 0 L 360 0 L 360 45 L 342 45 Z M 342 0 "/>
</clipPath>
<clipPath id="clip3">
  <path d="M 281 115 L 360 115 L 360 227 L 281 227 Z M 281 115 "/>
</clipPath>
<clipPath id="clip4">
  <path d="M 352 97 L 360 97 L 360 106 L 352 106 Z M 352 97 "/>
</clipPath>
<clipPath id="clip5">
  <path d="M 304 94 L 360 94 L 360 131 L 304 131 Z M 304 94 "/>
</clipPath>
<clipPath id="clip6">
  <path d="M 185 0 L 360 0 L 360 117 L 185 117 Z M 185 0 "/>
</clipPath>
<clipPath id="clip7">
  <path d="M 333 359 L 360 359 L 360 360 L 333 360 Z M 333 359 "/>
</clipPath>
<clipPath id="clip8">
  <path d="M 46 350 L 285 350 L 285 360 L 46 360 Z M 46 350 "/>
</clipPath>
<clipPath id="clip9">
  <path d="M 348 332 L 360 332 L 360 360 L 348 360 Z M 348 332 "/>
</clipPath>
<clipPath id="clip10">
  <path d="M 293 338 L 342 338 L 342 360 L 293 360 Z M 293 338 "/>
</clipPath>
<clipPath id="clip11">
  <path d="M 17 305 L 305 305 L 305 360 L 17 360 Z M 17 305 "/>
</clipPath>
<clipPath id="clip12">
  <path d="M 258 224 L 360 224 L 360 309 L 258 309 Z M 258 224 "/>
</clipPath>
<clipPath id="clip13">
  <path d="M 271 197 L 360 197 L 360 250 L 271 250 Z M 271 197 "/>
</clipPath>
<clipPath id="clip14">
  <path d="M 142 275 L 252 275 L 252 360 L 142 360 Z M 142 275 "/>
</clipPath>
<clipPath id="clip15">
  <path d="M 307 312 L 360 312 L 360 360 L 307 360 Z M 307 312 "/>
</clipPath>
<clipPath id="clip16">
  <path d="M 306 311 L 360 311 L 360 360 L 306 360 Z M 306 311 "/>
</clipPath>
</defs>
<g id="surface133">
<path style="fill-rule:nonzero;fill:rgb(0%,0%,0%);fill-opacity:1;stroke-width:0.03;stroke-linecap:square;stroke-linejoin:miter;stroke:rgb(0%,0%,0%);stroke-opacity:1;stroke-miterlimit:10;" d="M 0 178 L 360 178 L 360 -182 L 0 -182 Z M 0 178 " transform="matrix(1,0,0,1,0,182)"/>
<g clip-path="url(#clip1)" clip-rule="nonzero">
<path style=" stroke:none;fill-rule:nonzero;fill:rgb(39.99939%,39.99939%,39.99939%);fill-opacity:0.3;" d="M 17.246094 402.242188 L 10.34375 387.171875 L -1.0625 357.53125 L -6.429688 335.226562 L -7.179688 329.390625 L -11.105469 283.273438 L -13.402344 269.453125 L -16.019531 258.371094 L -20.378906 247.257812 L -25.1875 237.90625 L -28.921875 230.902344 L -29.53125 228.523438 L -28.636719 227.386719 L -27.214844 226.683594 L -25.851562 226.199219 L -20.390625 228.144531 L -6.140625 231.5625 L 10.449219 233.984375 L 25.261719 235.605469 L 38.351562 236.757812 L 48.828125 237.507812 L 58.230469 237.878906 L 66.875 237.875 L 72.964844 237.230469 L 75.535156 237.453125 L 140.347656 260.496094 L 123.460938 304.570312 L 124.050781 306.355469 L 123.972656 306.628906 L 130.070312 329.132812 Z M 17.246094 402.242188 "/>
</g>
<g clip-path="url(#clip2)" clip-rule="nonzero">
<path style=" stroke:none;fill-rule:nonzero;fill:rgb(39.99939%,39.99939%,39.99939%);fill-opacity:0.3;" d="M 506.628906 -37.351562 L 500.136719 -16.152344 L 498.328125 -8.3125 L 496.25 -1.285156 L 493.808594 7.203125 L 490.621094 15.484375 L 488.601562 22.050781 L 486.050781 30.535156 L 483.863281 40.710938 L 482.769531 44.125 L 480.511719 44.46875 L 363.285156 12.132812 L 362.085938 11.363281 L 361.105469 10.164062 L 342.144531 -22.734375 L 344.792969 -24.363281 L 350.417969 -26.238281 L 359.089844 -65.105469 L 477.941406 -45.460938 L 483.097656 -43.585938 L 494.816406 -40.304688 Z M 506.628906 -37.351562 "/>
</g>
<path style=" stroke:none;fill-rule:nonzero;fill:rgb(39.99939%,39.99939%,39.99939%);fill-opacity:0.3;" d="M 224.015625 148.609375 L 282.476562 165.257812 L 276.066406 186.757812 L 185.066406 166.769531 L 193.46875 142.066406 L 206.765625 145.691406 L 211.871094 144.984375 Z M 224.015625 148.609375 "/>
<path style=" stroke:none;fill-rule:nonzero;fill:rgb(39.99939%,39.99939%,39.99939%);fill-opacity:0.3;" d="M 304.9375 93.597656 L 299.613281 111.609375 L 242.066406 95.308594 L 247.972656 78.132812 Z M 304.9375 93.597656 "/>
<path style=" stroke:none;fill-rule:nonzero;fill:rgb(39.99939%,39.99939%,39.99939%);fill-opacity:0.3;" d="M 195.558594 121.988281 L 189.699219 137.917969 L 143.496094 124.359375 L 152.667969 108.929688 Z M 195.558594 121.988281 "/>
<path style=" stroke:none;fill-rule:nonzero;fill:rgb(39.99939%,39.99939%,39.99939%);fill-opacity:0.3;" d="M 191.066406 53.824219 L 194.207031 46.8125 L 198.769531 48.660156 L 195.628906 55.671875 Z M 191.066406 53.824219 "/>
<path style=" stroke:none;fill-rule:nonzero;fill:rgb(39.99939%,39.99939%,39.99939%);fill-opacity:0.3;" d="M 248.085938 71.953125 L 248.449219 70.789062 L 246.703125 70.296875 L 247.5 68.355469 L 249.070312 68.796875 L 249.382812 67.800781 L 247.636719 67.308594 L 248.4375 65.367188 L 250.007812 65.808594 L 250.328125 64.78125 L 248.574219 64.320312 L 249.421875 62.210938 L 250.996094 62.65625 L 251.617188 60.664062 L 257.207031 62.242188 L 256.582031 64.234375 L 258.503906 64.777344 L 257.878906 66.769531 L 255.949219 66.261719 L 255.59375 67.390625 L 257.515625 67.933594 L 256.890625 69.925781 L 254.96875 69.382812 L 254.660156 70.378906 L 256.578125 70.921875 L 255.957031 72.914062 L 254.035156 72.371094 L 253.617188 73.699219 Z M 248.085938 71.953125 "/>
<path style=" stroke:none;fill-rule:nonzero;fill:rgb(39.99939%,39.99939%,39.99939%);fill-opacity:0.3;" d="M 279.699219 74.878906 L 277.734375 81.277344 L 274.085938 80.082031 L 274.695312 78.015625 L 273.398438 77.625 L 272.714844 79.765625 L 269.304688 78.722656 L 271.296875 72.394531 L 274.757812 73.488281 L 273.875 76.15625 L 275.203125 76.515625 L 276.070312 73.886719 Z M 279.699219 74.878906 "/>
<path style=" stroke:none;fill-rule:nonzero;fill:rgb(39.99939%,39.99939%,39.99939%);fill-opacity:0.3;" d="M 352.695312 96.59375 L 350.792969 102.890625 L 347.082031 101.796875 L 347.695312 99.730469 L 346.394531 99.339844 L 345.714844 101.484375 L 342.304688 100.4375 L 344.296875 94.109375 L 347.757812 95.203125 L 346.875 97.871094 L 348.199219 98.230469 L 349.070312 95.601562 Z M 352.695312 96.59375 "/>
<path style=" stroke:none;fill-rule:nonzero;fill:rgb(39.99939%,39.99939%,39.99939%);fill-opacity:0.3;" d="M 243.503906 77.046875 L 238.03125 93.734375 L 172.9375 74.953125 L 181.925781 59.199219 Z M 243.503906 77.046875 "/>
<path style=" stroke:none;fill-rule:nonzero;fill:rgb(39.99939%,39.99939%,39.99939%);fill-opacity:0.3;" d="M 214.59375 150.128906 L 223.410156 152.542969 L 218.429688 169.902344 L 209.351562 167.820312 Z M 214.59375 150.128906 "/>
<path style=" stroke:none;fill-rule:nonzero;fill:rgb(39.99939%,39.99939%,39.99939%);fill-opacity:0.3;" d="M 225.898438 159.289062 L 234.90625 161.246094 L 232.109375 172.214844 L 223.054688 170.148438 Z M 225.898438 159.289062 "/>
<path style=" stroke:none;fill-rule:nonzero;fill:rgb(39.99939%,39.99939%,39.99939%);fill-opacity:0.3;" d="M 142.332031 127.710938 L 189.023438 141.121094 L 180.613281 165.789062 L 125.984375 153.792969 Z M 142.332031 127.710938 "/>
<g clip-path="url(#clip3)" clip-rule="nonzero">
<path style=" stroke:none;fill-rule:nonzero;fill:rgb(39.99939%,39.99939%,39.99939%);fill-opacity:0.3;" d="M 302.980469 115.546875 L 427.664062 152.085938 L 468.46875 223.078125 L 468.882812 224.570312 L 468.71875 225.75 L 467.765625 226.574219 L 465.992188 226.808594 L 463.691406 226.707031 L 281.972656 188.039062 L 289.683594 161.425781 L 324.621094 170.21875 L 324.765625 169.59375 L 324.894531 169.027344 L 290.179688 160.066406 L 292.757812 150.464844 L 333.464844 161.53125 L 333.691406 160.777344 L 333.9375 159.976562 L 293.390625 148.726562 Z M 302.980469 115.546875 "/>
</g>
<g clip-path="url(#clip4)" clip-rule="nonzero">
<path style=" stroke:none;fill-rule:nonzero;fill:rgb(39.99939%,39.99939%,39.99939%);fill-opacity:0.3;" d="M 362.773438 99.589844 L 360.871094 105.828125 L 357.191406 104.691406 L 357.773438 102.722656 L 356.472656 102.335938 L 355.84375 104.371094 L 352.429688 103.324219 L 354.371094 97.105469 L 357.835938 98.199219 L 356.953125 100.867188 L 358.277344 101.226562 L 359.148438 98.597656 Z M 362.773438 99.589844 "/>
</g>
<path style=" stroke:none;fill-rule:nonzero;fill:rgb(39.99939%,39.99939%,39.99939%);fill-opacity:0.3;" d="M 340.1875 86.4375 L 338.222656 92.835938 L 334.574219 91.640625 L 335.1875 89.574219 L 333.886719 89.183594 L 333.207031 91.328125 L 329.792969 90.28125 L 331.785156 83.953125 L 335.25 85.046875 L 334.363281 87.714844 L 335.691406 88.074219 L 336.5625 85.445312 Z M 340.1875 86.4375 "/>
<path style=" stroke:none;fill-rule:nonzero;fill:rgb(39.99939%,39.99939%,39.99939%);fill-opacity:0.3;" d="M 329.796875 83.246094 L 327.835938 89.644531 L 324.183594 88.445312 L 324.796875 86.378906 L 323.496094 85.988281 L 322.816406 88.132812 L 319.402344 87.089844 L 321.394531 80.761719 L 324.859375 81.855469 L 323.972656 84.519531 L 325.300781 84.878906 L 326.171875 82.253906 Z M 329.796875 83.246094 "/>
<path style=" stroke:none;fill-rule:nonzero;fill:rgb(39.99939%,39.99939%,39.99939%);fill-opacity:0.3;" d="M 296.894531 72.113281 L 294.929688 78.511719 L 291.28125 77.316406 L 291.890625 75.25 L 290.59375 74.859375 L 289.910156 77 L 286.5 75.957031 L 288.492188 69.628906 L 291.953125 70.722656 L 291.070312 73.390625 L 292.398438 73.75 L 293.265625 71.121094 Z M 296.894531 72.113281 "/>
<path style=" stroke:none;fill-rule:nonzero;fill:rgb(39.99939%,39.99939%,39.99939%);fill-opacity:0.3;" d="M 269.023438 71.855469 L 267.0625 78.253906 L 263.410156 77.058594 L 264.023438 74.992188 L 262.722656 74.601562 L 262.042969 76.742188 L 258.632812 75.699219 L 260.625 69.371094 L 264.085938 70.464844 L 263.203125 73.132812 L 264.527344 73.492188 L 265.398438 70.863281 Z M 269.023438 71.855469 "/>
<path style=" stroke:none;fill-rule:nonzero;fill:rgb(39.99939%,39.99939%,39.99939%);fill-opacity:0.3;" d="M 287.304688 148.46875 L 282.660156 163.265625 L 211.675781 143.371094 L 206.589844 143.375 L 194.253906 139.453125 L 200.53125 123.460938 Z M 287.304688 148.46875 "/>
<path style=" stroke:none;fill-rule:nonzero;fill:rgb(39.99939%,39.99939%,39.99939%);fill-opacity:0.3;" d="M 295.960938 173.960938 L 309.007812 176.683594 L 308.195312 180.476562 L 306.117188 180.089844 L 305.753906 181.675781 L 307.542969 182.023438 L 306.691406 185.695312 L 293.660156 182.996094 L 294.597656 179.476562 L 299.320312 180.363281 L 299.683594 178.804688 L 294.996094 177.867188 Z M 295.960938 173.960938 "/>
<path style=" stroke:none;fill-rule:nonzero;fill:rgb(39.99939%,39.99939%,39.99939%);fill-opacity:0.3;" d="M -4.546875 -33.492188 L 66.84375 -5.765625 L 88.390625 2.441406 L 91.234375 0.890625 L 92.5625 1.421875 L 105.933594 -8.113281 L 209.738281 -80.273438 L 211.34375 -80.363281 L 213.042969 -80.1875 L 254.039062 -60.023438 L 256.582031 -57.789062 L 257.332031 -55.582031 L 257.113281 -51.96875 L 254.21875 -45.046875 L 250.9375 -38.847656 L 244.433594 -28.992188 L 236.121094 -16.945312 L 222.730469 -1.527344 L 207.226562 15.871094 L 186.578125 45.539062 L 142.125 119.742188 L 121.082031 152.714844 L -23.742188 120.921875 L -54.601562 115.800781 L -70.296875 107 L -72.789062 101.234375 Z M -4.546875 -33.492188 "/>
<path style=" stroke:none;fill-rule:nonzero;fill:rgb(39.99939%,39.99939%,39.99939%);fill-opacity:0.3;" d="M 307.566406 75.136719 L 305.601562 81.535156 L 301.953125 80.339844 L 302.566406 78.273438 L 301.265625 77.882812 L 300.582031 80.023438 L 297.171875 78.980469 L 299.164062 72.652344 L 302.628906 73.746094 L 301.742188 76.414062 L 303.070312 76.773438 L 303.9375 74.144531 Z M 307.566406 75.136719 "/>
<g clip-path="url(#clip5)" clip-rule="nonzero">
<path style=" stroke:none;fill-rule:nonzero;fill:rgb(39.99939%,39.99939%,39.99939%);fill-opacity:0.3;" d="M 372.269531 112.984375 L 366.945312 130.585938 L 304.40625 112.628906 L 309.894531 94.617188 Z M 372.269531 112.984375 "/>
</g>
<g clip-path="url(#clip6)" clip-rule="nonzero">
<path style=" stroke:none;fill-rule:nonzero;fill:rgb(39.99939%,39.99939%,39.99939%);fill-opacity:0.3;" d="M 306.421875 90.128906 L 185.445312 54.492188 L 199.433594 33.820312 L 275.621094 56.550781 L 276.121094 55.039062 L 276.625 53.527344 L 201.371094 30.855469 L 210.105469 19.46875 L 238.902344 -13.246094 L 262.773438 -7.582031 L 263.515625 -9.957031 L 240.246094 -15.503906 L 242.355469 -18.210938 L 245.839844 -24.074219 L 250.390625 -31 L 254.492188 -37.273438 L 257.539062 -42.34375 L 260.636719 -48.527344 L 264.050781 -59.125 L 268.144531 -70.808594 L 271.085938 -81.660156 L 276.648438 -100.632812 L 277.390625 -103.101562 L 277.835938 -103.664062 L 278.726562 -103.804688 L 279.46875 -103.734375 L 280.050781 -103.460938 L 280.875 -102.484375 L 330.996094 -15.578125 L 328.867188 -12.941406 L 327.703125 -12.496094 L 326.613281 -12.125 L 325.527344 -11.976562 L 268.742188 -27.816406 L 270.070312 -32.539062 L 268.816406 -32.84375 L 267.558594 -33.144531 L 265.628906 -26.238281 L 328.335938 -8.601562 L 330.332031 -9.234375 L 332.214844 -10.285156 L 333.175781 -11.800781 L 355.953125 27.695312 L 248 -3.558594 L 247.621094 -2.179688 L 247.238281 -0.800781 L 354.777344 30.75 L 356.597656 31.707031 L 358.894531 32.800781 L 405.976562 114.457031 L 404.058594 115.339844 L 401.9375 115.84375 L 399.328125 116.078125 L 396.789062 115.664062 L 393.597656 115.042969 L 387.996094 113.90625 L 308.523438 90.886719 L 316.3125 68.929688 L 313.9375 68.234375 Z M 306.421875 90.128906 "/>
</g>
<path style=" stroke:none;fill-rule:nonzero;fill:rgb(39.99939%,39.99939%,39.99939%);fill-opacity:0.3;" d="M 219.71875 63.820312 L 220.085938 62.65625 L 218.339844 62.164062 L 219.136719 60.222656 L 220.707031 60.664062 L 221.019531 59.667969 L 219.273438 59.175781 L 220.074219 57.234375 L 221.644531 57.675781 L 221.964844 56.648438 L 220.210938 56.1875 L 221.058594 54.078125 L 222.632812 54.523438 L 223.253906 52.53125 L 228.84375 54.109375 L 228.21875 56.101562 L 230.140625 56.644531 L 229.515625 58.636719 L 227.582031 58.128906 L 227.230469 59.257812 L 229.152344 59.800781 L 228.527344 61.792969 L 226.605469 61.25 L 226.296875 62.246094 L 228.214844 62.789062 L 227.59375 64.78125 L 225.671875 64.238281 L 225.253906 65.566406 Z M 219.71875 63.820312 "/>
<path style=" stroke:none;fill-rule:nonzero;fill:rgb(39.99939%,39.99939%,39.99939%);fill-opacity:0.3;" d="M 297.601562 114.332031 L 288.066406 145.910156 L 153.476562 107.753906 L 170.769531 77.835938 Z M 297.601562 114.332031 "/>
<path style=" stroke:none;fill-rule:nonzero;fill:rgb(39.99939%,39.99939%,39.99939%);fill-opacity:0.3;" d="M 309.160156 178.125 L 321.976562 180.777344 L 321.164062 184.566406 L 319.085938 184.179688 L 318.722656 185.765625 L 320.511719 186.113281 L 319.660156 189.789062 L 306.738281 187.136719 L 307.566406 183.566406 L 312.289062 184.453125 L 312.652344 182.894531 L 308.28125 182.023438 Z M 309.160156 178.125 "/>
<path style=" stroke:none;fill-rule:nonzero;fill:rgb(39.99939%,39.99939%,39.99939%);fill-opacity:0.3;" d="M 349.449219 313.304688 L 359.554688 313.636719 L 359.289062 318.015625 Z M 349.449219 313.304688 "/>
<path style=" stroke:none;fill-rule:nonzero;fill:rgb(39.99939%,39.99939%,39.99939%);fill-opacity:0.3;" d="M 132.539062 343.964844 L 134.855469 344.972656 L 132.050781 351.625 L 129.617188 350.589844 L 130.578125 348.339844 L 128.605469 347.523438 L 129.554688 345.433594 L 131.574219 346.289062 Z M 132.539062 343.964844 "/>
<path style=" stroke:none;fill-rule:nonzero;fill:rgb(39.99939%,39.99939%,39.99939%);fill-opacity:0.3;" d="M 139.933594 347.496094 L 138.210938 346.898438 L 138.835938 345.445312 Z M 139.933594 347.496094 "/>
<path style=" stroke:none;fill-rule:nonzero;fill:rgb(39.99939%,39.99939%,39.99939%);fill-opacity:0.3;" d="M 139.476562 349.210938 L 138.625 351.574219 L 140.746094 352.175781 L 140.039062 354.351562 L 137.984375 353.75 L 137.175781 356.054688 L 134.621094 355.335938 L 137.027344 348.546875 Z M 139.476562 349.210938 "/>
<g clip-path="url(#clip7)" clip-rule="nonzero">
<path style=" stroke:none;fill-rule:nonzero;fill:rgb(39.99939%,39.99939%,39.99939%);fill-opacity:0.3;" d="M 346.089844 359.503906 L 388.726562 380.652344 L 375.8125 403.765625 L 333.300781 382.144531 Z M 346.089844 359.503906 "/>
</g>
<g clip-path="url(#clip8)" clip-rule="nonzero">
<path style=" stroke:none;fill-rule:nonzero;fill:rgb(39.99939%,39.99939%,39.99939%);fill-opacity:0.3;" d="M 284.085938 369.03125 L 190.671875 589.742188 L 187.265625 585.113281 L 144.132812 504.007812 L 98.65625 526.980469 L 88.8125 530.261719 L 87.582031 536.410156 L 85.652344 533.925781 L 46.15625 457.773438 L 165.066406 407.085938 L 168.84375 409.003906 L 176.867188 430.625 L 192.898438 445.1875 L 200.777344 450.101562 L 243.175781 350.476562 Z M 284.085938 369.03125 "/>
</g>
<g clip-path="url(#clip9)" clip-rule="nonzero">
<path style=" stroke:none;fill-rule:nonzero;fill:rgb(39.99939%,39.99939%,39.99939%);fill-opacity:0.3;" d="M 403.664062 355.425781 L 390.894531 377.660156 L 348.078125 355.851562 L 360.285156 332.917969 Z M 403.664062 355.425781 "/>
</g>
<g clip-path="url(#clip10)" clip-rule="nonzero">
<path style=" stroke:none;fill-rule:nonzero;fill:rgb(39.99939%,39.99939%,39.99939%);fill-opacity:0.3;" d="M 303.445312 338.101562 L 341.859375 357.265625 L 329.289062 380.105469 L 293.277344 361.796875 Z M 303.445312 338.101562 "/>
</g>
<path style=" stroke:none;fill-rule:nonzero;fill:rgb(39.99939%,39.99939%,39.99939%);fill-opacity:0.3;" d="M 136.492188 341.089844 L 136.007812 342.234375 L 133.574219 341.199219 L 134.535156 338.949219 L 132.5625 338.132812 L 133.507812 336.042969 L 133.859375 336.191406 Z M 136.492188 341.089844 "/>
<g clip-path="url(#clip11)" clip-rule="nonzero">
<path style=" stroke:none;fill-rule:nonzero;fill:rgb(39.99939%,39.99939%,39.99939%);fill-opacity:0.3;" d="M 284.089844 369.027344 L 243.175781 350.476562 L 200.777344 450.097656 L 192.914062 445.164062 L 176.867188 430.625 L 168.847656 409 L 165.070312 407.070312 L 46.15625 457.773438 L 18.796875 405.628906 L 17.246094 402.242188 L 130.070312 329.132812 L 133.175781 334.914062 L 126.515625 350.351562 L 126.960938 353.285156 L 136.816406 358.671875 L 139.359375 360.457031 L 142.640625 352.527344 L 146.945312 360.546875 L 158.199219 365.234375 L 155.855469 369.453125 L 221.585938 387.785156 L 251.441406 305.828125 L 267.210938 311.148438 L 276.625 312.855469 L 284 314.445312 L 291.699219 315.609375 L 304.328125 316.453125 Z M 284.089844 369.027344 "/>
</g>
<path style=" stroke:none;fill-rule:nonzero;fill:rgb(39.99939%,39.99939%,39.99939%);fill-opacity:0.3;" d="M 326.355469 315.710938 L 356.039062 331.441406 L 343.4375 353.878906 L 304.9375 333.609375 L 310.796875 317.160156 L 311.652344 316.207031 L 318.941406 315.925781 L 325.34375 315.710938 Z M 326.355469 315.710938 "/>
<path style=" stroke:none;fill-rule:nonzero;fill:rgb(39.99939%,39.99939%,39.99939%);fill-opacity:0.3;" d="M 308.386719 306.546875 L 308.800781 306.847656 L 308.570312 306.972656 Z M 308.386719 306.546875 "/>
<path style=" stroke:none;fill-rule:nonzero;fill:rgb(39.99939%,39.99939%,39.99939%);fill-opacity:0.3;" d="M 87.472656 182.925781 L 87.078125 181.851562 L 87.667969 180.585938 L 93.484375 176.695312 L 96.292969 176.976562 L 134.46875 189.253906 L 130.496094 203.636719 L 121.035156 198.574219 L 100 189.136719 Z M 87.472656 182.925781 "/>
<path style=" stroke:none;fill-rule:nonzero;fill:rgb(39.99939%,39.99939%,39.99939%);fill-opacity:0.3;" d="M 186.132812 204.222656 L 189.59375 211.3125 L 264.078125 231.6875 L 254.578125 263.898438 L 186.886719 231.714844 L 186.496094 230.882812 L 186.949219 229.832031 L 187.960938 228.460938 L 189.753906 228.386719 L 230.632812 240.054688 L 230.789062 238.5 L 187.53125 226.277344 L 172.777344 222.109375 L 172.621094 222.664062 L 172.46875 223.21875 L 185.9375 227.207031 L 184.226562 230.535156 L 133.472656 204.980469 L 137.765625 190.054688 Z M 186.132812 204.222656 "/>
<path style=" stroke:none;fill-rule:nonzero;fill:rgb(39.99939%,39.99939%,39.99939%);fill-opacity:0.3;" d="M 15.367188 142.597656 L 16.621094 138.660156 L 105.109375 158.402344 L 105.457031 160.070312 L 105.234375 161.679688 L 103.652344 163.933594 L 100.472656 167.273438 L 97.019531 170.394531 L 86.988281 176.804688 L 82.929688 178.734375 L 80.898438 178.351562 L 78.195312 177.355469 L 60.101562 168.394531 L 18.410156 147.753906 L 16.238281 145.691406 Z M 15.367188 142.597656 "/>
<g clip-path="url(#clip12)" clip-rule="nonzero">
<path style=" stroke:none;fill-rule:nonzero;fill:rgb(39.99939%,39.99939%,39.99939%);fill-opacity:0.3;" d="M 271.066406 224.347656 L 367.570312 251.300781 L 361.859375 280.816406 L 331.441406 272.226562 L 331.082031 273.488281 L 330.71875 274.75 L 361.617188 283.523438 L 360.359375 308.96875 L 337.484375 307.496094 L 258.835938 267.203125 L 267.613281 236.445312 L 278.742188 238.449219 L 279.492188 237.851562 L 281.78125 238.1875 L 281.9375 237.546875 L 279.148438 236.972656 L 279.332031 236.3125 L 268.195312 234.445312 Z M 271.066406 224.347656 "/>
</g>
<path style=" stroke:none;fill-rule:nonzero;fill:rgb(39.99939%,39.99939%,39.99939%);fill-opacity:0.3;" d="M 139.753906 166.132812 L 274.679688 196.246094 L 272.59375 205.132812 L 262.269531 202.089844 L 261.941406 203.027344 L 261.652344 203.855469 L 271.738281 206.789062 L 264.875 226.851562 L 194.078125 207.078125 L 192.042969 203.210938 L 188.125 200.535156 L 133.859375 184.414062 Z M 139.753906 166.132812 "/>
<path style=" stroke:none;fill-rule:nonzero;fill:rgb(39.99939%,39.99939%,39.99939%);fill-opacity:0.3;" d="M 135.710938 165.230469 L 130.179688 183.15625 L 96.769531 173.082031 L 98.507812 172.339844 L 99.636719 171.265625 L 101.285156 170.191406 L 103.285156 168.292969 L 105.453125 166.0625 L 107.191406 163.09375 L 107.882812 161.523438 L 107.882812 159.789062 L 107.792969 159 Z M 135.710938 165.230469 "/>
<g clip-path="url(#clip13)" clip-rule="nonzero">
<path style=" stroke:none;fill-rule:nonzero;fill:rgb(39.99939%,39.99939%,39.99939%);fill-opacity:0.3;" d="M 279.539062 197.300781 L 373.027344 217.027344 L 368.101562 249.097656 L 271.855469 222.621094 Z M 279.539062 197.300781 "/>
</g>
<path style=" stroke:none;fill-rule:nonzero;fill:rgb(39.99939%,39.99939%,39.99939%);fill-opacity:0.3;" d="M 76.679688 189.238281 L 86.007812 194 L 149.003906 225.402344 L 302.769531 302.457031 L 308.386719 306.546875 L 308.570312 306.972656 L 305.988281 308.375 L 298.550781 308.570312 L 285.890625 307.621094 L 270.894531 304.449219 L 255.460938 299.449219 L 233.761719 290.757812 L 201.460938 276.714844 L 170.8125 264.804688 L 154.523438 259.3125 L 73.847656 232.203125 L 60.175781 227.242188 L 54.820312 224.238281 L 51.5625 221.152344 L 51.429688 218.832031 L 57.644531 208.0625 L 70.375 188.769531 L 72.144531 187.828125 L 74.265625 187.960938 Z M 76.679688 189.238281 "/>
<path style=" stroke:none;fill-rule:nonzero;fill:rgb(39.99939%,39.99939%,39.99939%);fill-opacity:0.3;" d="M 93.988281 216.636719 L 102.515625 219.527344 L 101.335938 222.292969 L 105.363281 223.808594 L 103.6875 227.59375 L 99.742188 226.082031 L 98.652344 228.792969 L 90.132812 225.769531 L 91.136719 223.253906 L 87.09375 221.828125 L 88.683594 218.203125 L 92.730469 219.628906 Z M 93.988281 216.636719 "/>
<path style=" stroke:none;fill-rule:nonzero;fill:rgb(39.99939%,39.99939%,39.99939%);fill-opacity:0.3;" d="M 117.238281 223.488281 L 125.769531 226.378906 L 124.585938 229.144531 L 128.613281 230.65625 L 126.9375 234.445312 L 122.992188 232.933594 L 121.90625 235.644531 L 113.382812 232.617188 L 114.390625 230.105469 L 110.34375 228.679688 L 111.9375 225.050781 L 115.980469 226.476562 Z M 117.238281 223.488281 "/>
<path style=" stroke:none;fill-rule:nonzero;fill:rgb(39.99939%,39.99939%,39.99939%);fill-opacity:0.3;" d="M 72.121094 210.046875 L 80.652344 212.9375 L 79.46875 215.703125 L 83.496094 217.214844 L 81.820312 221.003906 L 77.875 219.492188 L 76.789062 222.203125 L 68.265625 219.179688 L 69.269531 216.664062 L 65.226562 215.238281 L 66.820312 211.613281 L 70.863281 213.035156 Z M 72.121094 210.046875 "/>
<path style=" stroke:none;fill-rule:nonzero;fill:rgb(39.99939%,39.99939%,39.99939%);fill-opacity:0.3;" d="M 98.359375 204.261719 L 106.886719 207.152344 L 105.707031 209.917969 L 109.734375 211.433594 L 108.058594 215.21875 L 104.113281 213.707031 L 103.023438 216.417969 L 94.503906 213.394531 L 95.507812 210.878906 L 91.464844 209.453125 L 93.058594 205.828125 L 97.101562 207.25 Z M 98.359375 204.261719 "/>
<path style=" stroke:none;fill-rule:nonzero;fill:rgb(39.99939%,39.99939%,39.99939%);fill-opacity:0.3;" d="M 139.800781 229.683594 L 148.328125 232.578125 L 147.148438 235.339844 L 151.175781 236.855469 L 149.496094 240.640625 L 145.550781 239.128906 L 144.464844 241.84375 L 135.941406 238.816406 L 136.949219 236.304688 L 132.90625 234.875 L 134.496094 231.25 L 138.539062 232.675781 Z M 139.800781 229.683594 "/>
<path style=" stroke:none;fill-rule:nonzero;fill:rgb(39.99939%,39.99939%,39.99939%);fill-opacity:0.3;" d="M 161.902344 236.589844 L 170.429688 239.480469 L 169.25 242.246094 L 173.277344 243.757812 L 171.597656 247.546875 L 167.65625 246.035156 L 166.566406 248.746094 L 158.046875 245.722656 L 159.050781 243.207031 L 155.007812 241.78125 L 156.597656 238.152344 L 160.644531 239.578125 Z M 161.902344 236.589844 "/>
<path style=" stroke:none;fill-rule:nonzero;fill:rgb(39.99939%,39.99939%,39.99939%);fill-opacity:0.3;" d="M 24.753906 164.683594 L 31.207031 167.722656 L 26.527344 175.796875 L 30.246094 178.007812 L 26.015625 185.308594 L 19.710938 182.007812 L 24.058594 174.507812 L 20.222656 172.496094 Z M 24.753906 164.683594 "/>
<path style=" stroke:none;fill-rule:nonzero;fill:rgb(39.99939%,39.99939%,39.99939%);fill-opacity:0.3;" d="M 4.472656 207.398438 L 18.265625 183.609375 L 25.019531 187.148438 L 11.226562 210.933594 Z M 4.472656 207.398438 "/>
<path style=" stroke:none;fill-rule:nonzero;fill:rgb(39.99939%,39.99939%,39.99939%);fill-opacity:0.3;" d="M 56.0625 181.4375 L 62.261719 184.6875 L 58.203125 191.6875 L 53.945312 189.59375 L 49.886719 196.59375 L 43.6875 193.347656 L 47.746094 186.34375 L 52.003906 188.441406 Z M 56.0625 181.4375 "/>
<path style=" stroke:none;fill-rule:nonzero;fill:rgb(39.99939%,39.99939%,39.99939%);fill-opacity:0.3;" d="M 30.089844 210.378906 L 38.902344 195.179688 L 45.238281 198.496094 L 36.425781 213.699219 Z M 30.089844 210.378906 "/>
<path style=" stroke:none;fill-rule:nonzero;fill:rgb(39.99939%,39.99939%,39.99939%);fill-opacity:0.3;" d="M 31.59375 187.621094 L 40.40625 172.417969 L 46.742188 175.738281 L 37.929688 190.9375 Z M 31.59375 187.621094 "/>
<path style=" stroke:none;fill-rule:nonzero;fill:rgb(39.99939%,39.99939%,39.99939%);fill-opacity:0.3;" d="M 66.941406 186.492188 L 48.097656 217.238281 L 47.9375 221.59375 L 50.320312 224.992188 L 56.476562 229.085938 L 66.582031 232.738281 L 66.472656 234.480469 L 58.304688 234.484375 L 49.039062 234.121094 L 38.648438 233.378906 L 25.632812 232.230469 L 10.925781 230.621094 L -5.433594 228.234375 L -19.324219 224.902344 L -24.941406 222.632812 L -30.269531 218.675781 L -35.367188 213.402344 L -39.078125 208.566406 L -42.445312 200.988281 L -58.109375 164 L -70.636719 135.039062 L -70.871094 133.769531 L -70.40625 131.664062 L -69.007812 129.121094 L -65.398438 126.023438 L -59.925781 124.644531 L -55.664062 125.027344 L -50.585938 126.761719 L -44.292969 129.453125 L 4.570312 154.984375 L 39.75 171.382812 L 66.792969 185.582031 Z M 66.941406 186.492188 "/>
<path style=" stroke:none;fill-rule:nonzero;fill:rgb(39.99939%,39.99939%,39.99939%);fill-opacity:0.3;" d="M 72.964844 237.230469 L 74.460938 237.074219 L 75.535156 237.453125 Z M 72.964844 237.230469 "/>
<path style=" stroke:none;fill-rule:nonzero;fill:rgb(39.99939%,39.99939%,39.99939%);fill-opacity:0.3;" d="M 143.464844 341.074219 L 142.457031 343.382812 L 144.535156 344.109375 L 143.683594 346.238281 L 141.671875 345.515625 L 140.714844 347.769531 L 139.933594 347.496094 L 138.835938 345.445312 L 141.0625 340.265625 Z M 143.464844 341.074219 "/>
<path style=" stroke:none;fill-rule:nonzero;fill:rgb(39.99939%,39.99939%,39.99939%);fill-opacity:0.3;" d="M 139.710938 326.765625 L 142.027344 327.773438 L 139.222656 334.425781 L 136.789062 333.390625 L 137.75 331.140625 L 135.777344 330.324219 L 136.722656 328.234375 L 138.746094 329.089844 Z M 139.710938 326.765625 "/>
<path style=" stroke:none;fill-rule:nonzero;fill:rgb(39.99939%,39.99939%,39.99939%);fill-opacity:0.3;" d="M 133.558594 295.273438 L 136.269531 296.160156 L 135.460938 298.558594 L 136.867188 299.03125 L 137.667969 296.863281 L 140.238281 297.59375 L 137.554688 304.953125 L 134.871094 304.113281 L 135.917969 301.160156 L 134.742188 300.730469 L 133.636719 303.726562 L 130.863281 302.863281 Z M 133.558594 295.273438 "/>
<path style=" stroke:none;fill-rule:nonzero;fill:rgb(39.99939%,39.99939%,39.99939%);fill-opacity:0.3;" d="M 159.890625 270.589844 L 162.65625 271.457031 L 161.792969 273.878906 L 163.027344 274.289062 L 163.890625 271.84375 L 166.601562 272.746094 L 163.886719 280.273438 L 161.203125 279.433594 L 162.25 276.480469 L 161.023438 276.070312 L 159.96875 279.042969 L 157.195312 278.179688 Z M 159.890625 270.589844 "/>
<path style=" stroke:none;fill-rule:nonzero;fill:rgb(39.99939%,39.99939%,39.99939%);fill-opacity:0.3;" d="M 158.492188 280.386719 L 157.746094 282.34375 L 159.503906 282.871094 L 158.878906 284.675781 L 157.175781 284.148438 L 156.464844 286.054688 L 154.347656 285.421875 L 156.464844 279.796875 Z M 158.492188 280.386719 "/>
<path style=" stroke:none;fill-rule:nonzero;fill:rgb(39.99939%,39.99939%,39.99939%);fill-opacity:0.3;" d="M 153.503906 287.265625 L 156.269531 288.132812 L 155.40625 290.554688 L 156.640625 290.964844 L 157.503906 288.523438 L 160.253906 289.382812 L 157.5 296.949219 L 154.816406 296.109375 L 155.863281 293.15625 L 154.6875 292.722656 L 153.582031 295.722656 L 150.808594 294.855469 Z M 153.503906 287.265625 "/>
<path style=" stroke:none;fill-rule:nonzero;fill:rgb(39.99939%,39.99939%,39.99939%);fill-opacity:0.3;" d="M 153.546875 303.050781 L 152.691406 305.414062 L 154.816406 306.011719 L 154.109375 308.1875 L 152.050781 307.589844 L 151.246094 309.894531 L 148.6875 309.175781 L 151.097656 302.386719 Z M 153.546875 303.050781 "/>
<path style=" stroke:none;fill-rule:nonzero;fill:rgb(39.99939%,39.99939%,39.99939%);fill-opacity:0.3;" d="M 133.1875 314.605469 L 135.890625 315.617188 L 135.089844 317.890625 L 136.496094 318.359375 L 137.296875 316.195312 L 139.808594 317.058594 L 137.183594 324.285156 L 134.5 323.445312 L 135.546875 320.492188 L 134.371094 320.058594 L 133.265625 323.058594 L 130.492188 322.191406 Z M 133.1875 314.605469 "/>
<path style=" stroke:none;fill-rule:nonzero;fill:rgb(39.99939%,39.99939%,39.99939%);fill-opacity:0.3;" d="M 146.625 331.929688 L 145.695312 334.265625 L 147.796875 334.929688 L 147.015625 337.082031 L 144.980469 336.421875 L 144.097656 338.703125 L 141.566406 337.90625 L 144.199219 331.191406 Z M 146.625 331.929688 "/>
<path style=" stroke:none;fill-rule:nonzero;fill:rgb(39.99939%,39.99939%,39.99939%);fill-opacity:0.3;" d="M 136.496094 334.574219 L 138.8125 335.582031 L 136.492188 341.089844 L 133.859375 336.191406 L 135.53125 336.898438 Z M 136.496094 334.574219 "/>
<path style=" stroke:none;fill-rule:nonzero;fill:rgb(39.99939%,39.99939%,39.99939%);fill-opacity:0.3;" d="M 142.320312 298.246094 L 145.03125 299.132812 L 144.222656 301.53125 L 145.628906 302.003906 L 146.429688 299.835938 L 149 300.566406 L 146.316406 307.925781 L 143.632812 307.085938 L 144.679688 304.132812 L 143.503906 303.703125 L 142.398438 306.699219 L 139.625 305.835938 Z M 142.320312 298.246094 "/>
<path style=" stroke:none;fill-rule:nonzero;fill:rgb(39.99939%,39.99939%,39.99939%);fill-opacity:0.3;" d="M 144.046875 262.105469 L 154.695312 266.085938 L 142.722656 297.09375 L 132.660156 293.507812 Z M 144.046875 262.105469 "/>
<path style=" stroke:none;fill-rule:nonzero;fill:rgb(39.99939%,39.99939%,39.99939%);fill-opacity:0.3;" d="M 124.050781 306.355469 L 124.894531 308.914062 L 133.347656 334.507812 L 133.175781 334.914062 L 130.070312 329.132812 L 123.972656 306.628906 Z M 124.050781 306.355469 "/>
<g clip-path="url(#clip14)" clip-rule="nonzero">
<path style=" stroke:none;fill-rule:nonzero;fill:rgb(39.99939%,39.99939%,39.99939%);fill-opacity:0.3;" d="M 142.640625 352.527344 L 150.597656 333.285156 L 149.199219 332.511719 L 173.011719 275.074219 L 209.707031 289.242188 L 248.988281 305 L 251.441406 305.828125 L 221.585938 387.785156 L 155.855469 369.453125 L 158.199219 365.234375 L 146.945312 360.546875 Z M 142.640625 352.527344 "/>
</g>
<path style=" stroke:none;fill-rule:nonzero;fill:rgb(39.99939%,39.99939%,39.99939%);fill-opacity:0.3;" d="M 91.234375 0.890625 L 99.347656 -3.535156 L 105.933594 -8.113281 L 92.5625 1.421875 Z M 91.234375 0.890625 "/>
<path style="fill-rule:nonzero;fill:rgb(39.99939%,39.99939%,39.99939%);fill-opacity:1;stroke-width:0.03;stroke-linecap:square;stroke-linejoin:miter;stroke:rgb(39.99939%,39.99939%,39.99939%);stroke-opacity:1;stroke-miterlimit:3.239307;" d="M 150.679688 202.238281 L 160.007812 207 L 223.003906 238.402344 L 376.769531 315.457031 L 382.386719 319.546875 L 382.570312 319.972656 L 379.988281 321.375 L 372.550781 321.570312 L 359.890625 320.621094 L 344.894531 317.449219 L 329.460938 312.449219 L 307.761719 303.757812 L 275.460938 289.714844 L 244.8125 277.804688 L 228.523438 272.3125 L 147.847656 245.203125 L 134.175781 240.242188 L 128.820312 237.238281 L 125.5625 234.152344 L 125.429688 231.832031 L 131.644531 221.0625 L 144.375 201.769531 L 146.144531 200.828125 L 148.265625 200.960938 Z M 150.679688 202.238281 " transform="matrix(1,0,0,1,-74,-13)"/>
<path style="fill-rule:nonzero;fill:rgb(39.99939%,39.99939%,39.99939%);fill-opacity:1;stroke-width:0.03;stroke-linecap:square;stroke-linejoin:miter;stroke:rgb(39.99939%,39.99939%,39.99939%);stroke-opacity:1;stroke-miterlimit:3.239307;" d="M 167.988281 229.636719 L 176.515625 232.527344 L 175.335938 235.292969 L 179.363281 236.808594 L 177.6875 240.59375 L 173.742188 239.082031 L 172.652344 241.792969 L 164.132812 238.769531 L 165.136719 236.253906 L 161.09375 234.828125 L 162.683594 231.203125 L 166.730469 232.628906 Z M 167.988281 229.636719 " transform="matrix(1,0,0,1,-74,-13)"/>
<path style="fill-rule:nonzero;fill:rgb(39.99939%,39.99939%,39.99939%);fill-opacity:1;stroke-width:0.03;stroke-linecap:square;stroke-linejoin:miter;stroke:rgb(39.99939%,39.99939%,39.99939%);stroke-opacity:1;stroke-miterlimit:3.239307;" d="M 191.238281 236.488281 L 199.769531 239.378906 L 198.585938 242.144531 L 202.613281 243.65625 L 200.9375 247.445312 L 196.992188 245.933594 L 195.90625 248.644531 L 187.382812 245.617188 L 188.390625 243.105469 L 184.34375 241.679688 L 185.9375 238.050781 L 189.980469 239.476562 Z M 191.238281 236.488281 " transform="matrix(1,0,0,1,-74,-13)"/>
<path style="fill-rule:nonzero;fill:rgb(39.99939%,39.99939%,39.99939%);fill-opacity:1;stroke-width:0.03;stroke-linecap:square;stroke-linejoin:miter;stroke:rgb(39.99939%,39.99939%,39.99939%);stroke-opacity:1;stroke-miterlimit:3.239307;" d="M 146.121094 223.046875 L 154.652344 225.9375 L 153.46875 228.703125 L 157.496094 230.214844 L 155.820312 234.003906 L 151.875 232.492188 L 150.789062 235.203125 L 142.265625 232.179688 L 143.269531 229.664062 L 139.226562 228.238281 L 140.820312 224.613281 L 144.863281 226.035156 Z M 146.121094 223.046875 " transform="matrix(1,0,0,1,-74,-13)"/>
<path style="fill-rule:nonzero;fill:rgb(39.99939%,39.99939%,39.99939%);fill-opacity:1;stroke-width:0.03;stroke-linecap:square;stroke-linejoin:miter;stroke:rgb(39.99939%,39.99939%,39.99939%);stroke-opacity:1;stroke-miterlimit:3.239307;" d="M 172.359375 217.261719 L 180.886719 220.152344 L 179.707031 222.917969 L 183.734375 224.433594 L 182.058594 228.21875 L 178.113281 226.707031 L 177.023438 229.417969 L 168.503906 226.394531 L 169.507812 223.878906 L 165.464844 222.453125 L 167.058594 218.828125 L 171.101562 220.25 Z M 172.359375 217.261719 " transform="matrix(1,0,0,1,-74,-13)"/>
<path style="fill-rule:nonzero;fill:rgb(39.99939%,39.99939%,39.99939%);fill-opacity:1;stroke-width:0.03;stroke-linecap:square;stroke-linejoin:miter;stroke:rgb(39.99939%,39.99939%,39.99939%);stroke-opacity:1;stroke-miterlimit:3.239307;" d="M 213.800781 242.683594 L 222.328125 245.578125 L 221.148438 248.339844 L 225.175781 249.855469 L 223.496094 253.640625 L 219.550781 252.128906 L 218.464844 254.84375 L 209.941406 251.816406 L 210.949219 249.304688 L 206.90625 247.875 L 208.496094 244.25 L 212.539062 245.675781 Z M 213.800781 242.683594 " transform="matrix(1,0,0,1,-74,-13)"/>
<path style="fill-rule:nonzero;fill:rgb(39.99939%,39.99939%,39.99939%);fill-opacity:1;stroke-width:0.03;stroke-linecap:square;stroke-linejoin:miter;stroke:rgb(39.99939%,39.99939%,39.99939%);stroke-opacity:1;stroke-miterlimit:3.239307;" d="M 235.902344 249.589844 L 244.429688 252.480469 L 243.25 255.246094 L 247.277344 256.757812 L 245.597656 260.546875 L 241.65625 259.035156 L 240.566406 261.746094 L 232.046875 258.722656 L 233.050781 256.207031 L 229.007812 254.78125 L 230.597656 251.152344 L 234.644531 252.578125 Z M 235.902344 249.589844 " transform="matrix(1,0,0,1,-74,-13)"/>
<path style=" stroke:none;fill-rule:evenodd;fill:rgb(85.096741%,85.096741%,81.959534%);fill-opacity:0.7;" d="M 179.753906 95 C 179.753906 90.027344 177.777344 85.257812 174.261719 81.738281 C 170.742188 78.222656 165.972656 76.246094 161 76.246094 C 156.027344 76.246094 151.257812 78.222656 147.738281 81.738281 C 144.222656 85.257812 142.246094 90.027344 142.246094 95 C 142.246094 99.972656 144.222656 104.742188 147.738281 108.261719 C 151.257812 111.777344 156.027344 113.753906 161 113.753906 C 165.972656 113.753906 170.742188 111.777344 174.261719 108.261719 C 177.777344 104.742188 179.753906 99.972656 179.753906 95 Z M 179.753906 95 "/>
<g clip-path="url(#clip15)" clip-rule="nonzero">
<path style=" stroke:none;fill-rule:nonzero;fill:rgb(99.998474%,99.998474%,30.587769%);fill-opacity:0.8;" d="M 348.074219 312.726562 L 307.472656 383.050781 L 388.675781 383.050781 Z M 348.074219 312.726562 "/>
</g>
<g clip-path="url(#clip16)" clip-rule="nonzero">
<path style="fill:none;stroke-width:0.288;stroke-linecap:square;stroke-linejoin:miter;stroke:rgb(0%,0%,0%);stroke-opacity:0.8;stroke-miterlimit:3.25;" d="M 422.074219 325.726562 L 381.472656 396.050781 L 462.675781 396.050781 Z M 422.074219 325.726562 " transform="matrix(1,0,0,1,-74,-13)"/>
</g>
</g>
</svg>
