<?xml version="1.0" encoding="UTF-8"?>
<svg xmlns="http://www.w3.org/2000/svg" xmlns:xlink="http://www.w3.org/1999/xlink" width="361pt" height="361pt" viewBox="0 0 361 361" version="1.1">
<defs>
<clipPath id="clip1">
  <path d="M 344 151 L 360 151 L 360 267 L 344 267 Z M 344 151 "/>
</clipPath>
<clipPath id="clip2">
  <path d="M 321 110 L 360 110 L 360 179 L 321 179 Z M 321 110 "/>
</clipPath>
<clipPath id="clip3">
  <path d="M 303 133 L 360 133 L 360 201 L 303 201 Z M 303 133 "/>
</clipPath>
<clipPath id="clip4">
  <path d="M 341 86 L 360 86 L 360 156 L 341 156 Z M 341 86 "/>
</clipPath>
<clipPath id="clip5">
  <path d="M 260 251 L 360 251 L 360 360 L 260 360 Z M 260 251 "/>
</clipPath>
<clipPath id="clip6">
  <path d="M 296 67 L 360 67 L 360 157 L 296 157 Z M 296 67 "/>
</clipPath>
<clipPath id="clip7">
  <path d="M 338 224 L 360 224 L 360 360 L 338 360 Z M 338 224 "/>
</clipPath>
<clipPath id="clip8">
  <path d="M 257 155 L 360 155 L 360 251 L 257 251 Z M 257 155 "/>
</clipPath>
<clipPath id="clip9">
  <path d="M 306 0 L 360 0 L 360 25 L 306 25 Z M 306 0 "/>
</clipPath>
<clipPath id="clip10">
  <path d="M 178 0 L 360 0 L 360 156 L 178 156 Z M 178 0 "/>
</clipPath>
</defs>
<g id="surface2324">
<path style="fill-rule:nonzero;fill:rgb(0%,0%,0%);fill-opacity:1;stroke-width:0.03;stroke-linecap:square;stroke-linejoin:miter;stroke:rgb(0%,0%,0%);stroke-opacity:1;stroke-miterlimit:10;" d="M 0 178 L 360 178 L 360 -182 L 0 -182 Z M 0 178 " transform="matrix(1,0,0,1,0,182)"/>
<path style=" stroke:none;fill-rule:nonzero;fill:rgb(39.99939%,39.99939%,39.99939%);fill-opacity:0.3;" d="M 173.425781 -47.664062 L 182.90625 -33.085938 L 192.910156 -17.875 L 220.714844 24.929688 L 224.820312 32.105469 L 225.101562 34.152344 L 215.910156 45.152344 L 203.109375 61.734375 L 200.136719 65.457031 L 188.9375 81.636719 L 189.558594 86.390625 L 190.183594 87.4375 L 190.351562 87.652344 L 177.269531 87.652344 L 51.429688 216.101562 L 35.6875 205.546875 L 24.742188 194.320312 L 9.75 177.648438 L -9.777344 151.628906 L -14.539062 145.292969 L -198.617188 -125.550781 L -86.28125 -92.433594 L -80.59375 -87.882812 L -73.410156 -71.375 L -69.800781 -59.066406 L -67.765625 -55.804688 L -41.289062 -13.929688 L -41.289062 -11.707031 L -65.6875 2.269531 L -57.429688 14.214844 L -54.617188 12.972656 L -60.992188 3.277344 L -37.953125 -9.921875 L -37.960938 -14.808594 L -64.90625 -57.429688 L -66.710938 -60.320312 L -70.253906 -72.40625 L -77.515625 -89.09375 L -81.351562 -92.351562 L -42.421875 -88.816406 L -25.085938 -86.398438 L 19.820312 -73.371094 L 36.707031 -67.113281 L 44.921875 -65.171875 L 68.875 -61.734375 L 81.878906 -58.066406 L 99.90625 -52.027344 L 113.136719 -48.359375 L 121.578125 -48.367188 L 131.15625 -47.945312 Z M 173.425781 -47.664062 "/>
<path style=" stroke:none;fill-rule:nonzero;fill:rgb(39.99939%,39.99939%,39.99939%);fill-opacity:0.3;" d="M 193.753906 86.976562 L 192.820312 85.625 L 192.6875 85.40625 L 192.292969 82.378906 L 202.78125 67.230469 L 205.703125 63.570312 L 218.480469 47.019531 L 227.621094 35.875 L 229.699219 39.269531 Z M 193.753906 86.976562 "/>
<g clip-path="url(#clip1)" clip-rule="nonzero">
<path style=" stroke:none;fill-rule:nonzero;fill:rgb(39.99939%,39.99939%,39.99939%);fill-opacity:0.3;" d="M 449.917969 166.089844 L 368.570312 266.714844 L 344.269531 250.082031 L 427.699219 151.304688 L 428.132812 151.265625 Z M 449.917969 166.089844 "/>
</g>
<g clip-path="url(#clip2)" clip-rule="nonzero">
<path style=" stroke:none;fill-rule:nonzero;fill:rgb(39.99939%,39.99939%,39.99939%);fill-opacity:0.3;" d="M 337.988281 110.417969 L 415.761719 158.898438 L 399.21875 178.734375 L 321.539062 130.035156 Z M 337.988281 110.417969 "/>
</g>
<g clip-path="url(#clip3)" clip-rule="nonzero">
<path style=" stroke:none;fill-rule:nonzero;fill:rgb(39.99939%,39.99939%,39.99939%);fill-opacity:0.3;" d="M 396.144531 182.085938 L 380.753906 200.277344 L 303.15625 151.957031 L 318.484375 133.675781 Z M 396.144531 182.085938 "/>
</g>
<g clip-path="url(#clip4)" clip-rule="nonzero">
<path style=" stroke:none;fill-rule:nonzero;fill:rgb(39.99939%,39.99939%,39.99939%);fill-opacity:0.3;" d="M 341.019531 106.789062 L 359.527344 86.097656 L 362.429688 88.699219 L 383.257812 100.894531 L 438.410156 127.363281 L 438.535156 128.980469 L 435.863281 135.105469 L 433.675781 137.878906 L 418.835938 155.53125 Z M 341.019531 106.789062 "/>
</g>
<path style=" stroke:none;fill-rule:nonzero;fill:rgb(39.99939%,39.99939%,39.99939%);fill-opacity:0.3;" d="M 272.675781 240.882812 L 211.511719 322.144531 L 194.992188 311.394531 L 257.148438 230.988281 Z M 272.675781 240.882812 "/>
<path style=" stroke:none;fill-rule:nonzero;fill:rgb(39.99939%,39.99939%,39.99939%);fill-opacity:0.3;" d="M 277.085938 243.679688 L 293.511719 254.386719 L 231.535156 335.195312 L 214.996094 324.417969 Z M 277.085938 243.679688 "/>
<path style=" stroke:none;fill-rule:nonzero;fill:rgb(39.99939%,39.99939%,39.99939%);fill-opacity:0.3;" d="M 235 336.234375 L 298.90625 253.585938 L 304.96875 245.679688 L 306.328125 243.851562 L 307.398438 242.789062 L 308.566406 241.816406 L 309.832031 241.027344 L 311.488281 240.195312 L 312.511719 239.917969 L 313.535156 239.867188 L 315.433594 240.28125 L 329.9375 248.414062 L 331.175781 248.777344 L 334.039062 249.316406 L 257.496094 349.78125 Z M 235 336.234375 "/>
<g clip-path="url(#clip5)" clip-rule="nonzero">
<path style=" stroke:none;fill-rule:nonzero;fill:rgb(39.99939%,39.99939%,39.99939%);fill-opacity:0.3;" d="M 300.171875 377.105469 L 337.425781 326.070312 L 335.769531 324.636719 L 334.117188 323.203125 L 296.15625 374.308594 L 295.191406 374.234375 L 268.871094 358.835938 L 260.429688 351.894531 L 336.839844 252.039062 L 337.996094 251.671875 L 339.921875 251.425781 L 413.824219 304.867188 L 413.949219 305.269531 L 414.121094 305.792969 L 414.078125 306.238281 L 336.316406 401.257812 L 334.902344 401.59375 L 300.273438 378.28125 Z M 300.171875 377.105469 "/>
</g>
<g clip-path="url(#clip6)" clip-rule="nonzero">
<path style=" stroke:none;fill-rule:nonzero;fill:rgb(39.99939%,39.99939%,39.99939%);fill-opacity:0.3;" d="M 372.429688 67.6875 L 370.324219 70.554688 L 362.164062 81.195312 L 360.742188 82.816406 L 360.035156 83.398438 L 359.53125 86.066406 L 341.019531 106.789062 L 339.503906 108.601562 L 337.988281 110.417969 L 321.539062 130.035156 L 318.484375 133.675781 L 303.15625 151.957031 L 301.695312 153.851562 L 300.230469 155.746094 L 299.285156 156.875 L 296.640625 155.261719 L 317.1875 133.386719 L 337.734375 110.1875 L 349.003906 91.632812 L 356.957031 86.328125 Z M 372.429688 67.6875 "/>
</g>
<path style=" stroke:none;fill-rule:nonzero;fill:rgb(39.99939%,39.99939%,39.99939%);fill-opacity:0.3;" d="M 242.125 244.421875 L 242.152344 244.4375 L 191.613281 310.128906 L 189.292969 308.570312 Z M 242.125 244.421875 "/>
<g clip-path="url(#clip7)" clip-rule="nonzero">
<path style=" stroke:none;fill-rule:nonzero;fill:rgb(39.99939%,39.99939%,39.99939%);fill-opacity:0.3;" d="M 630.214844 341.570312 L 636.726562 347.425781 L 641.953125 352.257812 L 646.292969 355.96875 L 651.90625 360.894531 L 655.125 363.8125 L 657.644531 366.066406 L 664.21875 371.765625 L 671.632812 377.332031 L 676.351562 380.878906 L 695.078125 392.074219 L 695.726562 392.984375 L 695.847656 393.40625 L 695.878906 394.074219 L 682.554688 409.886719 L 681.675781 410.871094 L 681.589844 412.214844 L 681.726562 413.558594 L 682.585938 414.78125 L 686.242188 417.195312 L 688.019531 418.109375 L 689.765625 419.167969 L 745.246094 446.414062 L 747.820312 446.878906 L 749.0625 446.386719 L 750.632812 445.0625 L 754.203125 437.804688 L 758.644531 431.777344 L 759.679688 430.847656 L 761.488281 430.542969 L 983.273438 498.148438 L 983.765625 498.546875 L 983.777344 498.5625 L 981.980469 501.242188 L 972.886719 516.109375 L 954.867188 541.722656 L 931.300781 576.609375 L 923.921875 586.875 L 923.757812 587.113281 L 921.003906 590.058594 L 894.515625 582.414062 L 880.976562 578.136719 L 875.414062 575.757812 L 865.875 570.945312 L 856.359375 566.652344 L 844.703125 562.753906 L 825.210938 559.273438 L 803.800781 554.050781 L 792.210938 550.742188 L 760.300781 543.257812 L 723.132812 531.859375 L 721.667969 531.390625 L 700.632812 525.441406 L 700.347656 526.359375 L 698.300781 525.765625 L 482.890625 377.300781 L 445.773438 352.113281 L 380.875 433.832031 L 376.109375 429.6875 L 377.179688 427.304688 L 446.675781 345.382812 L 445.222656 344.183594 L 443.769531 342.980469 L 373.609375 426.5 L 371.667969 426.964844 L 338.546875 403.527344 L 339.035156 402.132812 L 419.753906 303.414062 L 454.222656 263.242188 L 455.726562 262.859375 L 504.25 298.894531 L 506.503906 298.785156 L 507.742188 297.710938 L 563.015625 224.40625 L 584.359375 240.292969 L 526.792969 316.785156 L 528.347656 318.257812 L 529.90625 319.734375 L 586.640625 242.304688 L 604.699219 256.394531 L 548.453125 333.976562 L 549.621094 335.03125 L 550.792969 336.089844 L 608.003906 259.453125 L 629.316406 275.589844 L 570.84375 354.453125 L 570.800781 356.199219 L 571.34375 357.5 L 593.074219 377.636719 L 593.757812 377.90625 L 594.664062 377.902344 L 624.851562 337.273438 Z M 630.214844 341.570312 "/>
</g>
<g clip-path="url(#clip8)" clip-rule="nonzero">
<path style=" stroke:none;fill-rule:nonzero;fill:rgb(39.99939%,39.99939%,39.99939%);fill-opacity:0.3;" d="M 378.148438 203.679688 L 350.582031 236.6875 L 342.628906 245.789062 L 341.070312 246.554688 L 338.703125 247.015625 L 335.359375 247.152344 L 329.675781 245.78125 L 325.703125 243.707031 L 321.664062 241.289062 L 318.910156 239.757812 L 315.496094 238.058594 L 312.820312 237.589844 L 310.667969 237.804688 L 308.585938 238.742188 L 306.8125 239.875 L 303.703125 243.097656 L 301.222656 246.257812 L 299.394531 248.425781 L 298.066406 249.753906 L 297.464844 250.351562 L 291.859375 249.816406 L 282.25 243.625 L 275.632812 239.324219 L 266.996094 233.355469 L 260.121094 229.058594 L 259.84375 228.699219 L 272.511719 213.519531 L 270.191406 211.980469 L 257.46875 227.203125 L 268.140625 212.261719 L 308.570312 162.550781 L 299.285156 156.875 L 300.230469 155.746094 Z M 378.148438 203.679688 "/>
</g>
<g clip-path="url(#clip9)" clip-rule="nonzero">
<path style=" stroke:none;fill-rule:nonzero;fill:rgb(39.99939%,39.99939%,39.99939%);fill-opacity:0.3;" d="M 387.601562 24.378906 L 385.832031 24.632812 L 362.097656 13.179688 L 342.179688 2.03125 L 329.523438 -5.402344 L 327.070312 -6.792969 L 322.636719 -9.398438 L 318.84375 -11.527344 L 312.492188 -15.414062 L 307.21875 -19.304688 L 306.925781 -20.03125 L 307.078125 -20.535156 L 307.695312 -20.796875 L 322.058594 -21.003906 L 333.640625 -20.210938 L 346.828125 -19.488281 L 368.179688 -17.226562 L 395.082031 -14.28125 L 406.085938 -12.59375 Z M 387.601562 24.378906 "/>
</g>
<g clip-path="url(#clip10)" clip-rule="nonzero">
<path style=" stroke:none;fill-rule:nonzero;fill:rgb(39.99939%,39.99939%,39.99939%);fill-opacity:0.3;" d="M 193.753906 91.226562 L 194.480469 90.441406 L 195.433594 89.414062 L 193.753906 86.976562 L 229.699219 39.269531 L 227.621094 35.875 L 228.53125 34.761719 L 234.839844 26.757812 L 232.167969 24.851562 L 227.621094 30.574219 L 223.515625 23.386719 L 195.660156 -19.496094 L 185.652344 -34.710938 L 178.277344 -46.265625 L 178.46875 -46.976562 L 186.085938 -43.988281 L 218.308594 -32.894531 L 222.394531 -32.542969 L 235.085938 -30.9375 L 236.679688 -30.628906 L 241.417969 -29.773438 L 246.566406 -28.492188 L 251.269531 -26.878906 L 256.148438 -25.082031 L 261.761719 -22.84375 L 267.429688 -21.109375 L 273.65625 -20.207031 L 279.070312 -19.566406 L 284.222656 -19.714844 L 288.460938 -19.660156 L 293.101562 -20 L 297.476562 -20.308594 L 299.816406 -20.523438 L 302.679688 -19.863281 L 305.375 -18.007812 L 311.214844 -13.703125 L 317.6875 -9.742188 L 321.496094 -7.601562 L 325.925781 -5.003906 L 328.378906 -3.609375 L 341.039062 3.828125 L 361.035156 15.019531 L 385.464844 26.808594 L 386.261719 27.050781 L 386.121094 27.339844 L 388.421875 27.800781 L 397.492188 33 L 396.929688 33.902344 L 386.277344 48.835938 L 372.429688 67.6875 L 356.957031 86.328125 L 349.003906 91.632812 L 337.734375 110.1875 L 317.1875 133.386719 L 296.640625 155.261719 L 195.894531 94.945312 L 193.90625 92.292969 Z M 193.753906 91.226562 "/>
</g>
<path style=" stroke:none;fill-rule:nonzero;fill:rgb(39.99939%,39.99939%,39.99939%);fill-opacity:0.3;" d="M 255.328125 180.339844 L 218.566406 223.460938 L 189.707031 203.988281 L 222.039062 158.097656 Z M 255.328125 180.339844 "/>
<path style=" stroke:none;fill-rule:nonzero;fill:rgb(39.99939%,39.99939%,39.99939%);fill-opacity:0.3;" d="M 217.375 155.070312 L 185.160156 200.859375 L 164.570312 186.90625 L 196.941406 141.414062 Z M 217.375 155.070312 "/>
<path style=" stroke:none;fill-rule:nonzero;fill:rgb(39.99939%,39.99939%,39.99939%);fill-opacity:0.3;" d="M 190.351562 87.652344 L 191.769531 89.46875 L 193.527344 91.472656 L 193.753906 91.226562 L 193.90625 92.292969 L 195.894531 94.945312 L 296.640625 155.261719 L 299.285156 156.875 L 271.011719 190.699219 L 259.632812 182.589844 L 255.328125 180.339844 L 222.039062 158.097656 L 219.707031 156.582031 L 217.375 155.070312 L 196.941406 141.414062 L 203.96875 131.46875 L 201.640625 129.988281 L 199.316406 128.511719 L 135.113281 219.433594 L 137.65625 221.066406 L 140.195312 222.699219 L 162.449219 190.398438 L 182.878906 204.089844 L 160.238281 236.113281 L 162.597656 237.742188 L 164.960938 239.367188 L 187.4375 207.199219 L 215.902344 226.707031 L 190.195312 256.410156 L 192.328125 257.84375 L 194.164062 259.078125 L 219.566406 229.089844 L 242.125 244.421875 L 189.292969 308.570312 L 51.429688 216.101562 L 177.269531 87.652344 Z M 190.351562 87.652344 "/>
<path style=" stroke:none;fill-rule:nonzero;fill:rgb(39.99939%,39.99939%,39.99939%);fill-opacity:0.3;" d="M 257.46875 227.203125 L 257.304688 227.394531 L 257.148438 227.46875 L 256.671875 227.652344 L 256.253906 227.871094 L 255.945312 228.097656 L 246.367188 239.640625 L 241.394531 238.941406 L 238 236.496094 L 234.46875 234.152344 L 222.859375 225.414062 L 259.628906 182.589844 L 271.011719 190.699219 L 299.285156 156.875 L 308.570312 162.550781 L 268.140625 212.261719 Z M 257.46875 227.203125 "/>
<path style="fill-rule:nonzero;fill:rgb(39.99939%,39.99939%,39.99939%);fill-opacity:1;stroke-width:0.03;stroke-linecap:square;stroke-linejoin:miter;stroke:rgb(39.99939%,39.99939%,39.99939%);stroke-opacity:1;stroke-miterlimit:3.239307;" d="M 329.328125 193.339844 L 292.566406 236.460938 L 263.707031 216.988281 L 296.039062 171.097656 Z M 329.328125 193.339844 " transform="matrix(1,0,0,1,-74,-13)"/>
<path style="fill-rule:nonzero;fill:rgb(39.99939%,39.99939%,39.99939%);fill-opacity:1;stroke-width:0.03;stroke-linecap:square;stroke-linejoin:miter;stroke:rgb(39.99939%,39.99939%,39.99939%);stroke-opacity:1;stroke-miterlimit:3.239307;" d="M 291.375 168.070312 L 259.160156 213.859375 L 238.570312 199.90625 L 270.941406 154.414062 Z M 291.375 168.070312 " transform="matrix(1,0,0,1,-74,-13)"/>
<path style="fill-rule:nonzero;fill:rgb(39.99939%,39.99939%,39.99939%);fill-opacity:1;stroke-width:0.03;stroke-linecap:square;stroke-linejoin:miter;stroke:rgb(39.99939%,39.99939%,39.99939%);stroke-opacity:1;stroke-miterlimit:3.239307;" d="M 264.351562 100.652344 L 265.769531 102.46875 L 267.527344 104.472656 L 267.753906 104.226562 L 267.90625 105.292969 L 269.894531 107.945312 L 370.640625 168.261719 L 373.285156 169.875 L 345.011719 203.699219 L 333.632812 195.589844 L 329.328125 193.339844 L 296.039062 171.097656 L 293.707031 169.582031 L 291.375 168.070312 L 270.941406 154.414062 L 277.96875 144.46875 L 275.640625 142.988281 L 273.316406 141.511719 L 209.113281 232.433594 L 211.65625 234.066406 L 214.195312 235.699219 L 236.449219 203.398438 L 256.878906 217.089844 L 234.238281 249.113281 L 236.597656 250.742188 L 238.960938 252.367188 L 261.4375 220.199219 L 289.902344 239.707031 L 264.195312 269.410156 L 266.328125 270.84375 L 268.164062 272.078125 L 293.566406 242.089844 L 316.125 257.421875 L 263.292969 321.570312 L 125.429688 229.101562 L 251.269531 100.652344 Z M 264.351562 100.652344 " transform="matrix(1,0,0,1,-74,-13)"/>
<path style="fill-rule:nonzero;fill:rgb(39.99939%,39.99939%,39.99939%);fill-opacity:1;stroke-width:0.03;stroke-linecap:square;stroke-linejoin:miter;stroke:rgb(39.99939%,39.99939%,39.99939%);stroke-opacity:1;stroke-miterlimit:3.239307;" d="M 331.46875 240.203125 L 331.304688 240.394531 L 331.148438 240.46875 L 330.671875 240.652344 L 330.253906 240.871094 L 329.945312 241.097656 L 320.367188 252.640625 L 315.394531 251.941406 L 312 249.496094 L 308.46875 247.152344 L 296.859375 238.414062 L 333.628906 195.589844 L 345.011719 203.699219 L 373.285156 169.875 L 382.570312 175.550781 L 342.140625 225.261719 Z M 331.46875 240.203125 " transform="matrix(1,0,0,1,-74,-13)"/>
</g>
</svg>
