<?xml version="1.0" encoding="UTF-8"?>
<svg xmlns="http://www.w3.org/2000/svg" xmlns:xlink="http://www.w3.org/1999/xlink" width="361pt" height="361pt" viewBox="0 0 361 361" version="1.1">
<defs>
<clipPath id="clip1">
  <path d="M 128 346 L 185 346 L 185 360 L 128 360 Z M 128 346 "/>
</clipPath>
<clipPath id="clip2">
  <path d="M 14 308 L 256 308 L 256 360 L 14 360 Z M 14 308 "/>
</clipPath>
<clipPath id="clip3">
  <path d="M 92 308 L 150 308 L 150 360 L 92 360 Z M 92 308 "/>
</clipPath>
<clipPath id="clip4">
  <path d="M 172 0 L 360 0 L 360 166 L 172 166 Z M 172 0 "/>
</clipPath>
<clipPath id="clip5">
  <path d="M 281 116 L 360 116 L 360 347 L 281 347 Z M 281 116 "/>
</clipPath>
<clipPath id="clip6">
  <path d="M 199 333 L 360 333 L 360 360 L 199 360 Z M 199 333 "/>
</clipPath>
</defs>
<g id="surface4725">
<path style="fill-rule:nonzero;fill:rgb(0%,0%,0%);fill-opacity:1;stroke-width:0.03;stroke-linecap:square;stroke-linejoin:miter;stroke:rgb(0%,0%,0%);stroke-opacity:1;stroke-miterlimit:10;" d="M 0 178 L 360 178 L 360 -182 L 0 -182 Z M 0 178 " transform="matrix(1,0,0,1,0,182)"/>
<g clip-path="url(#clip1)" clip-rule="nonzero">
<path style=" stroke:none;fill-rule:nonzero;fill:rgb(39.99939%,39.99939%,39.99939%);fill-opacity:0.3;" d="M 184.808594 361.128906 L 171.917969 394.636719 L 128.976562 379.898438 L 141.945312 346.308594 Z M 184.808594 361.128906 "/>
</g>
<path style=" stroke:none;fill-rule:nonzero;fill:rgb(39.99939%,39.99939%,39.99939%);fill-opacity:0.3;" d="M 171.429688 308.570312 L 199.976562 318.757812 L 186.207031 352.296875 L 145.703125 338.203125 L 156.636719 308.570312 Z M 171.429688 308.570312 "/>
<path style=" stroke:none;fill-rule:nonzero;fill:rgb(39.99939%,39.99939%,39.99939%);fill-opacity:0.3;" d="M 247.757812 309.601562 L 236.015625 338.925781 L 201.742188 327.339844 L 209.457031 308.570312 L 244.707031 308.570312 Z M 247.757812 309.601562 "/>
<g clip-path="url(#clip2)" clip-rule="nonzero">
<path style=" stroke:none;fill-rule:nonzero;fill:rgb(39.99939%,39.99939%,39.99939%);fill-opacity:0.3;" d="M 255.160156 308.570312 L 174.902344 518.914062 L 14.957031 461.5 L 77.015625 308.570312 Z M 255.160156 308.570312 "/>
</g>
<g clip-path="url(#clip3)" clip-rule="nonzero">
<path style=" stroke:none;fill-rule:nonzero;fill:rgb(39.99939%,39.99939%,39.99939%);fill-opacity:0.3;" d="M 149.324219 308.570312 L 123.585938 373.589844 L 92.699219 362.605469 L 114.46875 308.570312 Z M 149.324219 308.570312 "/>
</g>
<path style=" stroke:none;fill-rule:nonzero;fill:rgb(39.99939%,39.99939%,39.99939%);fill-opacity:0.3;" d="M 158.355469 303.90625 L 171.429688 308.570312 L 156.636719 308.570312 Z M 158.355469 303.90625 "/>
<path style=" stroke:none;fill-rule:nonzero;fill:rgb(39.99939%,39.99939%,39.99939%);fill-opacity:0.3;" d="M 184.972656 257.15625 L 215.632812 267.894531 L 199.859375 306.457031 L 169.335938 295.820312 Z M 184.972656 257.15625 "/>
<path style=" stroke:none;fill-rule:nonzero;fill:rgb(39.99939%,39.99939%,39.99939%);fill-opacity:0.3;" d="M 214.597656 166.40625 L 180.886719 253.964844 L 135.628906 238.25 L 164.527344 165.183594 Z M 214.597656 166.40625 "/>
<path style=" stroke:none;fill-rule:nonzero;fill:rgb(39.99939%,39.99939%,39.99939%);fill-opacity:0.3;" d="M 221.207031 168.402344 L 267.285156 183.140625 L 233.914062 268.640625 L 188.484375 253.289062 Z M 221.207031 168.402344 "/>
<path style=" stroke:none;fill-rule:nonzero;fill:rgb(39.99939%,39.99939%,39.99939%);fill-opacity:0.3;" d="M 209.457031 308.570312 L 213.761719 298.105469 L 244.707031 308.570312 Z M 209.457031 308.570312 "/>
<path style=" stroke:none;fill-rule:nonzero;fill:rgb(39.99939%,39.99939%,39.99939%);fill-opacity:0.3;" d="M 303.171875 182.738281 L 255.160156 308.570312 L 77.015625 308.570312 L 51.429688 187.945312 L 61.273438 162.664062 L 257.949219 167.460938 Z M 303.171875 182.738281 "/>
<path style=" stroke:none;fill-rule:nonzero;fill:rgb(39.99939%,39.99939%,39.99939%);fill-opacity:0.3;" d="M 280.734375 214.207031 L 256.835938 275.746094 L 240.929688 270.398438 L 264.128906 209.613281 Z M 280.734375 214.207031 "/>
<path style=" stroke:none;fill-rule:nonzero;fill:rgb(39.99939%,39.99939%,39.99939%);fill-opacity:0.3;" d="M 294.15625 181.621094 L 282.726562 209.027344 L 266.734375 204.140625 L 277.621094 176.347656 Z M 294.15625 181.621094 "/>
<path style=" stroke:none;fill-rule:nonzero;fill:rgb(39.99939%,39.99939%,39.99939%);fill-opacity:0.3;" d="M 145.328125 243.894531 L 176.941406 254.949219 L 162.304688 292.730469 L 130.003906 281.890625 Z M 145.328125 243.894531 "/>
<path style=" stroke:none;fill-rule:nonzero;fill:rgb(39.99939%,39.99939%,39.99939%);fill-opacity:0.3;" d="M 121.269531 291.691406 L 151.632812 302.742188 L 149.324219 308.570312 L 114.46875 308.570312 Z M 121.269531 291.691406 "/>
<path style=" stroke:none;fill-rule:nonzero;fill:rgb(39.99939%,39.99939%,39.99939%);fill-opacity:0.3;" d="M 259.238281 282.285156 L 249.488281 305.691406 L 215.117188 294.136719 L 225.261719 270.546875 Z M 259.238281 282.285156 "/>
<path style=" stroke:none;fill-rule:nonzero;fill:rgb(39.99939%,39.99939%,39.99939%);fill-opacity:0.3;" d="M 308.570312 168.695312 L 307.878906 170.550781 L 301.921875 168.535156 Z M 308.570312 168.695312 "/>
<path style=" stroke:none;fill-rule:nonzero;fill:rgb(39.99939%,39.99939%,39.99939%);fill-opacity:0.3;" d="M 170.859375 149.171875 L 215.140625 164.996094 L 214.597656 166.40625 L 164.527344 165.183594 Z M 170.859375 149.171875 "/>
<path style=" stroke:none;fill-rule:nonzero;fill:rgb(39.99939%,39.99939%,39.99939%);fill-opacity:0.3;" d="M 61.273438 162.664062 L 127.164062 -6.5 L 132.828125 42.285156 L 137.714844 75.621094 L 141.652344 88.671875 L 148.367188 103.566406 L 155.9375 115.496094 L 163.148438 123.769531 L 172.578125 132.589844 L 184.507812 140.113281 L 211.636719 151.820312 L 257.949219 167.460938 Z M 61.273438 162.664062 "/>
<path style=" stroke:none;fill-rule:nonzero;fill:rgb(39.99939%,39.99939%,39.99939%);fill-opacity:0.3;" d="M 309.601562 165.941406 L 308.570312 168.695312 L 301.921875 168.535156 L 216.816406 139.765625 L 191.234375 128.722656 L 181.332031 122.476562 L 173.34375 115.003906 L 167.234375 107.996094 L 164.703125 104.003906 L 165.167969 102.804688 L 172.320312 113.535156 L 192.265625 126.832031 Z M 309.601562 165.941406 "/>
<path style=" stroke:none;fill-rule:nonzero;fill:rgb(39.99939%,39.99939%,39.99939%);fill-opacity:0.3;" d="M 266.695312 -30.296875 L 258.414062 -32.984375 L 254.140625 -21.863281 L 239.25 -27.0625 L 250.730469 -57.429688 L 265.445312 -52.632812 L 261.320312 -41.140625 L 269.609375 -38.441406 L 273.738281 -49.921875 L 288.464844 -45.097656 L 277.300781 -14.027344 L 273.03125 -2.820312 L 281.421875 0.117188 L 285.574219 -11.3125 L 289.875 -9.914062 L 295.417969 -25.351562 L 310.144531 -20.53125 L 306.003906 -9.070312 L 314.296875 -6.355469 L 318.441406 -17.808594 L 333.171875 -12.964844 L 326.222656 6.210938 L 336.027344 9.421875 L 331.890625 20.886719 L 340.183594 23.597656 L 344.324219 12.144531 L 359.058594 16.984375 L 347.84375 48.011719 L 333.140625 43.222656 L 337.257812 31.71875 L 328.96875 29.015625 L 324.863281 40.527344 L 310.027344 35.464844 L 317.046875 16.449219 L 307.253906 13.265625 L 311.375 1.761719 L 303.082031 -0.941406 L 298.972656 10.566406 L 294.675781 9.175781 L 282.589844 39.550781 L 290.945312 42.453125 L 286.589844 53.414062 L 294.96875 56.320312 L 299.324219 45.371094 L 314.203125 50.558594 L 309.835938 61.488281 L 318.21875 64.40625 L 322.589844 53.488281 L 337.480469 58.703125 L 325.648438 88.28125 L 310.78125 83.125 L 315.132812 72.152344 L 306.753906 69.246094 L 302.414062 80.214844 L 287.550781 75.085938 L 291.890625 64.089844 L 283.515625 61.1875 L 279.183594 72.191406 L 264.332031 67.0625 L 270.527344 51.308594 L 262.179688 48.425781 L 266.511719 37.449219 L 258.140625 34.546875 L 253.808594 45.539062 L 238.953125 40.421875 Z M 266.695312 -30.296875 "/>
<path style=" stroke:none;fill-rule:nonzero;fill:rgb(39.99939%,39.99939%,39.99939%);fill-opacity:0.3;" d="M 269.371094 109.71875 L 273.683594 98.664062 L 279.480469 83.847656 L 286.90625 86.410156 L 281.105469 101.21875 L 288.527344 103.777344 L 284.210938 114.824219 L 292.574219 117.699219 L 296.894531 106.660156 L 311.742188 111.78125 L 300.046875 141.6875 L 285.210938 136.589844 L 289.519531 125.523438 L 281.160156 122.648438 L 276.855469 133.710938 L 262.015625 128.625 L 266.320312 117.550781 L 257.960938 114.679688 L 253.65625 125.757812 L 238.824219 120.671875 L 243.125 109.585938 L 234.765625 106.71875 L 230.472656 117.800781 L 215.636719 112.726562 L 227.28125 82.710938 L 231.585938 71.644531 L 223.226562 68.769531 L 218.925781 79.832031 L 204.085938 74.75 L 215.746094 44.78125 L 230.589844 49.890625 L 226.277344 60.941406 L 234.640625 63.820312 L 238.957031 52.773438 L 253.804688 57.894531 L 242.117188 87.808594 L 237.8125 98.878906 L 246.171875 101.75 L 250.480469 90.679688 L 257.898438 93.230469 L 263.691406 78.402344 L 271.117188 80.960938 L 261.058594 107.011719 Z M 269.371094 109.71875 "/>
<g clip-path="url(#clip4)" clip-rule="nonzero">
<path style=" stroke:none;fill-rule:nonzero;fill:rgb(39.99939%,39.99939%,39.99939%);fill-opacity:0.3;" d="M 337.664062 -292.320312 L 465.980469 -252.433594 L 309.601562 165.941406 L 192.265625 126.832031 L 172.320312 113.535156 Z M 337.664062 -292.320312 "/>
</g>
<g clip-path="url(#clip5)" clip-rule="nonzero">
<path style=" stroke:none;fill-rule:nonzero;fill:rgb(39.99939%,39.99939%,39.99939%);fill-opacity:0.3;" d="M 358.164062 116.753906 L 453.117188 148.890625 L 377.625 346.496094 L 281.660156 313.742188 Z M 358.164062 116.753906 "/>
</g>
<g clip-path="url(#clip6)" clip-rule="nonzero">
<path style=" stroke:none;fill-rule:nonzero;fill:rgb(39.99939%,39.99939%,39.99939%);fill-opacity:0.3;" d="M 274.132812 333.351562 L 370.175781 366.113281 L 297.308594 558.90625 L 205.289062 529.375 L 199.839844 527.558594 Z M 274.132812 333.351562 "/>
</g>
<path style=" stroke:none;fill-rule:nonzero;fill:rgb(39.99939%,39.99939%,39.99939%);fill-opacity:0.3;" d="M 238.191406 -322.417969 L 290.785156 -306.625 L 162.027344 35.078125 L 150.066406 -15.984375 L 148.484375 -73.535156 Z M 238.191406 -322.417969 "/>
<path style=" stroke:none;fill-rule:nonzero;fill:rgb(39.99939%,39.99939%,39.99939%);fill-opacity:0.3;" d="M 316.886719 -298.777344 L 337.664062 -292.320312 L 172.320312 113.535156 L 165.167969 102.804688 L 175.1875 76.863281 Z M 316.886719 -298.777344 "/>
<path style=" stroke:none;fill-rule:nonzero;fill:rgb(39.99939%,39.99939%,39.99939%);fill-opacity:0.3;" d="M 316.878906 -298.78125 L 175.183594 76.863281 L 168.652344 56.113281 L 303.925781 -302.675781 Z M 316.878906 -298.78125 "/>
<path style="fill-rule:nonzero;fill:rgb(39.99939%,39.99939%,39.99939%);fill-opacity:1;stroke-width:0.03;stroke-linecap:square;stroke-linejoin:miter;stroke:rgb(39.99939%,39.99939%,39.99939%);stroke-opacity:1;stroke-miterlimit:3.239307;" d="M 232.355469 316.90625 L 245.429688 321.570312 L 230.636719 321.570312 Z M 232.355469 316.90625 " transform="matrix(1,0,0,1,-74,-13)"/>
<path style="fill-rule:nonzero;fill:rgb(39.99939%,39.99939%,39.99939%);fill-opacity:1;stroke-width:0.03;stroke-linecap:square;stroke-linejoin:miter;stroke:rgb(39.99939%,39.99939%,39.99939%);stroke-opacity:1;stroke-miterlimit:3.239307;" d="M 258.972656 270.15625 L 289.632812 280.894531 L 273.859375 319.457031 L 243.335938 308.820312 Z M 258.972656 270.15625 " transform="matrix(1,0,0,1,-74,-13)"/>
<path style="fill-rule:nonzero;fill:rgb(39.99939%,39.99939%,39.99939%);fill-opacity:1;stroke-width:0.03;stroke-linecap:square;stroke-linejoin:miter;stroke:rgb(39.99939%,39.99939%,39.99939%);stroke-opacity:1;stroke-miterlimit:3.239307;" d="M 288.597656 179.40625 L 254.886719 266.964844 L 209.628906 251.25 L 238.527344 178.183594 Z M 288.597656 179.40625 " transform="matrix(1,0,0,1,-74,-13)"/>
<path style="fill-rule:nonzero;fill:rgb(39.99939%,39.99939%,39.99939%);fill-opacity:1;stroke-width:0.03;stroke-linecap:square;stroke-linejoin:miter;stroke:rgb(39.99939%,39.99939%,39.99939%);stroke-opacity:1;stroke-miterlimit:3.239307;" d="M 295.207031 181.402344 L 341.285156 196.140625 L 307.914062 281.640625 L 262.484375 266.289062 Z M 295.207031 181.402344 " transform="matrix(1,0,0,1,-74,-13)"/>
<path style="fill-rule:nonzero;fill:rgb(39.99939%,39.99939%,39.99939%);fill-opacity:1;stroke-width:0.03;stroke-linecap:square;stroke-linejoin:miter;stroke:rgb(39.99939%,39.99939%,39.99939%);stroke-opacity:1;stroke-miterlimit:3.239307;" d="M 283.457031 321.570312 L 287.761719 311.105469 L 318.707031 321.570312 Z M 283.457031 321.570312 " transform="matrix(1,0,0,1,-74,-13)"/>
<path style="fill-rule:nonzero;fill:rgb(39.99939%,39.99939%,39.99939%);fill-opacity:1;stroke-width:0.03;stroke-linecap:square;stroke-linejoin:miter;stroke:rgb(39.99939%,39.99939%,39.99939%);stroke-opacity:1;stroke-miterlimit:3.239307;" d="M 377.171875 195.738281 L 329.160156 321.570312 L 151.015625 321.570312 L 125.429688 200.945312 L 135.273438 175.664062 L 331.949219 180.460938 Z M 377.171875 195.738281 " transform="matrix(1,0,0,1,-74,-13)"/>
<path style="fill-rule:nonzero;fill:rgb(39.99939%,39.99939%,39.99939%);fill-opacity:1;stroke-width:0.03;stroke-linecap:square;stroke-linejoin:miter;stroke:rgb(39.99939%,39.99939%,39.99939%);stroke-opacity:1;stroke-miterlimit:3.239307;" d="M 354.734375 227.207031 L 330.835938 288.746094 L 314.929688 283.398438 L 338.128906 222.613281 Z M 354.734375 227.207031 " transform="matrix(1,0,0,1,-74,-13)"/>
<path style="fill-rule:nonzero;fill:rgb(39.99939%,39.99939%,39.99939%);fill-opacity:1;stroke-width:0.03;stroke-linecap:square;stroke-linejoin:miter;stroke:rgb(39.99939%,39.99939%,39.99939%);stroke-opacity:1;stroke-miterlimit:3.239307;" d="M 368.15625 194.621094 L 356.726562 222.027344 L 340.734375 217.140625 L 351.621094 189.347656 Z M 368.15625 194.621094 " transform="matrix(1,0,0,1,-74,-13)"/>
<path style="fill-rule:nonzero;fill:rgb(39.99939%,39.99939%,39.99939%);fill-opacity:1;stroke-width:0.03;stroke-linecap:square;stroke-linejoin:miter;stroke:rgb(39.99939%,39.99939%,39.99939%);stroke-opacity:1;stroke-miterlimit:3.239307;" d="M 219.328125 256.894531 L 250.941406 267.949219 L 236.304688 305.730469 L 204.003906 294.890625 Z M 219.328125 256.894531 " transform="matrix(1,0,0,1,-74,-13)"/>
<path style="fill-rule:nonzero;fill:rgb(39.99939%,39.99939%,39.99939%);fill-opacity:1;stroke-width:0.03;stroke-linecap:square;stroke-linejoin:miter;stroke:rgb(39.99939%,39.99939%,39.99939%);stroke-opacity:1;stroke-miterlimit:3.239307;" d="M 195.269531 304.691406 L 225.632812 315.742188 L 223.324219 321.570312 L 188.46875 321.570312 Z M 195.269531 304.691406 " transform="matrix(1,0,0,1,-74,-13)"/>
<path style="fill-rule:nonzero;fill:rgb(39.99939%,39.99939%,39.99939%);fill-opacity:1;stroke-width:0.03;stroke-linecap:square;stroke-linejoin:miter;stroke:rgb(39.99939%,39.99939%,39.99939%);stroke-opacity:1;stroke-miterlimit:3.239307;" d="M 333.238281 295.285156 L 323.488281 318.691406 L 289.117188 307.136719 L 299.261719 283.546875 Z M 333.238281 295.285156 " transform="matrix(1,0,0,1,-74,-13)"/>
<path style="fill-rule:nonzero;fill:rgb(39.99939%,39.99939%,39.99939%);fill-opacity:1;stroke-width:0.03;stroke-linecap:square;stroke-linejoin:miter;stroke:rgb(39.99939%,39.99939%,39.99939%);stroke-opacity:1;stroke-miterlimit:3.239307;" d="M 382.570312 181.695312 L 381.878906 183.550781 L 375.921875 181.535156 Z M 382.570312 181.695312 " transform="matrix(1,0,0,1,-74,-13)"/>
</g>
</svg>
