<?xml version="1.0" encoding="UTF-8"?>
<svg xmlns="http://www.w3.org/2000/svg" xmlns:xlink="http://www.w3.org/1999/xlink" width="361pt" height="361pt" viewBox="0 0 361 361" version="1.1">
<defs>
<clipPath id="clip1">
  <path d="M 336 124 L 360 124 L 360 130 L 336 130 Z M 336 124 "/>
</clipPath>
<clipPath id="clip2">
  <path d="M 305 122 L 360 122 L 360 360 L 305 360 Z M 305 122 "/>
</clipPath>
<clipPath id="clip3">
  <path d="M 336 86 L 360 86 L 360 130 L 336 130 Z M 336 86 "/>
</clipPath>
<clipPath id="clip4">
  <path d="M 354 49 L 360 49 L 360 92 L 354 92 Z M 354 49 "/>
</clipPath>
<clipPath id="clip5">
  <path d="M 329 36 L 360 36 L 360 81 L 329 81 Z M 329 36 "/>
</clipPath>
<clipPath id="clip6">
  <path d="M 300 0 L 360 0 L 360 42 L 300 42 Z M 300 0 "/>
</clipPath>
<clipPath id="clip7">
  <path d="M 118 350 L 266 350 L 266 360 L 118 360 Z M 118 350 "/>
</clipPath>
<clipPath id="clip8">
  <path d="M 41 252 L 309 252 L 309 360 L 41 360 Z M 41 252 "/>
</clipPath>
<clipPath id="clip9">
  <path d="M 344 105 L 360 105 L 360 147 L 344 147 Z M 344 105 "/>
</clipPath>
</defs>
<g id="surface6594">
<path style="fill-rule:nonzero;fill:rgb(0%,0%,0%);fill-opacity:1;stroke-width:0.03;stroke-linecap:square;stroke-linejoin:miter;stroke:rgb(0%,0%,0%);stroke-opacity:1;stroke-miterlimit:10;" d="M 0 178 L 360 178 L 360 -182 L 0 -182 Z M 0 178 " transform="matrix(1,0,0,1,0,182)"/>
<path style=" stroke:none;fill-rule:nonzero;fill:rgb(39.99939%,39.99939%,39.99939%);fill-opacity:0.3;" d="M 273.398438 285.917969 L 290.746094 287.351562 L 290.199219 293.316406 L 272.851562 291.886719 Z M 273.398438 285.917969 "/>
<path style=" stroke:none;fill-rule:nonzero;fill:rgb(39.99939%,39.99939%,39.99939%);fill-opacity:0.3;" d="M 274.867188 259.121094 L 281.589844 259.757812 L 280.976562 265.605469 L 274.253906 264.96875 Z M 274.867188 259.121094 "/>
<path style=" stroke:none;fill-rule:nonzero;fill:rgb(39.99939%,39.99939%,39.99939%);fill-opacity:0.3;" d="M 158.492188 267.074219 L 164.558594 268.003906 L 163.769531 272.542969 L 157.703125 271.617188 Z M 158.492188 267.074219 "/>
<path style=" stroke:none;fill-rule:nonzero;fill:rgb(39.99939%,39.99939%,39.99939%);fill-opacity:0.3;" d="M 111.558594 185.222656 L 115.496094 185.691406 L 115.265625 187.265625 L 116.652344 187.429688 L 116.882812 185.855469 L 120.804688 186.324219 L 119.6875 194.050781 L 115.765625 193.582031 L 115.988281 192.035156 L 114.601562 191.871094 L 113.371094 200.390625 L 109.433594 199.917969 L 109.625 198.601562 L 108.320312 198.445312 L 108.132812 199.765625 L 104.535156 199.335938 L 105.542969 192.367188 L 109.136719 192.792969 L 108.914062 194.339844 L 110.21875 194.496094 Z M 111.558594 185.222656 "/>
<path style=" stroke:none;fill-rule:nonzero;fill:rgb(39.99939%,39.99939%,39.99939%);fill-opacity:0.3;" d="M 153.953125 259.707031 L 160.019531 260.632812 L 159.230469 265.171875 L 153.164062 264.246094 Z M 153.953125 259.707031 "/>
<path style=" stroke:none;fill-rule:nonzero;fill:rgb(39.99939%,39.99939%,39.99939%);fill-opacity:0.3;" d="M 98.738281 203.792969 L 104.804688 204.722656 L 104.015625 209.261719 L 97.949219 208.335938 Z M 98.738281 203.792969 "/>
<path style=" stroke:none;fill-rule:nonzero;fill:rgb(39.99939%,39.99939%,39.99939%);fill-opacity:0.3;" d="M 103.484375 211.390625 L 109.550781 212.316406 L 108.761719 216.859375 L 102.695312 215.929688 Z M 103.484375 211.390625 "/>
<path style=" stroke:none;fill-rule:nonzero;fill:rgb(39.99939%,39.99939%,39.99939%);fill-opacity:0.3;" d="M 107.425781 219.109375 L 113.492188 220.039062 L 112.703125 224.578125 L 106.636719 223.652344 Z M 107.425781 219.109375 "/>
<path style=" stroke:none;fill-rule:nonzero;fill:rgb(39.99939%,39.99939%,39.99939%);fill-opacity:0.3;" d="M 137.734375 203.535156 L 143.800781 204.460938 L 143.011719 209 L 136.945312 208.074219 Z M 137.734375 203.535156 "/>
<path style=" stroke:none;fill-rule:nonzero;fill:rgb(39.99939%,39.99939%,39.99939%);fill-opacity:0.3;" d="M 130.800781 187.898438 L 134.738281 188.222656 L 134.613281 189.804688 L 136.007812 189.921875 L 136.132812 188.335938 L 140.085938 188.664062 L 139.464844 196.441406 L 135.515625 196.113281 L 135.636719 194.554688 L 134.246094 194.441406 L 134.121094 196 L 133.304688 203.761719 L 129.363281 203.429688 L 129.527344 201.875 L 128.136719 201.757812 L 127.234375 210.3125 L 123.28125 209.980469 L 123.421875 208.65625 L 122.113281 208.546875 L 121.972656 209.871094 L 118.363281 209.566406 L 119.101562 202.566406 L 122.710938 202.871094 L 122.546875 204.421875 L 123.855469 204.535156 L 124.839844 195.21875 L 128.789062 195.550781 L 128.625 197.132812 L 130.015625 197.25 L 130.183594 195.667969 Z M 130.800781 187.898438 "/>
<path style=" stroke:none;fill-rule:nonzero;fill:rgb(39.99939%,39.99939%,39.99939%);fill-opacity:0.3;" d="M 87.050781 239.304688 L 93.117188 240.230469 L 92.328125 244.773438 L 86.261719 243.847656 Z M 87.050781 239.304688 "/>
<path style=" stroke:none;fill-rule:nonzero;fill:rgb(39.99939%,39.99939%,39.99939%);fill-opacity:0.3;" d="M 89.941406 246.464844 L 96.003906 247.390625 L 95.214844 251.933594 L 89.152344 251.007812 Z M 89.941406 246.464844 "/>
<path style=" stroke:none;fill-rule:nonzero;fill:rgb(39.99939%,39.99939%,39.99939%);fill-opacity:0.3;" d="M 131 210.160156 L 137.066406 211.085938 L 136.277344 215.625 L 130.210938 214.699219 Z M 131 210.160156 "/>
<path style=" stroke:none;fill-rule:nonzero;fill:rgb(39.99939%,39.99939%,39.99939%);fill-opacity:0.3;" d="M 120.875 248.011719 L 126.9375 248.941406 L 126.148438 253.480469 L 120.085938 252.554688 Z M 120.875 248.011719 "/>
<path style=" stroke:none;fill-rule:nonzero;fill:rgb(39.99939%,39.99939%,39.99939%);fill-opacity:0.3;" d="M 114.398438 254.035156 L 120.464844 254.960938 L 119.675781 259.503906 L 113.609375 258.578125 Z M 114.398438 254.035156 "/>
<path style=" stroke:none;fill-rule:nonzero;fill:rgb(39.99939%,39.99939%,39.99939%);fill-opacity:0.3;" d="M 106.753906 237.664062 L 104.984375 246.871094 L 106.277344 247.109375 L 106.570312 245.574219 L 110.128906 246.230469 L 108.800781 253.152344 L 105.242188 252.496094 L 105.492188 251.1875 L 104.203125 250.949219 L 103.953125 252.257812 L 100.058594 251.539062 L 101.683594 243.082031 L 100.308594 242.828125 L 100.015625 244.367188 L 96.132812 243.652344 L 97.605469 235.976562 L 101.488281 236.691406 L 101.1875 238.253906 L 102.558594 238.507812 L 102.859375 236.945312 Z M 106.753906 237.664062 "/>
<path style=" stroke:none;fill-rule:nonzero;fill:rgb(39.99939%,39.99939%,39.99939%);fill-opacity:0.3;" d="M 149.671875 252.214844 L 155.738281 253.140625 L 154.949219 257.679688 L 148.882812 256.753906 Z M 149.671875 252.214844 "/>
<path style=" stroke:none;fill-rule:nonzero;fill:rgb(39.99939%,39.99939%,39.99939%);fill-opacity:0.3;" d="M 73.523438 232.5 L 77.441406 233.101562 L 77.152344 234.667969 L 78.535156 234.878906 L 78.820312 233.3125 L 82.722656 233.914062 L 81.320312 241.597656 L 77.414062 241 L 77.695312 239.460938 L 76.316406 239.246094 L 76.035156 240.789062 L 72.117188 240.1875 Z M 73.523438 232.5 "/>
<path style=" stroke:none;fill-rule:nonzero;fill:rgb(39.99939%,39.99939%,39.99939%);fill-opacity:0.3;" d="M 136.78125 248.125 L 140.71875 248.59375 L 140.492188 250.167969 L 141.878906 250.332031 L 142.105469 248.761719 L 146.03125 249.226562 L 144.914062 256.957031 L 140.988281 256.488281 L 141.210938 254.941406 L 139.824219 254.773438 L 138.59375 263.292969 L 134.660156 262.824219 L 134.851562 261.507812 L 133.546875 261.351562 L 133.355469 262.667969 L 129.757812 262.238281 L 130.765625 255.269531 L 134.363281 255.699219 L 134.140625 257.246094 L 135.441406 257.398438 Z M 136.78125 248.125 "/>
<path style=" stroke:none;fill-rule:nonzero;fill:rgb(39.99939%,39.99939%,39.99939%);fill-opacity:0.3;" d="M 205.921875 257.050781 L 209.859375 257.375 L 209.734375 258.960938 L 211.125 259.074219 L 211.253906 257.492188 L 215.203125 257.816406 L 214.585938 265.59375 L 210.632812 265.269531 L 210.757812 263.710938 L 209.367188 263.597656 L 209.242188 265.15625 L 208.421875 272.914062 L 204.484375 272.585938 L 204.648438 271.03125 L 203.253906 270.914062 L 202.351562 279.46875 L 198.402344 279.136719 L 198.542969 277.8125 L 197.230469 277.703125 L 197.09375 279.023438 L 193.480469 278.722656 L 194.21875 271.722656 L 197.832031 272.023438 L 197.667969 273.578125 L 198.976562 273.6875 L 199.960938 264.375 L 203.910156 264.707031 L 203.742188 266.285156 L 205.136719 266.402344 L 205.304688 264.824219 Z M 205.921875 257.050781 "/>
<path style=" stroke:none;fill-rule:nonzero;fill:rgb(39.99939%,39.99939%,39.99939%);fill-opacity:0.3;" d="M 226.160156 272.480469 L 232.226562 273.40625 L 231.4375 277.945312 L 225.371094 277.019531 Z M 226.160156 272.480469 "/>
<path style=" stroke:none;fill-rule:nonzero;fill:rgb(39.99939%,39.99939%,39.99939%);fill-opacity:0.3;" d="M 57.613281 252.550781 L 60.824219 242.871094 L 65.777344 227.949219 L 203.582031 246.011719 L 202.625 254.730469 L 250.851562 260.089844 L 250.945312 258.042969 L 251.035156 255.996094 L 207 251.171875 L 207.414062 247.617188 L 226.585938 249.585938 L 291.601562 225.929688 L 306.4375 229.523438 L 306.660156 235.746094 L 308.460938 297.242188 L 308.570312 300.976562 L 308.324219 308.570312 L 95.273438 259.726562 Z M 57.613281 252.550781 "/>
<path style=" stroke:none;fill-rule:nonzero;fill:rgb(39.99939%,39.99939%,39.99939%);fill-opacity:0.3;" d="M 242.460938 263.238281 L 241.488281 272.574219 L 242.878906 272.722656 L 243.042969 271.140625 L 246.984375 271.554688 L 246.015625 280.871094 L 247.324219 281.007812 L 247.484375 279.453125 L 251.089844 279.828125 L 250.359375 286.832031 L 246.757812 286.453125 L 246.894531 285.128906 L 245.589844 284.992188 L 245.449219 286.316406 L 241.507812 285.90625 L 242.398438 277.347656 L 241.007812 277.203125 L 240.847656 278.757812 L 236.914062 278.347656 L 237.722656 270.585938 L 237.925781 269.035156 L 236.535156 268.886719 L 236.335938 270.4375 L 232.390625 270.015625 L 233.398438 262.277344 L 237.34375 262.695312 L 237.136719 264.273438 L 238.527344 264.417969 L 238.730469 262.84375 Z M 242.460938 263.238281 "/>
<path style=" stroke:none;fill-rule:nonzero;fill:rgb(39.99939%,39.99939%,39.99939%);fill-opacity:0.3;" d="M 230.351562 279.9375 L 236.414062 280.863281 L 235.625 285.40625 L 229.558594 284.476562 Z M 230.351562 279.9375 "/>
<path style=" stroke:none;fill-rule:nonzero;fill:rgb(39.99939%,39.99939%,39.99939%);fill-opacity:0.3;" d="M 255.621094 272.46875 L 261.6875 273.394531 L 260.898438 277.933594 L 254.832031 277.007812 Z M 255.621094 272.46875 "/>
<path style=" stroke:none;fill-rule:nonzero;fill:rgb(39.99939%,39.99939%,39.99939%);fill-opacity:0.3;" d="M 257.671875 283.238281 L 263.738281 284.167969 L 262.945312 288.707031 L 256.882812 287.78125 Z M 257.671875 283.238281 "/>
<path style=" stroke:none;fill-rule:nonzero;fill:rgb(39.99939%,39.99939%,39.99939%);fill-opacity:0.3;" d="M 260.375 267.105469 L 266.441406 268.03125 L 265.652344 272.574219 L 259.585938 271.644531 Z M 260.375 267.105469 "/>
<path style=" stroke:none;fill-rule:nonzero;fill:rgb(39.99939%,39.99939%,39.99939%);fill-opacity:0.3;" d="M 183.867188 209.613281 L 182.894531 218.949219 L 184.285156 219.097656 L 184.449219 217.515625 L 188.390625 217.929688 L 187.421875 227.242188 L 188.730469 227.378906 L 188.890625 225.828125 L 192.496094 226.203125 L 191.765625 233.207031 L 188.164062 232.828125 L 188.300781 231.503906 L 186.992188 231.367188 L 186.855469 232.691406 L 182.914062 232.28125 L 183.804688 223.722656 L 182.414062 223.578125 L 182.253906 225.132812 L 178.320312 224.722656 L 179.128906 216.960938 L 179.332031 215.40625 L 177.941406 215.261719 L 177.738281 216.8125 L 173.796875 216.390625 L 174.804688 208.652344 L 178.746094 209.070312 L 178.542969 210.644531 L 179.929688 210.792969 L 180.136719 209.21875 Z M 183.867188 209.613281 "/>
<path style=" stroke:none;fill-rule:nonzero;fill:rgb(39.99939%,39.99939%,39.99939%);fill-opacity:0.3;" d="M 200.769531 201.417969 L 206.835938 202.34375 L 206.046875 206.886719 L 199.980469 205.957031 Z M 200.769531 201.417969 "/>
<path style=" stroke:none;fill-rule:nonzero;fill:rgb(39.99939%,39.99939%,39.99939%);fill-opacity:0.3;" d="M 187.402344 197.265625 L 187.285156 197.90625 L 188.664062 198.117188 L 188.757812 197.601562 L 192.597656 198.546875 L 191.449219 204.835938 L 187.546875 204.238281 L 187.828125 202.699219 L 186.445312 202.484375 L 186.164062 204.027344 L 182.25 203.425781 L 183.550781 196.316406 Z M 187.402344 197.265625 "/>
<path style=" stroke:none;fill-rule:nonzero;fill:rgb(39.99939%,39.99939%,39.99939%);fill-opacity:0.3;" d="M 192.503906 206.359375 L 198.570312 207.289062 L 197.78125 211.828125 L 191.714844 210.902344 Z M 192.503906 206.359375 "/>
<path style=" stroke:none;fill-rule:nonzero;fill:rgb(39.99939%,39.99939%,39.99939%);fill-opacity:0.3;" d="M 196.820312 214.035156 L 202.886719 214.960938 L 202.097656 219.503906 L 196.03125 218.578125 Z M 196.820312 214.035156 "/>
<path style=" stroke:none;fill-rule:nonzero;fill:rgb(39.99939%,39.99939%,39.99939%);fill-opacity:0.3;" d="M 219.578125 213.804688 L 217.808594 223.015625 L 219.097656 223.253906 L 219.394531 221.71875 L 222.953125 222.375 L 221.621094 229.292969 L 218.0625 228.640625 L 218.316406 227.332031 L 217.023438 227.09375 L 216.773438 228.402344 L 212.878906 227.683594 L 214.503906 219.226562 L 213.132812 218.972656 L 212.835938 220.511719 L 208.953125 219.796875 L 210.429688 212.121094 L 214.308594 212.835938 L 214.011719 214.398438 L 215.382812 214.652344 L 215.683594 213.089844 Z M 219.578125 213.804688 "/>
<path style=" stroke:none;fill-rule:nonzero;fill:rgb(39.99939%,39.99939%,39.99939%);fill-opacity:0.3;" d="M 201.808594 221.210938 L 207.875 222.136719 L 207.085938 226.675781 L 201.019531 225.75 Z M 201.808594 221.210938 "/>
<path style=" stroke:none;fill-rule:nonzero;fill:rgb(39.99939%,39.99939%,39.99939%);fill-opacity:0.3;" d="M 187.820312 258.078125 L 193.886719 259.003906 L 193.097656 263.546875 L 187.03125 262.617188 Z M 187.820312 258.078125 "/>
<path style=" stroke:none;fill-rule:nonzero;fill:rgb(39.99939%,39.99939%,39.99939%);fill-opacity:0.3;" d="M 195.957031 253.117188 L 202.023438 254.042969 L 201.234375 258.582031 L 195.167969 257.65625 Z M 195.957031 253.117188 "/>
<path style=" stroke:none;fill-rule:nonzero;fill:rgb(39.99939%,39.99939%,39.99939%);fill-opacity:0.3;" d="M 221.136719 265.179688 L 227.203125 266.105469 L 226.414062 270.648438 L 220.347656 269.722656 Z M 221.136719 265.179688 "/>
<path style=" stroke:none;fill-rule:nonzero;fill:rgb(39.99939%,39.99939%,39.99939%);fill-opacity:0.3;" d="M 143.9375 197.882812 L 150 198.8125 L 149.210938 203.351562 L 143.148438 202.425781 Z M 143.9375 197.882812 "/>
<path style=" stroke:none;fill-rule:nonzero;fill:rgb(39.99939%,39.99939%,39.99939%);fill-opacity:0.3;" d="M 152.898438 204.121094 L 156.839844 204.445312 L 156.714844 206.03125 L 158.105469 206.144531 L 158.230469 204.558594 L 162.183594 204.886719 L 161.566406 212.664062 L 157.613281 212.339844 L 157.738281 210.78125 L 156.34375 210.664062 L 156.222656 212.222656 L 155.402344 219.984375 L 151.464844 219.652344 L 151.628906 218.097656 L 150.234375 217.980469 L 149.332031 226.535156 L 145.382812 226.203125 L 145.519531 224.882812 L 144.210938 224.769531 L 144.070312 226.09375 L 140.460938 225.789062 L 141.199219 218.789062 L 144.8125 219.09375 L 144.648438 220.648438 L 145.957031 220.757812 L 146.9375 211.441406 L 150.890625 211.773438 L 150.722656 213.355469 L 152.117188 213.472656 L 152.28125 211.890625 Z M 152.898438 204.121094 "/>
<path style=" stroke:none;fill-rule:nonzero;fill:rgb(39.99939%,39.99939%,39.99939%);fill-opacity:0.3;" d="M 168.214844 193.621094 L 172.132812 194.222656 L 171.84375 195.785156 L 173.226562 195.996094 L 173.511719 194.433594 L 177.414062 195.03125 L 176.011719 202.71875 L 172.105469 202.117188 L 172.386719 200.578125 L 171.007812 200.367188 L 170.726562 201.90625 L 166.808594 201.304688 Z M 168.214844 193.621094 "/>
<path style=" stroke:none;fill-rule:nonzero;fill:rgb(39.99939%,39.99939%,39.99939%);fill-opacity:0.3;" d="M 153.417969 191.289062 L 157.332031 191.890625 L 157.046875 193.453125 L 158.425781 193.667969 L 158.710938 192.101562 L 162.617188 192.703125 L 161.210938 200.386719 L 157.308594 199.785156 L 157.589844 198.246094 L 156.210938 198.035156 L 155.925781 199.574219 L 152.011719 198.972656 Z M 153.417969 191.289062 "/>
<path style=" stroke:none;fill-rule:nonzero;fill:rgb(39.99939%,39.99939%,39.99939%);fill-opacity:0.3;" d="M 181.886719 263.613281 L 187.953125 264.539062 L 187.164062 269.078125 L 181.097656 268.152344 Z M 181.886719 263.613281 "/>
<path style=" stroke:none;fill-rule:nonzero;fill:rgb(39.99939%,39.99939%,39.99939%);fill-opacity:0.3;" d="M 176.910156 269.324219 L 182.976562 270.25 L 182.1875 274.792969 L 176.121094 273.867188 Z M 176.910156 269.324219 "/>
<path style=" stroke:none;fill-rule:nonzero;fill:rgb(39.99939%,39.99939%,39.99939%);fill-opacity:0.3;" d="M 245.554688 219.539062 L 249.492188 220.007812 L 249.265625 221.578125 L 250.652344 221.746094 L 250.878906 220.171875 L 254.804688 220.640625 L 253.6875 228.367188 L 249.761719 227.898438 L 249.984375 226.351562 L 248.597656 226.1875 L 247.367188 234.703125 L 243.433594 234.234375 L 243.621094 232.917969 L 242.320312 232.761719 L 242.128906 234.078125 L 238.53125 233.652344 L 239.539062 226.679688 L 243.136719 227.109375 L 242.910156 228.65625 L 244.214844 228.8125 Z M 245.554688 219.539062 "/>
<path style=" stroke:none;fill-rule:nonzero;fill:rgb(39.99939%,39.99939%,39.99939%);fill-opacity:0.3;" d="M 228.320312 219.628906 L 234.386719 220.554688 L 233.597656 225.09375 L 227.53125 224.167969 Z M 228.320312 219.628906 "/>
<path style=" stroke:none;fill-rule:nonzero;fill:rgb(39.99939%,39.99939%,39.99939%);fill-opacity:0.3;" d="M 220.417969 237.324219 L 226.484375 238.25 L 225.695312 242.789062 L 219.628906 241.863281 Z M 220.417969 237.324219 "/>
<path style=" stroke:none;fill-rule:nonzero;fill:rgb(39.99939%,39.99939%,39.99939%);fill-opacity:0.3;" d="M 226.585938 230.21875 L 232.652344 231.144531 L 231.863281 235.683594 L 225.796875 234.757812 Z M 226.585938 230.21875 "/>
<path style=" stroke:none;fill-rule:nonzero;fill:rgb(39.99939%,39.99939%,39.99939%);fill-opacity:0.3;" d="M 259.015625 247.632812 L 262.953125 248.101562 L 262.726562 249.675781 L 264.113281 249.84375 L 264.339844 248.269531 L 268.265625 248.734375 L 267.148438 256.464844 L 263.222656 255.996094 L 263.445312 254.449219 L 262.058594 254.28125 L 260.828125 262.800781 L 256.894531 262.332031 L 257.085938 261.015625 L 255.78125 260.859375 L 255.589844 262.175781 L 251.992188 261.75 L 253 254.777344 L 256.597656 255.207031 L 256.375 256.753906 L 257.675781 256.910156 Z M 259.015625 247.632812 "/>
<path style=" stroke:none;fill-rule:nonzero;fill:rgb(39.99939%,39.99939%,39.99939%);fill-opacity:0.3;" d="M 168.632812 245.96875 L 167.660156 255.308594 L 169.050781 255.453125 L 169.214844 253.871094 L 173.15625 254.285156 L 172.1875 263.601562 L 173.492188 263.738281 L 173.65625 262.183594 L 177.257812 262.558594 L 176.53125 269.5625 L 172.925781 269.183594 L 173.066406 267.859375 L 171.757812 267.722656 L 171.621094 269.046875 L 167.679688 268.636719 L 168.566406 260.078125 L 167.179688 259.933594 L 167.015625 261.488281 L 163.085938 261.078125 L 163.894531 253.316406 L 164.09375 251.765625 L 162.707031 251.617188 L 162.503906 253.167969 L 158.5625 252.75 L 159.570312 245.007812 L 163.511719 245.425781 L 163.308594 247.003906 L 164.695312 247.148438 L 164.902344 245.574219 Z M 168.632812 245.96875 "/>
<path style=" stroke:none;fill-rule:nonzero;fill:rgb(39.99939%,39.99939%,39.99939%);fill-opacity:0.3;" d="M 216.335938 204.394531 L 216.167969 204.796875 L 215.761719 205.742188 L 262.996094 215.148438 L 285.632812 220.101562 L 285.425781 224.167969 L 228.183594 244.4375 L 226.15625 245.136719 L 223.949219 244.789062 L 70.992188 225.453125 L 68.78125 224.40625 L 68.226562 222.136719 L 69.472656 213.703125 L 72.269531 204.332031 L 74.65625 193.332031 L 75.761719 187.785156 L 75.960938 187.171875 L 76.335938 174.800781 L 76.714844 172.382812 L 76.855469 171.460938 L 77.203125 170.121094 Z M 216.335938 204.394531 "/>
<path style=" stroke:none;fill-rule:nonzero;fill:rgb(39.99939%,39.99939%,39.99939%);fill-opacity:0.3;" d="M 57.621094 240.535156 L 53.855469 251.835938 L 51.429688 251.375 Z M 57.621094 240.535156 "/>
<path style=" stroke:none;fill-rule:nonzero;fill:rgb(39.99939%,39.99939%,39.99939%);fill-opacity:0.3;" d="M 306.828125 117.585938 L 306.480469 118.429688 L 304.957031 118.132812 L 304.925781 117.238281 Z M 306.828125 117.585938 "/>
<g clip-path="url(#clip1)" clip-rule="nonzero">
<path style=" stroke:none;fill-rule:nonzero;fill:rgb(39.99939%,39.99939%,39.99939%);fill-opacity:0.3;" d="M 362.351562 129.195312 L 362.296875 129.335938 L 336.648438 124.324219 L 336.714844 124.160156 Z M 362.351562 129.195312 "/>
</g>
<path style=" stroke:none;fill-rule:nonzero;fill:rgb(39.99939%,39.99939%,39.99939%);fill-opacity:0.3;" d="M 332.128906 123.226562 L 332.050781 123.425781 L 310.234375 119.164062 L 310.550781 118.382812 Z M 332.128906 123.226562 "/>
<g clip-path="url(#clip2)" clip-rule="nonzero">
<path style=" stroke:none;fill-rule:nonzero;fill:rgb(39.99939%,39.99939%,39.99939%);fill-opacity:0.3;" d="M 396.875 140.632812 L 405.613281 142.316406 L 427.800781 146.007812 L 438.660156 147.433594 L 473.738281 150.636719 L 527.820312 153.859375 L 504.8125 278.6875 L 466.058594 271.257812 L 465.800781 273.101562 L 465.554688 274.859375 L 504.558594 282.289062 L 498.753906 308.574219 L 457.972656 299.222656 L 457.699219 301.039062 L 457.46875 302.585938 L 497.992188 311.453125 L 491.167969 340.753906 L 488.132812 345.796875 L 485.347656 349.402344 L 474.253906 384.480469 L 474.230469 384.480469 L 323.960938 372.992188 L 323.507812 368.144531 L 321.320312 363.929688 L 319.125 353.402344 L 318.363281 336.230469 L 318.765625 328.527344 L 319.578125 325.828125 L 320.386719 323.132812 L 321.808594 320.144531 L 322.621094 317.835938 L 322.964844 316.417969 L 323.230469 315.328125 L 323.226562 312.730469 L 322.820312 309.839844 L 321.5 307.820312 L 320.074219 306.277344 L 318.753906 305.316406 L 316.519531 304.546875 L 311.746094 304.355469 L 311.425781 292.921875 L 311.351562 291.308594 L 310.710938 273.105469 L 310.632812 270.917969 L 309.988281 253.027344 L 309.921875 251.246094 L 309.378906 236.191406 L 309.320312 234.5625 L 308.730469 218.152344 L 308.617188 215.078125 L 308.023438 198.542969 L 307.914062 195.507812 L 307.316406 178.933594 L 307.25 177.109375 L 306.667969 161.027344 L 306.597656 159.023438 L 305.960938 141.410156 L 305.902344 139.796875 L 305.359375 124.734375 L 305.34375 123.9375 L 305.765625 123.269531 L 306.753906 122.597656 L 388.394531 139 L 390.964844 139.519531 Z M 396.875 140.632812 "/>
</g>
<path style=" stroke:none;fill-rule:nonzero;fill:rgb(39.99939%,39.99939%,39.99939%);fill-opacity:0.3;" d="M 306.4375 229.523438 L 306.480469 229.53125 L 306.660156 235.746094 Z M 306.4375 229.523438 "/>
<path style=" stroke:none;fill-rule:nonzero;fill:rgb(39.99939%,39.99939%,39.99939%);fill-opacity:0.3;" d="M 303.203125 67.285156 L 324.125 75.421875 L 306.828125 117.585938 L 304.925781 117.238281 Z M 303.203125 67.285156 "/>
<g clip-path="url(#clip3)" clip-rule="nonzero">
<path style=" stroke:none;fill-rule:nonzero;fill:rgb(39.99939%,39.99939%,39.99939%);fill-opacity:0.3;" d="M 351.53125 86.082031 L 375.632812 95.457031 L 362.351562 129.195312 L 336.714844 124.160156 Z M 351.53125 86.082031 "/>
</g>
<g clip-path="url(#clip4)" clip-rule="nonzero">
<path style=" stroke:none;fill-rule:nonzero;fill:rgb(39.99939%,39.99939%,39.99939%);fill-opacity:0.3;" d="M 367.25 49.902344 L 390.050781 63.039062 L 377.957031 91.105469 L 354.050781 81.710938 Z M 367.25 49.902344 "/>
</g>
<path style=" stroke:none;fill-rule:nonzero;fill:rgb(39.99939%,39.99939%,39.99939%);fill-opacity:0.3;" d="M 327.417969 76.703125 L 347.042969 84.335938 L 332.128906 123.226562 L 310.550781 118.382812 Z M 327.417969 76.703125 "/>
<g clip-path="url(#clip5)" clip-rule="nonzero">
<path style=" stroke:none;fill-rule:nonzero;fill:rgb(39.99939%,39.99939%,39.99939%);fill-opacity:0.3;" d="M 344.546875 36.867188 L 364.28125 48.191406 L 350.382812 80.378906 L 329.714844 72.308594 Z M 344.546875 36.867188 "/>
</g>
<path style=" stroke:none;fill-rule:nonzero;fill:rgb(39.99939%,39.99939%,39.99939%);fill-opacity:0.3;" d="M 317.804688 22.011719 L 341.234375 34.914062 L 326.8125 71.175781 L 302.058594 61.4375 Z M 317.804688 22.011719 "/>
<g clip-path="url(#clip6)" clip-rule="nonzero">
<path style=" stroke:none;fill-rule:nonzero;fill:rgb(39.99939%,39.99939%,39.99939%);fill-opacity:0.3;" d="M 302.363281 -28.464844 L 380.375 13.253906 L 367.664062 41.507812 L 300.121094 2.992188 Z M 302.363281 -28.464844 "/>
</g>
<path style=" stroke:none;fill-rule:nonzero;fill:rgb(39.99939%,39.99939%,39.99939%);fill-opacity:0.3;" d="M 126.007812 -2.101562 L 145.730469 5.617188 L 116.816406 76.707031 L 99.972656 72.855469 L 94.34375 71.324219 Z M 126.007812 -2.101562 "/>
<path style=" stroke:none;fill-rule:nonzero;fill:rgb(39.99939%,39.99939%,39.99939%);fill-opacity:0.3;" d="M 300.820312 12.167969 L 315.46875 20.144531 L 303.078125 46.753906 Z M 300.820312 12.167969 "/>
<path style=" stroke:none;fill-rule:nonzero;fill:rgb(39.99939%,39.99939%,39.99939%);fill-opacity:0.3;" d="M 227.148438 37.484375 L 250.746094 46.722656 L 227.644531 100.378906 L 202.164062 95.371094 Z M 227.148438 37.484375 "/>
<path style=" stroke:none;fill-rule:nonzero;fill:rgb(39.99939%,39.99939%,39.99939%);fill-opacity:0.3;" d="M 196.109375 25.335938 L 223.675781 36.125 L 197.972656 94.539062 L 168.476562 88.449219 Z M 196.109375 25.335938 "/>
<path style=" stroke:none;fill-rule:nonzero;fill:rgb(39.99939%,39.99939%,39.99939%);fill-opacity:0.3;" d="M 149.578125 7.121094 L 170.398438 15.269531 L 141.695312 83.011719 L 120.742188 77.671875 Z M 149.578125 7.121094 "/>
<path style=" stroke:none;fill-rule:nonzero;fill:rgb(39.99939%,39.99939%,39.99939%);fill-opacity:0.3;" d="M 173.984375 16.675781 L 191.984375 23.722656 L 164.636719 87.675781 L 145.84375 84.011719 Z M 173.984375 16.675781 "/>
<path style=" stroke:none;fill-rule:nonzero;fill:rgb(39.99939%,39.99939%,39.99939%);fill-opacity:0.3;" d="M 271.21875 54.734375 L 292.792969 63.179688 L 292.382812 68.480469 L 273.230469 110.371094 L 249.410156 105.078125 Z M 271.21875 54.734375 "/>
<path style=" stroke:none;fill-rule:nonzero;fill:rgb(39.99939%,39.99939%,39.99939%);fill-opacity:0.3;" d="M 275.371094 -1.691406 L 288.808594 5.625 L 269.714844 48.992188 L 255.894531 43.582031 Z M 275.371094 -1.691406 "/>
<path style=" stroke:none;fill-rule:nonzero;fill:rgb(39.99939%,39.99939%,39.99939%);fill-opacity:0.3;" d="M 253.984375 47.988281 L 268.023438 53.484375 L 246.425781 104.421875 L 231.113281 101.113281 Z M 253.984375 47.988281 "/>
<path style=" stroke:none;fill-rule:nonzero;fill:rgb(39.99939%,39.99939%,39.99939%);fill-opacity:0.3;" d="M 221.105469 -31.242188 L 246.65625 -17.328125 L 225.246094 31.585938 L 198.023438 20.929688 Z M 221.105469 -31.242188 "/>
<path style=" stroke:none;fill-rule:nonzero;fill:rgb(39.99939%,39.99939%,39.99939%);fill-opacity:0.3;" d="M 199.265625 -43.109375 L 217.335938 -33.296875 L 193.835938 19.292969 L 175.117188 11.964844 Z M 199.265625 -43.109375 "/>
<path style=" stroke:none;fill-rule:nonzero;fill:rgb(39.99939%,39.99939%,39.99939%);fill-opacity:0.3;" d="M 177.417969 -54.960938 L 196.820312 -44.433594 L 172.4375 10.914062 L 152.222656 3.003906 Z M 177.417969 -54.960938 "/>
<path style=" stroke:none;fill-rule:nonzero;fill:rgb(39.99939%,39.99939%,39.99939%);fill-opacity:0.3;" d="M 154.269531 -67.523438 L 173.890625 -56.875 L 148.214844 1.433594 L 128.46875 -6.292969 Z M 154.269531 -67.523438 "/>
<path style=" stroke:none;fill-rule:nonzero;fill:rgb(39.99939%,39.99939%,39.99939%);fill-opacity:0.3;" d="M 250.125 -15.441406 L 272.5625 -3.21875 L 252.644531 42.308594 L 229.074219 33.082031 Z M 250.125 -15.441406 "/>
<path style=" stroke:none;fill-rule:nonzero;fill:rgb(39.99939%,39.99939%,39.99939%);fill-opacity:0.3;" d="M 10.828125 -164.488281 L 92.640625 -106.507812 L 24.097656 55.34375 L -25.824219 43.625 L -59.984375 41.726562 L -67.464844 40.164062 Z M 10.828125 -164.488281 "/>
<path style=" stroke:none;fill-rule:nonzero;fill:rgb(39.99939%,39.99939%,39.99939%);fill-opacity:0.3;" d="M 96.785156 -103.074219 L 127.691406 -81.945312 L 100.886719 -16.210938 L 93.5625 -19.347656 L 92.140625 -16.105469 L 99.078125 -13.25 L 89.144531 9.480469 L 90.957031 10.085938 L 92.773438 10.691406 L 102.375 -11.351562 L 121.96875 -3.683594 L 90.335938 70.40625 L 27.609375 56.148438 Z M 96.785156 -103.074219 "/>
<path style=" stroke:none;fill-rule:nonzero;fill:rgb(39.99939%,39.99939%,39.99939%);fill-opacity:0.3;" d="M 297.273438 64.976562 L 298.828125 65.582031 L 300.382812 114.269531 L 300.105469 115.539062 L 299.570312 116.171875 L 277.597656 111.339844 Z M 297.273438 64.976562 "/>
<path style=" stroke:none;fill-rule:nonzero;fill:rgb(39.99939%,39.99939%,39.99939%);fill-opacity:0.3;" d="M 291.328125 7 L 297.953125 10.609375 L 298.824219 60.390625 L 273.753906 50.574219 Z M 291.328125 7 "/>
<g clip-path="url(#clip7)" clip-rule="nonzero">
<path style=" stroke:none;fill-rule:nonzero;fill:rgb(39.99939%,39.99939%,39.99939%);fill-opacity:0.3;" d="M 166.464844 350.835938 L 261.054688 380.566406 L 263.324219 382 L 264.652344 383.972656 L 265.785156 385.585938 L 265.597656 388.816406 L 217.980469 547.796875 L 201.945312 542.484375 L 158.957031 526.980469 L 155.300781 525.933594 L 137.554688 520.195312 L 118.230469 513.753906 Z M 166.464844 350.835938 "/>
</g>
<path style=" stroke:none;fill-rule:nonzero;fill:rgb(39.99939%,39.99939%,39.99939%);fill-opacity:0.3;" d="M 116.816406 76.707031 L 115.886719 78.988281 L 93.144531 74.109375 L 94.34375 71.324219 L 99.972656 72.855469 Z M 116.816406 76.707031 "/>
<path style=" stroke:none;fill-rule:nonzero;fill:rgb(39.99939%,39.99939%,39.99939%);fill-opacity:0.3;" d="M 227.644531 100.378906 L 226.722656 102.523438 L 201.328125 97.308594 L 202.164062 95.371094 Z M 227.644531 100.378906 "/>
<path style=" stroke:none;fill-rule:nonzero;fill:rgb(39.99939%,39.99939%,39.99939%);fill-opacity:0.3;" d="M 197.972656 94.539062 L 197.148438 96.410156 L 167.75 90.105469 L 168.476562 88.449219 Z M 197.972656 94.539062 "/>
<path style=" stroke:none;fill-rule:nonzero;fill:rgb(39.99939%,39.99939%,39.99939%);fill-opacity:0.3;" d="M 141.695312 83.011719 L 141.109375 84.394531 L 119.855469 79.835938 L 120.742188 77.671875 Z M 141.695312 83.011719 "/>
<path style=" stroke:none;fill-rule:nonzero;fill:rgb(39.99939%,39.99939%,39.99939%);fill-opacity:0.3;" d="M 164.636719 87.675781 L 163.945312 89.289062 L 145.308594 85.292969 L 145.84375 84.011719 Z M 164.636719 87.675781 "/>
<path style=" stroke:none;fill-rule:nonzero;fill:rgb(39.99939%,39.99939%,39.99939%);fill-opacity:0.3;" d="M 273.230469 110.371094 L 272.25 112.515625 L 248.402344 107.402344 L 249.410156 105.078125 Z M 273.230469 110.371094 "/>
<path style=" stroke:none;fill-rule:nonzero;fill:rgb(39.99939%,39.99939%,39.99939%);fill-opacity:0.3;" d="M 246.425781 104.421875 L 245.433594 106.765625 L 230.097656 103.476562 L 231.113281 101.113281 Z M 246.425781 104.421875 "/>
<path style=" stroke:none;fill-rule:nonzero;fill:rgb(39.99939%,39.99939%,39.99939%);fill-opacity:0.3;" d="M 24.097656 55.34375 L 22.558594 58.976562 L -59.984375 41.726562 L -25.824219 43.625 Z M 24.097656 55.34375 "/>
<path style=" stroke:none;fill-rule:nonzero;fill:rgb(39.99939%,39.99939%,39.99939%);fill-opacity:0.3;" d="M 90.335938 70.40625 L 89.125 73.246094 L 26.054688 59.722656 L 27.609375 56.148438 Z M 90.335938 70.40625 "/>
<g clip-path="url(#clip8)" clip-rule="nonzero">
<path style=" stroke:none;fill-rule:nonzero;fill:rgb(39.99939%,39.99939%,39.99939%);fill-opacity:0.3;" d="M 305.714844 370.113281 L 305.351562 370.78125 L 304.9375 371.453125 L 304.484375 372.101562 L 304 372.726562 L 303.480469 373.328125 L 302.929688 373.902344 L 302.347656 374.445312 L 301.734375 374.960938 L 301.09375 375.445312 L 300.429688 375.898438 L 299.742188 376.316406 L 299.03125 376.703125 L 298.296875 377.050781 L 297.546875 377.359375 L 296.78125 377.632812 L 296.003906 377.871094 L 295.210938 378.066406 L 294.410156 378.222656 L 293.597656 378.339844 L 292.785156 378.414062 L 291.96875 378.449219 L 291.148438 378.445312 L 289.160156 378.445312 L 41.566406 300.894531 L 57.613281 252.550781 L 95.273438 259.726562 L 308.324219 308.570312 L 306.527344 364.023438 L 306.707031 366.425781 L 306.347656 368.226562 Z M 305.714844 370.113281 "/>
</g>
<path style=" stroke:none;fill-rule:nonzero;fill:rgb(39.99939%,39.99939%,39.99939%);fill-opacity:0.3;" d="M 183.65625 195.738281 L 187.570312 196.339844 L 187.402344 197.265625 L 183.550781 196.316406 Z M 183.65625 195.738281 "/>
<path style=" stroke:none;fill-rule:nonzero;fill:rgb(39.99939%,39.99939%,39.99939%);fill-opacity:0.3;" d="M 188.757812 197.601562 L 188.949219 196.550781 L 192.855469 197.152344 L 192.597656 198.546875 Z M 188.757812 197.601562 "/>
<path style=" stroke:none;fill-rule:evenodd;fill:rgb(39.99939%,39.99939%,39.99939%);fill-opacity:0.3;" d="M 96.894531 94.011719 L 99.007812 87.492188 L 100.769531 84.648438 L 103.058594 82.976562 L 105.527344 81.636719 L 108.875 81.46875 L 296.453125 119.925781 L 299.417969 120.863281 L 300.828125 121.933594 L 301.535156 123.136719 L 301.957031 126.613281 L 305.125 206.617188 L 305.683594 220.769531 L 216.570312 203.851562 L 216.335938 204.394531 L 77.203125 170.121094 Z M 262.996094 215.148438 L 285.65625 219.664062 L 285.632812 220.101562 Z M 262.996094 215.148438 "/>
<path style=" stroke:none;fill-rule:nonzero;fill:rgb(39.99939%,39.99939%,39.99939%);fill-opacity:0.3;" d="M 75.761719 187.785156 L 75.941406 186.875 L 76.304688 175.003906 L 76.335938 174.800781 L 75.960938 187.171875 Z M 75.761719 187.785156 "/>
<path style=" stroke:none;fill-rule:nonzero;fill:rgb(39.99939%,39.99939%,39.99939%);fill-opacity:0.3;" d="M 299.570312 116.171875 L 299.4375 116.332031 L 298.765625 116.914062 L 297.203125 117.285156 L 276.695312 113.46875 L 277.597656 111.339844 Z M 299.570312 116.171875 "/>
<path style=" stroke:none;fill-rule:nonzero;fill:rgb(39.99939%,39.99939%,39.99939%);fill-opacity:0.3;" d="M -124.738281 212.324219 L -36.238281 240.691406 L 26.941406 259.714844 L 27.605469 257.734375 L 33.433594 240.378906 L 34.21875 238.046875 L -32.015625 220.316406 L -123.589844 191.136719 L -101.480469 130.652344 L 73.296875 173.113281 L 73.761719 176.925781 L 70.597656 195.894531 L 67.824219 209.917969 L 57.621094 240.535156 L 51.429688 251.375 L 53.855469 251.835938 L 38.035156 299.320312 L -70.175781 264.910156 L -90.949219 254.875 L -102.601562 246.671875 L -104.726562 245.101562 L -106.972656 243.265625 L -109.113281 241.316406 L -111.148438 239.265625 L -113.0625 237.113281 L -114.859375 234.871094 L -116.527344 232.542969 L -118.066406 230.136719 L -119.46875 227.65625 L -120.734375 225.109375 L -121.855469 222.5 L -122.835938 219.84375 L -123.664062 217.136719 L -124.34375 214.398438 Z M -124.738281 212.324219 "/>
<path style=" stroke:none;fill-rule:nonzero;fill:rgb(39.99939%,39.99939%,39.99939%);fill-opacity:0.3;" d="M -33.390625 223.464844 L 28.941406 242.429688 L 24.859375 254.359375 L -36.972656 235.378906 Z M -33.390625 223.464844 "/>
<path style=" stroke:none;fill-rule:nonzero;fill:rgb(39.99939%,39.99939%,39.99939%);fill-opacity:0.3;" d="M 72.675781 169.496094 L -99.328125 126.253906 L -69.03125 45.089844 L -66.417969 43.960938 L 96.136719 77.976562 Z M 72.675781 169.496094 "/>
<path style="fill-rule:nonzero;fill:rgb(39.99939%,39.99939%,39.99939%);fill-opacity:1;stroke-width:0.03;stroke-linecap:square;stroke-linejoin:miter;stroke:rgb(39.99939%,39.99939%,39.99939%);stroke-opacity:1;stroke-miterlimit:3.239307;" d="M 347.398438 298.917969 L 364.746094 300.351562 L 364.199219 306.316406 L 346.851562 304.886719 Z M 347.398438 298.917969 " transform="matrix(1,0,0,1,-74,-13)"/>
<path style="fill-rule:nonzero;fill:rgb(39.99939%,39.99939%,39.99939%);fill-opacity:1;stroke-width:0.03;stroke-linecap:square;stroke-linejoin:miter;stroke:rgb(39.99939%,39.99939%,39.99939%);stroke-opacity:1;stroke-miterlimit:3.239307;" d="M 348.867188 272.121094 L 355.589844 272.757812 L 354.976562 278.605469 L 348.253906 277.96875 Z M 348.867188 272.121094 " transform="matrix(1,0,0,1,-74,-13)"/>
<path style="fill-rule:nonzero;fill:rgb(39.99939%,39.99939%,39.99939%);fill-opacity:1;stroke-width:0.03;stroke-linecap:square;stroke-linejoin:miter;stroke:rgb(39.99939%,39.99939%,39.99939%);stroke-opacity:1;stroke-miterlimit:3.239307;" d="M 232.492188 280.074219 L 238.558594 281.003906 L 237.769531 285.542969 L 231.703125 284.617188 Z M 232.492188 280.074219 " transform="matrix(1,0,0,1,-74,-13)"/>
<path style="fill-rule:nonzero;fill:rgb(39.99939%,39.99939%,39.99939%);fill-opacity:1;stroke-width:0.03;stroke-linecap:square;stroke-linejoin:miter;stroke:rgb(39.99939%,39.99939%,39.99939%);stroke-opacity:1;stroke-miterlimit:3.239307;" d="M 185.558594 198.222656 L 189.496094 198.691406 L 189.265625 200.265625 L 190.652344 200.429688 L 190.882812 198.855469 L 194.804688 199.324219 L 193.6875 207.050781 L 189.765625 206.582031 L 189.988281 205.035156 L 188.601562 204.871094 L 187.371094 213.390625 L 183.433594 212.917969 L 183.625 211.601562 L 182.320312 211.445312 L 182.132812 212.765625 L 178.535156 212.335938 L 179.542969 205.367188 L 183.136719 205.792969 L 182.914062 207.339844 L 184.21875 207.496094 Z M 185.558594 198.222656 " transform="matrix(1,0,0,1,-74,-13)"/>
<path style="fill-rule:nonzero;fill:rgb(39.99939%,39.99939%,39.99939%);fill-opacity:1;stroke-width:0.03;stroke-linecap:square;stroke-linejoin:miter;stroke:rgb(39.99939%,39.99939%,39.99939%);stroke-opacity:1;stroke-miterlimit:3.239307;" d="M 227.953125 272.707031 L 234.019531 273.632812 L 233.230469 278.171875 L 227.164062 277.246094 Z M 227.953125 272.707031 " transform="matrix(1,0,0,1,-74,-13)"/>
<path style="fill-rule:nonzero;fill:rgb(39.99939%,39.99939%,39.99939%);fill-opacity:1;stroke-width:0.03;stroke-linecap:square;stroke-linejoin:miter;stroke:rgb(39.99939%,39.99939%,39.99939%);stroke-opacity:1;stroke-miterlimit:3.239307;" d="M 172.738281 216.792969 L 178.804688 217.722656 L 178.015625 222.261719 L 171.949219 221.335938 Z M 172.738281 216.792969 " transform="matrix(1,0,0,1,-74,-13)"/>
<path style="fill-rule:nonzero;fill:rgb(39.99939%,39.99939%,39.99939%);fill-opacity:1;stroke-width:0.03;stroke-linecap:square;stroke-linejoin:miter;stroke:rgb(39.99939%,39.99939%,39.99939%);stroke-opacity:1;stroke-miterlimit:3.239307;" d="M 177.484375 224.390625 L 183.550781 225.316406 L 182.761719 229.859375 L 176.695312 228.929688 Z M 177.484375 224.390625 " transform="matrix(1,0,0,1,-74,-13)"/>
<path style="fill-rule:nonzero;fill:rgb(39.99939%,39.99939%,39.99939%);fill-opacity:1;stroke-width:0.03;stroke-linecap:square;stroke-linejoin:miter;stroke:rgb(39.99939%,39.99939%,39.99939%);stroke-opacity:1;stroke-miterlimit:3.239307;" d="M 181.425781 232.109375 L 187.492188 233.039062 L 186.703125 237.578125 L 180.636719 236.652344 Z M 181.425781 232.109375 " transform="matrix(1,0,0,1,-74,-13)"/>
<path style="fill-rule:nonzero;fill:rgb(39.99939%,39.99939%,39.99939%);fill-opacity:1;stroke-width:0.03;stroke-linecap:square;stroke-linejoin:miter;stroke:rgb(39.99939%,39.99939%,39.99939%);stroke-opacity:1;stroke-miterlimit:3.239307;" d="M 211.734375 216.535156 L 217.800781 217.460938 L 217.011719 222 L 210.945312 221.074219 Z M 211.734375 216.535156 " transform="matrix(1,0,0,1,-74,-13)"/>
<path style="fill-rule:nonzero;fill:rgb(39.99939%,39.99939%,39.99939%);fill-opacity:1;stroke-width:0.03;stroke-linecap:square;stroke-linejoin:miter;stroke:rgb(39.99939%,39.99939%,39.99939%);stroke-opacity:1;stroke-miterlimit:3.239307;" d="M 204.800781 200.898438 L 208.738281 201.222656 L 208.613281 202.804688 L 210.007812 202.921875 L 210.132812 201.335938 L 214.085938 201.664062 L 213.464844 209.441406 L 209.515625 209.113281 L 209.636719 207.554688 L 208.246094 207.441406 L 208.121094 209 L 207.304688 216.761719 L 203.363281 216.429688 L 203.527344 214.875 L 202.136719 214.757812 L 201.234375 223.3125 L 197.28125 222.980469 L 197.421875 221.65625 L 196.113281 221.546875 L 195.972656 222.871094 L 192.363281 222.566406 L 193.101562 215.566406 L 196.710938 215.871094 L 196.546875 217.421875 L 197.855469 217.535156 L 198.839844 208.21875 L 202.789062 208.550781 L 202.625 210.132812 L 204.015625 210.25 L 204.183594 208.667969 Z M 204.800781 200.898438 " transform="matrix(1,0,0,1,-74,-13)"/>
<path style="fill-rule:nonzero;fill:rgb(39.99939%,39.99939%,39.99939%);fill-opacity:1;stroke-width:0.03;stroke-linecap:square;stroke-linejoin:miter;stroke:rgb(39.99939%,39.99939%,39.99939%);stroke-opacity:1;stroke-miterlimit:3.239307;" d="M 161.050781 252.304688 L 167.117188 253.230469 L 166.328125 257.773438 L 160.261719 256.847656 Z M 161.050781 252.304688 " transform="matrix(1,0,0,1,-74,-13)"/>
<path style="fill-rule:nonzero;fill:rgb(39.99939%,39.99939%,39.99939%);fill-opacity:1;stroke-width:0.03;stroke-linecap:square;stroke-linejoin:miter;stroke:rgb(39.99939%,39.99939%,39.99939%);stroke-opacity:1;stroke-miterlimit:3.239307;" d="M 163.941406 259.464844 L 170.003906 260.390625 L 169.214844 264.933594 L 163.152344 264.007812 Z M 163.941406 259.464844 " transform="matrix(1,0,0,1,-74,-13)"/>
<path style="fill-rule:nonzero;fill:rgb(39.99939%,39.99939%,39.99939%);fill-opacity:1;stroke-width:0.03;stroke-linecap:square;stroke-linejoin:miter;stroke:rgb(39.99939%,39.99939%,39.99939%);stroke-opacity:1;stroke-miterlimit:3.239307;" d="M 205 223.160156 L 211.066406 224.085938 L 210.277344 228.625 L 204.210938 227.699219 Z M 205 223.160156 " transform="matrix(1,0,0,1,-74,-13)"/>
<path style="fill-rule:nonzero;fill:rgb(39.99939%,39.99939%,39.99939%);fill-opacity:1;stroke-width:0.03;stroke-linecap:square;stroke-linejoin:miter;stroke:rgb(39.99939%,39.99939%,39.99939%);stroke-opacity:1;stroke-miterlimit:3.239307;" d="M 194.875 261.011719 L 200.9375 261.941406 L 200.148438 266.480469 L 194.085938 265.554688 Z M 194.875 261.011719 " transform="matrix(1,0,0,1,-74,-13)"/>
<path style="fill-rule:nonzero;fill:rgb(39.99939%,39.99939%,39.99939%);fill-opacity:1;stroke-width:0.03;stroke-linecap:square;stroke-linejoin:miter;stroke:rgb(39.99939%,39.99939%,39.99939%);stroke-opacity:1;stroke-miterlimit:3.239307;" d="M 188.398438 267.035156 L 194.464844 267.960938 L 193.675781 272.503906 L 187.609375 271.578125 Z M 188.398438 267.035156 " transform="matrix(1,0,0,1,-74,-13)"/>
<path style="fill-rule:nonzero;fill:rgb(39.99939%,39.99939%,39.99939%);fill-opacity:1;stroke-width:0.03;stroke-linecap:square;stroke-linejoin:miter;stroke:rgb(39.99939%,39.99939%,39.99939%);stroke-opacity:1;stroke-miterlimit:3.239307;" d="M 180.753906 250.664062 L 178.984375 259.871094 L 180.277344 260.109375 L 180.570312 258.574219 L 184.128906 259.230469 L 182.800781 266.152344 L 179.242188 265.496094 L 179.492188 264.1875 L 178.203125 263.949219 L 177.953125 265.257812 L 174.058594 264.539062 L 175.683594 256.082031 L 174.308594 255.828125 L 174.015625 257.367188 L 170.132812 256.652344 L 171.605469 248.976562 L 175.488281 249.691406 L 175.1875 251.253906 L 176.558594 251.507812 L 176.859375 249.945312 Z M 180.753906 250.664062 " transform="matrix(1,0,0,1,-74,-13)"/>
<path style="fill-rule:nonzero;fill:rgb(39.99939%,39.99939%,39.99939%);fill-opacity:1;stroke-width:0.03;stroke-linecap:square;stroke-linejoin:miter;stroke:rgb(39.99939%,39.99939%,39.99939%);stroke-opacity:1;stroke-miterlimit:3.239307;" d="M 223.671875 265.214844 L 229.738281 266.140625 L 228.949219 270.679688 L 222.882812 269.753906 Z M 223.671875 265.214844 " transform="matrix(1,0,0,1,-74,-13)"/>
<path style="fill-rule:nonzero;fill:rgb(39.99939%,39.99939%,39.99939%);fill-opacity:1;stroke-width:0.03;stroke-linecap:square;stroke-linejoin:miter;stroke:rgb(39.99939%,39.99939%,39.99939%);stroke-opacity:1;stroke-miterlimit:3.239307;" d="M 147.523438 245.5 L 151.441406 246.101562 L 151.152344 247.667969 L 152.535156 247.878906 L 152.820312 246.3125 L 156.722656 246.914062 L 155.320312 254.597656 L 151.414062 254 L 151.695312 252.460938 L 150.316406 252.246094 L 150.035156 253.789062 L 146.117188 253.1875 Z M 147.523438 245.5 " transform="matrix(1,0,0,1,-74,-13)"/>
<path style="fill-rule:nonzero;fill:rgb(39.99939%,39.99939%,39.99939%);fill-opacity:1;stroke-width:0.03;stroke-linecap:square;stroke-linejoin:miter;stroke:rgb(39.99939%,39.99939%,39.99939%);stroke-opacity:1;stroke-miterlimit:3.239307;" d="M 210.78125 261.125 L 214.71875 261.59375 L 214.492188 263.167969 L 215.878906 263.332031 L 216.105469 261.761719 L 220.03125 262.226562 L 218.914062 269.957031 L 214.988281 269.488281 L 215.210938 267.941406 L 213.824219 267.773438 L 212.59375 276.292969 L 208.660156 275.824219 L 208.851562 274.507812 L 207.546875 274.351562 L 207.355469 275.667969 L 203.757812 275.238281 L 204.765625 268.269531 L 208.363281 268.699219 L 208.140625 270.246094 L 209.441406 270.398438 Z M 210.78125 261.125 " transform="matrix(1,0,0,1,-74,-13)"/>
<path style="fill-rule:nonzero;fill:rgb(39.99939%,39.99939%,39.99939%);fill-opacity:1;stroke-width:0.03;stroke-linecap:square;stroke-linejoin:miter;stroke:rgb(39.99939%,39.99939%,39.99939%);stroke-opacity:1;stroke-miterlimit:3.239307;" d="M 279.921875 270.050781 L 283.859375 270.375 L 283.734375 271.960938 L 285.125 272.074219 L 285.253906 270.492188 L 289.203125 270.816406 L 288.585938 278.59375 L 284.632812 278.269531 L 284.757812 276.710938 L 283.367188 276.597656 L 283.242188 278.15625 L 282.421875 285.914062 L 278.484375 285.585938 L 278.648438 284.03125 L 277.253906 283.914062 L 276.351562 292.46875 L 272.402344 292.136719 L 272.542969 290.8125 L 271.230469 290.703125 L 271.09375 292.023438 L 267.480469 291.722656 L 268.21875 284.722656 L 271.832031 285.023438 L 271.667969 286.578125 L 272.976562 286.6875 L 273.960938 277.375 L 277.910156 277.707031 L 277.742188 279.285156 L 279.136719 279.402344 L 279.304688 277.824219 Z M 279.921875 270.050781 " transform="matrix(1,0,0,1,-74,-13)"/>
<path style="fill-rule:nonzero;fill:rgb(39.99939%,39.99939%,39.99939%);fill-opacity:1;stroke-width:0.03;stroke-linecap:square;stroke-linejoin:miter;stroke:rgb(39.99939%,39.99939%,39.99939%);stroke-opacity:1;stroke-miterlimit:3.239307;" d="M 300.160156 285.480469 L 306.226562 286.40625 L 305.4375 290.945312 L 299.371094 290.019531 Z M 300.160156 285.480469 " transform="matrix(1,0,0,1,-74,-13)"/>
<path style="fill-rule:nonzero;fill:rgb(39.99939%,39.99939%,39.99939%);fill-opacity:1;stroke-width:0.03;stroke-linecap:square;stroke-linejoin:miter;stroke:rgb(39.99939%,39.99939%,39.99939%);stroke-opacity:1;stroke-miterlimit:3.239307;" d="M 131.613281 265.550781 L 134.824219 255.871094 L 139.777344 240.949219 L 277.582031 259.011719 L 276.625 267.730469 L 324.851562 273.089844 L 324.945312 271.042969 L 325.035156 268.996094 L 281 264.171875 L 281.414062 260.617188 L 300.585938 262.585938 L 365.601562 238.929688 L 380.4375 242.523438 L 380.660156 248.746094 L 382.460938 310.242188 L 382.570312 313.976562 L 382.324219 321.570312 L 169.273438 272.726562 Z M 131.613281 265.550781 " transform="matrix(1,0,0,1,-74,-13)"/>
<path style="fill-rule:nonzero;fill:rgb(39.99939%,39.99939%,39.99939%);fill-opacity:1;stroke-width:0.03;stroke-linecap:square;stroke-linejoin:miter;stroke:rgb(39.99939%,39.99939%,39.99939%);stroke-opacity:1;stroke-miterlimit:3.239307;" d="M 316.460938 276.238281 L 315.488281 285.574219 L 316.878906 285.722656 L 317.042969 284.140625 L 320.984375 284.554688 L 320.015625 293.871094 L 321.324219 294.007812 L 321.484375 292.453125 L 325.089844 292.828125 L 324.359375 299.832031 L 320.757812 299.453125 L 320.894531 298.128906 L 319.589844 297.992188 L 319.449219 299.316406 L 315.507812 298.90625 L 316.398438 290.347656 L 315.007812 290.203125 L 314.847656 291.757812 L 310.914062 291.347656 L 311.722656 283.585938 L 311.925781 282.035156 L 310.535156 281.886719 L 310.335938 283.4375 L 306.390625 283.015625 L 307.398438 275.277344 L 311.34375 275.695312 L 311.136719 277.273438 L 312.527344 277.417969 L 312.730469 275.84375 Z M 316.460938 276.238281 " transform="matrix(1,0,0,1,-74,-13)"/>
<path style="fill-rule:nonzero;fill:rgb(39.99939%,39.99939%,39.99939%);fill-opacity:1;stroke-width:0.03;stroke-linecap:square;stroke-linejoin:miter;stroke:rgb(39.99939%,39.99939%,39.99939%);stroke-opacity:1;stroke-miterlimit:3.239307;" d="M 304.351562 292.9375 L 310.414062 293.863281 L 309.625 298.40625 L 303.558594 297.476562 Z M 304.351562 292.9375 " transform="matrix(1,0,0,1,-74,-13)"/>
<path style="fill-rule:nonzero;fill:rgb(39.99939%,39.99939%,39.99939%);fill-opacity:1;stroke-width:0.03;stroke-linecap:square;stroke-linejoin:miter;stroke:rgb(39.99939%,39.99939%,39.99939%);stroke-opacity:1;stroke-miterlimit:3.239307;" d="M 329.621094 285.46875 L 335.6875 286.394531 L 334.898438 290.933594 L 328.832031 290.007812 Z M 329.621094 285.46875 " transform="matrix(1,0,0,1,-74,-13)"/>
<path style="fill-rule:nonzero;fill:rgb(39.99939%,39.99939%,39.99939%);fill-opacity:1;stroke-width:0.03;stroke-linecap:square;stroke-linejoin:miter;stroke:rgb(39.99939%,39.99939%,39.99939%);stroke-opacity:1;stroke-miterlimit:3.239307;" d="M 331.671875 296.238281 L 337.738281 297.167969 L 336.945312 301.707031 L 330.882812 300.78125 Z M 331.671875 296.238281 " transform="matrix(1,0,0,1,-74,-13)"/>
<path style="fill-rule:nonzero;fill:rgb(39.99939%,39.99939%,39.99939%);fill-opacity:1;stroke-width:0.03;stroke-linecap:square;stroke-linejoin:miter;stroke:rgb(39.99939%,39.99939%,39.99939%);stroke-opacity:1;stroke-miterlimit:3.239307;" d="M 334.375 280.105469 L 340.441406 281.03125 L 339.652344 285.574219 L 333.585938 284.644531 Z M 334.375 280.105469 " transform="matrix(1,0,0,1,-74,-13)"/>
<path style="fill-rule:nonzero;fill:rgb(39.99939%,39.99939%,39.99939%);fill-opacity:1;stroke-width:0.03;stroke-linecap:square;stroke-linejoin:miter;stroke:rgb(39.99939%,39.99939%,39.99939%);stroke-opacity:1;stroke-miterlimit:3.239307;" d="M 257.867188 222.613281 L 256.894531 231.949219 L 258.285156 232.097656 L 258.449219 230.515625 L 262.390625 230.929688 L 261.421875 240.242188 L 262.730469 240.378906 L 262.890625 238.828125 L 266.496094 239.203125 L 265.765625 246.207031 L 262.164062 245.828125 L 262.300781 244.503906 L 260.992188 244.367188 L 260.855469 245.691406 L 256.914062 245.28125 L 257.804688 236.722656 L 256.414062 236.578125 L 256.253906 238.132812 L 252.320312 237.722656 L 253.128906 229.960938 L 253.332031 228.40625 L 251.941406 228.261719 L 251.738281 229.8125 L 247.796875 229.390625 L 248.804688 221.652344 L 252.746094 222.070312 L 252.542969 223.644531 L 253.929688 223.792969 L 254.136719 222.21875 Z M 257.867188 222.613281 " transform="matrix(1,0,0,1,-74,-13)"/>
<path style="fill-rule:nonzero;fill:rgb(39.99939%,39.99939%,39.99939%);fill-opacity:1;stroke-width:0.03;stroke-linecap:square;stroke-linejoin:miter;stroke:rgb(39.99939%,39.99939%,39.99939%);stroke-opacity:1;stroke-miterlimit:3.239307;" d="M 274.769531 214.417969 L 280.835938 215.34375 L 280.046875 219.886719 L 273.980469 218.957031 Z M 274.769531 214.417969 " transform="matrix(1,0,0,1,-74,-13)"/>
<path style="fill-rule:nonzero;fill:rgb(39.99939%,39.99939%,39.99939%);fill-opacity:1;stroke-width:0.03;stroke-linecap:square;stroke-linejoin:miter;stroke:rgb(39.99939%,39.99939%,39.99939%);stroke-opacity:1;stroke-miterlimit:3.239307;" d="M 261.402344 210.265625 L 261.285156 210.90625 L 262.664062 211.117188 L 262.757812 210.601562 L 266.597656 211.546875 L 265.449219 217.835938 L 261.546875 217.238281 L 261.828125 215.699219 L 260.445312 215.484375 L 260.164062 217.027344 L 256.25 216.425781 L 257.550781 209.316406 Z M 261.402344 210.265625 " transform="matrix(1,0,0,1,-74,-13)"/>
<path style="fill-rule:nonzero;fill:rgb(39.99939%,39.99939%,39.99939%);fill-opacity:1;stroke-width:0.03;stroke-linecap:square;stroke-linejoin:miter;stroke:rgb(39.99939%,39.99939%,39.99939%);stroke-opacity:1;stroke-miterlimit:3.239307;" d="M 266.503906 219.359375 L 272.570312 220.289062 L 271.78125 224.828125 L 265.714844 223.902344 Z M 266.503906 219.359375 " transform="matrix(1,0,0,1,-74,-13)"/>
<path style="fill-rule:nonzero;fill:rgb(39.99939%,39.99939%,39.99939%);fill-opacity:1;stroke-width:0.03;stroke-linecap:square;stroke-linejoin:miter;stroke:rgb(39.99939%,39.99939%,39.99939%);stroke-opacity:1;stroke-miterlimit:3.239307;" d="M 270.820312 227.035156 L 276.886719 227.960938 L 276.097656 232.503906 L 270.03125 231.578125 Z M 270.820312 227.035156 " transform="matrix(1,0,0,1,-74,-13)"/>
<path style="fill-rule:nonzero;fill:rgb(39.99939%,39.99939%,39.99939%);fill-opacity:1;stroke-width:0.03;stroke-linecap:square;stroke-linejoin:miter;stroke:rgb(39.99939%,39.99939%,39.99939%);stroke-opacity:1;stroke-miterlimit:3.239307;" d="M 293.578125 226.804688 L 291.808594 236.015625 L 293.097656 236.253906 L 293.394531 234.71875 L 296.953125 235.375 L 295.621094 242.292969 L 292.0625 241.640625 L 292.316406 240.332031 L 291.023438 240.09375 L 290.773438 241.402344 L 286.878906 240.683594 L 288.503906 232.226562 L 287.132812 231.972656 L 286.835938 233.511719 L 282.953125 232.796875 L 284.429688 225.121094 L 288.308594 225.835938 L 288.011719 227.398438 L 289.382812 227.652344 L 289.683594 226.089844 Z M 293.578125 226.804688 " transform="matrix(1,0,0,1,-74,-13)"/>
<path style="fill-rule:nonzero;fill:rgb(39.99939%,39.99939%,39.99939%);fill-opacity:1;stroke-width:0.03;stroke-linecap:square;stroke-linejoin:miter;stroke:rgb(39.99939%,39.99939%,39.99939%);stroke-opacity:1;stroke-miterlimit:3.239307;" d="M 275.808594 234.210938 L 281.875 235.136719 L 281.085938 239.675781 L 275.019531 238.75 Z M 275.808594 234.210938 " transform="matrix(1,0,0,1,-74,-13)"/>
<path style="fill-rule:nonzero;fill:rgb(39.99939%,39.99939%,39.99939%);fill-opacity:1;stroke-width:0.03;stroke-linecap:square;stroke-linejoin:miter;stroke:rgb(39.99939%,39.99939%,39.99939%);stroke-opacity:1;stroke-miterlimit:3.239307;" d="M 261.820312 271.078125 L 267.886719 272.003906 L 267.097656 276.546875 L 261.03125 275.617188 Z M 261.820312 271.078125 " transform="matrix(1,0,0,1,-74,-13)"/>
<path style="fill-rule:nonzero;fill:rgb(39.99939%,39.99939%,39.99939%);fill-opacity:1;stroke-width:0.03;stroke-linecap:square;stroke-linejoin:miter;stroke:rgb(39.99939%,39.99939%,39.99939%);stroke-opacity:1;stroke-miterlimit:3.239307;" d="M 269.957031 266.117188 L 276.023438 267.042969 L 275.234375 271.582031 L 269.167969 270.65625 Z M 269.957031 266.117188 " transform="matrix(1,0,0,1,-74,-13)"/>
<path style="fill-rule:nonzero;fill:rgb(39.99939%,39.99939%,39.99939%);fill-opacity:1;stroke-width:0.03;stroke-linecap:square;stroke-linejoin:miter;stroke:rgb(39.99939%,39.99939%,39.99939%);stroke-opacity:1;stroke-miterlimit:3.239307;" d="M 295.136719 278.179688 L 301.203125 279.105469 L 300.414062 283.648438 L 294.347656 282.722656 Z M 295.136719 278.179688 " transform="matrix(1,0,0,1,-74,-13)"/>
<path style="fill-rule:nonzero;fill:rgb(39.99939%,39.99939%,39.99939%);fill-opacity:1;stroke-width:0.03;stroke-linecap:square;stroke-linejoin:miter;stroke:rgb(39.99939%,39.99939%,39.99939%);stroke-opacity:1;stroke-miterlimit:3.239307;" d="M 217.9375 210.882812 L 224 211.8125 L 223.210938 216.351562 L 217.148438 215.425781 Z M 217.9375 210.882812 " transform="matrix(1,0,0,1,-74,-13)"/>
<path style="fill-rule:nonzero;fill:rgb(39.99939%,39.99939%,39.99939%);fill-opacity:1;stroke-width:0.03;stroke-linecap:square;stroke-linejoin:miter;stroke:rgb(39.99939%,39.99939%,39.99939%);stroke-opacity:1;stroke-miterlimit:3.239307;" d="M 226.898438 217.121094 L 230.839844 217.445312 L 230.714844 219.03125 L 232.105469 219.144531 L 232.230469 217.558594 L 236.183594 217.886719 L 235.566406 225.664062 L 231.613281 225.339844 L 231.738281 223.78125 L 230.34375 223.664062 L 230.222656 225.222656 L 229.402344 232.984375 L 225.464844 232.652344 L 225.628906 231.097656 L 224.234375 230.980469 L 223.332031 239.535156 L 219.382812 239.203125 L 219.519531 237.882812 L 218.210938 237.769531 L 218.070312 239.09375 L 214.460938 238.789062 L 215.199219 231.789062 L 218.8125 232.09375 L 218.648438 233.648438 L 219.957031 233.757812 L 220.9375 224.441406 L 224.890625 224.773438 L 224.722656 226.355469 L 226.117188 226.472656 L 226.28125 224.890625 Z M 226.898438 217.121094 " transform="matrix(1,0,0,1,-74,-13)"/>
<path style="fill-rule:nonzero;fill:rgb(39.99939%,39.99939%,39.99939%);fill-opacity:1;stroke-width:0.03;stroke-linecap:square;stroke-linejoin:miter;stroke:rgb(39.99939%,39.99939%,39.99939%);stroke-opacity:1;stroke-miterlimit:3.239307;" d="M 242.214844 206.621094 L 246.132812 207.222656 L 245.84375 208.785156 L 247.226562 208.996094 L 247.511719 207.433594 L 251.414062 208.03125 L 250.011719 215.71875 L 246.105469 215.117188 L 246.386719 213.578125 L 245.007812 213.367188 L 244.726562 214.90625 L 240.808594 214.304688 Z M 242.214844 206.621094 " transform="matrix(1,0,0,1,-74,-13)"/>
<path style="fill-rule:nonzero;fill:rgb(39.99939%,39.99939%,39.99939%);fill-opacity:1;stroke-width:0.03;stroke-linecap:square;stroke-linejoin:miter;stroke:rgb(39.99939%,39.99939%,39.99939%);stroke-opacity:1;stroke-miterlimit:3.239307;" d="M 227.417969 204.289062 L 231.332031 204.890625 L 231.046875 206.453125 L 232.425781 206.667969 L 232.710938 205.101562 L 236.617188 205.703125 L 235.210938 213.386719 L 231.308594 212.785156 L 231.589844 211.246094 L 230.210938 211.035156 L 229.925781 212.574219 L 226.011719 211.972656 Z M 227.417969 204.289062 " transform="matrix(1,0,0,1,-74,-13)"/>
<path style="fill-rule:nonzero;fill:rgb(39.99939%,39.99939%,39.99939%);fill-opacity:1;stroke-width:0.03;stroke-linecap:square;stroke-linejoin:miter;stroke:rgb(39.99939%,39.99939%,39.99939%);stroke-opacity:1;stroke-miterlimit:3.239307;" d="M 255.886719 276.613281 L 261.953125 277.539062 L 261.164062 282.078125 L 255.097656 281.152344 Z M 255.886719 276.613281 " transform="matrix(1,0,0,1,-74,-13)"/>
<path style="fill-rule:nonzero;fill:rgb(39.99939%,39.99939%,39.99939%);fill-opacity:1;stroke-width:0.03;stroke-linecap:square;stroke-linejoin:miter;stroke:rgb(39.99939%,39.99939%,39.99939%);stroke-opacity:1;stroke-miterlimit:3.239307;" d="M 250.910156 282.324219 L 256.976562 283.25 L 256.1875 287.792969 L 250.121094 286.867188 Z M 250.910156 282.324219 " transform="matrix(1,0,0,1,-74,-13)"/>
<path style="fill-rule:nonzero;fill:rgb(39.99939%,39.99939%,39.99939%);fill-opacity:1;stroke-width:0.03;stroke-linecap:square;stroke-linejoin:miter;stroke:rgb(39.99939%,39.99939%,39.99939%);stroke-opacity:1;stroke-miterlimit:3.239307;" d="M 319.554688 232.539062 L 323.492188 233.007812 L 323.265625 234.578125 L 324.652344 234.746094 L 324.878906 233.171875 L 328.804688 233.640625 L 327.6875 241.367188 L 323.761719 240.898438 L 323.984375 239.351562 L 322.597656 239.1875 L 321.367188 247.703125 L 317.433594 247.234375 L 317.621094 245.917969 L 316.320312 245.761719 L 316.128906 247.078125 L 312.53125 246.652344 L 313.539062 239.679688 L 317.136719 240.109375 L 316.910156 241.65625 L 318.214844 241.8125 Z M 319.554688 232.539062 " transform="matrix(1,0,0,1,-74,-13)"/>
<path style="fill-rule:nonzero;fill:rgb(39.99939%,39.99939%,39.99939%);fill-opacity:1;stroke-width:0.03;stroke-linecap:square;stroke-linejoin:miter;stroke:rgb(39.99939%,39.99939%,39.99939%);stroke-opacity:1;stroke-miterlimit:3.239307;" d="M 302.320312 232.628906 L 308.386719 233.554688 L 307.597656 238.09375 L 301.53125 237.167969 Z M 302.320312 232.628906 " transform="matrix(1,0,0,1,-74,-13)"/>
<path style="fill-rule:nonzero;fill:rgb(39.99939%,39.99939%,39.99939%);fill-opacity:1;stroke-width:0.03;stroke-linecap:square;stroke-linejoin:miter;stroke:rgb(39.99939%,39.99939%,39.99939%);stroke-opacity:1;stroke-miterlimit:3.239307;" d="M 294.417969 250.324219 L 300.484375 251.25 L 299.695312 255.789062 L 293.628906 254.863281 Z M 294.417969 250.324219 " transform="matrix(1,0,0,1,-74,-13)"/>
<path style="fill-rule:nonzero;fill:rgb(39.99939%,39.99939%,39.99939%);fill-opacity:1;stroke-width:0.03;stroke-linecap:square;stroke-linejoin:miter;stroke:rgb(39.99939%,39.99939%,39.99939%);stroke-opacity:1;stroke-miterlimit:3.239307;" d="M 300.585938 243.21875 L 306.652344 244.144531 L 305.863281 248.683594 L 299.796875 247.757812 Z M 300.585938 243.21875 " transform="matrix(1,0,0,1,-74,-13)"/>
<path style="fill-rule:nonzero;fill:rgb(39.99939%,39.99939%,39.99939%);fill-opacity:1;stroke-width:0.03;stroke-linecap:square;stroke-linejoin:miter;stroke:rgb(39.99939%,39.99939%,39.99939%);stroke-opacity:1;stroke-miterlimit:3.239307;" d="M 333.015625 260.632812 L 336.953125 261.101562 L 336.726562 262.675781 L 338.113281 262.84375 L 338.339844 261.269531 L 342.265625 261.734375 L 341.148438 269.464844 L 337.222656 268.996094 L 337.445312 267.449219 L 336.058594 267.28125 L 334.828125 275.800781 L 330.894531 275.332031 L 331.085938 274.015625 L 329.78125 273.859375 L 329.589844 275.175781 L 325.992188 274.75 L 327 267.777344 L 330.597656 268.207031 L 330.375 269.753906 L 331.675781 269.910156 Z M 333.015625 260.632812 " transform="matrix(1,0,0,1,-74,-13)"/>
<path style="fill-rule:nonzero;fill:rgb(39.99939%,39.99939%,39.99939%);fill-opacity:1;stroke-width:0.03;stroke-linecap:square;stroke-linejoin:miter;stroke:rgb(39.99939%,39.99939%,39.99939%);stroke-opacity:1;stroke-miterlimit:3.239307;" d="M 242.632812 258.96875 L 241.660156 268.308594 L 243.050781 268.453125 L 243.214844 266.871094 L 247.15625 267.285156 L 246.1875 276.601562 L 247.492188 276.738281 L 247.65625 275.183594 L 251.257812 275.558594 L 250.53125 282.5625 L 246.925781 282.183594 L 247.066406 280.859375 L 245.757812 280.722656 L 245.621094 282.046875 L 241.679688 281.636719 L 242.566406 273.078125 L 241.179688 272.933594 L 241.015625 274.488281 L 237.085938 274.078125 L 237.894531 266.316406 L 238.09375 264.765625 L 236.707031 264.617188 L 236.503906 266.167969 L 232.5625 265.75 L 233.570312 258.007812 L 237.511719 258.425781 L 237.308594 260.003906 L 238.695312 260.148438 L 238.902344 258.574219 Z M 242.632812 258.96875 " transform="matrix(1,0,0,1,-74,-13)"/>
<path style="fill-rule:nonzero;fill:rgb(39.99939%,39.99939%,39.99939%);fill-opacity:1;stroke-width:0.03;stroke-linecap:square;stroke-linejoin:miter;stroke:rgb(39.99939%,39.99939%,39.99939%);stroke-opacity:1;stroke-miterlimit:3.239307;" d="M 290.335938 217.394531 L 290.167969 217.796875 L 289.761719 218.742188 L 336.996094 228.148438 L 359.632812 233.101562 L 359.425781 237.167969 L 302.183594 257.4375 L 300.15625 258.136719 L 297.949219 257.789062 L 144.992188 238.453125 L 142.78125 237.40625 L 142.226562 235.136719 L 143.472656 226.703125 L 146.269531 217.332031 L 148.65625 206.332031 L 149.761719 200.785156 L 149.960938 200.171875 L 150.335938 187.800781 L 150.714844 185.382812 L 150.855469 184.460938 L 151.203125 183.121094 Z M 290.335938 217.394531 " transform="matrix(1,0,0,1,-74,-13)"/>
<path style="fill-rule:nonzero;fill:rgb(39.99939%,39.99939%,39.99939%);fill-opacity:1;stroke-width:0.03;stroke-linecap:square;stroke-linejoin:miter;stroke:rgb(39.99939%,39.99939%,39.99939%);stroke-opacity:1;stroke-miterlimit:3.239307;" d="M 131.621094 253.535156 L 127.855469 264.835938 L 125.429688 264.375 Z M 131.621094 253.535156 " transform="matrix(1,0,0,1,-74,-13)"/>
<path style=" stroke:none;fill-rule:evenodd;fill:rgb(85.096741%,85.096741%,81.959534%);fill-opacity:0.7;" d="M 322.878906 293 C 322.878906 287.460938 320.679688 282.152344 316.765625 278.234375 C 312.847656 274.320312 307.539062 272.121094 302 272.121094 C 296.460938 272.121094 291.152344 274.320312 287.234375 278.234375 C 283.320312 282.152344 281.121094 287.460938 281.121094 293 C 281.121094 298.539062 283.320312 303.847656 287.234375 307.765625 C 291.152344 311.679688 296.460938 313.878906 302 313.878906 C 307.539062 313.878906 312.847656 311.679688 316.765625 307.765625 C 320.679688 303.847656 322.878906 298.539062 322.878906 293 Z M 322.878906 293 "/>
<g clip-path="url(#clip9)" clip-rule="nonzero">
<path style=" stroke:none;fill-rule:evenodd;fill:rgb(85.096741%,85.096741%,81.959534%);fill-opacity:0.7;" d="M 385.878906 126 C 385.878906 120.460938 383.679688 115.152344 379.765625 111.234375 C 375.847656 107.320312 370.539062 105.121094 365 105.121094 C 359.460938 105.121094 354.152344 107.320312 350.234375 111.234375 C 346.320312 115.152344 344.121094 120.460938 344.121094 126 C 344.121094 131.539062 346.320312 136.847656 350.234375 140.765625 C 354.152344 144.679688 359.460938 146.878906 365 146.878906 C 370.539062 146.878906 375.847656 144.679688 379.765625 140.765625 C 383.679688 136.847656 385.878906 131.539062 385.878906 126 Z M 385.878906 126 "/>
</g>
</g>
</svg>
