<?xml version="1.0" encoding="UTF-8"?>
<svg xmlns="http://www.w3.org/2000/svg" xmlns:xlink="http://www.w3.org/1999/xlink" width="361pt" height="361pt" viewBox="0 0 361 361" version="1.1">
<defs>
<clipPath id="clip1">
  <path d="M 16 298 L 80 298 L 80 360 L 16 360 Z M 16 298 "/>
</clipPath>
<clipPath id="clip2">
  <path d="M 142 273 L 237 273 L 237 360 L 142 360 Z M 142 273 "/>
</clipPath>
<clipPath id="clip3">
  <path d="M 0 229 L 7 229 L 7 360 L 0 360 Z M 0 229 "/>
</clipPath>
<clipPath id="clip4">
  <path d="M 0 326 L 34 326 L 34 360 L 0 360 Z M 0 326 "/>
</clipPath>
<clipPath id="clip5">
  <path d="M 72 280 L 108 280 L 108 360 L 72 360 Z M 72 280 "/>
</clipPath>
<clipPath id="clip6">
  <path d="M 55 287 L 98 287 L 98 360 L 55 360 Z M 55 287 "/>
</clipPath>
<clipPath id="clip7">
  <path d="M 80 265 L 160 265 L 160 360 L 80 360 Z M 80 265 "/>
</clipPath>
<clipPath id="clip8">
  <path d="M 349 0 L 360 0 L 360 52 L 349 52 Z M 349 0 "/>
</clipPath>
<clipPath id="clip9">
  <path d="M 358 10 L 360 10 L 360 20 L 358 20 Z M 358 10 "/>
</clipPath>
<clipPath id="clip10">
  <path d="M 357 351 L 360 351 L 360 358 L 357 358 Z M 357 351 "/>
</clipPath>
<clipPath id="clip11">
  <path d="M 316 351 L 360 351 L 360 360 L 316 360 Z M 316 351 "/>
</clipPath>
<clipPath id="clip12">
  <path d="M 358 139 L 360 139 L 360 173 L 358 173 Z M 358 139 "/>
</clipPath>
<clipPath id="clip13">
  <path d="M 140 114 L 360 114 L 360 234 L 140 234 Z M 140 114 "/>
</clipPath>
<clipPath id="clip14">
  <path d="M 330 49 L 360 49 L 360 117 L 330 117 Z M 330 49 "/>
</clipPath>
<clipPath id="clip15">
  <path d="M 341 28 L 360 28 L 360 70 L 341 70 Z M 341 28 "/>
</clipPath>
<clipPath id="clip16">
  <path d="M 167 21 L 360 21 L 360 117 L 167 117 Z M 167 21 "/>
</clipPath>
<clipPath id="clip17">
  <path d="M 205 316 L 269 316 L 269 360 L 205 360 Z M 205 316 "/>
</clipPath>
<clipPath id="clip18">
  <path d="M 278 358 L 284 358 L 284 360 L 278 360 Z M 278 358 "/>
</clipPath>
<clipPath id="clip19">
  <path d="M 324 357 L 334 357 L 334 360 L 324 360 Z M 324 357 "/>
</clipPath>
<clipPath id="clip20">
  <path d="M 285 359 L 291 359 L 291 360 L 285 360 Z M 285 359 "/>
</clipPath>
<clipPath id="clip21">
  <path d="M 341 311 L 360 311 L 360 360 L 341 360 Z M 341 311 "/>
</clipPath>
<clipPath id="clip22">
  <path d="M 347 254 L 360 254 L 360 308 L 347 308 Z M 347 254 "/>
</clipPath>
<clipPath id="clip23">
  <path d="M 329 356 L 338 356 L 338 360 L 329 360 Z M 329 356 "/>
</clipPath>
<clipPath id="clip24">
  <path d="M 352 252 L 360 252 L 360 263 L 352 263 Z M 352 252 "/>
</clipPath>
<clipPath id="clip25">
  <path d="M 352 161 L 360 161 L 360 194 L 352 194 Z M 352 161 "/>
</clipPath>
<clipPath id="clip26">
  <path d="M 338 174 L 360 174 L 360 255 L 338 255 Z M 338 174 "/>
</clipPath>
<clipPath id="clip27">
  <path d="M 356 239 L 360 239 L 360 250 L 356 250 Z M 356 239 "/>
</clipPath>
<clipPath id="clip28">
  <path d="M 347 222 L 360 222 L 360 240 L 347 240 Z M 347 222 "/>
</clipPath>
<clipPath id="clip29">
  <path d="M 346 206 L 360 206 L 360 222 L 346 222 Z M 346 206 "/>
</clipPath>
</defs>
<g id="surface70">
<path style="fill-rule:nonzero;fill:rgb(0%,0%,0%);fill-opacity:1;stroke-width:0.03;stroke-linecap:square;stroke-linejoin:miter;stroke:rgb(0%,0%,0%);stroke-opacity:1;stroke-miterlimit:10;" d="M 0 178 L 360 178 L 360 -182 L 0 -182 Z M 0 178 " transform="matrix(1,0,0,1,0,182)"/>
<g clip-path="url(#clip1)" clip-rule="nonzero">
<path style=" stroke:none;fill-rule:nonzero;fill:rgb(39.99939%,39.99939%,39.99939%);fill-opacity:0.3;" d="M 36.375 324.375 L 40.925781 321.691406 L 34.265625 366.632812 L 35.273438 366.734375 L 36.285156 366.835938 L 43.238281 320.140625 L 50.210938 316.230469 L 43.097656 356.710938 L 42.363281 360.890625 L 44.511719 360.546875 L 44.949219 358.105469 L 46.910156 358.371094 L 46.042969 362.585938 L 47.707031 362.734375 L 48.492188 356.5625 L 45.339844 355.933594 L 52.828125 314.292969 L 61.214844 309.054688 L 62.300781 310.21875 L 53.371094 351.15625 L 50.363281 366.347656 L 43.121094 408.035156 L 44.113281 407.890625 L 45.109375 407.746094 L 54.878906 356.515625 L 65.027344 306.640625 L 70.855469 303.222656 L 67.652344 320.667969 L 70.222656 320.910156 L 73.425781 301.882812 L 78.847656 298.53125 L 79.921875 298.53125 L 79.691406 302.761719 L 59.625 400.867188 L 53.414062 431.386719 L 43.859375 430.921875 L 45.28125 417.273438 L 44.515625 417.222656 L 43.75 417.175781 L 42.429688 430.648438 L 16.53125 428.578125 L 17.957031 418.296875 L 24.636719 380.640625 Z M 36.375 324.375 "/>
</g>
<path style=" stroke:none;fill-rule:nonzero;fill:rgb(39.99939%,39.99939%,39.99939%);fill-opacity:0.3;" d="M 8.1875 230.78125 L 13.703125 231.605469 L -8.226562 349.832031 L -15.253906 354.394531 Z M 8.1875 230.78125 "/>
<path style=" stroke:none;fill-rule:nonzero;fill:rgb(39.99939%,39.99939%,39.99939%);fill-opacity:0.3;" d="M 24.617188 155.683594 L 26.957031 149.113281 L 27.539062 147.953125 L 28.160156 146.917969 L 33.332031 142.488281 L 35.527344 140.867188 L 36.9375 142.292969 L 37.472656 146.097656 L 38.320312 151.875 L 39.296875 158.964844 L 40.660156 167.015625 L 46.1875 183.316406 L 53.039062 193.847656 L 59.542969 203.234375 L 66.667969 211.632812 L 100.867188 237.308594 L 100.917969 237.773438 L 101.632812 238.238281 L 101.734375 238.472656 L 101.5 239.132812 L 98.414062 239.699219 L 96.394531 240.941406 L 0.734375 226.597656 L 0.644531 225.609375 L 1.085938 224.65625 L 4.832031 222.421875 L 8.265625 218.753906 L 10.140625 213.949219 L 9.820312 200.136719 L 20.40625 172.035156 L 23.730469 158.738281 L 24.398438 156.285156 Z M 24.617188 155.683594 "/>
<path style=" stroke:none;fill-rule:nonzero;fill:rgb(39.99939%,39.99939%,39.99939%);fill-opacity:0.3;" d="M 78.964844 241.265625 L 87.003906 242.617188 L 76.582031 296.015625 L 67.664062 301.460938 Z M 78.964844 241.265625 "/>
<path style=" stroke:none;fill-rule:nonzero;fill:rgb(39.99939%,39.99939%,39.99939%);fill-opacity:0.3;" d="M 109.171875 245.773438 L 112.292969 248.050781 L 106.816406 276.582031 L 103.03125 279.074219 L 102.746094 278.519531 Z M 109.171875 245.773438 "/>
<g clip-path="url(#clip2)" clip-rule="nonzero">
<path style=" stroke:none;fill-rule:nonzero;fill:rgb(39.99939%,39.99939%,39.99939%);fill-opacity:0.3;" d="M 142.292969 274.039062 L 144.984375 273.015625 L 174.554688 294.972656 L 177.738281 297.601562 L 182.796875 301.09375 L 184.574219 302.414062 L 184.707031 302.410156 L 188.445312 304.988281 L 194.078125 308.570312 L 236.410156 394.597656 L 234.414062 395.859375 L 216.738281 397.75 L 215.132812 388.003906 L 214.332031 388.21875 L 213.527344 388.429688 L 214.53125 397.984375 L 209.34375 398.550781 L 208.523438 388.601562 L 207.597656 388.714844 L 206.671875 388.824219 L 207.558594 398.730469 L 203.148438 399.195312 L 202.425781 393.734375 L 201.667969 393.796875 L 200.90625 393.863281 L 201.59375 399.367188 L 155.976562 404.246094 L 155.5625 403.511719 L 148.128906 346.847656 Z M 142.292969 274.039062 "/>
</g>
<path style=" stroke:none;fill-rule:nonzero;fill:rgb(39.99939%,39.99939%,39.99939%);fill-opacity:0.3;" d="M 88.921875 242.90625 L 95.535156 243.902344 L 86.109375 290.035156 L 78.445312 294.777344 Z M 88.921875 242.90625 "/>
<path style=" stroke:none;fill-rule:nonzero;fill:rgb(39.99939%,39.99939%,39.99939%);fill-opacity:0.3;" d="M 115.484375 250.511719 L 129.003906 260.773438 L 129.273438 261.796875 L 128.613281 262.949219 L 112.132812 272.746094 L 111.28125 272.339844 Z M 115.484375 250.511719 "/>
<path style=" stroke:none;fill-rule:nonzero;fill:rgb(39.99939%,39.99939%,39.99939%);fill-opacity:0.3;" d="M 39.089844 235.417969 L 45.988281 236.453125 L 40.886719 260.828125 L 27.855469 326.601562 L 21.417969 330.746094 L 27.082031 303.273438 L 35.355469 255.800781 L 36.417969 249.648438 L 37.960938 240.792969 Z M 39.089844 235.417969 "/>
<path style=" stroke:none;fill-rule:nonzero;fill:rgb(39.99939%,39.99939%,39.99939%);fill-opacity:0.3;" d="M 47.460938 236.675781 L 52.515625 237.433594 L 35.347656 321.777344 L 29.476562 325.332031 L 40.078125 271.457031 Z M 47.460938 236.675781 "/>
<g clip-path="url(#clip3)" clip-rule="nonzero">
<path style=" stroke:none;fill-rule:nonzero;fill:rgb(39.99939%,39.99939%,39.99939%);fill-opacity:0.3;" d="M 0.332031 229.601562 L 6.796875 230.570312 L -17.570312 355.957031 L -25.292969 361.160156 Z M 0.332031 229.601562 "/>
</g>
<path style=" stroke:none;fill-rule:nonzero;fill:rgb(39.99939%,39.99939%,39.99939%);fill-opacity:0.3;" d="M 16.242188 231.988281 L 22.3125 232.898438 L 1.535156 343.546875 L -6.359375 348.628906 Z M 16.242188 231.988281 "/>
<path style=" stroke:none;fill-rule:nonzero;fill:rgb(39.99939%,39.99939%,39.99939%);fill-opacity:0.3;" d="M 24.25 232.992188 L 29.710938 234.011719 L 9.21875 338.601562 L 4.066406 341.917969 L 12.707031 291.988281 L 19.539062 256.9375 Z M 24.25 232.992188 "/>
<path style=" stroke:none;fill-rule:nonzero;fill:rgb(39.99939%,39.99939%,39.99939%);fill-opacity:0.3;" d="M 42.039062 147.621094 L 41.394531 147.734375 L 40.488281 139.773438 L 40.617188 138.796875 L 41.828125 145.441406 Z M 42.039062 147.621094 "/>
<path style=" stroke:none;fill-rule:nonzero;fill:rgb(39.99939%,39.99939%,39.99939%);fill-opacity:0.3;" d="M 52.828125 186.621094 L 52.144531 186.71875 L 49.402344 181.90625 L 44.105469 166.292969 L 41.992188 153.714844 L 41.371094 148.058594 L 42.066406 147.9375 L 42.933594 156.890625 L 45.519531 169.449219 L 51.429688 184.589844 Z M 52.828125 186.621094 "/>
<g clip-path="url(#clip4)" clip-rule="nonzero">
<path style=" stroke:none;fill-rule:nonzero;fill:rgb(39.99939%,39.99939%,39.99939%);fill-opacity:0.3;" d="M -36.175781 373.707031 L -36.027344 372.625 L -35.527344 371.832031 L -27.472656 366.5 L -28.171875 371.933594 L -27.65625 371.914062 L -27.136719 371.894531 L -26.28125 365.601562 L -19.003906 360.695312 L -18.195312 360.8125 L -20.527344 372.625 L -19.480469 373.039062 L -16.71875 359.15625 L -4.863281 351.464844 L -5.660156 358.332031 L -4.789062 358.328125 L -3.917969 358.328125 L -2.851562 349.820312 L 16.488281 337.613281 L 17.199219 337.898438 L 11.605469 370.382812 L 12.265625 370.320312 L 12.945312 370.253906 L 18.914062 336.210938 L 21.371094 334.46875 L 21.886719 334.730469 L 12.949219 384.472656 L 13.554688 384.417969 L 14.289062 384.347656 L 23.757812 332.929688 L 33.421875 326.710938 L 33.792969 326.773438 L 25.707031 366.40625 L 22.953125 380.886719 L 22.195312 385.46875 L 20.0625 395.871094 L 15.5625 421.269531 L 14.609375 424.992188 L 12.578125 427.8125 L 9.351562 428.929688 L 2.179688 429.238281 L 9.875 381.863281 L 9.230469 381.679688 L 8.539062 381.484375 L 4.160156 408.429688 L -10.007812 405.535156 L -38.679688 400.386719 L -40.078125 399.753906 L -40.925781 398.773438 L -41.046875 397.910156 Z M -36.175781 373.707031 "/>
</g>
<path style=" stroke:none;fill-rule:nonzero;fill:rgb(39.99939%,39.99939%,39.99939%);fill-opacity:0.3;" d="M 54.210938 237.6875 L 59.328125 238.457031 L 44.046875 316.175781 L 37.484375 320.402344 Z M 54.210938 237.6875 "/>
<path style=" stroke:none;fill-rule:nonzero;fill:rgb(39.99939%,39.99939%,39.99939%);fill-opacity:0.3;" d="M 61.785156 237.675781 L 65.78125 238.441406 L 64.398438 244.757812 L 65.984375 244.796875 L 67.574219 244.835938 L 68.851562 238.492188 L 75.222656 239.367188 L 63.433594 303.226562 L 57.480469 307.4375 L 65.523438 267.488281 L 64.3125 267.28125 L 62.941406 267.046875 L 55.417969 308.542969 L 53.011719 310.265625 L 58.761719 279.09375 L 57.667969 279.394531 L 56.871094 279.496094 L 51.042969 311.578125 L 46.597656 314 Z M 61.785156 237.675781 "/>
<path style=" stroke:none;fill-rule:nonzero;fill:rgb(39.99939%,39.99939%,39.99939%);fill-opacity:0.3;" d="M 99.003906 242.613281 L 99.761719 241.527344 L 101.445312 241.207031 L 103.179688 241.273438 L 107.28125 244.351562 L 107.484375 245.191406 L 100.875 280.527344 L 90.355469 287.410156 Z M 99.003906 242.613281 "/>
<path style=" stroke:none;fill-rule:nonzero;fill:rgb(39.99939%,39.99939%,39.99939%);fill-opacity:0.3;" d="M 31.332031 234.253906 L 37.703125 235.210938 L 35.355469 248.371094 L 29.464844 281.742188 L 20.253906 329.195312 L 19.847656 330.597656 L 19.222656 332.160156 L 13.609375 335.773438 L 11.996094 336.257812 L 10.898438 336.257812 L 11.289062 333.433594 L 15.113281 316.082031 L 29.144531 243.234375 Z M 31.332031 234.253906 "/>
<g clip-path="url(#clip5)" clip-rule="nonzero">
<path style=" stroke:none;fill-rule:nonzero;fill:rgb(39.99939%,39.99939%,39.99939%);fill-opacity:0.3;" d="M 106.691406 280.65625 L 107.230469 280.6875 L 102.972656 305.320312 L 77.601562 432.425781 L 72.054688 432.148438 L 78.285156 396.328125 L 84.855469 364.222656 L 100.816406 285.65625 Z M 106.691406 280.65625 "/>
</g>
<g clip-path="url(#clip6)" clip-rule="nonzero">
<path style=" stroke:none;fill-rule:nonzero;fill:rgb(39.99939%,39.99939%,39.99939%);fill-opacity:0.3;" d="M 83.015625 295.578125 L 96.609375 287.53125 L 97.128906 289.753906 L 78.542969 372.945312 L 66.769531 432.785156 L 55.453125 431.589844 L 64.914062 386.398438 L 72.628906 345.058594 L 75.421875 331.5625 L 78 317.457031 L 79.71875 310.503906 L 80.882812 302.167969 L 81.960938 301.757812 Z M 83.015625 295.578125 "/>
</g>
<path style=" stroke:none;fill-rule:nonzero;fill:rgb(39.99939%,39.99939%,39.99939%);fill-opacity:0.3;" d="M 100.382812 232.6875 L 69.15625 209.242188 L 62.382812 201.261719 L 56.003906 192.054688 L 52.144531 186.722656 L 52.828125 186.621094 L 58.816406 195.300781 L 70.265625 208.597656 L 100.179688 230.753906 Z M 100.382812 232.6875 "/>
<g clip-path="url(#clip7)" clip-rule="nonzero">
<path style=" stroke:none;fill-rule:nonzero;fill:rgb(39.99939%,39.99939%,39.99939%);fill-opacity:0.3;" d="M 138.335938 266.664062 L 141.890625 316.765625 L 147.125 375.359375 L 118.128906 372.882812 L 112.375 372.390625 L 111.972656 374.300781 L 111.574219 376.210938 L 116.40625 376.464844 L 114.9375 387.160156 L 117.757812 387.285156 L 119.226562 376.96875 L 148.222656 378.605469 L 150.941406 400.894531 L 108.097656 397.609375 L 108.035156 398.945312 L 107.96875 400.28125 L 152.03125 403.863281 L 159.007812 437.816406 L 100.742188 433.652344 L 106.167969 409.117188 L 104.921875 408.902344 L 103.679688 408.691406 L 98.058594 433.273438 L 80.070312 432.140625 L 109.109375 278.636719 L 115.542969 274.738281 L 94.484375 380.609375 L 95.988281 380.832031 L 97.492188 381.058594 L 118.152344 272.566406 L 121.941406 270.378906 L 103.113281 360.871094 L 104.613281 361.109375 L 106.476562 361.402344 L 124.441406 268.582031 L 129.4375 265.25 L 131.925781 265.554688 L 116.179688 335.992188 L 118.992188 336.3125 L 133.285156 266.183594 L 137.628906 265.917969 Z M 138.335938 266.664062 "/>
</g>
<path style=" stroke:none;fill-rule:nonzero;fill:rgb(39.99939%,39.99939%,39.99939%);fill-opacity:0.3;" d="M 100.867188 237.308594 L 101.398438 237.707031 L 101.632812 238.238281 L 100.917969 237.773438 Z M 100.867188 237.308594 "/>
<path style=" stroke:none;fill-rule:nonzero;fill:rgb(39.99939%,39.99939%,39.99939%);fill-opacity:0.3;" d="M 174.554688 294.972656 L 182.796875 301.09375 L 177.738281 297.601562 Z M 174.554688 294.972656 "/>
<path style=" stroke:none;fill-rule:nonzero;fill:rgb(39.99939%,39.99939%,39.99939%);fill-opacity:0.3;" d="M 184.707031 302.410156 L 191.003906 302.324219 L 194.078125 308.570312 L 188.445312 304.988281 Z M 184.707031 302.410156 "/>
<path style=" stroke:none;fill-rule:nonzero;fill:rgb(39.99939%,39.99939%,39.99939%);fill-opacity:0.3;" d="M 120.394531 154.53125 L 126.167969 175.945312 L 52.828125 186.621094 L 51.429688 184.589844 L 73.957031 182.375 L 80.972656 181.265625 L 85.035156 176.464844 L 96.855469 174.25 L 109.042969 156.152344 Z M 120.394531 154.53125 "/>
<path style=" stroke:none;fill-rule:nonzero;fill:rgb(39.99939%,39.99939%,39.99939%);fill-opacity:0.3;" d="M 115.570312 162.207031 L 120.296875 165.222656 L 115.609375 172.035156 L 110.539062 168.777344 L 110.976562 168.167969 L 113.78125 164.585938 Z M 115.570312 162.207031 "/>
<path style=" stroke:none;fill-rule:nonzero;fill:rgb(39.99939%,39.99939%,39.99939%);fill-opacity:0.3;" d="M 115.566406 162.207031 L 113.78125 164.585938 L 108.421875 161.375 L 112.535156 155.652344 L 112.777344 155.617188 L 117.957031 158.644531 Z M 115.566406 162.207031 "/>
<path style=" stroke:none;fill-rule:nonzero;fill:rgb(39.99939%,39.99939%,39.99939%);fill-opacity:0.3;" d="M 110.972656 168.164062 L 110.539062 168.773438 L 106.828125 173.96875 L 101.65625 170.5 L 106.023438 164.847656 Z M 110.972656 168.164062 "/>
<path style=" stroke:none;fill-rule:nonzero;fill:rgb(39.99939%,39.99939%,39.99939%);fill-opacity:0.3;" d="M 140.566406 190.105469 L 135.128906 178.234375 L 126.144531 154.886719 L 121.914062 137.316406 L 121.320312 132.71875 L 118.230469 96.386719 L 116.421875 85.5 L 114.359375 76.769531 L 110.925781 68.015625 L 107.140625 60.648438 L 104.195312 55.132812 L 103.714844 53.261719 L 104.421875 52.363281 L 105.539062 51.8125 L 106.613281 51.429688 L 110.914062 52.960938 L 122.140625 55.652344 L 135.210938 57.5625 L 146.878906 58.835938 L 157.191406 59.746094 L 165.445312 60.339844 L 172.851562 60.628906 L 179.660156 60.625 L 184.457031 60.121094 L 186.484375 60.296875 L 237.539062 78.445312 L 224.234375 113.164062 L 224.699219 114.574219 L 224.640625 114.789062 L 229.441406 132.515625 Z M 140.566406 190.105469 "/>
<path style=" stroke:none;fill-rule:nonzero;fill:rgb(39.99939%,39.99939%,39.99939%);fill-opacity:0.3;" d="M 126.171875 175.953125 L 135.386719 196.851562 L 138.445312 252.882812 L 127.46875 253.027344 L 100.382812 232.6875 L 100.179688 230.753906 L 70.265625 208.597656 L 58.816406 195.300781 L 52.828125 186.621094 Z M 126.171875 175.953125 "/>
<path style=" stroke:none;fill-rule:nonzero;fill:rgb(39.99939%,39.99939%,39.99939%);fill-opacity:0.3;" d="M 187.347656 293.542969 L 186.472656 294.117188 L 184.738281 293.90625 L 141.234375 261.332031 L 137.863281 202.1875 L 137.824219 200.265625 L 137.785156 199.207031 L 138.003906 199.035156 L 138.507812 199.070312 L 138.832031 199.34375 L 145.191406 213.316406 Z M 187.347656 293.542969 "/>
<path style=" stroke:none;fill-rule:nonzero;fill:rgb(39.99939%,39.99939%,39.99939%);fill-opacity:0.3;" d="M 138.28125 265.878906 L 138.335938 266.664062 L 137.628906 265.917969 Z M 138.28125 265.878906 "/>
<path style=" stroke:none;fill-rule:nonzero;fill:rgb(39.99939%,39.99939%,39.99939%);fill-opacity:0.3;" d="M 27.539062 147.953125 L 29.230469 144.605469 L 31.664062 141.894531 L 33.140625 140.761719 L 34.074219 140.554688 L 35.195312 140.53125 L 35.527344 140.867188 L 33.332031 142.488281 L 28.160156 146.917969 Z M 27.539062 147.953125 "/>
<path style=" stroke:none;fill-rule:nonzero;fill:rgb(39.99939%,39.99939%,39.99939%);fill-opacity:0.3;" d="M 9.820312 200.136719 L 9.796875 199.070312 L 9.144531 198.640625 L 24.398438 156.285156 L 23.730469 158.738281 L 20.40625 172.035156 Z M 9.820312 200.136719 "/>
<path style=" stroke:none;fill-rule:nonzero;fill:rgb(39.99939%,39.99939%,39.99939%);fill-opacity:0.3;" d="M 2.875 199.171875 L 2.949219 198.859375 L 4.503906 199.480469 Z M 2.875 199.171875 "/>
<path style=" stroke:none;fill-rule:nonzero;fill:rgb(39.99939%,39.99939%,39.99939%);fill-opacity:0.3;" d="M 24.347656 148.101562 L 21.953125 154.820312 L 6.546875 197.597656 L -28.460938 185.96875 L -15.207031 149.28125 L -18.121094 148.398438 L -31.570312 184.894531 L -44.875 179.867188 L -35.648438 156.132812 L -36.867188 155.703125 L -38.085938 155.277344 L -47.824219 178.636719 L -61.535156 173.503906 L -46.832031 132.195312 L -34.425781 47.230469 L -33.96875 46.796875 L -33.054688 46.46875 L -31.792969 46.253906 L -20.433594 46.824219 L -14.546875 46.695312 L -18.003906 71.945312 L -19.480469 74.902344 L -20.589844 77.488281 L -27.605469 116.265625 L -29.820312 121.066406 L -31.300781 127.34375 L -27.605469 128.453125 L -6.1875 132.144531 L 25.945312 140.273438 L 31.0625 138.375 L 30.921875 138.660156 L 26.863281 143.113281 Z M 24.347656 148.101562 "/>
<path style=" stroke:none;fill-rule:nonzero;fill:rgb(39.99939%,39.99939%,39.99939%);fill-opacity:0.3;" d="M 5.484375 137.265625 L 3.136719 145.503906 L -7.402344 142.332031 L -5.171875 134.675781 Z M 5.484375 137.265625 "/>
<path style=" stroke:none;fill-rule:nonzero;fill:rgb(39.99939%,39.99939%,39.99939%);fill-opacity:0.3;" d="M 24.824219 142.667969 L 22.597656 150.082031 L 8.464844 146.5625 L 10.320312 138.792969 Z M 24.824219 142.667969 "/>
<path style=" stroke:none;fill-rule:nonzero;fill:rgb(39.99939%,39.99939%,39.99939%);fill-opacity:0.3;" d="M 25.335938 140.117188 L 25.070312 141.136719 L -5.210938 133.519531 L -4.914062 132.46875 Z M 25.335938 140.117188 "/>
<path style=" stroke:none;fill-rule:nonzero;fill:rgb(39.99939%,39.99939%,39.99939%);fill-opacity:0.3;" d="M 19.871094 158.226562 L -12.726562 149.632812 L -10.746094 143.632812 L 22.042969 152.511719 Z M 19.871094 158.226562 "/>
<path style=" stroke:none;fill-rule:nonzero;fill:rgb(39.99939%,39.99939%,39.99939%);fill-opacity:0.3;" d="M 303.449219 -9.691406 L 349.503906 3.421875 L 344.453125 20.359375 L 272.765625 4.613281 L 279.386719 -14.847656 L 289.859375 -11.992188 L 293.882812 -12.546875 Z M 303.449219 -9.691406 "/>
<path style=" stroke:none;fill-rule:nonzero;fill:rgb(39.99939%,39.99939%,39.99939%);fill-opacity:0.3;" d="M 296.027344 -8.496094 L 302.972656 -6.59375 L 299.046875 7.082031 L 291.894531 5.441406 Z M 296.027344 -8.496094 "/>
<path style=" stroke:none;fill-rule:nonzero;fill:rgb(39.99939%,39.99939%,39.99939%);fill-opacity:0.3;" d="M 304.929688 -1.277344 L 312.027344 0.261719 L 309.824219 8.902344 L 302.691406 7.273438 Z M 304.929688 -1.277344 "/>
<path style=" stroke:none;fill-rule:nonzero;fill:rgb(39.99939%,39.99939%,39.99939%);fill-opacity:0.3;" d="M 239.101562 -26.15625 L 275.882812 -15.59375 L 269.257812 3.839844 L 226.222656 -5.609375 Z M 239.101562 -26.15625 "/>
<g clip-path="url(#clip8)" clip-rule="nonzero">
<path style=" stroke:none;fill-rule:nonzero;fill:rgb(39.99939%,39.99939%,39.99939%);fill-opacity:0.3;" d="M 365.65625 -35.738281 L 463.871094 -6.957031 L 496.015625 48.972656 L 496.34375 50.144531 L 496.214844 51.074219 L 495.464844 51.722656 L 494.066406 51.910156 L 492.253906 51.828125 L 349.101562 21.367188 L 355.175781 0.402344 L 382.703125 7.332031 L 382.816406 6.839844 L 382.917969 6.390625 L 355.570312 -0.667969 L 357.601562 -8.230469 L 389.667969 0.484375 L 389.847656 -0.109375 L 390.039062 -0.738281 L 358.097656 -9.601562 Z M 365.65625 -35.738281 "/>
</g>
<path style=" stroke:none;fill-rule:nonzero;fill:rgb(39.99939%,39.99939%,39.99939%);fill-opacity:0.3;" d="M 353.304688 -9.804688 L 349.644531 1.855469 L 293.726562 -13.820312 L 289.71875 -13.816406 L 280.003906 -16.90625 L 284.949219 -29.503906 Z M 353.304688 -9.804688 "/>
<g clip-path="url(#clip9)" clip-rule="nonzero">
<path style=" stroke:none;fill-rule:nonzero;fill:rgb(39.99939%,39.99939%,39.99939%);fill-opacity:0.3;" d="M 360.125 10.277344 L 370.402344 12.421875 L 369.761719 15.410156 L 368.125 15.105469 L 367.835938 16.355469 L 369.25 16.628906 L 368.574219 19.523438 L 358.3125 17.394531 L 359.046875 14.621094 L 362.769531 15.320312 L 363.054688 14.09375 L 359.363281 13.355469 Z M 360.125 10.277344 "/>
</g>
<g clip-path="url(#clip10)" clip-rule="nonzero">
<path style=" stroke:none;fill-rule:nonzero;fill:rgb(39.99939%,39.99939%,39.99939%);fill-opacity:0.3;" d="M 360.214844 351.3125 L 357.84375 357.355469 L 357.457031 357.480469 Z M 360.214844 351.3125 "/>
</g>
<g clip-path="url(#clip11)" clip-rule="nonzero">
<path style=" stroke:none;fill-rule:nonzero;fill:rgb(39.99939%,39.99939%,39.99939%);fill-opacity:0.3;" d="M 399.925781 351.605469 L 401.085938 352.515625 L 403.261719 353.363281 L 405.402344 353.59375 L 407.566406 360.503906 L 407.933594 363.058594 L 407.96875 365.164062 L 407.453125 366.617188 L 352.992188 385.050781 L 353.890625 389.25 L 355.9375 391.378906 L 363.230469 399.480469 L 369.675781 404.675781 L 373.035156 406.316406 L 400.078125 374.277344 L 403.132812 372.113281 L 405.371094 371.710938 L 407.347656 371.527344 L 408.640625 371.914062 L 410.054688 373.253906 L 411.0625 374.324219 L 411.898438 375.777344 L 412.984375 378.554688 L 413.03125 381.5 L 414.375 382.789062 L 377.347656 426.726562 L 375.492188 425.535156 L 368.53125 434.976562 L 336.398438 410.890625 L 335.804688 409.507812 L 325.835938 401.75 L 316.339844 394.804688 L 324.378906 375.199219 L 324.777344 374.75 L 383.21875 356.355469 Z M 399.925781 351.605469 "/>
</g>
<path style=" stroke:none;fill-rule:nonzero;fill:rgb(39.99939%,39.99939%,39.99939%);fill-opacity:0.3;" d="M 231.390625 144.199219 L 233.210938 144.992188 L 231.003906 150.230469 L 229.085938 149.417969 L 229.84375 147.644531 L 228.289062 147.003906 L 229.035156 145.355469 L 230.628906 146.027344 Z M 231.390625 144.199219 "/>
<path style=" stroke:none;fill-rule:nonzero;fill:rgb(39.99939%,39.99939%,39.99939%);fill-opacity:0.3;" d="M 237.214844 146.980469 L 235.855469 146.507812 L 236.347656 145.367188 Z M 237.214844 146.980469 "/>
<path style=" stroke:none;fill-rule:nonzero;fill:rgb(39.99939%,39.99939%,39.99939%);fill-opacity:0.3;" d="M 236.851562 148.332031 L 236.183594 150.195312 L 237.851562 150.664062 L 237.296875 152.378906 L 235.675781 151.90625 L 235.042969 153.722656 L 233.027344 153.15625 L 234.925781 147.808594 Z M 236.851562 148.332031 "/>
<path style=" stroke:none;fill-rule:nonzero;fill:rgb(39.99939%,39.99939%,39.99939%);fill-opacity:0.3;" d="M 350.769531 163.945312 L 277.183594 337.808594 L 274.5 334.164062 L 240.519531 270.273438 L 204.695312 288.371094 L 196.941406 290.953125 L 195.972656 295.796875 L 194.453125 293.839844 L 163.339844 233.851562 L 257.011719 193.921875 L 259.984375 195.433594 L 266.304688 212.464844 L 278.933594 223.9375 L 285.140625 227.808594 L 318.542969 149.328125 Z M 350.769531 163.945312 "/>
<g clip-path="url(#clip12)" clip-rule="nonzero">
<path style=" stroke:none;fill-rule:nonzero;fill:rgb(39.99939%,39.99939%,39.99939%);fill-opacity:0.3;" d="M 366.019531 139.578125 L 396.28125 154.679688 L 386.378906 172.667969 L 358.007812 158.246094 Z M 366.019531 139.578125 "/>
</g>
<path style=" stroke:none;fill-rule:nonzero;fill:rgb(39.99939%,39.99939%,39.99939%);fill-opacity:0.3;" d="M 234.5 141.933594 L 234.121094 142.835938 L 232.203125 142.019531 L 232.960938 140.246094 L 231.40625 139.605469 L 232.152344 137.957031 L 232.429688 138.074219 Z M 234.5 141.933594 "/>
<g clip-path="url(#clip13)" clip-rule="nonzero">
<path style=" stroke:none;fill-rule:nonzero;fill:rgb(39.99939%,39.99939%,39.99939%);fill-opacity:0.3;" d="M 350.769531 163.941406 L 318.542969 149.328125 L 285.140625 227.808594 L 278.949219 223.917969 L 266.304688 212.464844 L 259.988281 195.429688 L 257.011719 193.910156 L 163.339844 233.851562 L 141.789062 192.773438 L 140.566406 190.105469 L 229.441406 132.515625 L 231.886719 137.070312 L 226.644531 149.230469 L 226.992188 151.542969 L 234.757812 155.785156 L 236.761719 157.191406 L 239.34375 150.945312 L 242.738281 157.261719 L 251.601562 160.953125 L 249.753906 164.277344 L 301.53125 178.71875 L 325.054688 114.15625 L 337.476562 118.347656 L 344.894531 119.695312 L 350.703125 120.945312 L 356.765625 121.863281 L 366.714844 122.527344 Z M 350.769531 163.941406 "/>
</g>
<path style=" stroke:none;fill-rule:nonzero;fill:rgb(39.99939%,39.99939%,39.99939%);fill-opacity:0.3;" d="M 195.886719 17.339844 L 195.574219 16.492188 L 196.039062 15.496094 L 200.621094 12.433594 L 202.835938 12.652344 L 232.90625 22.324219 L 229.777344 33.65625 L 222.328125 29.667969 L 205.753906 22.230469 Z M 195.886719 17.339844 "/>
<path style=" stroke:none;fill-rule:nonzero;fill:rgb(39.99939%,39.99939%,39.99939%);fill-opacity:0.3;" d="M 273.605469 34.117188 L 276.332031 39.703125 L 335.007812 55.75 L 327.523438 81.128906 L 274.199219 55.773438 L 273.890625 55.117188 L 274.25 54.289062 L 275.046875 53.210938 L 276.460938 53.152344 L 308.660156 62.34375 L 308.785156 61.117188 L 274.707031 51.492188 L 263.085938 48.207031 L 262.964844 48.644531 L 262.839844 49.082031 L 273.453125 52.222656 L 272.105469 54.84375 L 232.121094 34.714844 L 235.503906 22.957031 Z M 273.605469 34.117188 "/>
<path style=" stroke:none;fill-rule:nonzero;fill:rgb(39.99939%,39.99939%,39.99939%);fill-opacity:0.3;" d="M 139.085938 -14.429688 L 140.074219 -17.53125 L 209.777344 -1.980469 L 210.054688 -0.664062 L 209.878906 0.601562 L 208.632812 2.378906 L 206.125 5.007812 L 203.40625 7.46875 L 195.503906 12.519531 L 192.308594 14.039062 L 190.707031 13.738281 L 188.578125 12.953125 L 174.324219 5.894531 L 141.480469 -10.367188 L 139.769531 -11.992188 Z M 139.085938 -14.429688 "/>
<g clip-path="url(#clip14)" clip-rule="nonzero">
<path style=" stroke:none;fill-rule:nonzero;fill:rgb(39.99939%,39.99939%,39.99939%);fill-opacity:0.3;" d="M 340.511719 49.972656 L 416.535156 71.203125 L 412.035156 94.453125 L 388.074219 87.6875 L 387.789062 88.679688 L 387.503906 89.675781 L 411.84375 96.585938 L 410.855469 116.628906 L 392.835938 115.472656 L 330.878906 83.730469 L 337.792969 59.5 L 346.558594 61.078125 L 347.148438 60.605469 L 348.953125 60.871094 L 349.078125 60.371094 L 346.882812 59.914062 L 347.023438 59.398438 L 338.25 57.925781 Z M 340.511719 49.972656 "/>
</g>
<path style=" stroke:none;fill-rule:nonzero;fill:rgb(39.99939%,39.99939%,39.99939%);fill-opacity:0.3;" d="M 237.070312 4.109375 L 343.359375 27.832031 L 341.714844 34.832031 L 333.582031 32.433594 L 333.324219 33.171875 L 333.097656 33.824219 L 341.042969 36.140625 L 335.632812 51.941406 L 279.867188 36.367188 L 278.261719 33.320312 L 275.175781 31.210938 L 232.429688 18.511719 Z M 237.070312 4.109375 "/>
<path style=" stroke:none;fill-rule:nonzero;fill:rgb(39.99939%,39.99939%,39.99939%);fill-opacity:0.3;" d="M 233.886719 3.398438 L 229.527344 17.523438 L 203.210938 9.585938 L 204.578125 9 L 205.46875 8.15625 L 206.769531 7.308594 L 208.339844 5.8125 L 210.050781 4.058594 L 211.417969 1.714844 L 211.964844 0.480469 L 211.964844 -0.882812 L 211.894531 -1.507812 Z M 233.886719 3.398438 "/>
<g clip-path="url(#clip15)" clip-rule="nonzero">
<path style=" stroke:none;fill-rule:nonzero;fill:rgb(39.99939%,39.99939%,39.99939%);fill-opacity:0.3;" d="M 347.1875 28.664062 L 420.832031 44.203125 L 416.953125 69.46875 L 341.136719 48.609375 Z M 347.1875 28.664062 "/>
</g>
<g clip-path="url(#clip16)" clip-rule="nonzero">
<path style=" stroke:none;fill-rule:nonzero;fill:rgb(39.99939%,39.99939%,39.99939%);fill-opacity:0.3;" d="M 187.386719 22.3125 L 194.734375 26.0625 L 244.359375 50.800781 L 365.488281 111.5 L 369.914062 114.722656 L 370.058594 115.058594 L 368.023438 116.164062 L 362.164062 116.316406 L 352.191406 115.570312 L 340.378906 113.070312 L 328.222656 109.132812 L 311.125 102.285156 L 285.679688 91.222656 L 261.535156 81.839844 L 248.707031 77.511719 L 185.152344 56.15625 L 174.382812 52.25 L 170.164062 49.886719 L 167.597656 47.453125 L 167.492188 45.625 L 172.390625 37.144531 L 182.417969 21.941406 L 183.808594 21.203125 L 185.480469 21.304688 Z M 187.386719 22.3125 "/>
</g>
<path style=" stroke:none;fill-rule:nonzero;fill:rgb(39.99939%,39.99939%,39.99939%);fill-opacity:0.3;" d="M 201.019531 43.898438 L 207.738281 46.175781 L 206.808594 48.351562 L 209.980469 49.542969 L 208.660156 52.527344 L 205.550781 51.335938 L 204.695312 53.472656 L 197.980469 51.089844 L 198.773438 49.109375 L 195.589844 47.984375 L 196.839844 45.128906 L 200.027344 46.25 Z M 201.019531 43.898438 "/>
<path style=" stroke:none;fill-rule:nonzero;fill:rgb(39.99939%,39.99939%,39.99939%);fill-opacity:0.3;" d="M 219.335938 49.292969 L 226.054688 51.570312 L 225.125 53.746094 L 228.296875 54.941406 L 226.972656 57.921875 L 223.867188 56.730469 L 223.011719 58.867188 L 216.296875 56.484375 L 217.089844 54.503906 L 213.90625 53.382812 L 215.15625 50.523438 L 218.34375 51.648438 Z M 219.335938 49.292969 "/>
<path style=" stroke:none;fill-rule:nonzero;fill:rgb(39.99939%,39.99939%,39.99939%);fill-opacity:0.3;" d="M 183.792969 38.707031 L 190.511719 40.984375 L 189.582031 43.160156 L 192.753906 44.351562 L 191.433594 47.335938 L 188.324219 46.144531 L 187.46875 48.28125 L 180.753906 45.898438 L 181.546875 43.917969 L 178.363281 42.792969 L 179.617188 39.9375 L 182.800781 41.058594 Z M 183.792969 38.707031 "/>
<path style=" stroke:none;fill-rule:nonzero;fill:rgb(39.99939%,39.99939%,39.99939%);fill-opacity:0.3;" d="M 204.464844 34.148438 L 211.179688 36.425781 L 210.25 38.601562 L 213.421875 39.796875 L 212.101562 42.777344 L 208.996094 41.585938 L 208.136719 43.722656 L 201.425781 41.339844 L 202.21875 39.359375 L 199.03125 38.238281 L 200.285156 35.382812 L 203.472656 36.503906 Z M 204.464844 34.148438 "/>
<path style=" stroke:none;fill-rule:nonzero;fill:rgb(39.99939%,39.99939%,39.99939%);fill-opacity:0.3;" d="M 237.109375 54.175781 L 243.824219 56.453125 L 242.894531 58.628906 L 246.066406 59.824219 L 244.746094 62.804688 L 241.640625 61.617188 L 240.78125 63.753906 L 234.070312 61.367188 L 234.863281 59.386719 L 231.675781 58.265625 L 232.929688 55.40625 L 236.117188 56.53125 Z M 237.109375 54.175781 "/>
<path style=" stroke:none;fill-rule:nonzero;fill:rgb(39.99939%,39.99939%,39.99939%);fill-opacity:0.3;" d="M 254.519531 59.613281 L 261.238281 61.890625 L 260.308594 64.070312 L 263.480469 65.261719 L 262.15625 68.246094 L 259.050781 67.054688 L 258.191406 69.191406 L 251.480469 66.808594 L 252.273438 64.828125 L 249.089844 63.703125 L 250.339844 60.847656 L 253.527344 61.96875 Z M 254.519531 59.613281 "/>
<path style=" stroke:none;fill-rule:nonzero;fill:rgb(39.99939%,39.99939%,39.99939%);fill-opacity:0.3;" d="M 146.480469 2.96875 L 151.5625 5.363281 L 147.875 11.726562 L 150.808594 13.464844 L 147.472656 19.21875 L 142.507812 16.617188 L 145.933594 10.707031 L 142.910156 9.125 Z M 146.480469 2.96875 "/>
<path style=" stroke:none;fill-rule:nonzero;fill:rgb(39.99939%,39.99939%,39.99939%);fill-opacity:0.3;" d="M 93.273438 23.867188 L 96.488281 18.320312 L 100.609375 20.476562 L 97.394531 26.023438 Z M 93.273438 23.867188 "/>
<path style=" stroke:none;fill-rule:nonzero;fill:rgb(39.99939%,39.99939%,39.99939%);fill-opacity:0.3;" d="M 115.863281 35.421875 L 119.078125 29.878906 L 123.199219 32.035156 L 119.984375 37.582031 Z M 115.863281 35.421875 "/>
<path style=" stroke:none;fill-rule:nonzero;fill:rgb(39.99939%,39.99939%,39.99939%);fill-opacity:0.3;" d="M 130.503906 36.617188 L 141.367188 17.878906 L 146.6875 20.664062 L 135.824219 39.402344 Z M 130.503906 36.617188 "/>
<path style=" stroke:none;fill-rule:nonzero;fill:rgb(39.99939%,39.99939%,39.99939%);fill-opacity:0.3;" d="M 171.144531 16.167969 L 176.027344 18.726562 L 172.832031 24.242188 L 169.476562 22.589844 L 166.28125 28.105469 L 161.394531 25.546875 L 164.59375 20.035156 L 167.945312 21.683594 Z M 171.144531 16.167969 "/>
<path style=" stroke:none;fill-rule:nonzero;fill:rgb(39.99939%,39.99939%,39.99939%);fill-opacity:0.3;" d="M 150.683594 38.96875 L 157.625 26.992188 L 162.617188 29.605469 L 155.675781 41.582031 Z M 150.683594 38.96875 "/>
<path style=" stroke:none;fill-rule:nonzero;fill:rgb(39.99939%,39.99939%,39.99939%);fill-opacity:0.3;" d="M 101.035156 35.371094 L 108.058594 23.253906 L 113.335938 26.015625 L 106.308594 38.136719 Z M 101.035156 35.371094 "/>
<path style=" stroke:none;fill-rule:nonzero;fill:rgb(39.99939%,39.99939%,39.99939%);fill-opacity:0.3;" d="M 151.867188 21.039062 L 158.808594 9.0625 L 163.800781 11.675781 L 156.859375 23.652344 Z M 151.867188 21.039062 "/>
<path style=" stroke:none;fill-rule:nonzero;fill:rgb(39.99939%,39.99939%,39.99939%);fill-opacity:0.3;" d="M 179.710938 20.148438 L 164.867188 44.371094 L 164.742188 47.800781 L 166.617188 50.476562 L 171.46875 53.703125 L 179.429688 56.582031 L 179.34375 57.953125 L 172.910156 57.957031 L 165.609375 57.667969 L 157.425781 57.085938 L 147.171875 56.179688 L 135.585938 54.910156 L 122.699219 53.03125 L 111.757812 50.40625 L 107.332031 48.621094 L 103.132812 45.503906 L 99.121094 41.347656 L 96.195312 37.539062 L 93.542969 31.570312 L 81.203125 2.429688 L 71.335938 -20.382812 L 71.152344 -21.382812 L 71.515625 -23.039062 L 72.617188 -25.046875 L 75.460938 -27.488281 L 79.773438 -28.570312 L 83.132812 -28.269531 L 87.128906 -26.90625 L 92.085938 -24.78125 L 130.578125 -4.671875 L 158.292969 8.246094 L 179.59375 19.433594 Z M 179.710938 20.148438 "/>
<path style=" stroke:none;fill-rule:nonzero;fill:rgb(39.99939%,39.99939%,39.99939%);fill-opacity:0.3;" d="M 184.457031 60.121094 L 185.636719 59.996094 L 186.484375 60.296875 Z M 184.457031 60.121094 "/>
<path style=" stroke:none;fill-rule:nonzero;fill:rgb(39.99939%,39.99939%,39.99939%);fill-opacity:0.3;" d="M 88.816406 167 L 92.742188 161.890625 L 97.761719 164.847656 L 93.96875 170.171875 Z M 88.816406 167 "/>
<path style=" stroke:none;fill-rule:nonzero;fill:rgb(39.99939%,39.99939%,39.99939%);fill-opacity:0.3;" d="M 72.101562 165.179688 L 67.9375 170.96875 L 58.039062 164.261719 L 60.601562 160.929688 L 62.304688 158.738281 Z M 72.101562 165.179688 "/>
<path style=" stroke:none;fill-rule:nonzero;fill:rgb(39.99939%,39.99939%,39.99939%);fill-opacity:0.3;" d="M 59.59375 152.480469 L 64.585938 155.851562 L 62.300781 158.738281 L 60.59375 160.925781 L 55.65625 157.683594 Z M 59.59375 152.480469 "/>
<path style=" stroke:none;fill-rule:nonzero;fill:rgb(39.99939%,39.99939%,39.99939%);fill-opacity:0.3;" d="M 114.835938 131.679688 L 115.023438 134.609375 L 42.039062 147.621094 L 41.828125 145.441406 L 68.417969 139.53125 L 83.558594 137.6875 L 105.71875 134.363281 Z M 114.835938 131.679688 "/>
<path style=" stroke:none;fill-rule:nonzero;fill:rgb(39.99939%,39.99939%,39.99939%);fill-opacity:0.3;" d="M 115.109375 134.914062 L 120.394531 154.53125 L 109.042969 156.152344 L 96.855469 174.25 L 85.035156 176.464844 L 80.972656 181.265625 L 73.957031 182.375 L 51.429688 184.589844 L 45.519531 169.449219 L 42.933594 156.890625 L 42.066406 147.9375 Z M 115.109375 134.914062 "/>
<path style=" stroke:none;fill-rule:nonzero;fill:rgb(39.99939%,39.99939%,39.99939%);fill-opacity:0.3;" d="M 89.277344 163.761719 L 79.828125 157.1875 L 84.027344 151.417969 L 93.597656 157.851562 Z M 89.277344 163.761719 "/>
<path style=" stroke:none;fill-rule:nonzero;fill:rgb(39.99939%,39.99939%,39.99939%);fill-opacity:0.3;" d="M 112.535156 155.652344 L 112.625 155.53125 L 112.777344 155.617188 Z M 112.535156 155.652344 "/>
<path style=" stroke:none;fill-rule:nonzero;fill:rgb(39.99939%,39.99939%,39.99939%);fill-opacity:0.3;" d="M 80.574219 153.453125 L 76.53125 158.984375 L 66.402344 152.832031 L 70.753906 147.132812 Z M 80.574219 153.453125 "/>
<path style=" stroke:none;fill-rule:nonzero;fill:rgb(39.99939%,39.99939%,39.99939%);fill-opacity:0.3;" d="M 75.53125 162.878906 L 84.789062 169.042969 L 80.960938 174.554688 L 71.570312 167.886719 Z M 75.53125 162.878906 "/>
<path style=" stroke:none;fill-rule:nonzero;fill:rgb(39.99939%,39.99939%,39.99939%);fill-opacity:0.3;" d="M 105.339844 154.273438 L 101.644531 159.785156 L 86.042969 148.777344 L 90.363281 143.15625 Z M 105.339844 154.273438 "/>
<path style=" stroke:none;fill-rule:nonzero;fill:rgb(39.99939%,39.99939%,39.99939%);fill-opacity:0.3;" d="M -0.148438 198.195312 L 0.5625 199.878906 L -4.789062 222.5625 L -14.589844 220.082031 L -15.742188 218.402344 L -8.613281 195.207031 L -5.191406 196.265625 Z M -0.148438 198.195312 "/>
<path style=" stroke:none;fill-rule:nonzero;fill:rgb(39.99939%,39.99939%,39.99939%);fill-opacity:0.3;" d="M 7.015625 200.492188 L 7.316406 213.496094 L 5.8125 217.351562 L 2.996094 220.363281 L -1.679688 223.210938 L -2.652344 223.464844 L -2.832031 222.488281 L 2.875 199.171875 L 4.503906 199.480469 Z M 7.015625 200.492188 "/>
<path style=" stroke:none;fill-rule:nonzero;fill:rgb(39.99939%,39.99939%,39.99939%);fill-opacity:0.3;" d="M -14.546875 46.695312 L -10.132812 46.601562 L -1.386719 46.261719 L -4.402344 68.757812 L -3.4375 68.828125 L -2.472656 68.894531 L 0.746094 46.257812 L 12.980469 45.28125 L 10.128906 61.90625 L 11.160156 61.960938 L 12.1875 62.015625 L 15.085938 45.28125 L 22.9375 45.273438 L 28.085938 46.140625 L 31.976562 46.789062 L 38.957031 48.199219 L 40.5625 48.523438 L 45.597656 49.171875 L 51.707031 49.917969 L 54.503906 52.570312 L 54.132812 57.699219 L 46.453125 83.230469 L 12.253906 88.464844 L 12.753906 91.902344 L 46.703125 86.550781 L 39.445312 121.660156 L 31.0625 138.375 L 25.945312 140.273438 L -6.1875 132.144531 L -27.605469 128.453125 L -31.300781 127.34375 L -29.820312 121.066406 L -27.605469 116.265625 L -20.589844 77.488281 L -19.480469 74.902344 L -18.003906 71.945312 Z M -14.546875 46.695312 "/>
<path style=" stroke:none;fill-rule:nonzero;fill:rgb(39.99939%,39.99939%,39.99939%);fill-opacity:0.3;" d="M 16.316406 121.054688 L 15.195312 125.414062 L -7.871094 119.621094 L -6.882812 115.347656 Z M 16.316406 121.054688 "/>
<path style=" stroke:none;fill-rule:nonzero;fill:rgb(39.99939%,39.99939%,39.99939%);fill-opacity:0.3;" d="M 44.234375 121.3125 L 48.09375 104.316406 L 48.441406 104.269531 L 47.734375 107.03125 L 44.410156 120.699219 Z M 44.234375 121.3125 "/>
<path style=" stroke:none;fill-rule:nonzero;fill:rgb(39.99939%,39.99939%,39.99939%);fill-opacity:0.3;" d="M 17.070312 114.28125 L 16 118.398438 L -6.132812 113.003906 L -4.972656 108.90625 Z M 17.070312 114.28125 "/>
<path style=" stroke:none;fill-rule:nonzero;fill:rgb(39.99939%,39.99939%,39.99939%);fill-opacity:0.3;" d="M -3.449219 127.265625 L 26.683594 134.925781 L 25.335938 140.117188 L -4.914062 132.46875 Z M -3.449219 127.265625 "/>
<path style=" stroke:none;fill-rule:nonzero;fill:rgb(39.99939%,39.99939%,39.99939%);fill-opacity:0.3;" d="M 27.597656 111.148438 L 31.507812 112.402344 L 28.90625 125.417969 L 24.46875 125.421875 Z M 27.597656 111.148438 "/>
<path style=" stroke:none;fill-rule:nonzero;fill:rgb(39.99939%,39.99939%,39.99939%);fill-opacity:0.3;" d="M -4.910156 101.648438 L 24.777344 109.261719 L 23.660156 113.539062 L -6.140625 105.902344 Z M -4.910156 101.648438 "/>
<path style=" stroke:none;fill-rule:nonzero;fill:rgb(39.99939%,39.99939%,39.99939%);fill-opacity:0.3;" d="M -19.285156 123.136719 L -27.53125 121.042969 L -26.449219 116.523438 L 27.992188 130.363281 L 26.707031 134.828125 L -3.4375 127.164062 L -9.898438 125.523438 Z M -19.285156 123.136719 "/>
<path style=" stroke:none;fill-rule:nonzero;fill:rgb(39.99939%,39.99939%,39.99939%);fill-opacity:0.3;" d="M 48.441406 104.265625 L 48.09375 104.316406 L 51.027344 91.601562 L 56.039062 68.710938 L 58.351562 60.039062 L 58.445312 60.5 L 56.230469 71.578125 L 52.535156 88.195312 Z M 48.441406 104.265625 "/>
<path style=" stroke:none;fill-rule:nonzero;fill:rgb(39.99939%,39.99939%,39.99939%);fill-opacity:0.3;" d="M 277.183594 337.808594 L 269.886719 355.054688 L 204.089844 304.253906 L 199.660156 300.542969 L 195.972656 295.796875 L 196.941406 290.953125 L 204.695312 288.371094 L 240.519531 270.273438 L 274.5 334.164062 Z M 277.183594 337.808594 "/>
<g clip-path="url(#clip17)" clip-rule="nonzero">
<path style=" stroke:none;fill-rule:nonzero;fill:rgb(39.99939%,39.99939%,39.99939%);fill-opacity:0.3;" d="M 205.296875 316.921875 L 268.0625 366.261719 L 268.390625 367.191406 L 268.609375 368.324219 L 267.996094 370.230469 L 263.675781 382.332031 L 252.054688 409.515625 Z M 205.296875 316.921875 "/>
</g>
<g clip-path="url(#clip18)" clip-rule="nonzero">
<path style=" stroke:none;fill-rule:nonzero;fill:rgb(39.99939%,39.99939%,39.99939%);fill-opacity:0.3;" d="M 278.539062 359.886719 L 282.761719 358.714844 L 283.355469 360.632812 L 279.136719 361.800781 Z M 278.539062 359.886719 "/>
</g>
<g clip-path="url(#clip19)" clip-rule="nonzero">
<path style=" stroke:none;fill-rule:nonzero;fill:rgb(39.99939%,39.99939%,39.99939%);fill-opacity:0.3;" d="M 333.679688 365.070312 L 324.703125 367.996094 L 329.074219 357.3125 Z M 333.679688 365.070312 "/>
</g>
<g clip-path="url(#clip20)" clip-rule="nonzero">
<path style=" stroke:none;fill-rule:nonzero;fill:rgb(39.99939%,39.99939%,39.99939%);fill-opacity:0.3;" d="M 285.25 361.042969 L 289.46875 359.875 L 290.066406 361.789062 L 285.84375 362.957031 Z M 285.25 361.042969 "/>
</g>
<path style=" stroke:none;fill-rule:nonzero;fill:rgb(39.99939%,39.99939%,39.99939%);fill-opacity:0.3;" d="M 308.96875 305.199219 L 312.1875 306.507812 L 305.859375 320.734375 L 302.640625 319.429688 Z M 308.96875 305.199219 "/>
<path style=" stroke:none;fill-rule:nonzero;fill:rgb(39.99939%,39.99939%,39.99939%);fill-opacity:0.3;" d="M 329.859375 300.96875 L 328.378906 304.875 L 326.664062 304.363281 L 323.90625 311.542969 L 325.667969 312.257812 L 324.535156 315.21875 L 316.46875 312.230469 L 317.753906 309.316406 L 319.878906 310.121094 L 322.644531 302.835938 L 324.542969 303.464844 L 325.902344 299.59375 Z M 329.859375 300.96875 "/>
<path style=" stroke:none;fill-rule:nonzero;fill:rgb(39.99939%,39.99939%,39.99939%);fill-opacity:0.3;" d="M 357.121094 310.304688 L 338.058594 358.210938 L 327.714844 354.292969 L 346.175781 306.378906 Z M 357.121094 310.304688 "/>
<g clip-path="url(#clip21)" clip-rule="nonzero">
<path style=" stroke:none;fill-rule:nonzero;fill:rgb(39.99939%,39.99939%,39.99939%);fill-opacity:0.3;" d="M 373.933594 316.34375 L 360.214844 351.3125 L 357.457031 357.480469 L 342.550781 362.25 L 341.40625 359.679688 L 361.125 311.742188 Z M 373.933594 316.34375 "/>
</g>
<g clip-path="url(#clip22)" clip-rule="nonzero">
<path style=" stroke:none;fill-rule:nonzero;fill:rgb(39.99939%,39.99939%,39.99939%);fill-opacity:0.3;" d="M 377.453125 258.550781 L 358.179688 307.074219 L 347.710938 303.320312 L 366.746094 254.574219 Z M 377.453125 258.550781 "/>
</g>
<path style=" stroke:none;fill-rule:nonzero;fill:rgb(39.99939%,39.99939%,39.99939%);fill-opacity:0.3;" d="M 341.976562 283.351562 L 344.574219 284.25 L 343.207031 287.800781 L 342.046875 287.425781 L 341.582031 288.539062 L 342.796875 289.019531 L 341.242188 293.1875 L 342.921875 293.757812 L 343.363281 292.578125 L 345.632812 293.304688 L 344.457031 296.742188 L 343.171875 296.34375 L 342.804688 297.492188 L 344.082031 297.890625 L 342.976562 301.285156 L 340.308594 300.554688 L 340.65625 299.566406 L 339.230469 299.140625 L 338.894531 300.128906 L 336.34375 299.335938 L 337.617188 295.875 L 338.863281 296.261719 L 339.269531 295.140625 L 338.019531 294.753906 L 339.644531 290.375 L 338.039062 289.722656 L 337.480469 290.953125 L 335.144531 290.0625 L 336.542969 286.761719 L 337.746094 287.234375 L 338.175781 286.117188 L 336.964844 285.648438 L 338.398438 282.128906 L 340.554688 282.96875 L 340.082031 284.011719 L 341.453125 284.535156 Z M 341.976562 283.351562 "/>
<path style=" stroke:none;fill-rule:nonzero;fill:rgb(39.99939%,39.99939%,39.99939%);fill-opacity:0.3;" d="M 326.921875 286.75 L 326.558594 287.816406 L 327.929688 288.265625 L 328.296875 287.300781 L 330.652344 288.039062 L 329.273438 291.796875 L 327.992188 291.398438 L 327.757812 292.214844 L 328.933594 292.589844 L 327.8125 295.882812 L 325.5 295.027344 L 325.824219 293.90625 L 324.082031 293.277344 L 323.691406 294.316406 L 321.722656 293.585938 L 322.882812 290.542969 L 324.003906 290.941406 L 324.480469 289.726562 L 323.386719 289.339844 L 324.601562 285.898438 Z M 326.921875 286.75 "/>
<path style=" stroke:none;fill-rule:nonzero;fill:rgb(39.99939%,39.99939%,39.99939%);fill-opacity:0.3;" d="M 336.296875 304.457031 L 335.933594 305.523438 L 337.308594 305.972656 L 337.671875 305.007812 L 340.027344 305.75 L 338.648438 309.507812 L 337.371094 309.105469 L 337.136719 309.921875 L 338.308594 310.300781 L 337.191406 313.589844 L 334.878906 312.730469 L 335.203125 311.609375 L 333.460938 310.980469 L 333.070312 312.023438 L 331.101562 311.289062 L 332.257812 308.246094 L 333.378906 308.644531 L 333.859375 307.433594 L 332.761719 307.042969 L 333.976562 303.605469 Z M 336.296875 304.457031 "/>
<path style=" stroke:none;fill-rule:nonzero;fill:rgb(39.99939%,39.99939%,39.99939%);fill-opacity:0.3;" d="M 316.839844 297 L 316.476562 298.066406 L 317.847656 298.515625 L 318.214844 297.550781 L 320.570312 298.292969 L 319.191406 302.046875 L 317.914062 301.644531 L 317.679688 302.464844 L 318.851562 302.839844 L 317.734375 306.128906 L 315.417969 305.273438 L 315.742188 304.152344 L 314.003906 303.523438 L 313.613281 304.5625 L 311.644531 303.832031 L 312.800781 300.789062 L 313.921875 301.191406 L 314.398438 299.976562 L 313.304688 299.585938 L 314.519531 296.152344 Z M 316.839844 297 "/>
<path style=" stroke:none;fill-rule:nonzero;fill:rgb(39.99939%,39.99939%,39.99939%);fill-opacity:0.3;" d="M 295.171875 324.410156 L 299.125 326.011719 L 297.152344 330.441406 L 293.199219 328.839844 Z M 295.171875 324.410156 "/>
<path style=" stroke:none;fill-rule:nonzero;fill:rgb(39.99939%,39.99939%,39.99939%);fill-opacity:0.3;" d="M 315.542969 318.78125 L 315.179688 320.015625 L 316.589844 320.425781 L 316.902344 319.332031 L 319.132812 319.96875 L 317.953125 323.566406 L 316.703125 323.203125 L 316.308594 324.332031 L 317.558594 324.683594 L 316.496094 328.085938 L 314.089844 327.382812 L 314.457031 326.089844 L 312.777344 325.636719 L 311.183594 330.015625 L 309.960938 329.566406 L 309.542969 330.683594 L 310.769531 331.125 L 309.503906 334.578125 L 306.996094 333.671875 L 307.378906 332.699219 L 305.984375 332.179688 L 305.613281 333.15625 L 303.054688 332.128906 L 304.40625 328.828125 L 305.664062 329.28125 L 306.125 328.171875 L 304.863281 327.710938 L 306.191406 324.335938 L 308.433594 325.125 L 308.007812 326.308594 L 309.691406 326.871094 L 311.203125 322.695312 L 312.460938 323.050781 L 312.824219 321.90625 L 311.675781 321.503906 L 312.925781 317.925781 Z M 315.542969 318.78125 "/>
<path style=" stroke:none;fill-rule:nonzero;fill:rgb(39.99939%,39.99939%,39.99939%);fill-opacity:0.3;" d="M 327.601562 313.6875 L 331.113281 314.867188 L 321.089844 340.027344 L 317.382812 338.605469 L 318.613281 335.917969 L 315.539062 334.820312 L 316.519531 332.234375 L 319.511719 333.292969 L 324.335938 322.003906 L 321.359375 320.941406 L 322.433594 318.152344 L 325.359375 319.1875 Z M 327.601562 313.6875 "/>
<g clip-path="url(#clip23)" clip-rule="nonzero">
<path style=" stroke:none;fill-rule:nonzero;fill:rgb(39.99939%,39.99939%,39.99939%);fill-opacity:0.3;" d="M 329.332031 356.6875 L 337.050781 359.355469 L 334.738281 364.722656 L 333.679688 365.070312 L 329.074219 357.3125 Z M 329.332031 356.6875 "/>
</g>
<path style=" stroke:none;fill-rule:nonzero;fill:rgb(39.99939%,39.99939%,39.99939%);fill-opacity:0.3;" d="M 291.914062 329.585938 L 328.601562 345.476562 L 329.855469 346.011719 L 328.238281 349.109375 L 290.476562 332.550781 Z M 291.914062 329.585938 "/>
<path style=" stroke:none;fill-rule:nonzero;fill:rgb(39.99939%,39.99939%,39.99939%);fill-opacity:0.3;" d="M 331.335938 256.738281 L 327.984375 264.878906 L 334.527344 267.40625 L 333.445312 270.585938 L 326.746094 268.347656 L 322.738281 278.0625 L 328.71875 280.222656 L 327.480469 283.902344 L 317.5625 280.34375 L 327.46875 255.292969 Z M 331.335938 256.738281 "/>
<path style=" stroke:none;fill-rule:nonzero;fill:rgb(39.99939%,39.99939%,39.99939%);fill-opacity:0.3;" d="M 346.527344 214.449219 L 350.347656 215.964844 L 349.554688 218.011719 L 356.558594 220.511719 L 355.113281 223.710938 L 348.765625 221.433594 L 348.507812 222.003906 L 347.625 221.761719 L 341.117188 236.652344 L 353.378906 241.734375 L 351.84375 245.007812 L 342.632812 241.429688 L 343.125 240.125 L 340.421875 239.003906 L 340.765625 238.027344 L 336.34375 236.121094 Z M 346.527344 214.449219 "/>
<path style=" stroke:none;fill-rule:nonzero;fill:rgb(39.99939%,39.99939%,39.99939%);fill-opacity:0.3;" d="M 342.824219 203.785156 L 346.351562 205.242188 L 342.921875 212.777344 L 339.417969 211.328125 Z M 342.824219 203.785156 "/>
<path style=" stroke:none;fill-rule:nonzero;fill:rgb(39.99939%,39.99939%,39.99939%);fill-opacity:0.3;" d="M 353.054688 253.1875 L 351.820312 256.371094 L 350.027344 255.777344 L 346.925781 264.082031 L 343.652344 262.851562 L 346.574219 254.691406 L 343.589844 253.515625 L 344.761719 250.335938 Z M 353.054688 253.1875 "/>
<g clip-path="url(#clip24)" clip-rule="nonzero">
<path style=" stroke:none;fill-rule:nonzero;fill:rgb(39.99939%,39.99939%,39.99939%);fill-opacity:0.3;" d="M 358.097656 253.667969 L 357.734375 254.734375 L 359.109375 255.179688 L 359.472656 254.214844 L 361.828125 254.949219 L 360.449219 258.714844 L 359.167969 258.316406 L 358.933594 259.136719 L 360.109375 259.507812 L 358.988281 262.804688 L 356.671875 261.953125 L 356.996094 260.832031 L 355.253906 260.203125 L 354.863281 261.246094 L 352.894531 260.519531 L 354.054688 257.46875 L 355.175781 257.867188 L 355.65625 256.648438 L 354.558594 256.261719 L 355.777344 252.820312 Z M 358.097656 253.667969 "/>
</g>
<g clip-path="url(#clip25)" clip-rule="nonzero">
<path style=" stroke:none;fill-rule:nonzero;fill:rgb(39.99939%,39.99939%,39.99939%);fill-opacity:0.3;" d="M 406.902344 186.980469 L 403.949219 193.921875 L 352.414062 170.925781 L 356.734375 161.457031 Z M 406.902344 186.980469 "/>
</g>
<g clip-path="url(#clip26)" clip-rule="nonzero">
<path style=" stroke:none;fill-rule:nonzero;fill:rgb(39.99939%,39.99939%,39.99939%);fill-opacity:0.3;" d="M 342.824219 203.785156 L 338.71875 202.089844 L 350.210938 174.34375 L 400.808594 196.609375 L 377.296875 254.308594 L 372.691406 252.691406 L 385.070312 221.238281 L 384.527344 221.011719 L 383.992188 220.75 L 379.933594 219.042969 L 377.871094 218.261719 L 372.550781 216.0625 L 349.171875 206.40625 L 346.351562 205.242188 Z M 342.824219 203.785156 "/>
</g>
<path style=" stroke:none;fill-rule:nonzero;fill:rgb(39.99939%,39.99939%,39.99939%);fill-opacity:0.3;" d="M 338.621094 246.292969 L 341.21875 247.1875 L 339.851562 250.738281 L 338.691406 250.367188 L 338.226562 251.480469 L 339.441406 251.957031 L 337.882812 256.128906 L 339.566406 256.695312 L 340.007812 255.511719 L 342.277344 256.234375 L 341.101562 259.671875 L 339.816406 259.277344 L 339.449219 260.425781 L 340.726562 260.824219 L 339.617188 264.21875 L 336.949219 263.492188 L 337.296875 262.503906 L 335.871094 262.078125 L 335.535156 263.070312 L 332.984375 262.277344 L 334.261719 258.816406 L 335.507812 259.203125 L 335.910156 258.078125 L 334.664062 257.695312 L 336.285156 253.316406 L 334.683594 252.667969 L 334.121094 253.898438 L 331.785156 253.007812 L 333.183594 249.707031 L 334.386719 250.179688 L 334.820312 249.0625 L 333.609375 248.597656 L 335.039062 245.074219 L 337.199219 245.910156 L 336.726562 246.953125 L 338.097656 247.476562 Z M 338.621094 246.292969 "/>
<g clip-path="url(#clip27)" clip-rule="nonzero">
<path style=" stroke:none;fill-rule:nonzero;fill:rgb(39.99939%,39.99939%,39.99939%);fill-opacity:0.3;" d="M 361.25 240.199219 L 360.886719 241.269531 L 362.261719 241.714844 L 362.625 240.75 L 364.980469 241.484375 L 363.597656 245.246094 L 362.320312 244.847656 L 362.085938 245.667969 L 363.261719 246.042969 L 362.136719 249.335938 L 359.824219 248.484375 L 360.148438 247.363281 L 358.40625 246.738281 L 358.015625 247.78125 L 356.046875 247.050781 L 357.207031 244.003906 L 358.328125 244.402344 L 358.808594 243.183594 L 357.710938 242.796875 L 358.929688 239.355469 Z M 361.25 240.199219 "/>
</g>
<g clip-path="url(#clip28)" clip-rule="nonzero">
<path style=" stroke:none;fill-rule:nonzero;fill:rgb(39.99939%,39.99939%,39.99939%);fill-opacity:0.3;" d="M 360.527344 223.722656 L 360.121094 224.949219 L 361.519531 225.398438 L 361.867188 224.3125 L 364.078125 225.011719 L 362.773438 228.578125 L 361.535156 228.183594 L 361.101562 229.300781 L 362.339844 229.6875 L 361.160156 233.066406 L 358.777344 232.296875 L 359.1875 231.011719 L 357.523438 230.515625 L 355.78125 234.855469 L 354.570312 234.375 L 354.113281 235.480469 L 355.324219 235.957031 L 353.941406 239.382812 L 351.464844 238.40625 L 351.878906 237.441406 L 350.503906 236.882812 L 350.097656 237.851562 L 347.574219 236.75 L 349.039062 233.480469 L 350.285156 233.96875 L 350.785156 232.871094 L 349.539062 232.375 L 350.980469 229.027344 L 353.199219 229.882812 L 352.730469 231.058594 L 354.398438 231.664062 L 356.050781 227.527344 L 357.296875 227.914062 L 357.703125 226.777344 L 356.5625 226.347656 L 357.9375 222.796875 Z M 360.527344 223.722656 "/>
</g>
<g clip-path="url(#clip29)" clip-rule="nonzero">
<path style=" stroke:none;fill-rule:nonzero;fill:rgb(39.99939%,39.99939%,39.99939%);fill-opacity:0.3;" d="M 349.171875 206.40625 L 372.546875 216.066406 L 369.859375 221.917969 L 346.503906 212.265625 Z M 349.171875 206.40625 "/>
</g>
<path style=" stroke:none;fill-rule:nonzero;fill:rgb(39.99939%,39.99939%,39.99939%);fill-opacity:0.3;" d="M 239.992188 141.921875 L 239.199219 143.738281 L 240.835938 144.3125 L 240.167969 145.988281 L 238.582031 145.421875 L 237.828125 147.195312 L 237.214844 146.980469 L 236.347656 145.367188 L 238.101562 141.285156 Z M 239.992188 141.921875 "/>
<path style=" stroke:none;fill-rule:nonzero;fill:rgb(39.99939%,39.99939%,39.99939%);fill-opacity:0.3;" d="M 237.039062 130.652344 L 238.863281 131.445312 L 236.652344 136.683594 L 234.734375 135.871094 L 235.492188 134.097656 L 233.9375 133.453125 L 234.683594 131.808594 L 236.277344 132.480469 Z M 237.039062 130.652344 "/>
<path style=" stroke:none;fill-rule:nonzero;fill:rgb(39.99939%,39.99939%,39.99939%);fill-opacity:0.3;" d="M 232.191406 105.84375 L 234.328125 106.542969 L 233.691406 108.429688 L 234.796875 108.800781 L 235.429688 107.09375 L 237.453125 107.671875 L 235.339844 113.46875 L 233.226562 112.808594 L 234.050781 110.480469 L 233.125 110.140625 L 232.253906 112.5 L 230.070312 111.820312 Z M 232.191406 105.84375 "/>
<path style=" stroke:none;fill-rule:nonzero;fill:rgb(39.99939%,39.99939%,39.99939%);fill-opacity:0.3;" d="M 252.933594 86.398438 L 255.113281 87.082031 L 254.433594 88.988281 L 255.402344 89.3125 L 256.085938 87.386719 L 258.222656 88.09375 L 256.082031 94.023438 L 253.96875 93.363281 L 254.792969 91.035156 L 253.828125 90.714844 L 252.996094 93.058594 L 250.8125 92.375 Z M 252.933594 86.398438 "/>
<path style=" stroke:none;fill-rule:nonzero;fill:rgb(39.99939%,39.99939%,39.99939%);fill-opacity:0.3;" d="M 251.832031 94.117188 L 251.242188 95.65625 L 252.628906 96.074219 L 252.136719 97.496094 L 250.792969 97.078125 L 250.234375 98.582031 L 248.566406 98.082031 L 250.234375 93.652344 Z M 251.832031 94.117188 "/>
<path style=" stroke:none;fill-rule:nonzero;fill:rgb(39.99939%,39.99939%,39.99939%);fill-opacity:0.3;" d="M 247.902344 99.535156 L 250.082031 100.21875 L 249.402344 102.125 L 250.371094 102.449219 L 251.054688 100.523438 L 253.222656 101.199219 L 251.050781 107.160156 L 248.9375 106.5 L 249.761719 104.171875 L 248.835938 103.832031 L 247.964844 106.195312 L 245.78125 105.511719 Z M 247.902344 99.535156 "/>
<path style=" stroke:none;fill-rule:nonzero;fill:rgb(39.99939%,39.99939%,39.99939%);fill-opacity:0.3;" d="M 247.933594 111.96875 L 247.265625 113.828125 L 248.933594 114.300781 L 248.378906 116.015625 L 246.757812 115.542969 L 246.121094 117.359375 L 244.109375 116.792969 L 246.007812 111.445312 Z M 247.933594 111.96875 "/>
<path style=" stroke:none;fill-rule:nonzero;fill:rgb(39.99939%,39.99939%,39.99939%);fill-opacity:0.3;" d="M 231.898438 121.070312 L 234.027344 121.867188 L 233.398438 123.660156 L 234.503906 124.03125 L 235.136719 122.320312 L 237.113281 123.003906 L 235.046875 128.695312 L 232.933594 128.035156 L 233.757812 125.707031 L 232.828125 125.367188 L 231.960938 127.730469 L 229.777344 127.046875 Z M 231.898438 121.070312 "/>
<path style=" stroke:none;fill-rule:nonzero;fill:rgb(39.99939%,39.99939%,39.99939%);fill-opacity:0.3;" d="M 242.484375 134.71875 L 241.75 136.558594 L 243.40625 137.082031 L 242.792969 138.777344 L 241.1875 138.257812 L 240.492188 140.054688 L 238.5 139.425781 L 240.574219 134.136719 Z M 242.484375 134.71875 "/>
<path style=" stroke:none;fill-rule:nonzero;fill:rgb(39.99939%,39.99939%,39.99939%);fill-opacity:0.3;" d="M 234.503906 136.800781 L 236.328125 137.59375 L 234.5 141.933594 L 232.429688 138.074219 L 233.746094 138.632812 Z M 234.503906 136.800781 "/>
<path style=" stroke:none;fill-rule:nonzero;fill:rgb(39.99939%,39.99939%,39.99939%);fill-opacity:0.3;" d="M 239.09375 108.183594 L 241.230469 108.882812 L 240.59375 110.773438 L 241.699219 111.144531 L 242.328125 109.4375 L 244.355469 110.011719 L 242.242188 115.808594 L 240.128906 115.148438 L 240.953125 112.820312 L 240.023438 112.480469 L 239.15625 114.84375 L 236.96875 114.160156 Z M 239.09375 108.183594 "/>
<path style=" stroke:none;fill-rule:nonzero;fill:rgb(39.99939%,39.99939%,39.99939%);fill-opacity:0.3;" d="M 240.453125 79.714844 L 248.84375 82.847656 L 239.410156 107.277344 L 231.484375 104.449219 Z M 240.453125 79.714844 "/>
<path style=" stroke:none;fill-rule:nonzero;fill:rgb(39.99939%,39.99939%,39.99939%);fill-opacity:0.3;" d="M 224.699219 114.574219 L 225.367188 116.589844 L 232.023438 136.75 L 231.886719 137.070312 L 229.441406 132.515625 L 224.640625 114.789062 Z M 224.699219 114.574219 "/>
<path style=" stroke:none;fill-rule:nonzero;fill:rgb(39.99939%,39.99939%,39.99939%);fill-opacity:0.3;" d="M 239.34375 150.945312 L 245.613281 135.789062 L 244.511719 135.175781 L 263.269531 89.929688 L 292.175781 101.089844 L 323.121094 113.503906 L 325.054688 114.15625 L 301.53125 178.71875 L 249.753906 164.277344 L 251.601562 160.953125 L 242.738281 157.261719 Z M 239.34375 150.945312 "/>
<path style=" stroke:none;fill-rule:nonzero;fill:rgb(39.99939%,39.99939%,39.99939%);fill-opacity:0.3;" d="M 55.046875 -25.929688 L 61 -17.894531 L 63.929688 -11.648438 L 66.796875 -0.519531 L 67.886719 6.175781 L 68.144531 11.363281 L 67.949219 16.621094 L 67.546875 22.632812 L 66.628906 27.140625 L 65.761719 28.742188 L 64.230469 27.964844 L 61.226562 24.226562 L 56.425781 18.289062 L 33.949219 -12.398438 Z M 55.046875 -25.929688 "/>
<path style=" stroke:none;fill-rule:nonzero;fill:rgb(39.99939%,39.99939%,39.99939%);fill-opacity:0.3;" d="M 38.191406 18.597656 L 47.023438 12.140625 L 59.699219 30.042969 L 55.933594 41.300781 Z M 38.191406 18.597656 "/>
<path style=" stroke:none;fill-rule:nonzero;fill:rgb(39.99939%,39.99939%,39.99939%);fill-opacity:0.3;" d="M 21.617188 -5.695312 L 29.886719 -11.144531 L 45.945312 9.710938 L 36.785156 15.601562 Z M 21.617188 -5.695312 "/>
<path style=" stroke:none;fill-rule:nonzero;fill:rgb(39.99939%,39.99939%,39.99939%);fill-opacity:0.3;" d="M 9.160156 2.25 L 18.230469 -3.589844 L 34.09375 17.777344 L 25.476562 24.4375 Z M 9.160156 2.25 "/>
<path style=" stroke:none;fill-rule:nonzero;fill:rgb(39.99939%,39.99939%,39.99939%);fill-opacity:0.3;" d="M -30.949219 14.261719 L -7.726562 9.757812 L -6.714844 9.757812 L -5.933594 10.203125 L -4.84375 10.941406 L 1.929688 19.273438 L 2.902344 20.921875 L 2.972656 21.578125 L 2.625 21.976562 L 1.863281 22.304688 L 0.679688 22.503906 L -0.5 22.636719 L -3.140625 22.113281 L -31.019531 14.855469 Z M -30.949219 14.261719 "/>
<path style=" stroke:none;fill-rule:nonzero;fill:rgb(39.99939%,39.99939%,39.99939%);fill-opacity:0.3;" d="M 35.851562 19.980469 L 54.988281 44.757812 L 43.132812 45.789062 L 26.957031 25.84375 Z M 35.851562 19.980469 "/>
<path style=" stroke:none;fill-rule:nonzero;fill:rgb(39.99939%,39.99939%,39.99939%);fill-opacity:0.3;" d="M -22.351562 20.246094 L 1.125 24.960938 L 3.03125 25.503906 L 4.582031 26.324219 L 5.90625 27.414062 L 13.1875 35.179688 L 12.761719 36.089844 L -4.292969 36.9375 L -5.292969 32.863281 L -6.835938 32.863281 L -5.585938 38.535156 L 14.953125 37.796875 L 17.996094 41.914062 L -22.675781 42.355469 L -23.5625 40.757812 L -23.0625 25.890625 L -22.960938 24.511719 Z M -22.351562 20.246094 "/>
<path style=" stroke:none;fill-rule:nonzero;fill:rgb(39.99939%,39.99939%,39.99939%);fill-opacity:0.3;" d="M -3.210938 9.371094 L 6.296875 4.292969 L 36.429688 43.476562 L 36.277344 44.101562 L 36.082031 44.566406 L 35.496094 44.65625 L 21.113281 41.707031 Z M -3.210938 9.371094 "/>
<path style=" stroke:none;fill-rule:nonzero;fill:rgb(39.99939%,39.99939%,39.99939%);fill-opacity:0.3;" d="M 70.625 -7.25 L 72.257812 -2.996094 L 77.402344 7.582031 L 82.257812 18.8125 L 86.542969 30.074219 L 87.300781 32.066406 L 86.789062 33.726562 L 86.136719 34.59375 L 84.757812 35.179688 L 81.898438 34.9375 L 73.628906 32.371094 L 69.644531 30.773438 L 69.5 29.03125 L 70.710938 22.679688 L 70.898438 12.457031 L 70.082031 2.574219 L 67.996094 -6.976562 L 66.09375 -12.449219 L 65.871094 -12.988281 L 66.25 -13.480469 L 67.0625 -13.28125 L 69.050781 -10.433594 Z M 70.625 -7.25 "/>
<path style=" stroke:none;fill-rule:nonzero;fill:rgb(39.99939%,39.99939%,39.99939%);fill-opacity:0.3;" d="M -74.789062 -103.582031 L -72.832031 -109.558594 L -71.617188 -116.015625 L -71.453125 -118.632812 L -70.351562 -118.921875 L -69.660156 -117.597656 L -67.589844 -111.527344 L -65.222656 -107.285156 L -61.425781 -102.441406 L -53 -92.851562 L -41.132812 -80.46875 L -15.503906 -55.328125 L 22.816406 -18.351562 L 22.585938 -16.835938 L -1.210938 -1.460938 L -5.824219 1.203125 L -11.230469 2.257812 L -13.25 2.195312 L -15.855469 1.578125 L -17.875 0.40625 L -18.894531 -0.621094 L -19.765625 -3.679688 L -17.84375 -11.917969 L -9.257812 -9.953125 L -9.058594 -11.113281 L -8.855469 -12.273438 L -17.558594 -14.265625 L -30.992188 -17.339844 L -28.96875 -23.386719 L -30.890625 -23.863281 L -32.800781 -17.679688 L -55.816406 -23.015625 L -54.0625 -29.074219 L -55.257812 -29.261719 L -56.910156 -23.265625 L -64.164062 -24.925781 L -61.101562 -37.410156 L -57.367188 -36.761719 L -57.300781 -37.214844 L -57.238281 -37.664062 L -60.867188 -38.371094 L -60.398438 -40.285156 L -61.261719 -40.464844 L -62.128906 -40.648438 L -62.738281 -38.277344 L -66.054688 -25.359375 L -99.578125 -33.023438 L -96.300781 -44.054688 L -91.808594 -54.140625 L -88.351562 -62.488281 L -81.105469 -85.628906 Z M -74.789062 -103.582031 "/>
<path style=" stroke:none;fill-rule:nonzero;fill:rgb(39.99939%,39.99939%,39.99939%);fill-opacity:0.3;" d="M 58.351562 60.039062 L 63.886719 39.304688 L 64.761719 39.496094 L 63.984375 42.402344 L 58.445312 60.5 Z M 58.351562 60.039062 "/>
<path style=" stroke:none;fill-rule:nonzero;fill:rgb(39.99939%,39.99939%,39.99939%);fill-opacity:0.3;" d="M 85.894531 114.800781 L 82.011719 119.117188 L 80.035156 117.488281 L 81.910156 115.492188 L 80.761719 114.527344 L 78.519531 116.929688 L 76.488281 115.25 L 80.707031 110.347656 L 82.789062 112.15625 L 81.386719 113.8125 L 82.609375 114.777344 L 84.015625 113.214844 Z M 85.894531 114.800781 "/>
<path style=" stroke:none;fill-rule:nonzero;fill:rgb(39.99939%,39.99939%,39.99939%);fill-opacity:0.3;" d="M 70.191406 111.582031 L 66.308594 115.898438 L 64.328125 114.269531 L 66.203125 112.273438 L 65.058594 111.308594 L 62.816406 113.710938 L 60.785156 112.03125 L 65 107.128906 L 67.085938 108.933594 L 65.679688 110.59375 L 66.90625 111.558594 L 68.3125 109.996094 Z M 70.191406 111.582031 "/>
<path style=" stroke:none;fill-rule:nonzero;fill:rgb(39.99939%,39.99939%,39.99939%);fill-opacity:0.3;" d="M 69.613281 118.351562 L 65.316406 123.128906 L 63.335938 121.472656 L 65.628906 119.046875 L 64.480469 118.082031 L 62.242188 120.484375 L 60.207031 118.800781 L 63.941406 114.460938 L 66.058594 116.230469 L 65.105469 117.363281 L 66.332031 118.328125 L 67.734375 116.769531 Z M 69.613281 118.351562 "/>
<path style=" stroke:none;fill-rule:nonzero;fill:rgb(39.99939%,39.99939%,39.99939%);fill-opacity:0.3;" d="M 70.257812 127.523438 L 66.71875 131.460938 L 64.703125 129.878906 L 66.273438 128.21875 L 65.125 127.25 L 63.488281 129.007812 L 61.382812 127.359375 L 65.070312 123.074219 L 67.15625 124.878906 L 65.75 126.535156 L 66.976562 127.5 L 68.382812 125.9375 Z M 70.257812 127.523438 "/>
<path style=" stroke:none;fill-rule:nonzero;fill:rgb(39.99939%,39.99939%,39.99939%);fill-opacity:0.3;" d="M 95.523438 122.78125 L 91.640625 127.097656 L 89.660156 125.46875 L 91.535156 123.476562 L 90.390625 122.507812 L 88.148438 124.910156 L 86.117188 123.230469 L 90.335938 118.332031 L 92.417969 120.136719 L 91.011719 121.792969 L 92.238281 122.757812 L 93.644531 121.199219 Z M 95.523438 122.78125 "/>
<path style=" stroke:none;fill-rule:nonzero;fill:rgb(39.99939%,39.99939%,39.99939%);fill-opacity:0.3;" d="M 94.144531 130.648438 L 89.847656 135.421875 L 87.863281 133.769531 L 90.15625 131.34375 L 89.007812 130.375 L 87.652344 131.820312 L 85.574219 130.132812 L 88.953125 126.199219 L 91.039062 128.003906 L 89.632812 129.660156 L 90.859375 130.625 L 92.265625 129.066406 Z M 94.144531 130.648438 "/>
<path style=" stroke:none;fill-rule:nonzero;fill:rgb(39.99939%,39.99939%,39.99939%);fill-opacity:0.3;" d="M 112.5 95.199219 L 114.835938 131.679688 L 105.71875 134.363281 L 83.558594 137.6875 L 68.417969 139.53125 L 41.828125 145.441406 L 40.617188 138.796875 L 41.738281 130.378906 L 43.382812 125.070312 L 44.234375 121.3125 L 44.410156 120.699219 L 47.734375 107.03125 L 48.441406 104.269531 Z M 112.5 95.199219 "/>
<path style=" stroke:none;fill-rule:nonzero;fill:rgb(39.99939%,39.99939%,39.99939%);fill-opacity:0.3;" d="M 93.949219 104.339844 L 90.066406 108.65625 L 88.085938 107.027344 L 89.964844 105.035156 L 88.816406 104.070312 L 86.574219 106.46875 L 84.542969 104.789062 L 88.761719 99.890625 L 90.84375 101.695312 L 89.441406 103.351562 L 90.664062 104.316406 L 92.070312 102.757812 Z M 93.949219 104.339844 "/>
<path style=" stroke:none;fill-rule:nonzero;fill:rgb(39.99939%,39.99939%,39.99939%);fill-opacity:0.3;" d="M 94.121094 113.183594 L 91.113281 116.878906 L 88.328125 114.820312 L 89.300781 113.605469 L 87.839844 112.554688 L 89.871094 109.90625 Z M 94.121094 113.183594 "/>
<path style=" stroke:none;fill-rule:nonzero;fill:rgb(39.99939%,39.99939%,39.99939%);fill-opacity:0.3;" d="M 77.398438 108.851562 L 73.515625 113.171875 L 71.539062 111.539062 L 73.414062 109.546875 L 72.265625 108.582031 L 70.027344 110.980469 L 67.996094 109.300781 L 72.210938 104.402344 L 74.296875 106.207031 L 72.890625 107.863281 L 74.117188 108.828125 L 75.519531 107.269531 Z M 77.398438 108.851562 "/>
<path style=" stroke:none;fill-rule:nonzero;fill:rgb(39.99939%,39.99939%,39.99939%);fill-opacity:0.3;" d="M 112.5 95.199219 L 48.441406 104.265625 L 52.535156 88.195312 L 56.230469 71.578125 L 84.296875 74.644531 L 105.964844 69.875 L 108.890625 78.136719 L 110.9375 85.480469 Z M 112.5 95.199219 "/>
<path style=" stroke:none;fill-rule:nonzero;fill:rgb(39.99939%,39.99939%,39.99939%);fill-opacity:0.3;" d="M 86.527344 107.660156 L 83.050781 111.476562 L 81.199219 109.882812 L 82.542969 108.351562 L 81.394531 107.386719 L 79.519531 109.417969 L 77.457031 107.726562 L 81.339844 103.207031 L 83.421875 105.015625 L 82.019531 106.671875 L 83.246094 107.636719 L 84.648438 106.074219 Z M 86.527344 107.660156 "/>
<path style=" stroke:none;fill-rule:nonzero;fill:rgb(39.99939%,39.99939%,39.99939%);fill-opacity:0.3;" d="M 102.710938 120.054688 L 98.824219 124.589844 L 96.84375 122.933594 L 98.988281 120.609375 L 97.847656 119.738281 L 95.746094 121.945312 L 93.714844 120.261719 L 97.59375 115.78125 L 99.703125 117.472656 L 98.234375 119.292969 L 99.398438 120.132812 L 100.84375 118.472656 Z M 102.710938 120.054688 "/>
<path style=" stroke:none;fill-rule:nonzero;fill:rgb(39.99939%,39.99939%,39.99939%);fill-opacity:0.3;" d="M 62.429688 121.257812 L 58.132812 126.03125 L 56.148438 124.375 L 58.441406 121.949219 L 57.296875 120.984375 L 55.054688 123.386719 L 53.023438 121.707031 L 57.238281 116.804688 L 59.324219 118.613281 L 57.917969 120.269531 L 59.144531 121.234375 L 60.550781 119.671875 Z M 62.429688 121.257812 "/>
<path style=" stroke:none;fill-rule:nonzero;fill:rgb(39.99939%,39.99939%,39.99939%);fill-opacity:0.3;" d="M 78.261719 132.894531 L 74.851562 136.808594 L 73.21875 135.5 L 74.722656 133.6875 L 73.867188 132.984375 L 72.351562 134.648438 L 70.445312 133.125 L 73.816406 129.222656 L 75.691406 130.847656 L 74.425781 132.339844 L 75.324219 133.046875 L 76.652344 131.570312 Z M 78.261719 132.894531 "/>
<path style=" stroke:none;fill-rule:nonzero;fill:rgb(39.99939%,39.99939%,39.99939%);fill-opacity:0.3;" d="M 87.277344 132.355469 L 83.554688 136.53125 L 81.769531 135.039062 L 83.832031 132.855469 L 82.800781 131.988281 L 80.785156 134.148438 L 78.957031 132.636719 L 82.464844 128.558594 L 84.496094 130.003906 L 83.363281 131.34375 L 84.464844 132.210938 L 85.589844 130.945312 Z M 87.277344 132.355469 "/>
<path style=" stroke:none;fill-rule:nonzero;fill:rgb(39.99939%,39.99939%,39.99939%);fill-opacity:0.3;" d="M 77.511719 124.667969 L 73.296875 129.324219 L 71.3125 127.667969 L 73.605469 125.242188 L 72.457031 124.277344 L 70.21875 126.679688 L 68.1875 125 L 72.402344 120.097656 L 74.488281 121.902344 L 73.082031 123.5625 L 74.308594 124.527344 L 75.605469 123.085938 Z M 77.511719 124.667969 "/>
<path style=" stroke:none;fill-rule:nonzero;fill:rgb(39.99939%,39.99939%,39.99939%);fill-opacity:0.3;" d="M 84.554688 122.25 L 80.261719 127.023438 L 78.277344 125.367188 L 80.570312 122.941406 L 79.421875 121.976562 L 77.441406 124.109375 L 75.386719 122.425781 L 79.367188 117.796875 L 81.453125 119.605469 L 80.046875 121.261719 L 81.273438 122.226562 L 82.679688 120.664062 Z M 84.554688 122.25 "/>
<path style=" stroke:none;fill-rule:nonzero;fill:rgb(39.99939%,39.99939%,39.99939%);fill-opacity:0.3;" d="M 64.761719 39.496094 L 93.867188 45.800781 L 101.742188 61.59375 L 105.65625 68.996094 L 105.964844 69.875 L 84.296875 74.644531 L 56.230469 71.578125 L 58.445312 60.5 L 63.984375 42.402344 Z M 64.761719 39.496094 "/>
<path style="fill-rule:nonzero;fill:rgb(39.99939%,39.99939%,39.99939%);fill-opacity:1;stroke-width:0.03;stroke-linecap:square;stroke-linejoin:miter;stroke:rgb(39.99939%,39.99939%,39.99939%);stroke-opacity:1;stroke-miterlimit:3.239307;" d="M 174.867188 250.308594 L 175.398438 250.707031 L 175.632812 251.238281 L 174.917969 250.773438 Z M 174.867188 250.308594 " transform="matrix(1,0,0,1,-74,-13)"/>
<path style="fill-rule:nonzero;fill:rgb(39.99939%,39.99939%,39.99939%);fill-opacity:1;stroke-width:0.03;stroke-linecap:square;stroke-linejoin:miter;stroke:rgb(39.99939%,39.99939%,39.99939%);stroke-opacity:1;stroke-miterlimit:3.239307;" d="M 248.554688 307.972656 L 256.796875 314.09375 L 251.738281 310.601562 Z M 248.554688 307.972656 " transform="matrix(1,0,0,1,-74,-13)"/>
<path style="fill-rule:nonzero;fill:rgb(39.99939%,39.99939%,39.99939%);fill-opacity:1;stroke-width:0.03;stroke-linecap:square;stroke-linejoin:miter;stroke:rgb(39.99939%,39.99939%,39.99939%);stroke-opacity:1;stroke-miterlimit:3.239307;" d="M 258.707031 315.410156 L 265.003906 315.324219 L 268.078125 321.570312 L 262.445312 317.988281 Z M 258.707031 315.410156 " transform="matrix(1,0,0,1,-74,-13)"/>
<path style="fill-rule:nonzero;fill:rgb(39.99939%,39.99939%,39.99939%);fill-opacity:1;stroke-width:0.03;stroke-linecap:square;stroke-linejoin:miter;stroke:rgb(39.99939%,39.99939%,39.99939%);stroke-opacity:1;stroke-miterlimit:3.239307;" d="M 194.394531 167.53125 L 200.167969 188.945312 L 126.828125 199.621094 L 125.429688 197.589844 L 147.957031 195.375 L 154.972656 194.265625 L 159.035156 189.464844 L 170.855469 187.25 L 183.042969 169.152344 Z M 194.394531 167.53125 " transform="matrix(1,0,0,1,-74,-13)"/>
<path style="fill-rule:nonzero;fill:rgb(39.99939%,39.99939%,39.99939%);fill-opacity:1;stroke-width:0.03;stroke-linecap:square;stroke-linejoin:miter;stroke:rgb(39.99939%,39.99939%,39.99939%);stroke-opacity:1;stroke-miterlimit:3.239307;" d="M 189.570312 175.207031 L 194.296875 178.222656 L 189.609375 185.035156 L 184.539062 181.777344 L 184.976562 181.167969 L 187.78125 177.585938 Z M 189.570312 175.207031 " transform="matrix(1,0,0,1,-74,-13)"/>
<path style="fill-rule:nonzero;fill:rgb(39.99939%,39.99939%,39.99939%);fill-opacity:1;stroke-width:0.03;stroke-linecap:square;stroke-linejoin:miter;stroke:rgb(39.99939%,39.99939%,39.99939%);stroke-opacity:1;stroke-miterlimit:3.239307;" d="M 189.566406 175.207031 L 187.78125 177.585938 L 182.421875 174.375 L 186.535156 168.652344 L 186.777344 168.617188 L 191.957031 171.644531 Z M 189.566406 175.207031 " transform="matrix(1,0,0,1,-74,-13)"/>
<path style="fill-rule:nonzero;fill:rgb(39.99939%,39.99939%,39.99939%);fill-opacity:1;stroke-width:0.03;stroke-linecap:square;stroke-linejoin:miter;stroke:rgb(39.99939%,39.99939%,39.99939%);stroke-opacity:1;stroke-miterlimit:3.239307;" d="M 184.972656 181.164062 L 184.539062 181.773438 L 180.828125 186.96875 L 175.65625 183.5 L 180.023438 177.847656 Z M 184.972656 181.164062 " transform="matrix(1,0,0,1,-74,-13)"/>
<path style="fill-rule:nonzero;fill:rgb(39.99939%,39.99939%,39.99939%);fill-opacity:1;stroke-width:0.03;stroke-linecap:square;stroke-linejoin:miter;stroke:rgb(39.99939%,39.99939%,39.99939%);stroke-opacity:1;stroke-miterlimit:3.239307;" d="M 214.566406 203.105469 L 209.128906 191.234375 L 200.144531 167.886719 L 195.914062 150.316406 L 195.320312 145.71875 L 192.230469 109.386719 L 190.421875 98.5 L 188.359375 89.769531 L 184.925781 81.015625 L 181.140625 73.648438 L 178.195312 68.132812 L 177.714844 66.261719 L 178.421875 65.363281 L 179.539062 64.8125 L 180.613281 64.429688 L 184.914062 65.960938 L 196.140625 68.652344 L 209.210938 70.5625 L 220.878906 71.835938 L 231.191406 72.746094 L 239.445312 73.339844 L 246.851562 73.628906 L 253.660156 73.625 L 258.457031 73.121094 L 260.484375 73.296875 L 311.539062 91.445312 L 298.234375 126.164062 L 298.699219 127.574219 L 298.640625 127.789062 L 303.441406 145.515625 Z M 214.566406 203.105469 " transform="matrix(1,0,0,1,-74,-13)"/>
<path style="fill-rule:nonzero;fill:rgb(39.99939%,39.99939%,39.99939%);fill-opacity:1;stroke-width:0.03;stroke-linecap:square;stroke-linejoin:miter;stroke:rgb(39.99939%,39.99939%,39.99939%);stroke-opacity:1;stroke-miterlimit:3.239307;" d="M 200.171875 188.953125 L 209.386719 209.851562 L 212.445312 265.882812 L 201.46875 266.027344 L 174.382812 245.6875 L 174.179688 243.753906 L 144.265625 221.597656 L 132.816406 208.300781 L 126.828125 199.621094 Z M 200.171875 188.953125 " transform="matrix(1,0,0,1,-74,-13)"/>
<path style="fill-rule:nonzero;fill:rgb(39.99939%,39.99939%,39.99939%);fill-opacity:1;stroke-width:0.03;stroke-linecap:square;stroke-linejoin:miter;stroke:rgb(39.99939%,39.99939%,39.99939%);stroke-opacity:1;stroke-miterlimit:3.239307;" d="M 261.347656 306.542969 L 260.472656 307.117188 L 258.738281 306.90625 L 215.234375 274.332031 L 211.863281 215.1875 L 211.824219 213.265625 L 211.785156 212.207031 L 212.003906 212.035156 L 212.507812 212.070312 L 212.832031 212.34375 L 219.191406 226.316406 Z M 261.347656 306.542969 " transform="matrix(1,0,0,1,-74,-13)"/>
<path style="fill-rule:nonzero;fill:rgb(39.99939%,39.99939%,39.99939%);fill-opacity:1;stroke-width:0.03;stroke-linecap:square;stroke-linejoin:miter;stroke:rgb(39.99939%,39.99939%,39.99939%);stroke-opacity:1;stroke-miterlimit:3.239307;" d="M 212.28125 278.878906 L 212.335938 279.664062 L 211.628906 278.917969 Z M 212.28125 278.878906 " transform="matrix(1,0,0,1,-74,-13)"/>
</g>
</svg>
