<?xml version="1.0" encoding="UTF-8"?>
<svg xmlns="http://www.w3.org/2000/svg" xmlns:xlink="http://www.w3.org/1999/xlink" width="361pt" height="361pt" viewBox="0 0 361 361" version="1.1">
<defs>
<clipPath id="clip1">
  <path d="M 185 330 L 237 330 L 237 360 L 185 360 Z M 185 330 "/>
</clipPath>
<clipPath id="clip2">
  <path d="M 187 340 L 245 340 L 245 360 L 187 360 Z M 187 340 "/>
</clipPath>
<clipPath id="clip3">
  <path d="M 191 355 L 251 355 L 251 360 L 191 360 Z M 191 355 "/>
</clipPath>
<clipPath id="clip4">
  <path d="M 231 285 L 330 285 L 330 360 L 231 360 Z M 231 285 "/>
</clipPath>
<clipPath id="clip5">
  <path d="M 253 326 L 344 326 L 344 360 L 253 360 Z M 253 326 "/>
</clipPath>
<clipPath id="clip6">
  <path d="M 293 345 L 335 345 L 335 360 L 293 360 Z M 293 345 "/>
</clipPath>
<clipPath id="clip7">
  <path d="M 357 342 L 360 342 L 360 347 L 357 347 Z M 357 342 "/>
</clipPath>
<clipPath id="clip8">
  <path d="M 317 352 L 360 352 L 360 360 L 317 360 Z M 317 352 "/>
</clipPath>
<clipPath id="clip9">
  <path d="M 287 348 L 349 348 L 349 360 L 287 360 Z M 287 348 "/>
</clipPath>
<clipPath id="clip10">
  <path d="M 346 283 L 360 283 L 360 314 L 346 314 Z M 346 283 "/>
</clipPath>
<clipPath id="clip11">
  <path d="M 352 249 L 360 249 L 360 281 L 352 281 Z M 352 249 "/>
</clipPath>
<clipPath id="clip12">
  <path d="M 309 217 L 360 217 L 360 305 L 309 305 Z M 309 217 "/>
</clipPath>
<clipPath id="clip13">
  <path d="M 342 244 L 360 244 L 360 276 L 342 276 Z M 342 244 "/>
</clipPath>
<clipPath id="clip14">
  <path d="M 357 213 L 360 213 L 360 248 L 357 248 Z M 357 213 "/>
</clipPath>
</defs>
<g id="surface5586">
<path style="fill-rule:nonzero;fill:rgb(0%,0%,0%);fill-opacity:1;stroke-width:0.03;stroke-linecap:square;stroke-linejoin:miter;stroke:rgb(0%,0%,0%);stroke-opacity:1;stroke-miterlimit:10;" d="M 0 178 L 360 178 L 360 -182 L 0 -182 Z M 0 178 " transform="matrix(1,0,0,1,0,182)"/>
<path style=" stroke:none;fill-rule:nonzero;fill:rgb(39.99939%,39.99939%,39.99939%);fill-opacity:0.3;" d="M 194.382812 234.324219 L 203.464844 230.59375 L 232.976562 282.382812 L 223.53125 286.183594 Z M 194.382812 234.324219 "/>
<path style=" stroke:none;fill-rule:nonzero;fill:rgb(39.99939%,39.99939%,39.99939%);fill-opacity:0.3;" d="M 205.855469 230.578125 L 214.933594 225.875 L 244.179688 277.875 L 236.632812 281.015625 L 234.882812 281.695312 Z M 205.855469 230.578125 "/>
<path style=" stroke:none;fill-rule:nonzero;fill:rgb(39.99939%,39.99939%,39.99939%);fill-opacity:0.3;" d="M 217.945312 224.964844 L 221.589844 222.917969 L 230.054688 233.703125 L 233.496094 236.183594 L 239.28125 245.582031 L 254.851562 273.601562 L 249.285156 276.019531 L 247.351562 276.816406 Z M 217.945312 224.964844 "/>
<path style=" stroke:none;fill-rule:nonzero;fill:rgb(39.99939%,39.99939%,39.99939%);fill-opacity:0.3;" d="M 240.671875 242.96875 L 268.496094 268.058594 L 259.398438 271.832031 L 256.917969 272.722656 L 239.710938 243.882812 Z M 240.671875 242.96875 "/>
<path style=" stroke:none;fill-rule:nonzero;fill:rgb(39.99939%,39.99939%,39.99939%);fill-opacity:0.3;" d="M 192.136719 235.25 L 220.960938 287.214844 L 211.203125 291.144531 L 182.503906 239.207031 Z M 192.136719 235.25 "/>
<path style=" stroke:none;fill-rule:nonzero;fill:rgb(39.99939%,39.99939%,39.99939%);fill-opacity:0.3;" d="M 159.722656 248.574219 L 169.417969 244.585938 L 197.589844 296.617188 L 187.714844 300.589844 Z M 159.722656 248.574219 "/>
<path style=" stroke:none;fill-rule:nonzero;fill:rgb(39.99939%,39.99939%,39.99939%);fill-opacity:0.3;" d="M 140.058594 256.441406 L 145.542969 254.230469 L 173.265625 306.402344 L 167.878906 308.570312 Z M 140.058594 256.441406 "/>
<path style=" stroke:none;fill-rule:nonzero;fill:rgb(39.99939%,39.99939%,39.99939%);fill-opacity:0.3;" d="M 147.460938 253.449219 L 157.46875 249.546875 L 185.648438 301.421875 L 176.101562 305.265625 Z M 147.460938 253.449219 "/>
<path style=" stroke:none;fill-rule:nonzero;fill:rgb(39.99939%,39.99939%,39.99939%);fill-opacity:0.3;" d="M 180.867188 239.878906 L 209.378906 291.875 L 199.582031 295.816406 L 171.617188 243.679688 Z M 180.867188 239.878906 "/>
<path style=" stroke:none;fill-rule:nonzero;fill:rgb(39.99939%,39.99939%,39.99939%);fill-opacity:0.3;" d="M 276.109375 265.832031 L 276.0625 265.878906 L 275.183594 266.109375 L 270.359375 261.316406 Z M 276.109375 265.832031 "/>
<path style=" stroke:none;fill-rule:nonzero;fill:rgb(39.99939%,39.99939%,39.99939%);fill-opacity:0.3;" d="M 253.34375 246.667969 L 252.679688 247.597656 L 246.8125 239.554688 L 247.542969 240.289062 L 252.589844 246.007812 Z M 253.34375 246.667969 "/>
<path style=" stroke:none;fill-rule:nonzero;fill:rgb(39.99939%,39.99939%,39.99939%);fill-opacity:0.3;" d="M 245.035156 237.777344 L 237.125 230.121094 L 220.363281 213.890625 L 225.339844 218.082031 L 229.375 222.121094 L 239.132812 231.875 Z M 245.035156 237.777344 "/>
<path style=" stroke:none;fill-rule:nonzero;fill:rgb(39.99939%,39.99939%,39.99939%);fill-opacity:0.3;" d="M 186.75 181.347656 L 182.582031 177.3125 L 184.628906 178.382812 Z M 186.75 181.347656 "/>
<path style=" stroke:none;fill-rule:nonzero;fill:rgb(39.99939%,39.99939%,39.99939%);fill-opacity:0.3;" d="M 98.414062 98.328125 L 107.898438 108.121094 L 77.136719 117.117188 L 72.660156 106.191406 Z M 98.414062 98.328125 "/>
<path style=" stroke:none;fill-rule:nonzero;fill:rgb(39.99939%,39.99939%,39.99939%);fill-opacity:0.3;" d="M 109.34375 109.578125 L 116.851562 117.558594 L 81.648438 128.132812 L 77.828125 118.804688 Z M 109.34375 109.578125 "/>
<path style=" stroke:none;fill-rule:nonzero;fill:rgb(39.99939%,39.99939%,39.99939%);fill-opacity:0.3;" d="M 118.402344 118.707031 L 125.347656 125.710938 L 118.972656 127.90625 L 86.332031 139.167969 L 82.378906 129.914062 Z M 118.402344 118.707031 "/>
<path style=" stroke:none;fill-rule:nonzero;fill:rgb(39.99939%,39.99939%,39.99939%);fill-opacity:0.3;" d="M 94.066406 138.285156 L 102.898438 135.238281 L 127.765625 191.34375 L 118.152344 194.933594 Z M 94.066406 138.285156 "/>
<path style=" stroke:none;fill-rule:nonzero;fill:rgb(39.99939%,39.99939%,39.99939%);fill-opacity:0.3;" d="M 104.515625 134.679688 L 114.851562 131.117188 L 138.871094 187.199219 L 129.78125 190.589844 Z M 104.515625 134.679688 "/>
<path style=" stroke:none;fill-rule:nonzero;fill:rgb(39.99939%,39.99939%,39.99939%);fill-opacity:0.3;" d="M 86.828125 140.78125 L 92.390625 138.863281 L 116.296875 195.683594 L 110.605469 197.75 Z M 86.828125 140.78125 "/>
<path style=" stroke:none;fill-rule:nonzero;fill:rgb(39.99939%,39.99939%,39.99939%);fill-opacity:0.3;" d="M 51.429688 51.429688 L 65.855469 65.746094 L 57.421875 68.988281 Z M 51.429688 51.429688 "/>
<path style=" stroke:none;fill-rule:nonzero;fill:rgb(39.99939%,39.99939%,39.99939%);fill-opacity:0.3;" d="M 87.695312 87.761719 L 96.738281 96.660156 L 71.917969 104.378906 L 67.929688 94.640625 Z M 87.695312 87.761719 "/>
<path style=" stroke:none;fill-rule:nonzero;fill:rgb(39.99939%,39.99939%,39.99939%);fill-opacity:0.3;" d="M 78.527344 78.519531 L 86.082031 86.136719 L 67.15625 92.753906 L 63.4375 83.675781 Z M 78.527344 78.519531 "/>
<path style=" stroke:none;fill-rule:nonzero;fill:rgb(39.99939%,39.99939%,39.99939%);fill-opacity:0.3;" d="M 67.777344 67.683594 L 76.933594 76.886719 L 62.703125 81.878906 L 58.238281 70.984375 Z M 67.777344 67.683594 "/>
<path style=" stroke:none;fill-rule:nonzero;fill:rgb(39.99939%,39.99939%,39.99939%);fill-opacity:0.3;" d="M 130.1875 192.878906 L 139.609375 189.363281 L 167.5 242.523438 L 158.308594 246.292969 Z M 130.1875 192.878906 "/>
<path style=" stroke:none;fill-rule:nonzero;fill:rgb(39.99939%,39.99939%,39.99939%);fill-opacity:0.3;" d="M 136.886719 133.664062 L 136.546875 133.960938 L 129.601562 126.78125 L 129.816406 126.597656 Z M 136.886719 133.664062 "/>
<path style=" stroke:none;fill-rule:nonzero;fill:rgb(39.99939%,39.99939%,39.99939%);fill-opacity:0.3;" d="M 141.359375 188.707031 L 151.738281 184.835938 L 178.871094 237.863281 L 169.503906 242.078125 Z M 141.359375 188.707031 "/>
<path style=" stroke:none;fill-rule:nonzero;fill:rgb(39.99939%,39.99939%,39.99939%);fill-opacity:0.3;" d="M 153.496094 184.179688 L 162.457031 180.835938 L 190.4375 233.117188 L 180.636719 237.136719 Z M 153.496094 184.179688 "/>
<path style=" stroke:none;fill-rule:nonzero;fill:rgb(39.99939%,39.99939%,39.99939%);fill-opacity:0.3;" d="M 110.597656 200.367188 L 117.128906 197.753906 L 143.011719 252.566406 L 135.800781 255.523438 Z M 110.597656 200.367188 "/>
<path style=" stroke:none;fill-rule:nonzero;fill:rgb(39.99939%,39.99939%,39.99939%);fill-opacity:0.3;" d="M 118.71875 197.160156 L 128.078125 193.667969 L 156.507812 247.03125 L 145.144531 251.550781 Z M 118.71875 197.160156 "/>
<path style=" stroke:none;fill-rule:nonzero;fill:rgb(39.99939%,39.99939%,39.99939%);fill-opacity:0.3;" d="M 164.585938 180.039062 L 174.5 176.339844 L 202.695312 228.09375 L 192.558594 232.25 Z M 164.585938 180.039062 "/>
<path style=" stroke:none;fill-rule:nonzero;fill:rgb(39.99939%,39.99939%,39.99939%);fill-opacity:0.3;" d="M 181.863281 186.855469 L 183.640625 185.824219 L 209.753906 211.894531 L 203.625 214.804688 L 205.40625 216.585938 L 211.4375 213.675781 L 219.953125 221.015625 L 204.664062 227.285156 Z M 181.863281 186.855469 "/>
<path style=" stroke:none;fill-rule:nonzero;fill:rgb(39.99939%,39.99939%,39.99939%);fill-opacity:0.3;" d="M 129.367188 130.488281 L 151.210938 153.046875 L 162.902344 178.230469 L 153.132812 181.875 Z M 129.367188 130.488281 "/>
<path style=" stroke:none;fill-rule:nonzero;fill:rgb(39.99939%,39.99939%,39.99939%);fill-opacity:0.3;" d="M 157.273438 158.390625 L 172.46875 174.660156 L 164.992188 177.449219 Z M 157.273438 158.390625 "/>
<path style=" stroke:none;fill-rule:nonzero;fill:rgb(39.99939%,39.99939%,39.99939%);fill-opacity:0.3;" d="M 116.453125 130.5625 L 125.386719 127.574219 L 150.28125 182.941406 L 141.578125 186.1875 Z M 116.453125 130.5625 "/>
<path style=" stroke:none;fill-rule:nonzero;fill:rgb(39.99939%,39.99939%,39.99939%);fill-opacity:0.3;" d="M 236.632812 281.015625 L 234.90625 281.734375 L 234.882812 281.695312 Z M 236.632812 281.015625 "/>
<path style=" stroke:none;fill-rule:nonzero;fill:rgb(39.99939%,39.99939%,39.99939%);fill-opacity:0.3;" d="M 249.285156 276.019531 L 247.371094 276.851562 L 247.351562 276.816406 Z M 249.285156 276.019531 "/>
<path style=" stroke:none;fill-rule:nonzero;fill:rgb(39.99939%,39.99939%,39.99939%);fill-opacity:0.3;" d="M 268.496094 268.058594 L 268.890625 268.414062 L 259.398438 271.832031 Z M 268.496094 268.058594 "/>
<path style=" stroke:none;fill-rule:nonzero;fill:rgb(39.99939%,39.99939%,39.99939%);fill-opacity:0.3;" d="M 225.214844 288.617188 L 270.195312 270.296875 L 304.703125 301.859375 L 295.738281 307.050781 L 268.527344 282.839844 L 230.382812 298.273438 Z M 225.214844 288.617188 "/>
<g clip-path="url(#clip1)" clip-rule="nonzero">
<path style=" stroke:none;fill-rule:nonzero;fill:rgb(39.99939%,39.99939%,39.99939%);fill-opacity:0.3;" d="M 185.441406 350.46875 L 233.199219 330.351562 L 236.996094 338.453125 L 186.867188 360.066406 L 185.757812 353.917969 Z M 185.441406 350.46875 "/>
</g>
<g clip-path="url(#clip2)" clip-rule="nonzero">
<path style=" stroke:none;fill-rule:nonzero;fill:rgb(39.99939%,39.99939%,39.99939%);fill-opacity:0.3;" d="M 187.820312 362.347656 L 237.15625 340.882812 L 241.113281 348.082031 L 234.472656 351.382812 L 234.914062 352.082031 L 235.421875 352.882812 L 242.617188 349.613281 L 244.753906 353.480469 L 231.574219 358.597656 L 228.140625 350.609375 L 227.386719 351.101562 L 226.632812 351.597656 L 229.863281 359.285156 L 222.015625 362.4375 L 218.972656 353.785156 L 218.359375 354.109375 L 217.550781 354.539062 L 220.640625 362.988281 L 212.460938 366.273438 L 209.644531 359.039062 L 208.789062 359.445312 L 207.746094 359.941406 L 210.59375 367.289062 L 201.898438 370.441406 L 199.363281 363.09375 L 198.480469 363.441406 L 197.46875 363.84375 L 200.027344 371.265625 L 190.828125 374.945312 Z M 187.820312 362.347656 "/>
</g>
<path style=" stroke:none;fill-rule:nonzero;fill:rgb(39.99939%,39.99939%,39.99939%);fill-opacity:0.3;" d="M 179.398438 335.785156 L 235.457031 313.675781 L 240.785156 324.5625 L 184.226562 348.722656 L 181.5625 340.675781 Z M 179.398438 335.785156 "/>
<g clip-path="url(#clip3)" clip-rule="nonzero">
<path style=" stroke:none;fill-rule:nonzero;fill:rgb(39.99939%,39.99939%,39.99939%);fill-opacity:0.3;" d="M 191.25 377.214844 L 245.5625 355.261719 L 250.859375 365.132812 L 195.085938 387.824219 Z M 191.25 377.214844 "/>
</g>
<g clip-path="url(#clip4)" clip-rule="nonzero">
<path style=" stroke:none;fill-rule:nonzero;fill:rgb(39.99939%,39.99939%,39.99939%);fill-opacity:0.3;" d="M 231.769531 300.917969 L 268.3125 285.480469 L 293.308594 307.628906 L 283.429688 312.820312 L 267.261719 297.207031 L 266.375 297.640625 L 265.242188 298.191406 L 303.777344 336.542969 L 305.316406 335.515625 L 306.859375 334.488281 L 285.726562 314.023438 L 295.605469 309.265625 L 315.519531 329.730469 L 318.253906 327.855469 L 298.492188 308.253906 L 306.699219 303.496094 L 329.347656 323.382812 L 329.652344 324.96875 L 328.589844 326.554688 L 318.050781 332.804688 L 295.613281 345.015625 L 265.816406 359.046875 L 253.96875 363.488281 L 249.210938 354.777344 L 281.933594 341.359375 L 296.054688 334.386719 L 295.367188 333.160156 L 294.683594 331.9375 L 289.558594 334.28125 L 285.34375 324.691406 L 284.457031 325.039062 L 283.570312 325.390625 L 287.757812 334.917969 L 278.828125 338.757812 L 274.832031 330.53125 L 274.066406 331.03125 L 273.296875 331.527344 L 277.457031 339.300781 L 269.167969 342.910156 L 264.621094 334.285156 L 263.761719 334.695312 L 262.902344 335.101562 L 267.417969 343.664062 L 258.460938 347.515625 L 254.511719 339.402344 L 253.640625 339.785156 L 252.765625 340.167969 L 256.710938 348.269531 L 247.726562 352.132812 L 240.191406 338.277344 L 280.6875 321.390625 L 280.035156 320.59375 L 279.382812 319.800781 L 239.742188 336.691406 L 235.507812 329.675781 L 273.097656 313.636719 L 272.203125 312.09375 L 271.425781 310.753906 L 242.667969 323.367188 L 237.84375 312.570312 L 262.15625 302.476562 L 261.394531 301.394531 L 260.636719 300.3125 L 236.625 310.554688 Z M 231.769531 300.917969 "/>
</g>
<g clip-path="url(#clip5)" clip-rule="nonzero">
<path style=" stroke:none;fill-rule:nonzero;fill:rgb(39.99939%,39.99939%,39.99939%);fill-opacity:0.3;" d="M 286.242188 362.597656 L 335.714844 334.535156 L 338.519531 332.019531 L 343.042969 336.457031 L 341.015625 340.300781 L 337.898438 342.078125 L 286.335938 370.78125 L 279.851562 364.414062 L 279.324219 364.800781 L 278.539062 365.375 L 284.425781 371.84375 L 278.941406 374.898438 L 265.742188 381.351562 L 262.660156 376.207031 L 258.675781 377.859375 L 253.878906 366.769531 L 276.167969 358.265625 L 328.539062 329.214844 L 330.566406 327.734375 L 332.125 326.402344 L 335.867188 330.839844 L 322.304688 339.417969 L 284.691406 360.652344 L 285.539062 361.714844 Z M 286.242188 362.597656 "/>
</g>
<g clip-path="url(#clip6)" clip-rule="nonzero">
<path style=" stroke:none;fill-rule:nonzero;fill:rgb(39.99939%,39.99939%,39.99939%);fill-opacity:0.3;" d="M 293.183594 368.484375 L 334.234375 345.070312 L 331.644531 349.09375 L 323.519531 357.699219 L 319.632812 362.726562 L 314.6875 366.527344 L 308.917969 369.878906 L 302.558594 373.902344 L 300.496094 375.195312 Z M 293.183594 368.484375 "/>
</g>
<path style=" stroke:none;fill-rule:nonzero;fill:rgb(39.99939%,39.99939%,39.99939%);fill-opacity:0.3;" d="M 189.203125 302.941406 L 223.03125 289.808594 L 228.347656 299.832031 L 194.53125 313.195312 Z M 189.203125 302.941406 "/>
<path style=" stroke:none;fill-rule:nonzero;fill:rgb(39.99939%,39.99939%,39.99939%);fill-opacity:0.3;" d="M 196.027344 315.089844 L 229.550781 302.101562 L 234.457031 311.609375 L 200.613281 324.871094 Z M 196.027344 315.089844 "/>
<path style=" stroke:none;fill-rule:nonzero;fill:rgb(39.99939%,39.99939%,39.99939%);fill-opacity:0.3;" d="M 169.78125 310.078125 L 186.871094 303.65625 L 192.390625 314.371094 L 174.734375 320.933594 Z M 169.78125 310.078125 "/>
<path style=" stroke:none;fill-rule:nonzero;fill:rgb(39.99939%,39.99939%,39.99939%);fill-opacity:0.3;" d="M 174.902344 323.773438 L 193.367188 316.273438 L 198.296875 325.855469 L 178.914062 334.070312 Z M 174.902344 323.773438 "/>
<g clip-path="url(#clip7)" clip-rule="nonzero">
<path style=" stroke:none;fill-rule:nonzero;fill:rgb(39.99939%,39.99939%,39.99939%);fill-opacity:0.3;" d="M 361.773438 345.3125 L 360.707031 346.917969 L 357.632812 344.292969 L 358.710938 342.683594 Z M 361.773438 345.3125 "/>
</g>
<path style=" stroke:none;fill-rule:nonzero;fill:rgb(39.99939%,39.99939%,39.99939%);fill-opacity:0.3;" d="M 345.847656 333.664062 L 345.984375 333.433594 L 349.148438 334.492188 L 356.566406 340.847656 L 355.59375 342.3125 Z M 345.847656 333.664062 "/>
<path style=" stroke:none;fill-rule:nonzero;fill:rgb(39.99939%,39.99939%,39.99939%);fill-opacity:0.3;" d="M 284.777344 274.476562 L 284.445312 274.808594 L 277.117188 268.472656 L 277.9375 267.652344 L 284.554688 274.269531 Z M 284.777344 274.476562 "/>
<path style=" stroke:none;fill-rule:nonzero;fill:rgb(39.99939%,39.99939%,39.99939%);fill-opacity:0.3;" d="M 293.445312 282.484375 L 293.265625 282.664062 L 285.742188 275.9375 L 286.042969 275.644531 L 293.300781 282.34375 Z M 293.445312 282.484375 "/>
<path style=" stroke:none;fill-rule:nonzero;fill:rgb(39.99939%,39.99939%,39.99939%);fill-opacity:0.3;" d="M 276.0625 265.878906 L 275.503906 266.429688 L 275.183594 266.109375 Z M 276.0625 265.878906 "/>
<path style=" stroke:none;fill-rule:nonzero;fill:rgb(39.99939%,39.99939%,39.99939%);fill-opacity:0.3;" d="M 335.660156 348.199219 L 344.902344 338.582031 L 357.648438 350.496094 L 349.808594 359.65625 Z M 335.660156 348.199219 "/>
<g clip-path="url(#clip8)" clip-rule="nonzero">
<path style=" stroke:none;fill-rule:nonzero;fill:rgb(39.99939%,39.99939%,39.99939%);fill-opacity:0.3;" d="M 324.792969 394.648438 L 317.824219 388.765625 L 330.097656 378.683594 L 340.625 369.003906 L 348.140625 363.398438 L 359.765625 352.769531 L 366.269531 358.636719 L 340.144531 380.988281 Z M 324.792969 394.648438 "/>
</g>
<g clip-path="url(#clip9)" clip-rule="nonzero">
<path style=" stroke:none;fill-rule:nonzero;fill:rgb(39.99939%,39.99939%,39.99939%);fill-opacity:0.3;" d="M 331.785156 374.65625 L 325.941406 379.898438 L 320.40625 384.703125 L 315.683594 388.734375 L 321.507812 393.53125 L 323.960938 395.792969 L 318.589844 400.308594 L 304.148438 386.4375 L 297.003906 380.769531 L 287.4375 371.855469 L 291.558594 369.621094 L 300.542969 377.4375 L 302.832031 376.066406 L 306.476562 373.578125 L 315.949219 368.183594 L 320.613281 364.585938 L 322.507812 361.960938 L 326.441406 357.535156 L 331.394531 351.589844 L 334.164062 348.546875 L 340.402344 354.429688 L 309.183594 381.75 L 310.011719 382.4375 L 310.839844 383.128906 L 341.882812 355.480469 L 348.667969 360.59375 L 340.859375 366.914062 Z M 331.785156 374.65625 "/>
</g>
<path style=" stroke:none;fill-rule:nonzero;fill:rgb(39.99939%,39.99939%,39.99939%);fill-opacity:0.3;" d="M 230.863281 82.722656 L 233.648438 82.722656 L 233.609375 87.769531 L 230.828125 87.765625 Z M 230.863281 82.722656 "/>
<path style=" stroke:none;fill-rule:nonzero;fill:rgb(39.99939%,39.99939%,39.99939%);fill-opacity:0.3;" d="M 179.46875 82.460938 L 189.429688 80.949219 L 192.136719 101.464844 L 182.324219 103.078125 Z M 179.46875 82.460938 "/>
<path style=" stroke:none;fill-rule:nonzero;fill:rgb(39.99939%,39.99939%,39.99939%);fill-opacity:0.3;" d="M 190.78125 80.742188 L 200.960938 79.195312 L 203.652344 99.570312 L 193.488281 101.238281 Z M 190.78125 80.742188 "/>
<path style=" stroke:none;fill-rule:nonzero;fill:rgb(39.99939%,39.99939%,39.99939%);fill-opacity:0.3;" d="M 262.9375 59.519531 L 265.71875 59.519531 L 265.621094 73.953125 L 262.839844 73.953125 Z M 262.9375 59.519531 "/>
<path style=" stroke:none;fill-rule:nonzero;fill:rgb(39.99939%,39.99939%,39.99939%);fill-opacity:0.3;" d="M 249.824219 63.792969 L 252.605469 63.792969 L 252.570312 68.839844 L 249.785156 68.835938 Z M 249.824219 63.792969 "/>
<path style=" stroke:none;fill-rule:nonzero;fill:rgb(39.99939%,39.99939%,39.99939%);fill-opacity:0.3;" d="M 245.488281 69.160156 L 248.269531 69.164062 L 248.234375 74.207031 L 245.453125 74.203125 Z M 245.488281 69.160156 "/>
<path style=" stroke:none;fill-rule:nonzero;fill:rgb(39.99939%,39.99939%,39.99939%);fill-opacity:0.3;" d="M 254.757812 59.839844 L 257.539062 59.84375 L 257.503906 64.886719 L 254.722656 64.886719 Z M 254.757812 59.839844 "/>
<path style=" stroke:none;fill-rule:nonzero;fill:rgb(39.99939%,39.99939%,39.99939%);fill-opacity:0.3;" d="M 254.675781 69.191406 L 257.457031 69.191406 L 257.421875 74.234375 L 254.640625 74.234375 Z M 254.675781 69.191406 "/>
<path style=" stroke:none;fill-rule:nonzero;fill:rgb(39.99939%,39.99939%,39.99939%);fill-opacity:0.3;" d="M 149.195312 12.523438 L 133.738281 7.238281 L 133.746094 7.21875 L 143.585938 10.5 Z M 149.195312 12.523438 "/>
<path style=" stroke:none;fill-rule:nonzero;fill:rgb(39.99939%,39.99939%,39.99939%);fill-opacity:0.3;" d="M 67.851562 36.664062 L 64.921875 40.125 L 59.496094 45.753906 Z M 67.851562 36.664062 "/>
<path style=" stroke:none;fill-rule:nonzero;fill:rgb(39.99939%,39.99939%,39.99939%);fill-opacity:0.3;" d="M 231.320312 43.195312 L 231.070312 43.128906 L 231.078125 43.105469 Z M 231.320312 43.195312 "/>
<path style=" stroke:none;fill-rule:nonzero;fill:rgb(39.99939%,39.99939%,39.99939%);fill-opacity:0.3;" d="M 250.867188 51.046875 L 243.476562 49.171875 L 243.808594 48.019531 Z M 250.867188 51.046875 "/>
<path style=" stroke:none;fill-rule:nonzero;fill:rgb(39.99939%,39.99939%,39.99939%);fill-opacity:0.3;" d="M 219.40625 41.398438 L 251.753906 54.371094 L 247.4375 60.449219 L 241.929688 64.96875 Z M 219.40625 41.398438 "/>
<path style=" stroke:none;fill-rule:nonzero;fill:rgb(39.99939%,39.99939%,39.99939%);fill-opacity:0.3;" d="M 184.140625 126.304688 L 201.621094 142.332031 L 198.035156 146.03125 L 180.550781 130 Z M 184.140625 126.304688 "/>
<path style=" stroke:none;fill-rule:nonzero;fill:rgb(39.99939%,39.99939%,39.99939%);fill-opacity:0.3;" d="M 160.339844 131.933594 L 167.222656 138.785156 L 155.457031 149.6875 L 147.730469 142.953125 Z M 160.339844 131.933594 "/>
<path style=" stroke:none;fill-rule:nonzero;fill:rgb(39.99939%,39.99939%,39.99939%);fill-opacity:0.3;" d="M 152.738281 124.367188 L 159.398438 130.996094 L 147.09375 141.753906 L 140.101562 135.410156 Z M 152.738281 124.367188 "/>
<path style=" stroke:none;fill-rule:nonzero;fill:rgb(39.99939%,39.99939%,39.99939%);fill-opacity:0.3;" d="M 144.898438 98.070312 L 151.738281 104.875 L 143.484375 112.234375 L 136.570312 105.351562 Z M 144.898438 98.070312 "/>
<path style=" stroke:none;fill-rule:nonzero;fill:rgb(39.99939%,39.99939%,39.99939%);fill-opacity:0.3;" d="M 166.921875 94.164062 L 168.667969 105.882812 L 151.863281 120.574219 L 144.777344 113.519531 Z M 166.921875 94.164062 "/>
<path style=" stroke:none;fill-rule:nonzero;fill:rgb(39.99939%,39.99939%,39.99939%);fill-opacity:0.3;" d="M 162.632812 115.71875 L 169.292969 122.351562 L 160.960938 129.632812 L 154.300781 123 Z M 162.632812 115.71875 "/>
<path style=" stroke:none;fill-rule:nonzero;fill:rgb(39.99939%,39.99939%,39.99939%);fill-opacity:0.3;" d="M 170.230469 123.285156 L 176.84375 129.867188 L 168.742188 137.375 L 161.902344 130.566406 Z M 170.230469 123.285156 "/>
<path style=" stroke:none;fill-rule:nonzero;fill:rgb(39.99939%,39.99939%,39.99939%);fill-opacity:0.3;" d="M 171.109375 108.3125 L 177.769531 114.941406 L 170.367188 121.410156 L 163.703125 114.78125 Z M 171.109375 108.3125 "/>
<path style=" stroke:none;fill-rule:nonzero;fill:rgb(39.99939%,39.99939%,39.99939%);fill-opacity:0.3;" d="M 178.707031 115.875 L 185.089844 122.226562 L 177.886719 128.898438 L 171.304688 122.347656 Z M 178.707031 115.875 "/>
<path style=" stroke:none;fill-rule:nonzero;fill:rgb(39.99939%,39.99939%,39.99939%);fill-opacity:0.3;" d="M 173.972656 136.339844 L 191.453125 152.367188 L 187.867188 156.066406 L 170.382812 140.035156 Z M 173.972656 136.339844 "/>
<path style=" stroke:none;fill-rule:nonzero;fill:rgb(39.99939%,39.99939%,39.99939%);fill-opacity:0.3;" d="M 178.945312 131.230469 L 196.429688 147.257812 L 192.84375 150.957031 L 175.359375 134.925781 Z M 178.945312 131.230469 "/>
<path style=" stroke:none;fill-rule:nonzero;fill:rgb(39.99939%,39.99939%,39.99939%);fill-opacity:0.3;" d="M 163.675781 146.304688 L 181.160156 162.332031 L 177.570312 166.03125 L 160.089844 150 Z M 163.675781 146.304688 "/>
<path style=" stroke:none;fill-rule:nonzero;fill:rgb(39.99939%,39.99939%,39.99939%);fill-opacity:0.3;" d="M 170.285156 142.839844 L 185.9375 157.132812 L 182.351562 160.832031 L 166.695312 146.535156 Z M 170.285156 142.839844 "/>
<path style=" stroke:none;fill-rule:nonzero;fill:rgb(39.99939%,39.99939%,39.99939%);fill-opacity:0.3;" d="M 135.007812 106.714844 L 141.84375 113.523438 L 128.578125 125.117188 L 122.121094 117.976562 Z M 135.007812 106.714844 "/>
<path style=" stroke:none;fill-rule:nonzero;fill:rgb(39.99939%,39.99939%,39.99939%);fill-opacity:0.3;" d="M 143.214844 114.886719 L 150.300781 121.941406 L 136.886719 133.664062 L 129.816406 126.597656 Z M 143.214844 114.886719 "/>
<path style=" stroke:none;fill-rule:nonzero;fill:rgb(39.99939%,39.99939%,39.99939%);fill-opacity:0.3;" d="M 225.210938 96.492188 L 227.992188 96.492188 L 227.957031 101.539062 L 225.175781 101.535156 Z M 225.210938 96.492188 "/>
<path style=" stroke:none;fill-rule:nonzero;fill:rgb(39.99939%,39.99939%,39.99939%);fill-opacity:0.3;" d="M 225.582031 106.113281 L 228.363281 106.113281 L 228.328125 111.160156 L 225.542969 111.15625 Z M 225.582031 106.113281 "/>
<path style=" stroke:none;fill-rule:nonzero;fill:rgb(39.99939%,39.99939%,39.99939%);fill-opacity:0.3;" d="M 221.097656 112.039062 L 223.882812 112.039062 L 223.84375 117.085938 L 221.0625 117.082031 Z M 221.097656 112.039062 "/>
<path style=" stroke:none;fill-rule:nonzero;fill:rgb(39.99939%,39.99939%,39.99939%);fill-opacity:0.3;" d="M 221.074219 92.308594 L 223.855469 92.3125 L 223.820312 97.355469 L 221.035156 97.355469 Z M 221.074219 92.308594 "/>
<path style=" stroke:none;fill-rule:nonzero;fill:rgb(39.99939%,39.99939%,39.99939%);fill-opacity:0.3;" d="M 216.371094 96.984375 L 219.152344 96.984375 L 219.117188 102.03125 L 216.335938 102.027344 Z M 216.371094 96.984375 "/>
<path style=" stroke:none;fill-rule:nonzero;fill:rgb(39.99939%,39.99939%,39.99939%);fill-opacity:0.3;" d="M 211.058594 101.375 L 213.839844 101.378906 L 213.804688 106.421875 L 211.023438 106.417969 Z M 211.058594 101.375 "/>
<path style=" stroke:none;fill-rule:nonzero;fill:rgb(39.99939%,39.99939%,39.99939%);fill-opacity:0.3;" d="M 216.101562 105.835938 L 218.882812 105.835938 L 218.84375 110.882812 L 216.0625 110.878906 Z M 216.101562 105.835938 "/>
<path style=" stroke:none;fill-rule:nonzero;fill:rgb(39.99939%,39.99939%,39.99939%);fill-opacity:0.3;" d="M 182.972656 117.84375 L 191.828125 115.984375 L 186.386719 121.027344 Z M 182.972656 117.84375 "/>
<path style=" stroke:none;fill-rule:nonzero;fill:rgb(39.99939%,39.99939%,39.99939%);fill-opacity:0.3;" d="M 172.402344 107.179688 L 207.496094 101.46875 L 195.242188 112.820312 L 181.488281 116.085938 Z M 172.402344 107.179688 "/>
<path style=" stroke:none;fill-rule:nonzero;fill:rgb(39.99939%,39.99939%,39.99939%);fill-opacity:0.3;" d="M 195.933594 118.148438 L 211.589844 132.445312 L 208 136.140625 L 192.347656 121.84375 Z M 195.933594 118.148438 "/>
<path style=" stroke:none;fill-rule:nonzero;fill:rgb(39.99939%,39.99939%,39.99939%);fill-opacity:0.3;" d="M 189.128906 121.511719 L 206.613281 137.539062 L 203.023438 141.234375 L 185.542969 125.207031 Z M 189.128906 121.511719 "/>
<path style=" stroke:none;fill-rule:nonzero;fill:rgb(39.99939%,39.99939%,39.99939%);fill-opacity:0.3;" d="M 212.964844 131.257812 L 197.308594 116.964844 L 199.179688 115.035156 L 207.675781 119.457031 L 216.550781 127.5625 Z M 212.964844 131.257812 "/>
<path style=" stroke:none;fill-rule:nonzero;fill:rgb(39.99939%,39.99939%,39.99939%);fill-opacity:0.3;" d="M 226.089844 87.464844 L 228.871094 87.464844 L 228.835938 92.507812 L 226.054688 92.507812 Z M 226.089844 87.464844 "/>
<path style=" stroke:none;fill-rule:nonzero;fill:rgb(39.99939%,39.99939%,39.99939%);fill-opacity:0.3;" d="M 158.746094 85.890625 L 165.757812 85.085938 L 166.769531 91.734375 L 152.8125 103.9375 L 145.972656 97.128906 Z M 158.746094 85.890625 "/>
<path style=" stroke:none;fill-rule:nonzero;fill:rgb(39.99939%,39.99939%,39.99939%);fill-opacity:0.3;" d="M 167.363281 84.300781 L 177.804688 82.714844 L 180.535156 103.371094 L 170.183594 105.074219 Z M 167.363281 84.300781 "/>
<path style=" stroke:none;fill-rule:nonzero;fill:rgb(39.99939%,39.99939%,39.99939%);fill-opacity:0.3;" d="M 202.582031 78.949219 L 212.316406 77.46875 L 214.644531 96.328125 L 205.402344 99.28125 Z M 202.582031 78.949219 "/>
<path style=" stroke:none;fill-rule:nonzero;fill:rgb(39.99939%,39.99939%,39.99939%);fill-opacity:0.3;" d="M 213.769531 77.25 L 223.390625 75.789062 L 224.859375 86.242188 L 216.105469 94.734375 Z M 213.769531 77.25 "/>
<path style=" stroke:none;fill-rule:nonzero;fill:rgb(39.99939%,39.99939%,39.99939%);fill-opacity:0.3;" d="M 225.011719 75.542969 L 239.230469 73.382812 L 226.183594 85.28125 Z M 225.011719 75.542969 "/>
<path style=" stroke:none;fill-rule:nonzero;fill:rgb(39.99939%,39.99939%,39.99939%);fill-opacity:0.3;" d="M 240.246094 74.25 L 243.027344 74.253906 L 242.992188 79.296875 L 240.210938 79.292969 Z M 240.246094 74.25 "/>
<path style=" stroke:none;fill-rule:nonzero;fill:rgb(39.99939%,39.99939%,39.99939%);fill-opacity:0.3;" d="M 235.351562 87.707031 L 238.132812 87.707031 L 238.097656 92.753906 L 235.316406 92.75 Z M 235.351562 87.707031 "/>
<path style=" stroke:none;fill-rule:nonzero;fill:rgb(39.99939%,39.99939%,39.99939%);fill-opacity:0.3;" d="M 114.4375 18.457031 L 129.382812 33.828125 L 121.808594 40.269531 L 106.921875 24.957031 Z M 114.4375 18.457031 "/>
<path style=" stroke:none;fill-rule:nonzero;fill:rgb(39.99939%,39.99939%,39.99939%);fill-opacity:0.3;" d="M 105.621094 26.085938 L 120.550781 41.339844 L 112.636719 48.070312 L 97.820312 32.832031 Z M 105.621094 26.085938 "/>
<path style=" stroke:none;fill-rule:nonzero;fill:rgb(39.99939%,39.99939%,39.99939%);fill-opacity:0.3;" d="M 83.628906 23.890625 L 109.628906 50.628906 L 101.691406 57.386719 L 76.238281 31.40625 Z M 83.628906 23.890625 "/>
<path style=" stroke:none;fill-rule:nonzero;fill:rgb(39.99939%,39.99939%,39.99939%);fill-opacity:0.3;" d="M 92.898438 13.003906 L 104.472656 24.90625 L 96.671875 31.652344 L 85.65625 20.320312 Z M 92.898438 13.003906 "/>
<path style=" stroke:none;fill-rule:nonzero;fill:rgb(39.99939%,39.99939%,39.99939%);fill-opacity:0.3;" d="M 74.089844 33.351562 L 126.695312 86.652344 L 107.6875 102.390625 L 58.050781 52.425781 L 57.347656 50.601562 Z M 74.089844 33.351562 "/>
<path style=" stroke:none;fill-rule:nonzero;fill:rgb(39.99939%,39.99939%,39.99939%);fill-opacity:0.3;" d="M 110.644531 51.671875 L 136.195312 77.949219 L 128.644531 85.085938 L 102.773438 58.367188 Z M 110.644531 51.671875 "/>
<path style=" stroke:none;fill-rule:nonzero;fill:rgb(39.99939%,39.99939%,39.99939%);fill-opacity:0.3;" d="M 101.089844 4.730469 L 113.289062 17.273438 L 105.773438 23.777344 L 94.183594 11.703125 Z M 101.089844 4.730469 "/>
<path style=" stroke:none;fill-rule:nonzero;fill:rgb(39.99939%,39.99939%,39.99939%);fill-opacity:0.3;" d="M 106.449219 -0.496094 L 123.976562 8.027344 L 115.023438 15.773438 L 102.703125 3.101562 Z M 106.449219 -0.496094 "/>
<path style=" stroke:none;fill-rule:nonzero;fill:rgb(39.99939%,39.99939%,39.99939%);fill-opacity:0.3;" d="M 129.597656 13.832031 L 139.78125 16.429688 L 135.71875 20.285156 Z M 129.597656 13.832031 "/>
<path style=" stroke:none;fill-rule:nonzero;fill:rgb(39.99939%,39.99939%,39.99939%);fill-opacity:0.3;" d="M 139.9375 82.835938 L 148.699219 90.546875 L 120.550781 115.183594 L 112.429688 106.890625 Z M 139.9375 82.835938 "/>
<path style=" stroke:none;fill-rule:nonzero;fill:rgb(39.99939%,39.99939%,39.99939%);fill-opacity:0.3;" d="M 124 10.179688 L 134.675781 21.105469 L 126.875 27.960938 L 116.171875 16.953125 Z M 124 10.179688 "/>
<path style=" stroke:none;fill-rule:nonzero;fill:rgb(39.99939%,39.99939%,39.99939%);fill-opacity:0.3;" d="M 169.792969 25.488281 L 185.910156 41.777344 L 178.285156 48.378906 L 162.632812 32.28125 Z M 169.792969 25.488281 "/>
<path style=" stroke:none;fill-rule:nonzero;fill:rgb(39.99939%,39.99939%,39.99939%);fill-opacity:0.3;" d="M 164.277344 36.855469 L 176.765625 49.695312 L 170.003906 55.546875 L 156.074219 41.21875 L 160.636719 37.058594 Z M 164.277344 36.855469 "/>
<path style=" stroke:none;fill-rule:nonzero;fill:rgb(39.99939%,39.99939%,39.99939%);fill-opacity:0.3;" d="M 140.910156 16.84375 L 156.664062 22.640625 L 152.464844 36.550781 L 136.765625 21.363281 Z M 140.910156 16.84375 "/>
<path style=" stroke:none;fill-rule:nonzero;fill:rgb(39.99939%,39.99939%,39.99939%);fill-opacity:0.3;" d="M 155.070312 42.136719 L 188.871094 76.890625 L 176.40625 78.898438 L 147.433594 49.101562 Z M 155.070312 42.136719 "/>
<path style=" stroke:none;fill-rule:nonzero;fill:rgb(39.99939%,39.99939%,39.99939%);fill-opacity:0.3;" d="M 137.132812 58.492188 L 159.605469 81.65625 L 155.273438 83.960938 L 152.445312 86.332031 L 150.761719 88.34375 L 129.519531 65.433594 Z M 137.132812 58.492188 "/>
<path style=" stroke:none;fill-rule:nonzero;fill:rgb(39.99939%,39.99939%,39.99939%);fill-opacity:0.3;" d="M 145.738281 50.644531 L 174.261719 79.976562 L 171.5625 80.585938 L 161.804688 81.398438 L 138.402344 57.332031 Z M 145.738281 50.644531 "/>
<path style=" stroke:none;fill-rule:nonzero;fill:rgb(39.99939%,39.99939%,39.99939%);fill-opacity:0.3;" d="M 130.398438 34.871094 L 143.738281 48.746094 L 136.484375 55.359375 L 122.828125 41.3125 Z M 130.398438 34.871094 "/>
<path style=" stroke:none;fill-rule:nonzero;fill:rgb(39.99939%,39.99939%,39.99939%);fill-opacity:0.3;" d="M 135.683594 22.105469 L 151.339844 38.296875 L 145.511719 47.128906 L 127.96875 29.085938 Z M 135.683594 22.105469 "/>
<path style=" stroke:none;fill-rule:nonzero;fill:rgb(39.99939%,39.99939%,39.99939%);fill-opacity:0.3;" d="M 121.511719 42.429688 L 135.214844 56.519531 L 127.601562 63.457031 L 113.652344 49.113281 Z M 121.511719 42.429688 "/>
<path style=" stroke:none;fill-rule:nonzero;fill:rgb(39.99939%,39.99939%,39.99939%);fill-opacity:0.3;" d="M 196.148438 35.585938 L 214.710938 55.195312 L 229.742188 70.121094 L 217.507812 72.082031 L 188.382812 42.308594 Z M 196.148438 35.585938 "/>
<path style=" stroke:none;fill-rule:nonzero;fill:rgb(39.99939%,39.99939%,39.99939%);fill-opacity:0.3;" d="M 198.363281 35.214844 L 215.445312 39.777344 L 222.796875 47.023438 L 240.03125 64.648438 L 236.328125 69.078125 L 231.433594 69.949219 Z M 198.363281 35.214844 "/>
<path style=" stroke:none;fill-rule:nonzero;fill:rgb(39.99939%,39.99939%,39.99939%);fill-opacity:0.3;" d="M 170.273438 24.304688 L 196.746094 32.667969 L 187.027344 40.8125 Z M 170.273438 24.304688 "/>
<path style=" stroke:none;fill-rule:nonzero;fill:rgb(39.99939%,39.99939%,39.99939%);fill-opacity:0.3;" d="M 178.175781 51.144531 L 201.347656 74.976562 L 190.574219 76.699219 L 171.414062 56.996094 Z M 178.175781 51.144531 "/>
<path style=" stroke:none;fill-rule:nonzero;fill:rgb(39.99939%,39.99939%,39.99939%);fill-opacity:0.3;" d="M 187.226562 43.308594 L 213.789062 70.050781 L 215.570312 72.074219 L 203.824219 74.644531 L 179.695312 49.828125 Z M 187.226562 43.308594 "/>
<path style=" stroke:none;fill-rule:nonzero;fill:rgb(39.99939%,39.99939%,39.99939%);fill-opacity:0.3;" d="M 39.816406 8.90625 L 42.191406 8.175781 L 47.070312 21.089844 L 44.695312 21.816406 Z M 39.816406 8.90625 "/>
<path style=" stroke:none;fill-rule:nonzero;fill:rgb(39.99939%,39.99939%,39.99939%);fill-opacity:0.3;" d="M 38.355469 25.332031 L 40.726562 24.605469 L 44.71875 35.082031 L 42.34375 35.808594 Z M 38.355469 25.332031 "/>
<path style=" stroke:none;fill-rule:nonzero;fill:rgb(39.99939%,39.99939%,39.99939%);fill-opacity:0.3;" d="M 42.242188 24.105469 L 44.613281 23.375 L 48.40625 33.289062 L 46.03125 34.019531 Z M 42.242188 24.105469 "/>
<path style=" stroke:none;fill-rule:nonzero;fill:rgb(39.99939%,39.99939%,39.99939%);fill-opacity:0.3;" d="M 39.007812 16.792969 L 41.382812 16.0625 L 43.621094 21.90625 L 41.246094 22.632812 Z M 39.007812 16.792969 "/>
<path style=" stroke:none;fill-rule:nonzero;fill:rgb(39.99939%,39.99939%,39.99939%);fill-opacity:0.3;" d="M 46.125 22.875 L 48.496094 22.148438 L 52.289062 32.0625 L 49.917969 32.789062 Z M 46.125 22.875 "/>
<path style=" stroke:none;fill-rule:nonzero;fill:rgb(39.99939%,39.99939%,39.99939%);fill-opacity:0.3;" d="M 61.902344 24.65625 L 63.929688 25.144531 L 63.714844 25.898438 L 64.964844 26.203125 L 65.183594 25.445312 L 66.742188 25.820312 L 65.59375 30.003906 L 64.03125 29.625 L 64.242188 28.859375 L 62.992188 28.558594 L 62.777344 29.324219 L 60.753906 28.839844 Z M 61.902344 24.65625 "/>
<path style=" stroke:none;fill-rule:nonzero;fill:rgb(39.99939%,39.99939%,39.99939%);fill-opacity:0.3;" d="M 42.734375 5.980469 L 45.105469 5.253906 L 50.667969 19.902344 L 48.292969 20.628906 Z M 42.734375 5.980469 "/>
<path style=" stroke:none;fill-rule:nonzero;fill:rgb(39.99939%,39.99939%,39.99939%);fill-opacity:0.3;" d="M 5.257812 -44.789062 L 22.277344 -5.910156 L 39.765625 -2.394531 L 42.820312 -1.296875 L 52.429688 22.804688 L 56.226562 31.128906 L 58.839844 36.300781 L 59.078125 38.441406 L 58.367188 40.800781 L 52.792969 48.117188 L 20.53125 15.371094 L 19.4375 14.199219 L 15.179688 9.9375 L -10.792969 -16.421875 Z M 5.257812 -44.789062 "/>
<path style=" stroke:none;fill-rule:nonzero;fill:rgb(39.99939%,39.99939%,39.99939%);fill-opacity:0.3;" d="M 7.046875 -46.042969 L 51.335938 -26.640625 L 73.800781 29.632812 L 67.851562 36.664062 L 59.496094 45.753906 L 55.046875 50.367188 L 54.09375 49.585938 L 60.242188 41.128906 L 61.09375 38.5625 L 60.9375 36.800781 L 60.261719 35.546875 L 56.910156 28.144531 L 44.453125 -3.269531 L 42.394531 -4.820312 L 23.917969 -8.53125 L 17.496094 -21.636719 Z M 7.046875 -46.042969 "/>
<path style=" stroke:none;fill-rule:nonzero;fill:rgb(39.99939%,39.99939%,39.99939%);fill-opacity:0.3;" d="M 84.636719 6.921875 L 89.6875 11.261719 L 77.949219 23.570312 L 72.902344 19.230469 Z M 84.636719 6.921875 "/>
<path style=" stroke:none;fill-rule:nonzero;fill:rgb(39.99939%,39.99939%,39.99939%);fill-opacity:0.3;" d="M 80.863281 -0.429688 L 85.910156 3.90625 L 73.527344 17.195312 L 71.191406 15.125 L 72.679688 13.613281 L 69.976562 11.34375 Z M 80.863281 -0.429688 "/>
<path style=" stroke:none;fill-rule:nonzero;fill:rgb(39.99939%,39.99939%,39.99939%);fill-opacity:0.3;" d="M 54.449219 -25.351562 L 74.847656 -16.308594 L 93.644531 -12.070312 L 102.578125 -10.054688 L 119.847656 -5.3125 L 118.769531 1.101562 L 105.957031 -4.070312 L 104.441406 -2.480469 L 75.886719 27.527344 L 62.085938 -6.148438 Z M 54.449219 -25.351562 "/>
<path style=" stroke:none;fill-rule:nonzero;fill:rgb(39.99939%,39.99939%,39.99939%);fill-opacity:0.3;" d="M 58.117188 12.792969 L 60.144531 13.285156 L 59.929688 14.039062 L 61.179688 14.34375 L 61.394531 13.585938 L 62.957031 13.960938 L 61.804688 18.144531 L 60.246094 17.765625 L 60.457031 17 L 59.203125 16.699219 L 58.988281 17.464844 L 56.964844 16.980469 Z M 58.117188 12.792969 "/>
<path style=" stroke:none;fill-rule:nonzero;fill:rgb(39.99939%,39.99939%,39.99939%);fill-opacity:0.3;" d="M 50.910156 0.304688 L 52.941406 0.792969 L 52.722656 1.550781 L 53.972656 1.851562 L 54.191406 1.09375 L 55.75 1.46875 L 54.601562 5.652344 L 53.042969 5.277344 L 53.25 4.507812 L 52 4.207031 L 51.785156 4.976562 L 49.761719 4.488281 Z M 50.910156 0.304688 "/>
<path style=" stroke:none;fill-rule:nonzero;fill:rgb(39.99939%,39.99939%,39.99939%);fill-opacity:0.3;" d="M 60.011719 18.625 L 62.039062 19.113281 L 61.820312 19.871094 L 63.070312 20.171875 L 63.289062 19.414062 L 64.847656 19.792969 L 63.699219 23.972656 L 62.140625 23.597656 L 62.347656 22.828125 L 61.097656 22.527344 L 60.882812 23.296875 L 58.859375 22.808594 Z M 60.011719 18.625 "/>
<path style=" stroke:none;fill-rule:nonzero;fill:rgb(39.99939%,39.99939%,39.99939%);fill-opacity:0.3;" d="M 298.605469 152.113281 L 277.964844 147.355469 L 278.011719 147.1875 L 289.261719 149.785156 L 297.675781 151.804688 Z M 298.605469 152.113281 "/>
<path style=" stroke:none;fill-rule:nonzero;fill:rgb(39.99939%,39.99939%,39.99939%);fill-opacity:0.3;" d="M 304.167969 154.472656 L 301.835938 153.886719 L 302.042969 153.148438 L 304.402344 153.820312 Z M 304.167969 154.472656 "/>
<path style=" stroke:none;fill-rule:nonzero;fill:rgb(39.99939%,39.99939%,39.99939%);fill-opacity:0.3;" d="M 270.125 159.621094 L 270.082031 159.738281 L 259.132812 157.621094 L 259.320312 156.851562 Z M 270.125 159.621094 "/>
<path style=" stroke:none;fill-rule:nonzero;fill:rgb(39.99939%,39.99939%,39.99939%);fill-opacity:0.3;" d="M 252.269531 181.644531 L 252.246094 181.769531 L 251.503906 182.308594 Z M 252.269531 181.644531 "/>
<path style=" stroke:none;fill-rule:nonzero;fill:rgb(39.99939%,39.99939%,39.99939%);fill-opacity:0.3;" d="M 276.984375 158.257812 L 283.140625 159.800781 L 278.941406 173.972656 L 272.789062 172.429688 Z M 276.984375 158.257812 "/>
<path style=" stroke:none;fill-rule:nonzero;fill:rgb(39.99939%,39.99939%,39.99939%);fill-opacity:0.3;" d="M 272.300781 174 L 278.457031 175.539062 L 274.257812 189.714844 L 268.101562 188.171875 Z M 272.300781 174 "/>
<path style=" stroke:none;fill-rule:nonzero;fill:rgb(39.99939%,39.99939%,39.99939%);fill-opacity:0.3;" d="M 284.726562 173.855469 L 288.78125 177.695312 L 286.945312 179.617188 L 282.957031 175.800781 Z M 284.726562 173.855469 "/>
<path style=" stroke:none;fill-rule:nonzero;fill:rgb(39.99939%,39.99939%,39.99939%);fill-opacity:0.3;" d="M 277.289062 149.105469 L 288.636719 152.015625 L 285.726562 160.476562 L 286.773438 160.804688 L 289.632812 152.273438 L 296.742188 154.058594 L 293.746094 162.0625 L 294.226562 162.253906 L 294.707031 162.449219 L 297.996094 154.390625 L 303.628906 155.96875 L 301.640625 161.472656 L 298.882812 168.03125 L 265.984375 228.246094 L 264.605469 230.570312 L 262.882812 233.066406 L 252.589844 246.007812 L 247.542969 240.289062 L 246.8125 239.554688 L 246.671875 239.363281 L 245.035156 237.777344 L 239.132812 231.875 L 243.84375 216.0625 L 248.554688 214.382812 L 251.851562 208.796875 L 247.207031 204.289062 L 239.503906 195.730469 L 247.394531 189.097656 L 254.65625 195.980469 L 255.417969 195.257812 L 256.296875 194.425781 L 249.269531 187.429688 L 254.304688 182.210938 L 260.269531 160.105469 L 269.753906 162.101562 L 262.382812 183.652344 L 262.382812 186.316406 L 277.140625 199.75 L 277.660156 198.550781 L 278.195312 197.308594 L 264.960938 185.761719 Z M 277.289062 149.105469 "/>
<path style=" stroke:none;fill-rule:nonzero;fill:rgb(39.99939%,39.99939%,39.99939%);fill-opacity:0.3;" d="M 271.421875 196.683594 L 275.761719 200.230469 L 274.636719 201.554688 L 273.191406 200.375 L 272.121094 201.640625 L 273.566406 202.820312 L 272.476562 204.105469 L 268.140625 200.5625 L 269.226562 199.277344 L 271.101562 200.808594 L 272.171875 199.542969 L 270.300781 198.011719 Z M 271.421875 196.683594 "/>
<path style=" stroke:none;fill-rule:nonzero;fill:rgb(39.99939%,39.99939%,39.99939%);fill-opacity:0.3;" d="M 263.347656 206.878906 L 267.683594 210.421875 L 266.558594 211.75 L 265.117188 210.570312 L 264.042969 211.835938 L 265.488281 213.015625 L 264.398438 214.300781 L 260.0625 210.757812 L 261.152344 209.472656 L 263.023438 211.003906 L 264.097656 209.738281 L 262.222656 208.207031 Z M 263.347656 206.878906 "/>
<path style=" stroke:none;fill-rule:nonzero;fill:rgb(39.99939%,39.99939%,39.99939%);fill-opacity:0.3;" d="M 260.6875 217.789062 L 258.570312 219.804688 L 256.761719 218.222656 L 250.8125 210.554688 L 251.851562 208.796875 L 249.691406 206.699219 L 256.105469 195.582031 L 261.222656 189.980469 L 262.855469 191.703125 L 258.207031 197.160156 L 253.691406 205.351562 L 253.019531 208.328125 L 258.875 216.207031 Z M 260.6875 217.789062 "/>
<path style=" stroke:none;fill-rule:nonzero;fill:rgb(39.99939%,39.99939%,39.99939%);fill-opacity:0.3;" d="M 243.644531 216.734375 L 245.390625 218.160156 L 244.265625 219.488281 L 243.105469 218.542969 Z M 243.644531 216.734375 "/>
<path style=" stroke:none;fill-rule:nonzero;fill:rgb(39.99939%,39.99939%,39.99939%);fill-opacity:0.3;" d="M 242.59375 220.261719 L 243.191406 220.753906 L 242.105469 222.039062 L 242.070312 222.011719 Z M 242.59375 220.261719 "/>
<path style=" stroke:none;fill-rule:nonzero;fill:rgb(39.99939%,39.99939%,39.99939%);fill-opacity:0.3;" d="M 241.289062 224.640625 L 241.632812 224.921875 L 240.972656 225.699219 Z M 241.289062 224.640625 "/>
<path style=" stroke:none;fill-rule:nonzero;fill:rgb(39.99939%,39.99939%,39.99939%);fill-opacity:0.3;" d="M 245.921875 223.269531 L 254.441406 231.683594 L 250.191406 235.5625 L 245.507812 230.9375 L 243.640625 232.511719 L 242.429688 231.207031 L 244.261719 229.707031 L 241.730469 227.207031 Z M 245.921875 223.269531 "/>
<path style=" stroke:none;fill-rule:nonzero;fill:rgb(39.99939%,39.99939%,39.99939%);fill-opacity:0.3;" d="M 167.9375 -22.945312 L 178.847656 -20.277344 L 172.730469 2.238281 L 171.84375 5.117188 L 167.890625 19.285156 L 157.527344 15.378906 Z M 167.9375 -22.945312 "/>
<path style=" stroke:none;fill-rule:nonzero;fill:rgb(39.99939%,39.99939%,39.99939%);fill-opacity:0.3;" d="M 136.132812 -1.570312 L 157.953125 4.433594 L 155.195312 14.578125 L 149.195312 12.523438 L 143.585938 10.5 L 133.746094 7.21875 Z M 136.132812 -1.570312 "/>
<path style=" stroke:none;fill-rule:nonzero;fill:rgb(39.99939%,39.99939%,39.99939%);fill-opacity:0.3;" d="M 139.574219 -14.234375 L 161.449219 -8.441406 L 158.734375 1.546875 L 136.902344 -4.40625 Z M 139.574219 -14.234375 "/>
<path style=" stroke:none;fill-rule:nonzero;fill:rgb(39.99939%,39.99939%,39.99939%);fill-opacity:0.3;" d="M 126.875 -17.828125 L 136.898438 -14.980469 L 131.191406 6.015625 L 121.472656 2.402344 Z M 126.875 -17.828125 "/>
<path style=" stroke:none;fill-rule:nonzero;fill:rgb(39.99939%,39.99939%,39.99939%);fill-opacity:0.3;" d="M 335.390625 305.070312 L 343.777344 309.535156 L 335.972656 323.695312 L 328.214844 316.90625 Z M 335.390625 305.070312 "/>
<path style=" stroke:none;fill-rule:nonzero;fill:rgb(39.99939%,39.99939%,39.99939%);fill-opacity:0.3;" d="M 350.824219 278.316406 L 358.871094 282.574219 L 344.828125 308.269531 L 336.503906 303.941406 Z M 350.824219 278.316406 "/>
<path style=" stroke:none;fill-rule:nonzero;fill:rgb(39.99939%,39.99939%,39.99939%);fill-opacity:0.3;" d="M 344.8125 310.40625 L 353.65625 315.523438 L 344.816406 330.992188 L 337.003906 324.675781 Z M 344.8125 310.40625 "/>
<g clip-path="url(#clip10)" clip-rule="nonzero">
<path style=" stroke:none;fill-rule:nonzero;fill:rgb(39.99939%,39.99939%,39.99939%);fill-opacity:0.3;" d="M 360.648438 283.558594 L 369.335938 288.148438 L 365.78125 294.75 L 356.214844 311.277344 L 354.886719 313.601562 L 346.285156 308.996094 Z M 360.648438 283.558594 "/>
</g>
<g clip-path="url(#clip11)" clip-rule="nonzero">
<path style=" stroke:none;fill-rule:nonzero;fill:rgb(39.99939%,39.99939%,39.99939%);fill-opacity:0.3;" d="M 366.105469 249.992188 L 374.710938 254.792969 L 360.0625 280.269531 L 352.054688 275.945312 Z M 366.105469 249.992188 "/>
</g>
<path style=" stroke:none;fill-rule:nonzero;fill:rgb(39.99939%,39.99939%,39.99939%);fill-opacity:0.3;" d="M 348.792969 277.238281 L 334.726562 302.535156 L 326.132812 298.320312 L 340.953125 273.074219 Z M 348.792969 277.238281 "/>
<path style=" stroke:none;fill-rule:nonzero;fill:rgb(39.99939%,39.99939%,39.99939%);fill-opacity:0.3;" d="M 324.941406 300.277344 L 333.441406 304.742188 L 326.894531 315.746094 L 320.125 308.984375 Z M 324.941406 300.277344 "/>
<g clip-path="url(#clip12)" clip-rule="nonzero">
<path style=" stroke:none;fill-rule:nonzero;fill:rgb(39.99939%,39.99939%,39.99939%);fill-opacity:0.3;" d="M 356.738281 217.398438 L 364.621094 224.519531 L 340.085938 266.488281 L 319.199219 304.078125 L 309.316406 296.671875 L 326.273438 265.183594 Z M 356.738281 217.398438 "/>
</g>
<g clip-path="url(#clip13)" clip-rule="nonzero">
<path style=" stroke:none;fill-rule:nonzero;fill:rgb(39.99939%,39.99939%,39.99939%);fill-opacity:0.3;" d="M 356.132812 244.464844 L 364.621094 249.171875 L 350.574219 275.464844 L 342.191406 270.707031 Z M 356.132812 244.464844 "/>
</g>
<g clip-path="url(#clip14)" clip-rule="nonzero">
<path style=" stroke:none;fill-rule:nonzero;fill:rgb(39.99939%,39.99939%,39.99939%);fill-opacity:0.3;" d="M 374.835938 213.058594 L 382.699219 217.773438 L 365.949219 247.476562 L 357.832031 242.976562 Z M 374.835938 213.058594 "/>
</g>
<path style=" stroke:none;fill-rule:nonzero;fill:rgb(39.99939%,39.99939%,39.99939%);fill-opacity:0.3;" d="M 42.574219 120.824219 L 75.582031 121.917969 L 79.566406 132.128906 L 35.128906 130.332031 Z M 42.574219 120.824219 "/>
<path style=" stroke:none;fill-rule:nonzero;fill:rgb(39.99939%,39.99939%,39.99939%);fill-opacity:0.3;" d="M 9.550781 162.988281 L 58.644531 198.253906 L 52.410156 206.308594 L 51.976562 206.882812 L 2.84375 171.554688 Z M 9.550781 162.988281 "/>
<path style=" stroke:none;fill-rule:nonzero;fill:rgb(39.99939%,39.99939%,39.99939%);fill-opacity:0.3;" d="M -14.964844 194.289062 L 34.765625 228.882812 L 28.261719 236.8125 L -20.757812 201.6875 Z M -14.964844 194.289062 "/>
<path style=" stroke:none;fill-rule:nonzero;fill:rgb(39.99939%,39.99939%,39.99939%);fill-opacity:0.3;" d="M -7.367188 184.59375 L 42.398438 219.589844 L 35.882812 227.527344 L -13.644531 192.609375 Z M -7.367188 184.59375 "/>
<path style=" stroke:none;fill-rule:nonzero;fill:rgb(39.99939%,39.99939%,39.99939%);fill-opacity:0.3;" d="M 1.492188 173.28125 L 50.953125 208.246094 L 44.335938 217.074219 L 43.890625 217.65625 L -5.902344 182.722656 Z M 1.492188 173.28125 "/>
<path style=" stroke:none;fill-rule:nonzero;fill:rgb(39.99939%,39.99939%,39.99939%);fill-opacity:0.3;" d="M 51.652344 109.230469 L 71.128906 110.507812 L 74.824219 119.972656 L 44.21875 118.722656 Z M 51.652344 109.230469 "/>
<path style=" stroke:none;fill-rule:nonzero;fill:rgb(39.99939%,39.99939%,39.99939%);fill-opacity:0.3;" d="M 62.238281 95.714844 L 65.425781 95.902344 L 70.582031 109.113281 L 52.445312 108.222656 Z M 62.238281 95.714844 "/>
<path style=" stroke:none;fill-rule:nonzero;fill:rgb(39.99939%,39.99939%,39.99939%);fill-opacity:0.3;" d="M 24.175781 144.316406 L 85.695312 147.828125 L 89.9375 158.691406 L 16.765625 153.777344 Z M 24.175781 144.316406 "/>
<path style=" stroke:none;fill-rule:nonzero;fill:rgb(39.99939%,39.99939%,39.99939%);fill-opacity:0.3;" d="M 33.761719 132.074219 L 80.332031 134.089844 L 84.820312 145.628906 L 25.886719 142.128906 Z M 33.761719 132.074219 "/>
<path style=" stroke:none;fill-rule:nonzero;fill:rgb(39.99939%,39.99939%,39.99939%);fill-opacity:0.3;" d="M 30.425781 238.523438 L 31.117188 237.3125 L 31.460938 236.871094 L 30.539062 238.605469 Z M 30.425781 238.523438 "/>
<path style=" stroke:none;fill-rule:nonzero;fill:rgb(39.99939%,39.99939%,39.99939%);fill-opacity:0.3;" d="M 73.667969 181.816406 L 73.652344 181.808594 L 77.585938 175.492188 L 77.097656 175.160156 L 76.527344 174.773438 L 71.816406 182.5 L 72.65625 183.074219 L 63.527344 194.429688 L 63.160156 194.121094 L 61.945312 195.328125 L 60.792969 195.761719 L 54.523438 192.101562 L 73.257812 167.71875 L 72.753906 167.542969 L 71.742188 167.1875 L 52.847656 190.800781 L 44.902344 185.1875 L 59.421875 166.203125 L 58.71875 165.957031 L 58.125 165.753906 L 42.972656 184.03125 L 22.417969 168.425781 L 48.320312 169.480469 L 48.417969 168.492188 L 48.523438 167.457031 L 18.148438 166.210938 L 12.15625 161.878906 L 15.855469 155.339844 L 78.148438 159.726562 L 92.027344 160.703125 L 95.597656 170.890625 L 79.011719 169.390625 L 79.402344 171.757812 L 94.550781 173.75 L 87.398438 179.054688 L 76.96875 177.710938 Z M 73.667969 181.816406 "/>
<path style="fill-rule:nonzero;fill:rgb(39.99939%,39.99939%,39.99939%);fill-opacity:1;stroke-width:0.03;stroke-linecap:square;stroke-linejoin:miter;stroke:rgb(39.99939%,39.99939%,39.99939%);stroke-opacity:1;stroke-miterlimit:3.239307;" d="M 268.382812 247.324219 L 277.464844 243.59375 L 306.976562 295.382812 L 297.53125 299.183594 Z M 268.382812 247.324219 " transform="matrix(1,0,0,1,-74,-13)"/>
<path style="fill-rule:nonzero;fill:rgb(39.99939%,39.99939%,39.99939%);fill-opacity:1;stroke-width:0.03;stroke-linecap:square;stroke-linejoin:miter;stroke:rgb(39.99939%,39.99939%,39.99939%);stroke-opacity:1;stroke-miterlimit:3.239307;" d="M 279.855469 243.578125 L 288.933594 238.875 L 318.179688 290.875 L 310.632812 294.015625 L 308.882812 294.695312 Z M 279.855469 243.578125 " transform="matrix(1,0,0,1,-74,-13)"/>
<path style="fill-rule:nonzero;fill:rgb(39.99939%,39.99939%,39.99939%);fill-opacity:1;stroke-width:0.03;stroke-linecap:square;stroke-linejoin:miter;stroke:rgb(39.99939%,39.99939%,39.99939%);stroke-opacity:1;stroke-miterlimit:3.239307;" d="M 291.945312 237.964844 L 295.589844 235.917969 L 304.054688 246.703125 L 307.496094 249.183594 L 313.28125 258.582031 L 328.851562 286.601562 L 323.285156 289.019531 L 321.351562 289.816406 Z M 291.945312 237.964844 " transform="matrix(1,0,0,1,-74,-13)"/>
<path style="fill-rule:nonzero;fill:rgb(39.99939%,39.99939%,39.99939%);fill-opacity:1;stroke-width:0.03;stroke-linecap:square;stroke-linejoin:miter;stroke:rgb(39.99939%,39.99939%,39.99939%);stroke-opacity:1;stroke-miterlimit:3.239307;" d="M 314.671875 255.96875 L 342.496094 281.058594 L 333.398438 284.832031 L 330.917969 285.722656 L 313.710938 256.882812 Z M 314.671875 255.96875 " transform="matrix(1,0,0,1,-74,-13)"/>
<path style="fill-rule:nonzero;fill:rgb(39.99939%,39.99939%,39.99939%);fill-opacity:1;stroke-width:0.03;stroke-linecap:square;stroke-linejoin:miter;stroke:rgb(39.99939%,39.99939%,39.99939%);stroke-opacity:1;stroke-miterlimit:3.239307;" d="M 266.136719 248.25 L 294.960938 300.214844 L 285.203125 304.144531 L 256.503906 252.207031 Z M 266.136719 248.25 " transform="matrix(1,0,0,1,-74,-13)"/>
<path style="fill-rule:nonzero;fill:rgb(39.99939%,39.99939%,39.99939%);fill-opacity:1;stroke-width:0.03;stroke-linecap:square;stroke-linejoin:miter;stroke:rgb(39.99939%,39.99939%,39.99939%);stroke-opacity:1;stroke-miterlimit:3.239307;" d="M 233.722656 261.574219 L 243.417969 257.585938 L 271.589844 309.617188 L 261.714844 313.589844 Z M 233.722656 261.574219 " transform="matrix(1,0,0,1,-74,-13)"/>
<path style="fill-rule:nonzero;fill:rgb(39.99939%,39.99939%,39.99939%);fill-opacity:1;stroke-width:0.03;stroke-linecap:square;stroke-linejoin:miter;stroke:rgb(39.99939%,39.99939%,39.99939%);stroke-opacity:1;stroke-miterlimit:3.239307;" d="M 214.058594 269.441406 L 219.542969 267.230469 L 247.265625 319.402344 L 241.878906 321.570312 Z M 214.058594 269.441406 " transform="matrix(1,0,0,1,-74,-13)"/>
<path style="fill-rule:nonzero;fill:rgb(39.99939%,39.99939%,39.99939%);fill-opacity:1;stroke-width:0.03;stroke-linecap:square;stroke-linejoin:miter;stroke:rgb(39.99939%,39.99939%,39.99939%);stroke-opacity:1;stroke-miterlimit:3.239307;" d="M 221.460938 266.449219 L 231.46875 262.546875 L 259.648438 314.421875 L 250.101562 318.265625 Z M 221.460938 266.449219 " transform="matrix(1,0,0,1,-74,-13)"/>
<path style="fill-rule:nonzero;fill:rgb(39.99939%,39.99939%,39.99939%);fill-opacity:1;stroke-width:0.03;stroke-linecap:square;stroke-linejoin:miter;stroke:rgb(39.99939%,39.99939%,39.99939%);stroke-opacity:1;stroke-miterlimit:3.239307;" d="M 254.867188 252.878906 L 283.378906 304.875 L 273.582031 308.816406 L 245.617188 256.679688 Z M 254.867188 252.878906 " transform="matrix(1,0,0,1,-74,-13)"/>
<path style="fill-rule:nonzero;fill:rgb(39.99939%,39.99939%,39.99939%);fill-opacity:1;stroke-width:0.03;stroke-linecap:square;stroke-linejoin:miter;stroke:rgb(39.99939%,39.99939%,39.99939%);stroke-opacity:1;stroke-miterlimit:3.239307;" d="M 350.109375 278.832031 L 350.0625 278.878906 L 349.183594 279.109375 L 344.359375 274.316406 Z M 350.109375 278.832031 " transform="matrix(1,0,0,1,-74,-13)"/>
<path style="fill-rule:nonzero;fill:rgb(39.99939%,39.99939%,39.99939%);fill-opacity:1;stroke-width:0.03;stroke-linecap:square;stroke-linejoin:miter;stroke:rgb(39.99939%,39.99939%,39.99939%);stroke-opacity:1;stroke-miterlimit:3.239307;" d="M 327.34375 259.667969 L 326.679688 260.597656 L 320.8125 252.554688 L 321.542969 253.289062 L 326.589844 259.007812 Z M 327.34375 259.667969 " transform="matrix(1,0,0,1,-74,-13)"/>
<path style="fill-rule:nonzero;fill:rgb(39.99939%,39.99939%,39.99939%);fill-opacity:1;stroke-width:0.03;stroke-linecap:square;stroke-linejoin:miter;stroke:rgb(39.99939%,39.99939%,39.99939%);stroke-opacity:1;stroke-miterlimit:3.239307;" d="M 319.035156 250.777344 L 311.125 243.121094 L 294.363281 226.890625 L 299.339844 231.082031 L 303.375 235.121094 L 313.132812 244.875 Z M 319.035156 250.777344 " transform="matrix(1,0,0,1,-74,-13)"/>
<path style="fill-rule:nonzero;fill:rgb(39.99939%,39.99939%,39.99939%);fill-opacity:1;stroke-width:0.03;stroke-linecap:square;stroke-linejoin:miter;stroke:rgb(39.99939%,39.99939%,39.99939%);stroke-opacity:1;stroke-miterlimit:3.239307;" d="M 260.75 194.347656 L 256.582031 190.3125 L 258.628906 191.382812 Z M 260.75 194.347656 " transform="matrix(1,0,0,1,-74,-13)"/>
<path style="fill-rule:nonzero;fill:rgb(39.99939%,39.99939%,39.99939%);fill-opacity:1;stroke-width:0.03;stroke-linecap:square;stroke-linejoin:miter;stroke:rgb(39.99939%,39.99939%,39.99939%);stroke-opacity:1;stroke-miterlimit:3.239307;" d="M 172.414062 111.328125 L 181.898438 121.121094 L 151.136719 130.117188 L 146.660156 119.191406 Z M 172.414062 111.328125 " transform="matrix(1,0,0,1,-74,-13)"/>
<path style="fill-rule:nonzero;fill:rgb(39.99939%,39.99939%,39.99939%);fill-opacity:1;stroke-width:0.03;stroke-linecap:square;stroke-linejoin:miter;stroke:rgb(39.99939%,39.99939%,39.99939%);stroke-opacity:1;stroke-miterlimit:3.239307;" d="M 183.34375 122.578125 L 190.851562 130.558594 L 155.648438 141.132812 L 151.828125 131.804688 Z M 183.34375 122.578125 " transform="matrix(1,0,0,1,-74,-13)"/>
<path style="fill-rule:nonzero;fill:rgb(39.99939%,39.99939%,39.99939%);fill-opacity:1;stroke-width:0.03;stroke-linecap:square;stroke-linejoin:miter;stroke:rgb(39.99939%,39.99939%,39.99939%);stroke-opacity:1;stroke-miterlimit:3.239307;" d="M 192.402344 131.707031 L 199.347656 138.710938 L 192.972656 140.90625 L 160.332031 152.167969 L 156.378906 142.914062 Z M 192.402344 131.707031 " transform="matrix(1,0,0,1,-74,-13)"/>
<path style="fill-rule:nonzero;fill:rgb(39.99939%,39.99939%,39.99939%);fill-opacity:1;stroke-width:0.03;stroke-linecap:square;stroke-linejoin:miter;stroke:rgb(39.99939%,39.99939%,39.99939%);stroke-opacity:1;stroke-miterlimit:3.239307;" d="M 168.066406 151.285156 L 176.898438 148.238281 L 201.765625 204.34375 L 192.152344 207.933594 Z M 168.066406 151.285156 " transform="matrix(1,0,0,1,-74,-13)"/>
<path style="fill-rule:nonzero;fill:rgb(39.99939%,39.99939%,39.99939%);fill-opacity:1;stroke-width:0.03;stroke-linecap:square;stroke-linejoin:miter;stroke:rgb(39.99939%,39.99939%,39.99939%);stroke-opacity:1;stroke-miterlimit:3.239307;" d="M 178.515625 147.679688 L 188.851562 144.117188 L 212.871094 200.199219 L 203.78125 203.589844 Z M 178.515625 147.679688 " transform="matrix(1,0,0,1,-74,-13)"/>
<path style="fill-rule:nonzero;fill:rgb(39.99939%,39.99939%,39.99939%);fill-opacity:1;stroke-width:0.03;stroke-linecap:square;stroke-linejoin:miter;stroke:rgb(39.99939%,39.99939%,39.99939%);stroke-opacity:1;stroke-miterlimit:3.239307;" d="M 160.828125 153.78125 L 166.390625 151.863281 L 190.296875 208.683594 L 184.605469 210.75 Z M 160.828125 153.78125 " transform="matrix(1,0,0,1,-74,-13)"/>
<path style="fill-rule:nonzero;fill:rgb(39.99939%,39.99939%,39.99939%);fill-opacity:1;stroke-width:0.03;stroke-linecap:square;stroke-linejoin:miter;stroke:rgb(39.99939%,39.99939%,39.99939%);stroke-opacity:1;stroke-miterlimit:3.239307;" d="M 125.429688 64.429688 L 139.855469 78.746094 L 131.421875 81.988281 Z M 125.429688 64.429688 " transform="matrix(1,0,0,1,-74,-13)"/>
<path style="fill-rule:nonzero;fill:rgb(39.99939%,39.99939%,39.99939%);fill-opacity:1;stroke-width:0.03;stroke-linecap:square;stroke-linejoin:miter;stroke:rgb(39.99939%,39.99939%,39.99939%);stroke-opacity:1;stroke-miterlimit:3.239307;" d="M 161.695312 100.761719 L 170.738281 109.660156 L 145.917969 117.378906 L 141.929688 107.640625 Z M 161.695312 100.761719 " transform="matrix(1,0,0,1,-74,-13)"/>
<path style="fill-rule:nonzero;fill:rgb(39.99939%,39.99939%,39.99939%);fill-opacity:1;stroke-width:0.03;stroke-linecap:square;stroke-linejoin:miter;stroke:rgb(39.99939%,39.99939%,39.99939%);stroke-opacity:1;stroke-miterlimit:3.239307;" d="M 152.527344 91.519531 L 160.082031 99.136719 L 141.15625 105.753906 L 137.4375 96.675781 Z M 152.527344 91.519531 " transform="matrix(1,0,0,1,-74,-13)"/>
<path style="fill-rule:nonzero;fill:rgb(39.99939%,39.99939%,39.99939%);fill-opacity:1;stroke-width:0.03;stroke-linecap:square;stroke-linejoin:miter;stroke:rgb(39.99939%,39.99939%,39.99939%);stroke-opacity:1;stroke-miterlimit:3.239307;" d="M 141.777344 80.683594 L 150.933594 89.886719 L 136.703125 94.878906 L 132.238281 83.984375 Z M 141.777344 80.683594 " transform="matrix(1,0,0,1,-74,-13)"/>
<path style="fill-rule:nonzero;fill:rgb(39.99939%,39.99939%,39.99939%);fill-opacity:1;stroke-width:0.03;stroke-linecap:square;stroke-linejoin:miter;stroke:rgb(39.99939%,39.99939%,39.99939%);stroke-opacity:1;stroke-miterlimit:3.239307;" d="M 204.1875 205.878906 L 213.609375 202.363281 L 241.5 255.523438 L 232.308594 259.292969 Z M 204.1875 205.878906 " transform="matrix(1,0,0,1,-74,-13)"/>
<path style="fill-rule:nonzero;fill:rgb(39.99939%,39.99939%,39.99939%);fill-opacity:1;stroke-width:0.03;stroke-linecap:square;stroke-linejoin:miter;stroke:rgb(39.99939%,39.99939%,39.99939%);stroke-opacity:1;stroke-miterlimit:3.239307;" d="M 210.886719 146.664062 L 210.546875 146.960938 L 203.601562 139.78125 L 203.816406 139.597656 Z M 210.886719 146.664062 " transform="matrix(1,0,0,1,-74,-13)"/>
<path style="fill-rule:nonzero;fill:rgb(39.99939%,39.99939%,39.99939%);fill-opacity:1;stroke-width:0.03;stroke-linecap:square;stroke-linejoin:miter;stroke:rgb(39.99939%,39.99939%,39.99939%);stroke-opacity:1;stroke-miterlimit:3.239307;" d="M 215.359375 201.707031 L 225.738281 197.835938 L 252.871094 250.863281 L 243.503906 255.078125 Z M 215.359375 201.707031 " transform="matrix(1,0,0,1,-74,-13)"/>
<path style="fill-rule:nonzero;fill:rgb(39.99939%,39.99939%,39.99939%);fill-opacity:1;stroke-width:0.03;stroke-linecap:square;stroke-linejoin:miter;stroke:rgb(39.99939%,39.99939%,39.99939%);stroke-opacity:1;stroke-miterlimit:3.239307;" d="M 227.496094 197.179688 L 236.457031 193.835938 L 264.4375 246.117188 L 254.636719 250.136719 Z M 227.496094 197.179688 " transform="matrix(1,0,0,1,-74,-13)"/>
<path style="fill-rule:nonzero;fill:rgb(39.99939%,39.99939%,39.99939%);fill-opacity:1;stroke-width:0.03;stroke-linecap:square;stroke-linejoin:miter;stroke:rgb(39.99939%,39.99939%,39.99939%);stroke-opacity:1;stroke-miterlimit:3.239307;" d="M 184.597656 213.367188 L 191.128906 210.753906 L 217.011719 265.566406 L 209.800781 268.523438 Z M 184.597656 213.367188 " transform="matrix(1,0,0,1,-74,-13)"/>
<path style="fill-rule:nonzero;fill:rgb(39.99939%,39.99939%,39.99939%);fill-opacity:1;stroke-width:0.03;stroke-linecap:square;stroke-linejoin:miter;stroke:rgb(39.99939%,39.99939%,39.99939%);stroke-opacity:1;stroke-miterlimit:3.239307;" d="M 192.71875 210.160156 L 202.078125 206.667969 L 230.507812 260.03125 L 219.144531 264.550781 Z M 192.71875 210.160156 " transform="matrix(1,0,0,1,-74,-13)"/>
<path style="fill-rule:nonzero;fill:rgb(39.99939%,39.99939%,39.99939%);fill-opacity:1;stroke-width:0.03;stroke-linecap:square;stroke-linejoin:miter;stroke:rgb(39.99939%,39.99939%,39.99939%);stroke-opacity:1;stroke-miterlimit:3.239307;" d="M 238.585938 193.039062 L 248.5 189.339844 L 276.695312 241.09375 L 266.558594 245.25 Z M 238.585938 193.039062 " transform="matrix(1,0,0,1,-74,-13)"/>
<path style="fill-rule:nonzero;fill:rgb(39.99939%,39.99939%,39.99939%);fill-opacity:1;stroke-width:0.03;stroke-linecap:square;stroke-linejoin:miter;stroke:rgb(39.99939%,39.99939%,39.99939%);stroke-opacity:1;stroke-miterlimit:3.239307;" d="M 255.863281 199.855469 L 257.640625 198.824219 L 283.753906 224.894531 L 277.625 227.804688 L 279.40625 229.585938 L 285.4375 226.675781 L 293.953125 234.015625 L 278.664062 240.285156 Z M 255.863281 199.855469 " transform="matrix(1,0,0,1,-74,-13)"/>
<path style="fill-rule:nonzero;fill:rgb(39.99939%,39.99939%,39.99939%);fill-opacity:1;stroke-width:0.03;stroke-linecap:square;stroke-linejoin:miter;stroke:rgb(39.99939%,39.99939%,39.99939%);stroke-opacity:1;stroke-miterlimit:3.239307;" d="M 203.367188 143.488281 L 225.210938 166.046875 L 236.902344 191.230469 L 227.132812 194.875 Z M 203.367188 143.488281 " transform="matrix(1,0,0,1,-74,-13)"/>
<path style="fill-rule:nonzero;fill:rgb(39.99939%,39.99939%,39.99939%);fill-opacity:1;stroke-width:0.03;stroke-linecap:square;stroke-linejoin:miter;stroke:rgb(39.99939%,39.99939%,39.99939%);stroke-opacity:1;stroke-miterlimit:3.239307;" d="M 231.273438 171.390625 L 246.46875 187.660156 L 238.992188 190.449219 Z M 231.273438 171.390625 " transform="matrix(1,0,0,1,-74,-13)"/>
<path style="fill-rule:nonzero;fill:rgb(39.99939%,39.99939%,39.99939%);fill-opacity:1;stroke-width:0.03;stroke-linecap:square;stroke-linejoin:miter;stroke:rgb(39.99939%,39.99939%,39.99939%);stroke-opacity:1;stroke-miterlimit:3.239307;" d="M 190.453125 143.5625 L 199.386719 140.574219 L 224.28125 195.941406 L 215.578125 199.1875 Z M 190.453125 143.5625 " transform="matrix(1,0,0,1,-74,-13)"/>
<path style=" stroke:none;fill-rule:evenodd;fill:rgb(85.096741%,85.096741%,81.959534%);fill-opacity:0.7;" d="M 287.457031 59 C 287.457031 55.429688 286.039062 52.007812 283.515625 49.484375 C 280.992188 46.960938 277.570312 45.542969 274 45.542969 C 270.429688 45.542969 267.007812 46.960938 264.484375 49.484375 C 261.960938 52.007812 260.542969 55.429688 260.542969 59 C 260.542969 62.570312 261.960938 65.992188 264.484375 68.515625 C 267.007812 71.039062 270.429688 72.457031 274 72.457031 C 277.570312 72.457031 280.992188 71.039062 283.515625 68.515625 C 286.039062 65.992188 287.457031 62.570312 287.457031 59 Z M 287.457031 59 "/>
<path style=" stroke:none;fill-rule:evenodd;fill:rgb(85.096741%,85.096741%,81.959534%);fill-opacity:0.7;" d="M 115.457031 57 C 115.457031 53.429688 114.039062 50.007812 111.515625 47.484375 C 108.992188 44.960938 105.570312 43.542969 102 43.542969 C 98.429688 43.542969 95.007812 44.960938 92.484375 47.484375 C 89.960938 50.007812 88.542969 53.429688 88.542969 57 C 88.542969 60.570312 89.960938 63.992188 92.484375 66.515625 C 95.007812 69.039062 98.429688 70.457031 102 70.457031 C 105.570312 70.457031 108.992188 69.039062 111.515625 66.515625 C 114.039062 63.992188 115.457031 60.570312 115.457031 57 Z M 115.457031 57 "/>
</g>
</svg>
