<?xml version="1.0" encoding="UTF-8"?>
<svg xmlns="http://www.w3.org/2000/svg" xmlns:xlink="http://www.w3.org/1999/xlink" width="361pt" height="361pt" viewBox="0 0 361 361" version="1.1">
<defs>
<clipPath id="clip1">
  <path d="M 358 267 L 360 267 L 360 332 L 358 332 Z M 358 267 "/>
</clipPath>
<clipPath id="clip2">
  <path d="M 359 218 L 360 218 L 360 314 L 359 314 Z M 359 218 "/>
</clipPath>
<clipPath id="clip3">
  <path d="M 341 328 L 360 328 L 360 360 L 341 360 Z M 341 328 "/>
</clipPath>
<clipPath id="clip4">
  <path d="M 329 0 L 360 0 L 360 106 L 329 106 Z M 329 0 "/>
</clipPath>
<clipPath id="clip5">
  <path d="M 0 276 L 47 276 L 47 360 L 0 360 Z M 0 276 "/>
</clipPath>
<clipPath id="clip6">
  <path d="M 94 291 L 232 291 L 232 360 L 94 360 Z M 94 291 "/>
</clipPath>
<clipPath id="clip7">
  <path d="M 223 307 L 263 307 L 263 360 L 223 360 Z M 223 307 "/>
</clipPath>
<clipPath id="clip8">
  <path d="M 255 311 L 294 311 L 294 360 L 255 360 Z M 255 311 "/>
</clipPath>
<clipPath id="clip9">
  <path d="M 36 284 L 108 284 L 108 360 L 36 360 Z M 36 284 "/>
</clipPath>
<clipPath id="clip10">
  <path d="M 282 319 L 293 319 L 293 360 L 282 360 Z M 282 319 "/>
</clipPath>
<clipPath id="clip11">
  <path d="M 296 210 L 360 210 L 360 319 L 296 319 Z M 296 210 "/>
</clipPath>
<clipPath id="clip12">
  <path d="M 289 316 L 347 316 L 347 360 L 289 360 Z M 289 316 "/>
</clipPath>
<clipPath id="clip13">
  <path d="M 278 326 L 353 326 L 353 360 L 278 360 Z M 278 326 "/>
</clipPath>
<clipPath id="clip14">
  <path d="M 312 102 L 360 102 L 360 215 L 312 215 Z M 312 102 "/>
</clipPath>
</defs>
<g id="surface525">
<path style="fill-rule:nonzero;fill:rgb(0%,0%,0%);fill-opacity:1;stroke-width:0.03;stroke-linecap:square;stroke-linejoin:miter;stroke:rgb(0%,0%,0%);stroke-opacity:1;stroke-miterlimit:10;" d="M 0 178 L 360 178 L 360 -182 L 0 -182 Z M 0 178 " transform="matrix(1,0,0,1,0,182)"/>
<g clip-path="url(#clip1)" clip-rule="nonzero">
<path style=" stroke:none;fill-rule:nonzero;fill:rgb(39.99939%,39.99939%,39.99939%);fill-opacity:0.3;" d="M 425.0625 267.542969 L 415.136719 331.503906 L 361.417969 324.75 L 358.414062 320.464844 Z M 425.0625 267.542969 "/>
</g>
<g clip-path="url(#clip2)" clip-rule="nonzero">
<path style=" stroke:none;fill-rule:nonzero;fill:rgb(39.99939%,39.99939%,39.99939%);fill-opacity:0.3;" d="M 373.402344 218.8125 L 430.929688 226.050781 L 425.328125 261.597656 L 359.53125 313.222656 Z M 373.402344 218.8125 "/>
</g>
<g clip-path="url(#clip3)" clip-rule="nonzero">
<path style=" stroke:none;fill-rule:nonzero;fill:rgb(39.99939%,39.99939%,39.99939%);fill-opacity:0.3;" d="M 357.15625 331.269531 L 360.332031 328.636719 L 414.601562 335.5 L 399.367188 442.328125 L 341.9375 434.714844 Z M 357.15625 331.269531 "/>
</g>
<path style=" stroke:none;fill-rule:nonzero;fill:rgb(39.99939%,39.99939%,39.99939%);fill-opacity:0.3;" d="M -14.035156 18.136719 L 18.933594 25.199219 L 9.484375 73.425781 L -26.5625 66.375 L -24.117188 55.035156 L -23.109375 44.523438 L -20.503906 33.445312 L -15.789062 22.503906 Z M -14.035156 18.136719 "/>
<path style=" stroke:none;fill-rule:nonzero;fill:rgb(39.99939%,39.99939%,39.99939%);fill-opacity:0.3;" d="M -35.722656 117.074219 L 1.03125 122.085938 L -7.726562 165.457031 L -45.855469 160.554688 L -46.472656 160.445312 Z M -35.722656 117.074219 "/>
<path style=" stroke:none;fill-rule:nonzero;fill:rgb(39.99939%,39.99939%,39.99939%);fill-opacity:0.3;" d="M -26.96875 68.363281 L 9.230469 75.28125 L 1.5 119.957031 L -35.589844 114.6875 Z M -26.96875 68.363281 "/>
<path style=" stroke:none;fill-rule:nonzero;fill:rgb(39.99939%,39.99939%,39.99939%);fill-opacity:0.3;" d="M 16.429688 -87.296875 L 46.210938 -82.808594 L 24.71875 -2.105469 L 19.507812 23.429688 L -14.980469 15.8125 L -9.804688 -2.171875 L 3.011719 -45.859375 Z M 16.429688 -87.296875 "/>
<path style=" stroke:none;fill-rule:nonzero;fill:rgb(39.99939%,39.99939%,39.99939%);fill-opacity:0.3;" d="M 311.3125 -13.316406 L 338.890625 -9.527344 L 325.058594 97.414062 L 296.691406 93.730469 Z M 311.3125 -13.316406 "/>
<path style=" stroke:none;fill-rule:nonzero;fill:rgb(39.99939%,39.99939%,39.99939%);fill-opacity:0.3;" d="M 282.03125 -17.234375 L 308.652344 -13.5625 L 294.542969 93.445312 L 267.292969 90.351562 Z M 282.03125 -17.234375 "/>
<path style=" stroke:none;fill-rule:nonzero;fill:rgb(39.99939%,39.99939%,39.99939%);fill-opacity:0.3;" d="M 220.394531 -27.515625 L 248.261719 -23.160156 L 235.164062 62.160156 L 236.472656 62.183594 L 237.78125 62.203125 L 251.300781 -22.851562 L 278.417969 -18.53125 L 264.359375 89.160156 L 205.527344 81.433594 Z M 220.394531 -27.515625 "/>
<g clip-path="url(#clip4)" clip-rule="nonzero">
<path style=" stroke:none;fill-rule:nonzero;fill:rgb(39.99939%,39.99939%,39.99939%);fill-opacity:0.3;" d="M 343.320312 -8.953125 L 400.59375 -1.5 L 396.386719 29.015625 L 396.363281 29.195312 L 375.628906 27.363281 L 375.253906 29.933594 L 395.683594 31.953125 L 392.445312 59.171875 L 363.992188 56.75 L 363.785156 58.113281 L 363.578125 59.480469 L 392.015625 62.339844 L 390.148438 74.957031 L 385.609375 105.015625 L 383.546875 104.804688 L 373.5 103.53125 L 374.28125 92 L 373.324219 91.90625 L 372.371094 91.8125 L 371.160156 103.199219 L 329.199219 98.519531 Z M 343.320312 -8.953125 "/>
</g>
<path style=" stroke:none;fill-rule:nonzero;fill:rgb(39.99939%,39.99939%,39.99939%);fill-opacity:0.3;" d="M 3.980469 171.15625 L 31.46875 174.671875 L 61.730469 178.550781 L 60.335938 188.636719 L 47.515625 279.667969 L -10.425781 271.917969 L 0.894531 192.734375 L 1.785156 186.503906 Z M 3.980469 171.15625 "/>
<g clip-path="url(#clip5)" clip-rule="nonzero">
<path style=" stroke:none;fill-rule:nonzero;fill:rgb(39.99939%,39.99939%,39.99939%);fill-opacity:0.3;" d="M -11.214844 276.007812 L 46.769531 283.792969 L 32.535156 389.234375 L 32.472656 389.492188 L -26.121094 381.613281 Z M -11.214844 276.007812 "/>
</g>
<path style=" stroke:none;fill-rule:nonzero;fill:rgb(39.99939%,39.99939%,39.99939%);fill-opacity:0.3;" d="M 119.289062 76.691406 L 118.070312 87.230469 L 92.214844 83.964844 L 93.355469 74.414062 Z M 119.289062 76.691406 "/>
<path style=" stroke:none;fill-rule:nonzero;fill:rgb(39.99939%,39.99939%,39.99939%);fill-opacity:0.3;" d="M 47.933594 74.898438 L 77.09375 80.164062 L 62.542969 174.238281 L 62.328125 174.210938 L 62.246094 174.800781 L 33.707031 171.136719 Z M 47.933594 74.898438 "/>
<path style=" stroke:none;fill-rule:nonzero;fill:rgb(39.99939%,39.99939%,39.99939%);fill-opacity:0.3;" d="M 23.304688 69.898438 L 45.285156 74.246094 L 31.117188 170.710938 L 4.667969 167.183594 Z M 23.304688 69.898438 "/>
<path style=" stroke:none;fill-rule:nonzero;fill:rgb(39.99939%,39.99939%,39.99939%);fill-opacity:0.3;" d="M 79.679688 84.863281 L 84.613281 80.945312 L 87.777344 81.199219 L 88.039062 84.734375 L 120.613281 89.144531 L 121.109375 81.882812 L 126.074219 76.769531 L 139.710938 77.765625 L 132.628906 127.320312 L 130.921875 127.179688 L 130.046875 131.527344 L 131.988281 131.8125 L 131.015625 138.625 L 128.433594 138.515625 L 124.015625 182.128906 L 107.441406 180.34375 L 100.980469 179.457031 L 104.65625 143.558594 L 103.246094 143.46875 L 101.839844 143.375 L 98.097656 179.0625 L 95.792969 178.746094 L 66.480469 174.773438 Z M 79.679688 84.863281 "/>
<path style=" stroke:none;fill-rule:nonzero;fill:rgb(39.99939%,39.99939%,39.99939%);fill-opacity:0.3;" d="M 138.339844 75.257812 L 99.402344 71.789062 L 121.882812 72.6875 Z M 138.339844 75.257812 "/>
<path style=" stroke:none;fill-rule:nonzero;fill:rgb(39.99939%,39.99939%,39.99939%);fill-opacity:0.3;" d="M 87.261719 74.214844 L 84.589844 78.820312 L 80.691406 78.113281 L 84.449219 76.089844 Z M 87.261719 74.214844 "/>
<path style=" stroke:none;fill-rule:nonzero;fill:rgb(39.99939%,39.99939%,39.99939%);fill-opacity:0.3;" d="M 68.839844 75.972656 L 50.914062 72.738281 L 62.898438 74.390625 Z M 68.839844 75.972656 "/>
<path style=" stroke:none;fill-rule:nonzero;fill:rgb(39.99939%,39.99939%,39.99939%);fill-opacity:0.3;" d="M 61.730469 178.550781 L 61.753906 178.554688 L 60.335938 188.636719 Z M 61.730469 178.550781 "/>
<path style=" stroke:none;fill-rule:nonzero;fill:rgb(39.99939%,39.99939%,39.99939%);fill-opacity:0.3;" d="M 123.601562 186.046875 L 108.113281 286.882812 L 51.429688 280.128906 L 65.421875 179.351562 Z M 123.601562 186.046875 "/>
<path style=" stroke:none;fill-rule:nonzero;fill:rgb(39.99939%,39.99939%,39.99939%);fill-opacity:0.3;" d="M 184.449219 193.679688 L 170.105469 294.667969 L 112.695312 287.6875 L 127.351562 186.5 Z M 184.449219 193.679688 "/>
<path style=" stroke:none;fill-rule:nonzero;fill:rgb(39.99939%,39.99939%,39.99939%);fill-opacity:0.3;" d="M 187.890625 194.363281 L 214.285156 197.53125 L 198.785156 298.632812 L 174.042969 295.453125 Z M 187.890625 194.363281 "/>
<path style=" stroke:none;fill-rule:nonzero;fill:rgb(39.99939%,39.99939%,39.99939%);fill-opacity:0.3;" d="M 217.277344 197.871094 L 247.414062 201.6875 L 231.597656 303.050781 L 203.015625 299.101562 Z M 217.277344 197.871094 "/>
<path style=" stroke:none;fill-rule:nonzero;fill:rgb(39.99939%,39.99939%,39.99939%);fill-opacity:0.3;" d="M 250.171875 202 L 277.25 205.707031 L 262.6875 305.898438 L 261.402344 305.789062 L 249.640625 305.320312 L 235.230469 303.503906 Z M 250.171875 202 "/>
<path style=" stroke:none;fill-rule:nonzero;fill:rgb(39.99939%,39.99939%,39.99939%);fill-opacity:0.3;" d="M 280.339844 206.097656 L 308.570312 209.609375 L 294.21875 308.570312 L 265.851562 306.167969 L 267.265625 297.261719 L 269.277344 297.464844 L 270.777344 285.523438 L 268.40625 285.144531 Z M 280.339844 206.097656 "/>
<path style=" stroke:none;fill-rule:nonzero;fill:rgb(39.99939%,39.99939%,39.99939%);fill-opacity:0.3;" d="M 289.898438 203.753906 L 280.882812 202.542969 L 280.894531 202.441406 Z M 289.898438 203.753906 "/>
<path style=" stroke:none;fill-rule:nonzero;fill:rgb(39.99939%,39.99939%,39.99939%);fill-opacity:0.3;" d="M 277.796875 201.992188 L 277.785156 202.082031 L 250.71875 198.800781 L 250.777344 198.425781 Z M 277.796875 201.992188 "/>
<path style=" stroke:none;fill-rule:nonzero;fill:rgb(39.99939%,39.99939%,39.99939%);fill-opacity:0.3;" d="M 62.542969 174.238281 L 62.453125 174.828125 L 62.246094 174.800781 L 62.328125 174.210938 Z M 62.542969 174.238281 "/>
<path style=" stroke:none;fill-rule:nonzero;fill:rgb(39.99939%,39.99939%,39.99939%);fill-opacity:0.3;" d="M 107.441406 180.34375 L 100.960938 179.648438 L 100.980469 179.457031 Z M 107.441406 180.34375 "/>
<path style=" stroke:none;fill-rule:nonzero;fill:rgb(39.99939%,39.99939%,39.99939%);fill-opacity:0.3;" d="M 98.097656 179.0625 L 98.078125 179.25 L 66.371094 175.527344 L 66.480469 174.773438 L 95.792969 178.746094 Z M 98.097656 179.0625 "/>
<path style=" stroke:none;fill-rule:nonzero;fill:rgb(39.99939%,39.99939%,39.99939%);fill-opacity:0.3;" d="M 247.859375 198.039062 L 247.808594 198.386719 L 217.988281 194.585938 L 218.019531 194.375 L 247.789062 198.03125 Z M 247.859375 198.039062 "/>
<g clip-path="url(#clip6)" clip-rule="nonzero">
<path style=" stroke:none;fill-rule:nonzero;fill:rgb(39.99939%,39.99939%,39.99939%);fill-opacity:0.3;" d="M 170.972656 299.199219 L 200.457031 302.921875 L 231.335938 306.820312 L 220.066406 392.203125 L 94.722656 403.898438 L 111.734375 291.734375 Z M 170.972656 299.199219 "/>
</g>
<g clip-path="url(#clip7)" clip-rule="nonzero">
<path style=" stroke:none;fill-rule:nonzero;fill:rgb(39.99939%,39.99939%,39.99939%);fill-opacity:0.3;" d="M 234.65625 307.214844 L 262.246094 310.871094 L 253.097656 386.078125 L 237.179688 390.21875 L 223.550781 391.757812 Z M 234.65625 307.214844 "/>
</g>
<g clip-path="url(#clip8)" clip-rule="nonzero">
<path style=" stroke:none;fill-rule:nonzero;fill:rgb(39.99939%,39.99939%,39.99939%);fill-opacity:0.3;" d="M 264.640625 311.230469 L 293.210938 315.527344 L 292.695312 319.683594 L 283.523438 366.476562 L 282.679688 373.34375 L 272.417969 379.769531 L 255.9375 385.507812 Z M 264.640625 311.230469 "/>
</g>
<path style=" stroke:none;fill-rule:nonzero;fill:rgb(39.99939%,39.99939%,39.99939%);fill-opacity:0.3;" d="M 262.6875 305.898438 L 262.535156 306.945312 L 249.640625 305.320312 L 261.402344 305.789062 Z M 262.6875 305.898438 "/>
<path style=" stroke:none;fill-rule:nonzero;fill:rgb(39.99939%,39.99939%,39.99939%);fill-opacity:0.3;" d="M 294.21875 308.570312 L 293.785156 311.582031 L 265.65625 307.390625 L 265.851562 306.167969 Z M 294.21875 308.570312 "/>
<g clip-path="url(#clip9)" clip-rule="nonzero">
<path style=" stroke:none;fill-rule:nonzero;fill:rgb(39.99939%,39.99939%,39.99939%);fill-opacity:0.3;" d="M 50.230469 284.40625 L 107.671875 291.066406 L 92.878906 391.328125 L 87.09375 393.707031 L 76.109375 394.113281 L 36.136719 389.972656 L 41.175781 356.597656 L 67.753906 360.027344 L 67.941406 358.949219 L 68.132812 357.871094 L 41.253906 354.144531 L 46.335938 315.183594 L 57.539062 316.160156 L 57.78125 313.683594 L 46.539062 312.441406 Z M 50.230469 284.40625 "/>
</g>
<g clip-path="url(#clip10)" clip-rule="nonzero">
<path style=" stroke:none;fill-rule:nonzero;fill:rgb(39.99939%,39.99939%,39.99939%);fill-opacity:0.3;" d="M 292.695312 319.683594 L 286.34375 371.050781 L 282.679688 373.34375 L 283.523438 366.476562 Z M 292.695312 319.683594 "/>
</g>
<g clip-path="url(#clip11)" clip-rule="nonzero">
<path style=" stroke:none;fill-rule:nonzero;fill:rgb(39.99939%,39.99939%,39.99939%);fill-opacity:0.3;" d="M 354.515625 316.882812 L 351.765625 318.222656 L 342.429688 317.878906 L 296.953125 312.015625 L 311.929688 210.214844 L 369.203125 218.316406 L 366.882812 235.28125 Z M 354.515625 316.882812 "/>
</g>
<g clip-path="url(#clip12)" clip-rule="nonzero">
<path style=" stroke:none;fill-rule:nonzero;fill:rgb(39.99939%,39.99939%,39.99939%);fill-opacity:0.3;" d="M 296.15625 316.023438 L 346.3125 322.347656 L 289.550781 367.664062 Z M 296.15625 316.023438 "/>
</g>
<g clip-path="url(#clip13)" clip-rule="nonzero">
<path style=" stroke:none;fill-rule:nonzero;fill:rgb(39.99939%,39.99939%,39.99939%);fill-opacity:0.3;" d="M 353 331.082031 L 338.382812 433.308594 L 282.953125 426.027344 L 278.128906 426.429688 L 283.890625 393.660156 L 288.242188 383.914062 L 292.496094 376.363281 L 296.382812 371.007812 L 308.378906 358.464844 L 352.015625 326.570312 Z M 353 331.082031 "/>
</g>
<g clip-path="url(#clip14)" clip-rule="nonzero">
<path style=" stroke:none;fill-rule:nonzero;fill:rgb(39.99939%,39.99939%,39.99939%);fill-opacity:0.3;" d="M 312.445312 206.496094 L 328.570312 102.085938 L 352.019531 104.523438 L 350.378906 114.539062 L 352.25 114.949219 L 354.121094 115.363281 L 355.382812 104.9375 L 386.726562 108.765625 L 370.128906 214.539062 L 369.730469 214.476562 L 369.710938 214.617188 Z M 312.445312 206.496094 "/>
</g>
<path style=" stroke:none;fill-rule:nonzero;fill:rgb(39.99939%,39.99939%,39.99939%);fill-opacity:0.3;" d="M 197.027344 -33.296875 L 217.273438 -29.066406 L 206.734375 47.007812 L 189.386719 42.972656 Z M 197.027344 -33.296875 "/>
<path style=" stroke:none;fill-rule:nonzero;fill:rgb(39.99939%,39.99939%,39.99939%);fill-opacity:0.3;" d="M 194.558594 -34.09375 L 187.859375 31.582031 L 188.417969 35.152344 L 187.394531 42.800781 L 148.660156 33.742188 L 150.96875 18.085938 L 160.804688 15.632812 L 167.746094 -23.34375 L 163.886719 -24.144531 L 166.359375 -42.519531 Z M 194.558594 -34.09375 "/>
<path style=" stroke:none;fill-rule:nonzero;fill:rgb(39.99939%,39.99939%,39.99939%);fill-opacity:0.3;" d="M 148.808594 35.703125 L 165.476562 39.488281 L 162.675781 77.125 L 149.988281 76.199219 L 149.105469 76.089844 L 144.714844 75.816406 L 143.570312 75.734375 Z M 148.808594 35.703125 "/>
<path style=" stroke:none;fill-rule:nonzero;fill:rgb(39.99939%,39.99939%,39.99939%);fill-opacity:0.3;" d="M 166.824219 39.832031 L 206.46875 48.589844 L 201.800781 81.058594 L 186.222656 79.589844 L 186.945312 62.316406 L 186.378906 62.304688 L 185.816406 62.292969 L 185.132812 79.5 L 163.847656 77.289062 Z M 166.824219 39.832031 "/>
<path style=" stroke:none;fill-rule:nonzero;fill:rgb(39.99939%,39.99939%,39.99939%);fill-opacity:0.3;" d="M 100.898438 -64.648438 L 126.652344 -55.6875 L 115.105469 -22.199219 L 117.253906 -21.183594 L 128.46875 -55.191406 L 164.636719 -43 L 157.386719 10.65625 L 147.6875 15.308594 L 147.058594 27.632812 L 144.070312 32.453125 L 125.644531 28.089844 L 138.90625 -15.078125 L 136.851562 -15.859375 L 124.609375 24.652344 L 123.144531 26.644531 L 118.777344 26.109375 L 100.765625 21.027344 L 93.859375 18.535156 L 88.4375 16.390625 L 84.722656 13.949219 L 81.214844 10.644531 L 81.152344 6.605469 L 86.160156 -14.628906 L 93.746094 -12.65625 L 93.882812 -13.285156 L 94.015625 -13.914062 L 86.683594 -15.84375 Z M 100.898438 -64.648438 "/>
<path style=" stroke:none;fill-rule:nonzero;fill:rgb(39.99939%,39.99939%,39.99939%);fill-opacity:0.3;" d="M 146.730469 34.761719 L 141.339844 75.527344 L 138.339844 75.257812 L 121.882812 72.6875 L 99.402344 71.789062 L 89.199219 70.878906 L 87.261719 74.214844 L 84.449219 76.089844 L 80.691406 78.113281 L 68.839844 75.972656 L 62.898438 74.390625 L 50.914062 72.738281 L 22.613281 67.625 L 31.464844 23.152344 L 35.359375 -1.539062 L 57.042969 -81.851562 L 73.121094 -76.695312 L 93.195312 -68.667969 L 95.972656 -66.878906 L 97.679688 -63.914062 L 84.359375 -14.941406 L 79.433594 6.375 L 79.214844 11.152344 L 77.371094 15.128906 L 67.589844 50.144531 L 68.371094 50.324219 L 69.15625 50.5 L 78.820312 14.980469 L 82.875 14.636719 L 87.777344 17.613281 L 93.652344 20.199219 L 99.476562 23.34375 L 123.847656 29.539062 Z M 146.730469 34.761719 "/>
<path style=" stroke:none;fill-rule:nonzero;fill:rgb(39.99939%,39.99939%,39.99939%);fill-opacity:0.3;" d="M 149.988281 76.199219 L 144.714844 75.816406 L 149.105469 76.089844 Z M 149.988281 76.199219 "/>
<path style=" stroke:none;fill-rule:nonzero;fill:rgb(39.99939%,39.99939%,39.99939%);fill-opacity:0.3;" d="M 296.113281 97.960938 L 324.449219 101.460938 L 308.871094 206.296875 L 289.898438 203.753906 L 280.894531 202.441406 Z M 296.113281 97.960938 "/>
<path style=" stroke:none;fill-rule:nonzero;fill:rgb(39.99939%,39.99939%,39.99939%);fill-opacity:0.3;" d="M 267.125 94.441406 L 293.203125 97.535156 L 277.796875 201.992188 L 250.777344 198.425781 Z M 267.125 94.441406 "/>
<path style=" stroke:none;fill-rule:nonzero;fill:rgb(39.99939%,39.99939%,39.99939%);fill-opacity:0.3;" d="M 139.710938 77.765625 L 140.933594 77.855469 L 132.984375 127.351562 L 132.628906 127.320312 Z M 139.710938 77.765625 "/>
<path style=" stroke:none;fill-rule:nonzero;fill:rgb(39.99939%,39.99939%,39.99939%);fill-opacity:0.3;" d="M 131.988281 131.8125 L 132.183594 131.839844 L 131.121094 138.628906 L 131.015625 138.625 Z M 131.988281 131.8125 "/>
<path style=" stroke:none;fill-rule:nonzero;fill:rgb(39.99939%,39.99939%,39.99939%);fill-opacity:0.3;" d="M 127.855469 182.75 L 143.300781 78.039062 L 156.675781 78.898438 L 152.203125 121.085938 L 153.90625 121.242188 L 158.175781 79.089844 L 170 80.203125 L 166.238281 121.148438 L 167.019531 121.148438 L 167.804688 121.152344 L 171.230469 80.328125 L 183.902344 81.914062 L 176.425781 147.679688 L 177.21875 147.824219 L 178.015625 147.972656 L 185.558594 82.125 L 201.429688 83.5625 L 185.023438 189.984375 Z M 127.855469 182.75 "/>
<path style=" stroke:none;fill-rule:nonzero;fill:rgb(39.99939%,39.99939%,39.99939%);fill-opacity:0.3;" d="M 205.257812 84.195312 L 264 91.941406 L 247.859375 198.039062 L 247.789062 198.03125 L 218.019531 194.375 L 227.300781 133.480469 L 224.871094 133.253906 L 214.726562 193.828125 L 188.578125 190.605469 Z M 205.257812 84.195312 "/>
<path style="fill-rule:nonzero;fill:rgb(39.99939%,39.99939%,39.99939%);fill-opacity:1;stroke-width:0.03;stroke-linecap:square;stroke-linejoin:miter;stroke:rgb(39.99939%,39.99939%,39.99939%);stroke-opacity:1;stroke-miterlimit:3.239307;" d="M 135.730469 191.550781 L 135.753906 191.554688 L 134.335938 201.636719 Z M 135.730469 191.550781 " transform="matrix(1,0,0,1,-74,-13)"/>
<path style="fill-rule:nonzero;fill:rgb(39.99939%,39.99939%,39.99939%);fill-opacity:1;stroke-width:0.03;stroke-linecap:square;stroke-linejoin:miter;stroke:rgb(39.99939%,39.99939%,39.99939%);stroke-opacity:1;stroke-miterlimit:3.239307;" d="M 197.601562 199.046875 L 182.113281 299.882812 L 125.429688 293.128906 L 139.421875 192.351562 Z M 197.601562 199.046875 " transform="matrix(1,0,0,1,-74,-13)"/>
<path style="fill-rule:nonzero;fill:rgb(39.99939%,39.99939%,39.99939%);fill-opacity:1;stroke-width:0.03;stroke-linecap:square;stroke-linejoin:miter;stroke:rgb(39.99939%,39.99939%,39.99939%);stroke-opacity:1;stroke-miterlimit:3.239307;" d="M 258.449219 206.679688 L 244.105469 307.667969 L 186.695312 300.6875 L 201.351562 199.5 Z M 258.449219 206.679688 " transform="matrix(1,0,0,1,-74,-13)"/>
<path style="fill-rule:nonzero;fill:rgb(39.99939%,39.99939%,39.99939%);fill-opacity:1;stroke-width:0.03;stroke-linecap:square;stroke-linejoin:miter;stroke:rgb(39.99939%,39.99939%,39.99939%);stroke-opacity:1;stroke-miterlimit:3.239307;" d="M 261.890625 207.363281 L 288.285156 210.53125 L 272.785156 311.632812 L 248.042969 308.453125 Z M 261.890625 207.363281 " transform="matrix(1,0,0,1,-74,-13)"/>
<path style="fill-rule:nonzero;fill:rgb(39.99939%,39.99939%,39.99939%);fill-opacity:1;stroke-width:0.03;stroke-linecap:square;stroke-linejoin:miter;stroke:rgb(39.99939%,39.99939%,39.99939%);stroke-opacity:1;stroke-miterlimit:3.239307;" d="M 291.277344 210.871094 L 321.414062 214.6875 L 305.597656 316.050781 L 277.015625 312.101562 Z M 291.277344 210.871094 " transform="matrix(1,0,0,1,-74,-13)"/>
<path style="fill-rule:nonzero;fill:rgb(39.99939%,39.99939%,39.99939%);fill-opacity:1;stroke-width:0.03;stroke-linecap:square;stroke-linejoin:miter;stroke:rgb(39.99939%,39.99939%,39.99939%);stroke-opacity:1;stroke-miterlimit:3.239307;" d="M 324.171875 215 L 351.25 218.707031 L 336.6875 318.898438 L 335.402344 318.789062 L 323.640625 318.320312 L 309.230469 316.503906 Z M 324.171875 215 " transform="matrix(1,0,0,1,-74,-13)"/>
<path style="fill-rule:nonzero;fill:rgb(39.99939%,39.99939%,39.99939%);fill-opacity:1;stroke-width:0.03;stroke-linecap:square;stroke-linejoin:miter;stroke:rgb(39.99939%,39.99939%,39.99939%);stroke-opacity:1;stroke-miterlimit:3.239307;" d="M 354.339844 219.097656 L 382.570312 222.609375 L 368.21875 321.570312 L 339.851562 319.167969 L 341.265625 310.261719 L 343.277344 310.464844 L 344.777344 298.523438 L 342.40625 298.144531 Z M 354.339844 219.097656 " transform="matrix(1,0,0,1,-74,-13)"/>
<path style="fill-rule:nonzero;fill:rgb(39.99939%,39.99939%,39.99939%);fill-opacity:1;stroke-width:0.03;stroke-linecap:square;stroke-linejoin:miter;stroke:rgb(39.99939%,39.99939%,39.99939%);stroke-opacity:1;stroke-miterlimit:3.239307;" d="M 363.898438 216.753906 L 354.882812 215.542969 L 354.894531 215.441406 Z M 363.898438 216.753906 " transform="matrix(1,0,0,1,-74,-13)"/>
<path style="fill-rule:nonzero;fill:rgb(39.99939%,39.99939%,39.99939%);fill-opacity:1;stroke-width:0.03;stroke-linecap:square;stroke-linejoin:miter;stroke:rgb(39.99939%,39.99939%,39.99939%);stroke-opacity:1;stroke-miterlimit:3.239307;" d="M 351.796875 214.992188 L 351.785156 215.082031 L 324.71875 211.800781 L 324.777344 211.425781 Z M 351.796875 214.992188 " transform="matrix(1,0,0,1,-74,-13)"/>
<path style="fill-rule:nonzero;fill:rgb(39.99939%,39.99939%,39.99939%);fill-opacity:1;stroke-width:0.03;stroke-linecap:square;stroke-linejoin:miter;stroke:rgb(39.99939%,39.99939%,39.99939%);stroke-opacity:1;stroke-miterlimit:3.239307;" d="M 136.542969 187.238281 L 136.453125 187.828125 L 136.246094 187.800781 L 136.328125 187.210938 Z M 136.542969 187.238281 " transform="matrix(1,0,0,1,-74,-13)"/>
<path style="fill-rule:nonzero;fill:rgb(39.99939%,39.99939%,39.99939%);fill-opacity:1;stroke-width:0.03;stroke-linecap:square;stroke-linejoin:miter;stroke:rgb(39.99939%,39.99939%,39.99939%);stroke-opacity:1;stroke-miterlimit:3.239307;" d="M 181.441406 193.34375 L 174.960938 192.648438 L 174.980469 192.457031 Z M 181.441406 193.34375 " transform="matrix(1,0,0,1,-74,-13)"/>
<path style="fill-rule:nonzero;fill:rgb(39.99939%,39.99939%,39.99939%);fill-opacity:1;stroke-width:0.03;stroke-linecap:square;stroke-linejoin:miter;stroke:rgb(39.99939%,39.99939%,39.99939%);stroke-opacity:1;stroke-miterlimit:3.239307;" d="M 172.097656 192.0625 L 172.078125 192.25 L 140.371094 188.527344 L 140.480469 187.773438 L 169.792969 191.746094 Z M 172.097656 192.0625 " transform="matrix(1,0,0,1,-74,-13)"/>
<path style="fill-rule:nonzero;fill:rgb(39.99939%,39.99939%,39.99939%);fill-opacity:1;stroke-width:0.03;stroke-linecap:square;stroke-linejoin:miter;stroke:rgb(39.99939%,39.99939%,39.99939%);stroke-opacity:1;stroke-miterlimit:3.239307;" d="M 321.859375 211.039062 L 321.808594 211.386719 L 291.988281 207.585938 L 292.019531 207.375 L 321.789062 211.03125 Z M 321.859375 211.039062 " transform="matrix(1,0,0,1,-74,-13)"/>
<path style=" stroke:none;fill-rule:evenodd;fill:rgb(85.096741%,85.096741%,81.959534%);fill-opacity:0.7;" d="M 141.6875 218 C 141.6875 211.984375 139.296875 206.210938 135.042969 201.957031 C 130.789062 197.703125 125.015625 195.3125 119 195.3125 C 112.984375 195.3125 107.210938 197.703125 102.957031 201.957031 C 98.703125 206.210938 96.3125 211.984375 96.3125 218 C 96.3125 224.015625 98.703125 229.789062 102.957031 234.042969 C 107.210938 238.296875 112.984375 240.6875 119 240.6875 C 125.015625 240.6875 130.789062 238.296875 135.042969 234.042969 C 139.296875 229.789062 141.6875 224.015625 141.6875 218 Z M 141.6875 218 "/>
<path style=" stroke:none;fill-rule:evenodd;fill:rgb(85.096741%,85.096741%,81.959534%);fill-opacity:0.7;" d="M 150.6875 153 C 150.6875 146.984375 148.296875 141.210938 144.042969 136.957031 C 139.789062 132.703125 134.015625 130.3125 128 130.3125 C 121.984375 130.3125 116.210938 132.703125 111.957031 136.957031 C 107.703125 141.210938 105.3125 146.984375 105.3125 153 C 105.3125 159.015625 107.703125 164.789062 111.957031 169.042969 C 116.210938 173.296875 121.984375 175.6875 128 175.6875 C 134.015625 175.6875 139.789062 173.296875 144.042969 169.042969 C 148.296875 164.789062 150.6875 159.015625 150.6875 153 Z M 150.6875 153 "/>
<path style=" stroke:none;fill-rule:evenodd;fill:rgb(85.096741%,85.096741%,81.959534%);fill-opacity:0.7;" d="M 187.6875 -3 C 187.6875 -9.015625 185.296875 -14.789062 181.042969 -19.042969 C 176.789062 -23.296875 171.015625 -25.6875 165 -25.6875 C 158.984375 -25.6875 153.210938 -23.296875 148.957031 -19.042969 C 144.703125 -14.789062 142.3125 -9.015625 142.3125 -3 C 142.3125 3.015625 144.703125 8.789062 148.957031 13.042969 C 153.210938 17.296875 158.984375 19.6875 165 19.6875 C 171.015625 19.6875 176.789062 17.296875 181.042969 13.042969 C 185.296875 8.789062 187.6875 3.015625 187.6875 -3 Z M 187.6875 -3 "/>
<path style="fill-rule:nonzero;fill:rgb(99.998474%,99.998474%,30.587769%);fill-opacity:0.8;stroke-width:0.288;stroke-linecap:square;stroke-linejoin:miter;stroke:rgb(0%,0%,0%);stroke-opacity:0.8;stroke-miterlimit:3.25;" d="M 78.480469 198.550781 L 29.363281 283.625 L 127.597656 283.625 Z M 78.480469 198.550781 " transform="matrix(1,0,0,1,-74,-13)"/>
</g>
</svg>
