<?xml version="1.0" encoding="UTF-8"?>
<svg xmlns="http://www.w3.org/2000/svg" xmlns:xlink="http://www.w3.org/1999/xlink" width="361pt" height="361pt" viewBox="0 0 361 361" version="1.1">
<defs>
<clipPath id="clip1">
  <path d="M 248 353 L 256 353 L 256 360 L 248 360 Z M 248 353 "/>
</clipPath>
<clipPath id="clip2">
  <path d="M 240 353 L 248 353 L 248 360 L 240 360 Z M 240 353 "/>
</clipPath>
<clipPath id="clip3">
  <path d="M 348 259 L 360 259 L 360 272 L 348 272 Z M 348 259 "/>
</clipPath>
<clipPath id="clip4">
  <path d="M 352 235 L 360 235 L 360 264 L 352 264 Z M 352 235 "/>
</clipPath>
<clipPath id="clip5">
  <path d="M 340 227 L 360 227 L 360 271 L 340 271 Z M 340 227 "/>
</clipPath>
<clipPath id="clip6">
  <path d="M 130 313 L 292 313 L 292 360 L 130 360 Z M 130 313 "/>
</clipPath>
<clipPath id="clip7">
  <path d="M 342 281 L 360 281 L 360 315 L 342 315 Z M 342 281 "/>
</clipPath>
<clipPath id="clip8">
  <path d="M 305 268 L 360 268 L 360 325 L 305 325 Z M 305 268 "/>
</clipPath>
<clipPath id="clip9">
  <path d="M 291 357 L 318 357 L 318 360 L 291 360 Z M 291 357 "/>
</clipPath>
<clipPath id="clip10">
  <path d="M 327 355 L 358 355 L 358 360 L 327 360 Z M 327 355 "/>
</clipPath>
<clipPath id="clip11">
  <path d="M 311 355 L 333 355 L 333 360 L 311 360 Z M 311 355 "/>
</clipPath>
<clipPath id="clip12">
  <path d="M 324 338 L 360 338 L 360 358 L 324 358 Z M 324 338 "/>
</clipPath>
<clipPath id="clip13">
  <path d="M 358 338 L 360 338 L 360 358 L 358 358 Z M 358 338 "/>
</clipPath>
<clipPath id="clip14">
  <path d="M 283 340 L 326 340 L 326 360 L 283 360 Z M 283 340 "/>
</clipPath>
<clipPath id="clip15">
  <path d="M 261 352 L 290 352 L 290 360 L 261 360 Z M 261 352 "/>
</clipPath>
<clipPath id="clip16">
  <path d="M 266 357 L 360 357 L 360 360 L 266 360 Z M 266 357 "/>
</clipPath>
<clipPath id="clip17">
  <path d="M 348 52 L 360 52 L 360 63 L 348 63 Z M 348 52 "/>
</clipPath>
<clipPath id="clip18">
  <path d="M 356 63 L 360 63 L 360 95 L 356 95 Z M 356 63 "/>
</clipPath>
<clipPath id="clip19">
  <path d="M 348 44 L 360 44 L 360 57 L 348 57 Z M 348 44 "/>
</clipPath>
<clipPath id="clip20">
  <path d="M 289 92 L 360 92 L 360 155 L 289 155 Z M 289 92 "/>
</clipPath>
<clipPath id="clip21">
  <path d="M 356 10 L 360 10 L 360 13 L 356 13 Z M 356 10 "/>
</clipPath>
<clipPath id="clip22">
  <path d="M 357 29 L 360 29 L 360 39 L 357 39 Z M 357 29 "/>
</clipPath>
<clipPath id="clip23">
  <path d="M 357 0 L 360 0 L 360 2 L 357 2 Z M 357 0 "/>
</clipPath>
<clipPath id="clip24">
  <path d="M 357 2 L 360 2 L 360 6 L 357 6 Z M 357 2 "/>
</clipPath>
<clipPath id="clip25">
  <path d="M 358 6 L 360 6 L 360 9 L 358 9 Z M 358 6 "/>
</clipPath>
<clipPath id="clip26">
  <path d="M 340 189 L 360 189 L 360 217 L 340 217 Z M 340 189 "/>
</clipPath>
<clipPath id="clip27">
  <path d="M 349 158 L 360 158 L 360 189 L 349 189 Z M 349 158 "/>
</clipPath>
<clipPath id="clip28">
  <path d="M 344 152 L 360 152 L 360 155 L 344 155 Z M 344 152 "/>
</clipPath>
<clipPath id="clip29">
  <path d="M 351 214 L 360 214 L 360 217 L 351 217 Z M 351 214 "/>
</clipPath>
<clipPath id="clip30">
  <path d="M 357 222 L 360 222 L 360 230 L 357 230 Z M 357 222 "/>
</clipPath>
<clipPath id="clip31">
  <path d="M 356 0 L 360 0 L 360 33 L 356 33 Z M 356 0 "/>
</clipPath>
<clipPath id="clip32">
  <path d="M 240 354 L 256 354 L 256 360 L 240 360 Z M 240 354 "/>
</clipPath>
<clipPath id="clip33">
  <path d="M 359 353 L 360 353 L 360 360 L 359 360 Z M 359 353 "/>
</clipPath>
<clipPath id="clip34">
  <path d="M 358 352 L 360 352 L 360 360 L 358 360 Z M 358 352 "/>
</clipPath>
</defs>
<g id="surface217">
<path style="fill-rule:nonzero;fill:rgb(0%,0%,0%);fill-opacity:1;stroke-width:0.03;stroke-linecap:square;stroke-linejoin:miter;stroke:rgb(0%,0%,0%);stroke-opacity:1;stroke-miterlimit:10;" d="M 0 178 L 360 178 L 360 -182 L 0 -182 Z M 0 178 " transform="matrix(1,0,0,1,0,182)"/>
<path style=" stroke:none;fill-rule:nonzero;fill:rgb(39.99939%,39.99939%,39.99939%);fill-opacity:0.3;" d="M 90.421875 284.175781 L 90.300781 285.160156 L 91.101562 285.195312 L 91.210938 284.195312 L 92.347656 284.332031 L 92.132812 287.519531 L 91.0625 287.347656 L 91.089844 286.5 L 90.207031 286.417969 L 90.101562 287.28125 L 88.785156 287.179688 L 89.257812 284.082031 Z M 90.421875 284.175781 "/>
<path style=" stroke:none;fill-rule:nonzero;fill:rgb(39.99939%,39.99939%,39.99939%);fill-opacity:0.3;" d="M 89.496094 279.34375 L 89.382812 280.335938 L 90.191406 280.378906 L 90.296875 279.375 L 91.40625 279.488281 L 91.097656 282.605469 L 90.109375 282.5 L 90.164062 281.667969 L 89.289062 281.597656 L 89.1875 282.464844 L 87.855469 282.347656 L 88.320312 279.238281 Z M 89.496094 279.34375 "/>
<path style=" stroke:none;fill-rule:nonzero;fill:rgb(39.99939%,39.99939%,39.99939%);fill-opacity:0.3;" d="M 280.105469 93.910156 L 308.570312 151.054688 L 237.914062 144.226562 L 260.371094 117.363281 Z M 280.105469 93.910156 "/>
<path style=" stroke:none;fill-rule:nonzero;fill:rgb(39.99939%,39.99939%,39.99939%);fill-opacity:0.3;" d="M 155.078125 238.613281 L 154.214844 239.664062 L 142.722656 254.140625 L 123.683594 268.75 L 99.171875 286.148438 L 92.257812 290.960938 L 68.296875 308.570312 L 65.160156 305.691406 L 64.230469 301.429688 L 64.863281 295.160156 L 67.148438 289.070312 L 70.96875 281.125 L 72.90625 279.632812 L 77.835938 255.351562 L 77.148438 253.074219 L 75.644531 250.023438 L 71.3125 246.488281 L 63.558594 242.230469 L 57.722656 239.296875 L 54.542969 236.644531 L 52.078125 232.652344 L 51.429688 229.992188 L 53.410156 223.4375 L 57.582031 213.011719 L 64.621094 200.316406 L 59.121094 195.179688 L 66.582031 161.683594 L 128.003906 124.992188 L 182.644531 84.507812 L 239.078125 64.765625 L 244.265625 61.175781 L 248.164062 61.175781 L 250.964844 63.898438 L 256.988281 69.984375 L 261.289062 74.949219 L 272.226562 86.15625 L 271.074219 87.320312 L 262.699219 88.839844 L 253.78125 91.449219 L 249.710938 93.917969 L 243.703125 98.753906 L 235.820312 106.917969 L 225.976562 116.039062 L 226.609375 116.488281 L 227.238281 116.9375 L 237.078125 108.136719 L 244.988281 100.042969 L 250.652344 95.1875 L 255.15625 92.859375 L 263.195312 90.371094 L 273.664062 88.320312 L 274.847656 89.648438 L 275.386719 91.175781 L 275.0625 93.15625 L 274.703125 95.03125 L 257.359375 115.984375 L 217.148438 163.742188 L 194.332031 190.894531 L 179.46875 208.960938 Z M 155.078125 238.613281 "/>
<path style=" stroke:none;fill-rule:nonzero;fill:rgb(39.99939%,39.99939%,39.99939%);fill-opacity:0.3;" d="M 142.203125 327.667969 L 150.464844 326.796875 L 151.855469 335.84375 L 143.183594 336.539062 Z M 142.203125 327.667969 "/>
<path style=" stroke:none;fill-rule:nonzero;fill:rgb(39.99939%,39.99939%,39.99939%);fill-opacity:0.3;" d="M 163.558594 335.496094 L 168.320312 334.851562 L 169.3125 337.078125 L 171.191406 341.289062 L 167.128906 342.042969 L 164.855469 337.871094 Z M 163.558594 335.496094 "/>
<path style=" stroke:none;fill-rule:nonzero;fill:rgb(39.99939%,39.99939%,39.99939%);fill-opacity:0.3;" d="M 155.078125 336.425781 L 162.652344 335.632812 L 166.1875 342.148438 L 156.792969 343.691406 L 154.871094 343.691406 L 154.035156 342.140625 L 153.117188 336.628906 Z M 155.078125 336.425781 "/>
<path style=" stroke:none;fill-rule:nonzero;fill:rgb(39.99939%,39.99939%,39.99939%);fill-opacity:0.3;" d="M 155.078125 324.863281 L 157.347656 323.785156 L 162.003906 334.675781 L 155.078125 335.503906 L 152.765625 335.785156 L 151.28125 326.667969 Z M 155.078125 324.863281 "/>
<path style=" stroke:none;fill-rule:nonzero;fill:rgb(39.99939%,39.99939%,39.99939%);fill-opacity:0.3;" d="M 235.8125 308.738281 L 248.914062 306.996094 L 249.800781 309.199219 L 241.476562 313.738281 L 236.578125 316.011719 Z M 235.8125 308.738281 "/>
<path style=" stroke:none;fill-rule:nonzero;fill:rgb(39.99939%,39.99939%,39.99939%);fill-opacity:0.3;" d="M 284.039062 254.304688 L 286.976562 259.960938 L 286.683594 260.074219 Z M 284.039062 254.304688 "/>
<path style=" stroke:none;fill-rule:nonzero;fill:rgb(39.99939%,39.99939%,39.99939%);fill-opacity:0.3;" d="M 279.042969 238.582031 L 332.582031 224.191406 L 338.390625 222.707031 L 340.984375 222.109375 L 345.171875 221.710938 L 347.652344 221.484375 L 351.464844 225.359375 L 350.558594 227.167969 L 342.371094 229.355469 L 340.324219 231.40625 L 338.367188 233.699219 L 335.277344 237.59375 L 332.679688 239.824219 L 330.457031 241.691406 L 326.632812 243.679688 L 323 245.070312 L 319.667969 247.929688 L 289.34375 259.207031 Z M 279.042969 238.582031 "/>
<path style=" stroke:none;fill-rule:nonzero;fill:rgb(39.99939%,39.99939%,39.99939%);fill-opacity:0.3;" d="M 180.960938 305.953125 L 181.753906 307.640625 L 179.371094 308.667969 Z M 180.960938 305.953125 "/>
<path style=" stroke:none;fill-rule:nonzero;fill:rgb(39.99939%,39.99939%,39.99939%);fill-opacity:0.3;" d="M 183.34375 304.5 L 187.421875 302.761719 L 188.332031 304.699219 L 184.246094 306.457031 Z M 183.34375 304.5 "/>
<path style=" stroke:none;fill-rule:nonzero;fill:rgb(39.99939%,39.99939%,39.99939%);fill-opacity:0.3;" d="M 189.800781 301.832031 L 193.878906 300.09375 L 194.789062 302.03125 L 190.703125 303.789062 Z M 189.800781 301.832031 "/>
<path style=" stroke:none;fill-rule:nonzero;fill:rgb(39.99939%,39.99939%,39.99939%);fill-opacity:0.3;" d="M 202.347656 296.574219 L 206.425781 294.839844 L 207.335938 296.773438 L 203.25 298.53125 Z M 202.347656 296.574219 "/>
<path style=" stroke:none;fill-rule:nonzero;fill:rgb(39.99939%,39.99939%,39.99939%);fill-opacity:0.3;" d="M 251.894531 275.183594 L 256.175781 273.515625 L 257.070312 275.308594 L 252.722656 276.933594 Z M 251.894531 275.183594 "/>
<path style=" stroke:none;fill-rule:nonzero;fill:rgb(39.99939%,39.99939%,39.99939%);fill-opacity:0.3;" d="M 245.101562 277.925781 L 249.382812 276.257812 L 250.277344 278.050781 L 245.929688 279.675781 Z M 245.101562 277.925781 "/>
<path style=" stroke:none;fill-rule:nonzero;fill:rgb(39.99939%,39.99939%,39.99939%);fill-opacity:0.3;" d="M 238.988281 280.375 L 243.269531 278.707031 L 244.164062 280.5 L 239.816406 282.128906 Z M 238.988281 280.375 "/>
<path style=" stroke:none;fill-rule:nonzero;fill:rgb(39.99939%,39.99939%,39.99939%);fill-opacity:0.3;" d="M 232.53125 283.332031 L 236.808594 281.664062 L 237.703125 283.457031 L 233.355469 285.085938 Z M 232.53125 283.332031 "/>
<path style=" stroke:none;fill-rule:nonzero;fill:rgb(39.99939%,39.99939%,39.99939%);fill-opacity:0.3;" d="M 195.933594 299.339844 L 200.011719 297.601562 L 200.921875 299.535156 L 196.835938 301.296875 Z M 195.933594 299.339844 "/>
<path style=" stroke:none;fill-rule:nonzero;fill:rgb(39.99939%,39.99939%,39.99939%);fill-opacity:0.3;" d="M 132.617188 328.960938 L 134.347656 337.164062 L 127.675781 338.152344 L 125.914062 329.59375 Z M 132.617188 328.960938 "/>
<path style=" stroke:none;fill-rule:nonzero;fill:rgb(39.99939%,39.99939%,39.99939%);fill-opacity:0.3;" d="M 125.773438 337.535156 L 114.1875 331.398438 L 122.15625 316.847656 L 124.828125 328.953125 L 126.625 337.765625 Z M 125.773438 337.535156 "/>
<path style=" stroke:none;fill-rule:nonzero;fill:rgb(39.99939%,39.99939%,39.99939%);fill-opacity:0.3;" d="M 122.820312 316.042969 L 126.386719 316.757812 L 130.3125 320.863281 L 131.421875 324.296875 L 132.207031 327.894531 L 125.613281 328.675781 Z M 122.820312 316.042969 "/>
<path style=" stroke:none;fill-rule:nonzero;fill:rgb(39.99939%,39.99939%,39.99939%);fill-opacity:0.3;" d="M 112.164062 313.429688 L 116.949219 314.214844 L 121.664062 315.316406 L 113.015625 330.835938 L 104.898438 326.324219 Z M 112.164062 313.429688 "/>
<path style=" stroke:none;fill-rule:nonzero;fill:rgb(39.99939%,39.99939%,39.99939%);fill-opacity:0.3;" d="M 106.535156 312.441406 L 111.1875 313.179688 L 103.996094 325.734375 L 96.824219 322.007812 L 99.46875 317.542969 L 102.535156 312.292969 Z M 106.535156 312.441406 "/>
<path style=" stroke:none;fill-rule:nonzero;fill:rgb(39.99939%,39.99939%,39.99939%);fill-opacity:0.3;" d="M 141.226562 327.671875 L 142.128906 336.574219 L 136.027344 337.164062 L 134.28125 328.507812 Z M 141.226562 327.671875 "/>
<path style=" stroke:none;fill-rule:nonzero;fill:rgb(39.99939%,39.99939%,39.99939%);fill-opacity:0.3;" d="M 241.699219 315.058594 L 246.0625 322.703125 L 238.519531 326.203125 L 236.261719 317.644531 Z M 241.699219 315.058594 "/>
<path style=" stroke:none;fill-rule:nonzero;fill:rgb(39.99939%,39.99939%,39.99939%);fill-opacity:0.3;" d="M 217.390625 323.773438 L 221.460938 341.542969 L 213.015625 343.488281 L 209.464844 326.058594 Z M 217.390625 323.773438 "/>
<path style=" stroke:none;fill-rule:nonzero;fill:rgb(39.99939%,39.99939%,39.99939%);fill-opacity:0.3;" d="M 226.207031 321.066406 L 230.660156 338.933594 L 222.34375 341.28125 L 218.148438 323.550781 Z M 226.207031 321.066406 "/>
<path style=" stroke:none;fill-rule:nonzero;fill:rgb(39.99939%,39.99939%,39.99939%);fill-opacity:0.3;" d="M 235.507812 317.90625 L 239.695312 336.25 L 236.546875 337.761719 L 231.53125 338.734375 L 226.949219 320.988281 Z M 235.507812 317.90625 "/>
<path style=" stroke:none;fill-rule:nonzero;fill:rgb(39.99939%,39.99939%,39.99939%);fill-opacity:0.3;" d="M 250.550781 310.285156 L 259.242188 325.75 L 251.640625 329.804688 L 246.960938 322.699219 L 242.382812 314.851562 Z M 250.550781 310.285156 "/>
<path style=" stroke:none;fill-rule:nonzero;fill:rgb(39.99939%,39.99939%,39.99939%);fill-opacity:0.3;" d="M 257.050781 306.835938 L 270.261719 319.308594 L 259.980469 325.167969 L 251.253906 309.769531 Z M 257.050781 306.835938 "/>
<path style=" stroke:none;fill-rule:nonzero;fill:rgb(39.99939%,39.99939%,39.99939%);fill-opacity:0.3;" d="M 265.925781 302.371094 L 278.289062 314.359375 L 270.894531 318.796875 L 257.980469 306.460938 Z M 265.925781 302.371094 "/>
<path style=" stroke:none;fill-rule:nonzero;fill:rgb(39.99939%,39.99939%,39.99939%);fill-opacity:0.3;" d="M 272.636719 296.996094 L 285.566406 309.097656 L 283.257812 311.210938 L 278.898438 313.902344 L 266.648438 301.875 Z M 272.636719 296.996094 "/>
<path style=" stroke:none;fill-rule:nonzero;fill:rgb(39.99939%,39.99939%,39.99939%);fill-opacity:0.3;" d="M 200.183594 328.941406 L 208.367188 326.410156 L 210.460938 336.667969 L 211.941406 343.847656 L 203.421875 345.484375 Z M 200.183594 328.941406 "/>
<path style=" stroke:none;fill-rule:nonzero;fill:rgb(39.99939%,39.99939%,39.99939%);fill-opacity:0.3;" d="M 186.523438 339.480469 L 194.4375 338.421875 L 200.851562 337.605469 L 202.445312 346.167969 L 189.507812 348.28125 Z M 186.523438 339.480469 "/>
<g clip-path="url(#clip1)" clip-rule="nonzero">
<path style=" stroke:none;fill-rule:nonzero;fill:rgb(39.99939%,39.99939%,39.99939%);fill-opacity:0.3;" d="M 248.1875 355.53125 L 253.050781 353.429688 L 255.816406 358.25 L 250.890625 360.25 Z M 248.1875 355.53125 "/>
</g>
<g clip-path="url(#clip2)" clip-rule="nonzero">
<path style=" stroke:none;fill-rule:nonzero;fill:rgb(39.99939%,39.99939%,39.99939%);fill-opacity:0.3;" d="M 240.015625 355.957031 L 244.878906 353.855469 L 247.640625 358.675781 L 242.71875 360.675781 Z M 240.015625 355.957031 "/>
</g>
<path style=" stroke:none;fill-rule:nonzero;fill:rgb(39.99939%,39.99939%,39.99939%);fill-opacity:0.3;" d="M 168.445312 318.714844 L 171.316406 333.226562 L 169.046875 333.582031 L 162.707031 321.164062 Z M 168.445312 318.714844 "/>
<path style=" stroke:none;fill-rule:nonzero;fill:rgb(39.99939%,39.99939%,39.99939%);fill-opacity:0.3;" d="M 169.027344 318.300781 L 177.574219 315.082031 L 179.820312 332.238281 L 172.070312 333.175781 Z M 169.027344 318.300781 "/>
<path style=" stroke:none;fill-rule:nonzero;fill:rgb(39.99939%,39.99939%,39.99939%);fill-opacity:0.3;" d="M 250.683594 284.953125 L 258.785156 281.601562 L 271.960938 296.199219 L 265.53125 301.441406 L 258.835938 304.878906 Z M 250.683594 284.953125 "/>
<path style=" stroke:none;fill-rule:nonzero;fill:rgb(39.99939%,39.99939%,39.99939%);fill-opacity:0.3;" d="M 241.894531 288.15625 L 249.996094 285.253906 L 258.09375 305.210938 L 250.6875 308.617188 Z M 241.894531 288.15625 "/>
<path style=" stroke:none;fill-rule:nonzero;fill:rgb(39.99939%,39.99939%,39.99939%);fill-opacity:0.3;" d="M 233.683594 290.78125 L 240.933594 288.4375 L 248.292969 306.179688 L 235.640625 307.734375 Z M 233.683594 290.78125 "/>
<path style=" stroke:none;fill-rule:nonzero;fill:rgb(39.99939%,39.99939%,39.99939%);fill-opacity:0.3;" d="M 224.820312 293.589844 L 232.640625 291.132812 L 235.503906 316.636719 L 227.0625 319.4375 L 225.261719 306.316406 Z M 224.820312 293.589844 "/>
<path style=" stroke:none;fill-rule:nonzero;fill:rgb(39.99939%,39.99939%,39.99939%);fill-opacity:0.3;" d="M 215.410156 298.332031 L 221.394531 294.6875 L 223.839844 293.710938 L 224.347656 306.277344 L 226.167969 319.9375 L 217.8125 322.449219 L 215.789062 308.492188 Z M 215.410156 298.332031 "/>
<path style=" stroke:none;fill-rule:nonzero;fill:rgb(39.99939%,39.99939%,39.99939%);fill-opacity:0.3;" d="M 205.566406 303.28125 L 214.734375 298.664062 L 215.09375 308.546875 L 217.070312 322.683594 L 209.09375 324.894531 L 207.113281 313.855469 Z M 205.566406 303.28125 "/>
<path style=" stroke:none;fill-rule:nonzero;fill:rgb(39.99939%,39.99939%,39.99939%);fill-opacity:0.3;" d="M 211.640625 295.113281 L 237.082031 285.371094 L 262.523438 275.625 L 266.289062 284.449219 L 267.691406 285.808594 L 270.34375 286.273438 L 272.761719 286.046875 L 275.808594 286.152344 L 278.066406 287.910156 L 279.480469 289.445312 L 272.242188 294.992188 L 258.992188 280.609375 L 249.953125 284.382812 L 240.953125 287.59375 L 239.917969 286.980469 L 232.492188 289.585938 L 220.691406 293.578125 L 213.09375 298.140625 Z M 211.640625 295.113281 "/>
<path style=" stroke:none;fill-rule:nonzero;fill:rgb(39.99939%,39.99939%,39.99939%);fill-opacity:0.3;" d="M 204.675781 303.511719 L 206.109375 314.007812 L 208.015625 325.042969 L 199.550781 327.839844 L 196.664062 307.113281 Z M 204.675781 303.511719 "/>
<path style=" stroke:none;fill-rule:nonzero;fill:rgb(39.99939%,39.99939%,39.99939%);fill-opacity:0.3;" d="M 158.050781 323.40625 L 161.839844 321.570312 L 168.128906 333.738281 L 163.160156 334.453125 Z M 158.050781 323.40625 "/>
<path style=" stroke:none;fill-rule:nonzero;fill:rgb(39.99939%,39.99939%,39.99939%);fill-opacity:0.3;" d="M 359.992188 333.867188 L 342.433594 334.820312 L 342.601562 315.632812 L 345.246094 314.558594 L 353.492188 312.589844 L 359.648438 311.792969 Z M 359.992188 333.867188 "/>
<path style=" stroke:none;fill-rule:nonzero;fill:rgb(39.99939%,39.99939%,39.99939%);fill-opacity:0.3;" d="M 341.5625 315.738281 L 341.335938 335.039062 L 327.277344 335.652344 L 324.867188 334.613281 L 323.894531 333.339844 L 323.898438 323.832031 L 330.140625 320.460938 L 335.796875 317.855469 Z M 341.5625 315.738281 "/>
<path style=" stroke:none;fill-rule:nonzero;fill:rgb(39.99939%,39.99939%,39.99939%);fill-opacity:0.3;" d="M 299.621094 314.503906 L 292.128906 305.542969 L 296.652344 301.125 L 303.949219 294.96875 L 317.25 284.132812 L 327.863281 276.191406 L 332.058594 275.074219 L 334.351562 274.683594 L 337.6875 274.226562 L 340.941406 273.640625 L 345.214844 273.179688 L 330.070312 288.101562 L 304.300781 312.007812 L 301.472656 314.296875 Z M 299.621094 314.503906 "/>
<path style=" stroke:none;fill-rule:nonzero;fill:rgb(39.99939%,39.99939%,39.99939%);fill-opacity:0.3;" d="M 291.816406 280.117188 L 297.421875 276.421875 L 308.101562 271.367188 L 320.285156 265.84375 L 324.226562 264.117188 L 326.355469 263.550781 L 327.480469 264.347656 L 328.035156 265.253906 L 327.753906 267.253906 L 327.195312 269.609375 L 326.953125 271.617188 L 328.234375 274.097656 L 326.917969 275.582031 L 316.367188 283.375 L 303.492188 293.503906 L 297.496094 286.5 Z M 291.816406 280.117188 "/>
<g clip-path="url(#clip3)" clip-rule="nonzero">
<path style=" stroke:none;fill-rule:nonzero;fill:rgb(39.99939%,39.99939%,39.99939%);fill-opacity:0.3;" d="M 396.75 264.609375 L 375.5625 267.792969 L 353.175781 271.050781 L 348.472656 271.945312 L 348.796875 270.75 L 350.617188 269.667969 L 352.070312 264.328125 L 371.039062 261.949219 L 390.011719 259.566406 Z M 396.75 264.609375 "/>
</g>
<g clip-path="url(#clip4)" clip-rule="nonzero">
<path style=" stroke:none;fill-rule:nonzero;fill:rgb(39.99939%,39.99939%,39.99939%);fill-opacity:0.3;" d="M 361.8125 235.101562 L 378.042969 249.929688 L 389.136719 258.816406 L 352.253906 263.566406 Z M 361.8125 235.101562 "/>
</g>
<path style=" stroke:none;fill-rule:nonzero;fill:rgb(39.99939%,39.99939%,39.99939%);fill-opacity:0.3;" d="M 320.378906 248.875 L 342.894531 240.015625 L 339.867188 264.394531 Z M 320.378906 248.875 "/>
<path style=" stroke:none;fill-rule:nonzero;fill:rgb(39.99939%,39.99939%,39.99939%);fill-opacity:0.3;" d="M 319.394531 249.488281 L 345.039062 269.691406 L 345.304688 270.714844 L 344.507812 272.019531 L 340.347656 272.648438 L 336.976562 273.253906 L 333.78125 273.679688 L 331.058594 273.898438 L 329.859375 273.78125 L 328.617188 273.144531 L 327.847656 271.5625 L 328.03125 269.921875 L 328.578125 267.652344 L 328.96875 265.089844 L 328.066406 263.371094 L 326.394531 262.742188 L 323.613281 263.359375 L 319.777344 265.1875 L 307.789062 270.445312 L 297.039062 275.425781 L 290.601562 279.800781 L 285.890625 284.070312 L 280.152344 288.980469 L 278.515625 287.347656 L 275.832031 285.273438 L 272.582031 285.210938 L 270.15625 285.378906 L 268.460938 285.152344 L 267.320312 283.957031 L 261.734375 271.058594 L 288.175781 260.910156 Z M 319.394531 249.488281 "/>
<g clip-path="url(#clip5)" clip-rule="nonzero">
<path style=" stroke:none;fill-rule:nonzero;fill:rgb(39.99939%,39.99939%,39.99939%);fill-opacity:0.3;" d="M 347.460938 270.605469 L 340.855469 265.023438 L 343.980469 240.066406 L 343.363281 236.695312 L 341.976562 232.199219 L 342.957031 230.441406 L 353.726562 227.800781 L 361.011719 234.433594 L 355.265625 251.628906 L 349.523438 268.824219 Z M 347.460938 270.605469 "/>
</g>
<path style=" stroke:none;fill-rule:nonzero;fill:rgb(39.99939%,39.99939%,39.99939%);fill-opacity:0.3;" d="M 322.152344 325.269531 L 321.773438 333 L 321.03125 333.308594 L 320.167969 334.128906 L 319.855469 335.023438 L 320.144531 335.996094 L 314.96875 336.460938 L 305.375 337.617188 L 300.675781 339.175781 L 289.53125 343.632812 L 272.542969 351.796875 L 259.917969 358.125 L 258.476562 354.976562 L 258.230469 352.511719 L 258.175781 348.859375 L 260.0625 343.484375 L 262.589844 340.335938 L 265.332031 337.996094 L 270.609375 335.746094 L 274.550781 334.3125 L 281.355469 332.546875 L 282.300781 334.527344 L 290.9375 333.347656 L 296.675781 331.976562 L 300.609375 327.464844 L 311.304688 327.074219 L 318.304688 326.179688 Z M 322.152344 325.269531 "/>
<path style=" stroke:none;fill-rule:nonzero;fill:rgb(39.99939%,39.99939%,39.99939%);fill-opacity:0.3;" d="M 305.105469 312.910156 L 316.953125 324.273438 L 316.0625 324.976562 L 311.308594 325.464844 L 300.433594 325.863281 L 295.511719 330.960938 L 290.222656 332.011719 L 283.738281 332.351562 L 284.75 329.667969 L 288.921875 326.902344 L 292.429688 322.347656 L 294.035156 322.1875 L 294.527344 321.835938 L 292.796875 320.046875 L 298.503906 314.871094 L 299.71875 315.503906 L 301.890625 315.277344 Z M 305.105469 312.910156 "/>
<path style=" stroke:none;fill-rule:nonzero;fill:rgb(39.99939%,39.99939%,39.99939%);fill-opacity:0.3;" d="M 291.464844 306.332031 L 298.054688 314.136719 L 292.039062 319.316406 L 285.230469 311.878906 Z M 291.464844 306.332031 "/>
<path style=" stroke:none;fill-rule:nonzero;fill:rgb(39.99939%,39.99939%,39.99939%);fill-opacity:0.3;" d="M 246.5625 323.386719 L 251.03125 330.226562 L 240.757812 335.984375 L 238.828125 327.035156 Z M 246.5625 323.386719 "/>
<path style=" stroke:none;fill-rule:nonzero;fill:rgb(39.99939%,39.99939%,39.99939%);fill-opacity:0.3;" d="M 198.964844 329.371094 L 200.519531 336.710938 L 194.902344 337.257812 L 186.957031 338.035156 L 186 333.074219 L 190.445312 332.066406 Z M 198.964844 329.371094 "/>
<g clip-path="url(#clip6)" clip-rule="nonzero">
<path style=" stroke:none;fill-rule:nonzero;fill:rgb(39.99939%,39.99939%,39.99939%);fill-opacity:0.3;" d="M 154.699219 345.089844 L 156.738281 344.886719 L 167.273438 343.140625 L 173 342.109375 L 169.152344 334.804688 L 180.886719 333.410156 L 181.300781 336.90625 L 181.730469 336.894531 L 182.082031 336.863281 L 181.695312 333.28125 L 185.472656 333.101562 L 186.324219 338.644531 L 185.460938 338.816406 L 188.640625 349.425781 L 201.878906 347.152344 L 212.496094 345.140625 L 221.734375 342.960938 L 231.234375 340.503906 L 236.660156 339.460938 L 240.53125 337.496094 L 252.011719 331.210938 L 259.984375 326.796875 L 271.578125 320.136719 L 282.820312 313.316406 L 284.148438 313.523438 L 291.382812 321.558594 L 287.519531 326.191406 L 283.566406 328.984375 L 282.011719 330.914062 L 279.1875 332.019531 L 273.886719 333.503906 L 269.628906 334.925781 L 264.15625 337.433594 L 261.355469 339.957031 L 258.320312 343.234375 L 252.0625 347.210938 L 247.476562 349.078125 L 242.976562 350.265625 L 239.886719 350.769531 L 231.757812 355.515625 L 220.519531 361.363281 L 218.085938 361.789062 L 215.671875 361.953125 L 211.480469 362.257812 L 211.539062 362.921875 L 211.621094 363.410156 L 214.039062 363.164062 L 215.972656 363.011719 L 218.003906 362.855469 L 220.324219 362.519531 L 221.765625 361.941406 L 232.441406 356.378906 L 240.234375 351.910156 L 243.4375 351.460938 L 248.863281 349.855469 L 252.398438 348.253906 L 255.78125 346.171875 L 256.910156 346.714844 L 256.703125 349.078125 L 256.539062 353.160156 L 256.746094 355.765625 L 258.195312 358.996094 L 249.933594 363.503906 L 241.539062 367.738281 L 235.894531 370.578125 L 227.140625 375.015625 L 223.832031 376.648438 L 215.792969 380.683594 L 214.074219 380.800781 L 212.328125 380.28125 L 210.542969 378.363281 L 209.300781 375.390625 L 207.496094 373.25 L 205.816406 371.945312 L 203.851562 371.144531 L 200.199219 370.925781 L 195.714844 371.667969 L 190.996094 373.171875 L 185.328125 375.78125 L 166.558594 385.121094 L 161.054688 387.925781 L 155.4375 390.511719 L 154.699219 390.480469 L 153.730469 389.695312 L 153.171875 388.734375 L 148.554688 385.058594 L 145.625 378.199219 L 142.335938 369.273438 L 140.53125 361.886719 L 139.625 359.21875 L 139.511719 358.480469 L 139.96875 357.914062 L 138.5 353.917969 L 137.511719 350.183594 L 136.699219 348.101562 L 135.441406 345.347656 L 133.929688 343.175781 L 132.625 341.890625 L 132.191406 341.164062 L 130.308594 340.050781 L 130.910156 338.746094 L 151.539062 336.890625 L 152.53125 342.792969 L 153.808594 345.078125 Z M 154.699219 345.089844 "/>
</g>
<g clip-path="url(#clip7)" clip-rule="nonzero">
<path style=" stroke:none;fill-rule:nonzero;fill:rgb(39.99939%,39.99939%,39.99939%);fill-opacity:0.3;" d="M 380.460938 283.042969 L 378.582031 286.550781 L 373.003906 296.972656 L 372.550781 298.183594 L 372.515625 299.4375 L 368.195312 301.613281 L 368.339844 301.855469 L 368.480469 302.097656 L 373.445312 299.710938 L 374.839844 299.890625 L 379.84375 298.347656 L 382.027344 297.769531 L 384.316406 301.023438 L 384.894531 300.828125 L 382.753906 297.503906 L 385 296.054688 L 387.578125 291.875 L 389.199219 289.25 L 392.003906 284.265625 L 395.402344 291.625 L 396.050781 295.773438 L 398.855469 299.203125 L 400.144531 301.671875 L 375.84375 314.722656 L 372 311.707031 L 369.027344 310.914062 L 364.121094 310.425781 L 359.550781 310.867188 L 353.261719 311.59375 L 343.808594 313.925781 L 342.25 313.664062 L 342.304688 310.144531 L 347.21875 308.476562 L 351.804688 305.714844 L 355.128906 303.515625 L 361.90625 301.347656 L 364.132812 299.488281 L 368.589844 291.296875 L 372.417969 284.359375 L 374.777344 283.195312 L 377.804688 282.136719 L 379.351562 281.882812 L 380.222656 282.292969 Z M 380.460938 283.042969 "/>
</g>
<g clip-path="url(#clip8)" clip-rule="nonzero">
<path style=" stroke:none;fill-rule:nonzero;fill:rgb(39.99939%,39.99939%,39.99939%);fill-opacity:0.3;" d="M 373.917969 268.734375 L 375.027344 269.140625 L 375.113281 270.289062 L 376.8125 280.421875 L 376.855469 281.132812 L 376.066406 281.765625 L 374.167969 282.480469 L 371.796875 283.566406 L 367.601562 291.070312 L 363.28125 298.734375 L 361.375 300.496094 L 354.683594 302.714844 L 351.023438 304.933594 L 346.695312 307.523438 L 341.898438 308.550781 L 337.097656 309.574219 L 337.257812 310.144531 L 337.414062 310.71875 L 341.066406 310.355469 L 341.21875 314.433594 L 335.191406 316.777344 L 329.0625 319.617188 L 323.625 322.390625 L 318.746094 324.445312 L 305.890625 312.335938 L 330.828125 288.914062 L 346.171875 273.453125 L 352.910156 272.128906 Z M 373.917969 268.734375 "/>
</g>
<path style=" stroke:none;fill-rule:nonzero;fill:rgb(39.99939%,39.99939%,39.99939%);fill-opacity:0.3;" d="M 273.789062 295.511719 L 280.574219 290.109375 L 284.449219 293.507812 L 284.648438 293.351562 L 284.851562 293.199219 L 281.128906 289.753906 L 291.203125 280.839844 L 296.429688 286.8125 L 302.761719 294.1875 L 295.917969 299.957031 L 290.867188 305.023438 L 286.867188 308.164062 Z M 273.789062 295.511719 "/>
<path style=" stroke:none;fill-rule:nonzero;fill:rgb(39.99939%,39.99939%,39.99939%);fill-opacity:0.3;" d="M 195.6875 307.472656 L 198.585938 328.375 L 190.515625 330.761719 L 188.832031 322.203125 L 188.507812 322.269531 L 188.1875 322.335938 L 189.921875 330.917969 L 186 331.722656 L 180.773438 332.238281 L 178.5 314.769531 Z M 195.6875 307.472656 "/>
<path style=" stroke:none;fill-rule:nonzero;fill:rgb(39.99939%,39.99939%,39.99939%);fill-opacity:0.3;" d="M 163.667969 318.71875 L 164.046875 319.367188 L 157.128906 322.859375 L 155.078125 323.71875 L 150.445312 325.671875 L 141.4375 326.75 L 133.308594 327.613281 L 133.214844 327.1875 L 140.964844 326.605469 L 150.335938 325.410156 L 152.53125 324.613281 L 156.320312 322.21875 L 161.503906 319.625 Z M 163.667969 318.71875 "/>
<path style=" stroke:none;fill-rule:nonzero;fill:rgb(39.99939%,39.99939%,39.99939%);fill-opacity:0.3;" d="M 130.789062 319.75 L 127.183594 315.9375 L 127.402344 316.035156 L 129 317.433594 L 130.394531 319.027344 Z M 130.789062 319.75 "/>
<path style=" stroke:none;fill-rule:nonzero;fill:rgb(39.99939%,39.99939%,39.99939%);fill-opacity:0.3;" d="M 127.058594 315.882812 L 122.558594 314.546875 L 119.421875 313.832031 L 122.417969 314.441406 L 125.609375 315.238281 Z M 127.058594 315.882812 "/>
<path style=" stroke:none;fill-rule:nonzero;fill:rgb(39.99939%,39.99939%,39.99939%);fill-opacity:0.3;" d="M 115.730469 313.078125 L 112.117188 312.480469 L 106.851562 311.820312 L 102.152344 311.511719 L 98.964844 316.792969 L 96.992188 316.21875 L 96.804688 316.570312 L 96.605469 316.953125 L 98.6875 317.5 L 96.097656 321.726562 L 88.910156 318.1875 L 96.492188 312.046875 L 99.683594 313.84375 L 101.679688 311.25 L 102.675781 310.652344 L 104.269531 310.652344 L 111.648438 312.246094 Z M 115.730469 313.078125 "/>
<path style=" stroke:none;fill-rule:nonzero;fill:rgb(39.99939%,39.99939%,39.99939%);fill-opacity:0.3;" d="M 131.636719 321.386719 L 131.558594 321.164062 L 131.59375 321.222656 Z M 131.636719 321.386719 "/>
<g clip-path="url(#clip9)" clip-rule="nonzero">
<path style=" stroke:none;fill-rule:nonzero;fill:rgb(39.99939%,39.99939%,39.99939%);fill-opacity:0.3;" d="M 311.042969 357.902344 L 315.121094 369.519531 L 317.273438 375.664062 L 309.71875 374.792969 L 307.40625 373.75 L 300.671875 370.171875 L 291.0625 365.535156 L 300.96875 360.941406 Z M 311.042969 357.902344 "/>
</g>
<g clip-path="url(#clip10)" clip-rule="nonzero">
<path style=" stroke:none;fill-rule:nonzero;fill:rgb(39.99939%,39.99939%,39.99939%);fill-opacity:0.3;" d="M 327.113281 355.566406 L 340.925781 357.148438 L 351.070312 357.902344 L 357.363281 358.363281 L 352.75 367.878906 L 349.558594 371.484375 L 342.6875 373.945312 L 333.296875 375.707031 L 330.09375 364.855469 Z M 327.113281 355.566406 "/>
</g>
<g clip-path="url(#clip11)" clip-rule="nonzero">
<path style=" stroke:none;fill-rule:nonzero;fill:rgb(39.99939%,39.99939%,39.99939%);fill-opacity:0.3;" d="M 325.898438 355.523438 L 329.011719 365.566406 L 332.078125 375.859375 L 318.230469 375.714844 L 316.082031 369.320312 L 311.839844 357.757812 L 318.886719 356.632812 Z M 325.898438 355.523438 "/>
</g>
<g clip-path="url(#clip12)" clip-rule="nonzero">
<path style=" stroke:none;fill-rule:nonzero;fill:rgb(39.99939%,39.99939%,39.99939%);fill-opacity:0.3;" d="M 324.539062 340.074219 L 360.433594 338.535156 L 360.082031 344.0625 L 359.4375 348.867188 L 357.492188 357.425781 L 350.949219 356.890625 L 340.925781 356.277344 L 326.609375 354.40625 Z M 324.539062 340.074219 "/>
</g>
<g clip-path="url(#clip13)" clip-rule="nonzero">
<path style=" stroke:none;fill-rule:nonzero;fill:rgb(39.99939%,39.99939%,39.99939%);fill-opacity:0.3;" d="M 371.277344 356.269531 L 365.175781 357.089844 L 358.796875 357.351562 L 360.695312 348.785156 L 361.300781 344.09375 L 361.539062 338.609375 L 370.71875 338.320312 L 371.507812 338.890625 L 371.539062 340.328125 L 370.546875 344.660156 L 370.496094 349.722656 L 370.863281 353.246094 Z M 371.277344 356.269531 "/>
</g>
<g clip-path="url(#clip14)" clip-rule="nonzero">
<path style=" stroke:none;fill-rule:nonzero;fill:rgb(39.99939%,39.99939%,39.99939%);fill-opacity:0.3;" d="M 283.402344 351.816406 L 291.492188 347.769531 L 303.476562 342.96875 L 308.550781 341.726562 L 315.566406 340.84375 L 323.429688 340.0625 L 325.621094 354.558594 L 311.339844 356.972656 L 300.550781 360.1875 L 290.5 364.953125 Z M 283.402344 351.816406 "/>
</g>
<g clip-path="url(#clip15)" clip-rule="nonzero">
<path style=" stroke:none;fill-rule:nonzero;fill:rgb(39.99939%,39.99939%,39.99939%);fill-opacity:0.3;" d="M 289.421875 365.355469 L 287.644531 366.15625 L 274.230469 366.011719 L 268.757812 366.015625 L 265.753906 367.386719 L 261.988281 362.234375 L 282.28125 352.46875 Z M 289.421875 365.355469 "/>
</g>
<g clip-path="url(#clip16)" clip-rule="nonzero">
<path style=" stroke:none;fill-rule:nonzero;fill:rgb(39.99939%,39.99939%,39.99939%);fill-opacity:0.3;" d="M 371.667969 357.199219 L 377.152344 365.101562 L 382.492188 372.257812 L 355.230469 378.90625 L 358.792969 387.835938 L 346.347656 390.714844 L 344.015625 383.152344 L 343.730469 383.222656 L 343.449219 383.292969 L 345.714844 390.875 L 336.175781 393.003906 L 326.085938 395.308594 L 314.503906 396.382812 L 306.085938 394.980469 L 300.519531 391.84375 L 295.507812 388.136719 L 290.484375 383.367188 L 286.578125 381.023438 L 282.464844 380.425781 L 273.675781 380.542969 L 270.429688 375.429688 L 266.183594 367.996094 L 269.0625 366.710938 L 274.394531 366.824219 L 288.078125 366.9375 L 289.96875 366.125 L 309.097656 375.753906 L 318.121094 376.734375 L 333.351562 376.824219 L 343.21875 375.15625 L 350.421875 372.433594 L 353.75 368.933594 L 358.496094 358.480469 L 365.351562 358.125 Z M 371.667969 357.199219 "/>
</g>
<path style=" stroke:none;fill-rule:nonzero;fill:rgb(39.99939%,39.99939%,39.99939%);fill-opacity:0.3;" d="M 286.582031 -4.359375 L 287.023438 -3.398438 L 271.019531 8.414062 L 265.4375 11.171875 L 260.707031 13.589844 L 259.964844 6.054688 L 259.277344 6.101562 L 259.992188 13.863281 L 254.832031 16.375 L 253.03125 15.148438 L 255.175781 -3.375 L 272.863281 -3.40625 L 272.980469 -4.289062 Z M 286.582031 -4.359375 "/>
<path style=" stroke:none;fill-rule:nonzero;fill:rgb(39.99939%,39.99939%,39.99939%);fill-opacity:0.3;" d="M 200.433594 11.066406 L 202.6875 10.816406 L 210.984375 13.386719 L 217.664062 24.210938 L 222.933594 27.636719 L 231.210938 31.234375 L 236.710938 30.988281 L 241.167969 21.65625 L 250.410156 19.8125 L 250.320312 21.539062 L 249.648438 25.679688 L 249.167969 29.128906 L 246.558594 36.984375 L 245.132812 40.015625 L 243.269531 42.230469 L 241.15625 44.535156 L 239.703125 44.578125 L 223.417969 37.6875 L 215.859375 33.964844 L 210.609375 30.40625 L 206.628906 26.144531 L 202.757812 20.0625 L 201.042969 14.644531 Z M 200.433594 11.066406 "/>
<path style=" stroke:none;fill-rule:nonzero;fill:rgb(39.99939%,39.99939%,39.99939%);fill-opacity:0.3;" d="M 214.546875 10.105469 L 204.066406 4.964844 L 209.96875 -1.421875 L 210.167969 -3.832031 L 213.292969 -7.820312 L 220.476562 -2.386719 Z M 214.546875 10.105469 "/>
<path style=" stroke:none;fill-rule:nonzero;fill:rgb(39.99939%,39.99939%,39.99939%);fill-opacity:0.3;" d="M 221.542969 -2.019531 L 229.097656 0.0546875 L 224.296875 14.335938 L 215.625 10.519531 Z M 221.542969 -2.019531 "/>
<path style=" stroke:none;fill-rule:nonzero;fill:rgb(39.99939%,39.99939%,39.99939%);fill-opacity:0.3;" d="M 230.441406 0.445312 L 239.671875 2.976562 L 234.949219 18.0625 L 230.214844 16.519531 L 225.792969 14.902344 Z M 230.441406 0.445312 "/>
<path style=" stroke:none;fill-rule:nonzero;fill:rgb(39.99939%,39.99939%,39.99939%);fill-opacity:0.3;" d="M 251.273438 11.625 L 251.15625 13.097656 L 251.136719 13.484375 L 251.070312 13.863281 L 250.96875 14.238281 L 250.820312 14.597656 L 250.636719 14.941406 L 250.414062 15.261719 L 250.160156 15.5625 L 249.871094 15.832031 L 249.550781 16.074219 L 249.210938 16.285156 L 248.84375 16.457031 L 248.460938 16.59375 L 248.199219 16.664062 L 240.886719 18.457031 L 236.605469 18.191406 L 241.105469 3.335938 L 251.609375 6.007812 Z M 251.273438 11.625 "/>
<path style=" stroke:none;fill-rule:nonzero;fill:rgb(39.99939%,39.99939%,39.99939%);fill-opacity:0.3;" d="M 203.199219 4.425781 L 200.265625 3.449219 L 200.863281 -1.25 L 202.351562 -7.109375 L 204.703125 -10.5 L 212.277344 -8.285156 L 209.074219 -4.125 L 208.890625 -1.558594 Z M 203.199219 4.425781 "/>
<path style=" stroke:none;fill-rule:nonzero;fill:rgb(39.99939%,39.99939%,39.99939%);fill-opacity:0.3;" d="M 239.460938 21.804688 L 235.832031 29.992188 L 231.246094 30.121094 L 223.511719 26.296875 L 218.863281 23.101562 L 212.683594 14.199219 L 213.285156 13.722656 L 222.328125 17.859375 L 228.402344 19.796875 L 234.648438 21.566406 Z M 239.460938 21.804688 "/>
<path style=" stroke:none;fill-rule:nonzero;fill:rgb(39.99939%,39.99939%,39.99939%);fill-opacity:0.3;" d="M 253.710938 -11.625 L 252.03125 1.558594 L 243.144531 -0.777344 L 242.363281 -1.167969 L 241.839844 -1.652344 L 241.671875 -1.878906 L 241.414062 -2.371094 L 241.246094 -3.175781 L 242.535156 -14.480469 Z M 253.710938 -11.625 "/>
<path style=" stroke:none;fill-rule:nonzero;fill:rgb(39.99939%,39.99939%,39.99939%);fill-opacity:0.3;" d="M 244.234375 41.933594 L 243.039062 44.480469 L 241.15625 44.535156 L 243.269531 42.230469 Z M 244.234375 41.933594 "/>
<g clip-path="url(#clip17)" clip-rule="nonzero">
<path style=" stroke:none;fill-rule:nonzero;fill:rgb(39.99939%,39.99939%,39.99939%);fill-opacity:0.3;" d="M 366.53125 62.605469 L 348.710938 62.070312 L 348.53125 60.9375 L 366.589844 52.492188 Z M 366.53125 62.605469 "/>
</g>
<path style=" stroke:none;fill-rule:nonzero;fill:rgb(39.99939%,39.99939%,39.99939%);fill-opacity:0.3;" d="M 347.890625 63.5 L 356.335938 63.824219 L 355.03125 93.5625 L 346.402344 92.828125 Z M 347.890625 63.5 "/>
<g clip-path="url(#clip18)" clip-rule="nonzero">
<path style=" stroke:none;fill-rule:nonzero;fill:rgb(39.99939%,39.99939%,39.99939%);fill-opacity:0.3;" d="M 357.367188 63.792969 L 366.546875 64.160156 L 365.074219 94.660156 L 356.40625 93.898438 Z M 357.367188 63.792969 "/>
</g>
<path style=" stroke:none;fill-rule:nonzero;fill:rgb(39.99939%,39.99939%,39.99939%);fill-opacity:0.3;" d="M 345.011719 62.550781 L 343.75 92.722656 L 336.070312 92.113281 L 336.25 66.492188 Z M 345.011719 62.550781 "/>
<path style=" stroke:none;fill-rule:nonzero;fill:rgb(39.99939%,39.99939%,39.99939%);fill-opacity:0.3;" d="M 335.113281 66.921875 L 334.855469 92 L 325.828125 91.449219 L 326.230469 71.144531 Z M 335.113281 66.921875 "/>
<path style=" stroke:none;fill-rule:nonzero;fill:rgb(39.99939%,39.99939%,39.99939%);fill-opacity:0.3;" d="M 324.03125 91.390625 L 304.308594 89.683594 L 294.917969 88.871094 L 294.144531 88.453125 L 293.695312 86.460938 L 303.957031 81.5 L 317.332031 75.035156 L 324.90625 71.371094 Z M 324.03125 91.390625 "/>
<g clip-path="url(#clip19)" clip-rule="nonzero">
<path style=" stroke:none;fill-rule:nonzero;fill:rgb(39.99939%,39.99939%,39.99939%);fill-opacity:0.3;" d="M 348.785156 44 L 370.386719 44.503906 L 370.503906 46.191406 L 348.316406 56.515625 Z M 348.785156 44 "/>
</g>
<path style=" stroke:none;fill-rule:nonzero;fill:rgb(39.99939%,39.99939%,39.99939%);fill-opacity:0.3;" d="M 337.359375 43.429688 L 345.722656 43.84375 L 345.359375 57.828125 L 336.835938 61.628906 Z M 337.359375 43.429688 "/>
<path style=" stroke:none;fill-rule:nonzero;fill:rgb(39.99939%,39.99939%,39.99939%);fill-opacity:0.3;" d="M 327.304688 43.085938 L 336.398438 43.402344 L 335.816406 62.082031 L 326.761719 66.195312 L 326.816406 62.722656 Z M 327.304688 43.085938 "/>
<path style=" stroke:none;fill-rule:nonzero;fill:rgb(39.99939%,39.99939%,39.99939%);fill-opacity:0.3;" d="M 252.300781 40.574219 L 325.730469 43.035156 L 325.007812 66.929688 L 286.472656 84.746094 L 283.8125 83.699219 L 279.605469 83.066406 L 263.808594 64.578125 Z M 252.300781 40.574219 "/>
<g clip-path="url(#clip20)" clip-rule="nonzero">
<path style=" stroke:none;fill-rule:nonzero;fill:rgb(39.99939%,39.99939%,39.99939%);fill-opacity:0.3;" d="M 317.363281 148.144531 L 305.195312 124.632812 L 289.257812 96.667969 L 292.296875 92.667969 L 332.960938 95.582031 L 365.777344 97.859375 L 400.339844 111.222656 L 400.207031 117.183594 L 398.445312 154.703125 L 381.761719 154.027344 L 370.898438 153.308594 L 348.960938 152.511719 L 344.300781 152.511719 L 323.777344 151.679688 L 320.59375 150.183594 Z M 317.363281 148.144531 "/>
</g>
<path style=" stroke:none;fill-rule:nonzero;fill:rgb(39.99939%,39.99939%,39.99939%);fill-opacity:0.3;" d="M 250.320312 21.539062 L 250.0625 26.4375 L 249.167969 29.128906 L 249.648438 25.679688 Z M 250.320312 21.539062 "/>
<path style=" stroke:none;fill-rule:nonzero;fill:rgb(39.99939%,39.99939%,39.99939%);fill-opacity:0.3;" d="M 245.132812 40.015625 L 244.234375 41.933594 L 243.269531 42.230469 Z M 245.132812 40.015625 "/>
<g clip-path="url(#clip21)" clip-rule="nonzero">
<path style=" stroke:none;fill-rule:nonzero;fill:rgb(39.99939%,39.99939%,39.99939%);fill-opacity:0.3;" d="M 356.785156 10.488281 L 363.488281 10.4375 L 363.570312 12.003906 L 362.289062 12.066406 L 362.289062 12.945312 L 359.027344 12.992188 L 358.957031 12.253906 L 356.796875 12.289062 Z M 356.785156 10.488281 "/>
</g>
<path style=" stroke:none;fill-rule:nonzero;fill:rgb(39.99939%,39.99939%,39.99939%);fill-opacity:0.3;" d="M 340.609375 4.839844 L 351.855469 5.488281 L 351.164062 20.199219 L 344.753906 19.914062 L 344.746094 12.953125 L 340.410156 12.957031 Z M 340.609375 4.839844 "/>
<path style=" stroke:none;fill-rule:nonzero;fill:rgb(39.99939%,39.99939%,39.99939%);fill-opacity:0.3;" d="M 310.6875 7.296875 L 310.558594 12.523438 L 307.714844 12.515625 L 307.808594 7.398438 Z M 310.6875 7.296875 "/>
<path style=" stroke:none;fill-rule:nonzero;fill:rgb(39.99939%,39.99939%,39.99939%);fill-opacity:0.3;" d="M 320.324219 7.828125 L 320.226562 13.152344 L 317.347656 13.046875 L 317.445312 7.929688 Z M 320.324219 7.828125 "/>
<path style=" stroke:none;fill-rule:nonzero;fill:rgb(39.99939%,39.99939%,39.99939%);fill-opacity:0.3;" d="M 315.449219 7.40625 L 315.453125 12.441406 L 312.480469 12.441406 L 312.570312 7.507812 Z M 315.449219 7.40625 "/>
<path style=" stroke:none;fill-rule:nonzero;fill:rgb(39.99939%,39.99939%,39.99939%);fill-opacity:0.3;" d="M 305.390625 10.335938 L 305.355469 12.550781 L 299.089844 12.265625 L 298.625 10.148438 Z M 305.390625 10.335938 "/>
<path style=" stroke:none;fill-rule:nonzero;fill:rgb(39.99939%,39.99939%,39.99939%);fill-opacity:0.3;" d="M 300.558594 2.160156 L 300.222656 7.792969 L 297.734375 7.804688 L 298.03125 2.171875 Z M 300.558594 2.160156 "/>
<path style=" stroke:none;fill-rule:nonzero;fill:rgb(39.99939%,39.99939%,39.99939%);fill-opacity:0.3;" d="M 306.226562 -4.90625 L 309.21875 -4.796875 L 308.914062 6.042969 L 305.589844 5.828125 Z M 306.226562 -4.90625 "/>
<path style=" stroke:none;fill-rule:nonzero;fill:rgb(39.99939%,39.99939%,39.99939%);fill-opacity:0.3;" d="M 301.691406 -2.414062 L 304.683594 -2.304688 L 304.382812 8.394531 L 301.140625 8.226562 Z M 301.691406 -2.414062 "/>
<path style=" stroke:none;fill-rule:nonzero;fill:rgb(39.99939%,39.99939%,39.99939%);fill-opacity:0.3;" d="M 310.097656 -6.460938 L 313.089844 -6.351562 L 312.785156 4.480469 L 309.460938 4.269531 Z M 310.097656 -6.460938 "/>
<path style=" stroke:none;fill-rule:nonzero;fill:rgb(39.99939%,39.99939%,39.99939%);fill-opacity:0.3;" d="M 314.601562 -8.730469 L 317.519531 -8.679688 L 317.097656 1.980469 L 313.773438 1.769531 Z M 314.601562 -8.730469 "/>
<path style=" stroke:none;fill-rule:nonzero;fill:rgb(39.99939%,39.99939%,39.99939%);fill-opacity:0.3;" d="M 313.667969 3.4375 L 320.535156 3.652344 L 320.234375 5.855469 L 313.5625 5.628906 Z M 313.667969 3.4375 "/>
<path style=" stroke:none;fill-rule:nonzero;fill:rgb(39.99939%,39.99939%,39.99939%);fill-opacity:0.3;" d="M 318.308594 0.00390625 L 329.714844 0.433594 L 329.71875 2.308594 L 323.828125 2.089844 L 318.203125 1.878906 Z M 318.308594 0.00390625 "/>
<path style=" stroke:none;fill-rule:nonzero;fill:rgb(39.99939%,39.99939%,39.99939%);fill-opacity:0.3;" d="M 331.28125 4.023438 L 333.203125 4.007812 L 333.179688 5.230469 L 334.605469 5.199219 L 334.617188 10.394531 L 332.253906 10.296875 L 332.175781 7.574219 L 331.179688 7.46875 Z M 331.28125 4.023438 "/>
<path style=" stroke:none;fill-rule:nonzero;fill:rgb(39.99939%,39.99939%,39.99939%);fill-opacity:0.3;" d="M 331.078125 11.539062 L 334.554688 11.515625 L 334.414062 16.765625 L 331.09375 16.65625 Z M 331.078125 11.539062 "/>
<path style=" stroke:none;fill-rule:nonzero;fill:rgb(39.99939%,39.99939%,39.99939%);fill-opacity:0.3;" d="M 326.769531 5.066406 L 329.9375 5.039062 L 329.867188 15.792969 L 326.664062 15.714844 Z M 326.769531 5.066406 "/>
<path style=" stroke:none;fill-rule:nonzero;fill:rgb(39.99939%,39.99939%,39.99939%);fill-opacity:0.3;" d="M 338.894531 5.597656 L 338.496094 16.917969 L 335.398438 16.734375 L 335.535156 13.148438 L 336.507812 13.109375 L 336.644531 10.992188 L 335.710938 10.71875 L 336.042969 5.59375 Z M 338.894531 5.597656 "/>
<path style=" stroke:none;fill-rule:nonzero;fill:rgb(39.99939%,39.99939%,39.99939%);fill-opacity:0.3;" d="M 269.074219 24.046875 L 271.503906 22.726562 L 273.101562 24.671875 L 270.578125 26.167969 Z M 269.074219 24.046875 "/>
<path style=" stroke:none;fill-rule:nonzero;fill:rgb(39.99939%,39.99939%,39.99939%);fill-opacity:0.3;" d="M 266.066406 20.464844 L 268.683594 18.925781 L 270.65625 21.226562 L 268.042969 22.984375 Z M 266.066406 20.464844 "/>
<path style=" stroke:none;fill-rule:nonzero;fill:rgb(39.99939%,39.99939%,39.99939%);fill-opacity:0.3;" d="M 262.015625 26.328125 L 264.160156 24.660156 L 266.617188 26.617188 L 264.597656 28.542969 Z M 262.015625 26.328125 "/>
<path style=" stroke:none;fill-rule:nonzero;fill:rgb(39.99939%,39.99939%,39.99939%);fill-opacity:0.3;" d="M 261.15625 21.78125 L 263.679688 20.152344 L 265.558594 22.1875 L 263.035156 23.957031 Z M 261.15625 21.78125 "/>
<path style=" stroke:none;fill-rule:nonzero;fill:rgb(39.99939%,39.99939%,39.99939%);fill-opacity:0.3;" d="M 256.375 19.394531 L 296.605469 -0.542969 L 295.179688 7.292969 L 299.890625 18.503906 L 309.175781 38.960938 L 252.414062 37.273438 L 253.648438 25.410156 Z M 256.375 19.394531 "/>
<path style=" stroke:none;fill-rule:nonzero;fill:rgb(39.99939%,39.99939%,39.99939%);fill-opacity:0.3;" d="M 309.078125 18.257812 L 309.34375 16.433594 L 312.324219 16.4375 L 312.101562 18.347656 Z M 309.078125 18.257812 "/>
<path style=" stroke:none;fill-rule:nonzero;fill:rgb(39.99939%,39.99939%,39.99939%);fill-opacity:0.3;" d="M 317.480469 18.214844 L 317.378906 20.625 L 312.3125 20.558594 L 312.535156 18.066406 Z M 317.480469 18.214844 "/>
<path style=" stroke:none;fill-rule:nonzero;fill:rgb(39.99939%,39.99939%,39.99939%);fill-opacity:0.3;" d="M 325.910156 24.917969 L 325.96875 21.203125 L 328.40625 21.25 L 328.402344 24.984375 Z M 325.910156 24.917969 "/>
<path style=" stroke:none;fill-rule:nonzero;fill:rgb(39.99939%,39.99939%,39.99939%);fill-opacity:0.3;" d="M 325.25 22.714844 L 325.199219 24.910156 L 321.511719 24.90625 L 321.535156 22.574219 Z M 325.25 22.714844 "/>
<path style=" stroke:none;fill-rule:nonzero;fill:rgb(39.99939%,39.99939%,39.99939%);fill-opacity:0.3;" d="M 321.285156 16.691406 L 321.074219 21.714844 L 318.078125 21.484375 L 318.316406 16.5625 Z M 321.285156 16.691406 "/>
<path style=" stroke:none;fill-rule:nonzero;fill:rgb(39.99939%,39.99939%,39.99939%);fill-opacity:0.3;" d="M 322.203125 16.660156 L 325.175781 16.785156 L 324.972656 21.875 L 321.972656 21.753906 Z M 322.203125 16.660156 "/>
<path style=" stroke:none;fill-rule:nonzero;fill:rgb(39.99939%,39.99939%,39.99939%);fill-opacity:0.3;" d="M 302.847656 17.816406 L 306.691406 17.933594 L 306.480469 19.824219 L 302.773438 19.671875 Z M 302.847656 17.816406 "/>
<path style=" stroke:none;fill-rule:nonzero;fill:rgb(39.99939%,39.99939%,39.99939%);fill-opacity:0.3;" d="M 307.171875 21.058594 L 317.625 21.203125 L 317.527344 23.800781 L 307.085938 23.433594 Z M 307.171875 21.058594 "/>
<path style=" stroke:none;fill-rule:nonzero;fill:rgb(39.99939%,39.99939%,39.99939%);fill-opacity:0.3;" d="M 307.804688 24.640625 L 318.164062 24.90625 L 318.0625 27.410156 L 307.761719 27.09375 Z M 307.804688 24.640625 "/>
<path style=" stroke:none;fill-rule:nonzero;fill:rgb(39.99939%,39.99939%,39.99939%);fill-opacity:0.3;" d="M 309.203125 28.664062 L 315.707031 28.949219 L 315.5625 31.097656 L 309.121094 30.855469 Z M 309.203125 28.664062 "/>
<path style=" stroke:none;fill-rule:nonzero;fill:rgb(39.99939%,39.99939%,39.99939%);fill-opacity:0.3;" d="M 319.179688 32.648438 L 319.175781 35.1875 L 310.105469 34.734375 L 310.066406 32.300781 Z M 319.179688 32.648438 "/>
<path style=" stroke:none;fill-rule:nonzero;fill:rgb(39.99939%,39.99939%,39.99939%);fill-opacity:0.3;" d="M 321.070312 36.414062 L 321.074219 38.71875 L 311.113281 38.1875 L 311.199219 35.964844 Z M 321.070312 36.414062 "/>
<path style=" stroke:none;fill-rule:nonzero;fill:rgb(39.99939%,39.99939%,39.99939%);fill-opacity:0.3;" d="M 337.742188 23.09375 L 337.824219 25.335938 L 328.792969 25.050781 L 328.828125 22.769531 Z M 337.742188 23.09375 "/>
<path style=" stroke:none;fill-rule:nonzero;fill:rgb(39.99939%,39.99939%,39.99939%);fill-opacity:0.3;" d="M 338.363281 19.070312 L 338.296875 21.46875 L 328.667969 21.046875 L 328.664062 18.746094 Z M 338.363281 19.070312 "/>
<path style=" stroke:none;fill-rule:nonzero;fill:rgb(39.99939%,39.99939%,39.99939%);fill-opacity:0.3;" d="M 320.824219 26.476562 L 324.253906 26.480469 L 324.15625 31.605469 L 320.835938 31.601562 Z M 320.824219 26.476562 "/>
<path style=" stroke:none;fill-rule:nonzero;fill:rgb(39.99939%,39.99939%,39.99939%);fill-opacity:0.3;" d="M 325.363281 26.65625 L 328.691406 26.851562 L 328.15625 37.257812 L 324.84375 37.109375 Z M 325.363281 26.65625 "/>
<path style=" stroke:none;fill-rule:nonzero;fill:rgb(39.99939%,39.99939%,39.99939%);fill-opacity:0.3;" d="M 329.605469 26.796875 L 332.894531 26.777344 L 332.25 37.257812 L 329.039062 37.152344 Z M 329.605469 26.796875 "/>
<path style=" stroke:none;fill-rule:nonzero;fill:rgb(39.99939%,39.99939%,39.99939%);fill-opacity:0.3;" d="M 336.886719 27.015625 L 336.496094 37.394531 L 333.355469 37.15625 L 333.554688 26.902344 Z M 336.886719 27.015625 "/>
<path style=" stroke:none;fill-rule:nonzero;fill:rgb(39.99939%,39.99939%,39.99939%);fill-opacity:0.3;" d="M 337.871094 27.429688 L 341.003906 27.488281 L 340.769531 37.683594 L 337.457031 37.429688 Z M 337.871094 27.429688 "/>
<path style=" stroke:none;fill-rule:nonzero;fill:rgb(39.99939%,39.99939%,39.99939%);fill-opacity:0.3;" d="M 342.074219 27.328125 L 345.324219 27.445312 L 344.984375 38.101562 L 341.878906 37.996094 Z M 342.074219 27.328125 "/>
<path style=" stroke:none;fill-rule:nonzero;fill:rgb(39.99939%,39.99939%,39.99939%);fill-opacity:0.3;" d="M 356.074219 21.820312 L 358.976562 21.785156 L 359.089844 27.210938 L 356.839844 27.082031 L 356.816406 24.730469 L 356.082031 24.726562 Z M 356.074219 21.820312 "/>
<path style=" stroke:none;fill-rule:nonzero;fill:rgb(39.99939%,39.99939%,39.99939%);fill-opacity:0.3;" d="M 352.238281 17.578125 L 354.824219 17.65625 L 355.066406 27.128906 L 352.746094 27.140625 L 352.878906 21.636719 L 352.0625 21.558594 Z M 352.238281 17.578125 "/>
<path style=" stroke:none;fill-rule:nonzero;fill:rgb(39.99939%,39.99939%,39.99939%);fill-opacity:0.3;" d="M 350.074219 28.59375 L 356.9375 28.804688 L 356.832031 31.210938 L 350.082031 31.101562 Z M 350.074219 28.59375 "/>
<path style=" stroke:none;fill-rule:nonzero;fill:rgb(39.99939%,39.99939%,39.99939%);fill-opacity:0.3;" d="M 349.75 32.359375 L 356.613281 32.570312 L 356.507812 34.976562 L 349.757812 34.867188 Z M 349.75 32.359375 "/>
<path style=" stroke:none;fill-rule:nonzero;fill:rgb(39.99939%,39.99939%,39.99939%);fill-opacity:0.3;" d="M 349.429688 36.125 L 356.609375 36.324219 L 356.550781 38.839844 L 349.433594 38.632812 Z M 349.429688 36.125 "/>
<g clip-path="url(#clip22)" clip-rule="nonzero">
<path style=" stroke:none;fill-rule:nonzero;fill:rgb(39.99939%,39.99939%,39.99939%);fill-opacity:0.3;" d="M 357.710938 29.328125 L 361.585938 29.332031 L 361.605469 38.746094 L 357.847656 38.777344 Z M 357.710938 29.328125 "/>
</g>
<path style=" stroke:none;fill-rule:nonzero;fill:rgb(39.99939%,39.99939%,39.99939%);fill-opacity:0.3;" d="M 343.554688 2.796875 L 351.675781 3.183594 L 351.457031 4.957031 L 343.488281 4.53125 Z M 343.554688 2.796875 "/>
<path style=" stroke:none;fill-rule:nonzero;fill:rgb(39.99939%,39.99939%,39.99939%);fill-opacity:0.3;" d="M 355.738281 4.675781 L 355.457031 11.007812 L 353.035156 10.761719 L 353.339844 4.539062 Z M 355.738281 4.675781 "/>
<path style=" stroke:none;fill-rule:nonzero;fill:rgb(39.99939%,39.99939%,39.99939%);fill-opacity:0.3;" d="M 347.351562 -0.464844 L 354.324219 -0.0429688 L 354.109375 2.25 L 347.023438 1.929688 Z M 347.351562 -0.464844 "/>
<g clip-path="url(#clip23)" clip-rule="nonzero">
<path style=" stroke:none;fill-rule:nonzero;fill:rgb(39.99939%,39.99939%,39.99939%);fill-opacity:0.3;" d="M 364.460938 -0.734375 L 364.355469 1.4375 L 357.316406 1.105469 L 357.394531 -1.050781 Z M 364.460938 -0.734375 "/>
</g>
<g clip-path="url(#clip24)" clip-rule="nonzero">
<path style=" stroke:none;fill-rule:nonzero;fill:rgb(39.99939%,39.99939%,39.99939%);fill-opacity:0.3;" d="M 363.945312 2.957031 L 363.753906 5.335938 L 357.101562 5.066406 L 357.140625 2.660156 Z M 363.945312 2.957031 "/>
</g>
<g clip-path="url(#clip25)" clip-rule="nonzero">
<path style=" stroke:none;fill-rule:nonzero;fill:rgb(39.99939%,39.99939%,39.99939%);fill-opacity:0.3;" d="M 363.804688 6.613281 L 363.667969 8.824219 L 358.328125 8.820312 L 358.433594 6.527344 Z M 363.804688 6.613281 "/>
</g>
<g clip-path="url(#clip26)" clip-rule="nonzero">
<path style=" stroke:none;fill-rule:nonzero;fill:rgb(39.99939%,39.99939%,39.99939%);fill-opacity:0.3;" d="M 351.398438 214.953125 L 340.691406 197.355469 L 351.410156 189.382812 L 364.097656 191.925781 L 362.992188 216.113281 Z M 351.398438 214.953125 "/>
</g>
<path style=" stroke:none;fill-rule:nonzero;fill:rgb(39.99939%,39.99939%,39.99939%);fill-opacity:0.3;" d="M 348.300781 158.367188 L 348.527344 186.980469 L 338.976562 193.691406 L 322.394531 158.359375 Z M 348.300781 158.367188 "/>
<g clip-path="url(#clip27)" clip-rule="nonzero">
<path style=" stroke:none;fill-rule:nonzero;fill:rgb(39.99939%,39.99939%,39.99939%);fill-opacity:0.3;" d="M 364.402344 188.597656 L 349.929688 185.945312 L 349.824219 158.410156 L 366.007812 159.160156 Z M 364.402344 188.597656 "/>
</g>
<g clip-path="url(#clip28)" clip-rule="nonzero">
<path style=" stroke:none;fill-rule:nonzero;fill:rgb(39.99939%,39.99939%,39.99939%);fill-opacity:0.3;" d="M 381.761719 154.027344 L 351.289062 152.792969 L 344.300781 152.511719 L 348.960938 152.511719 L 370.898438 153.308594 Z M 381.761719 154.027344 "/>
</g>
<g clip-path="url(#clip29)" clip-rule="nonzero">
<path style=" stroke:none;fill-rule:nonzero;fill:rgb(39.99939%,39.99939%,39.99939%);fill-opacity:0.3;" d="M 362.96875 216.660156 L 352.292969 216.429688 L 351.398438 214.953125 L 362.992188 216.113281 Z M 362.96875 216.660156 "/>
</g>
<g clip-path="url(#clip30)" clip-rule="nonzero">
<path style=" stroke:none;fill-rule:nonzero;fill:rgb(39.99939%,39.99939%,39.99939%);fill-opacity:0.3;" d="M 357.707031 223.890625 L 358.785156 222.953125 L 363.78125 222.804688 L 369.929688 223.09375 L 363.339844 229.867188 Z M 357.707031 223.890625 "/>
</g>
<path style=" stroke:none;fill-rule:nonzero;fill:rgb(39.99939%,39.99939%,39.99939%);fill-opacity:0.3;" d="M 223.371094 284.328125 L 216.488281 270.027344 L 218.585938 269.136719 L 225.367188 283.515625 Z M 223.371094 284.328125 "/>
<path style=" stroke:none;fill-rule:nonzero;fill:rgb(39.99939%,39.99939%,39.99939%);fill-opacity:0.3;" d="M 220.792969 285.332031 L 218.734375 286.28125 L 211.914062 272.085938 L 214.066406 271.1875 Z M 220.792969 285.332031 "/>
<path style=" stroke:none;fill-rule:nonzero;fill:rgb(39.99939%,39.99939%,39.99939%);fill-opacity:0.3;" d="M 155.078125 243.988281 L 159.769531 238.171875 L 181.714844 253.886719 L 155.078125 254.585938 L 146.359375 254.8125 Z M 155.078125 243.988281 "/>
<path style=" stroke:none;fill-rule:nonzero;fill:rgb(39.99939%,39.99939%,39.99939%);fill-opacity:0.3;" d="M 229.9375 225.367188 L 230.855469 226.007812 L 230.207031 226.816406 L 231.554688 227.757812 L 232.199219 226.953125 L 233.128906 227.601562 L 230.082031 231.402344 L 229.15625 230.75 L 229.800781 229.945312 L 228.457031 229 L 227.808594 229.808594 L 226.890625 229.167969 Z M 229.9375 225.367188 "/>
<path style=" stroke:none;fill-rule:nonzero;fill:rgb(39.99939%,39.99939%,39.99939%);fill-opacity:0.3;" d="M 224.15625 230.738281 L 225.074219 231.378906 L 224.429688 232.1875 L 225.773438 233.128906 L 226.421875 232.320312 L 227.351562 232.972656 L 224.304688 236.773438 L 223.375 236.121094 L 224.023438 235.316406 L 222.679688 234.371094 L 222.03125 235.179688 L 221.113281 234.539062 Z M 224.15625 230.738281 "/>
<path style=" stroke:none;fill-rule:nonzero;fill:rgb(39.99939%,39.99939%,39.99939%);fill-opacity:0.3;" d="M 218.140625 235.773438 L 219.058594 236.414062 L 218.414062 237.222656 L 219.757812 238.164062 L 220.40625 237.355469 L 221.332031 238.007812 L 218.289062 241.808594 L 217.359375 241.160156 L 218.007812 240.351562 L 216.660156 239.40625 L 216.015625 240.214844 L 215.09375 239.574219 Z M 218.140625 235.773438 "/>
<path style=" stroke:none;fill-rule:nonzero;fill:rgb(39.99939%,39.99939%,39.99939%);fill-opacity:0.3;" d="M 210.34375 231.847656 L 211.261719 232.492188 L 210.613281 233.296875 L 211.960938 234.242188 L 212.609375 233.433594 L 213.535156 234.082031 L 210.492188 237.882812 L 209.5625 237.234375 L 210.210938 236.425781 L 208.863281 235.484375 L 208.214844 236.289062 L 207.296875 235.648438 Z M 210.34375 231.847656 "/>
<path style=" stroke:none;fill-rule:nonzero;fill:rgb(39.99939%,39.99939%,39.99939%);fill-opacity:0.3;" d="M 216.121094 226.140625 L 217.042969 226.785156 L 216.394531 227.59375 L 217.738281 228.535156 L 218.386719 227.726562 L 219.316406 228.378906 L 216.269531 232.175781 L 215.339844 231.527344 L 215.988281 230.71875 L 214.644531 229.777344 L 213.996094 230.585938 L 213.078125 229.941406 Z M 216.121094 226.140625 "/>
<path style=" stroke:none;fill-rule:nonzero;fill:rgb(39.99939%,39.99939%,39.99939%);fill-opacity:0.3;" d="M 221.429688 220.660156 L 222.347656 221.304688 L 221.703125 222.109375 L 223.046875 223.050781 L 223.695312 222.246094 L 224.625 222.894531 L 221.578125 226.695312 L 220.648438 226.042969 L 221.296875 225.234375 L 219.949219 224.292969 L 219.304688 225.101562 L 218.382812 224.457031 Z M 221.429688 220.660156 "/>
<path style=" stroke:none;fill-rule:nonzero;fill:rgb(39.99939%,39.99939%,39.99939%);fill-opacity:0.3;" d="M 179.273438 241.582031 L 180.191406 242.226562 L 179.546875 243.035156 L 180.894531 243.976562 L 181.539062 243.167969 L 182.472656 243.820312 L 179.425781 247.621094 L 178.496094 246.96875 L 179.140625 246.160156 L 177.792969 245.21875 L 177.148438 246.027344 L 176.226562 245.382812 Z M 179.273438 241.582031 "/>
<path style=" stroke:none;fill-rule:nonzero;fill:rgb(39.99939%,39.99939%,39.99939%);fill-opacity:0.3;" d="M 184.03125 235.441406 L 184.949219 236.085938 L 184.300781 236.894531 L 185.648438 237.835938 L 186.296875 237.027344 L 187.226562 237.679688 L 184.179688 241.480469 L 183.25 240.828125 L 183.898438 240.019531 L 182.550781 239.078125 L 181.902344 239.886719 L 180.984375 239.242188 Z M 184.03125 235.441406 "/>
<path style=" stroke:none;fill-rule:nonzero;fill:rgb(39.99939%,39.99939%,39.99939%);fill-opacity:0.3;" d="M 188.789062 229.574219 L 189.707031 230.21875 L 189.0625 231.023438 L 190.40625 231.96875 L 191.054688 231.160156 L 191.984375 231.8125 L 188.941406 235.609375 L 188.007812 234.960938 L 188.65625 234.152344 L 187.308594 233.207031 L 186.664062 234.015625 L 185.742188 233.371094 Z M 188.789062 229.574219 "/>
<path style=" stroke:none;fill-rule:nonzero;fill:rgb(39.99939%,39.99939%,39.99939%);fill-opacity:0.3;" d="M 173.75 237.285156 L 174.671875 237.929688 L 174.023438 238.738281 L 175.371094 239.683594 L 176.019531 238.875 L 176.949219 239.527344 L 173.902344 243.324219 L 172.972656 242.675781 L 173.621094 241.867188 L 172.273438 240.921875 L 171.625 241.730469 L 170.703125 241.085938 Z M 173.75 237.285156 "/>
<path style=" stroke:none;fill-rule:nonzero;fill:rgb(39.99939%,39.99939%,39.99939%);fill-opacity:0.3;" d="M 178.585938 231.410156 L 179.507812 232.054688 L 178.859375 232.863281 L 180.207031 233.808594 L 180.855469 233 L 181.785156 233.652344 L 178.738281 237.449219 L 177.808594 236.800781 L 178.457031 235.992188 L 177.109375 235.046875 L 176.460938 235.855469 L 175.539062 235.210938 Z M 178.585938 231.410156 "/>
<path style=" stroke:none;fill-rule:nonzero;fill:rgb(39.99939%,39.99939%,39.99939%);fill-opacity:0.3;" d="M 183.167969 225.699219 L 184.085938 226.34375 L 183.441406 227.152344 L 184.789062 228.09375 L 185.4375 227.285156 L 186.367188 227.9375 L 183.320312 231.738281 L 182.390625 231.085938 L 183.039062 230.277344 L 181.6875 229.335938 L 181.042969 230.140625 L 180.121094 229.496094 Z M 183.167969 225.699219 "/>
<path style=" stroke:none;fill-rule:nonzero;fill:rgb(39.99939%,39.99939%,39.99939%);fill-opacity:0.3;" d="M 192.132812 258.800781 L 201.375 248.679688 L 203.4375 250.367188 L 194.535156 260.566406 Z M 192.132812 258.800781 "/>
<path style=" stroke:none;fill-rule:nonzero;fill:rgb(39.99939%,39.99939%,39.99939%);fill-opacity:0.3;" d="M 207.75 242.007812 L 209.757812 243.695312 L 205.355469 248.886719 L 203.078125 247.265625 Z M 207.75 242.007812 "/>
<path style=" stroke:none;fill-rule:nonzero;fill:rgb(39.99939%,39.99939%,39.99939%);fill-opacity:0.3;" d="M 202.644531 238.691406 L 205.234375 240.246094 L 199.253906 247.117188 L 196.734375 245.402344 Z M 202.644531 238.691406 "/>
<path style=" stroke:none;fill-rule:nonzero;fill:rgb(39.99939%,39.99939%,39.99939%);fill-opacity:0.3;" d="M 187.71875 255.355469 L 196.085938 246.195312 L 198.457031 247.886719 L 189.832031 256.980469 Z M 187.71875 255.355469 "/>
<path style=" stroke:none;fill-rule:nonzero;fill:rgb(39.99939%,39.99939%,39.99939%);fill-opacity:0.3;" d="M 197.617188 234 L 200.320312 235.554688 L 195.707031 240.9375 L 193.546875 239.597656 Z M 197.617188 234 "/>
<path style=" stroke:none;fill-rule:nonzero;fill:rgb(39.99939%,39.99939%,39.99939%);fill-opacity:0.3;" d="M 184.71875 250.347656 L 192.457031 240.488281 L 195.210938 241.949219 L 187.339844 251.710938 Z M 184.71875 250.347656 "/>
<path style=" stroke:none;fill-rule:nonzero;fill:rgb(39.99939%,39.99939%,39.99939%);fill-opacity:0.3;" d="M 167.269531 239.601562 L 177.023438 227.144531 L 178.753906 228.402344 L 169.042969 240.667969 Z M 167.269531 239.601562 "/>
<path style=" stroke:none;fill-rule:nonzero;fill:rgb(39.99939%,39.99939%,39.99939%);fill-opacity:0.3;" d="M 180.964844 222.554688 L 182.46875 223.773438 L 179.207031 227.867188 L 177.429688 226.671875 Z M 180.964844 222.554688 "/>
<path style=" stroke:none;fill-rule:nonzero;fill:rgb(39.99939%,39.99939%,39.99939%);fill-opacity:0.3;" d="M 177.007812 219.488281 L 178.902344 221.019531 L 175.621094 225.121094 L 173.617188 223.777344 Z M 177.007812 219.488281 "/>
<path style=" stroke:none;fill-rule:nonzero;fill:rgb(39.99939%,39.99939%,39.99939%);fill-opacity:0.3;" d="M 163.253906 235.832031 L 173.027344 224.292969 L 175.125 225.683594 L 165.664062 237.597656 Z M 163.253906 235.832031 "/>
<path style=" stroke:none;fill-rule:nonzero;fill:rgb(39.99939%,39.99939%,39.99939%);fill-opacity:0.3;" d="M 181.664062 220.238281 L 195.789062 231.113281 L 181.667969 251.980469 L 165.441406 240.152344 Z M 181.664062 220.238281 "/>
<path style=" stroke:none;fill-rule:nonzero;fill:rgb(39.99939%,39.99939%,39.99939%);fill-opacity:0.3;" d="M 229.75 258.390625 L 250.351562 249.664062 L 250.503906 249.597656 L 256.429688 262.792969 L 260.457031 270.078125 L 239.664062 278.792969 Z M 229.75 258.390625 "/>
<path style=" stroke:none;fill-rule:nonzero;fill:rgb(39.99939%,39.99939%,39.99939%);fill-opacity:0.3;" d="M 243.019531 232.535156 L 241.722656 230.570312 L 242.46875 231.28125 Z M 243.019531 232.535156 "/>
<path style=" stroke:none;fill-rule:nonzero;fill:rgb(39.99939%,39.99939%,39.99939%);fill-opacity:0.3;" d="M 97.402344 303.683594 L 99.066406 305.652344 L 97.78125 306.414062 L 98.925781 307.9375 L 97.332031 308.796875 L 96.238281 307.367188 L 94.851562 308.03125 L 93.542969 306.207031 Z M 97.402344 303.683594 "/>
<path style=" stroke:none;fill-rule:nonzero;fill:rgb(39.99939%,39.99939%,39.99939%);fill-opacity:0.3;" d="M 93.769531 297.867188 L 95.453125 299.851562 L 94.164062 300.609375 L 95.320312 302.140625 L 93.71875 302.992188 L 92.617188 301.558594 L 91.21875 302.214844 L 89.890625 300.378906 Z M 93.769531 297.867188 "/>
<path style=" stroke:none;fill-rule:nonzero;fill:rgb(39.99939%,39.99939%,39.99939%);fill-opacity:0.3;" d="M 212.664062 243.210938 L 216.886719 246.285156 L 219.074219 250.199219 L 223.289062 259.007812 L 198.988281 269.195312 L 194.59375 262.238281 Z M 212.664062 243.210938 "/>
<path style=" stroke:none;fill-rule:nonzero;fill:rgb(39.99939%,39.99939%,39.99939%);fill-opacity:0.3;" d="M 211.890625 280.542969 L 213.511719 279.835938 L 217.15625 286.929688 L 215.46875 287.734375 Z M 211.890625 280.542969 "/>
<path style=" stroke:none;fill-rule:nonzero;fill:rgb(39.99939%,39.99939%,39.99939%);fill-opacity:0.3;" d="M 206.867188 270.125 L 208.683594 269.355469 L 213.324219 279.386719 L 211.605469 280.128906 Z M 206.867188 270.125 "/>
<path style=" stroke:none;fill-rule:nonzero;fill:rgb(39.99939%,39.99939%,39.99939%);fill-opacity:0.3;" d="M 211.535156 284.191406 L 213.710938 288.605469 L 210.230469 290.210938 L 208.011719 285.648438 Z M 211.535156 284.191406 "/>
<path style=" stroke:none;fill-rule:nonzero;fill:rgb(39.99939%,39.99939%,39.99939%);fill-opacity:0.3;" d="M 201.859375 272.207031 L 205.582031 270.652344 L 211.355469 283.71875 L 207.683594 285.179688 Z M 201.859375 272.207031 "/>
<path style=" stroke:none;fill-rule:nonzero;fill:rgb(39.99939%,39.99939%,39.99939%);fill-opacity:0.3;" d="M 194.902344 274.777344 L 197.796875 280.425781 L 195.425781 281.273438 L 192.753906 275.695312 Z M 194.902344 274.777344 "/>
<path style=" stroke:none;fill-rule:nonzero;fill:rgb(39.99939%,39.99939%,39.99939%);fill-opacity:0.3;" d="M 203.695312 287.976562 L 205.695312 291.960938 L 204.359375 292.480469 L 203.796875 291.4375 L 202.640625 291.925781 L 203.171875 293.042969 L 201.414062 293.78125 L 199.640625 289.707031 L 201.1875 289.058594 L 201.792969 290.332031 L 202.847656 289.855469 L 202.210938 288.566406 Z M 203.695312 287.976562 "/>
<path style=" stroke:none;fill-rule:nonzero;fill:rgb(39.99939%,39.99939%,39.99939%);fill-opacity:0.3;" d="M 201.324219 283.523438 L 203.324219 287.503906 L 201.988281 288.023438 L 201.425781 286.980469 L 200.269531 287.464844 L 200.804688 288.585938 L 199.042969 289.320312 L 197.265625 285.253906 L 198.816406 284.601562 L 199.421875 285.875 L 200.476562 285.398438 L 199.839844 284.113281 Z M 201.324219 283.523438 "/>
<path style=" stroke:none;fill-rule:nonzero;fill:rgb(39.99939%,39.99939%,39.99939%);fill-opacity:0.3;" d="M 198.207031 290.160156 L 200.207031 294.148438 L 198.871094 294.667969 L 198.308594 293.621094 L 197.152344 294.109375 L 197.683594 295.230469 L 195.921875 295.964844 L 194.148438 291.890625 L 195.699219 291.242188 L 196.304688 292.519531 L 197.355469 292.039062 L 196.722656 290.75 Z M 198.207031 290.160156 "/>
<path style=" stroke:none;fill-rule:nonzero;fill:rgb(39.99939%,39.99939%,39.99939%);fill-opacity:0.3;" d="M 195.609375 285.664062 L 197.613281 289.644531 L 196.277344 290.164062 L 195.714844 289.121094 L 194.558594 289.609375 L 195.09375 290.726562 L 193.332031 291.464844 L 191.554688 287.394531 L 193.105469 286.746094 L 193.710938 288.019531 L 194.761719 287.542969 L 194.128906 286.253906 Z M 195.609375 285.664062 "/>
<path style=" stroke:none;fill-rule:nonzero;fill:rgb(39.99939%,39.99939%,39.99939%);fill-opacity:0.3;" d="M 191.160156 276.804688 L 193.164062 280.78125 L 191.828125 281.300781 L 191.265625 280.257812 L 190.109375 280.746094 L 190.644531 281.863281 L 188.882812 282.597656 L 187.101562 278.535156 L 188.652344 277.886719 L 189.261719 279.15625 L 190.3125 278.679688 L 189.675781 277.394531 Z M 191.160156 276.804688 "/>
<path style=" stroke:none;fill-rule:nonzero;fill:rgb(39.99939%,39.99939%,39.99939%);fill-opacity:0.3;" d="M 190.03125 289.648438 L 192.035156 293.632812 L 190.699219 294.152344 L 190.136719 293.109375 L 188.980469 293.597656 L 189.515625 294.714844 L 187.753906 295.453125 L 185.976562 291.382812 L 187.527344 290.730469 L 188.132812 292.007812 L 189.183594 291.527344 L 188.546875 290.238281 Z M 190.03125 289.648438 "/>
<path style=" stroke:none;fill-rule:nonzero;fill:rgb(39.99939%,39.99939%,39.99939%);fill-opacity:0.3;" d="M 187.707031 283.910156 L 189.710938 287.890625 L 188.375 288.410156 L 187.8125 287.367188 L 186.65625 287.855469 L 187.191406 288.972656 L 185.429688 289.707031 L 183.652344 285.640625 L 185.203125 284.992188 L 185.808594 286.265625 L 186.859375 285.785156 L 186.222656 284.5 Z M 187.707031 283.910156 "/>
<path style=" stroke:none;fill-rule:nonzero;fill:rgb(39.99939%,39.99939%,39.99939%);fill-opacity:0.3;" d="M 185.621094 294.699219 L 187.621094 298.6875 L 186.285156 299.207031 L 185.722656 298.160156 L 184.566406 298.648438 L 185.101562 299.769531 L 183.339844 300.503906 L 181.5625 296.429688 L 183.113281 295.78125 L 183.71875 297.054688 L 184.773438 296.578125 L 184.136719 295.289062 Z M 185.621094 294.699219 "/>
<path style=" stroke:none;fill-rule:nonzero;fill:rgb(39.99939%,39.99939%,39.99939%);fill-opacity:0.3;" d="M 183.078125 289.40625 L 185.082031 293.390625 L 183.746094 293.910156 L 183.179688 292.863281 L 182.027344 293.351562 L 182.558594 294.472656 L 180.796875 295.207031 L 179.019531 291.136719 L 180.570312 290.488281 L 181.179688 291.761719 L 182.230469 291.285156 L 181.59375 289.996094 Z M 183.078125 289.40625 "/>
<path style=" stroke:none;fill-rule:nonzero;fill:rgb(39.99939%,39.99939%,39.99939%);fill-opacity:0.3;" d="M 173.933594 282.554688 L 198.613281 272.101562 L 207.90625 292.367188 L 183.527344 302.710938 Z M 173.933594 282.554688 "/>
<path style=" stroke:none;fill-rule:nonzero;fill:rgb(39.99939%,39.99939%,39.99939%);fill-opacity:0.3;" d="M 180.234375 283.675781 L 182.242188 287.652344 L 180.902344 288.171875 L 180.339844 287.132812 L 179.183594 287.617188 L 179.71875 288.734375 L 177.957031 289.472656 L 176.179688 285.40625 L 177.726562 284.757812 L 178.335938 286.03125 L 179.386719 285.550781 L 178.75 284.265625 Z M 180.234375 283.675781 "/>
<path style=" stroke:none;fill-rule:nonzero;fill:rgb(39.99939%,39.99939%,39.99939%);fill-opacity:0.3;" d="M 221.949219 249.128906 L 236.402344 243.355469 L 236.988281 244.832031 L 222.792969 250.609375 Z M 221.949219 249.128906 "/>
<path style=" stroke:none;fill-rule:nonzero;fill:rgb(39.99939%,39.99939%,39.99939%);fill-opacity:0.3;" d="M 239.484375 233.347656 L 227.890625 243.382812 L 226.523438 241.976562 L 238.203125 232.015625 Z M 239.484375 233.347656 "/>
<path style=" stroke:none;fill-rule:nonzero;fill:rgb(39.99939%,39.99939%,39.99939%);fill-opacity:0.3;" d="M 230.769531 251.660156 L 245.21875 245.882812 L 246.066406 247.402344 L 231.613281 253.136719 Z M 230.769531 251.660156 "/>
<path style=" stroke:none;fill-rule:nonzero;fill:rgb(39.99939%,39.99939%,39.99939%);fill-opacity:0.3;" d="M 178.179688 215.769531 L 195.320312 195.40625 L 212.757812 208.949219 L 224.21875 217.160156 L 238.148438 227.917969 L 217.703125 245.320312 L 208.671875 238.457031 L 203.335938 234.644531 L 196.640625 230.246094 L 182.183594 219.375 Z M 178.179688 215.769531 "/>
<path style=" stroke:none;fill-rule:nonzero;fill:rgb(39.99939%,39.99939%,39.99939%);fill-opacity:0.3;" d="M 170.824219 309.925781 L 174.902344 308.1875 L 175.8125 310.125 L 171.726562 311.886719 Z M 170.824219 309.925781 "/>
<path style=" stroke:none;fill-rule:nonzero;fill:rgb(39.99939%,39.99939%,39.99939%);fill-opacity:0.3;" d="M 176.765625 307.441406 L 180.84375 305.703125 L 180.960938 305.953125 L 179.371094 308.667969 L 177.667969 309.402344 Z M 176.765625 307.441406 "/>
<path style=" stroke:none;fill-rule:nonzero;fill:rgb(39.99939%,39.99939%,39.99939%);fill-opacity:0.3;" d="M 226.691406 272.820312 L 229.132812 271.992188 L 232.894531 280.523438 L 230.582031 281.464844 Z M 226.691406 272.820312 "/>
<path style=" stroke:none;fill-rule:nonzero;fill:rgb(39.99939%,39.99939%,39.99939%);fill-opacity:0.3;" d="M 223.316406 274.144531 L 225.761719 273.316406 L 229.472656 281.867188 L 227.207031 282.792969 Z M 223.316406 274.144531 "/>
<path style=" stroke:none;fill-rule:nonzero;fill:rgb(39.99939%,39.99939%,39.99939%);fill-opacity:0.3;" d="M 219.128906 264.902344 L 221.570312 264.074219 L 225.410156 272.761719 L 223.027344 273.535156 Z M 219.128906 264.902344 "/>
<path style=" stroke:none;fill-rule:nonzero;fill:rgb(39.99939%,39.99939%,39.99939%);fill-opacity:0.3;" d="M 222.386719 263.464844 L 224.828125 262.636719 L 228.667969 271.328125 L 226.285156 272.097656 Z M 222.386719 263.464844 "/>
<path style=" stroke:none;fill-rule:nonzero;fill:rgb(39.99939%,39.99939%,39.99939%);fill-opacity:0.3;" d="M 231.609375 270.835938 L 234.375 269.929688 L 238.0625 278.132812 L 235.757812 279.261719 Z M 231.609375 270.835938 "/>
<path style=" stroke:none;fill-rule:nonzero;fill:rgb(39.99939%,39.99939%,39.99939%);fill-opacity:0.3;" d="M 227.5 261.339844 L 230.238281 260.207031 L 234.128906 269.273438 L 231.265625 270.128906 Z M 227.5 261.339844 "/>
<path style=" stroke:none;fill-rule:nonzero;fill:rgb(39.99939%,39.99939%,39.99939%);fill-opacity:0.3;" d="M 155.078125 266.042969 L 171.535156 282.320312 L 173.613281 287.058594 L 181.109375 303.847656 L 160.402344 312.457031 L 160.847656 313.289062 L 162.410156 316.582031 L 163.667969 318.71875 L 161.503906 319.625 L 156.320312 322.21875 L 152.53125 324.613281 L 150.335938 325.410156 L 140.964844 326.605469 L 133.214844 327.1875 L 132.488281 323.859375 L 131.636719 321.386719 L 131.59375 321.222656 L 131.558594 321.164062 L 131.234375 320.222656 L 130.789062 319.75 L 130.394531 319.027344 L 129 317.433594 L 127.402344 316.035156 L 127.183594 315.9375 L 127.160156 315.914062 L 127.058594 315.882812 L 125.609375 315.238281 L 122.417969 314.441406 L 119.421875 313.832031 L 117.191406 313.320312 L 115.730469 313.078125 L 111.648438 312.246094 L 104.269531 310.652344 L 102.675781 310.652344 L 101.679688 311.25 L 99.683594 313.84375 L 96.492188 312.046875 L 88.910156 318.1875 L 83.722656 315.628906 L 76.53125 311.539062 L 75.675781 310.800781 L 75.136719 309.953125 L 74.980469 308.8125 L 75.464844 307.3125 L 100.011719 289.476562 L 125.300781 271.414062 L 145.28125 256.738281 Z M 155.078125 266.042969 "/>
<path style=" stroke:none;fill-rule:nonzero;fill:rgb(39.99939%,39.99939%,39.99939%);fill-opacity:0.3;" d="M 155.078125 255.871094 L 183.632812 255.089844 L 187.535156 257.746094 L 178.589844 271.667969 L 179.925781 272.207031 L 189.613281 259.40625 L 193.019531 262.882812 L 197.480469 269.777344 L 173.144531 280.570312 L 155.078125 263.285156 L 147.546875 256.074219 Z M 155.078125 255.871094 "/>
<path style=" stroke:none;fill-rule:nonzero;fill:rgb(39.99939%,39.99939%,39.99939%);fill-opacity:0.3;" d="M 222.300781 192.921875 L 224.019531 194.039062 L 220.917969 197.664062 L 219.277344 196.53125 Z M 222.300781 192.921875 "/>
<path style=" stroke:none;fill-rule:nonzero;fill:rgb(39.99939%,39.99939%,39.99939%);fill-opacity:0.3;" d="M 250.503906 249.597656 L 275.929688 238.703125 L 284.039062 254.304688 L 286.683594 260.074219 L 260.605469 270.019531 L 260.457031 270.078125 L 256.429688 262.792969 Z M 250.503906 249.597656 "/>
<path style=" stroke:none;fill-rule:nonzero;fill:rgb(39.99939%,39.99939%,39.99939%);fill-opacity:0.3;" d="M 208.179688 181.296875 L 210.007812 182.882812 L 199.839844 195.085938 L 197.808594 193.664062 Z M 208.179688 181.296875 "/>
<path style=" stroke:none;fill-rule:nonzero;fill:rgb(39.99939%,39.99939%,39.99939%);fill-opacity:0.3;" d="M 212.625 185.820312 L 214.152344 186.847656 L 204.28125 198.167969 L 202.800781 197.09375 Z M 212.625 185.820312 "/>
<path style=" stroke:none;fill-rule:nonzero;fill:rgb(39.99939%,39.99939%,39.99939%);fill-opacity:0.3;" d="M 215.238281 187.828125 L 216.761719 188.703125 L 206.699219 200.265625 L 205.265625 199.191406 Z M 215.238281 187.828125 "/>
<path style=" stroke:none;fill-rule:nonzero;fill:rgb(39.99939%,39.99939%,39.99939%);fill-opacity:0.3;" d="M 211.710938 205.355469 L 219.105469 196.710938 L 220.765625 197.859375 L 213.15625 206.425781 Z M 211.710938 205.355469 "/>
<path style=" stroke:none;fill-rule:nonzero;fill:rgb(39.99939%,39.99939%,39.99939%);fill-opacity:0.3;" d="M 219.984375 191.148438 L 221.398438 192.1875 L 211.078125 203.808594 L 209.734375 202.875 Z M 219.984375 191.148438 "/>
<path style=" stroke:none;fill-rule:nonzero;fill:rgb(39.99939%,39.99939%,39.99939%);fill-opacity:0.3;" d="M 257.335938 211.503906 L 239.160156 226.957031 L 218.042969 210.527344 L 231.4375 194.609375 L 237.050781 198.394531 L 247.894531 205.339844 Z M 257.335938 211.503906 "/>
<path style=" stroke:none;fill-rule:nonzero;fill:rgb(39.99939%,39.99939%,39.99939%);fill-opacity:0.3;" d="M 240.003906 227.960938 L 258.492188 212.261719 L 261.816406 214.640625 L 266.898438 219.601562 L 270.375 225.011719 L 276.125 237.476562 L 250.402344 247.5625 L 248.367188 242.910156 L 246.894531 239.34375 L 244.722656 235.117188 L 243.019531 232.535156 L 242.46875 231.28125 L 241.722656 230.570312 Z M 240.003906 227.960938 "/>
<path style=" stroke:none;fill-rule:nonzero;fill:rgb(39.99939%,39.99939%,39.99939%);fill-opacity:0.3;" d="M 332.582031 224.191406 L 346.609375 220.421875 L 347.652344 221.484375 L 345.171875 221.710938 L 340.984375 222.109375 L 338.390625 222.707031 Z M 332.582031 224.191406 "/>
<path style=" stroke:none;fill-rule:nonzero;fill:rgb(39.99939%,39.99939%,39.99939%);fill-opacity:0.3;" d="M 314.15625 161.285156 L 331.84375 199.441406 L 336.707031 208.0625 L 345.109375 218.867188 L 339.898438 220.484375 L 338.09375 221.023438 L 315.882812 226.828125 L 291.28125 233.375 L 277.691406 236.910156 L 271.703125 223.792969 L 267.992188 218.441406 L 263.089844 213.378906 L 258.726562 210.808594 L 249.222656 203.917969 L 238.207031 196.789062 L 231.507812 192.683594 L 209.863281 177.328125 L 223.246094 161.707031 L 234.957031 148 L 250.59375 149.679688 L 291.28125 154.042969 L 299.144531 154.488281 L 306.90625 155.023438 L 307.089844 155.046875 L 307.273438 155.082031 L 307.457031 155.125 L 307.632812 155.179688 L 307.808594 155.242188 L 307.984375 155.308594 L 308.152344 155.386719 L 308.316406 155.476562 L 308.472656 155.570312 L 308.625 155.671875 L 308.773438 155.78125 L 308.914062 155.898438 L 309.050781 156.023438 L 309.175781 156.152344 L 309.296875 156.289062 L 309.410156 156.429688 L 309.515625 156.578125 L 309.609375 156.730469 L 309.699219 156.890625 L 309.777344 157.050781 L 309.847656 157.214844 L 309.90625 157.382812 Z M 314.15625 161.285156 "/>
<path style=" stroke:none;fill-rule:nonzero;fill:rgb(39.99939%,39.99939%,39.99939%);fill-opacity:0.3;" d="M 195.320312 195.40625 L 195.898438 194.71875 L 207.109375 204.050781 L 216.089844 210.882812 L 224.21875 217.160156 L 212.757812 208.949219 Z M 195.320312 195.40625 "/>
<g clip-path="url(#clip31)" clip-rule="nonzero">
<path style=" stroke:none;fill-rule:nonzero;fill:rgb(39.99939%,39.99939%,39.99939%);fill-opacity:0.3;" d="M 443.703125 -2.265625 L 443.609375 -1.945312 L 442.207031 1.496094 L 420.777344 15.257812 L 402.699219 26.953125 L 394.410156 32.316406 L 391.316406 31.101562 L 389.289062 30.542969 L 388.246094 29.269531 L 387.691406 27.660156 L 385.742188 8.175781 L 385.558594 6.316406 L 386.996094 6.421875 L 388.53125 -5.726562 L 387.644531 -5.832031 L 388.359375 -11.070312 L 383.734375 -11.980469 L 383.660156 -12.011719 L 380.988281 -12.523438 L 362.183594 -16.226562 L 356.191406 -17.992188 L 367.265625 -34.617188 L 369.046875 -37.292969 L 382.644531 -31.394531 L 389.957031 -49.402344 L 390.199219 -49.242188 L 392.789062 -46.996094 L 396.734375 -43.050781 L 410.785156 -36.191406 L 460.015625 -11.804688 L 452.941406 -6.191406 L 452.484375 -6.359375 L 452.148438 -6.460938 L 451.808594 -6.546875 L 451.460938 -6.617188 L 451.113281 -6.671875 L 450.757812 -6.707031 L 450.40625 -6.726562 L 450.050781 -6.730469 L 449.695312 -6.714844 L 449.34375 -6.683594 L 448.992188 -6.632812 L 448.644531 -6.566406 L 448.300781 -6.484375 L 447.964844 -6.386719 L 447.632812 -6.269531 L 447.308594 -6.136719 L 446.988281 -5.992188 L 446.679688 -5.828125 L 446.382812 -5.652344 L 446.09375 -5.460938 L 445.816406 -5.253906 L 445.550781 -5.035156 L 445.300781 -4.804688 L 445.0625 -4.5625 L 444.835938 -4.304688 L 444.625 -4.039062 L 444.429688 -3.765625 L 444.253906 -3.480469 L 444.089844 -3.1875 L 443.945312 -2.886719 L 443.816406 -2.578125 Z M 443.703125 -2.265625 "/>
</g>
<path style=" stroke:none;fill-rule:nonzero;fill:rgb(39.99939%,39.99939%,39.99939%);fill-opacity:0.3;" d="M 139.511719 358.480469 L 139.25 356.753906 L 138.5 353.917969 L 139.96875 357.914062 Z M 139.511719 358.480469 "/>
<path style=" stroke:none;fill-rule:nonzero;fill:rgb(39.99939%,39.99939%,39.99939%);fill-opacity:0.3;" d="M 132.625 341.890625 L 132.121094 341.394531 L 130.28125 340.113281 L 130.308594 340.050781 L 132.191406 341.164062 Z M 132.625 341.890625 "/>
<path style=" stroke:none;fill-rule:nonzero;fill:rgb(39.99939%,39.99939%,39.99939%);fill-opacity:0.3;" d="M 59.121094 195.179688 L 38.179688 175.625 L 39.21875 165.910156 L 43.371094 161.546875 L 61.5625 148.71875 L 117.800781 110.148438 L 155.078125 83.667969 L 168.796875 73.925781 L 184.871094 62.769531 L 190.398438 58.953125 L 195.378906 57.347656 L 199.066406 56.167969 L 216.671875 55.109375 L 228.835938 54.199219 L 232.117188 54.125 L 235.675781 54.746094 L 238.476562 55.5625 L 241.058594 56.785156 L 245.042969 58.921875 L 247.519531 60.546875 L 248.164062 61.175781 L 244.265625 61.175781 L 239.078125 64.765625 L 182.644531 84.507812 L 128.003906 124.992188 L 66.582031 161.683594 Z M 59.121094 195.179688 "/>
<path style="fill-rule:nonzero;fill:rgb(39.99939%,39.99939%,39.99939%);fill-opacity:1;stroke-width:0.03;stroke-linecap:square;stroke-linejoin:miter;stroke:rgb(39.99939%,39.99939%,39.99939%);stroke-opacity:1;stroke-miterlimit:3.239307;" d="M 164.421875 297.175781 L 164.300781 298.160156 L 165.101562 298.195312 L 165.210938 297.195312 L 166.347656 297.332031 L 166.132812 300.519531 L 165.0625 300.347656 L 165.089844 299.5 L 164.207031 299.417969 L 164.101562 300.28125 L 162.785156 300.179688 L 163.257812 297.082031 Z M 164.421875 297.175781 " transform="matrix(1,0,0,1,-74,-13)"/>
<path style="fill-rule:nonzero;fill:rgb(39.99939%,39.99939%,39.99939%);fill-opacity:1;stroke-width:0.03;stroke-linecap:square;stroke-linejoin:miter;stroke:rgb(39.99939%,39.99939%,39.99939%);stroke-opacity:1;stroke-miterlimit:3.239307;" d="M 163.496094 292.34375 L 163.382812 293.335938 L 164.191406 293.378906 L 164.296875 292.375 L 165.40625 292.488281 L 165.097656 295.605469 L 164.109375 295.5 L 164.164062 294.667969 L 163.289062 294.597656 L 163.1875 295.464844 L 161.855469 295.347656 L 162.320312 292.238281 Z M 163.496094 292.34375 " transform="matrix(1,0,0,1,-74,-13)"/>
<path style="fill-rule:nonzero;fill:rgb(39.99939%,39.99939%,39.99939%);fill-opacity:1;stroke-width:0.03;stroke-linecap:square;stroke-linejoin:miter;stroke:rgb(39.99939%,39.99939%,39.99939%);stroke-opacity:1;stroke-miterlimit:3.239307;" d="M 354.105469 106.910156 L 382.570312 164.054688 L 311.914062 157.226562 L 334.371094 130.363281 Z M 354.105469 106.910156 " transform="matrix(1,0,0,1,-74,-13)"/>
<path style="fill-rule:nonzero;fill:rgb(39.99939%,39.99939%,39.99939%);fill-opacity:1;stroke-width:0.03;stroke-linecap:square;stroke-linejoin:miter;stroke:rgb(39.99939%,39.99939%,39.99939%);stroke-opacity:1;stroke-miterlimit:3.239307;" d="M 229.078125 251.613281 L 228.214844 252.664062 L 216.722656 267.140625 L 197.683594 281.75 L 173.171875 299.148438 L 166.257812 303.960938 L 142.296875 321.570312 L 139.160156 318.691406 L 138.230469 314.429688 L 138.863281 308.160156 L 141.148438 302.070312 L 144.96875 294.125 L 146.90625 292.632812 L 151.835938 268.351562 L 151.148438 266.074219 L 149.644531 263.023438 L 145.3125 259.488281 L 137.558594 255.230469 L 131.722656 252.296875 L 128.542969 249.644531 L 126.078125 245.652344 L 125.429688 242.992188 L 127.410156 236.4375 L 131.582031 226.011719 L 138.621094 213.316406 L 133.121094 208.179688 L 140.582031 174.683594 L 202.003906 137.992188 L 256.644531 97.507812 L 313.078125 77.765625 L 318.265625 74.175781 L 322.164062 74.175781 L 324.964844 76.898438 L 330.988281 82.984375 L 335.289062 87.949219 L 346.226562 99.15625 L 345.074219 100.320312 L 336.699219 101.839844 L 327.78125 104.449219 L 323.710938 106.917969 L 317.703125 111.753906 L 309.820312 119.917969 L 299.976562 129.039062 L 300.609375 129.488281 L 301.238281 129.9375 L 311.078125 121.136719 L 318.988281 113.042969 L 324.652344 108.1875 L 329.15625 105.859375 L 337.195312 103.371094 L 347.664062 101.320312 L 348.847656 102.648438 L 349.386719 104.175781 L 349.0625 106.15625 L 348.703125 108.03125 L 331.359375 128.984375 L 291.148438 176.742188 L 268.332031 203.894531 L 253.46875 221.960938 Z M 229.078125 251.613281 " transform="matrix(1,0,0,1,-74,-13)"/>
<path style=" stroke:none;fill-rule:evenodd;fill:rgb(85.096741%,85.096741%,81.959534%);fill-opacity:0.7;" d="M 322.976562 315 C 322.976562 312.882812 322.136719 310.855469 320.640625 309.359375 C 319.144531 307.863281 317.117188 307.023438 315 307.023438 C 312.882812 307.023438 310.855469 307.863281 309.359375 309.359375 C 307.863281 310.855469 307.023438 312.882812 307.023438 315 C 307.023438 317.117188 307.863281 319.144531 309.359375 320.640625 C 310.855469 322.136719 312.882812 322.976562 315 322.976562 C 317.117188 322.976562 319.144531 322.136719 320.640625 320.640625 C 322.136719 319.144531 322.976562 317.117188 322.976562 315 Z M 322.976562 315 "/>
<path style=" stroke:none;fill-rule:evenodd;fill:rgb(85.096741%,85.096741%,81.959534%);fill-opacity:0.7;" d="M 358.976562 231 C 358.976562 228.882812 358.136719 226.855469 356.640625 225.359375 C 355.144531 223.863281 353.117188 223.023438 351 223.023438 C 348.882812 223.023438 346.855469 223.863281 345.359375 225.359375 C 343.863281 226.855469 343.023438 228.882812 343.023438 231 C 343.023438 233.117188 343.863281 235.144531 345.359375 236.640625 C 346.855469 238.136719 348.882812 238.976562 351 238.976562 C 353.117188 238.976562 355.144531 238.136719 356.640625 236.640625 C 358.136719 235.144531 358.976562 233.117188 358.976562 231 Z M 358.976562 231 "/>
<path style=" stroke:none;fill-rule:evenodd;fill:rgb(85.096741%,85.096741%,81.959534%);fill-opacity:0.7;" d="M 176.976562 216 C 176.976562 213.882812 176.136719 211.855469 174.640625 210.359375 C 173.144531 208.863281 171.117188 208.023438 169 208.023438 C 166.882812 208.023438 164.855469 208.863281 163.359375 210.359375 C 161.863281 211.855469 161.023438 213.882812 161.023438 216 C 161.023438 218.117188 161.863281 220.144531 163.359375 221.640625 C 164.855469 223.136719 166.882812 223.976562 169 223.976562 C 171.117188 223.976562 173.144531 223.136719 174.640625 221.640625 C 176.136719 220.144531 176.976562 218.117188 176.976562 216 Z M 176.976562 216 "/>
<path style=" stroke:none;fill-rule:evenodd;fill:rgb(85.096741%,85.096741%,81.959534%);fill-opacity:0.7;" d="M 349.976562 167 C 349.976562 164.882812 349.136719 162.855469 347.640625 161.359375 C 346.144531 159.863281 344.117188 159.023438 342 159.023438 C 339.882812 159.023438 337.855469 159.863281 336.359375 161.359375 C 334.863281 162.855469 334.023438 164.882812 334.023438 167 C 334.023438 169.117188 334.863281 171.144531 336.359375 172.640625 C 337.855469 174.136719 339.882812 174.976562 342 174.976562 C 344.117188 174.976562 346.144531 174.136719 347.640625 172.640625 C 349.136719 171.144531 349.976562 169.117188 349.976562 167 Z M 349.976562 167 "/>
<path style=" stroke:none;fill-rule:evenodd;fill:rgb(85.096741%,85.096741%,81.959534%);fill-opacity:0.7;" d="M 247.976562 136 C 247.976562 133.882812 247.136719 131.855469 245.640625 130.359375 C 244.144531 128.863281 242.117188 128.023438 240 128.023438 C 237.882812 128.023438 235.855469 128.863281 234.359375 130.359375 C 232.863281 131.855469 232.023438 133.882812 232.023438 136 C 232.023438 138.117188 232.863281 140.144531 234.359375 141.640625 C 235.855469 143.136719 237.882812 143.976562 240 143.976562 C 242.117188 143.976562 244.144531 143.136719 245.640625 141.640625 C 247.136719 140.144531 247.976562 138.117188 247.976562 136 Z M 247.976562 136 "/>
<path style=" stroke:none;fill-rule:evenodd;fill:rgb(85.096741%,85.096741%,81.959534%);fill-opacity:0.7;" d="M 299.976562 47 C 299.976562 44.882812 299.136719 42.855469 297.640625 41.359375 C 296.144531 39.863281 294.117188 39.023438 292 39.023438 C 289.882812 39.023438 287.855469 39.863281 286.359375 41.359375 C 284.863281 42.855469 284.023438 44.882812 284.023438 47 C 284.023438 49.117188 284.863281 51.144531 286.359375 52.640625 C 287.855469 54.136719 289.882812 54.976562 292 54.976562 C 294.117188 54.976562 296.144531 54.136719 297.640625 52.640625 C 299.136719 51.144531 299.976562 49.117188 299.976562 47 Z M 299.976562 47 "/>
<path style=" stroke:none;fill-rule:evenodd;fill:rgb(85.096741%,85.096741%,81.959534%);fill-opacity:0.7;" d="M 300.976562 45 C 300.976562 42.882812 300.136719 40.855469 298.640625 39.359375 C 297.144531 37.863281 295.117188 37.023438 293 37.023438 C 290.882812 37.023438 288.855469 37.863281 287.359375 39.359375 C 285.863281 40.855469 285.023438 42.882812 285.023438 45 C 285.023438 47.117188 285.863281 49.144531 287.359375 50.640625 C 288.855469 52.136719 290.882812 52.976562 293 52.976562 C 295.117188 52.976562 297.144531 52.136719 298.640625 50.640625 C 300.136719 49.144531 300.976562 47.117188 300.976562 45 Z M 300.976562 45 "/>
<g clip-path="url(#clip32)" clip-rule="nonzero">
<path style=" stroke:none;fill-rule:evenodd;fill:rgb(85.096741%,85.096741%,81.959534%);fill-opacity:0.7;" d="M 255.976562 362 C 255.976562 359.882812 255.136719 357.855469 253.640625 356.359375 C 252.144531 354.863281 250.117188 354.023438 248 354.023438 C 245.882812 354.023438 243.855469 354.863281 242.359375 356.359375 C 240.863281 357.855469 240.023438 359.882812 240.023438 362 C 240.023438 364.117188 240.863281 366.144531 242.359375 367.640625 C 243.855469 369.136719 245.882812 369.976562 248 369.976562 C 250.117188 369.976562 252.144531 369.136719 253.640625 367.640625 C 255.136719 366.144531 255.976562 364.117188 255.976562 362 Z M 255.976562 362 "/>
</g>
<g clip-path="url(#clip33)" clip-rule="nonzero">
<path style=" stroke:none;fill-rule:nonzero;fill:rgb(99.998474%,99.998474%,30.587769%);fill-opacity:0.8;" d="M 376.878906 353.527344 L 359.609375 383.441406 L 394.152344 383.441406 Z M 376.878906 353.527344 "/>
</g>
<g clip-path="url(#clip34)" clip-rule="nonzero">
<path style="fill:none;stroke-width:0.288;stroke-linecap:square;stroke-linejoin:miter;stroke:rgb(0%,0%,0%);stroke-opacity:0.8;stroke-miterlimit:3.25;" d="M 450.878906 366.527344 L 433.609375 396.441406 L 468.152344 396.441406 Z M 450.878906 366.527344 " transform="matrix(1,0,0,1,-74,-13)"/>
</g>
<path style="fill-rule:nonzero;fill:rgb(99.998474%,99.998474%,30.587769%);fill-opacity:0.8;stroke-width:0.288;stroke-linecap:square;stroke-linejoin:miter;stroke:rgb(0%,0%,0%);stroke-opacity:0.8;stroke-miterlimit:3.25;" d="M 371.113281 252.859375 L 353.839844 282.769531 L 388.382812 282.769531 Z M 371.113281 252.859375 " transform="matrix(1,0,0,1,-74,-13)"/>
</g>
</svg>
