<?xml version="1.0" encoding="UTF-8"?>
<svg xmlns="http://www.w3.org/2000/svg" xmlns:xlink="http://www.w3.org/1999/xlink" width="361pt" height="361pt" viewBox="0 0 361 361" version="1.1">
<defs>
<clipPath id="clip1">
  <path d="M 162 0 L 360 0 L 360 115 L 162 115 Z M 162 0 "/>
</clipPath>
</defs>
<g id="surface2849">
<path style="fill-rule:nonzero;fill:rgb(0%,0%,0%);fill-opacity:1;stroke-width:0.03;stroke-linecap:square;stroke-linejoin:miter;stroke:rgb(0%,0%,0%);stroke-opacity:1;stroke-miterlimit:10;" d="M 0 178 L 360 178 L 360 -182 L 0 -182 Z M 0 178 " transform="matrix(1,0,0,1,0,182)"/>
<path style=" stroke:none;fill-rule:nonzero;fill:rgb(39.99939%,39.99939%,39.99939%);fill-opacity:0.3;" d="M -100.515625 111.597656 L -102.375 110.859375 L -102.574219 109.476562 L -67.96875 98.328125 L -40.039062 86.808594 L -14.347656 76.535156 L 11.203125 64.050781 L 65.058594 37.074219 L 93.882812 24.4375 L 138.847656 6.773438 L 159.175781 -0.914062 L 168.015625 18.199219 L 161.886719 36.96875 L 164.902344 42.722656 L 113.894531 49.667969 L 114.300781 52.339844 L 166.164062 45.339844 L 201.085938 115.375 L 182.945312 122.632812 L 168.875 124.644531 L 149.78125 121.628906 L 132.691406 129.667969 L 118.621094 133.6875 L 113.597656 133.6875 L 100.53125 135.699219 L 91.484375 141.730469 L 84.449219 146.753906 L 79.683594 152.203125 L 64.480469 136.355469 L 76.253906 125.742188 L 75.429688 124.796875 L 74.609375 123.851562 L 62.324219 133.925781 L 26.789062 97.128906 L 25.609375 97.957031 L 24.230469 99.007812 L 76.808594 155.433594 L 73.273438 159.167969 L 63.953125 167.675781 L 60.226562 169.992188 L 56.175781 172 L 32.902344 165.078125 L 6.957031 157.804688 L -11.65625 154.347656 L -25.3125 147.09375 L -35.222656 140.300781 L -45.667969 130.917969 L -58.054688 121.742188 L -74.292969 114.714844 L -95.917969 111.871094 Z M -100.515625 111.597656 "/>
<path style=" stroke:none;fill-rule:nonzero;fill:rgb(39.99939%,39.99939%,39.99939%);fill-opacity:0.3;" d="M 272.476562 133.519531 L 272.707031 137.003906 L 272.398438 134.695312 Z M 272.476562 133.519531 "/>
<path style=" stroke:none;fill-rule:nonzero;fill:rgb(39.99939%,39.99939%,39.99939%);fill-opacity:0.3;" d="M 273.664062 144.179688 L 274.5625 150.101562 L 274.410156 149.769531 Z M 273.664062 144.179688 "/>
<path style=" stroke:none;fill-rule:nonzero;fill:rgb(39.99939%,39.99939%,39.99939%);fill-opacity:0.3;" d="M 329.152344 67.777344 L 333.554688 65.871094 L 310.589844 104.542969 L 298.53125 129.667969 L 293.503906 150.773438 L 293.394531 152.539062 L 293.28125 152.90625 L 291.363281 169.234375 L 291.078125 181.550781 L 291.242188 184.695312 L 285.515625 178.96875 L 283.03125 170.167969 L 280.917969 157.511719 L 280.472656 144.246094 L 279.3125 138.226562 L 276.796875 131.519531 L 274.59375 123.992188 L 275.941406 120.335938 L 289.554688 113.898438 L 300.433594 107.609375 L 309.335938 97.097656 Z M 329.152344 67.777344 "/>
<g clip-path="url(#clip1)" clip-rule="nonzero">
<path style=" stroke:none;fill-rule:nonzero;fill:rgb(39.99939%,39.99939%,39.99939%);fill-opacity:0.3;" d="M 230.625 -32.949219 L 239.9375 -21.796875 L 256.917969 8.191406 L 258.195312 7.539062 L 259.328125 6.960938 L 242.238281 -23.21875 L 232.613281 -34.9375 L 235.183594 -37.503906 L 241.269531 -45.320312 L 256.597656 -64.671875 L 387.210938 -18.203125 L 382.703125 -11.128906 L 377.929688 -6.015625 L 369.890625 4.035156 L 369.890625 7.050781 L 348.785156 40.21875 L 341.625 52.273438 L 334.074219 54.507812 L 326.476562 66.394531 L 306.652344 95.808594 L 275.914062 56.632812 L 291.003906 44.175781 L 289.839844 43.417969 L 288.679688 42.660156 L 272.015625 56.753906 L 304.835938 97.828125 L 298.277344 104.464844 L 287.699219 109.933594 L 278.585938 114.222656 L 270.59375 114.339844 L 260.789062 111.578125 L 250.3125 108.496094 L 243.8125 84.421875 L 263.183594 79.492188 L 262.613281 78.417969 L 262.042969 77.347656 L 242.527344 82.441406 L 227.910156 38.632812 L 226.421875 39.171875 L 224.753906 39.816406 L 240.714844 84.273438 L 247.792969 109.410156 L 235.757812 107.675781 L 231.648438 107.417969 L 226.164062 106.550781 L 212.09375 108.5625 L 207.703125 111.488281 L 202.71875 113.148438 L 193.054688 92.671875 L 165.792969 38.183594 L 171.558594 19 L 162.242188 -1.890625 L 179.925781 -7.367188 L 208.773438 -17.550781 L 224.574219 -26.90625 Z M 230.625 -32.949219 "/>
</g>
<path style=" stroke:none;fill-rule:nonzero;fill:rgb(39.99939%,39.99939%,39.99939%);fill-opacity:0.3;" d="M -16.789062 35.761719 L -18.035156 36.539062 L -19.351562 37.363281 L -1.730469 64.3125 L -18.558594 72.6875 L -42.460938 80.984375 L -58.417969 53.671875 L -55.253906 52.277344 L -69.238281 -25.101562 L -68.277344 -24.871094 L -56.511719 -26.953125 L -39.585938 -32.839844 L -29.207031 -34.480469 L -13.886719 -33.71875 L 2.113281 -33.4375 L 18.789062 -36.871094 L 38.179688 -43.859375 L 49.96875 -51.351562 L 60.332031 -61.222656 L 64.585938 -73.664062 L 81.960938 -74.882812 L 86.6875 -85.101562 L 103.289062 -87.773438 L 127.238281 -89.085938 L 137.460938 -73.160156 L 150.910156 -49.695312 L 162.195312 -30.191406 L 174.089844 -11.417969 L 139.074219 0.695312 L 128.824219 -24.578125 L 127.230469 -23.875 L 125.1875 -22.976562 L 135.15625 3.050781 L 91.507812 21.613281 L 64.683594 32.105469 L 16.445312 55.933594 L 0.828125 63.132812 Z M -16.789062 35.761719 "/>
<path style=" stroke:none;fill-rule:nonzero;fill:rgb(39.99939%,39.99939%,39.99939%);fill-opacity:0.3;" d="M 218.492188 168.253906 L 226.226562 171.851562 L 239.765625 184.09375 L 245.007812 198.378906 L 248.335938 208.582031 L 251.777344 220.40625 L 256.195312 229.339844 L 261.015625 237.316406 L 267.394531 246.980469 L 252.339844 250.699219 L 222.210938 254.15625 L 199.371094 254.40625 Z M 218.492188 168.253906 "/>
<path style=" stroke:none;fill-rule:nonzero;fill:rgb(39.99939%,39.99939%,39.99939%);fill-opacity:0.3;" d="M 167.496094 168.386719 L 187.832031 164.152344 L 205.910156 169.003906 L 189.605469 253.988281 L 168.511719 256.148438 L 149.863281 256.675781 Z M 167.496094 168.386719 "/>
<path style=" stroke:none;fill-rule:nonzero;fill:rgb(39.99939%,39.99939%,39.99939%);fill-opacity:0.3;" d="M 201.085938 115.375 L 201.757812 116.71875 L 196.277344 121.78125 L 191.246094 125.101562 L 183.066406 126.039062 L 176.496094 125.445312 L 168.429688 126.527344 L 160.136719 126.335938 L 152.070312 126.570312 L 146.246094 127.222656 L 140.421875 128.515625 L 134.925781 130.277344 L 129.898438 133.003906 L 126.097656 136.199219 L 122.917969 137.167969 L 113.773438 138.144531 L 101.257812 136.097656 L 80.925781 153.5 L 79.683594 152.203125 L 84.449219 146.753906 L 91.484375 141.730469 L 100.53125 135.699219 L 113.597656 133.6875 L 118.621094 133.6875 L 132.691406 129.667969 L 149.78125 121.628906 L 168.875 124.644531 L 182.945312 122.632812 Z M 201.085938 115.375 "/>
<path style=" stroke:none;fill-rule:nonzero;fill:rgb(39.99939%,39.99939%,39.99939%);fill-opacity:0.3;" d="M 76.808594 155.433594 L 77.0625 155.707031 L 73.273438 159.167969 Z M 76.808594 155.433594 "/>
<path style=" stroke:none;fill-rule:nonzero;fill:rgb(39.99939%,39.99939%,39.99939%);fill-opacity:0.3;" d="M 69.59375 170.550781 L 89.28125 153.6875 L 103.933594 139.367188 L 113.53125 140.691406 L 124.648438 140.796875 L 131.578125 139.046875 L 136.152344 135.9375 L 140.59375 133.078125 L 144.648438 130.835938 L 148.4375 129.214844 L 153.671875 129.457031 L 160.082031 129.199219 L 167.527344 128.847656 L 174.601562 128.183594 L 179.832031 128.296875 L 187.421875 127.542969 L 196.574219 125.167969 L 203.496094 119.078125 L 215.210938 113.378906 L 227.15625 111.273438 L 239.277344 111.671875 L 251.367188 113.636719 L 260.339844 116.992188 L 266.0625 120.816406 L 268.9375 123.953125 L 272.433594 132.847656 L 272.476562 133.519531 L 272.398438 134.695312 L 272.707031 137.003906 L 272.808594 138.5625 L 273.664062 144.179688 L 274.410156 149.769531 L 274.5625 150.101562 L 274.867188 152.085938 L 276.980469 164.375 L 280.355469 175.609375 L 282.96875 184.324219 L 285.734375 193.007812 L 289.539062 204.183594 L 293.621094 216.332031 L 300.203125 234.371094 L 300.019531 261.613281 L 299.234375 262.738281 L 297.453125 262.863281 L 278.722656 244.40625 L 264.378906 225.027344 L 257.359375 208.054688 L 251.953125 195.582031 L 252.667969 188.40625 L 236.835938 173.210938 L 217.488281 159.851562 L 198.753906 155.824219 L 187.214844 156.496094 L 168.601562 161.972656 L 151.347656 163.300781 L 124.941406 165.929688 L 97.988281 168.085938 Z M 69.59375 170.550781 "/>
<path style=" stroke:none;fill-rule:nonzero;fill:rgb(39.99939%,39.99939%,39.99939%);fill-opacity:0.3;" d="M 291.242188 184.695312 L 291.535156 190.28125 L 289.640625 190.191406 L 286.179688 181.316406 L 285.515625 178.96875 Z M 291.242188 184.695312 "/>
<path style=" stroke:none;fill-rule:nonzero;fill:rgb(39.99939%,39.99939%,39.99939%);fill-opacity:0.3;" d="M 161.558594 168.726562 L 140.640625 260.042969 L 118.75 262.367188 L 95.652344 262.738281 L 97.160156 245.96875 L 93.613281 246.351562 L 91.398438 266.007812 L 118.96875 266.105469 L 145.148438 264.84375 L 171.503906 264.96875 L 195.835938 264.0625 L 221.839844 262.238281 L 253.8125 260.214844 L 278.902344 256.542969 L 290.589844 268.152344 L 299.214844 281 L 308.570312 297.207031 L 308.5 298.976562 L 268.378906 308.570312 L 118.621094 302.539062 L 85.453125 294.5 L 69.929688 286.074219 L 65.113281 281.800781 L 66.875 254.34375 L 67.628906 239.542969 L 68.777344 220.757812 L 68.515625 206.3125 L 67.523438 205.789062 L 62.386719 185.804688 L 63.265625 179.378906 L 80.488281 178.019531 L 102.980469 173.8125 L 130.292969 171.347656 Z M 161.558594 168.726562 "/>
<path style=" stroke:none;fill-rule:nonzero;fill:rgb(39.99939%,39.99939%,39.99939%);fill-opacity:0.3;" d="M 61.367188 247.304688 L 60.949219 252.332031 L 58.960938 277.648438 L 52.976562 273.324219 L 51.429688 272.488281 Z M 61.367188 247.304688 "/>
<path style=" stroke:none;fill-rule:nonzero;fill:rgb(39.99939%,39.99939%,39.99939%);fill-opacity:0.3;" d="M 231.648438 107.417969 L 225.476562 107.027344 L 215.292969 108.960938 L 207.703125 111.488281 L 212.09375 108.5625 L 226.164062 106.550781 Z M 231.648438 107.417969 "/>
<path style="fill-rule:nonzero;fill:rgb(39.99939%,39.99939%,39.99939%);fill-opacity:1;stroke-width:0.03;stroke-linecap:square;stroke-linejoin:miter;stroke:rgb(39.99939%,39.99939%,39.99939%);stroke-opacity:1;stroke-miterlimit:3.239307;" d="M 292.492188 181.253906 L 300.226562 184.851562 L 313.765625 197.09375 L 319.007812 211.378906 L 322.335938 221.582031 L 325.777344 233.40625 L 330.195312 242.339844 L 335.015625 250.316406 L 341.394531 259.980469 L 326.339844 263.699219 L 296.210938 267.15625 L 273.371094 267.40625 Z M 292.492188 181.253906 " transform="matrix(1,0,0,1,-74,-13)"/>
<path style="fill-rule:nonzero;fill:rgb(39.99939%,39.99939%,39.99939%);fill-opacity:1;stroke-width:0.03;stroke-linecap:square;stroke-linejoin:miter;stroke:rgb(39.99939%,39.99939%,39.99939%);stroke-opacity:1;stroke-miterlimit:3.239307;" d="M 241.496094 181.386719 L 261.832031 177.152344 L 279.910156 182.003906 L 263.605469 266.988281 L 242.511719 269.148438 L 223.863281 269.675781 Z M 241.496094 181.386719 " transform="matrix(1,0,0,1,-74,-13)"/>
<path style="fill-rule:nonzero;fill:rgb(39.99939%,39.99939%,39.99939%);fill-opacity:1;stroke-width:0.03;stroke-linecap:square;stroke-linejoin:miter;stroke:rgb(39.99939%,39.99939%,39.99939%);stroke-opacity:1;stroke-miterlimit:3.239307;" d="M 275.085938 128.375 L 275.757812 129.71875 L 270.277344 134.78125 L 265.246094 138.101562 L 257.066406 139.039062 L 250.496094 138.445312 L 242.429688 139.527344 L 234.136719 139.335938 L 226.070312 139.570312 L 220.246094 140.222656 L 214.421875 141.515625 L 208.925781 143.277344 L 203.898438 146.003906 L 200.097656 149.199219 L 196.917969 150.167969 L 187.773438 151.144531 L 175.257812 149.097656 L 154.925781 166.5 L 153.683594 165.203125 L 158.449219 159.753906 L 165.484375 154.730469 L 174.53125 148.699219 L 187.597656 146.6875 L 192.621094 146.6875 L 206.691406 142.667969 L 223.78125 134.628906 L 242.875 137.644531 L 256.945312 135.632812 Z M 275.085938 128.375 " transform="matrix(1,0,0,1,-74,-13)"/>
<path style="fill-rule:nonzero;fill:rgb(39.99939%,39.99939%,39.99939%);fill-opacity:1;stroke-width:0.03;stroke-linecap:square;stroke-linejoin:miter;stroke:rgb(39.99939%,39.99939%,39.99939%);stroke-opacity:1;stroke-miterlimit:3.239307;" d="M 150.808594 168.433594 L 151.0625 168.707031 L 147.273438 172.167969 Z M 150.808594 168.433594 " transform="matrix(1,0,0,1,-74,-13)"/>
<path style="fill-rule:nonzero;fill:rgb(39.99939%,39.99939%,39.99939%);fill-opacity:1;stroke-width:0.03;stroke-linecap:square;stroke-linejoin:miter;stroke:rgb(39.99939%,39.99939%,39.99939%);stroke-opacity:1;stroke-miterlimit:3.239307;" d="M 143.59375 183.550781 L 163.28125 166.6875 L 177.933594 152.367188 L 187.53125 153.691406 L 198.648438 153.796875 L 205.578125 152.046875 L 210.152344 148.9375 L 214.59375 146.078125 L 218.648438 143.835938 L 222.4375 142.214844 L 227.671875 142.457031 L 234.082031 142.199219 L 241.527344 141.847656 L 248.601562 141.183594 L 253.832031 141.296875 L 261.421875 140.542969 L 270.574219 138.167969 L 277.496094 132.078125 L 289.210938 126.378906 L 301.15625 124.273438 L 313.277344 124.671875 L 325.367188 126.636719 L 334.339844 129.992188 L 340.0625 133.816406 L 342.9375 136.953125 L 346.433594 145.847656 L 346.476562 146.519531 L 346.398438 147.695312 L 346.707031 150.003906 L 346.808594 151.5625 L 347.664062 157.179688 L 348.410156 162.769531 L 348.5625 163.101562 L 348.867188 165.085938 L 350.980469 177.375 L 354.355469 188.609375 L 356.96875 197.324219 L 359.734375 206.007812 L 363.539062 217.183594 L 367.621094 229.332031 L 374.203125 247.371094 L 374.019531 274.613281 L 373.234375 275.738281 L 371.453125 275.863281 L 352.722656 257.40625 L 338.378906 238.027344 L 331.359375 221.054688 L 325.953125 208.582031 L 326.667969 201.40625 L 310.835938 186.210938 L 291.488281 172.851562 L 272.753906 168.824219 L 261.214844 169.496094 L 242.601562 174.972656 L 225.347656 176.300781 L 198.941406 178.929688 L 171.988281 181.085938 Z M 143.59375 183.550781 " transform="matrix(1,0,0,1,-74,-13)"/>
<path style="fill-rule:nonzero;fill:rgb(39.99939%,39.99939%,39.99939%);fill-opacity:1;stroke-width:0.03;stroke-linecap:square;stroke-linejoin:miter;stroke:rgb(39.99939%,39.99939%,39.99939%);stroke-opacity:1;stroke-miterlimit:3.239307;" d="M 365.242188 197.695312 L 365.535156 203.28125 L 363.640625 203.191406 L 360.179688 194.316406 L 359.515625 191.96875 Z M 365.242188 197.695312 " transform="matrix(1,0,0,1,-74,-13)"/>
<path style="fill-rule:nonzero;fill:rgb(39.99939%,39.99939%,39.99939%);fill-opacity:1;stroke-width:0.03;stroke-linecap:square;stroke-linejoin:miter;stroke:rgb(39.99939%,39.99939%,39.99939%);stroke-opacity:1;stroke-miterlimit:3.239307;" d="M 235.558594 181.726562 L 214.640625 273.042969 L 192.75 275.367188 L 169.652344 275.738281 L 171.160156 258.96875 L 167.613281 259.351562 L 165.398438 279.007812 L 192.96875 279.105469 L 219.148438 277.84375 L 245.503906 277.96875 L 269.835938 277.0625 L 295.839844 275.238281 L 327.8125 273.214844 L 352.902344 269.542969 L 364.589844 281.152344 L 373.214844 294 L 382.570312 310.207031 L 382.5 311.976562 L 342.378906 321.570312 L 192.621094 315.539062 L 159.453125 307.5 L 143.929688 299.074219 L 139.113281 294.800781 L 140.875 267.34375 L 141.628906 252.542969 L 142.777344 233.757812 L 142.515625 219.3125 L 141.523438 218.789062 L 136.386719 198.804688 L 137.265625 192.378906 L 154.488281 191.019531 L 176.980469 186.8125 L 204.292969 184.347656 Z M 235.558594 181.726562 " transform="matrix(1,0,0,1,-74,-13)"/>
<path style="fill-rule:nonzero;fill:rgb(39.99939%,39.99939%,39.99939%);fill-opacity:1;stroke-width:0.03;stroke-linecap:square;stroke-linejoin:miter;stroke:rgb(39.99939%,39.99939%,39.99939%);stroke-opacity:1;stroke-miterlimit:3.239307;" d="M 135.367188 260.304688 L 134.949219 265.332031 L 132.960938 290.648438 L 126.976562 286.324219 L 125.429688 285.488281 Z M 135.367188 260.304688 " transform="matrix(1,0,0,1,-74,-13)"/>
<path style="fill-rule:nonzero;fill:rgb(39.99939%,39.99939%,39.99939%);fill-opacity:1;stroke-width:0.03;stroke-linecap:square;stroke-linejoin:miter;stroke:rgb(39.99939%,39.99939%,39.99939%);stroke-opacity:1;stroke-miterlimit:3.239307;" d="M 305.648438 120.417969 L 299.476562 120.027344 L 289.292969 121.960938 L 281.703125 124.488281 L 286.09375 121.5625 L 300.164062 119.550781 Z M 305.648438 120.417969 " transform="matrix(1,0,0,1,-74,-13)"/>
</g>
</svg>
