<?xml version="1.0" encoding="UTF-8"?>
<svg xmlns="http://www.w3.org/2000/svg" xmlns:xlink="http://www.w3.org/1999/xlink" width="361pt" height="361pt" viewBox="0 0 361 361" version="1.1">
<defs>
<clipPath id="clip1">
  <path d="M 0 309 L 100 309 L 100 360 L 0 360 Z M 0 309 "/>
</clipPath>
<clipPath id="clip2">
  <path d="M 100 331 L 161 331 L 161 360 L 100 360 Z M 100 331 "/>
</clipPath>
<clipPath id="clip3">
  <path d="M 48 339 L 86 339 L 86 360 L 48 360 Z M 48 339 "/>
</clipPath>
<clipPath id="clip4">
  <path d="M 0 355 L 89 355 L 89 360 L 0 360 Z M 0 355 "/>
</clipPath>
<clipPath id="clip5">
  <path d="M 81 319 L 115 319 L 115 360 L 81 360 Z M 81 319 "/>
</clipPath>
<clipPath id="clip6">
  <path d="M 356 154 L 360 154 L 360 156 L 356 156 Z M 356 154 "/>
</clipPath>
<clipPath id="clip7">
  <path d="M 320 151 L 360 151 L 360 212 L 320 212 Z M 320 151 "/>
</clipPath>
<clipPath id="clip8">
  <path d="M 339 0 L 360 0 L 360 155 L 339 155 Z M 339 0 "/>
</clipPath>
<clipPath id="clip9">
  <path d="M 229 348 L 243 348 L 243 360 L 229 360 Z M 229 348 "/>
</clipPath>
<clipPath id="clip10">
  <path d="M 119 312 L 236 312 L 236 360 L 119 360 Z M 119 312 "/>
</clipPath>
<clipPath id="clip11">
  <path d="M 248 352 L 297 352 L 297 360 L 248 360 Z M 248 352 "/>
</clipPath>
<clipPath id="clip12">
  <path d="M 298 325 L 323 325 L 323 360 L 298 360 Z M 298 325 "/>
</clipPath>
<clipPath id="clip13">
  <path d="M 324 330 L 347 330 L 347 360 L 324 360 Z M 324 330 "/>
</clipPath>
<clipPath id="clip14">
  <path d="M 348 334 L 360 334 L 360 360 L 348 360 Z M 348 334 "/>
</clipPath>
<clipPath id="clip15">
  <path d="M 349 323 L 360 323 L 360 330 L 349 330 Z M 349 323 "/>
</clipPath>
<clipPath id="clip16">
  <path d="M 350 218 L 360 218 L 360 287 L 350 287 Z M 350 218 "/>
</clipPath>
<clipPath id="clip17">
  <path d="M 349 290 L 360 290 L 360 328 L 349 328 Z M 349 290 "/>
</clipPath>
<clipPath id="clip18">
  <path d="M 226 336 L 284 336 L 284 360 L 226 360 Z M 226 336 "/>
</clipPath>
<clipPath id="clip19">
  <path d="M 225 334 L 285 334 L 285 360 L 225 360 Z M 225 334 "/>
</clipPath>
<clipPath id="clip20">
  <path d="M 0 339 L 39 339 L 39 360 L 0 360 Z M 0 339 "/>
</clipPath>
<clipPath id="clip21">
  <path d="M 0 337 L 40 337 L 40 360 L 0 360 Z M 0 337 "/>
</clipPath>
<clipPath id="clip22">
  <path d="M 331 260 L 360 260 L 360 310 L 331 310 Z M 331 260 "/>
</clipPath>
<clipPath id="clip23">
  <path d="M 330 259 L 360 259 L 360 312 L 330 312 Z M 330 259 "/>
</clipPath>
<clipPath id="clip24">
  <path d="M 125 336 L 183 336 L 183 360 L 125 360 Z M 125 336 "/>
</clipPath>
<clipPath id="clip25">
  <path d="M 124 334 L 184 334 L 184 360 L 124 360 Z M 124 334 "/>
</clipPath>
<clipPath id="clip26">
  <path d="M 145 339 L 202 339 L 202 360 L 145 360 Z M 145 339 "/>
</clipPath>
<clipPath id="clip27">
  <path d="M 143 337 L 204 337 L 204 360 L 143 360 Z M 143 337 "/>
</clipPath>
</defs>
<g id="surface532">
<path style="fill-rule:nonzero;fill:rgb(0%,0%,0%);fill-opacity:1;stroke-width:0.03;stroke-linecap:square;stroke-linejoin:miter;stroke:rgb(0%,0%,0%);stroke-opacity:1;stroke-miterlimit:10;" d="M 0 178 L 360 178 L 360 -182 L 0 -182 Z M 0 178 " transform="matrix(1,0,0,1,0,182)"/>
<path style=" stroke:none;fill-rule:nonzero;fill:rgb(39.99939%,39.99939%,39.99939%);fill-opacity:0.3;" d="M -17.933594 99.949219 L 28.753906 193.667969 L -87.128906 182.472656 L -50.296875 138.414062 Z M -17.933594 99.949219 "/>
<g clip-path="url(#clip1)" clip-rule="nonzero">
<path style=" stroke:none;fill-rule:nonzero;fill:rgb(39.99939%,39.99939%,39.99939%);fill-opacity:0.3;" d="M -19.671875 337.226562 L 68.132812 313.625 L 77.664062 311.1875 L 81.914062 310.207031 L 88.78125 309.550781 L 92.851562 309.183594 L 99.101562 315.539062 L 97.617188 318.503906 L 84.191406 322.089844 L 80.828125 325.457031 L 77.625 329.214844 L 72.554688 335.605469 L 68.296875 339.261719 L 64.644531 342.320312 L 58.375 345.585938 L 52.417969 347.859375 L 46.949219 352.554688 L -2.78125 371.046875 Z M -19.671875 337.226562 "/>
</g>
<g clip-path="url(#clip2)" clip-rule="nonzero">
<path style=" stroke:none;fill-rule:nonzero;fill:rgb(39.99939%,39.99939%,39.99939%);fill-opacity:0.3;" d="M 116.078125 331.515625 L 142.695312 355.835938 L 160.886719 370.40625 L 100.394531 378.199219 Z M 116.078125 331.515625 "/>
</g>
<g clip-path="url(#clip3)" clip-rule="nonzero">
<path style=" stroke:none;fill-rule:nonzero;fill:rgb(39.99939%,39.99939%,39.99939%);fill-opacity:0.3;" d="M 48.121094 354.105469 L 85.046875 339.574219 L 80.082031 379.558594 Z M 48.121094 354.105469 "/>
</g>
<g clip-path="url(#clip4)" clip-rule="nonzero">
<path style=" stroke:none;fill-rule:nonzero;fill:rgb(39.99939%,39.99939%,39.99939%);fill-opacity:0.3;" d="M 46.507812 355.109375 L 88.5625 388.242188 L 89 389.921875 L 87.691406 392.058594 L 80.871094 393.097656 L 75.339844 394.085938 L 70.097656 394.785156 L 65.636719 395.144531 L 63.664062 394.953125 L 61.632812 393.90625 L 60.371094 391.3125 L 60.671875 388.621094 L 61.570312 384.902344 L 62.210938 380.699219 L 60.730469 377.878906 L 57.988281 376.847656 L 53.421875 377.863281 L 47.132812 380.855469 L 27.46875 389.480469 L 9.84375 397.652344 L -0.71875 404.824219 L -8.441406 411.828125 L -17.855469 419.878906 L -20.539062 417.203125 L -24.9375 413.796875 L -30.269531 413.699219 L -34.253906 413.972656 L -37.027344 413.597656 L -38.898438 411.640625 L -48.058594 390.484375 L -4.695312 373.84375 Z M 46.507812 355.109375 "/>
</g>
<g clip-path="url(#clip5)" clip-rule="nonzero">
<path style=" stroke:none;fill-rule:nonzero;fill:rgb(39.99939%,39.99939%,39.99939%);fill-opacity:0.3;" d="M 92.535156 389.742188 L 81.703125 380.589844 L 86.828125 339.660156 L 85.816406 334.128906 L 83.539062 326.757812 L 85.148438 323.875 L 102.816406 319.539062 L 114.761719 330.417969 L 105.339844 358.621094 L 95.917969 386.820312 Z M 92.535156 389.742188 "/>
</g>
<path style=" stroke:none;fill-rule:nonzero;fill:rgb(39.99939%,39.99939%,39.99939%);fill-opacity:0.3;" d="M 354.542969 159.933594 L 356.769531 159.984375 L 348.652344 167.476562 L 332.851562 183.113281 L 326.117188 191.984375 L 317.449219 205.265625 L 316.355469 205.015625 L 329.503906 185.921875 L 339.644531 175.128906 Z M 354.542969 159.933594 "/>
<g clip-path="url(#clip6)" clip-rule="nonzero">
<path style=" stroke:none;fill-rule:nonzero;fill:rgb(39.99939%,39.99939%,39.99939%);fill-opacity:0.3;" d="M 361.976562 154.425781 L 361.179688 155.007812 L 356.597656 154.832031 L 356.648438 154.195312 Z M 361.976562 154.425781 "/>
</g>
<g clip-path="url(#clip7)" clip-rule="nonzero">
<path style=" stroke:none;fill-rule:nonzero;fill:rgb(39.99939%,39.99939%,39.99939%);fill-opacity:0.3;" d="M 360.269531 160.183594 L 434.335938 162.367188 L 446.625 160.320312 L 457.980469 156.707031 L 472.496094 151.046875 L 470.347656 211.902344 L 410.894531 208.808594 L 348.304688 207.078125 L 322.246094 206.113281 L 320.679688 203.964844 L 327.59375 193.6875 L 334.566406 184.519531 L 350.207031 168.765625 Z M 360.269531 160.183594 "/>
</g>
<path style=" stroke:none;fill-rule:nonzero;fill:rgb(39.99939%,39.99939%,39.99939%);fill-opacity:0.3;" d="M 286.199219 -68.246094 L 337.035156 -39.195312 L 340.40625 -36.945312 L 337.679688 10.941406 L 337.65625 11.535156 L 322.484375 11.109375 L 273.652344 8.992188 L 258.796875 8.351562 L 261.492188 -44.296875 L 269.101562 -51.183594 L 273.523438 -57.964844 Z M 286.199219 -68.246094 "/>
<path style=" stroke:none;fill-rule:nonzero;fill:rgb(39.99939%,39.99939%,39.99939%);fill-opacity:0.3;" d="M 123.8125 48.609375 L 94.589844 47.730469 L 94.292969 45.871094 L 123.90625 32.019531 Z M 123.8125 48.609375 "/>
<path style=" stroke:none;fill-rule:nonzero;fill:rgb(39.99939%,39.99939%,39.99939%);fill-opacity:0.3;" d="M 93.238281 50.070312 L 107.089844 50.609375 L 104.953125 99.382812 L 90.800781 98.175781 Z M 93.238281 50.070312 "/>
<path style=" stroke:none;fill-rule:nonzero;fill:rgb(39.99939%,39.99939%,39.99939%);fill-opacity:0.3;" d="M 108.78125 50.554688 L 123.839844 51.160156 L 121.421875 101.183594 L 107.207031 99.929688 Z M 108.78125 50.554688 "/>
<path style=" stroke:none;fill-rule:nonzero;fill:rgb(39.99939%,39.99939%,39.99939%);fill-opacity:0.3;" d="M 88.519531 48.519531 L 86.449219 98 L 73.855469 97.003906 L 74.148438 54.980469 Z M 88.519531 48.519531 "/>
<path style=" stroke:none;fill-rule:nonzero;fill:rgb(39.99939%,39.99939%,39.99939%);fill-opacity:0.3;" d="M 72.285156 55.6875 L 71.863281 96.816406 L 57.058594 95.910156 L 57.71875 62.613281 Z M 72.285156 55.6875 "/>
<path style=" stroke:none;fill-rule:nonzero;fill:rgb(39.99939%,39.99939%,39.99939%);fill-opacity:0.3;" d="M 129.164062 51.683594 L 145.003906 52.277344 L 141.113281 107.398438 L 126.183594 102.304688 Z M 129.164062 51.683594 "/>
<path style=" stroke:none;fill-rule:nonzero;fill:rgb(39.99939%,39.99939%,39.99939%);fill-opacity:0.3;" d="M 165.734375 89.503906 L 181.546875 90.203125 L 179.683594 122.03125 L 164.308594 116.363281 Z M 165.734375 89.503906 "/>
<path style=" stroke:none;fill-rule:nonzero;fill:rgb(39.99939%,39.99939%,39.99939%);fill-opacity:0.3;" d="M 185.648438 90.601562 L 200.472656 91.042969 L 199.3125 129.585938 L 184.691406 123.703125 Z M 185.648438 90.601562 "/>
<path style=" stroke:none;fill-rule:nonzero;fill:rgb(39.99939%,39.99939%,39.99939%);fill-opacity:0.3;" d="M 201.78125 91.125 L 216.390625 91.769531 L 213.777344 135.382812 L 200.632812 130.152344 Z M 201.78125 91.125 "/>
<path style=" stroke:none;fill-rule:nonzero;fill:rgb(39.99939%,39.99939%,39.99939%);fill-opacity:0.3;" d="M 220.898438 91.957031 L 234.578125 92.820312 L 233.253906 132.230469 L 230.851562 134.253906 L 230.558594 141.226562 L 218.644531 136.929688 Z M 220.898438 91.957031 "/>
<path style=" stroke:none;fill-rule:nonzero;fill:rgb(39.99939%,39.99939%,39.99939%);fill-opacity:0.3;" d="M 235.867188 92.886719 L 252.214844 93.390625 L 248.855469 148.402344 L 232.015625 141.765625 L 232.28125 134.929688 L 234.960938 133.203125 Z M 235.867188 92.886719 "/>
<path style=" stroke:none;fill-rule:nonzero;fill:rgb(39.99939%,39.99939%,39.99939%);fill-opacity:0.3;" d="M 218.476562 143.441406 L 232.351562 148.433594 L 230.980469 173.882812 L 217.796875 171.429688 Z M 218.476562 143.441406 "/>
<path style=" stroke:none;fill-rule:nonzero;fill:rgb(39.99939%,39.99939%,39.99939%);fill-opacity:0.3;" d="M 184.550781 131.144531 L 198.300781 136.136719 L 197.660156 167.28125 L 183.445312 164.769531 Z M 184.550781 131.144531 "/>
<path style=" stroke:none;fill-rule:nonzero;fill:rgb(39.99939%,39.99939%,39.99939%);fill-opacity:0.3;" d="M 217.871094 173.410156 L 230.988281 175.703125 L 229.902344 201.957031 L 229.421875 201.949219 L 217.0625 201.410156 Z M 217.871094 173.410156 "/>
<path style=" stroke:none;fill-rule:nonzero;fill:rgb(39.99939%,39.99939%,39.99939%);fill-opacity:0.3;" d="M 213.980469 141.980469 L 213.234375 170.402344 L 199.121094 167.574219 L 200.101562 136.746094 Z M 213.980469 141.980469 "/>
<path style=" stroke:none;fill-rule:nonzero;fill:rgb(39.99939%,39.99939%,39.99939%);fill-opacity:0.3;" d="M 234.023438 149.164062 L 248.285156 154.398438 L 247.921875 177.644531 L 232.710938 174.269531 Z M 234.023438 149.164062 "/>
<path style=" stroke:none;fill-rule:nonzero;fill:rgb(39.99939%,39.99939%,39.99939%);fill-opacity:0.3;" d="M 199.171875 169.53125 L 213.40625 172.175781 L 212.453125 201.292969 L 210.964844 201.292969 L 198.738281 200.617188 Z M 199.171875 169.53125 "/>
<path style=" stroke:none;fill-rule:nonzero;fill:rgb(39.99939%,39.99939%,39.99939%);fill-opacity:0.3;" d="M 183.246094 166.542969 L 197.867188 169 L 196.875 200.527344 L 182.179688 199.996094 Z M 183.246094 166.542969 "/>
<path style=" stroke:none;fill-rule:nonzero;fill:rgb(39.99939%,39.99939%,39.99939%);fill-opacity:0.3;" d="M 146.164062 88.660156 L 162.234375 89.414062 L 160.675781 115.210938 L 144.550781 108.925781 Z M 146.164062 88.660156 "/>
<path style=" stroke:none;fill-rule:nonzero;fill:rgb(39.99939%,39.99939%,39.99939%);fill-opacity:0.3;" d="M 140.398438 31.464844 L 141.332031 31.71875 L 142.28125 31.929688 L 143.238281 32.089844 L 145.5 32.46875 L 145.128906 49.738281 L 129.089844 49.25 L 129.429688 29.601562 L 133.550781 27.308594 L 134.429688 28.445312 L 135.203125 29 L 136.007812 29.515625 L 136.84375 29.992188 L 137.699219 30.425781 L 138.582031 30.816406 L 139.480469 31.164062 Z M 140.398438 31.464844 "/>
<path style=" stroke:none;fill-rule:nonzero;fill:rgb(39.99939%,39.99939%,39.99939%);fill-opacity:0.3;" d="M 148.707031 52.367188 L 183.285156 53.269531 L 181.5625 88.644531 L 146.242188 86.722656 Z M 148.707031 52.367188 "/>
<path style=" stroke:none;fill-rule:nonzero;fill:rgb(39.99939%,39.99939%,39.99939%);fill-opacity:0.3;" d="M 187.0625 53.753906 L 201.898438 54.417969 L 200.480469 89.476562 L 185.609375 89.03125 Z M 187.0625 53.753906 "/>
<path style=" stroke:none;fill-rule:nonzero;fill:rgb(39.99939%,39.99939%,39.99939%);fill-opacity:0.3;" d="M 224.332031 23.640625 L 237.089844 24.078125 L 236.199219 53.191406 L 223.027344 52.40625 Z M 224.332031 23.640625 "/>
<path style=" stroke:none;fill-rule:nonzero;fill:rgb(39.99939%,39.99939%,39.99939%);fill-opacity:0.3;" d="M 188.71875 22.417969 L 203.8125 22.890625 L 202.171875 51.707031 L 187.171875 50.960938 Z M 188.71875 22.417969 "/>
<path style=" stroke:none;fill-rule:nonzero;fill:rgb(39.99939%,39.99939%,39.99939%);fill-opacity:0.3;" d="M 170.820312 21.492188 L 185.160156 22.296875 L 183.695312 50.816406 L 167.039062 50.0625 L 167.613281 23.421875 Z M 170.820312 21.492188 "/>
<path style=" stroke:none;fill-rule:nonzero;fill:rgb(39.99939%,39.99939%,39.99939%);fill-opacity:0.3;" d="M 164.9375 25.15625 L 163.957031 49.941406 L 148.84375 49.890625 L 148.808594 32.546875 L 156.628906 29.808594 Z M 164.9375 25.15625 "/>
<path style=" stroke:none;fill-rule:nonzero;fill:rgb(39.99939%,39.99939%,39.99939%);fill-opacity:0.3;" d="M 203.632812 54.5625 L 218.234375 55.199219 L 216.371094 90.199219 L 201.707031 89.523438 Z M 203.632812 54.5625 "/>
<path style=" stroke:none;fill-rule:nonzero;fill:rgb(39.99939%,39.99939%,39.99939%);fill-opacity:0.3;" d="M 222.957031 55.421875 L 236.121094 56.09375 L 234.742188 91.113281 L 221.007812 90.328125 Z M 222.957031 55.421875 "/>
<path style=" stroke:none;fill-rule:nonzero;fill:rgb(39.99939%,39.99939%,39.99939%);fill-opacity:0.3;" d="M 237.855469 56.226562 L 253.160156 57.09375 L 252.011719 91.582031 L 236.09375 91.179688 Z M 237.855469 56.226562 "/>
<path style=" stroke:none;fill-rule:nonzero;fill:rgb(39.99939%,39.99939%,39.99939%);fill-opacity:0.3;" d="M 238.992188 24.144531 L 254.234375 24.667969 L 253.523438 54.261719 L 237.945312 53.300781 Z M 238.992188 24.144531 "/>
<path style=" stroke:none;fill-rule:nonzero;fill:rgb(39.99939%,39.99939%,39.99939%);fill-opacity:0.3;" d="M 205.675781 23 L 219.671875 23.660156 L 218.234375 52.589844 L 203.65625 51.925781 Z M 205.675781 23 "/>
<path style=" stroke:none;fill-rule:nonzero;fill:rgb(39.99939%,39.99939%,39.99939%);fill-opacity:0.3;" d="M 251.691406 156.652344 L 266.015625 157.234375 L 265.558594 191.121094 L 265.140625 202.796875 L 256.246094 202.625 L 249.402344 202.394531 Z M 251.691406 156.652344 "/>
<path style=" stroke:none;fill-rule:nonzero;fill:rgb(39.99939%,39.99939%,39.99939%);fill-opacity:0.3;" d="M 255.507812 73.222656 L 334.90625 76.792969 L 332.148438 152.425781 L 331.316406 153.765625 L 254.070312 150.785156 L 251.792969 147.765625 Z M 255.507812 73.222656 "/>
<path style=" stroke:none;fill-rule:nonzero;fill:rgb(39.99939%,39.99939%,39.99939%);fill-opacity:0.3;" d="M 322.769531 13.195312 L 337.566406 13.589844 L 335.0625 72.429688 L 335 74.144531 L 322.164062 73.65625 Z M 322.769531 13.195312 "/>
<path style=" stroke:none;fill-rule:nonzero;fill:rgb(39.99939%,39.99939%,39.99939%);fill-opacity:0.3;" d="M 307.828125 12.613281 L 320.972656 13.125 L 320.554688 73.578125 L 305.417969 72.839844 Z M 307.828125 12.613281 "/>
<path style=" stroke:none;fill-rule:nonzero;fill:rgb(39.99939%,39.99939%,39.99939%);fill-opacity:0.3;" d="M 290.941406 11.960938 L 306.03125 12.546875 L 303.800781 72.660156 L 289.152344 72.066406 Z M 290.941406 11.960938 "/>
<path style=" stroke:none;fill-rule:nonzero;fill:rgb(39.99939%,39.99939%,39.99939%);fill-opacity:0.3;" d="M 274.871094 11.339844 L 289.476562 11.90625 L 287.320312 71.964844 L 272.566406 71.144531 Z M 274.871094 11.339844 "/>
<path style=" stroke:none;fill-rule:nonzero;fill:rgb(39.99939%,39.99939%,39.99939%);fill-opacity:0.3;" d="M 258.78125 10.71875 L 273.246094 11.277344 L 270.628906 70.941406 L 255.769531 70.324219 Z M 258.78125 10.71875 "/>
<path style=" stroke:none;fill-rule:nonzero;fill:rgb(39.99939%,39.99939%,39.99939%);fill-opacity:0.3;" d="M 54.113281 95.820312 L 21.765625 93.019531 L 6.363281 91.683594 L 5.089844 90.996094 L 4.359375 87.734375 L 21.1875 79.59375 L 43.121094 68.988281 L 55.546875 62.980469 Z M 54.113281 95.820312 "/>
<path style=" stroke:none;fill-rule:nonzero;fill:rgb(39.99939%,39.99939%,39.99939%);fill-opacity:0.3;" d="M 232.476562 176.058594 L 247.550781 179.410156 L 246.417969 202.296875 L 245.773438 202.273438 L 231.574219 201.992188 Z M 232.476562 176.058594 "/>
<path style=" stroke:none;fill-rule:nonzero;fill:rgb(39.99939%,39.99939%,39.99939%);fill-opacity:0.3;" d="M 94.707031 18.09375 L 130.136719 18.917969 L 130.328125 21.6875 L 93.941406 38.621094 Z M 94.707031 18.09375 "/>
<path style=" stroke:none;fill-rule:nonzero;fill:rgb(39.99939%,39.99939%,39.99939%);fill-opacity:0.3;" d="M 75.96875 17.160156 L 89.6875 17.832031 L 89.085938 40.773438 L 75.113281 47.007812 Z M 75.96875 17.160156 "/>
<path style=" stroke:none;fill-rule:nonzero;fill:rgb(39.99939%,39.99939%,39.99939%);fill-opacity:0.3;" d="M 59.476562 16.59375 L 74.390625 17.117188 L 73.4375 47.746094 L 58.589844 54.496094 L 58.679688 48.800781 Z M 59.476562 16.59375 "/>
<path style=" stroke:none;fill-rule:nonzero;fill:rgb(39.99939%,39.99939%,39.99939%);fill-opacity:0.3;" d="M -63.53125 12.472656 L 56.894531 16.507812 L 55.707031 55.703125 L -7.488281 84.921875 L -11.851562 83.199219 L -18.753906 82.164062 L -44.660156 51.839844 Z M -63.53125 12.472656 "/>
<path style=" stroke:none;fill-rule:nonzero;fill:rgb(39.99939%,39.99939%,39.99939%);fill-opacity:0.3;" d="M 169.488281 5.160156 L 169.785156 5.71875 L 170.546875 8.1875 L 170.753906 10.355469 L 170.597656 12.277344 L 170.125 14.152344 L 169.023438 16.5 L 167.871094 18.089844 L 165.921875 20.0625 L 162.816406 22.667969 L 159.4375 24.949219 L 155.828125 26.886719 L 152.023438 28.453125 L 149.386719 29.253906 L 146.832031 29.523438 L 144.273438 29.285156 L 141.820312 28.550781 L 139.582031 27.347656 L 139.414062 27.210938 L 142.75 28.601562 L 146.019531 28.929688 L 149.289062 28.601562 L 154.195312 26.96875 L 161.390625 22.714844 L 164.335938 19.773438 L 165.316406 18.789062 L 167.933594 15.847656 L 169.242188 13.230469 L 169.894531 7.996094 Z M 169.488281 5.160156 "/>
<path style=" stroke:none;fill-rule:nonzero;fill:rgb(39.99939%,39.99939%,39.99939%);fill-opacity:0.3;" d="M 173.761719 4.902344 L 252.152344 -46.601562 L 253.644531 -47.234375 L 255.851562 -47.171875 L 257.40625 -46.371094 L 258.269531 -45.414062 L 258.578125 -44.746094 L 254.933594 17.175781 L 254.199219 18.914062 L 252.730469 19.605469 L 173.488281 15.871094 Z M 173.761719 4.902344 "/>
<path style=" stroke:none;fill-rule:nonzero;fill:rgb(39.99939%,39.99939%,39.99939%);fill-opacity:0.3;" d="M 43.171875 188.898438 L 23.214844 150.335938 L -2.917969 104.472656 L 2.0625 97.910156 L 68.753906 102.691406 L 122.578125 106.425781 L 179.257812 128.34375 L 179.046875 138.121094 L 176.15625 199.65625 L 148.792969 198.546875 L 130.972656 197.367188 L 94.996094 196.058594 L 87.355469 196.058594 L 53.695312 194.699219 L 48.472656 192.238281 Z M 43.171875 188.898438 "/>
<path style=" stroke:none;fill-rule:nonzero;fill:rgb(39.99939%,39.99939%,39.99939%);fill-opacity:0.3;" d="M -56.851562 -22.261719 L 9.128906 -54.960938 L 6.789062 -42.109375 L 14.515625 -23.722656 L 29.742188 9.824219 L -63.347656 7.0625 L -61.324219 -12.394531 Z M -56.851562 -22.261719 "/>
<path style=" stroke:none;fill-rule:nonzero;fill:rgb(39.99939%,39.99939%,39.99939%);fill-opacity:0.3;" d="M 46.152344 -0.527344 L 46.144531 3.640625 L 31.273438 2.894531 L 31.207031 -1.097656 Z M 46.152344 -0.527344 "/>
<path style=" stroke:none;fill-rule:nonzero;fill:rgb(39.99939%,39.99939%,39.99939%);fill-opacity:0.3;" d="M 49.253906 5.652344 L 49.261719 9.429688 L 32.921875 8.558594 L 33.066406 4.914062 Z M 49.253906 5.652344 "/>
<path style=" stroke:none;fill-rule:nonzero;fill:rgb(39.99939%,39.99939%,39.99939%);fill-opacity:0.3;" d="M 56.296875 -10.355469 L 61.753906 -10.03125 L 60.875 7.03125 L 55.4375 6.792969 Z M 56.296875 -10.355469 "/>
<path style=" stroke:none;fill-rule:nonzero;fill:rgb(39.99939%,39.99939%,39.99939%);fill-opacity:0.3;" d="M 63.253906 -10.121094 L 68.644531 -10.152344 L 67.589844 7.035156 L 62.324219 6.863281 Z M 63.253906 -10.121094 "/>
<path style=" stroke:none;fill-rule:nonzero;fill:rgb(39.99939%,39.99939%,39.99939%);fill-opacity:0.3;" d="M 75.195312 -9.761719 L 74.550781 7.257812 L 69.402344 6.867188 L 69.726562 -9.945312 Z M 75.195312 -9.761719 "/>
<path style=" stroke:none;fill-rule:nonzero;fill:rgb(39.99939%,39.99939%,39.99939%);fill-opacity:0.3;" d="M 76.808594 -9.085938 L 81.949219 -8.984375 L 81.566406 7.730469 L 76.128906 7.320312 Z M 76.808594 -9.085938 "/>
<path style=" stroke:none;fill-rule:nonzero;fill:rgb(39.99939%,39.99939%,39.99939%);fill-opacity:0.3;" d="M 83.703125 -9.25 L 89.035156 -9.058594 L 88.472656 8.421875 L 83.382812 8.246094 Z M 83.703125 -9.25 "/>
<path style=" stroke:none;fill-rule:nonzero;fill:rgb(39.99939%,39.99939%,39.99939%);fill-opacity:0.3;" d="M 96.292969 -1 L 107.546875 -0.652344 L 107.371094 3.292969 L 96.304688 3.117188 Z M 96.292969 -1 "/>
<path style=" stroke:none;fill-rule:nonzero;fill:rgb(39.99939%,39.99939%,39.99939%);fill-opacity:0.3;" d="M 95.761719 5.175781 L 107.539062 5.503906 L 107.441406 9.628906 L 95.773438 9.292969 Z M 95.761719 5.175781 "/>
<path style=" stroke:none;fill-rule:nonzero;fill:rgb(39.99939%,39.99939%,39.99939%);fill-opacity:0.3;" d="M 109.347656 -5.96875 L 115.699219 -5.964844 L 115.730469 9.472656 L 109.570312 9.527344 Z M 109.347656 -5.96875 "/>
<path style=" stroke:none;fill-rule:nonzero;fill:rgb(39.99939%,39.99939%,39.99939%);fill-opacity:0.3;" d="M 126.398438 -9.386719 L 132.75 -9.382812 L 132.78125 6.050781 L 126.296875 6 Z M 126.398438 -9.386719 "/>
<path style=" stroke:none;fill-rule:nonzero;fill:rgb(39.99939%,39.99939%,39.99939%);fill-opacity:0.3;" d="M 117.878906 -6.136719 L 124.226562 -6.132812 L 124.222656 9.507812 L 117.910156 9.472656 Z M 117.878906 -6.136719 "/>
<path style=" stroke:none;fill-rule:nonzero;fill:rgb(39.99939%,39.99939%,39.99939%);fill-opacity:0.3;" d="M 154.785156 -1.625 L 158.15625 -1.9375 L 160.847656 -1.585938 L 163.40625 -0.714844 L 165.714844 0.644531 L 167.679688 2.425781 L 168.871094 3.992188 L 169.488281 5.160156 L 169.894531 7.996094 L 169.242188 13.230469 L 167.933594 15.847656 L 165.316406 18.789062 L 164.335938 19.773438 L 161.390625 22.714844 L 154.195312 26.96875 L 149.289062 28.601562 L 146.019531 28.929688 L 142.75 28.601562 L 139.414062 27.210938 L 138.101562 26.167969 L 136.835938 24.789062 L 135.8125 23.234375 L 134.867188 20.96875 L 134.445312 18.566406 L 134.554688 16.136719 L 135.199219 13.78125 L 137.449219 10.589844 L 140 7.691406 L 144.386719 3.863281 L 149.355469 0.730469 Z M 154.785156 -1.625 "/>
<path style=" stroke:none;fill-rule:nonzero;fill:rgb(39.99939%,39.99939%,39.99939%);fill-opacity:0.3;" d="M 340.40625 -36.945312 L 341.914062 -35.941406 L 339.679688 11.589844 L 337.65625 11.535156 L 337.679688 10.941406 Z M 340.40625 -36.945312 "/>
<path style=" stroke:none;fill-rule:nonzero;fill:rgb(39.99939%,39.99939%,39.99939%);fill-opacity:0.3;" d="M 268.132812 157.203125 L 330.960938 159.40625 L 329.40625 167.660156 L 326.28125 177.457031 L 323.273438 184.863281 L 309.203125 205.277344 L 308.570312 205.21875 L 266.28125 202.976562 Z M 268.132812 157.203125 "/>
<path style=" stroke:none;fill-rule:nonzero;fill:rgb(39.99939%,39.99939%,39.99939%);fill-opacity:0.3;" d="M 333.0625 159.453125 L 354.542969 159.933594 L 339.644531 175.128906 L 329.503906 185.921875 L 316.355469 205.015625 L 313.394531 204.34375 L 325.445312 185.578125 L 328.792969 177.882812 L 331.710938 167.886719 Z M 333.0625 159.453125 "/>
<path style=" stroke:none;fill-rule:nonzero;fill:rgb(39.99939%,39.99939%,39.99939%);fill-opacity:0.3;" d="M 266.015625 157.234375 L 266.773438 157.261719 L 265.558594 191.121094 Z M 266.015625 157.234375 "/>
<path style=" stroke:none;fill-rule:nonzero;fill:rgb(39.99939%,39.99939%,39.99939%);fill-opacity:0.3;" d="M 334.90625 76.792969 L 337.132812 76.894531 L 332.9375 151.152344 L 332.148438 152.425781 Z M 334.90625 76.792969 "/>
<path style=" stroke:none;fill-rule:nonzero;fill:rgb(39.99939%,39.99939%,39.99939%);fill-opacity:0.3;" d="M 337.566406 13.589844 L 339.734375 13.644531 L 337.222656 74.230469 L 335 74.144531 L 335.0625 72.429688 Z M 337.566406 13.589844 "/>
<g clip-path="url(#clip8)" clip-rule="nonzero">
<path style=" stroke:none;fill-rule:nonzero;fill:rgb(39.99939%,39.99939%,39.99939%);fill-opacity:0.3;" d="M 392.902344 -27.636719 L 393.976562 -28.25 L 395.015625 -28.917969 L 395.867188 -29.519531 L 413.066406 -21.855469 L 409.675781 58.527344 L 408.03125 112.046875 L 405.9375 128.9375 L 384.703125 138.632812 L 376.015625 144.121094 L 361.976562 154.425781 L 356.648438 154.195312 L 356.597656 154.832031 L 339.796875 154.191406 L 343.90625 65.503906 L 347.902344 -20.636719 L 349.050781 -44.78125 L 351.714844 -44.699219 L 353.40625 -41.878906 L 355.75 -38.746094 L 357.878906 -36.328125 L 360.171875 -34.167969 L 362.042969 -32.535156 L 363.996094 -30.921875 L 365.960938 -29.527344 L 367.558594 -28.507812 L 369.59375 -27.589844 L 371.675781 -26.773438 L 373.796875 -26.058594 L 375.960938 -25.453125 L 378.148438 -24.953125 L 379.601562 -24.683594 L 380.859375 -24.648438 L 382.117188 -24.671875 L 383.375 -24.761719 L 384.625 -24.910156 L 385.863281 -25.121094 L 387.089844 -25.394531 L 388.300781 -25.726562 L 389.488281 -26.117188 L 390.652344 -26.566406 L 391.792969 -27.074219 Z M 392.902344 -27.636719 "/>
</g>
<path style=" stroke:none;fill-rule:nonzero;fill:rgb(39.99939%,39.99939%,39.99939%);fill-opacity:0.3;" d="M 122.375 261.640625 L 146.894531 265.523438 L 146.753906 299.941406 L 144.695312 302.050781 L 144.382812 302.03125 L 120.582031 300.542969 Z M 122.375 261.640625 "/>
<path style=" stroke:none;fill-rule:nonzero;fill:rgb(39.99939%,39.99939%,39.99939%);fill-opacity:0.3;" d="M 98.992188 298.472656 L 81.433594 269.605469 L 99.011719 256.535156 L 119.820312 260.707031 L 118.011719 300.375 Z M 98.992188 298.472656 "/>
<path style=" stroke:none;fill-rule:nonzero;fill:rgb(39.99939%,39.99939%,39.99939%);fill-opacity:0.3;" d="M 229.902344 201.957031 L 229.898438 202.117188 L 217.0625 201.5 L 217.0625 201.410156 L 229.421875 201.949219 Z M 229.902344 201.957031 "/>
<path style=" stroke:none;fill-rule:nonzero;fill:rgb(39.99939%,39.99939%,39.99939%);fill-opacity:0.3;" d="M 212.453125 201.292969 L 212.453125 201.375 L 210.964844 201.292969 Z M 212.453125 201.292969 "/>
<path style=" stroke:none;fill-rule:nonzero;fill:rgb(39.99939%,39.99939%,39.99939%);fill-opacity:0.3;" d="M 275.21875 280.75 L 244.914062 276.730469 L 249.953125 212.90625 L 300.539062 215.386719 L 300.914062 215.53125 L 301.472656 215.890625 L 301.785156 216.304688 L 302.015625 216.785156 L 302.144531 217.25 L 302.167969 217.46875 Z M 275.21875 280.75 "/>
<path style=" stroke:none;fill-rule:nonzero;fill:rgb(39.99939%,39.99939%,39.99939%);fill-opacity:0.3;" d="M 93.914062 205.664062 L 94.285156 252.59375 L 78.621094 263.597656 L 51.429688 205.648438 Z M 93.914062 205.664062 "/>
<path style=" stroke:none;fill-rule:nonzero;fill:rgb(39.99939%,39.99939%,39.99939%);fill-opacity:0.3;" d="M 120.320312 255.246094 L 96.585938 250.898438 L 96.410156 205.734375 L 122.957031 206.964844 Z M 120.320312 255.246094 "/>
<path style=" stroke:none;fill-rule:nonzero;fill:rgb(39.99939%,39.99939%,39.99939%);fill-opacity:0.3;" d="M 147.722656 259.761719 L 123.394531 255.6875 L 126.390625 207.253906 L 150.464844 208.144531 Z M 147.722656 259.761719 "/>
<path style=" stroke:none;fill-rule:nonzero;fill:rgb(39.99939%,39.99939%,39.99939%);fill-opacity:0.3;" d="M 150.15625 260.011719 L 152.960938 208.222656 L 177.492188 209.195312 L 177.136719 264.28125 L 164.578125 262.238281 Z M 150.15625 260.011719 "/>
<path style=" stroke:none;fill-rule:nonzero;fill:rgb(39.99939%,39.99939%,39.99939%);fill-opacity:0.3;" d="M 201.285156 210.109375 L 198.421875 267.828125 L 179.1875 264.472656 L 179.953125 209.449219 Z M 201.285156 210.109375 "/>
<path style=" stroke:none;fill-rule:nonzero;fill:rgb(39.99939%,39.99939%,39.99939%);fill-opacity:0.3;" d="M 203.214844 210.257812 L 223.25 211.253906 L 219.34375 270.933594 L 200.390625 267.964844 Z M 203.214844 210.257812 "/>
<path style=" stroke:none;fill-rule:nonzero;fill:rgb(39.99939%,39.99939%,39.99939%);fill-opacity:0.3;" d="M 225.175781 211.339844 L 244.988281 212.621094 L 239.175781 274.558594 L 221.21875 271.265625 Z M 225.175781 211.339844 "/>
<path style=" stroke:none;fill-rule:nonzero;fill:rgb(39.99939%,39.99939%,39.99939%);fill-opacity:0.3;" d="M 243.574219 282.875 L 272.667969 286.769531 L 264.417969 308.570312 L 242.429688 307.125 Z M 243.574219 282.875 "/>
<path style=" stroke:none;fill-rule:nonzero;fill:rgb(39.99939%,39.99939%,39.99939%);fill-opacity:0.3;" d="M 221.484375 277.152344 L 239.011719 280.285156 L 237.65625 304.320312 L 235.617188 307.261719 L 230.222656 307.0625 L 219.855469 306.5625 Z M 221.484375 277.152344 "/>
<path style=" stroke:none;fill-rule:nonzero;fill:rgb(39.99939%,39.99939%,39.99939%);fill-opacity:0.3;" d="M 200.011719 273.765625 L 219.425781 276.785156 L 217.511719 306.457031 L 197.003906 305.097656 Z M 200.011719 273.765625 "/>
<path style=" stroke:none;fill-rule:nonzero;fill:rgb(39.99939%,39.99939%,39.99939%);fill-opacity:0.3;" d="M 179.441406 270.085938 L 198.132812 273.28125 L 194.910156 304.945312 L 181.097656 304.289062 L 175.984375 303.902344 Z M 179.441406 270.085938 "/>
<path style=" stroke:none;fill-rule:nonzero;fill:rgb(39.99939%,39.99939%,39.99939%);fill-opacity:0.3;" d="M 149.203125 265.847656 L 177.40625 269.632812 L 173.800781 303.679688 L 165.738281 303.417969 L 153.542969 302.683594 L 149.039062 302.363281 Z M 149.203125 265.847656 "/>
<path style=" stroke:none;fill-rule:nonzero;fill:rgb(39.99939%,39.99939%,39.99939%);fill-opacity:0.3;" d="M 308.527344 205.28125 L 266.277344 203.105469 L 266.28125 202.976562 L 308.570312 205.21875 Z M 308.527344 205.28125 "/>
<path style=" stroke:none;fill-rule:nonzero;fill:rgb(39.99939%,39.99939%,39.99939%);fill-opacity:0.3;" d="M 256.246094 202.625 L 249.398438 202.488281 L 249.402344 202.394531 Z M 256.246094 202.625 "/>
<path style=" stroke:none;fill-rule:nonzero;fill:rgb(39.99939%,39.99939%,39.99939%);fill-opacity:0.3;" d="M 246.417969 202.296875 L 246.410156 202.449219 L 231.570312 202.117188 L 231.574219 201.992188 L 245.773438 202.273438 Z M 246.417969 202.296875 "/>
<path style=" stroke:none;fill-rule:nonzero;fill:rgb(39.99939%,39.99939%,39.99939%);fill-opacity:0.3;" d="M 148.792969 198.546875 L 98.8125 196.523438 L 87.355469 196.058594 L 94.996094 196.058594 L 130.972656 197.367188 Z M 148.792969 198.546875 "/>
<path style=" stroke:none;fill-rule:nonzero;fill:rgb(39.99939%,39.99939%,39.99939%);fill-opacity:0.3;" d="M 144.695312 302.050781 L 143.902344 302.867188 L 120.554688 301.179688 L 120.582031 300.542969 L 144.382812 302.03125 Z M 144.695312 302.050781 "/>
<path style=" stroke:none;fill-rule:nonzero;fill:rgb(39.99939%,39.99939%,39.99939%);fill-opacity:0.3;" d="M 117.96875 301.265625 L 100.464844 300.890625 L 98.992188 298.472656 L 118.011719 300.375 Z M 117.96875 301.265625 "/>
<path style=" stroke:none;fill-rule:nonzero;fill:rgb(39.99939%,39.99939%,39.99939%);fill-opacity:0.3;" d="M 235.964844 343.3125 L 240.832031 344.066406 L 247.097656 344.648438 L 250.921875 344.605469 L 246.378906 354.972656 L 244.835938 354.769531 L 244.316406 350.398438 L 242.332031 348.566406 L 236.339844 346.691406 Z M 235.964844 343.3125 "/>
<g clip-path="url(#clip9)" clip-rule="nonzero">
<path style=" stroke:none;fill-rule:nonzero;fill:rgb(39.99939%,39.99939%,39.99939%);fill-opacity:0.3;" d="M 229.914062 362.863281 L 236.054688 348.449219 L 241.429688 350.222656 L 242.804688 351.59375 L 242.957031 354.777344 L 241.332031 359.101562 L 238.726562 366.011719 Z M 229.914062 362.863281 "/>
</g>
<path style=" stroke:none;fill-rule:nonzero;fill:rgb(39.99939%,39.99939%,39.99939%);fill-opacity:0.3;" d="M 109.339844 313.128906 L 111.109375 311.585938 L 119.300781 311.347656 L 129.386719 311.824219 L 118.582031 322.933594 Z M 109.339844 313.128906 "/>
<path style=" stroke:none;fill-rule:nonzero;fill:rgb(39.99939%,39.99939%,39.99939%);fill-opacity:0.3;" d="M 238.457031 317.667969 L 260.933594 319.1875 L 251.539062 342.398438 L 246.734375 343.101562 L 241.78125 342.679688 L 235.503906 341.703125 L 236.839844 336.28125 L 238.0625 325.453125 Z M 238.457031 317.667969 "/>
<path style=" stroke:none;fill-rule:nonzero;fill:rgb(39.99939%,39.99939%,39.99939%);fill-opacity:0.3;" d="M 264.652344 308.605469 L 264.292969 309.453125 L 242.375 308.210938 L 242.429688 307.125 L 264.417969 308.570312 Z M 264.652344 308.605469 "/>
<path style=" stroke:none;fill-rule:nonzero;fill:rgb(39.99939%,39.99939%,39.99939%);fill-opacity:0.3;" d="M 235.617188 307.261719 L 235.574219 307.320312 L 230.222656 307.0625 Z M 235.617188 307.261719 "/>
<path style=" stroke:none;fill-rule:nonzero;fill:rgb(39.99939%,39.99939%,39.99939%);fill-opacity:0.3;" d="M 181.097656 304.289062 L 175.96875 304.046875 L 175.984375 303.902344 Z M 181.097656 304.289062 "/>
<path style=" stroke:none;fill-rule:nonzero;fill:rgb(39.99939%,39.99939%,39.99939%);fill-opacity:0.3;" d="M 165.738281 303.417969 L 149.039062 302.871094 L 149.039062 302.363281 L 153.542969 302.683594 Z M 165.738281 303.417969 "/>
<g clip-path="url(#clip10)" clip-rule="nonzero">
<path style=" stroke:none;fill-rule:nonzero;fill:rgb(39.99939%,39.99939%,39.99939%);fill-opacity:0.3;" d="M 132.089844 312.035156 L 173.683594 314.015625 L 173.027344 320.515625 L 160.3125 334.113281 L 160.980469 334.570312 L 161.785156 335.128906 L 175.089844 320.964844 L 175.570312 314.109375 L 235.402344 318.320312 L 235.519531 325.238281 L 234.152344 336.128906 L 231.664062 348.054688 L 229.28125 348.902344 L 224.476562 362.832031 L 215.679688 386.5 L 214.648438 388.160156 L 212.652344 389.292969 L 210.335938 389.824219 L 207.140625 389.527344 L 204.820312 388.703125 L 196.414062 384.347656 L 179.320312 373.921875 L 167.546875 364.933594 L 150.699219 350.921875 L 119.949219 324.125 Z M 132.089844 312.035156 "/>
</g>
<path style=" stroke:none;fill-rule:nonzero;fill:rgb(39.99939%,39.99939%,39.99939%);fill-opacity:0.3;" d="M 68.132812 313.625 L 91.140625 307.441406 L 92.851562 309.183594 L 88.78125 309.550781 L 81.914062 310.207031 L 77.664062 311.1875 Z M 68.132812 313.625 "/>
<path style=" stroke:none;fill-rule:nonzero;fill:rgb(39.99939%,39.99939%,39.99939%);fill-opacity:0.3;" d="M 37.917969 210.449219 L 66.921875 273.03125 L 74.898438 287.167969 L 88.683594 304.886719 L 80.132812 307.542969 L 77.171875 308.425781 L 40.746094 317.945312 L 0.398438 328.683594 L -21.886719 334.484375 L -31.714844 312.96875 L -37.796875 304.1875 L -45.835938 295.890625 L -52.996094 291.671875 L -68.582031 280.371094 L -86.648438 268.675781 L -97.636719 261.949219 L -133.132812 236.761719 L -111.1875 211.144531 L -91.980469 188.660156 L -66.332031 191.417969 L 0.398438 198.574219 L 13.292969 199.304688 L 26.019531 200.179688 L 26.324219 200.222656 L 26.625 200.277344 L 26.925781 200.347656 L 27.21875 200.433594 L 27.507812 200.535156 L 27.789062 200.652344 L 28.066406 200.777344 L 28.332031 200.921875 L 28.59375 201.074219 L 28.84375 201.242188 L 29.085938 201.425781 L 29.316406 201.617188 L 29.539062 201.820312 L 29.746094 202.03125 L 29.945312 202.257812 L 30.128906 202.488281 L 30.300781 202.730469 L 30.457031 202.980469 L 30.601562 203.238281 L 30.730469 203.503906 L 30.847656 203.773438 L 30.945312 204.050781 Z M 37.917969 210.449219 "/>
<g clip-path="url(#clip11)" clip-rule="nonzero">
<path style=" stroke:none;fill-rule:nonzero;fill:rgb(39.99939%,39.99939%,39.99939%);fill-opacity:0.3;" d="M 256.484375 352.027344 L 296.148438 360.574219 L 294.285156 395.054688 L 248.976562 373.152344 Z M 256.484375 352.027344 "/>
</g>
<path style=" stroke:none;fill-rule:nonzero;fill:rgb(39.99939%,39.99939%,39.99939%);fill-opacity:0.3;" d="M 297.371094 324.734375 L 296.273438 357.871094 L 257.757812 349.9375 L 270.46875 319.382812 Z M 297.371094 324.734375 "/>
<g clip-path="url(#clip12)" clip-rule="nonzero">
<path style=" stroke:none;fill-rule:nonzero;fill:rgb(39.99939%,39.99939%,39.99939%);fill-opacity:0.3;" d="M 322.816406 329.621094 L 321.554688 361.648438 L 298.042969 357.957031 L 299.324219 325.078125 Z M 322.816406 329.621094 "/>
</g>
<g clip-path="url(#clip13)" clip-rule="nonzero">
<path style=" stroke:none;fill-rule:nonzero;fill:rgb(39.99939%,39.99939%,39.99939%);fill-opacity:0.3;" d="M 346.574219 334.027344 L 345.445312 365.601562 L 324.035156 362.042969 L 325.164062 330.003906 Z M 346.574219 334.027344 "/>
</g>
<g clip-path="url(#clip14)" clip-rule="nonzero">
<path style=" stroke:none;fill-rule:nonzero;fill:rgb(39.99939%,39.99939%,39.99939%);fill-opacity:0.3;" d="M 348.957031 334.652344 L 370.578125 338.164062 L 369.566406 370.417969 L 348.050781 366.054688 Z M 348.957031 334.652344 "/>
</g>
<path style=" stroke:none;fill-rule:nonzero;fill:rgb(39.99939%,39.99939%,39.99939%);fill-opacity:0.3;" d="M 347.074219 322.679688 L 346.9375 325.441406 L 325.042969 321.289062 L 325.132812 319.164062 L 346.839844 322.636719 Z M 347.074219 322.679688 "/>
<path style=" stroke:none;fill-rule:nonzero;fill:rgb(39.99939%,39.99939%,39.99939%);fill-opacity:0.3;" d="M 297.613281 314.429688 L 297.558594 316.089844 L 274.191406 311.457031 L 274.617188 310.222656 Z M 297.613281 314.429688 "/>
<path style=" stroke:none;fill-rule:nonzero;fill:rgb(39.99939%,39.99939%,39.99939%);fill-opacity:0.3;" d="M 322.703125 318.773438 L 322.585938 321.035156 L 299.621094 316.371094 L 299.664062 314.785156 L 322.308594 318.710938 Z M 322.703125 318.773438 "/>
<g clip-path="url(#clip15)" clip-rule="nonzero">
<path style=" stroke:none;fill-rule:nonzero;fill:rgb(39.99939%,39.99939%,39.99939%);fill-opacity:0.3;" d="M 370.671875 327.082031 L 370.539062 329.019531 L 349.605469 325.582031 L 349.667969 323.164062 Z M 370.671875 327.082031 "/>
</g>
<path style=" stroke:none;fill-rule:nonzero;fill:rgb(39.99939%,39.99939%,39.99939%);fill-opacity:0.3;" d="M 302.101562 218.0625 L 276.191406 280.878906 L 275.21875 280.75 L 302.167969 217.46875 L 302.179688 217.589844 Z M 302.101562 218.0625 "/>
<path style=" stroke:none;fill-rule:nonzero;fill:rgb(39.99939%,39.99939%,39.99939%);fill-opacity:0.3;" d="M 272.667969 286.769531 L 273.789062 286.917969 L 264.652344 308.605469 L 264.417969 308.570312 Z M 272.667969 286.769531 "/>
<path style=" stroke:none;fill-rule:nonzero;fill:rgb(39.99939%,39.99939%,39.99939%);fill-opacity:0.3;" d="M 309.203125 205.277344 L 309.179688 205.3125 L 308.527344 205.28125 L 308.570312 205.21875 Z M 309.203125 205.277344 "/>
<path style=" stroke:none;fill-rule:nonzero;fill:rgb(39.99939%,39.99939%,39.99939%);fill-opacity:0.3;" d="M 348.304688 207.078125 L 322.429688 206.363281 L 322.246094 206.113281 Z M 348.304688 207.078125 "/>
<g clip-path="url(#clip16)" clip-rule="nonzero">
<path style=" stroke:none;fill-rule:nonzero;fill:rgb(39.99939%,39.99939%,39.99939%);fill-opacity:0.3;" d="M 376.34375 219.296875 L 373.523438 286.132812 L 350.25 285.386719 L 352.972656 218.976562 Z M 376.34375 219.296875 "/>
</g>
<path style=" stroke:none;fill-rule:nonzero;fill:rgb(39.99939%,39.99939%,39.99939%);fill-opacity:0.3;" d="M 327.929688 217.265625 L 324.027344 283.800781 L 286.359375 282.144531 L 312.261719 218.195312 L 315.800781 216.1875 Z M 327.929688 217.265625 "/>
<path style=" stroke:none;fill-rule:nonzero;fill:rgb(39.99939%,39.99939%,39.99939%);fill-opacity:0.3;" d="M 347.777344 279.125 L 345.730469 283.902344 L 339.65625 284.179688 L 326.582031 283.828125 L 330.480469 217.785156 L 349.953125 218.789062 Z M 347.777344 279.125 "/>
<path style=" stroke:none;fill-rule:nonzero;fill:rgb(39.99939%,39.99939%,39.99939%);fill-opacity:0.3;" d="M 326.386719 289.777344 L 348.664062 290.429688 L 347.074219 322.679688 L 346.839844 322.636719 L 325.132812 319.164062 Z M 326.386719 289.777344 "/>
<path style=" stroke:none;fill-rule:nonzero;fill:rgb(39.99939%,39.99939%,39.99939%);fill-opacity:0.3;" d="M 282.28125 288.136719 L 298.417969 288.703125 L 297.613281 314.429688 L 274.617188 310.222656 Z M 282.28125 288.136719 "/>
<path style=" stroke:none;fill-rule:nonzero;fill:rgb(39.99939%,39.99939%,39.99939%);fill-opacity:0.3;" d="M 300.347656 288.703125 L 324.207031 289.628906 L 322.703125 318.773438 L 322.308594 318.710938 L 299.664062 314.785156 Z M 300.347656 288.703125 "/>
<g clip-path="url(#clip17)" clip-rule="nonzero">
<path style=" stroke:none;fill-rule:nonzero;fill:rgb(39.99939%,39.99939%,39.99939%);fill-opacity:0.3;" d="M 350.558594 290.472656 L 373.078125 291.570312 L 370.671875 327.082031 L 349.667969 323.164062 Z M 350.558594 290.472656 "/>
</g>
<path style="fill-rule:nonzero;fill:rgb(39.99939%,39.99939%,39.99939%);fill-opacity:1;stroke-width:0.03;stroke-linecap:square;stroke-linejoin:miter;stroke:rgb(39.99939%,39.99939%,39.99939%);stroke-opacity:1;stroke-miterlimit:3.239307;" d="M 196.375 274.640625 L 220.894531 278.523438 L 220.753906 312.941406 L 218.695312 315.050781 L 218.382812 315.03125 L 194.582031 313.542969 Z M 196.375 274.640625 " transform="matrix(1,0,0,1,-74,-13)"/>
<path style="fill-rule:nonzero;fill:rgb(39.99939%,39.99939%,39.99939%);fill-opacity:1;stroke-width:0.03;stroke-linecap:square;stroke-linejoin:miter;stroke:rgb(39.99939%,39.99939%,39.99939%);stroke-opacity:1;stroke-miterlimit:3.239307;" d="M 172.992188 311.472656 L 155.433594 282.605469 L 173.011719 269.535156 L 193.820312 273.707031 L 192.011719 313.375 Z M 172.992188 311.472656 " transform="matrix(1,0,0,1,-74,-13)"/>
<path style="fill-rule:nonzero;fill:rgb(39.99939%,39.99939%,39.99939%);fill-opacity:1;stroke-width:0.03;stroke-linecap:square;stroke-linejoin:miter;stroke:rgb(39.99939%,39.99939%,39.99939%);stroke-opacity:1;stroke-miterlimit:3.239307;" d="M 303.902344 214.957031 L 303.898438 215.117188 L 291.0625 214.5 L 291.0625 214.410156 L 303.421875 214.949219 Z M 303.902344 214.957031 " transform="matrix(1,0,0,1,-74,-13)"/>
<path style="fill-rule:nonzero;fill:rgb(39.99939%,39.99939%,39.99939%);fill-opacity:1;stroke-width:0.03;stroke-linecap:square;stroke-linejoin:miter;stroke:rgb(39.99939%,39.99939%,39.99939%);stroke-opacity:1;stroke-miterlimit:3.239307;" d="M 286.453125 214.292969 L 286.453125 214.375 L 284.964844 214.292969 Z M 286.453125 214.292969 " transform="matrix(1,0,0,1,-74,-13)"/>
<path style="fill-rule:nonzero;fill:rgb(39.99939%,39.99939%,39.99939%);fill-opacity:1;stroke-width:0.03;stroke-linecap:square;stroke-linejoin:miter;stroke:rgb(39.99939%,39.99939%,39.99939%);stroke-opacity:1;stroke-miterlimit:3.239307;" d="M 349.21875 293.75 L 318.914062 289.730469 L 323.953125 225.90625 L 374.539062 228.386719 L 374.914062 228.53125 L 375.472656 228.890625 L 375.785156 229.304688 L 376.015625 229.785156 L 376.144531 230.25 L 376.167969 230.46875 Z M 349.21875 293.75 " transform="matrix(1,0,0,1,-74,-13)"/>
<path style="fill-rule:nonzero;fill:rgb(39.99939%,39.99939%,39.99939%);fill-opacity:1;stroke-width:0.03;stroke-linecap:square;stroke-linejoin:miter;stroke:rgb(39.99939%,39.99939%,39.99939%);stroke-opacity:1;stroke-miterlimit:3.239307;" d="M 167.914062 218.664062 L 168.285156 265.59375 L 152.621094 276.597656 L 125.429688 218.648438 Z M 167.914062 218.664062 " transform="matrix(1,0,0,1,-74,-13)"/>
<path style="fill-rule:nonzero;fill:rgb(39.99939%,39.99939%,39.99939%);fill-opacity:1;stroke-width:0.03;stroke-linecap:square;stroke-linejoin:miter;stroke:rgb(39.99939%,39.99939%,39.99939%);stroke-opacity:1;stroke-miterlimit:3.239307;" d="M 194.320312 268.246094 L 170.585938 263.898438 L 170.410156 218.734375 L 196.957031 219.964844 Z M 194.320312 268.246094 " transform="matrix(1,0,0,1,-74,-13)"/>
<path style="fill-rule:nonzero;fill:rgb(39.99939%,39.99939%,39.99939%);fill-opacity:1;stroke-width:0.03;stroke-linecap:square;stroke-linejoin:miter;stroke:rgb(39.99939%,39.99939%,39.99939%);stroke-opacity:1;stroke-miterlimit:3.239307;" d="M 221.722656 272.761719 L 197.394531 268.6875 L 200.390625 220.253906 L 224.464844 221.144531 Z M 221.722656 272.761719 " transform="matrix(1,0,0,1,-74,-13)"/>
<path style="fill-rule:nonzero;fill:rgb(39.99939%,39.99939%,39.99939%);fill-opacity:1;stroke-width:0.03;stroke-linecap:square;stroke-linejoin:miter;stroke:rgb(39.99939%,39.99939%,39.99939%);stroke-opacity:1;stroke-miterlimit:3.239307;" d="M 224.15625 273.011719 L 226.960938 221.222656 L 251.492188 222.195312 L 251.136719 277.28125 L 238.578125 275.238281 Z M 224.15625 273.011719 " transform="matrix(1,0,0,1,-74,-13)"/>
<path style="fill-rule:nonzero;fill:rgb(39.99939%,39.99939%,39.99939%);fill-opacity:1;stroke-width:0.03;stroke-linecap:square;stroke-linejoin:miter;stroke:rgb(39.99939%,39.99939%,39.99939%);stroke-opacity:1;stroke-miterlimit:3.239307;" d="M 275.285156 223.109375 L 272.421875 280.828125 L 253.1875 277.472656 L 253.953125 222.449219 Z M 275.285156 223.109375 " transform="matrix(1,0,0,1,-74,-13)"/>
<path style="fill-rule:nonzero;fill:rgb(39.99939%,39.99939%,39.99939%);fill-opacity:1;stroke-width:0.03;stroke-linecap:square;stroke-linejoin:miter;stroke:rgb(39.99939%,39.99939%,39.99939%);stroke-opacity:1;stroke-miterlimit:3.239307;" d="M 277.214844 223.257812 L 297.25 224.253906 L 293.34375 283.933594 L 274.390625 280.964844 Z M 277.214844 223.257812 " transform="matrix(1,0,0,1,-74,-13)"/>
<path style="fill-rule:nonzero;fill:rgb(39.99939%,39.99939%,39.99939%);fill-opacity:1;stroke-width:0.03;stroke-linecap:square;stroke-linejoin:miter;stroke:rgb(39.99939%,39.99939%,39.99939%);stroke-opacity:1;stroke-miterlimit:3.239307;" d="M 299.175781 224.339844 L 318.988281 225.621094 L 313.175781 287.558594 L 295.21875 284.265625 Z M 299.175781 224.339844 " transform="matrix(1,0,0,1,-74,-13)"/>
<path style="fill-rule:nonzero;fill:rgb(39.99939%,39.99939%,39.99939%);fill-opacity:1;stroke-width:0.03;stroke-linecap:square;stroke-linejoin:miter;stroke:rgb(39.99939%,39.99939%,39.99939%);stroke-opacity:1;stroke-miterlimit:3.239307;" d="M 317.574219 295.875 L 346.667969 299.769531 L 338.417969 321.570312 L 316.429688 320.125 Z M 317.574219 295.875 " transform="matrix(1,0,0,1,-74,-13)"/>
<path style="fill-rule:nonzero;fill:rgb(39.99939%,39.99939%,39.99939%);fill-opacity:1;stroke-width:0.03;stroke-linecap:square;stroke-linejoin:miter;stroke:rgb(39.99939%,39.99939%,39.99939%);stroke-opacity:1;stroke-miterlimit:3.239307;" d="M 295.484375 290.152344 L 313.011719 293.285156 L 311.65625 317.320312 L 309.617188 320.261719 L 304.222656 320.0625 L 293.855469 319.5625 Z M 295.484375 290.152344 " transform="matrix(1,0,0,1,-74,-13)"/>
<path style="fill-rule:nonzero;fill:rgb(39.99939%,39.99939%,39.99939%);fill-opacity:1;stroke-width:0.03;stroke-linecap:square;stroke-linejoin:miter;stroke:rgb(39.99939%,39.99939%,39.99939%);stroke-opacity:1;stroke-miterlimit:3.239307;" d="M 274.011719 286.765625 L 293.425781 289.785156 L 291.511719 319.457031 L 271.003906 318.097656 Z M 274.011719 286.765625 " transform="matrix(1,0,0,1,-74,-13)"/>
<path style="fill-rule:nonzero;fill:rgb(39.99939%,39.99939%,39.99939%);fill-opacity:1;stroke-width:0.03;stroke-linecap:square;stroke-linejoin:miter;stroke:rgb(39.99939%,39.99939%,39.99939%);stroke-opacity:1;stroke-miterlimit:3.239307;" d="M 253.441406 283.085938 L 272.132812 286.28125 L 268.910156 317.945312 L 255.097656 317.289062 L 249.984375 316.902344 Z M 253.441406 283.085938 " transform="matrix(1,0,0,1,-74,-13)"/>
<path style="fill-rule:nonzero;fill:rgb(39.99939%,39.99939%,39.99939%);fill-opacity:1;stroke-width:0.03;stroke-linecap:square;stroke-linejoin:miter;stroke:rgb(39.99939%,39.99939%,39.99939%);stroke-opacity:1;stroke-miterlimit:3.239307;" d="M 223.203125 278.847656 L 251.40625 282.632812 L 247.800781 316.679688 L 239.738281 316.417969 L 227.542969 315.683594 L 223.039062 315.363281 Z M 223.203125 278.847656 " transform="matrix(1,0,0,1,-74,-13)"/>
<path style="fill-rule:nonzero;fill:rgb(39.99939%,39.99939%,39.99939%);fill-opacity:1;stroke-width:0.03;stroke-linecap:square;stroke-linejoin:miter;stroke:rgb(39.99939%,39.99939%,39.99939%);stroke-opacity:1;stroke-miterlimit:3.239307;" d="M 382.527344 218.28125 L 340.277344 216.105469 L 340.28125 215.976562 L 382.570312 218.21875 Z M 382.527344 218.28125 " transform="matrix(1,0,0,1,-74,-13)"/>
<path style="fill-rule:nonzero;fill:rgb(39.99939%,39.99939%,39.99939%);fill-opacity:1;stroke-width:0.03;stroke-linecap:square;stroke-linejoin:miter;stroke:rgb(39.99939%,39.99939%,39.99939%);stroke-opacity:1;stroke-miterlimit:3.239307;" d="M 330.246094 215.625 L 323.398438 215.488281 L 323.402344 215.394531 Z M 330.246094 215.625 " transform="matrix(1,0,0,1,-74,-13)"/>
<path style="fill-rule:nonzero;fill:rgb(39.99939%,39.99939%,39.99939%);fill-opacity:1;stroke-width:0.03;stroke-linecap:square;stroke-linejoin:miter;stroke:rgb(39.99939%,39.99939%,39.99939%);stroke-opacity:1;stroke-miterlimit:3.239307;" d="M 320.417969 215.296875 L 320.410156 215.449219 L 305.570312 215.117188 L 305.574219 214.992188 L 319.773438 215.273438 Z M 320.417969 215.296875 " transform="matrix(1,0,0,1,-74,-13)"/>
<path style="fill-rule:nonzero;fill:rgb(39.99939%,39.99939%,39.99939%);fill-opacity:1;stroke-width:0.03;stroke-linecap:square;stroke-linejoin:miter;stroke:rgb(39.99939%,39.99939%,39.99939%);stroke-opacity:1;stroke-miterlimit:3.239307;" d="M 222.792969 211.546875 L 172.8125 209.523438 L 161.355469 209.058594 L 168.996094 209.058594 L 204.972656 210.367188 Z M 222.792969 211.546875 " transform="matrix(1,0,0,1,-74,-13)"/>
<path style=" stroke:none;fill-rule:evenodd;fill:rgb(85.096741%,85.096741%,81.959534%);fill-opacity:0.7;" d="M 252.082031 336 C 252.082031 332.53125 250.703125 329.203125 248.25 326.75 C 245.796875 324.296875 242.46875 322.917969 239 322.917969 C 235.53125 322.917969 232.203125 324.296875 229.75 326.75 C 227.296875 329.203125 225.917969 332.53125 225.917969 336 C 225.917969 339.46875 227.296875 342.796875 229.75 345.25 C 232.203125 347.703125 235.53125 349.082031 239 349.082031 C 242.46875 349.082031 245.796875 347.703125 248.25 345.25 C 250.703125 342.796875 252.082031 339.46875 252.082031 336 Z M 252.082031 336 "/>
<path style=" stroke:none;fill-rule:evenodd;fill:rgb(85.096741%,85.096741%,81.959534%);fill-opacity:0.7;" d="M 111.082031 325 C 111.082031 321.53125 109.703125 318.203125 107.25 315.75 C 104.796875 313.296875 101.46875 311.917969 98 311.917969 C 94.53125 311.917969 91.203125 313.296875 88.75 315.75 C 86.296875 318.203125 84.917969 321.53125 84.917969 325 C 84.917969 328.46875 86.296875 331.796875 88.75 334.25 C 91.203125 336.703125 94.53125 338.082031 98 338.082031 C 101.46875 338.082031 104.796875 336.703125 107.25 334.25 C 109.703125 331.796875 111.082031 328.46875 111.082031 325 Z M 111.082031 325 "/>
<path style=" stroke:none;fill-rule:evenodd;fill:rgb(85.096741%,85.096741%,81.959534%);fill-opacity:0.7;" d="M 165.082031 321 C 165.082031 317.53125 163.703125 314.203125 161.25 311.75 C 158.796875 309.296875 155.46875 307.917969 152 307.917969 C 148.53125 307.917969 145.203125 309.296875 142.75 311.75 C 140.296875 314.203125 138.917969 317.53125 138.917969 321 C 138.917969 324.46875 140.296875 327.796875 142.75 330.25 C 145.203125 332.703125 148.53125 334.082031 152 334.082031 C 155.46875 334.082031 158.796875 332.703125 161.25 330.25 C 163.703125 327.796875 165.082031 324.46875 165.082031 321 Z M 165.082031 321 "/>
<path style=" stroke:none;fill-rule:evenodd;fill:rgb(85.096741%,85.096741%,81.959534%);fill-opacity:0.7;" d="M 96.082031 220 C 96.082031 216.53125 94.703125 213.203125 92.25 210.75 C 89.796875 208.296875 86.46875 206.917969 83 206.917969 C 79.53125 206.917969 76.203125 208.296875 73.75 210.75 C 71.296875 213.203125 69.917969 216.53125 69.917969 220 C 69.917969 223.46875 71.296875 226.796875 73.75 229.25 C 76.203125 231.703125 79.53125 233.082031 83 233.082031 C 86.46875 233.082031 89.796875 231.703125 92.25 229.25 C 94.703125 226.796875 96.082031 223.46875 96.082031 220 Z M 96.082031 220 "/>
<path style=" stroke:none;fill-rule:evenodd;fill:rgb(85.096741%,85.096741%,81.959534%);fill-opacity:0.7;" d="M 243.082031 209 C 243.082031 205.53125 241.703125 202.203125 239.25 199.75 C 236.796875 197.296875 233.46875 195.917969 230 195.917969 C 226.53125 195.917969 223.203125 197.296875 220.75 199.75 C 218.296875 202.203125 216.917969 205.53125 216.917969 209 C 216.917969 212.46875 218.296875 215.796875 220.75 218.25 C 223.203125 220.703125 226.53125 222.082031 230 222.082031 C 233.46875 222.082031 236.796875 220.703125 239.25 218.25 C 241.703125 215.796875 243.082031 212.46875 243.082031 209 Z M 243.082031 209 "/>
<path style=" stroke:none;fill-rule:evenodd;fill:rgb(85.096741%,85.096741%,81.959534%);fill-opacity:0.7;" d="M 14.082031 23 C 14.082031 19.53125 12.703125 16.203125 10.25 13.75 C 7.796875 11.296875 4.46875 9.917969 1 9.917969 C -2.46875 9.917969 -5.796875 11.296875 -8.25 13.75 C -10.703125 16.203125 -12.082031 19.53125 -12.082031 23 C -12.082031 26.46875 -10.703125 29.796875 -8.25 32.25 C -5.796875 34.703125 -2.46875 36.082031 1 36.082031 C 4.46875 36.082031 7.796875 34.703125 10.25 32.25 C 12.703125 29.796875 14.082031 26.46875 14.082031 23 Z M 14.082031 23 "/>
<path style=" stroke:none;fill-rule:evenodd;fill:rgb(85.096741%,85.096741%,81.959534%);fill-opacity:0.7;" d="M 16.082031 20 C 16.082031 16.53125 14.703125 13.203125 12.25 10.75 C 9.796875 8.296875 6.46875 6.917969 3 6.917969 C -0.46875 6.917969 -3.796875 8.296875 -6.25 10.75 C -8.703125 13.203125 -10.082031 16.53125 -10.082031 20 C -10.082031 23.46875 -8.703125 26.796875 -6.25 29.25 C -3.796875 31.703125 -0.46875 33.082031 3 33.082031 C 6.46875 33.082031 9.796875 31.703125 12.25 29.25 C 14.703125 26.796875 16.082031 23.46875 16.082031 20 Z M 16.082031 20 "/>
<path style=" stroke:none;fill-rule:evenodd;fill:rgb(85.096741%,85.096741%,81.959534%);fill-opacity:0.7;" d="M 265.082031 317 C 265.082031 313.53125 263.703125 310.203125 261.25 307.75 C 258.796875 305.296875 255.46875 303.917969 252 303.917969 C 248.53125 303.917969 245.203125 305.296875 242.75 307.75 C 240.296875 310.203125 238.917969 313.53125 238.917969 317 C 238.917969 320.46875 240.296875 323.796875 242.75 326.25 C 245.203125 328.703125 248.53125 330.082031 252 330.082031 C 255.46875 330.082031 258.796875 328.703125 261.25 326.25 C 263.703125 323.796875 265.082031 320.46875 265.082031 317 Z M 265.082031 317 "/>
<path style=" stroke:none;fill-rule:evenodd;fill:rgb(85.096741%,85.096741%,81.959534%);fill-opacity:0.7;" d="M 322.082031 289 C 322.082031 285.53125 320.703125 282.203125 318.25 279.75 C 315.796875 277.296875 312.46875 275.917969 309 275.917969 C 305.53125 275.917969 302.203125 277.296875 299.75 279.75 C 297.296875 282.203125 295.917969 285.53125 295.917969 289 C 295.917969 292.46875 297.296875 295.796875 299.75 298.25 C 302.203125 300.703125 305.53125 302.082031 309 302.082031 C 312.46875 302.082031 315.796875 300.703125 318.25 298.25 C 320.703125 295.796875 322.082031 292.46875 322.082031 289 Z M 322.082031 289 "/>
<g clip-path="url(#clip18)" clip-rule="nonzero">
<path style=" stroke:none;fill-rule:nonzero;fill:rgb(99.998474%,99.998474%,30.587769%);fill-opacity:0.8;" d="M 255.257812 336.046875 L 226.933594 385.105469 L 283.585938 385.105469 Z M 255.257812 336.046875 "/>
</g>
<g clip-path="url(#clip19)" clip-rule="nonzero">
<path style="fill:none;stroke-width:0.288;stroke-linecap:square;stroke-linejoin:miter;stroke:rgb(0%,0%,0%);stroke-opacity:0.8;stroke-miterlimit:3.25;" d="M 329.257812 349.046875 L 300.933594 398.105469 L 357.585938 398.105469 Z M 329.257812 349.046875 " transform="matrix(1,0,0,1,-74,-13)"/>
</g>
<g clip-path="url(#clip20)" clip-rule="nonzero">
<path style=" stroke:none;fill-rule:nonzero;fill:rgb(99.998474%,99.998474%,30.587769%);fill-opacity:0.8;" d="M 9.960938 339.316406 L -18.367188 388.375 L 38.285156 388.375 Z M 9.960938 339.316406 "/>
</g>
<g clip-path="url(#clip21)" clip-rule="nonzero">
<path style="fill:none;stroke-width:0.288;stroke-linecap:square;stroke-linejoin:miter;stroke:rgb(0%,0%,0%);stroke-opacity:0.8;stroke-miterlimit:3.25;" d="M 83.960938 352.316406 L 55.632812 401.375 L 112.285156 401.375 Z M 83.960938 352.316406 " transform="matrix(1,0,0,1,-74,-13)"/>
</g>
<g clip-path="url(#clip22)" clip-rule="nonzero">
<path style=" stroke:none;fill-rule:nonzero;fill:rgb(99.998474%,99.998474%,30.587769%);fill-opacity:0.8;" d="M 359.921875 260.820312 L 331.597656 309.878906 L 388.246094 309.878906 Z M 359.921875 260.820312 "/>
</g>
<g clip-path="url(#clip23)" clip-rule="nonzero">
<path style="fill:none;stroke-width:0.288;stroke-linecap:square;stroke-linejoin:miter;stroke:rgb(0%,0%,0%);stroke-opacity:0.8;stroke-miterlimit:3.25;" d="M 433.921875 273.820312 L 405.597656 322.878906 L 462.246094 322.878906 Z M 433.921875 273.820312 " transform="matrix(1,0,0,1,-74,-13)"/>
</g>
<g clip-path="url(#clip24)" clip-rule="nonzero">
<path style=" stroke:none;fill-rule:nonzero;fill:rgb(99.998474%,99.998474%,30.587769%);fill-opacity:0.8;" d="M 153.867188 336.046875 L 125.542969 385.105469 L 182.195312 385.105469 Z M 153.867188 336.046875 "/>
</g>
<g clip-path="url(#clip25)" clip-rule="nonzero">
<path style="fill:none;stroke-width:0.288;stroke-linecap:square;stroke-linejoin:miter;stroke:rgb(0%,0%,0%);stroke-opacity:0.8;stroke-miterlimit:3.25;" d="M 227.867188 349.046875 L 199.542969 398.105469 L 256.195312 398.105469 Z M 227.867188 349.046875 " transform="matrix(1,0,0,1,-74,-13)"/>
</g>
<g clip-path="url(#clip26)" clip-rule="nonzero">
<path style=" stroke:none;fill-rule:nonzero;fill:rgb(99.998474%,99.998474%,30.587769%);fill-opacity:0.8;" d="M 173.492188 339.316406 L 145.167969 388.375 L 201.816406 388.375 Z M 173.492188 339.316406 "/>
</g>
<g clip-path="url(#clip27)" clip-rule="nonzero">
<path style="fill:none;stroke-width:0.288;stroke-linecap:square;stroke-linejoin:miter;stroke:rgb(0%,0%,0%);stroke-opacity:0.8;stroke-miterlimit:3.25;" d="M 247.492188 352.316406 L 219.167969 401.375 L 275.816406 401.375 Z M 247.492188 352.316406 " transform="matrix(1,0,0,1,-74,-13)"/>
</g>
</g>
</svg>
