<?xml version="1.0" encoding="UTF-8"?>
<svg xmlns="http://www.w3.org/2000/svg" xmlns:xlink="http://www.w3.org/1999/xlink" width="361pt" height="361pt" viewBox="0 0 361 361" version="1.1">
<defs>
<clipPath id="clip1">
  <path d="M 357 0 L 360 0 L 360 129 L 357 129 Z M 357 0 "/>
</clipPath>
<clipPath id="clip2">
  <path d="M 306 0 L 360 0 L 360 113 L 306 113 Z M 306 0 "/>
</clipPath>
<clipPath id="clip3">
  <path d="M 317 0 L 360 0 L 360 1 L 317 1 Z M 317 0 "/>
</clipPath>
</defs>
<g id="surface2156">
<path style="fill-rule:nonzero;fill:rgb(0%,0%,0%);fill-opacity:1;stroke-width:0.03;stroke-linecap:square;stroke-linejoin:miter;stroke:rgb(0%,0%,0%);stroke-opacity:1;stroke-miterlimit:10;" d="M 0 178 L 360 178 L 360 -182 L 0 -182 Z M 0 178 " transform="matrix(1,0,0,1,0,182)"/>
<path style=" stroke:none;fill-rule:nonzero;fill:rgb(39.99939%,39.99939%,39.99939%);fill-opacity:0.3;" d="M 104.125 -355.253906 L 157.3125 -339.925781 L 113.015625 -206.320312 L 87.824219 -130.339844 L 151.613281 -109.65625 L 103.265625 30.296875 L 99.96875 29.363281 L 77.605469 19.582031 L 72.195312 21.515625 L 16.328125 5.722656 L 11.515625 18.0625 L -8.644531 11.71875 L -51.808594 114.5 L -48.1875 115.699219 L -44.5625 116.902344 L -4.53125 21.691406 L 4.082031 24.546875 L -9.652344 38.28125 L -53.28125 146.3125 L -140.078125 225.335938 L -38.039062 -105.835938 L 21.964844 -90.21875 Z M 104.125 -355.253906 "/>
<path style=" stroke:none;fill-rule:nonzero;fill:rgb(39.99939%,39.99939%,39.99939%);fill-opacity:0.3;" d="M 19.890625 25.878906 L 21.238281 21.761719 L 41.757812 29.003906 Z M 19.890625 25.878906 "/>
<path style=" stroke:none;fill-rule:nonzero;fill:rgb(39.99939%,39.99939%,39.99939%);fill-opacity:0.3;" d="M 206.292969 -88.136719 L 244.367188 -76.792969 L 199.953125 64.289062 L 160.898438 50.558594 Z M 206.292969 -88.136719 "/>
<path style=" stroke:none;fill-rule:nonzero;fill:rgb(39.99939%,39.99939%,39.99939%);fill-opacity:0.3;" d="M 157.558594 -79.726562 L 189.144531 -70.1875 L 150.347656 46.988281 L 118.324219 35.589844 Z M 157.558594 -79.726562 "/>
<g clip-path="url(#clip1)" clip-rule="nonzero">
<path style=" stroke:none;fill-rule:nonzero;fill:rgb(39.99939%,39.99939%,39.99939%);fill-opacity:0.3;" d="M 439.589844 -139.484375 L 465.664062 -132.457031 L 383.417969 128.792969 L 357.78125 119.78125 Z M 439.589844 -139.484375 "/>
</g>
<g clip-path="url(#clip2)" clip-rule="nonzero">
<path style=" stroke:none;fill-rule:nonzero;fill:rgb(39.99939%,39.99939%,39.99939%);fill-opacity:0.3;" d="M 352.757812 -44.492188 L 384.8125 -34.9375 L 338.265625 112.917969 L 306.777344 101.847656 Z M 352.757812 -44.492188 "/>
</g>
<path style=" stroke:none;fill-rule:nonzero;fill:rgb(39.99939%,39.99939%,39.99939%);fill-opacity:0.3;" d="M 294.992188 -24.042969 L 327.613281 -14.667969 L 291.898438 96.617188 L 260.324219 85.515625 Z M 294.992188 -24.042969 "/>
<path style=" stroke:none;fill-rule:nonzero;fill:rgb(39.99939%,39.99939%,39.99939%);fill-opacity:0.3;" d="M 261.46875 -71.695312 L 295.089844 -61.675781 L 249.90625 81.851562 L 216.792969 70.210938 Z M 261.46875 -71.695312 "/>
<path style=" stroke:none;fill-rule:nonzero;fill:rgb(39.99939%,39.99939%,39.99939%);fill-opacity:0.3;" d="M -93.367188 -943.226562 L -31.859375 -941.128906 L -23.871094 -939.246094 L 10.050781 -931.128906 L 0.628906 -895.085938 L 57.996094 -883.949219 L 23.09375 -763.429688 L 84.375 -746.558594 L 49.941406 -607.046875 L 73.75 -599.113281 L 162.121094 -570.261719 L 170.691406 -540.539062 L 133.046875 -435.757812 L 103.746094 -355.363281 L 21.796875 -90.5625 L -38.207031 -106.179688 L -65.898438 -16.761719 L -140.535156 225.753906 L -147.199219 231.820312 L -207.09375 219.496094 L -222.761719 200.195312 L -240.621094 194.867188 L -287.609375 191.804688 L -297.632812 173.90625 L -307.5 155.578125 L -381.980469 80.027344 L -394.003906 59.054688 L -408.546875 -7.425781 L -366.992188 -273.355469 L -381.027344 -273.355469 L -380.925781 -276.648438 L -351.53125 -381.65625 L -355.316406 -484.660156 L -331.425781 -550.894531 L -327.453125 -623.566406 L -350.035156 -646.964844 L -347.5 -655.566406 L -345.667969 -662.328125 L -308.933594 -727.675781 L -297.949219 -755.480469 L -228.144531 -757.71875 L -223.078125 -763.8125 L -220.863281 -775.703125 L -222.136719 -788.976562 L -210.03125 -800.417969 L -145.523438 -857.414062 Z M -93.367188 -943.226562 "/>
<path style=" stroke:none;fill-rule:nonzero;fill:rgb(39.99939%,39.99939%,39.99939%);fill-opacity:0.3;" d="M 115.386719 138.40625 L 122.335938 131.953125 L 132.101562 128.640625 L 135.257812 135.082031 L 131.949219 138.386719 L 137.765625 151.109375 L 149.683594 144.492188 L 147.359375 140.253906 L 154.308594 136.628906 L 161.117188 146.992188 L 160.128906 153.59375 L 145.066406 161.785156 L 142.414062 158.960938 L 138.441406 160.535156 L 142.234375 176.589844 L 130.191406 185.21875 L 124.714844 179.253906 L 128.6875 174.847656 L 125.191406 163.695312 L 111.285156 168.582031 L 113.277344 173.453125 L 105.332031 177.703125 L 99.359375 168.597656 L 100.007812 159.167969 L 112.589844 152.867188 L 115.410156 157.578125 L 113.757812 159.152344 L 115.253906 163.234375 L 123.53125 160.238281 Z M 115.386719 138.40625 "/>
<path style=" stroke:none;fill-rule:nonzero;fill:rgb(39.99939%,39.99939%,39.99939%);fill-opacity:0.3;" d="M 146.460938 199.035156 L 158.257812 219.308594 L 166.113281 215.417969 L 163.886719 211.644531 L 161.550781 211.773438 L 159.710938 206.644531 L 173.027344 201.890625 L 180.886719 207.6875 L 184.097656 217.972656 L 175.476562 220.792969 L 172.960938 216.148438 L 159.878906 222.78125 L 166.351562 232.664062 L 172.457031 232.765625 L 173.523438 240.613281 L 158.730469 243.441406 L 148.601562 230.09375 L 144.722656 231.867188 L 145.167969 235.492188 L 133.207031 225.96875 L 141.617188 223.355469 L 135.453125 210.785156 L 130.652344 210.941406 L 127.675781 204.429688 L 136.765625 199.6875 Z M 146.460938 199.035156 "/>
<path style=" stroke:none;fill-rule:nonzero;fill:rgb(39.99939%,39.99939%,39.99939%);fill-opacity:0.3;" d="M 196.199219 105.367188 L 197.941406 97.542969 L 206.566406 90.769531 L 214.089844 96.503906 L 211.988281 100.601562 L 221.574219 111.066406 L 229.847656 104.625 L 225.714844 101.070312 L 231.675781 96.765625 L 240.351562 101.410156 L 241.113281 108.882812 L 231.929688 119.152344 L 228.503906 117.21875 L 224.246094 122.785156 L 235.144531 135.945312 L 227.652344 146.988281 L 218.640625 143.082031 L 220.464844 136.300781 L 213.589844 126.667969 L 201.882812 135.3125 L 205.332031 139.382812 L 198.378906 142.394531 L 190.519531 138.746094 L 189.726562 127.097656 L 198.132812 119.957031 L 202.320312 123.640625 L 201.242188 125.613281 L 203.96875 129.078125 L 210.90625 123.851562 Z M 196.199219 105.367188 "/>
<path style=" stroke:none;fill-rule:nonzero;fill:rgb(39.99939%,39.99939%,39.99939%);fill-opacity:0.3;" d="M 143.742188 83.433594 L 150.691406 76.980469 L 160.457031 73.671875 L 163.613281 80.109375 L 160.304688 83.414062 L 166.121094 96.136719 L 178.039062 89.519531 L 175.714844 85.28125 L 182.664062 81.65625 L 189.472656 92.023438 L 188.484375 98.625 L 173.421875 106.8125 L 170.769531 103.988281 L 166.796875 105.5625 L 170.589844 121.617188 L 158.546875 130.246094 L 153.070312 124.28125 L 157.042969 119.875 L 153.546875 108.722656 L 139.640625 113.609375 L 141.632812 118.480469 L 133.6875 122.730469 L 127.714844 113.625 L 128.363281 104.195312 L 140.945312 97.894531 L 143.765625 102.605469 L 142.113281 104.179688 L 143.609375 108.261719 L 151.886719 105.265625 Z M 143.742188 83.433594 "/>
<path style=" stroke:none;fill-rule:nonzero;fill:rgb(39.99939%,39.99939%,39.99939%);fill-opacity:0.3;" d="M 209.179688 203.71875 L 216.128906 197.269531 L 225.898438 193.957031 L 229.054688 200.394531 L 225.746094 203.699219 L 231.558594 216.421875 L 243.476562 209.808594 L 241.152344 205.566406 L 248.105469 201.945312 L 254.910156 212.308594 L 253.925781 218.910156 L 238.863281 227.101562 L 236.207031 224.273438 L 232.234375 225.851562 L 236.027344 241.90625 L 223.984375 250.53125 L 218.511719 244.566406 L 222.480469 240.164062 L 218.988281 229.007812 L 205.078125 233.898438 L 207.074219 238.765625 L 199.128906 243.019531 L 193.152344 233.910156 L 193.804688 224.480469 L 206.382812 218.179688 L 209.207031 222.890625 L 207.550781 224.464844 L 209.046875 228.550781 L 217.324219 225.554688 Z M 209.179688 203.71875 "/>
<path style=" stroke:none;fill-rule:nonzero;fill:rgb(39.99939%,39.99939%,39.99939%);fill-opacity:0.3;" d="M 177.53125 157.808594 L 184.480469 151.359375 L 194.25 148.046875 L 197.40625 154.484375 L 194.097656 157.789062 L 199.910156 170.511719 L 211.828125 163.898438 L 209.503906 159.65625 L 216.457031 156.035156 L 223.261719 166.398438 L 222.277344 173 L 207.214844 181.1875 L 204.558594 178.363281 L 200.585938 179.941406 L 204.382812 195.992188 L 192.335938 204.621094 L 186.863281 198.65625 L 190.832031 194.25 L 187.339844 183.097656 L 173.429688 187.988281 L 175.425781 192.855469 L 167.480469 197.109375 L 161.503906 188 L 162.15625 178.570312 L 174.734375 172.269531 L 177.558594 176.980469 L 175.902344 178.554688 L 177.398438 182.640625 L 185.679688 179.644531 Z M 177.53125 157.808594 "/>
<path style=" stroke:none;fill-rule:nonzero;fill:rgb(39.99939%,39.99939%,39.99939%);fill-opacity:0.3;" d="M 101.617188 51.429688 L 113.171875 55.414062 L 303.234375 120.945312 L 236.957031 308.570312 L 51.429688 160.855469 L 77.605469 96.453125 Z M 101.617188 51.429688 "/>
<path style="fill-rule:nonzero;fill:rgb(39.99939%,39.99939%,39.99939%);fill-opacity:1;stroke-width:0.03;stroke-linecap:square;stroke-linejoin:miter;stroke:rgb(39.99939%,39.99939%,39.99939%);stroke-opacity:1;stroke-miterlimit:3.239307;" d="M 189.386719 151.40625 L 196.335938 144.953125 L 206.101562 141.640625 L 209.257812 148.082031 L 205.949219 151.386719 L 211.765625 164.109375 L 223.683594 157.492188 L 221.359375 153.253906 L 228.308594 149.628906 L 235.117188 159.992188 L 234.128906 166.59375 L 219.066406 174.785156 L 216.414062 171.960938 L 212.441406 173.535156 L 216.234375 189.589844 L 204.191406 198.21875 L 198.714844 192.253906 L 202.6875 187.847656 L 199.191406 176.695312 L 185.285156 181.582031 L 187.277344 186.453125 L 179.332031 190.703125 L 173.359375 181.597656 L 174.007812 172.167969 L 186.589844 165.867188 L 189.410156 170.578125 L 187.757812 172.152344 L 189.253906 176.234375 L 197.53125 173.238281 Z M 189.386719 151.40625 " transform="matrix(1,0,0,1,-74,-13)"/>
<path style="fill-rule:nonzero;fill:rgb(39.99939%,39.99939%,39.99939%);fill-opacity:1;stroke-width:0.03;stroke-linecap:square;stroke-linejoin:miter;stroke:rgb(39.99939%,39.99939%,39.99939%);stroke-opacity:1;stroke-miterlimit:3.239307;" d="M 220.460938 212.035156 L 232.257812 232.308594 L 240.113281 228.417969 L 237.886719 224.644531 L 235.550781 224.773438 L 233.710938 219.644531 L 247.027344 214.890625 L 254.886719 220.6875 L 258.097656 230.972656 L 249.476562 233.792969 L 246.960938 229.148438 L 233.878906 235.78125 L 240.351562 245.664062 L 246.457031 245.765625 L 247.523438 253.613281 L 232.730469 256.441406 L 222.601562 243.09375 L 218.722656 244.867188 L 219.167969 248.492188 L 207.207031 238.96875 L 215.617188 236.355469 L 209.453125 223.785156 L 204.652344 223.941406 L 201.675781 217.429688 L 210.765625 212.6875 Z M 220.460938 212.035156 " transform="matrix(1,0,0,1,-74,-13)"/>
<path style="fill-rule:nonzero;fill:rgb(39.99939%,39.99939%,39.99939%);fill-opacity:1;stroke-width:0.03;stroke-linecap:square;stroke-linejoin:miter;stroke:rgb(39.99939%,39.99939%,39.99939%);stroke-opacity:1;stroke-miterlimit:3.239307;" d="M 270.199219 118.367188 L 271.941406 110.542969 L 280.566406 103.769531 L 288.089844 109.503906 L 285.988281 113.601562 L 295.574219 124.066406 L 303.847656 117.625 L 299.714844 114.070312 L 305.675781 109.765625 L 314.351562 114.410156 L 315.113281 121.882812 L 305.929688 132.152344 L 302.503906 130.21875 L 298.246094 135.785156 L 309.144531 148.945312 L 301.652344 159.988281 L 292.640625 156.082031 L 294.464844 149.300781 L 287.589844 139.667969 L 275.882812 148.3125 L 279.332031 152.382812 L 272.378906 155.394531 L 264.519531 151.746094 L 263.726562 140.097656 L 272.132812 132.957031 L 276.320312 136.640625 L 275.242188 138.613281 L 277.96875 142.078125 L 284.90625 136.851562 Z M 270.199219 118.367188 " transform="matrix(1,0,0,1,-74,-13)"/>
<path style="fill-rule:nonzero;fill:rgb(39.99939%,39.99939%,39.99939%);fill-opacity:1;stroke-width:0.03;stroke-linecap:square;stroke-linejoin:miter;stroke:rgb(39.99939%,39.99939%,39.99939%);stroke-opacity:1;stroke-miterlimit:3.239307;" d="M 217.742188 96.433594 L 224.691406 89.980469 L 234.457031 86.671875 L 237.613281 93.109375 L 234.304688 96.414062 L 240.121094 109.136719 L 252.039062 102.519531 L 249.714844 98.28125 L 256.664062 94.65625 L 263.472656 105.023438 L 262.484375 111.625 L 247.421875 119.8125 L 244.769531 116.988281 L 240.796875 118.5625 L 244.589844 134.617188 L 232.546875 143.246094 L 227.070312 137.28125 L 231.042969 132.875 L 227.546875 121.722656 L 213.640625 126.609375 L 215.632812 131.480469 L 207.6875 135.730469 L 201.714844 126.625 L 202.363281 117.195312 L 214.945312 110.894531 L 217.765625 115.605469 L 216.113281 117.179688 L 217.609375 121.261719 L 225.886719 118.265625 Z M 217.742188 96.433594 " transform="matrix(1,0,0,1,-74,-13)"/>
<path style="fill-rule:nonzero;fill:rgb(39.99939%,39.99939%,39.99939%);fill-opacity:1;stroke-width:0.03;stroke-linecap:square;stroke-linejoin:miter;stroke:rgb(39.99939%,39.99939%,39.99939%);stroke-opacity:1;stroke-miterlimit:3.239307;" d="M 283.179688 216.71875 L 290.128906 210.269531 L 299.898438 206.957031 L 303.054688 213.394531 L 299.746094 216.699219 L 305.558594 229.421875 L 317.476562 222.808594 L 315.152344 218.566406 L 322.105469 214.945312 L 328.910156 225.308594 L 327.925781 231.910156 L 312.863281 240.101562 L 310.207031 237.273438 L 306.234375 238.851562 L 310.027344 254.90625 L 297.984375 263.53125 L 292.511719 257.566406 L 296.480469 253.164062 L 292.988281 242.007812 L 279.078125 246.898438 L 281.074219 251.765625 L 273.128906 256.019531 L 267.152344 246.910156 L 267.804688 237.480469 L 280.382812 231.179688 L 283.207031 235.890625 L 281.550781 237.464844 L 283.046875 241.550781 L 291.324219 238.554688 Z M 283.179688 216.71875 " transform="matrix(1,0,0,1,-74,-13)"/>
<path style="fill-rule:nonzero;fill:rgb(39.99939%,39.99939%,39.99939%);fill-opacity:1;stroke-width:0.03;stroke-linecap:square;stroke-linejoin:miter;stroke:rgb(39.99939%,39.99939%,39.99939%);stroke-opacity:1;stroke-miterlimit:3.239307;" d="M 251.53125 170.808594 L 258.480469 164.359375 L 268.25 161.046875 L 271.40625 167.484375 L 268.097656 170.789062 L 273.910156 183.511719 L 285.828125 176.898438 L 283.503906 172.65625 L 290.457031 169.035156 L 297.261719 179.398438 L 296.277344 186 L 281.214844 194.1875 L 278.558594 191.363281 L 274.585938 192.941406 L 278.382812 208.992188 L 266.335938 217.621094 L 260.863281 211.65625 L 264.832031 207.25 L 261.339844 196.097656 L 247.429688 200.988281 L 249.425781 205.855469 L 241.480469 210.109375 L 235.503906 201 L 236.15625 191.570312 L 248.734375 185.269531 L 251.558594 189.980469 L 249.902344 191.554688 L 251.398438 195.640625 L 259.679688 192.644531 Z M 251.53125 170.808594 " transform="matrix(1,0,0,1,-74,-13)"/>
<path style="fill-rule:nonzero;fill:rgb(39.99939%,39.99939%,39.99939%);fill-opacity:1;stroke-width:0.03;stroke-linecap:square;stroke-linejoin:miter;stroke:rgb(39.99939%,39.99939%,39.99939%);stroke-opacity:1;stroke-miterlimit:3.239307;" d="M 175.617188 64.429688 L 187.171875 68.414062 L 377.234375 133.945312 L 310.957031 321.570312 L 125.429688 173.855469 L 151.605469 109.453125 Z M 175.617188 64.429688 " transform="matrix(1,0,0,1,-74,-13)"/>
<g clip-path="url(#clip3)" clip-rule="nonzero">
<path style=" stroke:none;fill-rule:evenodd;fill:rgb(85.096741%,85.096741%,81.959534%);fill-opacity:0.7;" d="M 484.101562 -83 C 484.101562 -105.039062 475.347656 -126.179688 459.761719 -141.761719 C 444.179688 -157.347656 423.039062 -166.101562 401 -166.101562 C 378.960938 -166.101562 357.820312 -157.347656 342.238281 -141.761719 C 326.652344 -126.179688 317.898438 -105.039062 317.898438 -83 C 317.898438 -60.960938 326.652344 -39.820312 342.238281 -24.238281 C 357.820312 -8.652344 378.960938 0.101562 401 0.101562 C 423.039062 0.101562 444.179688 -8.652344 459.761719 -24.238281 C 475.347656 -39.820312 484.101562 -60.960938 484.101562 -83 Z M 484.101562 -83 "/>
</g>
</g>
</svg>
