<?xml version="1.0" encoding="UTF-8"?>
<svg xmlns="http://www.w3.org/2000/svg" xmlns:xlink="http://www.w3.org/1999/xlink" width="361pt" height="361pt" viewBox="0 0 361 361" version="1.1">
<defs>
<clipPath id="clip1">
  <path d="M 176 313 L 225 313 L 225 360 L 176 360 Z M 176 313 "/>
</clipPath>
<clipPath id="clip2">
  <path d="M 227 352 L 277 352 L 277 360 L 227 360 Z M 227 352 "/>
</clipPath>
<clipPath id="clip3">
  <path d="M 207 347 L 232 347 L 232 360 L 207 360 Z M 207 347 "/>
</clipPath>
<clipPath id="clip4">
  <path d="M 234 66 L 360 66 L 360 145 L 234 145 Z M 234 66 "/>
</clipPath>
<clipPath id="clip5">
  <path d="M 340 147 L 360 147 L 360 231 L 340 231 Z M 340 147 "/>
</clipPath>
<clipPath id="clip6">
  <path d="M 336 213 L 360 213 L 360 234 L 336 234 Z M 336 213 "/>
</clipPath>
<clipPath id="clip7">
  <path d="M 213 258 L 316 258 L 316 360 L 213 360 Z M 213 258 "/>
</clipPath>
<clipPath id="clip8">
  <path d="M 279 222 L 360 222 L 360 360 L 279 360 Z M 279 222 "/>
</clipPath>
<clipPath id="clip9">
  <path d="M 341 210 L 360 210 L 360 224 L 341 224 Z M 341 210 "/>
</clipPath>
<clipPath id="clip10">
  <path d="M 74 301 L 193 301 L 193 360 L 74 360 Z M 74 301 "/>
</clipPath>
<clipPath id="clip11">
  <path d="M 26 351 L 71 351 L 71 360 L 26 360 Z M 26 351 "/>
</clipPath>
<clipPath id="clip12">
  <path d="M 82 354 L 129 354 L 129 360 L 82 360 Z M 82 354 "/>
</clipPath>
<clipPath id="clip13">
  <path d="M 60 355 L 128 355 L 128 360 L 60 360 Z M 60 355 "/>
</clipPath>
<clipPath id="clip14">
  <path d="M 0 290 L 6 290 L 6 360 L 0 360 Z M 0 290 "/>
</clipPath>
<clipPath id="clip15">
  <path d="M 3 294 L 39 294 L 39 360 L 3 360 Z M 3 294 "/>
</clipPath>
<clipPath id="clip16">
  <path d="M 267 0 L 360 0 L 360 9 L 267 9 Z M 267 0 "/>
</clipPath>
<clipPath id="clip17">
  <path d="M 334 0 L 360 0 L 360 23 L 334 23 Z M 334 0 "/>
</clipPath>
<clipPath id="clip18">
  <path d="M 309 10 L 360 10 L 360 67 L 309 67 Z M 309 10 "/>
</clipPath>
<clipPath id="clip19">
  <path d="M 255 320 L 320 320 L 320 360 L 255 360 Z M 255 320 "/>
</clipPath>
<clipPath id="clip20">
  <path d="M 254 318 L 322 318 L 322 360 L 254 360 Z M 254 318 "/>
</clipPath>
<clipPath id="clip21">
  <path d="M 273 335 L 339 335 L 339 360 L 273 360 Z M 273 335 "/>
</clipPath>
<clipPath id="clip22">
  <path d="M 272 333 L 340 333 L 340 360 L 272 360 Z M 272 333 "/>
</clipPath>
</defs>
<g id="surface6580">
<path style="fill-rule:nonzero;fill:rgb(0%,0%,0%);fill-opacity:1;stroke-width:0.03;stroke-linecap:square;stroke-linejoin:miter;stroke:rgb(0%,0%,0%);stroke-opacity:1;stroke-miterlimit:10;" d="M 0 178 L 360 178 L 360 -182 L 0 -182 Z M 0 178 " transform="matrix(1,0,0,1,0,182)"/>
<g clip-path="url(#clip1)" clip-rule="nonzero">
<path style=" stroke:none;fill-rule:nonzero;fill:rgb(39.99939%,39.99939%,39.99939%);fill-opacity:0.3;" d="M 199.898438 313.355469 L 223.300781 316.871094 L 223.824219 317.273438 L 224.144531 317.910156 L 224.128906 318.476562 L 210.617188 340.085938 L 210.554688 340.964844 L 210.988281 341.75 L 212.957031 343.121094 L 214.3125 343.996094 L 214.652344 345.542969 L 214.347656 347.089844 L 198.769531 386.144531 L 178.578125 440.183594 L 176.707031 439.996094 L 180.132812 417.144531 Z M 199.898438 313.355469 "/>
</g>
<g clip-path="url(#clip2)" clip-rule="nonzero">
<path style=" stroke:none;fill-rule:nonzero;fill:rgb(39.99939%,39.99939%,39.99939%);fill-opacity:0.3;" d="M 233.996094 352.398438 L 276.304688 364.410156 L 270.363281 386.699219 L 227.589844 375.285156 Z M 233.996094 352.398438 "/>
</g>
<g clip-path="url(#clip3)" clip-rule="nonzero">
<path style=" stroke:none;fill-rule:nonzero;fill:rgb(39.99939%,39.99939%,39.99939%);fill-opacity:0.3;" d="M 216.507812 347.570312 L 231.296875 351.785156 L 224.945312 375.28125 L 207.171875 370.859375 Z M 216.507812 347.570312 "/>
</g>
<path style=" stroke:none;fill-rule:nonzero;fill:rgb(39.99939%,39.99939%,39.99939%);fill-opacity:0.3;" d="M 215.941406 343.246094 L 214.707031 342.863281 L 214.128906 342.214844 L 213.632812 341.488281 L 213.664062 340.203125 L 214.0625 339.09375 L 228.351562 315.722656 L 228.542969 315.757812 L 213.695312 341.371094 Z M 215.941406 343.246094 "/>
<path style=" stroke:none;fill-rule:nonzero;fill:rgb(39.99939%,39.99939%,39.99939%);fill-opacity:0.3;" d="M 336.445312 222.585938 L 335.125 222.171875 L 338.414062 212.597656 L 340.113281 213.125 L 339.179688 215.148438 Z M 336.445312 222.585938 "/>
<path style=" stroke:none;fill-rule:nonzero;fill:rgb(39.99939%,39.99939%,39.99939%);fill-opacity:0.3;" d="M 242.910156 255.390625 L 259.601562 258.054688 L 238.261719 293.90625 L 237.683594 294.152344 L 237.164062 294.25 L 236.71875 294.140625 L 236.378906 293.957031 L 236.039062 293.472656 L 235.972656 292.820312 Z M 242.910156 255.390625 "/>
<path style=" stroke:none;fill-rule:nonzero;fill:rgb(39.99939%,39.99939%,39.99939%);fill-opacity:0.3;" d="M 228.351562 315.722656 L 231.953125 309.839844 L 228.542969 315.757812 Z M 228.351562 315.722656 "/>
<path style=" stroke:none;fill-rule:nonzero;fill:rgb(39.99939%,39.99939%,39.99939%);fill-opacity:0.3;" d="M 211.242188 250.332031 L 240.503906 255.003906 L 231.726562 303.527344 L 225.84375 314.699219 L 200.488281 310.214844 Z M 211.242188 250.332031 "/>
<path style=" stroke:none;fill-rule:nonzero;fill:rgb(39.99939%,39.99939%,39.99939%);fill-opacity:0.3;" d="M 220.730469 199.011719 L 287.804688 209.523438 L 261.007812 254.988281 L 211.929688 247.882812 Z M 220.730469 199.011719 "/>
<path style=" stroke:none;fill-rule:nonzero;fill:rgb(39.99939%,39.99939%,39.99939%);fill-opacity:0.3;" d="M 331.660156 137.710938 L 359.515625 146.722656 L 336.203125 210.4375 L 335.21875 212.367188 L 334.710938 213.019531 L 333.632812 213.332031 L 331.035156 213.078125 L 293.117188 206.066406 Z M 331.660156 137.710938 "/>
<path style=" stroke:none;fill-rule:nonzero;fill:rgb(39.99939%,39.99939%,39.99939%);fill-opacity:0.3;" d="M 290.667969 209.945312 L 332.710938 217.058594 L 316.671875 263.109375 L 264.992188 255.375 Z M 290.667969 209.945312 "/>
<path style=" stroke:none;fill-rule:nonzero;fill:rgb(39.99939%,39.99939%,39.99939%);fill-opacity:0.3;" d="M 234.265625 123.652344 L 328.390625 137.867188 L 289.707031 205.710938 L 221.101562 195.859375 Z M 234.265625 123.652344 "/>
<g clip-path="url(#clip4)" clip-rule="nonzero">
<path style=" stroke:none;fill-rule:nonzero;fill:rgb(39.99939%,39.99939%,39.99939%);fill-opacity:0.3;" d="M 243.683594 66.167969 L 386.363281 78.261719 L 418.835938 80.460938 L 418.734375 82.308594 L 413.613281 84.351562 L 406.75 86.6875 L 401.363281 89.570312 L 397.867188 92.578125 L 394.402344 98.320312 L 391.378906 104.691406 L 388.394531 112.382812 L 386.296875 116.84375 L 385.371094 118.488281 L 383.675781 120.019531 L 382.183594 120.902344 L 379.804688 121.554688 L 376.292969 122.359375 L 373.875 122.933594 L 372.421875 123.472656 L 371.128906 124.621094 L 369.800781 126.035156 L 368.1875 128.292969 L 366.777344 130.363281 L 364.484375 134.703125 L 361.007812 144.164062 L 327.214844 133.714844 L 234.945312 119.128906 Z M 243.683594 66.167969 "/>
</g>
<path style=" stroke:none;fill-rule:nonzero;fill:rgb(39.99939%,39.99939%,39.99939%);fill-opacity:0.3;" d="M 320.074219 265.542969 L 321.105469 262.976562 L 335.121094 222.179688 L 336.441406 222.59375 L 320.617188 265.636719 Z M 320.074219 265.542969 "/>
<g clip-path="url(#clip5)" clip-rule="nonzero">
<path style=" stroke:none;fill-rule:nonzero;fill:rgb(39.99939%,39.99939%,39.99939%);fill-opacity:0.3;" d="M 361.714844 147.40625 L 408.523438 162.058594 L 406.398438 169.972656 L 410 171.058594 L 412.285156 162.832031 L 432.734375 168.40625 L 410.515625 230.996094 L 394.226562 225.355469 L 392.246094 224.761719 L 389.644531 224.320312 L 384.289062 223.5625 L 341.953125 210.488281 L 340.875 208.933594 L 340.355469 207.453125 L 340.199219 206.171875 L 356.503906 162.398438 L 395.375 175.152344 L 395.929688 173.167969 L 396.488281 171.183594 L 357.648438 159.453125 Z M 361.714844 147.40625 "/>
</g>
<path style=" stroke:none;fill-rule:nonzero;fill:rgb(39.99939%,39.99939%,39.99939%);fill-opacity:0.3;" d="M 245.6875 57.882812 L 242.550781 57.613281 L 242.574219 57.554688 Z M 245.6875 57.882812 "/>
<g clip-path="url(#clip6)" clip-rule="nonzero">
<path style=" stroke:none;fill-rule:nonzero;fill:rgb(39.99939%,39.99939%,39.99939%);fill-opacity:0.3;" d="M 373.46875 223.429688 L 370 233.105469 L 336.445312 222.585938 L 339.179688 215.148438 L 340.113281 213.125 L 344.523438 214.484375 L 342.59375 219.804688 L 343.96875 220.226562 L 345.9375 214.984375 L 359.699219 219.234375 L 362.757812 220.164062 L 360.625 226.042969 L 361.410156 226.289062 L 362.199219 226.535156 L 364.269531 220.628906 Z M 373.46875 223.429688 "/>
</g>
<g clip-path="url(#clip7)" clip-rule="nonzero">
<path style=" stroke:none;fill-rule:nonzero;fill:rgb(39.99939%,39.99939%,39.99939%);fill-opacity:0.3;" d="M 263.257812 258.640625 L 315.738281 266.878906 L 296.632812 314.40625 L 277.082031 362.078125 L 215.941406 343.246094 L 213.695312 341.371094 L 228.542969 315.757812 L 231.953125 309.839844 Z M 263.257812 258.640625 "/>
</g>
<g clip-path="url(#clip8)" clip-rule="nonzero">
<path style=" stroke:none;fill-rule:nonzero;fill:rgb(39.99939%,39.99939%,39.99939%);fill-opacity:0.3;" d="M 373.472656 223.433594 L 388.203125 227.984375 L 375.167969 258.632812 L 365.695312 255.644531 L 362.929688 261.867188 L 368.820312 265.066406 L 362.453125 278.894531 L 364.128906 279.421875 L 366.097656 280.042969 L 370.847656 268.6875 L 385.957031 275.890625 L 387.527344 276.515625 L 387.589844 282.097656 L 388.761719 285.925781 L 382.53125 287.304688 L 382.863281 288.445312 L 383.113281 289.292969 L 389.476562 288.253906 L 393.261719 297.589844 L 399.25 294.925781 L 408.347656 290.785156 L 413.503906 288.636719 L 415.261719 288.875 L 406.398438 308.28125 L 374.601562 295.921875 L 375.003906 290.34375 L 374.0625 290.296875 L 373.121094 290.253906 L 372.496094 297.332031 L 381.65625 300.960938 L 381.734375 306.59375 L 370.769531 304.253906 L 370.628906 305.382812 L 370.523438 306.246094 L 382.269531 308.941406 L 382.007812 321.480469 L 372.496094 318.128906 L 368.824219 329.253906 L 369.777344 329.546875 L 370.925781 329.898438 L 373.984375 321.765625 L 380.417969 324.109375 L 358.765625 384.503906 L 344.179688 380.230469 L 353.519531 350.300781 L 358.183594 337.394531 L 359.003906 331.742188 L 359.738281 327.828125 L 361.566406 323.046875 L 360.789062 322.917969 L 360.007812 322.785156 L 357.902344 327.480469 L 357.082031 331.828125 L 356.441406 336.175781 L 351.773438 349.566406 L 341.886719 380.230469 L 279.53125 362.542969 L 310.007812 290.660156 L 320.074219 265.542969 L 320.617188 265.636719 L 336.441406 222.59375 L 370 233.113281 Z M 373.472656 223.433594 "/>
</g>
<g clip-path="url(#clip9)" clip-rule="nonzero">
<path style=" stroke:none;fill-rule:nonzero;fill:rgb(39.99939%,39.99939%,39.99939%);fill-opacity:0.3;" d="M 384.289062 223.5625 L 380.585938 223.039062 L 378.867188 222.746094 L 376.730469 222.007812 L 341.972656 210.515625 L 341.953125 210.488281 Z M 384.289062 223.5625 "/>
</g>
<g clip-path="url(#clip10)" clip-rule="nonzero">
<path style=" stroke:none;fill-rule:nonzero;fill:rgb(39.99939%,39.99939%,39.99939%);fill-opacity:0.3;" d="M 122.578125 346.621094 L 124.023438 346.683594 L 128.257812 303.878906 L 143.007812 305.15625 L 140.921875 336.410156 L 141.996094 336.628906 L 143.03125 336.839844 L 145.566406 305.152344 L 160.015625 306.144531 L 158.035156 325.074219 L 159.3125 325.285156 L 160.59375 325.5 L 163.175781 306.710938 L 192.074219 311.832031 L 178.9375 375.988281 L 164.917969 370.542969 L 150.425781 364.90625 L 154.625 354.476562 L 163.605469 357.683594 L 163.867188 356.902344 L 164.113281 356.15625 L 153.894531 352.882812 L 153.300781 354.171875 L 147.644531 352 L 147.515625 352.421875 L 147.382812 352.84375 L 152.894531 355.054688 L 148.703125 364.136719 L 130.058594 357.621094 L 128.917969 364.246094 L 80.050781 351.375 L 78.699219 353.511719 L 74.664062 353.019531 L 84.765625 320.917969 L 88.542969 322.058594 L 88.761719 321.164062 L 88.980469 320.273438 L 85.304688 319.191406 L 90.882812 301.460938 L 125.648438 303.582031 L 123.105469 324.136719 L 90.589844 313.878906 L 90.515625 315.09375 L 90.441406 316.304688 L 104.0625 320.621094 L 99.765625 333.585938 L 113.425781 338.4375 L 114.789062 335.359375 L 104.371094 331.316406 L 107.433594 321.691406 L 122.355469 326.417969 L 120.863281 346.542969 Z M 122.578125 346.621094 "/>
</g>
<path style=" stroke:none;fill-rule:nonzero;fill:rgb(39.99939%,39.99939%,39.99939%);fill-opacity:0.3;" d="M 177.097656 306.460938 L 163.085938 304.402344 L 163.15625 303.710938 L 164.316406 303.875 Z M 177.097656 306.460938 "/>
<g clip-path="url(#clip11)" clip-rule="nonzero">
<path style=" stroke:none;fill-rule:nonzero;fill:rgb(39.99939%,39.99939%,39.99939%);fill-opacity:0.3;" d="M 37.234375 351.789062 L 70.679688 358.621094 L 64.773438 381.988281 L 59.804688 397.6875 L 56.980469 402.71875 L 26.476562 395.175781 L 28.378906 388.914062 L 36.445312 390.824219 L 36.925781 388.929688 L 37.621094 386.199219 L 33.183594 385.167969 L 32.746094 387 L 29.21875 386.523438 Z M 37.234375 351.789062 "/>
</g>
<path style=" stroke:none;fill-rule:nonzero;fill:rgb(39.99939%,39.99939%,39.99939%);fill-opacity:0.3;" d="M 49.832031 296.917969 L 88.328125 300.765625 L 80.167969 328.230469 L 68.835938 324.554688 L 68.488281 325.375 L 68.136719 326.195312 L 79.351562 329.625 L 70.863281 356.933594 L 37.90625 350.035156 Z M 49.832031 296.917969 "/>
<g clip-path="url(#clip12)" clip-rule="nonzero">
<path style=" stroke:none;fill-rule:nonzero;fill:rgb(39.99939%,39.99939%,39.99939%);fill-opacity:0.3;" d="M 83.652344 354.691406 L 122.828125 365.382812 L 122.625 366.929688 L 128.050781 368.347656 L 126.421875 376.78125 L 97.707031 366.933594 L 98.304688 362.738281 L 82.480469 356.914062 Z M 83.652344 354.691406 "/>
</g>
<g clip-path="url(#clip13)" clip-rule="nonzero">
<path style=" stroke:none;fill-rule:nonzero;fill:rgb(39.99939%,39.99939%,39.99939%);fill-opacity:0.3;" d="M 74.265625 355.140625 L 79.992188 356.347656 L 80.433594 358.429688 L 87.609375 360.9375 L 96.253906 364.40625 L 95.273438 369.460938 L 126.132812 379.558594 L 120.011719 412.371094 L 127.589844 415.445312 L 125.191406 428.308594 L 117.167969 426.019531 L 113.457031 425.277344 L 113.265625 425.230469 L 115.472656 414.597656 L 113.277344 413.628906 L 111.058594 424.714844 L 102.320312 422.675781 L 102.320312 418.964844 L 101.40625 418.832031 L 107.976562 388.734375 L 112.199219 389.519531 L 112.410156 388.601562 L 112.820312 386.820312 L 100.796875 383.878906 L 102.839844 375.960938 L 87.605469 371.246094 L 86.855469 373.664062 L 86.210938 375.753906 L 96.535156 378.972656 L 92.890625 391.523438 L 95.394531 391.921875 L 97.445312 392.246094 L 99.050781 386.964844 L 105.9375 388.210938 L 100.828125 413.21875 L 66.289062 405.910156 L 66.308594 405.597656 L 60.15625 403.546875 L 62.136719 399.78125 L 64.332031 392.140625 L 77.660156 394.214844 L 77.734375 393.035156 L 77.804688 391.851562 L 64.769531 389.5 L 68.277344 379.871094 L 71.34375 368.0625 Z M 74.265625 355.140625 "/>
</g>
<path style=" stroke:none;fill-rule:nonzero;fill:rgb(39.99939%,39.99939%,39.99939%);fill-opacity:0.3;" d="M 47.125 292.875 L 47.105469 293.101562 L 45.011719 292.917969 L 44.945312 292.667969 Z M 47.125 292.875 "/>
<path style=" stroke:none;fill-rule:nonzero;fill:rgb(39.99939%,39.99939%,39.99939%);fill-opacity:0.3;" d="M 144.101562 301.105469 L 144.097656 301.183594 L 133.050781 300.164062 Z M 144.101562 301.105469 "/>
<path style=" stroke:none;fill-rule:nonzero;fill:rgb(39.99939%,39.99939%,39.99939%);fill-opacity:0.3;" d="M 148.820312 301.664062 L 145.835938 301.386719 L 145.847656 301.253906 L 146.125 301.277344 Z M 148.820312 301.664062 "/>
<g clip-path="url(#clip14)" clip-rule="nonzero">
<path style=" stroke:none;fill-rule:nonzero;fill:rgb(39.99939%,39.99939%,39.99939%);fill-opacity:0.3;" d="M -27.453125 290.828125 L -13.316406 292.074219 L -15.902344 318.574219 L -12.292969 318.667969 L -9.734375 292.390625 L 5.097656 293.699219 L -1.78125 364.277344 L -16.503906 361.863281 L -13.554688 331.574219 L -15.238281 331.40625 L -17.132812 331.21875 L -20.0625 361.28125 L -34.09375 358.976562 Z M -27.453125 290.828125 "/>
</g>
<g clip-path="url(#clip15)" clip-rule="nonzero">
<path style=" stroke:none;fill-rule:nonzero;fill:rgb(39.99939%,39.99939%,39.99939%);fill-opacity:0.3;" d="M 10.222656 294.152344 L 38.027344 296.25 L 30.8125 325.019531 L 24.34375 323.539062 L 25.597656 316.167969 L 24.976562 316.046875 L 24.308594 315.910156 L 21.402344 333.308594 L 22.007812 333.410156 L 22.65625 333.523438 L 24.074219 325.640625 L 30.621094 327.132812 L 23.445312 357.308594 L 18.863281 356.285156 L 18.644531 357.128906 L 18.421875 357.976562 L 22.90625 359.09375 L 22.019531 363.4375 L 3.726562 360.785156 Z M 10.222656 294.152344 "/>
</g>
<path style=" stroke:none;fill-rule:nonzero;fill:rgb(39.99939%,39.99939%,39.99939%);fill-opacity:0.3;" d="M 26.28125 291.164062 L 26.269531 291.261719 L 23.550781 291.023438 Z M 26.28125 291.164062 "/>
<path style=" stroke:none;fill-rule:nonzero;fill:rgb(39.99939%,39.99939%,39.99939%);fill-opacity:0.3;" d="M 38.492188 292.097656 L 38.472656 292.339844 L 28.671875 291.476562 L 28.6875 291.304688 Z M 38.492188 292.097656 "/>
<path style=" stroke:none;fill-rule:nonzero;fill:rgb(39.99939%,39.99939%,39.99939%);fill-opacity:0.3;" d="M 169.320312 242.851562 L 201.5625 248.53125 L 191.457031 308.570312 L 177.097656 306.460938 L 164.316406 303.875 L 163.15625 303.710938 Z M 169.320312 242.851562 "/>
<path style=" stroke:none;fill-rule:nonzero;fill:rgb(39.99939%,39.99939%,39.99939%);fill-opacity:0.3;" d="M 180.867188 125.542969 L 223.25 129.488281 L 202.664062 245.40625 L 169.703125 240.167969 Z M 180.867188 125.542969 "/>
<path style=" stroke:none;fill-rule:nonzero;fill:rgb(39.99939%,39.99939%,39.99939%);fill-opacity:0.3;" d="M 183.609375 94.226562 L 229.152344 98.433594 L 224.734375 125.335938 L 181.238281 121.320312 Z M 183.609375 94.226562 "/>
<path style=" stroke:none;fill-rule:nonzero;fill:rgb(39.99939%,39.99939%,39.99939%);fill-opacity:0.3;" d="M 186.503906 61.15625 L 234.675781 65.378906 L 229.800781 94.488281 L 184.109375 90.269531 Z M 186.503906 61.15625 "/>
<path style=" stroke:none;fill-rule:nonzero;fill:rgb(39.99939%,39.99939%,39.99939%);fill-opacity:0.3;" d="M 237.523438 57.148438 L 236.132812 57.808594 L 214.324219 55.632812 Z M 237.523438 57.148438 "/>
<path style=" stroke:none;fill-rule:nonzero;fill:rgb(39.99939%,39.99939%,39.99939%);fill-opacity:0.3;" d="M 56.226562 241.027344 L 74.695312 242.859375 L 69.917969 294.191406 L 51.429688 292.589844 Z M 56.226562 241.027344 "/>
<path style=" stroke:none;fill-rule:nonzero;fill:rgb(39.99939%,39.99939%,39.99939%);fill-opacity:0.3;" d="M 116.726562 246.503906 L 131.109375 247.738281 L 126.289062 299.539062 L 111.914062 298.214844 Z M 116.726562 246.503906 "/>
<path style=" stroke:none;fill-rule:nonzero;fill:rgb(39.99939%,39.99939%,39.99939%);fill-opacity:0.3;" d="M 133.863281 247.976562 L 148.933594 249.269531 L 144.101562 301.105469 L 133.050781 300.164062 L 129.078125 299.796875 Z M 133.863281 247.976562 "/>
<path style=" stroke:none;fill-rule:nonzero;fill:rgb(39.99939%,39.99939%,39.99939%);fill-opacity:0.3;" d="M 77.632812 243.140625 L 95.789062 244.703125 L 90.988281 296.28125 L 73.035156 294.625 Z M 77.632812 243.140625 "/>
<path style=" stroke:none;fill-rule:nonzero;fill:rgb(39.99939%,39.99939%,39.99939%);fill-opacity:0.3;" d="M 98.59375 244.945312 L 113.9375 246.261719 L 109.128906 297.957031 L 93.777344 296.539062 Z M 98.59375 244.945312 "/>
<path style=" stroke:none;fill-rule:nonzero;fill:rgb(39.99939%,39.99939%,39.99939%);fill-opacity:0.3;" d="M 150.648438 249.453125 L 165.972656 250.773438 L 161.054688 302.792969 L 148.820312 301.664062 L 146.125 301.277344 L 145.847656 301.253906 Z M 150.648438 249.453125 "/>
<path style=" stroke:none;fill-rule:nonzero;fill:rgb(39.99939%,39.99939%,39.99939%);fill-opacity:0.3;" d="M 61.875 180.320312 L 80.394531 181.589844 L 75.003906 239.519531 L 56.574219 237.277344 Z M 61.875 180.320312 "/>
<path style=" stroke:none;fill-rule:nonzero;fill:rgb(39.99939%,39.99939%,39.99939%);fill-opacity:0.3;" d="M 68.574219 115.449219 L 86.402344 117.039062 L 80.925781 177.859375 L 62.210938 176.6875 L 65.75 138.679688 L 65.9375 137.554688 Z M 68.574219 115.449219 "/>
<path style=" stroke:none;fill-rule:nonzero;fill:rgb(39.99939%,39.99939%,39.99939%);fill-opacity:0.3;" d="M 139.699219 185.652344 L 154.765625 186.683594 L 149.332031 244.988281 L 134.277344 243.902344 Z M 139.699219 185.652344 "/>
<path style=" stroke:none;fill-rule:nonzero;fill:rgb(39.99939%,39.99939%,39.99939%);fill-opacity:0.3;" d="M 104.75 183.257812 L 119.707031 184.285156 L 114.292969 242.460938 L 98.929688 241.355469 Z M 104.75 183.257812 "/>
<path style=" stroke:none;fill-rule:nonzero;fill:rgb(39.99939%,39.99939%,39.99939%);fill-opacity:0.3;" d="M 122.410156 184.46875 L 136.90625 185.460938 L 131.484375 243.699219 L 117.085938 242.664062 Z M 122.410156 184.46875 "/>
<path style=" stroke:none;fill-rule:nonzero;fill:rgb(39.99939%,39.99939%,39.99939%);fill-opacity:0.3;" d="M 83.1875 181.78125 L 101.527344 183.039062 L 96.117188 241.152344 L 77.789062 239.832031 Z M 83.1875 181.78125 "/>
<path style=" stroke:none;fill-rule:nonzero;fill:rgb(39.99939%,39.99939%,39.99939%);fill-opacity:0.3;" d="M 157.105469 186.871094 L 172.566406 187.933594 L 167.050781 246.292969 L 151.699219 245.1875 Z M 157.105469 186.871094 "/>
<path style=" stroke:none;fill-rule:nonzero;fill:rgb(39.99939%,39.99939%,39.99939%);fill-opacity:0.3;" d="M 114.222656 106.730469 L 116.605469 106.824219 L 116.421875 109.125 L 118.835938 109.21875 L 119.019531 106.921875 L 121.347656 107.011719 L 120.695312 115.183594 L 118.363281 115.089844 L 118.585938 112.328125 L 116.171875 112.230469 L 115.953125 114.996094 L 113.570312 114.902344 Z M 114.222656 106.730469 "/>
<path style=" stroke:none;fill-rule:nonzero;fill:rgb(39.99939%,39.99939%,39.99939%);fill-opacity:0.3;" d="M 115.453125 91.679688 L 117.835938 91.773438 L 117.652344 94.074219 L 120.0625 94.171875 L 120.246094 91.871094 L 122.578125 91.964844 L 121.925781 100.132812 L 119.59375 100.042969 L 119.816406 97.277344 L 117.402344 97.183594 L 117.179688 99.945312 L 114.800781 99.851562 Z M 115.453125 91.679688 "/>
<path style=" stroke:none;fill-rule:nonzero;fill:rgb(39.99939%,39.99939%,39.99939%);fill-opacity:0.3;" d="M 128.425781 120.785156 L 142.804688 122.066406 L 137.304688 181.1875 L 122.886719 180.320312 Z M 128.425781 120.785156 "/>
<path style=" stroke:none;fill-rule:nonzero;fill:rgb(39.99939%,39.99939%,39.99939%);fill-opacity:0.3;" d="M 110.335938 119.171875 L 125.636719 120.535156 L 120.089844 180.15625 L 104.730469 179.234375 Z M 110.335938 119.171875 "/>
<path style=" stroke:none;fill-rule:nonzero;fill:rgb(39.99939%,39.99939%,39.99939%);fill-opacity:0.3;" d="M 134.398438 56.605469 L 148.78125 57.851562 L 143.1875 117.957031 L 128.804688 116.726562 Z M 134.398438 56.605469 "/>
<path style=" stroke:none;fill-rule:nonzero;fill:rgb(39.99939%,39.99939%,39.99939%);fill-opacity:0.3;" d="M 89.191406 117.285156 L 107.492188 118.917969 L 101.894531 179.0625 L 83.542969 177.964844 Z M 89.191406 117.285156 "/>
<path style=" stroke:none;fill-rule:nonzero;fill:rgb(39.99939%,39.99939%,39.99939%);fill-opacity:0.3;" d="M 95.152344 53.207031 L 113.460938 54.792969 L 107.863281 114.933594 L 89.554688 113.367188 Z M 95.152344 53.207031 "/>
<path style=" stroke:none;fill-rule:nonzero;fill:rgb(39.99939%,39.99939%,39.99939%);fill-opacity:0.3;" d="M 74.636719 51.429688 L 92.363281 52.964844 L 86.765625 113.128906 L 69.007812 111.609375 Z M 74.636719 51.429688 "/>
<path style=" stroke:none;fill-rule:nonzero;fill:rgb(39.99939%,39.99939%,39.99939%);fill-opacity:0.3;" d="M 163.335938 123.898438 L 178.878906 125.285156 L 173.394531 183.347656 L 157.914062 182.421875 Z M 163.335938 123.898438 "/>
<path style=" stroke:none;fill-rule:nonzero;fill:rgb(39.99939%,39.99939%,39.99939%);fill-opacity:0.3;" d="M 145.59375 122.316406 L 160.640625 123.65625 L 155.179688 182.257812 L 140.097656 181.355469 Z M 145.59375 122.316406 "/>
<path style=" stroke:none;fill-rule:nonzero;fill:rgb(39.99939%,39.99939%,39.99939%);fill-opacity:0.3;" d="M 169.292969 59.628906 L 183.960938 60.902344 L 179.28125 121.050781 L 163.726562 119.71875 Z M 169.292969 59.628906 "/>
<path style=" stroke:none;fill-rule:nonzero;fill:rgb(39.99939%,39.99939%,39.99939%);fill-opacity:0.3;" d="M 151.570312 58.09375 L 166.628906 59.398438 L 161.027344 119.488281 L 145.976562 118.199219 Z M 151.570312 58.09375 "/>
<path style=" stroke:none;fill-rule:nonzero;fill:rgb(39.99939%,39.99939%,39.99939%);fill-opacity:0.3;" d="M 116.324219 55.039062 L 131.609375 56.363281 L 126.015625 116.488281 L 110.710938 115.179688 Z M 116.324219 55.039062 "/>
<path style=" stroke:none;fill-rule:nonzero;fill:rgb(39.99939%,39.99939%,39.99939%);fill-opacity:0.3;" d="M 86.539062 34.359375 L 95.332031 35.277344 L 94.203125 43.332031 L 85.414062 42.410156 Z M 86.539062 34.359375 "/>
<path style=" stroke:none;fill-rule:nonzero;fill:rgb(39.99939%,39.99939%,39.99939%);fill-opacity:0.3;" d="M 53.152344 21.023438 L 51.464844 17.613281 L 49.703125 13.984375 L 48.140625 10.273438 L 46.785156 6.492188 L 45.640625 2.648438 L 44.707031 -1.246094 L 44.445312 -2.683594 L 43.992188 -5.183594 L 44.992188 -5.082031 L 108.625 1.324219 L 95.976562 45.472656 L 95.894531 45.757812 L 82.234375 44.363281 L 81.957031 44.332031 L 80.335938 44.105469 L 78.730469 43.800781 L 77.6875 43.546875 L 77.140625 43.414062 L 75.578125 42.949219 L 74.039062 42.40625 L 72.535156 41.789062 L 71.066406 41.097656 L 69.636719 40.335938 L 68.253906 39.503906 L 66.917969 38.601562 L 65.632812 37.636719 L 64.402344 36.609375 L 63.230469 35.523438 L 62.121094 34.378906 L 61.152344 33.269531 L 60.21875 32.214844 L 58.816406 30.492188 L 57.511719 28.699219 L 56.304688 26.847656 L 55.203125 24.933594 L 54.210938 22.972656 Z M 53.152344 21.023438 "/>
<path style=" stroke:none;fill-rule:nonzero;fill:rgb(39.99939%,39.99939%,39.99939%);fill-opacity:0.3;" d="M 66.144531 41.984375 L 66.335938 42.136719 L 35.023438 38.488281 L 42.691406 0.277344 L 43.152344 4.914062 L 44.5625 9.5 L 46.21875 14.007812 L 48.125 18.425781 L 50.269531 22.746094 L 52.652344 26.953125 L 53.660156 28.816406 L 54.726562 30.558594 L 55.886719 32.242188 L 57.136719 33.871094 L 58.476562 35.429688 L 59.898438 36.921875 L 61.402344 38.34375 L 62.980469 39.6875 L 64.632812 40.949219 L 65.859375 41.789062 Z M 66.144531 41.984375 "/>
<path style=" stroke:none;fill-rule:nonzero;fill:rgb(39.99939%,39.99939%,39.99939%);fill-opacity:0.3;" d="M 80.105469 6.476562 L 88.898438 7.398438 L 87.769531 15.453125 L 78.980469 14.53125 Z M 80.105469 6.476562 "/>
<path style=" stroke:none;fill-rule:nonzero;fill:rgb(39.99939%,39.99939%,39.99939%);fill-opacity:0.3;" d="M 95.039062 7.089844 L 103.832031 8.007812 L 102.703125 16.0625 L 93.914062 15.140625 Z M 95.039062 7.089844 "/>
<path style=" stroke:none;fill-rule:nonzero;fill:rgb(39.99939%,39.99939%,39.99939%);fill-opacity:0.3;" d="M 88.65625 15.84375 L 97.449219 16.765625 L 96.320312 24.816406 L 87.53125 23.898438 Z M 88.65625 15.84375 "/>
<path style=" stroke:none;fill-rule:nonzero;fill:rgb(39.99939%,39.99939%,39.99939%);fill-opacity:0.3;" d="M 89.90625 24.761719 L 98.695312 25.683594 L 97.570312 33.738281 L 88.777344 32.816406 Z M 89.90625 24.761719 "/>
<path style=" stroke:none;fill-rule:nonzero;fill:rgb(39.99939%,39.99939%,39.99939%);fill-opacity:0.3;" d="M 118.59375 1.316406 L 212.425781 9.3125 L 199.285156 54.160156 L 105.261719 46.957031 Z M 118.59375 1.316406 "/>
<path style=" stroke:none;fill-rule:nonzero;fill:rgb(39.99939%,39.99939%,39.99939%);fill-opacity:0.3;" d="M 142.335938 -82.699219 L 194.164062 -69.980469 L 187.058594 -40.808594 L 188.238281 -40.695312 L 189.125 -40.613281 L 196.433594 -69.589844 L 212.273438 -65.402344 L 203.164062 -34.652344 L 203.828125 -34.511719 L 205.023438 -34.261719 L 214.03125 -64.96875 L 232.398438 -60.554688 L 234 -60.03125 L 234.875 -59 L 235.042969 -57.769531 L 214.273438 4.902344 L 213.238281 6.210938 L 211.746094 6.703125 L 119.148438 -0.847656 Z M 142.335938 -82.699219 "/>
<path style=" stroke:none;fill-rule:nonzero;fill:rgb(39.99939%,39.99939%,39.99939%);fill-opacity:0.3;" d="M 8.332031 -29.390625 L 21.429688 -27.90625 L 6.726562 36.496094 L -6.460938 35.402344 Z M 8.332031 -29.390625 "/>
<path style=" stroke:none;fill-rule:nonzero;fill:rgb(39.99939%,39.99939%,39.99939%);fill-opacity:0.3;" d="M -7.242188 -31.148438 L 4.402344 -29.832031 L -10.464844 35.242188 L -22.195312 34.347656 Z M -7.242188 -31.148438 "/>
<path style=" stroke:none;fill-rule:nonzero;fill:rgb(39.99939%,39.99939%,39.99939%);fill-opacity:0.3;" d="M 24.378906 -27.574219 L 39.238281 -25.894531 L 24.664062 37.945312 L 9.6875 36.769531 Z M 24.378906 -27.574219 "/>
<path style=" stroke:none;fill-rule:nonzero;fill:rgb(39.99939%,39.99939%,39.99939%);fill-opacity:0.3;" d="M 216.195312 5.535156 L 255.417969 12.640625 L 240.554688 53.753906 L 238.492188 56.691406 L 237.523438 57.148438 L 214.324219 55.632812 L 201.335938 54.335938 Z M 216.195312 5.535156 "/>
<g clip-path="url(#clip16)" clip-rule="nonzero">
<path style=" stroke:none;fill-rule:nonzero;fill:rgb(39.99939%,39.99939%,39.99939%);fill-opacity:0.3;" d="M 308.101562 -117.730469 L 331.40625 -107.15625 L 330.269531 -103.949219 L 350.484375 -96.039062 L 344.953125 -82.136719 L 338.148438 -83.613281 L 336.75 -79.699219 L 335.347656 -75.785156 L 343.4375 -73.898438 L 352.003906 -95.421875 L 367.535156 -90.078125 L 362.269531 -77.484375 L 362.8125 -77.183594 L 363.523438 -76.792969 L 368.839844 -89.5625 L 385.671875 -82.878906 L 380.71875 -66.476562 L 381.296875 -66.070312 L 381.992188 -65.578125 L 387.84375 -82.675781 L 390.851562 -81.09375 L 377.992188 -47.742188 L 352.671875 -58.339844 L 357.34375 -69.757812 L 356.59375 -69.917969 L 355.839844 -70.074219 L 351.164062 -58.65625 L 346.613281 -60.203125 L 345.007812 -57.011719 L 338.046875 -59.253906 L 343.3125 -69.457031 L 342.703125 -69.582031 L 342.09375 -69.703125 L 337.050781 -59.472656 L 330.429688 -61.816406 L 328.757812 -60.386719 L 346.316406 -55.003906 L 348.410156 -58.265625 L 356.488281 -55.421875 L 356.488281 -53.96875 L 376.613281 -46.507812 L 369.785156 -16.957031 L 349.65625 -22.152344 L 355.179688 -37.582031 L 341.367188 -43.226562 L 341.070312 -42.339844 L 340.769531 -41.433594 L 352.570312 -36.589844 L 348.921875 -26.089844 L 326.917969 -32.898438 L 326.488281 -32.257812 L 325.914062 -31.398438 L 344.316406 -25.410156 L 340.824219 -14.785156 L 324.597656 -19.304688 L 324.304688 -18.703125 L 323.933594 -17.945312 L 340.324219 -13.039062 L 337.570312 -6.140625 L 332.691406 8.027344 L 308.050781 2.054688 L 312.058594 -11.847656 L 311.460938 -12.105469 L 310.863281 -12.359375 L 306.46875 1.566406 L 294.910156 -1.128906 L 297.726562 -11.734375 L 292.1875 -13.175781 L 291.96875 -12.554688 L 291.753906 -11.9375 L 296.136719 -10.753906 L 293.28125 -1.128906 L 269.097656 -7.09375 L 268.242188 -7.785156 L 267.386719 -8.710938 L 267.632812 -9.984375 L 271.929688 -20.660156 L 289.46875 -17.292969 L 289.632812 -17.753906 L 289.796875 -18.21875 L 272.203125 -21.707031 L 281.214844 -43.84375 L 286.378906 -42.726562 L 284.792969 -38.988281 L 294.636719 -37.1875 L 294.761719 -37.921875 L 294.882812 -38.65625 L 287.019531 -39.863281 L 288.585938 -41.355469 L 297.382812 -39.199219 L 313.347656 -36.015625 L 316.355469 -44.792969 L 329.417969 -39.40625 L 329.804688 -39.933594 L 330.175781 -40.433594 L 316.597656 -45.574219 L 317.617188 -49.175781 L 331.804688 -44.070312 L 332.085938 -45.039062 L 318.117188 -50.34375 L 321.9375 -66.355469 L 321.558594 -66.507812 L 320.960938 -66.75 L 312.589844 -37.882812 L 298.46875 -40.949219 L 303.328125 -55.761719 L 305.988281 -55.328125 L 308.917969 -63.683594 L 308.164062 -63.894531 L 307.105469 -64.195312 L 304.519531 -56.980469 L 302.550781 -57.648438 L 296.839844 -41.566406 L 282.070312 -46.089844 L 282.3125 -47.296875 L 285.742188 -56.097656 L 287.117188 -55.789062 L 291.5625 -54.625 L 298.960938 -52.6875 L 299.097656 -53.023438 L 299.234375 -53.355469 L 296.796875 -54.113281 L 287.523438 -56.984375 L 286.273438 -57.457031 L 289.542969 -65.855469 L 298.996094 -62.902344 L 299.097656 -63.355469 L 299.199219 -63.804688 L 290.09375 -66.898438 L 295.132812 -80.210938 L 313.480469 -73.695312 L 313.71875 -74.210938 L 313.953125 -74.722656 L 295.589844 -81.339844 L 298.730469 -90.238281 L 321.171875 -78.878906 L 321.636719 -79.765625 L 322.105469 -80.652344 L 299.351562 -91.867188 Z M 308.101562 -117.730469 "/>
</g>
<path style=" stroke:none;fill-rule:nonzero;fill:rgb(39.99939%,39.99939%,39.99939%);fill-opacity:0.3;" d="M 336.914062 41.535156 L 338.621094 41.941406 L 338.046875 44.011719 L 340.425781 44.578125 L 340.996094 42.511719 L 343.015625 42.992188 L 339.960938 54.03125 L 337.941406 53.546875 L 338.554688 51.335938 L 336.179688 50.765625 L 335.566406 52.980469 L 333.859375 52.570312 Z M 336.914062 41.535156 "/>
<path style=" stroke:none;fill-rule:nonzero;fill:rgb(39.99939%,39.99939%,39.99939%);fill-opacity:0.3;" d="M 351.285156 32 L 353.035156 32.199219 L 352.742188 34.320312 L 355.179688 34.59375 L 355.46875 32.472656 L 357.535156 32.707031 L 355.984375 44.023438 L 353.917969 43.789062 L 354.230469 41.523438 L 351.796875 41.246094 L 351.484375 43.515625 L 349.734375 43.316406 Z M 351.285156 32 "/>
<path style=" stroke:none;fill-rule:nonzero;fill:rgb(39.99939%,39.99939%,39.99939%);fill-opacity:0.3;" d="M 337.410156 28.066406 L 339.117188 28.476562 L 338.542969 30.542969 L 340.921875 31.113281 L 341.496094 29.042969 L 343.511719 29.527344 L 340.457031 40.5625 L 338.4375 40.082031 L 339.050781 37.867188 L 336.675781 37.300781 L 336.0625 39.511719 L 334.355469 39.105469 Z M 337.410156 28.066406 "/>
<g clip-path="url(#clip17)" clip-rule="nonzero">
<path style=" stroke:none;fill-rule:nonzero;fill:rgb(39.99939%,39.99939%,39.99939%);fill-opacity:0.3;" d="M 348.925781 -20.597656 L 369.296875 -14.761719 L 367.742188 -8.832031 L 353.746094 -11.972656 L 353.644531 -11.488281 L 353.542969 -11 L 367.820312 -7.882812 L 393.335938 4.054688 L 385.996094 22.132812 L 334.851562 8.84375 L 343.886719 -18.222656 L 348.277344 -17.761719 Z M 348.925781 -20.597656 "/>
</g>
<path style=" stroke:none;fill-rule:nonzero;fill:rgb(39.99939%,39.99939%,39.99939%);fill-opacity:0.3;" d="M 262.4375 -5.847656 L 257.695312 6.539062 L 257.28125 7.578125 L 255.949219 11.238281 L 216.800781 3.816406 L 223.996094 -16.644531 L 228.066406 -27.910156 L 268.261719 -19.492188 L 263.171875 -7.851562 L 237.3125 -13.65625 L 237.019531 -12.625 L 236.726562 -11.351562 Z M 262.4375 -5.847656 "/>
<path style=" stroke:none;fill-rule:nonzero;fill:rgb(39.99939%,39.99939%,39.99939%);fill-opacity:0.3;" d="M 315.09375 28.257812 L 314.144531 32.992188 L 312.195312 41.6875 L 313.148438 42.488281 L 308.394531 63.09375 L 289.742188 61.996094 L 293.332031 40.1875 L 294.285156 40.390625 L 295.023438 33.957031 L 294.582031 33.875 L 294.144531 33.796875 L 293.648438 38.179688 L 292.589844 38.078125 L 288.683594 61.597656 L 245.6875 57.882812 L 242.574219 57.554688 L 254.84375 23.691406 L 274.160156 28.703125 L 274.222656 27.972656 L 274.285156 27.246094 L 254.996094 22.238281 L 266.152344 -4.96875 L 326.070312 9.917969 L 323.890625 19.207031 L 321.957031 19.8125 L 321.347656 22.859375 L 314.320312 22.25 L 314.273438 23.71875 L 323.359375 24.703125 L 323.109375 26.480469 L 320.140625 26.199219 L 320.183594 25.359375 L 311.65625 24.476562 L 311.53125 25.804688 L 320.011719 26.804688 L 319.886719 27.691406 L 311.066406 26.449219 L 311.003906 27.03125 L 310.9375 27.613281 Z M 315.09375 28.257812 "/>
<g clip-path="url(#clip18)" clip-rule="nonzero">
<path style=" stroke:none;fill-rule:nonzero;fill:rgb(39.99939%,39.99939%,39.99939%);fill-opacity:0.3;" d="M 315.132812 33.792969 L 316.253906 28.472656 L 329.015625 30.375 L 329.160156 29.488281 L 329.308594 28.605469 L 324.320312 27.734375 L 324.605469 26.113281 L 329.558594 26.894531 L 329.679688 26.25 L 329.800781 25.609375 L 324.640625 24.761719 L 327.179688 10.289062 L 344.925781 14.523438 L 341.679688 26.5 L 343.5625 26.851562 L 346.941406 15.167969 L 385.203125 23.914062 L 366.25 62.773438 L 362.660156 64.6875 L 359.351562 65.503906 L 354.035156 66.871094 L 344.835938 66.605469 L 350.132812 32.523438 L 348.914062 32.304688 L 347.695312 32.082031 L 342.101562 66.195312 L 309.453125 63.292969 L 314.316406 42.488281 L 313.785156 41.484375 Z M 315.132812 33.792969 "/>
</g>
<path style=" stroke:none;fill-rule:nonzero;fill:rgb(39.99939%,39.99939%,39.99939%);fill-opacity:0.3;" d="M -4.003906 233.605469 L 10.828125 234.910156 L 5.515625 289.433594 L -9.316406 288.125 Z M -4.003906 233.605469 "/>
<path style=" stroke:none;fill-rule:nonzero;fill:rgb(39.99939%,39.99939%,39.99939%);fill-opacity:0.3;" d="M 35.132812 237.359375 L 52.207031 240.328125 L 47.125 292.875 L 44.945312 292.667969 L 33.640625 250.828125 Z M 35.132812 237.359375 "/>
<path style=" stroke:none;fill-rule:nonzero;fill:rgb(39.99939%,39.99939%,39.99939%);fill-opacity:0.3;" d="M 15.953125 235.367188 L 31.585938 236.742188 L 26.28125 291.164062 L 23.550781 291.023438 L 10.636719 289.882812 Z M 15.953125 235.367188 "/>
<path style=" stroke:none;fill-rule:nonzero;fill:rgb(39.99939%,39.99939%,39.99939%);fill-opacity:0.3;" d="M 32.039062 254.769531 L 39.40625 280.976562 L 38.492188 292.097656 L 28.6875 291.304688 Z M 32.039062 254.769531 "/>
<path style=" stroke:none;fill-rule:nonzero;fill:rgb(39.99939%,39.99939%,39.99939%);fill-opacity:0.3;" d="M 1.761719 174.472656 L 16.59375 175.777344 L 11.28125 230.253906 L -3.550781 228.945312 Z M 1.761719 174.472656 "/>
<path style=" stroke:none;fill-rule:nonzero;fill:rgb(39.99939%,39.99939%,39.99939%);fill-opacity:0.3;" d="M 40.222656 177.210938 L 56.464844 178.515625 L 52.363281 236.386719 L 35.359375 232.789062 Z M 40.222656 177.210938 "/>
<path style=" stroke:none;fill-rule:nonzero;fill:rgb(39.99939%,39.99939%,39.99939%);fill-opacity:0.3;" d="M 21.71875 176.230469 L 37.351562 177.609375 L 32.039062 232.085938 L 16.40625 230.707031 Z M 21.71875 176.230469 "/>
<path style=" stroke:none;fill-rule:nonzero;fill:rgb(39.99939%,39.99939%,39.99939%);fill-opacity:0.3;" d="M -12.960938 142.179688 L 1.171875 143.410156 L -1.488281 170.695312 L -15.617188 169.402344 Z M -12.960938 142.179688 "/>
<path style=" stroke:none;fill-rule:nonzero;fill:rgb(39.99939%,39.99939%,39.99939%);fill-opacity:0.3;" d="M 4.757812 143.726562 L 19.589844 145.035156 L 16.929688 172.320312 L 2.097656 171.011719 Z M 4.757812 143.726562 "/>
<path style=" stroke:none;fill-rule:nonzero;fill:rgb(39.99939%,39.99939%,39.99939%);fill-opacity:0.3;" d="M 40.976562 105.730469 L 47.175781 121.441406 L 53.039062 135.789062 L 57.578125 147.417969 L 58.242188 149.640625 L 59.015625 152.992188 L 59.234375 159.632812 L 58.804688 175.660156 L 41.234375 174.625 L 43.324219 156.707031 L 44.636719 141.382812 L 44.855469 135.933594 L 45.070312 127.816406 L 44.84375 121.53125 L 44.179688 118.597656 L 43.070312 114.09375 Z M 40.976562 105.730469 "/>
<path style=" stroke:none;fill-rule:nonzero;fill:rgb(39.99939%,39.99939%,39.99939%);fill-opacity:0.3;" d="M 24.714844 145.488281 L 40.125 146.847656 L 37.6875 174.148438 L 22.054688 172.769531 Z M 24.714844 145.488281 "/>
<path style=" stroke:none;fill-rule:nonzero;fill:rgb(39.99939%,39.99939%,39.99939%);fill-opacity:0.3;" d="M 29.875 48.242188 L 71.378906 51.308594 L 62.96875 142.421875 L 60.984375 142.121094 L 49.570312 115.589844 L 43.957031 102.382812 L 39.640625 91.078125 L 34.738281 79.5625 L 31.261719 69.855469 L 29.265625 60.769531 L 29.039062 55.449219 Z M 29.875 48.242188 "/>
<path style=" stroke:none;fill-rule:nonzero;fill:rgb(39.99939%,39.99939%,39.99939%);fill-opacity:0.3;" d="M -41.59375 41.023438 L 19.359375 46.757812 L 20.289062 48.027344 L 20.507812 50.734375 L 20.035156 53.445312 L 19.566406 56.15625 L 19.226562 60.070312 L 19.257812 64.734375 L 19.742188 68.226562 L 21.328125 74.347656 L 23.40625 80.292969 L 26.8125 87.675781 L 30.730469 96.128906 L 34.160156 103.582031 L 36.808594 110.445312 L 38.496094 115.640625 L 39.597656 121.515625 L 40.066406 128.625 L 39.269531 143.546875 L -50.476562 136.652344 Z M -41.59375 41.023438 "/>
<path style=" stroke:none;fill-rule:nonzero;fill:rgb(39.99939%,39.99939%,39.99939%);fill-opacity:0.3;" d="M 67.914062 115.390625 L 68.574219 115.449219 L 65.9375 137.554688 L 65.75 138.679688 Z M 67.914062 115.390625 "/>
<path style=" stroke:none;fill-rule:nonzero;fill:rgb(39.99939%,39.99939%,39.99939%);fill-opacity:0.3;" d="M 73.890625 51.363281 L 74.636719 51.429688 L 69.007812 111.609375 L 68.273438 111.546875 Z M 73.890625 51.363281 "/>
<path style="fill-rule:nonzero;fill:rgb(39.99939%,39.99939%,39.99939%);fill-opacity:1;stroke-width:0.03;stroke-linecap:square;stroke-linejoin:miter;stroke:rgb(39.99939%,39.99939%,39.99939%);stroke-opacity:1;stroke-miterlimit:3.239307;" d="M 243.320312 255.851562 L 275.5625 261.53125 L 265.457031 321.570312 L 251.097656 319.460938 L 238.316406 316.875 L 237.15625 316.710938 Z M 243.320312 255.851562 " transform="matrix(1,0,0,1,-74,-13)"/>
<path style="fill-rule:nonzero;fill:rgb(39.99939%,39.99939%,39.99939%);fill-opacity:1;stroke-width:0.03;stroke-linecap:square;stroke-linejoin:miter;stroke:rgb(39.99939%,39.99939%,39.99939%);stroke-opacity:1;stroke-miterlimit:3.239307;" d="M 254.867188 138.542969 L 297.25 142.488281 L 276.664062 258.40625 L 243.703125 253.167969 Z M 254.867188 138.542969 " transform="matrix(1,0,0,1,-74,-13)"/>
<path style="fill-rule:nonzero;fill:rgb(39.99939%,39.99939%,39.99939%);fill-opacity:1;stroke-width:0.03;stroke-linecap:square;stroke-linejoin:miter;stroke:rgb(39.99939%,39.99939%,39.99939%);stroke-opacity:1;stroke-miterlimit:3.239307;" d="M 257.609375 107.226562 L 303.152344 111.433594 L 298.734375 138.335938 L 255.238281 134.320312 Z M 257.609375 107.226562 " transform="matrix(1,0,0,1,-74,-13)"/>
<path style="fill-rule:nonzero;fill:rgb(39.99939%,39.99939%,39.99939%);fill-opacity:1;stroke-width:0.03;stroke-linecap:square;stroke-linejoin:miter;stroke:rgb(39.99939%,39.99939%,39.99939%);stroke-opacity:1;stroke-miterlimit:3.239307;" d="M 260.503906 74.15625 L 308.675781 78.378906 L 303.800781 107.488281 L 258.109375 103.269531 Z M 260.503906 74.15625 " transform="matrix(1,0,0,1,-74,-13)"/>
<path style="fill-rule:nonzero;fill:rgb(39.99939%,39.99939%,39.99939%);fill-opacity:1;stroke-width:0.03;stroke-linecap:square;stroke-linejoin:miter;stroke:rgb(39.99939%,39.99939%,39.99939%);stroke-opacity:1;stroke-miterlimit:3.239307;" d="M 311.523438 70.148438 L 310.132812 70.808594 L 288.324219 68.632812 Z M 311.523438 70.148438 " transform="matrix(1,0,0,1,-74,-13)"/>
<path style="fill-rule:nonzero;fill:rgb(39.99939%,39.99939%,39.99939%);fill-opacity:1;stroke-width:0.03;stroke-linecap:square;stroke-linejoin:miter;stroke:rgb(39.99939%,39.99939%,39.99939%);stroke-opacity:1;stroke-miterlimit:3.239307;" d="M 130.226562 254.027344 L 148.695312 255.859375 L 143.917969 307.191406 L 125.429688 305.589844 Z M 130.226562 254.027344 " transform="matrix(1,0,0,1,-74,-13)"/>
<path style="fill-rule:nonzero;fill:rgb(39.99939%,39.99939%,39.99939%);fill-opacity:1;stroke-width:0.03;stroke-linecap:square;stroke-linejoin:miter;stroke:rgb(39.99939%,39.99939%,39.99939%);stroke-opacity:1;stroke-miterlimit:3.239307;" d="M 190.726562 259.503906 L 205.109375 260.738281 L 200.289062 312.539062 L 185.914062 311.214844 Z M 190.726562 259.503906 " transform="matrix(1,0,0,1,-74,-13)"/>
<path style="fill-rule:nonzero;fill:rgb(39.99939%,39.99939%,39.99939%);fill-opacity:1;stroke-width:0.03;stroke-linecap:square;stroke-linejoin:miter;stroke:rgb(39.99939%,39.99939%,39.99939%);stroke-opacity:1;stroke-miterlimit:3.239307;" d="M 207.863281 260.976562 L 222.933594 262.269531 L 218.101562 314.105469 L 207.050781 313.164062 L 203.078125 312.796875 Z M 207.863281 260.976562 " transform="matrix(1,0,0,1,-74,-13)"/>
<path style="fill-rule:nonzero;fill:rgb(39.99939%,39.99939%,39.99939%);fill-opacity:1;stroke-width:0.03;stroke-linecap:square;stroke-linejoin:miter;stroke:rgb(39.99939%,39.99939%,39.99939%);stroke-opacity:1;stroke-miterlimit:3.239307;" d="M 151.632812 256.140625 L 169.789062 257.703125 L 164.988281 309.28125 L 147.035156 307.625 Z M 151.632812 256.140625 " transform="matrix(1,0,0,1,-74,-13)"/>
<path style="fill-rule:nonzero;fill:rgb(39.99939%,39.99939%,39.99939%);fill-opacity:1;stroke-width:0.03;stroke-linecap:square;stroke-linejoin:miter;stroke:rgb(39.99939%,39.99939%,39.99939%);stroke-opacity:1;stroke-miterlimit:3.239307;" d="M 172.59375 257.945312 L 187.9375 259.261719 L 183.128906 310.957031 L 167.777344 309.539062 Z M 172.59375 257.945312 " transform="matrix(1,0,0,1,-74,-13)"/>
<path style="fill-rule:nonzero;fill:rgb(39.99939%,39.99939%,39.99939%);fill-opacity:1;stroke-width:0.03;stroke-linecap:square;stroke-linejoin:miter;stroke:rgb(39.99939%,39.99939%,39.99939%);stroke-opacity:1;stroke-miterlimit:3.239307;" d="M 224.648438 262.453125 L 239.972656 263.773438 L 235.054688 315.792969 L 222.820312 314.664062 L 220.125 314.277344 L 219.847656 314.253906 Z M 224.648438 262.453125 " transform="matrix(1,0,0,1,-74,-13)"/>
<path style="fill-rule:nonzero;fill:rgb(39.99939%,39.99939%,39.99939%);fill-opacity:1;stroke-width:0.03;stroke-linecap:square;stroke-linejoin:miter;stroke:rgb(39.99939%,39.99939%,39.99939%);stroke-opacity:1;stroke-miterlimit:3.239307;" d="M 135.875 193.320312 L 154.394531 194.589844 L 149.003906 252.519531 L 130.574219 250.277344 Z M 135.875 193.320312 " transform="matrix(1,0,0,1,-74,-13)"/>
<path style="fill-rule:nonzero;fill:rgb(39.99939%,39.99939%,39.99939%);fill-opacity:1;stroke-width:0.03;stroke-linecap:square;stroke-linejoin:miter;stroke:rgb(39.99939%,39.99939%,39.99939%);stroke-opacity:1;stroke-miterlimit:3.239307;" d="M 142.574219 128.449219 L 160.402344 130.039062 L 154.925781 190.859375 L 136.210938 189.6875 L 139.75 151.679688 L 139.9375 150.554688 Z M 142.574219 128.449219 " transform="matrix(1,0,0,1,-74,-13)"/>
<path style="fill-rule:nonzero;fill:rgb(39.99939%,39.99939%,39.99939%);fill-opacity:1;stroke-width:0.03;stroke-linecap:square;stroke-linejoin:miter;stroke:rgb(39.99939%,39.99939%,39.99939%);stroke-opacity:1;stroke-miterlimit:3.239307;" d="M 213.699219 198.652344 L 228.765625 199.683594 L 223.332031 257.988281 L 208.277344 256.902344 Z M 213.699219 198.652344 " transform="matrix(1,0,0,1,-74,-13)"/>
<path style="fill-rule:nonzero;fill:rgb(39.99939%,39.99939%,39.99939%);fill-opacity:1;stroke-width:0.03;stroke-linecap:square;stroke-linejoin:miter;stroke:rgb(39.99939%,39.99939%,39.99939%);stroke-opacity:1;stroke-miterlimit:3.239307;" d="M 178.75 196.257812 L 193.707031 197.285156 L 188.292969 255.460938 L 172.929688 254.355469 Z M 178.75 196.257812 " transform="matrix(1,0,0,1,-74,-13)"/>
<path style="fill-rule:nonzero;fill:rgb(39.99939%,39.99939%,39.99939%);fill-opacity:1;stroke-width:0.03;stroke-linecap:square;stroke-linejoin:miter;stroke:rgb(39.99939%,39.99939%,39.99939%);stroke-opacity:1;stroke-miterlimit:3.239307;" d="M 196.410156 197.46875 L 210.90625 198.460938 L 205.484375 256.699219 L 191.085938 255.664062 Z M 196.410156 197.46875 " transform="matrix(1,0,0,1,-74,-13)"/>
<path style="fill-rule:nonzero;fill:rgb(39.99939%,39.99939%,39.99939%);fill-opacity:1;stroke-width:0.03;stroke-linecap:square;stroke-linejoin:miter;stroke:rgb(39.99939%,39.99939%,39.99939%);stroke-opacity:1;stroke-miterlimit:3.239307;" d="M 157.1875 194.78125 L 175.527344 196.039062 L 170.117188 254.152344 L 151.789062 252.832031 Z M 157.1875 194.78125 " transform="matrix(1,0,0,1,-74,-13)"/>
<path style="fill-rule:nonzero;fill:rgb(39.99939%,39.99939%,39.99939%);fill-opacity:1;stroke-width:0.03;stroke-linecap:square;stroke-linejoin:miter;stroke:rgb(39.99939%,39.99939%,39.99939%);stroke-opacity:1;stroke-miterlimit:3.239307;" d="M 231.105469 199.871094 L 246.566406 200.933594 L 241.050781 259.292969 L 225.699219 258.1875 Z M 231.105469 199.871094 " transform="matrix(1,0,0,1,-74,-13)"/>
<path style="fill-rule:nonzero;fill:rgb(39.99939%,39.99939%,39.99939%);fill-opacity:1;stroke-width:0.03;stroke-linecap:square;stroke-linejoin:miter;stroke:rgb(39.99939%,39.99939%,39.99939%);stroke-opacity:1;stroke-miterlimit:3.239307;" d="M 188.222656 119.730469 L 190.605469 119.824219 L 190.421875 122.125 L 192.835938 122.21875 L 193.019531 119.921875 L 195.347656 120.011719 L 194.695312 128.183594 L 192.363281 128.089844 L 192.585938 125.328125 L 190.171875 125.230469 L 189.953125 127.996094 L 187.570312 127.902344 Z M 188.222656 119.730469 " transform="matrix(1,0,0,1,-74,-13)"/>
<path style="fill-rule:nonzero;fill:rgb(39.99939%,39.99939%,39.99939%);fill-opacity:1;stroke-width:0.03;stroke-linecap:square;stroke-linejoin:miter;stroke:rgb(39.99939%,39.99939%,39.99939%);stroke-opacity:1;stroke-miterlimit:3.239307;" d="M 189.453125 104.679688 L 191.835938 104.773438 L 191.652344 107.074219 L 194.0625 107.171875 L 194.246094 104.871094 L 196.578125 104.964844 L 195.925781 113.132812 L 193.59375 113.042969 L 193.816406 110.277344 L 191.402344 110.183594 L 191.179688 112.945312 L 188.800781 112.851562 Z M 189.453125 104.679688 " transform="matrix(1,0,0,1,-74,-13)"/>
<path style="fill-rule:nonzero;fill:rgb(39.99939%,39.99939%,39.99939%);fill-opacity:1;stroke-width:0.03;stroke-linecap:square;stroke-linejoin:miter;stroke:rgb(39.99939%,39.99939%,39.99939%);stroke-opacity:1;stroke-miterlimit:3.239307;" d="M 202.425781 133.785156 L 216.804688 135.066406 L 211.304688 194.1875 L 196.886719 193.320312 Z M 202.425781 133.785156 " transform="matrix(1,0,0,1,-74,-13)"/>
<path style="fill-rule:nonzero;fill:rgb(39.99939%,39.99939%,39.99939%);fill-opacity:1;stroke-width:0.03;stroke-linecap:square;stroke-linejoin:miter;stroke:rgb(39.99939%,39.99939%,39.99939%);stroke-opacity:1;stroke-miterlimit:3.239307;" d="M 184.335938 132.171875 L 199.636719 133.535156 L 194.089844 193.15625 L 178.730469 192.234375 Z M 184.335938 132.171875 " transform="matrix(1,0,0,1,-74,-13)"/>
<path style="fill-rule:nonzero;fill:rgb(39.99939%,39.99939%,39.99939%);fill-opacity:1;stroke-width:0.03;stroke-linecap:square;stroke-linejoin:miter;stroke:rgb(39.99939%,39.99939%,39.99939%);stroke-opacity:1;stroke-miterlimit:3.239307;" d="M 208.398438 69.605469 L 222.78125 70.851562 L 217.1875 130.957031 L 202.804688 129.726562 Z M 208.398438 69.605469 " transform="matrix(1,0,0,1,-74,-13)"/>
<path style="fill-rule:nonzero;fill:rgb(39.99939%,39.99939%,39.99939%);fill-opacity:1;stroke-width:0.03;stroke-linecap:square;stroke-linejoin:miter;stroke:rgb(39.99939%,39.99939%,39.99939%);stroke-opacity:1;stroke-miterlimit:3.239307;" d="M 163.191406 130.285156 L 181.492188 131.917969 L 175.894531 192.0625 L 157.542969 190.964844 Z M 163.191406 130.285156 " transform="matrix(1,0,0,1,-74,-13)"/>
<path style="fill-rule:nonzero;fill:rgb(39.99939%,39.99939%,39.99939%);fill-opacity:1;stroke-width:0.03;stroke-linecap:square;stroke-linejoin:miter;stroke:rgb(39.99939%,39.99939%,39.99939%);stroke-opacity:1;stroke-miterlimit:3.239307;" d="M 169.152344 66.207031 L 187.460938 67.792969 L 181.863281 127.933594 L 163.554688 126.367188 Z M 169.152344 66.207031 " transform="matrix(1,0,0,1,-74,-13)"/>
<path style="fill-rule:nonzero;fill:rgb(39.99939%,39.99939%,39.99939%);fill-opacity:1;stroke-width:0.03;stroke-linecap:square;stroke-linejoin:miter;stroke:rgb(39.99939%,39.99939%,39.99939%);stroke-opacity:1;stroke-miterlimit:3.239307;" d="M 148.636719 64.429688 L 166.363281 65.964844 L 160.765625 126.128906 L 143.007812 124.609375 Z M 148.636719 64.429688 " transform="matrix(1,0,0,1,-74,-13)"/>
<path style="fill-rule:nonzero;fill:rgb(39.99939%,39.99939%,39.99939%);fill-opacity:1;stroke-width:0.03;stroke-linecap:square;stroke-linejoin:miter;stroke:rgb(39.99939%,39.99939%,39.99939%);stroke-opacity:1;stroke-miterlimit:3.239307;" d="M 237.335938 136.898438 L 252.878906 138.285156 L 247.394531 196.347656 L 231.914062 195.421875 Z M 237.335938 136.898438 " transform="matrix(1,0,0,1,-74,-13)"/>
<path style="fill-rule:nonzero;fill:rgb(39.99939%,39.99939%,39.99939%);fill-opacity:1;stroke-width:0.03;stroke-linecap:square;stroke-linejoin:miter;stroke:rgb(39.99939%,39.99939%,39.99939%);stroke-opacity:1;stroke-miterlimit:3.239307;" d="M 219.59375 135.316406 L 234.640625 136.65625 L 229.179688 195.257812 L 214.097656 194.355469 Z M 219.59375 135.316406 " transform="matrix(1,0,0,1,-74,-13)"/>
<path style="fill-rule:nonzero;fill:rgb(39.99939%,39.99939%,39.99939%);fill-opacity:1;stroke-width:0.03;stroke-linecap:square;stroke-linejoin:miter;stroke:rgb(39.99939%,39.99939%,39.99939%);stroke-opacity:1;stroke-miterlimit:3.239307;" d="M 243.292969 72.628906 L 257.960938 73.902344 L 253.28125 134.050781 L 237.726562 132.71875 Z M 243.292969 72.628906 " transform="matrix(1,0,0,1,-74,-13)"/>
<path style="fill-rule:nonzero;fill:rgb(39.99939%,39.99939%,39.99939%);fill-opacity:1;stroke-width:0.03;stroke-linecap:square;stroke-linejoin:miter;stroke:rgb(39.99939%,39.99939%,39.99939%);stroke-opacity:1;stroke-miterlimit:3.239307;" d="M 225.570312 71.09375 L 240.628906 72.398438 L 235.027344 132.488281 L 219.976562 131.199219 Z M 225.570312 71.09375 " transform="matrix(1,0,0,1,-74,-13)"/>
<path style="fill-rule:nonzero;fill:rgb(39.99939%,39.99939%,39.99939%);fill-opacity:1;stroke-width:0.03;stroke-linecap:square;stroke-linejoin:miter;stroke:rgb(39.99939%,39.99939%,39.99939%);stroke-opacity:1;stroke-miterlimit:3.239307;" d="M 190.324219 68.039062 L 205.609375 69.363281 L 200.015625 129.488281 L 184.710938 128.179688 Z M 190.324219 68.039062 " transform="matrix(1,0,0,1,-74,-13)"/>
<path style=" stroke:none;fill-rule:evenodd;fill:rgb(85.096741%,85.096741%,81.959534%);fill-opacity:0.7;" d="M 294.851562 62 C 294.851562 58.0625 293.285156 54.285156 290.5 51.5 C 287.714844 48.714844 283.9375 47.148438 280 47.148438 C 276.0625 47.148438 272.285156 48.714844 269.5 51.5 C 266.714844 54.285156 265.148438 58.0625 265.148438 62 C 265.148438 65.9375 266.714844 69.714844 269.5 72.5 C 272.285156 75.285156 276.0625 76.851562 280 76.851562 C 283.9375 76.851562 287.714844 75.285156 290.5 72.5 C 293.285156 69.714844 294.851562 65.9375 294.851562 62 Z M 294.851562 62 "/>
<path style=" stroke:none;fill-rule:evenodd;fill:rgb(85.096741%,85.096741%,81.959534%);fill-opacity:0.7;" d="M 297.851562 58 C 297.851562 54.0625 296.285156 50.285156 293.5 47.5 C 290.714844 44.714844 286.9375 43.148438 283 43.148438 C 279.0625 43.148438 275.285156 44.714844 272.5 47.5 C 269.714844 50.285156 268.148438 54.0625 268.148438 58 C 268.148438 61.9375 269.714844 65.714844 272.5 68.5 C 275.285156 71.285156 279.0625 72.851562 283 72.851562 C 286.9375 72.851562 290.714844 71.285156 293.5 68.5 C 296.285156 65.714844 297.851562 61.9375 297.851562 58 Z M 297.851562 58 "/>
<path style=" stroke:none;fill-rule:evenodd;fill:rgb(85.096741%,85.096741%,81.959534%);fill-opacity:0.7;" d="M 349.851562 2 C 349.851562 -1.9375 348.285156 -5.714844 345.5 -8.5 C 342.714844 -11.285156 338.9375 -12.851562 335 -12.851562 C 331.0625 -12.851562 327.285156 -11.285156 324.5 -8.5 C 321.714844 -5.714844 320.148438 -1.9375 320.148438 2 C 320.148438 5.9375 321.714844 9.714844 324.5 12.5 C 327.285156 15.285156 331.0625 16.851562 335 16.851562 C 338.9375 16.851562 342.714844 15.285156 345.5 12.5 C 348.285156 9.714844 349.851562 5.9375 349.851562 2 Z M 349.851562 2 "/>
<path style=" stroke:none;fill-rule:evenodd;fill:rgb(85.096741%,85.096741%,81.959534%);fill-opacity:0.7;" d="M 315.851562 282 C 315.851562 278.0625 314.285156 274.285156 311.5 271.5 C 308.714844 268.714844 304.9375 267.148438 301 267.148438 C 297.0625 267.148438 293.285156 268.714844 290.5 271.5 C 287.714844 274.285156 286.148438 278.0625 286.148438 282 C 286.148438 285.9375 287.714844 289.714844 290.5 292.5 C 293.285156 295.285156 297.0625 296.851562 301 296.851562 C 304.9375 296.851562 308.714844 295.285156 311.5 292.5 C 314.285156 289.714844 315.851562 285.9375 315.851562 282 Z M 315.851562 282 "/>
<g clip-path="url(#clip19)" clip-rule="nonzero">
<path style=" stroke:none;fill-rule:nonzero;fill:rgb(99.998474%,99.998474%,30.587769%);fill-opacity:0.8;" d="M 287.574219 320.210938 L 255.421875 375.898438 L 319.726562 375.898438 Z M 287.574219 320.210938 "/>
</g>
<g clip-path="url(#clip20)" clip-rule="nonzero">
<path style="fill:none;stroke-width:0.288;stroke-linecap:square;stroke-linejoin:miter;stroke:rgb(0%,0%,0%);stroke-opacity:0.8;stroke-miterlimit:3.25;" d="M 361.574219 333.210938 L 329.421875 388.898438 L 393.726562 388.898438 Z M 361.574219 333.210938 " transform="matrix(1,0,0,1,-74,-13)"/>
</g>
<g clip-path="url(#clip21)" clip-rule="nonzero">
<path style=" stroke:none;fill-rule:nonzero;fill:rgb(99.998474%,99.998474%,30.587769%);fill-opacity:0.8;" d="M 306.136719 335.0625 L 273.984375 390.75 L 338.289062 390.75 Z M 306.136719 335.0625 "/>
</g>
<g clip-path="url(#clip22)" clip-rule="nonzero">
<path style="fill:none;stroke-width:0.288;stroke-linecap:square;stroke-linejoin:miter;stroke:rgb(0%,0%,0%);stroke-opacity:0.8;stroke-miterlimit:3.25;" d="M 380.136719 348.0625 L 347.984375 403.75 L 412.289062 403.75 Z M 380.136719 348.0625 " transform="matrix(1,0,0,1,-74,-13)"/>
</g>
</g>
</svg>
