<?xml version="1.0" encoding="UTF-8"?>
<svg xmlns="http://www.w3.org/2000/svg" xmlns:xlink="http://www.w3.org/1999/xlink" width="361pt" height="361pt" viewBox="0 0 361 361" version="1.1">
<defs>
<clipPath id="clip1">
  <path d="M 346 30 L 360 30 L 360 39 L 346 39 Z M 346 30 "/>
</clipPath>
<clipPath id="clip2">
  <path d="M 348 22 L 360 22 L 360 32 L 348 32 Z M 348 22 "/>
</clipPath>
<clipPath id="clip3">
  <path d="M 349 13 L 360 13 L 360 23 L 349 23 Z M 349 13 "/>
</clipPath>
<clipPath id="clip4">
  <path d="M 314 115 L 360 115 L 360 173 L 314 173 Z M 314 115 "/>
</clipPath>
<clipPath id="clip5">
  <path d="M 306 0 L 360 0 L 360 6 L 306 6 Z M 306 0 "/>
</clipPath>
<clipPath id="clip6">
  <path d="M 307 0 L 360 0 L 360 48 L 307 48 Z M 307 0 "/>
</clipPath>
<clipPath id="clip7">
  <path d="M 310 36 L 360 36 L 360 88 L 310 88 Z M 310 36 "/>
</clipPath>
<clipPath id="clip8">
  <path d="M 311 76 L 360 76 L 360 124 L 311 124 Z M 311 76 "/>
</clipPath>
<clipPath id="clip9">
  <path d="M 324 330 L 360 330 L 360 360 L 324 360 Z M 324 330 "/>
</clipPath>
<clipPath id="clip10">
  <path d="M 326 328 L 357 328 L 357 360 L 326 360 Z M 326 328 "/>
</clipPath>
<clipPath id="clip11">
  <path d="M 305 326 L 336 326 L 336 360 L 305 360 Z M 305 326 "/>
</clipPath>
<clipPath id="clip12">
  <path d="M 256 340 L 300 340 L 300 360 L 256 360 Z M 256 340 "/>
</clipPath>
<clipPath id="clip13">
  <path d="M 59 333 L 171 333 L 171 360 L 59 360 Z M 59 333 "/>
</clipPath>
<clipPath id="clip14">
  <path d="M 37 331 L 117 331 L 117 360 L 37 360 Z M 37 331 "/>
</clipPath>
<clipPath id="clip15">
  <path d="M 172 340 L 297 340 L 297 360 L 172 360 Z M 172 340 "/>
</clipPath>
<clipPath id="clip16">
  <path d="M 6 311 L 49 311 L 49 360 L 6 360 Z M 6 311 "/>
</clipPath>
<clipPath id="clip17">
  <path d="M 0 284 L 31 284 L 31 360 L 0 360 Z M 0 284 "/>
</clipPath>
<clipPath id="clip18">
  <path d="M 331 253 L 360 253 L 360 274 L 331 274 Z M 331 253 "/>
</clipPath>
<clipPath id="clip19">
  <path d="M 318 309 L 360 309 L 360 328 L 318 328 Z M 318 309 "/>
</clipPath>
<clipPath id="clip20">
  <path d="M 329 272 L 360 272 L 360 286 L 329 286 Z M 329 272 "/>
</clipPath>
<clipPath id="clip21">
  <path d="M 320 292 L 360 292 L 360 314 L 320 314 Z M 320 292 "/>
</clipPath>
<clipPath id="clip22">
  <path d="M 328 280 L 360 280 L 360 294 L 328 294 Z M 328 280 "/>
</clipPath>
<clipPath id="clip23">
  <path d="M 358 192 L 360 192 L 360 224 L 358 224 Z M 358 192 "/>
</clipPath>
<clipPath id="clip24">
  <path d="M 335 217 L 360 217 L 360 254 L 335 254 Z M 335 217 "/>
</clipPath>
<clipPath id="clip25">
  <path d="M 321 190 L 360 190 L 360 242 L 321 242 Z M 321 190 "/>
</clipPath>
<clipPath id="clip26">
  <path d="M 85 342 L 117 342 L 117 360 L 85 360 Z M 85 342 "/>
</clipPath>
</defs>
<g id="surface5432">
<path style="fill-rule:nonzero;fill:rgb(0%,0%,0%);fill-opacity:1;stroke-width:0.03;stroke-linecap:square;stroke-linejoin:miter;stroke:rgb(0%,0%,0%);stroke-opacity:1;stroke-miterlimit:10;" d="M 0 178 L 360 178 L 360 -182 L 0 -182 Z M 0 178 " transform="matrix(1,0,0,1,0,182)"/>
<g clip-path="url(#clip1)" clip-rule="nonzero">
<path style=" stroke:none;fill-rule:nonzero;fill:rgb(39.99939%,39.99939%,39.99939%);fill-opacity:0.3;" d="M 347.851562 30.25 L 362.109375 32.226562 L 361.085938 38.925781 L 346.753906 36.851562 Z M 347.851562 30.25 "/>
</g>
<g clip-path="url(#clip2)" clip-rule="nonzero">
<path style=" stroke:none;fill-rule:nonzero;fill:rgb(39.99939%,39.99939%,39.99939%);fill-opacity:0.3;" d="M 349.234375 22.1875 L 363.488281 24.164062 L 362.394531 31.355469 L 348.136719 29.378906 Z M 349.234375 22.1875 "/>
</g>
<path style=" stroke:none;fill-rule:nonzero;fill:rgb(39.99939%,39.99939%,39.99939%);fill-opacity:0.3;" d="M 330.371094 11.179688 L 344.628906 13.15625 L 343.53125 20.347656 L 329.273438 18.371094 Z M 330.371094 11.179688 "/>
<path style=" stroke:none;fill-rule:nonzero;fill:rgb(39.99939%,39.99939%,39.99939%);fill-opacity:0.3;" d="M 313.078125 8.609375 L 327.335938 10.585938 L 326.242188 17.777344 L 311.984375 15.800781 Z M 313.078125 8.609375 "/>
<g clip-path="url(#clip3)" clip-rule="nonzero">
<path style=" stroke:none;fill-rule:nonzero;fill:rgb(39.99939%,39.99939%,39.99939%);fill-opacity:0.3;" d="M 350.546875 13.59375 L 364.800781 15.570312 L 363.707031 22.761719 L 349.449219 20.785156 Z M 350.546875 13.59375 "/>
</g>
<path style=" stroke:none;fill-rule:nonzero;fill:rgb(39.99939%,39.99939%,39.99939%);fill-opacity:0.3;" d="M 312.285156 18.324219 L 326.542969 20.300781 L 325.445312 27.492188 L 311.1875 25.515625 Z M 312.285156 18.324219 "/>
<g clip-path="url(#clip4)" clip-rule="nonzero">
<path style=" stroke:none;fill-rule:nonzero;fill:rgb(39.99939%,39.99939%,39.99939%);fill-opacity:0.3;" d="M 405.554688 137.042969 L 399.441406 172.59375 L 318.375 163.125 L 314.574219 115.308594 L 405.554688 125.777344 L 407.453125 125.996094 Z M 405.554688 137.042969 "/>
</g>
<g clip-path="url(#clip5)" clip-rule="nonzero">
<path style=" stroke:none;fill-rule:nonzero;fill:rgb(39.99939%,39.99939%,39.99939%);fill-opacity:0.3;" d="M 405.554688 2.730469 L 307.308594 -10.640625 L 306.808594 -20.949219 L 306.566406 -30.453125 L 307.289062 -39.546875 L 307.882812 -45.902344 L 382.234375 -36.042969 L 379.464844 -18.433594 L 380.480469 -18.253906 L 381.492188 -18.078125 L 384.1875 -35.613281 L 405.554688 -32.765625 L 432.476562 -29.171875 L 427.460938 5.710938 Z M 405.554688 2.730469 "/>
</g>
<g clip-path="url(#clip6)" clip-rule="nonzero">
<path style=" stroke:none;fill-rule:nonzero;fill:rgb(39.99939%,39.99939%,39.99939%);fill-opacity:0.3;" d="M 307.894531 -6.535156 L 405.554688 6.457031 L 426.902344 9.296875 L 419.796875 47.148438 L 405.554688 45.261719 L 310.382812 32.671875 Z M 307.894531 -6.535156 "/>
</g>
<g clip-path="url(#clip7)" clip-rule="nonzero">
<path style=" stroke:none;fill-rule:nonzero;fill:rgb(39.99939%,39.99939%,39.99939%);fill-opacity:0.3;" d="M 310.511719 36.699219 L 405.554688 49.457031 L 419.421875 51.316406 L 412.539062 87.53125 L 405.554688 86.574219 L 312.414062 73.835938 Z M 310.511719 36.699219 "/>
</g>
<g clip-path="url(#clip8)" clip-rule="nonzero">
<path style=" stroke:none;fill-rule:nonzero;fill:rgb(39.99939%,39.99939%,39.99939%);fill-opacity:0.3;" d="M 311.933594 76.828125 L 405.554688 89.566406 L 413.410156 90.636719 L 407.621094 123.277344 L 405.554688 123.015625 L 313.941406 111.414062 Z M 311.933594 76.828125 "/>
</g>
<g clip-path="url(#clip9)" clip-rule="nonzero">
<path style=" stroke:none;fill-rule:nonzero;fill:rgb(39.99939%,39.99939%,39.99939%);fill-opacity:0.3;" d="M 359.804688 330.613281 L 376.648438 332.015625 L 360.214844 414.378906 L 324.484375 408.453125 L 326.238281 398.605469 L 345.703125 401.628906 Z M 359.804688 330.613281 "/>
</g>
<g clip-path="url(#clip10)" clip-rule="nonzero">
<path style=" stroke:none;fill-rule:nonzero;fill:rgb(39.99939%,39.99939%,39.99939%);fill-opacity:0.3;" d="M 340.632812 328.796875 L 356.523438 330.300781 L 343.117188 398.242188 L 326.84375 395.867188 Z M 340.632812 328.796875 "/>
</g>
<g clip-path="url(#clip11)" clip-rule="nonzero">
<path style=" stroke:none;fill-rule:nonzero;fill:rgb(39.99939%,39.99939%,39.99939%);fill-opacity:0.3;" d="M 317.96875 326.648438 L 335.878906 328.34375 L 321.367188 407.9375 L 306.574219 405.503906 L 305.761719 399.8125 L 305.453125 394.96875 L 305.96875 386.285156 L 307.226562 379.1875 L 309.339844 368.3125 Z M 317.96875 326.648438 "/>
</g>
<path style=" stroke:none;fill-rule:nonzero;fill:rgb(39.99939%,39.99939%,39.99939%);fill-opacity:0.3;" d="M 40.347656 283.40625 L 52.007812 285.421875 L 50.960938 291.855469 L 38.160156 290.347656 Z M 40.347656 283.40625 "/>
<path style=" stroke:none;fill-rule:nonzero;fill:rgb(39.99939%,39.99939%,39.99939%);fill-opacity:0.3;" d="M 16.339844 223.246094 L 22.46875 223.734375 L 20.808594 246.035156 L 14.621094 245.777344 Z M 16.339844 223.246094 "/>
<path style=" stroke:none;fill-rule:nonzero;fill:rgb(39.99939%,39.99939%,39.99939%);fill-opacity:0.3;" d="M 17.019531 206.976562 L 23.027344 207.425781 L 22.027344 221.285156 L 15.953125 220.960938 Z M 17.019531 206.976562 "/>
<path style=" stroke:none;fill-rule:nonzero;fill:rgb(39.99939%,39.99939%,39.99939%);fill-opacity:0.3;" d="M 18.503906 192.894531 L 24.46875 193.1875 L 23.550781 205.878906 L 17.546875 205.398438 Z M 18.503906 192.894531 "/>
<path style=" stroke:none;fill-rule:nonzero;fill:rgb(39.99939%,39.99939%,39.99939%);fill-opacity:0.3;" d="M 3.121094 194.519531 L 9.132812 194.925781 L 6.90625 223.90625 L 0.898438 223.644531 Z M 3.121094 194.519531 "/>
<path style=" stroke:none;fill-rule:nonzero;fill:rgb(39.99939%,39.99939%,39.99939%);fill-opacity:0.3;" d="M -1.574219 239.472656 L 9.386719 240.003906 L 9.117188 244.9375 L -1.847656 244.40625 Z M -1.574219 239.472656 "/>
<path style=" stroke:none;fill-rule:nonzero;fill:rgb(39.99939%,39.99939%,39.99939%);fill-opacity:0.3;" d="M -58.382812 194.3125 L -22.371094 192.402344 L 67.453125 190.195312 L 59.277344 244.484375 L 47.871094 242.992188 L 47.625 244.40625 L 47.421875 245.789062 L 58.855469 247.164062 L 52.203125 284.214844 L 39.898438 281.964844 L 39.203125 279.828125 L 38.757812 279.816406 L 38.347656 279.847656 L 39.289062 282.453125 L 36.714844 290.230469 L -73.433594 281.160156 L -74.792969 275.511719 L -76.765625 265.902344 L -77.625 258.054688 L -77.535156 250.425781 L -77.234375 245.003906 L -39.429688 245.476562 L -39.339844 248.527344 L -32.964844 248.589844 L -33.054688 243.492188 L -33.105469 240.671875 L -35.609375 240.675781 L -35.660156 236.121094 L -39.355469 236.050781 L -39.484375 242.140625 L -76.910156 241.75 L -76.117188 234.300781 L -74.636719 226.226562 L -72.410156 218.324219 L -68.890625 209.636719 L -65.015625 202.289062 L -61.566406 196.535156 L -60.917969 195.609375 L -60.136719 194.867188 Z M -58.382812 194.3125 "/>
<path style=" stroke:none;fill-rule:nonzero;fill:rgb(39.99939%,39.99939%,39.99939%);fill-opacity:0.3;" d="M 39.929688 58.453125 L 47.488281 58.441406 L 47.46875 64.699219 L 39.910156 64.710938 Z M 39.929688 58.453125 "/>
<path style=" stroke:none;fill-rule:nonzero;fill:rgb(39.99939%,39.99939%,39.99939%);fill-opacity:0.3;" d="M 50.539062 59.066406 L 56.96875 59.058594 L 56.953125 64.625 L 50.519531 64.632812 Z M 50.539062 59.066406 "/>
<path style=" stroke:none;fill-rule:nonzero;fill:rgb(39.99939%,39.99939%,39.99939%);fill-opacity:0.3;" d="M 59.761719 55.988281 L 64.007812 55.984375 L 63.980469 64.117188 L 59.738281 64.121094 Z M 59.761719 55.988281 "/>
<path style=" stroke:none;fill-rule:nonzero;fill:rgb(39.99939%,39.99939%,39.99939%);fill-opacity:0.3;" d="M 66.191406 56.542969 L 73.15625 56.535156 L 73.128906 63.917969 L 66.167969 63.925781 Z M 66.191406 56.542969 "/>
<path style=" stroke:none;fill-rule:nonzero;fill:rgb(39.99939%,39.99939%,39.99939%);fill-opacity:0.3;" d="M 18.945312 60.976562 L 21.664062 60.972656 L 21.65625 63.476562 L 18.9375 63.480469 Z M 18.945312 60.976562 "/>
<path style=" stroke:none;fill-rule:nonzero;fill:rgb(39.99939%,39.99939%,39.99939%);fill-opacity:0.3;" d="M 18.894531 56.472656 L 21.613281 56.46875 L 21.605469 58.972656 L 18.886719 58.976562 Z M 18.894531 56.472656 "/>
<path style=" stroke:none;fill-rule:nonzero;fill:rgb(39.99939%,39.99939%,39.99939%);fill-opacity:0.3;" d="M 9.410156 41.800781 L 14.667969 41.792969 L 14.644531 46.617188 L 9.390625 46.621094 Z M 9.410156 41.800781 "/>
<path style=" stroke:none;fill-rule:nonzero;fill:rgb(39.99939%,39.99939%,39.99939%);fill-opacity:0.3;" d="M 8.582031 50.835938 L 13.835938 50.828125 L 13.820312 55.652344 L 8.5625 55.65625 Z M 8.582031 50.835938 "/>
<path style=" stroke:none;fill-rule:nonzero;fill:rgb(39.99939%,39.99939%,39.99939%);fill-opacity:0.3;" d="M 7.6875 58.988281 L 12.945312 58.980469 L 12.929688 63.808594 L 7.671875 63.816406 Z M 7.6875 58.988281 "/>
<path style=" stroke:none;fill-rule:nonzero;fill:rgb(39.99939%,39.99939%,39.99939%);fill-opacity:0.3;" d="M 19.585938 48.714844 L 22.304688 48.710938 L 22.296875 51.210938 L 19.578125 51.214844 Z M 19.585938 48.714844 "/>
<path style=" stroke:none;fill-rule:nonzero;fill:rgb(39.99939%,39.99939%,39.99939%);fill-opacity:0.3;" d="M 27.402344 53.664062 L 31.195312 53.660156 L 31.179688 58.839844 L 27.382812 59.050781 Z M 27.402344 53.664062 "/>
<path style=" stroke:none;fill-rule:nonzero;fill:rgb(39.99939%,39.99939%,39.99939%);fill-opacity:0.3;" d="M 26.585938 59.71875 L 30.378906 59.714844 L 30.363281 64.894531 L 26.570312 64.933594 Z M 26.585938 59.71875 "/>
<path style=" stroke:none;fill-rule:nonzero;fill:rgb(39.99939%,39.99939%,39.99939%);fill-opacity:0.3;" d="M 74.664062 34.132812 L 57.121094 34.398438 L 34.738281 34.464844 L 34.710938 33.980469 L 56.058594 33.980469 Z M 74.664062 34.132812 "/>
<path style=" stroke:none;fill-rule:nonzero;fill:rgb(39.99939%,39.99939%,39.99939%);fill-opacity:0.3;" d="M 33.332031 33.980469 L 33.347656 34.460938 L -6.339844 33.832031 L -6.320312 33.605469 L 27.195312 33.980469 Z M 33.332031 33.980469 "/>
<path style=" stroke:none;fill-rule:nonzero;fill:rgb(39.99939%,39.99939%,39.99939%);fill-opacity:0.3;" d="M -9.195312 41.210938 L -8.472656 39.207031 L -7.734375 38.253906 L -7.066406 37.65625 L -6.320312 37.386719 L -5.835938 37.394531 L 24.976562 37.957031 L 24.40625 47.417969 L 15.996094 47.132812 L 15.40625 65.117188 L 73.648438 64.910156 L 73.898438 53.683594 L 27.445312 52.582031 L 28.140625 37.984375 L 43.835938 38.027344 L 62.835938 37.890625 L 83.085938 37.488281 L 86.894531 37.414062 L 102.035156 36.941406 L 104.066406 75.851562 L 75.851562 77.644531 L 33.191406 80.351562 L 32.734375 70.191406 L 31.035156 70.242188 L 29.695312 70.277344 L 30.195312 80.632812 L 21.601562 81.1875 L -4.144531 82.542969 L -10.582031 82.882812 L -11.386719 82.777344 L -11.859375 82.339844 L -12.125 81.800781 L -12.191406 81.105469 L -9.734375 43.496094 Z M -9.195312 41.210938 "/>
<path style=" stroke:none;fill-rule:nonzero;fill:rgb(39.99939%,39.99939%,39.99939%);fill-opacity:0.3;" d="M 70.5625 67.945312 L 75 67.941406 L 75.003906 70.964844 L 70.675781 70.96875 Z M 70.5625 67.945312 "/>
<path style=" stroke:none;fill-rule:nonzero;fill:rgb(39.99939%,39.99939%,39.99939%);fill-opacity:0.3;" d="M 64.90625 72.234375 L 75.003906 72.226562 L 75.007812 75.25 L 64.878906 75.257812 Z M 64.90625 72.234375 "/>
<path style=" stroke:none;fill-rule:nonzero;fill:rgb(39.99939%,39.99939%,39.99939%);fill-opacity:0.3;" d="M 8.820312 70.078125 L 18.917969 70.074219 L 18.917969 73.097656 L 8.789062 73.101562 Z M 8.820312 70.078125 "/>
<path style=" stroke:none;fill-rule:nonzero;fill:rgb(39.99939%,39.99939%,39.99939%);fill-opacity:0.3;" d="M 8.824219 74.824219 L 18.917969 74.816406 L 18.921875 77.839844 L 8.792969 77.847656 Z M 8.824219 74.824219 "/>
<path style=" stroke:none;fill-rule:nonzero;fill:rgb(39.99939%,39.99939%,39.99939%);fill-opacity:0.3;" d="M 30.429688 50.109375 L 31.003906 40.257812 L 34.277344 40.429688 L 33.703125 50.3125 Z M 30.429688 50.109375 "/>
<path style=" stroke:none;fill-rule:nonzero;fill:rgb(39.99939%,39.99939%,39.99939%);fill-opacity:0.3;" d="M 31.785156 -36.128906 L 37.175781 -35.835938 L 34.472656 10.507812 L 29.09375 10.136719 Z M 31.785156 -36.128906 "/>
<path style=" stroke:none;fill-rule:nonzero;fill:rgb(39.99939%,39.99939%,39.99939%);fill-opacity:0.3;" d="M 1.421875 -62.855469 L 2.078125 -64.34375 L 2.769531 -65.898438 L 3.460938 -67.21875 L 4.226562 -68.8125 L 5.195312 -69.9375 L 6.515625 -70.832031 L 8.222656 -71.65625 L 9.519531 -72.320312 L 11.046875 -72.953125 L 12.402344 -73.515625 L 13.34375 -73.8125 L 14.941406 -74.246094 L 16.753906 -74.414062 L 18.5625 -74.316406 L 20.234375 -73.988281 L 21.421875 -73.726562 L 22.847656 -73.398438 L 24.800781 -72.773438 L 26.507812 -72.214844 L 28.492188 -71.445312 L 30.175781 -70.917969 L 36.289062 -68.875 L 44.445312 -64.664062 L 52.992188 -59.699219 L 60.539062 -55.613281 L 65.65625 -50.875 L 73.488281 -42.332031 L 99.300781 -11.316406 L 101.863281 33.394531 L 77.015625 34.097656 L 74.664062 34.132812 L 56.058594 33.980469 L 34.710938 33.980469 L 33.976562 20.472656 L 33.464844 20.53125 L 32.957031 20.59375 L 33.332031 33.980469 L 27.195312 33.980469 L -6.320312 33.605469 L -4.375 11.328125 L 39.1875 14.101562 L 39.257812 12.792969 L 39.316406 11.457031 L -4.164062 8.765625 L -3.050781 -8.542969 L -1.171875 -55.339844 L -1.136719 -57.296875 L -0.203125 -59.171875 L 0.695312 -61.125 Z M 1.421875 -62.855469 "/>
<path style=" stroke:none;fill-rule:nonzero;fill:rgb(39.99939%,39.99939%,39.99939%);fill-opacity:0.3;" d="M 30.195312 80.632812 L 30.203125 80.734375 L 21.601562 81.1875 Z M 30.195312 80.632812 "/>
<path style=" stroke:none;fill-rule:nonzero;fill:rgb(39.99939%,39.99939%,39.99939%);fill-opacity:0.3;" d="M 105.757812 36.804688 L 141.046875 35.191406 L 173.609375 71.59375 L 107.839844 75.621094 Z M 105.757812 36.804688 "/>
<path style=" stroke:none;fill-rule:nonzero;fill:rgb(39.99939%,39.99939%,39.99939%);fill-opacity:0.3;" d="M 103.574219 -4.734375 L 103.910156 -4.886719 L 104.300781 -4.984375 L 104.753906 -4.972656 L 105.273438 -4.761719 L 137.75 31.503906 L 105.574219 33.257812 Z M 103.574219 -4.734375 "/>
<path style=" stroke:none;fill-rule:nonzero;fill:rgb(39.99939%,39.99939%,39.99939%);fill-opacity:0.3;" d="M 303.863281 168.523438 L 303.949219 169.839844 L 295.785156 169.488281 L 293.003906 169.082031 Z M 303.863281 168.523438 "/>
<path style=" stroke:none;fill-rule:nonzero;fill:rgb(39.99939%,39.99939%,39.99939%);fill-opacity:0.3;" d="M 90.195312 5.773438 L 96.289062 5.769531 L 96.292969 9.921875 L 90.351562 9.925781 Z M 90.195312 5.773438 "/>
<path style=" stroke:none;fill-rule:nonzero;fill:rgb(39.99939%,39.99939%,39.99939%);fill-opacity:0.3;" d="M 83 17.179688 L 87.4375 17.175781 L 87.441406 20.199219 L 83.113281 20.199219 Z M 83 17.179688 "/>
<path style=" stroke:none;fill-rule:nonzero;fill:rgb(39.99939%,39.99939%,39.99939%);fill-opacity:0.3;" d="M 91.6875 17.09375 L 96.128906 17.089844 L 96.128906 20.113281 L 91.800781 20.117188 Z M 91.6875 17.09375 "/>
<path style=" stroke:none;fill-rule:nonzero;fill:rgb(39.99939%,39.99939%,39.99939%);fill-opacity:0.3;" d="M 86.683594 26.125 L 96.78125 26.121094 L 96.78125 29.144531 L 86.65625 29.148438 Z M 86.683594 26.125 "/>
<path style=" stroke:none;fill-rule:nonzero;fill:rgb(39.99939%,39.99939%,39.99939%);fill-opacity:0.3;" d="M 41.582031 25.40625 L 41.265625 19.0625 L 43.375 18.96875 L 43.691406 25.328125 Z M 41.582031 25.40625 "/>
<path style=" stroke:none;fill-rule:nonzero;fill:rgb(39.99939%,39.99939%,39.99939%);fill-opacity:0.3;" d="M 41.929688 32.664062 L 41.613281 26.324219 L 43.722656 26.230469 L 44.039062 32.589844 Z M 41.929688 32.664062 "/>
<path style=" stroke:none;fill-rule:nonzero;fill:rgb(39.99939%,39.99939%,39.99939%);fill-opacity:0.3;" d="M 42.074219 -40.035156 L 50.476562 -38.9375 L 44.484375 11.441406 L 38.890625 10.773438 L 40.347656 0.144531 L 43.164062 0.414062 L 44.429688 -11.292969 L 41.613281 -11.566406 L 42.953125 -23.289062 L 45.765625 -23.007812 L 46.410156 -28.566406 L 43.597656 -28.839844 L 44.511719 -36.609375 L 41.707031 -36.929688 Z M 42.074219 -40.035156 "/>
<path style=" stroke:none;fill-rule:nonzero;fill:rgb(39.99939%,39.99939%,39.99939%);fill-opacity:0.3;" d="M 209.945312 152.382812 L 214.457031 149.0625 L 218.859375 154.136719 L 214.125 157.539062 Z M 209.945312 152.382812 "/>
<path style=" stroke:none;fill-rule:nonzero;fill:rgb(39.99939%,39.99939%,39.99939%);fill-opacity:0.3;" d="M 218.21875 145.230469 L 223.042969 141.503906 L 227.65625 147.160156 L 222.800781 151.023438 Z M 218.21875 145.230469 "/>
<path style=" stroke:none;fill-rule:nonzero;fill:rgb(39.99939%,39.99939%,39.99939%);fill-opacity:0.3;" d="M 66.292969 127.921875 L 106.847656 125.378906 L 109.722656 175.578125 L 91.84375 176.148438 L 69.089844 176.875 Z M 66.292969 127.921875 "/>
<path style=" stroke:none;fill-rule:nonzero;fill:rgb(39.99939%,39.99939%,39.99939%);fill-opacity:0.3;" d="M 53.554688 128.722656 L 62.527344 128.160156 L 65.300781 176.996094 L 56.332031 177.28125 Z M 53.554688 128.722656 "/>
<path style=" stroke:none;fill-rule:nonzero;fill:rgb(39.99939%,39.99939%,39.99939%);fill-opacity:0.3;" d="M -22.15625 133.476562 L 51.277344 128.863281 L 54.070312 177.355469 L -7.703125 179.328125 L -7.570312 168.335938 L -9.042969 168.339844 L -10.445312 168.34375 L -10.535156 179.417969 L -49.703125 180.667969 L -42.375 171.253906 L -35.523438 160.914062 L -30.4375 151.945312 L -26.78125 144.539062 L -23.84375 137.792969 Z M -22.15625 133.476562 "/>
<path style=" stroke:none;fill-rule:nonzero;fill:rgb(39.99939%,39.99939%,39.99939%);fill-opacity:0.3;" d="M 232.089844 141.824219 L 248.609375 160.167969 L 248.867188 160.785156 L 249.046875 161.425781 L 249.226562 162.03125 L 249.382812 162.660156 L 249.507812 163.355469 L 249.46875 164.019531 L 249.328125 164.644531 L 249.035156 165.457031 L 248.34375 166.710938 L 247.652344 167.910156 L 246.789062 169.167969 L 245.808594 169.988281 L 244.597656 170.859375 L 243.558594 171.191406 L 183.699219 173.222656 L 178.480469 80.898438 L 178.621094 79.867188 L 179.398438 79.421875 L 180.386719 79.410156 L 181.671875 80.597656 Z M 232.089844 141.824219 "/>
<path style=" stroke:none;fill-rule:nonzero;fill:rgb(39.99939%,39.99939%,39.99939%);fill-opacity:0.3;" d="M 182.789062 152.15625 L 188.132812 148.054688 L 191.871094 152.886719 L 185.964844 156.960938 Z M 182.789062 152.15625 "/>
<path style=" stroke:none;fill-rule:nonzero;fill:rgb(39.99939%,39.99939%,39.99939%);fill-opacity:0.3;" d="M 191.78125 151.445312 L 197.121094 147.179688 L 200.886719 151.960938 L 195.183594 156.167969 Z M 191.78125 151.445312 "/>
<path style=" stroke:none;fill-rule:nonzero;fill:rgb(39.99939%,39.99939%,39.99939%);fill-opacity:0.3;" d="M 202.050781 148.003906 L 206.402344 144.460938 L 211.265625 150.453125 L 206.59375 153.875 Z M 202.050781 148.003906 "/>
<path style=" stroke:none;fill-rule:nonzero;fill:rgb(39.99939%,39.99939%,39.99939%);fill-opacity:0.3;" d="M 210.167969 140.71875 L 215.15625 137.164062 L 219.527344 142.902344 L 214.722656 146.191406 Z M 210.167969 140.71875 "/>
<path style=" stroke:none;fill-rule:nonzero;fill:rgb(39.99939%,39.99939%,39.99939%);fill-opacity:0.3;" d="M 108.027344 79.058594 L 174.367188 74.941406 L 176.746094 117.375 L 110.410156 121.542969 Z M 108.027344 79.058594 "/>
<path style=" stroke:none;fill-rule:nonzero;fill:rgb(39.99939%,39.99939%,39.99939%);fill-opacity:0.3;" d="M 63.703125 81.816406 L 104.257812 79.292969 L 106.644531 121.777344 L 66.089844 124.328125 Z M 63.703125 81.816406 "/>
<path style=" stroke:none;fill-rule:nonzero;fill:rgb(39.99939%,39.99939%,39.99939%);fill-opacity:0.3;" d="M -12.3125 86.546875 L 9.472656 85.316406 L 6.527344 89.09375 L 2.480469 93.292969 L -2.03125 97.0625 L -6.863281 100.300781 L -14.238281 104.003906 L -13.4375 98.640625 L -12.746094 92.507812 Z M -12.3125 86.546875 "/>
<path style=" stroke:none;fill-rule:nonzero;fill:rgb(39.99939%,39.99939%,39.99939%);fill-opacity:0.3;" d="M 62.324219 124.5625 L -20.828125 129.792969 L -18.796875 123.523438 L -16.988281 117.023438 L -14.679688 106.5 L -9.25 104.085938 L -2.707031 100.222656 L 1.523438 97.039062 L 1.613281 106.414062 L -4.285156 106.480469 L -4.394531 112.054688 L -2.71875 112.109375 L -0.816406 112.175781 L -0.742188 109.703125 L 5.730469 109.660156 L 5.390625 93.535156 L 6.699219 92.183594 L 7.9375 90.832031 L 11.074219 92.195312 L 22.554688 92.503906 L 22.519531 90.878906 L 22.476562 89.246094 L 11.347656 88.933594 L 11.546875 85.296875 L 59.929688 82.050781 Z M 62.324219 124.5625 "/>
<path style=" stroke:none;fill-rule:nonzero;fill:rgb(39.99939%,39.99939%,39.99939%);fill-opacity:0.3;" d="M 110.613281 125.144531 L 176.949219 120.984375 L 179.949219 173.339844 L 113.488281 175.402344 Z M 110.613281 125.144531 "/>
<path style=" stroke:none;fill-rule:nonzero;fill:rgb(39.99939%,39.99939%,39.99939%);fill-opacity:0.3;" d="M 174.503906 1.171875 L 294.605469 -6.820312 L 296.316406 33.367188 L 175.605469 32.230469 Z M 174.503906 1.171875 "/>
<path style=" stroke:none;fill-rule:nonzero;fill:rgb(39.99939%,39.99939%,39.99939%);fill-opacity:0.3;" d="M 74.546875 -94.113281 L 128.09375 -39.875 L 145.644531 -22.09375 L 168.25 0.804688 L 169.382812 31.546875 L 151.921875 31.332031 L 142.847656 21.4375 L 121.757812 -1.578125 L 104.199219 -20.730469 L 77.804688 -49.527344 L 70.691406 -57.753906 L 58.433594 -71.59375 L 53.292969 -77.921875 L 50.140625 -83.171875 L 49.910156 -84.417969 L 50.054688 -87.300781 L 50.558594 -89.441406 L 51.296875 -90.871094 L 52.046875 -91.851562 L 73.019531 -95.121094 Z M 74.546875 -94.113281 "/>
<path style=" stroke:none;fill-rule:nonzero;fill:rgb(39.99939%,39.99939%,39.99939%);fill-opacity:0.3;" d="M 176.0625 34.804688 L 296.253906 35.691406 L 296.773438 47.558594 L 299.574219 140.671875 L 285.640625 140.976562 L 281.734375 53.914062 L 176.621094 59.671875 Z M 176.0625 34.804688 "/>
<path style=" stroke:none;fill-rule:nonzero;fill:rgb(39.99939%,39.99939%,39.99939%);fill-opacity:0.3;" d="M 155.394531 35.695312 L 169.875 35.566406 L 170.570312 49.179688 L 168.566406 51.003906 Z M 155.394531 35.695312 "/>
<path style=" stroke:none;fill-rule:nonzero;fill:rgb(39.99939%,39.99939%,39.99939%);fill-opacity:0.3;" d="M 212.988281 104.007812 L 228.179688 103.289062 L 228.355469 121.667969 Z M 212.988281 104.007812 "/>
<path style=" stroke:none;fill-rule:nonzero;fill:rgb(39.99939%,39.99939%,39.99939%);fill-opacity:0.3;" d="M 230.160156 103.195312 L 245.175781 102.484375 L 245.5625 141.445312 L 230.363281 123.976562 Z M 230.160156 103.195312 "/>
<path style=" stroke:none;fill-rule:nonzero;fill:rgb(39.99939%,39.99939%,39.99939%);fill-opacity:0.3;" d="M 249.140625 102.296875 L 263.675781 101.609375 L 264.089844 143.371094 L 249.554688 144.058594 Z M 249.140625 102.296875 "/>
<path style=" stroke:none;fill-rule:nonzero;fill:rgb(39.99939%,39.99939%,39.99939%);fill-opacity:0.3;" d="M 266.980469 101.453125 L 280.863281 100.796875 L 282.714844 142.042969 L 267.394531 143.214844 Z M 266.980469 101.453125 "/>
<path style=" stroke:none;fill-rule:nonzero;fill:rgb(39.99939%,39.99939%,39.99939%);fill-opacity:0.3;" d="M 193.082031 61.660156 L 207.351562 60.90625 L 208.234375 98.476562 L 193.539062 81.386719 Z M 193.082031 61.660156 "/>
<path style=" stroke:none;fill-rule:nonzero;fill:rgb(39.99939%,39.99939%,39.99939%);fill-opacity:0.3;" d="M 210.90625 60.71875 L 225.507812 59.949219 L 226.480469 101.421875 L 211.882812 102.195312 Z M 210.90625 60.71875 "/>
<path style=" stroke:none;fill-rule:nonzero;fill:rgb(39.99939%,39.99939%,39.99939%);fill-opacity:0.3;" d="M 228.089844 59.8125 L 243.679688 58.988281 L 244.652344 100.460938 L 229.066406 101.285156 Z M 228.089844 59.8125 "/>
<path style=" stroke:none;fill-rule:nonzero;fill:rgb(39.99939%,39.99939%,39.99939%);fill-opacity:0.3;" d="M 246.765625 58.828125 L 260.878906 58.082031 L 261.847656 99.550781 L 247.738281 100.296875 Z M 246.765625 58.828125 "/>
<path style=" stroke:none;fill-rule:nonzero;fill:rgb(39.99939%,39.99939%,39.99939%);fill-opacity:0.3;" d="M 264.121094 57.914062 L 279.023438 57.097656 L 279.992188 98.589844 L 265.089844 99.378906 Z M 264.121094 57.914062 "/>
<path style=" stroke:none;fill-rule:nonzero;fill:rgb(39.99939%,39.99939%,39.99939%);fill-opacity:0.3;" d="M 291.703125 168.890625 L 288.257812 168.171875 L 284.695312 167.324219 L 280.605469 166.128906 L 277.03125 164.6875 L 273.714844 163.242188 L 270.527344 162.039062 L 266.699219 159.753906 L 263.253906 157.945312 L 259.8125 155.296875 L 255.730469 152.046875 L 250.476562 145.539062 L 302.316406 143.953125 L 303.863281 168.523438 L 293.003906 169.082031 Z M 291.703125 168.890625 "/>
<path style=" stroke:none;fill-rule:nonzero;fill:rgb(39.99939%,39.99939%,39.99939%);fill-opacity:0.3;" d="M 177.292969 62.492188 L 190.648438 61.785156 L 191.03125 78.476562 Z M 177.292969 62.492188 "/>
<path style=" stroke:none;fill-rule:nonzero;fill:rgb(39.99939%,39.99939%,39.99939%);fill-opacity:0.3;" d="M 204.734375 282.878906 L 226.703125 285.957031 L 222.128906 301.480469 L 223.898438 302.003906 L 226.019531 302.628906 L 230.496094 286.488281 L 251.363281 289.523438 L 248.085938 301.222656 L 249.335938 301.464844 L 251.003906 301.910156 L 254.449219 290.003906 L 258.28125 290.523438 L 257.351562 313.53125 L 197.742188 306.738281 Z M 204.734375 282.878906 "/>
<path style=" stroke:none;fill-rule:nonzero;fill:rgb(39.99939%,39.99939%,39.99939%);fill-opacity:0.3;" d="M 257.609375 327.945312 L 258.953125 318.269531 L 302.976562 324.527344 L 301.128906 335.457031 Z M 257.609375 327.945312 "/>
<path style=" stroke:none;fill-rule:nonzero;fill:rgb(39.99939%,39.99939%,39.99939%);fill-opacity:0.3;" d="M 255.945312 337.523438 L 257.1875 330.464844 L 300.726562 337.851562 L 299.488281 345.195312 Z M 255.945312 337.523438 "/>
<g clip-path="url(#clip12)" clip-rule="nonzero">
<path style=" stroke:none;fill-rule:nonzero;fill:rgb(39.99939%,39.99939%,39.99939%);fill-opacity:0.3;" d="M 256.160156 353.363281 L 258.226562 340.6875 L 299.046875 347.820312 L 296.773438 361.378906 Z M 256.160156 353.363281 "/>
</g>
<path style=" stroke:none;fill-rule:nonzero;fill:rgb(39.99939%,39.99939%,39.99939%);fill-opacity:0.3;" d="M 191.113281 340.609375 L 192.300781 333.332031 L 200.113281 328.457031 L 202.117188 328.707031 L 228.074219 333.148438 L 229.476562 333.929688 L 230.683594 335.148438 L 232.03125 336.59375 L 233.550781 337.5625 L 235.507812 338.429688 L 254.476562 342.15625 L 252.589844 353.398438 L 200.15625 343.0625 L 199.945312 342.871094 L 199.222656 342.339844 Z M 191.113281 340.609375 "/>
<path style=" stroke:none;fill-rule:nonzero;fill:rgb(39.99939%,39.99939%,39.99939%);fill-opacity:0.3;" d="M 196.71875 324.699219 L 199.070312 311.089844 L 257.011719 318.09375 L 253.75 339.558594 L 235.828125 335.753906 L 234.058594 334.839844 L 232.199219 333.625 L 231.488281 332.777344 L 230.648438 331.878906 L 230.160156 331.085938 L 228.871094 330.09375 Z M 196.71875 324.699219 "/>
<path style=" stroke:none;fill-rule:nonzero;fill:rgb(39.99939%,39.99939%,39.99939%);fill-opacity:0.3;" d="M 181.675781 309.011719 L 194.445312 310.539062 L 189.210938 339.75 L 176.636719 337.738281 Z M 181.675781 309.011719 "/>
<path style=" stroke:none;fill-rule:nonzero;fill:rgb(39.99939%,39.99939%,39.99939%);fill-opacity:0.3;" d="M 261.410156 290.824219 L 308.1875 297.441406 L 307.777344 303.164062 L 306.386719 311.414062 L 304.664062 320.382812 L 260.832031 314.011719 Z M 261.410156 290.824219 "/>
<path style=" stroke:none;fill-rule:nonzero;fill:rgb(39.99939%,39.99939%,39.99939%);fill-opacity:0.3;" d="M 179.703125 279.476562 L 201.667969 282.449219 L 194.683594 306.390625 L 161.53125 302.613281 L 165.160156 290.609375 L 177.46875 293.0625 Z M 179.703125 279.476562 "/>
<path style=" stroke:none;fill-rule:nonzero;fill:rgb(39.99939%,39.99939%,39.99939%);fill-opacity:0.3;" d="M 160.828125 279.296875 L 154.972656 280.667969 L 154.390625 280.316406 Z M 160.828125 279.296875 "/>
<path style=" stroke:none;fill-rule:nonzero;fill:rgb(39.99939%,39.99939%,39.99939%);fill-opacity:0.3;" d="M 134 285.5625 L 104.449219 294.511719 L 107.066406 293.363281 Z M 134 285.5625 "/>
<path style=" stroke:none;fill-rule:nonzero;fill:rgb(39.99939%,39.99939%,39.99939%);fill-opacity:0.3;" d="M 151.707031 283.375 L 174.847656 279.433594 L 177.660156 281.640625 L 176.457031 290.304688 L 163.382812 287.726562 L 159.367188 302.367188 L 151.417969 301.464844 Z M 151.707031 283.375 "/>
<path style=" stroke:none;fill-rule:nonzero;fill:rgb(39.99939%,39.99939%,39.99939%);fill-opacity:0.3;" d="M 106.589844 296.367188 L 148.273438 284.222656 L 148.066406 301.082031 Z M 106.589844 296.367188 "/>
<path style=" stroke:none;fill-rule:nonzero;fill:rgb(39.99939%,39.99939%,39.99939%);fill-opacity:0.3;" d="M 120.636719 301.722656 L 176.027344 308.335938 L 171.019531 337.117188 L 167.253906 336.667969 L 152.933594 334.089844 L 143.046875 333.695312 L 140.433594 333.476562 L 116.886719 330.675781 Z M 120.636719 301.722656 "/>
<path style=" stroke:none;fill-rule:nonzero;fill:rgb(39.99939%,39.99939%,39.99939%);fill-opacity:0.3;" d="M 69.550781 306.453125 L 97.292969 298.9375 L 99.96875 299.257812 L 96.785156 315.21875 L 93.324219 329.007812 L 63.683594 329.328125 Z M 69.550781 306.453125 "/>
<path style=" stroke:none;fill-rule:nonzero;fill:rgb(39.99939%,39.99939%,39.99939%);fill-opacity:0.3;" d="M 52.300781 310.929688 L 67.414062 307.035156 L 61.246094 329.289062 L 49.605469 329.003906 Z M 52.300781 310.929688 "/>
<path style=" stroke:none;fill-rule:nonzero;fill:rgb(39.99939%,39.99939%,39.99939%);fill-opacity:0.3;" d="M 98.632812 315.417969 L 101.578125 299.449219 L 111.242188 300.601562 L 110.15625 313.28125 L 110.84375 313.292969 L 111.558594 313.308594 L 111.730469 311.277344 L 115.128906 311.355469 L 115.144531 310.796875 L 115.164062 310.195312 L 111.835938 310.070312 L 112.628906 300.769531 L 118.890625 301.515625 L 115.195312 330.515625 L 98.585938 328.953125 L 95.324219 328.988281 Z M 98.632812 315.417969 "/>
<path style=" stroke:none;fill-rule:nonzero;fill:rgb(39.99939%,39.99939%,39.99939%);fill-opacity:0.3;" d="M 82.410156 316.515625 L 90.460938 318.382812 L 89.542969 322.101562 L 81.5 320.195312 Z M 82.410156 316.515625 "/>
<path style=" stroke:none;fill-rule:nonzero;fill:rgb(39.99939%,39.99939%,39.99939%);fill-opacity:0.3;" d="M 83.566406 310.539062 L 91.640625 312.238281 L 90.578125 316.390625 L 82.519531 314.550781 Z M 83.566406 310.539062 "/>
<path style=" stroke:none;fill-rule:nonzero;fill:rgb(39.99939%,39.99939%,39.99939%);fill-opacity:0.3;" d="M 85.066406 304.265625 L 92.847656 305.925781 L 92.046875 309.992188 L 84.039062 308.261719 Z M 85.066406 304.265625 "/>
<path style=" stroke:none;fill-rule:nonzero;fill:rgb(39.99939%,39.99939%,39.99939%);fill-opacity:0.3;" d="M 243.300781 260.191406 L 250.738281 262.601562 L 249.9375 265.722656 L 250.832031 265.921875 L 251.722656 266.117188 L 252.597656 262.9375 L 265.003906 265.1875 L 265.753906 266.519531 L 265.976562 268.3125 L 265.585938 270.785156 L 264.53125 272.90625 L 263.144531 274.660156 L 259.9375 282.101562 L 259.398438 285.273438 L 258.914062 287.421875 L 227.074219 282.914062 L 227.722656 280.863281 L 230.820312 276.308594 L 240.539062 265.828125 L 244.394531 266.808594 L 244.5 266.566406 L 244.628906 266.253906 L 241.050781 265.3125 Z M 243.300781 260.191406 "/>
<path style=" stroke:none;fill-rule:nonzero;fill:rgb(39.99939%,39.99939%,39.99939%);fill-opacity:0.3;" d="M 204.691406 259.398438 L 204.449219 251.703125 L 226.246094 251.503906 L 228.90625 240.769531 L 234.738281 241.410156 L 235.253906 238.648438 L 251.652344 237.480469 L 253.445312 231.597656 L 270.1875 234.570312 L 270.445312 237.476562 L 270.1875 243.886719 L 269.65625 249.554688 L 268.664062 254.097656 L 266.929688 259.6875 L 265.3125 263.683594 L 252.972656 261.585938 L 252.5625 260.082031 L 223.402344 254.535156 L 222.449219 256.84375 L 219.378906 256.933594 L 219.109375 258.644531 L 212.960938 259.082031 Z M 204.691406 259.398438 "/>
<path style=" stroke:none;fill-rule:nonzero;fill:rgb(39.99939%,39.99939%,39.99939%);fill-opacity:0.3;" d="M 242.042969 230.429688 L 244.945312 230.15625 L 252.089844 231.34375 L 250.621094 235.941406 L 241.875 236.113281 Z M 242.042969 230.429688 "/>
<path style=" stroke:none;fill-rule:nonzero;fill:rgb(39.99939%,39.99939%,39.99939%);fill-opacity:0.3;" d="M 157.371094 233.183594 L 238.585938 229.988281 L 239.792969 231.414062 L 239.050781 235.242188 L 230.621094 236.785156 L 230.191406 239.304688 L 226.917969 239.03125 L 224.425781 249.109375 L 202.1875 249.558594 L 202.46875 259.488281 L 193.042969 259.867188 L 193.421875 241.253906 L 197.753906 241.238281 L 197.800781 240.125 L 197.839844 239.140625 L 191.039062 239.144531 L 190.898438 259.949219 L 185.882812 260.132812 L 185.96875 252.507812 L 183.253906 252.253906 L 183.066406 243.519531 L 182.433594 243.433594 L 181.800781 243.351562 L 182.082031 253.628906 L 183.164062 253.625 L 183.003906 260.808594 L 173.238281 260.683594 L 173.640625 250.925781 L 172.703125 250.785156 L 171.316406 250.578125 L 171.210938 255.253906 L 162.671875 255.222656 L 162.671875 255.867188 L 162.675781 256.511719 L 170.871094 256.585938 L 170.566406 263.855469 L 159.835938 263.433594 L 159.875 264.613281 L 159.925781 265.789062 L 170.476562 266.003906 L 170.074219 275.519531 L 168.179688 277.578125 L 160.828125 279.296875 L 154.390625 280.316406 L 153.433594 279.730469 L 152.3125 278.089844 L 151.351562 275.875 L 150.820312 262.222656 L 150.78125 258.03125 L 151.117188 254.421875 L 151.792969 251.070312 L 152.597656 247.605469 L 153.4375 244.609375 L 154.597656 241.261719 L 155.386719 238.839844 Z M 157.371094 233.183594 "/>
<path style=" stroke:none;fill-rule:nonzero;fill:rgb(39.99939%,39.99939%,39.99939%);fill-opacity:0.3;" d="M 166.246094 189.800781 L 230.40625 188.488281 L 264.472656 187.703125 L 263.230469 196.394531 L 264.144531 196.351562 L 265.085938 196.308594 L 266.363281 187.660156 L 279.496094 187.464844 L 270.9375 232.164062 L 256.5 229.226562 L 243.769531 227.628906 L 241.511719 227.546875 L 159.007812 229.976562 L 160.164062 223.433594 L 163.957031 207.800781 Z M 166.246094 189.800781 "/>
<path style=" stroke:none;fill-rule:nonzero;fill:rgb(39.99939%,39.99939%,39.99939%);fill-opacity:0.3;" d="M 70.351562 191.722656 L 163.242188 189.863281 L 160.582031 207.226562 L 159.453125 212.160156 L 114.183594 209.144531 L 95.285156 209.417969 L 94.425781 229.441406 L 90.96875 229.355469 L 88.785156 229.304688 L 72.003906 229.40625 L 63.664062 232.621094 Z M 70.351562 191.722656 "/>
<path style=" stroke:none;fill-rule:nonzero;fill:rgb(39.99939%,39.99939%,39.99939%);fill-opacity:0.3;" d="M 63.328125 234.683594 L 72.03125 231.121094 L 90.902344 231.113281 L 94.285156 231.113281 L 93.625 238.402344 L 92.753906 250.464844 L 148.316406 255.246094 L 148.078125 259.28125 L 148.105469 260.171875 L 148.703125 278.890625 L 148.53125 280.191406 L 147.652344 281.425781 L 134 285.5625 L 107.066406 293.363281 L 104.449219 294.511719 L 100.3125 295.761719 L 53.996094 291.953125 L 58.300781 265.507812 L 76.804688 267.859375 L 75.886719 277.09375 L 70.429688 276.664062 L 68.902344 279.25 L 67.378906 281.839844 L 77.003906 281.828125 L 78.207031 267.859375 L 81.171875 265.972656 L 83.199219 266.003906 L 83.101562 277.246094 L 83.660156 277.226562 L 84.222656 277.210938 L 84.316406 266.019531 L 92.023438 266.367188 L 92.03125 270.328125 L 92.566406 270.335938 L 93.0625 270.339844 L 93.035156 266.433594 L 97.808594 266.496094 L 97.789062 266.167969 L 97.773438 265.84375 L 92.453125 265.535156 L 83.765625 265.035156 L 81.164062 264.882812 L 81.992188 241.078125 L 81.445312 241.046875 L 80.871094 241.015625 L 80.722656 244.425781 L 75.179688 244.261719 L 75.179688 244.792969 L 75.148438 245.414062 L 80.671875 245.65625 L 80.457031 250.589844 L 74.878906 250.484375 L 74.859375 250.832031 L 74.839844 251.183594 L 80.425781 251.300781 L 79.835938 264.808594 L 77.523438 266.449219 L 77.199219 266.679688 L 58.527344 264.109375 Z M 63.328125 234.683594 "/>
<path style=" stroke:none;fill-rule:nonzero;fill:rgb(39.99939%,39.99939%,39.99939%);fill-opacity:0.3;" d="M 193.847656 274.457031 L 198.585938 275.074219 L 197.785156 278.117188 L 192.949219 277.351562 Z M 193.847656 274.457031 "/>
<path style=" stroke:none;fill-rule:nonzero;fill:rgb(39.99939%,39.99939%,39.99939%);fill-opacity:0.3;" d="M 94.800781 220.710938 L 94.6875 220.699219 L 94.882812 218.761719 Z M 94.800781 220.710938 "/>
<path style=" stroke:none;fill-rule:nonzero;fill:rgb(39.99939%,39.99939%,39.99939%);fill-opacity:0.3;" d="M 188.515625 261.746094 L 212.609375 260.816406 L 222.726562 260.527344 L 223.871094 256.667969 L 241.113281 259.566406 L 237.632812 265.757812 L 234.273438 269.417969 L 226.59375 277.980469 L 224.554688 282.574219 L 185.445312 277.640625 Z M 188.515625 261.746094 "/>
<path style=" stroke:none;fill-rule:nonzero;fill:rgb(39.99939%,39.99939%,39.99939%);fill-opacity:0.3;" d="M 173.179688 262.15625 L 185.863281 262.226562 L 182.988281 277.398438 L 172.625 275.933594 Z M 173.179688 262.15625 "/>
<path style=" stroke:none;fill-rule:nonzero;fill:rgb(39.99939%,39.99939%,39.99939%);fill-opacity:0.3;" d="M 53.253906 296.550781 L 77.324219 298.554688 L 78.6875 299.011719 L 79.128906 299.84375 L 79.085938 300.71875 L 78.519531 301.230469 L 51.429688 308.570312 Z M 53.253906 296.550781 "/>
<path style=" stroke:none;fill-rule:nonzero;fill:rgb(39.99939%,39.99939%,39.99939%);fill-opacity:0.3;" d="M 91.222656 240.84375 L 93.449219 240.8125 L 92.753906 250.464844 L 94.53125 250.617188 L 94.53125 251.425781 L 91.21875 251.421875 L 91.203125 250.027344 L 90.496094 250.042969 L 90.503906 246.644531 L 91.210938 246.628906 L 91.214844 244.605469 L 90.507812 244.621094 L 90.511719 242.125 L 91.21875 242.113281 Z M 91.222656 240.84375 "/>
<path style=" stroke:none;fill-rule:nonzero;fill:rgb(39.99939%,39.99939%,39.99939%);fill-opacity:0.3;" d="M 282.007812 187.429688 L 305.867188 186.945312 L 307.109375 233.785156 L 274.089844 228.417969 Z M 282.007812 187.429688 "/>
<path style=" stroke:none;fill-rule:nonzero;fill:rgb(39.99939%,39.99939%,39.99939%);fill-opacity:0.3;" d="M 273.910156 231.816406 L 307.121094 237.253906 L 307.746094 251.074219 L 273.464844 247.652344 L 273.910156 240.542969 L 273.363281 234.804688 Z M 273.910156 231.816406 "/>
<path style=" stroke:none;fill-rule:nonzero;fill:rgb(39.99939%,39.99939%,39.99939%);fill-opacity:0.3;" d="M 273.105469 250.222656 L 307.929688 252.871094 L 308.113281 257.242188 L 308.46875 279.707031 L 308.570312 281.027344 L 307.78125 282.230469 L 265.167969 276.335938 L 266.6875 274.113281 L 267.433594 272.863281 L 268.09375 271.066406 L 268.398438 269.773438 L 268.503906 267.761719 L 268.484375 265.554688 L 269.496094 262.621094 L 271.910156 255.058594 Z M 273.105469 250.222656 "/>
<path style=" stroke:none;fill-rule:nonzero;fill:rgb(39.99939%,39.99939%,39.99939%);fill-opacity:0.3;" d="M 261.539062 287.753906 L 261.746094 285.871094 L 262.378906 282.78125 L 263.097656 280.382812 L 264.269531 278.152344 L 308.453125 284.007812 L 308.253906 294.066406 Z M 261.539062 287.753906 "/>
<path style=" stroke:none;fill-rule:nonzero;fill:rgb(39.99939%,39.99939%,39.99939%);fill-opacity:0.3;" d="M 153.921875 231.058594 L 152.273438 231.96875 L 138.988281 232.445312 L 111.980469 229.957031 L 122.09375 230.097656 L 141.070312 231.679688 L 151.746094 231.679688 Z M 153.921875 231.058594 "/>
<path style=" stroke:none;fill-rule:nonzero;fill:rgb(39.99939%,39.99939%,39.99939%);fill-opacity:0.3;" d="M 94.285156 231.113281 L 94.839844 231.113281 L 111.082031 231.59375 L 139.175781 234.082031 L 148.824219 233.71875 L 154.402344 233.355469 L 153.039062 237.230469 L 150.339844 246.664062 L 149 250.910156 L 148.335938 254.910156 L 148.316406 255.246094 L 92.753906 250.464844 L 93.625 238.402344 Z M 94.285156 231.113281 "/>
<path style=" stroke:none;fill-rule:nonzero;fill:rgb(39.99939%,39.99939%,39.99939%);fill-opacity:0.3;" d="M 113.738281 236.316406 L 117.066406 236.269531 L 117.0625 237.519531 L 117.796875 237.503906 L 117.792969 239.996094 L 117.058594 240.011719 L 117.054688 242.035156 L 117.789062 242.019531 L 117.78125 245.417969 L 117.046875 245.433594 L 117.042969 246.898438 L 113.734375 246.894531 L 113.71875 245.5 L 113.011719 245.515625 L 113.019531 242.117188 L 113.726562 242.101562 L 113.730469 240.078125 L 113.023438 240.089844 L 113.027344 237.597656 L 113.734375 237.582031 Z M 113.738281 236.316406 "/>
<path style=" stroke:none;fill-rule:nonzero;fill:rgb(39.99939%,39.99939%,39.99939%);fill-opacity:0.3;" d="M 146.175781 236.742188 L 149.503906 236.695312 L 149.5 237.941406 L 150.234375 237.929688 L 150.230469 240.421875 L 149.496094 240.4375 L 149.492188 242.460938 L 150.226562 242.445312 L 150.21875 245.84375 L 149.484375 245.859375 L 149.480469 247.324219 L 146.171875 247.320312 L 146.15625 245.925781 L 145.449219 245.9375 L 145.457031 242.542969 L 146.164062 242.527344 L 146.167969 240.503906 L 145.460938 240.515625 L 145.464844 238.023438 L 146.171875 238.007812 Z M 146.175781 236.742188 "/>
<path style=" stroke:none;fill-rule:nonzero;fill:rgb(39.99939%,39.99939%,39.99939%);fill-opacity:0.3;" d="M 140.378906 237.015625 L 143.109375 236.984375 L 143.125 238.382812 L 143.867188 238.367188 L 143.847656 240.824219 L 143.117188 240.835938 L 143.125 242.742188 L 143.832031 242.726562 L 143.796875 246.265625 L 143.125 246.277344 L 143.128906 247.675781 L 140.402344 247.757812 L 140.390625 246.339844 L 138.238281 246.382812 L 138.238281 247.71875 L 135.234375 247.777344 L 135.21875 246.386719 L 134.511719 246.398438 L 134.519531 243 L 135.226562 242.988281 L 135.230469 240.960938 L 134.523438 240.976562 L 134.5 238.5625 L 135.238281 238.546875 L 135.242188 237.109375 L 138.261719 237.054688 L 138.261719 238.484375 L 138.964844 238.46875 L 138.964844 240.925781 L 138.25 240.9375 L 138.246094 242.855469 L 140.339844 242.789062 L 140.390625 240.894531 L 139.722656 240.910156 L 139.722656 238.453125 L 140.386719 238.4375 Z M 140.378906 237.015625 "/>
<path style=" stroke:none;fill-rule:nonzero;fill:rgb(39.99939%,39.99939%,39.99939%);fill-opacity:0.3;" d="M 128.566406 236.71875 L 131.894531 236.671875 L 131.890625 237.921875 L 132.625 237.90625 L 132.621094 240.398438 L 131.886719 240.414062 L 131.882812 242.441406 L 132.617188 242.425781 L 132.609375 245.824219 L 131.875 245.835938 L 131.871094 247.300781 L 128.5625 247.296875 L 128.546875 245.902344 L 127.839844 245.917969 L 127.847656 242.519531 L 128.554688 242.503906 L 128.558594 240.480469 L 127.851562 240.496094 L 127.855469 238 L 128.5625 237.988281 Z M 128.566406 236.71875 "/>
<path style=" stroke:none;fill-rule:nonzero;fill:rgb(39.99939%,39.99939%,39.99939%);fill-opacity:0.3;" d="M 93.449219 240.8125 L 94.550781 240.796875 L 94.546875 242.046875 L 95.28125 242.03125 L 95.277344 244.523438 L 94.542969 244.539062 L 94.539062 246.566406 L 95.273438 246.550781 L 95.265625 249.949219 L 94.53125 249.964844 L 94.53125 250.617188 L 92.753906 250.464844 Z M 93.449219 240.8125 "/>
<path style=" stroke:none;fill-rule:nonzero;fill:rgb(39.99939%,39.99939%,39.99939%);fill-opacity:0.3;" d="M 102.722656 237.421875 L 106.050781 237.375 L 106.046875 238.625 L 106.78125 238.609375 L 106.777344 241.101562 L 106.042969 241.117188 L 106.039062 243.144531 L 106.773438 243.128906 L 106.765625 246.527344 L 106.03125 246.539062 L 106.027344 248.003906 L 102.71875 248 L 102.703125 246.605469 L 101.996094 246.621094 L 99.75 246.574219 L 99.746094 248.039062 L 96.433594 248.03125 L 96.417969 246.640625 L 95.710938 246.652344 L 95.71875 243.253906 L 96.425781 243.242188 L 96.429688 241.214844 L 95.722656 241.230469 L 95.726562 238.738281 L 96.433594 238.722656 L 96.4375 237.457031 L 99.765625 237.40625 L 99.765625 238.65625 L 100.496094 238.644531 L 100.492188 241.136719 L 99.757812 241.152344 L 99.753906 243.175781 L 102.710938 243.207031 L 102.714844 241.183594 L 102.007812 241.199219 L 102.011719 238.703125 L 102.71875 238.691406 Z M 102.722656 237.421875 "/>
<path style=" stroke:none;fill-rule:nonzero;fill:rgb(39.99939%,39.99939%,39.99939%);fill-opacity:0.3;" d="M 107.652344 237.28125 L 110.980469 237.234375 L 110.976562 238.484375 L 111.710938 238.46875 L 111.707031 240.964844 L 110.972656 240.976562 L 110.96875 243.003906 L 111.703125 242.988281 L 111.695312 246.386719 L 110.960938 246.402344 L 110.957031 247.867188 L 107.648438 247.859375 L 107.632812 246.464844 L 106.925781 246.480469 L 106.933594 243.082031 L 107.640625 243.066406 L 107.644531 241.042969 L 106.9375 241.058594 L 106.941406 238.5625 L 107.648438 238.550781 Z M 107.652344 237.28125 "/>
<path style=" stroke:none;fill-rule:nonzero;fill:rgb(39.99939%,39.99939%,39.99939%);fill-opacity:0.3;" d="M 159.453125 212.160156 L 156.996094 222.902344 L 156.910156 223.675781 L 156.261719 229.765625 L 153.921875 231.058594 L 151.746094 231.679688 L 141.070312 231.679688 L 122.09375 230.097656 L 111.980469 229.957031 L 110.636719 229.832031 L 94.425781 229.441406 L 95.285156 209.417969 L 114.183594 209.144531 Z M 159.453125 212.160156 "/>
<path style=" stroke:none;fill-rule:nonzero;fill:rgb(39.99939%,39.99939%,39.99939%);fill-opacity:0.3;" d="M 105.429688 216.996094 L 108.410156 217.261719 L 107.945312 221.882812 L 104.964844 221.617188 Z M 105.429688 216.996094 "/>
<path style=" stroke:none;fill-rule:nonzero;fill:rgb(39.99939%,39.99939%,39.99939%);fill-opacity:0.3;" d="M 111.066406 217.507812 L 114.046875 217.773438 L 113.582031 222.386719 L 110.601562 222.121094 Z M 111.066406 217.507812 "/>
<path style=" stroke:none;fill-rule:nonzero;fill:rgb(39.99939%,39.99939%,39.99939%);fill-opacity:0.3;" d="M 115.613281 217.925781 L 118.59375 218.191406 L 118.128906 222.792969 L 115.148438 222.527344 Z M 115.613281 217.925781 "/>
<path style=" stroke:none;fill-rule:nonzero;fill:rgb(39.99939%,39.99939%,39.99939%);fill-opacity:0.3;" d="M 153.5 221.042969 L 156.480469 221.308594 L 156.015625 225.929688 L 153.117188 225.671875 Z M 153.5 221.042969 "/>
<path style=" stroke:none;fill-rule:nonzero;fill:rgb(39.99939%,39.99939%,39.99939%);fill-opacity:0.3;" d="M 149.027344 220.714844 L 152.007812 220.984375 L 151.542969 225.601562 L 148.5625 225.335938 Z M 149.027344 220.714844 "/>
<path style=" stroke:none;fill-rule:nonzero;fill:rgb(39.99939%,39.99939%,39.99939%);fill-opacity:0.3;" d="M 143.625 220.230469 L 146.605469 220.5 L 146.140625 225.121094 L 143.160156 224.851562 Z M 143.625 220.230469 "/>
<path style=" stroke:none;fill-rule:nonzero;fill:rgb(39.99939%,39.99939%,39.99939%);fill-opacity:0.3;" d="M 138.515625 219.777344 L 141.496094 220.042969 L 141.03125 224.664062 L 138.050781 224.398438 Z M 138.515625 219.777344 "/>
<path style=" stroke:none;fill-rule:nonzero;fill:rgb(39.99939%,39.99939%,39.99939%);fill-opacity:0.3;" d="M 133.230469 219.304688 L 136.210938 219.570312 L 135.746094 224.191406 L 132.765625 223.925781 Z M 133.230469 219.304688 "/>
<path style=" stroke:none;fill-rule:nonzero;fill:rgb(39.99939%,39.99939%,39.99939%);fill-opacity:0.3;" d="M 128.339844 218.867188 L 131.320312 219.132812 L 130.855469 223.753906 L 127.875 223.488281 Z M 128.339844 218.867188 "/>
<path style=" stroke:none;fill-rule:nonzero;fill:rgb(39.99939%,39.99939%,39.99939%);fill-opacity:0.3;" d="M 95.152344 216.082031 L 98.132812 216.347656 L 97.664062 221.007812 L 94.800781 220.710938 L 94.882812 218.761719 Z M 95.152344 216.082031 "/>
<path style=" stroke:none;fill-rule:nonzero;fill:rgb(39.99939%,39.99939%,39.99939%);fill-opacity:0.3;" d="M 100.410156 216.546875 L 103.390625 216.8125 L 102.925781 221.433594 L 99.945312 221.167969 Z M 100.410156 216.546875 "/>
<path style=" stroke:none;fill-rule:nonzero;fill:rgb(39.99939%,39.99939%,39.99939%);fill-opacity:0.3;" d="M 252.589844 353.398438 L 252.472656 354.113281 L 205.296875 345.738281 L 203.324219 345.222656 L 201.804688 344.367188 L 200.785156 343.628906 L 200.15625 343.0625 Z M 252.589844 353.398438 "/>
<path style=" stroke:none;fill-rule:nonzero;fill:rgb(39.99939%,39.99939%,39.99939%);fill-opacity:0.3;" d="M 167.253906 336.667969 L 140.433594 333.476562 L 143.046875 333.695312 L 152.933594 334.089844 Z M 167.253906 336.667969 "/>
<g clip-path="url(#clip13)" clip-rule="nonzero">
<path style=" stroke:none;fill-rule:nonzero;fill:rgb(39.99939%,39.99939%,39.99939%);fill-opacity:0.3;" d="M 119.179688 333.769531 L 131.117188 334.894531 L 124.699219 365.496094 L 126.269531 365.738281 L 127.839844 365.976562 L 134.761719 335.324219 L 139.394531 336.152344 L 133.34375 366.59375 L 134.550781 366.828125 L 135.761719 367.0625 L 142.277344 336.335938 L 152.40625 337.699219 L 147.289062 360.707031 L 148.414062 360.929688 L 149.535156 361.152344 L 154.609375 337.996094 L 170.496094 340.132812 L 150.675781 452.660156 L 124.464844 449.792969 L 111.417969 446.78125 L 109.152344 446.457031 L 107.734375 446.121094 L 88.085938 440.453125 L 62.386719 432.941406 L 59.421875 432.199219 L 62.160156 419.941406 L 72.277344 421.65625 L 79.921875 421.894531 L 79.859375 420.464844 L 88.6875 422.175781 L 89.746094 416.308594 L 86.335938 415.585938 L 83.019531 415.015625 L 82.265625 419.304688 L 79.792969 418.949219 L 78.984375 399.523438 L 104.972656 405.710938 L 115.558594 353.085938 Z M 119.179688 333.769531 "/>
</g>
<path style=" stroke:none;fill-rule:nonzero;fill:rgb(39.99939%,39.99939%,39.99939%);fill-opacity:0.3;" d="M 47.953125 331.628906 L 60.488281 331.675781 L 45 351.246094 Z M 47.953125 331.628906 "/>
<path style=" stroke:none;fill-rule:nonzero;fill:rgb(39.99939%,39.99939%,39.99939%);fill-opacity:0.3;" d="M 61.246094 329.289062 L 61.226562 329.355469 L 49.597656 329.050781 L 49.605469 329.003906 Z M 61.246094 329.289062 "/>
<g clip-path="url(#clip14)" clip-rule="nonzero">
<path style=" stroke:none;fill-rule:nonzero;fill:rgb(39.99939%,39.99939%,39.99939%);fill-opacity:0.3;" d="M 77.457031 331.738281 L 96.148438 331.804688 L 90.21875 363.527344 L 91.191406 363.65625 L 92.007812 363.785156 L 97.886719 331.8125 L 116.984375 333.5625 L 102.660156 402.925781 L 80.824219 397.714844 L 84.027344 384.773438 L 82.542969 384.371094 L 81.355469 384.050781 L 78.039062 397.058594 L 75.03125 396.359375 L 75.941406 392.382812 L 75.113281 392.175781 L 74.257812 391.976562 L 73.015625 395.761719 L 64.847656 393.925781 L 66.613281 387.621094 L 65.289062 387.277344 L 64.140625 386.980469 L 62.226562 393.304688 L 39.441406 387.910156 L 39.453125 387.867188 L 37.597656 367.09375 L 56.117188 373.144531 L 55.320312 375.878906 L 58.144531 376.625 L 61.082031 377.40625 L 62.207031 373.582031 L 64.378906 374.214844 L 63.273438 377.984375 L 68.640625 379.40625 L 69.019531 378.097656 L 75.867188 379.914062 L 77.203125 374.96875 L 79.082031 368.203125 L 71.339844 366.390625 L 70.261719 370.097656 L 63.585938 368.445312 L 66.253906 359.28125 L 74.03125 361.109375 L 74.417969 359.875 L 76.59375 352.316406 L 73.742188 351.753906 L 71.425781 351.296875 L 69.449219 357.65625 L 66.894531 357.078125 L 67.832031 353.863281 L 64.542969 353.0625 L 61.058594 352.214844 L 59.332031 358.140625 L 60.878906 358.5625 L 59.535156 363.179688 L 55.277344 362.160156 L 54.210938 365.820312 L 50.382812 364.679688 L 49.089844 369.125 L 37.621094 365.441406 L 37.789062 365.117188 L 63.46875 331.6875 Z M 77.457031 331.738281 "/>
</g>
<g clip-path="url(#clip15)" clip-rule="nonzero">
<path style=" stroke:none;fill-rule:nonzero;fill:rgb(39.99939%,39.99939%,39.99939%);fill-opacity:0.3;" d="M 172.207031 363.328125 L 173.394531 356.453125 L 230.078125 361.082031 L 230.105469 360.289062 L 230.140625 359.492188 L 173.652344 354.949219 L 176.082031 340.941406 L 192.859375 343.277344 L 195.714844 344.199219 L 199.183594 345.917969 L 201.917969 347.636719 L 296.050781 364.308594 L 295.238281 369.160156 L 293.828125 377.722656 L 293.285156 382.746094 Z M 172.207031 363.328125 "/>
</g>
<path style=" stroke:none;fill-rule:nonzero;fill:rgb(39.99939%,39.99939%,39.99939%);fill-opacity:0.3;" d="M 33.886719 292.832031 L 50.789062 295.429688 L 48.71875 308.9375 L 26.324219 312.851562 Z M 33.886719 292.832031 "/>
<g clip-path="url(#clip16)" clip-rule="nonzero">
<path style=" stroke:none;fill-rule:nonzero;fill:rgb(39.99939%,39.99939%,39.99939%);fill-opacity:0.3;" d="M 26.570312 315.546875 L 48.347656 311.871094 L 41.257812 355.894531 L 33.972656 366.042969 L 6.273438 359.332031 Z M 26.570312 315.546875 "/>
</g>
<g clip-path="url(#clip17)" clip-rule="nonzero">
<path style=" stroke:none;fill-rule:nonzero;fill:rgb(39.99939%,39.99939%,39.99939%);fill-opacity:0.3;" d="M -18.234375 381.558594 L -18.484375 382.910156 L -8.070312 383.949219 L -16.847656 405.640625 L -26.519531 401.851562 L -29.742188 400.125 L -31.277344 399.988281 L -39.605469 396.730469 L -45.457031 384.941406 L -51.710938 371.871094 L -53.574219 363.628906 L -43.257812 363.035156 L -37.03125 363.867188 L -31.796875 363.546875 L -31.820312 363.066406 L -31.832031 362.597656 L -36.828125 362.96875 L -37.148438 362.929688 L -43.238281 362.164062 L -53.855469 362.664062 L -61.550781 327.972656 L -68.933594 307.402344 L -71.292969 296.824219 L -73.03125 284.832031 L 30.414062 291.433594 L 23.621094 311.566406 L 17.316406 311.015625 L 17.046875 311.691406 L 16.734375 312.457031 L 23.191406 312.953125 L 21.070312 317.769531 L -4.429688 315.824219 L -4.53125 316.519531 L -4.65625 317.226562 L 19.96875 319.171875 L 3 357.054688 L -5.921875 355.785156 L -6.117188 353.261719 L -28.484375 350.609375 L -28.542969 351.183594 L -28.648438 351.890625 L -7.207031 354.28125 L -7.25 356.316406 L 2.296875 357.769531 L -7.507812 382.5625 Z M -18.234375 381.558594 "/>
</g>
<g clip-path="url(#clip18)" clip-rule="nonzero">
<path style=" stroke:none;fill-rule:nonzero;fill:rgb(39.99939%,39.99939%,39.99939%);fill-opacity:0.3;" d="M 332.804688 253.777344 L 383.941406 257.496094 L 380.507812 273.441406 L 331.300781 268.757812 Z M 332.804688 253.777344 "/>
</g>
<g clip-path="url(#clip19)" clip-rule="nonzero">
<path style=" stroke:none;fill-rule:nonzero;fill:rgb(39.99939%,39.99939%,39.99939%);fill-opacity:0.3;" d="M 318.742188 321.027344 L 320.773438 309.960938 L 386.34375 317.054688 L 385.40625 327.007812 Z M 318.742188 321.027344 "/>
</g>
<g clip-path="url(#clip20)" clip-rule="nonzero">
<path style=" stroke:none;fill-rule:nonzero;fill:rgb(39.99939%,39.99939%,39.99939%);fill-opacity:0.3;" d="M 330.628906 272.605469 L 387.542969 278.679688 L 386.933594 285.296875 L 329.660156 279.246094 Z M 330.628906 272.605469 "/>
</g>
<g clip-path="url(#clip21)" clip-rule="nonzero">
<path style=" stroke:none;fill-rule:nonzero;fill:rgb(39.99939%,39.99939%,39.99939%);fill-opacity:0.3;" d="M 322.183594 292.351562 L 370.78125 296.738281 L 369.792969 306.34375 L 356.742188 305.035156 L 356.648438 305.9375 L 356.589844 306.894531 L 377.730469 308.898438 L 377.828125 308.023438 L 377.921875 307.148438 L 372.761719 306.617188 L 373.789062 297.128906 L 388.414062 298.386719 L 387.742188 304.925781 L 379.386719 304.453125 L 379.308594 305.765625 L 387.570312 306.21875 L 386.898438 313.207031 L 320.929688 306.800781 Z M 322.183594 292.351562 "/>
</g>
<g clip-path="url(#clip22)" clip-rule="nonzero">
<path style=" stroke:none;fill-rule:nonzero;fill:rgb(39.99939%,39.99939%,39.99939%);fill-opacity:0.3;" d="M 329.417969 280.804688 L 386.832031 287.246094 L 386.152344 293.363281 L 328.390625 287.503906 Z M 329.417969 280.804688 "/>
</g>
<g clip-path="url(#clip23)" clip-rule="nonzero">
<path style=" stroke:none;fill-rule:nonzero;fill:rgb(39.99939%,39.99939%,39.99939%);fill-opacity:0.3;" d="M 405.554688 220.046875 L 402.425781 219.777344 L 358.605469 214.78125 L 362.28125 192.945312 L 405.554688 197.878906 L 425.988281 200.207031 L 446.71875 204.953125 L 446.71875 207.113281 L 444.445312 223.375 Z M 405.554688 220.046875 "/>
</g>
<g clip-path="url(#clip24)" clip-rule="nonzero">
<path style=" stroke:none;fill-rule:nonzero;fill:rgb(39.99939%,39.99939%,39.99939%);fill-opacity:0.3;" d="M 351.164062 217.351562 L 390.96875 220.882812 L 384.371094 253.535156 L 335.023438 251.53125 L 336.453125 244.609375 L 340.574219 245.054688 L 342.628906 237.390625 L 368.386719 237.828125 L 368.371094 236.933594 L 368.351562 236.035156 L 346.4375 235.769531 Z M 351.164062 217.351562 "/>
</g>
<path style=" stroke:none;fill-rule:nonzero;fill:rgb(39.99939%,39.99939%,39.99939%);fill-opacity:0.3;" d="M 322.664062 254.234375 L 330.75 254.070312 L 326.0625 287.097656 L 321.578125 286.273438 Z M 322.664062 254.234375 "/>
<path style=" stroke:none;fill-rule:nonzero;fill:rgb(39.99939%,39.99939%,39.99939%);fill-opacity:0.3;" d="M 322.714844 240.582031 L 328.839844 242.816406 L 333.121094 242.800781 L 331.066406 250.464844 L 322.503906 250.027344 Z M 322.714844 240.582031 "/>
<g clip-path="url(#clip25)" clip-rule="nonzero">
<path style=" stroke:none;fill-rule:nonzero;fill:rgb(39.99939%,39.99939%,39.99939%);fill-opacity:0.3;" d="M 321.578125 190.207031 L 340.332031 191.9375 L 337.445312 208.378906 L 339.789062 208.636719 L 342.675781 192.0625 L 360.234375 192.949219 L 356.558594 213.105469 L 349.261719 215.550781 L 344.847656 233.890625 L 341.359375 234.496094 L 339.460938 239.789062 L 335.179688 239.792969 L 334.070312 241.148438 L 328.523438 241.003906 L 322.8125 238.019531 Z M 321.578125 190.207031 "/>
</g>
<path style="fill-rule:nonzero;fill:rgb(39.99939%,39.99939%,39.99939%);fill-opacity:1;stroke-width:0.03;stroke-linecap:square;stroke-linejoin:miter;stroke:rgb(39.99939%,39.99939%,39.99939%);stroke-opacity:1;stroke-miterlimit:3.239307;" d="M 317.300781 273.191406 L 324.738281 275.601562 L 323.9375 278.722656 L 324.832031 278.921875 L 325.722656 279.117188 L 326.597656 275.9375 L 339.003906 278.1875 L 339.753906 279.519531 L 339.976562 281.3125 L 339.585938 283.785156 L 338.53125 285.90625 L 337.144531 287.660156 L 333.9375 295.101562 L 333.398438 298.273438 L 332.914062 300.421875 L 301.074219 295.914062 L 301.722656 293.863281 L 304.820312 289.308594 L 314.539062 278.828125 L 318.394531 279.808594 L 318.5 279.566406 L 318.628906 279.253906 L 315.050781 278.3125 Z M 317.300781 273.191406 " transform="matrix(1,0,0,1,-74,-13)"/>
<path style="fill-rule:nonzero;fill:rgb(39.99939%,39.99939%,39.99939%);fill-opacity:1;stroke-width:0.03;stroke-linecap:square;stroke-linejoin:miter;stroke:rgb(39.99939%,39.99939%,39.99939%);stroke-opacity:1;stroke-miterlimit:3.239307;" d="M 278.691406 272.398438 L 278.449219 264.703125 L 300.246094 264.503906 L 302.90625 253.769531 L 308.738281 254.410156 L 309.253906 251.648438 L 325.652344 250.480469 L 327.445312 244.597656 L 344.1875 247.570312 L 344.445312 250.476562 L 344.1875 256.886719 L 343.65625 262.554688 L 342.664062 267.097656 L 340.929688 272.6875 L 339.3125 276.683594 L 326.972656 274.585938 L 326.5625 273.082031 L 297.402344 267.535156 L 296.449219 269.84375 L 293.378906 269.933594 L 293.109375 271.644531 L 286.960938 272.082031 Z M 278.691406 272.398438 " transform="matrix(1,0,0,1,-74,-13)"/>
<path style="fill-rule:nonzero;fill:rgb(39.99939%,39.99939%,39.99939%);fill-opacity:1;stroke-width:0.03;stroke-linecap:square;stroke-linejoin:miter;stroke:rgb(39.99939%,39.99939%,39.99939%);stroke-opacity:1;stroke-miterlimit:3.239307;" d="M 316.042969 243.429688 L 318.945312 243.15625 L 326.089844 244.34375 L 324.621094 248.941406 L 315.875 249.113281 Z M 316.042969 243.429688 " transform="matrix(1,0,0,1,-74,-13)"/>
<path style="fill-rule:nonzero;fill:rgb(39.99939%,39.99939%,39.99939%);fill-opacity:1;stroke-width:0.03;stroke-linecap:square;stroke-linejoin:miter;stroke:rgb(39.99939%,39.99939%,39.99939%);stroke-opacity:1;stroke-miterlimit:3.239307;" d="M 231.371094 246.183594 L 312.585938 242.988281 L 313.792969 244.414062 L 313.050781 248.242188 L 304.621094 249.785156 L 304.191406 252.304688 L 300.917969 252.03125 L 298.425781 262.109375 L 276.1875 262.558594 L 276.46875 272.488281 L 267.042969 272.867188 L 267.421875 254.253906 L 271.753906 254.238281 L 271.800781 253.125 L 271.839844 252.140625 L 265.039062 252.144531 L 264.898438 272.949219 L 259.882812 273.132812 L 259.96875 265.507812 L 257.253906 265.253906 L 257.066406 256.519531 L 256.433594 256.433594 L 255.800781 256.351562 L 256.082031 266.628906 L 257.164062 266.625 L 257.003906 273.808594 L 247.238281 273.683594 L 247.640625 263.925781 L 246.703125 263.785156 L 245.316406 263.578125 L 245.210938 268.253906 L 236.671875 268.222656 L 236.671875 268.867188 L 236.675781 269.511719 L 244.871094 269.585938 L 244.566406 276.855469 L 233.835938 276.433594 L 233.875 277.613281 L 233.925781 278.789062 L 244.476562 279.003906 L 244.074219 288.519531 L 242.179688 290.578125 L 234.828125 292.296875 L 228.390625 293.316406 L 227.433594 292.730469 L 226.3125 291.089844 L 225.351562 288.875 L 224.820312 275.222656 L 224.78125 271.03125 L 225.117188 267.421875 L 225.792969 264.070312 L 226.597656 260.605469 L 227.4375 257.609375 L 228.597656 254.261719 L 229.386719 251.839844 Z M 231.371094 246.183594 " transform="matrix(1,0,0,1,-74,-13)"/>
<path style="fill-rule:nonzero;fill:rgb(39.99939%,39.99939%,39.99939%);fill-opacity:1;stroke-width:0.03;stroke-linecap:square;stroke-linejoin:miter;stroke:rgb(39.99939%,39.99939%,39.99939%);stroke-opacity:1;stroke-miterlimit:3.239307;" d="M 240.246094 202.800781 L 304.40625 201.488281 L 338.472656 200.703125 L 337.230469 209.394531 L 338.144531 209.351562 L 339.085938 209.308594 L 340.363281 200.660156 L 353.496094 200.464844 L 344.9375 245.164062 L 330.5 242.226562 L 317.769531 240.628906 L 315.511719 240.546875 L 233.007812 242.976562 L 234.164062 236.433594 L 237.957031 220.800781 Z M 240.246094 202.800781 " transform="matrix(1,0,0,1,-74,-13)"/>
<path style="fill-rule:nonzero;fill:rgb(39.99939%,39.99939%,39.99939%);fill-opacity:1;stroke-width:0.03;stroke-linecap:square;stroke-linejoin:miter;stroke:rgb(39.99939%,39.99939%,39.99939%);stroke-opacity:1;stroke-miterlimit:3.239307;" d="M 144.351562 204.722656 L 237.242188 202.863281 L 234.582031 220.226562 L 233.453125 225.160156 L 188.183594 222.144531 L 169.285156 222.417969 L 168.425781 242.441406 L 164.96875 242.355469 L 162.785156 242.304688 L 146.003906 242.40625 L 137.664062 245.621094 Z M 144.351562 204.722656 " transform="matrix(1,0,0,1,-74,-13)"/>
<path style="fill-rule:nonzero;fill:rgb(39.99939%,39.99939%,39.99939%);fill-opacity:1;stroke-width:0.03;stroke-linecap:square;stroke-linejoin:miter;stroke:rgb(39.99939%,39.99939%,39.99939%);stroke-opacity:1;stroke-miterlimit:3.239307;" d="M 137.328125 247.683594 L 146.03125 244.121094 L 164.902344 244.113281 L 168.285156 244.113281 L 167.625 251.402344 L 166.753906 263.464844 L 222.316406 268.246094 L 222.078125 272.28125 L 222.105469 273.171875 L 222.703125 291.890625 L 222.53125 293.191406 L 221.652344 294.425781 L 208 298.5625 L 181.066406 306.363281 L 178.449219 307.511719 L 174.3125 308.761719 L 127.996094 304.953125 L 132.300781 278.507812 L 150.804688 280.859375 L 149.886719 290.09375 L 144.429688 289.664062 L 142.902344 292.25 L 141.378906 294.839844 L 151.003906 294.828125 L 152.207031 280.859375 L 155.171875 278.972656 L 157.199219 279.003906 L 157.101562 290.246094 L 157.660156 290.226562 L 158.222656 290.210938 L 158.316406 279.019531 L 166.023438 279.367188 L 166.03125 283.328125 L 166.566406 283.335938 L 167.0625 283.339844 L 167.035156 279.433594 L 171.808594 279.496094 L 171.789062 279.167969 L 171.773438 278.84375 L 166.453125 278.535156 L 157.765625 278.035156 L 155.164062 277.882812 L 155.992188 254.078125 L 155.445312 254.046875 L 154.871094 254.015625 L 154.722656 257.425781 L 149.179688 257.261719 L 149.179688 257.792969 L 149.148438 258.414062 L 154.671875 258.65625 L 154.457031 263.589844 L 148.878906 263.484375 L 148.859375 263.832031 L 148.839844 264.183594 L 154.425781 264.300781 L 153.835938 277.808594 L 151.523438 279.449219 L 151.199219 279.679688 L 132.527344 277.109375 Z M 137.328125 247.683594 " transform="matrix(1,0,0,1,-74,-13)"/>
<path style="fill-rule:nonzero;fill:rgb(39.99939%,39.99939%,39.99939%);fill-opacity:1;stroke-width:0.03;stroke-linecap:square;stroke-linejoin:miter;stroke:rgb(39.99939%,39.99939%,39.99939%);stroke-opacity:1;stroke-miterlimit:3.239307;" d="M 267.847656 287.457031 L 272.585938 288.074219 L 271.785156 291.117188 L 266.949219 290.351562 Z M 267.847656 287.457031 " transform="matrix(1,0,0,1,-74,-13)"/>
<path style="fill-rule:nonzero;fill:rgb(39.99939%,39.99939%,39.99939%);fill-opacity:1;stroke-width:0.03;stroke-linecap:square;stroke-linejoin:miter;stroke:rgb(39.99939%,39.99939%,39.99939%);stroke-opacity:1;stroke-miterlimit:3.239307;" d="M 168.800781 233.710938 L 168.6875 233.699219 L 168.882812 231.761719 Z M 168.800781 233.710938 " transform="matrix(1,0,0,1,-74,-13)"/>
<path style="fill-rule:nonzero;fill:rgb(39.99939%,39.99939%,39.99939%);fill-opacity:1;stroke-width:0.03;stroke-linecap:square;stroke-linejoin:miter;stroke:rgb(39.99939%,39.99939%,39.99939%);stroke-opacity:1;stroke-miterlimit:3.239307;" d="M 262.515625 274.746094 L 286.609375 273.816406 L 296.726562 273.527344 L 297.871094 269.667969 L 315.113281 272.566406 L 311.632812 278.757812 L 308.273438 282.417969 L 300.59375 290.980469 L 298.554688 295.574219 L 259.445312 290.640625 Z M 262.515625 274.746094 " transform="matrix(1,0,0,1,-74,-13)"/>
<path style="fill-rule:nonzero;fill:rgb(39.99939%,39.99939%,39.99939%);fill-opacity:1;stroke-width:0.03;stroke-linecap:square;stroke-linejoin:miter;stroke:rgb(39.99939%,39.99939%,39.99939%);stroke-opacity:1;stroke-miterlimit:3.239307;" d="M 247.179688 275.15625 L 259.863281 275.226562 L 256.988281 290.398438 L 246.625 288.933594 Z M 247.179688 275.15625 " transform="matrix(1,0,0,1,-74,-13)"/>
<path style="fill-rule:nonzero;fill:rgb(39.99939%,39.99939%,39.99939%);fill-opacity:1;stroke-width:0.03;stroke-linecap:square;stroke-linejoin:miter;stroke:rgb(39.99939%,39.99939%,39.99939%);stroke-opacity:1;stroke-miterlimit:3.239307;" d="M 127.253906 309.550781 L 151.324219 311.554688 L 152.6875 312.011719 L 153.128906 312.84375 L 153.085938 313.71875 L 152.519531 314.230469 L 125.429688 321.570312 Z M 127.253906 309.550781 " transform="matrix(1,0,0,1,-74,-13)"/>
<path style="fill-rule:nonzero;fill:rgb(39.99939%,39.99939%,39.99939%);fill-opacity:1;stroke-width:0.03;stroke-linecap:square;stroke-linejoin:miter;stroke:rgb(39.99939%,39.99939%,39.99939%);stroke-opacity:1;stroke-miterlimit:3.239307;" d="M 165.222656 253.84375 L 167.449219 253.8125 L 166.753906 263.464844 L 168.53125 263.617188 L 168.53125 264.425781 L 165.21875 264.421875 L 165.203125 263.027344 L 164.496094 263.042969 L 164.503906 259.644531 L 165.210938 259.628906 L 165.214844 257.605469 L 164.507812 257.621094 L 164.511719 255.125 L 165.21875 255.113281 Z M 165.222656 253.84375 " transform="matrix(1,0,0,1,-74,-13)"/>
<path style="fill-rule:nonzero;fill:rgb(39.99939%,39.99939%,39.99939%);fill-opacity:1;stroke-width:0.03;stroke-linecap:square;stroke-linejoin:miter;stroke:rgb(39.99939%,39.99939%,39.99939%);stroke-opacity:1;stroke-miterlimit:3.239307;" d="M 356.007812 200.429688 L 379.867188 199.945312 L 381.109375 246.785156 L 348.089844 241.417969 Z M 356.007812 200.429688 " transform="matrix(1,0,0,1,-74,-13)"/>
<path style="fill-rule:nonzero;fill:rgb(39.99939%,39.99939%,39.99939%);fill-opacity:1;stroke-width:0.03;stroke-linecap:square;stroke-linejoin:miter;stroke:rgb(39.99939%,39.99939%,39.99939%);stroke-opacity:1;stroke-miterlimit:3.239307;" d="M 347.910156 244.816406 L 381.121094 250.253906 L 381.746094 264.074219 L 347.464844 260.652344 L 347.910156 253.542969 L 347.363281 247.804688 Z M 347.910156 244.816406 " transform="matrix(1,0,0,1,-74,-13)"/>
<path style="fill-rule:nonzero;fill:rgb(39.99939%,39.99939%,39.99939%);fill-opacity:1;stroke-width:0.03;stroke-linecap:square;stroke-linejoin:miter;stroke:rgb(39.99939%,39.99939%,39.99939%);stroke-opacity:1;stroke-miterlimit:3.239307;" d="M 347.105469 263.222656 L 381.929688 265.871094 L 382.113281 270.242188 L 382.46875 292.707031 L 382.570312 294.027344 L 381.78125 295.230469 L 339.167969 289.335938 L 340.6875 287.113281 L 341.433594 285.863281 L 342.09375 284.066406 L 342.398438 282.773438 L 342.503906 280.761719 L 342.484375 278.554688 L 343.496094 275.621094 L 345.910156 268.058594 Z M 347.105469 263.222656 " transform="matrix(1,0,0,1,-74,-13)"/>
<path style="fill-rule:nonzero;fill:rgb(39.99939%,39.99939%,39.99939%);fill-opacity:1;stroke-width:0.03;stroke-linecap:square;stroke-linejoin:miter;stroke:rgb(39.99939%,39.99939%,39.99939%);stroke-opacity:1;stroke-miterlimit:3.239307;" d="M 335.539062 300.753906 L 335.746094 298.871094 L 336.378906 295.78125 L 337.097656 293.382812 L 338.269531 291.152344 L 382.453125 297.007812 L 382.253906 307.066406 Z M 335.539062 300.753906 " transform="matrix(1,0,0,1,-74,-13)"/>
<g clip-path="url(#clip26)" clip-rule="nonzero">
<path style=" stroke:none;fill-rule:evenodd;fill:rgb(85.096741%,85.096741%,81.959534%);fill-opacity:0.7;" d="M 116.816406 358 C 116.816406 353.804688 115.148438 349.78125 112.183594 346.816406 C 109.21875 343.851562 105.195312 342.183594 101 342.183594 C 96.804688 342.183594 92.78125 343.851562 89.816406 346.816406 C 86.851562 349.78125 85.183594 353.804688 85.183594 358 C 85.183594 362.195312 86.851562 366.21875 89.816406 369.183594 C 92.78125 372.148438 96.804688 373.816406 101 373.816406 C 105.195312 373.816406 109.21875 372.148438 112.183594 369.183594 C 115.148438 366.21875 116.816406 362.195312 116.816406 358 Z M 116.816406 358 "/>
</g>
<path style=" stroke:none;fill-rule:evenodd;fill:rgb(85.096741%,85.096741%,81.959534%);fill-opacity:0.7;" d="M 232.816406 239 C 232.816406 234.804688 231.148438 230.78125 228.183594 227.816406 C 225.21875 224.851562 221.195312 223.183594 217 223.183594 C 212.804688 223.183594 208.78125 224.851562 205.816406 227.816406 C 202.851562 230.78125 201.183594 234.804688 201.183594 239 C 201.183594 243.195312 202.851562 247.21875 205.816406 250.183594 C 208.78125 253.148438 212.804688 254.816406 217 254.816406 C 221.195312 254.816406 225.21875 253.148438 228.183594 250.183594 C 231.148438 247.21875 232.816406 243.195312 232.816406 239 Z M 232.816406 239 "/>
<path style=" stroke:none;fill-rule:evenodd;fill:rgb(85.096741%,85.096741%,81.959534%);fill-opacity:0.7;" d="M 76.816406 230 C 76.816406 225.804688 75.148438 221.78125 72.183594 218.816406 C 69.21875 215.851562 65.195312 214.183594 61 214.183594 C 56.804688 214.183594 52.78125 215.851562 49.816406 218.816406 C 46.851562 221.78125 45.183594 225.804688 45.183594 230 C 45.183594 234.195312 46.851562 238.21875 49.816406 241.183594 C 52.78125 244.148438 56.804688 245.816406 61 245.816406 C 65.195312 245.816406 69.21875 244.148438 72.183594 241.183594 C 75.148438 238.21875 76.816406 234.195312 76.816406 230 Z M 76.816406 230 "/>
<path style=" stroke:none;fill-rule:evenodd;fill:rgb(85.096741%,85.096741%,81.959534%);fill-opacity:0.7;" d="M 313.816406 208 C 313.816406 203.804688 312.148438 199.78125 309.183594 196.816406 C 306.21875 193.851562 302.195312 192.183594 298 192.183594 C 293.804688 192.183594 289.78125 193.851562 286.816406 196.816406 C 283.851562 199.78125 282.183594 203.804688 282.183594 208 C 282.183594 212.195312 283.851562 216.21875 286.816406 219.183594 C 289.78125 222.148438 293.804688 223.816406 298 223.816406 C 302.195312 223.816406 306.21875 222.148438 309.183594 219.183594 C 312.148438 216.21875 313.816406 212.195312 313.816406 208 Z M 313.816406 208 "/>
<path style="fill-rule:nonzero;fill:rgb(99.998474%,99.998474%,30.587769%);fill-opacity:0.8;stroke-width:0.288;stroke-linecap:square;stroke-linejoin:miter;stroke:rgb(0%,0%,0%);stroke-opacity:0.8;stroke-miterlimit:3.25;" d="M 341.601562 66.75 L 307.359375 126.058594 L 375.84375 126.058594 Z M 341.601562 66.75 " transform="matrix(1,0,0,1,-74,-13)"/>
</g>
</svg>
