<?xml version="1.0" encoding="UTF-8"?>
<svg xmlns="http://www.w3.org/2000/svg" xmlns:xlink="http://www.w3.org/1999/xlink" width="361pt" height="361pt" viewBox="0 0 361 361" version="1.1">
<defs>
<clipPath id="clip1">
  <path d="M 0 274 L 4 274 L 4 360 L 0 360 Z M 0 274 "/>
</clipPath>
<clipPath id="clip2">
  <path d="M 0 278 L 43 278 L 43 360 L 0 360 Z M 0 278 "/>
</clipPath>
<clipPath id="clip3">
  <path d="M 33 283 L 84 283 L 84 360 L 33 360 Z M 33 283 "/>
</clipPath>
<clipPath id="clip4">
  <path d="M 108 291 L 157 291 L 157 360 L 108 360 Z M 108 291 "/>
</clipPath>
<clipPath id="clip5">
  <path d="M 72 287 L 120 287 L 120 360 L 72 360 Z M 72 287 "/>
</clipPath>
<clipPath id="clip6">
  <path d="M 184 299 L 230 299 L 230 360 L 184 360 Z M 184 299 "/>
</clipPath>
<clipPath id="clip7">
  <path d="M 145 295 L 195 295 L 195 360 L 145 360 Z M 145 295 "/>
</clipPath>
<clipPath id="clip8">
  <path d="M 256 315 L 288 315 L 288 360 L 256 360 Z M 256 315 "/>
</clipPath>
<clipPath id="clip9">
  <path d="M 220 303 L 265 303 L 265 360 L 220 360 Z M 220 303 "/>
</clipPath>
<clipPath id="clip10">
  <path d="M 304 332 L 327 332 L 327 360 L 304 360 Z M 304 332 "/>
</clipPath>
<clipPath id="clip11">
  <path d="M 344 81 L 360 81 L 360 172 L 344 172 Z M 344 81 "/>
</clipPath>
<clipPath id="clip12">
  <path d="M 341 177 L 360 177 L 360 300 L 341 300 Z M 341 177 "/>
</clipPath>
<clipPath id="clip13">
  <path d="M 346 0 L 360 0 L 360 77 L 346 77 Z M 346 0 "/>
</clipPath>
</defs>
<g id="surface6979">
<path style="fill-rule:nonzero;fill:rgb(0%,0%,0%);fill-opacity:1;stroke-width:0.03;stroke-linecap:square;stroke-linejoin:miter;stroke:rgb(0%,0%,0%);stroke-opacity:1;stroke-miterlimit:10;" d="M 0 178 L 360 178 L 360 -182 L 0 -182 Z M 0 178 " transform="matrix(1,0,0,1,0,182)"/>
<g clip-path="url(#clip1)" clip-rule="nonzero">
<path style=" stroke:none;fill-rule:nonzero;fill:rgb(39.99939%,39.99939%,39.99939%);fill-opacity:0.3;" d="M -26.324219 274.363281 L 3.5625 278.101562 L -14.019531 382.300781 L -43.539062 379.207031 Z M -26.324219 274.363281 "/>
</g>
<g clip-path="url(#clip2)" clip-rule="nonzero">
<path style=" stroke:none;fill-rule:nonzero;fill:rgb(39.99939%,39.99939%,39.99939%);fill-opacity:0.3;" d="M 9.457031 278.835938 L 42.492188 282.96875 L 23.9375 386.5625 L -7.703125 383.011719 Z M 9.457031 278.835938 "/>
</g>
<path style=" stroke:none;fill-rule:nonzero;fill:rgb(39.99939%,39.99939%,39.99939%);fill-opacity:0.3;" d="M -88.992188 139.898438 L -125.988281 133.058594 L -109.222656 26.582031 L -3.75 39.332031 L -6.097656 58.136719 L -2.347656 57.738281 L -9.8125 103.570312 L -8.214844 104.132812 L -6.476562 104.75 L 3.472656 41.140625 L 80.125 50.542969 L 59.859375 173.773438 L 53.542969 172.601562 L 48.921875 169.230469 L 39.660156 161.917969 L 16.792969 157.132812 L 18.390625 150.21875 L 46.753906 153.761719 L 46.941406 152.507812 L 47.125 151.261719 L 14.546875 147.714844 L 12.648438 156.457031 L -8.664062 152.984375 L -6.460938 137.449219 L -8.386719 137.144531 L -10.316406 136.839844 L -12.613281 152.339844 L -49.144531 146.390625 L -45.121094 121.582031 L -46.691406 121.183594 L -48.261719 120.78125 L -52.25 145.882812 L -85.484375 140.46875 L -80.46875 111.878906 L -81.632812 111.675781 L -83.480469 111.347656 Z M -88.992188 139.898438 "/>
<path style=" stroke:none;fill-rule:nonzero;fill:rgb(39.99939%,39.99939%,39.99939%);fill-opacity:0.3;" d="M -7.246094 158.15625 L 25.277344 163.457031 L 5.601562 270.117188 L -26.007812 266.164062 Z M -7.246094 158.15625 "/>
<path style=" stroke:none;fill-rule:nonzero;fill:rgb(39.99939%,39.99939%,39.99939%);fill-opacity:0.3;" d="M 31.394531 164.453125 L 37.855469 165.769531 L 49.621094 176.710938 L 52.367188 186.453125 L 55.945312 195.453125 L 41.910156 274.660156 L 12.136719 270.9375 Z M 31.394531 164.453125 "/>
<g clip-path="url(#clip3)" clip-rule="nonzero">
<path style=" stroke:none;fill-rule:nonzero;fill:rgb(39.99939%,39.99939%,39.99939%);fill-opacity:0.3;" d="M 51.074219 283.742188 L 83.394531 287.480469 L 67.171875 379.925781 L 62.097656 379.355469 L 60.386719 390.660156 L 33.496094 387.636719 Z M 51.074219 283.742188 "/>
</g>
<g clip-path="url(#clip4)" clip-rule="nonzero">
<path style=" stroke:none;fill-rule:nonzero;fill:rgb(39.99939%,39.99939%,39.99939%);fill-opacity:0.3;" d="M 126.144531 291.960938 L 156.722656 294.800781 L 137.21875 399.285156 L 110.09375 396.238281 L 112.082031 384.96875 L 108.292969 384.542969 Z M 126.144531 291.960938 "/>
</g>
<g clip-path="url(#clip5)" clip-rule="nonzero">
<path style=" stroke:none;fill-rule:nonzero;fill:rgb(39.99939%,39.99939%,39.99939%);fill-opacity:0.3;" d="M 88.507812 287.898438 L 119.777344 291.132812 L 102.246094 383.863281 L 98.402344 383.429688 L 96.414062 394.703125 L 74.359375 392.226562 L 75.996094 380.914062 L 72.78125 380.554688 Z M 88.507812 287.898438 "/>
</g>
<g clip-path="url(#clip6)" clip-rule="nonzero">
<path style=" stroke:none;fill-rule:nonzero;fill:rgb(39.99939%,39.99939%,39.99939%);fill-opacity:0.3;" d="M 199.738281 299.300781 L 229.902344 303.003906 L 214.1875 395.804688 L 209.429688 395.753906 L 207.460938 407.171875 L 184.875 404.636719 L 186.949219 393.375 L 184.296875 393.078125 Z M 199.738281 299.300781 "/>
</g>
<g clip-path="url(#clip7)" clip-rule="nonzero">
<path style=" stroke:none;fill-rule:nonzero;fill:rgb(39.99939%,39.99939%,39.99939%);fill-opacity:0.3;" d="M 163.871094 295.75 L 194.398438 298.773438 L 178.574219 392.433594 L 174.550781 391.980469 L 172.597656 403.546875 L 145.617188 400.226562 Z M 163.871094 295.75 "/>
</g>
<g clip-path="url(#clip8)" clip-rule="nonzero">
<path style=" stroke:none;fill-rule:nonzero;fill:rgb(39.99939%,39.99939%,39.99939%);fill-opacity:0.3;" d="M 270.167969 315.269531 L 275.691406 318.019531 L 283.386719 322.425781 L 286.070312 324.457031 L 287.503906 327.339844 L 284.613281 411.484375 L 283.238281 414.488281 L 280.378906 415.359375 L 257.5 412.792969 L 258.890625 401.453125 L 256.035156 401.132812 Z M 270.167969 315.269531 "/>
</g>
<g clip-path="url(#clip9)" clip-rule="nonzero">
<path style=" stroke:none;fill-rule:nonzero;fill:rgb(39.99939%,39.99939%,39.99939%);fill-opacity:0.3;" d="M 236.492188 303.800781 L 244.980469 303.976562 L 252.289062 305.707031 L 260.664062 309.722656 L 264.964844 315.003906 L 251.316406 400.601562 L 247.25 400.144531 L 245.179688 411.40625 L 221.632812 408.761719 L 223.246094 397.449219 L 220.386719 397.128906 Z M 236.492188 303.800781 "/>
</g>
<g clip-path="url(#clip10)" clip-rule="nonzero">
<path style=" stroke:none;fill-rule:nonzero;fill:rgb(39.99939%,39.99939%,39.99939%);fill-opacity:0.3;" d="M 305.507812 332.0625 L 326.464844 342.457031 L 304.722656 382.140625 Z M 305.507812 332.0625 "/>
</g>
<path style=" stroke:none;fill-rule:nonzero;fill:rgb(39.99939%,39.99939%,39.99939%);fill-opacity:0.3;" d="M 288.8125 66.96875 L 286.140625 67.816406 L 186.316406 57.179688 L 199.730469 58.347656 Z M 288.8125 66.96875 "/>
<path style=" stroke:none;fill-rule:nonzero;fill:rgb(39.99939%,39.99939%,39.99939%);fill-opacity:0.3;" d="M 141.863281 58.84375 L 168.511719 62.105469 L 164.113281 170.847656 L 139.167969 170.765625 Z M 141.863281 58.84375 "/>
<path style=" stroke:none;fill-rule:nonzero;fill:rgb(39.99939%,39.99939%,39.99939%);fill-opacity:0.3;" d="M 85.386719 93.085938 L 104.230469 93.640625 L 99.542969 170.636719 L 72.023438 170.546875 Z M 85.386719 93.085938 "/>
<path style=" stroke:none;fill-rule:nonzero;fill:rgb(39.99939%,39.99939%,39.99939%);fill-opacity:0.3;" d="M 174.792969 62.953125 L 198.128906 66.058594 L 195.722656 170.953125 L 170.886719 170.871094 Z M 174.792969 62.953125 "/>
<path style=" stroke:none;fill-rule:nonzero;fill:rgb(39.99939%,39.99939%,39.99939%);fill-opacity:0.3;" d="M 169.339844 176.214844 L 195.230469 176.234375 L 193.800781 255.628906 L 167.839844 239.867188 Z M 169.339844 176.214844 "/>
<path style=" stroke:none;fill-rule:nonzero;fill:rgb(39.99939%,39.99939%,39.99939%);fill-opacity:0.3;" d="M 138 175.722656 L 162.988281 175.945312 L 161.523438 236.082031 L 137.660156 221.621094 Z M 138 175.722656 "/>
<path style=" stroke:none;fill-rule:nonzero;fill:rgb(39.99939%,39.99939%,39.99939%);fill-opacity:0.3;" d="M 70.574219 175.121094 L 131.324219 175.664062 L 130.980469 217.828125 L 69.621094 180.527344 Z M 70.574219 175.121094 "/>
<path style=" stroke:none;fill-rule:nonzero;fill:rgb(39.99939%,39.99939%,39.99939%);fill-opacity:0.3;" d="M 110.511719 93.917969 L 135.335938 95.035156 L 133.308594 170.746094 L 106.175781 170.660156 Z M 110.511719 93.917969 "/>
<path style=" stroke:none;fill-rule:nonzero;fill:rgb(39.99939%,39.99939%,39.99939%);fill-opacity:0.3;" d="M 268.386719 74.851562 L 292.355469 77.902344 L 290.820312 171.265625 L 265.875 171.183594 Z M 268.386719 74.851562 "/>
<path style=" stroke:none;fill-rule:nonzero;fill:rgb(39.99939%,39.99939%,39.99939%);fill-opacity:0.3;" d="M 265.53125 176.863281 L 290.359375 177.085938 L 288.648438 305.871094 L 287.835938 307.171875 L 286.417969 307.945312 L 284.082031 308.570312 L 282 308.523438 L 261.65625 296.386719 Z M 265.53125 176.863281 "/>
<path style=" stroke:none;fill-rule:nonzero;fill:rgb(39.99939%,39.99939%,39.99939%);fill-opacity:0.3;" d="M 204.046875 66.722656 L 229.167969 70.757812 L 228.210938 171.058594 L 202.402344 170.972656 Z M 204.046875 66.722656 "/>
<path style=" stroke:none;fill-rule:nonzero;fill:rgb(39.99939%,39.99939%,39.99939%);fill-opacity:0.3;" d="M 235.820312 70.851562 L 261.84375 74.238281 L 259.292969 171.160156 L 234.070312 171.078125 Z M 235.820312 70.851562 "/>
<path style=" stroke:none;fill-rule:nonzero;fill:rgb(39.99939%,39.99939%,39.99939%);fill-opacity:0.3;" d="M 233.941406 176.582031 L 259.296875 176.808594 L 254.296875 292.097656 L 231.304688 277.953125 Z M 233.941406 176.582031 "/>
<path style=" stroke:none;fill-rule:nonzero;fill:rgb(39.99939%,39.99939%,39.99939%);fill-opacity:0.3;" d="M 202.269531 176.296875 L 227.394531 176.898438 L 225.390625 274.699219 L 200.382812 259.339844 Z M 202.269531 176.296875 "/>
<path style=" stroke:none;fill-rule:nonzero;fill:rgb(39.99939%,39.99939%,39.99939%);fill-opacity:0.3;" d="M 91.039062 51.429688 L 135.121094 57.238281 L 133.953125 89.292969 L 84.597656 87.910156 L 90.957031 51.429688 Z M 91.039062 51.429688 "/>
<path style=" stroke:none;fill-rule:nonzero;fill:rgb(39.99939%,39.99939%,39.99939%);fill-opacity:0.3;" d="M 169.757812 250.386719 L 199.125 268.429688 L 195.621094 290.800781 L 165.375 287.632812 Z M 169.757812 250.386719 "/>
<path style=" stroke:none;fill-rule:nonzero;fill:rgb(39.99939%,39.99939%,39.99939%);fill-opacity:0.3;" d="M 134.765625 228.792969 L 163.585938 246.835938 L 158.804688 286.945312 L 126.769531 283.589844 Z M 134.765625 228.792969 "/>
<path style=" stroke:none;fill-rule:nonzero;fill:rgb(39.99939%,39.99939%,39.99939%);fill-opacity:0.3;" d="M 100.710938 208.386719 L 129.96875 226.328125 L 122.148438 283.105469 L 91.527344 279.898438 Z M 100.710938 208.386719 "/>
<path style=" stroke:none;fill-rule:nonzero;fill:rgb(39.99939%,39.99939%,39.99939%);fill-opacity:0.3;" d="M 65.042969 187.574219 L 95.089844 204.835938 L 84.675781 279.179688 L 51.429688 275.699219 Z M 65.042969 187.574219 "/>
<path style=" stroke:none;fill-rule:nonzero;fill:rgb(39.99939%,39.99939%,39.99939%);fill-opacity:0.3;" d="M 204.4375 271.386719 L 242.210938 295.679688 L 201.027344 291.367188 Z M 204.4375 271.386719 "/>
<path style=" stroke:none;fill-rule:nonzero;fill:rgb(39.99939%,39.99939%,39.99939%);fill-opacity:0.3;" d="M 307.234375 296.949219 L 347.722656 303.902344 L 328.804688 334.261719 L 306.972656 323.261719 Z M 307.234375 296.949219 "/>
<path style=" stroke:none;fill-rule:nonzero;fill:rgb(39.99939%,39.99939%,39.99939%);fill-opacity:0.3;" d="M 314.890625 78.734375 L 339.859375 81.003906 L 337.796875 171.417969 L 311.941406 171.382812 Z M 314.890625 78.734375 "/>
<g clip-path="url(#clip11)" clip-rule="nonzero">
<path style=" stroke:none;fill-rule:nonzero;fill:rgb(39.99939%,39.99939%,39.99939%);fill-opacity:0.3;" d="M 346.960938 81.648438 L 373.175781 84.03125 L 370.761719 171.527344 L 344.992188 171.441406 Z M 346.960938 81.648438 "/>
</g>
<g clip-path="url(#clip12)" clip-rule="nonzero">
<path style=" stroke:none;fill-rule:nonzero;fill:rgb(39.99939%,39.99939%,39.99939%);fill-opacity:0.3;" d="M 344.09375 177.566406 L 370.714844 177.804688 L 370.253906 273.277344 L 352.71875 299.332031 L 341.113281 297.730469 Z M 344.09375 177.566406 "/>
</g>
<path style=" stroke:none;fill-rule:nonzero;fill:rgb(39.99939%,39.99939%,39.99939%);fill-opacity:0.3;" d="M 313.574219 177.519531 L 337.917969 177.507812 L 337.085938 205.800781 L 313.304688 205.816406 Z M 313.574219 177.519531 "/>
<path style=" stroke:none;fill-rule:nonzero;fill:rgb(39.99939%,39.99939%,39.99939%);fill-opacity:0.3;" d="M 313.027344 210.382812 L 337.089844 210.367188 L 335.449219 296.660156 L 309.117188 293.191406 Z M 313.027344 210.382812 "/>
<g clip-path="url(#clip13)" clip-rule="nonzero">
<path style=" stroke:none;fill-rule:nonzero;fill:rgb(39.99939%,39.99939%,39.99939%);fill-opacity:0.3;" d="M 349.066406 -11.148438 L 375.277344 -10.894531 L 372.523438 76.410156 L 346.808594 73.792969 Z M 349.066406 -11.148438 "/>
</g>
<path style=" stroke:none;fill-rule:nonzero;fill:rgb(39.99939%,39.99939%,39.99939%);fill-opacity:0.3;" d="M 317.9375 -36.253906 L 345.589844 -35.730469 L 340.945312 73.199219 L 315.675781 70.628906 Z M 317.9375 -36.253906 "/>
<path style="fill-rule:nonzero;fill:rgb(39.99939%,39.99939%,39.99939%);fill-opacity:1;stroke-width:0.03;stroke-linecap:square;stroke-linejoin:miter;stroke:rgb(39.99939%,39.99939%,39.99939%);stroke-opacity:1;stroke-miterlimit:3.239307;" d="M 362.8125 79.96875 L 360.140625 80.816406 L 260.316406 70.179688 L 273.730469 71.347656 Z M 362.8125 79.96875 " transform="matrix(1,0,0,1,-74,-13)"/>
<path style="fill-rule:nonzero;fill:rgb(39.99939%,39.99939%,39.99939%);fill-opacity:1;stroke-width:0.03;stroke-linecap:square;stroke-linejoin:miter;stroke:rgb(39.99939%,39.99939%,39.99939%);stroke-opacity:1;stroke-miterlimit:3.239307;" d="M 215.863281 71.84375 L 242.511719 75.105469 L 238.113281 183.847656 L 213.167969 183.765625 Z M 215.863281 71.84375 " transform="matrix(1,0,0,1,-74,-13)"/>
<path style="fill-rule:nonzero;fill:rgb(39.99939%,39.99939%,39.99939%);fill-opacity:1;stroke-width:0.03;stroke-linecap:square;stroke-linejoin:miter;stroke:rgb(39.99939%,39.99939%,39.99939%);stroke-opacity:1;stroke-miterlimit:3.239307;" d="M 159.386719 106.085938 L 178.230469 106.640625 L 173.542969 183.636719 L 146.023438 183.546875 Z M 159.386719 106.085938 " transform="matrix(1,0,0,1,-74,-13)"/>
<path style="fill-rule:nonzero;fill:rgb(39.99939%,39.99939%,39.99939%);fill-opacity:1;stroke-width:0.03;stroke-linecap:square;stroke-linejoin:miter;stroke:rgb(39.99939%,39.99939%,39.99939%);stroke-opacity:1;stroke-miterlimit:3.239307;" d="M 248.792969 75.953125 L 272.128906 79.058594 L 269.722656 183.953125 L 244.886719 183.871094 Z M 248.792969 75.953125 " transform="matrix(1,0,0,1,-74,-13)"/>
<path style="fill-rule:nonzero;fill:rgb(39.99939%,39.99939%,39.99939%);fill-opacity:1;stroke-width:0.03;stroke-linecap:square;stroke-linejoin:miter;stroke:rgb(39.99939%,39.99939%,39.99939%);stroke-opacity:1;stroke-miterlimit:3.239307;" d="M 243.339844 189.214844 L 269.230469 189.234375 L 267.800781 268.628906 L 241.839844 252.867188 Z M 243.339844 189.214844 " transform="matrix(1,0,0,1,-74,-13)"/>
<path style="fill-rule:nonzero;fill:rgb(39.99939%,39.99939%,39.99939%);fill-opacity:1;stroke-width:0.03;stroke-linecap:square;stroke-linejoin:miter;stroke:rgb(39.99939%,39.99939%,39.99939%);stroke-opacity:1;stroke-miterlimit:3.239307;" d="M 212 188.722656 L 236.988281 188.945312 L 235.523438 249.082031 L 211.660156 234.621094 Z M 212 188.722656 " transform="matrix(1,0,0,1,-74,-13)"/>
<path style="fill-rule:nonzero;fill:rgb(39.99939%,39.99939%,39.99939%);fill-opacity:1;stroke-width:0.03;stroke-linecap:square;stroke-linejoin:miter;stroke:rgb(39.99939%,39.99939%,39.99939%);stroke-opacity:1;stroke-miterlimit:3.239307;" d="M 144.574219 188.121094 L 205.324219 188.664062 L 204.980469 230.828125 L 143.621094 193.527344 Z M 144.574219 188.121094 " transform="matrix(1,0,0,1,-74,-13)"/>
<path style="fill-rule:nonzero;fill:rgb(39.99939%,39.99939%,39.99939%);fill-opacity:1;stroke-width:0.03;stroke-linecap:square;stroke-linejoin:miter;stroke:rgb(39.99939%,39.99939%,39.99939%);stroke-opacity:1;stroke-miterlimit:3.239307;" d="M 184.511719 106.917969 L 209.335938 108.035156 L 207.308594 183.746094 L 180.175781 183.660156 Z M 184.511719 106.917969 " transform="matrix(1,0,0,1,-74,-13)"/>
<path style="fill-rule:nonzero;fill:rgb(39.99939%,39.99939%,39.99939%);fill-opacity:1;stroke-width:0.03;stroke-linecap:square;stroke-linejoin:miter;stroke:rgb(39.99939%,39.99939%,39.99939%);stroke-opacity:1;stroke-miterlimit:3.239307;" d="M 342.386719 87.851562 L 366.355469 90.902344 L 364.820312 184.265625 L 339.875 184.183594 Z M 342.386719 87.851562 " transform="matrix(1,0,0,1,-74,-13)"/>
<path style="fill-rule:nonzero;fill:rgb(39.99939%,39.99939%,39.99939%);fill-opacity:1;stroke-width:0.03;stroke-linecap:square;stroke-linejoin:miter;stroke:rgb(39.99939%,39.99939%,39.99939%);stroke-opacity:1;stroke-miterlimit:3.239307;" d="M 339.53125 189.863281 L 364.359375 190.085938 L 362.648438 318.871094 L 361.835938 320.171875 L 360.417969 320.945312 L 358.082031 321.570312 L 356 321.523438 L 335.65625 309.386719 Z M 339.53125 189.863281 " transform="matrix(1,0,0,1,-74,-13)"/>
<path style="fill-rule:nonzero;fill:rgb(39.99939%,39.99939%,39.99939%);fill-opacity:1;stroke-width:0.03;stroke-linecap:square;stroke-linejoin:miter;stroke:rgb(39.99939%,39.99939%,39.99939%);stroke-opacity:1;stroke-miterlimit:3.239307;" d="M 278.046875 79.722656 L 303.167969 83.757812 L 302.210938 184.058594 L 276.402344 183.972656 Z M 278.046875 79.722656 " transform="matrix(1,0,0,1,-74,-13)"/>
<path style="fill-rule:nonzero;fill:rgb(39.99939%,39.99939%,39.99939%);fill-opacity:1;stroke-width:0.03;stroke-linecap:square;stroke-linejoin:miter;stroke:rgb(39.99939%,39.99939%,39.99939%);stroke-opacity:1;stroke-miterlimit:3.239307;" d="M 309.820312 83.851562 L 335.84375 87.238281 L 333.292969 184.160156 L 308.070312 184.078125 Z M 309.820312 83.851562 " transform="matrix(1,0,0,1,-74,-13)"/>
<path style="fill-rule:nonzero;fill:rgb(39.99939%,39.99939%,39.99939%);fill-opacity:1;stroke-width:0.03;stroke-linecap:square;stroke-linejoin:miter;stroke:rgb(39.99939%,39.99939%,39.99939%);stroke-opacity:1;stroke-miterlimit:3.239307;" d="M 307.941406 189.582031 L 333.296875 189.808594 L 328.296875 305.097656 L 305.304688 290.953125 Z M 307.941406 189.582031 " transform="matrix(1,0,0,1,-74,-13)"/>
<path style="fill-rule:nonzero;fill:rgb(39.99939%,39.99939%,39.99939%);fill-opacity:1;stroke-width:0.03;stroke-linecap:square;stroke-linejoin:miter;stroke:rgb(39.99939%,39.99939%,39.99939%);stroke-opacity:1;stroke-miterlimit:3.239307;" d="M 276.269531 189.296875 L 301.394531 189.898438 L 299.390625 287.699219 L 274.382812 272.339844 Z M 276.269531 189.296875 " transform="matrix(1,0,0,1,-74,-13)"/>
<path style="fill-rule:nonzero;fill:rgb(39.99939%,39.99939%,39.99939%);fill-opacity:1;stroke-width:0.03;stroke-linecap:square;stroke-linejoin:miter;stroke:rgb(39.99939%,39.99939%,39.99939%);stroke-opacity:1;stroke-miterlimit:3.239307;" d="M 165.039062 64.429688 L 209.121094 70.238281 L 207.953125 102.292969 L 158.597656 100.910156 L 164.957031 64.429688 Z M 165.039062 64.429688 " transform="matrix(1,0,0,1,-74,-13)"/>
<path style="fill-rule:nonzero;fill:rgb(39.99939%,39.99939%,39.99939%);fill-opacity:1;stroke-width:0.03;stroke-linecap:square;stroke-linejoin:miter;stroke:rgb(39.99939%,39.99939%,39.99939%);stroke-opacity:1;stroke-miterlimit:3.239307;" d="M 243.757812 263.386719 L 273.125 281.429688 L 269.621094 303.800781 L 239.375 300.632812 Z M 243.757812 263.386719 " transform="matrix(1,0,0,1,-74,-13)"/>
<path style="fill-rule:nonzero;fill:rgb(39.99939%,39.99939%,39.99939%);fill-opacity:1;stroke-width:0.03;stroke-linecap:square;stroke-linejoin:miter;stroke:rgb(39.99939%,39.99939%,39.99939%);stroke-opacity:1;stroke-miterlimit:3.239307;" d="M 208.765625 241.792969 L 237.585938 259.835938 L 232.804688 299.945312 L 200.769531 296.589844 Z M 208.765625 241.792969 " transform="matrix(1,0,0,1,-74,-13)"/>
<path style="fill-rule:nonzero;fill:rgb(39.99939%,39.99939%,39.99939%);fill-opacity:1;stroke-width:0.03;stroke-linecap:square;stroke-linejoin:miter;stroke:rgb(39.99939%,39.99939%,39.99939%);stroke-opacity:1;stroke-miterlimit:3.239307;" d="M 174.710938 221.386719 L 203.96875 239.328125 L 196.148438 296.105469 L 165.527344 292.898438 Z M 174.710938 221.386719 " transform="matrix(1,0,0,1,-74,-13)"/>
<path style="fill-rule:nonzero;fill:rgb(39.99939%,39.99939%,39.99939%);fill-opacity:1;stroke-width:0.03;stroke-linecap:square;stroke-linejoin:miter;stroke:rgb(39.99939%,39.99939%,39.99939%);stroke-opacity:1;stroke-miterlimit:3.239307;" d="M 139.042969 200.574219 L 169.089844 217.835938 L 158.675781 292.179688 L 125.429688 288.699219 Z M 139.042969 200.574219 " transform="matrix(1,0,0,1,-74,-13)"/>
<path style="fill-rule:nonzero;fill:rgb(39.99939%,39.99939%,39.99939%);fill-opacity:1;stroke-width:0.03;stroke-linecap:square;stroke-linejoin:miter;stroke:rgb(39.99939%,39.99939%,39.99939%);stroke-opacity:1;stroke-miterlimit:3.239307;" d="M 278.4375 284.386719 L 316.210938 308.679688 L 275.027344 304.367188 Z M 278.4375 284.386719 " transform="matrix(1,0,0,1,-74,-13)"/>
<path style=" stroke:none;fill-rule:evenodd;fill:rgb(85.096741%,85.096741%,81.959534%);fill-opacity:0.7;" d="M 63.519531 306 C 63.519531 299.230469 60.832031 292.742188 56.046875 287.953125 C 51.257812 283.167969 44.769531 280.480469 38 280.480469 C 31.230469 280.480469 24.742188 283.167969 19.953125 287.953125 C 15.167969 292.742188 12.480469 299.230469 12.480469 306 C 12.480469 312.769531 15.167969 319.257812 19.953125 324.046875 C 24.742188 328.832031 31.230469 331.519531 38 331.519531 C 44.769531 331.519531 51.257812 328.832031 56.046875 324.046875 C 60.832031 319.257812 63.519531 312.769531 63.519531 306 Z M 63.519531 306 "/>
</g>
</svg>
