<?xml version="1.0" encoding="UTF-8"?>
<svg xmlns="http://www.w3.org/2000/svg" xmlns:xlink="http://www.w3.org/1999/xlink" width="361pt" height="361pt" viewBox="0 0 361 361" version="1.1">
<defs>
<clipPath id="clip1">
  <path d="M 356 0 L 360 0 L 360 44 L 356 44 Z M 356 0 "/>
</clipPath>
<clipPath id="clip2">
  <path d="M 354 153 L 360 153 L 360 176 L 354 176 Z M 354 153 "/>
</clipPath>
<clipPath id="clip3">
  <path d="M 359 138 L 360 138 L 360 162 L 359 162 Z M 359 138 "/>
</clipPath>
<clipPath id="clip4">
  <path d="M 343 182 L 360 182 L 360 206 L 343 206 Z M 343 182 "/>
</clipPath>
<clipPath id="clip5">
  <path d="M 349 167 L 360 167 L 360 191 L 349 191 Z M 349 167 "/>
</clipPath>
<clipPath id="clip6">
  <path d="M 337 198 L 360 198 L 360 222 L 337 222 Z M 337 198 "/>
</clipPath>
<clipPath id="clip7">
  <path d="M 331 214 L 360 214 L 360 236 L 331 236 Z M 331 214 "/>
</clipPath>
<clipPath id="clip8">
  <path d="M 333 297 L 360 297 L 360 312 L 333 312 Z M 333 297 "/>
</clipPath>
<clipPath id="clip9">
  <path d="M 351 253 L 360 253 L 360 283 L 351 283 Z M 351 253 "/>
</clipPath>
<clipPath id="clip10">
  <path d="M 356 239 L 360 239 L 360 278 L 356 278 Z M 356 239 "/>
</clipPath>
<clipPath id="clip11">
  <path d="M 359 223 L 360 223 L 360 237 L 359 237 Z M 359 223 "/>
</clipPath>
<clipPath id="clip12">
  <path d="M 346 267 L 360 267 L 360 295 L 346 295 Z M 346 267 "/>
</clipPath>
<clipPath id="clip13">
  <path d="M 340 280 L 360 280 L 360 302 L 340 302 Z M 340 280 "/>
</clipPath>
<clipPath id="clip14">
  <path d="M 343 0 L 360 0 L 360 35 L 343 35 Z M 343 0 "/>
</clipPath>
<clipPath id="clip15">
  <path d="M 358 304 L 360 304 L 360 308 L 358 308 Z M 358 304 "/>
</clipPath>
<clipPath id="clip16">
  <path d="M 269 320 L 358 320 L 358 360 L 269 360 Z M 269 320 "/>
</clipPath>
<clipPath id="clip17">
  <path d="M 344 355 L 360 355 L 360 360 L 344 360 Z M 344 355 "/>
</clipPath>
<clipPath id="clip18">
  <path d="M 350 336 L 360 336 L 360 358 L 350 358 Z M 350 336 "/>
</clipPath>
<clipPath id="clip19">
  <path d="M 354 320 L 360 320 L 360 340 L 354 340 Z M 354 320 "/>
</clipPath>
<clipPath id="clip20">
  <path d="M 203 353 L 245 353 L 245 360 L 203 360 Z M 203 353 "/>
</clipPath>
<clipPath id="clip21">
  <path d="M 107 354 L 116 354 L 116 360 L 107 360 Z M 107 354 "/>
</clipPath>
<clipPath id="clip22">
  <path d="M 110 335 L 138 335 L 138 360 L 110 360 Z M 110 335 "/>
</clipPath>
<clipPath id="clip23">
  <path d="M 126 338 L 153 338 L 153 360 L 126 360 Z M 126 338 "/>
</clipPath>
<clipPath id="clip24">
  <path d="M 141 341 L 169 341 L 169 360 L 141 360 Z M 141 341 "/>
</clipPath>
<clipPath id="clip25">
  <path d="M 157 344 L 185 344 L 185 360 L 157 360 Z M 157 344 "/>
</clipPath>
<clipPath id="clip26">
  <path d="M 172 348 L 201 348 L 201 360 L 172 360 Z M 172 348 "/>
</clipPath>
<clipPath id="clip27">
  <path d="M 188 351 L 215 351 L 215 360 L 188 360 Z M 188 351 "/>
</clipPath>
<clipPath id="clip28">
  <path d="M 232 310 L 295 310 L 295 360 L 232 360 Z M 232 310 "/>
</clipPath>
<clipPath id="clip29">
  <path d="M 34 319 L 61 319 L 61 360 L 34 360 Z M 34 319 "/>
</clipPath>
<clipPath id="clip30">
  <path d="M 49 321 L 76 321 L 76 360 L 49 360 Z M 49 321 "/>
</clipPath>
<clipPath id="clip31">
  <path d="M 65 325 L 92 325 L 92 360 L 65 360 Z M 65 325 "/>
</clipPath>
<clipPath id="clip32">
  <path d="M 79 328 L 106 328 L 106 360 L 79 360 Z M 79 328 "/>
</clipPath>
<clipPath id="clip33">
  <path d="M 95 332 L 123 332 L 123 360 L 95 360 Z M 95 332 "/>
</clipPath>
</defs>
<g id="surface4907">
<path style="fill-rule:nonzero;fill:rgb(0%,0%,0%);fill-opacity:1;stroke-width:0.03;stroke-linecap:square;stroke-linejoin:miter;stroke:rgb(0%,0%,0%);stroke-opacity:1;stroke-miterlimit:10;" d="M 0 178 L 360 178 L 360 -182 L 0 -182 Z M 0 178 " transform="matrix(1,0,0,1,0,182)"/>
<g clip-path="url(#clip1)" clip-rule="nonzero">
<path style=" stroke:none;fill-rule:nonzero;fill:rgb(39.99939%,39.99939%,39.99939%);fill-opacity:0.3;" d="M 371.953125 -4.042969 L 390.058594 2.359375 L 374.601562 43.34375 L 356.539062 36.101562 Z M 371.953125 -4.042969 "/>
</g>
<g clip-path="url(#clip2)" clip-rule="nonzero">
<path style=" stroke:none;fill-rule:nonzero;fill:rgb(39.99939%,39.99939%,39.99939%);fill-opacity:0.3;" d="M 382.675781 175.699219 L 354.511719 166.128906 L 359.167969 153.738281 L 387.589844 163.367188 L 383.441406 173.738281 Z M 382.675781 175.699219 "/>
</g>
<g clip-path="url(#clip3)" clip-rule="nonzero">
<path style=" stroke:none;fill-rule:nonzero;fill:rgb(39.99939%,39.99939%,39.99939%);fill-opacity:0.3;" d="M 364.855469 138.601562 L 393.191406 148.464844 L 388.351562 161.457031 L 359.851562 151.921875 Z M 364.855469 138.601562 "/>
</g>
<g clip-path="url(#clip4)" clip-rule="nonzero">
<path style=" stroke:none;fill-rule:nonzero;fill:rgb(39.99939%,39.99939%,39.99939%);fill-opacity:0.3;" d="M 371.3125 205.804688 L 343.207031 196.242188 L 348.347656 182.546875 L 376.324219 192.082031 L 371.96875 203.984375 Z M 371.3125 205.804688 "/>
</g>
<g clip-path="url(#clip5)" clip-rule="nonzero">
<path style=" stroke:none;fill-rule:nonzero;fill:rgb(39.99939%,39.99939%,39.99939%);fill-opacity:0.3;" d="M 353.828125 167.949219 L 381.972656 177.492188 L 377.183594 189.730469 L 377 190.234375 L 349.03125 180.726562 Z M 353.828125 167.949219 "/>
</g>
<path style=" stroke:none;fill-rule:nonzero;fill:rgb(39.99939%,39.99939%,39.99939%);fill-opacity:0.3;" d="M 315.433594 270.394531 L 343.148438 280 L 337.960938 294.210938 L 308.933594 287.785156 Z M 315.433594 270.394531 "/>
<g clip-path="url(#clip6)" clip-rule="nonzero">
<path style=" stroke:none;fill-rule:nonzero;fill:rgb(39.99939%,39.99939%,39.99939%);fill-opacity:0.3;" d="M 342.265625 198.753906 L 370.457031 208.160156 L 366.058594 220.324219 L 365.570312 221.539062 L 337.324219 211.925781 Z M 342.265625 198.753906 "/>
</g>
<g clip-path="url(#clip7)" clip-rule="nonzero">
<path style=" stroke:none;fill-rule:nonzero;fill:rgb(39.99939%,39.99939%,39.99939%);fill-opacity:0.3;" d="M 336.382812 214.4375 L 364.640625 223.871094 L 359.824219 235.90625 L 331.898438 226.398438 Z M 336.382812 214.4375 "/>
</g>
<path style=" stroke:none;fill-rule:nonzero;fill:rgb(39.99939%,39.99939%,39.99939%);fill-opacity:0.3;" d="M 331.097656 228.53125 L 359.085938 237.878906 L 354.585938 249.875 L 354.371094 250.410156 L 326.464844 240.902344 Z M 331.097656 228.53125 "/>
<path style=" stroke:none;fill-rule:nonzero;fill:rgb(39.99939%,39.99939%,39.99939%);fill-opacity:0.3;" d="M 325.417969 243.703125 L 353.324219 253.027344 L 349.023438 263.78125 L 348.84375 264.28125 L 321.339844 254.597656 Z M 325.417969 243.703125 "/>
<path style=" stroke:none;fill-rule:nonzero;fill:rgb(39.99939%,39.99939%,39.99939%);fill-opacity:0.3;" d="M 320.292969 257.105469 L 347.96875 266.699219 L 344.503906 276.296875 L 344.027344 277.597656 L 316.285156 267.824219 Z M 320.292969 257.105469 "/>
<path style=" stroke:none;fill-rule:nonzero;fill:rgb(39.99939%,39.99939%,39.99939%);fill-opacity:0.3;" d="M 307.742188 290.863281 L 337.175781 296.800781 L 331.675781 311.035156 L 330.359375 311.804688 L 329.300781 311.972656 L 316.429688 311.46875 L 313.382812 311.160156 L 308.71875 310.375 L 304.652344 309.476562 L 301.421875 308.570312 L 301.535156 307.011719 Z M 307.742188 290.863281 "/>
<path style=" stroke:none;fill-rule:nonzero;fill:rgb(39.99939%,39.99939%,39.99939%);fill-opacity:0.3;" d="M 307.636719 165.710938 L 320.007812 169.988281 L 310.855469 194.410156 L 308.570312 200.507812 L 298.28125 191.027344 Z M 307.636719 165.710938 "/>
<path style=" stroke:none;fill-rule:nonzero;fill:rgb(39.99939%,39.99939%,39.99939%);fill-opacity:0.3;" d="M 343.148438 280 L 343.496094 280.121094 L 338.21875 294.265625 L 337.960938 294.210938 Z M 343.148438 280 "/>
<g clip-path="url(#clip8)" clip-rule="nonzero">
<path style=" stroke:none;fill-rule:nonzero;fill:rgb(39.99939%,39.99939%,39.99939%);fill-opacity:0.3;" d="M 339.25 297.019531 L 367.980469 302.820312 L 368.195312 303.234375 L 368.109375 303.648438 L 367.804688 304.0625 L 367.304688 304.4375 L 358.394531 307.3125 L 350.480469 309.5625 L 333.46875 311.992188 Z M 339.25 297.019531 "/>
</g>
<g clip-path="url(#clip9)" clip-rule="nonzero">
<path style=" stroke:none;fill-rule:nonzero;fill:rgb(39.99939%,39.99939%,39.99939%);fill-opacity:0.3;" d="M 406.253906 270.4375 L 400.445312 282.160156 L 351.660156 265.019531 L 355.960938 253.660156 Z M 406.253906 270.4375 "/>
</g>
<g clip-path="url(#clip10)" clip-rule="nonzero">
<path style=" stroke:none;fill-rule:nonzero;fill:rgb(39.99939%,39.99939%,39.99939%);fill-opacity:0.3;" d="M 361.417969 239.425781 L 439.03125 265.28125 L 435.070312 276.652344 L 434.734375 276.898438 L 434.210938 277.0625 L 433.535156 277.09375 L 432.777344 277.097656 L 356.808594 251.550781 Z M 361.417969 239.425781 "/>
</g>
<g clip-path="url(#clip11)" clip-rule="nonzero">
<path style=" stroke:none;fill-rule:nonzero;fill:rgb(39.99939%,39.99939%,39.99939%);fill-opacity:0.3;" d="M 364.640625 223.871094 L 364.808594 223.925781 L 360.1875 236.03125 L 359.824219 235.90625 Z M 364.640625 223.871094 "/>
</g>
<path style=" stroke:none;fill-rule:nonzero;fill:rgb(39.99939%,39.99939%,39.99939%);fill-opacity:0.3;" d="M 359.085938 237.878906 L 359.4375 237.996094 L 354.675781 250.511719 L 354.371094 250.410156 L 354.585938 249.875 Z M 359.085938 237.878906 "/>
<path style=" stroke:none;fill-rule:nonzero;fill:rgb(39.99939%,39.99939%,39.99939%);fill-opacity:0.3;" d="M 353.324219 253.027344 L 353.675781 253.144531 L 349.382812 264.472656 L 348.84375 264.28125 L 349.023438 263.78125 Z M 353.324219 253.027344 "/>
<path style=" stroke:none;fill-rule:nonzero;fill:rgb(39.99939%,39.99939%,39.99939%);fill-opacity:0.3;" d="M 347.96875 266.699219 L 348.375 266.84375 L 344.296875 277.691406 L 344.027344 277.597656 L 344.503906 276.296875 Z M 347.96875 266.699219 "/>
<g clip-path="url(#clip12)" clip-rule="nonzero">
<path style=" stroke:none;fill-rule:nonzero;fill:rgb(39.99939%,39.99939%,39.99939%);fill-opacity:0.3;" d="M 350.714844 267.152344 L 407.601562 286.828125 L 407.808594 287.199219 L 407.898438 287.671875 L 407.695312 288.226562 L 407.453125 288.660156 L 407.257812 288.9375 L 397.238281 292.90625 L 393.285156 294.402344 L 346.632812 278.007812 Z M 350.714844 267.152344 "/>
</g>
<g clip-path="url(#clip13)" clip-rule="nonzero">
<path style=" stroke:none;fill-rule:nonzero;fill:rgb(39.99939%,39.99939%,39.99939%);fill-opacity:0.3;" d="M 345.742188 280.433594 L 388.476562 295.148438 L 388.835938 295.414062 L 388.964844 295.734375 L 388.882812 296.003906 L 388.746094 296.304688 L 381.828125 299.09375 L 374.421875 301.84375 L 340.542969 294.347656 Z M 345.742188 280.433594 "/>
</g>
<path style=" stroke:none;fill-rule:nonzero;fill:rgb(39.99939%,39.99939%,39.99939%);fill-opacity:0.3;" d="M -11.824219 78.421875 L 1.066406 83.164062 L -21.4375 136.347656 L -33.769531 131.660156 Z M -11.824219 78.421875 "/>
<path style=" stroke:none;fill-rule:nonzero;fill:rgb(39.99939%,39.99939%,39.99939%);fill-opacity:0.3;" d="M 31.574219 -33.835938 L 9.667969 18.9375 L -3.144531 14.753906 L 18.925781 -38.597656 Z M 31.574219 -33.835938 "/>
<path style=" stroke:none;fill-rule:nonzero;fill:rgb(39.99939%,39.99939%,39.99939%);fill-opacity:0.3;" d="M 15.671875 -39.894531 L -6.492188 13.019531 L -17.898438 9.46875 L 1.839844 -45.078125 Z M 15.671875 -39.894531 "/>
<path style=" stroke:none;fill-rule:nonzero;fill:rgb(39.99939%,39.99939%,39.99939%);fill-opacity:0.3;" d="M 47.179688 -28.632812 L 25.226562 24.753906 L 13.234375 20.285156 L 35.414062 -33.105469 Z M 47.179688 -28.632812 "/>
<path style=" stroke:none;fill-rule:nonzero;fill:rgb(39.99939%,39.99939%,39.99939%);fill-opacity:0.3;" d="M -4.195312 18.214844 L 9.058594 22.921875 L -12.828125 74.054688 L -24.960938 69.476562 Z M -4.195312 18.214844 "/>
<path style=" stroke:none;fill-rule:nonzero;fill:rgb(39.99939%,39.99939%,39.99939%);fill-opacity:0.3;" d="M 12.292969 23.972656 L 23.984375 28.300781 L 4.894531 75.003906 L 2.859375 79.828125 L -9.5625 75.136719 Z M 12.292969 23.972656 "/>
<path style=" stroke:none;fill-rule:nonzero;fill:rgb(39.99939%,39.99939%,39.99939%);fill-opacity:0.3;" d="M 36.34375 162.195312 L 21.738281 197.773438 L 18.652344 195.210938 L 15.0625 192.65625 L 13.316406 191.554688 L 11.011719 190.316406 L 24.667969 157.742188 Z M 36.34375 162.195312 "/>
<path style=" stroke:none;fill-rule:nonzero;fill:rgb(39.99939%,39.99939%,39.99939%);fill-opacity:0.3;" d="M 62.585938 -23.03125 L 40.488281 30.433594 L 27.671875 25.648438 L 49.730469 -27.664062 Z M 62.585938 -23.03125 "/>
<path style=" stroke:none;fill-rule:nonzero;fill:rgb(39.99939%,39.99939%,39.99939%);fill-opacity:0.3;" d="M 77.6875 -16.828125 L 55.71875 35.921875 L 43.992188 31.730469 L 65.125 -21.414062 Z M 77.6875 -16.828125 "/>
<path style=" stroke:none;fill-rule:nonzero;fill:rgb(39.99939%,39.99939%,39.99939%);fill-opacity:0.3;" d="M 92.582031 -11.699219 L 70.113281 41.839844 L 57.996094 37.269531 L 80.390625 -16.171875 Z M 92.582031 -11.699219 "/>
<path style=" stroke:none;fill-rule:nonzero;fill:rgb(39.99939%,39.99939%,39.99939%);fill-opacity:0.3;" d="M 106.730469 -6.554688 L 84.222656 47.046875 L 72.371094 42.621094 L 94.828125 -10.933594 Z M 106.730469 -6.554688 "/>
<path style=" stroke:none;fill-rule:nonzero;fill:rgb(39.99939%,39.99939%,39.99939%);fill-opacity:0.3;" d="M 121.214844 -1.140625 L 99.621094 52.871094 L 86.132812 47.777344 L 108.609375 -5.789062 Z M 121.214844 -1.140625 "/>
<path style=" stroke:none;fill-rule:nonzero;fill:rgb(39.99939%,39.99939%,39.99939%);fill-opacity:0.3;" d="M 48.03125 100.984375 L 59.875 105.351562 L 37.035156 159.113281 L 25.722656 154.808594 Z M 48.03125 100.984375 "/>
<path style=" stroke:none;fill-rule:nonzero;fill:rgb(39.99939%,39.99939%,39.99939%);fill-opacity:0.3;" d="M 34.152344 95.351562 L 45.835938 99.65625 L 23.898438 153.574219 L 11.792969 148.984375 Z M 34.152344 95.351562 "/>
<path style=" stroke:none;fill-rule:nonzero;fill:rgb(39.99939%,39.99939%,39.99939%);fill-opacity:0.3;" d="M 2.996094 83.875 L 15.890625 88.621094 L -6.679688 141.960938 L -19.167969 137.210938 Z M 2.996094 83.875 "/>
<path style=" stroke:none;fill-rule:nonzero;fill:rgb(39.99939%,39.99939%,39.99939%);fill-opacity:0.3;" d="M 38.421875 162.988281 L 52.40625 168.324219 L 34.6875 210.117188 L 23.84375 199.226562 Z M 38.421875 162.988281 "/>
<path style=" stroke:none;fill-rule:nonzero;fill:rgb(39.99939%,39.99939%,39.99939%);fill-opacity:0.3;" d="M -4.140625 146.753906 L 8.210938 151.464844 L -5.175781 184.148438 L -9.128906 182.8125 L -13.558594 181.910156 L -18.1875 181.285156 Z M -4.140625 146.753906 "/>
<path style=" stroke:none;fill-rule:nonzero;fill:rgb(39.99939%,39.99939%,39.99939%);fill-opacity:0.3;" d="M 62.503906 106.300781 L 75.375 111.046875 L 53.507812 165.355469 L 39.917969 160.183594 Z M 62.503906 106.300781 "/>
<path style=" stroke:none;fill-rule:nonzero;fill:rgb(39.99939%,39.99939%,39.99939%);fill-opacity:0.3;" d="M 19.179688 89.832031 L 31.566406 94.398438 L 9.484375 148.105469 L -3.390625 143.210938 Z M 19.179688 89.832031 "/>
<path style=" stroke:none;fill-rule:nonzero;fill:rgb(39.99939%,39.99939%,39.99939%);fill-opacity:0.3;" d="M 84.890625 50.867188 L 98.582031 55.960938 L 76.742188 107.738281 L 63.691406 102.796875 Z M 84.890625 50.867188 "/>
<path style=" stroke:none;fill-rule:nonzero;fill:rgb(39.99939%,39.99939%,39.99939%);fill-opacity:0.3;" d="M 56.792969 40.429688 L 69.242188 45.054688 L 47.105469 96.523438 L 35.191406 92.015625 Z M 56.792969 40.429688 "/>
<path style=" stroke:none;fill-rule:nonzero;fill:rgb(39.99939%,39.99939%,39.99939%);fill-opacity:0.3;" d="M 41.929688 34.960938 L 54.75 39.71875 L 33.269531 91.335938 L 20.691406 86.582031 Z M 41.929688 34.960938 "/>
<path style=" stroke:none;fill-rule:nonzero;fill:rgb(39.99939%,39.99939%,39.99939%);fill-opacity:0.3;" d="M 23.984375 28.300781 L 24.507812 28.492188 L 4.894531 75.003906 Z M 23.984375 28.300781 "/>
<path style=" stroke:none;fill-rule:nonzero;fill:rgb(39.99939%,39.99939%,39.99939%);fill-opacity:0.3;" d="M 26.515625 28.9375 L 39.109375 33.605469 L 17.546875 85.078125 L 4.914062 80.304688 Z M 26.515625 28.9375 "/>
<path style=" stroke:none;fill-rule:nonzero;fill:rgb(39.99939%,39.99939%,39.99939%);fill-opacity:0.3;" d="M 71.167969 45.757812 L 82.910156 50.132812 L 61.765625 102.066406 L 49.15625 97.296875 Z M 71.167969 45.757812 "/>
<path style=" stroke:none;fill-rule:nonzero;fill:rgb(39.99939%,39.99939%,39.99939%);fill-opacity:0.3;" d="M 5.785156 187.75 L 1.695312 186.234375 L -2.457031 184.996094 L 10.625 152.386719 L 22.726562 157 L 8.78125 189.265625 Z M 5.785156 187.75 "/>
<path style=" stroke:none;fill-rule:nonzero;fill:rgb(39.99939%,39.99939%,39.99939%);fill-opacity:0.3;" d="M -36.0625 294.257812 L -24.882812 246.761719 L -3.832031 251.300781 L 19.226562 256.273438 L 15.277344 264.476562 L 12.007812 268.914062 L 2.949219 276.734375 L -3.828125 284.171875 L -9.394531 292.765625 L -13.238281 299.164062 Z M -36.0625 294.257812 "/>
<path style=" stroke:none;fill-rule:nonzero;fill:rgb(39.99939%,39.99939%,39.99939%);fill-opacity:0.3;" d="M 1.609375 249.214844 L 3.886719 237.441406 L 23.003906 242.859375 L 20.378906 253.257812 Z M 1.609375 249.214844 "/>
<path style=" stroke:none;fill-rule:nonzero;fill:rgb(39.99939%,39.99939%,39.99939%);fill-opacity:0.3;" d="M 9.414062 216.597656 L 30.507812 224.441406 L 28.417969 231.367188 L 25.710938 238.894531 L 5.421875 232.566406 Z M 9.414062 216.597656 "/>
<path style=" stroke:none;fill-rule:nonzero;fill:rgb(39.99939%,39.99939%,39.99939%);fill-opacity:0.3;" d="M -24.511719 243.542969 L -21.773438 229.832031 L 1.441406 236.714844 L -0.679688 248.695312 Z M -24.511719 243.542969 "/>
<path style=" stroke:none;fill-rule:nonzero;fill:rgb(39.99939%,39.99939%,39.99939%);fill-opacity:0.3;" d="M -11.863281 227.808594 L -7.078125 210.304688 L 6.929688 215.582031 L 3.039062 231.824219 Z M -11.863281 227.808594 "/>
<path style=" stroke:none;fill-rule:nonzero;fill:rgb(39.99939%,39.99939%,39.99939%);fill-opacity:0.3;" d="M 220.3125 126.488281 L 232.75 129.097656 L 217.1875 171.59375 L 204.417969 168.351562 Z M 220.3125 126.488281 "/>
<path style=" stroke:none;fill-rule:nonzero;fill:rgb(39.99939%,39.99939%,39.99939%);fill-opacity:0.3;" d="M 354.003906 34.902344 L 353.929688 35.101562 L 348.5 32.867188 Z M 354.003906 34.902344 "/>
<path style=" stroke:none;fill-rule:nonzero;fill:rgb(39.99939%,39.99939%,39.99939%);fill-opacity:0.3;" d="M 242.730469 -6.6875 L 334.847656 31.027344 L 335.28125 31.355469 L 335.625 31.816406 L 335.832031 32.296875 L 335.757812 32.769531 L 331.632812 41.542969 L 331.371094 41.875 L 330.917969 42.125 L 330.4375 42.125 L 238.601562 4.878906 L 237.8125 4.449219 L 237.03125 3.914062 L 236.441406 3.320312 L 235.988281 2.59375 L 235.722656 1.808594 L 235.644531 1.027344 L 235.699219 0.429688 L 235.882812 -0.238281 L 236.261719 -0.964844 L 237.75 -4.328125 L 238.066406 -4.914062 L 238.421875 -5.386719 L 238.925781 -5.882812 L 239.503906 -6.296875 L 240.042969 -6.574219 L 240.652344 -6.789062 L 241.359375 -6.929688 L 241.9375 -6.960938 Z M 242.730469 -6.6875 "/>
<path style=" stroke:none;fill-rule:nonzero;fill:rgb(39.99939%,39.99939%,39.99939%);fill-opacity:0.3;" d="M 204.671875 123.398438 L 217.761719 126.121094 L 201.757812 167.636719 L 189.125 164.816406 Z M 204.671875 123.398438 "/>
<path style=" stroke:none;fill-rule:nonzero;fill:rgb(39.99939%,39.99939%,39.99939%);fill-opacity:0.3;" d="M 235.675781 129.140625 L 248.320312 131.914062 L 232.523438 174.183594 L 220.527344 171.308594 Z M 235.675781 129.140625 "/>
<path style=" stroke:none;fill-rule:nonzero;fill:rgb(39.99939%,39.99939%,39.99939%);fill-opacity:0.3;" d="M 257.71875 15.777344 L 239.308594 65.785156 L 226.882812 62.941406 L 246.589844 11.25 Z M 257.71875 15.777344 "/>
<path style=" stroke:none;fill-rule:nonzero;fill:rgb(39.99939%,39.99939%,39.99939%);fill-opacity:0.3;" d="M 244.097656 10.238281 L 224.269531 62.238281 L 212.023438 59.4375 L 232.941406 5.511719 Z M 244.097656 10.238281 "/>
<path style=" stroke:none;fill-rule:nonzero;fill:rgb(39.99939%,39.99939%,39.99939%);fill-opacity:0.3;" d="M 229.617188 4.125 L 208.351562 58.660156 L 197.335938 56.140625 L 218.144531 -0.539062 Z M 229.617188 4.125 "/>
<path style=" stroke:none;fill-rule:nonzero;fill:rgb(39.99939%,39.99939%,39.99939%);fill-opacity:0.3;" d="M 216.09375 -1.503906 L 195.261719 55.453125 L 181.628906 52.332031 L 203.5625 -6.601562 Z M 216.09375 -1.503906 "/>
<path style=" stroke:none;fill-rule:nonzero;fill:rgb(39.99939%,39.99939%,39.99939%);fill-opacity:0.3;" d="M 223.101562 65.859375 L 203.003906 118.554688 L 190.417969 115.671875 L 210.816406 63.089844 Z M 223.101562 65.859375 "/>
<path style=" stroke:none;fill-rule:nonzero;fill:rgb(39.99939%,39.99939%,39.99939%);fill-opacity:0.3;" d="M 238.492188 69.046875 L 219.015625 121.945312 L 205.90625 118.945312 L 226.007812 66.234375 Z M 238.492188 69.046875 "/>
<path style=" stroke:none;fill-rule:nonzero;fill:rgb(39.99939%,39.99939%,39.99939%);fill-opacity:0.3;" d="M 254.101562 72.5625 L 234.058594 125.394531 L 222.082031 122.648438 L 241.523438 69.730469 Z M 254.101562 72.5625 "/>
<path style=" stroke:none;fill-rule:nonzero;fill:rgb(39.99939%,39.99939%,39.99939%);fill-opacity:0.3;" d="M 112.90625 101.507812 L 125.359375 104.519531 L 109.839844 146.761719 L 97.761719 144.027344 Z M 112.90625 101.507812 "/>
<path style=" stroke:none;fill-rule:nonzero;fill:rgb(39.99939%,39.99939%,39.99939%);fill-opacity:0.3;" d="M 96.960938 97.871094 L 110.007812 101.214844 L 94.894531 143.132812 L 80.835938 139.945312 Z M 96.960938 97.871094 "/>
<path style=" stroke:none;fill-rule:nonzero;fill:rgb(39.99939%,39.99939%,39.99939%);fill-opacity:0.3;" d="M 144.257812 108.757812 L 156.007812 111.8125 L 140.765625 153.511719 L 128.53125 150.902344 Z M 144.257812 108.757812 "/>
<path style=" stroke:none;fill-rule:nonzero;fill:rgb(39.99939%,39.99939%,39.99939%);fill-opacity:0.3;" d="M 129.171875 105.007812 L 141.402344 108.070312 L 126.386719 150.222656 L 112.914062 147.1875 Z M 129.171875 105.007812 "/>
<path style=" stroke:none;fill-rule:nonzero;fill:rgb(39.99939%,39.99939%,39.99939%);fill-opacity:0.3;" d="M 158.902344 112.476562 L 171.289062 115.410156 L 156.074219 157.128906 L 143.332031 154.167969 Z M 158.902344 112.476562 "/>
<path style=" stroke:none;fill-rule:nonzero;fill:rgb(39.99939%,39.99939%,39.99939%);fill-opacity:0.3;" d="M 173.863281 116.078125 L 186.625 119.238281 L 171.367188 160.773438 L 158.59375 157.871094 Z M 173.863281 116.078125 "/>
<path style=" stroke:none;fill-rule:nonzero;fill:rgb(39.99939%,39.99939%,39.99939%);fill-opacity:0.3;" d="M 188.988281 119.4375 L 201.921875 122.734375 L 187.148438 164.4375 L 173.972656 161.625 Z M 188.988281 119.4375 "/>
<path style=" stroke:none;fill-rule:nonzero;fill:rgb(39.99939%,39.99939%,39.99939%);fill-opacity:0.3;" d="M 201.261719 -6.9375 L 178.945312 52.410156 L 166.523438 49.570312 L 189.300781 -11.800781 Z M 201.261719 -6.9375 "/>
<path style=" stroke:none;fill-rule:nonzero;fill:rgb(39.99939%,39.99939%,39.99939%);fill-opacity:0.3;" d="M 187.351562 -12.59375 L 164.339844 49.070312 L 151.015625 46.023438 L 174.734375 -17.71875 Z M 187.351562 -12.59375 "/>
<path style=" stroke:none;fill-rule:nonzero;fill:rgb(39.99939%,39.99939%,39.99939%);fill-opacity:0.3;" d="M 207.1875 61.921875 L 186.695312 114.464844 L 161.351562 108.65625 L 180.957031 56.015625 Z M 207.1875 61.921875 "/>
<path style=" stroke:none;fill-rule:nonzero;fill:rgb(39.99939%,39.99939%,39.99939%);fill-opacity:0.3;" d="M 232.914062 -10.699219 L 233.664062 -10.339844 L 234.035156 -9.914062 L 234.410156 -9.328125 L 234.660156 -8.757812 L 234.8125 -8.195312 L 234.894531 -7.515625 L 234.855469 -6.824219 L 234.734375 -6.257812 L 234.5 -5.636719 L 233.1875 -2.429688 L 232.886719 -1.671875 L 232.5 -1.089844 L 232.078125 -0.640625 L 231.421875 -0.164062 L 230.636719 0.1875 L 229.769531 0.371094 L 228.90625 0.371094 L 227.960938 0.191406 L 227.09375 -0.0585938 L 152.101562 -30.796875 L 151.773438 -31.132812 L 151.65625 -31.613281 L 151.730469 -32.023438 L 155.585938 -40.976562 L 155.898438 -41.347656 L 156.410156 -41.535156 L 156.996094 -41.609375 L 157.546875 -41.539062 Z M 232.914062 -10.699219 "/>
<path style=" stroke:none;fill-rule:nonzero;fill:rgb(39.99939%,39.99939%,39.99939%);fill-opacity:0.3;" d="M 265.175781 135.917969 L 278.472656 138.734375 L 263.320312 181.324219 L 249.5 178.058594 Z M 265.175781 135.917969 "/>
<path style=" stroke:none;fill-rule:nonzero;fill:rgb(39.99939%,39.99939%,39.99939%);fill-opacity:0.3;" d="M 250.515625 132.398438 L 263.148438 135.472656 L 247.808594 177.71875 L 234.921875 174.691406 Z M 250.515625 132.398438 "/>
<path style=" stroke:none;fill-rule:nonzero;fill:rgb(39.99939%,39.99939%,39.99939%);fill-opacity:0.3;" d="M 287.507812 27.554688 L 270.664062 72.605469 L 257.910156 69.691406 L 275.769531 22.625 Z M 287.507812 27.554688 "/>
<path style=" stroke:none;fill-rule:nonzero;fill:rgb(39.99939%,39.99939%,39.99939%);fill-opacity:0.3;" d="M 272.875 22.078125 L 254.9375 69.359375 L 242.332031 66.476562 L 260.535156 16.925781 Z M 272.875 22.078125 "/>
<path style=" stroke:none;fill-rule:nonzero;fill:rgb(39.99939%,39.99939%,39.99939%);fill-opacity:0.3;" d="M 269.382812 75.875 L 249.574219 128.871094 L 236.53125 125.882812 L 256.578125 73.042969 Z M 269.382812 75.875 "/>
<path style=" stroke:none;fill-rule:nonzero;fill:rgb(39.99939%,39.99939%,39.99939%);fill-opacity:0.3;" d="M 284.617188 79.359375 L 264.8125 132.359375 L 251.820312 129.382812 L 271.613281 76.429688 Z M 284.617188 79.359375 "/>
<path style=" stroke:none;fill-rule:nonzero;fill:rgb(39.99939%,39.99939%,39.99939%);fill-opacity:0.3;" d="M 172.652344 -18.5625 L 148.582031 45.464844 L 135.75 42.53125 L 160.605469 -23.453125 Z M 172.652344 -18.5625 "/>
<path style=" stroke:none;fill-rule:nonzero;fill:rgb(39.99939%,39.99939%,39.99939%);fill-opacity:0.3;" d="M 157.320312 -24.671875 L 132.480469 41.585938 L 121.582031 39.09375 L 148.542969 -28.398438 Z M 157.320312 -24.671875 "/>
<path style=" stroke:none;fill-rule:nonzero;fill:rgb(39.99939%,39.99939%,39.99939%);fill-opacity:0.3;" d="M 298.554688 143.722656 L 311.492188 146.703125 L 296.15625 189.359375 L 283.300781 186.375 Z M 298.554688 143.722656 "/>
<path style=" stroke:none;fill-rule:nonzero;fill:rgb(39.99939%,39.99939%,39.99939%);fill-opacity:0.3;" d="M 281.023438 139.761719 L 294.074219 142.875 L 279.191406 185.453125 L 265.476562 182.375 Z M 281.023438 139.761719 "/>
<path style=" stroke:none;fill-rule:nonzero;fill:rgb(39.99939%,39.99939%,39.99939%);fill-opacity:0.3;" d="M 347.589844 52.691406 L 334.476562 87.878906 L 320.992188 84.796875 L 334.761719 47.476562 Z M 347.589844 52.691406 "/>
<path style=" stroke:none;fill-rule:nonzero;fill:rgb(39.99939%,39.99939%,39.99939%);fill-opacity:0.3;" d="M 331.324219 45.582031 L 317 83.535156 L 303.507812 80.449219 L 318.488281 40.363281 Z M 331.324219 45.582031 "/>
<path style=" stroke:none;fill-rule:nonzero;fill:rgb(39.99939%,39.99939%,39.99939%);fill-opacity:0.3;" d="M 316.175781 39.234375 L 301.097656 79.566406 L 288.460938 76.675781 L 304.324219 34.242188 Z M 316.175781 39.234375 "/>
<path style=" stroke:none;fill-rule:nonzero;fill:rgb(39.99939%,39.99939%,39.99939%);fill-opacity:0.3;" d="M 301.90625 33.257812 L 285.898438 76.089844 L 272.910156 73.121094 L 289.671875 28.28125 Z M 301.90625 33.257812 "/>
<path style=" stroke:none;fill-rule:nonzero;fill:rgb(39.99939%,39.99939%,39.99939%);fill-opacity:0.3;" d="M 299.835938 82.785156 L 280.015625 135.839844 L 267.378906 132.945312 L 287.183594 79.9375 Z M 299.835938 82.785156 "/>
<path style=" stroke:none;fill-rule:nonzero;fill:rgb(39.99939%,39.99939%,39.99939%);fill-opacity:0.3;" d="M 315.746094 86.699219 L 295.730469 139.769531 L 282.421875 136.722656 L 302.25 83.660156 Z M 315.746094 86.699219 "/>
<path style=" stroke:none;fill-rule:nonzero;fill:rgb(39.99939%,39.99939%,39.99939%);fill-opacity:0.3;" d="M 333.257812 91.144531 L 313.445312 144.328125 L 300.160156 141.289062 L 319.773438 88.109375 Z M 333.257812 91.144531 "/>
<path style=" stroke:none;fill-rule:nonzero;fill:rgb(39.99939%,39.99939%,39.99939%);fill-opacity:0.3;" d="M 130.601562 45.507812 L 110.917969 97.9375 L 98.75 95.152344 L 119.605469 43.035156 Z M 130.601562 45.507812 "/>
<path style=" stroke:none;fill-rule:nonzero;fill:rgb(39.99939%,39.99939%,39.99939%);fill-opacity:0.3;" d="M 147.078125 48.640625 L 127.332031 101.117188 L 114.457031 98.167969 L 134.230469 45.746094 Z M 147.078125 48.640625 "/>
<path style=" stroke:none;fill-rule:nonzero;fill:rgb(39.99939%,39.99939%,39.99939%);fill-opacity:0.3;" d="M 162.535156 52.511719 L 142.90625 105.078125 L 129.628906 102.035156 L 149.199219 49.507812 Z M 162.535156 52.511719 "/>
<path style=" stroke:none;fill-rule:nonzero;fill:rgb(39.99939%,39.99939%,39.99939%);fill-opacity:0.3;" d="M 177.726562 55.609375 L 157.9375 108.199219 L 145.769531 105.410156 L 165.308594 52.8125 Z M 177.726562 55.609375 "/>
<g clip-path="url(#clip14)" clip-rule="nonzero">
<path style=" stroke:none;fill-rule:nonzero;fill:rgb(39.99939%,39.99939%,39.99939%);fill-opacity:0.3;" d="M 369.269531 -5.039062 L 354.003906 34.902344 L 348.5 32.867188 L 343.835938 30.945312 L 358.625 -8.804688 Z M 369.269531 -5.039062 "/>
</g>
<path style=" stroke:none;fill-rule:nonzero;fill:rgb(39.99939%,39.99939%,39.99939%);fill-opacity:0.3;" d="M 354.398438 -10.761719 L 339.390625 28.550781 L 330.160156 24.75 L 344.882812 -14.128906 Z M 354.398438 -10.761719 "/>
<path style=" stroke:none;fill-rule:nonzero;fill:rgb(39.99939%,39.99939%,39.99939%);fill-opacity:0.3;" d="M 342.242188 -14.914062 L 327.535156 23.839844 L 316.027344 19.101562 L 330.488281 -19.074219 Z M 342.242188 -14.914062 "/>
<path style=" stroke:none;fill-rule:nonzero;fill:rgb(39.99939%,39.99939%,39.99939%);fill-opacity:0.3;" d="M 328.269531 -19.859375 L 313.824219 18.191406 L 302.46875 13.511719 L 316.660156 -23.96875 Z M 328.269531 -19.859375 "/>
<path style=" stroke:none;fill-rule:nonzero;fill:rgb(39.99939%,39.99939%,39.99939%);fill-opacity:0.3;" d="M 314.441406 -24.753906 L 300.265625 12.605469 L 288.761719 7.863281 L 302.6875 -28.914062 Z M 314.441406 -24.753906 "/>
<path style=" stroke:none;fill-rule:nonzero;fill:rgb(39.99939%,39.99939%,39.99939%);fill-opacity:0.3;" d="M 300.46875 -29.699219 L 286.558594 6.957031 L 274.867188 2.136719 L 288.523438 -33.925781 Z M 300.46875 -29.699219 "/>
<path style=" stroke:none;fill-rule:nonzero;fill:rgb(39.99939%,39.99939%,39.99939%);fill-opacity:0.3;" d="M 286.304688 -34.710938 L 272.667969 1.230469 L 261.164062 -3.507812 L 274.550781 -38.871094 Z M 286.304688 -34.710938 "/>
<g clip-path="url(#clip15)" clip-rule="nonzero">
<path style=" stroke:none;fill-rule:nonzero;fill:rgb(39.99939%,39.99939%,39.99939%);fill-opacity:0.3;" d="M 367.304688 304.4375 L 367.285156 304.453125 L 361.125 306.535156 L 358.394531 307.3125 Z M 367.304688 304.4375 "/>
</g>
<path style=" stroke:none;fill-rule:nonzero;fill:rgb(39.99939%,39.99939%,39.99939%);fill-opacity:0.3;" d="M 350.480469 309.5625 L 349.859375 309.738281 L 339.207031 311.808594 L 333.324219 312.359375 L 333.46875 311.992188 Z M 350.480469 309.5625 "/>
<path style=" stroke:none;fill-rule:nonzero;fill:rgb(39.99939%,39.99939%,39.99939%);fill-opacity:0.3;" d="M 329.300781 311.972656 L 328.207031 312.148438 L 323.664062 312.160156 L 318.882812 311.714844 L 316.429688 311.46875 Z M 329.300781 311.972656 "/>
<g clip-path="url(#clip16)" clip-rule="nonzero">
<path style=" stroke:none;fill-rule:nonzero;fill:rgb(39.99939%,39.99939%,39.99939%);fill-opacity:0.3;" d="M 357.246094 321.363281 L 354.488281 333.039062 L 354.074219 334.546875 L 353.660156 336.058594 L 349.722656 351.953125 L 349.132812 353.683594 L 348.542969 355.417969 L 344.542969 369.929688 L 343.910156 373.15625 L 339.9375 388.585938 L 339.15625 392.109375 L 335.535156 406.960938 L 304.429688 400.222656 L 269.363281 392.605469 L 295.230469 323.597656 L 297.246094 320.289062 L 305.457031 322.589844 L 321.765625 324.777344 L 336.585938 324.652344 L 346.277344 323.199219 Z M 357.246094 321.363281 "/>
</g>
<g clip-path="url(#clip17)" clip-rule="nonzero">
<path style=" stroke:none;fill-rule:nonzero;fill:rgb(39.99939%,39.99939%,39.99939%);fill-opacity:0.3;" d="M 348.832031 355.480469 L 377.90625 361.851562 L 373.523438 375.949219 L 344.636719 369.949219 Z M 348.832031 355.480469 "/>
</g>
<g clip-path="url(#clip18)" clip-rule="nonzero">
<path style=" stroke:none;fill-rule:nonzero;fill:rgb(39.99939%,39.99939%,39.99939%);fill-opacity:0.3;" d="M 353.863281 336.105469 L 383.601562 343.023438 L 379.648438 357.78125 L 350.039062 352.015625 Z M 353.863281 336.105469 "/>
</g>
<g clip-path="url(#clip19)" clip-rule="nonzero">
<path style=" stroke:none;fill-rule:nonzero;fill:rgb(39.99939%,39.99939%,39.99939%);fill-opacity:0.3;" d="M 357.394531 321.332031 L 361.867188 320.421875 L 389.183594 326.074219 L 384.691406 339.941406 L 354.679688 333.082031 Z M 357.394531 321.332031 "/>
</g>
<path style=" stroke:none;fill-rule:nonzero;fill:rgb(39.99939%,39.99939%,39.99939%);fill-opacity:0.3;" d="M 204.144531 214.730469 L 223.101562 221.882812 L 207.238281 265.320312 L 188.070312 258.035156 Z M 204.144531 214.730469 "/>
<path style=" stroke:none;fill-rule:nonzero;fill:rgb(39.99939%,39.99939%,39.99939%);fill-opacity:0.3;" d="M 225.96875 222.3125 L 245.085938 229.492188 L 229.292969 273 L 209.675781 265.609375 Z M 225.96875 222.3125 "/>
<path style=" stroke:none;fill-rule:nonzero;fill:rgb(39.99939%,39.99939%,39.99939%);fill-opacity:0.3;" d="M 195.550781 169.636719 L 215.988281 174.390625 L 203.078125 209.660156 L 183.351562 202.285156 Z M 195.550781 169.636719 "/>
<path style=" stroke:none;fill-rule:nonzero;fill:rgb(39.99939%,39.99939%,39.99939%);fill-opacity:0.3;" d="M 218.738281 175.371094 L 238.488281 180.21875 L 224.496094 218.109375 L 205.527344 211.019531 Z M 218.738281 175.371094 "/>
<path style=" stroke:none;fill-rule:nonzero;fill:rgb(39.99939%,39.99939%,39.99939%);fill-opacity:0.3;" d="M 186.9375 260.355469 L 206.078125 267.527344 L 204.128906 272.644531 L 185.097656 265.578125 Z M 186.9375 260.355469 "/>
<path style=" stroke:none;fill-rule:nonzero;fill:rgb(39.99939%,39.99939%,39.99939%);fill-opacity:0.3;" d="M 208.839844 268.4375 L 228.824219 275.921875 L 226.828125 280.785156 L 206.933594 273.5625 Z M 208.839844 268.4375 "/>
<path style=" stroke:none;fill-rule:nonzero;fill:rgb(39.99939%,39.99939%,39.99939%);fill-opacity:0.3;" d="M 231.441406 276.902344 L 242.71875 281.121094 L 240.792969 286.125 L 229.507812 281.9375 Z M 231.441406 276.902344 "/>
<path style=" stroke:none;fill-rule:nonzero;fill:rgb(39.99939%,39.99939%,39.99939%);fill-opacity:0.3;" d="M 116.320312 181.234375 L 135.707031 188.527344 L 119.285156 231.652344 L 100 224.464844 Z M 116.320312 181.234375 "/>
<path style=" stroke:none;fill-rule:nonzero;fill:rgb(39.99939%,39.99939%,39.99939%);fill-opacity:0.3;" d="M 138.410156 189.359375 L 157.390625 196.496094 L 141.191406 239.734375 L 122.203125 232.570312 Z M 138.410156 189.359375 "/>
<path style=" stroke:none;fill-rule:nonzero;fill:rgb(39.99939%,39.99939%,39.99939%);fill-opacity:0.3;" d="M 160.457031 197.535156 L 179.128906 204.554688 L 163.125 247.777344 L 144.492188 240.867188 Z M 160.457031 197.535156 "/>
<path style=" stroke:none;fill-rule:nonzero;fill:rgb(39.99939%,39.99939%,39.99939%);fill-opacity:0.3;" d="M 126.253906 154.414062 L 146.6875 159.175781 L 136.921875 184.832031 L 117.511719 177.570312 Z M 126.253906 154.414062 "/>
<path style=" stroke:none;fill-rule:nonzero;fill:rgb(39.99939%,39.99939%,39.99939%);fill-opacity:0.3;" d="M 102.867188 148.964844 L 123.570312 153.789062 L 114.964844 176.527344 L 95.304688 169.222656 Z M 102.867188 148.964844 "/>
<path style=" stroke:none;fill-rule:nonzero;fill:rgb(39.99939%,39.99939%,39.99939%);fill-opacity:0.3;" d="M 72.664062 164.550781 L 91.476562 171.625 L 75.570312 214.886719 L 56.015625 207.503906 Z M 72.664062 164.550781 "/>
<path style=" stroke:none;fill-rule:nonzero;fill:rgb(39.99939%,39.99939%,39.99939%);fill-opacity:0.3;" d="M 94.328125 173.28125 L 113.921875 180.652344 L 97.597656 223.765625 L 78.167969 216.449219 Z M 94.328125 173.28125 "/>
<path style=" stroke:none;fill-rule:nonzero;fill:rgb(39.99939%,39.99939%,39.99939%);fill-opacity:0.3;" d="M 99.769531 148.597656 L 92.449219 168.542969 L 73.351562 161.203125 L 79.609375 143.898438 Z M 99.769531 148.597656 "/>
<path style=" stroke:none;fill-rule:nonzero;fill:rgb(39.99939%,39.99939%,39.99939%);fill-opacity:0.3;" d="M 148.878906 159.921875 L 168.75 164.550781 L 158.117188 192.988281 L 139.121094 185.9375 Z M 148.878906 159.921875 "/>
<path style=" stroke:none;fill-rule:nonzero;fill:rgb(39.99939%,39.99939%,39.99939%);fill-opacity:0.3;" d="M 53.515625 210.511719 L 73.5 218.019531 L 71.292969 223.53125 L 51.429688 216.09375 Z M 53.515625 210.511719 "/>
<path style=" stroke:none;fill-rule:nonzero;fill:rgb(39.99939%,39.99939%,39.99939%);fill-opacity:0.3;" d="M 143.859375 244.179688 L 162.261719 251.125 L 160.128906 256.277344 L 141.769531 249.457031 Z M 143.859375 244.179688 "/>
<path style=" stroke:none;fill-rule:nonzero;fill:rgb(39.99939%,39.99939%,39.99939%);fill-opacity:0.3;" d="M 76.332031 219.402344 L 96.132812 226.820312 L 94.164062 232.304688 L 74.316406 224.984375 Z M 76.332031 219.402344 "/>
<path style=" stroke:none;fill-rule:nonzero;fill:rgb(39.99939%,39.99939%,39.99939%);fill-opacity:0.3;" d="M 99.25 227.804688 L 118.636719 235.074219 L 116.59375 240.457031 L 97.09375 233.207031 Z M 99.25 227.804688 "/>
<path style=" stroke:none;fill-rule:nonzero;fill:rgb(39.99939%,39.99939%,39.99939%);fill-opacity:0.3;" d="M 121.050781 236.039062 L 140.117188 243.222656 L 138.03125 248.480469 L 118.964844 241.394531 Z M 121.050781 236.039062 "/>
<path style=" stroke:none;fill-rule:nonzero;fill:rgb(39.99939%,39.99939%,39.99939%);fill-opacity:0.3;" d="M 172.835938 164.523438 L 192.28125 169 L 180.597656 201.164062 L 161.929688 194.183594 Z M 172.835938 164.523438 "/>
<path style=" stroke:none;fill-rule:nonzero;fill:rgb(39.99939%,39.99939%,39.99939%);fill-opacity:0.3;" d="M 181.796875 206.105469 L 201.539062 213.507812 L 185.617188 256.953125 L 165.972656 249.519531 Z M 181.796875 206.105469 "/>
<path style=" stroke:none;fill-rule:nonzero;fill:rgb(39.99939%,39.99939%,39.99939%);fill-opacity:0.3;" d="M 164.445312 251.925781 L 184.203125 259.386719 L 182.246094 264.519531 L 162.378906 257.140625 Z M 164.445312 251.925781 "/>
<path style=" stroke:none;fill-rule:nonzero;fill:rgb(39.99939%,39.99939%,39.99939%);fill-opacity:0.3;" d="M 241.632812 180.085938 L 260.691406 184.746094 L 246.226562 225.804688 L 227.152344 218.679688 Z M 241.632812 180.085938 "/>
<path style=" stroke:none;fill-rule:nonzero;fill:rgb(39.99939%,39.99939%,39.99939%);fill-opacity:0.3;" d="M 264.207031 237.464844 L 276.359375 241.855469 L 260.285156 285.300781 L 248.472656 280.855469 Z M 264.207031 237.464844 "/>
<path style=" stroke:none;fill-rule:nonzero;fill:rgb(39.99939%,39.99939%,39.99939%);fill-opacity:0.3;" d="M 248.117188 230.625 L 259.585938 234.933594 L 243.726562 278.4375 L 232.503906 274.207031 Z M 248.117188 230.625 "/>
<path style=" stroke:none;fill-rule:nonzero;fill:rgb(39.99939%,39.99939%,39.99939%);fill-opacity:0.3;" d="M 264.574219 185.496094 L 276.917969 188.382812 L 261.957031 231.730469 L 249.472656 227.121094 Z M 264.574219 185.496094 "/>
<path style=" stroke:none;fill-rule:nonzero;fill:rgb(39.99939%,39.99939%,39.99939%);fill-opacity:0.3;" d="M 247.570312 283.25 L 259.679688 287.78125 L 257.59375 292.664062 L 245.613281 288.222656 Z M 247.570312 283.25 "/>
<path style=" stroke:none;fill-rule:nonzero;fill:rgb(39.99939%,39.99939%,39.99939%);fill-opacity:0.3;" d="M 301.421875 308.570312 L 300.984375 308.449219 L 301.535156 307.011719 Z M 301.421875 308.570312 "/>
<path style=" stroke:none;fill-rule:nonzero;fill:rgb(39.99939%,39.99939%,39.99939%);fill-opacity:0.3;" d="M 281.957031 189.507812 L 294.5 192.511719 L 277.738281 237.984375 L 265.277344 233.226562 Z M 281.957031 189.507812 "/>
<path style=" stroke:none;fill-rule:nonzero;fill:rgb(39.99939%,39.99939%,39.99939%);fill-opacity:0.3;" d="M 308.570312 200.507812 L 272.0625 297.9375 L 260.347656 293.683594 L 298.058594 191.632812 L 298.28125 191.027344 Z M 308.570312 200.507812 "/>
<path style=" stroke:none;fill-rule:nonzero;fill:rgb(39.99939%,39.99939%,39.99939%);fill-opacity:0.3;" d="M 295.230469 323.597656 L 296.546875 320.089844 L 297.246094 320.289062 Z M 295.230469 323.597656 "/>
<path style=" stroke:none;fill-rule:nonzero;fill:rgb(39.99939%,39.99939%,39.99939%);fill-opacity:0.3;" d="M 188.011719 344.871094 L 206.195312 297.679688 L 218.136719 300.246094 L 200.199219 347.242188 Z M 188.011719 344.871094 "/>
<path style=" stroke:none;fill-rule:nonzero;fill:rgb(39.99939%,39.99939%,39.99939%);fill-opacity:0.3;" d="M 221.84375 300.691406 L 234.542969 303.335938 L 216.449219 351.066406 L 204.648438 348.292969 Z M 221.84375 300.691406 "/>
<path style=" stroke:none;fill-rule:nonzero;fill:rgb(39.99939%,39.99939%,39.99939%);fill-opacity:0.3;" d="M 236.628906 303.75 L 248.433594 306.277344 L 230.335938 353.996094 L 218.667969 351.480469 Z M 236.628906 303.75 "/>
<path style=" stroke:none;fill-rule:nonzero;fill:rgb(39.99939%,39.99939%,39.99939%);fill-opacity:0.3;" d="M 148.378906 266.621094 L 148.402344 266.628906 L 147.773438 268.285156 Z M 148.378906 266.621094 "/>
<path style=" stroke:none;fill-rule:nonzero;fill:rgb(39.99939%,39.99939%,39.99939%);fill-opacity:0.3;" d="M 151.585938 267.675781 L 177.371094 277.046875 L 173.902344 286.214844 L 146.605469 280.605469 Z M 151.585938 267.675781 "/>
<path style=" stroke:none;fill-rule:nonzero;fill:rgb(39.99939%,39.99939%,39.99939%);fill-opacity:0.3;" d="M 188.632812 288.050781 L 185.132812 288.660156 L 177.441406 286.996094 L 180.453125 278.167969 L 192.632812 282.59375 Z M 188.632812 288.050781 "/>
<path style=" stroke:none;fill-rule:nonzero;fill:rgb(39.99939%,39.99939%,39.99939%);fill-opacity:0.3;" d="M 207.269531 287.914062 L 205.433594 292.660156 L 192.636719 289.847656 L 194.992188 283.449219 Z M 207.269531 287.914062 "/>
<path style=" stroke:none;fill-rule:nonzero;fill:rgb(39.99939%,39.99939%,39.99939%);fill-opacity:0.3;" d="M 225.117188 294.398438 L 253.832031 305.070312 L 253.730469 305.539062 L 247.660156 304.253906 L 222.875 298.933594 Z M 225.117188 294.398438 "/>
<g clip-path="url(#clip20)" clip-rule="nonzero">
<path style=" stroke:none;fill-rule:nonzero;fill:rgb(39.99939%,39.99939%,39.99939%);fill-opacity:0.3;" d="M 217.808594 353.960938 L 230.199219 356.847656 L 244.753906 360.683594 L 230.792969 400.878906 L 203.363281 395.332031 Z M 217.808594 353.960938 "/>
</g>
<g clip-path="url(#clip21)" clip-rule="nonzero">
<path style=" stroke:none;fill-rule:nonzero;fill:rgb(39.99939%,39.99939%,39.99939%);fill-opacity:0.3;" d="M 108.160156 375.023438 L 107.703125 374.925781 L 115.230469 354.800781 Z M 108.160156 375.023438 "/>
</g>
<g clip-path="url(#clip22)" clip-rule="nonzero">
<path style=" stroke:none;fill-rule:nonzero;fill:rgb(39.99939%,39.99939%,39.99939%);fill-opacity:0.3;" d="M 137.089844 337.78125 L 121.890625 378.003906 L 110.445312 375.519531 L 125.582031 335.238281 Z M 137.089844 337.78125 "/>
</g>
<g clip-path="url(#clip23)" clip-rule="nonzero">
<path style=" stroke:none;fill-rule:nonzero;fill:rgb(39.99939%,39.99939%,39.99939%);fill-opacity:0.3;" d="M 152.980469 340.828125 L 137.617188 381.414062 L 126.601562 379.039062 L 142.234375 338.316406 Z M 152.980469 340.828125 "/>
</g>
<g clip-path="url(#clip24)" clip-rule="nonzero">
<path style=" stroke:none;fill-rule:nonzero;fill:rgb(39.99939%,39.99939%,39.99939%);fill-opacity:0.3;" d="M 154.28125 384.707031 L 141.882812 382.035156 L 156.726562 341.335938 L 168.28125 344.351562 Z M 154.28125 384.707031 "/>
</g>
<g clip-path="url(#clip25)" clip-rule="nonzero">
<path style=" stroke:none;fill-rule:nonzero;fill:rgb(39.99939%,39.99939%,39.99939%);fill-opacity:0.3;" d="M 169.941406 387.878906 L 157.808594 385.261719 L 172.957031 344.976562 L 184.507812 347.476562 Z M 169.941406 387.878906 "/>
</g>
<g clip-path="url(#clip26)" clip-rule="nonzero">
<path style=" stroke:none;fill-rule:nonzero;fill:rgb(39.99939%,39.99939%,39.99939%);fill-opacity:0.3;" d="M 184.484375 391.1875 L 172.558594 388.617188 L 188.011719 348.09375 L 200.097656 351.101562 Z M 184.484375 391.1875 "/>
</g>
<g clip-path="url(#clip27)" clip-rule="nonzero">
<path style=" stroke:none;fill-rule:nonzero;fill:rgb(39.99939%,39.99939%,39.99939%);fill-opacity:0.3;" d="M 200.050781 394.359375 L 188.488281 391.589844 L 203.066406 351.492188 L 214.878906 354.242188 Z M 200.050781 394.359375 "/>
</g>
<g clip-path="url(#clip28)" clip-rule="nonzero">
<path style=" stroke:none;fill-rule:nonzero;fill:rgb(39.99939%,39.99939%,39.99939%);fill-opacity:0.3;" d="M 268.351562 310.398438 L 280.730469 314.757812 L 282.449219 315.359375 L 284.164062 315.960938 L 294.585938 319.511719 L 262.699219 403.472656 L 260.28125 409.394531 L 249.792969 407.132812 L 247.996094 406.746094 L 245.859375 406.285156 L 232.125 403.335938 Z M 268.351562 310.398438 "/>
</g>
<path style=" stroke:none;fill-rule:nonzero;fill:rgb(39.99939%,39.99939%,39.99939%);fill-opacity:0.3;" d="M 221.390625 293.042969 L 220.984375 294.359375 L 220.078125 295.144531 L 218.347656 295.40625 L 216.621094 295.410156 L 213.699219 294.835938 L 207.242188 293.167969 L 209.179688 288.605469 Z M 221.390625 293.042969 "/>
<path style=" stroke:none;fill-rule:nonzero;fill:rgb(39.99939%,39.99939%,39.99939%);fill-opacity:0.3;" d="M 144.828125 284.492188 L 156.195312 286.933594 L 138.839844 333.832031 L 127.300781 331.347656 Z M 144.828125 284.492188 "/>
<path style=" stroke:none;fill-rule:nonzero;fill:rgb(39.99939%,39.99939%,39.99939%);fill-opacity:0.3;" d="M 160.554688 287.871094 L 172.691406 290.480469 L 154.691406 337.339844 L 143.5625 334.929688 Z M 160.554688 287.871094 "/>
<path style=" stroke:none;fill-rule:nonzero;fill:rgb(39.99939%,39.99939%,39.99939%);fill-opacity:0.3;" d="M 174.867188 290.945312 L 187.328125 293.625 L 170.078125 340.757812 L 157.554688 338.019531 Z M 174.867188 290.945312 "/>
<path style=" stroke:none;fill-rule:nonzero;fill:rgb(39.99939%,39.99939%,39.99939%);fill-opacity:0.3;" d="M 203.332031 297.0625 L 185.648438 344.191406 L 173.710938 341.648438 L 191.613281 294.546875 Z M 203.332031 297.0625 "/>
<path style=" stroke:none;fill-rule:nonzero;fill:rgb(39.99939%,39.99939%,39.99939%);fill-opacity:0.3;" d="M 266.140625 310.652344 L 247.472656 357.816406 L 232.722656 354.515625 L 251.035156 306.597656 Z M 266.140625 310.652344 "/>
<path style=" stroke:none;fill-rule:nonzero;fill:rgb(39.99939%,39.99939%,39.99939%);fill-opacity:0.3;" d="M 19.226562 256.273438 L 19.355469 256.300781 L 14.804688 266.5 L 12.007812 268.914062 L 15.277344 264.476562 Z M 19.226562 256.273438 "/>
<path style=" stroke:none;fill-rule:nonzero;fill:rgb(39.99939%,39.99939%,39.99939%);fill-opacity:0.3;" d="M 62.84375 266.621094 L 46.117188 313.367188 L 34.535156 310.855469 L 51.675781 264.277344 Z M 62.84375 266.621094 "/>
<path style=" stroke:none;fill-rule:nonzero;fill:rgb(39.99939%,39.99939%,39.99939%);fill-opacity:0.3;" d="M 79.542969 270.136719 L 62.03125 316.882812 L 50.664062 314.417969 L 67.960938 267.695312 Z M 79.542969 270.136719 "/>
<path style=" stroke:none;fill-rule:nonzero;fill:rgb(39.99939%,39.99939%,39.99939%);fill-opacity:0.3;" d="M 93.722656 273.511719 L 76.835938 320.0625 L 65.554688 317.769531 L 82.390625 271.074219 Z M 93.722656 273.511719 "/>
<path style=" stroke:none;fill-rule:nonzero;fill:rgb(39.99939%,39.99939%,39.99939%);fill-opacity:0.3;" d="M 38.414062 257.207031 L 49.308594 230.507812 L 60.242188 234.480469 L 50.582031 259.785156 Z M 38.414062 257.207031 "/>
<path style=" stroke:none;fill-rule:nonzero;fill:rgb(39.99939%,39.99939%,39.99939%);fill-opacity:0.3;" d="M 137.113281 262.515625 L 148.378906 266.621094 L 147.773438 268.285156 L 143.511719 279.519531 L 131.582031 276.894531 Z M 137.113281 262.515625 "/>
<path style=" stroke:none;fill-rule:nonzero;fill:rgb(39.99939%,39.99939%,39.99939%);fill-opacity:0.3;" d="M 125.949219 275.75 L 115.546875 273.601562 L 121.886719 256.941406 L 131.519531 260.386719 Z M 125.949219 275.75 "/>
<path style=" stroke:none;fill-rule:nonzero;fill:rgb(39.99939%,39.99939%,39.99939%);fill-opacity:0.3;" d="M 117.722656 255.363281 L 111.226562 272.574219 L 100.667969 270.332031 L 107.828125 251.710938 Z M 117.722656 255.363281 "/>
<path style=" stroke:none;fill-rule:nonzero;fill:rgb(39.99939%,39.99939%,39.99939%);fill-opacity:0.3;" d="M 102.335938 249.875 L 95.160156 269.402344 L 83.917969 267.011719 L 91.777344 245.980469 Z M 102.335938 249.875 "/>
<path style=" stroke:none;fill-rule:nonzero;fill:rgb(39.99939%,39.99939%,39.99939%);fill-opacity:0.3;" d="M 89.402344 245.148438 L 81.191406 266.449219 L 69.601562 263.988281 L 78.347656 241.070312 Z M 89.402344 245.148438 "/>
<path style=" stroke:none;fill-rule:nonzero;fill:rgb(39.99939%,39.99939%,39.99939%);fill-opacity:0.3;" d="M 74.070312 239.507812 L 64.746094 263.203125 L 52.738281 260.832031 L 62.421875 235.273438 Z M 74.070312 239.507812 "/>
<path style=" stroke:none;fill-rule:nonzero;fill:rgb(39.99939%,39.99939%,39.99939%);fill-opacity:0.3;" d="M 2.515625 309.398438 L 15.707031 312.273438 L -0.0195312 351.527344 L -12.617188 348.824219 Z M 2.515625 309.398438 "/>
<path style=" stroke:none;fill-rule:nonzero;fill:rgb(39.99939%,39.99939%,39.99939%);fill-opacity:0.3;" d="M 18.28125 355.527344 L 33.050781 315.914062 L 44.660156 318.480469 L 30.269531 358.128906 Z M 18.28125 355.527344 "/>
<g clip-path="url(#clip29)" clip-rule="nonzero">
<path style=" stroke:none;fill-rule:nonzero;fill:rgb(39.99939%,39.99939%,39.99939%);fill-opacity:0.3;" d="M 60.589844 321.765625 L 45.617188 361.457031 L 34.410156 359.027344 L 49.257812 319.257812 Z M 60.589844 321.765625 "/>
</g>
<g clip-path="url(#clip30)" clip-rule="nonzero">
<path style=" stroke:none;fill-rule:nonzero;fill:rgb(39.99939%,39.99939%,39.99939%);fill-opacity:0.3;" d="M 75.480469 324.398438 L 60.972656 364.789062 L 49.257812 362.246094 L 63.976562 321.851562 Z M 75.480469 324.398438 "/>
</g>
<g clip-path="url(#clip31)" clip-rule="nonzero">
<path style=" stroke:none;fill-rule:nonzero;fill:rgb(39.99939%,39.99939%,39.99939%);fill-opacity:0.3;" d="M 91.265625 327.890625 L 76.832031 368.226562 L 65.296875 365.726562 L 80.410156 325.488281 Z M 91.265625 327.890625 "/>
</g>
<g clip-path="url(#clip32)" clip-rule="nonzero">
<path style=" stroke:none;fill-rule:nonzero;fill:rgb(39.99939%,39.99939%,39.99939%);fill-opacity:0.3;" d="M 91.722656 371.457031 L 79.566406 368.820312 L 94.589844 328.46875 L 105.894531 331.34375 Z M 91.722656 371.457031 "/>
</g>
<g clip-path="url(#clip33)" clip-rule="nonzero">
<path style=" stroke:none;fill-rule:nonzero;fill:rgb(39.99939%,39.99939%,39.99939%);fill-opacity:0.3;" d="M 107.703125 374.925781 L 95.398438 372.253906 L 111.03125 332.167969 L 122.269531 334.65625 L 115.230469 354.800781 Z M 107.703125 374.925781 "/>
</g>
<path style=" stroke:none;fill-rule:nonzero;fill:rgb(39.99939%,39.99939%,39.99939%);fill-opacity:0.3;" d="M 47.339844 217.609375 L 44.277344 226.601562 L 36.222656 223.378906 L 39.359375 214.785156 Z M 47.339844 217.609375 "/>
<path style=" stroke:none;fill-rule:nonzero;fill:rgb(39.99939%,39.99939%,39.99939%);fill-opacity:0.3;" d="M 28.871094 266.441406 L 10.695312 287.386719 L 4.957031 293.683594 L 0.652344 301.425781 L -6.574219 299.359375 L -2.046875 291.558594 L 19.992188 265.613281 L 35.089844 226.917969 L 42.929688 229.984375 Z M 28.871094 266.441406 "/>
<path style=" stroke:none;fill-rule:nonzero;fill:rgb(39.99939%,39.99939%,39.99939%);fill-opacity:0.3;" d="M 28.417969 231.367188 L 26.109375 239.019531 L 25.710938 238.894531 Z M 28.417969 231.367188 "/>
<path style=" stroke:none;fill-rule:nonzero;fill:rgb(39.99939%,39.99939%,39.99939%);fill-opacity:0.3;" d="M 19.757812 312.597656 L 30.011719 314.644531 L 14.953125 354.828125 L 3.921875 352.414062 Z M 19.757812 312.597656 "/>
<path style=" stroke:none;fill-rule:nonzero;fill:rgb(39.99939%,39.99939%,39.99939%);fill-opacity:0.3;" d="M 109.953125 276.996094 L 93.515625 323.953125 L 81.925781 321.210938 L 98.53125 274.542969 Z M 109.953125 276.996094 "/>
<path style=" stroke:none;fill-rule:nonzero;fill:rgb(39.99939%,39.99939%,39.99939%);fill-opacity:0.3;" d="M 108.539062 327.402344 L 96.273438 324.261719 L 113.769531 277.816406 L 124.675781 280.160156 Z M 108.539062 327.402344 "/>
<path style=" stroke:none;fill-rule:nonzero;fill:rgb(39.99939%,39.99939%,39.99939%);fill-opacity:0.3;" d="M 123.996094 330.652344 L 112.269531 327.953125 L 130.089844 281.324219 L 141.441406 283.765625 Z M 123.996094 330.652344 "/>
<path style=" stroke:none;fill-rule:nonzero;fill:rgb(39.99939%,39.99939%,39.99939%);fill-opacity:0.3;" d="M 48.84375 263.6875 L 31.605469 310.164062 L 20.710938 307.800781 L 36.214844 261.5 L 36.402344 261.078125 Z M 48.84375 263.6875 "/>
<path style=" stroke:none;fill-rule:nonzero;fill:rgb(39.99939%,39.99939%,39.99939%);fill-opacity:0.3;" d="M 4.628906 304.230469 L 7.214844 297.90625 L 15.277344 289.328125 L 29 275.726562 L 17.308594 307.074219 Z M 4.628906 304.230469 "/>
<path style="fill-rule:nonzero;fill:rgb(39.99939%,39.99939%,39.99939%);fill-opacity:1;stroke-width:0.03;stroke-linecap:square;stroke-linejoin:miter;stroke:rgb(39.99939%,39.99939%,39.99939%);stroke-opacity:1;stroke-miterlimit:3.239307;" d="M 278.144531 227.730469 L 297.101562 234.882812 L 281.238281 278.320312 L 262.070312 271.035156 Z M 278.144531 227.730469 " transform="matrix(1,0,0,1,-74,-13)"/>
<path style="fill-rule:nonzero;fill:rgb(39.99939%,39.99939%,39.99939%);fill-opacity:1;stroke-width:0.03;stroke-linecap:square;stroke-linejoin:miter;stroke:rgb(39.99939%,39.99939%,39.99939%);stroke-opacity:1;stroke-miterlimit:3.239307;" d="M 299.96875 235.3125 L 319.085938 242.492188 L 303.292969 286 L 283.675781 278.609375 Z M 299.96875 235.3125 " transform="matrix(1,0,0,1,-74,-13)"/>
<path style="fill-rule:nonzero;fill:rgb(39.99939%,39.99939%,39.99939%);fill-opacity:1;stroke-width:0.03;stroke-linecap:square;stroke-linejoin:miter;stroke:rgb(39.99939%,39.99939%,39.99939%);stroke-opacity:1;stroke-miterlimit:3.239307;" d="M 269.550781 182.636719 L 289.988281 187.390625 L 277.078125 222.660156 L 257.351562 215.285156 Z M 269.550781 182.636719 " transform="matrix(1,0,0,1,-74,-13)"/>
<path style="fill-rule:nonzero;fill:rgb(39.99939%,39.99939%,39.99939%);fill-opacity:1;stroke-width:0.03;stroke-linecap:square;stroke-linejoin:miter;stroke:rgb(39.99939%,39.99939%,39.99939%);stroke-opacity:1;stroke-miterlimit:3.239307;" d="M 292.738281 188.371094 L 312.488281 193.21875 L 298.496094 231.109375 L 279.527344 224.019531 Z M 292.738281 188.371094 " transform="matrix(1,0,0,1,-74,-13)"/>
<path style="fill-rule:nonzero;fill:rgb(39.99939%,39.99939%,39.99939%);fill-opacity:1;stroke-width:0.03;stroke-linecap:square;stroke-linejoin:miter;stroke:rgb(39.99939%,39.99939%,39.99939%);stroke-opacity:1;stroke-miterlimit:3.239307;" d="M 260.9375 273.355469 L 280.078125 280.527344 L 278.128906 285.644531 L 259.097656 278.578125 Z M 260.9375 273.355469 " transform="matrix(1,0,0,1,-74,-13)"/>
<path style="fill-rule:nonzero;fill:rgb(39.99939%,39.99939%,39.99939%);fill-opacity:1;stroke-width:0.03;stroke-linecap:square;stroke-linejoin:miter;stroke:rgb(39.99939%,39.99939%,39.99939%);stroke-opacity:1;stroke-miterlimit:3.239307;" d="M 282.839844 281.4375 L 302.824219 288.921875 L 300.828125 293.785156 L 280.933594 286.5625 Z M 282.839844 281.4375 " transform="matrix(1,0,0,1,-74,-13)"/>
<path style="fill-rule:nonzero;fill:rgb(39.99939%,39.99939%,39.99939%);fill-opacity:1;stroke-width:0.03;stroke-linecap:square;stroke-linejoin:miter;stroke:rgb(39.99939%,39.99939%,39.99939%);stroke-opacity:1;stroke-miterlimit:3.239307;" d="M 305.441406 289.902344 L 316.71875 294.121094 L 314.792969 299.125 L 303.507812 294.9375 Z M 305.441406 289.902344 " transform="matrix(1,0,0,1,-74,-13)"/>
<path style="fill-rule:nonzero;fill:rgb(39.99939%,39.99939%,39.99939%);fill-opacity:1;stroke-width:0.03;stroke-linecap:square;stroke-linejoin:miter;stroke:rgb(39.99939%,39.99939%,39.99939%);stroke-opacity:1;stroke-miterlimit:3.239307;" d="M 190.320312 194.234375 L 209.707031 201.527344 L 193.285156 244.652344 L 174 237.464844 Z M 190.320312 194.234375 " transform="matrix(1,0,0,1,-74,-13)"/>
<path style="fill-rule:nonzero;fill:rgb(39.99939%,39.99939%,39.99939%);fill-opacity:1;stroke-width:0.03;stroke-linecap:square;stroke-linejoin:miter;stroke:rgb(39.99939%,39.99939%,39.99939%);stroke-opacity:1;stroke-miterlimit:3.239307;" d="M 212.410156 202.359375 L 231.390625 209.496094 L 215.191406 252.734375 L 196.203125 245.570312 Z M 212.410156 202.359375 " transform="matrix(1,0,0,1,-74,-13)"/>
<path style="fill-rule:nonzero;fill:rgb(39.99939%,39.99939%,39.99939%);fill-opacity:1;stroke-width:0.03;stroke-linecap:square;stroke-linejoin:miter;stroke:rgb(39.99939%,39.99939%,39.99939%);stroke-opacity:1;stroke-miterlimit:3.239307;" d="M 234.457031 210.535156 L 253.128906 217.554688 L 237.125 260.777344 L 218.492188 253.867188 Z M 234.457031 210.535156 " transform="matrix(1,0,0,1,-74,-13)"/>
<path style="fill-rule:nonzero;fill:rgb(39.99939%,39.99939%,39.99939%);fill-opacity:1;stroke-width:0.03;stroke-linecap:square;stroke-linejoin:miter;stroke:rgb(39.99939%,39.99939%,39.99939%);stroke-opacity:1;stroke-miterlimit:3.239307;" d="M 200.253906 167.414062 L 220.6875 172.175781 L 210.921875 197.832031 L 191.511719 190.570312 Z M 200.253906 167.414062 " transform="matrix(1,0,0,1,-74,-13)"/>
<path style="fill-rule:nonzero;fill:rgb(39.99939%,39.99939%,39.99939%);fill-opacity:1;stroke-width:0.03;stroke-linecap:square;stroke-linejoin:miter;stroke:rgb(39.99939%,39.99939%,39.99939%);stroke-opacity:1;stroke-miterlimit:3.239307;" d="M 176.867188 161.964844 L 197.570312 166.789062 L 188.964844 189.527344 L 169.304688 182.222656 Z M 176.867188 161.964844 " transform="matrix(1,0,0,1,-74,-13)"/>
<path style="fill-rule:nonzero;fill:rgb(39.99939%,39.99939%,39.99939%);fill-opacity:1;stroke-width:0.03;stroke-linecap:square;stroke-linejoin:miter;stroke:rgb(39.99939%,39.99939%,39.99939%);stroke-opacity:1;stroke-miterlimit:3.239307;" d="M 146.664062 177.550781 L 165.476562 184.625 L 149.570312 227.886719 L 130.015625 220.503906 Z M 146.664062 177.550781 " transform="matrix(1,0,0,1,-74,-13)"/>
<path style="fill-rule:nonzero;fill:rgb(39.99939%,39.99939%,39.99939%);fill-opacity:1;stroke-width:0.03;stroke-linecap:square;stroke-linejoin:miter;stroke:rgb(39.99939%,39.99939%,39.99939%);stroke-opacity:1;stroke-miterlimit:3.239307;" d="M 168.328125 186.28125 L 187.921875 193.652344 L 171.597656 236.765625 L 152.167969 229.449219 Z M 168.328125 186.28125 " transform="matrix(1,0,0,1,-74,-13)"/>
<path style="fill-rule:nonzero;fill:rgb(39.99939%,39.99939%,39.99939%);fill-opacity:1;stroke-width:0.03;stroke-linecap:square;stroke-linejoin:miter;stroke:rgb(39.99939%,39.99939%,39.99939%);stroke-opacity:1;stroke-miterlimit:3.239307;" d="M 173.769531 161.597656 L 166.449219 181.542969 L 147.351562 174.203125 L 153.609375 156.898438 Z M 173.769531 161.597656 " transform="matrix(1,0,0,1,-74,-13)"/>
<path style="fill-rule:nonzero;fill:rgb(39.99939%,39.99939%,39.99939%);fill-opacity:1;stroke-width:0.03;stroke-linecap:square;stroke-linejoin:miter;stroke:rgb(39.99939%,39.99939%,39.99939%);stroke-opacity:1;stroke-miterlimit:3.239307;" d="M 222.878906 172.921875 L 242.75 177.550781 L 232.117188 205.988281 L 213.121094 198.9375 Z M 222.878906 172.921875 " transform="matrix(1,0,0,1,-74,-13)"/>
<path style="fill-rule:nonzero;fill:rgb(39.99939%,39.99939%,39.99939%);fill-opacity:1;stroke-width:0.03;stroke-linecap:square;stroke-linejoin:miter;stroke:rgb(39.99939%,39.99939%,39.99939%);stroke-opacity:1;stroke-miterlimit:3.239307;" d="M 127.515625 223.511719 L 147.5 231.019531 L 145.292969 236.53125 L 125.429688 229.09375 Z M 127.515625 223.511719 " transform="matrix(1,0,0,1,-74,-13)"/>
<path style="fill-rule:nonzero;fill:rgb(39.99939%,39.99939%,39.99939%);fill-opacity:1;stroke-width:0.03;stroke-linecap:square;stroke-linejoin:miter;stroke:rgb(39.99939%,39.99939%,39.99939%);stroke-opacity:1;stroke-miterlimit:3.239307;" d="M 217.859375 257.179688 L 236.261719 264.125 L 234.128906 269.277344 L 215.769531 262.457031 Z M 217.859375 257.179688 " transform="matrix(1,0,0,1,-74,-13)"/>
<path style="fill-rule:nonzero;fill:rgb(39.99939%,39.99939%,39.99939%);fill-opacity:1;stroke-width:0.03;stroke-linecap:square;stroke-linejoin:miter;stroke:rgb(39.99939%,39.99939%,39.99939%);stroke-opacity:1;stroke-miterlimit:3.239307;" d="M 150.332031 232.402344 L 170.132812 239.820312 L 168.164062 245.304688 L 148.316406 237.984375 Z M 150.332031 232.402344 " transform="matrix(1,0,0,1,-74,-13)"/>
<path style="fill-rule:nonzero;fill:rgb(39.99939%,39.99939%,39.99939%);fill-opacity:1;stroke-width:0.03;stroke-linecap:square;stroke-linejoin:miter;stroke:rgb(39.99939%,39.99939%,39.99939%);stroke-opacity:1;stroke-miterlimit:3.239307;" d="M 173.25 240.804688 L 192.636719 248.074219 L 190.59375 253.457031 L 171.09375 246.207031 Z M 173.25 240.804688 " transform="matrix(1,0,0,1,-74,-13)"/>
<path style="fill-rule:nonzero;fill:rgb(39.99939%,39.99939%,39.99939%);fill-opacity:1;stroke-width:0.03;stroke-linecap:square;stroke-linejoin:miter;stroke:rgb(39.99939%,39.99939%,39.99939%);stroke-opacity:1;stroke-miterlimit:3.239307;" d="M 195.050781 249.039062 L 214.117188 256.222656 L 212.03125 261.480469 L 192.964844 254.394531 Z M 195.050781 249.039062 " transform="matrix(1,0,0,1,-74,-13)"/>
<path style="fill-rule:nonzero;fill:rgb(39.99939%,39.99939%,39.99939%);fill-opacity:1;stroke-width:0.03;stroke-linecap:square;stroke-linejoin:miter;stroke:rgb(39.99939%,39.99939%,39.99939%);stroke-opacity:1;stroke-miterlimit:3.239307;" d="M 246.835938 177.523438 L 266.28125 182 L 254.597656 214.164062 L 235.929688 207.183594 Z M 246.835938 177.523438 " transform="matrix(1,0,0,1,-74,-13)"/>
<path style="fill-rule:nonzero;fill:rgb(39.99939%,39.99939%,39.99939%);fill-opacity:1;stroke-width:0.03;stroke-linecap:square;stroke-linejoin:miter;stroke:rgb(39.99939%,39.99939%,39.99939%);stroke-opacity:1;stroke-miterlimit:3.239307;" d="M 255.796875 219.105469 L 275.539062 226.507812 L 259.617188 269.953125 L 239.972656 262.519531 Z M 255.796875 219.105469 " transform="matrix(1,0,0,1,-74,-13)"/>
<path style="fill-rule:nonzero;fill:rgb(39.99939%,39.99939%,39.99939%);fill-opacity:1;stroke-width:0.03;stroke-linecap:square;stroke-linejoin:miter;stroke:rgb(39.99939%,39.99939%,39.99939%);stroke-opacity:1;stroke-miterlimit:3.239307;" d="M 238.445312 264.925781 L 258.203125 272.386719 L 256.246094 277.519531 L 236.378906 270.140625 Z M 238.445312 264.925781 " transform="matrix(1,0,0,1,-74,-13)"/>
<path style="fill-rule:nonzero;fill:rgb(39.99939%,39.99939%,39.99939%);fill-opacity:1;stroke-width:0.03;stroke-linecap:square;stroke-linejoin:miter;stroke:rgb(39.99939%,39.99939%,39.99939%);stroke-opacity:1;stroke-miterlimit:3.239307;" d="M 315.632812 193.085938 L 334.691406 197.746094 L 320.226562 238.804688 L 301.152344 231.679688 Z M 315.632812 193.085938 " transform="matrix(1,0,0,1,-74,-13)"/>
<path style="fill-rule:nonzero;fill:rgb(39.99939%,39.99939%,39.99939%);fill-opacity:1;stroke-width:0.03;stroke-linecap:square;stroke-linejoin:miter;stroke:rgb(39.99939%,39.99939%,39.99939%);stroke-opacity:1;stroke-miterlimit:3.239307;" d="M 338.207031 250.464844 L 350.359375 254.855469 L 334.285156 298.300781 L 322.472656 293.855469 Z M 338.207031 250.464844 " transform="matrix(1,0,0,1,-74,-13)"/>
<path style="fill-rule:nonzero;fill:rgb(39.99939%,39.99939%,39.99939%);fill-opacity:1;stroke-width:0.03;stroke-linecap:square;stroke-linejoin:miter;stroke:rgb(39.99939%,39.99939%,39.99939%);stroke-opacity:1;stroke-miterlimit:3.239307;" d="M 322.117188 243.625 L 333.585938 247.933594 L 317.726562 291.4375 L 306.503906 287.207031 Z M 322.117188 243.625 " transform="matrix(1,0,0,1,-74,-13)"/>
<path style="fill-rule:nonzero;fill:rgb(39.99939%,39.99939%,39.99939%);fill-opacity:1;stroke-width:0.03;stroke-linecap:square;stroke-linejoin:miter;stroke:rgb(39.99939%,39.99939%,39.99939%);stroke-opacity:1;stroke-miterlimit:3.239307;" d="M 338.574219 198.496094 L 350.917969 201.382812 L 335.957031 244.730469 L 323.472656 240.121094 Z M 338.574219 198.496094 " transform="matrix(1,0,0,1,-74,-13)"/>
<path style="fill-rule:nonzero;fill:rgb(39.99939%,39.99939%,39.99939%);fill-opacity:1;stroke-width:0.03;stroke-linecap:square;stroke-linejoin:miter;stroke:rgb(39.99939%,39.99939%,39.99939%);stroke-opacity:1;stroke-miterlimit:3.239307;" d="M 321.570312 296.25 L 333.679688 300.78125 L 331.59375 305.664062 L 319.613281 301.222656 Z M 321.570312 296.25 " transform="matrix(1,0,0,1,-74,-13)"/>
<path style="fill-rule:nonzero;fill:rgb(39.99939%,39.99939%,39.99939%);fill-opacity:1;stroke-width:0.03;stroke-linecap:square;stroke-linejoin:miter;stroke:rgb(39.99939%,39.99939%,39.99939%);stroke-opacity:1;stroke-miterlimit:3.239307;" d="M 375.421875 321.570312 L 374.984375 321.449219 L 375.535156 320.011719 Z M 375.421875 321.570312 " transform="matrix(1,0,0,1,-74,-13)"/>
<path style="fill-rule:nonzero;fill:rgb(39.99939%,39.99939%,39.99939%);fill-opacity:1;stroke-width:0.03;stroke-linecap:square;stroke-linejoin:miter;stroke:rgb(39.99939%,39.99939%,39.99939%);stroke-opacity:1;stroke-miterlimit:3.239307;" d="M 355.957031 202.507812 L 368.5 205.511719 L 351.738281 250.984375 L 339.277344 246.226562 Z M 355.957031 202.507812 " transform="matrix(1,0,0,1,-74,-13)"/>
<path style="fill-rule:nonzero;fill:rgb(39.99939%,39.99939%,39.99939%);fill-opacity:1;stroke-width:0.03;stroke-linecap:square;stroke-linejoin:miter;stroke:rgb(39.99939%,39.99939%,39.99939%);stroke-opacity:1;stroke-miterlimit:3.239307;" d="M 382.570312 213.507812 L 346.0625 310.9375 L 334.347656 306.683594 L 372.058594 204.632812 L 372.28125 204.027344 Z M 382.570312 213.507812 " transform="matrix(1,0,0,1,-74,-13)"/>
<path style=" stroke:none;fill-rule:evenodd;fill:rgb(85.096741%,85.096741%,81.959534%);fill-opacity:0.7;" d="M 356.90625 5 C 356.90625 1.3125 355.441406 -2.226562 352.832031 -4.832031 C 350.226562 -7.441406 346.6875 -8.90625 343 -8.90625 C 339.3125 -8.90625 335.773438 -7.441406 333.167969 -4.832031 C 330.558594 -2.226562 329.09375 1.3125 329.09375 5 C 329.09375 8.6875 330.558594 12.226562 333.167969 14.832031 C 335.773438 17.441406 339.3125 18.90625 343 18.90625 C 346.6875 18.90625 350.226562 17.441406 352.832031 14.832031 C 355.441406 12.226562 356.90625 8.6875 356.90625 5 Z M 356.90625 5 "/>
<path style=" stroke:none;fill-rule:evenodd;fill:rgb(85.096741%,85.096741%,81.959534%);fill-opacity:0.7;" d="M 110.90625 262 C 110.90625 258.3125 109.441406 254.773438 106.832031 252.167969 C 104.226562 249.558594 100.6875 248.09375 97 248.09375 C 93.3125 248.09375 89.773438 249.558594 87.167969 252.167969 C 84.558594 254.773438 83.09375 258.3125 83.09375 262 C 83.09375 265.6875 84.558594 269.226562 87.167969 271.832031 C 89.773438 274.441406 93.3125 275.90625 97 275.90625 C 100.6875 275.90625 104.226562 274.441406 106.832031 271.832031 C 109.441406 269.226562 110.90625 265.6875 110.90625 262 Z M 110.90625 262 "/>
<path style="fill-rule:nonzero;fill:rgb(99.998474%,99.998474%,30.587769%);fill-opacity:0.8;stroke-width:0.288;stroke-linecap:square;stroke-linejoin:miter;stroke:rgb(0%,0%,0%);stroke-opacity:0.8;stroke-miterlimit:3.25;" d="M 246.414062 273.304688 L 216.308594 325.453125 L 276.523438 325.453125 Z M 246.414062 273.304688 " transform="matrix(1,0,0,1,-74,-13)"/>
<path style="fill-rule:nonzero;fill:rgb(99.998474%,99.998474%,30.587769%);fill-opacity:0.8;stroke-width:0.288;stroke-linecap:square;stroke-linejoin:miter;stroke:rgb(0%,0%,0%);stroke-opacity:0.8;stroke-miterlimit:3.25;" d="M 249.890625 276.78125 L 219.785156 328.929688 L 280 328.929688 Z M 249.890625 276.78125 " transform="matrix(1,0,0,1,-74,-13)"/>
<path style="fill-rule:nonzero;fill:rgb(99.998474%,99.998474%,30.587769%);fill-opacity:0.8;stroke-width:0.288;stroke-linecap:square;stroke-linejoin:miter;stroke:rgb(0%,0%,0%);stroke-opacity:0.8;stroke-miterlimit:3.25;" d="M 378.523438 113.386719 L 348.414062 165.53125 L 408.632812 165.53125 Z M 378.523438 113.386719 " transform="matrix(1,0,0,1,-74,-13)"/>
</g>
</svg>
