<?xml version="1.0" encoding="UTF-8"?>
<svg xmlns="http://www.w3.org/2000/svg" xmlns:xlink="http://www.w3.org/1999/xlink" width="361pt" height="361pt" viewBox="0 0 361 361" version="1.1">
<defs>
<clipPath id="clip1">
  <path d="M 333 0 L 360 0 L 360 95 L 333 95 Z M 333 0 "/>
</clipPath>
<clipPath id="clip2">
  <path d="M 270 0 L 360 0 L 360 35 L 270 35 Z M 270 0 "/>
</clipPath>
<clipPath id="clip3">
  <path d="M 132 356 L 141 356 L 141 360 L 132 360 Z M 132 356 "/>
</clipPath>
<clipPath id="clip4">
  <path d="M 0 321 L 47 321 L 47 360 L 0 360 Z M 0 321 "/>
</clipPath>
<clipPath id="clip5">
  <path d="M 44 307 L 148 307 L 148 360 L 44 360 Z M 44 307 "/>
</clipPath>
<clipPath id="clip6">
  <path d="M 71 359 L 79 359 L 79 360 L 71 360 Z M 71 359 "/>
</clipPath>
<clipPath id="clip7">
  <path d="M 0 355 L 140 355 L 140 360 L 0 360 Z M 0 355 "/>
</clipPath>
<clipPath id="clip8">
  <path d="M 79 353 L 103 353 L 103 360 L 79 360 Z M 79 353 "/>
</clipPath>
<clipPath id="clip9">
  <path d="M 341 353 L 360 353 L 360 360 L 341 360 Z M 341 353 "/>
</clipPath>
<clipPath id="clip10">
  <path d="M 338 351 L 360 351 L 360 360 L 338 360 Z M 338 351 "/>
</clipPath>
<clipPath id="clip11">
  <path d="M 335 165 L 360 165 L 360 226 L 335 226 Z M 335 165 "/>
</clipPath>
<clipPath id="clip12">
  <path d="M 326 256 L 360 256 L 360 286 L 326 286 Z M 326 256 "/>
</clipPath>
<clipPath id="clip13">
  <path d="M 331 242 L 360 242 L 360 261 L 331 261 Z M 331 242 "/>
</clipPath>
<clipPath id="clip14">
  <path d="M 333 223 L 360 223 L 360 246 L 333 246 Z M 333 223 "/>
</clipPath>
<clipPath id="clip15">
  <path d="M 354 287 L 360 287 L 360 346 L 354 346 Z M 354 287 "/>
</clipPath>
<clipPath id="clip16">
  <path d="M 344 106 L 360 106 L 360 168 L 344 168 Z M 344 106 "/>
</clipPath>
<clipPath id="clip17">
  <path d="M 343 323 L 360 323 L 360 346 L 343 346 Z M 343 323 "/>
</clipPath>
<clipPath id="clip18">
  <path d="M 280 340 L 360 340 L 360 360 L 280 360 Z M 280 340 "/>
</clipPath>
<clipPath id="clip19">
  <path d="M 272 355 L 338 355 L 338 360 L 272 360 Z M 272 355 "/>
</clipPath>
<clipPath id="clip20">
  <path d="M 222 335 L 282 335 L 282 360 L 222 360 Z M 222 335 "/>
</clipPath>
<clipPath id="clip21">
  <path d="M 193 352 L 230 352 L 230 360 L 193 360 Z M 193 352 "/>
</clipPath>
<clipPath id="clip22">
  <path d="M 147 323 L 199 323 L 199 360 L 147 360 Z M 147 323 "/>
</clipPath>
<clipPath id="clip23">
  <path d="M 353 64 L 360 64 L 360 109 L 353 109 Z M 353 64 "/>
</clipPath>
<clipPath id="clip24">
  <path d="M 0 279 L 53 279 L 53 360 L 0 360 Z M 0 279 "/>
</clipPath>
<clipPath id="clip25">
  <path d="M 344 299 L 360 299 L 360 325 L 344 325 Z M 344 299 "/>
</clipPath>
<clipPath id="clip26">
  <path d="M 314 0 L 360 0 L 360 10 L 314 10 Z M 314 0 "/>
</clipPath>
<clipPath id="clip27">
  <path d="M 313 0 L 360 0 L 360 11 L 313 11 Z M 313 0 "/>
</clipPath>
<clipPath id="clip28">
  <path d="M 324 0 L 360 0 L 360 25 L 324 25 Z M 324 0 "/>
</clipPath>
<clipPath id="clip29">
  <path d="M 322 0 L 360 0 L 360 27 L 322 27 Z M 322 0 "/>
</clipPath>
<clipPath id="clip30">
  <path d="M 321 0 L 360 0 L 360 22 L 321 22 Z M 321 0 "/>
</clipPath>
<clipPath id="clip31">
  <path d="M 319 0 L 360 0 L 360 24 L 319 24 Z M 319 0 "/>
</clipPath>
</defs>
<g id="surface623">
<path style="fill-rule:nonzero;fill:rgb(0%,0%,0%);fill-opacity:1;stroke-width:0.03;stroke-linecap:square;stroke-linejoin:miter;stroke:rgb(0%,0%,0%);stroke-opacity:1;stroke-miterlimit:10;" d="M 0 178 L 360 178 L 360 -182 L 0 -182 Z M 0 178 " transform="matrix(1,0,0,1,0,182)"/>
<path style=" stroke:none;fill-rule:nonzero;fill:rgb(39.99939%,39.99939%,39.99939%);fill-opacity:0.3;" d="M 300.554688 -29.675781 L 320.726562 -28.007812 L 332.03125 -29.199219 L 336.480469 -14.429688 L 338.847656 -8.707031 L 343.046875 1.453125 L 345.648438 4.261719 L 347.113281 5.726562 L 348.164062 9.300781 L 350.683594 13.976562 L 351.683594 17.609375 L 336.835938 17.601562 L 325.089844 19.003906 L 322.050781 10.25 L 313.71875 10.058594 L 298.101562 17.199219 L 290.042969 2.34375 L 294.164062 -26.050781 Z M 300.554688 -29.675781 "/>
<path style=" stroke:none;fill-rule:nonzero;fill:rgb(39.99939%,39.99939%,39.99939%);fill-opacity:0.3;" d="M 298.714844 18.550781 L 314.941406 11.214844 L 321.648438 11.792969 L 324.625 20.050781 L 336.898438 18.414062 L 352.171875 18.351562 L 354.351562 22.882812 L 353.777344 33.570312 L 327.1875 54.582031 L 308.03125 50.445312 L 303.265625 49.300781 L 304.929688 30.464844 Z M 298.714844 18.550781 "/>
<path style=" stroke:none;fill-rule:nonzero;fill:rgb(39.99939%,39.99939%,39.99939%);fill-opacity:0.3;" d="M 288.71875 5.730469 L 290.054688 5.710938 L 303.089844 30.789062 L 301.222656 48.976562 L 300.394531 48.796875 L 281.960938 44.394531 Z M 288.71875 5.730469 "/>
<path style=" stroke:none;fill-rule:nonzero;fill:rgb(39.99939%,39.99939%,39.99939%);fill-opacity:0.3;" d="M 271.53125 -29.257812 L 292.140625 -26.238281 L 287.65625 2.191406 L 267.125 -1.140625 Z M 271.53125 -29.257812 "/>
<path style=" stroke:none;fill-rule:nonzero;fill:rgb(39.99939%,39.99939%,39.99939%);fill-opacity:0.3;" d="M 266.84375 0.417969 L 287.378906 3.675781 L 280.152344 43.960938 L 279.886719 43.898438 L 264.789062 40.710938 L 260.1875 39.625 Z M 266.84375 0.417969 "/>
<path style=" stroke:none;fill-rule:nonzero;fill:rgb(39.99939%,39.99939%,39.99939%);fill-opacity:0.3;" d="M 126.601562 12.488281 L 123.113281 36.1875 L 97.886719 7.800781 L 99.796875 7.066406 L 106.507812 7.671875 Z M 126.601562 12.488281 "/>
<path style=" stroke:none;fill-rule:nonzero;fill:rgb(39.99939%,39.99939%,39.99939%);fill-opacity:0.3;" d="M 159.230469 19.617188 L 151.75 70.148438 L 150.6875 70.851562 L 124.867188 37.097656 L 128.632812 12.828125 Z M 159.230469 19.617188 "/>
<path style=" stroke:none;fill-rule:nonzero;fill:rgb(39.99939%,39.99939%,39.99939%);fill-opacity:0.3;" d="M 161.015625 20.019531 L 192.003906 26.9375 L 183.359375 80.460938 L 155.539062 76.691406 L 152.671875 72.910156 Z M 161.015625 20.019531 "/>
<path style=" stroke:none;fill-rule:nonzero;fill:rgb(39.99939%,39.99939%,39.99939%);fill-opacity:0.3;" d="M 134.167969 -20.941406 L 153.28125 -17.625 L 147.707031 15.003906 L 128.890625 10.90625 Z M 134.167969 -20.941406 "/>
<path style=" stroke:none;fill-rule:nonzero;fill:rgb(39.99939%,39.99939%,39.99939%);fill-opacity:0.3;" d="M 91.152344 22.710938 L 91.570312 22.761719 L 89.898438 32.871094 Z M 91.152344 22.710938 "/>
<path style=" stroke:none;fill-rule:nonzero;fill:rgb(39.99939%,39.99939%,39.99939%);fill-opacity:0.3;" d="M 91.816406 20.5 L 91.734375 21.46875 L 91.3125 21.414062 L 91.367188 20.945312 Z M 91.816406 20.5 "/>
<path style=" stroke:none;fill-rule:nonzero;fill:rgb(39.99939%,39.99939%,39.99939%);fill-opacity:0.3;" d="M 89.96875 45.953125 L 93.785156 19.132812 L 119.492188 49.816406 Z M 89.96875 45.953125 "/>
<path style=" stroke:none;fill-rule:nonzero;fill:rgb(39.99939%,39.99939%,39.99939%);fill-opacity:0.3;" d="M 243.109375 -3.585938 L 265.183594 0.0585938 L 258.1875 39.28125 L 254.011719 38.351562 L 237.070312 34.441406 Z M 243.109375 -3.585938 "/>
<path style=" stroke:none;fill-rule:nonzero;fill:rgb(39.99939%,39.99939%,39.99939%);fill-opacity:0.3;" d="M 204.734375 -9.878906 L 219.5 -7.148438 L 213.167969 29.160156 L 198.53125 25.746094 Z M 204.734375 -9.878906 "/>
<path style=" stroke:none;fill-rule:nonzero;fill:rgb(39.99939%,39.99939%,39.99939%);fill-opacity:0.3;" d="M 221.640625 -6.738281 L 240.683594 -3.925781 L 234.945312 33.953125 L 234.289062 33.800781 L 230.980469 33.140625 L 215.5 29.714844 Z M 221.640625 -6.738281 "/>
<g clip-path="url(#clip1)" clip-rule="nonzero">
<path style=" stroke:none;fill-rule:nonzero;fill:rgb(39.99939%,39.99939%,39.99939%);fill-opacity:0.3;" d="M 411.441406 -6.828125 L 458.929688 25.320312 L 463.800781 30.460938 L 502.90625 90.21875 L 502.796875 91.191406 L 502.550781 92.121094 L 502.105469 92.984375 L 501.8125 93.378906 L 501.105469 94.066406 L 500.511719 94.453125 L 500.503906 94.457031 L 500.234375 94.394531 L 488.300781 91.640625 L 470.90625 88.132812 L 359.105469 62.324219 L 333.210938 56.136719 L 383.902344 15.898438 Z M 411.441406 -6.828125 "/>
</g>
<path style=" stroke:none;fill-rule:nonzero;fill:rgb(39.99939%,39.99939%,39.99939%);fill-opacity:0.3;" d="M 155.308594 -17.269531 L 177.304688 -14.007812 L 171.648438 19.871094 L 149.632812 15.402344 Z M 155.308594 -17.269531 "/>
<path style=" stroke:none;fill-rule:nonzero;fill:rgb(39.99939%,39.99939%,39.99939%);fill-opacity:0.3;" d="M 178.730469 -13.6875 L 199.195312 -10.640625 L 192.21875 24.441406 L 173.097656 20.332031 Z M 178.730469 -13.6875 "/>
<path style=" stroke:none;fill-rule:nonzero;fill:rgb(39.99939%,39.99939%,39.99939%);fill-opacity:0.3;" d="M 113.070312 -24.289062 L 132.371094 -21.167969 L 126.949219 10.449219 L 108.457031 6.113281 Z M 113.070312 -24.289062 "/>
<path style=" stroke:none;fill-rule:nonzero;fill:rgb(39.99939%,39.99939%,39.99939%);fill-opacity:0.3;" d="M 111.132812 -24.652344 L 106.28125 5.535156 L 105.878906 5.503906 L 111.003906 -24.671875 Z M 111.132812 -24.652344 "/>
<path style=" stroke:none;fill-rule:nonzero;fill:rgb(39.99939%,39.99939%,39.99939%);fill-opacity:0.3;" d="M 99.449219 5.027344 L 95.433594 4.726562 L 94.816406 3.933594 Z M 99.449219 5.027344 "/>
<path style=" stroke:none;fill-rule:nonzero;fill:rgb(39.99939%,39.99939%,39.99939%);fill-opacity:0.3;" d="M 183.191406 82.671875 L 182.003906 91.511719 L 179.53125 106.808594 L 157.398438 79.140625 Z M 183.191406 82.671875 "/>
<g clip-path="url(#clip2)" clip-rule="nonzero">
<path style=" stroke:none;fill-rule:nonzero;fill:rgb(39.99939%,39.99939%,39.99939%);fill-opacity:0.3;" d="M 305.789062 -83.960938 L 319.828125 -70.96875 L 361.789062 -41.410156 L 366.066406 -38.222656 L 382.984375 -26.675781 L 366.972656 -12.1875 L 366.671875 -10.320312 L 354.648438 -6.410156 L 354.777344 -5.925781 L 354.90625 -5.445312 L 367.515625 -9.304688 L 380.25 6.714844 L 381.4375 5.890625 L 385.3125 10.304688 L 356.375 34.171875 L 354.582031 33.664062 L 355.167969 23.109375 L 351.511719 13.886719 L 348.910156 9.164062 L 347.933594 5.476562 L 346.269531 3.640625 L 343.839844 0.984375 L 337.601562 -14.402344 L 333.855469 -26.777344 L 332.75 -30.421875 L 329.160156 -41.097656 L 327.675781 -41.058594 L 331.296875 -30.097656 L 320.480469 -28.78125 L 300.09375 -30.519531 L 294.089844 -27.199219 L 270.644531 -31.191406 L 275.480469 -73.945312 L 277.070312 -86.128906 L 289.460938 -76.175781 L 297.492188 -76.414062 L 299.53125 -81.429688 L 301.695312 -83.421875 L 301.183594 -85.089844 L 302.265625 -87.203125 Z M 305.789062 -83.960938 "/>
</g>
<path style=" stroke:none;fill-rule:nonzero;fill:rgb(39.99939%,39.99939%,39.99939%);fill-opacity:0.3;" d="M 125.3125 327.761719 L 131.371094 328.292969 L 130.742188 336.6875 L 124.347656 336.121094 Z M 125.3125 327.761719 "/>
<path style=" stroke:none;fill-rule:nonzero;fill:rgb(39.99939%,39.99939%,39.99939%);fill-opacity:0.3;" d="M 136.359375 333.6875 L 142.695312 334.304688 L 140.261719 356.058594 L 133.867188 355.492188 Z M 136.359375 333.6875 "/>
<g clip-path="url(#clip3)" clip-rule="nonzero">
<path style=" stroke:none;fill-rule:nonzero;fill:rgb(39.99939%,39.99939%,39.99939%);fill-opacity:0.3;" d="M 133.691406 356.511719 L 140.027344 357.277344 L 138.480469 369.027344 L 132.085938 368.230469 Z M 133.691406 356.511719 "/>
</g>
<path style=" stroke:none;fill-rule:nonzero;fill:rgb(39.99939%,39.99939%,39.99939%);fill-opacity:0.3;" d="M 130.714844 219.125 L 125.359375 253.640625 L 96.371094 249.992188 L 94.75 247.683594 Z M 130.714844 219.125 "/>
<path style=" stroke:none;fill-rule:nonzero;fill:rgb(39.99939%,39.99939%,39.99939%);fill-opacity:0.3;" d="M 155.367188 199.921875 L 165.152344 200.910156 L 156.488281 257.914062 L 127.371094 254.03125 L 132.453125 218.328125 Z M 155.367188 199.921875 "/>
<path style=" stroke:none;fill-rule:nonzero;fill:rgb(39.99939%,39.99939%,39.99939%);fill-opacity:0.3;" d="M 100.574219 192.5625 L 100.703125 192.582031 L 99.320312 201.71875 Z M 100.574219 192.5625 "/>
<path style=" stroke:none;fill-rule:nonzero;fill:rgb(39.99939%,39.99939%,39.99939%);fill-opacity:0.3;" d="M 102.835938 192.832031 L 133.878906 196.734375 L 130.859375 215.917969 L 95.351562 243.773438 Z M 102.835938 192.832031 "/>
<path style=" stroke:none;fill-rule:nonzero;fill:rgb(39.99939%,39.99939%,39.99939%);fill-opacity:0.3;" d="M 135.863281 197.105469 L 152.230469 199.09375 L 132.71875 215.117188 Z M 135.863281 197.105469 "/>
<path style=" stroke:none;fill-rule:nonzero;fill:rgb(39.99939%,39.99939%,39.99939%);fill-opacity:0.3;" d="M 94.070312 253.511719 L 95.785156 252.09375 L 125.070312 255.796875 L 116.847656 313.4375 L 85.859375 309.332031 Z M 94.070312 253.511719 "/>
<path style=" stroke:none;fill-rule:nonzero;fill:rgb(39.99939%,39.99939%,39.99939%);fill-opacity:0.3;" d="M 127.003906 256.054688 L 156.410156 260.0625 L 148.148438 317.515625 L 118.828125 313.804688 Z M 127.003906 256.054688 "/>
<g clip-path="url(#clip4)" clip-rule="nonzero">
<path style=" stroke:none;fill-rule:nonzero;fill:rgb(39.99939%,39.99939%,39.99939%);fill-opacity:0.3;" d="M 46.804688 326.980469 L 41.992188 363.726562 L -70.925781 349.769531 L -91.445312 321.78125 L -71.136719 347.796875 L -22.785156 354.835938 L 41.789062 362.484375 Z M 46.804688 326.980469 "/>
</g>
<g clip-path="url(#clip5)" clip-rule="nonzero">
<path style=" stroke:none;fill-rule:nonzero;fill:rgb(39.99939%,39.99939%,39.99939%);fill-opacity:0.3;" d="M 52.5 307.703125 L 84.386719 311.523438 L 117.542969 315.753906 L 147.964844 319.625 L 147.40625 324.277344 L 139.789062 373.757812 L 44.339844 364.054688 Z M 52.5 307.703125 "/>
</g>
<path style=" stroke:none;fill-rule:nonzero;fill:rgb(39.99939%,39.99939%,39.99939%);fill-opacity:0.3;" d="M 71.3125 351.558594 L 71.320312 357.9375 L 64.589844 357.945312 L 64.585938 351.566406 Z M 71.3125 351.558594 "/>
<g clip-path="url(#clip6)" clip-rule="nonzero">
<path style=" stroke:none;fill-rule:nonzero;fill:rgb(39.99939%,39.99939%,39.99939%);fill-opacity:0.3;" d="M 78.347656 359.207031 L 78.351562 365.585938 L 71.621094 365.589844 L 71.617188 359.210938 Z M 78.347656 359.207031 "/>
</g>
<path style=" stroke:none;fill-rule:nonzero;fill:rgb(39.99939%,39.99939%,39.99939%);fill-opacity:0.3;" d="M 83.941406 308.570312 L 83.882812 308.972656 L 51.367188 305.214844 L 51.429688 304.859375 L 54.03125 304.644531 Z M 83.941406 308.570312 "/>
<path style=" stroke:none;fill-rule:nonzero;fill:rgb(39.99939%,39.99939%,39.99939%);fill-opacity:0.3;" d="M 101.070312 190.523438 L 101.058594 190.597656 L 100.847656 190.566406 L 100.855469 190.492188 Z M 101.070312 190.523438 "/>
<g clip-path="url(#clip7)" clip-rule="nonzero">
<path style=" stroke:none;fill-rule:nonzero;fill:rgb(39.99939%,39.99939%,39.99939%);fill-opacity:0.3;" d="M -65.710938 355.164062 L 32.347656 367.292969 L 43.746094 368.703125 L 72.53125 372.144531 L 138.710938 378.824219 L 138.855469 379.140625 L 138.964844 379.46875 L 139.035156 379.804688 L 139.070312 380.148438 L 139.03125 380.804688 L 138.957031 381.140625 L 138.84375 381.46875 L 138.695312 381.785156 L 138.511719 382.082031 L 138.296875 382.363281 L 138.054688 382.617188 L 137.785156 382.847656 L 137.515625 383.035156 L 133.996094 384.546875 L 129.085938 385.988281 L 123.960938 386.78125 L 119.15625 387.945312 L 114.386719 390.664062 L 111.773438 393.773438 L 108.375 396.234375 L 103.574219 398.054688 L 53.699219 394.402344 L 38.167969 392.941406 L 33.40625 392.339844 L 29.121094 389.960938 L -12.414062 384.230469 L -25.699219 380.136719 L -39.054688 373.976562 L -53.140625 364.734375 L -59.714844 360.261719 Z M -65.710938 355.164062 "/>
</g>
<path style=" stroke:none;fill-rule:nonzero;fill:rgb(39.99939%,39.99939%,39.99939%);fill-opacity:0.3;" d="M 107.351562 353.144531 L 126.472656 354.945312 L 126.023438 359.816406 L 106.835938 358.03125 Z M 107.351562 353.144531 "/>
<g clip-path="url(#clip8)" clip-rule="nonzero">
<path style=" stroke:none;fill-rule:nonzero;fill:rgb(39.99939%,39.99939%,39.99939%);fill-opacity:0.3;" d="M 79.183594 358.210938 L 85.234375 356.320312 L 91.023438 354.796875 L 95.515625 353.941406 L 98.25 353.75 L 102.398438 353.816406 L 101.964844 363.671875 L 93.429688 364.164062 L 93.179688 361.40625 L 98.613281 360.960938 L 98.722656 356.890625 L 96.289062 356.984375 L 91.804688 357.621094 L 86.550781 359.042969 L 80.703125 360.964844 Z M 79.183594 358.210938 "/>
</g>
<g clip-path="url(#clip9)" clip-rule="nonzero">
<path style=" stroke:none;fill-rule:nonzero;fill:rgb(39.99939%,39.99939%,39.99939%);fill-opacity:0.3;" d="M 410.515625 429.371094 L 341.90625 388.046875 L 368.734375 353.855469 L 370.449219 353.234375 L 393.753906 374.117188 L 430.3125 399.347656 Z M 410.515625 429.371094 "/>
</g>
<g clip-path="url(#clip10)" clip-rule="nonzero">
<path style=" stroke:none;fill-rule:nonzero;fill:rgb(39.99939%,39.99939%,39.99939%);fill-opacity:0.3;" d="M 363.742188 351.691406 L 364.515625 351.792969 L 365.289062 354.226562 L 339.507812 386.871094 L 338.519531 386.597656 L 360.375 359.425781 L 363.742188 354.835938 Z M 363.742188 351.691406 "/>
</g>
<path style=" stroke:none;fill-rule:nonzero;fill:rgb(39.99939%,39.99939%,39.99939%);fill-opacity:0.3;" d="M 56.511719 42.980469 L 87.585938 47 L 86.195312 55.78125 L 84.355469 67.402344 L 53.550781 63.417969 L 55.226562 51.859375 Z M 56.511719 42.980469 "/>
<path style=" stroke:none;fill-rule:nonzero;fill:rgb(39.99939%,39.99939%,39.99939%);fill-opacity:0.3;" d="M 74.574219 44.34375 L 74.621094 43.988281 L 87.777344 45.667969 L 87.753906 45.8125 Z M 74.574219 44.34375 "/>
<path style=" stroke:none;fill-rule:nonzero;fill:rgb(39.99939%,39.99939%,39.99939%);fill-opacity:0.3;" d="M 73.5 44.210938 L 56.71875 41.789062 L 56.746094 41.609375 L 73.546875 43.847656 Z M 73.5 44.210938 "/>
<path style=" stroke:none;fill-rule:nonzero;fill:rgb(39.99939%,39.99939%,39.99939%);fill-opacity:0.3;" d="M 40.394531 40.765625 L 54.832031 42.632812 L 51.808594 62.578125 L 37.21875 60.480469 Z M 40.394531 40.765625 "/>
<path style=" stroke:none;fill-rule:nonzero;fill:rgb(39.99939%,39.99939%,39.99939%);fill-opacity:0.3;" d="M 117.796875 71.933594 L 86.882812 67.632812 L 89.96875 45.953125 L 119.492188 49.816406 L 120.84375 51.429688 Z M 117.796875 71.933594 "/>
<path style=" stroke:none;fill-rule:nonzero;fill:rgb(39.99939%,39.99939%,39.99939%);fill-opacity:0.3;" d="M 69.335938 67.574219 L 84.214844 69.617188 L 76.753906 127.324219 L 61.445312 125.335938 Z M 69.335938 67.574219 "/>
<path style=" stroke:none;fill-rule:nonzero;fill:rgb(39.99939%,39.99939%,39.99939%);fill-opacity:0.3;" d="M 53.535156 65.460938 L 67.898438 67.441406 L 60.285156 125.183594 L 45.582031 123.511719 Z M 53.535156 65.460938 "/>
<path style=" stroke:none;fill-rule:nonzero;fill:rgb(39.99939%,39.99939%,39.99939%);fill-opacity:0.3;" d="M 20.277344 59.914062 L 35.3125 62.265625 L 28.246094 108.300781 L 28.949219 108.3125 L 29.65625 108.324219 L 36.953125 62.429688 L 51.582031 64.761719 L 44 122.871094 L 12.25 118.699219 Z M 20.277344 59.914062 "/>
<path style=" stroke:none;fill-rule:nonzero;fill:rgb(39.99939%,39.99939%,39.99939%);fill-opacity:0.3;" d="M 55.183594 41.394531 L 55.167969 41.480469 L 40.722656 39.5625 L 40.800781 39.179688 Z M 55.183594 41.394531 "/>
<path style=" stroke:none;fill-rule:nonzero;fill:rgb(39.99939%,39.99939%,39.99939%);fill-opacity:0.3;" d="M 86.605469 69.929688 L 117.511719 73.949219 L 115.238281 90.417969 L 115.226562 90.511719 L 104.039062 89.527344 L 103.835938 90.910156 L 114.859375 92 L 113.113281 106.691406 L 97.761719 105.382812 L 97.648438 106.117188 L 97.539062 106.855469 L 112.882812 108.398438 L 111.875 115.207031 L 109.425781 131.425781 L 108.3125 131.3125 L 102.890625 130.625 L 103.3125 124.402344 L 102.796875 124.351562 L 102.28125 124.304688 L 101.628906 130.445312 L 78.984375 127.921875 Z M 86.605469 69.929688 "/>
<path style=" stroke:none;fill-rule:nonzero;fill:rgb(39.99939%,39.99939%,39.99939%);fill-opacity:0.3;" d="M 327.1875 54.582031 L 326.742188 54.933594 L 308.03125 50.445312 Z M 327.1875 54.582031 "/>
<path style=" stroke:none;fill-rule:nonzero;fill:rgb(39.99939%,39.99939%,39.99939%);fill-opacity:0.3;" d="M 301.222656 48.976562 L 301.21875 49.03125 L 281.910156 44.683594 L 281.960938 44.394531 L 300.394531 48.796875 Z M 301.222656 48.976562 "/>
<path style=" stroke:none;fill-rule:nonzero;fill:rgb(39.99939%,39.99939%,39.99939%);fill-opacity:0.3;" d="M 280.152344 43.960938 L 280.089844 44.320312 L 264.789062 40.710938 L 279.886719 43.898438 Z M 280.152344 43.960938 "/>
<path style=" stroke:none;fill-rule:nonzero;fill:rgb(39.99939%,39.99939%,39.99939%);fill-opacity:0.3;" d="M 281.746094 138.757812 L 283.429688 138.882812 L 283.28125 140.660156 L 284.753906 140.765625 L 284.902344 138.992188 L 286.585938 139.117188 L 286.15625 144.269531 L 284.472656 144.148438 L 284.621094 142.371094 L 283.148438 142.261719 L 283 144.039062 L 281.316406 143.914062 Z M 281.746094 138.757812 "/>
<path style=" stroke:none;fill-rule:nonzero;fill:rgb(39.99939%,39.99939%,39.99939%);fill-opacity:0.3;" d="M 270.398438 138.75 L 270.429688 138.367188 L 272.113281 138.496094 L 271.976562 140.105469 Z M 270.398438 138.75 "/>
<path style=" stroke:none;fill-rule:nonzero;fill:rgb(39.99939%,39.99939%,39.99939%);fill-opacity:0.3;" d="M 272.191406 140.289062 L 273.4375 140.382812 L 273.585938 138.609375 L 275.269531 138.734375 L 274.941406 142.648438 Z M 272.191406 140.289062 "/>
<path style=" stroke:none;fill-rule:nonzero;fill:rgb(39.99939%,39.99939%,39.99939%);fill-opacity:0.3;" d="M 276.539062 144.019531 L 277.996094 144.128906 L 277.910156 145.195312 Z M 276.539062 144.019531 "/>
<g clip-path="url(#clip11)" clip-rule="nonzero">
<path style=" stroke:none;fill-rule:nonzero;fill:rgb(39.99939%,39.99939%,39.99939%);fill-opacity:0.3;" d="M 344.296875 165.386719 L 375.808594 169.449219 L 366.390625 225.691406 L 335.898438 221.96875 Z M 344.296875 165.386719 "/>
</g>
<path style=" stroke:none;fill-rule:nonzero;fill:rgb(39.99939%,39.99939%,39.99939%);fill-opacity:0.3;" d="M 311.664062 160.84375 L 342.078125 165.121094 L 333.671875 221.679688 L 302.671875 217.285156 Z M 311.664062 160.84375 "/>
<path style=" stroke:none;fill-rule:nonzero;fill:rgb(39.99939%,39.99939%,39.99939%);fill-opacity:0.3;" d="M 270.402344 214.929688 L 282.480469 216.363281 L 281.34375 227.335938 L 280.132812 227.492188 Z M 270.402344 214.929688 "/>
<path style=" stroke:none;fill-rule:nonzero;fill:rgb(39.99939%,39.99939%,39.99939%);fill-opacity:0.3;" d="M 302.386719 219.117188 L 333.683594 223.6875 L 330.988281 241.230469 L 329.0625 256.273438 L 325.515625 275.359375 L 321.636719 277.285156 L 297.855469 248.5 Z M 302.386719 219.117188 "/>
<path style=" stroke:none;fill-rule:nonzero;fill:rgb(39.99939%,39.99939%,39.99939%);fill-opacity:0.3;" d="M 284.578125 216.613281 L 300.492188 218.742188 L 296.230469 244.855469 L 294.917969 245.355469 L 283.347656 231 Z M 284.578125 216.613281 "/>
<g clip-path="url(#clip12)" clip-rule="nonzero">
<path style=" stroke:none;fill-rule:nonzero;fill:rgb(39.99939%,39.99939%,39.99939%);fill-opacity:0.3;" d="M 331.011719 256.984375 L 361.707031 261.03125 L 358.09375 285.09375 L 326.832031 280.839844 Z M 331.011719 256.984375 "/>
</g>
<g clip-path="url(#clip13)" clip-rule="nonzero">
<path style=" stroke:none;fill-rule:nonzero;fill:rgb(39.99939%,39.99939%,39.99939%);fill-opacity:0.3;" d="M 332.902344 242 L 363.808594 246.257812 L 361.851562 260.175781 L 331.171875 256.101562 Z M 332.902344 242 "/>
</g>
<g clip-path="url(#clip14)" clip-rule="nonzero">
<path style=" stroke:none;fill-rule:nonzero;fill:rgb(39.99939%,39.99939%,39.99939%);fill-opacity:0.3;" d="M 335.597656 223.945312 L 366.09375 227.871094 L 363.90625 245.285156 L 333.035156 241.09375 Z M 335.597656 223.945312 "/>
</g>
<g clip-path="url(#clip15)" clip-rule="nonzero">
<path style=" stroke:none;fill-rule:nonzero;fill:rgb(39.99939%,39.99939%,39.99939%);fill-opacity:0.3;" d="M 375.007812 344.386719 L 354.550781 318.148438 L 359.835938 287.238281 L 390.585938 291.191406 L 382.707031 343.023438 L 382.308594 343.542969 L 381.929688 343.933594 L 381.511719 344.28125 L 381.054688 344.589844 L 380.566406 344.851562 L 380.054688 345.0625 L 379.519531 345.21875 L 378.972656 345.324219 L 378.417969 345.375 L 377.855469 345.371094 L 377.300781 345.3125 L 376.757812 345.195312 L 376.226562 345.027344 L 375.71875 344.808594 Z M 375.007812 344.386719 "/>
</g>
<path style=" stroke:none;fill-rule:nonzero;fill:rgb(39.99939%,39.99939%,39.99939%);fill-opacity:0.3;" d="M 327.433594 284.117188 L 328.542969 282.9375 L 357.8125 286.871094 L 353.285156 312.660156 L 350.6875 313.65625 Z M 327.433594 284.117188 "/>
<path style=" stroke:none;fill-rule:nonzero;fill:rgb(39.99939%,39.99939%,39.99939%);fill-opacity:0.3;" d="M 147.964844 319.625 L 148.121094 319.644531 L 147.40625 324.277344 Z M 147.964844 319.625 "/>
<path style=" stroke:none;fill-rule:nonzero;fill:rgb(39.99939%,39.99939%,39.99939%);fill-opacity:0.3;" d="M 306.613281 277.011719 L 306.117188 277.902344 L 293.816406 276.613281 L 294.035156 275.335938 Z M 306.613281 277.011719 "/>
<path style=" stroke:none;fill-rule:nonzero;fill:rgb(39.99939%,39.99939%,39.99939%);fill-opacity:0.3;" d="M 285.664062 95.933594 L 295.601562 97.917969 L 289.28125 154.957031 L 251.933594 122.902344 Z M 285.664062 95.933594 "/>
<path style=" stroke:none;fill-rule:nonzero;fill:rgb(39.99939%,39.99939%,39.99939%);fill-opacity:0.3;" d="M 282.839844 213.125 L 282.664062 214.703125 L 269.304688 212.894531 L 268.160156 211.554688 Z M 282.839844 213.125 "/>
<path style=" stroke:none;fill-rule:nonzero;fill:rgb(39.99939%,39.99939%,39.99939%);fill-opacity:0.3;" d="M 226.71875 34.828125 L 257.476562 41.429688 L 250.933594 90.332031 L 219.179688 85.640625 Z M 226.71875 34.828125 "/>
<path style=" stroke:none;fill-rule:nonzero;fill:rgb(39.99939%,39.99939%,39.99939%);fill-opacity:0.3;" d="M 299.9375 77.789062 L 302.617188 51.882812 L 325.613281 57.054688 Z M 299.9375 77.789062 "/>
<path style=" stroke:none;fill-rule:nonzero;fill:rgb(39.99939%,39.99939%,39.99939%);fill-opacity:0.3;" d="M 297.121094 98.152344 L 317.28125 100.554688 L 309.710938 158.589844 L 291.914062 155.984375 Z M 297.121094 98.152344 "/>
<path style=" stroke:none;fill-rule:nonzero;fill:rgb(39.99939%,39.99939%,39.99939%);fill-opacity:0.3;" d="M 351.027344 105.789062 L 342.460938 163.128906 L 312.117188 158.949219 L 319.027344 101.195312 Z M 351.027344 105.789062 "/>
<g clip-path="url(#clip16)" clip-rule="nonzero">
<path style=" stroke:none;fill-rule:nonzero;fill:rgb(39.99939%,39.99939%,39.99939%);fill-opacity:0.3;" d="M 384.257812 110.234375 L 376.039062 167.785156 L 344.523438 163.441406 L 352.910156 106.074219 Z M 384.257812 110.234375 "/>
</g>
<path style=" stroke:none;fill-rule:nonzero;fill:rgb(39.99939%,39.99939%,39.99939%);fill-opacity:0.3;" d="M 191.761719 262.671875 L 191.761719 262.679688 L 163.507812 258.972656 L 163.585938 258.445312 Z M 191.761719 262.671875 "/>
<path style=" stroke:none;fill-rule:nonzero;fill:rgb(39.99939%,39.99939%,39.99939%);fill-opacity:0.3;" d="M 163.234375 260.925781 L 191.386719 264.390625 L 183.105469 321.5625 L 155.488281 317.679688 Z M 163.234375 260.925781 "/>
<path style=" stroke:none;fill-rule:nonzero;fill:rgb(39.99939%,39.99939%,39.99939%);fill-opacity:0.3;" d="M 218.824219 312.707031 L 216.84375 326.179688 L 185.21875 321.945312 L 187.257812 309.714844 Z M 218.824219 312.707031 "/>
<path style=" stroke:none;fill-rule:nonzero;fill:rgb(39.99939%,39.99939%,39.99939%);fill-opacity:0.3;" d="M 227.082031 268.941406 L 258.324219 273.769531 L 254.367188 302.269531 L 222.777344 298.832031 Z M 227.082031 268.941406 "/>
<path style=" stroke:none;fill-rule:nonzero;fill:rgb(39.99939%,39.99939%,39.99939%);fill-opacity:0.3;" d="M 282.003906 334.964844 L 252.320312 331.460938 L 260.011719 273.984375 L 291.714844 278.375 Z M 282.003906 334.964844 "/>
<g clip-path="url(#clip17)" clip-rule="nonzero">
<path style=" stroke:none;fill-rule:nonzero;fill:rgb(39.99939%,39.99939%,39.99939%);fill-opacity:0.3;" d="M 346.402344 323.179688 L 361.640625 342.644531 L 359.828125 345.832031 L 343.171875 343.832031 L 344.414062 340.679688 L 346.222656 334.90625 L 346.644531 328.316406 Z M 346.402344 323.179688 "/>
</g>
<g clip-path="url(#clip18)" clip-rule="nonzero">
<path style=" stroke:none;fill-rule:nonzero;fill:rgb(39.99939%,39.99939%,39.99939%);fill-opacity:0.3;" d="M 336.128906 385.933594 L 280.972656 352.9375 L 282.984375 340.929688 L 363.742188 351.691406 L 363.742188 354.835938 L 360.375 359.425781 L 338.519531 386.597656 Z M 336.128906 385.933594 "/>
</g>
<g clip-path="url(#clip19)" clip-rule="nonzero">
<path style=" stroke:none;fill-rule:nonzero;fill:rgb(39.99939%,39.99939%,39.99939%);fill-opacity:0.3;" d="M 312.023438 418.667969 L 272.695312 408.636719 L 280.636719 355.070312 L 282.558594 355.457031 L 319.980469 378.34375 L 318.160156 381.21875 L 337.003906 388.457031 Z M 312.023438 418.667969 "/>
</g>
<g clip-path="url(#clip20)" clip-rule="nonzero">
<path style=" stroke:none;fill-rule:nonzero;fill:rgb(39.99939%,39.99939%,39.99939%);fill-opacity:0.3;" d="M 239.3125 335.46875 L 281.253906 340.527344 L 270.984375 408.285156 L 222.40625 395.257812 Z M 239.3125 335.46875 "/>
</g>
<g clip-path="url(#clip21)" clip-rule="nonzero">
<path style=" stroke:none;fill-rule:nonzero;fill:rgb(39.99939%,39.99939%,39.99939%);fill-opacity:0.3;" d="M 229.742188 360.992188 L 220.550781 394.902344 L 193.222656 387.648438 L 198.320312 352.226562 Z M 229.742188 360.992188 "/>
</g>
<path style=" stroke:none;fill-rule:nonzero;fill:rgb(39.99939%,39.99939%,39.99939%);fill-opacity:0.3;" d="M 236.960938 335.128906 L 230.570312 359.113281 L 198.632812 350.433594 L 201.199219 330.015625 Z M 236.960938 335.128906 "/>
<g clip-path="url(#clip22)" clip-rule="nonzero">
<path style=" stroke:none;fill-rule:nonzero;fill:rgb(39.99939%,39.99939%,39.99939%);fill-opacity:0.3;" d="M 198.957031 329.734375 L 191.132812 387.148438 L 147.679688 377.179688 L 147.074219 373.488281 L 154.285156 323.195312 Z M 198.957031 329.734375 "/>
</g>
<path style=" stroke:none;fill-rule:nonzero;fill:rgb(39.99939%,39.99939%,39.99939%);fill-opacity:0.3;" d="M 254.011719 38.351562 L 237.050781 34.574219 L 237.070312 34.441406 Z M 254.011719 38.351562 "/>
<path style=" stroke:none;fill-rule:nonzero;fill:rgb(39.99939%,39.99939%,39.99939%);fill-opacity:0.3;" d="M 234.945312 33.953125 L 234.9375 34.011719 L 230.980469 33.140625 L 234.289062 33.800781 Z M 234.945312 33.953125 "/>
<path style=" stroke:none;fill-rule:nonzero;fill:rgb(39.99939%,39.99939%,39.99939%);fill-opacity:0.3;" d="M 322.574219 65.882812 L 317.773438 98.683594 L 298.046875 96.289062 L 299.566406 84.980469 Z M 322.574219 65.882812 "/>
<path style=" stroke:none;fill-rule:nonzero;fill:rgb(39.99939%,39.99939%,39.99939%);fill-opacity:0.3;" d="M 287.519531 94.628906 L 297.425781 86.519531 L 296.035156 96.414062 Z M 287.519531 94.628906 "/>
<g clip-path="url(#clip23)" clip-rule="nonzero">
<path style=" stroke:none;fill-rule:nonzero;fill:rgb(39.99939%,39.99939%,39.99939%);fill-opacity:0.3;" d="M 358.972656 64.699219 L 389.703125 71.398438 L 384.503906 108.128906 L 353.355469 104.015625 Z M 358.972656 64.699219 "/>
</g>
<path style=" stroke:none;fill-rule:nonzero;fill:rgb(39.99939%,39.99939%,39.99939%);fill-opacity:0.3;" d="M 328.015625 61.574219 L 331.707031 58.34375 L 356.976562 64.207031 L 354.789062 78.339844 L 326.984375 74.636719 Z M 328.015625 61.574219 "/>
<path style=" stroke:none;fill-rule:nonzero;fill:rgb(39.99939%,39.99939%,39.99939%);fill-opacity:0.3;" d="M 326.757812 76.167969 L 354.667969 79.957031 L 351.160156 103.699219 L 323.933594 99.644531 Z M 326.757812 76.167969 "/>
<path style=" stroke:none;fill-rule:nonzero;fill:rgb(39.99939%,39.99939%,39.99939%);fill-opacity:0.3;" d="M 264.371094 70.046875 L 264.578125 69.449219 L 264.679688 68.554688 L 264.464844 67.5625 L 264.042969 66.765625 L 263.519531 66.269531 L 262.996094 65.476562 L 263.929688 63.6875 L 265.285156 63.386719 L 266.125 64.578125 L 264.875 65.277344 L 265.71875 67.859375 L 266.347656 67.460938 L 265.710938 65.472656 L 267.171875 65.074219 L 265.910156 62.988281 L 269.359375 62.390625 L 270.722656 63.78125 L 271.039062 65.273438 L 270.941406 66.761719 L 271.363281 67.457031 L 272.097656 68.550781 L 270.640625 69.945312 L 269.074219 70.640625 L 268.230469 68.253906 L 267.289062 68.453125 L 268.554688 70.9375 L 266.882812 71.535156 Z M 264.371094 70.046875 "/>
<path style=" stroke:none;fill-rule:nonzero;fill:rgb(39.99939%,39.99939%,39.99939%);fill-opacity:0.3;" d="M 265.007812 72.53125 L 266.46875 71.832031 L 268.664062 72.527344 L 269.292969 73.324219 L 269.296875 74.316406 L 269.617188 76.007812 L 269.722656 76.40625 L 270.5625 76.800781 L 270.984375 77.695312 L 270.363281 79.785156 L 267.964844 80.582031 L 267.117188 78.09375 L 266.90625 77.199219 L 265.96875 77.597656 L 267.339844 80.679688 L 265.769531 80.582031 L 263.464844 79.390625 L 263.464844 78.792969 L 263.460938 77.898438 L 263.351562 76.804688 L 263.035156 76.109375 L 262.617188 75.613281 L 261.988281 75.117188 L 261.984375 74.421875 L 262.917969 72.828125 L 264.484375 72.53125 L 265.011719 73.921875 L 263.96875 74.617188 L 264.398438 77.101562 L 265.128906 77.003906 L 264.703125 74.816406 L 265.847656 74.21875 Z M 265.007812 72.53125 "/>
<path style=" stroke:none;fill-rule:nonzero;fill:rgb(39.99939%,39.99939%,39.99939%);fill-opacity:0.3;" d="M 270.902344 70.382812 L 272.535156 70.109375 L 273.179688 71.460938 L 272.117188 72.136719 L 272.550781 74.367188 L 273.402344 74.300781 L 272.683594 72.207031 L 273.960938 71.597656 L 273.03125 70.042969 L 275.085938 68.960938 L 277.078125 69.972656 L 277.652344 71.324219 L 277.730469 73.351562 L 278.019531 73.890625 L 278.589844 74.363281 L 279.730469 75.984375 L 275.972656 77.675781 L 275.328125 76.257812 L 274.824219 74.703125 L 274.042969 74.976562 L 274.332031 75.582031 L 275.476562 77.8125 L 273.558594 78.488281 L 273.488281 77.746094 L 272.492188 77.40625 L 271.777344 76.800781 L 271.277344 76.058594 L 271.34375 75.179688 L 271.414062 74.367188 L 271.199219 73.558594 L 270.269531 72.882812 L 269.84375 72.273438 Z M 270.902344 70.382812 "/>
<path style=" stroke:none;fill-rule:nonzero;fill:rgb(39.99939%,39.99939%,39.99939%);fill-opacity:0.3;" d="M 297.394531 79.378906 L 279.460938 93.4375 L 252.941406 90.542969 L 259.527344 41.820312 L 300.492188 51.269531 Z M 297.394531 79.378906 "/>
<path style=" stroke:none;fill-rule:nonzero;fill:rgb(39.99939%,39.99939%,39.99939%);fill-opacity:0.3;" d="M 205.617188 152.832031 L 207.105469 154.511719 L 206.949219 154.632812 Z M 205.617188 152.832031 "/>
<path style=" stroke:none;fill-rule:nonzero;fill:rgb(39.99939%,39.99939%,39.99939%);fill-opacity:0.3;" d="M 252.625 92.203125 L 278.296875 94.910156 L 248.511719 119.96875 L 248.300781 119.785156 Z M 252.625 92.203125 "/>
<path style=" stroke:none;fill-rule:nonzero;fill:rgb(39.99939%,39.99939%,39.99939%);fill-opacity:0.3;" d="M 189.507812 83.519531 L 217.132812 87.535156 L 208.667969 141.472656 L 185.023438 111.472656 Z M 189.507812 83.519531 "/>
<path style=" stroke:none;fill-rule:nonzero;fill:rgb(39.99939%,39.99939%,39.99939%);fill-opacity:0.3;" d="M 309.589844 160.464844 L 300.582031 216.996094 L 284.964844 214.859375 L 291.726562 157.785156 Z M 309.589844 160.464844 "/>
<path style=" stroke:none;fill-rule:nonzero;fill:rgb(39.99939%,39.99939%,39.99939%);fill-opacity:0.3;" d="M 182.003906 91.511719 L 179.886719 107.257812 L 179.53125 106.808594 Z M 182.003906 91.511719 "/>
<path style=" stroke:none;fill-rule:nonzero;fill:rgb(39.99939%,39.99939%,39.99939%);fill-opacity:0.3;" d="M 292.335938 275.109375 L 292.113281 276.398438 L 278.59375 274.554688 L 278.695312 273.394531 L 291.210938 274.957031 Z M 292.335938 275.109375 "/>
<path style=" stroke:none;fill-rule:nonzero;fill:rgb(39.99939%,39.99939%,39.99939%);fill-opacity:0.3;" d="M 277.128906 273.199219 L 277.039062 274.4375 L 260.300781 272.265625 L 260.378906 271.730469 L 276.523438 273.121094 Z M 277.128906 273.199219 "/>
<path style=" stroke:none;fill-rule:nonzero;fill:rgb(39.99939%,39.99939%,39.99939%);fill-opacity:0.3;" d="M 254.707031 212.15625 L 255.027344 212.195312 L 256.96875 214.921875 Z M 254.707031 212.15625 "/>
<path style=" stroke:none;fill-rule:nonzero;fill:rgb(39.99939%,39.99939%,39.99939%);fill-opacity:0.3;" d="M 258.683594 271.582031 L 258.628906 271.996094 L 240.234375 269.234375 Z M 258.683594 271.582031 "/>
<path style=" stroke:none;fill-rule:nonzero;fill:rgb(39.99939%,39.99939%,39.99939%);fill-opacity:0.3;" d="M 193.664062 264.8125 L 225.109375 268.625 L 222.585938 287.761719 L 206.390625 285.785156 L 206.320312 286.242188 L 206.246094 286.695312 L 222.585938 288.816406 L 221.152344 298.542969 L 203.980469 297.910156 L 203.933594 298.546875 L 203.890625 299.179688 L 220.949219 299.789062 L 219.214844 311.054688 L 187.347656 308.238281 Z M 193.664062 264.8125 "/>
<path style=" stroke:none;fill-rule:nonzero;fill:rgb(39.99939%,39.99939%,39.99939%);fill-opacity:0.3;" d="M 254.367188 303.363281 L 252.683594 314.785156 L 241.15625 313.71875 L 240.972656 314.308594 L 240.789062 314.902344 L 252.617188 315.953125 L 250.511719 331.238281 L 222.664062 327.289062 L 219.089844 324.554688 L 222.761719 299.957031 Z M 254.367188 303.363281 "/>
<path style=" stroke:none;fill-rule:nonzero;fill:rgb(39.99939%,39.99939%,39.99939%);fill-opacity:0.3;" d="M 293.492188 278.59375 L 310.804688 280.679688 L 331.90625 306.652344 L 327.855469 309.277344 L 329.214844 310.292969 L 330.578125 311.308594 L 333.941406 308.890625 L 343.753906 320.515625 L 344.566406 328.4375 L 343.984375 334.730469 L 342.414062 340.40625 L 340.359375 342.976562 L 283.839844 335.363281 Z M 293.492188 278.59375 "/>
<path style=" stroke:none;fill-rule:nonzero;fill:rgb(39.99939%,39.99939%,39.99939%);fill-opacity:0.3;" d="M 197.96875 28.34375 L 224.574219 34.34375 L 217.316406 85.347656 L 189.894531 81.472656 Z M 197.96875 28.34375 "/>
<path style=" stroke:none;fill-rule:nonzero;fill:rgb(39.99939%,39.99939%,39.99939%);fill-opacity:0.3;" d="M 218.832031 87.648438 L 250.671875 92.015625 L 248.945312 102.824219 L 246.46875 118.332031 L 236.289062 129.320312 L 214.566406 147.738281 L 210.746094 143.398438 L 217.148438 99.246094 Z M 218.832031 87.648438 "/>
<path style=" stroke:none;fill-rule:nonzero;fill:rgb(39.99939%,39.99939%,39.99939%);fill-opacity:0.3;" d="M 253.535156 181.207031 L 255.917969 181.382812 L 255.726562 183.710938 L 258.511719 183.917969 L 258.707031 181.589844 L 261.089844 181.765625 L 260.191406 192.546875 L 257.808594 192.371094 L 258.027344 189.765625 L 255.238281 189.558594 L 255.023438 192.164062 L 252.640625 191.988281 Z M 253.535156 181.207031 "/>
<path style=" stroke:none;fill-rule:nonzero;fill:rgb(39.99939%,39.99939%,39.99939%);fill-opacity:0.3;" d="M 248.527344 170.328125 L 250.207031 170.453125 L 250.0625 172.230469 L 251.535156 172.339844 L 251.683594 170.5625 L 253.367188 170.6875 L 252.9375 175.839844 L 251.253906 175.71875 L 251.402344 173.941406 L 249.929688 173.832031 L 249.78125 175.609375 L 248.097656 175.484375 Z M 248.527344 170.328125 "/>
<path style=" stroke:none;fill-rule:nonzero;fill:rgb(39.99939%,39.99939%,39.99939%);fill-opacity:0.3;" d="M 261.175781 165.910156 L 261.027344 167.6875 L 262.503906 167.796875 L 262.648438 166.019531 L 264.332031 166.144531 L 263.902344 171.300781 L 262.222656 171.175781 L 262.367188 169.398438 L 260.894531 169.289062 L 260.746094 171.066406 L 260.320312 176.222656 L 258.636719 176.097656 L 258.785156 174.320312 L 257.308594 174.210938 L 257.160156 175.988281 L 255.480469 175.863281 L 255.90625 170.707031 L 257.589844 170.832031 L 257.441406 172.609375 L 258.917969 172.71875 L 259.0625 170.941406 L 259.492188 165.785156 L 259.640625 164.011719 L 258.164062 163.902344 L 258.019531 165.675781 L 256.335938 165.554688 L 256.765625 160.398438 L 258.445312 160.523438 L 258.296875 162.296875 L 259.773438 162.40625 L 259.921875 160.632812 L 261.601562 160.753906 Z M 261.175781 165.910156 "/>
<path style=" stroke:none;fill-rule:nonzero;fill:rgb(39.99939%,39.99939%,39.99939%);fill-opacity:0.3;" d="M 280.160156 167.765625 L 279.730469 172.921875 L 279.585938 174.695312 L 281.058594 174.804688 L 281.207031 173.03125 L 282.890625 173.152344 L 282.460938 178.308594 L 280.777344 178.183594 L 280.925781 176.410156 L 279.449219 176.300781 L 279.304688 178.074219 L 278.875 183.230469 L 277.191406 183.105469 L 277.339844 181.332031 L 275.867188 181.222656 L 275.71875 182.996094 L 274.035156 182.875 L 274.464844 177.71875 L 276.144531 177.84375 L 276 179.617188 L 277.472656 179.726562 L 277.621094 177.953125 L 278.050781 172.796875 L 278.195312 171.019531 L 276.722656 170.910156 L 276.574219 172.6875 L 274.890625 172.5625 L 275.320312 167.40625 L 277.003906 167.53125 L 276.855469 169.308594 L 278.332031 169.417969 L 278.476562 167.640625 L 278.90625 162.488281 L 280.589844 162.609375 L 280.441406 164.386719 L 281.914062 164.496094 L 282.0625 162.71875 L 283.746094 162.84375 L 283.316406 168 L 281.632812 167.875 L 281.78125 166.097656 L 280.308594 165.988281 Z M 280.160156 167.765625 "/>
<path style=" stroke:none;fill-rule:nonzero;fill:rgb(39.99939%,39.99939%,39.99939%);fill-opacity:0.3;" d="M 264.859375 194.285156 L 267.242188 194.460938 L 267.050781 196.789062 L 269.835938 196.992188 L 270.03125 194.667969 L 272.414062 194.84375 L 271.515625 205.625 L 269.132812 205.449219 L 269.351562 202.84375 L 266.5625 202.636719 L 266.347656 205.242188 L 263.964844 205.066406 Z M 264.859375 194.285156 "/>
<path style=" stroke:none;fill-rule:nonzero;fill:rgb(39.99939%,39.99939%,39.99939%);fill-opacity:0.3;" d="M 256.9375 148.332031 L 259.320312 148.511719 L 259.125 150.835938 L 261.914062 151.042969 L 262.105469 148.714844 L 264.488281 148.890625 L 263.59375 159.671875 L 261.210938 159.496094 L 261.425781 156.890625 L 258.640625 156.6875 L 258.421875 159.292969 L 256.039062 159.113281 Z M 256.9375 148.332031 "/>
<path style=" stroke:none;fill-rule:nonzero;fill:rgb(39.99939%,39.99939%,39.99939%);fill-opacity:0.3;" d="M 269.769531 149.683594 L 272.152344 149.859375 L 271.957031 152.183594 L 274.746094 152.390625 L 274.9375 150.0625 L 277.320312 150.242188 L 276.425781 161.023438 L 274.042969 160.847656 L 274.257812 158.242188 L 271.472656 158.035156 L 271.257812 160.640625 L 268.875 160.464844 Z M 269.769531 149.683594 "/>
<path style=" stroke:none;fill-rule:nonzero;fill:rgb(39.99939%,39.99939%,39.99939%);fill-opacity:0.3;" d="M 267.6875 183.015625 L 269.796875 183.160156 L 269.605469 185.484375 L 271.347656 185.59375 L 271.542969 183.269531 L 273.5625 183.414062 L 272.664062 194.195312 L 270.648438 194.050781 L 270.863281 191.445312 L 269.121094 191.335938 L 268.902344 193.941406 L 266.792969 193.796875 Z M 267.6875 183.015625 "/>
<path style=" stroke:none;fill-rule:nonzero;fill:rgb(39.99939%,39.99939%,39.99939%);fill-opacity:0.3;" d="M 263.71875 142.800781 L 263.292969 147.957031 L 261.609375 147.832031 L 261.757812 146.054688 L 260.28125 145.949219 L 260.136719 147.722656 L 258.453125 147.597656 L 258.882812 142.445312 L 260.5625 142.566406 L 260.417969 144.34375 L 261.890625 144.453125 L 262.039062 142.675781 L 262.464844 137.523438 L 264.148438 137.644531 L 264 139.421875 L 265.476562 139.53125 L 265.625 137.753906 L 267.304688 137.878906 L 266.878906 143.035156 L 265.195312 142.910156 L 265.34375 141.132812 L 263.867188 141.027344 Z M 263.71875 142.800781 "/>
<path style=" stroke:none;fill-rule:nonzero;fill:rgb(39.99939%,39.99939%,39.99939%);fill-opacity:0.3;" d="M 273.15625 143.761719 L 273.304688 141.988281 L 271.832031 141.875 L 271.683594 143.652344 L 270 143.523438 L 270.398438 138.75 L 271.976562 140.105469 L 271.964844 140.273438 L 272.191406 140.289062 L 274.941406 142.648438 L 274.839844 143.890625 L 274.691406 145.664062 L 276.167969 145.777344 L 276.316406 144 L 276.539062 144.019531 L 277.910156 145.195312 L 277.570312 149.285156 L 275.886719 149.15625 L 276.035156 147.378906 L 274.558594 147.269531 L 274.410156 149.042969 L 272.730469 148.917969 Z M 273.15625 143.761719 "/>
<path style=" stroke:none;fill-rule:nonzero;fill:rgb(39.99939%,39.99939%,39.99939%);fill-opacity:0.3;" d="M 289.28125 154.957031 L 282.839844 213.125 L 268.160156 211.554688 L 216.589844 151.160156 L 251.933594 122.902344 Z M 289.28125 154.957031 "/>
<path style=" stroke:none;fill-rule:nonzero;fill:rgb(39.99939%,39.99939%,39.99939%);fill-opacity:0.3;" d="M 248.511719 119.96875 L 248.238281 120.199219 L 248.300781 119.785156 Z M 248.511719 119.96875 "/>
<path style=" stroke:none;fill-rule:nonzero;fill:rgb(39.99939%,39.99939%,39.99939%);fill-opacity:0.3;" d="M 246.46875 118.332031 L 246.03125 121.058594 L 236.289062 129.320312 Z M 246.46875 118.332031 "/>
<path style=" stroke:none;fill-rule:nonzero;fill:rgb(39.99939%,39.99939%,39.99939%);fill-opacity:0.3;" d="M 0.878906 179.269531 L -6.859375 233.761719 L -37.839844 229.996094 L -29.929688 175.394531 Z M 0.878906 179.269531 "/>
<path style=" stroke:none;fill-rule:nonzero;fill:rgb(39.99939%,39.99939%,39.99939%);fill-opacity:0.3;" d="M 2.734375 179.636719 L 16.976562 181.347656 L 8.613281 235.902344 L -4.738281 234.183594 Z M 2.734375 179.636719 "/>
<path style=" stroke:none;fill-rule:nonzero;fill:rgb(39.99939%,39.99939%,39.99939%);fill-opacity:0.3;" d="M 18.59375 181.53125 L 34.855469 183.589844 L 26.320312 238.285156 L 10.898438 236.15625 Z M 18.59375 181.53125 "/>
<path style=" stroke:none;fill-rule:nonzero;fill:rgb(39.99939%,39.99939%,39.99939%);fill-opacity:0.3;" d="M 36.34375 183.757812 L 50.953125 185.757812 L 43.097656 239.824219 L 42.402344 239.765625 L 36.054688 239.511719 L 28.28125 238.53125 Z M 36.34375 183.757812 "/>
<path style=" stroke:none;fill-rule:nonzero;fill:rgb(39.99939%,39.99939%,39.99939%);fill-opacity:0.3;" d="M 52.621094 185.96875 L 67.855469 187.863281 L 60.109375 241.265625 L 44.804688 239.96875 L 45.566406 235.164062 L 46.652344 235.273438 L 47.460938 228.828125 L 46.179688 228.625 Z M 52.621094 185.96875 "/>
<path style=" stroke:none;fill-rule:nonzero;fill:rgb(39.99939%,39.99939%,39.99939%);fill-opacity:0.3;" d="M 57.777344 184.703125 L 52.914062 184.050781 L 52.921875 183.996094 Z M 57.777344 184.703125 "/>
<path style=" stroke:none;fill-rule:nonzero;fill:rgb(39.99939%,39.99939%,39.99939%);fill-opacity:0.3;" d="M 51.25 183.753906 L 51.242188 183.800781 L 36.636719 182.03125 L 36.667969 181.828125 Z M 51.25 183.753906 "/>
<path style=" stroke:none;fill-rule:nonzero;fill:rgb(39.99939%,39.99939%,39.99939%);fill-opacity:0.3;" d="M 35.09375 181.621094 L 35.066406 181.808594 L 18.976562 179.757812 L 18.992188 179.644531 L 35.058594 181.617188 Z M 35.09375 181.621094 "/>
<path style=" stroke:none;fill-rule:nonzero;fill:rgb(39.99939%,39.99939%,39.99939%);fill-opacity:0.3;" d="M -6.394531 236.207031 L 9.519531 238.214844 L 26.179688 240.320312 L 20.097656 286.390625 L -47.539062 292.703125 L -38.359375 232.179688 Z M -6.394531 236.207031 "/>
<path style=" stroke:none;fill-rule:nonzero;fill:rgb(39.99939%,39.99939%,39.99939%);fill-opacity:0.3;" d="M 27.972656 240.53125 L 42.859375 242.503906 L 37.921875 283.089844 L 29.332031 285.320312 L 21.976562 286.152344 Z M 27.972656 240.53125 "/>
<path style=" stroke:none;fill-rule:nonzero;fill:rgb(39.99939%,39.99939%,39.99939%);fill-opacity:0.3;" d="M 44.152344 242.699219 L 59.566406 245.019531 L 59.289062 247.261719 L 54.339844 272.511719 L 53.882812 276.214844 L 48.347656 279.683594 L 39.453125 282.78125 Z M 44.152344 242.699219 "/>
<path style=" stroke:none;fill-rule:nonzero;fill:rgb(39.99939%,39.99939%,39.99939%);fill-opacity:0.3;" d="M 43.097656 239.824219 L 43.015625 240.386719 L 36.054688 239.511719 L 42.402344 239.765625 Z M 43.097656 239.824219 "/>
<path style=" stroke:none;fill-rule:nonzero;fill:rgb(39.99939%,39.99939%,39.99939%);fill-opacity:0.3;" d="M 60.109375 241.265625 L 59.875 242.890625 L 44.699219 240.628906 L 44.804688 239.96875 Z M 60.109375 241.265625 "/>
<g clip-path="url(#clip24)" clip-rule="nonzero">
<path style=" stroke:none;fill-rule:nonzero;fill:rgb(39.99939%,39.99939%,39.99939%);fill-opacity:0.3;" d="M 52.890625 280.527344 L 46.804688 326.980469 L 41.789062 362.484375 L -22.785156 354.835938 L -71.136719 347.796875 L -91.445312 321.78125 L -106.929688 300.664062 L -99.472656 299.976562 L -77.964844 298 L -47.753906 295.222656 L -4.914062 291.3125 L 21.0625 288.5 L 29.660156 287.566406 L 39.335938 285.082031 L 49.210938 281.316406 L 52.542969 279.671875 Z M 52.890625 280.527344 "/>
</g>
<path style=" stroke:none;fill-rule:nonzero;fill:rgb(39.99939%,39.99939%,39.99939%);fill-opacity:0.3;" d="M 59.289062 247.261719 L 55.859375 274.976562 L 53.882812 276.214844 L 54.339844 272.511719 Z M 59.289062 247.261719 "/>
<path style=" stroke:none;fill-rule:nonzero;fill:rgb(39.99939%,39.99939%,39.99939%);fill-opacity:0.3;" d="M 92.648438 245.75 L 91.164062 246.472656 L 86.125 246.289062 L 61.585938 243.125 L 69.667969 188.191406 L 100.574219 192.5625 L 99.320312 201.71875 Z M 92.648438 245.75 "/>
<path style=" stroke:none;fill-rule:nonzero;fill:rgb(39.99939%,39.99939%,39.99939%);fill-opacity:0.3;" d="M 61.15625 245.285156 L 88.21875 248.699219 L 57.589844 273.148438 Z M 61.15625 245.285156 "/>
<path style=" stroke:none;fill-rule:nonzero;fill:rgb(39.99939%,39.99939%,39.99939%);fill-opacity:0.3;" d="M 73.867188 291.296875 L 80.613281 291.976562 L 79.914062 296.976562 L 73.09375 296.359375 Z M 73.867188 291.296875 "/>
<path style=" stroke:none;fill-rule:nonzero;fill:rgb(39.99939%,39.99939%,39.99939%);fill-opacity:0.3;" d="M 77.027344 298.023438 L 82.789062 298.570312 L 82.019531 303.898438 L 76.230469 303.261719 Z M 77.027344 298.023438 "/>
<path style=" stroke:none;fill-rule:nonzero;fill:rgb(39.99939%,39.99939%,39.99939%);fill-opacity:0.3;" d="M 75.511719 279.128906 L 82.976562 280.003906 L 82.167969 285.609375 L 74.761719 284.792969 Z M 75.511719 279.128906 "/>
<path style=" stroke:none;fill-rule:nonzero;fill:rgb(39.99939%,39.99939%,39.99939%);fill-opacity:0.3;" d="M 78.984375 285.824219 L 85.457031 286.585938 L 84.746094 291.882812 L 78.183594 291.289062 Z M 78.984375 285.824219 "/>
<path style=" stroke:none;fill-rule:nonzero;fill:rgb(39.99939%,39.99939%,39.99939%);fill-opacity:0.3;" d="M 122.90625 53.765625 L 140.449219 74.421875 L 119.785156 72.207031 Z M 122.90625 53.765625 "/>
<path style=" stroke:none;fill-rule:nonzero;fill:rgb(39.99939%,39.99939%,39.99939%);fill-opacity:0.3;" d="M 117.847656 71.941406 L 117.796875 71.933594 L 120.84375 51.429688 L 121.363281 52.042969 Z M 117.847656 71.941406 "/>
<path style=" stroke:none;fill-rule:nonzero;fill:rgb(39.99939%,39.99939%,39.99939%);fill-opacity:0.3;" d="M 114.167969 114.53125 L 119.367188 74.191406 L 142.605469 76.742188 L 149.109375 85.488281 L 148.128906 94.003906 L 144.550781 117.96875 Z M 114.167969 114.53125 "/>
<path style=" stroke:none;fill-rule:nonzero;fill:rgb(39.99939%,39.99939%,39.99939%);fill-opacity:0.3;" d="M 112.105469 131.761719 L 113.941406 116.304688 L 144.136719 119.761719 L 142.617188 136.320312 Z M 112.105469 131.761719 "/>
<path style=" stroke:none;fill-rule:nonzero;fill:rgb(39.99939%,39.99939%,39.99939%);fill-opacity:0.3;" d="M 91.828125 253.410156 L 83.941406 308.570312 L 54.03125 304.644531 L 51.429688 304.859375 L 54.535156 287.175781 L 56.882812 281.917969 L 59.179688 277.84375 L 61.277344 274.957031 L 67.753906 268.1875 L 91.296875 250.976562 Z M 91.828125 253.410156 "/>
<path style=" stroke:none;fill-rule:nonzero;fill:rgb(39.99939%,39.99939%,39.99939%);fill-opacity:0.3;" d="M 117.511719 73.949219 L 117.515625 73.949219 L 115.277344 90.519531 L 115.226562 90.511719 L 115.238281 90.417969 Z M 117.511719 73.949219 "/>
<path style=" stroke:none;fill-rule:nonzero;fill:rgb(39.99939%,39.99939%,39.99939%);fill-opacity:0.3;" d="M 112.882812 108.398438 L 112.933594 108.402344 L 110.097656 131.539062 L 108.3125 131.3125 L 109.425781 131.425781 L 111.875 115.207031 Z M 112.882812 108.398438 "/>
<path style=" stroke:none;fill-rule:nonzero;fill:rgb(39.99939%,39.99939%,39.99939%);fill-opacity:0.3;" d="M 69.945312 186.1875 L 78.648438 129.847656 L 91.300781 131.160156 L 90.414062 136.5625 L 91.425781 136.785156 L 92.433594 137.007812 L 93.113281 131.382812 L 110.027344 133.449219 L 101.070312 190.523438 L 100.855469 190.492188 L 100.847656 190.566406 Z M 69.945312 186.1875 "/>
<path style=" stroke:none;fill-rule:nonzero;fill:rgb(39.99939%,39.99939%,39.99939%);fill-opacity:0.3;" d="M 112.027344 133.804688 L 142.417969 138.273438 L 138.289062 167.164062 L 134.171875 194.621094 L 103.109375 190.730469 L 106.003906 171.304688 L 119.175781 172.90625 L 119.265625 172.535156 L 119.355469 172.160156 L 106.113281 170.519531 Z M 112.027344 133.804688 "/>
<path style=" stroke:none;fill-rule:nonzero;fill:rgb(39.99939%,39.99939%,39.99939%);fill-opacity:0.3;" d="M 63 299.679688 L 75.621094 300.992188 L 75.035156 306.628906 L 62.195312 305.214844 Z M 63 299.679688 "/>
<path style=" stroke:none;fill-rule:nonzero;fill:rgb(39.99939%,39.99939%,39.99939%);fill-opacity:0.3;" d="M 53.726562 296.140625 L 60.359375 296.917969 L 59.777344 302.554688 L 52.976562 301.804688 Z M 53.726562 296.140625 "/>
<path style=" stroke:none;fill-rule:nonzero;fill:rgb(39.99939%,39.99939%,39.99939%);fill-opacity:0.3;" d="M 60.375 290.21875 L 67.011719 290.992188 L 66.425781 296.632812 L 59.625 295.882812 Z M 60.375 290.21875 "/>
<path style=" stroke:none;fill-rule:nonzero;fill:rgb(39.99939%,39.99939%,39.99939%);fill-opacity:0.3;" d="M 57.808594 283.257812 L 64.441406 284.035156 L 63.855469 289.675781 L 57.054688 288.921875 Z M 57.808594 283.257812 "/>
<path style=" stroke:none;fill-rule:nonzero;fill:rgb(39.99939%,39.99939%,39.99939%);fill-opacity:0.3;" d="M 62.335938 277.355469 L 68.96875 278.128906 L 68.386719 283.769531 L 61.585938 283.019531 Z M 62.335938 277.355469 "/>
<path style=" stroke:none;fill-rule:nonzero;fill:rgb(39.99939%,39.99939%,39.99939%);fill-opacity:0.3;" d="M 66.039062 271.75 L 72.671875 272.523438 L 72.085938 278.164062 L 65.289062 277.414062 Z M 66.039062 271.75 "/>
<path style=" stroke:none;fill-rule:nonzero;fill:rgb(39.99939%,39.99939%,39.99939%);fill-opacity:0.3;" d="M 80.347656 273.621094 L 87.8125 274.492188 L 87.003906 280.101562 L 79.597656 279.285156 Z M 80.347656 273.621094 "/>
<path style=" stroke:none;fill-rule:nonzero;fill:rgb(39.99939%,39.99939%,39.99939%);fill-opacity:0.3;" d="M 74.621094 43.988281 L 77.671875 21.0625 L 91.152344 22.710938 L 89.898438 32.871094 L 87.777344 45.667969 Z M 74.621094 43.988281 "/>
<path style=" stroke:none;fill-rule:nonzero;fill:rgb(39.99939%,39.99939%,39.99939%);fill-opacity:0.3;" d="M 56.746094 41.609375 L 60.433594 18.5625 L 76.550781 20.839844 L 73.546875 43.847656 Z M 56.746094 41.609375 "/>
<path style=" stroke:none;fill-rule:nonzero;fill:rgb(39.99939%,39.99939%,39.99939%);fill-opacity:0.3;" d="M 63.550781 -0.5 L 81.097656 3.707031 L 92.101562 17.0625 L 91.816406 20.5 L 91.367188 20.945312 L 91.3125 21.414062 L 60.597656 17.355469 Z M 63.550781 -0.5 "/>
<path style=" stroke:none;fill-rule:nonzero;fill:rgb(39.99939%,39.99939%,39.99939%);fill-opacity:0.3;" d="M 20.464844 57.640625 L 20.199219 57.59375 L 21.445312 48.640625 L 21.917969 48.726562 Z M 20.464844 57.640625 "/>
<path style=" stroke:none;fill-rule:nonzero;fill:rgb(39.99939%,39.99939%,39.99939%);fill-opacity:0.3;" d="M 35.511719 60.082031 L 28.605469 58.992188 L 21.78125 56.953125 L 23.261719 47.691406 L -11.050781 41.804688 L -8.3125 32.964844 L 39.007812 40.542969 Z M 35.511719 60.082031 "/>
<path style=" stroke:none;fill-rule:nonzero;fill:rgb(39.99939%,39.99939%,39.99939%);fill-opacity:0.3;" d="M -7.378906 -16.265625 L 62.085938 -0.859375 L 59.085938 17.214844 L 28.070312 13.371094 L 26.390625 23.9375 L 23.625 36.78125 L -7.90625 31.960938 L -2.039062 12.273438 L -9.332031 9.933594 L -10.46875 7.152344 Z M -7.378906 -16.265625 "/>
<path style=" stroke:none;fill-rule:nonzero;fill:rgb(39.99939%,39.99939%,39.99939%);fill-opacity:0.3;" d="M 29.382812 14.550781 L 58.8125 18.316406 L 55.183594 41.394531 L 40.800781 39.179688 L 43.242188 27.371094 L 41.53125 27.089844 L 39.199219 39.316406 L 24.925781 37.042969 L 28.007812 23.625 Z M 29.382812 14.550781 "/>
<path style=" stroke:none;fill-rule:nonzero;fill:rgb(39.99939%,39.99939%,39.99939%);fill-opacity:0.3;" d="M 105.878906 5.503906 L 99.449219 5.027344 L 94.816406 3.933594 L 67.957031 -30.328125 L 68.730469 -31.152344 L 111.003906 -24.671875 Z M 105.878906 5.503906 "/>
<path style=" stroke:none;fill-rule:nonzero;fill:rgb(39.99939%,39.99939%,39.99939%);fill-opacity:0.3;" d="M 296.203125 262.636719 L 307.074219 276.183594 L 306.613281 277.011719 L 294.035156 275.335938 Z M 296.203125 262.636719 "/>
<path style=" stroke:none;fill-rule:nonzero;fill:rgb(39.99939%,39.99939%,39.99939%);fill-opacity:0.3;" d="M 202.730469 205.417969 L 233.539062 209.410156 L 225.359375 266.960938 L 193.835938 262.949219 Z M 202.730469 205.417969 "/>
<path style=" stroke:none;fill-rule:nonzero;fill:rgb(39.99939%,39.99939%,39.99939%);fill-opacity:0.3;" d="M 171.980469 201.527344 L 200.726562 205.167969 L 191.761719 262.671875 L 163.585938 258.445312 Z M 171.980469 201.527344 "/>
<path style=" stroke:none;fill-rule:nonzero;fill:rgb(39.99939%,39.99939%,39.99939%);fill-opacity:0.3;" d="M 238.085938 193.207031 L 250.613281 208.03125 L 249.027344 209.714844 L 235.585938 208.058594 Z M 238.085938 193.207031 "/>
<path style=" stroke:none;fill-rule:nonzero;fill:rgb(39.99939%,39.99939%,39.99939%);fill-opacity:0.3;" d="M 149.109375 85.488281 L 149.351562 85.8125 L 148.128906 94.003906 Z M 149.109375 85.488281 "/>
<path style=" stroke:none;fill-rule:nonzero;fill:rgb(39.99939%,39.99939%,39.99939%);fill-opacity:0.3;" d="M 176.84375 119.371094 L 173.910156 140.21875 L 145.003906 136.605469 L 151.117188 87.988281 Z M 176.84375 119.371094 "/>
<path style=" stroke:none;fill-rule:nonzero;fill:rgb(39.99939%,39.99939%,39.99939%);fill-opacity:0.3;" d="M 157.078125 198.382812 L 167.097656 189.492188 L 165.230469 199.164062 Z M 157.078125 198.382812 "/>
<path style=" stroke:none;fill-rule:nonzero;fill:rgb(39.99939%,39.99939%,39.99939%);fill-opacity:0.3;" d="M 144.820312 138.582031 L 173.820312 142.0625 L 167.410156 186.324219 L 154.335938 197.273438 L 136.21875 195.011719 Z M 144.820312 138.582031 "/>
<path style=" stroke:none;fill-rule:nonzero;fill:rgb(39.99939%,39.99939%,39.99939%);fill-opacity:0.3;" d="M 202.9375 203.722656 L 209.445312 158.722656 L 236.648438 191.890625 L 233.722656 207.859375 Z M 202.9375 203.722656 "/>
<path style=" stroke:none;fill-rule:nonzero;fill:rgb(39.99939%,39.99939%,39.99939%);fill-opacity:0.3;" d="M 174.714844 185.265625 L 207.59375 158.234375 L 200.980469 203.460938 L 172.234375 199.808594 Z M 174.714844 185.265625 "/>
<path style=" stroke:none;fill-rule:nonzero;fill:rgb(39.99939%,39.99939%,39.99939%);fill-opacity:0.3;" d="M 181.203125 142.863281 L 198.554688 144.863281 L 205.617188 152.832031 L 206.949219 154.632812 L 175.363281 179.152344 Z M 181.203125 142.863281 "/>
<path style=" stroke:none;fill-rule:nonzero;fill:rgb(39.99939%,39.99939%,39.99939%);fill-opacity:0.3;" d="M 182.695312 125.144531 L 197.355469 143.136719 L 181.371094 141.195312 Z M 182.695312 125.144531 "/>
<path style=" stroke:none;fill-rule:nonzero;fill:rgb(39.99939%,39.99939%,39.99939%);fill-opacity:0.3;" d="M 281.199219 244.785156 L 294.773438 261.015625 L 292.335938 275.109375 L 291.210938 274.957031 L 278.695312 273.394531 Z M 281.199219 244.785156 "/>
<path style=" stroke:none;fill-rule:nonzero;fill:rgb(39.99939%,39.99939%,39.99939%);fill-opacity:0.3;" d="M 266.839844 227.910156 L 279.347656 243.148438 L 277.128906 273.199219 L 276.523438 273.121094 L 260.378906 271.730469 Z M 266.839844 227.910156 "/>
<path style=" stroke:none;fill-rule:nonzero;fill:rgb(39.99939%,39.99939%,39.99939%);fill-opacity:0.3;" d="M 235.40625 209.644531 L 254.707031 212.15625 L 256.96875 214.921875 L 264.683594 225.761719 L 258.683594 271.582031 L 240.234375 269.234375 L 227.285156 267.289062 Z M 235.40625 209.644531 "/>
<path style=" stroke:none;fill-rule:nonzero;fill:rgb(39.99939%,39.99939%,39.99939%);fill-opacity:0.3;" d="M 142.417969 138.273438 L 142.617188 138.304688 L 138.289062 167.164062 Z M 142.417969 138.273438 "/>
<path style=" stroke:none;fill-rule:nonzero;fill:rgb(39.99939%,39.99939%,39.99939%);fill-opacity:0.3;" d="M 20.199219 57.59375 L 7.234375 55.320312 L -13.210938 48.953125 L -11.285156 42.746094 L -9.847656 42.957031 L 21.445312 48.640625 Z M 20.199219 57.59375 "/>
<path style=" stroke:none;fill-rule:nonzero;fill:rgb(39.99939%,39.99939%,39.99939%);fill-opacity:0.3;" d="M 7.667969 56.792969 L 18.59375 59.074219 L 12.902344 100.125 L 3.542969 97.949219 Z M 7.667969 56.792969 "/>
<path style=" stroke:none;fill-rule:nonzero;fill:rgb(39.99939%,39.99939%,39.99939%);fill-opacity:0.3;" d="M 6.332031 56.363281 L 2.71875 91.800781 L 3.019531 93.726562 L 2.46875 97.855469 L -18.433594 92.96875 L -17.1875 84.519531 L -11.878906 83.195312 L -8.136719 62.164062 L -10.21875 61.730469 L -8.882812 51.816406 Z M 6.332031 56.363281 "/>
<path style=" stroke:none;fill-rule:nonzero;fill:rgb(39.99939%,39.99939%,39.99939%);fill-opacity:0.3;" d="M -8.628906 96.253906 L 12.761719 100.976562 L 10.242188 118.5 L 1.835938 117.707031 L 2.226562 108.386719 L 1.617188 108.371094 L 1.25 117.65625 L -10.238281 116.464844 Z M -8.628906 96.253906 "/>
<path style=" stroke:none;fill-rule:nonzero;fill:rgb(39.99939%,39.99939%,39.99939%);fill-opacity:0.3;" d="M 61.132812 127.621094 L 76.421875 129.507812 L 68.015625 186.078125 L 57.777344 184.703125 L 52.921875 183.996094 Z M 61.132812 127.621094 "/>
<path style=" stroke:none;fill-rule:nonzero;fill:rgb(39.99939%,39.99939%,39.99939%);fill-opacity:0.3;" d="M 45.488281 125.722656 L 59.5625 127.390625 L 51.25 183.753906 L 36.667969 181.828125 Z M 45.488281 125.722656 "/>
<path style=" stroke:none;fill-rule:nonzero;fill:rgb(39.99939%,39.99939%,39.99939%);fill-opacity:0.3;" d="M -29.660156 173.371094 L -21.324219 116.871094 L -14.105469 117.332031 L -16.519531 140.097656 L -16.0625 140.140625 L -15.601562 140.179688 L -13.296875 117.4375 L -6.917969 118.039062 L -8.949219 140.128906 L -8.523438 140.132812 L -8.101562 140.132812 L -6.253906 118.105469 L 0.582031 118.960938 L -3.453125 154.445312 L -3.023438 154.527344 L -2.59375 154.605469 L 1.476562 119.074219 L 10.042969 119.851562 L 1.1875 177.277344 Z M -29.660156 173.371094 "/>
<path style=" stroke:none;fill-rule:nonzero;fill:rgb(39.99939%,39.99939%,39.99939%);fill-opacity:0.3;" d="M 12.109375 120.191406 L 43.804688 124.371094 L 35.09375 181.621094 L 35.058594 181.617188 L 18.992188 179.644531 L 24 146.785156 L 23.34375 146.722656 L 22.691406 146.664062 L 17.21875 179.347656 L 3.105469 177.613281 Z M 12.109375 120.191406 "/>
<path style="fill-rule:nonzero;fill:rgb(39.99939%,39.99939%,39.99939%);fill-opacity:1;stroke-width:0.03;stroke-linecap:square;stroke-linejoin:miter;stroke:rgb(39.99939%,39.99939%,39.99939%);stroke-opacity:1;stroke-miterlimit:3.239307;" d="M 133.289062 260.261719 L 129.859375 287.976562 L 127.882812 289.214844 L 128.339844 285.511719 Z M 133.289062 260.261719 " transform="matrix(1,0,0,1,-74,-13)"/>
<path style="fill-rule:nonzero;fill:rgb(39.99939%,39.99939%,39.99939%);fill-opacity:1;stroke-width:0.03;stroke-linecap:square;stroke-linejoin:miter;stroke:rgb(39.99939%,39.99939%,39.99939%);stroke-opacity:1;stroke-miterlimit:3.239307;" d="M 166.648438 258.75 L 165.164062 259.472656 L 160.125 259.289062 L 135.585938 256.125 L 143.667969 201.191406 L 174.574219 205.5625 L 173.320312 214.71875 Z M 166.648438 258.75 " transform="matrix(1,0,0,1,-74,-13)"/>
<path style="fill-rule:nonzero;fill:rgb(39.99939%,39.99939%,39.99939%);fill-opacity:1;stroke-width:0.03;stroke-linecap:square;stroke-linejoin:miter;stroke:rgb(39.99939%,39.99939%,39.99939%);stroke-opacity:1;stroke-miterlimit:3.239307;" d="M 135.15625 258.285156 L 162.21875 261.699219 L 131.589844 286.148438 Z M 135.15625 258.285156 " transform="matrix(1,0,0,1,-74,-13)"/>
<path style="fill-rule:nonzero;fill:rgb(39.99939%,39.99939%,39.99939%);fill-opacity:1;stroke-width:0.03;stroke-linecap:square;stroke-linejoin:miter;stroke:rgb(39.99939%,39.99939%,39.99939%);stroke-opacity:1;stroke-miterlimit:3.239307;" d="M 147.867188 304.296875 L 154.613281 304.976562 L 153.914062 309.976562 L 147.09375 309.359375 Z M 147.867188 304.296875 " transform="matrix(1,0,0,1,-74,-13)"/>
<path style="fill-rule:nonzero;fill:rgb(39.99939%,39.99939%,39.99939%);fill-opacity:1;stroke-width:0.03;stroke-linecap:square;stroke-linejoin:miter;stroke:rgb(39.99939%,39.99939%,39.99939%);stroke-opacity:1;stroke-miterlimit:3.239307;" d="M 151.027344 311.023438 L 156.789062 311.570312 L 156.019531 316.898438 L 150.230469 316.261719 Z M 151.027344 311.023438 " transform="matrix(1,0,0,1,-74,-13)"/>
<path style="fill-rule:nonzero;fill:rgb(39.99939%,39.99939%,39.99939%);fill-opacity:1;stroke-width:0.03;stroke-linecap:square;stroke-linejoin:miter;stroke:rgb(39.99939%,39.99939%,39.99939%);stroke-opacity:1;stroke-miterlimit:3.239307;" d="M 149.511719 292.128906 L 156.976562 293.003906 L 156.167969 298.609375 L 148.761719 297.792969 Z M 149.511719 292.128906 " transform="matrix(1,0,0,1,-74,-13)"/>
<path style="fill-rule:nonzero;fill:rgb(39.99939%,39.99939%,39.99939%);fill-opacity:1;stroke-width:0.03;stroke-linecap:square;stroke-linejoin:miter;stroke:rgb(39.99939%,39.99939%,39.99939%);stroke-opacity:1;stroke-miterlimit:3.239307;" d="M 152.984375 298.824219 L 159.457031 299.585938 L 158.746094 304.882812 L 152.183594 304.289062 Z M 152.984375 298.824219 " transform="matrix(1,0,0,1,-74,-13)"/>
<path style="fill-rule:nonzero;fill:rgb(39.99939%,39.99939%,39.99939%);fill-opacity:1;stroke-width:0.03;stroke-linecap:square;stroke-linejoin:miter;stroke:rgb(39.99939%,39.99939%,39.99939%);stroke-opacity:1;stroke-miterlimit:3.239307;" d="M 196.90625 66.765625 L 214.449219 87.421875 L 193.785156 85.207031 Z M 196.90625 66.765625 " transform="matrix(1,0,0,1,-74,-13)"/>
<path style="fill-rule:nonzero;fill:rgb(39.99939%,39.99939%,39.99939%);fill-opacity:1;stroke-width:0.03;stroke-linecap:square;stroke-linejoin:miter;stroke:rgb(39.99939%,39.99939%,39.99939%);stroke-opacity:1;stroke-miterlimit:3.239307;" d="M 191.847656 84.941406 L 191.796875 84.933594 L 194.84375 64.429688 L 195.363281 65.042969 Z M 191.847656 84.941406 " transform="matrix(1,0,0,1,-74,-13)"/>
<path style="fill-rule:nonzero;fill:rgb(39.99939%,39.99939%,39.99939%);fill-opacity:1;stroke-width:0.03;stroke-linecap:square;stroke-linejoin:miter;stroke:rgb(39.99939%,39.99939%,39.99939%);stroke-opacity:1;stroke-miterlimit:3.239307;" d="M 188.167969 127.53125 L 193.367188 87.191406 L 216.605469 89.742188 L 223.109375 98.488281 L 222.128906 107.003906 L 218.550781 130.96875 Z M 188.167969 127.53125 " transform="matrix(1,0,0,1,-74,-13)"/>
<path style="fill-rule:nonzero;fill:rgb(39.99939%,39.99939%,39.99939%);fill-opacity:1;stroke-width:0.03;stroke-linecap:square;stroke-linejoin:miter;stroke:rgb(39.99939%,39.99939%,39.99939%);stroke-opacity:1;stroke-miterlimit:3.239307;" d="M 186.105469 144.761719 L 187.941406 129.304688 L 218.136719 132.761719 L 216.617188 149.320312 Z M 186.105469 144.761719 " transform="matrix(1,0,0,1,-74,-13)"/>
<path style="fill-rule:nonzero;fill:rgb(39.99939%,39.99939%,39.99939%);fill-opacity:1;stroke-width:0.03;stroke-linecap:square;stroke-linejoin:miter;stroke:rgb(39.99939%,39.99939%,39.99939%);stroke-opacity:1;stroke-miterlimit:3.239307;" d="M 165.828125 266.410156 L 157.941406 321.570312 L 128.03125 317.644531 L 125.429688 317.859375 L 128.535156 300.175781 L 130.882812 294.917969 L 133.179688 290.84375 L 135.277344 287.957031 L 141.753906 281.1875 L 165.296875 263.976562 Z M 165.828125 266.410156 " transform="matrix(1,0,0,1,-74,-13)"/>
<path style="fill-rule:nonzero;fill:rgb(39.99939%,39.99939%,39.99939%);fill-opacity:1;stroke-width:0.03;stroke-linecap:square;stroke-linejoin:miter;stroke:rgb(39.99939%,39.99939%,39.99939%);stroke-opacity:1;stroke-miterlimit:3.239307;" d="M 191.511719 86.949219 L 191.515625 86.949219 L 189.277344 103.519531 L 189.226562 103.511719 L 189.238281 103.417969 Z M 191.511719 86.949219 " transform="matrix(1,0,0,1,-74,-13)"/>
<path style="fill-rule:nonzero;fill:rgb(39.99939%,39.99939%,39.99939%);fill-opacity:1;stroke-width:0.03;stroke-linecap:square;stroke-linejoin:miter;stroke:rgb(39.99939%,39.99939%,39.99939%);stroke-opacity:1;stroke-miterlimit:3.239307;" d="M 186.882812 121.398438 L 186.933594 121.402344 L 184.097656 144.539062 L 182.3125 144.3125 L 183.425781 144.425781 L 185.875 128.207031 Z M 186.882812 121.398438 " transform="matrix(1,0,0,1,-74,-13)"/>
<path style="fill-rule:nonzero;fill:rgb(39.99939%,39.99939%,39.99939%);fill-opacity:1;stroke-width:0.03;stroke-linecap:square;stroke-linejoin:miter;stroke:rgb(39.99939%,39.99939%,39.99939%);stroke-opacity:1;stroke-miterlimit:3.239307;" d="M 143.945312 199.1875 L 152.648438 142.847656 L 165.300781 144.160156 L 164.414062 149.5625 L 165.425781 149.785156 L 166.433594 150.007812 L 167.113281 144.382812 L 184.027344 146.449219 L 175.070312 203.523438 L 174.855469 203.492188 L 174.847656 203.566406 Z M 143.945312 199.1875 " transform="matrix(1,0,0,1,-74,-13)"/>
<path style="fill-rule:nonzero;fill:rgb(39.99939%,39.99939%,39.99939%);fill-opacity:1;stroke-width:0.03;stroke-linecap:square;stroke-linejoin:miter;stroke:rgb(39.99939%,39.99939%,39.99939%);stroke-opacity:1;stroke-miterlimit:3.239307;" d="M 186.027344 146.804688 L 216.417969 151.273438 L 212.289062 180.164062 L 208.171875 207.621094 L 177.109375 203.730469 L 180.003906 184.304688 L 193.175781 185.90625 L 193.265625 185.535156 L 193.355469 185.160156 L 180.113281 183.519531 Z M 186.027344 146.804688 " transform="matrix(1,0,0,1,-74,-13)"/>
<path style="fill-rule:nonzero;fill:rgb(39.99939%,39.99939%,39.99939%);fill-opacity:1;stroke-width:0.03;stroke-linecap:square;stroke-linejoin:miter;stroke:rgb(39.99939%,39.99939%,39.99939%);stroke-opacity:1;stroke-miterlimit:3.239307;" d="M 137 312.679688 L 149.621094 313.992188 L 149.035156 319.628906 L 136.195312 318.214844 Z M 137 312.679688 " transform="matrix(1,0,0,1,-74,-13)"/>
<path style="fill-rule:nonzero;fill:rgb(39.99939%,39.99939%,39.99939%);fill-opacity:1;stroke-width:0.03;stroke-linecap:square;stroke-linejoin:miter;stroke:rgb(39.99939%,39.99939%,39.99939%);stroke-opacity:1;stroke-miterlimit:3.239307;" d="M 127.726562 309.140625 L 134.359375 309.917969 L 133.777344 315.554688 L 126.976562 314.804688 Z M 127.726562 309.140625 " transform="matrix(1,0,0,1,-74,-13)"/>
<path style="fill-rule:nonzero;fill:rgb(39.99939%,39.99939%,39.99939%);fill-opacity:1;stroke-width:0.03;stroke-linecap:square;stroke-linejoin:miter;stroke:rgb(39.99939%,39.99939%,39.99939%);stroke-opacity:1;stroke-miterlimit:3.239307;" d="M 134.375 303.21875 L 141.011719 303.992188 L 140.425781 309.632812 L 133.625 308.882812 Z M 134.375 303.21875 " transform="matrix(1,0,0,1,-74,-13)"/>
<path style="fill-rule:nonzero;fill:rgb(39.99939%,39.99939%,39.99939%);fill-opacity:1;stroke-width:0.03;stroke-linecap:square;stroke-linejoin:miter;stroke:rgb(39.99939%,39.99939%,39.99939%);stroke-opacity:1;stroke-miterlimit:3.239307;" d="M 131.808594 296.257812 L 138.441406 297.035156 L 137.855469 302.675781 L 131.054688 301.921875 Z M 131.808594 296.257812 " transform="matrix(1,0,0,1,-74,-13)"/>
<path style="fill-rule:nonzero;fill:rgb(39.99939%,39.99939%,39.99939%);fill-opacity:1;stroke-width:0.03;stroke-linecap:square;stroke-linejoin:miter;stroke:rgb(39.99939%,39.99939%,39.99939%);stroke-opacity:1;stroke-miterlimit:3.239307;" d="M 136.335938 290.355469 L 142.96875 291.128906 L 142.386719 296.769531 L 135.585938 296.019531 Z M 136.335938 290.355469 " transform="matrix(1,0,0,1,-74,-13)"/>
<path style="fill-rule:nonzero;fill:rgb(39.99939%,39.99939%,39.99939%);fill-opacity:1;stroke-width:0.03;stroke-linecap:square;stroke-linejoin:miter;stroke:rgb(39.99939%,39.99939%,39.99939%);stroke-opacity:1;stroke-miterlimit:3.239307;" d="M 140.039062 284.75 L 146.671875 285.523438 L 146.085938 291.164062 L 139.289062 290.414062 Z M 140.039062 284.75 " transform="matrix(1,0,0,1,-74,-13)"/>
<path style="fill-rule:nonzero;fill:rgb(39.99939%,39.99939%,39.99939%);fill-opacity:1;stroke-width:0.03;stroke-linecap:square;stroke-linejoin:miter;stroke:rgb(39.99939%,39.99939%,39.99939%);stroke-opacity:1;stroke-miterlimit:3.239307;" d="M 154.347656 286.621094 L 161.8125 287.492188 L 161.003906 293.101562 L 153.597656 292.285156 Z M 154.347656 286.621094 " transform="matrix(1,0,0,1,-74,-13)"/>
<path style=" stroke:none;fill-rule:evenodd;fill:rgb(85.096741%,85.096741%,81.959534%);fill-opacity:0.7;" d="M 57.242188 342 C 57.242188 338.753906 55.953125 335.640625 53.65625 333.34375 C 51.359375 331.046875 48.246094 329.757812 45 329.757812 C 41.753906 329.757812 38.640625 331.046875 36.34375 333.34375 C 34.046875 335.640625 32.757812 338.753906 32.757812 342 C 32.757812 345.246094 34.046875 348.359375 36.34375 350.65625 C 38.640625 352.953125 41.753906 354.242188 45 354.242188 C 48.246094 354.242188 51.359375 352.953125 53.65625 350.65625 C 55.953125 348.359375 57.242188 345.246094 57.242188 342 Z M 57.242188 342 "/>
<path style=" stroke:none;fill-rule:evenodd;fill:rgb(85.096741%,85.096741%,81.959534%);fill-opacity:0.7;" d="M 180.242188 315 C 180.242188 311.753906 178.953125 308.640625 176.65625 306.34375 C 174.359375 304.046875 171.246094 302.757812 168 302.757812 C 164.753906 302.757812 161.640625 304.046875 159.34375 306.34375 C 157.046875 308.640625 155.757812 311.753906 155.757812 315 C 155.757812 318.246094 157.046875 321.359375 159.34375 323.65625 C 161.640625 325.953125 164.753906 327.242188 168 327.242188 C 171.246094 327.242188 174.359375 325.953125 176.65625 323.65625 C 178.953125 321.359375 180.242188 318.246094 180.242188 315 Z M 180.242188 315 "/>
<path style=" stroke:none;fill-rule:evenodd;fill:rgb(85.096741%,85.096741%,81.959534%);fill-opacity:0.7;" d="M 177.242188 311 C 177.242188 307.753906 175.953125 304.640625 173.65625 302.34375 C 171.359375 300.046875 168.246094 298.757812 165 298.757812 C 161.753906 298.757812 158.640625 300.046875 156.34375 302.34375 C 154.046875 304.640625 152.757812 307.753906 152.757812 311 C 152.757812 314.246094 154.046875 317.359375 156.34375 319.65625 C 158.640625 321.953125 161.753906 323.242188 165 323.242188 C 168.246094 323.242188 171.359375 321.953125 173.65625 319.65625 C 175.953125 317.359375 177.242188 314.246094 177.242188 311 Z M 177.242188 311 "/>
<path style=" stroke:none;fill-rule:evenodd;fill:rgb(85.096741%,85.096741%,81.959534%);fill-opacity:0.7;" d="M 82.242188 297 C 82.242188 293.753906 80.953125 290.640625 78.65625 288.34375 C 76.359375 286.046875 73.246094 284.757812 70 284.757812 C 66.753906 284.757812 63.640625 286.046875 61.34375 288.34375 C 59.046875 290.640625 57.757812 293.753906 57.757812 297 C 57.757812 300.246094 59.046875 303.359375 61.34375 305.65625 C 63.640625 307.953125 66.753906 309.242188 70 309.242188 C 73.246094 309.242188 76.359375 307.953125 78.65625 305.65625 C 80.953125 303.359375 82.242188 300.246094 82.242188 297 Z M 82.242188 297 "/>
<path style=" stroke:none;fill-rule:evenodd;fill:rgb(85.096741%,85.096741%,81.959534%);fill-opacity:0.7;" d="M 149.242188 297 C 149.242188 293.753906 147.953125 290.640625 145.65625 288.34375 C 143.359375 286.046875 140.246094 284.757812 137 284.757812 C 133.753906 284.757812 130.640625 286.046875 128.34375 288.34375 C 126.046875 290.640625 124.757812 293.753906 124.757812 297 C 124.757812 300.246094 126.046875 303.359375 128.34375 305.65625 C 130.640625 307.953125 133.753906 309.242188 137 309.242188 C 140.246094 309.242188 143.359375 307.953125 145.65625 305.65625 C 147.953125 303.359375 149.242188 300.246094 149.242188 297 Z M 149.242188 297 "/>
<path style=" stroke:none;fill-rule:evenodd;fill:rgb(85.096741%,85.096741%,81.959534%);fill-opacity:0.7;" d="M 174.242188 295 C 174.242188 291.753906 172.953125 288.640625 170.65625 286.34375 C 168.359375 284.046875 165.246094 282.757812 162 282.757812 C 158.753906 282.757812 155.640625 284.046875 153.34375 286.34375 C 151.046875 288.640625 149.757812 291.753906 149.757812 295 C 149.757812 298.246094 151.046875 301.359375 153.34375 303.65625 C 155.640625 305.953125 158.753906 307.242188 162 307.242188 C 165.246094 307.242188 168.359375 305.953125 170.65625 303.65625 C 172.953125 301.359375 174.242188 298.246094 174.242188 295 Z M 174.242188 295 "/>
<path style=" stroke:none;fill-rule:evenodd;fill:rgb(85.096741%,85.096741%,81.959534%);fill-opacity:0.7;" d="M 342.242188 270 C 342.242188 266.753906 340.953125 263.640625 338.65625 261.34375 C 336.359375 259.046875 333.246094 257.757812 330 257.757812 C 326.753906 257.757812 323.640625 259.046875 321.34375 261.34375 C 319.046875 263.640625 317.757812 266.753906 317.757812 270 C 317.757812 273.246094 319.046875 276.359375 321.34375 278.65625 C 323.640625 280.953125 326.753906 282.242188 330 282.242188 C 333.246094 282.242188 336.359375 280.953125 338.65625 278.65625 C 340.953125 276.359375 342.242188 273.246094 342.242188 270 Z M 342.242188 270 "/>
<path style=" stroke:none;fill-rule:evenodd;fill:rgb(85.096741%,85.096741%,81.959534%);fill-opacity:0.7;" d="M 148.242188 263 C 148.242188 259.753906 146.953125 256.640625 144.65625 254.34375 C 142.359375 252.046875 139.246094 250.757812 136 250.757812 C 132.753906 250.757812 129.640625 252.046875 127.34375 254.34375 C 125.046875 256.640625 123.757812 259.753906 123.757812 263 C 123.757812 266.246094 125.046875 269.359375 127.34375 271.65625 C 129.640625 273.953125 132.753906 275.242188 136 275.242188 C 139.246094 275.242188 142.359375 273.953125 144.65625 271.65625 C 146.953125 269.359375 148.242188 266.246094 148.242188 263 Z M 148.242188 263 "/>
<path style=" stroke:none;fill-rule:evenodd;fill:rgb(85.096741%,85.096741%,81.959534%);fill-opacity:0.7;" d="M 208.242188 212 C 208.242188 208.753906 206.953125 205.640625 204.65625 203.34375 C 202.359375 201.046875 199.246094 199.757812 196 199.757812 C 192.753906 199.757812 189.640625 201.046875 187.34375 203.34375 C 185.046875 205.640625 183.757812 208.753906 183.757812 212 C 183.757812 215.246094 185.046875 218.359375 187.34375 220.65625 C 189.640625 222.953125 192.753906 224.242188 196 224.242188 C 199.246094 224.242188 202.359375 222.953125 204.65625 220.65625 C 206.953125 218.359375 208.242188 215.246094 208.242188 212 Z M 208.242188 212 "/>
<path style=" stroke:none;fill-rule:evenodd;fill:rgb(85.096741%,85.096741%,81.959534%);fill-opacity:0.7;" d="M 262.242188 183 C 262.242188 179.753906 260.953125 176.640625 258.65625 174.34375 C 256.359375 172.046875 253.246094 170.757812 250 170.757812 C 246.753906 170.757812 243.640625 172.046875 241.34375 174.34375 C 239.046875 176.640625 237.757812 179.753906 237.757812 183 C 237.757812 186.246094 239.046875 189.359375 241.34375 191.65625 C 243.640625 193.953125 246.753906 195.242188 250 195.242188 C 253.246094 195.242188 256.359375 193.953125 258.65625 191.65625 C 260.953125 189.359375 262.242188 186.246094 262.242188 183 Z M 262.242188 183 "/>
<path style=" stroke:none;fill-rule:evenodd;fill:rgb(85.096741%,85.096741%,81.959534%);fill-opacity:0.7;" d="M 189.242188 151 C 189.242188 147.753906 187.953125 144.640625 185.65625 142.34375 C 183.359375 140.046875 180.246094 138.757812 177 138.757812 C 173.753906 138.757812 170.640625 140.046875 168.34375 142.34375 C 166.046875 144.640625 164.757812 147.753906 164.757812 151 C 164.757812 154.246094 166.046875 157.359375 168.34375 159.65625 C 170.640625 161.953125 173.753906 163.242188 177 163.242188 C 180.246094 163.242188 183.359375 161.953125 185.65625 159.65625 C 187.953125 157.359375 189.242188 154.246094 189.242188 151 Z M 189.242188 151 "/>
<path style=" stroke:none;fill-rule:evenodd;fill:rgb(85.096741%,85.096741%,81.959534%);fill-opacity:0.7;" d="M 2.242188 73 C 2.242188 69.753906 0.953125 66.640625 -1.34375 64.34375 C -3.640625 62.046875 -6.753906 60.757812 -10 60.757812 C -13.246094 60.757812 -16.359375 62.046875 -18.65625 64.34375 C -20.953125 66.640625 -22.242188 69.753906 -22.242188 73 C -22.242188 76.246094 -20.953125 79.359375 -18.65625 81.65625 C -16.359375 83.953125 -13.246094 85.242188 -10 85.242188 C -6.753906 85.242188 -3.640625 83.953125 -1.34375 81.65625 C 0.953125 79.359375 2.242188 76.246094 2.242188 73 Z M 2.242188 73 "/>
<path style=" stroke:none;fill-rule:evenodd;fill:rgb(85.096741%,85.096741%,81.959534%);fill-opacity:0.7;" d="M 279.242188 67 C 279.242188 63.753906 277.953125 60.640625 275.65625 58.34375 C 273.359375 56.046875 270.246094 54.757812 267 54.757812 C 263.753906 54.757812 260.640625 56.046875 258.34375 58.34375 C 256.046875 60.640625 254.757812 63.753906 254.757812 67 C 254.757812 70.246094 256.046875 73.359375 258.34375 75.65625 C 260.640625 77.953125 263.753906 79.242188 267 79.242188 C 270.246094 79.242188 273.359375 77.953125 275.65625 75.65625 C 277.953125 73.359375 279.242188 70.246094 279.242188 67 Z M 279.242188 67 "/>
<path style=" stroke:none;fill-rule:evenodd;fill:rgb(85.096741%,85.096741%,81.959534%);fill-opacity:0.7;" d="M 268.242188 51 C 268.242188 47.753906 266.953125 44.640625 264.65625 42.34375 C 262.359375 40.046875 259.246094 38.757812 256 38.757812 C 252.753906 38.757812 249.640625 40.046875 247.34375 42.34375 C 245.046875 44.640625 243.757812 47.753906 243.757812 51 C 243.757812 54.246094 245.046875 57.359375 247.34375 59.65625 C 249.640625 61.953125 252.753906 63.242188 256 63.242188 C 259.246094 63.242188 262.359375 61.953125 264.65625 59.65625 C 266.953125 57.359375 268.242188 54.246094 268.242188 51 Z M 268.242188 51 "/>
<path style=" stroke:none;fill-rule:evenodd;fill:rgb(85.096741%,85.096741%,81.959534%);fill-opacity:0.7;" d="M 251.242188 23 C 251.242188 19.753906 249.953125 16.640625 247.65625 14.34375 C 245.359375 12.046875 242.246094 10.757812 239 10.757812 C 235.753906 10.757812 232.640625 12.046875 230.34375 14.34375 C 228.046875 16.640625 226.757812 19.753906 226.757812 23 C 226.757812 26.246094 228.046875 29.359375 230.34375 31.65625 C 232.640625 33.953125 235.753906 35.242188 239 35.242188 C 242.246094 35.242188 245.359375 33.953125 247.65625 31.65625 C 249.953125 29.359375 251.242188 26.246094 251.242188 23 Z M 251.242188 23 "/>
<path style=" stroke:none;fill-rule:evenodd;fill:rgb(85.096741%,85.096741%,81.959534%);fill-opacity:0.7;" d="M 359.242188 6 C 359.242188 2.753906 357.953125 -0.359375 355.65625 -2.65625 C 353.359375 -4.953125 350.246094 -6.242188 347 -6.242188 C 343.753906 -6.242188 340.640625 -4.953125 338.34375 -2.65625 C 336.046875 -0.359375 334.757812 2.753906 334.757812 6 C 334.757812 9.246094 336.046875 12.359375 338.34375 14.65625 C 340.640625 16.953125 343.753906 18.242188 347 18.242188 C 350.246094 18.242188 353.359375 16.953125 355.65625 14.65625 C 357.953125 12.359375 359.242188 9.246094 359.242188 6 Z M 359.242188 6 "/>
<path style=" stroke:none;fill-rule:evenodd;fill:rgb(85.096741%,85.096741%,81.959534%);fill-opacity:0.7;" d="M 358.242188 5 C 358.242188 1.753906 356.953125 -1.359375 354.65625 -3.65625 C 352.359375 -5.953125 349.246094 -7.242188 346 -7.242188 C 342.753906 -7.242188 339.640625 -5.953125 337.34375 -3.65625 C 335.046875 -1.359375 333.757812 1.753906 333.757812 5 C 333.757812 8.246094 335.046875 11.359375 337.34375 13.65625 C 339.640625 15.953125 342.753906 17.242188 346 17.242188 C 349.246094 17.242188 352.359375 15.953125 354.65625 13.65625 C 356.953125 11.359375 358.242188 8.246094 358.242188 5 Z M 358.242188 5 "/>
<g clip-path="url(#clip25)" clip-rule="nonzero">
<path style=" stroke:none;fill-rule:evenodd;fill:rgb(85.096741%,85.096741%,81.959534%);fill-opacity:0.7;" d="M 369.242188 312 C 369.242188 308.753906 367.953125 305.640625 365.65625 303.34375 C 363.359375 301.046875 360.246094 299.757812 357 299.757812 C 353.753906 299.757812 350.640625 301.046875 348.34375 303.34375 C 346.046875 305.640625 344.757812 308.753906 344.757812 312 C 344.757812 315.246094 346.046875 318.359375 348.34375 320.65625 C 350.640625 322.953125 353.753906 324.242188 357 324.242188 C 360.246094 324.242188 363.359375 322.953125 365.65625 320.65625 C 367.953125 318.359375 369.242188 315.246094 369.242188 312 Z M 369.242188 312 "/>
</g>
<g clip-path="url(#clip26)" clip-rule="nonzero">
<path style=" stroke:none;fill-rule:nonzero;fill:rgb(99.998474%,99.998474%,30.587769%);fill-opacity:0.8;" d="M 341.402344 -36.28125 L 314.898438 9.625 L 367.90625 9.625 Z M 341.402344 -36.28125 "/>
</g>
<g clip-path="url(#clip27)" clip-rule="nonzero">
<path style="fill:none;stroke-width:0.288;stroke-linecap:square;stroke-linejoin:miter;stroke:rgb(0%,0%,0%);stroke-opacity:0.8;stroke-miterlimit:3.25;" d="M 415.402344 -23.28125 L 388.898438 22.625 L 441.90625 22.625 Z M 415.402344 -23.28125 " transform="matrix(1,0,0,1,-74,-13)"/>
</g>
<g clip-path="url(#clip28)" clip-rule="nonzero">
<path style=" stroke:none;fill-rule:nonzero;fill:rgb(99.998474%,99.998474%,30.587769%);fill-opacity:0.8;" d="M 350.582031 -20.980469 L 324.078125 24.925781 L 377.085938 24.925781 Z M 350.582031 -20.980469 "/>
</g>
<g clip-path="url(#clip29)" clip-rule="nonzero">
<path style="fill:none;stroke-width:0.288;stroke-linecap:square;stroke-linejoin:miter;stroke:rgb(0%,0%,0%);stroke-opacity:0.8;stroke-miterlimit:3.25;" d="M 424.582031 -7.980469 L 398.078125 37.925781 L 451.085938 37.925781 Z M 424.582031 -7.980469 " transform="matrix(1,0,0,1,-74,-13)"/>
</g>
<g clip-path="url(#clip30)" clip-rule="nonzero">
<path style=" stroke:none;fill-rule:nonzero;fill:rgb(99.998474%,99.998474%,30.587769%);fill-opacity:0.8;" d="M 347.523438 -24.039062 L 321.019531 21.863281 L 374.027344 21.863281 Z M 347.523438 -24.039062 "/>
</g>
<g clip-path="url(#clip31)" clip-rule="nonzero">
<path style="fill:none;stroke-width:0.288;stroke-linecap:square;stroke-linejoin:miter;stroke:rgb(0%,0%,0%);stroke-opacity:0.8;stroke-miterlimit:3.25;" d="M 421.523438 -11.039062 L 395.019531 34.863281 L 448.027344 34.863281 Z M 421.523438 -11.039062 " transform="matrix(1,0,0,1,-74,-13)"/>
</g>
</g>
</svg>
