<?xml version="1.0" encoding="UTF-8"?>
<svg xmlns="http://www.w3.org/2000/svg" xmlns:xlink="http://www.w3.org/1999/xlink" width="361pt" height="361pt" viewBox="0 0 361 361" version="1.1">
<defs>
<clipPath id="clip1">
  <path d="M 0 198 L 97 198 L 97 360 L 0 360 Z M 0 198 "/>
</clipPath>
<clipPath id="clip2">
  <path d="M 351 269 L 360 269 L 360 323 L 351 323 Z M 351 269 "/>
</clipPath>
<clipPath id="clip3">
  <path d="M 283 237 L 360 237 L 360 360 L 283 360 Z M 283 237 "/>
</clipPath>
<clipPath id="clip4">
  <path d="M 118 337 L 142 337 L 142 360 L 118 360 Z M 118 337 "/>
</clipPath>
<clipPath id="clip5">
  <path d="M 63 255 L 203 255 L 203 360 L 63 360 Z M 63 255 "/>
</clipPath>
<clipPath id="clip6">
  <path d="M 120 0 L 360 0 L 360 352 L 120 352 Z M 120 0 "/>
</clipPath>
<clipPath id="clip7">
  <path d="M 349 0 L 360 0 L 360 43 L 349 43 Z M 349 0 "/>
</clipPath>
<clipPath id="clip8">
  <path d="M 160 0 L 360 0 L 360 169 L 160 169 Z M 160 0 "/>
</clipPath>
<clipPath id="clip9">
  <path d="M 162 306 L 360 306 L 360 360 L 162 360 Z M 162 306 "/>
</clipPath>
<clipPath id="clip10">
  <path d="M 176 323 L 220 323 L 220 360 L 176 360 Z M 176 323 "/>
</clipPath>
<clipPath id="clip11">
  <path d="M 237 346 L 280 346 L 280 360 L 237 360 Z M 237 346 "/>
</clipPath>
</defs>
<g id="surface3185">
<path style="fill-rule:nonzero;fill:rgb(0%,0%,0%);fill-opacity:1;stroke-width:0.03;stroke-linecap:square;stroke-linejoin:miter;stroke:rgb(0%,0%,0%);stroke-opacity:1;stroke-miterlimit:10;" d="M 0 178 L 360 178 L 360 -182 L 0 -182 Z M 0 178 " transform="matrix(1,0,0,1,0,182)"/>
<g clip-path="url(#clip1)" clip-rule="nonzero">
<path style=" stroke:none;fill-rule:nonzero;fill:rgb(39.99939%,39.99939%,39.99939%);fill-opacity:0.3;" d="M 96.152344 434.792969 L -97.410156 367.457031 L -74.179688 297.339844 L -42.351562 198.984375 Z M 96.152344 434.792969 "/>
</g>
<path style=" stroke:none;fill-rule:nonzero;fill:rgb(39.99939%,39.99939%,39.99939%);fill-opacity:0.3;" d="M 336.292969 253.738281 L 318.242188 301.261719 L 304.09375 296.425781 L 322.144531 248.898438 Z M 336.292969 253.738281 "/>
<g clip-path="url(#clip2)" clip-rule="nonzero">
<path style=" stroke:none;fill-rule:nonzero;fill:rgb(39.99939%,39.99939%,39.99939%);fill-opacity:0.3;" d="M 383.738281 274.777344 L 365.691406 322.300781 L 351.542969 317.460938 L 369.59375 269.9375 Z M 383.738281 274.777344 "/>
</g>
<path style=" stroke:none;fill-rule:nonzero;fill:rgb(39.99939%,39.99939%,39.99939%);fill-opacity:0.3;" d="M 352.441406 259.171875 L 334.390625 306.699219 L 320.246094 301.859375 L 338.296875 254.335938 Z M 352.441406 259.171875 "/>
<g clip-path="url(#clip3)" clip-rule="nonzero">
<path style=" stroke:none;fill-rule:nonzero;fill:rgb(39.99939%,39.99939%,39.99939%);fill-opacity:0.3;" d="M 570.765625 355.101562 L 556.191406 392.703125 L 555.847656 393.597656 L 521.4375 381.949219 L 524.777344 372.882812 L 488.890625 359.984375 L 507.984375 310.21875 L 494.683594 306.113281 L 471.953125 365.308594 L 434.433594 355.929688 L 428.890625 354.113281 L 432.277344 345.625 L 438.464844 347.382812 L 458.484375 294.101562 L 440.851562 288.824219 L 420.539062 341.914062 L 424.953125 343.28125 L 421.390625 351.917969 L 338.097656 325.089844 L 340.867188 316.890625 L 345.507812 318.0625 L 366.140625 262.730469 L 356.550781 260.09375 L 336.839844 311.914062 L 330.582031 309.964844 L 328.617188 314.894531 L 334.378906 316.835938 L 332.101562 323.183594 L 283.234375 308.570312 L 308.570312 237.574219 L 571.765625 324.835938 L 573.863281 325.488281 L 575.914062 327.042969 L 577.351562 329.175781 L 577.96875 331.699219 L 577.972656 334.605469 L 576.957031 338.679688 Z M 570.765625 355.101562 "/>
</g>
<path style=" stroke:none;fill-rule:nonzero;fill:rgb(39.99939%,39.99939%,39.99939%);fill-opacity:0.3;" d="M 276.207031 300.855469 L 261.144531 296.410156 L 268.085938 272.769531 L 283.078125 276.875 Z M 276.207031 300.855469 "/>
<path style=" stroke:none;fill-rule:nonzero;fill:rgb(39.99939%,39.99939%,39.99939%);fill-opacity:0.3;" d="M 224.675781 284.105469 L 209.613281 279.664062 L 216.554688 256.023438 L 231.546875 260.125 Z M 224.675781 284.105469 "/>
<path style=" stroke:none;fill-rule:nonzero;fill:rgb(39.99939%,39.99939%,39.99939%);fill-opacity:0.3;" d="M 172.917969 268.363281 L 157.890625 263.925781 L 164.832031 240.285156 L 179.828125 244.386719 Z M 172.917969 268.363281 "/>
<path style=" stroke:none;fill-rule:nonzero;fill:rgb(39.99939%,39.99939%,39.99939%);fill-opacity:0.3;" d="M 238.5 217.125 L 230.757812 240.863281 L 215.863281 235.929688 L 217.285156 231.664062 L 214.015625 230.746094 L 212.570312 235.167969 L 197.675781 230.234375 L 205.414062 207.03125 L 220.316406 211.429688 L 219.023438 215.394531 L 222.394531 216.347656 L 223.664062 212.53125 Z M 238.5 217.125 "/>
<path style=" stroke:none;fill-rule:nonzero;fill:rgb(39.99939%,39.99939%,39.99939%);fill-opacity:0.3;" d="M 262.375 250.855469 L 247.480469 245.921875 L 255.28125 222.527344 L 270.121094 227.117188 Z M 262.375 250.855469 "/>
<path style=" stroke:none;fill-rule:nonzero;fill:rgb(39.99939%,39.99939%,39.99939%);fill-opacity:0.3;" d="M 283.234375 308.570312 L 146.371094 267.644531 L 144.230469 266.320312 L 142.878906 264.828125 L 141.527344 262.0625 L 131.304688 238.507812 L 130.800781 226.171875 L 118.410156 225.007812 L 117.171875 221.292969 L 121.984375 194.03125 L 118.777344 182.808594 L 110.757812 177.996094 L 54.636719 160.359375 L 51.429688 152.339844 L 53.128906 152 L 58.132812 154.542969 L 308.570312 237.574219 Z M 283.234375 308.570312 "/>
<path style=" stroke:none;fill-rule:nonzero;fill:rgb(39.99939%,39.99939%,39.99939%);fill-opacity:0.3;" d="M 144.804688 299.757812 L 159.511719 305.171875 L 150.867188 328.300781 L 136.203125 323.234375 Z M 144.804688 299.757812 "/>
<path style=" stroke:none;fill-rule:nonzero;fill:rgb(39.99939%,39.99939%,39.99939%);fill-opacity:0.3;" d="M 118.753906 267.507812 L 126.296875 280.636719 L 103.914062 292.984375 L 96.171875 280.148438 Z M 118.753906 267.507812 "/>
<g clip-path="url(#clip4)" clip-rule="nonzero">
<path style=" stroke:none;fill-rule:nonzero;fill:rgb(39.99939%,39.99939%,39.99939%);fill-opacity:0.3;" d="M 127.261719 337.292969 L 141.96875 342.707031 L 133.320312 365.839844 L 118.660156 360.769531 Z M 127.261719 337.292969 "/>
</g>
<g clip-path="url(#clip5)" clip-rule="nonzero">
<path style=" stroke:none;fill-rule:nonzero;fill:rgb(39.99939%,39.99939%,39.99939%);fill-opacity:0.3;" d="M 170.132812 443.09375 L 168.488281 440.699219 L 165.808594 436.816406 L 63.492188 278.375 L 110.644531 256.226562 L 113.851562 255.617188 L 116.738281 256.222656 L 119.628906 257.738281 L 121.878906 260.167969 L 138.601562 289 L 140.53125 290.820312 L 142.777344 292.640625 L 145.347656 293.855469 L 148.554688 294.761719 L 183.914062 306.285156 L 162.554688 363.203125 L 202.480469 384.371094 Z M 170.132812 443.09375 "/>
</g>
<g clip-path="url(#clip6)" clip-rule="nonzero">
<path style=" stroke:none;fill-rule:nonzero;fill:rgb(39.99939%,39.99939%,39.99939%);fill-opacity:0.3;" d="M 896.339844 153.386719 L 896.691406 154.09375 L 896.871094 155.675781 L 895.210938 265.988281 L 894.140625 268.023438 L 892.707031 268.699219 L 889.488281 269.042969 L 797.863281 271.148438 L 753.34375 292.792969 L 758.042969 302.804688 L 711.6875 325.65625 L 713.621094 329.3125 L 659.195312 351.304688 L 647.59375 331.191406 L 645.277344 328.632812 L 642.175781 326.253906 L 639.480469 324.980469 L 246.300781 203.742188 L 245.570312 202.941406 L 245.566406 201.335938 L 245.914062 200.570312 L 246.488281 199.769531 L 247.566406 198.78125 L 358.933594 147.671875 L 352.113281 134.546875 L 226.972656 192.726562 L 224.832031 193.429688 L 221.28125 193.542969 L 212.730469 192.335938 L 124.257812 162.3125 L 121.945312 160.125 L 121.175781 157.933594 L 120.785156 154.285156 L 121.554688 151.367188 L 123.476562 146.621094 L 218.210938 6.375 L 219.035156 2.84375 L 218.808594 -0.335938 L 203.984375 -28.378906 L 203.757812 -30.710938 L 204.425781 -34.105469 L 221.894531 -55.273438 L 224.800781 -55.910156 L 228.160156 -55.914062 L 231.296875 -55.28125 L 895.328125 152.46875 Z M 896.339844 153.386719 "/>
</g>
<path style=" stroke:none;fill-rule:nonzero;fill:rgb(39.99939%,39.99939%,39.99939%);fill-opacity:0.3;" d="M 180.195312 137.996094 L 196.539062 168.242188 L 202.15625 165.523438 L 197.40625 156.738281 L 206.230469 152.464844 L 216.742188 171.910156 L 207.917969 176.175781 L 205.191406 171.140625 L 199.578125 173.859375 L 202.304688 178.898438 L 193.773438 183.03125 L 181.15625 159.699219 L 175.074219 162.648438 L 177.175781 166.535156 L 168.054688 170.953125 L 156.445312 149.5 L 165.570312 145.078125 L 170.867188 154.871094 L 176.953125 151.925781 L 171.65625 142.132812 Z M 180.195312 137.996094 "/>
<path style=" stroke:none;fill-rule:nonzero;fill:rgb(39.99939%,39.99939%,39.99939%);fill-opacity:0.3;" d="M 194.710938 78.289062 L 211.054688 108.53125 L 216.671875 105.8125 L 211.921875 97.027344 L 220.742188 92.757812 L 231.257812 112.195312 L 222.433594 116.464844 L 219.707031 111.429688 L 214.09375 114.148438 L 216.820312 119.1875 L 208.289062 123.316406 L 195.671875 99.992188 L 189.589844 102.9375 L 191.691406 106.824219 L 182.570312 111.242188 L 170.957031 89.792969 L 180.085938 85.371094 L 185.382812 95.164062 L 191.464844 92.214844 L 186.167969 82.425781 Z M 194.710938 78.289062 "/>
<path style=" stroke:none;fill-rule:nonzero;fill:rgb(39.99939%,39.99939%,39.99939%);fill-opacity:0.3;" d="M 252.566406 128.019531 L 268.910156 158.265625 L 274.523438 155.550781 L 269.777344 146.761719 L 278.597656 142.492188 L 289.109375 161.9375 L 280.285156 166.203125 L 277.5625 161.164062 L 271.945312 163.882812 L 274.671875 168.925781 L 266.144531 173.054688 L 253.527344 149.722656 L 247.441406 152.667969 L 249.546875 156.558594 L 240.425781 160.972656 L 228.816406 139.515625 L 237.941406 135.097656 L 243.238281 144.890625 L 249.320312 141.945312 L 244.023438 132.152344 Z M 252.566406 128.019531 "/>
<path style=" stroke:none;fill-rule:nonzero;fill:rgb(39.99939%,39.99939%,39.99939%);fill-opacity:0.3;" d="M 328.4375 141.953125 L 319.699219 145.699219 L 314.898438 135.679688 L 308.671875 138.351562 L 313.476562 148.371094 L 304.140625 152.375 L 293.621094 130.417969 L 302.953125 126.417969 L 304.859375 130.394531 L 311.082031 127.722656 L 299.640625 103.855469 L 308.367188 100.113281 L 310.835938 105.269531 L 316.582031 102.804688 L 314.113281 97.65625 L 323.132812 93.777344 L 332.671875 113.667969 L 323.648438 117.539062 L 319.335938 108.550781 L 313.59375 111.015625 Z M 328.4375 141.953125 "/>
<path style=" stroke:none;fill-rule:nonzero;fill:rgb(39.99939%,39.99939%,39.99939%);fill-opacity:0.3;" d="M 242.832031 55.902344 L 234.09375 59.652344 L 229.292969 49.636719 L 223.066406 52.308594 L 227.871094 62.324219 L 218.535156 66.332031 L 208.015625 44.386719 L 217.34375 40.382812 L 219.253906 44.355469 L 225.476562 41.6875 L 214.03125 17.832031 L 222.753906 14.085938 L 225.226562 19.242188 L 230.972656 16.777344 L 228.503906 11.625 L 237.523438 7.75 L 247.066406 27.628906 L 238.042969 31.5 L 233.730469 22.519531 L 227.984375 24.984375 Z M 242.832031 55.902344 "/>
<path style=" stroke:none;fill-rule:nonzero;fill:rgb(39.99939%,39.99939%,39.99939%);fill-opacity:0.3;" d="M 290.609375 32.84375 L 306.957031 63.085938 L 312.574219 60.367188 L 307.824219 51.582031 L 316.644531 47.3125 L 327.15625 66.753906 L 318.332031 71.019531 L 315.609375 65.984375 L 309.996094 68.703125 L 312.71875 73.742188 L 304.191406 77.871094 L 291.574219 54.542969 L 285.492188 57.488281 L 287.59375 61.375 L 278.472656 65.789062 L 266.863281 44.339844 L 275.988281 39.921875 L 281.285156 49.710938 L 287.367188 46.765625 L 282.070312 36.976562 Z M 290.609375 32.84375 "/>
<path style=" stroke:none;fill-rule:nonzero;fill:rgb(39.99939%,39.99939%,39.99939%);fill-opacity:0.3;" d="M 304.527344 -19.941406 L 320.875 10.296875 L 326.488281 7.578125 L 321.738281 -1.203125 L 330.5625 -5.472656 L 341.074219 13.964844 L 332.25 18.226562 L 329.527344 13.191406 L 323.910156 15.910156 L 326.636719 20.949219 L 318.109375 25.078125 L 305.488281 1.753906 L 299.40625 4.699219 L 301.511719 8.585938 L 292.390625 13 L 280.777344 -8.445312 L 289.902344 -12.863281 L 295.199219 -3.074219 L 301.285156 -6.019531 L 295.984375 -15.808594 Z M 304.527344 -19.941406 "/>
<g clip-path="url(#clip7)" clip-rule="nonzero">
<path style=" stroke:none;fill-rule:nonzero;fill:rgb(39.99939%,39.99939%,39.99939%);fill-opacity:0.3;" d="M 372.878906 -2.804688 L 389.222656 27.4375 L 394.835938 24.722656 L 390.089844 15.9375 L 398.910156 11.667969 L 409.421875 31.109375 L 400.597656 35.375 L 397.875 30.339844 L 392.261719 33.054688 L 394.984375 38.09375 L 386.457031 42.222656 L 373.839844 18.890625 L 367.757812 21.835938 L 369.859375 25.722656 L 360.742188 30.136719 L 349.128906 8.683594 L 358.253906 4.269531 L 363.550781 14.058594 L 369.632812 11.117188 L 364.335938 1.324219 Z M 372.878906 -2.804688 "/>
</g>
<path style=" stroke:none;fill-rule:nonzero;fill:rgb(39.99939%,39.99939%,39.99939%);fill-opacity:0.3;" d="M 233.523438 -40.75 L 249.875 -10.523438 L 255.488281 -13.242188 L 250.738281 -22.023438 L 259.5625 -26.292969 L 270.074219 -6.859375 L 261.25 -2.59375 L 258.527344 -7.628906 L 252.910156 -4.910156 L 255.640625 0.128906 L 247.109375 4.257812 L 234.488281 -19.058594 L 228.40625 -16.113281 L 230.507812 -12.226562 L 221.390625 -7.8125 L 209.773438 -29.25 L 218.898438 -33.667969 L 224.199219 -23.882812 L 230.28125 -26.828125 L 224.984375 -36.613281 Z M 233.523438 -40.75 "/>
<path style=" stroke:none;fill-rule:nonzero;fill:rgb(39.99939%,39.99939%,39.99939%);fill-opacity:0.3;" d="M 50.140625 232.21875 L 60.367188 228.496094 L 62.21875 233.292969 L 64.386719 232.535156 L 62.570312 227.835938 L 78.648438 222.394531 L 80.488281 227.15625 L 82.714844 226.386719 L 80.894531 221.679688 L 90.621094 218.210938 L 100.195312 242.980469 L 90.398438 246.265625 L 88.578125 241.558594 L 86.351562 242.328125 L 88.191406 247.089844 L 72.199219 252.746094 L 70.382812 248.046875 L 68.207031 248.789062 L 70.0625 253.589844 L 59.710938 256.984375 Z M 50.140625 232.21875 "/>
<path style=" stroke:none;fill-rule:nonzero;fill:rgb(39.99939%,39.99939%,39.99939%);fill-opacity:0.3;" d="M 42.082031 203.890625 L 52.304688 200.167969 L 54.160156 204.964844 L 56.328125 204.203125 L 54.511719 199.507812 L 70.589844 194.066406 L 72.429688 198.828125 L 74.65625 198.058594 L 72.835938 193.351562 L 82.5625 189.882812 L 92.136719 214.648438 L 82.339844 217.933594 L 80.519531 213.226562 L 78.292969 213.996094 L 80.132812 218.757812 L 64.140625 224.414062 L 62.324219 219.71875 L 60.148438 220.457031 L 62.003906 225.257812 L 51.652344 228.65625 Z M 42.082031 203.890625 "/>
<path style=" stroke:none;fill-rule:nonzero;fill:rgb(39.99939%,39.99939%,39.99939%);fill-opacity:0.3;" d="M 37.171875 135.570312 L 31.164062 144.242188 L 26.703125 141.371094 L 25.410156 143.1875 L 29.78125 146 L 20.082031 159.300781 L 15.652344 156.449219 L 14.320312 158.304688 L 18.699219 161.125 L 12.941406 169.3125 L -10.089844 154.484375 L -4.164062 146.402344 L 0.214844 149.222656 L 1.546875 147.367188 L -2.878906 144.515625 L 6.617188 131.085938 L 10.984375 133.898438 L 12.292969 132.09375 L 7.832031 129.21875 L 14.140625 120.742188 Z M 37.171875 135.570312 "/>
<path style=" stroke:none;fill-rule:nonzero;fill:rgb(39.99939%,39.99939%,39.99939%);fill-opacity:0.3;" d="M 31.382812 160.832031 L 36.910156 169.792969 L 32.203125 172.292969 L 33.347656 174.199219 L 37.953125 171.75 L 46.210938 185.910156 L 41.542969 188.390625 L 42.703125 190.347656 L 47.320312 187.894531 L 52.5 196.433594 L 28.226562 209.332031 L 23.222656 200.699219 L 27.835938 198.246094 L 26.675781 196.289062 L 22.007812 198.769531 L 13.539062 184.722656 L 18.144531 182.277344 L 17.019531 180.363281 L 12.316406 182.859375 L 7.109375 173.730469 Z M 31.382812 160.832031 "/>
<path style=" stroke:none;fill-rule:nonzero;fill:rgb(39.99939%,39.99939%,39.99939%);fill-opacity:0.3;" d="M 118.410156 225.007812 L 116.316406 224.8125 L 117.792969 242.628906 L 110.03125 241.78125 L 55.867188 266.484375 L -15.71875 146.214844 L 5.621094 113.8125 L 49.074219 142.109375 L 45.277344 148.011719 L 53.128906 152 L 51.429688 152.339844 L 54.636719 160.359375 L 110.757812 177.996094 L 118.777344 182.808594 L 121.984375 194.03125 L 117.171875 221.292969 Z M 118.410156 225.007812 "/>
<path style=" stroke:none;fill-rule:nonzero;fill:rgb(39.99939%,39.99939%,39.99939%);fill-opacity:0.3;" d="M 56.621094 99.230469 L 53.066406 104.636719 L 43.378906 98.925781 L 48.46875 91.183594 L 42.546875 88.101562 L 37.648438 95.546875 L 27.335938 89.46875 L 35.753906 76.667969 Z M 56.621094 99.230469 "/>
<path style=" stroke:none;fill-rule:nonzero;fill:rgb(39.99939%,39.99939%,39.99939%);fill-opacity:0.3;" d="M 48.539062 57.230469 L 56.9375 62.847656 L 64.089844 52.597656 L 80.925781 62.273438 L 56.621094 99.230469 L 35.753906 76.667969 Z M 48.539062 57.230469 "/>
<path style=" stroke:none;fill-rule:nonzero;fill:rgb(39.99939%,39.99939%,39.99939%);fill-opacity:0.3;" d="M 94.007812 4.066406 L 104.324219 10.140625 L 99.234375 17.878906 L 104.960938 21.253906 L 110.050781 13.515625 L 119.746094 19.226562 L 91.886719 61.585938 L 82.195312 55.871094 L 87.285156 48.132812 L 81.363281 45.050781 L 76.46875 52.496094 L 66.15625 46.414062 Z M 94.007812 4.066406 "/>
<path style=" stroke:none;fill-rule:nonzero;fill:rgb(39.99939%,39.99939%,39.99939%);fill-opacity:0.3;" d="M 131.34375 -39.628906 L 141.660156 -33.554688 L 136.570312 -25.820312 L 142.300781 -22.445312 L 147.390625 -30.179688 L 157.082031 -24.472656 L 129.226562 17.878906 L 119.535156 12.167969 L 124.625 4.425781 L 118.703125 1.34375 L 113.804688 8.789062 L 103.492188 2.710938 Z M 131.34375 -39.628906 "/>
<g clip-path="url(#clip8)" clip-rule="nonzero">
<path style=" stroke:none;fill-rule:nonzero;fill:rgb(39.99939%,39.99939%,39.99939%);fill-opacity:0.3;" d="M 165.25 -119.210938 L 327.660156 -341.480469 L 331.078125 -342.773438 L 336.546875 -344.070312 L 340.652344 -344.078125 L 346.808594 -343.441406 L 987.765625 -139.046875 L 988.839844 -138.28125 L 989.378906 -137.007812 L 989.652344 -134.972656 L 989.390625 -132.6875 L 988.050781 -126.214844 L 986.992188 -118.84375 L 985.699219 -94.691406 L 985.570312 -27.292969 L 989.558594 86.382812 L 987.816406 162.914062 L 987.015625 165.457031 L 985.675781 167.234375 L 984.066406 168.25 L 981.648438 168.753906 L 978.691406 168.746094 L 976.273438 168.738281 L 972.242188 167.964844 L 964.300781 166.308594 L 196.132812 -86.429688 L 160.828125 -112.226562 Z M 165.25 -119.210938 "/>
</g>
<g clip-path="url(#clip9)" clip-rule="nonzero">
<path style=" stroke:none;fill-rule:nonzero;fill:rgb(39.99939%,39.99939%,39.99939%);fill-opacity:0.3;" d="M 183.914062 306.285156 L 411.871094 380.578125 L 416.867188 380.464844 L 417.785156 380.269531 L 388.492188 452.679688 L 202.480469 384.371094 L 162.554688 363.203125 Z M 183.914062 306.285156 "/>
</g>
<g clip-path="url(#clip10)" clip-rule="nonzero">
<path style=" stroke:none;fill-rule:nonzero;fill:rgb(39.99939%,39.99939%,39.99939%);fill-opacity:0.3;" d="M 193.8125 323.515625 L 219.117188 332.589844 L 201.945312 375.648438 L 176.636719 366.574219 Z M 193.8125 323.515625 "/>
</g>
<g clip-path="url(#clip11)" clip-rule="nonzero">
<path style=" stroke:none;fill-rule:nonzero;fill:rgb(39.99939%,39.99939%,39.99939%);fill-opacity:0.3;" d="M 254.367188 346.066406 L 279.964844 354.542969 L 262.5 398.195312 L 237.191406 389.125 Z M 254.367188 346.066406 "/>
</g>
<path style="fill-rule:nonzero;fill:rgb(39.99939%,39.99939%,39.99939%);fill-opacity:1;stroke-width:0.03;stroke-linecap:square;stroke-linejoin:miter;stroke:rgb(39.99939%,39.99939%,39.99939%);stroke-opacity:1;stroke-miterlimit:3.239307;" d="M 350.207031 313.855469 L 335.144531 309.410156 L 342.085938 285.769531 L 357.078125 289.875 Z M 350.207031 313.855469 " transform="matrix(1,0,0,1,-74,-13)"/>
<path style="fill-rule:nonzero;fill:rgb(39.99939%,39.99939%,39.99939%);fill-opacity:1;stroke-width:0.03;stroke-linecap:square;stroke-linejoin:miter;stroke:rgb(39.99939%,39.99939%,39.99939%);stroke-opacity:1;stroke-miterlimit:3.239307;" d="M 298.675781 297.105469 L 283.613281 292.664062 L 290.554688 269.023438 L 305.546875 273.125 Z M 298.675781 297.105469 " transform="matrix(1,0,0,1,-74,-13)"/>
<path style="fill-rule:nonzero;fill:rgb(39.99939%,39.99939%,39.99939%);fill-opacity:1;stroke-width:0.03;stroke-linecap:square;stroke-linejoin:miter;stroke:rgb(39.99939%,39.99939%,39.99939%);stroke-opacity:1;stroke-miterlimit:3.239307;" d="M 246.917969 281.363281 L 231.890625 276.925781 L 238.832031 253.285156 L 253.828125 257.386719 Z M 246.917969 281.363281 " transform="matrix(1,0,0,1,-74,-13)"/>
<path style="fill-rule:nonzero;fill:rgb(39.99939%,39.99939%,39.99939%);fill-opacity:1;stroke-width:0.03;stroke-linecap:square;stroke-linejoin:miter;stroke:rgb(39.99939%,39.99939%,39.99939%);stroke-opacity:1;stroke-miterlimit:3.239307;" d="M 312.5 230.125 L 304.757812 253.863281 L 289.863281 248.929688 L 291.285156 244.664062 L 288.015625 243.746094 L 286.570312 248.167969 L 271.675781 243.234375 L 279.414062 220.03125 L 294.316406 224.429688 L 293.023438 228.394531 L 296.394531 229.347656 L 297.664062 225.53125 Z M 312.5 230.125 " transform="matrix(1,0,0,1,-74,-13)"/>
<path style="fill-rule:nonzero;fill:rgb(39.99939%,39.99939%,39.99939%);fill-opacity:1;stroke-width:0.03;stroke-linecap:square;stroke-linejoin:miter;stroke:rgb(39.99939%,39.99939%,39.99939%);stroke-opacity:1;stroke-miterlimit:3.239307;" d="M 336.375 263.855469 L 321.480469 258.921875 L 329.28125 235.527344 L 344.121094 240.117188 Z M 336.375 263.855469 " transform="matrix(1,0,0,1,-74,-13)"/>
<path style="fill-rule:nonzero;fill:rgb(39.99939%,39.99939%,39.99939%);fill-opacity:1;stroke-width:0.03;stroke-linecap:square;stroke-linejoin:miter;stroke:rgb(39.99939%,39.99939%,39.99939%);stroke-opacity:1;stroke-miterlimit:3.239307;" d="M 357.234375 321.570312 L 220.371094 280.644531 L 218.230469 279.320312 L 216.878906 277.828125 L 215.527344 275.0625 L 205.304688 251.507812 L 204.800781 239.171875 L 192.410156 238.007812 L 191.171875 234.292969 L 195.984375 207.03125 L 192.777344 195.808594 L 184.757812 190.996094 L 128.636719 173.359375 L 125.429688 165.339844 L 127.128906 165 L 132.132812 167.542969 L 382.570312 250.574219 Z M 357.234375 321.570312 " transform="matrix(1,0,0,1,-74,-13)"/>
</g>
</svg>
