<?xml version="1.0" encoding="UTF-8"?>
<svg xmlns="http://www.w3.org/2000/svg" xmlns:xlink="http://www.w3.org/1999/xlink" width="361pt" height="361pt" viewBox="0 0 361 361" version="1.1">
<defs>
<clipPath id="clip1">
  <path d="M 358 286 L 360 286 L 360 319 L 358 319 Z M 358 286 "/>
</clipPath>
<clipPath id="clip2">
  <path d="M 336 244 L 360 244 L 360 360 L 336 360 Z M 336 244 "/>
</clipPath>
<clipPath id="clip3">
  <path d="M 300 274 L 360 274 L 360 360 L 300 360 Z M 300 274 "/>
</clipPath>
<clipPath id="clip4">
  <path d="M 339 236 L 360 236 L 360 270 L 339 270 Z M 339 236 "/>
</clipPath>
<clipPath id="clip5">
  <path d="M 349 231 L 360 231 L 360 240 L 349 240 Z M 349 231 "/>
</clipPath>
<clipPath id="clip6">
  <path d="M 257 288 L 337 288 L 337 360 L 257 360 Z M 257 288 "/>
</clipPath>
<clipPath id="clip7">
  <path d="M 0 303 L 336 303 L 336 360 L 0 360 Z M 0 303 "/>
</clipPath>
<clipPath id="clip8">
  <path d="M 0 357 L 22 357 L 22 360 L 0 360 Z M 0 357 "/>
</clipPath>
<clipPath id="clip9">
  <path d="M 22 329 L 84 329 L 84 360 L 22 360 Z M 22 329 "/>
</clipPath>
<clipPath id="clip10">
  <path d="M 330 64 L 360 64 L 360 70 L 330 70 Z M 330 64 "/>
</clipPath>
<clipPath id="clip11">
  <path d="M 34 0 L 360 0 L 360 71 L 34 71 Z M 34 0 "/>
</clipPath>
<clipPath id="clip12">
  <path d="M 353 151 L 360 151 L 360 161 L 353 161 Z M 353 151 "/>
</clipPath>
<clipPath id="clip13">
  <path d="M 356 146 L 360 146 L 360 222 L 356 222 Z M 356 146 "/>
</clipPath>
<clipPath id="clip14">
  <path d="M 289 162 L 360 162 L 360 256 L 289 256 Z M 289 162 "/>
</clipPath>
<clipPath id="clip15">
  <path d="M 327 117 L 360 117 L 360 160 L 327 160 Z M 327 117 "/>
</clipPath>
<clipPath id="clip16">
  <path d="M 330 66 L 360 66 L 360 87 L 330 87 Z M 330 66 "/>
</clipPath>
<clipPath id="clip17">
  <path d="M 336 77 L 360 77 L 360 107 L 336 107 Z M 336 77 "/>
</clipPath>
<clipPath id="clip18">
  <path d="M 331 99 L 360 99 L 360 124 L 331 124 Z M 331 99 "/>
</clipPath>
</defs>
<g id="surface1680">
<path style="fill-rule:nonzero;fill:rgb(0%,0%,0%);fill-opacity:1;stroke-width:0.03;stroke-linecap:square;stroke-linejoin:miter;stroke:rgb(0%,0%,0%);stroke-opacity:1;stroke-miterlimit:10;" d="M 0 178 L 360 178 L 360 -182 L 0 -182 Z M 0 178 " transform="matrix(1,0,0,1,0,182)"/>
<path style=" stroke:none;fill-rule:nonzero;fill:rgb(39.99939%,39.99939%,39.99939%);fill-opacity:0.3;" d="M 39.835938 116.570312 L 18.089844 123.011719 L 15.664062 116.070312 L 15.054688 116.257812 L 14.402344 116.453125 L 16.691406 123.425781 L 9.960938 125.417969 L 6.0625 112.152344 L 16.074219 109.339844 L 15.566406 107.761719 L 5.492188 110.414062 L 2.011719 98.183594 L 30.839844 88.765625 Z M 39.835938 116.570312 "/>
<path style=" stroke:none;fill-rule:nonzero;fill:rgb(39.99939%,39.99939%,39.99939%);fill-opacity:0.3;" d="M 50.0625 243.867188 L 79.835938 234.890625 L 85.351562 253.941406 L 72.015625 256.839844 L 64.753906 258.570312 L 56.097656 261.625 L 53.8125 253.035156 L 52.578125 249.738281 L 51.421875 246.902344 Z M 50.0625 243.867188 "/>
<path style=" stroke:none;fill-rule:nonzero;fill:rgb(39.99939%,39.99939%,39.99939%);fill-opacity:0.3;" d="M 32.101562 188.710938 L 61.84375 180.550781 L 71.75 209.332031 L 42.898438 217.652344 Z M 32.101562 188.710938 "/>
<path style=" stroke:none;fill-rule:nonzero;fill:rgb(39.99939%,39.99939%,39.99939%);fill-opacity:0.3;" d="M 43.617188 219.640625 L 72.328125 211.320312 L 79.273438 233.390625 L 49.433594 242.292969 L 48.765625 240.574219 L 48.101562 237.90625 L 47.4375 233.949219 Z M 43.617188 219.640625 "/>
<path style=" stroke:none;fill-rule:nonzero;fill:rgb(39.99939%,39.99939%,39.99939%);fill-opacity:0.3;" d="M -32.941406 294.914062 L -4.644531 291.296875 L 0.71875 305.996094 L -28.976562 308.996094 Z M -32.941406 294.914062 "/>
<path style=" stroke:none;fill-rule:nonzero;fill:rgb(39.99939%,39.99939%,39.99939%);fill-opacity:0.3;" d="M -28.078125 310.980469 L 0.613281 307.894531 L 6.296875 321.886719 L -23.808594 324.6875 Z M -28.078125 310.980469 "/>
<path style=" stroke:none;fill-rule:nonzero;fill:rgb(39.99939%,39.99939%,39.99939%);fill-opacity:0.3;" d="M 46.402344 293.160156 L 62.097656 291.476562 L 71.292969 316.898438 L 71.105469 316.914062 L 61.257812 317.171875 L 61.476562 317.835938 L 53.535156 318.597656 Z M 46.402344 293.160156 "/>
<path style=" stroke:none;fill-rule:nonzero;fill:rgb(39.99939%,39.99939%,39.99939%);fill-opacity:0.3;" d="M -0.246094 298.421875 L 10.382812 296.695312 L 23.011719 295.171875 L 35.644531 293.976562 L 45.25 293.195312 L 52.507812 318.667969 L 8.769531 322.6875 L 4.382812 310.859375 L 25.550781 308.398438 L 25.488281 307.550781 L 25.4375 306.835938 L 3.699219 308.996094 Z M -0.246094 298.421875 "/>
<path style=" stroke:none;fill-rule:nonzero;fill:rgb(39.99939%,39.99939%,39.99939%);fill-opacity:0.3;" d="M -9.429688 273.78125 L 41.65625 256.777344 L 42.046875 256.757812 L 42.480469 256.890625 L 44.140625 259.074219 L 45.628906 260.386719 L 46.171875 260.882812 L 47.039062 261.355469 L 48.109375 261.722656 L 48.949219 261.9375 L 49.746094 262.085938 L 50.929688 262.214844 L 53.421875 262.148438 L 53.726562 262.1875 L 53.859375 262.480469 L 53.597656 263.980469 L 53.953125 267.019531 L 54.027344 268.730469 L 23.59375 271.921875 L 23.640625 272.367188 L 23.683594 272.816406 L 54.109375 269.726562 L 57.597656 280.011719 L 27.503906 281.566406 L 27.503906 282.238281 L 57.671875 280.71875 L 61.160156 289.863281 L 38.101562 291.933594 L 37.488281 282.511719 L 37.070312 282.53125 L 36.519531 282.546875 L 37.195312 291.988281 L 17.0625 294.214844 L 9.640625 295.082031 L -0.929688 296.59375 Z M -9.429688 273.78125 "/>
<path style=" stroke:none;fill-rule:nonzero;fill:rgb(39.99939%,39.99939%,39.99939%);fill-opacity:0.3;" d="M 36.546875 236.765625 L 36.761719 237.515625 L 45.445312 234.96875 L 46.65625 238.777344 L 47.539062 242.332031 L 48.976562 246.261719 L 50.796875 249.828125 L 52.160156 252.488281 L 53.527344 256.792969 L 53.835938 258.523438 L 53.882812 260.226562 L 53.726562 261.046875 L 53.042969 261.347656 L 52.496094 261.4375 L 51.703125 261.4375 L 49.855469 261.164062 L 48.515625 260.816406 L 47.332031 260.300781 L 46.421875 259.761719 L 45.273438 258.738281 L 42.894531 255.878906 L 42.5 255.617188 L 42.144531 255.582031 L -9.832031 272.738281 L -14.019531 261.445312 L -2.265625 257.835938 L -2.527344 257.203125 L -2.785156 256.570312 L -14.539062 260.074219 L -18.300781 249.375 L -12.417969 247.460938 L -12.625 246.921875 L -12.839844 246.363281 L -18.855469 248.195312 L -22.742188 237.964844 L -7.53125 233.476562 L -4.335938 242.394531 L -3.507812 242.109375 L -2.679688 241.828125 L -5.949219 232.953125 L 20.367188 225.769531 L 28.351562 242.339844 L 28.925781 242.28125 L 29.554688 242.214844 L 21.804688 225.394531 L 30.390625 222.953125 L 33.121094 231.613281 L 34.488281 231.207031 L 31.777344 222.550781 L 41.234375 219.835938 L 45.042969 233.699219 L 36.359375 236.121094 Z M 36.546875 236.765625 "/>
<path style=" stroke:none;fill-rule:nonzero;fill:rgb(39.99939%,39.99939%,39.99939%);fill-opacity:0.3;" d="M -8.792969 174.035156 L 5.109375 169.789062 L 7.007812 174.789062 L -6.894531 178.992188 Z M -8.792969 174.035156 "/>
<path style=" stroke:none;fill-rule:nonzero;fill:rgb(39.99939%,39.99939%,39.99939%);fill-opacity:0.3;" d="M -43.621094 179.46875 L -19.339844 172.0625 L -17.875 171.617188 L -2.429688 166.90625 L -1.464844 169.90625 L -11.210938 173.050781 L -8.328125 181.035156 L 9.78125 175.738281 L 6.71875 167.40625 L 0.03125 169.410156 L -0.847656 166.476562 L 18.574219 159.824219 L 25.945312 181.460938 L 10.59375 186.804688 L 10.902344 187.601562 L 11.214844 188.398438 L 26.464844 182.988281 L 38.472656 218.238281 L 29.882812 220.746094 L 26.496094 210.128906 L 25.058594 210.527344 L 28.410156 221.160156 L 18.289062 224.128906 L 12.316406 208.308594 L 11.742188 208.550781 L 11.171875 208.792969 L 16.867188 224.542969 L 9.730469 226.644531 L 5.332031 214.347656 L 4.671875 214.519531 L 3.933594 214.710938 L 8.0625 227.128906 L -2.765625 230.289062 L -8.351562 213.960938 L -9.210938 214.113281 L -9.992188 214.25 L -4.457031 230.773438 L -16.164062 234.214844 L -22.296875 217.335938 L -22.992188 217.535156 L -23.777344 217.757812 L -17.660156 234.628906 L -23.230469 236.261719 Z M -43.621094 179.46875 "/>
<path style=" stroke:none;fill-rule:nonzero;fill:rgb(39.99939%,39.99939%,39.99939%);fill-opacity:0.3;" d="M 95.507812 182.09375 L 101.835938 200.640625 L 73.449219 209.273438 L 63.414062 180.1875 L 91.191406 171.683594 Z M 95.507812 182.09375 "/>
<path style=" stroke:none;fill-rule:nonzero;fill:rgb(39.99939%,39.99939%,39.99939%);fill-opacity:0.3;" d="M 53.046875 149.804688 L 70.09375 144.414062 L 72.492188 150.191406 L 73.019531 149.96875 L 73.480469 149.777344 L 71.128906 144.050781 L 81.335938 140.652344 L 85.359375 152.1875 L 90.683594 170.394531 L 62.976562 178.828125 Z M 53.046875 149.804688 "/>
<path style=" stroke:none;fill-rule:nonzero;fill:rgb(39.99939%,39.99939%,39.99939%);fill-opacity:0.3;" d="M 70.835938 108.910156 L 80.898438 137.9375 L 53.472656 146.621094 L 42.667969 117.386719 Z M 70.835938 108.910156 "/>
<path style=" stroke:none;fill-rule:nonzero;fill:rgb(39.99939%,39.99939%,39.99939%);fill-opacity:0.3;" d="M 30.335938 58.539062 L 30.882812 58.542969 L 27.859375 52.011719 L 28.425781 51.996094 L 35.78125 52.3125 L 44.257812 52.570312 L 52.15625 53.234375 L 54.773438 59.742188 L 60.675781 77.90625 L 50.160156 81.253906 L 49.472656 75.0625 L 49.039062 75.210938 L 48.601562 75.359375 L 49.058594 81.511719 L 32.007812 86.703125 L 20.109375 52.042969 L 26.582031 52.042969 L 26.703125 52.050781 L 29.789062 58.535156 Z M 30.335938 58.539062 "/>
<path style=" stroke:none;fill-rule:nonzero;fill:rgb(39.99939%,39.99939%,39.99939%);fill-opacity:0.3;" d="M 61.027344 79.269531 L 70.75 107.367188 L 42.253906 116.035156 L 32.59375 88.246094 Z M 61.027344 79.269531 "/>
<path style=" stroke:none;fill-rule:nonzero;fill:rgb(39.99939%,39.99939%,39.99939%);fill-opacity:0.3;" d="M 0.164062 98.402344 L 7.964844 126.023438 L -20.765625 134.921875 L -29.625 108.398438 Z M 0.164062 98.402344 "/>
<path style=" stroke:none;fill-rule:nonzero;fill:rgb(39.99939%,39.99939%,39.99939%);fill-opacity:0.3;" d="M 8.28125 128.425781 L 7.976562 130.636719 L 8.1875 134.238281 L 10.234375 142.867188 L 11.132812 145.25 L 12.210938 147.117188 L 14.210938 150.945312 L 16.496094 155.617188 L 16.992188 157.691406 L -11.003906 165.949219 L -19.433594 137.617188 Z M 8.28125 128.425781 "/>
<path style=" stroke:none;fill-rule:nonzero;fill:rgb(39.99939%,39.99939%,39.99939%);fill-opacity:0.3;" d="M 102.453125 202.425781 L 109.65625 224.453125 L 81.375 232.636719 L 74.171875 210.957031 Z M 102.453125 202.425781 "/>
<path style=" stroke:none;fill-rule:nonzero;fill:rgb(39.99939%,39.99939%,39.99939%);fill-opacity:0.3;" d="M 59.632812 280.109375 L 80.773438 273.226562 L 83.484375 279.019531 L 84.277344 278.742188 L 85.070312 278.46875 L 82.535156 272.722656 L 87.703125 270.988281 L 87.613281 270.738281 L 87.527344 270.488281 L 59.339844 279.441406 L 56.027344 270.816406 L 55.363281 264.566406 L 55.828125 263.765625 L 56.363281 263.003906 L 57.03125 262.453125 L 64.789062 259.652344 L 69.546875 258.542969 L 78.519531 256.546875 L 87.035156 255.054688 L 114.117188 246.863281 L 119.195312 262.410156 L 112.613281 264.1875 L 112.695312 264.550781 L 112.78125 264.914062 L 119.46875 263.117188 L 122.8125 272.984375 L 64.140625 292.257812 Z M 59.632812 280.109375 "/>
<path style=" stroke:none;fill-rule:nonzero;fill:rgb(39.99939%,39.99939%,39.99939%);fill-opacity:0.3;" d="M 81.402344 235.199219 L 110.3125 226.324219 L 116.820312 244.8125 L 86.777344 253.828125 Z M 81.402344 235.199219 "/>
<path style=" stroke:none;fill-rule:nonzero;fill:rgb(39.99939%,39.99939%,39.99939%);fill-opacity:0.3;" d="M 64.773438 294.109375 L 123.695312 274.832031 L 136.210938 309.175781 L 131.921875 310.109375 L 117.789062 312.566406 L 101.644531 314.683594 L 101.144531 309.433594 L 100.621094 309.492188 L 100.101562 309.550781 L 100.542969 314.828125 L 99.046875 315.023438 L 91.367188 315.636719 L 84.78125 316.078125 L 84.441406 311.144531 L 83.835938 311.160156 L 83.234375 311.179688 L 83.507812 316.160156 L 73.503906 316.828125 L 69.585938 306.640625 L 99.214844 297.175781 L 98.816406 296.410156 L 98.421875 295.648438 L 68.898438 304.851562 Z M 64.773438 294.109375 "/>
<path style=" stroke:none;fill-rule:nonzero;fill:rgb(39.99939%,39.99939%,39.99939%);fill-opacity:0.3;" d="M 115.273438 246.90625 L 117.699219 246.191406 L 120.554688 259.417969 L 121.898438 264.292969 L 121.121094 264.558594 Z M 115.273438 246.90625 "/>
<path style=" stroke:none;fill-rule:nonzero;fill:rgb(39.99939%,39.99939%,39.99939%);fill-opacity:0.3;" d="M 135.71875 299.367188 L 133.921875 299.984375 L 131.007812 291.742188 L 132.15625 291.332031 L 135.605469 299.046875 Z M 135.71875 299.367188 "/>
<path style=" stroke:none;fill-rule:nonzero;fill:rgb(39.99939%,39.99939%,39.99939%);fill-opacity:0.3;" d="M 131.597656 290.085938 L 130.464844 290.476562 L 125.738281 277.371094 L 126.382812 277.140625 L 127.3125 279.078125 L 130.382812 287.375 Z M 131.597656 290.085938 "/>
<path style=" stroke:none;fill-rule:nonzero;fill:rgb(39.99939%,39.99939%,39.99939%);fill-opacity:0.3;" d="M 125.769531 275.867188 L 125.222656 276.054688 L 121.597656 265.929688 L 122.285156 265.695312 L 123.011719 268.324219 L 123.625 271.398438 Z M 125.769531 275.867188 "/>
<path style=" stroke:none;fill-rule:nonzero;fill:rgb(39.99939%,39.99939%,39.99939%);fill-opacity:0.3;" d="M -14.839844 57.410156 L -8.738281 54.628906 L -4.152344 52.527344 L -3.433594 52.304688 L 8.488281 51.113281 L 8.605469 58.140625 L 9.078125 58.128906 L 9.523438 58.113281 L 9.472656 51.015625 L 11.488281 50.8125 L 18.359375 51.960938 L 30.167969 87.210938 L 1.136719 96.3125 L -6.425781 78.722656 L 6.25 73.785156 L 6.113281 73.40625 L 5.996094 73.070312 L -6.746094 78.015625 Z M -14.839844 57.410156 "/>
<path style=" stroke:none;fill-rule:nonzero;fill:rgb(39.99939%,39.99939%,39.99939%);fill-opacity:0.3;" d="M 21.910156 159.664062 L 51.722656 150.195312 L 61.453125 178.953125 L 31.664062 187.214844 Z M 21.910156 159.664062 "/>
<path style=" stroke:none;fill-rule:nonzero;fill:rgb(39.99939%,39.99939%,39.99939%);fill-opacity:0.3;" d="M 52.398438 146.921875 L 20.304688 157.125 L 17.785156 150.492188 L 15.984375 147.09375 L 14.011719 145.054688 L 12.75 142.84375 L 11.664062 135.867188 L 10.648438 127.085938 L 41.582031 117.742188 Z M 52.398438 146.921875 "/>
<path style=" stroke:none;fill-rule:nonzero;fill:rgb(39.99939%,39.99939%,39.99939%);fill-opacity:0.3;" d="M 134.316406 301.222656 L 136.152344 300.585938 L 138.984375 308.570312 L 137.347656 308.925781 Z M 134.316406 301.222656 "/>
<path style=" stroke:none;fill-rule:nonzero;fill:rgb(39.99939%,39.99939%,39.99939%);fill-opacity:0.3;" d="M 51.546875 51.722656 L 49.0625 51.722656 L 45.570312 51.574219 L 51.429688 51.429688 Z M 51.546875 51.722656 "/>
<path style=" stroke:none;fill-rule:nonzero;fill:rgb(39.99939%,39.99939%,39.99939%);fill-opacity:0.3;" d="M -4.535156 359.265625 L -4.554688 359.179688 L 19.210938 355.636719 L 19.789062 357.464844 Z M -4.535156 359.265625 "/>
<path style=" stroke:none;fill-rule:nonzero;fill:rgb(39.99939%,39.99939%,39.99939%);fill-opacity:0.3;" d="M -22.558594 327.460938 L -10.113281 326.363281 L -2.089844 345.871094 L -1.417969 345.640625 L -0.742188 345.410156 L -8.957031 326.261719 L 1.324219 325.3125 L 6.996094 339.914062 L 7.660156 339.761719 L 8.320312 339.609375 L 3.007812 325.066406 L 7.710938 324.484375 L 18.355469 354.558594 L -4.84375 358.023438 L -5.335938 357.886719 L -5.65625 357.695312 L -8.070312 354.8125 L -8.300781 354.527344 L -8.667969 354.335938 L -9.003906 354.277344 L -9.46875 354.242188 L -13.382812 354 L -13.679688 353.960938 L -13.839844 353.917969 L -13.925781 353.847656 L -14.03125 353.679688 Z M -22.558594 327.460938 "/>
<path style=" stroke:none;fill-rule:nonzero;fill:rgb(39.99939%,39.99939%,39.99939%);fill-opacity:0.3;" d="M 65.175781 335.652344 L 65.503906 334.652344 L 66.300781 333.363281 L 66.492188 333.160156 L 66.789062 334.070312 Z M 65.175781 335.652344 "/>
<path style=" stroke:none;fill-rule:nonzero;fill:rgb(39.99939%,39.99939%,39.99939%);fill-opacity:0.3;" d="M 66.113281 332 L 65.175781 332.914062 L 64.328125 334.621094 L 63.71875 336.300781 L 63.542969 337.25 L 52.351562 348.203125 L 21.710938 357.042969 L 18.660156 347.703125 L 47.257812 339.832031 L 47.132812 339.457031 L 47.007812 339.078125 L 18.167969 346.65625 L 9.894531 324.265625 L 15.207031 323.757812 L 21.207031 339.011719 L 22.488281 338.605469 L 16.875 323.574219 L 26.199219 322.691406 L 30.171875 336.839844 L 30.953125 336.636719 L 31.738281 336.433594 L 27.96875 322.621094 L 37.839844 321.570312 L 39.5625 334.667969 L 40.164062 334.601562 L 40.773438 334.539062 L 39.273438 321.46875 L 48.953125 320.449219 L 50.378906 332.359375 L 50.972656 332.285156 L 51.519531 332.222656 L 50.363281 320.472656 L 61.910156 319.421875 L 63.742188 330.570312 L 64.457031 330.472656 L 65.109375 330.398438 L 64.574219 327.304688 Z M 66.113281 332 "/>
<path style=" stroke:none;fill-rule:nonzero;fill:rgb(39.99939%,39.99939%,39.99939%);fill-opacity:0.3;" d="M 244.054688 277.738281 L 247.300781 276.660156 L 253.671875 293.5 L 244.054688 279.078125 Z M 244.054688 277.738281 "/>
<path style=" stroke:none;fill-rule:nonzero;fill:rgb(39.99939%,39.99939%,39.99939%);fill-opacity:0.3;" d="M 256.320312 300.269531 L 257.335938 299.769531 L 258.273438 299.308594 L 249.570312 275.898438 L 261.527344 271.871094 L 270.941406 297.992188 L 258.339844 303.03125 L 257.148438 303.429688 Z M 256.320312 300.269531 "/>
<g clip-path="url(#clip1)" clip-rule="nonzero">
<path style=" stroke:none;fill-rule:nonzero;fill:rgb(39.99939%,39.99939%,39.99939%);fill-opacity:0.3;" d="M 358.335938 292.886719 L 369.246094 286.222656 L 371.191406 291.578125 L 384.480469 309.457031 L 384.5625 310.183594 L 384.441406 310.734375 L 380.632812 313.78125 L 379.042969 315.015625 L 373.074219 318.253906 Z M 358.335938 292.886719 "/>
</g>
<g clip-path="url(#clip2)" clip-rule="nonzero">
<path style=" stroke:none;fill-rule:nonzero;fill:rgb(39.99939%,39.99939%,39.99939%);fill-opacity:0.3;" d="M 368.652344 283.902344 L 357.050781 291.027344 L 347.109375 274.285156 L 345.632812 275.003906 L 382.71875 336.738281 L 382.035156 337.523438 L 381.507812 338.769531 L 381.457031 339.859375 L 381.636719 340.839844 L 382.558594 342.667969 L 383.921875 343.851562 L 385.574219 344.367188 L 386.753906 344.214844 L 401.691406 368.257812 L 426.496094 408.527344 L 423.425781 410.125 L 423.726562 410.652344 L 423.996094 411.167969 L 427.265625 409.484375 L 432.828125 418.175781 L 431.765625 418.554688 L 428.695312 419.476562 L 426.519531 424.292969 L 426.46875 424.3125 L 336.832031 274.421875 L 348.433594 270.234375 L 376.117188 261.199219 L 390.566406 255.796875 L 415.710938 246.046875 L 416.691406 245.765625 L 417.664062 245.664062 L 422.171875 244.027344 L 440.191406 251.023438 L 443.652344 291 L 443.199219 291.34375 L 448.394531 297.644531 L 449.320312 299.734375 L 449.664062 302.261719 L 449.15625 305.222656 L 443.003906 309.292969 L 442.25 309.816406 L 435.628906 301.289062 L 435.054688 301.753906 L 434.476562 302.222656 L 441.226562 310.605469 L 432.476562 316.460938 L 420.355469 303.5625 L 418.421875 302.070312 L 417.042969 301.855469 L 413.449219 301.003906 L 409.25 297.488281 L 392.664062 275.097656 L 392.328125 275.257812 L 392.027344 275.398438 L 390.699219 273.472656 L 388.394531 274.292969 L 388.152344 273.699219 L 387.902344 273.101562 L 368.816406 279.015625 L 364.746094 269.566406 L 385.046875 263.253906 L 384.804688 262.589844 L 384.578125 261.972656 L 364.023438 268.453125 L 363.179688 266.449219 L 362.414062 266.738281 L 361.5625 267.0625 Z M 368.652344 283.902344 "/>
</g>
<g clip-path="url(#clip3)" clip-rule="nonzero">
<path style=" stroke:none;fill-rule:nonzero;fill:rgb(39.99939%,39.99939%,39.99939%);fill-opacity:0.3;" d="M 336.796875 274.4375 L 426.425781 424.332031 L 426.46875 424.40625 L 426 425.441406 L 422.246094 427.089844 L 418.46875 428.285156 L 414.761719 428.519531 L 412.351562 429.167969 L 409.925781 429.550781 L 407.644531 430.027344 L 405.394531 430.140625 L 403.632812 430.453125 L 401.582031 430.808594 L 400.015625 431.503906 L 398.523438 432.25 L 396.878906 433.285156 L 393.398438 436.171875 L 387.25 440.445312 L 384.09375 442.914062 L 381.894531 444.4375 L 377.0625 445.09375 L 366.882812 450.507812 L 365.925781 450.921875 L 364.878906 451.363281 L 363.34375 451.53125 L 362.296875 451.847656 L 361.40625 452.003906 L 360.167969 452.140625 L 358.964844 452.265625 L 356.066406 452.507812 L 352.964844 452.75 L 350.664062 453.148438 L 347.179688 454.421875 L 345.09375 455.441406 L 341.621094 458.820312 L 340.742188 459.527344 L 339.882812 460.21875 L 338.394531 461.765625 L 336.550781 463.796875 L 300.765625 288.164062 L 306.628906 285.375 L 320.679688 280.308594 L 321.476562 280.003906 L 322.140625 279.773438 Z M 336.796875 274.4375 "/>
</g>
<path style=" stroke:none;fill-rule:nonzero;fill:rgb(39.99939%,39.99939%,39.99939%);fill-opacity:0.3;" d="M 279.476562 263.515625 L 252.117188 272.585938 L 261.566406 268.941406 L 272.011719 265.867188 L 278.769531 263.71875 Z M 279.476562 263.515625 "/>
<path style=" stroke:none;fill-rule:nonzero;fill:rgb(39.99939%,39.99939%,39.99939%);fill-opacity:0.3;" d="M 272.269531 297.429688 L 263.035156 271.347656 L 271.425781 268.53125 L 280.222656 294.574219 Z M 272.269531 297.429688 "/>
<path style=" stroke:none;fill-rule:nonzero;fill:rgb(39.99939%,39.99939%,39.99939%);fill-opacity:0.3;" d="M 281.457031 294.21875 L 272.683594 268.09375 L 277.867188 266.335938 L 286.769531 292.59375 Z M 281.457031 294.21875 "/>
<path style=" stroke:none;fill-rule:nonzero;fill:rgb(39.99939%,39.99939%,39.99939%);fill-opacity:0.3;" d="M 288.175781 291.898438 L 279.222656 265.890625 L 292.472656 261.433594 L 298.625 288.742188 Z M 288.175781 291.898438 "/>
<path style=" stroke:none;fill-rule:nonzero;fill:rgb(39.99939%,39.99939%,39.99939%);fill-opacity:0.3;" d="M 293.636719 261.019531 L 300.511719 258.828125 L 305.71875 284.222656 L 299.535156 286.34375 Z M 293.636719 261.019531 "/>
<path style=" stroke:none;fill-rule:nonzero;fill:rgb(39.99939%,39.99939%,39.99939%);fill-opacity:0.3;" d="M 320.605469 280.050781 L 307.234375 284.738281 L 301.753906 258.421875 L 311.054688 255.574219 Z M 320.605469 280.050781 "/>
<path style=" stroke:none;fill-rule:nonzero;fill:rgb(39.99939%,39.99939%,39.99939%);fill-opacity:0.3;" d="M 347.800781 270.011719 L 321.941406 279.53125 L 312.132812 255.164062 L 338.175781 246.164062 Z M 347.800781 270.011719 "/>
<g clip-path="url(#clip4)" clip-rule="nonzero">
<path style=" stroke:none;fill-rule:nonzero;fill:rgb(39.99939%,39.99939%,39.99939%);fill-opacity:0.3;" d="M 348.636719 269.679688 L 339.398438 245.679688 L 365.484375 236.75 L 375.125 261.152344 Z M 348.636719 269.679688 "/>
</g>
<g clip-path="url(#clip5)" clip-rule="nonzero">
<path style=" stroke:none;fill-rule:nonzero;fill:rgb(39.99939%,39.99939%,39.99939%);fill-opacity:0.3;" d="M 373.222656 231.542969 L 349.851562 239.394531 L 354.039062 237.910156 L 366.328125 233.300781 Z M 373.222656 231.542969 "/>
</g>
<g clip-path="url(#clip6)" clip-rule="nonzero">
<path style=" stroke:none;fill-rule:nonzero;fill:rgb(39.99939%,39.99939%,39.99939%);fill-opacity:0.3;" d="M 257.210938 303.671875 L 257.480469 303.585938 L 259.949219 302.644531 L 270.972656 298.054688 L 271.613281 297.792969 L 272.304688 297.492188 L 280.242188 294.636719 L 280.867188 294.433594 L 281.480469 294.285156 L 286.785156 292.628906 L 287.410156 292.324219 L 288.230469 292.011719 L 298.648438 288.84375 L 300.492188 288.257812 L 306.511719 317.535156 L 312.570312 346.75 L 318.449219 375.714844 L 324.496094 405.234375 L 330.511719 434.546875 L 336.472656 463.84375 L 335.546875 464.757812 L 300.0625 467.375 Z M 257.210938 303.671875 "/>
</g>
<path style=" stroke:none;fill-rule:nonzero;fill:rgb(39.99939%,39.99939%,39.99939%);fill-opacity:0.3;" d="M 241.929688 278.445312 L 244.054688 277.738281 L 244.054688 279.078125 L 253.671875 293.5 L 255.039062 297.117188 L 253.976562 297.582031 L 253.425781 298.148438 L 253.273438 298.578125 L 253.128906 299.160156 L 253 299.9375 L 252.621094 300.308594 L 252.027344 300.484375 L 251.289062 300.378906 L 250.820312 299.8125 L 250.339844 298.90625 L 252.046875 298.285156 L 251.71875 297.550781 L 249.878906 298.246094 Z M 241.929688 278.445312 "/>
<path style=" stroke:none;fill-rule:nonzero;fill:rgb(39.99939%,39.99939%,39.99939%);fill-opacity:0.3;" d="M 256.242188 300.308594 L 256.320312 300.269531 L 257.148438 303.429688 L 246.398438 307.015625 L 244.949219 303.636719 L 246.222656 303.261719 L 246.558594 303.160156 L 237.507812 279.957031 L 240.753906 278.871094 L 247.214844 294.285156 L 246.324219 294.632812 L 246.527344 295.152344 L 247.441406 294.832031 L 248.992188 298.53125 L 247.882812 298.953125 L 248.03125 299.296875 L 248.164062 299.695312 L 249.722656 299.128906 L 249.914062 299.710938 L 250.636719 300.796875 L 251.191406 301.128906 L 251.90625 301.199219 L 252.585938 301.140625 L 253.195312 300.851562 L 253.574219 300.453125 L 253.773438 298.925781 L 254.335938 298.277344 L 255.285156 297.769531 Z M 256.242188 300.308594 "/>
<path style=" stroke:none;fill-rule:nonzero;fill:rgb(39.99939%,39.99939%,39.99939%);fill-opacity:0.3;" d="M 71.105469 316.914062 L 61.476562 317.835938 L 61.257812 317.171875 Z M 71.105469 316.914062 "/>
<path style=" stroke:none;fill-rule:nonzero;fill:rgb(39.99939%,39.99939%,39.99939%);fill-opacity:0.3;" d="M 97.703125 332.625 L 97.707031 332.242188 L 79.460938 334.410156 L 74.671875 319.984375 L 88.773438 318.492188 L 116.25 315.71875 L 119.898438 326.632812 L 124.699219 342.265625 L 105.964844 345.910156 L 85.609375 349.210938 L 83.78125 344.8125 L 96.429688 342.820312 L 96.328125 342.40625 L 96.226562 341.988281 L 83.375 343.984375 L 79.867188 335.304688 L 97.695312 333.050781 Z M 97.703125 332.625 "/>
<path style=" stroke:none;fill-rule:nonzero;fill:rgb(39.99939%,39.99939%,39.99939%);fill-opacity:0.3;" d="M 132.355469 314.03125 L 145.988281 311.71875 L 154.875 335.519531 L 142.160156 339.175781 Z M 132.355469 314.03125 "/>
<path style=" stroke:none;fill-rule:nonzero;fill:rgb(39.99939%,39.99939%,39.99939%);fill-opacity:0.3;" d="M 125.089844 314.867188 L 131.011719 314.097656 L 140.679688 339.464844 L 125.996094 341.8125 L 117.824219 315.707031 Z M 125.089844 314.867188 "/>
<path style=" stroke:none;fill-rule:nonzero;fill:rgb(39.99939%,39.99939%,39.99939%);fill-opacity:0.3;" d="M 136.210938 309.175781 L 136.710938 310.546875 L 136.753906 310.949219 L 136.628906 311.269531 L 136.246094 311.492188 L 135.570312 311.695312 L 127.765625 312.96875 L 115.269531 314.328125 L 101.734375 315.660156 L 101.644531 314.683594 L 117.789062 312.566406 L 131.921875 310.109375 Z M 136.210938 309.175781 "/>
<path style=" stroke:none;fill-rule:nonzero;fill:rgb(39.99939%,39.99939%,39.99939%);fill-opacity:0.3;" d="M 100.542969 314.828125 L 100.625 315.808594 L 84.863281 317.207031 L 84.78125 316.078125 L 91.367188 315.636719 L 99.046875 315.023438 Z M 100.542969 314.828125 "/>
<path style=" stroke:none;fill-rule:nonzero;fill:rgb(39.99939%,39.99939%,39.99939%);fill-opacity:0.3;" d="M 83.507812 316.160156 L 83.578125 317.453125 L 74.15625 318.519531 L 73.503906 316.828125 Z M 83.507812 316.160156 "/>
<path style=" stroke:none;fill-rule:nonzero;fill:rgb(39.99939%,39.99939%,39.99939%);fill-opacity:0.3;" d="M 153.402344 327.175781 L 150.644531 319.609375 L 147.574219 311.320312 L 155.847656 308.496094 L 165.210938 332.113281 L 156.453125 335.023438 Z M 153.402344 327.175781 "/>
<path style=" stroke:none;fill-rule:nonzero;fill:rgb(39.99939%,39.99939%,39.99939%);fill-opacity:0.3;" d="M 170.464844 302.867188 L 176.375 300.507812 L 179.160156 308 L 172.722656 309.457031 Z M 170.464844 302.867188 "/>
<path style=" stroke:none;fill-rule:nonzero;fill:rgb(39.99939%,39.99939%,39.99939%);fill-opacity:0.3;" d="M 156.882812 308 L 169.402344 303.300781 L 171.519531 309.402344 L 158.613281 312.257812 Z M 156.882812 308 "/>
<path style=" stroke:none;fill-rule:nonzero;fill:rgb(39.99939%,39.99939%,39.99939%);fill-opacity:0.3;" d="M 159.058594 313.269531 L 171.890625 310.382812 L 178.363281 327.503906 L 166.347656 331.699219 Z M 159.058594 313.269531 "/>
<path style=" stroke:none;fill-rule:nonzero;fill:rgb(39.99939%,39.99939%,39.99939%);fill-opacity:0.3;" d="M 173.25 310.382812 L 179.359375 308.902344 L 185.613281 324.898438 L 179.351562 327.136719 Z M 173.25 310.382812 "/>
<path style=" stroke:none;fill-rule:nonzero;fill:rgb(39.99939%,39.99939%,39.99939%);fill-opacity:0.3;" d="M 177.464844 300.101562 L 215.988281 287.214844 L 226.585938 313.207031 L 206.621094 319.480469 L 193.902344 323.515625 L 187.050781 325.710938 Z M 177.464844 300.101562 "/>
<path style=" stroke:none;fill-rule:nonzero;fill:rgb(39.99939%,39.99939%,39.99939%);fill-opacity:0.3;" d="M 170.882812 298.132812 L 171.335938 299.355469 L 164.140625 302.050781 L 163.644531 300.878906 L 165.101562 300.277344 Z M 170.882812 298.132812 "/>
<path style=" stroke:none;fill-rule:nonzero;fill:rgb(39.99939%,39.99939%,39.99939%);fill-opacity:0.3;" d="M 191.964844 290.535156 L 192.542969 291.980469 L 172.402344 298.882812 L 171.972656 297.730469 L 173.394531 297.203125 L 183.226562 293.519531 Z M 191.964844 290.535156 "/>
<path style=" stroke:none;fill-rule:nonzero;fill:rgb(39.99939%,39.99939%,39.99939%);fill-opacity:0.3;" d="M 216.980469 286.871094 L 228.015625 283.148438 L 237.769531 307.71875 L 226.636719 311.421875 Z M 216.980469 286.871094 "/>
<path style=" stroke:none;fill-rule:nonzero;fill:rgb(39.99939%,39.99939%,39.99939%);fill-opacity:0.3;" d="M 229.082031 282.769531 L 236.707031 280.316406 L 245.445312 302.386719 L 237.6875 304.996094 Z M 229.082031 282.769531 "/>
<path style=" stroke:none;fill-rule:nonzero;fill:rgb(39.99939%,39.99939%,39.99939%);fill-opacity:0.3;" d="M 233.429688 278.382812 L 222.039062 282.0625 L 221.773438 281.378906 L 230.230469 278.464844 Z M 233.429688 278.382812 "/>
<path style=" stroke:none;fill-rule:nonzero;fill:rgb(39.99939%,39.99939%,39.99939%);fill-opacity:0.3;" d="M 162.175781 301.484375 L 162.695312 302.714844 L 139.9375 311.179688 L 139.160156 311.308594 L 138.605469 311.25 L 138.109375 310.871094 L 137.347656 308.925781 L 138.984375 308.570312 L 156.191406 303.964844 Z M 162.175781 301.484375 "/>
<g clip-path="url(#clip7)" clip-rule="nonzero">
<path style=" stroke:none;fill-rule:nonzero;fill:rgb(39.99939%,39.99939%,39.99939%);fill-opacity:0.3;" d="M 161.457031 641.621094 L 129.042969 619.125 L 96.625 596.628906 L 53.527344 587.390625 L 21.738281 580.246094 L -10.046875 573.101562 L -22.265625 579.429688 L -27.859375 582.480469 L -38.214844 578.386719 L -40.015625 564.527344 L -41.621094 550.703125 L -42.058594 540.363281 L -41.609375 536.050781 L -43.230469 514.382812 L -45.402344 504.789062 L -49.25 495.296875 L -39.144531 489.789062 L -38.132812 487.519531 L -38.230469 483.769531 L -39.339844 479.320312 L -40.730469 473.128906 L -42.574219 469.464844 L -44.789062 464.144531 L -53.484375 465.109375 L -55.359375 465.554688 L -55.804688 463.878906 L -56.105469 462.734375 L -60.546875 447.089844 L -43.199219 441.273438 L -46.875 433.695312 L -47.773438 431.605469 L -34.609375 427.066406 L -31.457031 425.914062 L -30.167969 424.917969 L -30.03125 423.773438 L -29.925781 423.078125 L -30.496094 420.625 L -37.421875 399.222656 L -45.3125 372.65625 L -44.695312 370.914062 L -42.359375 370.105469 L -3.644531 367.007812 L 21.472656 362.910156 L 22.441406 362.753906 L 23.304688 362.613281 L 43.214844 358.929688 L 84.648438 351.324219 L 85.4375 349.953125 L 109.960938 345.765625 L 141.949219 340.460938 L 172.4375 330.96875 L 187.121094 325.820312 L 202.765625 320.890625 L 243.59375 307.863281 L 246.421875 307.089844 L 257.210938 303.671875 L 300.0625 467.375 L 303.292969 497.40625 L 303.160156 497.570312 L 300.269531 502.375 L 298.59375 507.109375 L 298.253906 507.742188 L 298.085938 508.527344 L 296.367188 512.589844 L 293.625 518.652344 L 293.191406 519.40625 L 292.785156 520.417969 L 291.457031 523.835938 L 288.925781 530.601562 L 288.707031 531.1875 L 288.449219 531.867188 L 286.640625 536.808594 L 285.890625 541.824219 L 285.582031 542.503906 L 285.378906 543.449219 L 285.070312 547.777344 L 284.773438 553.613281 L 284.714844 554.550781 L 284.675781 555.734375 L 284.839844 558.902344 L 285.050781 561.714844 L 315.515625 564.160156 L 316.367188 579.804688 L 325.507812 582.605469 L 334.625 585.28125 L 335.03125 585.492188 L 334.992188 585.683594 L 329.460938 595.515625 L 325.46875 596.4375 L 321.78125 599.507812 L 311.335938 606.265625 L 300.890625 616.40625 L 289.832031 621.933594 L 280.613281 625.007812 L 172.042969 660.21875 L 176.921875 652.261719 L 175.371094 651.164062 Z M 161.457031 641.621094 "/>
</g>
<g clip-path="url(#clip8)" clip-rule="nonzero">
<path style=" stroke:none;fill-rule:nonzero;fill:rgb(39.99939%,39.99939%,39.99939%);fill-opacity:0.3;" d="M -2.695312 366.738281 L -4.535156 359.265625 L 19.789062 357.464844 L 21.453125 362.730469 Z M -2.695312 366.738281 "/>
</g>
<path style=" stroke:none;fill-rule:nonzero;fill:rgb(39.99939%,39.99939%,39.99939%);fill-opacity:0.3;" d="M 220.625 281.699219 L 220.953125 282.539062 L 213.582031 284.992188 L 213.027344 283.488281 Z M 220.625 281.699219 "/>
<path style=" stroke:none;fill-rule:nonzero;fill:rgb(39.99939%,39.99939%,39.99939%);fill-opacity:0.3;" d="M 211.746094 283.789062 L 212.34375 285.398438 L 206.851562 287.199219 L 206.464844 286.113281 L 210.875 283.992188 Z M 211.746094 283.789062 "/>
<path style=" stroke:none;fill-rule:nonzero;fill:rgb(39.99939%,39.99939%,39.99939%);fill-opacity:0.3;" d="M 205.609375 286.523438 L 205.964844 287.519531 L 194.085938 291.46875 L 193.488281 290.011719 L 195.820312 289.214844 L 203.195312 287.679688 Z M 205.609375 286.523438 "/>
<g clip-path="url(#clip9)" clip-rule="nonzero">
<path style=" stroke:none;fill-rule:nonzero;fill:rgb(39.99939%,39.99939%,39.99939%);fill-opacity:0.3;" d="M 83.828125 351.222656 L 23.351562 362.5 L 22.519531 359.382812 L 42.769531 353.347656 L 55.351562 350.800781 L 57.78125 349.464844 L 59.886719 347.976562 L 61.242188 346.542969 L 62.445312 344.882812 L 63.695312 342.234375 L 64.910156 336.460938 L 65.175781 335.652344 L 66.789062 334.070312 L 66.492188 333.160156 L 67.417969 332.199219 L 68.640625 331.425781 L 70.832031 330.613281 L 76.21875 329.546875 Z M 83.828125 351.222656 "/>
</g>
<path style=" stroke:none;fill-rule:nonzero;fill:rgb(39.99939%,39.99939%,39.99939%);fill-opacity:0.3;" d="M 70.476562 329.777344 L 68.097656 330.683594 L 66.5 331.621094 L 66.113281 332 L 64.574219 327.304688 L 63.191406 319.3125 L 72.179688 318.515625 L 75.75 328.472656 Z M 70.476562 329.777344 "/>
<path style=" stroke:none;fill-rule:nonzero;fill:rgb(39.99939%,39.99939%,39.99939%);fill-opacity:0.3;" d="M 63.542969 337.25 L 62.679688 341.855469 L 61.632812 344.199219 L 60.699219 345.660156 L 59.433594 346.917969 L 57.386719 348.40625 L 55.007812 349.867188 L 41.101562 352.953125 L 22.269531 358.75 L 21.710938 357.042969 L 52.351562 348.203125 Z M 63.542969 337.25 "/>
<path style=" stroke:none;fill-rule:nonzero;fill:rgb(39.99939%,39.99939%,39.99939%);fill-opacity:0.3;" d="M 330.128906 66.996094 L 329.242188 67.027344 L 328.140625 67.109375 L 312.804688 68.140625 L 297.648438 69.15625 L 290.902344 40.816406 L 323.4375 39.410156 Z M 330.128906 66.996094 "/>
<path style=" stroke:none;fill-rule:nonzero;fill:rgb(39.99939%,39.99939%,39.99939%);fill-opacity:0.3;" d="M 271.882812 70.097656 L 285.894531 69.859375 L 286.578125 72.621094 L 280.921875 72.933594 L 259.027344 71.78125 L 258.855469 70.71875 Z M 271.882812 70.097656 "/>
<g clip-path="url(#clip10)" clip-rule="nonzero">
<path style=" stroke:none;fill-rule:nonzero;fill:rgb(39.99939%,39.99939%,39.99939%);fill-opacity:0.3;" d="M 330.15625 67.074219 L 364.035156 64.347656 L 367.859375 69.578125 L 360.492188 66.175781 L 333.761719 68.941406 L 330.859375 69.304688 Z M 330.15625 67.074219 "/>
</g>
<path style=" stroke:none;fill-rule:nonzero;fill:rgb(39.99939%,39.99939%,39.99939%);fill-opacity:0.3;" d="M 313.609375 68.1875 L 328.203125 67.261719 L 328.867188 69.550781 L 328.847656 69.554688 L 323.625 70.167969 L 313.613281 70.78125 Z M 313.609375 68.1875 "/>
<path style=" stroke:none;fill-rule:nonzero;fill:rgb(39.99939%,39.99939%,39.99939%);fill-opacity:0.3;" d="M 311.941406 68.292969 L 311.945312 70.882812 L 308.570312 71.089844 L 297.511719 72.011719 L 288.417969 72.515625 L 287.703125 69.742188 L 297.652344 69.195312 Z M 311.941406 68.292969 "/>
<g clip-path="url(#clip11)" clip-rule="nonzero">
<path style=" stroke:none;fill-rule:nonzero;fill:rgb(39.99939%,39.99939%,39.99939%);fill-opacity:0.3;" d="M 271.839844 69.957031 L 258.824219 70.421875 L 255.144531 70.542969 L 228.425781 69.566406 L 215.273438 69.253906 L 210.570312 68.941406 L 207.207031 69.0625 L 193.886719 68.746094 L 182.628906 68.757812 L 173.058594 68.769531 L 165.554688 68.65625 L 159.34375 68.542969 L 152.746094 68.425781 L 148.738281 68.523438 L 118.710938 63.71875 L 106.207031 61.546875 L 103.21875 60.984375 L 99.464844 60.128906 L 96.101562 59.398438 L 91.574219 58.542969 L 88.535156 58.066406 L 34.28125 -281.773438 L 101.039062 -277.683594 L 130.421875 -276.542969 L 146.941406 -275.273438 L 161.644531 -273.710938 L 183.023438 -272.246094 L 231.144531 -265.09375 L 240.042969 -263.800781 L 248.550781 -263.515625 L 255.328125 -258.707031 L 255.460938 -257.847656 L 257.1875 -243.292969 L 279.1875 -241.78125 L 309.613281 -220.199219 L 307.292969 -217.757812 L 301.339844 -209.265625 L 299.796875 -206.4375 L 299.359375 -204.238281 L 300.578125 -200.316406 L 302.128906 -196.171875 L 302.90625 -193.449219 L 303.238281 -191.101562 L 302.585938 -182.824219 L 303.039062 -178.464844 L 303.265625 -172.914062 L 304.484375 -168.203125 L 305.042969 -164.871094 L 305.488281 -161.078125 L 305.160156 -158.878906 L 303.839844 -156.363281 L 302.847656 -154.6875 L 302.078125 -151.125 L 302.304688 -147.039062 L 303.652344 -143.757812 L 306.527344 -140.828125 L 311.5 -136.4375 L 315.371094 -132.878906 L 319.570312 -129.949219 L 322.886719 -126.390625 L 326.867188 -122.941406 L 331.074219 -120.125 L 338.359375 -120.972656 L 341.113281 -123.65625 L 342.113281 -125.53125 L 386.394531 -127.644531 L 384.285156 -125.398438 L 311.917969 -42.167969 L 292.023438 -16.851562 L 318.933594 -9.722656 L 325.910156 -7.695312 L 330.472656 -6.257812 L 343.976562 -3.730469 L 348.003906 -2.460938 L 353.542969 -7.21875 L 403.386719 -55.496094 L 405.664062 -57.089844 L 411.226562 -63.332031 L 411.316406 -65.652344 L 413.332031 -66.542969 L 423.472656 -72.6875 L 432.382812 -77.605469 L 432.324219 -77.722656 L 433.378906 -78.226562 L 435.097656 -79.863281 L 435.09375 -81.734375 L 433.902344 -83.25 L 470.6875 -125.230469 L 469.460938 -127.449219 L 467.191406 -129.53125 L 462.679688 -132.582031 L 456.53125 -135.144531 L 452.9375 -137.082031 L 441.601562 -138.597656 L 436.976562 -139.566406 L 432.671875 -139.214844 L 424.054688 -139.59375 L 424.050781 -142.753906 L 437.3125 -183.886719 L 438.351562 -185.488281 L 440.203125 -187.738281 L 442.617188 -191.273438 L 444.703125 -194.414062 L 445.511719 -195.886719 L 446.070312 -197.695312 L 446.628906 -199.558594 L 446.734375 -201.898438 L 446.6875 -202.078125 L 454.054688 -204.789062 L 458.515625 -204.425781 L 466.144531 -202.308594 L 474.28125 -201.660156 L 479.382812 -201.261719 L 491.945312 -199.785156 L 501.375 -196.605469 L 541.066406 -193.707031 L 554.078125 -202.730469 L 565.246094 -200.164062 L 568.945312 -199.222656 L 574.371094 -198.199219 L 579.257812 -196.53125 L 582.542969 -194.792969 L 584.355469 -193.539062 L 586.28125 -192.179688 L 584.625 -190.0625 L 574.59375 -179.597656 L 564.886719 -182.800781 L 550.0625 -184.363281 L 516.355469 -155.769531 L 505.753906 -117.519531 L 513.933594 -103.660156 L 512.285156 -81.210938 L 520.179688 -79.015625 L 528.675781 -78.417969 L 560.230469 -76.246094 L 559.3125 -72.617188 L 556.945312 -63.421875 L 553.972656 -55.0625 L 550.285156 -45.46875 L 547.925781 -37.5 L 547.503906 -36.460938 L 547.082031 -35.359375 L 543.980469 -30.289062 L 541.910156 -26.65625 L 537.128906 -17.023438 L 533.464844 -6.449219 L 528.976562 1.597656 L 532.234375 6.535156 L 538.046875 9.453125 L 535.761719 12.640625 L 535.269531 13.34375 L 534.851562 13.941406 L 531.53125 18.0625 L 527.113281 14.660156 L 523.480469 14.460938 L 517.574219 25.523438 L 512.695312 34.773438 L 500.472656 43.101562 L 495.605469 47.015625 L 487.425781 48.597656 L 485.71875 48.835938 L 483.714844 49.265625 L 465.367188 52.800781 L 463.984375 52.992188 L 462.171875 53.21875 L 431.554688 55.648438 L 429.890625 55.753906 L 427.308594 55.957031 L 415.753906 56.417969 L 413.789062 56.449219 L 408.328125 56.894531 L 407.609375 56.941406 L 406.632812 57.082031 L 387.117188 58.933594 L 386.234375 58.925781 L 385.160156 58.882812 L 366.566406 63.765625 L 365.441406 64.011719 L 364.011719 64.253906 L 330.128906 66.996094 L 323.4375 39.410156 L 290.902344 40.816406 L 297.648438 69.15625 L 287.710938 69.597656 L 286.789062 69.617188 L 285.9375 69.644531 Z M 271.839844 69.957031 "/>
</g>
<path style=" stroke:none;fill-rule:nonzero;fill:rgb(39.99939%,39.99939%,39.99939%);fill-opacity:0.3;" d="M 20.109375 52.042969 L 19.929688 51.515625 L 26.582031 52.042969 Z M 20.109375 52.042969 "/>
<path style=" stroke:none;fill-rule:nonzero;fill:rgb(39.99939%,39.99939%,39.99939%);fill-opacity:0.3;" d="M 27.859375 52.011719 L 27.839844 51.972656 L 28.425781 51.996094 Z M 27.859375 52.011719 "/>
<path style=" stroke:none;fill-rule:nonzero;fill:rgb(39.99939%,39.99939%,39.99939%);fill-opacity:0.3;" d="M -3.433594 52.304688 L 1.5 50.792969 L 8.46875 49.972656 L 8.488281 51.113281 Z M -3.433594 52.304688 "/>
<path style=" stroke:none;fill-rule:nonzero;fill:rgb(39.99939%,39.99939%,39.99939%);fill-opacity:0.3;" d="M 9.472656 51.015625 L 9.464844 49.972656 L 11.644531 50.195312 L 14.066406 50.550781 L 16.4375 50.910156 L 18.144531 51.3125 L 18.359375 51.960938 L 11.488281 50.8125 Z M 9.472656 51.015625 "/>
<path style=" stroke:none;fill-rule:nonzero;fill:rgb(39.99939%,39.99939%,39.99939%);fill-opacity:0.3;" d="M 88.535156 58.066406 L 87.691406 57.9375 L 83.03125 57.207031 L 78.117188 55.984375 L 72.609375 55.007812 L 68.210938 54.402344 L 64.585938 53.421875 L 59.28125 52.203125 L 54.234375 51.71875 L 52.960938 51.71875 L 51.429688 51.429688 L 45.570312 51.574219 L 42.351562 51.433594 L 36.640625 51.003906 L 31.988281 50.351562 L 24.683594 49.640625 L 17.097656 48.792969 L 11.5 48.484375 L 6.285156 48.355469 L -1.632812 49.535156 L -6.324219 50.9375 L -10.574219 52.777344 L -15.660156 54.886719 L -20.792969 57.617188 L -26.945312 60.449219 L -33.207031 62.601562 L -39.464844 64.554688 L -47.574219 66.902344 L -55.886719 68.277344 L -62.96875 68.871094 L -68.335938 68.785156 L -73.78125 68.398438 L -82.675781 68.023438 L -91.464844 67.742188 L -97.800781 67.554688 L -105.46875 66.984375 L -112.523438 66.3125 L -117.226562 65.542969 L -123.984375 64.507812 L -129.085938 64.6875 L -135.214844 65.46875 L -139.507812 65.960938 L -144.027344 66.351562 L -147.707031 66.648438 L -153.539062 67.15625 L -158.03125 67.824219 L -161.996094 68.714844 L -165.0625 67.710938 L -166.898438 67.121094 L -168.847656 65.5625 L -169.207031 66.273438 L -170.074219 65.890625 L -221.679688 38.074219 L -238.550781 18.289062 L -244.414062 -22.089844 L -235.960938 -45.117188 L -235.5625 -46.65625 L -235.175781 -47.957031 L -233.578125 -55.101562 L -233.191406 -56.222656 L -232.859375 -57.441406 L -225.90625 -74.460938 L -225.261719 -75.5625 L -224.675781 -76.5625 L -218.558594 -89.855469 L -218.171875 -90.863281 L -218.035156 -90.949219 L -211.917969 -106.804688 L -201.210938 -135.101562 L -212.691406 -139.84375 L -213.613281 -140.433594 L -214.917969 -141.265625 L -221.707031 -144.660156 L -226.054688 -147.257812 L -37.523438 -138.753906 L -34.582031 -226.355469 L -26.453125 -227.773438 L -30.132812 -284.390625 L 33.429688 -281.824219 L 34.28125 -281.773438 Z M 88.535156 58.066406 "/>
<g clip-path="url(#clip12)" clip-rule="nonzero">
<path style=" stroke:none;fill-rule:nonzero;fill:rgb(39.99939%,39.99939%,39.99939%);fill-opacity:0.3;" d="M 371.515625 151.8125 L 354.511719 160.84375 L 353.550781 159.6875 L 370.628906 152.195312 Z M 371.515625 151.8125 "/>
</g>
<g clip-path="url(#clip13)" clip-rule="nonzero">
<path style=" stroke:none;fill-rule:nonzero;fill:rgb(39.99939%,39.99939%,39.99939%);fill-opacity:0.3;" d="M 426.847656 164.113281 L 433.597656 173.359375 L 406.960938 181.578125 L 402.085938 183.125 L 402.644531 183.75 L 403.207031 184.378906 L 409.90625 182.347656 L 434.277344 174.511719 L 440.324219 182.945312 L 427.097656 187.835938 L 427.472656 188.632812 L 427.914062 189.570312 L 441.320312 184.386719 L 449.355469 194.847656 L 435.542969 199.585938 L 436.09375 200.15625 L 436.5625 200.644531 L 450.675781 196.097656 L 456.171875 203.222656 L 433.136719 210.988281 L 431.460938 211.488281 L 418.25 215.792969 L 406.882812 219.476562 L 400.378906 221.84375 L 376.679688 190.605469 L 356.011719 162.921875 L 386.070312 146.777344 L 402.554688 170.175781 L 394.738281 172.691406 L 394.976562 173.253906 L 395.21875 173.820312 L 405.695312 170.453125 Z M 426.847656 164.113281 "/>
</g>
<path style=" stroke:none;fill-rule:nonzero;fill:rgb(39.99939%,39.99939%,39.99939%);fill-opacity:0.3;" d="M 281.269531 158.4375 L 276.320312 127.769531 L 283.683594 115.796875 L 301.730469 106.792969 L 318.402344 121.308594 L 317.773438 122.355469 L 317.523438 123.90625 L 317.773438 125.558594 L 303.484375 131.957031 Z M 281.269531 158.4375 "/>
<g clip-path="url(#clip14)" clip-rule="nonzero">
<path style=" stroke:none;fill-rule:nonzero;fill:rgb(39.99939%,39.99939%,39.99939%);fill-opacity:0.3;" d="M 353.777344 162.828125 L 383.21875 202.757812 L 364.296875 213.113281 L 365.164062 214.636719 L 384.582031 204.046875 L 398.417969 222.613281 L 390.769531 225.648438 L 373.222656 231.542969 L 366.328125 233.300781 L 354.039062 237.910156 L 349.851562 239.394531 L 301.171875 255.75 L 289.699219 196.527344 Z M 353.777344 162.828125 "/>
</g>
<path style=" stroke:none;fill-rule:nonzero;fill:rgb(39.99939%,39.99939%,39.99939%);fill-opacity:0.3;" d="M 316.867188 146.738281 L 315.980469 147.296875 L 332.863281 171.207031 L 323.996094 175.636719 L 316.542969 164.113281 L 315.136719 164.8125 L 312.882812 161.148438 L 312.53125 161.351562 L 312.082031 161.613281 L 314.820312 165.980469 L 316.191406 165.378906 L 322.691406 176.191406 L 314.945312 180.207031 L 305.25 165.070312 L 304.117188 165.773438 L 313.574219 180.996094 L 307.746094 184.074219 L 297.109375 166.800781 L 296.28125 167.335938 L 295.351562 167.933594 L 306.101562 184.988281 L 289.707031 192.734375 L 289.167969 192.671875 L 288.625 192.386719 L 288.289062 191.9375 L 288.085938 191.585938 L 281.761719 160.140625 L 304.070312 133.660156 L 316.066406 128.109375 L 318.523438 128.234375 L 320.417969 129.761719 L 322.742188 130.132812 L 325.234375 129.476562 L 352.125 161.128906 L 334.480469 170.300781 L 317.722656 146.195312 Z M 316.867188 146.738281 "/>
<g clip-path="url(#clip15)" clip-rule="nonzero">
<path style=" stroke:none;fill-rule:nonzero;fill:rgb(39.99939%,39.99939%,39.99939%);fill-opacity:0.3;" d="M 329.003906 120.292969 L 332.960938 117.828125 L 344.832031 118.835938 L 341.453125 130.632812 L 342.34375 130.820312 L 343.230469 131.007812 L 346.90625 118.957031 L 358.980469 120.121094 L 354.265625 132.726562 L 355.203125 132.976562 L 356.082031 133.214844 L 360.839844 120.355469 L 409.207031 125.597656 L 415.96875 130.683594 L 416.085938 132.394531 L 409.207031 133.769531 L 406.585938 133.691406 L 403.691406 134.71875 L 371.515625 151.8125 L 370.628906 152.195312 L 353.550781 159.6875 L 330.519531 131.902344 L 331.167969 131.140625 L 327.59375 128.230469 L 329.386719 126.0625 L 329.78125 124.242188 L 329.777344 122.519531 Z M 329.003906 120.292969 "/>
</g>
<path style=" stroke:none;fill-rule:nonzero;fill:rgb(39.99939%,39.99939%,39.99939%);fill-opacity:0.3;" d="M 286.578125 72.621094 L 288.648438 80.996094 L 276.972656 83.5625 L 261.5 86.996094 L 259.027344 71.78125 L 280.921875 72.933594 Z M 286.578125 72.621094 "/>
<path style=" stroke:none;fill-rule:nonzero;fill:rgb(39.99939%,39.99939%,39.99939%);fill-opacity:0.3;" d="M 289.125 82.347656 L 290.992188 88.445312 L 294.175781 95.960938 L 297.203125 100.808594 L 298.867188 103.597656 L 299.042969 104.363281 L 298.515625 105.054688 L 280.753906 114.902344 L 277.011719 120.472656 L 275.589844 122.3125 L 274.6875 123.167969 L 273.535156 123.753906 L 272.386719 123.835938 L 272.003906 123.789062 L 270.785156 123.011719 L 268.078125 121.386719 L 266.75 118.578125 L 265.757812 114.144531 L 261.683594 88.4375 Z M 289.125 82.347656 "/>
<path style=" stroke:none;fill-rule:nonzero;fill:rgb(39.99939%,39.99939%,39.99939%);fill-opacity:0.3;" d="M 306.617188 103.277344 L 334.402344 90.429688 L 339.582031 106.335938 Z M 306.617188 103.277344 "/>
<path style=" stroke:none;fill-rule:nonzero;fill:rgb(39.99939%,39.99939%,39.99939%);fill-opacity:0.3;" d="M 290.839844 82.039062 L 329.742188 73.175781 L 334.378906 87.382812 L 301.097656 103.40625 L 297.46875 97.867188 L 295.046875 93.859375 L 292.757812 88.070312 Z M 290.839844 82.039062 "/>
<path style=" stroke:none;fill-rule:nonzero;fill:rgb(39.99939%,39.99939%,39.99939%);fill-opacity:0.3;" d="M 305.820312 106.882812 L 340.039062 109.113281 L 325.222656 119.789062 L 323.585938 119.550781 L 321.488281 119.671875 L 319.808594 120.273438 Z M 305.820312 106.882812 "/>
<g clip-path="url(#clip16)" clip-rule="nonzero">
<path style=" stroke:none;fill-rule:nonzero;fill:rgb(39.99939%,39.99939%,39.99939%);fill-opacity:0.3;" d="M 367.859375 69.578125 L 371.960938 75.175781 L 336.332031 86.613281 L 330.859375 69.304688 L 333.761719 68.941406 L 360.492188 66.175781 Z M 367.859375 69.578125 "/>
</g>
<g clip-path="url(#clip17)" clip-rule="nonzero">
<path style=" stroke:none;fill-rule:nonzero;fill:rgb(39.99939%,39.99939%,39.99939%);fill-opacity:0.3;" d="M 336.75 89.324219 L 373.46875 77.515625 L 383.808594 92.5625 L 342.4375 106.757812 Z M 336.75 89.324219 "/>
</g>
<path style=" stroke:none;fill-rule:nonzero;fill:rgb(39.99939%,39.99939%,39.99939%);fill-opacity:0.3;" d="M 328.867188 69.550781 L 329.574219 71.984375 L 313.617188 75.472656 L 313.613281 70.78125 L 323.625 70.167969 L 328.847656 69.554688 Z M 328.867188 69.550781 "/>
<path style=" stroke:none;fill-rule:nonzero;fill:rgb(39.99939%,39.99939%,39.99939%);fill-opacity:0.3;" d="M 311.945312 70.882812 L 311.949219 75.839844 L 290.476562 80.539062 L 288.417969 72.515625 L 297.511719 72.011719 L 308.570312 71.089844 Z M 311.945312 70.882812 "/>
<g clip-path="url(#clip18)" clip-rule="nonzero">
<path style=" stroke:none;fill-rule:nonzero;fill:rgb(39.99939%,39.99939%,39.99939%);fill-opacity:0.3;" d="M 375.199219 101.582031 L 405.445312 123.710938 L 372.390625 119.566406 L 373.597656 110.585938 L 371.941406 110.414062 L 370.683594 119.332031 L 331.863281 116.199219 L 341.777344 109.605469 L 373.433594 99.8125 L 372.273438 108.039062 L 374.15625 108.265625 Z M 375.199219 101.582031 "/>
</g>
<path style=" stroke:none;fill-rule:nonzero;fill:rgb(39.99939%,39.99939%,39.99939%);fill-opacity:0.3;" d="M 226.640625 191.652344 L 231.625 206.746094 L 241.929688 206.984375 L 246.03125 208.035156 L 247.128906 208.484375 L 248.734375 209 L 254.359375 210.308594 L 284.109375 216.441406 L 287.167969 230.59375 L 254.882812 231.078125 L 254.898438 231.472656 L 254.917969 231.867188 L 287.261719 231.4375 L 293.054688 259.011719 L 279.476562 263.515625 L 278.769531 263.71875 L 272.011719 265.867188 L 261.566406 268.941406 L 252.117188 272.585938 L 245.078125 274.921875 L 199.675781 211.449219 L 213.835938 196.878906 Z M 226.640625 191.652344 "/>
<path style=" stroke:none;fill-rule:nonzero;fill:rgb(39.99939%,39.99939%,39.99939%);fill-opacity:0.3;" d="M 91.886719 171.46875 L 95.507812 182.09375 L 91.191406 171.683594 Z M 91.886719 171.46875 "/>
<path style=" stroke:none;fill-rule:nonzero;fill:rgb(39.99939%,39.99939%,39.99939%);fill-opacity:0.3;" d="M 85.359375 152.1875 L 91.609375 170.113281 L 90.683594 170.394531 Z M 85.359375 152.1875 "/>
<path style=" stroke:none;fill-rule:nonzero;fill:rgb(39.99939%,39.99939%,39.99939%);fill-opacity:0.3;" d="M 52.15625 53.234375 L 52.675781 53.277344 L 54.773438 59.742188 Z M 52.15625 53.234375 "/>
<path style=" stroke:none;fill-rule:nonzero;fill:rgb(39.99939%,39.99939%,39.99939%);fill-opacity:0.3;" d="M 91.484375 69.394531 L 100.964844 98.0625 L 72.402344 106.789062 L 62.589844 78.792969 Z M 91.484375 69.394531 "/>
<path style=" stroke:none;fill-rule:nonzero;fill:rgb(39.99939%,39.99939%,39.99939%);fill-opacity:0.3;" d="M 61.855469 77.492188 L 54.210938 53.675781 L 89.027344 60.179688 L 91.289062 68.128906 Z M 61.855469 77.492188 "/>
<path style=" stroke:none;fill-rule:nonzero;fill:rgb(39.99939%,39.99939%,39.99939%);fill-opacity:0.3;" d="M 247.851562 181.878906 L 258.042969 208.921875 L 257.128906 209.164062 L 256.070312 209.0625 L 252.238281 208.234375 L 248.953125 207.375 L 246.945312 206.683594 L 245.171875 206.195312 L 240.191406 205.339844 L 234.128906 205.277344 L 233.507812 205.140625 L 233.203125 204.601562 L 228.558594 191.007812 Z M 247.851562 181.878906 "/>
<path style=" stroke:none;fill-rule:nonzero;fill:rgb(39.99939%,39.99939%,39.99939%);fill-opacity:0.3;" d="M 249.726562 180.933594 L 266.960938 170.921875 L 259.285156 206.820312 Z M 249.726562 180.933594 "/>
<path style=" stroke:none;fill-rule:nonzero;fill:rgb(39.99939%,39.99939%,39.99939%);fill-opacity:0.3;" d="M 268.394531 169.980469 L 279.695312 163.550781 L 284.527344 186.351562 L 285.070312 189.628906 L 284.640625 192.484375 L 283.785156 194.421875 L 282.710938 196.261719 L 281.746094 199.320312 L 281.535156 201.769531 L 283.59375 214.3125 L 272.242188 211.914062 L 269.808594 194.925781 L 269.160156 194.933594 L 271.628906 211.792969 L 260.222656 209.023438 Z M 268.394531 169.980469 "/>
<path style=" stroke:none;fill-rule:nonzero;fill:rgb(39.99939%,39.99939%,39.99939%);fill-opacity:0.3;" d="M 237.378906 150.78125 L 248.078125 179.578125 L 228.421875 189.300781 L 217.011719 162.800781 Z M 237.378906 150.78125 "/>
<path style=" stroke:none;fill-rule:nonzero;fill:rgb(39.99939%,39.99939%,39.99939%);fill-opacity:0.3;" d="M 273.457031 132.011719 L 273.964844 131.851562 L 274.386719 131.953125 L 274.601562 132.332031 L 279.339844 161.734375 L 249.105469 178.367188 L 238.796875 150.105469 Z M 273.457031 132.011719 "/>
<path style=" stroke:none;fill-rule:nonzero;fill:rgb(39.99939%,39.99939%,39.99939%);fill-opacity:0.3;" d="M 272.003906 123.789062 L 270.824219 123.640625 L 269.671875 123.058594 L 268.316406 121.890625 L 268.078125 121.386719 L 270.785156 123.011719 Z M 272.003906 123.789062 "/>
<path style=" stroke:none;fill-rule:nonzero;fill:rgb(39.99939%,39.99939%,39.99939%);fill-opacity:0.3;" d="M 82.558594 140.210938 L 110.082031 129.171875 L 122.398438 160.398438 L 92.714844 169.804688 Z M 82.558594 140.210938 "/>
<path style=" stroke:none;fill-rule:nonzero;fill:rgb(39.99939%,39.99939%,39.99939%);fill-opacity:0.3;" d="M 103.773438 201.660156 L 115.707031 196.335938 L 123.578125 191.820312 L 129.9375 186.640625 L 133.164062 183.089844 L 147.726562 195.816406 L 142.441406 201.308594 L 137.320312 206.867188 L 133.09375 210.554688 L 129.644531 213.921875 L 123.570312 219.703125 L 110.957031 224.070312 L 107.3125 212.695312 L 119.660156 208.214844 L 119.613281 207.851562 L 119.558594 207.445312 L 107.011719 211.75 Z M 103.773438 201.660156 "/>
<path style=" stroke:none;fill-rule:nonzero;fill:rgb(39.99939%,39.99939%,39.99939%);fill-opacity:0.3;" d="M 93.25 171.320312 L 122.859375 161.914062 L 131.316406 181.929688 L 129.234375 184.167969 L 124.710938 188.386719 L 115.398438 194.179688 L 103.214844 200.058594 Z M 93.25 171.320312 "/>
<path style=" stroke:none;fill-rule:nonzero;fill:rgb(39.99939%,39.99939%,39.99939%);fill-opacity:0.3;" d="M 134.078125 181.863281 L 157.945312 160.527344 L 170.757812 172.644531 L 148.324219 194.667969 Z M 134.078125 181.863281 "/>
<path style=" stroke:none;fill-rule:nonzero;fill:rgb(39.99939%,39.99939%,39.99939%);fill-opacity:0.3;" d="M 200.484375 217.320312 L 185.527344 227.625 L 185.003906 227.804688 L 184.496094 227.902344 L 184.03125 227.828125 L 183.523438 227.671875 L 170.429688 215.703125 L 180.324219 205.988281 L 179.636719 205.542969 L 169.921875 215.257812 L 149.753906 196.902344 L 159.234375 187.625 L 167.785156 195.144531 L 168.117188 194.8125 L 168.453125 194.480469 L 160.167969 186.894531 L 172.40625 174.882812 L 176.25 180.019531 L 180.957031 186.488281 Z M 200.484375 217.320312 "/>
<path style=" stroke:none;fill-rule:nonzero;fill:rgb(39.99939%,39.99939%,39.99939%);fill-opacity:0.3;" d="M 173.835938 173.390625 L 215.503906 163.867188 L 225.957031 188.976562 L 225.988281 189.359375 L 225.691406 189.683594 L 216.910156 192.730469 L 213.074219 194.875 L 210.707031 197.019531 L 207.546875 200.023438 L 204.167969 203.667969 L 202.023438 206.121094 L 200.671875 207.300781 L 198.851562 208.835938 L 198.425781 209.011719 L 197.996094 208.808594 L 196.546875 206.804688 L 192.09375 199.910156 L 186.445312 190.855469 L 182.050781 184.621094 L 179.34375 180.953125 Z M 173.835938 173.390625 "/>
<path style=" stroke:none;fill-rule:nonzero;fill:rgb(39.99939%,39.99939%,39.99939%);fill-opacity:0.3;" d="M 124.019531 161.464844 L 152.199219 152.503906 L 156.234375 159.207031 L 152.863281 162.476562 L 142.710938 171.757812 L 132.273438 180.609375 Z M 124.019531 161.464844 "/>
<path style=" stroke:none;fill-rule:nonzero;fill:rgb(39.99939%,39.99939%,39.99939%);fill-opacity:0.3;" d="M 119.796875 150.570312 L 147.347656 141.476562 L 151.40625 151.113281 L 123.484375 159.921875 Z M 119.796875 150.570312 "/>
<path style=" stroke:none;fill-rule:nonzero;fill:rgb(39.99939%,39.99939%,39.99939%);fill-opacity:0.3;" d="M 111.105469 128.824219 L 138.496094 120.136719 L 142.425781 129.890625 L 115.132812 139.066406 Z M 111.105469 128.824219 "/>
<path style=" stroke:none;fill-rule:nonzero;fill:rgb(39.99939%,39.99939%,39.99939%);fill-opacity:0.3;" d="M 143.148438 131.421875 L 146.632812 139.925781 L 119.074219 148.910156 L 115.84375 140.78125 Z M 143.148438 131.421875 "/>
<path style=" stroke:none;fill-rule:nonzero;fill:rgb(39.99939%,39.99939%,39.99939%);fill-opacity:0.3;" d="M 172.378906 110.53125 L 195.433594 104.53125 L 197.167969 133.335938 L 185.492188 142.53125 Z M 172.378906 110.53125 "/>
<path style=" stroke:none;fill-rule:nonzero;fill:rgb(39.99939%,39.99939%,39.99939%);fill-opacity:0.3;" d="M 158.390625 158.648438 L 168.148438 156.941406 L 171.515625 155.914062 L 173.742188 155.101562 L 177.851562 152.738281 L 180.25 150.785156 L 183.5 147.285156 L 185.640625 145.007812 L 187.78125 142.890625 L 190.003906 140.773438 L 192.574219 139.308594 L 194.886719 138.332031 L 198.082031 137.488281 L 202.253906 137.019531 L 206.648438 137.070312 L 211.335938 137.417969 L 214.992188 162.113281 L 203.136719 164.632812 L 201.988281 164.882812 L 171.558594 171.367188 L 168.515625 168.570312 L 163.496094 163.652344 Z M 158.390625 158.648438 "/>
<path style=" stroke:none;fill-rule:nonzero;fill:rgb(39.99939%,39.99939%,39.99939%);fill-opacity:0.3;" d="M 140.148438 119.660156 L 170.214844 111.1875 L 184.023438 144.507812 L 178.414062 150.152344 L 170.625 153.929688 L 157.210938 156.925781 L 154.347656 152.5 L 152.820312 149.703125 L 149.859375 142.882812 L 164.339844 137.355469 L 164 136.503906 L 163.730469 135.8125 L 149.066406 141.433594 L 147.324219 137.195312 L 147.148438 136.75 L 144.449219 130.15625 L 144.082031 129.265625 Z M 140.148438 119.660156 "/>
<path style=" stroke:none;fill-rule:nonzero;fill:rgb(39.99939%,39.99939%,39.99939%);fill-opacity:0.3;" d="M 101.4375 99.542969 L 109.503906 126.484375 L 82.210938 137.3125 L 72.3125 108.507812 Z M 101.4375 99.542969 "/>
<path style=" stroke:none;fill-rule:nonzero;fill:rgb(39.99939%,39.99939%,39.99939%);fill-opacity:0.3;" d="M 108.257812 115.285156 L 132.421875 107.410156 L 136.230469 117.957031 L 111.515625 125.867188 Z M 108.257812 115.285156 "/>
<path style=" stroke:none;fill-rule:nonzero;fill:rgb(39.99939%,39.99939%,39.99939%);fill-opacity:0.3;" d="M 119.898438 66.003906 L 134.382812 69.03125 L 135.390625 69.253906 L 142.625 70.863281 L 154.238281 70.433594 L 156.84375 78.074219 L 127.414062 87.785156 Z M 119.898438 66.003906 "/>
<path style=" stroke:none;fill-rule:nonzero;fill:rgb(39.99939%,39.99939%,39.99939%);fill-opacity:0.3;" d="M 91.003906 60.4375 L 118.140625 65.675781 L 126.164062 88.4375 L 102.335938 96.148438 L 96.332031 78.003906 Z M 91.003906 60.4375 "/>
<path style=" stroke:none;fill-rule:nonzero;fill:rgb(39.99939%,39.99939%,39.99939%);fill-opacity:0.3;" d="M 102.992188 97.917969 L 126.320312 90.371094 L 131.8125 105.753906 L 107.710938 113.449219 Z M 102.992188 97.917969 "/>
<path style=" stroke:none;fill-rule:nonzero;fill:rgb(39.99939%,39.99939%,39.99939%);fill-opacity:0.3;" d="M 128.203125 89.761719 L 157.476562 79.976562 L 164.671875 97.207031 L 165.746094 99.980469 L 169.234375 108.316406 L 138.722656 117.140625 Z M 128.203125 89.761719 "/>
<path style=" stroke:none;fill-rule:nonzero;fill:rgb(39.99939%,39.99939%,39.99939%);fill-opacity:0.3;" d="M 156.140625 71.046875 L 184.242188 71.097656 L 195.199219 102.15625 L 171.402344 107.871094 Z M 156.140625 71.046875 "/>
<path style=" stroke:none;fill-rule:nonzero;fill:rgb(39.99939%,39.99939%,39.99939%);fill-opacity:0.3;" d="M 186.71875 71.535156 L 210.945312 71.734375 L 218.761719 96.429688 L 197.113281 101.464844 Z M 186.71875 71.535156 "/>
<path style=" stroke:none;fill-rule:nonzero;fill:rgb(39.99939%,39.99939%,39.99939%);fill-opacity:0.3;" d="M 197.726562 104.042969 L 220.265625 98.984375 L 230.046875 129.621094 L 220.667969 133.238281 L 214.074219 135.765625 L 204.46875 134.839844 L 202.183594 133.058594 L 199.605469 130.691406 Z M 197.726562 104.042969 "/>
<path style=" stroke:none;fill-rule:nonzero;fill:rgb(39.99939%,39.99939%,39.99939%);fill-opacity:0.3;" d="M 212.992188 138.363281 L 230.375 131.695312 L 236.824219 149.328125 L 216.363281 160.648438 Z M 212.992188 138.363281 "/>
<path style=" stroke:none;fill-rule:nonzero;fill:rgb(39.99939%,39.99939%,39.99939%);fill-opacity:0.3;" d="M 263.5 116.167969 L 263.667969 116.480469 L 264.949219 122.128906 L 266.058594 123.765625 L 267.582031 125.125 L 271.28125 126.953125 L 272.515625 127.652344 L 273.046875 127.886719 L 273.625 128.433594 L 273.914062 129.210938 L 273.789062 129.757812 L 238.082031 148.425781 L 231.660156 131.226562 Z M 263.5 116.167969 "/>
<path style=" stroke:none;fill-rule:nonzero;fill:rgb(39.99939%,39.99939%,39.99939%);fill-opacity:0.3;" d="M 212.917969 71.765625 L 255.71875 72.4375 L 258.304688 87.589844 L 220.75 96.386719 Z M 212.917969 71.765625 "/>
<path style=" stroke:none;fill-rule:nonzero;fill:rgb(39.99939%,39.99939%,39.99939%);fill-opacity:0.3;" d="M 221.535156 98.667969 L 259.09375 89.519531 L 262.929688 113.515625 L 230.960938 128.308594 Z M 221.535156 98.667969 "/>
<path style=" stroke:none;fill-rule:nonzero;fill:rgb(39.99939%,39.99939%,39.99939%);fill-opacity:0.3;" d="M 111.609375 225.90625 L 124.769531 221.992188 L 138.675781 238.371094 L 118.203125 244.390625 Z M 111.609375 225.90625 "/>
<path style=" stroke:none;fill-rule:nonzero;fill:rgb(39.99939%,39.99939%,39.99939%);fill-opacity:0.3;" d="M 117.699219 246.191406 L 148.320312 237.144531 L 170.882812 298.132812 L 165.101562 300.277344 L 163.644531 300.878906 L 159.570312 291.199219 L 135.71875 299.367188 L 135.605469 299.046875 L 132.15625 291.332031 L 150.640625 284.667969 L 150.46875 284.132812 L 150.296875 283.59375 L 131.597656 290.085938 L 130.382812 287.375 L 127.3125 279.078125 L 126.382812 277.140625 L 146.902344 269.777344 L 146.671875 269.265625 L 146.472656 268.832031 L 125.769531 275.867188 L 123.625 271.398438 L 123.011719 268.324219 L 122.285156 265.695312 L 142.898438 258.679688 L 142.582031 258.039062 L 142.269531 257.394531 L 121.898438 264.292969 L 120.554688 259.417969 Z M 117.699219 246.191406 "/>
<path style=" stroke:none;fill-rule:nonzero;fill:rgb(39.99939%,39.99939%,39.99939%);fill-opacity:0.3;" d="M 149.230469 236.90625 L 168.207031 231.816406 L 178.59375 262.195312 L 180.445312 261.597656 L 191.964844 290.535156 L 183.226562 293.519531 L 173.394531 297.203125 L 171.972656 297.730469 L 155.488281 253.261719 L 158.738281 252.273438 L 158.464844 251.585938 L 158.136719 250.824219 L 154.886719 251.757812 Z M 149.230469 236.90625 "/>
<path style=" stroke:none;fill-rule:nonzero;fill:rgb(39.99939%,39.99939%,39.99939%);fill-opacity:0.3;" d="M 201.21875 229.226562 L 207.324219 226.6875 L 221.503906 246.777344 L 209.765625 250.929688 Z M 201.21875 229.226562 "/>
<path style=" stroke:none;fill-rule:nonzero;fill:rgb(39.99939%,39.99939%,39.99939%);fill-opacity:0.3;" d="M 210.625 252.796875 L 223.113281 248.320312 L 241.976562 275.625 L 233.429688 278.382812 L 230.230469 278.464844 L 221.773438 281.378906 Z M 210.625 252.796875 "/>
<path style=" stroke:none;fill-rule:nonzero;fill:rgb(39.99939%,39.99939%,39.99939%);fill-opacity:0.3;" d="M 125.523438 220.734375 L 137.074219 209.363281 L 161.292969 231.855469 L 139.839844 237.988281 Z M 125.523438 220.734375 "/>
<path style=" stroke:none;fill-rule:nonzero;fill:rgb(39.99939%,39.99939%,39.99939%);fill-opacity:0.3;" d="M 138.285156 208.214844 L 148.171875 197.46875 L 180.492188 226.785156 L 162.90625 231.339844 Z M 138.285156 208.214844 "/>
<path style=" stroke:none;fill-rule:nonzero;fill:rgb(39.99939%,39.99939%,39.99939%);fill-opacity:0.3;" d="M 136.152344 300.585938 L 158.527344 292.832031 L 162.175781 301.484375 L 156.191406 303.964844 L 138.984375 308.570312 Z M 136.152344 300.585938 "/>
<path style=" stroke:none;fill-rule:nonzero;fill:rgb(39.99939%,39.99939%,39.99939%);fill-opacity:0.3;" d="M 215.273438 69.253906 L 208.632812 69.097656 L 207.207031 69.0625 L 210.570312 68.941406 Z M 215.273438 69.253906 "/>
<path style=" stroke:none;fill-rule:nonzero;fill:rgb(39.99939%,39.99939%,39.99939%);fill-opacity:0.3;" d="M 148.738281 68.523438 L 147.3125 68.554688 L 140.847656 68.5625 L 132.332031 67.085938 L 127.804688 66.109375 L 124.179688 65.132812 L 117.839844 63.914062 L 112.921875 62.9375 L 108.394531 61.960938 L 106.207031 61.546875 L 118.710938 63.71875 Z M 148.738281 68.523438 "/>
<path style=" stroke:none;fill-rule:nonzero;fill:rgb(39.99939%,39.99939%,39.99939%);fill-opacity:0.3;" d="M 52.960938 51.71875 L 51.546875 51.722656 L 51.429688 51.429688 Z M 52.960938 51.71875 "/>
<path style=" stroke:none;fill-rule:nonzero;fill:rgb(39.99939%,39.99939%,39.99939%);fill-opacity:0.3;" d="M 169.414062 231.472656 L 177.511719 229.230469 L 181.476562 229.695312 L 185.355469 230.941406 L 188.570312 228.433594 L 202.183594 219.46875 L 206.722656 225.796875 L 199.726562 228.753906 L 220.625 281.699219 L 213.027344 283.488281 L 201.785156 253.117188 L 201.085938 253.195312 L 200.386719 253.269531 L 211.746094 283.789062 L 210.875 283.992188 L 206.464844 286.113281 L 196.207031 257.351562 L 195.761719 257.445312 L 195.257812 257.550781 L 205.609375 286.523438 L 203.195312 287.679688 L 195.820312 289.214844 L 193.488281 290.011719 Z M 169.414062 231.472656 "/>
<path style="fill-rule:nonzero;fill:rgb(39.99939%,39.99939%,39.99939%);fill-opacity:1;stroke-width:0.03;stroke-linecap:square;stroke-linejoin:miter;stroke:rgb(39.99939%,39.99939%,39.99939%);stroke-opacity:1;stroke-miterlimit:3.239307;" d="M 300.640625 204.652344 L 305.625 219.746094 L 315.929688 219.984375 L 320.03125 221.035156 L 321.128906 221.484375 L 322.734375 222 L 328.359375 223.308594 L 358.109375 229.441406 L 361.167969 243.59375 L 328.882812 244.078125 L 328.898438 244.472656 L 328.917969 244.867188 L 361.261719 244.4375 L 367.054688 272.011719 L 353.476562 276.515625 L 352.769531 276.71875 L 346.011719 278.867188 L 335.566406 281.941406 L 326.117188 285.585938 L 319.078125 287.921875 L 273.675781 224.449219 L 287.835938 209.878906 Z M 300.640625 204.652344 " transform="matrix(1,0,0,1,-74,-13)"/>
<path style="fill-rule:nonzero;fill:rgb(39.99939%,39.99939%,39.99939%);fill-opacity:1;stroke-width:0.03;stroke-linecap:square;stroke-linejoin:miter;stroke:rgb(39.99939%,39.99939%,39.99939%);stroke-opacity:1;stroke-miterlimit:3.239307;" d="M 165.886719 184.46875 L 169.507812 195.09375 L 165.191406 184.683594 Z M 165.886719 184.46875 " transform="matrix(1,0,0,1,-74,-13)"/>
<path style="fill-rule:nonzero;fill:rgb(39.99939%,39.99939%,39.99939%);fill-opacity:1;stroke-width:0.03;stroke-linecap:square;stroke-linejoin:miter;stroke:rgb(39.99939%,39.99939%,39.99939%);stroke-opacity:1;stroke-miterlimit:3.239307;" d="M 159.359375 165.1875 L 165.609375 183.113281 L 164.683594 183.394531 Z M 159.359375 165.1875 " transform="matrix(1,0,0,1,-74,-13)"/>
<path style="fill-rule:nonzero;fill:rgb(39.99939%,39.99939%,39.99939%);fill-opacity:1;stroke-width:0.03;stroke-linecap:square;stroke-linejoin:miter;stroke:rgb(39.99939%,39.99939%,39.99939%);stroke-opacity:1;stroke-miterlimit:3.239307;" d="M 126.15625 66.234375 L 126.675781 66.277344 L 128.773438 72.742188 Z M 126.15625 66.234375 " transform="matrix(1,0,0,1,-74,-13)"/>
<path style="fill-rule:nonzero;fill:rgb(39.99939%,39.99939%,39.99939%);fill-opacity:1;stroke-width:0.03;stroke-linecap:square;stroke-linejoin:miter;stroke:rgb(39.99939%,39.99939%,39.99939%);stroke-opacity:1;stroke-miterlimit:3.239307;" d="M 165.484375 82.394531 L 174.964844 111.0625 L 146.402344 119.789062 L 136.589844 91.792969 Z M 165.484375 82.394531 " transform="matrix(1,0,0,1,-74,-13)"/>
<path style="fill-rule:nonzero;fill:rgb(39.99939%,39.99939%,39.99939%);fill-opacity:1;stroke-width:0.03;stroke-linecap:square;stroke-linejoin:miter;stroke:rgb(39.99939%,39.99939%,39.99939%);stroke-opacity:1;stroke-miterlimit:3.239307;" d="M 135.855469 90.492188 L 128.210938 66.675781 L 163.027344 73.179688 L 165.289062 81.128906 Z M 135.855469 90.492188 " transform="matrix(1,0,0,1,-74,-13)"/>
<path style="fill-rule:nonzero;fill:rgb(39.99939%,39.99939%,39.99939%);fill-opacity:1;stroke-width:0.03;stroke-linecap:square;stroke-linejoin:miter;stroke:rgb(39.99939%,39.99939%,39.99939%);stroke-opacity:1;stroke-miterlimit:3.239307;" d="M 321.851562 194.878906 L 332.042969 221.921875 L 331.128906 222.164062 L 330.070312 222.0625 L 326.238281 221.234375 L 322.953125 220.375 L 320.945312 219.683594 L 319.171875 219.195312 L 314.191406 218.339844 L 308.128906 218.277344 L 307.507812 218.140625 L 307.203125 217.601562 L 302.558594 204.007812 Z M 321.851562 194.878906 " transform="matrix(1,0,0,1,-74,-13)"/>
<path style="fill-rule:nonzero;fill:rgb(39.99939%,39.99939%,39.99939%);fill-opacity:1;stroke-width:0.03;stroke-linecap:square;stroke-linejoin:miter;stroke:rgb(39.99939%,39.99939%,39.99939%);stroke-opacity:1;stroke-miterlimit:3.239307;" d="M 323.726562 193.933594 L 340.960938 183.921875 L 333.285156 219.820312 Z M 323.726562 193.933594 " transform="matrix(1,0,0,1,-74,-13)"/>
<path style="fill-rule:nonzero;fill:rgb(39.99939%,39.99939%,39.99939%);fill-opacity:1;stroke-width:0.03;stroke-linecap:square;stroke-linejoin:miter;stroke:rgb(39.99939%,39.99939%,39.99939%);stroke-opacity:1;stroke-miterlimit:3.239307;" d="M 342.394531 182.980469 L 353.695312 176.550781 L 358.527344 199.351562 L 359.070312 202.628906 L 358.640625 205.484375 L 357.785156 207.421875 L 356.710938 209.261719 L 355.746094 212.320312 L 355.535156 214.769531 L 357.59375 227.3125 L 346.242188 224.914062 L 343.808594 207.925781 L 343.160156 207.933594 L 345.628906 224.792969 L 334.222656 222.023438 Z M 342.394531 182.980469 " transform="matrix(1,0,0,1,-74,-13)"/>
<path style="fill-rule:nonzero;fill:rgb(39.99939%,39.99939%,39.99939%);fill-opacity:1;stroke-width:0.03;stroke-linecap:square;stroke-linejoin:miter;stroke:rgb(39.99939%,39.99939%,39.99939%);stroke-opacity:1;stroke-miterlimit:3.239307;" d="M 311.378906 163.78125 L 322.078125 192.578125 L 302.421875 202.300781 L 291.011719 175.800781 Z M 311.378906 163.78125 " transform="matrix(1,0,0,1,-74,-13)"/>
<path style="fill-rule:nonzero;fill:rgb(39.99939%,39.99939%,39.99939%);fill-opacity:1;stroke-width:0.03;stroke-linecap:square;stroke-linejoin:miter;stroke:rgb(39.99939%,39.99939%,39.99939%);stroke-opacity:1;stroke-miterlimit:3.239307;" d="M 347.457031 145.011719 L 347.964844 144.851562 L 348.386719 144.953125 L 348.601562 145.332031 L 353.339844 174.734375 L 323.105469 191.367188 L 312.796875 163.105469 Z M 347.457031 145.011719 " transform="matrix(1,0,0,1,-74,-13)"/>
<path style="fill-rule:nonzero;fill:rgb(39.99939%,39.99939%,39.99939%);fill-opacity:1;stroke-width:0.03;stroke-linecap:square;stroke-linejoin:miter;stroke:rgb(39.99939%,39.99939%,39.99939%);stroke-opacity:1;stroke-miterlimit:3.239307;" d="M 346.003906 136.789062 L 344.824219 136.640625 L 343.671875 136.058594 L 342.316406 134.890625 L 342.078125 134.386719 L 344.785156 136.011719 Z M 346.003906 136.789062 " transform="matrix(1,0,0,1,-74,-13)"/>
<path style="fill-rule:nonzero;fill:rgb(39.99939%,39.99939%,39.99939%);fill-opacity:1;stroke-width:0.03;stroke-linecap:square;stroke-linejoin:miter;stroke:rgb(39.99939%,39.99939%,39.99939%);stroke-opacity:1;stroke-miterlimit:3.239307;" d="M 156.558594 153.210938 L 184.082031 142.171875 L 196.398438 173.398438 L 166.714844 182.804688 Z M 156.558594 153.210938 " transform="matrix(1,0,0,1,-74,-13)"/>
<path style="fill-rule:nonzero;fill:rgb(39.99939%,39.99939%,39.99939%);fill-opacity:1;stroke-width:0.03;stroke-linecap:square;stroke-linejoin:miter;stroke:rgb(39.99939%,39.99939%,39.99939%);stroke-opacity:1;stroke-miterlimit:3.239307;" d="M 177.773438 214.660156 L 189.707031 209.335938 L 197.578125 204.820312 L 203.9375 199.640625 L 207.164062 196.089844 L 221.726562 208.816406 L 216.441406 214.308594 L 211.320312 219.867188 L 207.09375 223.554688 L 203.644531 226.921875 L 197.570312 232.703125 L 184.957031 237.070312 L 181.3125 225.695312 L 193.660156 221.214844 L 193.613281 220.851562 L 193.558594 220.445312 L 181.011719 224.75 Z M 177.773438 214.660156 " transform="matrix(1,0,0,1,-74,-13)"/>
<path style="fill-rule:nonzero;fill:rgb(39.99939%,39.99939%,39.99939%);fill-opacity:1;stroke-width:0.03;stroke-linecap:square;stroke-linejoin:miter;stroke:rgb(39.99939%,39.99939%,39.99939%);stroke-opacity:1;stroke-miterlimit:3.239307;" d="M 167.25 184.320312 L 196.859375 174.914062 L 205.316406 194.929688 L 203.234375 197.167969 L 198.710938 201.386719 L 189.398438 207.179688 L 177.214844 213.058594 Z M 167.25 184.320312 " transform="matrix(1,0,0,1,-74,-13)"/>
<path style="fill-rule:nonzero;fill:rgb(39.99939%,39.99939%,39.99939%);fill-opacity:1;stroke-width:0.03;stroke-linecap:square;stroke-linejoin:miter;stroke:rgb(39.99939%,39.99939%,39.99939%);stroke-opacity:1;stroke-miterlimit:3.239307;" d="M 208.078125 194.863281 L 231.945312 173.527344 L 244.757812 185.644531 L 222.324219 207.667969 Z M 208.078125 194.863281 " transform="matrix(1,0,0,1,-74,-13)"/>
<path style="fill-rule:nonzero;fill:rgb(39.99939%,39.99939%,39.99939%);fill-opacity:1;stroke-width:0.03;stroke-linecap:square;stroke-linejoin:miter;stroke:rgb(39.99939%,39.99939%,39.99939%);stroke-opacity:1;stroke-miterlimit:3.239307;" d="M 274.484375 230.320312 L 259.527344 240.625 L 259.003906 240.804688 L 258.496094 240.902344 L 258.03125 240.828125 L 257.523438 240.671875 L 244.429688 228.703125 L 254.324219 218.988281 L 253.636719 218.542969 L 243.921875 228.257812 L 223.753906 209.902344 L 233.234375 200.625 L 241.785156 208.144531 L 242.117188 207.8125 L 242.453125 207.480469 L 234.167969 199.894531 L 246.40625 187.882812 L 250.25 193.019531 L 254.957031 199.488281 Z M 274.484375 230.320312 " transform="matrix(1,0,0,1,-74,-13)"/>
<path style="fill-rule:nonzero;fill:rgb(39.99939%,39.99939%,39.99939%);fill-opacity:1;stroke-width:0.03;stroke-linecap:square;stroke-linejoin:miter;stroke:rgb(39.99939%,39.99939%,39.99939%);stroke-opacity:1;stroke-miterlimit:3.239307;" d="M 247.835938 186.390625 L 289.503906 176.867188 L 299.957031 201.976562 L 299.988281 202.359375 L 299.691406 202.683594 L 290.910156 205.730469 L 287.074219 207.875 L 284.707031 210.019531 L 281.546875 213.023438 L 278.167969 216.667969 L 276.023438 219.121094 L 274.671875 220.300781 L 272.851562 221.835938 L 272.425781 222.011719 L 271.996094 221.808594 L 270.546875 219.804688 L 266.09375 212.910156 L 260.445312 203.855469 L 256.050781 197.621094 L 253.34375 193.953125 Z M 247.835938 186.390625 " transform="matrix(1,0,0,1,-74,-13)"/>
<path style="fill-rule:nonzero;fill:rgb(39.99939%,39.99939%,39.99939%);fill-opacity:1;stroke-width:0.03;stroke-linecap:square;stroke-linejoin:miter;stroke:rgb(39.99939%,39.99939%,39.99939%);stroke-opacity:1;stroke-miterlimit:3.239307;" d="M 198.019531 174.464844 L 226.199219 165.503906 L 230.234375 172.207031 L 226.863281 175.476562 L 216.710938 184.757812 L 206.273438 193.609375 Z M 198.019531 174.464844 " transform="matrix(1,0,0,1,-74,-13)"/>
<path style="fill-rule:nonzero;fill:rgb(39.99939%,39.99939%,39.99939%);fill-opacity:1;stroke-width:0.03;stroke-linecap:square;stroke-linejoin:miter;stroke:rgb(39.99939%,39.99939%,39.99939%);stroke-opacity:1;stroke-miterlimit:3.239307;" d="M 193.796875 163.570312 L 221.347656 154.476562 L 225.40625 164.113281 L 197.484375 172.921875 Z M 193.796875 163.570312 " transform="matrix(1,0,0,1,-74,-13)"/>
<path style="fill-rule:nonzero;fill:rgb(39.99939%,39.99939%,39.99939%);fill-opacity:1;stroke-width:0.03;stroke-linecap:square;stroke-linejoin:miter;stroke:rgb(39.99939%,39.99939%,39.99939%);stroke-opacity:1;stroke-miterlimit:3.239307;" d="M 185.105469 141.824219 L 212.496094 133.136719 L 216.425781 142.890625 L 189.132812 152.066406 Z M 185.105469 141.824219 " transform="matrix(1,0,0,1,-74,-13)"/>
<path style="fill-rule:nonzero;fill:rgb(39.99939%,39.99939%,39.99939%);fill-opacity:1;stroke-width:0.03;stroke-linecap:square;stroke-linejoin:miter;stroke:rgb(39.99939%,39.99939%,39.99939%);stroke-opacity:1;stroke-miterlimit:3.239307;" d="M 217.148438 144.421875 L 220.632812 152.925781 L 193.074219 161.910156 L 189.84375 153.78125 Z M 217.148438 144.421875 " transform="matrix(1,0,0,1,-74,-13)"/>
<path style="fill-rule:nonzero;fill:rgb(39.99939%,39.99939%,39.99939%);fill-opacity:1;stroke-width:0.03;stroke-linecap:square;stroke-linejoin:miter;stroke:rgb(39.99939%,39.99939%,39.99939%);stroke-opacity:1;stroke-miterlimit:3.239307;" d="M 246.378906 123.53125 L 269.433594 117.53125 L 271.167969 146.335938 L 259.492188 155.53125 Z M 246.378906 123.53125 " transform="matrix(1,0,0,1,-74,-13)"/>
<path style="fill-rule:nonzero;fill:rgb(39.99939%,39.99939%,39.99939%);fill-opacity:1;stroke-width:0.03;stroke-linecap:square;stroke-linejoin:miter;stroke:rgb(39.99939%,39.99939%,39.99939%);stroke-opacity:1;stroke-miterlimit:3.239307;" d="M 232.390625 171.648438 L 242.148438 169.941406 L 245.515625 168.914062 L 247.742188 168.101562 L 251.851562 165.738281 L 254.25 163.785156 L 257.5 160.285156 L 259.640625 158.007812 L 261.78125 155.890625 L 264.003906 153.773438 L 266.574219 152.308594 L 268.886719 151.332031 L 272.082031 150.488281 L 276.253906 150.019531 L 280.648438 150.070312 L 285.335938 150.417969 L 288.992188 175.113281 L 277.136719 177.632812 L 275.988281 177.882812 L 245.558594 184.367188 L 242.515625 181.570312 L 237.496094 176.652344 Z M 232.390625 171.648438 " transform="matrix(1,0,0,1,-74,-13)"/>
<path style="fill-rule:nonzero;fill:rgb(39.99939%,39.99939%,39.99939%);fill-opacity:1;stroke-width:0.03;stroke-linecap:square;stroke-linejoin:miter;stroke:rgb(39.99939%,39.99939%,39.99939%);stroke-opacity:1;stroke-miterlimit:3.239307;" d="M 214.148438 132.660156 L 244.214844 124.1875 L 258.023438 157.507812 L 252.414062 163.152344 L 244.625 166.929688 L 231.210938 169.925781 L 228.347656 165.5 L 226.820312 162.703125 L 223.859375 155.882812 L 238.339844 150.355469 L 238 149.503906 L 237.730469 148.8125 L 223.066406 154.433594 L 221.324219 150.195312 L 221.148438 149.75 L 218.449219 143.15625 L 218.082031 142.265625 Z M 214.148438 132.660156 " transform="matrix(1,0,0,1,-74,-13)"/>
<path style="fill-rule:nonzero;fill:rgb(39.99939%,39.99939%,39.99939%);fill-opacity:1;stroke-width:0.03;stroke-linecap:square;stroke-linejoin:miter;stroke:rgb(39.99939%,39.99939%,39.99939%);stroke-opacity:1;stroke-miterlimit:3.239307;" d="M 175.4375 112.542969 L 183.503906 139.484375 L 156.210938 150.3125 L 146.3125 121.507812 Z M 175.4375 112.542969 " transform="matrix(1,0,0,1,-74,-13)"/>
<path style="fill-rule:nonzero;fill:rgb(39.99939%,39.99939%,39.99939%);fill-opacity:1;stroke-width:0.03;stroke-linecap:square;stroke-linejoin:miter;stroke:rgb(39.99939%,39.99939%,39.99939%);stroke-opacity:1;stroke-miterlimit:3.239307;" d="M 182.257812 128.285156 L 206.421875 120.410156 L 210.230469 130.957031 L 185.515625 138.867188 Z M 182.257812 128.285156 " transform="matrix(1,0,0,1,-74,-13)"/>
<path style="fill-rule:nonzero;fill:rgb(39.99939%,39.99939%,39.99939%);fill-opacity:1;stroke-width:0.03;stroke-linecap:square;stroke-linejoin:miter;stroke:rgb(39.99939%,39.99939%,39.99939%);stroke-opacity:1;stroke-miterlimit:3.239307;" d="M 193.898438 79.003906 L 208.382812 82.03125 L 209.390625 82.253906 L 216.625 83.863281 L 228.238281 83.433594 L 230.84375 91.074219 L 201.414062 100.785156 Z M 193.898438 79.003906 " transform="matrix(1,0,0,1,-74,-13)"/>
<path style="fill-rule:nonzero;fill:rgb(39.99939%,39.99939%,39.99939%);fill-opacity:1;stroke-width:0.03;stroke-linecap:square;stroke-linejoin:miter;stroke:rgb(39.99939%,39.99939%,39.99939%);stroke-opacity:1;stroke-miterlimit:3.239307;" d="M 165.003906 73.4375 L 192.140625 78.675781 L 200.164062 101.4375 L 176.335938 109.148438 L 170.332031 91.003906 Z M 165.003906 73.4375 " transform="matrix(1,0,0,1,-74,-13)"/>
<path style="fill-rule:nonzero;fill:rgb(39.99939%,39.99939%,39.99939%);fill-opacity:1;stroke-width:0.03;stroke-linecap:square;stroke-linejoin:miter;stroke:rgb(39.99939%,39.99939%,39.99939%);stroke-opacity:1;stroke-miterlimit:3.239307;" d="M 176.992188 110.917969 L 200.320312 103.371094 L 205.8125 118.753906 L 181.710938 126.449219 Z M 176.992188 110.917969 " transform="matrix(1,0,0,1,-74,-13)"/>
<path style="fill-rule:nonzero;fill:rgb(39.99939%,39.99939%,39.99939%);fill-opacity:1;stroke-width:0.03;stroke-linecap:square;stroke-linejoin:miter;stroke:rgb(39.99939%,39.99939%,39.99939%);stroke-opacity:1;stroke-miterlimit:3.239307;" d="M 202.203125 102.761719 L 231.476562 92.976562 L 238.671875 110.207031 L 239.746094 112.980469 L 243.234375 121.316406 L 212.722656 130.140625 Z M 202.203125 102.761719 " transform="matrix(1,0,0,1,-74,-13)"/>
<path style="fill-rule:nonzero;fill:rgb(39.99939%,39.99939%,39.99939%);fill-opacity:1;stroke-width:0.03;stroke-linecap:square;stroke-linejoin:miter;stroke:rgb(39.99939%,39.99939%,39.99939%);stroke-opacity:1;stroke-miterlimit:3.239307;" d="M 230.140625 84.046875 L 258.242188 84.097656 L 269.199219 115.15625 L 245.402344 120.871094 Z M 230.140625 84.046875 " transform="matrix(1,0,0,1,-74,-13)"/>
<path style="fill-rule:nonzero;fill:rgb(39.99939%,39.99939%,39.99939%);fill-opacity:1;stroke-width:0.03;stroke-linecap:square;stroke-linejoin:miter;stroke:rgb(39.99939%,39.99939%,39.99939%);stroke-opacity:1;stroke-miterlimit:3.239307;" d="M 260.71875 84.535156 L 284.945312 84.734375 L 292.761719 109.429688 L 271.113281 114.464844 Z M 260.71875 84.535156 " transform="matrix(1,0,0,1,-74,-13)"/>
<path style="fill-rule:nonzero;fill:rgb(39.99939%,39.99939%,39.99939%);fill-opacity:1;stroke-width:0.03;stroke-linecap:square;stroke-linejoin:miter;stroke:rgb(39.99939%,39.99939%,39.99939%);stroke-opacity:1;stroke-miterlimit:3.239307;" d="M 271.726562 117.042969 L 294.265625 111.984375 L 304.046875 142.621094 L 294.667969 146.238281 L 288.074219 148.765625 L 278.46875 147.839844 L 276.183594 146.058594 L 273.605469 143.691406 Z M 271.726562 117.042969 " transform="matrix(1,0,0,1,-74,-13)"/>
<path style="fill-rule:nonzero;fill:rgb(39.99939%,39.99939%,39.99939%);fill-opacity:1;stroke-width:0.03;stroke-linecap:square;stroke-linejoin:miter;stroke:rgb(39.99939%,39.99939%,39.99939%);stroke-opacity:1;stroke-miterlimit:3.239307;" d="M 286.992188 151.363281 L 304.375 144.695312 L 310.824219 162.328125 L 290.363281 173.648438 Z M 286.992188 151.363281 " transform="matrix(1,0,0,1,-74,-13)"/>
<path style="fill-rule:nonzero;fill:rgb(39.99939%,39.99939%,39.99939%);fill-opacity:1;stroke-width:0.03;stroke-linecap:square;stroke-linejoin:miter;stroke:rgb(39.99939%,39.99939%,39.99939%);stroke-opacity:1;stroke-miterlimit:3.239307;" d="M 337.5 129.167969 L 337.667969 129.480469 L 338.949219 135.128906 L 340.058594 136.765625 L 341.582031 138.125 L 345.28125 139.953125 L 346.515625 140.652344 L 347.046875 140.886719 L 347.625 141.433594 L 347.914062 142.210938 L 347.789062 142.757812 L 312.082031 161.425781 L 305.660156 144.226562 Z M 337.5 129.167969 " transform="matrix(1,0,0,1,-74,-13)"/>
<path style="fill-rule:nonzero;fill:rgb(39.99939%,39.99939%,39.99939%);fill-opacity:1;stroke-width:0.03;stroke-linecap:square;stroke-linejoin:miter;stroke:rgb(39.99939%,39.99939%,39.99939%);stroke-opacity:1;stroke-miterlimit:3.239307;" d="M 286.917969 84.765625 L 329.71875 85.4375 L 332.304688 100.589844 L 294.75 109.386719 Z M 286.917969 84.765625 " transform="matrix(1,0,0,1,-74,-13)"/>
<path style="fill-rule:nonzero;fill:rgb(39.99939%,39.99939%,39.99939%);fill-opacity:1;stroke-width:0.03;stroke-linecap:square;stroke-linejoin:miter;stroke:rgb(39.99939%,39.99939%,39.99939%);stroke-opacity:1;stroke-miterlimit:3.239307;" d="M 295.535156 111.667969 L 333.09375 102.519531 L 336.929688 126.515625 L 304.960938 141.308594 Z M 295.535156 111.667969 " transform="matrix(1,0,0,1,-74,-13)"/>
<path style="fill-rule:nonzero;fill:rgb(39.99939%,39.99939%,39.99939%);fill-opacity:1;stroke-width:0.03;stroke-linecap:square;stroke-linejoin:miter;stroke:rgb(39.99939%,39.99939%,39.99939%);stroke-opacity:1;stroke-miterlimit:3.239307;" d="M 185.609375 238.90625 L 198.769531 234.992188 L 212.675781 251.371094 L 192.203125 257.390625 Z M 185.609375 238.90625 " transform="matrix(1,0,0,1,-74,-13)"/>
<path style="fill-rule:nonzero;fill:rgb(39.99939%,39.99939%,39.99939%);fill-opacity:1;stroke-width:0.03;stroke-linecap:square;stroke-linejoin:miter;stroke:rgb(39.99939%,39.99939%,39.99939%);stroke-opacity:1;stroke-miterlimit:3.239307;" d="M 191.699219 259.191406 L 222.320312 250.144531 L 244.882812 311.132812 L 239.101562 313.277344 L 237.644531 313.878906 L 233.570312 304.199219 L 209.71875 312.367188 L 209.605469 312.046875 L 206.15625 304.332031 L 224.640625 297.667969 L 224.46875 297.132812 L 224.296875 296.59375 L 205.597656 303.085938 L 204.382812 300.375 L 201.3125 292.078125 L 200.382812 290.140625 L 220.902344 282.777344 L 220.671875 282.265625 L 220.472656 281.832031 L 199.769531 288.867188 L 197.625 284.398438 L 197.011719 281.324219 L 196.285156 278.695312 L 216.898438 271.679688 L 216.582031 271.039062 L 216.269531 270.394531 L 195.898438 277.292969 L 194.554688 272.417969 Z M 191.699219 259.191406 " transform="matrix(1,0,0,1,-74,-13)"/>
<path style="fill-rule:nonzero;fill:rgb(39.99939%,39.99939%,39.99939%);fill-opacity:1;stroke-width:0.03;stroke-linecap:square;stroke-linejoin:miter;stroke:rgb(39.99939%,39.99939%,39.99939%);stroke-opacity:1;stroke-miterlimit:3.239307;" d="M 223.230469 249.90625 L 242.207031 244.816406 L 252.59375 275.195312 L 254.445312 274.597656 L 265.964844 303.535156 L 257.226562 306.519531 L 247.394531 310.203125 L 245.972656 310.730469 L 229.488281 266.261719 L 232.738281 265.273438 L 232.464844 264.585938 L 232.136719 263.824219 L 228.886719 264.757812 Z M 223.230469 249.90625 " transform="matrix(1,0,0,1,-74,-13)"/>
<path style="fill-rule:nonzero;fill:rgb(39.99939%,39.99939%,39.99939%);fill-opacity:1;stroke-width:0.03;stroke-linecap:square;stroke-linejoin:miter;stroke:rgb(39.99939%,39.99939%,39.99939%);stroke-opacity:1;stroke-miterlimit:3.239307;" d="M 275.21875 242.226562 L 281.324219 239.6875 L 295.503906 259.777344 L 283.765625 263.929688 Z M 275.21875 242.226562 " transform="matrix(1,0,0,1,-74,-13)"/>
<path style="fill-rule:nonzero;fill:rgb(39.99939%,39.99939%,39.99939%);fill-opacity:1;stroke-width:0.03;stroke-linecap:square;stroke-linejoin:miter;stroke:rgb(39.99939%,39.99939%,39.99939%);stroke-opacity:1;stroke-miterlimit:3.239307;" d="M 284.625 265.796875 L 297.113281 261.320312 L 315.976562 288.625 L 307.429688 291.382812 L 304.230469 291.464844 L 295.773438 294.378906 Z M 284.625 265.796875 " transform="matrix(1,0,0,1,-74,-13)"/>
<path style="fill-rule:nonzero;fill:rgb(39.99939%,39.99939%,39.99939%);fill-opacity:1;stroke-width:0.03;stroke-linecap:square;stroke-linejoin:miter;stroke:rgb(39.99939%,39.99939%,39.99939%);stroke-opacity:1;stroke-miterlimit:3.239307;" d="M 199.523438 233.734375 L 211.074219 222.363281 L 235.292969 244.855469 L 213.839844 250.988281 Z M 199.523438 233.734375 " transform="matrix(1,0,0,1,-74,-13)"/>
<path style="fill-rule:nonzero;fill:rgb(39.99939%,39.99939%,39.99939%);fill-opacity:1;stroke-width:0.03;stroke-linecap:square;stroke-linejoin:miter;stroke:rgb(39.99939%,39.99939%,39.99939%);stroke-opacity:1;stroke-miterlimit:3.239307;" d="M 212.285156 221.214844 L 222.171875 210.46875 L 254.492188 239.785156 L 236.90625 244.339844 Z M 212.285156 221.214844 " transform="matrix(1,0,0,1,-74,-13)"/>
<path style="fill-rule:nonzero;fill:rgb(39.99939%,39.99939%,39.99939%);fill-opacity:1;stroke-width:0.03;stroke-linecap:square;stroke-linejoin:miter;stroke:rgb(39.99939%,39.99939%,39.99939%);stroke-opacity:1;stroke-miterlimit:3.239307;" d="M 210.152344 313.585938 L 232.527344 305.832031 L 236.175781 314.484375 L 230.191406 316.964844 L 212.984375 321.570312 Z M 210.152344 313.585938 " transform="matrix(1,0,0,1,-74,-13)"/>
<path style="fill-rule:nonzero;fill:rgb(39.99939%,39.99939%,39.99939%);fill-opacity:1;stroke-width:0.03;stroke-linecap:square;stroke-linejoin:miter;stroke:rgb(39.99939%,39.99939%,39.99939%);stroke-opacity:1;stroke-miterlimit:3.239307;" d="M 289.273438 82.253906 L 282.632812 82.097656 L 281.207031 82.0625 L 284.570312 81.941406 Z M 289.273438 82.253906 " transform="matrix(1,0,0,1,-74,-13)"/>
<path style="fill-rule:nonzero;fill:rgb(39.99939%,39.99939%,39.99939%);fill-opacity:1;stroke-width:0.03;stroke-linecap:square;stroke-linejoin:miter;stroke:rgb(39.99939%,39.99939%,39.99939%);stroke-opacity:1;stroke-miterlimit:3.239307;" d="M 222.738281 81.523438 L 221.3125 81.554688 L 214.847656 81.5625 L 206.332031 80.085938 L 201.804688 79.109375 L 198.179688 78.132812 L 191.839844 76.914062 L 186.921875 75.9375 L 182.394531 74.960938 L 180.207031 74.546875 L 192.710938 76.71875 Z M 222.738281 81.523438 " transform="matrix(1,0,0,1,-74,-13)"/>
<path style="fill-rule:nonzero;fill:rgb(39.99939%,39.99939%,39.99939%);fill-opacity:1;stroke-width:0.03;stroke-linecap:square;stroke-linejoin:miter;stroke:rgb(39.99939%,39.99939%,39.99939%);stroke-opacity:1;stroke-miterlimit:3.239307;" d="M 126.960938 64.71875 L 125.546875 64.722656 L 125.429688 64.429688 Z M 126.960938 64.71875 " transform="matrix(1,0,0,1,-74,-13)"/>
<path style="fill-rule:nonzero;fill:rgb(39.99939%,39.99939%,39.99939%);fill-opacity:1;stroke-width:0.03;stroke-linecap:square;stroke-linejoin:miter;stroke:rgb(39.99939%,39.99939%,39.99939%);stroke-opacity:1;stroke-miterlimit:3.239307;" d="M 243.414062 244.472656 L 251.511719 242.230469 L 255.476562 242.695312 L 259.355469 243.941406 L 262.570312 241.433594 L 276.183594 232.46875 L 280.722656 238.796875 L 273.726562 241.753906 L 294.625 294.699219 L 287.027344 296.488281 L 275.785156 266.117188 L 275.085938 266.195312 L 274.386719 266.269531 L 285.746094 296.789062 L 284.875 296.992188 L 280.464844 299.113281 L 270.207031 270.351562 L 269.761719 270.445312 L 269.257812 270.550781 L 279.609375 299.523438 L 277.195312 300.679688 L 269.820312 302.214844 L 267.488281 303.011719 Z M 243.414062 244.472656 " transform="matrix(1,0,0,1,-74,-13)"/>
<path style=" stroke:none;fill-rule:evenodd;fill:rgb(85.096741%,85.096741%,81.959534%);fill-opacity:0.7;" d="M 323.289062 223 C 323.289062 219.742188 321.992188 216.613281 319.691406 214.308594 C 317.386719 212.007812 314.257812 210.710938 311 210.710938 C 307.742188 210.710938 304.613281 212.007812 302.308594 214.308594 C 300.007812 216.613281 298.710938 219.742188 298.710938 223 C 298.710938 226.257812 300.007812 229.386719 302.308594 231.691406 C 304.613281 233.992188 307.742188 235.289062 311 235.289062 C 314.257812 235.289062 317.386719 233.992188 319.691406 231.691406 C 321.992188 229.386719 323.289062 226.257812 323.289062 223 Z M 323.289062 223 "/>
</g>
</svg>
