<?xml version="1.0" encoding="UTF-8"?>
<svg xmlns="http://www.w3.org/2000/svg" xmlns:xlink="http://www.w3.org/1999/xlink" width="361pt" height="361pt" viewBox="0 0 361 361" version="1.1">
<defs>
<clipPath id="clip1">
  <path d="M 321 322 L 341 322 L 341 360 L 321 360 Z M 321 322 "/>
</clipPath>
<clipPath id="clip2">
  <path d="M 306 321 L 328 321 L 328 360 L 306 360 Z M 306 321 "/>
</clipPath>
<clipPath id="clip3">
  <path d="M 292 319 L 314 319 L 314 360 L 292 360 Z M 292 319 "/>
</clipPath>
<clipPath id="clip4">
  <path d="M 275 318 L 298 318 L 298 360 L 275 360 Z M 275 318 "/>
</clipPath>
<clipPath id="clip5">
  <path d="M 258 316 L 281 316 L 281 360 L 258 360 Z M 258 316 "/>
</clipPath>
<clipPath id="clip6">
  <path d="M 237 314 L 264 314 L 264 360 L 237 360 Z M 237 314 "/>
</clipPath>
<clipPath id="clip7">
  <path d="M 350 324 L 360 324 L 360 360 L 350 360 Z M 350 324 "/>
</clipPath>
<clipPath id="clip8">
  <path d="M 358 60 L 360 60 L 360 85 L 358 85 Z M 358 60 "/>
</clipPath>
<clipPath id="clip9">
  <path d="M 358 0 L 360 0 L 360 58 L 358 58 Z M 358 0 "/>
</clipPath>
<clipPath id="clip10">
  <path d="M 356 94 L 360 94 L 360 132 L 356 132 Z M 356 94 "/>
</clipPath>
<clipPath id="clip11">
  <path d="M 355 133 L 360 133 L 360 167 L 355 167 Z M 355 133 "/>
</clipPath>
<clipPath id="clip12">
  <path d="M 354 168 L 360 168 L 360 204 L 354 204 Z M 354 168 "/>
</clipPath>
<clipPath id="clip13">
  <path d="M 356 203 L 360 203 L 360 205 L 356 205 Z M 356 203 "/>
</clipPath>
<clipPath id="clip14">
  <path d="M 353 205 L 360 205 L 360 241 L 353 241 Z M 353 205 "/>
</clipPath>
<clipPath id="clip15">
  <path d="M 352 242 L 360 242 L 360 278 L 352 278 Z M 352 242 "/>
</clipPath>
<clipPath id="clip16">
  <path d="M 351 280 L 360 280 L 360 322 L 351 322 Z M 351 280 "/>
</clipPath>
<clipPath id="clip17">
  <path d="M 0 355 L 24 355 L 24 360 L 0 360 Z M 0 355 "/>
</clipPath>
<clipPath id="clip18">
  <path d="M 138 331 L 173 331 L 173 360 L 138 360 Z M 138 331 "/>
</clipPath>
<clipPath id="clip19">
  <path d="M 55 340 L 76 340 L 76 360 L 55 360 Z M 55 340 "/>
</clipPath>
<clipPath id="clip20">
  <path d="M 38 338 L 59 338 L 59 360 L 38 360 Z M 38 338 "/>
</clipPath>
<clipPath id="clip21">
  <path d="M 189 339 L 208 339 L 208 360 L 189 360 Z M 189 339 "/>
</clipPath>
<clipPath id="clip22">
  <path d="M 111 347 L 134 347 L 134 360 L 111 360 Z M 111 347 "/>
</clipPath>
<clipPath id="clip23">
  <path d="M 92 344 L 113 344 L 113 360 L 92 360 Z M 92 344 "/>
</clipPath>
<clipPath id="clip24">
  <path d="M 74 342 L 95 342 L 95 360 L 74 360 Z M 74 342 "/>
</clipPath>
<clipPath id="clip25">
  <path d="M 171 337 L 190 337 L 190 360 L 171 360 Z M 171 337 "/>
</clipPath>
<clipPath id="clip26">
  <path d="M 206 341 L 225 341 L 225 360 L 206 360 Z M 206 341 "/>
</clipPath>
<clipPath id="clip27">
  <path d="M 147 351 L 175 351 L 175 360 L 147 360 Z M 147 351 "/>
</clipPath>
<clipPath id="clip28">
  <path d="M 354 43 L 360 43 L 360 94 L 354 94 Z M 354 43 "/>
</clipPath>
<clipPath id="clip29">
  <path d="M 352 42 L 360 42 L 360 95 L 352 95 Z M 352 42 "/>
</clipPath>
</defs>
<g id="surface5383">
<path style="fill-rule:nonzero;fill:rgb(0%,0%,0%);fill-opacity:1;stroke-width:0.03;stroke-linecap:square;stroke-linejoin:miter;stroke:rgb(0%,0%,0%);stroke-opacity:1;stroke-miterlimit:10;" d="M 0 178 L 360 178 L 360 -182 L 0 -182 Z M 0 178 " transform="matrix(1,0,0,1,0,182)"/>
<g clip-path="url(#clip1)" clip-rule="nonzero">
<path style=" stroke:none;fill-rule:nonzero;fill:rgb(39.99939%,39.99939%,39.99939%);fill-opacity:0.3;" d="M 329.710938 322.789062 L 340.125 323.796875 L 338.972656 372.015625 L 321.941406 369.765625 Z M 329.710938 322.789062 "/>
</g>
<g clip-path="url(#clip2)" clip-rule="nonzero">
<path style=" stroke:none;fill-rule:nonzero;fill:rgb(39.99939%,39.99939%,39.99939%);fill-opacity:0.3;" d="M 315.546875 321.425781 L 327.75 322.601562 L 319.144531 369.398438 L 306.671875 367.75 Z M 315.546875 321.425781 "/>
</g>
<g clip-path="url(#clip3)" clip-rule="nonzero">
<path style=" stroke:none;fill-rule:nonzero;fill:rgb(39.99939%,39.99939%,39.99939%);fill-opacity:0.3;" d="M 299.964844 319.933594 L 313.09375 321.191406 L 304.035156 367.402344 L 292.5 365.878906 Z M 299.964844 319.933594 "/>
</g>
<g clip-path="url(#clip4)" clip-rule="nonzero">
<path style=" stroke:none;fill-rule:nonzero;fill:rgb(39.99939%,39.99939%,39.99939%);fill-opacity:0.3;" d="M 283.199219 318.328125 L 297.851562 319.730469 L 290.074219 365.554688 L 275.054688 363.570312 Z M 283.199219 318.328125 "/>
</g>
<g clip-path="url(#clip5)" clip-rule="nonzero">
<path style=" stroke:none;fill-rule:nonzero;fill:rgb(39.99939%,39.99939%,39.99939%);fill-opacity:0.3;" d="M 265.949219 316.683594 L 280.859375 318.105469 L 272.722656 363.261719 L 258.234375 361.351562 Z M 265.949219 316.683594 "/>
</g>
<g clip-path="url(#clip6)" clip-rule="nonzero">
<path style=" stroke:none;fill-rule:nonzero;fill:rgb(39.99939%,39.99939%,39.99939%);fill-opacity:0.3;" d="M 246.507812 314.835938 L 263.804688 316.480469 L 255.550781 361 L 237.328125 358.589844 Z M 246.507812 314.835938 "/>
</g>
<g clip-path="url(#clip7)" clip-rule="nonzero">
<path style=" stroke:none;fill-rule:nonzero;fill:rgb(39.99939%,39.99939%,39.99939%);fill-opacity:0.3;" d="M 351.210938 324.019531 L 361.707031 325.050781 L 361.203125 334.964844 L 362.347656 335.054688 L 363.460938 335.179688 L 363.898438 325.265625 L 373.519531 326.21875 L 373.316406 336.089844 L 374.308594 336.175781 L 375.296875 336.261719 L 375.566406 326.421875 L 385.273438 327.390625 L 384.625 349.539062 L 374.632812 349.238281 L 374.898438 344.441406 L 373.917969 344.449219 L 372.976562 344.460938 L 372.179688 363.496094 L 362.839844 363.246094 L 363.128906 351.785156 L 362.40625 351.789062 L 361.675781 351.792969 L 361.246094 363.203125 L 350.3125 362.910156 Z M 351.210938 324.019531 "/>
</g>
<path style=" stroke:none;fill-rule:nonzero;fill:rgb(39.99939%,39.99939%,39.99939%);fill-opacity:0.3;" d="M 356.980469 319.976562 L 351.847656 319.5625 L 351.851562 319.367188 Z M 356.980469 319.976562 "/>
<path style=" stroke:none;fill-rule:nonzero;fill:rgb(39.99939%,39.99939%,39.99939%);fill-opacity:0.3;" d="M 102.183594 -29.558594 L 119.667969 -27.632812 L 108.585938 44.035156 L 90.195312 42.859375 Z M 102.183594 -29.558594 "/>
<path style=" stroke:none;fill-rule:nonzero;fill:rgb(39.99939%,39.99939%,39.99939%);fill-opacity:0.3;" d="M 122.117188 -28.136719 L 135.324219 -27.019531 L 123.800781 44.449219 L 111.121094 43.980469 Z M 122.117188 -28.136719 "/>
<path style=" stroke:none;fill-rule:nonzero;fill:rgb(39.99939%,39.99939%,39.99939%);fill-opacity:0.3;" d="M 138.527344 -26.75 L 152.722656 -25.550781 L 143.113281 45.160156 L 127.1875 44.574219 Z M 138.527344 -26.75 "/>
<path style=" stroke:none;fill-rule:nonzero;fill:rgb(39.99939%,39.99939%,39.99939%);fill-opacity:0.3;" d="M 155.460938 -25.320312 L 168.734375 -24.203125 L 161.640625 45.839844 L 146.257812 45.273438 Z M 155.460938 -25.320312 "/>
<path style=" stroke:none;fill-rule:nonzero;fill:rgb(39.99939%,39.99939%,39.99939%);fill-opacity:0.3;" d="M 171.839844 -23.941406 L 187.792969 -22.597656 L 183.101562 46.628906 L 165.027344 45.964844 Z M 171.839844 -23.941406 "/>
<path style=" stroke:none;fill-rule:nonzero;fill:rgb(39.99939%,39.99939%,39.99939%);fill-opacity:0.3;" d="M 191.421875 -22.289062 L 207.4375 -20.941406 L 203.613281 47.363281 L 187.472656 46.789062 Z M 191.421875 -22.289062 "/>
<path style=" stroke:none;fill-rule:nonzero;fill:rgb(39.99939%,39.99939%,39.99939%);fill-opacity:0.3;" d="M 210.765625 -20.664062 L 224.300781 -19.542969 L 220.292969 47.953125 L 206.09375 47.449219 Z M 210.765625 -20.664062 "/>
<path style=" stroke:none;fill-rule:nonzero;fill:rgb(39.99939%,39.99939%,39.99939%);fill-opacity:0.3;" d="M 227.238281 -19.273438 L 241.535156 -18.070312 L 237.015625 48.546875 L 223.007812 48.050781 Z M 227.238281 -19.273438 "/>
<path style=" stroke:none;fill-rule:nonzero;fill:rgb(39.99939%,39.99939%,39.99939%);fill-opacity:0.3;" d="M 244.367188 -17.832031 L 260.363281 -16.484375 L 256.332031 49.164062 L 240.632812 48.675781 Z M 244.367188 -17.832031 "/>
<path style=" stroke:none;fill-rule:nonzero;fill:rgb(39.99939%,39.99939%,39.99939%);fill-opacity:0.3;" d="M 263.046875 -16.265625 L 349.492188 -15.042969 L 347.363281 50.789062 L 288.492188 50.082031 L 259.523438 49.292969 Z M 263.046875 -16.265625 "/>
<g clip-path="url(#clip8)" clip-rule="nonzero">
<path style=" stroke:none;fill-rule:nonzero;fill:rgb(39.99939%,39.99939%,39.99939%);fill-opacity:0.3;" d="M 358.828125 60.445312 L 376.789062 60.640625 L 376.308594 83.875 L 358.078125 84.566406 Z M 358.828125 60.445312 "/>
</g>
<path style=" stroke:none;fill-rule:nonzero;fill:rgb(39.99939%,39.99939%,39.99939%);fill-opacity:0.3;" d="M 330.1875 60.066406 L 346.941406 60.421875 L 346.183594 84.742188 L 345.53125 85.449219 L 344.609375 85.886719 L 335.902344 87.984375 L 329.359375 82.960938 Z M 330.1875 60.066406 "/>
<path style=" stroke:none;fill-rule:nonzero;fill:rgb(39.99939%,39.99939%,39.99939%);fill-opacity:0.3;" d="M 308.929688 67.382812 L 309.097656 59.675781 L 328.261719 60.03125 L 327.480469 82.023438 Z M 308.929688 67.382812 "/>
<path style=" stroke:none;fill-rule:nonzero;fill:rgb(39.99939%,39.99939%,39.99939%);fill-opacity:0.3;" d="M 308.730469 69.550781 L 333.242188 88.867188 L 327.484375 90.691406 L 321.484375 93.027344 L 316.988281 95.09375 L 311.355469 98.105469 L 308.570312 99.792969 L 307.988281 97.90625 Z M 308.730469 69.550781 "/>
<g clip-path="url(#clip9)" clip-rule="nonzero">
<path style=" stroke:none;fill-rule:nonzero;fill:rgb(39.99939%,39.99939%,39.99939%);fill-opacity:0.3;" d="M 361.105469 -10.820312 L 379.175781 -14.222656 L 376.972656 57.667969 L 358.921875 57.492188 Z M 361.105469 -10.820312 "/>
</g>
<path style=" stroke:none;fill-rule:nonzero;fill:rgb(39.99939%,39.99939%,39.99939%);fill-opacity:0.3;" d="M 341.195312 276.871094 L 333.996094 276.441406 L 339.804688 243.941406 L 342.523438 244.277344 Z M 341.195312 276.871094 "/>
<path style=" stroke:none;fill-rule:nonzero;fill:rgb(39.99939%,39.99939%,39.99939%);fill-opacity:0.3;" d="M 343.035156 147.6875 L 344.253906 147.6875 L 343.691406 166.039062 L 339.476562 166.125 Z M 343.035156 147.6875 "/>
<path style=" stroke:none;fill-rule:nonzero;fill:rgb(39.99939%,39.99939%,39.99939%);fill-opacity:0.3;" d="M 319.578125 168.148438 L 337.058594 168.484375 L 334.597656 180.226562 L 317.074219 179.414062 Z M 319.578125 168.148438 "/>
<path style=" stroke:none;fill-rule:nonzero;fill:rgb(39.99939%,39.99939%,39.99939%);fill-opacity:0.3;" d="M 298.738281 167.746094 L 316.492188 168.085938 L 308.753906 202.875 L 291.21875 201.058594 Z M 298.738281 167.746094 "/>
<path style=" stroke:none;fill-rule:nonzero;fill:rgb(39.99939%,39.99939%,39.99939%);fill-opacity:0.3;" d="M 278.828125 167.363281 L 295.929688 167.691406 L 288.582031 200.785156 L 271.382812 199.007812 Z M 278.828125 167.363281 "/>
<path style=" stroke:none;fill-rule:nonzero;fill:rgb(39.99939%,39.99939%,39.99939%);fill-opacity:0.3;" d="M 290.875 202.867188 L 308.332031 204.667969 L 301.460938 236.9375 L 283.40625 235.066406 Z M 290.875 202.867188 "/>
<path style=" stroke:none;fill-rule:nonzero;fill:rgb(39.99939%,39.99939%,39.99939%);fill-opacity:0.3;" d="M 271.050781 200.824219 L 288.191406 202.59375 L 280.8125 234.800781 L 264.214844 233.082031 Z M 271.050781 200.824219 "/>
<path style=" stroke:none;fill-rule:nonzero;fill:rgb(39.99939%,39.99939%,39.99939%);fill-opacity:0.3;" d="M 283.054688 236.878906 L 301.171875 238.746094 L 293.816406 270.371094 L 275.890625 268.515625 Z M 283.054688 236.878906 "/>
<path style=" stroke:none;fill-rule:nonzero;fill:rgb(39.99939%,39.99939%,39.99939%);fill-opacity:0.3;" d="M 263.703125 234.882812 L 280.488281 236.613281 L 273.375 268.253906 L 256.304688 266.488281 Z M 263.703125 234.882812 "/>
<path style=" stroke:none;fill-rule:nonzero;fill:rgb(39.99939%,39.99939%,39.99939%);fill-opacity:0.3;" d="M 333.640625 279.492188 L 341.195312 279.675781 L 339.796875 318.285156 L 326.484375 317.003906 Z M 333.640625 279.492188 "/>
<path style=" stroke:none;fill-rule:nonzero;fill:rgb(39.99939%,39.99939%,39.99939%);fill-opacity:0.3;" d="M 275.511719 270.324219 L 293.347656 272.167969 L 284.605469 312.996094 L 266.757812 311.296875 Z M 275.511719 270.324219 "/>
<path style=" stroke:none;fill-rule:nonzero;fill:rgb(39.99939%,39.99939%,39.99939%);fill-opacity:0.3;" d="M 255.925781 268.304688 L 272.953125 270.0625 L 264.433594 311.078125 L 247.269531 309.445312 Z M 255.925781 268.304688 "/>
<path style=" stroke:none;fill-rule:nonzero;fill:rgb(39.99939%,39.99939%,39.99939%);fill-opacity:0.3;" d="M 333.570312 101.375 L 334.128906 100.046875 L 335.097656 99.128906 L 336.734375 98.492188 L 343.019531 96.816406 L 345.828125 96.238281 L 344.539062 130.921875 L 327.925781 130.226562 Z M 333.570312 101.375 "/>
<path style=" stroke:none;fill-rule:nonzero;fill:rgb(39.99939%,39.99939%,39.99939%);fill-opacity:0.3;" d="M 307.226562 129.394531 L 312.0625 109.441406 L 314.703125 107.386719 L 317.792969 105.484375 L 322.296875 103.023438 L 325.46875 101.4375 L 328.390625 100.484375 L 329.914062 100.148438 L 330.886719 100.355469 L 331.328125 100.878906 L 331.386719 101.6875 L 325.5 130.128906 Z M 307.226562 129.394531 "/>
<path style=" stroke:none;fill-rule:nonzero;fill:rgb(39.99939%,39.99939%,39.99939%);fill-opacity:0.3;" d="M 292.019531 128.785156 L 295.019531 124.742188 L 299.1875 119.910156 L 303.554688 115.4375 L 305.414062 113.761719 L 306.335938 113.230469 L 307.242188 113.246094 L 307.933594 113.492188 L 308.3125 113.945312 L 308.363281 114.359375 L 304.78125 129.296875 Z M 292.019531 128.785156 "/>
<path style=" stroke:none;fill-rule:nonzero;fill:rgb(39.99939%,39.99939%,39.99939%);fill-opacity:0.3;" d="M 327.507812 132.015625 L 344.375 132.664062 L 343.894531 139.054688 L 337.117188 166.011719 L 320.085938 165.75 Z M 327.507812 132.015625 "/>
<path style=" stroke:none;fill-rule:nonzero;fill:rgb(39.99939%,39.99939%,39.99939%);fill-opacity:0.3;" d="M 306.792969 131.183594 L 325.167969 131.921875 L 317.085938 165.691406 L 299.054688 165.34375 Z M 306.792969 131.183594 "/>
<path style=" stroke:none;fill-rule:nonzero;fill:rgb(39.99939%,39.99939%,39.99939%);fill-opacity:0.3;" d="M 279.3125 164.898438 L 280.664062 156.429688 L 282.429688 146.144531 L 283.808594 142.21875 L 285.597656 138.625 L 286.976562 136.007812 L 289.25 132.328125 L 290.695312 130.535156 L 304.425781 131.089844 L 296.320312 165.292969 Z M 279.3125 164.898438 "/>
<path style=" stroke:none;fill-rule:nonzero;fill:rgb(39.99939%,39.99939%,39.99939%);fill-opacity:0.3;" d="M 339.300781 168.527344 L 343.789062 168.613281 L 343.136719 180.621094 L 336.792969 180.328125 Z M 339.300781 168.527344 "/>
<g clip-path="url(#clip10)" clip-rule="nonzero">
<path style=" stroke:none;fill-rule:nonzero;fill:rgb(39.99939%,39.99939%,39.99939%);fill-opacity:0.3;" d="M 357.746094 95.328125 L 376.4375 94.925781 L 375.699219 131.332031 L 356.644531 131.363281 Z M 357.746094 95.328125 "/>
</g>
<g clip-path="url(#clip11)" clip-rule="nonzero">
<path style=" stroke:none;fill-rule:nonzero;fill:rgb(39.99939%,39.99939%,39.99939%);fill-opacity:0.3;" d="M 356.578125 133.46875 L 375.390625 133.4375 L 374.742188 166.878906 L 355.644531 166.296875 Z M 356.578125 133.46875 "/>
</g>
<g clip-path="url(#clip12)" clip-rule="nonzero">
<path style=" stroke:none;fill-rule:nonzero;fill:rgb(39.99939%,39.99939%,39.99939%);fill-opacity:0.3;" d="M 355.457031 168.164062 L 374.917969 168.828125 L 374.066406 203.292969 L 356.039062 203.542969 L 354.207031 203.480469 Z M 355.457031 168.164062 "/>
</g>
<path style=" stroke:none;fill-rule:nonzero;fill:rgb(39.99939%,39.99939%,39.99939%);fill-opacity:0.3;" d="M 314.90625 181.121094 L 343.160156 182.429688 L 341.917969 218.734375 L 322.644531 316.632812 L 288.070312 313.328125 L 297.738281 266.140625 L 305.027344 232.351562 L 310.460938 203.363281 Z M 314.90625 181.121094 "/>
<path style=" stroke:none;fill-rule:nonzero;fill:rgb(39.99939%,39.99939%,39.99939%);fill-opacity:0.3;" d="M 308.570312 99.792969 L 307.929688 100.183594 L 307.988281 97.90625 Z M 308.570312 99.792969 "/>
<path style=" stroke:none;fill-rule:nonzero;fill:rgb(39.99939%,39.99939%,39.99939%);fill-opacity:0.3;" d="M 289.964844 59.320312 L 307.183594 59.640625 L 305.683594 95.035156 L 288.773438 94.589844 Z M 289.964844 59.320312 "/>
<path style=" stroke:none;fill-rule:nonzero;fill:rgb(39.99939%,39.99939%,39.99939%);fill-opacity:0.3;" d="M 288.671875 96.683594 L 305.59375 97.136719 L 305.554688 101.75 L 303.640625 103.085938 L 301.289062 104.824219 L 298.523438 106.863281 L 295.109375 110.089844 L 292.089844 112.925781 L 287.917969 117.425781 Z M 288.671875 96.683594 "/>
<path style=" stroke:none;fill-rule:nonzero;fill:rgb(39.99939%,39.99939%,39.99939%);fill-opacity:0.3;" d="M 145.726562 193.058594 L 152.117188 193.953125 L 156.980469 194.636719 L 151.402344 229.890625 L 135.246094 227.621094 L 140.890625 192.378906 Z M 145.726562 193.058594 "/>
<path style=" stroke:none;fill-rule:nonzero;fill:rgb(39.99939%,39.99939%,39.99939%);fill-opacity:0.3;" d="M 266.878906 96.699219 L 268.425781 96.886719 L 284.398438 96.894531 L 283.925781 121.285156 L 280.957031 125.324219 L 278.457031 129.832031 L 261.242188 127.335938 L 263.042969 118.230469 L 265.191406 121.441406 L 265.660156 121.027344 L 266.136719 120.609375 L 263.363281 116.457031 Z M 266.878906 96.699219 "/>
<path style=" stroke:none;fill-rule:nonzero;fill:rgb(39.99939%,39.99939%,39.99939%);fill-opacity:0.3;" d="M 180.402344 206.886719 L 183.054688 189.957031 L 196.425781 191.898438 L 193.640625 208.796875 L 191.351562 222.695312 L 182.613281 221.433594 L 178.21875 220.796875 L 179.445312 212.992188 Z M 180.402344 206.886719 "/>
<path style=" stroke:none;fill-rule:nonzero;fill:rgb(39.99939%,39.99939%,39.99939%);fill-opacity:0.3;" d="M 52.914062 277.726562 L 84.519531 282.261719 L 82.917969 292.480469 L 51.429688 289.222656 Z M 52.914062 277.726562 "/>
<path style=" stroke:none;fill-rule:nonzero;fill:rgb(39.99939%,39.99939%,39.99939%);fill-opacity:0.3;" d="M 60.613281 225.320312 L 74.984375 227.324219 L 67.082031 276.511719 L 52.929688 274.484375 Z M 60.613281 225.320312 "/>
<path style=" stroke:none;fill-rule:nonzero;fill:rgb(39.99939%,39.99939%,39.99939%);fill-opacity:0.3;" d="M 130.058594 260.28125 L 134.121094 235.570312 L 150.289062 237.839844 L 146.371094 262.574219 L 142.449219 287.320312 L 126 284.953125 Z M 130.058594 260.28125 "/>
<path style=" stroke:none;fill-rule:nonzero;fill:rgb(39.99939%,39.99939%,39.99939%);fill-opacity:0.3;" d="M 226.214844 244.648438 L 230.613281 244.96875 L 233.824219 244.753906 L 237.429688 244.109375 L 240.246094 243.410156 L 243.628906 241.910156 L 247.574219 239.660156 L 248.472656 239.285156 L 249.890625 239.117188 L 247.710938 250.003906 L 245.652344 248.605469 L 242.78125 247.535156 L 238.554688 246.464844 L 233.371094 245.878906 L 227.851562 245.453125 L 225.992188 245.132812 Z M 226.214844 244.648438 "/>
<path style=" stroke:none;fill-rule:nonzero;fill:rgb(39.99939%,39.99939%,39.99939%);fill-opacity:0.3;" d="M 162.917969 205.441406 L 176.59375 207.480469 L 174.601562 220.273438 L 160.882812 218.289062 Z M 162.917969 205.441406 "/>
<path style=" stroke:none;fill-rule:nonzero;fill:rgb(39.99939%,39.99939%,39.99939%);fill-opacity:0.3;" d="M 164.546875 195.132812 L 178.226562 197.136719 L 176.910156 205.546875 L 163.222656 203.496094 Z M 164.546875 195.132812 "/>
<path style=" stroke:none;fill-rule:nonzero;fill:rgb(39.99939%,39.99939%,39.99939%);fill-opacity:0.3;" d="M 189.527344 259.785156 L 202.710938 261.621094 L 197.5625 291.957031 L 184.488281 289.996094 Z M 189.527344 259.785156 "/>
<path style=" stroke:none;fill-rule:nonzero;fill:rgb(39.99939%,39.99939%,39.99939%);fill-opacity:0.3;" d="M 192.035156 243.46875 L 205.273438 245.265625 L 203.179688 257.605469 L 189.988281 255.769531 Z M 192.035156 243.46875 "/>
<path style=" stroke:none;fill-rule:nonzero;fill:rgb(39.99939%,39.99939%,39.99939%);fill-opacity:0.3;" d="M 194.847656 225.648438 L 207.992188 227.554688 L 206.414062 237.214844 L 193.289062 235.363281 Z M 194.847656 225.648438 "/>
<path style=" stroke:none;fill-rule:nonzero;fill:rgb(39.99939%,39.99939%,39.99939%);fill-opacity:0.3;" d="M 200.324219 192.460938 L 213.3125 194.347656 L 208.410156 225.167969 L 195.253906 223.261719 Z M 200.324219 192.460938 "/>
<path style=" stroke:none;fill-rule:nonzero;fill:rgb(39.99939%,39.99939%,39.99939%);fill-opacity:0.3;" d="M 188.734375 153.972656 L 202.355469 155.957031 L 197.21875 187.164062 L 183.8125 185.21875 Z M 188.734375 153.972656 "/>
<path style=" stroke:none;fill-rule:nonzero;fill:rgb(39.99939%,39.99939%,39.99939%);fill-opacity:0.3;" d="M 194.277344 121.039062 L 208.054688 123.023438 L 203.097656 153.167969 L 189.464844 151.179688 Z M 194.277344 121.039062 "/>
<path style=" stroke:none;fill-rule:nonzero;fill:rgb(39.99939%,39.99939%,39.99939%);fill-opacity:0.3;" d="M 199.589844 87.210938 L 213.511719 89.3125 L 208.496094 119.902344 L 194.703125 117.90625 Z M 199.589844 87.210938 "/>
<path style=" stroke:none;fill-rule:nonzero;fill:rgb(39.99939%,39.99939%,39.99939%);fill-opacity:0.3;" d="M 186.8125 56.667969 L 200.660156 57.34375 L 196.4375 83.90625 L 182.898438 81.863281 Z M 186.8125 56.667969 "/>
<path style=" stroke:none;fill-rule:nonzero;fill:rgb(39.99939%,39.99939%,39.99939%);fill-opacity:0.3;" d="M 184.003906 292.75 L 197.078125 294.652344 L 195.265625 304.972656 L 183.761719 304.152344 L 182.21875 303.9375 Z M 184.003906 292.75 "/>
<path style=" stroke:none;fill-rule:nonzero;fill:rgb(39.99939%,39.99939%,39.99939%);fill-opacity:0.3;" d="M 166.773438 290.246094 L 179.695312 292.125 L 177.789062 303.40625 L 165.003906 301.988281 Z M 166.773438 290.246094 "/>
<path style=" stroke:none;fill-rule:nonzero;fill:rgb(39.99939%,39.99939%,39.99939%);fill-opacity:0.3;" d="M 172.589844 257.773438 L 185.390625 259.550781 L 180.40625 289.425781 L 167.464844 287.546875 L 170.785156 267.0625 Z M 172.589844 257.773438 "/>
<path style=" stroke:none;fill-rule:nonzero;fill:rgb(39.99939%,39.99939%,39.99939%);fill-opacity:0.3;" d="M 150.375 287.863281 L 163.304688 289.800781 L 161.394531 301.59375 L 148.421875 300.203125 Z M 150.375 287.863281 "/>
<path style=" stroke:none;fill-rule:nonzero;fill:rgb(39.99939%,39.99939%,39.99939%);fill-opacity:0.3;" d="M 155.351562 255.222656 L 168.707031 257.074219 L 166.929688 266.214844 L 163.558594 287.019531 L 150.617188 285.097656 Z M 155.351562 255.222656 "/>
<path style=" stroke:none;fill-rule:nonzero;fill:rgb(39.99939%,39.99939%,39.99939%);fill-opacity:0.3;" d="M 125.5625 288.191406 L 142.03125 290.5625 L 140.613281 299.492188 L 134.691406 299.0625 L 123.953125 297.957031 Z M 125.5625 288.191406 "/>
<path style=" stroke:none;fill-rule:nonzero;fill:rgb(39.99939%,39.99939%,39.99939%);fill-opacity:0.3;" d="M 89.152344 282.925781 L 121.277344 287.546875 L 119.640625 297.492188 L 107.046875 296.195312 L 91.792969 294.792969 L 87.511719 293.363281 Z M 89.152344 282.925781 "/>
<path style=" stroke:none;fill-rule:nonzero;fill:rgb(39.99939%,39.99939%,39.99939%);fill-opacity:0.3;" d="M 114.410156 233.003906 L 129.636719 234.941406 L 121.519531 284.304688 L 106.597656 282.160156 Z M 114.410156 233.003906 "/>
<path style=" stroke:none;fill-rule:nonzero;fill:rgb(39.99939%,39.99939%,39.99939%);fill-opacity:0.3;" d="M 96.90625 230.382812 L 111.34375 232.40625 L 103.785156 281.785156 L 89.171875 279.683594 Z M 96.90625 230.382812 "/>
<path style=" stroke:none;fill-rule:nonzero;fill:rgb(39.99939%,39.99939%,39.99939%);fill-opacity:0.3;" d="M 77.902344 227.890625 L 92.269531 229.738281 L 84.539062 279.019531 L 69.515625 276.863281 Z M 77.902344 227.890625 "/>
<path style=" stroke:none;fill-rule:nonzero;fill:rgb(39.99939%,39.99939%,39.99939%);fill-opacity:0.3;" d="M 175.191406 241.214844 L 187.542969 242.953125 L 185.394531 255.894531 L 172.679688 254.125 Z M 175.191406 241.214844 "/>
<path style=" stroke:none;fill-rule:nonzero;fill:rgb(39.99939%,39.99939%,39.99939%);fill-opacity:0.3;" d="M 177.820312 223.1875 L 190.945312 225.085938 L 189.386719 234.8125 L 176.285156 232.96875 Z M 177.820312 223.1875 "/>
<path style=" stroke:none;fill-rule:nonzero;fill:rgb(39.99939%,39.99939%,39.99939%);fill-opacity:0.3;" d="M 157.484375 238.761719 L 171.398438 240.722656 L 168.886719 253.640625 L 155.421875 251.773438 Z M 157.484375 238.761719 "/>
<path style=" stroke:none;fill-rule:nonzero;fill:rgb(39.99939%,39.99939%,39.99939%);fill-opacity:0.3;" d="M 160.503906 220.683594 L 174.226562 222.664062 L 172.6875 232.460938 L 158.945312 230.527344 Z M 160.503906 220.683594 "/>
<path style=" stroke:none;fill-rule:nonzero;fill:rgb(39.99939%,39.99939%,39.99939%);fill-opacity:0.3;" d="M 123.191406 181.484375 L 138.035156 183.566406 L 131.007812 227.457031 L 115.632812 225.304688 Z M 123.191406 181.484375 "/>
<path style=" stroke:none;fill-rule:nonzero;fill:rgb(39.99939%,39.99939%,39.99939%);fill-opacity:0.3;" d="M 105.46875 179.058594 L 120.566406 181.148438 L 113.015625 224.9375 L 98.445312 222.898438 Z M 105.46875 179.058594 "/>
<path style=" stroke:none;fill-rule:nonzero;fill:rgb(39.99939%,39.99939%,39.99939%);fill-opacity:0.3;" d="M 86.039062 176.265625 L 100.84375 178.367188 L 94.058594 220.6875 L 79.238281 218.621094 Z M 86.039062 176.265625 "/>
<path style=" stroke:none;fill-rule:nonzero;fill:rgb(39.99939%,39.99939%,39.99939%);fill-opacity:0.3;" d="M 151.171875 130.167969 L 167.878906 132.519531 L 161.429688 173.78125 L 144.238281 171.445312 Z M 151.171875 130.167969 "/>
<path style=" stroke:none;fill-rule:nonzero;fill:rgb(39.99939%,39.99939%,39.99939%);fill-opacity:0.3;" d="M 171.925781 151.5 L 185.136719 153.449219 L 181.507812 176.464844 L 168.210938 174.652344 Z M 171.925781 151.5 "/>
<path style=" stroke:none;fill-rule:nonzero;fill:rgb(39.99939%,39.99939%,39.99939%);fill-opacity:0.3;" d="M 177.167969 118.679688 L 190.59375 120.605469 L 185.785156 150.742188 L 172.464844 148.800781 Z M 177.167969 118.679688 "/>
<path style=" stroke:none;fill-rule:nonzero;fill:rgb(39.99939%,39.99939%,39.99939%);fill-opacity:0.3;" d="M 159.804688 78.082031 L 176.578125 80.429688 L 168.9375 129.476562 L 151.921875 127.078125 Z M 159.804688 78.082031 "/>
<path style=" stroke:none;fill-rule:nonzero;fill:rgb(39.99939%,39.99939%,39.99939%);fill-opacity:0.3;" d="M 182.46875 84.632812 L 196 86.667969 L 191.109375 117.386719 L 177.671875 115.449219 Z M 182.46875 84.632812 "/>
<path style=" stroke:none;fill-rule:nonzero;fill:rgb(39.99939%,39.99939%,39.99939%);fill-opacity:0.3;" d="M 163.417969 55.488281 L 180.316406 56.347656 L 177.199219 76.417969 L 160.449219 74.070312 Z M 163.417969 55.488281 "/>
<path style=" stroke:none;fill-rule:nonzero;fill:rgb(39.99939%,39.99939%,39.99939%);fill-opacity:0.3;" d="M 114.621094 125.191406 L 129.195312 127.292969 L 121.050781 176.039062 L 106.304688 173.992188 Z M 114.621094 125.191406 "/>
<path style=" stroke:none;fill-rule:nonzero;fill:rgb(39.99939%,39.99939%,39.99939%);fill-opacity:0.3;" d="M 131.808594 127.691406 L 146.910156 129.589844 L 138.523438 178.519531 L 123.664062 176.410156 Z M 131.808594 127.691406 "/>
<path style=" stroke:none;fill-rule:nonzero;fill:rgb(39.99939%,39.99939%,39.99939%);fill-opacity:0.3;" d="M 123.019531 73.023438 L 137.511719 75.027344 L 129.761719 123.976562 L 115.222656 121.949219 Z M 123.019531 73.023438 "/>
<path style=" stroke:none;fill-rule:nonzero;fill:rgb(39.99939%,39.99939%,39.99939%);fill-opacity:0.3;" d="M 140.136719 75.386719 L 155.316406 77.464844 L 147.433594 126.449219 L 132.382812 124.339844 Z M 140.136719 75.386719 "/>
<path style=" stroke:none;fill-rule:nonzero;fill:rgb(39.99939%,39.99939%,39.99939%);fill-opacity:0.3;" d="M 126.0625 54.121094 L 158.855469 55.328125 L 155.960938 73.449219 L 123.648438 69.027344 Z M 126.0625 54.121094 "/>
<path style=" stroke:none;fill-rule:nonzero;fill:rgb(39.99939%,39.99939%,39.99939%);fill-opacity:0.3;" d="M 94.90625 122.492188 L 110.039062 124.597656 L 102.21875 173.597656 L 87.082031 171.417969 Z M 94.90625 122.492188 "/>
<path style=" stroke:none;fill-rule:nonzero;fill:rgb(39.99939%,39.99939%,39.99939%);fill-opacity:0.3;" d="M 78.132812 120.160156 L 92.46875 122.152344 L 84.648438 171.074219 L 70.300781 169.050781 Z M 78.132812 120.160156 "/>
<path style=" stroke:none;fill-rule:nonzero;fill:rgb(39.99939%,39.99939%,39.99939%);fill-opacity:0.3;" d="M 86.359375 68.207031 L 118.367188 72.382812 L 110.589844 121.300781 L 78.65625 116.863281 Z M 86.359375 68.207031 "/>
<path style=" stroke:none;fill-rule:nonzero;fill:rgb(39.99939%,39.99939%,39.99939%);fill-opacity:0.3;" d="M 88.804688 53.125 L 121.34375 53.996094 L 119.003906 68.429688 L 87.003906 64.234375 Z M 88.804688 53.125 "/>
<path style=" stroke:none;fill-rule:nonzero;fill:rgb(39.99939%,39.99939%,39.99939%);fill-opacity:0.3;" d="M 143.679688 174.417969 L 180.664062 179.445312 L 178.515625 193.152344 L 141.570312 188.132812 Z M 143.679688 174.417969 "/>
<path style=" stroke:none;fill-rule:nonzero;fill:rgb(39.99939%,39.99939%,39.99939%);fill-opacity:0.3;" d="M 247.339844 199.34375 L 242.660156 230.183594 L 229.613281 228.289062 L 234.53125 197.480469 Z M 247.339844 199.34375 "/>
<path style=" stroke:none;fill-rule:nonzero;fill:rgb(39.99939%,39.99939%,39.99939%);fill-opacity:0.3;" d="M 241.71875 127.953125 L 236.800781 158.167969 L 223.726562 156.253906 L 228.726562 126.078125 Z M 241.71875 127.953125 "/>
<path style=" stroke:none;fill-rule:nonzero;fill:rgb(39.99939%,39.99939%,39.99939%);fill-opacity:0.3;" d="M 256.816406 59.34375 L 266.410156 59.632812 L 264.394531 93.605469 L 251.441406 91.996094 Z M 256.816406 59.34375 "/>
<path style=" stroke:none;fill-rule:nonzero;fill:rgb(39.99939%,39.99939%,39.99939%);fill-opacity:0.3;" d="M 264.179688 96.421875 L 258.558594 126.988281 L 245.925781 125.152344 L 250.964844 94.765625 Z M 264.179688 96.421875 "/>
<path style=" stroke:none;fill-rule:nonzero;fill:rgb(39.99939%,39.99939%,39.99939%);fill-opacity:0.3;" d="M 239.53125 266.6875 L 245.046875 267.507812 L 235.375 308.570312 L 232.074219 308.273438 L 235.265625 289.902344 Z M 239.53125 266.6875 "/>
<path style=" stroke:none;fill-rule:nonzero;fill:rgb(39.99939%,39.99939%,39.99939%);fill-opacity:0.3;" d="M 218.566406 297.847656 L 231.777344 299.835938 L 230.140625 308 L 217.09375 306.832031 Z M 218.566406 297.847656 "/>
<path style=" stroke:none;fill-rule:nonzero;fill:rgb(39.99939%,39.99939%,39.99939%);fill-opacity:0.3;" d="M 201.210938 295.253906 L 214.765625 297.226562 L 213.332031 306.511719 L 199.375 305.320312 Z M 201.210938 295.253906 "/>
<path style=" stroke:none;fill-rule:nonzero;fill:rgb(39.99939%,39.99939%,39.99939%);fill-opacity:0.3;" d="M 206.675781 262.171875 L 220.152344 264.046875 L 215.164062 294.484375 L 201.507812 292.550781 Z M 206.675781 262.171875 "/>
<path style=" stroke:none;fill-rule:nonzero;fill:rgb(39.99939%,39.99939%,39.99939%);fill-opacity:0.3;" d="M 223.855469 264.375 L 237.046875 266.339844 L 232.59375 290.75 L 231.496094 296.863281 L 218.835938 294.964844 Z M 223.855469 264.375 "/>
<path style=" stroke:none;fill-rule:nonzero;fill:rgb(39.99939%,39.99939%,39.99939%);fill-opacity:0.3;" d="M 241.582031 251.335938 L 243.9375 251.722656 L 245.726562 252.359375 L 246.933594 253.894531 L 245.253906 264.601562 L 239.726562 263.613281 Z M 241.582031 251.335938 "/>
<path style=" stroke:none;fill-rule:nonzero;fill:rgb(39.99939%,39.99939%,39.99939%);fill-opacity:0.3;" d="M 209.28125 245.808594 L 222.671875 247.628906 L 220.632812 260.0625 L 207.175781 258.191406 Z M 209.28125 245.808594 "/>
<path style=" stroke:none;fill-rule:nonzero;fill:rgb(39.99939%,39.99939%,39.99939%);fill-opacity:0.3;" d="M 225.976562 248.078125 L 239.292969 250.132812 L 237.410156 262.589844 L 223.9375 260.550781 Z M 225.976562 248.078125 "/>
<path style=" stroke:none;fill-rule:nonzero;fill:rgb(39.99939%,39.99939%,39.99939%);fill-opacity:0.3;" d="M 211.847656 228.113281 L 224.84375 230 L 223.308594 239.601562 L 210.523438 237.796875 Z M 211.847656 228.113281 "/>
<path style=" stroke:none;fill-rule:nonzero;fill:rgb(39.99939%,39.99939%,39.99939%);fill-opacity:0.3;" d="M 229.238281 230.636719 L 242.304688 232.53125 L 241.5 237.851562 L 237.707031 239.007812 L 233.894531 239.570312 L 228.417969 239.851562 L 227.824219 239.503906 Z M 229.238281 230.636719 "/>
<path style=" stroke:none;fill-rule:nonzero;fill:rgb(39.99939%,39.99939%,39.99939%);fill-opacity:0.3;" d="M 217.421875 194.945312 L 230.164062 196.796875 L 225.25 227.609375 L 212.519531 225.765625 Z M 217.421875 194.945312 "/>
<path style=" stroke:none;fill-rule:nonzero;fill:rgb(39.99939%,39.99939%,39.99939%);fill-opacity:0.3;" d="M 249.398438 199.695312 L 257.902344 201.011719 L 255.148438 216.648438 L 251.453125 231.304688 L 250.542969 232.226562 L 249.636719 233.144531 L 246.507812 235.46875 L 243.71875 237.144531 Z M 249.398438 199.695312 "/>
<path style=" stroke:none;fill-rule:nonzero;fill:rgb(39.99939%,39.99939%,39.99939%);fill-opacity:0.3;" d="M 67.996094 181.753906 L 69.257812 173.898438 L 83.605469 175.921875 L 76.808594 218.28125 L 62.191406 216.304688 L 67.589844 183.6875 Z M 67.996094 181.753906 "/>
<path style=" stroke:none;fill-rule:nonzero;fill:rgb(39.99939%,39.99939%,39.99939%);fill-opacity:0.3;" d="M 206.253906 156.527344 L 218.820312 158.363281 L 214.042969 189.667969 L 201.117188 187.730469 Z M 206.253906 156.527344 "/>
<path style=" stroke:none;fill-rule:nonzero;fill:rgb(39.99939%,39.99939%,39.99939%);fill-opacity:0.3;" d="M 222.742188 158.964844 L 235.792969 160.875 L 230.753906 192.0625 L 217.953125 190.347656 Z M 222.742188 158.964844 "/>
<path style=" stroke:none;fill-rule:nonzero;fill:rgb(39.99939%,39.99939%,39.99939%);fill-opacity:0.3;" d="M 240 161.695312 L 252.578125 163.539062 L 247.726562 194.742188 L 234.960938 192.882812 Z M 240 161.695312 "/>
<path style=" stroke:none;fill-rule:nonzero;fill:rgb(39.99939%,39.99939%,39.99939%);fill-opacity:0.3;" d="M 255.160156 163.710938 L 266.585938 165.386719 L 265.082031 171.269531 L 259.054688 196.109375 L 250.3125 194.910156 Z M 255.160156 163.710938 "/>
<path style=" stroke:none;fill-rule:nonzero;fill:rgb(39.99939%,39.99939%,39.99939%);fill-opacity:0.3;" d="M 211.871094 123.667969 L 224.441406 125.484375 L 219.441406 155.652344 L 206.910156 153.820312 Z M 211.871094 123.667969 "/>
<path style=" stroke:none;fill-rule:nonzero;fill:rgb(39.99939%,39.99939%,39.99939%);fill-opacity:0.3;" d="M 245.746094 128.246094 L 258.324219 130.0625 L 257.210938 136.121094 L 253.394531 160.3125 L 240.828125 158.472656 Z M 245.746094 128.246094 "/>
<path style=" stroke:none;fill-rule:nonzero;fill:rgb(39.99939%,39.99939%,39.99939%);fill-opacity:0.3;" d="M 260.714844 130.492188 L 277 132.84375 L 273.804688 140.261719 L 272.648438 143.902344 L 270.597656 150.375 L 268.6875 157.792969 L 267.488281 162.464844 L 255.789062 160.746094 L 259.648438 136.28125 Z M 260.714844 130.492188 "/>
<path style=" stroke:none;fill-rule:nonzero;fill:rgb(39.99939%,39.99939%,39.99939%);fill-opacity:0.3;" d="M 217.410156 89.898438 L 230.023438 91.796875 L 224.972656 122.292969 L 212.394531 120.46875 Z M 217.410156 89.898438 "/>
<path style=" stroke:none;fill-rule:nonzero;fill:rgb(39.99939%,39.99939%,39.99939%);fill-opacity:0.3;" d="M 234.132812 92.414062 L 247.117188 94.367188 L 242.074219 124.773438 L 229.082031 122.890625 Z M 234.132812 92.414062 "/>
<path style=" stroke:none;fill-rule:nonzero;fill:rgb(39.99939%,39.99939%,39.99939%);fill-opacity:0.3;" d="M 204.308594 57.519531 L 218.613281 58.175781 L 213.964844 86.554688 L 200.027344 84.449219 Z M 204.308594 57.519531 "/>
<path style=" stroke:none;fill-rule:nonzero;fill:rgb(39.99939%,39.99939%,39.99939%);fill-opacity:0.3;" d="M 269.972656 59.738281 L 286.589844 60.1875 L 285.589844 94.050781 L 268.242188 94.039062 L 267.941406 94.023438 Z M 269.972656 59.738281 "/>
<path style=" stroke:none;fill-rule:nonzero;fill:rgb(39.99939%,39.99939%,39.99939%);fill-opacity:0.3;" d="M 222.585938 58.296875 L 235.21875 58.6875 L 230.457031 89.039062 L 217.863281 87.140625 Z M 222.585938 58.296875 "/>
<path style=" stroke:none;fill-rule:nonzero;fill:rgb(39.99939%,39.99939%,39.99939%);fill-opacity:0.3;" d="M 239.453125 58.890625 L 252.917969 59.226562 L 247.574219 91.613281 L 234.5625 89.660156 Z M 239.453125 58.890625 "/>
<g clip-path="url(#clip13)" clip-rule="nonzero">
<path style=" stroke:none;fill-rule:nonzero;fill:rgb(39.99939%,39.99939%,39.99939%);fill-opacity:0.3;" d="M 374.066406 203.292969 L 374.046875 204.175781 L 356.039062 203.542969 Z M 374.066406 203.292969 "/>
</g>
<g clip-path="url(#clip14)" clip-rule="nonzero">
<path style=" stroke:none;fill-rule:nonzero;fill:rgb(39.99939%,39.99939%,39.99939%);fill-opacity:0.3;" d="M 354.109375 205.582031 L 374.054688 206.285156 L 372.742188 240.714844 L 353.527344 240.039062 Z M 354.109375 205.582031 "/>
</g>
<g clip-path="url(#clip15)" clip-rule="nonzero">
<path style=" stroke:none;fill-rule:nonzero;fill:rgb(39.99939%,39.99939%,39.99939%);fill-opacity:0.3;" d="M 353.507812 242.144531 L 372.558594 242.816406 L 371.460938 277.839844 L 352.628906 277.5 Z M 353.507812 242.144531 "/>
</g>
<g clip-path="url(#clip16)" clip-rule="nonzero">
<path style=" stroke:none;fill-rule:nonzero;fill:rgb(39.99939%,39.99939%,39.99939%);fill-opacity:0.3;" d="M 352.640625 280.308594 L 371.472656 280.804688 L 370.574219 321.074219 L 356.980469 319.976562 L 351.851562 319.367188 Z M 352.640625 280.308594 "/>
</g>
<path style=" stroke:none;fill-rule:nonzero;fill:rgb(39.99939%,39.99939%,39.99939%);fill-opacity:0.3;" d="M 1.980469 289.652344 L 12.636719 290.710938 L 17.449219 291.957031 L 33.125 294.117188 L 29.09375 321.730469 L 3.429688 318.25 L 3.097656 316.570312 L 2.417969 314.960938 L 1.589844 313.757812 L 0.457031 312.65625 L -1.164062 311.707031 Z M 1.980469 289.652344 "/>
<path style=" stroke:none;fill-rule:nonzero;fill:rgb(39.99939%,39.99939%,39.99939%);fill-opacity:0.3;" d="M 34.253906 286.378906 L 33.953125 288.375 L 11.28125 284.671875 L 2.53125 283.875 L 2.808594 282.011719 Z M 34.253906 286.378906 "/>
<g clip-path="url(#clip17)" clip-rule="nonzero">
<path style=" stroke:none;fill-rule:nonzero;fill:rgb(39.99939%,39.99939%,39.99939%);fill-opacity:0.3;" d="M -5.753906 355.769531 L 23.289062 359.371094 L 21.015625 374.082031 L -8.359375 370.746094 L -9.742188 368.816406 L -8.070312 357.203125 Z M -5.753906 355.769531 "/>
</g>
<path style=" stroke:none;fill-rule:nonzero;fill:rgb(39.99939%,39.99939%,39.99939%);fill-opacity:0.3;" d="M 28.484375 325.417969 L 23.832031 355.230469 L -7.316406 351.371094 L -3.765625 327.589844 L -2.402344 327.296875 L -1.292969 326.847656 L 0.03125 326.015625 L 1.050781 325.078125 L 1.828125 324.105469 L 2.367188 323.207031 L 2.910156 321.949219 Z M 28.484375 325.417969 "/>
<path style=" stroke:none;fill-rule:nonzero;fill:rgb(39.99939%,39.99939%,39.99939%);fill-opacity:0.3;" d="M -3.8125 314.636719 L -2.8125 314.921875 L -1.84375 315.402344 L -0.980469 316.074219 L -0.304688 316.855469 L 0.0546875 317.484375 L 0.246094 317.921875 L 0.507812 318.757812 L 0.625 319.78125 L 0.144531 321.90625 L -0.808594 323.363281 L -2.46875 324.488281 L -4.558594 325.015625 L -6.492188 324.804688 L -7.917969 324.207031 L -9.503906 322.734375 L -10.007812 321.8125 L -10.34375 320.804688 L -10.429688 319.816406 L -10.34375 318.945312 L -10.015625 317.777344 L -9.492188 316.867188 L -7.976562 315.429688 L -6.96875 314.925781 L -5.996094 314.640625 L -4.933594 314.535156 Z M -3.8125 314.636719 "/>
<path style=" stroke:none;fill-rule:nonzero;fill:rgb(39.99939%,39.99939%,39.99939%);fill-opacity:0.3;" d="M 4.394531 271.488281 L 36.1875 273.453125 L 34.253906 286.378906 L 2.808594 282.011719 Z M 4.394531 271.488281 "/>
<path style=" stroke:none;fill-rule:nonzero;fill:rgb(39.99939%,39.99939%,39.99939%);fill-opacity:0.3;" d="M -31.890625 269.109375 L 0.703125 271.195312 L -0.859375 281.574219 L -11.417969 280.460938 L -16.742188 281.460938 L -33.378906 279.003906 Z M -31.890625 269.109375 "/>
<path style=" stroke:none;fill-rule:nonzero;fill:rgb(39.99939%,39.99939%,39.99939%);fill-opacity:0.3;" d="M 23.214844 218.222656 L 24.5625 217.570312 L 44.417969 220.644531 L 36.859375 269.625 L 16.632812 268.355469 L 15.609375 267.386719 Z M 23.214844 218.222656 "/>
<path style=" stroke:none;fill-rule:nonzero;fill:rgb(39.99939%,39.99939%,39.99939%);fill-opacity:0.3;" d="M -0.519531 214.828125 L 0.992188 213.976562 L 17.679688 216.523438 L 18.894531 217.914062 L 11.375 266.703125 L 10.195312 267.949219 L -7.027344 266.867188 L -8.375 265.484375 L -7.289062 255.808594 Z M -0.519531 214.828125 "/>
<path style=" stroke:none;fill-rule:nonzero;fill:rgb(39.99939%,39.99939%,39.99939%);fill-opacity:0.3;" d="M 26.042969 197.566406 L 26.859375 196.96875 L 36.972656 209.5 L 36.652344 210.113281 L 24.277344 208.402344 Z M 26.042969 197.566406 "/>
<path style=" stroke:none;fill-rule:nonzero;fill:rgb(39.99939%,39.99939%,39.99939%);fill-opacity:0.3;" d="M 5.929688 171.058594 L 22.644531 191.75 L 20.046875 207.6875 L 0.574219 205.144531 Z M 5.929688 171.058594 "/>
<path style=" stroke:none;fill-rule:nonzero;fill:rgb(39.99939%,39.99939%,39.99939%);fill-opacity:0.3;" d="M 7.367188 166.070312 L 7.910156 164.972656 L 25.335938 167.476562 L 26.300781 169.289062 L 23.921875 183.898438 L 22.140625 184.355469 Z M 7.367188 166.070312 "/>
<path style=" stroke:none;fill-rule:nonzero;fill:rgb(39.99939%,39.99939%,39.99939%);fill-opacity:0.3;" d="M -24.03125 161.429688 L -22.851562 160.5625 L 0.0703125 163.808594 L 1.59375 165.691406 L -4.230469 202.949219 L -6.472656 204.707031 L -27.898438 201.695312 L -29.773438 199.597656 Z M -24.03125 161.429688 "/>
<path style=" stroke:none;fill-rule:nonzero;fill:rgb(39.99939%,39.99939%,39.99939%);fill-opacity:0.3;" d="M 39.390625 116.023438 L 40.445312 115.136719 L 60.664062 118.046875 L 53.167969 164.988281 L 51.753906 166.007812 L 33.378906 163.507812 L 32.097656 161.636719 Z M 39.390625 116.023438 "/>
<path style=" stroke:none;fill-rule:nonzero;fill:rgb(39.99939%,39.99939%,39.99939%);fill-opacity:0.3;" d="M 15.296875 112.914062 L 17.445312 111.753906 L 34.148438 114.167969 L 35.46875 115.96875 L 28.292969 160.855469 L 26.835938 162.367188 L 10.011719 159.953125 L 8.539062 158 Z M 15.296875 112.914062 "/>
<path style=" stroke:none;fill-rule:nonzero;fill:rgb(39.99939%,39.99939%,39.99939%);fill-opacity:0.3;" d="M -15.511719 108.246094 L -14.152344 107.371094 L 8.554688 110.546875 L 10.035156 112.203125 L 3.253906 157.492188 L 1.53125 158.332031 L -19.335938 132.566406 Z M -15.511719 108.246094 "/>
<path style=" stroke:none;fill-rule:nonzero;fill:rgb(39.99939%,39.99939%,39.99939%);fill-opacity:0.3;" d="M 46.429688 68.707031 L 48.128906 67.476562 L 67.816406 70.273438 L 61.46875 111.625 L 60.589844 112.378906 L 41.316406 109.597656 L 40.386719 107.996094 Z M 46.429688 68.707031 "/>
<path style=" stroke:none;fill-rule:nonzero;fill:rgb(39.99939%,39.99939%,39.99939%);fill-opacity:0.3;" d="M 22.886719 64.414062 L 24.058594 63.875 L 41.550781 66.605469 L 42.75 67.839844 L 36.644531 107.441406 L 35.089844 108.617188 L 18.015625 106.207031 L 16.480469 104.746094 Z M 22.886719 64.414062 "/>
<path style=" stroke:none;fill-rule:nonzero;fill:rgb(39.99939%,39.99939%,39.99939%);fill-opacity:0.3;" d="M -7.625 60.734375 L -6.28125 59.59375 L 16.582031 62.824219 L 17.734375 64.367188 L 11.511719 103.523438 L 10.039062 105.09375 L -12.902344 101.875 L -14.125 100.425781 Z M -7.625 60.734375 "/>
<path style=" stroke:none;fill-rule:nonzero;fill:rgb(39.99939%,39.99939%,39.99939%);fill-opacity:0.3;" d="M -3.351562 31.59375 L 22.097656 14.957031 L 25.613281 17.054688 L 18.371094 57.796875 L -7.078125 54.199219 Z M -3.351562 31.59375 "/>
<path style=" stroke:none;fill-rule:nonzero;fill:rgb(39.99939%,39.99939%,39.99939%);fill-opacity:0.3;" d="M 55.46875 19.84375 L 76.171875 22.785156 L 69.277344 65.070312 L 47.976562 62.089844 Z M 55.46875 19.84375 "/>
<path style=" stroke:none;fill-rule:nonzero;fill:rgb(39.99939%,39.99939%,39.99939%);fill-opacity:0.3;" d="M 31.761719 16.40625 L 51.597656 19.238281 L 44.105469 61.488281 L 24.191406 58.6875 Z M 31.761719 16.40625 "/>
<path style=" stroke:none;fill-rule:nonzero;fill:rgb(39.99939%,39.99939%,39.99939%);fill-opacity:0.3;" d="M 0.574219 11.921875 L 15 14.011719 L 0.3125 23.691406 L -1.242188 22.800781 Z M 0.574219 11.921875 "/>
<path style=" stroke:none;fill-rule:nonzero;fill:rgb(39.99939%,39.99939%,39.99939%);fill-opacity:0.3;" d="M 32.464844 11.25 L 32.933594 8.511719 L 53.035156 -4.644531 L 55.328125 -4.324219 L 52.316406 14.082031 Z M 32.464844 11.25 "/>
<path style=" stroke:none;fill-rule:nonzero;fill:rgb(39.99939%,39.99939%,39.99939%);fill-opacity:0.3;" d="M 2.050781 -22.707031 L -0.183594 -9.058594 L -2.660156 6.089844 L -28.300781 2.363281 L -21.492188 -39.484375 L -20.003906 -40.933594 L 3.460938 -37.710938 L 4.277344 -36.292969 Z M 2.050781 -22.707031 "/>
<path style=" stroke:none;fill-rule:nonzero;fill:rgb(39.99939%,39.99939%,39.99939%);fill-opacity:0.3;" d="M 39.941406 -32.734375 L 59.554688 -30.085938 L 56.839844 -13.558594 L 34.167969 1.285156 Z M 39.941406 -32.734375 "/>
<path style=" stroke:none;fill-rule:nonzero;fill:rgb(39.99939%,39.99939%,39.99939%);fill-opacity:0.3;" d="M 8.625 -37.003906 L 34.90625 -33.417969 L 28.34375 5.09375 L 21.359375 9.664062 L 1.359375 6.796875 Z M 8.625 -37.003906 "/>
<path style=" stroke:none;fill-rule:nonzero;fill:rgb(39.99939%,39.99939%,39.99939%);fill-opacity:0.3;" d="M 83.722656 -25.246094 L 76.871094 16.300781 L 75.445312 17.371094 L 56.023438 14.609375 L 59.988281 -9.644531 Z M 83.722656 -25.246094 "/>
<path style=" stroke:none;fill-rule:nonzero;fill:rgb(39.99939%,39.99939%,39.99939%);fill-opacity:0.3;" d="M 51.289062 176.527344 L 50.976562 178.472656 L 45.582031 212.007812 L 44.519531 211.855469 L 27.359375 190.59375 L 30.8125 169.390625 L 32.429688 168.46875 L 51.078125 171.148438 L 51.949219 172.398438 Z M 51.289062 176.527344 "/>
<g clip-path="url(#clip18)" clip-rule="nonzero">
<path style=" stroke:none;fill-rule:nonzero;fill:rgb(39.99939%,39.99939%,39.99939%);fill-opacity:0.3;" d="M 143.3125 331.941406 L 172.734375 335.914062 L 168.074219 366.695312 L 138.699219 363.058594 Z M 143.3125 331.941406 "/>
</g>
<g clip-path="url(#clip19)" clip-rule="nonzero">
<path style=" stroke:none;fill-rule:nonzero;fill:rgb(39.99939%,39.99939%,39.99939%);fill-opacity:0.3;" d="M 60.734375 340.464844 L 75.3125 342.371094 L 69.476562 381.074219 L 55.046875 379.25 Z M 60.734375 340.464844 "/>
</g>
<path style=" stroke:none;fill-rule:nonzero;fill:rgb(39.99939%,39.99939%,39.99939%);fill-opacity:0.3;" d="M 66.445312 298.695312 L 81.574219 299.699219 L 76.066406 336.171875 L 61.425781 334.257812 Z M 66.445312 298.695312 "/>
<g clip-path="url(#clip20)" clip-rule="nonzero">
<path style=" stroke:none;fill-rule:nonzero;fill:rgb(39.99939%,39.99939%,39.99939%);fill-opacity:0.3;" d="M 44.121094 338.027344 L 58.28125 339.878906 L 52.597656 378.675781 L 38.121094 376.847656 Z M 44.121094 338.027344 "/>
</g>
<path style=" stroke:none;fill-rule:nonzero;fill:rgb(39.99939%,39.99939%,39.99939%);fill-opacity:0.3;" d="M 50.226562 297.5625 L 63.964844 298.484375 L 58.972656 333.859375 L 44.898438 332.023438 Z M 50.226562 297.5625 "/>
<path style=" stroke:none;fill-rule:nonzero;fill:rgb(39.99939%,39.99939%,39.99939%);fill-opacity:0.3;" d="M 82.917969 292.480469 L 82.683594 293.953125 L 51.261719 290.519531 L 51.429688 289.222656 Z M 82.917969 292.480469 "/>
<g clip-path="url(#clip21)" clip-rule="nonzero">
<path style=" stroke:none;fill-rule:nonzero;fill:rgb(39.99939%,39.99939%,39.99939%);fill-opacity:0.3;" d="M 193.667969 339.386719 L 207.21875 341.21875 L 202.597656 371.609375 L 189.363281 369.96875 Z M 193.667969 339.386719 "/>
</g>
<path style=" stroke:none;fill-rule:nonzero;fill:rgb(39.99939%,39.99939%,39.99939%);fill-opacity:0.3;" d="M 197.96875 309.847656 L 211.800781 311.351562 L 207.675781 338.425781 L 194.089844 336.589844 Z M 197.96875 309.847656 "/>
<g clip-path="url(#clip22)" clip-rule="nonzero">
<path style=" stroke:none;fill-rule:nonzero;fill:rgb(39.99939%,39.99939%,39.99939%);fill-opacity:0.3;" d="M 117.195312 347.480469 L 133.234375 349.585938 L 127.496094 388.292969 L 111.527344 386.160156 Z M 117.195312 347.480469 "/>
</g>
<g clip-path="url(#clip23)" clip-rule="nonzero">
<path style=" stroke:none;fill-rule:nonzero;fill:rgb(39.99939%,39.99939%,39.99939%);fill-opacity:0.3;" d="M 98.097656 344.980469 L 112.699219 346.890625 L 107.035156 385.5625 L 92.5625 383.632812 Z M 98.097656 344.980469 "/>
</g>
<g clip-path="url(#clip24)" clip-rule="nonzero">
<path style=" stroke:none;fill-rule:nonzero;fill:rgb(39.99939%,39.99939%,39.99939%);fill-opacity:0.3;" d="M 79.953125 342.605469 L 94.691406 344.535156 L 89.160156 383.191406 L 74.121094 381.289062 Z M 79.953125 342.605469 "/>
</g>
<g clip-path="url(#clip25)" clip-rule="nonzero">
<path style=" stroke:none;fill-rule:nonzero;fill:rgb(39.99939%,39.99939%,39.99939%);fill-opacity:0.3;" d="M 176.429688 337.054688 L 189.707031 338.851562 L 185.398438 369.476562 L 171.777344 367.789062 Z M 176.429688 337.054688 "/>
</g>
<path style=" stroke:none;fill-rule:nonzero;fill:rgb(39.99939%,39.99939%,39.99939%);fill-opacity:0.3;" d="M 180.824219 308.355469 L 193.996094 309.488281 L 190.132812 336.054688 L 176.886719 334.265625 Z M 180.824219 308.355469 "/>
<path style=" stroke:none;fill-rule:nonzero;fill:rgb(39.99939%,39.99939%,39.99939%);fill-opacity:0.3;" d="M 164.152344 307.105469 L 177.105469 308.3125 L 173.1875 334.027344 L 160.652344 332.332031 Z M 164.152344 307.105469 "/>
<path style=" stroke:none;fill-rule:nonzero;fill:rgb(39.99939%,39.99939%,39.99939%);fill-opacity:0.3;" d="M 147.402344 305.550781 L 160.386719 306.765625 L 156.914062 331.828125 L 143.757812 330.054688 Z M 147.402344 305.550781 "/>
<path style=" stroke:none;fill-rule:nonzero;fill:rgb(39.99939%,39.99939%,39.99939%);fill-opacity:0.3;" d="M 123.121094 302.929688 L 139.808594 304.5 L 133.972656 343.757812 L 117.851562 341.644531 Z M 123.121094 302.929688 "/>
<path style=" stroke:none;fill-rule:nonzero;fill:rgb(39.99939%,39.99939%,39.99939%);fill-opacity:0.3;" d="M 104.242188 301.222656 L 118.605469 302.503906 L 113.355469 341.054688 L 98.804688 339.148438 Z M 104.242188 301.222656 "/>
<path style=" stroke:none;fill-rule:nonzero;fill:rgb(39.99939%,39.99939%,39.99939%);fill-opacity:0.3;" d="M 86.257812 300.015625 L 100.808594 300.992188 L 95.398438 338.703125 L 80.707031 336.78125 Z M 86.257812 300.015625 "/>
<path style=" stroke:none;fill-rule:nonzero;fill:rgb(39.99939%,39.99939%,39.99939%);fill-opacity:0.3;" d="M 183.761719 304.152344 L 182.199219 304.042969 L 182.21875 303.9375 Z M 183.761719 304.152344 "/>
<path style=" stroke:none;fill-rule:nonzero;fill:rgb(39.99939%,39.99939%,39.99939%);fill-opacity:0.3;" d="M 177.789062 303.40625 L 177.773438 303.484375 L 164.945312 302.390625 L 165.003906 301.988281 Z M 177.789062 303.40625 "/>
<path style=" stroke:none;fill-rule:nonzero;fill:rgb(39.99939%,39.99939%,39.99939%);fill-opacity:0.3;" d="M 161.394531 301.59375 L 161.316406 302.082031 L 148.332031 300.769531 L 148.421875 300.203125 Z M 161.394531 301.59375 "/>
<path style=" stroke:none;fill-rule:nonzero;fill:rgb(39.99939%,39.99939%,39.99939%);fill-opacity:0.3;" d="M 140.613281 299.492188 L 140.585938 299.671875 L 134.691406 299.0625 Z M 140.613281 299.492188 "/>
<path style=" stroke:none;fill-rule:nonzero;fill:rgb(39.99939%,39.99939%,39.99939%);fill-opacity:0.3;" d="M 91.792969 294.792969 L 87.351562 294.382812 L 87.511719 293.363281 Z M 91.792969 294.792969 "/>
<g clip-path="url(#clip26)" clip-rule="nonzero">
<path style=" stroke:none;fill-rule:nonzero;fill:rgb(39.99939%,39.99939%,39.99939%);fill-opacity:0.3;" d="M 211.148438 341.71875 L 224.035156 343.484375 L 220.957031 355.308594 L 217.152344 373.386719 L 206.535156 372.070312 Z M 211.148438 341.71875 "/>
</g>
<path style=" stroke:none;fill-rule:nonzero;fill:rgb(39.99939%,39.99939%,39.99939%);fill-opacity:0.3;" d="M 215.589844 311.726562 L 232.25 313.199219 L 226.816406 332.285156 L 224.648438 340.675781 L 211.445312 338.886719 Z M 215.589844 311.726562 "/>
<path style="fill-rule:nonzero;fill:rgb(39.99939%,39.99939%,39.99939%);fill-opacity:1;stroke-width:0.03;stroke-linecap:square;stroke-linejoin:miter;stroke:rgb(39.99939%,39.99939%,39.99939%);stroke-opacity:1;stroke-miterlimit:3.239307;" d="M 382.570312 112.792969 L 381.929688 113.183594 L 381.988281 110.90625 Z M 382.570312 112.792969 " transform="matrix(1,0,0,1,-74,-13)"/>
<path style="fill-rule:nonzero;fill:rgb(39.99939%,39.99939%,39.99939%);fill-opacity:1;stroke-width:0.03;stroke-linecap:square;stroke-linejoin:miter;stroke:rgb(39.99939%,39.99939%,39.99939%);stroke-opacity:1;stroke-miterlimit:3.239307;" d="M 363.964844 72.320312 L 381.183594 72.640625 L 379.683594 108.035156 L 362.773438 107.589844 Z M 363.964844 72.320312 " transform="matrix(1,0,0,1,-74,-13)"/>
<path style="fill-rule:nonzero;fill:rgb(39.99939%,39.99939%,39.99939%);fill-opacity:1;stroke-width:0.03;stroke-linecap:square;stroke-linejoin:miter;stroke:rgb(39.99939%,39.99939%,39.99939%);stroke-opacity:1;stroke-miterlimit:3.239307;" d="M 362.671875 109.683594 L 379.59375 110.136719 L 379.554688 114.75 L 377.640625 116.085938 L 375.289062 117.824219 L 372.523438 119.863281 L 369.109375 123.089844 L 366.089844 125.925781 L 361.917969 130.425781 Z M 362.671875 109.683594 " transform="matrix(1,0,0,1,-74,-13)"/>
<path style="fill-rule:nonzero;fill:rgb(39.99939%,39.99939%,39.99939%);fill-opacity:1;stroke-width:0.03;stroke-linecap:square;stroke-linejoin:miter;stroke:rgb(39.99939%,39.99939%,39.99939%);stroke-opacity:1;stroke-miterlimit:3.239307;" d="M 219.726562 206.058594 L 226.117188 206.953125 L 230.980469 207.636719 L 225.402344 242.890625 L 209.246094 240.621094 L 214.890625 205.378906 Z M 219.726562 206.058594 " transform="matrix(1,0,0,1,-74,-13)"/>
<path style="fill-rule:nonzero;fill:rgb(39.99939%,39.99939%,39.99939%);fill-opacity:1;stroke-width:0.03;stroke-linecap:square;stroke-linejoin:miter;stroke:rgb(39.99939%,39.99939%,39.99939%);stroke-opacity:1;stroke-miterlimit:3.239307;" d="M 340.878906 109.699219 L 342.425781 109.886719 L 358.398438 109.894531 L 357.925781 134.285156 L 354.957031 138.324219 L 352.457031 142.832031 L 335.242188 140.335938 L 337.042969 131.230469 L 339.191406 134.441406 L 339.660156 134.027344 L 340.136719 133.609375 L 337.363281 129.457031 Z M 340.878906 109.699219 " transform="matrix(1,0,0,1,-74,-13)"/>
<path style="fill-rule:nonzero;fill:rgb(39.99939%,39.99939%,39.99939%);fill-opacity:1;stroke-width:0.03;stroke-linecap:square;stroke-linejoin:miter;stroke:rgb(39.99939%,39.99939%,39.99939%);stroke-opacity:1;stroke-miterlimit:3.239307;" d="M 254.402344 219.886719 L 257.054688 202.957031 L 270.425781 204.898438 L 267.640625 221.796875 L 265.351562 235.695312 L 256.613281 234.433594 L 252.21875 233.796875 L 253.445312 225.992188 Z M 254.402344 219.886719 " transform="matrix(1,0,0,1,-74,-13)"/>
<path style="fill-rule:nonzero;fill:rgb(39.99939%,39.99939%,39.99939%);fill-opacity:1;stroke-width:0.03;stroke-linecap:square;stroke-linejoin:miter;stroke:rgb(39.99939%,39.99939%,39.99939%);stroke-opacity:1;stroke-miterlimit:3.239307;" d="M 126.914062 290.726562 L 158.519531 295.261719 L 156.917969 305.480469 L 125.429688 302.222656 Z M 126.914062 290.726562 " transform="matrix(1,0,0,1,-74,-13)"/>
<path style="fill-rule:nonzero;fill:rgb(39.99939%,39.99939%,39.99939%);fill-opacity:1;stroke-width:0.03;stroke-linecap:square;stroke-linejoin:miter;stroke:rgb(39.99939%,39.99939%,39.99939%);stroke-opacity:1;stroke-miterlimit:3.239307;" d="M 134.613281 238.320312 L 148.984375 240.324219 L 141.082031 289.511719 L 126.929688 287.484375 Z M 134.613281 238.320312 " transform="matrix(1,0,0,1,-74,-13)"/>
<path style="fill-rule:nonzero;fill:rgb(39.99939%,39.99939%,39.99939%);fill-opacity:1;stroke-width:0.03;stroke-linecap:square;stroke-linejoin:miter;stroke:rgb(39.99939%,39.99939%,39.99939%);stroke-opacity:1;stroke-miterlimit:3.239307;" d="M 204.058594 273.28125 L 208.121094 248.570312 L 224.289062 250.839844 L 220.371094 275.574219 L 216.449219 300.320312 L 200 297.953125 Z M 204.058594 273.28125 " transform="matrix(1,0,0,1,-74,-13)"/>
<path style="fill-rule:nonzero;fill:rgb(39.99939%,39.99939%,39.99939%);fill-opacity:1;stroke-width:0.03;stroke-linecap:square;stroke-linejoin:miter;stroke:rgb(39.99939%,39.99939%,39.99939%);stroke-opacity:1;stroke-miterlimit:3.239307;" d="M 300.214844 257.648438 L 304.613281 257.96875 L 307.824219 257.753906 L 311.429688 257.109375 L 314.246094 256.410156 L 317.628906 254.910156 L 321.574219 252.660156 L 322.472656 252.285156 L 323.890625 252.117188 L 321.710938 263.003906 L 319.652344 261.605469 L 316.78125 260.535156 L 312.554688 259.464844 L 307.371094 258.878906 L 301.851562 258.453125 L 299.992188 258.132812 Z M 300.214844 257.648438 " transform="matrix(1,0,0,1,-74,-13)"/>
<path style="fill-rule:nonzero;fill:rgb(39.99939%,39.99939%,39.99939%);fill-opacity:1;stroke-width:0.03;stroke-linecap:square;stroke-linejoin:miter;stroke:rgb(39.99939%,39.99939%,39.99939%);stroke-opacity:1;stroke-miterlimit:3.239307;" d="M 236.917969 218.441406 L 250.59375 220.480469 L 248.601562 233.273438 L 234.882812 231.289062 Z M 236.917969 218.441406 " transform="matrix(1,0,0,1,-74,-13)"/>
<path style="fill-rule:nonzero;fill:rgb(39.99939%,39.99939%,39.99939%);fill-opacity:1;stroke-width:0.03;stroke-linecap:square;stroke-linejoin:miter;stroke:rgb(39.99939%,39.99939%,39.99939%);stroke-opacity:1;stroke-miterlimit:3.239307;" d="M 238.546875 208.132812 L 252.226562 210.136719 L 250.910156 218.546875 L 237.222656 216.496094 Z M 238.546875 208.132812 " transform="matrix(1,0,0,1,-74,-13)"/>
<path style="fill-rule:nonzero;fill:rgb(39.99939%,39.99939%,39.99939%);fill-opacity:1;stroke-width:0.03;stroke-linecap:square;stroke-linejoin:miter;stroke:rgb(39.99939%,39.99939%,39.99939%);stroke-opacity:1;stroke-miterlimit:3.239307;" d="M 263.527344 272.785156 L 276.710938 274.621094 L 271.5625 304.957031 L 258.488281 302.996094 Z M 263.527344 272.785156 " transform="matrix(1,0,0,1,-74,-13)"/>
<path style="fill-rule:nonzero;fill:rgb(39.99939%,39.99939%,39.99939%);fill-opacity:1;stroke-width:0.03;stroke-linecap:square;stroke-linejoin:miter;stroke:rgb(39.99939%,39.99939%,39.99939%);stroke-opacity:1;stroke-miterlimit:3.239307;" d="M 266.035156 256.46875 L 279.273438 258.265625 L 277.179688 270.605469 L 263.988281 268.769531 Z M 266.035156 256.46875 " transform="matrix(1,0,0,1,-74,-13)"/>
<path style="fill-rule:nonzero;fill:rgb(39.99939%,39.99939%,39.99939%);fill-opacity:1;stroke-width:0.03;stroke-linecap:square;stroke-linejoin:miter;stroke:rgb(39.99939%,39.99939%,39.99939%);stroke-opacity:1;stroke-miterlimit:3.239307;" d="M 268.847656 238.648438 L 281.992188 240.554688 L 280.414062 250.214844 L 267.289062 248.363281 Z M 268.847656 238.648438 " transform="matrix(1,0,0,1,-74,-13)"/>
<path style="fill-rule:nonzero;fill:rgb(39.99939%,39.99939%,39.99939%);fill-opacity:1;stroke-width:0.03;stroke-linecap:square;stroke-linejoin:miter;stroke:rgb(39.99939%,39.99939%,39.99939%);stroke-opacity:1;stroke-miterlimit:3.239307;" d="M 274.324219 205.460938 L 287.3125 207.347656 L 282.410156 238.167969 L 269.253906 236.261719 Z M 274.324219 205.460938 " transform="matrix(1,0,0,1,-74,-13)"/>
<path style="fill-rule:nonzero;fill:rgb(39.99939%,39.99939%,39.99939%);fill-opacity:1;stroke-width:0.03;stroke-linecap:square;stroke-linejoin:miter;stroke:rgb(39.99939%,39.99939%,39.99939%);stroke-opacity:1;stroke-miterlimit:3.239307;" d="M 262.734375 166.972656 L 276.355469 168.957031 L 271.21875 200.164062 L 257.8125 198.21875 Z M 262.734375 166.972656 " transform="matrix(1,0,0,1,-74,-13)"/>
<path style="fill-rule:nonzero;fill:rgb(39.99939%,39.99939%,39.99939%);fill-opacity:1;stroke-width:0.03;stroke-linecap:square;stroke-linejoin:miter;stroke:rgb(39.99939%,39.99939%,39.99939%);stroke-opacity:1;stroke-miterlimit:3.239307;" d="M 268.277344 134.039062 L 282.054688 136.023438 L 277.097656 166.167969 L 263.464844 164.179688 Z M 268.277344 134.039062 " transform="matrix(1,0,0,1,-74,-13)"/>
<path style="fill-rule:nonzero;fill:rgb(39.99939%,39.99939%,39.99939%);fill-opacity:1;stroke-width:0.03;stroke-linecap:square;stroke-linejoin:miter;stroke:rgb(39.99939%,39.99939%,39.99939%);stroke-opacity:1;stroke-miterlimit:3.239307;" d="M 273.589844 100.210938 L 287.511719 102.3125 L 282.496094 132.902344 L 268.703125 130.90625 Z M 273.589844 100.210938 " transform="matrix(1,0,0,1,-74,-13)"/>
<path style="fill-rule:nonzero;fill:rgb(39.99939%,39.99939%,39.99939%);fill-opacity:1;stroke-width:0.03;stroke-linecap:square;stroke-linejoin:miter;stroke:rgb(39.99939%,39.99939%,39.99939%);stroke-opacity:1;stroke-miterlimit:3.239307;" d="M 260.8125 69.667969 L 274.660156 70.34375 L 270.4375 96.90625 L 256.898438 94.863281 Z M 260.8125 69.667969 " transform="matrix(1,0,0,1,-74,-13)"/>
<path style="fill-rule:nonzero;fill:rgb(39.99939%,39.99939%,39.99939%);fill-opacity:1;stroke-width:0.03;stroke-linecap:square;stroke-linejoin:miter;stroke:rgb(39.99939%,39.99939%,39.99939%);stroke-opacity:1;stroke-miterlimit:3.239307;" d="M 258.003906 305.75 L 271.078125 307.652344 L 269.265625 317.972656 L 257.761719 317.152344 L 256.21875 316.9375 Z M 258.003906 305.75 " transform="matrix(1,0,0,1,-74,-13)"/>
<path style="fill-rule:nonzero;fill:rgb(39.99939%,39.99939%,39.99939%);fill-opacity:1;stroke-width:0.03;stroke-linecap:square;stroke-linejoin:miter;stroke:rgb(39.99939%,39.99939%,39.99939%);stroke-opacity:1;stroke-miterlimit:3.239307;" d="M 240.773438 303.246094 L 253.695312 305.125 L 251.789062 316.40625 L 239.003906 314.988281 Z M 240.773438 303.246094 " transform="matrix(1,0,0,1,-74,-13)"/>
<path style="fill-rule:nonzero;fill:rgb(39.99939%,39.99939%,39.99939%);fill-opacity:1;stroke-width:0.03;stroke-linecap:square;stroke-linejoin:miter;stroke:rgb(39.99939%,39.99939%,39.99939%);stroke-opacity:1;stroke-miterlimit:3.239307;" d="M 246.589844 270.773438 L 259.390625 272.550781 L 254.40625 302.425781 L 241.464844 300.546875 L 244.785156 280.0625 Z M 246.589844 270.773438 " transform="matrix(1,0,0,1,-74,-13)"/>
<path style="fill-rule:nonzero;fill:rgb(39.99939%,39.99939%,39.99939%);fill-opacity:1;stroke-width:0.03;stroke-linecap:square;stroke-linejoin:miter;stroke:rgb(39.99939%,39.99939%,39.99939%);stroke-opacity:1;stroke-miterlimit:3.239307;" d="M 224.375 300.863281 L 237.304688 302.800781 L 235.394531 314.59375 L 222.421875 313.203125 Z M 224.375 300.863281 " transform="matrix(1,0,0,1,-74,-13)"/>
<path style="fill-rule:nonzero;fill:rgb(39.99939%,39.99939%,39.99939%);fill-opacity:1;stroke-width:0.03;stroke-linecap:square;stroke-linejoin:miter;stroke:rgb(39.99939%,39.99939%,39.99939%);stroke-opacity:1;stroke-miterlimit:3.239307;" d="M 229.351562 268.222656 L 242.707031 270.074219 L 240.929688 279.214844 L 237.558594 300.019531 L 224.617188 298.097656 Z M 229.351562 268.222656 " transform="matrix(1,0,0,1,-74,-13)"/>
<path style="fill-rule:nonzero;fill:rgb(39.99939%,39.99939%,39.99939%);fill-opacity:1;stroke-width:0.03;stroke-linecap:square;stroke-linejoin:miter;stroke:rgb(39.99939%,39.99939%,39.99939%);stroke-opacity:1;stroke-miterlimit:3.239307;" d="M 199.5625 301.191406 L 216.03125 303.5625 L 214.613281 312.492188 L 208.691406 312.0625 L 197.953125 310.957031 Z M 199.5625 301.191406 " transform="matrix(1,0,0,1,-74,-13)"/>
<path style="fill-rule:nonzero;fill:rgb(39.99939%,39.99939%,39.99939%);fill-opacity:1;stroke-width:0.03;stroke-linecap:square;stroke-linejoin:miter;stroke:rgb(39.99939%,39.99939%,39.99939%);stroke-opacity:1;stroke-miterlimit:3.239307;" d="M 163.152344 295.925781 L 195.277344 300.546875 L 193.640625 310.492188 L 181.046875 309.195312 L 165.792969 307.792969 L 161.511719 306.363281 Z M 163.152344 295.925781 " transform="matrix(1,0,0,1,-74,-13)"/>
<path style="fill-rule:nonzero;fill:rgb(39.99939%,39.99939%,39.99939%);fill-opacity:1;stroke-width:0.03;stroke-linecap:square;stroke-linejoin:miter;stroke:rgb(39.99939%,39.99939%,39.99939%);stroke-opacity:1;stroke-miterlimit:3.239307;" d="M 188.410156 246.003906 L 203.636719 247.941406 L 195.519531 297.304688 L 180.597656 295.160156 Z M 188.410156 246.003906 " transform="matrix(1,0,0,1,-74,-13)"/>
<path style="fill-rule:nonzero;fill:rgb(39.99939%,39.99939%,39.99939%);fill-opacity:1;stroke-width:0.03;stroke-linecap:square;stroke-linejoin:miter;stroke:rgb(39.99939%,39.99939%,39.99939%);stroke-opacity:1;stroke-miterlimit:3.239307;" d="M 170.90625 243.382812 L 185.34375 245.40625 L 177.785156 294.785156 L 163.171875 292.683594 Z M 170.90625 243.382812 " transform="matrix(1,0,0,1,-74,-13)"/>
<path style="fill-rule:nonzero;fill:rgb(39.99939%,39.99939%,39.99939%);fill-opacity:1;stroke-width:0.03;stroke-linecap:square;stroke-linejoin:miter;stroke:rgb(39.99939%,39.99939%,39.99939%);stroke-opacity:1;stroke-miterlimit:3.239307;" d="M 151.902344 240.890625 L 166.269531 242.738281 L 158.539062 292.019531 L 143.515625 289.863281 Z M 151.902344 240.890625 " transform="matrix(1,0,0,1,-74,-13)"/>
<path style="fill-rule:nonzero;fill:rgb(39.99939%,39.99939%,39.99939%);fill-opacity:1;stroke-width:0.03;stroke-linecap:square;stroke-linejoin:miter;stroke:rgb(39.99939%,39.99939%,39.99939%);stroke-opacity:1;stroke-miterlimit:3.239307;" d="M 249.191406 254.214844 L 261.542969 255.953125 L 259.394531 268.894531 L 246.679688 267.125 Z M 249.191406 254.214844 " transform="matrix(1,0,0,1,-74,-13)"/>
<path style="fill-rule:nonzero;fill:rgb(39.99939%,39.99939%,39.99939%);fill-opacity:1;stroke-width:0.03;stroke-linecap:square;stroke-linejoin:miter;stroke:rgb(39.99939%,39.99939%,39.99939%);stroke-opacity:1;stroke-miterlimit:3.239307;" d="M 251.820312 236.1875 L 264.945312 238.085938 L 263.386719 247.8125 L 250.285156 245.96875 Z M 251.820312 236.1875 " transform="matrix(1,0,0,1,-74,-13)"/>
<path style="fill-rule:nonzero;fill:rgb(39.99939%,39.99939%,39.99939%);fill-opacity:1;stroke-width:0.03;stroke-linecap:square;stroke-linejoin:miter;stroke:rgb(39.99939%,39.99939%,39.99939%);stroke-opacity:1;stroke-miterlimit:3.239307;" d="M 231.484375 251.761719 L 245.398438 253.722656 L 242.886719 266.640625 L 229.421875 264.773438 Z M 231.484375 251.761719 " transform="matrix(1,0,0,1,-74,-13)"/>
<path style="fill-rule:nonzero;fill:rgb(39.99939%,39.99939%,39.99939%);fill-opacity:1;stroke-width:0.03;stroke-linecap:square;stroke-linejoin:miter;stroke:rgb(39.99939%,39.99939%,39.99939%);stroke-opacity:1;stroke-miterlimit:3.239307;" d="M 234.503906 233.683594 L 248.226562 235.664062 L 246.6875 245.460938 L 232.945312 243.527344 Z M 234.503906 233.683594 " transform="matrix(1,0,0,1,-74,-13)"/>
<path style="fill-rule:nonzero;fill:rgb(39.99939%,39.99939%,39.99939%);fill-opacity:1;stroke-width:0.03;stroke-linecap:square;stroke-linejoin:miter;stroke:rgb(39.99939%,39.99939%,39.99939%);stroke-opacity:1;stroke-miterlimit:3.239307;" d="M 197.191406 194.484375 L 212.035156 196.566406 L 205.007812 240.457031 L 189.632812 238.304688 Z M 197.191406 194.484375 " transform="matrix(1,0,0,1,-74,-13)"/>
<path style="fill-rule:nonzero;fill:rgb(39.99939%,39.99939%,39.99939%);fill-opacity:1;stroke-width:0.03;stroke-linecap:square;stroke-linejoin:miter;stroke:rgb(39.99939%,39.99939%,39.99939%);stroke-opacity:1;stroke-miterlimit:3.239307;" d="M 179.46875 192.058594 L 194.566406 194.148438 L 187.015625 237.9375 L 172.445312 235.898438 Z M 179.46875 192.058594 " transform="matrix(1,0,0,1,-74,-13)"/>
<path style="fill-rule:nonzero;fill:rgb(39.99939%,39.99939%,39.99939%);fill-opacity:1;stroke-width:0.03;stroke-linecap:square;stroke-linejoin:miter;stroke:rgb(39.99939%,39.99939%,39.99939%);stroke-opacity:1;stroke-miterlimit:3.239307;" d="M 160.039062 189.265625 L 174.84375 191.367188 L 168.058594 233.6875 L 153.238281 231.621094 Z M 160.039062 189.265625 " transform="matrix(1,0,0,1,-74,-13)"/>
<path style="fill-rule:nonzero;fill:rgb(39.99939%,39.99939%,39.99939%);fill-opacity:1;stroke-width:0.03;stroke-linecap:square;stroke-linejoin:miter;stroke:rgb(39.99939%,39.99939%,39.99939%);stroke-opacity:1;stroke-miterlimit:3.239307;" d="M 225.171875 143.167969 L 241.878906 145.519531 L 235.429688 186.78125 L 218.238281 184.445312 Z M 225.171875 143.167969 " transform="matrix(1,0,0,1,-74,-13)"/>
<path style="fill-rule:nonzero;fill:rgb(39.99939%,39.99939%,39.99939%);fill-opacity:1;stroke-width:0.03;stroke-linecap:square;stroke-linejoin:miter;stroke:rgb(39.99939%,39.99939%,39.99939%);stroke-opacity:1;stroke-miterlimit:3.239307;" d="M 245.925781 164.5 L 259.136719 166.449219 L 255.507812 189.464844 L 242.210938 187.652344 Z M 245.925781 164.5 " transform="matrix(1,0,0,1,-74,-13)"/>
<path style="fill-rule:nonzero;fill:rgb(39.99939%,39.99939%,39.99939%);fill-opacity:1;stroke-width:0.03;stroke-linecap:square;stroke-linejoin:miter;stroke:rgb(39.99939%,39.99939%,39.99939%);stroke-opacity:1;stroke-miterlimit:3.239307;" d="M 251.167969 131.679688 L 264.59375 133.605469 L 259.785156 163.742188 L 246.464844 161.800781 Z M 251.167969 131.679688 " transform="matrix(1,0,0,1,-74,-13)"/>
<path style="fill-rule:nonzero;fill:rgb(39.99939%,39.99939%,39.99939%);fill-opacity:1;stroke-width:0.03;stroke-linecap:square;stroke-linejoin:miter;stroke:rgb(39.99939%,39.99939%,39.99939%);stroke-opacity:1;stroke-miterlimit:3.239307;" d="M 233.804688 91.082031 L 250.578125 93.429688 L 242.9375 142.476562 L 225.921875 140.078125 Z M 233.804688 91.082031 " transform="matrix(1,0,0,1,-74,-13)"/>
<path style="fill-rule:nonzero;fill:rgb(39.99939%,39.99939%,39.99939%);fill-opacity:1;stroke-width:0.03;stroke-linecap:square;stroke-linejoin:miter;stroke:rgb(39.99939%,39.99939%,39.99939%);stroke-opacity:1;stroke-miterlimit:3.239307;" d="M 256.46875 97.632812 L 270 99.667969 L 265.109375 130.386719 L 251.671875 128.449219 Z M 256.46875 97.632812 " transform="matrix(1,0,0,1,-74,-13)"/>
<path style="fill-rule:nonzero;fill:rgb(39.99939%,39.99939%,39.99939%);fill-opacity:1;stroke-width:0.03;stroke-linecap:square;stroke-linejoin:miter;stroke:rgb(39.99939%,39.99939%,39.99939%);stroke-opacity:1;stroke-miterlimit:3.239307;" d="M 237.417969 68.488281 L 254.316406 69.347656 L 251.199219 89.417969 L 234.449219 87.070312 Z M 237.417969 68.488281 " transform="matrix(1,0,0,1,-74,-13)"/>
<path style="fill-rule:nonzero;fill:rgb(39.99939%,39.99939%,39.99939%);fill-opacity:1;stroke-width:0.03;stroke-linecap:square;stroke-linejoin:miter;stroke:rgb(39.99939%,39.99939%,39.99939%);stroke-opacity:1;stroke-miterlimit:3.239307;" d="M 188.621094 138.191406 L 203.195312 140.292969 L 195.050781 189.039062 L 180.304688 186.992188 Z M 188.621094 138.191406 " transform="matrix(1,0,0,1,-74,-13)"/>
<path style="fill-rule:nonzero;fill:rgb(39.99939%,39.99939%,39.99939%);fill-opacity:1;stroke-width:0.03;stroke-linecap:square;stroke-linejoin:miter;stroke:rgb(39.99939%,39.99939%,39.99939%);stroke-opacity:1;stroke-miterlimit:3.239307;" d="M 205.808594 140.691406 L 220.910156 142.589844 L 212.523438 191.519531 L 197.664062 189.410156 Z M 205.808594 140.691406 " transform="matrix(1,0,0,1,-74,-13)"/>
<path style="fill-rule:nonzero;fill:rgb(39.99939%,39.99939%,39.99939%);fill-opacity:1;stroke-width:0.03;stroke-linecap:square;stroke-linejoin:miter;stroke:rgb(39.99939%,39.99939%,39.99939%);stroke-opacity:1;stroke-miterlimit:3.239307;" d="M 197.019531 86.023438 L 211.511719 88.027344 L 203.761719 136.976562 L 189.222656 134.949219 Z M 197.019531 86.023438 " transform="matrix(1,0,0,1,-74,-13)"/>
<path style="fill-rule:nonzero;fill:rgb(39.99939%,39.99939%,39.99939%);fill-opacity:1;stroke-width:0.03;stroke-linecap:square;stroke-linejoin:miter;stroke:rgb(39.99939%,39.99939%,39.99939%);stroke-opacity:1;stroke-miterlimit:3.239307;" d="M 214.136719 88.386719 L 229.316406 90.464844 L 221.433594 139.449219 L 206.382812 137.339844 Z M 214.136719 88.386719 " transform="matrix(1,0,0,1,-74,-13)"/>
<path style="fill-rule:nonzero;fill:rgb(39.99939%,39.99939%,39.99939%);fill-opacity:1;stroke-width:0.03;stroke-linecap:square;stroke-linejoin:miter;stroke:rgb(39.99939%,39.99939%,39.99939%);stroke-opacity:1;stroke-miterlimit:3.239307;" d="M 200.0625 67.121094 L 232.855469 68.328125 L 229.960938 86.449219 L 197.648438 82.027344 Z M 200.0625 67.121094 " transform="matrix(1,0,0,1,-74,-13)"/>
<path style="fill-rule:nonzero;fill:rgb(39.99939%,39.99939%,39.99939%);fill-opacity:1;stroke-width:0.03;stroke-linecap:square;stroke-linejoin:miter;stroke:rgb(39.99939%,39.99939%,39.99939%);stroke-opacity:1;stroke-miterlimit:3.239307;" d="M 168.90625 135.492188 L 184.039062 137.597656 L 176.21875 186.597656 L 161.082031 184.417969 Z M 168.90625 135.492188 " transform="matrix(1,0,0,1,-74,-13)"/>
<path style="fill-rule:nonzero;fill:rgb(39.99939%,39.99939%,39.99939%);fill-opacity:1;stroke-width:0.03;stroke-linecap:square;stroke-linejoin:miter;stroke:rgb(39.99939%,39.99939%,39.99939%);stroke-opacity:1;stroke-miterlimit:3.239307;" d="M 152.132812 133.160156 L 166.46875 135.152344 L 158.648438 184.074219 L 144.300781 182.050781 Z M 152.132812 133.160156 " transform="matrix(1,0,0,1,-74,-13)"/>
<path style="fill-rule:nonzero;fill:rgb(39.99939%,39.99939%,39.99939%);fill-opacity:1;stroke-width:0.03;stroke-linecap:square;stroke-linejoin:miter;stroke:rgb(39.99939%,39.99939%,39.99939%);stroke-opacity:1;stroke-miterlimit:3.239307;" d="M 160.359375 81.207031 L 192.367188 85.382812 L 184.589844 134.300781 L 152.65625 129.863281 Z M 160.359375 81.207031 " transform="matrix(1,0,0,1,-74,-13)"/>
<path style="fill-rule:nonzero;fill:rgb(39.99939%,39.99939%,39.99939%);fill-opacity:1;stroke-width:0.03;stroke-linecap:square;stroke-linejoin:miter;stroke:rgb(39.99939%,39.99939%,39.99939%);stroke-opacity:1;stroke-miterlimit:3.239307;" d="M 162.804688 66.125 L 195.34375 66.996094 L 193.003906 81.429688 L 161.003906 77.234375 Z M 162.804688 66.125 " transform="matrix(1,0,0,1,-74,-13)"/>
<path style="fill-rule:nonzero;fill:rgb(39.99939%,39.99939%,39.99939%);fill-opacity:1;stroke-width:0.03;stroke-linecap:square;stroke-linejoin:miter;stroke:rgb(39.99939%,39.99939%,39.99939%);stroke-opacity:1;stroke-miterlimit:3.239307;" d="M 217.679688 187.417969 L 254.664062 192.445312 L 252.515625 206.152344 L 215.570312 201.132812 Z M 217.679688 187.417969 " transform="matrix(1,0,0,1,-74,-13)"/>
<path style="fill-rule:nonzero;fill:rgb(39.99939%,39.99939%,39.99939%);fill-opacity:1;stroke-width:0.03;stroke-linecap:square;stroke-linejoin:miter;stroke:rgb(39.99939%,39.99939%,39.99939%);stroke-opacity:1;stroke-miterlimit:3.239307;" d="M 321.339844 212.34375 L 316.660156 243.183594 L 303.613281 241.289062 L 308.53125 210.480469 Z M 321.339844 212.34375 " transform="matrix(1,0,0,1,-74,-13)"/>
<path style="fill-rule:nonzero;fill:rgb(39.99939%,39.99939%,39.99939%);fill-opacity:1;stroke-width:0.03;stroke-linecap:square;stroke-linejoin:miter;stroke:rgb(39.99939%,39.99939%,39.99939%);stroke-opacity:1;stroke-miterlimit:3.239307;" d="M 315.71875 140.953125 L 310.800781 171.167969 L 297.726562 169.253906 L 302.726562 139.078125 Z M 315.71875 140.953125 " transform="matrix(1,0,0,1,-74,-13)"/>
<path style="fill-rule:nonzero;fill:rgb(39.99939%,39.99939%,39.99939%);fill-opacity:1;stroke-width:0.03;stroke-linecap:square;stroke-linejoin:miter;stroke:rgb(39.99939%,39.99939%,39.99939%);stroke-opacity:1;stroke-miterlimit:3.239307;" d="M 330.816406 72.34375 L 340.410156 72.632812 L 338.394531 106.605469 L 325.441406 104.996094 Z M 330.816406 72.34375 " transform="matrix(1,0,0,1,-74,-13)"/>
<path style="fill-rule:nonzero;fill:rgb(39.99939%,39.99939%,39.99939%);fill-opacity:1;stroke-width:0.03;stroke-linecap:square;stroke-linejoin:miter;stroke:rgb(39.99939%,39.99939%,39.99939%);stroke-opacity:1;stroke-miterlimit:3.239307;" d="M 338.179688 109.421875 L 332.558594 139.988281 L 319.925781 138.152344 L 324.964844 107.765625 Z M 338.179688 109.421875 " transform="matrix(1,0,0,1,-74,-13)"/>
<path style="fill-rule:nonzero;fill:rgb(39.99939%,39.99939%,39.99939%);fill-opacity:1;stroke-width:0.03;stroke-linecap:square;stroke-linejoin:miter;stroke:rgb(39.99939%,39.99939%,39.99939%);stroke-opacity:1;stroke-miterlimit:3.239307;" d="M 313.53125 279.6875 L 319.046875 280.507812 L 309.375 321.570312 L 306.074219 321.273438 L 309.265625 302.902344 Z M 313.53125 279.6875 " transform="matrix(1,0,0,1,-74,-13)"/>
<path style="fill-rule:nonzero;fill:rgb(39.99939%,39.99939%,39.99939%);fill-opacity:1;stroke-width:0.03;stroke-linecap:square;stroke-linejoin:miter;stroke:rgb(39.99939%,39.99939%,39.99939%);stroke-opacity:1;stroke-miterlimit:3.239307;" d="M 292.566406 310.847656 L 305.777344 312.835938 L 304.140625 321 L 291.09375 319.832031 Z M 292.566406 310.847656 " transform="matrix(1,0,0,1,-74,-13)"/>
<path style="fill-rule:nonzero;fill:rgb(39.99939%,39.99939%,39.99939%);fill-opacity:1;stroke-width:0.03;stroke-linecap:square;stroke-linejoin:miter;stroke:rgb(39.99939%,39.99939%,39.99939%);stroke-opacity:1;stroke-miterlimit:3.239307;" d="M 275.210938 308.253906 L 288.765625 310.226562 L 287.332031 319.511719 L 273.375 318.320312 Z M 275.210938 308.253906 " transform="matrix(1,0,0,1,-74,-13)"/>
<path style="fill-rule:nonzero;fill:rgb(39.99939%,39.99939%,39.99939%);fill-opacity:1;stroke-width:0.03;stroke-linecap:square;stroke-linejoin:miter;stroke:rgb(39.99939%,39.99939%,39.99939%);stroke-opacity:1;stroke-miterlimit:3.239307;" d="M 280.675781 275.171875 L 294.152344 277.046875 L 289.164062 307.484375 L 275.507812 305.550781 Z M 280.675781 275.171875 " transform="matrix(1,0,0,1,-74,-13)"/>
<path style="fill-rule:nonzero;fill:rgb(39.99939%,39.99939%,39.99939%);fill-opacity:1;stroke-width:0.03;stroke-linecap:square;stroke-linejoin:miter;stroke:rgb(39.99939%,39.99939%,39.99939%);stroke-opacity:1;stroke-miterlimit:3.239307;" d="M 297.855469 277.375 L 311.046875 279.339844 L 306.59375 303.75 L 305.496094 309.863281 L 292.835938 307.964844 Z M 297.855469 277.375 " transform="matrix(1,0,0,1,-74,-13)"/>
<path style="fill-rule:nonzero;fill:rgb(39.99939%,39.99939%,39.99939%);fill-opacity:1;stroke-width:0.03;stroke-linecap:square;stroke-linejoin:miter;stroke:rgb(39.99939%,39.99939%,39.99939%);stroke-opacity:1;stroke-miterlimit:3.239307;" d="M 315.582031 264.335938 L 317.9375 264.722656 L 319.726562 265.359375 L 320.933594 266.894531 L 319.253906 277.601562 L 313.726562 276.613281 Z M 315.582031 264.335938 " transform="matrix(1,0,0,1,-74,-13)"/>
<path style="fill-rule:nonzero;fill:rgb(39.99939%,39.99939%,39.99939%);fill-opacity:1;stroke-width:0.03;stroke-linecap:square;stroke-linejoin:miter;stroke:rgb(39.99939%,39.99939%,39.99939%);stroke-opacity:1;stroke-miterlimit:3.239307;" d="M 283.28125 258.808594 L 296.671875 260.628906 L 294.632812 273.0625 L 281.175781 271.191406 Z M 283.28125 258.808594 " transform="matrix(1,0,0,1,-74,-13)"/>
<path style="fill-rule:nonzero;fill:rgb(39.99939%,39.99939%,39.99939%);fill-opacity:1;stroke-width:0.03;stroke-linecap:square;stroke-linejoin:miter;stroke:rgb(39.99939%,39.99939%,39.99939%);stroke-opacity:1;stroke-miterlimit:3.239307;" d="M 299.976562 261.078125 L 313.292969 263.132812 L 311.410156 275.589844 L 297.9375 273.550781 Z M 299.976562 261.078125 " transform="matrix(1,0,0,1,-74,-13)"/>
<path style="fill-rule:nonzero;fill:rgb(39.99939%,39.99939%,39.99939%);fill-opacity:1;stroke-width:0.03;stroke-linecap:square;stroke-linejoin:miter;stroke:rgb(39.99939%,39.99939%,39.99939%);stroke-opacity:1;stroke-miterlimit:3.239307;" d="M 285.847656 241.113281 L 298.84375 243 L 297.308594 252.601562 L 284.523438 250.796875 Z M 285.847656 241.113281 " transform="matrix(1,0,0,1,-74,-13)"/>
<path style="fill-rule:nonzero;fill:rgb(39.99939%,39.99939%,39.99939%);fill-opacity:1;stroke-width:0.03;stroke-linecap:square;stroke-linejoin:miter;stroke:rgb(39.99939%,39.99939%,39.99939%);stroke-opacity:1;stroke-miterlimit:3.239307;" d="M 303.238281 243.636719 L 316.304688 245.53125 L 315.5 250.851562 L 311.707031 252.007812 L 307.894531 252.570312 L 302.417969 252.851562 L 301.824219 252.503906 Z M 303.238281 243.636719 " transform="matrix(1,0,0,1,-74,-13)"/>
<path style="fill-rule:nonzero;fill:rgb(39.99939%,39.99939%,39.99939%);fill-opacity:1;stroke-width:0.03;stroke-linecap:square;stroke-linejoin:miter;stroke:rgb(39.99939%,39.99939%,39.99939%);stroke-opacity:1;stroke-miterlimit:3.239307;" d="M 291.421875 207.945312 L 304.164062 209.796875 L 299.25 240.609375 L 286.519531 238.765625 Z M 291.421875 207.945312 " transform="matrix(1,0,0,1,-74,-13)"/>
<path style="fill-rule:nonzero;fill:rgb(39.99939%,39.99939%,39.99939%);fill-opacity:1;stroke-width:0.03;stroke-linecap:square;stroke-linejoin:miter;stroke:rgb(39.99939%,39.99939%,39.99939%);stroke-opacity:1;stroke-miterlimit:3.239307;" d="M 323.398438 212.695312 L 331.902344 214.011719 L 329.148438 229.648438 L 325.453125 244.304688 L 324.542969 245.226562 L 323.636719 246.144531 L 320.507812 248.46875 L 317.71875 250.144531 Z M 323.398438 212.695312 " transform="matrix(1,0,0,1,-74,-13)"/>
<path style="fill-rule:nonzero;fill:rgb(39.99939%,39.99939%,39.99939%);fill-opacity:1;stroke-width:0.03;stroke-linecap:square;stroke-linejoin:miter;stroke:rgb(39.99939%,39.99939%,39.99939%);stroke-opacity:1;stroke-miterlimit:3.239307;" d="M 141.996094 194.753906 L 143.257812 186.898438 L 157.605469 188.921875 L 150.808594 231.28125 L 136.191406 229.304688 L 141.589844 196.6875 Z M 141.996094 194.753906 " transform="matrix(1,0,0,1,-74,-13)"/>
<path style="fill-rule:nonzero;fill:rgb(39.99939%,39.99939%,39.99939%);fill-opacity:1;stroke-width:0.03;stroke-linecap:square;stroke-linejoin:miter;stroke:rgb(39.99939%,39.99939%,39.99939%);stroke-opacity:1;stroke-miterlimit:3.239307;" d="M 280.253906 169.527344 L 292.820312 171.363281 L 288.042969 202.667969 L 275.117188 200.730469 Z M 280.253906 169.527344 " transform="matrix(1,0,0,1,-74,-13)"/>
<path style="fill-rule:nonzero;fill:rgb(39.99939%,39.99939%,39.99939%);fill-opacity:1;stroke-width:0.03;stroke-linecap:square;stroke-linejoin:miter;stroke:rgb(39.99939%,39.99939%,39.99939%);stroke-opacity:1;stroke-miterlimit:3.239307;" d="M 296.742188 171.964844 L 309.792969 173.875 L 304.753906 205.0625 L 291.953125 203.347656 Z M 296.742188 171.964844 " transform="matrix(1,0,0,1,-74,-13)"/>
<path style="fill-rule:nonzero;fill:rgb(39.99939%,39.99939%,39.99939%);fill-opacity:1;stroke-width:0.03;stroke-linecap:square;stroke-linejoin:miter;stroke:rgb(39.99939%,39.99939%,39.99939%);stroke-opacity:1;stroke-miterlimit:3.239307;" d="M 314 174.695312 L 326.578125 176.539062 L 321.726562 207.742188 L 308.960938 205.882812 Z M 314 174.695312 " transform="matrix(1,0,0,1,-74,-13)"/>
<path style="fill-rule:nonzero;fill:rgb(39.99939%,39.99939%,39.99939%);fill-opacity:1;stroke-width:0.03;stroke-linecap:square;stroke-linejoin:miter;stroke:rgb(39.99939%,39.99939%,39.99939%);stroke-opacity:1;stroke-miterlimit:3.239307;" d="M 329.160156 176.710938 L 340.585938 178.386719 L 339.082031 184.269531 L 333.054688 209.109375 L 324.3125 207.910156 Z M 329.160156 176.710938 " transform="matrix(1,0,0,1,-74,-13)"/>
<path style="fill-rule:nonzero;fill:rgb(39.99939%,39.99939%,39.99939%);fill-opacity:1;stroke-width:0.03;stroke-linecap:square;stroke-linejoin:miter;stroke:rgb(39.99939%,39.99939%,39.99939%);stroke-opacity:1;stroke-miterlimit:3.239307;" d="M 285.871094 136.667969 L 298.441406 138.484375 L 293.441406 168.652344 L 280.910156 166.820312 Z M 285.871094 136.667969 " transform="matrix(1,0,0,1,-74,-13)"/>
<path style="fill-rule:nonzero;fill:rgb(39.99939%,39.99939%,39.99939%);fill-opacity:1;stroke-width:0.03;stroke-linecap:square;stroke-linejoin:miter;stroke:rgb(39.99939%,39.99939%,39.99939%);stroke-opacity:1;stroke-miterlimit:3.239307;" d="M 319.746094 141.246094 L 332.324219 143.0625 L 331.210938 149.121094 L 327.394531 173.3125 L 314.828125 171.472656 Z M 319.746094 141.246094 " transform="matrix(1,0,0,1,-74,-13)"/>
<path style="fill-rule:nonzero;fill:rgb(39.99939%,39.99939%,39.99939%);fill-opacity:1;stroke-width:0.03;stroke-linecap:square;stroke-linejoin:miter;stroke:rgb(39.99939%,39.99939%,39.99939%);stroke-opacity:1;stroke-miterlimit:3.239307;" d="M 334.714844 143.492188 L 351 145.84375 L 347.804688 153.261719 L 346.648438 156.902344 L 344.597656 163.375 L 342.6875 170.792969 L 341.488281 175.464844 L 329.789062 173.746094 L 333.648438 149.28125 Z M 334.714844 143.492188 " transform="matrix(1,0,0,1,-74,-13)"/>
<path style="fill-rule:nonzero;fill:rgb(39.99939%,39.99939%,39.99939%);fill-opacity:1;stroke-width:0.03;stroke-linecap:square;stroke-linejoin:miter;stroke:rgb(39.99939%,39.99939%,39.99939%);stroke-opacity:1;stroke-miterlimit:3.239307;" d="M 291.410156 102.898438 L 304.023438 104.796875 L 298.972656 135.292969 L 286.394531 133.46875 Z M 291.410156 102.898438 " transform="matrix(1,0,0,1,-74,-13)"/>
<path style="fill-rule:nonzero;fill:rgb(39.99939%,39.99939%,39.99939%);fill-opacity:1;stroke-width:0.03;stroke-linecap:square;stroke-linejoin:miter;stroke:rgb(39.99939%,39.99939%,39.99939%);stroke-opacity:1;stroke-miterlimit:3.239307;" d="M 308.132812 105.414062 L 321.117188 107.367188 L 316.074219 137.773438 L 303.082031 135.890625 Z M 308.132812 105.414062 " transform="matrix(1,0,0,1,-74,-13)"/>
<path style="fill-rule:nonzero;fill:rgb(39.99939%,39.99939%,39.99939%);fill-opacity:1;stroke-width:0.03;stroke-linecap:square;stroke-linejoin:miter;stroke:rgb(39.99939%,39.99939%,39.99939%);stroke-opacity:1;stroke-miterlimit:3.239307;" d="M 278.308594 70.519531 L 292.613281 71.175781 L 287.964844 99.554688 L 274.027344 97.449219 Z M 278.308594 70.519531 " transform="matrix(1,0,0,1,-74,-13)"/>
<path style="fill-rule:nonzero;fill:rgb(39.99939%,39.99939%,39.99939%);fill-opacity:1;stroke-width:0.03;stroke-linecap:square;stroke-linejoin:miter;stroke:rgb(39.99939%,39.99939%,39.99939%);stroke-opacity:1;stroke-miterlimit:3.239307;" d="M 343.972656 72.738281 L 360.589844 73.1875 L 359.589844 107.050781 L 342.242188 107.039062 L 341.941406 107.023438 Z M 343.972656 72.738281 " transform="matrix(1,0,0,1,-74,-13)"/>
<path style="fill-rule:nonzero;fill:rgb(39.99939%,39.99939%,39.99939%);fill-opacity:1;stroke-width:0.03;stroke-linecap:square;stroke-linejoin:miter;stroke:rgb(39.99939%,39.99939%,39.99939%);stroke-opacity:1;stroke-miterlimit:3.239307;" d="M 296.585938 71.296875 L 309.21875 71.6875 L 304.457031 102.039062 L 291.863281 100.140625 Z M 296.585938 71.296875 " transform="matrix(1,0,0,1,-74,-13)"/>
<path style="fill-rule:nonzero;fill:rgb(39.99939%,39.99939%,39.99939%);fill-opacity:1;stroke-width:0.03;stroke-linecap:square;stroke-linejoin:miter;stroke:rgb(39.99939%,39.99939%,39.99939%);stroke-opacity:1;stroke-miterlimit:3.239307;" d="M 313.453125 71.890625 L 326.917969 72.226562 L 321.574219 104.613281 L 308.5625 102.660156 Z M 313.453125 71.890625 " transform="matrix(1,0,0,1,-74,-13)"/>
<g clip-path="url(#clip27)" clip-rule="nonzero">
<path style=" stroke:none;fill-rule:evenodd;fill:rgb(85.096741%,85.096741%,81.959534%);fill-opacity:0.7;" d="M 174.308594 365 C 174.308594 361.46875 172.90625 358.085938 170.410156 355.589844 C 167.914062 353.09375 164.53125 351.691406 161 351.691406 C 157.46875 351.691406 154.085938 353.09375 151.589844 355.589844 C 149.09375 358.085938 147.691406 361.46875 147.691406 365 C 147.691406 368.53125 149.09375 371.914062 151.589844 374.410156 C 154.085938 376.90625 157.46875 378.308594 161 378.308594 C 164.53125 378.308594 167.914062 376.90625 170.410156 374.410156 C 172.90625 371.914062 174.308594 368.53125 174.308594 365 Z M 174.308594 365 "/>
</g>
<path style=" stroke:none;fill-rule:evenodd;fill:rgb(85.096741%,85.096741%,81.959534%);fill-opacity:0.7;" d="M 70.308594 249 C 70.308594 245.46875 68.90625 242.085938 66.410156 239.589844 C 63.914062 237.09375 60.53125 235.691406 57 235.691406 C 53.46875 235.691406 50.085938 237.09375 47.589844 239.589844 C 45.09375 242.085938 43.691406 245.46875 43.691406 249 C 43.691406 252.53125 45.09375 255.914062 47.589844 258.410156 C 50.085938 260.90625 53.46875 262.308594 57 262.308594 C 60.53125 262.308594 63.914062 260.90625 66.410156 258.410156 C 68.90625 255.914062 70.308594 252.53125 70.308594 249 Z M 70.308594 249 "/>
<path style=" stroke:none;fill-rule:evenodd;fill:rgb(85.096741%,85.096741%,81.959534%);fill-opacity:0.7;" d="M 41.308594 216 C 41.308594 212.46875 39.90625 209.085938 37.410156 206.589844 C 34.914062 204.09375 31.53125 202.691406 28 202.691406 C 24.46875 202.691406 21.085938 204.09375 18.589844 206.589844 C 16.09375 209.085938 14.691406 212.46875 14.691406 216 C 14.691406 219.53125 16.09375 222.914062 18.589844 225.410156 C 21.085938 227.90625 24.46875 229.308594 28 229.308594 C 31.53125 229.308594 34.914062 227.90625 37.410156 225.410156 C 39.90625 222.914062 41.308594 219.53125 41.308594 216 Z M 41.308594 216 "/>
<path style=" stroke:none;fill-rule:evenodd;fill:rgb(85.096741%,85.096741%,81.959534%);fill-opacity:0.7;" d="M 42.308594 209 C 42.308594 205.46875 40.90625 202.085938 38.410156 199.589844 C 35.914062 197.09375 32.53125 195.691406 29 195.691406 C 25.46875 195.691406 22.085938 197.09375 19.589844 199.589844 C 17.09375 202.085938 15.691406 205.46875 15.691406 209 C 15.691406 212.53125 17.09375 215.914062 19.589844 218.410156 C 22.085938 220.90625 25.46875 222.308594 29 222.308594 C 32.53125 222.308594 35.914062 220.90625 38.410156 218.410156 C 40.90625 215.914062 42.308594 212.53125 42.308594 209 Z M 42.308594 209 "/>
<path style=" stroke:none;fill-rule:evenodd;fill:rgb(85.096741%,85.096741%,81.959534%);fill-opacity:0.7;" d="M 136.308594 177 C 136.308594 173.46875 134.90625 170.085938 132.410156 167.589844 C 129.914062 165.09375 126.53125 163.691406 123 163.691406 C 119.46875 163.691406 116.085938 165.09375 113.589844 167.589844 C 111.09375 170.085938 109.691406 173.46875 109.691406 177 C 109.691406 180.53125 111.09375 183.914062 113.589844 186.410156 C 116.085938 188.90625 119.46875 190.308594 123 190.308594 C 126.53125 190.308594 129.914062 188.90625 132.410156 186.410156 C 134.90625 183.914062 136.308594 180.53125 136.308594 177 Z M 136.308594 177 "/>
<path style=" stroke:none;fill-rule:evenodd;fill:rgb(85.096741%,85.096741%,81.959534%);fill-opacity:0.7;" d="M 117.308594 174 C 117.308594 170.46875 115.90625 167.085938 113.410156 164.589844 C 110.914062 162.09375 107.53125 160.691406 104 160.691406 C 100.46875 160.691406 97.085938 162.09375 94.589844 164.589844 C 92.09375 167.085938 90.691406 170.46875 90.691406 174 C 90.691406 177.53125 92.09375 180.914062 94.589844 183.410156 C 97.085938 185.90625 100.46875 187.308594 104 187.308594 C 107.53125 187.308594 110.914062 185.90625 113.410156 183.410156 C 115.90625 180.914062 117.308594 177.53125 117.308594 174 Z M 117.308594 174 "/>
<path style=" stroke:none;fill-rule:evenodd;fill:rgb(85.096741%,85.096741%,81.959534%);fill-opacity:0.7;" d="M 289.308594 169 C 289.308594 165.46875 287.90625 162.085938 285.410156 159.589844 C 282.914062 157.09375 279.53125 155.691406 276 155.691406 C 272.46875 155.691406 269.085938 157.09375 266.589844 159.589844 C 264.09375 162.085938 262.691406 165.46875 262.691406 169 C 262.691406 172.53125 264.09375 175.914062 266.589844 178.410156 C 269.085938 180.90625 272.46875 182.308594 276 182.308594 C 279.53125 182.308594 282.914062 180.90625 285.410156 178.410156 C 287.90625 175.914062 289.308594 172.53125 289.308594 169 Z M 289.308594 169 "/>
<path style=" stroke:none;fill-rule:evenodd;fill:rgb(85.096741%,85.096741%,81.959534%);fill-opacity:0.7;" d="M 72.308594 131 C 72.308594 127.46875 70.90625 124.085938 68.410156 121.589844 C 65.914062 119.09375 62.53125 117.691406 59 117.691406 C 55.46875 117.691406 52.085938 119.09375 49.589844 121.589844 C 47.09375 124.085938 45.691406 127.46875 45.691406 131 C 45.691406 134.53125 47.09375 137.914062 49.589844 140.410156 C 52.085938 142.90625 55.46875 144.308594 59 144.308594 C 62.53125 144.308594 65.914062 142.90625 68.410156 140.410156 C 70.90625 137.914062 72.308594 134.53125 72.308594 131 Z M 72.308594 131 "/>
<path style=" stroke:none;fill-rule:evenodd;fill:rgb(85.096741%,85.096741%,81.959534%);fill-opacity:0.7;" d="M 73.308594 124 C 73.308594 120.46875 71.90625 117.085938 69.410156 114.589844 C 66.914062 112.09375 63.53125 110.691406 60 110.691406 C 56.46875 110.691406 53.085938 112.09375 50.589844 114.589844 C 48.09375 117.085938 46.691406 120.46875 46.691406 124 C 46.691406 127.53125 48.09375 130.914062 50.589844 133.410156 C 53.085938 135.90625 56.46875 137.308594 60 137.308594 C 63.53125 137.308594 66.914062 135.90625 69.410156 133.410156 C 71.90625 130.914062 73.308594 127.53125 73.308594 124 Z M 73.308594 124 "/>
<path style=" stroke:none;fill-rule:evenodd;fill:rgb(85.096741%,85.096741%,81.959534%);fill-opacity:0.7;" d="M 170.308594 114 C 170.308594 110.46875 168.90625 107.085938 166.410156 104.589844 C 163.914062 102.09375 160.53125 100.691406 157 100.691406 C 153.46875 100.691406 150.085938 102.09375 147.589844 104.589844 C 145.09375 107.085938 143.691406 110.46875 143.691406 114 C 143.691406 117.53125 145.09375 120.914062 147.589844 123.410156 C 150.085938 125.90625 153.46875 127.308594 157 127.308594 C 160.53125 127.308594 163.914062 125.90625 166.410156 123.410156 C 168.90625 120.914062 170.308594 117.53125 170.308594 114 Z M 170.308594 114 "/>
<path style=" stroke:none;fill-rule:evenodd;fill:rgb(85.096741%,85.096741%,81.959534%);fill-opacity:0.7;" d="M 170.308594 111 C 170.308594 107.46875 168.90625 104.085938 166.410156 101.589844 C 163.914062 99.09375 160.53125 97.691406 157 97.691406 C 153.46875 97.691406 150.085938 99.09375 147.589844 101.589844 C 145.09375 104.085938 143.691406 107.46875 143.691406 111 C 143.691406 114.53125 145.09375 117.914062 147.589844 120.410156 C 150.085938 122.90625 153.46875 124.308594 157 124.308594 C 160.53125 124.308594 163.914062 122.90625 166.410156 120.410156 C 168.90625 117.914062 170.308594 114.53125 170.308594 111 Z M 170.308594 111 "/>
<path style=" stroke:none;fill-rule:evenodd;fill:rgb(85.096741%,85.096741%,81.959534%);fill-opacity:0.7;" d="M 70.308594 107 C 70.308594 103.46875 68.90625 100.085938 66.410156 97.589844 C 63.914062 95.09375 60.53125 93.691406 57 93.691406 C 53.46875 93.691406 50.085938 95.09375 47.589844 97.589844 C 45.09375 100.085938 43.691406 103.46875 43.691406 107 C 43.691406 110.53125 45.09375 113.914062 47.589844 116.410156 C 50.085938 118.90625 53.46875 120.308594 57 120.308594 C 60.53125 120.308594 63.914062 118.90625 66.410156 116.410156 C 68.90625 113.914062 70.308594 110.53125 70.308594 107 Z M 70.308594 107 "/>
<path style=" stroke:none;fill-rule:evenodd;fill:rgb(85.096741%,85.096741%,81.959534%);fill-opacity:0.7;" d="M 101.308594 81 C 101.308594 77.46875 99.90625 74.085938 97.410156 71.589844 C 94.914062 69.09375 91.53125 67.691406 88 67.691406 C 84.46875 67.691406 81.085938 69.09375 78.589844 71.589844 C 76.09375 74.085938 74.691406 77.46875 74.691406 81 C 74.691406 84.53125 76.09375 87.914062 78.589844 90.410156 C 81.085938 92.90625 84.46875 94.308594 88 94.308594 C 91.53125 94.308594 94.914062 92.90625 97.410156 90.410156 C 99.90625 87.914062 101.308594 84.53125 101.308594 81 Z M 101.308594 81 "/>
<path style=" stroke:none;fill-rule:evenodd;fill:rgb(85.096741%,85.096741%,81.959534%);fill-opacity:0.7;" d="M 182.308594 75 C 182.308594 71.46875 180.90625 68.085938 178.410156 65.589844 C 175.914062 63.09375 172.53125 61.691406 169 61.691406 C 165.46875 61.691406 162.085938 63.09375 159.589844 65.589844 C 157.09375 68.085938 155.691406 71.46875 155.691406 75 C 155.691406 78.53125 157.09375 81.914062 159.589844 84.410156 C 162.085938 86.90625 165.46875 88.308594 169 88.308594 C 172.53125 88.308594 175.914062 86.90625 178.410156 84.410156 C 180.90625 81.914062 182.308594 78.53125 182.308594 75 Z M 182.308594 75 "/>
<path style=" stroke:none;fill-rule:evenodd;fill:rgb(85.096741%,85.096741%,81.959534%);fill-opacity:0.7;" d="M 64.308594 45 C 64.308594 41.46875 62.90625 38.085938 60.410156 35.589844 C 57.914062 33.09375 54.53125 31.691406 51 31.691406 C 47.46875 31.691406 44.085938 33.09375 41.589844 35.589844 C 39.09375 38.085938 37.691406 41.46875 37.691406 45 C 37.691406 48.53125 39.09375 51.914062 41.589844 54.410156 C 44.085938 56.90625 47.46875 58.308594 51 58.308594 C 54.53125 58.308594 57.914062 56.90625 60.410156 54.410156 C 62.90625 51.914062 64.308594 48.53125 64.308594 45 Z M 64.308594 45 "/>
<path style=" stroke:none;fill-rule:evenodd;fill:rgb(85.096741%,85.096741%,81.959534%);fill-opacity:0.7;" d="M 0.308594 39 C 0.308594 35.46875 -1.09375 32.085938 -3.589844 29.589844 C -6.085938 27.09375 -9.46875 25.691406 -13 25.691406 C -16.53125 25.691406 -19.914062 27.09375 -22.410156 29.589844 C -24.90625 32.085938 -26.308594 35.46875 -26.308594 39 C -26.308594 42.53125 -24.90625 45.914062 -22.410156 48.410156 C -19.914062 50.90625 -16.53125 52.308594 -13 52.308594 C -9.46875 52.308594 -6.085938 50.90625 -3.589844 48.410156 C -1.09375 45.914062 0.308594 42.53125 0.308594 39 Z M 0.308594 39 "/>
<path style=" stroke:none;fill-rule:evenodd;fill:rgb(85.096741%,85.096741%,81.959534%);fill-opacity:0.7;" d="M 3.308594 22 C 3.308594 18.46875 1.90625 15.085938 -0.589844 12.589844 C -3.085938 10.09375 -6.46875 8.691406 -10 8.691406 C -13.53125 8.691406 -16.914062 10.09375 -19.410156 12.589844 C -21.90625 15.085938 -23.308594 18.46875 -23.308594 22 C -23.308594 25.53125 -21.90625 28.914062 -19.410156 31.410156 C -16.914062 33.90625 -13.53125 35.308594 -10 35.308594 C -6.46875 35.308594 -3.085938 33.90625 -0.589844 31.410156 C 1.90625 28.914062 3.308594 25.53125 3.308594 22 Z M 3.308594 22 "/>
<path style="fill-rule:nonzero;fill:rgb(99.998474%,99.998474%,30.587769%);fill-opacity:0.8;stroke-width:0.288;stroke-linecap:square;stroke-linejoin:miter;stroke:rgb(0%,0%,0%);stroke-opacity:0.8;stroke-miterlimit:3.25;" d="M 160.738281 59.882812 L 131.921875 109.792969 L 189.554688 109.792969 Z M 160.738281 59.882812 " transform="matrix(1,0,0,1,-74,-13)"/>
<g clip-path="url(#clip28)" clip-rule="nonzero">
<path style=" stroke:none;fill-rule:nonzero;fill:rgb(99.998474%,99.998474%,30.587769%);fill-opacity:0.8;" d="M 382.871094 43.554688 L 354.054688 93.464844 L 411.6875 93.464844 Z M 382.871094 43.554688 "/>
</g>
<g clip-path="url(#clip29)" clip-rule="nonzero">
<path style="fill:none;stroke-width:0.288;stroke-linecap:square;stroke-linejoin:miter;stroke:rgb(0%,0%,0%);stroke-opacity:0.8;stroke-miterlimit:3.25;" d="M 456.871094 56.554688 L 428.054688 106.464844 L 485.6875 106.464844 Z M 456.871094 56.554688 " transform="matrix(1,0,0,1,-74,-13)"/>
</g>
<path style="fill-rule:nonzero;fill:rgb(99.998474%,99.998474%,30.587769%);fill-opacity:0.8;stroke-width:0.288;stroke-linecap:square;stroke-linejoin:miter;stroke:rgb(0%,0%,0%);stroke-opacity:0.8;stroke-miterlimit:3.25;" d="M 250.574219 133.082031 L 221.761719 182.992188 L 279.390625 182.992188 Z M 250.574219 133.082031 " transform="matrix(1,0,0,1,-74,-13)"/>
</g>
</svg>
