<?xml version="1.0" encoding="UTF-8"?>
<svg xmlns="http://www.w3.org/2000/svg" xmlns:xlink="http://www.w3.org/1999/xlink" width="361pt" height="361pt" viewBox="0 0 361 361" version="1.1">
<defs>
<clipPath id="clip1">
  <path d="M 259 0 L 360 0 L 360 17 L 259 17 Z M 259 0 "/>
</clipPath>
<clipPath id="clip2">
  <path d="M 354 116 L 360 116 L 360 157 L 354 157 Z M 354 116 "/>
</clipPath>
<clipPath id="clip3">
  <path d="M 357 107 L 360 107 L 360 118 L 357 118 Z M 357 107 "/>
</clipPath>
<clipPath id="clip4">
  <path d="M 343 79 L 360 79 L 360 90 L 343 90 Z M 343 79 "/>
</clipPath>
<clipPath id="clip5">
  <path d="M 350 37 L 360 37 L 360 77 L 350 77 Z M 350 37 "/>
</clipPath>
<clipPath id="clip6">
  <path d="M 59 349 L 95 349 L 95 360 L 59 360 Z M 59 349 "/>
</clipPath>
<clipPath id="clip7">
  <path d="M 110 300 L 170 300 L 170 360 L 110 360 Z M 110 300 "/>
</clipPath>
<clipPath id="clip8">
  <path d="M 83 311 L 123 311 L 123 360 L 83 360 Z M 83 311 "/>
</clipPath>
<clipPath id="clip9">
  <path d="M 69 358 L 137 358 L 137 360 L 69 360 Z M 69 358 "/>
</clipPath>
<clipPath id="clip10">
  <path d="M 0 338 L 26 338 L 26 360 L 0 360 Z M 0 338 "/>
</clipPath>
<clipPath id="clip11">
  <path d="M 35 345 L 67 345 L 67 360 L 35 360 Z M 35 345 "/>
</clipPath>
<clipPath id="clip12">
  <path d="M 17 342 L 43 342 L 43 360 L 17 360 Z M 17 342 "/>
</clipPath>
<clipPath id="clip13">
  <path d="M 349 296 L 360 296 L 360 309 L 349 309 Z M 349 296 "/>
</clipPath>
<clipPath id="clip14">
  <path d="M 337 244 L 360 244 L 360 255 L 337 255 Z M 337 244 "/>
</clipPath>
<clipPath id="clip15">
  <path d="M 350 255 L 360 255 L 360 289 L 350 289 Z M 350 255 "/>
</clipPath>
<clipPath id="clip16">
  <path d="M 357 256 L 360 256 L 360 295 L 357 295 Z M 357 256 "/>
</clipPath>
<clipPath id="clip17">
  <path d="M 353 194 L 360 194 L 360 213 L 353 213 Z M 353 194 "/>
</clipPath>
<clipPath id="clip18">
  <path d="M 355 164 L 360 164 L 360 193 L 355 193 Z M 355 164 "/>
</clipPath>
<clipPath id="clip19">
  <path d="M 153 329 L 270 329 L 270 360 L 153 360 Z M 153 329 "/>
</clipPath>
<clipPath id="clip20">
  <path d="M 275 160 L 360 160 L 360 360 L 275 360 Z M 275 160 "/>
</clipPath>
<clipPath id="clip21">
  <path d="M 325 0 L 360 0 L 360 60 L 325 60 Z M 325 0 "/>
</clipPath>
</defs>
<g id="surface2065">
<path style="fill-rule:nonzero;fill:rgb(0%,0%,0%);fill-opacity:1;stroke-width:0.03;stroke-linecap:square;stroke-linejoin:miter;stroke:rgb(0%,0%,0%);stroke-opacity:1;stroke-miterlimit:10;" d="M 0 178 L 360 178 L 360 -182 L 0 -182 Z M 0 178 " transform="matrix(1,0,0,1,0,182)"/>
<g clip-path="url(#clip1)" clip-rule="nonzero">
<path style=" stroke:none;fill-rule:nonzero;fill:rgb(39.99939%,39.99939%,39.99939%);fill-opacity:0.3;" d="M 316.5 -158.082031 L 316.554688 -144.617188 L 325.238281 -144.441406 L 329.007812 -138.230469 L 331.609375 -134.332031 L 375.40625 -64.265625 L 373.230469 -52.140625 L 339.222656 -102.808594 L 338.191406 -102.195312 L 337.035156 -101.507812 L 366.328125 -55.117188 L 372.398438 -47.269531 L 367.058594 -15.601562 L 362.953125 13.484375 L 361.6875 16.277344 L 259.929688 -22.539062 L 270.902344 -134.480469 L 273.585938 -167.425781 L 274.703125 -182.675781 L 275.609375 -194.082031 L 276.28125 -202.886719 L 276.714844 -205.964844 L 277.875 -209.269531 L 280.128906 -212.539062 L 282.824219 -215.699219 L 283.097656 -215.246094 L 285.09375 -207.597656 L 289.085938 -199.113281 L 305.054688 -176.15625 L 306.550781 -174.160156 L 316.867188 -157.949219 Z M 316.5 -158.082031 "/>
</g>
<path style=" stroke:none;fill-rule:nonzero;fill:rgb(39.99939%,39.99939%,39.99939%);fill-opacity:0.3;" d="M -28.089844 206.941406 L -10.6875 209.097656 L -10.648438 208.601562 L -10.617188 208.148438 L -27.695312 205.789062 L -26.582031 199.691406 L 11.101562 205.828125 L 1.117188 247.679688 L -17.417969 245.167969 L -17.539062 246.488281 L -17.617188 248.023438 L 0.578125 250.613281 L -10.242188 301.523438 L -26.207031 298.742188 L -26.367188 299.648438 L -26.558594 300.726562 L -10.335938 303.558594 L -13.695312 319.894531 L -51.25 325.136719 L -29.988281 218.382812 L -9.089844 221.355469 L -8.992188 220.523438 L -8.875 219.5 L -29.746094 216.660156 Z M -28.089844 206.941406 "/>
<path style=" stroke:none;fill-rule:nonzero;fill:rgb(39.99939%,39.99939%,39.99939%);fill-opacity:0.3;" d="M 103.386719 237.117188 L 118.65625 252.347656 L 119.210938 251.78125 L 119.730469 251.300781 L 103.753906 235.554688 L 109.875 215.738281 L 110.1875 214.820312 L 110.949219 214.757812 L 173.925781 282.027344 L 174.035156 283.199219 L 173.820312 284.4375 L 173.058594 285.5625 L 172.121094 286.210938 L 83.515625 303.222656 Z M 103.386719 237.117188 "/>
<path style=" stroke:none;fill-rule:nonzero;fill:rgb(39.99939%,39.99939%,39.99939%);fill-opacity:0.3;" d="M 165.277344 302.003906 L 169.328125 300.859375 L 169.292969 300.941406 L 167.320312 302.914062 Z M 165.277344 302.003906 "/>
<path style=" stroke:none;fill-rule:nonzero;fill:rgb(39.99939%,39.99939%,39.99939%);fill-opacity:0.3;" d="M 31.945312 312.050781 L -8.609375 319.355469 L 1.628906 272.273438 L 37.195312 277.644531 Z M 31.945312 312.050781 "/>
<path style=" stroke:none;fill-rule:nonzero;fill:rgb(39.99939%,39.99939%,39.99939%);fill-opacity:0.3;" d="M 14.988281 206.324219 L 50.136719 211.894531 L 39.328125 266.761719 L 29.589844 265 L 30.917969 258.953125 L 28.851562 258.570312 L 26.933594 258.214844 L 24.597656 268.027344 L 28.554688 268.757812 L 29.035156 266.921875 L 38.421875 269.089844 L 37.039062 275.925781 L 2.046875 270.476562 Z M 14.988281 206.324219 "/>
<path style=" stroke:none;fill-rule:nonzero;fill:rgb(39.99939%,39.99939%,39.99939%);fill-opacity:0.3;" d="M 43.558594 270.25 L 86.308594 276.160156 L 79.71875 303.125 L 36.558594 311.207031 L 41.90625 276.265625 Z M 43.558594 270.25 "/>
<path style=" stroke:none;fill-rule:nonzero;fill:rgb(39.99939%,39.99939%,39.99939%);fill-opacity:0.3;" d="M 51.085938 228.941406 L 98.113281 236.371094 L 87.027344 274.132812 L 43.261719 268.34375 L 45.273438 258.523438 L 65.613281 262.394531 L 65.875 263.410156 L 69.625 263.816406 L 69.910156 261.902344 L 70.195312 259.984375 L 63.5625 258.351562 L 62.734375 259.59375 L 45.589844 256.871094 Z M 51.085938 228.941406 "/>
<path style=" stroke:none;fill-rule:nonzero;fill:rgb(39.99939%,39.99939%,39.99939%);fill-opacity:0.3;" d="M 54.078125 212.683594 L 103.304688 220.171875 L 99.003906 234.683594 L 51.550781 227.367188 Z M 54.078125 212.683594 "/>
<path style=" stroke:none;fill-rule:nonzero;fill:rgb(39.99939%,39.99939%,39.99939%);fill-opacity:0.3;" d="M -23.601562 182.386719 L 14.140625 188.929688 L 11.164062 204.789062 L -26.125 198.792969 Z M -23.601562 182.386719 "/>
<path style=" stroke:none;fill-rule:nonzero;fill:rgb(39.99939%,39.99939%,39.99939%);fill-opacity:0.3;" d="M 45.488281 148.804688 L 99.050781 204.21875 L 56.695312 197.335938 L 54.015625 194.75 L 18.398438 188.03125 L 20.328125 178.199219 L 40.1875 181.730469 L 40.300781 180.949219 L 40.402344 180.25 L 20.871094 176.621094 L 22.921875 168.234375 L 24.28125 163.542969 L 27.597656 155.898438 L 32.195312 150.308594 L 38.917969 143.871094 L 39.769531 143.394531 L 40.714844 143.488281 Z M 45.488281 148.804688 "/>
<path style=" stroke:none;fill-rule:nonzero;fill:rgb(39.99939%,39.99939%,39.99939%);fill-opacity:0.3;" d="M 17.667969 190.667969 L 51.644531 197.449219 L 49.664062 210.863281 L 15.464844 205.066406 Z M 17.667969 190.667969 "/>
<path style=" stroke:none;fill-rule:nonzero;fill:rgb(39.99939%,39.99939%,39.99939%);fill-opacity:0.3;" d="M 56.023438 198.359375 L 100.574219 205.585938 L 104.472656 210.515625 L 104.742188 215.289062 L 103.640625 218.980469 L 54.054688 211.335938 Z M 56.023438 198.359375 "/>
<path style=" stroke:none;fill-rule:nonzero;fill:rgb(39.99939%,39.99939%,39.99939%);fill-opacity:0.3;" d="M 35.59375 134.679688 L 39.554688 138.273438 L 33.519531 144.367188 L 26.460938 152.375 L 22.902344 158.171875 L 19.332031 166 L 16.910156 175.960938 L -2.058594 172.75 L -2.125 173.222656 L -2.183594 173.632812 L 16.769531 176.800781 L 14.699219 186.140625 L -24.882812 178.847656 L -31.070312 208.765625 L -56.339844 204.949219 L -35.710938 169.476562 L -37.136719 168.601562 L -38.566406 167.726562 L -107.300781 283.835938 L -140.574219 275.636719 L -63.925781 142.636719 L -63.050781 143.4375 L -61.992188 141.648438 L -22.578125 74.945312 Z M 35.59375 134.679688 "/>
<path style=" stroke:none;fill-rule:nonzero;fill:rgb(39.99939%,39.99939%,39.99939%);fill-opacity:0.3;" d="M 238.726562 36.429688 L 182.003906 28.765625 L 167.75 26.835938 L 177.527344 -40.261719 L 234.78125 -18.183594 L 237.253906 -16.867188 L 239.574219 -15.257812 L 241.738281 -12.035156 L 242.203125 -9.105469 L 242.359375 -6.910156 L 240.121094 19.800781 Z M 238.726562 36.429688 "/>
<path style=" stroke:none;fill-rule:nonzero;fill:rgb(39.99939%,39.99939%,39.99939%);fill-opacity:0.3;" d="M 38.023438 -93.597656 L 4.183594 91.230469 L -19.195312 66.03125 L -2.050781 -25.546875 L 0.265625 -27.820312 L 1.460938 -30.777344 L 2.414062 -33.203125 L 3.132812 -35.398438 L 3.492188 -38.359375 L 3.046875 -41.082031 L 1.875 -43.199219 L 14.457031 -102.832031 Z M 38.023438 -93.597656 "/>
<path style=" stroke:none;fill-rule:nonzero;fill:rgb(39.99939%,39.99939%,39.99939%);fill-opacity:0.3;" d="M 149.3125 33.582031 L 150.03125 28.34375 L 190.003906 33.167969 L 189.273438 38.515625 Z M 149.3125 33.582031 "/>
<path style=" stroke:none;fill-rule:nonzero;fill:rgb(39.99939%,39.99939%,39.99939%);fill-opacity:0.3;" d="M 88.039062 39.949219 L 93.554688 40.632812 L 88.734375 75.78125 L 83.222656 75.101562 Z M 88.039062 39.949219 "/>
<path style=" stroke:none;fill-rule:nonzero;fill:rgb(39.99939%,39.99939%,39.99939%);fill-opacity:0.3;" d="M 54.28125 74.1875 L 59.792969 74.871094 L 53.402344 121.511719 L 47.886719 120.828125 Z M 54.28125 74.1875 "/>
<path style=" stroke:none;fill-rule:nonzero;fill:rgb(39.99939%,39.99939%,39.99939%);fill-opacity:0.3;" d="M 12.046875 81.246094 L 22.957031 82.59375 L 21.019531 96.699219 L 9.820312 95.316406 Z M 12.046875 81.246094 "/>
<path style=" stroke:none;fill-rule:nonzero;fill:rgb(39.99939%,39.99939%,39.99939%);fill-opacity:0.3;" d="M 24.128906 82.601562 L 35.039062 83.949219 L 31.800781 107.523438 L 20.605469 106.140625 Z M 24.128906 82.601562 "/>
<path style=" stroke:none;fill-rule:nonzero;fill:rgb(39.99939%,39.99939%,39.99939%);fill-opacity:0.3;" d="M 37.296875 84.253906 L 48.207031 85.601562 L 43.617188 119.042969 L 32.421875 117.660156 Z M 37.296875 84.253906 "/>
<path style=" stroke:none;fill-rule:nonzero;fill:rgb(39.99939%,39.99939%,39.99939%);fill-opacity:0.3;" d="M 42.246094 56.929688 L 53.15625 58.277344 L 49.679688 83.578125 L 38.484375 82.195312 Z M 42.246094 56.929688 "/>
<path style=" stroke:none;fill-rule:nonzero;fill:rgb(39.99939%,39.99939%,39.99939%);fill-opacity:0.3;" d="M 28.992188 55.292969 L 40.058594 56.660156 L 36.65625 81.65625 L 25.457031 80.273438 Z M 28.992188 55.292969 "/>
<path style=" stroke:none;fill-rule:nonzero;fill:rgb(39.99939%,39.99939%,39.99939%);fill-opacity:0.3;" d="M 16.175781 53.710938 L 27.085938 55.058594 L 23.640625 80.15625 L 12.445312 78.773438 Z M 16.175781 53.710938 "/>
<path style=" stroke:none;fill-rule:nonzero;fill:rgb(39.99939%,39.99939%,39.99939%);fill-opacity:0.3;" d="M 21.5 42.222656 L 22.21875 36.988281 L 68.476562 42.703125 L 67.757812 47.9375 Z M 21.5 42.222656 "/>
<path style=" stroke:none;fill-rule:nonzero;fill:rgb(39.99939%,39.99939%,39.99939%);fill-opacity:0.3;" d="M 55.859375 58.621094 L 61.375 59.300781 L 59.445312 73.359375 L 53.933594 72.675781 Z M 55.859375 58.621094 "/>
<path style=" stroke:none;fill-rule:nonzero;fill:rgb(39.99939%,39.99939%,39.99939%);fill-opacity:0.3;" d="M 71.964844 42.289062 L 77.480469 42.972656 L 75.109375 60.242188 L 69.597656 59.5625 Z M 71.964844 42.289062 "/>
<path style=" stroke:none;fill-rule:nonzero;fill:rgb(39.99939%,39.99939%,39.99939%);fill-opacity:0.3;" d="M 78.320312 78.597656 L 89.222656 79.945312 L 86.917969 96.75 L 75.722656 95.367188 Z M 78.320312 78.597656 "/>
<path style=" stroke:none;fill-rule:nonzero;fill:rgb(39.99939%,39.99939%,39.99939%);fill-opacity:0.3;" d="M 71.511719 62.210938 L 77.023438 62.894531 L 72.203125 98.042969 L 66.691406 97.363281 Z M 71.511719 62.210938 "/>
<path style=" stroke:none;fill-rule:nonzero;fill:rgb(39.99939%,39.99939%,39.99939%);fill-opacity:0.3;" d="M 123.609375 44.191406 L 134.515625 45.539062 L 131.710938 65.976562 L 120.515625 64.59375 Z M 123.609375 44.191406 "/>
<path style=" stroke:none;fill-rule:nonzero;fill:rgb(39.99939%,39.99939%,39.99939%);fill-opacity:0.3;" d="M 108.808594 42.414062 L 122.007812 44.046875 L 117.460938 77.492188 L 104.226562 75.859375 Z M 108.808594 42.414062 "/>
<path style=" stroke:none;fill-rule:nonzero;fill:rgb(39.99939%,39.99939%,39.99939%);fill-opacity:0.3;" d="M 95.394531 40.816406 L 107.542969 42.316406 L 101.953125 83.378906 L 89.761719 81.890625 Z M 95.394531 40.816406 "/>
<path style=" stroke:none;fill-rule:nonzero;fill:rgb(39.99939%,39.99939%,39.99939%);fill-opacity:0.3;" d="M 92.988281 36.65625 L 93.707031 31.421875 L 127.660156 35.613281 L 126.945312 40.851562 Z M 92.988281 36.65625 "/>
<path style=" stroke:none;fill-rule:nonzero;fill:rgb(39.99939%,39.99939%,39.99939%);fill-opacity:0.3;" d="M 148.570312 36.820312 L 159.476562 38.167969 L 157.5 52.574219 L 146.386719 51.203125 Z M 148.570312 36.820312 "/>
<path style=" stroke:none;fill-rule:nonzero;fill:rgb(39.99939%,39.99939%,39.99939%);fill-opacity:0.3;" d="M 77.496094 -2.886719 L 78.214844 -8.125 L 112.722656 -3.863281 L 112.003906 1.375 Z M 77.496094 -2.886719 "/>
<path style=" stroke:none;fill-rule:nonzero;fill:rgb(39.99939%,39.99939%,39.99939%);fill-opacity:0.3;" d="M 25.433594 10.316406 L 36.34375 11.664062 L 33.179688 34.695312 L 21.914062 33.304688 Z M 25.433594 10.316406 "/>
<path style=" stroke:none;fill-rule:nonzero;fill:rgb(39.99939%,39.99939%,39.99939%);fill-opacity:0.3;" d="M 37.515625 11.757812 L 48.425781 13.105469 L 45.257812 36.1875 L 34.089844 34.804688 Z M 37.515625 11.757812 "/>
<path style=" stroke:none;fill-rule:nonzero;fill:rgb(39.99939%,39.99939%,39.99939%);fill-opacity:0.3;" d="M 41.1875 -12.867188 L 52.09375 -11.519531 L 48.90625 11.710938 L 37.710938 10.328125 Z M 41.1875 -12.867188 "/>
<path style=" stroke:none;fill-rule:nonzero;fill:rgb(39.99939%,39.99939%,39.99939%);fill-opacity:0.3;" d="M 29.109375 -14.359375 L 40.019531 -13.011719 L 36.824219 10.269531 L 25.625 8.886719 Z M 29.109375 -14.359375 "/>
<path style=" stroke:none;fill-rule:nonzero;fill:rgb(39.99939%,39.99939%,39.99939%);fill-opacity:0.3;" d="M 60.335938 27.691406 L 63.625 3.445312 L 80.910156 5.527344 L 77.449219 40.238281 L 64.394531 39.027344 L 65.488281 28.210938 Z M 60.335938 27.691406 "/>
<path style=" stroke:none;fill-rule:nonzero;fill:rgb(39.99939%,39.99939%,39.99939%);fill-opacity:0.3;" d="M 56.957031 -9.265625 L 62.269531 -8.664062 L 56.097656 36.351562 L 50.585938 35.671875 Z M 56.957031 -9.265625 "/>
<path style=" stroke:none;fill-rule:nonzero;fill:rgb(39.99939%,39.99939%,39.99939%);fill-opacity:0.3;" d="M 87.800781 1.816406 L 109.316406 4.242188 L 106.394531 28.664062 L 85.0625 26.238281 Z M 87.800781 1.816406 "/>
<path style=" stroke:none;fill-rule:nonzero;fill:rgb(39.99939%,39.99939%,39.99939%);fill-opacity:0.3;" d="M 168.152344 -37.632812 L 173.664062 -36.949219 L 167.289062 9.558594 L 161.777344 8.878906 Z M 168.152344 -37.632812 "/>
<path style=" stroke:none;fill-rule:nonzero;fill:rgb(39.99939%,39.99939%,39.99939%);fill-opacity:0.3;" d="M 141.203125 26.113281 L 146.714844 26.796875 L 142.648438 56.457031 L 137.132812 55.773438 Z M 141.203125 26.113281 "/>
<path style=" stroke:none;fill-rule:nonzero;fill:rgb(39.99939%,39.99939%,39.99939%);fill-opacity:0.3;" d="M 113.523438 12.347656 L 114.242188 7.109375 L 160.21875 12.789062 L 159.5 18.023438 Z M 113.523438 12.347656 "/>
<path style=" stroke:none;fill-rule:nonzero;fill:rgb(39.99939%,39.99939%,39.99939%);fill-opacity:0.3;" d="M 146.757812 -14.789062 L 158.90625 -13.289062 L 155.964844 8.457031 L 143.773438 6.96875 Z M 146.757812 -14.789062 "/>
<path style=" stroke:none;fill-rule:nonzero;fill:rgb(39.99939%,39.99939%,39.99939%);fill-opacity:0.3;" d="M 136.707031 -47.714844 L 148.855469 -46.214844 L 141.710938 6.214844 L 129.519531 4.726562 Z M 136.707031 -47.714844 "/>
<path style=" stroke:none;fill-rule:nonzero;fill:rgb(39.99939%,39.99939%,39.99939%);fill-opacity:0.3;" d="M 193.496094 39.929688 L 194.210938 34.695312 L 232.683594 39.445312 L 231.964844 44.679688 Z M 193.496094 39.929688 "/>
<path style=" stroke:none;fill-rule:nonzero;fill:rgb(39.99939%,39.99939%,39.99939%);fill-opacity:0.3;" d="M 307.894531 129.09375 L 308.613281 123.859375 L 346.539062 128.542969 L 345.820312 133.78125 Z M 307.894531 129.09375 "/>
<path style=" stroke:none;fill-rule:nonzero;fill:rgb(39.99939%,39.99939%,39.99939%);fill-opacity:0.3;" d="M 326.816406 50.300781 L 338.960938 51.804688 L 336.015625 73.277344 L 323.871094 71.777344 Z M 326.816406 50.300781 "/>
<path style=" stroke:none;fill-rule:nonzero;fill:rgb(39.99939%,39.99939%,39.99939%);fill-opacity:0.3;" d="M 281.472656 87.367188 L 293.617188 88.867188 L 288.53125 126.265625 L 276.34375 124.777344 Z M 281.472656 87.367188 "/>
<path style=" stroke:none;fill-rule:nonzero;fill:rgb(39.99939%,39.99939%,39.99939%);fill-opacity:0.3;" d="M 266.15625 100.574219 L 278.304688 102.074219 L 275.210938 124.636719 L 263.0625 123.132812 Z M 266.15625 100.574219 "/>
<path style=" stroke:none;fill-rule:nonzero;fill:rgb(39.99939%,39.99939%,39.99939%);fill-opacity:0.3;" d="M 268.292969 85.394531 L 280.4375 86.898438 L 278.515625 100.90625 L 266.371094 99.40625 Z M 268.292969 85.394531 "/>
<path style=" stroke:none;fill-rule:nonzero;fill:rgb(39.99939%,39.99939%,39.99939%);fill-opacity:0.3;" d="M 256.039062 83.902344 L 266.777344 85.230469 L 261.640625 122.980469 L 250.867188 121.644531 Z M 256.039062 83.902344 "/>
<path style=" stroke:none;fill-rule:nonzero;fill:rgb(39.99939%,39.99939%,39.99939%);fill-opacity:0.3;" d="M 260.242188 81.4375 L 260.960938 76.203125 L 306.511719 81.832031 L 305.792969 87.066406 Z M 260.242188 81.4375 "/>
<path style=" stroke:none;fill-rule:nonzero;fill:rgb(39.99939%,39.99939%,39.99939%);fill-opacity:0.3;" d="M 316.519531 84.414062 L 322.03125 85.097656 L 317.210938 120.246094 L 311.699219 119.566406 Z M 316.519531 84.414062 "/>
<path style=" stroke:none;fill-rule:nonzero;fill:rgb(39.99939%,39.99939%,39.99939%);fill-opacity:0.3;" d="M 297.003906 90.4375 L 302.519531 91.117188 L 297.605469 127.960938 L 292.019531 127.300781 Z M 297.003906 90.4375 "/>
<g clip-path="url(#clip2)" clip-rule="nonzero">
<path style=" stroke:none;fill-rule:nonzero;fill:rgb(39.99939%,39.99939%,39.99939%);fill-opacity:0.3;" d="M 359.972656 116.980469 L 365.484375 117.664062 L 360.160156 156.5 L 354.644531 155.816406 Z M 359.972656 116.980469 "/>
</g>
<path style=" stroke:none;fill-rule:nonzero;fill:rgb(39.99939%,39.99939%,39.99939%);fill-opacity:0.3;" d="M 330.191406 25.800781 L 342.339844 27.304688 L 339.46875 48.234375 L 327.324219 46.734375 Z M 330.191406 25.800781 "/>
<g clip-path="url(#clip3)" clip-rule="nonzero">
<path style=" stroke:none;fill-rule:nonzero;fill:rgb(39.99939%,39.99939%,39.99939%);fill-opacity:0.3;" d="M 357.929688 113 L 358.648438 107.761719 L 391.691406 111.84375 L 390.976562 117.082031 Z M 357.929688 113 "/>
</g>
<path style=" stroke:none;fill-rule:nonzero;fill:rgb(39.99939%,39.99939%,39.99939%);fill-opacity:0.3;" d="M 322.820312 97.347656 L 344.460938 100.171875 L 343.652344 108.304688 L 349.367188 109.078125 L 347.066406 123.539062 L 319.980469 120.589844 Z M 322.820312 97.347656 "/>
<g clip-path="url(#clip4)" clip-rule="nonzero">
<path style=" stroke:none;fill-rule:nonzero;fill:rgb(39.99939%,39.99939%,39.99939%);fill-opacity:0.3;" d="M 343.136719 84.371094 L 343.851562 79.136719 L 381.777344 83.820312 L 381.058594 89.058594 Z M 343.136719 84.371094 "/>
</g>
<path style=" stroke:none;fill-rule:nonzero;fill:rgb(39.99939%,39.99939%,39.99939%);fill-opacity:0.3;" d="M 324.449219 82.011719 L 325.167969 76.777344 L 339.15625 78.5 L 338.4375 83.738281 Z M 324.449219 82.011719 "/>
<g clip-path="url(#clip5)" clip-rule="nonzero">
<path style=" stroke:none;fill-rule:nonzero;fill:rgb(39.99939%,39.99939%,39.99939%);fill-opacity:0.3;" d="M 356.113281 37.007812 L 368.261719 38.511719 L 363.050781 76.511719 L 350.902344 75.007812 Z M 356.113281 37.007812 "/>
</g>
<path style=" stroke:none;fill-rule:nonzero;fill:rgb(39.99939%,39.99939%,39.99939%);fill-opacity:0.3;" d="M 344.226562 33.214844 L 355.136719 34.5625 L 349.585938 75.007812 L 338.675781 73.660156 Z M 344.226562 33.214844 "/>
<path style=" stroke:none;fill-rule:nonzero;fill:rgb(39.99939%,39.99939%,39.99939%);fill-opacity:0.3;" d="M 288.992188 146.527344 L 301.140625 148.03125 L 299.257812 162.058594 L 287.070312 160.554688 Z M 288.992188 146.527344 "/>
<path style=" stroke:none;fill-rule:nonzero;fill:rgb(39.99939%,39.99939%,39.99939%);fill-opacity:0.3;" d="M 274.441406 144.890625 L 286.585938 146.390625 L 284.234375 163.835938 L 272.046875 162.328125 Z M 274.441406 144.890625 "/>
<path style=" stroke:none;fill-rule:nonzero;fill:rgb(39.99939%,39.99939%,39.99939%);fill-opacity:0.3;" d="M 262.15625 143.445312 L 273.066406 144.792969 L 269.953125 167.449219 L 258.757812 166.066406 Z M 262.15625 143.445312 "/>
<path style=" stroke:none;fill-rule:nonzero;fill:rgb(39.99939%,39.99939%,39.99939%);fill-opacity:0.3;" d="M 249.039062 141.789062 L 259.945312 143.136719 L 256.988281 164.671875 L 245.792969 163.289062 Z M 249.039062 141.789062 "/>
<path style=" stroke:none;fill-rule:nonzero;fill:rgb(39.99939%,39.99939%,39.99939%);fill-opacity:0.3;" d="M 250.71875 137.511719 L 251.4375 132.273438 L 297.414062 137.953125 L 296.695312 143.191406 Z M 250.71875 137.511719 "/>
<path style=" stroke:none;fill-rule:nonzero;fill:rgb(39.99939%,39.99939%,39.99939%);fill-opacity:0.3;" d="M 317.554688 138.871094 L 329.703125 140.375 L 327.621094 155.851562 L 315.433594 154.347656 Z M 317.554688 138.871094 "/>
<path style=" stroke:none;fill-rule:nonzero;fill:rgb(39.99939%,39.99939%,39.99939%);fill-opacity:0.3;" d="M 303.328125 148.398438 L 314.238281 149.746094 L 312.722656 160.734375 L 301.527344 159.347656 Z M 303.328125 148.398438 "/>
<path style=" stroke:none;fill-rule:nonzero;fill:rgb(39.99939%,39.99939%,39.99939%);fill-opacity:0.3;" d="M 332.121094 140.65625 L 343.03125 142.003906 L 341.027344 156.59375 L 329.941406 155.164062 Z M 332.121094 140.65625 "/>
<path style=" stroke:none;fill-rule:nonzero;fill:rgb(39.99939%,39.99939%,39.99939%);fill-opacity:0.3;" d="M 256.570312 34.90625 L 259.363281 1 L 261.527344 -1.933594 L 263.699219 -3.628906 L 265.863281 -4.304688 L 268.996094 -4.535156 L 271.417969 -4.308594 L 320.753906 14.425781 L 317.058594 44.34375 L 313.773438 75.554688 L 253.984375 66.4375 Z M 256.570312 34.90625 "/>
<path style=" stroke:none;fill-rule:nonzero;fill:rgb(39.99939%,39.99939%,39.99939%);fill-opacity:0.3;" d="M 30.972656 326.792969 L 73.96875 319.460938 L 72.976562 323.390625 L 70.683594 331.90625 L 69.382812 335.125 L 57.921875 334.957031 L 30.710938 333.738281 Z M 30.972656 326.792969 "/>
<g clip-path="url(#clip6)" clip-rule="nonzero">
<path style=" stroke:none;fill-rule:nonzero;fill:rgb(39.99939%,39.99939%,39.99939%);fill-opacity:0.3;" d="M 59.964844 352.164062 L 60.101562 350.164062 L 60.742188 349.300781 L 61.890625 349.136719 L 63.191406 349.359375 L 64.878906 350.558594 L 68.675781 353.488281 L 73 355.484375 L 77.304688 357.019531 L 81.304688 358.457031 L 82.589844 361.074219 L 94.175781 386.289062 L 68.816406 387.738281 Z M 59.964844 352.164062 "/>
</g>
<g clip-path="url(#clip7)" clip-rule="nonzero">
<path style=" stroke:none;fill-rule:nonzero;fill:rgb(39.99939%,39.99939%,39.99939%);fill-opacity:0.3;" d="M 125.414062 311.359375 L 145.929688 307.019531 L 163.335938 302.550781 L 165.277344 302.003906 L 167.320312 302.914062 L 169.292969 300.941406 L 139.160156 370.875 L 110.933594 363.546875 Z M 125.414062 311.359375 "/>
</g>
<g clip-path="url(#clip8)" clip-rule="nonzero">
<path style=" stroke:none;fill-rule:nonzero;fill:rgb(39.99939%,39.99939%,39.99939%);fill-opacity:0.3;" d="M 93.398438 315.746094 L 122.453125 311.925781 L 108.5625 362.421875 L 83.695312 356.957031 Z M 93.398438 315.746094 "/>
</g>
<g clip-path="url(#clip9)" clip-rule="nonzero">
<path style=" stroke:none;fill-rule:nonzero;fill:rgb(39.99939%,39.99939%,39.99939%);fill-opacity:0.3;" d="M 74.476562 409.0625 L 69.355469 389.066406 L 97.246094 387.417969 L 83.875 358.839844 L 134.546875 372.300781 L 135.851562 372.863281 L 136.199219 373.523438 L 136.160156 374.328125 L 133.964844 378.324219 L 128.613281 385.792969 L 125.632812 390.863281 L 121.242188 394.179688 L 116.855469 397.136719 Z M 74.476562 409.0625 "/>
</g>
<g clip-path="url(#clip10)" clip-rule="nonzero">
<path style=" stroke:none;fill-rule:nonzero;fill:rgb(39.99939%,39.99939%,39.99939%);fill-opacity:0.3;" d="M -10.074219 338.058594 L 15.183594 342.425781 L 25.289062 382.476562 L 2.636719 379.726562 Z M -10.074219 338.058594 "/>
</g>
<path style=" stroke:none;fill-rule:nonzero;fill:rgb(39.99939%,39.99939%,39.99939%);fill-opacity:0.3;" d="M 29.589844 335.222656 L 68.386719 337.429688 L 65.515625 346.992188 L 27.914062 342.273438 Z M 29.589844 335.222656 "/>
<path style=" stroke:none;fill-rule:nonzero;fill:rgb(39.99939%,39.99939%,39.99939%);fill-opacity:0.3;" d="M 28.363281 332.144531 L 25.847656 341.480469 L -10.617188 336.125 L -9.894531 332.683594 L 28.992188 326.996094 Z M 28.363281 332.144531 "/>
<g clip-path="url(#clip11)" clip-rule="nonzero">
<path style=" stroke:none;fill-rule:nonzero;fill:rgb(39.99939%,39.99939%,39.99939%);fill-opacity:0.3;" d="M 35.933594 347.382812 L 35.898438 346.449219 L 36.296875 345.757812 L 36.734375 345.378906 L 37.609375 345.308594 L 46.519531 346.390625 L 56.878906 347.664062 L 66.625 387.625 L 44.917969 385.882812 Z M 35.933594 347.382812 "/>
</g>
<g clip-path="url(#clip12)" clip-rule="nonzero">
<path style=" stroke:none;fill-rule:nonzero;fill:rgb(39.99939%,39.99939%,39.99939%);fill-opacity:0.3;" d="M 17.359375 342.550781 L 33.378906 344.820312 L 42.445312 384.910156 L 27.871094 383.4375 Z M 17.359375 342.550781 "/>
</g>
<path style=" stroke:none;fill-rule:nonzero;fill:rgb(39.99939%,39.99939%,39.99939%);fill-opacity:0.3;" d="M 67.144531 350.671875 L 76.078125 318.804688 L 90.582031 316.277344 L 80.898438 355.445312 L 74.589844 354.253906 L 71.558594 352.582031 Z M 67.144531 350.671875 "/>
<path style=" stroke:none;fill-rule:nonzero;fill:rgb(39.99939%,39.99939%,39.99939%);fill-opacity:0.3;" d="M 292.894531 213.105469 L 293.609375 207.867188 L 331.96875 212.605469 L 331.25 217.84375 Z M 292.894531 213.105469 "/>
<path style=" stroke:none;fill-rule:nonzero;fill:rgb(39.99939%,39.99939%,39.99939%);fill-opacity:0.3;" d="M 319.953125 174.742188 L 333.078125 176.363281 L 329.148438 205.820312 L 315.914062 204.207031 Z M 319.953125 174.742188 "/>
<path style=" stroke:none;fill-rule:nonzero;fill:rgb(39.99939%,39.99939%,39.99939%);fill-opacity:0.3;" d="M 245.90625 184.980469 L 256.984375 186.351562 L 255.4375 197.589844 L 244.242188 196.207031 Z M 245.90625 184.980469 "/>
<path style=" stroke:none;fill-rule:nonzero;fill:rgb(39.99939%,39.99939%,39.99939%);fill-opacity:0.3;" d="M 289.519531 181.390625 L 302.714844 183.019531 L 300.222656 201.492188 L 286.988281 199.875 Z M 289.519531 181.390625 "/>
<path style=" stroke:none;fill-rule:nonzero;fill:rgb(39.99939%,39.99939%,39.99939%);fill-opacity:0.3;" d="M 248.632812 207.328125 L 249.351562 202.09375 L 287.625 206.820312 L 286.90625 212.058594 Z M 248.632812 207.328125 "/>
<path style=" stroke:none;fill-rule:nonzero;fill:rgb(39.99939%,39.99939%,39.99939%);fill-opacity:0.3;" d="M 259.640625 181.734375 L 271.804688 183.238281 L 269.800781 198.019531 L 257.609375 196.53125 Z M 259.640625 181.734375 "/>
<path style=" stroke:none;fill-rule:nonzero;fill:rgb(39.99939%,39.99939%,39.99939%);fill-opacity:0.3;" d="M 274.085938 179.484375 L 287.28125 181.113281 L 284.769531 199.714844 L 271.535156 198.097656 Z M 274.085938 179.484375 "/>
<path style=" stroke:none;fill-rule:nonzero;fill:rgb(39.99939%,39.99939%,39.99939%);fill-opacity:0.3;" d="M 305.171875 174.144531 L 318.296875 175.765625 L 314.546875 203.894531 L 301.316406 202.28125 Z M 305.171875 174.144531 "/>
<path style=" stroke:none;fill-rule:nonzero;fill:rgb(39.99939%,39.99939%,39.99939%);fill-opacity:0.3;" d="M 342.972656 171.800781 L 348.488281 172.480469 L 342.691406 214.753906 L 337.175781 214.070312 Z M 342.972656 171.800781 "/>
<path style=" stroke:none;fill-rule:nonzero;fill:rgb(39.99939%,39.99939%,39.99939%);fill-opacity:0.3;" d="M 309.015625 276.246094 L 309.734375 271.011719 L 348.089844 275.75 L 347.371094 280.984375 Z M 309.015625 276.246094 "/>
<path style=" stroke:none;fill-rule:nonzero;fill:rgb(39.99939%,39.99939%,39.99939%);fill-opacity:0.3;" d="M 243.734375 217.84375 L 254.644531 219.191406 L 252.011719 238.367188 L 240.816406 236.984375 Z M 243.734375 217.84375 "/>
<path style=" stroke:none;fill-rule:nonzero;fill:rgb(39.99939%,39.99939%,39.99939%);fill-opacity:0.3;" d="M 240.152344 239.65625 L 251.0625 241.003906 L 247.304688 268.375 L 236.109375 266.992188 Z M 240.152344 239.65625 "/>
<path style=" stroke:none;fill-rule:nonzero;fill:rgb(39.99939%,39.99939%,39.99939%);fill-opacity:0.3;" d="M 255.945312 219.355469 L 266.855469 220.703125 L 263.707031 243.636719 L 252.507812 242.253906 Z M 255.945312 219.355469 "/>
<path style=" stroke:none;fill-rule:nonzero;fill:rgb(39.99939%,39.99939%,39.99939%);fill-opacity:0.3;" d="M 252.710938 245.003906 L 263.621094 246.351562 L 260.414062 269.707031 L 249.21875 268.324219 Z M 252.710938 245.003906 "/>
<path style=" stroke:none;fill-rule:nonzero;fill:rgb(39.99939%,39.99939%,39.99939%);fill-opacity:0.3;" d="M 265.984375 242.257812 L 276.894531 243.605469 L 273.191406 270.5625 L 261.996094 269.179688 Z M 265.984375 242.257812 "/>
<path style=" stroke:none;fill-rule:nonzero;fill:rgb(39.99939%,39.99939%,39.99939%);fill-opacity:0.3;" d="M 268.761719 220.9375 L 279.667969 222.285156 L 277.0625 241.25 L 265.867188 239.867188 Z M 268.761719 220.9375 "/>
<path style=" stroke:none;fill-rule:nonzero;fill:rgb(39.99939%,39.99939%,39.99939%);fill-opacity:0.3;" d="M 283.449219 231.140625 L 288.964844 231.824219 L 283.636719 270.660156 L 278.125 269.980469 Z M 283.449219 231.140625 "/>
<path style=" stroke:none;fill-rule:nonzero;fill:rgb(39.99939%,39.99939%,39.99939%);fill-opacity:0.3;" d="M 295.691406 225.589844 L 301.203125 226.269531 L 295.878906 265.105469 L 290.367188 264.425781 Z M 295.691406 225.589844 "/>
<path style=" stroke:none;fill-rule:nonzero;fill:rgb(39.99939%,39.99939%,39.99939%);fill-opacity:0.3;" d="M 313.363281 233.785156 L 314.082031 228.546875 L 352.4375 233.285156 L 351.722656 238.523438 Z M 313.363281 233.785156 "/>
<path style=" stroke:none;fill-rule:nonzero;fill:rgb(39.99939%,39.99939%,39.99939%);fill-opacity:0.3;" d="M 338.28125 295.285156 L 349.191406 296.632812 L 346.84375 313.734375 L 335.84375 312.375 Z M 338.28125 295.285156 "/>
<g clip-path="url(#clip13)" clip-rule="nonzero">
<path style=" stroke:none;fill-rule:nonzero;fill:rgb(39.99939%,39.99939%,39.99939%);fill-opacity:0.3;" d="M 351.492188 296.132812 L 362.402344 297.480469 L 360.957031 308.003906 L 360.371094 308.367188 L 349.898438 307.070312 Z M 351.492188 296.132812 "/>
</g>
<g clip-path="url(#clip14)" clip-rule="nonzero">
<path style=" stroke:none;fill-rule:nonzero;fill:rgb(39.99939%,39.99939%,39.99939%);fill-opacity:0.3;" d="M 337.945312 250.03125 L 338.664062 244.796875 L 371.761719 248.886719 L 371.046875 254.121094 Z M 337.945312 250.03125 "/>
</g>
<path style=" stroke:none;fill-rule:nonzero;fill:rgb(39.99939%,39.99939%,39.99939%);fill-opacity:0.3;" d="M 325.890625 252.910156 L 344.824219 255.359375 L 342.980469 270.855469 L 298.449219 265.414062 L 299.703125 254.089844 L 301.671875 254.234375 L 303.183594 240.746094 L 326.8125 243.050781 Z M 325.890625 252.910156 "/>
<path style=" stroke:none;fill-rule:nonzero;fill:rgb(39.99939%,39.99939%,39.99939%);fill-opacity:0.3;" d="M 331.859375 282.859375 L 337.375 283.542969 L 332.046875 322.378906 L 326.535156 321.695312 Z M 331.859375 282.859375 "/>
<g clip-path="url(#clip15)" clip-rule="nonzero">
<path style=" stroke:none;fill-rule:nonzero;fill:rgb(39.99939%,39.99939%,39.99939%);fill-opacity:0.3;" d="M 354.992188 255.515625 L 360.507812 256.195312 L 356.117188 288.207031 L 350.601562 287.523438 Z M 354.992188 255.515625 "/>
</g>
<g clip-path="url(#clip16)" clip-rule="nonzero">
<path style=" stroke:none;fill-rule:nonzero;fill:rgb(39.99939%,39.99939%,39.99939%);fill-opacity:0.3;" d="M 362.324219 256.582031 L 375.519531 258.210938 L 370.636719 294.085938 L 357.40625 292.46875 Z M 362.324219 256.582031 "/>
</g>
<path style=" stroke:none;fill-rule:nonzero;fill:rgb(39.99939%,39.99939%,39.99939%);fill-opacity:0.3;" d="M 352.484375 215.300781 L 357.996094 215.980469 L 355.90625 231.195312 L 350.394531 230.511719 Z M 352.484375 215.300781 "/>
<g clip-path="url(#clip17)" clip-rule="nonzero">
<path style=" stroke:none;fill-rule:nonzero;fill:rgb(39.99939%,39.99939%,39.99939%);fill-opacity:0.3;" d="M 355.40625 194.519531 L 360.921875 195.199219 L 358.585938 212.199219 L 353.074219 211.515625 Z M 355.40625 194.519531 "/>
</g>
<g clip-path="url(#clip18)" clip-rule="nonzero">
<path style=" stroke:none;fill-rule:nonzero;fill:rgb(39.99939%,39.99939%,39.99939%);fill-opacity:0.3;" d="M 359.253906 164.394531 L 370.164062 165.742188 L 366.515625 192.316406 L 355.320312 190.929688 Z M 359.253906 164.394531 "/>
</g>
<path style=" stroke:none;fill-rule:nonzero;fill:rgb(39.99939%,39.99939%,39.99939%);fill-opacity:0.3;" d="M 275.59375 294.667969 L 286.503906 296.015625 L 285 306.964844 L 274 305.605469 Z M 275.59375 294.667969 "/>
<path style=" stroke:none;fill-rule:nonzero;fill:rgb(39.99939%,39.99939%,39.99939%);fill-opacity:0.3;" d="M 233.535156 288.773438 L 244.445312 290.121094 L 241.039062 314.90625 L 229.839844 313.535156 Z M 233.535156 288.773438 "/>
<path style=" stroke:none;fill-rule:nonzero;fill:rgb(39.99939%,39.99939%,39.99939%);fill-opacity:0.3;" d="M 288.285156 296.082031 L 301.480469 297.710938 L 296.703125 332.832031 L 283.472656 331.195312 Z M 288.285156 296.082031 "/>
<path style=" stroke:none;fill-rule:nonzero;fill:rgb(39.99939%,39.99939%,39.99939%);fill-opacity:0.3;" d="M 260.496094 294.648438 L 273.691406 296.28125 L 269.707031 325.621094 L 256.476562 323.988281 Z M 260.496094 294.648438 "/>
<path style=" stroke:none;fill-rule:nonzero;fill:rgb(39.99939%,39.99939%,39.99939%);fill-opacity:0.3;" d="M 272.796875 313.859375 L 283.867188 315.226562 L 281.789062 330.378906 L 270.59375 328.996094 Z M 272.796875 313.859375 "/>
<path style=" stroke:none;fill-rule:nonzero;fill:rgb(39.99939%,39.99939%,39.99939%);fill-opacity:0.3;" d="M 303.210938 300.488281 L 314.117188 301.835938 L 310.179688 330.539062 L 298.980469 329.15625 Z M 303.210938 300.488281 "/>
<path style=" stroke:none;fill-rule:nonzero;fill:rgb(39.99939%,39.99939%,39.99939%);fill-opacity:0.3;" d="M 216.214844 304.613281 L 216.210938 304.871094 L 215.8125 305.683594 Z M 216.214844 304.613281 "/>
<path style=" stroke:none;fill-rule:nonzero;fill:rgb(39.99939%,39.99939%,39.99939%);fill-opacity:0.3;" d="M 215.675781 305.957031 L 215.203125 306.925781 L 214.015625 307.617188 Z M 215.675781 305.957031 "/>
<path style=" stroke:none;fill-rule:nonzero;fill:rgb(39.99939%,39.99939%,39.99939%);fill-opacity:0.3;" d="M 246.324219 289.230469 L 259.519531 290.863281 L 255.4375 320.910156 L 242.207031 319.273438 Z M 246.324219 289.230469 "/>
<path style=" stroke:none;fill-rule:nonzero;fill:rgb(39.99939%,39.99939%,39.99939%);fill-opacity:0.3;" d="M 236.328125 285.03125 L 237.046875 279.796875 L 275.402344 284.535156 L 274.6875 289.769531 Z M 236.328125 285.03125 "/>
<path style=" stroke:none;fill-rule:nonzero;fill:rgb(39.99939%,39.99939%,39.99939%);fill-opacity:0.3;" d="M 280.308594 290.804688 L 281.027344 285.570312 L 319.382812 290.308594 L 318.667969 295.542969 Z M 280.308594 290.804688 "/>
<path style=" stroke:none;fill-rule:nonzero;fill:rgb(39.99939%,39.99939%,39.99939%);fill-opacity:0.3;" d="M 149.613281 183.695312 L 155.125 184.378906 L 148.726562 231.054688 L 143.214844 230.375 Z M 149.613281 183.695312 "/>
<path style=" stroke:none;fill-rule:nonzero;fill:rgb(39.99939%,39.99939%,39.99939%);fill-opacity:0.3;" d="M 131.242188 185.996094 L 144.4375 187.625 L 140.519531 216.484375 L 127.289062 214.851562 Z M 131.242188 185.996094 "/>
<path style=" stroke:none;fill-rule:nonzero;fill:rgb(39.99939%,39.99939%,39.99939%);fill-opacity:0.3;" d="M 132.121094 179.902344 L 145.316406 181.53125 L 144.664062 186.554688 L 131.300781 184.90625 Z M 132.121094 179.902344 "/>
<path style=" stroke:none;fill-rule:nonzero;fill:rgb(39.99939%,39.99939%,39.99939%);fill-opacity:0.3;" d="M 208.011719 213.417969 L 218.921875 214.765625 L 216.054688 235.621094 L 204.859375 234.238281 Z M 208.011719 213.417969 "/>
<path style=" stroke:none;fill-rule:nonzero;fill:rgb(39.99939%,39.99939%,39.99939%);fill-opacity:0.3;" d="M 183.886719 280.871094 L 185.371094 277.585938 L 192.421875 271.800781 L 219.1875 261.699219 L 216.34375 293.921875 L 216.214844 304.613281 L 215.8125 305.683594 L 215.675781 305.957031 L 214.015625 307.617188 L 213.328125 308.019531 L 210.011719 308.570312 L 208.558594 308.570312 Z M 183.886719 280.871094 "/>
<path style=" stroke:none;fill-rule:nonzero;fill:rgb(39.99939%,39.99939%,39.99939%);fill-opacity:0.3;" d="M 204.789062 236.492188 L 215.699219 237.839844 L 212.945312 257.894531 L 201.746094 256.511719 Z M 204.789062 236.492188 "/>
<path style=" stroke:none;fill-rule:nonzero;fill:rgb(39.99939%,39.99939%,39.99939%);fill-opacity:0.3;" d="M 191.710938 234.628906 L 202.617188 235.976562 L 198.917969 262.933594 L 187.722656 261.550781 Z M 191.710938 234.628906 "/>
<path style=" stroke:none;fill-rule:nonzero;fill:rgb(39.99939%,39.99939%,39.99939%);fill-opacity:0.3;" d="M 176.671875 232.628906 L 189.871094 234.257812 L 185.503906 266.382812 L 172.273438 264.75 Z M 176.671875 232.628906 "/>
<path style=" stroke:none;fill-rule:nonzero;fill:rgb(39.99939%,39.99939%,39.99939%);fill-opacity:0.3;" d="M 179.453125 207.878906 L 192.648438 209.511719 L 189.566406 232.269531 L 176.335938 230.632812 Z M 179.453125 207.878906 "/>
<path style=" stroke:none;fill-rule:nonzero;fill:rgb(39.99939%,39.99939%,39.99939%);fill-opacity:0.3;" d="M 194.589844 212.972656 L 205.5 214.320312 L 202.820312 233.8125 L 191.625 232.425781 Z M 194.589844 212.972656 "/>
<path style=" stroke:none;fill-rule:nonzero;fill:rgb(39.99939%,39.99939%,39.99939%);fill-opacity:0.3;" d="M 177.941406 203.277344 L 178.65625 198.039062 L 216.929688 202.769531 L 216.214844 208.003906 Z M 177.941406 203.277344 "/>
<path style=" stroke:none;fill-rule:nonzero;fill:rgb(39.99939%,39.99939%,39.99939%);fill-opacity:0.3;" d="M 158.75 190.371094 L 159.464844 185.136719 L 197.738281 189.863281 L 197.023438 195.101562 Z M 158.75 190.371094 "/>
<path style=" stroke:none;fill-rule:nonzero;fill:rgb(39.99939%,39.99939%,39.99939%);fill-opacity:0.3;" d="M 199.015625 197.195312 L 200.550781 185.910156 L 219.488281 188.195312 L 218.394531 199.480469 Z M 199.015625 197.195312 "/>
<path style=" stroke:none;fill-rule:nonzero;fill:rgb(39.99939%,39.99939%,39.99939%);fill-opacity:0.3;" d="M 114.871094 122.082031 L 115.585938 116.84375 L 153.859375 121.574219 L 153.144531 126.808594 Z M 114.871094 122.082031 "/>
<path style=" stroke:none;fill-rule:nonzero;fill:rgb(39.99939%,39.99939%,39.99939%);fill-opacity:0.3;" d="M 77.753906 134.210938 L 90.953125 135.84375 L 87.585938 160.675781 L 74.355469 159.042969 Z M 77.753906 134.210938 "/>
<path style=" stroke:none;fill-rule:nonzero;fill:rgb(39.99939%,39.99939%,39.99939%);fill-opacity:0.3;" d="M 65.285156 131.921875 L 76.195312 133.269531 L 73.570312 152.550781 L 62.375 151.167969 Z M 65.285156 131.921875 "/>
<path style=" stroke:none;fill-rule:nonzero;fill:rgb(39.99939%,39.99939%,39.99939%);fill-opacity:0.3;" d="M 52.957031 130.214844 L 63.863281 131.5625 L 62.625 140.730469 L 51.429688 139.347656 Z M 52.957031 130.214844 "/>
<path style=" stroke:none;fill-rule:nonzero;fill:rgb(39.99939%,39.99939%,39.99939%);fill-opacity:0.3;" d="M 63.382812 128.855469 L 64.101562 123.621094 L 110.078125 129.296875 L 109.359375 134.535156 Z M 63.382812 128.855469 "/>
<path style=" stroke:none;fill-rule:nonzero;fill:rgb(39.99939%,39.99939%,39.99939%);fill-opacity:0.3;" d="M 125.496094 131.6875 L 152.363281 134.695312 L 148.839844 162.65625 L 129.898438 160.203125 L 130.132812 156.382812 L 122.792969 155.378906 Z M 125.496094 131.6875 "/>
<path style=" stroke:none;fill-rule:nonzero;fill:rgb(39.99939%,39.99939%,39.99939%);fill-opacity:0.3;" d="M 115.460938 129.613281 L 120.976562 130.296875 L 116.15625 165.445312 L 110.640625 164.765625 Z M 115.460938 129.613281 "/>
<path style=" stroke:none;fill-rule:nonzero;fill:rgb(39.99939%,39.99939%,39.99939%);fill-opacity:0.3;" d="M 95.234375 139.507812 L 100.75 140.191406 L 95.929688 175.339844 L 90.417969 174.660156 Z M 95.234375 139.507812 "/>
<path style=" stroke:none;fill-rule:nonzero;fill:rgb(39.99939%,39.99939%,39.99939%);fill-opacity:0.3;" d="M 123.820312 167.921875 L 124.539062 162.683594 L 164.277344 167.59375 L 163.5625 172.828125 Z M 123.820312 167.921875 "/>
<path style=" stroke:none;fill-rule:nonzero;fill:rgb(39.99939%,39.99939%,39.99939%);fill-opacity:0.3;" d="M 79.679688 113.1875 L 90.589844 114.535156 L 89.507812 122.371094 L 78.3125 120.988281 Z M 79.679688 113.1875 "/>
<path style=" stroke:none;fill-rule:nonzero;fill:rgb(39.99939%,39.99939%,39.99939%);fill-opacity:0.3;" d="M 99.199219 101.5625 L 110.109375 102.910156 L 107.273438 123.5625 L 96.074219 122.179688 Z M 99.199219 101.5625 "/>
<path style=" stroke:none;fill-rule:nonzero;fill:rgb(39.99939%,39.99939%,39.99939%);fill-opacity:0.3;" d="M 118.015625 90.390625 L 131.214844 92.019531 L 128.152344 114.628906 L 114.917969 112.992188 Z M 118.015625 90.390625 "/>
<path style=" stroke:none;fill-rule:nonzero;fill:rgb(39.99939%,39.99939%,39.99939%);fill-opacity:0.3;" d="M 138.585938 79.582031 L 144.097656 80.261719 L 139.28125 115.414062 L 133.765625 114.734375 Z M 138.585938 79.582031 "/>
<path style=" stroke:none;fill-rule:nonzero;fill:rgb(39.99939%,39.99939%,39.99939%);fill-opacity:0.3;" d="M 160.820312 63.792969 L 166.332031 64.472656 L 162.445312 92.832031 L 156.929688 92.148438 Z M 160.820312 63.792969 "/>
<path style=" stroke:none;fill-rule:nonzero;fill:rgb(39.99939%,39.99939%,39.99939%);fill-opacity:0.3;" d="M 194.359375 154.945312 L 207.554688 156.578125 L 204.53125 178.972656 L 191.324219 177.09375 Z M 194.359375 154.945312 "/>
<path style=" stroke:none;fill-rule:nonzero;fill:rgb(39.99939%,39.99939%,39.99939%);fill-opacity:0.3;" d="M 179.816406 152.511719 L 193.011719 154.144531 L 189.929688 176.902344 L 176.738281 175.019531 Z M 179.816406 152.511719 "/>
<path style=" stroke:none;fill-rule:nonzero;fill:rgb(39.99939%,39.99939%,39.99939%);fill-opacity:0.3;" d="M 198 129.84375 L 211.199219 131.472656 L 208.113281 154.230469 L 194.882812 152.59375 Z M 198 129.84375 "/>
<path style=" stroke:none;fill-rule:nonzero;fill:rgb(39.99939%,39.99939%,39.99939%);fill-opacity:0.3;" d="M 183.460938 127.988281 L 196.65625 129.617188 L 193.574219 152.375 L 180.339844 150.742188 Z M 183.460938 127.988281 "/>
<path style=" stroke:none;fill-rule:nonzero;fill:rgb(39.99939%,39.99939%,39.99939%);fill-opacity:0.3;" d="M 175.535156 127.257812 L 181.050781 127.941406 L 174.636719 174.71875 L 169.136719 173.9375 Z M 175.535156 127.257812 "/>
<path style=" stroke:none;fill-rule:nonzero;fill:rgb(39.99939%,39.99939%,39.99939%);fill-opacity:0.3;" d="M 209.105469 157.332031 L 222.304688 158.960938 L 219.308594 181.074219 L 206.109375 179.199219 Z M 209.105469 157.332031 "/>
<path style=" stroke:none;fill-rule:nonzero;fill:rgb(39.99939%,39.99939%,39.99939%);fill-opacity:0.3;" d="M 212.578125 131.703125 L 225.777344 133.332031 L 222.691406 156.089844 L 209.460938 154.457031 Z M 212.578125 131.703125 "/>
<path style=" stroke:none;fill-rule:nonzero;fill:rgb(39.99939%,39.99939%,39.99939%);fill-opacity:0.3;" d="M 180.53125 103.203125 L 181.25 97.96875 L 227.226562 103.648438 L 226.507812 108.882812 Z M 180.53125 103.203125 "/>
<path style=" stroke:none;fill-rule:nonzero;fill:rgb(39.99939%,39.99939%,39.99939%);fill-opacity:0.3;" d="M 154.269531 118.191406 L 154.984375 112.953125 L 200.960938 118.632812 L 200.246094 123.867188 Z M 154.269531 118.191406 "/>
<path style=" stroke:none;fill-rule:nonzero;fill:rgb(39.99939%,39.99939%,39.99939%);fill-opacity:0.3;" d="M 172.164062 56.09375 L 177.675781 56.773438 L 172.859375 91.925781 L 167.34375 91.242188 Z M 172.164062 56.09375 "/>
<path style=" stroke:none;fill-rule:nonzero;fill:rgb(39.99939%,39.99939%,39.99939%);fill-opacity:0.3;" d="M 180.703125 51.429688 L 193.898438 53.058594 L 188.335938 93.929688 L 175.101562 92.296875 Z M 180.703125 51.429688 "/>
<path style=" stroke:none;fill-rule:nonzero;fill:rgb(39.99939%,39.99939%,39.99939%);fill-opacity:0.3;" d="M 195.523438 53.257812 L 207.667969 54.761719 L 202.082031 95.824219 L 189.890625 94.335938 Z M 195.523438 53.257812 "/>
<path style=" stroke:none;fill-rule:nonzero;fill:rgb(39.99939%,39.99939%,39.99939%);fill-opacity:0.3;" d="M 208.625 56.578125 L 221.820312 58.210938 L 216.453125 97.648438 L 203.222656 96.015625 Z M 208.625 56.578125 "/>
<path style=" stroke:none;fill-rule:nonzero;fill:rgb(39.99939%,39.99939%,39.99939%);fill-opacity:0.3;" d="M 223.457031 57.628906 L 234.363281 58.976562 L 228.953125 98.417969 L 217.757812 97.03125 Z M 223.457031 57.628906 "/>
<path style=" stroke:none;fill-rule:nonzero;fill:rgb(39.99939%,39.99939%,39.99939%);fill-opacity:0.3;" d="M 164.824219 229.457031 L 175.734375 230.804688 L 172.527344 254.140625 L 161.332031 252.757812 Z M 164.824219 229.457031 "/>
<path style=" stroke:none;fill-rule:nonzero;fill:rgb(39.99939%,39.99939%,39.99939%);fill-opacity:0.3;" d="M 166.925781 207.332031 L 177.835938 208.679688 L 175.003906 229.285156 L 163.808594 227.902344 Z M 166.925781 207.332031 "/>
<path style=" stroke:none;fill-rule:nonzero;fill:rgb(39.99939%,39.99939%,39.99939%);fill-opacity:0.3;" d="M 119.769531 178.796875 L 130.679688 180.144531 L 127.195312 205.511719 L 116 204.128906 Z M 119.769531 178.796875 "/>
<path style=" stroke:none;fill-rule:nonzero;fill:rgb(39.99939%,39.99939%,39.99939%);fill-opacity:0.3;" d="M 107.738281 176.75 L 118.644531 178.097656 L 116.152344 196.222656 L 104.957031 194.847656 Z M 107.738281 176.75 "/>
<path style=" stroke:none;fill-rule:nonzero;fill:rgb(39.99939%,39.99939%,39.99939%);fill-opacity:0.3;" d="M 155.9375 194.804688 L 166.84375 196.152344 L 160.519531 242.28125 L 149.320312 240.898438 Z M 155.9375 194.804688 "/>
<g clip-path="url(#clip19)" clip-rule="nonzero">
<path style=" stroke:none;fill-rule:nonzero;fill:rgb(39.99939%,39.99939%,39.99939%);fill-opacity:0.3;" d="M 153.792969 383.800781 L 153.28125 381.695312 L 153.1875 380.113281 L 153.183594 375.09375 L 154.0625 370.910156 L 156.488281 369.234375 L 158.808594 367.144531 L 160.726562 365.140625 L 162.214844 362.324219 L 163.976562 358.140625 L 165.734375 353.535156 L 168.773438 347.101562 L 171.214844 343.726562 L 174.988281 339.726562 L 180.183594 335.585938 L 184.3125 333.3125 L 188.234375 331.714844 L 193.558594 330.382812 L 199.574219 329.914062 L 204.988281 329.910156 L 208.601562 330.273438 L 211.214844 330.90625 L 215.21875 332.160156 L 218.566406 333.46875 L 223.726562 335.910156 L 227.464844 337.375 L 232.625 339.695312 L 240.496094 343.113281 L 246.425781 345.1875 L 252.359375 347.507812 L 258.035156 350.316406 L 264.875 353.246094 L 269.710938 356.300781 L 268.085938 357.007812 L 258.941406 355.933594 L 255.511719 356.339844 L 251.515625 357.300781 L 154.335938 385.472656 Z M 153.792969 383.800781 "/>
</g>
<path style=" stroke:none;fill-rule:nonzero;fill:rgb(39.99939%,39.99939%,39.99939%);fill-opacity:0.3;" d="M 183.671875 281.347656 L 183.886719 280.871094 L 208.558594 308.570312 L 205.75 308.574219 L 204.074219 308.546875 L 198.414062 299.753906 L 194.960938 294.691406 L 191.074219 289.761719 L 188.933594 287.152344 L 186.265625 284.160156 Z M 183.671875 281.347656 "/>
<g clip-path="url(#clip20)" clip-rule="nonzero">
<path style=" stroke:none;fill-rule:nonzero;fill:rgb(39.99939%,39.99939%,39.99939%);fill-opacity:0.3;" d="M 801.992188 160.589844 L 805.050781 166.667969 L 810.261719 164.140625 L 811.597656 165.03125 L 815.9375 174.3125 L 800.289062 183.386719 L 782.722656 191.246094 L 764.835938 197.292969 L 750.78125 201.824219 L 681.589844 236.539062 L 599.5 278.332031 L 538.804688 305.601562 L 509.414062 316.511719 L 500.789062 318.9375 L 447.179688 340.371094 L 423.539062 350.378906 L 408.523438 357.960938 L 385.84375 370.394531 L 345.917969 401.027344 L 329.628906 414.371094 L 324.515625 417.101562 L 319.722656 418.617188 L 315.890625 421.347656 L 313.015625 423.773438 L 310.78125 427.414062 L 289.6875 481.691406 L 288.996094 482.285156 L 288.40625 482.363281 L 287.378906 482.324219 L 286.269531 481.535156 L 275.796875 458.636719 L 275.539062 450.5 L 278.503906 439.664062 L 301.136719 391.136719 L 307.347656 380.230469 L 315.101562 371.375 L 324.035156 364.105469 L 327.980469 362.074219 L 341.957031 354.882812 L 368.425781 344.527344 L 420.988281 324.609375 L 676.886719 213.347656 Z M 801.992188 160.589844 "/>
</g>
<path style="fill-rule:nonzero;fill:rgb(39.99939%,39.99939%,39.99939%);fill-opacity:1;stroke-width:0.03;stroke-linecap:square;stroke-linejoin:miter;stroke:rgb(39.99939%,39.99939%,39.99939%);stroke-opacity:1;stroke-miterlimit:3.239307;" d="M 223.613281 196.695312 L 229.125 197.378906 L 222.726562 244.054688 L 217.214844 243.375 Z M 223.613281 196.695312 " transform="matrix(1,0,0,1,-74,-13)"/>
<path style="fill-rule:nonzero;fill:rgb(39.99939%,39.99939%,39.99939%);fill-opacity:1;stroke-width:0.03;stroke-linecap:square;stroke-linejoin:miter;stroke:rgb(39.99939%,39.99939%,39.99939%);stroke-opacity:1;stroke-miterlimit:3.239307;" d="M 205.242188 198.996094 L 218.4375 200.625 L 214.519531 229.484375 L 201.289062 227.851562 Z M 205.242188 198.996094 " transform="matrix(1,0,0,1,-74,-13)"/>
<path style="fill-rule:nonzero;fill:rgb(39.99939%,39.99939%,39.99939%);fill-opacity:1;stroke-width:0.03;stroke-linecap:square;stroke-linejoin:miter;stroke:rgb(39.99939%,39.99939%,39.99939%);stroke-opacity:1;stroke-miterlimit:3.239307;" d="M 206.121094 192.902344 L 219.316406 194.53125 L 218.664062 199.554688 L 205.300781 197.90625 Z M 206.121094 192.902344 " transform="matrix(1,0,0,1,-74,-13)"/>
<path style="fill-rule:nonzero;fill:rgb(39.99939%,39.99939%,39.99939%);fill-opacity:1;stroke-width:0.03;stroke-linecap:square;stroke-linejoin:miter;stroke:rgb(39.99939%,39.99939%,39.99939%);stroke-opacity:1;stroke-miterlimit:3.239307;" d="M 282.011719 226.417969 L 292.921875 227.765625 L 290.054688 248.621094 L 278.859375 247.238281 Z M 282.011719 226.417969 " transform="matrix(1,0,0,1,-74,-13)"/>
<path style="fill-rule:nonzero;fill:rgb(39.99939%,39.99939%,39.99939%);fill-opacity:1;stroke-width:0.03;stroke-linecap:square;stroke-linejoin:miter;stroke:rgb(39.99939%,39.99939%,39.99939%);stroke-opacity:1;stroke-miterlimit:3.239307;" d="M 257.886719 293.871094 L 259.371094 290.585938 L 266.421875 284.800781 L 293.1875 274.699219 L 290.34375 306.921875 L 290.214844 317.613281 L 289.8125 318.683594 L 289.675781 318.957031 L 288.015625 320.617188 L 287.328125 321.019531 L 284.011719 321.570312 L 282.558594 321.570312 Z M 257.886719 293.871094 " transform="matrix(1,0,0,1,-74,-13)"/>
<path style="fill-rule:nonzero;fill:rgb(39.99939%,39.99939%,39.99939%);fill-opacity:1;stroke-width:0.03;stroke-linecap:square;stroke-linejoin:miter;stroke:rgb(39.99939%,39.99939%,39.99939%);stroke-opacity:1;stroke-miterlimit:3.239307;" d="M 278.789062 249.492188 L 289.699219 250.839844 L 286.945312 270.894531 L 275.746094 269.511719 Z M 278.789062 249.492188 " transform="matrix(1,0,0,1,-74,-13)"/>
<path style="fill-rule:nonzero;fill:rgb(39.99939%,39.99939%,39.99939%);fill-opacity:1;stroke-width:0.03;stroke-linecap:square;stroke-linejoin:miter;stroke:rgb(39.99939%,39.99939%,39.99939%);stroke-opacity:1;stroke-miterlimit:3.239307;" d="M 265.710938 247.628906 L 276.617188 248.976562 L 272.917969 275.933594 L 261.722656 274.550781 Z M 265.710938 247.628906 " transform="matrix(1,0,0,1,-74,-13)"/>
<path style="fill-rule:nonzero;fill:rgb(39.99939%,39.99939%,39.99939%);fill-opacity:1;stroke-width:0.03;stroke-linecap:square;stroke-linejoin:miter;stroke:rgb(39.99939%,39.99939%,39.99939%);stroke-opacity:1;stroke-miterlimit:3.239307;" d="M 250.671875 245.628906 L 263.871094 247.257812 L 259.503906 279.382812 L 246.273438 277.75 Z M 250.671875 245.628906 " transform="matrix(1,0,0,1,-74,-13)"/>
<path style="fill-rule:nonzero;fill:rgb(39.99939%,39.99939%,39.99939%);fill-opacity:1;stroke-width:0.03;stroke-linecap:square;stroke-linejoin:miter;stroke:rgb(39.99939%,39.99939%,39.99939%);stroke-opacity:1;stroke-miterlimit:3.239307;" d="M 253.453125 220.878906 L 266.648438 222.511719 L 263.566406 245.269531 L 250.335938 243.632812 Z M 253.453125 220.878906 " transform="matrix(1,0,0,1,-74,-13)"/>
<path style="fill-rule:nonzero;fill:rgb(39.99939%,39.99939%,39.99939%);fill-opacity:1;stroke-width:0.03;stroke-linecap:square;stroke-linejoin:miter;stroke:rgb(39.99939%,39.99939%,39.99939%);stroke-opacity:1;stroke-miterlimit:3.239307;" d="M 268.589844 225.972656 L 279.5 227.320312 L 276.820312 246.8125 L 265.625 245.425781 Z M 268.589844 225.972656 " transform="matrix(1,0,0,1,-74,-13)"/>
<path style="fill-rule:nonzero;fill:rgb(39.99939%,39.99939%,39.99939%);fill-opacity:1;stroke-width:0.03;stroke-linecap:square;stroke-linejoin:miter;stroke:rgb(39.99939%,39.99939%,39.99939%);stroke-opacity:1;stroke-miterlimit:3.239307;" d="M 251.941406 216.277344 L 252.65625 211.039062 L 290.929688 215.769531 L 290.214844 221.003906 Z M 251.941406 216.277344 " transform="matrix(1,0,0,1,-74,-13)"/>
<path style="fill-rule:nonzero;fill:rgb(39.99939%,39.99939%,39.99939%);fill-opacity:1;stroke-width:0.03;stroke-linecap:square;stroke-linejoin:miter;stroke:rgb(39.99939%,39.99939%,39.99939%);stroke-opacity:1;stroke-miterlimit:3.239307;" d="M 232.75 203.371094 L 233.464844 198.136719 L 271.738281 202.863281 L 271.023438 208.101562 Z M 232.75 203.371094 " transform="matrix(1,0,0,1,-74,-13)"/>
<path style="fill-rule:nonzero;fill:rgb(39.99939%,39.99939%,39.99939%);fill-opacity:1;stroke-width:0.03;stroke-linecap:square;stroke-linejoin:miter;stroke:rgb(39.99939%,39.99939%,39.99939%);stroke-opacity:1;stroke-miterlimit:3.239307;" d="M 273.015625 210.195312 L 274.550781 198.910156 L 293.488281 201.195312 L 292.394531 212.480469 Z M 273.015625 210.195312 " transform="matrix(1,0,0,1,-74,-13)"/>
<path style="fill-rule:nonzero;fill:rgb(39.99939%,39.99939%,39.99939%);fill-opacity:1;stroke-width:0.03;stroke-linecap:square;stroke-linejoin:miter;stroke:rgb(39.99939%,39.99939%,39.99939%);stroke-opacity:1;stroke-miterlimit:3.239307;" d="M 188.871094 135.082031 L 189.585938 129.84375 L 227.859375 134.574219 L 227.144531 139.808594 Z M 188.871094 135.082031 " transform="matrix(1,0,0,1,-74,-13)"/>
<path style="fill-rule:nonzero;fill:rgb(39.99939%,39.99939%,39.99939%);fill-opacity:1;stroke-width:0.03;stroke-linecap:square;stroke-linejoin:miter;stroke:rgb(39.99939%,39.99939%,39.99939%);stroke-opacity:1;stroke-miterlimit:3.239307;" d="M 151.753906 147.210938 L 164.953125 148.84375 L 161.585938 173.675781 L 148.355469 172.042969 Z M 151.753906 147.210938 " transform="matrix(1,0,0,1,-74,-13)"/>
<path style="fill-rule:nonzero;fill:rgb(39.99939%,39.99939%,39.99939%);fill-opacity:1;stroke-width:0.03;stroke-linecap:square;stroke-linejoin:miter;stroke:rgb(39.99939%,39.99939%,39.99939%);stroke-opacity:1;stroke-miterlimit:3.239307;" d="M 139.285156 144.921875 L 150.195312 146.269531 L 147.570312 165.550781 L 136.375 164.167969 Z M 139.285156 144.921875 " transform="matrix(1,0,0,1,-74,-13)"/>
<path style="fill-rule:nonzero;fill:rgb(39.99939%,39.99939%,39.99939%);fill-opacity:1;stroke-width:0.03;stroke-linecap:square;stroke-linejoin:miter;stroke:rgb(39.99939%,39.99939%,39.99939%);stroke-opacity:1;stroke-miterlimit:3.239307;" d="M 126.957031 143.214844 L 137.863281 144.5625 L 136.625 153.730469 L 125.429688 152.347656 Z M 126.957031 143.214844 " transform="matrix(1,0,0,1,-74,-13)"/>
<path style="fill-rule:nonzero;fill:rgb(39.99939%,39.99939%,39.99939%);fill-opacity:1;stroke-width:0.03;stroke-linecap:square;stroke-linejoin:miter;stroke:rgb(39.99939%,39.99939%,39.99939%);stroke-opacity:1;stroke-miterlimit:3.239307;" d="M 137.382812 141.855469 L 138.101562 136.621094 L 184.078125 142.296875 L 183.359375 147.535156 Z M 137.382812 141.855469 " transform="matrix(1,0,0,1,-74,-13)"/>
<path style="fill-rule:nonzero;fill:rgb(39.99939%,39.99939%,39.99939%);fill-opacity:1;stroke-width:0.03;stroke-linecap:square;stroke-linejoin:miter;stroke:rgb(39.99939%,39.99939%,39.99939%);stroke-opacity:1;stroke-miterlimit:3.239307;" d="M 199.496094 144.6875 L 226.363281 147.695312 L 222.839844 175.65625 L 203.898438 173.203125 L 204.132812 169.382812 L 196.792969 168.378906 Z M 199.496094 144.6875 " transform="matrix(1,0,0,1,-74,-13)"/>
<path style="fill-rule:nonzero;fill:rgb(39.99939%,39.99939%,39.99939%);fill-opacity:1;stroke-width:0.03;stroke-linecap:square;stroke-linejoin:miter;stroke:rgb(39.99939%,39.99939%,39.99939%);stroke-opacity:1;stroke-miterlimit:3.239307;" d="M 189.460938 142.613281 L 194.976562 143.296875 L 190.15625 178.445312 L 184.640625 177.765625 Z M 189.460938 142.613281 " transform="matrix(1,0,0,1,-74,-13)"/>
<path style="fill-rule:nonzero;fill:rgb(39.99939%,39.99939%,39.99939%);fill-opacity:1;stroke-width:0.03;stroke-linecap:square;stroke-linejoin:miter;stroke:rgb(39.99939%,39.99939%,39.99939%);stroke-opacity:1;stroke-miterlimit:3.239307;" d="M 169.234375 152.507812 L 174.75 153.191406 L 169.929688 188.339844 L 164.417969 187.660156 Z M 169.234375 152.507812 " transform="matrix(1,0,0,1,-74,-13)"/>
<path style="fill-rule:nonzero;fill:rgb(39.99939%,39.99939%,39.99939%);fill-opacity:1;stroke-width:0.03;stroke-linecap:square;stroke-linejoin:miter;stroke:rgb(39.99939%,39.99939%,39.99939%);stroke-opacity:1;stroke-miterlimit:3.239307;" d="M 197.820312 180.921875 L 198.539062 175.683594 L 238.277344 180.59375 L 237.5625 185.828125 Z M 197.820312 180.921875 " transform="matrix(1,0,0,1,-74,-13)"/>
<path style="fill-rule:nonzero;fill:rgb(39.99939%,39.99939%,39.99939%);fill-opacity:1;stroke-width:0.03;stroke-linecap:square;stroke-linejoin:miter;stroke:rgb(39.99939%,39.99939%,39.99939%);stroke-opacity:1;stroke-miterlimit:3.239307;" d="M 153.679688 126.1875 L 164.589844 127.535156 L 163.507812 135.371094 L 152.3125 133.988281 Z M 153.679688 126.1875 " transform="matrix(1,0,0,1,-74,-13)"/>
<path style="fill-rule:nonzero;fill:rgb(39.99939%,39.99939%,39.99939%);fill-opacity:1;stroke-width:0.03;stroke-linecap:square;stroke-linejoin:miter;stroke:rgb(39.99939%,39.99939%,39.99939%);stroke-opacity:1;stroke-miterlimit:3.239307;" d="M 173.199219 114.5625 L 184.109375 115.910156 L 181.273438 136.5625 L 170.074219 135.179688 Z M 173.199219 114.5625 " transform="matrix(1,0,0,1,-74,-13)"/>
<path style="fill-rule:nonzero;fill:rgb(39.99939%,39.99939%,39.99939%);fill-opacity:1;stroke-width:0.03;stroke-linecap:square;stroke-linejoin:miter;stroke:rgb(39.99939%,39.99939%,39.99939%);stroke-opacity:1;stroke-miterlimit:3.239307;" d="M 192.015625 103.390625 L 205.214844 105.019531 L 202.152344 127.628906 L 188.917969 125.992188 Z M 192.015625 103.390625 " transform="matrix(1,0,0,1,-74,-13)"/>
<path style="fill-rule:nonzero;fill:rgb(39.99939%,39.99939%,39.99939%);fill-opacity:1;stroke-width:0.03;stroke-linecap:square;stroke-linejoin:miter;stroke:rgb(39.99939%,39.99939%,39.99939%);stroke-opacity:1;stroke-miterlimit:3.239307;" d="M 212.585938 92.582031 L 218.097656 93.261719 L 213.28125 128.414062 L 207.765625 127.734375 Z M 212.585938 92.582031 " transform="matrix(1,0,0,1,-74,-13)"/>
<path style="fill-rule:nonzero;fill:rgb(39.99939%,39.99939%,39.99939%);fill-opacity:1;stroke-width:0.03;stroke-linecap:square;stroke-linejoin:miter;stroke:rgb(39.99939%,39.99939%,39.99939%);stroke-opacity:1;stroke-miterlimit:3.239307;" d="M 234.820312 76.792969 L 240.332031 77.472656 L 236.445312 105.832031 L 230.929688 105.148438 Z M 234.820312 76.792969 " transform="matrix(1,0,0,1,-74,-13)"/>
<path style="fill-rule:nonzero;fill:rgb(39.99939%,39.99939%,39.99939%);fill-opacity:1;stroke-width:0.03;stroke-linecap:square;stroke-linejoin:miter;stroke:rgb(39.99939%,39.99939%,39.99939%);stroke-opacity:1;stroke-miterlimit:3.239307;" d="M 268.359375 167.945312 L 281.554688 169.578125 L 278.53125 191.972656 L 265.324219 190.09375 Z M 268.359375 167.945312 " transform="matrix(1,0,0,1,-74,-13)"/>
<path style="fill-rule:nonzero;fill:rgb(39.99939%,39.99939%,39.99939%);fill-opacity:1;stroke-width:0.03;stroke-linecap:square;stroke-linejoin:miter;stroke:rgb(39.99939%,39.99939%,39.99939%);stroke-opacity:1;stroke-miterlimit:3.239307;" d="M 253.816406 165.511719 L 267.011719 167.144531 L 263.929688 189.902344 L 250.738281 188.019531 Z M 253.816406 165.511719 " transform="matrix(1,0,0,1,-74,-13)"/>
<path style="fill-rule:nonzero;fill:rgb(39.99939%,39.99939%,39.99939%);fill-opacity:1;stroke-width:0.03;stroke-linecap:square;stroke-linejoin:miter;stroke:rgb(39.99939%,39.99939%,39.99939%);stroke-opacity:1;stroke-miterlimit:3.239307;" d="M 272 142.84375 L 285.199219 144.472656 L 282.113281 167.230469 L 268.882812 165.59375 Z M 272 142.84375 " transform="matrix(1,0,0,1,-74,-13)"/>
<path style="fill-rule:nonzero;fill:rgb(39.99939%,39.99939%,39.99939%);fill-opacity:1;stroke-width:0.03;stroke-linecap:square;stroke-linejoin:miter;stroke:rgb(39.99939%,39.99939%,39.99939%);stroke-opacity:1;stroke-miterlimit:3.239307;" d="M 257.460938 140.988281 L 270.65625 142.617188 L 267.574219 165.375 L 254.339844 163.742188 Z M 257.460938 140.988281 " transform="matrix(1,0,0,1,-74,-13)"/>
<path style="fill-rule:nonzero;fill:rgb(39.99939%,39.99939%,39.99939%);fill-opacity:1;stroke-width:0.03;stroke-linecap:square;stroke-linejoin:miter;stroke:rgb(39.99939%,39.99939%,39.99939%);stroke-opacity:1;stroke-miterlimit:3.239307;" d="M 249.535156 140.257812 L 255.050781 140.941406 L 248.636719 187.71875 L 243.136719 186.9375 Z M 249.535156 140.257812 " transform="matrix(1,0,0,1,-74,-13)"/>
<path style="fill-rule:nonzero;fill:rgb(39.99939%,39.99939%,39.99939%);fill-opacity:1;stroke-width:0.03;stroke-linecap:square;stroke-linejoin:miter;stroke:rgb(39.99939%,39.99939%,39.99939%);stroke-opacity:1;stroke-miterlimit:3.239307;" d="M 283.105469 170.332031 L 296.304688 171.960938 L 293.308594 194.074219 L 280.109375 192.199219 Z M 283.105469 170.332031 " transform="matrix(1,0,0,1,-74,-13)"/>
<path style="fill-rule:nonzero;fill:rgb(39.99939%,39.99939%,39.99939%);fill-opacity:1;stroke-width:0.03;stroke-linecap:square;stroke-linejoin:miter;stroke:rgb(39.99939%,39.99939%,39.99939%);stroke-opacity:1;stroke-miterlimit:3.239307;" d="M 286.578125 144.703125 L 299.777344 146.332031 L 296.691406 169.089844 L 283.460938 167.457031 Z M 286.578125 144.703125 " transform="matrix(1,0,0,1,-74,-13)"/>
<path style="fill-rule:nonzero;fill:rgb(39.99939%,39.99939%,39.99939%);fill-opacity:1;stroke-width:0.03;stroke-linecap:square;stroke-linejoin:miter;stroke:rgb(39.99939%,39.99939%,39.99939%);stroke-opacity:1;stroke-miterlimit:3.239307;" d="M 254.53125 116.203125 L 255.25 110.96875 L 301.226562 116.648438 L 300.507812 121.882812 Z M 254.53125 116.203125 " transform="matrix(1,0,0,1,-74,-13)"/>
<path style="fill-rule:nonzero;fill:rgb(39.99939%,39.99939%,39.99939%);fill-opacity:1;stroke-width:0.03;stroke-linecap:square;stroke-linejoin:miter;stroke:rgb(39.99939%,39.99939%,39.99939%);stroke-opacity:1;stroke-miterlimit:3.239307;" d="M 228.269531 131.191406 L 228.984375 125.953125 L 274.960938 131.632812 L 274.246094 136.867188 Z M 228.269531 131.191406 " transform="matrix(1,0,0,1,-74,-13)"/>
<path style="fill-rule:nonzero;fill:rgb(39.99939%,39.99939%,39.99939%);fill-opacity:1;stroke-width:0.03;stroke-linecap:square;stroke-linejoin:miter;stroke:rgb(39.99939%,39.99939%,39.99939%);stroke-opacity:1;stroke-miterlimit:3.239307;" d="M 246.164062 69.09375 L 251.675781 69.773438 L 246.859375 104.925781 L 241.34375 104.242188 Z M 246.164062 69.09375 " transform="matrix(1,0,0,1,-74,-13)"/>
<path style="fill-rule:nonzero;fill:rgb(39.99939%,39.99939%,39.99939%);fill-opacity:1;stroke-width:0.03;stroke-linecap:square;stroke-linejoin:miter;stroke:rgb(39.99939%,39.99939%,39.99939%);stroke-opacity:1;stroke-miterlimit:3.239307;" d="M 254.703125 64.429688 L 267.898438 66.058594 L 262.335938 106.929688 L 249.101562 105.296875 Z M 254.703125 64.429688 " transform="matrix(1,0,0,1,-74,-13)"/>
<path style="fill-rule:nonzero;fill:rgb(39.99939%,39.99939%,39.99939%);fill-opacity:1;stroke-width:0.03;stroke-linecap:square;stroke-linejoin:miter;stroke:rgb(39.99939%,39.99939%,39.99939%);stroke-opacity:1;stroke-miterlimit:3.239307;" d="M 269.523438 66.257812 L 281.667969 67.761719 L 276.082031 108.824219 L 263.890625 107.335938 Z M 269.523438 66.257812 " transform="matrix(1,0,0,1,-74,-13)"/>
<path style="fill-rule:nonzero;fill:rgb(39.99939%,39.99939%,39.99939%);fill-opacity:1;stroke-width:0.03;stroke-linecap:square;stroke-linejoin:miter;stroke:rgb(39.99939%,39.99939%,39.99939%);stroke-opacity:1;stroke-miterlimit:3.239307;" d="M 282.625 69.578125 L 295.820312 71.210938 L 290.453125 110.648438 L 277.222656 109.015625 Z M 282.625 69.578125 " transform="matrix(1,0,0,1,-74,-13)"/>
<path style="fill-rule:nonzero;fill:rgb(39.99939%,39.99939%,39.99939%);fill-opacity:1;stroke-width:0.03;stroke-linecap:square;stroke-linejoin:miter;stroke:rgb(39.99939%,39.99939%,39.99939%);stroke-opacity:1;stroke-miterlimit:3.239307;" d="M 297.457031 70.628906 L 308.363281 71.976562 L 302.953125 111.417969 L 291.757812 110.03125 Z M 297.457031 70.628906 " transform="matrix(1,0,0,1,-74,-13)"/>
<path style="fill-rule:nonzero;fill:rgb(39.99939%,39.99939%,39.99939%);fill-opacity:1;stroke-width:0.03;stroke-linecap:square;stroke-linejoin:miter;stroke:rgb(39.99939%,39.99939%,39.99939%);stroke-opacity:1;stroke-miterlimit:3.239307;" d="M 238.824219 242.457031 L 249.734375 243.804688 L 246.527344 267.140625 L 235.332031 265.757812 Z M 238.824219 242.457031 " transform="matrix(1,0,0,1,-74,-13)"/>
<path style="fill-rule:nonzero;fill:rgb(39.99939%,39.99939%,39.99939%);fill-opacity:1;stroke-width:0.03;stroke-linecap:square;stroke-linejoin:miter;stroke:rgb(39.99939%,39.99939%,39.99939%);stroke-opacity:1;stroke-miterlimit:3.239307;" d="M 240.925781 220.332031 L 251.835938 221.679688 L 249.003906 242.285156 L 237.808594 240.902344 Z M 240.925781 220.332031 " transform="matrix(1,0,0,1,-74,-13)"/>
<path style="fill-rule:nonzero;fill:rgb(39.99939%,39.99939%,39.99939%);fill-opacity:1;stroke-width:0.03;stroke-linecap:square;stroke-linejoin:miter;stroke:rgb(39.99939%,39.99939%,39.99939%);stroke-opacity:1;stroke-miterlimit:3.239307;" d="M 193.769531 191.796875 L 204.679688 193.144531 L 201.195312 218.511719 L 190 217.128906 Z M 193.769531 191.796875 " transform="matrix(1,0,0,1,-74,-13)"/>
<path style="fill-rule:nonzero;fill:rgb(39.99939%,39.99939%,39.99939%);fill-opacity:1;stroke-width:0.03;stroke-linecap:square;stroke-linejoin:miter;stroke:rgb(39.99939%,39.99939%,39.99939%);stroke-opacity:1;stroke-miterlimit:3.239307;" d="M 181.738281 189.75 L 192.644531 191.097656 L 190.152344 209.222656 L 178.957031 207.847656 Z M 181.738281 189.75 " transform="matrix(1,0,0,1,-74,-13)"/>
<path style="fill-rule:nonzero;fill:rgb(39.99939%,39.99939%,39.99939%);fill-opacity:1;stroke-width:0.03;stroke-linecap:square;stroke-linejoin:miter;stroke:rgb(39.99939%,39.99939%,39.99939%);stroke-opacity:1;stroke-miterlimit:3.239307;" d="M 229.9375 207.804688 L 240.84375 209.152344 L 234.519531 255.28125 L 223.320312 253.898438 Z M 229.9375 207.804688 " transform="matrix(1,0,0,1,-74,-13)"/>
<path style=" stroke:none;fill-rule:evenodd;fill:rgb(85.096741%,85.096741%,81.959534%);fill-opacity:0.7;" d="M 134.960938 151 C 134.960938 145.707031 132.859375 140.628906 129.113281 136.886719 C 125.371094 133.140625 120.292969 131.039062 115 131.039062 C 109.707031 131.039062 104.628906 133.140625 100.886719 136.886719 C 97.140625 140.628906 95.039062 145.707031 95.039062 151 C 95.039062 156.292969 97.140625 161.371094 100.886719 165.113281 C 104.628906 168.859375 109.707031 170.960938 115 170.960938 C 120.292969 170.960938 125.371094 168.859375 129.113281 165.113281 C 132.859375 161.371094 134.960938 156.292969 134.960938 151 Z M 134.960938 151 "/>
<path style=" stroke:none;fill-rule:evenodd;fill:rgb(85.096741%,85.096741%,81.959534%);fill-opacity:0.7;" d="M 275.960938 21 C 275.960938 15.707031 273.859375 10.628906 270.113281 6.886719 C 266.371094 3.140625 261.292969 1.039062 256 1.039062 C 250.707031 1.039062 245.628906 3.140625 241.886719 6.886719 C 238.140625 10.628906 236.039062 15.707031 236.039062 21 C 236.039062 26.292969 238.140625 31.371094 241.886719 35.113281 C 245.628906 38.859375 250.707031 40.960938 256 40.960938 C 261.292969 40.960938 266.371094 38.859375 270.113281 35.113281 C 273.859375 31.371094 275.960938 26.292969 275.960938 21 Z M 275.960938 21 "/>
<g clip-path="url(#clip21)" clip-rule="nonzero">
<path style=" stroke:none;fill-rule:evenodd;fill:rgb(76.469421%,0.392151%,0%);fill-opacity:0.7;" d="M 404.921875 20 C 404.921875 9.410156 400.714844 -0.742188 393.230469 -8.230469 C 385.742188 -15.714844 375.589844 -19.921875 365 -19.921875 C 354.410156 -19.921875 344.257812 -15.714844 336.769531 -8.230469 C 329.285156 -0.742188 325.078125 9.410156 325.078125 20 C 325.078125 30.589844 329.285156 40.742188 336.769531 48.230469 C 344.257812 55.714844 354.410156 59.921875 365 59.921875 C 375.589844 59.921875 385.742188 55.714844 393.230469 48.230469 C 400.714844 40.742188 404.921875 30.589844 404.921875 20 Z M 404.921875 20 "/>
</g>
<path style=" stroke:none;fill-rule:evenodd;fill:rgb(76.469421%,0.392151%,0%);fill-opacity:0.7;" d="M 272.921875 24 C 272.921875 13.410156 268.714844 3.257812 261.230469 -4.230469 C 253.742188 -11.714844 243.589844 -15.921875 233 -15.921875 C 222.410156 -15.921875 212.257812 -11.714844 204.769531 -4.230469 C 197.285156 3.257812 193.078125 13.410156 193.078125 24 C 193.078125 34.589844 197.285156 44.742188 204.769531 52.230469 C 212.257812 59.714844 222.410156 63.921875 233 63.921875 C 243.589844 63.921875 253.742188 59.714844 261.230469 52.230469 C 268.714844 44.742188 272.921875 34.589844 272.921875 24 Z M 272.921875 24 "/>
</g>
</svg>
