<?xml version="1.0" encoding="UTF-8"?>
<svg xmlns="http://www.w3.org/2000/svg" xmlns:xlink="http://www.w3.org/1999/xlink" width="361pt" height="361pt" viewBox="0 0 361 361" version="1.1">
<defs>
<clipPath id="clip1">
  <path d="M 252 343 L 317 343 L 317 360 L 252 360 Z M 252 343 "/>
</clipPath>
<clipPath id="clip2">
  <path d="M 302 328 L 360 328 L 360 360 L 302 360 Z M 302 328 "/>
</clipPath>
<clipPath id="clip3">
  <path d="M 337 133 L 360 133 L 360 200 L 337 200 Z M 337 133 "/>
</clipPath>
<clipPath id="clip4">
  <path d="M 297 233 L 360 233 L 360 336 L 297 336 Z M 297 233 "/>
</clipPath>
<clipPath id="clip5">
  <path d="M 341 274 L 360 274 L 360 360 L 341 360 Z M 341 274 "/>
</clipPath>
<clipPath id="clip6">
  <path d="M 269 190 L 360 190 L 360 248 L 269 248 Z M 269 190 "/>
</clipPath>
<clipPath id="clip7">
  <path d="M 0 246 L 17 246 L 17 360 L 0 360 Z M 0 246 "/>
</clipPath>
<clipPath id="clip8">
  <path d="M 0 254 L 43 254 L 43 360 L 0 360 Z M 0 254 "/>
</clipPath>
<clipPath id="clip9">
  <path d="M 325 0 L 360 0 L 360 22 L 325 22 Z M 325 0 "/>
</clipPath>
<clipPath id="clip10">
  <path d="M 344 0 L 360 0 L 360 67 L 344 67 Z M 344 0 "/>
</clipPath>
<clipPath id="clip11">
  <path d="M 246 68 L 360 68 L 360 151 L 246 151 Z M 246 68 "/>
</clipPath>
<clipPath id="clip12">
  <path d="M 358 56 L 360 56 L 360 105 L 358 105 Z M 358 56 "/>
</clipPath>
<clipPath id="clip13">
  <path d="M 331 30 L 360 30 L 360 97 L 331 97 Z M 331 30 "/>
</clipPath>
<clipPath id="clip14">
  <path d="M 99 282 L 176 282 L 176 360 L 99 360 Z M 99 282 "/>
</clipPath>
<clipPath id="clip15">
  <path d="M 240 293 L 315 293 L 315 360 L 240 360 Z M 240 293 "/>
</clipPath>
<clipPath id="clip16">
  <path d="M 190 296 L 257 296 L 257 360 L 190 360 Z M 190 296 "/>
</clipPath>
<clipPath id="clip17">
  <path d="M 160 294 L 209 294 L 209 360 L 160 360 Z M 160 294 "/>
</clipPath>
<clipPath id="clip18">
  <path d="M 43 356 L 109 356 L 109 360 L 43 360 Z M 43 356 "/>
</clipPath>
<clipPath id="clip19">
  <path d="M 44 304 L 121 304 L 121 360 L 44 360 Z M 44 304 "/>
</clipPath>
</defs>
<g id="surface1071">
<path style="fill-rule:nonzero;fill:rgb(0%,0%,0%);fill-opacity:1;stroke-width:0.03;stroke-linecap:square;stroke-linejoin:miter;stroke:rgb(0%,0%,0%);stroke-opacity:1;stroke-miterlimit:10;" d="M 0 178 L 360 178 L 360 -182 L 0 -182 Z M 0 178 " transform="matrix(1,0,0,1,0,182)"/>
<g clip-path="url(#clip1)" clip-rule="nonzero">
<path style=" stroke:none;fill-rule:nonzero;fill:rgb(39.99939%,39.99939%,39.99939%);fill-opacity:0.3;" d="M 299.109375 436.710938 L 252.664062 426.054688 L 261.582031 396.351562 L 267.675781 383.589844 L 274.167969 374.140625 L 286.71875 362.105469 L 299.289062 353.078125 L 316.019531 343.414062 Z M 299.109375 436.710938 "/>
</g>
<g clip-path="url(#clip2)" clip-rule="nonzero">
<path style=" stroke:none;fill-rule:nonzero;fill:rgb(39.99939%,39.99939%,39.99939%);fill-opacity:0.3;" d="M 338.183594 328.019531 L 359.871094 342.992188 L 379.394531 355.230469 L 357.230469 407.371094 L 359.148438 407.367188 L 360.855469 407.363281 L 378.769531 364.15625 L 382.671875 369.035156 L 383.539062 368.941406 L 384.4375 368.84375 L 384.230469 364.546875 L 380.589844 360.722656 L 382.183594 356.019531 L 396.464844 362.554688 L 408.941406 367.007812 L 410.90625 406.773438 L 410.582031 419.921875 L 410.253906 433.296875 L 406.71875 464.222656 L 302.699219 437.492188 L 308.324219 412.792969 L 313.148438 389.214844 L 317.78125 363.820312 L 320.203125 342.542969 Z M 338.183594 328.019531 "/>
</g>
<g clip-path="url(#clip3)" clip-rule="nonzero">
<path style=" stroke:none;fill-rule:nonzero;fill:rgb(39.99939%,39.99939%,39.99939%);fill-opacity:0.3;" d="M 350.554688 133.550781 L 373.097656 139.972656 L 360.789062 199.464844 L 337.480469 195.996094 Z M 350.554688 133.550781 "/>
</g>
<path style=" stroke:none;fill-rule:nonzero;fill:rgb(39.99939%,39.99939%,39.99939%);fill-opacity:0.3;" d="M 323.347656 126.03125 L 345.699219 132.453125 L 332.429688 195.453125 L 309.601562 191.300781 Z M 323.347656 126.03125 "/>
<g clip-path="url(#clip4)" clip-rule="nonzero">
<path style=" stroke:none;fill-rule:nonzero;fill:rgb(39.99939%,39.99939%,39.99939%);fill-opacity:0.3;" d="M 300.503906 240.726562 L 297.113281 233.261719 L 379.121094 249.066406 L 371.210938 271.921875 L 366.832031 282.15625 L 361.351562 293.175781 L 350.652344 308.664062 L 335.003906 324.167969 L 326.433594 330.929688 L 320.109375 335.054688 L 319.785156 322.164062 L 318.011719 305.433594 L 316.257812 295.011719 L 313.917969 282.675781 L 312.0625 274.875 L 307.773438 258.503906 L 303.925781 249.210938 Z M 300.503906 240.726562 "/>
</g>
<g clip-path="url(#clip5)" clip-rule="nonzero">
<path style=" stroke:none;fill-rule:nonzero;fill:rgb(39.99939%,39.99939%,39.99939%);fill-opacity:0.3;" d="M 363.996094 300.167969 L 369.746094 287.574219 L 375.222656 274.195312 L 384.351562 277.4375 L 397.261719 280.699219 L 405.796875 281.730469 L 412.40625 282.503906 L 421.101562 282.210938 L 430.53125 281.5625 L 436.324219 280.761719 L 423.925781 322.992188 L 397.410156 311.53125 L 396.539062 313.058594 L 395.691406 314.550781 L 423.648438 326.832031 L 414.789062 355.652344 L 413.648438 360.320312 L 409.046875 362.25 L 404.726562 361.988281 L 384.554688 352.980469 L 350.210938 331.859375 L 341.484375 324.597656 L 355.761719 310.671875 Z M 363.996094 300.167969 "/>
</g>
<path style=" stroke:none;fill-rule:nonzero;fill:rgb(39.99939%,39.99939%,39.99939%);fill-opacity:0.3;" d="M 252.527344 106.171875 L 319.6875 125.078125 L 304.941406 190.539062 L 281.5 185.9375 L 291.40625 138.816406 L 285.054688 137.433594 L 274.910156 185.019531 L 263.921875 182.71875 L 257.03125 158.597656 L 257.488281 144.675781 L 256.742188 136.554688 L 255.507812 130.0625 L 254.507812 119.160156 L 253.761719 112.664062 Z M 252.527344 106.171875 "/>
<g clip-path="url(#clip6)" clip-rule="nonzero">
<path style=" stroke:none;fill-rule:nonzero;fill:rgb(39.99939%,39.99939%,39.99939%);fill-opacity:0.3;" d="M 397.867188 211.4375 L 378.816406 247.144531 L 364.398438 244.253906 L 368.148438 225.535156 L 358.179688 223.304688 L 357.898438 224.441406 L 357.527344 225.960938 L 365.601562 227.5625 L 362.292969 243.726562 L 312.878906 233.9375 L 313.675781 219.277344 L 311.890625 218.832031 L 310.535156 218.496094 L 309.929688 233.410156 L 295.460938 230.847656 L 289.699219 220.144531 L 285.859375 214.289062 L 280.957031 207.960938 L 276.992188 202.308594 L 276.59375 201.578125 L 275.363281 199.941406 L 269.414062 190.417969 Z M 397.867188 211.4375 "/>
</g>
<path style=" stroke:none;fill-rule:nonzero;fill:rgb(39.99939%,39.99939%,39.99939%);fill-opacity:0.3;" d="M -2.734375 183.5625 L 0.382812 184.3125 L -0.40625 187.273438 L 2.707031 188.027344 L 3.496094 185.066406 L 6.609375 185.820312 L 4.246094 194.703125 L 2.691406 194.328125 L 1.132812 193.949219 L 1.921875 190.988281 L -1.195312 190.234375 L -1.980469 193.195312 L -5.097656 192.445312 Z M -2.734375 183.5625 "/>
<path style=" stroke:none;fill-rule:nonzero;fill:rgb(39.99939%,39.99939%,39.99939%);fill-opacity:0.3;" d="M -5.90625 194.765625 L -2.792969 195.519531 L -3.578125 198.480469 L -0.464844 199.234375 L 0.324219 196.273438 L 3.4375 197.023438 L 1.074219 205.910156 L -0.480469 205.53125 L -2.039062 205.15625 L -1.253906 202.195312 L -4.367188 201.441406 L -5.15625 204.402344 L -8.269531 203.648438 Z M -5.90625 194.765625 "/>
<g clip-path="url(#clip7)" clip-rule="nonzero">
<path style=" stroke:none;fill-rule:nonzero;fill:rgb(39.99939%,39.99939%,39.99939%);fill-opacity:0.3;" d="M -9.910156 246.492188 L 16.917969 253.515625 L -18.402344 372.832031 L -39.726562 353.925781 Z M -9.910156 246.492188 "/>
</g>
<g clip-path="url(#clip8)" clip-rule="nonzero">
<path style=" stroke:none;fill-rule:nonzero;fill:rgb(39.99939%,39.99939%,39.99939%);fill-opacity:0.3;" d="M 21.367188 254.6875 L 42.996094 260.070312 L 41.78125 341.859375 L 14.203125 332.515625 L 14.015625 334.050781 L 13.757812 336.207031 L 41.585938 346.035156 L 37.664062 423.710938 L -14.730469 376.53125 Z M 21.367188 254.6875 "/>
</g>
<path style=" stroke:none;fill-rule:nonzero;fill:rgb(39.99939%,39.99939%,39.99939%);fill-opacity:0.3;" d="M 7.476562 216.449219 L 16.207031 218.710938 L 12.425781 231.996094 L 3.664062 229.828125 L 1.328125 238.035156 L -7.402344 235.773438 L -3.621094 222.492188 L 5.25 224.789062 Z M 7.476562 216.449219 "/>
<path style=" stroke:none;fill-rule:nonzero;fill:rgb(39.99939%,39.99939%,39.99939%);fill-opacity:0.3;" d="M 46.988281 301.523438 L 46.800781 301.488281 L 47.078125 297.984375 Z M 46.988281 301.523438 "/>
<path style=" stroke:none;fill-rule:nonzero;fill:rgb(39.99939%,39.99939%,39.99939%);fill-opacity:0.3;" d="M -246.714844 107.609375 L -196.8125 -19.957031 L -25.332031 25.480469 L 49.964844 48.386719 L 53.675781 50.863281 L 54.554688 54.589844 L 50.316406 119.082031 L 43.992188 215.761719 L 3.957031 213.589844 L 11.367188 178.976562 L -104.230469 147.839844 L -140.332031 137.949219 L -162.949219 131.5 Z M -246.714844 107.609375 "/>
<path style=" stroke:none;fill-rule:nonzero;fill:rgb(39.99939%,39.99939%,39.99939%);fill-opacity:0.3;" d="M 317.691406 13.847656 L 340.324219 28.5 L 328.5 89.105469 L 304.859375 82.265625 Z M 317.691406 13.847656 "/>
<g clip-path="url(#clip9)" clip-rule="nonzero">
<path style=" stroke:none;fill-rule:nonzero;fill:rgb(39.99939%,39.99939%,39.99939%);fill-opacity:0.3;" d="M 346.230469 -65.070312 L 374.296875 -60.734375 L 352.058594 11.617188 L 343.675781 21.316406 L 325.851562 7.859375 Z M 346.230469 -65.070312 "/>
</g>
<path style=" stroke:none;fill-rule:nonzero;fill:rgb(39.99939%,39.99939%,39.99939%);fill-opacity:0.3;" d="M 310.453125 -87.140625 L 325.429688 -83.304688 L 320.523438 -64.328125 L 322.214844 -63.777344 L 323.382812 -63.394531 L 328.757812 -82.082031 L 346.320312 -76.671875 L 321.078125 7.925781 L 291.789062 1.789062 Z M 310.453125 -87.140625 "/>
<g clip-path="url(#clip10)" clip-rule="nonzero">
<path style=" stroke:none;fill-rule:nonzero;fill:rgb(39.99939%,39.99939%,39.99939%);fill-opacity:0.3;" d="M 361.105469 -5.398438 L 383.296875 0.894531 L 413.128906 9.359375 L 432.550781 14.871094 L 425.574219 38.425781 L 406.078125 32.535156 L 405.613281 33.644531 L 405.144531 34.757812 L 425.109375 40.796875 L 420 61.4375 L 418.601562 64.84375 L 417.511719 66.03125 L 415.796875 66.035156 L 368.230469 52.195312 L 370.703125 40.34375 L 355.519531 32.667969 L 344.082031 26.890625 L 356.953125 11.339844 Z M 361.105469 -5.398438 "/>
</g>
<g clip-path="url(#clip11)" clip-rule="nonzero">
<path style=" stroke:none;fill-rule:nonzero;fill:rgb(39.99939%,39.99939%,39.99939%);fill-opacity:0.3;" d="M 253.261719 100.148438 L 246.410156 68.734375 L 444.554688 127.21875 L 437.210938 150.214844 Z M 253.261719 100.148438 "/>
</g>
<g clip-path="url(#clip12)" clip-rule="nonzero">
<path style=" stroke:none;fill-rule:nonzero;fill:rgb(39.99939%,39.99939%,39.99939%);fill-opacity:0.3;" d="M 367.277344 56.5 L 389.890625 63.273438 L 381.90625 104.558594 L 358.96875 97.921875 Z M 367.277344 56.5 "/>
</g>
<g clip-path="url(#clip13)" clip-rule="nonzero">
<path style=" stroke:none;fill-rule:nonzero;fill:rgb(39.99939%,39.99939%,39.99939%);fill-opacity:0.3;" d="M 343.878906 30.476562 L 365.578125 40.902344 L 353.816406 96.429688 L 331.910156 90.09375 Z M 343.878906 30.476562 "/>
</g>
<path style=" stroke:none;fill-rule:nonzero;fill:rgb(39.99939%,39.99939%,39.99939%);fill-opacity:0.3;" d="M 246.109375 63.671875 L 241.457031 46.351562 L 237.375 31.351562 L 234.800781 18.058594 L 236.027344 -3.378906 L 259.351562 1.390625 Z M 246.109375 63.671875 "/>
<path style=" stroke:none;fill-rule:nonzero;fill:rgb(39.99939%,39.99939%,39.99939%);fill-opacity:0.3;" d="M 282.179688 -86.960938 L 292.148438 -88.550781 L 299.71875 -87.335938 L 304.527344 -81.914062 L 304.535156 -76.304688 L 303.804688 -69.644531 L 287.769531 1.371094 L 263.632812 -4.34375 L 272.578125 -40.632812 L 270.800781 -40.929688 L 269.175781 -41.199219 L 260.03125 -4.90625 L 238.777344 -8.796875 L 239.601562 -19.6875 L 240.039062 -21.582031 L 241.761719 -28.148438 L 243.792969 -34.578125 L 247.222656 -43.328125 L 251.128906 -51.34375 L 257.472656 -62.046875 L 262.261719 -71.332031 L 266.5 -78.171875 L 269.445312 -82.03125 L 287.652344 -76.339844 L 288.140625 -77.457031 L 288.46875 -78.207031 L 276.648438 -82.042969 Z M 282.179688 -86.960938 "/>
<path style=" stroke:none;fill-rule:nonzero;fill:rgb(39.99939%,39.99939%,39.99939%);fill-opacity:0.3;" d="M 289.75 7.21875 L 313.414062 12.042969 L 300.136719 80.898438 L 276.351562 74.015625 Z M 289.75 7.21875 "/>
<path style=" stroke:none;fill-rule:nonzero;fill:rgb(39.99939%,39.99939%,39.99939%);fill-opacity:0.3;" d="M 263.039062 1.746094 L 286.015625 6.570312 L 272.894531 73.015625 L 247.691406 65.726562 Z M 263.039062 1.746094 "/>
<path style=" stroke:none;fill-rule:nonzero;fill:rgb(39.99939%,39.99939%,39.99939%);fill-opacity:0.3;" d="M 206.59375 226.175781 L 198.128906 223.753906 L 210.359375 173.085938 L 241.488281 182.222656 L 237.320312 199.660156 L 215.398438 194.753906 Z M 206.59375 226.175781 "/>
<path style=" stroke:none;fill-rule:nonzero;fill:rgb(39.99939%,39.99939%,39.99939%);fill-opacity:0.3;" d="M 194.132812 222.753906 L 177.769531 218.257812 L 190.359375 166.960938 L 206.121094 172.046875 Z M 194.132812 222.753906 "/>
<path style=" stroke:none;fill-rule:nonzero;fill:rgb(39.99939%,39.99939%,39.99939%);fill-opacity:0.3;" d="M 171.597656 216.273438 L 152.738281 210.949219 L 165.957031 159.585938 L 184.859375 165.441406 Z M 171.597656 216.273438 "/>
<path style=" stroke:none;fill-rule:nonzero;fill:rgb(39.99939%,39.99939%,39.99939%);fill-opacity:0.3;" d="M 246.78125 186.035156 L 261.878906 188.707031 L 281.757812 220.132812 L 294.246094 244.109375 L 304.070312 270.15625 L 306.566406 291.390625 L 308.570312 308.570312 L 273.09375 298.484375 L 275.421875 284.117188 L 272.589844 283.71875 L 269.503906 283.285156 L 267.175781 297.648438 L 240.226562 289.703125 L 234.832031 236.144531 Z M 246.78125 186.035156 "/>
<path style=" stroke:none;fill-rule:nonzero;fill:rgb(39.99939%,39.99939%,39.99939%);fill-opacity:0.3;" d="M 240.503906 293.507812 L 240.5 293.472656 L 242.460938 294.015625 Z M 240.503906 293.507812 "/>
<path style=" stroke:none;fill-rule:nonzero;fill:rgb(39.99939%,39.99939%,39.99939%);fill-opacity:0.3;" d="M 181.0625 294.019531 L 181.175781 293.570312 L 192.871094 294.730469 Z M 181.0625 294.019531 "/>
<path style=" stroke:none;fill-rule:nonzero;fill:rgb(39.99939%,39.99939%,39.99939%);fill-opacity:0.3;" d="M 135.195312 279.46875 L 151.363281 215.222656 L 171.5625 220.5625 L 154.964844 284.320312 Z M 135.195312 279.46875 "/>
<path style=" stroke:none;fill-rule:nonzero;fill:rgb(39.99939%,39.99939%,39.99939%);fill-opacity:0.3;" d="M 158.011719 285.140625 L 175.199219 221.710938 L 192.367188 226.480469 L 177.917969 290.074219 Z M 158.011719 285.140625 "/>
<path style=" stroke:none;fill-rule:nonzero;fill:rgb(39.99939%,39.99939%,39.99939%);fill-opacity:0.3;" d="M 181.542969 291.085938 L 196.691406 227.621094 L 230.820312 236.972656 L 237.136719 295.570312 L 213.769531 293.75 L 224.21875 257.332031 L 221.957031 257.054688 L 219.574219 256.761719 L 208.382812 293.648438 Z M 181.542969 291.085938 "/>
<path style=" stroke:none;fill-rule:nonzero;fill:rgb(39.99939%,39.99939%,39.99939%);fill-opacity:0.3;" d="M 230.03125 232.382812 L 208.25 226.695312 L 211.339844 216.21875 L 225.070312 219.964844 L 225.363281 218.996094 L 225.78125 217.84375 L 211.808594 213.976562 L 216.535156 196.757812 L 236.832031 201.25 Z M 230.03125 232.382812 "/>
<path style=" stroke:none;fill-rule:nonzero;fill:rgb(39.99939%,39.99939%,39.99939%);fill-opacity:0.3;" d="M 119.574219 227.394531 L 83.808594 219.050781 L 87.457031 199.265625 L 124.105469 207.214844 Z M 119.574219 227.394531 "/>
<path style=" stroke:none;fill-rule:nonzero;fill:rgb(39.99939%,39.99939%,39.99939%);fill-opacity:0.3;" d="M 82.511719 264.628906 L 85.515625 221.257812 L 100.574219 224.988281 L 89.429688 266.472656 Z M 82.511719 264.628906 "/>
<path style=" stroke:none;fill-rule:nonzero;fill:rgb(39.99939%,39.99939%,39.99939%);fill-opacity:0.3;" d="M 103.257812 225.695312 L 119.472656 229.320312 L 110.699219 272.53125 L 91.105469 266.933594 Z M 103.257812 225.695312 "/>
<path style=" stroke:none;fill-rule:nonzero;fill:rgb(39.99939%,39.99939%,39.99939%);fill-opacity:0.3;" d="M 112.492188 273.042969 L 124.226562 218.761719 L 145.289062 223.851562 L 132.257812 278.644531 L 126.007812 277.09375 L 112.675781 273.09375 Z M 112.492188 273.042969 "/>
<path style=" stroke:none;fill-rule:nonzero;fill:rgb(39.99939%,39.99939%,39.99939%);fill-opacity:0.3;" d="M 145.421875 220.984375 L 126.316406 216.359375 L 139.628906 154.121094 L 158.734375 159.460938 Z M 145.421875 220.984375 "/>
<path style=" stroke:none;fill-rule:nonzero;fill:rgb(39.99939%,39.99939%,39.99939%);fill-opacity:0.3;" d="M 126.179688 205.3125 L 108.632812 201.320312 L 119.523438 148.726562 L 137.40625 153.585938 Z M 126.179688 205.3125 "/>
<path style=" stroke:none;fill-rule:nonzero;fill:rgb(39.99939%,39.99939%,39.99939%);fill-opacity:0.3;" d="M 106.183594 200.878906 L 88.847656 196.851562 L 96.054688 164.132812 L 114.015625 165.808594 Z M 106.183594 200.878906 "/>
<path style=" stroke:none;fill-rule:nonzero;fill:rgb(39.99939%,39.99939%,39.99939%);fill-opacity:0.3;" d="M 86.800781 193.265625 L 85.671875 163.558594 L 94.007812 163.914062 Z M 86.800781 193.265625 "/>
<path style=" stroke:none;fill-rule:nonzero;fill:rgb(39.99939%,39.99939%,39.99939%);fill-opacity:0.3;" d="M 64 208.4375 L 81.628906 209.347656 L 79.722656 263.613281 L 62.425781 259.199219 Z M 64 208.4375 "/>
<path style=" stroke:none;fill-rule:nonzero;fill:rgb(39.99939%,39.99939%,39.99939%);fill-opacity:0.3;" d="M 65.117188 160.6875 L 83.621094 162.597656 L 82.777344 206.03125 L 64.417969 205.589844 Z M 65.117188 160.6875 "/>
<path style=" stroke:none;fill-rule:nonzero;fill:rgb(39.99939%,39.99939%,39.99939%);fill-opacity:0.3;" d="M 54.367188 208.269531 L 61.105469 208.265625 L 58.832031 258.246094 L 51.429688 256.59375 Z M 54.367188 208.269531 "/>
<path style=" stroke:none;fill-rule:nonzero;fill:rgb(39.99939%,39.99939%,39.99939%);fill-opacity:0.3;" d="M 53.660156 159.75 L 62.433594 160.480469 L 61.882812 206.058594 L 53.714844 205.601562 Z M 53.660156 159.75 "/>
<path style=" stroke:none;fill-rule:nonzero;fill:rgb(39.99939%,39.99939%,39.99939%);fill-opacity:0.3;" d="M 114.167969 163.144531 L 53.277344 157.605469 L 54.210938 136.839844 L 55.089844 133.902344 L 57.882812 133.128906 L 117.808594 148.496094 Z M 114.167969 163.144531 "/>
<path style=" stroke:none;fill-rule:nonzero;fill:rgb(39.99939%,39.99939%,39.99939%);fill-opacity:0.3;" d="M 276.992188 202.308594 L 275.625 200.363281 L 275.363281 199.941406 L 276.59375 201.578125 Z M 276.992188 202.308594 "/>
<path style=" stroke:none;fill-rule:nonzero;fill:rgb(39.99939%,39.99939%,39.99939%);fill-opacity:0.3;" d="M 105.65625 138.703125 L 127.023438 69.878906 L 153.0625 77.71875 L 138.449219 122.703125 L 140.050781 123.148438 L 141.65625 123.59375 L 156.269531 78.609375 L 181.738281 86.269531 L 162.4375 151.988281 Z M 105.65625 138.703125 "/>
<path style=" stroke:none;fill-rule:nonzero;fill:rgb(39.99939%,39.99939%,39.99939%);fill-opacity:0.3;" d="M 244.355469 104.300781 L 246.625 107.339844 L 247.007812 111.101562 L 248.144531 118.40625 L 249.683594 129.554688 L 250.628906 142.203125 L 248.359375 153.546875 L 242.445312 175.800781 L 220.863281 169.292969 L 236.355469 119.113281 L 234.171875 118.242188 L 231.992188 117.375 L 216.273438 167.992188 L 194.230469 161.050781 L 213.988281 95.214844 Z M 244.355469 104.300781 "/>
<path style=" stroke:none;fill-rule:nonzero;fill:rgb(39.99939%,39.99939%,39.99939%);fill-opacity:0.3;" d="M 187.011719 87.375 L 209.082031 94.328125 L 189.488281 159.667969 L 167.421875 153.246094 Z M 187.011719 87.375 "/>
<path style=" stroke:none;fill-rule:nonzero;fill:rgb(39.99939%,39.99939%,39.99939%);fill-opacity:0.3;" d="M 246.621094 97.421875 L 214.992188 88.132812 L 231.285156 35.835938 Z M 246.621094 97.421875 "/>
<path style=" stroke:none;fill-rule:nonzero;fill:rgb(39.99939%,39.99939%,39.99939%);fill-opacity:0.3;" d="M 216.242188 -7.773438 L 228.839844 -5.164062 L 229.40625 31.390625 L 211.011719 86.804688 L 189.453125 80.386719 Z M 216.242188 -7.773438 "/>
<path style=" stroke:none;fill-rule:nonzero;fill:rgb(39.99939%,39.99939%,39.99939%);fill-opacity:0.3;" d="M 184.535156 -14.011719 L 211.289062 -8.878906 L 184.003906 78.539062 L 160.101562 71.457031 Z M 184.535156 -14.011719 "/>
<path style=" stroke:none;fill-rule:nonzero;fill:rgb(39.99939%,39.99939%,39.99939%);fill-opacity:0.3;" d="M 154.03125 -20.109375 L 180.957031 -14.652344 L 155.898438 70.105469 L 129.640625 62.609375 Z M 154.03125 -20.109375 "/>
<path style=" stroke:none;fill-rule:nonzero;fill:rgb(39.99939%,39.99939%,39.99939%);fill-opacity:0.3;" d="M 101.183594 136.914062 L 81.933594 132.207031 L 84.652344 118.496094 L 83.175781 118.144531 L 81.214844 117.683594 L 78.324219 130.417969 L 62.230469 124.246094 L 63 83.785156 L 63.652344 59.09375 L 64.113281 53.976562 L 62.464844 50.199219 L 59.648438 47.3125 L 60.113281 45.53125 L 92.699219 59.496094 L 81.050781 102.132812 L 82.722656 102.691406 L 84.261719 103.203125 L 95.980469 60.824219 L 121.714844 68.402344 Z M 101.183594 136.914062 "/>
<path style=" stroke:none;fill-rule:nonzero;fill:rgb(39.99939%,39.99939%,39.99939%);fill-opacity:0.3;" d="M 124.394531 -26.207031 L 150.777344 -20.828125 L 125.851562 61.351562 L 99.5 53.890625 Z M 124.394531 -26.207031 "/>
<path style=" stroke:none;fill-rule:nonzero;fill:rgb(39.99939%,39.99939%,39.99939%);fill-opacity:0.3;" d="M 94.230469 -32.140625 L 119.621094 -27.007812 L 95.652344 51.761719 L 70.804688 41.125 Z M 94.230469 -32.140625 "/>
<path style=" stroke:none;fill-rule:nonzero;fill:rgb(39.99939%,39.99939%,39.99939%);fill-opacity:0.3;" d="M 68.167969 38.917969 L 60.597656 35.960938 L 66.703125 -78.011719 L 82.160156 -88.589844 L 94.25 -56.445312 L 95.398438 -50.40625 L 93.773438 -40.867188 Z M 68.167969 38.917969 "/>
<g clip-path="url(#clip14)" clip-rule="nonzero">
<path style=" stroke:none;fill-rule:nonzero;fill:rgb(39.99939%,39.99939%,39.99939%);fill-opacity:0.3;" d="M 132.722656 282.882812 L 175.097656 293.472656 L 153.554688 376.703125 L 140.832031 373.390625 L 140.105469 376.332031 L 139.277344 379.695312 L 167.878906 386.332031 L 154.816406 429.441406 L 99.882812 417.136719 Z M 132.722656 282.882812 "/>
</g>
<g clip-path="url(#clip15)" clip-rule="nonzero">
<path style=" stroke:none;fill-rule:nonzero;fill:rgb(39.99939%,39.99939%,39.99939%);fill-opacity:0.3;" d="M 310.394531 312.847656 L 314.0625 339.199219 L 303.957031 345.972656 L 290.316406 354.683594 L 277.183594 364.359375 L 273.191406 367.828125 L 267.71875 375.027344 L 263.523438 381.984375 L 259.464844 392.632812 L 258.570312 392.269531 L 250.789062 362.347656 L 247.804688 349.4375 L 245.828125 336.3125 L 243.210938 311.992188 L 240.503906 293.507812 L 242.460938 294.015625 Z M 310.394531 312.847656 "/>
</g>
<g clip-path="url(#clip16)" clip-rule="nonzero">
<path style=" stroke:none;fill-rule:nonzero;fill:rgb(39.99939%,39.99939%,39.99939%);fill-opacity:0.3;" d="M 190.210938 383.863281 L 210.980469 296.910156 L 237.246094 298.757812 L 242.761719 334.296875 L 244.730469 350.207031 L 252.246094 378.953125 L 256.019531 398.253906 L 253.976562 399.234375 L 249.246094 399.242188 Z M 190.210938 383.863281 "/>
</g>
<g clip-path="url(#clip17)" clip-rule="nonzero">
<path style=" stroke:none;fill-rule:nonzero;fill:rgb(39.99939%,39.99939%,39.99939%);fill-opacity:0.3;" d="M 186.210938 383.867188 L 160.019531 378.222656 L 181.0625 294.019531 L 192.871094 294.730469 L 208.042969 296.230469 Z M 186.210938 383.867188 "/>
</g>
<path style=" stroke:none;fill-rule:nonzero;fill:rgb(39.99939%,39.99939%,39.99939%);fill-opacity:0.3;" d="M 89.175781 267.429688 L 82.453125 265.472656 L 82.511719 264.628906 L 89.429688 266.472656 Z M 89.175781 267.429688 "/>
<path style=" stroke:none;fill-rule:nonzero;fill:rgb(39.99939%,39.99939%,39.99939%);fill-opacity:0.3;" d="M 110.699219 272.53125 L 110.609375 272.988281 L 90.804688 267.945312 L 91.105469 266.933594 Z M 110.699219 272.53125 "/>
<path style=" stroke:none;fill-rule:nonzero;fill:rgb(39.99939%,39.99939%,39.99939%);fill-opacity:0.3;" d="M 112.347656 273.707031 L 112.492188 273.042969 L 112.675781 273.09375 L 126.007812 277.09375 Z M 112.347656 273.707031 "/>
<g clip-path="url(#clip18)" clip-rule="nonzero">
<path style=" stroke:none;fill-rule:nonzero;fill:rgb(39.99939%,39.99939%,39.99939%);fill-opacity:0.3;" d="M 45.851562 356.433594 L 108.273438 370.738281 L 96.285156 416.125 L 43.0625 405.25 Z M 45.851562 356.433594 "/>
</g>
<g clip-path="url(#clip19)" clip-rule="nonzero">
<path style=" stroke:none;fill-rule:nonzero;fill:rgb(39.99939%,39.99939%,39.99939%);fill-opacity:0.3;" d="M 48.289062 304.609375 L 120.75 319.3125 L 108.8125 366.511719 L 44.964844 351.445312 Z M 48.289062 304.609375 "/>
</g>
<path style=" stroke:none;fill-rule:nonzero;fill:rgb(39.99939%,39.99939%,39.99939%);fill-opacity:0.3;" d="M 50.09375 260.257812 L 128.800781 281.429688 L 120.191406 316.082031 L 46.988281 301.523438 L 47.078125 297.984375 Z M 50.09375 260.257812 "/>
<path style=" stroke:none;fill-rule:nonzero;fill:rgb(39.99939%,39.99939%,39.99939%);fill-opacity:0.3;" d="M 5.027344 -24.339844 L 30.675781 -14.808594 L 25.242188 6.519531 L 18.890625 -3.039062 L 9.367188 -12.59375 L 2.445312 -18.324219 Z M 5.027344 -24.339844 "/>
<path style=" stroke:none;fill-rule:nonzero;fill:rgb(39.99939%,39.99939%,39.99939%);fill-opacity:0.3;" d="M 34.421875 -14.269531 L 52.574219 -8.828125 L 50.980469 30.859375 L 36.984375 18.3125 L 28.125 8.976562 Z M 34.421875 -14.269531 "/>
<path style=" stroke:none;fill-rule:nonzero;fill:rgb(39.99939%,39.99939%,39.99939%);fill-opacity:0.3;" d="M -15.785156 -22.679688 L -8.882812 -18.597656 L -3.167969 -12.882812 L -6.039062 -6.453125 L -4.28125 -5.230469 L -2.3125 -4.101562 L 0.03125 -10.148438 L 24.613281 13.65625 L 30.203125 19.523438 L 34.601562 24.53125 L 38.597656 28.242188 L 45.503906 34.503906 L 52.777344 40.472656 L -57.105469 7.640625 Z M -15.785156 -22.679688 "/>
<path style="fill-rule:nonzero;fill:rgb(39.99939%,39.99939%,39.99939%);fill-opacity:1;stroke-width:0.03;stroke-linecap:square;stroke-linejoin:miter;stroke:rgb(39.99939%,39.99939%,39.99939%);stroke-opacity:1;stroke-miterlimit:3.239307;" d="M 280.59375 239.175781 L 272.128906 236.753906 L 284.359375 186.085938 L 315.488281 195.222656 L 311.320312 212.660156 L 289.398438 207.753906 Z M 280.59375 239.175781 " transform="matrix(1,0,0,1,-74,-13)"/>
<path style="fill-rule:nonzero;fill:rgb(39.99939%,39.99939%,39.99939%);fill-opacity:1;stroke-width:0.03;stroke-linecap:square;stroke-linejoin:miter;stroke:rgb(39.99939%,39.99939%,39.99939%);stroke-opacity:1;stroke-miterlimit:3.239307;" d="M 268.132812 235.753906 L 251.769531 231.257812 L 264.359375 179.960938 L 280.121094 185.046875 Z M 268.132812 235.753906 " transform="matrix(1,0,0,1,-74,-13)"/>
<path style="fill-rule:nonzero;fill:rgb(39.99939%,39.99939%,39.99939%);fill-opacity:1;stroke-width:0.03;stroke-linecap:square;stroke-linejoin:miter;stroke:rgb(39.99939%,39.99939%,39.99939%);stroke-opacity:1;stroke-miterlimit:3.239307;" d="M 245.597656 229.273438 L 226.738281 223.949219 L 239.957031 172.585938 L 258.859375 178.441406 Z M 245.597656 229.273438 " transform="matrix(1,0,0,1,-74,-13)"/>
<path style="fill-rule:nonzero;fill:rgb(39.99939%,39.99939%,39.99939%);fill-opacity:1;stroke-width:0.03;stroke-linecap:square;stroke-linejoin:miter;stroke:rgb(39.99939%,39.99939%,39.99939%);stroke-opacity:1;stroke-miterlimit:3.239307;" d="M 320.78125 199.035156 L 335.878906 201.707031 L 355.757812 233.132812 L 368.246094 257.109375 L 378.070312 283.15625 L 380.566406 304.390625 L 382.570312 321.570312 L 347.09375 311.484375 L 349.421875 297.117188 L 346.589844 296.71875 L 343.503906 296.285156 L 341.175781 310.648438 L 314.226562 302.703125 L 308.832031 249.144531 Z M 320.78125 199.035156 " transform="matrix(1,0,0,1,-74,-13)"/>
<path style="fill-rule:nonzero;fill:rgb(39.99939%,39.99939%,39.99939%);fill-opacity:1;stroke-width:0.03;stroke-linecap:square;stroke-linejoin:miter;stroke:rgb(39.99939%,39.99939%,39.99939%);stroke-opacity:1;stroke-miterlimit:3.239307;" d="M 314.503906 306.507812 L 314.5 306.472656 L 316.460938 307.015625 Z M 314.503906 306.507812 " transform="matrix(1,0,0,1,-74,-13)"/>
<path style="fill-rule:nonzero;fill:rgb(39.99939%,39.99939%,39.99939%);fill-opacity:1;stroke-width:0.03;stroke-linecap:square;stroke-linejoin:miter;stroke:rgb(39.99939%,39.99939%,39.99939%);stroke-opacity:1;stroke-miterlimit:3.239307;" d="M 255.0625 307.019531 L 255.175781 306.570312 L 266.871094 307.730469 Z M 255.0625 307.019531 " transform="matrix(1,0,0,1,-74,-13)"/>
<path style="fill-rule:nonzero;fill:rgb(39.99939%,39.99939%,39.99939%);fill-opacity:1;stroke-width:0.03;stroke-linecap:square;stroke-linejoin:miter;stroke:rgb(39.99939%,39.99939%,39.99939%);stroke-opacity:1;stroke-miterlimit:3.239307;" d="M 209.195312 292.46875 L 225.363281 228.222656 L 245.5625 233.5625 L 228.964844 297.320312 Z M 209.195312 292.46875 " transform="matrix(1,0,0,1,-74,-13)"/>
<path style="fill-rule:nonzero;fill:rgb(39.99939%,39.99939%,39.99939%);fill-opacity:1;stroke-width:0.03;stroke-linecap:square;stroke-linejoin:miter;stroke:rgb(39.99939%,39.99939%,39.99939%);stroke-opacity:1;stroke-miterlimit:3.239307;" d="M 232.011719 298.140625 L 249.199219 234.710938 L 266.367188 239.480469 L 251.917969 303.074219 Z M 232.011719 298.140625 " transform="matrix(1,0,0,1,-74,-13)"/>
<path style="fill-rule:nonzero;fill:rgb(39.99939%,39.99939%,39.99939%);fill-opacity:1;stroke-width:0.03;stroke-linecap:square;stroke-linejoin:miter;stroke:rgb(39.99939%,39.99939%,39.99939%);stroke-opacity:1;stroke-miterlimit:3.239307;" d="M 255.542969 304.085938 L 270.691406 240.621094 L 304.820312 249.972656 L 311.136719 308.570312 L 287.769531 306.75 L 298.21875 270.332031 L 295.957031 270.054688 L 293.574219 269.761719 L 282.382812 306.648438 Z M 255.542969 304.085938 " transform="matrix(1,0,0,1,-74,-13)"/>
<path style="fill-rule:nonzero;fill:rgb(39.99939%,39.99939%,39.99939%);fill-opacity:1;stroke-width:0.03;stroke-linecap:square;stroke-linejoin:miter;stroke:rgb(39.99939%,39.99939%,39.99939%);stroke-opacity:1;stroke-miterlimit:3.239307;" d="M 304.03125 245.382812 L 282.25 239.695312 L 285.339844 229.21875 L 299.070312 232.964844 L 299.363281 231.996094 L 299.78125 230.84375 L 285.808594 226.976562 L 290.535156 209.757812 L 310.832031 214.25 Z M 304.03125 245.382812 " transform="matrix(1,0,0,1,-74,-13)"/>
<path style="fill-rule:nonzero;fill:rgb(39.99939%,39.99939%,39.99939%);fill-opacity:1;stroke-width:0.03;stroke-linecap:square;stroke-linejoin:miter;stroke:rgb(39.99939%,39.99939%,39.99939%);stroke-opacity:1;stroke-miterlimit:3.239307;" d="M 193.574219 240.394531 L 157.808594 232.050781 L 161.457031 212.265625 L 198.105469 220.214844 Z M 193.574219 240.394531 " transform="matrix(1,0,0,1,-74,-13)"/>
<path style="fill-rule:nonzero;fill:rgb(39.99939%,39.99939%,39.99939%);fill-opacity:1;stroke-width:0.03;stroke-linecap:square;stroke-linejoin:miter;stroke:rgb(39.99939%,39.99939%,39.99939%);stroke-opacity:1;stroke-miterlimit:3.239307;" d="M 156.511719 277.628906 L 159.515625 234.257812 L 174.574219 237.988281 L 163.429688 279.472656 Z M 156.511719 277.628906 " transform="matrix(1,0,0,1,-74,-13)"/>
<path style="fill-rule:nonzero;fill:rgb(39.99939%,39.99939%,39.99939%);fill-opacity:1;stroke-width:0.03;stroke-linecap:square;stroke-linejoin:miter;stroke:rgb(39.99939%,39.99939%,39.99939%);stroke-opacity:1;stroke-miterlimit:3.239307;" d="M 177.257812 238.695312 L 193.472656 242.320312 L 184.699219 285.53125 L 165.105469 279.933594 Z M 177.257812 238.695312 " transform="matrix(1,0,0,1,-74,-13)"/>
<path style="fill-rule:nonzero;fill:rgb(39.99939%,39.99939%,39.99939%);fill-opacity:1;stroke-width:0.03;stroke-linecap:square;stroke-linejoin:miter;stroke:rgb(39.99939%,39.99939%,39.99939%);stroke-opacity:1;stroke-miterlimit:3.239307;" d="M 186.492188 286.042969 L 198.226562 231.761719 L 219.289062 236.851562 L 206.257812 291.644531 L 200.007812 290.09375 L 186.675781 286.09375 Z M 186.492188 286.042969 " transform="matrix(1,0,0,1,-74,-13)"/>
<path style="fill-rule:nonzero;fill:rgb(39.99939%,39.99939%,39.99939%);fill-opacity:1;stroke-width:0.03;stroke-linecap:square;stroke-linejoin:miter;stroke:rgb(39.99939%,39.99939%,39.99939%);stroke-opacity:1;stroke-miterlimit:3.239307;" d="M 219.421875 233.984375 L 200.316406 229.359375 L 213.628906 167.121094 L 232.734375 172.460938 Z M 219.421875 233.984375 " transform="matrix(1,0,0,1,-74,-13)"/>
<path style="fill-rule:nonzero;fill:rgb(39.99939%,39.99939%,39.99939%);fill-opacity:1;stroke-width:0.03;stroke-linecap:square;stroke-linejoin:miter;stroke:rgb(39.99939%,39.99939%,39.99939%);stroke-opacity:1;stroke-miterlimit:3.239307;" d="M 200.179688 218.3125 L 182.632812 214.320312 L 193.523438 161.726562 L 211.40625 166.585938 Z M 200.179688 218.3125 " transform="matrix(1,0,0,1,-74,-13)"/>
<path style="fill-rule:nonzero;fill:rgb(39.99939%,39.99939%,39.99939%);fill-opacity:1;stroke-width:0.03;stroke-linecap:square;stroke-linejoin:miter;stroke:rgb(39.99939%,39.99939%,39.99939%);stroke-opacity:1;stroke-miterlimit:3.239307;" d="M 180.183594 213.878906 L 162.847656 209.851562 L 170.054688 177.132812 L 188.015625 178.808594 Z M 180.183594 213.878906 " transform="matrix(1,0,0,1,-74,-13)"/>
<path style="fill-rule:nonzero;fill:rgb(39.99939%,39.99939%,39.99939%);fill-opacity:1;stroke-width:0.03;stroke-linecap:square;stroke-linejoin:miter;stroke:rgb(39.99939%,39.99939%,39.99939%);stroke-opacity:1;stroke-miterlimit:3.239307;" d="M 160.800781 206.265625 L 159.671875 176.558594 L 168.007812 176.914062 Z M 160.800781 206.265625 " transform="matrix(1,0,0,1,-74,-13)"/>
<path style="fill-rule:nonzero;fill:rgb(39.99939%,39.99939%,39.99939%);fill-opacity:1;stroke-width:0.03;stroke-linecap:square;stroke-linejoin:miter;stroke:rgb(39.99939%,39.99939%,39.99939%);stroke-opacity:1;stroke-miterlimit:3.239307;" d="M 138 221.4375 L 155.628906 222.347656 L 153.722656 276.613281 L 136.425781 272.199219 Z M 138 221.4375 " transform="matrix(1,0,0,1,-74,-13)"/>
<path style="fill-rule:nonzero;fill:rgb(39.99939%,39.99939%,39.99939%);fill-opacity:1;stroke-width:0.03;stroke-linecap:square;stroke-linejoin:miter;stroke:rgb(39.99939%,39.99939%,39.99939%);stroke-opacity:1;stroke-miterlimit:3.239307;" d="M 139.117188 173.6875 L 157.621094 175.597656 L 156.777344 219.03125 L 138.417969 218.589844 Z M 139.117188 173.6875 " transform="matrix(1,0,0,1,-74,-13)"/>
<path style="fill-rule:nonzero;fill:rgb(39.99939%,39.99939%,39.99939%);fill-opacity:1;stroke-width:0.03;stroke-linecap:square;stroke-linejoin:miter;stroke:rgb(39.99939%,39.99939%,39.99939%);stroke-opacity:1;stroke-miterlimit:3.239307;" d="M 128.367188 221.269531 L 135.105469 221.265625 L 132.832031 271.246094 L 125.429688 269.59375 Z M 128.367188 221.269531 " transform="matrix(1,0,0,1,-74,-13)"/>
<path style="fill-rule:nonzero;fill:rgb(39.99939%,39.99939%,39.99939%);fill-opacity:1;stroke-width:0.03;stroke-linecap:square;stroke-linejoin:miter;stroke:rgb(39.99939%,39.99939%,39.99939%);stroke-opacity:1;stroke-miterlimit:3.239307;" d="M 127.660156 172.75 L 136.433594 173.480469 L 135.882812 219.058594 L 127.714844 218.601562 Z M 127.660156 172.75 " transform="matrix(1,0,0,1,-74,-13)"/>
<path style="fill-rule:nonzero;fill:rgb(39.99939%,39.99939%,39.99939%);fill-opacity:1;stroke-width:0.03;stroke-linecap:square;stroke-linejoin:miter;stroke:rgb(39.99939%,39.99939%,39.99939%);stroke-opacity:1;stroke-miterlimit:3.239307;" d="M 188.167969 176.144531 L 127.277344 170.605469 L 128.210938 149.839844 L 129.089844 146.902344 L 131.882812 146.128906 L 191.808594 161.496094 Z M 188.167969 176.144531 " transform="matrix(1,0,0,1,-74,-13)"/>
<path style="fill-rule:nonzero;fill:rgb(39.99939%,39.99939%,39.99939%);fill-opacity:1;stroke-width:0.03;stroke-linecap:square;stroke-linejoin:miter;stroke:rgb(39.99939%,39.99939%,39.99939%);stroke-opacity:1;stroke-miterlimit:3.239307;" d="M 350.992188 215.308594 L 349.625 213.363281 L 349.363281 212.941406 L 350.59375 214.578125 Z M 350.992188 215.308594 " transform="matrix(1,0,0,1,-74,-13)"/>
<path style=" stroke:none;fill-rule:evenodd;fill:rgb(85.096741%,85.096741%,81.959534%);fill-opacity:0.7;" d="M 255.316406 184 C 255.316406 177.285156 252.648438 170.847656 247.902344 166.097656 C 243.152344 161.351562 236.714844 158.683594 230 158.683594 C 223.285156 158.683594 216.847656 161.351562 212.097656 166.097656 C 207.351562 170.847656 204.683594 177.285156 204.683594 184 C 204.683594 190.714844 207.351562 197.152344 212.097656 201.902344 C 216.847656 206.648438 223.285156 209.316406 230 209.316406 C 236.714844 209.316406 243.152344 206.648438 247.902344 201.902344 C 252.648438 197.152344 255.316406 190.714844 255.316406 184 Z M 255.316406 184 "/>
<path style=" stroke:none;fill-rule:evenodd;fill:rgb(85.096741%,85.096741%,81.959534%);fill-opacity:0.7;" d="M 217.316406 52 C 217.316406 45.285156 214.648438 38.847656 209.902344 34.097656 C 205.152344 29.351562 198.714844 26.683594 192 26.683594 C 185.285156 26.683594 178.847656 29.351562 174.097656 34.097656 C 169.351562 38.847656 166.683594 45.285156 166.683594 52 C 166.683594 58.714844 169.351562 65.152344 174.097656 69.902344 C 178.847656 74.648438 185.285156 77.316406 192 77.316406 C 198.714844 77.316406 205.152344 74.648438 209.902344 69.902344 C 214.648438 65.152344 217.316406 58.714844 217.316406 52 Z M 217.316406 52 "/>
</g>
</svg>
