<?xml version="1.0" encoding="UTF-8"?>
<svg xmlns="http://www.w3.org/2000/svg" xmlns:xlink="http://www.w3.org/1999/xlink" width="361pt" height="361pt" viewBox="0 0 361 361" version="1.1">
<defs>
<clipPath id="clip1">
  <path d="M 177 38 L 360 38 L 360 200 L 177 200 Z M 177 38 "/>
</clipPath>
<clipPath id="clip2">
  <path d="M 101 119 L 360 119 L 360 256 L 101 256 Z M 101 119 "/>
</clipPath>
<clipPath id="clip3">
  <path d="M 204 0 L 360 0 L 360 130 L 204 130 Z M 204 0 "/>
</clipPath>
<clipPath id="clip4">
  <path d="M 346 352 L 360 352 L 360 360 L 346 360 Z M 346 352 "/>
</clipPath>
<clipPath id="clip5">
  <path d="M 357 348 L 360 348 L 360 355 L 357 355 Z M 357 348 "/>
</clipPath>
<clipPath id="clip6">
  <path d="M 0 348 L 36 348 L 36 360 L 0 360 Z M 0 348 "/>
</clipPath>
<clipPath id="clip7">
  <path d="M 356 297 L 360 297 L 360 319 L 356 319 Z M 356 297 "/>
</clipPath>
<clipPath id="clip8">
  <path d="M 253 359 L 266 359 L 266 360 L 253 360 Z M 253 359 "/>
</clipPath>
<clipPath id="clip9">
  <path d="M 240 355 L 250 355 L 250 360 L 240 360 Z M 240 355 "/>
</clipPath>
<clipPath id="clip10">
  <path d="M 224 350 L 236 350 L 236 360 L 224 360 Z M 224 350 "/>
</clipPath>
<clipPath id="clip11">
  <path d="M 247 357 L 256 357 L 256 360 L 247 360 Z M 247 357 "/>
</clipPath>
<clipPath id="clip12">
  <path d="M 216 348 L 227 348 L 227 360 L 216 360 Z M 216 348 "/>
</clipPath>
<clipPath id="clip13">
  <path d="M 209 348 L 220 348 L 220 360 L 209 360 Z M 209 348 "/>
</clipPath>
<clipPath id="clip14">
  <path d="M 295 350 L 340 350 L 340 360 L 295 360 Z M 295 350 "/>
</clipPath>
<clipPath id="clip15">
  <path d="M 187 351 L 211 351 L 211 360 L 187 360 Z M 187 351 "/>
</clipPath>
<clipPath id="clip16">
  <path d="M 176 354 L 190 354 L 190 360 L 176 360 Z M 176 354 "/>
</clipPath>
<clipPath id="clip17">
  <path d="M 279 346 L 297 346 L 297 360 L 279 360 Z M 279 346 "/>
</clipPath>
<clipPath id="clip18">
  <path d="M 269 342 L 285 342 L 285 360 L 269 360 Z M 269 342 "/>
</clipPath>
<clipPath id="clip19">
  <path d="M 257 340 L 271 340 L 271 360 L 257 360 Z M 257 340 "/>
</clipPath>
<clipPath id="clip20">
  <path d="M 232 353 L 244 353 L 244 360 L 232 360 Z M 232 353 "/>
</clipPath>
<clipPath id="clip21">
  <path d="M 94 345 L 256 345 L 256 360 L 94 360 Z M 94 345 "/>
</clipPath>
<clipPath id="clip22">
  <path d="M 33 341 L 104 341 L 104 360 L 33 360 Z M 33 341 "/>
</clipPath>
<clipPath id="clip23">
  <path d="M 143 356 L 172 356 L 172 360 L 143 360 Z M 143 356 "/>
</clipPath>
<clipPath id="clip24">
  <path d="M 141 312 L 189 312 L 189 360 L 141 360 Z M 141 312 "/>
</clipPath>
<clipPath id="clip25">
  <path d="M 345 246 L 360 246 L 360 281 L 345 281 Z M 345 246 "/>
</clipPath>
<clipPath id="clip26">
  <path d="M 355 278 L 360 278 L 360 297 L 355 297 Z M 355 278 "/>
</clipPath>
<clipPath id="clip27">
  <path d="M 350 295 L 360 295 L 360 310 L 350 310 Z M 350 295 "/>
</clipPath>
<clipPath id="clip28">
  <path d="M 309 311 L 360 311 L 360 349 L 309 349 Z M 309 311 "/>
</clipPath>
<clipPath id="clip29">
  <path d="M 304 342 L 357 342 L 357 360 L 304 360 Z M 304 342 "/>
</clipPath>
<clipPath id="clip30">
  <path d="M 325 352 L 341 352 L 341 360 L 325 360 Z M 325 352 "/>
</clipPath>
<clipPath id="clip31">
  <path d="M 221 349 L 255 349 L 255 360 L 221 360 Z M 221 349 "/>
</clipPath>
<clipPath id="clip32">
  <path d="M 220 348 L 257 348 L 257 360 L 220 360 Z M 220 348 "/>
</clipPath>
</defs>
<g id="surface588">
<path style="fill-rule:nonzero;fill:rgb(0%,0%,0%);fill-opacity:1;stroke-width:0.03;stroke-linecap:square;stroke-linejoin:miter;stroke:rgb(0%,0%,0%);stroke-opacity:1;stroke-miterlimit:10;" d="M 0 178 L 360 178 L 360 -182 L 0 -182 Z M 0 178 " transform="matrix(1,0,0,1,0,182)"/>
<path style=" stroke:none;fill-rule:nonzero;fill:rgb(39.99939%,39.99939%,39.99939%);fill-opacity:0.3;" d="M 204.691406 3.375 L 203.367188 2.949219 L 204.070312 3.039062 Z M 204.691406 3.375 "/>
<path style=" stroke:none;fill-rule:nonzero;fill:rgb(39.99939%,39.99939%,39.99939%);fill-opacity:0.3;" d="M 138.921875 54.90625 L 146.65625 45.492188 L 152.601562 40.859375 L 156.839844 37.566406 L 160.890625 34.359375 L 167.199219 31.144531 L 172.132812 28.605469 L 172.398438 28.71875 L 169.335938 35.785156 L 159.351562 63.742188 L 147.90625 59.3125 Z M 138.921875 54.90625 "/>
<path style=" stroke:none;fill-rule:nonzero;fill:rgb(39.99939%,39.99939%,39.99939%);fill-opacity:0.3;" d="M 199.8125 37.566406 L 188.269531 75.332031 L 175.820312 77.351562 L 155.25 79.410156 L 155.617188 76.117188 L 156.820312 71.335938 L 159.449219 65.195312 L 165.832031 67.386719 L 165.890625 67.160156 L 165.945312 66.929688 L 159.664062 64.769531 L 169.484375 36.992188 L 172.4375 35.851562 L 173.128906 34.71875 L 172.777344 34.453125 L 172.34375 34.246094 L 171.652344 35.382812 L 170.492188 35.734375 L 170.039062 35.488281 L 172.785156 28.839844 Z M 199.8125 37.566406 "/>
<path style=" stroke:none;fill-rule:nonzero;fill:rgb(39.99939%,39.99939%,39.99939%);fill-opacity:0.3;" d="M 112.71875 85.871094 L 113.054688 85.855469 L 113.734375 85.699219 L 113.628906 85.992188 Z M 112.71875 85.871094 "/>
<path style=" stroke:none;fill-rule:nonzero;fill:rgb(39.99939%,39.99939%,39.99939%);fill-opacity:0.3;" d="M 121.023438 68.84375 L 121.105469 68.613281 L 121.957031 68.503906 L 122.605469 68.382812 L 123.246094 68.226562 L 123.878906 68.042969 L 124.496094 67.824219 L 125.054688 67.410156 L 128.289062 64.902344 L 133 60.945312 L 138.429688 55.535156 L 147.554688 59.933594 L 159.082031 64.429688 L 156.242188 71.421875 L 155.113281 75.710938 L 150.375 74.644531 L 149.097656 74.558594 L 143.597656 72.203125 L 146.640625 66.097656 L 145.835938 65.683594 L 139.574219 77.167969 L 139.996094 77.328125 L 140.414062 77.484375 L 143.027344 73.09375 L 149.003906 75.058594 L 150.464844 75.144531 L 155.007812 76.148438 L 154.371094 80.015625 L 153.378906 81.574219 L 153.3125 81.878906 L 147.757812 82.941406 L 147.773438 83.140625 L 147.785156 83.335938 L 152.703125 82.425781 L 151.832031 87.015625 L 151.496094 89.34375 Z M 121.023438 68.84375 "/>
<path style=" stroke:none;fill-rule:nonzero;fill:rgb(39.99939%,39.99939%,39.99939%);fill-opacity:0.3;" d="M 237.738281 -63.414062 L 236.898438 -63.566406 L 236.058594 -63.714844 L 233.644531 -56.417969 L 230.644531 -57.308594 L 230.480469 -56.8125 L 230.316406 -56.3125 L 233.316406 -55.421875 L 229.117188 -42.71875 L 246.132812 -37.769531 L 245.328125 -31.820312 L 243.90625 -26.316406 L 243.023438 -23.582031 L 241.996094 -20.785156 L 240.207031 -16.066406 L 238.851562 -12.953125 L 237.101562 -10.742188 L 234.855469 -9.171875 L 230.542969 -6.855469 L 210.902344 3.71875 L 209.574219 4.371094 L 208.140625 4.304688 L 206.226562 3.867188 L 204.691406 3.375 L 204.070312 3.039062 L 203.367188 2.949219 L 202.859375 2.785156 L 206.714844 -7.660156 L 196.875 -10.039062 L 200.019531 -18.945312 L 202.402344 -26.199219 L 206.777344 -40.703125 L 212.761719 -59.085938 L 215.550781 -58.042969 L 219.578125 -56.949219 L 221.773438 -56.882812 L 222.550781 -57.617188 L 225.851562 -70.226562 L 235.925781 -67.382812 L 242.554688 -67.457031 L 254.894531 -64.734375 L 247.167969 -39 L 231.113281 -43.625 Z M 237.738281 -63.414062 "/>
<path style=" stroke:none;fill-rule:nonzero;fill:rgb(39.99939%,39.99939%,39.99939%);fill-opacity:0.3;" d="M 212.757812 -59.085938 L 206.777344 -40.703125 L 202.402344 -26.199219 L 200.019531 -18.945312 L 196.875 -10.039062 L 206.714844 -7.660156 L 202.859375 2.785156 L 187.550781 -1.445312 L 187.402344 -2.058594 L 187.335938 -2.535156 L 187.429688 -3.34375 L 187.929688 -4.75 L 188.515625 -5.644531 L 188.746094 -6.621094 L 192.542969 -21.628906 L 199.808594 -19.972656 L 199.835938 -20.40625 L 199.859375 -20.800781 L 192.832031 -22.679688 L 194.339844 -28.011719 L 201.824219 -25.886719 L 201.90625 -26.171875 L 201.976562 -26.40625 L 194.511719 -28.621094 L 195.902344 -33.542969 L 203.722656 -31.582031 L 203.820312 -32.011719 L 203.921875 -32.445312 L 196.140625 -34.390625 L 197.511719 -39.253906 L 204.179688 -37.839844 L 204.261719 -38.234375 L 204.347656 -38.632812 L 197.761719 -40.136719 L 199.257812 -45.449219 L 204.964844 -43.796875 L 205.113281 -44.226562 L 205.265625 -44.65625 L 199.472656 -46.207031 L 201 -51.636719 L 208.964844 -49.730469 L 209.207031 -50.503906 L 201.179688 -52.515625 L 203.621094 -62.125 Z M 212.757812 -59.085938 "/>
<g clip-path="url(#clip1)" clip-rule="nonzero">
<path style=" stroke:none;fill-rule:nonzero;fill:rgb(39.99939%,39.99939%,39.99939%);fill-opacity:0.3;" d="M 231.203125 137.746094 L 213.566406 131.8125 L 197.316406 126.285156 L 181.519531 120.9375 L 177.484375 119.617188 L 179.476562 115.695312 L 182.371094 110.519531 L 185.863281 100.417969 L 203.902344 38.695312 L 302.984375 70.761719 L 357.386719 88.628906 L 358.683594 89.09375 L 388.953125 98.984375 L 443 115.367188 L 471.71875 123.222656 L 474.488281 124.660156 L 476.78125 126.460938 L 479.292969 128.753906 L 497.199219 143.777344 L 516.910156 160.039062 L 512.957031 163.925781 L 489.152344 158.78125 L 484.457031 153.441406 L 479.503906 148.847656 L 477.863281 148.628906 L 404.71875 127.394531 L 403.191406 126.890625 L 403.105469 127.136719 L 401.019531 128.027344 L 397.394531 141.628906 L 393.328125 154.972656 L 393.085938 155.609375 L 392.882812 155.851562 L 392.398438 156.269531 L 391.832031 156.582031 L 391.203125 156.78125 L 390.539062 156.851562 L 390.039062 156.824219 L 380.695312 154.671875 L 373.851562 177.410156 L 372.9375 179.972656 L 371.382812 193.757812 L 367.582031 194.078125 L 312.261719 199.417969 L 299.527344 199.601562 L 303.75 182.6875 L 308.523438 163.996094 L 247.25 143.191406 Z M 231.203125 137.746094 "/>
</g>
<g clip-path="url(#clip2)" clip-rule="nonzero">
<path style=" stroke:none;fill-rule:nonzero;fill:rgb(39.99939%,39.99939%,39.99939%);fill-opacity:0.3;" d="M 213.550781 132.003906 L 308.214844 164.164062 L 303.480469 182.554688 L 298.871094 199.976562 L 312.25 199.527344 L 371.363281 193.867188 L 363.160156 247.109375 L 331.585938 253.628906 L 323.65625 255.117188 L 316.644531 254.847656 L 310.605469 254.511719 L 285.355469 246.800781 L 270.4375 241.820312 L 253.902344 237.042969 L 241.203125 233.738281 L 238.441406 232.882812 L 210.214844 225.011719 L 175.074219 215.410156 L 154.144531 209.265625 L 146.847656 207.152344 L 142.367188 205.277344 L 134.851562 201.667969 L 131.871094 200.046875 L 127.425781 197.433594 L 124.992188 195.875 L 115.484375 187.953125 L 103.546875 176.4375 L 103.644531 175.699219 L 103.703125 175.285156 L 103.738281 174.867188 L 103.753906 174.449219 L 103.753906 174.308594 L 103.734375 173.890625 L 103.695312 173.472656 L 103.632812 173.058594 L 103.550781 172.652344 L 103.441406 172.246094 L 103.3125 171.847656 L 103.164062 171.457031 L 102.992188 171.070312 L 102.800781 170.699219 L 102.589844 170.335938 L 102.355469 169.980469 L 102.105469 169.640625 L 101.6875 169.234375 L 105.769531 162.6875 L 115.28125 147.425781 L 119.175781 141.496094 L 123.128906 134.953125 L 129.546875 125.023438 L 131.21875 123.0625 L 133.382812 122 L 134.003906 121.730469 L 134.640625 121.492188 L 135.285156 121.285156 L 135.941406 121.113281 L 136.601562 120.972656 L 137.273438 120.867188 L 137.945312 120.796875 L 138.621094 120.757812 L 139.296875 120.753906 L 139.96875 120.785156 L 140.640625 120.851562 L 141.304688 120.949219 L 163.753906 130.292969 L 164.339844 130.367188 L 164.925781 130.410156 L 165.515625 130.425781 L 166.101562 130.410156 L 166.6875 130.367188 L 167.269531 130.296875 L 167.84375 130.199219 L 168.414062 130.070312 L 168.972656 129.917969 L 169.523438 129.734375 L 170.0625 129.527344 L 170.589844 129.292969 L 171.101562 129.03125 L 171.597656 128.746094 L 172.078125 128.433594 L 172.539062 128.101562 L 172.976562 127.746094 L 173.398438 127.371094 L 173.796875 126.976562 L 174.230469 126.492188 L 177.476562 119.644531 L 181.503906 120.953125 Z M 213.550781 132.003906 "/>
</g>
<g clip-path="url(#clip3)" clip-rule="nonzero">
<path style=" stroke:none;fill-rule:nonzero;fill:rgb(39.99939%,39.99939%,39.99939%);fill-opacity:0.3;" d="M 369.152344 -19.082031 L 384.839844 -14.445312 L 428.613281 -1.523438 L 432.394531 -0.480469 L 437.539062 1.039062 L 461.808594 7.675781 L 480.136719 11.722656 L 485.308594 12.863281 L 503.289062 17.007812 L 515.351562 20.429688 L 519.570312 22.398438 L 517.925781 65.011719 L 517.039062 107.207031 L 516.480469 112.929688 L 515.035156 116.878906 L 512.933594 120.644531 L 509.667969 124.039062 L 504.753906 127.53125 L 500.261719 128.929688 L 495.398438 129.332031 L 490.476562 129.128906 L 485.238281 127.132812 L 480.613281 123.882812 L 477.007812 121.652344 L 460.773438 116.65625 L 443.492188 112.753906 L 430.242188 109.125 L 413.230469 103.066406 L 392.257812 96.082031 L 326.742188 75.523438 L 301.164062 67.28125 L 262.28125 54.839844 L 249.609375 50.671875 L 204.761719 36.621094 L 213.894531 6.082031 L 214.8125 4.671875 L 244.796875 -11.78125 L 246.851562 -12.910156 L 274.664062 -22.03125 L 293.488281 -27.203125 L 306.949219 -30.636719 L 312.25 -31.757812 L 317.296875 -32.496094 L 321.835938 -32.679688 L 328.511719 -31.714844 L 354.164062 -23.945312 Z M 369.152344 -19.082031 "/>
</g>
<g clip-path="url(#clip4)" clip-rule="nonzero">
<path style=" stroke:none;fill-rule:nonzero;fill:rgb(39.99939%,39.99939%,39.99939%);fill-opacity:0.3;" d="M 388.6875 358.164062 L 385.089844 374.039062 L 382.152344 373.28125 L 378.550781 371.96875 L 373.292969 369.972656 L 369.0625 368.773438 L 360.375 367.128906 L 359.535156 365.8125 L 357.855469 365.523438 L 357.171875 365.992188 L 355.375 366.371094 L 346.304688 364.410156 L 358.007812 356.855469 L 363.113281 357.117188 L 366.363281 354.46875 L 367.242188 352.5625 L 375.125 355.109375 L 375.382812 354.230469 Z M 388.6875 358.164062 "/>
</g>
<g clip-path="url(#clip5)" clip-rule="nonzero">
<path style=" stroke:none;fill-rule:nonzero;fill:rgb(39.99939%,39.99939%,39.99939%);fill-opacity:0.3;" d="M 360.914062 348.566406 L 361.550781 348.628906 L 362.160156 348.816406 L 362.714844 349.125 L 363.191406 349.53125 L 363.566406 350.027344 L 363.828125 350.585938 L 363.972656 351.335938 L 363.90625 352.09375 L 363.707031 352.675781 L 363.386719 353.207031 L 362.953125 353.660156 L 362.433594 354.019531 L 361.847656 354.265625 L 361.222656 354.394531 L 360.578125 354.394531 L 359.953125 354.265625 L 359.367188 354.019531 L 358.851562 353.660156 L 358.421875 353.203125 L 358.101562 352.675781 L 357.90625 352.09375 L 357.839844 351.488281 L 357.910156 350.878906 L 358.109375 350.296875 L 358.429688 349.769531 L 358.859375 349.316406 L 359.378906 348.957031 L 359.964844 348.707031 L 360.59375 348.582031 Z M 360.914062 348.566406 "/>
</g>
<path style=" stroke:none;fill-rule:nonzero;fill:rgb(39.99939%,39.99939%,39.99939%);fill-opacity:0.3;" d="M 355.550781 352.867188 L 355.558594 352.902344 L 354.46875 353.625 Z M 355.550781 352.867188 "/>
<path style=" stroke:none;fill-rule:nonzero;fill:rgb(39.99939%,39.99939%,39.99939%);fill-opacity:0.3;" d="M 11.925781 338.8125 L 23.019531 347.410156 L 22.4375 348.222656 L 10.773438 350.25 L -1.875 352.433594 L -5.714844 351.167969 L 3.128906 347.457031 L 6.058594 345.199219 L 6.234375 343.683594 Z M 11.925781 338.8125 "/>
<g clip-path="url(#clip6)" clip-rule="nonzero">
<path style=" stroke:none;fill-rule:nonzero;fill:rgb(39.99939%,39.99939%,39.99939%);fill-opacity:0.3;" d="M 28.023438 380.222656 L 25.179688 397.652344 L 24.488281 404.050781 L 25.980469 407.753906 L 22.25 412.875 L 18.753906 413.933594 L 15.34375 408.589844 L 7.15625 392 L -11.339844 354.578125 L -11.140625 352.976562 L -7.378906 351.621094 L -1.921875 353.554688 L 11.015625 351.144531 L 24.984375 348.785156 L 35.503906 357.304688 L 29.425781 375.199219 Z M 28.023438 380.222656 "/>
</g>
<g clip-path="url(#clip7)" clip-rule="nonzero">
<path style=" stroke:none;fill-rule:nonzero;fill:rgb(39.99939%,39.99939%,39.99939%);fill-opacity:0.3;" d="M 362.722656 297.554688 L 372.484375 300.585938 L 366.433594 318.648438 L 356.257812 316.371094 L 357.804688 310.847656 L 357.875 310.648438 L 359.191406 306.804688 Z M 362.722656 297.554688 "/>
</g>
<g clip-path="url(#clip8)" clip-rule="nonzero">
<path style=" stroke:none;fill-rule:nonzero;fill:rgb(39.99939%,39.99939%,39.99939%);fill-opacity:0.3;" d="M 256.945312 359.25 L 265.582031 361.609375 L 261.816406 387.816406 L 253.519531 385.421875 Z M 256.945312 359.25 "/>
</g>
<g clip-path="url(#clip9)" clip-rule="nonzero">
<path style=" stroke:none;fill-rule:nonzero;fill:rgb(39.99939%,39.99939%,39.99939%);fill-opacity:0.3;" d="M 244.414062 355.707031 L 249.441406 357.230469 L 246.191406 383.152344 L 240.753906 381.621094 Z M 244.414062 355.707031 "/>
</g>
<g clip-path="url(#clip10)" clip-rule="nonzero">
<path style=" stroke:none;fill-rule:nonzero;fill:rgb(39.99939%,39.99939%,39.99939%);fill-opacity:0.3;" d="M 227.992188 350.882812 L 235.144531 353.117188 L 231.921875 378.898438 L 224.902344 376.769531 Z M 227.992188 350.882812 "/>
</g>
<g clip-path="url(#clip11)" clip-rule="nonzero">
<path style=" stroke:none;fill-rule:nonzero;fill:rgb(39.99939%,39.99939%,39.99939%);fill-opacity:0.3;" d="M 250.492188 357.5 L 255.769531 358.894531 L 252.4375 385.070312 L 247.148438 383.492188 Z M 250.492188 357.5 "/>
</g>
<g clip-path="url(#clip12)" clip-rule="nonzero">
<path style=" stroke:none;fill-rule:nonzero;fill:rgb(39.99939%,39.99939%,39.99939%);fill-opacity:0.3;" d="M 220.542969 348.75 L 226.992188 350.546875 L 223.960938 376.460938 L 216.863281 374.332031 Z M 220.542969 348.75 "/>
</g>
<g clip-path="url(#clip13)" clip-rule="nonzero">
<path style=" stroke:none;fill-rule:nonzero;fill:rgb(39.99939%,39.99939%,39.99939%);fill-opacity:0.3;" d="M 219.597656 348.707031 L 216.132812 374.09375 L 209.269531 372.082031 L 211.699219 351.519531 Z M 219.597656 348.707031 "/>
</g>
<path style=" stroke:none;fill-rule:nonzero;fill:rgb(39.99939%,39.99939%,39.99939%);fill-opacity:0.3;" d="M 246.949219 338.023438 L 246.867188 338.550781 L 245.257812 339.082031 Z M 246.949219 338.023438 "/>
<g clip-path="url(#clip14)" clip-rule="nonzero">
<path style=" stroke:none;fill-rule:nonzero;fill:rgb(39.99939%,39.99939%,39.99939%);fill-opacity:0.3;" d="M 300.800781 351.347656 L 314.601562 355.460938 L 338.53125 362.597656 L 339.027344 363.914062 L 320.851562 376.234375 L 318.835938 375.644531 L 312.652344 373.847656 L 307.589844 372.375 L 295.335938 368.808594 L 297.757812 350.585938 Z M 300.800781 351.347656 "/>
</g>
<g clip-path="url(#clip15)" clip-rule="nonzero">
<path style=" stroke:none;fill-rule:nonzero;fill:rgb(39.99939%,39.99939%,39.99939%);fill-opacity:0.3;" d="M 189.707031 355.496094 L 194.925781 355.765625 L 198.800781 355.460938 L 210.894531 351.75 L 208.558594 371.9375 L 187.078125 365.507812 Z M 189.707031 355.496094 "/>
</g>
<g clip-path="url(#clip16)" clip-rule="nonzero">
<path style=" stroke:none;fill-rule:nonzero;fill:rgb(39.99939%,39.99939%,39.99939%);fill-opacity:0.3;" d="M 179.386719 354.652344 L 189.121094 355.425781 L 186.5625 365.371094 L 181.570312 363.980469 L 179.875 363.453125 L 176.875 362.28125 Z M 179.386719 354.652344 "/>
</g>
<path style=" stroke:none;fill-rule:nonzero;fill:rgb(39.99939%,39.99939%,39.99939%);fill-opacity:0.3;" d="M 295.535156 348.789062 L 295.5 348.796875 L 294.476562 348.5 Z M 295.535156 348.789062 "/>
<g clip-path="url(#clip17)" clip-rule="nonzero">
<path style=" stroke:none;fill-rule:nonzero;fill:rgb(39.99939%,39.99939%,39.99939%);fill-opacity:0.3;" d="M 285.320312 346.523438 L 296.367188 350.015625 L 293.9375 368.515625 L 279.476562 363.984375 Z M 285.320312 346.523438 "/>
</g>
<g clip-path="url(#clip18)" clip-rule="nonzero">
<path style=" stroke:none;fill-rule:nonzero;fill:rgb(39.99939%,39.99939%,39.99939%);fill-opacity:0.3;" d="M 271.195312 342.007812 L 284.761719 346.359375 L 278.710938 363.855469 L 269.828125 361.179688 L 272.148438 348.707031 L 270.488281 347.867188 Z M 271.195312 342.007812 "/>
</g>
<g clip-path="url(#clip19)" clip-rule="nonzero">
<path style=" stroke:none;fill-rule:nonzero;fill:rgb(39.99939%,39.99939%,39.99939%);fill-opacity:0.3;" d="M 258.644531 346.734375 L 263.351562 347.511719 L 264.558594 344.65625 L 265.085938 341.003906 L 266.136719 340.730469 L 267.628906 341.058594 L 270.585938 341.871094 L 268.257812 359.914062 L 266.042969 360.261719 L 257.113281 357.828125 Z M 258.644531 346.734375 "/>
</g>
<path style=" stroke:none;fill-rule:nonzero;fill:rgb(39.99939%,39.99939%,39.99939%);fill-opacity:0.3;" d="M 259.609375 340.269531 L 262.820312 340.328125 L 264.644531 340.921875 L 264.0625 344.578125 L 263.097656 346.996094 L 258.675781 346.289062 Z M 259.609375 340.269531 "/>
<g clip-path="url(#clip20)" clip-rule="nonzero">
<path style=" stroke:none;fill-rule:nonzero;fill:rgb(39.99939%,39.99939%,39.99939%);fill-opacity:0.3;" d="M 236.132812 353.40625 L 243.167969 355.425781 L 239.480469 381.171875 L 232.707031 379.132812 Z M 236.132812 353.40625 "/>
</g>
<path style=" stroke:none;fill-rule:nonzero;fill:rgb(39.99939%,39.99939%,39.99939%);fill-opacity:0.3;" d="M 178.371094 353.175781 L 177.644531 355.191406 L 176.683594 357.496094 L 177.957031 353.085938 Z M 178.371094 353.175781 "/>
<path style=" stroke:none;fill-rule:nonzero;fill:rgb(39.99939%,39.99939%,39.99939%);fill-opacity:0.3;" d="M 221.691406 346.832031 L 221.691406 346.851562 L 211.011719 350.722656 L 206.621094 352.066406 L 210.789062 350.589844 L 219.238281 347.707031 Z M 221.691406 346.832031 "/>
<path style=" stroke:none;fill-rule:nonzero;fill:rgb(39.99939%,39.99939%,39.99939%);fill-opacity:0.3;" d="M 182.355469 354.027344 L 179.492188 353.808594 L 179.609375 353.441406 Z M 182.355469 354.027344 "/>
<path style=" stroke:none;fill-rule:nonzero;fill:rgb(39.99939%,39.99939%,39.99939%);fill-opacity:0.3;" d="M 258.519531 340.015625 L 255.953125 357.5625 L 244.582031 354.203125 L 245.378906 345.679688 L 244.890625 345.664062 L 244.40625 345.648438 L 244.136719 347.914062 L 241.671875 347.144531 L 241.636719 347.625 L 241.601562 348.101562 L 243.847656 348.894531 L 243.398438 353.894531 L 225.816406 348.515625 L 225.574219 348.308594 L 225.390625 348.042969 L 225.300781 347.804688 L 225.261719 347.550781 L 225.285156 347.296875 L 225.359375 347.054688 L 225.484375 346.828125 L 225.707031 346.589844 L 225.988281 346.417969 L 226.238281 346.332031 L 226.589844 346.191406 L 250.25 338.410156 Z M 258.519531 340.015625 "/>
<g clip-path="url(#clip21)" clip-rule="nonzero">
<path style=" stroke:none;fill-rule:nonzero;fill:rgb(39.99939%,39.99939%,39.99939%);fill-opacity:0.3;" d="M 255.570312 419.8125 L 253.441406 420.324219 L 250.910156 421.664062 L 249.960938 422.652344 L 248.972656 424.167969 L 248.609375 424.988281 L 248.242188 426.28125 L 248.089844 427.617188 L 248.15625 428.957031 L 249.058594 430.941406 L 248.992188 431.75 L 226.902344 449.621094 L 222.226562 447.402344 L 209.90625 441.550781 L 195.996094 434.945312 L 181.109375 427.90625 L 165.726562 420.265625 L 156.914062 415.796875 L 149.027344 411.433594 L 142.796875 407.644531 L 139.324219 406.792969 L 134.957031 406.601562 L 132.921875 406.964844 L 130.4375 407.625 L 128.046875 408.757812 L 115.929688 406.292969 L 112.554688 405.34375 L 109.472656 403.828125 L 100.523438 397.023438 L 94.953125 392.902344 L 101.460938 379.5 L 102.179688 367.570312 L 103.40625 345.910156 L 112.933594 349.347656 L 127.886719 354.410156 L 134.238281 356.355469 L 140.546875 357.328125 L 151.539062 360.101562 L 159.691406 362.078125 L 163.105469 362.78125 L 166.800781 363.320312 L 169.671875 362.953125 L 175.074219 363.972656 L 180.625 365.324219 L 185.8125 366.917969 L 200.015625 371.210938 L 229.40625 380.097656 L 242.089844 383.933594 L 249.453125 385.917969 L 252.976562 405.402344 Z M 255.570312 419.8125 "/>
</g>
<path style=" stroke:none;fill-rule:nonzero;fill:rgb(39.99939%,39.99939%,39.99939%);fill-opacity:0.3;" d="M 128.042969 353.519531 L 113.371094 348.695312 L 96.335938 342.328125 L 99.804688 343.484375 L 105.375 345.40625 L 120.160156 350.78125 L 129.183594 353.46875 L 140.214844 356.042969 L 139.605469 356.351562 L 134.246094 355.273438 Z M 128.042969 353.519531 "/>
<path style=" stroke:none;fill-rule:nonzero;fill:rgb(39.99939%,39.99939%,39.99939%);fill-opacity:0.3;" d="M 96.050781 342.234375 L 79.8125 340.933594 L 66.832031 341.238281 L 32.609375 345.710938 L 32.589844 345.695312 L 38.359375 344.253906 L 54.296875 342.140625 L 64.28125 340.796875 L 69.851562 340.410156 L 74.84375 340.605469 L 88.285156 341.179688 L 92.125 341.5625 L 95.773438 342.140625 Z M 96.050781 342.234375 "/>
<g clip-path="url(#clip22)" clip-rule="nonzero">
<path style=" stroke:none;fill-rule:nonzero;fill:rgb(39.99939%,39.99939%,39.99939%);fill-opacity:0.3;" d="M 103.394531 345.910156 L 102.058594 367.570312 L 101.371094 379.476562 L 94.929688 392.882812 L 75.839844 378.652344 L 33.613281 346.605469 L 66.84375 342.273438 L 79.230469 341.964844 L 95.292969 343.195312 Z M 103.394531 345.910156 "/>
</g>
<g clip-path="url(#clip23)" clip-rule="nonzero">
<path style=" stroke:none;fill-rule:nonzero;fill:rgb(39.99939%,39.99939%,39.99939%);fill-opacity:0.3;" d="M 171.683594 361.453125 L 171.316406 361.574219 L 169.671875 361.949219 L 166.648438 362.234375 L 163.429688 362.003906 L 159.757812 361.300781 L 151.695312 358.988281 L 143.035156 356.6875 L 153.378906 359.039062 L 160.675781 361.148438 L 163.363281 361.726562 L 166.242188 361.726562 L 170.660156 361.535156 Z M 171.683594 361.453125 "/>
</g>
<path style=" stroke:none;fill-rule:nonzero;fill:rgb(39.99939%,39.99939%,39.99939%);fill-opacity:0.3;" d="M 241.203125 233.738281 L 239.125 233.195312 L 222.171875 228.480469 L 205.035156 224.101562 L 189.140625 219.429688 L 172.292969 214.640625 L 156.882812 210.265625 L 152.796875 209.03125 L 145.75 206.902344 L 142.367188 205.277344 L 146.847656 207.152344 L 154.144531 209.265625 L 175.074219 215.410156 L 210.214844 225.011719 L 238.441406 232.882812 Z M 241.203125 233.738281 "/>
<path style=" stroke:none;fill-rule:nonzero;fill:rgb(39.99939%,39.99939%,39.99939%);fill-opacity:0.3;" d="M 134.851562 201.667969 L 131.589844 200.097656 L 127.425781 197.433594 L 131.871094 200.046875 Z M 134.851562 201.667969 "/>
<path style=" stroke:none;fill-rule:nonzero;fill:rgb(39.99939%,39.99939%,39.99939%);fill-opacity:0.3;" d="M 224.847656 277.558594 L 232.503906 280.023438 L 232.601562 280.238281 L 229.800781 281.078125 L 223.515625 282.566406 L 223.617188 279.925781 Z M 224.847656 277.558594 "/>
<path style=" stroke:none;fill-rule:nonzero;fill:rgb(39.99939%,39.99939%,39.99939%);fill-opacity:0.3;" d="M 68.8125 251.089844 L 99.515625 260.910156 L 96.832031 269.703125 L 65.460938 259.652344 Z M 68.8125 251.089844 "/>
<path style=" stroke:none;fill-rule:nonzero;fill:rgb(39.99939%,39.99939%,39.99939%);fill-opacity:0.3;" d="M 64.339844 261.703125 L 73.238281 264.746094 L 64.378906 285.914062 L 53.625 283.414062 Z M 64.339844 261.703125 "/>
<path style=" stroke:none;fill-rule:nonzero;fill:rgb(39.99939%,39.99939%,39.99939%);fill-opacity:0.3;" d="M 74.136719 266.027344 L 82.027344 268.078125 L 74.449219 287.726562 L 66.601562 285.175781 Z M 74.136719 266.027344 "/>
<path style=" stroke:none;fill-rule:nonzero;fill:rgb(39.99939%,39.99939%,39.99939%);fill-opacity:0.3;" d="M 83.746094 269.816406 L 88.652344 271.324219 L 82.390625 290.253906 L 77.355469 288.515625 Z M 83.746094 269.816406 "/>
<path style=" stroke:none;fill-rule:nonzero;fill:rgb(39.99939%,39.99939%,39.99939%);fill-opacity:0.3;" d="M 109.214844 265.214844 L 117.183594 267.570312 L 114.820312 275.519531 L 106.796875 272.996094 Z M 109.214844 265.214844 "/>
<path style=" stroke:none;fill-rule:nonzero;fill:rgb(39.99939%,39.99939%,39.99939%);fill-opacity:0.3;" d="M 101.335938 261.136719 L 107.679688 263.011719 L 103.375 276.4375 L 97.035156 274.5625 Z M 101.335938 261.136719 "/>
<path style=" stroke:none;fill-rule:nonzero;fill:rgb(39.99939%,39.99939%,39.99939%);fill-opacity:0.3;" d="M 90.238281 276.746094 L 99.363281 279.308594 L 94.480469 294.199219 L 85.683594 291.308594 Z M 90.238281 276.746094 "/>
<path style=" stroke:none;fill-rule:nonzero;fill:rgb(39.99939%,39.99939%,39.99939%);fill-opacity:0.3;" d="M 103.96875 281.019531 L 111.871094 283.296875 L 106.824219 298.769531 L 98.761719 296.261719 Z M 103.96875 281.019531 "/>
<path style=" stroke:none;fill-rule:nonzero;fill:rgb(39.99939%,39.99939%,39.99939%);fill-opacity:0.3;" d="M 116.246094 279.574219 L 125.371094 282.136719 L 117.753906 301.117188 L 109.707031 298.394531 L 110.925781 294.742188 L 115.695312 296.179688 L 118.632812 288.113281 L 114.289062 286.496094 Z M 116.246094 279.574219 "/>
<path style=" stroke:none;fill-rule:nonzero;fill:rgb(39.99939%,39.99939%,39.99939%);fill-opacity:0.3;" d="M 120.761719 267.941406 L 138.089844 272.914062 L 136.871094 277.976562 L 127.46875 275.40625 L 126.496094 279.597656 L 117.835938 277.558594 Z M 120.761719 267.941406 "/>
<path style=" stroke:none;fill-rule:nonzero;fill:rgb(39.99939%,39.99939%,39.99939%);fill-opacity:0.3;" d="M 271.050781 244.359375 L 267.898438 269.476562 L 255.019531 273.722656 L 257.183594 265.058594 L 261.519531 252.089844 L 264.898438 242.585938 Z M 271.050781 244.359375 "/>
<path style=" stroke:none;fill-rule:nonzero;fill:rgb(39.99939%,39.99939%,39.99939%);fill-opacity:0.3;" d="M 272.070312 244.597656 L 283.699219 248.292969 L 281.414062 265.449219 L 268.945312 269.175781 Z M 272.070312 244.597656 "/>
<path style=" stroke:none;fill-rule:nonzero;fill:rgb(39.99939%,39.99939%,39.99939%);fill-opacity:0.3;" d="M 142.679688 266.703125 L 161.417969 271.421875 L 159.546875 278.796875 L 142.460938 274.144531 L 142.34375 270.414062 Z M 142.679688 266.703125 "/>
<path style=" stroke:none;fill-rule:nonzero;fill:rgb(39.99939%,39.99939%,39.99939%);fill-opacity:0.3;" d="M 143.734375 258.328125 L 163.339844 263.714844 L 161.597656 270.566406 L 142.726562 266.050781 Z M 143.734375 258.328125 "/>
<path style=" stroke:none;fill-rule:nonzero;fill:rgb(39.99939%,39.99939%,39.99939%);fill-opacity:0.3;" d="M 145.6875 249.921875 L 165.109375 253.914062 L 163.453125 262.984375 L 143.953125 257.566406 Z M 145.6875 249.921875 "/>
<path style=" stroke:none;fill-rule:nonzero;fill:rgb(39.99939%,39.99939%,39.99939%);fill-opacity:0.3;" d="M 166.921875 246.984375 L 165.230469 253.285156 L 145.828125 249.203125 L 145.980469 247.019531 L 143.6875 243.734375 L 146.945312 243.601562 L 153.933594 244.292969 L 161.570312 245.882812 Z M 166.921875 246.984375 "/>
<path style=" stroke:none;fill-rule:nonzero;fill:rgb(39.99939%,39.99939%,39.99939%);fill-opacity:0.3;" d="M 191.09375 240.890625 L 189.960938 240.5625 L 189.808594 241.074219 L 190.917969 241.402344 L 190.605469 242.785156 L 187.257812 241.738281 L 187.699219 240.378906 L 188.570312 240.628906 L 188.722656 240.210938 L 187.847656 239.917969 L 188.132812 238.949219 L 190.230469 239.589844 L 190.78125 237.953125 L 191.503906 238.117188 L 191.589844 237.59375 L 190.871094 237.40625 L 191.371094 235.976562 L 194.480469 236.882812 L 194.140625 238.15625 L 193.296875 237.867188 L 193.136719 238.378906 L 193.964844 238.632812 L 193.421875 240.113281 L 191.554688 239.523438 Z M 191.09375 240.890625 "/>
<path style=" stroke:none;fill-rule:nonzero;fill:rgb(39.99939%,39.99939%,39.99939%);fill-opacity:0.3;" d="M 185.09375 234.382812 L 189.175781 235.660156 L 188.648438 237.144531 L 187.761719 236.851562 L 187.65625 237.160156 L 188.570312 237.476562 L 188.097656 238.734375 L 183.976562 237.414062 L 184.472656 236.085938 L 185.46875 236.414062 L 185.605469 236.136719 L 184.582031 235.796875 Z M 185.09375 234.382812 "/>
<path style=" stroke:none;fill-rule:nonzero;fill:rgb(39.99939%,39.99939%,39.99939%);fill-opacity:0.3;" d="M 158.34375 288.421875 L 172.386719 291.460938 L 174.089844 297.050781 L 173.15625 297.402344 L 168.335938 298.847656 L 164.644531 299.933594 L 155.96875 302.3125 L 155.328125 301.382812 Z M 158.34375 288.421875 "/>
<path style=" stroke:none;fill-rule:nonzero;fill:rgb(39.99939%,39.99939%,39.99939%);fill-opacity:0.3;" d="M 160.324219 279.808594 L 169.675781 282.199219 L 171.457031 289.625 L 167.65625 289.792969 L 158.65625 287.644531 Z M 160.324219 279.808594 "/>
<path style=" stroke:none;fill-rule:nonzero;fill:rgb(39.99939%,39.99939%,39.99939%);fill-opacity:0.3;" d="M 162.484375 271.621094 L 176.765625 275.472656 L 177.285156 276.449219 L 176.058594 282.867188 L 160.554688 279.03125 Z M 162.484375 271.621094 "/>
<path style=" stroke:none;fill-rule:nonzero;fill:rgb(39.99939%,39.99939%,39.99939%);fill-opacity:0.3;" d="M 189.101562 253.613281 L 199.246094 256.339844 L 196.207031 267.960938 L 185.804688 265.96875 L 187.667969 258.46875 Z M 189.101562 253.613281 "/>
<path style=" stroke:none;fill-rule:nonzero;fill:rgb(39.99939%,39.99939%,39.99939%);fill-opacity:0.3;" d="M 170.15625 239.261719 L 180.21875 241.839844 L 196.808594 246.835938 L 202.109375 248.351562 L 199.480469 255.359375 L 189.050781 252.496094 L 168.464844 246.316406 Z M 170.15625 239.261719 "/>
<path style=" stroke:none;fill-rule:nonzero;fill:rgb(39.99939%,39.99939%,39.99939%);fill-opacity:0.3;" d="M 215.382812 260.769531 L 214.6875 263.558594 L 211.703125 262.929688 L 212.382812 260.128906 Z M 215.382812 260.769531 "/>
<path style=" stroke:none;fill-rule:nonzero;fill:rgb(39.99939%,39.99939%,39.99939%);fill-opacity:0.3;" d="M 214.652344 264.429688 L 213.1875 269.484375 L 210.128906 268.816406 L 211.558594 263.730469 Z M 214.652344 264.429688 "/>
<path style=" stroke:none;fill-rule:nonzero;fill:rgb(39.99939%,39.99939%,39.99939%);fill-opacity:0.3;" d="M 228.804688 263.738281 L 235.027344 265.597656 L 231.203125 278.132812 L 224.679688 276.078125 Z M 228.804688 263.738281 "/>
<path style=" stroke:none;fill-rule:nonzero;fill:rgb(39.99939%,39.99939%,39.99939%);fill-opacity:0.3;" d="M 252.039062 263.96875 L 251.410156 265.492188 L 247.957031 264.875 L 246.9375 267.039062 L 245.25 266.367188 L 246.75 262.652344 Z M 252.039062 263.96875 "/>
<path style=" stroke:none;fill-rule:nonzero;fill:rgb(39.99939%,39.99939%,39.99939%);fill-opacity:0.3;" d="M 254.113281 258.414062 L 253.3125 260.367188 L 248.949219 259.324219 L 248.53125 260.292969 L 253.054688 261.34375 L 252.164062 263.445312 L 246.949219 262.101562 L 248.792969 256.949219 Z M 254.113281 258.414062 "/>
<path style=" stroke:none;fill-rule:nonzero;fill:rgb(39.99939%,39.99939%,39.99939%);fill-opacity:0.3;" d="M 256.902344 250.09375 L 256.011719 252.429688 L 253.308594 251.738281 L 252.464844 254.15625 L 249.734375 253.421875 L 251.316406 248.503906 Z M 256.902344 250.09375 "/>
<path style=" stroke:none;fill-rule:nonzero;fill:rgb(39.99939%,39.99939%,39.99939%);fill-opacity:0.3;" d="M 259.273438 243.484375 L 258.367188 246.183594 L 254.492188 244.972656 L 254.378906 245.402344 L 258.234375 246.699219 L 257.222656 249.460938 L 251.5 247.816406 L 253.410156 241.710938 Z M 259.273438 243.484375 "/>
<path style=" stroke:none;fill-rule:nonzero;fill:rgb(39.99939%,39.99939%,39.99939%);fill-opacity:0.3;" d="M 284.898438 248.707031 L 308.5 256.121094 L 308.570312 256.695312 L 296.054688 261.195312 L 282.621094 265.222656 Z M 284.898438 248.707031 "/>
<path style=" stroke:none;fill-rule:nonzero;fill:rgb(39.99939%,39.99939%,39.99939%);fill-opacity:0.3;" d="M 254.105469 256.652344 L 254.8125 254.613281 L 254.273438 254.496094 L 253.769531 255.949219 L 248.824219 254.683594 L 253.539062 239.203125 L 263.941406 242.300781 L 260.539062 251.933594 L 256.191406 264.71875 L 253.933594 273.992188 L 243.300781 277.074219 L 244 269.34375 L 243.523438 269.28125 L 242.816406 277.15625 L 235.039062 279.519531 L 231.988281 278.46875 L 236.039062 265.171875 L 229.085938 263.023438 L 238.753906 234.882812 L 252.660156 238.882812 L 247.691406 254.855469 L 245.519531 261.832031 L 245.929688 262.058594 L 246.335938 262.285156 L 248.71875 255.308594 Z M 254.105469 256.652344 "/>
<path style=" stroke:none;fill-rule:nonzero;fill:rgb(39.99939%,39.99939%,39.99939%);fill-opacity:0.3;" d="M 198.171875 269.515625 L 206.363281 271.800781 L 213.792969 273.554688 L 219.925781 275.675781 L 219 278.621094 L 219.273438 278.71875 L 219.550781 278.816406 L 220.503906 275.894531 L 223.347656 276.941406 L 222.800781 279.78125 L 222.574219 282.789062 L 222.503906 282.808594 L 208.839844 287.054688 L 201.449219 289.214844 L 196.636719 290.621094 L 195.800781 290.105469 L 195.679688 284.363281 L 195.601562 275.484375 L 196.796875 269.65625 Z M 198.171875 269.515625 "/>
<path style=" stroke:none;fill-rule:nonzero;fill:rgb(39.99939%,39.99939%,39.99939%);fill-opacity:0.3;" d="M 218.164062 274.179688 L 221.207031 264.117188 L 220.261719 263.859375 L 217.351562 273.90625 L 213.929688 272.753906 L 208.855469 271.449219 L 207.234375 271.101562 L 210.398438 258.96875 L 209.914062 258.867188 L 209.433594 258.765625 L 206.269531 270.847656 L 197.375 268.242188 L 200.441406 255.832031 L 211.347656 227.695312 L 237.710938 234.726562 L 223.65625 275.996094 Z M 218.164062 274.179688 "/>
<path style=" stroke:none;fill-rule:nonzero;fill:rgb(39.99939%,39.99939%,39.99939%);fill-opacity:0.3;" d="M 142.433594 274.855469 L 159.359375 279.507812 L 157.441406 287.335938 L 151.984375 286.128906 L 151.84375 286.476562 L 151.707031 286.824219 L 157.28125 288.054688 L 153.699219 301.34375 L 152.613281 303.226562 L 150.316406 303.84375 L 147.386719 300.804688 L 144.46875 297.078125 L 142.148438 293.40625 L 141.867188 291.636719 L 142.332031 287.160156 L 143.140625 280.738281 Z M 142.433594 274.855469 "/>
<path style=" stroke:none;fill-rule:nonzero;fill:rgb(39.99939%,39.99939%,39.99939%);fill-opacity:0.3;" d="M 170.636719 282.34375 L 180.410156 284.789062 L 182.027344 285.023438 L 182.699219 284.308594 L 194.65625 284.386719 L 194.214844 291.292969 L 188.707031 292.898438 L 179.300781 295.097656 L 174.917969 296.742188 L 173.019531 291.015625 L 179.308594 290.398438 L 179.253906 289.8125 L 172.578125 290.289062 Z M 170.636719 282.34375 "/>
<path style=" stroke:none;fill-rule:nonzero;fill:rgb(39.99939%,39.99939%,39.99939%);fill-opacity:0.3;" d="M 164.472656 263.679688 L 172.75 264.792969 L 184.792969 266.808594 L 195.921875 268.90625 L 194.753906 275.578125 L 194.652344 283.898438 L 182.847656 283.871094 L 180.589844 284.085938 L 176.847656 283.066406 L 177.984375 276.457031 L 179.039062 275.792969 L 189.601562 277.75 L 189.644531 277.433594 L 189.683594 277.121094 L 179.234375 275.203125 L 178.828125 274.390625 L 179.179688 272.15625 L 178.800781 272.101562 L 178.417969 272.046875 L 177.882812 274.554688 L 175.554688 274.207031 L 162.667969 270.824219 Z M 164.472656 263.679688 "/>
<path style=" stroke:none;fill-rule:nonzero;fill:rgb(39.99939%,39.99939%,39.99939%);fill-opacity:0.3;" d="M 186.742188 257.878906 L 184.125 257.300781 L 184.0625 257.585938 L 183.996094 257.875 L 186.578125 258.472656 L 184.761719 265.769531 L 173.0625 263.929688 L 164.835938 262.746094 L 166.496094 254 L 172.679688 255.371094 L 172.972656 254.46875 L 173.265625 253.5625 L 166.9375 252.296875 L 168.203125 247.347656 L 188.199219 253.390625 Z M 186.742188 257.878906 "/>
<path style=" stroke:none;fill-rule:nonzero;fill:rgb(39.99939%,39.99939%,39.99939%);fill-opacity:0.3;" d="M 180.730469 240.675781 L 170.535156 238.0625 L 172.300781 231.214844 L 182.726562 233.515625 L 182.894531 233.09375 L 183.066406 232.671875 L 172.460938 230.460938 L 173.390625 224.582031 L 184.140625 226.910156 L 183.335938 229.839844 L 183.628906 229.902344 L 183.925781 229.96875 L 184.90625 226.015625 L 173.597656 223.625 L 174.988281 217.285156 L 210.355469 227.355469 L 202.582031 247.261719 L 196.957031 245.472656 Z M 180.730469 240.675781 "/>
<path style=" stroke:none;fill-rule:nonzero;fill:rgb(39.99939%,39.99939%,39.99939%);fill-opacity:0.3;" d="M 124.667969 197.984375 L 130.40625 201.667969 L 144.792969 208.675781 L 157.042969 212.210938 L 173.753906 217.097656 L 172.382812 223.441406 L 156.5 220.179688 L 156.316406 220.628906 L 156.136719 221.074219 L 172.167969 224.382812 L 171.105469 230.703125 L 155.230469 227.871094 L 155.144531 228.316406 L 155.0625 228.761719 L 170.894531 231.707031 L 169.164062 237.710938 L 164.019531 236.464844 L 163.703125 237.289062 L 150.25 234.089844 L 150.183594 234.460938 L 150.113281 234.832031 L 168.949219 239.023438 L 167.207031 246.011719 L 161.734375 244.886719 L 153.992188 243.285156 L 146.964844 242.640625 L 142.90625 242.765625 L 139.117188 242.519531 L 137.460938 241.929688 L 135.332031 240.46875 L 131.578125 236.09375 L 128.105469 231.171875 L 122.921875 221.378906 L 121.46875 218.785156 L 120.523438 216.4375 L 120.457031 214.199219 L 122.757812 207.3125 Z M 124.667969 197.984375 "/>
<path style=" stroke:none;fill-rule:nonzero;fill:rgb(39.99939%,39.99939%,39.99939%);fill-opacity:0.3;" d="M 101.753906 178.433594 L 113.539062 189.148438 L 123.316406 197.214844 L 121.554688 206.875 L 119.265625 214.113281 L 119.347656 216.648438 L 120.28125 219.195312 L 121.777344 221.804688 L 126.976562 231.675781 L 130.617188 236.734375 L 134.457031 241.0625 L 136.929688 242.878906 L 138.613281 243.429688 L 140.5625 243.71875 L 142.472656 244.976562 L 144.058594 246.808594 L 144.664062 248.1875 L 144.738281 249.894531 L 142.828125 257.589844 L 141.472656 265.894531 L 140.867188 270.359375 L 141.210938 274.53125 L 142.179688 280.820312 L 141.519531 287.109375 L 141.035156 291.613281 L 141.039062 293.34375 L 143.640625 297.429688 L 146.722656 301.257812 L 147.558594 302.847656 L 147.816406 304.566406 L 144.730469 305.59375 L 142.164062 306.171875 L 135.203125 307.773438 L 128.234375 308.570312 L 121.28125 307.859375 L 116.550781 307.175781 L 111.492188 305.957031 L 92.714844 299.53125 L 56.777344 287.574219 L 54.40625 286.917969 L 53.699219 286.980469 L 52.894531 286.984375 L 52.417969 286.886719 L 51.777344 286.628906 L 51.429688 285.972656 L 51.433594 285.054688 L 56.335938 273.828125 L 62.476562 261.300781 L 62.75 261.222656 L 62.890625 261.199219 L 63.027344 261.167969 L 63.160156 261.128906 L 63.292969 261.082031 L 63.421875 261.03125 L 63.550781 260.972656 L 63.671875 260.90625 L 63.792969 260.835938 L 63.910156 260.757812 L 64.019531 260.675781 L 64.230469 260.496094 L 64.417969 260.292969 L 64.503906 260.1875 L 64.585938 260.074219 L 64.660156 259.960938 L 64.726562 259.839844 L 64.789062 259.71875 L 64.890625 259.46875 L 64.929688 259.335938 L 64.964844 259.207031 L 64.988281 259.074219 L 65.007812 258.941406 L 65.019531 258.804688 L 65.023438 258.613281 L 65.019531 258.480469 L 65.003906 258.347656 L 64.984375 258.210938 L 64.957031 258.082031 L 64.921875 257.949219 L 64.882812 257.820312 L 64.832031 257.695312 L 64.777344 257.570312 L 64.714844 257.453125 L 64.644531 257.335938 L 64.570312 257.222656 L 68.296875 246.859375 L 79.984375 249.886719 L 80.011719 249.699219 L 80.042969 249.511719 L 68.378906 246.414062 L 71.371094 236.066406 L 73.757812 222.640625 L 75.308594 213.558594 L 76.546875 210.414062 L 78.242188 205.992188 L 79.09375 206.011719 L 80.460938 204.003906 L 81.753906 204.394531 L 83.355469 201.175781 L 91.542969 186.21875 L 94.269531 181.46875 L 96.871094 177.910156 L 97.15625 177.800781 L 97.398438 177.726562 L 97.640625 177.664062 L 97.882812 177.617188 L 98.132812 177.578125 L 98.382812 177.554688 L 98.632812 177.539062 L 98.882812 177.539062 L 99.132812 177.554688 L 99.382812 177.578125 L 99.628906 177.617188 L 99.875 177.667969 L 100.113281 177.730469 L 100.351562 177.804688 L 100.585938 177.890625 Z M 101.753906 178.433594 "/>
<path style=" stroke:none;fill-rule:nonzero;fill:rgb(39.99939%,39.99939%,39.99939%);fill-opacity:0.3;" d="M 96.335938 342.328125 L 96.089844 342.234375 L 96.050781 342.234375 L 95.773438 342.140625 L 92.125 341.5625 L 88.285156 341.179688 L 74.84375 340.605469 L 69.851562 340.410156 L 64.28125 340.796875 L 54.296875 342.140625 L 38.359375 344.253906 L 32.589844 345.695312 L 16.949219 332.746094 L 44.648438 298.933594 L 47.152344 293.523438 L 50.722656 288.609375 L 53.609375 288.484375 L 56.097656 289.0625 L 78.6875 296.582031 L 92.085938 300.914062 L 111.183594 307.160156 L 116.535156 308.320312 L 121.105469 308.972656 L 128.324219 309.597656 L 135.054688 309.035156 L 142.683594 307.359375 L 148.382812 306 L 151.214844 311.722656 L 150.488281 313.855469 L 148.855469 319.976562 L 146.464844 328.304688 L 144.71875 336.269531 L 140.792969 355.753906 L 140.214844 356.042969 L 129.183594 353.46875 L 120.160156 350.78125 L 105.375 345.40625 L 99.804688 343.484375 Z M 96.335938 342.328125 "/>
<path style=" stroke:none;fill-rule:nonzero;fill:rgb(39.99939%,39.99939%,39.99939%);fill-opacity:0.3;" d="M 204.488281 325.539062 L 217.640625 328.328125 L 232.289062 332.507812 L 247.050781 337.367188 L 246.949219 338.023438 L 245.257812 339.082031 L 222.3125 346.59375 L 222.941406 339.050781 L 202.183594 334.308594 Z M 204.488281 325.539062 "/>
<path style=" stroke:none;fill-rule:nonzero;fill:rgb(39.99939%,39.99939%,39.99939%);fill-opacity:0.3;" d="M 189.480469 321.984375 L 203.605469 325.445312 L 199.347656 340.566406 L 196.574219 340.605469 L 184.601562 337.796875 Z M 189.480469 321.984375 "/>
<g clip-path="url(#clip24)" clip-rule="nonzero">
<path style=" stroke:none;fill-rule:nonzero;fill:rgb(39.99939%,39.99939%,39.99939%);fill-opacity:0.3;" d="M 154.089844 312.582031 L 188.695312 321.742188 L 183.949219 337.613281 L 162.683594 332.34375 L 162.558594 332.667969 L 162.4375 332.992188 L 183.761719 338.171875 L 178.371094 353.175781 L 177.957031 353.085938 L 176.683594 357.496094 L 175.730469 359.769531 L 173.433594 360.882812 L 171.683594 361.453125 L 170.660156 361.535156 L 166.242188 361.726562 L 163.363281 361.726562 L 160.675781 361.148438 L 153.378906 359.039062 L 143.035156 356.6875 L 142.425781 356.523438 L 141.851562 354.859375 L 145.476562 336.320312 L 146.925781 336.195312 L 149.347656 326.191406 L 152.867188 326.96875 L 152.972656 326.566406 L 153.074219 326.164062 L 149.535156 325.363281 L 150.636719 321.921875 L 149.398438 321.621094 L 151.945312 312.628906 Z M 154.089844 312.582031 "/>
</g>
<path style=" stroke:none;fill-rule:nonzero;fill:rgb(39.99939%,39.99939%,39.99939%);fill-opacity:0.3;" d="M 184.398438 338.34375 L 196.210938 340.992188 L 195.195312 344.394531 L 195.601562 344.527344 L 196.652344 341.089844 L 200.304688 341.261719 L 201.996094 334.882812 L 222.328125 339.421875 L 221.691406 346.832031 L 219.238281 347.707031 L 210.789062 350.589844 L 206.621094 352.066406 L 198.265625 354.621094 L 194.890625 354.820312 L 189.632812 354.585938 L 182.355469 354.027344 L 179.609375 353.441406 Z M 184.398438 338.34375 "/>
<path style=" stroke:none;fill-rule:nonzero;fill:rgb(39.99939%,39.99939%,39.99939%);fill-opacity:0.3;" d="M 242.097656 334.359375 L 232.507812 331.492188 L 232.480469 331.484375 L 235.558594 332.347656 L 241.320312 334.074219 Z M 242.097656 334.359375 "/>
<path style=" stroke:none;fill-rule:nonzero;fill:rgb(39.99939%,39.99939%,39.99939%);fill-opacity:0.3;" d="M 147.816406 304.566406 L 147.863281 304.890625 L 144.730469 305.59375 Z M 147.816406 304.566406 "/>
<path style=" stroke:none;fill-rule:nonzero;fill:rgb(39.99939%,39.99939%,39.99939%);fill-opacity:0.3;" d="M 232.601562 280.238281 L 232.683594 280.414062 L 223.496094 283.042969 L 223.515625 282.566406 L 229.800781 281.078125 Z M 232.601562 280.238281 "/>
<g clip-path="url(#clip25)" clip-rule="nonzero">
<path style=" stroke:none;fill-rule:nonzero;fill:rgb(39.99939%,39.99939%,39.99939%);fill-opacity:0.3;" d="M 345.507812 280.367188 L 350.398438 252.179688 L 363.3125 250.101562 L 379.027344 246.914062 L 374.066406 261.777344 L 368.488281 277.375 L 360.523438 278.621094 L 351.6875 279.71875 Z M 345.507812 280.367188 "/>
</g>
<path style=" stroke:none;fill-rule:nonzero;fill:rgb(39.99939%,39.99939%,39.99939%);fill-opacity:0.3;" d="M 337.773438 254.929688 L 349.675781 252.285156 L 344.691406 280.351562 L 334.46875 280.082031 Z M 337.773438 254.929688 "/>
<path style=" stroke:none;fill-rule:nonzero;fill:rgb(39.99939%,39.99939%,39.99939%);fill-opacity:0.3;" d="M 324.503906 257.386719 L 336.769531 255.101562 L 333.570312 280.019531 L 321.230469 279.050781 Z M 324.503906 257.386719 "/>
<path style=" stroke:none;fill-rule:nonzero;fill:rgb(39.99939%,39.99939%,39.99939%);fill-opacity:0.3;" d="M 211.460938 301.304688 L 226.1875 305.421875 L 226.375 307.160156 L 210.796875 305.222656 Z M 211.460938 301.304688 "/>
<path style=" stroke:none;fill-rule:nonzero;fill:rgb(39.99939%,39.99939%,39.99939%);fill-opacity:0.3;" d="M 301.109375 317.484375 L 297.957031 339.820312 L 286.054688 336.414062 L 289.019531 316.117188 Z M 301.109375 317.484375 "/>
<path style=" stroke:none;fill-rule:nonzero;fill:rgb(39.99939%,39.99939%,39.99939%);fill-opacity:0.3;" d="M 275.617188 314.402344 L 287.921875 316.023438 L 286.269531 326.726562 L 275.113281 325.441406 Z M 275.617188 314.402344 "/>
<path style=" stroke:none;fill-rule:nonzero;fill:rgb(39.99939%,39.99939%,39.99939%);fill-opacity:0.3;" d="M 250.199219 311.578125 L 274.761719 314.324219 L 274.269531 325.179688 L 270.085938 324.203125 L 267.054688 322.945312 L 257.546875 319.582031 L 249.550781 316.941406 Z M 250.199219 311.578125 "/>
<path style=" stroke:none;fill-rule:nonzero;fill:rgb(39.99939%,39.99939%,39.99939%);fill-opacity:0.3;" d="M 297.777344 350.445312 L 300.800781 351.347656 L 297.757812 350.585938 Z M 297.777344 350.445312 "/>
<path style=" stroke:none;fill-rule:nonzero;fill:rgb(39.99939%,39.99939%,39.99939%);fill-opacity:0.3;" d="M 298.941406 340.785156 L 307.105469 342.648438 L 303.730469 351.292969 L 297.78125 349.46875 Z M 298.941406 340.785156 "/>
<path style=" stroke:none;fill-rule:nonzero;fill:rgb(39.99939%,39.99939%,39.99939%);fill-opacity:0.3;" d="M 302.082031 317.683594 L 314.078125 319.421875 L 312.8125 332.019531 L 311.46875 334.902344 L 309.605469 338.957031 L 308.09375 341.601562 L 307.351562 341.914062 L 299.019531 340.085938 Z M 302.082031 317.683594 "/>
<path style=" stroke:none;fill-rule:nonzero;fill:rgb(39.99939%,39.99939%,39.99939%);fill-opacity:0.3;" d="M 239.574219 290.515625 L 251.777344 291.976562 L 248.945312 310.394531 L 237.339844 308.730469 L 238.304688 299.328125 Z M 239.574219 290.515625 "/>
<path style=" stroke:none;fill-rule:nonzero;fill:rgb(39.99939%,39.99939%,39.99939%);fill-opacity:0.3;" d="M 253.78125 275.347656 L 251.875 290.90625 L 239.847656 289.515625 L 241.335938 278.90625 Z M 253.78125 275.347656 "/>
<path style=" stroke:none;fill-rule:nonzero;fill:rgb(39.99939%,39.99939%,39.99939%);fill-opacity:0.3;" d="M 278.601562 294.910156 L 290.546875 296.355469 L 287.992188 315.128906 L 275.699219 313.492188 Z M 278.601562 294.910156 "/>
<path style=" stroke:none;fill-rule:nonzero;fill:rgb(39.99939%,39.99939%,39.99939%);fill-opacity:0.3;" d="M 305.066406 298.371094 L 316.957031 299.929688 L 314.222656 318.566406 L 302.191406 316.796875 Z M 305.066406 298.371094 "/>
<path style=" stroke:none;fill-rule:nonzero;fill:rgb(39.99939%,39.99939%,39.99939%);fill-opacity:0.3;" d="M 291.746094 296.472656 L 303.851562 298.210938 L 301.238281 316.585938 L 289.15625 315.25 Z M 291.746094 296.472656 "/>
<path style=" stroke:none;fill-rule:nonzero;fill:rgb(39.99939%,39.99939%,39.99939%);fill-opacity:0.3;" d="M 307.710938 279.085938 L 319.929688 279.984375 L 317.09375 298.871094 L 305.210938 297.21875 Z M 307.710938 279.085938 "/>
<path style=" stroke:none;fill-rule:nonzero;fill:rgb(39.99939%,39.99939%,39.99939%);fill-opacity:0.3;" d="M 267.117188 276.546875 L 265.039062 292.078125 L 253.179688 291.109375 L 254.835938 275.488281 Z M 267.117188 276.546875 "/>
<path style=" stroke:none;fill-rule:nonzero;fill:rgb(39.99939%,39.99939%,39.99939%);fill-opacity:0.3;" d="M 268.160156 276.628906 L 280.058594 277.148438 L 277.488281 293.660156 L 266.140625 292.171875 Z M 268.160156 276.628906 "/>
<path style=" stroke:none;fill-rule:nonzero;fill:rgb(39.99939%,39.99939%,39.99939%);fill-opacity:0.3;" d="M 294.546875 277.894531 L 306.621094 278.976562 L 304.035156 297.082031 L 291.867188 295.414062 Z M 294.546875 277.894531 "/>
<path style=" stroke:none;fill-rule:nonzero;fill:rgb(39.99939%,39.99939%,39.99939%);fill-opacity:0.3;" d="M 296.746094 262.207031 L 309.59375 258.253906 L 306.746094 278.042969 L 294.355469 277.035156 L 295.082031 272.683594 L 296.46875 272.796875 L 296.582031 272.25 L 296.691406 271.746094 L 295.320312 271.570312 Z M 296.746094 262.207031 "/>
<path style=" stroke:none;fill-rule:nonzero;fill:rgb(39.99939%,39.99939%,39.99939%);fill-opacity:0.3;" d="M 282.578125 266.3125 L 295.816406 262.417969 L 293.582031 276.921875 L 281.320312 276.324219 Z M 282.578125 266.3125 "/>
<path style=" stroke:none;fill-rule:nonzero;fill:rgb(39.99939%,39.99939%,39.99939%);fill-opacity:0.3;" d="M 268.925781 270.464844 L 281.386719 266.617188 L 280.074219 276.3125 L 268.242188 275.726562 Z M 268.925781 270.464844 "/>
<path style=" stroke:none;fill-rule:nonzero;fill:rgb(39.99939%,39.99939%,39.99939%);fill-opacity:0.3;" d="M 255.730469 274.730469 L 267.898438 270.703125 L 267.15625 275.667969 Z M 255.730469 274.730469 "/>
<path style=" stroke:none;fill-rule:nonzero;fill:rgb(39.99939%,39.99939%,39.99939%);fill-opacity:0.3;" d="M 171.351562 299.277344 L 178.164062 297.441406 L 177.945312 300.863281 L 171.273438 299.761719 Z M 171.351562 299.277344 "/>
<path style=" stroke:none;fill-rule:nonzero;fill:rgb(39.99939%,39.99939%,39.99939%);fill-opacity:0.3;" d="M 150.828125 305.351562 L 167.890625 300.371094 L 177.738281 301.945312 L 173.324219 317.011719 L 154.398438 312.035156 L 152.660156 309.890625 Z M 150.828125 305.351562 "/>
<path style=" stroke:none;fill-rule:nonzero;fill:rgb(39.99939%,39.99939%,39.99939%);fill-opacity:0.3;" d="M 296.503906 348.535156 L 295.535156 348.789062 L 294.476562 348.5 L 285.242188 345.792969 L 271.054688 341.207031 L 267.609375 340.046875 L 270.492188 338.578125 L 274.578125 337.121094 L 277.910156 336.570312 L 281.390625 336.628906 L 285.398438 337.023438 L 297.757812 340.507812 Z M 296.503906 348.535156 "/>
<path style=" stroke:none;fill-rule:nonzero;fill:rgb(39.99939%,39.99939%,39.99939%);fill-opacity:0.3;" d="M 174.089844 297.050781 L 174.121094 297.144531 L 168.335938 298.847656 L 173.15625 297.402344 Z M 174.089844 297.050781 "/>
<path style=" stroke:none;fill-rule:nonzero;fill:rgb(39.99939%,39.99939%,39.99939%);fill-opacity:0.3;" d="M 164.644531 299.933594 L 156.066406 302.457031 L 155.96875 302.3125 Z M 164.644531 299.933594 "/>
<path style=" stroke:none;fill-rule:nonzero;fill:rgb(39.99939%,39.99939%,39.99939%);fill-opacity:0.3;" d="M 281.183594 277.230469 L 293.335938 277.859375 L 291.34375 290.546875 L 290.609375 295.238281 L 281.960938 294.160156 L 278.726562 293.753906 Z M 281.183594 277.230469 "/>
<path style=" stroke:none;fill-rule:nonzero;fill:rgb(39.99939%,39.99939%,39.99939%);fill-opacity:0.3;" d="M 304.875 351.667969 L 304.367188 351.511719 L 306.707031 345.449219 Z M 304.875 351.667969 "/>
<path style=" stroke:none;fill-rule:nonzero;fill:rgb(39.99939%,39.99939%,39.99939%);fill-opacity:0.3;" d="M 323.207031 257.285156 L 321.019531 271.363281 L 318.15625 270.851562 L 318.074219 271.492188 L 317.988281 272.136719 L 320.988281 272.648438 L 320.03125 278.925781 L 307.816406 278.148438 L 311.089844 256.8125 Z M 323.207031 257.285156 "/>
<path style=" stroke:none;fill-rule:nonzero;fill:rgb(39.99939%,39.99939%,39.99939%);fill-opacity:0.3;" d="M 178.472656 302.164062 L 196.441406 304.808594 L 195.945312 307.0625 L 196.191406 307.082031 L 196.441406 307.101562 L 196.957031 304.941406 L 209.304688 306.40625 L 207.058594 318.335938 L 208.175781 318.453125 L 207.285156 324.808594 L 197.574219 322.933594 L 189.671875 321.214844 L 173.980469 317.207031 Z M 178.472656 302.164062 "/>
<path style=" stroke:none;fill-rule:nonzero;fill:rgb(39.99939%,39.99939%,39.99939%);fill-opacity:0.3;" d="M 286.164062 327.238281 L 284.914062 336.164062 L 281.285156 335.742188 L 277.886719 335.605469 L 274.625 336.199219 L 270.144531 337.742188 L 266.375 339.675781 L 261.011719 339.09375 L 261.125 335.035156 L 260.910156 335.019531 L 260.699219 335.003906 L 260.5625 339.058594 L 251.433594 337.589844 L 247.136719 335.984375 L 247.746094 330.605469 L 249.652344 330.753906 L 249.757812 330.171875 L 249.863281 329.585938 L 247.765625 329.433594 L 249.5 317.511719 L 257.015625 319.960938 L 255.398438 323.203125 L 255.90625 323.304688 L 257.527344 320.1875 L 266.789062 323.441406 L 269.773438 324.722656 L 274.585938 325.925781 Z M 286.164062 327.238281 "/>
<path style=" stroke:none;fill-rule:nonzero;fill:rgb(39.99939%,39.99939%,39.99939%);fill-opacity:0.3;" d="M 277.371094 294.726562 L 274.878906 313.359375 L 265.425781 312.332031 L 265.757812 308.058594 L 265.398438 308.003906 L 265.035156 307.953125 L 264.582031 312.210938 L 250.363281 310.523438 L 253.125 292.207031 L 265.460938 293.316406 Z M 277.371094 294.726562 "/>
<path style=" stroke:none;fill-rule:nonzero;fill:rgb(39.99939%,39.99939%,39.99939%);fill-opacity:0.3;" d="M 210.640625 306.582031 L 235.914062 309.839844 L 235.761719 312.65625 L 236.132812 312.703125 L 236.5 312.75 L 236.660156 309.886719 L 248.816406 311.421875 L 246.4375 329.726562 L 246.011719 335.527344 L 242.097656 334.359375 L 241.320312 334.074219 L 235.558594 332.347656 L 232.480469 331.484375 L 217.875 327.328125 L 207.871094 325.03125 Z M 210.640625 306.582031 "/>
<path style=" stroke:none;fill-rule:nonzero;fill:rgb(39.99939%,39.99939%,39.99939%);fill-opacity:0.3;" d="M 178.941406 297.300781 L 195.980469 292.3125 L 223.441406 284.164062 L 238.1875 279.945312 L 239.558594 280.058594 L 236.726562 299.363281 L 227.933594 298.484375 L 220.167969 296.445312 L 220.109375 296.671875 L 220.046875 296.894531 L 227.84375 298.980469 L 236.753906 299.929688 L 236.0625 308.460938 L 227.226562 307.117188 L 227.101562 304.847656 L 211.585938 300.433594 L 212.421875 292.597656 L 211.8125 292.582031 L 211.199219 292.566406 L 210.101562 300.277344 L 209.417969 305.085938 L 197.09375 303.703125 L 178.710938 300.992188 Z M 178.941406 297.300781 "/>
<path style=" stroke:none;fill-rule:nonzero;fill:rgb(39.99939%,39.99939%,39.99939%);fill-opacity:0.3;" d="M 222.574219 282.789062 L 222.554688 283.042969 L 217.011719 284.664062 L 208.839844 287.054688 L 222.503906 282.808594 Z M 222.574219 282.789062 "/>
<path style=" stroke:none;fill-rule:nonzero;fill:rgb(39.99939%,39.99939%,39.99939%);fill-opacity:0.3;" d="M 152.613281 303.226562 L 152.429688 303.542969 L 150.5625 304.101562 L 150.316406 303.84375 Z M 152.613281 303.226562 "/>
<path style=" stroke:none;fill-rule:nonzero;fill:rgb(39.99939%,39.99939%,39.99939%);fill-opacity:0.3;" d="M 188.707031 292.898438 L 174.96875 296.898438 L 174.917969 296.742188 L 179.300781 295.097656 Z M 188.707031 292.898438 "/>
<path style=" stroke:none;fill-rule:nonzero;fill:rgb(39.99939%,39.99939%,39.99939%);fill-opacity:0.3;" d="M 309.605469 338.957031 L 308.457031 341.449219 L 308.09375 341.601562 Z M 309.605469 338.957031 "/>
<path style=" stroke:none;fill-rule:nonzero;fill:rgb(39.99939%,39.99939%,39.99939%);fill-opacity:0.3;" d="M 357.804688 310.847656 L 358.230469 309.328125 L 359.191406 306.804688 L 357.875 310.648438 Z M 357.804688 310.847656 "/>
<g clip-path="url(#clip26)" clip-rule="nonzero">
<path style=" stroke:none;fill-rule:nonzero;fill:rgb(39.99939%,39.99939%,39.99939%);fill-opacity:0.3;" d="M 360.65625 279.742188 L 367.921875 278.644531 L 362.09375 296.339844 L 355.261719 294.320312 Z M 360.65625 279.742188 "/>
</g>
<path style=" stroke:none;fill-rule:nonzero;fill:rgb(39.99939%,39.99939%,39.99939%);fill-opacity:0.3;" d="M 352.117188 280.714844 L 359.707031 279.84375 L 354.457031 294.058594 L 348.226562 292.121094 Z M 352.117188 280.714844 "/>
<g clip-path="url(#clip27)" clip-rule="nonzero">
<path style=" stroke:none;fill-rule:nonzero;fill:rgb(39.99939%,39.99939%,39.99939%);fill-opacity:0.3;" d="M 354.992188 295.226562 L 361.769531 297.1875 L 357.238281 309.0625 L 350.902344 307.382812 Z M 354.992188 295.226562 "/>
</g>
<path style=" stroke:none;fill-rule:nonzero;fill:rgb(39.99939%,39.99939%,39.99939%);fill-opacity:0.3;" d="M 347.9375 292.992188 L 354.113281 294.957031 L 350.042969 307.117188 L 343.464844 304.867188 Z M 347.9375 292.992188 "/>
<path style=" stroke:none;fill-rule:nonzero;fill:rgb(39.99939%,39.99939%,39.99939%);fill-opacity:0.3;" d="M 321.015625 280.078125 L 333.425781 281.015625 L 330.546875 300.714844 L 318.457031 299.011719 Z M 321.015625 280.078125 "/>
<path style=" stroke:none;fill-rule:nonzero;fill:rgb(39.99939%,39.99939%,39.99939%);fill-opacity:0.3;" d="M 350.546875 308.410156 L 357.0625 310.203125 L 355.21875 316.132812 L 348.359375 314.449219 Z M 350.546875 308.410156 "/>
<path style=" stroke:none;fill-rule:nonzero;fill:rgb(39.99939%,39.99939%,39.99939%);fill-opacity:0.3;" d="M 343.234375 305.988281 L 349.695312 308.105469 L 347.484375 314.234375 L 341.449219 312.6875 Z M 343.234375 305.988281 "/>
<path style=" stroke:none;fill-rule:nonzero;fill:rgb(39.99939%,39.99939%,39.99939%);fill-opacity:0.3;" d="M 331.339844 301.976562 L 342.359375 305.699219 L 340.546875 312.464844 L 330.132812 309.757812 Z M 331.339844 301.976562 "/>
<path style=" stroke:none;fill-rule:nonzero;fill:rgb(39.99939%,39.99939%,39.99939%);fill-opacity:0.3;" d="M 318.285156 300.070312 L 330.40625 301.628906 L 329.375 307.707031 L 320.890625 319.316406 L 315.378906 318.691406 Z M 318.285156 300.070312 "/>
<path style=" stroke:none;fill-rule:nonzero;fill:rgb(39.99939%,39.99939%,39.99939%);fill-opacity:0.3;" d="M 330.808594 311.121094 L 327.4375 321.757812 L 322.019531 319.949219 L 328.734375 310.691406 Z M 330.808594 311.121094 "/>
<path style=" stroke:none;fill-rule:nonzero;fill:rgb(39.99939%,39.99939%,39.99939%);fill-opacity:0.3;" d="M 333.597656 314.222656 L 337.476562 315.0625 L 336.925781 318.425781 L 332.828125 317.585938 Z M 333.597656 314.222656 "/>
<path style=" stroke:none;fill-rule:nonzero;fill:rgb(39.99939%,39.99939%,39.99939%);fill-opacity:0.3;" d="M 350.664062 318.316406 L 354.695312 319.402344 L 353.765625 322.570312 L 349.78125 321.578125 Z M 350.664062 318.316406 "/>
<path style=" stroke:none;fill-rule:nonzero;fill:rgb(39.99939%,39.99939%,39.99939%);fill-opacity:0.3;" d="M 338.367188 319.582031 L 337.925781 322.214844 L 333.273438 321.269531 L 334.058594 318.273438 Z M 338.367188 319.582031 "/>
<path style=" stroke:none;fill-rule:nonzero;fill:rgb(39.99939%,39.99939%,39.99939%);fill-opacity:0.3;" d="M 340.378906 319.976562 L 344.957031 321.0625 L 344.292969 323.960938 L 339.445312 322.871094 Z M 340.378906 319.976562 "/>
<path style=" stroke:none;fill-rule:nonzero;fill:rgb(39.99939%,39.99939%,39.99939%);fill-opacity:0.3;" d="M 346.738281 321.515625 L 351.554688 322.628906 L 350.75 325.5 L 345.980469 324.476562 Z M 346.738281 321.515625 "/>
<path style=" stroke:none;fill-rule:nonzero;fill:rgb(39.99939%,39.99939%,39.99939%);fill-opacity:0.3;" d="M 334.476562 281.101562 L 345.199219 281.507812 L 351.179688 280.785156 L 347.339844 291.820312 L 340.457031 289.722656 L 340.246094 290.144531 L 340.035156 290.5625 L 346.996094 292.769531 L 344.792969 298.558594 L 336.910156 296.050781 L 336.582031 296.699219 L 344.597656 299.320312 L 342.664062 304.609375 L 331.507812 300.992188 Z M 334.476562 281.101562 "/>
<g clip-path="url(#clip28)" clip-rule="nonzero">
<path style=" stroke:none;fill-rule:nonzero;fill:rgb(39.99939%,39.99939%,39.99939%);fill-opacity:0.3;" d="M 364.363281 346.421875 L 364.191406 346.503906 L 362.976562 346.207031 L 361.789062 345.851562 L 360.730469 345.828125 L 359.71875 345.898438 L 358.566406 346.34375 L 357.546875 346.878906 L 356.636719 347.402344 L 346.421875 348.515625 L 342.925781 347.734375 L 335.171875 346.550781 L 337.863281 331.238281 L 337.066406 331.175781 L 334.371094 346.417969 L 324.285156 345.179688 L 309.015625 342.121094 L 313.542969 331.992188 L 315.265625 319.644531 L 319.757812 320.117188 L 330.308594 323.761719 L 330.480469 323.277344 L 330.613281 322.894531 L 328.105469 321.933594 L 331.347656 311.226562 L 347.871094 315.484375 L 355.308594 317.285156 L 366.601562 319.949219 L 376.285156 322.15625 L 387.960938 324.574219 L 393.777344 325.8125 L 394.191406 326.59375 L 393.675781 327.546875 L 393.042969 327.964844 L 366.6875 345.019531 Z M 364.363281 346.421875 "/>
</g>
<g clip-path="url(#clip29)" clip-rule="nonzero">
<path style=" stroke:none;fill-rule:nonzero;fill:rgb(39.99939%,39.99939%,39.99939%);fill-opacity:0.3;" d="M 307.730469 342.796875 L 324.402344 346.152344 L 334.734375 347.308594 L 337.742188 347.742188 L 342.738281 348.460938 L 346.050781 349.550781 L 356.800781 348.292969 L 355.808594 349.929688 L 355.351562 351.667969 L 355.550781 352.867188 L 354.46875 353.625 L 347.492188 358.257812 L 334.636719 354.632812 L 334.570312 354.832031 L 334.507812 355.03125 L 347.109375 358.601562 L 340.972656 362.597656 L 338.574219 361.871094 L 320.074219 356.269531 L 304.875 351.667969 L 306.707031 345.449219 Z M 307.730469 342.796875 "/>
</g>
<path style=" stroke:none;fill-rule:nonzero;fill:rgb(39.99939%,39.99939%,39.99939%);fill-opacity:0.3;" d="M 175.820312 77.351562 L 155.101562 80.71875 L 155.25 79.410156 Z M 175.820312 77.351562 "/>
<path style=" stroke:none;fill-rule:nonzero;fill:rgb(39.99939%,39.99939%,39.99939%);fill-opacity:0.3;" d="M 122.601562 131.152344 L 117.65625 138.988281 L 114.695312 143.300781 L 103.277344 162.214844 L 100.40625 167.144531 L 90.832031 169.675781 L 82.03125 164.570312 L 94.113281 128.742188 L 107.320312 86.726562 L 108.480469 85.773438 L 110.886719 85.953125 L 112.71875 85.871094 L 113.628906 85.992188 L 113.734375 85.699219 L 114.898438 85.429688 L 115.65625 83.898438 L 121.023438 68.84375 L 151.496094 89.34375 L 151.324219 90.539062 L 171.945312 96.660156 L 172.1875 96.253906 L 151.882812 90.25 L 152.25 87.394531 L 172.75 93.210938 L 172.828125 93.011719 L 172.910156 92.8125 L 152.34375 86.972656 L 153.207031 82.378906 L 188.097656 76.738281 L 185.003906 88.332031 L 178.144531 110.101562 L 174.40625 122.351562 L 174.132812 122.210938 L 173.90625 122.140625 L 173.671875 122.105469 L 173.4375 122.105469 L 173.203125 122.136719 L 172.980469 122.203125 L 172.769531 122.300781 L 172.523438 122.480469 L 172.320312 122.703125 L 172.203125 122.890625 L 172.121094 123.097656 L 172.070312 123.3125 L 172.0625 123.53125 L 172.085938 123.75 L 172.148438 123.964844 L 172.246094 124.164062 L 172.425781 124.40625 L 172.859375 124.734375 L 172.652344 125.082031 L 172.421875 125.425781 L 172.175781 125.757812 L 171.90625 126.074219 L 171.621094 126.378906 L 171.320312 126.671875 L 171 126.945312 L 170.667969 127.203125 L 170.320312 127.445312 L 169.957031 127.667969 L 169.585938 127.875 L 169.199219 128.0625 L 168.804688 128.230469 L 168.402344 128.382812 L 167.988281 128.511719 L 167.570312 128.617188 L 167.144531 128.707031 L 166.710938 128.773438 L 166.277344 128.820312 L 165.84375 128.84375 L 165.40625 128.847656 L 164.964844 128.828125 L 164.53125 128.789062 L 164.09375 128.726562 L 163.664062 128.648438 L 163.238281 128.542969 L 162.816406 128.421875 L 162.402344 128.277344 L 161.996094 128.117188 L 142.273438 119.421875 L 141.273438 119.28125 L 140.265625 119.195312 L 139.25 119.15625 L 138.234375 119.171875 L 137.21875 119.238281 L 136.207031 119.355469 L 135.199219 119.523438 L 134.203125 119.742188 L 133.21875 120.011719 L 132.25 120.328125 L 131.300781 120.695312 L 130.367188 121.109375 L 129.261719 122.1875 L 127.554688 124.40625 Z M 122.601562 131.152344 "/>
<path style=" stroke:none;fill-rule:nonzero;fill:rgb(39.99939%,39.99939%,39.99939%);fill-opacity:0.3;" d="M 154.371094 80.015625 L 154.089844 81.730469 L 153.3125 81.878906 L 153.378906 81.574219 Z M 154.371094 80.015625 "/>
<path style="fill-rule:nonzero;fill:rgb(39.99939%,39.99939%,39.99939%);fill-opacity:1;stroke-width:0.03;stroke-linecap:square;stroke-linejoin:miter;stroke:rgb(39.99939%,39.99939%,39.99939%);stroke-opacity:1;stroke-miterlimit:3.239307;" d="M 315.203125 246.738281 L 313.125 246.195312 L 296.171875 241.480469 L 279.035156 237.101562 L 263.140625 232.429688 L 246.292969 227.640625 L 230.882812 223.265625 L 226.796875 222.03125 L 219.75 219.902344 L 216.367188 218.277344 L 220.847656 220.152344 L 228.144531 222.265625 L 249.074219 228.410156 L 284.214844 238.011719 L 312.441406 245.882812 Z M 315.203125 246.738281 " transform="matrix(1,0,0,1,-74,-13)"/>
<path style="fill-rule:nonzero;fill:rgb(39.99939%,39.99939%,39.99939%);fill-opacity:1;stroke-width:0.03;stroke-linecap:square;stroke-linejoin:miter;stroke:rgb(39.99939%,39.99939%,39.99939%);stroke-opacity:1;stroke-miterlimit:3.239307;" d="M 208.851562 214.667969 L 205.589844 213.097656 L 201.425781 210.433594 L 205.871094 213.046875 Z M 208.851562 214.667969 " transform="matrix(1,0,0,1,-74,-13)"/>
<path style="fill-rule:nonzero;fill:rgb(39.99939%,39.99939%,39.99939%);fill-opacity:1;stroke-width:0.03;stroke-linecap:square;stroke-linejoin:miter;stroke:rgb(39.99939%,39.99939%,39.99939%);stroke-opacity:1;stroke-miterlimit:3.239307;" d="M 298.847656 290.558594 L 306.503906 293.023438 L 306.601562 293.238281 L 303.800781 294.078125 L 297.515625 295.566406 L 297.617188 292.925781 Z M 298.847656 290.558594 " transform="matrix(1,0,0,1,-74,-13)"/>
<path style="fill-rule:nonzero;fill:rgb(39.99939%,39.99939%,39.99939%);fill-opacity:1;stroke-width:0.03;stroke-linecap:square;stroke-linejoin:miter;stroke:rgb(39.99939%,39.99939%,39.99939%);stroke-opacity:1;stroke-miterlimit:3.239307;" d="M 142.8125 264.089844 L 173.515625 273.910156 L 170.832031 282.703125 L 139.460938 272.652344 Z M 142.8125 264.089844 " transform="matrix(1,0,0,1,-74,-13)"/>
<path style="fill-rule:nonzero;fill:rgb(39.99939%,39.99939%,39.99939%);fill-opacity:1;stroke-width:0.03;stroke-linecap:square;stroke-linejoin:miter;stroke:rgb(39.99939%,39.99939%,39.99939%);stroke-opacity:1;stroke-miterlimit:3.239307;" d="M 138.339844 274.703125 L 147.238281 277.746094 L 138.378906 298.914062 L 127.625 296.414062 Z M 138.339844 274.703125 " transform="matrix(1,0,0,1,-74,-13)"/>
<path style="fill-rule:nonzero;fill:rgb(39.99939%,39.99939%,39.99939%);fill-opacity:1;stroke-width:0.03;stroke-linecap:square;stroke-linejoin:miter;stroke:rgb(39.99939%,39.99939%,39.99939%);stroke-opacity:1;stroke-miterlimit:3.239307;" d="M 148.136719 279.027344 L 156.027344 281.078125 L 148.449219 300.726562 L 140.601562 298.175781 Z M 148.136719 279.027344 " transform="matrix(1,0,0,1,-74,-13)"/>
<path style="fill-rule:nonzero;fill:rgb(39.99939%,39.99939%,39.99939%);fill-opacity:1;stroke-width:0.03;stroke-linecap:square;stroke-linejoin:miter;stroke:rgb(39.99939%,39.99939%,39.99939%);stroke-opacity:1;stroke-miterlimit:3.239307;" d="M 157.746094 282.816406 L 162.652344 284.324219 L 156.390625 303.253906 L 151.355469 301.515625 Z M 157.746094 282.816406 " transform="matrix(1,0,0,1,-74,-13)"/>
<path style="fill-rule:nonzero;fill:rgb(39.99939%,39.99939%,39.99939%);fill-opacity:1;stroke-width:0.03;stroke-linecap:square;stroke-linejoin:miter;stroke:rgb(39.99939%,39.99939%,39.99939%);stroke-opacity:1;stroke-miterlimit:3.239307;" d="M 183.214844 278.214844 L 191.183594 280.570312 L 188.820312 288.519531 L 180.796875 285.996094 Z M 183.214844 278.214844 " transform="matrix(1,0,0,1,-74,-13)"/>
<path style="fill-rule:nonzero;fill:rgb(39.99939%,39.99939%,39.99939%);fill-opacity:1;stroke-width:0.03;stroke-linecap:square;stroke-linejoin:miter;stroke:rgb(39.99939%,39.99939%,39.99939%);stroke-opacity:1;stroke-miterlimit:3.239307;" d="M 175.335938 274.136719 L 181.679688 276.011719 L 177.375 289.4375 L 171.035156 287.5625 Z M 175.335938 274.136719 " transform="matrix(1,0,0,1,-74,-13)"/>
<path style="fill-rule:nonzero;fill:rgb(39.99939%,39.99939%,39.99939%);fill-opacity:1;stroke-width:0.03;stroke-linecap:square;stroke-linejoin:miter;stroke:rgb(39.99939%,39.99939%,39.99939%);stroke-opacity:1;stroke-miterlimit:3.239307;" d="M 164.238281 289.746094 L 173.363281 292.308594 L 168.480469 307.199219 L 159.683594 304.308594 Z M 164.238281 289.746094 " transform="matrix(1,0,0,1,-74,-13)"/>
<path style="fill-rule:nonzero;fill:rgb(39.99939%,39.99939%,39.99939%);fill-opacity:1;stroke-width:0.03;stroke-linecap:square;stroke-linejoin:miter;stroke:rgb(39.99939%,39.99939%,39.99939%);stroke-opacity:1;stroke-miterlimit:3.239307;" d="M 177.96875 294.019531 L 185.871094 296.296875 L 180.824219 311.769531 L 172.761719 309.261719 Z M 177.96875 294.019531 " transform="matrix(1,0,0,1,-74,-13)"/>
<path style="fill-rule:nonzero;fill:rgb(39.99939%,39.99939%,39.99939%);fill-opacity:1;stroke-width:0.03;stroke-linecap:square;stroke-linejoin:miter;stroke:rgb(39.99939%,39.99939%,39.99939%);stroke-opacity:1;stroke-miterlimit:3.239307;" d="M 190.246094 292.574219 L 199.371094 295.136719 L 191.753906 314.117188 L 183.707031 311.394531 L 184.925781 307.742188 L 189.695312 309.179688 L 192.632812 301.113281 L 188.289062 299.496094 Z M 190.246094 292.574219 " transform="matrix(1,0,0,1,-74,-13)"/>
<path style="fill-rule:nonzero;fill:rgb(39.99939%,39.99939%,39.99939%);fill-opacity:1;stroke-width:0.03;stroke-linecap:square;stroke-linejoin:miter;stroke:rgb(39.99939%,39.99939%,39.99939%);stroke-opacity:1;stroke-miterlimit:3.239307;" d="M 194.761719 280.941406 L 212.089844 285.914062 L 210.871094 290.976562 L 201.46875 288.40625 L 200.496094 292.597656 L 191.835938 290.558594 Z M 194.761719 280.941406 " transform="matrix(1,0,0,1,-74,-13)"/>
<path style="fill-rule:nonzero;fill:rgb(39.99939%,39.99939%,39.99939%);fill-opacity:1;stroke-width:0.03;stroke-linecap:square;stroke-linejoin:miter;stroke:rgb(39.99939%,39.99939%,39.99939%);stroke-opacity:1;stroke-miterlimit:3.239307;" d="M 345.050781 257.359375 L 341.898438 282.476562 L 329.019531 286.722656 L 331.183594 278.058594 L 335.519531 265.089844 L 338.898438 255.585938 Z M 345.050781 257.359375 " transform="matrix(1,0,0,1,-74,-13)"/>
<path style="fill-rule:nonzero;fill:rgb(39.99939%,39.99939%,39.99939%);fill-opacity:1;stroke-width:0.03;stroke-linecap:square;stroke-linejoin:miter;stroke:rgb(39.99939%,39.99939%,39.99939%);stroke-opacity:1;stroke-miterlimit:3.239307;" d="M 346.070312 257.597656 L 357.699219 261.292969 L 355.414062 278.449219 L 342.945312 282.175781 Z M 346.070312 257.597656 " transform="matrix(1,0,0,1,-74,-13)"/>
<path style="fill-rule:nonzero;fill:rgb(39.99939%,39.99939%,39.99939%);fill-opacity:1;stroke-width:0.03;stroke-linecap:square;stroke-linejoin:miter;stroke:rgb(39.99939%,39.99939%,39.99939%);stroke-opacity:1;stroke-miterlimit:3.239307;" d="M 216.679688 279.703125 L 235.417969 284.421875 L 233.546875 291.796875 L 216.460938 287.144531 L 216.34375 283.414062 Z M 216.679688 279.703125 " transform="matrix(1,0,0,1,-74,-13)"/>
<path style="fill-rule:nonzero;fill:rgb(39.99939%,39.99939%,39.99939%);fill-opacity:1;stroke-width:0.03;stroke-linecap:square;stroke-linejoin:miter;stroke:rgb(39.99939%,39.99939%,39.99939%);stroke-opacity:1;stroke-miterlimit:3.239307;" d="M 217.734375 271.328125 L 237.339844 276.714844 L 235.597656 283.566406 L 216.726562 279.050781 Z M 217.734375 271.328125 " transform="matrix(1,0,0,1,-74,-13)"/>
<path style="fill-rule:nonzero;fill:rgb(39.99939%,39.99939%,39.99939%);fill-opacity:1;stroke-width:0.03;stroke-linecap:square;stroke-linejoin:miter;stroke:rgb(39.99939%,39.99939%,39.99939%);stroke-opacity:1;stroke-miterlimit:3.239307;" d="M 219.6875 262.921875 L 239.109375 266.914062 L 237.453125 275.984375 L 217.953125 270.566406 Z M 219.6875 262.921875 " transform="matrix(1,0,0,1,-74,-13)"/>
<path style="fill-rule:nonzero;fill:rgb(39.99939%,39.99939%,39.99939%);fill-opacity:1;stroke-width:0.03;stroke-linecap:square;stroke-linejoin:miter;stroke:rgb(39.99939%,39.99939%,39.99939%);stroke-opacity:1;stroke-miterlimit:3.239307;" d="M 240.921875 259.984375 L 239.230469 266.285156 L 219.828125 262.203125 L 219.980469 260.019531 L 217.6875 256.734375 L 220.945312 256.601562 L 227.933594 257.292969 L 235.570312 258.882812 Z M 240.921875 259.984375 " transform="matrix(1,0,0,1,-74,-13)"/>
<path style="fill-rule:nonzero;fill:rgb(39.99939%,39.99939%,39.99939%);fill-opacity:1;stroke-width:0.03;stroke-linecap:square;stroke-linejoin:miter;stroke:rgb(39.99939%,39.99939%,39.99939%);stroke-opacity:1;stroke-miterlimit:3.239307;" d="M 265.09375 253.890625 L 263.960938 253.5625 L 263.808594 254.074219 L 264.917969 254.402344 L 264.605469 255.785156 L 261.257812 254.738281 L 261.699219 253.378906 L 262.570312 253.628906 L 262.722656 253.210938 L 261.847656 252.917969 L 262.132812 251.949219 L 264.230469 252.589844 L 264.78125 250.953125 L 265.503906 251.117188 L 265.589844 250.59375 L 264.871094 250.40625 L 265.371094 248.976562 L 268.480469 249.882812 L 268.140625 251.15625 L 267.296875 250.867188 L 267.136719 251.378906 L 267.964844 251.632812 L 267.421875 253.113281 L 265.554688 252.523438 Z M 265.09375 253.890625 " transform="matrix(1,0,0,1,-74,-13)"/>
<path style="fill-rule:nonzero;fill:rgb(39.99939%,39.99939%,39.99939%);fill-opacity:1;stroke-width:0.03;stroke-linecap:square;stroke-linejoin:miter;stroke:rgb(39.99939%,39.99939%,39.99939%);stroke-opacity:1;stroke-miterlimit:3.239307;" d="M 259.09375 247.382812 L 263.175781 248.660156 L 262.648438 250.144531 L 261.761719 249.851562 L 261.65625 250.160156 L 262.570312 250.476562 L 262.097656 251.734375 L 257.976562 250.414062 L 258.472656 249.085938 L 259.46875 249.414062 L 259.605469 249.136719 L 258.582031 248.796875 Z M 259.09375 247.382812 " transform="matrix(1,0,0,1,-74,-13)"/>
<path style="fill-rule:nonzero;fill:rgb(39.99939%,39.99939%,39.99939%);fill-opacity:1;stroke-width:0.03;stroke-linecap:square;stroke-linejoin:miter;stroke:rgb(39.99939%,39.99939%,39.99939%);stroke-opacity:1;stroke-miterlimit:3.239307;" d="M 232.34375 301.421875 L 246.386719 304.460938 L 248.089844 310.050781 L 247.15625 310.402344 L 242.335938 311.847656 L 238.644531 312.933594 L 229.96875 315.3125 L 229.328125 314.382812 Z M 232.34375 301.421875 " transform="matrix(1,0,0,1,-74,-13)"/>
<path style="fill-rule:nonzero;fill:rgb(39.99939%,39.99939%,39.99939%);fill-opacity:1;stroke-width:0.03;stroke-linecap:square;stroke-linejoin:miter;stroke:rgb(39.99939%,39.99939%,39.99939%);stroke-opacity:1;stroke-miterlimit:3.239307;" d="M 234.324219 292.808594 L 243.675781 295.199219 L 245.457031 302.625 L 241.65625 302.792969 L 232.65625 300.644531 Z M 234.324219 292.808594 " transform="matrix(1,0,0,1,-74,-13)"/>
<path style="fill-rule:nonzero;fill:rgb(39.99939%,39.99939%,39.99939%);fill-opacity:1;stroke-width:0.03;stroke-linecap:square;stroke-linejoin:miter;stroke:rgb(39.99939%,39.99939%,39.99939%);stroke-opacity:1;stroke-miterlimit:3.239307;" d="M 236.484375 284.621094 L 250.765625 288.472656 L 251.285156 289.449219 L 250.058594 295.867188 L 234.554688 292.03125 Z M 236.484375 284.621094 " transform="matrix(1,0,0,1,-74,-13)"/>
<path style="fill-rule:nonzero;fill:rgb(39.99939%,39.99939%,39.99939%);fill-opacity:1;stroke-width:0.03;stroke-linecap:square;stroke-linejoin:miter;stroke:rgb(39.99939%,39.99939%,39.99939%);stroke-opacity:1;stroke-miterlimit:3.239307;" d="M 263.101562 266.613281 L 273.246094 269.339844 L 270.207031 280.960938 L 259.804688 278.96875 L 261.667969 271.46875 Z M 263.101562 266.613281 " transform="matrix(1,0,0,1,-74,-13)"/>
<path style="fill-rule:nonzero;fill:rgb(39.99939%,39.99939%,39.99939%);fill-opacity:1;stroke-width:0.03;stroke-linecap:square;stroke-linejoin:miter;stroke:rgb(39.99939%,39.99939%,39.99939%);stroke-opacity:1;stroke-miterlimit:3.239307;" d="M 244.15625 252.261719 L 254.21875 254.839844 L 270.808594 259.835938 L 276.109375 261.351562 L 273.480469 268.359375 L 263.050781 265.496094 L 242.464844 259.316406 Z M 244.15625 252.261719 " transform="matrix(1,0,0,1,-74,-13)"/>
<path style="fill-rule:nonzero;fill:rgb(39.99939%,39.99939%,39.99939%);fill-opacity:1;stroke-width:0.03;stroke-linecap:square;stroke-linejoin:miter;stroke:rgb(39.99939%,39.99939%,39.99939%);stroke-opacity:1;stroke-miterlimit:3.239307;" d="M 289.382812 273.769531 L 288.6875 276.558594 L 285.703125 275.929688 L 286.382812 273.128906 Z M 289.382812 273.769531 " transform="matrix(1,0,0,1,-74,-13)"/>
<path style="fill-rule:nonzero;fill:rgb(39.99939%,39.99939%,39.99939%);fill-opacity:1;stroke-width:0.03;stroke-linecap:square;stroke-linejoin:miter;stroke:rgb(39.99939%,39.99939%,39.99939%);stroke-opacity:1;stroke-miterlimit:3.239307;" d="M 288.652344 277.429688 L 287.1875 282.484375 L 284.128906 281.816406 L 285.558594 276.730469 Z M 288.652344 277.429688 " transform="matrix(1,0,0,1,-74,-13)"/>
<path style="fill-rule:nonzero;fill:rgb(39.99939%,39.99939%,39.99939%);fill-opacity:1;stroke-width:0.03;stroke-linecap:square;stroke-linejoin:miter;stroke:rgb(39.99939%,39.99939%,39.99939%);stroke-opacity:1;stroke-miterlimit:3.239307;" d="M 302.804688 276.738281 L 309.027344 278.597656 L 305.203125 291.132812 L 298.679688 289.078125 Z M 302.804688 276.738281 " transform="matrix(1,0,0,1,-74,-13)"/>
<path style="fill-rule:nonzero;fill:rgb(39.99939%,39.99939%,39.99939%);fill-opacity:1;stroke-width:0.03;stroke-linecap:square;stroke-linejoin:miter;stroke:rgb(39.99939%,39.99939%,39.99939%);stroke-opacity:1;stroke-miterlimit:3.239307;" d="M 326.039062 276.96875 L 325.410156 278.492188 L 321.957031 277.875 L 320.9375 280.039062 L 319.25 279.367188 L 320.75 275.652344 Z M 326.039062 276.96875 " transform="matrix(1,0,0,1,-74,-13)"/>
<path style="fill-rule:nonzero;fill:rgb(39.99939%,39.99939%,39.99939%);fill-opacity:1;stroke-width:0.03;stroke-linecap:square;stroke-linejoin:miter;stroke:rgb(39.99939%,39.99939%,39.99939%);stroke-opacity:1;stroke-miterlimit:3.239307;" d="M 328.113281 271.414062 L 327.3125 273.367188 L 322.949219 272.324219 L 322.53125 273.292969 L 327.054688 274.34375 L 326.164062 276.445312 L 320.949219 275.101562 L 322.792969 269.949219 Z M 328.113281 271.414062 " transform="matrix(1,0,0,1,-74,-13)"/>
<path style="fill-rule:nonzero;fill:rgb(39.99939%,39.99939%,39.99939%);fill-opacity:1;stroke-width:0.03;stroke-linecap:square;stroke-linejoin:miter;stroke:rgb(39.99939%,39.99939%,39.99939%);stroke-opacity:1;stroke-miterlimit:3.239307;" d="M 330.902344 263.09375 L 330.011719 265.429688 L 327.308594 264.738281 L 326.464844 267.15625 L 323.734375 266.421875 L 325.316406 261.503906 Z M 330.902344 263.09375 " transform="matrix(1,0,0,1,-74,-13)"/>
<path style="fill-rule:nonzero;fill:rgb(39.99939%,39.99939%,39.99939%);fill-opacity:1;stroke-width:0.03;stroke-linecap:square;stroke-linejoin:miter;stroke:rgb(39.99939%,39.99939%,39.99939%);stroke-opacity:1;stroke-miterlimit:3.239307;" d="M 333.273438 256.484375 L 332.367188 259.183594 L 328.492188 257.972656 L 328.378906 258.402344 L 332.234375 259.699219 L 331.222656 262.460938 L 325.5 260.816406 L 327.410156 254.710938 Z M 333.273438 256.484375 " transform="matrix(1,0,0,1,-74,-13)"/>
<path style="fill-rule:nonzero;fill:rgb(39.99939%,39.99939%,39.99939%);fill-opacity:1;stroke-width:0.03;stroke-linecap:square;stroke-linejoin:miter;stroke:rgb(39.99939%,39.99939%,39.99939%);stroke-opacity:1;stroke-miterlimit:3.239307;" d="M 358.898438 261.707031 L 382.5 269.121094 L 382.570312 269.695312 L 370.054688 274.195312 L 356.621094 278.222656 Z M 358.898438 261.707031 " transform="matrix(1,0,0,1,-74,-13)"/>
<path style="fill-rule:nonzero;fill:rgb(39.99939%,39.99939%,39.99939%);fill-opacity:1;stroke-width:0.03;stroke-linecap:square;stroke-linejoin:miter;stroke:rgb(39.99939%,39.99939%,39.99939%);stroke-opacity:1;stroke-miterlimit:3.239307;" d="M 328.105469 269.652344 L 328.8125 267.613281 L 328.273438 267.496094 L 327.769531 268.949219 L 322.824219 267.683594 L 327.539062 252.203125 L 337.941406 255.300781 L 334.539062 264.933594 L 330.191406 277.71875 L 327.933594 286.992188 L 317.300781 290.074219 L 318 282.34375 L 317.523438 282.28125 L 316.816406 290.15625 L 309.039062 292.519531 L 305.988281 291.46875 L 310.039062 278.171875 L 303.085938 276.023438 L 312.753906 247.882812 L 326.660156 251.882812 L 321.691406 267.855469 L 319.519531 274.832031 L 319.929688 275.058594 L 320.335938 275.285156 L 322.71875 268.308594 Z M 328.105469 269.652344 " transform="matrix(1,0,0,1,-74,-13)"/>
<path style="fill-rule:nonzero;fill:rgb(39.99939%,39.99939%,39.99939%);fill-opacity:1;stroke-width:0.03;stroke-linecap:square;stroke-linejoin:miter;stroke:rgb(39.99939%,39.99939%,39.99939%);stroke-opacity:1;stroke-miterlimit:3.239307;" d="M 272.171875 282.515625 L 280.363281 284.800781 L 287.792969 286.554688 L 293.925781 288.675781 L 293 291.621094 L 293.273438 291.71875 L 293.550781 291.816406 L 294.503906 288.894531 L 297.347656 289.941406 L 296.800781 292.78125 L 296.574219 295.789062 L 296.503906 295.808594 L 282.839844 300.054688 L 275.449219 302.214844 L 270.636719 303.621094 L 269.800781 303.105469 L 269.679688 297.363281 L 269.601562 288.484375 L 270.796875 282.65625 Z M 272.171875 282.515625 " transform="matrix(1,0,0,1,-74,-13)"/>
<path style="fill-rule:nonzero;fill:rgb(39.99939%,39.99939%,39.99939%);fill-opacity:1;stroke-width:0.03;stroke-linecap:square;stroke-linejoin:miter;stroke:rgb(39.99939%,39.99939%,39.99939%);stroke-opacity:1;stroke-miterlimit:3.239307;" d="M 292.164062 287.179688 L 295.207031 277.117188 L 294.261719 276.859375 L 291.351562 286.90625 L 287.929688 285.753906 L 282.855469 284.449219 L 281.234375 284.101562 L 284.398438 271.96875 L 283.914062 271.867188 L 283.433594 271.765625 L 280.269531 283.847656 L 271.375 281.242188 L 274.441406 268.832031 L 285.347656 240.695312 L 311.710938 247.726562 L 297.65625 288.996094 Z M 292.164062 287.179688 " transform="matrix(1,0,0,1,-74,-13)"/>
<path style="fill-rule:nonzero;fill:rgb(39.99939%,39.99939%,39.99939%);fill-opacity:1;stroke-width:0.03;stroke-linecap:square;stroke-linejoin:miter;stroke:rgb(39.99939%,39.99939%,39.99939%);stroke-opacity:1;stroke-miterlimit:3.239307;" d="M 216.433594 287.855469 L 233.359375 292.507812 L 231.441406 300.335938 L 225.984375 299.128906 L 225.84375 299.476562 L 225.707031 299.824219 L 231.28125 301.054688 L 227.699219 314.34375 L 226.613281 316.226562 L 224.316406 316.84375 L 221.386719 313.804688 L 218.46875 310.078125 L 216.148438 306.40625 L 215.867188 304.636719 L 216.332031 300.160156 L 217.140625 293.738281 Z M 216.433594 287.855469 " transform="matrix(1,0,0,1,-74,-13)"/>
<path style="fill-rule:nonzero;fill:rgb(39.99939%,39.99939%,39.99939%);fill-opacity:1;stroke-width:0.03;stroke-linecap:square;stroke-linejoin:miter;stroke:rgb(39.99939%,39.99939%,39.99939%);stroke-opacity:1;stroke-miterlimit:3.239307;" d="M 244.636719 295.34375 L 254.410156 297.789062 L 256.027344 298.023438 L 256.699219 297.308594 L 268.65625 297.386719 L 268.214844 304.292969 L 262.707031 305.898438 L 253.300781 308.097656 L 248.917969 309.742188 L 247.019531 304.015625 L 253.308594 303.398438 L 253.253906 302.8125 L 246.578125 303.289062 Z M 244.636719 295.34375 " transform="matrix(1,0,0,1,-74,-13)"/>
<path style="fill-rule:nonzero;fill:rgb(39.99939%,39.99939%,39.99939%);fill-opacity:1;stroke-width:0.03;stroke-linecap:square;stroke-linejoin:miter;stroke:rgb(39.99939%,39.99939%,39.99939%);stroke-opacity:1;stroke-miterlimit:3.239307;" d="M 238.472656 276.679688 L 246.75 277.792969 L 258.792969 279.808594 L 269.921875 281.90625 L 268.753906 288.578125 L 268.652344 296.898438 L 256.847656 296.871094 L 254.589844 297.085938 L 250.847656 296.066406 L 251.984375 289.457031 L 253.039062 288.792969 L 263.601562 290.75 L 263.644531 290.433594 L 263.683594 290.121094 L 253.234375 288.203125 L 252.828125 287.390625 L 253.179688 285.15625 L 252.800781 285.101562 L 252.417969 285.046875 L 251.882812 287.554688 L 249.554688 287.207031 L 236.667969 283.824219 Z M 238.472656 276.679688 " transform="matrix(1,0,0,1,-74,-13)"/>
<path style="fill-rule:nonzero;fill:rgb(39.99939%,39.99939%,39.99939%);fill-opacity:1;stroke-width:0.03;stroke-linecap:square;stroke-linejoin:miter;stroke:rgb(39.99939%,39.99939%,39.99939%);stroke-opacity:1;stroke-miterlimit:3.239307;" d="M 260.742188 270.878906 L 258.125 270.300781 L 258.0625 270.585938 L 257.996094 270.875 L 260.578125 271.472656 L 258.761719 278.769531 L 247.0625 276.929688 L 238.835938 275.746094 L 240.496094 267 L 246.679688 268.371094 L 246.972656 267.46875 L 247.265625 266.5625 L 240.9375 265.296875 L 242.203125 260.347656 L 262.199219 266.390625 Z M 260.742188 270.878906 " transform="matrix(1,0,0,1,-74,-13)"/>
<path style="fill-rule:nonzero;fill:rgb(39.99939%,39.99939%,39.99939%);fill-opacity:1;stroke-width:0.03;stroke-linecap:square;stroke-linejoin:miter;stroke:rgb(39.99939%,39.99939%,39.99939%);stroke-opacity:1;stroke-miterlimit:3.239307;" d="M 254.730469 253.675781 L 244.535156 251.0625 L 246.300781 244.214844 L 256.726562 246.515625 L 256.894531 246.09375 L 257.066406 245.671875 L 246.460938 243.460938 L 247.390625 237.582031 L 258.140625 239.910156 L 257.335938 242.839844 L 257.628906 242.902344 L 257.925781 242.96875 L 258.90625 239.015625 L 247.597656 236.625 L 248.988281 230.285156 L 284.355469 240.355469 L 276.582031 260.261719 L 270.957031 258.472656 Z M 254.730469 253.675781 " transform="matrix(1,0,0,1,-74,-13)"/>
<path style="fill-rule:nonzero;fill:rgb(39.99939%,39.99939%,39.99939%);fill-opacity:1;stroke-width:0.03;stroke-linecap:square;stroke-linejoin:miter;stroke:rgb(39.99939%,39.99939%,39.99939%);stroke-opacity:1;stroke-miterlimit:3.239307;" d="M 198.667969 210.984375 L 204.40625 214.667969 L 218.792969 221.675781 L 231.042969 225.210938 L 247.753906 230.097656 L 246.382812 236.441406 L 230.5 233.179688 L 230.316406 233.628906 L 230.136719 234.074219 L 246.167969 237.382812 L 245.105469 243.703125 L 229.230469 240.871094 L 229.144531 241.316406 L 229.0625 241.761719 L 244.894531 244.707031 L 243.164062 250.710938 L 238.019531 249.464844 L 237.703125 250.289062 L 224.25 247.089844 L 224.183594 247.460938 L 224.113281 247.832031 L 242.949219 252.023438 L 241.207031 259.011719 L 235.734375 257.886719 L 227.992188 256.285156 L 220.964844 255.640625 L 216.90625 255.765625 L 213.117188 255.519531 L 211.460938 254.929688 L 209.332031 253.46875 L 205.578125 249.09375 L 202.105469 244.171875 L 196.921875 234.378906 L 195.46875 231.785156 L 194.523438 229.4375 L 194.457031 227.199219 L 196.757812 220.3125 Z M 198.667969 210.984375 " transform="matrix(1,0,0,1,-74,-13)"/>
<path style="fill-rule:nonzero;fill:rgb(39.99939%,39.99939%,39.99939%);fill-opacity:1;stroke-width:0.03;stroke-linecap:square;stroke-linejoin:miter;stroke:rgb(39.99939%,39.99939%,39.99939%);stroke-opacity:1;stroke-miterlimit:3.239307;" d="M 175.753906 191.433594 L 187.539062 202.148438 L 197.316406 210.214844 L 195.554688 219.875 L 193.265625 227.113281 L 193.347656 229.648438 L 194.28125 232.195312 L 195.777344 234.804688 L 200.976562 244.675781 L 204.617188 249.734375 L 208.457031 254.0625 L 210.929688 255.878906 L 212.613281 256.429688 L 214.5625 256.71875 L 216.472656 257.976562 L 218.058594 259.808594 L 218.664062 261.1875 L 218.738281 262.894531 L 216.828125 270.589844 L 215.472656 278.894531 L 214.867188 283.359375 L 215.210938 287.53125 L 216.179688 293.820312 L 215.519531 300.109375 L 215.035156 304.613281 L 215.039062 306.34375 L 217.640625 310.429688 L 220.722656 314.257812 L 221.558594 315.847656 L 221.816406 317.566406 L 218.730469 318.59375 L 216.164062 319.171875 L 209.203125 320.773438 L 202.234375 321.570312 L 195.28125 320.859375 L 190.550781 320.175781 L 185.492188 318.957031 L 166.714844 312.53125 L 130.777344 300.574219 L 128.40625 299.917969 L 127.699219 299.980469 L 126.894531 299.984375 L 126.417969 299.886719 L 125.777344 299.628906 L 125.429688 298.972656 L 125.433594 298.054688 L 130.335938 286.828125 L 136.476562 274.300781 L 136.75 274.222656 L 136.890625 274.199219 L 137.027344 274.167969 L 137.160156 274.128906 L 137.292969 274.082031 L 137.421875 274.03125 L 137.550781 273.972656 L 137.671875 273.90625 L 137.792969 273.835938 L 137.910156 273.757812 L 138.019531 273.675781 L 138.230469 273.496094 L 138.417969 273.292969 L 138.503906 273.1875 L 138.585938 273.074219 L 138.660156 272.960938 L 138.726562 272.839844 L 138.789062 272.71875 L 138.890625 272.46875 L 138.929688 272.335938 L 138.964844 272.207031 L 138.988281 272.074219 L 139.007812 271.941406 L 139.019531 271.804688 L 139.023438 271.613281 L 139.019531 271.480469 L 139.003906 271.347656 L 138.984375 271.210938 L 138.957031 271.082031 L 138.921875 270.949219 L 138.882812 270.820312 L 138.832031 270.695312 L 138.777344 270.570312 L 138.714844 270.453125 L 138.644531 270.335938 L 138.570312 270.222656 L 142.296875 259.859375 L 153.984375 262.886719 L 154.011719 262.699219 L 154.042969 262.511719 L 142.378906 259.414062 L 145.371094 249.066406 L 147.757812 235.640625 L 149.308594 226.558594 L 150.546875 223.414062 L 152.242188 218.992188 L 153.09375 219.011719 L 154.460938 217.003906 L 155.753906 217.394531 L 157.355469 214.175781 L 165.542969 199.21875 L 168.269531 194.46875 L 170.871094 190.910156 L 171.15625 190.800781 L 171.398438 190.726562 L 171.640625 190.664062 L 171.882812 190.617188 L 172.132812 190.578125 L 172.382812 190.554688 L 172.632812 190.539062 L 172.882812 190.539062 L 173.132812 190.554688 L 173.382812 190.578125 L 173.628906 190.617188 L 173.875 190.667969 L 174.113281 190.730469 L 174.351562 190.804688 L 174.585938 190.890625 Z M 175.753906 191.433594 " transform="matrix(1,0,0,1,-74,-13)"/>
<g clip-path="url(#clip30)" clip-rule="nonzero">
<path style=" stroke:none;fill-rule:evenodd;fill:rgb(85.096741%,85.096741%,81.959534%);fill-opacity:0.7;" d="M 340.679688 360 C 340.679688 357.964844 339.871094 356.007812 338.429688 354.570312 C 336.992188 353.128906 335.035156 352.320312 333 352.320312 C 330.964844 352.320312 329.007812 353.128906 327.570312 354.570312 C 326.128906 356.007812 325.320312 357.964844 325.320312 360 C 325.320312 362.035156 326.128906 363.992188 327.570312 365.429688 C 329.007812 366.871094 330.964844 367.679688 333 367.679688 C 335.035156 367.679688 336.992188 366.871094 338.429688 365.429688 C 339.871094 363.992188 340.679688 362.035156 340.679688 360 Z M 340.679688 360 "/>
</g>
<path style=" stroke:none;fill-rule:evenodd;fill:rgb(85.096741%,85.096741%,81.959534%);fill-opacity:0.7;" d="M 130.679688 305 C 130.679688 302.964844 129.871094 301.007812 128.429688 299.570312 C 126.992188 298.128906 125.035156 297.320312 123 297.320312 C 120.964844 297.320312 119.007812 298.128906 117.570312 299.570312 C 116.128906 301.007812 115.320312 302.964844 115.320312 305 C 115.320312 307.035156 116.128906 308.992188 117.570312 310.429688 C 119.007812 311.871094 120.964844 312.679688 123 312.679688 C 125.035156 312.679688 126.992188 311.871094 128.429688 310.429688 C 129.871094 308.992188 130.679688 307.035156 130.679688 305 Z M 130.679688 305 "/>
<path style=" stroke:none;fill-rule:evenodd;fill:rgb(85.096741%,85.096741%,81.959534%);fill-opacity:0.7;" d="M 80.679688 286 C 80.679688 283.964844 79.871094 282.007812 78.429688 280.570312 C 76.992188 279.128906 75.035156 278.320312 73 278.320312 C 70.964844 278.320312 69.007812 279.128906 67.570312 280.570312 C 66.128906 282.007812 65.320312 283.964844 65.320312 286 C 65.320312 288.035156 66.128906 289.992188 67.570312 291.429688 C 69.007812 292.871094 70.964844 293.679688 73 293.679688 C 75.035156 293.679688 76.992188 292.871094 78.429688 291.429688 C 79.871094 289.992188 80.679688 288.035156 80.679688 286 Z M 80.679688 286 "/>
<path style=" stroke:none;fill-rule:evenodd;fill:rgb(85.096741%,85.096741%,81.959534%);fill-opacity:0.7;" d="M 186.679688 274 C 186.679688 271.964844 185.871094 270.007812 184.429688 268.570312 C 182.992188 267.128906 181.035156 266.320312 179 266.320312 C 176.964844 266.320312 175.007812 267.128906 173.570312 268.570312 C 172.128906 270.007812 171.320312 271.964844 171.320312 274 C 171.320312 276.035156 172.128906 277.992188 173.570312 279.429688 C 175.007812 280.871094 176.964844 281.679688 179 281.679688 C 181.035156 281.679688 182.992188 280.871094 184.429688 279.429688 C 185.871094 277.992188 186.679688 276.035156 186.679688 274 Z M 186.679688 274 "/>
<path style=" stroke:none;fill-rule:evenodd;fill:rgb(85.096741%,85.096741%,81.959534%);fill-opacity:0.7;" d="M 317.679688 261 C 317.679688 258.964844 316.871094 257.007812 315.429688 255.570312 C 313.992188 254.128906 312.035156 253.320312 310 253.320312 C 307.964844 253.320312 306.007812 254.128906 304.570312 255.570312 C 303.128906 257.007812 302.320312 258.964844 302.320312 261 C 302.320312 263.035156 303.128906 264.992188 304.570312 266.429688 C 306.007812 267.871094 307.964844 268.679688 310 268.679688 C 312.035156 268.679688 313.992188 267.871094 315.429688 266.429688 C 316.871094 264.992188 317.679688 263.035156 317.679688 261 Z M 317.679688 261 "/>
<path style=" stroke:none;fill-rule:evenodd;fill:rgb(85.096741%,85.096741%,81.959534%);fill-opacity:0.7;" d="M 180.679688 239 C 180.679688 236.964844 179.871094 235.007812 178.429688 233.570312 C 176.992188 232.128906 175.035156 231.320312 173 231.320312 C 170.964844 231.320312 169.007812 232.128906 167.570312 233.570312 C 166.128906 235.007812 165.320312 236.964844 165.320312 239 C 165.320312 241.035156 166.128906 242.992188 167.570312 244.429688 C 169.007812 245.871094 170.964844 246.679688 173 246.679688 C 175.035156 246.679688 176.992188 245.871094 178.429688 244.429688 C 179.871094 242.992188 180.679688 241.035156 180.679688 239 Z M 180.679688 239 "/>
<path style=" stroke:none;fill-rule:evenodd;fill:rgb(85.096741%,85.096741%,81.959534%);fill-opacity:0.7;" d="M 130.679688 305 C 130.679688 302.964844 129.871094 301.007812 128.429688 299.570312 C 126.992188 298.128906 125.035156 297.320312 123 297.320312 C 120.964844 297.320312 119.007812 298.128906 117.570312 299.570312 C 116.128906 301.007812 115.320312 302.964844 115.320312 305 C 115.320312 307.035156 116.128906 308.992188 117.570312 310.429688 C 119.007812 311.871094 120.964844 312.679688 123 312.679688 C 125.035156 312.679688 126.992188 311.871094 128.429688 310.429688 C 129.871094 308.992188 130.679688 307.035156 130.679688 305 Z M 130.679688 305 "/>
<path style=" stroke:none;fill-rule:evenodd;fill:rgb(85.096741%,85.096741%,81.959534%);fill-opacity:0.7;" d="M 120.679688 299 C 120.679688 296.964844 119.871094 295.007812 118.429688 293.570312 C 116.992188 292.128906 115.035156 291.320312 113 291.320312 C 110.964844 291.320312 109.007812 292.128906 107.570312 293.570312 C 106.128906 295.007812 105.320312 296.964844 105.320312 299 C 105.320312 301.035156 106.128906 302.992188 107.570312 304.429688 C 109.007812 305.871094 110.964844 306.679688 113 306.679688 C 115.035156 306.679688 116.992188 305.871094 118.429688 304.429688 C 119.871094 302.992188 120.679688 301.035156 120.679688 299 Z M 120.679688 299 "/>
<g clip-path="url(#clip31)" clip-rule="nonzero">
<path style=" stroke:none;fill-rule:nonzero;fill:rgb(99.998474%,99.998474%,30.587769%);fill-opacity:0.8;" d="M 238.25 349.4375 L 221.621094 378.238281 L 254.878906 378.238281 Z M 238.25 349.4375 "/>
</g>
<g clip-path="url(#clip32)" clip-rule="nonzero">
<path style="fill:none;stroke-width:0.288;stroke-linecap:square;stroke-linejoin:miter;stroke:rgb(0%,0%,0%);stroke-opacity:0.8;stroke-miterlimit:3.25;" d="M 312.25 362.4375 L 295.621094 391.238281 L 328.878906 391.238281 Z M 312.25 362.4375 " transform="matrix(1,0,0,1,-74,-13)"/>
</g>
</g>
</svg>
