<?xml version="1.0" encoding="UTF-8"?>
<svg xmlns="http://www.w3.org/2000/svg" xmlns:xlink="http://www.w3.org/1999/xlink" width="361pt" height="361pt" viewBox="0 0 361 361" version="1.1">
<defs>
<clipPath id="clip1">
  <path d="M 342 263 L 360 263 L 360 317 L 342 317 Z M 342 263 "/>
</clipPath>
<clipPath id="clip2">
  <path d="M 337 321 L 356 321 L 356 360 L 337 360 Z M 337 321 "/>
</clipPath>
<clipPath id="clip3">
  <path d="M 356 324 L 360 324 L 360 360 L 356 360 Z M 356 324 "/>
</clipPath>
<clipPath id="clip4">
  <path d="M 355 157 L 360 157 L 360 210 L 355 210 Z M 355 157 "/>
</clipPath>
<clipPath id="clip5">
  <path d="M 349 210 L 360 210 L 360 263 L 349 263 Z M 349 210 "/>
</clipPath>
<clipPath id="clip6">
  <path d="M 344 98 L 360 98 L 360 151 L 344 151 Z M 344 98 "/>
</clipPath>
<clipPath id="clip7">
  <path d="M 350 46 L 360 46 L 360 98 L 350 98 Z M 350 46 "/>
</clipPath>
<clipPath id="clip8">
  <path d="M 338 0 L 360 0 L 360 42 L 338 42 Z M 338 0 "/>
</clipPath>
<clipPath id="clip9">
  <path d="M 356 0 L 360 0 L 360 45 L 356 45 Z M 356 0 "/>
</clipPath>
<clipPath id="clip10">
  <path d="M 0 328 L 16 328 L 16 360 L 0 360 Z M 0 328 "/>
</clipPath>
<clipPath id="clip11">
  <path d="M 23 319 L 86 319 L 86 360 L 23 360 Z M 23 319 "/>
</clipPath>
<clipPath id="clip12">
  <path d="M 78 326 L 126 326 L 126 360 L 78 360 Z M 78 326 "/>
</clipPath>
<clipPath id="clip13">
  <path d="M 160 339 L 360 339 L 360 360 L 160 360 Z M 160 339 "/>
</clipPath>
<clipPath id="clip14">
  <path d="M 258 309 L 324 309 L 324 360 L 258 360 Z M 258 309 "/>
</clipPath>
<clipPath id="clip15">
  <path d="M 117 333 L 167 333 L 167 360 L 117 360 Z M 117 333 "/>
</clipPath>
</defs>
<g id="surface651">
<path style="fill-rule:nonzero;fill:rgb(0%,0%,0%);fill-opacity:1;stroke-width:0.03;stroke-linecap:square;stroke-linejoin:miter;stroke:rgb(0%,0%,0%);stroke-opacity:1;stroke-miterlimit:10;" d="M 0 178 L 360 178 L 360 -182 L 0 -182 Z M 0 178 " transform="matrix(1,0,0,1,0,182)"/>
<path style=" stroke:none;fill-rule:nonzero;fill:rgb(39.99939%,39.99939%,39.99939%);fill-opacity:0.3;" d="M 214.84375 133.703125 L 231.480469 136.316406 L 227.636719 166.601562 L 212.1875 145.066406 Z M 214.84375 133.703125 "/>
<path style=" stroke:none;fill-rule:nonzero;fill:rgb(39.99939%,39.99939%,39.99939%);fill-opacity:0.3;" d="M 331.683594 260.945312 L 345.617188 263.222656 L 338.828125 313.492188 L 325.117188 311.003906 Z M 331.683594 260.945312 "/>
<g clip-path="url(#clip1)" clip-rule="nonzero">
<path style=" stroke:none;fill-rule:nonzero;fill:rgb(39.99939%,39.99939%,39.99939%);fill-opacity:0.3;" d="M 348.757812 263.585938 L 363.039062 266.0625 L 356.660156 316.347656 L 342.152344 313.734375 Z M 348.757812 263.585938 "/>
</g>
<path style=" stroke:none;fill-rule:nonzero;fill:rgb(39.99939%,39.99939%,39.99939%);fill-opacity:0.3;" d="M 314.199219 317.601562 L 337.890625 321.449219 L 334.203125 350.648438 Z M 314.199219 317.601562 "/>
<g clip-path="url(#clip2)" clip-rule="nonzero">
<path style=" stroke:none;fill-rule:nonzero;fill:rgb(39.99939%,39.99939%,39.99939%);fill-opacity:0.3;" d="M 341.117188 321.539062 L 355.792969 323.414062 L 349.769531 370.046875 L 346.804688 370.171875 L 337.339844 354.277344 Z M 341.117188 321.539062 "/>
</g>
<g clip-path="url(#clip3)" clip-rule="nonzero">
<path style=" stroke:none;fill-rule:nonzero;fill:rgb(39.99939%,39.99939%,39.99939%);fill-opacity:0.3;" d="M 362.316406 324.53125 L 375.890625 326.894531 L 370.101562 373.191406 L 356.527344 370.957031 Z M 362.316406 324.53125 "/>
</g>
<path style=" stroke:none;fill-rule:nonzero;fill:rgb(39.99939%,39.99939%,39.99939%);fill-opacity:0.3;" d="M 235.328125 137.214844 L 248.371094 139.582031 L 242.410156 189.417969 L 231.089844 172.921875 Z M 235.328125 137.214844 "/>
<path style=" stroke:none;fill-rule:nonzero;fill:rgb(39.99939%,39.99939%,39.99939%);fill-opacity:0.3;" d="M 252.179688 139.878906 L 264.957031 141.996094 L 258.863281 192.082031 L 245.953125 189.714844 Z M 252.179688 139.878906 "/>
<path style=" stroke:none;fill-rule:nonzero;fill:rgb(39.99939%,39.99939%,39.99939%);fill-opacity:0.3;" d="M 273.40625 142.941406 L 286.847656 145.183594 L 280.808594 194.914062 L 267.5 192.796875 Z M 273.40625 142.941406 "/>
<path style=" stroke:none;fill-rule:nonzero;fill:rgb(39.99939%,39.99939%,39.99939%);fill-opacity:0.3;" d="M 290.441406 145.808594 L 303.882812 148.050781 L 297.84375 197.902344 L 284.667969 195.410156 Z M 290.441406 145.808594 "/>
<path style=" stroke:none;fill-rule:nonzero;fill:rgb(39.99939%,39.99939%,39.99939%);fill-opacity:0.3;" d="M 307.34375 148.421875 L 321.902344 150.9375 L 315.542969 200.761719 L 301.304688 198.523438 Z M 307.34375 148.421875 "/>
<path style=" stroke:none;fill-rule:nonzero;fill:rgb(39.99939%,39.99939%,39.99939%);fill-opacity:0.3;" d="M 326.992188 152.292969 L 340.933594 154.601562 L 339.148438 170.476562 L 328.988281 175.839844 L 324.769531 174.554688 Z M 326.992188 152.292969 "/>
<path style=" stroke:none;fill-rule:nonzero;fill:rgb(39.99939%,39.99939%,39.99939%);fill-opacity:0.3;" d="M 323.816406 178.523438 L 328.238281 178.90625 L 337.359375 189.339844 L 335.175781 204.152344 L 321.324219 202.175781 Z M 323.816406 178.523438 "/>
<g clip-path="url(#clip4)" clip-rule="nonzero">
<path style=" stroke:none;fill-rule:nonzero;fill:rgb(39.99939%,39.99939%,39.99939%);fill-opacity:0.3;" d="M 362.28125 157.410156 L 376.40625 159.867188 L 370.316406 209.648438 L 355.792969 207.398438 Z M 362.28125 157.410156 "/>
</g>
<path style=" stroke:none;fill-rule:nonzero;fill:rgb(39.99939%,39.99939%,39.99939%);fill-opacity:0.3;" d="M 242.734375 192.902344 L 258.839844 195.261719 L 256.191406 215.820312 Z M 242.734375 192.902344 "/>
<path style=" stroke:none;fill-rule:nonzero;fill:rgb(39.99939%,39.99939%,39.99939%);fill-opacity:0.3;" d="M 266.691406 196.253906 L 280.265625 198.496094 L 274.855469 245.078125 L 263.664062 224.9375 Z M 266.691406 196.253906 "/>
<path style=" stroke:none;fill-rule:nonzero;fill:rgb(39.99939%,39.99939%,39.99939%);fill-opacity:0.3;" d="M 283.195312 199.371094 L 296.371094 201.484375 L 290.429688 250.714844 L 277.121094 248.347656 Z M 283.195312 199.371094 "/>
<path style=" stroke:none;fill-rule:nonzero;fill:rgb(39.99939%,39.99939%,39.99939%);fill-opacity:0.3;" d="M 299.699219 202.109375 L 314.070312 204.472656 L 307.898438 253.726562 L 293.789062 251.488281 Z M 299.699219 202.109375 "/>
<path style=" stroke:none;fill-rule:nonzero;fill:rgb(39.99939%,39.99939%,39.99939%);fill-opacity:0.3;" d="M 320.59375 205.089844 L 335.898438 207.703125 L 330.121094 256.578125 L 314.816406 254.214844 Z M 320.59375 205.089844 "/>
<path style=" stroke:none;fill-rule:nonzero;fill:rgb(39.99939%,39.99939%,39.99939%);fill-opacity:0.3;" d="M 338.160156 207.953125 L 352.402344 210.445312 L 346.09375 259.4375 L 332.386719 256.949219 Z M 338.160156 207.953125 "/>
<g clip-path="url(#clip5)" clip-rule="nonzero">
<path style=" stroke:none;fill-rule:nonzero;fill:rgb(39.99939%,39.99939%,39.99939%);fill-opacity:0.3;" d="M 355.4375 210.875 L 370.050781 213.175781 L 363.960938 262.292969 L 349.421875 259.683594 Z M 355.4375 210.875 "/>
</g>
<path style=" stroke:none;fill-rule:nonzero;fill:rgb(39.99939%,39.99939%,39.99939%);fill-opacity:0.3;" d="M 241.304688 80.851562 L 254.3125 82.957031 L 247.886719 132.972656 L 235.476562 130.875 L 237.015625 115.082031 Z M 241.304688 80.851562 "/>
<path style=" stroke:none;fill-rule:nonzero;fill:rgb(39.99939%,39.99939%,39.99939%);fill-opacity:0.3;" d="M 257.984375 83.71875 L 271.140625 85.574219 L 265.105469 135.589844 L 251.984375 133.390625 Z M 257.984375 83.71875 "/>
<path style=" stroke:none;fill-rule:nonzero;fill:rgb(39.99939%,39.99939%,39.99939%);fill-opacity:0.3;" d="M 278.179688 87.011719 L 291.644531 89.160156 L 285.6875 139.109375 L 272.222656 137.105469 Z M 278.179688 87.011719 "/>
<path style=" stroke:none;fill-rule:nonzero;fill:rgb(39.99939%,39.99939%,39.99939%);fill-opacity:0.3;" d="M 295.621094 90.023438 L 308.625 92.03125 L 302.976562 142.117188 L 289.613281 139.730469 Z M 295.621094 90.023438 "/>
<path style=" stroke:none;fill-rule:nonzero;fill:rgb(39.99939%,39.99939%,39.99939%);fill-opacity:0.3;" d="M 311.917969 94.6875 L 315.585938 93.085938 L 323.238281 94.375 L 326.605469 96.980469 L 320.660156 143.257812 L 317.601562 144.714844 L 309.035156 143.28125 L 306.585938 141.109375 Z M 311.917969 94.6875 "/>
<path style=" stroke:none;fill-rule:nonzero;fill:rgb(39.99939%,39.99939%,39.99939%);fill-opacity:0.3;" d="M 332.433594 97.671875 L 335.019531 96.382812 L 344.8125 98.105469 L 347.105469 100.421875 L 341.316406 146.839844 L 338.257812 147.570312 L 329.65625 146.734375 L 326.167969 144.40625 Z M 332.433594 97.671875 "/>
<g clip-path="url(#clip6)" clip-rule="nonzero">
<path style=" stroke:none;fill-rule:nonzero;fill:rgb(39.99939%,39.99939%,39.99939%);fill-opacity:0.3;" d="M 350.164062 98.53125 L 363.800781 101.0625 L 357.304688 150.863281 L 344.027344 148.6875 Z M 350.164062 98.53125 "/>
</g>
<path style=" stroke:none;fill-rule:nonzero;fill:rgb(39.99939%,39.99939%,39.99939%);fill-opacity:0.3;" d="M 285.066406 31.917969 L 299.292969 26.8125 L 291.976562 85.730469 L 278.511719 83.726562 Z M 285.066406 31.917969 "/>
<path style=" stroke:none;fill-rule:nonzero;fill:rgb(39.99939%,39.99939%,39.99939%);fill-opacity:0.3;" d="M 248.75 78.855469 L 241.636719 77.707031 L 241.648438 77.617188 Z M 248.75 78.855469 "/>
<path style=" stroke:none;fill-rule:nonzero;fill:rgb(39.99939%,39.99939%,39.99939%);fill-opacity:0.3;" d="M 302.050781 37.253906 L 315.515625 39.40625 L 309.316406 88.933594 L 296.160156 86.636719 Z M 302.050781 37.253906 "/>
<path style=" stroke:none;fill-rule:nonzero;fill:rgb(39.99939%,39.99939%,39.99939%);fill-opacity:0.3;" d="M 318.726562 40.125 L 332.957031 42.566406 L 326.757812 91.65625 L 312.835938 89.363281 Z M 318.726562 40.125 "/>
<path style=" stroke:none;fill-rule:nonzero;fill:rgb(39.99939%,39.99939%,39.99939%);fill-opacity:0.3;" d="M 338.464844 43.425781 L 353.507812 45.617188 L 347.566406 95.097656 L 332.726562 92.660156 Z M 338.464844 43.425781 "/>
<g clip-path="url(#clip7)" clip-rule="nonzero">
<path style=" stroke:none;fill-rule:nonzero;fill:rgb(39.99939%,39.99939%,39.99939%);fill-opacity:0.3;" d="M 356.109375 46.339844 L 370.164062 48.617188 L 363.796875 97.910156 L 350.320312 95.671875 Z M 356.109375 46.339844 "/>
</g>
<path style=" stroke:none;fill-rule:nonzero;fill:rgb(39.99939%,39.99939%,39.99939%);fill-opacity:0.3;" d="M 344.929688 154.804688 L 358.554688 156.914062 L 356.910156 170.410156 L 352.46875 206.902344 L 338.757812 204.40625 L 343.132812 169.234375 Z M 344.929688 154.804688 "/>
<path style=" stroke:none;fill-rule:nonzero;fill:rgb(39.99939%,39.99939%,39.99939%);fill-opacity:0.3;" d="M 277.035156 252.066406 L 290.476562 254.175781 L 288.496094 270.433594 Z M 277.035156 252.066406 "/>
<path style=" stroke:none;fill-rule:nonzero;fill:rgb(39.99939%,39.99939%,39.99939%);fill-opacity:0.3;" d="M 293.9375 254.671875 L 308.046875 257.160156 L 303.546875 296.574219 L 291.835938 276.078125 Z M 293.9375 254.671875 "/>
<path style=" stroke:none;fill-rule:nonzero;fill:rgb(39.99939%,39.99939%,39.99939%);fill-opacity:0.3;" d="M 313.769531 258.03125 L 329.515625 260.527344 L 322.457031 310.886719 L 308.570312 308.570312 L 308.203125 307.746094 L 307.742188 306.871094 Z M 313.769531 258.03125 "/>
<path style=" stroke:none;fill-rule:nonzero;fill:rgb(39.99939%,39.99939%,39.99939%);fill-opacity:0.3;" d="M -6.382812 146.453125 L 30.898438 148.917969 L 27.242188 183.925781 L -9.414062 181.039062 Z M -6.382812 146.453125 "/>
<path style=" stroke:none;fill-rule:nonzero;fill:rgb(39.99939%,39.99939%,39.99939%);fill-opacity:0.3;" d="M 43.105469 45.59375 L 81.214844 49.910156 L 84.316406 56.371094 L 79.332031 65.722656 L 74.628906 74.515625 L 60.988281 97.007812 L 39.292969 95.390625 Z M 43.105469 45.59375 "/>
<path style=" stroke:none;fill-rule:nonzero;fill:rgb(39.99939%,39.99939%,39.99939%);fill-opacity:0.3;" d="M 22.917969 43.148438 L 40.476562 45.203125 L 35.550781 95.398438 L 18.238281 93.714844 Z M 22.917969 43.148438 "/>
<path style=" stroke:none;fill-rule:nonzero;fill:rgb(39.99939%,39.99939%,39.99939%);fill-opacity:0.3;" d="M 4.203125 40.996094 L 20.394531 42.953125 L 14.925781 93.722656 L -0.894531 92.242188 Z M 4.203125 40.996094 "/>
<path style=" stroke:none;fill-rule:nonzero;fill:rgb(39.99939%,39.99939%,39.99939%);fill-opacity:0.3;" d="M -16.039062 252.152344 L 0.539062 257.480469 L -2.394531 293.667969 L -18.769531 287.496094 Z M -16.039062 252.152344 "/>
<path style=" stroke:none;fill-rule:nonzero;fill:rgb(39.99939%,39.99939%,39.99939%);fill-opacity:0.3;" d="M -1.320312 94.5625 L 15.03125 95.84375 L 10.726562 143.460938 L -5.964844 142.453125 Z M -1.320312 94.5625 "/>
<path style=" stroke:none;fill-rule:nonzero;fill:rgb(39.99939%,39.99939%,39.99939%);fill-opacity:0.3;" d="M 18.132812 96.140625 L 35.554688 97.722656 L 31.148438 145 L 13.367188 143.554688 Z M 18.132812 96.140625 "/>
<path style=" stroke:none;fill-rule:nonzero;fill:rgb(39.99939%,39.99939%,39.99939%);fill-opacity:0.3;" d="M 38.867188 97.914062 L 56.5 99.496094 L 49.460938 165.769531 L 32.132812 163.988281 Z M 38.867188 97.914062 "/>
<path style=" stroke:none;fill-rule:nonzero;fill:rgb(39.99939%,39.99939%,39.99939%);fill-opacity:0.3;" d="M -9.890625 183.632812 L 6.386719 184.886719 L 3.597656 218.042969 L -13.375 216.660156 Z M -9.890625 183.632812 "/>
<path style=" stroke:none;fill-rule:nonzero;fill:rgb(39.99939%,39.99939%,39.99939%);fill-opacity:0.3;" d="M 8.984375 185.140625 L 26.765625 186.585938 L 23.90625 219.757812 L 6.828125 218.238281 Z M 8.984375 185.140625 "/>
<path style=" stroke:none;fill-rule:nonzero;fill:rgb(39.99939%,39.99939%,39.99939%);fill-opacity:0.3;" d="M 31.558594 168.550781 L 48.5 169.96875 L 44.746094 221.34375 L 26.949219 220.027344 Z M 31.558594 168.550781 "/>
<path style=" stroke:none;fill-rule:nonzero;fill:rgb(39.99939%,39.99939%,39.99939%);fill-opacity:0.3;" d="M -13.085938 218.835938 L 3.742188 220.148438 L 0.960938 250.210938 L -15.453125 244.789062 Z M -13.085938 218.835938 "/>
<path style=" stroke:none;fill-rule:nonzero;fill:rgb(39.99939%,39.99939%,39.99939%);fill-opacity:0.3;" d="M 5.96875 220.484375 L 22.839844 221.867188 L 21.347656 256.03125 L 3.566406 250.847656 Z M 5.96875 220.484375 "/>
<path style=" stroke:none;fill-rule:nonzero;fill:rgb(39.99939%,39.99939%,39.99939%);fill-opacity:0.3;" d="M 27.097656 222.136719 L 44.535156 223.519531 L 41.238281 262.453125 L 24.679688 256.699219 Z M 27.097656 222.136719 "/>
<path style=" stroke:none;fill-rule:nonzero;fill:rgb(39.99939%,39.99939%,39.99939%);fill-opacity:0.3;" d="M 2.875 258.105469 L 22.34375 264.058594 L 18.230469 312.703125 L 3.679688 310.117188 L 5.445312 290.632812 L 0.703125 289.769531 Z M 2.875 258.105469 "/>
<path style=" stroke:none;fill-rule:nonzero;fill:rgb(39.99939%,39.99939%,39.99939%);fill-opacity:0.3;" d="M 25.234375 265.105469 L 40.550781 269.832031 L 36.148438 315.175781 L 21.816406 313.332031 Z M 25.234375 265.105469 "/>
<path style=" stroke:none;fill-rule:nonzero;fill:rgb(39.99939%,39.99939%,39.99939%);fill-opacity:0.3;" d="M 2.929688 313.425781 L 17.796875 314.992188 L 16.851562 332.261719 L 18.886719 332.039062 L 20.472656 331.863281 L 21.214844 316.21875 L 36.207031 318.21875 L 34.800781 324.375 L 18.703125 347.003906 L 2.4375 326.515625 Z M 2.929688 313.425781 "/>
<path style=" stroke:none;fill-rule:nonzero;fill:rgb(39.99939%,39.99939%,39.99939%);fill-opacity:0.3;" d="M -18.921875 291.339844 L -10.445312 294.15625 L -3.464844 298.96875 L 0.246094 299.105469 L 0.429688 309.835938 L -9.011719 308.550781 Z M -18.921875 291.339844 "/>
<path style=" stroke:none;fill-rule:nonzero;fill:rgb(39.99939%,39.99939%,39.99939%);fill-opacity:0.3;" d="M -5.753906 312.507812 L 0.128906 313.222656 L -0.519531 322.414062 Z M -5.753906 312.507812 "/>
<path style=" stroke:none;fill-rule:nonzero;fill:rgb(39.99939%,39.99939%,39.99939%);fill-opacity:0.3;" d="M 325.480469 -15.835938 L 339.707031 -13.105469 L 333.613281 38.273438 L 319.382812 35.6875 Z M 325.480469 -15.835938 "/>
<g clip-path="url(#clip8)" clip-rule="nonzero">
<path style=" stroke:none;fill-rule:nonzero;fill:rgb(39.99939%,39.99939%,39.99939%);fill-opacity:0.3;" d="M 345.367188 -11.953125 L 360.359375 -9.371094 L 354.265625 41.570312 L 338.898438 39.554688 Z M 345.367188 -11.953125 "/>
</g>
<g clip-path="url(#clip9)" clip-rule="nonzero">
<path style=" stroke:none;fill-rule:nonzero;fill:rgb(39.99939%,39.99939%,39.99939%);fill-opacity:0.3;" d="M 363 -9.316406 L 376.792969 -6.496094 L 370.296875 44.25 L 356.714844 41.566406 Z M 363 -9.316406 "/>
</g>
<path style=" stroke:none;fill-rule:nonzero;fill:rgb(39.99939%,39.99939%,39.99939%);fill-opacity:0.3;" d="M 252.378906 3.054688 L 255.675781 7.28125 L 256.207031 8.894531 L 253.976562 16.359375 L 247.925781 30.789062 L 245.769531 35.289062 L 244.636719 41.625 L 244.210938 44.953125 L 220.917969 52.296875 L 194.972656 58.496094 L 176.363281 63.457031 L 169.179688 65.472656 L 154.5 64.722656 L 144.179688 62.988281 L 147.277344 49.921875 L 146.742188 49.925781 L 146.105469 49.925781 L 142.53125 62.992188 L 129.738281 61.015625 L 124.742188 59.410156 L 114.363281 49.953125 L 113.410156 44.699219 L 248.976562 3.765625 L 247.066406 16.574219 L 244.09375 16.984375 L 243.9375 18.269531 L 243.773438 19.605469 L 247.917969 20.304688 L 250.570312 3.664062 Z M 252.378906 3.054688 "/>
<path style=" stroke:none;fill-rule:nonzero;fill:rgb(39.99939%,39.99939%,39.99939%);fill-opacity:0.3;" d="M 219.191406 54.699219 L 216.4375 74.714844 L 206.890625 74.039062 L 206.773438 74.984375 L 206.679688 75.730469 L 216.332031 76.207031 L 206.761719 136.515625 L 202.664062 137.46875 L 128.210938 64.230469 L 168.496094 67.554688 L 168.085938 89.839844 L 169.695312 89.996094 L 171.125 90.132812 L 171.328125 66.851562 Z M 219.191406 54.699219 "/>
<path style=" stroke:none;fill-rule:nonzero;fill:rgb(39.99939%,39.99939%,39.99939%);fill-opacity:0.3;" d="M 221.96875 77.46875 L 238.355469 80.070312 L 232.363281 130.34375 L 215.550781 127.601562 Z M 221.96875 77.46875 "/>
<path style=" stroke:none;fill-rule:nonzero;fill:rgb(39.99939%,39.99939%,39.99939%);fill-opacity:0.3;" d="M 235.476562 130.875 L 235.042969 130.804688 L 237.015625 115.082031 Z M 235.476562 130.875 "/>
<path style=" stroke:none;fill-rule:nonzero;fill:rgb(39.99939%,39.99939%,39.99939%);fill-opacity:0.3;" d="M 308.195312 -15.660156 L 322.570312 -19.894531 L 315.863281 35.257812 L 302.707031 33.109375 Z M 308.195312 -15.660156 "/>
<path style=" stroke:none;fill-rule:nonzero;fill:rgb(39.99939%,39.99939%,39.99939%);fill-opacity:0.3;" d="M 224.339844 53.703125 L 242.238281 47.382812 L 238.632812 77.28125 L 222.105469 74.679688 Z M 224.339844 53.703125 "/>
<path style=" stroke:none;fill-rule:nonzero;fill:rgb(39.99939%,39.99939%,39.99939%);fill-opacity:0.3;" d="M 245.480469 46.605469 L 259.054688 41.53125 L 254.449219 79.773438 L 248.75 78.855469 L 241.648438 77.617188 Z M 245.480469 46.605469 "/>
<path style=" stroke:none;fill-rule:nonzero;fill:rgb(39.99939%,39.99939%,39.99939%);fill-opacity:0.3;" d="M 258.46875 80.285156 L 263.5 39.941406 L 277.265625 34.835938 L 271.320312 82.582031 Z M 258.46875 80.285156 "/>
<path style=" stroke:none;fill-rule:nonzero;fill:rgb(39.99939%,39.99939%,39.99939%);fill-opacity:0.3;" d="M 254.152344 1.511719 L 280.382812 -6.738281 L 291.277344 -10.164062 L 304.074219 -14.1875 L 299.503906 23.984375 L 287.496094 28.441406 L 278.867188 31.644531 L 246.09375 43.8125 L 246.410156 40.386719 L 247.152344 36.191406 L 249.066406 32.011719 L 251.292969 26.363281 L 255.964844 15.121094 L 258.195312 7.753906 L 256.925781 5.035156 Z M 254.152344 1.511719 "/>
<path style=" stroke:none;fill-rule:nonzero;fill:rgb(39.99939%,39.99939%,39.99939%);fill-opacity:0.3;" d="M 207.464844 -59.90625 L 212.304688 -27.867188 L 232.238281 -17.503906 L 234.472656 -13.230469 L 238.722656 -3.273438 L 220.265625 2.308594 L 212.710938 4.59375 L 117.867188 34.339844 L 113.808594 34.667969 L 112.476562 34.34375 L 158.257812 -53.824219 L 182.132812 -56.785156 L 184.527344 -56.886719 Z M 207.464844 -59.90625 "/>
<g clip-path="url(#clip10)" clip-rule="nonzero">
<path style=" stroke:none;fill-rule:nonzero;fill:rgb(39.99939%,39.99939%,39.99939%);fill-opacity:0.3;" d="M -1.542969 328.539062 L 15.703125 353.339844 L 12.839844 358.933594 L 6.683594 367.121094 L 1.171875 372.589844 L -22.710938 358.511719 Z M -1.542969 328.539062 "/>
</g>
<path style=" stroke:none;fill-rule:nonzero;fill:rgb(39.99939%,39.99939%,39.99939%);fill-opacity:0.3;" d="M 132.582031 90.179688 L 197.273438 152.1875 L 197.386719 156.976562 L 196.730469 161.140625 L 195.195312 164.890625 L 192.808594 167.117188 L 191.015625 168.609375 L 191.347656 164.035156 L 188.050781 164.152344 L 184.753906 164.273438 L 183.761719 180.4375 L 166.304688 178.292969 L 167.605469 161.746094 L 163.988281 161.441406 L 162.460938 177.78125 L 147.582031 176.019531 L 149.328125 154.886719 L 147.734375 154.683594 L 146.144531 154.476562 L 144.289062 175.609375 L 126.308594 173.71875 L 130.40625 116.167969 L 147.691406 120.125 L 146.621094 132.25 L 148.503906 132.117188 L 149.84375 119.609375 L 148.230469 117.058594 L 131.269531 113.269531 Z M 132.582031 90.179688 "/>
<path style=" stroke:none;fill-rule:nonzero;fill:rgb(39.99939%,39.99939%,39.99939%);fill-opacity:0.3;" d="M 110.21875 69.023438 L 118.121094 74.746094 L 113.921875 83.523438 L 112.578125 87.195312 L 107.375 106.976562 L 90.597656 103.570312 Z M 110.21875 69.023438 "/>
<path style=" stroke:none;fill-rule:nonzero;fill:rgb(39.99939%,39.99939%,39.99939%);fill-opacity:0.3;" d="M 116.777344 83.679688 L 118.457031 79.371094 L 119.464844 79.527344 L 129.386719 87.476562 L 128.554688 111.390625 L 112.753906 107.917969 L 113.921875 90.539062 Z M 116.777344 83.679688 "/>
<path style=" stroke:none;fill-rule:nonzero;fill:rgb(39.99939%,39.99939%,39.99939%);fill-opacity:0.3;" d="M 84.316406 56.371094 L 84.898438 57.582031 L 74.628906 74.515625 L 79.332031 65.722656 Z M 84.316406 56.371094 "/>
<path style=" stroke:none;fill-rule:nonzero;fill:rgb(39.99939%,39.99939%,39.99939%);fill-opacity:0.3;" d="M 161.117188 236.765625 L 178.664062 239.234375 L 174.796875 285.617188 L 156.394531 282.511719 Z M 161.117188 236.765625 "/>
<path style=" stroke:none;fill-rule:nonzero;fill:rgb(39.99939%,39.99939%,39.99939%);fill-opacity:0.3;" d="M 184.433594 236.953125 L 213.859375 241.398438 L 257.011719 247.917969 L 289.9375 305.328125 L 209.960938 291.601562 L 180.621094 286.566406 Z M 184.433594 236.953125 "/>
<path style=" stroke:none;fill-rule:nonzero;fill:rgb(39.99939%,39.99939%,39.99939%);fill-opacity:0.3;" d="M 190.125 175.726562 L 191.019531 172.746094 L 192.367188 170.402344 L 194.046875 168.695312 L 197.414062 166.878906 L 200.667969 165.597656 L 204.148438 165.269531 L 206.839844 166.75 L 209.535156 169.085938 L 212.007812 173.441406 L 253.800781 243.824219 L 203.71875 236.492188 L 184.613281 233.695312 L 186.035156 218.730469 Z M 190.125 175.726562 "/>
<path style=" stroke:none;fill-rule:nonzero;fill:rgb(39.99939%,39.99939%,39.99939%);fill-opacity:0.3;" d="M 166.085938 181.726562 L 183.542969 183.769531 L 178.84375 236.636719 L 161.480469 234.167969 Z M 166.085938 181.726562 "/>
<path style=" stroke:none;fill-rule:nonzero;fill:rgb(39.99939%,39.99939%,39.99939%);fill-opacity:0.3;" d="M 308.570312 308.570312 L 307.550781 308.402344 L 307.742188 306.871094 L 308.203125 307.746094 Z M 308.570312 308.570312 "/>
<path style=" stroke:none;fill-rule:nonzero;fill:rgb(39.99939%,39.99939%,39.99939%);fill-opacity:0.3;" d="M 55.027344 222.203125 L 75.132812 225.011719 L 71.21875 269.023438 L 51.429688 265.746094 Z M 55.027344 222.203125 "/>
<path style=" stroke:none;fill-rule:nonzero;fill:rgb(39.99939%,39.99939%,39.99939%);fill-opacity:0.3;" d="M 78.695312 225.347656 L 97.980469 228.15625 L 93.964844 272.992188 L 74.175781 269.625 Z M 78.695312 225.347656 "/>
<path style=" stroke:none;fill-rule:nonzero;fill:rgb(39.99939%,39.99939%,39.99939%);fill-opacity:0.3;" d="M 102 228.492188 L 118.175781 230.789062 L 114.125 276.179688 L 97.941406 273.59375 Z M 102 228.492188 "/>
<path style=" stroke:none;fill-rule:nonzero;fill:rgb(39.99939%,39.99939%,39.99939%);fill-opacity:0.3;" d="M 120.917969 231.128906 L 139.363281 233.703125 L 134.730469 279.355469 L 117.269531 276.609375 Z M 120.917969 231.128906 "/>
<path style=" stroke:none;fill-rule:nonzero;fill:rgb(39.99939%,39.99939%,39.99939%);fill-opacity:0.3;" d="M 142.652344 234.125 L 157.367188 236.167969 L 153.433594 282.082031 L 138.058594 279.699219 Z M 142.652344 234.125 "/>
<path style=" stroke:none;fill-rule:nonzero;fill:rgb(39.99939%,39.99939%,39.99939%);fill-opacity:0.3;" d="M 147.3125 179.378906 L 162.246094 181.320312 L 157.730469 233.828125 L 142.835938 231.875 Z M 147.3125 179.378906 "/>
<path style=" stroke:none;fill-rule:nonzero;fill:rgb(39.99939%,39.99939%,39.99939%);fill-opacity:0.3;" d="M 125.832031 176.917969 L 144.128906 178.972656 L 139.453125 231.449219 L 121.28125 228.875 Z M 125.832031 176.917969 "/>
<path style=" stroke:none;fill-rule:nonzero;fill:rgb(39.99939%,39.99939%,39.99939%);fill-opacity:0.3;" d="M 106.839844 174.570312 L 122.757812 176.613281 L 118.265625 228.539062 L 102.183594 226.5 Z M 106.839844 174.570312 "/>
<path style=" stroke:none;fill-rule:nonzero;fill:rgb(39.99939%,39.99939%,39.99939%);fill-opacity:0.3;" d="M 84.003906 171.917969 L 102.445312 174.164062 L 98.160156 225.902344 L 78.875 223.269531 Z M 84.003906 171.917969 "/>
<path style=" stroke:none;fill-rule:nonzero;fill:rgb(39.99939%,39.99939%,39.99939%);fill-opacity:0.3;" d="M 59.628906 168.859375 L 79.609375 171.410156 L 75.222656 222.757812 L 55.296875 220.296875 Z M 59.628906 168.859375 "/>
<path style=" stroke:none;fill-rule:nonzero;fill:rgb(39.99939%,39.99939%,39.99939%);fill-opacity:0.3;" d="M 70.558594 102.4375 L 85.351562 106.070312 L 79.734375 167.960938 L 59.972656 165.511719 L 64.824219 121.226562 L 65.476562 116.421875 L 66.457031 113.472656 Z M 70.558594 102.4375 "/>
<path style=" stroke:none;fill-rule:nonzero;fill:rgb(39.99939%,39.99939%,39.99939%);fill-opacity:0.3;" d="M 89.890625 106.855469 L 107.878906 110.960938 L 102.898438 170.714844 L 84.34375 168.46875 Z M 89.890625 106.855469 "/>
<path style=" stroke:none;fill-rule:nonzero;fill:rgb(39.99939%,39.99939%,39.99939%);fill-opacity:0.3;" d="M 112.082031 112.066406 L 128.050781 115.855469 L 122.988281 173.164062 L 107.179688 171.121094 Z M 112.082031 112.066406 "/>
<path style=" stroke:none;fill-rule:nonzero;fill:rgb(39.99939%,39.99939%,39.99939%);fill-opacity:0.3;" d="M 100.96875 61.390625 L 104.164062 63.296875 L 105.34375 67.121094 L 105.34375 71.109375 L 85.855469 102.242188 L 71.273438 98.800781 L 92.902344 62.046875 L 97.777344 61.238281 Z M 100.96875 61.390625 "/>
<g clip-path="url(#clip11)" clip-rule="nonzero">
<path style=" stroke:none;fill-rule:nonzero;fill:rgb(39.99939%,39.99939%,39.99939%);fill-opacity:0.3;" d="M 46.851562 319.757812 L 85.496094 325.695312 L 78.707031 362.5625 L 74.257812 387.292969 L 35.847656 380.554688 L 23.445312 360.238281 Z M 46.851562 319.757812 "/>
</g>
<g clip-path="url(#clip12)" clip-rule="nonzero">
<path style=" stroke:none;fill-rule:nonzero;fill:rgb(39.99939%,39.99939%,39.99939%);fill-opacity:0.3;" d="M 88.738281 326.75 L 125.242188 332.585938 L 113.738281 393.726562 L 78.269531 388.289062 Z M 88.738281 326.75 "/>
</g>
<g clip-path="url(#clip13)" clip-rule="nonzero">
<path style=" stroke:none;fill-rule:nonzero;fill:rgb(39.99939%,39.99939%,39.99939%);fill-opacity:0.3;" d="M 169.992188 339.558594 L 229.933594 349.609375 L 222.765625 391.132812 L 224.191406 391.398438 L 225.613281 391.664062 L 229.363281 372.292969 L 260.675781 377.589844 L 260.863281 376.515625 L 261.046875 375.445312 L 230.003906 369.902344 L 233.488281 349.769531 L 278.941406 358.785156 L 277.484375 372.78125 L 278.445312 372.8125 L 279.410156 372.84375 L 281.007812 359.253906 L 327.800781 368.671875 L 368.558594 436.816406 L 162.425781 401.859375 L 160.332031 397.355469 Z M 169.992188 339.558594 "/>
</g>
<path style=" stroke:none;fill-rule:nonzero;fill:rgb(39.99939%,39.99939%,39.99939%);fill-opacity:0.3;" d="M 177.933594 293.875 L 210.332031 299.363281 L 201.839844 342.28125 L 171.265625 337.644531 Z M 177.933594 293.875 "/>
<path style=" stroke:none;fill-rule:nonzero;fill:rgb(39.99939%,39.99939%,39.99939%);fill-opacity:0.3;" d="M 214.191406 300.675781 L 232.066406 303.675781 L 229.03125 324.207031 L 224.355469 346.019531 L 206.582031 343.726562 L 210.785156 321.484375 L 220.226562 322.601562 L 220.464844 321.070312 L 220.699219 319.539062 L 211.542969 317.800781 Z M 214.191406 300.675781 "/>
<path style=" stroke:none;fill-rule:nonzero;fill:rgb(39.99939%,39.99939%,39.99939%);fill-opacity:0.3;" d="M 235.566406 304.296875 L 249.847656 306.679688 L 249.054688 311.636719 L 248.867188 314.589844 L 248.683594 317.722656 L 248.21875 321.746094 L 243.023438 350.03125 L 227.378906 346.875 Z M 235.566406 304.296875 "/>
<path style=" stroke:none;fill-rule:nonzero;fill:rgb(39.99939%,39.99939%,39.99939%);fill-opacity:0.3;" d="M 252.074219 306.953125 L 262.761719 308.71875 L 261.820312 313.460938 L 262.765625 313.460938 L 256.359375 352.691406 L 245.378906 350.359375 Z M 252.074219 306.953125 "/>
<g clip-path="url(#clip14)" clip-rule="nonzero">
<path style=" stroke:none;fill-rule:nonzero;fill:rgb(39.99939%,39.99939%,39.99939%);fill-opacity:0.3;" d="M 265.03125 309.160156 L 296.433594 314.457031 L 323.617188 361.296875 L 323.621094 363.144531 L 323.269531 363.984375 L 322.558594 364.828125 L 321.464844 365.136719 L 269.160156 355.015625 L 270.902344 339.390625 L 270.191406 338.890625 L 269.476562 338.386719 L 267.402344 354.632812 L 258.492188 352.6875 Z M 265.03125 309.160156 "/>
</g>
<g clip-path="url(#clip15)" clip-rule="nonzero">
<path style=" stroke:none;fill-rule:nonzero;fill:rgb(39.99939%,39.99939%,39.99939%);fill-opacity:0.3;" d="M 128.296875 333.011719 L 166.175781 338.84375 L 153.761719 400.371094 L 117.535156 394.308594 Z M 128.296875 333.011719 "/>
</g>
<path style=" stroke:none;fill-rule:nonzero;fill:rgb(39.99939%,39.99939%,39.99939%);fill-opacity:0.3;" d="M 51.585938 272.253906 L 94.074219 278.957031 L 85.34375 323.101562 L 47.617188 317 Z M 51.585938 272.253906 "/>
<path style=" stroke:none;fill-rule:nonzero;fill:rgb(39.99939%,39.99939%,39.99939%);fill-opacity:0.3;" d="M 97.511719 280.355469 L 133.824219 286.351562 L 126.148438 329.984375 L 89.03125 324.007812 Z M 97.511719 280.355469 "/>
<path style=" stroke:none;fill-rule:nonzero;fill:rgb(39.99939%,39.99939%,39.99939%);fill-opacity:0.3;" d="M 136.699219 286.90625 L 174.054688 293.167969 L 167.484375 330.710938 L 166.640625 334.078125 L 165.648438 335.558594 L 164.367188 336.101562 L 128.59375 330.558594 Z M 136.699219 286.90625 "/>
<path style=" stroke:none;fill-rule:nonzero;fill:rgb(39.99939%,39.99939%,39.99939%);fill-opacity:0.3;" d="M 27.351562 -11.4375 L 43.273438 3.722656 L 40.105469 39.820312 L 23.074219 37.765625 Z M 27.351562 -11.4375 "/>
<path style=" stroke:none;fill-rule:nonzero;fill:rgb(39.99939%,39.99939%,39.99939%);fill-opacity:0.3;" d="M 46.679688 6.65625 L 83.15625 41.132812 L 82.738281 44.527344 L 43.785156 40.113281 Z M 46.679688 6.65625 "/>
<path style=" stroke:none;fill-rule:nonzero;fill:rgb(39.99939%,39.99939%,39.99939%);fill-opacity:0.3;" d="M -10.828125 -26.851562 L 4.144531 -30.464844 L -1.738281 34.980469 L -16.144531 33.21875 Z M -10.828125 -26.851562 "/>
<path style=" stroke:none;fill-rule:nonzero;fill:rgb(39.99939%,39.99939%,39.99939%);fill-opacity:0.3;" d="M 9.390625 -28.339844 L 25.207031 -13.660156 L 20.234375 37.273438 L 4.570312 35.613281 Z M 9.390625 -28.339844 "/>
<path style=" stroke:none;fill-rule:nonzero;fill:rgb(39.99939%,39.99939%,39.99939%);fill-opacity:0.3;" d="M 87.289062 -44.011719 L 78.269531 17.050781 L 60.964844 0.675781 L 66.988281 -40.984375 Z M 87.289062 -44.011719 "/>
<path style=" stroke:none;fill-rule:nonzero;fill:rgb(39.99939%,39.99939%,39.99939%);fill-opacity:0.3;" d="M 90.292969 -44.5625 L 109.738281 -47.859375 L 98.207031 33.527344 L 81.007812 19.765625 Z M 90.292969 -44.5625 "/>
<path style=" stroke:none;fill-rule:nonzero;fill:rgb(39.99939%,39.99939%,39.99939%);fill-opacity:0.3;" d="M 112.476562 34.34375 L 109.90625 33.714844 L 108.253906 32.097656 L 118.183594 -48.851562 L 158.257812 -53.824219 Z M 112.476562 34.34375 "/>
<path style="fill-rule:nonzero;fill:rgb(39.99939%,39.99939%,39.99939%);fill-opacity:1;stroke-width:0.03;stroke-linecap:square;stroke-linejoin:miter;stroke:rgb(39.99939%,39.99939%,39.99939%);stroke-opacity:1;stroke-miterlimit:3.239307;" d="M 206.582031 103.179688 L 271.273438 165.1875 L 271.386719 169.976562 L 270.730469 174.140625 L 269.195312 177.890625 L 266.808594 180.117188 L 265.015625 181.609375 L 265.347656 177.035156 L 262.050781 177.152344 L 258.753906 177.273438 L 257.761719 193.4375 L 240.304688 191.292969 L 241.605469 174.746094 L 237.988281 174.441406 L 236.460938 190.78125 L 221.582031 189.019531 L 223.328125 167.886719 L 221.734375 167.683594 L 220.144531 167.476562 L 218.289062 188.609375 L 200.308594 186.71875 L 204.40625 129.167969 L 221.691406 133.125 L 220.621094 145.25 L 222.503906 145.117188 L 223.84375 132.609375 L 222.230469 130.058594 L 205.269531 126.269531 Z M 206.582031 103.179688 " transform="matrix(1,0,0,1,-74,-13)"/>
<path style="fill-rule:nonzero;fill:rgb(39.99939%,39.99939%,39.99939%);fill-opacity:1;stroke-width:0.03;stroke-linecap:square;stroke-linejoin:miter;stroke:rgb(39.99939%,39.99939%,39.99939%);stroke-opacity:1;stroke-miterlimit:3.239307;" d="M 184.21875 82.023438 L 192.121094 87.746094 L 187.921875 96.523438 L 186.578125 100.195312 L 181.375 119.976562 L 164.597656 116.570312 Z M 184.21875 82.023438 " transform="matrix(1,0,0,1,-74,-13)"/>
<path style="fill-rule:nonzero;fill:rgb(39.99939%,39.99939%,39.99939%);fill-opacity:1;stroke-width:0.03;stroke-linecap:square;stroke-linejoin:miter;stroke:rgb(39.99939%,39.99939%,39.99939%);stroke-opacity:1;stroke-miterlimit:3.239307;" d="M 190.777344 96.679688 L 192.457031 92.371094 L 193.464844 92.527344 L 203.386719 100.476562 L 202.554688 124.390625 L 186.753906 120.917969 L 187.921875 103.539062 Z M 190.777344 96.679688 " transform="matrix(1,0,0,1,-74,-13)"/>
<path style="fill-rule:nonzero;fill:rgb(39.99939%,39.99939%,39.99939%);fill-opacity:1;stroke-width:0.03;stroke-linecap:square;stroke-linejoin:miter;stroke:rgb(39.99939%,39.99939%,39.99939%);stroke-opacity:1;stroke-miterlimit:3.239307;" d="M 158.316406 69.371094 L 158.898438 70.582031 L 148.628906 87.515625 L 153.332031 78.722656 Z M 158.316406 69.371094 " transform="matrix(1,0,0,1,-74,-13)"/>
<path style="fill-rule:nonzero;fill:rgb(39.99939%,39.99939%,39.99939%);fill-opacity:1;stroke-width:0.03;stroke-linecap:square;stroke-linejoin:miter;stroke:rgb(39.99939%,39.99939%,39.99939%);stroke-opacity:1;stroke-miterlimit:3.239307;" d="M 235.117188 249.765625 L 252.664062 252.234375 L 248.796875 298.617188 L 230.394531 295.511719 Z M 235.117188 249.765625 " transform="matrix(1,0,0,1,-74,-13)"/>
<path style="fill-rule:nonzero;fill:rgb(39.99939%,39.99939%,39.99939%);fill-opacity:1;stroke-width:0.03;stroke-linecap:square;stroke-linejoin:miter;stroke:rgb(39.99939%,39.99939%,39.99939%);stroke-opacity:1;stroke-miterlimit:3.239307;" d="M 258.433594 249.953125 L 287.859375 254.398438 L 331.011719 260.917969 L 363.9375 318.328125 L 283.960938 304.601562 L 254.621094 299.566406 Z M 258.433594 249.953125 " transform="matrix(1,0,0,1,-74,-13)"/>
<path style="fill-rule:nonzero;fill:rgb(39.99939%,39.99939%,39.99939%);fill-opacity:1;stroke-width:0.03;stroke-linecap:square;stroke-linejoin:miter;stroke:rgb(39.99939%,39.99939%,39.99939%);stroke-opacity:1;stroke-miterlimit:3.239307;" d="M 264.125 188.726562 L 265.019531 185.746094 L 266.367188 183.402344 L 268.046875 181.695312 L 271.414062 179.878906 L 274.667969 178.597656 L 278.148438 178.269531 L 280.839844 179.75 L 283.535156 182.085938 L 286.007812 186.441406 L 327.800781 256.824219 L 277.71875 249.492188 L 258.613281 246.695312 L 260.035156 231.730469 Z M 264.125 188.726562 " transform="matrix(1,0,0,1,-74,-13)"/>
<path style="fill-rule:nonzero;fill:rgb(39.99939%,39.99939%,39.99939%);fill-opacity:1;stroke-width:0.03;stroke-linecap:square;stroke-linejoin:miter;stroke:rgb(39.99939%,39.99939%,39.99939%);stroke-opacity:1;stroke-miterlimit:3.239307;" d="M 240.085938 194.726562 L 257.542969 196.769531 L 252.84375 249.636719 L 235.480469 247.167969 Z M 240.085938 194.726562 " transform="matrix(1,0,0,1,-74,-13)"/>
<path style="fill-rule:nonzero;fill:rgb(39.99939%,39.99939%,39.99939%);fill-opacity:1;stroke-width:0.03;stroke-linecap:square;stroke-linejoin:miter;stroke:rgb(39.99939%,39.99939%,39.99939%);stroke-opacity:1;stroke-miterlimit:3.239307;" d="M 382.570312 321.570312 L 381.550781 321.402344 L 381.742188 319.871094 L 382.203125 320.746094 Z M 382.570312 321.570312 " transform="matrix(1,0,0,1,-74,-13)"/>
<path style="fill-rule:nonzero;fill:rgb(39.99939%,39.99939%,39.99939%);fill-opacity:1;stroke-width:0.03;stroke-linecap:square;stroke-linejoin:miter;stroke:rgb(39.99939%,39.99939%,39.99939%);stroke-opacity:1;stroke-miterlimit:3.239307;" d="M 129.027344 235.203125 L 149.132812 238.011719 L 145.21875 282.023438 L 125.429688 278.746094 Z M 129.027344 235.203125 " transform="matrix(1,0,0,1,-74,-13)"/>
<path style="fill-rule:nonzero;fill:rgb(39.99939%,39.99939%,39.99939%);fill-opacity:1;stroke-width:0.03;stroke-linecap:square;stroke-linejoin:miter;stroke:rgb(39.99939%,39.99939%,39.99939%);stroke-opacity:1;stroke-miterlimit:3.239307;" d="M 152.695312 238.347656 L 171.980469 241.15625 L 167.964844 285.992188 L 148.175781 282.625 Z M 152.695312 238.347656 " transform="matrix(1,0,0,1,-74,-13)"/>
<path style="fill-rule:nonzero;fill:rgb(39.99939%,39.99939%,39.99939%);fill-opacity:1;stroke-width:0.03;stroke-linecap:square;stroke-linejoin:miter;stroke:rgb(39.99939%,39.99939%,39.99939%);stroke-opacity:1;stroke-miterlimit:3.239307;" d="M 176 241.492188 L 192.175781 243.789062 L 188.125 289.179688 L 171.941406 286.59375 Z M 176 241.492188 " transform="matrix(1,0,0,1,-74,-13)"/>
<path style="fill-rule:nonzero;fill:rgb(39.99939%,39.99939%,39.99939%);fill-opacity:1;stroke-width:0.03;stroke-linecap:square;stroke-linejoin:miter;stroke:rgb(39.99939%,39.99939%,39.99939%);stroke-opacity:1;stroke-miterlimit:3.239307;" d="M 194.917969 244.128906 L 213.363281 246.703125 L 208.730469 292.355469 L 191.269531 289.609375 Z M 194.917969 244.128906 " transform="matrix(1,0,0,1,-74,-13)"/>
<path style="fill-rule:nonzero;fill:rgb(39.99939%,39.99939%,39.99939%);fill-opacity:1;stroke-width:0.03;stroke-linecap:square;stroke-linejoin:miter;stroke:rgb(39.99939%,39.99939%,39.99939%);stroke-opacity:1;stroke-miterlimit:3.239307;" d="M 216.652344 247.125 L 231.367188 249.167969 L 227.433594 295.082031 L 212.058594 292.699219 Z M 216.652344 247.125 " transform="matrix(1,0,0,1,-74,-13)"/>
<path style="fill-rule:nonzero;fill:rgb(39.99939%,39.99939%,39.99939%);fill-opacity:1;stroke-width:0.03;stroke-linecap:square;stroke-linejoin:miter;stroke:rgb(39.99939%,39.99939%,39.99939%);stroke-opacity:1;stroke-miterlimit:3.239307;" d="M 221.3125 192.378906 L 236.246094 194.320312 L 231.730469 246.828125 L 216.835938 244.875 Z M 221.3125 192.378906 " transform="matrix(1,0,0,1,-74,-13)"/>
<path style="fill-rule:nonzero;fill:rgb(39.99939%,39.99939%,39.99939%);fill-opacity:1;stroke-width:0.03;stroke-linecap:square;stroke-linejoin:miter;stroke:rgb(39.99939%,39.99939%,39.99939%);stroke-opacity:1;stroke-miterlimit:3.239307;" d="M 199.832031 189.917969 L 218.128906 191.972656 L 213.453125 244.449219 L 195.28125 241.875 Z M 199.832031 189.917969 " transform="matrix(1,0,0,1,-74,-13)"/>
<path style="fill-rule:nonzero;fill:rgb(39.99939%,39.99939%,39.99939%);fill-opacity:1;stroke-width:0.03;stroke-linecap:square;stroke-linejoin:miter;stroke:rgb(39.99939%,39.99939%,39.99939%);stroke-opacity:1;stroke-miterlimit:3.239307;" d="M 180.839844 187.570312 L 196.757812 189.613281 L 192.265625 241.539062 L 176.183594 239.5 Z M 180.839844 187.570312 " transform="matrix(1,0,0,1,-74,-13)"/>
<path style="fill-rule:nonzero;fill:rgb(39.99939%,39.99939%,39.99939%);fill-opacity:1;stroke-width:0.03;stroke-linecap:square;stroke-linejoin:miter;stroke:rgb(39.99939%,39.99939%,39.99939%);stroke-opacity:1;stroke-miterlimit:3.239307;" d="M 158.003906 184.917969 L 176.445312 187.164062 L 172.160156 238.902344 L 152.875 236.269531 Z M 158.003906 184.917969 " transform="matrix(1,0,0,1,-74,-13)"/>
<path style="fill-rule:nonzero;fill:rgb(39.99939%,39.99939%,39.99939%);fill-opacity:1;stroke-width:0.03;stroke-linecap:square;stroke-linejoin:miter;stroke:rgb(39.99939%,39.99939%,39.99939%);stroke-opacity:1;stroke-miterlimit:3.239307;" d="M 133.628906 181.859375 L 153.609375 184.410156 L 149.222656 235.757812 L 129.296875 233.296875 Z M 133.628906 181.859375 " transform="matrix(1,0,0,1,-74,-13)"/>
<path style="fill-rule:nonzero;fill:rgb(39.99939%,39.99939%,39.99939%);fill-opacity:1;stroke-width:0.03;stroke-linecap:square;stroke-linejoin:miter;stroke:rgb(39.99939%,39.99939%,39.99939%);stroke-opacity:1;stroke-miterlimit:3.239307;" d="M 144.558594 115.4375 L 159.351562 119.070312 L 153.734375 180.960938 L 133.972656 178.511719 L 138.824219 134.226562 L 139.476562 129.421875 L 140.457031 126.472656 Z M 144.558594 115.4375 " transform="matrix(1,0,0,1,-74,-13)"/>
<path style="fill-rule:nonzero;fill:rgb(39.99939%,39.99939%,39.99939%);fill-opacity:1;stroke-width:0.03;stroke-linecap:square;stroke-linejoin:miter;stroke:rgb(39.99939%,39.99939%,39.99939%);stroke-opacity:1;stroke-miterlimit:3.239307;" d="M 163.890625 119.855469 L 181.878906 123.960938 L 176.898438 183.714844 L 158.34375 181.46875 Z M 163.890625 119.855469 " transform="matrix(1,0,0,1,-74,-13)"/>
<path style="fill-rule:nonzero;fill:rgb(39.99939%,39.99939%,39.99939%);fill-opacity:1;stroke-width:0.03;stroke-linecap:square;stroke-linejoin:miter;stroke:rgb(39.99939%,39.99939%,39.99939%);stroke-opacity:1;stroke-miterlimit:3.239307;" d="M 186.082031 125.066406 L 202.050781 128.855469 L 196.988281 186.164062 L 181.179688 184.121094 Z M 186.082031 125.066406 " transform="matrix(1,0,0,1,-74,-13)"/>
<path style="fill-rule:nonzero;fill:rgb(39.99939%,39.99939%,39.99939%);fill-opacity:1;stroke-width:0.03;stroke-linecap:square;stroke-linejoin:miter;stroke:rgb(39.99939%,39.99939%,39.99939%);stroke-opacity:1;stroke-miterlimit:3.239307;" d="M 174.96875 74.390625 L 178.164062 76.296875 L 179.34375 80.121094 L 179.34375 84.109375 L 159.855469 115.242188 L 145.273438 111.800781 L 166.902344 75.046875 L 171.777344 74.238281 Z M 174.96875 74.390625 " transform="matrix(1,0,0,1,-74,-13)"/>
<path style=" stroke:none;fill-rule:evenodd;fill:rgb(85.096741%,85.096741%,81.959534%);fill-opacity:0.7;" d="M 357.214844 149 C 357.214844 145.230469 355.71875 141.613281 353.050781 138.949219 C 350.386719 136.28125 346.769531 134.785156 343 134.785156 C 339.230469 134.785156 335.613281 136.28125 332.949219 138.949219 C 330.28125 141.613281 328.785156 145.230469 328.785156 149 C 328.785156 152.769531 330.28125 156.386719 332.949219 159.050781 C 335.613281 161.71875 339.230469 163.214844 343 163.214844 C 346.769531 163.214844 350.386719 161.71875 353.050781 159.050781 C 355.71875 156.386719 357.214844 152.769531 357.214844 149 Z M 357.214844 149 "/>
</g>
</svg>
