<?xml version="1.0" encoding="UTF-8"?>
<svg xmlns="http://www.w3.org/2000/svg" xmlns:xlink="http://www.w3.org/1999/xlink" width="361pt" height="361pt" viewBox="0 0 361 361" version="1.1">
<defs>
<clipPath id="clip1">
  <path d="M 235 0 L 360 0 L 360 90 L 235 90 Z M 235 0 "/>
</clipPath>
<clipPath id="clip2">
  <path d="M 148 301 L 197 301 L 197 360 L 148 360 Z M 148 301 "/>
</clipPath>
<clipPath id="clip3">
  <path d="M 193 310 L 248 310 L 248 360 L 193 360 Z M 193 310 "/>
</clipPath>
<clipPath id="clip4">
  <path d="M 272 179 L 360 179 L 360 330 L 272 330 Z M 272 179 "/>
</clipPath>
<clipPath id="clip5">
  <path d="M 350 332 L 360 332 L 360 360 L 350 360 Z M 350 332 "/>
</clipPath>
<clipPath id="clip6">
  <path d="M 289 325 L 358 325 L 358 360 L 289 360 Z M 289 325 "/>
</clipPath>
<clipPath id="clip7">
  <path d="M 240 317 L 305 317 L 305 360 L 240 360 Z M 240 317 "/>
</clipPath>
<clipPath id="clip8">
  <path d="M 312 225 L 360 225 L 360 326 L 312 326 Z M 312 225 "/>
</clipPath>
<clipPath id="clip9">
  <path d="M 334 162 L 360 162 L 360 186 L 334 186 Z M 334 162 "/>
</clipPath>
<clipPath id="clip10">
  <path d="M 277 88 L 360 88 L 360 183 L 277 183 Z M 277 88 "/>
</clipPath>
<clipPath id="clip11">
  <path d="M 357 122 L 360 122 L 360 152 L 357 152 Z M 357 122 "/>
</clipPath>
<clipPath id="clip12">
  <path d="M 28 313 L 97 313 L 97 360 L 28 360 Z M 28 313 "/>
</clipPath>
<clipPath id="clip13">
  <path d="M 107 357 L 118 357 L 118 360 L 107 360 Z M 107 357 "/>
</clipPath>
<clipPath id="clip14">
  <path d="M 93 355 L 104 355 L 104 360 L 93 360 Z M 93 355 "/>
</clipPath>
<clipPath id="clip15">
  <path d="M 80 352 L 91 352 L 91 360 L 80 360 Z M 80 352 "/>
</clipPath>
<clipPath id="clip16">
  <path d="M 66 350 L 77 350 L 77 360 L 66 360 Z M 66 350 "/>
</clipPath>
<clipPath id="clip17">
  <path d="M 50 359 L 61 359 L 61 360 L 50 360 Z M 50 359 "/>
</clipPath>
<clipPath id="clip18">
  <path d="M 138 340 L 326 340 L 326 360 L 138 360 Z M 138 340 "/>
</clipPath>
<clipPath id="clip19">
  <path d="M 99 342 L 316 342 L 316 360 L 99 360 Z M 99 342 "/>
</clipPath>
<clipPath id="clip20">
  <path d="M 0 289 L 38 289 L 38 360 L 0 360 Z M 0 289 "/>
</clipPath>
</defs>
<g id="surface2422">
<path style="fill-rule:nonzero;fill:rgb(0%,0%,0%);fill-opacity:1;stroke-width:0.03;stroke-linecap:square;stroke-linejoin:miter;stroke:rgb(0%,0%,0%);stroke-opacity:1;stroke-miterlimit:10;" d="M 0 178 L 360 178 L 360 -182 L 0 -182 Z M 0 178 " transform="matrix(1,0,0,1,0,182)"/>
<path style=" stroke:none;fill-rule:nonzero;fill:rgb(39.99939%,39.99939%,39.99939%);fill-opacity:0.3;" d="M 165.871094 -71.59375 L 217.28125 -82.882812 L 222.847656 -83.808594 L 227.929688 -84.964844 L 232.28125 -84.984375 L 236.035156 -85.539062 L 244.757812 -86.128906 L 250.746094 -84.359375 L 253 -79.398438 L 243.007812 -6.640625 L 231.4375 63.550781 L 191.113281 57.792969 Z M 165.871094 -71.59375 "/>
<path style=" stroke:none;fill-rule:nonzero;fill:rgb(39.99939%,39.99939%,39.99939%);fill-opacity:0.3;" d="M 155.28125 -69.875 L 159.785156 -67.359375 L 186.277344 58.28125 L 107.402344 35.269531 L 105.960938 33.054688 L 104.800781 30.109375 L 104.304688 26.152344 L 121.195312 -56.324219 L 126.539062 -73.136719 Z M 155.28125 -69.875 "/>
<g clip-path="url(#clip1)" clip-rule="nonzero">
<path style=" stroke:none;fill-rule:nonzero;fill:rgb(39.99939%,39.99939%,39.99939%);fill-opacity:0.3;" d="M 258.769531 -85.222656 L 324.617188 -83.773438 L 309.945312 -27.40625 L 311.269531 -27.140625 L 312.59375 -26.871094 L 327.875 -83.761719 L 393.898438 -82.433594 L 388.238281 -41.792969 L 385.5625 -36.503906 L 391.558594 -32.792969 L 392.277344 -33.96875 L 393 -35.144531 L 389.074219 -37.097656 L 391.132812 -40.625 L 396.148438 -82.242188 L 446.195312 -81.207031 L 431.683594 5.203125 L 404.082031 3.109375 L 403.945312 4.484375 L 403.824219 5.71875 L 430.804688 7.953125 L 421.101562 89.371094 L 371.988281 84.542969 L 383.597656 25.605469 L 384.085938 19.011719 L 383.191406 14.386719 L 384.070312 9.757812 L 386.789062 6.273438 L 389.382812 1.335938 L 391.148438 -5.398438 L 391.140625 -10.867188 L 389.460938 -11.925781 L 387.035156 -13.527344 L 383.589844 -15.484375 L 382.171875 -16.980469 L 380.402344 -18.84375 L 378.550781 -18.628906 L 375.980469 -18.332031 L 379.152344 -15.058594 L 384.574219 -11.96875 L 386.703125 -10.441406 L 386.710938 -4.972656 L 384.945312 1.761719 L 382.292969 6.8125 L 379.671875 10.136719 L 378.753906 14.8125 L 379.648438 19.4375 L 379.214844 25.75 L 368.488281 84.390625 L 355.910156 83.597656 L 339.824219 81.585938 L 345.210938 47.136719 L 347.683594 31.332031 L 341.742188 25.332031 L 339.222656 22.785156 L 336.921875 20.464844 L 335.546875 19.078125 L 337.464844 12.023438 L 333.605469 9.679688 L 331.757812 16.570312 L 330.074219 21.773438 L 323.25 42.8125 L 319.953125 41.84375 L 319.320312 43.894531 L 318.71875 45.84375 L 329.09375 49.15625 L 329.703125 47.074219 L 330.277344 45.109375 L 326.4375 43.78125 L 331.941406 28.105469 L 333.527344 26.980469 L 334.734375 26.128906 L 343.4375 31.398438 L 336.492188 80.957031 L 235.671875 64.4375 L 249.394531 -18.335938 L 259.03125 -17.824219 L 258.980469 -15.273438 L 259.957031 -15.128906 L 260.773438 -15.011719 L 261.207031 -24.097656 L 260.300781 -24.058594 L 259.234375 -24.066406 L 259.078125 -20.757812 L 249.804688 -21.21875 Z M 258.769531 -85.222656 "/>
</g>
<g clip-path="url(#clip2)" clip-rule="nonzero">
<path style=" stroke:none;fill-rule:nonzero;fill:rgb(39.99939%,39.99939%,39.99939%);fill-opacity:0.3;" d="M 148.542969 340.441406 L 149.941406 337.574219 L 151.902344 333.550781 L 153.914062 328.570312 L 153.875 325.105469 L 153.3125 322.511719 L 153.359375 321.976562 L 152.921875 320.703125 L 152.886719 320.53125 L 152.828125 320.429688 L 148.929688 309.078125 L 150.132812 301.070312 L 196.503906 309.332031 L 188.742188 370.992188 L 169.636719 356.167969 L 169.886719 354.960938 L 168.933594 352.21875 L 166.664062 350.296875 L 163.6875 349.714844 L 160.800781 350.617188 L 159.605469 351.628906 L 158.777344 352.773438 L 158.160156 355.597656 L 159.113281 358.339844 L 161.382812 360.257812 L 164.359375 360.84375 L 167.246094 359.9375 L 182.648438 371.722656 L 150.878906 356.769531 Z M 148.542969 340.441406 "/>
</g>
<path style=" stroke:none;fill-rule:nonzero;fill:rgb(39.99939%,39.99939%,39.99939%);fill-opacity:0.3;" d="M 159.941406 296.714844 L 158.664062 300.726562 L 150.367188 299.496094 L 150.390625 299.34375 L 153.074219 265.355469 L 154.339844 260.828125 L 156.785156 256.835938 L 158.359375 254.507812 L 161.121094 251.945312 L 163.652344 249.730469 L 167.902344 246.265625 L 172.6875 242.421875 L 182.019531 234.480469 L 186.636719 230.929688 L 190.464844 227.660156 L 193.410156 224.761719 L 196.359375 222.613281 L 199.207031 220.183594 L 202.351562 217.941406 L 206.585938 215.402344 L 209.902344 213.410156 L 196.875 303.085938 L 182.296875 301.058594 L 182.351562 299.632812 Z M 159.941406 296.714844 "/>
<g clip-path="url(#clip3)" clip-rule="nonzero">
<path style=" stroke:none;fill-rule:nonzero;fill:rgb(39.99939%,39.99939%,39.99939%);fill-opacity:0.3;" d="M 200.753906 310.691406 L 247.703125 316.371094 L 232.320312 420.609375 L 227.007812 414.730469 L 193.121094 376.699219 L 193.246094 373.820312 L 199.820312 375.734375 L 207.011719 380.554688 L 207.292969 376.648438 L 207.570312 372.742188 L 193.746094 368.898438 Z M 200.753906 310.691406 "/>
</g>
<g clip-path="url(#clip4)" clip-rule="nonzero">
<path style=" stroke:none;fill-rule:nonzero;fill:rgb(39.99939%,39.99939%,39.99939%);fill-opacity:0.3;" d="M 331.496094 180.746094 L 331.1875 183.242188 L 360.183594 186.519531 L 360.871094 198.847656 L 394.292969 278.929688 L 388.144531 329.546875 L 363.441406 326.71875 L 366.046875 302.214844 L 336.253906 228.503906 L 333.980469 224.078125 L 329.832031 222.652344 L 272.125 214.867188 L 273.710938 205.523438 L 285.164062 207.332031 L 285.261719 206.328125 L 285.355469 205.324219 L 274.089844 203.238281 L 277.199219 179.753906 L 278.871094 180.113281 L 302.230469 182.546875 Z M 331.496094 180.746094 "/>
</g>
<path style=" stroke:none;fill-rule:nonzero;fill:rgb(39.99939%,39.99939%,39.99939%);fill-opacity:0.3;" d="M 213.59375 211.730469 L 234.558594 214.375 L 222.699219 306.804688 L 202.425781 303.289062 Z M 213.59375 211.730469 "/>
<g clip-path="url(#clip5)" clip-rule="nonzero">
<path style=" stroke:none;fill-rule:nonzero;fill:rgb(39.99939%,39.99939%,39.99939%);fill-opacity:0.3;" d="M 362.484375 332.664062 L 385.9375 335.953125 L 386.769531 340.882812 L 387.691406 344.75 L 389.332031 349.679688 L 390.664062 353.835938 L 392.160156 356.824219 L 393.335938 358.582031 L 394.046875 359.898438 L 394.296875 360.996094 L 396.429688 363.523438 L 397.601562 365.277344 L 399.023438 367.253906 L 399.984375 369.671875 L 352.25 419.878906 L 350.59375 419.746094 L 350.109375 418 Z M 362.484375 332.664062 "/>
</g>
<g clip-path="url(#clip6)" clip-rule="nonzero">
<path style=" stroke:none;fill-rule:nonzero;fill:rgb(39.99939%,39.99939%,39.99939%);fill-opacity:0.3;" d="M 310.5625 325.363281 L 357.171875 331.832031 L 344.738281 426.722656 L 298.320312 479.21875 L 296.238281 478.558594 L 292.871094 477.621094 L 289.453125 477.230469 Z M 310.5625 325.363281 "/>
</g>
<g clip-path="url(#clip7)" clip-rule="nonzero">
<path style=" stroke:none;fill-rule:nonzero;fill:rgb(39.99939%,39.99939%,39.99939%);fill-opacity:0.3;" d="M 254.605469 317.128906 L 304.320312 324.378906 L 284.230469 477.433594 L 281.625 478.109375 L 278.535156 479.246094 L 276 480.398438 L 274.195312 481.179688 L 272.71875 480.808594 L 269.464844 477.996094 L 240.476562 442.011719 L 241.351562 434.914062 L 254.71875 436.695312 L 254.941406 433.878906 L 255.160156 431.058594 L 241.578125 429.273438 Z M 254.605469 317.128906 "/>
</g>
<path style=" stroke:none;fill-rule:nonzero;fill:rgb(39.99939%,39.99939%,39.99939%);fill-opacity:0.3;" d="M 239.371094 215.070312 L 259.949219 217.429688 L 248.796875 310.523438 L 228.910156 307.652344 Z M 239.371094 215.070312 "/>
<path style=" stroke:none;fill-rule:nonzero;fill:rgb(39.99939%,39.99939%,39.99939%);fill-opacity:0.3;" d="M 270.660156 218.777344 L 319.160156 224.695312 L 306.042969 318 L 256.796875 311.199219 Z M 270.660156 218.777344 "/>
<g clip-path="url(#clip8)" clip-rule="nonzero">
<path style=" stroke:none;fill-rule:nonzero;fill:rgb(39.99939%,39.99939%,39.99939%);fill-opacity:0.3;" d="M 312.210938 319.210938 L 323.890625 225.84375 L 327.042969 225.621094 L 329.425781 225.910156 L 361.175781 302.519531 L 357.726562 325.964844 Z M 312.210938 319.210938 "/>
</g>
<g clip-path="url(#clip9)" clip-rule="nonzero">
<path style=" stroke:none;fill-rule:nonzero;fill:rgb(39.99939%,39.99939%,39.99939%);fill-opacity:0.3;" d="M 387.261719 168.382812 L 385.042969 185.050781 L 334.6875 179.332031 L 336.851562 162.550781 L 359.769531 165.234375 Z M 387.261719 168.382812 "/>
</g>
<g clip-path="url(#clip10)" clip-rule="nonzero">
<path style=" stroke:none;fill-rule:nonzero;fill:rgb(39.99939%,39.99939%,39.99939%);fill-opacity:0.3;" d="M 289.28125 88.476562 L 393.226562 100.902344 L 393.066406 105.804688 L 339.289062 132.746094 L 337.625 134.167969 L 336.960938 136.222656 L 331.496094 180.746094 L 302.230469 182.546875 L 278.871094 180.113281 L 277.199219 179.753906 Z M 289.28125 88.476562 "/>
</g>
<g clip-path="url(#clip11)" clip-rule="nonzero">
<path style=" stroke:none;fill-rule:nonzero;fill:rgb(39.99939%,39.99939%,39.99939%);fill-opacity:0.3;" d="M 359.363281 125.398438 L 364.074219 125.503906 L 364.417969 123.476562 L 365.859375 122.574219 L 367.105469 122.574219 L 366.8125 125.691406 L 363.84375 151.792969 L 357.523438 151.136719 Z M 359.363281 125.398438 "/>
</g>
<path style=" stroke:none;fill-rule:nonzero;fill:rgb(39.99939%,39.99939%,39.99939%);fill-opacity:0.3;" d="M 349.796875 154.144531 L 351.148438 138.460938 L 348.066406 138.25 L 348.851562 130.988281 L 351.453125 129.5 L 356.148438 127.332031 L 353.664062 154.304688 Z M 349.796875 154.144531 "/>
<path style=" stroke:none;fill-rule:nonzero;fill:rgb(39.99939%,39.99939%,39.99939%);fill-opacity:0.3;" d="M 136.824219 211.964844 L 136.695312 211.992188 L 70.0625 200.652344 L 85.238281 126.832031 L 115.300781 132.46875 L 137.835938 182.109375 Z M 136.824219 211.964844 "/>
<path style=" stroke:none;fill-rule:nonzero;fill:rgb(39.99939%,39.99939%,39.99939%);fill-opacity:0.3;" d="M 88.207031 131.097656 L 99.914062 132.769531 L 99.140625 136.496094 L 87.433594 134.824219 Z M 88.207031 131.097656 "/>
<path style=" stroke:none;fill-rule:nonzero;fill:rgb(39.99939%,39.99939%,39.99939%);fill-opacity:0.3;" d="M 88.664062 151.714844 L 122.828125 157.78125 L 121.878906 162.96875 L 87.625 156.578125 Z M 88.664062 151.714844 "/>
<path style=" stroke:none;fill-rule:nonzero;fill:rgb(39.99939%,39.99939%,39.99939%);fill-opacity:0.3;" d="M 99.714844 171.898438 L 103.996094 172.671875 L 102.085938 182.671875 L 97.78125 181.976562 Z M 99.714844 171.898438 "/>
<path style=" stroke:none;fill-rule:nonzero;fill:rgb(39.99939%,39.99939%,39.99939%);fill-opacity:0.3;" d="M 93.160156 170.707031 L 97.351562 171.46875 L 95.40625 181.609375 L 91.191406 180.960938 Z M 93.160156 170.707031 "/>
<path style=" stroke:none;fill-rule:nonzero;fill:rgb(39.99939%,39.99939%,39.99939%);fill-opacity:0.3;" d="M 109.136719 164.667969 L 113.398438 165.429688 L 109.867188 183.84375 L 105.585938 183.183594 Z M 109.136719 164.667969 "/>
<path style=" stroke:none;fill-rule:nonzero;fill:rgb(39.99939%,39.99939%,39.99939%);fill-opacity:0.3;" d="M 115.570312 165.820312 L 120.253906 166.664062 L 116.753906 184.90625 L 112.046875 184.179688 Z M 115.570312 165.820312 "/>
<path style=" stroke:none;fill-rule:nonzero;fill:rgb(39.99939%,39.99939%,39.99939%);fill-opacity:0.3;" d="M 86.386719 160.582031 L 90.589844 161.335938 L 86.949219 180.304688 L 82.726562 179.652344 Z M 86.386719 160.582031 "/>
<path style=" stroke:none;fill-rule:nonzero;fill:rgb(39.99939%,39.99939%,39.99939%);fill-opacity:0.3;" d="M 80.746094 159.632812 L 85.046875 160.457031 L 80.964844 179.460938 L 76.398438 178.757812 Z M 80.746094 159.632812 "/>
<path style=" stroke:none;fill-rule:nonzero;fill:rgb(39.99939%,39.99939%,39.99939%);fill-opacity:0.3;" d="M 119.050781 173.75 L 123.773438 174.609375 L 121.972656 183.992188 L 117.226562 183.257812 Z M 119.050781 173.75 "/>
<path style=" stroke:none;fill-rule:nonzero;fill:rgb(39.99939%,39.99939%,39.99939%);fill-opacity:0.3;" d="M 126.199219 175.046875 L 130.890625 175.898438 L 129.125 185.09375 L 124.410156 184.367188 Z M 126.199219 175.046875 "/>
<path style=" stroke:none;fill-rule:nonzero;fill:rgb(39.99939%,39.99939%,39.99939%);fill-opacity:0.3;" d="M 101.203125 146.332031 L 111.722656 147.835938 L 110.894531 151.832031 L 100.371094 150.328125 Z M 101.203125 146.332031 "/>
<path style=" stroke:none;fill-rule:nonzero;fill:rgb(39.99939%,39.99939%,39.99939%);fill-opacity:0.3;" d="M 102.53125 139.953125 L 113.050781 141.457031 L 112.375 144.714844 L 101.851562 143.210938 Z M 102.53125 139.953125 "/>
<path style=" stroke:none;fill-rule:nonzero;fill:rgb(39.99939%,39.99939%,39.99939%);fill-opacity:0.3;" d="M 103.882812 133.449219 L 114.429688 134.839844 L 113.652344 138.570312 L 103.050781 137.453125 Z M 103.882812 133.449219 "/>
<path style=" stroke:none;fill-rule:nonzero;fill:rgb(39.99939%,39.99939%,39.99939%);fill-opacity:0.3;" d="M 85.503906 144.089844 L 97.210938 145.761719 L 96.378906 149.757812 L 84.675781 148.085938 Z M 85.503906 144.089844 "/>
<path style=" stroke:none;fill-rule:nonzero;fill:rgb(39.99939%,39.99939%,39.99939%);fill-opacity:0.3;" d="M 86.832031 137.710938 L 98.539062 139.382812 L 97.859375 142.640625 L 86.15625 140.96875 Z M 86.832031 137.710938 "/>
<path style=" stroke:none;fill-rule:nonzero;fill:rgb(39.99939%,39.99939%,39.99939%);fill-opacity:0.3;" d="M 152.238281 253.269531 L 149.6875 257.921875 L 147.335938 272.316406 L 144.601562 295.875 L 143.421875 296.0625 L 142.230469 290.457031 L 140.839844 280.734375 L 137.222656 268.75 L 131.492188 257.640625 L 129.449219 255.707031 L 127.566406 255.332031 L 143.089844 246.300781 Z M 152.238281 253.269531 "/>
<path style=" stroke:none;fill-rule:nonzero;fill:rgb(39.99939%,39.99939%,39.99939%);fill-opacity:0.3;" d="M 153.3125 322.511719 L 152.921875 320.703125 L 153.359375 321.976562 Z M 153.3125 322.511719 "/>
<path style=" stroke:none;fill-rule:nonzero;fill:rgb(39.99939%,39.99939%,39.99939%);fill-opacity:0.3;" d="M 152.828125 320.429688 L 149.027344 313.601562 L 146.855469 309.125 L 145.171875 303.617188 L 144.542969 300.074219 L 150.132812 301.070312 L 148.929688 309.078125 Z M 152.828125 320.429688 "/>
<g clip-path="url(#clip12)" clip-rule="nonzero">
<path style=" stroke:none;fill-rule:nonzero;fill:rgb(39.99939%,39.99939%,39.99939%);fill-opacity:0.3;" d="M 48.824219 313.246094 L 52.125 314.621094 L 37.011719 393.589844 L 36.820312 395.152344 L 37.695312 396.164062 L 39.152344 396.621094 L 96.144531 416.007812 L 94.847656 418.3125 L 30.128906 398.25 L 29.363281 397.761719 L 28.828125 397.148438 L 28.464844 396.132812 L 46.210938 313.769531 Z M 48.824219 313.246094 "/>
</g>
<path style=" stroke:none;fill-rule:nonzero;fill:rgb(39.99939%,39.99939%,39.99939%);fill-opacity:0.3;" d="M 78.589844 288.46875 L 78.667969 288.480469 L 78.503906 290.109375 Z M 78.589844 288.46875 "/>
<path style=" stroke:none;fill-rule:nonzero;fill:rgb(39.99939%,39.99939%,39.99939%);fill-opacity:0.3;" d="M 123.519531 292.179688 L 130.902344 293.164062 L 125.5625 320.851562 L 117.839844 319.507812 Z M 123.519531 292.179688 "/>
<path style=" stroke:none;fill-rule:nonzero;fill:rgb(39.99939%,39.99939%,39.99939%);fill-opacity:0.3;" d="M 112.128906 290.050781 L 119.511719 291.03125 L 114.171875 318.722656 L 106.449219 317.375 Z M 112.128906 290.050781 "/>
<path style=" stroke:none;fill-rule:nonzero;fill:rgb(39.99939%,39.99939%,39.99939%);fill-opacity:0.3;" d="M 100.828125 288.027344 L 108.199219 289.363281 L 102.996094 315.84375 L 95.273438 314.496094 Z M 100.828125 288.027344 "/>
<path style=" stroke:none;fill-rule:nonzero;fill:rgb(39.99939%,39.99939%,39.99939%);fill-opacity:0.3;" d="M 89.050781 284.015625 L 92.335938 281.953125 L 89.15625 277.625 L 91.28125 276.289062 L 94.460938 280.617188 L 97.742188 278.554688 L 99.199219 280.539062 L 95.914062 282.601562 L 99.09375 286.929688 L 96.96875 288.265625 L 93.792969 283.9375 L 90.507812 286 Z M 89.050781 284.015625 "/>
<path style=" stroke:none;fill-rule:nonzero;fill:rgb(39.99939%,39.99939%,39.99939%);fill-opacity:0.3;" d="M 86.671875 296.015625 L 89.957031 293.953125 L 86.777344 289.621094 L 88.902344 288.289062 L 92.082031 292.617188 L 95.363281 290.554688 L 96.820312 292.539062 L 93.539062 294.601562 L 96.714844 298.929688 L 94.589844 300.265625 L 91.414062 295.9375 L 88.128906 298 Z M 86.671875 296.015625 "/>
<path style=" stroke:none;fill-rule:nonzero;fill:rgb(39.99939%,39.99939%,39.99939%);fill-opacity:0.3;" d="M 84.304688 308.207031 L 87.589844 306.144531 L 84.410156 301.8125 L 86.535156 300.480469 L 89.714844 304.808594 L 93 302.746094 L 94.457031 304.730469 L 91.171875 306.792969 L 94.351562 311.121094 L 92.226562 312.457031 L 89.046875 308.128906 L 85.761719 310.191406 Z M 84.304688 308.207031 "/>
<path style=" stroke:none;fill-rule:nonzero;fill:rgb(39.99939%,39.99939%,39.99939%);fill-opacity:0.3;" d="M 132.652344 306.160156 L 135.9375 304.097656 L 132.757812 299.765625 L 134.882812 298.433594 L 138.0625 302.761719 L 141.34375 300.699219 L 142.800781 302.683594 L 139.519531 304.746094 L 142.695312 309.074219 L 140.570312 310.410156 L 137.394531 306.078125 L 134.109375 308.144531 Z M 132.652344 306.160156 "/>
<path style=" stroke:none;fill-rule:nonzero;fill:rgb(39.99939%,39.99939%,39.99939%);fill-opacity:0.3;" d="M 129.875 318.15625 L 133.160156 316.09375 L 129.980469 311.765625 L 132.105469 310.429688 L 135.285156 314.761719 L 138.566406 312.699219 L 140.023438 314.683594 L 136.742188 316.746094 L 139.917969 321.074219 L 137.792969 322.410156 L 134.617188 318.078125 L 131.332031 320.140625 Z M 129.875 318.15625 "/>
<path style=" stroke:none;fill-rule:nonzero;fill:rgb(39.99939%,39.99939%,39.99939%);fill-opacity:0.3;" d="M 141.148438 326.6875 L 144.433594 324.625 L 141.253906 320.296875 L 143.378906 318.960938 L 146.558594 323.289062 L 149.839844 321.226562 L 151.296875 323.210938 L 148.015625 325.273438 L 151.191406 329.601562 L 149.066406 330.9375 L 145.890625 326.609375 L 142.605469 328.671875 Z M 141.148438 326.6875 "/>
<path style=" stroke:none;fill-rule:nonzero;fill:rgb(39.99939%,39.99939%,39.99939%);fill-opacity:0.3;" d="M 129.640625 338.488281 L 132.925781 336.425781 L 129.746094 332.097656 L 131.871094 330.761719 L 135.046875 335.089844 L 138.332031 333.027344 L 139.789062 335.011719 L 136.503906 337.074219 L 139.683594 341.402344 L 137.558594 342.738281 L 134.378906 338.410156 L 131.097656 340.472656 Z M 129.640625 338.488281 "/>
<path style=" stroke:none;fill-rule:nonzero;fill:rgb(39.99939%,39.99939%,39.99939%);fill-opacity:0.3;" d="M 58.789062 326.210938 L 62.070312 324.148438 L 58.894531 319.820312 L 61.015625 318.484375 L 64.195312 322.816406 L 67.480469 320.753906 L 68.9375 322.738281 L 65.652344 324.800781 L 68.832031 329.128906 L 66.707031 330.464844 L 63.527344 326.132812 L 60.246094 328.195312 Z M 58.789062 326.210938 "/>
<path style=" stroke:none;fill-rule:nonzero;fill:rgb(39.99939%,39.99939%,39.99939%);fill-opacity:0.3;" d="M 55.746094 339.980469 L 59.03125 337.917969 L 55.851562 333.589844 L 57.976562 332.253906 L 61.15625 336.582031 L 64.4375 334.519531 L 65.894531 336.503906 L 62.613281 338.566406 L 65.789062 342.894531 L 63.664062 344.230469 L 60.488281 339.902344 L 57.203125 341.964844 Z M 55.746094 339.980469 "/>
<g clip-path="url(#clip13)" clip-rule="nonzero">
<path style=" stroke:none;fill-rule:nonzero;fill:rgb(39.99939%,39.99939%,39.99939%);fill-opacity:0.3;" d="M 107.671875 365.625 L 110.957031 363.5625 L 107.777344 359.230469 L 109.902344 357.898438 L 113.082031 362.226562 L 116.363281 360.164062 L 117.820312 362.148438 L 114.539062 364.210938 L 117.714844 368.539062 L 115.589844 369.875 L 112.414062 365.546875 L 109.128906 367.609375 Z M 107.671875 365.625 "/>
</g>
<g clip-path="url(#clip14)" clip-rule="nonzero">
<path style=" stroke:none;fill-rule:nonzero;fill:rgb(39.99939%,39.99939%,39.99939%);fill-opacity:0.3;" d="M 93.5 362.820312 L 96.78125 360.757812 L 93.601562 356.429688 L 95.726562 355.09375 L 98.90625 359.425781 L 102.191406 357.363281 L 103.648438 359.347656 L 100.363281 361.410156 L 103.542969 365.738281 L 101.417969 367.074219 L 98.238281 362.742188 L 94.953125 364.804688 Z M 93.5 362.820312 "/>
</g>
<g clip-path="url(#clip15)" clip-rule="nonzero">
<path style=" stroke:none;fill-rule:nonzero;fill:rgb(39.99939%,39.99939%,39.99939%);fill-opacity:0.3;" d="M 80.316406 360.152344 L 83.601562 358.089844 L 80.421875 353.761719 L 82.546875 352.425781 L 85.726562 356.753906 L 89.007812 354.691406 L 90.464844 356.675781 L 87.179688 358.738281 L 90.359375 363.070312 L 88.234375 364.402344 L 85.058594 360.074219 L 81.773438 362.136719 Z M 80.316406 360.152344 "/>
</g>
<g clip-path="url(#clip16)" clip-rule="nonzero">
<path style=" stroke:none;fill-rule:nonzero;fill:rgb(39.99939%,39.99939%,39.99939%);fill-opacity:0.3;" d="M 66.425781 358.023438 L 69.710938 355.960938 L 66.53125 351.628906 L 68.65625 350.296875 L 71.835938 354.625 L 75.117188 352.5625 L 76.574219 354.546875 L 73.292969 356.609375 L 76.46875 360.9375 L 74.34375 362.273438 L 71.167969 357.945312 L 67.882812 360.007812 Z M 66.425781 358.023438 "/>
</g>
<path style=" stroke:none;fill-rule:nonzero;fill:rgb(39.99939%,39.99939%,39.99939%);fill-opacity:0.3;" d="M 52.535156 355.085938 L 55.820312 353.023438 L 52.640625 348.691406 L 54.765625 347.359375 L 57.945312 351.6875 L 61.226562 349.625 L 62.683594 351.609375 L 59.402344 353.671875 L 62.578125 358 L 60.453125 359.335938 L 57.277344 355.007812 L 53.992188 357.070312 Z M 52.535156 355.085938 "/>
<g clip-path="url(#clip17)" clip-rule="nonzero">
<path style=" stroke:none;fill-rule:nonzero;fill:rgb(39.99939%,39.99939%,39.99939%);fill-opacity:0.3;" d="M 50.429688 367.449219 L 53.714844 365.386719 L 50.535156 361.058594 L 52.660156 359.726562 L 55.835938 364.054688 L 59.121094 361.992188 L 60.578125 363.976562 L 57.292969 366.039062 L 60.472656 370.367188 L 58.347656 371.703125 L 55.167969 367.371094 L 51.886719 369.433594 Z M 50.429688 367.449219 "/>
</g>
<path style=" stroke:none;fill-rule:nonzero;fill:rgb(39.99939%,39.99939%,39.99939%);fill-opacity:0.3;" d="M 119.566406 328.164062 L 126.949219 329.414062 L 121.605469 356.835938 L 113.882812 355.492188 Z M 119.566406 328.164062 "/>
<path style=" stroke:none;fill-rule:nonzero;fill:rgb(39.99939%,39.99939%,39.99939%);fill-opacity:0.3;" d="M 108.789062 324.148438 L 116.171875 325.128906 L 110.832031 352.820312 L 103.109375 351.472656 Z M 108.789062 324.148438 "/>
<path style=" stroke:none;fill-rule:nonzero;fill:rgb(39.99939%,39.99939%,39.99939%);fill-opacity:0.3;" d="M 96.605469 324.164062 L 103.988281 325.144531 L 98.644531 352.835938 L 90.921875 351.492188 Z M 96.605469 324.164062 "/>
<path style=" stroke:none;fill-rule:nonzero;fill:rgb(39.99939%,39.99939%,39.99939%);fill-opacity:0.3;" d="M 85.703125 321.007812 L 93.070312 322.339844 L 87.871094 348.820312 L 80.148438 347.476562 Z M 85.703125 321.007812 "/>
<path style=" stroke:none;fill-rule:nonzero;fill:rgb(39.99939%,39.99939%,39.99939%);fill-opacity:0.3;" d="M 132.417969 272.03125 L 135.214844 279.335938 L 134.738281 289.132812 L 126.703125 288.054688 L 119.324219 287.910156 L 112.433594 285.742188 L 103.414062 284.355469 L 100.949219 280.9375 L 101.40625 268.046875 L 104.941406 265.898438 L 105.296875 265.773438 L 106.199219 266.480469 L 107.351562 267.144531 L 108.414062 267.574219 L 109.597656 267.890625 L 110.832031 268.050781 L 112.148438 268.042969 L 113.34375 267.875 L 114.511719 267.550781 L 115.695312 267.046875 L 117.230469 266.054688 L 118.515625 264.792969 L 119.175781 263.875 L 119.777344 262.722656 L 128.46875 263.019531 Z M 132.417969 272.03125 "/>
<path style=" stroke:none;fill-rule:nonzero;fill:rgb(39.99939%,39.99939%,39.99939%);fill-opacity:0.3;" d="M 150.367188 299.496094 L 149.320312 299.339844 L 150.234375 281.441406 L 152.664062 266.824219 L 153.074219 265.355469 L 150.390625 299.34375 Z M 150.367188 299.496094 "/>
<path style=" stroke:none;fill-rule:nonzero;fill:rgb(39.99939%,39.99939%,39.99939%);fill-opacity:0.3;" d="M 73.925781 320.703125 L 81.308594 321.683594 L 75.683594 348.703125 L 68.738281 347.367188 Z M 73.925781 320.703125 "/>
<path style=" stroke:none;fill-rule:nonzero;fill:rgb(39.99939%,39.99939%,39.99939%);fill-opacity:0.3;" d="M 103.402344 52.476562 L 105.066406 51.984375 L 106.953125 51.429688 L 167.472656 71.398438 L 228.9375 82.210938 L 278.949219 87.542969 L 280.949219 89.121094 L 281.117188 91.160156 L 261.953125 213.222656 L 212.65625 207.875 L 197.890625 217.027344 L 161.109375 244.070312 L 156.382812 248.753906 L 152.539062 252.71875 L 152.238281 253.269531 L 143.089844 246.300781 L 127.566406 255.332031 L 125.15625 254.851562 L 86.429688 268.023438 L 89.925781 244.378906 L 94.199219 241.746094 L 99.734375 241.980469 L 100.847656 235.929688 L 94.570312 233.425781 L 87.648438 234.589844 L 86.152344 244.144531 L 81.902344 270.414062 L 54.488281 278.085938 L 69.503906 204.757812 L 140.710938 214.714844 L 134.929688 240.128906 L 124.707031 247.074219 L 130.316406 251.917969 L 142.296875 244.890625 L 173.019531 218.785156 L 174.609375 217.433594 L 181.175781 210.722656 L 186.226562 206.742188 L 184.71875 201.53125 L 172.875 199.875 L 159.484375 206.363281 L 159.230469 199.203125 L 152.894531 201.890625 L 150.574219 204.894531 L 146.085938 208.492188 L 141.359375 211.035156 L 136.824219 211.964844 L 137.835938 182.109375 L 115.300781 132.46875 L 85.238281 126.832031 L 99.980469 55.089844 L 101.550781 53.140625 Z M 103.402344 52.476562 "/>
<path style=" stroke:none;fill-rule:nonzero;fill:rgb(39.99939%,39.99939%,39.99939%);fill-opacity:0.3;" d="M 54.320312 288.96875 L 57.878906 289.445312 L 58.316406 286.582031 L 61.589844 286.921875 L 61.117188 289.933594 L 64 290.375 L 63.691406 293.472656 L 60.625 293.050781 L 59.160156 302.542969 L 62.492188 303.007812 L 62.152344 305.703125 L 58.765625 305.214844 L 58.265625 308.570312 L 54.921875 308.164062 L 55.503906 304.566406 L 51.429688 303.796875 L 51.84375 300.914062 L 55.945312 301.566406 L 57.414062 292.398438 L 53.890625 291.796875 Z M 54.320312 288.96875 "/>
<path style=" stroke:none;fill-rule:nonzero;fill:rgb(39.99939%,39.99939%,39.99939%);fill-opacity:0.3;" d="M 68.988281 287.074219 L 72.546875 287.550781 L 72.984375 284.6875 L 76.253906 285.027344 L 75.78125 288.039062 L 78.589844 288.46875 L 78.503906 290.109375 L 78.355469 291.574219 L 75.292969 291.15625 L 73.824219 300.648438 L 77.160156 301.113281 L 76.820312 303.808594 L 73.433594 303.320312 L 72.933594 306.675781 L 69.589844 306.265625 L 70.171875 302.667969 L 66.09375 301.902344 L 66.511719 299.019531 L 70.613281 299.671875 L 72.082031 290.503906 L 68.554688 289.902344 Z M 68.988281 287.074219 "/>
<path style=" stroke:none;fill-rule:nonzero;fill:rgb(39.99939%,39.99939%,39.99939%);fill-opacity:0.3;" d="M 104.941406 265.898438 L 105.230469 265.722656 L 105.296875 265.773438 Z M 104.941406 265.898438 "/>
<g clip-path="url(#clip18)" clip-rule="nonzero">
<path style=" stroke:none;fill-rule:nonzero;fill:rgb(39.99939%,39.99939%,39.99939%);fill-opacity:0.3;" d="M 156.089844 368.441406 L 149.789062 366.398438 L 138.988281 360.042969 L 148.542969 340.441406 L 150.878906 356.769531 L 182.648438 371.722656 L 188.042969 375.847656 L 230.691406 424.8125 L 232.320312 429.699219 L 234.871094 436.910156 L 236.949219 442.601562 L 239.316406 446.148438 L 272.667969 486.675781 L 274.597656 488.511719 L 277.359375 490.558594 L 281.636719 493.613281 L 288.882812 495.679688 L 293.691406 497.835938 L 305.046875 507.515625 L 325.453125 525.699219 L 320.746094 532.328125 L 288.292969 510.164062 L 273.984375 502.21875 L 271.839844 501.96875 L 268.824219 501.84375 L 266.886719 501.492188 L 265.40625 500.679688 L 260.386719 489.21875 L 259.683594 488.375 L 254.761719 486.140625 L 253.304688 484.621094 L 252.785156 480.546875 L 251.796875 478.867188 L 250.023438 476.628906 L 246.164062 474.527344 L 234.21875 453.8125 L 230.652344 445.386719 L 223.347656 430.65625 L 219.378906 426.109375 L 211.542969 420.054688 L 209.332031 418.285156 L 206.570312 413.25 L 204.207031 410.828125 L 195.335938 401.695312 L 191.988281 399.273438 L 183.519531 393.875 L 182.730469 392.945312 L 182.335938 391.636719 L 182.523438 385.851562 L 182.125 382.308594 L 180.351562 380.632812 L 170.308594 375.792969 L 158.453125 369.558594 Z M 156.089844 368.441406 "/>
</g>
<g clip-path="url(#clip19)" clip-rule="nonzero">
<path style=" stroke:none;fill-rule:nonzero;fill:rgb(39.99939%,39.99939%,39.99939%);fill-opacity:0.3;" d="M 179.90625 391.824219 L 180.707031 393.832031 L 182.042969 395.597656 L 193.800781 403.425781 L 199.761719 409.265625 L 203.246094 412.683594 L 204.898438 414.570312 L 206.761719 418.339844 L 207.957031 419.757812 L 217.761719 428.132812 L 221.1875 432.089844 L 231.613281 454.476562 L 243.808594 474.699219 L 245.589844 476.464844 L 248.742188 478.167969 L 250.039062 479.972656 L 250.855469 481.648438 L 251.09375 484.957031 L 252.234375 486.84375 L 257.929688 490.023438 L 258.777344 490.710938 L 263.828125 501.425781 L 264.847656 502.957031 L 266.804688 503.601562 L 271.707031 503.953125 L 276.933594 506.53125 L 286.972656 512.046875 L 315.71875 531.378906 L 314.46875 532.023438 L 313.105469 531.488281 L 302.601562 523.988281 L 300.835938 523.214844 L 213.113281 495.007812 L 212.507812 494.542969 L 210.738281 490.117188 L 210.472656 492.238281 L 209.910156 489.671875 L 209.96875 488.289062 L 209.988281 487.738281 L 210.585938 484.613281 L 219.636719 460.628906 L 191.011719 427.25 L 189.421875 425.851562 L 187.132812 424.734375 L 170.359375 419.074219 L 147.140625 411.238281 L 157 383.171875 L 154.570312 382.394531 L 151.617188 381.445312 L 141.238281 410.03125 L 127.039062 405.855469 L 109.316406 419.867188 L 106.027344 420.734375 L 103.074219 420.089844 L 100.574219 418.695312 L 99.4375 417.082031 L 99.207031 415.46875 L 101.066406 410.632812 L 144.082031 342.527344 L 145.304688 343.242188 L 135.707031 360.734375 L 143.890625 365.996094 L 154.109375 371.605469 L 156.492188 372.914062 L 178.714844 382.167969 L 179.976562 383.804688 Z M 179.90625 391.824219 "/>
</g>
<path style=" stroke:none;fill-rule:nonzero;fill:rgb(39.99939%,39.99939%,39.99939%);fill-opacity:0.3;" d="M 84.023438 50.804688 L 86.3125 52.144531 L 71.332031 125.714844 L 56.011719 203.101562 L 52.660156 206.289062 L 30.109375 204.132812 L 24.199219 204.707031 L 11.234375 203.960938 L 2.847656 206.261719 L -5.183594 212.238281 L -10.929688 215.988281 L -16.058594 217.4375 L -21.128906 211.488281 L -49.074219 191.734375 L -44.652344 178.375 L -38.234375 172.660156 L -36.996094 167.054688 L -34.53125 148.734375 L -27.429688 122.199219 L -21.179688 83.582031 L -15.542969 69.617188 L -10.75 66.675781 L -10.863281 60.808594 L -2.125 60.589844 L 5.378906 58.210938 L 14.386719 52.878906 L 20.085938 46.605469 L 30.386719 35.761719 L 38.285156 26.445312 L 49.566406 29.8125 L 80.394531 39.683594 L 80.679688 42.722656 L 81.519531 46.527344 L 82.597656 48.796875 Z M 84.023438 50.804688 "/>
<path style=" stroke:none;fill-rule:nonzero;fill:rgb(39.99939%,39.99939%,39.99939%);fill-opacity:0.3;" d="M -51.488281 2.3125 L -41.925781 5.027344 L 6.253906 18.699219 L -8.675781 45.71875 L -35.910156 37.472656 L -37.992188 33.925781 L -68.292969 25.878906 L -65.046875 15.722656 L -55.902344 17.640625 L -53.125 7.992188 Z M -51.488281 2.3125 "/>
<path style=" stroke:none;fill-rule:nonzero;fill:rgb(39.99939%,39.99939%,39.99939%);fill-opacity:0.3;" d="M 8.984375 18.988281 L 27.410156 25.242188 L 25.175781 31.851562 L 18.457031 40.480469 L 6.421875 50.574219 L -6.898438 57.714844 L -10.917969 56.265625 Z M 8.984375 18.988281 "/>
<g clip-path="url(#clip20)" clip-rule="nonzero">
<path style=" stroke:none;fill-rule:nonzero;fill:rgb(39.99939%,39.99939%,39.99939%);fill-opacity:0.3;" d="M -28.578125 357.871094 L -45 364.300781 L -48.929688 361.0625 L -70.46875 333.695312 L -92.195312 323.410156 L -93.988281 322.5625 L -92.582031 314.152344 L -69.640625 313.082031 L -50.996094 310.75 L -13.980469 304.289062 L 3.039062 300.164062 L 35.996094 289.351562 L 37.617188 290.375 L 37.890625 292.425781 L 22.546875 367.335938 L 22.355469 367.308594 L 17.507812 365.8125 L -24.839844 357.625 Z M -28.578125 357.871094 "/>
</g>
<path style=" stroke:none;fill-rule:nonzero;fill:rgb(39.99939%,39.99939%,39.99939%);fill-opacity:0.3;" d="M -98.414062 220.351562 L -85.582031 211.46875 L -83.097656 210.640625 L -80.359375 210.28125 L -75.882812 210.15625 L -69.195312 211.1875 L -65.800781 211.203125 L -61.988281 209.308594 L -57.851562 204.585938 L -54.214844 199.292969 L -53.136719 195.375 L -19.230469 220.265625 L -16.773438 222.847656 L -15.679688 225.945312 L 2.285156 296.589844 L 1.808594 297.460938 L 0.339844 298.234375 L -55.027344 307.640625 L -57.039062 295.503906 L -59.039062 295.84375 L -61.035156 296.1875 L -58.898438 308.296875 L -73.070312 310.707031 L -90.738281 311.4375 L -91.574219 310.972656 L -91.707031 310.136719 L -85.132812 265.082031 L -83.5 261.976562 L -69.78125 243.972656 L -72.683594 242.886719 L -75.589844 241.800781 L -82.367188 250.640625 L -82.980469 250.820312 L -83.683594 250.539062 L -91.726562 232.519531 L -78.957031 225.136719 L -77.011719 224.464844 L -73.738281 224.207031 L -62.148438 223.855469 L -47.28125 225.597656 L -46.488281 224.925781 L -46.136719 223.582031 L -45.183594 210.742188 L -43.234375 210.984375 L -43.152344 208.386719 L -43.066406 205.789062 L -47.191406 205.386719 L -52.242188 204.792969 L -52.507812 207.378906 L -52.777344 209.964844 L -49.46875 210.496094 L -49.832031 217.339844 L -50.320312 221.707031 L -51.191406 222.296875 L -71.023438 221.371094 L -77.191406 221.109375 L -78.65625 221.382812 L -80.023438 222.035156 L -93.09375 229.417969 Z M -98.414062 220.351562 "/>
<path style=" stroke:none;fill-rule:nonzero;fill:rgb(39.99939%,39.99939%,39.99939%);fill-opacity:0.3;" d="M -13.359375 222.554688 L -5.070312 216.613281 L -3.585938 215.734375 L -2.421875 215.152344 L -1.644531 214.585938 L 2.234375 212.296875 L 13.191406 208.394531 L 24.371094 208.148438 L 43.648438 210.558594 L 54.058594 211.699219 L 40.703125 281.125 L 36.820312 284.75 L 18.734375 290.835938 L 3.777344 230.191406 L 1.351562 230.65625 L -1.070312 231.117188 L 13.566406 292.988281 L 5.816406 296.0625 Z M -13.359375 222.554688 "/>
<path style=" stroke:none;fill-rule:nonzero;fill:rgb(39.99939%,39.99939%,39.99939%);fill-opacity:0.3;" d="M 57.722656 -68.824219 L 113.390625 -69.597656 L 93.621094 26.21875 L 91.257812 27.257812 L 89.257812 28.984375 L 87.167969 31.660156 L 13.292969 11.375 Z M 57.722656 -68.824219 "/>
<path style=" stroke:none;fill-rule:nonzero;fill:rgb(39.99939%,39.99939%,39.99939%);fill-opacity:0.3;" d="M -70.3125 -14.199219 L -111.425781 -26.671875 L -101.066406 -35.269531 L -63.285156 -45.566406 L -40.414062 -51.722656 L -33.613281 -53.25 L -27.121094 -54.539062 L -22.804688 -55.316406 L -8.941406 -57.691406 L 5.769531 -60.070312 L 12.585938 -61.234375 L 27.859375 -64 L 35.59375 -65.425781 L 55.066406 -68.339844 L 49.980469 -59.222656 L 37.484375 -38.398438 L 25.804688 -17.472656 L 18.992188 -3.84375 L 18.476562 -2.746094 L 10.890625 10.851562 Z M -70.3125 -14.199219 "/>
<path style="fill-rule:nonzero;fill:rgb(39.99939%,39.99939%,39.99939%);fill-opacity:1;stroke-width:0.03;stroke-linecap:square;stroke-linejoin:miter;stroke:rgb(39.99939%,39.99939%,39.99939%);stroke-opacity:1;stroke-miterlimit:3.239307;" d="M 177.402344 65.476562 L 179.066406 64.984375 L 180.953125 64.429688 L 241.472656 84.398438 L 302.9375 95.210938 L 352.949219 100.542969 L 354.949219 102.121094 L 355.117188 104.160156 L 335.953125 226.222656 L 286.65625 220.875 L 271.890625 230.027344 L 235.109375 257.070312 L 230.382812 261.753906 L 226.539062 265.71875 L 226.238281 266.269531 L 217.089844 259.300781 L 201.566406 268.332031 L 199.15625 267.851562 L 160.429688 281.023438 L 163.925781 257.378906 L 168.199219 254.746094 L 173.734375 254.980469 L 174.847656 248.929688 L 168.570312 246.425781 L 161.648438 247.589844 L 160.152344 257.144531 L 155.902344 283.414062 L 128.488281 291.085938 L 143.503906 217.757812 L 214.710938 227.714844 L 208.929688 253.128906 L 198.707031 260.074219 L 204.316406 264.917969 L 216.296875 257.890625 L 247.019531 231.785156 L 248.609375 230.433594 L 255.175781 223.722656 L 260.226562 219.742188 L 258.71875 214.53125 L 246.875 212.875 L 233.484375 219.363281 L 233.230469 212.203125 L 226.894531 214.890625 L 224.574219 217.894531 L 220.085938 221.492188 L 215.359375 224.035156 L 210.824219 224.964844 L 211.835938 195.109375 L 189.300781 145.46875 L 159.238281 139.832031 L 173.980469 68.089844 L 175.550781 66.140625 Z M 177.402344 65.476562 " transform="matrix(1,0,0,1,-74,-13)"/>
<path style="fill-rule:nonzero;fill:rgb(39.99939%,39.99939%,39.99939%);fill-opacity:1;stroke-width:0.03;stroke-linecap:square;stroke-linejoin:miter;stroke:rgb(39.99939%,39.99939%,39.99939%);stroke-opacity:1;stroke-miterlimit:3.239307;" d="M 128.320312 301.96875 L 131.878906 302.445312 L 132.316406 299.582031 L 135.589844 299.921875 L 135.117188 302.933594 L 138 303.375 L 137.691406 306.472656 L 134.625 306.050781 L 133.160156 315.542969 L 136.492188 316.007812 L 136.152344 318.703125 L 132.765625 318.214844 L 132.265625 321.570312 L 128.921875 321.164062 L 129.503906 317.566406 L 125.429688 316.796875 L 125.84375 313.914062 L 129.945312 314.566406 L 131.414062 305.398438 L 127.890625 304.796875 Z M 128.320312 301.96875 " transform="matrix(1,0,0,1,-74,-13)"/>
<path style="fill-rule:nonzero;fill:rgb(39.99939%,39.99939%,39.99939%);fill-opacity:1;stroke-width:0.03;stroke-linecap:square;stroke-linejoin:miter;stroke:rgb(39.99939%,39.99939%,39.99939%);stroke-opacity:1;stroke-miterlimit:3.239307;" d="M 142.988281 300.074219 L 146.546875 300.550781 L 146.984375 297.6875 L 150.253906 298.027344 L 149.78125 301.039062 L 152.589844 301.46875 L 152.503906 303.109375 L 152.355469 304.574219 L 149.292969 304.15625 L 147.824219 313.648438 L 151.160156 314.113281 L 150.820312 316.808594 L 147.433594 316.320312 L 146.933594 319.675781 L 143.589844 319.265625 L 144.171875 315.667969 L 140.09375 314.902344 L 140.511719 312.019531 L 144.613281 312.671875 L 146.082031 303.503906 L 142.554688 302.902344 Z M 142.988281 300.074219 " transform="matrix(1,0,0,1,-74,-13)"/>
<path style="fill-rule:nonzero;fill:rgb(39.99939%,39.99939%,39.99939%);fill-opacity:1;stroke-width:0.03;stroke-linecap:square;stroke-linejoin:miter;stroke:rgb(39.99939%,39.99939%,39.99939%);stroke-opacity:1;stroke-miterlimit:3.239307;" d="M 178.941406 278.898438 L 179.230469 278.722656 L 179.296875 278.773438 Z M 178.941406 278.898438 " transform="matrix(1,0,0,1,-74,-13)"/>
<path style=" stroke:none;fill-rule:evenodd;fill:rgb(85.096741%,85.096741%,81.959534%);fill-opacity:0.7;" d="M 61.464844 237 C 61.464844 231.835938 59.414062 226.886719 55.765625 223.234375 C 52.113281 219.585938 47.164062 217.535156 42 217.535156 C 36.835938 217.535156 31.886719 219.585938 28.234375 223.234375 C 24.585938 226.886719 22.535156 231.835938 22.535156 237 C 22.535156 242.164062 24.585938 247.113281 28.234375 250.765625 C 31.886719 254.414062 36.835938 256.464844 42 256.464844 C 47.164062 256.464844 52.113281 254.414062 55.765625 250.765625 C 59.414062 247.113281 61.464844 242.164062 61.464844 237 Z M 61.464844 237 "/>
<path style=" stroke:none;fill-rule:evenodd;fill:rgb(85.096741%,85.096741%,81.959534%);fill-opacity:0.7;" d="M 104.464844 153 C 104.464844 147.835938 102.414062 142.886719 98.765625 139.234375 C 95.113281 135.585938 90.164062 133.535156 85 133.535156 C 79.835938 133.535156 74.886719 135.585938 71.234375 139.234375 C 67.585938 142.886719 65.535156 147.835938 65.535156 153 C 65.535156 158.164062 67.585938 163.113281 71.234375 166.765625 C 74.886719 170.414062 79.835938 172.464844 85 172.464844 C 90.164062 172.464844 95.113281 170.414062 98.765625 166.765625 C 102.414062 163.113281 104.464844 158.164062 104.464844 153 Z M 104.464844 153 "/>
<path style=" stroke:none;fill-rule:evenodd;fill:rgb(85.096741%,85.096741%,81.959534%);fill-opacity:0.7;" d="M 86.464844 145 C 86.464844 139.835938 84.414062 134.886719 80.765625 131.234375 C 77.113281 127.585938 72.164062 125.535156 67 125.535156 C 61.835938 125.535156 56.886719 127.585938 53.234375 131.234375 C 49.585938 134.886719 47.535156 139.835938 47.535156 145 C 47.535156 150.164062 49.585938 155.113281 53.234375 158.765625 C 56.886719 162.414062 61.835938 164.464844 67 164.464844 C 72.164062 164.464844 77.113281 162.414062 80.765625 158.765625 C 84.414062 155.113281 86.464844 150.164062 86.464844 145 Z M 86.464844 145 "/>
</g>
</svg>
