<?xml version="1.0" encoding="UTF-8"?>
<svg xmlns="http://www.w3.org/2000/svg" xmlns:xlink="http://www.w3.org/1999/xlink" width="361pt" height="361pt" viewBox="0 0 361 361" version="1.1">
<defs>
<clipPath id="clip1">
  <path d="M 0 359 L 289 359 L 289 360 L 0 360 Z M 0 359 "/>
</clipPath>
<clipPath id="clip2">
  <path d="M 104 114 L 360 114 L 360 360 L 104 360 Z M 104 114 "/>
</clipPath>
<clipPath id="clip3">
  <path d="M 337 105 L 360 105 L 360 239 L 337 239 Z M 337 105 "/>
</clipPath>
<clipPath id="clip4">
  <path d="M 352 0 L 360 0 L 360 110 L 352 110 Z M 352 0 "/>
</clipPath>
<clipPath id="clip5">
  <path d="M 303 0 L 360 0 L 360 121 L 303 121 Z M 303 0 "/>
</clipPath>
<clipPath id="clip6">
  <path d="M 287 44 L 360 44 L 360 126 L 287 126 Z M 287 44 "/>
</clipPath>
<clipPath id="clip7">
  <path d="M 285 252 L 360 252 L 360 360 L 285 360 Z M 285 252 "/>
</clipPath>
<clipPath id="clip8">
  <path d="M 284 251 L 360 251 L 360 360 L 284 360 Z M 284 251 "/>
</clipPath>
</defs>
<g id="surface1596">
<path style="fill-rule:nonzero;fill:rgb(0%,0%,0%);fill-opacity:1;stroke-width:0.03;stroke-linecap:square;stroke-linejoin:miter;stroke:rgb(0%,0%,0%);stroke-opacity:1;stroke-miterlimit:10;" d="M 0 178 L 360 178 L 360 -182 L 0 -182 Z M 0 178 " transform="matrix(1,0,0,1,0,182)"/>
<path style=" stroke:none;fill-rule:nonzero;fill:rgb(39.99939%,39.99939%,39.99939%);fill-opacity:0.3;" d="M -23.492188 59.84375 L 28.171875 64.121094 L 46.09375 64.027344 L 43.304688 64.628906 L -21.6875 65.644531 Z M -23.492188 59.84375 "/>
<path style=" stroke:none;fill-rule:nonzero;fill:rgb(39.99939%,39.99939%,39.99939%);fill-opacity:0.3;" d="M -37.3125 -26.003906 L 4.691406 -37.296875 L 8.484375 -33.449219 L 11.535156 -27.832031 L 12.558594 -20.21875 L 11.929688 -15.371094 L -32.542969 -4.523438 L -168.917969 28.75 L -184 13.304688 Z M -37.3125 -26.003906 "/>
<path style=" stroke:none;fill-rule:nonzero;fill:rgb(39.99939%,39.99939%,39.99939%);fill-opacity:0.3;" d="M -31.484375 32.378906 L -28.734375 30.675781 L -25.097656 26.054688 L -23.601562 20.464844 L -24.476562 14.757812 L -27.582031 9.800781 L -32.449219 6.351562 L -34.308594 1.367188 L 15.308594 -9.972656 L 36.074219 60.054688 L -22.054688 56.335938 Z M -31.484375 32.378906 "/>
<path style=" stroke:none;fill-rule:nonzero;fill:rgb(39.99939%,39.99939%,39.99939%);fill-opacity:0.3;" d="M 22.738281 -12.519531 L 70.054688 -24.757812 L 71.621094 -19.324219 L 70.25 -17.542969 L 68.707031 -11.929688 L 69.578125 -6.222656 L 72.683594 -1.269531 L 77.550781 2.183594 L 83.441406 3.601562 L 84.988281 3.390625 L 98.421875 52.6875 L 63.050781 60.351562 L 45.800781 60.085938 Z M 22.738281 -12.519531 "/>
<path style=" stroke:none;fill-rule:nonzero;fill:rgb(39.99939%,39.99939%,39.99939%);fill-opacity:0.3;" d="M 90.996094 1.914062 L 94.675781 -0.175781 L 98.308594 -4.796875 L 99.847656 -10.535156 L 98.933594 -16.09375 L 95.828125 -21.046875 L 90.957031 -24.5 L 89.167969 -29.765625 L 125.949219 -38.71875 L 127.796875 -32.386719 L 126.449219 -26.96875 L 127.175781 -21.789062 L 130.238281 -16.507812 L 134.890625 -12.933594 L 142.539062 -11.382812 L 168.648438 81.492188 L 159.675781 82.621094 L 149.289062 74.339844 L 121.449219 57.304688 L 110.390625 53.019531 L 107.4375 52.496094 L 104.234375 51.429688 L 104.0625 51.464844 Z M 90.996094 1.914062 "/>
<path style=" stroke:none;fill-rule:nonzero;fill:rgb(39.99939%,39.99939%,39.99939%);fill-opacity:0.3;" d="M 149.792969 -13.226562 L 154.148438 -17.457031 L 156.078125 -20.027344 L 157.234375 -23.976562 L 157.425781 -26.546875 L 156.839844 -31.046875 L 154.800781 -34.164062 L 153.441406 -36.457031 L 149.859375 -39.023438 L 148.207031 -44.53125 L 184.628906 -52.824219 L 185.847656 -47.410156 L 184.296875 -41.335938 L 185.171875 -35.757812 L 192.445312 -27.5625 L 200.578125 -26.261719 L 230.773438 78.878906 L 229.882812 81.417969 L 227.511719 83.957031 L 185.613281 95.570312 L 181.152344 93.601562 L 178.175781 90.785156 Z M 149.792969 -13.226562 "/>
<path style=" stroke:none;fill-rule:nonzero;fill:rgb(39.99939%,39.99939%,39.99939%);fill-opacity:0.3;" d="M 206.417969 -58.757812 L 250.589844 -69.863281 L 287.929688 61.808594 L 240.917969 74.320312 L 210.953125 -30.867188 L 213.714844 -33.824219 L 215.089844 -40.0625 L 214.390625 -46.296875 L 211.964844 -50.394531 L 208.328125 -52.523438 Z M 206.417969 -58.757812 "/>
<path style=" stroke:none;fill-rule:nonzero;fill:rgb(39.99939%,39.99939%,39.99939%);fill-opacity:0.3;" d="M 241.039062 92.921875 L 295.816406 77.144531 L 335.511719 214.882812 L 259.28125 154.84375 Z M 241.039062 92.921875 "/>
<path style=" stroke:none;fill-rule:nonzero;fill:rgb(39.99939%,39.99939%,39.99939%);fill-opacity:0.3;" d="M 201.464844 103.886719 L 231.761719 95.074219 L 247.636719 141.171875 Z M 201.464844 103.886719 "/>
<path style=" stroke:none;fill-rule:nonzero;fill:rgb(39.99939%,39.99939%,39.99939%);fill-opacity:0.3;" d="M -268.925781 -260.851562 L -48.460938 -232.921875 L 5.738281 -41.058594 L -41.425781 -29.519531 L -42.03125 -33.179688 L -40.535156 -38.769531 L -41.40625 -44.476562 L -44.511719 -49.433594 L -49.382812 -52.882812 L -55.269531 -54.300781 L -58.074219 -53.90625 L -97.855469 -200.476562 L -103.441406 -199.585938 L -62.765625 -52.417969 L -66.503906 -50.527344 L -70.140625 -45.90625 L -71.632812 -40.316406 L -70.761719 -34.609375 L -67.65625 -29.652344 L -62.789062 -26.199219 L -62.042969 -23.492188 L -97.175781 -13.761719 L -97.9375 -16.332031 L -96.613281 -22.777344 L -97.566406 -28.214844 L -100.671875 -33.167969 L -105.542969 -36.621094 L -111.429688 -38.039062 L -115.378906 -37.460938 L -126.042969 -77.003906 L -128.601562 -76.480469 L -131.164062 -75.957031 L -121.230469 -35.179688 L -122.664062 -34.261719 L -126.300781 -29.640625 L -127.792969 -24.054688 L -126.921875 -18.34375 L -123.816406 -13.390625 L -120.742188 -10.964844 L -119.960938 -7.160156 L -170.195312 5.675781 L -136.839844 -151.941406 L -193.265625 -200.589844 L -254.375 -248.671875 L -269.234375 -253.273438 Z M -268.925781 -260.851562 "/>
<path style=" stroke:none;fill-rule:nonzero;fill:rgb(39.99939%,39.99939%,39.99939%);fill-opacity:0.3;" d="M 292.867188 192.742188 L 293.988281 193.597656 L 310.074219 205.847656 L 300.21875 199.6875 Z M 292.867188 192.742188 "/>
<path style=" stroke:none;fill-rule:nonzero;fill:rgb(39.99939%,39.99939%,39.99939%);fill-opacity:0.3;" d="M 57.277344 262.703125 L 46.851562 247.472656 L 32.257812 227.191406 L 13.203125 204.375 L -8.824219 182.691406 L -32.933594 161.011719 L -56.84375 138.316406 L -99.847656 97.3125 L -163.167969 35.699219 L -54.914062 7.128906 L -53.761719 6.84375 L -51.90625 11.621094 L -54.703125 18.917969 L -50.722656 29.582031 L -37.886719 34.144531 L -32.921875 53.023438 L -65.492188 43.269531 L -71.257812 62.375 L -67.835938 62.933594 L -64.417969 63.492188 L -61.164062 51.648438 L -24.292969 59.777344 L -23.492188 59.84375 L -21.6875 65.644531 L 43.304688 64.628906 L 46.09375 64.027344 L 57.167969 63.96875 L 92.527344 63.34375 L 100.46875 55.441406 L 102.96875 56.265625 L 51.429688 253.507812 Z M 57.277344 262.703125 "/>
<path style=" stroke:none;fill-rule:nonzero;fill:rgb(39.99939%,39.99939%,39.99939%);fill-opacity:0.3;" d="M -175.65625 45.480469 L -145.28125 74.40625 L -22.230469 197.722656 L -7.914062 211.464844 L 3.695312 223.292969 L 17.988281 241.320312 L 30.21875 258.773438 L 42.800781 275.265625 L 54.414062 290.761719 L 62.457031 303.441406 L 68.714844 313.300781 L 72.449219 319.699219 L -61.289062 212.890625 L -88.417969 204.113281 L -99.289062 192.265625 L -100.792969 196.121094 L -168.929688 119.464844 Z M -175.65625 45.480469 "/>
<path style=" stroke:none;fill-rule:nonzero;fill:rgb(39.99939%,39.99939%,39.99939%);fill-opacity:0.3;" d="M 98.421875 52.6875 L 98.507812 53.007812 L 91.542969 60.792969 L 63.050781 60.351562 Z M 98.421875 52.6875 "/>
<path style=" stroke:none;fill-rule:nonzero;fill:rgb(39.99939%,39.99939%,39.99939%);fill-opacity:0.3;" d="M 104.144531 51.773438 L 104.0625 51.464844 L 104.234375 51.429688 Z M 104.144531 51.773438 "/>
<path style=" stroke:none;fill-rule:nonzero;fill:rgb(39.99939%,39.99939%,39.99939%);fill-opacity:0.3;" d="M 7.238281 87.632812 L 1.613281 86.535156 L 4.242188 77.269531 L 8.464844 78.09375 L 8.785156 82.195312 L 17.511719 83.816406 L 19.382812 80.21875 L 24.867188 81.285156 L 22.238281 90.550781 L 15.945312 89.328125 L 14.664062 93.835938 L 20.957031 95.058594 L 17.671875 105.585938 L 12.53125 104.339844 L 12.730469 100.65625 L 4.015625 98.984375 L 1.644531 102.222656 L -2.601562 101.367188 L 0.417969 90.746094 L 5.957031 92.140625 Z M 7.238281 87.632812 "/>
<path style=" stroke:none;fill-rule:nonzero;fill:rgb(39.99939%,39.99939%,39.99939%);fill-opacity:0.3;" d="M -3.820312 119.621094 L -9.445312 118.527344 L -6.816406 109.261719 L -2.59375 110.082031 L -2.273438 114.183594 L 6.453125 115.808594 L 8.324219 112.207031 L 13.808594 113.277344 L 11.179688 122.542969 L 4.886719 121.316406 L 3.609375 125.828125 L 9.898438 127.050781 L 6.613281 137.574219 L 1.472656 136.328125 L 1.671875 132.644531 L -7.042969 130.976562 L -9.414062 134.210938 L -13.660156 133.359375 L -10.640625 122.734375 L -5.101562 124.132812 Z M -3.820312 119.621094 "/>
<path style=" stroke:none;fill-rule:nonzero;fill:rgb(39.99939%,39.99939%,39.99939%);fill-opacity:0.3;" d="M -12 149.660156 L -17.628906 148.566406 L -14.996094 139.300781 L -10.773438 140.121094 L -10.457031 144.222656 L -1.730469 145.84375 L 0.140625 142.246094 L 5.628906 143.3125 L 2.996094 152.578125 L -3.292969 151.355469 L -4.574219 155.863281 L 1.714844 157.089844 L -1.570312 167.613281 L -6.710938 166.367188 L -6.511719 162.683594 L -15.226562 161.015625 L -17.59375 164.25 L -21.839844 163.394531 L -18.824219 152.773438 L -13.28125 154.167969 Z M -12 149.660156 "/>
<path style=" stroke:none;fill-rule:nonzero;fill:rgb(39.99939%,39.99939%,39.99939%);fill-opacity:0.3;" d="M 80.910156 296.328125 L 63.828125 272.265625 L 57.277344 262.703125 L 51.429688 253.507812 L 102.96875 56.265625 L 119.074219 61.570312 L 167.558594 91.292969 L 182.027344 103.925781 L 167.386719 119.972656 L 138 160.46875 L 131.671875 171.574219 L 88.308594 308.570312 Z M 80.910156 296.328125 "/>
<path style=" stroke:none;fill-rule:nonzero;fill:rgb(39.99939%,39.99939%,39.99939%);fill-opacity:0.3;" d="M 123.4375 78.332031 L 156.761719 86.371094 L 154.09375 95.589844 L 143.070312 92.933594 L 141.203125 99.421875 L 152.210938 102.078125 L 149.195312 112.496094 L 115.867188 104.457031 L 118.886719 94.039062 L 127.078125 96.015625 L 128.886719 89.511719 L 120.765625 87.554688 Z M 123.4375 78.332031 "/>
<path style=" stroke:none;fill-rule:nonzero;fill:rgb(39.99939%,39.99939%,39.99939%);fill-opacity:0.3;" d="M 115.226562 106.109375 L 148.550781 114.148438 L 145.878906 123.367188 L 134.859375 120.710938 L 132.992188 127.199219 L 144 129.855469 L 140.980469 140.273438 L 107.65625 132.234375 L 110.675781 121.816406 L 118.863281 123.792969 L 120.671875 117.289062 L 112.554688 115.332031 Z M 115.226562 106.109375 "/>
<path style=" stroke:none;fill-rule:nonzero;fill:rgb(39.99939%,39.99939%,39.99939%);fill-opacity:0.3;" d="M 105.144531 134.226562 L 138.46875 142.265625 L 135.796875 151.484375 L 124.777344 148.828125 L 122.910156 155.316406 L 133.917969 157.972656 L 130.898438 168.390625 L 97.574219 160.351562 L 100.59375 149.933594 L 108.785156 151.910156 L 110.59375 145.40625 L 102.472656 143.445312 Z M 105.144531 134.226562 "/>
<path style=" stroke:none;fill-rule:nonzero;fill:rgb(39.99939%,39.99939%,39.99939%);fill-opacity:0.3;" d="M 105.886719 179.640625 L 125.492188 183.601562 L 124.480469 189.4375 L 119.277344 188.386719 L 118.421875 192.859375 L 123.085938 193.679688 L 121.484375 199.800781 L 102.480469 196.398438 L 104.007812 189.945312 L 109.367188 191.027344 L 110.222656 186.554688 L 104.863281 185.472656 Z M 105.886719 179.640625 "/>
<path style=" stroke:none;fill-rule:nonzero;fill:rgb(39.99939%,39.99939%,39.99939%);fill-opacity:0.3;" d="M 99.257812 204.015625 L 118.863281 207.980469 L 117.851562 213.816406 L 112.648438 212.761719 L 111.792969 217.234375 L 115.742188 218.097656 L 114.484375 224 L 95.851562 220.777344 L 97.378906 214.320312 L 102.742188 215.40625 L 103.59375 210.933594 L 98.234375 209.847656 Z M 99.257812 204.015625 "/>
<path style=" stroke:none;fill-rule:nonzero;fill:rgb(39.99939%,39.99939%,39.99939%);fill-opacity:0.3;" d="M 91.203125 227.941406 L 110.808594 231.90625 L 109.796875 237.742188 L 104.59375 236.691406 L 103.738281 241.164062 L 108.511719 241.976562 L 107.023438 248.316406 L 87.796875 244.703125 L 89.324219 238.246094 L 94.683594 239.332031 L 95.539062 234.859375 L 90.175781 233.777344 Z M 91.203125 227.941406 "/>
<path style=" stroke:none;fill-rule:nonzero;fill:rgb(39.99939%,39.99939%,39.99939%);fill-opacity:0.3;" d="M 84.097656 250.964844 L 103.703125 254.929688 L 102.691406 260.765625 L 97.488281 259.714844 L 96.632812 264.1875 L 101.390625 264.972656 L 100.019531 271.3125 L 80.691406 267.726562 L 82.214844 261.269531 L 87.578125 262.355469 L 88.433594 257.882812 L 83.070312 256.800781 Z M 84.097656 250.964844 "/>
<path style=" stroke:none;fill-rule:nonzero;fill:rgb(39.99939%,39.99939%,39.99939%);fill-opacity:0.3;" d="M 107.4375 52.496094 L 104.183594 51.921875 L 104.144531 51.773438 L 104.234375 51.429688 Z M 107.4375 52.496094 "/>
<g clip-path="url(#clip1)" clip-rule="nonzero">
<path style=" stroke:none;fill-rule:nonzero;fill:rgb(39.99939%,39.99939%,39.99939%);fill-opacity:0.3;" d="M 56.082031 468.601562 L 85.964844 367.339844 L 87.742188 361.121094 L 94.773438 359.390625 L 111.367188 383.46875 L 130.226562 407.542969 L 156.863281 429.804688 L 166.921875 437.589844 L 272.398438 509.59375 L 288.34375 521.917969 L 276.863281 537.441406 L 260.589844 554.734375 L 244.769531 565.320312 L 222.21875 574.199219 L 169.453125 591.027344 L 106.054688 609.332031 L 86.707031 614.785156 L 79.621094 616.863281 L 71.988281 619.976562 L 62.996094 622.316406 L 55.089844 624.652344 L 43.644531 628.289062 L 30.835938 632.699219 L 19.9375 636.851562 L 10.667969 639.449219 L 6.851562 638.9375 L 3.851562 637.132812 L 0.84375 632.996094 L -0.707031 627.230469 L 0.300781 621.4375 L 3.535156 610.222656 L 7.363281 599.292969 L 31.640625 538.152344 L 79.039062 553.941406 L 81.703125 546.042969 L 35.015625 530.308594 Z M 56.082031 468.601562 "/>
</g>
<g clip-path="url(#clip2)" clip-rule="nonzero">
<path style=" stroke:none;fill-rule:nonzero;fill:rgb(39.99939%,39.99939%,39.99939%);fill-opacity:0.3;" d="M 136.058594 227.089844 L 136.917969 199.902344 L 143.613281 177.503906 L 168.386719 142.292969 L 177.402344 129.898438 L 190.539062 114.820312 L 292.867188 192.742188 L 300.21875 199.6875 L 310.074219 205.847656 L 339.214844 228.039062 L 348.480469 260.820312 L 290.910156 300.792969 L 292.277344 281.234375 L 288.996094 281.78125 L 285.71875 282.324219 L 283.972656 305.027344 L 274.820312 313.257812 L 277.144531 315.652344 L 277.574219 316.09375 L 280.28125 318.886719 L 350.269531 267.300781 L 379.496094 371.914062 L 293.210938 495.660156 L 208.667969 438.3125 L 193.765625 430.039062 L 171.140625 417.480469 L 151.65625 401.023438 L 143.996094 391.800781 L 122.914062 361.582031 L 104.449219 330.121094 Z M 136.058594 227.089844 "/>
</g>
<g clip-path="url(#clip3)" clip-rule="nonzero">
<path style=" stroke:none;fill-rule:nonzero;fill:rgb(39.99939%,39.99939%,39.99939%);fill-opacity:0.3;" d="M 337.578125 126.128906 L 432.757812 105.410156 L 454.425781 185.964844 L 368.292969 238.234375 Z M 337.578125 126.128906 "/>
</g>
<g clip-path="url(#clip4)" clip-rule="nonzero">
<path style=" stroke:none;fill-rule:nonzero;fill:rgb(39.99939%,39.99939%,39.99939%);fill-opacity:0.3;" d="M 352.546875 -6.816406 L 404.160156 -19.339844 L 431.375 99.347656 L 385.609375 109.273438 Z M 352.546875 -6.816406 "/>
</g>
<g clip-path="url(#clip5)" clip-rule="nonzero">
<path style=" stroke:none;fill-rule:nonzero;fill:rgb(39.99939%,39.99939%,39.99939%);fill-opacity:0.3;" d="M 303.398438 5.109375 L 345.28125 -5.054688 L 378.351562 110.890625 L 336.277344 120.046875 Z M 303.398438 5.109375 "/>
</g>
<path style="fill-rule:nonzero;fill:rgb(39.99939%,39.99939%,39.99939%);fill-opacity:1;stroke-width:0.03;stroke-linecap:square;stroke-linejoin:miter;stroke:rgb(39.99939%,39.99939%,39.99939%);stroke-opacity:1;stroke-miterlimit:3.239307;" d="M 154.910156 309.328125 L 137.828125 285.265625 L 131.277344 275.703125 L 125.429688 266.507812 L 176.96875 69.265625 L 193.074219 74.570312 L 241.558594 104.292969 L 256.027344 116.925781 L 241.386719 132.972656 L 212 173.46875 L 205.671875 184.574219 L 162.308594 321.570312 Z M 154.910156 309.328125 " transform="matrix(1,0,0,1,-74,-13)"/>
<path style="fill-rule:nonzero;fill:rgb(39.99939%,39.99939%,39.99939%);fill-opacity:1;stroke-width:0.03;stroke-linecap:square;stroke-linejoin:miter;stroke:rgb(39.99939%,39.99939%,39.99939%);stroke-opacity:1;stroke-miterlimit:3.239307;" d="M 197.4375 91.332031 L 230.761719 99.371094 L 228.09375 108.589844 L 217.070312 105.933594 L 215.203125 112.421875 L 226.210938 115.078125 L 223.195312 125.496094 L 189.867188 117.457031 L 192.886719 107.039062 L 201.078125 109.015625 L 202.886719 102.511719 L 194.765625 100.554688 Z M 197.4375 91.332031 " transform="matrix(1,0,0,1,-74,-13)"/>
<path style="fill-rule:nonzero;fill:rgb(39.99939%,39.99939%,39.99939%);fill-opacity:1;stroke-width:0.03;stroke-linecap:square;stroke-linejoin:miter;stroke:rgb(39.99939%,39.99939%,39.99939%);stroke-opacity:1;stroke-miterlimit:3.239307;" d="M 189.226562 119.109375 L 222.550781 127.148438 L 219.878906 136.367188 L 208.859375 133.710938 L 206.992188 140.199219 L 218 142.855469 L 214.980469 153.273438 L 181.65625 145.234375 L 184.675781 134.816406 L 192.863281 136.792969 L 194.671875 130.289062 L 186.554688 128.332031 Z M 189.226562 119.109375 " transform="matrix(1,0,0,1,-74,-13)"/>
<path style="fill-rule:nonzero;fill:rgb(39.99939%,39.99939%,39.99939%);fill-opacity:1;stroke-width:0.03;stroke-linecap:square;stroke-linejoin:miter;stroke:rgb(39.99939%,39.99939%,39.99939%);stroke-opacity:1;stroke-miterlimit:3.239307;" d="M 179.144531 147.226562 L 212.46875 155.265625 L 209.796875 164.484375 L 198.777344 161.828125 L 196.910156 168.316406 L 207.917969 170.972656 L 204.898438 181.390625 L 171.574219 173.351562 L 174.59375 162.933594 L 182.785156 164.910156 L 184.59375 158.40625 L 176.472656 156.445312 Z M 179.144531 147.226562 " transform="matrix(1,0,0,1,-74,-13)"/>
<path style="fill-rule:nonzero;fill:rgb(39.99939%,39.99939%,39.99939%);fill-opacity:1;stroke-width:0.03;stroke-linecap:square;stroke-linejoin:miter;stroke:rgb(39.99939%,39.99939%,39.99939%);stroke-opacity:1;stroke-miterlimit:3.239307;" d="M 179.886719 192.640625 L 199.492188 196.601562 L 198.480469 202.4375 L 193.277344 201.386719 L 192.421875 205.859375 L 197.085938 206.679688 L 195.484375 212.800781 L 176.480469 209.398438 L 178.007812 202.945312 L 183.367188 204.027344 L 184.222656 199.554688 L 178.863281 198.472656 Z M 179.886719 192.640625 " transform="matrix(1,0,0,1,-74,-13)"/>
<path style="fill-rule:nonzero;fill:rgb(39.99939%,39.99939%,39.99939%);fill-opacity:1;stroke-width:0.03;stroke-linecap:square;stroke-linejoin:miter;stroke:rgb(39.99939%,39.99939%,39.99939%);stroke-opacity:1;stroke-miterlimit:3.239307;" d="M 173.257812 217.015625 L 192.863281 220.980469 L 191.851562 226.816406 L 186.648438 225.761719 L 185.792969 230.234375 L 189.742188 231.097656 L 188.484375 237 L 169.851562 233.777344 L 171.378906 227.320312 L 176.742188 228.40625 L 177.59375 223.933594 L 172.234375 222.847656 Z M 173.257812 217.015625 " transform="matrix(1,0,0,1,-74,-13)"/>
<path style="fill-rule:nonzero;fill:rgb(39.99939%,39.99939%,39.99939%);fill-opacity:1;stroke-width:0.03;stroke-linecap:square;stroke-linejoin:miter;stroke:rgb(39.99939%,39.99939%,39.99939%);stroke-opacity:1;stroke-miterlimit:3.239307;" d="M 165.203125 240.941406 L 184.808594 244.90625 L 183.796875 250.742188 L 178.59375 249.691406 L 177.738281 254.164062 L 182.511719 254.976562 L 181.023438 261.316406 L 161.796875 257.703125 L 163.324219 251.246094 L 168.683594 252.332031 L 169.539062 247.859375 L 164.175781 246.777344 Z M 165.203125 240.941406 " transform="matrix(1,0,0,1,-74,-13)"/>
<path style="fill-rule:nonzero;fill:rgb(39.99939%,39.99939%,39.99939%);fill-opacity:1;stroke-width:0.03;stroke-linecap:square;stroke-linejoin:miter;stroke:rgb(39.99939%,39.99939%,39.99939%);stroke-opacity:1;stroke-miterlimit:3.239307;" d="M 158.097656 263.964844 L 177.703125 267.929688 L 176.691406 273.765625 L 171.488281 272.714844 L 170.632812 277.1875 L 175.390625 277.972656 L 174.019531 284.3125 L 154.691406 280.726562 L 156.214844 274.269531 L 161.578125 275.355469 L 162.433594 270.882812 L 157.070312 269.800781 Z M 158.097656 263.964844 " transform="matrix(1,0,0,1,-74,-13)"/>
<path style="fill-rule:nonzero;fill:rgb(39.99939%,39.99939%,39.99939%);fill-opacity:1;stroke-width:0.03;stroke-linecap:square;stroke-linejoin:miter;stroke:rgb(39.99939%,39.99939%,39.99939%);stroke-opacity:1;stroke-miterlimit:3.239307;" d="M 181.4375 65.496094 L 178.183594 64.921875 L 178.144531 64.773438 L 178.234375 64.429688 Z M 181.4375 65.496094 " transform="matrix(1,0,0,1,-74,-13)"/>
<path style=" stroke:none;fill-rule:evenodd;fill:rgb(85.096741%,85.096741%,81.959534%);fill-opacity:0.7;" d="M 28.617188 175 C 28.617188 164.226562 24.339844 153.894531 16.722656 146.277344 C 9.105469 138.660156 -1.226562 134.382812 -12 134.382812 C -22.773438 134.382812 -33.105469 138.660156 -40.722656 146.277344 C -48.339844 153.894531 -52.617188 164.226562 -52.617188 175 C -52.617188 185.773438 -48.339844 196.105469 -40.722656 203.722656 C -33.105469 211.339844 -22.773438 215.617188 -12 215.617188 C -1.226562 215.617188 9.105469 211.339844 16.722656 203.722656 C 24.339844 196.105469 28.617188 185.773438 28.617188 175 Z M 28.617188 175 "/>
<path style=" stroke:none;fill-rule:evenodd;fill:rgb(85.096741%,85.096741%,81.959534%);fill-opacity:0.7;" d="M 272.617188 142 C 272.617188 131.226562 268.339844 120.894531 260.722656 113.277344 C 253.105469 105.660156 242.773438 101.382812 232 101.382812 C 221.226562 101.382812 210.894531 105.660156 203.277344 113.277344 C 195.660156 120.894531 191.382812 131.226562 191.382812 142 C 191.382812 152.773438 195.660156 163.105469 203.277344 170.722656 C 210.894531 178.339844 221.226562 182.617188 232 182.617188 C 242.773438 182.617188 253.105469 178.339844 260.722656 170.722656 C 268.339844 163.105469 272.617188 152.773438 272.617188 142 Z M 272.617188 142 "/>
<g clip-path="url(#clip6)" clip-rule="nonzero">
<path style=" stroke:none;fill-rule:evenodd;fill:rgb(85.096741%,85.096741%,81.959534%);fill-opacity:0.7;" d="M 368.617188 85 C 368.617188 74.226562 364.339844 63.894531 356.722656 56.277344 C 349.105469 48.660156 338.773438 44.382812 328 44.382812 C 317.226562 44.382812 306.894531 48.660156 299.277344 56.277344 C 291.660156 63.894531 287.382812 74.226562 287.382812 85 C 287.382812 95.773438 291.660156 106.105469 299.277344 113.722656 C 306.894531 121.339844 317.226562 125.617188 328 125.617188 C 338.773438 125.617188 349.105469 121.339844 356.722656 113.722656 C 364.339844 106.105469 368.617188 95.773438 368.617188 85 Z M 368.617188 85 "/>
</g>
<path style=" stroke:none;fill-rule:evenodd;fill:rgb(85.096741%,85.096741%,81.959534%);fill-opacity:0.7;" d="M 77.617188 225 C 77.617188 214.226562 73.339844 203.894531 65.722656 196.277344 C 58.105469 188.660156 47.773438 184.382812 37 184.382812 C 26.226562 184.382812 15.894531 188.660156 8.277344 196.277344 C 0.660156 203.894531 -3.617188 214.226562 -3.617188 225 C -3.617188 235.773438 0.660156 246.105469 8.277344 253.722656 C 15.894531 261.339844 26.226562 265.617188 37 265.617188 C 47.773438 265.617188 58.105469 261.339844 65.722656 253.722656 C 73.339844 246.105469 77.617188 235.773438 77.617188 225 Z M 77.617188 225 "/>
<g clip-path="url(#clip7)" clip-rule="nonzero">
<path style=" stroke:none;fill-rule:nonzero;fill:rgb(99.998474%,99.998474%,30.587769%);fill-opacity:0.8;" d="M 373.335938 252.492188 L 285.390625 404.8125 L 461.277344 404.8125 Z M 373.335938 252.492188 "/>
</g>
<g clip-path="url(#clip8)" clip-rule="nonzero">
<path style="fill:none;stroke-width:0.288;stroke-linecap:square;stroke-linejoin:miter;stroke:rgb(0%,0%,0%);stroke-opacity:0.8;stroke-miterlimit:3.25;" d="M 447.335938 265.492188 L 359.390625 417.8125 L 535.277344 417.8125 Z M 447.335938 265.492188 " transform="matrix(1,0,0,1,-74,-13)"/>
</g>
</g>
</svg>
