<?xml version="1.0" encoding="UTF-8"?>
<svg xmlns="http://www.w3.org/2000/svg" xmlns:xlink="http://www.w3.org/1999/xlink" width="361pt" height="361pt" viewBox="0 0 361 361" version="1.1">
<defs>
<clipPath id="clip1">
  <path d="M 340 46 L 360 46 L 360 110 L 340 110 Z M 340 46 "/>
</clipPath>
<clipPath id="clip2">
  <path d="M 351 0 L 360 0 L 360 15 L 351 15 Z M 351 0 "/>
</clipPath>
<clipPath id="clip3">
  <path d="M 325 13 L 360 13 L 360 42 L 325 42 Z M 325 13 "/>
</clipPath>
<clipPath id="clip4">
  <path d="M 352 86 L 360 86 L 360 135 L 352 135 Z M 352 86 "/>
</clipPath>
<clipPath id="clip5">
  <path d="M 358 114 L 360 114 L 360 149 L 358 149 Z M 358 114 "/>
</clipPath>
<clipPath id="clip6">
  <path d="M 317 122 L 360 122 L 360 199 L 317 199 Z M 317 122 "/>
</clipPath>
<clipPath id="clip7">
  <path d="M 329 12 L 360 12 L 360 60 L 329 60 Z M 329 12 "/>
</clipPath>
<clipPath id="clip8">
  <path d="M 0 343 L 14 343 L 14 360 L 0 360 Z M 0 343 "/>
</clipPath>
<clipPath id="clip9">
  <path d="M 0 333 L 53 333 L 53 360 L 0 360 Z M 0 333 "/>
</clipPath>
<clipPath id="clip10">
  <path d="M 69 314 L 145 314 L 145 360 L 69 360 Z M 69 314 "/>
</clipPath>
<clipPath id="clip11">
  <path d="M 31 323 L 92 323 L 92 360 L 31 360 Z M 31 323 "/>
</clipPath>
<clipPath id="clip12">
  <path d="M 139 357 L 196 357 L 196 360 L 139 360 Z M 139 357 "/>
</clipPath>
<clipPath id="clip13">
  <path d="M 156 271 L 252 271 L 252 360 L 156 360 Z M 156 271 "/>
</clipPath>
<clipPath id="clip14">
  <path d="M 108 291 L 169 291 L 169 360 L 108 360 Z M 108 291 "/>
</clipPath>
<clipPath id="clip15">
  <path d="M 224 269 L 255 269 L 255 360 L 224 360 Z M 224 269 "/>
</clipPath>
<clipPath id="clip16">
  <path d="M 351 0 L 360 0 L 360 13 L 351 13 Z M 351 0 "/>
</clipPath>
<clipPath id="clip17">
  <path d="M 284 0 L 360 0 L 360 49 L 284 49 Z M 284 0 "/>
</clipPath>
<clipPath id="clip18">
  <path d="M 322 196 L 360 196 L 360 230 L 322 230 Z M 322 196 "/>
</clipPath>
<clipPath id="clip19">
  <path d="M 332 232 L 360 232 L 360 298 L 332 298 Z M 332 232 "/>
</clipPath>
<clipPath id="clip20">
  <path d="M 353 240 L 360 240 L 360 309 L 353 309 Z M 353 240 "/>
</clipPath>
<clipPath id="clip21">
  <path d="M 279 314 L 360 314 L 360 360 L 279 360 Z M 279 314 "/>
</clipPath>
<clipPath id="clip22">
  <path d="M 293 294 L 351 294 L 351 360 L 293 360 Z M 293 294 "/>
</clipPath>
<clipPath id="clip23">
  <path d="M 310 307 L 360 307 L 360 360 L 310 360 Z M 310 307 "/>
</clipPath>
<clipPath id="clip24">
  <path d="M 341 351 L 352 351 L 352 360 L 341 360 Z M 341 351 "/>
</clipPath>
<clipPath id="clip25">
  <path d="M 224 253 L 290 253 L 290 360 L 224 360 Z M 224 253 "/>
</clipPath>
<clipPath id="clip26">
  <path d="M 341 239 L 360 239 L 360 295 L 341 295 Z M 341 239 "/>
</clipPath>
</defs>
<g id="surface9653">
<path style="fill-rule:nonzero;fill:rgb(0%,0%,0%);fill-opacity:1;stroke-width:0.03;stroke-linecap:square;stroke-linejoin:miter;stroke:rgb(0%,0%,0%);stroke-opacity:1;stroke-miterlimit:10;" d="M 0 178 L 360 178 L 360 -182 L 0 -182 Z M 0 178 " transform="matrix(1,0,0,1,0,182)"/>
<g clip-path="url(#clip1)" clip-rule="nonzero">
<path style=" stroke:none;fill-rule:nonzero;fill:rgb(39.99939%,39.99939%,39.99939%);fill-opacity:0.3;" d="M 431.988281 59.449219 L 432.070312 61.394531 L 429.761719 65.65625 L 427.070312 68.433594 L 427.433594 73.753906 L 428.121094 73.769531 L 428.707031 73.804688 L 428.578125 68.773438 L 431.488281 65.375 L 433.453125 61.820312 L 433.625 59.738281 L 459.957031 65.644531 L 459.058594 67.660156 L 457.125 70.648438 L 454.476562 73.195312 L 450.492188 75.640625 L 446.746094 77.089844 L 443.410156 77.976562 L 437.832031 79.023438 L 428.824219 80.101562 L 419.363281 80.605469 L 409.796875 80.667969 L 398.480469 80.453125 L 351.769531 109.957031 L 340.28125 74.636719 L 360.542969 70.269531 L 364.660156 81.945312 L 365.261719 82.285156 L 365.878906 82.59375 L 366.511719 82.875 L 367.160156 83.121094 L 367.820312 83.335938 L 368.492188 83.515625 L 369.171875 83.664062 L 369.859375 83.777344 L 370.550781 83.855469 L 371.25 83.898438 L 371.945312 83.910156 L 372.644531 83.886719 L 373.339844 83.828125 L 374.03125 83.734375 L 374.714844 83.605469 L 375.394531 83.441406 L 376.0625 83.246094 L 376.714844 83.019531 L 377.359375 82.757812 L 377.984375 82.46875 L 378.59375 82.144531 L 379.1875 81.792969 L 379.757812 81.410156 L 380.304688 81.003906 L 380.832031 80.566406 L 381.332031 80.105469 L 381.808594 79.621094 L 382.253906 79.109375 L 382.675781 78.582031 L 383.0625 78.03125 L 383.421875 77.460938 L 383.714844 76.941406 L 380.003906 67.171875 L 364.386719 66.144531 L 370.40625 46.609375 Z M 431.988281 59.449219 "/>
</g>
<g clip-path="url(#clip2)" clip-rule="nonzero">
<path style=" stroke:none;fill-rule:nonzero;fill:rgb(39.99939%,39.99939%,39.99939%);fill-opacity:0.3;" d="M 371.953125 -4.179688 L 388.851562 -17.40625 L 391.707031 -11.839844 L 381.769531 -4.65625 L 377.746094 5.152344 L 366.289062 12.855469 L 360.695312 14.984375 L 351.929688 12.308594 L 361.242188 6.207031 Z M 371.953125 -4.179688 "/>
</g>
<path style=" stroke:none;fill-rule:nonzero;fill:rgb(39.99939%,39.99939%,39.99939%);fill-opacity:0.3;" d="M 336.359375 62.011719 L 351.324219 56.917969 L 359.628906 68.429688 L 339.605469 72.410156 Z M 336.359375 62.011719 "/>
<g clip-path="url(#clip3)" clip-rule="nonzero">
<path style=" stroke:none;fill-rule:nonzero;fill:rgb(39.99939%,39.99939%,39.99939%);fill-opacity:0.3;" d="M 325.371094 32.632812 L 347.199219 15.410156 L 349.652344 13.800781 L 350.621094 13.875 L 359.078125 17.226562 L 364.875 18.011719 L 372.660156 17.738281 L 364.878906 22.496094 L 355.679688 26.359375 L 347.089844 30.695312 L 339.308594 35.453125 L 328.304688 41.894531 Z M 325.371094 32.632812 "/>
</g>
<g clip-path="url(#clip4)" clip-rule="nonzero">
<path style=" stroke:none;fill-rule:nonzero;fill:rgb(39.99939%,39.99939%,39.99939%);fill-opacity:0.3;" d="M 352.710938 115.496094 L 396.371094 86.5625 L 408.054688 111.628906 L 358.242188 134.554688 Z M 352.710938 115.496094 "/>
</g>
<path style=" stroke:none;fill-rule:nonzero;fill:rgb(39.99939%,39.99939%,39.99939%);fill-opacity:0.3;" d="M 292.390625 54.621094 L 322.800781 34.117188 L 345.621094 112.742188 L 311.839844 125.511719 Z M 292.390625 54.621094 "/>
<path style=" stroke:none;fill-rule:nonzero;fill:rgb(39.99939%,39.99939%,39.99939%);fill-opacity:0.3;" d="M 258.394531 77.105469 L 287.609375 57.699219 L 307.109375 127.09375 L 275.417969 137.707031 Z M 258.394531 77.105469 "/>
<g clip-path="url(#clip5)" clip-rule="nonzero">
<path style=" stroke:none;fill-rule:nonzero;fill:rgb(39.99939%,39.99939%,39.99939%);fill-opacity:0.3;" d="M 358.824219 137.644531 L 409.546875 114.277344 L 415.054688 124.066406 L 361.574219 148.667969 Z M 358.824219 137.644531 "/>
</g>
<g clip-path="url(#clip6)" clip-rule="nonzero">
<path style=" stroke:none;fill-rule:nonzero;fill:rgb(39.99939%,39.99939%,39.99939%);fill-opacity:0.3;" d="M 317.035156 131.851562 L 343.605469 122.554688 L 360.738281 188.964844 L 337.691406 198.101562 Z M 317.035156 131.851562 "/>
</g>
<g clip-path="url(#clip7)" clip-rule="nonzero">
<path style=" stroke:none;fill-rule:nonzero;fill:rgb(39.99939%,39.99939%,39.99939%);fill-opacity:0.3;" d="M 329.0625 43.894531 L 349.59375 31.746094 L 362.058594 26.121094 L 371.3125 36.714844 L 373.15625 35.738281 L 374.996094 34.761719 L 366.089844 24.257812 L 378.929688 16.386719 L 387.238281 12.652344 L 393.257812 13.722656 L 387.4375 29.839844 L 388.691406 30.234375 L 389.941406 30.628906 L 395.761719 14.269531 L 404.109375 16.105469 L 397.109375 34.339844 L 398.394531 34.585938 L 399.683594 34.835938 L 406.902344 16.765625 L 417.558594 18.96875 L 413.3125 35.609375 L 416.375 36.132812 L 420.800781 19.25 L 460.25 20.960938 L 457.832031 57.457031 L 449.496094 56.894531 L 450.574219 39.269531 L 446.386719 39.113281 L 445.3125 56.15625 L 426.277344 53.042969 L 428.140625 36.878906 L 427.347656 36.8125 L 426.335938 36.75 L 424.382812 52.554688 L 371.453125 43.074219 L 335.167969 59.191406 L 333.214844 55.238281 L 341.695312 52.082031 L 341.484375 50.621094 L 341.273438 49.164062 L 332.097656 52.074219 Z M 329.0625 43.894531 "/>
</g>
<path style=" stroke:none;fill-rule:nonzero;fill:rgb(39.99939%,39.99939%,39.99939%);fill-opacity:0.3;" d="M 17.417969 -11.351562 L 42.503906 -11.128906 L 18.433594 14.050781 L 16.113281 15.042969 Z M 17.417969 -11.351562 "/>
<path style=" stroke:none;fill-rule:nonzero;fill:rgb(39.99939%,39.99939%,39.99939%);fill-opacity:0.3;" d="M -42.742188 -11.238281 L 12.882812 -11.164062 L 9.871094 14.996094 L -42.433594 15.207031 Z M -42.742188 -11.238281 "/>
<path style=" stroke:none;fill-rule:nonzero;fill:rgb(39.99939%,39.99939%,39.99939%);fill-opacity:0.3;" d="M -43.660156 23.242188 L 9.546875 22.722656 L 3.191406 30.496094 L -18.046875 47.085938 L -44.078125 47.050781 Z M -43.660156 23.242188 "/>
<path style=" stroke:none;fill-rule:nonzero;fill:rgb(39.99939%,39.99939%,39.99939%);fill-opacity:0.3;" d="M 64.367188 166.625 L 75.125 207.898438 L 36.441406 214.441406 L 23.980469 175.097656 L 51.429688 164.574219 L 51.765625 165.109375 L 64.253906 166.496094 Z M 64.367188 166.625 "/>
<path style=" stroke:none;fill-rule:nonzero;fill:rgb(39.99939%,39.99939%,39.99939%);fill-opacity:0.3;" d="M -9.433594 189.25 L 18.554688 177.398438 L 30.289062 215.511719 L -1.140625 221.039062 Z M -9.433594 189.25 "/>
<path style=" stroke:none;fill-rule:nonzero;fill:rgb(39.99939%,39.99939%,39.99939%);fill-opacity:0.3;" d="M 82.539062 210.238281 L 82.957031 210.128906 L 82.988281 210.214844 L 83.742188 214.511719 Z M 82.539062 210.238281 "/>
<path style=" stroke:none;fill-rule:nonzero;fill:rgb(39.99939%,39.99939%,39.99939%);fill-opacity:0.3;" d="M 0.601562 224.613281 L 32.011719 219.085938 L 62.527344 318.21875 L 28.363281 326.808594 Z M 0.601562 224.613281 "/>
<g clip-path="url(#clip8)" clip-rule="nonzero">
<path style=" stroke:none;fill-rule:nonzero;fill:rgb(39.99939%,39.99939%,39.99939%);fill-opacity:0.3;" d="M -47.75 351.570312 L -14.601562 343.070312 L 13.628906 440.828125 L -19.5 449.414062 Z M -47.75 351.570312 "/>
</g>
<g clip-path="url(#clip9)" clip-rule="nonzero">
<path style=" stroke:none;fill-rule:nonzero;fill:rgb(39.99939%,39.99939%,39.99939%);fill-opacity:0.3;" d="M -7.925781 341.355469 L 24.46875 333.050781 L 52.664062 430.710938 L 20.296875 439.097656 Z M -7.925781 341.355469 "/>
</g>
<path style=" stroke:none;fill-rule:nonzero;fill:rgb(39.99939%,39.99939%,39.99939%);fill-opacity:0.3;" d="M 37.773438 218.078125 L 75.355469 211.648438 L 102.46875 308.175781 L 68.015625 316.835938 Z M 37.773438 218.078125 "/>
<g clip-path="url(#clip10)" clip-rule="nonzero">
<path style=" stroke:none;fill-rule:nonzero;fill:rgb(39.99939%,39.99939%,39.99939%);fill-opacity:0.3;" d="M 69.617188 321.472656 L 100.796875 314.328125 L 144.109375 406.636719 L 97.757812 418.9375 Z M 69.617188 321.472656 "/>
</g>
<g clip-path="url(#clip11)" clip-rule="nonzero">
<path style=" stroke:none;fill-rule:nonzero;fill:rgb(39.99939%,39.99939%,39.99939%);fill-opacity:0.3;" d="M 31.144531 331.339844 L 62.941406 323.183594 L 91.097656 420.703125 L 59.335938 428.980469 Z M 31.144531 331.339844 "/>
</g>
<path style=" stroke:none;fill-rule:nonzero;fill:rgb(39.99939%,39.99939%,39.99939%);fill-opacity:0.3;" d="M -54.160156 204.976562 L -12.28125 190.953125 L 22.578125 328.265625 L -17.691406 338.390625 Z M -54.160156 204.976562 "/>
<g clip-path="url(#clip12)" clip-rule="nonzero">
<path style=" stroke:none;fill-rule:nonzero;fill:rgb(39.99939%,39.99939%,39.99939%);fill-opacity:0.3;" d="M 139.855469 379.570312 L 170.738281 357.75 L 195.730469 394.320312 L 152.421875 404.722656 Z M 139.855469 379.570312 "/>
</g>
<g clip-path="url(#clip13)" clip-rule="nonzero">
<path style=" stroke:none;fill-rule:nonzero;fill:rgb(39.99939%,39.99939%,39.99939%);fill-opacity:0.3;" d="M 156.179688 316.941406 L 203.4375 292.097656 L 197.988281 278.992188 L 218.996094 271.441406 L 220.113281 283.621094 L 222.789062 297.90625 L 226.480469 311.679688 L 176.722656 336.003906 L 177.71875 337.617188 L 178.714844 339.234375 L 227.257812 315.738281 L 230.253906 325.753906 L 239.234375 351.335938 L 251.027344 381.039062 L 202.148438 392.777344 L 189.777344 375.34375 L 181.621094 363.40625 L 174.722656 352.625 L 169.84375 344.402344 L 163.992188 333.65625 L 158.738281 322.851562 L 157.109375 319.144531 Z M 156.179688 316.941406 "/>
</g>
<g clip-path="url(#clip14)" clip-rule="nonzero">
<path style=" stroke:none;fill-rule:nonzero;fill:rgb(39.99939%,39.99939%,39.99939%);fill-opacity:0.3;" d="M 139.253906 291.082031 L 149.847656 317.949219 L 130.617188 332.152344 L 132.195312 334.640625 L 133.777344 337.128906 L 152.222656 323.375 L 161.871094 342.710938 L 168.722656 354.492188 L 137.980469 375.726562 L 126.496094 352.230469 L 120.113281 339.171875 L 116.785156 332.003906 L 110.207031 313.488281 L 108.789062 308.570312 Z M 139.253906 291.082031 "/>
</g>
<path style=" stroke:none;fill-rule:nonzero;fill:rgb(39.99939%,39.99939%,39.99939%);fill-opacity:0.3;" d="M 201.574219 250.496094 L 182.117188 264.851562 L 187.074219 258.09375 L 193.320312 254.621094 Z M 201.574219 250.496094 "/>
<path style=" stroke:none;fill-rule:nonzero;fill:rgb(39.99939%,39.99939%,39.99939%);fill-opacity:0.3;" d="M 155.164062 284.652344 L 146.777344 290.832031 L 145.839844 287.65625 L 153.074219 285.847656 Z M 155.164062 284.652344 "/>
<g clip-path="url(#clip15)" clip-rule="nonzero">
<path style=" stroke:none;fill-rule:nonzero;fill:rgb(39.99939%,39.99939%,39.99939%);fill-opacity:0.3;" d="M 254.066406 371.609375 L 247.503906 355.226562 L 242.597656 342.210938 L 239.136719 332.371094 L 235.824219 322.128906 L 233.175781 313.066406 L 230.402344 302.285156 L 228.976562 295.988281 L 225.488281 276.144531 L 224.742188 269.832031 L 229.402344 283.070312 Z M 254.066406 371.609375 "/>
</g>
<path style=" stroke:none;fill-rule:nonzero;fill:rgb(39.99939%,39.99939%,39.99939%);fill-opacity:0.3;" d="M 142.835938 10.207031 L 181.589844 15.035156 L 180.609375 40.898438 L 158.332031 57.328125 L 142.46875 68.550781 L 131.070312 76.613281 L 119.5 60.757812 L 120.816406 43.089844 L 122.421875 21.574219 L 123.34375 9.191406 L 126.699219 -12.796875 L 126.816406 -13.558594 L 127.398438 -15.300781 L 129.394531 -19.582031 L 158.6875 -17.664062 L 185.632812 -17.699219 L 184.992188 -11.292969 L 182.613281 12.433594 L 142.792969 7.285156 L 142.8125 8.746094 Z M 142.835938 10.207031 "/>
<g clip-path="url(#clip16)" clip-rule="nonzero">
<path style=" stroke:none;fill-rule:nonzero;fill:rgb(39.99939%,39.99939%,39.99939%);fill-opacity:0.3;" d="M 351.183594 12.078125 L 371.953125 -4.179688 L 361.242188 6.207031 L 351.929688 12.308594 Z M 351.183594 12.078125 "/>
</g>
<path style=" stroke:none;fill-rule:nonzero;fill:rgb(39.99939%,39.99939%,39.99939%);fill-opacity:0.3;" d="M 347.199219 15.410156 L 349.273438 13.769531 L 349.652344 13.800781 Z M 347.199219 15.410156 "/>
<path style=" stroke:none;fill-rule:nonzero;fill:rgb(39.99939%,39.99939%,39.99939%);fill-opacity:0.3;" d="M 274.53125 -4.84375 L 298.835938 -13.734375 L 314.992188 -23.449219 L 322.035156 -29.601562 L 328.007812 -34.988281 L 337.304688 -44.546875 L 351.714844 -31.304688 L 343.734375 -23.96875 L 326.394531 -8.363281 L 311.0625 2.242188 L 293.675781 9.0625 L 281.023438 12.058594 Z M 274.53125 -4.84375 "/>
<path style=" stroke:none;fill-rule:nonzero;fill:rgb(39.99939%,39.99939%,39.99939%);fill-opacity:0.3;" d="M 190.441406 -17.320312 L 205.105469 -18.984375 L 217.726562 -22.882812 L 226.914062 -27.996094 L 232.140625 -32.195312 L 229.402344 -24.324219 L 240.503906 -15.300781 L 242.019531 -15.839844 L 242.046875 -14.738281 L 213.5 2.40625 L 186.738281 20.558594 Z M 190.441406 -17.320312 "/>
<path style=" stroke:none;fill-rule:nonzero;fill:rgb(39.99939%,39.99939%,39.99939%);fill-opacity:0.3;" d="M 186.882812 26.527344 L 216.007812 7.132812 L 243.890625 -10.136719 L 265.621094 -18.542969 L 268.902344 -9.109375 L 248.53125 -0.945312 L 204.570312 25.089844 L 185.902344 37.859375 Z M 186.882812 26.527344 "/>
<path style=" stroke:none;fill-rule:nonzero;fill:rgb(39.99939%,39.99939%,39.99939%);fill-opacity:0.3;" d="M 187.351562 43.539062 L 207.816406 29.804688 L 249.234375 4.535156 L 270.523438 -3.335938 L 276.859375 12.0625 L 252.964844 23.519531 L 218.078125 46.410156 L 201.054688 57.996094 Z M 187.351562 43.539062 "/>
<path style=" stroke:none;fill-rule:nonzero;fill:rgb(39.99939%,39.99939%,39.99939%);fill-opacity:0.3;" d="M 246.617188 42.855469 L 279.59375 29.160156 L 285.632812 50.660156 L 256.308594 70.503906 Z M 246.617188 42.855469 "/>
<path style=" stroke:none;fill-rule:nonzero;fill:rgb(39.99939%,39.99939%,39.99939%);fill-opacity:0.3;" d="M 129.371094 86.050781 L 150.449219 71.894531 L 171.667969 57.703125 L 185.417969 46.632812 L 198.160156 59.941406 L 158.640625 85.792969 L 134.402344 102.621094 L 133.367188 103.527344 Z M 129.371094 86.050781 "/>
<path style=" stroke:none;fill-rule:nonzero;fill:rgb(39.99939%,39.99939%,39.99939%);fill-opacity:0.3;" d="M 174.609375 84.332031 L 193.527344 69.910156 L 200.792969 64.367188 L 203.261719 62.890625 L 206.230469 61.464844 L 212.828125 84.949219 L 181.886719 110.234375 Z M 174.609375 84.332031 "/>
<path style=" stroke:none;fill-rule:nonzero;fill:rgb(39.99939%,39.99939%,39.99939%);fill-opacity:0.3;" d="M 211.410156 58.972656 L 241.710938 44.898438 L 251.449219 74.152344 L 240.875 75.546875 L 235.59375 76.113281 L 231.269531 76.855469 L 228.921875 77.703125 L 225.398438 78.398438 L 217.800781 81.714844 Z M 211.410156 58.972656 "/>
<path style=" stroke:none;fill-rule:nonzero;fill:rgb(39.99939%,39.99939%,39.99939%);fill-opacity:0.3;" d="M 220.890625 86.109375 L 222.058594 85.359375 L 225.054688 83.792969 L 228.617188 82.324219 L 233.261719 80.910156 L 240.894531 79.472656 L 242.800781 79.292969 Z M 220.890625 86.109375 "/>
<path style=" stroke:none;fill-rule:nonzero;fill:rgb(39.99939%,39.99939%,39.99939%);fill-opacity:0.3;" d="M 170.792969 89.847656 L 171.738281 92.972656 L 168.339844 94.332031 L 164.175781 97.800781 L 156.542969 102.660156 L 150.296875 106.824219 L 148.46875 107.128906 Z M 170.792969 89.847656 "/>
<path style=" stroke:none;fill-rule:nonzero;fill:rgb(39.99939%,39.99939%,39.99939%);fill-opacity:0.3;" d="M 119.746094 69.167969 L 120.050781 68.953125 L 127.136719 79.101562 L 127.09375 79.125 L 119.765625 69.351562 Z M 119.746094 69.167969 "/>
<g clip-path="url(#clip17)" clip-rule="nonzero">
<path style=" stroke:none;fill-rule:nonzero;fill:rgb(39.99939%,39.99939%,39.99939%);fill-opacity:0.3;" d="M 284.800781 26.949219 L 291.742188 22.566406 L 315.863281 11.605469 L 331.078125 0.476562 L 370.238281 -36.867188 L 385.269531 -20.097656 L 369.925781 -8.113281 L 366.085938 -4.867188 L 365.964844 -7.71875 L 369.660156 -12.386719 L 371.140625 -14.257812 L 370.695312 -14.527344 L 370.269531 -14.78125 L 369.082031 -13.652344 L 367.179688 -14.851562 L 366.890625 -14.453125 L 366.550781 -13.988281 L 368.253906 -12.566406 L 363.589844 -6.964844 L 364.027344 -3.402344 L 340.121094 15.160156 L 336.742188 10.210938 L 343.308594 5.25 L 342.125 3.890625 L 340.945312 2.535156 L 332.527344 8.457031 L 337.929688 16.28125 L 324.578125 27.058594 L 308.804688 37.820312 L 290.078125 48.054688 Z M 284.800781 26.949219 "/>
</g>
<path style=" stroke:none;fill-rule:nonzero;fill:rgb(39.99939%,39.99939%,39.99939%);fill-opacity:0.3;" d="M 27.824219 46.796875 L 37.757812 32.871094 L 45.054688 28.003906 L 39.855469 59.328125 Z M 27.824219 46.796875 "/>
<path style=" stroke:none;fill-rule:nonzero;fill:rgb(39.99939%,39.99939%,39.99939%);fill-opacity:0.3;" d="M 33.179688 87.851562 L 41.246094 76.34375 L 70.765625 90.675781 L 38.046875 101.636719 Z M 33.179688 87.851562 "/>
<path style=" stroke:none;fill-rule:nonzero;fill:rgb(39.99939%,39.99939%,39.99939%);fill-opacity:0.3;" d="M -14.113281 72.007812 L -4.125 54.597656 L 8.382812 68.511719 L 4.695312 75.605469 L -13.90625 95.261719 L -15.3125 95.164062 L -16.550781 94.28125 L -16.554688 92.941406 L -13.839844 86.324219 L -13.488281 85.378906 L -13.191406 84.417969 L -12.945312 83.445312 L -12.753906 82.457031 L -12.617188 81.464844 L -12.535156 80.464844 L -12.507812 79.460938 L -12.523438 78.820312 L -12.585938 77.820312 L -12.707031 76.824219 L -12.878906 75.835938 L -13.109375 74.855469 L -13.390625 73.890625 L -13.726562 72.941406 Z M -14.113281 72.007812 "/>
<path style=" stroke:none;fill-rule:nonzero;fill:rgb(39.99939%,39.99939%,39.99939%);fill-opacity:0.3;" d="M -15.570312 100.027344 L 6.925781 77.703125 L 20.90625 95.378906 L -5.503906 119.785156 Z M -15.570312 100.027344 "/>
<path style=" stroke:none;fill-rule:nonzero;fill:rgb(39.99939%,39.99939%,39.99939%);fill-opacity:0.3;" d="M 9.464844 74.855469 L 26.152344 50.03125 L 39.457031 63.808594 L 38.375 74.050781 L 31.382812 85.484375 L 23.726562 92.347656 Z M 9.464844 74.855469 "/>
<path style=" stroke:none;fill-rule:nonzero;fill:rgb(39.99939%,39.99939%,39.99939%);fill-opacity:0.3;" d="M 12.90625 108.242188 L 32.367188 90.539062 L 36.425781 102.605469 Z M 12.90625 108.242188 "/>
<path style=" stroke:none;fill-rule:nonzero;fill:rgb(39.99939%,39.99939%,39.99939%);fill-opacity:0.3;" d="M 50.527344 -12.039062 L 57.324219 -5.835938 L 45.976562 24.519531 L 35.789062 31.082031 L 9.75 66.003906 L -2.648438 51.816406 L 16.589844 25.625 L 24.9375 16.238281 L 34.578125 5.449219 L 40.601562 -1.269531 Z M 50.527344 -12.039062 "/>
<path style=" stroke:none;fill-rule:nonzero;fill:rgb(39.99939%,39.99939%,39.99939%);fill-opacity:0.3;" d="M 38.664062 142.582031 L 99.816406 104.199219 L 110.175781 119.722656 L 99.644531 126.945312 L 88.210938 135.113281 L 47.109375 159.332031 Z M 38.664062 142.582031 "/>
<path style=" stroke:none;fill-rule:nonzero;fill:rgb(39.99939%,39.99939%,39.99939%);fill-opacity:0.3;" d="M -14.15625 128.042969 L 1.601562 119.300781 L 9.308594 148.367188 L -42.378906 167.296875 L -46.226562 155.113281 L -39.207031 149.277344 L -37.285156 142.78125 L -10.984375 140.925781 Z M -14.15625 128.042969 "/>
<path style=" stroke:none;fill-rule:nonzero;fill:rgb(39.99939%,39.99939%,39.99939%);fill-opacity:0.3;" d="M 35.214844 146.121094 L 42.355469 161.039062 L -12.539062 183.496094 L -50.800781 197.394531 L -72.367188 205.335938 L -68.21875 185.320312 L -52.449219 180.027344 L -27.636719 170.984375 L -14.449219 166.929688 L -2.945312 161.863281 L 9.679688 156.527344 Z M 35.214844 146.121094 "/>
<path style=" stroke:none;fill-rule:nonzero;fill:rgb(39.99939%,39.99939%,39.99939%);fill-opacity:0.3;" d="M 18.433594 14.050781 L 16.039062 16.554688 L 16.113281 15.042969 Z M 18.433594 14.050781 "/>
<path style=" stroke:none;fill-rule:nonzero;fill:rgb(39.99939%,39.99939%,39.99939%);fill-opacity:0.3;" d="M 9.546875 22.722656 L 11.113281 22.710938 L 8.160156 27.390625 L -5.917969 47.101562 L -18.046875 47.085938 L 3.191406 30.496094 Z M 9.546875 22.722656 "/>
<path style=" stroke:none;fill-rule:nonzero;fill:rgb(39.99939%,39.99939%,39.99939%);fill-opacity:0.3;" d="M 24.332031 132.332031 L 24.484375 142.761719 L 13.242188 147.703125 L 5.265625 117.257812 L 15.730469 110.457031 L 23.078125 126.621094 Z M 24.332031 132.332031 "/>
<path style=" stroke:none;fill-rule:nonzero;fill:rgb(39.99939%,39.99939%,39.99939%);fill-opacity:0.3;" d="M 25.582031 125.101562 L 21.160156 113.046875 L 30.484375 109.4375 L 39.5625 135.421875 L 34.667969 138.496094 L 26.777344 141.9375 L 26.761719 131.398438 Z M 25.582031 125.101562 "/>
<path style=" stroke:none;fill-rule:nonzero;fill:rgb(39.99939%,39.99939%,39.99939%);fill-opacity:0.3;" d="M 64.917969 117.492188 L 53.875 100.894531 L 73.914062 93.011719 L 83.550781 106.058594 Z M 64.917969 117.492188 "/>
<path style=" stroke:none;fill-rule:nonzero;fill:rgb(39.99939%,39.99939%,39.99939%);fill-opacity:0.3;" d="M 44.988281 132.007812 L 39.964844 120.113281 L 34.625 107.234375 L 51.8125 101.75 L 62.382812 119.160156 L 54.246094 126.191406 Z M 44.988281 132.007812 "/>
<path style=" stroke:none;fill-rule:nonzero;fill:rgb(39.99939%,39.99939%,39.99939%);fill-opacity:0.3;" d="M 79.914062 -13.964844 L 79.949219 -13.449219 L 79.957031 -13.074219 L 79.941406 -12.554688 L 79.902344 -12.039062 L 79.828125 -11.523438 L 79.730469 -11.011719 L 79.605469 -10.503906 L 79.347656 -9.722656 L 68.8125 20.496094 L 53.378906 12.695312 L 66.21875 -22.066406 L 67.949219 -22.878906 L 68 -22.886719 L 68.542969 -22.949219 L 69.089844 -22.980469 L 69.636719 -22.988281 L 70.183594 -22.96875 L 70.730469 -22.917969 L 71.269531 -22.84375 L 71.808594 -22.742188 L 72.339844 -22.617188 L 72.863281 -22.460938 L 73.375 -22.28125 L 73.878906 -22.074219 L 74.371094 -21.84375 L 74.847656 -21.589844 L 75.3125 -21.3125 L 75.757812 -21.015625 L 76.1875 -20.691406 L 76.597656 -20.347656 L 77.363281 -19.605469 L 77.714844 -19.203125 L 78.039062 -18.789062 L 78.34375 -18.355469 L 78.625 -17.910156 L 78.878906 -17.449219 L 79.109375 -16.976562 L 79.3125 -16.496094 L 79.488281 -16.003906 L 79.636719 -15.5 L 79.757812 -14.996094 L 79.847656 -14.484375 Z M 79.914062 -13.964844 "/>
<path style=" stroke:none;fill-rule:nonzero;fill:rgb(39.99939%,39.99939%,39.99939%);fill-opacity:0.3;" d="M 48.875 25.558594 L 52.976562 16.148438 L 70.476562 25.304688 L 88.125 34.582031 L 117.1875 34.910156 L 116.410156 54.644531 L 95.394531 53.332031 L 83.261719 48.75 L 54.953125 34.03125 L 50.957031 31.894531 L 50.414062 31.292969 L 49.9375 30.644531 L 49.53125 29.949219 L 49.210938 29.21875 L 48.96875 28.460938 L 48.878906 28.074219 L 48.808594 27.683594 L 48.765625 27.289062 L 48.738281 26.894531 L 48.738281 26.5 L 48.757812 26.101562 Z M 48.875 25.558594 "/>
<path style=" stroke:none;fill-rule:nonzero;fill:rgb(39.99939%,39.99939%,39.99939%);fill-opacity:0.3;" d="M 115.601562 60.890625 L 119.179688 66.914062 L 96.25 81.746094 L 78.457031 87.644531 L 96.199219 57.082031 L 115.996094 56.875 Z M 115.601562 60.890625 "/>
<path style=" stroke:none;fill-rule:nonzero;fill:rgb(39.99939%,39.99939%,39.99939%);fill-opacity:0.3;" d="M 74.171875 11.882812 L 117.566406 14.988281 L 117.054688 32.578125 L 89.777344 32.34375 L 70.5 22.28125 Z M 74.171875 11.882812 "/>
<path style=" stroke:none;fill-rule:nonzero;fill:rgb(39.99939%,39.99939%,39.99939%);fill-opacity:0.3;" d="M 48.230469 34.875 L 80.027344 51.511719 L 93.773438 56.476562 L 83.894531 73.347656 L 61.019531 62.261719 L 44.882812 54.445312 Z M 48.230469 34.875 "/>
<path style=" stroke:none;fill-rule:nonzero;fill:rgb(39.99939%,39.99939%,39.99939%);fill-opacity:0.3;" d="M 44.253906 56.78125 L 63.21875 66.996094 L 81.292969 76.730469 L 75.046875 87.589844 L 73.199219 88.460938 L 40.84375 73.261719 Z M 44.253906 56.78125 "/>
<path style=" stroke:none;fill-rule:nonzero;fill:rgb(39.99939%,39.99939%,39.99939%);fill-opacity:0.3;" d="M 83.019531 -12.457031 L 121.019531 -11.800781 L 117.96875 9.960938 L 75.46875 8.207031 Z M 83.019531 -12.457031 "/>
<path style=" stroke:none;fill-rule:nonzero;fill:rgb(39.99939%,39.99939%,39.99939%);fill-opacity:0.3;" d="M 104.765625 101.570312 L 127.375 87.394531 L 129.371094 86.050781 L 133.367188 103.527344 L 128.835938 107.488281 L 123.929688 110.292969 L 115.546875 116.042969 Z M 104.765625 101.570312 "/>
<path style=" stroke:none;fill-rule:nonzero;fill:rgb(39.99939%,39.99939%,39.99939%);fill-opacity:0.3;" d="M 81.621094 90.667969 L 96.898438 85.160156 L 119.746094 69.167969 L 119.765625 69.351562 L 127.09375 79.125 L 89.199219 103.136719 Z M 81.621094 90.667969 "/>
<path style=" stroke:none;fill-rule:nonzero;fill:rgb(39.99939%,39.99939%,39.99939%);fill-opacity:0.3;" d="M 62.707031 160.25 L 64.367188 166.625 L 64.253906 166.496094 L 51.765625 165.109375 L 51.429688 164.574219 Z M 62.707031 160.25 "/>
<path style=" stroke:none;fill-rule:nonzero;fill:rgb(39.99939%,39.99939%,39.99939%);fill-opacity:0.3;" d="M 110.175781 119.722656 L 111.347656 121.476562 L 88.210938 135.113281 L 99.644531 126.945312 Z M 110.175781 119.722656 "/>
<path style=" stroke:none;fill-rule:nonzero;fill:rgb(39.99939%,39.99939%,39.99939%);fill-opacity:0.3;" d="M 70.277344 155.214844 L 98.246094 144.398438 L 105.714844 153.753906 L 112.164062 185.9375 L 103.191406 193.691406 L 97.023438 198.496094 L 93.148438 201.109375 L 89.292969 203.257812 L 82.375 205.902344 Z M 70.277344 155.214844 "/>
<path style=" stroke:none;fill-rule:nonzero;fill:rgb(39.99939%,39.99939%,39.99939%);fill-opacity:0.3;" d="M 82.957031 210.128906 L 86.933594 209.097656 L 91.277344 207.613281 L 96.398438 205.183594 L 101.570312 201.875 L 105.003906 199.300781 L 115.226562 193.261719 L 127.644531 239.714844 L 96.484375 259.882812 L 83.742188 214.511719 L 82.988281 210.214844 Z M 82.957031 210.128906 "/>
<path style=" stroke:none;fill-rule:nonzero;fill:rgb(39.99939%,39.99939%,39.99939%);fill-opacity:0.3;" d="M 125.890625 253.15625 L 139.234375 291.039062 L 139.253906 291.082031 L 108.789062 308.570312 L 107.957031 305.683594 L 98.507812 270.433594 Z M 125.890625 253.15625 "/>
<path style=" stroke:none;fill-rule:nonzero;fill:rgb(39.99939%,39.99939%,39.99939%);fill-opacity:0.3;" d="M 128.835938 107.488281 L 116.925781 117.898438 L 115.546875 116.042969 L 123.929688 110.292969 Z M 128.835938 107.488281 "/>
<path style=" stroke:none;fill-rule:nonzero;fill:rgb(39.99939%,39.99939%,39.99939%);fill-opacity:0.3;" d="M 180.910156 120.375 L 200.277344 189.304688 L 168.316406 211.070312 L 154.351562 161.363281 L 159.320312 155.65625 L 162.921875 150.914062 L 167.34375 143.835938 L 174.003906 131.640625 Z M 180.910156 120.375 "/>
<path style=" stroke:none;fill-rule:nonzero;fill:rgb(39.99939%,39.99939%,39.99939%);fill-opacity:0.3;" d="M 242.378906 169.378906 L 273.191406 147.800781 L 279.160156 166.949219 L 293.195312 215.59375 L 259.539062 224.421875 Z M 242.378906 169.378906 "/>
<path style=" stroke:none;fill-rule:nonzero;fill:rgb(39.99939%,39.99939%,39.99939%);fill-opacity:0.3;" d="M 236.980469 173.160156 L 249.960938 214.789062 L 219.601562 237.191406 L 206.328125 194.625 Z M 236.980469 173.160156 "/>
<path style=" stroke:none;fill-rule:nonzero;fill:rgb(39.99939%,39.99939%,39.99939%);fill-opacity:0.3;" d="M 181.992188 264.941406 L 168.359375 221.214844 L 200.605469 198.632812 L 213.933594 241.375 L 201.574219 250.496094 L 193.320312 254.621094 L 187.074219 258.09375 L 182.117188 264.851562 Z M 181.992188 264.941406 "/>
<path style=" stroke:none;fill-rule:nonzero;fill:rgb(39.99939%,39.99939%,39.99939%);fill-opacity:0.3;" d="M 183.660156 116.800781 L 188.757812 111.46875 L 195.996094 105.40625 L 214.472656 90.796875 L 235.421875 165.363281 L 203.488281 187.113281 Z M 183.660156 116.800781 "/>
<path style=" stroke:none;fill-rule:nonzero;fill:rgb(39.99939%,39.99939%,39.99939%);fill-opacity:0.3;" d="M 219.320312 87.117188 L 220.890625 86.109375 L 242.800781 79.292969 L 252.585938 78.371094 L 270.304688 141.269531 L 240.359375 162.003906 Z M 219.320312 87.117188 "/>
<path style=" stroke:none;fill-rule:nonzero;fill:rgb(39.99939%,39.99939%,39.99939%);fill-opacity:0.3;" d="M 118.597656 188.539062 L 149.71875 164.921875 L 163.589844 214.289062 L 131.234375 236.324219 Z M 118.597656 188.539062 "/>
<path style=" stroke:none;fill-rule:nonzero;fill:rgb(39.99939%,39.99939%,39.99939%);fill-opacity:0.3;" d="M 171.738281 92.972656 L 178.230469 114.46875 L 174.015625 120.484375 L 170.605469 126.054688 L 167.765625 131.230469 L 163.980469 138.21875 L 161.601562 142.363281 L 158.679688 146.957031 L 155.882812 150.789062 L 152.484375 154.714844 L 140.785156 113.074219 L 148.46875 107.128906 L 150.296875 106.824219 L 156.542969 102.660156 L 164.175781 97.800781 L 168.339844 94.332031 Z M 171.738281 92.972656 "/>
<path style=" stroke:none;fill-rule:nonzero;fill:rgb(39.99939%,39.99939%,39.99939%);fill-opacity:0.3;" d="M 111.636719 137.945312 L 136.457031 117.730469 L 148.046875 158.984375 L 117.253906 180.800781 Z M 111.636719 137.945312 "/>
<path style=" stroke:none;fill-rule:nonzero;fill:rgb(39.99939%,39.99939%,39.99939%);fill-opacity:0.3;" d="M 133.421875 245.585938 L 162.949219 224.914062 L 176.640625 268.835938 L 155.164062 284.652344 L 153.074219 285.847656 L 145.839844 287.65625 Z M 133.421875 245.585938 "/>
<path style=" stroke:none;fill-rule:nonzero;fill:rgb(39.99939%,39.99939%,39.99939%);fill-opacity:0.3;" d="M 258.050781 232.789062 L 291.230469 222.71875 L 308.570312 280.832031 L 266.644531 264.324219 Z M 258.050781 232.789062 "/>
<g clip-path="url(#clip18)" clip-rule="nonzero">
<path style=" stroke:none;fill-rule:nonzero;fill:rgb(39.99939%,39.99939%,39.99939%);fill-opacity:0.3;" d="M 322.414062 211.199219 L 361.1875 196.476562 L 374.128906 229.992188 Z M 322.414062 211.199219 "/>
</g>
<path style=" stroke:none;fill-rule:nonzero;fill:rgb(39.99939%,39.99939%,39.99939%);fill-opacity:0.3;" d="M 312.570312 217.527344 L 356.433594 231.660156 L 330.246094 289.289062 L 316.65625 283.902344 L 296.683594 220.816406 Z M 312.570312 217.527344 "/>
<g clip-path="url(#clip19)" clip-rule="nonzero">
<path style=" stroke:none;fill-rule:nonzero;fill:rgb(39.99939%,39.99939%,39.99939%);fill-opacity:0.3;" d="M 358.667969 232.542969 L 365.222656 235.132812 L 359.6875 248.464844 L 360.867188 248.9375 L 362.695312 249.671875 L 369.078125 236.660156 L 376.5 239.59375 L 350.304688 297.242188 L 332.480469 290.175781 Z M 358.667969 232.542969 "/>
</g>
<g clip-path="url(#clip20)" clip-rule="nonzero">
<path style=" stroke:none;fill-rule:nonzero;fill:rgb(39.99939%,39.99939%,39.99939%);fill-opacity:0.3;" d="M 379.660156 240.839844 L 404.46875 250.648438 L 378.261719 308.324219 L 353.460938 298.492188 Z M 379.660156 240.839844 "/>
</g>
<path style=" stroke:none;fill-rule:nonzero;fill:rgb(39.99939%,39.99939%,39.99939%);fill-opacity:0.3;" d="M 279.160156 166.949219 L 294.242188 215.320312 L 293.195312 215.59375 Z M 279.160156 166.949219 "/>
<path style=" stroke:none;fill-rule:nonzero;fill:rgb(39.99939%,39.99939%,39.99939%);fill-opacity:0.3;" d="M 277.714844 145.613281 L 309.851562 134.367188 L 330.597656 200.910156 L 298.878906 213.480469 Z M 277.714844 145.613281 "/>
<g clip-path="url(#clip21)" clip-rule="nonzero">
<path style=" stroke:none;fill-rule:nonzero;fill:rgb(39.99939%,39.99939%,39.99939%);fill-opacity:0.3;" d="M 371.117188 314.042969 L 406.339844 327.609375 L 390.757812 368.058594 L 394.414062 369.464844 L 398.617188 358.441406 L 407.433594 361.910156 L 409.609375 357.285156 L 407.523438 356.480469 L 406.558594 358.917969 L 399.433594 356.039062 L 409.492188 329.921875 L 438.390625 341.328125 L 409.761719 401.832031 L 291.789062 457.878906 L 284.914062 444.75 L 279.363281 434.339844 L 334.414062 378.703125 L 337.964844 378.132812 L 341.234375 371.8125 L 344.585938 368.421875 L 351.535156 351.898438 Z M 371.117188 314.042969 "/>
</g>
<g clip-path="url(#clip22)" clip-rule="nonzero">
<path style=" stroke:none;fill-rule:nonzero;fill:rgb(39.99939%,39.99939%,39.99939%);fill-opacity:0.3;" d="M 323.425781 294.941406 L 350.476562 305.941406 L 330.425781 335.402344 L 319.453125 350.546875 L 311.308594 359.636719 L 305.289062 365.695312 L 297.132812 367.386719 L 293.121094 359.171875 Z M 323.425781 294.941406 "/>
</g>
<g clip-path="url(#clip23)" clip-rule="nonzero">
<path style=" stroke:none;fill-rule:nonzero;fill:rgb(39.99939%,39.99939%,39.99939%);fill-opacity:0.3;" d="M 310.722656 366.070312 L 320.875 353.90625 L 329.726562 342.128906 L 338.222656 330.011719 L 353.484375 307.09375 L 367.867188 312.859375 L 343.625 360.636719 L 336.015625 375.574219 L 316.957031 378.445312 Z M 310.722656 366.070312 "/>
</g>
<g clip-path="url(#clip24)" clip-rule="nonzero">
<path style=" stroke:none;fill-rule:nonzero;fill:rgb(39.99939%,39.99939%,39.99939%);fill-opacity:0.3;" d="M 341.234375 371.8125 L 351.535156 351.898438 L 344.585938 368.421875 Z M 341.234375 371.8125 "/>
</g>
<g clip-path="url(#clip25)" clip-rule="nonzero">
<path style=" stroke:none;fill-rule:nonzero;fill:rgb(39.99939%,39.99939%,39.99939%);fill-opacity:0.3;" d="M 224.484375 267.636719 L 248.972656 261.144531 L 247.941406 256.578125 L 258.699219 253.941406 L 289.742188 373.074219 L 257.242188 379.546875 L 254.066406 371.609375 L 229.402344 283.070312 L 224.742188 269.832031 Z M 224.484375 267.636719 "/>
</g>
<path style=" stroke:none;fill-rule:nonzero;fill:rgb(39.99939%,39.99939%,39.99939%);fill-opacity:0.3;" d="M 269.488281 270.941406 L 309.941406 288.710938 L 309.210938 310.726562 L 290.140625 352.847656 Z M 269.488281 270.941406 "/>
<path style="fill-rule:nonzero;fill:rgb(39.99939%,39.99939%,39.99939%);fill-opacity:1;stroke-width:0.03;stroke-linecap:square;stroke-linejoin:miter;stroke:rgb(39.99939%,39.99939%,39.99939%);stroke-opacity:1;stroke-miterlimit:3.239307;" d="M 136.707031 173.25 L 138.367188 179.625 L 138.253906 179.496094 L 125.765625 178.109375 L 125.429688 177.574219 Z M 136.707031 173.25 " transform="matrix(1,0,0,1,-74,-13)"/>
<path style="fill-rule:nonzero;fill:rgb(39.99939%,39.99939%,39.99939%);fill-opacity:1;stroke-width:0.03;stroke-linecap:square;stroke-linejoin:miter;stroke:rgb(39.99939%,39.99939%,39.99939%);stroke-opacity:1;stroke-miterlimit:3.239307;" d="M 184.175781 132.722656 L 185.347656 134.476562 L 162.210938 148.113281 L 173.644531 139.945312 Z M 184.175781 132.722656 " transform="matrix(1,0,0,1,-74,-13)"/>
<path style="fill-rule:nonzero;fill:rgb(39.99939%,39.99939%,39.99939%);fill-opacity:1;stroke-width:0.03;stroke-linecap:square;stroke-linejoin:miter;stroke:rgb(39.99939%,39.99939%,39.99939%);stroke-opacity:1;stroke-miterlimit:3.239307;" d="M 144.277344 168.214844 L 172.246094 157.398438 L 179.714844 166.753906 L 186.164062 198.9375 L 177.191406 206.691406 L 171.023438 211.496094 L 167.148438 214.109375 L 163.292969 216.257812 L 156.375 218.902344 Z M 144.277344 168.214844 " transform="matrix(1,0,0,1,-74,-13)"/>
<path style="fill-rule:nonzero;fill:rgb(39.99939%,39.99939%,39.99939%);fill-opacity:1;stroke-width:0.03;stroke-linecap:square;stroke-linejoin:miter;stroke:rgb(39.99939%,39.99939%,39.99939%);stroke-opacity:1;stroke-miterlimit:3.239307;" d="M 156.957031 223.128906 L 160.933594 222.097656 L 165.277344 220.613281 L 170.398438 218.183594 L 175.570312 214.875 L 179.003906 212.300781 L 189.226562 206.261719 L 201.644531 252.714844 L 170.484375 272.882812 L 157.742188 227.511719 L 156.988281 223.214844 Z M 156.957031 223.128906 " transform="matrix(1,0,0,1,-74,-13)"/>
<path style="fill-rule:nonzero;fill:rgb(39.99939%,39.99939%,39.99939%);fill-opacity:1;stroke-width:0.03;stroke-linecap:square;stroke-linejoin:miter;stroke:rgb(39.99939%,39.99939%,39.99939%);stroke-opacity:1;stroke-miterlimit:3.239307;" d="M 199.890625 266.15625 L 213.234375 304.039062 L 213.253906 304.082031 L 182.789062 321.570312 L 181.957031 318.683594 L 172.507812 283.433594 Z M 199.890625 266.15625 " transform="matrix(1,0,0,1,-74,-13)"/>
<path style="fill-rule:nonzero;fill:rgb(39.99939%,39.99939%,39.99939%);fill-opacity:1;stroke-width:0.03;stroke-linecap:square;stroke-linejoin:miter;stroke:rgb(39.99939%,39.99939%,39.99939%);stroke-opacity:1;stroke-miterlimit:3.239307;" d="M 202.835938 120.488281 L 190.925781 130.898438 L 189.546875 129.042969 L 197.929688 123.292969 Z M 202.835938 120.488281 " transform="matrix(1,0,0,1,-74,-13)"/>
<path style="fill-rule:nonzero;fill:rgb(39.99939%,39.99939%,39.99939%);fill-opacity:1;stroke-width:0.03;stroke-linecap:square;stroke-linejoin:miter;stroke:rgb(39.99939%,39.99939%,39.99939%);stroke-opacity:1;stroke-miterlimit:3.239307;" d="M 254.910156 133.375 L 274.277344 202.304688 L 242.316406 224.070312 L 228.351562 174.363281 L 233.320312 168.65625 L 236.921875 163.914062 L 241.34375 156.835938 L 248.003906 144.640625 Z M 254.910156 133.375 " transform="matrix(1,0,0,1,-74,-13)"/>
<path style="fill-rule:nonzero;fill:rgb(39.99939%,39.99939%,39.99939%);fill-opacity:1;stroke-width:0.03;stroke-linecap:square;stroke-linejoin:miter;stroke:rgb(39.99939%,39.99939%,39.99939%);stroke-opacity:1;stroke-miterlimit:3.239307;" d="M 316.378906 182.378906 L 347.191406 160.800781 L 353.160156 179.949219 L 367.195312 228.59375 L 333.539062 237.421875 Z M 316.378906 182.378906 " transform="matrix(1,0,0,1,-74,-13)"/>
<path style="fill-rule:nonzero;fill:rgb(39.99939%,39.99939%,39.99939%);fill-opacity:1;stroke-width:0.03;stroke-linecap:square;stroke-linejoin:miter;stroke:rgb(39.99939%,39.99939%,39.99939%);stroke-opacity:1;stroke-miterlimit:3.239307;" d="M 310.980469 186.160156 L 323.960938 227.789062 L 293.601562 250.191406 L 280.328125 207.625 Z M 310.980469 186.160156 " transform="matrix(1,0,0,1,-74,-13)"/>
<path style="fill-rule:nonzero;fill:rgb(39.99939%,39.99939%,39.99939%);fill-opacity:1;stroke-width:0.03;stroke-linecap:square;stroke-linejoin:miter;stroke:rgb(39.99939%,39.99939%,39.99939%);stroke-opacity:1;stroke-miterlimit:3.239307;" d="M 255.992188 277.941406 L 242.359375 234.214844 L 274.605469 211.632812 L 287.933594 254.375 L 275.574219 263.496094 L 267.320312 267.621094 L 261.074219 271.09375 L 256.117188 277.851562 Z M 255.992188 277.941406 " transform="matrix(1,0,0,1,-74,-13)"/>
<path style="fill-rule:nonzero;fill:rgb(39.99939%,39.99939%,39.99939%);fill-opacity:1;stroke-width:0.03;stroke-linecap:square;stroke-linejoin:miter;stroke:rgb(39.99939%,39.99939%,39.99939%);stroke-opacity:1;stroke-miterlimit:3.239307;" d="M 257.660156 129.800781 L 262.757812 124.46875 L 269.996094 118.40625 L 288.472656 103.796875 L 309.421875 178.363281 L 277.488281 200.113281 Z M 257.660156 129.800781 " transform="matrix(1,0,0,1,-74,-13)"/>
<path style="fill-rule:nonzero;fill:rgb(39.99939%,39.99939%,39.99939%);fill-opacity:1;stroke-width:0.03;stroke-linecap:square;stroke-linejoin:miter;stroke:rgb(39.99939%,39.99939%,39.99939%);stroke-opacity:1;stroke-miterlimit:3.239307;" d="M 293.320312 100.117188 L 294.890625 99.109375 L 316.800781 92.292969 L 326.585938 91.371094 L 344.304688 154.269531 L 314.359375 175.003906 Z M 293.320312 100.117188 " transform="matrix(1,0,0,1,-74,-13)"/>
<path style="fill-rule:nonzero;fill:rgb(39.99939%,39.99939%,39.99939%);fill-opacity:1;stroke-width:0.03;stroke-linecap:square;stroke-linejoin:miter;stroke:rgb(39.99939%,39.99939%,39.99939%);stroke-opacity:1;stroke-miterlimit:3.239307;" d="M 192.597656 201.539062 L 223.71875 177.921875 L 237.589844 227.289062 L 205.234375 249.324219 Z M 192.597656 201.539062 " transform="matrix(1,0,0,1,-74,-13)"/>
<path style="fill-rule:nonzero;fill:rgb(39.99939%,39.99939%,39.99939%);fill-opacity:1;stroke-width:0.03;stroke-linecap:square;stroke-linejoin:miter;stroke:rgb(39.99939%,39.99939%,39.99939%);stroke-opacity:1;stroke-miterlimit:3.239307;" d="M 245.738281 105.972656 L 252.230469 127.46875 L 248.015625 133.484375 L 244.605469 139.054688 L 241.765625 144.230469 L 237.980469 151.21875 L 235.601562 155.363281 L 232.679688 159.957031 L 229.882812 163.789062 L 226.484375 167.714844 L 214.785156 126.074219 L 222.46875 120.128906 L 224.296875 119.824219 L 230.542969 115.660156 L 238.175781 110.800781 L 242.339844 107.332031 Z M 245.738281 105.972656 " transform="matrix(1,0,0,1,-74,-13)"/>
<path style="fill-rule:nonzero;fill:rgb(39.99939%,39.99939%,39.99939%);fill-opacity:1;stroke-width:0.03;stroke-linecap:square;stroke-linejoin:miter;stroke:rgb(39.99939%,39.99939%,39.99939%);stroke-opacity:1;stroke-miterlimit:3.239307;" d="M 185.636719 150.945312 L 210.457031 130.730469 L 222.046875 171.984375 L 191.253906 193.800781 Z M 185.636719 150.945312 " transform="matrix(1,0,0,1,-74,-13)"/>
<path style="fill-rule:nonzero;fill:rgb(39.99939%,39.99939%,39.99939%);fill-opacity:1;stroke-width:0.03;stroke-linecap:square;stroke-linejoin:miter;stroke:rgb(39.99939%,39.99939%,39.99939%);stroke-opacity:1;stroke-miterlimit:3.239307;" d="M 207.421875 258.585938 L 236.949219 237.914062 L 250.640625 281.835938 L 229.164062 297.652344 L 227.074219 298.847656 L 219.839844 300.65625 Z M 207.421875 258.585938 " transform="matrix(1,0,0,1,-74,-13)"/>
<path style="fill-rule:nonzero;fill:rgb(39.99939%,39.99939%,39.99939%);fill-opacity:1;stroke-width:0.03;stroke-linecap:square;stroke-linejoin:miter;stroke:rgb(39.99939%,39.99939%,39.99939%);stroke-opacity:1;stroke-miterlimit:3.239307;" d="M 332.050781 245.789062 L 365.230469 235.71875 L 382.570312 293.832031 L 340.644531 277.324219 Z M 332.050781 245.789062 " transform="matrix(1,0,0,1,-74,-13)"/>
<path style=" stroke:none;fill-rule:evenodd;fill:rgb(85.096741%,85.096741%,81.959534%);fill-opacity:0.7;" d="M 89.753906 329 C 89.753906 321.640625 86.832031 314.578125 81.625 309.375 C 76.421875 304.167969 69.359375 301.246094 62 301.246094 C 54.640625 301.246094 47.578125 304.167969 42.375 309.375 C 37.167969 314.578125 34.246094 321.640625 34.246094 329 C 34.246094 336.359375 37.167969 343.421875 42.375 348.625 C 47.578125 353.832031 54.640625 356.753906 62 356.753906 C 69.359375 356.753906 76.421875 353.832031 81.625 348.625 C 86.832031 343.421875 89.753906 336.359375 89.753906 329 Z M 89.753906 329 "/>
<path style=" stroke:none;fill-rule:evenodd;fill:rgb(85.096741%,85.096741%,81.959534%);fill-opacity:0.7;" d="M 121.753906 306 C 121.753906 298.640625 118.832031 291.578125 113.625 286.375 C 108.421875 281.167969 101.359375 278.246094 94 278.246094 C 86.640625 278.246094 79.578125 281.167969 74.375 286.375 C 69.167969 291.578125 66.246094 298.640625 66.246094 306 C 66.246094 313.359375 69.167969 320.421875 74.375 325.625 C 79.578125 330.832031 86.640625 333.753906 94 333.753906 C 101.359375 333.753906 108.421875 330.832031 113.625 325.625 C 118.832031 320.421875 121.753906 313.359375 121.753906 306 Z M 121.753906 306 "/>
<g clip-path="url(#clip26)" clip-rule="nonzero">
<path style=" stroke:none;fill-rule:evenodd;fill:rgb(85.096741%,85.096741%,81.959534%);fill-opacity:0.7;" d="M 396.753906 267 C 396.753906 259.640625 393.832031 252.578125 388.625 247.375 C 383.421875 242.167969 376.359375 239.246094 369 239.246094 C 361.640625 239.246094 354.578125 242.167969 349.375 247.375 C 344.167969 252.578125 341.246094 259.640625 341.246094 267 C 341.246094 274.359375 344.167969 281.421875 349.375 286.625 C 354.578125 291.832031 361.640625 294.753906 369 294.753906 C 376.359375 294.753906 383.421875 291.832031 388.625 286.625 C 393.832031 281.421875 396.753906 274.359375 396.753906 267 Z M 396.753906 267 "/>
</g>
<path style=" stroke:none;fill-rule:evenodd;fill:rgb(85.096741%,85.096741%,81.959534%);fill-opacity:0.7;" d="M 107.753906 239 C 107.753906 231.640625 104.832031 224.578125 99.625 219.375 C 94.421875 214.167969 87.359375 211.246094 80 211.246094 C 72.640625 211.246094 65.578125 214.167969 60.375 219.375 C 55.167969 224.578125 52.246094 231.640625 52.246094 239 C 52.246094 246.359375 55.167969 253.421875 60.375 258.625 C 65.578125 263.832031 72.640625 266.753906 80 266.753906 C 87.359375 266.753906 94.421875 263.832031 99.625 258.625 C 104.832031 253.421875 107.753906 246.359375 107.753906 239 Z M 107.753906 239 "/>
</g>
</svg>
