<?xml version="1.0" encoding="UTF-8"?>
<svg xmlns="http://www.w3.org/2000/svg" xmlns:xlink="http://www.w3.org/1999/xlink" width="361pt" height="361pt" viewBox="0 0 361 361" version="1.1">
<g id="surface2275">
<path style="fill-rule:nonzero;fill:rgb(0%,0%,0%);fill-opacity:1;stroke-width:0.03;stroke-linecap:square;stroke-linejoin:miter;stroke:rgb(0%,0%,0%);stroke-opacity:1;stroke-miterlimit:10;" d="M 0 178 L 360 178 L 360 -182 L 0 -182 Z M 0 178 " transform="matrix(1,0,0,1,0,182)"/>
<path style=" stroke:none;fill-rule:nonzero;fill:rgb(39.99939%,39.99939%,39.99939%);fill-opacity:0.3;" d="M 232.148438 44.582031 L 250.414062 35.515625 L 257.792969 47.839844 L 238.246094 56.695312 Z M 232.148438 44.582031 "/>
<path style=" stroke:none;fill-rule:nonzero;fill:rgb(39.99939%,39.99939%,39.99939%);fill-opacity:0.3;" d="M 220.867188 9.277344 L 225.1875 13.402344 L 214.976562 21.117188 L 210.367188 15.953125 Z M 220.867188 9.277344 "/>
<path style=" stroke:none;fill-rule:nonzero;fill:rgb(39.99939%,39.99939%,39.99939%);fill-opacity:0.3;" d="M 231.441406 18.277344 L 235.460938 22.804688 L 224.34375 29.945312 L 220.835938 26.015625 Z M 231.441406 18.277344 "/>
<path style=" stroke:none;fill-rule:nonzero;fill:rgb(39.99939%,39.99939%,39.99939%);fill-opacity:0.3;" d="M 226.199219 13.183594 L 221.835938 8.925781 L 232.542969 1.914062 L 232.667969 2.101562 L 234.546875 4.214844 L 234.746094 4.242188 L 235.082031 4.613281 Z M 226.199219 13.183594 "/>
<path style=" stroke:none;fill-rule:nonzero;fill:rgb(39.99939%,39.99939%,39.99939%);fill-opacity:0.3;" d="M 237.339844 59.402344 L 242.214844 66.71875 L 227.21875 80.605469 L 216.777344 70.785156 L 223.648438 66.1875 L 229.140625 63.347656 Z M 237.339844 59.402344 "/>
<path style=" stroke:none;fill-rule:nonzero;fill:rgb(39.99939%,39.99939%,39.99939%);fill-opacity:0.3;" d="M 236.960938 57.925781 L 223.867188 64.347656 L 215.03125 69.316406 L 204.230469 58.648438 L 217.898438 51.789062 L 230.949219 45.472656 Z M 236.960938 57.925781 "/>
<path style=" stroke:none;fill-rule:nonzero;fill:rgb(39.99939%,39.99939%,39.99939%);fill-opacity:0.3;" d="M 197.667969 50.789062 L 202.726562 58.285156 L 202.191406 58.558594 L 200.988281 57.011719 L 196.695312 51.429688 Z M 197.667969 50.789062 "/>
<path style=" stroke:none;fill-rule:nonzero;fill:rgb(39.99939%,39.99939%,39.99939%);fill-opacity:0.3;" d="M 171.636719 57.164062 L 171.769531 57.089844 L 176.988281 63.09375 L 176.585938 63.347656 Z M 171.636719 57.164062 "/>
<path style=" stroke:none;fill-rule:nonzero;fill:rgb(39.99939%,39.99939%,39.99939%);fill-opacity:0.3;" d="M 180.519531 26.945312 L 180.542969 26.964844 L 186.113281 34.65625 L 183.390625 31.433594 Z M 180.519531 26.945312 "/>
<path style=" stroke:none;fill-rule:nonzero;fill:rgb(39.99939%,39.99939%,39.99939%);fill-opacity:0.3;" d="M 204.617188 37.847656 L 208.230469 42.023438 L 197.761719 49.363281 L 194.75 45.640625 L 200.109375 42.023438 L 199.65625 41.554688 Z M 204.617188 37.847656 "/>
<path style=" stroke:none;fill-rule:nonzero;fill:rgb(39.99939%,39.99939%,39.99939%);fill-opacity:0.3;" d="M 192.808594 45.386719 L 196.644531 50.222656 L 177.925781 62.417969 L 173.292969 56.976562 L 179.832031 52.488281 L 181.113281 53.75 Z M 192.808594 45.386719 "/>
<path style=" stroke:none;fill-rule:nonzero;fill:rgb(39.99939%,39.99939%,39.99939%);fill-opacity:0.3;" d="M 224.136719 32.933594 L 227.476562 38.671875 L 230.632812 44.625 L 203.640625 57.886719 L 198.386719 50.265625 Z M 224.136719 32.933594 "/>
<path style=" stroke:none;fill-rule:nonzero;fill:rgb(39.99939%,39.99939%,39.99939%);fill-opacity:0.3;" d="M 214.335938 21.304688 L 201.5 33.535156 L 194.90625 25.789062 L 200.257812 21.765625 L 209.671875 16.117188 Z M 214.335938 21.304688 "/>
<path style=" stroke:none;fill-rule:nonzero;fill:rgb(39.99939%,39.99939%,39.99939%);fill-opacity:0.3;" d="M 203.46875 9.007812 L 208.6875 15.464844 L 193.980469 24.21875 L 185.207031 30.996094 L 179.867188 23.53125 L 189.867188 16.828125 Z M 203.46875 9.007812 "/>
<path style=" stroke:none;fill-rule:nonzero;fill:rgb(39.99939%,39.99939%,39.99939%);fill-opacity:0.3;" d="M 200.726562 34.21875 L 192.027344 40.5625 L 185.875 32.429688 L 193.695312 26.550781 Z M 200.726562 34.21875 "/>
<path style=" stroke:none;fill-rule:nonzero;fill:rgb(39.99939%,39.99939%,39.99939%);fill-opacity:0.3;" d="M 192.402344 0.777344 L 198.328125 10.5625 L 188.503906 15.8125 L 178.390625 21.507812 L 173.027344 11.648438 Z M 192.402344 0.777344 "/>
<path style=" stroke:none;fill-rule:nonzero;fill:rgb(39.99939%,39.99939%,39.99939%);fill-opacity:0.3;" d="M 219.347656 26.867188 L 222.949219 31.273438 L 209.207031 41.0625 L 206.222656 37.636719 Z M 219.347656 26.867188 "/>
<path style=" stroke:none;fill-rule:nonzero;fill:rgb(39.99939%,39.99939%,39.99939%);fill-opacity:0.3;" d="M 204.632812 8.566406 L 213.554688 2.800781 L 220.304688 8.652344 L 209.757812 14.957031 Z M 204.632812 8.566406 "/>
<path style=" stroke:none;fill-rule:nonzero;fill:rgb(39.99939%,39.99939%,39.99939%);fill-opacity:0.3;" d="M 227.875 81.5625 L 245.835938 65.328125 L 263.742188 56.113281 L 251.5 34.878906 L 257.992188 31.585938 L 304.703125 90.375 L 276.507812 109.203125 L 266.257812 117.863281 L 249.96875 103.34375 L 241.515625 94.648438 Z M 227.875 81.5625 "/>
<path style=" stroke:none;fill-rule:nonzero;fill:rgb(39.99939%,39.99939%,39.99939%);fill-opacity:0.3;" d="M 238.851562 58.226562 L 256.339844 49.859375 L 260.277344 56.839844 L 243.285156 65.316406 Z M 238.851562 58.226562 "/>
<path style=" stroke:none;fill-rule:nonzero;fill:rgb(39.99939%,39.99939%,39.99939%);fill-opacity:0.3;" d="M 249.792969 15.679688 L 260.503906 29.179688 L 231.742188 43.871094 L 229.554688 40.289062 L 228.945312 38.027344 L 225.371094 32.160156 Z M 249.792969 15.679688 "/>
<path style=" stroke:none;fill-rule:nonzero;fill:rgb(39.99939%,39.99939%,39.99939%);fill-opacity:0.3;" d="M 251.601562 -1.058594 L 256.089844 2.933594 L 254.171875 4.824219 L 253.84375 6.703125 L 254.15625 8.328125 L 254.96875 9.875 L 236.703125 22.5 L 232.113281 17.699219 L 242.0625 8.148438 Z M 251.601562 -1.058594 "/>
<path style=" stroke:none;fill-rule:nonzero;fill:rgb(39.99939%,39.99939%,39.99939%);fill-opacity:0.3;" d="M 214.433594 2.648438 L 226.660156 -3.929688 L 231.453125 1.324219 L 221.027344 8.214844 Z M 214.433594 2.648438 "/>
<path style=" stroke:none;fill-rule:nonzero;fill:rgb(39.99939%,39.99939%,39.99939%);fill-opacity:0.3;" d="M 186.320312 -10.070312 L 192.167969 -0.386719 L 172.140625 10.164062 L 166.257812 0.988281 L 169.453125 -1.007812 Z M 186.320312 -10.070312 "/>
<path style=" stroke:none;fill-rule:nonzero;fill:rgb(39.99939%,39.99939%,39.99939%);fill-opacity:0.3;" d="M 218.527344 -13.644531 L 225.855469 -4.90625 L 213.164062 1.855469 L 199.988281 9.761719 L 194.066406 -0.113281 L 207.214844 -6.917969 Z M 218.527344 -13.644531 "/>
<path style=" stroke:none;fill-rule:nonzero;fill:rgb(39.99939%,39.99939%,39.99939%);fill-opacity:0.3;" d="M 332.566406 -66.832031 L 333.753906 -65.335938 L 334.765625 -63.402344 L 336.179688 -60.289062 L 337.132812 -57.289062 L 337.417969 -55.335938 L 336.84375 -53.421875 L 335.25 -51.140625 L 332.988281 -48.539062 L 330.917969 -46.742188 L 329.703125 -44.035156 L 328.234375 -41.664062 L 325.558594 -38.109375 L 323.554688 -35.332031 L 321.117188 -32.875 L 320.484375 -31.789062 L 320.136719 -30.503906 L 320.074219 -29.277344 L 319.710938 -28.527344 L 319.203125 -27.464844 L 319.050781 -26.457031 L 319.238281 -24.605469 L 319.375 -22.386719 L 319.5 -20.03125 L 319.199219 -18.484375 L 319.328125 -17.226562 L 319.296875 -15.714844 L 319.199219 -14.089844 L 319.546875 -12.351562 L 320.378906 -11.066406 L 321.523438 -9.761719 L 322.914062 -7.691406 L 324.582031 -5.429688 L 325.96875 -3.667969 L 286.300781 16.28125 L 263.144531 27.851562 L 251.941406 14.09375 L 256.480469 10.523438 L 255.769531 8.691406 L 255.816406 6.550781 L 255.933594 4.519531 L 257.910156 2.660156 L 250.089844 -4.050781 L 254.601562 -8.953125 L 265.492188 -19.285156 L 271.527344 -25.851562 L 274.933594 -31.054688 L 279.5625 -38.765625 L 285.597656 -49.363281 L 289.578125 -56.292969 L 296.078125 -67.796875 L 306.957031 -86.246094 L 319.539062 -80.441406 L 326.5625 -76.792969 L 324.265625 -70.945312 Z M 332.566406 -66.832031 "/>
<path style=" stroke:none;fill-rule:nonzero;fill:rgb(39.99939%,39.99939%,39.99939%);fill-opacity:0.3;" d="M 202.753906 59.28125 L 203.066406 59.125 L 213.933594 69.800781 L 213.515625 70.007812 L 205.917969 62.410156 L 204.273438 61.238281 Z M 202.753906 59.28125 "/>
<path style=" stroke:none;fill-rule:nonzero;fill:rgb(39.99939%,39.99939%,39.99939%);fill-opacity:0.3;" d="M 214.324219 70.816406 L 214.605469 70.667969 L 227.101562 83.269531 L 226.097656 82.355469 L 215.070312 71.5625 Z M 214.324219 70.816406 "/>
<path style=" stroke:none;fill-rule:nonzero;fill:rgb(39.99939%,39.99939%,39.99939%);fill-opacity:0.3;" d="M 50.757812 118.941406 L 58.675781 107.683594 L 62.246094 109.707031 L 54.535156 120.691406 Z M 50.757812 118.941406 "/>
<path style=" stroke:none;fill-rule:nonzero;fill:rgb(39.99939%,39.99939%,39.99939%);fill-opacity:0.3;" d="M 50.429688 120.070312 L 54.386719 121.996094 L 62.988281 110 L 72.195312 115.617188 L 40.855469 161.019531 L 31.007812 154.65625 Z M 50.429688 120.070312 "/>
<path style=" stroke:none;fill-rule:nonzero;fill:rgb(39.99939%,39.99939%,39.99939%);fill-opacity:0.3;" d="M 74.101562 116.730469 L 84.828125 122.964844 L 58.046875 158.339844 L 51.746094 167.621094 L 42.082031 161.664062 Z M 74.101562 116.730469 "/>
<path style=" stroke:none;fill-rule:nonzero;fill:rgb(39.99939%,39.99939%,39.99939%);fill-opacity:0.3;" d="M 15.339844 86.316406 L 19.515625 86.601562 L 25.96875 91.574219 L -4.390625 133.398438 L -14.210938 127.3125 Z M 15.339844 86.316406 "/>
<path style=" stroke:none;fill-rule:nonzero;fill:rgb(39.99939%,39.99939%,39.99939%);fill-opacity:0.3;" d="M -0.625 86.296875 L 13.980469 85.195312 L -15.691406 126.386719 L -25.4375 120.371094 Z M -0.625 86.296875 "/>
<path style=" stroke:none;fill-rule:nonzero;fill:rgb(39.99939%,39.99939%,39.99939%);fill-opacity:0.3;" d="M 29.121094 112.324219 L 45.460938 116.761719 L 35.890625 122.730469 L 18.277344 146.960938 L 8.25 140.726562 Z M 29.121094 112.324219 "/>
<path style=" stroke:none;fill-rule:nonzero;fill:rgb(39.99939%,39.99939%,39.99939%);fill-opacity:0.3;" d="M 27.140625 92.796875 L 36.992188 99.488281 L 7.226562 140.191406 L -2.832031 134.132812 Z M 27.140625 92.796875 "/>
<path style=" stroke:none;fill-rule:nonzero;fill:rgb(39.99939%,39.99939%,39.99939%);fill-opacity:0.3;" d="M 46.890625 117.246094 L 49.90625 118.582031 L 39.941406 134.925781 L 29.996094 153.960938 L 19.324219 147.597656 L 36.621094 124.355469 Z M 46.890625 117.246094 "/>
<path style=" stroke:none;fill-rule:nonzero;fill:rgb(39.99939%,39.99939%,39.99939%);fill-opacity:0.3;" d="M 105.304688 97.570312 L 87.167969 121.847656 L 71.226562 112.839844 L 86.707031 92.003906 L 92.652344 91.839844 L 96.316406 92.910156 L 82.476562 110.695312 L 83.042969 111.109375 L 83.585938 111.507812 L 97.804688 93.238281 Z M 105.304688 97.570312 "/>
<path style=" stroke:none;fill-rule:nonzero;fill:rgb(39.99939%,39.99939%,39.99939%);fill-opacity:0.3;" d="M 39.007812 98.980469 L 32.019531 94.367188 L 41.574219 84.542969 L 48.957031 82.59375 L 56.605469 81.210938 L 75.960938 80.621094 L 86.863281 79.789062 L 88.472656 79.925781 L 90.027344 80.398438 L 100.796875 86.230469 L 107.792969 87.023438 L 113.167969 87.492188 L 106.648438 96.398438 L 97.4375 91.535156 L 92.875 90.730469 L 87.320312 90.640625 L 85.78125 91.53125 L 78.207031 87.046875 L 77.683594 87.695312 L 85.144531 92.269531 L 70.347656 112.464844 L 59.542969 106.464844 L 68.253906 92.425781 L 67.226562 91.949219 L 66.203125 91.472656 L 50.648438 117.082031 L 30.292969 110.835938 Z M 39.007812 98.980469 "/>
<path style=" stroke:none;fill-rule:nonzero;fill:rgb(39.99939%,39.99939%,39.99939%);fill-opacity:0.3;" d="M 164.824219 1.878906 L 178.039062 24.320312 L 180.519531 26.945312 L 183.390625 31.433594 L 186.113281 34.65625 L 190.90625 41.28125 L 172.34375 53.8125 L 163.871094 44.859375 L 156.832031 38.039062 L 141.300781 21.429688 L 138.308594 15.96875 L 137.039062 14.757812 Z M 164.824219 1.878906 "/>
<path style=" stroke:none;fill-rule:nonzero;fill:rgb(39.99939%,39.99939%,39.99939%);fill-opacity:0.3;" d="M 19.617188 84.625 L 36.578125 83.738281 L 41.054688 83.113281 L 38.285156 85.867188 L 30.9375 93.605469 Z M 19.617188 84.625 "/>
<path style=" stroke:none;fill-rule:nonzero;fill:rgb(39.99939%,39.99939%,39.99939%);fill-opacity:0.3;" d="M 136.925781 14.8125 L 138.207031 16.039062 L 141.21875 21.515625 L 156.792969 38.148438 L 163.824219 44.902344 L 172.265625 53.851562 L 168.777344 55.328125 L 165.164062 57.117188 L 163.707031 57.523438 L 161.363281 57.441406 L 160.042969 58.066406 L 158.933594 59.292969 L 158.21875 60.796875 L 153.925781 62.425781 L 146.171875 66.664062 L 132.792969 74.539062 L 120 82.859375 L 117.019531 85.332031 L 101.820312 85.054688 L 96.21875 81.773438 L 129.214844 18.386719 Z M 136.925781 14.8125 "/>
<path style=" stroke:none;fill-rule:nonzero;fill:rgb(39.99939%,39.99939%,39.99939%);fill-opacity:0.3;" d="M 123.164062 88.949219 L 131.445312 94.484375 L 127.191406 97.558594 L 124.226562 100.6875 L 121.605469 103.824219 L 119.402344 106.679688 L 117.203125 109.839844 L 114.332031 115.140625 L 104.867188 109.425781 Z M 123.164062 88.949219 "/>
<path style=" stroke:none;fill-rule:nonzero;fill:rgb(39.99939%,39.99939%,39.99939%);fill-opacity:0.3;" d="M 202.191406 58.558594 L 174.136719 72.855469 L 132.933594 93.375 L 122.238281 86.074219 L 153.828125 67.472656 L 162.394531 62.414062 L 171.636719 57.164062 L 176.585938 63.347656 L 176.988281 63.09375 L 177.699219 63.910156 L 196.695312 51.429688 L 200.988281 57.011719 Z M 202.191406 58.558594 "/>
<path style=" stroke:none;fill-rule:nonzero;fill:rgb(39.99939%,39.99939%,39.99939%);fill-opacity:0.3;" d="M 113.902344 115.726562 L 113.117188 117.527344 L 111.753906 120.972656 L 110.777344 124.914062 L 110.332031 127.484375 L 109.953125 132.160156 L 110.75 143.550781 L 112.746094 154.519531 L 113.972656 166.957031 L 113.996094 171.917969 L 113.320312 177.53125 L 112.382812 182.390625 L 111.699219 184.863281 L 105.210938 183.988281 L 99.519531 182.902344 L 94.640625 181.003906 L 72.097656 169 L 67.640625 176.050781 L 57.636719 170.617188 L 62.894531 161.597656 L 71.105469 148.273438 L 79.058594 137.453125 L 93.042969 119.804688 L 101.910156 108.726562 Z M 113.902344 115.726562 "/>
<path style=" stroke:none;fill-rule:nonzero;fill:rgb(39.99939%,39.99939%,39.99939%);fill-opacity:0.3;" d="M 114.324219 177.671875 L 115.011719 171.972656 L 114.988281 166.910156 L 113.753906 154.390625 L 111.757812 143.4375 L 110.972656 132.164062 L 111.339844 127.601562 L 111.773438 125.101562 L 112.734375 121.222656 L 113.964844 117.78125 L 116.054688 113.5625 L 118.019531 110.039062 L 120.09375 107.003906 L 122.460938 104.265625 L 125.101562 101.207031 L 128.332031 98.050781 L 133.414062 94.890625 L 174.386719 73.488281 L 202.753906 59.28125 L 204.273438 61.238281 L 205.917969 62.410156 L 213.515625 70.007812 L 209.773438 71.863281 L 204.3125 75.199219 L 207.816406 79.3125 L 212.648438 85.363281 L 219.9375 96.855469 L 226.503906 104.226562 L 226.980469 103.871094 L 227.386719 103.574219 L 220.820312 95.933594 L 213.894531 84.679688 L 206.132812 75.550781 L 210.414062 72.902344 L 214.324219 70.816406 L 215.070312 71.5625 L 226.097656 82.355469 L 227.101562 83.269531 L 232.460938 88.671875 L 255.027344 110.390625 L 265.003906 118.765625 L 259.660156 124.105469 L 246.429688 140.65625 L 220.746094 170.871094 L 192.824219 205.773438 L 164.003906 240.378906 L 150.320312 255.453125 L 137.78125 272.484375 L 108.25 308.570312 L 51.429688 268.125 L 56.171875 264.074219 L 60.96875 258.957031 L 66.839844 251.523438 L 77.894531 237.085938 L 94.285156 215.910156 L 100.761719 207.597656 L 106.402344 199.425781 L 107.359375 197.972656 L 108.929688 194.617188 L 110.546875 191.359375 L 112.3125 185.792969 L 113.59375 181.53125 Z M 114.324219 177.671875 "/>
<path style="fill-rule:nonzero;fill:rgb(39.99939%,39.99939%,39.99939%);fill-opacity:1;stroke-width:0.03;stroke-linecap:square;stroke-linejoin:miter;stroke:rgb(39.99939%,39.99939%,39.99939%);stroke-opacity:1;stroke-miterlimit:3.239307;" d="M 197.164062 101.949219 L 205.445312 107.484375 L 201.191406 110.558594 L 198.226562 113.6875 L 195.605469 116.824219 L 193.402344 119.679688 L 191.203125 122.839844 L 188.332031 128.140625 L 178.867188 122.425781 Z M 197.164062 101.949219 " transform="matrix(1,0,0,1,-74,-13)"/>
<path style="fill-rule:nonzero;fill:rgb(39.99939%,39.99939%,39.99939%);fill-opacity:1;stroke-width:0.03;stroke-linecap:square;stroke-linejoin:miter;stroke:rgb(39.99939%,39.99939%,39.99939%);stroke-opacity:1;stroke-miterlimit:3.239307;" d="M 276.191406 71.558594 L 248.136719 85.855469 L 206.933594 106.375 L 196.238281 99.074219 L 227.828125 80.472656 L 236.394531 75.414062 L 245.636719 70.164062 L 250.585938 76.347656 L 250.988281 76.09375 L 251.699219 76.910156 L 270.695312 64.429688 L 274.988281 70.011719 Z M 276.191406 71.558594 " transform="matrix(1,0,0,1,-74,-13)"/>
<path style="fill-rule:nonzero;fill:rgb(39.99939%,39.99939%,39.99939%);fill-opacity:1;stroke-width:0.03;stroke-linecap:square;stroke-linejoin:miter;stroke:rgb(39.99939%,39.99939%,39.99939%);stroke-opacity:1;stroke-miterlimit:3.239307;" d="M 187.902344 128.726562 L 187.117188 130.527344 L 185.753906 133.972656 L 184.777344 137.914062 L 184.332031 140.484375 L 183.953125 145.160156 L 184.75 156.550781 L 186.746094 167.519531 L 187.972656 179.957031 L 187.996094 184.917969 L 187.320312 190.53125 L 186.382812 195.390625 L 185.699219 197.863281 L 179.210938 196.988281 L 173.519531 195.902344 L 168.640625 194.003906 L 146.097656 182 L 141.640625 189.050781 L 131.636719 183.617188 L 136.894531 174.597656 L 145.105469 161.273438 L 153.058594 150.453125 L 167.042969 132.804688 L 175.910156 121.726562 Z M 187.902344 128.726562 " transform="matrix(1,0,0,1,-74,-13)"/>
<path style="fill-rule:nonzero;fill:rgb(39.99939%,39.99939%,39.99939%);fill-opacity:1;stroke-width:0.03;stroke-linecap:square;stroke-linejoin:miter;stroke:rgb(39.99939%,39.99939%,39.99939%);stroke-opacity:1;stroke-miterlimit:3.239307;" d="M 188.324219 190.671875 L 189.011719 184.972656 L 188.988281 179.910156 L 187.753906 167.390625 L 185.757812 156.4375 L 184.972656 145.164062 L 185.339844 140.601562 L 185.773438 138.101562 L 186.734375 134.222656 L 187.964844 130.78125 L 190.054688 126.5625 L 192.019531 123.039062 L 194.09375 120.003906 L 196.460938 117.265625 L 199.101562 114.207031 L 202.332031 111.050781 L 207.414062 107.890625 L 248.386719 86.488281 L 276.753906 72.28125 L 278.273438 74.238281 L 279.917969 75.410156 L 287.515625 83.007812 L 283.773438 84.863281 L 278.3125 88.199219 L 281.816406 92.3125 L 286.648438 98.363281 L 293.9375 109.855469 L 300.503906 117.226562 L 300.980469 116.871094 L 301.386719 116.574219 L 294.820312 108.933594 L 287.894531 97.679688 L 280.132812 88.550781 L 284.414062 85.902344 L 288.324219 83.816406 L 289.070312 84.5625 L 300.097656 95.355469 L 301.101562 96.269531 L 306.460938 101.671875 L 329.027344 123.390625 L 339.003906 131.765625 L 333.660156 137.105469 L 320.429688 153.65625 L 294.746094 183.871094 L 266.824219 218.773438 L 238.003906 253.378906 L 224.320312 268.453125 L 211.78125 285.484375 L 182.25 321.570312 L 125.429688 281.125 L 130.171875 277.074219 L 134.96875 271.957031 L 140.839844 264.523438 L 151.894531 250.085938 L 168.285156 228.910156 L 174.761719 220.597656 L 180.402344 212.425781 L 181.359375 210.972656 L 182.929688 207.617188 L 184.546875 204.359375 L 186.3125 198.792969 L 187.59375 194.53125 Z M 188.324219 190.671875 " transform="matrix(1,0,0,1,-74,-13)"/>
</g>
</svg>
