<?xml version="1.0" encoding="UTF-8"?>
<svg xmlns="http://www.w3.org/2000/svg" xmlns:xlink="http://www.w3.org/1999/xlink" width="361pt" height="361pt" viewBox="0 0 361 361" version="1.1">
<defs>
<clipPath id="clip1">
  <path d="M 359 88 L 360 88 L 360 99 L 359 99 Z M 359 88 "/>
</clipPath>
<clipPath id="clip2">
  <path d="M 338 45 L 360 45 L 360 95 L 338 95 Z M 338 45 "/>
</clipPath>
<clipPath id="clip3">
  <path d="M 358 0 L 360 0 L 360 43 L 358 43 Z M 358 0 "/>
</clipPath>
<clipPath id="clip4">
  <path d="M 348 99 L 360 99 L 360 119 L 348 119 Z M 348 99 "/>
</clipPath>
<clipPath id="clip5">
  <path d="M 359 96 L 360 96 L 360 99 L 359 99 Z M 359 96 "/>
</clipPath>
<clipPath id="clip6">
  <path d="M 239 98 L 360 98 L 360 277 L 239 277 Z M 239 98 "/>
</clipPath>
<clipPath id="clip7">
  <path d="M 42 315 L 89 315 L 89 360 L 42 360 Z M 42 315 "/>
</clipPath>
<clipPath id="clip8">
  <path d="M 0 295 L 76 295 L 76 360 L 0 360 Z M 0 295 "/>
</clipPath>
<clipPath id="clip9">
  <path d="M 0 180 L 57 180 L 57 360 L 0 360 Z M 0 180 "/>
</clipPath>
<clipPath id="clip10">
  <path d="M 41 331 L 182 331 L 182 360 L 41 360 Z M 41 331 "/>
</clipPath>
<clipPath id="clip11">
  <path d="M 179 339 L 262 339 L 262 360 L 179 360 Z M 179 339 "/>
</clipPath>
<clipPath id="clip12">
  <path d="M 258 344 L 275 344 L 275 360 L 258 360 Z M 258 344 "/>
</clipPath>
<clipPath id="clip13">
  <path d="M 271 347 L 315 347 L 315 360 L 271 360 Z M 271 347 "/>
</clipPath>
<clipPath id="clip14">
  <path d="M 332 314 L 360 314 L 360 352 L 332 352 Z M 332 314 "/>
</clipPath>
<clipPath id="clip15">
  <path d="M 335 281 L 360 281 L 360 319 L 335 319 Z M 335 281 "/>
</clipPath>
<clipPath id="clip16">
  <path d="M 316 348 L 331 348 L 331 360 L 316 360 Z M 316 348 "/>
</clipPath>
<clipPath id="clip17">
  <path d="M 332 350 L 360 350 L 360 360 L 332 360 Z M 332 350 "/>
</clipPath>
</defs>
<g id="surface1519">
<path style="fill-rule:nonzero;fill:rgb(0%,0%,0%);fill-opacity:1;stroke-width:0.03;stroke-linecap:square;stroke-linejoin:miter;stroke:rgb(0%,0%,0%);stroke-opacity:1;stroke-miterlimit:10;" d="M 0 178 L 360 178 L 360 -182 L 0 -182 Z M 0 178 " transform="matrix(1,0,0,1,0,182)"/>
<path style=" stroke:none;fill-rule:nonzero;fill:rgb(39.99939%,39.99939%,39.99939%);fill-opacity:0.3;" d="M 339.660156 55.070312 L 342.464844 53.675781 L 347.566406 63.015625 L 344.851562 64.449219 Z M 339.660156 55.070312 "/>
<path style=" stroke:none;fill-rule:nonzero;fill:rgb(39.99939%,39.99939%,39.99939%);fill-opacity:0.3;" d="M 301.425781 41.070312 L 301.425781 41.710938 L 289.71875 39.175781 L 290.089844 38 L 295.222656 39.582031 L 300.351562 40.765625 Z M 301.425781 41.070312 "/>
<path style=" stroke:none;fill-rule:nonzero;fill:rgb(39.99939%,39.99939%,39.99939%);fill-opacity:0.3;" d="M 308.097656 41.9375 L 303.003906 41.8125 L 303.003906 41.523438 L 303.113281 41.554688 Z M 308.097656 41.9375 "/>
<path style=" stroke:none;fill-rule:nonzero;fill:rgb(39.99939%,39.99939%,39.99939%);fill-opacity:0.3;" d="M 331.3125 46.519531 L 331.734375 45.375 L 338.238281 45.429688 L 342.765625 53.171875 L 338.535156 49.898438 L 333.453125 47.484375 Z M 331.3125 46.519531 "/>
<path style=" stroke:none;fill-rule:nonzero;fill:rgb(39.99939%,39.99939%,39.99939%);fill-opacity:0.3;" d="M 355.246094 77.351562 L 351.511719 68.15625 L 356.003906 75.890625 Z M 355.246094 77.351562 "/>
<path style=" stroke:none;fill-rule:nonzero;fill:rgb(39.99939%,39.99939%,39.99939%);fill-opacity:0.3;" d="M 294.925781 44.171875 L 292.820312 50.058594 L 288.113281 48.59375 L 290.164062 42.84375 Z M 294.925781 44.171875 "/>
<path style=" stroke:none;fill-rule:nonzero;fill:rgb(39.99939%,39.99939%,39.99939%);fill-opacity:0.3;" d="M 292.445312 51.394531 L 288.085938 63.417969 L 283.398438 61.78125 L 287.617188 49.902344 Z M 292.445312 51.394531 "/>
<path style=" stroke:none;fill-rule:nonzero;fill:rgb(39.99939%,39.99939%,39.99939%);fill-opacity:0.3;" d="M 292.648438 66.382812 L 298.699219 49.679688 L 305.675781 51.601562 L 299.660156 68.824219 L 299.5625 68.789062 Z M 292.648438 66.382812 "/>
<path style=" stroke:none;fill-rule:nonzero;fill:rgb(39.99939%,39.99939%,39.99939%);fill-opacity:0.3;" d="M 317.011719 71.160156 L 328.140625 75.050781 L 326.902344 78.359375 L 315.539062 74.617188 Z M 317.011719 71.160156 "/>
<path style=" stroke:none;fill-rule:nonzero;fill:rgb(39.99939%,39.99939%,39.99939%);fill-opacity:0.3;" d="M 324.414062 102.988281 L 327.960938 104.441406 L 321.5625 115.402344 L 318.175781 113.863281 Z M 324.414062 102.988281 "/>
<path style=" stroke:none;fill-rule:nonzero;fill:rgb(39.99939%,39.99939%,39.99939%);fill-opacity:0.3;" d="M 302.714844 75.730469 L 315.113281 44.515625 L 331.707031 45.375 L 331.285156 46.539062 L 333.429688 47.507812 L 338.511719 49.921875 L 342.804688 53.238281 L 348.898438 63.65625 L 351.410156 67.980469 L 355.230469 77.382812 L 350.480469 86.550781 L 346.308594 91.410156 L 343.75 90.417969 L 340.867188 95.539062 L 335.386719 97.5625 L 330.007812 96.804688 L 324.074219 97.285156 L 316.050781 94.527344 L 320.890625 81.648438 Z M 302.714844 75.730469 "/>
<path style=" stroke:none;fill-rule:nonzero;fill:rgb(39.99939%,39.99939%,39.99939%);fill-opacity:0.3;" d="M 305.53125 110.851562 L 309.8125 112.675781 L 303.453125 123.070312 L 299.785156 121.359375 L 299.300781 121.105469 Z M 305.53125 110.851562 "/>
<path style=" stroke:none;fill-rule:nonzero;fill:rgb(39.99939%,39.99939%,39.99939%);fill-opacity:0.3;" d="M 311.082031 57.390625 L 315.136719 58.550781 L 311.8125 68.933594 L 307.710938 67.777344 Z M 311.082031 57.390625 "/>
<path style=" stroke:none;fill-rule:nonzero;fill:rgb(39.99939%,39.99939%,39.99939%);fill-opacity:0.3;" d="M 316.9375 58.976562 L 320.96875 60.121094 L 317.484375 70.441406 L 313.453125 69.292969 Z M 316.9375 58.976562 "/>
<path style=" stroke:none;fill-rule:nonzero;fill:rgb(39.99939%,39.99939%,39.99939%);fill-opacity:0.3;" d="M 302.714844 75.730469 L 320.890625 81.648438 L 316.050781 94.527344 L 314.839844 97.746094 L 296.566406 91.640625 Z M 302.714844 75.730469 "/>
<path style=" stroke:none;fill-rule:nonzero;fill:rgb(39.99939%,39.99939%,39.99939%);fill-opacity:0.3;" d="M 296.515625 102.078125 L 300.785156 95.027344 L 304.164062 96.625 L 299.949219 103.675781 Z M 296.515625 102.078125 "/>
<path style=" stroke:none;fill-rule:nonzero;fill:rgb(39.99939%,39.99939%,39.99939%);fill-opacity:0.3;" d="M 303.9375 106.910156 L 307.78125 100.421875 L 311.355469 101.933594 L 307.535156 108.449219 Z M 303.9375 106.910156 "/>
<path style=" stroke:none;fill-rule:nonzero;fill:rgb(39.99939%,39.99939%,39.99939%);fill-opacity:0.3;" d="M 308.773438 109.089844 L 312.480469 102.464844 L 315.859375 103.851562 L 312.046875 110.527344 Z M 308.773438 109.089844 "/>
<path style=" stroke:none;fill-rule:nonzero;fill:rgb(39.99939%,39.99939%,39.99939%);fill-opacity:0.3;" d="M 318.953125 101.230469 L 322.472656 102.71875 L 316.132812 113.472656 L 312.660156 111.753906 Z M 318.953125 101.230469 "/>
<path style=" stroke:none;fill-rule:nonzero;fill:rgb(39.99939%,39.99939%,39.99939%);fill-opacity:0.3;" d="M 300.425781 108.238281 L 304.289062 110.066406 L 297.980469 120.273438 L 296.035156 119.289062 L 294.429688 118.351562 Z M 300.425781 108.238281 "/>
<path style=" stroke:none;fill-rule:nonzero;fill:rgb(39.99939%,39.99939%,39.99939%);fill-opacity:0.3;" d="M 296.074219 105.332031 L 299.363281 106.910156 L 293.679688 116.488281 L 290.503906 114.789062 Z M 296.074219 105.332031 "/>
<path style=" stroke:none;fill-rule:nonzero;fill:rgb(39.99939%,39.99939%,39.99939%);fill-opacity:0.3;" d="M 310.914062 113.589844 L 313.8125 115.027344 L 307.660156 125.429688 L 304.875 123.757812 Z M 310.914062 113.589844 "/>
<path style=" stroke:none;fill-rule:nonzero;fill:rgb(39.99939%,39.99939%,39.99939%);fill-opacity:0.3;" d="M 314.839844 115.875 L 318.402344 117.535156 L 312.601562 128 L 308.890625 126.144531 Z M 314.839844 115.875 "/>
<path style=" stroke:none;fill-rule:nonzero;fill:rgb(39.99939%,39.99939%,39.99939%);fill-opacity:0.3;" d="M 317.03125 45.492188 L 321.304688 46.515625 L 318.171875 56.476562 L 313.839844 55.316406 Z M 317.03125 45.492188 "/>
<path style=" stroke:none;fill-rule:nonzero;fill:rgb(39.99939%,39.99939%,39.99939%);fill-opacity:0.3;" d="M 321.90625 65.332031 L 331.425781 68.558594 L 330.050781 72.207031 L 320.527344 69.003906 Z M 321.90625 65.332031 "/>
<path style=" stroke:none;fill-rule:nonzero;fill:rgb(39.99939%,39.99939%,39.99939%);fill-opacity:0.3;" d="M 321.867188 82.140625 L 325.394531 83.289062 L 321.140625 93.71875 L 317.835938 93.289062 Z M 321.867188 82.140625 "/>
<path style=" stroke:none;fill-rule:nonzero;fill:rgb(39.99939%,39.99939%,39.99939%);fill-opacity:0.3;" d="M 333.351562 69.160156 L 343.84375 72.464844 L 342.652344 76.023438 L 332.046875 72.675781 Z M 333.351562 69.160156 "/>
<path style=" stroke:none;fill-rule:nonzero;fill:rgb(39.99939%,39.99939%,39.99939%);fill-opacity:0.3;" d="M 329.941406 75.734375 L 341.097656 79.015625 L 339.914062 83.199219 L 328.398438 79.882812 Z M 329.941406 75.734375 "/>
<path style=" stroke:none;fill-rule:nonzero;fill:rgb(39.99939%,39.99939%,39.99939%);fill-opacity:0.3;" d="M 345.886719 71.429688 L 349.105469 71.246094 L 349.507812 76.8125 L 346.292969 76.980469 Z M 345.886719 71.429688 "/>
<path style=" stroke:none;fill-rule:nonzero;fill:rgb(39.99939%,39.99939%,39.99939%);fill-opacity:0.3;" d="M 348.992188 78.335938 L 352.089844 78.113281 L 352.4375 82.773438 L 351.578125 84.425781 L 349.574219 84.539062 Z M 348.992188 78.335938 "/>
<path style=" stroke:none;fill-rule:nonzero;fill:rgb(39.99939%,39.99939%,39.99939%);fill-opacity:0.3;" d="M 342.792969 77.746094 L 345.835938 77.578125 L 346.300781 83.5625 L 343.164062 83.847656 Z M 342.792969 77.746094 "/>
<path style=" stroke:none;fill-rule:nonzero;fill:rgb(39.99939%,39.99939%,39.99939%);fill-opacity:0.3;" d="M 339.175781 88.246094 L 337.726562 93.730469 L 337.042969 95.957031 L 333.332031 95.363281 L 335.945312 87.101562 Z M 339.175781 88.246094 "/>
<path style=" stroke:none;fill-rule:nonzero;fill:rgb(39.99939%,39.99939%,39.99939%);fill-opacity:0.3;" d="M 331.039062 85.3125 L 334.550781 86.457031 L 331.589844 95.136719 L 327.683594 94.675781 Z M 331.039062 85.3125 "/>
<path style=" stroke:none;fill-rule:nonzero;fill:rgb(39.99939%,39.99939%,39.99939%);fill-opacity:0.3;" d="M 326.410156 83.746094 L 330.039062 84.945312 L 326.527344 94.542969 L 322.359375 93.917969 Z M 326.410156 83.746094 "/>
<path style=" stroke:none;fill-rule:nonzero;fill:rgb(39.99939%,39.99939%,39.99939%);fill-opacity:0.3;" d="M 322.898438 46.894531 L 327.171875 47.90625 L 324.132812 57.976562 L 319.867188 56.917969 Z M 322.898438 46.894531 "/>
<path style=" stroke:none;fill-rule:nonzero;fill:rgb(39.99939%,39.99939%,39.99939%);fill-opacity:0.3;" d="M 333.535156 50.105469 L 337.796875 51.148438 L 335.367188 61.050781 L 330.921875 60.003906 Z M 333.535156 50.105469 "/>
<path style=" stroke:none;fill-rule:nonzero;fill:rgb(39.99939%,39.99939%,39.99939%);fill-opacity:0.3;" d="M 328.011719 48.148438 L 331.972656 49.183594 L 329.257812 59.199219 L 324.96875 58.1875 Z M 328.011719 48.148438 "/>
<path style=" stroke:none;fill-rule:nonzero;fill:rgb(39.99939%,39.99939%,39.99939%);fill-opacity:0.3;" d="M 289.164062 40.914062 L 297.375 43.390625 L 299.921875 43.945312 L 306.878906 44.214844 L 310.015625 44.304688 L 311.066406 45.855469 L 301.964844 69.660156 L 299.5625 68.789062 L 290.484375 65.628906 L 281.40625 62.472656 L 287.328125 46.683594 Z M 289.164062 40.914062 "/>
<path style=" stroke:none;fill-rule:nonzero;fill:rgb(39.99939%,39.99939%,39.99939%);fill-opacity:0.3;" d="M 287.449219 114.832031 L 289.414062 109.566406 L 296.566406 91.640625 L 314.839844 97.746094 L 331.441406 101.164062 L 322.851562 115.363281 L 314.957031 129.175781 L 308.640625 126.019531 L 304.695312 123.648438 L 298.773438 120.886719 L 294.039062 118.125 Z M 287.449219 114.832031 "/>
<path style=" stroke:none;fill-rule:nonzero;fill:rgb(39.99939%,39.99939%,39.99939%);fill-opacity:0.3;" d="M 316.996094 -1.929688 L 329.589844 -1.671875 L 329.863281 42.078125 L 317.265625 42.105469 Z M 316.996094 -1.929688 "/>
<path style=" stroke:none;fill-rule:nonzero;fill:rgb(39.99939%,39.99939%,39.99939%);fill-opacity:0.3;" d="M 289.175781 -2.597656 L 301.464844 -2.179688 L 301.425781 41.070312 L 300.351562 40.765625 L 295.222656 39.582031 L 290.089844 38 L 289.046875 37.742188 Z M 289.175781 -2.597656 "/>
<path style=" stroke:none;fill-rule:nonzero;fill:rgb(39.99939%,39.99939%,39.99939%);fill-opacity:0.3;" d="M 302.824219 -2.179688 L 315.34375 -1.992188 L 315.632812 42.117188 L 308.097656 41.9375 L 303.113281 41.554688 L 303.003906 41.523438 L 303.027344 15.496094 Z M 302.824219 -2.179688 "/>
<g clip-path="url(#clip1)" clip-rule="nonzero">
<path style=" stroke:none;fill-rule:nonzero;fill:rgb(39.99939%,39.99939%,39.99939%);fill-opacity:0.3;" d="M 362.257812 88.144531 L 372.386719 88.5 L 371.824219 98.734375 L 368.265625 98.46875 L 359.929688 96.195312 L 359.785156 92.394531 Z M 362.257812 88.144531 "/>
</g>
<g clip-path="url(#clip2)" clip-rule="nonzero">
<path style=" stroke:none;fill-rule:nonzero;fill:rgb(39.99939%,39.99939%,39.99939%);fill-opacity:0.3;" d="M 338.238281 45.429688 L 370.96875 45.703125 L 370.617188 60.539062 L 370.148438 80.367188 L 370.039062 85.027344 L 361.597656 85.160156 L 355.484375 94.960938 L 353.613281 94.40625 L 348.921875 92.425781 L 355.699219 83.035156 L 355.691406 78.449219 L 355.246094 77.351562 L 356.003906 75.890625 L 351.511719 68.15625 L 350.730469 66.234375 L 348.308594 61.109375 L 345.429688 56.199219 L 342.933594 53.300781 L 342.765625 53.171875 Z M 338.238281 45.429688 "/>
</g>
<path style=" stroke:none;fill-rule:nonzero;fill:rgb(39.99939%,39.99939%,39.99939%);fill-opacity:0.3;" d="M 331.164062 -1.523438 L 343.855469 -1.175781 L 343.597656 42.019531 L 331.382812 42.078125 Z M 331.164062 -1.523438 "/>
<path style=" stroke:none;fill-rule:nonzero;fill:rgb(39.99939%,39.99939%,39.99939%);fill-opacity:0.3;" d="M 345.351562 -1.085938 L 357.378906 -0.777344 L 357.617188 42.09375 L 344.882812 42.019531 Z M 345.351562 -1.085938 "/>
<g clip-path="url(#clip3)" clip-rule="nonzero">
<path style=" stroke:none;fill-rule:nonzero;fill:rgb(39.99939%,39.99939%,39.99939%);fill-opacity:0.3;" d="M 358.679688 -0.675781 L 371.277344 -0.316406 L 371.460938 42.039062 L 359.222656 42.085938 Z M 358.679688 -0.675781 "/>
</g>
<path style=" stroke:none;fill-rule:nonzero;fill:rgb(39.99939%,39.99939%,39.99939%);fill-opacity:0.3;" d="M 342.804688 53.238281 L 342.910156 53.320312 L 345.398438 56.214844 L 348.285156 61.117188 L 350.703125 66.242188 L 351.410156 67.980469 L 348.898438 63.65625 Z M 342.804688 53.238281 "/>
<path style=" stroke:none;fill-rule:nonzero;fill:rgb(39.99939%,39.99939%,39.99939%);fill-opacity:0.3;" d="M 355.230469 77.382812 L 355.664062 78.453125 L 355.671875 83.019531 L 348.898438 92.417969 L 346.308594 91.410156 L 350.480469 86.550781 Z M 355.230469 77.382812 "/>
<path style=" stroke:none;fill-rule:nonzero;fill:rgb(39.99939%,39.99939%,39.99939%);fill-opacity:0.3;" d="M 352.4375 82.773438 L 352.554688 84.371094 L 351.578125 84.425781 Z M 352.4375 82.773438 "/>
<g clip-path="url(#clip4)" clip-rule="nonzero">
<path style=" stroke:none;fill-rule:nonzero;fill:rgb(39.99939%,39.99939%,39.99939%);fill-opacity:0.3;" d="M 348.015625 111.183594 L 349.53125 104.59375 L 352.246094 102.40625 L 354.652344 102.703125 L 355.171875 99.132812 L 371.753906 100.441406 L 371.472656 105.761719 L 368.039062 105.519531 L 367.980469 105.949219 L 367.898438 106.542969 L 371.332031 106.785156 L 370.695312 118.175781 Z M 348.015625 111.183594 "/>
</g>
<path style=" stroke:none;fill-rule:nonzero;fill:rgb(39.99939%,39.99939%,39.99939%);fill-opacity:0.3;" d="M 343.042969 98.351562 L 346.382812 92.894531 L 351.296875 95.167969 L 351.71875 96.160156 L 348.691406 102.015625 L 344.3125 110.050781 L 338.035156 107.382812 Z M 343.042969 98.351562 "/>
<g clip-path="url(#clip5)" clip-rule="nonzero">
<path style=" stroke:none;fill-rule:nonzero;fill:rgb(39.99939%,39.99939%,39.99939%);fill-opacity:0.3;" d="M 368.265625 98.46875 L 359.992188 97.851562 L 359.929688 96.195312 Z M 368.265625 98.46875 "/>
</g>
<path style=" stroke:none;fill-rule:nonzero;fill:rgb(39.99939%,39.99939%,39.99939%);fill-opacity:0.3;" d="M 355.484375 94.960938 L 355.367188 95.148438 L 353.613281 94.40625 Z M 355.484375 94.960938 "/>
<path style=" stroke:none;fill-rule:nonzero;fill:rgb(39.99939%,39.99939%,39.99939%);fill-opacity:0.3;" d="M 303.453125 123.070312 L 303.351562 123.230469 L 299.785156 121.359375 Z M 303.453125 123.070312 "/>
<path style=" stroke:none;fill-rule:nonzero;fill:rgb(39.99939%,39.99939%,39.99939%);fill-opacity:0.3;" d="M 296.035156 119.289062 L 294.371094 118.449219 L 294.429688 118.351562 Z M 296.035156 119.289062 "/>
<path style=" stroke:none;fill-rule:nonzero;fill:rgb(39.99939%,39.99939%,39.99939%);fill-opacity:0.3;" d="M 307.660156 125.429688 L 307.621094 125.5 L 304.71875 124.023438 L 304.875 123.757812 Z M 307.660156 125.429688 "/>
<path style=" stroke:none;fill-rule:nonzero;fill:rgb(39.99939%,39.99939%,39.99939%);fill-opacity:0.3;" d="M 312.601562 128 L 312.472656 128.230469 L 308.816406 126.273438 L 308.890625 126.144531 Z M 312.601562 128 "/>
<g clip-path="url(#clip6)" clip-rule="nonzero">
<path style=" stroke:none;fill-rule:nonzero;fill:rgb(39.99939%,39.99939%,39.99939%);fill-opacity:0.3;" d="M 344.257812 110.136719 L 346.007812 110.675781 L 348.003906 111.230469 L 370.671875 118.277344 L 371.832031 118.707031 L 361.925781 160.121094 L 450.730469 217.191406 L 464.5 187.359375 L 465.554688 187.867188 L 451.707031 218.1875 L 434.949219 254.75 L 432.898438 254.699219 L 429.640625 254.546875 L 427.050781 255.183594 L 425.296875 255.816406 L 423.125 257.007812 L 421.171875 258.890625 L 419.921875 257.371094 L 419.558594 253.144531 L 415.816406 251.625 L 412.78125 250.953125 L 371.214844 226.136719 L 370.550781 227.308594 L 369.96875 228.335938 L 388.523438 239.816406 L 405.472656 248.929688 L 416.890625 256.527344 L 419.925781 261.261719 L 418.324219 263.121094 L 392.152344 254.164062 L 391.878906 254.84375 L 391.605469 255.527344 L 417.992188 264.882812 L 416.726562 268.027344 L 415.300781 270.734375 L 413.878906 274.289062 L 413.347656 276.824219 L 372.699219 275.515625 L 326.058594 271.519531 L 303.058594 270.1875 L 273.816406 268.191406 L 239.808594 267.53125 L 240.609375 264.804688 L 255.183594 219.605469 L 264.429688 187.476562 L 272.351562 161.882812 L 281.027344 132.074219 L 285.605469 119.78125 L 287.449219 114.832031 L 294.039062 118.125 L 298.773438 120.886719 L 304.695312 123.648438 L 308.640625 126.019531 L 314.957031 129.175781 L 322.851562 115.363281 L 331.441406 101.164062 L 331.757812 101.230469 L 336.316406 100.980469 L 340.351562 100.480469 L 342.820312 98.363281 L 337.957031 107.417969 Z M 344.257812 110.136719 "/>
</g>
<g clip-path="url(#clip7)" clip-rule="nonzero">
<path style=" stroke:none;fill-rule:nonzero;fill:rgb(39.99939%,39.99939%,39.99939%);fill-opacity:0.3;" d="M 69.984375 326.351562 L 75.207031 317.84375 L 75.992188 315.511719 L 76.566406 315.855469 L 76.558594 315.867188 L 79.273438 319.089844 L 79.074219 320.121094 L 77.042969 323.667969 L 82.601562 326.554688 L 82.394531 327.664062 L 82.164062 328.914062 L 83.628906 329.882812 L 87.871094 330.851562 L 88.988281 331.097656 L 42.371094 383.875 L 45.296875 375.476562 L 45.71875 361.496094 L 49.921875 353.941406 L 56.101562 344.777344 L 60.253906 338.726562 L 67.261719 329.257812 Z M 69.984375 326.351562 "/>
</g>
<path style=" stroke:none;fill-rule:nonzero;fill:rgb(39.99939%,39.99939%,39.99939%);fill-opacity:0.3;" d="M 86.289062 327.421875 L 82.601562 326.554688 L 77.046875 323.667969 L 79.140625 320.121094 L 79.320312 319.144531 Z M 86.289062 327.421875 "/>
<path style=" stroke:none;fill-rule:nonzero;fill:rgb(39.99939%,39.99939%,39.99939%);fill-opacity:0.3;" d="M 76.589844 315.808594 L 76 315.472656 L 77.835938 313.597656 Z M 76.589844 315.808594 "/>
<path style=" stroke:none;fill-rule:nonzero;fill:rgb(39.99939%,39.99939%,39.99939%);fill-opacity:0.3;" d="M 86.617188 299.902344 L 85.84375 298.199219 L 82.445312 294.335938 L 80.6875 293.515625 L 78.476562 292.945312 L 76.601562 292.28125 L 74.722656 291.140625 L 72.375 289.273438 L 70.777344 287.316406 L 69.289062 284.488281 L 68.421875 280.554688 L 69.167969 277.4375 L 70.292969 275.390625 L 72.167969 273.339844 L 75.003906 271.101562 L 76.617188 269.566406 L 79.40625 267.332031 L 81.808594 266.390625 L 84.453125 267.714844 L 92.347656 291.394531 Z M 86.617188 299.902344 "/>
<path style=" stroke:none;fill-rule:nonzero;fill:rgb(39.99939%,39.99939%,39.99939%);fill-opacity:0.3;" d="M 27.664062 282.175781 L 19.753906 280.167969 L 15.859375 278.550781 L 14.324219 277.488281 L 11.191406 273.234375 L 8.605469 269.195312 L 8.351562 264.992188 L 9.078125 260.453125 L 9.316406 257.234375 L 52.269531 260.917969 L 58.332031 261.980469 L 62.0625 262.335938 L 66.175781 262.609375 L 68.96875 263.023438 L 71.613281 263.019531 L 72.203125 263.996094 L 71.910156 264.972656 L 70.585938 265.671875 L 68.679688 266.089844 L 66.328125 265.675781 L 64.417969 265.957031 L 63.683594 267.070312 L 64.566406 268.324219 L 65.597656 269.859375 L 66.480469 271.667969 L 66.777344 273.898438 L 66.78125 275.570312 L 66.195312 277.382812 L 65.019531 278.917969 L 63.992188 280.730469 L 64.597656 283.722656 L 66.636719 285.976562 L 68 288.390625 L 69.699219 290.644531 L 72.082031 292.09375 L 74.800781 293.378906 L 77.347656 294.179688 L 80.238281 295.464844 L 82.449219 297.398438 L 84.320312 299.8125 L 84.808594 302.582031 L 80.316406 309.246094 L 79.621094 308.777344 L 77.609375 307.210938 L 73.832031 304.078125 L 66.019531 298.804688 L 62.59375 296.289062 L 55.605469 291.632812 L 51.355469 288.558594 L 47.222656 286.65625 L 44.035156 285.765625 L 36.457031 283.902344 Z M 27.664062 282.175781 "/>
<g clip-path="url(#clip8)" clip-rule="nonzero">
<path style=" stroke:none;fill-rule:nonzero;fill:rgb(39.99939%,39.99939%,39.99939%);fill-opacity:0.3;" d="M 56.015625 295.761719 L 63.035156 300.566406 L 68.503906 304.171875 L 73.050781 308.6875 L 74.542969 311.582031 L 75.949219 315.472656 L 75.199219 317.839844 L 69.976562 326.34375 L 67.25 329.25 L 60.238281 338.71875 L 56.042969 344.726562 L 49.90625 353.929688 L 45.699219 361.496094 L 45.253906 375.460938 L 44.179688 375.535156 L 43.496094 375.566406 L 33.152344 372.355469 L 31.707031 381.414062 L 31.410156 389.722656 L 30.449219 395.714844 L 30.460938 400.171875 L 30.308594 405.226562 L 29.296875 409.328125 L 29.03125 411.699219 L 28.476562 415.121094 L 28.160156 416.625 L 27.84375 418.121094 L 22.546875 444.699219 L -17.996094 441.878906 L -28.90625 441.117188 L -38.992188 438.289062 L -36.921875 409.476562 L -47.433594 391.675781 L -33.777344 342.546875 L 9.484375 305.808594 L 28.523438 307.8125 L 40.996094 311.925781 L 53.886719 298.480469 Z M 56.015625 295.761719 "/>
</g>
<path style=" stroke:none;fill-rule:nonzero;fill:rgb(39.99939%,39.99939%,39.99939%);fill-opacity:0.3;" d="M -65.179688 285.988281 L -81.324219 284.089844 L -87.875 283.570312 L -98.328125 282.742188 L -108.132812 280.019531 L -113.855469 279.554688 L -111.710938 278.765625 L -99.078125 272.054688 L -91.976562 262.976562 L -98.289062 259.425781 L -120.789062 255.480469 L -129.078125 256.664062 L -123.945312 249.558594 L -123.550781 234.953125 L -123.1875 230.570312 L -122.714844 230.601562 L -118.199219 230.523438 L -111.410156 230.148438 L -105.003906 230.324219 L -100.734375 230.871094 L -94.328125 232.339844 L -90.253906 233.621094 L -85.59375 235.089844 L -80.632812 237.074219 L -73.03125 240.875 L -67.109375 244.03125 L -63.558594 246.402344 L -60.914062 246.671875 L -60.070312 247.105469 L -56.925781 247.820312 L 6.59375 256.921875 L 5.554688 262.046875 L 5.210938 266.839844 L 6.089844 270.640625 L 7.835938 273.285156 L 10.277344 276.753906 L 14.640625 282.207031 L -2.074219 293.796875 L -53.070312 290.074219 Z M -65.179688 285.988281 "/>
<g clip-path="url(#clip9)" clip-rule="nonzero">
<path style=" stroke:none;fill-rule:nonzero;fill:rgb(39.99939%,39.99939%,39.99939%);fill-opacity:0.3;" d="M -347.957031 632.539062 L -364.679688 633.128906 L -369.40625 633.289062 L -403.734375 632.03125 L -420.632812 631.632812 L -426.675781 631.230469 L -430.996094 631.386719 L -448.109375 630.980469 L -462.570312 630.996094 L -474.867188 631.011719 L -484.507812 630.867188 L -492.484375 630.71875 L -500.960938 630.570312 L -506.113281 630.691406 L -544.691406 624.519531 L -560.753906 621.734375 L -564.59375 621.007812 L -569.414062 619.910156 L -573.738281 618.972656 L -579.554688 617.875 L -583.460938 617.261719 L -653.160156 180.65625 L -567.390625 185.910156 L -529.648438 187.375 L -508.421875 189.007812 L -489.53125 191.011719 L -462.066406 192.894531 L -400.242188 202.085938 L -388.808594 203.746094 L -377.878906 204.113281 L -369.171875 210.289062 L -369 211.394531 L -366.785156 230.089844 L -338.519531 232.03125 L -299.433594 259.761719 L -302.414062 262.898438 L -310.0625 273.804688 L -312.042969 277.441406 L -312.605469 280.269531 L -311.039062 285.304688 L -309.046875 290.628906 L -308.046875 294.125 L -307.621094 297.144531 L -308.457031 307.777344 L -307.878906 313.378906 L -307.585938 320.511719 L -306.019531 326.566406 L -305.304688 330.84375 L -304.730469 335.714844 L -305.152344 338.542969 L -306.851562 341.773438 L -308.125 343.929688 L -309.109375 348.503906 L -308.820312 353.753906 L -307.089844 357.964844 L -303.398438 361.730469 L -297.007812 367.375 L -292.035156 371.945312 L -286.640625 375.707031 L -282.378906 380.277344 L -277.265625 384.714844 L -271.859375 388.328125 L -262.5 387.242188 L -258.960938 383.792969 L -257.675781 381.386719 L -200.789062 378.667969 L -203.5 381.554688 L -296.46875 488.484375 L -322.027344 521.007812 L -287.457031 530.167969 L -278.492188 532.773438 L -272.632812 534.621094 L -255.28125 537.867188 L -250.109375 539.496094 L -242.992188 533.382812 L -178.957031 471.363281 L -176.03125 469.316406 L -168.886719 461.292969 L -168.769531 458.3125 L -166.179688 457.167969 L -153.152344 449.273438 L -141.707031 442.960938 L -141.78125 442.804688 L -140.425781 442.160156 L -138.21875 440.054688 L -138.222656 437.652344 L -139.75 435.703125 L -92.492188 381.773438 L -94.070312 378.917969 L -96.988281 376.246094 L -102.78125 372.328125 L -110.679688 369.035156 L -115.296875 366.542969 L -129.859375 364.597656 L -135.804688 363.355469 L -141.335938 363.808594 L -152.402344 363.316406 L -152.40625 359.257812 L -135.371094 306.414062 L -134.035156 304.355469 L -131.660156 301.464844 L -128.558594 296.925781 L -125.875 292.886719 L -124.839844 290.996094 L -124.121094 288.671875 L -123.40625 286.277344 L -123.265625 283.269531 L -123.324219 283.046875 L -113.863281 279.558594 L -108.132812 280.023438 L -98.328125 282.75 L -87.875 283.578125 L -81.324219 284.09375 L -65.179688 285.988281 L -53.070312 290.074219 L -2.074219 293.796875 L 14.640625 282.207031 L 28.988281 285.5 L 33.742188 286.714844 L 40.714844 288.027344 L 46.992188 290.171875 L 51.214844 292.402344 L 53.539062 294.011719 L 56.011719 295.757812 L 53.886719 298.480469 L 40.996094 311.925781 L 28.523438 307.8125 L 9.484375 305.804688 L -33.820312 342.539062 L -47.441406 391.679688 L -36.933594 409.480469 L -39.050781 438.324219 L -28.910156 441.144531 L -17.992188 441.914062 L 22.546875 444.703125 L 21.367188 449.367188 L 18.324219 461.179688 L 14.507812 471.917969 L 9.769531 484.242188 L 6.738281 494.484375 L 6.195312 495.816406 L 5.652344 497.234375 L 1.667969 503.742188 L -0.988281 508.414062 L -7.132812 520.789062 L -11.839844 534.375 L -17.609375 544.710938 L -13.421875 551.058594 L -5.953125 554.804688 L -8.890625 558.898438 L -9.519531 559.804688 L -10.0625 560.570312 L -14.328125 565.867188 L -20.003906 561.492188 L -24.671875 561.234375 L -32.253906 575.453125 L -38.527344 587.335938 L -54.226562 598.035156 L -60.480469 603.0625 L -70.988281 605.09375 L -73.179688 605.402344 L -75.757812 605.953125 L -99.328125 610.496094 L -101.105469 610.738281 L -103.4375 611.03125 L -142.769531 614.152344 L -144.90625 614.289062 L -148.222656 614.550781 L -163.066406 615.140625 L -165.59375 615.179688 L -172.609375 615.753906 L -173.535156 615.8125 L -174.785156 615.996094 L -199.859375 618.375 L -200.996094 618.363281 L -202.375 618.304688 L -226.257812 624.578125 L -227.703125 624.898438 L -229.542969 625.207031 L -273.074219 628.730469 L -281.667969 593.289062 L -323.46875 595.097656 L -314.804688 631.507812 L -327.570312 632.078125 L -328.753906 632.097656 L -329.847656 632.136719 Z M -347.957031 632.539062 "/>
</g>
<path style=" stroke:none;fill-rule:nonzero;fill:rgb(39.99939%,39.99939%,39.99939%);fill-opacity:0.3;" d="M 289.71875 39.175781 L 289.042969 39.027344 L 289.046875 37.742188 L 290.089844 38 Z M 289.71875 39.175781 "/>
<path style=" stroke:none;fill-rule:nonzero;fill:rgb(39.99939%,39.99939%,39.99939%);fill-opacity:0.3;" d="M 282.773438 -24.296875 L 282.019531 34.691406 L 267.046875 34.871094 L 267.089844 43.792969 L 258.71875 43.765625 L 252.53125 43.847656 L 252.761719 30.480469 L 252.75 20.34375 L 253.078125 7.300781 L 242.035156 -6.816406 L 242.363281 -24.089844 Z M 282.773438 -24.296875 "/>
<path style=" stroke:none;fill-rule:nonzero;fill:rgb(39.99939%,39.99939%,39.99939%);fill-opacity:0.3;" d="M 282.773438 -24.296875 L 242.363281 -24.089844 L 242.035156 -6.816406 L 253.078125 7.300781 L 252.75 20.34375 L 252.761719 30.480469 L 252.53125 43.847656 L 258.71875 43.765625 L 267.09375 43.796875 L 267.046875 34.871094 L 282.019531 34.691406 L 281.847656 37.304688 L 282.453125 38.722656 L 286.007812 39.964844 L 287.949219 40.546875 L 289.164062 40.914062 L 287.328125 46.683594 L 281.40625 62.472656 L 96.941406 51.429688 L 111.222656 35.410156 L 113.898438 36.253906 L 125.917969 34.363281 L 130.089844 30.101562 L 139.835938 27.152344 L 151.675781 28.167969 L 154.773438 26.824219 L 156.628906 24.324219 L 156.625 22.453125 L 156.027344 20.953125 L 155.378906 19.332031 L 153.519531 18.085938 L 150.429688 16.839844 L 147.328125 16.84375 L 144.855469 18.09375 L 139.523438 24.511719 L 131.015625 26.574219 L 122.960938 23.207031 L 111.390625 25.433594 L 106.582031 29.835938 L 40.269531 41.960938 L 42.472656 36.585938 L 45.121094 32.65625 L 46.355469 31.1875 L 49.601562 28.101562 L 63.359375 12.792969 L 96.996094 -21.0625 L 98.808594 -22.375 L 103.636719 -24.617188 L 111.066406 -26.53125 L 217.8125 -37.679688 L 282.753906 -39.429688 Z M 282.773438 -24.296875 "/>
<g clip-path="url(#clip10)" clip-rule="nonzero">
<path style=" stroke:none;fill-rule:nonzero;fill:rgb(39.99939%,39.99939%,39.99939%);fill-opacity:0.3;" d="M 88.988281 331.097656 L 101.050781 333.757812 L 97.269531 346.441406 L 98.550781 346.886719 L 99.941406 347.371094 L 104.707031 333.355469 L 109.503906 334.492188 L 129.761719 335.355469 L 152.003906 337.054688 L 150.042969 346.667969 L 147.511719 346.804688 L 147.328125 347.808594 L 147.09375 349.070312 L 152.15625 349.066406 L 155.238281 337.585938 L 181.6875 339.425781 L 175.957031 369.992188 L 105.75 365.019531 L 102.664062 370.496094 L 100.746094 374.609375 L 98.90625 378.011719 L 95.90625 381.96875 L 94.5 383.753906 L 92.8125 385.757812 L 90.285156 388.5625 L 87.050781 388.03125 L 81.574219 387.234375 L 56.648438 383.265625 L 56.550781 384.023438 L 56.441406 384.863281 L 91.214844 390.332031 L 90.335938 399.1875 L 91.007812 399.230469 L 91.714844 399.273438 L 92.769531 389.824219 L 94.082031 387.222656 L 97.699219 383.632812 L 101.863281 378.324219 L 104.691406 371.972656 L 107.019531 367.152344 L 120.988281 368.367188 L 119.972656 373.894531 L 118.957031 380.84375 L 117.703125 387.644531 L 115.75 400.34375 L 116.4375 400.390625 L 117.128906 400.4375 L 119.933594 383.890625 L 121.230469 374.792969 L 122.167969 368.515625 L 140.109375 370 L 151.90625 371.167969 L 150.746094 381.433594 L 151.980469 381.570312 L 153.015625 381.6875 L 154.015625 372.769531 L 155.289062 371.640625 L 175.28125 373.160156 L 163.394531 435.105469 L 148.761719 432.851562 L 146.082031 431.847656 L 140.777344 428.890625 L 135.71875 426.480469 L 129.894531 423.570312 L 126.824219 422.375 L 124.203125 421.777344 L 122.667969 421.351562 L 119.957031 420.753906 L 114.445312 419.421875 L 41.621094 403.078125 L 43.316406 397.925781 L 41.433594 387.839844 L 41.433594 386.570312 L 42.371094 383.875 Z M 88.988281 331.097656 "/>
</g>
<path style=" stroke:none;fill-rule:nonzero;fill:rgb(39.99939%,39.99939%,39.99939%);fill-opacity:0.3;" d="M 131.929688 333.460938 L 109.949219 332.53125 L 101.507812 330.867188 L 103.398438 330.867188 Z M 131.929688 333.460938 "/>
<path style=" stroke:none;fill-rule:nonzero;fill:rgb(39.99939%,39.99939%,39.99939%);fill-opacity:0.3;" d="M 181.59375 337.050781 L 181.511719 337.453125 L 147.496094 334.757812 Z M 181.59375 337.050781 "/>
<path style=" stroke:none;fill-rule:nonzero;fill:rgb(39.99939%,39.99939%,39.99939%);fill-opacity:0.3;" d="M 76.566406 315.855469 L 76.695312 315.933594 L 78.054688 317.222656 L 79.414062 318.347656 L 79.273438 319.089844 L 76.558594 315.867188 Z M 76.566406 315.855469 "/>
<path style=" stroke:none;fill-rule:nonzero;fill:rgb(39.99939%,39.99939%,39.99939%);fill-opacity:0.3;" d="M 114.5 313.714844 L 115.46875 313.921875 L 117.679688 308.121094 L 114.050781 307.074219 L 114.339844 304.578125 L 116.871094 299.296875 L 125.886719 301.515625 L 126.078125 300.847656 L 126.269531 300.183594 L 120.777344 298.847656 L 125.195312 285 L 129.414062 286.5 L 153.375 296.769531 L 141.503906 333.863281 L 131.929688 333.460938 L 103.398438 330.867188 L 101.507812 330.867188 L 97.902344 330.152344 L 86.289062 327.421875 L 79.320312 319.144531 L 79.46875 318.324219 L 78.09375 317.175781 L 76.722656 315.886719 L 76.589844 315.808594 L 77.835938 313.597656 L 78.390625 313.03125 L 80.261719 314.15625 L 82.246094 314.273438 L 84.109375 313.828125 L 85.132812 313.296875 L 85.414062 312.855469 L 85.972656 311.882812 L 85.691406 310.734375 L 85.039062 310.117188 L 84.671875 309.15625 L 86.703125 306.09375 L 87.210938 303.675781 L 86.867188 300.453125 L 86.617188 299.902344 L 92.347656 291.394531 L 84.453125 267.714844 L 116.425781 281.527344 L 122.5 283.960938 L 120.847656 289.527344 L 118.207031 298.121094 L 111.128906 296.320312 L 111.472656 295.214844 L 107.417969 294.238281 L 106.855469 296.449219 L 115.363281 298.625 L 111.386719 308.210938 L 115.078125 309.15625 L 113.519531 313.503906 Z M 114.5 313.714844 "/>
<path style=" stroke:none;fill-rule:nonzero;fill:rgb(39.99939%,39.99939%,39.99939%);fill-opacity:0.3;" d="M 154.988281 298.386719 L 186.578125 313.042969 L 181.59375 337.050781 L 147.496094 334.757812 L 146.539062 334.679688 L 145.683594 334.4375 L 144.828125 334.03125 L 144.484375 333.464844 L 144.484375 332.976562 Z M 154.988281 298.386719 "/>
<path style=" stroke:none;fill-rule:nonzero;fill:rgb(39.99939%,39.99939%,39.99939%);fill-opacity:0.3;" d="M 191.160156 313.644531 L 198.519531 316.351562 L 194.46875 338.25 L 185.980469 337.289062 L 190.074219 313.871094 Z M 191.160156 313.644531 "/>
<g clip-path="url(#clip11)" clip-rule="nonzero">
<path style=" stroke:none;fill-rule:nonzero;fill:rgb(39.99939%,39.99939%,39.99939%);fill-opacity:0.3;" d="M 185.632812 339.992188 L 202.027344 340.90625 L 219.003906 342.453125 L 237.007812 343.503906 L 248.859375 343.769531 L 257.203125 343.621094 L 258.664062 341.816406 L 261.003906 341.8125 L 258.832031 359.445312 L 256.316406 375.691406 L 179.667969 370.398438 Z M 185.632812 339.992188 "/>
</g>
<g clip-path="url(#clip12)" clip-rule="nonzero">
<path style=" stroke:none;fill-rule:nonzero;fill:rgb(39.99939%,39.99939%,39.99939%);fill-opacity:0.3;" d="M 262.5 344.0625 L 274.972656 347.125 L 270.449219 375.015625 L 258.144531 375.71875 L 261.339844 352.8125 Z M 262.5 344.0625 "/>
</g>
<g clip-path="url(#clip13)" clip-rule="nonzero">
<path style=" stroke:none;fill-rule:nonzero;fill:rgb(39.99939%,39.99939%,39.99939%);fill-opacity:0.3;" d="M 276.410156 347.796875 L 314.21875 364.574219 L 312.882812 378.550781 L 304.300781 377.835938 L 288.511719 377.046875 L 288.425781 377.671875 L 271.789062 376.28125 Z M 276.410156 347.796875 "/>
</g>
<path style=" stroke:none;fill-rule:nonzero;fill:rgb(39.99939%,39.99939%,39.99939%);fill-opacity:0.3;" d="M 201.851562 317.894531 L 257.636719 341.015625 L 255.738281 342.128906 L 248.273438 342.277344 L 217.539062 340.78125 L 198.21875 338.859375 Z M 201.851562 317.894531 "/>
<path style=" stroke:none;fill-rule:nonzero;fill:rgb(39.99939%,39.99939%,39.99939%);fill-opacity:0.3;" d="M 293.621094 347.152344 L 293.15625 347.433594 L 276.402344 340.128906 L 276.441406 339.601562 Z M 293.621094 347.152344 "/>
<path style=" stroke:none;fill-rule:nonzero;fill:rgb(39.99939%,39.99939%,39.99939%);fill-opacity:0.3;" d="M 274.402344 338.707031 L 274.378906 339.191406 L 226 318.105469 L 262.460938 333.628906 L 272.722656 337.96875 Z M 274.402344 338.707031 "/>
<path style=" stroke:none;fill-rule:nonzero;fill:rgb(39.99939%,39.99939%,39.99939%);fill-opacity:0.3;" d="M 84.808594 302.582031 L 84.832031 302.710938 L 84.84375 304.8125 L 84.007812 307.023438 L 83.359375 308.617188 L 82.242188 309.234375 L 80.566406 309.414062 L 80.316406 309.246094 Z M 84.808594 302.582031 "/>
<path style=" stroke:none;fill-rule:nonzero;fill:rgb(39.99939%,39.99939%,39.99939%);fill-opacity:0.3;" d="M 173.234375 294.839844 L 173 295.039062 L 171.847656 294.882812 L 170.609375 294.335938 L 164.757812 290.4375 L 161.382812 287.945312 L 161.8125 287.449219 Z M 173.234375 294.839844 "/>
<path style=" stroke:none;fill-rule:nonzero;fill:rgb(39.99939%,39.99939%,39.99939%);fill-opacity:0.3;" d="M 125.195312 285 L 125.28125 284.730469 L 129.414062 286.5 Z M 125.195312 285 "/>
<path style=" stroke:none;fill-rule:nonzero;fill:rgb(39.99939%,39.99939%,39.99939%);fill-opacity:0.3;" d="M 81.808594 266.390625 L 81.902344 266.355469 L 97.804688 273.058594 L 122.796875 282.96875 L 122.5 283.960938 L 116.425781 281.527344 L 84.453125 267.714844 Z M 81.808594 266.390625 "/>
<path style=" stroke:none;fill-rule:nonzero;fill:rgb(39.99939%,39.99939%,39.99939%);fill-opacity:0.3;" d="M 299.542969 69.152344 L 292.335938 67.238281 L 292.648438 66.382812 L 299.5625 68.789062 L 299.660156 68.824219 Z M 299.542969 69.152344 "/>
<path style=" stroke:none;fill-rule:nonzero;fill:rgb(39.99939%,39.99939%,39.99939%);fill-opacity:0.3;" d="M 222.96875 274.460938 L 213.210938 297.34375 L 179.472656 280.269531 L 179.8125 275.261719 Z M 222.96875 274.460938 "/>
<path style=" stroke:none;fill-rule:nonzero;fill:rgb(39.99939%,39.99939%,39.99939%);fill-opacity:0.3;" d="M 204.117188 308.570312 L 204.109375 308.566406 L 204.234375 308.261719 Z M 204.117188 308.570312 "/>
<path style=" stroke:none;fill-rule:nonzero;fill:rgb(39.99939%,39.99939%,39.99939%);fill-opacity:0.3;" d="M 196.644531 249.429688 L 199.359375 241.292969 L 203.257812 242.363281 L 200.460938 250.453125 Z M 196.644531 249.429688 "/>
<path style=" stroke:none;fill-rule:nonzero;fill:rgb(39.99939%,39.99939%,39.99939%);fill-opacity:0.3;" d="M 190.589844 265.636719 L 194.332031 255.003906 L 198.503906 256.144531 L 195.046875 265.753906 Z M 190.589844 265.636719 "/>
<path style=" stroke:none;fill-rule:nonzero;fill:rgb(39.99939%,39.99939%,39.99939%);fill-opacity:0.3;" d="M 112.292969 256.941406 L 98.769531 255.6875 L 86.597656 254.140625 L 79.765625 252.707031 L 74.585938 248.769531 L 70.640625 244.425781 L 65.902344 237.324219 L 62.746094 230.21875 L 60.378906 222.324219 L 55.183594 191.859375 L 53.597656 181.15625 L 52.878906 175.75 L 52.484375 171.410156 L 52.398438 170.5625 L 52.527344 165.269531 L 51.9375 155.894531 L 51.429688 152.042969 L 59.179688 151.484375 L 61.503906 149.457031 L 63.554688 148.527344 L 67.625 147.789062 L 71.113281 147.601562 L 74.988281 148.332031 L 80.03125 149.613281 L 84.101562 151.261719 L 90.304688 153.277344 L 94.960938 155.664062 L 98.839844 158.601562 L 103.300781 161.355469 L 106.792969 164.292969 L 110.09375 167.597656 L 113.195312 170.71875 L 149.132812 171.976562 L 159.222656 178.234375 L 165.878906 184.085938 L 169.683594 187.6875 L 176.339844 192.410156 L 175.992188 197.207031 L 171.328125 201.546875 L 168.007812 205.382812 L 163.738281 211.019531 L 158.996094 217.785156 L 154.019531 226.800781 L 149.753906 235.59375 L 144.539062 243.710938 L 136.960938 259.941406 Z M 112.292969 256.941406 "/>
<path style=" stroke:none;fill-rule:nonzero;fill:rgb(39.99939%,39.99939%,39.99939%);fill-opacity:0.3;" d="M 190.253906 246.167969 L 195.644531 230.75 L 199.507812 231.800781 L 194.113281 247.355469 Z M 190.253906 246.167969 "/>
<path style=" stroke:none;fill-rule:nonzero;fill:rgb(39.99939%,39.99939%,39.99939%);fill-opacity:0.3;" d="M 196.25 229.570312 L 198.613281 222.363281 L 202.425781 223.265625 L 200.015625 230.640625 Z M 196.25 229.570312 "/>
<path style=" stroke:none;fill-rule:nonzero;fill:rgb(39.99939%,39.99939%,39.99939%);fill-opacity:0.3;" d="M 184.15625 238.945312 L 187.921875 228.675781 L 191.734375 229.816406 L 187.707031 240.238281 Z M 184.15625 238.945312 "/>
<path style=" stroke:none;fill-rule:nonzero;fill:rgb(39.99939%,39.99939%,39.99939%);fill-opacity:0.3;" d="M 162.941406 260.796875 L 165.386719 249.128906 L 170.921875 249.957031 L 168.476562 261.792969 Z M 162.941406 260.796875 "/>
<path style=" stroke:none;fill-rule:nonzero;fill:rgb(39.99939%,39.99939%,39.99939%);fill-opacity:0.3;" d="M 171.199219 262.289062 L 172.609375 254.867188 L 176.121094 255.53125 L 174.8125 262.867188 Z M 171.199219 262.289062 "/>
<path style=" stroke:none;fill-rule:nonzero;fill:rgb(39.99939%,39.99939%,39.99939%);fill-opacity:0.3;" d="M 176.035156 265.617188 L 176.820312 259.867188 L 178.574219 255.449219 L 175.40625 254.285156 L 176.546875 251.617188 L 173.261719 250.21875 L 174.519531 247.035156 L 179.003906 248.695312 L 179.792969 246.363281 L 174.253906 244.453125 L 176.792969 237.949219 L 184.96875 240.855469 L 181.789062 248.808594 L 190.253906 250.933594 L 187.800781 259.019531 L 182.175781 257.859375 L 181.652344 259.945312 L 187.367188 261.1875 L 186.996094 266.269531 L 180.957031 266.195312 Z M 176.035156 265.617188 "/>
<path style=" stroke:none;fill-rule:nonzero;fill:rgb(39.99939%,39.99939%,39.99939%);fill-opacity:0.3;" d="M 109.519531 158.117188 L 108.378906 156.769531 L 106.667969 155.660156 L 104.210938 154.386719 L 100.953125 152.988281 L 98.734375 151.867188 L 96.953125 150.988281 L 98.375 103.539062 L 178.359375 105.984375 L 176.75 124.289062 L 175.117188 127.878906 L 173.046875 131.109375 L 149.082031 165.046875 L 114.433594 163.5 L 112.65625 162.378906 L 111.617188 161.117188 L 110.582031 159.996094 Z M 109.519531 158.117188 "/>
<path style=" stroke:none;fill-rule:nonzero;fill:rgb(39.99939%,39.99939%,39.99939%);fill-opacity:0.3;" d="M 180.878906 198.882812 L 184.03125 195.886719 L 187.816406 192.585938 L 188.917969 190.789062 L 189.390625 189.738281 L 189.390625 188.09375 L 188.441406 186.296875 L 187.175781 184.351562 L 185.28125 183.003906 L 183.226562 182.257812 L 180.226562 181.511719 L 176.75 180.765625 L 172.644531 179.722656 L 166.488281 178.234375 L 152.953125 166.621094 L 180.351562 125.859375 L 182.351562 106.023438 L 215.652344 106.230469 L 273.851562 144.207031 L 255.003906 207.90625 L 255.960938 210.128906 L 248.675781 234.847656 L 238.285156 267.65625 L 190.773438 265.941406 L 187.183594 266.574219 L 181.148438 266.5 L 176.230469 265.921875 L 142.148438 260.464844 L 146.886719 249.871094 L 167.503906 213.8125 L 172.285156 207.628906 Z M 180.878906 198.882812 "/>
<path style=" stroke:none;fill-rule:nonzero;fill:rgb(39.99939%,39.99939%,39.99939%);fill-opacity:0.3;" d="M 202.828125 232.140625 L 205.453125 224.886719 L 209.496094 226.132812 L 207.046875 233.304688 Z M 202.828125 232.140625 "/>
<path style=" stroke:none;fill-rule:nonzero;fill:rgb(39.99939%,39.99939%,39.99939%);fill-opacity:0.3;" d="M 207.582031 240.46875 L 211.808594 228.207031 L 215.652344 229.460938 L 211.449219 241.714844 Z M 207.582031 240.46875 "/>
<path style=" stroke:none;fill-rule:nonzero;fill:rgb(39.99939%,39.99939%,39.99939%);fill-opacity:0.3;" d="M 213.496094 242.480469 L 217.496094 230.292969 L 221.363281 231.371094 L 217.273438 243.699219 Z M 213.496094 242.480469 "/>
<path style=" stroke:none;fill-rule:nonzero;fill:rgb(39.99939%,39.99939%,39.99939%);fill-opacity:0.3;" d="M 209.238281 253.480469 L 212.507812 243.902344 L 215.847656 244.898438 L 212.78125 254.320312 Z M 209.238281 253.480469 "/>
<path style=" stroke:none;fill-rule:nonzero;fill:rgb(39.99939%,39.99939%,39.99939%);fill-opacity:0.3;" d="M 201.800781 254.8125 L 205.480469 245.140625 L 209.171875 246.300781 L 205.703125 256.136719 Z M 201.800781 254.8125 "/>
<path style=" stroke:none;fill-rule:nonzero;fill:rgb(39.99939%,39.99939%,39.99939%);fill-opacity:0.3;" d="M 199.851562 240.144531 L 202.390625 233.058594 L 206.433594 234.222656 L 203.933594 241.265625 Z M 199.851562 240.144531 "/>
<path style=" stroke:none;fill-rule:nonzero;fill:rgb(39.99939%,39.99939%,39.99939%);fill-opacity:0.3;" d="M 197.945312 265.75 L 201.625 255.746094 L 205.492188 256.992188 L 202.25 265.996094 Z M 197.945312 265.75 "/>
<path style=" stroke:none;fill-rule:nonzero;fill:rgb(39.99939%,39.99939%,39.99939%);fill-opacity:0.3;" d="M 205.0625 266.078125 L 208.476562 254.824219 L 212.78125 255.816406 L 209.457031 266.238281 Z M 205.0625 266.078125 "/>
<path style=" stroke:none;fill-rule:nonzero;fill:rgb(39.99939%,39.99939%,39.99939%);fill-opacity:0.3;" d="M 177.761719 284.910156 L 178.515625 284.089844 L 179.160156 283.476562 L 180.347656 283.371094 L 181.535156 283.679688 L 208.300781 296.878906 L 208.472656 296.960938 L 206.898438 301.15625 L 205.074219 301.253906 L 202.851562 308.171875 L 176.503906 296.171875 Z M 177.761719 284.910156 "/>
<path style=" stroke:none;fill-rule:nonzero;fill:rgb(39.99939%,39.99939%,39.99939%);fill-opacity:0.3;" d="M 175.277344 272.066406 L 173.632812 294.496094 L 173.234375 294.839844 L 161.8125 287.449219 L 161.382812 287.945312 L 157.257812 284.898438 L 149.671875 279.359375 L 149.199219 278.691406 L 149.667969 277.71875 Z M 175.277344 272.066406 "/>
<path style=" stroke:none;fill-rule:nonzero;fill:rgb(39.99939%,39.99939%,39.99939%);fill-opacity:0.3;" d="M 301.964844 69.660156 L 285.691406 112.222656 L 276.867188 135.300781 L 229.359375 103.238281 L 92.140625 98.324219 L 58.058594 97.105469 L 60.292969 92.539062 L 96.941406 51.429688 L 281.40625 62.472656 L 290.484375 65.628906 L 299.5625 68.789062 Z M 301.964844 69.660156 "/>
<path style=" stroke:none;fill-rule:nonzero;fill:rgb(39.99939%,39.99939%,39.99939%);fill-opacity:0.3;" d="M 239.808594 267.53125 L 239.730469 267.53125 L 240.609375 264.804688 Z M 239.808594 267.53125 "/>
<path style=" stroke:none;fill-rule:nonzero;fill:rgb(39.99939%,39.99939%,39.99939%);fill-opacity:0.3;" d="M 14.398438 185.160156 L 45.046875 184.546875 L 47.402344 204.949219 L 51.113281 223.820312 L 54.746094 237.683594 L 59.15625 249.863281 L 59.523438 251.230469 L 59.542969 252.773438 L 58.203125 253.867188 L 55.710938 254.230469 L 51.683594 253.875 L -9.109375 247.574219 Z M 14.398438 185.160156 "/>
<path style=" stroke:none;fill-rule:nonzero;fill:rgb(39.99939%,39.99939%,39.99939%);fill-opacity:0.3;" d="M -5.496094 125.335938 L -5.488281 130.152344 L -3.234375 130.152344 L -3.234375 128.546875 L 0.144531 128.542969 L 0.148438 131.753906 L -0.976562 131.753906 L -0.972656 136.035156 L -3.226562 136.039062 L -3.234375 131.222656 L -5.488281 131.222656 L -5.484375 132.828125 L -8.867188 132.832031 L -8.871094 129.621094 L -7.742188 129.621094 L -7.75 125.339844 L -7.753906 121.058594 L -8.882812 121.058594 L -8.886719 117.847656 L -5.503906 117.84375 L -5.503906 119.449219 L -3.246094 119.445312 L -3.253906 114.628906 L -1 114.628906 L -0.992188 118.910156 L 0.132812 118.90625 L 0.136719 122.117188 L -3.242188 122.121094 L -3.246094 120.515625 L -5.5 120.519531 Z M -5.496094 125.335938 "/>
<path style=" stroke:none;fill-rule:nonzero;fill:rgb(39.99939%,39.99939%,39.99939%);fill-opacity:0.3;" d="M -2.734375 172.375 L -2.730469 177.195312 L -0.472656 177.191406 L -0.476562 175.585938 L 2.90625 175.582031 L 2.910156 178.792969 L 1.78125 178.792969 L 1.789062 183.074219 L -0.46875 183.078125 L -0.472656 178.261719 L -2.726562 178.265625 L -2.726562 179.871094 L -6.109375 179.875 L -6.113281 176.664062 L -4.984375 176.660156 L -4.988281 172.378906 L -4.996094 168.097656 L -6.121094 168.097656 L -6.125 164.886719 L -2.746094 164.882812 L -2.742188 166.488281 L -0.488281 166.488281 L -0.492188 161.667969 L 1.761719 161.667969 L 1.765625 165.949219 L 2.894531 165.949219 L 2.898438 169.160156 L -0.484375 169.164062 L -0.488281 167.558594 L -2.742188 167.558594 Z M -2.734375 172.375 "/>
<path style=" stroke:none;fill-rule:nonzero;fill:rgb(39.99939%,39.99939%,39.99939%);fill-opacity:0.3;" d="M -13.984375 100.980469 L 7.054688 93.5 L 23.132812 87.171875 L 31.992188 89.210938 L 39.757812 139.898438 L 44.695312 176.367188 L 44.699219 178.109375 L 42.996094 179.105469 L 17.28125 180.128906 L 15.835938 179.507812 L 14.128906 177.519531 L 13.730469 175.777344 L 11.570312 126.882812 L 9.855469 110.707031 L 7.074219 109.792969 L 5.136719 109.105469 L 2.355469 108.304688 L -0.792969 106.933594 L -3.699219 104.296875 L -13.496094 104.539062 Z M -13.984375 100.980469 "/>
<path style=" stroke:none;fill-rule:nonzero;fill:rgb(39.99939%,39.99939%,39.99939%);fill-opacity:0.3;" d="M 79.765625 252.707031 L 75.320312 251.773438 L 66.003906 238.914062 L 61.535156 230.644531 L 59.976562 224.210938 L 55.183594 191.859375 L 60.378906 222.324219 L 62.746094 230.21875 L 65.902344 237.324219 L 70.640625 244.425781 L 74.585938 248.769531 Z M 79.765625 252.707031 "/>
<path style=" stroke:none;fill-rule:nonzero;fill:rgb(39.99939%,39.99939%,39.99939%);fill-opacity:0.3;" d="M 53.597656 181.15625 L 52.347656 172.699219 L 52.398438 170.5625 L 52.484375 171.410156 L 52.878906 175.75 Z M 53.597656 181.15625 "/>
<path style=" stroke:none;fill-rule:nonzero;fill:rgb(39.99939%,39.99939%,39.99939%);fill-opacity:0.3;" d="M -3.898438 28.554688 L 0.558594 23.824219 L 17.511719 37.304688 L 20.597656 40.714844 L 22.496094 43.8125 L 23.425781 45.390625 L 24.539062 48.375 L 26.917969 54.152344 L 28.679688 59.839844 L 29.863281 70.382812 L 28.417969 75.640625 L 25.9375 79.527344 L 24.332031 82.027344 L 21.542969 84.546875 L 19.726562 85.714844 L 18.035156 86.621094 L 16.4375 87.378906 L 11.070312 89.496094 L 5.886719 91.433594 L 1.632812 93.019531 L -2.070312 93.722656 L -6.777344 95.167969 L -11.699219 96.722656 L -14.472656 97.953125 L -17.804688 98.660156 L -20.769531 98.839844 L -23.917969 98.667969 L -26.140625 98.320312 L -27.808594 98.144531 L -31.140625 99.027344 L -35.445312 100.53125 L -38.710938 101.566406 L -42.335938 103.289062 L -45.839844 105.703125 L -47.53125 107.542969 L -50.066406 110.640625 L -51.632812 116.378906 L -51.652344 130.351562 L -54.496094 130.492188 L -54.488281 175.5625 L -110.332031 177.148438 L -114.078125 176.539062 L -117.480469 177.351562 L -118.125 177.367188 L -120.582031 172.816406 L -120.878906 163.375 L -127.273438 163.421875 L -127.269531 167.234375 L -127.105469 169.984375 L -127.28125 171.472656 L -138.617188 171.304688 L -137.464844 92.214844 L -137.382812 90.773438 L -137.273438 88.328125 L -135.542969 86.125 L -132.785156 84.023438 L -129.996094 81.539062 L -127.324219 80.796875 L -114.78125 79.964844 L -106.5625 79.984375 L -82.023438 51.253906 L -52.046875 54.597656 L -24.363281 40.175781 Z M -3.898438 28.554688 "/>
<path style=" stroke:none;fill-rule:nonzero;fill:rgb(39.99939%,39.99939%,39.99939%);fill-opacity:0.3;" d="M -50.53125 -10.722656 L -6.414062 -16.085938 L 3.164062 -17.507812 L 16.539062 -18.929688 L 10.964844 -17.585938 L 0.691406 -15.648438 L -3.089844 -14.75 L -6.0625 -13.589844 L -8.765625 -11.792969 L -10.65625 -10.125 L -13.082031 -6.789062 L -14.296875 -2.941406 L -14.695312 1.292969 L -13.609375 5.519531 L -11.441406 9.367188 L -8.464844 12.4375 L -5.21875 14.359375 L -1.027344 15.507812 L 3.707031 16.398438 L 8.976562 15.242188 L 13.703125 12.671875 L 16.808594 9.976562 L 18.699219 7.023438 L 20.859375 0.960938 L 21.851562 2.839844 L 26.492188 44.238281 L 25.054688 41.035156 L 23.285156 37.871094 L 20.273438 34.726562 L 13.375 29.21875 L 1.207031 20.660156 L -8.6875 14.402344 L -19.648438 7.105469 L -32.09375 -1.597656 L -35.496094 -3.675781 L -39.015625 -5.976562 L -42.800781 -7.898438 L -46.316406 -9.046875 L -48.480469 -9.6875 L -50.105469 -10.070312 Z M -50.53125 -10.722656 "/>
<path style=" stroke:none;fill-rule:nonzero;fill:rgb(39.99939%,39.99939%,39.99939%);fill-opacity:0.3;" d="M -4.167969 27.917969 L -24.476562 39.894531 L -52.019531 54.359375 L -82.097656 51.125 L -52.457031 35.722656 L -42.957031 30.992188 L -37.546875 27.65625 L -34.332031 24.601562 L -33.457031 21.824219 L -33.335938 20.789062 L -33.167969 19.324219 L -34.53125 17.164062 L -37.3125 15.363281 L -42.140625 14.8125 L -58.375 16.082031 L -146.582031 24.230469 L -177.289062 27.148438 L -184.390625 28.015625 L -186.585938 26.769531 L -187.320312 25.242188 L -187.03125 23.160156 L -184.984375 20.382812 L -182.355469 17.746094 L -175.632812 12.324219 L -172.125 10.101562 L -168.03125 8.015625 L -164.8125 7.179688 L -160.570312 6.203125 L -151.898438 5.460938 L -133.921875 3.519531 L -107.988281 0.734375 L -86.195312 -1.09375 L -74.785156 -3.050781 L -72.675781 -6.59375 L -62.210938 -7.921875 L -57.089844 -8.066406 L -54.019531 -7.792969 L -51.675781 -6.960938 L -48.601562 -6.273438 L -46.261719 -5.304688 L -42.601562 -3.78125 L -15.316406 13.582031 L 0.394531 23.578125 Z M -4.167969 27.917969 "/>
<path style=" stroke:none;fill-rule:nonzero;fill:rgb(39.99939%,39.99939%,39.99939%);fill-opacity:0.3;" d="M 276.960938 332.042969 L 298.953125 343.890625 L 293.621094 347.152344 L 276.441406 339.601562 Z M 276.960938 332.042969 "/>
<path style=" stroke:none;fill-rule:nonzero;fill:rgb(39.99939%,39.99939%,39.99939%);fill-opacity:0.3;" d="M 315.28125 348.472656 L 315.285156 350.820312 L 314.972656 353.851562 L 312.671875 352.894531 L 304.167969 349.410156 L 303.785156 348.808594 L 303.785156 348.085938 L 304.546875 347.484375 L 307.84375 347.84375 Z M 315.28125 348.472656 "/>
<path style=" stroke:none;fill-rule:nonzero;fill:rgb(39.99939%,39.99939%,39.99939%);fill-opacity:0.3;" d="M 278.902344 275.949219 L 276.160156 307.949219 L 226.722656 303 L 215.296875 298.113281 L 224.785156 275.234375 L 236.597656 274.800781 L 251.1875 275.042969 L 265.871094 275.457031 Z M 278.902344 275.949219 "/>
<path style=" stroke:none;fill-rule:nonzero;fill:rgb(39.99939%,39.99939%,39.99939%);fill-opacity:0.3;" d="M 220.960938 302.964844 L 274.808594 331.007812 L 274.402344 338.707031 L 272.722656 337.96875 L 262.460938 333.628906 L 226 318.105469 L 204.117188 308.570312 L 204.234375 308.261719 L 206.476562 302.832031 Z M 220.960938 302.964844 "/>
<path style=" stroke:none;fill-rule:nonzero;fill:rgb(39.99939%,39.99939%,39.99939%);fill-opacity:0.3;" d="M 208.472656 296.960938 L 214.890625 300.117188 L 214.890625 300.730469 L 206.898438 301.15625 Z M 208.472656 296.960938 "/>
<path style=" stroke:none;fill-rule:nonzero;fill:rgb(39.99939%,39.99939%,39.99939%);fill-opacity:0.3;" d="M 319.839844 313.089844 L 333.554688 314.40625 L 330.75 347.628906 L 317.28125 346.398438 Z M 319.839844 313.089844 "/>
<path style=" stroke:none;fill-rule:nonzero;fill:rgb(39.99939%,39.99939%,39.99939%);fill-opacity:0.3;" d="M 335.535156 280.804688 L 333.820312 312.628906 L 320.054688 311.3125 L 322.390625 280.128906 Z M 335.535156 280.804688 "/>
<g clip-path="url(#clip14)" clip-rule="nonzero">
<path style=" stroke:none;fill-rule:nonzero;fill:rgb(39.99939%,39.99939%,39.99939%);fill-opacity:0.3;" d="M 391.441406 320.445312 L 378.367188 351.074219 L 332.597656 347.761719 L 335.308594 314.554688 Z M 391.441406 320.445312 "/>
</g>
<g clip-path="url(#clip15)" clip-rule="nonzero">
<path style=" stroke:none;fill-rule:nonzero;fill:rgb(39.99939%,39.99939%,39.99939%);fill-opacity:0.3;" d="M 408.460938 284.058594 L 392.203125 318.636719 L 335.457031 312.921875 L 337.535156 281.074219 L 358.816406 282.582031 L 371.550781 283.484375 L 387.023438 284.539062 L 394.277344 284.992188 L 402.015625 284.523438 Z M 408.460938 284.058594 "/>
</g>
<path style=" stroke:none;fill-rule:nonzero;fill:rgb(39.99939%,39.99939%,39.99939%);fill-opacity:0.3;" d="M 260.5625 307.867188 L 259.054688 319.789062 L 258.78125 320.183594 L 258.449219 320.425781 L 257.953125 320.578125 L 257.125 320.449219 L 230.179688 306.199219 L 228.660156 305.675781 L 228.242188 305.285156 L 228.242188 304.628906 Z M 260.5625 307.867188 "/>
<path style=" stroke:none;fill-rule:nonzero;fill:rgb(39.99939%,39.99939%,39.99939%);fill-opacity:0.3;" d="M 275.824219 309.75 L 273.847656 328.226562 L 261.1875 321.632812 L 262.691406 308.140625 Z M 275.824219 309.75 "/>
<path style=" stroke:none;fill-rule:nonzero;fill:rgb(39.99939%,39.99939%,39.99939%);fill-opacity:0.3;" d="M 320.761719 279.875 L 318.3125 311.167969 L 294.179688 309.261719 L 295.128906 295.890625 L 298.121094 296.0625 L 299.652344 288.75 L 298.828125 288.613281 L 298.113281 288.496094 L 296.667969 294.34375 L 293.496094 294.175781 L 292.355469 309.058594 L 277.769531 308.058594 L 280.253906 276.753906 Z M 320.761719 279.875 "/>
<path style=" stroke:none;fill-rule:nonzero;fill:rgb(39.99939%,39.99939%,39.99939%);fill-opacity:0.3;" d="M 318.117188 313.050781 L 315.617188 346.152344 L 307.078125 345.324219 L 294 338.996094 L 275.519531 328.84375 L 277.511719 309.867188 Z M 318.117188 313.050781 "/>
<g clip-path="url(#clip16)" clip-rule="nonzero">
<path style=" stroke:none;fill-rule:nonzero;fill:rgb(39.99939%,39.99939%,39.99939%);fill-opacity:0.3;" d="M 330.652344 350.003906 L 330.34375 361.464844 L 316.644531 354.359375 L 316.914062 348.59375 Z M 330.652344 350.003906 "/>
</g>
<g clip-path="url(#clip17)" clip-rule="nonzero">
<path style=" stroke:none;fill-rule:nonzero;fill:rgb(39.99939%,39.99939%,39.99939%);fill-opacity:0.3;" d="M 377.496094 353.824219 L 368.480469 378.105469 L 367.84375 377.835938 L 363.824219 376.308594 L 333.394531 362.925781 L 332.253906 359.480469 L 332.527344 350.175781 Z M 377.496094 353.824219 "/>
</g>
<path style="fill-rule:nonzero;fill:rgb(39.99939%,39.99939%,39.99939%);fill-opacity:1;stroke-width:0.03;stroke-linecap:square;stroke-linejoin:miter;stroke:rgb(39.99939%,39.99939%,39.99939%);stroke-opacity:1;stroke-miterlimit:3.239307;" d="M 199.195312 298 L 199.28125 297.730469 L 203.414062 299.5 Z M 199.195312 298 " transform="matrix(1,0,0,1,-74,-13)"/>
<path style="fill-rule:nonzero;fill:rgb(39.99939%,39.99939%,39.99939%);fill-opacity:1;stroke-width:0.03;stroke-linecap:square;stroke-linejoin:miter;stroke:rgb(39.99939%,39.99939%,39.99939%);stroke-opacity:1;stroke-miterlimit:3.239307;" d="M 155.808594 279.390625 L 155.902344 279.355469 L 171.804688 286.058594 L 196.796875 295.96875 L 196.5 296.960938 L 190.425781 294.527344 L 158.453125 280.714844 Z M 155.808594 279.390625 " transform="matrix(1,0,0,1,-74,-13)"/>
<path style="fill-rule:nonzero;fill:rgb(39.99939%,39.99939%,39.99939%);fill-opacity:1;stroke-width:0.03;stroke-linecap:square;stroke-linejoin:miter;stroke:rgb(39.99939%,39.99939%,39.99939%);stroke-opacity:1;stroke-miterlimit:3.239307;" d="M 373.542969 82.152344 L 366.335938 80.238281 L 366.648438 79.382812 L 373.5625 81.789062 L 373.660156 81.824219 Z M 373.542969 82.152344 " transform="matrix(1,0,0,1,-74,-13)"/>
<path style="fill-rule:nonzero;fill:rgb(39.99939%,39.99939%,39.99939%);fill-opacity:1;stroke-width:0.03;stroke-linecap:square;stroke-linejoin:miter;stroke:rgb(39.99939%,39.99939%,39.99939%);stroke-opacity:1;stroke-miterlimit:3.239307;" d="M 296.96875 287.460938 L 287.210938 310.34375 L 253.472656 293.269531 L 253.8125 288.261719 Z M 296.96875 287.460938 " transform="matrix(1,0,0,1,-74,-13)"/>
<path style="fill-rule:nonzero;fill:rgb(39.99939%,39.99939%,39.99939%);fill-opacity:1;stroke-width:0.03;stroke-linecap:square;stroke-linejoin:miter;stroke:rgb(39.99939%,39.99939%,39.99939%);stroke-opacity:1;stroke-miterlimit:3.239307;" d="M 278.117188 321.570312 L 278.109375 321.566406 L 278.234375 321.261719 Z M 278.117188 321.570312 " transform="matrix(1,0,0,1,-74,-13)"/>
<path style="fill-rule:nonzero;fill:rgb(39.99939%,39.99939%,39.99939%);fill-opacity:1;stroke-width:0.03;stroke-linecap:square;stroke-linejoin:miter;stroke:rgb(39.99939%,39.99939%,39.99939%);stroke-opacity:1;stroke-miterlimit:3.239307;" d="M 270.644531 262.429688 L 273.359375 254.292969 L 277.257812 255.363281 L 274.460938 263.453125 Z M 270.644531 262.429688 " transform="matrix(1,0,0,1,-74,-13)"/>
<path style="fill-rule:nonzero;fill:rgb(39.99939%,39.99939%,39.99939%);fill-opacity:1;stroke-width:0.03;stroke-linecap:square;stroke-linejoin:miter;stroke:rgb(39.99939%,39.99939%,39.99939%);stroke-opacity:1;stroke-miterlimit:3.239307;" d="M 264.589844 278.636719 L 268.332031 268.003906 L 272.503906 269.144531 L 269.046875 278.753906 Z M 264.589844 278.636719 " transform="matrix(1,0,0,1,-74,-13)"/>
<path style="fill-rule:nonzero;fill:rgb(39.99939%,39.99939%,39.99939%);fill-opacity:1;stroke-width:0.03;stroke-linecap:square;stroke-linejoin:miter;stroke:rgb(39.99939%,39.99939%,39.99939%);stroke-opacity:1;stroke-miterlimit:3.239307;" d="M 186.292969 269.941406 L 172.769531 268.6875 L 160.597656 267.140625 L 153.765625 265.707031 L 148.585938 261.769531 L 144.640625 257.425781 L 139.902344 250.324219 L 136.746094 243.21875 L 134.378906 235.324219 L 129.183594 204.859375 L 127.597656 194.15625 L 126.878906 188.75 L 126.484375 184.410156 L 126.398438 183.5625 L 126.527344 178.269531 L 125.9375 168.894531 L 125.429688 165.042969 L 133.179688 164.484375 L 135.503906 162.457031 L 137.554688 161.527344 L 141.625 160.789062 L 145.113281 160.601562 L 148.988281 161.332031 L 154.03125 162.613281 L 158.101562 164.261719 L 164.304688 166.277344 L 168.960938 168.664062 L 172.839844 171.601562 L 177.300781 174.355469 L 180.792969 177.292969 L 184.09375 180.597656 L 187.195312 183.71875 L 223.132812 184.976562 L 233.222656 191.234375 L 239.878906 197.085938 L 243.683594 200.6875 L 250.339844 205.410156 L 249.992188 210.207031 L 245.328125 214.546875 L 242.007812 218.382812 L 237.738281 224.019531 L 232.996094 230.785156 L 228.019531 239.800781 L 223.753906 248.59375 L 218.539062 256.710938 L 210.960938 272.941406 Z M 186.292969 269.941406 " transform="matrix(1,0,0,1,-74,-13)"/>
<path style="fill-rule:nonzero;fill:rgb(39.99939%,39.99939%,39.99939%);fill-opacity:1;stroke-width:0.03;stroke-linecap:square;stroke-linejoin:miter;stroke:rgb(39.99939%,39.99939%,39.99939%);stroke-opacity:1;stroke-miterlimit:3.239307;" d="M 264.253906 259.167969 L 269.644531 243.75 L 273.507812 244.800781 L 268.113281 260.355469 Z M 264.253906 259.167969 " transform="matrix(1,0,0,1,-74,-13)"/>
<path style="fill-rule:nonzero;fill:rgb(39.99939%,39.99939%,39.99939%);fill-opacity:1;stroke-width:0.03;stroke-linecap:square;stroke-linejoin:miter;stroke:rgb(39.99939%,39.99939%,39.99939%);stroke-opacity:1;stroke-miterlimit:3.239307;" d="M 270.25 242.570312 L 272.613281 235.363281 L 276.425781 236.265625 L 274.015625 243.640625 Z M 270.25 242.570312 " transform="matrix(1,0,0,1,-74,-13)"/>
<path style="fill-rule:nonzero;fill:rgb(39.99939%,39.99939%,39.99939%);fill-opacity:1;stroke-width:0.03;stroke-linecap:square;stroke-linejoin:miter;stroke:rgb(39.99939%,39.99939%,39.99939%);stroke-opacity:1;stroke-miterlimit:3.239307;" d="M 258.15625 251.945312 L 261.921875 241.675781 L 265.734375 242.816406 L 261.707031 253.238281 Z M 258.15625 251.945312 " transform="matrix(1,0,0,1,-74,-13)"/>
<path style="fill-rule:nonzero;fill:rgb(39.99939%,39.99939%,39.99939%);fill-opacity:1;stroke-width:0.03;stroke-linecap:square;stroke-linejoin:miter;stroke:rgb(39.99939%,39.99939%,39.99939%);stroke-opacity:1;stroke-miterlimit:3.239307;" d="M 236.941406 273.796875 L 239.386719 262.128906 L 244.921875 262.957031 L 242.476562 274.792969 Z M 236.941406 273.796875 " transform="matrix(1,0,0,1,-74,-13)"/>
<path style="fill-rule:nonzero;fill:rgb(39.99939%,39.99939%,39.99939%);fill-opacity:1;stroke-width:0.03;stroke-linecap:square;stroke-linejoin:miter;stroke:rgb(39.99939%,39.99939%,39.99939%);stroke-opacity:1;stroke-miterlimit:3.239307;" d="M 245.199219 275.289062 L 246.609375 267.867188 L 250.121094 268.53125 L 248.8125 275.867188 Z M 245.199219 275.289062 " transform="matrix(1,0,0,1,-74,-13)"/>
<path style="fill-rule:nonzero;fill:rgb(39.99939%,39.99939%,39.99939%);fill-opacity:1;stroke-width:0.03;stroke-linecap:square;stroke-linejoin:miter;stroke:rgb(39.99939%,39.99939%,39.99939%);stroke-opacity:1;stroke-miterlimit:3.239307;" d="M 250.035156 278.617188 L 250.820312 272.867188 L 252.574219 268.449219 L 249.40625 267.285156 L 250.546875 264.617188 L 247.261719 263.21875 L 248.519531 260.035156 L 253.003906 261.695312 L 253.792969 259.363281 L 248.253906 257.453125 L 250.792969 250.949219 L 258.96875 253.855469 L 255.789062 261.808594 L 264.253906 263.933594 L 261.800781 272.019531 L 256.175781 270.859375 L 255.652344 272.945312 L 261.367188 274.1875 L 260.996094 279.269531 L 254.957031 279.195312 Z M 250.035156 278.617188 " transform="matrix(1,0,0,1,-74,-13)"/>
<path style="fill-rule:nonzero;fill:rgb(39.99939%,39.99939%,39.99939%);fill-opacity:1;stroke-width:0.03;stroke-linecap:square;stroke-linejoin:miter;stroke:rgb(39.99939%,39.99939%,39.99939%);stroke-opacity:1;stroke-miterlimit:3.239307;" d="M 183.519531 171.117188 L 182.378906 169.769531 L 180.667969 168.660156 L 178.210938 167.386719 L 174.953125 165.988281 L 172.734375 164.867188 L 170.953125 163.988281 L 172.375 116.539062 L 252.359375 118.984375 L 250.75 137.289062 L 249.117188 140.878906 L 247.046875 144.109375 L 223.082031 178.046875 L 188.433594 176.5 L 186.65625 175.378906 L 185.617188 174.117188 L 184.582031 172.996094 Z M 183.519531 171.117188 " transform="matrix(1,0,0,1,-74,-13)"/>
<path style="fill-rule:nonzero;fill:rgb(39.99939%,39.99939%,39.99939%);fill-opacity:1;stroke-width:0.03;stroke-linecap:square;stroke-linejoin:miter;stroke:rgb(39.99939%,39.99939%,39.99939%);stroke-opacity:1;stroke-miterlimit:3.239307;" d="M 254.878906 211.882812 L 258.03125 208.886719 L 261.816406 205.585938 L 262.917969 203.789062 L 263.390625 202.738281 L 263.390625 201.09375 L 262.441406 199.296875 L 261.175781 197.351562 L 259.28125 196.003906 L 257.226562 195.257812 L 254.226562 194.511719 L 250.75 193.765625 L 246.644531 192.722656 L 240.488281 191.234375 L 226.953125 179.621094 L 254.351562 138.859375 L 256.351562 119.023438 L 289.652344 119.230469 L 347.851562 157.207031 L 329.003906 220.90625 L 329.960938 223.128906 L 322.675781 247.847656 L 312.285156 280.65625 L 264.773438 278.941406 L 261.183594 279.574219 L 255.148438 279.5 L 250.230469 278.921875 L 216.148438 273.464844 L 220.886719 262.871094 L 241.503906 226.8125 L 246.285156 220.628906 Z M 254.878906 211.882812 " transform="matrix(1,0,0,1,-74,-13)"/>
<path style="fill-rule:nonzero;fill:rgb(39.99939%,39.99939%,39.99939%);fill-opacity:1;stroke-width:0.03;stroke-linecap:square;stroke-linejoin:miter;stroke:rgb(39.99939%,39.99939%,39.99939%);stroke-opacity:1;stroke-miterlimit:3.239307;" d="M 276.828125 245.140625 L 279.453125 237.886719 L 283.496094 239.132812 L 281.046875 246.304688 Z M 276.828125 245.140625 " transform="matrix(1,0,0,1,-74,-13)"/>
<path style="fill-rule:nonzero;fill:rgb(39.99939%,39.99939%,39.99939%);fill-opacity:1;stroke-width:0.03;stroke-linecap:square;stroke-linejoin:miter;stroke:rgb(39.99939%,39.99939%,39.99939%);stroke-opacity:1;stroke-miterlimit:3.239307;" d="M 281.582031 253.46875 L 285.808594 241.207031 L 289.652344 242.460938 L 285.449219 254.714844 Z M 281.582031 253.46875 " transform="matrix(1,0,0,1,-74,-13)"/>
<path style="fill-rule:nonzero;fill:rgb(39.99939%,39.99939%,39.99939%);fill-opacity:1;stroke-width:0.03;stroke-linecap:square;stroke-linejoin:miter;stroke:rgb(39.99939%,39.99939%,39.99939%);stroke-opacity:1;stroke-miterlimit:3.239307;" d="M 287.496094 255.480469 L 291.496094 243.292969 L 295.363281 244.371094 L 291.273438 256.699219 Z M 287.496094 255.480469 " transform="matrix(1,0,0,1,-74,-13)"/>
<path style="fill-rule:nonzero;fill:rgb(39.99939%,39.99939%,39.99939%);fill-opacity:1;stroke-width:0.03;stroke-linecap:square;stroke-linejoin:miter;stroke:rgb(39.99939%,39.99939%,39.99939%);stroke-opacity:1;stroke-miterlimit:3.239307;" d="M 283.238281 266.480469 L 286.507812 256.902344 L 289.847656 257.898438 L 286.78125 267.320312 Z M 283.238281 266.480469 " transform="matrix(1,0,0,1,-74,-13)"/>
<path style="fill-rule:nonzero;fill:rgb(39.99939%,39.99939%,39.99939%);fill-opacity:1;stroke-width:0.03;stroke-linecap:square;stroke-linejoin:miter;stroke:rgb(39.99939%,39.99939%,39.99939%);stroke-opacity:1;stroke-miterlimit:3.239307;" d="M 275.800781 267.8125 L 279.480469 258.140625 L 283.171875 259.300781 L 279.703125 269.136719 Z M 275.800781 267.8125 " transform="matrix(1,0,0,1,-74,-13)"/>
<path style="fill-rule:nonzero;fill:rgb(39.99939%,39.99939%,39.99939%);fill-opacity:1;stroke-width:0.03;stroke-linecap:square;stroke-linejoin:miter;stroke:rgb(39.99939%,39.99939%,39.99939%);stroke-opacity:1;stroke-miterlimit:3.239307;" d="M 273.851562 253.144531 L 276.390625 246.058594 L 280.433594 247.222656 L 277.933594 254.265625 Z M 273.851562 253.144531 " transform="matrix(1,0,0,1,-74,-13)"/>
<path style="fill-rule:nonzero;fill:rgb(39.99939%,39.99939%,39.99939%);fill-opacity:1;stroke-width:0.03;stroke-linecap:square;stroke-linejoin:miter;stroke:rgb(39.99939%,39.99939%,39.99939%);stroke-opacity:1;stroke-miterlimit:3.239307;" d="M 271.945312 278.75 L 275.625 268.746094 L 279.492188 269.992188 L 276.25 278.996094 Z M 271.945312 278.75 " transform="matrix(1,0,0,1,-74,-13)"/>
<path style="fill-rule:nonzero;fill:rgb(39.99939%,39.99939%,39.99939%);fill-opacity:1;stroke-width:0.03;stroke-linecap:square;stroke-linejoin:miter;stroke:rgb(39.99939%,39.99939%,39.99939%);stroke-opacity:1;stroke-miterlimit:3.239307;" d="M 279.0625 279.078125 L 282.476562 267.824219 L 286.78125 268.816406 L 283.457031 279.238281 Z M 279.0625 279.078125 " transform="matrix(1,0,0,1,-74,-13)"/>
<path style="fill-rule:nonzero;fill:rgb(39.99939%,39.99939%,39.99939%);fill-opacity:1;stroke-width:0.03;stroke-linecap:square;stroke-linejoin:miter;stroke:rgb(39.99939%,39.99939%,39.99939%);stroke-opacity:1;stroke-miterlimit:3.239307;" d="M 251.761719 297.910156 L 252.515625 297.089844 L 253.160156 296.476562 L 254.347656 296.371094 L 255.535156 296.679688 L 282.300781 309.878906 L 282.472656 309.960938 L 280.898438 314.15625 L 279.074219 314.253906 L 276.851562 321.171875 L 250.503906 309.171875 Z M 251.761719 297.910156 " transform="matrix(1,0,0,1,-74,-13)"/>
<path style="fill-rule:nonzero;fill:rgb(39.99939%,39.99939%,39.99939%);fill-opacity:1;stroke-width:0.03;stroke-linecap:square;stroke-linejoin:miter;stroke:rgb(39.99939%,39.99939%,39.99939%);stroke-opacity:1;stroke-miterlimit:3.239307;" d="M 249.277344 285.066406 L 247.632812 307.496094 L 247.234375 307.839844 L 235.8125 300.449219 L 235.382812 300.945312 L 231.257812 297.898438 L 223.671875 292.359375 L 223.199219 291.691406 L 223.667969 290.71875 Z M 249.277344 285.066406 " transform="matrix(1,0,0,1,-74,-13)"/>
<path style="fill-rule:nonzero;fill:rgb(39.99939%,39.99939%,39.99939%);fill-opacity:1;stroke-width:0.03;stroke-linecap:square;stroke-linejoin:miter;stroke:rgb(39.99939%,39.99939%,39.99939%);stroke-opacity:1;stroke-miterlimit:3.239307;" d="M 375.964844 82.660156 L 359.691406 125.222656 L 350.867188 148.300781 L 303.359375 116.238281 L 166.140625 111.324219 L 132.058594 110.105469 L 134.292969 105.539062 L 170.941406 64.429688 L 355.40625 75.472656 L 364.484375 78.628906 L 373.5625 81.789062 Z M 375.964844 82.660156 " transform="matrix(1,0,0,1,-74,-13)"/>
<path style="fill-rule:nonzero;fill:rgb(39.99939%,39.99939%,39.99939%);fill-opacity:1;stroke-width:0.03;stroke-linecap:square;stroke-linejoin:miter;stroke:rgb(39.99939%,39.99939%,39.99939%);stroke-opacity:1;stroke-miterlimit:3.239307;" d="M 313.808594 280.53125 L 313.730469 280.53125 L 314.609375 277.804688 Z M 313.808594 280.53125 " transform="matrix(1,0,0,1,-74,-13)"/>
<path style=" stroke:none;fill-rule:evenodd;fill:rgb(85.096741%,85.096741%,81.959534%);fill-opacity:0.7;" d="M 43.789062 225 C 43.789062 220.8125 42.125 216.796875 39.164062 213.835938 C 36.203125 210.875 32.1875 209.210938 28 209.210938 C 23.8125 209.210938 19.796875 210.875 16.835938 213.835938 C 13.875 216.796875 12.210938 220.8125 12.210938 225 C 12.210938 229.1875 13.875 233.203125 16.835938 236.164062 C 19.796875 239.125 23.8125 240.789062 28 240.789062 C 32.1875 240.789062 36.203125 239.125 39.164062 236.164062 C 42.125 233.203125 43.789062 229.1875 43.789062 225 Z M 43.789062 225 "/>
<path style=" stroke:none;fill-rule:evenodd;fill:rgb(85.096741%,85.096741%,81.959534%);fill-opacity:0.7;" d="M 119.789062 144 C 119.789062 139.8125 118.125 135.796875 115.164062 132.835938 C 112.203125 129.875 108.1875 128.210938 104 128.210938 C 99.8125 128.210938 95.796875 129.875 92.835938 132.835938 C 89.875 135.796875 88.210938 139.8125 88.210938 144 C 88.210938 148.1875 89.875 152.203125 92.835938 155.164062 C 95.796875 158.125 99.8125 159.789062 104 159.789062 C 108.1875 159.789062 112.203125 158.125 115.164062 155.164062 C 118.125 152.203125 119.789062 148.1875 119.789062 144 Z M 119.789062 144 "/>
<path style=" stroke:none;fill-rule:evenodd;fill:rgb(85.096741%,85.096741%,81.959534%);fill-opacity:0.7;" d="M 7.789062 57 C 7.789062 52.8125 6.125 48.796875 3.164062 45.835938 C 0.203125 42.875 -3.8125 41.210938 -8 41.210938 C -12.1875 41.210938 -16.203125 42.875 -19.164062 45.835938 C -22.125 48.796875 -23.789062 52.8125 -23.789062 57 C -23.789062 61.1875 -22.125 65.203125 -19.164062 68.164062 C -16.203125 71.125 -12.1875 72.789062 -8 72.789062 C -3.8125 72.789062 0.203125 71.125 3.164062 68.164062 C 6.125 65.203125 7.789062 61.1875 7.789062 57 Z M 7.789062 57 "/>
</g>
</svg>
