<?xml version="1.0" encoding="UTF-8"?>
<svg xmlns="http://www.w3.org/2000/svg" xmlns:xlink="http://www.w3.org/1999/xlink" width="361pt" height="361pt" viewBox="0 0 361 361" version="1.1">
<defs>
<clipPath id="clip1">
  <path d="M 138 303 L 157 303 L 157 360 L 138 360 Z M 138 303 "/>
</clipPath>
<clipPath id="clip2">
  <path d="M 151 303 L 183 303 L 183 360 L 151 360 Z M 151 303 "/>
</clipPath>
<clipPath id="clip3">
  <path d="M 325 177 L 360 177 L 360 258 L 325 258 Z M 325 177 "/>
</clipPath>
<clipPath id="clip4">
  <path d="M 327 67 L 360 67 L 360 116 L 327 116 Z M 327 67 "/>
</clipPath>
<clipPath id="clip5">
  <path d="M 359 48 L 360 48 L 360 55 L 359 55 Z M 359 48 "/>
</clipPath>
<clipPath id="clip6">
  <path d="M 336 55 L 360 55 L 360 76 L 336 76 Z M 336 55 "/>
</clipPath>
<clipPath id="clip7">
  <path d="M 310 85 L 360 85 L 360 154 L 310 154 Z M 310 85 "/>
</clipPath>
<clipPath id="clip8">
  <path d="M 333 0 L 360 0 L 360 53 L 333 53 Z M 333 0 "/>
</clipPath>
<clipPath id="clip9">
  <path d="M 178 228 L 360 228 L 360 360 L 178 360 Z M 178 228 "/>
</clipPath>
</defs>
<g id="surface8666">
<path style="fill-rule:nonzero;fill:rgb(0%,0%,0%);fill-opacity:1;stroke-width:0.03;stroke-linecap:square;stroke-linejoin:miter;stroke:rgb(0%,0%,0%);stroke-opacity:1;stroke-miterlimit:10;" d="M 0 178 L 360 178 L 360 -182 L 0 -182 Z M 0 178 " transform="matrix(1,0,0,1,0,182)"/>
<path style=" stroke:none;fill-rule:nonzero;fill:rgb(39.99939%,39.99939%,39.99939%);fill-opacity:0.3;" d="M -4.867188 326.847656 L -6.425781 322.175781 L -3.632812 321.390625 L 6.710938 322.921875 Z M -4.867188 326.847656 "/>
<path style=" stroke:none;fill-rule:nonzero;fill:rgb(39.99939%,39.99939%,39.99939%);fill-opacity:0.3;" d="M -11.460938 344.800781 L 15.746094 339.148438 L 35.933594 336.210938 L 46.476562 334.917969 L 45.460938 346.40625 L 40.800781 346.988281 L 33.742188 348.003906 L 21.699219 350.027344 L -7.816406 356.0625 Z M -11.460938 344.800781 "/>
<path style=" stroke:none;fill-rule:nonzero;fill:rgb(39.99939%,39.99939%,39.99939%);fill-opacity:0.3;" d="M -13.058594 332.410156 L 13.859375 323.980469 L 43.925781 328.433594 L 30.726562 331.507812 L 8.171875 335.117188 L -10.878906 338.433594 Z M -13.058594 332.410156 "/>
<path style=" stroke:none;fill-rule:nonzero;fill:rgb(39.99939%,39.99939%,39.99939%);fill-opacity:0.3;" d="M 218.320312 209.59375 L 236.984375 204.6875 L 249.132812 251.289062 L 230.460938 256.167969 Z M 218.320312 209.59375 "/>
<path style=" stroke:none;fill-rule:nonzero;fill:rgb(39.99939%,39.99939%,39.99939%);fill-opacity:0.3;" d="M 243.582031 138.171875 L 243.296875 138.304688 L 238.519531 129.910156 L 238.945312 130.074219 L 243.320312 137.578125 Z M 243.582031 138.171875 "/>
<path style=" stroke:none;fill-rule:nonzero;fill:rgb(39.99939%,39.99939%,39.99939%);fill-opacity:0.3;" d="M 244.488281 140.390625 L 244.539062 140.363281 L 244.769531 140.890625 Z M 244.488281 140.390625 "/>
<path style=" stroke:none;fill-rule:nonzero;fill:rgb(39.99939%,39.99939%,39.99939%);fill-opacity:0.3;" d="M 285.730469 244.414062 L 295.222656 241.921875 L 308.570312 265.605469 L 292.925781 271.382812 Z M 285.730469 244.414062 "/>
<path style=" stroke:none;fill-rule:nonzero;fill:rgb(39.99939%,39.99939%,39.99939%);fill-opacity:0.3;" d="M 208.902344 173.460938 L 227.566406 168.554688 L 236.3125 202.101562 L 217.648438 207.007812 Z M 208.902344 173.460938 "/>
<path style=" stroke:none;fill-rule:nonzero;fill:rgb(39.99939%,39.99939%,39.99939%);fill-opacity:0.3;" d="M 224.035156 148.351562 L 240.757812 144.023438 L 255.585938 197.105469 L 238.414062 201.550781 Z M 224.035156 148.351562 "/>
<path style=" stroke:none;fill-rule:nonzero;fill:rgb(39.99939%,39.99939%,39.99939%);fill-opacity:0.3;" d="M 165.15625 250.769531 L 182.246094 246.28125 L 187.757812 267.417969 L 170.304688 272.003906 Z M 165.15625 250.769531 "/>
<path style=" stroke:none;fill-rule:nonzero;fill:rgb(39.99939%,39.99939%,39.99939%);fill-opacity:0.3;" d="M 172.816406 200.535156 L 190.664062 195.84375 L 200.351562 233.007812 L 182.503906 237.703125 Z M 172.816406 200.535156 "/>
<path style=" stroke:none;fill-rule:nonzero;fill:rgb(39.99939%,39.99939%,39.99939%);fill-opacity:0.3;" d="M 184.578125 245.667969 L 202.429688 240.976562 L 207.9375 262.113281 L 190.089844 266.804688 Z M 184.578125 245.667969 "/>
<path style=" stroke:none;fill-rule:nonzero;fill:rgb(39.99939%,39.99939%,39.99939%);fill-opacity:0.3;" d="M 205.644531 240.132812 L 222.792969 235.625 L 228.300781 256.761719 L 211.152344 261.269531 Z M 205.644531 240.132812 "/>
<path style=" stroke:none;fill-rule:nonzero;fill:rgb(39.99939%,39.99939%,39.99939%);fill-opacity:0.3;" d="M 239.085938 204.136719 L 256.679688 199.738281 L 269.492188 245.941406 L 251.234375 250.738281 Z M 239.085938 204.136719 "/>
<path style=" stroke:none;fill-rule:nonzero;fill:rgb(39.99939%,39.99939%,39.99939%);fill-opacity:0.3;" d="M 170.734375 274.632812 L 283.535156 244.992188 L 290.824219 272.273438 L 176.242188 301.84375 Z M 170.734375 274.632812 "/>
<path style=" stroke:none;fill-rule:nonzero;fill:rgb(39.99939%,39.99939%,39.99939%);fill-opacity:0.3;" d="M 261.570312 203.679688 L 271.992188 200.625 L 293.796875 239.554688 L 272.140625 245.246094 Z M 261.570312 203.679688 "/>
<path style=" stroke:none;fill-rule:nonzero;fill:rgb(39.99939%,39.99939%,39.99939%);fill-opacity:0.3;" d="M 154.96875 209.835938 L 171.382812 204.597656 L 180.164062 238.285156 L 162.3125 243.015625 Z M 154.96875 209.835938 "/>
<path style=" stroke:none;fill-rule:nonzero;fill:rgb(39.99939%,39.99939%,39.99939%);fill-opacity:0.3;" d="M 191.457031 185.699219 L 208.605469 181.191406 L 220.714844 227.652344 L 203.566406 232.160156 Z M 191.457031 185.699219 "/>
<path style=" stroke:none;fill-rule:nonzero;fill:rgb(39.99939%,39.99939%,39.99939%);fill-opacity:0.3;" d="M 107.441406 297.257812 L 126.644531 296.980469 L 126.566406 300.6875 L 109.332031 304.777344 Z M 107.441406 297.257812 "/>
<path style=" stroke:none;fill-rule:nonzero;fill:rgb(39.99939%,39.99939%,39.99939%);fill-opacity:0.3;" d="M 89.164062 300.003906 L 51.429688 225.257812 L 148.871094 200.808594 L 169.882812 295.710938 L 169.546875 295.128906 L 155.601562 297.121094 L 141.433594 298.46875 L 126.644531 296.960938 L 107.433594 297.246094 L 104.566406 297.207031 L 97.925781 298.414062 Z M 89.164062 300.003906 "/>
<path style=" stroke:none;fill-rule:nonzero;fill:rgb(39.99939%,39.99939%,39.99939%);fill-opacity:0.3;" d="M 89.164062 300.003906 L 97.925781 298.414062 L 99.902344 302.648438 L 105.847656 301.632812 L 107.023438 305.324219 L 93.34375 308.570312 Z M 89.164062 300.003906 "/>
<path style=" stroke:none;fill-rule:nonzero;fill:rgb(39.99939%,39.99939%,39.99939%);fill-opacity:0.3;" d="M -6.425781 322.175781 L -13.824219 300.015625 L -1.054688 295.964844 L 23.753906 288.09375 L 27.886719 300.265625 L 32.597656 314.140625 L 8.265625 322.394531 L 6.710938 322.921875 L -3.632812 321.390625 Z M -6.425781 322.175781 "/>
<path style=" stroke:none;fill-rule:nonzero;fill:rgb(39.99939%,39.99939%,39.99939%);fill-opacity:0.3;" d="M 182.066406 339.722656 L 181.234375 335.777344 L 180.894531 332.921875 Z M 182.066406 339.722656 "/>
<path style=" stroke:none;fill-rule:nonzero;fill:rgb(39.99939%,39.99939%,39.99939%);fill-opacity:0.3;" d="M 126.566406 300.6875 L 126.269531 314.34375 L 117.140625 314.554688 L 120.578125 346.554688 L 113.144531 342.941406 L 112.050781 320.398438 L 110.882812 320.398438 L 109.714844 320.402344 L 109.960938 343.550781 L 102.097656 338.125 L 99.78125 323.027344 L 98.992188 317.5625 L 112.042969 315.566406 L 109.332031 304.777344 Z M 126.566406 300.6875 "/>
<path style=" stroke:none;fill-rule:nonzero;fill:rgb(39.99939%,39.99939%,39.99939%);fill-opacity:0.3;" d="M 46.722656 280.570312 L 69.289062 274.230469 L 81.449219 298.570312 L 56.234375 306.652344 Z M 46.722656 280.570312 "/>
<path style=" stroke:none;fill-rule:nonzero;fill:rgb(39.99939%,39.99939%,39.99939%);fill-opacity:0.3;" d="M 169.882812 295.710938 L 169.894531 295.765625 L 155.601562 297.121094 L 169.546875 295.128906 Z M 169.882812 295.710938 "/>
<path style=" stroke:none;fill-rule:nonzero;fill:rgb(39.99939%,39.99939%,39.99939%);fill-opacity:0.3;" d="M 56.890625 310.816406 L 82.148438 302.617188 L 88.539062 317.261719 L 62.175781 324.625 Z M 56.890625 310.816406 "/>
<path style=" stroke:none;fill-rule:nonzero;fill:rgb(39.99939%,39.99939%,39.99939%);fill-opacity:0.3;" d="M 107.023438 305.324219 L 109.898438 314.335938 L 96.949219 315.964844 L 93.34375 308.570312 Z M 107.023438 305.324219 "/>
<path style=" stroke:none;fill-rule:nonzero;fill:rgb(39.99939%,39.99939%,39.99939%);fill-opacity:0.3;" d="M 138.921875 303.238281 L 134.835938 352.378906 L 124.402344 347.558594 L 120.542969 318.375 L 129.882812 317.558594 L 128.453125 301.398438 Z M 138.921875 303.238281 "/>
<path style=" stroke:none;fill-rule:nonzero;fill:rgb(39.99939%,39.99939%,39.99939%);fill-opacity:0.3;" d="M 46.476562 334.917969 L 53.046875 334.109375 L 80.292969 329.871094 L 83.9375 329.152344 L 86.9375 326.808594 L 94.109375 318.257812 L 95.871094 333.621094 L 95.417969 342.378906 L 78.296875 343.394531 L 64.9375 344.367188 L 50.191406 345.820312 L 45.460938 346.40625 Z M 46.476562 334.917969 "/>
<g clip-path="url(#clip1)" clip-rule="nonzero">
<path style=" stroke:none;fill-rule:nonzero;fill:rgb(39.99939%,39.99939%,39.99939%);fill-opacity:0.3;" d="M 142.15625 303.804688 L 149.160156 303.628906 L 156.503906 360.808594 L 138.660156 352.980469 Z M 142.15625 303.804688 "/>
</g>
<g clip-path="url(#clip2)" clip-rule="nonzero">
<path style=" stroke:none;fill-rule:nonzero;fill:rgb(39.99939%,39.99939%,39.99939%);fill-opacity:0.3;" d="M 151.230469 303.578125 L 171.53125 303.074219 L 182.421875 371.242188 L 159.265625 361.8125 Z M 151.230469 303.578125 "/>
</g>
<path style=" stroke:none;fill-rule:nonzero;fill:rgb(39.99939%,39.99939%,39.99939%);fill-opacity:0.3;" d="M -25.953125 263.734375 L -8.503906 258.128906 L 1.8125 289.316406 L -15.636719 294.921875 Z M -25.953125 263.734375 "/>
<path style=" stroke:none;fill-rule:nonzero;fill:rgb(39.99939%,39.99939%,39.99939%);fill-opacity:0.3;" d="M -5.558594 257.183594 L 11.816406 251.605469 L 21.730469 282.921875 L 4.757812 288.371094 Z M -5.558594 257.183594 "/>
<path style=" stroke:none;fill-rule:nonzero;fill:rgb(39.99939%,39.99939%,39.99939%);fill-opacity:0.3;" d="M 14.898438 250.613281 L 29.625 245.882812 L 40.433594 276.914062 L 25.214844 281.800781 Z M 14.898438 250.613281 "/>
<path style=" stroke:none;fill-rule:nonzero;fill:rgb(39.99939%,39.99939%,39.99939%);fill-opacity:0.3;" d="M 26.972656 286.910156 L 43.15625 281.714844 L 52.429688 307.914062 L 35.707031 313.292969 Z M 26.972656 286.910156 "/>
<path style=" stroke:none;fill-rule:nonzero;fill:rgb(39.99939%,39.99939%,39.99939%);fill-opacity:0.3;" d="M 13.859375 323.980469 L 54.003906 311.410156 L 59.117188 324.898438 L 43.925781 328.433594 Z M 13.859375 323.980469 "/>
<path style=" stroke:none;fill-rule:nonzero;fill:rgb(39.99939%,39.99939%,39.99939%);fill-opacity:0.3;" d="M 31.5625 238.585938 L 49.867188 232.554688 L 64.503906 269.183594 L 45.570312 275.675781 Z M 31.5625 238.585938 "/>
<path style=" stroke:none;fill-rule:nonzero;fill:rgb(39.99939%,39.99939%,39.99939%);fill-opacity:0.3;" d="M 9.578125 244.019531 L 10.273438 245.3125 L -4.75 248.113281 Z M 9.578125 244.019531 "/>
<path style=" stroke:none;fill-rule:nonzero;fill:rgb(39.99939%,39.99939%,39.99939%);fill-opacity:0.3;" d="M 26.894531 230.550781 L 19.648438 242.90625 L 16.042969 243.941406 L 15.027344 242.09375 Z M 26.894531 230.550781 "/>
<path style=" stroke:none;fill-rule:nonzero;fill:rgb(39.99939%,39.99939%,39.99939%);fill-opacity:0.3;" d="M 273.722656 142.074219 L 285.320312 133.035156 L 303.28125 151.40625 L 285.519531 160.179688 Z M 273.722656 142.074219 "/>
<path style=" stroke:none;fill-rule:nonzero;fill:rgb(39.99939%,39.99939%,39.99939%);fill-opacity:0.3;" d="M 294.292969 93.796875 L 297.257812 91.757812 L 304.15625 99.992188 L 311.046875 108.214844 L 307.5625 110.957031 Z M 294.292969 93.796875 "/>
<path style=" stroke:none;fill-rule:nonzero;fill:rgb(39.99939%,39.99939%,39.99939%);fill-opacity:0.3;" d="M 241.835938 98.347656 L 232.351562 122.484375 L 229.152344 123.488281 L 225.300781 116.824219 Z M 241.835938 98.347656 "/>
<path style=" stroke:none;fill-rule:nonzero;fill:rgb(39.99939%,39.99939%,39.99939%);fill-opacity:0.3;" d="M 241.6875 111.128906 L 247.230469 99.859375 L 255.25 110.527344 L 236.851562 121.441406 Z M 241.6875 111.128906 "/>
<path style=" stroke:none;fill-rule:nonzero;fill:rgb(39.99939%,39.99939%,39.99939%);fill-opacity:0.3;" d="M 252.527344 104.097656 L 272.050781 91.828125 L 276.804688 97.609375 L 256.574219 109.78125 Z M 252.527344 104.097656 "/>
<path style=" stroke:none;fill-rule:nonzero;fill:rgb(39.99939%,39.99939%,39.99939%);fill-opacity:0.3;" d="M 236.257812 72.636719 L 244.496094 69.988281 L 255.910156 73.085938 L 265.1875 76.320312 L 291.023438 88.738281 L 278.976562 96.816406 L 272.453125 89.496094 L 254.019531 101.09375 Z M 236.257812 72.636719 "/>
<path style=" stroke:none;fill-rule:nonzero;fill:rgb(39.99939%,39.99939%,39.99939%);fill-opacity:0.3;" d="M 297.984375 89.71875 L 264.222656 70.355469 L 264.613281 69.597656 L 272.082031 71.933594 L 288.960938 81.933594 L 295.839844 88.1875 Z M 297.984375 89.71875 "/>
<path style=" stroke:none;fill-rule:nonzero;fill:rgb(39.99939%,39.99939%,39.99939%);fill-opacity:0.3;" d="M 334.582031 170.492188 L 339.269531 168.28125 L 351.253906 190.835938 L 347.492188 194.785156 Z M 334.582031 170.492188 "/>
<path style=" stroke:none;fill-rule:nonzero;fill:rgb(39.99939%,39.99939%,39.99939%);fill-opacity:0.3;" d="M 325.75 174.65625 L 332.371094 171.535156 L 345.714844 196.644531 L 340.398438 202.21875 Z M 325.75 174.65625 "/>
<path style=" stroke:none;fill-rule:nonzero;fill:rgb(39.99939%,39.99939%,39.99939%);fill-opacity:0.3;" d="M 318.371094 178.136719 L 324.03125 175.464844 L 339.019531 203.667969 L 334.472656 208.433594 Z M 318.371094 178.136719 "/>
<path style=" stroke:none;fill-rule:nonzero;fill:rgb(39.99939%,39.99939%,39.99939%);fill-opacity:0.3;" d="M 344.574219 200.511719 L 356.804688 201.339844 L 347.878906 206.753906 Z M 344.574219 200.511719 "/>
<path style=" stroke:none;fill-rule:nonzero;fill:rgb(39.99939%,39.99939%,39.99939%);fill-opacity:0.3;" d="M 281.6875 116.933594 L 289.019531 111.164062 L 296.570312 119.601562 L 289.074219 125.1875 Z M 281.6875 116.933594 "/>
<path style=" stroke:none;fill-rule:nonzero;fill:rgb(39.99939%,39.99939%,39.99939%);fill-opacity:0.3;" d="M 291.046875 109.570312 L 298.6875 103.558594 L 306.308594 111.941406 L 298.601562 118.007812 Z M 291.046875 109.570312 "/>
<path style=" stroke:none;fill-rule:nonzero;fill:rgb(39.99939%,39.99939%,39.99939%);fill-opacity:0.3;" d="M 296.769531 124.03125 L 302.835938 119.257812 L 324.171875 141.085938 L 316.933594 144.660156 Z M 296.769531 124.03125 "/>
<path style=" stroke:none;fill-rule:nonzero;fill:rgb(39.99939%,39.99939%,39.99939%);fill-opacity:0.3;" d="M 304.609375 118.097656 L 312.972656 111.28125 L 336.253906 135.117188 L 326.476562 140.09375 Z M 304.609375 118.097656 "/>
<path style=" stroke:none;fill-rule:nonzero;fill:rgb(39.99939%,39.99939%,39.99939%);fill-opacity:0.3;" d="M 285.984375 162.910156 L 293.839844 158.984375 L 306.179688 181.242188 L 297.820312 185.183594 Z M 285.984375 162.910156 "/>
<path style=" stroke:none;fill-rule:nonzero;fill:rgb(39.99939%,39.99939%,39.99939%);fill-opacity:0.3;" d="M 295.820312 158.273438 L 303.691406 154.5625 L 315.53125 176.835938 L 307.65625 180.546875 Z M 295.820312 158.273438 "/>
<path style=" stroke:none;fill-rule:nonzero;fill:rgb(39.99939%,39.99939%,39.99939%);fill-opacity:0.3;" d="M 305.410156 153.753906 L 311.070312 151.082031 L 322.910156 173.355469 L 317.246094 176.023438 Z M 305.410156 153.753906 "/>
<path style=" stroke:none;fill-rule:nonzero;fill:rgb(39.99939%,39.99939%,39.99939%);fill-opacity:0.3;" d="M 312.792969 150.273438 L 319.410156 147.152344 L 331.046875 169.046875 L 324.628906 172.546875 Z M 312.792969 150.273438 "/>
<path style=" stroke:none;fill-rule:nonzero;fill:rgb(39.99939%,39.99939%,39.99939%);fill-opacity:0.3;" d="M 321.621094 146.109375 L 333.550781 139.84375 L 340.617188 156.679688 L 347.742188 161.695312 L 333.460938 168.382812 Z M 321.621094 146.109375 "/>
<path style=" stroke:none;fill-rule:nonzero;fill:rgb(39.99939%,39.99939%,39.99939%);fill-opacity:0.3;" d="M 335.234375 139.429688 L 344.265625 135.09375 L 345.855469 136.328125 L 352.734375 148.832031 L 357.390625 156.984375 L 351.03125 159.777344 L 342.609375 155.644531 Z M 335.234375 139.429688 "/>
<path style=" stroke:none;fill-rule:nonzero;fill:rgb(39.99939%,39.99939%,39.99939%);fill-opacity:0.3;" d="M 341.523438 167.328125 L 350.171875 163.351562 L 359.488281 180.429688 L 352.875 188.746094 Z M 341.523438 167.328125 "/>
<path style=" stroke:none;fill-rule:nonzero;fill:rgb(39.99939%,39.99939%,39.99939%);fill-opacity:0.3;" d="M 308.777344 182.65625 L 316.652344 178.945312 L 333.09375 209.882812 L 326.769531 216.511719 Z M 308.777344 182.65625 "/>
<path style=" stroke:none;fill-rule:nonzero;fill:rgb(39.99939%,39.99939%,39.99939%);fill-opacity:0.3;" d="M 298.941406 187.292969 L 307.300781 183.355469 L 325.585938 217.757812 L 318.871094 224.792969 Z M 298.941406 187.292969 "/>
<path style=" stroke:none;fill-rule:nonzero;fill:rgb(39.99939%,39.99939%,39.99939%);fill-opacity:0.3;" d="M 287.742188 131.128906 L 295.320312 125.167969 L 315.207031 145.515625 L 306.167969 149.980469 Z M 287.742188 131.128906 "/>
<path style=" stroke:none;fill-rule:nonzero;fill:rgb(39.99939%,39.99939%,39.99939%);fill-opacity:0.3;" d="M 296.976562 188.222656 L 317.292969 226.449219 L 311.964844 232.039062 L 290.339844 191.351562 Z M 296.976562 188.222656 "/>
<path style=" stroke:none;fill-rule:nonzero;fill:rgb(39.99939%,39.99939%,39.99939%);fill-opacity:0.3;" d="M 299.796875 239.480469 L 312.429688 233.835938 L 321.71875 253.332031 L 318.414062 255.199219 L 321.164062 260.660156 L 313.210938 265.09375 Z M 299.796875 239.480469 "/>
<path style=" stroke:none;fill-rule:nonzero;fill:rgb(39.99939%,39.99939%,39.99939%);fill-opacity:0.3;" d="M 314.75 231.855469 L 326.035156 219.953125 L 335.828125 237.988281 L 324.035156 250.359375 Z M 314.75 231.855469 "/>
<path style=" stroke:none;fill-rule:nonzero;fill:rgb(39.99939%,39.99939%,39.99939%);fill-opacity:0.3;" d="M 327.882812 218.015625 L 335.789062 209.769531 L 345.328125 228.957031 L 337.613281 235.480469 Z M 327.882812 218.015625 "/>
<path style=" stroke:none;fill-rule:nonzero;fill:rgb(39.99939%,39.99939%,39.99939%);fill-opacity:0.3;" d="M 337.929688 207.480469 L 342.710938 202.464844 L 351.761719 222.257812 L 346.855469 226.917969 Z M 337.929688 207.480469 "/>
<path style=" stroke:none;fill-rule:nonzero;fill:rgb(39.99939%,39.99939%,39.99939%);fill-opacity:0.3;" d="M 278.296875 197.027344 L 287.882812 192.507812 L 309.160156 232.539062 L 298.921875 236.882812 Z M 278.296875 197.027344 "/>
<g clip-path="url(#clip3)" clip-rule="nonzero">
<path style=" stroke:none;fill-rule:nonzero;fill:rgb(39.99939%,39.99939%,39.99939%);fill-opacity:0.3;" d="M 360.679688 204.519531 L 355.515625 189.972656 L 367.691406 177.164062 L 369.195312 179.949219 L 369.613281 181.34375 L 370.902344 183.113281 L 389.929688 218.410156 L 362.277344 236.257812 L 326.976562 257.210938 L 325.058594 252.863281 L 355 222.453125 L 349.292969 211.207031 L 358.53125 206.230469 L 368.347656 224.070312 L 369.691406 223.21875 L 370.785156 222.523438 Z M 360.679688 204.519531 "/>
</g>
<path style=" stroke:none;fill-rule:nonzero;fill:rgb(39.99939%,39.99939%,39.99939%);fill-opacity:0.3;" d="M 265.140625 172.949219 L 274.925781 168.125 L 286.761719 190.398438 L 276.753906 195.0625 Z M 265.140625 172.949219 "/>
<path style=" stroke:none;fill-rule:nonzero;fill:rgb(39.99939%,39.99939%,39.99939%);fill-opacity:0.3;" d="M 252.671875 136.304688 L 261.464844 131.917969 L 266.472656 142.09375 L 258.292969 146.175781 Z M 252.671875 136.304688 "/>
<path style=" stroke:none;fill-rule:nonzero;fill:rgb(39.99939%,39.99939%,39.99939%);fill-opacity:0.3;" d="M 237.589844 128.28125 L 254.871094 119.820312 L 260.960938 130.152344 L 243.582031 138.171875 L 243.320312 137.578125 L 238.945312 130.074219 L 238.519531 129.910156 Z M 237.589844 128.28125 "/>
<path style=" stroke:none;fill-rule:nonzero;fill:rgb(39.99939%,39.99939%,39.99939%);fill-opacity:0.3;" d="M 244.539062 140.363281 L 250.566406 137.359375 L 256.183594 147.226562 L 250.105469 150.261719 L 244.769531 140.890625 Z M 244.539062 140.363281 "/>
<path style=" stroke:none;fill-rule:nonzero;fill:rgb(39.99939%,39.99939%,39.99939%);fill-opacity:0.3;" d="M 251.703125 153.0625 L 257.78125 150.03125 L 268.378906 168.648438 L 261.246094 172.101562 Z M 251.703125 153.0625 "/>
<path style=" stroke:none;fill-rule:nonzero;fill:rgb(39.99939%,39.99939%,39.99939%);fill-opacity:0.3;" d="M 259.886719 148.976562 L 267.890625 144.984375 L 277.351562 164.214844 L 270.492188 167.601562 Z M 259.886719 148.976562 "/>
<path style=" stroke:none;fill-rule:nonzero;fill:rgb(39.99939%,39.99939%,39.99939%);fill-opacity:0.3;" d="M 277.382812 166.964844 L 284.019531 163.839844 L 295.855469 186.109375 L 289.21875 189.238281 Z M 277.382812 166.964844 "/>
<path style=" stroke:none;fill-rule:nonzero;fill:rgb(39.99939%,39.99939%,39.99939%);fill-opacity:0.3;" d="M 266.691406 129.285156 L 280.054688 118.214844 L 287.605469 126.652344 L 271.785156 139.101562 Z M 266.691406 129.285156 "/>
<g clip-path="url(#clip4)" clip-rule="nonzero">
<path style=" stroke:none;fill-rule:nonzero;fill:rgb(39.99939%,39.99939%,39.99939%);fill-opacity:0.3;" d="M 334.78125 67.746094 L 439.359375 99.238281 L 445.046875 97.566406 L 439.375 115.199219 L 421.6875 110.351562 L 327.796875 78.867188 Z M 334.78125 67.746094 "/>
</g>
<path style=" stroke:none;fill-rule:nonzero;fill:rgb(39.99939%,39.99939%,39.99939%);fill-opacity:0.3;" d="M 289.199219 54.339844 L 286.769531 64.222656 L 262.730469 57.53125 L 263.367188 55.71875 L 270.207031 53.800781 L 272.082031 52.550781 L 275.832031 51.300781 Z M 289.199219 54.339844 "/>
<path style=" stroke:none;fill-rule:nonzero;fill:rgb(39.99939%,39.99939%,39.99939%);fill-opacity:0.3;" d="M 264.90625 69.027344 L 272.636719 71.097656 L 272.082031 71.933594 L 264.613281 69.597656 Z M 264.90625 69.027344 "/>
<path style=" stroke:none;fill-rule:nonzero;fill:rgb(39.99939%,39.99939%,39.99939%);fill-opacity:0.3;" d="M 311.707031 57.277344 L 308.832031 69.808594 L 289.261719 64.855469 L 291.503906 55.578125 L 292.714844 56.300781 Z M 311.707031 57.277344 "/>
<g clip-path="url(#clip5)" clip-rule="nonzero">
<path style=" stroke:none;fill-rule:nonzero;fill:rgb(39.99939%,39.99939%,39.99939%);fill-opacity:0.3;" d="M 388.273438 48.8125 L 388.566406 51.085938 L 359.664062 54.839844 L 359.53125 52.902344 L 362.109375 52.550781 Z M 388.273438 48.8125 "/>
</g>
<path style=" stroke:none;fill-rule:nonzero;fill:rgb(39.99939%,39.99939%,39.99939%);fill-opacity:0.3;" d="M 354.730469 53.558594 L 354.855469 55.898438 L 347.476562 54.546875 Z M 354.730469 53.558594 "/>
<g clip-path="url(#clip6)" clip-rule="nonzero">
<path style=" stroke:none;fill-rule:nonzero;fill:rgb(39.99939%,39.99939%,39.99939%);fill-opacity:0.3;" d="M 339.523438 58.242188 L 355.402344 59.820312 L 357.5 59.671875 L 390.765625 55.65625 L 393.476562 74.835938 L 382.351562 75.925781 L 336.796875 63.28125 Z M 339.523438 58.242188 "/>
</g>
<path style=" stroke:none;fill-rule:nonzero;fill:rgb(39.99939%,39.99939%,39.99939%);fill-opacity:0.3;" d="M 318.632812 57.296875 L 334.15625 60.320312 L 324.726562 75.765625 L 311.328125 70.679688 L 314.253906 57.40625 L 317.097656 57.550781 Z M 318.632812 57.296875 "/>
<path style=" stroke:none;fill-rule:nonzero;fill:rgb(39.99939%,39.99939%,39.99939%);fill-opacity:0.3;" d="M 272.636719 71.097656 L 317.097656 83.019531 L 306.347656 94.515625 L 297.984375 89.71875 L 295.839844 88.1875 L 288.960938 81.933594 L 272.082031 71.933594 Z M 272.636719 71.097656 "/>
<path style=" stroke:none;fill-rule:nonzero;fill:rgb(39.99939%,39.99939%,39.99939%);fill-opacity:0.3;" d="M 344.265625 135.09375 L 346.929688 133.8125 L 358.65625 156.429688 L 357.390625 156.984375 L 352.734375 148.832031 L 345.855469 136.328125 Z M 344.265625 135.09375 "/>
<g clip-path="url(#clip7)" clip-rule="nonzero">
<path style=" stroke:none;fill-rule:nonzero;fill:rgb(39.99939%,39.99939%,39.99939%);fill-opacity:0.3;" d="M 310.972656 96.953125 L 322.128906 85.066406 L 411.292969 111.46875 L 408.65625 118.621094 L 375.820312 135.878906 L 378.027344 144.285156 L 369.289062 151.683594 L 361.175781 153.289062 L 348.589844 129.734375 L 326.902344 118.808594 Z M 310.972656 96.953125 "/>
</g>
<path style=" stroke:none;fill-rule:nonzero;fill:rgb(39.99939%,39.99939%,39.99939%);fill-opacity:0.3;" d="M 286.984375 -21.609375 L 286.824219 -20.984375 L 286.613281 -20.308594 L 286.367188 -19.644531 L 286.085938 -18.992188 L 285.765625 -18.355469 L 285.414062 -17.738281 L 285.023438 -17.136719 L 284.605469 -16.554688 L 284.15625 -15.996094 L 283.671875 -15.460938 L 283.164062 -14.949219 L 282.625 -14.460938 L 282.03125 -13.984375 L 177.601562 18.878906 L 176.535156 19.042969 L 173.351562 19.429688 L 170.148438 19.65625 L 166.9375 19.722656 L 163.730469 19.628906 L 160.53125 19.378906 L 157.347656 18.96875 L 154.195312 18.398438 L 151.074219 17.675781 L 63 -7.539062 L 58.539062 -10.03125 L 61.265625 -9.378906 L 64.027344 -8.863281 L 66.816406 -8.488281 L 69.617188 -8.25 L 72.429688 -8.148438 L 75.246094 -8.191406 L 78.054688 -8.371094 L 80.847656 -8.691406 L 83.621094 -9.148438 L 85.890625 -9.628906 L 254.417969 -72.886719 L 254.871094 -73.027344 L 255.535156 -73.203125 L 256.207031 -73.34375 L 256.886719 -73.449219 L 257.570312 -73.523438 L 258.257812 -73.5625 L 258.945312 -73.566406 L 259.632812 -73.539062 L 260.316406 -73.472656 L 260.996094 -73.378906 L 261.671875 -73.246094 L 262.339844 -73.082031 L 262.992188 -72.886719 L 263.636719 -72.65625 L 264.269531 -72.394531 L 264.882812 -72.101562 L 265.484375 -71.78125 L 266.0625 -71.429688 L 266.621094 -71.050781 L 267.160156 -70.644531 L 267.675781 -70.210938 L 268.164062 -69.75 L 268.628906 -69.269531 L 269.066406 -68.765625 L 269.476562 -68.242188 L 286.898438 -27.644531 L 287.054688 -26.957031 L 287.171875 -26.261719 L 287.253906 -25.5625 L 287.296875 -24.859375 L 287.304688 -24.464844 L 287.285156 -23.761719 L 287.226562 -23.058594 L 287.132812 -22.363281 Z M 286.984375 -21.609375 "/>
<path style=" stroke:none;fill-rule:nonzero;fill:rgb(39.99939%,39.99939%,39.99939%);fill-opacity:0.3;" d="M -70.011719 -27.386719 L 13.59375 -3.5625 L 6.898438 14.621094 L -19.339844 18.363281 L -35.558594 20.730469 L -41.492188 16.097656 L -44.316406 14.179688 L -47.03125 12.121094 L -49.628906 9.933594 L -52.101562 7.621094 L -54.445312 5.183594 L -56.648438 2.636719 L -58.710938 -0.015625 L -60.621094 -2.765625 L -62.378906 -5.609375 L -63.976562 -8.535156 L -65.414062 -11.539062 L -66.679688 -14.609375 L -67.777344 -17.734375 L -68.699219 -20.914062 L -69.445312 -24.132812 Z M -70.011719 -27.386719 "/>
<path style=" stroke:none;fill-rule:nonzero;fill:rgb(39.99939%,39.99939%,39.99939%);fill-opacity:0.3;" d="M 19.871094 -1.925781 L 34.011719 1.597656 L 15.261719 12.308594 Z M 19.871094 -1.925781 "/>
<path style=" stroke:none;fill-rule:nonzero;fill:rgb(39.99939%,39.99939%,39.99939%);fill-opacity:0.3;" d="M 266.660156 46.3125 L 289.773438 52.019531 L 289.199219 54.339844 L 275.832031 51.300781 L 272.082031 52.550781 L 270.207031 53.800781 L 263.367188 55.71875 Z M 266.660156 46.3125 "/>
<path style=" stroke:none;fill-rule:nonzero;fill:rgb(39.99939%,39.99939%,39.99939%);fill-opacity:0.3;" d="M 164.503906 29.761719 L 186.71875 27.820312 L 227.820312 35.644531 L 229.375 38.398438 L 222.683594 40.519531 L 223.890625 59.816406 L 163.078125 41.960938 L 162.636719 41.8125 L 162.320312 41.683594 L 162.011719 41.535156 L 161.710938 41.375 L 161.417969 41.199219 L 161.136719 41.011719 L 160.867188 40.808594 L 160.359375 40.359375 L 159.90625 39.867188 L 159.699219 39.605469 L 159.507812 39.332031 L 159.46875 39.269531 L 158.867188 38.070312 L 158.789062 37.84375 L 158.695312 37.53125 L 158.621094 37.210938 L 158.5625 36.886719 L 158.523438 36.558594 L 158.5 36.234375 L 158.496094 35.90625 L 158.511719 35.578125 L 158.542969 35.25 L 158.59375 34.925781 L 158.660156 34.605469 L 158.746094 34.289062 L 158.851562 33.976562 L 158.96875 33.667969 L 159.105469 33.367188 L 159.261719 33.074219 L 159.429688 32.785156 L 159.613281 32.507812 L 159.816406 32.242188 L 160.027344 31.984375 L 160.5 31.503906 L 161.019531 31.074219 L 161.296875 30.878906 L 161.585938 30.695312 L 161.882812 30.527344 L 162.1875 30.375 L 162.5 30.238281 L 162.824219 30.117188 L 163.152344 30.015625 L 163.484375 29.925781 L 163.820312 29.855469 Z M 164.503906 29.761719 "/>
<path style=" stroke:none;fill-rule:nonzero;fill:rgb(39.99939%,39.99939%,39.99939%);fill-opacity:0.3;" d="M 292.394531 51.902344 L 311.832031 56.734375 L 311.707031 57.277344 L 292.714844 56.300781 L 291.503906 55.578125 Z M 292.394531 51.902344 "/>
<path style=" stroke:none;fill-rule:nonzero;fill:rgb(39.99939%,39.99939%,39.99939%);fill-opacity:0.3;" d="M 320.203125 -9.652344 L 330.09375 -12.511719 L 317.9375 49.535156 L 308.929688 47.917969 Z M 320.203125 -9.652344 "/>
<path style=" stroke:none;fill-rule:nonzero;fill:rgb(39.99939%,39.99939%,39.99939%);fill-opacity:0.3;" d="M 324.964844 50.417969 L 323.453125 50.140625 L 325.726562 38.222656 Z M 324.964844 50.417969 "/>
<path style=" stroke:none;fill-rule:nonzero;fill:rgb(39.99939%,39.99939%,39.99939%);fill-opacity:0.3;" d="M 278.472656 2.40625 L 294.96875 -2.363281 L 291.617188 14.75 L 276.414062 12.910156 Z M 278.472656 2.40625 "/>
<path style=" stroke:none;fill-rule:nonzero;fill:rgb(39.99939%,39.99939%,39.99939%);fill-opacity:0.3;" d="M 294.746094 17.273438 L 311.675781 19.46875 L 306.199219 47.425781 L 289.433594 44.417969 Z M 294.746094 17.273438 "/>
<path style=" stroke:none;fill-rule:nonzero;fill:rgb(39.99939%,39.99939%,39.99939%);fill-opacity:0.3;" d="M 298.808594 -3.472656 L 317.207031 -8.789062 L 312.113281 17.230469 L 295.15625 15.179688 Z M 298.808594 -3.472656 "/>
<path style=" stroke:none;fill-rule:nonzero;fill:rgb(39.99939%,39.99939%,39.99939%);fill-opacity:0.3;" d="M 257.070312 8.589844 L 274.835938 3.457031 L 273.0625 12.503906 L 256.691406 10.519531 Z M 257.070312 8.589844 "/>
<path style=" stroke:none;fill-rule:nonzero;fill:rgb(39.99939%,39.99939%,39.99939%);fill-opacity:0.3;" d="M 215.644531 20.558594 L 231.820312 15.886719 L 228.378906 33.457031 L 213.75 30.832031 Z M 215.644531 20.558594 "/>
<path style=" stroke:none;fill-rule:nonzero;fill:rgb(39.99939%,39.99939%,39.99939%);fill-opacity:0.3;" d="M 235.457031 14.835938 L 250.644531 10.445312 L 245.492188 36.773438 L 231.695312 34.050781 Z M 235.457031 14.835938 "/>
<path style=" stroke:none;fill-rule:nonzero;fill:rgb(39.99939%,39.99939%,39.99939%);fill-opacity:0.3;" d="M 256.28125 12.617188 L 272.652344 14.597656 L 267.582031 40.496094 L 251.394531 37.589844 Z M 256.28125 12.617188 "/>
<path style=" stroke:none;fill-rule:nonzero;fill:rgb(39.99939%,39.99939%,39.99939%);fill-opacity:0.3;" d="M 192.992188 27.105469 L 212.984375 21.328125 L 211.214844 30.375 Z M 192.992188 27.105469 "/>
<path style=" stroke:none;fill-rule:nonzero;fill:rgb(39.99939%,39.99939%,39.99939%);fill-opacity:0.3;" d="M 276.003906 15.003906 L 291.207031 16.84375 L 285.929688 43.789062 L 270.898438 41.089844 Z M 276.003906 15.003906 "/>
<path style=" stroke:none;fill-rule:nonzero;fill:rgb(39.99939%,39.99939%,39.99939%);fill-opacity:0.3;" d="M 314.457031 56.484375 L 318.632812 57.296875 L 317.097656 57.550781 L 314.253906 57.40625 Z M 314.457031 56.484375 "/>
<path style=" stroke:none;fill-rule:nonzero;fill:rgb(39.99939%,39.99939%,39.99939%);fill-opacity:0.3;" d="M 159.46875 39.269531 L 159.332031 39.050781 L 159.171875 38.757812 L 159.027344 38.460938 L 158.898438 38.15625 L 158.867188 38.070312 Z M 159.46875 39.269531 "/>
<path style=" stroke:none;fill-rule:nonzero;fill:rgb(39.99939%,39.99939%,39.99939%);fill-opacity:0.3;" d="M 190.640625 56.878906 L 232.519531 68.3125 L 205.324219 82.273438 Z M 190.640625 56.878906 "/>
<path style=" stroke:none;fill-rule:nonzero;fill:rgb(39.99939%,39.99939%,39.99939%);fill-opacity:0.3;" d="M 155.433594 57.964844 L 172.167969 49.347656 L 186.230469 55.359375 L 202.597656 83.671875 L 177.6875 96.460938 Z M 155.433594 57.964844 "/>
<path style=" stroke:none;fill-rule:nonzero;fill:rgb(39.99939%,39.99939%,39.99939%);fill-opacity:0.3;" d="M 51.117188 0.472656 L 90.460938 11.359375 L 96.09375 22.566406 L 28.378906 21.246094 L 37.828125 12.542969 Z M 51.117188 0.472656 "/>
<path style=" stroke:none;fill-rule:nonzero;fill:rgb(39.99939%,39.99939%,39.99939%);fill-opacity:0.3;" d="M 33.554688 28.617188 L 64.914062 28.769531 L 95.460938 81.605469 L 71.710938 93.828125 Z M 33.554688 28.617188 "/>
<path style=" stroke:none;fill-rule:nonzero;fill:rgb(39.99939%,39.99939%,39.99939%);fill-opacity:0.3;" d="M 104.222656 28.027344 L 162.984375 46.84375 L 126.085938 65.839844 Z M 104.222656 28.027344 "/>
<path style=" stroke:none;fill-rule:nonzero;fill:rgb(39.99939%,39.99939%,39.99939%);fill-opacity:0.3;" d="M 71.539062 28.820312 L 99.367188 28.019531 L 122.347656 67.761719 L 100.542969 78.984375 Z M 71.539062 28.820312 "/>
<path style=" stroke:none;fill-rule:nonzero;fill:rgb(39.99939%,39.99939%,39.99939%);fill-opacity:0.3;" d="M 154.339844 114.707031 L 176.753906 103.195312 L 196.824219 137.914062 L 173.769531 148.316406 Z M 154.339844 114.707031 "/>
<path style=" stroke:none;fill-rule:nonzero;fill:rgb(39.99939%,39.99939%,39.99939%);fill-opacity:0.3;" d="M 180.476562 101.285156 L 205.386719 88.492188 L 226.277344 124.625 L 200.65625 136.1875 Z M 180.476562 101.285156 "/>
<path style=" stroke:none;fill-rule:nonzero;fill:rgb(39.99939%,39.99939%,39.99939%);fill-opacity:0.3;" d="M 208.109375 87.09375 L 232.613281 74.511719 L 243.710938 93.570312 L 241.835938 98.347656 L 225.300781 116.824219 Z M 208.109375 87.09375 "/>
<path style=" stroke:none;fill-rule:nonzero;fill:rgb(39.99939%,39.99939%,39.99939%);fill-opacity:0.3;" d="M 70.277344 101.796875 L 92.4375 140.226562 L 69.578125 151.960938 L 47.890625 113.320312 Z M 70.277344 101.796875 "/>
<path style=" stroke:none;fill-rule:nonzero;fill:rgb(39.99939%,39.99939%,39.99939%);fill-opacity:0.3;" d="M 129.308594 71.414062 L 151.710938 59.878906 L 173.964844 98.371094 L 151.546875 109.878906 Z M 129.308594 71.414062 "/>
<path style=" stroke:none;fill-rule:nonzero;fill:rgb(39.99939%,39.99939%,39.99939%);fill-opacity:0.3;" d="M 125.570312 73.335938 L 147.804688 111.800781 L 125.992188 123 L 103.765625 84.558594 Z M 125.570312 73.335938 "/>
<path style=" stroke:none;fill-rule:nonzero;fill:rgb(39.99939%,39.99939%,39.99939%);fill-opacity:0.3;" d="M 98.683594 87.175781 L 120.902344 125.609375 L 97.371094 137.691406 L 74.960938 99.386719 Z M 98.683594 87.175781 "/>
<path style=" stroke:none;fill-rule:nonzero;fill:rgb(39.99939%,39.99939%,39.99939%);fill-opacity:0.3;" d="M 95.226562 145.0625 L 117.625 183.902344 L 92 191.90625 L 72.3125 156.828125 Z M 95.226562 145.0625 "/>
<path style=" stroke:none;fill-rule:nonzero;fill:rgb(39.99939%,39.99939%,39.99939%);fill-opacity:0.3;" d="M 100.191406 142.511719 L 123.695312 130.441406 L 148.949219 174.121094 L 123.359375 182.113281 Z M 100.191406 142.511719 "/>
<path style=" stroke:none;fill-rule:nonzero;fill:rgb(39.99939%,39.99939%,39.99939%);fill-opacity:0.3;" d="M 128.785156 127.828125 L 150.597656 116.628906 L 170.769531 150.242188 L 153.738281 170.984375 Z M 128.785156 127.828125 "/>
<path style=" stroke:none;fill-rule:nonzero;fill:rgb(39.99939%,39.99939%,39.99939%);fill-opacity:0.3;" d="M 27.992188 28.472656 L 67.0625 96.222656 L 44.742188 107.710938 L 0.847656 29.507812 Z M 27.992188 28.472656 "/>
<path style=" stroke:none;fill-rule:nonzero;fill:rgb(39.99939%,39.99939%,39.99939%);fill-opacity:0.3;" d="M 45.820312 170.433594 L 68.527344 158.773438 L 87.972656 193.167969 L 63.023438 201.085938 Z M 45.820312 170.433594 "/>
<path style=" stroke:none;fill-rule:nonzero;fill:rgb(39.99939%,39.99939%,39.99939%);fill-opacity:0.3;" d="M 21.414062 126.953125 L 43.878906 115.386719 L 65.777344 153.910156 L 43.085938 165.5625 Z M 21.414062 126.953125 "/>
<path style=" stroke:none;fill-rule:nonzero;fill:rgb(39.99939%,39.99939%,39.99939%);fill-opacity:0.3;" d="M -28.589844 41.34375 L -4.792969 29.09375 L 17.296875 68.160156 L -6.117188 80.210938 Z M -28.589844 41.34375 "/>
<path style=" stroke:none;fill-rule:nonzero;fill:rgb(39.99939%,39.99939%,39.99939%);fill-opacity:0.3;" d="M -32.851562 154.886719 L -10.507812 143.382812 L 11.90625 181.566406 L -11.597656 193.632812 Z M -32.851562 154.886719 "/>
<path style=" stroke:none;fill-rule:nonzero;fill:rgb(39.99939%,39.99939%,39.99939%);fill-opacity:0.3;" d="M -6.144531 141.136719 L 17.53125 128.949219 L 39.199219 167.554688 L 15.960938 179.484375 Z M -6.144531 141.136719 "/>
<path style=" stroke:none;fill-rule:nonzero;fill:rgb(39.99939%,39.99939%,39.99939%);fill-opacity:0.3;" d="M 1.691406 129.941406 L -9.488281 135.695312 L -17.8125 121.246094 L -30.265625 99.289062 L 20.207031 73.308594 L 32.167969 94.78125 L 40.695312 109.867188 Z M 1.691406 129.941406 "/>
<path style=" stroke:none;fill-rule:nonzero;fill:rgb(39.99939%,39.99939%,39.99939%);fill-opacity:0.3;" d="M 18.753906 184.332031 L 41.429688 172.6875 L 58.777344 202.433594 L 37.285156 216.476562 Z M 18.753906 184.332031 "/>
<path style=" stroke:none;fill-rule:nonzero;fill:rgb(39.99939%,39.99939%,39.99939%);fill-opacity:0.3;" d="M -36.703125 212.8125 L -13.59375 200.945312 L 9.578125 244.019531 L -4.75 248.113281 L -15.171875 250.054688 Z M -36.703125 212.8125 "/>
<path style=" stroke:none;fill-rule:nonzero;fill:rgb(39.99939%,39.99939%,39.99939%);fill-opacity:0.3;" d="M -8.90625 198.539062 L 14.738281 186.394531 L 33.773438 218.824219 L 26.894531 230.550781 L 15.027344 242.09375 Z M -8.90625 198.539062 "/>
<g clip-path="url(#clip8)" clip-rule="nonzero">
<path style=" stroke:none;fill-rule:nonzero;fill:rgb(39.99939%,39.99939%,39.99939%);fill-opacity:0.3;" d="M 355.730469 -2.628906 L 333.671875 -14.964844 L 349.460938 -19.511719 L 382.84375 -20.050781 L 383.148438 8.683594 L 388.273438 48.8125 L 362.109375 52.550781 L 359.53125 52.902344 Z M 355.730469 -2.628906 "/>
</g>
<path style=" stroke:none;fill-rule:nonzero;fill:rgb(39.99939%,39.99939%,39.99939%);fill-opacity:0.3;" d="M 334.792969 -9.25 L 351.910156 -0.300781 L 354.730469 53.558594 L 347.476562 54.546875 L 324.964844 50.417969 L 325.726562 38.222656 Z M 334.792969 -9.25 "/>
<g clip-path="url(#clip9)" clip-rule="nonzero">
<path style=" stroke:none;fill-rule:nonzero;fill:rgb(39.99939%,39.99939%,39.99939%);fill-opacity:0.3;" d="M 414.261719 260.628906 L 408.835938 266.050781 L 405.140625 271.265625 L 401.738281 276.65625 L 398.640625 282.207031 L 395.851562 287.902344 L 393.378906 293.730469 L 391.234375 299.671875 L 389.417969 305.710938 L 387.9375 311.835938 L 387.460938 314.207031 L 330.59375 343.097656 L 331.601562 346.539062 L 332.605469 349.976562 L 387.039062 324.574219 L 391.066406 343.070312 L 390.289062 355.707031 L 369.289062 367.117188 L 344.539062 380.429688 L 313.039062 396.125 L 288.136719 398.980469 L 253.613281 396.648438 L 224.582031 388.382812 L 189.289062 373.957031 L 182.066406 339.722656 L 180.894531 332.921875 L 178.269531 310.890625 L 273.207031 287.800781 L 307.507812 278.472656 L 339.839844 260.324219 L 391.898438 228.917969 Z M 414.261719 260.628906 "/>
</g>
<path style="fill-rule:nonzero;fill:rgb(39.99939%,39.99939%,39.99939%);fill-opacity:1;stroke-width:0.03;stroke-linecap:square;stroke-linejoin:miter;stroke:rgb(39.99939%,39.99939%,39.99939%);stroke-opacity:1;stroke-miterlimit:3.239307;" d="M 292.320312 222.59375 L 310.984375 217.6875 L 323.132812 264.289062 L 304.460938 269.167969 Z M 292.320312 222.59375 " transform="matrix(1,0,0,1,-74,-13)"/>
<path style="fill-rule:nonzero;fill:rgb(39.99939%,39.99939%,39.99939%);fill-opacity:1;stroke-width:0.03;stroke-linecap:square;stroke-linejoin:miter;stroke:rgb(39.99939%,39.99939%,39.99939%);stroke-opacity:1;stroke-miterlimit:3.239307;" d="M 317.582031 151.171875 L 317.296875 151.304688 L 312.519531 142.910156 L 312.945312 143.074219 L 317.320312 150.578125 Z M 317.582031 151.171875 " transform="matrix(1,0,0,1,-74,-13)"/>
<path style="fill-rule:nonzero;fill:rgb(39.99939%,39.99939%,39.99939%);fill-opacity:1;stroke-width:0.03;stroke-linecap:square;stroke-linejoin:miter;stroke:rgb(39.99939%,39.99939%,39.99939%);stroke-opacity:1;stroke-miterlimit:3.239307;" d="M 318.488281 153.390625 L 318.539062 153.363281 L 318.769531 153.890625 Z M 318.488281 153.390625 " transform="matrix(1,0,0,1,-74,-13)"/>
<path style="fill-rule:nonzero;fill:rgb(39.99939%,39.99939%,39.99939%);fill-opacity:1;stroke-width:0.03;stroke-linecap:square;stroke-linejoin:miter;stroke:rgb(39.99939%,39.99939%,39.99939%);stroke-opacity:1;stroke-miterlimit:3.239307;" d="M 359.730469 257.414062 L 369.222656 254.921875 L 382.570312 278.605469 L 366.925781 284.382812 Z M 359.730469 257.414062 " transform="matrix(1,0,0,1,-74,-13)"/>
<path style="fill-rule:nonzero;fill:rgb(39.99939%,39.99939%,39.99939%);fill-opacity:1;stroke-width:0.03;stroke-linecap:square;stroke-linejoin:miter;stroke:rgb(39.99939%,39.99939%,39.99939%);stroke-opacity:1;stroke-miterlimit:3.239307;" d="M 282.902344 186.460938 L 301.566406 181.554688 L 310.3125 215.101562 L 291.648438 220.007812 Z M 282.902344 186.460938 " transform="matrix(1,0,0,1,-74,-13)"/>
<path style="fill-rule:nonzero;fill:rgb(39.99939%,39.99939%,39.99939%);fill-opacity:1;stroke-width:0.03;stroke-linecap:square;stroke-linejoin:miter;stroke:rgb(39.99939%,39.99939%,39.99939%);stroke-opacity:1;stroke-miterlimit:3.239307;" d="M 298.035156 161.351562 L 314.757812 157.023438 L 329.585938 210.105469 L 312.414062 214.550781 Z M 298.035156 161.351562 " transform="matrix(1,0,0,1,-74,-13)"/>
<path style="fill-rule:nonzero;fill:rgb(39.99939%,39.99939%,39.99939%);fill-opacity:1;stroke-width:0.03;stroke-linecap:square;stroke-linejoin:miter;stroke:rgb(39.99939%,39.99939%,39.99939%);stroke-opacity:1;stroke-miterlimit:3.239307;" d="M 239.15625 263.769531 L 256.246094 259.28125 L 261.757812 280.417969 L 244.304688 285.003906 Z M 239.15625 263.769531 " transform="matrix(1,0,0,1,-74,-13)"/>
<path style="fill-rule:nonzero;fill:rgb(39.99939%,39.99939%,39.99939%);fill-opacity:1;stroke-width:0.03;stroke-linecap:square;stroke-linejoin:miter;stroke:rgb(39.99939%,39.99939%,39.99939%);stroke-opacity:1;stroke-miterlimit:3.239307;" d="M 246.816406 213.535156 L 264.664062 208.84375 L 274.351562 246.007812 L 256.503906 250.703125 Z M 246.816406 213.535156 " transform="matrix(1,0,0,1,-74,-13)"/>
<path style="fill-rule:nonzero;fill:rgb(39.99939%,39.99939%,39.99939%);fill-opacity:1;stroke-width:0.03;stroke-linecap:square;stroke-linejoin:miter;stroke:rgb(39.99939%,39.99939%,39.99939%);stroke-opacity:1;stroke-miterlimit:3.239307;" d="M 258.578125 258.667969 L 276.429688 253.976562 L 281.9375 275.113281 L 264.089844 279.804688 Z M 258.578125 258.667969 " transform="matrix(1,0,0,1,-74,-13)"/>
<path style="fill-rule:nonzero;fill:rgb(39.99939%,39.99939%,39.99939%);fill-opacity:1;stroke-width:0.03;stroke-linecap:square;stroke-linejoin:miter;stroke:rgb(39.99939%,39.99939%,39.99939%);stroke-opacity:1;stroke-miterlimit:3.239307;" d="M 279.644531 253.132812 L 296.792969 248.625 L 302.300781 269.761719 L 285.152344 274.269531 Z M 279.644531 253.132812 " transform="matrix(1,0,0,1,-74,-13)"/>
<path style="fill-rule:nonzero;fill:rgb(39.99939%,39.99939%,39.99939%);fill-opacity:1;stroke-width:0.03;stroke-linecap:square;stroke-linejoin:miter;stroke:rgb(39.99939%,39.99939%,39.99939%);stroke-opacity:1;stroke-miterlimit:3.239307;" d="M 313.085938 217.136719 L 330.679688 212.738281 L 343.492188 258.941406 L 325.234375 263.738281 Z M 313.085938 217.136719 " transform="matrix(1,0,0,1,-74,-13)"/>
<path style="fill-rule:nonzero;fill:rgb(39.99939%,39.99939%,39.99939%);fill-opacity:1;stroke-width:0.03;stroke-linecap:square;stroke-linejoin:miter;stroke:rgb(39.99939%,39.99939%,39.99939%);stroke-opacity:1;stroke-miterlimit:3.239307;" d="M 244.734375 287.632812 L 357.535156 257.992188 L 364.824219 285.273438 L 250.242188 314.84375 Z M 244.734375 287.632812 " transform="matrix(1,0,0,1,-74,-13)"/>
<path style="fill-rule:nonzero;fill:rgb(39.99939%,39.99939%,39.99939%);fill-opacity:1;stroke-width:0.03;stroke-linecap:square;stroke-linejoin:miter;stroke:rgb(39.99939%,39.99939%,39.99939%);stroke-opacity:1;stroke-miterlimit:3.239307;" d="M 335.570312 216.679688 L 345.992188 213.625 L 367.796875 252.554688 L 346.140625 258.246094 Z M 335.570312 216.679688 " transform="matrix(1,0,0,1,-74,-13)"/>
<path style="fill-rule:nonzero;fill:rgb(39.99939%,39.99939%,39.99939%);fill-opacity:1;stroke-width:0.03;stroke-linecap:square;stroke-linejoin:miter;stroke:rgb(39.99939%,39.99939%,39.99939%);stroke-opacity:1;stroke-miterlimit:3.239307;" d="M 228.96875 222.835938 L 245.382812 217.597656 L 254.164062 251.285156 L 236.3125 256.015625 Z M 228.96875 222.835938 " transform="matrix(1,0,0,1,-74,-13)"/>
<path style="fill-rule:nonzero;fill:rgb(39.99939%,39.99939%,39.99939%);fill-opacity:1;stroke-width:0.03;stroke-linecap:square;stroke-linejoin:miter;stroke:rgb(39.99939%,39.99939%,39.99939%);stroke-opacity:1;stroke-miterlimit:3.239307;" d="M 265.457031 198.699219 L 282.605469 194.191406 L 294.714844 240.652344 L 277.566406 245.160156 Z M 265.457031 198.699219 " transform="matrix(1,0,0,1,-74,-13)"/>
<path style="fill-rule:nonzero;fill:rgb(39.99939%,39.99939%,39.99939%);fill-opacity:1;stroke-width:0.03;stroke-linecap:square;stroke-linejoin:miter;stroke:rgb(39.99939%,39.99939%,39.99939%);stroke-opacity:1;stroke-miterlimit:3.239307;" d="M 181.441406 310.257812 L 200.644531 309.980469 L 200.566406 313.6875 L 183.332031 317.777344 Z M 181.441406 310.257812 " transform="matrix(1,0,0,1,-74,-13)"/>
<path style="fill-rule:nonzero;fill:rgb(39.99939%,39.99939%,39.99939%);fill-opacity:1;stroke-width:0.03;stroke-linecap:square;stroke-linejoin:miter;stroke:rgb(39.99939%,39.99939%,39.99939%);stroke-opacity:1;stroke-miterlimit:3.239307;" d="M 163.164062 313.003906 L 125.429688 238.257812 L 222.871094 213.808594 L 243.882812 308.710938 L 243.546875 308.128906 L 229.601562 310.121094 L 215.433594 311.46875 L 200.644531 309.960938 L 181.433594 310.246094 L 178.566406 310.207031 L 171.925781 311.414062 Z M 163.164062 313.003906 " transform="matrix(1,0,0,1,-74,-13)"/>
<path style="fill-rule:nonzero;fill:rgb(39.99939%,39.99939%,39.99939%);fill-opacity:1;stroke-width:0.03;stroke-linecap:square;stroke-linejoin:miter;stroke:rgb(39.99939%,39.99939%,39.99939%);stroke-opacity:1;stroke-miterlimit:3.239307;" d="M 163.164062 313.003906 L 171.925781 311.414062 L 173.902344 315.648438 L 179.847656 314.632812 L 181.023438 318.324219 L 167.34375 321.570312 Z M 163.164062 313.003906 " transform="matrix(1,0,0,1,-74,-13)"/>
</g>
</svg>
