<?xml version="1.0" encoding="UTF-8"?>
<svg xmlns="http://www.w3.org/2000/svg" xmlns:xlink="http://www.w3.org/1999/xlink" width="361pt" height="361pt" viewBox="0 0 361 361" version="1.1">
<defs>
<clipPath id="clip1">
  <path d="M 292 305 L 342 305 L 342 360 L 292 360 Z M 292 305 "/>
</clipPath>
<clipPath id="clip2">
  <path d="M 359 330 L 360 330 L 360 339 L 359 339 Z M 359 330 "/>
</clipPath>
<clipPath id="clip3">
  <path d="M 327 340 L 360 340 L 360 360 L 327 360 Z M 327 340 "/>
</clipPath>
<clipPath id="clip4">
  <path d="M 357 337 L 360 337 L 360 347 L 357 347 Z M 357 337 "/>
</clipPath>
<clipPath id="clip5">
  <path d="M 346 319 L 360 319 L 360 344 L 346 344 Z M 346 319 "/>
</clipPath>
<clipPath id="clip6">
  <path d="M 323 306 L 360 306 L 360 324 L 323 324 Z M 323 306 "/>
</clipPath>
<clipPath id="clip7">
  <path d="M 357 312 L 360 312 L 360 315 L 357 315 Z M 357 312 "/>
</clipPath>
<clipPath id="clip8">
  <path d="M 355 0 L 360 0 L 360 360 L 355 360 Z M 355 0 "/>
</clipPath>
<clipPath id="clip9">
  <path d="M 273 336 L 297 336 L 297 360 L 273 360 Z M 273 336 "/>
</clipPath>
<clipPath id="clip10">
  <path d="M 0 334 L 22 334 L 22 360 L 0 360 Z M 0 334 "/>
</clipPath>
<clipPath id="clip11">
  <path d="M 19 331 L 47 331 L 47 360 L 19 360 Z M 19 331 "/>
</clipPath>
<clipPath id="clip12">
  <path d="M 44 330 L 71 330 L 71 360 L 44 360 Z M 44 330 "/>
</clipPath>
<clipPath id="clip13">
  <path d="M 70 328 L 96 328 L 96 360 L 70 360 Z M 70 328 "/>
</clipPath>
<clipPath id="clip14">
  <path d="M 95 327 L 120 327 L 120 360 L 95 360 Z M 95 327 "/>
</clipPath>
<clipPath id="clip15">
  <path d="M 120 324 L 147 324 L 147 360 L 120 360 Z M 120 324 "/>
</clipPath>
<clipPath id="clip16">
  <path d="M 144 322 L 171 322 L 171 360 L 144 360 Z M 144 322 "/>
</clipPath>
<clipPath id="clip17">
  <path d="M 169 320 L 196 320 L 196 360 L 169 360 Z M 169 320 "/>
</clipPath>
<clipPath id="clip18">
  <path d="M 220 317 L 248 317 L 248 360 L 220 360 Z M 220 317 "/>
</clipPath>
<clipPath id="clip19">
  <path d="M 194 318 L 223 318 L 223 360 L 194 360 Z M 194 318 "/>
</clipPath>
<clipPath id="clip20">
  <path d="M 245 317 L 273 317 L 273 360 L 245 360 Z M 245 317 "/>
</clipPath>
<clipPath id="clip21">
  <path d="M 299 357 L 308 357 L 308 360 L 299 360 Z M 299 357 "/>
</clipPath>
<clipPath id="clip22">
  <path d="M 346 250 L 360 250 L 360 261 L 346 261 Z M 346 250 "/>
</clipPath>
<clipPath id="clip23">
  <path d="M 352 78 L 360 78 L 360 131 L 352 131 Z M 352 78 "/>
</clipPath>
<clipPath id="clip24">
  <path d="M 351 290 L 360 290 L 360 314 L 351 314 Z M 351 290 "/>
</clipPath>
<clipPath id="clip25">
  <path d="M 352 286 L 360 286 L 360 298 L 352 298 Z M 352 286 "/>
</clipPath>
<clipPath id="clip26">
  <path d="M 354 263 L 360 263 L 360 275 L 354 275 Z M 354 263 "/>
</clipPath>
<clipPath id="clip27">
  <path d="M 304 137 L 360 137 L 360 261 L 304 261 Z M 304 137 "/>
</clipPath>
<clipPath id="clip28">
  <path d="M 323 43 L 360 43 L 360 60 L 323 60 Z M 323 43 "/>
</clipPath>
<clipPath id="clip29">
  <path d="M 355 0 L 360 0 L 360 11 L 355 11 Z M 355 0 "/>
</clipPath>
<clipPath id="clip30">
  <path d="M 342 17 L 360 17 L 360 45 L 342 45 Z M 342 17 "/>
</clipPath>
<clipPath id="clip31">
  <path d="M 263 351 L 295 351 L 295 360 L 263 360 Z M 263 351 "/>
</clipPath>
</defs>
<g id="surface1302">
<path style="fill-rule:nonzero;fill:rgb(0%,0%,0%);fill-opacity:1;stroke-width:0.03;stroke-linecap:square;stroke-linejoin:miter;stroke:rgb(0%,0%,0%);stroke-opacity:1;stroke-miterlimit:10;" d="M 0 178 L 360 178 L 360 -182 L 0 -182 Z M 0 178 " transform="matrix(1,0,0,1,0,182)"/>
<path style=" stroke:none;fill-rule:nonzero;fill:rgb(39.99939%,39.99939%,39.99939%);fill-opacity:0.3;" d="M 97.046875 -51.617188 L 97.582031 -44.414062 L 98.964844 5.757812 L 97.609375 13.230469 L 91.859375 19.695312 L 79.296875 24.183594 L 73.273438 22.949219 L 71.695312 18.730469 L 66.367188 -38.867188 L 70.199219 -43.261719 L 74.125 -46.511719 L 78.621094 -49.765625 L 83.5 -52.207031 L 88.171875 -53.457031 L 92.035156 -53.769531 L 95.253906 -52.855469 Z M 97.046875 -51.617188 "/>
<path style=" stroke:none;fill-rule:nonzero;fill:rgb(39.99939%,39.99939%,39.99939%);fill-opacity:0.3;" d="M 129.777344 -64.878906 L 129.980469 -61.292969 L 130.007812 -52.09375 L 130.054688 -44.242188 L 130.046875 -33.960938 L 129.933594 -28.097656 L 130.152344 -18.535156 L 129.851562 -13.210938 L 130.152344 -8.789062 L 130.503906 -6.445312 L 130.234375 -2.566406 L 128.496094 3.003906 L 123.003906 9.472656 L 116.523438 14.179688 L 111.546875 14.929688 L 106.773438 12.96875 L 104.675781 9.992188 L 102.367188 4.261719 L 101.503906 -48.890625 L 103.058594 -60.566406 L 106.453125 -65.539062 L 111.949219 -67.285156 L 117.726562 -68.589844 L 124.796875 -69.589844 L 128.203125 -68.355469 Z M 129.777344 -64.878906 "/>
<path style=" stroke:none;fill-rule:nonzero;fill:rgb(39.99939%,39.99939%,39.99939%);fill-opacity:0.3;" d="M 176.445312 21.855469 L 165.777344 -11.382812 L 164.851562 -16.511719 L 161.992188 -26.664062 L 161.863281 -31.601562 L 162.21875 -37.457031 L 162.214844 -40.671875 L 162.574219 -42.738281 L 163.414062 -47.789062 L 163.769531 -52.496094 L 165.6875 -63.746094 L 173.738281 -75.066406 L 178.398438 -80.929688 L 183.257812 -86.351562 L 186.75 -90.550781 L 190.257812 -93.886719 L 195.082031 -97.847656 L 198.589844 -102.226562 L 201.605469 -106.5 L 205.832031 -112.058594 L 208.460938 -115.394531 L 212.109375 -119.632812 L 213.765625 -122.023438 L 215.738281 -124.523438 L 217.5 -125.40625 L 219.695312 -126.453125 L 221.449219 -126.664062 L 223.867188 -125.625 L 226.28125 -124.378906 L 227.164062 -123.339844 L 227.160156 -122.457031 L 226.285156 -118.292969 L 226.070312 -115.167969 L 225.199219 -111.417969 L 222.582031 -99.128906 L 217.996094 -85.21875 L 212.96875 -72.300781 L 208.726562 -61.421875 L 206.433594 -49.542969 L 206.070312 -33.640625 L 206.328125 -19.96875 L 207.644531 2.761719 L 208.050781 14.871094 L 209.410156 22.910156 L 210.382812 28.9375 L 209.410156 35.332031 L 202.671875 40.09375 L 191.3125 42.851562 L 185.140625 40.117188 L 180.894531 33.359375 Z M 176.445312 21.855469 "/>
<path style=" stroke:none;fill-rule:nonzero;fill:rgb(39.99939%,39.99939%,39.99939%);fill-opacity:0.3;" d="M 212.574219 -61.269531 L 240.28125 -49.953125 L 239.804688 -45.917969 L 238.3125 -41.195312 L 237.515625 -24.832031 L 244.699219 23.867188 L 243.761719 27.300781 L 243.734375 27.347656 L 241.144531 28.808594 L 221.125 33.503906 L 219.058594 32.949219 L 217.320312 31.671875 L 214.792969 28.085938 L 213.84375 23.632812 L 210.332031 -5.101562 L 209.34375 -29.46875 L 209.714844 -43.515625 L 211.429688 -53.957031 Z M 212.574219 -61.269531 "/>
<path style=" stroke:none;fill-rule:nonzero;fill:rgb(39.99939%,39.99939%,39.99939%);fill-opacity:0.3;" d="M -89.613281 -1.722656 L -88.246094 -2.035156 L -82.242188 -3.140625 L -77.542969 -4.863281 L -74.464844 -6.363281 L -68.269531 -9.699219 L -65.960938 -10.945312 L -62.035156 -11.9375 L -57.914062 -12.929688 L -55.398438 -16.382812 L -53.628906 -18.507812 L -52.089844 -20.664062 L -51.128906 -22.308594 L -50.015625 -23.738281 L -48.054688 -25.605469 L -47.324219 -26.699219 L -45.9375 -27.871094 L -44.054688 -30.285156 L -42.632812 -32.902344 L -39.59375 -35.464844 L -37.207031 -36.597656 L -33.855469 -37.902344 L -27.964844 -37.738281 L -22.742188 -35.390625 L -17.253906 -35.605469 L -11.363281 -35.875 L -6.667969 -38.804688 L -1.972656 -40.929688 L 1.375 -42.503906 L 5.765625 -44.519531 L 10.152344 -46.316406 L 16.136719 -49.660156 L 20.871094 -51.566406 L 24.574219 -53.96875 L 32.609375 -58.792969 L 34.796875 -64.972656 L 41.183594 -61.265625 L 50.570312 -45.484375 L 34.554688 -37.132812 L 17.878906 -29.824219 L 0.988281 -20.429688 L -5.59375 -19.171875 L -21.277344 -16.386719 L -29.632812 -15.996094 L -38.378906 -11.644531 L -54.46875 0.828125 L -64.230469 4.179688 L -71.222656 5.96875 L -77.535156 8.566406 L -85.039062 12.300781 L -93.90625 16.84375 L -98.851562 19.929688 L -102.097656 21.90625 L -106.183594 24.632812 L -108.746094 26.773438 L -110.03125 28.242188 L -111.746094 11.09375 L -105.464844 7.167969 L -103.238281 6.222656 L -99.46875 4.242188 L -98.941406 3.808594 L -89.792969 -0.882812 Z M -89.613281 -1.722656 "/>
<path style=" stroke:none;fill-rule:nonzero;fill:rgb(39.99939%,39.99939%,39.99939%);fill-opacity:0.3;" d="M 158.046875 2.355469 L 164.660156 -0.242188 L 166.183594 5.261719 Z M 158.046875 2.355469 "/>
<path style=" stroke:none;fill-rule:nonzero;fill:rgb(39.99939%,39.99939%,39.99939%);fill-opacity:0.3;" d="M 187.597656 46.1875 L 193.457031 46.621094 L 192.011719 47.015625 Z M 187.597656 46.1875 "/>
<path style=" stroke:none;fill-rule:nonzero;fill:rgb(39.99939%,39.99939%,39.99939%);fill-opacity:0.3;" d="M -24.792969 -5.660156 L -23.75 -8.148438 L -22.707031 -9.886719 L -20.351562 -10.882812 L -3.089844 -13.46875 L -0.777344 -13.203125 L 0 -13.023438 L 0.761719 -12.664062 L 1.851562 -8.902344 L 2.136719 -5.199219 L 3.808594 7.484375 L 6.363281 37.375 L 7.488281 42.929688 L 8.332031 47.425781 L 9.730469 49.804688 L 10.570312 52.714844 L 11.691406 55.359375 L 13.371094 60.382812 L 11.984375 65.148438 L 8.644531 69.648438 L 4.746094 73.359375 L 0.5625 74.15625 L -3.34375 74.164062 L -8.085938 72.050781 L -10.042969 69.144531 L -12.5625 63.328125 L -14.519531 59.890625 L -16.199219 56.191406 L -18.160156 51.429688 L -20.121094 43.761719 L -20.976562 33.179688 Z M -24.792969 -5.660156 "/>
<path style=" stroke:none;fill-rule:nonzero;fill:rgb(39.99939%,39.99939%,39.99939%);fill-opacity:0.3;" d="M 23.441406 -22.730469 L 29.382812 -23.246094 L 30.535156 -23.246094 L 31.675781 -22.347656 L 32.058594 -21.984375 L 37.1875 34.027344 L 37.914062 37.136719 L 37.652344 38.652344 L 36.589844 40.421875 L 23.28125 50.296875 L 19.289062 51.058594 L 16.625 50.808594 L 13.351562 48.675781 L 12.511719 44.511719 L 9.695312 26.261719 L 8.539062 0.0703125 L 7.695312 -6.542969 L 7.738281 -12.351562 L 10.929688 -16.398438 Z M 23.441406 -22.730469 "/>
<path style=" stroke:none;fill-rule:nonzero;fill:rgb(39.99939%,39.99939%,39.99939%);fill-opacity:0.3;" d="M 35.390625 -27.113281 L 36.984375 -30.003906 L 37.222656 -31.988281 L 38.214844 -33.976562 L 39.996094 -35.601562 L 56.316406 -41.394531 L 57.886719 -42.121094 L 59.429688 -42.121094 L 61.152344 -41.3125 L 62.292969 -40.59375 L 62.652344 -38.699219 L 68.289062 19.253906 L 68.554688 23.226562 L 69.34375 25.710938 L 69.613281 29.1875 L 68.570312 31.917969 L 65.691406 33.664062 L 52.34375 37.902344 L 49.460938 38.402344 L 46.320312 37.910156 L 43.960938 36.175781 L 42.648438 34.191406 L 41.597656 30.960938 Z M 35.390625 -27.113281 "/>
<path style=" stroke:none;fill-rule:nonzero;fill:rgb(39.99939%,39.99939%,39.99939%);fill-opacity:0.3;" d="M 214.285156 35.109375 L 214.441406 33.652344 L 216.785156 34.523438 Z M 214.285156 35.109375 "/>
<path style=" stroke:none;fill-rule:nonzero;fill:rgb(39.99939%,39.99939%,39.99939%);fill-opacity:0.3;" d="M 268.191406 269.898438 L 273.058594 270.898438 L 272.535156 273.195312 L 277.414062 274.195312 L 277.082031 275.660156 L 281.957031 276.65625 L 281.214844 279.957031 L 276.335938 278.957031 L 276.667969 277.492188 L 271.792969 276.492188 L 272.308594 274.195312 L 267.449219 273.195312 L 266.699219 276.480469 L 269.53125 277.0625 L 268.78125 280.359375 L 263.917969 279.363281 L 262.777344 284.390625 L 267.652344 285.390625 L 267.078125 287.941406 L 271.777344 288.90625 L 271.445312 290.371094 L 276.320312 291.371094 L 275.578125 294.667969 L 270.699219 293.667969 L 271.03125 292.203125 L 266.15625 291.203125 L 266.730469 288.652344 L 262.03125 287.691406 L 262.363281 286.226562 L 257.488281 285.226562 L 258.230469 281.929688 L 262.277344 282.757812 L 262.773438 280.570312 L 258.746094 279.742188 L 259.488281 276.445312 L 264.351562 277.441406 L 265.09375 274.15625 L 262.273438 273.578125 L 263.015625 270.277344 L 267.886719 271.277344 Z M 268.191406 269.898438 "/>
<path style=" stroke:none;fill-rule:nonzero;fill:rgb(39.99939%,39.99939%,39.99939%);fill-opacity:0.3;" d="M 272.464844 301.535156 L 271.410156 306.164062 L 269.871094 305.851562 L 269.132812 309.089844 L 269.589844 309.183594 L 268.535156 313.816406 L 266.992188 313.5 L 265.941406 318.128906 L 262.464844 317.421875 L 263.519531 312.792969 L 265.0625 313.105469 L 265.800781 309.867188 L 265.34375 309.773438 L 266.394531 305.140625 L 267.9375 305.457031 L 268.992188 300.828125 Z M 272.464844 301.535156 "/>
<path style=" stroke:none;fill-rule:nonzero;fill:rgb(39.99939%,39.99939%,39.99939%);fill-opacity:0.3;" d="M 292.710938 280.574219 L 296.183594 281.285156 L 295.132812 285.898438 L 296.585938 286.199219 L 295.644531 290.34375 L 296.492188 290.515625 L 295.441406 295.128906 L 300.738281 296.214844 L 301.792969 291.589844 L 304.410156 292.117188 L 305.296875 288.214844 L 307.101562 288.53125 L 308.15625 283.902344 L 311.628906 284.609375 L 310.574219 289.238281 L 308.769531 288.925781 L 307.71875 293.550781 L 305.101562 293.019531 L 304.214844 296.921875 L 302.671875 296.609375 L 301.617188 301.234375 L 298.144531 300.53125 L 299.019531 296.691406 L 296.714844 296.21875 L 295.84375 300.042969 L 292.371094 299.339844 L 293.421875 294.714844 L 291.96875 294.425781 L 292.910156 290.28125 L 292.0625 290.109375 L 293.113281 285.488281 L 291.660156 285.195312 Z M 292.710938 280.574219 "/>
<path style=" stroke:none;fill-rule:nonzero;fill:rgb(39.99939%,39.99939%,39.99939%);fill-opacity:0.3;" d="M 311.296875 281.15625 L 311.144531 281.832031 L 307.671875 281.121094 L 307.832031 280.410156 Z M 311.296875 281.15625 "/>
<path style=" stroke:none;fill-rule:nonzero;fill:rgb(39.99939%,39.99939%,39.99939%);fill-opacity:0.3;" d="M 305.53125 279.917969 L 305.367188 280.648438 L 301.894531 279.933594 L 302.066406 279.171875 Z M 305.53125 279.917969 "/>
<path style=" stroke:none;fill-rule:nonzero;fill:rgb(39.99939%,39.99939%,39.99939%);fill-opacity:0.3;" d="M 296.621094 278 L 296.4375 278.816406 L 292.964844 278.101562 L 293.140625 277.25 Z M 296.621094 278 "/>
<path style=" stroke:none;fill-rule:nonzero;fill:rgb(39.99939%,39.99939%,39.99939%);fill-opacity:0.3;" d="M 277.953125 310.960938 L 276.324219 310.628906 L 277.457031 306.019531 L 280.929688 306.730469 L 279.886719 311.351562 L 285.34375 312.464844 L 286.390625 307.84375 L 289.863281 308.550781 L 288.996094 312.386719 L 291.300781 312.855469 L 292.167969 309.019531 L 295.640625 309.730469 L 294.597656 314.351562 L 296.136719 314.675781 L 294.242188 323.023438 L 293.292969 322.832031 L 291.402344 331.140625 L 289.800781 330.8125 L 288.75 335.441406 L 285.273438 334.738281 L 286.328125 330.105469 L 287.929688 330.433594 L 289.820312 322.125 L 290.765625 322.316406 L 292.664062 313.960938 L 287.203125 312.847656 L 286.160156 317.46875 L 282.6875 316.761719 L 283.554688 312.925781 L 281.25 312.457031 L 280.382812 316.292969 L 276.90625 315.582031 Z M 277.953125 310.960938 "/>
<path style=" stroke:none;fill-rule:nonzero;fill:rgb(39.99939%,39.99939%,39.99939%);fill-opacity:0.3;" d="M 271.734375 319.171875 L 276.605469 320.171875 L 275.941406 323.132812 L 280.332031 324.035156 L 280 325.496094 L 284.875 326.496094 L 284.132812 329.796875 L 279.257812 328.792969 L 279.585938 327.332031 L 274.714844 326.332031 L 275.378906 323.371094 L 270.988281 322.46875 L 271.320312 321.003906 L 266.445312 320.003906 L 267.1875 316.707031 L 272.066406 317.707031 Z M 271.734375 319.171875 "/>
<g clip-path="url(#clip1)" clip-rule="nonzero">
<path style=" stroke:none;fill-rule:nonzero;fill:rgb(39.99939%,39.99939%,39.99939%);fill-opacity:0.3;" d="M 331.570312 313.554688 L 330.121094 320.679688 L 330.90625 320.855469 L 331.976562 321.097656 L 333.425781 314.957031 L 337.546875 316.035156 L 335.683594 322.511719 L 336.640625 322.773438 L 337.621094 322.929688 L 339.574219 316.5625 L 341.757812 317.132812 L 325.125 372.714844 L 292.292969 344.179688 L 301.964844 305.894531 L 323.3125 311.917969 Z M 331.570312 313.554688 "/>
</g>
<g clip-path="url(#clip2)" clip-rule="nonzero">
<path style=" stroke:none;fill-rule:nonzero;fill:rgb(39.99939%,39.99939%,39.99939%);fill-opacity:0.3;" d="M 368.058594 338.464844 L 359.570312 336.25 L 361.230469 330.515625 L 369.527344 332.679688 Z M 368.058594 338.464844 "/>
</g>
<g clip-path="url(#clip3)" clip-rule="nonzero">
<path style=" stroke:none;fill-rule:nonzero;fill:rgb(39.99939%,39.99939%,39.99939%);fill-opacity:0.3;" d="M 353.132812 392.210938 L 351.808594 391.558594 L 336.0625 379.769531 L 327.472656 373.34375 L 336.742188 340.335938 L 365.738281 347.988281 L 365.117188 350.558594 L 354.910156 392.703125 Z M 353.132812 392.210938 "/>
</g>
<g clip-path="url(#clip4)" clip-rule="nonzero">
<path style=" stroke:none;fill-rule:nonzero;fill:rgb(39.99939%,39.99939%,39.99939%);fill-opacity:0.3;" d="M 366.023438 346.660156 L 357.222656 344.363281 L 359.179688 337.601562 L 367.660156 339.816406 Z M 366.023438 346.660156 "/>
</g>
<path style=" stroke:none;fill-rule:nonzero;fill:rgb(39.99939%,39.99939%,39.99939%);fill-opacity:0.3;" d="M 337.070312 339.082031 L 343.308594 317.539062 L 350.625 319.449219 L 344.386719 340.992188 Z M 337.070312 339.082031 "/>
<g clip-path="url(#clip5)" clip-rule="nonzero">
<path style=" stroke:none;fill-rule:nonzero;fill:rgb(39.99939%,39.99939%,39.99939%);fill-opacity:0.3;" d="M 352.355469 319.898438 L 361.511719 322.289062 L 355.273438 343.832031 L 346.117188 341.441406 Z M 352.355469 319.898438 "/>
</g>
<g clip-path="url(#clip6)" clip-rule="nonzero">
<path style=" stroke:none;fill-rule:nonzero;fill:rgb(39.99939%,39.99939%,39.99939%);fill-opacity:0.3;" d="M 331.570312 313.554688 L 323.3125 311.917969 L 324.554688 306.855469 L 346.214844 311.8125 L 372.851562 318.414062 L 371.757812 323.550781 L 342.882812 316.183594 Z M 331.570312 313.554688 "/>
</g>
<g clip-path="url(#clip7)" clip-rule="nonzero">
<path style=" stroke:none;fill-rule:nonzero;fill:rgb(39.99939%,39.99939%,39.99939%);fill-opacity:0.3;" d="M 361.480469 313.757812 L 361.402344 314.105469 L 357.929688 313.398438 L 358.046875 312.886719 Z M 361.480469 313.757812 "/>
</g>
<path style=" stroke:none;fill-rule:nonzero;fill:rgb(39.99939%,39.99939%,39.99939%);fill-opacity:0.3;" d="M 355.765625 312.308594 L 355.628906 312.910156 L 352.152344 312.207031 L 352.328125 311.4375 Z M 355.765625 312.308594 "/>
<path style=" stroke:none;fill-rule:nonzero;fill:rgb(39.99939%,39.99939%,39.99939%);fill-opacity:0.3;" d="M 327.03125 297.523438 L 325.402344 297.191406 L 326.535156 292.585938 L 330.007812 293.292969 L 328.964844 297.917969 L 334.421875 299.03125 L 335.46875 294.40625 L 338.941406 295.113281 L 338.074219 298.949219 L 340.378906 299.421875 L 341.246094 295.585938 L 344.71875 296.292969 L 343.671875 300.917969 L 345.214844 301.238281 L 344.167969 305.855469 L 340.695312 305.148438 L 341.742188 300.523438 L 336.28125 299.410156 L 335.238281 304.035156 L 331.765625 303.328125 L 332.632812 299.492188 L 330.328125 299.019531 L 329.457031 302.855469 L 325.984375 302.148438 Z M 327.03125 297.523438 "/>
<path style=" stroke:none;fill-rule:nonzero;fill:rgb(39.99939%,39.99939%,39.99939%);fill-opacity:0.3;" d="M 345.417969 293.789062 L 345.300781 294.300781 L 341.828125 293.589844 L 341.972656 292.957031 Z M 345.417969 293.789062 "/>
<path style=" stroke:none;fill-rule:nonzero;fill:rgb(39.99939%,39.99939%,39.99939%);fill-opacity:0.3;" d="M 339.683594 292.410156 L 339.523438 293.117188 L 336.050781 292.402344 L 336.238281 291.578125 Z M 339.683594 292.410156 "/>
<path style=" stroke:none;fill-rule:nonzero;fill:rgb(39.99939%,39.99939%,39.99939%);fill-opacity:0.3;" d="M 330.824219 290.277344 L 330.59375 291.285156 L 327.121094 290.570312 L 327.355469 289.445312 Z M 330.824219 290.277344 "/>
<g clip-path="url(#clip8)" clip-rule="nonzero">
<path style=" stroke:none;fill-rule:nonzero;fill:rgb(39.99939%,39.99939%,39.99939%);fill-opacity:0.3;" d="M 460.566406 -16.195312 L 459.949219 -17.257812 L 462.601562 -27.671875 L 472.171875 -64.140625 L 476.84375 -86.785156 L 477.820312 -94.429688 L 478.457031 -95.53125 L 479.542969 -95.769531 L 493.667969 -88.050781 L 500.417969 -84.339844 L 507.011719 -81.226562 L 510.933594 -79.296875 L 516.898438 -76.625 L 521.292969 -74.546875 L 524.746094 -73.214844 L 530.867188 -70.542969 L 540.753906 -66.539062 L 545.015625 -64.726562 L 550.804688 -62.332031 L 566.542969 -58.921875 L 585.171875 -55.347656 L 603.617188 -52.453125 L 620.617188 -49.386719 L 638.882812 -46.324219 L 660.949219 -42.578125 L 672.703125 -40.878906 L 682.46875 -39.175781 L 691.148438 -37.644531 L 707.332031 -34.734375 L 700.304688 -19.601562 L 684.4375 17.542969 L 753.9375 45.976562 L 774.480469 66.707031 L 727.980469 78.28125 L 700.59375 55.246094 L 699.527344 59.394531 L 689.078125 81.90625 L 648.929688 175.253906 L 642.5625 190.050781 L 616.972656 220.90625 L 597.417969 246.601562 L 589.40625 258.230469 L 550.242188 315.769531 L 541.164062 332.585938 L 530.066406 350.574219 L 523.832031 363.40625 L 519.605469 372.984375 L 516.1875 382.5625 L 497.613281 431.46875 L 494.59375 431.648438 L 355.238281 392.796875 L 366.667969 348.34375 L 366.800781 347.613281 L 366.96875 347.011719 L 368.632812 340.054688 L 368.789062 339.273438 L 369.050781 338.433594 L 370.628906 332.226562 L 371.15625 330.03125 L 372.546875 324.378906 L 372.855469 323.3125 L 374.085938 318.265625 L 374.421875 317.042969 L 375.222656 317.246094 L 383.605469 287.707031 L 400.769531 220.25 L 406.460938 197.199219 L 433.375 91.292969 L 434.734375 84.417969 L 434.933594 83.042969 Z M 460.566406 -16.195312 "/>
</g>
<path style=" stroke:none;fill-rule:nonzero;fill:rgb(39.99939%,39.99939%,39.99939%);fill-opacity:0.3;" d="M 150.910156 151.484375 L 155.539062 203.269531 L 135.398438 204.125 L 130.042969 152.847656 Z M 150.910156 151.484375 "/>
<path style=" stroke:none;fill-rule:nonzero;fill:rgb(39.99939%,39.99939%,39.99939%);fill-opacity:0.3;" d="M 176.390625 149.394531 L 180.660156 202.015625 L 159.632812 203.40625 L 154.574219 151.339844 Z M 176.390625 149.394531 "/>
<path style=" stroke:none;fill-rule:nonzero;fill:rgb(39.99939%,39.99939%,39.99939%);fill-opacity:0.3;" d="M 201.269531 147.859375 L 206.691406 199.796875 L 184.414062 201.875 L 180.4375 149.25 Z M 201.269531 147.859375 "/>
<path style=" stroke:none;fill-rule:nonzero;fill:rgb(39.99939%,39.99939%,39.99939%);fill-opacity:0.3;" d="M 248.203125 256.773438 L 259.792969 255.972656 L 248.203125 303.066406 L 246.847656 308.570312 L 243.316406 307.273438 L 240.035156 257.335938 Z M 248.203125 256.773438 "/>
<path style=" stroke:none;fill-rule:nonzero;fill:rgb(39.99939%,39.99939%,39.99939%);fill-opacity:0.3;" d="M 236.449219 266.429688 L 237.785156 282.699219 L 237.953125 285.1875 L 239.742188 306.472656 L 218.546875 300.359375 L 217.453125 286.699219 L 217.171875 283.957031 L 215.8125 267.6875 L 215.152344 259.796875 L 235.746094 257.910156 Z M 236.449219 266.429688 "/>
<path style=" stroke:none;fill-rule:nonzero;fill:rgb(39.99939%,39.99939%,39.99939%);fill-opacity:0.3;" d="M 248.203125 200.328125 L 257.070312 199.765625 L 261.230469 247.933594 L 260.222656 251.5 L 248.203125 252.457031 L 239.277344 253.171875 L 234.84375 201.175781 Z M 248.203125 200.328125 "/>
<path style=" stroke:none;fill-rule:nonzero;fill:rgb(39.99939%,39.99939%,39.99939%);fill-opacity:0.3;" d="M 232.265625 201.375 L 236.476562 253.632812 L 214.324219 255.632812 L 209.363281 203.195312 Z M 232.265625 201.375 "/>
<path style=" stroke:none;fill-rule:nonzero;fill:rgb(39.99939%,39.99939%,39.99939%);fill-opacity:0.3;" d="M 272.695312 203.972656 L 264.195312 238 L 263.035156 237.90625 L 259.964844 199.429688 L 273.917969 198.527344 Z M 272.695312 203.972656 "/>
<path style=" stroke:none;fill-rule:nonzero;fill:rgb(39.99939%,39.99939%,39.99939%);fill-opacity:0.3;" d="M 248.203125 143.652344 L 252.867188 143.257812 L 256.386719 195.445312 L 248.203125 196.078125 L 235.046875 197.097656 L 229.898438 145.207031 Z M 248.203125 143.652344 "/>
<path style=" stroke:none;fill-rule:nonzero;fill:rgb(39.99939%,39.99939%,39.99939%);fill-opacity:0.3;" d="M 227.453125 145.550781 L 232.039062 197.460938 L 210.070312 199.539062 L 204.59375 147.582031 Z M 227.453125 145.550781 "/>
<path style=" stroke:none;fill-rule:nonzero;fill:rgb(39.99939%,39.99939%,39.99939%);fill-opacity:0.3;" d="M 277.472656 140.832031 L 280.53125 173.519531 L 278.679688 180.925781 L 275.050781 194.128906 L 259.027344 195.246094 L 255.46875 142.707031 Z M 277.472656 140.832031 "/>
<path style=" stroke:none;fill-rule:nonzero;fill:rgb(39.99939%,39.99939%,39.99939%);fill-opacity:0.3;" d="M 169.769531 101.015625 L 174.777344 146.136719 L 154.652344 147.914062 L 151.851562 103.660156 Z M 169.769531 101.015625 "/>
<path style=" stroke:none;fill-rule:nonzero;fill:rgb(39.99939%,39.99939%,39.99939%);fill-opacity:0.3;" d="M 222.539062 80.800781 L 227.359375 141.300781 L 205.078125 142.867188 L 199.554688 83.0625 Z M 222.539062 80.800781 "/>
<path style=" stroke:none;fill-rule:nonzero;fill:rgb(39.99939%,39.99939%,39.99939%);fill-opacity:0.3;" d="M 248.203125 96.492188 L 252.996094 139.339844 L 248.203125 139.753906 L 230.226562 141.304688 L 225.453125 80.101562 L 246.179688 78.386719 Z M 248.203125 96.492188 "/>
<path style=" stroke:none;fill-rule:nonzero;fill:rgb(39.99939%,39.99939%,39.99939%);fill-opacity:0.3;" d="M 271.320312 68.253906 L 276.78125 137.628906 L 255.425781 139.191406 L 248.480469 70.042969 Z M 271.320312 68.253906 "/>
<path style=" stroke:none;fill-rule:nonzero;fill:rgb(39.99939%,39.99939%,39.99939%);fill-opacity:0.3;" d="M 140.273438 264.992188 L 161.289062 263.71875 L 163.125 282.875 L 141.4375 276.203125 Z M 140.273438 264.992188 "/>
<path style=" stroke:none;fill-rule:nonzero;fill:rgb(39.99939%,39.99939%,39.99939%);fill-opacity:0.3;" d="M 165.554688 263.757812 L 186.839844 262.195312 L 188.273438 290.285156 L 167.722656 284.113281 Z M 165.554688 263.757812 "/>
<path style=" stroke:none;fill-rule:nonzero;fill:rgb(39.99939%,39.99939%,39.99939%);fill-opacity:0.3;" d="M 213.441406 285.074219 L 214.59375 299.007812 L 191.945312 291.160156 L 191.671875 285.976562 L 190.410156 262.082031 L 211.398438 260.347656 Z M 213.441406 285.074219 "/>
<path style=" stroke:none;fill-rule:nonzero;fill:rgb(39.99939%,39.99939%,39.99939%);fill-opacity:0.3;" d="M 157.257812 207.085938 L 162.210938 260.097656 L 141.324219 261.730469 L 135.882812 208.992188 Z M 157.257812 207.085938 "/>
<path style=" stroke:none;fill-rule:nonzero;fill:rgb(39.99939%,39.99939%,39.99939%);fill-opacity:0.3;" d="M 180.980469 206.375 L 185.679688 257.625 L 164.875 259.710938 L 160.464844 207.636719 Z M 180.980469 206.375 "/>
<path style=" stroke:none;fill-rule:nonzero;fill:rgb(39.99939%,39.99939%,39.99939%);fill-opacity:0.3;" d="M 206.8125 203.570312 L 211.25 256.085938 L 190.011719 257.484375 L 185.429688 205.832031 Z M 206.8125 203.570312 "/>
<path style=" stroke:none;fill-rule:nonzero;fill:rgb(39.99939%,39.99939%,39.99939%);fill-opacity:0.3;" d="M 289.582031 139.4375 L 282.230469 164.324219 L 279.324219 140.585938 Z M 289.582031 139.4375 "/>
<path style=" stroke:none;fill-rule:nonzero;fill:rgb(39.99939%,39.99939%,39.99939%);fill-opacity:0.3;" d="M 297.046875 66.65625 L 308.570312 65.863281 L 305.367188 79.34375 L 297.636719 79.71875 Z M 297.046875 66.65625 "/>
<path style=" stroke:none;fill-rule:nonzero;fill:rgb(39.99939%,39.99939%,39.99939%);fill-opacity:0.3;" d="M 273.835938 68.28125 L 294.859375 66.789062 L 295.644531 80.894531 L 304.953125 80.480469 L 291.410156 135.992188 L 291.402344 136.027344 L 291.179688 136.753906 L 279.289062 137.476562 Z M 273.835938 68.28125 "/>
<path style=" stroke:none;fill-rule:nonzero;fill:rgb(39.99939%,39.99939%,39.99939%);fill-opacity:0.3;" d="M 115.644531 267.515625 L 137.226562 265.40625 L 138.183594 276.125 L 126.304688 272.925781 L 115.53125 269.277344 Z M 115.644531 267.515625 "/>
<path style=" stroke:none;fill-rule:nonzero;fill:rgb(39.99939%,39.99939%,39.99939%);fill-opacity:0.3;" d="M 59.941406 215.320312 L 81.929688 213.566406 L 85.953125 267.652344 L 76.695312 265.566406 L 64.867188 263.796875 Z M 59.941406 215.320312 "/>
<path style=" stroke:none;fill-rule:nonzero;fill:rgb(39.99939%,39.99939%,39.99939%);fill-opacity:0.3;" d="M 71.578125 113.574219 L 75.148438 153.117188 L 54.820312 154.453125 L 51.429688 116.753906 Z M 71.578125 113.574219 "/>
<path style=" stroke:none;fill-rule:nonzero;fill:rgb(39.99939%,39.99939%,39.99939%);fill-opacity:0.3;" d="M 75.019531 156.699219 L 81.503906 207.886719 L 60.25 209.433594 L 54.691406 157.921875 Z M 75.019531 156.699219 "/>
<path style=" stroke:none;fill-rule:nonzero;fill:rgb(39.99939%,39.99939%,39.99939%);fill-opacity:0.3;" d="M 106.953125 211.375 L 111.582031 265.460938 L 88.832031 266.929688 L 84.8125 213.417969 Z M 106.953125 211.375 "/>
<path style=" stroke:none;fill-rule:nonzero;fill:rgb(39.99939%,39.99939%,39.99939%);fill-opacity:0.3;" d="M 130.609375 209.183594 L 135.960938 260.667969 L 114.613281 262.722656 L 109.984375 211.226562 Z M 130.609375 209.183594 "/>
<path style=" stroke:none;fill-rule:nonzero;fill:rgb(39.99939%,39.99939%,39.99939%);fill-opacity:0.3;" d="M 125.671875 153.285156 L 130.753906 204.039062 L 110.121094 205.800781 L 105.425781 154.78125 Z M 125.671875 153.285156 "/>
<path style=" stroke:none;fill-rule:nonzero;fill:rgb(39.99939%,39.99939%,39.99939%);fill-opacity:0.3;" d="M 121.191406 107.757812 L 125.125 149.546875 L 104.480469 151.003906 L 99.664062 108.453125 Z M 121.191406 107.757812 "/>
<path style=" stroke:none;fill-rule:nonzero;fill:rgb(39.99939%,39.99939%,39.99939%);fill-opacity:0.3;" d="M 95.144531 109.148438 L 99.617188 151.484375 L 79.828125 152.996094 L 76.105469 112.773438 Z M 95.144531 109.148438 "/>
<path style=" stroke:none;fill-rule:nonzero;fill:rgb(39.99939%,39.99939%,39.99939%);fill-opacity:0.3;" d="M 99.914062 155.324219 L 104.644531 206.203125 L 86.226562 207.542969 L 80.425781 156.375 Z M 99.914062 155.324219 "/>
<path style=" stroke:none;fill-rule:nonzero;fill:rgb(39.99939%,39.99939%,39.99939%);fill-opacity:0.3;" d="M 148.085938 104.210938 L 148.675781 114.105469 L 150.769531 147.601562 L 129.390625 149.117188 L 127.125 115.167969 L 126.527344 107.242188 Z M 148.085938 104.210938 "/>
<path style=" stroke:none;fill-rule:nonzero;fill:rgb(39.99939%,39.99939%,39.99939%);fill-opacity:0.3;" d="M 197.28125 83.027344 L 202.234375 143.019531 L 180.554688 144.84375 L 176.199219 93.136719 L 173.996094 93.140625 L 173.21875 84.902344 Z M 197.28125 83.027344 "/>
<path style=" stroke:none;fill-rule:nonzero;fill:rgb(39.99939%,39.99939%,39.99939%);fill-opacity:0.3;" d="M 302.527344 63.875 L 295.089844 64.425781 L 297.789062 64.179688 Z M 302.527344 63.875 "/>
<path style=" stroke:none;fill-rule:nonzero;fill:rgb(39.99939%,39.99939%,39.99939%);fill-opacity:0.3;" d="M 261.816406 66.890625 L 248.203125 67.898438 L 247.144531 67.976562 L 247.09375 67.375 Z M 261.816406 66.890625 "/>
<path style=" stroke:none;fill-rule:nonzero;fill:rgb(39.99939%,39.99939%,39.99939%);fill-opacity:0.3;" d="M 219.371094 304.488281 L 242.117188 310.925781 L 242.292969 314.230469 L 220.089844 314.535156 Z M 219.371094 304.488281 "/>
<path style=" stroke:none;fill-rule:nonzero;fill:rgb(39.99939%,39.99939%,39.99939%);fill-opacity:0.3;" d="M 192.976562 296.671875 L 215.203125 303.539062 L 216.398438 315.824219 L 194.265625 316.746094 Z M 192.976562 296.671875 "/>
<path style=" stroke:none;fill-rule:nonzero;fill:rgb(39.99939%,39.99939%,39.99939%);fill-opacity:0.3;" d="M 126.304688 272.925781 L 115.484375 270.007812 L 115.53125 269.277344 Z M 126.304688 272.925781 "/>
<g clip-path="url(#clip9)" clip-rule="nonzero">
<path style=" stroke:none;fill-rule:nonzero;fill:rgb(39.99939%,39.99939%,39.99939%);fill-opacity:0.3;" d="M 273.917969 336.15625 L 296.699219 353.246094 L 296.910156 364.597656 L 275.726562 365.929688 Z M 273.917969 336.15625 "/>
</g>
<path style=" stroke:none;fill-rule:nonzero;fill:rgb(39.99939%,39.99939%,39.99939%);fill-opacity:0.3;" d="M -12.703125 256.890625 L 11.417969 260.316406 L 11.898438 273.601562 L -11.273438 275.175781 Z M -12.703125 256.890625 "/>
<g clip-path="url(#clip10)" clip-rule="nonzero">
<path style=" stroke:none;fill-rule:nonzero;fill:rgb(39.99939%,39.99939%,39.99939%);fill-opacity:0.3;" d="M -4.953125 335.941406 L 16.722656 334.355469 L 21.230469 385.28125 L -0.605469 387.179688 Z M -4.953125 335.941406 "/>
</g>
<g clip-path="url(#clip11)" clip-rule="nonzero">
<path style=" stroke:none;fill-rule:nonzero;fill:rgb(39.99939%,39.99939%,39.99939%);fill-opacity:0.3;" d="M 19.734375 333.5625 L 42.148438 331.96875 L 46.738281 383.523438 L 24.519531 384.949219 Z M 19.734375 333.5625 "/>
</g>
<path style=" stroke:none;fill-rule:nonzero;fill:rgb(39.99939%,39.99939%,39.99939%);fill-opacity:0.3;" d="M -9.046875 278.769531 L 12.609375 277.175781 L 16.609375 330.042969 L -4.925781 331.796875 Z M -9.046875 278.769531 "/>
<path style=" stroke:none;fill-rule:nonzero;fill:rgb(39.99939%,39.99939%,39.99939%);fill-opacity:0.3;" d="M 15.332031 260.777344 L 35.523438 263.910156 L 35.972656 271.539062 L 15.652344 273.003906 Z M 15.332031 260.777344 "/>
<path style=" stroke:none;fill-rule:nonzero;fill:rgb(39.99939%,39.99939%,39.99939%);fill-opacity:0.3;" d="M 15.671875 276.726562 L 36.117188 275.769531 L 40.570312 328.570312 L 19.492188 330.183594 Z M 15.671875 276.726562 "/>
<path style=" stroke:none;fill-rule:nonzero;fill:rgb(39.99939%,39.99939%,39.99939%);fill-opacity:0.3;" d="M 40.058594 264.773438 L 59.511719 266.34375 L 59.460938 269.109375 L 40.371094 270.957031 Z M 40.058594 264.773438 "/>
<path style=" stroke:none;fill-rule:nonzero;fill:rgb(39.99939%,39.99939%,39.99939%);fill-opacity:0.3;" d="M 64.410156 273.855469 L 86.855469 271.957031 L 92.261719 324.417969 L 69.949219 326.070312 Z M 64.410156 273.855469 "/>
<g clip-path="url(#clip12)" clip-rule="nonzero">
<path style=" stroke:none;fill-rule:nonzero;fill:rgb(39.99939%,39.99939%,39.99939%);fill-opacity:0.3;" d="M 44.855469 331.347656 L 66.035156 330.230469 L 70.546875 381.933594 L 49.695312 383.050781 Z M 44.855469 331.347656 "/>
</g>
<path style=" stroke:none;fill-rule:nonzero;fill:rgb(39.99939%,39.99939%,39.99939%);fill-opacity:0.3;" d="M 39.507812 275.609375 L 60.738281 274.140625 L 66.125 326.359375 L 44.589844 327.683594 Z M 39.507812 275.609375 "/>
<g clip-path="url(#clip13)" clip-rule="nonzero">
<path style=" stroke:none;fill-rule:nonzero;fill:rgb(39.99939%,39.99939%,39.99939%);fill-opacity:0.3;" d="M 70.1875 330.371094 L 91.566406 328.765625 L 95.910156 379.535156 L 74.699219 381.140625 Z M 70.1875 330.371094 "/>
</g>
<g clip-path="url(#clip14)" clip-rule="nonzero">
<path style=" stroke:none;fill-rule:nonzero;fill:rgb(39.99939%,39.99939%,39.99939%);fill-opacity:0.3;" d="M 95.835938 328.292969 L 116.359375 327.171875 L 119.882812 378.414062 L 99.851562 379.375 Z M 95.835938 328.292969 "/>
</g>
<g clip-path="url(#clip15)" clip-rule="nonzero">
<path style=" stroke:none;fill-rule:nonzero;fill:rgb(39.99939%,39.99939%,39.99939%);fill-opacity:0.3;" d="M 120.789062 325.921875 L 140.984375 324.648438 L 146.164062 376.398438 L 124.972656 377.78125 Z M 120.789062 325.921875 "/>
</g>
<g clip-path="url(#clip16)" clip-rule="nonzero">
<path style=" stroke:none;fill-rule:nonzero;fill:rgb(39.99939%,39.99939%,39.99939%);fill-opacity:0.3;" d="M 144.519531 324.019531 L 166.464844 322.835938 L 170.433594 373.976562 L 150.34375 375.734375 Z M 144.519531 324.019531 "/>
</g>
<path style=" stroke:none;fill-rule:nonzero;fill:rgb(39.99939%,39.99939%,39.99939%);fill-opacity:0.3;" d="M 90.496094 271.375 L 104.144531 270.496094 L 109.601562 270.054688 L 112.339844 275.519531 L 112.523438 278.167969 L 115.898438 322.558594 L 95.578125 324.3125 Z M 90.496094 271.375 "/>
<path style=" stroke:none;fill-rule:nonzero;fill:rgb(39.99939%,39.99939%,39.99939%);fill-opacity:0.3;" d="M 141.78125 320.566406 L 120.285156 322.152344 L 116.347656 273.21875 L 138.425781 279.027344 Z M 141.78125 320.566406 "/>
<path style=" stroke:none;fill-rule:nonzero;fill:rgb(39.99939%,39.99939%,39.99939%);fill-opacity:0.3;" d="M 144.769531 320.5 L 141.261719 280.941406 L 162.78125 287.300781 L 164.800781 319.070312 Z M 144.769531 320.5 "/>
<g clip-path="url(#clip17)" clip-rule="nonzero">
<path style=" stroke:none;fill-rule:nonzero;fill:rgb(39.99939%,39.99939%,39.99939%);fill-opacity:0.3;" d="M 169.492188 322.003906 L 191.054688 320.40625 L 195.371094 372.753906 L 174.097656 374.046875 Z M 169.492188 322.003906 "/>
</g>
<path style=" stroke:none;fill-rule:nonzero;fill:rgb(39.99939%,39.99939%,39.99939%);fill-opacity:0.3;" d="M 168.960938 316.808594 L 167.175781 288.554688 L 188.953125 294.59375 L 190.394531 316.03125 Z M 168.960938 316.808594 "/>
<g clip-path="url(#clip18)" clip-rule="nonzero">
<path style=" stroke:none;fill-rule:nonzero;fill:rgb(39.99939%,39.99939%,39.99939%);fill-opacity:0.3;" d="M 220.945312 318.796875 L 242.523438 317.652344 L 247.773438 368.664062 L 224.488281 370.339844 Z M 220.945312 318.796875 "/>
</g>
<g clip-path="url(#clip19)" clip-rule="nonzero">
<path style=" stroke:none;fill-rule:nonzero;fill:rgb(39.99939%,39.99939%,39.99939%);fill-opacity:0.3;" d="M 194.226562 320.816406 L 217.574219 318.691406 L 222.046875 370.816406 L 198.898438 372.523438 L 197.703125 357.636719 L 197.296875 349.449219 L 195.636719 333.703125 Z M 194.226562 320.816406 "/>
</g>
<g clip-path="url(#clip20)" clip-rule="nonzero">
<path style=" stroke:none;fill-rule:nonzero;fill:rgb(39.99939%,39.99939%,39.99939%);fill-opacity:0.3;" d="M 245.804688 323.089844 L 245.269531 317.214844 L 248.203125 319.121094 L 270.246094 333.429688 L 272.039062 366.808594 L 249.917969 368.15625 L 248.203125 349.382812 Z M 245.804688 323.089844 "/>
</g>
<g clip-path="url(#clip21)" clip-rule="nonzero">
<path style=" stroke:none;fill-rule:nonzero;fill:rgb(39.99939%,39.99939%,39.99939%);fill-opacity:0.3;" d="M 299.960938 357.558594 L 307.230469 363.691406 L 299.753906 363.617188 Z M 299.960938 357.558594 "/>
</g>
<path style=" stroke:none;fill-rule:nonzero;fill:rgb(39.99939%,39.99939%,39.99939%);fill-opacity:0.3;" d="M 274.058594 198.519531 L 272.695312 203.972656 L 273.917969 198.527344 Z M 274.058594 198.519531 "/>
<path style=" stroke:none;fill-rule:nonzero;fill:rgb(39.99939%,39.99939%,39.99939%);fill-opacity:0.3;" d="M 280.53125 173.519531 L 280.578125 174.015625 L 278.679688 180.925781 Z M 280.53125 173.519531 "/>
<g clip-path="url(#clip22)" clip-rule="nonzero">
<path style=" stroke:none;fill-rule:nonzero;fill:rgb(39.99939%,39.99939%,39.99939%);fill-opacity:0.3;" d="M 346.9375 255.996094 L 351.808594 256.992188 L 352.339844 254.621094 L 351.257812 254.398438 L 352 251.097656 L 356.867188 252.097656 L 357.171875 250.71875 L 362.042969 251.71875 L 361.292969 255.011719 L 356.429688 254.015625 L 355.890625 256.390625 L 356.980469 256.613281 L 356.230469 259.910156 L 351.371094 258.910156 L 351.058594 260.289062 L 346.195312 259.292969 Z M 346.9375 255.996094 "/>
</g>
<path style=" stroke:none;fill-rule:nonzero;fill:rgb(39.99939%,39.99939%,39.99939%);fill-opacity:0.3;" d="M 337.335938 260.234375 L 342.203125 261.234375 L 342.507812 259.851562 L 347.378906 260.851562 L 346.628906 264.148438 L 341.765625 263.152344 L 341.453125 264.527344 L 336.59375 263.53125 Z M 337.335938 260.234375 "/>
<path style=" stroke:none;fill-rule:nonzero;fill:rgb(39.99939%,39.99939%,39.99939%);fill-opacity:0.3;" d="M 352.839844 224.457031 L 357.707031 225.453125 L 356.957031 228.75 L 352.097656 227.753906 L 350.953125 232.785156 L 355.828125 233.78125 L 355.277344 236.238281 L 358.75 236.953125 L 357.699219 241.566406 L 359.152344 241.863281 L 358.101562 246.480469 L 354.625 245.777344 L 355.675781 241.15625 L 354.226562 240.863281 L 355.085938 237.082031 L 350.207031 236.082031 L 350.539062 234.617188 L 345.667969 233.617188 L 346.40625 230.320312 L 350.453125 231.148438 L 350.953125 228.960938 L 346.921875 228.132812 L 347.664062 224.835938 L 352.535156 225.835938 Z M 352.839844 224.457031 "/>
<path style=" stroke:none;fill-rule:nonzero;fill:rgb(39.99939%,39.99939%,39.99939%);fill-opacity:0.3;" d="M 295.558594 273.796875 L 296.609375 269.171875 L 300.082031 269.886719 L 299.207031 273.71875 L 301.511719 274.191406 L 302.386719 270.359375 L 305.859375 271.070312 L 304.804688 275.691406 L 310.261719 276.8125 L 311.316406 272.191406 L 314.789062 272.902344 L 313.738281 277.515625 L 312.195312 277.207031 L 311.296875 281.15625 L 307.832031 280.410156 L 308.542969 277.285156 L 306.238281 276.8125 L 305.53125 279.917969 L 302.066406 279.171875 L 302.945312 275.3125 L 297.488281 274.191406 L 296.621094 278 L 293.140625 277.25 L 293.929688 273.460938 Z M 295.558594 273.796875 "/>
<path style=" stroke:none;fill-rule:nonzero;fill:rgb(39.99939%,39.99939%,39.99939%);fill-opacity:0.3;" d="M 275.984375 236.628906 L 279.460938 237.332031 L 278.40625 241.964844 L 276.863281 241.648438 L 275.8125 246.277344 L 272.339844 245.574219 L 271.847656 247.726562 L 273.96875 248.160156 L 273.203125 251.527344 L 274.40625 251.773438 L 273.355469 256.386719 L 276.671875 257.066406 L 277.328125 254.179688 L 280.800781 254.894531 L 279.75 259.507812 L 285.046875 260.59375 L 286.699219 253.34375 L 284.78125 252.960938 L 285.835938 248.335938 L 284.503906 248.070312 L 285.558594 243.449219 L 282.828125 242.898438 L 283.878906 238.273438 L 287.351562 238.988281 L 286.300781 243.601562 L 289.03125 244.160156 L 287.980469 248.777344 L 289.304688 249.046875 L 288.257812 253.664062 L 290.167969 254.054688 L 288.519531 261.300781 L 286.980469 260.988281 L 285.925781 265.613281 L 282.453125 264.910156 L 283.328125 261.066406 L 281.007812 260.65625 L 280.152344 264.421875 L 276.679688 263.714844 L 277.730469 259.097656 L 274.414062 258.421875 L 273.757812 261.300781 L 270.285156 260.597656 L 271.335938 255.976562 L 269.882812 255.683594 L 270.648438 252.316406 L 269.445312 252.074219 L 270.335938 248.152344 L 268.214844 247.722656 L 269.265625 243.097656 L 272.738281 243.8125 L 273.390625 240.941406 L 274.933594 241.257812 Z M 275.984375 236.628906 "/>
<path style=" stroke:none;fill-rule:nonzero;fill:rgb(39.99939%,39.99939%,39.99939%);fill-opacity:0.3;" d="M 280.464844 219.792969 L 285.34375 220.792969 L 284.757812 223.378906 L 289.632812 224.378906 L 290.109375 222.261719 L 294.984375 223.261719 L 294.402344 225.84375 L 299.273438 226.84375 L 298.53125 230.144531 L 293.65625 229.140625 L 294.242188 226.558594 L 289.367188 225.558594 L 288.890625 227.675781 L 284.011719 226.675781 L 284.597656 224.089844 L 279.722656 223.089844 Z M 280.464844 219.792969 "/>
<path style=" stroke:none;fill-rule:nonzero;fill:rgb(39.99939%,39.99939%,39.99939%);fill-opacity:0.3;" d="M 283.609375 201.664062 L 287.082031 202.371094 L 286.027344 207 L 283.199219 206.421875 L 282.3125 210.320312 L 283.683594 210.597656 L 282.632812 215.230469 L 281.089844 214.914062 L 280.039062 219.542969 L 276.5625 218.835938 L 277.617188 214.207031 L 279.160156 214.519531 L 280.046875 210.625 L 278.671875 210.347656 L 279.726562 205.714844 L 282.554688 206.292969 Z M 283.609375 201.664062 "/>
<path style=" stroke:none;fill-rule:nonzero;fill:rgb(39.99939%,39.99939%,39.99939%);fill-opacity:0.3;" d="M 289.824219 203.3125 L 293.296875 204.023438 L 292.246094 208.640625 L 293.699219 208.9375 L 293.035156 211.859375 L 297.90625 212.855469 L 297.324219 215.441406 L 302.195312 216.441406 L 301.453125 219.738281 L 296.578125 218.738281 L 297.160156 216.15625 L 292.289062 215.15625 L 292.648438 213.550781 L 289.175781 212.847656 L 290.226562 208.226562 L 288.773438 207.933594 Z M 289.824219 203.3125 "/>
<path style=" stroke:none;fill-rule:nonzero;fill:rgb(39.99939%,39.99939%,39.99939%);fill-opacity:0.3;" d="M 288.386719 192.445312 L 289.128906 189.148438 L 294.007812 190.148438 L 293.554688 192.144531 L 297.761719 193.007812 L 298.320312 190.5625 L 303.179688 191.5625 L 304.441406 186 L 299.570312 185 L 300.3125 181.699219 L 305.1875 182.703125 L 304.738281 184.699219 L 309.609375 185.695312 L 308.867188 188.996094 L 304.820312 188.164062 L 304.324219 190.351562 L 308.355469 191.179688 L 307.613281 194.476562 L 302.742188 193.480469 L 302.4375 194.859375 L 298.234375 193.996094 L 297.6875 196.441406 L 292.808594 195.441406 L 293.261719 193.445312 Z M 288.386719 192.445312 "/>
<path style=" stroke:none;fill-rule:nonzero;fill:rgb(39.99939%,39.99939%,39.99939%);fill-opacity:0.3;" d="M 305.476562 137.078125 L 308.949219 137.792969 L 307.898438 142.40625 L 309.351562 142.703125 L 308.300781 147.320312 L 304.828125 146.617188 L 305.878906 141.996094 L 304.425781 141.703125 Z M 305.476562 137.078125 "/>
<path style=" stroke:none;fill-rule:nonzero;fill:rgb(39.99939%,39.99939%,39.99939%);fill-opacity:0.3;" d="M 295.652344 173.160156 L 296.394531 169.863281 L 301.273438 170.863281 L 300.820312 172.859375 L 305.695312 173.855469 L 304.953125 177.15625 L 300.078125 176.15625 L 300.527344 174.160156 Z M 295.652344 173.160156 "/>
<path style=" stroke:none;fill-rule:nonzero;fill:rgb(39.99939%,39.99939%,39.99939%);fill-opacity:0.3;" d="M 297.566406 161.203125 L 298.621094 156.574219 L 302.09375 157.277344 L 301.324219 160.664062 L 304.675781 161.351562 L 305.730469 156.726562 L 308.609375 157.308594 L 309.398438 153.828125 L 307.945312 153.535156 L 309 148.914062 L 312.472656 149.625 L 311.421875 154.242188 L 312.871094 154.539062 L 311.824219 159.152344 L 308.945312 158.570312 L 308.148438 162.058594 L 306.609375 161.746094 L 305.554688 166.371094 L 302.082031 165.667969 L 302.851562 162.28125 L 299.5 161.59375 L 298.433594 166.277344 L 294.972656 165.519531 L 296.023438 160.886719 Z M 297.566406 161.203125 "/>
<path style=" stroke:none;fill-rule:nonzero;fill:rgb(39.99939%,39.99939%,39.99939%);fill-opacity:0.3;" d="M 293.277344 170.257812 L 292.496094 174.925781 L 291.027344 174.703125 L 290.246094 179.367188 L 289.46875 179.25 L 288.824219 183.085938 L 290.378906 183.324219 L 289.59375 188 L 286.085938 187.460938 L 286.871094 182.789062 L 285.316406 182.550781 L 286.101562 177.871094 L 286.878906 177.992188 L 287.519531 174.164062 L 288.988281 174.386719 L 289.769531 169.726562 Z M 293.277344 170.257812 "/>
<path style=" stroke:none;fill-rule:nonzero;fill:rgb(39.99939%,39.99939%,39.99939%);fill-opacity:0.3;" d="M 295.476562 137.171875 L 298.949219 137.886719 L 297.898438 142.5 L 299.347656 142.800781 L 298.488281 146.585938 L 299.257812 146.742188 L 298.203125 151.371094 L 296.660156 151.058594 L 295.609375 155.683594 L 292.136719 154.980469 L 293.1875 150.351562 L 294.730469 150.664062 L 295.59375 146.867188 L 294.824219 146.710938 L 295.875 142.089844 L 294.421875 141.796875 Z M 295.476562 137.171875 "/>
<path style=" stroke:none;fill-rule:nonzero;fill:rgb(39.99939%,39.99939%,39.99939%);fill-opacity:0.3;" d="M 311.460938 130.632812 L 312.210938 127.335938 L 317.074219 128.332031 L 316.671875 130.132812 L 321.535156 131.128906 L 320.792969 134.429688 L 315.921875 133.429688 L 316.332031 131.632812 Z M 311.460938 130.632812 "/>
<path style=" stroke:none;fill-rule:nonzero;fill:rgb(39.99939%,39.99939%,39.99939%);fill-opacity:0.3;" d="M 341.339844 77.757812 L 344.8125 78.46875 L 343.761719 83.082031 L 342.289062 82.785156 L 341.238281 87.40625 L 340.332031 87.222656 L 339.28125 91.835938 L 336.769531 91.328125 L 335.71875 95.945312 L 332.246094 95.238281 L 333.296875 90.617188 L 335.808594 91.132812 L 336.859375 86.507812 L 337.765625 86.695312 L 338.816406 82.078125 L 340.289062 82.378906 Z M 341.339844 77.757812 "/>
<path style=" stroke:none;fill-rule:nonzero;fill:rgb(39.99939%,39.99939%,39.99939%);fill-opacity:0.3;" d="M 291.410156 135.992188 L 291.226562 136.753906 L 291.179688 136.753906 L 291.402344 136.027344 Z M 291.410156 135.992188 "/>
<path style=" stroke:none;fill-rule:nonzero;fill:rgb(39.99939%,39.99939%,39.99939%);fill-opacity:0.3;" d="M 305.167969 105.679688 L 308.640625 106.382812 L 309.140625 104.148438 L 314.019531 105.148438 L 314.316406 103.808594 L 319.195312 104.808594 L 318.449219 108.105469 L 313.574219 107.105469 L 313.273438 108.445312 L 308.398438 107.445312 L 307.585938 111.015625 L 305.773438 110.644531 L 304.734375 115.207031 L 306.777344 115.613281 L 306.03125 118.910156 L 303.554688 118.402344 L 302.503906 123.035156 L 304.714844 123.492188 L 303.96875 126.789062 L 305.472656 127.089844 L 304.421875 131.71875 L 300.949219 131.011719 L 302 126.386719 L 299.097656 125.789062 L 299.839844 122.492188 L 299.027344 122.324219 L 300.082031 117.699219 L 301.15625 117.917969 L 301.890625 114.65625 L 301.257812 114.527344 L 302.308594 109.898438 L 304.113281 110.304688 Z M 305.167969 105.679688 "/>
<path style=" stroke:none;fill-rule:nonzero;fill:rgb(39.99939%,39.99939%,39.99939%);fill-opacity:0.3;" d="M 321.660156 74.0625 L 325.132812 74.773438 L 324.082031 79.390625 L 329.378906 80.476562 L 330.429688 75.847656 L 333.90625 76.550781 L 332.851562 81.183594 L 331.308594 80.867188 L 330.257812 85.496094 L 326.785156 84.792969 L 327.65625 80.949219 L 325.351562 80.476562 L 324.480469 84.304688 L 321.007812 83.597656 L 320.308594 86.667969 L 319.308594 86.464844 L 318.464844 90.175781 L 323.339844 91.175781 L 323.007812 92.640625 L 327.882812 93.640625 L 327.140625 96.9375 L 323.09375 96.109375 L 322.597656 98.296875 L 326.625 99.121094 L 325.886719 102.421875 L 321.019531 101.421875 L 320.710938 102.800781 L 315.839844 101.804688 L 316.65625 98.519531 L 321.453125 99.503906 L 322.59375 94.472656 L 317.722656 93.472656 L 318.257812 91.078125 L 314.785156 90.375 L 315.835938 85.753906 L 316.835938 85.960938 L 317.886719 81.339844 L 321.359375 82.050781 L 322.058594 78.976562 L 320.605469 78.6875 Z M 321.660156 74.0625 "/>
<g clip-path="url(#clip23)" clip-rule="nonzero">
<path style=" stroke:none;fill-rule:nonzero;fill:rgb(39.99939%,39.99939%,39.99939%);fill-opacity:0.3;" d="M 371.308594 79.101562 L 372.230469 79.476562 L 373.300781 80.355469 L 373.808594 81.074219 L 374.1875 81.824219 L 374.632812 82.992188 L 374.980469 83.894531 L 375.300781 85.09375 L 375.460938 85.960938 L 375.566406 86.96875 L 375.742188 91.648438 L 375.238281 95.519531 L 373.375 99.070312 L 370.882812 102.273438 L 366.582031 107.382812 L 364.90625 109.902344 L 363.871094 111.984375 L 362.273438 115.234375 L 360.398438 119.394531 L 359.183594 123.167969 L 359.0625 124.183594 L 359.46875 126.664062 L 359.472656 128.117188 L 359.03125 129.53125 L 357.945312 130.378906 L 356.820312 130.726562 L 355.734375 130.703125 L 353.796875 130.378906 L 352.835938 129.609375 L 352.464844 128.703125 L 352.5 127.320312 L 353.6875 124.253906 L 355.210938 121.027344 L 357.585938 116.667969 L 360.597656 109.832031 L 363.636719 102.203125 L 364.832031 97.996094 L 365.375 92.949219 L 365.367188 90.046875 L 365.671875 83.996094 L 366 82.855469 L 366.25 82.164062 L 366.597656 81.503906 L 367.105469 80.8125 L 367.546875 80.214844 L 368.34375 79.589844 L 369.125 79.191406 L 370.121094 78.992188 Z M 371.308594 79.101562 "/>
</g>
<path style=" stroke:none;fill-rule:nonzero;fill:rgb(39.99939%,39.99939%,39.99939%);fill-opacity:0.3;" d="M 332.613281 106.089844 L 331.5625 110.707031 L 334.257812 111.261719 L 335.085938 107.613281 L 338.558594 108.324219 L 337.507812 112.941406 L 340.230469 113.5 L 339.515625 116.644531 L 342.988281 117.355469 L 342.0625 121.421875 L 345.535156 122.136719 L 344.484375 126.75 L 341.011719 126.046875 L 341.9375 121.972656 L 338.464844 121.269531 L 339.179688 118.117188 L 335.707031 117.410156 L 336.757812 112.789062 L 334.035156 112.238281 L 333.207031 115.875 L 329.734375 115.171875 L 330.785156 110.550781 L 328.085938 110.003906 L 329.140625 105.378906 Z M 332.613281 106.089844 "/>
<path style=" stroke:none;fill-rule:nonzero;fill:rgb(39.99939%,39.99939%,39.99939%);fill-opacity:0.3;" d="M 349.625 84.421875 L 351.65625 84.832031 L 350.601562 89.46875 L 352.78125 89.914062 L 352.035156 93.207031 L 353.273438 93.457031 L 352.21875 98.089844 L 350.289062 97.695312 L 349.234375 102.324219 L 346.867188 101.84375 L 345.8125 106.472656 L 342.339844 105.765625 L 343.082031 102.496094 L 340.828125 102.039062 L 339.773438 106.667969 L 336.300781 105.960938 L 337.355469 101.332031 L 339.609375 101.789062 L 340.664062 97.164062 L 344.136719 97.867188 L 343.390625 101.140625 L 345.761719 101.621094 L 346.8125 96.992188 L 348.746094 97.382812 L 349.800781 92.753906 L 347.160156 92.210938 L 347.902344 88.914062 L 347.128906 88.757812 L 348.183594 84.128906 L 346.152344 83.714844 L 347.203125 79.085938 L 350.679688 79.792969 Z M 349.625 84.421875 "/>
<g clip-path="url(#clip24)" clip-rule="nonzero">
<path style=" stroke:none;fill-rule:nonzero;fill:rgb(39.99939%,39.99939%,39.99939%);fill-opacity:0.3;" d="M 351.753906 307.292969 L 352.804688 302.671875 L 356.277344 303.382812 L 355.226562 308 L 360.523438 309.082031 L 361.578125 304.457031 L 365.441406 305.242188 L 365.941406 303.042969 L 368.617188 303.589844 L 370.519531 295.21875 L 368.371094 294.785156 L 369.425781 290.164062 L 372.894531 290.875 L 371.847656 295.492188 L 373.992188 295.929688 L 372.105469 304.21875 L 369.433594 303.675781 L 368.363281 308.378906 L 364.496094 307.59375 L 363.996094 309.789062 L 362.457031 309.476562 L 361.480469 313.757812 L 358.046875 312.886719 L 358.804688 309.558594 L 356.5 309.085938 L 355.765625 312.308594 L 352.328125 311.4375 L 353.207031 307.582031 Z M 351.753906 307.292969 "/>
</g>
<path style=" stroke:none;fill-rule:nonzero;fill:rgb(39.99939%,39.99939%,39.99939%);fill-opacity:0.3;" d="M 329.714844 286.265625 L 330.765625 281.640625 L 334.238281 282.355469 L 333.367188 286.1875 L 335.671875 286.660156 L 336.542969 282.828125 L 340.015625 283.539062 L 338.964844 288.164062 L 344.421875 289.28125 L 345.472656 284.660156 L 348.945312 285.371094 L 347.894531 289.988281 L 346.351562 289.679688 L 345.417969 293.789062 L 341.972656 292.957031 L 342.699219 289.753906 L 340.394531 289.28125 L 339.683594 292.410156 L 336.238281 291.578125 L 337.105469 287.78125 L 331.644531 286.660156 L 330.824219 290.277344 L 327.355469 289.445312 L 328.085938 285.929688 Z M 329.714844 286.265625 "/>
<g clip-path="url(#clip25)" clip-rule="nonzero">
<path style=" stroke:none;fill-rule:nonzero;fill:rgb(39.99939%,39.99939%,39.99939%);fill-opacity:0.3;" d="M 353.695312 292.226562 L 355.234375 292.542969 L 356.289062 287.914062 L 359.042969 288.472656 L 359.40625 286.875 L 364.265625 287.871094 L 364.578125 286.492188 L 369.441406 287.488281 L 368.699219 290.789062 L 363.835938 289.789062 L 363.523438 291.167969 L 359.375 290.320312 L 358.707031 293.25 L 357.167969 292.9375 L 356.113281 297.5625 L 352.640625 296.859375 Z M 353.695312 292.226562 "/>
</g>
<g clip-path="url(#clip26)" clip-rule="nonzero">
<path style=" stroke:none;fill-rule:nonzero;fill:rgb(39.99939%,39.99939%,39.99939%);fill-opacity:0.3;" d="M 354.894531 272.757812 L 355.945312 268.132812 L 354.492188 267.84375 L 355.542969 263.222656 L 359.015625 263.933594 L 357.964844 268.546875 L 363.261719 269.632812 L 364.316406 265.003906 L 367.789062 265.710938 L 366.734375 270.339844 L 365.195312 270.027344 L 364.140625 274.652344 L 360.667969 273.949219 L 361.542969 270.109375 L 359.238281 269.636719 L 358.367188 273.460938 Z M 354.894531 272.757812 "/>
</g>
<g clip-path="url(#clip27)" clip-rule="nonzero">
<path style=" stroke:none;fill-rule:nonzero;fill:rgb(39.99939%,39.99939%,39.99939%);fill-opacity:0.3;" d="M 315.011719 195.679688 L 315.382812 194.277344 L 319.199219 178.875 L 322.429688 167.953125 L 325.367188 156.75 L 328.257812 149.164062 L 332.003906 145.230469 L 336.402344 142.402344 L 343.128906 139.199219 L 346.363281 138.210938 L 349.859375 137.347656 L 352.578125 137.097656 L 354.519531 137.34375 L 356.460938 137.832031 L 359.441406 139.792969 L 362.164062 142.613281 L 364.109375 145.558594 L 365.5625 149.222656 L 366.585938 151.90625 L 367.496094 155.128906 L 368.296875 159.855469 L 369.09375 164.902344 L 369.328125 170.273438 L 368.996094 175.539062 L 368.582031 180.832031 L 367.191406 185.402344 L 365.996094 189.039062 L 364.804688 191.835938 L 363.417969 194.722656 L 361.835938 197.050781 L 359.738281 200.050781 L 356.800781 204.457031 L 354.765625 207.253906 L 352.335938 210.417969 L 350.808594 212.953125 L 348.664062 216.285156 L 346.398438 220.054688 L 345.21875 222.554688 L 344.050781 226.285156 L 343.582031 228.539062 L 342.847656 231.664062 L 342.398438 233.9375 L 341.503906 237.023438 L 340.773438 239.355469 L 340.097656 242.324219 L 339.183594 245.644531 L 338.386719 248.84375 L 337.132812 251.992188 L 336.003906 254.386719 L 334.125 256.617188 L 331.152344 259.246094 L 326.949219 260.226562 L 323.15625 260.132812 L 317.511719 259.167969 L 312.484375 257.910156 L 309.40625 256.355469 L 307.148438 253.832031 L 305.546875 252.09375 L 304.4375 249.183594 L 304.0625 245.109375 L 304.304688 241.847656 L 304.542969 237.535156 L 305.277344 233.574219 L 306.375 229.03125 L 307.882812 223.125 L 309.792969 215.050781 L 311.566406 208.5625 L 312.160156 206.347656 Z M 315.011719 195.679688 "/>
</g>
<path style=" stroke:none;fill-rule:nonzero;fill:rgb(39.99939%,39.99939%,39.99939%);fill-opacity:0.3;" d="M 151.324219 95.382812 L 168.929688 93.445312 L 169.769531 101.015625 L 151.851562 103.660156 Z M 151.324219 95.382812 "/>
<path style=" stroke:none;fill-rule:nonzero;fill:rgb(39.99939%,39.99939%,39.99939%);fill-opacity:0.3;" d="M 239.804688 -45.917969 L 238.824219 -37.601562 L 238.214844 -23.328125 L 240.761719 -4.785156 L 243.070312 11.335938 L 244.960938 21.570312 L 244.964844 25.296875 L 243.761719 27.300781 L 244.699219 23.867188 L 237.515625 -24.832031 L 238.3125 -41.195312 Z M 239.804688 -45.917969 "/>
<path style=" stroke:none;fill-rule:nonzero;fill:rgb(39.99939%,39.99939%,39.99939%);fill-opacity:0.3;" d="M 241.144531 28.808594 L 237.742188 30.730469 L 227.921875 33.667969 L 223.105469 34.039062 L 221.125 33.503906 Z M 241.144531 28.808594 "/>
<path style=" stroke:none;fill-rule:nonzero;fill:rgb(39.99939%,39.99939%,39.99939%);fill-opacity:0.3;" d="M 63.636719 109.226562 L 71.144531 108.75 L 71.578125 113.574219 L 51.429688 116.753906 L 51.230469 114.5625 L 63.886719 112.964844 Z M 63.636719 109.226562 "/>
<path style=" stroke:none;fill-rule:nonzero;fill:rgb(39.99939%,39.99939%,39.99939%);fill-opacity:0.3;" d="M 99.441406 106.472656 L 99.203125 102.707031 L 120.503906 100.453125 L 121.191406 107.757812 L 99.664062 108.453125 Z M 99.441406 106.472656 "/>
<path style=" stroke:none;fill-rule:nonzero;fill:rgb(39.99939%,39.99939%,39.99939%);fill-opacity:0.3;" d="M 75.699219 108.398438 L 94.902344 106.855469 L 95.144531 109.148438 L 76.105469 112.773438 Z M 75.699219 108.398438 "/>
<path style=" stroke:none;fill-rule:nonzero;fill:rgb(39.99939%,39.99939%,39.99939%);fill-opacity:0.3;" d="M 125.800781 97.570312 L 147.59375 96.003906 L 148.085938 104.210938 L 126.527344 107.242188 Z M 125.800781 97.570312 "/>
<path style=" stroke:none;fill-rule:nonzero;fill:rgb(39.99939%,39.99939%,39.99939%);fill-opacity:0.3;" d="M 168.910156 93.132812 L 151.238281 95.105469 L 147.503906 95.496094 L 125.472656 97.070312 L 120.390625 99.667969 L 98.296875 102.253906 L 98.453125 105.925781 L 94.832031 106.246094 L 75.773438 107.902344 L 71.152344 108.242188 L 63.070312 108.714844 L 63.144531 112.484375 L 51.117188 114.058594 L 49.214844 114.238281 L 47.355469 114.414062 L 61.300781 263.964844 L -40.367188 248.855469 L -95.289062 240.171875 L -96.101562 240.03125 L -129.378906 231.023438 L -160.878906 223.921875 L -150.328125 197.363281 L -150.253906 200.25 L -148.585938 204.191406 L -146.566406 205.835938 L -143.832031 206.964844 L -128.296875 210.828125 L -120.445312 211.464844 L -118.226562 211.300781 L -115.839844 210.648438 L -112.941406 208.863281 L -109.875 204.652344 L -105.105469 197.84375 L -102.382812 194.765625 L -96.25 186.5 L -93.183594 182.449219 L -90.289062 177.429688 L -88.933594 172.246094 L -89.28125 167.550781 L -91.164062 164.480469 L -92.359375 162.539062 L -94.460938 159.625 L -94.542969 158.949219 L -94.425781 158.613281 L -94.34375 158.277344 L -93.753906 157.75 L -86.929688 155.488281 L -81.035156 152.371094 L -76.367188 148.839844 L -70.742188 144.300781 L -68.1875 140.734375 L -52.667969 119.359375 L -48.214844 112.738281 L -32.070312 91.816406 L -28.171875 88.371094 L -15.84375 88.394531 L -1.402344 84.898438 L 19.691406 65.953125 L 39.496094 48.132812 L 41.425781 47.304688 L 80.070312 32.992188 L 158.046875 2.355469 L 166.183594 5.261719 L 168.148438 12.363281 L 176.855469 37.933594 L 184.574219 45.964844 L 187.597656 46.1875 L 192.011719 47.015625 L 193.457031 46.621094 L 199.039062 47.035156 L 206.628906 43.664062 L 214.285156 59.140625 L 219.925781 78.28125 L 180.382812 81.976562 L 167.507812 83.382812 Z M 168.910156 93.132812 "/>
<path style=" stroke:none;fill-rule:nonzero;fill:rgb(39.99939%,39.99939%,39.99939%);fill-opacity:0.3;" d="M 327.144531 -36.671875 L 327.898438 -32.09375 L 328.292969 -22.898438 L 325.757812 -12.46875 L 320.824219 7.175781 L 316.054688 24.0625 L 312.992188 35.429688 L 310.609375 45.171875 L 309.25 51.574219 L 308.0625 58.230469 L 306.691406 63.566406 L 302.527344 63.875 L 297.789062 64.179688 L 295.089844 64.425781 L 261.816406 66.890625 L 247.09375 67.375 L 247.144531 67.976562 L 242.835938 68.296875 L 243.257812 75.910156 L 225.3125 77.382812 L 217.746094 53.65625 L 212.546875 40.585938 L 214.035156 37.410156 L 214.285156 35.109375 L 216.785156 34.523438 L 222.925781 36.8125 L 229.242188 36.445312 L 238.015625 34.035156 L 245.835938 29.835938 L 247.714844 27.5625 L 248.148438 23.4375 L 245.460938 6.953125 L 241.648438 -23.796875 L 241.980469 -31.101562 L 242.476562 -43.601562 L 243.496094 -49.121094 L 248.203125 -48.832031 L 301.933594 -45.519531 L 302.027344 -45.488281 L 302.203125 -39.832031 L 314.011719 -39.363281 L 314.058594 -41.265625 Z M 327.144531 -36.671875 "/>
<g clip-path="url(#clip28)" clip-rule="nonzero">
<path style=" stroke:none;fill-rule:nonzero;fill:rgb(39.99939%,39.99939%,39.99939%);fill-opacity:0.3;" d="M 340.917969 51.105469 L 341.96875 46.480469 L 345.441406 47.191406 L 344.570312 51.027344 L 346.875 51.5 L 347.746094 47.664062 L 351.21875 48.378906 L 350.167969 53 L 355.625 54.121094 L 356.675781 49.496094 L 360.148438 50.210938 L 359.097656 54.824219 L 357.554688 54.515625 L 356.503906 59.140625 L 353.03125 58.425781 L 353.902344 54.59375 L 351.597656 54.121094 L 350.726562 57.953125 L 347.253906 57.242188 L 348.308594 52.621094 L 342.847656 51.5 L 341.796875 56.125 L 338.324219 55.410156 L 339.195312 51.578125 L 336.890625 51.105469 L 336.019531 54.9375 L 332.546875 54.226562 L 333.601562 49.601562 L 328.140625 48.484375 L 327.089844 53.105469 L 323.617188 52.394531 L 324.667969 47.769531 L 326.210938 48.085938 L 327.261719 43.464844 L 330.734375 44.175781 L 329.863281 48.011719 L 332.167969 48.484375 L 333.039062 44.648438 L 336.511719 45.363281 L 335.460938 49.984375 Z M 340.917969 51.105469 "/>
</g>
<g clip-path="url(#clip29)" clip-rule="nonzero">
<path style=" stroke:none;fill-rule:nonzero;fill:rgb(39.99939%,39.99939%,39.99939%);fill-opacity:0.3;" d="M 363.648438 -11.480469 L 368.507812 -10.484375 L 367.488281 -5.957031 L 369.152344 -5.617188 L 369.867188 -8.75 L 373.339844 -8.042969 L 372.535156 -4.5 L 377.984375 -3.386719 L 376.71875 2.136719 L 373.488281 1.472656 L 372.589844 5.425781 L 371.222656 5.144531 L 370.40625 8.78125 L 364.574219 7.585938 L 363.960938 10.28125 L 358.773438 9.21875 L 358.566406 10.132812 L 355.09375 9.421875 L 356.144531 4.804688 L 361.332031 5.859375 L 361.539062 4.953125 L 365.976562 5.855469 L 366.285156 4.488281 L 369.039062 5.050781 L 370.167969 0.0976562 L 373.398438 0.753906 L 374.265625 -3.015625 L 372.289062 -3.421875 L 368.582031 -4.179688 L 367.867188 -1.042969 L 364.394531 -1.753906 L 365.726562 -7.601562 L 362.898438 -8.183594 Z M 363.648438 -11.480469 "/>
</g>
<g clip-path="url(#clip30)" clip-rule="nonzero">
<path style=" stroke:none;fill-rule:nonzero;fill:rgb(39.99939%,39.99939%,39.99939%);fill-opacity:0.3;" d="M 356.109375 20.28125 L 360.945312 21.273438 L 360.449219 23.652344 L 365.265625 24.640625 L 364.617188 27.5 L 369.703125 28.539062 L 367.996094 35.894531 L 362.703125 34.808594 L 362.042969 37.714844 L 356.109375 36.5 L 355.566406 38.890625 L 354.65625 38.707031 L 353.675781 43.03125 L 348.09375 41.886719 L 347.5 44.503906 L 342.628906 43.503906 L 343.371094 40.207031 L 348.953125 41.351562 L 349.542969 38.734375 L 350.460938 38.921875 L 351.535156 34.148438 L 344.851562 32.78125 L 344.9375 32.355469 L 345.945312 27.890625 L 342.886719 27.261719 L 343.628906 23.964844 L 348.503906 24.964844 L 347.492188 29.429688 L 350.554688 30.058594 L 349.808594 33.355469 L 351.632812 33.726562 L 357.570312 34.941406 L 357.914062 33.421875 L 363.207031 34.503906 L 364.707031 28.003906 L 359.644531 26.9375 L 360.242188 24.578125 L 355.367188 23.578125 L 355.878906 21.3125 L 351.003906 20.3125 L 351.746094 17.015625 L 356.621094 18.015625 Z M 356.109375 20.28125 "/>
</g>
<path style=" stroke:none;fill-rule:nonzero;fill:rgb(39.99939%,39.99939%,39.99939%);fill-opacity:0.3;" d="M 342.246094 0.808594 L 342.550781 -0.570312 L 347.421875 0.429688 L 346.671875 3.726562 L 341.8125 2.726562 L 340.667969 7.757812 L 345.542969 8.757812 L 344.800781 12.054688 L 340.753906 11.226562 L 340.253906 13.414062 L 344.285156 14.242188 L 343.542969 17.539062 L 338.675781 16.539062 L 338.335938 17.992188 L 333.476562 16.996094 L 332.96875 19.199219 L 333.972656 19.402344 L 333.222656 22.699219 L 332.308594 22.511719 L 332.132812 23.21875 L 331.082031 27.835938 L 336.664062 28.980469 L 337.71875 24.355469 L 341.1875 25.070312 L 340.140625 29.683594 L 338.597656 29.371094 L 337.542969 34 L 334.070312 33.292969 L 334.945312 29.453125 L 332.640625 28.980469 L 331.769531 32.804688 L 328.296875 32.101562 L 329.347656 27.480469 L 327.609375 27.128906 L 328.660156 22.507812 L 328.824219 21.796875 L 328.363281 21.703125 L 329.105469 18.40625 L 328.109375 18.199219 L 328.851562 14.902344 L 333.71875 15.902344 L 334.21875 13.695312 L 339.085938 14.695312 L 340.253906 9.589844 L 335.378906 8.59375 L 336.121094 5.292969 L 340.167969 6.125 L 340.667969 3.933594 L 336.636719 3.109375 L 337.378906 -0.191406 Z M 342.246094 0.808594 "/>
<path style=" stroke:none;fill-rule:nonzero;fill:rgb(39.99939%,39.99939%,39.99939%);fill-opacity:0.3;" d="M 352.015625 -6.414062 L 352.765625 -9.710938 L 353.597656 -9.539062 L 354.03125 -9.449219 L 354.953125 -13.523438 L 359.820312 -12.523438 L 359.070312 -9.226562 L 357.804688 -9.488281 L 355.707031 -0.179688 L 356.746094 0.0351562 L 355.984375 3.375 L 351.132812 2.335938 L 352.0625 -1.773438 L 351.03125 -1.984375 L 351.773438 -5.285156 L 353.132812 -5.007812 L 353.378906 -6.136719 Z M 352.015625 -6.414062 "/>
<path style="fill-rule:nonzero;fill:rgb(39.99939%,39.99939%,39.99939%);fill-opacity:1;stroke-width:0.03;stroke-linecap:square;stroke-linejoin:miter;stroke:rgb(39.99939%,39.99939%,39.99939%);stroke-opacity:1;stroke-miterlimit:3.239307;" d="M 224.910156 164.484375 L 229.539062 216.269531 L 209.398438 217.125 L 204.042969 165.847656 Z M 224.910156 164.484375 " transform="matrix(1,0,0,1,-74,-13)"/>
<path style="fill-rule:nonzero;fill:rgb(39.99939%,39.99939%,39.99939%);fill-opacity:1;stroke-width:0.03;stroke-linecap:square;stroke-linejoin:miter;stroke:rgb(39.99939%,39.99939%,39.99939%);stroke-opacity:1;stroke-miterlimit:3.239307;" d="M 250.390625 162.394531 L 254.660156 215.015625 L 233.632812 216.40625 L 228.574219 164.339844 Z M 250.390625 162.394531 " transform="matrix(1,0,0,1,-74,-13)"/>
<path style="fill-rule:nonzero;fill:rgb(39.99939%,39.99939%,39.99939%);fill-opacity:1;stroke-width:0.03;stroke-linecap:square;stroke-linejoin:miter;stroke:rgb(39.99939%,39.99939%,39.99939%);stroke-opacity:1;stroke-miterlimit:3.239307;" d="M 275.269531 160.859375 L 280.691406 212.796875 L 258.414062 214.875 L 254.4375 162.25 Z M 275.269531 160.859375 " transform="matrix(1,0,0,1,-74,-13)"/>
<path style="fill-rule:nonzero;fill:rgb(39.99939%,39.99939%,39.99939%);fill-opacity:1;stroke-width:0.03;stroke-linecap:square;stroke-linejoin:miter;stroke:rgb(39.99939%,39.99939%,39.99939%);stroke-opacity:1;stroke-miterlimit:3.239307;" d="M 322.203125 269.773438 L 333.792969 268.972656 L 322.203125 316.066406 L 320.847656 321.570312 L 317.316406 320.273438 L 314.035156 270.335938 Z M 322.203125 269.773438 " transform="matrix(1,0,0,1,-74,-13)"/>
<path style="fill-rule:nonzero;fill:rgb(39.99939%,39.99939%,39.99939%);fill-opacity:1;stroke-width:0.03;stroke-linecap:square;stroke-linejoin:miter;stroke:rgb(39.99939%,39.99939%,39.99939%);stroke-opacity:1;stroke-miterlimit:3.239307;" d="M 310.449219 279.429688 L 311.785156 295.699219 L 311.953125 298.1875 L 313.742188 319.472656 L 292.546875 313.359375 L 291.453125 299.699219 L 291.171875 296.957031 L 289.8125 280.6875 L 289.152344 272.796875 L 309.746094 270.910156 Z M 310.449219 279.429688 " transform="matrix(1,0,0,1,-74,-13)"/>
<path style="fill-rule:nonzero;fill:rgb(39.99939%,39.99939%,39.99939%);fill-opacity:1;stroke-width:0.03;stroke-linecap:square;stroke-linejoin:miter;stroke:rgb(39.99939%,39.99939%,39.99939%);stroke-opacity:1;stroke-miterlimit:3.239307;" d="M 322.203125 213.328125 L 331.070312 212.765625 L 335.230469 260.933594 L 334.222656 264.5 L 322.203125 265.457031 L 313.277344 266.171875 L 308.84375 214.175781 Z M 322.203125 213.328125 " transform="matrix(1,0,0,1,-74,-13)"/>
<path style="fill-rule:nonzero;fill:rgb(39.99939%,39.99939%,39.99939%);fill-opacity:1;stroke-width:0.03;stroke-linecap:square;stroke-linejoin:miter;stroke:rgb(39.99939%,39.99939%,39.99939%);stroke-opacity:1;stroke-miterlimit:3.239307;" d="M 306.265625 214.375 L 310.476562 266.632812 L 288.324219 268.632812 L 283.363281 216.195312 Z M 306.265625 214.375 " transform="matrix(1,0,0,1,-74,-13)"/>
<path style="fill-rule:nonzero;fill:rgb(39.99939%,39.99939%,39.99939%);fill-opacity:1;stroke-width:0.03;stroke-linecap:square;stroke-linejoin:miter;stroke:rgb(39.99939%,39.99939%,39.99939%);stroke-opacity:1;stroke-miterlimit:3.239307;" d="M 346.695312 216.972656 L 338.195312 251 L 337.035156 250.90625 L 333.964844 212.429688 L 347.917969 211.527344 Z M 346.695312 216.972656 " transform="matrix(1,0,0,1,-74,-13)"/>
<path style="fill-rule:nonzero;fill:rgb(39.99939%,39.99939%,39.99939%);fill-opacity:1;stroke-width:0.03;stroke-linecap:square;stroke-linejoin:miter;stroke:rgb(39.99939%,39.99939%,39.99939%);stroke-opacity:1;stroke-miterlimit:3.239307;" d="M 322.203125 156.652344 L 326.867188 156.257812 L 330.386719 208.445312 L 322.203125 209.078125 L 309.046875 210.097656 L 303.898438 158.207031 Z M 322.203125 156.652344 " transform="matrix(1,0,0,1,-74,-13)"/>
<path style="fill-rule:nonzero;fill:rgb(39.99939%,39.99939%,39.99939%);fill-opacity:1;stroke-width:0.03;stroke-linecap:square;stroke-linejoin:miter;stroke:rgb(39.99939%,39.99939%,39.99939%);stroke-opacity:1;stroke-miterlimit:3.239307;" d="M 301.453125 158.550781 L 306.039062 210.460938 L 284.070312 212.539062 L 278.59375 160.582031 Z M 301.453125 158.550781 " transform="matrix(1,0,0,1,-74,-13)"/>
<path style="fill-rule:nonzero;fill:rgb(39.99939%,39.99939%,39.99939%);fill-opacity:1;stroke-width:0.03;stroke-linecap:square;stroke-linejoin:miter;stroke:rgb(39.99939%,39.99939%,39.99939%);stroke-opacity:1;stroke-miterlimit:3.239307;" d="M 351.472656 153.832031 L 354.53125 186.519531 L 352.679688 193.925781 L 349.050781 207.128906 L 333.027344 208.246094 L 329.46875 155.707031 Z M 351.472656 153.832031 " transform="matrix(1,0,0,1,-74,-13)"/>
<path style="fill-rule:nonzero;fill:rgb(39.99939%,39.99939%,39.99939%);fill-opacity:1;stroke-width:0.03;stroke-linecap:square;stroke-linejoin:miter;stroke:rgb(39.99939%,39.99939%,39.99939%);stroke-opacity:1;stroke-miterlimit:3.239307;" d="M 243.769531 114.015625 L 248.777344 159.136719 L 228.652344 160.914062 L 225.851562 116.660156 Z M 243.769531 114.015625 " transform="matrix(1,0,0,1,-74,-13)"/>
<path style="fill-rule:nonzero;fill:rgb(39.99939%,39.99939%,39.99939%);fill-opacity:1;stroke-width:0.03;stroke-linecap:square;stroke-linejoin:miter;stroke:rgb(39.99939%,39.99939%,39.99939%);stroke-opacity:1;stroke-miterlimit:3.239307;" d="M 296.539062 93.800781 L 301.359375 154.300781 L 279.078125 155.867188 L 273.554688 96.0625 Z M 296.539062 93.800781 " transform="matrix(1,0,0,1,-74,-13)"/>
<path style="fill-rule:nonzero;fill:rgb(39.99939%,39.99939%,39.99939%);fill-opacity:1;stroke-width:0.03;stroke-linecap:square;stroke-linejoin:miter;stroke:rgb(39.99939%,39.99939%,39.99939%);stroke-opacity:1;stroke-miterlimit:3.239307;" d="M 322.203125 109.492188 L 326.996094 152.339844 L 322.203125 152.753906 L 304.226562 154.304688 L 299.453125 93.101562 L 320.179688 91.386719 Z M 322.203125 109.492188 " transform="matrix(1,0,0,1,-74,-13)"/>
<path style="fill-rule:nonzero;fill:rgb(39.99939%,39.99939%,39.99939%);fill-opacity:1;stroke-width:0.03;stroke-linecap:square;stroke-linejoin:miter;stroke:rgb(39.99939%,39.99939%,39.99939%);stroke-opacity:1;stroke-miterlimit:3.239307;" d="M 345.320312 81.253906 L 350.78125 150.628906 L 329.425781 152.191406 L 322.480469 83.042969 Z M 345.320312 81.253906 " transform="matrix(1,0,0,1,-74,-13)"/>
<path style="fill-rule:nonzero;fill:rgb(39.99939%,39.99939%,39.99939%);fill-opacity:1;stroke-width:0.03;stroke-linecap:square;stroke-linejoin:miter;stroke:rgb(39.99939%,39.99939%,39.99939%);stroke-opacity:1;stroke-miterlimit:3.239307;" d="M 214.273438 277.992188 L 235.289062 276.71875 L 237.125 295.875 L 215.4375 289.203125 Z M 214.273438 277.992188 " transform="matrix(1,0,0,1,-74,-13)"/>
<path style="fill-rule:nonzero;fill:rgb(39.99939%,39.99939%,39.99939%);fill-opacity:1;stroke-width:0.03;stroke-linecap:square;stroke-linejoin:miter;stroke:rgb(39.99939%,39.99939%,39.99939%);stroke-opacity:1;stroke-miterlimit:3.239307;" d="M 239.554688 276.757812 L 260.839844 275.195312 L 262.273438 303.285156 L 241.722656 297.113281 Z M 239.554688 276.757812 " transform="matrix(1,0,0,1,-74,-13)"/>
<path style="fill-rule:nonzero;fill:rgb(39.99939%,39.99939%,39.99939%);fill-opacity:1;stroke-width:0.03;stroke-linecap:square;stroke-linejoin:miter;stroke:rgb(39.99939%,39.99939%,39.99939%);stroke-opacity:1;stroke-miterlimit:3.239307;" d="M 287.441406 298.074219 L 288.59375 312.007812 L 265.945312 304.160156 L 265.671875 298.976562 L 264.410156 275.082031 L 285.398438 273.347656 Z M 287.441406 298.074219 " transform="matrix(1,0,0,1,-74,-13)"/>
<path style="fill-rule:nonzero;fill:rgb(39.99939%,39.99939%,39.99939%);fill-opacity:1;stroke-width:0.03;stroke-linecap:square;stroke-linejoin:miter;stroke:rgb(39.99939%,39.99939%,39.99939%);stroke-opacity:1;stroke-miterlimit:3.239307;" d="M 231.257812 220.085938 L 236.210938 273.097656 L 215.324219 274.730469 L 209.882812 221.992188 Z M 231.257812 220.085938 " transform="matrix(1,0,0,1,-74,-13)"/>
<path style="fill-rule:nonzero;fill:rgb(39.99939%,39.99939%,39.99939%);fill-opacity:1;stroke-width:0.03;stroke-linecap:square;stroke-linejoin:miter;stroke:rgb(39.99939%,39.99939%,39.99939%);stroke-opacity:1;stroke-miterlimit:3.239307;" d="M 254.980469 219.375 L 259.679688 270.625 L 238.875 272.710938 L 234.464844 220.636719 Z M 254.980469 219.375 " transform="matrix(1,0,0,1,-74,-13)"/>
<path style="fill-rule:nonzero;fill:rgb(39.99939%,39.99939%,39.99939%);fill-opacity:1;stroke-width:0.03;stroke-linecap:square;stroke-linejoin:miter;stroke:rgb(39.99939%,39.99939%,39.99939%);stroke-opacity:1;stroke-miterlimit:3.239307;" d="M 280.8125 216.570312 L 285.25 269.085938 L 264.011719 270.484375 L 259.429688 218.832031 Z M 280.8125 216.570312 " transform="matrix(1,0,0,1,-74,-13)"/>
<path style="fill-rule:nonzero;fill:rgb(39.99939%,39.99939%,39.99939%);fill-opacity:1;stroke-width:0.03;stroke-linecap:square;stroke-linejoin:miter;stroke:rgb(39.99939%,39.99939%,39.99939%);stroke-opacity:1;stroke-miterlimit:3.239307;" d="M 363.582031 152.4375 L 356.230469 177.324219 L 353.324219 153.585938 Z M 363.582031 152.4375 " transform="matrix(1,0,0,1,-74,-13)"/>
<path style="fill-rule:nonzero;fill:rgb(39.99939%,39.99939%,39.99939%);fill-opacity:1;stroke-width:0.03;stroke-linecap:square;stroke-linejoin:miter;stroke:rgb(39.99939%,39.99939%,39.99939%);stroke-opacity:1;stroke-miterlimit:3.239307;" d="M 371.046875 79.65625 L 382.570312 78.863281 L 379.367188 92.34375 L 371.636719 92.71875 Z M 371.046875 79.65625 " transform="matrix(1,0,0,1,-74,-13)"/>
<path style="fill-rule:nonzero;fill:rgb(39.99939%,39.99939%,39.99939%);fill-opacity:1;stroke-width:0.03;stroke-linecap:square;stroke-linejoin:miter;stroke:rgb(39.99939%,39.99939%,39.99939%);stroke-opacity:1;stroke-miterlimit:3.239307;" d="M 347.835938 81.28125 L 368.859375 79.789062 L 369.644531 93.894531 L 378.953125 93.480469 L 365.410156 148.992188 L 365.402344 149.027344 L 365.179688 149.753906 L 353.289062 150.476562 Z M 347.835938 81.28125 " transform="matrix(1,0,0,1,-74,-13)"/>
<path style="fill-rule:nonzero;fill:rgb(39.99939%,39.99939%,39.99939%);fill-opacity:1;stroke-width:0.03;stroke-linecap:square;stroke-linejoin:miter;stroke:rgb(39.99939%,39.99939%,39.99939%);stroke-opacity:1;stroke-miterlimit:3.239307;" d="M 189.644531 280.515625 L 211.226562 278.40625 L 212.183594 289.125 L 200.304688 285.925781 L 189.53125 282.277344 Z M 189.644531 280.515625 " transform="matrix(1,0,0,1,-74,-13)"/>
<path style="fill-rule:nonzero;fill:rgb(39.99939%,39.99939%,39.99939%);fill-opacity:1;stroke-width:0.03;stroke-linecap:square;stroke-linejoin:miter;stroke:rgb(39.99939%,39.99939%,39.99939%);stroke-opacity:1;stroke-miterlimit:3.239307;" d="M 133.941406 228.320312 L 155.929688 226.566406 L 159.953125 280.652344 L 150.695312 278.566406 L 138.867188 276.796875 Z M 133.941406 228.320312 " transform="matrix(1,0,0,1,-74,-13)"/>
<path style="fill-rule:nonzero;fill:rgb(39.99939%,39.99939%,39.99939%);fill-opacity:1;stroke-width:0.03;stroke-linecap:square;stroke-linejoin:miter;stroke:rgb(39.99939%,39.99939%,39.99939%);stroke-opacity:1;stroke-miterlimit:3.239307;" d="M 145.578125 126.574219 L 149.148438 166.117188 L 128.820312 167.453125 L 125.429688 129.753906 Z M 145.578125 126.574219 " transform="matrix(1,0,0,1,-74,-13)"/>
<path style="fill-rule:nonzero;fill:rgb(39.99939%,39.99939%,39.99939%);fill-opacity:1;stroke-width:0.03;stroke-linecap:square;stroke-linejoin:miter;stroke:rgb(39.99939%,39.99939%,39.99939%);stroke-opacity:1;stroke-miterlimit:3.239307;" d="M 149.019531 169.699219 L 155.503906 220.886719 L 134.25 222.433594 L 128.691406 170.921875 Z M 149.019531 169.699219 " transform="matrix(1,0,0,1,-74,-13)"/>
<path style="fill-rule:nonzero;fill:rgb(39.99939%,39.99939%,39.99939%);fill-opacity:1;stroke-width:0.03;stroke-linecap:square;stroke-linejoin:miter;stroke:rgb(39.99939%,39.99939%,39.99939%);stroke-opacity:1;stroke-miterlimit:3.239307;" d="M 180.953125 224.375 L 185.582031 278.460938 L 162.832031 279.929688 L 158.8125 226.417969 Z M 180.953125 224.375 " transform="matrix(1,0,0,1,-74,-13)"/>
<path style="fill-rule:nonzero;fill:rgb(39.99939%,39.99939%,39.99939%);fill-opacity:1;stroke-width:0.03;stroke-linecap:square;stroke-linejoin:miter;stroke:rgb(39.99939%,39.99939%,39.99939%);stroke-opacity:1;stroke-miterlimit:3.239307;" d="M 204.609375 222.183594 L 209.960938 273.667969 L 188.613281 275.722656 L 183.984375 224.226562 Z M 204.609375 222.183594 " transform="matrix(1,0,0,1,-74,-13)"/>
<path style="fill-rule:nonzero;fill:rgb(39.99939%,39.99939%,39.99939%);fill-opacity:1;stroke-width:0.03;stroke-linecap:square;stroke-linejoin:miter;stroke:rgb(39.99939%,39.99939%,39.99939%);stroke-opacity:1;stroke-miterlimit:3.239307;" d="M 199.671875 166.285156 L 204.753906 217.039062 L 184.121094 218.800781 L 179.425781 167.78125 Z M 199.671875 166.285156 " transform="matrix(1,0,0,1,-74,-13)"/>
<path style="fill-rule:nonzero;fill:rgb(39.99939%,39.99939%,39.99939%);fill-opacity:1;stroke-width:0.03;stroke-linecap:square;stroke-linejoin:miter;stroke:rgb(39.99939%,39.99939%,39.99939%);stroke-opacity:1;stroke-miterlimit:3.239307;" d="M 195.191406 120.757812 L 199.125 162.546875 L 178.480469 164.003906 L 173.664062 121.453125 Z M 195.191406 120.757812 " transform="matrix(1,0,0,1,-74,-13)"/>
<path style="fill-rule:nonzero;fill:rgb(39.99939%,39.99939%,39.99939%);fill-opacity:1;stroke-width:0.03;stroke-linecap:square;stroke-linejoin:miter;stroke:rgb(39.99939%,39.99939%,39.99939%);stroke-opacity:1;stroke-miterlimit:3.239307;" d="M 169.144531 122.148438 L 173.617188 164.484375 L 153.828125 165.996094 L 150.105469 125.773438 Z M 169.144531 122.148438 " transform="matrix(1,0,0,1,-74,-13)"/>
<path style="fill-rule:nonzero;fill:rgb(39.99939%,39.99939%,39.99939%);fill-opacity:1;stroke-width:0.03;stroke-linecap:square;stroke-linejoin:miter;stroke:rgb(39.99939%,39.99939%,39.99939%);stroke-opacity:1;stroke-miterlimit:3.239307;" d="M 173.914062 168.324219 L 178.644531 219.203125 L 160.226562 220.542969 L 154.425781 169.375 Z M 173.914062 168.324219 " transform="matrix(1,0,0,1,-74,-13)"/>
<path style="fill-rule:nonzero;fill:rgb(39.99939%,39.99939%,39.99939%);fill-opacity:1;stroke-width:0.03;stroke-linecap:square;stroke-linejoin:miter;stroke:rgb(39.99939%,39.99939%,39.99939%);stroke-opacity:1;stroke-miterlimit:3.239307;" d="M 222.085938 117.210938 L 222.675781 127.105469 L 224.769531 160.601562 L 203.390625 162.117188 L 201.125 128.167969 L 200.527344 120.242188 Z M 222.085938 117.210938 " transform="matrix(1,0,0,1,-74,-13)"/>
<path style="fill-rule:nonzero;fill:rgb(39.99939%,39.99939%,39.99939%);fill-opacity:1;stroke-width:0.03;stroke-linecap:square;stroke-linejoin:miter;stroke:rgb(39.99939%,39.99939%,39.99939%);stroke-opacity:1;stroke-miterlimit:3.239307;" d="M 271.28125 96.027344 L 276.234375 156.019531 L 254.554688 157.84375 L 250.199219 106.136719 L 247.996094 106.140625 L 247.21875 97.902344 Z M 271.28125 96.027344 " transform="matrix(1,0,0,1,-74,-13)"/>
<path style="fill-rule:nonzero;fill:rgb(39.99939%,39.99939%,39.99939%);fill-opacity:1;stroke-width:0.03;stroke-linecap:square;stroke-linejoin:miter;stroke:rgb(39.99939%,39.99939%,39.99939%);stroke-opacity:1;stroke-miterlimit:3.239307;" d="M 376.527344 76.875 L 369.089844 77.425781 L 371.789062 77.179688 Z M 376.527344 76.875 " transform="matrix(1,0,0,1,-74,-13)"/>
<path style="fill-rule:nonzero;fill:rgb(39.99939%,39.99939%,39.99939%);fill-opacity:1;stroke-width:0.03;stroke-linecap:square;stroke-linejoin:miter;stroke:rgb(39.99939%,39.99939%,39.99939%);stroke-opacity:1;stroke-miterlimit:3.239307;" d="M 335.816406 79.890625 L 322.203125 80.898438 L 321.144531 80.976562 L 321.09375 80.375 Z M 335.816406 79.890625 " transform="matrix(1,0,0,1,-74,-13)"/>
<g clip-path="url(#clip31)" clip-rule="nonzero">
<path style=" stroke:none;fill-rule:evenodd;fill:rgb(85.096741%,85.096741%,81.959534%);fill-opacity:0.7;" d="M 294.964844 367 C 294.964844 362.765625 293.285156 358.703125 290.289062 355.710938 C 287.296875 352.714844 283.234375 351.035156 279 351.035156 C 274.765625 351.035156 270.703125 352.714844 267.710938 355.710938 C 264.714844 358.703125 263.035156 362.765625 263.035156 367 C 263.035156 371.234375 264.714844 375.296875 267.710938 378.289062 C 270.703125 381.285156 274.765625 382.964844 279 382.964844 C 283.234375 382.964844 287.296875 381.285156 290.289062 378.289062 C 293.285156 375.296875 294.964844 371.234375 294.964844 367 Z M 294.964844 367 "/>
</g>
</g>
</svg>
