<?xml version="1.0" encoding="UTF-8"?>
<svg xmlns="http://www.w3.org/2000/svg" xmlns:xlink="http://www.w3.org/1999/xlink" width="361pt" height="361pt" viewBox="0 0 361 361" version="1.1">
<defs>
<clipPath id="clip1">
  <path d="M 121 0 L 360 0 L 360 78 L 121 78 Z M 121 0 "/>
</clipPath>
<clipPath id="clip2">
  <path d="M 343 75 L 360 75 L 360 130 L 343 130 Z M 343 75 "/>
</clipPath>
<clipPath id="clip3">
  <path d="M 308 358 L 319 358 L 319 360 L 308 360 Z M 308 358 "/>
</clipPath>
<clipPath id="clip4">
  <path d="M 204 139 L 360 139 L 360 360 L 204 360 Z M 204 139 "/>
</clipPath>
<clipPath id="clip5">
  <path d="M 0 290 L 58 290 L 58 360 L 0 360 Z M 0 290 "/>
</clipPath>
<clipPath id="clip6">
  <path d="M 0 336 L 11 336 L 11 360 L 0 360 Z M 0 336 "/>
</clipPath>
<clipPath id="clip7">
  <path d="M 0 310 L 41 310 L 41 360 L 0 360 Z M 0 310 "/>
</clipPath>
<clipPath id="clip8">
  <path d="M 46 305 L 191 305 L 191 360 L 46 360 Z M 46 305 "/>
</clipPath>
<clipPath id="clip9">
  <path d="M 210 343 L 360 343 L 360 360 L 210 360 Z M 210 343 "/>
</clipPath>
<clipPath id="clip10">
  <path d="M 165 326 L 221 326 L 221 360 L 165 360 Z M 165 326 "/>
</clipPath>
</defs>
<g id="surface371">
<path style="fill-rule:nonzero;fill:rgb(0%,0%,0%);fill-opacity:1;stroke-width:0.03;stroke-linecap:square;stroke-linejoin:miter;stroke:rgb(0%,0%,0%);stroke-opacity:1;stroke-miterlimit:10;" d="M 0 178 L 360 178 L 360 -182 L 0 -182 Z M 0 178 " transform="matrix(1,0,0,1,0,182)"/>
<g clip-path="url(#clip1)" clip-rule="nonzero">
<path style=" stroke:none;fill-rule:nonzero;fill:rgb(39.99939%,39.99939%,39.99939%);fill-opacity:0.3;" d="M 191.945312 -120.234375 L 338.570312 -11.824219 L 344.816406 -8.769531 L 351.664062 -7.816406 L 356.699219 -8.582031 L 361.734375 -6.671875 L 385.707031 6.4375 L 399.390625 77.554688 L 386.886719 76.433594 L 379.871094 50.542969 L 375.816406 45.695312 L 374.6875 46.296875 L 373.558594 46.902344 L 377.410156 51.167969 L 384.28125 76.511719 L 339.015625 71.234375 L 343.429688 53.53125 L 342.273438 53.316406 L 341.121094 53.101562 L 335.859375 70.738281 L 303.398438 66.816406 L 303.664062 64.964844 L 313.601562 42.746094 L 321.433594 26.6875 L 320.335938 26.179688 L 319.238281 25.667969 L 312.59375 39.664062 L 300.347656 66.25 L 288.621094 64.789062 L 279.222656 62.578125 L 277.980469 62.484375 L 283.292969 45.597656 L 282.878906 43.558594 L 283.128906 42.226562 L 292.316406 21.339844 L 307.820312 -13.898438 L 306.0625 -14.867188 L 291.347656 18.242188 L 283.894531 15.734375 L 282.871094 15.996094 L 276.203125 32.8125 L 277.261719 33.070312 L 278.324219 33.328125 L 284.386719 18.179688 L 289.945312 20.523438 L 280.402344 42.777344 L 280.980469 45.285156 L 277.4375 56.390625 L 275.523438 62.304688 L 266.203125 61.621094 L 202.894531 53.664062 L 208.128906 37.210938 L 217.957031 5.792969 L 229.699219 -31.859375 L 236.539062 -30.304688 L 261.582031 -22.988281 L 262.101562 -24.476562 L 262.625 -25.960938 L 230.972656 -35.648438 L 235.9375 -55 L 233.78125 -55.515625 L 228.289062 -37.007812 L 220.914062 -12.171875 L 211.996094 13.210938 L 199.496094 53.066406 L 121.382812 39.855469 L 132.460938 1.257812 L 144.8125 -37.386719 L 162.414062 -87.175781 L 164.300781 -89.816406 L 164.855469 -91.609375 L 174.160156 -119.292969 L 174.445312 -119.933594 L 177.234375 -128.640625 L 177.589844 -128.421875 Z M 191.945312 -120.234375 "/>
</g>
<path style=" stroke:none;fill-rule:nonzero;fill:rgb(39.99939%,39.99939%,39.99939%);fill-opacity:0.3;" d="M 76.03125 -57 L 96.394531 -52.15625 L 70.027344 33.335938 L 49.890625 30.832031 L 64.679688 -16.726562 L 70.824219 -15.230469 L 71.210938 -16.441406 L 71.699219 -17.972656 L 65.5 -19.519531 L 71.101562 -39.460938 L 75.898438 -38.726562 L 76.089844 -39.5625 L 76.3125 -40.417969 L 71.6875 -41.542969 Z M 76.03125 -57 "/>
<path style=" stroke:none;fill-rule:nonzero;fill:rgb(39.99939%,39.99939%,39.99939%);fill-opacity:0.3;" d="M 83.90625 -0.253906 L 88.945312 -15.1875 L 97.734375 -47.621094 L 98.914062 -51.46875 L 99.925781 -54.355469 L 103.257812 -65.214844 L 101.90625 -65.507812 L 100.117188 -65.898438 L 97.160156 -54.550781 L 78.046875 -59.484375 L 87.015625 -89.671875 L 107.402344 -156.574219 L 115.566406 -153.585938 L 106.117188 -119.636719 L 105.84375 -118.390625 L 106.195312 -117.988281 L 107.597656 -117.488281 L 117.636719 -114.292969 L 117.863281 -115.164062 L 118.117188 -116.015625 L 109.386719 -118.832031 L 113.894531 -135.171875 L 119.003906 -152.222656 L 136.554688 -146.03125 L 150.074219 -144.871094 L 151.890625 -144.191406 L 174.757812 -130.160156 L 172.148438 -122.898438 L 170.96875 -118.714844 L 161.898438 -91.082031 L 160.285156 -91.050781 L 143.144531 -42.253906 L 131.703125 -8.726562 L 128.503906 3.480469 L 116.980469 39.332031 L 92.707031 36.246094 L 95.269531 13.09375 L 92.417969 12.304688 L 87.960938 35.640625 L 74.488281 33.929688 Z M 83.90625 -0.253906 "/>
<path style=" stroke:none;fill-rule:nonzero;fill:rgb(39.99939%,39.99939%,39.99939%);fill-opacity:0.3;" d="M 78.097656 -166.667969 L 26.277344 14.632812 L 8.761719 8.636719 L 59.910156 -172.828125 L 60.191406 -172.8125 L 62.386719 -173.125 Z M 78.097656 -166.667969 "/>
<path style=" stroke:none;fill-rule:nonzero;fill:rgb(39.99939%,39.99939%,39.99939%);fill-opacity:0.3;" d="M 48.960938 21.234375 L 28.515625 15.363281 L 80.867188 -165.738281 L 104.648438 -157.496094 Z M 48.960938 21.234375 "/>
<path style=" stroke:none;fill-rule:nonzero;fill:rgb(39.99939%,39.99939%,39.99939%);fill-opacity:0.3;" d="M 47.410156 24.761719 L 45.949219 30.269531 L -51.660156 17.546875 L -44.878906 -2.761719 L -44.265625 -4.277344 Z M 47.410156 24.761719 "/>
<path style=" stroke:none;fill-rule:nonzero;fill:rgb(39.99939%,39.99939%,39.99939%);fill-opacity:0.3;" d="M 35.207031 -94.335938 L 6.316406 7.648438 L -22.019531 -0.996094 L -21.613281 -2.171875 L 12.804688 -102.609375 L 24.125 -100.1875 L 30.238281 -120.347656 L 29.414062 -120.558594 L 28.59375 -120.769531 L 22.964844 -101.707031 L 2.425781 -106.578125 L 8.535156 -123.269531 L 6.699219 -123.996094 L 4.859375 -124.722656 L -30.941406 -5.089844 L -40.917969 -8.378906 L -19.449219 -72.398438 L -14.574219 -85.199219 L -6.394531 -107.394531 L 16.382812 -175.730469 L 47.484375 -173.65625 L 41.507812 -155.289062 L 43.742188 -154.429688 L 49.761719 -173.503906 L 57.492188 -172.992188 L 51.738281 -152.679688 Z M 35.207031 -94.335938 "/>
<path style=" stroke:none;fill-rule:nonzero;fill:rgb(39.99939%,39.99939%,39.99939%);fill-opacity:0.3;" d="M 288.621094 64.789062 L 277.683594 63.425781 L 277.980469 62.484375 L 279.222656 62.578125 Z M 288.621094 64.789062 "/>
<path style=" stroke:none;fill-rule:nonzero;fill:rgb(39.99939%,39.99939%,39.99939%);fill-opacity:0.3;" d="M 275.523438 62.304688 L 275.375 62.773438 L 266.203125 61.621094 Z M 275.523438 62.304688 "/>
<path style=" stroke:none;fill-rule:nonzero;fill:rgb(39.99939%,39.99939%,39.99939%);fill-opacity:0.3;" d="M 238.535156 159.097656 L 242.191406 170.390625 L 242.054688 172.1875 L 241.921875 173.984375 L 241.109375 175.394531 L 214.195312 204.066406 L 213.378906 204.261719 L 212.765625 204.261719 L 207.867188 193.816406 L 207.066406 191.039062 L 207.511719 189.070312 L 237.183594 158.199219 Z M 238.535156 159.097656 "/>
<path style=" stroke:none;fill-rule:nonzero;fill:rgb(39.99939%,39.99939%,39.99939%);fill-opacity:0.3;" d="M 233.773438 209.765625 L 238.039062 205.632812 L 247.691406 196.25 L 260.480469 184.515625 L 274.203125 173.375 L 280.550781 168.707031 L 288.128906 162.890625 L 290.78125 161.855469 L 292.945312 161.644531 L 295.066406 162.28125 L 295.894531 163.707031 L 296.0625 164.929688 L 295.109375 166.195312 L 293.925781 167.363281 L 293.011719 168.265625 L 291.316406 169.960938 L 290.535156 170.746094 L 289.566406 171.726562 L 288.792969 172.515625 L 288.082031 173.242188 L 287.316406 174.027344 L 286.617188 174.746094 L 285.730469 175.667969 L 284.90625 176.523438 L 284.210938 177.25 L 283.519531 177.980469 L 282.757812 178.785156 L 282.179688 179.398438 L 281.605469 180.011719 L 281.09375 180.554688 L 280.269531 181.441406 L 279.894531 181.84375 L 269.867188 191.371094 L 265.675781 195.488281 L 262.351562 198.371094 L 258.59375 201.804688 L 255.847656 204.824219 L 252.957031 207.980469 L 249.488281 212.238281 L 247.25 214.984375 L 244.550781 218.933594 L 242.472656 222.289062 L 240.808594 225.148438 L 238.628906 229.097656 L 236.027344 234.089844 L 236.386719 216.460938 L 233.847656 216.789062 L 233.550781 240.050781 L 228.570312 248.882812 L 227.34375 250.824219 L 225.167969 254.957031 L 222.855469 258.578125 L 219.457031 263.359375 L 215.765625 267.9375 L 212.363281 271.425781 L 203.898438 279.210938 L 200.085938 281.667969 L 197.636719 283.476562 L 194.507812 285.027344 L 191.511719 286.453125 L 189.0625 287.355469 L 188.484375 287.585938 L 184.773438 236.652344 L 187.734375 235.871094 L 210.066406 227.347656 L 223.179688 220.328125 L 228.441406 216.542969 L 231.320312 212.78125 Z M 233.773438 209.765625 "/>
<path style=" stroke:none;fill-rule:nonzero;fill:rgb(39.99939%,39.99939%,39.99939%);fill-opacity:0.3;" d="M 200.316406 127.003906 L 229.132812 132.332031 L 226.71875 135.859375 L 223.492188 142.0625 L 217.03125 154.203125 L 209.992188 169.332031 L 201.910156 189.070312 L 202.003906 192.789062 L 216.203125 221.046875 L 211.390625 223.234375 L 204.882812 225.917969 L 196.730469 229.121094 L 189.910156 231.355469 L 184.671875 232.925781 L 187.519531 178.808594 L 198.617188 136.757812 Z M 200.316406 127.003906 "/>
<path style=" stroke:none;fill-rule:nonzero;fill:rgb(39.99939%,39.99939%,39.99939%);fill-opacity:0.3;" d="M 227.070312 127.339844 L 226.960938 127.710938 L 226.285156 128.351562 L 225.382812 128.566406 L 223.578125 128.566406 L 215.257812 127.0625 L 215.496094 125.558594 Z M 227.070312 127.339844 "/>
<path style=" stroke:none;fill-rule:nonzero;fill:rgb(39.99939%,39.99939%,39.99939%);fill-opacity:0.3;" d="M 210.882812 124.847656 L 210.621094 126.226562 L 200.761719 124.445312 L 200.957031 123.320312 Z M 210.882812 124.847656 "/>
<g clip-path="url(#clip2)" clip-rule="nonzero">
<path style=" stroke:none;fill-rule:nonzero;fill:rgb(39.99939%,39.99939%,39.99939%);fill-opacity:0.3;" d="M 353.015625 129.328125 L 352.886719 128.765625 L 347.0625 97.703125 L 343.617188 75.503906 L 394.777344 81.28125 L 395.089844 81.527344 L 395.320312 81.796875 L 395.453125 82.117188 L 395.53125 82.5625 L 395.613281 83.523438 L 395.0625 117.746094 L 395.066406 120.613281 L 394.6875 121.6875 L 394.121094 122.40625 L 392.800781 122.765625 L 381 124.132812 L 364.976562 126.882812 L 364.214844 127.199219 L 363.539062 127.292969 L 362.816406 127.472656 L 353.496094 129.71875 Z M 353.015625 129.328125 "/>
</g>
<path style=" stroke:none;fill-rule:nonzero;fill:rgb(39.99939%,39.99939%,39.99939%);fill-opacity:0.3;" d="M 291.625 117.65625 L 290.746094 118.425781 L 290.023438 119.0625 L 313.1875 149.265625 L 310.164062 151.265625 L 301.296875 158.03125 L 276.621094 125.671875 L 269.761719 115.328125 L 268.042969 105.496094 L 265.707031 105.941406 L 266.882812 116.066406 L 274.113281 127.085938 L 299.90625 159.714844 L 299.019531 160.3125 L 297.816406 160.976562 L 296.554688 160.855469 L 295.132812 160.433594 L 292.441406 159.703125 L 289.351562 159.789062 L 286.320312 161.347656 L 284.480469 162.59375 L 278.542969 166.984375 L 271.953125 171.539062 L 259.261719 182.082031 L 245.972656 194 L 236 203.375 L 231.351562 207.730469 L 228.632812 211.003906 L 225.054688 214.628906 L 220.496094 217.492188 L 214.609375 209.605469 L 214.242188 208.699219 L 214.738281 207.488281 L 242.664062 179.804688 L 243.886719 178.0625 L 244.902344 176.125 L 245.515625 174.578125 L 245.515625 171.675781 L 245.308594 169.933594 L 244.898438 167.804688 L 240.203125 156.199219 L 239.871094 155.398438 L 231.238281 148.621094 L 230.910156 147.996094 L 230.828125 146.984375 L 232.777344 131.382812 L 233.1875 130.738281 L 241.007812 131.074219 L 241.417969 131.226562 L 241.773438 131.675781 L 243.507812 131.722656 L 243.398438 130.390625 L 243.34375 129.738281 L 231.429688 128.496094 L 230.609375 128.105469 L 230.367188 127.847656 L 231.328125 127.996094 L 233.664062 89.445312 L 235.503906 85.152344 L 236.378906 84.371094 L 237.183594 81.492188 L 237.210938 81.195312 L 239.503906 77.179688 L 239.503906 64.621094 L 258.449219 65.886719 L 340.761719 75.179688 L 345.003906 99 L 351.226562 130.011719 L 350.914062 130.617188 L 345.679688 132.445312 L 344.917969 132.820312 L 339.363281 92.09375 L 338.214844 92.3125 L 337.253906 92.496094 L 342.84375 133.6875 L 342.308594 134.246094 L 337.929688 136.253906 L 332.542969 138.757812 L 323.890625 142.179688 L 306.667969 118.71875 L 305.519531 119.242188 L 304.398438 119.75 L 321.292969 143.535156 L 317.183594 146.625 L 315.011719 148.058594 L 291.90625 118.03125 Z M 291.625 117.65625 "/>
<g clip-path="url(#clip3)" clip-rule="nonzero">
<path style=" stroke:none;fill-rule:nonzero;fill:rgb(39.99939%,39.99939%,39.99939%);fill-opacity:0.3;" d="M 308.203125 362.109375 L 310.523438 361.414062 L 318.246094 358.640625 L 312.515625 361.628906 Z M 308.203125 362.109375 "/>
</g>
<path style=" stroke:none;fill-rule:nonzero;fill:rgb(39.99939%,39.99939%,39.99939%);fill-opacity:0.3;" d="M 323.859375 355.710938 L 328.582031 352.367188 L 325.949219 354.621094 Z M 323.859375 355.710938 "/>
<path style=" stroke:none;fill-rule:nonzero;fill:rgb(39.99939%,39.99939%,39.99939%);fill-opacity:0.3;" d="M 225.191406 146.597656 L 229.601562 150.265625 L 234.242188 154.082031 L 234.550781 154.886719 L 212.371094 178.09375 L 211.285156 177.65625 L 211.210938 176.847656 L 213.679688 168.039062 L 215.148438 165.246094 L 224.726562 146.816406 Z M 225.191406 146.597656 "/>
<g clip-path="url(#clip4)" clip-rule="nonzero">
<path style=" stroke:none;fill-rule:nonzero;fill:rgb(39.99939%,39.99939%,39.99939%);fill-opacity:0.3;" d="M 420.558594 142.15625 L 419.417969 154.808594 L 418.375 156.957031 L 416.960938 167.382812 L 407.285156 167.183594 L 404.867188 167.085938 L 403.757812 167.617188 L 400.980469 170.785156 L 399.867188 171.3125 L 390.976562 171.316406 L 389.863281 171.84375 L 386.542969 202.992188 L 386.542969 203.519531 L 387.101562 204.046875 L 391.546875 205.101562 L 392.101562 205.628906 L 392.105469 208.265625 L 435.710938 212.640625 L 458.242188 212.988281 L 458.796875 212.988281 L 458.800781 213.515625 L 456.03125 234.105469 L 454.367188 239.910156 L 453.253906 243.078125 L 450.476562 245.71875 L 447.699219 246.25 L 404.898438 235.710938 L 404.425781 236.84375 L 403.789062 238.351562 L 445.476562 247.832031 L 438.8125 256.28125 L 437.703125 258.921875 L 437.703125 263.144531 L 438.261719 266.839844 L 439.375 268.421875 L 439.929688 271.0625 L 439.375 274.757812 L 437.710938 278.980469 L 435.488281 279.511719 L 432.710938 281.09375 L 431.601562 284.789062 L 431.601562 287.957031 L 429.933594 287.957031 L 425.488281 287.433594 L 421.042969 287.433594 L 416.597656 287.4375 L 413.816406 287.964844 L 411.039062 287.964844 L 409.371094 288.496094 L 407.148438 288.496094 L 404.925781 289.023438 L 403.257812 289.554688 L 401.589844 289.554688 L 399.925781 290.082031 L 398.257812 290.609375 L 396.589844 291.140625 L 394.367188 291.667969 L 392.699219 292.726562 L 391.035156 293.253906 L 389.367188 293.78125 L 387.699219 294.839844 L 386.03125 295.367188 L 384.921875 296.421875 L 383.253906 297.480469 L 381.585938 298.007812 L 380.476562 298.535156 L 379.367188 299.59375 L 378.253906 300.121094 L 376.585938 301.707031 L 374.921875 302.761719 L 372.699219 304.347656 L 371.03125 305.929688 L 369.921875 306.988281 L 368.808594 308.570312 L 367.144531 309.628906 L 366.03125 311.210938 L 364.921875 312.796875 L 355.480469 322.300781 L 341.589844 334.976562 L 338.257812 338.144531 L 328.8125 346.59375 L 318.8125 354.519531 L 308.8125 357.160156 L 313.800781 330.238281 L 312.398438 330.242188 L 311.023438 330.238281 L 304.921875 357.691406 L 288.253906 364.03125 L 264.355469 369.851562 L 243.796875 374.082031 L 223.234375 378.84375 L 220.027344 379.589844 L 208.488281 326.097656 L 208.757812 326.0625 L 218.207031 322.890625 L 227.652344 319.191406 L 227.128906 317.902344 L 226.539062 316.550781 L 207.8125 321.847656 L 205.042969 288.617188 L 204.980469 287.980469 L 209.292969 285.417969 L 222.625 272.742188 L 220.976562 308.636719 L 224.867188 308.636719 L 225.960938 269.042969 L 228.179688 265.875 L 233.179688 259.011719 L 247.0625 232.613281 L 254.835938 219.941406 L 265.386719 207.265625 L 284.277344 189.839844 L 302.605469 171.355469 L 305.382812 168.1875 L 309.828125 163.960938 L 313.160156 161.320312 L 330.386719 150.757812 L 334.277344 149.171875 L 335.941406 149.699219 L 337.054688 150.753906 L 335.945312 156.03125 L 335.945312 156.558594 L 352.0625 154.96875 L 352.0625 155.496094 L 349.289062 168.695312 L 344.292969 173.976562 L 344.878906 174.539062 L 345.402344 175.03125 L 349.847656 170.277344 L 354.851562 172.914062 L 355.410156 172.386719 L 355.960938 171.859375 L 350.957031 169.222656 L 350.957031 168.695312 L 354.285156 152.328125 L 353.730469 152.328125 L 352.617188 152.332031 L 340.945312 153.917969 L 339.28125 153.390625 L 339.277344 151.808594 L 340.390625 150.222656 L 344.835938 147.582031 L 352.613281 143.882812 L 363.726562 141.769531 L 368.730469 141.238281 L 373.175781 140.707031 L 379.84375 139.648438 L 388.179688 140.703125 L 417.082031 140.6875 L 418.191406 140.6875 L 419.859375 141.214844 L 420.417969 141.742188 Z M 420.558594 142.15625 "/>
</g>
<path style=" stroke:none;fill-rule:nonzero;fill:rgb(39.99939%,39.99939%,39.99939%);fill-opacity:0.3;" d="M 25.847656 298.832031 L 26.359375 296.359375 L 26.011719 287.015625 L 26.878906 285.941406 L 30.960938 290.09375 L 30.402344 290.957031 L 28.066406 299.132812 Z M 25.847656 298.832031 "/>
<path style=" stroke:none;fill-rule:nonzero;fill:rgb(39.99939%,39.99939%,39.99939%);fill-opacity:0.3;" d="M -0.824219 34.214844 L -15.15625 81.308594 L 74.175781 112.398438 L 63.25 158.140625 L 61.519531 168.449219 L 61.175781 171.222656 L 60.078125 172.019531 L 39.679688 169.941406 L 38.140625 168.757812 L 16.808594 125.804688 L 2.695312 132.6875 L -0.296875 127.21875 L -26.109375 133.683594 L -32.71875 124.660156 L -35.160156 118.644531 L -38.335938 110.078125 L -41.027344 99.894531 L -43.46875 91.5625 L -49.113281 73.894531 L -61.027344 42.84375 L -60.46875 39.910156 L -55.488281 27.195312 L -54.835938 25.863281 L -53.859375 25.492188 L -14.058594 31.015625 L -18.910156 46.335938 L -17.484375 46.464844 L -16.054688 46.59375 L -11.613281 31.789062 L -0.679688 33.128906 Z M -0.824219 34.214844 "/>
<path style=" stroke:none;fill-rule:nonzero;fill:rgb(39.99939%,39.99939%,39.99939%);fill-opacity:0.3;" d="M 28.441406 186.21875 L 23.210938 187.964844 L 23.652344 188.832031 L 24.039062 189.59375 L 29.34375 187.921875 L 33.433594 195.644531 L 33.5625 197.398438 L 32.863281 200.296875 L 32.292969 202.109375 L 31.65625 203.804688 L 31.085938 205.132812 L 30.398438 206.050781 L 29.648438 207.476562 L 28.980469 208.429688 L 28.148438 209.53125 L 27.035156 210.773438 L 26.382812 211.457031 L 19.46875 217.238281 L 18.578125 217.15625 L 17.464844 215.960938 L 9.160156 200.742188 L -12.882812 163.078125 L -21.960938 141.789062 L -22.738281 138.964844 L -23.972656 135.816406 L -1.421875 129.824219 Z M 28.441406 186.21875 "/>
<path style=" stroke:none;fill-rule:nonzero;fill:rgb(39.99939%,39.99939%,39.99939%);fill-opacity:0.3;" d="M 36.113281 282.125 L 34.984375 280.773438 L 33.90625 279.414062 L 32.347656 276.824219 L 27.824219 269.277344 L 24.359375 262.515625 L 27.101562 261.332031 L 31.292969 258.464844 L 34.25 254.347656 L 36.773438 250.597656 L 37.953125 251.035156 L 39.523438 251.28125 L 40.96875 251.28125 L 41.523438 251.507812 L 42.113281 251.925781 L 43.253906 252.644531 L 45.546875 254.425781 L 49.585938 256.4375 L 51.429688 257.3125 L 51.429688 294.460938 L 36.828125 281.027344 Z M 36.113281 282.125 "/>
<path style=" stroke:none;fill-rule:nonzero;fill:rgb(39.99939%,39.99939%,39.99939%);fill-opacity:0.3;" d="M 125.429688 120.042969 L 125.429688 119.730469 L 131.175781 98.402344 Z M 125.429688 120.042969 "/>
<path style=" stroke:none;fill-rule:nonzero;fill:rgb(39.99939%,39.99939%,39.99939%);fill-opacity:0.3;" d="M 51.492188 254.390625 L 50.851562 254.089844 L 47.085938 252.210938 L 44.90625 250.519531 L 43.71875 249.769531 L 42.921875 249.203125 L 41.535156 248.640625 L 39.753906 248.640625 L 38.5625 248.453125 L 37.175781 248.078125 L 36.183594 247.515625 L 34.996094 246.761719 L 34.003906 246.011719 L 29.839844 241.3125 L 21.90625 227.023438 L 21.113281 225.519531 L 20.316406 222.4375 L 20.699219 219.894531 L 22.226562 218.003906 L 30.265625 211.460938 L 31.722656 209.785156 L 33.25 207.125 L 34.394531 204.042969 L 35.539062 200.71875 L 36.046875 198.605469 L 36.171875 196.671875 L 35.691406 194.890625 L 34.371094 191.667969 L 34.171875 190.726562 L 3.722656 134.507812 L 16.433594 128.464844 L 36.640625 171.433594 L 39.945312 178.460938 L 40.621094 178.230469 L 41.558594 177.910156 L 38.902344 171.363281 L 60.8125 173.683594 L 60.84375 175.25 L 61.179688 176.09375 L 61.402344 176.9375 L 60.625 183.261719 L 59.519531 192.746094 L 58.304688 201.390625 L 58.859375 201.8125 L 61.128906 202.152344 L 59.605469 209.765625 Z M 51.492188 254.390625 "/>
<path style=" stroke:none;fill-rule:nonzero;fill:rgb(39.99939%,39.99939%,39.99939%);fill-opacity:0.3;" d="M 62.128906 197.207031 L 62.679688 192.972656 L 63.007812 193.019531 Z M 62.128906 197.207031 "/>
<path style=" stroke:none;fill-rule:nonzero;fill:rgb(39.99939%,39.99939%,39.99939%);fill-opacity:0.3;" d="M 63.457031 190.890625 L 62.96875 190.816406 L 64.671875 177.0625 L 65.066406 175.183594 L 67.328125 163.871094 L 67.722656 163.496094 L 66.03125 172.386719 L 64.277344 186.988281 Z M 63.457031 190.890625 "/>
<path style=" stroke:none;fill-rule:nonzero;fill:rgb(39.99939%,39.99939%,39.99939%);fill-opacity:0.3;" d="M 68.234375 160.808594 L 68.140625 160.785156 L 68.625 156.375 L 71.085938 145.382812 L 71.199219 144.820312 L 71.335938 144.34375 L 71.414062 143.917969 L 73.191406 136.011719 L 74.265625 132.4375 L 68.367188 160.121094 Z M 68.234375 160.808594 "/>
<path style=" stroke:none;fill-rule:nonzero;fill:rgb(39.99939%,39.99939%,39.99939%);fill-opacity:0.3;" d="M 61.773438 198.921875 L 61.746094 198.753906 L 62.035156 197.636719 L 61.941406 198.085938 Z M 61.773438 198.921875 "/>
<path style=" stroke:none;fill-rule:nonzero;fill:rgb(39.99939%,39.99939%,39.99939%);fill-opacity:0.3;" d="M 2.722656 33.378906 L 39.671875 37.59375 L 140.21875 50.816406 L 121.410156 120.492188 L 48.835938 97.882812 L 60.027344 66.289062 L 58.875 66.089844 L 57.535156 65.859375 L 46.683594 96.703125 L 21.449219 89.121094 L 4.058594 83.871094 L 15.28125 50.761719 L 13.488281 50.285156 L 11.90625 49.863281 L 0.578125 82.996094 L -11.507812 78.753906 Z M 2.722656 33.378906 "/>
<path style=" stroke:none;fill-rule:nonzero;fill:rgb(39.99939%,39.99939%,39.99939%);fill-opacity:0.3;" d="M -67.800781 276.476562 L -69.234375 275.992188 L -69.917969 275.34375 L -70.144531 274.921875 L -70.261719 273.921875 L -70.378906 272.703125 L -70.378906 271.375 L -70.496094 269.933594 L -70.847656 268.378906 L -71.550781 266.941406 L -73.652344 265.277344 L -76.339844 263.726562 L -79.960938 262.621094 L -86.964844 261.40625 L -88.277344 261.09375 L -87.585938 258.832031 L -84.089844 247.472656 L -80.125 248.261719 L -79.886719 246.898438 L -79.648438 245.539062 L -83.269531 244.804688 L -76.746094 223.605469 L -65.566406 225.769531 L -63.972656 225.917969 L -63.109375 225.816406 L -62.328125 225.390625 L -61.660156 224.96875 L -61.019531 224.152344 L -60.4375 222.453125 L -54.144531 203.6875 L -48.539062 194.039062 L -44.402344 193.476562 L -39.261719 194.929688 L -34.054688 196.613281 L -29.234375 198.910156 L -2.363281 225.230469 L 5.503906 238.914062 L 12.277344 250.882812 L 5.628906 253.832031 L -5.550781 253.925781 L -5.5 255.003906 L -5.453125 256.011719 L 5.722656 256.007812 L 13.363281 252.921875 L 17.671875 260.324219 L 23.398438 271.496094 L 27.960938 278.574219 L 26.378906 281.34375 L 24.777344 283.332031 L 22.796875 286.421875 L 23.175781 295.761719 L 22.566406 298.386719 L -52.511719 288.183594 L -52.664062 287.660156 L -54.308594 285.179688 L -56.742188 283.339844 L -59.128906 282.628906 L -61.28125 281.589844 L -63.628906 278.996094 L -50.886719 275.636719 L -52.902344 264.722656 L -54.628906 265.105469 L -52.878906 274.449219 L -65.011719 277.703125 L -66.847656 276.863281 Z M -67.800781 276.476562 "/>
<path style=" stroke:none;fill-rule:nonzero;fill:rgb(39.99939%,39.99939%,39.99939%);fill-opacity:0.3;" d="M 22.121094 258.148438 L -29.777344 167.695312 L -43.613281 141.125 L -46.375 124.585938 L -48.0625 104.082031 L -49.695312 93.273438 L -50.910156 86.136719 L -54.445312 76.335938 L -63.226562 63.828125 L -66.0625 60.589844 L -66.296875 58.5 L -65.964844 56.96875 L -62.609375 46.390625 L -61.925781 45.792969 L -50.691406 74.40625 L -45.070312 92.003906 L -42.636719 100.300781 L -39.933594 110.535156 L -36.726562 119.191406 L -34.230469 125.335938 L -26.589844 138.265625 L -25.5 142.59375 L -15.886719 164.460938 L 6.222656 202.242188 L 14.414062 217.25 L 16.050781 221.390625 L 18.035156 224.753906 L 19.433594 228.230469 L 27.351562 243.148438 L 32.054688 247.910156 L 33.71875 249.089844 L 31.289062 252.914062 L 28.730469 256.035156 L 25.550781 258.132812 Z M 22.121094 258.148438 "/>
<g clip-path="url(#clip5)" clip-rule="nonzero">
<path style=" stroke:none;fill-rule:nonzero;fill:rgb(39.99939%,39.99939%,39.99939%);fill-opacity:0.3;" d="M 46.121094 413.585938 L 40.433594 415.328125 L 16.371094 422.125 L -3.316406 427.117188 L -2.878906 425.316406 L 9.660156 420.601562 L 21.328125 414.78125 L 31.769531 406.777344 L 39.261719 403.144531 L 38.457031 402.3125 L 37.65625 401.484375 L 31.449219 404.578125 L 28.148438 387.976562 L 40.59375 384.191406 L 41.355469 383.003906 L 40.046875 377.125 L 39.777344 372.378906 L 38.023438 370.472656 L 33.269531 363.363281 L 33.238281 361.785156 L 34.335938 360.292969 L 42.582031 351.019531 L 33.65625 321.605469 L 34.023438 315.871094 L 32.367188 312.476562 L 23.761719 308.867188 L 25.847656 298.832031 L 28.066406 299.132812 L 30.402344 290.957031 L 30.960938 290.09375 L 32.78125 291.945312 L 41.40625 299.507812 L 36.132812 311.089844 L 37.511719 312.019531 L 39.234375 313.21875 L 44.992188 301.894531 L 51.824219 306.449219 L 55.160156 307.894531 L 57.269531 315.488281 Z M 46.121094 413.585938 "/>
</g>
<path style=" stroke:none;fill-rule:nonzero;fill:rgb(39.99939%,39.99939%,39.99939%);fill-opacity:0.3;" d="M 52.007812 296.539062 L 50.886719 295.746094 L 49.253906 294.523438 L 48.046875 293.59375 L 46.996094 292.757812 L 46.207031 292.109375 L 45.484375 291.5 L 44.648438 290.785156 L 43.589844 289.839844 L 42.769531 289.089844 L 42.132812 288.492188 L 40.773438 287.167969 L 39.769531 286.152344 L 38.566406 284.886719 L 37.492188 283.714844 L 36.34375 282.402344 L 36.113281 282.125 L 36.828125 281.027344 L 51.429688 294.460938 Z M 52.007812 296.539062 "/>
<path style=" stroke:none;fill-rule:nonzero;fill:rgb(39.99939%,39.99939%,39.99939%);fill-opacity:0.3;" d="M -20.375 312.996094 L -19.210938 311.261719 L -18.882812 303.84375 L 19.027344 312.339844 L 14.222656 333.125 L 13.132812 335.195312 L 4.402344 334.46875 L -0.351562 336.265625 L -4.539062 334.238281 L -6.117188 333.445312 L -8.375 332.828125 L -23.886719 330.171875 L -26.921875 330.722656 L -29.570312 330.632812 L -32.710938 330.433594 L -34.386719 330.632812 L -36.238281 331.207031 L -37.410156 331.71875 L -38.761719 332.574219 L -40.660156 335.3125 L -45.960938 341.042969 L -46.878906 341.570312 L -47.808594 342.101562 L -56.445312 342.371094 L -59.785156 343.074219 L -61.535156 344.496094 L -64.242188 344.882812 L -64.675781 342.480469 L -66.226562 340.644531 L -67.757812 339.839844 L -68.496094 339.257812 L -68.980469 338.21875 L -69.292969 331.785156 L -69.011719 330.710938 L -66.292969 322.507812 L -65.378906 320.1875 L -64.402344 318.863281 L -63.328125 318.335938 L -62.015625 318.34375 L -59.722656 318.964844 L -57.738281 318.964844 L -56.296875 318.179688 L -55.1875 317.125 L -54.277344 311.671875 L -22.269531 313.148438 Z M -20.375 312.996094 "/>
<g clip-path="url(#clip6)" clip-rule="nonzero">
<path style=" stroke:none;fill-rule:nonzero;fill:rgb(39.99939%,39.99939%,39.99939%);fill-opacity:0.3;" d="M -12.953125 357.734375 L -31.542969 371.941406 L -33.585938 375.578125 L -35.15625 385.847656 L -39 390.335938 L -40.5625 393.105469 L -41.894531 397 L -42.453125 402.953125 L -44.503906 407.742188 L -45.292969 420.675781 L -50.449219 419.488281 L -51.160156 418.757812 L -51.613281 418.074219 L -52.238281 417.097656 L -53.195312 415.785156 L -56.554688 408.777344 L -61.722656 396.714844 L -64.464844 390.363281 L -65.390625 387.328125 L -70.0625 374.480469 L -70.070312 374.460938 L -70.261719 372.046875 L -69.03125 368.417969 L -66.441406 365.957031 L -64.492188 365.394531 L -57.070312 365.558594 L -43.578125 367.328125 L -42.839844 366.742188 L -42.101562 362.640625 L -41.359375 361.941406 L -26.457031 359.878906 L -19.523438 359 L -15.527344 356.070312 L -10.148438 350.917969 L -5.585938 346.582031 L 0.78125 338.960938 L 1.671875 337.394531 L 3.519531 337.054688 L 5.648438 336.988281 L 10.585938 337.390625 L 5.328125 341.804688 Z M -12.953125 357.734375 "/>
</g>
<g clip-path="url(#clip7)" clip-rule="nonzero">
<path style=" stroke:none;fill-rule:nonzero;fill:rgb(39.99939%,39.99939%,39.99939%);fill-opacity:0.3;" d="M -21.285156 368.285156 L -15.453125 363.753906 L 14.328125 337.910156 L 17.007812 334.601562 L 22.875 310.65625 L 30.914062 313.4375 L 32.4375 316.011719 L 32.113281 321.582031 L 40.640625 350.558594 L 32.429688 359.703125 L 30.761719 362.191406 L 29.03125 362.941406 L 9.300781 367.773438 L 9.785156 368.863281 L 10.175781 369.734375 L 30.894531 364.746094 L 36.117188 373.730469 L 36.914062 376.742188 L 37.875 381.71875 L 37.769531 382.800781 L 18.8125 387.554688 L 18.996094 388.566406 L 19.195312 389.667969 L 24.300781 388.375 L 24.953125 388.789062 L 27.558594 400.9375 L 28.816406 406.777344 L 16.789062 414.429688 L 7.609375 419.09375 L -1.679688 422.261719 L -3.90625 422.496094 L -8.671875 427.453125 L -12.789062 427.417969 L -21.1875 427.105469 L -35.660156 423.753906 L -41.996094 421.367188 L -41.207031 408.449219 L -39.175781 403.710938 L -38.605469 397.636719 L -37.484375 394.351562 L -36.210938 392.097656 L -31.988281 387.167969 L -30.371094 376.582031 L -28.921875 374.003906 Z M -21.285156 368.285156 "/>
</g>
<path style=" stroke:none;fill-rule:nonzero;fill:rgb(39.99939%,39.99939%,39.99939%);fill-opacity:0.3;" d="M 22.566406 298.386719 L 19.695312 310.773438 L -18.644531 301.523438 L -19.992188 301.71875 L -20.757812 302.675781 L -20.960938 309.148438 L -21.199219 310.578125 L -22.476562 311.8125 L -53.957031 310.308594 L -52.140625 289.464844 L -52.511719 288.183594 Z M 22.566406 298.386719 "/>
<g clip-path="url(#clip8)" clip-rule="nonzero">
<path style=" stroke:none;fill-rule:nonzero;fill:rgb(39.99939%,39.99939%,39.99939%);fill-opacity:0.3;" d="M 161.785156 392.777344 L 120.761719 400.101562 L 91.476562 402.289062 L 90.0625 383.496094 L 90.601562 381.433594 L 93.289062 376.890625 L 97.785156 369.394531 L 96.902344 368.753906 L 96.019531 368.109375 L 91.886719 374.804688 L 87.753906 381.113281 L 87.457031 383.550781 L 88.414062 403.535156 L 68.726562 407.699219 L 52.246094 411.582031 L 51.078125 407.707031 L 60.554688 402.441406 L 59.460938 401.335938 L 58.367188 400.226562 L 47.429688 406.601562 L 49.039062 412.691406 L 46.121094 413.585938 L 57.269531 315.488281 L 55.160156 307.894531 L 61.097656 310.460938 L 67.9375 312.78125 L 72.125 313.984375 L 82.941406 315.789062 L 67.652344 330.9375 L 68.464844 331.828125 L 69.277344 332.722656 L 85.886719 316.375 L 97.933594 319.0625 L 109.144531 315.503906 L 114.835938 314.863281 L 117.417969 314.3125 L 124.265625 312.558594 L 130.195312 310.890625 L 136.324219 332.777344 L 137.574219 332.398438 L 138.820312 332.019531 L 133.027344 310.09375 L 140.242188 307.984375 L 141.027344 307.816406 L 141.746094 307.644531 L 142.679688 307.519531 L 155.207031 305.160156 L 159.457031 326.378906 L 144.082031 329.136719 L 144.199219 330.089844 L 144.316406 331.039062 L 160.019531 328.601562 L 162.179688 328.425781 L 162.472656 330.445312 L 167.300781 331.601562 L 167.535156 332.65625 L 165.214844 333.460938 L 164.617188 334.394531 L 165.984375 335.484375 L 166.3125 338.097656 L 174.535156 340.546875 L 176.800781 342.1875 L 179.703125 345.621094 L 188.707031 347.378906 L 188.6875 351.789062 L 188.863281 364.558594 L 190.089844 385.722656 L 167.863281 391.332031 L 165.945312 359.585938 L 165.613281 349.960938 L 163.121094 349.984375 L 163.246094 354.253906 L 165.105469 392.007812 L 162.367188 392.675781 Z M 161.785156 392.777344 "/>
</g>
<path style=" stroke:none;fill-rule:nonzero;fill:rgb(39.99939%,39.99939%,39.99939%);fill-opacity:0.3;" d="M 68.234375 304.457031 L 67.785156 304.3125 L 65.839844 303.632812 L 64.804688 303.242188 L 63.476562 302.710938 L 62.335938 302.226562 L 60.980469 301.613281 L 60.097656 301.199219 L 58.816406 300.558594 L 57.746094 300 L 56.886719 299.53125 L 55.601562 298.796875 L 54.585938 298.183594 L 53.890625 297.753906 L 53.28125 297.363281 L 52.179688 296.664062 L 52.007812 296.539062 L 51.429688 294.460938 L 63.695312 302.054688 Z M 68.234375 304.457031 "/>
<path style=" stroke:none;fill-rule:nonzero;fill:rgb(39.99939%,39.99939%,39.99939%);fill-opacity:0.3;" d="M 201.023438 291.117188 L 201.980469 290.695312 L 201.746094 324.261719 L 194.609375 324.90625 L 183.988281 323.894531 L 172.875 326.085938 L 162.773438 326.726562 L 158.707031 304.300781 L 167.164062 301.863281 L 184.011719 297.488281 L 192.398438 294.527344 Z M 201.023438 291.117188 "/>
<g clip-path="url(#clip9)" clip-rule="nonzero">
<path style=" stroke:none;fill-rule:nonzero;fill:rgb(39.99939%,39.99939%,39.99939%);fill-opacity:0.3;" d="M 226.257812 465.28125 L 223.054688 461.160156 L 221.441406 460.625 L 216.070312 460.816406 L 212.46875 460.382812 L 211.113281 459.511719 L 210.46875 458.484375 L 210.726562 457.339844 L 217.632812 455.105469 L 223.390625 452.773438 L 226.1875 451.664062 L 229.65625 450.066406 L 230.878906 447.960938 L 232.605469 444.542969 L 236.171875 422.828125 L 238.132812 416.992188 L 241 410.207031 L 241.636719 408.210938 L 242.53125 406.410156 L 245.003906 398.734375 L 248.789062 379.808594 L 249.949219 378.203125 L 250.683594 377.605469 L 251.769531 377.402344 L 276.300781 370.976562 L 297.328125 366.304688 L 305.664062 362.871094 L 308.203125 362.109375 L 312.515625 361.628906 L 318.246094 358.640625 L 321.246094 357.5625 L 323.859375 355.710938 L 325.949219 354.621094 L 328.582031 352.367188 L 332.902344 349.304688 L 338.738281 343.945312 L 338.214844 345.910156 L 338.28125 351.328125 L 340.789062 362.902344 L 346.8125 376.082031 L 349.503906 379.988281 L 349.3125 380.320312 L 352.527344 384.371094 L 363.457031 400.234375 L 375.234375 422.960938 L 357.769531 430.820312 L 333.320312 441.953125 L 328.367188 444.894531 L 325.894531 447.539062 L 308.253906 460.472656 L 301.757812 463.707031 L 292.667969 465.375 L 281.027344 464.6875 L 251.601562 462.328125 L 243.515625 462.441406 L 235.890625 463.214844 L 228.085938 464.621094 Z M 226.257812 465.28125 "/>
</g>
<g clip-path="url(#clip10)" clip-rule="nonzero">
<path style=" stroke:none;fill-rule:nonzero;fill:rgb(39.99939%,39.99939%,39.99939%);fill-opacity:0.3;" d="M 220.027344 379.589844 L 193.785156 385.71875 L 193.226562 385.71875 L 192.105469 364.605469 L 192.097656 351.933594 L 192.097656 346.128906 L 182.648438 344.550781 L 179.867188 341.382812 L 177.085938 339.273438 L 169.304688 337.164062 L 169.304688 334.527344 L 168.75 334 L 170.972656 333.46875 L 170.414062 330.300781 L 165.410156 329.25 L 165.410156 328.722656 L 168.191406 329.246094 L 171.523438 328.71875 L 180.972656 326.601562 L 184.304688 326.601562 L 195.421875 327.652344 L 200.421875 327.121094 L 208.488281 326.097656 Z M 220.027344 379.589844 "/>
</g>
<path style=" stroke:none;fill-rule:nonzero;fill:rgb(39.99939%,39.99939%,39.99939%);fill-opacity:0.3;" d="M 207.8125 321.847656 L 205.980469 322.367188 L 204.851562 288.058594 L 204.980469 287.980469 L 205.042969 288.617188 Z M 207.8125 321.847656 "/>
<path style=" stroke:none;fill-rule:nonzero;fill:rgb(39.99939%,39.99939%,39.99939%);fill-opacity:0.3;" d="M 139.335938 131.65625 L 139.695312 130.363281 L 140.410156 129.886719 L 140.976562 129.585938 L 192.632812 139.253906 L 183.476562 176.308594 L 182.777344 180.136719 L 182.210938 184.804688 L 182.023438 189.652344 L 180.699219 233.324219 L 180.519531 234.308594 L 179.789062 234.828125 L 179.058594 235 L 166.839844 238.988281 L 159.90625 240.894531 L 157.355469 241.242188 L 155.894531 241.417969 L 154.460938 241.425781 L 153.664062 240.988281 L 153.265625 240.355469 L 153.066406 239.601562 L 154.265625 175.640625 L 151.847656 175.640625 L 150.605469 240.898438 L 150.238281 241.9375 L 149.144531 242.804688 L 147.140625 243.5 L 141.664062 244.960938 L 140.648438 245.292969 L 139.917969 245.5625 L 139.472656 245.703125 L 135.070312 247.433594 L 126.507812 251.527344 L 124.273438 253.246094 L 122.792969 255.179688 L 122.101562 254.917969 L 122.605469 248.917969 L 125.449219 220.703125 L 127.148438 203.183594 L 128.953125 192.59375 Z M 139.335938 131.65625 "/>
<path style=" stroke:none;fill-rule:nonzero;fill:rgb(39.99939%,39.99939%,39.99939%);fill-opacity:0.3;" d="M 188.484375 287.585938 L 187.429688 288.003906 L 184.027344 289.425781 L 176.8125 291.367188 L 155.980469 296.542969 L 142.640625 299.523438 L 136.242188 300.945312 L 132.839844 301.59375 L 130.523438 302.242188 L 128.210938 303.015625 L 125.207031 304.058594 L 122.351562 305.03125 L 119.496094 305.707031 L 117.660156 306.195312 L 115.9375 306.695312 L 114.554688 306.964844 L 111.480469 307.484375 L 109.96875 307.703125 L 108.304688 307.914062 L 106.417969 308.117188 L 104.945312 308.25 L 103.234375 308.375 L 101.539062 308.46875 L 99.835938 308.535156 L 97.917969 308.570312 L 96 308.570312 L 94.070312 308.527344 L 92.351562 308.460938 L 90.988281 308.398438 L 89.507812 308.261719 L 88.027344 308.128906 L 85.308594 307.902344 L 83.636719 307.765625 L 82.589844 307.675781 L 81.539062 307.542969 L 80.441406 307.316406 L 77.242188 306.671875 L 76.59375 306.558594 L 76.007812 306.449219 L 74.917969 306.230469 L 74.027344 306.039062 L 73.25 305.859375 L 72.492188 305.675781 L 71.78125 305.496094 L 70.9375 305.269531 L 69.703125 304.914062 L 68.90625 304.671875 L 68.234375 304.457031 L 63.695312 302.054688 L 51.429688 294.460938 L 51.429688 257.3125 L 54.863281 258.941406 L 56.597656 259.773438 L 58.472656 260.574219 L 59.808594 261.167969 L 60.984375 261.535156 L 61.777344 261.90625 L 62.613281 262.285156 L 63.378906 262.621094 L 64.226562 262.980469 L 65.359375 263.4375 L 67.003906 264.058594 L 68.136719 264.457031 L 69.148438 264.792969 L 70.132812 265.105469 L 71.34375 265.464844 L 72.570312 265.800781 L 74.375 266.257812 L 75.667969 266.546875 L 77.25 266.871094 L 78.734375 267.136719 L 79.867188 267.316406 L 81.105469 267.492188 L 82.507812 267.660156 L 84.441406 267.875 L 86.277344 268.171875 L 87.410156 268.328125 L 88.703125 268.488281 L 90.015625 268.632812 L 93.785156 268.714844 L 97.367188 268.976562 L 98.804688 269.015625 L 99.882812 269.03125 L 101.410156 269.027344 L 102.664062 269 L 103.746094 268.960938 L 106.261719 268.808594 L 107.335938 268.71875 L 108.777344 268.574219 L 109.761719 268.460938 L 110.773438 268.316406 L 111.898438 268 L 112.816406 267.675781 L 113.601562 267.34375 L 114.179688 267.0625 L 115.207031 266.492188 L 115.753906 266.144531 L 116.398438 265.691406 L 117.136719 265.105469 L 117.832031 264.476562 L 118.359375 263.945312 L 118.929688 263.300781 L 120.398438 261.871094 L 121.972656 260.375 L 123.136719 258.941406 L 123.960938 257.835938 L 124.371094 256.992188 L 124.984375 255.820312 L 125.328125 255.367188 L 125.671875 254.910156 L 127.117188 253.789062 L 128.804688 252.789062 L 132.179688 251.183594 L 135.238281 249.984375 L 137.5625 249.082031 L 151.90625 244.96875 L 153.382812 244.769531 L 155.386719 244.867188 L 157.074219 244.867188 L 158.65625 244.667969 L 171.210938 240.554688 L 174.902344 239.554688 L 182.230469 237.324219 L 184.773438 236.652344 Z M 188.484375 287.585938 "/>
<path style=" stroke:none;fill-rule:nonzero;fill:rgb(39.99939%,39.99939%,39.99939%);fill-opacity:0.3;" d="M 195.988281 140.570312 L 198.730469 126.710938 L 200.316406 127.003906 L 198.617188 136.757812 L 187.519531 178.808594 L 184.671875 232.925781 L 183.25 233.351562 L 185.230469 185.917969 L 185.929688 183.796875 Z M 195.988281 140.570312 "/>
<path style=" stroke:none;fill-rule:nonzero;fill:rgb(39.99939%,39.99939%,39.99939%);fill-opacity:0.3;" d="M 206.394531 59.730469 L 235.726562 63.914062 L 234.15625 81.894531 L 232.804688 83.824219 L 230.324219 86.179688 L 230.101562 88.535156 L 227.410156 126.210938 L 227.070312 127.339844 L 215.496094 125.558594 L 217.65625 111.964844 L 215.519531 111.78125 L 213.378906 111.59375 L 210.882812 124.847656 L 200.957031 123.320312 L 200.761719 124.445312 L 198.757812 124.082031 L 207.535156 79.703125 L 206.246094 79.507812 L 205.007812 79.320312 L 195.878906 124.449219 L 193.632812 135.554688 L 185.003906 133.9375 L 195.804688 81.273438 L 193.859375 81.066406 L 191.742188 80.84375 L 180.96875 133.191406 L 161.441406 129.679688 L 170.574219 89.363281 L 168.941406 89.125 L 167.230469 88.878906 L 157.753906 128.988281 L 149.6875 127.480469 L 154.492188 107.921875 L 153.101562 107.640625 L 151.6875 107.355469 L 147.011719 126.980469 L 139.351562 125.066406 L 126.230469 121.632812 L 125.628906 121.253906 L 125.429688 120.492188 L 125.429688 120.042969 L 131.175781 98.402344 L 143.839844 51.429688 Z M 206.394531 59.730469 "/>
<path style=" stroke:none;fill-rule:nonzero;fill:rgb(39.99939%,39.99939%,39.99939%);fill-opacity:0.3;" d="M 76.726562 123.921875 L 78.441406 117.066406 L 78.929688 115.699219 L 79.324219 114.570312 L 80.128906 113.96875 L 81.066406 114.039062 L 132.65625 128.441406 L 133.644531 128.816406 L 134.828125 129.191406 L 135.621094 129.941406 L 136.210938 130.691406 L 136.214844 131.441406 L 136.410156 132.378906 L 136.214844 133.503906 L 126.558594 189.949219 L 124.753906 200.539062 L 123.054688 218.058594 L 120.335938 246.929688 L 119.652344 252.769531 L 119.3125 255.6875 L 118.195312 257.921875 L 116.46875 260.222656 L 114.855469 262.191406 L 112.894531 263.726562 L 110.933594 265.042969 L 109.164062 265.425781 L 106.386719 265.929688 L 104.945312 266.074219 L 103.867188 266.164062 L 101.910156 266.824219 L 98.964844 267.226562 L 93.769531 266.78125 L 98.691406 232.207031 L 101.472656 232.210938 L 101.535156 231.191406 L 101.609375 229.945312 L 96.703125 229.414062 L 91.53125 265.632812 L 89.707031 266.964844 L 86.902344 266.433594 L 77.644531 265.636719 L 82.679688 238.742188 L 81.882812 238.6875 L 80.71875 238.609375 L 75.402344 264.574219 L 71.363281 262.980469 L 67.210938 261.558594 L 63.347656 259.691406 L 59.496094 258.078125 L 56.007812 256.53125 L 51.492188 254.390625 L 59.605469 209.765625 L 61.128906 202.152344 L 81.402344 205.175781 L 81.605469 204.058594 L 81.84375 202.75 L 61.855469 199.386719 L 61.773438 198.921875 L 61.941406 198.085938 L 62.035156 197.636719 L 62.105469 197.371094 L 62.128906 197.207031 L 63.007812 193.019531 L 95.132812 197.476562 L 95.410156 196.53125 L 95.644531 195.738281 L 63.457031 190.890625 L 64.277344 186.988281 L 66.03125 172.386719 L 67.722656 163.496094 L 67.960938 163.269531 L 102.796875 170.792969 L 103.027344 169.648438 L 103.246094 168.566406 L 68.234375 160.808594 L 68.367188 160.121094 L 74.265625 132.4375 L 76.238281 125.875 L 84.191406 127.167969 L 83.660156 129.695312 L 84.460938 129.984375 L 85.257812 130.273438 L 86.472656 123.195312 L 85.824219 123.085938 L 85.179688 122.976562 L 84.265625 125.507812 Z M 76.726562 123.921875 "/>
<path style=" stroke:none;fill-rule:nonzero;fill:rgb(39.99939%,39.99939%,39.99939%);fill-opacity:0.3;" d="M 230.367188 127.847656 L 230.089844 127.550781 L 232.589844 89.082031 L 232.839844 87.539062 L 235.503906 85.152344 L 233.664062 89.445312 L 231.328125 127.996094 Z M 230.367188 127.847656 "/>
<path style=" stroke:none;fill-rule:nonzero;fill:rgb(39.99939%,39.99939%,39.99939%);fill-opacity:0.3;" d="M 237.210938 81.195312 L 238.667969 64.5625 L 239.503906 64.621094 L 239.503906 77.179688 Z M 237.210938 81.195312 "/>
<path style="fill-rule:nonzero;fill:rgb(39.99939%,39.99939%,39.99939%);fill-opacity:1;stroke-width:0.03;stroke-linecap:square;stroke-linejoin:miter;stroke:rgb(39.99939%,39.99939%,39.99939%);stroke-opacity:1;stroke-miterlimit:3.239307;" d="M 213.335938 144.65625 L 213.695312 143.363281 L 214.410156 142.886719 L 214.976562 142.585938 L 266.632812 152.253906 L 257.476562 189.308594 L 256.777344 193.136719 L 256.210938 197.804688 L 256.023438 202.652344 L 254.699219 246.324219 L 254.519531 247.308594 L 253.789062 247.828125 L 253.058594 248 L 240.839844 251.988281 L 233.90625 253.894531 L 231.355469 254.242188 L 229.894531 254.417969 L 228.460938 254.425781 L 227.664062 253.988281 L 227.265625 253.355469 L 227.066406 252.601562 L 228.265625 188.640625 L 225.847656 188.640625 L 224.605469 253.898438 L 224.238281 254.9375 L 223.144531 255.804688 L 221.140625 256.5 L 215.664062 257.960938 L 214.648438 258.292969 L 213.917969 258.5625 L 213.472656 258.703125 L 209.070312 260.433594 L 200.507812 264.527344 L 198.273438 266.246094 L 196.792969 268.179688 L 196.101562 267.917969 L 196.605469 261.917969 L 199.449219 233.703125 L 201.148438 216.183594 L 202.953125 205.59375 Z M 213.335938 144.65625 " transform="matrix(1,0,0,1,-74,-13)"/>
<path style="fill-rule:nonzero;fill:rgb(39.99939%,39.99939%,39.99939%);fill-opacity:1;stroke-width:0.03;stroke-linecap:square;stroke-linejoin:miter;stroke:rgb(39.99939%,39.99939%,39.99939%);stroke-opacity:1;stroke-miterlimit:3.239307;" d="M 262.484375 300.585938 L 261.429688 301.003906 L 258.027344 302.425781 L 250.8125 304.367188 L 229.980469 309.542969 L 216.640625 312.523438 L 210.242188 313.945312 L 206.839844 314.59375 L 204.523438 315.242188 L 202.210938 316.015625 L 199.207031 317.058594 L 196.351562 318.03125 L 193.496094 318.707031 L 191.660156 319.195312 L 189.9375 319.695312 L 188.554688 319.964844 L 185.480469 320.484375 L 183.96875 320.703125 L 182.304688 320.914062 L 180.417969 321.117188 L 178.945312 321.25 L 177.234375 321.375 L 175.539062 321.46875 L 173.835938 321.535156 L 171.917969 321.570312 L 170 321.570312 L 168.070312 321.527344 L 166.351562 321.460938 L 164.988281 321.398438 L 163.507812 321.261719 L 162.027344 321.128906 L 159.308594 320.902344 L 157.636719 320.765625 L 156.589844 320.675781 L 155.539062 320.542969 L 154.441406 320.316406 L 151.242188 319.671875 L 150.59375 319.558594 L 150.007812 319.449219 L 148.917969 319.230469 L 148.027344 319.039062 L 147.25 318.859375 L 146.492188 318.675781 L 145.78125 318.496094 L 144.9375 318.269531 L 143.703125 317.914062 L 142.90625 317.671875 L 142.234375 317.457031 L 137.695312 315.054688 L 125.429688 307.460938 L 125.429688 270.3125 L 128.863281 271.941406 L 130.597656 272.773438 L 132.472656 273.574219 L 133.808594 274.167969 L 134.984375 274.535156 L 135.777344 274.90625 L 136.613281 275.285156 L 137.378906 275.621094 L 138.226562 275.980469 L 139.359375 276.4375 L 141.003906 277.058594 L 142.136719 277.457031 L 143.148438 277.792969 L 144.132812 278.105469 L 145.34375 278.464844 L 146.570312 278.800781 L 148.375 279.257812 L 149.667969 279.546875 L 151.25 279.871094 L 152.734375 280.136719 L 153.867188 280.316406 L 155.105469 280.492188 L 156.507812 280.660156 L 158.441406 280.875 L 160.277344 281.171875 L 161.410156 281.328125 L 162.703125 281.488281 L 164.015625 281.632812 L 167.785156 281.714844 L 171.367188 281.976562 L 172.804688 282.015625 L 173.882812 282.03125 L 175.410156 282.027344 L 176.664062 282 L 177.746094 281.960938 L 180.261719 281.808594 L 181.335938 281.71875 L 182.777344 281.574219 L 183.761719 281.460938 L 184.773438 281.316406 L 185.898438 281 L 186.816406 280.675781 L 187.601562 280.34375 L 188.179688 280.0625 L 189.207031 279.492188 L 189.753906 279.144531 L 190.398438 278.691406 L 191.136719 278.105469 L 191.832031 277.476562 L 192.359375 276.945312 L 192.929688 276.300781 L 194.398438 274.871094 L 195.972656 273.375 L 197.136719 271.941406 L 197.960938 270.835938 L 198.371094 269.992188 L 198.984375 268.820312 L 199.328125 268.367188 L 199.671875 267.910156 L 201.117188 266.789062 L 202.804688 265.789062 L 206.179688 264.183594 L 209.238281 262.984375 L 211.5625 262.082031 L 225.90625 257.96875 L 227.382812 257.769531 L 229.386719 257.867188 L 231.074219 257.867188 L 232.65625 257.667969 L 245.210938 253.554688 L 248.902344 252.554688 L 256.230469 250.324219 L 258.773438 249.652344 Z M 262.484375 300.585938 " transform="matrix(1,0,0,1,-74,-13)"/>
<path style="fill-rule:nonzero;fill:rgb(39.99939%,39.99939%,39.99939%);fill-opacity:1;stroke-width:0.03;stroke-linecap:square;stroke-linejoin:miter;stroke:rgb(39.99939%,39.99939%,39.99939%);stroke-opacity:1;stroke-miterlimit:3.239307;" d="M 269.988281 153.570312 L 272.730469 139.710938 L 274.316406 140.003906 L 272.617188 149.757812 L 261.519531 191.808594 L 258.671875 245.925781 L 257.25 246.351562 L 259.230469 198.917969 L 259.929688 196.796875 Z M 269.988281 153.570312 " transform="matrix(1,0,0,1,-74,-13)"/>
<path style="fill-rule:nonzero;fill:rgb(39.99939%,39.99939%,39.99939%);fill-opacity:1;stroke-width:0.03;stroke-linecap:square;stroke-linejoin:miter;stroke:rgb(39.99939%,39.99939%,39.99939%);stroke-opacity:1;stroke-miterlimit:3.239307;" d="M 280.394531 72.730469 L 309.726562 76.914062 L 308.15625 94.894531 L 306.804688 96.824219 L 304.324219 99.179688 L 304.101562 101.535156 L 301.410156 139.210938 L 301.070312 140.339844 L 289.496094 138.558594 L 291.65625 124.964844 L 289.519531 124.78125 L 287.378906 124.59375 L 284.882812 137.847656 L 274.957031 136.320312 L 274.761719 137.445312 L 272.757812 137.082031 L 281.535156 92.703125 L 280.246094 92.507812 L 279.007812 92.320312 L 269.878906 137.449219 L 267.632812 148.554688 L 259.003906 146.9375 L 269.804688 94.273438 L 267.859375 94.066406 L 265.742188 93.84375 L 254.96875 146.191406 L 235.441406 142.679688 L 244.574219 102.363281 L 242.941406 102.125 L 241.230469 101.878906 L 231.753906 141.988281 L 223.6875 140.480469 L 228.492188 120.921875 L 227.101562 120.640625 L 225.6875 120.355469 L 221.011719 139.980469 L 213.351562 138.066406 L 200.230469 134.632812 L 199.628906 134.253906 L 199.429688 133.492188 L 199.429688 133.042969 L 205.175781 111.402344 L 217.839844 64.429688 Z M 280.394531 72.730469 " transform="matrix(1,0,0,1,-74,-13)"/>
<path style="fill-rule:nonzero;fill:rgb(39.99939%,39.99939%,39.99939%);fill-opacity:1;stroke-width:0.03;stroke-linecap:square;stroke-linejoin:miter;stroke:rgb(39.99939%,39.99939%,39.99939%);stroke-opacity:1;stroke-miterlimit:3.239307;" d="M 150.726562 136.921875 L 152.441406 130.066406 L 152.929688 128.699219 L 153.324219 127.570312 L 154.128906 126.96875 L 155.066406 127.039062 L 206.65625 141.441406 L 207.644531 141.816406 L 208.828125 142.191406 L 209.621094 142.941406 L 210.210938 143.691406 L 210.214844 144.441406 L 210.410156 145.378906 L 210.214844 146.503906 L 200.558594 202.949219 L 198.753906 213.539062 L 197.054688 231.058594 L 194.335938 259.929688 L 193.652344 265.769531 L 193.3125 268.6875 L 192.195312 270.921875 L 190.46875 273.222656 L 188.855469 275.191406 L 186.894531 276.726562 L 184.933594 278.042969 L 183.164062 278.425781 L 180.386719 278.929688 L 178.945312 279.074219 L 177.867188 279.164062 L 175.910156 279.824219 L 172.964844 280.226562 L 167.769531 279.78125 L 172.691406 245.207031 L 175.472656 245.210938 L 175.535156 244.191406 L 175.609375 242.945312 L 170.703125 242.414062 L 165.53125 278.632812 L 163.707031 279.964844 L 160.902344 279.433594 L 151.644531 278.636719 L 156.679688 251.742188 L 155.882812 251.6875 L 154.71875 251.609375 L 149.402344 277.574219 L 145.363281 275.980469 L 141.210938 274.558594 L 137.347656 272.691406 L 133.496094 271.078125 L 130.007812 269.53125 L 125.492188 267.390625 L 133.605469 222.765625 L 135.128906 215.152344 L 155.402344 218.175781 L 155.605469 217.058594 L 155.84375 215.75 L 135.855469 212.386719 L 135.773438 211.921875 L 135.941406 211.085938 L 136.035156 210.636719 L 136.105469 210.371094 L 136.128906 210.207031 L 137.007812 206.019531 L 169.132812 210.476562 L 169.410156 209.53125 L 169.644531 208.738281 L 137.457031 203.890625 L 138.277344 199.988281 L 140.03125 185.386719 L 141.722656 176.496094 L 141.960938 176.269531 L 176.796875 183.792969 L 177.027344 182.648438 L 177.246094 181.566406 L 142.234375 173.808594 L 142.367188 173.121094 L 148.265625 145.4375 L 150.238281 138.875 L 158.191406 140.167969 L 157.660156 142.695312 L 158.460938 142.984375 L 159.257812 143.273438 L 160.472656 136.195312 L 159.824219 136.085938 L 159.179688 135.976562 L 158.265625 138.507812 Z M 150.726562 136.921875 " transform="matrix(1,0,0,1,-74,-13)"/>
<path style="fill-rule:nonzero;fill:rgb(39.99939%,39.99939%,39.99939%);fill-opacity:1;stroke-width:0.03;stroke-linecap:square;stroke-linejoin:miter;stroke:rgb(39.99939%,39.99939%,39.99939%);stroke-opacity:1;stroke-miterlimit:3.239307;" d="M 304.367188 140.847656 L 304.089844 140.550781 L 306.589844 102.082031 L 306.839844 100.539062 L 309.503906 98.152344 L 307.664062 102.445312 L 305.328125 140.996094 Z M 304.367188 140.847656 " transform="matrix(1,0,0,1,-74,-13)"/>
<path style="fill-rule:nonzero;fill:rgb(39.99939%,39.99939%,39.99939%);fill-opacity:1;stroke-width:0.03;stroke-linecap:square;stroke-linejoin:miter;stroke:rgb(39.99939%,39.99939%,39.99939%);stroke-opacity:1;stroke-miterlimit:3.239307;" d="M 311.210938 94.195312 L 312.667969 77.5625 L 313.503906 77.621094 L 313.503906 90.179688 Z M 311.210938 94.195312 " transform="matrix(1,0,0,1,-74,-13)"/>
<path style=" stroke:none;fill-rule:evenodd;fill:rgb(85.096741%,85.096741%,81.959534%);fill-opacity:0.7;" d="M 228.363281 125 C 228.363281 118.804688 225.902344 112.859375 221.519531 108.480469 C 217.140625 104.097656 211.195312 101.636719 205 101.636719 C 198.804688 101.636719 192.859375 104.097656 188.480469 108.480469 C 184.097656 112.859375 181.636719 118.804688 181.636719 125 C 181.636719 131.195312 184.097656 137.140625 188.480469 141.519531 C 192.859375 145.902344 198.804688 148.363281 205 148.363281 C 211.195312 148.363281 217.140625 145.902344 221.519531 141.519531 C 225.902344 137.140625 228.363281 131.195312 228.363281 125 Z M 228.363281 125 "/>
<path style="fill-rule:nonzero;fill:rgb(99.998474%,99.998474%,30.587769%);fill-opacity:0.8;stroke-width:0.288;stroke-linecap:square;stroke-linejoin:miter;stroke:rgb(0%,0%,0%);stroke-opacity:0.8;stroke-miterlimit:3.25;" d="M 293.0625 230.359375 L 242.476562 317.972656 L 343.644531 317.972656 Z M 293.0625 230.359375 " transform="matrix(1,0,0,1,-74,-13)"/>
</g>
</svg>
