<?xml version="1.0" encoding="UTF-8"?>
<svg xmlns="http://www.w3.org/2000/svg" xmlns:xlink="http://www.w3.org/1999/xlink" width="361pt" height="361pt" viewBox="0 0 361 361" version="1.1">
<defs>
<clipPath id="clip1">
  <path d="M 166 231 L 320 231 L 320 360 L 166 360 Z M 166 231 "/>
</clipPath>
<clipPath id="clip2">
  <path d="M 261 326 L 360 326 L 360 360 L 261 360 Z M 261 326 "/>
</clipPath>
<clipPath id="clip3">
  <path d="M 358 201 L 360 201 L 360 325 L 358 325 Z M 358 201 "/>
</clipPath>
<clipPath id="clip4">
  <path d="M 0 13 L 280 13 L 280 360 L 0 360 Z M 0 13 "/>
</clipPath>
<clipPath id="clip5">
  <path d="M 209 0 L 360 0 L 360 318 L 209 318 Z M 209 0 "/>
</clipPath>
<clipPath id="clip6">
  <path d="M 0 318 L 1 318 L 1 360 L 0 360 Z M 0 318 "/>
</clipPath>
<clipPath id="clip7">
  <path d="M 0 0 L 37 0 L 37 360 L 0 360 Z M 0 0 "/>
</clipPath>
<clipPath id="clip8">
  <path d="M 88 139 L 248 139 L 248 360 L 88 360 Z M 88 139 "/>
</clipPath>
<clipPath id="clip9">
  <path d="M 358 112 L 360 112 L 360 353 L 358 353 Z M 358 112 "/>
</clipPath>
<clipPath id="clip10">
  <path d="M 0 347 L 32 347 L 32 360 L 0 360 Z M 0 347 "/>
</clipPath>
<clipPath id="clip11">
  <path d="M 286 0 L 360 0 L 360 46 L 286 46 Z M 286 0 "/>
</clipPath>
<clipPath id="clip12">
  <path d="M 246 0 L 360 0 L 360 14 L 246 14 Z M 246 0 "/>
</clipPath>
</defs>
<g id="surface1246">
<path style="fill-rule:nonzero;fill:rgb(0%,0%,0%);fill-opacity:1;stroke-width:0.03;stroke-linecap:square;stroke-linejoin:miter;stroke:rgb(0%,0%,0%);stroke-opacity:1;stroke-miterlimit:10;" d="M 0 178 L 360 178 L 360 -182 L 0 -182 Z M 0 178 " transform="matrix(1,0,0,1,0,182)"/>
<g clip-path="url(#clip1)" clip-rule="nonzero">
<path style=" stroke:none;fill-rule:nonzero;fill:rgb(39.99939%,39.99939%,39.99939%);fill-opacity:0.3;" d="M 166.175781 356.640625 L 252.238281 231.015625 L 263.335938 254.378906 L 276.441406 274.398438 L 290.046875 291.558594 L 300.859375 305.320312 L 319.207031 317.609375 L 278.101562 414.714844 Z M 166.175781 356.640625 "/>
</g>
<path style=" stroke:none;fill-rule:nonzero;fill:rgb(39.99939%,39.99939%,39.99939%);fill-opacity:0.3;" d="M 109.382812 79.136719 L 93.457031 103.308594 L 85.320312 98.96875 L 89.546875 92.550781 L 83.351562 89.117188 L 79.121094 95.535156 L 70.097656 90.535156 L 86.265625 65.996094 L 95.0625 71.34375 L 90.707031 77.953125 L 96.902344 81.386719 L 101.257812 74.777344 Z M 109.382812 79.136719 "/>
<path style=" stroke:none;fill-rule:nonzero;fill:rgb(39.99939%,39.99939%,39.99939%);fill-opacity:0.3;" d="M 97.953125 110.578125 L 82.027344 134.75 L 73.890625 130.40625 L 78.117188 123.992188 L 71.921875 120.558594 L 67.691406 126.976562 L 58.667969 121.976562 L 74.835938 97.4375 L 83.632812 102.785156 L 79.277344 109.394531 L 85.472656 112.828125 L 89.824219 106.21875 Z M 97.953125 110.578125 "/>
<path style=" stroke:none;fill-rule:nonzero;fill:rgb(39.99939%,39.99939%,39.99939%);fill-opacity:0.3;" d="M 86.980469 143.261719 L 71.054688 167.433594 L 62.914062 163.09375 L 67.144531 156.675781 L 60.949219 153.242188 L 56.71875 159.664062 L 47.695312 154.660156 L 63.863281 130.121094 L 72.65625 135.46875 L 68.300781 142.078125 L 74.496094 145.515625 L 78.851562 138.902344 Z M 86.980469 143.261719 "/>
<path style=" stroke:none;fill-rule:nonzero;fill:rgb(39.99939%,39.99939%,39.99939%);fill-opacity:0.3;" d="M 117.503906 124.546875 L 109.964844 120.367188 L 126.132812 95.828125 L 129.957031 98.152344 Z M 117.503906 124.546875 "/>
<path style=" stroke:none;fill-rule:nonzero;fill:rgb(39.99939%,39.99939%,39.99939%);fill-opacity:0.3;" d="M 103.828125 153.539062 L 95.46875 148.90625 L 111.636719 124.367188 L 116.261719 127.179688 Z M 103.828125 153.539062 "/>
<path style=" stroke:none;fill-rule:nonzero;fill:rgb(39.99939%,39.99939%,39.99939%);fill-opacity:0.3;" d="M 89.839844 183.183594 L 80.988281 178.277344 L 97.15625 153.738281 L 102.269531 156.84375 Z M 89.839844 183.183594 "/>
<g clip-path="url(#clip2)" clip-rule="nonzero">
<path style=" stroke:none;fill-rule:nonzero;fill:rgb(39.99939%,39.99939%,39.99939%);fill-opacity:0.3;" d="M 293.855469 413.8125 L 325.179688 326.941406 L 335.917969 326.3125 L 359.242188 337.140625 L 393.324219 384.398438 L 412.894531 414.308594 L 428.230469 441.132812 L 445.414062 471.804688 L 460.539062 504.203125 L 481.292969 530.839844 L 493.257812 546.964844 L 530.792969 581.070312 L 544.128906 593.214844 L 566.847656 613.300781 L 584.363281 631.875 L 588.535156 639.761719 L 575.839844 669.082031 L 563.441406 702.828125 L 506.0625 676.664062 L 488.449219 670.484375 L 444.125 663.632812 L 432.097656 657.671875 L 422.714844 641.082031 L 408.894531 635.488281 L 389.648438 629.898438 L 368.433594 624.777344 L 352.578125 625.332031 L 351.632812 605.152344 L 333.871094 602.367188 L 304.625 592.375 L 287.507812 581.902344 L 273.9375 554.574219 L 269.097656 536.320312 L 265.578125 518.304688 L 261.976562 499.410156 L 261.210938 481.5625 L 263.585938 467.839844 L 271.382812 450.707031 L 285.191406 427.289062 L 329.164062 456.339844 L 358.683594 478.5625 L 391.0625 499.535156 L 444.449219 548.609375 L 447.746094 546.222656 L 451.046875 543.839844 L 395.144531 494.769531 L 363.425781 471.910156 L 332.207031 447.617188 L 292.371094 419.3125 Z M 293.855469 413.8125 "/>
</g>
<g clip-path="url(#clip3)" clip-rule="nonzero">
<path style=" stroke:none;fill-rule:nonzero;fill:rgb(39.99939%,39.99939%,39.99939%);fill-opacity:0.3;" d="M 358.851562 324.375 L 358.71875 324.257812 L 403.058594 201.820312 L 403.058594 202.0625 Z M 358.851562 324.375 "/>
</g>
<g clip-path="url(#clip4)" clip-rule="nonzero">
<path style=" stroke:none;fill-rule:nonzero;fill:rgb(39.99939%,39.99939%,39.99939%);fill-opacity:0.3;" d="M 158.652344 361.058594 L 279.695312 422.828125 L 265.640625 445.746094 L 255.613281 467.707031 L 254.117188 494.632812 L 263.222656 532.789062 L 249.644531 534.714844 L 235.109375 574.429688 L 216.5625 620.253906 L 215.09375 648.882812 L 213.097656 658.902344 L 199.550781 682.773438 L 174.398438 680.421875 L 174.652344 683.28125 L 174.90625 686.144531 L 200.855469 690.363281 L 203.410156 727.628906 L 168.3125 733.425781 L 137.164062 739.066406 L 115.375 744.429688 L 107.050781 748.464844 L 107.546875 725.882812 L 101.195312 725.890625 L 100.175781 753.492188 L 87.464844 769.109375 L 76.496094 779.011719 L 64.007812 788.238281 L 50.988281 793.125 L 30.910156 795.898438 L 9.367188 799.019531 L -2.027344 800.992188 L -7.617188 802.207031 L -16.070312 801.457031 L 1.796875 731.046875 L 6.292969 714.90625 L 69.648438 726.96875 L 70.90625 723.050781 L 72.160156 719.128906 L 12.6875 707.476562 L 0.621094 703.796875 L -20.058594 699.417969 L -33.628906 665.699219 L -43.671875 642.460938 L -29.617188 620.496094 L -18.582031 599.015625 L -17.765625 592.898438 L -10.804688 576.363281 L -9.84375 555.222656 L -7.332031 554.800781 L 13.894531 649.902344 L 62.4375 631.75 L 79.996094 625.1875 L 78.773438 621.714844 L 77.472656 618.035156 L 65.308594 622.789062 L 53.140625 610.800781 L 50.773438 612.808594 L 48.304688 614.90625 L 59.074219 625.222656 L 18.3125 641.15625 L -1.769531 548.089844 L -5.097656 545.835938 L -7.96875 514.011719 L -7.761719 509.417969 L -8.734375 505.511719 L -10.296875 488.191406 L -19.472656 454.441406 L -24.402344 441.960938 L -18.410156 410.515625 L -10.804688 374 L 0.585938 318.6875 L 7.699219 293.433594 L 28.089844 213.203125 L 51.582031 136.636719 L 69.8125 88.195312 L 100.527344 14.796875 L 110.082031 13.832031 L 146.484375 63.125 L 51.429688 264.597656 L 88.097656 308.570312 L 155.046875 366.390625 Z M 158.652344 361.058594 "/>
</g>
<path style=" stroke:none;fill-rule:nonzero;fill:rgb(39.99939%,39.99939%,39.99939%);fill-opacity:0.3;" d="M 108.492188 -4.003906 L 128.085938 -19.773438 L 142.640625 -32.171875 L 161.925781 -50.242188 L 180.683594 -64.976562 L 195.789062 -75.367188 L 206.199219 -80.210938 L 216.410156 -84.328125 L 225.339844 -86.289062 L 237.964844 -87.246094 L 255.984375 -85.523438 L 273.367188 -82.113281 L 289.261719 -75.40625 L 305.449219 -66.816406 L 318.230469 -56.609375 L 359.527344 -19.882812 L 201.78125 118.488281 L 155.617188 56.414062 L 152.003906 51.429688 L 151.96875 51.503906 L 150.878906 50.039062 Z M 108.492188 -4.003906 "/>
<g clip-path="url(#clip5)" clip-rule="nonzero">
<path style=" stroke:none;fill-rule:nonzero;fill:rgb(39.99939%,39.99939%,39.99939%);fill-opacity:0.3;" d="M 368.859375 -13.128906 L 475.75 95.222656 L 451.242188 120.390625 L 449.449219 118.523438 L 445.664062 113.8125 L 445.136719 114.03125 L 439.53125 108.191406 L 427.828125 120.777344 L 414.6875 110.90625 L 425.449219 98.675781 L 423.9375 97.546875 L 422.261719 96.289062 L 408.980469 109.15625 L 397.367188 104.429688 L 385.859375 107.128906 L 379.484375 113.355469 L 372.574219 124.40625 L 369.132812 140.230469 L 368.835938 152.765625 L 367.597656 165.304688 L 370.378906 173.648438 L 374.824219 180.136719 L 381.109375 184.378906 L 387.394531 190.324219 L 395.480469 198.820312 L 354.054688 317.851562 L 338.953125 308.328125 L 318.308594 294.519531 L 302.699219 282.613281 L 293.632812 272.128906 L 282.957031 257.695312 L 209.835938 125.160156 L 335.933594 13.542969 L 371.191406 47.847656 L 376.214844 43.074219 L 342.96875 9.242188 Z M 368.859375 -13.128906 "/>
</g>
<path style=" stroke:none;fill-rule:nonzero;fill:rgb(39.99939%,39.99939%,39.99939%);fill-opacity:0.3;" d="M -141.324219 55.589844 L -81.082031 -138.191406 L -52.886719 -120.574219 L -24.695312 -103.433594 L -1.34375 -86.027344 L 43.601562 -46.019531 L 63.871094 -28.515625 L 86.898438 -1.738281 L 89.011719 10.148438 L 44.90625 124.902344 Z M -141.324219 55.589844 "/>
<g clip-path="url(#clip6)" clip-rule="nonzero">
<path style=" stroke:none;fill-rule:nonzero;fill:rgb(39.99939%,39.99939%,39.99939%);fill-opacity:0.3;" d="M -24.402344 441.960938 L -28.398438 431.84375 L -17.304688 385.242188 L -8.765625 351.867188 L 0.585938 318.6875 L -10.804688 374 L -18.410156 410.515625 Z M -24.402344 441.960938 "/>
</g>
<path style=" stroke:none;fill-rule:nonzero;fill:rgb(39.99939%,39.99939%,39.99939%);fill-opacity:0.3;" d="M 28.089844 213.203125 L 43.960938 150.746094 L 65.9375 97.449219 L 69.8125 88.195312 L 51.582031 136.636719 Z M 28.089844 213.203125 "/>
<g clip-path="url(#clip7)" clip-rule="nonzero">
<path style=" stroke:none;fill-rule:nonzero;fill:rgb(39.99939%,39.99939%,39.99939%);fill-opacity:0.3;" d="M -189.078125 349.816406 L -184.007812 358.511719 L -181.65625 357.214844 L -179.308594 355.914062 L -183.625 345.160156 L -183.265625 324.765625 L -185.761719 322.527344 L -183.28125 291.097656 L -181.753906 291.007812 L -180.808594 281.648438 L -152.8125 288.75 L -152.039062 284.484375 L -151.261719 280.21875 L -188.460938 270.871094 L -244.660156 256.75 L -234.363281 216.765625 L -175.808594 231.957031 L -173.714844 226.746094 L -232.886719 211.042969 L -220.9375 164.648438 L -73.382812 210.382812 L -72.304688 207.265625 L -71.226562 204.152344 L -218.691406 156.195312 L -208.605469 118.378906 L -216.546875 115.199219 L -217.921875 112.601562 L -287.785156 79.394531 L -255.25 -2.203125 L -221.390625 -89.160156 L -119.355469 -54.117188 L -155.738281 62.421875 L 36.191406 138.140625 L -21.742188 352.773438 L -32.222656 393.585938 L -38.957031 433.765625 L -32.890625 456.660156 L -26.820312 480.980469 L -23.273438 498.628906 L -22.167969 505.117188 L -211.648438 448.554688 Z M -189.078125 349.816406 "/>
</g>
<path style=" stroke:none;fill-rule:nonzero;fill:rgb(39.99939%,39.99939%,39.99939%);fill-opacity:0.3;" d="M 149.25 108.96875 L 133.324219 133.140625 L 125.1875 128.800781 L 129.414062 122.382812 L 123.21875 118.949219 L 118.988281 125.371094 L 117.503906 124.546875 L 129.957031 98.152344 L 134.929688 101.175781 L 130.574219 107.785156 L 136.769531 111.222656 L 141.125 104.609375 Z M 149.25 108.96875 "/>
<path style=" stroke:none;fill-rule:nonzero;fill:rgb(39.99939%,39.99939%,39.99939%);fill-opacity:0.3;" d="M 134.753906 137.507812 L 118.828125 161.679688 L 110.6875 157.339844 L 114.917969 150.921875 L 108.722656 147.488281 L 104.492188 153.910156 L 103.828125 153.539062 L 116.261719 127.179688 L 120.429688 129.714844 L 116.074219 136.324219 L 122.269531 139.761719 L 126.625 133.148438 Z M 134.753906 137.507812 "/>
<path style=" stroke:none;fill-rule:nonzero;fill:rgb(39.99939%,39.99939%,39.99939%);fill-opacity:0.3;" d="M 120.273438 166.875 L 104.347656 191.050781 L 96.210938 186.707031 L 100.4375 180.292969 L 94.242188 176.859375 L 90.011719 183.277344 L 89.839844 183.183594 L 102.269531 156.84375 L 105.953125 159.085938 L 101.597656 165.695312 L 107.792969 169.128906 L 112.148438 162.519531 Z M 120.273438 166.875 "/>
<path style=" stroke:none;fill-rule:nonzero;fill:rgb(39.99939%,39.99939%,39.99939%);fill-opacity:0.3;" d="M 105.90625 268.117188 L 93.636719 287.65625 L 85.6875 283.285156 L 84.652344 284.933594 L 76.167969 280.265625 L 77.207031 278.617188 L 69.6875 274.480469 L 81.960938 254.941406 L 89.476562 259.078125 L 90.878906 256.78125 L 99.328125 261.5625 L 97.984375 263.761719 Z M 105.90625 268.117188 "/>
<path style=" stroke:none;fill-rule:nonzero;fill:rgb(39.99939%,39.99939%,39.99939%);fill-opacity:0.3;" d="M 126.417969 235.800781 L 114.148438 255.339844 L 106.199219 250.96875 L 105.164062 252.617188 L 96.679688 247.949219 L 97.71875 246.300781 L 90.199219 242.164062 L 102.472656 222.625 L 109.988281 226.761719 L 111.390625 224.464844 L 119.839844 229.246094 L 118.496094 231.445312 Z M 126.417969 235.800781 "/>
<path style=" stroke:none;fill-rule:nonzero;fill:rgb(39.99939%,39.99939%,39.99939%);fill-opacity:0.3;" d="M 193.84375 128.664062 L 182.800781 146.25 L 175.644531 142.3125 L 174.714844 143.796875 L 167.082031 139.597656 L 168.011719 138.113281 L 161.246094 134.390625 L 172.292969 116.804688 L 179.058594 120.527344 L 180.320312 118.460938 L 187.925781 122.761719 L 186.714844 124.742188 Z M 193.84375 128.664062 "/>
<path style=" stroke:none;fill-rule:nonzero;fill:rgb(39.99939%,39.99939%,39.99939%);fill-opacity:0.3;" d="M 171.289062 166.898438 L 159.019531 186.4375 L 151.070312 182.066406 L 150.035156 183.714844 L 141.554688 179.046875 L 142.589844 177.398438 L 135.070312 173.261719 L 147.34375 153.722656 L 154.859375 157.859375 L 156.261719 155.5625 L 164.710938 160.34375 L 163.371094 162.542969 Z M 171.289062 166.898438 "/>
<path style=" stroke:none;fill-rule:nonzero;fill:rgb(39.99939%,39.99939%,39.99939%);fill-opacity:0.3;" d="M 147.570312 201.046875 L 135.296875 220.585938 L 127.347656 216.214844 L 126.3125 217.863281 L 117.832031 213.195312 L 118.867188 211.546875 L 111.351562 207.410156 L 123.621094 187.871094 L 131.140625 192.007812 L 132.542969 189.710938 L 140.992188 194.492188 L 139.648438 196.6875 Z M 147.570312 201.046875 "/>
<path style=" stroke:none;fill-rule:nonzero;fill:rgb(39.99939%,39.99939%,39.99939%);fill-opacity:0.3;" d="M 146.484375 63.125 L 174.074219 100.488281 L 194.761719 128.503906 L 198.445312 134.96875 L 201.148438 139.710938 L 88.097656 308.570312 L 51.429688 264.597656 Z M 146.484375 63.125 "/>
<path style=" stroke:none;fill-rule:nonzero;fill:rgb(39.99939%,39.99939%,39.99939%);fill-opacity:0.3;" d="M 155.617188 56.414062 L 151.96875 51.503906 L 152.003906 51.429688 Z M 155.617188 56.414062 "/>
<path style=" stroke:none;fill-rule:nonzero;fill:rgb(39.99939%,39.99939%,39.99939%);fill-opacity:0.3;" d="M 164.410156 198.464844 L 180.546875 207.480469 L 136.542969 277.4375 L 120.386719 268.414062 Z M 164.410156 198.464844 "/>
<path style=" stroke:none;fill-rule:nonzero;fill:rgb(39.99939%,39.99939%,39.99939%);fill-opacity:0.3;" d="M 109.765625 285.285156 L 125.90625 294.304688 L 110.585938 317.964844 L 94.828125 309.023438 Z M 109.765625 285.285156 "/>
<path style=" stroke:none;fill-rule:nonzero;fill:rgb(39.99939%,39.99939%,39.99939%);fill-opacity:0.3;" d="M 190.949219 156.296875 L 207.085938 165.3125 L 191.753906 189.675781 L 175.617188 180.660156 Z M 190.949219 156.296875 "/>
<g clip-path="url(#clip8)" clip-rule="nonzero">
<path style=" stroke:none;fill-rule:nonzero;fill:rgb(39.99939%,39.99939%,39.99939%);fill-opacity:0.3;" d="M 221.6875 175.761719 L 247.195312 220.527344 L 153.070312 358.210938 L 158.652344 361.058594 L 155.046875 366.390625 L 88.097656 308.570312 L 201.148438 139.710938 Z M 221.6875 175.761719 "/>
</g>
<g clip-path="url(#clip9)" clip-rule="nonzero">
<path style=" stroke:none;fill-rule:nonzero;fill:rgb(39.99939%,39.99939%,39.99939%);fill-opacity:0.3;" d="M 511.273438 201.5 L 511.652344 201.933594 L 383.507812 352.429688 L 371.3125 335.214844 L 358.851562 324.375 L 403.058594 202.0625 L 403.058594 201.820312 L 403.5625 200.4375 L 403.058594 199.820312 L 403.058594 189.890625 L 387.84375 183.804688 L 381.757812 173.152344 L 387.84375 121.421875 L 394.679688 113.21875 L 396.203125 112.503906 L 411.640625 116.917969 L 431.0625 128.5625 L 440.554688 120.664062 Z M 511.273438 201.5 "/>
</g>
<path style="fill-rule:nonzero;fill:rgb(39.99939%,39.99939%,39.99939%);fill-opacity:1;stroke-width:0.03;stroke-linecap:square;stroke-linejoin:miter;stroke:rgb(39.99939%,39.99939%,39.99939%);stroke-opacity:1;stroke-miterlimit:3.239307;" d="M 223.25 121.96875 L 207.324219 146.140625 L 199.1875 141.800781 L 203.414062 135.382812 L 197.21875 131.949219 L 192.988281 138.371094 L 191.503906 137.546875 L 203.957031 111.152344 L 208.929688 114.175781 L 204.574219 120.785156 L 210.769531 124.222656 L 215.125 117.609375 Z M 223.25 121.96875 " transform="matrix(1,0,0,1,-74,-13)"/>
<path style="fill-rule:nonzero;fill:rgb(39.99939%,39.99939%,39.99939%);fill-opacity:1;stroke-width:0.03;stroke-linecap:square;stroke-linejoin:miter;stroke:rgb(39.99939%,39.99939%,39.99939%);stroke-opacity:1;stroke-miterlimit:3.239307;" d="M 208.753906 150.507812 L 192.828125 174.679688 L 184.6875 170.339844 L 188.917969 163.921875 L 182.722656 160.488281 L 178.492188 166.910156 L 177.828125 166.539062 L 190.261719 140.179688 L 194.429688 142.714844 L 190.074219 149.324219 L 196.269531 152.761719 L 200.625 146.148438 Z M 208.753906 150.507812 " transform="matrix(1,0,0,1,-74,-13)"/>
<path style="fill-rule:nonzero;fill:rgb(39.99939%,39.99939%,39.99939%);fill-opacity:1;stroke-width:0.03;stroke-linecap:square;stroke-linejoin:miter;stroke:rgb(39.99939%,39.99939%,39.99939%);stroke-opacity:1;stroke-miterlimit:3.239307;" d="M 194.273438 179.875 L 178.347656 204.050781 L 170.210938 199.707031 L 174.4375 193.292969 L 168.242188 189.859375 L 164.011719 196.277344 L 163.839844 196.183594 L 176.269531 169.84375 L 179.953125 172.085938 L 175.597656 178.695312 L 181.792969 182.128906 L 186.148438 175.519531 Z M 194.273438 179.875 " transform="matrix(1,0,0,1,-74,-13)"/>
<path style="fill-rule:nonzero;fill:rgb(39.99939%,39.99939%,39.99939%);fill-opacity:1;stroke-width:0.03;stroke-linecap:square;stroke-linejoin:miter;stroke:rgb(39.99939%,39.99939%,39.99939%);stroke-opacity:1;stroke-miterlimit:3.239307;" d="M 179.90625 281.117188 L 167.636719 300.65625 L 159.6875 296.285156 L 158.652344 297.933594 L 150.167969 293.265625 L 151.207031 291.617188 L 143.6875 287.480469 L 155.960938 267.941406 L 163.476562 272.078125 L 164.878906 269.78125 L 173.328125 274.5625 L 171.984375 276.761719 Z M 179.90625 281.117188 " transform="matrix(1,0,0,1,-74,-13)"/>
<path style="fill-rule:nonzero;fill:rgb(39.99939%,39.99939%,39.99939%);fill-opacity:1;stroke-width:0.03;stroke-linecap:square;stroke-linejoin:miter;stroke:rgb(39.99939%,39.99939%,39.99939%);stroke-opacity:1;stroke-miterlimit:3.239307;" d="M 200.417969 248.800781 L 188.148438 268.339844 L 180.199219 263.96875 L 179.164062 265.617188 L 170.679688 260.949219 L 171.71875 259.300781 L 164.199219 255.164062 L 176.472656 235.625 L 183.988281 239.761719 L 185.390625 237.464844 L 193.839844 242.246094 L 192.496094 244.445312 Z M 200.417969 248.800781 " transform="matrix(1,0,0,1,-74,-13)"/>
<path style="fill-rule:nonzero;fill:rgb(39.99939%,39.99939%,39.99939%);fill-opacity:1;stroke-width:0.03;stroke-linecap:square;stroke-linejoin:miter;stroke:rgb(39.99939%,39.99939%,39.99939%);stroke-opacity:1;stroke-miterlimit:3.239307;" d="M 267.84375 141.664062 L 256.800781 159.25 L 249.644531 155.3125 L 248.714844 156.796875 L 241.082031 152.597656 L 242.011719 151.113281 L 235.246094 147.390625 L 246.292969 129.804688 L 253.058594 133.527344 L 254.320312 131.460938 L 261.925781 135.761719 L 260.714844 137.742188 Z M 267.84375 141.664062 " transform="matrix(1,0,0,1,-74,-13)"/>
<path style="fill-rule:nonzero;fill:rgb(39.99939%,39.99939%,39.99939%);fill-opacity:1;stroke-width:0.03;stroke-linecap:square;stroke-linejoin:miter;stroke:rgb(39.99939%,39.99939%,39.99939%);stroke-opacity:1;stroke-miterlimit:3.239307;" d="M 245.289062 179.898438 L 233.019531 199.4375 L 225.070312 195.066406 L 224.035156 196.714844 L 215.554688 192.046875 L 216.589844 190.398438 L 209.070312 186.261719 L 221.34375 166.722656 L 228.859375 170.859375 L 230.261719 168.5625 L 238.710938 173.34375 L 237.371094 175.542969 Z M 245.289062 179.898438 " transform="matrix(1,0,0,1,-74,-13)"/>
<path style="fill-rule:nonzero;fill:rgb(39.99939%,39.99939%,39.99939%);fill-opacity:1;stroke-width:0.03;stroke-linecap:square;stroke-linejoin:miter;stroke:rgb(39.99939%,39.99939%,39.99939%);stroke-opacity:1;stroke-miterlimit:3.239307;" d="M 221.570312 214.046875 L 209.296875 233.585938 L 201.347656 229.214844 L 200.3125 230.863281 L 191.832031 226.195312 L 192.867188 224.546875 L 185.351562 220.410156 L 197.621094 200.871094 L 205.140625 205.007812 L 206.542969 202.710938 L 214.992188 207.492188 L 213.648438 209.6875 Z M 221.570312 214.046875 " transform="matrix(1,0,0,1,-74,-13)"/>
<path style="fill-rule:nonzero;fill:rgb(39.99939%,39.99939%,39.99939%);fill-opacity:1;stroke-width:0.03;stroke-linecap:square;stroke-linejoin:miter;stroke:rgb(39.99939%,39.99939%,39.99939%);stroke-opacity:1;stroke-miterlimit:3.239307;" d="M 220.484375 76.125 L 248.074219 113.488281 L 268.761719 141.503906 L 272.445312 147.96875 L 275.148438 152.710938 L 162.097656 321.570312 L 125.429688 277.597656 Z M 220.484375 76.125 " transform="matrix(1,0,0,1,-74,-13)"/>
<path style="fill-rule:nonzero;fill:rgb(39.99939%,39.99939%,39.99939%);fill-opacity:1;stroke-width:0.03;stroke-linecap:square;stroke-linejoin:miter;stroke:rgb(39.99939%,39.99939%,39.99939%);stroke-opacity:1;stroke-miterlimit:3.239307;" d="M 229.617188 69.414062 L 225.96875 64.503906 L 226.003906 64.429688 Z M 229.617188 69.414062 " transform="matrix(1,0,0,1,-74,-13)"/>
<g clip-path="url(#clip10)" clip-rule="nonzero">
<path style=" stroke:none;fill-rule:evenodd;fill:rgb(85.096741%,85.096741%,81.959534%);fill-opacity:0.7;" d="M 31.863281 408 C 31.863281 391.859375 25.449219 376.378906 14.035156 364.964844 C 2.621094 353.550781 -12.859375 347.136719 -29 347.136719 C -45.140625 347.136719 -60.621094 353.550781 -72.035156 364.964844 C -83.449219 376.378906 -89.863281 391.859375 -89.863281 408 C -89.863281 424.140625 -83.449219 439.621094 -72.035156 451.035156 C -60.621094 462.449219 -45.140625 468.863281 -29 468.863281 C -12.859375 468.863281 2.621094 462.449219 14.035156 451.035156 C 25.449219 439.621094 31.863281 424.140625 31.863281 408 Z M 31.863281 408 "/>
</g>
<path style=" stroke:none;fill-rule:evenodd;fill:rgb(85.096741%,85.096741%,81.959534%);fill-opacity:0.7;" d="M 303.863281 190 C 303.863281 173.859375 297.449219 158.378906 286.035156 146.964844 C 274.621094 135.550781 259.140625 129.136719 243 129.136719 C 226.859375 129.136719 211.378906 135.550781 199.964844 146.964844 C 188.550781 158.378906 182.136719 173.859375 182.136719 190 C 182.136719 206.140625 188.550781 221.621094 199.964844 233.035156 C 211.378906 244.449219 226.859375 250.863281 243 250.863281 C 259.140625 250.863281 274.621094 244.449219 286.035156 233.035156 C 297.449219 221.621094 303.863281 206.140625 303.863281 190 Z M 303.863281 190 "/>
<path style=" stroke:none;fill-rule:evenodd;fill:rgb(85.096741%,85.096741%,81.959534%);fill-opacity:0.7;" d="M 133.863281 128 C 133.863281 111.859375 127.449219 96.378906 116.035156 84.964844 C 104.621094 73.550781 89.140625 67.136719 73 67.136719 C 56.859375 67.136719 41.378906 73.550781 29.964844 84.964844 C 18.550781 96.378906 12.136719 111.859375 12.136719 128 C 12.136719 144.140625 18.550781 159.621094 29.964844 171.035156 C 41.378906 182.449219 56.859375 188.863281 73 188.863281 C 89.140625 188.863281 104.621094 182.449219 116.035156 171.035156 C 127.449219 159.621094 133.863281 144.140625 133.863281 128 Z M 133.863281 128 "/>
<g clip-path="url(#clip11)" clip-rule="nonzero">
<path style=" stroke:none;fill-rule:evenodd;fill:rgb(85.096741%,85.096741%,81.959534%);fill-opacity:0.7;" d="M 407.863281 -15 C 407.863281 -31.140625 401.449219 -46.621094 390.035156 -58.035156 C 378.621094 -69.449219 363.140625 -75.863281 347 -75.863281 C 330.859375 -75.863281 315.378906 -69.449219 303.964844 -58.035156 C 292.550781 -46.621094 286.136719 -31.140625 286.136719 -15 C 286.136719 1.140625 292.550781 16.621094 303.964844 28.035156 C 315.378906 39.449219 330.859375 45.863281 347 45.863281 C 363.140625 45.863281 378.621094 39.449219 390.035156 28.035156 C 401.449219 16.621094 407.863281 1.140625 407.863281 -15 Z M 407.863281 -15 "/>
</g>
<g clip-path="url(#clip12)" clip-rule="nonzero">
<path style=" stroke:none;fill-rule:evenodd;fill:rgb(85.096741%,85.096741%,81.959534%);fill-opacity:0.7;" d="M 367.863281 -47 C 367.863281 -63.140625 361.449219 -78.621094 350.035156 -90.035156 C 338.621094 -101.449219 323.140625 -107.863281 307 -107.863281 C 290.859375 -107.863281 275.378906 -101.449219 263.964844 -90.035156 C 252.550781 -78.621094 246.136719 -63.140625 246.136719 -47 C 246.136719 -30.859375 252.550781 -15.378906 263.964844 -3.964844 C 275.378906 7.449219 290.859375 13.863281 307 13.863281 C 323.140625 13.863281 338.621094 7.449219 350.035156 -3.964844 C 361.449219 -15.378906 367.863281 -30.859375 367.863281 -47 Z M 367.863281 -47 "/>
</g>
</g>
</svg>
