<?xml version="1.0" encoding="UTF-8"?>
<svg xmlns="http://www.w3.org/2000/svg" xmlns:xlink="http://www.w3.org/1999/xlink" width="361pt" height="361pt" viewBox="0 0 361 361" version="1.1">
<defs>
<clipPath id="clip1">
  <path d="M 0 334 L 250 334 L 250 360 L 0 360 Z M 0 334 "/>
</clipPath>
<clipPath id="clip2">
  <path d="M 309 0 L 360 0 L 360 97 L 309 97 Z M 309 0 "/>
</clipPath>
<clipPath id="clip3">
  <path d="M 244 0 L 360 0 L 360 129 L 244 129 Z M 244 0 "/>
</clipPath>
<clipPath id="clip4">
  <path d="M 203 0 L 360 0 L 360 64 L 203 64 Z M 203 0 "/>
</clipPath>
<clipPath id="clip5">
  <path d="M 189 5 L 360 5 L 360 160 L 189 160 Z M 189 5 "/>
</clipPath>
<clipPath id="clip6">
  <path d="M 0 0 L 67 0 L 67 360 L 0 360 Z M 0 0 "/>
</clipPath>
<clipPath id="clip7">
  <path d="M 0 334 L 54 334 L 54 360 L 0 360 Z M 0 334 "/>
</clipPath>
<clipPath id="clip8">
  <path d="M 329 158 L 360 158 L 360 232 L 329 232 Z M 329 158 "/>
</clipPath>
<clipPath id="clip9">
  <path d="M 347 316 L 360 316 L 360 329 L 347 329 Z M 347 316 "/>
</clipPath>
<clipPath id="clip10">
  <path d="M 166 206 L 360 206 L 360 360 L 166 360 Z M 166 206 "/>
</clipPath>
</defs>
<g id="surface714">
<path style="fill-rule:nonzero;fill:rgb(0%,0%,0%);fill-opacity:1;stroke-width:0.03;stroke-linecap:square;stroke-linejoin:miter;stroke:rgb(0%,0%,0%);stroke-opacity:1;stroke-miterlimit:10;" d="M 0 178 L 360 178 L 360 -182 L 0 -182 Z M 0 178 " transform="matrix(1,0,0,1,0,182)"/>
<g clip-path="url(#clip1)" clip-rule="nonzero">
<path style=" stroke:none;fill-rule:nonzero;fill:rgb(39.99939%,39.99939%,39.99939%);fill-opacity:0.3;" d="M 224.667969 617.015625 L 249.40625 717.910156 L 240.75 721.261719 L 7.675781 795.4375 L -12.765625 801.414062 L -81.761719 660.191406 L -53.085938 662.523438 L -47.769531 704.492188 L -46.089844 704.492188 L -44.40625 704.488281 L -49.242188 662.628906 L -28.960938 662.582031 L -17.28125 662.136719 L -5.59375 707.4375 L -3.179688 707.246094 L -0.769531 707.050781 L -13.460938 662.050781 L 28.007812 659.574219 L 54.050781 654.824219 L 58.109375 686.078125 L 62.640625 686.039062 L 59.25 653.9375 L 97.277344 649.992188 L 110.058594 705.15625 L 112.097656 704.644531 L 114.132812 704.132812 L 100.460938 644.988281 L 57.761719 649.53125 L 16.867188 655.917969 L -3.683594 657.109375 L -29.039062 657.625 L -55.773438 657.289062 L -85.222656 654.488281 L -104.789062 617.015625 L -106.261719 614.199219 L 87.953125 577.796875 L 44.804688 512.714844 L 10.925781 519.847656 L -22.0625 526.085938 L -54.15625 532.328125 L -85.359375 538.566406 L -112.105469 547.484375 L -139.953125 549.683594 L -160.535156 510.265625 L -149.023438 505.75 L -170.757812 463.796875 L 55.328125 375.925781 L 112.570312 353.476562 L 149.054688 334.105469 L 160.335938 355.804688 L 170.007812 378.515625 L 176.101562 396.484375 L 95.914062 492.277344 L 98.546875 495.34375 L 101.324219 498.601562 L 178.835938 405.875 L 189.4375 450.125 L 187.269531 452.484375 L 119.15625 483.203125 L 142.070312 557.023438 L 203.113281 514.828125 L 206.214844 531.335938 L 215.414062 579.273438 Z M 224.667969 617.015625 "/>
</g>
<path style=" stroke:none;fill-rule:nonzero;fill:rgb(39.99939%,39.99939%,39.99939%);fill-opacity:0.3;" d="M 140.488281 325.125 L 140.519531 325.289062 L 138.375 328.003906 L 100.019531 346.683594 L 63.25 359.289062 L 62.054688 358.972656 Z M 140.488281 325.125 "/>
<path style=" stroke:none;fill-rule:nonzero;fill:rgb(39.99939%,39.99939%,39.99939%);fill-opacity:0.3;" d="M -24.15625 3.753906 L 131.148438 122.230469 L 110.65625 148.410156 L -48.238281 32.011719 Z M -24.15625 3.753906 "/>
<path style=" stroke:none;fill-rule:nonzero;fill:rgb(39.99939%,39.99939%,39.99939%);fill-opacity:0.3;" d="M 134.449219 -149.597656 L 194.253906 5.652344 L 180.460938 13.324219 L 137.976562 -21.183594 L 132.796875 -28.171875 L 129.066406 -33.820312 L 96.515625 -128.128906 L 100.523438 -131.765625 L 103.769531 -136.800781 L 104.660156 -140.445312 Z M 134.449219 -149.597656 "/>
<g clip-path="url(#clip2)" clip-rule="nonzero">
<path style=" stroke:none;fill-rule:nonzero;fill:rgb(39.99939%,39.99939%,39.99939%);fill-opacity:0.3;" d="M 309.726562 -9.453125 L 309.085938 -18.742188 L 345.890625 -31.757812 L 477.757812 71.4375 L 445.59375 96.164062 Z M 309.726562 -9.453125 "/>
</g>
<path style=" stroke:none;fill-rule:nonzero;fill:rgb(39.99939%,39.99939%,39.99939%);fill-opacity:0.3;" d="M 2.109375 -26.675781 L 157.265625 84.050781 L 155.398438 91.269531 L 135.699219 116.417969 L -19.960938 -1.105469 Z M 2.109375 -26.675781 "/>
<path style=" stroke:none;fill-rule:nonzero;fill:rgb(39.99939%,39.99939%,39.99939%);fill-opacity:0.3;" d="M -76.1875 64.125 L -53.109375 37.335938 L 105.519531 154.972656 L 82.90625 183.875 Z M -76.1875 64.125 "/>
<path style=" stroke:none;fill-rule:nonzero;fill:rgb(39.99939%,39.99939%,39.99939%);fill-opacity:0.3;" d="M -18.898438 -106.007812 L -17.464844 -109.359375 L -16.058594 -111.304688 L -12.355469 -113.613281 L 54.617188 -127.976562 L 68.507812 -130.914062 L 70.109375 -129.0625 L 73.46875 -127.324219 L 77.914062 -125.863281 L 81.953125 -125.234375 L 86.039062 -125.023438 L 93.191406 -102.394531 L 117.273438 -35.957031 L 124.863281 -23.183594 L 130.589844 -14.402344 L 152.765625 6.261719 L 173.027344 24.394531 L 140.328125 62.042969 L 51.386719 0.3125 L 30.839844 -15.351562 L 13.28125 -28.902344 L 2.894531 -38.851562 L -4.140625 -50.152344 L -16.175781 -91.101562 Z M -18.898438 -106.007812 "/>
<g clip-path="url(#clip3)" clip-rule="nonzero">
<path style=" stroke:none;fill-rule:nonzero;fill:rgb(39.99939%,39.99939%,39.99939%);fill-opacity:0.3;" d="M 244.175781 2.355469 L 245.179688 -0.238281 L 249.117188 -3.210938 L 286.824219 -17.019531 L 290.90625 -16.097656 L 295.355469 -13.683594 L 439.519531 100.835938 L 403.78125 128.328125 Z M 244.175781 2.355469 "/>
</g>
<g clip-path="url(#clip4)" clip-rule="nonzero">
<path style=" stroke:none;fill-rule:nonzero;fill:rgb(39.99939%,39.99939%,39.99939%);fill-opacity:0.3;" d="M 603.691406 -49.15625 L 618.714844 -30.429688 L 619.195312 -27.066406 L 614.140625 -23.238281 L 603.691406 -16.421875 L 526.988281 33.628906 L 519.160156 40.148438 L 487.5625 63.902344 L 361.789062 -33.542969 L 355.226562 -41.75 L 349.578125 -51.550781 L 247.402344 -332.03125 L 203.859375 -449.941406 L 205.8125 -451.269531 L 233.410156 -438.246094 L 301.890625 -403.042969 L 367.25 -371.175781 L 397.683594 -358.457031 L 413.121094 -355.558594 L 429.109375 -352.722656 L 444.730469 -349.523438 L 458.527344 -346.320312 L 467.957031 -341.375 L 475.402344 -336.238281 L 483.375 -328.359375 L 571.027344 -177.9375 L 483.378906 -148.867188 L 477.53125 -161.96875 L 474.394531 -160.71875 L 471.261719 -159.464844 L 478.949219 -140.761719 L 569.574219 -169.554688 L 562.605469 -107.03125 L 562.84375 -101.050781 L 566.015625 -96.128906 Z M 603.691406 -49.15625 "/>
</g>
<g clip-path="url(#clip5)" clip-rule="nonzero">
<path style=" stroke:none;fill-rule:nonzero;fill:rgb(39.99939%,39.99939%,39.99939%);fill-opacity:0.3;" d="M 228.058594 5.132812 L 231.207031 5.578125 L 234.824219 6.019531 L 239.691406 7.804688 L 244.867188 10.484375 L 397.324219 133.296875 L 363.136719 159.605469 L 189.222656 22.5 L 189.074219 20.707031 L 191.292969 18.019531 L 195.554688 15.628906 Z M 228.058594 5.132812 "/>
</g>
<path style=" stroke:none;fill-rule:nonzero;fill:rgb(39.99939%,39.99939%,39.99939%);fill-opacity:0.3;" d="M 177.855469 28.46875 L 353.726562 166.261719 L 318.914062 193.652344 L 188.683594 97.789062 L 166.941406 80.320312 L 166.269531 81.0625 L 145.835938 65.679688 Z M 177.855469 28.46875 "/>
<path style=" stroke:none;fill-rule:nonzero;fill:rgb(39.99939%,39.99939%,39.99939%);fill-opacity:0.3;" d="M -101.917969 102.054688 L -101.164062 94.597656 L -96.304688 85.914062 L -94.882812 83.363281 L -91.511719 79.144531 L -89.410156 76.328125 L -87.285156 74.320312 L -82.488281 72.679688 L -78.359375 72.296875 L -73.683594 74.292969 L -71.957031 75.492188 L 78.8125 189.105469 L 70.859375 199.523438 L 65.308594 204.246094 L 51.429688 216.582031 Z M -101.917969 102.054688 "/>
<g clip-path="url(#clip6)" clip-rule="nonzero">
<path style=" stroke:none;fill-rule:nonzero;fill:rgb(39.99939%,39.99939%,39.99939%);fill-opacity:0.3;" d="M -163.125 76.316406 L -171.0625 89.632812 L -168.878906 90.84375 L -166.699219 92.054688 L -158.9375 79.066406 L -110.273438 115.628906 L -117.976562 126.699219 L -116.316406 127.769531 L -114.652344 128.839844 L -107.011719 117.867188 L 31.914062 223.199219 L -92.328125 260.140625 L -91.515625 261.480469 L -90.707031 262.824219 L 31.507812 226.648438 L 37.574219 227.40625 L 66.042969 249.320312 L -73.128906 299.8125 L -56.839844 333.820312 L -106.699219 323.863281 L -107.386719 325.828125 L -107.871094 328.402344 L -52.121094 339.585938 L -25.539062 394.332031 L -186.511719 457.523438 L -295.753906 240.996094 L -250.730469 213.066406 L -151.097656 230.078125 L -150.582031 228.085938 L -150.070312 226.09375 L -248.179688 208.125 L -251.140625 204.707031 L -245.175781 186.851562 L -142.726562 209.128906 L -142.175781 207.101562 L -141.625 205.070312 L -243.785156 182.691406 L -235.238281 157.992188 L -153.414062 178.503906 L -153.007812 176.253906 L -152.601562 174.007812 L -233.78125 152.753906 L -230.71875 143.582031 L -135.375 167.359375 L -134.9375 163.367188 L -229.246094 139.171875 L -226.050781 129.605469 L -230.269531 128.339844 L -233.542969 138.070312 L -234.914062 137.472656 L -259.003906 209.578125 L -298.976562 234.839844 L -393.546875 47.910156 L -350.9375 -62.046875 L -348.144531 -63.542969 Z M -163.125 76.316406 "/>
</g>
<g clip-path="url(#clip7)" clip-rule="nonzero">
<path style=" stroke:none;fill-rule:nonzero;fill:rgb(39.99939%,39.99939%,39.99939%);fill-opacity:0.3;" d="M -35.625 358.8125 L 39.101562 334.9375 L 53.527344 362.566406 L 6.6875 382.039062 L -18.683594 391.601562 Z M -35.625 358.8125 "/>
</g>
<path style=" stroke:none;fill-rule:nonzero;fill:rgb(39.99939%,39.99939%,39.99939%);fill-opacity:0.3;" d="M -64.734375 301.289062 L 71.011719 252.449219 L 102.722656 279.699219 L 119.636719 296.433594 L 129.804688 307.105469 L 138.140625 316.871094 L 139.292969 319.210938 L 140.488281 325.125 L 62.054688 358.972656 L 57.902344 357.875 L 43.347656 330.375 L 21.296875 288.722656 L -2.59375 297.910156 L -1.054688 300.941406 L 18.667969 293.714844 L 37.152344 331.652344 L -37.375 355.707031 L -45.898438 338.519531 L 20.855469 313.664062 L 19.667969 311.535156 L 18.433594 308.820312 L -48.433594 333.242188 Z M -64.734375 301.289062 "/>
<g clip-path="url(#clip8)" clip-rule="nonzero">
<path style=" stroke:none;fill-rule:nonzero;fill:rgb(39.99939%,39.99939%,39.99939%);fill-opacity:0.3;" d="M 415.765625 231.863281 L 330.019531 204.496094 L 329.605469 202.25 L 388.976562 158.015625 L 389.976562 160.253906 L 400.046875 192.488281 L 413.21875 226.601562 Z M 415.765625 231.863281 "/>
</g>
<path style=" stroke:none;fill-rule:nonzero;fill:rgb(39.99939%,39.99939%,39.99939%);fill-opacity:0.3;" d="M 335.453125 300.363281 L 340.335938 288.738281 L 348.570312 291.847656 L 343.691406 303.472656 Z M 335.453125 300.363281 "/>
<path style=" stroke:none;fill-rule:nonzero;fill:rgb(39.99939%,39.99939%,39.99939%);fill-opacity:0.3;" d="M 284.4375 256.664062 L 285.324219 260.472656 L 286.058594 260.316406 L 287.464844 266.339844 L 286.726562 266.496094 L 287.613281 270.300781 L 279.914062 271.917969 L 279.027344 268.113281 L 278.191406 268.289062 L 276.785156 262.265625 L 277.625 262.089844 L 276.738281 258.28125 Z M 284.4375 256.664062 "/>
<path style=" stroke:none;fill-rule:nonzero;fill:rgb(39.99939%,39.99939%,39.99939%);fill-opacity:0.3;" d="M 295.691406 271.105469 L 296.578125 274.910156 L 297.316406 274.757812 L 298.71875 280.78125 L 297.980469 280.933594 L 298.867188 284.742188 L 291.167969 286.359375 L 290.28125 282.554688 L 289.445312 282.730469 L 288.039062 276.707031 L 288.878906 276.53125 L 287.992188 272.722656 Z M 295.691406 271.105469 "/>
<path style=" stroke:none;fill-rule:nonzero;fill:rgb(39.99939%,39.99939%,39.99939%);fill-opacity:0.3;" d="M 292.1875 321.402344 L 296.199219 322.246094 L 296.363281 321.546875 L 302.714844 322.886719 L 302.550781 323.585938 L 306.566406 324.429688 L 304.851562 331.730469 L 300.839844 330.886719 L 300.652344 331.679688 L 294.300781 330.34375 L 294.488281 329.546875 L 290.472656 328.703125 Z M 292.1875 321.402344 "/>
<path style=" stroke:none;fill-rule:nonzero;fill:rgb(39.99939%,39.99939%,39.99939%);fill-opacity:0.3;" d="M 242.914062 281.171875 L 246.988281 272.972656 L 253.894531 276.058594 L 249.820312 284.257812 Z M 242.914062 281.171875 "/>
<path style=" stroke:none;fill-rule:nonzero;fill:rgb(39.99939%,39.99939%,39.99939%);fill-opacity:0.3;" d="M 279.796875 309.191406 L 283.808594 310.039062 L 283.972656 309.339844 L 290.324219 310.675781 L 290.160156 311.375 L 294.171875 312.21875 L 292.460938 319.519531 L 288.445312 318.675781 L 288.261719 319.46875 L 281.910156 318.132812 L 282.097656 317.339844 L 278.082031 316.492188 Z M 279.796875 309.191406 "/>
<path style=" stroke:none;fill-rule:nonzero;fill:rgb(39.99939%,39.99939%,39.99939%);fill-opacity:0.3;" d="M 335.710938 307.378906 L 336.601562 311.183594 L 337.335938 311.03125 L 338.742188 317.054688 L 338.003906 317.210938 L 338.890625 321.015625 L 331.191406 322.636719 L 330.304688 318.828125 L 329.46875 319.003906 L 328.0625 312.980469 L 328.902344 312.804688 L 328.011719 308.996094 Z M 335.710938 307.378906 "/>
<g clip-path="url(#clip9)" clip-rule="nonzero">
<path style=" stroke:none;fill-rule:nonzero;fill:rgb(39.99939%,39.99939%,39.99939%);fill-opacity:0.3;" d="M 350.195312 316.53125 L 354.066406 317.84375 L 354.320312 317.167969 L 360.445312 319.246094 L 360.191406 319.921875 L 364.0625 321.234375 L 361.402344 328.273438 L 357.53125 326.960938 L 357.242188 327.730469 L 351.117188 325.652344 L 351.40625 324.886719 L 347.535156 323.570312 Z M 350.195312 316.53125 "/>
</g>
<g clip-path="url(#clip10)" clip-rule="nonzero">
<path style=" stroke:none;fill-rule:nonzero;fill:rgb(39.99939%,39.99939%,39.99939%);fill-opacity:0.3;" d="M 248.300781 617.015625 L 258.285156 614.128906 L 325.761719 602.207031 L 324.144531 598.769531 L 256.871094 610.691406 L 245.59375 613.953125 L 241.566406 615.679688 L 232.058594 576.191406 L 222.132812 529.007812 L 219.160156 510.566406 L 287.296875 504.511719 L 273.035156 442.28125 L 249.855469 432.476562 L 207.515625 446.589844 L 186.511719 370 L 179.6875 351.421875 L 172.800781 336.101562 L 166.09375 324.605469 L 166.03125 318.335938 L 195.613281 295.230469 L 239.878906 264.410156 L 317.46875 206.90625 L 603.691406 297.53125 L 807.824219 362.167969 L 808.933594 365.476562 L 809.308594 369.335938 L 653.316406 617.015625 L 644.050781 631.734375 L 634.578125 633.863281 L 641.234375 625.9375 L 632.320312 630.394531 L 306.019531 696.367188 L 267.085938 711.078125 L 256.371094 665.675781 L 279.050781 659.863281 L 295.105469 658.652344 L 307.691406 656.25 L 324.371094 652.050781 L 348.921875 646.816406 L 362.921875 643.304688 L 410.859375 633.355469 L 410.320312 631.667969 L 409.78125 629.984375 L 360.929688 639.820312 L 347.96875 643.070312 L 318.386719 649.671875 L 299.820312 654.167969 L 286.601562 655.675781 L 270.550781 658.082031 L 255.285156 661.582031 L 243.90625 619.515625 L 247.007812 617.390625 Z M 248.300781 617.015625 "/>
</g>
<path style=" stroke:none;fill-rule:nonzero;fill:rgb(39.99939%,39.99939%,39.99939%);fill-opacity:0.3;" d="M 304.671875 333.167969 L 308.683594 334.011719 L 308.847656 333.316406 L 315.199219 334.652344 L 315.035156 335.351562 L 319.050781 336.195312 L 317.339844 343.496094 L 313.324219 342.652344 L 313.136719 343.445312 L 306.785156 342.109375 L 306.972656 341.316406 L 302.960938 340.46875 Z M 304.671875 333.167969 "/>
<path style=" stroke:none;fill-rule:nonzero;fill:rgb(39.99939%,39.99939%,39.99939%);fill-opacity:0.3;" d="M 323.335938 336.203125 L 326.429688 333.628906 L 325.933594 333.089844 L 330.824219 329.023438 L 331.320312 329.558594 L 334.414062 326.988281 L 339.613281 332.609375 L 336.519531 335.179688 L 337.085938 335.792969 L 332.191406 339.863281 L 331.625 339.25 L 328.535156 341.824219 Z M 323.335938 336.203125 "/>
<path style=" stroke:none;fill-rule:nonzero;fill:rgb(39.99939%,39.99939%,39.99939%);fill-opacity:0.3;" d="M 264.628906 296.417969 L 268.640625 297.265625 L 268.804688 296.566406 L 275.15625 297.902344 L 274.992188 298.601562 L 279.003906 299.445312 L 277.292969 306.746094 L 273.277344 305.902344 L 273.089844 306.695312 L 266.742188 305.359375 L 266.925781 304.566406 L 262.914062 303.71875 Z M 264.628906 296.417969 "/>
<path style=" stroke:none;fill-rule:nonzero;fill:rgb(39.99939%,39.99939%,39.99939%);fill-opacity:0.3;" d="M 252.382812 284.347656 L 256.398438 285.195312 L 256.5625 284.496094 L 262.910156 285.832031 L 262.746094 286.53125 L 266.761719 287.375 L 265.046875 294.675781 L 261.035156 293.832031 L 260.847656 294.625 L 254.496094 293.289062 L 254.683594 292.492188 L 250.671875 291.648438 Z M 252.382812 284.347656 "/>
<path style=" stroke:none;fill-rule:nonzero;fill:rgb(39.99939%,39.99939%,39.99939%);fill-opacity:0.3;" d="M 322.445312 295.414062 L 323.332031 299.222656 L 324.070312 299.066406 L 325.472656 305.089844 L 324.738281 305.246094 L 325.625 309.054688 L 317.925781 310.671875 L 317.039062 306.863281 L 316.199219 307.039062 L 314.796875 301.015625 L 315.632812 300.839844 L 314.746094 297.03125 Z M 322.445312 295.414062 "/>
<path style=" stroke:none;fill-rule:nonzero;fill:rgb(39.99939%,39.99939%,39.99939%);fill-opacity:0.3;" d="M 309.480469 282.925781 L 310.367188 286.734375 L 311.105469 286.578125 L 312.507812 292.605469 L 311.769531 292.757812 L 312.660156 296.566406 L 304.960938 298.183594 L 304.070312 294.375 L 303.234375 294.554688 L 301.828125 288.527344 L 302.667969 288.351562 L 301.78125 284.546875 Z M 309.480469 282.925781 "/>
<path style=" stroke:none;fill-rule:nonzero;fill:rgb(39.99939%,39.99939%,39.99939%);fill-opacity:0.3;" d="M 178.546875 163.980469 L 180.300781 163.355469 L 182.714844 163.351562 L 186.136719 165.695312 L 222.492188 191.582031 L 223.984375 194 L 224.566406 196.757812 L 223.011719 199.339844 L 186.136719 226.972656 L 180.648438 228.148438 L 174.722656 226.285156 L 142.160156 211.195312 L 140.511719 209.074219 L 142.265625 205.539062 Z M 178.546875 163.980469 "/>
<path style=" stroke:none;fill-rule:nonzero;fill:rgb(39.99939%,39.99939%,39.99939%);fill-opacity:0.3;" d="M 308.570312 201.617188 L 157.136719 308.570312 L 60.941406 223.484375 L 161.957031 96.34375 L 165.867188 95.652344 L 169.925781 95.648438 L 174.128906 96.464844 L 179.777344 98.519531 L 255.707031 158.722656 L 257.167969 164.402344 L 251.46875 176.730469 L 242.109375 183.113281 L 234.070312 185.335938 L 225.640625 186.371094 L 178.847656 154.117188 L 133.929688 204.964844 L 131.773438 209.507812 L 132.242188 212.191406 L 133.898438 214.429688 L 171.226562 232.96875 L 177.132812 234.753906 L 182.566406 234.523438 L 187.761719 232.726562 L 193.433594 228.914062 L 271.429688 172.59375 Z M 308.570312 201.617188 "/>
<path style=" stroke:none;fill-rule:nonzero;fill:rgb(39.99939%,39.99939%,39.99939%);fill-opacity:0.3;" d="M 188.683594 97.789062 L 180.097656 91.46875 L 166.269531 81.0625 L 166.941406 80.320312 Z M 188.683594 97.789062 "/>
<path style=" stroke:none;fill-rule:nonzero;fill:rgb(39.99939%,39.99939%,39.99939%);fill-opacity:0.3;" d="M 70.859375 199.523438 L 55.515625 219.632812 L 51.429688 216.582031 L 65.308594 204.246094 Z M 70.859375 199.523438 "/>
<path style="fill-rule:nonzero;fill:rgb(39.99939%,39.99939%,39.99939%);fill-opacity:1;stroke-width:0.03;stroke-linecap:square;stroke-linejoin:miter;stroke:rgb(39.99939%,39.99939%,39.99939%);stroke-opacity:1;stroke-miterlimit:3.239307;" d="M 252.546875 176.980469 L 254.300781 176.355469 L 256.714844 176.351562 L 260.136719 178.695312 L 296.492188 204.582031 L 297.984375 207 L 298.566406 209.757812 L 297.011719 212.339844 L 260.136719 239.972656 L 254.648438 241.148438 L 248.722656 239.285156 L 216.160156 224.195312 L 214.511719 222.074219 L 216.265625 218.539062 Z M 252.546875 176.980469 " transform="matrix(1,0,0,1,-74,-13)"/>
<path style="fill-rule:nonzero;fill:rgb(39.99939%,39.99939%,39.99939%);fill-opacity:1;stroke-width:0.03;stroke-linecap:square;stroke-linejoin:miter;stroke:rgb(39.99939%,39.99939%,39.99939%);stroke-opacity:1;stroke-miterlimit:3.239307;" d="M 382.570312 214.617188 L 231.136719 321.570312 L 134.941406 236.484375 L 235.957031 109.34375 L 239.867188 108.652344 L 243.925781 108.648438 L 248.128906 109.464844 L 253.777344 111.519531 L 329.707031 171.722656 L 331.167969 177.402344 L 325.46875 189.730469 L 316.109375 196.113281 L 308.070312 198.335938 L 299.640625 199.371094 L 252.847656 167.117188 L 207.929688 217.964844 L 205.773438 222.507812 L 206.242188 225.191406 L 207.898438 227.429688 L 245.226562 245.96875 L 251.132812 247.753906 L 256.566406 247.523438 L 261.761719 245.726562 L 267.433594 241.914062 L 345.429688 185.59375 Z M 382.570312 214.617188 " transform="matrix(1,0,0,1,-74,-13)"/>
<path style="fill-rule:nonzero;fill:rgb(39.99939%,39.99939%,39.99939%);fill-opacity:1;stroke-width:0.03;stroke-linecap:square;stroke-linejoin:miter;stroke:rgb(39.99939%,39.99939%,39.99939%);stroke-opacity:1;stroke-miterlimit:3.239307;" d="M 262.683594 110.789062 L 254.097656 104.46875 L 240.269531 94.0625 L 240.941406 93.320312 Z M 262.683594 110.789062 " transform="matrix(1,0,0,1,-74,-13)"/>
<path style="fill-rule:nonzero;fill:rgb(39.99939%,39.99939%,39.99939%);fill-opacity:1;stroke-width:0.03;stroke-linecap:square;stroke-linejoin:miter;stroke:rgb(39.99939%,39.99939%,39.99939%);stroke-opacity:1;stroke-miterlimit:3.239307;" d="M 144.859375 212.523438 L 129.515625 232.632812 L 125.429688 229.582031 L 139.308594 217.246094 Z M 144.859375 212.523438 " transform="matrix(1,0,0,1,-74,-13)"/>
<path style=" stroke:none;fill-rule:evenodd;fill:rgb(85.096741%,85.096741%,81.959534%);fill-opacity:0.7;" d="M 359.660156 256 C 359.660156 246.542969 355.902344 237.472656 349.214844 230.785156 C 342.527344 224.097656 333.457031 220.339844 324 220.339844 C 314.542969 220.339844 305.472656 224.097656 298.785156 230.785156 C 292.097656 237.472656 288.339844 246.542969 288.339844 256 C 288.339844 265.457031 292.097656 274.527344 298.785156 281.214844 C 305.472656 287.902344 314.542969 291.660156 324 291.660156 C 333.457031 291.660156 342.527344 287.902344 349.214844 281.214844 C 355.902344 274.527344 359.660156 265.457031 359.660156 256 Z M 359.660156 256 "/>
<path style=" stroke:none;fill-rule:evenodd;fill:rgb(85.096741%,85.096741%,81.959534%);fill-opacity:0.7;" d="M 315.660156 246 C 315.660156 236.542969 311.902344 227.472656 305.214844 220.785156 C 298.527344 214.097656 289.457031 210.339844 280 210.339844 C 270.542969 210.339844 261.472656 214.097656 254.785156 220.785156 C 248.097656 227.472656 244.339844 236.542969 244.339844 246 C 244.339844 255.457031 248.097656 264.527344 254.785156 271.214844 C 261.472656 277.902344 270.542969 281.660156 280 281.660156 C 289.457031 281.660156 298.527344 277.902344 305.214844 271.214844 C 311.902344 264.527344 315.660156 255.457031 315.660156 246 Z M 315.660156 246 "/>
<path style=" stroke:none;fill-rule:evenodd;fill:rgb(85.096741%,85.096741%,81.959534%);fill-opacity:0.7;" d="M 19.660156 -9 C 19.660156 -18.457031 15.902344 -27.527344 9.214844 -34.214844 C 2.527344 -40.902344 -6.542969 -44.660156 -16 -44.660156 C -25.457031 -44.660156 -34.527344 -40.902344 -41.214844 -34.214844 C -47.902344 -27.527344 -51.660156 -18.457031 -51.660156 -9 C -51.660156 0.457031 -47.902344 9.527344 -41.214844 16.214844 C -34.527344 22.902344 -25.457031 26.660156 -16 26.660156 C -6.542969 26.660156 2.527344 22.902344 9.214844 16.214844 C 15.902344 9.527344 19.660156 0.457031 19.660156 -9 Z M 19.660156 -9 "/>
</g>
</svg>
