<?xml version="1.0" encoding="UTF-8"?>
<svg xmlns="http://www.w3.org/2000/svg" xmlns:xlink="http://www.w3.org/1999/xlink" width="361pt" height="361pt" viewBox="0 0 361 361" version="1.1">
<defs>
<clipPath id="clip1">
  <path d="M 112 302 L 189 302 L 189 360 L 112 360 Z M 112 302 "/>
</clipPath>
<clipPath id="clip2">
  <path d="M 21 359 L 25 359 L 25 360 L 21 360 Z M 21 359 "/>
</clipPath>
<clipPath id="clip3">
  <path d="M 91 300 L 122 300 L 122 360 L 91 360 Z M 91 300 "/>
</clipPath>
<clipPath id="clip4">
  <path d="M 356 160 L 360 160 L 360 187 L 356 187 Z M 356 160 "/>
</clipPath>
<clipPath id="clip5">
  <path d="M 326 183 L 360 183 L 360 260 L 326 260 Z M 326 183 "/>
</clipPath>
<clipPath id="clip6">
  <path d="M 186 312 L 234 312 L 234 360 L 186 360 Z M 186 312 "/>
</clipPath>
<clipPath id="clip7">
  <path d="M 226 317 L 274 317 L 274 360 L 226 360 Z M 226 317 "/>
</clipPath>
<clipPath id="clip8">
  <path d="M 266 322 L 313 322 L 313 360 L 266 360 Z M 266 322 "/>
</clipPath>
<clipPath id="clip9">
  <path d="M 306 327 L 333 327 L 333 360 L 306 360 Z M 306 327 "/>
</clipPath>
<clipPath id="clip10">
  <path d="M 324 329 L 354 329 L 354 360 L 324 360 Z M 324 329 "/>
</clipPath>
<clipPath id="clip11">
  <path d="M 345 332 L 360 332 L 360 360 L 345 360 Z M 345 332 "/>
</clipPath>
<clipPath id="clip12">
  <path d="M 355 329 L 360 329 L 360 333 L 355 333 Z M 355 329 "/>
</clipPath>
<clipPath id="clip13">
  <path d="M 0 358 L 24 358 L 24 360 L 0 360 Z M 0 358 "/>
</clipPath>
<clipPath id="clip14">
  <path d="M 0 357 L 3 357 L 3 360 L 0 360 Z M 0 357 "/>
</clipPath>
<clipPath id="clip15">
  <path d="M 299 92 L 360 92 L 360 156 L 299 156 Z M 299 92 "/>
</clipPath>
<clipPath id="clip16">
  <path d="M 341 129 L 360 129 L 360 162 L 341 162 Z M 341 129 "/>
</clipPath>
<clipPath id="clip17">
  <path d="M 348 0 L 360 0 L 360 32 L 348 32 Z M 348 0 "/>
</clipPath>
<clipPath id="clip18">
  <path d="M 354 0 L 360 0 L 360 7 L 354 7 Z M 354 0 "/>
</clipPath>
<clipPath id="clip19">
  <path d="M 351 26 L 360 26 L 360 59 L 351 59 Z M 351 26 "/>
</clipPath>
<clipPath id="clip20">
  <path d="M 352 69 L 360 69 L 360 94 L 352 94 Z M 352 69 "/>
</clipPath>
<clipPath id="clip21">
  <path d="M 324 53 L 360 53 L 360 111 L 324 111 Z M 324 53 "/>
</clipPath>
<clipPath id="clip22">
  <path d="M 355 262 L 360 262 L 360 333 L 355 333 Z M 355 262 "/>
</clipPath>
<clipPath id="clip23">
  <path d="M 315 255 L 360 255 L 360 330 L 315 330 Z M 315 255 "/>
</clipPath>
<clipPath id="clip24">
  <path d="M 164 321 L 229 321 L 229 360 L 164 360 Z M 164 321 "/>
</clipPath>
<clipPath id="clip25">
  <path d="M 163 320 L 230 320 L 230 360 L 163 360 Z M 163 320 "/>
</clipPath>
</defs>
<g id="surface336">
<path style="fill-rule:nonzero;fill:rgb(0%,0%,0%);fill-opacity:1;stroke-width:0.03;stroke-linecap:square;stroke-linejoin:miter;stroke:rgb(0%,0%,0%);stroke-opacity:1;stroke-miterlimit:10;" d="M 0 178 L 360 178 L 360 -182 L 0 -182 Z M 0 178 " transform="matrix(1,0,0,1,0,182)"/>
<path style=" stroke:none;fill-rule:nonzero;fill:rgb(39.99939%,39.99939%,39.99939%);fill-opacity:0.3;" d="M 100.664062 297.746094 L 100.605469 298.054688 L 77.507812 294.835938 L 79.792969 295.136719 L 100.367188 297.710938 Z M 100.664062 297.746094 "/>
<path style=" stroke:none;fill-rule:nonzero;fill:rgb(39.99939%,39.99939%,39.99939%);fill-opacity:0.3;" d="M 54.980469 291.53125 L 51.339844 291.183594 L 51.429688 290.84375 Z M 54.980469 291.53125 "/>
<path style=" stroke:none;fill-rule:nonzero;fill:rgb(39.99939%,39.99939%,39.99939%);fill-opacity:0.3;" d="M 163.648438 305.394531 L 163.242188 305.34375 L 163.246094 305.324219 Z M 163.648438 305.394531 "/>
<path style=" stroke:none;fill-rule:nonzero;fill:rgb(39.99939%,39.99939%,39.99939%);fill-opacity:0.3;" d="M 43.261719 309.011719 L 43.894531 309.070312 L 40.414062 321.125 L 39.75 323.203125 Z M 43.261719 309.011719 "/>
<path style=" stroke:none;fill-rule:nonzero;fill:rgb(39.99939%,39.99939%,39.99939%);fill-opacity:0.3;" d="M 30.109375 353.449219 L 29.792969 354.449219 L 28.515625 354.386719 Z M 30.109375 353.449219 "/>
<path style=" stroke:none;fill-rule:nonzero;fill:rgb(39.99939%,39.99939%,39.99939%);fill-opacity:0.3;" d="M 48.191406 292.785156 L 48.199219 292.785156 L 44.167969 307.621094 L 43.667969 307.566406 Z M 48.191406 292.785156 "/>
<g clip-path="url(#clip1)" clip-rule="nonzero">
<path style=" stroke:none;fill-rule:nonzero;fill:rgb(39.99939%,39.99939%,39.99939%);fill-opacity:0.3;" d="M 123.125 302.113281 L 188.050781 311.136719 L 186.644531 318.644531 L 178.140625 375.984375 L 119.945312 369.140625 L 113.464844 366.058594 L 112.433594 362.15625 Z M 123.125 302.113281 "/>
</g>
<path style=" stroke:none;fill-rule:nonzero;fill:rgb(39.99939%,39.99939%,39.99939%);fill-opacity:0.3;" d="M 112.648438 299.167969 L 102.53125 298.390625 L 102.605469 297.976562 Z M 112.648438 299.167969 "/>
<g clip-path="url(#clip2)" clip-rule="nonzero">
<path style=" stroke:none;fill-rule:nonzero;fill:rgb(39.99939%,39.99939%,39.99939%);fill-opacity:0.3;" d="M 23.96875 359.824219 L 24.660156 359.875 L 21.226562 383.019531 Z M 23.96875 359.824219 "/>
</g>
<g clip-path="url(#clip3)" clip-rule="nonzero">
<path style=" stroke:none;fill-rule:nonzero;fill:rgb(39.99939%,39.99939%,39.99939%);fill-opacity:0.3;" d="M 110.019531 361.972656 L 91.253906 359.464844 L 102.222656 300.332031 L 121.222656 301.855469 Z M 110.019531 361.972656 "/>
</g>
<path style=" stroke:none;fill-rule:nonzero;fill:rgb(39.99939%,39.99939%,39.99939%);fill-opacity:0.3;" d="M 81.335938 297.703125 L 100.164062 299.976562 L 89.261719 359.199219 L 70.390625 357.9375 Z M 81.335938 297.703125 "/>
<path style=" stroke:none;fill-rule:nonzero;fill:rgb(39.99939%,39.99939%,39.99939%);fill-opacity:0.3;" d="M 60.675781 294.410156 L 79.523438 297.417969 L 68.152344 356.464844 L 49.625 355.050781 Z M 60.675781 294.410156 "/>
<path style=" stroke:none;fill-rule:nonzero;fill:rgb(39.99939%,39.99939%,39.99939%);fill-opacity:0.3;" d="M 50.734375 293.195312 L 59.617188 294.25 L 47.832031 354.921875 L 32.070312 354.082031 L 42.679688 321.933594 L 46.398438 308.433594 Z M 50.734375 293.195312 "/>
<path style=" stroke:none;fill-rule:nonzero;fill:rgb(39.99939%,39.99939%,39.99939%);fill-opacity:0.3;" d="M 161.707031 305.054688 L 161.691406 305.121094 L 156.4375 304.421875 Z M 161.707031 305.054688 "/>
<path style=" stroke:none;fill-rule:nonzero;fill:rgb(39.99939%,39.99939%,39.99939%);fill-opacity:0.3;" d="M 55.105469 276.597656 L 70.222656 278.625 L 103.347656 283.066406 L 101.195312 294.824219 L 100.664062 297.746094 L 100.367188 297.710938 L 79.792969 295.136719 L 77.507812 294.835938 L 72.433594 294.128906 L 69.546875 292.929688 L 54.980469 291.53125 L 51.429688 290.84375 Z M 55.105469 276.597656 "/>
<path style=" stroke:none;fill-rule:nonzero;fill:rgb(39.99939%,39.99939%,39.99939%);fill-opacity:0.3;" d="M 157.625 137.496094 L 163.917969 139.285156 L 162.039062 144.628906 L 155.925781 143.289062 Z M 157.625 137.496094 "/>
<path style=" stroke:none;fill-rule:nonzero;fill:rgb(39.99939%,39.99939%,39.99939%);fill-opacity:0.3;" d="M 157.644531 145.113281 L 166.679688 146.015625 L 165.917969 149.914062 L 156.964844 149.25 Z M 157.644531 145.113281 "/>
<path style=" stroke:none;fill-rule:nonzero;fill:rgb(39.99939%,39.99939%,39.99939%);fill-opacity:0.3;" d="M 139.472656 130.285156 L 152.335938 134.011719 L 151.003906 137.710938 L 138.023438 134.636719 Z M 139.472656 130.285156 "/>
<path style=" stroke:none;fill-rule:nonzero;fill:rgb(39.99939%,39.99939%,39.99939%);fill-opacity:0.3;" d="M 170.554688 141.109375 L 175.601562 142.566406 L 168.058594 164.921875 L 163.386719 163.136719 Z M 170.554688 141.109375 "/>
<path style=" stroke:none;fill-rule:nonzero;fill:rgb(39.99939%,39.99939%,39.99939%);fill-opacity:0.3;" d="M 138.613281 136.03125 L 151.214844 138.675781 L 150.101562 143.132812 L 137.335938 140.90625 Z M 138.613281 136.03125 "/>
<path style=" stroke:none;fill-rule:nonzero;fill:rgb(39.99939%,39.99939%,39.99939%);fill-opacity:0.3;" d="M 132.886719 150.664062 L 134.617188 146.429688 L 159.265625 154.070312 L 157.933594 158.207031 Z M 132.886719 150.664062 "/>
<path style=" stroke:none;fill-rule:nonzero;fill:rgb(39.99939%,39.99939%,39.99939%);fill-opacity:0.3;" d="M 126.8125 148.664062 L 131.375 136.394531 L 136.460938 138.121094 L 131.753906 150.261719 Z M 126.8125 148.664062 "/>
<path style=" stroke:none;fill-rule:nonzero;fill:rgb(39.99939%,39.99939%,39.99939%);fill-opacity:0.3;" d="M 162.980469 220.632812 L 164.976562 214.976562 L 170.222656 216.1875 L 168.363281 221.730469 Z M 162.980469 220.632812 "/>
<path style=" stroke:none;fill-rule:nonzero;fill:rgb(39.99939%,39.99939%,39.99939%);fill-opacity:0.3;" d="M 171.230469 234.898438 L 165.753906 234.78125 L 166.714844 225.203125 L 171.9375 225.199219 Z M 171.230469 234.898438 "/>
<path style=" stroke:none;fill-rule:nonzero;fill:rgb(39.99939%,39.99939%,39.99939%);fill-opacity:0.3;" d="M 156.667969 207.566406 L 159.3125 208.386719 L 155.410156 222.441406 L 152.550781 221.585938 Z M 156.667969 207.566406 "/>
<path style=" stroke:none;fill-rule:nonzero;fill:rgb(39.99939%,39.99939%,39.99939%);fill-opacity:0.3;" d="M 184.257812 213.144531 L 205.613281 217.722656 L 199.492188 248.960938 L 176.140625 244.394531 L 177.726562 237.046875 L 178.378906 230.238281 L 180.066406 223.0625 L 183.121094 215.976562 Z M 184.257812 213.144531 "/>
<path style=" stroke:none;fill-rule:nonzero;fill:rgb(39.99939%,39.99939%,39.99939%);fill-opacity:0.3;" d="M 230.085938 114.214844 L 222.992188 145.445312 L 205.46875 142.792969 L 211.144531 114.890625 L 212.269531 109 Z M 230.085938 114.214844 "/>
<path style=" stroke:none;fill-rule:nonzero;fill:rgb(39.99939%,39.99939%,39.99939%);fill-opacity:0.3;" d="M 149.664062 56.40625 L 175.617188 62.941406 L 153.574219 131.789062 L 129.335938 123.730469 Z M 149.664062 56.40625 "/>
<path style=" stroke:none;fill-rule:nonzero;fill:rgb(39.99939%,39.99939%,39.99939%);fill-opacity:0.3;" d="M 170.210938 277.230469 L 194.015625 280.480469 L 188.34375 308.570312 L 163.648438 305.394531 L 163.246094 305.324219 Z M 170.210938 277.230469 "/>
<path style=" stroke:none;fill-rule:nonzero;fill:rgb(39.99939%,39.99939%,39.99939%);fill-opacity:0.3;" d="M 103.429688 281.4375 L 80.066406 278.164062 L 55.6875 274.746094 L 63.460938 251 L 70.644531 229.058594 L 111.398438 237.003906 Z M 103.429688 281.4375 "/>
<path style=" stroke:none;fill-rule:nonzero;fill:rgb(39.99939%,39.99939%,39.99939%);fill-opacity:0.3;" d="M 113.125 237.304688 L 132.347656 240.199219 L 121.730469 299.863281 L 112.648438 299.167969 L 102.605469 297.976562 Z M 113.125 237.304688 "/>
<path style=" stroke:none;fill-rule:nonzero;fill:rgb(39.99939%,39.99939%,39.99939%);fill-opacity:0.3;" d="M 174.589844 245.3125 L 168.75 275.5 L 152.6875 273.375 L 157.859375 240.9375 Z M 174.589844 245.3125 "/>
<path style=" stroke:none;fill-rule:nonzero;fill:rgb(39.99939%,39.99939%,39.99939%);fill-opacity:0.3;" d="M 175.878906 245.679688 L 199.328125 250.160156 L 194.320312 279.097656 L 170.296875 275.683594 Z M 175.878906 245.679688 "/>
<path style=" stroke:none;fill-rule:nonzero;fill:rgb(39.99939%,39.99939%,39.99939%);fill-opacity:0.3;" d="M 122.445312 51.429688 L 143.609375 55.675781 L 143.785156 59.125 L 147.382812 59.878906 L 127.847656 123.292969 L 103.628906 115.191406 L 107.957031 100.269531 L 107.285156 97.65625 L 119.152344 66.542969 Z M 122.445312 51.429688 "/>
<path style=" stroke:none;fill-rule:nonzero;fill:rgb(39.99939%,39.99939%,39.99939%);fill-opacity:0.3;" d="M 211.804688 115.160156 L 216.414062 116.089844 L 212.8125 135.398438 L 208 134.296875 Z M 211.804688 115.160156 "/>
<path style=" stroke:none;fill-rule:nonzero;fill:rgb(39.99939%,39.99939%,39.99939%);fill-opacity:0.3;" d="M 217.972656 111.714844 L 228.851562 114.425781 L 228.046875 117.828125 L 217.167969 115.136719 Z M 217.972656 111.714844 "/>
<path style=" stroke:none;fill-rule:nonzero;fill:rgb(39.99939%,39.99939%,39.99939%);fill-opacity:0.3;" d="M 223.15625 117.503906 L 227.851562 118.488281 L 224.371094 134.25 L 219.515625 133.53125 Z M 223.15625 117.503906 "/>
<path style=" stroke:none;fill-rule:nonzero;fill:rgb(39.99939%,39.99939%,39.99939%);fill-opacity:0.3;" d="M 176.972656 63.300781 L 201.425781 68.570312 L 191.921875 101.976562 L 183.429688 129.578125 L 180.820312 129.03125 L 180.066406 130.839844 L 177.996094 130.441406 L 175.203125 138.582031 L 155.179688 132.191406 L 166.742188 96.46875 Z M 176.972656 63.300781 "/>
<path style=" stroke:none;fill-rule:nonzero;fill:rgb(39.99939%,39.99939%,39.99939%);fill-opacity:0.3;" d="M 118.222656 63.628906 L 117.636719 66.261719 L 115.074219 73.238281 Z M 118.222656 63.628906 "/>
<path style=" stroke:none;fill-rule:nonzero;fill:rgb(39.99939%,39.99939%,39.99939%);fill-opacity:0.3;" d="M 197.917969 65.957031 L 184.886719 63.527344 L 182.375 63.214844 L 181.988281 63.167969 L 180.574219 62.289062 Z M 197.917969 65.957031 "/>
<path style=" stroke:none;fill-rule:nonzero;fill:rgb(39.99939%,39.99939%,39.99939%);fill-opacity:0.3;" d="M 189.542969 119.386719 L 190.640625 114.992188 L 195.59375 115.914062 L 194.519531 120.359375 Z M 189.542969 119.386719 "/>
<path style=" stroke:none;fill-rule:nonzero;fill:rgb(39.99939%,39.99939%,39.99939%);fill-opacity:0.3;" d="M 187.746094 125.539062 L 188.847656 121.136719 L 193.796875 122.0625 L 192.722656 126.507812 Z M 187.746094 125.539062 "/>
<path style=" stroke:none;fill-rule:nonzero;fill:rgb(39.99939%,39.99939%,39.99939%);fill-opacity:0.3;" d="M 194.375 132.851562 L 195.480469 128.449219 L 200.429688 129.371094 L 199.347656 133.824219 Z M 194.375 132.851562 "/>
<path style=" stroke:none;fill-rule:nonzero;fill:rgb(39.99939%,39.99939%,39.99939%);fill-opacity:0.3;" d="M 187.519531 131.5625 L 188.621094 127.15625 L 193.570312 128.082031 L 192.492188 132.53125 Z M 187.519531 131.5625 "/>
<path style=" stroke:none;fill-rule:nonzero;fill:rgb(39.99939%,39.99939%,39.99939%);fill-opacity:0.3;" d="M 210.765625 108.527344 L 203.757812 142.472656 L 183.1875 139.382812 L 192.988281 103.011719 Z M 210.765625 108.527344 "/>
<path style=" stroke:none;fill-rule:nonzero;fill:rgb(39.99939%,39.99939%,39.99939%);fill-opacity:0.3;" d="M 168.089844 62.082031 L 174.582031 63.632812 L 171.652344 72.378906 L 165.351562 70.625 Z M 168.089844 62.082031 "/>
<path style=" stroke:none;fill-rule:nonzero;fill:rgb(39.99939%,39.99939%,39.99939%);fill-opacity:0.3;" d="M 162.464844 60.613281 L 166.960938 61.664062 L 165.652344 66 L 161.296875 64.890625 Z M 162.464844 60.613281 "/>
<path style=" stroke:none;fill-rule:nonzero;fill:rgb(39.99939%,39.99939%,39.99939%);fill-opacity:0.3;" d="M 152.816406 69.578125 L 158.222656 71.160156 L 156.054688 76.964844 L 150.582031 75.246094 Z M 152.816406 69.578125 "/>
<path style=" stroke:none;fill-rule:nonzero;fill:rgb(39.99939%,39.99939%,39.99939%);fill-opacity:0.3;" d="M 155.347656 61.765625 L 160.988281 63.246094 L 159.382812 68.75 L 153.878906 67.28125 Z M 155.347656 61.765625 "/>
<path style=" stroke:none;fill-rule:nonzero;fill:rgb(39.99939%,39.99939%,39.99939%);fill-opacity:0.3;" d="M 152.832031 90.886719 L 158.519531 92.164062 L 156.230469 100.183594 L 150.597656 98.863281 Z M 152.832031 90.886719 "/>
<path style=" stroke:none;fill-rule:nonzero;fill:rgb(39.99939%,39.99939%,39.99939%);fill-opacity:0.3;" d="M 158.390625 96.382812 L 163.699219 97.886719 L 160.800781 107.113281 L 155.460938 105.667969 Z M 158.390625 96.382812 "/>
<path style=" stroke:none;fill-rule:nonzero;fill:rgb(39.99939%,39.99939%,39.99939%);fill-opacity:0.3;" d="M 147.425781 108.773438 L 158.890625 112.464844 L 157.414062 117.125 L 146.042969 113.46875 Z M 147.425781 108.773438 "/>
<path style=" stroke:none;fill-rule:nonzero;fill:rgb(39.99939%,39.99939%,39.99939%);fill-opacity:0.3;" d="M 151.128906 117.359375 L 156.523438 119.125 L 153.167969 131.027344 L 147.105469 129.097656 Z M 151.128906 117.359375 "/>
<path style=" stroke:none;fill-rule:nonzero;fill:rgb(39.99939%,39.99939%,39.99939%);fill-opacity:0.3;" d="M 145.195312 115.410156 L 150.472656 117.113281 L 146.636719 128.949219 L 140.652344 126.949219 Z M 145.195312 115.410156 "/>
<path style=" stroke:none;fill-rule:nonzero;fill:rgb(39.99939%,39.99939%,39.99939%);fill-opacity:0.3;" d="M 182.660156 87.257812 L 186.460938 88.917969 L 182.109375 96.71875 L 178.5 95.101562 Z M 182.660156 87.257812 "/>
<path style=" stroke:none;fill-rule:nonzero;fill:rgb(39.99939%,39.99939%,39.99939%);fill-opacity:0.3;" d="M 184.84375 69.488281 L 189.140625 70.238281 L 187.816406 78.324219 L 183.25 77.546875 Z M 184.84375 69.488281 "/>
<path style=" stroke:none;fill-rule:nonzero;fill:rgb(39.99939%,39.99939%,39.99939%);fill-opacity:0.3;" d="M 178.152344 110.046875 L 184.277344 111.15625 L 182.105469 121.289062 L 175.734375 120.179688 Z M 178.152344 110.046875 "/>
<path style=" stroke:none;fill-rule:nonzero;fill:rgb(39.99939%,39.99939%,39.99939%);fill-opacity:0.3;" d="M 201.382812 93.773438 L 207.035156 94.167969 L 206.660156 98.476562 L 200.890625 98 Z M 201.382812 93.773438 "/>
<path style=" stroke:none;fill-rule:nonzero;fill:rgb(39.99939%,39.99939%,39.99939%);fill-opacity:0.3;" d="M 203.417969 87.351562 L 209.082031 87.742188 L 208.71875 92.039062 L 202.945312 91.566406 Z M 203.417969 87.351562 "/>
<path style=" stroke:none;fill-rule:nonzero;fill:rgb(39.99939%,39.99939%,39.99939%);fill-opacity:0.3;" d="M 211.511719 74.621094 L 217.167969 75.011719 L 216.859375 79.277344 L 211.066406 78.816406 Z M 211.511719 74.621094 "/>
<path style=" stroke:none;fill-rule:nonzero;fill:rgb(39.99939%,39.99939%,39.99939%);fill-opacity:0.3;" d="M 230.121094 85.484375 L 235.777344 85.875 L 235.40625 90.179688 L 229.632812 89.703125 Z M 230.121094 85.484375 "/>
<path style=" stroke:none;fill-rule:nonzero;fill:rgb(39.99939%,39.99939%,39.99939%);fill-opacity:0.3;" d="M 231.148438 78.101562 L 236.816406 78.488281 L 236.46875 82.777344 L 230.691406 82.304688 Z M 231.148438 78.101562 "/>
<path style=" stroke:none;fill-rule:nonzero;fill:rgb(39.99939%,39.99939%,39.99939%);fill-opacity:0.3;" d="M 214.277344 101.191406 L 219.925781 101.589844 L 219.53125 105.90625 L 213.769531 105.429688 Z M 214.277344 101.191406 "/>
<path style=" stroke:none;fill-rule:nonzero;fill:rgb(39.99939%,39.99939%,39.99939%);fill-opacity:0.3;" d="M 214.652344 95.621094 L 220.304688 96.015625 L 219.921875 100.328125 L 214.152344 99.851562 Z M 214.652344 95.621094 "/>
<path style=" stroke:none;fill-rule:nonzero;fill:rgb(39.99939%,39.99939%,39.99939%);fill-opacity:0.3;" d="M 239.851562 77.171875 L 230.625 112.171875 L 212.09375 106.804688 L 193.453125 101.285156 L 202.308594 68.765625 Z M 239.851562 77.171875 "/>
<path style=" stroke:none;fill-rule:nonzero;fill:rgb(39.99939%,39.99939%,39.99939%);fill-opacity:0.3;" d="M 215.011719 90.351562 L 220.667969 90.746094 L 220.292969 95.050781 L 214.523438 94.574219 Z M 215.011719 90.351562 "/>
<path style=" stroke:none;fill-rule:nonzero;fill:rgb(39.99939%,39.99939%,39.99939%);fill-opacity:0.3;" d="M 203.992188 144.851562 L 223.28125 147.761719 L 209.359375 200.035156 L 205.984375 216.574219 L 183.644531 211.640625 L 186.996094 199.992188 L 195.300781 171.691406 Z M 203.992188 144.851562 "/>
<path style=" stroke:none;fill-rule:nonzero;fill:rgb(39.99939%,39.99939%,39.99939%);fill-opacity:0.3;" d="M 180.578125 141.4375 L 203.113281 144.511719 L 194.148438 171.761719 L 185.992188 199.808594 L 175.0625 198.25 L 164.726562 196.371094 L 171 167.105469 Z M 180.578125 141.4375 "/>
<path style=" stroke:none;fill-rule:nonzero;fill:rgb(39.99939%,39.99939%,39.99939%);fill-opacity:0.3;" d="M 143.546875 188.761719 L 162.589844 190.964844 L 163.972656 194.6875 L 160.496094 207.078125 L 159.535156 207.253906 L 156.023438 206.265625 L 151.449219 222.222656 L 155.929688 223.664062 L 156.945312 225.785156 L 159.375 227.527344 L 157.210938 237.90625 L 134.660156 234.152344 Z M 143.546875 188.761719 "/>
<path style=" stroke:none;fill-rule:nonzero;fill:rgb(39.99939%,39.99939%,39.99939%);fill-opacity:0.3;" d="M 95.234375 141.503906 L 148.597656 158.640625 L 141.679688 188.046875 L 133.085938 232.101562 L 113.617188 228.222656 L 113.46875 229.222656 L 113.324219 230.226562 L 132.800781 234.058594 L 132.136719 237.441406 L 71.203125 226.480469 L 83.699219 179.984375 Z M 95.234375 141.503906 "/>
<path style=" stroke:none;fill-rule:nonzero;fill:rgb(39.99939%,39.99939%,39.99939%);fill-opacity:0.3;" d="M 103.21875 117.003906 L 132.242188 126.613281 L 124.542969 149.0625 L 95.933594 139.769531 Z M 103.21875 117.003906 "/>
<path style=" stroke:none;fill-rule:nonzero;fill:rgb(39.99939%,39.99939%,39.99939%);fill-opacity:0.3;" d="M 143.722656 248.054688 L 149.515625 248.808594 L 148 257.734375 L 142.210938 256.914062 Z M 143.722656 248.054688 "/>
<path style=" stroke:none;fill-rule:nonzero;fill:rgb(39.99939%,39.99939%,39.99939%);fill-opacity:0.3;" d="M 137.867188 258.644531 L 144.050781 258.839844 L 143.6875 270.105469 L 137.351562 269.800781 Z M 137.867188 258.644531 "/>
<path style=" stroke:none;fill-rule:nonzero;fill:rgb(39.99939%,39.99939%,39.99939%);fill-opacity:0.3;" d="M 152.015625 274.582031 L 166.707031 276.355469 L 168.378906 279.042969 L 161.707031 305.054688 L 156.4375 304.421875 L 123.566406 300.046875 L 128.757812 271.308594 L 150.867188 274.359375 L 146.046875 294.488281 L 146.75 294.691406 L 147.453125 294.898438 Z M 152.015625 274.582031 "/>
<path style=" stroke:none;fill-rule:nonzero;fill:rgb(39.99939%,39.99939%,39.99939%);fill-opacity:0.3;" d="M 128.890625 268.285156 L 134.316406 235.480469 L 157.03125 239.027344 L 155.902344 243.769531 L 146.421875 243.132812 L 146.355469 243.695312 L 146.292969 244.257812 L 155.828125 244.726562 L 151.519531 273.242188 L 130.773438 270.355469 Z M 128.890625 268.285156 "/>
<path style=" stroke:none;fill-rule:nonzero;fill:rgb(39.99939%,39.99939%,39.99939%);fill-opacity:0.3;" d="M 175.214844 244.152344 L 158.246094 239.871094 L 160.976562 227.410156 L 158.078125 225.332031 L 156.382812 222.625 L 160.125 208.308594 L 161.628906 208.484375 L 164.546875 197.027344 L 174.34375 198.738281 L 171.335938 209.328125 L 171.824219 209.445312 L 172.316406 209.5625 L 175.511719 199.03125 L 185.746094 200.476562 L 182.648438 211.238281 L 182.972656 213.003906 L 182.292969 215.539062 L 179.128906 222.492188 L 177.328125 230.171875 L 176.738281 237.132812 Z M 175.214844 244.152344 "/>
<path style=" stroke:none;fill-rule:nonzero;fill:rgb(39.99939%,39.99939%,39.99939%);fill-opacity:0.3;" d="M 133.511719 126.976562 L 179.214844 141.710938 L 169.554688 167.066406 L 164.8125 190.023438 L 143.722656 187.660156 L 150.542969 158.882812 L 160.152344 161.371094 L 160.558594 160.019531 L 151.085938 157.144531 L 125.523438 149.386719 Z M 133.511719 126.976562 "/>
<g clip-path="url(#clip4)" clip-rule="nonzero">
<path style=" stroke:none;fill-rule:nonzero;fill:rgb(39.99939%,39.99939%,39.99939%);fill-opacity:0.3;" d="M 360.261719 160.589844 L 377.589844 162.832031 L 373.957031 186.777344 L 356.449219 184.253906 Z M 360.261719 160.589844 "/>
</g>
<g clip-path="url(#clip5)" clip-rule="nonzero">
<path style=" stroke:none;fill-rule:nonzero;fill:rgb(39.99939%,39.99939%,39.99939%);fill-opacity:0.3;" d="M 336.109375 183.578125 L 354.160156 186.398438 L 345.675781 241.664062 L 346.523438 241.675781 L 347.371094 241.691406 L 356.125 186.597656 L 373.691406 189.394531 L 364.585938 259.152344 L 326.476562 254.144531 Z M 336.109375 183.578125 "/>
</g>
<path style=" stroke:none;fill-rule:nonzero;fill:rgb(39.99939%,39.99939%,39.99939%);fill-opacity:0.3;" d="M -23.257812 182.710938 L 17.523438 194.546875 L 14.359375 204.960938 L 1.214844 202.316406 L -25.457031 196.265625 Z M -23.257812 182.710938 "/>
<path style=" stroke:none;fill-rule:nonzero;fill:rgb(39.99939%,39.99939%,39.99939%);fill-opacity:0.3;" d="M 32.1875 147.753906 L 54.570312 150.65625 L 61.484375 150.097656 L 87.574219 152.714844 L 80.132812 178.546875 L 25.984375 168.96875 Z M 32.1875 147.753906 "/>
<path style=" stroke:none;fill-rule:nonzero;fill:rgb(39.99939%,39.99939%,39.99939%);fill-opacity:0.3;" d="M 4.980469 161.042969 L 25.207031 166.761719 L 18.039062 192.464844 L -2.820312 185.976562 Z M 4.980469 161.042969 "/>
<path style=" stroke:none;fill-rule:nonzero;fill:rgb(39.99939%,39.99939%,39.99939%);fill-opacity:0.3;" d="M 15.0625 94.148438 L 33.21875 99.148438 L 43.375 101.386719 L 37.742188 123.835938 L 31.367188 146.058594 L 6.984375 141.785156 Z M 15.0625 94.148438 "/>
<path style=" stroke:none;fill-rule:nonzero;fill:rgb(39.99939%,39.99939%,39.99939%);fill-opacity:0.3;" d="M 99.597656 115.863281 L 87.914062 151.234375 L 61.644531 148.617188 L 54.675781 149.101562 L 32.585938 146.375 L 38.878906 123.902344 L 44.480469 101.617188 L 62.460938 104.765625 L 65.367188 106.347656 L 86.011719 112.042969 Z M 99.597656 115.863281 "/>
<path style=" stroke:none;fill-rule:nonzero;fill:rgb(39.99939%,39.99939%,39.99939%);fill-opacity:0.3;" d="M 48.015625 226.128906 L 66.824219 229.777344 L 52.761719 273.984375 L 38.457031 269.566406 Z M 48.015625 226.128906 "/>
<path style=" stroke:none;fill-rule:nonzero;fill:rgb(39.99939%,39.99939%,39.99939%);fill-opacity:0.3;" d="M 56.109375 204.121094 L 71.882812 207.226562 L 66.648438 228.574219 L 50.722656 225.464844 Z M 56.109375 204.121094 "/>
<path style=" stroke:none;fill-rule:nonzero;fill:rgb(39.99939%,39.99939%,39.99939%);fill-opacity:0.3;" d="M 15.285156 260.796875 L 7.402344 284.359375 L 5.953125 284.117188 L -2.859375 282.902344 L 5.046875 257.675781 Z M 15.285156 260.796875 "/>
<path style=" stroke:none;fill-rule:nonzero;fill:rgb(39.99939%,39.99939%,39.99939%);fill-opacity:0.3;" d="M 36.976562 270.484375 L 33.261719 288.621094 L 32.402344 288.523438 L 8.25 284.5 L 16.164062 261.0625 L 24.582031 263.21875 L 26.773438 267.226562 Z M 36.976562 270.484375 "/>
<path style=" stroke:none;fill-rule:nonzero;fill:rgb(39.99939%,39.99939%,39.99939%);fill-opacity:0.3;" d="M 38.175781 270.8125 L 52.175781 275.496094 L 48.695312 290.335938 L 34.460938 288.753906 Z M 38.175781 270.8125 "/>
<path style=" stroke:none;fill-rule:nonzero;fill:rgb(39.99939%,39.99939%,39.99939%);fill-opacity:0.3;" d="M 30.121094 223.367188 L 46.816406 225.894531 L 37.253906 269.265625 L 27.777344 266.109375 L 26.113281 262.480469 L 18.003906 259.855469 Z M 30.121094 223.367188 "/>
<path style=" stroke:none;fill-rule:nonzero;fill:rgb(39.99939%,39.99939%,39.99939%);fill-opacity:0.3;" d="M 99.980469 114.332031 L 99.796875 114.828125 L 86.007812 110.9375 L 66.089844 105.550781 L 64.953125 104.847656 L 64.761719 104.21875 Z M 99.980469 114.332031 "/>
<path style=" stroke:none;fill-rule:nonzero;fill:rgb(39.99939%,39.99939%,39.99939%);fill-opacity:0.3;" d="M 3.648438 257.484375 L -4.105469 282.730469 L -4.703125 282.648438 L -12.785156 281.546875 L -21.234375 280.074219 L -39.269531 278.714844 L -33.066406 259.613281 L -21.007812 254.578125 L -24.71875 267.285156 L -24.386719 267.4375 L -24.003906 267.585938 L -20.011719 254.335938 L -14.113281 252.03125 Z M 3.648438 257.484375 "/>
<path style=" stroke:none;fill-rule:nonzero;fill:rgb(39.99939%,39.99939%,39.99939%);fill-opacity:0.3;" d="M 54.921875 203.914062 L 49.269531 225.074219 L 29.207031 221.960938 L 26.21875 221.339844 L 25.625 222.714844 L 28.726562 223.410156 L 16.710938 259.472656 L -17.097656 249.585938 L -13.800781 234.621094 L -14.488281 234.550781 L -15.179688 234.484375 L -18.863281 251.140625 L -34.015625 257.992188 L -40.539062 278.617188 L -40.703125 278.605469 L -58.917969 274.894531 L -53.910156 255.148438 L -54.816406 254.976562 L -59.988281 274.679688 L -60.542969 274.566406 L -67.960938 272.976562 L -54.675781 220.96875 L -33.089844 226.261719 L -35.15625 234.597656 L -34.605469 234.691406 L -34.054688 234.789062 L -31.992188 226.503906 L -24.855469 197.851562 L 0.1875 203.445312 L -6.40625 228.4375 L -5.886719 228.597656 L -5.371094 228.753906 L 1.300781 203.820312 L 14.03125 206.191406 L 2.496094 241.292969 L 3.054688 241.472656 L 3.613281 241.648438 L 15.109375 206.433594 L 18.863281 194.945312 Z M 54.921875 203.914062 "/>
<path style=" stroke:none;fill-rule:nonzero;fill:rgb(39.99939%,39.99939%,39.99939%);fill-opacity:0.3;" d="M 79.8125 180.042969 L 72.429688 205.109375 L 54.222656 201.390625 L 56.695312 189.085938 L 56.027344 189.007812 L 55.355469 188.925781 L 52.832031 201.09375 L 19.273438 192.871094 L 25.664062 170.074219 Z M 79.8125 180.042969 "/>
<path style=" stroke:none;fill-rule:nonzero;fill:rgb(39.99939%,39.99939%,39.99939%);fill-opacity:0.3;" d="M -22.601562 180.203125 L -14.863281 139.863281 L 30.902344 147.523438 L 25.457031 165.855469 L 5.316406 160.132812 L 8.046875 151.992188 L 7.472656 151.871094 L 6.902344 151.75 L 4.28125 159.929688 L -3.945312 185.632812 Z M -22.601562 180.203125 "/>
<path style=" stroke:none;fill-rule:nonzero;fill:rgb(39.99939%,39.99939%,39.99939%);fill-opacity:0.3;" d="M -5.199219 88.359375 L 13.089844 93.730469 L 4.550781 141.359375 L -15.011719 137.945312 L -23.320312 136.46875 L -64.992188 123.546875 L -93.972656 114.796875 L -89.554688 98.273438 L -64.441406 102.8125 L -56.699219 105.046875 L -46.609375 108.710938 L -39.53125 111.28125 L -33.125 113.09375 L -18.328125 117.613281 L -6.945312 121.445312 L -6.628906 120.671875 L -6.316406 119.898438 L -16.566406 116.398438 Z M -5.199219 88.359375 "/>
<path style=" stroke:none;fill-rule:nonzero;fill:rgb(39.99939%,39.99939%,39.99939%);fill-opacity:0.3;" d="M 55.957031 102.421875 L 44.191406 100.460938 L 33.828125 98.234375 L 19.953125 94.386719 L 44.160156 100.0625 Z M 55.957031 102.421875 "/>
<path style=" stroke:none;fill-rule:nonzero;fill:rgb(39.99939%,39.99939%,39.99939%);fill-opacity:0.3;" d="M -16.679688 -17.160156 L 1.824219 -11.316406 L -5.292969 13.113281 L -9.503906 17.546875 L -11.160156 18.648438 L -26.960938 14.652344 Z M -16.679688 -17.160156 "/>
<path style=" stroke:none;fill-rule:nonzero;fill:rgb(39.99939%,39.99939%,39.99939%);fill-opacity:0.3;" d="M 16.027344 -47.496094 L 59.929688 -33.996094 L 61.027344 -32.445312 L -0.820312 10.890625 L -1.792969 9.84375 L 8.5625 -24.769531 L 28.628906 -18.472656 L 28.941406 -19.21875 L 29.257812 -19.964844 L 9.320312 -26.398438 Z M 16.027344 -47.496094 "/>
<path style=" stroke:none;fill-rule:nonzero;fill:rgb(39.99939%,39.99939%,39.99939%);fill-opacity:0.3;" d="M 101.824219 -16.90625 L 133.339844 -5.019531 L 133.125 3.363281 L 98.832031 -5.601562 Z M 101.824219 -16.90625 "/>
<path style=" stroke:none;fill-rule:nonzero;fill:rgb(39.99939%,39.99939%,39.99939%);fill-opacity:0.3;" d="M 98.941406 12.28125 L 118.796875 16.675781 L 117.789062 19.851562 L 98.027344 15.449219 Z M 98.941406 12.28125 "/>
<path style=" stroke:none;fill-rule:nonzero;fill:rgb(39.99939%,39.99939%,39.99939%);fill-opacity:0.3;" d="M 97.433594 17.496094 L 117.285156 21.890625 L 116.28125 25.066406 L 96.519531 20.664062 Z M 97.433594 17.496094 "/>
<path style=" stroke:none;fill-rule:nonzero;fill:rgb(39.99939%,39.99939%,39.99939%);fill-opacity:0.3;" d="M 95.714844 22.648438 L 115.570312 27.039062 L 114.5625 30.214844 L 94.800781 25.8125 Z M 95.714844 22.648438 "/>
<path style=" stroke:none;fill-rule:nonzero;fill:rgb(39.99939%,39.99939%,39.99939%);fill-opacity:0.3;" d="M 94.105469 27.664062 L 113.960938 32.054688 L 112.953125 35.230469 L 93.191406 30.828125 Z M 94.105469 27.664062 "/>
<path style=" stroke:none;fill-rule:nonzero;fill:rgb(39.99939%,39.99939%,39.99939%);fill-opacity:0.3;" d="M 92.78125 32.574219 L 112.636719 36.964844 L 111.628906 40.144531 L 91.867188 35.738281 Z M 92.78125 32.574219 "/>
<path style=" stroke:none;fill-rule:nonzero;fill:rgb(39.99939%,39.99939%,39.99939%);fill-opacity:0.3;" d="M 91.339844 37.601562 L 111.191406 41.992188 L 110.1875 45.167969 L 90.425781 40.765625 Z M 91.339844 37.601562 "/>
<path style=" stroke:none;fill-rule:nonzero;fill:rgb(39.99939%,39.99939%,39.99939%);fill-opacity:0.3;" d="M 125.234375 49.242188 L 125.164062 49.226562 L 126.074219 46.425781 Z M 125.234375 49.242188 "/>
<path style=" stroke:none;fill-rule:nonzero;fill:rgb(39.99939%,39.99939%,39.99939%);fill-opacity:0.3;" d="M 98.332031 -4.046875 L 137.539062 6.515625 L 134.585938 15.808594 L 95.539062 5.246094 Z M 98.332031 -4.046875 "/>
<path style=" stroke:none;fill-rule:nonzero;fill:rgb(39.99939%,39.99939%,39.99939%);fill-opacity:0.3;" d="M 95.246094 6.25 L 134.253906 16.949219 L 124.207031 49.050781 L 84.203125 40.292969 Z M 95.246094 6.25 "/>
<path style=" stroke:none;fill-rule:nonzero;fill:rgb(39.99939%,39.99939%,39.99939%);fill-opacity:0.3;" d="M 58.363281 34.242188 L 73.910156 -10.335938 L 97.003906 -4.335938 L 83.078125 40.0625 Z M 58.363281 34.242188 "/>
<path style=" stroke:none;fill-rule:nonzero;fill:rgb(39.99939%,39.99939%,39.99939%);fill-opacity:0.3;" d="M 57.105469 34.167969 L 1.195312 21.882812 L 72.675781 -28.191406 L 75.996094 -24.09375 Z M 57.105469 34.167969 "/>
<path style=" stroke:none;fill-rule:nonzero;fill:rgb(39.99939%,39.99939%,39.99939%);fill-opacity:0.3;" d="M 74.265625 -29.269531 L 111.019531 -54.160156 L 115.699219 -51.265625 L 155.28125 -40.484375 L 152.339844 -27.421875 L 112.707031 -39.917969 L 112.425781 -39.269531 L 112.140625 -38.621094 L 151.945312 -26.214844 L 149.347656 -15.851562 L 149.324219 -15.855469 L 145.183594 -17.128906 L 145.058594 -16.699219 L 144.496094 -16.8125 L 138.078125 4.699219 L 134.742188 3.761719 L 134.84375 -5.863281 L 102.320312 -17.980469 L 105.625 -26.046875 L 104.601562 -26.476562 L 101.28125 -18.324219 L 78.039062 -24.957031 Z M 74.265625 -29.269531 "/>
<path style=" stroke:none;fill-rule:nonzero;fill:rgb(39.99939%,39.99939%,39.99939%);fill-opacity:0.3;" d="M -10.726562 303.417969 L 1.226562 304.835938 L -12.621094 351.28125 L -20.222656 350.394531 L -26.246094 348.269531 Z M -10.726562 303.417969 "/>
<path style=" stroke:none;fill-rule:nonzero;fill:rgb(39.99939%,39.99939%,39.99939%);fill-opacity:0.3;" d="M 2.414062 305.121094 L 29.941406 307.738281 L 43.261719 309.011719 L 39.75 323.203125 L 30.109375 353.449219 L 28.515625 354.386719 L -11.488281 352.425781 Z M 2.414062 305.121094 "/>
<path style=" stroke:none;fill-rule:nonzero;fill:rgb(39.99939%,39.99939%,39.99939%);fill-opacity:0.3;" d="M 32.890625 290.707031 L 29.488281 306.089844 L 2.921875 303.554688 L 7.34375 287.484375 Z M 32.890625 290.707031 "/>
<path style=" stroke:none;fill-rule:nonzero;fill:rgb(39.99939%,39.99939%,39.99939%);fill-opacity:0.3;" d="M 34.152344 290.914062 L 48.191406 292.785156 L 43.667969 307.566406 L 30.8125 306.152344 Z M 34.152344 290.914062 "/>
<path style=" stroke:none;fill-rule:nonzero;fill:rgb(39.99939%,39.99939%,39.99939%);fill-opacity:0.3;" d="M 7.402344 284.359375 L 6.960938 285.671875 L -3.238281 284.121094 L -2.859375 282.902344 L 5.953125 284.117188 Z M 7.402344 284.359375 "/>
<path style=" stroke:none;fill-rule:nonzero;fill:rgb(39.99939%,39.99939%,39.99939%);fill-opacity:0.3;" d="M 33.261719 288.621094 L 33.210938 288.882812 L 7.796875 285.84375 L 8.25 284.5 L 32.402344 288.523438 Z M 33.261719 288.621094 "/>
<path style=" stroke:none;fill-rule:nonzero;fill:rgb(39.99939%,39.99939%,39.99939%);fill-opacity:0.3;" d="M 48.695312 290.335938 L 48.539062 291.007812 L 34.398438 289.054688 L 34.460938 288.753906 Z M 48.695312 290.335938 "/>
<path style=" stroke:none;fill-rule:nonzero;fill:rgb(39.99939%,39.99939%,39.99939%);fill-opacity:0.3;" d="M 6.332031 287.292969 L 1.980469 303.269531 L -10.847656 301.777344 L -44.4375 297.101562 L -40.09375 280.542969 L -23.816406 282.996094 L -26.230469 293.996094 L -25.734375 294.03125 L -25.242188 294.066406 L -22.546875 283.289062 Z M 6.332031 287.292969 "/>
<g clip-path="url(#clip6)" clip-rule="nonzero">
<path style=" stroke:none;fill-rule:nonzero;fill:rgb(39.99939%,39.99939%,39.99939%);fill-opacity:0.3;" d="M 195.925781 312.261719 L 213.734375 314.542969 L 233.332031 317.054688 L 232.429688 323.585938 L 224.125 382.550781 L 186.59375 377.53125 L 193.929688 326.242188 L 194.507812 322.203125 Z M 195.925781 312.261719 "/>
</g>
<path style=" stroke:none;fill-rule:nonzero;fill:rgb(39.99939%,39.99939%,39.99939%);fill-opacity:0.3;" d="M 270.617188 251.074219 L 269.828125 257.902344 L 253.082031 255.785156 L 253.820312 249.601562 Z M 270.617188 251.074219 "/>
<path style=" stroke:none;fill-rule:nonzero;fill:rgb(39.99939%,39.99939%,39.99939%);fill-opacity:0.3;" d="M 224.394531 249.914062 L 243.285156 253.324219 L 233.859375 314.261719 L 233.722656 314.242188 L 233.667969 314.625 L 215.179688 312.25 Z M 224.394531 249.914062 "/>
<path style=" stroke:none;fill-rule:nonzero;fill:rgb(39.99939%,39.99939%,39.99939%);fill-opacity:0.3;" d="M 208.441406 246.675781 L 222.683594 249.488281 L 213.503906 311.976562 L 196.371094 309.691406 Z M 208.441406 246.675781 "/>
<path style=" stroke:none;fill-rule:nonzero;fill:rgb(39.99939%,39.99939%,39.99939%);fill-opacity:0.3;" d="M 244.960938 256.367188 L 248.15625 253.832031 L 250.207031 253.996094 L 250.375 256.285156 L 271.472656 259.140625 L 271.796875 254.4375 L 275.011719 251.125 L 283.84375 251.773438 L 279.257812 283.871094 L 278.152344 283.78125 L 277.585938 286.59375 L 278.84375 286.777344 L 278.214844 291.191406 L 276.542969 291.121094 L 273.679688 319.371094 L 262.941406 318.214844 L 258.757812 317.640625 L 261.136719 294.386719 L 259.316406 294.269531 L 256.890625 317.386719 L 255.398438 317.179688 L 236.410156 314.605469 Z M 244.960938 256.367188 "/>
<path style=" stroke:none;fill-rule:nonzero;fill:rgb(39.99939%,39.99939%,39.99939%);fill-opacity:0.3;" d="M 282.957031 250.148438 L 257.734375 247.898438 L 272.296875 248.480469 Z M 282.957031 250.148438 "/>
<path style=" stroke:none;fill-rule:nonzero;fill:rgb(39.99939%,39.99939%,39.99939%);fill-opacity:0.3;" d="M 249.871094 249.472656 L 248.140625 252.453125 L 245.613281 251.996094 L 248.050781 250.6875 Z M 249.871094 249.472656 "/>
<path style=" stroke:none;fill-rule:nonzero;fill:rgb(39.99939%,39.99939%,39.99939%);fill-opacity:0.3;" d="M 237.941406 250.609375 L 226.328125 248.511719 L 234.089844 249.582031 Z M 237.941406 250.609375 "/>
<path style=" stroke:none;fill-rule:nonzero;fill:rgb(39.99939%,39.99939%,39.99939%);fill-opacity:0.3;" d="M 233.332031 317.054688 L 233.347656 317.054688 L 232.429688 323.585938 Z M 233.332031 317.054688 "/>
<g clip-path="url(#clip7)" clip-rule="nonzero">
<path style=" stroke:none;fill-rule:nonzero;fill:rgb(39.99939%,39.99939%,39.99939%);fill-opacity:0.3;" d="M 273.410156 321.90625 L 263.378906 387.222656 L 226.660156 382.847656 L 235.722656 317.570312 Z M 273.410156 321.90625 "/>
</g>
<g clip-path="url(#clip8)" clip-rule="nonzero">
<path style=" stroke:none;fill-rule:nonzero;fill:rgb(39.99939%,39.99939%,39.99939%);fill-opacity:0.3;" d="M 312.824219 326.851562 L 303.53125 392.265625 L 266.34375 387.746094 L 275.839844 322.203125 Z M 312.824219 326.851562 "/>
</g>
<g clip-path="url(#clip9)" clip-rule="nonzero">
<path style=" stroke:none;fill-rule:nonzero;fill:rgb(39.99939%,39.99939%,39.99939%);fill-opacity:0.3;" d="M 315.054688 327.296875 L 332.148438 329.347656 L 322.109375 394.835938 L 306.082031 392.773438 Z M 315.054688 327.296875 "/>
</g>
<g clip-path="url(#clip10)" clip-rule="nonzero">
<path style=" stroke:none;fill-rule:nonzero;fill:rgb(39.99939%,39.99939%,39.99939%);fill-opacity:0.3;" d="M 334.089844 329.566406 L 353.609375 332.039062 L 343.363281 397.695312 L 324.851562 395.140625 Z M 334.089844 329.566406 "/>
</g>
<g clip-path="url(#clip11)" clip-rule="nonzero">
<path style=" stroke:none;fill-rule:nonzero;fill:rgb(39.99939%,39.99939%,39.99939%);fill-opacity:0.3;" d="M 355.394531 332.242188 L 372.933594 334.644531 L 363.5 399.542969 L 362.667969 399.472656 L 355.050781 399.167969 L 345.714844 397.992188 Z M 355.394531 332.242188 "/>
</g>
<g clip-path="url(#clip12)" clip-rule="nonzero">
<path style=" stroke:none;fill-rule:nonzero;fill:rgb(39.99939%,39.99939%,39.99939%);fill-opacity:0.3;" d="M 373.289062 332.238281 L 373.28125 332.292969 L 355.75 330.167969 L 355.789062 329.925781 Z M 373.289062 332.238281 "/>
</g>
<path style=" stroke:none;fill-rule:nonzero;fill:rgb(39.99939%,39.99939%,39.99939%);fill-opacity:0.3;" d="M 233.859375 314.261719 L 233.800781 314.640625 L 233.667969 314.625 L 233.722656 314.242188 Z M 233.859375 314.261719 "/>
<path style=" stroke:none;fill-rule:nonzero;fill:rgb(39.99939%,39.99939%,39.99939%);fill-opacity:0.3;" d="M 262.941406 318.214844 L 258.746094 317.765625 L 258.757812 317.640625 Z M 262.941406 318.214844 "/>
<path style=" stroke:none;fill-rule:nonzero;fill:rgb(39.99939%,39.99939%,39.99939%);fill-opacity:0.3;" d="M 256.890625 317.386719 L 256.878906 317.507812 L 236.339844 315.09375 L 236.410156 314.605469 L 255.398438 317.179688 Z M 256.890625 317.386719 "/>
<path style=" stroke:none;fill-rule:nonzero;fill:rgb(39.99939%,39.99939%,39.99939%);fill-opacity:0.3;" d="M 353.898438 329.675781 L 353.863281 329.902344 L 334.546875 327.441406 L 334.566406 327.300781 L 353.851562 329.671875 Z M 353.898438 329.675781 "/>
<g clip-path="url(#clip13)" clip-rule="nonzero">
<path style=" stroke:none;fill-rule:nonzero;fill:rgb(39.99939%,39.99939%,39.99939%);fill-opacity:0.3;" d="M 3.949219 358.292969 L 23.96875 359.824219 L 21.226562 383.019531 L 19.6875 393.371094 L -1.015625 390.613281 Z M 3.949219 358.292969 "/>
</g>
<g clip-path="url(#clip14)" clip-rule="nonzero">
<path style=" stroke:none;fill-rule:nonzero;fill:rgb(39.99939%,39.99939%,39.99939%);fill-opacity:0.3;" d="M -13.367188 357.835938 L 2.464844 358.15625 L -2.578125 390.328125 L -18.644531 388.378906 Z M -13.367188 357.835938 "/>
</g>
<path style=" stroke:none;fill-rule:nonzero;fill:rgb(39.99939%,39.99939%,39.99939%);fill-opacity:0.3;" d="M 254.496094 128.292969 L 262.773438 130.867188 L 260.941406 137.117188 L 252.304688 134.652344 Z M 254.496094 128.292969 "/>
<path style=" stroke:none;fill-rule:nonzero;fill:rgb(39.99939%,39.99939%,39.99939%);fill-opacity:0.3;" d="M 236.761719 127.699219 L 243.917969 129.984375 L 241.347656 136.210938 L 234.9375 134.066406 Z M 236.761719 127.699219 "/>
<path style=" stroke:none;fill-rule:nonzero;fill:rgb(39.99939%,39.99939%,39.99939%);fill-opacity:0.3;" d="M 252.011719 135.738281 L 260.835938 138.199219 L 258.964844 144.339844 L 249.964844 141.425781 Z M 252.011719 135.738281 "/>
<path style=" stroke:none;fill-rule:nonzero;fill:rgb(39.99939%,39.99939%,39.99939%);fill-opacity:0.3;" d="M 247.816406 79.363281 L 277.363281 86.398438 L 260.632812 145.890625 L 256.890625 155.828125 L 230.523438 147.304688 Z M 247.816406 79.363281 "/>
<path style=" stroke:none;fill-rule:nonzero;fill:rgb(39.99939%,39.99939%,39.99939%);fill-opacity:0.3;" d="M 298.738281 88.34375 L 281.902344 84.605469 L 281.964844 84.363281 Z M 298.738281 88.34375 "/>
<path style=" stroke:none;fill-rule:nonzero;fill:rgb(39.99939%,39.99939%,39.99939%);fill-opacity:0.3;" d="M 279.921875 83.882812 L 279.851562 84.195312 L 269.691406 81.859375 Z M 279.921875 83.882812 "/>
<path style=" stroke:none;fill-rule:nonzero;fill:rgb(39.99939%,39.99939%,39.99939%);fill-opacity:0.3;" d="M 288.953125 138.28125 L 293.609375 139.585938 L 292.601562 143.261719 L 287.722656 141.789062 Z M 288.953125 138.28125 "/>
<path style=" stroke:none;fill-rule:nonzero;fill:rgb(39.99939%,39.99939%,39.99939%);fill-opacity:0.3;" d="M 282.664062 136.402344 L 287.539062 137.804688 L 286.316406 141.679688 L 281.476562 140.09375 Z M 282.664062 136.402344 "/>
<path style=" stroke:none;fill-rule:nonzero;fill:rgb(39.99939%,39.99939%,39.99939%);fill-opacity:0.3;" d="M 276.132812 134.445312 L 280.746094 135.84375 L 279.511719 139.683594 L 274.867188 138.210938 Z M 276.132812 134.445312 "/>
<path style=" stroke:none;fill-rule:nonzero;fill:rgb(39.99939%,39.99939%,39.99939%);fill-opacity:0.3;" d="M 269.359375 132.664062 L 273.785156 133.972656 L 272.507812 137.6875 L 268.097656 136.140625 Z M 269.359375 132.664062 "/>
<path style=" stroke:none;fill-rule:nonzero;fill:rgb(39.99939%,39.99939%,39.99939%);fill-opacity:0.3;" d="M 336.335938 180.847656 L 336.015625 180.792969 L 337.511719 170.042969 L 338.078125 170.144531 Z M 336.335938 180.847656 "/>
<path style=" stroke:none;fill-rule:nonzero;fill:rgb(39.99939%,39.99939%,39.99939%);fill-opacity:0.3;" d="M 298.222656 162.96875 L 298.242188 162.910156 L 299.945312 163.222656 Z M 298.222656 162.96875 "/>
<path style=" stroke:none;fill-rule:nonzero;fill:rgb(39.99939%,39.99939%,39.99939%);fill-opacity:0.3;" d="M 354.394531 183.777344 L 346.105469 182.46875 L 337.914062 180.019531 L 339.691406 168.902344 L 298.503906 161.839844 L 301.789062 151.226562 L 358.59375 160.324219 Z M 354.394531 183.777344 "/>
<g clip-path="url(#clip15)" clip-rule="nonzero">
<path style=" stroke:none;fill-rule:nonzero;fill:rgb(39.99939%,39.99939%,39.99939%);fill-opacity:0.3;" d="M 302.910156 92.132812 L 386.296875 110.625 L 382.695312 132.320312 L 345.464844 127.703125 L 343.449219 140.390625 L 340.128906 155.808594 L 302.277344 150.019531 L 309.320312 126.386719 L 300.566406 123.582031 L 299.203125 120.242188 Z M 302.910156 92.132812 "/>
</g>
<path style=" stroke:none;fill-rule:nonzero;fill:rgb(39.99939%,39.99939%,39.99939%);fill-opacity:0.3;" d="M 257.121094 110.234375 L 263.851562 112.210938 L 262.242188 117.3125 L 255.300781 115.28125 Z M 257.121094 110.234375 "/>
<path style=" stroke:none;fill-rule:nonzero;fill:rgb(39.99939%,39.99939%,39.99939%);fill-opacity:0.3;" d="M 243.367188 106.863281 L 250.378906 108.699219 L 248.738281 113.550781 L 241.753906 111.578125 Z M 243.367188 106.863281 "/>
<path style=" stroke:none;fill-rule:nonzero;fill:rgb(39.99939%,39.99939%,39.99939%);fill-opacity:0.3;" d="M 256.917969 117.058594 L 264.042969 119.175781 L 262.058594 125.34375 L 254.765625 123.089844 Z M 256.917969 117.058594 "/>
<path style=" stroke:none;fill-rule:nonzero;fill:rgb(39.99939%,39.99939%,39.99939%);fill-opacity:0.3;" d="M 241.003906 114.304688 L 248.53125 116.65625 L 246.90625 121.914062 L 239.144531 119.527344 Z M 241.003906 114.304688 "/>
<path style=" stroke:none;fill-rule:nonzero;fill:rgb(39.99939%,39.99939%,39.99939%);fill-opacity:0.3;" d="M 238.925781 120.839844 L 246.460938 123.355469 L 244.324219 128.8125 L 236.953125 126.371094 Z M 238.925781 120.839844 "/>
<path style=" stroke:none;fill-rule:nonzero;fill:rgb(39.99939%,39.99939%,39.99939%);fill-opacity:0.3;" d="M 279.074219 86.710938 L 301.859375 91.90625 L 297.878906 120.421875 L 299.566406 124.402344 L 308.109375 127.203125 L 294.742188 169.765625 L 289.21875 168.089844 L 258.246094 157.101562 L 262.066406 146.6875 L 277.492188 151.867188 L 277.617188 151.304688 L 277.746094 150.738281 L 262.542969 145.460938 Z M 279.074219 86.710938 "/>
<path style=" stroke:none;fill-rule:nonzero;fill:rgb(39.99939%,39.99939%,39.99939%);fill-opacity:0.3;" d="M 240.714844 151.71875 L 250.515625 154.863281 L 253.714844 156.921875 Z M 240.714844 151.71875 "/>
<g clip-path="url(#clip16)" clip-rule="nonzero">
<path style=" stroke:none;fill-rule:nonzero;fill:rgb(39.99939%,39.99939%,39.99939%);fill-opacity:0.3;" d="M 347.039062 129.121094 L 382.367188 133.644531 L 378.011719 161.34375 L 360.746094 158.6875 L 363.679688 144.511719 L 361.625 144.175781 L 358.824219 158.855469 L 341.6875 156.121094 L 345.386719 140.015625 Z M 347.039062 129.121094 "/>
</g>
<path style=" stroke:none;fill-rule:nonzero;fill:rgb(39.99939%,39.99939%,39.99939%);fill-opacity:0.3;" d="M 83.507812 42.417969 L 120.953125 51.367188 L 118.222656 63.628906 L 115.074219 73.238281 L 99.980469 114.332031 L 64.761719 104.21875 L 64.617188 103.746094 L 79.28125 63.652344 L 80.398438 53.308594 Z M 83.507812 42.417969 "/>
<path style=" stroke:none;fill-rule:nonzero;fill:rgb(39.99939%,39.99939%,39.99939%);fill-opacity:0.3;" d="M 32.289062 30.941406 L 26.96875 46.84375 L 11.011719 43.140625 L 1.875 70.34375 L 2.347656 70.921875 L 2.816406 71.496094 L 11.820312 44.378906 L 26.496094 48.023438 L 13.140625 92.484375 L -4.753906 86.734375 L -5.4375 86.46875 L -18.664062 81.695312 L -26.746094 79.125 L -40.402344 75.34375 L -65.734375 67.269531 L -66.015625 65.714844 L -64.835938 64.078125 L -11.609375 29.6875 L -4.910156 26.898438 L -0.457031 25.5 L 8.464844 25.742188 L 15.3125 27.058594 Z M 32.289062 30.941406 "/>
<path style=" stroke:none;fill-rule:nonzero;fill:rgb(39.99939%,39.99939%,39.99939%);fill-opacity:0.3;" d="M 34.113281 31.453125 L 82.347656 42.179688 L 79.222656 53.734375 L 78.214844 63.046875 L 74.835938 70.042969 L 55.113281 65.035156 L 58.878906 52.34375 L 58.097656 52.171875 L 57.320312 51.996094 L 47.75 87.019531 L 48.398438 87.15625 L 49.050781 87.289062 L 54.753906 66.183594 L 74.558594 71.277344 L 63.023438 103.601562 L 55.957031 102.421875 L 44.160156 100.0625 L 19.953125 94.386719 L 15.3125 93.097656 L 27.382812 51.652344 L 39.601562 55.582031 L 30.925781 85.347656 L 31.566406 85.542969 L 32.210938 85.738281 L 41.589844 54.699219 L 27.820312 50.5 Z M 34.113281 31.453125 "/>
<g clip-path="url(#clip17)" clip-rule="nonzero">
<path style=" stroke:none;fill-rule:nonzero;fill:rgb(39.99939%,39.99939%,39.99939%);fill-opacity:0.3;" d="M 353.839844 0.195312 L 393.425781 8.785156 L 387.605469 31.3125 L 350.097656 23.886719 L 348.53125 22.640625 Z M 353.839844 0.195312 "/>
</g>
<g clip-path="url(#clip18)" clip-rule="nonzero">
<path style=" stroke:none;fill-rule:nonzero;fill:rgb(39.99939%,39.99939%,39.99939%);fill-opacity:0.3;" d="M 359.492188 -23.496094 L 399.085938 -14.167969 L 393.90625 6.933594 L 354.242188 -1.855469 Z M 359.492188 -23.496094 "/>
</g>
<path style=" stroke:none;fill-rule:nonzero;fill:rgb(39.99939%,39.99939%,39.99939%);fill-opacity:0.3;" d="M 326.78125 -4.570312 L 351.429688 -0.234375 L 346.171875 21.058594 Z M 326.78125 -4.570312 "/>
<g clip-path="url(#clip19)" clip-rule="nonzero">
<path style=" stroke:none;fill-rule:nonzero;fill:rgb(39.99939%,39.99939%,39.99939%);fill-opacity:0.3;" d="M 380.679688 58.300781 L 378.847656 58.902344 L 351.957031 26.175781 L 386.464844 33.148438 Z M 380.679688 58.300781 "/>
</g>
<g clip-path="url(#clip20)" clip-rule="nonzero">
<path style=" stroke:none;fill-rule:nonzero;fill:rgb(39.99939%,39.99939%,39.99939%);fill-opacity:0.3;" d="M 352.625 92.644531 L 356.699219 69.558594 L 361.65625 70.246094 L 357.585938 93.332031 Z M 352.625 92.644531 "/>
</g>
<path style=" stroke:none;fill-rule:nonzero;fill:rgb(39.99939%,39.99939%,39.99939%);fill-opacity:0.3;" d="M 303.53125 -4.136719 L 311.085938 -2.507812 L 333.289062 25.980469 L 298.480469 18.070312 Z M 303.53125 -4.136719 "/>
<path style=" stroke:none;fill-rule:nonzero;fill:rgb(39.99939%,39.99939%,39.99939%);fill-opacity:0.3;" d="M 298.058594 19.875 L 334.566406 28.175781 L 358.320312 55.738281 L 292.867188 42.253906 Z M 298.058594 19.875 "/>
<path style=" stroke:none;fill-rule:nonzero;fill:rgb(39.99939%,39.99939%,39.99939%);fill-opacity:0.3;" d="M 267.4375 11.390625 L 272.625 -10.6875 L 302.058594 -4.558594 L 296.667969 17.605469 Z M 267.4375 11.390625 "/>
<path style=" stroke:none;fill-rule:nonzero;fill:rgb(39.99939%,39.99939%,39.99939%);fill-opacity:0.3;" d="M 261.535156 34.726562 L 267.027344 13.15625 L 296.378906 19.5625 L 290.9375 41.835938 Z M 261.535156 34.726562 "/>
<path style=" stroke:none;fill-rule:nonzero;fill:rgb(39.99939%,39.99939%,39.99939%);fill-opacity:0.3;" d="M 231.507812 4.863281 L 262.351562 12.183594 L 257 33.386719 L 226.757812 26.277344 Z M 231.507812 4.863281 "/>
<path style=" stroke:none;fill-rule:nonzero;fill:rgb(39.99939%,39.99939%,39.99939%);fill-opacity:0.3;" d="M 238.148438 -18.460938 L 268.429688 -11.558594 L 262.75 10.515625 L 232.03125 3.222656 Z M 238.148438 -18.460938 "/>
<path style=" stroke:none;fill-rule:nonzero;fill:rgb(39.99939%,39.99939%,39.99939%);fill-opacity:0.3;" d="M 196.914062 -3.136719 L 191.441406 17.730469 L 166.324219 12.113281 L 171.859375 -8.328125 Z M 196.914062 -3.136719 "/>
<path style=" stroke:none;fill-rule:nonzero;fill:rgb(39.99939%,39.99939%,39.99939%);fill-opacity:0.3;" d="M 199.035156 -2.699219 L 229.085938 4.355469 L 223.867188 25.570312 L 193.539062 18.222656 Z M 199.035156 -2.699219 "/>
<path style=" stroke:none;fill-rule:nonzero;fill:rgb(39.99939%,39.99939%,39.99939%);fill-opacity:0.3;" d="M 204.710938 -27.671875 L 235.523438 -19.796875 L 229.457031 2.558594 L 199.347656 -4.28125 Z M 204.710938 -27.671875 "/>
<path style=" stroke:none;fill-rule:nonzero;fill:rgb(39.99939%,39.99939%,39.99939%);fill-opacity:0.3;" d="M 145.328125 -14.824219 L 169.742188 -8.828125 L 162.785156 11.207031 L 139.433594 5.011719 Z M 145.328125 -14.824219 "/>
<path style=" stroke:none;fill-rule:nonzero;fill:rgb(39.99939%,39.99939%,39.99939%);fill-opacity:0.3;" d="M 166.113281 14.417969 L 190.554688 20.492188 L 184.136719 44.792969 L 185.277344 45.113281 L 186.417969 45.4375 L 192.597656 20.925781 L 256.535156 36.035156 L 250.320312 62.921875 L 248.640625 67.539062 L 245.277344 73.539062 L 241.730469 75.597656 L 202.707031 66.847656 L 197.917969 65.957031 L 180.574219 62.289062 L 180.339844 62.144531 L 176.882812 61.175781 L 152.765625 55.195312 L 161.867188 23.980469 L 164.5625 24.300781 Z M 166.113281 14.417969 "/>
<path style=" stroke:none;fill-rule:nonzero;fill:rgb(39.99939%,39.99939%,39.99939%);fill-opacity:0.3;" d="M 138.917969 6.925781 L 162.1875 13.378906 L 150.886719 54.660156 L 125.234375 49.242188 L 126.074219 46.425781 Z M 138.917969 6.925781 "/>
<path style=" stroke:none;fill-rule:nonzero;fill:rgb(39.99939%,39.99939%,39.99939%);fill-opacity:0.3;" d="M 339.847656 73.597656 L 349.027344 75.496094 L 348.46875 79.90625 L 344.1875 79.144531 L 343.996094 80.101562 L 347.867188 80.671875 L 347.703125 84.507812 L 337.515625 82.40625 L 338.285156 78.765625 L 340.527344 79.148438 L 340.921875 77.996094 L 338.675781 77.234375 Z M 339.847656 73.597656 "/>
<path style=" stroke:none;fill-rule:nonzero;fill:rgb(39.99939%,39.99939%,39.99939%);fill-opacity:0.3;" d="M 341.894531 61.753906 L 351.289062 63.257812 L 350.742188 67.078125 L 347.273438 66.511719 L 347.292969 67.65625 L 350.351562 68.035156 L 349.402344 73.007812 L 340.226562 71.492188 L 340.550781 66.140625 L 343.820312 66.898438 L 343.992188 65.179688 L 341.742188 64.613281 Z M 341.894531 61.753906 "/>
<g clip-path="url(#clip21)" clip-rule="nonzero">
<path style=" stroke:none;fill-rule:nonzero;fill:rgb(39.99939%,39.99939%,39.99939%);fill-opacity:0.3;" d="M 333.34375 53.738281 L 361.859375 59.632812 L 401.929688 108.820312 L 399.097656 110.746094 L 324.464844 94.046875 Z M 333.34375 53.738281 "/>
</g>
<path style=" stroke:none;fill-rule:nonzero;fill:rgb(39.99939%,39.99939%,39.99939%);fill-opacity:0.3;" d="M 292.234375 44.488281 L 331.4375 53.335938 L 322.714844 93.664062 L 298.738281 88.34375 L 281.964844 84.363281 Z M 292.234375 44.488281 "/>
<path style=" stroke:none;fill-rule:nonzero;fill:rgb(39.99939%,39.99939%,39.99939%);fill-opacity:0.3;" d="M 260.535156 37.222656 L 290.394531 43.964844 L 281.671875 76.128906 L 279.921875 83.882812 L 269.691406 81.859375 L 248.511719 76.988281 L 251.53125 65.320312 L 253.988281 64.152344 Z M 260.535156 37.222656 "/>
<path style=" stroke:none;fill-rule:nonzero;fill:rgb(39.99939%,39.99939%,39.99939%);fill-opacity:0.3;" d="M 336.015625 180.792969 L 320.453125 178.0625 L 295.910156 170.421875 L 298.222656 162.96875 L 299.945312 163.222656 L 337.511719 170.042969 Z M 336.015625 180.792969 "/>
<path style=" stroke:none;fill-rule:nonzero;fill:rgb(39.99939%,39.99939%,39.99939%);fill-opacity:0.3;" d="M 254.707031 179.5 L 263.96875 182.882812 L 262.613281 186.53125 L 253.128906 183.234375 Z M 254.707031 179.5 "/>
<path style=" stroke:none;fill-rule:nonzero;fill:rgb(39.99939%,39.99939%,39.99939%);fill-opacity:0.3;" d="M 256.238281 173.941406 L 265.222656 177.0625 L 263.882812 180.925781 L 254.835938 177.632812 Z M 256.238281 173.941406 "/>
<path style=" stroke:none;fill-rule:nonzero;fill:rgb(39.99939%,39.99939%,39.99939%);fill-opacity:0.3;" d="M 320.972656 179.832031 L 334.085938 182.570312 L 327.257812 231.847656 L 316.023438 229.234375 Z M 320.972656 179.832031 "/>
<path style=" stroke:none;fill-rule:nonzero;fill:rgb(39.99939%,39.99939%,39.99939%);fill-opacity:0.3;" d="M 319.371094 179.316406 L 315.03125 221.855469 L 315.394531 224.167969 L 314.730469 229.121094 L 289.640625 223.257812 L 291.136719 213.113281 L 297.507812 211.523438 L 302.003906 186.277344 L 299.503906 185.757812 L 301.105469 173.859375 Z M 319.371094 179.316406 "/>
<path style=" stroke:none;fill-rule:nonzero;fill:rgb(39.99939%,39.99939%,39.99939%);fill-opacity:0.3;" d="M 289.738281 224.527344 L 300.535156 226.976562 L 298.71875 251.355469 L 290.5 250.757812 L 289.929688 250.6875 L 287.085938 250.507812 L 286.34375 250.453125 Z M 289.738281 224.527344 "/>
<path style=" stroke:none;fill-rule:nonzero;fill:rgb(39.99939%,39.99939%,39.99939%);fill-opacity:0.3;" d="M 301.410156 227.199219 L 327.085938 232.871094 L 324.0625 253.90625 L 313.972656 252.949219 L 314.441406 241.765625 L 314.074219 241.757812 L 313.707031 241.746094 L 313.269531 252.894531 L 299.476562 251.460938 Z M 301.410156 227.199219 "/>
<path style=" stroke:none;fill-rule:nonzero;fill:rgb(39.99939%,39.99939%,39.99939%);fill-opacity:0.3;" d="M 294.742188 169.765625 L 294.664062 170.023438 L 289.21875 168.089844 Z M 294.742188 169.765625 "/>
<path style=" stroke:none;fill-rule:nonzero;fill:rgb(39.99939%,39.99939%,39.99939%);fill-opacity:0.3;" d="M 258.703125 159.523438 L 275.386719 165.328125 L 267.90625 187.019531 L 268.601562 187.347656 L 269.300781 187.679688 L 276.5625 165.648438 L 299.992188 173.546875 L 295.292969 208.300781 L 289.011719 211.316406 L 288.605469 219.300781 L 286.667969 222.417969 L 274.734375 219.59375 L 283.324219 191.632812 L 282.660156 191.378906 L 281.992188 191.125 L 274.0625 217.367188 L 273.113281 218.65625 L 270.285156 218.308594 L 258.617188 215.019531 L 254.144531 213.40625 L 250.632812 212.015625 L 248.226562 210.433594 L 245.957031 208.292969 L 245.914062 205.679688 L 249.15625 191.921875 L 254.074219 193.199219 L 254.246094 192.386719 L 249.496094 191.136719 Z M 258.703125 159.523438 "/>
<path style=" stroke:none;fill-rule:nonzero;fill:rgb(39.99939%,39.99939%,39.99939%);fill-opacity:0.3;" d="M 288.390625 223.914062 L 284.898438 250.320312 L 282.957031 250.148438 L 272.296875 248.480469 L 257.734375 247.898438 L 251.125 247.308594 L 249.871094 249.472656 L 248.050781 250.6875 L 245.613281 251.996094 L 237.941406 250.609375 L 234.089844 249.582031 L 226.328125 248.511719 L 207.996094 245.203125 L 213.730469 216.394531 L 216.25 200.402344 L 230.300781 148.382812 L 240.714844 151.71875 L 253.714844 156.921875 L 255.515625 158.078125 L 256.621094 160 L 247.992188 191.71875 L 244.800781 205.527344 L 244.660156 208.621094 L 243.464844 211.199219 L 237.128906 233.878906 L 237.636719 233.996094 L 238.144531 234.109375 L 244.402344 211.101562 L 247.03125 210.878906 L 250.203125 212.808594 L 254.011719 214.484375 L 257.78125 216.519531 L 273.570312 220.53125 Z M 288.390625 223.914062 "/>
<path style=" stroke:none;fill-rule:nonzero;fill:rgb(39.99939%,39.99939%,39.99939%);fill-opacity:0.3;" d="M 290.5 250.757812 L 287.085938 250.507812 L 289.929688 250.6875 Z M 290.5 250.757812 "/>
<g clip-path="url(#clip22)" clip-rule="nonzero">
<path style=" stroke:none;fill-rule:nonzero;fill:rgb(39.99939%,39.99939%,39.99939%);fill-opacity:0.3;" d="M 366.375 262.574219 L 383.269531 264.578125 L 373.289062 332.238281 L 355.789062 329.925781 Z M 366.375 262.574219 "/>
</g>
<path style=" stroke:none;fill-rule:nonzero;fill:rgb(39.99939%,39.99939%,39.99939%);fill-opacity:0.3;" d="M 283.84375 251.773438 L 284.636719 251.828125 L 279.488281 283.890625 L 279.257812 283.871094 Z M 283.84375 251.773438 "/>
<path style=" stroke:none;fill-rule:nonzero;fill:rgb(39.99939%,39.99939%,39.99939%);fill-opacity:0.3;" d="M 278.84375 286.777344 L 278.96875 286.796875 L 278.28125 291.195312 L 278.214844 291.191406 Z M 278.84375 286.777344 "/>
<path style=" stroke:none;fill-rule:nonzero;fill:rgb(39.99939%,39.99939%,39.99939%);fill-opacity:0.3;" d="M 276.167969 319.773438 L 286.171875 251.945312 L 294.835938 252.503906 L 291.9375 279.832031 L 292.488281 279.882812 L 293.039062 279.929688 L 295.804688 252.628906 L 303.464844 253.351562 L 301.027344 279.871094 L 301.535156 279.871094 L 302.042969 279.875 L 304.261719 253.429688 L 312.46875 254.460938 L 307.625 297.054688 L 308.140625 297.152344 L 308.65625 297.246094 L 313.542969 254.59375 L 323.824219 255.523438 L 313.195312 324.460938 Z M 276.167969 319.773438 "/>
<g clip-path="url(#clip23)" clip-rule="nonzero">
<path style=" stroke:none;fill-rule:nonzero;fill:rgb(39.99939%,39.99939%,39.99939%);fill-opacity:0.3;" d="M 326.304688 255.933594 L 364.351562 260.953125 L 353.898438 329.675781 L 353.851562 329.671875 L 334.566406 327.300781 L 340.582031 287.859375 L 339.792969 287.785156 L 339.003906 287.714844 L 332.4375 326.949219 L 315.496094 324.863281 Z M 326.304688 255.933594 "/>
</g>
<path style="fill-rule:nonzero;fill:rgb(39.99939%,39.99939%,39.99939%);fill-opacity:1;stroke-width:0.03;stroke-linecap:square;stroke-linejoin:miter;stroke:rgb(39.99939%,39.99939%,39.99939%);stroke-opacity:1;stroke-miterlimit:3.239307;" d="M 129.105469 289.597656 L 144.222656 291.625 L 177.347656 296.066406 L 175.195312 307.824219 L 174.664062 310.746094 L 174.367188 310.710938 L 153.792969 308.136719 L 151.507812 307.835938 L 146.433594 307.128906 L 143.546875 305.929688 L 128.980469 304.53125 L 125.429688 303.84375 Z M 129.105469 289.597656 " transform="matrix(1,0,0,1,-74,-13)"/>
<path style="fill-rule:nonzero;fill:rgb(39.99939%,39.99939%,39.99939%);fill-opacity:1;stroke-width:0.03;stroke-linecap:square;stroke-linejoin:miter;stroke:rgb(39.99939%,39.99939%,39.99939%);stroke-opacity:1;stroke-miterlimit:3.239307;" d="M 231.625 150.496094 L 237.917969 152.285156 L 236.039062 157.628906 L 229.925781 156.289062 Z M 231.625 150.496094 " transform="matrix(1,0,0,1,-74,-13)"/>
<path style="fill-rule:nonzero;fill:rgb(39.99939%,39.99939%,39.99939%);fill-opacity:1;stroke-width:0.03;stroke-linecap:square;stroke-linejoin:miter;stroke:rgb(39.99939%,39.99939%,39.99939%);stroke-opacity:1;stroke-miterlimit:3.239307;" d="M 231.644531 158.113281 L 240.679688 159.015625 L 239.917969 162.914062 L 230.964844 162.25 Z M 231.644531 158.113281 " transform="matrix(1,0,0,1,-74,-13)"/>
<path style="fill-rule:nonzero;fill:rgb(39.99939%,39.99939%,39.99939%);fill-opacity:1;stroke-width:0.03;stroke-linecap:square;stroke-linejoin:miter;stroke:rgb(39.99939%,39.99939%,39.99939%);stroke-opacity:1;stroke-miterlimit:3.239307;" d="M 213.472656 143.285156 L 226.335938 147.011719 L 225.003906 150.710938 L 212.023438 147.636719 Z M 213.472656 143.285156 " transform="matrix(1,0,0,1,-74,-13)"/>
<path style="fill-rule:nonzero;fill:rgb(39.99939%,39.99939%,39.99939%);fill-opacity:1;stroke-width:0.03;stroke-linecap:square;stroke-linejoin:miter;stroke:rgb(39.99939%,39.99939%,39.99939%);stroke-opacity:1;stroke-miterlimit:3.239307;" d="M 244.554688 154.109375 L 249.601562 155.566406 L 242.058594 177.921875 L 237.386719 176.136719 Z M 244.554688 154.109375 " transform="matrix(1,0,0,1,-74,-13)"/>
<path style="fill-rule:nonzero;fill:rgb(39.99939%,39.99939%,39.99939%);fill-opacity:1;stroke-width:0.03;stroke-linecap:square;stroke-linejoin:miter;stroke:rgb(39.99939%,39.99939%,39.99939%);stroke-opacity:1;stroke-miterlimit:3.239307;" d="M 212.613281 149.03125 L 225.214844 151.675781 L 224.101562 156.132812 L 211.335938 153.90625 Z M 212.613281 149.03125 " transform="matrix(1,0,0,1,-74,-13)"/>
<path style="fill-rule:nonzero;fill:rgb(39.99939%,39.99939%,39.99939%);fill-opacity:1;stroke-width:0.03;stroke-linecap:square;stroke-linejoin:miter;stroke:rgb(39.99939%,39.99939%,39.99939%);stroke-opacity:1;stroke-miterlimit:3.239307;" d="M 206.886719 163.664062 L 208.617188 159.429688 L 233.265625 167.070312 L 231.933594 171.207031 Z M 206.886719 163.664062 " transform="matrix(1,0,0,1,-74,-13)"/>
<path style="fill-rule:nonzero;fill:rgb(39.99939%,39.99939%,39.99939%);fill-opacity:1;stroke-width:0.03;stroke-linecap:square;stroke-linejoin:miter;stroke:rgb(39.99939%,39.99939%,39.99939%);stroke-opacity:1;stroke-miterlimit:3.239307;" d="M 200.8125 161.664062 L 205.375 149.394531 L 210.460938 151.121094 L 205.753906 163.261719 Z M 200.8125 161.664062 " transform="matrix(1,0,0,1,-74,-13)"/>
<path style="fill-rule:nonzero;fill:rgb(39.99939%,39.99939%,39.99939%);fill-opacity:1;stroke-width:0.03;stroke-linecap:square;stroke-linejoin:miter;stroke:rgb(39.99939%,39.99939%,39.99939%);stroke-opacity:1;stroke-miterlimit:3.239307;" d="M 236.980469 233.632812 L 238.976562 227.976562 L 244.222656 229.1875 L 242.363281 234.730469 Z M 236.980469 233.632812 " transform="matrix(1,0,0,1,-74,-13)"/>
<path style="fill-rule:nonzero;fill:rgb(39.99939%,39.99939%,39.99939%);fill-opacity:1;stroke-width:0.03;stroke-linecap:square;stroke-linejoin:miter;stroke:rgb(39.99939%,39.99939%,39.99939%);stroke-opacity:1;stroke-miterlimit:3.239307;" d="M 245.230469 247.898438 L 239.753906 247.78125 L 240.714844 238.203125 L 245.9375 238.199219 Z M 245.230469 247.898438 " transform="matrix(1,0,0,1,-74,-13)"/>
<path style="fill-rule:nonzero;fill:rgb(39.99939%,39.99939%,39.99939%);fill-opacity:1;stroke-width:0.03;stroke-linecap:square;stroke-linejoin:miter;stroke:rgb(39.99939%,39.99939%,39.99939%);stroke-opacity:1;stroke-miterlimit:3.239307;" d="M 230.667969 220.566406 L 233.3125 221.386719 L 229.410156 235.441406 L 226.550781 234.585938 Z M 230.667969 220.566406 " transform="matrix(1,0,0,1,-74,-13)"/>
<path style="fill-rule:nonzero;fill:rgb(39.99939%,39.99939%,39.99939%);fill-opacity:1;stroke-width:0.03;stroke-linecap:square;stroke-linejoin:miter;stroke:rgb(39.99939%,39.99939%,39.99939%);stroke-opacity:1;stroke-miterlimit:3.239307;" d="M 258.257812 226.144531 L 279.613281 230.722656 L 273.492188 261.960938 L 250.140625 257.394531 L 251.726562 250.046875 L 252.378906 243.238281 L 254.066406 236.0625 L 257.121094 228.976562 Z M 258.257812 226.144531 " transform="matrix(1,0,0,1,-74,-13)"/>
<path style="fill-rule:nonzero;fill:rgb(39.99939%,39.99939%,39.99939%);fill-opacity:1;stroke-width:0.03;stroke-linecap:square;stroke-linejoin:miter;stroke:rgb(39.99939%,39.99939%,39.99939%);stroke-opacity:1;stroke-miterlimit:3.239307;" d="M 304.085938 127.214844 L 296.992188 158.445312 L 279.46875 155.792969 L 285.144531 127.890625 L 286.269531 122 Z M 304.085938 127.214844 " transform="matrix(1,0,0,1,-74,-13)"/>
<path style="fill-rule:nonzero;fill:rgb(39.99939%,39.99939%,39.99939%);fill-opacity:1;stroke-width:0.03;stroke-linecap:square;stroke-linejoin:miter;stroke:rgb(39.99939%,39.99939%,39.99939%);stroke-opacity:1;stroke-miterlimit:3.239307;" d="M 223.664062 69.40625 L 249.617188 75.941406 L 227.574219 144.789062 L 203.335938 136.730469 Z M 223.664062 69.40625 " transform="matrix(1,0,0,1,-74,-13)"/>
<path style="fill-rule:nonzero;fill:rgb(39.99939%,39.99939%,39.99939%);fill-opacity:1;stroke-width:0.03;stroke-linecap:square;stroke-linejoin:miter;stroke:rgb(39.99939%,39.99939%,39.99939%);stroke-opacity:1;stroke-miterlimit:3.239307;" d="M 244.210938 290.230469 L 268.015625 293.480469 L 262.34375 321.570312 L 237.648438 318.394531 L 237.246094 318.324219 Z M 244.210938 290.230469 " transform="matrix(1,0,0,1,-74,-13)"/>
<path style="fill-rule:nonzero;fill:rgb(39.99939%,39.99939%,39.99939%);fill-opacity:1;stroke-width:0.03;stroke-linecap:square;stroke-linejoin:miter;stroke:rgb(39.99939%,39.99939%,39.99939%);stroke-opacity:1;stroke-miterlimit:3.239307;" d="M 177.429688 294.4375 L 154.066406 291.164062 L 129.6875 287.746094 L 137.460938 264 L 144.644531 242.058594 L 185.398438 250.003906 Z M 177.429688 294.4375 " transform="matrix(1,0,0,1,-74,-13)"/>
<path style="fill-rule:nonzero;fill:rgb(39.99939%,39.99939%,39.99939%);fill-opacity:1;stroke-width:0.03;stroke-linecap:square;stroke-linejoin:miter;stroke:rgb(39.99939%,39.99939%,39.99939%);stroke-opacity:1;stroke-miterlimit:3.239307;" d="M 187.125 250.304688 L 206.347656 253.199219 L 195.730469 312.863281 L 186.648438 312.167969 L 176.605469 310.976562 Z M 187.125 250.304688 " transform="matrix(1,0,0,1,-74,-13)"/>
<path style="fill-rule:nonzero;fill:rgb(39.99939%,39.99939%,39.99939%);fill-opacity:1;stroke-width:0.03;stroke-linecap:square;stroke-linejoin:miter;stroke:rgb(39.99939%,39.99939%,39.99939%);stroke-opacity:1;stroke-miterlimit:3.239307;" d="M 248.589844 258.3125 L 242.75 288.5 L 226.6875 286.375 L 231.859375 253.9375 Z M 248.589844 258.3125 " transform="matrix(1,0,0,1,-74,-13)"/>
<path style="fill-rule:nonzero;fill:rgb(39.99939%,39.99939%,39.99939%);fill-opacity:1;stroke-width:0.03;stroke-linecap:square;stroke-linejoin:miter;stroke:rgb(39.99939%,39.99939%,39.99939%);stroke-opacity:1;stroke-miterlimit:3.239307;" d="M 249.878906 258.679688 L 273.328125 263.160156 L 268.320312 292.097656 L 244.296875 288.683594 Z M 249.878906 258.679688 " transform="matrix(1,0,0,1,-74,-13)"/>
<path style="fill-rule:nonzero;fill:rgb(39.99939%,39.99939%,39.99939%);fill-opacity:1;stroke-width:0.03;stroke-linecap:square;stroke-linejoin:miter;stroke:rgb(39.99939%,39.99939%,39.99939%);stroke-opacity:1;stroke-miterlimit:3.239307;" d="M 196.445312 64.429688 L 217.609375 68.675781 L 217.785156 72.125 L 221.382812 72.878906 L 201.847656 136.292969 L 177.628906 128.191406 L 181.957031 113.269531 L 181.285156 110.65625 L 193.152344 79.542969 Z M 196.445312 64.429688 " transform="matrix(1,0,0,1,-74,-13)"/>
<path style="fill-rule:nonzero;fill:rgb(39.99939%,39.99939%,39.99939%);fill-opacity:1;stroke-width:0.03;stroke-linecap:square;stroke-linejoin:miter;stroke:rgb(39.99939%,39.99939%,39.99939%);stroke-opacity:1;stroke-miterlimit:3.239307;" d="M 285.804688 128.160156 L 290.414062 129.089844 L 286.8125 148.398438 L 282 147.296875 Z M 285.804688 128.160156 " transform="matrix(1,0,0,1,-74,-13)"/>
<path style="fill-rule:nonzero;fill:rgb(39.99939%,39.99939%,39.99939%);fill-opacity:1;stroke-width:0.03;stroke-linecap:square;stroke-linejoin:miter;stroke:rgb(39.99939%,39.99939%,39.99939%);stroke-opacity:1;stroke-miterlimit:3.239307;" d="M 291.972656 124.714844 L 302.851562 127.425781 L 302.046875 130.828125 L 291.167969 128.136719 Z M 291.972656 124.714844 " transform="matrix(1,0,0,1,-74,-13)"/>
<path style="fill-rule:nonzero;fill:rgb(39.99939%,39.99939%,39.99939%);fill-opacity:1;stroke-width:0.03;stroke-linecap:square;stroke-linejoin:miter;stroke:rgb(39.99939%,39.99939%,39.99939%);stroke-opacity:1;stroke-miterlimit:3.239307;" d="M 297.15625 130.503906 L 301.851562 131.488281 L 298.371094 147.25 L 293.515625 146.53125 Z M 297.15625 130.503906 " transform="matrix(1,0,0,1,-74,-13)"/>
<path style="fill-rule:nonzero;fill:rgb(39.99939%,39.99939%,39.99939%);fill-opacity:1;stroke-width:0.03;stroke-linecap:square;stroke-linejoin:miter;stroke:rgb(39.99939%,39.99939%,39.99939%);stroke-opacity:1;stroke-miterlimit:3.239307;" d="M 250.972656 76.300781 L 275.425781 81.570312 L 265.921875 114.976562 L 257.429688 142.578125 L 254.820312 142.03125 L 254.066406 143.839844 L 251.996094 143.441406 L 249.203125 151.582031 L 229.179688 145.191406 L 240.742188 109.46875 Z M 250.972656 76.300781 " transform="matrix(1,0,0,1,-74,-13)"/>
<path style="fill-rule:nonzero;fill:rgb(39.99939%,39.99939%,39.99939%);fill-opacity:1;stroke-width:0.03;stroke-linecap:square;stroke-linejoin:miter;stroke:rgb(39.99939%,39.99939%,39.99939%);stroke-opacity:1;stroke-miterlimit:3.239307;" d="M 192.222656 76.628906 L 191.636719 79.261719 L 189.074219 86.238281 Z M 192.222656 76.628906 " transform="matrix(1,0,0,1,-74,-13)"/>
<path style="fill-rule:nonzero;fill:rgb(39.99939%,39.99939%,39.99939%);fill-opacity:1;stroke-width:0.03;stroke-linecap:square;stroke-linejoin:miter;stroke:rgb(39.99939%,39.99939%,39.99939%);stroke-opacity:1;stroke-miterlimit:3.239307;" d="M 271.917969 78.957031 L 258.886719 76.527344 L 256.375 76.214844 L 255.988281 76.167969 L 254.574219 75.289062 Z M 271.917969 78.957031 " transform="matrix(1,0,0,1,-74,-13)"/>
<path style="fill-rule:nonzero;fill:rgb(39.99939%,39.99939%,39.99939%);fill-opacity:1;stroke-width:0.03;stroke-linecap:square;stroke-linejoin:miter;stroke:rgb(39.99939%,39.99939%,39.99939%);stroke-opacity:1;stroke-miterlimit:3.239307;" d="M 263.542969 132.386719 L 264.640625 127.992188 L 269.59375 128.914062 L 268.519531 133.359375 Z M 263.542969 132.386719 " transform="matrix(1,0,0,1,-74,-13)"/>
<path style="fill-rule:nonzero;fill:rgb(39.99939%,39.99939%,39.99939%);fill-opacity:1;stroke-width:0.03;stroke-linecap:square;stroke-linejoin:miter;stroke:rgb(39.99939%,39.99939%,39.99939%);stroke-opacity:1;stroke-miterlimit:3.239307;" d="M 261.746094 138.539062 L 262.847656 134.136719 L 267.796875 135.0625 L 266.722656 139.507812 Z M 261.746094 138.539062 " transform="matrix(1,0,0,1,-74,-13)"/>
<path style="fill-rule:nonzero;fill:rgb(39.99939%,39.99939%,39.99939%);fill-opacity:1;stroke-width:0.03;stroke-linecap:square;stroke-linejoin:miter;stroke:rgb(39.99939%,39.99939%,39.99939%);stroke-opacity:1;stroke-miterlimit:3.239307;" d="M 268.375 145.851562 L 269.480469 141.449219 L 274.429688 142.371094 L 273.347656 146.824219 Z M 268.375 145.851562 " transform="matrix(1,0,0,1,-74,-13)"/>
<path style="fill-rule:nonzero;fill:rgb(39.99939%,39.99939%,39.99939%);fill-opacity:1;stroke-width:0.03;stroke-linecap:square;stroke-linejoin:miter;stroke:rgb(39.99939%,39.99939%,39.99939%);stroke-opacity:1;stroke-miterlimit:3.239307;" d="M 261.519531 144.5625 L 262.621094 140.15625 L 267.570312 141.082031 L 266.492188 145.53125 Z M 261.519531 144.5625 " transform="matrix(1,0,0,1,-74,-13)"/>
<path style="fill-rule:nonzero;fill:rgb(39.99939%,39.99939%,39.99939%);fill-opacity:1;stroke-width:0.03;stroke-linecap:square;stroke-linejoin:miter;stroke:rgb(39.99939%,39.99939%,39.99939%);stroke-opacity:1;stroke-miterlimit:3.239307;" d="M 284.765625 121.527344 L 277.757812 155.472656 L 257.1875 152.382812 L 266.988281 116.011719 Z M 284.765625 121.527344 " transform="matrix(1,0,0,1,-74,-13)"/>
<path style="fill-rule:nonzero;fill:rgb(39.99939%,39.99939%,39.99939%);fill-opacity:1;stroke-width:0.03;stroke-linecap:square;stroke-linejoin:miter;stroke:rgb(39.99939%,39.99939%,39.99939%);stroke-opacity:1;stroke-miterlimit:3.239307;" d="M 242.089844 75.082031 L 248.582031 76.632812 L 245.652344 85.378906 L 239.351562 83.625 Z M 242.089844 75.082031 " transform="matrix(1,0,0,1,-74,-13)"/>
<path style="fill-rule:nonzero;fill:rgb(39.99939%,39.99939%,39.99939%);fill-opacity:1;stroke-width:0.03;stroke-linecap:square;stroke-linejoin:miter;stroke:rgb(39.99939%,39.99939%,39.99939%);stroke-opacity:1;stroke-miterlimit:3.239307;" d="M 236.464844 73.613281 L 240.960938 74.664062 L 239.652344 79 L 235.296875 77.890625 Z M 236.464844 73.613281 " transform="matrix(1,0,0,1,-74,-13)"/>
<path style="fill-rule:nonzero;fill:rgb(39.99939%,39.99939%,39.99939%);fill-opacity:1;stroke-width:0.03;stroke-linecap:square;stroke-linejoin:miter;stroke:rgb(39.99939%,39.99939%,39.99939%);stroke-opacity:1;stroke-miterlimit:3.239307;" d="M 226.816406 82.578125 L 232.222656 84.160156 L 230.054688 89.964844 L 224.582031 88.246094 Z M 226.816406 82.578125 " transform="matrix(1,0,0,1,-74,-13)"/>
<path style="fill-rule:nonzero;fill:rgb(39.99939%,39.99939%,39.99939%);fill-opacity:1;stroke-width:0.03;stroke-linecap:square;stroke-linejoin:miter;stroke:rgb(39.99939%,39.99939%,39.99939%);stroke-opacity:1;stroke-miterlimit:3.239307;" d="M 229.347656 74.765625 L 234.988281 76.246094 L 233.382812 81.75 L 227.878906 80.28125 Z M 229.347656 74.765625 " transform="matrix(1,0,0,1,-74,-13)"/>
<path style="fill-rule:nonzero;fill:rgb(39.99939%,39.99939%,39.99939%);fill-opacity:1;stroke-width:0.03;stroke-linecap:square;stroke-linejoin:miter;stroke:rgb(39.99939%,39.99939%,39.99939%);stroke-opacity:1;stroke-miterlimit:3.239307;" d="M 226.832031 103.886719 L 232.519531 105.164062 L 230.230469 113.183594 L 224.597656 111.863281 Z M 226.832031 103.886719 " transform="matrix(1,0,0,1,-74,-13)"/>
<path style="fill-rule:nonzero;fill:rgb(39.99939%,39.99939%,39.99939%);fill-opacity:1;stroke-width:0.03;stroke-linecap:square;stroke-linejoin:miter;stroke:rgb(39.99939%,39.99939%,39.99939%);stroke-opacity:1;stroke-miterlimit:3.239307;" d="M 232.390625 109.382812 L 237.699219 110.886719 L 234.800781 120.113281 L 229.460938 118.667969 Z M 232.390625 109.382812 " transform="matrix(1,0,0,1,-74,-13)"/>
<path style="fill-rule:nonzero;fill:rgb(39.99939%,39.99939%,39.99939%);fill-opacity:1;stroke-width:0.03;stroke-linecap:square;stroke-linejoin:miter;stroke:rgb(39.99939%,39.99939%,39.99939%);stroke-opacity:1;stroke-miterlimit:3.239307;" d="M 221.425781 121.773438 L 232.890625 125.464844 L 231.414062 130.125 L 220.042969 126.46875 Z M 221.425781 121.773438 " transform="matrix(1,0,0,1,-74,-13)"/>
<path style="fill-rule:nonzero;fill:rgb(39.99939%,39.99939%,39.99939%);fill-opacity:1;stroke-width:0.03;stroke-linecap:square;stroke-linejoin:miter;stroke:rgb(39.99939%,39.99939%,39.99939%);stroke-opacity:1;stroke-miterlimit:3.239307;" d="M 225.128906 130.359375 L 230.523438 132.125 L 227.167969 144.027344 L 221.105469 142.097656 Z M 225.128906 130.359375 " transform="matrix(1,0,0,1,-74,-13)"/>
<path style="fill-rule:nonzero;fill:rgb(39.99939%,39.99939%,39.99939%);fill-opacity:1;stroke-width:0.03;stroke-linecap:square;stroke-linejoin:miter;stroke:rgb(39.99939%,39.99939%,39.99939%);stroke-opacity:1;stroke-miterlimit:3.239307;" d="M 219.195312 128.410156 L 224.472656 130.113281 L 220.636719 141.949219 L 214.652344 139.949219 Z M 219.195312 128.410156 " transform="matrix(1,0,0,1,-74,-13)"/>
<path style="fill-rule:nonzero;fill:rgb(39.99939%,39.99939%,39.99939%);fill-opacity:1;stroke-width:0.03;stroke-linecap:square;stroke-linejoin:miter;stroke:rgb(39.99939%,39.99939%,39.99939%);stroke-opacity:1;stroke-miterlimit:3.239307;" d="M 256.660156 100.257812 L 260.460938 101.917969 L 256.109375 109.71875 L 252.5 108.101562 Z M 256.660156 100.257812 " transform="matrix(1,0,0,1,-74,-13)"/>
<path style="fill-rule:nonzero;fill:rgb(39.99939%,39.99939%,39.99939%);fill-opacity:1;stroke-width:0.03;stroke-linecap:square;stroke-linejoin:miter;stroke:rgb(39.99939%,39.99939%,39.99939%);stroke-opacity:1;stroke-miterlimit:3.239307;" d="M 258.84375 82.488281 L 263.140625 83.238281 L 261.816406 91.324219 L 257.25 90.546875 Z M 258.84375 82.488281 " transform="matrix(1,0,0,1,-74,-13)"/>
<path style="fill-rule:nonzero;fill:rgb(39.99939%,39.99939%,39.99939%);fill-opacity:1;stroke-width:0.03;stroke-linecap:square;stroke-linejoin:miter;stroke:rgb(39.99939%,39.99939%,39.99939%);stroke-opacity:1;stroke-miterlimit:3.239307;" d="M 252.152344 123.046875 L 258.277344 124.15625 L 256.105469 134.289062 L 249.734375 133.179688 Z M 252.152344 123.046875 " transform="matrix(1,0,0,1,-74,-13)"/>
<path style="fill-rule:nonzero;fill:rgb(39.99939%,39.99939%,39.99939%);fill-opacity:1;stroke-width:0.03;stroke-linecap:square;stroke-linejoin:miter;stroke:rgb(39.99939%,39.99939%,39.99939%);stroke-opacity:1;stroke-miterlimit:3.239307;" d="M 275.382812 106.773438 L 281.035156 107.167969 L 280.660156 111.476562 L 274.890625 111 Z M 275.382812 106.773438 " transform="matrix(1,0,0,1,-74,-13)"/>
<path style="fill-rule:nonzero;fill:rgb(39.99939%,39.99939%,39.99939%);fill-opacity:1;stroke-width:0.03;stroke-linecap:square;stroke-linejoin:miter;stroke:rgb(39.99939%,39.99939%,39.99939%);stroke-opacity:1;stroke-miterlimit:3.239307;" d="M 277.417969 100.351562 L 283.082031 100.742188 L 282.71875 105.039062 L 276.945312 104.566406 Z M 277.417969 100.351562 " transform="matrix(1,0,0,1,-74,-13)"/>
<path style="fill-rule:nonzero;fill:rgb(39.99939%,39.99939%,39.99939%);fill-opacity:1;stroke-width:0.03;stroke-linecap:square;stroke-linejoin:miter;stroke:rgb(39.99939%,39.99939%,39.99939%);stroke-opacity:1;stroke-miterlimit:3.239307;" d="M 285.511719 87.621094 L 291.167969 88.011719 L 290.859375 92.277344 L 285.066406 91.816406 Z M 285.511719 87.621094 " transform="matrix(1,0,0,1,-74,-13)"/>
<path style="fill-rule:nonzero;fill:rgb(39.99939%,39.99939%,39.99939%);fill-opacity:1;stroke-width:0.03;stroke-linecap:square;stroke-linejoin:miter;stroke:rgb(39.99939%,39.99939%,39.99939%);stroke-opacity:1;stroke-miterlimit:3.239307;" d="M 304.121094 98.484375 L 309.777344 98.875 L 309.40625 103.179688 L 303.632812 102.703125 Z M 304.121094 98.484375 " transform="matrix(1,0,0,1,-74,-13)"/>
<path style="fill-rule:nonzero;fill:rgb(39.99939%,39.99939%,39.99939%);fill-opacity:1;stroke-width:0.03;stroke-linecap:square;stroke-linejoin:miter;stroke:rgb(39.99939%,39.99939%,39.99939%);stroke-opacity:1;stroke-miterlimit:3.239307;" d="M 305.148438 91.101562 L 310.816406 91.488281 L 310.46875 95.777344 L 304.691406 95.304688 Z M 305.148438 91.101562 " transform="matrix(1,0,0,1,-74,-13)"/>
<path style="fill-rule:nonzero;fill:rgb(39.99939%,39.99939%,39.99939%);fill-opacity:1;stroke-width:0.03;stroke-linecap:square;stroke-linejoin:miter;stroke:rgb(39.99939%,39.99939%,39.99939%);stroke-opacity:1;stroke-miterlimit:3.239307;" d="M 288.277344 114.191406 L 293.925781 114.589844 L 293.53125 118.90625 L 287.769531 118.429688 Z M 288.277344 114.191406 " transform="matrix(1,0,0,1,-74,-13)"/>
<path style="fill-rule:nonzero;fill:rgb(39.99939%,39.99939%,39.99939%);fill-opacity:1;stroke-width:0.03;stroke-linecap:square;stroke-linejoin:miter;stroke:rgb(39.99939%,39.99939%,39.99939%);stroke-opacity:1;stroke-miterlimit:3.239307;" d="M 288.652344 108.621094 L 294.304688 109.015625 L 293.921875 113.328125 L 288.152344 112.851562 Z M 288.652344 108.621094 " transform="matrix(1,0,0,1,-74,-13)"/>
<path style="fill-rule:nonzero;fill:rgb(39.99939%,39.99939%,39.99939%);fill-opacity:1;stroke-width:0.03;stroke-linecap:square;stroke-linejoin:miter;stroke:rgb(39.99939%,39.99939%,39.99939%);stroke-opacity:1;stroke-miterlimit:3.239307;" d="M 313.851562 90.171875 L 304.625 125.171875 L 286.09375 119.804688 L 267.453125 114.285156 L 276.308594 81.765625 Z M 313.851562 90.171875 " transform="matrix(1,0,0,1,-74,-13)"/>
<path style="fill-rule:nonzero;fill:rgb(39.99939%,39.99939%,39.99939%);fill-opacity:1;stroke-width:0.03;stroke-linecap:square;stroke-linejoin:miter;stroke:rgb(39.99939%,39.99939%,39.99939%);stroke-opacity:1;stroke-miterlimit:3.239307;" d="M 289.011719 103.351562 L 294.667969 103.746094 L 294.292969 108.050781 L 288.523438 107.574219 Z M 289.011719 103.351562 " transform="matrix(1,0,0,1,-74,-13)"/>
<path style="fill-rule:nonzero;fill:rgb(39.99939%,39.99939%,39.99939%);fill-opacity:1;stroke-width:0.03;stroke-linecap:square;stroke-linejoin:miter;stroke:rgb(39.99939%,39.99939%,39.99939%);stroke-opacity:1;stroke-miterlimit:3.239307;" d="M 277.992188 157.851562 L 297.28125 160.761719 L 283.359375 213.035156 L 279.984375 229.574219 L 257.644531 224.640625 L 260.996094 212.992188 L 269.300781 184.691406 Z M 277.992188 157.851562 " transform="matrix(1,0,0,1,-74,-13)"/>
<path style="fill-rule:nonzero;fill:rgb(39.99939%,39.99939%,39.99939%);fill-opacity:1;stroke-width:0.03;stroke-linecap:square;stroke-linejoin:miter;stroke:rgb(39.99939%,39.99939%,39.99939%);stroke-opacity:1;stroke-miterlimit:3.239307;" d="M 254.578125 154.4375 L 277.113281 157.511719 L 268.148438 184.761719 L 259.992188 212.808594 L 249.0625 211.25 L 238.726562 209.371094 L 245 180.105469 Z M 254.578125 154.4375 " transform="matrix(1,0,0,1,-74,-13)"/>
<path style="fill-rule:nonzero;fill:rgb(39.99939%,39.99939%,39.99939%);fill-opacity:1;stroke-width:0.03;stroke-linecap:square;stroke-linejoin:miter;stroke:rgb(39.99939%,39.99939%,39.99939%);stroke-opacity:1;stroke-miterlimit:3.239307;" d="M 217.546875 201.761719 L 236.589844 203.964844 L 237.972656 207.6875 L 234.496094 220.078125 L 233.535156 220.253906 L 230.023438 219.265625 L 225.449219 235.222656 L 229.929688 236.664062 L 230.945312 238.785156 L 233.375 240.527344 L 231.210938 250.90625 L 208.660156 247.152344 Z M 217.546875 201.761719 " transform="matrix(1,0,0,1,-74,-13)"/>
<path style="fill-rule:nonzero;fill:rgb(39.99939%,39.99939%,39.99939%);fill-opacity:1;stroke-width:0.03;stroke-linecap:square;stroke-linejoin:miter;stroke:rgb(39.99939%,39.99939%,39.99939%);stroke-opacity:1;stroke-miterlimit:3.239307;" d="M 169.234375 154.503906 L 222.597656 171.640625 L 215.679688 201.046875 L 207.085938 245.101562 L 187.617188 241.222656 L 187.46875 242.222656 L 187.324219 243.226562 L 206.800781 247.058594 L 206.136719 250.441406 L 145.203125 239.480469 L 157.699219 192.984375 Z M 169.234375 154.503906 " transform="matrix(1,0,0,1,-74,-13)"/>
<path style="fill-rule:nonzero;fill:rgb(39.99939%,39.99939%,39.99939%);fill-opacity:1;stroke-width:0.03;stroke-linecap:square;stroke-linejoin:miter;stroke:rgb(39.99939%,39.99939%,39.99939%);stroke-opacity:1;stroke-miterlimit:3.239307;" d="M 177.21875 130.003906 L 206.242188 139.613281 L 198.542969 162.0625 L 169.933594 152.769531 Z M 177.21875 130.003906 " transform="matrix(1,0,0,1,-74,-13)"/>
<path style="fill-rule:nonzero;fill:rgb(39.99939%,39.99939%,39.99939%);fill-opacity:1;stroke-width:0.03;stroke-linecap:square;stroke-linejoin:miter;stroke:rgb(39.99939%,39.99939%,39.99939%);stroke-opacity:1;stroke-miterlimit:3.239307;" d="M 217.722656 261.054688 L 223.515625 261.808594 L 222 270.734375 L 216.210938 269.914062 Z M 217.722656 261.054688 " transform="matrix(1,0,0,1,-74,-13)"/>
<path style="fill-rule:nonzero;fill:rgb(39.99939%,39.99939%,39.99939%);fill-opacity:1;stroke-width:0.03;stroke-linecap:square;stroke-linejoin:miter;stroke:rgb(39.99939%,39.99939%,39.99939%);stroke-opacity:1;stroke-miterlimit:3.239307;" d="M 211.867188 271.644531 L 218.050781 271.839844 L 217.6875 283.105469 L 211.351562 282.800781 Z M 211.867188 271.644531 " transform="matrix(1,0,0,1,-74,-13)"/>
<path style="fill-rule:nonzero;fill:rgb(39.99939%,39.99939%,39.99939%);fill-opacity:1;stroke-width:0.03;stroke-linecap:square;stroke-linejoin:miter;stroke:rgb(39.99939%,39.99939%,39.99939%);stroke-opacity:1;stroke-miterlimit:3.239307;" d="M 226.015625 287.582031 L 240.707031 289.355469 L 242.378906 292.042969 L 235.707031 318.054688 L 230.4375 317.421875 L 197.566406 313.046875 L 202.757812 284.308594 L 224.867188 287.359375 L 220.046875 307.488281 L 220.75 307.691406 L 221.453125 307.898438 Z M 226.015625 287.582031 " transform="matrix(1,0,0,1,-74,-13)"/>
<path style="fill-rule:nonzero;fill:rgb(39.99939%,39.99939%,39.99939%);fill-opacity:1;stroke-width:0.03;stroke-linecap:square;stroke-linejoin:miter;stroke:rgb(39.99939%,39.99939%,39.99939%);stroke-opacity:1;stroke-miterlimit:3.239307;" d="M 202.890625 281.285156 L 208.316406 248.480469 L 231.03125 252.027344 L 229.902344 256.769531 L 220.421875 256.132812 L 220.355469 256.695312 L 220.292969 257.257812 L 229.828125 257.726562 L 225.519531 286.242188 L 204.773438 283.355469 Z M 202.890625 281.285156 " transform="matrix(1,0,0,1,-74,-13)"/>
<path style="fill-rule:nonzero;fill:rgb(39.99939%,39.99939%,39.99939%);fill-opacity:1;stroke-width:0.03;stroke-linecap:square;stroke-linejoin:miter;stroke:rgb(39.99939%,39.99939%,39.99939%);stroke-opacity:1;stroke-miterlimit:3.239307;" d="M 249.214844 257.152344 L 232.246094 252.871094 L 234.976562 240.410156 L 232.078125 238.332031 L 230.382812 235.625 L 234.125 221.308594 L 235.628906 221.484375 L 238.546875 210.027344 L 248.34375 211.738281 L 245.335938 222.328125 L 245.824219 222.445312 L 246.316406 222.5625 L 249.511719 212.03125 L 259.746094 213.476562 L 256.648438 224.238281 L 256.972656 226.003906 L 256.292969 228.539062 L 253.128906 235.492188 L 251.328125 243.171875 L 250.738281 250.132812 Z M 249.214844 257.152344 " transform="matrix(1,0,0,1,-74,-13)"/>
<path style="fill-rule:nonzero;fill:rgb(39.99939%,39.99939%,39.99939%);fill-opacity:1;stroke-width:0.03;stroke-linecap:square;stroke-linejoin:miter;stroke:rgb(39.99939%,39.99939%,39.99939%);stroke-opacity:1;stroke-miterlimit:3.239307;" d="M 207.511719 139.976562 L 253.214844 154.710938 L 243.554688 180.066406 L 238.8125 203.023438 L 217.722656 200.660156 L 224.542969 171.882812 L 234.152344 174.371094 L 234.558594 173.019531 L 225.085938 170.144531 L 199.523438 162.386719 Z M 207.511719 139.976562 " transform="matrix(1,0,0,1,-74,-13)"/>
<path style=" stroke:none;fill-rule:evenodd;fill:rgb(85.096741%,85.096741%,81.959534%);fill-opacity:0.7;" d="M 284.695312 343 C 284.695312 339.101562 283.148438 335.363281 280.390625 332.609375 C 277.636719 329.851562 273.898438 328.304688 270 328.304688 C 266.101562 328.304688 262.363281 329.851562 259.609375 332.609375 C 256.851562 335.363281 255.304688 339.101562 255.304688 343 C 255.304688 346.898438 256.851562 350.636719 259.609375 353.390625 C 262.363281 356.148438 266.101562 357.695312 270 357.695312 C 273.898438 357.695312 277.636719 356.148438 280.390625 353.390625 C 283.148438 350.636719 284.695312 346.898438 284.695312 343 Z M 284.695312 343 "/>
<path style=" stroke:none;fill-rule:evenodd;fill:rgb(85.096741%,85.096741%,81.959534%);fill-opacity:0.7;" d="M 290.695312 300 C 290.695312 296.101562 289.148438 292.363281 286.390625 289.609375 C 283.636719 286.851562 279.898438 285.304688 276 285.304688 C 272.101562 285.304688 268.363281 286.851562 265.609375 289.609375 C 262.851562 292.363281 261.304688 296.101562 261.304688 300 C 261.304688 303.898438 262.851562 307.636719 265.609375 310.390625 C 268.363281 313.148438 272.101562 314.695312 276 314.695312 C 279.898438 314.695312 283.636719 313.148438 286.390625 310.390625 C 289.148438 307.636719 290.695312 303.898438 290.695312 300 Z M 290.695312 300 "/>
<path style=" stroke:none;fill-rule:evenodd;fill:rgb(85.096741%,85.096741%,81.959534%);fill-opacity:0.7;" d="M 83.695312 293 C 83.695312 289.101562 82.148438 285.363281 79.390625 282.609375 C 76.636719 279.851562 72.898438 278.304688 69 278.304688 C 65.101562 278.304688 61.363281 279.851562 58.609375 282.609375 C 55.851562 285.363281 54.304688 289.101562 54.304688 293 C 54.304688 296.898438 55.851562 300.636719 58.609375 303.390625 C 61.363281 306.148438 65.101562 307.695312 69 307.695312 C 72.898438 307.695312 76.636719 306.148438 79.390625 303.390625 C 82.148438 300.636719 83.695312 296.898438 83.695312 293 Z M 83.695312 293 "/>
<path style=" stroke:none;fill-rule:evenodd;fill:rgb(85.096741%,85.096741%,81.959534%);fill-opacity:0.7;" d="M 141.695312 257 C 141.695312 253.101562 140.148438 249.363281 137.390625 246.609375 C 134.636719 243.851562 130.898438 242.304688 127 242.304688 C 123.101562 242.304688 119.363281 243.851562 116.609375 246.609375 C 113.851562 249.363281 112.304688 253.101562 112.304688 257 C 112.304688 260.898438 113.851562 264.636719 116.609375 267.390625 C 119.363281 270.148438 123.101562 271.695312 127 271.695312 C 130.898438 271.695312 134.636719 270.148438 137.390625 267.390625 C 140.148438 264.636719 141.695312 260.898438 141.695312 257 Z M 141.695312 257 "/>
<path style=" stroke:none;fill-rule:evenodd;fill:rgb(85.096741%,85.096741%,81.959534%);fill-opacity:0.7;" d="M 0.695312 204 C 0.695312 200.101562 -0.851562 196.363281 -3.609375 193.609375 C -6.363281 190.851562 -10.101562 189.304688 -14 189.304688 C -17.898438 189.304688 -21.636719 190.851562 -24.390625 193.609375 C -27.148438 196.363281 -28.695312 200.101562 -28.695312 204 C -28.695312 207.898438 -27.148438 211.636719 -24.390625 214.390625 C -21.636719 217.148438 -17.898438 218.695312 -14 218.695312 C -10.101562 218.695312 -6.363281 217.148438 -3.609375 214.390625 C -0.851562 211.636719 0.695312 207.898438 0.695312 204 Z M 0.695312 204 "/>
<path style=" stroke:none;fill-rule:evenodd;fill:rgb(85.096741%,85.096741%,81.959534%);fill-opacity:0.7;" d="M 314.695312 199 C 314.695312 195.101562 313.148438 191.363281 310.390625 188.609375 C 307.636719 185.851562 303.898438 184.304688 300 184.304688 C 296.101562 184.304688 292.363281 185.851562 289.609375 188.609375 C 286.851562 191.363281 285.304688 195.101562 285.304688 199 C 285.304688 202.898438 286.851562 206.636719 289.609375 209.390625 C 292.363281 212.148438 296.101562 213.695312 300 213.695312 C 303.898438 213.695312 307.636719 212.148438 310.390625 209.390625 C 313.148438 206.636719 314.695312 202.898438 314.695312 199 Z M 314.695312 199 "/>
<path style=" stroke:none;fill-rule:evenodd;fill:rgb(85.096741%,85.096741%,81.959534%);fill-opacity:0.7;" d="M 75.695312 177 C 75.695312 173.101562 74.148438 169.363281 71.390625 166.609375 C 68.636719 163.851562 64.898438 162.304688 61 162.304688 C 57.101562 162.304688 53.363281 163.851562 50.609375 166.609375 C 47.851562 169.363281 46.304688 173.101562 46.304688 177 C 46.304688 180.898438 47.851562 184.636719 50.609375 187.390625 C 53.363281 190.148438 57.101562 191.695312 61 191.695312 C 64.898438 191.695312 68.636719 190.148438 71.390625 187.390625 C 74.148438 184.636719 75.695312 180.898438 75.695312 177 Z M 75.695312 177 "/>
<path style=" stroke:none;fill-rule:evenodd;fill:rgb(85.096741%,85.096741%,81.959534%);fill-opacity:0.7;" d="M 79.695312 176 C 79.695312 172.101562 78.148438 168.363281 75.390625 165.609375 C 72.636719 162.851562 68.898438 161.304688 65 161.304688 C 61.101562 161.304688 57.363281 162.851562 54.609375 165.609375 C 51.851562 168.363281 50.304688 172.101562 50.304688 176 C 50.304688 179.898438 51.851562 183.636719 54.609375 186.390625 C 57.363281 189.148438 61.101562 190.695312 65 190.695312 C 68.898438 190.695312 72.636719 189.148438 75.390625 186.390625 C 78.148438 183.636719 79.695312 179.898438 79.695312 176 Z M 79.695312 176 "/>
<path style=" stroke:none;fill-rule:evenodd;fill:rgb(85.096741%,85.096741%,81.959534%);fill-opacity:0.7;" d="M 171.695312 123 C 171.695312 119.101562 170.148438 115.363281 167.390625 112.609375 C 164.636719 109.851562 160.898438 108.304688 157 108.304688 C 153.101562 108.304688 149.363281 109.851562 146.609375 112.609375 C 143.851562 115.363281 142.304688 119.101562 142.304688 123 C 142.304688 126.898438 143.851562 130.636719 146.609375 133.390625 C 149.363281 136.148438 153.101562 137.695312 157 137.695312 C 160.898438 137.695312 164.636719 136.148438 167.390625 133.390625 C 170.148438 130.636719 171.695312 126.898438 171.695312 123 Z M 171.695312 123 "/>
<path style=" stroke:none;fill-rule:evenodd;fill:rgb(85.096741%,85.096741%,81.959534%);fill-opacity:0.7;" d="M 235.695312 110 C 235.695312 106.101562 234.148438 102.363281 231.390625 99.609375 C 228.636719 96.851562 224.898438 95.304688 221 95.304688 C 217.101562 95.304688 213.363281 96.851562 210.609375 99.609375 C 207.851562 102.363281 206.304688 106.101562 206.304688 110 C 206.304688 113.898438 207.851562 117.636719 210.609375 120.390625 C 213.363281 123.148438 217.101562 124.695312 221 124.695312 C 224.898438 124.695312 228.636719 123.148438 231.390625 120.390625 C 234.148438 117.636719 235.695312 113.898438 235.695312 110 Z M 235.695312 110 "/>
<path style=" stroke:none;fill-rule:evenodd;fill:rgb(85.096741%,85.096741%,81.959534%);fill-opacity:0.7;" d="M 115.695312 44 C 115.695312 40.101562 114.148438 36.363281 111.390625 33.609375 C 108.636719 30.851562 104.898438 29.304688 101 29.304688 C 97.101562 29.304688 93.363281 30.851562 90.609375 33.609375 C 87.851562 36.363281 86.304688 40.101562 86.304688 44 C 86.304688 47.898438 87.851562 51.636719 90.609375 54.390625 C 93.363281 57.148438 97.101562 58.695312 101 58.695312 C 104.898438 58.695312 108.636719 57.148438 111.390625 54.390625 C 114.148438 51.636719 115.695312 47.898438 115.695312 44 Z M 115.695312 44 "/>
<path style=" stroke:none;fill-rule:evenodd;fill:rgb(85.096741%,85.096741%,81.959534%);fill-opacity:0.7;" d="M 138.695312 14 C 138.695312 10.101562 137.148438 6.363281 134.390625 3.609375 C 131.636719 0.851562 127.898438 -0.695312 124 -0.695312 C 120.101562 -0.695312 116.363281 0.851562 113.609375 3.609375 C 110.851562 6.363281 109.304688 10.101562 109.304688 14 C 109.304688 17.898438 110.851562 21.636719 113.609375 24.390625 C 116.363281 27.148438 120.101562 28.695312 124 28.695312 C 127.898438 28.695312 131.636719 27.148438 134.390625 24.390625 C 137.148438 21.636719 138.695312 17.898438 138.695312 14 Z M 138.695312 14 "/>
<path style=" stroke:none;fill-rule:evenodd;fill:rgb(85.096741%,85.096741%,81.959534%);fill-opacity:0.7;" d="M 54.695312 9 C 54.695312 5.101562 53.148438 1.363281 50.390625 -1.390625 C 47.636719 -4.148438 43.898438 -5.695312 40 -5.695312 C 36.101562 -5.695312 32.363281 -4.148438 29.609375 -1.390625 C 26.851562 1.363281 25.304688 5.101562 25.304688 9 C 25.304688 12.898438 26.851562 16.636719 29.609375 19.390625 C 32.363281 22.148438 36.101562 23.695312 40 23.695312 C 43.898438 23.695312 47.636719 22.148438 50.390625 19.390625 C 53.148438 16.636719 54.695312 12.898438 54.695312 9 Z M 54.695312 9 "/>
<path style=" stroke:none;fill-rule:evenodd;fill:rgb(85.096741%,85.096741%,81.959534%);fill-opacity:0.7;" d="M 287.695312 -6 C 287.695312 -9.898438 286.148438 -13.636719 283.390625 -16.390625 C 280.636719 -19.148438 276.898438 -20.695312 273 -20.695312 C 269.101562 -20.695312 265.363281 -19.148438 262.609375 -16.390625 C 259.851562 -13.636719 258.304688 -9.898438 258.304688 -6 C 258.304688 -2.101562 259.851562 1.636719 262.609375 4.390625 C 265.363281 7.148438 269.101562 8.695312 273 8.695312 C 276.898438 8.695312 280.636719 7.148438 283.390625 4.390625 C 286.148438 1.636719 287.695312 -2.101562 287.695312 -6 Z M 287.695312 -6 "/>
<path style=" stroke:none;fill-rule:evenodd;fill:rgb(85.096741%,85.096741%,81.959534%);fill-opacity:0.7;" d="M 20.695312 57 C 20.695312 53.101562 19.148438 49.363281 16.390625 46.609375 C 13.636719 43.851562 9.898438 42.304688 6 42.304688 C 2.101562 42.304688 -1.636719 43.851562 -4.390625 46.609375 C -7.148438 49.363281 -8.695312 53.101562 -8.695312 57 C -8.695312 60.898438 -7.148438 64.636719 -4.390625 67.390625 C -1.636719 70.148438 2.101562 71.695312 6 71.695312 C 9.898438 71.695312 13.636719 70.148438 16.390625 67.390625 C 19.148438 64.636719 20.695312 60.898438 20.695312 57 Z M 20.695312 57 "/>
<path style="fill-rule:nonzero;fill:rgb(99.998474%,99.998474%,30.587769%);fill-opacity:0.8;stroke-width:0.288;stroke-linecap:square;stroke-linejoin:miter;stroke:rgb(0%,0%,0%);stroke-opacity:0.8;stroke-miterlimit:3.25;" d="M 141.671875 -14.414062 L 109.855469 40.691406 L 173.484375 40.691406 Z M 141.671875 -14.414062 " transform="matrix(1,0,0,1,-74,-13)"/>
<g clip-path="url(#clip24)" clip-rule="nonzero">
<path style=" stroke:none;fill-rule:nonzero;fill:rgb(99.998474%,99.998474%,30.587769%);fill-opacity:0.8;" d="M 196.25 321.589844 L 164.433594 376.695312 L 228.066406 376.695312 Z M 196.25 321.589844 "/>
</g>
<g clip-path="url(#clip25)" clip-rule="nonzero">
<path style="fill:none;stroke-width:0.288;stroke-linecap:square;stroke-linejoin:miter;stroke:rgb(0%,0%,0%);stroke-opacity:0.8;stroke-miterlimit:3.25;" d="M 270.25 334.589844 L 238.433594 389.695312 L 302.066406 389.695312 Z M 270.25 334.589844 " transform="matrix(1,0,0,1,-74,-13)"/>
</g>
</g>
</svg>
