<?xml version="1.0" encoding="UTF-8"?>
<svg xmlns="http://www.w3.org/2000/svg" xmlns:xlink="http://www.w3.org/1999/xlink" width="361pt" height="361pt" viewBox="0 0 361 361" version="1.1">
<defs>
<clipPath id="clip1">
  <path d="M 272 0 L 360 0 L 360 203 L 272 203 Z M 272 0 "/>
</clipPath>
<clipPath id="clip2">
  <path d="M 221 324 L 271 324 L 271 360 L 221 360 Z M 221 324 "/>
</clipPath>
<clipPath id="clip3">
  <path d="M 219 343 L 232 343 L 232 360 L 219 360 Z M 219 343 "/>
</clipPath>
<clipPath id="clip4">
  <path d="M 220 309 L 360 309 L 360 360 L 220 360 Z M 220 309 "/>
</clipPath>
<clipPath id="clip5">
  <path d="M 0 312 L 16 312 L 16 360 L 0 360 Z M 0 312 "/>
</clipPath>
<clipPath id="clip6">
  <path d="M 10 313 L 51 313 L 51 360 L 10 360 Z M 10 313 "/>
</clipPath>
<clipPath id="clip7">
  <path d="M 54 311 L 100 311 L 100 360 L 54 360 Z M 54 311 "/>
</clipPath>
<clipPath id="clip8">
  <path d="M 107 342 L 142 342 L 142 360 L 107 360 Z M 107 342 "/>
</clipPath>
<clipPath id="clip9">
  <path d="M 142 342 L 231 342 L 231 360 L 142 360 Z M 142 342 "/>
</clipPath>
<clipPath id="clip10">
  <path d="M 45 314 L 53 314 L 53 360 L 45 360 Z M 45 314 "/>
</clipPath>
<clipPath id="clip11">
  <path d="M 334 159 L 360 159 L 360 353 L 334 353 Z M 334 159 "/>
</clipPath>
</defs>
<g id="surface1953">
<path style="fill-rule:nonzero;fill:rgb(0%,0%,0%);fill-opacity:1;stroke-width:0.03;stroke-linecap:square;stroke-linejoin:miter;stroke:rgb(0%,0%,0%);stroke-opacity:1;stroke-miterlimit:10;" d="M 0 178 L 360 178 L 360 -182 L 0 -182 Z M 0 178 " transform="matrix(1,0,0,1,0,182)"/>
<path style=" stroke:none;fill-rule:nonzero;fill:rgb(39.99939%,39.99939%,39.99939%);fill-opacity:0.3;" d="M -49.707031 -86.832031 L -19.539062 -77.980469 L -16.597656 -76.78125 L 12.21875 -74.261719 L 61.203125 -72.085938 L 80.402344 -71.363281 L 68.386719 35.328125 L -68.84375 -21.726562 Z M -49.707031 -86.832031 "/>
<path style=" stroke:none;fill-rule:nonzero;fill:rgb(39.99939%,39.99939%,39.99939%);fill-opacity:0.3;" d="M 196.953125 35.199219 L 193.628906 85.511719 L 91.699219 45.109375 L 94.507812 7.636719 L 117.816406 8.777344 L 116.757812 28.355469 Z M 196.953125 35.199219 "/>
<path style=" stroke:none;fill-rule:nonzero;fill:rgb(39.99939%,39.99939%,39.99939%);fill-opacity:0.3;" d="M 108.578125 3.109375 L 110.730469 -19.875 L 115.113281 -19.46875 L 114.84375 -16.585938 L 118.457031 -16.25 L 118.726562 -19.132812 L 123.105469 -18.726562 L 120.957031 4.257812 L 116.574219 3.851562 L 116.84375 0.96875 L 113.230469 0.632812 L 112.960938 3.515625 Z M 108.578125 3.109375 "/>
<path style=" stroke:none;fill-rule:nonzero;fill:rgb(39.99939%,39.99939%,39.99939%);fill-opacity:0.3;" d="M 185.109375 1.664062 L 190.019531 2.066406 L 189.761719 5.441406 L 192.484375 5.589844 L 192.738281 2.261719 L 196.980469 2.503906 L 196 13.628906 L 191.707031 13.484375 L 191.859375 11.101562 L 189.398438 10.957031 L 189.246094 13.289062 L 184.101562 12.914062 Z M 185.109375 1.664062 "/>
<path style=" stroke:none;fill-rule:nonzero;fill:rgb(39.99939%,39.99939%,39.99939%);fill-opacity:0.3;" d="M 182.789062 17.433594 L 188.167969 17.761719 L 187.925781 21.972656 L 190.28125 22.101562 L 190.519531 17.90625 L 196.867188 18.292969 L 195.925781 32.226562 L 189.714844 31.847656 L 189.90625 28.519531 L 187.550781 28.394531 L 187.429688 31.632812 L 181.847656 31.367188 Z M 182.789062 17.433594 "/>
<path style=" stroke:none;fill-rule:nonzero;fill:rgb(39.99939%,39.99939%,39.99939%);fill-opacity:0.3;" d="M 160.984375 16.515625 L 174.933594 16.886719 L 174.910156 24.183594 L 160.644531 23.824219 Z M 160.984375 16.515625 "/>
<path style=" stroke:none;fill-rule:nonzero;fill:rgb(39.99939%,39.99939%,39.99939%);fill-opacity:0.3;" d="M 128.042969 13.417969 L 142.097656 14.546875 L 140.859375 28.457031 L 126.804688 27.332031 Z M 128.042969 13.417969 "/>
<path style=" stroke:none;fill-rule:nonzero;fill:rgb(39.99939%,39.99939%,39.99939%);fill-opacity:0.3;" d="M 160.4375 6.800781 L 161.636719 -16.246094 L 167.144531 -15.960938 L 167.082031 -12.972656 L 169.507812 -12.910156 L 169.65625 -15.800781 L 176.046875 -15.722656 L 175.054688 7.550781 L 168.457031 7.246094 L 168.609375 4.355469 L 165.945312 4.285156 L 165.886719 7.148438 Z M 160.4375 6.800781 "/>
<path style=" stroke:none;fill-rule:nonzero;fill:rgb(39.99939%,39.99939%,39.99939%);fill-opacity:0.3;" d="M 208.789062 90.890625 L 207.730469 90.472656 L 211.652344 47.59375 L 212.253906 47.597656 Z M 208.789062 90.890625 "/>
<path style=" stroke:none;fill-rule:nonzero;fill:rgb(39.99939%,39.99939%,39.99939%);fill-opacity:0.3;" d="M 212.640625 42.753906 L 211.730469 42.753906 L 217.59375 -19.1875 L 218.265625 -19.148438 L 214.082031 26.863281 L 212.660156 42.523438 Z M 212.640625 42.753906 "/>
<path style=" stroke:none;fill-rule:nonzero;fill:rgb(39.99939%,39.99939%,39.99939%);fill-opacity:0.3;" d="M 131.917969 -2.234375 L 144.710938 -1.320312 L 143.75 10.832031 L 130.953125 9.914062 Z M 131.917969 -2.234375 "/>
<path style=" stroke:none;fill-rule:nonzero;fill:rgb(39.99939%,39.99939%,39.99939%);fill-opacity:0.3;" d="M 243.269531 -19.246094 L 244.1875 -31.640625 L 241.363281 -31.6875 L 238.761719 -31.726562 L 237.945312 -21.253906 L 218.578125 -22.207031 L 220.488281 -40.050781 L 223.117188 -73.578125 L 242.632812 -72.832031 L 241.9375 -61.863281 L 245.914062 -61.777344 L 247.53125 -87.445312 L 243.554688 -87.53125 L 242.839844 -75.933594 L 223.394531 -77.046875 L 230.453125 -159.640625 L 241.535156 -158.601562 L 248.722656 -157.355469 L 247.265625 -121.921875 L 249.179688 -121.761719 L 251.800781 -121.539062 L 252.859375 -156.945312 L 282.890625 -152.230469 L 272.636719 -36.921875 L 255.386719 19.625 L 258.199219 20.390625 L 261.429688 21.269531 L 279.257812 -36.425781 L 290.25 -150.820312 L 325.726562 -146.199219 L 316.429688 -112.082031 L 318.824219 -111.332031 L 321.550781 -110.484375 L 332.171875 -145.585938 L 344.347656 -144.589844 L 318.335938 -61.691406 L 307.242188 -65.46875 L 320.898438 -107.796875 L 318.179688 -108.414062 L 315.457031 -109.03125 L 294.300781 -44.898438 L 297.066406 -44.039062 L 299.871094 -43.167969 L 305.507812 -61.339844 L 316.613281 -57.507812 L 302.085938 -7.15625 L 292.070312 -10.242188 L 298.574219 -32.335938 L 295.921875 -33.167969 L 293.347656 -33.980469 L 280.5625 8.761719 L 282.707031 9.335938 L 284.855469 9.914062 L 290.648438 -6.792969 L 301.246094 -3.347656 L 287.554688 45.304688 L 276.777344 41.027344 L 283.113281 22.667969 L 280.253906 21.699219 L 277.742188 20.847656 L 265.597656 54.507812 L 270.800781 56.484375 L 275.757812 43.402344 L 286.910156 47.679688 L 269.425781 106.773438 L 263.160156 112.355469 L 241.414062 103.773438 L 245.367188 86.804688 L 243.410156 86.496094 L 241.453125 86.191406 L 237.503906 102.226562 L 208.789062 90.890625 L 212.253906 47.597656 L 236.417969 47.765625 L 235.800781 55.175781 L 249.199219 55.800781 L 252.636719 27.894531 L 247.636719 27.601562 L 248.25 17.230469 L 233.777344 16.46875 L 231.71875 36.804688 L 237.339844 37.097656 L 236.722656 42.726562 L 212.640625 42.753906 L 212.660156 42.523438 L 214.082031 26.863281 L 218.265625 -19.148438 L 237.6875 -17.949219 L 236.855469 -7.28125 L 239.691406 -7.175781 L 242.367188 -7.074219 Z M 243.269531 -19.246094 "/>
<g clip-path="url(#clip1)" clip-rule="nonzero">
<path style=" stroke:none;fill-rule:nonzero;fill:rgb(39.99939%,39.99939%,39.99939%);fill-opacity:0.3;" d="M 570.59375 202.226562 L 478.753906 179.03125 L 425.328125 163.800781 L 272.179688 116.4375 L 349.363281 -144.671875 L 365.265625 -143.5625 L 404.855469 -138.285156 L 444.007812 -134.726562 L 459.667969 -136.148438 L 462.234375 -136.789062 L 468.460938 -136.355469 L 477.363281 -137.066406 L 483.667969 -138.480469 L 519.429688 -137.191406 L 515.902344 -121.910156 L 517.328125 -118.351562 L 542.953125 -115.503906 L 537.96875 -111.234375 L 526.582031 -34.355469 L 559.324219 -30.796875 L 591.359375 -27.238281 L 587.085938 -13 L 605.097656 -11.664062 L 595.371094 48.851562 L 590.121094 76.132812 Z M 570.59375 202.226562 "/>
</g>
<g clip-path="url(#clip2)" clip-rule="nonzero">
<path style=" stroke:none;fill-rule:nonzero;fill:rgb(39.99939%,39.99939%,39.99939%);fill-opacity:0.3;" d="M 221.421875 327.691406 L 233.171875 324.859375 L 265.957031 399.652344 L 270.09375 409.640625 L 257.40625 413.675781 Z M 221.421875 327.691406 "/>
</g>
<g clip-path="url(#clip3)" clip-rule="nonzero">
<path style=" stroke:none;fill-rule:nonzero;fill:rgb(39.99939%,39.99939%,39.99939%);fill-opacity:0.3;" d="M 219.085938 343.140625 L 219.332031 343.140625 L 231.839844 368.703125 L 230.445312 368.699219 Z M 219.085938 343.140625 "/>
</g>
<path style=" stroke:none;fill-rule:nonzero;fill:rgb(39.99939%,39.99939%,39.99939%);fill-opacity:0.3;" d="M 218.4375 340.949219 L 218.53125 341.203125 L 218.398438 341.203125 Z M 218.4375 340.949219 "/>
<g clip-path="url(#clip4)" clip-rule="nonzero">
<path style=" stroke:none;fill-rule:nonzero;fill:rgb(39.99939%,39.99939%,39.99939%);fill-opacity:0.3;" d="M 233.191406 324.816406 L 221.304688 327.558594 L 220.464844 327.609375 L 223.285156 309.097656 L 357.269531 309.398438 L 391.792969 378.125 L 265.621094 398.019531 Z M 233.191406 324.816406 "/>
</g>
<path style=" stroke:none;fill-rule:nonzero;fill:rgb(39.99939%,39.99939%,39.99939%);fill-opacity:0.3;" d="M -11.195312 192.941406 L -22.304688 192.628906 L -20.386719 110.160156 L -8.164062 110.890625 L -8.054688 108.265625 L -7.945312 105.636719 L -20.390625 104.730469 L -18.128906 18.09375 L 61.371094 51.429688 L 62.460938 53.199219 L 65.695312 58.136719 L 74.125 72.09375 L 65.359375 189.824219 L 63.171875 209.09375 L 51.429688 308.570312 L -99.796875 309.339844 L -87.738281 275.296875 L -89.875 236.144531 L -91.851562 200.527344 L -90.03125 201.210938 L -87.566406 264.167969 L -86.902344 274.167969 L -84.585938 277.917969 L -75.6875 280.097656 L -57.898438 280.082031 L -35.164062 279.125 L -28.90625 275.0625 L -26.757812 261.898438 L -22.316406 195.96875 L -12.921875 196.496094 L -11.195312 196.523438 L -11.144531 194.773438 Z M -11.195312 192.941406 "/>
<g clip-path="url(#clip5)" clip-rule="nonzero">
<path style=" stroke:none;fill-rule:nonzero;fill:rgb(39.99939%,39.99939%,39.99939%);fill-opacity:0.3;" d="M -16.457031 318.355469 L -15.59375 315.0625 L -13.984375 313.300781 L -12.5 312.828125 L 11.78125 312.925781 L 13.269531 313.75 L 14.507812 315.15625 L 15.128906 317.273438 L 15.128906 318.917969 L 6.308594 427.152344 L 5.847656 429.636719 L 5.015625 430.480469 L 3.28125 431.070312 L -23.035156 428.265625 L -24.027344 427.089844 L -24.339844 425.421875 Z M -16.457031 318.355469 "/>
</g>
<g clip-path="url(#clip6)" clip-rule="nonzero">
<path style=" stroke:none;fill-rule:nonzero;fill:rgb(39.99939%,39.99939%,39.99939%);fill-opacity:0.3;" d="M 19.820312 320.265625 L 20.960938 316.621094 L 23.101562 314.585938 L 25.832031 313.472656 L 48.257812 313.085938 L 50.601562 314.191406 L 50.84375 314.453125 L 45.675781 379.792969 L 40.125 430.074219 L 39.144531 432.03125 L 36.59375 433.335938 L 11.636719 431.585938 L 10.457031 430.28125 L 10.257812 428.136719 Z M 19.820312 320.265625 "/>
</g>
<g clip-path="url(#clip7)" clip-rule="nonzero">
<path style=" stroke:none;fill-rule:nonzero;fill:rgb(39.99939%,39.99939%,39.99939%);fill-opacity:0.3;" d="M 71.925781 311.785156 L 97.429688 311.390625 L 99.574219 372.390625 L 98.210938 409.621094 L 88.859375 497.417969 L 54.277344 510.066406 Z M 71.925781 311.785156 "/>
</g>
<g clip-path="url(#clip8)" clip-rule="nonzero">
<path style=" stroke:none;fill-rule:nonzero;fill:rgb(39.99939%,39.99939%,39.99939%);fill-opacity:0.3;" d="M 107.085938 342.867188 L 139.074219 342.945312 L 141.511719 426.121094 L 108.320312 427.730469 Z M 107.085938 342.867188 "/>
</g>
<g clip-path="url(#clip9)" clip-rule="nonzero">
<path style=" stroke:none;fill-rule:nonzero;fill:rgb(39.99939%,39.99939%,39.99939%);fill-opacity:0.3;" d="M 142.105469 342.949219 L 219.085938 343.140625 L 230.445312 368.699219 L 142.769531 368.574219 Z M 142.105469 342.949219 "/>
</g>
<path style=" stroke:none;fill-rule:nonzero;fill:rgb(39.99939%,39.99939%,39.99939%);fill-opacity:0.3;" d="M 102.636719 328.78125 L 213.714844 328.332031 L 218.4375 340.949219 L 218.398438 341.203125 L 102.558594 340.480469 Z M 102.636719 328.78125 "/>
<g clip-path="url(#clip10)" clip-rule="nonzero">
<path style=" stroke:none;fill-rule:nonzero;fill:rgb(39.99939%,39.99939%,39.99939%);fill-opacity:0.3;" d="M 50.84375 314.453125 L 52.164062 315.855469 L 52.460938 318.355469 L 45.675781 379.792969 Z M 50.84375 314.453125 "/>
</g>
<path style=" stroke:none;fill-rule:nonzero;fill:rgb(39.99939%,39.99939%,39.99939%);fill-opacity:0.3;" d="M 220.464844 327.609375 L 218.164062 327.753906 L 215.882812 327.894531 L 213.605469 328.035156 L 102.636719 328.402344 L 101.59375 308.824219 L 222.429688 309.09375 L 223.285156 309.097656 Z M 220.464844 327.609375 "/>
<path style=" stroke:none;fill-rule:nonzero;fill:rgb(39.99939%,39.99939%,39.99939%);fill-opacity:0.3;" d="M 310.789062 213.894531 L 323.75 230.945312 L 119.078125 229.398438 L 119.070312 230.449219 L 117.984375 230.449219 L 113.714844 216.925781 L 113.640625 212.992188 Z M 310.789062 213.894531 "/>
<path style=" stroke:none;fill-rule:nonzero;fill:rgb(39.99939%,39.99939%,39.99939%);fill-opacity:0.3;" d="M 110.933594 69.582031 L 272.171875 132.609375 L 296 183.15625 L 294.175781 207.253906 L 113.515625 206.554688 Z M 110.933594 69.582031 "/>
<path style=" stroke:none;fill-rule:nonzero;fill:rgb(39.99939%,39.99939%,39.99939%);fill-opacity:0.3;" d="M 278.53125 135.753906 L 341.511719 157.425781 L 330.121094 225.84375 Z M 278.53125 135.753906 "/>
<g clip-path="url(#clip11)" clip-rule="nonzero">
<path style=" stroke:none;fill-rule:nonzero;fill:rgb(39.99939%,39.99939%,39.99939%);fill-opacity:0.3;" d="M 347.507812 159.785156 L 419.746094 182.144531 L 389.792969 352.550781 L 334.855469 234.699219 Z M 347.507812 159.785156 "/>
</g>
<path style=" stroke:none;fill-rule:nonzero;fill:rgb(39.99939%,39.99939%,39.99939%);fill-opacity:0.3;" d="M 119.070312 230.449219 L 118.621094 305.503906 L 117.984375 305.503906 L 117.984375 230.449219 Z M 119.070312 230.449219 "/>
<path style=" stroke:none;fill-rule:nonzero;fill:rgb(39.99939%,39.99939%,39.99939%);fill-opacity:0.3;" d="M 353.535156 306.164062 L 332.808594 306.003906 L 332.453125 270.9375 Z M 353.535156 306.164062 "/>
<path style=" stroke:none;fill-rule:nonzero;fill:rgb(39.99939%,39.99939%,39.99939%);fill-opacity:0.3;" d="M 155.769531 232.148438 L 188.863281 232.414062 L 188.925781 305.703125 L 156.1875 305.609375 Z M 155.769531 232.148438 "/>
<path style=" stroke:none;fill-rule:nonzero;fill:rgb(39.99939%,39.99939%,39.99939%);fill-opacity:0.3;" d="M 122.210938 231.757812 L 152.171875 232.101562 L 152.230469 305.601562 L 121.652344 305.515625 Z M 122.210938 231.757812 "/>
<path style=" stroke:none;fill-rule:nonzero;fill:rgb(39.99939%,39.99939%,39.99939%);fill-opacity:0.3;" d="M 193.890625 232.574219 L 223.398438 232.902344 L 222.933594 305.796875 L 195.035156 305.71875 Z M 193.890625 232.574219 "/>
<path style=" stroke:none;fill-rule:nonzero;fill:rgb(39.99939%,39.99939%,39.99939%);fill-opacity:0.3;" d="M 261.894531 233.335938 L 294.261719 233.695312 L 294.789062 306 L 262.65625 305.910156 Z M 261.894531 233.335938 "/>
<path style=" stroke:none;fill-rule:nonzero;fill:rgb(39.99939%,39.99939%,39.99939%);fill-opacity:0.3;" d="M 226.980469 232.945312 L 259.003906 233.300781 L 258.847656 305.898438 L 225.976562 305.804688 Z M 226.980469 232.945312 "/>
<path style=" stroke:none;fill-rule:nonzero;fill:rgb(39.99939%,39.99939%,39.99939%);fill-opacity:0.3;" d="M 297.140625 233.730469 L 323.035156 234.019531 L 328.808594 254.484375 L 329.210938 306.09375 L 298.273438 306.007812 Z M 297.140625 233.730469 "/>
<path style=" stroke:none;fill-rule:nonzero;fill:rgb(39.99939%,39.99939%,39.99939%);fill-opacity:0.3;" d="M 117.984375 305.503906 L 72.949219 305.378906 L 81.394531 212.84375 L 113.640625 212.992188 L 113.714844 216.925781 L 117.984375 230.449219 Z M 117.984375 305.503906 "/>
<path style=" stroke:none;fill-rule:nonzero;fill:rgb(39.99939%,39.99939%,39.99939%);fill-opacity:0.3;" d="M 92.574219 62.402344 L 110.933594 69.582031 L 113.515625 206.554688 L 81.960938 206.433594 Z M 92.574219 62.402344 "/>
<path style=" stroke:none;fill-rule:nonzero;fill:rgb(39.99939%,39.99939%,39.99939%);fill-opacity:0.3;" d="M 61.371094 51.429688 L 61.734375 51.582031 L 65.695312 58.136719 L 62.460938 53.199219 Z M 61.371094 51.429688 "/>
<path style=" stroke:none;fill-rule:nonzero;fill:rgb(39.99939%,39.99939%,39.99939%);fill-opacity:0.3;" d="M 65.359375 189.824219 L 56.515625 308.546875 L 51.429688 308.570312 L 63.171875 209.09375 Z M 65.359375 189.824219 "/>
<path style="fill-rule:nonzero;fill:rgb(39.99939%,39.99939%,39.99939%);fill-opacity:1;stroke-width:0.03;stroke-linecap:square;stroke-linejoin:miter;stroke:rgb(39.99939%,39.99939%,39.99939%);stroke-opacity:1;stroke-miterlimit:3.239307;" d="M 191.984375 318.503906 L 146.949219 318.378906 L 155.394531 225.84375 L 187.640625 225.992188 L 187.714844 229.925781 L 191.984375 243.449219 Z M 191.984375 318.503906 " transform="matrix(1,0,0,1,-74,-13)"/>
<path style="fill-rule:nonzero;fill:rgb(39.99939%,39.99939%,39.99939%);fill-opacity:1;stroke-width:0.03;stroke-linecap:square;stroke-linejoin:miter;stroke:rgb(39.99939%,39.99939%,39.99939%);stroke-opacity:1;stroke-miterlimit:3.239307;" d="M 166.574219 75.402344 L 184.933594 82.582031 L 187.515625 219.554688 L 155.960938 219.433594 Z M 166.574219 75.402344 " transform="matrix(1,0,0,1,-74,-13)"/>
<path style="fill-rule:nonzero;fill:rgb(39.99939%,39.99939%,39.99939%);fill-opacity:1;stroke-width:0.03;stroke-linecap:square;stroke-linejoin:miter;stroke:rgb(39.99939%,39.99939%,39.99939%);stroke-opacity:1;stroke-miterlimit:3.239307;" d="M 135.371094 64.429688 L 135.734375 64.582031 L 139.695312 71.136719 L 136.460938 66.199219 Z M 135.371094 64.429688 " transform="matrix(1,0,0,1,-74,-13)"/>
<path style="fill-rule:nonzero;fill:rgb(39.99939%,39.99939%,39.99939%);fill-opacity:1;stroke-width:0.03;stroke-linecap:square;stroke-linejoin:miter;stroke:rgb(39.99939%,39.99939%,39.99939%);stroke-opacity:1;stroke-miterlimit:3.239307;" d="M 139.359375 202.824219 L 130.515625 321.546875 L 125.429688 321.570312 L 137.171875 222.09375 Z M 139.359375 202.824219 " transform="matrix(1,0,0,1,-74,-13)"/>
<path style=" stroke:none;fill-rule:evenodd;fill:rgb(85.096741%,85.096741%,81.959534%);fill-opacity:0.7;" d="M 107.472656 239 C 107.472656 231.449219 104.472656 224.207031 99.132812 218.867188 C 93.792969 213.527344 86.550781 210.527344 79 210.527344 C 71.449219 210.527344 64.207031 213.527344 58.867188 218.867188 C 53.527344 224.207031 50.527344 231.449219 50.527344 239 C 50.527344 246.550781 53.527344 253.792969 58.867188 259.132812 C 64.207031 264.472656 71.449219 267.472656 79 267.472656 C 86.550781 267.472656 93.792969 264.472656 99.132812 259.132812 C 104.472656 253.792969 107.472656 246.550781 107.472656 239 Z M 107.472656 239 "/>
<path style=" stroke:none;fill-rule:evenodd;fill:rgb(85.096741%,85.096741%,81.959534%);fill-opacity:0.7;" d="M 165.472656 37 C 165.472656 29.449219 162.472656 22.207031 157.132812 16.867188 C 151.792969 11.527344 144.550781 8.527344 137 8.527344 C 129.449219 8.527344 122.207031 11.527344 116.867188 16.867188 C 111.527344 22.207031 108.527344 29.449219 108.527344 37 C 108.527344 44.550781 111.527344 51.792969 116.867188 57.132812 C 122.207031 62.472656 129.449219 65.472656 137 65.472656 C 144.550781 65.472656 151.792969 62.472656 157.132812 57.132812 C 162.472656 51.792969 165.472656 44.550781 165.472656 37 Z M 165.472656 37 "/>
<path style=" stroke:none;fill-rule:evenodd;fill:rgb(85.096741%,85.096741%,81.959534%);fill-opacity:0.7;" d="M 123.472656 -22 C 123.472656 -29.550781 120.472656 -36.792969 115.132812 -42.132812 C 109.792969 -47.472656 102.550781 -50.472656 95 -50.472656 C 87.449219 -50.472656 80.207031 -47.472656 74.867188 -42.132812 C 69.527344 -36.792969 66.527344 -29.550781 66.527344 -22 C 66.527344 -14.449219 69.527344 -7.207031 74.867188 -1.867188 C 80.207031 3.472656 87.449219 6.472656 95 6.472656 C 102.550781 6.472656 109.792969 3.472656 115.132812 -1.867188 C 120.472656 -7.207031 123.472656 -14.449219 123.472656 -22 Z M 123.472656 -22 "/>
<path style=" stroke:none;fill-rule:evenodd;fill:rgb(85.096741%,85.096741%,81.959534%);fill-opacity:0.7;" d="M 332.472656 131 C 332.472656 123.449219 329.472656 116.207031 324.132812 110.867188 C 318.792969 105.527344 311.550781 102.527344 304 102.527344 C 296.449219 102.527344 289.207031 105.527344 283.867188 110.867188 C 278.527344 116.207031 275.527344 123.449219 275.527344 131 C 275.527344 138.550781 278.527344 145.792969 283.867188 151.132812 C 289.207031 156.472656 296.449219 159.472656 304 159.472656 C 311.550781 159.472656 318.792969 156.472656 324.132812 151.132812 C 329.472656 145.792969 332.472656 138.550781 332.472656 131 Z M 332.472656 131 "/>
<path style=" stroke:none;fill-rule:evenodd;fill:rgb(85.096741%,85.096741%,81.959534%);fill-opacity:0.7;" d="M 71.472656 91 C 71.472656 83.449219 68.472656 76.207031 63.132812 70.867188 C 57.792969 65.527344 50.550781 62.527344 43 62.527344 C 35.449219 62.527344 28.207031 65.527344 22.867188 70.867188 C 17.527344 76.207031 14.527344 83.449219 14.527344 91 C 14.527344 98.550781 17.527344 105.792969 22.867188 111.132812 C 28.207031 116.472656 35.449219 119.472656 43 119.472656 C 50.550781 119.472656 57.792969 116.472656 63.132812 111.132812 C 68.472656 105.792969 71.472656 98.550781 71.472656 91 Z M 71.472656 91 "/>
<path style=" stroke:none;fill-rule:evenodd;fill:rgb(76.469421%,0.392151%,0%);fill-opacity:0.7;" d="M 112.945312 -26 C 112.945312 -41.101562 106.949219 -55.589844 96.269531 -66.269531 C 85.589844 -76.949219 71.101562 -82.945312 56 -82.945312 C 40.898438 -82.945312 26.410156 -76.949219 15.730469 -66.269531 C 5.050781 -55.589844 -0.945312 -41.101562 -0.945312 -26 C -0.945312 -10.898438 5.050781 3.589844 15.730469 14.269531 C 26.410156 24.949219 40.898438 30.945312 56 30.945312 C 71.101562 30.945312 85.589844 24.949219 96.269531 14.269531 C 106.949219 3.589844 112.945312 -10.898438 112.945312 -26 Z M 112.945312 -26 "/>
<path style="fill-rule:nonzero;fill:rgb(99.998474%,99.998474%,30.587769%);fill-opacity:0.8;stroke-width:0.288;stroke-linecap:square;stroke-linejoin:miter;stroke:rgb(0%,0%,0%);stroke-opacity:0.8;stroke-miterlimit:3.25;" d="M 101.582031 101.082031 L 39.933594 207.855469 L 163.226562 207.855469 Z M 101.582031 101.082031 " transform="matrix(1,0,0,1,-74,-13)"/>
</g>
</svg>
