<?xml version="1.0" encoding="UTF-8"?>
<svg xmlns="http://www.w3.org/2000/svg" xmlns:xlink="http://www.w3.org/1999/xlink" width="361pt" height="361pt" viewBox="0 0 361 361" version="1.1">
<defs>
<clipPath id="clip1">
  <path d="M 94 0 L 360 0 L 360 32 L 94 32 Z M 94 0 "/>
</clipPath>
<clipPath id="clip2">
  <path d="M 0 281 L 99 281 L 99 360 L 0 360 Z M 0 281 "/>
</clipPath>
<clipPath id="clip3">
  <path d="M 90 249 L 360 249 L 360 360 L 90 360 Z M 90 249 "/>
</clipPath>
<clipPath id="clip4">
  <path d="M 234 187 L 360 187 L 360 269 L 234 269 Z M 234 187 "/>
</clipPath>
<clipPath id="clip5">
  <path d="M 288 63 L 360 63 L 360 216 L 288 216 Z M 288 63 "/>
</clipPath>
<clipPath id="clip6">
  <path d="M 111 267 L 360 267 L 360 360 L 111 360 Z M 111 267 "/>
</clipPath>
<clipPath id="clip7">
  <path d="M 212 293 L 352 293 L 352 360 L 212 360 Z M 212 293 "/>
</clipPath>
<clipPath id="clip8">
  <path d="M 289 15 L 360 15 L 360 146 L 289 146 Z M 289 15 "/>
</clipPath>
<clipPath id="clip9">
  <path d="M 0 0 L 360 0 L 360 89 L 0 89 Z M 0 0 "/>
</clipPath>
</defs>
<g id="surface56">
<path style="fill-rule:nonzero;fill:rgb(0%,0%,0%);fill-opacity:1;stroke-width:0.03;stroke-linecap:square;stroke-linejoin:miter;stroke:rgb(0%,0%,0%);stroke-opacity:1;stroke-miterlimit:10;" d="M 0 178 L 360 178 L 360 -182 L 0 -182 Z M 0 178 " transform="matrix(1,0,0,1,0,182)"/>
<g clip-path="url(#clip1)" clip-rule="nonzero">
<path style=" stroke:none;fill-rule:nonzero;fill:rgb(39.99939%,39.99939%,39.99939%);fill-opacity:0.3;" d="M 94.222656 -170.6875 L 492.007812 -216.871094 L 521.636719 -14.53125 L 378.605469 1.917969 L 131.925781 31.171875 Z M 94.222656 -170.6875 "/>
</g>
<g clip-path="url(#clip2)" clip-rule="nonzero">
<path style=" stroke:none;fill-rule:nonzero;fill:rgb(39.99939%,39.99939%,39.99939%);fill-opacity:0.3;" d="M 67.535156 299.097656 L 83.3125 313.140625 L 98.320312 316.40625 L 90.527344 384.304688 L 66.746094 374.367188 L -0.0234375 355.550781 L 35.101562 281.238281 L 43.410156 283.746094 L 55.007812 288.566406 Z M 67.535156 299.097656 "/>
</g>
<path style=" stroke:none;fill-rule:nonzero;fill:rgb(39.99939%,39.99939%,39.99939%);fill-opacity:0.3;" d="M 51.429688 270.082031 L 49.351562 267.359375 L 52.992188 266.753906 Z M 51.429688 270.082031 "/>
<path style=" stroke:none;fill-rule:nonzero;fill:rgb(39.99939%,39.99939%,39.99939%);fill-opacity:0.3;" d="M -22.5 296.207031 L -9.988281 294.871094 L 28.003906 282.082031 L -6.195312 353.152344 L -106.816406 327.074219 L -101.519531 315.082031 L -102.664062 311.6875 L -107.785156 297.191406 L -108.714844 296.359375 L -108.695312 296.308594 L -116.585938 283.152344 L -130.714844 276.730469 L -132.378906 275.246094 L -134.257812 265.761719 L -34.089844 294.023438 Z M -22.5 296.207031 "/>
<g clip-path="url(#clip3)" clip-rule="nonzero">
<path style=" stroke:none;fill-rule:nonzero;fill:rgb(39.99939%,39.99939%,39.99939%);fill-opacity:0.3;" d="M 98.320312 316.40625 L 101.394531 317.074219 L 117.15625 318.371094 L 135.6875 312.636719 L 150.046875 303.828125 L 220.015625 288.363281 L 235.289062 271.4375 L 240.535156 267.660156 L 244.691406 264.738281 L 248.671875 262.160156 L 252.105469 260.613281 L 255.183594 259.753906 L 258.4375 259.0625 L 262.238281 258.886719 L 265.859375 259.054688 L 275.347656 259.46875 L 285.964844 260.402344 L 293.414062 261.144531 L 296.34375 261.515625 L 298.648438 261.851562 L 301.59375 262.355469 L 304.628906 262.964844 L 307 263.492188 L 311.226562 264.511719 L 317.183594 266.039062 L 324.601562 267.871094 L 329.457031 268.894531 L 333.21875 269.535156 L 336.082031 269.910156 L 341.554688 270.367188 L 348.269531 270.828125 L 363.121094 271.34375 L 372.453125 271.273438 L 375.867188 270.753906 L 379.628906 269.859375 L 382.109375 269.117188 L 385.484375 267.957031 L 394.382812 264.664062 L 400.699219 261.835938 L 405.941406 259.730469 L 410.347656 258.0625 L 414.589844 256.582031 L 417.984375 255.476562 L 422.375 254.148438 L 426.660156 252.953125 L 429.832031 252.125 L 438.402344 249.960938 L 453.429688 278.546875 L 417.382812 291.414062 L 358.894531 312.082031 L 309.191406 301.140625 L 277.648438 282.71875 L 281.410156 324.027344 L 210.996094 351.359375 L 204.390625 335.238281 L 165.101562 346.140625 L 148.53125 322.886719 L 127.992188 325.96875 L 127.4375 328.882812 L 127.070312 330.804688 L 147.003906 332.980469 L 146.773438 353.125 L 146.589844 369.015625 L 149.691406 368.765625 L 152.152344 368.570312 L 153.988281 356.261719 L 200.320312 342.140625 L 209.167969 372.453125 L 173.625 384.71875 L 162.648438 386.90625 L 149.386719 389.527344 L 134.296875 391.28125 L 117.371094 390.867188 L 102.917969 388.824219 L 90.863281 384.445312 L 90.527344 384.304688 Z M 98.320312 316.40625 "/>
</g>
<g clip-path="url(#clip4)" clip-rule="nonzero">
<path style=" stroke:none;fill-rule:nonzero;fill:rgb(39.99939%,39.99939%,39.99939%);fill-opacity:0.3;" d="M 262.082031 218.042969 L 264.035156 215.484375 L 265.785156 214.144531 L 267.980469 213.394531 L 270.136719 213.160156 L 272.328125 213.242188 L 275.742188 213.859375 L 280.269531 215.179688 L 285.519531 216.785156 L 289.921875 218.09375 L 295.265625 219.597656 L 300.015625 220.839844 L 304.390625 221.878906 L 308.433594 222.730469 L 312.761719 223.472656 L 316.957031 223.984375 L 321.296875 224.242188 L 325.476562 224.195312 L 329.484375 223.871094 L 332.503906 223.449219 L 337.132812 222.503906 L 340.191406 221.675781 L 343.976562 220.417969 L 347.902344 218.855469 L 354.179688 215.847656 L 357.566406 214 L 364.378906 209.882812 L 370.882812 205.632812 L 377.394531 201.285156 L 382.460938 198.003906 L 387.179688 195.15625 L 391.765625 192.671875 L 396.601562 190.429688 L 399.585938 189.253906 L 405.226562 187.34375 L 437.160156 247.015625 L 428.054688 249.3125 L 420.046875 251.539062 L 412.539062 253.953125 L 407.597656 255.730469 L 401.542969 258.109375 L 393.523438 261.414062 L 388.4375 263.46875 L 384.507812 264.964844 L 382.171875 265.777344 L 378.421875 266.910156 L 376.144531 267.46875 L 373.347656 267.988281 L 370.445312 268.3125 L 365.757812 268.410156 L 358.664062 268.039062 L 342.921875 267.40625 L 338.160156 267.109375 L 333.964844 266.671875 L 326.996094 265.484375 L 322.71875 264.535156 L 317.855469 263.332031 L 311.726562 261.753906 L 302.054688 259.515625 L 297.972656 258.789062 L 292.324219 258.03125 L 287.21875 257.507812 L 281.902344 257.046875 L 275.617188 256.496094 L 268.960938 255.765625 L 266.621094 255.492188 L 262.828125 255.164062 L 259.785156 255.113281 L 256.292969 255.421875 L 254.019531 255.898438 L 251.605469 256.636719 L 247.484375 258.390625 L 242.816406 261.054688 L 239.441406 263.359375 L 234.421875 267.128906 Z M 262.082031 218.042969 "/>
</g>
<path style=" stroke:none;fill-rule:nonzero;fill:rgb(39.99939%,39.99939%,39.99939%);fill-opacity:0.3;" d="M 253.9375 219.785156 L 245.507812 234.640625 L 247.742188 226.597656 Z M 253.9375 219.785156 "/>
<path style=" stroke:none;fill-rule:nonzero;fill:rgb(39.99939%,39.99939%,39.99939%);fill-opacity:0.3;" d="M 122.417969 306.132812 L 120.324219 306.769531 L 117.890625 307.378906 L 115.429688 307.863281 L 112.945312 308.230469 L 110.445312 308.46875 L 107.933594 308.585938 L 105.421875 308.574219 L 105.335938 308.570312 Z M 122.417969 306.132812 "/>
<g clip-path="url(#clip5)" clip-rule="nonzero">
<path style=" stroke:none;fill-rule:nonzero;fill:rgb(39.99939%,39.99939%,39.99939%);fill-opacity:0.3;" d="M 308.570312 159.539062 L 533.578125 63.28125 L 556.863281 109.316406 L 486.484375 134.898438 L 459.109375 149.015625 L 376.40625 189.910156 L 348.003906 207.390625 L 344.242188 209.351562 L 341.496094 210.578125 L 338.691406 211.660156 L 335.828125 212.605469 L 332.917969 213.40625 L 329.96875 214.0625 L 326.984375 214.570312 L 323.976562 214.929688 L 320.953125 215.140625 L 317.925781 215.199219 L 314.894531 215.105469 L 311.875 214.867188 L 308.871094 214.472656 L 305.894531 213.933594 L 302.953125 213.246094 L 288.027344 207.167969 Z M 308.570312 159.539062 "/>
</g>
<g clip-path="url(#clip6)" clip-rule="nonzero">
<path style=" stroke:none;fill-rule:nonzero;fill:rgb(39.99939%,39.99939%,39.99939%);fill-opacity:0.3;" d="M 592.125 377.042969 L 591.789062 378.355469 L 591.347656 379.777344 L 590.828125 381.175781 L 590.234375 382.546875 L 589.5625 383.882812 L 588.820312 385.1875 L 588.007812 386.453125 L 587.121094 387.675781 L 586.175781 388.851562 L 585.160156 389.980469 L 584.085938 391.054688 L 582.957031 392.078125 L 581.710938 393.085938 L 362.019531 462.214844 L 359.773438 462.5625 L 353.074219 463.375 L 346.335938 463.851562 L 339.585938 463.992188 L 332.832031 463.796875 L 326.101562 463.269531 L 319.410156 462.40625 L 312.773438 461.210938 L 306.210938 459.6875 L 120.921875 406.640625 L 111.535156 401.398438 L 117.277344 402.769531 L 123.089844 403.855469 L 128.949219 404.648438 L 134.847656 405.148438 L 140.765625 405.359375 L 146.683594 405.273438 L 152.59375 404.894531 L 158.472656 404.222656 L 164.304688 403.257812 L 169.078125 402.246094 L 523.617188 269.164062 L 524.574219 268.871094 L 525.96875 268.503906 L 527.382812 268.210938 L 528.808594 267.984375 L 530.25 267.832031 L 531.691406 267.746094 L 533.140625 267.738281 L 534.585938 267.796875 L 536.027344 267.933594 L 537.457031 268.136719 L 538.875 268.410156 L 540.277344 268.757812 L 541.65625 269.171875 L 543.011719 269.652344 L 544.339844 270.203125 L 545.636719 270.816406 L 546.894531 271.492188 L 548.113281 272.234375 L 549.292969 273.03125 L 550.421875 273.886719 L 551.507812 274.800781 L 552.539062 275.761719 L 553.515625 276.777344 L 554.433594 277.835938 L 555.292969 278.941406 L 591.945312 364.34375 L 592.273438 365.792969 L 592.527344 367.253906 L 592.695312 368.730469 L 592.785156 370.207031 L 592.796875 371.03125 L 592.757812 372.511719 L 592.636719 373.988281 L 592.4375 375.457031 Z M 592.125 377.042969 "/>
</g>
<g clip-path="url(#clip7)" clip-rule="nonzero">
<path style=" stroke:none;fill-rule:nonzero;fill:rgb(39.99939%,39.99939%,39.99939%);fill-opacity:0.3;" d="M 212.457031 355.289062 L 287.042969 326.191406 L 283.785156 293.207031 L 308.339844 307.269531 L 351.460938 316.445312 L 214.796875 370.664062 Z M 212.457031 355.289062 "/>
</g>
<path style=" stroke:none;fill-rule:nonzero;fill:rgb(39.99939%,39.99939%,39.99939%);fill-opacity:0.3;" d="M 46.535156 130.792969 L 132.007812 122.503906 L 135.382812 191.730469 L 53.945312 204.34375 Z M 46.535156 130.792969 "/>
<path style=" stroke:none;fill-rule:nonzero;fill:rgb(39.99939%,39.99939%,39.99939%);fill-opacity:0.3;" d="M 37.382812 49.363281 L 127.636719 41.140625 L 131.011719 113.941406 L 45.179688 121.851562 Z M 37.382812 49.363281 "/>
<path style=" stroke:none;fill-rule:nonzero;fill:rgb(39.99939%,39.99939%,39.99939%);fill-opacity:0.3;" d="M 133.25 40.582031 L 171.3125 36.65625 L 218.742188 31.757812 L 243.671875 29.1875 L 273.527344 26.105469 L 284.363281 83.664062 L 296.632812 148.835938 L 236.289062 182.703125 L 218.804688 191.085938 L 124.8125 240.269531 L 113.039062 245.023438 L 87.746094 252.875 L 55.296875 258.128906 L 54.160156 210.730469 L 141.027344 197.003906 Z M 133.25 40.582031 "/>
<g clip-path="url(#clip8)" clip-rule="nonzero">
<path style=" stroke:none;fill-rule:nonzero;fill:rgb(39.99939%,39.99939%,39.99939%);fill-opacity:0.3;" d="M 289.035156 24.503906 L 373.339844 15.804688 L 378.871094 73.523438 L 389.082031 97.832031 L 401.730469 105.109375 L 313.007812 145.410156 Z M 289.035156 24.503906 "/>
</g>
<path style=" stroke:none;fill-rule:nonzero;fill:rgb(39.99939%,39.99939%,39.99939%);fill-opacity:0.3;" d="M -56.421875 -10.085938 L 19.449219 -15.980469 L 25.03125 39.363281 L -52.613281 44.679688 Z M -56.421875 -10.085938 "/>
<path style=" stroke:none;fill-rule:nonzero;fill:rgb(39.99939%,39.99939%,39.99939%);fill-opacity:0.3;" d="M -58.511719 217.023438 L 46.792969 206.6875 L 48.597656 256.09375 L -19.25 265.070312 L -33.230469 266.667969 L -42.21875 267.027344 L -43.226562 267.027344 L -52.984375 266.269531 Z M -58.511719 217.023438 "/>
<path style=" stroke:none;fill-rule:nonzero;fill:rgb(39.99939%,39.99939%,39.99939%);fill-opacity:0.3;" d="M 27.773438 -17.0625 L 110.921875 -26.5625 L 122.015625 31.382812 L 34.199219 39.089844 Z M 27.773438 -17.0625 "/>
<path style=" stroke:none;fill-rule:nonzero;fill:rgb(39.99939%,39.99939%,39.99939%);fill-opacity:0.3;" d="M -86.773438 204.824219 L -99.203125 203.761719 L -111.558594 202.082031 L -123.800781 199.789062 L -141.625 195.214844 L -147.832031 193.398438 L -159.546875 189.320312 L -171.023438 184.660156 L -182.226562 179.441406 L -193.125 173.671875 L -203.691406 167.367188 L -205.476562 157.488281 L -222.21875 64.925781 L -81.742188 56.148438 L 27.527344 49.320312 L 36.433594 122.480469 L -29.664062 126.921875 L -29.65625 131.667969 L -29.652344 136.414062 L 37.6875 131.882812 L 40.660156 159.5625 L -32.695312 164.417969 L -32.800781 168.109375 L -32.90625 171.796875 L 41.644531 166.183594 L 45.476562 197.992188 L -37.640625 203.570312 L -53.445312 204.628906 L -61.820312 205.09375 L -74.300781 205.269531 Z M -86.773438 204.824219 "/>
<path style=" stroke:none;fill-rule:nonzero;fill:rgb(39.99939%,39.99939%,39.99939%);fill-opacity:0.3;" d="M 259.019531 210.824219 L 253.9375 219.785156 L 247.742188 226.597656 L 245.507812 234.640625 L 227.042969 267.183594 L 226.085938 268.425781 L 225.132812 269.53125 L 224.117188 270.589844 L 223.042969 271.59375 L 221.917969 272.542969 L 220.742188 273.4375 L 219.515625 274.273438 L 218.25 275.042969 L 216.9375 275.753906 L 215.59375 276.394531 L 214.210938 276.96875 L 212.800781 277.472656 L 211.367188 277.910156 L 209.90625 278.269531 L 208.429688 278.558594 L 155.820312 289.414062 L 142.816406 295.09375 L 127.269531 304.273438 L 125.066406 305.195312 L 122.714844 306.039062 L 122.417969 306.132812 L 105.335938 308.570312 L 102.910156 308.441406 L 100.414062 308.183594 L 97.929688 307.800781 L 95.476562 307.296875 L 93.050781 306.671875 L 90.660156 305.925781 L 88.316406 305.0625 L 86.027344 304.085938 L 83.789062 302.992188 L 81.617188 301.792969 L 63.839844 286.328125 L 51.429688 270.082031 L 52.992188 266.753906 L 62.140625 265.234375 L 91.621094 262.558594 L 140.554688 249.84375 L 183.910156 225.527344 L 234.015625 192.695312 L 299.058594 163.609375 L 308.570312 159.539062 L 288.027344 207.167969 L 282.335938 204.847656 L 279.617188 203.859375 L 277.726562 203.429688 L 275.800781 203.1875 L 273.859375 203.140625 L 271.925781 203.285156 L 270.015625 203.625 L 268.152344 204.148438 L 266.359375 204.851562 L 264.652344 205.734375 L 263.050781 206.777344 L 261.574219 207.972656 L 260.238281 209.3125 Z M 259.019531 210.824219 "/>
<path style=" stroke:none;fill-rule:nonzero;fill:rgb(39.99939%,39.99939%,39.99939%);fill-opacity:0.3;" d="M 236.289062 182.703125 L 183.953125 212.078125 L 149.324219 230.375 L 124.8125 240.269531 L 218.804688 191.085938 Z M 236.289062 182.703125 "/>
<g clip-path="url(#clip9)" clip-rule="nonzero">
<path style=" stroke:none;fill-rule:nonzero;fill:rgb(39.99939%,39.99939%,39.99939%);fill-opacity:0.3;" d="M -1031.039062 52.851562 L -1053.421875 45.371094 L -1097.441406 34.539062 L -1132.121094 18.597656 L -1151.855469 6.257812 L -1162.265625 -3.285156 L -1168.945312 -11.980469 L -1172.933594 -22.695312 L -1173.273438 -25.476562 L -1173.433594 -28.003906 L -1173.453125 -30.53125 L -1173.335938 -33.058594 L -1173.074219 -35.574219 L -1172.679688 -38.074219 L -1172.144531 -40.550781 L -1171.476562 -42.996094 L -1170.671875 -45.402344 L -1169.738281 -47.769531 L -1168.671875 -50.082031 L -1167.480469 -52.34375 L -1166.167969 -54.539062 L -1164.730469 -56.664062 L -1163.183594 -58.714844 L -1161.523438 -60.6875 L -1159.753906 -62.574219 L -1143.234375 -74.773438 L -1131.675781 -81.675781 L -1117.5625 -90.765625 L -1104.464844 -99.21875 L -1087.941406 -114.332031 L -1081.886719 -120.886719 L -1063.882812 -136.636719 L -1034.613281 -155.847656 L -1006.441406 -167.0625 L -968.742188 -181.171875 L -934.328125 -200.878906 L -917.789062 -222.242188 L -897.820312 -251.496094 L -876.515625 -290.746094 L -855.386719 -333.558594 L -842.644531 -368.195312 L -843.425781 -401.464844 L -844.386719 -431.167969 L -845.550781 -465.417969 L -833.292969 -498.5625 L -822.046875 -525.011719 L -809.554688 -561.96875 L -783.550781 -612.320312 L -745.550781 -655.546875 L -700.292969 -686.582031 L -622.539062 -734.140625 L -576.015625 -761.664062 L -523.347656 -807.222656 L -480.363281 -856.175781 L -442.886719 -903.148438 L -390.800781 -995.5 L -365.710938 -1068.976562 L -336.085938 -1150.691406 L -296.828125 -1269.925781 L -274.8125 -1359.632812 L -269.179688 -1384.375 L -265.152344 -1414.023438 L -274.394531 -1429.417969 L -280.960938 -1441.46875 L -286.363281 -1457.445312 L -290.121094 -1477.726562 L -292.324219 -1496.65625 L -289.480469 -1519.324219 L -284.84375 -1566.640625 L -274.945312 -1624.714844 L -266.484375 -1660.835938 L -262.21875 -1696.566406 L -257.625 -1762.152344 L -257.277344 -1784.679688 L -261.628906 -1817.601562 L -267.136719 -1855.699219 L -281.253906 -1885.378906 L -296.363281 -1904.765625 L -323.703125 -1916.65625 L -351.894531 -1916.972656 L -368.484375 -1917.160156 L -390.183594 -1918.425781 L -408.804688 -1921.277344 L -423.808594 -1925.859375 L -441.03125 -1935.519531 L -451.335938 -1944.6875 L -462.160156 -1959.769531 L -468.964844 -1971.816406 L -475.921875 -1986.746094 L -478.863281 -1997.121094 L -479.875 -2014.976562 L -474.644531 -2035.820312 L -469.523438 -2045.40625 L -454.070312 -2062.929688 L -437.328125 -2074.636719 L -419.859375 -2086.601562 L -400.3125 -2095.675781 L -380.617188 -2104.175781 L -351.972656 -2116.800781 L -260.566406 -2163.757812 L -212.859375 -2184.546875 L -167.703125 -2213.65625 L -79.878906 -2275.101562 L -0.359375 -2339.832031 L 23.855469 -2362.566406 L 72.015625 -2428.996094 L 130.234375 -2535.570312 L 152.863281 -2581.347656 L 173.117188 -2619 L 254.96875 -2584.398438 L 331.691406 -2537.085938 L 422.476562 -2480.347656 L 456.347656 -2458.039062 L 457.308594 -2456.609375 L 458.1875 -2455.136719 L 458.988281 -2453.621094 L 459.699219 -2452.066406 L 460.328125 -2450.480469 L 460.867188 -2448.867188 L 461.316406 -2447.230469 L 461.675781 -2445.570312 L 461.941406 -2443.898438 L 462.113281 -2442.210938 L 462.199219 -2440.027344 L 462.160156 -2438.335938 L 462.027344 -2436.652344 L 461.800781 -2434.972656 L 461.480469 -2433.308594 L 461.070312 -2431.664062 L 460.570312 -2430.042969 L 459.984375 -2428.449219 L 459.304688 -2426.886719 L 458.542969 -2425.359375 L 457.699219 -2423.871094 L 456.773438 -2422.429688 L 455.769531 -2421.035156 L 454.6875 -2419.695312 L 453.535156 -2418.410156 L 442.074219 -2402.878906 L 440.890625 -2399.8125 L 439.878906 -2396.695312 L 439.042969 -2393.53125 L 438.378906 -2390.328125 L 437.894531 -2387.09375 L 437.589844 -2383.84375 L 437.460938 -2380.578125 L 437.515625 -2377.3125 L 437.75 -2374.054688 L 438.164062 -2370.8125 L 438.753906 -2367.59375 L 439.519531 -2364.410156 L 440.460938 -2361.265625 L 441.574219 -2358.171875 L 442.859375 -2355.140625 L 449.109375 -2343.128906 L 466.882812 -2301.40625 L 436.425781 -2290.675781 L 400.410156 -2280.46875 L 379.921875 -2274.886719 L 377.15625 -2269.75 L 379.328125 -2265.515625 L 362.335938 -2265.410156 L 332.386719 -2263.132812 L 311.703125 -2263.273438 L 298.097656 -2259.371094 L 300.105469 -2246.574219 L 281.375 -2225.714844 L 251.046875 -2203.660156 L 227.832031 -2190.769531 L 217.371094 -2179.011719 L 212.953125 -2164.359375 L 210.195312 -2143.027344 L 200.300781 -2113.371094 L 191.761719 -2103.082031 L 183.914062 -2088.398438 L 172.875 -2078.125 L 155.492188 -2090.644531 L 146.214844 -2104.03125 L 146.597656 -2111.433594 L 141.300781 -2112.621094 L 132.667969 -2110.371094 L 129.9375 -2116.964844 L 126.984375 -2122.546875 L 122.902344 -2130.207031 L 55.601562 -2189.535156 L 36.320312 -2154.847656 L 28.558594 -2152.78125 L 7.507812 -2149.957031 L -17.230469 -2146.78125 L -41.488281 -2142.074219 L -65.222656 -2136.96875 L -87.636719 -2128.34375 L -108.746094 -2110.890625 L -132.421875 -2089.988281 L -153.414062 -2069.296875 L -172.511719 -2045.585938 L -179.472656 -2021.6875 L -184.351562 -1997.964844 L -201.335938 -1975.261719 L -211.480469 -1951.828125 L -216.121094 -1922.464844 L -233.230469 -1900.265625 L -233.515625 -1874.558594 L -226.832031 -1834.816406 L -222.378906 -1801.878906 L -210.765625 -1763.601562 L -196.945312 -1735.730469 L -181.628906 -1698.394531 L -171.9375 -1656.738281 L -171.097656 -1624.910156 L -175.140625 -1588.503906 L -175.902344 -1544.152344 L -176.023438 -1510.238281 L -193.339844 -1478.222656 L -205.808594 -1433.136719 L -202.066406 -1391.621094 L -175.625 -1363.777344 L -145.890625 -1345.703125 L -125.023438 -1341.015625 L -115.535156 -1321.304688 L -119.378906 -1302.226562 L -137.257812 -1294.847656 L -160.222656 -1283.273438 L -177.980469 -1272.378906 L -188.328125 -1261.597656 L -197.851562 -1249.546875 L -207.398438 -1216.089844 L -219.789062 -1188.5625 L -234.734375 -1160.082031 L -246.601562 -1150.148438 L -249.894531 -1126.769531 L -243.863281 -1102.910156 L -234.667969 -1071.066406 L -243.71875 -1041.519531 L -249.078125 -1025.472656 L -242.726562 -1019.105469 L -226.464844 -1018.75 L -218.324219 -990.003906 L -216.769531 -965.09375 L -232.953125 -957.382812 L -238.71875 -935.046875 L -264.730469 -896.070312 L -301.890625 -864.726562 L -323.234375 -843.664062 L -338.0625 -823.972656 L -354.902344 -795.351562 L -371.765625 -769.832031 L -386.882812 -748.921875 L -421.679688 -725.007812 L -461.488281 -702.875 L -489.390625 -689.039062 L -517.132812 -665.972656 L -545.863281 -630.226562 L -583.1875 -607.652344 L -625.242188 -578.128906 L -647.539062 -562.320312 L -668.398438 -544.660156 L -682.152344 -520.730469 L -684.722656 -489.664062 L -686.988281 -441.992188 L -688.347656 -384.003906 L -687.628906 -336.648438 L -683.117188 -320.929688 L -671.777344 -278.132812 L -664.636719 -233.828125 L -664.230469 -205.5 L -617.207031 -139.800781 L -557.144531 -52.070312 L -648.519531 2.035156 L -720.917969 36.132812 L -790.820312 67.222656 L -867.980469 88.511719 L -929.230469 78.3125 L -1023.121094 55.5 Z M -1031.039062 52.851562 "/>
</g>
<path style="fill-rule:nonzero;fill:rgb(39.99939%,39.99939%,39.99939%);fill-opacity:1;stroke-width:0.03;stroke-linecap:square;stroke-linejoin:miter;stroke:rgb(39.99939%,39.99939%,39.99939%);stroke-opacity:1;stroke-miterlimit:3.239307;" d="M 333.019531 223.824219 L 327.9375 232.785156 L 321.742188 239.597656 L 319.507812 247.640625 L 301.042969 280.183594 L 300.085938 281.425781 L 299.132812 282.53125 L 298.117188 283.589844 L 297.042969 284.59375 L 295.917969 285.542969 L 294.742188 286.4375 L 293.515625 287.273438 L 292.25 288.042969 L 290.9375 288.753906 L 289.59375 289.394531 L 288.210938 289.96875 L 286.800781 290.472656 L 285.367188 290.910156 L 283.90625 291.269531 L 282.429688 291.558594 L 229.820312 302.414062 L 216.816406 308.09375 L 201.269531 317.273438 L 199.066406 318.195312 L 196.714844 319.039062 L 196.417969 319.132812 L 179.335938 321.570312 L 176.910156 321.441406 L 174.414062 321.183594 L 171.929688 320.800781 L 169.476562 320.296875 L 167.050781 319.671875 L 164.660156 318.925781 L 162.316406 318.0625 L 160.027344 317.085938 L 157.789062 315.992188 L 155.617188 314.792969 L 137.839844 299.328125 L 125.429688 283.082031 L 126.992188 279.753906 L 136.140625 278.234375 L 165.621094 275.558594 L 214.554688 262.84375 L 257.910156 238.527344 L 308.015625 205.695312 L 373.058594 176.609375 L 382.570312 172.539062 L 362.027344 220.167969 L 356.335938 217.847656 L 353.617188 216.859375 L 351.726562 216.429688 L 349.800781 216.1875 L 347.859375 216.140625 L 345.925781 216.285156 L 344.015625 216.625 L 342.152344 217.148438 L 340.359375 217.851562 L 338.652344 218.734375 L 337.050781 219.777344 L 335.574219 220.972656 L 334.238281 222.3125 Z M 333.019531 223.824219 " transform="matrix(1,0,0,1,-74,-13)"/>
<path style="fill-rule:nonzero;fill:rgb(39.99939%,39.99939%,39.99939%);fill-opacity:1;stroke-width:0.03;stroke-linecap:square;stroke-linejoin:miter;stroke:rgb(39.99939%,39.99939%,39.99939%);stroke-opacity:1;stroke-miterlimit:3.239307;" d="M 310.289062 195.703125 L 257.953125 225.078125 L 223.324219 243.375 L 198.8125 253.269531 L 292.804688 204.085938 Z M 310.289062 195.703125 " transform="matrix(1,0,0,1,-74,-13)"/>
</g>
</svg>
