<?xml version="1.0" encoding="UTF-8"?>
<svg xmlns="http://www.w3.org/2000/svg" xmlns:xlink="http://www.w3.org/1999/xlink" width="361pt" height="361pt" viewBox="0 0 361 361" version="1.1">
<defs>
<clipPath id="clip1">
  <path d="M 0 335 L 31 335 L 31 360 L 0 360 Z M 0 335 "/>
</clipPath>
<clipPath id="clip2">
  <path d="M 6 339 L 58 339 L 58 360 L 6 360 Z M 6 339 "/>
</clipPath>
<clipPath id="clip3">
  <path d="M 0 306 L 9 306 L 9 360 L 0 360 Z M 0 306 "/>
</clipPath>
<clipPath id="clip4">
  <path d="M 311 212 L 360 212 L 360 252 L 311 252 Z M 311 212 "/>
</clipPath>
<clipPath id="clip5">
  <path d="M 63 344 L 84 344 L 84 360 L 63 360 Z M 63 344 "/>
</clipPath>
<clipPath id="clip6">
  <path d="M 12 320 L 223 320 L 223 360 L 12 360 Z M 12 320 "/>
</clipPath>
<clipPath id="clip7">
  <path d="M 349 168 L 360 168 L 360 204 L 349 204 Z M 349 168 "/>
</clipPath>
<clipPath id="clip8">
  <path d="M 343 152 L 360 152 L 360 174 L 343 174 Z M 343 152 "/>
</clipPath>
<clipPath id="clip9">
  <path d="M 358 201 L 360 201 L 360 239 L 358 239 Z M 358 201 "/>
</clipPath>
<clipPath id="clip10">
  <path d="M 342 142 L 360 142 L 360 184 L 342 184 Z M 342 142 "/>
</clipPath>
<clipPath id="clip11">
  <path d="M 265 0 L 360 0 L 360 134 L 265 134 Z M 265 0 "/>
</clipPath>
</defs>
<g id="surface4193">
<path style="fill-rule:nonzero;fill:rgb(0%,0%,0%);fill-opacity:1;stroke-width:0.03;stroke-linecap:square;stroke-linejoin:miter;stroke:rgb(0%,0%,0%);stroke-opacity:1;stroke-miterlimit:10;" d="M 0 178 L 360 178 L 360 -182 L 0 -182 Z M 0 178 " transform="matrix(1,0,0,1,0,182)"/>
<path style=" stroke:none;fill-rule:nonzero;fill:rgb(39.99939%,39.99939%,39.99939%);fill-opacity:0.3;" d="M -56.773438 264.621094 L -38.664062 243.257812 L -33.875 232.382812 L -29.289062 224.410156 L -27.308594 219.289062 L 14.777344 256.824219 L 37.835938 275.957031 L 41.402344 279.644531 L 42.207031 280.890625 L 42.277344 282.371094 L 41.792969 284.132812 L 33.761719 302.929688 L 23.449219 331.300781 L -7.492188 297.148438 L -4.3125 293.484375 L -9.761719 288.867188 L -43.054688 329.128906 L -52.421875 318.632812 L -51.574219 317.367188 L -27.921875 287.558594 Z M -56.773438 264.621094 "/>
<path style=" stroke:none;fill-rule:nonzero;fill:rgb(39.99939%,39.99939%,39.99939%);fill-opacity:0.3;" d="M 23.597656 333.988281 L 9.492188 347.550781 L -8.046875 330.082031 L -8.820312 315.109375 L -9.148438 306.1875 L -17.1875 302.304688 L -11.527344 296.015625 Z M 23.597656 333.988281 "/>
<path style=" stroke:none;fill-rule:nonzero;fill:rgb(39.99939%,39.99939%,39.99939%);fill-opacity:0.3;" d="M 57.324219 338.625 L 26.140625 334.203125 L 38.035156 304.28125 L 64.867188 307.347656 Z M 57.324219 338.625 "/>
<path style=" stroke:none;fill-rule:nonzero;fill:rgb(39.99939%,39.99939%,39.99939%);fill-opacity:0.3;" d="M 64.289062 305.171875 L 39.019531 302.175781 L 47.164062 284.082031 L 59.109375 294.714844 Z M 64.289062 305.171875 "/>
<g clip-path="url(#clip1)" clip-rule="nonzero">
<path style=" stroke:none;fill-rule:nonzero;fill:rgb(39.99939%,39.99939%,39.99939%);fill-opacity:0.3;" d="M 25.320312 335.582031 L 30.476562 336.464844 L 18.324219 374.757812 L 5.917969 370.785156 L -2.816406 364.265625 Z M 25.320312 335.582031 "/>
</g>
<g clip-path="url(#clip2)" clip-rule="nonzero">
<path style=" stroke:none;fill-rule:nonzero;fill:rgb(39.99939%,39.99939%,39.99939%);fill-opacity:0.3;" d="M 26.917969 428.394531 L 17.796875 424.386719 L 17.8125 418.613281 L 6.34375 413.710938 L 17.785156 388.058594 L 22.941406 377.296875 L 28.558594 360.632812 L 33.671875 339.542969 L 57.523438 343.175781 L 51.300781 365.949219 L 36.796875 407.050781 Z M 26.917969 428.394531 "/>
</g>
<g clip-path="url(#clip3)" clip-rule="nonzero">
<path style=" stroke:none;fill-rule:nonzero;fill:rgb(39.99939%,39.99939%,39.99939%);fill-opacity:0.3;" d="M -39.242188 333.214844 L -16.730469 306.675781 L -12.382812 308.152344 L -12.144531 317.492188 L -11.996094 329.058594 L 8.320312 349.027344 L -5.585938 363.273438 Z M -39.242188 333.214844 "/>
</g>
<path style=" stroke:none;fill-rule:nonzero;fill:rgb(39.99939%,39.99939%,39.99939%);fill-opacity:0.3;" d="M -60.253906 -204.195312 L -55.914062 -200.398438 L 10.796875 -186.71875 L 26.183594 -181.148438 L 21.980469 -171.257812 L 20.730469 -166.800781 L -16.515625 -175.011719 L -18.039062 -173.914062 L -18.886719 -172.933594 L -19.738281 -171.953125 L -20.527344 -171.148438 L -21.378906 -169.878906 L -22.230469 -168.671875 L -22.960938 -167.402344 L -23.6875 -166.078125 L -28.726562 -146.65625 L -32.898438 -130.585938 L -63.542969 6.753906 L -75.953125 65.296875 L -76.332031 67.085938 L -76.816406 68.566406 L -77.300781 69.535156 L -77.839844 70.25 L -78.511719 70.679688 L -79.585938 71.328125 L -107.171875 76.699219 L -111.914062 77.316406 L -168.09375 -16.527344 L -202.484375 -72.425781 L -189.8125 -86.570312 L -156.871094 -116.34375 L -122.046875 -146.648438 Z M -60.253906 -204.195312 "/>
<path style=" stroke:none;fill-rule:nonzero;fill:rgb(39.99939%,39.99939%,39.99939%);fill-opacity:0.3;" d="M 183.472656 148.257812 L 189.050781 145.757812 L 189.269531 146.359375 L 184.34375 148.382812 Z M 183.472656 148.257812 "/>
<path style=" stroke:none;fill-rule:nonzero;fill:rgb(39.99939%,39.99939%,39.99939%);fill-opacity:0.3;" d="M 224.25 86.765625 L 247.226562 91.894531 L 248.359375 92.167969 L 248.566406 92.195312 L 294.386719 102.421875 L 288.601562 116.367188 L 283.789062 120.804688 L 277.316406 116.660156 L 257.402344 107.003906 L 254.347656 106.867188 L 222.449219 90.46875 Z M 224.25 86.765625 "/>
<path style=" stroke:none;fill-rule:nonzero;fill:rgb(39.99939%,39.99939%,39.99939%);fill-opacity:0.3;" d="M 286.183594 122.183594 L 285.085938 121.3125 L 287.371094 119.324219 Z M 286.183594 122.183594 "/>
<path style=" stroke:none;fill-rule:nonzero;fill:rgb(39.99939%,39.99939%,39.99939%);fill-opacity:0.3;" d="M 191.925781 145.269531 L 191.699219 144.683594 L 225.332031 131.570312 L 236.398438 125.753906 L 245.34375 120.296875 L 257.457031 110.199219 L 283.746094 124.335938 L 230.902344 150.914062 L 214.847656 155.019531 L 207.324219 138.945312 Z M 191.925781 145.269531 "/>
<path style=" stroke:none;fill-rule:nonzero;fill:rgb(39.99939%,39.99939%,39.99939%);fill-opacity:0.3;" d="M 220.503906 91.050781 L 253.480469 109.160156 L 234.625 123.328125 L 223.195312 130.097656 L 197.96875 139.914062 L 182.621094 146.265625 L 180.902344 146.683594 L 174.628906 146.765625 L 171.808594 146.59375 L 164.046875 145.484375 L 163.453125 145 Z M 220.503906 91.050781 "/>
<path style=" stroke:none;fill-rule:nonzero;fill:rgb(39.99939%,39.99939%,39.99939%);fill-opacity:0.3;" d="M 161.097656 148.761719 L 182.136719 148.859375 L 183.472656 148.257812 L 184.34375 148.382812 L 189.269531 146.359375 L 194.457031 160.605469 L 134.042969 199.378906 L 124.292969 205.117188 L 117.027344 232.699219 L 118.40625 244.25 L 123.058594 246.511719 L 129.785156 254.585938 L 126.761719 265.445312 L 119.75 263.410156 L 111 260.9375 L 113.109375 254.820312 L 112.417969 254.601562 L 111.726562 254.386719 L 109.53125 260.523438 L 98.140625 257.308594 L 114.175781 195.253906 L 117.792969 188.300781 L 148.226562 161.207031 L 161.089844 171.941406 L 161.453125 171.550781 L 162.121094 170.824219 L 149.359375 160.171875 Z M 161.097656 148.761719 "/>
<path style=" stroke:none;fill-rule:nonzero;fill:rgb(39.99939%,39.99939%,39.99939%);fill-opacity:0.3;" d="M 193.921875 230.796875 L 205.222656 220.730469 L 212.621094 214.347656 L 221.253906 209.527344 L 230.910156 206.273438 L 237.28125 206.507812 L 242.214844 207.703125 L 247.761719 210.074219 L 251.253906 213.984375 L 251.25 220.398438 L 248.734375 224.695312 L 239.117188 231.214844 L 230.28125 235.835938 L 214.457031 243.148438 L 204.59375 247.578125 L 197.816406 248.714844 L 193.710938 247.527344 L 191.65625 243.046875 L 191.25 237.402344 L 192.277344 233.707031 Z M 193.921875 230.796875 "/>
<path style=" stroke:none;fill-rule:nonzero;fill:rgb(39.99939%,39.99939%,39.99939%);fill-opacity:0.3;" d="M 254.585938 278.402344 L 252.105469 272.832031 L 269.78125 243.835938 L 273.722656 235.933594 L 280.207031 231.074219 L 287.914062 221.9375 L 292.675781 215.773438 L 296.765625 204.910156 L 297.414062 202.40625 L 302.507812 213.703125 L 303.320312 217.355469 L 285.746094 239.546875 L 281.007812 247.042969 L 274.972656 254.339844 L 271.34375 260.519531 L 268.398438 264.351562 L 265.90625 269.257812 L 255.265625 279.6875 Z M 254.585938 278.402344 "/>
<path style=" stroke:none;fill-rule:nonzero;fill:rgb(39.99939%,39.99939%,39.99939%);fill-opacity:0.3;" d="M 227.367188 295.199219 L 220.707031 293.710938 L 210.878906 298.960938 L 201.464844 304.269531 L 198.625 304.128906 L 187.355469 294.660156 L 188.691406 294.019531 L 192.796875 293.730469 L 198.722656 293.582031 L 203.285156 291.996094 L 209.515625 291.128906 L 214.683594 288.386719 L 218.9375 285.9375 L 223.648438 283.777344 L 233.683594 281.609375 L 249.511719 275.765625 L 259.644531 298.503906 L 252.007812 300.042969 L 235.820312 297.085938 L 230.183594 295.828125 L 230.402344 289.527344 L 227.566406 289.433594 Z M 227.367188 295.199219 "/>
<path style=" stroke:none;fill-rule:nonzero;fill:rgb(39.99939%,39.99939%,39.99939%);fill-opacity:0.3;" d="M 133.304688 254.789062 L 133.296875 262.558594 L 135.078125 266.921875 L 136.070312 269.144531 L 137.800781 270.316406 L 139.53125 272.65625 L 141.273438 274.574219 L 143.871094 275.859375 L 144.613281 276.558594 L 145.105469 278.199219 L 145.011719 280.910156 L 142.984375 279.855469 L 142.382812 279.398438 L 142.683594 278.710938 L 142.144531 278.136719 L 129.707031 272.421875 L 129.917969 266.011719 L 132.78125 266.097656 L 132.710938 267.820312 L 132.914062 267.78125 L 133.113281 267.742188 L 133.136719 265.707031 L 129.859375 265.574219 L 130.0625 261.582031 L 132.269531 254.222656 Z M 133.304688 254.789062 "/>
<path style=" stroke:none;fill-rule:nonzero;fill:rgb(39.99939%,39.99939%,39.99939%);fill-opacity:0.3;" d="M 99.273438 231.328125 L 75.527344 214.164062 L 95.671875 187.675781 L 107.140625 195.609375 Z M 99.273438 231.328125 "/>
<path style=" stroke:none;fill-rule:nonzero;fill:rgb(39.99939%,39.99939%,39.99939%);fill-opacity:0.3;" d="M 122.660156 154.949219 L 133.601562 163.242188 L 106.808594 190.625 L 98.9375 184.820312 Z M 122.660156 154.949219 "/>
<path style=" stroke:none;fill-rule:nonzero;fill:rgb(39.99939%,39.99939%,39.99939%);fill-opacity:0.3;" d="M 159.0625 137.816406 L 136.941406 160.5 L 136.460938 160.171875 Z M 159.0625 137.816406 "/>
<path style=" stroke:none;fill-rule:nonzero;fill:rgb(39.99939%,39.99939%,39.99939%);fill-opacity:0.3;" d="M 271.925781 296.792969 L 273.234375 294.957031 L 272.066406 296.765625 Z M 271.925781 296.792969 "/>
<path style=" stroke:none;fill-rule:nonzero;fill:rgb(39.99939%,39.99939%,39.99939%);fill-opacity:0.3;" d="M 268.042969 297.039062 L 262.085938 297.75 L 256.132812 281.6875 L 267.925781 270.238281 L 285.59375 243.816406 L 304.289062 219.289062 L 308.570312 236.003906 L 303.152344 246.839844 Z M 268.042969 297.039062 "/>
<path style=" stroke:none;fill-rule:nonzero;fill:rgb(39.99939%,39.99939%,39.99939%);fill-opacity:0.3;" d="M 109.902344 263.042969 L 94.597656 308.570312 L 85.042969 305.121094 L 97.003906 259.433594 Z M 109.902344 263.042969 "/>
<path style=" stroke:none;fill-rule:nonzero;fill:rgb(39.99939%,39.99939%,39.99939%);fill-opacity:0.3;" d="M 141.519531 281.140625 L 142.570312 282.363281 L 144.1875 283.933594 L 145.859375 286.777344 L 148.863281 291.671875 L 150.132812 296.234375 L 150.132812 299.53125 L 149.6875 300.878906 L 127.039062 295.863281 L 132.457031 276.40625 Z M 141.519531 281.140625 "/>
<path style=" stroke:none;fill-rule:nonzero;fill:rgb(39.99939%,39.99939%,39.99939%);fill-opacity:0.3;" d="M 197.417969 159.480469 L 191.925781 145.269531 L 207.324219 138.945312 L 214.847656 155.019531 Z M 197.417969 159.480469 "/>
<path style=" stroke:none;fill-rule:nonzero;fill:rgb(39.99939%,39.99939%,39.99939%);fill-opacity:0.3;" d="M 283.746094 124.335938 L 283.898438 124.417969 L 280.976562 128.410156 L 257.734375 142.671875 L 248.269531 145.839844 L 239.703125 148.664062 L 230.902344 150.914062 Z M 283.746094 124.335938 "/>
<path style=" stroke:none;fill-rule:nonzero;fill:rgb(39.99939%,39.99939%,39.99939%);fill-opacity:0.3;" d="M 123.480469 289.789062 L 123.992188 290.042969 L 127.640625 274.925781 L 130.714844 275.804688 L 125.449219 296.988281 L 122.550781 296.167969 L 122.453125 296.472656 Z M 123.480469 289.789062 "/>
<path style=" stroke:none;fill-rule:nonzero;fill:rgb(39.99939%,39.99939%,39.99939%);fill-opacity:0.3;" d="M 300.546875 132.382812 L 268.140625 149.636719 L 258.683594 153.214844 L 230.316406 155.515625 L 225.773438 154.644531 L 254.308594 147.210938 L 261.136719 143.117188 L 289.246094 127.167969 Z M 300.546875 132.382812 "/>
<path style=" stroke:none;fill-rule:nonzero;fill:rgb(39.99939%,39.99939%,39.99939%);fill-opacity:0.3;" d="M 171.808594 146.59375 L 164.882812 146.167969 L 164.046875 145.484375 Z M 171.808594 146.59375 "/>
<path style=" stroke:none;fill-rule:nonzero;fill:rgb(39.99939%,39.99939%,39.99939%);fill-opacity:0.3;" d="M 97.832031 233.472656 L 84.796875 280.839844 L 80.671875 299.167969 L 51.429688 273.078125 L 89.328125 227.441406 Z M 97.832031 233.472656 "/>
<path style=" stroke:none;fill-rule:nonzero;fill:rgb(39.99939%,39.99939%,39.99939%);fill-opacity:0.3;" d="M 297.414062 202.40625 L 298.8125 197.015625 L 302.507812 213.703125 Z M 297.414062 202.40625 "/>
<path style=" stroke:none;fill-rule:nonzero;fill:rgb(39.99939%,39.99939%,39.99939%);fill-opacity:0.3;" d="M 201.464844 304.269531 L 199.867188 305.171875 L 198.625 304.128906 Z M 201.464844 304.269531 "/>
<path style=" stroke:none;fill-rule:nonzero;fill:rgb(39.99939%,39.99939%,39.99939%);fill-opacity:0.3;" d="M 252.007812 300.042969 L 250.472656 300.355469 L 235.820312 297.085938 Z M 252.007812 300.042969 "/>
<path style=" stroke:none;fill-rule:nonzero;fill:rgb(39.99939%,39.99939%,39.99939%);fill-opacity:0.3;" d="M 123.53125 298.359375 L 141.066406 300.089844 L 140.707031 303.535156 L 122.035156 302.890625 Z M 123.53125 298.359375 "/>
<path style=" stroke:none;fill-rule:nonzero;fill:rgb(39.99939%,39.99939%,39.99939%);fill-opacity:0.3;" d="M 347.941406 174.171875 L 349.988281 184.0625 L 329.152344 188.890625 L 307.664062 193.871094 L 306.949219 186.527344 L 307.21875 183.382812 L 347.660156 173.003906 Z M 347.941406 174.171875 "/>
<path style=" stroke:none;fill-rule:nonzero;fill:rgb(39.99939%,39.99939%,39.99939%);fill-opacity:0.3;" d="M 295.726562 320.054688 L 313.105469 293.449219 L 311.960938 299.390625 Z M 295.726562 320.054688 "/>
<path style=" stroke:none;fill-rule:nonzero;fill:rgb(39.99939%,39.99939%,39.99939%);fill-opacity:0.3;" d="M 253.671875 341.660156 L 273.023438 338.089844 L 275.6875 344.773438 L 273.351562 347.949219 L 238.234375 357.460938 L 220.992188 349.175781 Z M 253.671875 341.660156 "/>
<path style=" stroke:none;fill-rule:nonzero;fill:rgb(39.99939%,39.99939%,39.99939%);fill-opacity:0.3;" d="M 260.902344 303.003906 L 272.507812 333.738281 L 271.300781 334.617188 L 213.527344 346.628906 L 211.128906 342.921875 L 248.515625 304.929688 Z M 260.902344 303.003906 "/>
<path style=" stroke:none;fill-rule:nonzero;fill:rgb(39.99939%,39.99939%,39.99939%);fill-opacity:0.3;" d="M 312.875 290.441406 L 280.292969 336.472656 L 278.140625 341.222656 L 263.335938 301.578125 Z M 312.875 290.441406 "/>
<path style=" stroke:none;fill-rule:nonzero;fill:rgb(39.99939%,39.99939%,39.99939%);fill-opacity:0.3;" d="M 325.324219 272.183594 L 321.460938 276.152344 L 315.578125 253.140625 L 329.152344 250.050781 L 343.8125 246.714844 L 325.914062 269.433594 Z M 325.324219 272.183594 "/>
<path style=" stroke:none;fill-rule:nonzero;fill:rgb(39.99939%,39.99939%,39.99939%);fill-opacity:0.3;" d="M 273.234375 294.957031 L 301.207031 255.671875 L 313.675781 253.207031 L 320.113281 278.246094 L 314.585938 287.992188 L 272.066406 296.765625 Z M 273.234375 294.957031 "/>
<path style=" stroke:none;fill-rule:nonzero;fill:rgb(39.99939%,39.99939%,39.99939%);fill-opacity:0.3;" d="M 301.460938 253.390625 L 310.234375 241.042969 L 312.582031 251.714844 Z M 301.460938 253.390625 "/>
<path style=" stroke:none;fill-rule:nonzero;fill:rgb(39.99939%,39.99939%,39.99939%);fill-opacity:0.3;" d="M 308.570312 236.003906 L 309.152344 238.261719 L 303.152344 246.839844 Z M 308.570312 236.003906 "/>
<path style=" stroke:none;fill-rule:nonzero;fill:rgb(39.99939%,39.99939%,39.99939%);fill-opacity:0.3;" d="M 323.277344 281.730469 L 322.175781 277.640625 L 324.710938 275.050781 Z M 323.277344 281.730469 "/>
<path style=" stroke:none;fill-rule:nonzero;fill:rgb(39.99939%,39.99939%,39.99939%);fill-opacity:0.3;" d="M 243.445312 358.792969 L 248.707031 357.304688 L 245.875 359.804688 Z M 243.445312 358.792969 "/>
<g clip-path="url(#clip4)" clip-rule="nonzero">
<path style=" stroke:none;fill-rule:nonzero;fill:rgb(39.99939%,39.99939%,39.99939%);fill-opacity:0.3;" d="M 329.152344 220.46875 L 358.078125 212.941406 L 363.53125 231.476562 L 365.71875 239.070312 L 347.25 242.351562 L 345.632812 244.410156 L 329.152344 248.289062 L 314.804688 251.667969 L 311.546875 239.152344 L 322.648438 222.160156 Z M 329.152344 220.46875 "/>
</g>
<path style=" stroke:none;fill-rule:nonzero;fill:rgb(39.99939%,39.99939%,39.99939%);fill-opacity:0.3;" d="M 305.761719 218.191406 L 317.40625 206.882812 L 329.152344 204.042969 L 353.046875 198.265625 L 356.804688 211.199219 L 329.152344 218.539062 L 320.828125 220.746094 L 310.277344 236.527344 Z M 305.761719 218.191406 "/>
<path style=" stroke:none;fill-rule:nonzero;fill:rgb(39.99939%,39.99939%,39.99939%);fill-opacity:0.3;" d="M 304.707031 217.132812 L 300.105469 197.144531 L 329.152344 190.777344 L 349.792969 186.25 L 352.4375 196.625 L 329.152344 202.339844 L 316.328125 205.484375 Z M 304.707031 217.132812 "/>
<path style=" stroke:none;fill-rule:nonzero;fill:rgb(39.99939%,39.99939%,39.99939%);fill-opacity:0.3;" d="M 152.652344 314.34375 L 154.113281 317.335938 L 155.9375 320.371094 L 158.679688 321.894531 L 184.972656 328.589844 L 193.675781 318.679688 L 202.992188 309.183594 L 215.230469 300.304688 L 222.367188 297.753906 L 246.804688 303.222656 L 206.625 344.101562 L 203.425781 344.09375 L 183.792969 337.332031 L 175.34375 335.363281 L 168.492188 332.746094 L 97.242188 309.351562 L 112.503906 263.824219 L 126.882812 268.328125 L 125.445312 275.09375 L 121.933594 289.015625 L 123.480469 289.789062 L 122.453125 296.472656 L 120.1875 303.648438 L 150.25 310.042969 Z M 152.652344 314.34375 "/>
<path style=" stroke:none;fill-rule:nonzero;fill:rgb(39.99939%,39.99939%,39.99939%);fill-opacity:0.3;" d="M 79.617188 315.554688 L 90.695312 318.417969 L 84.628906 343.921875 L 70.660156 339.941406 Z M 79.617188 315.554688 "/>
<g clip-path="url(#clip5)" clip-rule="nonzero">
<path style=" stroke:none;fill-rule:nonzero;fill:rgb(39.99939%,39.99939%,39.99939%);fill-opacity:0.3;" d="M 69.921875 344.269531 L 83.90625 348.53125 L 79.695312 368.464844 L 63.519531 363.152344 Z M 69.921875 344.269531 "/>
</g>
<g clip-path="url(#clip6)" clip-rule="nonzero">
<path style=" stroke:none;fill-rule:nonzero;fill:rgb(39.99939%,39.99939%,39.99939%);fill-opacity:0.3;" d="M 196.273438 411.90625 L 175.34375 457.582031 L 175.230469 457.738281 L 150.761719 472.527344 L 146.035156 475.855469 L 145.398438 476.378906 L 144.839844 476.996094 L 144.355469 477.710938 L 143.882812 478.578125 L 143.601562 479.5 L 120.15625 539.308594 L 13.636719 498.359375 L 12.921875 497.949219 L 12.492188 497.335938 L 12.273438 496.253906 L 12.269531 495.304688 L 12.550781 494.421875 L 13.117188 493.066406 L 41.789062 419.691406 L 42.066406 419.523438 L 42.71875 419.527344 L 70.3125 427.234375 L 71.253906 427.234375 L 72.046875 427.097656 L 72.699219 426.824219 L 73.210938 426.347656 L 73.648438 425.664062 L 73.941406 424.773438 L 74.019531 423.75 L 77.097656 406.316406 L 88.015625 407.855469 L 88.234375 406.09375 L 88.453125 404.335938 L 78.289062 402.789062 L 78.023438 402.578125 L 77.753906 402.152344 L 77.753906 401.683594 L 78.273438 388.722656 L 78.597656 385.984375 L 83.4375 362.234375 L 94.179688 366.144531 L 95.996094 366.609375 L 97.722656 366.9375 L 100.640625 367.140625 L 102.472656 367.222656 L 104.226562 367.070312 L 106.386719 366.273438 L 112.773438 362.4375 L 114.34375 361.152344 L 116.261719 360.164062 L 134.558594 353.050781 L 136.445312 352.683594 L 144.433594 352.015625 L 147.660156 351.761719 L 149.320312 351.765625 L 150.519531 351.941406 L 155.769531 356.675781 L 158.628906 356.246094 L 157.761719 350.78125 L 156.890625 345.316406 L 153.9375 345.484375 L 150.429688 349.144531 L 149.878906 349.496094 L 148.953125 349.84375 L 148.03125 349.925781 L 142.589844 350.261719 L 138.71875 350.691406 L 135.953125 351.035156 L 132.628906 351.8125 L 113.488281 359.453125 L 111.457031 360.683594 L 110.011719 361.503906 L 108.707031 362.1875 L 106.824219 363.003906 L 104.652344 363.6875 L 103.058594 364.09375 L 98.730469 364.980469 L 97.476562 364.886719 L 83.703125 360.464844 L 88.496094 336.652344 L 90.121094 329.796875 L 92.601562 320.121094 L 221.132812 360.734375 L 221.691406 360.984375 L 222.023438 361.238281 L 222.1875 361.582031 L 222.285156 362.050781 L 222.285156 362.488281 L 222.25 363.023438 L 212.230469 383.8125 L 211.75 384.355469 L 210.984375 384.984375 L 210.21875 385.34375 L 209.359375 385.523438 L 208.691406 385.703125 L 208.210938 385.882812 L 207.824219 386.785156 Z M 196.273438 411.90625 "/>
</g>
<g clip-path="url(#clip7)" clip-rule="nonzero">
<path style=" stroke:none;fill-rule:nonzero;fill:rgb(39.99939%,39.99939%,39.99939%);fill-opacity:0.3;" d="M 358.117188 203.75 L 349.0625 168.371094 L 386.003906 172.820312 L 380.277344 198.484375 Z M 358.117188 203.75 "/>
</g>
<g clip-path="url(#clip8)" clip-rule="nonzero">
<path style=" stroke:none;fill-rule:nonzero;fill:rgb(39.99939%,39.99939%,39.99939%);fill-opacity:0.3;" d="M 399.605469 161.492188 L 402.511719 173.246094 L 348.421875 167.1875 L 343.703125 152.941406 Z M 399.605469 161.492188 "/>
</g>
<path style=" stroke:none;fill-rule:nonzero;fill:rgb(39.99939%,39.99939%,39.99939%);fill-opacity:0.3;" d="M 347.53125 172.175781 L 347.941406 174.171875 L 347.660156 173.003906 L 307.21875 183.382812 L 307.492188 180.199219 L 329.152344 175.859375 Z M 347.53125 172.175781 "/>
<path style=" stroke:none;fill-rule:nonzero;fill:rgb(39.99939%,39.99939%,39.99939%);fill-opacity:0.3;" d="M 329.152344 162.015625 L 311.773438 165.988281 L 329.152344 154.605469 L 339.515625 147.816406 L 344.042969 158.609375 Z M 329.152344 162.015625 "/>
<path style=" stroke:none;fill-rule:nonzero;fill:rgb(39.99939%,39.99939%,39.99939%);fill-opacity:0.3;" d="M 338.65625 118.859375 L 332.925781 134.339844 L 322.035156 133.738281 L 325.503906 126.226562 L 334.121094 118.429688 Z M 338.65625 118.859375 "/>
<g clip-path="url(#clip9)" clip-rule="nonzero">
<path style=" stroke:none;fill-rule:nonzero;fill:rgb(39.99939%,39.99939%,39.99939%);fill-opacity:0.3;" d="M 358.453125 205.789062 L 374.828125 201.953125 L 384.566406 234.355469 L 368.019531 238.492188 Z M 358.453125 205.789062 "/>
</g>
<path style=" stroke:none;fill-rule:nonzero;fill:rgb(39.99939%,39.99939%,39.99939%);fill-opacity:0.3;" d="M 309.683594 168.199219 L 329.152344 164.269531 L 344.476562 161.175781 L 347.132812 170.195312 L 329.152344 174.039062 L 309.121094 178.316406 Z M 309.683594 168.199219 "/>
<g clip-path="url(#clip10)" clip-rule="nonzero">
<path style=" stroke:none;fill-rule:nonzero;fill:rgb(39.99939%,39.99939%,39.99939%);fill-opacity:0.3;" d="M 492.25 183.128906 L 462.144531 178.566406 L 458.5625 166.601562 L 466.4375 167.535156 L 466.761719 162.621094 L 465.992188 162.578125 L 465.222656 162.539062 L 465.34375 166.53125 L 458.34375 165.8125 L 449.8125 164.929688 L 449.199219 159.914062 L 448.195312 159.675781 L 447.195312 159.441406 L 447.527344 164.695312 L 405.398438 160.351562 L 400.566406 160.042969 L 391.445312 158.589844 L 342.785156 151.46875 L 344.382812 142.632812 L 488.929688 158.578125 Z M 492.25 183.128906 "/>
</g>
<path style=" stroke:none;fill-rule:nonzero;fill:rgb(39.99939%,39.99939%,39.99939%);fill-opacity:0.3;" d="M 224.324219 82.746094 L 268.886719 -95.488281 L 287.820312 -74.070312 L 288.132812 -70.464844 L 244.625 61.539062 Z M 224.324219 82.746094 "/>
<path style=" stroke:none;fill-rule:nonzero;fill:rgb(39.99939%,39.99939%,39.99939%);fill-opacity:0.3;" d="M 226.753906 85.113281 L 245.441406 67.414062 L 250.15625 54.375 L 267.273438 58.773438 L 254.742188 90.824219 Z M 226.753906 85.113281 "/>
<path style=" stroke:none;fill-rule:nonzero;fill:rgb(39.99939%,39.99939%,39.99939%);fill-opacity:0.3;" d="M 250.707031 52.359375 L 264.152344 12.800781 L 281.757812 17.292969 L 268.019531 57.03125 Z M 250.707031 52.359375 "/>
<path style=" stroke:none;fill-rule:nonzero;fill:rgb(39.99939%,39.99939%,39.99939%);fill-opacity:0.3;" d="M 294.386719 102.421875 L 301.894531 104.097656 L 288.601562 116.367188 Z M 294.386719 102.421875 "/>
<path style=" stroke:none;fill-rule:nonzero;fill:rgb(39.99939%,39.99939%,39.99939%);fill-opacity:0.3;" d="M 247.226562 91.894531 L 248.566406 92.195312 L 248.359375 92.167969 Z M 247.226562 91.894531 "/>
<path style=" stroke:none;fill-rule:nonzero;fill:rgb(39.99939%,39.99939%,39.99939%);fill-opacity:0.3;" d="M 322.25 72 L 316.023438 89.992188 L 309.773438 89.09375 L 303.992188 101.660156 L 296.261719 99.695312 L 310.925781 64.578125 L 314.855469 69.308594 Z M 322.25 72 "/>
<path style=" stroke:none;fill-rule:nonzero;fill:rgb(39.99939%,39.99939%,39.99939%);fill-opacity:0.3;" d="M 294.148438 44.480469 L 309.675781 62.550781 L 294.339844 99.203125 L 275.203125 95.582031 Z M 294.148438 44.480469 "/>
<path style=" stroke:none;fill-rule:nonzero;fill:rgb(39.99939%,39.99939%,39.99939%);fill-opacity:0.3;" d="M 291.703125 115.457031 L 304.949219 103.730469 L 311.007812 90.835938 L 315.316406 91.671875 L 314.148438 105.582031 L 307.4375 131.066406 L 288.429688 123.960938 L 286.183594 122.183594 L 287.371094 119.324219 L 289.503906 117.46875 L 297.003906 121.804688 L 297.890625 120.679688 L 298.777344 119.550781 Z M 291.703125 115.457031 "/>
<path style=" stroke:none;fill-rule:nonzero;fill:rgb(39.99939%,39.99939%,39.99939%);fill-opacity:0.3;" d="M 279.664062 30.40625 L 291.804688 42.191406 L 283.855469 64.3125 L 269.289062 59.734375 Z M 279.664062 30.40625 "/>
<path style=" stroke:none;fill-rule:nonzero;fill:rgb(39.99939%,39.99939%,39.99939%);fill-opacity:0.3;" d="M 268.738281 62.128906 L 282.90625 66.609375 L 272.464844 94.910156 L 257.164062 91.371094 Z M 268.738281 62.128906 "/>
<g clip-path="url(#clip11)" clip-rule="nonzero">
<path style=" stroke:none;fill-rule:nonzero;fill:rgb(39.99939%,39.99939%,39.99939%);fill-opacity:0.3;" d="M 292.902344 39.542969 L 284.972656 32.117188 L 285.667969 15.003906 L 265.042969 9.863281 L 289.105469 -65.28125 L 307.824219 -60.050781 L 325.515625 -56.128906 L 361.410156 -49.199219 L 353.488281 -35.796875 L 346.535156 -20.566406 L 351.5 9.0625 L 355.699219 43.644531 L 354.394531 72.089844 L 348.542969 92.132812 L 338.65625 118.859375 L 334.121094 118.429688 L 325.503906 126.226562 L 322.035156 133.738281 L 318.371094 133.535156 L 314 129.757812 L 319.777344 110.222656 L 321.957031 103.203125 L 323.742188 93.980469 L 326.332031 78.4375 L 327.734375 73.167969 L 336.5 45.371094 L 334.667969 44.839844 L 332.835938 44.3125 L 322.226562 68.328125 L 317.117188 66.738281 L 311.257812 59.6875 L 317.785156 40.988281 L 317.054688 40.679688 L 316.324219 40.367188 L 309.605469 58.484375 L 303.5 49.90625 L 295.554688 41.472656 L 298.890625 33.632812 L 296.257812 32.09375 Z M 292.902344 39.542969 "/>
</g>
<path style=" stroke:none;fill-rule:nonzero;fill:rgb(39.99939%,39.99939%,39.99939%);fill-opacity:0.3;" d="M 289.359375 127.101562 L 300.90625 132.191406 L 300.546875 132.382812 L 289.246094 127.167969 Z M 289.359375 127.101562 "/>
<path style="fill-rule:nonzero;fill:rgb(39.99939%,39.99939%,39.99939%);fill-opacity:1;stroke-width:0.03;stroke-linecap:square;stroke-linejoin:miter;stroke:rgb(39.99939%,39.99939%,39.99939%);stroke-opacity:1;stroke-miterlimit:3.239307;" d="M 235.097656 161.761719 L 256.136719 161.859375 L 257.472656 161.257812 L 258.34375 161.382812 L 263.269531 159.359375 L 268.457031 173.605469 L 208.042969 212.378906 L 198.292969 218.117188 L 191.027344 245.699219 L 192.40625 257.25 L 197.058594 259.511719 L 203.785156 267.585938 L 200.761719 278.445312 L 193.75 276.410156 L 185 273.9375 L 187.109375 267.820312 L 186.417969 267.601562 L 185.726562 267.386719 L 183.53125 273.523438 L 172.140625 270.308594 L 188.175781 208.253906 L 191.792969 201.300781 L 222.226562 174.207031 L 235.089844 184.941406 L 235.453125 184.550781 L 236.121094 183.824219 L 223.359375 173.171875 Z M 235.097656 161.761719 " transform="matrix(1,0,0,1,-74,-13)"/>
<path style="fill-rule:nonzero;fill:rgb(39.99939%,39.99939%,39.99939%);fill-opacity:1;stroke-width:0.03;stroke-linecap:square;stroke-linejoin:miter;stroke:rgb(39.99939%,39.99939%,39.99939%);stroke-opacity:1;stroke-miterlimit:3.239307;" d="M 267.921875 243.796875 L 279.222656 233.730469 L 286.621094 227.347656 L 295.253906 222.527344 L 304.910156 219.273438 L 311.28125 219.507812 L 316.214844 220.703125 L 321.761719 223.074219 L 325.253906 226.984375 L 325.25 233.398438 L 322.734375 237.695312 L 313.117188 244.214844 L 304.28125 248.835938 L 288.457031 256.148438 L 278.59375 260.578125 L 271.816406 261.714844 L 267.710938 260.527344 L 265.65625 256.046875 L 265.25 250.402344 L 266.277344 246.707031 Z M 267.921875 243.796875 " transform="matrix(1,0,0,1,-74,-13)"/>
<path style="fill-rule:nonzero;fill:rgb(39.99939%,39.99939%,39.99939%);fill-opacity:1;stroke-width:0.03;stroke-linecap:square;stroke-linejoin:miter;stroke:rgb(39.99939%,39.99939%,39.99939%);stroke-opacity:1;stroke-miterlimit:3.239307;" d="M 328.585938 291.402344 L 326.105469 285.832031 L 343.78125 256.835938 L 347.722656 248.933594 L 354.207031 244.074219 L 361.914062 234.9375 L 366.675781 228.773438 L 370.765625 217.910156 L 371.414062 215.40625 L 376.507812 226.703125 L 377.320312 230.355469 L 359.746094 252.546875 L 355.007812 260.042969 L 348.972656 267.339844 L 345.34375 273.519531 L 342.398438 277.351562 L 339.90625 282.257812 L 329.265625 292.6875 Z M 328.585938 291.402344 " transform="matrix(1,0,0,1,-74,-13)"/>
<path style="fill-rule:nonzero;fill:rgb(39.99939%,39.99939%,39.99939%);fill-opacity:1;stroke-width:0.03;stroke-linecap:square;stroke-linejoin:miter;stroke:rgb(39.99939%,39.99939%,39.99939%);stroke-opacity:1;stroke-miterlimit:3.239307;" d="M 301.367188 308.199219 L 294.707031 306.710938 L 284.878906 311.960938 L 275.464844 317.269531 L 272.625 317.128906 L 261.355469 307.660156 L 262.691406 307.019531 L 266.796875 306.730469 L 272.722656 306.582031 L 277.285156 304.996094 L 283.515625 304.128906 L 288.683594 301.386719 L 292.9375 298.9375 L 297.648438 296.777344 L 307.683594 294.609375 L 323.511719 288.765625 L 333.644531 311.503906 L 326.007812 313.042969 L 309.820312 310.085938 L 304.183594 308.828125 L 304.402344 302.527344 L 301.566406 302.433594 Z M 301.367188 308.199219 " transform="matrix(1,0,0,1,-74,-13)"/>
<path style="fill-rule:nonzero;fill:rgb(39.99939%,39.99939%,39.99939%);fill-opacity:1;stroke-width:0.03;stroke-linecap:square;stroke-linejoin:miter;stroke:rgb(39.99939%,39.99939%,39.99939%);stroke-opacity:1;stroke-miterlimit:3.239307;" d="M 207.304688 267.789062 L 207.296875 275.558594 L 209.078125 279.921875 L 210.070312 282.144531 L 211.800781 283.316406 L 213.53125 285.65625 L 215.273438 287.574219 L 217.871094 288.859375 L 218.613281 289.558594 L 219.105469 291.199219 L 219.011719 293.910156 L 216.984375 292.855469 L 216.382812 292.398438 L 216.683594 291.710938 L 216.144531 291.136719 L 203.707031 285.421875 L 203.917969 279.011719 L 206.78125 279.097656 L 206.710938 280.820312 L 206.914062 280.78125 L 207.113281 280.742188 L 207.136719 278.707031 L 203.859375 278.574219 L 204.0625 274.582031 L 206.269531 267.222656 Z M 207.304688 267.789062 " transform="matrix(1,0,0,1,-74,-13)"/>
<path style="fill-rule:nonzero;fill:rgb(39.99939%,39.99939%,39.99939%);fill-opacity:1;stroke-width:0.03;stroke-linecap:square;stroke-linejoin:miter;stroke:rgb(39.99939%,39.99939%,39.99939%);stroke-opacity:1;stroke-miterlimit:3.239307;" d="M 173.273438 244.328125 L 149.527344 227.164062 L 169.671875 200.675781 L 181.140625 208.609375 Z M 173.273438 244.328125 " transform="matrix(1,0,0,1,-74,-13)"/>
<path style="fill-rule:nonzero;fill:rgb(39.99939%,39.99939%,39.99939%);fill-opacity:1;stroke-width:0.03;stroke-linecap:square;stroke-linejoin:miter;stroke:rgb(39.99939%,39.99939%,39.99939%);stroke-opacity:1;stroke-miterlimit:3.239307;" d="M 196.660156 167.949219 L 207.601562 176.242188 L 180.808594 203.625 L 172.9375 197.820312 Z M 196.660156 167.949219 " transform="matrix(1,0,0,1,-74,-13)"/>
<path style="fill-rule:nonzero;fill:rgb(39.99939%,39.99939%,39.99939%);fill-opacity:1;stroke-width:0.03;stroke-linecap:square;stroke-linejoin:miter;stroke:rgb(39.99939%,39.99939%,39.99939%);stroke-opacity:1;stroke-miterlimit:3.239307;" d="M 233.0625 150.816406 L 210.941406 173.5 L 210.460938 173.171875 Z M 233.0625 150.816406 " transform="matrix(1,0,0,1,-74,-13)"/>
<path style="fill-rule:nonzero;fill:rgb(39.99939%,39.99939%,39.99939%);fill-opacity:1;stroke-width:0.03;stroke-linecap:square;stroke-linejoin:miter;stroke:rgb(39.99939%,39.99939%,39.99939%);stroke-opacity:1;stroke-miterlimit:3.239307;" d="M 345.925781 309.792969 L 347.234375 307.957031 L 346.066406 309.765625 Z M 345.925781 309.792969 " transform="matrix(1,0,0,1,-74,-13)"/>
<path style="fill-rule:nonzero;fill:rgb(39.99939%,39.99939%,39.99939%);fill-opacity:1;stroke-width:0.03;stroke-linecap:square;stroke-linejoin:miter;stroke:rgb(39.99939%,39.99939%,39.99939%);stroke-opacity:1;stroke-miterlimit:3.239307;" d="M 342.042969 310.039062 L 336.085938 310.75 L 330.132812 294.6875 L 341.925781 283.238281 L 359.59375 256.816406 L 378.289062 232.289062 L 382.570312 249.003906 L 377.152344 259.839844 Z M 342.042969 310.039062 " transform="matrix(1,0,0,1,-74,-13)"/>
<path style="fill-rule:nonzero;fill:rgb(39.99939%,39.99939%,39.99939%);fill-opacity:1;stroke-width:0.03;stroke-linecap:square;stroke-linejoin:miter;stroke:rgb(39.99939%,39.99939%,39.99939%);stroke-opacity:1;stroke-miterlimit:3.239307;" d="M 183.902344 276.042969 L 168.597656 321.570312 L 159.042969 318.121094 L 171.003906 272.433594 Z M 183.902344 276.042969 " transform="matrix(1,0,0,1,-74,-13)"/>
<path style="fill-rule:nonzero;fill:rgb(39.99939%,39.99939%,39.99939%);fill-opacity:1;stroke-width:0.03;stroke-linecap:square;stroke-linejoin:miter;stroke:rgb(39.99939%,39.99939%,39.99939%);stroke-opacity:1;stroke-miterlimit:3.239307;" d="M 215.519531 294.140625 L 216.570312 295.363281 L 218.1875 296.933594 L 219.859375 299.777344 L 222.863281 304.671875 L 224.132812 309.234375 L 224.132812 312.53125 L 223.6875 313.878906 L 201.039062 308.863281 L 206.457031 289.40625 Z M 215.519531 294.140625 " transform="matrix(1,0,0,1,-74,-13)"/>
<path style="fill-rule:nonzero;fill:rgb(39.99939%,39.99939%,39.99939%);fill-opacity:1;stroke-width:0.03;stroke-linecap:square;stroke-linejoin:miter;stroke:rgb(39.99939%,39.99939%,39.99939%);stroke-opacity:1;stroke-miterlimit:3.239307;" d="M 271.417969 172.480469 L 265.925781 158.269531 L 281.324219 151.945312 L 288.847656 168.019531 Z M 271.417969 172.480469 " transform="matrix(1,0,0,1,-74,-13)"/>
<path style="fill-rule:nonzero;fill:rgb(39.99939%,39.99939%,39.99939%);fill-opacity:1;stroke-width:0.03;stroke-linecap:square;stroke-linejoin:miter;stroke:rgb(39.99939%,39.99939%,39.99939%);stroke-opacity:1;stroke-miterlimit:3.239307;" d="M 357.746094 137.335938 L 357.898438 137.417969 L 354.976562 141.410156 L 331.734375 155.671875 L 322.269531 158.839844 L 313.703125 161.664062 L 304.902344 163.914062 Z M 357.746094 137.335938 " transform="matrix(1,0,0,1,-74,-13)"/>
<path style="fill-rule:nonzero;fill:rgb(39.99939%,39.99939%,39.99939%);fill-opacity:1;stroke-width:0.03;stroke-linecap:square;stroke-linejoin:miter;stroke:rgb(39.99939%,39.99939%,39.99939%);stroke-opacity:1;stroke-miterlimit:3.239307;" d="M 197.480469 302.789062 L 197.992188 303.042969 L 201.640625 287.925781 L 204.714844 288.804688 L 199.449219 309.988281 L 196.550781 309.167969 L 196.453125 309.472656 Z M 197.480469 302.789062 " transform="matrix(1,0,0,1,-74,-13)"/>
<path style="fill-rule:nonzero;fill:rgb(39.99939%,39.99939%,39.99939%);fill-opacity:1;stroke-width:0.03;stroke-linecap:square;stroke-linejoin:miter;stroke:rgb(39.99939%,39.99939%,39.99939%);stroke-opacity:1;stroke-miterlimit:3.239307;" d="M 374.546875 145.382812 L 342.140625 162.636719 L 332.683594 166.214844 L 304.316406 168.515625 L 299.773438 167.644531 L 328.308594 160.210938 L 335.136719 156.117188 L 363.246094 140.167969 Z M 374.546875 145.382812 " transform="matrix(1,0,0,1,-74,-13)"/>
<path style="fill-rule:nonzero;fill:rgb(39.99939%,39.99939%,39.99939%);fill-opacity:1;stroke-width:0.03;stroke-linecap:square;stroke-linejoin:miter;stroke:rgb(39.99939%,39.99939%,39.99939%);stroke-opacity:1;stroke-miterlimit:3.239307;" d="M 245.808594 159.59375 L 238.882812 159.167969 L 238.046875 158.484375 Z M 245.808594 159.59375 " transform="matrix(1,0,0,1,-74,-13)"/>
<path style="fill-rule:nonzero;fill:rgb(39.99939%,39.99939%,39.99939%);fill-opacity:1;stroke-width:0.03;stroke-linecap:square;stroke-linejoin:miter;stroke:rgb(39.99939%,39.99939%,39.99939%);stroke-opacity:1;stroke-miterlimit:3.239307;" d="M 171.832031 246.472656 L 158.796875 293.839844 L 154.671875 312.167969 L 125.429688 286.078125 L 163.328125 240.441406 Z M 171.832031 246.472656 " transform="matrix(1,0,0,1,-74,-13)"/>
</g>
</svg>
