<?xml version="1.0" encoding="UTF-8"?>
<svg xmlns="http://www.w3.org/2000/svg" xmlns:xlink="http://www.w3.org/1999/xlink" width="361pt" height="361pt" viewBox="0 0 361 361" version="1.1">
<defs>
<clipPath id="clip1">
  <path d="M 340 0 L 360 0 L 360 8 L 340 8 Z M 340 0 "/>
</clipPath>
<clipPath id="clip2">
  <path d="M 323 0 L 360 0 L 360 172 L 323 172 Z M 323 0 "/>
</clipPath>
<clipPath id="clip3">
  <path d="M 0 253 L 222 253 L 222 360 L 0 360 Z M 0 253 "/>
</clipPath>
<clipPath id="clip4">
  <path d="M 211 179 L 360 179 L 360 360 L 211 360 Z M 211 179 "/>
</clipPath>
<clipPath id="clip5">
  <path d="M 227 251 L 360 251 L 360 360 L 227 360 Z M 227 251 "/>
</clipPath>
<clipPath id="clip6">
  <path d="M 343 198 L 360 198 L 360 227 L 343 227 Z M 343 198 "/>
</clipPath>
<clipPath id="clip7">
  <path d="M 322 91 L 360 91 L 360 118 L 322 118 Z M 322 91 "/>
</clipPath>
<clipPath id="clip8">
  <path d="M 304 95 L 360 95 L 360 199 L 304 199 Z M 304 95 "/>
</clipPath>
<clipPath id="clip9">
  <path d="M 356 191 L 360 191 L 360 199 L 356 199 Z M 356 191 "/>
</clipPath>
</defs>
<g id="surface3003">
<path style="fill-rule:nonzero;fill:rgb(0%,0%,0%);fill-opacity:1;stroke-width:0.03;stroke-linecap:square;stroke-linejoin:miter;stroke:rgb(0%,0%,0%);stroke-opacity:1;stroke-miterlimit:10;" d="M 0 178 L 360 178 L 360 -182 L 0 -182 Z M 0 178 " transform="matrix(1,0,0,1,0,182)"/>
<g clip-path="url(#clip1)" clip-rule="nonzero">
<path style=" stroke:none;fill-rule:nonzero;fill:rgb(39.99939%,39.99939%,39.99939%);fill-opacity:0.3;" d="M 356.601562 -70.9375 L 382.914062 -79.398438 L 378.375 3.871094 L 378.414062 5.957031 L 378.003906 7.328125 L 373.261719 6.679688 L 370.34375 4.296875 L 340.671875 -1.023438 Z M 356.601562 -70.9375 "/>
</g>
<g clip-path="url(#clip2)" clip-rule="nonzero">
<path style=" stroke:none;fill-rule:nonzero;fill:rgb(39.99939%,39.99939%,39.99939%);fill-opacity:0.3;" d="M 649.296875 -7.457031 L 635.542969 9.304688 L 627.347656 18.460938 L 618.773438 29.117188 L 612.585938 39.996094 L 609.976562 49.511719 L 609.035156 58.570312 L 609.046875 65.589844 L 609.28125 71.640625 L 610.804688 76.375 L 611.738281 80.335938 L 611.945312 83.929688 L 610.519531 89.820312 L 609.339844 97.519531 L 605.0625 108.394531 L 600.546875 120.40625 L 593.804688 137.222656 L 584.058594 161.242188 L 579.78125 171.667969 L 578.957031 171.613281 L 574.320312 170.453125 L 558.671875 165.710938 L 545.394531 160.96875 L 534.488281 153.382812 L 524.054688 147.691406 L 522.957031 147.210938 L 515.28125 142.328125 L 507.398438 138.488281 L 496.890625 136.46875 L 487.578125 134.445312 L 474.910156 125.179688 L 458.65625 112.296875 L 448.4375 107.355469 L 445.8125 105.488281 L 429.691406 102.640625 L 422.101562 103.117188 L 415.464844 105.960938 L 403.609375 112.601562 L 395.074219 115.445312 L 384.640625 114.496094 L 364.726562 108.332031 L 337.222656 98.375 L 323.015625 91.273438 L 329.28125 49.035156 L 342.496094 49.773438 L 342.882812 47.9375 L 343.292969 45.972656 L 330.675781 45.234375 L 335.234375 23.835938 L 362.523438 24.695312 L 362.375 23.523438 L 362.230469 22.414062 L 334.542969 21.1875 L 339.988281 3.121094 L 366.714844 6.804688 L 371.171875 9.5 L 380.613281 9.453125 L 387.433594 9.714844 L 390.574219 10.699219 L 393.644531 12.386719 L 397.488281 14.953125 L 398.558594 14.582031 L 398.554688 12.449219 L 398.152344 4.851562 L 398.628906 -1.082031 L 399.597656 -3.953125 L 401.5625 -7.316406 L 405.335938 -10.511719 L 416.382812 -14.386719 L 415.375 -30.789062 L 412.265625 -39.367188 L 415.867188 -47.1875 L 427.433594 -52.851562 L 434.347656 -54.992188 L 440.949219 -59.449219 L 450.71875 -61.914062 L 456.25 -66.332031 L 461.285156 -68.585938 L 473.71875 -71.316406 L 491.027344 -72.992188 L 505.714844 -74.429688 L 525.171875 -79.167969 L 537.816406 -81.195312 L 548.777344 -82.933594 L 566.886719 -85.945312 L 572.707031 -87.53125 L 580.378906 -90.113281 L 593.679688 -100.957031 L 597.101562 -104.53125 L 598.796875 -103.507812 L 587.171875 -90.269531 L 574.992188 -85.140625 L 571.753906 -82.96875 L 567.191406 -76.898438 L 563.292969 -70.472656 L 559.855469 -63.09375 L 554.722656 -55.035156 L 550.1875 -46.546875 L 547.59375 -42.003906 L 545.027344 -36.570312 L 543.703125 -31.234375 L 546.292969 -22.734375 L 553.359375 -10.957031 L 556.640625 -5.882812 L 558.371094 -1.664062 L 558.824219 1.4375 L 558.539062 6.082031 L 555.402344 12.058594 L 535.433594 43.019531 L 517.515625 33.757812 L 520.070312 30.542969 L 504.867188 21.449219 L 504.539062 21.988281 L 504.203125 22.667969 L 495.675781 33.734375 L 499.484375 36.640625 L 500.976562 34.429688 L 502.867188 36.027344 L 498.023438 45.121094 L 496.730469 47.601562 L 496.640625 47.703125 L 495.136719 50.480469 L 488.214844 62.714844 L 487.851562 63.40625 L 487.492188 64.144531 L 479.746094 77.3125 L 478.664062 79.15625 L 474.964844 85.445312 L 465.835938 98.511719 L 465.175781 99.542969 L 464.433594 100.800781 L 523.660156 131.390625 L 524.570312 130.265625 L 525.726562 128.613281 L 533.054688 118.460938 L 533.679688 117.707031 L 534.242188 117.140625 L 545.289062 101.644531 L 547.742188 98.3125 L 551.003906 92.300781 L 554.980469 84.4375 L 558.582031 78.253906 L 567.242188 64.003906 L 561.472656 59.824219 L 561.382812 58.84375 L 560.894531 56.066406 L 560.160156 54.855469 L 554.171875 50.820312 L 542.082031 43.851562 L 539.0625 45.457031 L 537.628906 44.734375 L 550.183594 26.265625 L 556.730469 12.851562 L 560.269531 6.894531 L 561.71875 1.429688 L 561.894531 -1.847656 L 560.070312 -6.753906 L 556.339844 -12.691406 L 548.871094 -22.710938 L 546.28125 -32.003906 L 547.675781 -36.539062 L 549.734375 -40.851562 L 551.84375 -45.210938 L 552.65625 -47.070312 L 598.726562 -17.929688 L 570.296875 34.429688 L 585.535156 43.210938 L 623.257812 -3.980469 L 614.949219 -8.324219 L 630.945312 -37.160156 L 634.679688 -35.386719 L 636.855469 -39.222656 L 633.121094 -41.085938 L 640.476562 -54.472656 L 621.226562 -64.308594 L 618.378906 -59.773438 L 577.394531 -84.28125 L 588.625 -87.972656 L 601.636719 -103.382812 L 630.636719 -88.542969 L 619.238281 -67.222656 L 620.917969 -66.394531 L 622.59375 -65.5625 L 634.898438 -87.386719 L 652.589844 -78.574219 L 652.65625 -73.507812 L 644.5625 -57.101562 L 645.621094 -56.65625 L 646.675781 -56.210938 L 641.078125 -44.074219 L 633.816406 -32.128906 L 631 -30.324219 L 627.34375 -28.59375 L 620.359375 -12.40625 L 628.878906 -6.8125 L 635.710938 -15.960938 Z M 649.296875 -7.457031 "/>
</g>
<path style=" stroke:none;fill-rule:nonzero;fill:rgb(39.99939%,39.99939%,39.99939%);fill-opacity:0.3;" d="M 327.792969 40.84375 L 326.78125 44.972656 L 326.789062 44.789062 Z M 327.792969 40.84375 "/>
<path style=" stroke:none;fill-rule:nonzero;fill:rgb(39.99939%,39.99939%,39.99939%);fill-opacity:0.3;" d="M 85.828125 168.027344 L 85.355469 166.207031 L 85.476562 166.179688 Z M 85.828125 168.027344 "/>
<path style=" stroke:none;fill-rule:nonzero;fill:rgb(39.99939%,39.99939%,39.99939%);fill-opacity:0.3;" d="M 82.472656 161.246094 L 83.589844 164.894531 L 71.59375 167.066406 L 70.457031 162.914062 Z M 82.472656 161.246094 "/>
<path style=" stroke:none;fill-rule:nonzero;fill:rgb(39.99939%,39.99939%,39.99939%);fill-opacity:0.3;" d="M 38.675781 55.679688 L 28.375 59.214844 L 9.722656 66.269531 L -3.4375 72.484375 L -2.363281 68.265625 L 32.785156 54.746094 Z M 38.675781 55.679688 "/>
<path style=" stroke:none;fill-rule:nonzero;fill:rgb(39.99939%,39.99939%,39.99939%);fill-opacity:0.3;" d="M 85.164062 164.558594 L 84.527344 164.714844 L 83.402344 161.117188 L 84.472656 160.96875 Z M 85.164062 164.558594 "/>
<g clip-path="url(#clip3)" clip-rule="nonzero">
<path style=" stroke:none;fill-rule:nonzero;fill:rgb(39.99939%,39.99939%,39.99939%);fill-opacity:0.3;" d="M 37.65625 305.386719 L 37.746094 306.378906 L 37.832031 307.328125 L 50.285156 310.230469 L 41.777344 319.792969 L 32.746094 330.851562 L 24.5 341.519531 L 21.726562 341.890625 L 0.574219 334.277344 L 0.226562 334.921875 L -0.160156 335.632812 L 21.347656 344.011719 L 25.464844 343.625 L 34.621094 331.660156 L 43.316406 321.085938 L 60.164062 302.773438 L 64.417969 297.101562 L 65.773438 293.375 L 77.003906 253.007812 L 95.191406 254.269531 L 104.640625 265.066406 L 113.109375 277.339844 L 118.773438 284.492188 L 130.40625 290.746094 L 153.664062 298.789062 L 207.558594 312.933594 L 205.601562 323.03125 L 205.246094 330.960938 L 212.285156 346.59375 L 216.101562 356.8125 L 221.449219 384.796875 L 220.273438 390.679688 L 205.324219 402.210938 L 183.113281 417.640625 L 159.9375 430.855469 L 134.367188 447.132812 L 117.894531 455.96875 L 86.460938 433.257812 L 82.992188 430.46875 L 77.085938 423.769531 L 72.242188 417.335938 L 53.246094 402.773438 L 36.550781 390.832031 L 55.019531 363.132812 L 73.171875 336.226562 L 83.261719 321.402344 L 89.859375 311.183594 L 88.753906 310.644531 L 87.675781 310.113281 L 33.851562 391.3125 L 51.761719 403.800781 L 70.824219 418.914062 L 75.246094 424.824219 L 81.542969 431.859375 L 116.664062 457.140625 L 90.550781 472.730469 L 60.058594 450.15625 L 59.699219 450.605469 L 59.273438 451.136719 L 88.917969 473.898438 L 57.988281 486.203125 L 47.882812 489.9375 L 25.671875 496.226562 L -11.847656 511.0625 L -33.390625 493.929688 L -10.5 457.445312 L -22.671875 453.09375 L -23.351562 453.714844 L -24.210938 454.496094 L -13.476562 458.441406 L -35.566406 494.390625 L -13.660156 511.695312 L -14.128906 511.964844 L -15.109375 512.351562 L -17.273438 513.757812 L -28.871094 520.375 L -32.636719 523.28125 L -37.398438 526.101562 L -49.726562 535.585938 L -58.40625 544.699219 L -68.289062 553.726562 L -77.644531 563.035156 L -81.761719 568.097656 L -85.289062 571.625 L -92.027344 575.9375 L -93.398438 575.363281 L -93.589844 570.785156 L -94.394531 556.640625 L -94.972656 540.300781 L -90.835938 531.578125 L -86.367188 524.414062 L -83.203125 517.722656 L -82.667969 511.390625 L -82.363281 503.753906 L -82.121094 492.117188 L -81.195312 481.230469 L -80.367188 467.183594 L -77.925781 455.027344 L -73.453125 444.769531 L -69.199219 435.582031 L -67.839844 430.285156 L -63.785156 413.082031 L -62.058594 400.339844 L -60.445312 384.132812 L -44.097656 385.855469 L -43.957031 384.417969 L -60.359375 382.457031 L -60.304688 366.121094 L -60.582031 355.15625 L -60.660156 341.636719 L -60.3125 331.710938 L -56.582031 324.222656 L 7.492188 311.234375 L 7.40625 310.503906 L 7.320312 309.800781 L -56.445312 322.78125 L -51.109375 310.835938 L -48.082031 300.847656 L 18.667969 284.464844 L 28.472656 282.601562 L 63.261719 293.539062 L 62.425781 295.980469 L 58.5625 301.855469 L 51.308594 308.609375 Z M 37.65625 305.386719 "/>
</g>
<path style=" stroke:none;fill-rule:nonzero;fill:rgb(39.99939%,39.99939%,39.99939%);fill-opacity:0.3;" d="M -42.976562 277.765625 L -15.144531 269.960938 L 7.074219 264.96875 L 21.476562 261.910156 L 25.269531 269.121094 L 27.097656 281.347656 L -48.027344 299.152344 Z M -42.976562 277.765625 "/>
<path style=" stroke:none;fill-rule:nonzero;fill:rgb(39.99939%,39.99939%,39.99939%);fill-opacity:0.3;" d="M 47.832031 200.300781 L 49.84375 195.972656 L 59.804688 195.972656 L 61.496094 205.671875 L 63.574219 217.601562 L 67.472656 235.148438 L 70.027344 249.421875 L 63.664062 248.859375 L 51.992188 247.582031 L 40.230469 245.554688 L 32.195312 244.652344 Z M 47.832031 200.300781 "/>
<path style=" stroke:none;fill-rule:nonzero;fill:rgb(39.99939%,39.99939%,39.99939%);fill-opacity:0.3;" d="M 38.046875 130.1875 L 35.195312 141.730469 L 6.796875 140.359375 L -4.898438 148.238281 L -4.421875 148.792969 L -3.902344 149.390625 L 7.683594 141.617188 L 35.085938 142.835938 L 27.972656 172.230469 L 8.292969 171.957031 L -31.894531 192.800781 L -35.726562 165.640625 L -36.703125 149.667969 L -8.078125 133.253906 L 5.671875 127.988281 L 27.359375 126.554688 L 35.78125 126.539062 Z M 38.046875 130.1875 "/>
<path style=" stroke:none;fill-rule:nonzero;fill:rgb(39.99939%,39.99939%,39.99939%);fill-opacity:0.3;" d="M 57.046875 172.285156 L 82.835938 167.804688 L 84.566406 172.933594 L 89.277344 187.847656 L 50.496094 192.660156 Z M 57.046875 172.285156 "/>
<path style=" stroke:none;fill-rule:nonzero;fill:rgb(39.99939%,39.99939%,39.99939%);fill-opacity:0.3;" d="M 67.339844 252.183594 L 73.554688 253.25 L 69.445312 270.917969 L 61.347656 268.8125 L 39.851562 263.097656 L 33.367188 259.667969 L 33.953125 257.5625 L 52.207031 252.085938 L 59.808594 251.476562 Z M 67.339844 252.183594 "/>
<path style=" stroke:none;fill-rule:nonzero;fill:rgb(39.99939%,39.99939%,39.99939%);fill-opacity:0.3;" d="M 68.882812 273.050781 L 63.652344 291.824219 L 30.027344 281.347656 L 27.644531 269.925781 L 25.539062 263.363281 L 31.496094 263.355469 L 38.582031 265.632812 L 60.898438 270.699219 Z M 68.882812 273.050781 "/>
<path style=" stroke:none;fill-rule:nonzero;fill:rgb(39.99939%,39.99939%,39.99939%);fill-opacity:0.3;" d="M 61.773438 193.628906 L 88.910156 189.980469 L 93.980469 229.609375 L 95.1875 251.539062 L 72.90625 248.988281 L 70.183594 233.234375 L 66.1875 216.378906 Z M 61.773438 193.628906 "/>
<path style=" stroke:none;fill-rule:nonzero;fill:rgb(39.99939%,39.99939%,39.99939%);fill-opacity:0.3;" d="M 207.273438 308.570312 L 207.152344 309.691406 L 157.851562 297.316406 L 151.679688 294.359375 L 167.457031 298.960938 Z M 207.273438 308.570312 "/>
<path style=" stroke:none;fill-rule:nonzero;fill:rgb(39.99939%,39.99939%,39.99939%);fill-opacity:0.3;" d="M 53.757812 172.597656 L 47.292969 193.503906 L 25.121094 195.863281 L 29.621094 175.222656 Z M 53.757812 172.597656 "/>
<path style=" stroke:none;fill-rule:nonzero;fill:rgb(39.99939%,39.99939%,39.99939%);fill-opacity:0.3;" d="M -39.675781 251.675781 L -25.796875 246.628906 L -10.4375 240.730469 L -0.363281 239.023438 L 5.207031 238.328125 L 7.136719 246.117188 L 6.332031 246.277344 L 6.46875 246.777344 L 6.621094 247.320312 L 8.433594 247.023438 L 6.535156 238.082031 L 10.25 237.347656 L 16.5 237.191406 L 21.832031 241.210938 L 29.480469 247.574219 L 36.753906 248.53125 L 43.863281 248.609375 L 44.789062 251.816406 L 31.890625 256.058594 L 30.085938 257.949219 L 21.066406 259.808594 L 6.238281 263.128906 L -14.445312 267.890625 L -43.339844 275.890625 Z M -39.675781 251.675781 "/>
<path style=" stroke:none;fill-rule:nonzero;fill:rgb(39.99939%,39.99939%,39.99939%);fill-opacity:0.3;" d="M 21.785156 201.15625 L 18.933594 215.253906 L 15.84375 235.6875 L 9.175781 235.269531 L -1.277344 237.007812 L -9.921875 239.179688 L -25.773438 244.894531 L -38.804688 249.746094 L -33.648438 216.121094 L -7.261719 205.703125 L -9.785156 216.507812 L -10.324219 222.484375 L -10.425781 226.890625 L -9.511719 226.507812 L -8.660156 226.152344 L -8.234375 217.34375 L -5.109375 204.867188 Z M 21.785156 201.15625 "/>
<path style=" stroke:none;fill-rule:nonzero;fill:rgb(39.99939%,39.99939%,39.99939%);fill-opacity:0.3;" d="M 23.628906 199.5 L 46.839844 196.824219 L 30.101562 243.714844 L 23.882812 238.417969 L 19.078125 234.546875 L 19.332031 228.292969 L 21 214.414062 Z M 23.628906 199.5 "/>
<path style=" stroke:none;fill-rule:nonzero;fill:rgb(39.99939%,39.99939%,39.99939%);fill-opacity:0.3;" d="M 49.566406 143.605469 L 62.464844 142.667969 L 67.371094 166.992188 L 54.890625 169.734375 L 42.097656 171.441406 L 31.476562 172.050781 L 38.035156 143.417969 Z M 49.566406 143.605469 "/>
<path style=" stroke:none;fill-rule:nonzero;fill:rgb(39.99939%,39.99939%,39.99939%);fill-opacity:0.3;" d="M 26.675781 174.785156 L 22.21875 197.882812 L -1.183594 200.710938 L -32.28125 213.546875 L -31.574219 196.351562 L 0.644531 181.296875 L 10.707031 174.957031 Z M 26.675781 174.785156 "/>
<path style=" stroke:none;fill-rule:nonzero;fill:rgb(39.99939%,39.99939%,39.99939%);fill-opacity:0.3;" d="M 58.972656 102.957031 L 41.703125 102.613281 L 41.707031 103.097656 L 41.707031 103.851562 L 59.027344 104.109375 L 59.339844 110.703125 L 59.816406 127.300781 L 60.691406 132.5625 L 61.070312 141.113281 L 48.28125 141.910156 L 39.085938 141.921875 L 40.953125 129.949219 L 38.128906 125.550781 L 28.703125 125.535156 L 26.210938 117.585938 L 22.921875 106.730469 L 22.839844 106.457031 L 21.777344 101.285156 L 23.125 101.300781 L 33.519531 101.246094 L 33.457031 99.808594 L 33.390625 98.375 L 24.863281 98.925781 L 19.320312 99.902344 L 20.664062 105.660156 L 24.59375 118.128906 L 26.988281 125.535156 L 5.386719 126.84375 L -5.621094 131.042969 L -23.652344 102.046875 L -20.570312 94.316406 L -13.945312 84.710938 L -7.875 83.585938 L 3.445312 111.019531 L 4.480469 110.640625 L 5.371094 110.316406 L -7.667969 76.753906 L -3.5 75.234375 L 13.664062 66.597656 L 29.925781 60.808594 L 39.195312 58.210938 L 45.585938 60.085938 L 50.785156 61.5 L 53.121094 65.867188 L 53.476562 67.234375 L 56.96875 85.570312 L 57.367188 88.765625 L 15.078125 81.714844 L 15.082031 82.566406 L 15.082031 83.253906 L 57.53125 90.058594 L 58.867188 100.746094 Z M 58.972656 102.957031 "/>
<path style=" stroke:none;fill-rule:nonzero;fill:rgb(39.99939%,39.99939%,39.99939%);fill-opacity:0.3;" d="M 147.019531 293 L 146.75 293.269531 L 140.453125 290.566406 L 144.695312 292.320312 Z M 147.019531 293 "/>
<path style=" stroke:none;fill-rule:nonzero;fill:rgb(39.99939%,39.99939%,39.99939%);fill-opacity:0.3;" d="M 124.324219 283.230469 L 123.273438 282.691406 L 122.792969 282.109375 Z M 124.324219 283.230469 "/>
<path style=" stroke:none;fill-rule:nonzero;fill:rgb(39.99939%,39.99939%,39.99939%);fill-opacity:0.3;" d="M 145.382812 78.507812 L 142.222656 81.671875 L 137.628906 83.542969 L 137.273438 83.917969 L 136.957031 84.25 L 127.917969 91.742188 L 124.394531 93.414062 L 123.84375 93.601562 L 123.363281 93.761719 L 113.367188 98.359375 L 113.414062 99.378906 L 113.480469 100.738281 L 104.269531 103.332031 L 103.988281 104.085938 L 103.675781 104.929688 L 98.78125 106.988281 L 99.179688 110.027344 L 94.746094 111.183594 L 94.511719 111.6875 L 94.164062 111.945312 L 89.0625 113.410156 L 92.734375 126.003906 L 92.953125 126.539062 L 93.15625 127 L 94.652344 132.074219 L 102.355469 136.800781 L 103.339844 136.464844 L 106.421875 136.023438 L 107.917969 136.683594 L 109.09375 140.878906 L 114.710938 142.910156 L 115.359375 142.875 L 116.011719 142.84375 L 128.335938 150.363281 L 129.695312 151.105469 L 130.269531 151.242188 L 130.875 151.253906 L 134.542969 150.898438 L 136.832031 149.65625 L 140.265625 146.628906 L 140.625 145.945312 L 140.996094 145.242188 L 150.234375 131.03125 L 161.070312 133.761719 L 166.921875 134.917969 L 165.5625 143.421875 L 163.191406 152.90625 L 161.292969 163.339844 L 161.292969 165.273438 L 160.777344 168.273438 L 161.246094 174.277344 L 160.84375 182.558594 L 155.242188 182.941406 L 137.230469 183.847656 L 118.816406 184.628906 L 91.585938 187.132812 L 87.035156 172.644531 L 85.828125 168.027344 L 85.476562 166.179688 L 104.089844 161.972656 L 107.507812 149.347656 L 106.011719 149.375 L 104.710938 149.398438 L 101.613281 160.722656 L 95.648438 161.953125 L 89.753906 143.566406 L 77.964844 146.539062 L 82.472656 161.246094 L 70.457031 162.914062 L 68.515625 155.820312 L 66.082031 145.957031 L 64.292969 135.816406 L 64.097656 126.566406 L 63.054688 109.5 L 62.132812 97.871094 L 61.445312 89.980469 L 60.632812 84.722656 L 59.378906 78.644531 L 57.863281 71.914062 L 56.179688 65.589844 L 54.589844 59.976562 L 51.957031 58.976562 L 51.429688 55.65625 L 62.417969 52.808594 L 65.691406 54.0625 L 78.214844 57.679688 L 88.382812 62.214844 L 94.140625 65.570312 L 95.425781 67.59375 L 91.347656 74.414062 L 86.6875 82.265625 L 83.769531 86.152344 L 83.855469 87.578125 L 84.363281 89.636719 L 85.78125 90.585938 L 86.484375 90.140625 L 87.285156 89.632812 L 86.03125 89.082031 L 85.523438 86.386719 L 88.328125 82.707031 L 92.515625 75.363281 L 97.761719 67.75 L 107.902344 72.675781 L 117.328125 77.378906 L 124.550781 78.304688 L 132.128906 77.957031 L 139.640625 76.835938 L 147.039062 76.410156 Z M 145.382812 78.507812 "/>
<path style=" stroke:none;fill-rule:nonzero;fill:rgb(39.99939%,39.99939%,39.99939%);fill-opacity:0.3;" d="M 79.03125 147.144531 L 89.128906 144.566406 L 94.648438 162.25 L 85.164062 164.558594 L 84.472656 160.96875 L 83.402344 161.117188 Z M 79.03125 147.144531 "/>
<path style=" stroke:none;fill-rule:nonzero;fill:rgb(39.99939%,39.99939%,39.99939%);fill-opacity:0.3;" d="M 123.429688 93.875 L 126.269531 99.347656 L 115.601562 103.40625 L 113.496094 98.394531 Z M 123.429688 93.875 "/>
<path style=" stroke:none;fill-rule:nonzero;fill:rgb(39.99939%,39.99939%,39.99939%);fill-opacity:0.3;" d="M 116 142.714844 L 115.699219 140.96875 L 125.863281 138.257812 L 129.707031 150.980469 L 128.441406 150.28125 Z M 116 142.714844 "/>
<path style=" stroke:none;fill-rule:nonzero;fill:rgb(39.99939%,39.99939%,39.99939%);fill-opacity:0.3;" d="M 103.28125 136.351562 L 99.167969 125.339844 L 110.796875 122.253906 L 114.6875 142.785156 L 109.160156 140.765625 L 108.003906 136.582031 L 106.433594 135.898438 Z M 103.28125 136.351562 "/>
<path style=" stroke:none;fill-rule:nonzero;fill:rgb(39.99939%,39.99939%,39.99939%);fill-opacity:0.3;" d="M 93.289062 126.988281 L 98.359375 125.527344 L 102.3125 136.675781 L 94.746094 131.980469 Z M 93.289062 126.988281 "/>
<path style=" stroke:none;fill-rule:nonzero;fill:rgb(39.99939%,39.99939%,39.99939%);fill-opacity:0.3;" d="M 94.203125 112.070312 L 98.007812 124.761719 L 92.867188 125.988281 L 89.191406 113.453125 Z M 94.203125 112.070312 "/>
<path style=" stroke:none;fill-rule:nonzero;fill:rgb(39.99939%,39.99939%,39.99939%);fill-opacity:0.3;" d="M 103.726562 105.046875 L 110.46875 121.503906 L 98.84375 124.585938 L 94.859375 111.253906 L 99.292969 110.097656 L 98.910156 107.03125 Z M 103.726562 105.046875 "/>
<path style=" stroke:none;fill-rule:nonzero;fill:rgb(39.99939%,39.99939%,39.99939%);fill-opacity:0.3;" d="M 108.84375 114.339844 L 128.609375 107.304688 L 131.023438 114.902344 L 111.515625 121.28125 Z M 108.84375 114.339844 "/>
<path style=" stroke:none;fill-rule:nonzero;fill:rgb(39.99939%,39.99939%,39.99939%);fill-opacity:0.3;" d="M 152.402344 89.980469 L 162.0625 87.050781 L 167.894531 104.535156 L 157.789062 107.8125 Z M 152.402344 89.980469 "/>
<path style=" stroke:none;fill-rule:nonzero;fill:rgb(39.99939%,39.99939%,39.99939%);fill-opacity:0.3;" d="M 113.546875 100.851562 L 117.527344 110.472656 L 108.453125 113.742188 L 104.378906 103.40625 Z M 113.546875 100.851562 "/>
<path style=" stroke:none;fill-rule:nonzero;fill:rgb(39.99939%,39.99939%,39.99939%);fill-opacity:0.3;" d="M 147.171875 76.546875 L 151.421875 89.5625 L 140.890625 92.765625 L 137.710938 83.785156 L 142.316406 81.828125 L 145.597656 78.644531 Z M 147.171875 76.546875 "/>
<path style=" stroke:none;fill-rule:nonzero;fill:rgb(39.99939%,39.99939%,39.99939%);fill-opacity:0.3;" d="M 158.789062 75.203125 L 162.011719 86.394531 L 152.109375 89.308594 L 147.996094 76.402344 Z M 158.789062 75.203125 "/>
<path style=" stroke:none;fill-rule:nonzero;fill:rgb(39.99939%,39.99939%,39.99939%);fill-opacity:0.3;" d="M 115.679688 103.882812 L 126.390625 99.871094 L 128.328125 106.417969 L 118.253906 110.074219 Z M 115.679688 103.882812 "/>
<path style=" stroke:none;fill-rule:nonzero;fill:rgb(39.99939%,39.99939%,39.99939%);fill-opacity:0.3;" d="M 92.597656 189.15625 L 116.96875 186.902344 L 137.5 185.761719 L 162.875 185.878906 L 173.429688 205.976562 L 162.742188 205.042969 L 150.550781 202.371094 L 95.464844 206.574219 Z M 92.597656 189.15625 "/>
<path style=" stroke:none;fill-rule:nonzero;fill:rgb(39.99939%,39.99939%,39.99939%);fill-opacity:0.3;" d="M 189.847656 252.886719 L 198.0625 262.203125 L 206.476562 276.785156 L 209.351562 290.769531 L 208.746094 298.4375 L 197.167969 296.96875 L 196.976562 297.566406 L 196.761719 298.226562 L 208.171875 300.132812 L 207.273438 308.570312 L 167.457031 298.960938 L 151.679688 294.359375 L 149.261719 293.199219 Z M 189.847656 252.886719 "/>
<path style=" stroke:none;fill-rule:nonzero;fill:rgb(39.99939%,39.99939%,39.99939%);fill-opacity:0.3;" d="M 111.730469 122.164062 L 119.527344 119.761719 L 125.671875 137.671875 L 115.515625 140.492188 Z M 111.730469 122.164062 "/>
<path style=" stroke:none;fill-rule:nonzero;fill:rgb(39.99939%,39.99939%,39.99939%);fill-opacity:0.3;" d="M 120.285156 119.527344 L 131.398438 115.746094 L 136.410156 133.597656 L 126.75 137.277344 Z M 120.285156 119.527344 "/>
<path style=" stroke:none;fill-rule:nonzero;fill:rgb(39.99939%,39.99939%,39.99939%);fill-opacity:0.3;" d="M 163.078125 87.082031 L 177.398438 82.542969 L 177.371094 83.59375 L 175.992188 96.003906 L 174.789062 102.027344 L 168.765625 103.746094 Z M 163.078125 87.082031 "/>
<path style=" stroke:none;fill-rule:nonzero;fill:rgb(39.99939%,39.99939%,39.99939%);fill-opacity:0.3;" d="M 132.144531 115.433594 L 144.757812 110.027344 L 150.066406 129.480469 L 138.03125 135.191406 Z M 132.144531 115.433594 "/>
<path style=" stroke:none;fill-rule:nonzero;fill:rgb(39.99939%,39.99939%,39.99939%);fill-opacity:0.3;" d="M 159.871094 74.996094 L 163.660156 74.964844 L 166.664062 75.332031 L 174.011719 76.523438 L 177.171875 77.476562 L 177.3125 81.921875 L 162.808594 86.128906 Z M 159.871094 74.996094 "/>
<path style=" stroke:none;fill-rule:nonzero;fill:rgb(39.99939%,39.99939%,39.99939%);fill-opacity:0.3;" d="M 146.011719 108.996094 L 156.921875 108.585938 L 164.421875 130.914062 L 152.210938 128.488281 Z M 146.011719 108.996094 "/>
<path style=" stroke:none;fill-rule:nonzero;fill:rgb(39.99939%,39.99939%,39.99939%);fill-opacity:0.3;" d="M 158.066406 108.347656 L 167.980469 105.269531 L 171.203125 115.117188 L 170.90625 117.78125 L 167.515625 131.339844 L 165.441406 131.136719 Z M 158.066406 108.347656 "/>
<path style=" stroke:none;fill-rule:nonzero;fill:rgb(39.99939%,39.99939%,39.99939%);fill-opacity:0.3;" d="M 141.136719 93.5625 L 151.519531 90.261719 L 156.730469 107.949219 L 145.71875 108.199219 Z M 141.136719 93.5625 "/>
<path style=" stroke:none;fill-rule:nonzero;fill:rgb(39.99939%,39.99939%,39.99939%);fill-opacity:0.3;" d="M 177.949219 72.621094 L 177.964844 72.769531 L 158.261719 70.152344 L 157.726562 68.25 L 167.457031 70.871094 Z M 177.949219 72.621094 "/>
<path style=" stroke:none;fill-rule:nonzero;fill:rgb(39.99939%,39.99939%,39.99939%);fill-opacity:0.3;" d="M 101.277344 63.773438 L 101.457031 63.691406 L 119.5625 71.820312 L 128.097656 72.765625 L 141.375 70.871094 L 150.859375 68.5 L 153.847656 67.835938 L 154.464844 70.371094 L 147.355469 71.949219 L 138.910156 73.289062 L 130.03125 73.984375 L 124.898438 73.566406 L 118.886719 72.960938 L 109.886719 68.859375 Z M 101.277344 63.773438 "/>
<path style=" stroke:none;fill-rule:nonzero;fill:rgb(39.99939%,39.99939%,39.99939%);fill-opacity:0.3;" d="M 57.695312 90.085938 L 59.230469 102.960938 L 58.972656 102.957031 L 58.867188 100.746094 L 57.53125 90.058594 Z M 57.695312 90.085938 "/>
<path style=" stroke:none;fill-rule:nonzero;fill:rgb(39.99939%,39.99939%,39.99939%);fill-opacity:0.3;" d="M 59.027344 104.109375 L 59.433594 104.117188 L 60.691406 132.5625 L 59.816406 127.300781 L 59.339844 110.703125 Z M 59.027344 104.109375 "/>
<path style=" stroke:none;fill-rule:nonzero;fill:rgb(39.99939%,39.99939%,39.99939%);fill-opacity:0.3;" d="M 53.476562 67.234375 L 54.796875 72.304688 L 56.34375 79.304688 L 57.121094 83.761719 L 57.691406 88.820312 L 57.367188 88.765625 L 56.96875 85.570312 Z M 53.476562 67.234375 "/>
<path style=" stroke:none;fill-rule:nonzero;fill:rgb(39.99939%,39.99939%,39.99939%);fill-opacity:0.3;" d="M 91.421875 59.109375 L 89.515625 58.386719 L 79.878906 54.117188 L 83.050781 55.222656 Z M 91.421875 59.109375 "/>
<path style=" stroke:none;fill-rule:nonzero;fill:rgb(39.99939%,39.99939%,39.99939%);fill-opacity:0.3;" d="M 77.964844 53.453125 L 70.945312 51.570312 L 72.144531 51.429688 Z M 77.964844 53.453125 "/>
<path style=" stroke:none;fill-rule:nonzero;fill:rgb(39.99939%,39.99939%,39.99939%);fill-opacity:0.3;" d="M 96.304688 209.265625 L 126.367188 207.191406 L 127.550781 215.742188 L 123.550781 218.757812 L 121.34375 221.613281 L 116.441406 224.5 L 112.941406 226.835938 L 107.925781 230.941406 L 108.585938 231.300781 L 109.34375 231.710938 L 113.992188 227.550781 L 117.410156 225.472656 L 122.277344 222.5 L 126.558594 219.859375 L 130.222656 215.738281 L 128.863281 207.542969 L 151.996094 205.496094 L 152.925781 219.363281 L 145.105469 218.570312 L 128.832031 237.394531 L 129.757812 237.796875 L 130.6875 238.203125 L 145.820312 219.921875 L 155.609375 221.554688 L 154.414062 206.035156 L 172.617188 208.382812 L 175.628906 212.179688 L 174.882812 216.777344 L 174.097656 218.347656 L 168.40625 226.410156 L 168.160156 227.390625 L 162.433594 234.726562 L 177.820312 243.472656 L 186.929688 251.085938 L 185.949219 254.613281 L 178.957031 261.019531 L 155.195312 257.613281 L 155.144531 258.460938 L 155.09375 259.3125 L 177.628906 262.382812 L 147.019531 293 L 144.695312 292.320312 L 140.453125 290.566406 L 130.917969 286.472656 L 133.96875 273.121094 L 133.507812 273.023438 L 133.054688 272.929688 L 130.003906 286.152344 L 124.324219 283.230469 L 122.792969 282.109375 L 116.378906 274.328125 L 107.472656 263.363281 L 100.132812 252.882812 L 99.707031 241.890625 L 115.699219 245.644531 L 115.765625 244.917969 L 115.835938 244.171875 L 99.703125 240.167969 Z M 96.304688 209.265625 "/>
<path style=" stroke:none;fill-rule:nonzero;fill:rgb(39.99939%,39.99939%,39.99939%);fill-opacity:0.3;" d="M 150.109375 130.976562 L 140.9375 145.125 L 138.3125 135.871094 Z M 150.109375 130.976562 "/>
<path style=" stroke:none;fill-rule:nonzero;fill:rgb(39.99939%,39.99939%,39.99939%);fill-opacity:0.3;" d="M 140.171875 146.539062 L 136.734375 149.566406 L 134.480469 150.785156 L 130.835938 151.132812 L 126.9375 138.0625 L 136.707031 134.261719 Z M 140.171875 146.539062 "/>
<path style=" stroke:none;fill-rule:nonzero;fill:rgb(39.99939%,39.99939%,39.99939%);fill-opacity:0.3;" d="M 166.921875 134.917969 L 168.570312 135.246094 L 163.847656 150.472656 L 161.292969 165.273438 L 161.292969 163.339844 L 163.191406 152.90625 L 165.5625 143.421875 Z M 166.921875 134.917969 "/>
<path style=" stroke:none;fill-rule:nonzero;fill:rgb(39.99939%,39.99939%,39.99939%);fill-opacity:0.3;" d="M 296.125 181.09375 L 284.558594 177.242188 L 250.003906 143.195312 L 251.867188 144.371094 L 265.144531 156.226562 L 276.050781 167.609375 L 290.277344 178.515625 L 297.390625 178.988281 Z M 296.125 181.09375 "/>
<path style=" stroke:none;fill-rule:nonzero;fill:rgb(39.99939%,39.99939%,39.99939%);fill-opacity:0.3;" d="M 214.601562 76.65625 L 214.316406 101.671875 L 216.714844 135.09375 L 206.144531 135.269531 L 189.796875 135.40625 L 172.585938 135.230469 L 175.425781 118.445312 L 180.613281 99.65625 L 181.476562 86.214844 L 182.132812 76.839844 Z M 214.601562 76.65625 "/>
<path style=" stroke:none;fill-rule:nonzero;fill:rgb(39.99939%,39.99939%,39.99939%);fill-opacity:0.3;" d="M 229.730469 180.058594 L 249.660156 181.367188 L 243.117188 207.726562 L 243.746094 207.800781 L 244.34375 207.871094 L 251.613281 181.972656 L 291.527344 183.410156 L 294.144531 184.398438 L 288.851562 193.214844 L 285.058594 197.480469 L 277 205.542969 L 252.339844 220.71875 L 233.847656 229.726562 L 228.15625 233.996094 L 206.816406 252.488281 L 199.714844 257.503906 L 196.351562 252.132812 L 208.386719 237.390625 L 213.867188 230.144531 L 217.921875 221.789062 L 223.699219 206.988281 L 227.089844 195.261719 Z M 229.730469 180.058594 "/>
<path style=" stroke:none;fill-rule:nonzero;fill:rgb(39.99939%,39.99939%,39.99939%);fill-opacity:0.3;" d="M 181.710938 213.128906 L 185.550781 213.351562 L 196.402344 218.660156 L 212.511719 225.214844 L 209.601562 230.207031 L 204.695312 237.8125 L 194.535156 249.96875 L 182.015625 240.054688 L 169.820312 232.492188 L 176.0625 223.347656 Z M 181.710938 213.128906 "/>
<path style=" stroke:none;fill-rule:nonzero;fill:rgb(39.99939%,39.99939%,39.99939%);fill-opacity:0.3;" d="M 166.703125 181.230469 L 179.644531 177.707031 L 198.320312 175.671875 L 220.519531 177.496094 L 223.316406 181.636719 L 222.609375 196.527344 L 219.445312 206.148438 L 213.582031 222.8125 L 196.363281 215.238281 L 186.21875 209.890625 L 181.03125 209.671875 Z M 166.703125 181.230469 "/>
<path style=" stroke:none;fill-rule:nonzero;fill:rgb(39.99939%,39.99939%,39.99939%);fill-opacity:0.3;" d="M 217.582031 76.828125 L 276.246094 77.117188 L 270.160156 89.289062 L 263.339844 100.898438 L 217.664062 100.335938 Z M 217.582031 76.828125 "/>
<path style=" stroke:none;fill-rule:nonzero;fill:rgb(39.99939%,39.99939%,39.99939%);fill-opacity:0.3;" d="M 217.03125 102.585938 L 261.652344 103.207031 L 257.609375 109.65625 L 254.980469 114.402344 L 251.503906 120.671875 L 248.683594 125.863281 L 244.78125 132.8125 L 219.097656 134.214844 L 217.5625 118.265625 Z M 217.03125 102.585938 "/>
<path style=" stroke:none;fill-rule:nonzero;fill:rgb(39.99939%,39.99939%,39.99939%);fill-opacity:0.3;" d="M 219.976562 135.953125 L 244.597656 134.550781 L 243.894531 136.457031 L 242.855469 138.679688 L 243.03125 138.792969 L 242.269531 140.851562 L 236.4375 151.101562 L 229.316406 165.550781 L 224.121094 175.054688 L 216.199219 174.203125 L 198.164062 173.421875 L 179.878906 175.71875 L 166.945312 178.945312 L 165.761719 172.652344 L 166.21875 165.867188 L 166.894531 157.546875 L 168.523438 149.214844 L 170.3125 141.40625 L 171.792969 136.964844 L 191.980469 137.199219 Z M 219.976562 135.953125 "/>
<path style=" stroke:none;fill-rule:nonzero;fill:rgb(39.99939%,39.99939%,39.99939%);fill-opacity:0.3;" d="M 177.371094 83.59375 L 177.023438 97.027344 L 175.75 101.753906 L 174.789062 102.027344 L 175.992188 96.003906 Z M 177.371094 83.59375 "/>
<path style=" stroke:none;fill-rule:nonzero;fill:rgb(39.99939%,39.99939%,39.99939%);fill-opacity:0.3;" d="M 170.90625 117.78125 L 170.445312 121.851562 L 169.230469 131.507812 L 167.515625 131.339844 Z M 170.90625 117.78125 "/>
<path style=" stroke:none;fill-rule:nonzero;fill:rgb(39.99939%,39.99939%,39.99939%);fill-opacity:0.3;" d="M 244.363281 143.1875 L 282.328125 179.851562 L 251.996094 178.632812 L 227.992188 176.589844 Z M 244.363281 143.1875 "/>
<path style=" stroke:none;fill-rule:nonzero;fill:rgb(39.99939%,39.99939%,39.99939%);fill-opacity:0.3;" d="M 214.601562 71.820312 L 214.582031 74.519531 L 201.367188 74.140625 L 201.394531 71.820312 Z M 214.601562 71.820312 "/>
<path style=" stroke:none;fill-rule:nonzero;fill:rgb(39.99939%,39.99939%,39.99939%);fill-opacity:0.3;" d="M 198.539062 71.890625 L 198.457031 73.59375 L 181.414062 74.144531 L 181.3125 72.65625 Z M 198.539062 71.890625 "/>
<path style=" stroke:none;fill-rule:nonzero;fill:rgb(39.99939%,39.99939%,39.99939%);fill-opacity:0.3;" d="M 241.78125 72.265625 L 241.628906 73.695312 L 217.785156 73.722656 L 217.753906 71.859375 Z M 241.78125 72.265625 "/>
<path style=" stroke:none;fill-rule:nonzero;fill:rgb(39.99939%,39.99939%,39.99939%);fill-opacity:0.3;" d="M 271.308594 74.234375 L 244.664062 73.28125 L 244.78125 72.394531 Z M 271.308594 74.234375 "/>
<path style=" stroke:none;fill-rule:nonzero;fill:rgb(39.99939%,39.99939%,39.99939%);fill-opacity:0.3;" d="M 174.882812 216.777344 L 174.472656 219.308594 L 168.160156 227.390625 L 168.40625 226.410156 L 174.097656 218.347656 Z M 174.882812 216.777344 "/>
<path style=" stroke:none;fill-rule:nonzero;fill:rgb(39.99939%,39.99939%,39.99939%);fill-opacity:0.3;" d="M 51.429688 55.65625 L 51.074219 53.441406 L 52.988281 51.253906 L 54.988281 49.960938 L 62.417969 52.808594 Z M 51.429688 55.65625 "/>
<path style=" stroke:none;fill-rule:nonzero;fill:rgb(39.99939%,39.99939%,39.99939%);fill-opacity:0.3;" d="M 52.863281 43.679688 L 55.050781 45.777344 L 47.402344 52.6875 L 38.675781 55.679688 L 32.785156 54.746094 L 41.796875 51.902344 L 46.535156 50.007812 Z M 52.863281 43.679688 "/>
<path style=" stroke:none;fill-rule:nonzero;fill:rgb(39.99939%,39.99939%,39.99939%);fill-opacity:0.3;" d="M 80.289062 22.308594 L 70.050781 31.144531 L 56.402344 42.855469 L 54.960938 41.582031 L 55.074219 41.46875 L 78.78125 23.449219 Z M 80.289062 22.308594 "/>
<path style=" stroke:none;fill-rule:nonzero;fill:rgb(39.99939%,39.99939%,39.99939%);fill-opacity:0.3;" d="M 303.335938 21.023438 L 332.035156 23.546875 L 327.792969 40.84375 L 326.789062 44.789062 L 326.78125 44.972656 L 325.707031 49.363281 L 295.339844 52.175781 L 298.601562 47.898438 L 300.941406 41.578125 L 303.847656 24.769531 Z M 303.335938 21.023438 "/>
<path style=" stroke:none;fill-rule:nonzero;fill:rgb(39.99939%,39.99939%,39.99939%);fill-opacity:0.3;" d="M 109.605469 5.78125 L 126 -4.8125 L 146.125 39.828125 L 129.027344 47.664062 Z M 109.605469 5.78125 "/>
<path style=" stroke:none;fill-rule:nonzero;fill:rgb(39.99939%,39.99939%,39.99939%);fill-opacity:0.3;" d="M 303.507812 -6.21875 L 336.367188 1.257812 L 332.128906 21.605469 L 302.75 18.851562 Z M 303.507812 -6.21875 "/>
<path style=" stroke:none;fill-rule:nonzero;fill:rgb(39.99939%,39.99939%,39.99939%);fill-opacity:0.3;" d="M 296.054688 54.59375 L 325.484375 53.03125 L 319.832031 89.726562 L 282.777344 76.550781 Z M 296.054688 54.59375 "/>
<path style=" stroke:none;fill-rule:nonzero;fill:rgb(39.99939%,39.99939%,39.99939%);fill-opacity:0.3;" d="M 248.25 37.910156 L 296.804688 42.882812 L 292.175781 51.703125 L 247.546875 48.441406 Z M 248.25 37.910156 "/>
<path style=" stroke:none;fill-rule:nonzero;fill:rgb(39.99939%,39.99939%,39.99939%);fill-opacity:0.3;" d="M 217.015625 36.578125 L 245.449219 37.753906 L 244.511719 48.636719 L 217.339844 48.667969 Z M 217.015625 36.578125 "/>
<path style=" stroke:none;fill-rule:nonzero;fill:rgb(39.99939%,39.99939%,39.99939%);fill-opacity:0.3;" d="M 209.175781 37.640625 L 214.855469 36.421875 L 214.601562 71.820312 L 201.394531 71.820312 L 201.546875 58.894531 L 200.59375 58.863281 L 199.15625 58.820312 L 198.539062 71.890625 L 181.3125 72.65625 L 180.746094 64.476562 L 180.082031 57.273438 L 179.59375 53.785156 Z M 209.175781 37.640625 "/>
<path style=" stroke:none;fill-rule:nonzero;fill:rgb(39.99939%,39.99939%,39.99939%);fill-opacity:0.3;" d="M 217.429688 50.199219 L 244.089844 50.652344 L 241.78125 72.265625 L 217.753906 71.859375 Z M 217.429688 50.199219 "/>
<path style=" stroke:none;fill-rule:nonzero;fill:rgb(39.99939%,39.99939%,39.99939%);fill-opacity:0.3;" d="M 247.65625 50.640625 L 291.667969 53.6875 L 278.269531 74.484375 L 271.308594 74.234375 L 244.78125 72.394531 Z M 247.65625 50.640625 "/>
<path style=" stroke:none;fill-rule:nonzero;fill:rgb(39.99939%,39.99939%,39.99939%);fill-opacity:0.3;" d="M 129.800781 -6.988281 L 142.292969 -14.054688 L 146.410156 -5.898438 L 155.035156 8.738281 L 162.09375 20.273438 L 170.957031 34.917969 L 173.664062 43.253906 L 176.425781 56.417969 L 177.949219 72.621094 L 167.457031 70.871094 L 157.726562 68.25 L 149.652344 39.632812 L 143.925781 23.078125 L 132.550781 -0.269531 Z M 129.800781 -6.988281 "/>
<path style=" stroke:none;fill-rule:nonzero;fill:rgb(39.99939%,39.99939%,39.99939%);fill-opacity:0.3;" d="M 171.644531 28.792969 L 195.4375 22.203125 L 204.804688 17.625 L 211.097656 18.199219 L 216.894531 17.605469 L 226.886719 17.707031 L 236.382812 18.042969 L 257.601562 18.828125 L 279.808594 20.199219 L 298.929688 21.21875 L 296.863281 40.765625 L 247.046875 35.402344 L 216.875 33.828125 L 213.90625 33.75 L 208.003906 35.246094 L 179.578125 50.78125 L 177.460938 39.433594 L 174.125 33.371094 Z M 171.644531 28.792969 "/>
<path style=" stroke:none;fill-rule:nonzero;fill:rgb(39.99939%,39.99939%,39.99939%);fill-opacity:0.3;" d="M 101.457031 63.691406 L 146.832031 42.335938 L 150.117188 52.566406 L 153.847656 67.835938 L 150.859375 68.5 L 141.375 70.871094 L 128.097656 72.765625 L 119.5625 71.820312 Z M 101.457031 63.691406 "/>
<path style=" stroke:none;fill-rule:nonzero;fill:rgb(39.99939%,39.99939%,39.99939%);fill-opacity:0.3;" d="M 145.121094 -15.5625 L 167.621094 -27.253906 L 182.710938 -0.921875 L 184.089844 -1.824219 L 185.375 -2.667969 L 170.425781 -28.175781 L 192.820312 -38.84375 L 210.128906 -2.921875 L 204.433594 -1.621094 L 204.804688 -0.738281 L 205.179688 0.144531 L 214.222656 -1.515625 L 225.199219 -2.585938 L 251.636719 -5.851562 L 270.875 -8.339844 L 281.519531 -9.222656 L 295.546875 -8.613281 L 299.496094 -6.628906 L 298.992188 18.160156 L 281.03125 17 L 260.097656 16.203125 L 237.425781 15.40625 L 228.757812 15.179688 L 218.257812 15.515625 L 211.175781 15.742188 L 204.480469 15.203125 L 195.253906 20.035156 L 170.976562 26.988281 Z M 145.121094 -15.5625 "/>
<path style=" stroke:none;fill-rule:nonzero;fill:rgb(39.99939%,39.99939%,39.99939%);fill-opacity:0.3;" d="M 69.59375 36.6875 L 80.910156 27.210938 L 93.644531 44.996094 L 94.339844 44.523438 L 95.011719 44.066406 L 82.863281 26.097656 L 96.128906 15.507812 L 106.914062 34.960938 L 107.734375 34.398438 L 108.542969 33.84375 L 97.652344 13.808594 L 102.179688 10.308594 L 107.269531 6.671875 L 126.859375 48.554688 L 98.261719 61.703125 L 91.421875 59.109375 L 83.050781 55.222656 L 79.878906 54.117188 L 79.003906 53.730469 L 77.964844 53.453125 L 72.144531 51.429688 L 70.945312 51.570312 L 66.488281 50.375 L 56.625 46.996094 Z M 69.59375 36.6875 "/>
<g clip-path="url(#clip4)" clip-rule="nonzero">
<path style=" stroke:none;fill-rule:nonzero;fill:rgb(39.99939%,39.99939%,39.99939%);fill-opacity:0.3;" d="M 356.125 198.90625 L 353.265625 202.824219 L 349 208.570312 L 343.589844 217.175781 L 358.75 226.945312 L 383.742188 242.9375 L 395.09375 247.261719 L 388.667969 263.234375 L 382.042969 276.652344 L 375.40625 287.074219 L 364.425781 301.691406 L 356.703125 311.160156 L 339.828125 326.539062 L 228.636719 385.859375 L 222.230469 354.695312 L 217.480469 343.886719 L 212.375 330.582031 L 211.839844 323.421875 L 212.199219 313.835938 L 263.972656 325.667969 L 292.445312 279.160156 L 285.761719 244.246094 L 279.511719 211.117188 L 294.664062 197.019531 L 300.371094 187.953125 L 301.796875 185.292969 L 304.644531 179.976562 L 318.253906 181.832031 L 346.230469 198.90625 Z M 356.125 198.90625 "/>
</g>
<g clip-path="url(#clip5)" clip-rule="nonzero">
<path style=" stroke:none;fill-rule:nonzero;fill:rgb(39.99939%,39.99939%,39.99939%);fill-opacity:0.3;" d="M 227.910156 393.199219 L 301.34375 353.839844 L 344.925781 330.359375 L 359.367188 319.785156 L 366.964844 305.660156 L 387.277344 302.875 L 407.949219 296.300781 L 422.089844 290.429688 L 433.328125 284.902344 L 442.390625 280.757812 L 451.453125 274.890625 L 462.328125 269.023438 L 473.574219 262.566406 L 480.207031 260.328125 L 485.890625 255.90625 L 490.597656 252.113281 L 496.402344 251.414062 L 533.878906 255.210938 L 532.699219 260.753906 L 532.390625 261.410156 L 531.695312 265.480469 L 530.222656 272.40625 L 525.953125 300.859375 L 524.53125 324.566406 L 513.148438 330.257812 L 508.710938 332.0625 L 506.273438 317.542969 L 505.542969 317.777344 L 504.785156 318.019531 L 507.292969 332.636719 L 497.976562 336.421875 L 489.441406 341.640625 L 486.59375 348.75 L 484.382812 354.28125 L 481.738281 358.480469 L 466.203125 362.03125 L 392.703125 378.625 L 359.507812 385.265625 L 350.023438 387.636719 L 316.363281 395.402344 L 286.65625 400.578125 L 263.707031 403.882812 L 259.429688 404.234375 L 242.855469 404.234375 L 235.660156 403.890625 L 231.398438 401.566406 Z M 227.910156 393.199219 "/>
</g>
<path style=" stroke:none;fill-rule:nonzero;fill:rgb(39.99939%,39.99939%,39.99939%);fill-opacity:0.3;" d="M 298.722656 179.171875 L 297.125 181.425781 L 296.125 181.09375 L 297.390625 178.988281 Z M 298.722656 179.171875 "/>
<g clip-path="url(#clip6)" clip-rule="nonzero">
<path style=" stroke:none;fill-rule:nonzero;fill:rgb(39.99939%,39.99939%,39.99939%);fill-opacity:0.3;" d="M 371.941406 198.90625 L 370.878906 201.007812 L 365.851562 212.328125 L 358.820312 226.835938 L 343.71875 217.132812 L 349.132812 208.589844 L 353.382812 202.882812 L 356.273438 198.90625 Z M 371.941406 198.90625 "/>
</g>
<path style=" stroke:none;fill-rule:nonzero;fill:rgb(39.99939%,39.99939%,39.99939%);fill-opacity:0.3;" d="M 294.144531 184.398438 L 294.332031 184.46875 L 295.234375 188.929688 L 291.875 194.363281 L 278.832031 206.574219 L 263.597656 216.769531 L 249.796875 224.417969 L 232.371094 232.953125 L 221.917969 240.949219 L 200.453125 258.683594 L 199.714844 257.503906 L 206.816406 252.488281 L 228.15625 233.996094 L 233.847656 229.726562 L 252.339844 220.71875 L 277 205.542969 L 285.058594 197.480469 L 288.851562 193.214844 Z M 294.144531 184.398438 "/>
<path style=" stroke:none;fill-rule:nonzero;fill:rgb(39.99939%,39.99939%,39.99939%);fill-opacity:0.3;" d="M 278.273438 257.253906 L 283.839844 256.78125 L 287.011719 277.671875 L 281.929688 277.683594 Z M 278.273438 257.253906 "/>
<path style=" stroke:none;fill-rule:nonzero;fill:rgb(39.99939%,39.99939%,39.99939%);fill-opacity:0.3;" d="M 277.332031 212.050781 L 289.609375 278.839844 L 282.960938 289.984375 L 267.085938 286.597656 L 250.875 284.714844 L 265.054688 253.414062 L 263.957031 253.082031 L 262.960938 252.777344 L 248.535156 284.457031 L 214.753906 289.273438 L 211.855469 273.304688 L 201.867188 260.398438 L 222.363281 243.804688 L 229.5625 248.863281 L 229.898438 248.269531 L 230.222656 247.6875 L 223.4375 242.886719 L 234.015625 234.234375 L 259.757812 221.585938 L 264.558594 227.46875 L 265.074219 227.058594 L 265.59375 226.640625 L 261.0625 220.914062 Z M 277.332031 212.050781 "/>
<path style=" stroke:none;fill-rule:nonzero;fill:rgb(39.99939%,39.99939%,39.99939%);fill-opacity:0.3;" d="M 213.773438 292.824219 L 249.34375 286.847656 L 267.964844 291.285156 L 279.027344 294.796875 L 262.4375 322.453125 L 212.203125 310.542969 Z M 213.773438 292.824219 "/>
<g clip-path="url(#clip7)" clip-rule="nonzero">
<path style=" stroke:none;fill-rule:nonzero;fill:rgb(39.99939%,39.99939%,39.99939%);fill-opacity:0.3;" d="M 445.078125 106.492188 L 439.285156 105.023438 L 432.6875 104.179688 L 423.898438 103.445312 L 419.109375 104.488281 L 413.984375 107.226562 L 407.992188 110.414062 L 402.902344 113.230469 L 397.90625 115.59375 L 393.945312 116.617188 L 390.152344 117.066406 L 384.441406 116.78125 L 357.140625 108.429688 L 322.941406 91.792969 L 323.015625 91.273438 L 337.222656 98.375 L 364.726562 108.332031 L 384.640625 114.496094 L 395.074219 115.445312 L 403.609375 112.601562 L 415.464844 105.960938 L 422.101562 103.117188 L 429.691406 102.640625 L 445.8125 105.488281 Z M 445.078125 106.492188 "/>
</g>
<path style=" stroke:none;fill-rule:nonzero;fill:rgb(39.99939%,39.99939%,39.99939%);fill-opacity:0.3;" d="M 315.066406 148.320312 L 330.414062 147.457031 L 329.703125 161.941406 L 314.15625 161.210938 Z M 315.066406 148.320312 "/>
<g clip-path="url(#clip8)" clip-rule="nonzero">
<path style=" stroke:none;fill-rule:nonzero;fill:rgb(39.99939%,39.99939%,39.99939%);fill-opacity:0.3;" d="M 375.695312 191.449219 L 357.667969 196.789062 L 356.125 198.90625 L 346.230469 198.90625 L 318.253906 181.832031 L 304.644531 179.976562 L 304.824219 179.644531 L 311.816406 164.660156 L 313.15625 152.917969 L 315.1875 143.230469 L 316.417969 133.414062 L 317.644531 122.609375 L 319.136719 110.113281 L 321.078125 95.804688 L 356.316406 110.761719 L 383.859375 120.148438 L 390.195312 120.90625 L 398.007812 120.265625 L 401.632812 118.273438 L 404.734375 116.613281 L 411.351562 113.183594 L 421.214844 107.773438 L 424.703125 107.109375 L 429.902344 107.332031 L 435.34375 108.082031 L 441.285156 110.871094 L 435.667969 117.550781 L 430.253906 124.042969 L 421.03125 136.257812 L 414.207031 148.707031 L 413.566406 149.589844 L 411.195312 158.125 L 410.25 165.710938 L 409.042969 180.160156 L 408.675781 183.226562 L 383.585938 183.910156 L 383.589844 184.578125 L 383.589844 185.3125 L 408.449219 184.195312 L 407.894531 191.628906 Z M 375.695312 191.449219 "/>
</g>
<path style=" stroke:none;fill-rule:nonzero;fill:rgb(39.99939%,39.99939%,39.99939%);fill-opacity:0.3;" d="M 262.210938 111.257812 L 278.390625 80.402344 L 317.773438 93.234375 L 311.972656 131.925781 Z M 262.210938 111.257812 "/>
<path style=" stroke:none;fill-rule:nonzero;fill:rgb(39.99939%,39.99939%,39.99939%);fill-opacity:0.3;" d="M 262.15625 111.375 L 311.949219 132.054688 L 306.628906 161.765625 L 300.800781 176.242188 L 298.722656 179.171875 L 297.390625 178.988281 L 290.277344 178.515625 L 276.050781 167.609375 L 265.144531 156.226562 L 251.867188 144.371094 L 250.003906 143.195312 L 246.628906 139.871094 Z M 262.15625 111.375 "/>
<g clip-path="url(#clip9)" clip-rule="nonzero">
<path style=" stroke:none;fill-rule:nonzero;fill:rgb(39.99939%,39.99939%,39.99939%);fill-opacity:0.3;" d="M 375.652344 191.570312 L 371.941406 198.90625 L 356.273438 198.90625 L 357.722656 196.90625 Z M 375.652344 191.570312 "/>
</g>
<path style=" stroke:none;fill-rule:nonzero;fill:rgb(39.99939%,39.99939%,39.99939%);fill-opacity:0.3;" d="M 324.550781 167.6875 L 328.832031 173.011719 L 323.445312 177.625 L 319.039062 172.074219 Z M 324.550781 167.6875 "/>
<path style=" stroke:none;fill-rule:nonzero;fill:rgb(39.99939%,39.99939%,39.99939%);fill-opacity:0.3;" d="M 276.246094 77.117188 L 277.308594 77.121094 L 270.160156 89.289062 Z M 276.246094 77.117188 "/>
<path style=" stroke:none;fill-rule:nonzero;fill:rgb(39.99939%,39.99939%,39.99939%);fill-opacity:0.3;" d="M 243.894531 136.457031 L 243.03125 138.792969 L 242.855469 138.679688 Z M 243.894531 136.457031 "/>
<path style=" stroke:none;fill-rule:nonzero;fill:rgb(39.99939%,39.99939%,39.99939%);fill-opacity:0.3;" d="M 292.003906 149.40625 L 300.933594 149.824219 L 300.589844 157.984375 L 291.757812 157.710938 Z M 292.003906 149.40625 "/>
<path style=" stroke:none;fill-rule:nonzero;fill:rgb(39.99939%,39.99939%,39.99939%);fill-opacity:0.3;" d="M 270.15625 124.140625 L 262.304688 120.597656 L 265.769531 113.402344 L 274.269531 117.40625 Z M 270.15625 124.140625 "/>
<path style=" stroke:none;fill-rule:nonzero;fill:rgb(39.99939%,39.99939%,39.99939%);fill-opacity:0.3;" d="M 294.429688 128.457031 L 303.476562 128.898438 L 303.222656 137.734375 L 294.085938 137.234375 Z M 294.429688 128.457031 "/>
<path style=" stroke:none;fill-rule:nonzero;fill:rgb(39.99939%,39.99939%,39.99939%);fill-opacity:0.3;" d="M 281.921875 139.890625 L 285.707031 143.703125 L 280.035156 148.28125 L 276.355469 144.140625 Z M 281.921875 139.890625 "/>
<path style=" stroke:none;fill-rule:nonzero;fill:rgb(39.99939%,39.99939%,39.99939%);fill-opacity:0.3;" d="M 261.011719 124.730469 L 268.449219 129.273438 L 263.726562 137.46875 L 255.960938 132.71875 Z M 261.011719 124.730469 "/>
<path style=" stroke:none;fill-rule:nonzero;fill:rgb(39.99939%,39.99939%,39.99939%);fill-opacity:0.3;" d="M 299.085938 88.320312 L 308.515625 91.136719 L 307.441406 93.867188 L 305.480469 93.480469 L 304.855469 95.671875 L 307.09375 96.183594 L 306.488281 98.632812 L 297.050781 95.933594 L 297.550781 94 L 299.925781 94.257812 L 300.394531 92.066406 L 298.144531 91.425781 Z M 299.085938 88.320312 "/>
<path style=" stroke:none;fill-rule:nonzero;fill:rgb(39.99939%,39.99939%,39.99939%);fill-opacity:0.3;" d="M 279.882812 119.253906 L 286.863281 126.375 L 278.40625 131.523438 L 272.4375 123.914062 Z M 279.882812 119.253906 "/>
<path style=" stroke:none;fill-rule:nonzero;fill:rgb(39.99939%,39.99939%,39.99939%);fill-opacity:0.3;" d="M 280.660156 82.195312 L 290.6875 85.796875 L 289.070312 89.058594 L 286.953125 88.460938 L 285.800781 90.347656 L 288.222656 91.964844 L 287.199219 94.007812 L 277.339844 89.480469 L 278.714844 86.976562 L 280.394531 88.066406 L 281.433594 86.023438 L 279.382812 84.738281 Z M 280.660156 82.195312 "/>
<path style=" stroke:none;fill-rule:nonzero;fill:rgb(39.99939%,39.99939%,39.99939%);fill-opacity:0.3;" d="M 319.832031 89.726562 L 319.546875 91.597656 L 281.679688 78.359375 L 282.777344 76.550781 Z M 319.832031 89.726562 "/>
<path style=" stroke:none;fill-rule:nonzero;fill:rgb(39.99939%,39.99939%,39.99939%);fill-opacity:0.3;" d="M -62.199219 -6.203125 L -65.972656 -11.816406 L -65.597656 -17.125 L -65.292969 -25.34375 L -58.496094 -24.359375 L -48.496094 -20.195312 L -42.199219 -17.691406 L -37.238281 -15.761719 L -17.675781 -6.027344 L -0.0078125 2.351562 L 17.035156 14.738281 L 21.53125 17.847656 L 24.4375 18.078125 L 26.441406 16.671875 L 42.070312 27.5 L 42.710938 31.3125 L 45.363281 36.484375 L 52.863281 43.679688 L 46.535156 50.007812 L 41.796875 51.902344 L 32.785156 54.746094 L -2.363281 68.265625 L -1.265625 63.941406 L 13.742188 37.136719 L 19.25 32.1875 L 25.609375 37 L 26.042969 36.546875 L 26.539062 36.03125 L 18.484375 30.101562 L 13.375 34.441406 L -7.128906 22.917969 L -28.167969 9.742188 L -45.050781 1.769531 Z M -62.199219 -6.203125 "/>
<path style=" stroke:none;fill-rule:nonzero;fill:rgb(39.99939%,39.99939%,39.99939%);fill-opacity:0.3;" d="M 54.960938 41.582031 L 47.792969 35.257812 L 46.832031 32.363281 L 55.074219 41.46875 Z M 54.960938 41.582031 "/>
<path style=" stroke:none;fill-rule:nonzero;fill:rgb(39.99939%,39.99939%,39.99939%);fill-opacity:0.3;" d="M 24.578125 14.074219 L 23.3125 15.011719 L 21.945312 15.015625 L 11.429688 7.171875 L 18.460938 -2.324219 L 21.84375 0.308594 L 30.097656 7.832031 Z M 24.578125 14.074219 "/>
<path style=" stroke:none;fill-rule:nonzero;fill:rgb(39.99939%,39.99939%,39.99939%);fill-opacity:0.3;" d="M -25.855469 -13.511719 L -20.976562 -22.1875 L -9.582031 -18.203125 L -0.800781 -14.210938 L 2.894531 -14.339844 L 17.183594 -3.046875 L 9.886719 5.636719 L -1.925781 -2.527344 Z M -25.855469 -13.511719 "/>
<path style=" stroke:none;fill-rule:nonzero;fill:rgb(39.99939%,39.99939%,39.99939%);fill-opacity:0.3;" d="M 31.796875 9.25 L 44.332031 19.132812 L 44.234375 19.96875 L 41.820312 25.292969 L 27.867188 14.71875 Z M 31.796875 9.25 "/>
<path style=" stroke:none;fill-rule:nonzero;fill:rgb(39.99939%,39.99939%,39.99939%);fill-opacity:0.3;" d="M -40.582031 48.265625 L -63.414062 41.738281 L -90.230469 34.527344 L -85.480469 22.179688 L -78.769531 14.308594 L -76.105469 14.917969 L -74.398438 15.972656 L -68.445312 8.25 L -60.34375 -3.800781 L -45.9375 3.070312 L -56.054688 15.8125 L -55.1875 16.304688 L -54.25 16.839844 L -44.496094 3.792969 L -29.738281 10.355469 L -44.132812 28.285156 L -43.527344 28.941406 L -42.871094 29.652344 L -28.042969 11.234375 L -9.027344 23.367188 L 12.835938 35.941406 L -3.589844 64.433594 L -14.929688 58.992188 Z M -40.582031 48.265625 "/>
<path style=" stroke:none;fill-rule:nonzero;fill:rgb(39.99939%,39.99939%,39.99939%);fill-opacity:0.3;" d="M 2.027344 -81.472656 L 28.464844 -74.195312 L 59.839844 -64.113281 L 60.15625 -59.792969 L 60.476562 -54.683594 L 60.496094 -44.566406 L 60.511719 -35.824219 L 60.011719 -25.019531 L 59.402344 -19.222656 L 58.585938 -12.148438 L 55.667969 0.785156 L 54.203125 5.054688 L 52.765625 9.277344 L 46.359375 18.257812 L 24.175781 -1.078125 L 36.96875 -13.6875 L 36.140625 -14.554688 L 35.308594 -15.421875 L 22.625 -2.558594 L 11.511719 -11.144531 L 6.304688 -15.277344 L -3.664062 -18.046875 L -15.078125 -22.136719 L -28.40625 -27.746094 L -35.550781 -30.25 L -46.203125 -34.550781 L -39.984375 -47.714844 L -40.53125 -47.960938 L -41.078125 -48.203125 L -47.359375 -35.132812 L -59.199219 -39.085938 L -47.355469 -54.316406 L -21.273438 -71.863281 L -10.480469 -86.253906 L -4.980469 -84.847656 Z M 2.027344 -81.472656 "/>
<path style=" stroke:none;fill-rule:nonzero;fill:rgb(39.99939%,39.99939%,39.99939%);fill-opacity:0.3;" d="M 60.410156 -158.796875 L 61.730469 -157.492188 L 65.230469 -154.371094 L 69.496094 -154.101562 L 70.957031 -150.238281 L 71.546875 -146.375 L 71.851562 -144.753906 L 72.882812 -144.003906 L 74.25 -143.363281 L 74.167969 -134.679688 L 71.234375 -133.707031 L 69.734375 -115.839844 L 69.921875 -103.882812 L 79.539062 -104.527344 L 81.199219 -91.429688 L 84.738281 -84.421875 L 83.214844 -72.289062 L 84.949219 -71.140625 L 84.265625 -66.449219 L 81.792969 -42.480469 L 77.332031 -23.289062 L 69.742188 -2.410156 L 67.636719 3.570312 L 61.496094 15.714844 L 63.882812 16.222656 L 68.199219 15.484375 L 71.046875 14.019531 L 72.199219 12.410156 L 73.277344 6.101562 L 74.207031 1.734375 L 75.992188 0.199219 L 78.457031 -0.695312 L 78.453125 -2.550781 L 78.792969 -4.085938 L 79.863281 -10.417969 L 80.40625 -15.460938 L 81.511719 -20.609375 L 85.242188 -37.84375 L 93.121094 -59.035156 L 96.660156 -87.582031 L 98.480469 -111.96875 L 100.460938 -137.8125 L 99.863281 -151.300781 L 96.949219 -164.058594 L 94.847656 -170.996094 L 94.1875 -174.066406 L 96.246094 -179.292969 L 104.089844 -188.746094 L 113.457031 -187.980469 L 116.320312 -187.722656 L 116.671875 -180.933594 L 117.785156 -159.847656 L 117.808594 -141.207031 L 118.289062 -133.429688 L 118.316406 -97.640625 L 112.296875 -62.601562 L 107.316406 -35.140625 L 108.683594 -34.925781 L 110.101562 -34.703125 L 115.316406 -61.082031 L 141.300781 -57.039062 L 137.085938 -17.238281 L 132.402344 -14.503906 L 132.589844 -22.09375 L 125.417969 -23.820312 L 118.457031 -25.863281 L 107.023438 -28.441406 L 96.21875 -32.28125 L 93.886719 -33.347656 L 90.792969 -34.765625 L 88.597656 -28.167969 L 87.222656 -20.824219 L 86.929688 -11.726562 L 87.714844 -5.121094 L 89.429688 2.070312 L 92.695312 11.605469 L 80.289062 22.308594 L 78.78125 23.449219 L 55.074219 41.46875 L 46.832031 32.363281 L 46.128906 30.25 L 49.84375 22.582031 L 53.25 16.191406 L 57.582031 7.445312 L 59.300781 -3.574219 L 61.175781 -12.253906 L 62.601562 -24.828125 L 62.996094 -35.730469 L 62.875 -44.519531 L 62.570312 -58.855469 L 62.285156 -61.222656 L 75.035156 -66.980469 L 74.644531 -67.621094 L 62.207031 -62.449219 L 61.664062 -80.996094 L 61.40625 -104.332031 L 61.589844 -116.511719 L 61.128906 -142.933594 L 58.011719 -148.824219 L 57.484375 -149.820312 Z M 60.410156 -158.796875 "/>
<path style=" stroke:none;fill-rule:nonzero;fill:rgb(39.99939%,39.99939%,39.99939%);fill-opacity:0.3;" d="M 92.273438 -31.046875 L 96.746094 -29.980469 L 106.496094 -26.324219 L 119.4375 -23.289062 L 125.75 -20.964844 L 129.601562 -19.753906 L 129.582031 -12.757812 L 114.273438 -2.707031 L 101.296875 5.679688 L 95.890625 10.089844 L 92.78125 1.289062 L 90.910156 -6.046875 L 90.128906 -11.917969 L 89.957031 -20.871094 Z M 92.273438 -31.046875 "/>
<path style="fill-rule:nonzero;fill:rgb(39.99939%,39.99939%,39.99939%);fill-opacity:1;stroke-width:0.03;stroke-linecap:square;stroke-linejoin:miter;stroke:rgb(39.99939%,39.99939%,39.99939%);stroke-opacity:1;stroke-miterlimit:3.239307;" d="M 219.382812 91.507812 L 216.222656 94.671875 L 211.628906 96.542969 L 211.273438 96.917969 L 210.957031 97.25 L 201.917969 104.742188 L 198.394531 106.414062 L 197.84375 106.601562 L 197.363281 106.761719 L 187.367188 111.359375 L 187.414062 112.378906 L 187.480469 113.738281 L 178.269531 116.332031 L 177.988281 117.085938 L 177.675781 117.929688 L 172.78125 119.988281 L 173.179688 123.027344 L 168.746094 124.183594 L 168.511719 124.6875 L 168.164062 124.945312 L 163.0625 126.410156 L 166.734375 139.003906 L 166.953125 139.539062 L 167.15625 140 L 168.652344 145.074219 L 176.355469 149.800781 L 177.339844 149.464844 L 180.421875 149.023438 L 181.917969 149.683594 L 183.09375 153.878906 L 188.710938 155.910156 L 189.359375 155.875 L 190.011719 155.84375 L 202.335938 163.363281 L 203.695312 164.105469 L 204.269531 164.242188 L 204.875 164.253906 L 208.542969 163.898438 L 210.832031 162.65625 L 214.265625 159.628906 L 214.625 158.945312 L 214.996094 158.242188 L 224.234375 144.03125 L 235.070312 146.761719 L 240.921875 147.917969 L 239.5625 156.421875 L 237.191406 165.90625 L 235.292969 176.339844 L 235.292969 178.273438 L 234.777344 181.273438 L 235.246094 187.277344 L 234.84375 195.558594 L 229.242188 195.941406 L 211.230469 196.847656 L 192.816406 197.628906 L 165.585938 200.132812 L 161.035156 185.644531 L 159.828125 181.027344 L 159.476562 179.179688 L 178.089844 174.972656 L 181.507812 162.347656 L 180.011719 162.375 L 178.710938 162.398438 L 175.613281 173.722656 L 169.648438 174.953125 L 163.753906 156.566406 L 151.964844 159.539062 L 156.472656 174.246094 L 144.457031 175.914062 L 142.515625 168.820312 L 140.082031 158.957031 L 138.292969 148.816406 L 138.097656 139.566406 L 137.054688 122.5 L 136.132812 110.871094 L 135.445312 102.980469 L 134.632812 97.722656 L 133.378906 91.644531 L 131.863281 84.914062 L 130.179688 78.589844 L 128.589844 72.976562 L 125.957031 71.976562 L 125.429688 68.65625 L 136.417969 65.808594 L 139.691406 67.0625 L 152.214844 70.679688 L 162.382812 75.214844 L 168.140625 78.570312 L 169.425781 80.59375 L 165.347656 87.414062 L 160.6875 95.265625 L 157.769531 99.152344 L 157.855469 100.578125 L 158.363281 102.636719 L 159.78125 103.585938 L 160.484375 103.140625 L 161.285156 102.632812 L 160.03125 102.082031 L 159.523438 99.386719 L 162.328125 95.707031 L 166.515625 88.363281 L 171.761719 80.75 L 181.902344 85.675781 L 191.328125 90.378906 L 198.550781 91.304688 L 206.128906 90.957031 L 213.640625 89.835938 L 221.039062 89.410156 Z M 219.382812 91.507812 " transform="matrix(1,0,0,1,-74,-13)"/>
<path style="fill-rule:nonzero;fill:rgb(39.99939%,39.99939%,39.99939%);fill-opacity:1;stroke-width:0.03;stroke-linecap:square;stroke-linejoin:miter;stroke:rgb(39.99939%,39.99939%,39.99939%);stroke-opacity:1;stroke-miterlimit:3.239307;" d="M 153.03125 160.144531 L 163.128906 157.566406 L 168.648438 175.25 L 159.164062 177.558594 L 158.472656 173.96875 L 157.402344 174.117188 Z M 153.03125 160.144531 " transform="matrix(1,0,0,1,-74,-13)"/>
<path style="fill-rule:nonzero;fill:rgb(39.99939%,39.99939%,39.99939%);fill-opacity:1;stroke-width:0.03;stroke-linecap:square;stroke-linejoin:miter;stroke:rgb(39.99939%,39.99939%,39.99939%);stroke-opacity:1;stroke-miterlimit:3.239307;" d="M 197.429688 106.875 L 200.269531 112.347656 L 189.601562 116.40625 L 187.496094 111.394531 Z M 197.429688 106.875 " transform="matrix(1,0,0,1,-74,-13)"/>
<path style="fill-rule:nonzero;fill:rgb(39.99939%,39.99939%,39.99939%);fill-opacity:1;stroke-width:0.03;stroke-linecap:square;stroke-linejoin:miter;stroke:rgb(39.99939%,39.99939%,39.99939%);stroke-opacity:1;stroke-miterlimit:3.239307;" d="M 190 155.714844 L 189.699219 153.96875 L 199.863281 151.257812 L 203.707031 163.980469 L 202.441406 163.28125 Z M 190 155.714844 " transform="matrix(1,0,0,1,-74,-13)"/>
<path style="fill-rule:nonzero;fill:rgb(39.99939%,39.99939%,39.99939%);fill-opacity:1;stroke-width:0.03;stroke-linecap:square;stroke-linejoin:miter;stroke:rgb(39.99939%,39.99939%,39.99939%);stroke-opacity:1;stroke-miterlimit:3.239307;" d="M 177.28125 149.351562 L 173.167969 138.339844 L 184.796875 135.253906 L 188.6875 155.785156 L 183.160156 153.765625 L 182.003906 149.582031 L 180.433594 148.898438 Z M 177.28125 149.351562 " transform="matrix(1,0,0,1,-74,-13)"/>
<path style="fill-rule:nonzero;fill:rgb(39.99939%,39.99939%,39.99939%);fill-opacity:1;stroke-width:0.03;stroke-linecap:square;stroke-linejoin:miter;stroke:rgb(39.99939%,39.99939%,39.99939%);stroke-opacity:1;stroke-miterlimit:3.239307;" d="M 167.289062 139.988281 L 172.359375 138.527344 L 176.3125 149.675781 L 168.746094 144.980469 Z M 167.289062 139.988281 " transform="matrix(1,0,0,1,-74,-13)"/>
<path style="fill-rule:nonzero;fill:rgb(39.99939%,39.99939%,39.99939%);fill-opacity:1;stroke-width:0.03;stroke-linecap:square;stroke-linejoin:miter;stroke:rgb(39.99939%,39.99939%,39.99939%);stroke-opacity:1;stroke-miterlimit:3.239307;" d="M 168.203125 125.070312 L 172.007812 137.761719 L 166.867188 138.988281 L 163.191406 126.453125 Z M 168.203125 125.070312 " transform="matrix(1,0,0,1,-74,-13)"/>
<path style="fill-rule:nonzero;fill:rgb(39.99939%,39.99939%,39.99939%);fill-opacity:1;stroke-width:0.03;stroke-linecap:square;stroke-linejoin:miter;stroke:rgb(39.99939%,39.99939%,39.99939%);stroke-opacity:1;stroke-miterlimit:3.239307;" d="M 177.726562 118.046875 L 184.46875 134.503906 L 172.84375 137.585938 L 168.859375 124.253906 L 173.292969 123.097656 L 172.910156 120.03125 Z M 177.726562 118.046875 " transform="matrix(1,0,0,1,-74,-13)"/>
<path style="fill-rule:nonzero;fill:rgb(39.99939%,39.99939%,39.99939%);fill-opacity:1;stroke-width:0.03;stroke-linecap:square;stroke-linejoin:miter;stroke:rgb(39.99939%,39.99939%,39.99939%);stroke-opacity:1;stroke-miterlimit:3.239307;" d="M 182.84375 127.339844 L 202.609375 120.304688 L 205.023438 127.902344 L 185.515625 134.28125 Z M 182.84375 127.339844 " transform="matrix(1,0,0,1,-74,-13)"/>
<path style="fill-rule:nonzero;fill:rgb(39.99939%,39.99939%,39.99939%);fill-opacity:1;stroke-width:0.03;stroke-linecap:square;stroke-linejoin:miter;stroke:rgb(39.99939%,39.99939%,39.99939%);stroke-opacity:1;stroke-miterlimit:3.239307;" d="M 226.402344 102.980469 L 236.0625 100.050781 L 241.894531 117.535156 L 231.789062 120.8125 Z M 226.402344 102.980469 " transform="matrix(1,0,0,1,-74,-13)"/>
<path style="fill-rule:nonzero;fill:rgb(39.99939%,39.99939%,39.99939%);fill-opacity:1;stroke-width:0.03;stroke-linecap:square;stroke-linejoin:miter;stroke:rgb(39.99939%,39.99939%,39.99939%);stroke-opacity:1;stroke-miterlimit:3.239307;" d="M 187.546875 113.851562 L 191.527344 123.472656 L 182.453125 126.742188 L 178.378906 116.40625 Z M 187.546875 113.851562 " transform="matrix(1,0,0,1,-74,-13)"/>
<path style="fill-rule:nonzero;fill:rgb(39.99939%,39.99939%,39.99939%);fill-opacity:1;stroke-width:0.03;stroke-linecap:square;stroke-linejoin:miter;stroke:rgb(39.99939%,39.99939%,39.99939%);stroke-opacity:1;stroke-miterlimit:3.239307;" d="M 221.171875 89.546875 L 225.421875 102.5625 L 214.890625 105.765625 L 211.710938 96.785156 L 216.316406 94.828125 L 219.597656 91.644531 Z M 221.171875 89.546875 " transform="matrix(1,0,0,1,-74,-13)"/>
<path style="fill-rule:nonzero;fill:rgb(39.99939%,39.99939%,39.99939%);fill-opacity:1;stroke-width:0.03;stroke-linecap:square;stroke-linejoin:miter;stroke:rgb(39.99939%,39.99939%,39.99939%);stroke-opacity:1;stroke-miterlimit:3.239307;" d="M 232.789062 88.203125 L 236.011719 99.394531 L 226.109375 102.308594 L 221.996094 89.402344 Z M 232.789062 88.203125 " transform="matrix(1,0,0,1,-74,-13)"/>
<path style="fill-rule:nonzero;fill:rgb(39.99939%,39.99939%,39.99939%);fill-opacity:1;stroke-width:0.03;stroke-linecap:square;stroke-linejoin:miter;stroke:rgb(39.99939%,39.99939%,39.99939%);stroke-opacity:1;stroke-miterlimit:3.239307;" d="M 189.679688 116.882812 L 200.390625 112.871094 L 202.328125 119.417969 L 192.253906 123.074219 Z M 189.679688 116.882812 " transform="matrix(1,0,0,1,-74,-13)"/>
<path style="fill-rule:nonzero;fill:rgb(39.99939%,39.99939%,39.99939%);fill-opacity:1;stroke-width:0.03;stroke-linecap:square;stroke-linejoin:miter;stroke:rgb(39.99939%,39.99939%,39.99939%);stroke-opacity:1;stroke-miterlimit:3.239307;" d="M 166.597656 202.15625 L 190.96875 199.902344 L 211.5 198.761719 L 236.875 198.878906 L 247.429688 218.976562 L 236.742188 218.042969 L 224.550781 215.371094 L 169.464844 219.574219 Z M 166.597656 202.15625 " transform="matrix(1,0,0,1,-74,-13)"/>
<path style="fill-rule:nonzero;fill:rgb(39.99939%,39.99939%,39.99939%);fill-opacity:1;stroke-width:0.03;stroke-linecap:square;stroke-linejoin:miter;stroke:rgb(39.99939%,39.99939%,39.99939%);stroke-opacity:1;stroke-miterlimit:3.239307;" d="M 263.847656 265.886719 L 272.0625 275.203125 L 280.476562 289.785156 L 283.351562 303.769531 L 282.746094 311.4375 L 271.167969 309.96875 L 270.976562 310.566406 L 270.761719 311.226562 L 282.171875 313.132812 L 281.273438 321.570312 L 241.457031 311.960938 L 225.679688 307.359375 L 223.261719 306.199219 Z M 263.847656 265.886719 " transform="matrix(1,0,0,1,-74,-13)"/>
<path style="fill-rule:nonzero;fill:rgb(39.99939%,39.99939%,39.99939%);fill-opacity:1;stroke-width:0.03;stroke-linecap:square;stroke-linejoin:miter;stroke:rgb(39.99939%,39.99939%,39.99939%);stroke-opacity:1;stroke-miterlimit:3.239307;" d="M 185.730469 135.164062 L 193.527344 132.761719 L 199.671875 150.671875 L 189.515625 153.492188 Z M 185.730469 135.164062 " transform="matrix(1,0,0,1,-74,-13)"/>
<path style="fill-rule:nonzero;fill:rgb(39.99939%,39.99939%,39.99939%);fill-opacity:1;stroke-width:0.03;stroke-linecap:square;stroke-linejoin:miter;stroke:rgb(39.99939%,39.99939%,39.99939%);stroke-opacity:1;stroke-miterlimit:3.239307;" d="M 194.285156 132.527344 L 205.398438 128.746094 L 210.410156 146.597656 L 200.75 150.277344 Z M 194.285156 132.527344 " transform="matrix(1,0,0,1,-74,-13)"/>
<path style="fill-rule:nonzero;fill:rgb(39.99939%,39.99939%,39.99939%);fill-opacity:1;stroke-width:0.03;stroke-linecap:square;stroke-linejoin:miter;stroke:rgb(39.99939%,39.99939%,39.99939%);stroke-opacity:1;stroke-miterlimit:3.239307;" d="M 237.078125 100.082031 L 251.398438 95.542969 L 251.371094 96.59375 L 249.992188 109.003906 L 248.789062 115.027344 L 242.765625 116.746094 Z M 237.078125 100.082031 " transform="matrix(1,0,0,1,-74,-13)"/>
<path style="fill-rule:nonzero;fill:rgb(39.99939%,39.99939%,39.99939%);fill-opacity:1;stroke-width:0.03;stroke-linecap:square;stroke-linejoin:miter;stroke:rgb(39.99939%,39.99939%,39.99939%);stroke-opacity:1;stroke-miterlimit:3.239307;" d="M 206.144531 128.433594 L 218.757812 123.027344 L 224.066406 142.480469 L 212.03125 148.191406 Z M 206.144531 128.433594 " transform="matrix(1,0,0,1,-74,-13)"/>
<path style="fill-rule:nonzero;fill:rgb(39.99939%,39.99939%,39.99939%);fill-opacity:1;stroke-width:0.03;stroke-linecap:square;stroke-linejoin:miter;stroke:rgb(39.99939%,39.99939%,39.99939%);stroke-opacity:1;stroke-miterlimit:3.239307;" d="M 233.871094 87.996094 L 237.660156 87.964844 L 240.664062 88.332031 L 248.011719 89.523438 L 251.171875 90.476562 L 251.3125 94.921875 L 236.808594 99.128906 Z M 233.871094 87.996094 " transform="matrix(1,0,0,1,-74,-13)"/>
<path style="fill-rule:nonzero;fill:rgb(39.99939%,39.99939%,39.99939%);fill-opacity:1;stroke-width:0.03;stroke-linecap:square;stroke-linejoin:miter;stroke:rgb(39.99939%,39.99939%,39.99939%);stroke-opacity:1;stroke-miterlimit:3.239307;" d="M 220.011719 121.996094 L 230.921875 121.585938 L 238.421875 143.914062 L 226.210938 141.488281 Z M 220.011719 121.996094 " transform="matrix(1,0,0,1,-74,-13)"/>
<path style="fill-rule:nonzero;fill:rgb(39.99939%,39.99939%,39.99939%);fill-opacity:1;stroke-width:0.03;stroke-linecap:square;stroke-linejoin:miter;stroke:rgb(39.99939%,39.99939%,39.99939%);stroke-opacity:1;stroke-miterlimit:3.239307;" d="M 232.066406 121.347656 L 241.980469 118.269531 L 245.203125 128.117188 L 244.90625 130.78125 L 241.515625 144.339844 L 239.441406 144.136719 Z M 232.066406 121.347656 " transform="matrix(1,0,0,1,-74,-13)"/>
<path style="fill-rule:nonzero;fill:rgb(39.99939%,39.99939%,39.99939%);fill-opacity:1;stroke-width:0.03;stroke-linecap:square;stroke-linejoin:miter;stroke:rgb(39.99939%,39.99939%,39.99939%);stroke-opacity:1;stroke-miterlimit:3.239307;" d="M 215.136719 106.5625 L 225.519531 103.261719 L 230.730469 120.949219 L 219.71875 121.199219 Z M 215.136719 106.5625 " transform="matrix(1,0,0,1,-74,-13)"/>
<path style="fill-rule:nonzero;fill:rgb(39.99939%,39.99939%,39.99939%);fill-opacity:1;stroke-width:0.03;stroke-linecap:square;stroke-linejoin:miter;stroke:rgb(39.99939%,39.99939%,39.99939%);stroke-opacity:1;stroke-miterlimit:3.239307;" d="M 251.949219 85.621094 L 251.964844 85.769531 L 232.261719 83.152344 L 231.726562 81.25 L 241.457031 83.871094 Z M 251.949219 85.621094 " transform="matrix(1,0,0,1,-74,-13)"/>
<path style="fill-rule:nonzero;fill:rgb(39.99939%,39.99939%,39.99939%);fill-opacity:1;stroke-width:0.03;stroke-linecap:square;stroke-linejoin:miter;stroke:rgb(39.99939%,39.99939%,39.99939%);stroke-opacity:1;stroke-miterlimit:3.239307;" d="M 175.277344 76.773438 L 175.457031 76.691406 L 193.5625 84.820312 L 202.097656 85.765625 L 215.375 83.871094 L 224.859375 81.5 L 227.847656 80.835938 L 228.464844 83.371094 L 221.355469 84.949219 L 212.910156 86.289062 L 204.03125 86.984375 L 198.898438 86.566406 L 192.886719 85.960938 L 183.886719 81.859375 Z M 175.277344 76.773438 " transform="matrix(1,0,0,1,-74,-13)"/>
<path style="fill-rule:nonzero;fill:rgb(39.99939%,39.99939%,39.99939%);fill-opacity:1;stroke-width:0.03;stroke-linecap:square;stroke-linejoin:miter;stroke:rgb(39.99939%,39.99939%,39.99939%);stroke-opacity:1;stroke-miterlimit:3.239307;" d="M 131.695312 103.085938 L 133.230469 115.960938 L 132.972656 115.957031 L 132.867188 113.746094 L 131.53125 103.058594 Z M 131.695312 103.085938 " transform="matrix(1,0,0,1,-74,-13)"/>
<path style="fill-rule:nonzero;fill:rgb(39.99939%,39.99939%,39.99939%);fill-opacity:1;stroke-width:0.03;stroke-linecap:square;stroke-linejoin:miter;stroke:rgb(39.99939%,39.99939%,39.99939%);stroke-opacity:1;stroke-miterlimit:3.239307;" d="M 133.027344 117.109375 L 133.433594 117.117188 L 134.691406 145.5625 L 133.816406 140.300781 L 133.339844 123.703125 Z M 133.027344 117.109375 " transform="matrix(1,0,0,1,-74,-13)"/>
<path style="fill-rule:nonzero;fill:rgb(39.99939%,39.99939%,39.99939%);fill-opacity:1;stroke-width:0.03;stroke-linecap:square;stroke-linejoin:miter;stroke:rgb(39.99939%,39.99939%,39.99939%);stroke-opacity:1;stroke-miterlimit:3.239307;" d="M 127.476562 80.234375 L 128.796875 85.304688 L 130.34375 92.304688 L 131.121094 96.761719 L 131.691406 101.820312 L 131.367188 101.765625 L 130.96875 98.570312 Z M 127.476562 80.234375 " transform="matrix(1,0,0,1,-74,-13)"/>
<path style="fill-rule:nonzero;fill:rgb(39.99939%,39.99939%,39.99939%);fill-opacity:1;stroke-width:0.03;stroke-linecap:square;stroke-linejoin:miter;stroke:rgb(39.99939%,39.99939%,39.99939%);stroke-opacity:1;stroke-miterlimit:3.239307;" d="M 165.421875 72.109375 L 163.515625 71.386719 L 153.878906 67.117188 L 157.050781 68.222656 Z M 165.421875 72.109375 " transform="matrix(1,0,0,1,-74,-13)"/>
<path style="fill-rule:nonzero;fill:rgb(39.99939%,39.99939%,39.99939%);fill-opacity:1;stroke-width:0.03;stroke-linecap:square;stroke-linejoin:miter;stroke:rgb(39.99939%,39.99939%,39.99939%);stroke-opacity:1;stroke-miterlimit:3.239307;" d="M 151.964844 66.453125 L 144.945312 64.570312 L 146.144531 64.429688 Z M 151.964844 66.453125 " transform="matrix(1,0,0,1,-74,-13)"/>
<path style="fill-rule:nonzero;fill:rgb(39.99939%,39.99939%,39.99939%);fill-opacity:1;stroke-width:0.03;stroke-linecap:square;stroke-linejoin:miter;stroke:rgb(39.99939%,39.99939%,39.99939%);stroke-opacity:1;stroke-miterlimit:3.239307;" d="M 170.304688 222.265625 L 200.367188 220.191406 L 201.550781 228.742188 L 197.550781 231.757812 L 195.34375 234.613281 L 190.441406 237.5 L 186.941406 239.835938 L 181.925781 243.941406 L 182.585938 244.300781 L 183.34375 244.710938 L 187.992188 240.550781 L 191.410156 238.472656 L 196.277344 235.5 L 200.558594 232.859375 L 204.222656 228.738281 L 202.863281 220.542969 L 225.996094 218.496094 L 226.925781 232.363281 L 219.105469 231.570312 L 202.832031 250.394531 L 203.757812 250.796875 L 204.6875 251.203125 L 219.820312 232.921875 L 229.609375 234.554688 L 228.414062 219.035156 L 246.617188 221.382812 L 249.628906 225.179688 L 248.882812 229.777344 L 248.097656 231.347656 L 242.40625 239.410156 L 242.160156 240.390625 L 236.433594 247.726562 L 251.820312 256.472656 L 260.929688 264.085938 L 259.949219 267.613281 L 252.957031 274.019531 L 229.195312 270.613281 L 229.144531 271.460938 L 229.09375 272.3125 L 251.628906 275.382812 L 221.019531 306 L 218.695312 305.320312 L 214.453125 303.566406 L 204.917969 299.472656 L 207.96875 286.121094 L 207.507812 286.023438 L 207.054688 285.929688 L 204.003906 299.152344 L 198.324219 296.230469 L 196.792969 295.109375 L 190.378906 287.328125 L 181.472656 276.363281 L 174.132812 265.882812 L 173.707031 254.890625 L 189.699219 258.644531 L 189.765625 257.917969 L 189.835938 257.171875 L 173.703125 253.167969 Z M 170.304688 222.265625 " transform="matrix(1,0,0,1,-74,-13)"/>
<path style="fill-rule:nonzero;fill:rgb(39.99939%,39.99939%,39.99939%);fill-opacity:1;stroke-width:0.03;stroke-linecap:square;stroke-linejoin:miter;stroke:rgb(39.99939%,39.99939%,39.99939%);stroke-opacity:1;stroke-miterlimit:3.239307;" d="M 224.109375 143.976562 L 214.9375 158.125 L 212.3125 148.871094 Z M 224.109375 143.976562 " transform="matrix(1,0,0,1,-74,-13)"/>
<path style="fill-rule:nonzero;fill:rgb(39.99939%,39.99939%,39.99939%);fill-opacity:1;stroke-width:0.03;stroke-linecap:square;stroke-linejoin:miter;stroke:rgb(39.99939%,39.99939%,39.99939%);stroke-opacity:1;stroke-miterlimit:3.239307;" d="M 214.171875 159.539062 L 210.734375 162.566406 L 208.480469 163.785156 L 204.835938 164.132812 L 200.9375 151.0625 L 210.707031 147.261719 Z M 214.171875 159.539062 " transform="matrix(1,0,0,1,-74,-13)"/>
</g>
</svg>
