<?xml version="1.0" encoding="UTF-8"?>
<svg xmlns="http://www.w3.org/2000/svg" xmlns:xlink="http://www.w3.org/1999/xlink" width="361pt" height="361pt" viewBox="0 0 361 361" version="1.1">
<defs>
<clipPath id="clip1">
  <path d="M 0 349 L 81 349 L 81 360 L 0 360 Z M 0 349 "/>
</clipPath>
<clipPath id="clip2">
  <path d="M 27 351 L 71 351 L 71 360 L 27 360 Z M 27 351 "/>
</clipPath>
<clipPath id="clip3">
  <path d="M 162 333 L 317 333 L 317 360 L 162 360 Z M 162 333 "/>
</clipPath>
<clipPath id="clip4">
  <path d="M 48 334 L 98 334 L 98 360 L 48 360 Z M 48 334 "/>
</clipPath>
<clipPath id="clip5">
  <path d="M 90 346 L 168 346 L 168 360 L 90 360 Z M 90 346 "/>
</clipPath>
<clipPath id="clip6">
  <path d="M 0 324 L 53 324 L 53 360 L 0 360 Z M 0 324 "/>
</clipPath>
<clipPath id="clip7">
  <path d="M 329 324 L 360 324 L 360 360 L 329 360 Z M 329 324 "/>
</clipPath>
<clipPath id="clip8">
  <path d="M 343 155 L 360 155 L 360 242 L 343 242 Z M 343 155 "/>
</clipPath>
<clipPath id="clip9">
  <path d="M 276 0 L 360 0 L 360 18 L 276 18 Z M 276 0 "/>
</clipPath>
<clipPath id="clip10">
  <path d="M 288 0 L 360 0 L 360 106 L 288 106 Z M 288 0 "/>
</clipPath>
<clipPath id="clip11">
  <path d="M 354 104 L 360 104 L 360 159 L 354 159 Z M 354 104 "/>
</clipPath>
<clipPath id="clip12">
  <path d="M 334 232 L 360 232 L 360 329 L 334 329 Z M 334 232 "/>
</clipPath>
<clipPath id="clip13">
  <path d="M 300 17 L 360 17 L 360 98 L 300 98 Z M 300 17 "/>
</clipPath>
</defs>
<g id="surface259">
<path style="fill-rule:nonzero;fill:rgb(0%,0%,0%);fill-opacity:1;stroke-width:0.03;stroke-linecap:square;stroke-linejoin:miter;stroke:rgb(0%,0%,0%);stroke-opacity:1;stroke-miterlimit:10;" d="M 0 178 L 360 178 L 360 -182 L 0 -182 Z M 0 178 " transform="matrix(1,0,0,1,0,182)"/>
<g clip-path="url(#clip1)" clip-rule="nonzero">
<path style=" stroke:none;fill-rule:nonzero;fill:rgb(39.99939%,39.99939%,39.99939%);fill-opacity:0.3;" d="M -109.804688 357.023438 L -107.71875 356.199219 L -91.1875 349.578125 L 19.703125 378.070312 L 15.039062 391.785156 L -0.296875 392.296875 L -0.304688 393.734375 L -0.308594 395.171875 L 17.550781 394.613281 L 23.40625 378.890625 L 80.359375 393.90625 L 69.261719 428.328125 L 67.390625 439.675781 L 66.371094 453.433594 L 54.511719 450.285156 L 53.878906 452.082031 L 66.199219 455.402344 L 64.121094 468.851562 L 16.523438 462.828125 L -18.742188 455.347656 L -80.007812 449.644531 L -79.648438 429.84375 L -81.242188 429.808594 L -82.792969 429.773438 L -83.035156 449.378906 L -116.007812 446.78125 L -114.773438 433.003906 L -116.027344 432.90625 L -117.277344 432.808594 L -118.332031 446.523438 L -128.667969 445.496094 L -128.210938 432.546875 L -127.320312 420.722656 L -128.792969 420.636719 L -130.265625 420.554688 L -131.285156 431.980469 L -167.21875 426.1875 L -151.488281 394.214844 L -151.839844 394.082031 Z M -109.804688 357.023438 "/>
</g>
<path style=" stroke:none;fill-rule:nonzero;fill:rgb(39.99939%,39.99939%,39.99939%);fill-opacity:0.3;" d="M 21.480469 159.96875 L 33.191406 136.304688 L 66.835938 147.632812 L 82.242188 144.855469 L 94.265625 145.929688 L 133.136719 153.945312 L 146.015625 154.636719 L 148.402344 176.097656 L 139.152344 203.136719 L 36.121094 165.734375 Z M 21.480469 159.96875 "/>
<path style=" stroke:none;fill-rule:nonzero;fill:rgb(39.99939%,39.99939%,39.99939%);fill-opacity:0.3;" d="M 105.964844 -29.96875 L 126.566406 -34.988281 L 175.957031 80.449219 L 161.019531 81.074219 L 134.617188 82.1875 L 134.65625 83.613281 L 134.703125 85.289062 L 138.296875 85.160156 L 143.148438 128.835938 L 125.917969 117.503906 L 119.988281 108.398438 L 117.578125 96.972656 Z M 105.964844 -29.96875 "/>
<g clip-path="url(#clip2)" clip-rule="nonzero">
<path style=" stroke:none;fill-rule:nonzero;fill:rgb(39.99939%,39.99939%,39.99939%);fill-opacity:0.3;" d="M 37.15625 351.351562 L 70.050781 362.039062 L 62.667969 384.742188 L 27.394531 373.4375 Z M 37.15625 351.351562 "/>
</g>
<path style=" stroke:none;fill-rule:nonzero;fill:rgb(39.99939%,39.99939%,39.99939%);fill-opacity:0.3;" d="M 185.132812 288.992188 L 309.957031 317.09375 L 317.558594 337.472656 L 314.25 359.679688 L 253.984375 345.371094 L 259.429688 320.347656 L 258.441406 320.128906 L 257.304688 319.875 L 251.90625 344.878906 L 174.164062 325.976562 Z M 185.132812 288.992188 "/>
<path style=" stroke:none;fill-rule:nonzero;fill:rgb(39.99939%,39.99939%,39.99939%);fill-opacity:0.3;" d="M 115.742188 319.226562 L 168.925781 332.019531 L 166.421875 347.488281 L 152.804688 348.707031 L 138.230469 348.824219 L 126.648438 348.113281 L 117.523438 346.34375 L 106.453125 343.433594 Z M 115.742188 319.226562 "/>
<path style=" stroke:none;fill-rule:nonzero;fill:rgb(39.99939%,39.99939%,39.99939%);fill-opacity:0.3;" d="M -35.238281 307.503906 L 10.8125 283.511719 L 1.839844 316.175781 Z M -35.238281 307.503906 "/>
<g clip-path="url(#clip3)" clip-rule="nonzero">
<path style=" stroke:none;fill-rule:nonzero;fill:rgb(39.99939%,39.99939%,39.99939%);fill-opacity:0.3;" d="M 174.722656 333.539062 L 259.601562 351.0625 L 316.28125 363.851562 L 316.34375 381.015625 L 311.941406 405.945312 L 310.328125 412.222656 L 283.527344 406.527344 L 284 398.703125 L 279.523438 396.582031 L 278.878906 397.476562 L 278.230469 398.371094 L 281.410156 399.820312 L 281.054688 409.207031 L 309.914062 414.914062 L 298.972656 443.910156 L 240.386719 429.046875 L 253.628906 393.75 L 250.503906 393.125 L 243.4375 414.035156 L 221.40625 410.289062 L 218.445312 411.226562 L 207.921875 409.355469 L 207.425781 410.144531 L 206.9375 410.914062 L 242.738281 416.683594 L 237.847656 428.234375 L 162.035156 410.589844 L 164.964844 394.566406 L 178.371094 397.171875 L 178.707031 396.03125 L 179.039062 394.894531 L 165.355469 392.074219 L 168.617188 373.785156 L 170.714844 361.339844 Z M 174.722656 333.539062 "/>
</g>
<path style=" stroke:none;fill-rule:nonzero;fill:rgb(39.99939%,39.99939%,39.99939%);fill-opacity:0.3;" d="M 128.8125 277.84375 L 178.777344 289.53125 L 168.347656 326.460938 L 115.347656 314.445312 Z M 128.8125 277.84375 "/>
<path style=" stroke:none;fill-rule:nonzero;fill:rgb(39.99939%,39.99939%,39.99939%);fill-opacity:0.3;" d="M -58.324219 321.933594 L -39.976562 308.820312 L 6.972656 319.957031 L 13.691406 296.050781 L 108.113281 318.203125 L 99.640625 341.878906 L 61.816406 331.929688 L 53.777344 330.21875 L 30.160156 330.015625 L 8.390625 333.105469 L -7.136719 331.660156 L -17.773438 329.945312 L -26.210938 327.6875 L -26.414062 328.214844 L -26.617188 328.746094 L -18.363281 331.003906 L -21.503906 338.996094 L -46.632812 330.777344 Z M -58.324219 321.933594 "/>
<path style=" stroke:none;fill-rule:nonzero;fill:rgb(39.99939%,39.99939%,39.99939%);fill-opacity:0.3;" d="M 33.699219 269.902344 L 47.082031 267.929688 L 57.390625 267.007812 L 69.527344 266.769531 L 83.996094 267.484375 L 95.546875 269.175781 L 123.832031 276.4375 L 110.339844 313.101562 L 12.539062 290.933594 L 15.445312 279.871094 Z M 33.699219 269.902344 "/>
<g clip-path="url(#clip4)" clip-rule="nonzero">
<path style=" stroke:none;fill-rule:nonzero;fill:rgb(39.99939%,39.99939%,39.99939%);fill-opacity:0.3;" d="M 55.664062 334.703125 L 97.445312 345.296875 L 83.472656 390.503906 L 65.351562 385.539062 L 72.847656 361.03125 L 48.992188 353.480469 Z M 55.664062 334.703125 "/>
</g>
<g clip-path="url(#clip5)" clip-rule="nonzero">
<path style=" stroke:none;fill-rule:nonzero;fill:rgb(39.99939%,39.99939%,39.99939%);fill-opacity:0.3;" d="M 167.144531 351.210938 L 166.515625 357.199219 L 160.625 357.628906 L 158.484375 374.726562 L 162.828125 375.371094 L 156.808594 409.007812 L 137.953125 403.5 L 90.820312 391.554688 L 104.847656 346.429688 L 119.324219 349.679688 L 117.433594 357.574219 L 119.457031 357.863281 L 121.347656 350.210938 L 128.253906 351.71875 L 125.765625 365.949219 L 142.578125 371.484375 L 140.738281 378.691406 L 141.839844 378.890625 L 143.109375 379.121094 L 144.726562 372.234375 L 144.046875 369.660156 L 129.042969 365.09375 L 131.285156 351.832031 L 137.765625 352.078125 Z M 167.144531 351.210938 "/>
</g>
<g clip-path="url(#clip6)" clip-rule="nonzero">
<path style=" stroke:none;fill-rule:nonzero;fill:rgb(39.99939%,39.99939%,39.99939%);fill-opacity:0.3;" d="M -61.742188 324.828125 L -49.394531 331.671875 L -20.675781 340.640625 L -17.085938 332.308594 L -7.09375 334.492188 L 9.277344 335.914062 L 31.398438 332.429688 L 52.398438 333.558594 L 45.734375 352.417969 L 35.496094 349.136719 L 24.449219 372.878906 L -88.113281 343.472656 L -84.894531 338.976562 Z M -61.742188 324.828125 "/>
</g>
<path style=" stroke:none;fill-rule:nonzero;fill:rgb(39.99939%,39.99939%,39.99939%);fill-opacity:0.3;" d="M 200.738281 230.429688 L 215.902344 234.996094 L 214.378906 242.402344 L 261.5625 256.789062 L 285.765625 255.289062 L 308.570312 308.570312 L 187.273438 281.65625 Z M 200.738281 230.429688 "/>
<path style=" stroke:none;fill-rule:nonzero;fill:rgb(39.99939%,39.99939%,39.99939%);fill-opacity:0.3;" d="M 189.34375 196.523438 L 189.105469 196.851562 L 185.746094 201.226562 L 178.808594 197.625 L 177.628906 198.992188 L 185.09375 203.585938 L 174.378906 215.925781 L 139.152344 203.136719 L 148.402344 176.097656 L 156.4375 181.722656 L 175.722656 192.972656 Z M 189.34375 196.523438 "/>
<path style=" stroke:none;fill-rule:nonzero;fill:rgb(39.99939%,39.99939%,39.99939%);fill-opacity:0.3;" d="M 177.148438 222.828125 L 196.414062 228.605469 L 182.691406 282.730469 L 100.882812 263.347656 L 136.394531 257.300781 L 154.652344 250.433594 L 162.644531 256.390625 L 163.835938 254.945312 L 165.027344 253.496094 L 157.246094 247.289062 Z M 177.148438 222.828125 "/>
<path style=" stroke:none;fill-rule:nonzero;fill:rgb(39.99939%,39.99939%,39.99939%);fill-opacity:0.3;" d="M 183.441406 221.113281 L 202.21875 199.882812 L 263.359375 215.832031 L 284.253906 251.753906 L 260.832031 252.824219 L 237.125 246.957031 L 238.144531 236.339844 L 236.703125 236.222656 L 235.257812 236.109375 L 234.347656 246.277344 L 219.171875 239.972656 L 220.589844 232.96875 L 225.609375 208.601562 L 217.976562 207.46875 L 217.863281 208.308594 L 217.746094 209.164062 L 222.546875 209.898438 L 216.527344 232.246094 Z M 183.441406 221.113281 "/>
<path style=" stroke:none;fill-rule:nonzero;fill:rgb(39.99939%,39.99939%,39.99939%);fill-opacity:0.3;" d="M 51.429688 177.585938 L 62.726562 181.703125 L 60.285156 192.015625 L 61.449219 192.511719 L 62.617188 193.007812 L 65.050781 182.578125 L 85.363281 189.8125 L 82.128906 203.027344 L 83.714844 203.59375 L 85.300781 204.15625 L 88.523438 191.003906 L 113.210938 200.308594 L 99.953125 237.324219 L 86.863281 234.078125 L 86.558594 234.972656 L 86.050781 236.457031 L 102.320312 240.765625 L 116.714844 201.628906 L 137.035156 208.496094 L 127.0625 226.714844 L 126.453125 231.507812 L 127.679688 231.765625 L 128.804688 232.003906 L 129.414062 227.539062 L 139.972656 209.511719 L 154.4375 214.902344 L 148.734375 227.917969 L 150.003906 228.492188 L 151.273438 229.0625 L 157.046875 215.886719 L 171.753906 221.035156 L 159.8125 232.246094 L 142.832031 240.054688 L 121.832031 247.859375 L 104.675781 253.125 L 89.394531 253.714844 L 75.761719 252.929688 L 60.269531 251.363281 L 59.175781 238.207031 L 57.769531 220.699219 L 54.34375 191.453125 Z M 51.429688 177.585938 "/>
<g clip-path="url(#clip7)" clip-rule="nonzero">
<path style=" stroke:none;fill-rule:nonzero;fill:rgb(39.99939%,39.99939%,39.99939%);fill-opacity:0.3;" d="M 332.09375 324.671875 L 443.214844 347.179688 L 430.042969 398.523438 L 346.347656 374.175781 L 341.421875 371.058594 L 338.839844 365.492188 L 334.851562 357.03125 L 332.726562 351.394531 L 329.675781 344.734375 Z M 332.09375 324.671875 "/>
</g>
<path style=" stroke:none;fill-rule:nonzero;fill:rgb(39.99939%,39.99939%,39.99939%);fill-opacity:0.3;" d="M 146.015625 154.636719 L 158.75 155.320312 L 163.898438 150.3125 L 206.28125 170.859375 L 195.042969 187.683594 L 185.542969 183.613281 L 188.363281 176.253906 L 163.488281 167.429688 L 163.199219 167.941406 L 162.90625 168.453125 L 186.402344 176.75 L 183.257812 184.328125 L 194.648438 189.296875 L 189.34375 196.523438 L 175.722656 192.972656 L 156.4375 181.722656 L 148.402344 176.097656 Z M 146.015625 154.636719 "/>
<g clip-path="url(#clip8)" clip-rule="nonzero">
<path style=" stroke:none;fill-rule:nonzero;fill:rgb(39.99939%,39.99939%,39.99939%);fill-opacity:0.3;" d="M 352.09375 155.660156 L 451.804688 170.382812 L 440.433594 197.96875 L 401.617188 195.121094 L 401.171875 197.375 L 400.726562 199.625 L 438.6875 202.4375 L 421.90625 241.691406 L 343.175781 227.265625 L 347.347656 190.339844 L 373.085938 189.289062 L 373.085938 185.917969 L 348.238281 186.683594 Z M 352.09375 155.660156 "/>
</g>
<path style=" stroke:none;fill-rule:nonzero;fill:rgb(39.99939%,39.99939%,39.99939%);fill-opacity:0.3;" d="M 233.769531 139.753906 L 345.160156 154.984375 L 339.082031 201.945312 L 320.730469 199.976562 L 320.585938 201.316406 L 320.441406 202.660156 L 338.769531 204.644531 L 336.238281 226.4375 L 272.695312 215.714844 L 265.734375 202.957031 L 259.90625 189.65625 L 288.082031 185.089844 L 287.394531 182.15625 L 286.707031 179.21875 L 256.46875 183.785156 L 231.042969 146.945312 Z M 233.769531 139.753906 "/>
<path style=" stroke:none;fill-rule:nonzero;fill:rgb(39.99939%,39.99939%,39.99939%);fill-opacity:0.3;" d="M 202.21875 199.882812 L 208.023438 193.324219 L 249.066406 191.265625 L 263.359375 215.832031 Z M 202.21875 199.882812 "/>
<g clip-path="url(#clip9)" clip-rule="nonzero">
<path style=" stroke:none;fill-rule:nonzero;fill:rgb(39.99939%,39.99939%,39.99939%);fill-opacity:0.3;" d="M 304.027344 -131.613281 L 367.980469 -40.484375 L 371.089844 -31.835938 L 371.484375 -23.707031 L 366.09375 17.066406 L 276.769531 3.074219 L 284.921875 -38.339844 L 325.449219 -31.027344 L 325.820312 -32.523438 L 326.191406 -34.015625 L 285.664062 -41.1875 Z M 304.027344 -131.613281 "/>
</g>
<g clip-path="url(#clip10)" clip-rule="nonzero">
<path style=" stroke:none;fill-rule:nonzero;fill:rgb(39.99939%,39.99939%,39.99939%);fill-opacity:0.3;" d="M 288.394531 -205.285156 L 320.417969 -203.789062 L 320.90625 -213.632812 L 379.964844 -212.085938 L 372.488281 -146.996094 L 369.152344 -117.359375 L 370.890625 -117.175781 L 372.625 -116.992188 L 376.367188 -145.304688 L 454.277344 -129.585938 L 442.65625 -69.609375 L 444.589844 -69.230469 L 446.519531 -68.847656 L 458.445312 -128.699219 L 505.265625 -118.886719 L 511.042969 -117.464844 L 559.238281 -106.976562 L 512.621094 15.613281 L 500.695312 16.878906 L 501.96875 10.121094 L 499.132812 9.761719 L 497.730469 16.839844 L 476.691406 15.457031 L 496.09375 -73.800781 L 493.703125 -74.128906 L 491.308594 -74.453125 L 471.3125 14.050781 L 463.378906 11.796875 L 457.160156 34.074219 L 461.402344 35.5625 L 485.898438 40.980469 L 493.324219 20.804688 L 511.382812 19.824219 L 481.320312 97.914062 L 477.871094 101.363281 L 476.707031 105.664062 L 307.640625 -158.25 Z M 288.394531 -205.285156 "/>
</g>
<g clip-path="url(#clip11)" clip-rule="nonzero">
<path style=" stroke:none;fill-rule:nonzero;fill:rgb(39.99939%,39.99939%,39.99939%);fill-opacity:0.3;" d="M 361.652344 104.039062 L 411.6875 113.488281 L 411.953125 158.050781 L 354.75 149.847656 Z M 361.652344 104.039062 "/>
</g>
<path style=" stroke:none;fill-rule:nonzero;fill:rgb(39.99939%,39.99939%,39.99939%);fill-opacity:0.3;" d="M 190.039062 74.714844 L 151.21875 -8.101562 L 207.070312 -0.0976562 L 206.625 18.71875 L 209.421875 18.785156 L 212.214844 18.847656 L 212.691406 0.664062 L 267.273438 8.769531 L 257.757812 57.902344 L 246.460938 133.214844 L 217.5 129.253906 L 213.707031 124.089844 L 199.910156 99.242188 L 193.246094 81.679688 L 220.328125 83.597656 L 221 77.011719 Z M 190.039062 74.714844 "/>
<path style=" stroke:none;fill-rule:nonzero;fill:rgb(39.99939%,39.99939%,39.99939%);fill-opacity:0.3;" d="M 275.488281 10.488281 L 317.226562 16.152344 L 294.933594 92.007812 L 352.65625 102.277344 L 345.480469 149.730469 L 319.953125 146.242188 L 326.941406 117.101562 L 324.710938 116.496094 L 322.484375 115.894531 L 315.375 145.617188 L 253.648438 137.175781 L 265.460938 59.746094 Z M 275.488281 10.488281 "/>
<g clip-path="url(#clip12)" clip-rule="nonzero">
<path style=" stroke:none;fill-rule:nonzero;fill:rgb(39.99939%,39.99939%,39.99939%);fill-opacity:0.3;" d="M 339.886719 271.5 L 344.664062 232.367188 L 421.242188 245.800781 L 409.960938 285.59375 L 396.847656 328.78125 L 334.4375 316.136719 Z M 339.886719 271.5 "/>
</g>
<path style=" stroke:none;fill-rule:nonzero;fill:rgb(39.99939%,39.99939%,39.99939%);fill-opacity:0.3;" d="M 171.070312 -49.160156 L 276.378906 -36.070312 L 268.753906 1.609375 L 167.640625 -12.109375 Z M 171.070312 -49.160156 "/>
<g clip-path="url(#clip13)" clip-rule="nonzero">
<path style=" stroke:none;fill-rule:nonzero;fill:rgb(39.99939%,39.99939%,39.99939%);fill-opacity:0.3;" d="M 321.660156 17.28125 L 364.558594 23.101562 L 352.945312 97.992188 L 300.019531 88.519531 L 313.449219 41.238281 L 329.226562 44.136719 L 331.023438 36.289062 L 332.820312 28.445312 L 318.027344 25.78125 Z M 321.660156 17.28125 "/>
</g>
<path style=" stroke:none;fill-rule:nonzero;fill:rgb(39.99939%,39.99939%,39.99939%);fill-opacity:0.3;" d="M 138.296875 85.160156 L 159.347656 84.394531 L 159.589844 92.90625 L 161.464844 92.78125 L 163.335938 92.652344 L 163.34375 84.28125 L 177.34375 83.605469 L 193.539062 118.117188 L 213.402344 147.597656 L 236.902344 176.96875 L 214.984375 175.175781 L 214.179688 167.8125 L 169.226562 145.976562 L 143.148438 128.835938 Z M 138.296875 85.160156 "/>
<path style=" stroke:none;fill-rule:nonzero;fill:rgb(39.99939%,39.99939%,39.99939%);fill-opacity:0.3;" d="M 276.835938 220.4375 L 337.820312 229.441406 L 330.289062 315.535156 L 323.386719 314.628906 L 317.542969 306.515625 L 306.644531 280.441406 L 293.375 254.8125 Z M 276.835938 220.4375 "/>
<path style="fill-rule:nonzero;fill:rgb(39.99939%,39.99939%,39.99939%);fill-opacity:1;stroke-width:0.03;stroke-linecap:square;stroke-linejoin:miter;stroke:rgb(39.99939%,39.99939%,39.99939%);stroke-opacity:1;stroke-miterlimit:3.239307;" d="M 274.738281 243.429688 L 289.902344 247.996094 L 288.378906 255.402344 L 335.5625 269.789062 L 359.765625 268.289062 L 382.570312 321.570312 L 261.273438 294.65625 Z M 274.738281 243.429688 " transform="matrix(1,0,0,1,-74,-13)"/>
<path style="fill-rule:nonzero;fill:rgb(39.99939%,39.99939%,39.99939%);fill-opacity:1;stroke-width:0.03;stroke-linecap:square;stroke-linejoin:miter;stroke:rgb(39.99939%,39.99939%,39.99939%);stroke-opacity:1;stroke-miterlimit:3.239307;" d="M 263.34375 209.523438 L 263.105469 209.851562 L 259.746094 214.226562 L 252.808594 210.625 L 251.628906 211.992188 L 259.09375 216.585938 L 248.378906 228.925781 L 213.152344 216.136719 L 222.402344 189.097656 L 230.4375 194.722656 L 249.722656 205.972656 Z M 263.34375 209.523438 " transform="matrix(1,0,0,1,-74,-13)"/>
<path style="fill-rule:nonzero;fill:rgb(39.99939%,39.99939%,39.99939%);fill-opacity:1;stroke-width:0.03;stroke-linecap:square;stroke-linejoin:miter;stroke:rgb(39.99939%,39.99939%,39.99939%);stroke-opacity:1;stroke-miterlimit:3.239307;" d="M 251.148438 235.828125 L 270.414062 241.605469 L 256.691406 295.730469 L 174.882812 276.347656 L 210.394531 270.300781 L 228.652344 263.433594 L 236.644531 269.390625 L 237.835938 267.945312 L 239.027344 266.496094 L 231.246094 260.289062 Z M 251.148438 235.828125 " transform="matrix(1,0,0,1,-74,-13)"/>
<path style="fill-rule:nonzero;fill:rgb(39.99939%,39.99939%,39.99939%);fill-opacity:1;stroke-width:0.03;stroke-linecap:square;stroke-linejoin:miter;stroke:rgb(39.99939%,39.99939%,39.99939%);stroke-opacity:1;stroke-miterlimit:3.239307;" d="M 257.441406 234.113281 L 276.21875 212.882812 L 337.359375 228.832031 L 358.253906 264.753906 L 334.832031 265.824219 L 311.125 259.957031 L 312.144531 249.339844 L 310.703125 249.222656 L 309.257812 249.109375 L 308.347656 259.277344 L 293.171875 252.972656 L 294.589844 245.96875 L 299.609375 221.601562 L 291.976562 220.46875 L 291.863281 221.308594 L 291.746094 222.164062 L 296.546875 222.898438 L 290.527344 245.246094 Z M 257.441406 234.113281 " transform="matrix(1,0,0,1,-74,-13)"/>
<path style="fill-rule:nonzero;fill:rgb(39.99939%,39.99939%,39.99939%);fill-opacity:1;stroke-width:0.03;stroke-linecap:square;stroke-linejoin:miter;stroke:rgb(39.99939%,39.99939%,39.99939%);stroke-opacity:1;stroke-miterlimit:3.239307;" d="M 125.429688 190.585938 L 136.726562 194.703125 L 134.285156 205.015625 L 135.449219 205.511719 L 136.617188 206.007812 L 139.050781 195.578125 L 159.363281 202.8125 L 156.128906 216.027344 L 157.714844 216.59375 L 159.300781 217.15625 L 162.523438 204.003906 L 187.210938 213.308594 L 173.953125 250.324219 L 160.863281 247.078125 L 160.558594 247.972656 L 160.050781 249.457031 L 176.320312 253.765625 L 190.714844 214.628906 L 211.035156 221.496094 L 201.0625 239.714844 L 200.453125 244.507812 L 201.679688 244.765625 L 202.804688 245.003906 L 203.414062 240.539062 L 213.972656 222.511719 L 228.4375 227.902344 L 222.734375 240.917969 L 224.003906 241.492188 L 225.273438 242.0625 L 231.046875 228.886719 L 245.753906 234.035156 L 233.8125 245.246094 L 216.832031 253.054688 L 195.832031 260.859375 L 178.675781 266.125 L 163.394531 266.714844 L 149.761719 265.929688 L 134.269531 264.363281 L 133.175781 251.207031 L 131.769531 233.699219 L 128.34375 204.453125 Z M 125.429688 190.585938 " transform="matrix(1,0,0,1,-74,-13)"/>
</g>
</svg>
