<?xml version="1.0" encoding="UTF-8"?>
<svg xmlns="http://www.w3.org/2000/svg" xmlns:xlink="http://www.w3.org/1999/xlink" width="361pt" height="361pt" viewBox="0 0 361 361" version="1.1">
<defs>
<clipPath id="clip1">
  <path d="M 0 280 L 40 280 L 40 360 L 0 360 Z M 0 280 "/>
</clipPath>
<clipPath id="clip2">
  <path d="M 70 334 L 111 334 L 111 360 L 70 360 Z M 70 334 "/>
</clipPath>
<clipPath id="clip3">
  <path d="M 26 354 L 74 354 L 74 360 L 26 360 Z M 26 354 "/>
</clipPath>
<clipPath id="clip4">
  <path d="M 35 340 L 79 340 L 79 360 L 35 360 Z M 35 340 "/>
</clipPath>
<clipPath id="clip5">
  <path d="M 267 356 L 360 356 L 360 360 L 267 360 Z M 267 356 "/>
</clipPath>
<clipPath id="clip6">
  <path d="M 354 266 L 360 266 L 360 360 L 354 360 Z M 354 266 "/>
</clipPath>
<clipPath id="clip7">
  <path d="M 341 289 L 360 289 L 360 360 L 341 360 Z M 341 289 "/>
</clipPath>
<clipPath id="clip8">
  <path d="M 105 339 L 161 339 L 161 360 L 105 360 Z M 105 339 "/>
</clipPath>
<clipPath id="clip9">
  <path d="M 156 324 L 233 324 L 233 360 L 156 360 Z M 156 324 "/>
</clipPath>
<clipPath id="clip10">
  <path d="M 214 283 L 339 283 L 339 360 L 214 360 Z M 214 283 "/>
</clipPath>
<clipPath id="clip11">
  <path d="M 318 315 L 360 315 L 360 360 L 318 360 Z M 318 315 "/>
</clipPath>
</defs>
<g id="surface483">
<path style="fill-rule:nonzero;fill:rgb(0%,0%,0%);fill-opacity:1;stroke-width:0.03;stroke-linecap:square;stroke-linejoin:miter;stroke:rgb(0%,0%,0%);stroke-opacity:1;stroke-miterlimit:10;" d="M 0 178 L 360 178 L 360 -182 L 0 -182 Z M 0 178 " transform="matrix(1,0,0,1,0,182)"/>
<path style=" stroke:none;fill-rule:nonzero;fill:rgb(39.99939%,39.99939%,39.99939%);fill-opacity:0.3;" d="M -1.023438 7.242188 L -5.082031 4.878906 L -2.148438 0.648438 L -0.238281 1.695312 L 0.105469 1.3125 L 0.410156 0.960938 L -13.957031 -6.464844 L -14.191406 -6.070312 L -14.492188 -5.566406 L -13.265625 -4.9375 L -15.613281 -0.492188 L -22.519531 -4.164062 L -21.199219 -6.402344 L -21.953125 -6.757812 L -22.707031 -7.117188 L -23.8125 -4.855469 L -26.300781 -6.171875 L -25.058594 -8.371094 L -25.636719 -8.625 L -26.21875 -8.882812 L -27.433594 -6.707031 L -29.359375 -7.59375 L -26.859375 -13.113281 L -25.351562 -15.886719 L -23.078125 -20.351562 L -19.226562 -25.261719 L -14.613281 -24.21875 L -17.347656 -19.410156 L -16.808594 -19.296875 L -16.234375 -19.175781 L -13.488281 -23.773438 L -9.703125 -22.164062 L -12.25 -17.332031 L -11.777344 -17.152344 L -11.328125 -16.984375 L -8.632812 -21.84375 L -2.574219 -19.65625 L -4.605469 -14.429688 L -4.136719 -14.304688 L -3.546875 -14.144531 L -1.558594 -19.292969 L 2.363281 -17.957031 L 0.460938 -12.359375 L 0.894531 -12.265625 L 1.609375 -12.109375 L 3.421875 -17.640625 L 7.65625 -16.507812 L 5.664062 -10.609375 L 6.140625 -10.511719 L 6.746094 -10.390625 L 8.75 -16.289062 L 12.914062 -14.738281 L 11.050781 -9.503906 L 11.554688 -9.371094 L 11.921875 -9.269531 L 13.847656 -14.402344 L 17.085938 -12.863281 L 19.199219 -11.527344 L 12.855469 -7.574219 L 10.726562 -7.132812 L 6.84375 -3.515625 L 4.257812 -0.894531 L 1.25 3.90625 Z M -1.023438 7.242188 "/>
<path style=" stroke:none;fill-rule:nonzero;fill:rgb(39.99939%,39.99939%,39.99939%);fill-opacity:0.3;" d="M -26.460938 56.15625 L 6.527344 84.757812 L 1.777344 90.605469 L -31 61.871094 Z M -26.460938 56.15625 "/>
<path style=" stroke:none;fill-rule:nonzero;fill:rgb(39.99939%,39.99939%,39.99939%);fill-opacity:0.3;" d="M -8.839844 35.164062 L 23.644531 63.6875 L 19.597656 68.667969 L -13.371094 40.558594 Z M -8.839844 35.164062 "/>
<path style=" stroke:none;fill-rule:nonzero;fill:rgb(39.99939%,39.99939%,39.99939%);fill-opacity:0.3;" d="M -32.179688 62.96875 L 0.828125 91.773438 L -3.769531 97.433594 L -36.898438 69.171875 Z M -32.179688 62.96875 "/>
<path style=" stroke:none;fill-rule:nonzero;fill:rgb(39.99939%,39.99939%,39.99939%);fill-opacity:0.3;" d="M -14.355469 41.734375 L 18.53125 69.980469 L 13.421875 76.269531 L -19.511719 47.875 Z M -14.355469 41.734375 "/>
<path style=" stroke:none;fill-rule:nonzero;fill:rgb(39.99939%,39.99939%,39.99939%);fill-opacity:0.3;" d="M -20.582031 49.148438 L 12.375 77.558594 L 7.5625 83.480469 L -25.386719 54.875 Z M -20.582031 49.148438 "/>
<path style=" stroke:none;fill-rule:nonzero;fill:rgb(39.99939%,39.99939%,39.99939%);fill-opacity:0.3;" d="M -5.050781 30.648438 L 27.515625 58.917969 L 24.710938 62.371094 L -7.816406 33.941406 Z M -5.050781 30.648438 "/>
<path style=" stroke:none;fill-rule:nonzero;fill:rgb(39.99939%,39.99939%,39.99939%);fill-opacity:0.3;" d="M 4.011719 168.085938 L 10.398438 172.695312 L -5.664062 193.917969 L -12.339844 189.109375 Z M 4.011719 168.085938 "/>
<path style=" stroke:none;fill-rule:nonzero;fill:rgb(39.99939%,39.99939%,39.99939%);fill-opacity:0.3;" d="M 22.042969 146.621094 L 27.683594 150.820312 L 11.054688 171.585938 L 5.097656 167.289062 Z M 22.042969 146.621094 "/>
<path style=" stroke:none;fill-rule:nonzero;fill:rgb(39.99939%,39.99939%,39.99939%);fill-opacity:0.3;" d="M 54.507812 135.703125 L 59.117188 139.03125 L 42.765625 159.820312 L 38.050781 156.308594 Z M 54.507812 135.703125 "/>
<path style=" stroke:none;fill-rule:nonzero;fill:rgb(39.99939%,39.99939%,39.99939%);fill-opacity:0.3;" d="M 57.460938 170.605469 L 57.386719 170.703125 L 54.726562 168.722656 Z M 57.460938 170.605469 "/>
<path style=" stroke:none;fill-rule:nonzero;fill:rgb(39.99939%,39.99939%,39.99939%);fill-opacity:0.3;" d="M 55.515625 104.910156 L 61.089844 109.207031 L 46.425781 127.335938 L 40.714844 123.097656 Z M 55.515625 104.910156 "/>
<path style=" stroke:none;fill-rule:nonzero;fill:rgb(39.99939%,39.99939%,39.99939%);fill-opacity:0.3;" d="M 46.957031 130.253906 L 52.839844 134.5 L 36.402344 155.082031 L 30.445312 150.648438 Z M 46.957031 130.253906 "/>
<path style=" stroke:none;fill-rule:nonzero;fill:rgb(39.99939%,39.99939%,39.99939%);fill-opacity:0.3;" d="M 70.082031 116.140625 L 74.945312 119.886719 L 60.445312 137.304688 L 55.574219 133.59375 Z M 70.082031 116.140625 "/>
<path style=" stroke:none;fill-rule:nonzero;fill:rgb(39.99939%,39.99939%,39.99939%);fill-opacity:0.3;" d="M 62.894531 110.597656 L 68.5 114.921875 L 54.457031 132.683594 L 48.304688 128.445312 Z M 62.894531 110.597656 "/>
<path style=" stroke:none;fill-rule:nonzero;fill:rgb(39.99939%,39.99939%,39.99939%);fill-opacity:0.3;" d="M 2.253906 166.816406 L -15.605469 188.949219 L -37.773438 172.351562 L -20.203125 150.609375 L -12.695312 156.027344 L -20.421875 165.738281 L -20.167969 165.914062 L -19.910156 166.085938 L -12.164062 156.410156 Z M 2.253906 166.816406 "/>
<path style=" stroke:none;fill-rule:nonzero;fill:rgb(39.99939%,39.99939%,39.99939%);fill-opacity:0.3;" d="M 42.050781 246.320312 L 24.804688 240.757812 L 16.714844 238.796875 L 17.070312 237.738281 L 4.839844 234.703125 L -1.976562 231.527344 L -7.027344 227.128906 L 9.230469 206.714844 L 16.136719 210.917969 L 17.011719 210.089844 L 10.492188 205.242188 L 16.023438 198.382812 L 27.882812 206.65625 L 28.566406 206.152344 L 29.21875 205.671875 L 17.332031 196.722656 L 21.648438 191.308594 L 34.425781 200.75 L 34.835938 200.222656 L 35.242188 199.695312 L 22.464844 190.675781 L 26.386719 184.867188 L 40.054688 194.308594 L 91.457031 130.089844 L 73.832031 116.085938 L 69.480469 112.628906 L 64.070312 108.328125 L 56.890625 102.625 L 65.804688 93.246094 L 71.519531 98.253906 L 77.074219 102.90625 L 81.757812 107.0625 L 98.375 121.6875 L 121.445312 141.988281 L 116.9375 150.367188 L 114.636719 149.429688 L 114.441406 149.78125 L 114.246094 150.128906 L 116.542969 151.136719 L 110.472656 163.347656 L 106.707031 162 L 106.445312 162.371094 L 106.1875 162.742188 L 109.996094 164.089844 L 97.554688 189.253906 L 80.847656 182.574219 L 80.347656 183.902344 L 97.054688 190.207031 L 93.863281 196.925781 L 72.433594 188.949219 L 71.832031 190.277344 L 93.464844 197.96875 L 90.496094 206.855469 L 88.972656 210.464844 L 67.167969 202.453125 L 66.960938 203.175781 L 66.734375 204.097656 L 88.484375 211.640625 L 79.6875 231.492188 L 36.042969 217.582031 L 35.589844 218.761719 L 79.183594 232.519531 L 68.929688 254.375 Z M 42.050781 246.320312 "/>
<path style=" stroke:none;fill-rule:nonzero;fill:rgb(39.99939%,39.99939%,39.99939%);fill-opacity:0.3;" d="M 68.925781 254.386719 L 66.734375 259.199219 L 46.984375 252.632812 L 47.308594 251.675781 L 46.378906 251.339844 L 45.453125 251.007812 L 44.671875 253.007812 L 16.046875 240.976562 L 16.703125 238.828125 L 24.796875 240.78125 L 42.050781 246.324219 Z M 68.925781 254.386719 "/>
<path style=" stroke:none;fill-rule:nonzero;fill:rgb(39.99939%,39.99939%,39.99939%);fill-opacity:0.3;" d="M 39.390625 124.792969 L 45.382812 129.117188 L 28.898438 149.496094 L 22.949219 145.0625 Z M 39.390625 124.792969 "/>
<path style=" stroke:none;fill-rule:nonzero;fill:rgb(39.99939%,39.99939%,39.99939%);fill-opacity:0.3;" d="M 31.574219 66.730469 L 39.171875 73.890625 L 46.710938 80.027344 L 62.183594 93.171875 L 54.867188 101.59375 L 50.910156 98.699219 L 37.089844 88.59375 L 22.125 77.953125 L 17.582031 74.40625 L 27.21875 63.007812 Z M 31.574219 66.730469 "/>
<path style=" stroke:none;fill-rule:nonzero;fill:rgb(39.99939%,39.99939%,39.99939%);fill-opacity:0.3;" d="M 11.886719 173.765625 L 17.613281 177.898438 L 1 198.722656 L -4.351562 194.863281 Z M 11.886719 173.765625 "/>
<path style=" stroke:none;fill-rule:nonzero;fill:rgb(39.99939%,39.99939%,39.99939%);fill-opacity:0.3;" d="M 19.359375 179.160156 L 25.144531 183.335938 L 8.585938 204.1875 L 2.695312 199.945312 Z M 19.359375 179.160156 "/>
<path style=" stroke:none;fill-rule:nonzero;fill:rgb(39.99939%,39.99939%,39.99939%);fill-opacity:0.3;" d="M 29.214844 151.960938 L 35.417969 156.582031 L 18.917969 177.28125 L 12.699219 172.773438 Z M 29.214844 151.960938 "/>
<path style=" stroke:none;fill-rule:nonzero;fill:rgb(39.99939%,39.99939%,39.99939%);fill-opacity:0.3;" d="M 36.738281 157.5625 L 41.863281 161.355469 L 33.355469 172.222656 L 33.820312 172.554688 L 34.28125 172.890625 L 42.714844 162.011719 L 49.074219 166.746094 L 40.496094 177.375 L 40.996094 177.734375 L 41.492188 178.09375 L 50.074219 167.488281 L 56.285156 172.003906 L 39.667969 192.234375 L 20.34375 178.3125 Z M 36.738281 157.5625 "/>
<path style=" stroke:none;fill-rule:nonzero;fill:rgb(39.99939%,39.99939%,39.99939%);fill-opacity:0.3;" d="M 1.410156 200.648438 L 7.515625 205.054688 L -8.445312 225.976562 L -15.03125 221.222656 Z M 1.410156 200.648438 "/>
<path style=" stroke:none;fill-rule:nonzero;fill:rgb(39.99939%,39.99939%,39.99939%);fill-opacity:0.3;" d="M 6.496094 136.074219 L 12.320312 140.277344 L -3.9375 160.769531 L -10.046875 156.359375 Z M 6.496094 136.074219 "/>
<path style=" stroke:none;fill-rule:nonzero;fill:rgb(39.99939%,39.99939%,39.99939%);fill-opacity:0.3;" d="M 13.863281 141.394531 L 19.78125 145.664062 L 3.1875 165.910156 L -2.539062 161.699219 Z M 13.863281 141.394531 "/>
<path style=" stroke:none;fill-rule:nonzero;fill:rgb(39.99939%,39.99939%,39.99939%);fill-opacity:0.3;" d="M -0.152344 96.449219 L 5.679688 100.777344 L -10.632812 121.164062 L -16.769531 116.910156 Z M -0.152344 96.449219 "/>
<path style=" stroke:none;fill-rule:nonzero;fill:rgb(39.99939%,39.99939%,39.99939%);fill-opacity:0.3;" d="M -2.703125 129.621094 L 4.714844 134.976562 L -11.914062 155.199219 L -19.28125 149.878906 Z M -2.703125 129.621094 "/>
<path style=" stroke:none;fill-rule:nonzero;fill:rgb(39.99939%,39.99939%,39.99939%);fill-opacity:0.3;" d="M 47.964844 99.453125 L 53.40625 103.382812 L 38.625 121.566406 L 32.996094 117.476562 Z M 47.964844 99.453125 "/>
<path style=" stroke:none;fill-rule:nonzero;fill:rgb(39.99939%,39.99939%,39.99939%);fill-opacity:0.3;" d="M 40.316406 250.230469 L 40.015625 251.050781 L 38.515625 250.421875 L 38.765625 249.746094 Z M 40.316406 250.230469 "/>
<path style=" stroke:none;fill-rule:nonzero;fill:rgb(39.99939%,39.99939%,39.99939%);fill-opacity:0.3;" d="M 34.804688 248.859375 L 34.921875 248.535156 L 38.128906 249.546875 L 37.902344 250.164062 Z M 34.804688 248.859375 "/>
<path style=" stroke:none;fill-rule:nonzero;fill:rgb(39.99939%,39.99939%,39.99939%);fill-opacity:0.3;" d="M 7.277344 101.929688 L 13.253906 106.242188 L -3.191406 126.335938 L -9.050781 122.109375 Z M 7.277344 101.929688 "/>
<path style=" stroke:none;fill-rule:nonzero;fill:rgb(39.99939%,39.99939%,39.99939%);fill-opacity:0.3;" d="M 16.125 76.476562 L 22.160156 80.832031 L 7.65625 98.535156 L 1.703125 94.238281 Z M 16.125 76.476562 "/>
<path style=" stroke:none;fill-rule:nonzero;fill:rgb(39.99939%,39.99939%,39.99939%);fill-opacity:0.3;" d="M 24 82.160156 L 29.933594 86.441406 L 15.636719 104.292969 L 9.300781 99.71875 Z M 24 82.160156 "/>
<path style=" stroke:none;fill-rule:nonzero;fill:rgb(39.99939%,39.99939%,39.99939%);fill-opacity:0.3;" d="M 15 107.5 L 21.984375 112.539062 L 5.941406 132.929688 L -1.28125 127.714844 Z M 15 107.5 "/>
<path style=" stroke:none;fill-rule:nonzero;fill:rgb(39.99939%,39.99939%,39.99939%);fill-opacity:0.3;" d="M 23.78125 113.839844 L 29.472656 117.945312 L 13.339844 138.269531 L 7.523438 134.070312 Z M 23.78125 113.839844 "/>
<path style=" stroke:none;fill-rule:nonzero;fill:rgb(39.99939%,39.99939%,39.99939%);fill-opacity:0.3;" d="M 31.738281 87.417969 L 38.65625 92.738281 L 24.136719 110.425781 L 17.273438 105.472656 Z M 31.738281 87.417969 "/>
<path style=" stroke:none;fill-rule:nonzero;fill:rgb(39.99939%,39.99939%,39.99939%);fill-opacity:0.3;" d="M 40.414062 94.007812 L 46.128906 98.128906 L 31.148438 116.023438 L 25.398438 111.820312 Z M 40.414062 94.007812 "/>
<path style=" stroke:none;fill-rule:nonzero;fill:rgb(39.99939%,39.99939%,39.99939%);fill-opacity:0.3;" d="M 31.148438 119.15625 L 37.15625 123.488281 L 20.65625 143.671875 L 15.046875 139.5 Z M 31.148438 119.15625 "/>
<path style=" stroke:none;fill-rule:nonzero;fill:rgb(39.99939%,39.99939%,39.99939%);fill-opacity:0.3;" d="M 24.796875 240.785156 L 42.050781 246.328125 L 40.6875 250.050781 L 38.789062 249.429688 L 39.054688 248.699219 L 38.457031 248.5 L 38.191406 249.230469 L 35.050781 248.195312 L 35.316406 247.464844 L 34.71875 247.265625 L 34.449219 247.996094 L 31.28125 246.957031 L 31.550781 246.226562 L 30.949219 246.03125 L 30.683594 246.761719 L 27.21875 245.671875 L 23.59375 244.152344 Z M 24.796875 240.785156 "/>
<path style=" stroke:none;fill-rule:nonzero;fill:rgb(39.99939%,39.99939%,39.99939%);fill-opacity:0.3;" d="M -3.945312 292.09375 L 0.855469 293.394531 L -0.0273438 296.332031 L -4.828125 295.03125 Z M -3.945312 292.09375 "/>
<path style=" stroke:none;fill-rule:nonzero;fill:rgb(39.99939%,39.99939%,39.99939%);fill-opacity:0.3;" d="M 65.707031 310.125 L 76.339844 309.753906 L 84.347656 309.292969 L 135.074219 303.449219 L 111.425781 340.5 L 86.238281 332.84375 L 84.882812 330.875 L 83.753906 327.253906 L 82.386719 324.527344 L 80.5 321.792969 L 77.898438 319.050781 L 74.046875 316.820312 L 54.429688 311.265625 L 52.457031 309.789062 L 58.851562 310.105469 Z M 65.707031 310.125 "/>
<g clip-path="url(#clip1)" clip-rule="nonzero">
<path style=" stroke:none;fill-rule:nonzero;fill:rgb(39.99939%,39.99939%,39.99939%);fill-opacity:0.3;" d="M -27.25 283.199219 L -25.121094 280.953125 L -21.8125 280.054688 L -19.800781 280.953125 L 9.011719 297.019531 L 0.535156 324.472656 L 6.292969 326.351562 L 39.164062 336.769531 L 35.609375 346.457031 L 4.296875 336.351562 L 4.046875 336.929688 L 3.761719 337.722656 L 34.875 347.71875 L 33.25 352.707031 L 10.464844 345.6875 L 10.261719 346.300781 L 10.011719 346.9375 L 32.792969 353.984375 L 30.785156 359.328125 L -2.324219 348.300781 L -2.714844 348.847656 L -3.085938 349.460938 L 30.648438 360.5 L 29.296875 364.105469 L 19.125 361.042969 L 18.863281 361.585938 L 18.636719 362.074219 L 28.878906 365.226562 L 24.328125 377.375 L 11.808594 374.605469 L 9.257812 388.832031 L -1.828125 386.808594 L -3.765625 386.703125 L -5.851562 387.691406 L -10.113281 383.390625 L -9.210938 372.5 L -9.945312 372.441406 L -10.675781 372.386719 L -11.589844 382.511719 L -23.558594 378.519531 L -22.667969 372.070312 L -23.527344 371.90625 L -24.5 371.722656 L -25.367188 378.164062 L -28.066406 377.816406 L -27.902344 376.058594 L -37.0625 374.359375 L -37.203125 375.332031 L -47.5 374.023438 L -47.601562 374.574219 L -53.59375 373.613281 L -44.882812 346.308594 L -38.714844 324.054688 L -39.425781 323.71875 Z M -27.25 283.199219 "/>
</g>
<path style=" stroke:none;fill-rule:nonzero;fill:rgb(39.99939%,39.99939%,39.99939%);fill-opacity:0.3;" d="M 2.0625 323.417969 L 10.238281 297.738281 L 18.039062 302.101562 L 21.660156 303.40625 L 41.886719 307.246094 L 36.375 322.203125 L 37.21875 322.445312 L 38.125 322.699219 L 43.65625 307.476562 L 49.296875 309.414062 L 39.753906 335.421875 Z M 2.0625 323.417969 "/>
<g clip-path="url(#clip2)" clip-rule="nonzero">
<path style=" stroke:none;fill-rule:nonzero;fill:rgb(39.99939%,39.99939%,39.99939%);fill-opacity:0.3;" d="M 86.789062 334.464844 L 110.742188 341.71875 L 106.054688 353.703125 L 89.402344 349.476562 L 89.195312 350.117188 L 88.992188 350.753906 L 105.699219 355.167969 L 103.625 359.921875 L 103.214844 362.734375 L 103.132812 364.769531 L 92.671875 362.660156 L 92.628906 363.246094 L 92.589844 363.832031 L 103.214844 366.175781 L 104.039062 371.410156 L 105.640625 376.84375 L 102.925781 391.160156 L 70.355469 383.382812 L 75.832031 365.808594 Z M 86.789062 334.464844 "/>
</g>
<g clip-path="url(#clip3)" clip-rule="nonzero">
<path style=" stroke:none;fill-rule:nonzero;fill:rgb(39.99939%,39.99939%,39.99939%);fill-opacity:0.3;" d="M 47 361.503906 L 47.292969 360.5625 L 34.261719 356.496094 L 35.023438 354.4375 L 73.96875 366.597656 L 68.785156 383.28125 L 65.429688 384.261719 L 46.183594 379.984375 L 44.726562 384.121094 L 42.234375 383.574219 L 41.917969 383.132812 L 35.941406 380.988281 L 37.277344 375.960938 L 36.78125 375.835938 L 36.171875 375.679688 L 34.808594 380.578125 L 26.359375 377.878906 L 33.636719 358.1875 L 46.757812 362.285156 Z M 47 361.503906 "/>
</g>
<g clip-path="url(#clip4)" clip-rule="nonzero">
<path style=" stroke:none;fill-rule:nonzero;fill:rgb(39.99939%,39.99939%,39.99939%);fill-opacity:0.3;" d="M 35.464844 353.234375 L 40.375 340.621094 L 78.257812 352.460938 L 77.199219 355.628906 L 52.960938 348.085938 L 52.707031 348.734375 L 52.453125 349.378906 L 76.632812 357.203125 L 74.273438 365.042969 Z M 35.464844 353.234375 "/>
</g>
<path style=" stroke:none;fill-rule:nonzero;fill:rgb(39.99939%,39.99939%,39.99939%);fill-opacity:0.3;" d="M -1.855469 297.523438 L 0.847656 298.253906 L -0.347656 302.234375 L -3.050781 301.5 Z M -1.855469 297.523438 "/>
<path style=" stroke:none;fill-rule:nonzero;fill:rgb(39.99939%,39.99939%,39.99939%);fill-opacity:0.3;" d="M 50.757812 311.1875 L 73.492188 318.117188 L 76.996094 320.429688 L 78.9375 322.625 L 80.4375 325.058594 L 81.941406 327.90625 L 83.03125 331.019531 L 83.886719 335.6875 L 78.972656 351.175781 L 40.972656 339.464844 Z M 50.757812 311.1875 "/>
<g clip-path="url(#clip5)" clip-rule="nonzero">
<path style=" stroke:none;fill-rule:nonzero;fill:rgb(39.99939%,39.99939%,39.99939%);fill-opacity:0.3;" d="M 288.289062 359.320312 L 302.367188 357.136719 L 314.273438 356.296875 L 332.378906 362.019531 L 340.894531 365.097656 L 349.421875 369.40625 L 356.847656 371.167969 L 363.152344 373.316406 L 368 375.921875 L 373.808594 377.40625 L 377.660156 378.90625 L 381.292969 381.605469 L 389.109375 391 L 396.707031 397.214844 L 403.292969 402.472656 L 410.292969 410.195312 L 412.449219 415.917969 L 412.839844 421.386719 L 385.355469 424.289062 L 320.882812 433.914062 L 267.257812 441.234375 L 270.300781 433.261719 L 272.882812 426.316406 L 278.910156 409.480469 L 281.335938 401.378906 L 282.46875 397.523438 L 283.695312 393.214844 L 284.265625 389.355469 L 280.574219 362.101562 L 281.03125 360.671875 Z M 288.289062 359.320312 "/>
</g>
<g clip-path="url(#clip6)" clip-rule="nonzero">
<path style=" stroke:none;fill-rule:nonzero;fill:rgb(39.99939%,39.99939%,39.99939%);fill-opacity:0.3;" d="M 416.332031 321.242188 L 452.964844 336.96875 L 448.980469 344.210938 L 446.929688 347.175781 L 438.851562 355.519531 L 436.996094 359.984375 L 432.648438 372.746094 L 431.773438 372.695312 L 429.667969 362.785156 L 427.742188 355.597656 L 423.285156 345.402344 L 417.082031 334.65625 L 410.5 324.972656 L 408.894531 324.808594 L 405.039062 320.195312 L 409.222656 315.96875 L 408.933594 315.75 L 408.640625 315.527344 L 404.613281 319.535156 L 401.53125 315.933594 L 405.386719 312.589844 L 405.117188 312.292969 L 404.84375 312 L 401.070312 315.390625 L 391.761719 307.636719 L 390.765625 306.96875 L 392.625 300.074219 L 392.167969 300.003906 L 391.714844 299.933594 L 389.972656 306.394531 L 384.167969 302.425781 L 381.988281 301.167969 L 384.632812 294.714844 L 384.144531 294.527344 L 383.65625 294.335938 L 381.109375 300.65625 L 376.785156 297.960938 L 368.171875 293.582031 L 360.035156 289.539062 L 355.097656 287.46875 L 354.742188 285.988281 L 360.421875 274.222656 L 363.589844 266.453125 L 421.820312 284.878906 L 429.988281 287.648438 L 430.007812 287.796875 L 435.722656 289.878906 L 429.320312 304.179688 L 429.664062 304.328125 L 417.359375 312.375 L 419.15625 313.109375 L 419.09375 313.273438 L 456.269531 329.820312 L 453.289062 335.871094 L 417.039062 319.871094 L 416.6875 320.554688 Z M 416.332031 321.242188 "/>
</g>
<g clip-path="url(#clip7)" clip-rule="nonzero">
<path style=" stroke:none;fill-rule:nonzero;fill:rgb(39.99939%,39.99939%,39.99939%);fill-opacity:0.3;" d="M 352.917969 289.152344 L 360.246094 291.234375 L 367.449219 294.761719 L 376.125 299.214844 L 380.914062 302.371094 L 380.476562 304.871094 L 380.753906 308.488281 L 381.859375 312.738281 L 382.300781 312.632812 L 382.746094 312.527344 L 381.691406 308.542969 L 381.417969 305.078125 L 381.804688 303.035156 L 386.78125 306.441406 L 385.507812 310.167969 L 386.171875 313.628906 L 386.632812 313.683594 L 387.058594 313.734375 L 386.503906 310.007812 L 387.773438 307.125 L 391.277344 309.582031 L 401.296875 319.015625 L 408.332031 327.816406 L 414.777344 336.433594 L 421.324219 347.644531 L 424.84375 354.382812 L 427.191406 362.167969 L 409.21875 355.125 L 409.023438 355.960938 L 408.828125 356.792969 L 427.289062 363.925781 L 428.464844 365.691406 L 429.996094 374.09375 L 417.914062 372.636719 L 406.484375 367.078125 L 406.113281 367.875 L 405.703125 368.75 L 417.230469 374.398438 L 431.28125 375.960938 L 432.667969 386.679688 L 432.671875 398.355469 L 430.964844 417.703125 L 424.046875 419.132812 L 418.847656 416.40625 L 413.402344 411.140625 L 412.644531 409.339844 L 405.203125 401.140625 L 398.953125 396.136719 L 393.882812 390.953125 L 388.550781 385.824219 L 381.6875 377.507812 L 373.285156 367.875 L 366.132812 360.585938 L 363.777344 355.058594 L 361.96875 350.746094 L 356.273438 340.664062 L 351.195312 332.136719 L 341.234375 313.675781 Z M 352.917969 289.152344 "/>
</g>
<path style=" stroke:none;fill-rule:nonzero;fill:rgb(39.99939%,39.99939%,39.99939%);fill-opacity:0.3;" d="M 220.855469 314.878906 L 239.863281 320.917969 L 233.011719 338.210938 L 213.449219 331.816406 Z M 220.855469 314.878906 "/>
<path style=" stroke:none;fill-rule:nonzero;fill:rgb(39.99939%,39.99939%,39.99939%);fill-opacity:0.3;" d="M 262.828125 289.730469 L 257.597656 300.730469 L 257.035156 301.589844 L 255.839844 302.082031 L 253.304688 302.324219 L 250.117188 302.738281 L 247.855469 304.113281 L 246.109375 306.320312 L 240.164062 319.695312 L 221.144531 313.890625 L 229.96875 293.339844 Z M 262.828125 289.730469 "/>
<path style=" stroke:none;fill-rule:nonzero;fill:rgb(39.99939%,39.99939%,39.99939%);fill-opacity:0.3;" d="M 228.644531 293.355469 L 212.414062 331.476562 L 209.648438 330.5625 L 213.820312 318.648438 L 213.351562 318.492188 L 212.875 318.335938 L 208.667969 330.277344 L 187.027344 323.160156 L 199.777344 296.53125 Z M 228.644531 293.355469 "/>
<g clip-path="url(#clip8)" clip-rule="nonzero">
<path style=" stroke:none;fill-rule:nonzero;fill:rgb(39.99939%,39.99939%,39.99939%);fill-opacity:0.3;" d="M 114.46875 339.632812 L 118.695312 340.933594 L 112.59375 358.101562 L 113.378906 358.335938 L 114.160156 358.570312 L 120.226562 341.558594 L 122.425781 342.261719 L 112.753906 373.335938 L 113.386719 373.503906 L 114.015625 373.671875 L 124.003906 342.679688 L 131.3125 345.046875 L 122.695312 370.503906 L 124.085938 371.011719 L 132.808594 345.527344 L 160.699219 354.554688 L 153.941406 370.4375 L 152.011719 374.070312 L 149.675781 378.296875 L 146.890625 382.714844 L 146.066406 384.035156 L 145.128906 386.921875 L 131.511719 385.457031 L 117.566406 382.84375 L 118.480469 379.570312 L 117.8125 379.488281 L 117.191406 379.414062 L 116.464844 382.84375 L 107.011719 380.679688 L 107.664062 376.957031 L 105.6875 370.785156 L 105.011719 366.160156 L 105.191406 362.03125 L 105.765625 359.140625 L 112.523438 341.960938 Z M 114.46875 339.632812 "/>
</g>
<g clip-path="url(#clip9)" clip-rule="nonzero">
<path style=" stroke:none;fill-rule:nonzero;fill:rgb(39.99939%,39.99939%,39.99939%);fill-opacity:0.3;" d="M 178 333.371094 L 180.882812 333.097656 L 182.707031 332 L 183.761719 330.90625 L 186.644531 324.800781 L 208.703125 332.074219 L 203.882812 342.828125 L 204.414062 343.050781 L 204.941406 343.273438 L 209.949219 332.503906 L 218.207031 335.21875 L 213.464844 346.425781 L 214.894531 347.050781 L 219.910156 335.574219 L 232.671875 339.972656 L 223.40625 365.386719 L 219.34375 372.5 L 214.8125 379.394531 L 210.429688 385.257812 L 207.453125 386.878906 L 199.304688 381.195312 L 181.503906 376.75 L 156.042969 369.375 L 162.304688 354.644531 L 167.597656 344.121094 L 175.214844 334.371094 Z M 178 333.371094 "/>
</g>
<path style=" stroke:none;fill-rule:nonzero;fill:rgb(39.99939%,39.99939%,39.99939%);fill-opacity:0.3;" d="M 198.03125 295.6875 L 184.820312 324.4375 L 183.1875 327.992188 L 182.515625 329.539062 L 181.746094 330.816406 L 180.496094 331.820312 L 177.695312 332.503906 L 174.027344 332.535156 L 174.285156 329.792969 L 175.710938 324.808594 L 178.277344 318.625 L 165.453125 314.800781 L 165.363281 315.324219 L 165.273438 315.84375 L 176.648438 319.078125 L 174.890625 324.125 L 164.015625 320.421875 L 163.867188 320.875 L 163.722656 321.332031 L 174.332031 325.074219 L 173.429688 328.292969 L 172.402344 332.042969 L 159.503906 329.160156 L 159.257812 329.683594 L 159.015625 330.207031 L 173.980469 333.828125 L 165.898438 343.785156 L 161.359375 353.207031 L 150.316406 349.347656 L 159.296875 317.613281 L 157.929688 317.246094 L 148.710938 348.785156 L 117.0625 337.71875 L 137.652344 303.339844 L 139.601562 302.304688 L 152.765625 300.816406 Z M 198.03125 295.6875 "/>
<path style=" stroke:none;fill-rule:nonzero;fill:rgb(39.99939%,39.99939%,39.99939%);fill-opacity:0.3;" d="M 68.175781 145.566406 L 73.898438 149.695312 L 57.460938 170.605469 L 54.726562 168.722656 L 51.441406 166.277344 Z M 68.175781 145.566406 "/>
<path style=" stroke:none;fill-rule:nonzero;fill:rgb(39.99939%,39.99939%,39.99939%);fill-opacity:0.3;" d="M 83.71875 126.648438 L 89.238281 130.902344 L 75.648438 147.601562 L 69.972656 143.503906 Z M 83.71875 126.648438 "/>
<path style=" stroke:none;fill-rule:nonzero;fill:rgb(39.99939%,39.99939%,39.99939%);fill-opacity:0.3;" d="M 60.492188 140.023438 L 66.675781 144.484375 L 50.257812 165.394531 L 44.140625 160.84375 Z M 60.492188 140.023438 "/>
<path style=" stroke:none;fill-rule:nonzero;fill:rgb(39.99939%,39.99939%,39.99939%);fill-opacity:0.3;" d="M 76.511719 121.09375 L 82.277344 125.535156 L 68.308594 142.300781 L 62.230469 137.914062 Z M 76.511719 121.09375 "/>
<g clip-path="url(#clip10)" clip-rule="nonzero">
<path style=" stroke:none;fill-rule:nonzero;fill:rgb(39.99939%,39.99939%,39.99939%);fill-opacity:0.3;" d="M 265.605469 289.855469 L 279.78125 287.894531 L 274.316406 300.605469 L 272.617188 304.46875 L 273.273438 304.699219 L 274.03125 304.972656 L 275.183594 301.949219 L 277.542969 302.621094 L 277.824219 301.824219 L 278.105469 301.023438 L 276.070312 300.183594 L 281.554688 287.558594 L 312.238281 283.191406 L 331.09375 302.386719 L 338.289062 314.398438 L 331.789062 326.273438 L 322.703125 322.25 L 326.285156 314.726562 L 325.105469 314.148438 L 321.515625 321.417969 L 310.957031 316.773438 L 309.996094 317.664062 L 308.636719 318.6875 L 306.472656 319.085938 L 303.648438 318.765625 L 298.675781 317.320312 L 301.769531 308.761719 L 301.199219 308.628906 L 300.632812 308.492188 L 297.472656 316.949219 L 293.546875 315.828125 L 296.96875 306.367188 L 296.347656 306.191406 L 295.730469 306.015625 L 292.304688 315.371094 L 288.917969 314.351562 L 288.636719 315.125 L 288.363281 315.972656 L 307.527344 321.835938 L 304.164062 328.582031 L 302.28125 328.546875 L 300.433594 328.347656 L 297.96875 327.285156 L 284.699219 321.78125 L 284.324219 322.84375 L 299.472656 329.320312 L 301.058594 329.664062 L 303.105469 329.757812 L 304.988281 329.738281 L 308.386719 322.386719 L 311.457031 319.023438 L 330.5 327.640625 L 316.441406 353.625 L 309.472656 354.019531 L 309.371094 349.921875 L 310.574219 347.921875 L 310.171875 339.632812 L 309.253906 339.582031 L 308.363281 339.535156 L 308.566406 348.113281 L 307.363281 349.828125 L 307.363281 354.019531 L 298.960938 355.15625 L 297.21875 337.375 L 296.5625 337.359375 L 295.910156 337.347656 L 297.621094 355.355469 L 280.46875 358.511719 L 277.242188 343.808594 L 276.632812 344.058594 L 276.019531 344.304688 L 279.339844 358.597656 L 260.046875 364.417969 L 246.03125 369.738281 L 238.808594 372.609375 L 238.371094 365.464844 L 237.757812 365.515625 L 237.144531 365.5625 L 237.546875 372.976562 L 230.707031 376.183594 L 215.800781 383.042969 L 214.777344 382.488281 L 215.40625 380.792969 L 216.175781 379.09375 L 223.535156 368.324219 L 235.167969 338.898438 L 235.476562 338.109375 L 251.128906 343.859375 L 251.441406 342.960938 L 235.835938 337.199219 L 239.070312 328.960938 L 253.488281 334.238281 L 253.679688 333.726562 L 253.867188 333.214844 L 239.582031 328.066406 L 240.855469 324.421875 L 257.980469 330.402344 L 258.355469 329.253906 L 241.273438 323.417969 L 243.707031 317.167969 L 253.90625 319.996094 L 254.089844 319.320312 L 254.308594 318.566406 L 244.109375 315.546875 L 247.886719 307.164062 L 249.691406 305.101562 L 251.601562 304.207031 L 253.515625 303.910156 L 256.238281 303.707031 L 258.484375 303.46875 L 259.390625 302.953125 L 259.964844 302.1875 Z M 265.605469 289.855469 "/>
</g>
<g clip-path="url(#clip11)" clip-rule="nonzero">
<path style=" stroke:none;fill-rule:nonzero;fill:rgb(39.99939%,39.99939%,39.99939%);fill-opacity:0.3;" d="M 339.179688 315.75 L 345.761719 328.78125 L 352.480469 340.65625 L 357.167969 349.242188 L 359.757812 356.601562 L 362.988281 361.816406 L 372.847656 373.007812 L 372.644531 374.128906 L 371.878906 374.539062 L 345.765625 364.144531 L 318.613281 354.464844 Z M 339.179688 315.75 "/>
</g>
<path style=" stroke:none;fill-rule:nonzero;fill:rgb(39.99939%,39.99939%,39.99939%);fill-opacity:0.3;" d="M 257.582031 231.460938 L 243.171875 256.238281 L 243.597656 256.4375 L 244.027344 256.640625 L 258.265625 232.039062 L 279.886719 251.628906 L 285.257812 256.144531 L 290.585938 260.734375 L 308.570312 279.441406 L 241.882812 288.761719 L 228.875 283.273438 L 236.839844 271.441406 L 236.34375 271.140625 L 235.851562 270.839844 L 227.820312 282.851562 L 223.457031 281.136719 L 223.136719 281.761719 L 222.8125 282.386719 L 228.589844 284.617188 L 239.324219 289.078125 L 201.855469 292.710938 L 214.566406 268.542969 L 226.878906 240.617188 L 237.105469 217.058594 L 246.789062 223.808594 L 231.25 251.832031 L 232.152344 252.230469 L 233.054688 252.632812 L 248.128906 225.222656 L 252.347656 228.003906 L 242.453125 245.042969 L 243.695312 245.691406 L 253.519531 228.777344 Z M 257.582031 231.460938 "/>
<path style=" stroke:none;fill-rule:nonzero;fill:rgb(39.99939%,39.99939%,39.99939%);fill-opacity:0.3;" d="M 211.941406 196.609375 L 235.578125 215.726562 L 216.320312 260.511719 L 208.59375 257.8125 L 219.332031 232.253906 L 218.605469 231.90625 L 217.878906 231.5625 L 207.054688 257.261719 L 199.175781 254.546875 L 209.152344 228.714844 L 208.289062 228.367188 L 207.429688 228.023438 L 197.671875 253.992188 L 191.476562 251.761719 L 191.171875 251.488281 L 191.011719 251.019531 L 194.164062 243.839844 L 195.527344 241.554688 L 196.773438 239.574219 L 197.554688 237.535156 L 197.964844 235.425781 Z M 211.941406 196.609375 "/>
<path style=" stroke:none;fill-rule:nonzero;fill:rgb(39.99939%,39.99939%,39.99939%);fill-opacity:0.3;" d="M 185.398438 254.21875 L 185.761719 253.78125 L 186.121094 253.347656 L 181.117188 251.121094 L 163.589844 246.335938 L 166.074219 239.234375 L 191.277344 247.164062 L 189.941406 251.292969 L 189.914062 251.910156 L 190.421875 252.390625 L 215.949219 261.589844 L 214.027344 265.28125 L 203.273438 261.355469 L 202.78125 262.988281 L 213.546875 266.558594 L 209.300781 274.007812 L 179.65625 264.425781 L 179.378906 265.027344 L 179.105469 265.632812 L 208.625 275.40625 L 208.773438 275.867188 L 199.695312 293.03125 L 151.023438 298.84375 L 154.582031 287.089844 L 161.015625 289.078125 L 161.234375 288.542969 L 161.449219 288.007812 L 153.886719 285.4375 L 149.78125 299.238281 L 138.609375 300.148438 L 144.378906 281.78125 L 150.429688 262.988281 L 153.914062 259.183594 L 158.378906 256.882812 L 167.167969 259.207031 L 167.351562 258.742188 L 167.535156 258.28125 L 159.695312 255.285156 L 163.292969 247.257812 L 169.691406 249.078125 L 167.863281 254.25 L 169.207031 254.679688 L 171.046875 249.464844 L 179.488281 251.867188 L 177.648438 257.988281 L 178.332031 258.171875 L 179.011719 258.355469 L 180.84375 252.265625 Z M 185.398438 254.21875 "/>
<path style=" stroke:none;fill-rule:nonzero;fill:rgb(39.99939%,39.99939%,39.99939%);fill-opacity:0.3;" d="M 124.863281 268.898438 L 133.367188 245.78125 L 133.496094 244.988281 L 133.15625 244.332031 L 109.917969 237.15625 L 105.6875 248.375 L 79.152344 237.332031 L 84.382812 226.902344 L 102.292969 234 L 102.453125 233.632812 L 102.613281 233.269531 L 84.921875 225.910156 L 88.847656 217.230469 L 93.484375 203.695312 L 117.945312 214.152344 L 118.121094 213.753906 L 118.292969 213.367188 L 93.746094 202.839844 L 98.6875 191.023438 L 108.660156 194.761719 L 108.910156 194.242188 L 109.15625 193.722656 L 99.058594 189.851562 L 110.632812 166.960938 L 126.242188 168.285156 L 126.542969 167.597656 L 126.847656 166.914062 L 111.359375 165.519531 L 122.546875 142.652344 L 124.375 141.675781 L 137.261719 144.246094 L 144.914062 147.503906 L 152.828125 151.898438 L 180.878906 173.109375 L 169.773438 202.136719 L 167.621094 219.992188 L 164.914062 238.539062 L 162.15625 246.664062 L 158.988281 253.550781 L 150.613281 250.601562 L 160.949219 223.929688 L 160.316406 223.683594 L 159.679688 223.433594 L 149.496094 250.390625 L 140.804688 247.097656 L 150.445312 220.042969 L 149.597656 219.894531 L 148.75 219.742188 L 139.003906 246.796875 L 139.238281 247.792969 L 158.34375 254.9375 L 158.035156 255.738281 L 152.984375 258.367188 L 152.199219 258.816406 L 138.730469 254.089844 L 138.574219 254.414062 L 138.398438 254.777344 L 151.742188 259.714844 L 149.1875 262.484375 L 148.332031 264.699219 L 135.488281 259.566406 L 135.230469 260.050781 L 135.050781 260.578125 L 148.058594 265.578125 L 147.554688 266.960938 L 145.28125 273.265625 L 135.949219 270.109375 L 135.675781 270.84375 L 145.03125 274.09375 L 143.035156 280.4375 L 118.804688 272.710938 L 112.84375 270.8125 L 112.648438 271.496094 L 112.449219 272.183594 L 117.390625 273.738281 L 107.121094 304.359375 L 101.699219 305.070312 L 105.894531 292.136719 L 97.082031 289.882812 L 95.992188 288.945312 L 95.941406 287.015625 L 98.234375 280.046875 L 102.867188 281.328125 L 105.273438 274.804688 L 112.570312 256.957031 L 118.753906 259.183594 L 116.136719 265.824219 L 116.71875 266.03125 L 117.304688 266.238281 L 119.757812 259.714844 L 126.097656 261.957031 L 123.636719 268.484375 Z M 124.863281 268.898438 "/>
<path style=" stroke:none;fill-rule:nonzero;fill:rgb(39.99939%,39.99939%,39.99939%);fill-opacity:0.3;" d="M 104.679688 254.160156 L 110.929688 256.570312 L 101.242188 279.730469 L 97.84375 278.96875 L 91.019531 277.226562 L 90.90625 277.65625 L 90.792969 278.082031 L 96.816406 279.605469 L 94.363281 287.484375 L 94.667969 290.320312 L 103.777344 293 L 99.828125 305.613281 L 88.019531 306.996094 L 91.726562 296.058594 L 96.25 297.21875 L 96.425781 296.714844 L 96.609375 296.199219 L 91.972656 294.898438 L 84.394531 292.125 L 83.957031 292.972656 L 90.59375 295.625 L 86.851562 307.074219 L 70.273438 308.570312 L 58.796875 308.148438 L 51.429688 307.300781 L 64.890625 269.40625 L 78.15625 273.9375 L 78.277344 273.53125 L 78.394531 273.121094 L 65.136719 268.582031 L 68.152344 260.429688 L 69.136719 258.042969 L 89.398438 264.226562 L 87.6875 268.480469 L 88.660156 268.875 L 89.632812 269.273438 L 92.039062 263.484375 L 69.9375 256.488281 L 75.621094 244.605469 L 88.1875 249.550781 L 88.410156 249.132812 L 88.628906 248.714844 L 76.007812 243.695312 L 78.449219 238.53125 L 105.261719 249.828125 L 103.804688 254.222656 L 101.457031 260.71875 L 101.78125 260.863281 L 102.136719 261.023438 Z M 104.679688 254.160156 "/>
<path style=" stroke:none;fill-rule:nonzero;fill:rgb(39.99939%,39.99939%,39.99939%);fill-opacity:0.3;" d="M 118.378906 240.855469 L 124.824219 242.96875 L 120.464844 253.855469 L 114.257812 251.667969 Z M 118.378906 240.855469 "/>
<path style=" stroke:none;fill-rule:nonzero;fill:rgb(39.99939%,39.99939%,39.99939%);fill-opacity:0.3;" d="M 113.921875 252.460938 L 120.226562 254.746094 L 118.957031 257.984375 L 112.808594 255.773438 Z M 113.921875 252.460938 "/>
<path style=" stroke:none;fill-rule:nonzero;fill:rgb(39.99939%,39.99939%,39.99939%);fill-opacity:0.3;" d="M 118.933594 274.269531 L 125.921875 276.5 L 116.695312 303.035156 L 108.429688 304.203125 L 113.253906 291.160156 Z M 118.933594 274.269531 "/>
<path style=" stroke:none;fill-rule:nonzero;fill:rgb(39.99939%,39.99939%,39.99939%);fill-opacity:0.3;" d="M 210.277344 195.191406 L 196.398438 235.714844 L 196.191406 237.050781 L 195.890625 237.894531 L 195.023438 239.734375 L 191.824219 246.015625 L 166.214844 237.808594 L 168.945312 220.300781 L 171.585938 202.539062 L 181.808594 174.375 L 182.34375 173.992188 L 183.144531 173.992188 Z M 210.277344 195.191406 "/>
<path style=" stroke:none;fill-rule:nonzero;fill:rgb(39.99939%,39.99939%,39.99939%);fill-opacity:0.3;" d="M 127.601562 277.097656 L 135.035156 279.445312 L 129.855469 292.003906 L 127.292969 301.65625 L 118.332031 302.917969 Z M 127.601562 277.097656 "/>
<path style=" stroke:none;fill-rule:nonzero;fill:rgb(39.99939%,39.99939%,39.99939%);fill-opacity:0.3;" d="M 136.234375 279.808594 L 142.699219 281.761719 L 137.046875 300.589844 L 129.140625 301.5625 L 131.421875 292.105469 Z M 136.234375 279.808594 "/>
<path style=" stroke:none;fill-rule:nonzero;fill:rgb(39.99939%,39.99939%,39.99939%);fill-opacity:0.3;" d="M 106.4375 249.726562 L 112.738281 252.011719 L 111.371094 255.484375 L 105.222656 253.273438 Z M 106.4375 249.726562 "/>
<path style=" stroke:none;fill-rule:nonzero;fill:rgb(39.99939%,39.99939%,39.99939%);fill-opacity:0.3;" d="M 110.796875 238.203125 L 117.242188 240.316406 L 112.917969 251.113281 L 106.710938 248.925781 Z M 110.796875 238.203125 "/>
<path style=" stroke:none;fill-rule:nonzero;fill:rgb(39.99939%,39.99939%,39.99939%);fill-opacity:0.3;" d="M 125.53125 243.355469 L 131.980469 245.46875 L 127.589844 256.589844 L 121.382812 254.398438 Z M 125.53125 243.355469 "/>
<path style=" stroke:none;fill-rule:nonzero;fill:rgb(39.99939%,39.99939%,39.99939%);fill-opacity:0.3;" d="M 121.25 255.421875 L 127.550781 257.703125 L 126.21875 260.792969 L 120.070312 258.585938 Z M 121.25 255.421875 "/>
<path style=" stroke:none;fill-rule:nonzero;fill:rgb(39.99939%,39.99939%,39.99939%);fill-opacity:0.3;" d="M 44.671875 253.007812 L 44.261719 254.046875 L 40.808594 262.863281 L 38.484375 268.203125 L 39.226562 268.453125 L 39.875 268.671875 L 41.902344 264.136719 L 60.933594 270.789062 L 59.867188 273.5 L 41.101562 268.859375 L 36.71875 273.558594 L 29.246094 281.5625 L 25.425781 287.347656 L 24.976562 291.386719 L 23.890625 301.1875 L -20.050781 277.144531 L -25.957031 276.269531 L -31.890625 272.601562 L -24.539062 261.347656 L -16.613281 255.152344 L -14.632812 249.953125 L -13.144531 245.492188 L -11.90625 239.054688 L -10.589844 230.722656 L -3.757812 232.539062 L -3.917969 237.992188 L 15.179688 243.847656 L 15.683594 242.164062 L 16.046875 240.976562 Z M 44.671875 253.007812 "/>
<path style=" stroke:none;fill-rule:nonzero;fill:rgb(39.99939%,39.99939%,39.99939%);fill-opacity:0.3;" d="M 46.1875 253.957031 L 66.050781 260.601562 L 62.507812 268.542969 L 43.179688 261.992188 Z M 46.1875 253.957031 "/>
<path style=" stroke:none;fill-rule:nonzero;fill:rgb(39.99939%,39.99939%,39.99939%);fill-opacity:0.3;" d="M 51.542969 298.390625 L 50.246094 297.96875 L 50.941406 296.042969 L 50.257812 295.820312 L 49.5625 297.75 L 45.777344 296.519531 L 46.472656 294.589844 L 45.78125 294.367188 L 45.085938 296.292969 L 42.582031 295.480469 L 43.277344 293.550781 L 42.515625 293.304688 L 41.820312 295.234375 L 39.316406 294.417969 L 40.011719 292.492188 L 39.179688 292.222656 L 38.484375 294.148438 L 35.980469 293.335938 L 36.675781 291.40625 L 36.046875 291.203125 L 35.351562 293.132812 L 33.949219 292.675781 L 36.621094 285.261719 L 38.023438 285.71875 L 37.394531 287.464844 L 38.023438 287.671875 L 38.652344 285.921875 L 41.15625 286.738281 L 40.527344 288.484375 L 41.355469 288.753906 L 41.988281 287.007812 L 44.492188 287.820312 L 43.863281 289.566406 L 44.625 289.816406 L 45.253906 288.066406 L 47.757812 288.882812 L 47.128906 290.628906 L 47.816406 290.851562 L 48.449219 289.105469 L 52.234375 290.335938 L 51.605469 292.082031 L 52.285156 292.304688 L 52.917969 290.558594 L 54.242188 290.933594 Z M 51.542969 298.390625 "/>
<path style=" stroke:none;fill-rule:nonzero;fill:rgb(39.99939%,39.99939%,39.99939%);fill-opacity:0.3;" d="M 58.355469 278.917969 L 57.246094 278.539062 L 57.941406 276.609375 L 57.261719 276.390625 L 56.566406 278.320312 L 52.777344 277.089844 L 53.472656 275.160156 L 52.785156 274.933594 L 52.089844 276.863281 L 49.582031 276.050781 L 50.277344 274.121094 L 49.519531 273.875 L 48.824219 275.804688 L 46.316406 274.988281 L 47.011719 273.0625 L 46.183594 272.789062 L 45.488281 274.71875 L 42.984375 273.90625 L 43.679688 271.976562 L 43.050781 271.773438 L 42.355469 273.703125 L 40.949219 273.246094 L 42.351562 269.175781 L 59.863281 273.503906 Z M 58.355469 278.917969 "/>
<path style=" stroke:none;fill-rule:nonzero;fill:rgb(39.99939%,39.99939%,39.99939%);fill-opacity:0.3;" d="M 34.796875 264.878906 L 33.605469 268.136719 L 32.054688 267.648438 L 32.339844 266.859375 L 31.707031 266.660156 L 31.417969 267.449219 L 28.210938 266.441406 L 29.402344 263.183594 L 32.609375 264.191406 L 32.320312 264.980469 L 32.957031 265.179688 L 33.246094 264.394531 Z M 34.796875 264.878906 "/>
<path style=" stroke:none;fill-rule:nonzero;fill:rgb(39.99939%,39.99939%,39.99939%);fill-opacity:0.3;" d="M 33.457031 268.480469 L 32.265625 271.738281 L 30.714844 271.25 L 31.003906 270.460938 L 30.367188 270.261719 L 30.082031 271.050781 L 26.875 270.042969 L 28.0625 266.785156 L 31.273438 267.792969 L 30.984375 268.582031 L 31.617188 268.78125 L 31.90625 267.996094 Z M 33.457031 268.480469 "/>
<path style=" stroke:none;fill-rule:nonzero;fill:rgb(39.99939%,39.99939%,39.99939%);fill-opacity:0.3;" d="M 16.875 267.144531 L 18.367188 267.636719 L 17.980469 268.6875 L 18.632812 268.90625 L 19.019531 267.851562 L 22.234375 268.910156 L 21.84375 269.96875 L 22.5 270.183594 L 22.886719 269.125 L 26.117188 270.191406 L 25.730469 271.25 L 26.382812 271.464844 L 26.769531 270.40625 L 29.859375 271.425781 L 29.46875 272.480469 L 30.121094 272.695312 L 30.503906 271.636719 L 32.054688 272.148438 L 30.75 275.707031 L 29.207031 275.199219 L 29.589844 274.191406 L 28.921875 273.972656 L 28.550781 274.984375 L 25.46875 273.964844 L 25.835938 272.953125 L 25.183594 272.738281 L 24.8125 273.75 L 21.582031 272.683594 L 21.953125 271.671875 L 21.296875 271.457031 L 20.925781 272.46875 L 17.714844 271.410156 L 18.085938 270.398438 L 17.433594 270.183594 L 17.058594 271.195312 L 15.574219 270.703125 Z M 16.875 267.144531 "/>
<path style=" stroke:none;fill-rule:nonzero;fill:rgb(39.99939%,39.99939%,39.99939%);fill-opacity:0.3;" d="M 22.996094 274.585938 L 24.449219 275.085938 L 24.136719 275.941406 L 24.792969 276.15625 L 25.113281 275.28125 L 28.203125 276.285156 L 27.886719 277.140625 L 28.546875 277.355469 L 28.859375 276.5 L 30.40625 277 L 29.230469 280.210938 L 27.6875 279.695312 L 28 278.84375 L 27.339844 278.625 L 27.027344 279.480469 L 23.929688 278.515625 L 24.246094 277.644531 L 23.585938 277.429688 L 23.265625 278.300781 L 21.8125 277.820312 Z M 22.996094 274.585938 "/>
<path style=" stroke:none;fill-rule:nonzero;fill:rgb(39.99939%,39.99939%,39.99939%);fill-opacity:0.3;" d="M 21.660156 278.109375 L 23.195312 278.640625 L 22.90625 279.429688 L 23.535156 279.644531 L 23.824219 278.859375 L 27 279.953125 L 25.808594 283.210938 L 22.632812 282.113281 L 22.921875 281.328125 L 22.292969 281.109375 L 22.003906 281.898438 L 20.46875 281.367188 Z M 21.660156 278.109375 "/>
<path style=" stroke:none;fill-rule:nonzero;fill:rgb(39.99939%,39.99939%,39.99939%);fill-opacity:0.3;" d="M 37.566406 257.519531 L 36.378906 260.777344 L 34.824219 260.289062 L 35.113281 259.5 L 34.480469 259.300781 L 34.191406 260.089844 L 30.984375 259.082031 L 32.175781 255.824219 L 35.382812 256.832031 L 35.09375 257.621094 L 35.730469 257.820312 L 36.015625 257.03125 Z M 37.566406 257.519531 "/>
<path style=" stroke:none;fill-rule:nonzero;fill:rgb(39.99939%,39.99939%,39.99939%);fill-opacity:0.3;" d="M 36.191406 261.140625 L 35 264.394531 L 33.449219 263.910156 L 33.738281 263.121094 L 33.101562 262.921875 L 32.8125 263.710938 L 29.605469 262.699219 L 30.796875 259.445312 L 34.003906 260.453125 L 33.71875 261.242188 L 34.351562 261.441406 L 34.640625 260.652344 Z M 36.191406 261.140625 "/>
<path style=" stroke:none;fill-rule:nonzero;fill:rgb(39.99939%,39.99939%,39.99939%);fill-opacity:0.3;" d="M 12.609375 279.164062 L 14.078125 279.648438 L 13.691406 280.707031 L 14.359375 280.929688 L 14.746094 279.871094 L 17.945312 280.925781 L 17.558594 281.980469 L 18.222656 282.203125 L 18.613281 281.144531 L 21.832031 282.207031 L 21.441406 283.269531 L 22.101562 283.503906 L 22.496094 282.425781 L 25.894531 283.546875 L 24.597656 287.109375 L 21.191406 285.984375 L 21.5625 284.972656 L 20.894531 284.753906 L 20.523438 285.765625 L 17.308594 284.703125 L 17.679688 283.691406 L 17.007812 283.472656 L 16.636719 284.484375 L 13.441406 283.429688 L 13.8125 282.417969 L 13.144531 282.195312 L 12.769531 283.207031 L 11.304688 282.726562 Z M 12.609375 279.164062 "/>
<path style=" stroke:none;fill-rule:nonzero;fill:rgb(39.99939%,39.99939%,39.99939%);fill-opacity:0.3;" d="M 13.988281 275.390625 L 15.523438 275.917969 L 15.238281 276.707031 L 15.863281 276.925781 L 16.152344 276.136719 L 17.917969 276.769531 L 16.726562 280.027344 L 14.960938 279.390625 L 15.25 278.605469 L 14.621094 278.386719 L 14.332031 279.175781 L 12.796875 278.644531 Z M 13.988281 275.390625 "/>
<path style=" stroke:none;fill-rule:nonzero;fill:rgb(39.99939%,39.99939%,39.99939%);fill-opacity:0.3;" d="M 15.398438 271.535156 L 16.882812 272.023438 L 16.5625 272.894531 L 17.222656 273.113281 L 17.539062 272.238281 L 19.34375 272.820312 L 18.171875 276.011719 L 16.355469 275.476562 L 16.675781 274.601562 L 16.015625 274.382812 L 15.695312 275.257812 L 14.214844 274.769531 Z M 15.398438 271.535156 "/>
<path style=" stroke:none;fill-rule:nonzero;fill:rgb(39.99939%,39.99939%,39.99939%);fill-opacity:0.3;" d="M 22.902344 248.640625 L 24.410156 249.136719 L 24.089844 250.011719 L 24.722656 250.21875 L 25.039062 249.34375 L 26.742188 249.90625 L 25.558594 253.140625 L 23.84375 252.578125 L 24.164062 251.703125 L 23.53125 251.496094 L 23.210938 252.367188 L 21.71875 251.875 Z M 22.902344 248.640625 "/>
<path style=" stroke:none;fill-rule:nonzero;fill:rgb(39.99939%,39.99939%,39.99939%);fill-opacity:0.3;" d="M 21.496094 252.484375 L 23.003906 252.980469 L 22.683594 253.851562 L 23.316406 254.0625 L 23.636719 253.1875 L 25.335938 253.75 L 24.152344 256.984375 L 22.4375 256.417969 L 22.757812 255.546875 L 22.125 255.335938 L 21.804688 256.210938 L 20.3125 255.71875 Z M 21.496094 252.484375 "/>
<path style=" stroke:none;fill-rule:nonzero;fill:rgb(39.99939%,39.99939%,39.99939%);fill-opacity:0.3;" d="M 20.132812 256.207031 L 21.640625 256.703125 L 21.320312 257.578125 L 21.953125 257.785156 L 22.273438 256.910156 L 23.972656 257.472656 L 22.789062 260.707031 L 21.078125 260.144531 L 21.394531 259.269531 L 20.761719 259.0625 L 20.445312 259.933594 L 18.949219 259.441406 Z M 20.132812 256.207031 "/>
<path style=" stroke:none;fill-rule:nonzero;fill:rgb(39.99939%,39.99939%,39.99939%);fill-opacity:0.3;" d="M 18.761719 259.957031 L 20.269531 260.453125 L 19.949219 261.324219 L 20.582031 261.535156 L 20.902344 260.660156 L 22.601562 261.222656 L 21.417969 264.457031 L 19.703125 263.894531 L 20.023438 263.019531 L 19.390625 262.8125 L 19.074219 263.683594 L 17.578125 263.191406 Z M 18.761719 259.957031 "/>
<path style=" stroke:none;fill-rule:nonzero;fill:rgb(39.99939%,39.99939%,39.99939%);fill-opacity:0.3;" d="M 38.886719 253.910156 L 37.695312 257.167969 L 36.144531 256.679688 L 36.429688 255.890625 L 35.796875 255.691406 L 35.507812 256.480469 L 32.300781 255.472656 L 33.492188 252.214844 L 36.699219 253.222656 L 36.410156 254.011719 L 37.046875 254.210938 L 37.335938 253.425781 Z M 38.886719 253.910156 "/>
<path style=" stroke:none;fill-rule:nonzero;fill:rgb(39.99939%,39.99939%,39.99939%);fill-opacity:0.3;" d="M 40.015625 251.050781 L 39.125 253.488281 L 37.574219 253 L 37.863281 252.214844 L 37.226562 252.011719 L 36.9375 252.800781 L 33.730469 251.792969 L 34.804688 248.859375 L 37.902344 250.164062 L 37.839844 250.332031 L 38.476562 250.53125 L 38.515625 250.421875 Z M 40.015625 251.050781 "/>
<path style=" stroke:none;fill-rule:nonzero;fill:rgb(39.99939%,39.99939%,39.99939%);fill-opacity:0.3;" d="M 48.695312 306.25 L 47.042969 305.78125 L 26.453125 299.949219 L 27.71875 296.074219 L 28.980469 296.484375 L 28.351562 298.230469 L 28.980469 298.4375 L 29.609375 296.6875 L 32.261719 297.550781 L 31.632812 299.296875 L 32.261719 299.5 L 32.890625 297.753906 L 35.527344 298.609375 L 34.898438 300.359375 L 35.523438 300.5625 L 36.15625 298.816406 L 38.214844 299.484375 L 37.585938 301.230469 L 38.417969 301.5 L 39.046875 299.753906 L 41.089844 300.417969 L 40.460938 302.164062 L 41.21875 302.414062 L 41.851562 300.664062 L 43.988281 301.359375 L 43.359375 303.109375 L 44.050781 303.332031 L 44.679688 301.585938 L 46.917969 302.3125 L 46.289062 304.058594 L 46.96875 304.28125 L 47.597656 302.53125 L 49.789062 303.234375 Z M 48.695312 306.25 "/>
<path style=" stroke:none;fill-rule:nonzero;fill:rgb(39.99939%,39.99939%,39.99939%);fill-opacity:0.3;" d="M 54.957031 288.960938 L 53.636719 288.5625 L 54.332031 286.632812 L 53.648438 286.410156 L 52.953125 288.339844 L 49.167969 287.109375 L 49.863281 285.179688 L 49.171875 284.957031 L 48.476562 286.886719 L 45.972656 286.070312 L 46.667969 284.144531 L 45.90625 283.894531 L 45.210938 285.824219 L 42.707031 285.011719 L 43.402344 283.082031 L 42.570312 282.8125 L 41.875 284.742188 L 39.371094 283.925781 L 40.066406 282 L 39.4375 281.792969 L 38.742188 283.722656 L 37.339844 283.265625 L 40.011719 275.855469 L 41.414062 276.308594 L 40.785156 278.058594 L 41.414062 278.261719 L 42.042969 276.515625 L 44.546875 277.328125 L 43.917969 279.074219 L 44.75 279.34375 L 45.378906 277.597656 L 47.882812 278.410156 L 47.253906 280.160156 L 48.015625 280.40625 L 48.644531 278.660156 L 51.148438 279.472656 L 50.519531 281.21875 L 51.207031 281.445312 L 51.839844 279.695312 L 55.625 280.925781 L 54.996094 282.675781 L 55.675781 282.894531 L 56.308594 281.148438 L 57.628906 281.578125 Z M 54.957031 288.960938 "/>
<path style=" stroke:none;fill-rule:nonzero;fill:rgb(39.99939%,39.99939%,39.99939%);fill-opacity:0.3;" d="M 27.21875 245.671875 L 23.472656 244.5 L 23.59375 244.152344 Z M 27.21875 245.671875 "/>
<path style="fill-rule:nonzero;fill:rgb(39.99939%,39.99939%,39.99939%);fill-opacity:1;stroke-width:0.03;stroke-linecap:square;stroke-linejoin:miter;stroke:rgb(39.99939%,39.99939%,39.99939%);stroke-opacity:1;stroke-miterlimit:3.239307;" d="M 331.582031 244.460938 L 317.171875 269.238281 L 317.597656 269.4375 L 318.027344 269.640625 L 332.265625 245.039062 L 353.886719 264.628906 L 359.257812 269.144531 L 364.585938 273.734375 L 382.570312 292.441406 L 315.882812 301.761719 L 302.875 296.273438 L 310.839844 284.441406 L 310.34375 284.140625 L 309.851562 283.839844 L 301.820312 295.851562 L 297.457031 294.136719 L 297.136719 294.761719 L 296.8125 295.386719 L 302.589844 297.617188 L 313.324219 302.078125 L 275.855469 305.710938 L 288.566406 281.542969 L 300.878906 253.617188 L 311.105469 230.058594 L 320.789062 236.808594 L 305.25 264.832031 L 306.152344 265.230469 L 307.054688 265.632812 L 322.128906 238.222656 L 326.347656 241.003906 L 316.453125 258.042969 L 317.695312 258.691406 L 327.519531 241.777344 Z M 331.582031 244.460938 " transform="matrix(1,0,0,1,-74,-13)"/>
<path style="fill-rule:nonzero;fill:rgb(39.99939%,39.99939%,39.99939%);fill-opacity:1;stroke-width:0.03;stroke-linecap:square;stroke-linejoin:miter;stroke:rgb(39.99939%,39.99939%,39.99939%);stroke-opacity:1;stroke-miterlimit:3.239307;" d="M 285.941406 209.609375 L 309.578125 228.726562 L 290.320312 273.511719 L 282.59375 270.8125 L 293.332031 245.253906 L 292.605469 244.90625 L 291.878906 244.5625 L 281.054688 270.261719 L 273.175781 267.546875 L 283.152344 241.714844 L 282.289062 241.367188 L 281.429688 241.023438 L 271.671875 266.992188 L 265.476562 264.761719 L 265.171875 264.488281 L 265.011719 264.019531 L 268.164062 256.839844 L 269.527344 254.554688 L 270.773438 252.574219 L 271.554688 250.535156 L 271.964844 248.425781 Z M 285.941406 209.609375 " transform="matrix(1,0,0,1,-74,-13)"/>
<path style="fill-rule:nonzero;fill:rgb(39.99939%,39.99939%,39.99939%);fill-opacity:1;stroke-width:0.03;stroke-linecap:square;stroke-linejoin:miter;stroke:rgb(39.99939%,39.99939%,39.99939%);stroke-opacity:1;stroke-miterlimit:3.239307;" d="M 259.398438 267.21875 L 259.761719 266.78125 L 260.121094 266.347656 L 255.117188 264.121094 L 237.589844 259.335938 L 240.074219 252.234375 L 265.277344 260.164062 L 263.941406 264.292969 L 263.914062 264.910156 L 264.421875 265.390625 L 289.949219 274.589844 L 288.027344 278.28125 L 277.273438 274.355469 L 276.78125 275.988281 L 287.546875 279.558594 L 283.300781 287.007812 L 253.65625 277.425781 L 253.378906 278.027344 L 253.105469 278.632812 L 282.625 288.40625 L 282.773438 288.867188 L 273.695312 306.03125 L 225.023438 311.84375 L 228.582031 300.089844 L 235.015625 302.078125 L 235.234375 301.542969 L 235.449219 301.007812 L 227.886719 298.4375 L 223.78125 312.238281 L 212.609375 313.148438 L 218.378906 294.78125 L 224.429688 275.988281 L 227.914062 272.183594 L 232.378906 269.882812 L 241.167969 272.207031 L 241.351562 271.742188 L 241.535156 271.28125 L 233.695312 268.285156 L 237.292969 260.257812 L 243.691406 262.078125 L 241.863281 267.25 L 243.207031 267.679688 L 245.046875 262.464844 L 253.488281 264.867188 L 251.648438 270.988281 L 252.332031 271.171875 L 253.011719 271.355469 L 254.84375 265.265625 Z M 259.398438 267.21875 " transform="matrix(1,0,0,1,-74,-13)"/>
<path style="fill-rule:nonzero;fill:rgb(39.99939%,39.99939%,39.99939%);fill-opacity:1;stroke-width:0.03;stroke-linecap:square;stroke-linejoin:miter;stroke:rgb(39.99939%,39.99939%,39.99939%);stroke-opacity:1;stroke-miterlimit:3.239307;" d="M 198.863281 281.898438 L 207.367188 258.78125 L 207.496094 257.988281 L 207.15625 257.332031 L 183.917969 250.15625 L 179.6875 261.375 L 153.152344 250.332031 L 158.382812 239.902344 L 176.292969 247 L 176.453125 246.632812 L 176.613281 246.269531 L 158.921875 238.910156 L 162.847656 230.230469 L 167.484375 216.695312 L 191.945312 227.152344 L 192.121094 226.753906 L 192.292969 226.367188 L 167.746094 215.839844 L 172.6875 204.023438 L 182.660156 207.761719 L 182.910156 207.242188 L 183.15625 206.722656 L 173.058594 202.851562 L 184.632812 179.960938 L 200.242188 181.285156 L 200.542969 180.597656 L 200.847656 179.914062 L 185.359375 178.519531 L 196.546875 155.652344 L 198.375 154.675781 L 211.261719 157.246094 L 218.914062 160.503906 L 226.828125 164.898438 L 254.878906 186.109375 L 243.773438 215.136719 L 241.621094 232.992188 L 238.914062 251.539062 L 236.15625 259.664062 L 232.988281 266.550781 L 224.613281 263.601562 L 234.949219 236.929688 L 234.316406 236.683594 L 233.679688 236.433594 L 223.496094 263.390625 L 214.804688 260.097656 L 224.445312 233.042969 L 223.597656 232.894531 L 222.75 232.742188 L 213.003906 259.796875 L 213.238281 260.792969 L 232.34375 267.9375 L 232.035156 268.738281 L 226.984375 271.367188 L 226.199219 271.816406 L 212.730469 267.089844 L 212.574219 267.414062 L 212.398438 267.777344 L 225.742188 272.714844 L 223.1875 275.484375 L 222.332031 277.699219 L 209.488281 272.566406 L 209.230469 273.050781 L 209.050781 273.578125 L 222.058594 278.578125 L 221.554688 279.960938 L 219.28125 286.265625 L 209.949219 283.109375 L 209.675781 283.84375 L 219.03125 287.09375 L 217.035156 293.4375 L 192.804688 285.710938 L 186.84375 283.8125 L 186.648438 284.496094 L 186.449219 285.183594 L 191.390625 286.738281 L 181.121094 317.359375 L 175.699219 318.070312 L 179.894531 305.136719 L 171.082031 302.882812 L 169.992188 301.945312 L 169.941406 300.015625 L 172.234375 293.046875 L 176.867188 294.328125 L 179.273438 287.804688 L 186.570312 269.957031 L 192.753906 272.183594 L 190.136719 278.824219 L 190.71875 279.03125 L 191.304688 279.238281 L 193.757812 272.714844 L 200.097656 274.957031 L 197.636719 281.484375 Z M 198.863281 281.898438 " transform="matrix(1,0,0,1,-74,-13)"/>
<path style="fill-rule:nonzero;fill:rgb(39.99939%,39.99939%,39.99939%);fill-opacity:1;stroke-width:0.03;stroke-linecap:square;stroke-linejoin:miter;stroke:rgb(39.99939%,39.99939%,39.99939%);stroke-opacity:1;stroke-miterlimit:3.239307;" d="M 178.679688 267.160156 L 184.929688 269.570312 L 175.242188 292.730469 L 171.84375 291.96875 L 165.019531 290.226562 L 164.90625 290.65625 L 164.792969 291.082031 L 170.816406 292.605469 L 168.363281 300.484375 L 168.667969 303.320312 L 177.777344 306 L 173.828125 318.613281 L 162.019531 319.996094 L 165.726562 309.058594 L 170.25 310.21875 L 170.425781 309.714844 L 170.609375 309.199219 L 165.972656 307.898438 L 158.394531 305.125 L 157.957031 305.972656 L 164.59375 308.625 L 160.851562 320.074219 L 144.273438 321.570312 L 132.796875 321.148438 L 125.429688 320.300781 L 138.890625 282.40625 L 152.15625 286.9375 L 152.277344 286.53125 L 152.394531 286.121094 L 139.136719 281.582031 L 142.152344 273.429688 L 143.136719 271.042969 L 163.398438 277.226562 L 161.6875 281.480469 L 162.660156 281.875 L 163.632812 282.273438 L 166.039062 276.484375 L 143.9375 269.488281 L 149.621094 257.605469 L 162.1875 262.550781 L 162.410156 262.132812 L 162.628906 261.714844 L 150.007812 256.695312 L 152.449219 251.53125 L 179.261719 262.828125 L 177.804688 267.222656 L 175.457031 273.71875 L 175.78125 273.863281 L 176.136719 274.023438 Z M 178.679688 267.160156 " transform="matrix(1,0,0,1,-74,-13)"/>
<path style="fill-rule:nonzero;fill:rgb(39.99939%,39.99939%,39.99939%);fill-opacity:1;stroke-width:0.03;stroke-linecap:square;stroke-linejoin:miter;stroke:rgb(39.99939%,39.99939%,39.99939%);stroke-opacity:1;stroke-miterlimit:3.239307;" d="M 192.378906 253.855469 L 198.824219 255.96875 L 194.464844 266.855469 L 188.257812 264.667969 Z M 192.378906 253.855469 " transform="matrix(1,0,0,1,-74,-13)"/>
<path style="fill-rule:nonzero;fill:rgb(39.99939%,39.99939%,39.99939%);fill-opacity:1;stroke-width:0.03;stroke-linecap:square;stroke-linejoin:miter;stroke:rgb(39.99939%,39.99939%,39.99939%);stroke-opacity:1;stroke-miterlimit:3.239307;" d="M 187.921875 265.460938 L 194.226562 267.746094 L 192.957031 270.984375 L 186.808594 268.773438 Z M 187.921875 265.460938 " transform="matrix(1,0,0,1,-74,-13)"/>
<path style="fill-rule:nonzero;fill:rgb(39.99939%,39.99939%,39.99939%);fill-opacity:1;stroke-width:0.03;stroke-linecap:square;stroke-linejoin:miter;stroke:rgb(39.99939%,39.99939%,39.99939%);stroke-opacity:1;stroke-miterlimit:3.239307;" d="M 192.933594 287.269531 L 199.921875 289.5 L 190.695312 316.035156 L 182.429688 317.203125 L 187.253906 304.160156 Z M 192.933594 287.269531 " transform="matrix(1,0,0,1,-74,-13)"/>
<path style="fill-rule:nonzero;fill:rgb(39.99939%,39.99939%,39.99939%);fill-opacity:1;stroke-width:0.03;stroke-linecap:square;stroke-linejoin:miter;stroke:rgb(39.99939%,39.99939%,39.99939%);stroke-opacity:1;stroke-miterlimit:3.239307;" d="M 284.277344 208.191406 L 270.398438 248.714844 L 270.191406 250.050781 L 269.890625 250.894531 L 269.023438 252.734375 L 265.824219 259.015625 L 240.214844 250.808594 L 242.945312 233.300781 L 245.585938 215.539062 L 255.808594 187.375 L 256.34375 186.992188 L 257.144531 186.992188 Z M 284.277344 208.191406 " transform="matrix(1,0,0,1,-74,-13)"/>
<path style="fill-rule:nonzero;fill:rgb(39.99939%,39.99939%,39.99939%);fill-opacity:1;stroke-width:0.03;stroke-linecap:square;stroke-linejoin:miter;stroke:rgb(39.99939%,39.99939%,39.99939%);stroke-opacity:1;stroke-miterlimit:3.239307;" d="M 201.601562 290.097656 L 209.035156 292.445312 L 203.855469 305.003906 L 201.292969 314.65625 L 192.332031 315.917969 Z M 201.601562 290.097656 " transform="matrix(1,0,0,1,-74,-13)"/>
<path style="fill-rule:nonzero;fill:rgb(39.99939%,39.99939%,39.99939%);fill-opacity:1;stroke-width:0.03;stroke-linecap:square;stroke-linejoin:miter;stroke:rgb(39.99939%,39.99939%,39.99939%);stroke-opacity:1;stroke-miterlimit:3.239307;" d="M 210.234375 292.808594 L 216.699219 294.761719 L 211.046875 313.589844 L 203.140625 314.5625 L 205.421875 305.105469 Z M 210.234375 292.808594 " transform="matrix(1,0,0,1,-74,-13)"/>
<path style="fill-rule:nonzero;fill:rgb(39.99939%,39.99939%,39.99939%);fill-opacity:1;stroke-width:0.03;stroke-linecap:square;stroke-linejoin:miter;stroke:rgb(39.99939%,39.99939%,39.99939%);stroke-opacity:1;stroke-miterlimit:3.239307;" d="M 180.4375 262.726562 L 186.738281 265.011719 L 185.371094 268.484375 L 179.222656 266.273438 Z M 180.4375 262.726562 " transform="matrix(1,0,0,1,-74,-13)"/>
<path style="fill-rule:nonzero;fill:rgb(39.99939%,39.99939%,39.99939%);fill-opacity:1;stroke-width:0.03;stroke-linecap:square;stroke-linejoin:miter;stroke:rgb(39.99939%,39.99939%,39.99939%);stroke-opacity:1;stroke-miterlimit:3.239307;" d="M 184.796875 251.203125 L 191.242188 253.316406 L 186.917969 264.113281 L 180.710938 261.925781 Z M 184.796875 251.203125 " transform="matrix(1,0,0,1,-74,-13)"/>
<path style="fill-rule:nonzero;fill:rgb(39.99939%,39.99939%,39.99939%);fill-opacity:1;stroke-width:0.03;stroke-linecap:square;stroke-linejoin:miter;stroke:rgb(39.99939%,39.99939%,39.99939%);stroke-opacity:1;stroke-miterlimit:3.239307;" d="M 199.53125 256.355469 L 205.980469 258.46875 L 201.589844 269.589844 L 195.382812 267.398438 Z M 199.53125 256.355469 " transform="matrix(1,0,0,1,-74,-13)"/>
<path style="fill-rule:nonzero;fill:rgb(39.99939%,39.99939%,39.99939%);fill-opacity:1;stroke-width:0.03;stroke-linecap:square;stroke-linejoin:miter;stroke:rgb(39.99939%,39.99939%,39.99939%);stroke-opacity:1;stroke-miterlimit:3.239307;" d="M 195.25 268.421875 L 201.550781 270.703125 L 200.21875 273.792969 L 194.070312 271.585938 Z M 195.25 268.421875 " transform="matrix(1,0,0,1,-74,-13)"/>
</g>
</svg>
