<?xml version="1.0" encoding="UTF-8"?>
<svg xmlns="http://www.w3.org/2000/svg" xmlns:xlink="http://www.w3.org/1999/xlink" width="361pt" height="361pt" viewBox="0 0 361 361" version="1.1">
<defs>
<clipPath id="clip1">
  <path d="M 0 229 L 49 229 L 49 360 L 0 360 Z M 0 229 "/>
</clipPath>
<clipPath id="clip2">
  <path d="M 313 22 L 360 22 L 360 234 L 313 234 Z M 313 22 "/>
</clipPath>
<clipPath id="clip3">
  <path d="M 298 0 L 360 0 L 360 87 L 298 87 Z M 298 0 "/>
</clipPath>
</defs>
<g id="surface9401">
<path style="fill-rule:nonzero;fill:rgb(0%,0%,0%);fill-opacity:1;stroke-width:0.03;stroke-linecap:square;stroke-linejoin:miter;stroke:rgb(0%,0%,0%);stroke-opacity:1;stroke-miterlimit:10;" d="M 0 178 L 360 178 L 360 -182 L 0 -182 Z M 0 178 " transform="matrix(1,0,0,1,0,182)"/>
<path style=" stroke:none;fill-rule:nonzero;fill:rgb(39.99939%,39.99939%,39.99939%);fill-opacity:0.3;" d="M 55.25 191.941406 L 47.222656 191.953125 L 37.433594 192.449219 L 26.523438 191.710938 L 22.757812 192.46875 L 20.378906 194.070312 L 17.90625 196.800781 L 14.238281 198.78125 L 8.386719 197.46875 L 5.449219 195.328125 L 1.25 193.796875 L -8.1875 192.53125 L -18.160156 191.777344 L -27.324219 191.789062 L -35.679688 192.566406 L -40.257812 194.617188 L -43.21875 196.917969 L -46.449219 198.96875 L -48.601562 201.273438 L -52.910156 203.832031 L -58.300781 206.394531 L -69.074219 209.734375 L -74.734375 211.019531 L -80.660156 211.792969 L -86.050781 211.800781 L -92.792969 211.039062 L -102.34375 210.277344 L -117.171875 207.484375 L -122.5625 206.980469 L -129.570312 206.988281 L -134.152344 207.25 L -140.082031 206.746094 L -167.035156 204.992188 L -180.785156 202.710938 L -184.292969 201.4375 L -188.066406 200.417969 L -191.839844 200.167969 L -196.152344 200.175781 L -200.734375 199.925781 L -206.664062 198.910156 L -213.785156 196.558594 L -217.828125 196.054688 L -220.253906 196.054688 L -224.027344 196.0625 L -228.070312 195.554688 L -235.351562 193.777344 L -249.375 188.425781 L -257.734375 183.835938 L -279.316406 170.316406 L -286.332031 165.980469 L -290.109375 163.429688 L -294.960938 161.902344 L -298.46875 161.140625 L -303.585938 161.65625 L -308.167969 162.175781 L -313.410156 162.996094 L -320.960938 162.933594 L -325.53125 163.765625 L -330.535156 163.976562 L -336.414062 163.777344 L -344.683594 165.222656 L -348.996094 164.84375 L -353.601562 164.660156 L -357.984375 164.953125 L -362.828125 165.492188 L -368.671875 167.535156 L -374.605469 169.992188 L -379.136719 171 L -388.960938 172.304688 L -393.191406 173.167969 L -397.726562 174.324219 L -403.011719 175.621094 L -406.488281 176.054688 L -411.476562 176.632812 L -416.171875 177.566406 L -417.261719 178.253906 L -417.515625 179.925781 L -417.003906 181.664062 L -416.886719 181.882812 L -415.695312 184.136719 L -414.167969 185.375 L -412.210938 185.785156 L -409.582031 186.152344 L -406.550781 186.398438 L -393.710938 184.730469 L -390.445312 183.28125 L -388.273438 181.417969 L -385.664062 179.972656 L -379.761719 177.652344 L -378.480469 177.789062 L -377.339844 179 L -369.464844 214.195312 L -369.75 215.816406 L -370.460938 216.21875 L -372.101562 216.976562 L -389.554688 218.976562 L -392.84375 219.367188 L -399.09375 219.894531 L -405.496094 220.214844 L -413.03125 198.628906 L -413.769531 196.257812 L -415.5625 188.960938 L -416.195312 189.066406 L -416.824219 189.167969 L -414.941406 197.636719 L -425.027344 197.933594 L -424.949219 198.441406 L -424.875 198.953125 L -414.316406 198.742188 L -406.730469 220.386719 L -416.503906 221.097656 L -444.691406 219.992188 L -448.988281 219.671875 L -451.566406 219.023438 L -454.144531 218.050781 L -456.898438 216.75 L -457.6875 216.171875 L -458.515625 215.503906 L -460.09375 214.085938 L -463.011719 211.316406 L -468.933594 202.855469 L -475.132812 194 L -490.480469 177.132812 L -494.285156 174.078125 L -493.875 171.773438 L -498.042969 168.128906 L -508.460938 162.398438 L -515.234375 158.753906 L -516.285156 157.699219 L -516.324219 157.53125 L -515.542969 156.195312 L -514.136719 155.152344 L -510.847656 154.851562 L -482.820312 150.65625 L -456.234375 145.304688 L -449.769531 143.964844 L -441.339844 141.554688 L -421.949219 134.597656 L -414.363281 132.453125 L -403.402344 130.574219 L -393.28125 128.425781 L -385.132812 126.816406 L -376.136719 124.671875 L -365.28125 121.433594 L -320.464844 110.367188 L -314.984375 109.617188 L -312.375 109.425781 L -309 109.421875 L -306.78125 110.058594 L -305.816406 110.695312 L -305.238281 111.519531 L -304.945312 112.433594 L -302.703125 129.617188 L -303.089844 130.074219 L -311.28125 130.996094 L -308.949219 143.425781 L -299.988281 142.5 L -303.207031 114.441406 L -302.921875 113.433594 L -302.34375 113.070312 L -301.378906 112.792969 L -299.453125 112.882812 L -297.328125 113.429688 L -294.4375 114.519531 L -291.699219 115.4375 L -289.382812 116.441406 L -287.066406 117.902344 L -283.496094 120.363281 L -245.863281 147.742188 L -240.3125 150.871094 L -238.09375 151.78125 L -236.066406 152.328125 L -233.175781 152.964844 L -230.570312 153.328125 L -226.136719 153.777344 L -221.605469 153.957031 L -185.097656 153.402344 L -159.105469 152.355469 L -152.40625 151.964844 L -146.777344 151.449219 L -142.179688 150.941406 L -137.890625 150.300781 L -134.007812 149.40625 L -126.640625 147.492188 L -122.625 146.089844 L -120.34375 145.375 L -113.75 146.269531 L -107.542969 146.261719 L -102.09375 145.679688 L -89.53125 142.9375 L -81.742188 140.851562 L -72.765625 138.96875 L -67.304688 138.160156 L -63.34375 137.742188 L -60.011719 137.742188 L -55.394531 138.246094 L -51.121094 139.117188 L -45.15625 140.683594 L -38.730469 142.554688 L -30.398438 144.984375 L -17.992188 148.597656 L -11.023438 150.628906 L -5.703125 151.796875 L -3.472656 152.039062 L 1.710938 152.792969 L 8.953125 153.574219 L 19.128906 154.386719 L 26.78125 155.0625 L 36.710938 155.214844 L 42.058594 154.949219 L 49.773438 154.566406 L 54.105469 154.214844 Z M 55.25 191.941406 "/>
<g clip-path="url(#clip1)" clip-rule="nonzero">
<path style=" stroke:none;fill-rule:nonzero;fill:rgb(39.99939%,39.99939%,39.99939%);fill-opacity:0.3;" d="M -302.914062 229.363281 L -215.511719 241.6875 L -201.507812 257.078125 L -192.214844 267.769531 L -179.613281 278.332031 L -156.695312 288.738281 L -146.394531 291.25 L -137.699219 290.398438 L -130.957031 288.199219 L -105.902344 275.09375 L -102.050781 274.207031 L -76.824219 293.847656 L -65.882812 302.429688 L -55.394531 310.496094 L -16.324219 318.859375 L -15.796875 317.261719 L -15.265625 315.660156 L -54.511719 307.464844 L -80.105469 287.125 L -98.414062 271.664062 L -96.769531 257.523438 L 48.539062 257.160156 L 46.519531 306.1875 L 37.671875 313.097656 L -121.949219 352.648438 L -181.027344 363.246094 L -198.492188 360.097656 L -250.144531 338.335938 L -262.871094 332.324219 L -273.171875 327.167969 L -278.019531 323.585938 L -281.355469 320.148438 L -286.359375 314.699219 L -293.03125 305.519531 L -296.980469 299.066406 L -299.867188 291.890625 L -301.6875 287.589844 L -302.601562 284.574219 L -303.863281 281.539062 L -305.261719 274.242188 L -307.003906 262.914062 L -307.5 253.09375 L -307.355469 241.152344 L -306.890625 232.84375 Z M -302.914062 229.363281 "/>
</g>
<path style=" stroke:none;fill-rule:nonzero;fill:rgb(39.99939%,39.99939%,39.99939%);fill-opacity:0.3;" d="M 51.480469 254.609375 L 46.386719 254.546875 L 45.351562 254.128906 L 45.203125 253.429688 L 46.199219 228.644531 L 53.675781 228.527344 L 51.480469 254.59375 Z M 51.480469 254.609375 "/>
<path style=" stroke:none;fill-rule:nonzero;fill:rgb(39.99939%,39.99939%,39.99939%);fill-opacity:0.3;" d="M 53.824219 226.777344 L 44.296875 226.589844 L 44.035156 226.800781 L 44.035156 227.21875 L 43.214844 253 L 43.152344 253.703125 L 42.84375 254.230469 L 42.226562 254.464844 L 41.609375 254.527344 L 19.558594 254.144531 L 12.542969 253.917969 L -37.0625 252.96875 L -55.269531 252.992188 L -82.929688 251.699219 L -97.464844 250.554688 L -118.300781 248.257812 L -163.851562 242.050781 L -197.671875 238.964844 L -214.855469 236.546875 L -240.582031 233.691406 L -288.964844 227.582031 L -294.832031 225.230469 L -301.398438 224.117188 L -355.882812 217.46875 L -352.792969 170.703125 L -351.488281 168.214844 L -347.367188 167.734375 L -307.636719 172.308594 L -300.90625 173.308594 L -296.300781 174.308594 L -292.050781 175.980469 L -279.289062 181.675781 L -268.300781 188.039062 L -264.402344 189.378906 L -258.734375 191.722656 L -253.417969 194.402344 L -247.746094 196.746094 L -242.078125 198.753906 L -237.117188 199.417969 L -229.675781 202.09375 L -222.230469 206.113281 L -213.730469 207.78125 L -208.0625 208.445312 L -202.039062 208.4375 L -196.019531 208.429688 L -190.707031 208.757812 L -185.390625 210.09375 L -181.140625 211.769531 L -175.824219 214.449219 L -164.839844 217.121094 L -157.046875 218.117188 L -152.441406 218.109375 L -148.335938 216.792969 L -144.089844 215.109375 L -140.195312 214.09375 L -133.820312 213.75 L -120.714844 214.742188 L -116.816406 215.742188 L -111.855469 218.085938 L -106.890625 220.429688 L -102.640625 222.105469 L -96.972656 223.777344 L -90.238281 225.445312 L -85.28125 226.113281 L -79.964844 226.441406 L -74.300781 226.433594 L -67.925781 224.746094 L -60.847656 222.046875 L -56.601562 219.691406 L -52.003906 215.992188 L -48.820312 213.636719 L -44.574219 210.941406 L -40.679688 208.921875 L -34.660156 208.242188 L -29.703125 207.5625 L -24.039062 206.882812 L -18.375 203.519531 L -13.066406 201.160156 L -7.757812 200.144531 L -1.734375 200.136719 L 4.996094 201.472656 L 11.019531 203.476562 L 18.105469 205.148438 L 23.773438 205.476562 L 28.730469 205.46875 L 34.042969 204.453125 L 37.9375 203.105469 L 40.058594 202.097656 L 47.140625 201.414062 L 51.390625 201.746094 L 55.59375 203.269531 L 55.648438 205.113281 Z M 53.824219 226.777344 "/>
<path style=" stroke:none;fill-rule:nonzero;fill:rgb(39.99939%,39.99939%,39.99939%);fill-opacity:0.3;" d="M 63.414062 5.9375 L 57.460938 6.308594 L 57.4375 -9.785156 L 61.78125 -9.917969 L 61.796875 -11.390625 L 61.808594 -12.453125 L 73.878906 -12.617188 Z M 63.414062 5.9375 "/>
<path style=" stroke:none;fill-rule:nonzero;fill:rgb(39.99939%,39.99939%,39.99939%);fill-opacity:0.3;" d="M 53.636719 -12.339844 L 54.339844 6.828125 L 10.535156 8.703125 L -14.015625 9.453125 L -14.335938 4.734375 L -22.890625 5.039062 L -22.726562 9.910156 L -23.582031 10.203125 L -45.050781 10.820312 L -47.382812 10.527344 L -55.953125 0.507812 L -54.710938 -0.523438 L -34.96875 -10.582031 L -31.082031 -11.472656 L -28.804688 -11.503906 L -30.816406 -9.488281 L -2.6875 -11.574219 Z M 53.636719 -12.339844 "/>
<path style=" stroke:none;fill-rule:nonzero;fill:rgb(39.99939%,39.99939%,39.99939%);fill-opacity:0.3;" d="M 68.449219 152.519531 L 68.882812 152.457031 L 74.175781 151.761719 L 78.820312 151.316406 L 135.6875 145.945312 L 139.941406 145.515625 L 144.484375 144.789062 L 148.875 143.921875 L 167.035156 137.871094 L 172.332031 135.566406 L 176.566406 133.121094 L 179.289062 130.960938 L 186.6875 121.816406 L 184.832031 120.640625 L 183.210938 119.613281 L 176.847656 127.972656 L 173.683594 127.953125 L 171.398438 133 L 141.972656 143.3125 L 90.546875 147.921875 L 77.335938 148.589844 L 72.027344 148.929688 L 66.621094 149.609375 L 60.265625 150.578125 L 50.046875 151.886719 L 40.296875 153.039062 L 34.363281 153.371094 L 30.679688 153.320312 L 22.132812 152.585938 L -0.328125 150.53125 L -4.429688 149.746094 L -13.761719 147.503906 L -16.417969 146.816406 L -25.394531 143.839844 L -30.152344 142.324219 L -34.847656 140.867188 L -52.621094 136.269531 L -55.214844 135.863281 L -58.304688 135.585938 L -60.976562 135.589844 L -64.246094 135.761719 L -82.898438 138.546875 L -86.84375 138.6875 L -87.863281 138.597656 L -88.785156 137.917969 L -89.804688 135.65625 L -89.894531 134.023438 L -89.519531 133.121094 L -88.816406 132.300781 L -87.472656 131.84375 L -72.46875 125.832031 L -67.777344 123.929688 L -63.78125 122.03125 L -60.914062 120.460938 L -57.960938 118.3125 L -55.53125 115.917969 L -52.839844 112.535156 L -50.324219 108.492188 L -49.835938 107.339844 L -48.003906 105.101562 L -46.441406 99.375 L -46.441406 94.164062 L -46.964844 88.433594 L -48.964844 82.9375 L -49.738281 79.503906 L -51.136719 75.21875 L -51.558594 74.363281 L -51.5625 73.539062 L -51.128906 72.714844 L -50.257812 72.21875 L -48.605469 72.136719 L -44.519531 72.210938 L -41.914062 72.210938 L -24.789062 70.867188 L -12.046875 69.847656 L -2.917969 69.425781 L 3.339844 69.253906 L 10.292969 69.492188 L 13.25 69.898438 L 15.511719 70.636719 L 18.554688 71.542969 L 21.601562 72.195312 L 24.46875 72.769531 L 42.328125 75.316406 L 43.375 75.972656 L 44.070312 76.796875 L 44.417969 77.867188 L 44.246094 79.4375 L 43.210938 109.835938 L 45.054688 110.039062 L 46.246094 78.488281 L 46.695312 77.875 L 47.390625 77.464844 L 48.867188 77.378906 L 54.257812 78.195312 L 58.78125 79.425781 L 61.738281 80.824219 L 64.4375 82.472656 L 66.960938 83.703125 L 69.65625 84.359375 L 73.828125 85.179688 L 87.957031 88.054688 L 92.21875 88.210938 L 98.355469 88.914062 L 98.371094 100.160156 L 101.742188 99.773438 L 105.109375 99.382812 L 104.554688 89.160156 L 105.34375 82.632812 L 106.296875 79.152344 L 109.328125 78.996094 L 136.613281 77.875 L 140.390625 78.125 L 141.738281 79.144531 L 141.738281 80.679688 L 142.566406 93.714844 L 129.089844 94.753906 L 129.363281 95.519531 L 129.632812 96.285156 L 142.570312 95.503906 L 143.648438 97.546875 L 161.167969 95.734375 L 163.324219 95.988281 L 164.132812 97.011719 L 164.40625 98.800781 L 167.234375 98.796875 L 170.066406 98.792969 L 169.515625 93.144531 L 169.722656 93.121094 L 170.761719 99.894531 L 196.285156 120.207031 L 174.410156 135.835938 L 158.78125 141.5625 L 145.761719 146.253906 L 122.84375 147.816406 L 106.695312 149.378906 L 83.253906 151.460938 Z M 68.449219 152.519531 "/>
<path style=" stroke:none;fill-rule:nonzero;fill:rgb(39.99939%,39.99939%,39.99939%);fill-opacity:0.3;" d="M 94.867188 60.839844 L 97.191406 61.8125 L 98.484375 63.769531 L 95.515625 84.675781 L 93.886719 85.855469 L 68.578125 80.941406 L 65.996094 79.964844 L 61.347656 77.769531 L 54.890625 74.351562 L 50.5 72.398438 L 46.113281 71.671875 L 40.179688 71.433594 L 36.050781 71.195312 L 22.867188 69.632812 L 19.082031 68.703125 L 15.625 67.769531 L 13.484375 67.148438 L 10.03125 66.84375 L 7.234375 66.847656 L -42.574219 70.253906 L -43.421875 69.878906 L -44.246094 69.101562 L -45.183594 62.335938 L -45.976562 59.351562 L -47.320312 56.515625 L -49.367188 54.445312 L -51.671875 52.886719 L -54.574219 51.59375 L -62.292969 50.558594 L -63.789062 50.5625 L -64.671875 50.878906 L -64.832031 51.96875 L -64.996094 52.90625 L -64.101562 54.296875 L -60.320312 54.515625 L -57.5625 55.40625 L -55.351562 56.675781 L -51.828125 59.59375 L -50.34375 61.777344 L -50.175781 63.179688 L -50.175781 64.742188 L -51.8125 68.640625 L -52.46875 69.421875 L -54.113281 69.582031 L -55.59375 69.425781 L -59.21875 66.78125 L -62.675781 64.445312 L -65.96875 63.203125 L -69.585938 62.269531 L -73.863281 62.277344 L -76.824219 62.4375 L -80.214844 62.851562 L -83.503906 63.324219 L -86.300781 63.953125 L -92.796875 65.011719 L -109.46875 65.515625 L -112.074219 64.472656 L -114.15625 62.910156 L -116.761719 60.828125 L -118.324219 58.746094 L -119.210938 56.53125 L -119.210938 54.328125 L -118.722656 51.363281 L -117.90625 48.867188 L -116.753906 47.773438 L -85.207031 25.734375 L -78.714844 22.097656 L -76.742188 21.3125 L -63.921875 16.929688 L -57.671875 15.671875 L -51.421875 14.726562 L -7.015625 12.796875 L 38.628906 11.777344 L 51.15625 11.597656 L 57.738281 11.433594 L 62.179688 11.113281 L 71.058594 9.699219 L 72.375 9.699219 L 73.03125 10.320312 L 73.363281 11.410156 L 73.371094 18.121094 L 72.714844 18.746094 L 67.78125 19.378906 L 67.785156 20.3125 L 67.125 21.09375 L 61.699219 22.039062 L 62.527344 24.21875 L 71.078125 22.804688 L 71.570312 21.710938 L 72.882812 20.773438 L 75.515625 20.148438 L 76.171875 18.898438 L 76.484375 9.539062 L 77.472656 8.757812 L 78.292969 8.289062 L 102.140625 4.824219 L 104.144531 4.671875 L 105.132812 5.296875 L 105.300781 6.386719 L 105.15625 21.988281 L 105.160156 23.546875 L 106.3125 24.480469 L 108.125 25.414062 L 109.277344 27.445312 L 110.597656 29.785156 L 111.257812 32.277344 L 110.777344 40.703125 L 109.957031 41.953125 L 108.3125 42.734375 L 106.339844 42.582031 L 103.046875 41.335938 L 99.589844 39.78125 L 95.640625 38.382812 L 91.855469 37.765625 L 80.671875 37.933594 L 53.597656 37.992188 L 52.285156 39.398438 L 51.300781 40.960938 L 49.164062 41.898438 L 47.027344 42.371094 L 4.582031 39.308594 L -1.667969 39.160156 L -14.824219 39.800781 L -32.585938 41.230469 L -36.042969 41.390625 L -38.015625 41.238281 L -66.492188 39.136719 L -87.710938 40.917969 L -101.730469 44.785156 L -104.9375 46.605469 L -105.859375 48.140625 L -105.933594 49.972656 L -105.007812 50.921875 L -102.230469 51.519531 L -97.132812 51.277344 L -87.5625 49.214844 L -84.746094 48.613281 L -70.539062 48.242188 L -56.699219 46.648438 L -51.53125 47.167969 L -47.652344 49.613281 L -41.558594 53.453125 L -38.050781 55.199219 L -34.542969 54.84375 L -28.273438 53.261719 L -20.289062 53.546875 L -6.144531 52.902344 L -1.210938 51.960938 L 1.746094 51.800781 L 6.1875 52.105469 L 12.933594 52.253906 L 25.699219 51.320312 L 32.445312 51.464844 L 35.734375 52.242188 L 37.382812 53.488281 L 41.332031 56.132812 L 45.285156 57.6875 L 49.890625 58.929688 L 54.167969 59.234375 L 85.914062 59.816406 L 91.015625 59.964844 L 93.152344 60.277344 Z M 94.867188 60.839844 "/>
<path style=" stroke:none;fill-rule:nonzero;fill:rgb(39.99939%,39.99939%,39.99939%);fill-opacity:0.3;" d="M 139.863281 75.476562 L 139.644531 75.425781 L 103.726562 77.171875 L 102.257812 76.480469 L 104.03125 61.222656 L 107.859375 60.515625 L 134.410156 60.835938 Z M 139.863281 75.476562 "/>
<path style=" stroke:none;fill-rule:nonzero;fill:rgb(39.99939%,39.99939%,39.99939%);fill-opacity:0.3;" d="M 95.554688 2.890625 L 94.773438 3.386719 L 87.238281 4.089844 L 91.070312 3.53125 Z M 95.554688 2.890625 "/>
<path style=" stroke:none;fill-rule:nonzero;fill:rgb(39.99939%,39.99939%,39.99939%);fill-opacity:0.3;" d="M 130.367188 49.980469 L 125.914062 49.640625 L 118.3125 47.800781 L 115.191406 45.957031 L 112.652344 42.816406 L 112.449219 38.75 L 113.03125 35.054688 L 124.726562 34.839844 Z M 130.367188 49.980469 "/>
<path style=" stroke:none;fill-rule:nonzero;fill:rgb(39.99939%,39.99939%,39.99939%);fill-opacity:0.3;" d="M 124.027344 32.960938 L 113.742188 32.910156 L 114.390625 31.355469 L 113.21875 28.953125 L 111.265625 28.585938 L 110.285156 24.519531 L 108.53125 23.414062 L 108.3125 5.484375 L 109.089844 4.1875 L 111.871094 3.554688 L 113.023438 3.410156 Z M 124.027344 32.960938 "/>
<path style=" stroke:none;fill-rule:nonzero;fill:rgb(39.99939%,39.99939%,39.99939%);fill-opacity:0.3;" d="M 215.386719 148.414062 L 201.425781 164.804688 L 196.582031 170.945312 L 190.121094 177.085938 L 188.777344 179.132812 L 187.433594 181.691406 L 185.546875 183.484375 L 166.152344 191.941406 L 150.457031 196.679688 L 145.339844 197.195312 L 138.871094 197.203125 L 132.402344 197.722656 L 123.507812 197.480469 L 119.191406 196.207031 L 115.957031 195.1875 L 112.453125 194.425781 L 107.871094 194.175781 L 103.019531 194.179688 L 95.203125 194.703125 L 83.613281 195.226562 L 76.066406 193.960938 L 72.289062 192.6875 L 66.628906 192.183594 L 56.386719 191.941406 L 55.25 191.941406 L 54.105469 154.214844 L 57.820312 153.910156 L 63.714844 153.1875 L 68.449219 152.519531 L 83.253906 151.460938 L 106.695312 149.378906 L 122.84375 147.816406 L 145.761719 146.253906 L 158.78125 141.5625 L 174.410156 135.835938 L 196.285156 120.207031 Z M 215.386719 148.414062 "/>
<path style=" stroke:none;fill-rule:nonzero;fill:rgb(39.99939%,39.99939%,39.99939%);fill-opacity:0.3;" d="M 240.070312 184.863281 L 232.199219 189.734375 L 215.1875 199.585938 L 198.761719 209.066406 L 182.757812 219.84375 L 180.3125 221.414062 L 179.582031 223.097656 L 178.546875 227.277344 L 178.179688 251.425781 L 178.1875 254.226562 L 178.039062 254.925781 L 177.449219 255.484375 L 176.417969 255.90625 L 174.203125 256.050781 L 171.394531 256.054688 L 51.480469 254.609375 L 51.480469 254.59375 L 53.675781 228.527344 L 56.09375 228.488281 L 56.125 227.65625 L 56.152344 226.824219 L 53.824219 226.777344 L 55.648438 205.113281 L 55.59375 203.269531 L 56 203.417969 L 61.667969 205.089844 L 66.980469 206.089844 L 74.417969 206.414062 L 84.691406 206.066406 L 94.25 204.710938 L 140.460938 203.28125 L 149.9375 202.949219 L 155.351562 201.335938 L 162.796875 200.042969 L 169.566406 200.035156 L 176.671875 200.023438 L 182.160156 199.058594 L 229.410156 169.125 Z M 240.070312 184.863281 "/>
<path style=" stroke:none;fill-rule:nonzero;fill:rgb(39.99939%,39.99939%,39.99939%);fill-opacity:0.3;" d="M 213.746094 253.964844 L 197.894531 255.203125 L 189.4375 254.859375 L 184.535156 253.65625 L 183.527344 253.214844 L 182.65625 252.707031 L 182.117188 250.796875 L 181.917969 236.582031 L 248.554688 221.714844 L 254.730469 247.433594 Z M 213.746094 253.964844 "/>
<path style=" stroke:none;fill-rule:nonzero;fill:rgb(39.99939%,39.99939%,39.99939%);fill-opacity:0.3;" d="M 183.328125 232.453125 L 183.519531 225.777344 L 185.667969 222.621094 L 189.1875 220.023438 L 226.730469 199.015625 L 241.078125 193.542969 L 247.074219 218.097656 Z M 183.328125 232.453125 "/>
<path style=" stroke:none;fill-rule:nonzero;fill:rgb(39.99939%,39.99939%,39.99939%);fill-opacity:0.3;" d="M 51.429688 305.773438 L 51.679688 256.980469 L 105.128906 257.855469 L 135.417969 258.800781 L 160.257812 260.082031 L 171.414062 260.808594 L 177.285156 262.101562 L 181.125 281.84375 L 152.890625 287.832031 L 122.070312 294.527344 L 56.691406 308.570312 Z M 51.429688 305.773438 "/>
<path style=" stroke:none;fill-rule:nonzero;fill:rgb(39.99939%,39.99939%,39.99939%);fill-opacity:0.3;" d="M 258.582031 247.03125 L 252.472656 220.558594 L 306.335938 209.359375 L 305.445312 235.722656 Z M 258.582031 247.03125 "/>
<path style=" stroke:none;fill-rule:nonzero;fill:rgb(39.99939%,39.99939%,39.99939%);fill-opacity:0.3;" d="M 253.152344 184.390625 L 308.570312 155.8125 L 308.148438 175.820312 L 255.53125 186.464844 Z M 253.152344 184.390625 "/>
<path style=" stroke:none;fill-rule:nonzero;fill:rgb(39.99939%,39.99939%,39.99939%);fill-opacity:0.3;" d="M 251.871094 218.078125 L 245.460938 191.8125 L 308.109375 179.21875 L 305.863281 206.699219 Z M 251.871094 218.078125 "/>
<path style=" stroke:none;fill-rule:nonzero;fill:rgb(39.99939%,39.99939%,39.99939%);fill-opacity:0.3;" d="M 176.226562 71.433594 L 179.191406 70.410156 L 182.964844 70.148438 L 186.46875 70.144531 L 189.433594 70.90625 L 192.128906 71.925781 L 195.367188 73.457031 L 190.921875 80.867188 L 183.941406 84.574219 L 185.082031 85.726562 L 186.21875 86.878906 L 193.523438 83.019531 L 198.707031 74.695312 L 208.316406 80.597656 L 218.5625 85.953125 L 224.5 90.542969 L 233.136719 97.285156 L 236.644531 100.347656 L 237.996094 103.414062 L 238.539062 106.480469 L 238.542969 109.804688 L 236.9375 118.242188 L 234.519531 122.332031 L 231.5625 128.726562 L 227.796875 133.84375 L 215.386719 148.414062 L 196.285156 120.207031 L 170.761719 99.894531 L 169.722656 93.121094 L 169.515625 93.144531 L 168.972656 87.546875 L 165.929688 87.8125 L 163.042969 88.066406 L 163.589844 92.152344 L 163.050781 93.175781 L 162.242188 93.691406 L 148.769531 94.984375 L 146.613281 94.988281 L 145.800781 94.476562 L 145.53125 93.710938 L 146.335938 89.621094 L 147.140625 87.828125 L 148.21875 86.804688 L 154.414062 84.753906 L 158.1875 84.492188 L 161.691406 83.976562 L 164.921875 82.183594 L 167.34375 79.878906 L 172.726562 74.25 Z M 176.226562 71.433594 "/>
<path style=" stroke:none;fill-rule:nonzero;fill:rgb(39.99939%,39.99939%,39.99939%);fill-opacity:0.3;" d="M 306.5625 117.167969 L 306.609375 149.796875 L 306.167969 150.496094 L 304.839844 151.476562 L 276.179688 166.726562 L 245.78125 181.332031 L 240.070312 184.863281 L 229.410156 169.125 L 266.964844 145.335938 L 269.390625 143.402344 L 272.042969 139.339844 L 273.511719 135.835938 L 274.835938 131.632812 L 276.304688 127.289062 L 277.484375 125.1875 L 282.195312 116.5 L 287.503906 110.050781 L 291.488281 108.367188 L 296.804688 108.078125 L 301.53125 109.054688 L 303.597656 110.589844 L 305.375 112.828125 L 306.410156 115.628906 Z M 306.5625 117.167969 "/>
<path style=" stroke:none;fill-rule:nonzero;fill:rgb(39.99939%,39.99939%,39.99939%);fill-opacity:0.3;" d="M 163.875 65.144531 L 146.835938 78.855469 L 145.304688 78.648438 L 142.679688 76.164062 L 139.863281 75.476562 L 134.410156 60.835938 L 149.433594 61.015625 L 156.214844 61.628906 L 163.214844 64.109375 Z M 163.875 65.144531 "/>
<path style=" stroke:none;fill-rule:nonzero;fill:rgb(39.99939%,39.99939%,39.99939%);fill-opacity:0.3;" d="M 173.15625 68.394531 L 162.648438 79.066406 L 160.019531 80.65625 L 156.832031 81.34375 L 153.964844 82.402344 L 151.734375 83.085938 L 146.847656 86.113281 L 145.753906 86.113281 L 145.53125 81.761719 L 165.554688 65.5625 L 167.203125 65.246094 Z M 173.15625 68.394531 "/>
<path style=" stroke:none;fill-rule:nonzero;fill:rgb(39.99939%,39.99939%,39.99939%);fill-opacity:0.3;" d="M 203.207031 65.867188 L 204.894531 62.960938 L 212.101562 65.351562 L 214.113281 68.464844 L 215.027344 68.050781 L 215.9375 67.632812 L 213.109375 63.070312 L 205.523438 60.683594 L 212.472656 59.835938 L 212.847656 58.515625 L 215.058594 47.175781 L 233.695312 51.179688 L 247.335938 52.777344 L 258.589844 54.058594 L 266.433594 54.371094 L 272.230469 55.011719 L 288.101562 55.773438 L 295.601562 56.175781 L 310.925781 56.980469 L 312.339844 57.1875 L 312.558594 57.90625 L 313.179688 63.152344 L 312.964844 63.65625 L 311.589844 64.296875 L 301.8125 66.269531 L 297.355469 66.789062 L 292.574219 67.414062 L 282.808594 67.464844 L 280.511719 67.324219 L 276.378906 66.710938 L 271.054688 65.792969 L 266.597656 64.148438 L 264.203125 62.8125 L 261.375 61.679688 L 256.703125 60.964844 L 248.332031 60.871094 L 234.101562 60.644531 L 229.035156 60.46875 L 229.035156 61.390625 L 232.933594 61.941406 L 240.929688 62.855469 L 248.53125 62.660156 L 252.816406 62.285156 L 256.328125 62.464844 L 259.640625 63.203125 L 261.789062 64.492188 L 264.519531 66.152344 L 268.808594 67.441406 L 272.125 68.175781 L 278.382812 68.457031 L 280.535156 68.769531 L 281.1875 69.179688 L 280.929688 73.203125 L 279.929688 73.527344 L 278.757812 73.714844 L 268.039062 73.542969 L 259.457031 73.339844 L 252.246094 72.824219 L 235.285156 69.886719 L 235.089844 70.441406 L 234.898438 70.996094 L 246.011719 73.570312 L 252.640625 74.300781 L 257.121094 74.296875 L 266.480469 74.652344 L 280.515625 75.191406 L 281.496094 79.996094 L 280.71875 80.921875 L 277.402344 80.742188 L 274.089844 80.191406 L 270.582031 79.824219 L 266.679688 79.644531 L 265.121094 80.015625 L 265.402344 81.164062 L 265.710938 82.417969 L 268.828125 82.046875 L 271.558594 82.042969 L 279.160156 82.773438 L 281.304688 83.140625 L 282.578125 84.398438 L 283.625 85.636719 L 284.148438 86.875 L 284.433594 88.3125 L 283.460938 89.605469 L 280.730469 90.347656 L 277.027344 90.355469 L 271.957031 89.988281 L 265.332031 89.257812 L 255.195312 88.902344 L 249.929688 88.539062 L 245.445312 87.804688 L 239.398438 85.222656 L 204.480469 66.414062 Z M 203.207031 65.867188 "/>
<path style=" stroke:none;fill-rule:nonzero;fill:rgb(39.99939%,39.99939%,39.99939%);fill-opacity:0.3;" d="M 237.9375 -5.390625 L 238.640625 -5.210938 L 239.347656 -5.027344 L 240.878906 -12.453125 L 242.285156 -12.214844 L 244.980469 -11 L 247.039062 -9.175781 L 246.78125 -8.203125 L 244.601562 -7.957031 L 243.832031 -7.46875 L 243.449219 -6.617188 L 243.457031 -0.53125 L 244.164062 -0.472656 L 244.867188 -0.414062 L 244.863281 -5.523438 L 245.375 -6.375 L 247.554688 -7.230469 L 248.835938 -7.230469 L 252.691406 -5.414062 L 256.414062 -3.714844 L 257.441406 -2.863281 L 257.699219 -1.769531 L 256.695312 12.347656 L 258.363281 12.347656 L 259.238281 -1.527344 L 259.792969 -3.054688 L 260.054688 -5.390625 L 260.628906 -17.957031 L 260.972656 -18.441406 L 295.964844 -16.390625 L 297.785156 -15.835938 L 299.488281 -12.722656 L 301.253906 -9.617188 L 302.925781 -3.652344 L 304.015625 2.222656 L 304.3125 7.410156 L 304.511719 10.988281 L 304.097656 14.816406 L 303.179688 21.75 L 303.84375 30.527344 L 306.539062 36.332031 L 309.652344 45.191406 L 310.527344 48.074219 L 310.078125 50.539062 L 308.527344 53.367188 L 304.050781 53.609375 L 301.035156 53.820312 L 296.941406 53.824219 L 259.234375 50.808594 L 236.394531 47.980469 L 226.695312 46.152344 L 198.886719 39.539062 L 195.226562 37.410156 L 193.492188 30.464844 L 191.980469 26.382812 L 190.683594 24.542969 L 189.820312 22.707031 L 189.386719 20.664062 L 189.773438 -7.53125 L 190.636719 -8.144531 L 200.328125 -8.019531 L 200.214844 0.253906 L 201.496094 0.3125 L 202.78125 0.375 L 203.152344 -7.902344 L 219.582031 -7.558594 L 223.578125 4.847656 L 225.632812 4.238281 L 222.152344 -4.882812 L 222.277344 -7.441406 L 222.917969 -7.929688 L 226.382812 -9.269531 L 230.742188 -10.371094 L 238.3125 -12.328125 L 238.699219 -11.476562 Z M 237.9375 -5.390625 "/>
<path style=" stroke:none;fill-rule:nonzero;fill:rgb(39.99939%,39.99939%,39.99939%);fill-opacity:0.3;" d="M 212.089844 46.539062 L 209.941406 57.921875 L 207.035156 58.164062 L 203.5 58.527344 L 196.546875 55.300781 L 195.789062 56.738281 L 195.035156 58.179688 L 202.492188 61.285156 L 200.46875 64.699219 L 192.296875 61.203125 L 188.007812 60.839844 L 181.964844 60.664062 L 173.773438 59.195312 L 164.804688 55.878906 L 157.003906 53.117188 L 151.738281 52.382812 L 135.46875 50.367188 L 130.367188 49.980469 L 124.726562 34.839844 L 128.289062 34.773438 L 132.382812 35.507812 L 136.800781 36.800781 L 140.21875 38.417969 L 147.78125 39.484375 L 155.605469 40.824219 L 155.613281 46.347656 L 156.753906 46.371094 L 157.898438 46.390625 L 158.605469 32.753906 L 157.347656 32.671875 L 156.023438 32.585938 L 155.6875 38.648438 L 147.855469 37.605469 L 140.597656 36.503906 L 137.550781 35.101562 L 135.574219 34.382812 L 132.757812 33.625 L 128.429688 32.984375 L 124.027344 32.960938 L 113.023438 3.410156 L 129.804688 1.316406 L 134.167969 0.378906 L 137.207031 -0.359375 L 156.113281 -2.785156 L 167.613281 -3.722656 L 172.289062 -4.839844 L 175.992188 -5.953125 L 178.328125 -7.25 L 184.757812 -9.105469 L 186.316406 -8.921875 L 186.257812 22.457031 L 187.285156 24.722656 L 188.992188 26.660156 L 190.359375 30.214844 L 191.390625 36.679688 L 192.078125 39.265625 L 194.125 41.851562 L 197.878906 43.785156 L 206.75 45.390625 Z M 212.089844 46.539062 "/>
<path style=" stroke:none;fill-rule:nonzero;fill:rgb(39.99939%,39.99939%,39.99939%);fill-opacity:0.3;" d="M 135.386719 -2.796875 L 133.300781 -2.472656 L 121.492188 -0.898438 L 117.59375 -0.347656 L 116.402344 0.0664062 L 115.296875 0.394531 L 114.136719 0.671875 L 113.382812 0.578125 L 113.304688 0.390625 L 113.3125 0.214844 Z M 135.386719 -2.796875 "/>
<path style=" stroke:none;fill-rule:nonzero;fill:rgb(39.99939%,39.99939%,39.99939%);fill-opacity:0.3;" d="M 314.605469 86.023438 L 291.535156 85.792969 L 286.046875 83.582031 L 283.789062 80.019531 L 284.65625 71.195312 L 294.925781 71.183594 L 306.796875 70.519531 L 315.097656 68.730469 L 315.3125 68.601562 Z M 314.605469 86.023438 "/>
<path style=" stroke:none;fill-rule:nonzero;fill:rgb(39.99939%,39.99939%,39.99939%);fill-opacity:0.3;" d="M -21.691406 -26.992188 L -8.410156 -29.699219 L 26.972656 -39.296875 L 31.503906 -40.6875 L 33.6875 -41.792969 L 37.230469 -42.445312 L 43.019531 -42.875 L 47.941406 -42.882812 L 65.148438 -41.886719 L 72.753906 -41.75 L 81.632812 -41.761719 L 86.539062 -42.125 L 87.554688 -40.460938 L 87.867188 -38.246094 L 88.347656 -29.839844 L 87.902344 -16.414062 L 87.179688 -15.523438 L 85.894531 -15.050781 L 67.683594 -15.058594 L 67.6875 -14.078125 L 67.695312 -13.097656 L 84.945312 -12.972656 L 86.347656 -12.535156 L 86.972656 -11.648438 L 87.445312 -7.960938 L 88.070312 -4.421875 L 89.003906 -3.539062 L 95.226562 -3.695312 L 95.851562 -3.398438 L 96.007812 -2.515625 L 96.171875 2.5 L 95.554688 2.890625 L 91.070312 3.53125 L 87.238281 4.089844 L 75.484375 5.183594 L 63.414062 5.9375 L 73.878906 -12.617188 L 61.808594 -12.453125 L 61.8125 -12.867188 L 53.632812 -12.480469 L 53.636719 -12.339844 L -2.6875 -11.574219 L -30.816406 -9.488281 L -28.804688 -11.503906 L -5.105469 -11.804688 L -5.105469 -13.722656 L -26.300781 -14.007812 L -26.128906 -14.179688 Z M -21.691406 -26.992188 "/>
<path style=" stroke:none;fill-rule:nonzero;fill:rgb(39.99939%,39.99939%,39.99939%);fill-opacity:0.3;" d="M 168.363281 -87.050781 L 167.625 -84.734375 L 167.054688 -82.28125 L 166.042969 -80.109375 L 159.425781 -71.722656 L 153.441406 -64.132812 L 150.488281 -59.417969 L 144.402344 -49.175781 L 142.824219 -45.867188 L 139.765625 -39.609375 L 138.574219 -37.488281 L 137.003906 -34.902344 L 134.019531 -31.640625 L 132.917969 -30.328125 L 128.773438 -27.234375 L 122.804688 -22.628906 L 121.960938 -21.507812 L 121.027344 -20.617188 L 119.066406 -19.417969 L 115.460938 -17.238281 L 112.410156 -14.339844 L 109.21875 -10.503906 L 107.730469 -7.3125 L 107.492188 -5.261719 L 107.730469 -4.445312 L 107.054688 -1.335938 L 100.453125 0.488281 L 99.242188 -0.113281 L 98.339844 -16.609375 L 98.511719 -18.445312 L 99.035156 -20.945312 L 100.613281 -24.113281 L 108.851562 -38.289062 L 111.65625 -43.125 L 114.429688 -49.386719 L 125.980469 -73.625 L 127.6875 -76.621094 L 128.34375 -78.996094 L 128.414062 -82.121094 L 141.8125 -80.921875 L 146.894531 -78.597656 L 154.753906 -73.101562 L 152.164062 -68.113281 L 152.921875 -67.664062 L 153.679688 -67.210938 L 156.585938 -72.535156 L 156.839844 -72.773438 L 157.539062 -73.4375 L 161.066406 -77.429688 L 160.390625 -77.960938 L 159.71875 -78.492188 L 156.25 -74.5 L 154.003906 -75.960938 L 158.980469 -81.808594 L 158.203125 -82.394531 L 157.425781 -82.976562 L 152.40625 -77.082031 L 147.921875 -80.21875 L 142.355469 -82.765625 L 128.160156 -84.035156 L 127.542969 -85.488281 L 124.6875 -90.039062 L 121.539062 -94.535156 L 133.296875 -98.515625 L 131.898438 -101.742188 L 118.902344 -98.625 L 115.414062 -102.65625 L 113.859375 -105.773438 L 113.65625 -114.027344 L 117.371094 -115.121094 L 121.429688 -115.210938 L 123.773438 -115.84375 L 129.988281 -120.328125 L 132.027344 -120.941406 L 139.324219 -121.257812 L 139.265625 -122.9375 L 139.210938 -124.613281 L 130.519531 -124.398438 L 127.394531 -132.332031 L 125.894531 -131.820312 L 124.394531 -131.3125 L 127.625 -123.378906 L 127.410156 -122.765625 L 126.125 -121.339844 L 123.039062 -119.207031 L 119.796875 -118.078125 L 117.222656 -117.5625 L 112.023438 -117.191406 L 108.316406 -132.324219 L 108.929688 -132.667969 L 114.304688 -133.128906 L 122.238281 -136.601562 L 136.613281 -138.609375 L 138.027344 -137.371094 L 141.570312 -128.097656 L 148.949219 -117.015625 L 155.503906 -116.832031 L 164.074219 -116.367188 L 170.730469 -117.140625 L 171.136719 -114.75 L 172.367188 -102.976562 L 172.367188 -101.289062 L 171.820312 -97.867188 L 168.949219 -88.882812 L 165.242188 -89.136719 L 163.359375 -90.324219 L 160.589844 -96.507812 L 159.824219 -103.882812 L 158.0625 -106.140625 L 154.046875 -107.800781 L 153.484375 -106.910156 L 152.917969 -106.015625 L 156.433594 -104.59375 L 157.691406 -102.808594 L 157.953125 -96.742188 L 160.21875 -90.914062 L 161.980469 -88.65625 L 164.242188 -87.46875 Z M 168.363281 -87.050781 "/>
<path style=" stroke:none;fill-rule:nonzero;fill:rgb(39.99939%,39.99939%,39.99939%);fill-opacity:0.3;" d="M 113.363281 -0.636719 L 116.53125 -3.0625 L 119.191406 -4.332031 L 121.1875 -5.28125 L 124.511719 -6.863281 L 128.503906 -9.234375 L 137.660156 -14.691406 L 143.253906 -17.816406 L 150.160156 -21.101562 L 156.90625 -24.074219 L 162.003906 -26.109375 L 165.785156 -28.765625 L 170.0625 -30.332031 L 174.339844 -32.210938 L 182.894531 -35.808594 L 190.296875 -39.71875 L 195.351562 -42.464844 L 198.722656 -43.777344 L 202.199219 -46.191406 L 204.738281 -47.589844 L 207.816406 -49.242188 L 222.296875 -51.8125 L 230.136719 -53.160156 L 232.90625 -53.558594 L 234.382812 -53.503906 L 235.503906 -52.832031 L 236.570312 -51.828125 L 238.046875 -50.710938 L 240.820312 -48.753906 L 242.59375 -48.140625 L 243.832031 -47.863281 L 246.960938 -47.476562 L 251.445312 -47.144531 L 252.980469 -46.757812 L 254.21875 -46.199219 L 254.871094 -45.472656 L 255.226562 -44.578125 L 255.40625 -43.402344 L 255.890625 -33.441406 L 255.421875 -32.769531 L 254.3125 -32.519531 L 253.1875 -32.519531 L 242.175781 -32.789062 L 238.878906 -32.640625 L 236.105469 -32.351562 L 215.957031 -28.988281 L 214.085938 -28.558594 L 211.746094 -27.984375 L 208.808594 -27.171875 L 206.25 -26.089844 L 204.449219 -24.828125 L 180.007812 -10.949219 L 177.925781 -9.777344 L 176.125 -9.054688 L 173.375 -8.242188 L 169.492188 -7.609375 L 163.519531 -6.882812 L 160.300781 -6.640625 L 135.386719 -2.796875 L 113.3125 0.214844 Z M 113.363281 -0.636719 "/>
<g clip-path="url(#clip2)" clip-rule="nonzero">
<path style=" stroke:none;fill-rule:nonzero;fill:rgb(39.99939%,39.99939%,39.99939%);fill-opacity:0.3;" d="M 462.492188 62.589844 L 508.925781 53.003906 L 533.105469 50.34375 L 579.671875 41.753906 L 643.753906 25.125 L 656.917969 22.824219 L 662.992188 41.554688 L 645.28125 44.679688 L 618.71875 48.328125 L 605.695312 47.804688 L 598.925781 46.765625 L 577.046875 53.535156 L 529.117188 65.519531 L 526.441406 60.566406 L 523.863281 55.792969 L 517.714844 56.796875 L 519.59375 61.449219 L 469.21875 74.839844 L 474.0625 85.269531 L 479.644531 103.019531 L 488.5 132.710938 L 531.136719 118.644531 L 490.050781 133.550781 L 490.871094 135.582031 L 491.59375 137.378906 L 558.707031 113.855469 L 572.949219 169.320312 L 527.707031 184.679688 L 510.949219 189.394531 L 461.816406 200.765625 L 410.121094 212.730469 L 313.53125 233.78125 L 316.390625 108.695312 L 338.90625 107.21875 L 342.722656 106.488281 L 397.457031 81.539062 L 449.035156 65.753906 Z M 462.492188 62.589844 "/>
</g>
<g clip-path="url(#clip3)" clip-rule="nonzero">
<path style=" stroke:none;fill-rule:nonzero;fill:rgb(39.99939%,39.99939%,39.99939%);fill-opacity:0.3;" d="M 461.816406 55.652344 L 446.0625 57.542969 L 425.199219 59.667969 L 405.492188 67.175781 L 377.144531 73.089844 L 330.933594 86.1875 L 314.605469 86.023438 L 315.3125 68.601562 L 317.179688 67.480469 L 318.164062 66.125 L 318.007812 64.867188 L 316.328125 49.253906 L 333.71875 42.664062 L 341.082031 60.488281 L 343.765625 64.8125 L 348.335938 67.644531 L 357.863281 69.867188 L 358.269531 67.007812 L 350 64.957031 L 345.015625 59.289062 L 337.335938 41.5 L 342.871094 39.453125 L 341.785156 37.078125 L 314.824219 45.847656 L 311.914062 36.570312 L 327.183594 24.109375 L 329.019531 28.375 L 330.835938 28.050781 L 332.074219 27.828125 L 328.40625 20.363281 L 311.324219 33.582031 L 308.335938 26.542969 L 307.777344 16.933594 L 307.226562 9.65625 L 307.222656 4.835938 L 313 5.390625 L 320.582031 5.480469 L 329.230469 4.808594 L 337.851562 3.007812 L 343.359375 1.152344 L 346.585938 -0.328125 L 348.667969 -1.628906 L 349.605469 3.179688 L 351.054688 3 L 352.503906 2.824219 L 351.34375 -4.796875 L 347.652344 -4.292969 L 345.175781 -3.003906 L 341.84375 -1.550781 L 336.699219 0.234375 L 328.78125 1.769531 L 320.402344 2.433594 L 312.726562 2.324219 L 307.472656 1.601562 L 298.265625 -33.183594 L 380.230469 -49.433594 L 428.777344 -48.546875 L 427.078125 -40.640625 L 427.699219 -38.375 L 439.253906 -22.804688 L 439.820312 -21.417969 L 439.84375 -19.898438 L 438.652344 -18.859375 L 400.972656 -14.328125 L 398.640625 -12.5 L 396.976562 -9.578125 L 397.890625 -9.144531 L 398.945312 -8.640625 L 400.496094 -11.257812 L 402.230469 -12.140625 L 435.382812 -15.089844 L 436.574219 -14.152344 L 436.679688 -12.078125 L 432.632812 -7.15625 L 431.859375 -5.589844 L 432.140625 -4.234375 L 436.015625 0.183594 L 444.867188 11.378906 L 445.953125 10.511719 L 446.890625 9.765625 L 438.09375 -5.46875 L 437.792969 -6.878906 L 441.820312 -20.128906 L 441.816406 -22.011719 L 441.417969 -23.140625 L 428.890625 -39.035156 L 428.488281 -40.542969 L 430.394531 -48.25 L 461.816406 -42.644531 L 487.875 -37.996094 L 506.550781 -36.835938 L 531.25 -41.472656 L 534.710938 -16.292969 L 532.40625 -13.023438 L 527.867188 -9.75 L 517.363281 -7.65625 L 508.742188 -7.347656 L 508.578125 -13.589844 L 506.816406 -13.503906 L 505.441406 -13.4375 L 504.984375 -5.265625 L 504.832031 -1.699219 L 517.683594 -4.089844 L 529.75 -6.78125 L 535.546875 -9.757812 L 538.207031 -12.585938 L 539.613281 -15.855469 L 537.246094 -27.445312 L 536.132812 -41.261719 L 605.660156 -48.367188 L 612.808594 -34.28125 L 613.492188 -31.707031 L 613.398438 -29.039062 L 611.75 -27.015625 L 583.328125 -12.460938 L 558.515625 -1.121094 L 530.949219 9.160156 L 511.507812 10.242188 L 511.460938 11.695312 L 511.457031 11.929688 L 511.402344 13.566406 L 515.882812 13.34375 L 519.691406 22.277344 L 520.675781 22.183594 L 520.894531 22.164062 L 522.101562 22.054688 L 517.722656 13.011719 L 531.28125 12.015625 L 560.855469 0.753906 L 568.457031 14.40625 L 560.632812 18.699219 L 567.050781 32.363281 L 517.632812 43.027344 L 517.625 44.777344 Z M 461.816406 55.652344 "/>
</g>
<path style="fill-rule:nonzero;fill:rgb(39.99939%,39.99939%,39.99939%);fill-opacity:1;stroke-width:0.03;stroke-linecap:square;stroke-linejoin:miter;stroke:rgb(39.99939%,39.99939%,39.99939%);stroke-opacity:1;stroke-miterlimit:3.239307;" d="M 289.386719 161.414062 L 275.425781 177.804688 L 270.582031 183.945312 L 264.121094 190.085938 L 262.777344 192.132812 L 261.433594 194.691406 L 259.546875 196.484375 L 240.152344 204.941406 L 224.457031 209.679688 L 219.339844 210.195312 L 212.871094 210.203125 L 206.402344 210.722656 L 197.507812 210.480469 L 193.191406 209.207031 L 189.957031 208.1875 L 186.453125 207.425781 L 181.871094 207.175781 L 177.019531 207.179688 L 169.203125 207.703125 L 157.613281 208.226562 L 150.066406 206.960938 L 146.289062 205.6875 L 140.628906 205.183594 L 130.386719 204.941406 L 129.25 204.941406 L 128.105469 167.214844 L 131.820312 166.910156 L 137.714844 166.1875 L 142.449219 165.519531 L 157.253906 164.460938 L 180.695312 162.378906 L 196.84375 160.816406 L 219.761719 159.253906 L 232.78125 154.5625 L 248.410156 148.835938 L 270.285156 133.207031 Z M 289.386719 161.414062 " transform="matrix(1,0,0,1,-74,-13)"/>
<path style="fill-rule:nonzero;fill:rgb(39.99939%,39.99939%,39.99939%);fill-opacity:1;stroke-width:0.03;stroke-linecap:square;stroke-linejoin:miter;stroke:rgb(39.99939%,39.99939%,39.99939%);stroke-opacity:1;stroke-miterlimit:3.239307;" d="M 314.070312 197.863281 L 306.199219 202.734375 L 289.1875 212.585938 L 272.761719 222.066406 L 256.757812 232.84375 L 254.3125 234.414062 L 253.582031 236.097656 L 252.546875 240.277344 L 252.179688 264.425781 L 252.1875 267.226562 L 252.039062 267.925781 L 251.449219 268.484375 L 250.417969 268.90625 L 248.203125 269.050781 L 245.394531 269.054688 L 125.480469 267.609375 L 125.480469 267.59375 L 127.675781 241.527344 L 130.09375 241.488281 L 130.125 240.65625 L 130.152344 239.824219 L 127.824219 239.777344 L 129.648438 218.113281 L 129.59375 216.269531 L 130 216.417969 L 135.667969 218.089844 L 140.980469 219.089844 L 148.417969 219.414062 L 158.691406 219.066406 L 168.25 217.710938 L 214.460938 216.28125 L 223.9375 215.949219 L 229.351562 214.335938 L 236.796875 213.042969 L 243.566406 213.035156 L 250.671875 213.023438 L 256.160156 212.058594 L 303.410156 182.125 Z M 314.070312 197.863281 " transform="matrix(1,0,0,1,-74,-13)"/>
<path style="fill-rule:nonzero;fill:rgb(39.99939%,39.99939%,39.99939%);fill-opacity:1;stroke-width:0.03;stroke-linecap:square;stroke-linejoin:miter;stroke:rgb(39.99939%,39.99939%,39.99939%);stroke-opacity:1;stroke-miterlimit:3.239307;" d="M 287.746094 266.964844 L 271.894531 268.203125 L 263.4375 267.859375 L 258.535156 266.65625 L 257.527344 266.214844 L 256.65625 265.707031 L 256.117188 263.796875 L 255.917969 249.582031 L 322.554688 234.714844 L 328.730469 260.433594 Z M 287.746094 266.964844 " transform="matrix(1,0,0,1,-74,-13)"/>
<path style="fill-rule:nonzero;fill:rgb(39.99939%,39.99939%,39.99939%);fill-opacity:1;stroke-width:0.03;stroke-linecap:square;stroke-linejoin:miter;stroke:rgb(39.99939%,39.99939%,39.99939%);stroke-opacity:1;stroke-miterlimit:3.239307;" d="M 257.328125 245.453125 L 257.519531 238.777344 L 259.667969 235.621094 L 263.1875 233.023438 L 300.730469 212.015625 L 315.078125 206.542969 L 321.074219 231.097656 Z M 257.328125 245.453125 " transform="matrix(1,0,0,1,-74,-13)"/>
<path style="fill-rule:nonzero;fill:rgb(39.99939%,39.99939%,39.99939%);fill-opacity:1;stroke-width:0.03;stroke-linecap:square;stroke-linejoin:miter;stroke:rgb(39.99939%,39.99939%,39.99939%);stroke-opacity:1;stroke-miterlimit:3.239307;" d="M 125.429688 318.773438 L 125.679688 269.980469 L 179.128906 270.855469 L 209.417969 271.800781 L 234.257812 273.082031 L 245.414062 273.808594 L 251.285156 275.101562 L 255.125 294.84375 L 226.890625 300.832031 L 196.070312 307.527344 L 130.691406 321.570312 Z M 125.429688 318.773438 " transform="matrix(1,0,0,1,-74,-13)"/>
<path style="fill-rule:nonzero;fill:rgb(39.99939%,39.99939%,39.99939%);fill-opacity:1;stroke-width:0.03;stroke-linecap:square;stroke-linejoin:miter;stroke:rgb(39.99939%,39.99939%,39.99939%);stroke-opacity:1;stroke-miterlimit:3.239307;" d="M 332.582031 260.03125 L 326.472656 233.558594 L 380.335938 222.359375 L 379.445312 248.722656 Z M 332.582031 260.03125 " transform="matrix(1,0,0,1,-74,-13)"/>
<path style="fill-rule:nonzero;fill:rgb(39.99939%,39.99939%,39.99939%);fill-opacity:1;stroke-width:0.03;stroke-linecap:square;stroke-linejoin:miter;stroke:rgb(39.99939%,39.99939%,39.99939%);stroke-opacity:1;stroke-miterlimit:3.239307;" d="M 327.152344 197.390625 L 382.570312 168.8125 L 382.148438 188.820312 L 329.53125 199.464844 Z M 327.152344 197.390625 " transform="matrix(1,0,0,1,-74,-13)"/>
<path style="fill-rule:nonzero;fill:rgb(39.99939%,39.99939%,39.99939%);fill-opacity:1;stroke-width:0.03;stroke-linecap:square;stroke-linejoin:miter;stroke:rgb(39.99939%,39.99939%,39.99939%);stroke-opacity:1;stroke-miterlimit:3.239307;" d="M 325.871094 231.078125 L 319.460938 204.8125 L 382.109375 192.21875 L 379.863281 219.699219 Z M 325.871094 231.078125 " transform="matrix(1,0,0,1,-74,-13)"/>
<path style=" stroke:none;fill-rule:evenodd;fill:rgb(85.096741%,85.096741%,81.959534%);fill-opacity:0.7;" d="M 159.835938 260 C 159.835938 254.472656 157.640625 249.175781 153.734375 245.265625 C 149.824219 241.359375 144.527344 239.164062 139 239.164062 C 133.472656 239.164062 128.175781 241.359375 124.265625 245.265625 C 120.359375 249.175781 118.164062 254.472656 118.164062 260 C 118.164062 265.527344 120.359375 270.824219 124.265625 274.734375 C 128.175781 278.640625 133.472656 280.835938 139 280.835938 C 144.527344 280.835938 149.824219 278.640625 153.734375 274.734375 C 157.640625 270.824219 159.835938 265.527344 159.835938 260 Z M 159.835938 260 "/>
<path style="fill-rule:nonzero;fill:rgb(99.998474%,99.998474%,30.587769%);fill-opacity:0.8;stroke-width:0.288;stroke-linecap:square;stroke-linejoin:miter;stroke:rgb(0%,0%,0%);stroke-opacity:0.8;stroke-miterlimit:3.25;" d="M 172.359375 209.257812 L 127.25 287.386719 L 217.46875 287.386719 Z M 172.359375 209.257812 " transform="matrix(1,0,0,1,-74,-13)"/>
</g>
</svg>
