<?xml version="1.0" encoding="UTF-8"?>
<svg xmlns="http://www.w3.org/2000/svg" xmlns:xlink="http://www.w3.org/1999/xlink" width="361pt" height="361pt" viewBox="0 0 361 361" version="1.1">
<defs>
<clipPath id="clip1">
  <path d="M 309 292 L 360 292 L 360 360 L 309 360 Z M 309 292 "/>
</clipPath>
<clipPath id="clip2">
  <path d="M 331 230 L 360 230 L 360 310 L 331 310 Z M 331 230 "/>
</clipPath>
<clipPath id="clip3">
  <path d="M 355 169 L 360 169 L 360 250 L 355 250 Z M 355 169 "/>
</clipPath>
<clipPath id="clip4">
  <path d="M 316 0 L 360 0 L 360 165 L 316 165 Z M 316 0 "/>
</clipPath>
<clipPath id="clip5">
  <path d="M 291 146 L 360 146 L 360 226 L 291 226 Z M 291 146 "/>
</clipPath>
<clipPath id="clip6">
  <path d="M 320 0 L 360 0 L 360 35 L 320 35 Z M 320 0 "/>
</clipPath>
<clipPath id="clip7">
  <path d="M 0 356 L 149 356 L 149 360 L 0 360 Z M 0 356 "/>
</clipPath>
<clipPath id="clip8">
  <path d="M 10 266 L 138 266 L 138 360 L 10 360 Z M 10 266 "/>
</clipPath>
<clipPath id="clip9">
  <path d="M 155 321 L 239 321 L 239 360 L 155 360 Z M 155 321 "/>
</clipPath>
<clipPath id="clip10">
  <path d="M 105 298 L 191 298 L 191 360 L 105 360 Z M 105 298 "/>
</clipPath>
<clipPath id="clip11">
  <path d="M 209 333 L 360 333 L 360 360 L 209 360 Z M 209 333 "/>
</clipPath>
<clipPath id="clip12">
  <path d="M 0 315 L 5 315 L 5 360 L 0 360 Z M 0 315 "/>
</clipPath>
</defs>
<g id="surface1036">
<path style="fill-rule:nonzero;fill:rgb(0%,0%,0%);fill-opacity:1;stroke-width:0.03;stroke-linecap:square;stroke-linejoin:miter;stroke:rgb(0%,0%,0%);stroke-opacity:1;stroke-miterlimit:10;" d="M 0 178 L 360 178 L 360 -182 L 0 -182 Z M 0 178 " transform="matrix(1,0,0,1,0,182)"/>
<path style=" stroke:none;fill-rule:nonzero;fill:rgb(39.99939%,39.99939%,39.99939%);fill-opacity:0.3;" d="M 308.570312 143.53125 L 310.765625 144.335938 L 304.699219 159.574219 Z M 308.570312 143.53125 "/>
<path style=" stroke:none;fill-rule:nonzero;fill:rgb(39.99939%,39.99939%,39.99939%);fill-opacity:0.3;" d="M 326.753906 291.886719 L 306.097656 345.402344 L 245.136719 324.441406 L 266.304688 268.972656 Z M 326.753906 291.886719 "/>
<path style=" stroke:none;fill-rule:nonzero;fill:rgb(39.99939%,39.99939%,39.99939%);fill-opacity:0.3;" d="M 261.757812 267.394531 L 240.019531 322.121094 L 206.480469 310.378906 L 229.359375 255.726562 Z M 261.757812 267.394531 "/>
<path style=" stroke:none;fill-rule:nonzero;fill:rgb(39.99939%,39.99939%,39.99939%);fill-opacity:0.3;" d="M 286.03125 206.84375 L 263.351562 263.597656 L 230.9375 251.734375 L 254.109375 195.585938 Z M 286.03125 206.84375 "/>
<path style=" stroke:none;fill-rule:nonzero;fill:rgb(39.99939%,39.99939%,39.99939%);fill-opacity:0.3;" d="M 350.578125 229.703125 L 328.304688 287.648438 L 267.488281 264.90625 L 290.304688 208.292969 Z M 350.578125 229.703125 "/>
<g clip-path="url(#clip1)" clip-rule="nonzero">
<path style=" stroke:none;fill-rule:nonzero;fill:rgb(39.99939%,39.99939%,39.99939%);fill-opacity:0.3;" d="M 391 313.53125 L 370.457031 368.023438 L 309.703125 346.621094 L 330.449219 292.992188 Z M 391 313.53125 "/>
</g>
<g clip-path="url(#clip2)" clip-rule="nonzero">
<path style=" stroke:none;fill-rule:nonzero;fill:rgb(39.99939%,39.99939%,39.99939%);fill-opacity:0.3;" d="M 414.628906 253.054688 L 392.316406 309.757812 L 331.804688 289.117188 L 354.480469 230.871094 Z M 414.628906 253.054688 "/>
</g>
<g clip-path="url(#clip3)" clip-rule="nonzero">
<path style=" stroke:none;fill-rule:nonzero;fill:rgb(39.99939%,39.99939%,39.99939%);fill-opacity:0.3;" d="M 440.144531 189.667969 L 415.738281 249.125 L 355.992188 226.980469 L 378.558594 169.222656 Z M 440.144531 189.667969 "/>
</g>
<g clip-path="url(#clip4)" clip-rule="nonzero">
<path style=" stroke:none;fill-rule:nonzero;fill:rgb(39.99939%,39.99939%,39.99939%);fill-opacity:0.3;" d="M 441.359375 -16.054688 L 438.226562 -15.3125 L 438.210938 -13.625 L 421.816406 -14.25 L 420.542969 -10.621094 L 420.261719 -6.40625 L 425.1875 -1.371094 L 429.746094 -0.0078125 L 436.554688 0.75 L 408.894531 82.230469 L 393.996094 75.9375 L 421.421875 -1.84375 L 419.59375 -2.347656 L 417.765625 -2.855469 L 416 2.65625 L 389.515625 -3.570312 L 366.332031 60.832031 L 363.96875 68.9375 L 366.730469 81.144531 L 368.304688 86.949219 L 367.3125 96.476562 L 361.496094 112.78125 L 366.738281 114.257812 L 388.394531 122.003906 L 390.230469 117.714844 L 394 118.820312 L 376.074219 164.328125 L 316.730469 143.101562 L 338.238281 89.007812 L 359.75 34.910156 L 381.257812 -19.183594 L 418.324219 -19.523438 L 421.804688 -23.734375 L 426.875 -23.738281 L 435.945312 -24.675781 L 441.738281 -25.976562 Z M 441.359375 -16.054688 "/>
</g>
<g clip-path="url(#clip5)" clip-rule="nonzero">
<path style=" stroke:none;fill-rule:nonzero;fill:rgb(39.99939%,39.99939%,39.99939%);fill-opacity:0.3;" d="M 315.347656 146.007812 L 374.894531 167.429688 L 352.007812 225.625 L 291.933594 203.808594 Z M 315.347656 146.007812 "/>
</g>
<path style=" stroke:none;fill-rule:nonzero;fill:rgb(39.99939%,39.99939%,39.99939%);fill-opacity:0.3;" d="M 348.042969 49.957031 L 312.390625 141.234375 L 309.589844 140.207031 L 339.792969 68.707031 Z M 348.042969 49.957031 "/>
<path style=" stroke:none;fill-rule:nonzero;fill:rgb(39.99939%,39.99939%,39.99939%);fill-opacity:0.3;" d="M 146.964844 84.128906 L 274.617188 131.050781 L 308.570312 143.53125 L 304.699219 159.574219 L 287.367188 203.113281 L 253.367188 190.476562 L 248.101562 188.519531 L 251.957031 177.074219 L 252.007812 176.457031 L 251.609375 175.9375 L 250.757812 175.796875 L 165.476562 181.546875 L 170.707031 163.179688 L 169.945312 162.972656 L 169.242188 162.78125 L 163.832031 181.574219 L 114.511719 185.214844 L 131.328125 142.273438 L 129.835938 141.9375 L 128.347656 141.601562 L 111.640625 185.234375 L 103.335938 186.761719 L 96.480469 187.878906 L 90.015625 188.816406 L 85.839844 189.839844 L 82.382812 191.144531 L 80.238281 192.675781 L 77.714844 195.652344 L 76.71875 197.679688 L 92.25 160.207031 L 104.15625 134.511719 L 112.011719 123.011719 L 116.703125 124.648438 L 107.296875 145.890625 L 107.835938 146.058594 L 108.621094 146.304688 L 118.464844 123.824219 L 112.777344 121.890625 L 138.757812 83.847656 L 138.789062 83.847656 L 146.101562 84.015625 Z M 146.964844 84.128906 "/>
<path style=" stroke:none;fill-rule:nonzero;fill:rgb(39.99939%,39.99939%,39.99939%);fill-opacity:0.3;" d="M 249.675781 178.421875 L 246.253906 188.605469 L 246.828125 189.421875 L 249.894531 190.78125 L 201.050781 308.570312 L 51.429688 254.898438 L 63.421875 229.769531 L 65.214844 225.445312 L 69.992188 215.582031 L 79.003906 197.742188 L 81.796875 194.003906 L 84.367188 192.550781 L 85.796875 191.929688 L 88.71875 191.019531 L 92.789062 190.136719 L 100.089844 189.136719 L 107.746094 188.46875 L 117.484375 187.800781 Z M 249.675781 178.421875 "/>
<path style=" stroke:none;fill-rule:nonzero;fill:rgb(39.99939%,39.99939%,39.99939%);fill-opacity:0.3;" d="M 155.328125 93.640625 L 164.90625 96.960938 L 159.503906 110.292969 L 149.863281 106.816406 Z M 155.328125 93.640625 "/>
<path style=" stroke:none;fill-rule:nonzero;fill:rgb(39.99939%,39.99939%,39.99939%);fill-opacity:0.3;" d="M 151.644531 109.308594 L 161.539062 112.824219 L 156.578125 125.90625 L 146.441406 122.164062 Z M 151.644531 109.308594 "/>
<path style=" stroke:none;fill-rule:nonzero;fill:rgb(39.99939%,39.99939%,39.99939%);fill-opacity:0.3;" d="M 146.316406 123.019531 L 156.207031 126.609375 L 151.160156 139.597656 L 141.191406 135.855469 Z M 146.316406 123.019531 "/>
<path style=" stroke:none;fill-rule:nonzero;fill:rgb(39.99939%,39.99939%,39.99939%);fill-opacity:0.3;" d="M 168.734375 98.230469 L 178.792969 101.941406 L 173.585938 115.132812 L 163.433594 111.59375 Z M 168.734375 98.230469 "/>
<path style=" stroke:none;fill-rule:nonzero;fill:rgb(39.99939%,39.99939%,39.99939%);fill-opacity:0.3;" d="M 165.679688 113.734375 L 175.21875 116.929688 L 170.769531 130.011719 L 160.507812 126.441406 Z M 165.679688 113.734375 "/>
<path style=" stroke:none;fill-rule:nonzero;fill:rgb(39.99939%,39.99939%,39.99939%);fill-opacity:0.3;" d="M 160.402344 127.507812 L 170.53125 131.023438 L 165.5625 144.007812 L 154.957031 140.417969 Z M 160.402344 127.507812 "/>
<path style=" stroke:none;fill-rule:nonzero;fill:rgb(39.99939%,39.99939%,39.99939%);fill-opacity:0.3;" d="M 76.71875 197.679688 L 49.101562 253.980469 L -60.855469 209.402344 L -53.625 188.601562 L -54.367188 188.460938 L -55.132812 188.316406 L -62.332031 208.789062 L -100.800781 194.328125 L -92.847656 174.914062 L -96.769531 171.199219 L -86.910156 145.800781 L -68.773438 152.175781 L -74.761719 166.597656 L -73.859375 167.019531 L -73.007812 167.414062 L -66.613281 152.941406 L -46.367188 160.023438 L -52.027344 174.28125 L -50.96875 174.785156 L -50.109375 175.191406 L -44.277344 160.789062 L -25.515625 167.359375 L -31.183594 182.933594 L -29.207031 183.488281 L -23.894531 167.933594 L 16.53125 182.203125 L 10.734375 199.96875 L 11.417969 200.128906 L 12.105469 200.292969 L 17.882812 182.65625 L 29.761719 186.859375 L 25.617188 202.335938 L 26.382812 202.503906 L 27.25 202.691406 L 31.371094 187.417969 L 43.386719 191.648438 L 39.679688 206.488281 L 40.617188 206.566406 L 41.359375 206.628906 L 44.714844 192.101562 L 53.722656 195.285156 L 85.058594 118.078125 L 88.847656 116.734375 L 93.253906 119.070312 L 94.222656 116.8125 L 112.011719 123.011719 L 104.15625 134.511719 L 92.25 160.207031 Z M 76.71875 197.679688 "/>
<path style=" stroke:none;fill-rule:nonzero;fill:rgb(39.99939%,39.99939%,39.99939%);fill-opacity:0.3;" d="M 112.777344 121.890625 L 94.660156 115.726562 L 102.554688 94.796875 L 97.039062 93.308594 L 100.652344 81.945312 L 110.894531 83.128906 L 123.976562 83.714844 L 138.757812 83.847656 Z M 112.777344 121.890625 "/>
<path style=" stroke:none;fill-rule:nonzero;fill:rgb(39.99939%,39.99939%,39.99939%);fill-opacity:0.3;" d="M 51.429688 254.898438 L 51.019531 254.753906 L 65.214844 225.445312 L 63.421875 229.769531 Z M 51.429688 254.898438 "/>
<path style=" stroke:none;fill-rule:nonzero;fill:rgb(39.99939%,39.99939%,39.99939%);fill-opacity:0.3;" d="M -73.121094 115.382812 L 40.648438 155.738281 L 28.371094 184.03125 L -85.59375 143.382812 Z M -73.121094 115.382812 "/>
<path style=" stroke:none;fill-rule:nonzero;fill:rgb(39.99939%,39.99939%,39.99939%);fill-opacity:0.3;" d="M 71.511719 97.023438 L 88.554688 102.898438 L 51.300781 192.210938 L 33.085938 186.035156 Z M 71.511719 97.023438 "/>
<path style=" stroke:none;fill-rule:nonzero;fill:rgb(39.99939%,39.99939%,39.99939%);fill-opacity:0.3;" d="M -31.433594 96.035156 L -32.847656 95.589844 L -44.199219 121.734375 L -71.429688 112.222656 L -49.0625 64.070312 L -22.578125 73.238281 L -23.792969 73.816406 L -25.121094 75.203125 L -26.199219 76.351562 L -26.835938 77.859375 L -27.277344 79.128906 L -27.339844 81.417969 L -26.957031 83.109375 L -26.574219 84.375 L -25.679688 85.640625 L -24.394531 86.460938 L -23.453125 87.023438 L -21.992188 87.746094 L -19.957031 88.105469 L -18.9375 88.285156 L -17.300781 88.65625 L -15.390625 88.3125 L -14.296875 88.039062 L -12.898438 87.738281 L -11.941406 87.355469 L -10.292969 86.40625 L -8.769531 84.476562 L -8.261719 82.96875 L -7.757812 80.976562 L -7.472656 80.203125 L 18.921875 78.734375 L 18.945312 78.734375 L 71.863281 75.792969 L 97.859375 81.605469 L 91.878906 101.808594 L 68.8125 93.558594 L 42.644531 152.230469 L 20.21875 144.351562 L 31.109375 118.539062 L 28.984375 117.679688 L 17.9375 143.601562 L -1.847656 136.582031 L 7.734375 113.667969 L 6.535156 113.113281 L 5.339844 112.558594 L -4.125 135.78125 L -23.625 128.960938 L -9.433594 97.996094 L -10.8125 97.375 L -12.210938 96.746094 L -26.875 127.855469 L -41.730469 122.65625 L -30.132812 96.445312 Z M -31.433594 96.035156 "/>
<path style=" stroke:none;fill-rule:nonzero;fill:rgb(39.99939%,39.99939%,39.99939%);fill-opacity:0.3;" d="M 0.648438 77.359375 L -10.035156 77.96875 L -11.003906 76.578125 L -11.894531 75.269531 Z M 0.648438 77.359375 "/>
<path style=" stroke:none;fill-rule:nonzero;fill:rgb(39.99939%,39.99939%,39.99939%);fill-opacity:0.3;" d="M 146.695312 84.03125 L 146.964844 84.128906 L 146.101562 84.015625 Z M 146.695312 84.03125 "/>
<path style=" stroke:none;fill-rule:nonzero;fill:rgb(39.99939%,39.99939%,39.99939%);fill-opacity:0.3;" d="M 77.191406 25.292969 L 96.359375 28.734375 L 102.066406 30.402344 L 102.320312 34.019531 L 101.183594 37.703125 L 97.039062 38.457031 L 89.363281 39.632812 L 80.515625 40.917969 L 77.210938 41.453125 Z M 77.191406 25.292969 "/>
<path style=" stroke:none;fill-rule:nonzero;fill:rgb(39.99939%,39.99939%,39.99939%);fill-opacity:0.3;" d="M 75.488281 25.042969 L 75.363281 41.613281 L 61.222656 41.523438 L 47.320312 39.015625 L 39.957031 37.859375 L 27.285156 36.320312 L 27.273438 26.433594 L 35.449219 25.84375 L 45.054688 24.671875 L 53.023438 24.273438 L 64.675781 24.070312 Z M 75.488281 25.042969 "/>
<path style=" stroke:none;fill-rule:nonzero;fill:rgb(39.99939%,39.99939%,39.99939%);fill-opacity:0.3;" d="M 15.871094 -2.734375 L 16.121094 21.238281 L -0.445312 19.25 L -0.574219 -2.855469 Z M 15.871094 -2.734375 "/>
<path style=" stroke:none;fill-rule:nonzero;fill:rgb(39.99939%,39.99939%,39.99939%);fill-opacity:0.3;" d="M -22.804688 -2.679688 L -22.453125 19.8125 L -5.578125 21.019531 L 16.378906 23.960938 L 11.414062 30.097656 L 3.800781 38.4375 L -1.835938 37.34375 L -11.453125 35.78125 L -20.902344 35.003906 L -27.363281 34.855469 L -34.328125 34.703125 L -39.960938 34.710938 L -40.667969 -2.707031 Z M -22.804688 -2.679688 "/>
<path style=" stroke:none;fill-rule:nonzero;fill:rgb(39.99939%,39.99939%,39.99939%);fill-opacity:0.3;" d="M 32.117188 -2.855469 L 32.539062 14.460938 L 18.554688 18.308594 L 18.554688 -2.816406 L 24.8125 -2.867188 Z M 32.117188 -2.855469 "/>
<path style=" stroke:none;fill-rule:nonzero;fill:rgb(39.99939%,39.99939%,39.99939%);fill-opacity:0.3;" d="M 35.695312 -2.921875 L 51.445312 -2.9375 L 51.808594 16.503906 L 36.082031 17.675781 Z M 35.695312 -2.921875 "/>
<path style=" stroke:none;fill-rule:nonzero;fill:rgb(39.99939%,39.99939%,39.99939%);fill-opacity:0.3;" d="M 118.097656 -3.058594 L 136.664062 -3.144531 L 135.777344 24 L 136.445312 23.96875 L 137.113281 23.933594 L 138.222656 -3.148438 L 159.648438 -3.214844 L 160.234375 15.695312 L 161.179688 15.671875 L 161.984375 15.6875 L 161.480469 -3.164062 L 180.949219 -3.183594 L 181.007812 8.835938 L 174.878906 11.945312 L 164.261719 20.679688 L 156.320312 27.808594 L 151.316406 32.230469 L 142.703125 31.839844 L 132.308594 27.496094 L 117.996094 24.796875 Z M 118.097656 -3.058594 "/>
<path style=" stroke:none;fill-rule:nonzero;fill:rgb(39.99939%,39.99939%,39.99939%);fill-opacity:0.3;" d="M 182.730469 -3.1875 L 219.683594 -3.308594 L 231.273438 -4.199219 L 255.589844 -8.492188 L 255.390625 -6.164062 L 225.144531 0.460938 L 216.566406 4.925781 L 210.230469 5.710938 L 203.6875 3.390625 L 196.53125 3.398438 L 188.964844 4.171875 L 182.855469 7.769531 Z M 182.730469 -3.1875 "/>
<path style=" stroke:none;fill-rule:nonzero;fill:rgb(39.99939%,39.99939%,39.99939%);fill-opacity:0.3;" d="M 218.824219 23.710938 L 208.035156 23.316406 L 198.207031 23.195312 L 186.148438 25.148438 L 171.636719 28.070312 L 171.023438 23.355469 L 178.339844 16.917969 L 182.660156 12.9375 L 193.921875 9.847656 L 206.488281 9.800781 L 218.835938 10.1875 Z M 218.824219 23.710938 "/>
<path style=" stroke:none;fill-rule:nonzero;fill:rgb(39.99939%,39.99939%,39.99939%);fill-opacity:0.3;" d="M 223.355469 9.335938 L 232.613281 6.152344 L 242.734375 2.628906 L 242.234375 24.742188 L 233.042969 24.464844 L 222.605469 23.972656 L 222.660156 19.703125 L 222.65625 14.464844 L 222.914062 9.792969 Z M 223.355469 9.335938 "/>
<path style=" stroke:none;fill-rule:nonzero;fill:rgb(39.99939%,39.99939%,39.99939%);fill-opacity:0.3;" d="M 252.472656 0.0273438 L 261.664062 -1.945312 L 265.878906 -2.894531 L 265.996094 2.605469 L 265.867188 8.476562 L 265.871094 13.132812 L 265.433594 24.226562 L 263.554688 25.121094 L 260.394531 25.671875 L 254.527344 25.339844 L 244.535156 24.816406 L 244.96875 1.996094 Z M 252.472656 0.0273438 "/>
<path style=" stroke:none;fill-rule:nonzero;fill:rgb(39.99939%,39.99939%,39.99939%);fill-opacity:0.3;" d="M 305.175781 -20.234375 L 323.101562 -17.546875 L 317.414062 23.132812 L 298.589844 17.3125 Z M 305.175781 -20.234375 "/>
<path style=" stroke:none;fill-rule:nonzero;fill:rgb(39.99939%,39.99939%,39.99939%);fill-opacity:0.3;" d="M 292.0625 18.070312 L 267.625 23.117188 L 267.878906 -6.226562 L 261.542969 -7.097656 L 261.300781 -13.453125 L 271.867188 -19.257812 L 283.1875 -23.109375 L 293.527344 -23.542969 L 298.960938 -19.652344 Z M 292.0625 18.070312 "/>
<g clip-path="url(#clip6)" clip-rule="nonzero">
<path style=" stroke:none;fill-rule:nonzero;fill:rgb(39.99939%,39.99939%,39.99939%);fill-opacity:0.3;" d="M 320.445312 24.09375 L 323.625 -0.21875 L 333.71875 2 L 334.109375 0.9375 L 334.496094 -0.128906 L 323.949219 -2.523438 L 326.421875 -20.285156 L 335.984375 -18.882812 L 339.921875 -27.578125 L 376.09375 -19.53125 L 353.5 34.113281 Z M 320.445312 24.09375 "/>
</g>
<path style=" stroke:none;fill-rule:nonzero;fill:rgb(39.99939%,39.99939%,39.99939%);fill-opacity:0.3;" d="M -49.0625 64.070312 L -42.457031 49.84375 L -39.148438 43.710938 L -36.820312 41.15625 L -34.65625 39.773438 L -32.988281 38.953125 L -31.554688 38.5625 L -28.476562 38.105469 L -24.101562 38.035156 L -11.308594 39.277344 L -2.023438 40.839844 L 6.761719 41.933594 L 6.96875 37.867188 L 9.6875 34.613281 L 19.199219 35.828125 L 31.851562 38.441406 L 40.4375 39.835938 L 52.167969 41.75 L 66.019531 43.664062 L 76.640625 43.5625 L 88.457031 41.976562 L 107.121094 40.050781 L 130.496094 35.988281 L 143.585938 35.972656 L 153.902344 34.746094 L 170.179688 31.398438 L 184.226562 28.660156 L 193.800781 26.53125 L 200.824219 25.917969 L 229.070312 27.203125 L 242.289062 27.40625 L 265.351562 28.300781 L 270.785156 26.457031 L 285.964844 22.945312 L 298.023438 22.402344 L 274.46875 84.089844 L 275.761719 84.574219 L 277.472656 85.210938 L 301.691406 23.449219 L 324.160156 30.777344 L 302.148438 83.945312 L 303.613281 84.558594 L 305.855469 85.5 L 327.628906 31.832031 L 352.292969 39.078125 L 348.042969 49.957031 L 339.792969 68.707031 L 309.589844 140.207031 L 149.582031 81.570312 L 134.273438 81.148438 L 117.035156 81.167969 L 98.3125 78.792969 L 72.085938 73.414062 L 23.527344 76.058594 L 0.648438 77.359375 L -11.894531 75.269531 L -12.890625 73.804688 L -15.058594 72.394531 L -17.023438 71.625 L -18.648438 71.753906 L -20.003906 72.269531 L -22.035156 72.980469 L -22.578125 73.238281 Z M -49.0625 64.070312 "/>
<path style=" stroke:none;fill-rule:nonzero;fill:rgb(39.99939%,39.99939%,39.99939%);fill-opacity:0.3;" d="M 52.953125 -2.96875 L 72.507812 -3.070312 L 72.753906 6.960938 L 88.289062 6.941406 L 88.289062 5.421875 L 88.285156 4.035156 L 75.816406 4.242188 L 75.664062 -3.070312 L 99.542969 -3.09375 L 99.613281 6.738281 L 100.808594 6.738281 L 101.832031 6.734375 L 101.820312 -3.097656 L 116.03125 -3.113281 L 115.902344 23.007812 L 109.570312 27.277344 L 98.515625 22.671875 L 87.820312 19.925781 L 78.429688 18.070312 L 64.992188 16.558594 L 53.328125 16.417969 Z M 52.953125 -2.96875 "/>
<g clip-path="url(#clip7)" clip-rule="nonzero">
<path style=" stroke:none;fill-rule:nonzero;fill:rgb(39.99939%,39.99939%,39.99939%);fill-opacity:0.3;" d="M 41.109375 366.664062 L 61.804688 372.828125 L 148.203125 401.605469 L 109.308594 485.023438 L 14.753906 456.296875 L -8.574219 447.898438 L -36.488281 437.847656 L -34.503906 430.183594 L -33.183594 425.355469 L -31.75 420.527344 L -30.648438 416.960938 L -29.546875 413.367188 L -26.894531 408.75 L -23.914062 404.023438 L -21.074219 401.238281 L -16.902344 397.128906 L -12.273438 392.914062 L -8.589844 389.410156 L -5.824219 385.207031 L -2.890625 380.621094 L -0.917969 377.058594 L 0.726562 373.265625 L 2.976562 368.820312 L 5.21875 363.640625 L 6.378906 360.996094 L 8 356.808594 Z M 41.109375 366.664062 "/>
</g>
<g clip-path="url(#clip8)" clip-rule="nonzero">
<path style=" stroke:none;fill-rule:nonzero;fill:rgb(39.99939%,39.99939%,39.99939%);fill-opacity:0.3;" d="M 52.46875 266.742188 L 137.730469 296.480469 L 100.171875 381.109375 L 50.085938 364.554688 L 39.613281 364.097656 L 25.210938 359.457031 L 10.808594 355.128906 Z M 52.46875 266.742188 "/>
</g>
<g clip-path="url(#clip9)" clip-rule="nonzero">
<path style=" stroke:none;fill-rule:nonzero;fill:rgb(39.99939%,39.99939%,39.99939%);fill-opacity:0.3;" d="M 206.011719 414.84375 L 155.792969 399.519531 L 191.460938 321.171875 L 238.742188 337.828125 Z M 206.011719 414.84375 "/>
</g>
<g clip-path="url(#clip10)" clip-rule="nonzero">
<path style=" stroke:none;fill-rule:nonzero;fill:rgb(39.99939%,39.99939%,39.99939%);fill-opacity:0.3;" d="M 105.515625 383.324219 L 142.300781 298.351562 L 190.375 316.148438 L 172.988281 354.035156 L 173.835938 354.953125 L 153.03125 399.046875 Z M 105.515625 383.324219 "/>
</g>
<g clip-path="url(#clip11)" clip-rule="nonzero">
<path style=" stroke:none;fill-rule:nonzero;fill:rgb(39.99939%,39.99939%,39.99939%);fill-opacity:0.3;" d="M 244.089844 333.691406 L 392.15625 385.179688 L 363.976562 462.023438 L 209.4375 415.785156 Z M 244.089844 333.691406 "/>
</g>
<g clip-path="url(#clip12)" clip-rule="nonzero">
<path style=" stroke:none;fill-rule:nonzero;fill:rgb(39.99939%,39.99939%,39.99939%);fill-opacity:0.3;" d="M -88.613281 315.574219 L 3.925781 353.570312 L 4.078125 357.460938 L 2.226562 362.972656 L -1.015625 369.585938 L -2.582031 373.808594 L -5.289062 379.355469 L -10.398438 386.503906 L -15.511719 392.363281 L -20.019531 397.101562 L -24.984375 401.964844 L -29.941406 409.109375 L -32.648438 414.109375 L -34.148438 418.945312 L -35.796875 423.085938 L -37.746094 429.394531 L -39.695312 436.800781 L -100.789062 411.667969 L -142.089844 394.398438 L -135.320312 381.117188 L -129.359375 374.328125 L -114.359375 366.96875 L -107.730469 362.316406 L -102.375 356.066406 L -99.050781 347.265625 L -96.15625 337.183594 L -92.148438 326.667969 L -90.445312 321.808594 Z M -88.613281 315.574219 "/>
</g>
<path style=" stroke:none;fill-rule:nonzero;fill:rgb(39.99939%,39.99939%,39.99939%);fill-opacity:0.3;" d="M -55.488281 224.355469 L 47.570312 265.050781 L 7.578125 350.871094 L -87.253906 311.832031 Z M -55.488281 224.355469 "/>
<path style="fill-rule:nonzero;fill:rgb(39.99939%,39.99939%,39.99939%);fill-opacity:1;stroke-width:0.03;stroke-linecap:square;stroke-linejoin:miter;stroke:rgb(39.99939%,39.99939%,39.99939%);stroke-opacity:1;stroke-miterlimit:3.239307;" d="M 220.964844 97.128906 L 348.617188 144.050781 L 382.570312 156.53125 L 378.699219 172.574219 L 361.367188 216.113281 L 327.367188 203.476562 L 322.101562 201.519531 L 325.957031 190.074219 L 326.007812 189.457031 L 325.609375 188.9375 L 324.757812 188.796875 L 239.476562 194.546875 L 244.707031 176.179688 L 243.945312 175.972656 L 243.242188 175.78125 L 237.832031 194.574219 L 188.511719 198.214844 L 205.328125 155.273438 L 203.835938 154.9375 L 202.347656 154.601562 L 185.640625 198.234375 L 177.335938 199.761719 L 170.480469 200.878906 L 164.015625 201.816406 L 159.839844 202.839844 L 156.382812 204.144531 L 154.238281 205.675781 L 151.714844 208.652344 L 150.71875 210.679688 L 166.25 173.207031 L 178.15625 147.511719 L 186.011719 136.011719 L 190.703125 137.648438 L 181.296875 158.890625 L 181.835938 159.058594 L 182.621094 159.304688 L 192.464844 136.824219 L 186.777344 134.890625 L 212.757812 96.847656 L 212.789062 96.847656 L 220.101562 97.015625 Z M 220.964844 97.128906 " transform="matrix(1,0,0,1,-74,-13)"/>
<path style="fill-rule:nonzero;fill:rgb(39.99939%,39.99939%,39.99939%);fill-opacity:1;stroke-width:0.03;stroke-linecap:square;stroke-linejoin:miter;stroke:rgb(39.99939%,39.99939%,39.99939%);stroke-opacity:1;stroke-miterlimit:3.239307;" d="M 323.675781 191.421875 L 320.253906 201.605469 L 320.828125 202.421875 L 323.894531 203.78125 L 275.050781 321.570312 L 125.429688 267.898438 L 137.421875 242.769531 L 139.214844 238.445312 L 143.992188 228.582031 L 153.003906 210.742188 L 155.796875 207.003906 L 158.367188 205.550781 L 159.796875 204.929688 L 162.71875 204.019531 L 166.789062 203.136719 L 174.089844 202.136719 L 181.746094 201.46875 L 191.484375 200.800781 Z M 323.675781 191.421875 " transform="matrix(1,0,0,1,-74,-13)"/>
<path style="fill-rule:nonzero;fill:rgb(39.99939%,39.99939%,39.99939%);fill-opacity:1;stroke-width:0.03;stroke-linecap:square;stroke-linejoin:miter;stroke:rgb(39.99939%,39.99939%,39.99939%);stroke-opacity:1;stroke-miterlimit:3.239307;" d="M 229.328125 106.640625 L 238.90625 109.960938 L 233.503906 123.292969 L 223.863281 119.816406 Z M 229.328125 106.640625 " transform="matrix(1,0,0,1,-74,-13)"/>
<path style="fill-rule:nonzero;fill:rgb(39.99939%,39.99939%,39.99939%);fill-opacity:1;stroke-width:0.03;stroke-linecap:square;stroke-linejoin:miter;stroke:rgb(39.99939%,39.99939%,39.99939%);stroke-opacity:1;stroke-miterlimit:3.239307;" d="M 225.644531 122.308594 L 235.539062 125.824219 L 230.578125 138.90625 L 220.441406 135.164062 Z M 225.644531 122.308594 " transform="matrix(1,0,0,1,-74,-13)"/>
<path style="fill-rule:nonzero;fill:rgb(39.99939%,39.99939%,39.99939%);fill-opacity:1;stroke-width:0.03;stroke-linecap:square;stroke-linejoin:miter;stroke:rgb(39.99939%,39.99939%,39.99939%);stroke-opacity:1;stroke-miterlimit:3.239307;" d="M 220.316406 136.019531 L 230.207031 139.609375 L 225.160156 152.597656 L 215.191406 148.855469 Z M 220.316406 136.019531 " transform="matrix(1,0,0,1,-74,-13)"/>
<path style="fill-rule:nonzero;fill:rgb(39.99939%,39.99939%,39.99939%);fill-opacity:1;stroke-width:0.03;stroke-linecap:square;stroke-linejoin:miter;stroke:rgb(39.99939%,39.99939%,39.99939%);stroke-opacity:1;stroke-miterlimit:3.239307;" d="M 242.734375 111.230469 L 252.792969 114.941406 L 247.585938 128.132812 L 237.433594 124.59375 Z M 242.734375 111.230469 " transform="matrix(1,0,0,1,-74,-13)"/>
<path style="fill-rule:nonzero;fill:rgb(39.99939%,39.99939%,39.99939%);fill-opacity:1;stroke-width:0.03;stroke-linecap:square;stroke-linejoin:miter;stroke:rgb(39.99939%,39.99939%,39.99939%);stroke-opacity:1;stroke-miterlimit:3.239307;" d="M 239.679688 126.734375 L 249.21875 129.929688 L 244.769531 143.011719 L 234.507812 139.441406 Z M 239.679688 126.734375 " transform="matrix(1,0,0,1,-74,-13)"/>
<path style="fill-rule:nonzero;fill:rgb(39.99939%,39.99939%,39.99939%);fill-opacity:1;stroke-width:0.03;stroke-linecap:square;stroke-linejoin:miter;stroke:rgb(39.99939%,39.99939%,39.99939%);stroke-opacity:1;stroke-miterlimit:3.239307;" d="M 234.402344 140.507812 L 244.53125 144.023438 L 239.5625 157.007812 L 228.957031 153.417969 Z M 234.402344 140.507812 " transform="matrix(1,0,0,1,-74,-13)"/>
<path style=" stroke:none;fill-rule:evenodd;fill:rgb(85.096741%,85.096741%,81.959534%);fill-opacity:0.7;" d="M 162.066406 -9 C 162.066406 -15.648438 159.425781 -22.023438 154.726562 -26.726562 C 150.023438 -31.425781 143.648438 -34.066406 137 -34.066406 C 130.351562 -34.066406 123.976562 -31.425781 119.273438 -26.726562 C 114.574219 -22.023438 111.933594 -15.648438 111.933594 -9 C 111.933594 -2.351562 114.574219 4.023438 119.273438 8.726562 C 123.976562 13.425781 130.351562 16.066406 137 16.066406 C 143.648438 16.066406 150.023438 13.425781 154.726562 8.726562 C 159.425781 4.023438 162.066406 -2.351562 162.066406 -9 Z M 162.066406 -9 "/>
</g>
</svg>
