<?xml version="1.0" encoding="UTF-8"?>
<svg xmlns="http://www.w3.org/2000/svg" xmlns:xlink="http://www.w3.org/1999/xlink" width="361pt" height="361pt" viewBox="0 0 361 361" version="1.1">
<defs>
<clipPath id="clip1">
  <path d="M 166 357 L 203 357 L 203 360 L 166 360 Z M 166 357 "/>
</clipPath>
<clipPath id="clip2">
  <path d="M 147 285 L 258 285 L 258 360 L 147 360 Z M 147 285 "/>
</clipPath>
<clipPath id="clip3">
  <path d="M 151 353 L 173 353 L 173 360 L 151 360 Z M 151 353 "/>
</clipPath>
<clipPath id="clip4">
  <path d="M 330 36 L 360 36 L 360 89 L 330 89 Z M 330 36 "/>
</clipPath>
<clipPath id="clip5">
  <path d="M 329 0 L 360 0 L 360 42 L 329 42 Z M 329 0 "/>
</clipPath>
<clipPath id="clip6">
  <path d="M 357 133 L 360 133 L 360 161 L 357 161 Z M 357 133 "/>
</clipPath>
<clipPath id="clip7">
  <path d="M 305 99 L 360 99 L 360 152 L 305 152 Z M 305 99 "/>
</clipPath>
<clipPath id="clip8">
  <path d="M 286 178 L 360 178 L 360 271 L 286 271 Z M 286 178 "/>
</clipPath>
<clipPath id="clip9">
  <path d="M 299 140 L 360 140 L 360 216 L 299 216 Z M 299 140 "/>
</clipPath>
<clipPath id="clip10">
  <path d="M 338 93 L 360 93 L 360 112 L 338 112 Z M 338 93 "/>
</clipPath>
<clipPath id="clip11">
  <path d="M 342 83 L 360 83 L 360 101 L 342 101 Z M 342 83 "/>
</clipPath>
<clipPath id="clip12">
  <path d="M 335 0 L 360 0 L 360 20 L 335 20 Z M 335 0 "/>
</clipPath>
<clipPath id="clip13">
  <path d="M 357 4 L 360 4 L 360 8 L 357 8 Z M 357 4 "/>
</clipPath>
<clipPath id="clip14">
  <path d="M 357 0 L 360 0 L 360 4 L 357 4 Z M 357 0 "/>
</clipPath>
<clipPath id="clip15">
  <path d="M 275 236 L 360 236 L 360 303 L 275 303 Z M 275 236 "/>
</clipPath>
<clipPath id="clip16">
  <path d="M 348 285 L 360 285 L 360 329 L 348 329 Z M 348 285 "/>
</clipPath>
<clipPath id="clip17">
  <path d="M 357 261 L 360 261 L 360 267 L 357 267 Z M 357 261 "/>
</clipPath>
<clipPath id="clip18">
  <path d="M 357 267 L 360 267 L 360 271 L 357 271 Z M 357 267 "/>
</clipPath>
<clipPath id="clip19">
  <path d="M 15 335 L 40 335 L 40 360 L 15 360 Z M 15 335 "/>
</clipPath>
<clipPath id="clip20">
  <path d="M 33 340 L 58 340 L 58 360 L 33 360 Z M 33 340 "/>
</clipPath>
<clipPath id="clip21">
  <path d="M 52 345 L 76 345 L 76 360 L 52 360 Z M 52 345 "/>
</clipPath>
<clipPath id="clip22">
  <path d="M 70 349 L 94 349 L 94 360 L 70 360 Z M 70 349 "/>
</clipPath>
<clipPath id="clip23">
  <path d="M 0 358 L 14 358 L 14 360 L 0 360 Z M 0 358 "/>
</clipPath>
<clipPath id="clip24">
  <path d="M 0 353 L 2 353 L 2 360 L 0 360 Z M 0 353 "/>
</clipPath>
<clipPath id="clip25">
  <path d="M 132 349 L 154 349 L 154 360 L 132 360 Z M 132 349 "/>
</clipPath>
<clipPath id="clip26">
  <path d="M 106 359 L 131 359 L 131 360 L 106 360 Z M 106 359 "/>
</clipPath>
<clipPath id="clip27">
  <path d="M 88 354 L 112 354 L 112 360 L 88 360 Z M 88 354 "/>
</clipPath>
<clipPath id="clip28">
  <path d="M 114 335 L 136 335 L 136 360 L 114 360 Z M 114 335 "/>
</clipPath>
<clipPath id="clip29">
  <path d="M 264 271 L 360 271 L 360 322 L 264 322 Z M 264 271 "/>
</clipPath>
<clipPath id="clip30">
  <path d="M 331 356 L 356 356 L 356 360 L 331 360 Z M 331 356 "/>
</clipPath>
<clipPath id="clip31">
  <path d="M 319 343 L 345 343 L 345 360 L 319 360 Z M 319 343 "/>
</clipPath>
<clipPath id="clip32">
  <path d="M 306 340 L 333 340 L 333 360 L 306 360 Z M 306 340 "/>
</clipPath>
<clipPath id="clip33">
  <path d="M 293 337 L 320 337 L 320 360 L 293 360 Z M 293 337 "/>
</clipPath>
<clipPath id="clip34">
  <path d="M 280 333 L 306 333 L 306 360 L 280 360 Z M 280 333 "/>
</clipPath>
<clipPath id="clip35">
  <path d="M 268 329 L 293 329 L 293 360 L 268 360 Z M 268 329 "/>
</clipPath>
<clipPath id="clip36">
  <path d="M 256 325 L 281 325 L 281 360 L 256 360 Z M 256 325 "/>
</clipPath>
<clipPath id="clip37">
  <path d="M 244 322 L 269 322 L 269 360 L 244 360 Z M 244 322 "/>
</clipPath>
<clipPath id="clip38">
  <path d="M 344 326 L 360 326 L 360 360 L 344 360 Z M 344 326 "/>
</clipPath>
<clipPath id="clip39">
  <path d="M 336 171 L 360 171 L 360 194 L 336 194 Z M 336 171 "/>
</clipPath>
<clipPath id="clip40">
  <path d="M 357 184 L 360 184 L 360 190 L 357 190 Z M 357 184 "/>
</clipPath>
<clipPath id="clip41">
  <path d="M 355 178 L 360 178 L 360 184 L 355 184 Z M 355 178 "/>
</clipPath>
</defs>
<g id="surface364">
<path style="fill-rule:nonzero;fill:rgb(0%,0%,0%);fill-opacity:1;stroke-width:0.03;stroke-linecap:square;stroke-linejoin:miter;stroke:rgb(0%,0%,0%);stroke-opacity:1;stroke-miterlimit:10;" d="M 0 178 L 360 178 L 360 -182 L 0 -182 Z M 0 178 " transform="matrix(1,0,0,1,0,182)"/>
<path style=" stroke:none;fill-rule:nonzero;fill:rgb(39.99939%,39.99939%,39.99939%);fill-opacity:0.3;" d="M 192.300781 250.382812 L 191.261719 253.933594 L 192.023438 254.132812 L 192.789062 254.335938 L 193.816406 250.816406 L 194.007812 250.871094 L 198.757812 252.863281 L 202.140625 254.371094 L 205.597656 255.335938 L 208.699219 256.234375 L 211.4375 256.808594 L 214.714844 257.355469 L 218.617188 258.054688 L 211.023438 284.789062 L 190.152344 280.117188 L 188.515625 287.023438 L 189.253906 287.164062 L 190.039062 287.308594 L 191.132812 282.304688 L 210.921875 286.628906 L 209.34375 293.824219 L 210.117188 293.996094 L 211.921875 294.371094 L 212.871094 289.371094 L 216.976562 290.148438 L 217.144531 289.375 L 217.265625 288.808594 L 211.925781 287.574219 L 213.570312 280.207031 L 244.550781 287.101562 L 242.832031 292.609375 L 243.636719 292.796875 L 244.277344 292.949219 L 245.941406 287.582031 L 263.273438 291.742188 L 260.359375 301.726562 L 255.5 300.558594 L 256.140625 297.890625 L 254.742188 297.46875 L 253.34375 297.042969 L 252.050781 301.5 L 259.710938 303.507812 L 258.28125 308.570312 L 255.53125 307.886719 L 251.714844 306.472656 L 229.082031 300.398438 L 228.960938 300.367188 L 230.683594 293.269531 L 234.683594 294.128906 L 234.972656 292.992188 L 235.164062 292.226562 L 220.445312 288.605469 L 220.226562 289.519531 L 220 290.480469 L 229.230469 292.855469 L 227.472656 299.980469 L 166.425781 284.113281 L 161.015625 283.34375 L 157.175781 282.339844 L 162.453125 266.160156 L 169.320312 267.226562 L 175.980469 268.191406 L 185.089844 270.828125 L 184.488281 275.363281 L 185.039062 275.386719 L 185.59375 275.414062 L 186.195312 269.636719 L 178.425781 267.796875 L 183.050781 248.292969 Z M 192.300781 250.382812 "/>
<path style=" stroke:none;fill-rule:nonzero;fill:rgb(39.99939%,39.99939%,39.99939%);fill-opacity:0.3;" d="M 273.746094 261.507812 L 257.832031 257.257812 L 259.171875 252.582031 L 257.96875 252.316406 L 256.390625 256.933594 L 239.511719 252.585938 L 248.113281 225.792969 L 282.605469 236.355469 L 276.53125 253.597656 L 272.804688 252.238281 L 272.519531 252.941406 L 272.238281 253.640625 L 276.03125 255.023438 Z M 273.746094 261.507812 "/>
<path style=" stroke:none;fill-rule:nonzero;fill:rgb(39.99939%,39.99939%,39.99939%);fill-opacity:0.3;" d="M 91.066406 60.675781 L 177.707031 80.957031 L 308.570312 111.597656 L 295.601562 173.5625 L 247.316406 161.230469 L 72.015625 116.457031 Z M 91.066406 60.675781 "/>
<path style=" stroke:none;fill-rule:nonzero;fill:rgb(39.99939%,39.99939%,39.99939%);fill-opacity:0.3;" d="M 219.449219 259.113281 L 220.441406 258.226562 L 221.652344 257.914062 L 234.152344 260.570312 L 235.988281 260.613281 L 236.824219 259.929688 L 237.519531 258.167969 L 238.738281 255.628906 L 239.621094 255.261719 L 240.882812 255.265625 L 252.847656 258.558594 L 244.996094 285.886719 L 213.78125 279.054688 L 217.273438 267.339844 L 223.753906 268.332031 L 223.882812 267.664062 L 224.019531 266.980469 L 217.59375 265.785156 Z M 219.449219 259.113281 "/>
<path style=" stroke:none;fill-rule:nonzero;fill:rgb(39.99939%,39.99939%,39.99939%);fill-opacity:0.3;" d="M 290.429688 174.878906 L 293.292969 175.996094 L 294.125 176.871094 L 294.261719 178.183594 L 293.890625 179.542969 L 286.820312 203.007812 L 279.75 229.542969 L 238.644531 216.378906 L 220.136719 210.539062 L 214.230469 209.039062 L 210.945312 208.601562 L 207.621094 208.292969 L 204.921875 208.195312 L 202.269531 208.484375 L 198.808594 208.851562 L 195.742188 209.625 L 192.46875 210.203125 L 187.566406 210.78125 L 183.683594 210.78125 L 179.230469 210.742188 L 175.101562 210.066406 L 171.171875 209.171875 L 165.472656 207.316406 L 160.414062 205.757812 L 153.101562 202.882812 L 51.429688 170.371094 L 61.136719 144.625 L 70.8125 118.332031 L 169.332031 144.125 L 256.015625 166.140625 Z M 290.429688 174.878906 "/>
<path style=" stroke:none;fill-rule:nonzero;fill:rgb(39.99939%,39.99939%,39.99939%);fill-opacity:0.3;" d="M 172.1875 215.289062 L 176.003906 216.25 L 182.308594 217.128906 L 186.429688 217.3125 L 192.59375 216.710938 L 198.628906 215.921875 L 204.9375 214.871094 L 210.039062 214.960938 L 214.027344 215.578125 L 220.609375 216.894531 L 233.707031 220.871094 L 246.777344 225.328125 L 238.226562 252.796875 L 236.011719 258.464844 L 234.210938 258.972656 L 231.390625 258.742188 L 222.949219 257.0625 L 209.265625 254.804688 L 203.65625 253.285156 L 198.691406 251.089844 L 182.003906 246.363281 L 183.6875 239.714844 L 183.183594 239.660156 L 182.703125 239.609375 L 180.582031 246.257812 L 169.199219 243.445312 L 172.105469 233.480469 L 171.597656 233.335938 L 171.007812 233.167969 L 167.886719 243.238281 L 167.003906 243.019531 L 167.253906 241.886719 L 171.117188 222.566406 Z M 172.1875 215.289062 "/>
<path style=" stroke:none;fill-rule:nonzero;fill:rgb(39.99939%,39.99939%,39.99939%);fill-opacity:0.3;" d="M 254.535156 258.8125 L 273.339844 263.246094 L 266.839844 282.214844 L 263.921875 290.550781 L 246.683594 286.261719 L 249.890625 275.050781 L 252.339844 266.488281 Z M 254.535156 258.8125 "/>
<path style=" stroke:none;fill-rule:nonzero;fill:rgb(39.99939%,39.99939%,39.99939%);fill-opacity:0.3;" d="M 166.761719 244.097656 L 181.511719 247.753906 L 181.230469 249.332031 L 177.597656 264.761719 L 175.621094 265.941406 L 170.59375 265.460938 L 162.332031 264.027344 Z M 166.761719 244.097656 "/>
<path style=" stroke:none;fill-rule:nonzero;fill:rgb(39.99939%,39.99939%,39.99939%);fill-opacity:0.3;" d="M 255.53125 307.886719 L 228.757812 301.210938 L 228.960938 300.367188 L 229.082031 300.398438 L 251.714844 306.472656 Z M 255.53125 307.886719 "/>
<path style=" stroke:none;fill-rule:nonzero;fill:rgb(39.99939%,39.99939%,39.99939%);fill-opacity:0.3;" d="M 227.472656 299.980469 L 227.304688 300.660156 L 161.015625 283.34375 L 166.425781 284.113281 Z M 227.472656 299.980469 "/>
<g clip-path="url(#clip1)" clip-rule="nonzero">
<path style=" stroke:none;fill-rule:nonzero;fill:rgb(39.99939%,39.99939%,39.99939%);fill-opacity:0.3;" d="M 173.832031 357.0625 L 187.378906 361.058594 L 186.171875 366.191406 L 187.257812 366.3125 L 188.058594 366.402344 L 189.269531 361.375 L 202.148438 364.425781 L 194.773438 390.089844 L 166.234375 381.992188 Z M 173.832031 357.0625 "/>
</g>
<g clip-path="url(#clip2)" clip-rule="nonzero">
<path style=" stroke:none;fill-rule:nonzero;fill:rgb(39.99939%,39.99939%,39.99939%);fill-opacity:0.3;" d="M 165.371094 285.59375 L 210.863281 297.667969 L 257.546875 310.054688 L 240.117188 371.523438 L 227.324219 416.648438 L 213.210938 413.707031 L 212.863281 409.902344 L 210.035156 407.828125 L 221.015625 368.386719 L 220.382812 368.207031 L 219.78125 368.035156 L 208.800781 407.488281 L 192.882812 403.878906 L 204.109375 363.335938 L 190.832031 359.761719 L 172.597656 354.847656 L 147.941406 349.179688 Z M 165.371094 285.59375 "/>
</g>
<path style=" stroke:none;fill-rule:nonzero;fill:rgb(39.99939%,39.99939%,39.99939%);fill-opacity:0.3;" d="M 142.902344 322.136719 L 153.375 325.324219 L 146.5625 349.574219 L 136.757812 346.808594 L 136.160156 340.941406 Z M 142.902344 322.136719 "/>
<path style=" stroke:none;fill-rule:nonzero;fill:rgb(39.99939%,39.99939%,39.99939%);fill-opacity:0.3;" d="M 150.242188 302.851562 L 158.667969 305.015625 L 154.167969 323.40625 L 143.695312 320.636719 Z M 150.242188 302.851562 "/>
<path style=" stroke:none;fill-rule:nonzero;fill:rgb(39.99939%,39.99939%,39.99939%);fill-opacity:0.3;" d="M 156.835938 284.144531 L 163.417969 286.113281 L 158.964844 303.605469 L 150.539062 301.324219 Z M 156.835938 284.144531 "/>
<g clip-path="url(#clip3)" clip-rule="nonzero">
<path style=" stroke:none;fill-rule:nonzero;fill:rgb(39.99939%,39.99939%,39.99939%);fill-opacity:0.3;" d="M 154.984375 353.097656 L 172.203125 357.027344 L 167.949219 371.78125 L 151.285156 367.359375 Z M 154.984375 353.097656 "/>
</g>
<g clip-path="url(#clip4)" clip-rule="nonzero">
<path style=" stroke:none;fill-rule:nonzero;fill:rgb(39.99939%,39.99939%,39.99939%);fill-opacity:0.3;" d="M 338.289062 54.832031 L 334.613281 53.589844 L 340.078125 36.847656 L 356.308594 40.699219 L 355.484375 45.035156 L 355.679688 45.0625 L 355.878906 45.089844 L 356.792969 40.796875 L 384.605469 47.472656 L 383.679688 59.140625 L 374.421875 88.613281 L 354.824219 83.769531 L 342.09375 80.210938 L 333.476562 76.570312 L 335.746094 66.316406 L 330.855469 65.128906 L 334.300781 54.367188 L 337.996094 55.59375 L 338.148438 55.195312 Z M 338.289062 54.832031 "/>
</g>
<g clip-path="url(#clip5)" clip-rule="nonzero">
<path style=" stroke:none;fill-rule:nonzero;fill:rgb(39.99939%,39.99939%,39.99939%);fill-opacity:0.3;" d="M 335.726562 -17.664062 L 349.605469 -13.015625 L 351.058594 -12.292969 L 351.976562 -11.570312 L 352.589844 -10.628906 L 353.125 -9.398438 L 353.398438 -7.113281 L 354.796875 2.214844 L 354.863281 3.359375 L 354.988281 4.261719 L 354.960938 5.300781 L 354.425781 7.21875 L 353.816406 9.03125 L 353.738281 9.753906 L 353.523438 10.820312 L 344.714844 8.671875 L 344.570312 9.300781 L 344.382812 10.121094 L 363.804688 14.816406 L 370.183594 22.054688 L 365.5 41.4375 L 329.949219 32.800781 L 332.238281 12.339844 Z M 335.726562 -17.664062 "/>
</g>
<g clip-path="url(#clip6)" clip-rule="nonzero">
<path style=" stroke:none;fill-rule:nonzero;fill:rgb(39.99939%,39.99939%,39.99939%);fill-opacity:0.3;" d="M 362.699219 133.074219 L 370.558594 135.210938 L 369.109375 140.953125 L 369.550781 141.082031 L 369.839844 141.164062 L 371.359375 135.484375 L 390.882812 140.792969 L 387.0625 160.449219 L 357.382812 152.433594 L 359.859375 143.132812 L 366.117188 144.921875 L 366.1875 144.488281 L 366.261719 144.027344 L 360.007812 142.167969 Z M 362.699219 133.074219 "/>
</g>
<g clip-path="url(#clip7)" clip-rule="nonzero">
<path style=" stroke:none;fill-rule:nonzero;fill:rgb(39.99939%,39.99939%,39.99939%);fill-opacity:0.3;" d="M 313.253906 99.378906 L 367.136719 113.359375 L 361.714844 131.628906 L 323.484375 121.742188 L 323.367188 122.582031 L 323.25 123.449219 L 361.128906 133.289062 L 355.527344 151.804688 L 305.78125 138.46875 Z M 313.253906 99.378906 "/>
</g>
<path style=" stroke:none;fill-rule:nonzero;fill:rgb(39.99939%,39.99939%,39.99939%);fill-opacity:0.3;" d="M 330.140625 33.949219 L 339.097656 36.6875 L 330.019531 65.726562 L 334.703125 66.945312 L 332.613281 76.40625 L 319.359375 72.996094 L 325.492188 44.710938 Z M 330.140625 33.949219 "/>
<g clip-path="url(#clip8)" clip-rule="nonzero">
<path style=" stroke:none;fill-rule:nonzero;fill:rgb(39.99939%,39.99939%,39.99939%);fill-opacity:0.3;" d="M 300.589844 179.878906 L 301.285156 179.15625 L 302.480469 178.976562 L 303.765625 178.976562 L 450.90625 217.089844 L 440.417969 245.085938 L 432.328125 266.683594 L 430.929688 269.554688 L 429.964844 270.414062 L 428.890625 270.324219 L 427.570312 270.042969 L 383.792969 258.824219 L 331.359375 244.75 L 300.359375 236.292969 L 286.765625 231.949219 L 286.699219 231.929688 Z M 300.589844 179.878906 "/>
</g>
<g clip-path="url(#clip9)" clip-rule="nonzero">
<path style=" stroke:none;fill-rule:nonzero;fill:rgb(39.99939%,39.99939%,39.99939%);fill-opacity:0.3;" d="M 355.804688 154.84375 L 387.757812 162.984375 L 385.8125 171.082031 L 372.59375 167.898438 L 372.394531 168.390625 L 372.011719 169.328125 L 387.089844 173.058594 L 389.648438 163.511719 L 465.425781 181.90625 L 452.945312 215.503906 L 397.863281 200.941406 L 368.640625 193.214844 L 371.324219 180.730469 L 382.820312 183.503906 L 381.625 189.035156 L 383.710938 189.496094 L 384.90625 184.03125 L 391.941406 185.863281 L 390.707031 191.433594 L 392.65625 191.828125 L 393.777344 186.363281 L 400.921875 188.15625 L 398.054688 198.542969 L 398.472656 198.617188 L 398.976562 198.707031 L 402.371094 186.1875 L 384.683594 181.507812 L 351.246094 172.660156 L 340.882812 169.828125 L 341.28125 168.246094 L 339.785156 167.847656 L 339.082031 167.664062 L 338.015625 171.789062 L 338.628906 171.945312 L 337 177.300781 L 338.105469 181.4375 L 336.722656 185.304688 L 365.707031 193.03125 L 367.085938 188.617188 L 369.261719 180.15625 L 369.503906 180.21875 L 366.710938 193.359375 L 325.601562 182.417969 L 313.972656 179.324219 L 303.40625 176.574219 L 300.207031 175.828125 L 299.71875 175.507812 L 299.574219 175.203125 L 306.558594 140.957031 Z M 355.804688 154.84375 "/>
</g>
<g clip-path="url(#clip10)" clip-rule="nonzero">
<path style=" stroke:none;fill-rule:nonzero;fill:rgb(39.99939%,39.99939%,39.99939%);fill-opacity:0.3;" d="M 340.976562 93.691406 L 370.386719 101.769531 L 367.574219 111.957031 L 338.167969 103.949219 Z M 340.976562 93.691406 "/>
</g>
<g clip-path="url(#clip11)" clip-rule="nonzero">
<path style=" stroke:none;fill-rule:nonzero;fill:rgb(39.99939%,39.99939%,39.99939%);fill-opacity:0.3;" d="M 344.539062 83.082031 L 374.03125 90.796875 L 371.304688 100.648438 L 342.089844 92.550781 Z M 344.539062 83.082031 "/>
</g>
<path style=" stroke:none;fill-rule:nonzero;fill:rgb(39.99939%,39.99939%,39.99939%);fill-opacity:0.3;" d="M 318.003906 74.640625 L 323.847656 75.71875 L 329.089844 76.992188 L 333.121094 78.386719 L 342.929688 82.328125 L 337.476562 103.394531 L 313.898438 97.441406 Z M 318.003906 74.640625 "/>
<path style=" stroke:none;fill-rule:nonzero;fill:rgb(39.99939%,39.99939%,39.99939%);fill-opacity:0.3;" d="M 328.441406 181.484375 L 329.507812 176.910156 L 331.191406 177.257812 L 330.972656 178.195312 L 332.222656 178.453125 L 332.441406 177.519531 L 334.023438 177.847656 L 332.957031 182.425781 L 331.375 182.097656 L 331.527344 181.445312 L 330.902344 181.3125 L 330.277344 181.183594 L 330.125 181.835938 Z M 328.441406 181.484375 "/>
<path style=" stroke:none;fill-rule:nonzero;fill:rgb(39.99939%,39.99939%,39.99939%);fill-opacity:0.3;" d="M 331.480469 169.046875 L 332.546875 164.46875 L 334.230469 164.820312 L 334.011719 165.753906 L 334.636719 165.882812 L 335.261719 166.015625 L 335.480469 165.082031 L 337.058594 165.410156 L 335.996094 169.988281 L 334.414062 169.65625 L 334.566406 169.003906 L 333.941406 168.875 L 333.316406 168.742188 L 333.164062 169.398438 Z M 331.480469 169.046875 "/>
<path style=" stroke:none;fill-rule:nonzero;fill:rgb(39.99939%,39.99939%,39.99939%);fill-opacity:0.3;" d="M 329.554688 175.109375 L 330.621094 170.535156 L 332.304688 170.882812 L 332.089844 171.820312 L 333.339844 172.078125 L 333.554688 171.144531 L 335.136719 171.472656 L 334.070312 176.050781 L 332.488281 175.722656 L 332.640625 175.070312 L 332.015625 174.9375 L 331.390625 174.808594 L 331.238281 175.460938 Z M 329.554688 175.109375 "/>
<g clip-path="url(#clip12)" clip-rule="nonzero">
<path style=" stroke:none;fill-rule:nonzero;fill:rgb(39.99939%,39.99939%,39.99939%);fill-opacity:0.3;" d="M 391.453125 19.074219 L 355.855469 10.507812 L 355.472656 9.726562 L 355.472656 8.761719 L 355.980469 7.015625 L 356.492188 4.726562 L 356.570312 3.347656 L 355.648438 -2.660156 L 355.066406 -6.542969 L 354.433594 -11.089844 L 353.769531 -12.183594 L 353.066406 -12.847656 L 350.683594 -13.90625 L 335.839844 -18.96875 L 337.597656 -35.605469 L 403.875 -17.46875 L 397.992188 -0.25 L 380.867188 -5.128906 L 380.554688 -4 L 380.238281 -2.863281 L 397.441406 2.023438 Z M 391.453125 19.074219 "/>
</g>
<g clip-path="url(#clip13)" clip-rule="nonzero">
<path style=" stroke:none;fill-rule:nonzero;fill:rgb(39.99939%,39.99939%,39.99939%);fill-opacity:0.3;" d="M 357.597656 4.035156 L 361.65625 5.128906 L 361.054688 7.089844 L 357.003906 5.996094 Z M 357.597656 4.035156 "/>
</g>
<g clip-path="url(#clip14)" clip-rule="nonzero">
<path style=" stroke:none;fill-rule:nonzero;fill:rgb(39.99939%,39.99939%,39.99939%);fill-opacity:0.3;" d="M 358.042969 0.886719 L 362.101562 1.980469 L 361.5 3.941406 L 357.449219 2.847656 Z M 358.042969 0.886719 "/>
</g>
<g clip-path="url(#clip15)" clip-rule="nonzero">
<path style=" stroke:none;fill-rule:nonzero;fill:rgb(39.99939%,39.99939%,39.99939%);fill-opacity:0.3;" d="M 423.152344 288.792969 L 420.828125 296.660156 L 419.640625 302.332031 L 389.589844 292.808594 L 369.699219 287.519531 L 362.707031 285.929688 L 363.734375 282.152344 L 363.558594 282.101562 L 363.398438 282.054688 L 362.335938 285.847656 L 357.097656 284.652344 L 336.832031 279.4375 L 304.738281 270.1875 L 306.355469 264.71875 L 308.015625 265.144531 L 309.03125 262.234375 L 309.386719 261.21875 L 311.089844 261.648438 L 311.15625 261.410156 L 311.21875 261.175781 L 309.550781 260.757812 L 310.707031 257.457031 L 312.832031 257.839844 L 312.882812 257.601562 L 312.929688 257.363281 L 310.277344 256.875 L 308.453125 262.050781 L 307.617188 264.445312 L 305.933594 264.011719 L 304.148438 270.023438 L 275.613281 262.085938 L 284.242188 236.75 L 428.1875 275.726562 Z M 423.152344 288.792969 "/>
</g>
<path style=" stroke:none;fill-rule:nonzero;fill:rgb(39.99939%,39.99939%,39.99939%);fill-opacity:0.3;" d="M 274.59375 263.542969 L 298.863281 269.8125 L 296.71875 275.425781 L 297.574219 275.589844 L 298.167969 275.703125 L 300.242188 270.085938 L 351.511719 284.789062 L 347.066406 299.808594 L 345.585938 299.851562 L 345.199219 301.246094 L 345.027344 301.871094 L 325.40625 298.191406 L 309.675781 293.777344 L 309.675781 282.183594 L 288.222656 276.25 L 288.242188 276.195312 L 288.476562 275.585938 L 272.050781 270.699219 Z M 274.59375 263.542969 "/>
<g clip-path="url(#clip16)" clip-rule="nonzero">
<path style=" stroke:none;fill-rule:nonzero;fill:rgb(39.99939%,39.99939%,39.99939%);fill-opacity:0.3;" d="M 348.132812 302.539062 L 353.105469 285.230469 L 367.84375 288.4375 L 365.132812 297.875 L 371.738281 300.78125 L 370.628906 305.132812 L 368.640625 305.132812 L 367.40625 310.183594 L 372.171875 311.585938 L 366.78125 328.695312 L 353.011719 325.050781 L 353.964844 321.945312 L 353.535156 321.824219 L 362.117188 308.679688 L 356.046875 305.09375 Z M 348.132812 302.539062 "/>
</g>
<path style=" stroke:none;fill-rule:nonzero;fill:rgb(39.99939%,39.99939%,39.99939%);fill-opacity:0.3;" d="M 300.359375 236.292969 L 286.539062 232.527344 L 286.699219 231.929688 L 286.765625 231.949219 Z M 300.359375 236.292969 "/>
<path style=" stroke:none;fill-rule:nonzero;fill:rgb(39.99939%,39.99939%,39.99939%);fill-opacity:0.3;" d="M 312.265625 293.078125 L 312.945312 290.878906 L 316.363281 291.667969 L 315.601562 293.960938 Z M 312.265625 293.078125 "/>
<path style=" stroke:none;fill-rule:nonzero;fill:rgb(39.99939%,39.99939%,39.99939%);fill-opacity:0.3;" d="M 311.78125 292.898438 L 309.675781 292.335938 L 309.675781 291.617188 L 310.898438 287.601562 L 313.207031 288.214844 Z M 311.78125 292.898438 "/>
<path style=" stroke:none;fill-rule:nonzero;fill:rgb(39.99939%,39.99939%,39.99939%);fill-opacity:0.3;" d="M 321.109375 295.453125 L 318.804688 294.839844 L 320.230469 290.15625 L 322.535156 290.773438 Z M 321.109375 295.453125 "/>
<path style=" stroke:none;fill-rule:nonzero;fill:rgb(39.99939%,39.99939%,39.99939%);fill-opacity:0.3;" d="M 318.503906 294.738281 L 316.195312 294.121094 L 317.621094 289.441406 L 319.929688 290.054688 Z M 318.503906 294.738281 "/>
<path style=" stroke:none;fill-rule:nonzero;fill:rgb(39.99939%,39.99939%,39.99939%);fill-opacity:0.3;" d="M 320.128906 289.175781 L 317.820312 288.558594 L 319.246094 283.878906 L 321.554688 284.492188 Z M 320.128906 289.175781 "/>
<path style=" stroke:none;fill-rule:nonzero;fill:rgb(39.99939%,39.99939%,39.99939%);fill-opacity:0.3;" d="M 313.496094 287.371094 L 311.1875 286.753906 L 312.613281 282.074219 L 314.921875 282.6875 Z M 313.496094 287.371094 "/>
<path style=" stroke:none;fill-rule:nonzero;fill:rgb(39.99939%,39.99939%,39.99939%);fill-opacity:0.3;" d="M 322.921875 290.003906 L 320.617188 289.390625 L 322.042969 284.707031 L 324.347656 285.324219 Z M 322.921875 290.003906 "/>
<path style=" stroke:none;fill-rule:nonzero;fill:rgb(39.99939%,39.99939%,39.99939%);fill-opacity:0.3;" d="M 317.382812 288.425781 L 315.078125 287.808594 L 316.5 283.128906 L 318.808594 283.742188 Z M 317.382812 288.425781 "/>
<path style=" stroke:none;fill-rule:nonzero;fill:rgb(39.99939%,39.99939%,39.99939%);fill-opacity:0.3;" d="M 324.390625 256.03125 L 329.496094 257.472656 L 327.667969 262.695312 L 322.558594 261.34375 Z M 324.390625 256.03125 "/>
<path style=" stroke:none;fill-rule:nonzero;fill:rgb(39.99939%,39.99939%,39.99939%);fill-opacity:0.3;" d="M 316.496094 254.117188 L 321.605469 255.558594 L 319.773438 260.78125 L 314.667969 259.429688 Z M 316.496094 254.117188 "/>
<path style=" stroke:none;fill-rule:nonzero;fill:rgb(39.99939%,39.99939%,39.99939%);fill-opacity:0.3;" d="M 319.019531 246.609375 L 324.125 248.050781 L 322.304688 253.265625 L 317.195312 251.914062 Z M 319.019531 246.609375 "/>
<g clip-path="url(#clip17)" clip-rule="nonzero">
<path style=" stroke:none;fill-rule:nonzero;fill:rgb(39.99939%,39.99939%,39.99939%);fill-opacity:0.3;" d="M 358.125 261.726562 L 362.800781 262.480469 L 362.53125 263.96875 L 360.96875 263.714844 L 360.835938 264.460938 L 360.699219 265.203125 L 362.257812 265.457031 L 361.984375 266.945312 L 357.308594 266.191406 L 357.578125 264.699219 L 359.140625 264.953125 L 359.273438 264.207031 L 359.410156 263.464844 L 357.851562 263.214844 Z M 358.125 261.726562 "/>
</g>
<g clip-path="url(#clip18)" clip-rule="nonzero">
<path style=" stroke:none;fill-rule:nonzero;fill:rgb(39.99939%,39.99939%,39.99939%);fill-opacity:0.3;" d="M 357.921875 267.578125 L 364.140625 268.402344 L 363.886719 270.011719 L 357.648438 269.109375 Z M 357.921875 267.578125 "/>
</g>
<path style=" stroke:none;fill-rule:nonzero;fill:rgb(39.99939%,39.99939%,39.99939%);fill-opacity:0.3;" d="M 292.230469 15.261719 L 329.359375 25.789062 L 328.753906 29.140625 L 327.4375 33.257812 L 326.324219 36.511719 L 324.882812 39.703125 L 324.074219 41.714844 L 323.234375 43.59375 L 288.410156 33.089844 Z M 292.230469 15.261719 "/>
<path style=" stroke:none;fill-rule:nonzero;fill:rgb(39.99939%,39.99939%,39.99939%);fill-opacity:0.3;" d="M 296.023438 -4.640625 L 331.226562 5.511719 L 329.226562 23.976562 L 292.679688 13.355469 Z M 296.023438 -4.640625 "/>
<path style=" stroke:none;fill-rule:nonzero;fill:rgb(39.99939%,39.99939%,39.99939%);fill-opacity:0.3;" d="M 301.960938 -25.3125 L 333.523438 -16.679688 L 331.457031 3.644531 L 296.472656 -6.449219 Z M 301.960938 -25.3125 "/>
<path style=" stroke:none;fill-rule:nonzero;fill:rgb(39.99939%,39.99939%,39.99939%);fill-opacity:0.3;" d="M 221.753906 71.03125 L 285.382812 88.8125 L 282.621094 102.199219 L 218.996094 87.445312 Z M 221.753906 71.03125 "/>
<path style=" stroke:none;fill-rule:nonzero;fill:rgb(39.99939%,39.99939%,39.99939%);fill-opacity:0.3;" d="M 287.808594 35.503906 L 321.792969 45.472656 L 313.710938 74.628906 L 280.421875 65.863281 Z M 287.808594 35.503906 "/>
<path style=" stroke:none;fill-rule:nonzero;fill:rgb(39.99939%,39.99939%,39.99939%);fill-opacity:0.3;" d="M 191.128906 42.589844 L 223.773438 52.242188 L 220.394531 68.367188 L 188.351562 59.148438 Z M 191.128906 42.589844 "/>
<path style=" stroke:none;fill-rule:nonzero;fill:rgb(39.99939%,39.99939%,39.99939%);fill-opacity:0.3;" d="M 148.125 29.503906 L 188.914062 42.363281 L 186.136719 58.921875 L 144.699219 47.277344 Z M 148.125 29.503906 "/>
<path style=" stroke:none;fill-rule:nonzero;fill:rgb(39.99939%,39.99939%,39.99939%);fill-opacity:0.3;" d="M 151.515625 10.671875 L 194.394531 23.011719 L 190.742188 38.035156 L 148.339844 25.214844 Z M 151.515625 10.671875 "/>
<path style=" stroke:none;fill-rule:nonzero;fill:rgb(39.99939%,39.99939%,39.99939%);fill-opacity:0.3;" d="M 196.410156 24.65625 L 227.34375 33.339844 L 224.238281 48.589844 L 192.699219 39.238281 Z M 196.410156 24.65625 "/>
<path style=" stroke:none;fill-rule:nonzero;fill:rgb(39.99939%,39.99939%,39.99939%);fill-opacity:0.3;" d="M 229.234375 33.609375 L 282.753906 49.582031 L 279.304688 64.625 L 226.101562 49.058594 Z M 229.234375 33.609375 "/>
<path style=" stroke:none;fill-rule:nonzero;fill:rgb(39.99939%,39.99939%,39.99939%);fill-opacity:0.3;" d="M 232.882812 19.039062 L 286.898438 34.773438 L 283.804688 47.046875 L 229.710938 31.097656 Z M 232.882812 19.039062 "/>
<path style=" stroke:none;fill-rule:nonzero;fill:rgb(39.99939%,39.99939%,39.99939%);fill-opacity:0.3;" d="M 200.363281 9.589844 L 231.511719 18.652344 L 228.359375 30.757812 L 197.753906 21.746094 Z M 200.363281 9.589844 "/>
<path style=" stroke:none;fill-rule:nonzero;fill:rgb(39.99939%,39.99939%,39.99939%);fill-opacity:0.3;" d="M 154.914062 -4.082031 L 198.351562 8.578125 L 195.660156 20.777344 L 152.28125 8.027344 Z M 154.914062 -4.082031 "/>
<path style=" stroke:none;fill-rule:nonzero;fill:rgb(39.99939%,39.99939%,39.99939%);fill-opacity:0.3;" d="M 237.078125 -1.371094 L 290.886719 14.027344 L 286.957031 31.902344 L 233.855469 16.03125 L 236.953125 -0.609375 Z M 237.078125 -1.371094 "/>
<path style=" stroke:none;fill-rule:nonzero;fill:rgb(39.99939%,39.99939%,39.99939%);fill-opacity:0.3;" d="M 241.117188 -20.664062 L 294.476562 -5.289062 L 291.089844 12.867188 L 237.183594 -2.613281 Z M 241.117188 -20.664062 "/>
<path style=" stroke:none;fill-rule:nonzero;fill:rgb(39.99939%,39.99939%,39.99939%);fill-opacity:0.3;" d="M 112.273438 19.457031 L 121.371094 22.046875 L 119.71875 29.953125 L 120.714844 30.097656 L 121.496094 30.210938 L 123.148438 22.628906 L 133.34375 25.410156 L 132.652344 31.175781 L 133.550781 31.277344 L 134.363281 31.371094 L 135.191406 25.863281 L 146.644531 29.183594 L 143.152344 46.980469 L 106.566406 36.742188 Z M 112.273438 19.457031 "/>
<path style=" stroke:none;fill-rule:nonzero;fill:rgb(39.99939%,39.99939%,39.99939%);fill-opacity:0.3;" d="M 106.007812 17.722656 L 110.5625 19.070312 L 104.734375 36.144531 L 99.882812 34.734375 Z M 106.007812 17.722656 "/>
<path style=" stroke:none;fill-rule:nonzero;fill:rgb(39.99939%,39.99939%,39.99939%);fill-opacity:0.3;" d="M 105.761719 38.894531 L 142.347656 48.914062 L 138.382812 68.242188 L 98.742188 58.558594 Z M 105.761719 38.894531 "/>
<path style=" stroke:none;fill-rule:nonzero;fill:rgb(39.99939%,39.99939%,39.99939%);fill-opacity:0.3;" d="M 112.160156 -2.195312 L 116.332031 -0.691406 L 111.578125 14.910156 L 107.117188 13.503906 Z M 112.160156 -2.195312 "/>
<path style=" stroke:none;fill-rule:nonzero;fill:rgb(39.99939%,39.99939%,39.99939%);fill-opacity:0.3;" d="M 117.75 0.523438 L 150.144531 10.140625 L 146.527344 25.3125 L 112.839844 15.820312 Z M 117.75 0.523438 "/>
<path style=" stroke:none;fill-rule:nonzero;fill:rgb(39.99939%,39.99939%,39.99939%);fill-opacity:0.3;" d="M 117.660156 -15.015625 L 153.382812 -4.472656 L 151.035156 7.207031 L 113.5 -3.769531 Z M 117.660156 -15.015625 "/>
<path style=" stroke:none;fill-rule:nonzero;fill:rgb(39.99939%,39.99939%,39.99939%);fill-opacity:0.3;" d="M 123.109375 -32.671875 L 160.621094 -22.65625 L 159.238281 -16.101562 L 160.054688 -15.953125 L 161.019531 -15.777344 L 162.269531 -22.183594 L 204.316406 -10.160156 L 203.132812 -4.722656 L 204.109375 -4.507812 L 204.90625 -4.335938 L 206.175781 -9.636719 L 235.519531 -1.25 L 232.078125 15.757812 L 118.070312 -17.265625 Z M 123.109375 -32.671875 "/>
<path style=" stroke:none;fill-rule:nonzero;fill:rgb(39.99939%,39.99939%,39.99939%);fill-opacity:0.3;" d="M 144.066406 49.304688 L 185.6875 60.796875 L 182.398438 78.574219 L 140.085938 68.421875 Z M 144.066406 49.304688 "/>
<path style=" stroke:none;fill-rule:nonzero;fill:rgb(39.99939%,39.99939%,39.99939%);fill-opacity:0.3;" d="M 187.933594 61.546875 L 220.035156 70.671875 L 217.304688 87 L 184.457031 79.121094 Z M 187.933594 61.546875 "/>
<path style=" stroke:none;fill-rule:nonzero;fill:rgb(39.99939%,39.99939%,39.99939%);fill-opacity:0.3;" d="M 225.789062 52.925781 L 288.863281 71.335938 L 285.816406 86.234375 L 222.464844 68.738281 Z M 225.789062 52.925781 "/>
<path style=" stroke:none;fill-rule:nonzero;fill:rgb(39.99939%,39.99939%,39.99939%);fill-opacity:0.3;" d="M 290.914062 72.816406 L 314.730469 78.074219 L 308.679688 108.925781 L 284.828125 103.300781 Z M 290.914062 72.816406 "/>
<path style=" stroke:none;fill-rule:nonzero;fill:rgb(39.99939%,39.99939%,39.99939%);fill-opacity:0.3;" d="M 98.777344 36.90625 L 103.636719 38.417969 L 96.769531 58.015625 L 91.972656 56.796875 Z M 98.777344 36.90625 "/>
<g clip-path="url(#clip19)" clip-rule="nonzero">
<path style=" stroke:none;fill-rule:nonzero;fill:rgb(39.99939%,39.99939%,39.99939%);fill-opacity:0.3;" d="M 22.828125 335.277344 L 39.414062 339.699219 L 32.308594 363.667969 L 15.746094 359.132812 Z M 22.828125 335.277344 "/>
</g>
<g clip-path="url(#clip20)" clip-rule="nonzero">
<path style=" stroke:none;fill-rule:nonzero;fill:rgb(39.99939%,39.99939%,39.99939%);fill-opacity:0.3;" d="M 41.105469 340.148438 L 57.71875 344.570312 L 50.5 368.636719 L 33.988281 364.128906 Z M 41.105469 340.148438 "/>
</g>
<g clip-path="url(#clip21)" clip-rule="nonzero">
<path style=" stroke:none;fill-rule:nonzero;fill:rgb(39.99939%,39.99939%,39.99939%);fill-opacity:0.3;" d="M 59.65625 345.085938 L 75.996094 349.433594 L 68.753906 373.613281 L 52.445312 369.167969 Z M 59.65625 345.085938 "/>
</g>
<g clip-path="url(#clip22)" clip-rule="nonzero">
<path style=" stroke:none;fill-rule:nonzero;fill:rgb(39.99939%,39.99939%,39.99939%);fill-opacity:0.3;" d="M 77.816406 349.917969 L 93.847656 354.257812 L 86.476562 378.578125 L 70.648438 374.132812 Z M 77.816406 349.917969 "/>
</g>
<path style=" stroke:none;fill-rule:nonzero;fill:rgb(39.99939%,39.99939%,39.99939%);fill-opacity:0.3;" d="M 66.613281 321.09375 L 82.472656 325.304688 L 76.613281 347.53125 L 60.117188 343.148438 Z M 66.613281 321.09375 "/>
<path style=" stroke:none;fill-rule:nonzero;fill:rgb(39.99939%,39.99939%,39.99939%);fill-opacity:0.3;" d="M 48.28125 316.164062 L 64.601562 320.589844 L 58.175781 342.628906 L 41.425781 338.171875 Z M 48.28125 316.164062 "/>
<path style=" stroke:none;fill-rule:nonzero;fill:rgb(39.99939%,39.99939%,39.99939%);fill-opacity:0.3;" d="M 29.824219 311.125 L 46.476562 315.5625 L 39.851562 337.753906 L 23.320312 333.328125 Z M 29.824219 311.125 "/>
<path style=" stroke:none;fill-rule:nonzero;fill:rgb(39.99939%,39.99939%,39.99939%);fill-opacity:0.3;" d="M 146.5625 349.574219 L 146.472656 349.890625 L 136.847656 347.722656 L 136.757812 346.808594 Z M 146.5625 349.574219 "/>
<path style=" stroke:none;fill-rule:nonzero;fill:rgb(39.99939%,39.99939%,39.99939%);fill-opacity:0.3;" d="M 136.441406 283.253906 L 153.0625 287.761719 L 144.714844 311.960938 L 128.945312 307.851562 Z M 136.441406 283.253906 "/>
<path style=" stroke:none;fill-rule:nonzero;fill:rgb(39.99939%,39.99939%,39.99939%);fill-opacity:0.3;" d="M 37.058594 286.558594 L 53.496094 291.082031 L 47 313.46875 L 30.453125 309.132812 Z M 37.058594 286.558594 "/>
<path style=" stroke:none;fill-rule:nonzero;fill:rgb(39.99939%,39.99939%,39.99939%);fill-opacity:0.3;" d="M 55.402344 291.386719 L 71.722656 296.003906 L 65.121094 318.496094 L 48.800781 313.972656 Z M 55.402344 291.386719 "/>
<path style=" stroke:none;fill-rule:nonzero;fill:rgb(39.99939%,39.99939%,39.99939%);fill-opacity:0.3;" d="M 73.945312 296.507812 L 89.832031 300.71875 L 82.890625 323.308594 L 67.238281 318.898438 Z M 73.945312 296.507812 "/>
<path style=" stroke:none;fill-rule:nonzero;fill:rgb(39.99939%,39.99939%,39.99939%);fill-opacity:0.3;" d="M 63.355469 263.429688 L 79.5 267.8125 L 72.140625 292.585938 L 55.707031 288.160156 Z M 63.355469 263.429688 "/>
<path style=" stroke:none;fill-rule:nonzero;fill:rgb(39.99939%,39.99939%,39.99939%);fill-opacity:0.3;" d="M 44.902344 258.425781 L 61.269531 262.863281 L 53.859375 287.773438 L 37.429688 283.292969 Z M 44.902344 258.425781 "/>
<path style=" stroke:none;fill-rule:nonzero;fill:rgb(39.99939%,39.99939%,39.99939%);fill-opacity:0.3;" d="M 42.917969 257.886719 L 35.703125 282.738281 L 14.886719 277.160156 L 23.261719 252.546875 Z M 42.917969 257.886719 "/>
<g clip-path="url(#clip23)" clip-rule="nonzero">
<path style=" stroke:none;fill-rule:nonzero;fill:rgb(39.99939%,39.99939%,39.99939%);fill-opacity:0.3;" d="M 13.558594 361.21875 L 7.066406 384.03125 L -3.289062 381.292969 L 3.824219 358.542969 Z M 13.558594 361.21875 "/>
</g>
<g clip-path="url(#clip24)" clip-rule="nonzero">
<path style=" stroke:none;fill-rule:nonzero;fill:rgb(39.99939%,39.99939%,39.99939%);fill-opacity:0.3;" d="M 1.804688 357.550781 L -4.886719 380.863281 L -20.089844 376.78125 L -10.902344 353.410156 Z M 1.804688 357.550781 "/>
</g>
<path style=" stroke:none;fill-rule:nonzero;fill:rgb(39.99939%,39.99939%,39.99939%);fill-opacity:0.3;" d="M 8.925781 331.554688 L 1.78125 355.296875 L -10.835938 351.230469 L -2.65625 328.457031 Z M 8.925781 331.554688 "/>
<path style=" stroke:none;fill-rule:nonzero;fill:rgb(39.99939%,39.99939%,39.99939%);fill-opacity:0.3;" d="M 10.371094 331.941406 L 21.21875 334.847656 L 14.304688 358.738281 L 3.226562 355.695312 Z M 10.371094 331.941406 "/>
<path style=" stroke:none;fill-rule:nonzero;fill:rgb(39.99939%,39.99939%,39.99939%);fill-opacity:0.3;" d="M 28.125 310.71875 L 21.789062 332.9375 L -2.046875 326.558594 L 5.71875 304.640625 Z M 28.125 310.71875 "/>
<path style=" stroke:none;fill-rule:nonzero;fill:rgb(39.99939%,39.99939%,39.99939%);fill-opacity:0.3;" d="M 35.363281 286.253906 L 28.859375 308.726562 L 6.453125 302.449219 L 14.054688 280.21875 Z M 35.363281 286.253906 "/>
<g clip-path="url(#clip25)" clip-rule="nonzero">
<path style=" stroke:none;fill-rule:nonzero;fill:rgb(39.99939%,39.99939%,39.99939%);fill-opacity:0.3;" d="M 136.804688 349.445312 L 153.539062 352.820312 L 149.605469 366.914062 L 132.277344 362.136719 Z M 136.804688 349.445312 "/>
</g>
<path style=" stroke:none;fill-rule:nonzero;fill:rgb(39.99939%,39.99939%,39.99939%);fill-opacity:0.3;" d="M 153.546875 283.363281 L 153.460938 283.574219 L 151.851562 283.144531 Z M 153.546875 283.363281 "/>
<g clip-path="url(#clip26)" clip-rule="nonzero">
<path style=" stroke:none;fill-rule:nonzero;fill:rgb(39.99939%,39.99939%,39.99939%);fill-opacity:0.3;" d="M 113.992188 359.34375 L 130.101562 363.621094 L 122.421875 388.261719 L 106.371094 383.925781 Z M 113.992188 359.34375 "/>
</g>
<g clip-path="url(#clip27)" clip-rule="nonzero">
<path style=" stroke:none;fill-rule:nonzero;fill:rgb(39.99939%,39.99939%,39.99939%);fill-opacity:0.3;" d="M 95.738281 354.757812 L 111.648438 358.722656 L 104.324219 383.167969 L 88.066406 379.011719 Z M 95.738281 354.757812 "/>
</g>
<g clip-path="url(#clip28)" clip-rule="nonzero">
<path style=" stroke:none;fill-rule:nonzero;fill:rgb(39.99939%,39.99939%,39.99939%);fill-opacity:0.3;" d="M 120.601562 335.371094 L 134.746094 339.304688 L 135.507812 347.390625 L 134.644531 351.359375 L 130.742188 361.726562 L 114.382812 357.382812 Z M 120.601562 335.371094 "/>
</g>
<path style=" stroke:none;fill-rule:nonzero;fill:rgb(39.99939%,39.99939%,39.99939%);fill-opacity:0.3;" d="M 102.546875 330.855469 L 118.355469 335.019531 L 112.097656 356.777344 L 96.691406 352.867188 Z M 102.546875 330.855469 "/>
<path style=" stroke:none;fill-rule:nonzero;fill:rgb(39.99939%,39.99939%,39.99939%);fill-opacity:0.3;" d="M 84.59375 325.804688 L 100.648438 330.316406 L 94.730469 352.347656 L 78.429688 348.015625 Z M 84.59375 325.804688 "/>
<path style=" stroke:none;fill-rule:nonzero;fill:rgb(39.99939%,39.99939%,39.99939%);fill-opacity:0.3;" d="M 92.160156 301.222656 L 108.691406 305.863281 L 101.777344 328.121094 L 85.21875 323.710938 Z M 92.160156 301.222656 "/>
<path style=" stroke:none;fill-rule:nonzero;fill:rgb(39.99939%,39.99939%,39.99939%);fill-opacity:0.3;" d="M 110.449219 306.253906 L 126.175781 310.394531 L 119.640625 332.976562 L 103.683594 328.824219 Z M 110.449219 306.253906 "/>
<path style=" stroke:none;fill-rule:nonzero;fill:rgb(39.99939%,39.99939%,39.99939%);fill-opacity:0.3;" d="M 127.65625 310.792969 L 143.554688 315.28125 L 135.691406 337.308594 L 121.015625 333.476562 Z M 127.65625 310.792969 "/>
<path style=" stroke:none;fill-rule:nonzero;fill:rgb(39.99939%,39.99939%,39.99939%);fill-opacity:0.3;" d="M 118.625 278.421875 L 134.851562 282.824219 L 127.460938 307.453125 L 110.871094 302.984375 Z M 118.625 278.421875 "/>
<path style=" stroke:none;fill-rule:nonzero;fill:rgb(39.99939%,39.99939%,39.99939%);fill-opacity:0.3;" d="M 100.035156 273.382812 L 116.820312 277.933594 L 109.355469 302.640625 L 92.265625 298.101562 Z M 100.035156 273.382812 "/>
<path style=" stroke:none;fill-rule:nonzero;fill:rgb(39.99939%,39.99939%,39.99939%);fill-opacity:0.3;" d="M 81.578125 268.375 L 98.195312 272.882812 L 90.144531 297.5 L 74.046875 293.1875 Z M 81.578125 268.375 "/>
<path style=" stroke:none;fill-rule:nonzero;fill:rgb(39.99939%,39.99939%,39.99939%);fill-opacity:0.3;" d="M 300.734375 292.449219 L 302.367188 292.863281 L 301.9375 294.402344 L 302.75 294.609375 L 303.566406 294.816406 L 304 293.277344 L 305.628906 293.691406 L 304.335938 298.3125 L 302.703125 297.898438 L 303.136719 296.359375 L 301.503906 295.945312 L 301.074219 297.484375 L 299.441406 297.070312 Z M 300.734375 292.449219 "/>
<g clip-path="url(#clip29)" clip-rule="nonzero">
<path style=" stroke:none;fill-rule:nonzero;fill:rgb(39.99939%,39.99939%,39.99939%);fill-opacity:0.3;" d="M 345.027344 301.871094 L 344.875 302.4375 L 347.894531 303.367188 L 348.132812 302.539062 L 356.046875 305.09375 L 362.117188 308.679688 L 353.535156 321.824219 L 339.988281 317.996094 L 290.605469 304.148438 L 293.515625 295.109375 L 292.878906 294.902344 L 292.257812 294.703125 L 289.1875 303.75 L 264.003906 296.6875 L 268.011719 283.554688 L 268.90625 280.007812 L 285.371094 285.101562 L 285.523438 284.769531 L 285.675781 284.429688 L 269.140625 279.125 L 271.535156 271.792969 L 288.074219 276.640625 L 288.222656 276.25 L 309.675781 282.183594 L 309.675781 293.777344 L 325.40625 298.191406 Z M 345.027344 301.871094 "/>
</g>
<g clip-path="url(#clip30)" clip-rule="nonzero">
<path style=" stroke:none;fill-rule:nonzero;fill:rgb(39.99939%,39.99939%,39.99939%);fill-opacity:0.3;" d="M 343.441406 356.242188 L 355.765625 359.902344 L 343.640625 400.292969 L 331.5 396.785156 Z M 343.441406 356.242188 "/>
</g>
<g clip-path="url(#clip31)" clip-rule="nonzero">
<path style=" stroke:none;fill-rule:nonzero;fill:rgb(39.99939%,39.99939%,39.99939%);fill-opacity:0.3;" d="M 333.804688 343.71875 L 344.367188 346.414062 L 329.738281 395.746094 L 319.191406 392.769531 Z M 333.804688 343.71875 "/>
</g>
<g clip-path="url(#clip32)" clip-rule="nonzero">
<path style=" stroke:none;fill-rule:nonzero;fill:rgb(39.99939%,39.99939%,39.99939%);fill-opacity:0.3;" d="M 321.023438 340.421875 L 332.0625 343.238281 L 317.042969 392.230469 L 306.703125 389.351562 Z M 321.023438 340.421875 "/>
</g>
<g clip-path="url(#clip33)" clip-rule="nonzero">
<path style=" stroke:none;fill-rule:nonzero;fill:rgb(39.99939%,39.99939%,39.99939%);fill-opacity:0.3;" d="M 307.953125 337.054688 L 319.28125 340.007812 L 304.710938 388.75 L 293.496094 385.660156 Z M 307.953125 337.054688 "/>
</g>
<g clip-path="url(#clip34)" clip-rule="nonzero">
<path style=" stroke:none;fill-rule:nonzero;fill:rgb(39.99939%,39.99939%,39.99939%);fill-opacity:0.3;" d="M 294.691406 333.082031 L 305.179688 336.40625 L 290.980469 384.878906 L 280.324219 381.863281 Z M 294.691406 333.082031 "/>
</g>
<g clip-path="url(#clip35)" clip-rule="nonzero">
<path style=" stroke:none;fill-rule:nonzero;fill:rgb(39.99939%,39.99939%,39.99939%);fill-opacity:0.3;" d="M 282.558594 329.375 L 292.65625 332.535156 L 278.03125 381.1875 L 268.6875 378.53125 Z M 282.558594 329.375 "/>
</g>
<g clip-path="url(#clip36)" clip-rule="nonzero">
<path style=" stroke:none;fill-rule:nonzero;fill:rgb(39.99939%,39.99939%,39.99939%);fill-opacity:0.3;" d="M 270.648438 325.9375 L 280.960938 329.03125 L 266.53125 378.042969 L 256.484375 375.242188 Z M 270.648438 325.9375 "/>
</g>
<g clip-path="url(#clip37)" clip-rule="nonzero">
<path style=" stroke:none;fill-rule:nonzero;fill:rgb(39.99939%,39.99939%,39.99939%);fill-opacity:0.3;" d="M 258.296875 322.023438 L 268.832031 325.25 L 254.152344 374.574219 L 244.433594 371.777344 Z M 258.296875 322.023438 "/>
</g>
<path style=" stroke:none;fill-rule:nonzero;fill:rgb(39.99939%,39.99939%,39.99939%);fill-opacity:0.3;" d="M 312.171875 322.039062 L 348.886719 332.136719 L 344.84375 345.023438 L 308.195312 335.785156 Z M 312.171875 322.039062 "/>
<path style=" stroke:none;fill-rule:nonzero;fill:rgb(39.99939%,39.99939%,39.99939%);fill-opacity:0.3;" d="M 262.246094 308.257812 L 309.78125 321.457031 L 305.464844 335.246094 L 258.59375 320.90625 Z M 262.246094 308.257812 "/>
<g clip-path="url(#clip38)" clip-rule="nonzero">
<path style=" stroke:none;fill-rule:nonzero;fill:rgb(39.99939%,39.99939%,39.99939%);fill-opacity:0.3;" d="M 352.699219 326.789062 L 392.917969 337.65625 L 384.695312 364.804688 L 344.488281 352.6875 Z M 352.699219 326.789062 "/>
</g>
<path style=" stroke:none;fill-rule:nonzero;fill:rgb(39.99939%,39.99939%,39.99939%);fill-opacity:0.3;" d="M 298.558594 298.675781 L 300.191406 299.089844 L 299.761719 300.628906 L 300.574219 300.835938 L 301.390625 301.042969 L 301.820312 299.503906 L 303.453125 299.917969 L 302.160156 304.539062 L 300.527344 304.125 L 300.960938 302.585938 L 299.328125 302.171875 L 298.898438 303.710938 L 297.265625 303.296875 Z M 298.558594 298.675781 "/>
<path style=" stroke:none;fill-rule:nonzero;fill:rgb(39.99939%,39.99939%,39.99939%);fill-opacity:0.3;" d="M 311.761719 302.734375 L 313.390625 303.148438 L 312.960938 304.6875 L 313.777344 304.894531 L 314.589844 305.101562 L 315.023438 303.5625 L 316.652344 303.976562 L 315.359375 308.597656 L 313.726562 308.183594 L 314.160156 306.640625 L 312.527344 306.226562 L 312.097656 307.769531 L 310.464844 307.355469 Z M 311.761719 302.734375 "/>
<path style=" stroke:none;fill-rule:nonzero;fill:rgb(39.99939%,39.99939%,39.99939%);fill-opacity:0.3;" d="M 327.269531 306.789062 L 328.898438 307.203125 L 328.464844 308.746094 L 330.097656 309.160156 L 330.527344 307.617188 L 332.160156 308.03125 L 330.863281 312.652344 L 329.234375 312.238281 L 329.664062 310.699219 L 328.847656 310.492188 L 328.035156 310.285156 L 327.601562 311.824219 L 325.972656 311.414062 Z M 327.269531 306.789062 "/>
<path style=" stroke:none;fill-rule:nonzero;fill:rgb(39.99939%,39.99939%,39.99939%);fill-opacity:0.3;" d="M 328.894531 300.046875 L 330.527344 300.457031 L 330.09375 302 L 331.726562 302.414062 L 332.15625 300.871094 L 333.789062 301.285156 L 332.492188 305.90625 L 330.863281 305.492188 L 331.292969 303.953125 L 330.476562 303.746094 L 329.664062 303.539062 L 329.230469 305.082031 L 327.601562 304.667969 Z M 328.894531 300.046875 "/>
<path style=" stroke:none;fill-rule:nonzero;fill:rgb(39.99939%,39.99939%,39.99939%);fill-opacity:0.3;" d="M 313.714844 295.882812 L 315.347656 296.296875 L 314.914062 297.835938 L 316.546875 298.25 L 316.976562 296.710938 L 318.609375 297.125 L 317.316406 301.746094 L 315.683594 301.332031 L 316.117188 299.792969 L 314.484375 299.378906 L 314.054688 300.917969 L 312.421875 300.503906 Z M 313.714844 295.882812 "/>
<path style=" stroke:none;fill-rule:nonzero;fill:rgb(39.99939%,39.99939%,39.99939%);fill-opacity:0.3;" d="M 340.703125 320.488281 L 351.867188 323.585938 L 349.394531 330.777344 L 338.464844 327.714844 Z M 340.703125 320.488281 "/>
<path style=" stroke:none;fill-rule:nonzero;fill:rgb(39.99939%,39.99939%,39.99939%);fill-opacity:0.3;" d="M 328.734375 317.125 L 339.5625 320.136719 L 337.507812 327.261719 L 326.636719 324.417969 Z M 328.734375 317.125 "/>
<path style=" stroke:none;fill-rule:nonzero;fill:rgb(39.99939%,39.99939%,39.99939%);fill-opacity:0.3;" d="M 314.957031 313.304688 L 326.121094 316.511719 L 324.003906 323.574219 L 312.859375 320.535156 Z M 314.957031 313.304688 "/>
<path style=" stroke:none;fill-rule:nonzero;fill:rgb(39.99939%,39.99939%,39.99939%);fill-opacity:0.3;" d="M 302.214844 309.792969 L 312.570312 312.707031 L 310.628906 319.933594 L 300.046875 317.023438 Z M 302.214844 309.792969 "/>
<path style=" stroke:none;fill-rule:nonzero;fill:rgb(39.99939%,39.99939%,39.99939%);fill-opacity:0.3;" d="M 289.878906 306.480469 L 300.003906 309.269531 L 297.972656 316.492188 L 287.644531 313.453125 Z M 289.878906 306.480469 "/>
<path style=" stroke:none;fill-rule:nonzero;fill:rgb(39.99939%,39.99939%,39.99939%);fill-opacity:0.3;" d="M 277.433594 302.980469 L 288.234375 306.136719 L 285.902344 313.273438 L 275.472656 310.207031 Z M 277.433594 302.980469 "/>
<path style=" stroke:none;fill-rule:nonzero;fill:rgb(39.99939%,39.99939%,39.99939%);fill-opacity:0.3;" d="M 265.453125 299.820312 L 275.566406 302.515625 L 273.433594 309.648438 L 263.363281 306.90625 Z M 265.453125 299.820312 "/>
<path style=" stroke:none;fill-rule:nonzero;fill:rgb(39.99939%,39.99939%,39.99939%);fill-opacity:0.3;" d="M 309.675781 292.335938 L 309.472656 292.28125 L 309.675781 291.617188 Z M 309.675781 292.335938 "/>
<path style=" stroke:none;fill-rule:nonzero;fill:rgb(39.99939%,39.99939%,39.99939%);fill-opacity:0.3;" d="M 266.839844 282.214844 L 263.980469 290.566406 L 263.921875 290.550781 Z M 266.839844 282.214844 "/>
<path style=" stroke:none;fill-rule:nonzero;fill:rgb(39.99939%,39.99939%,39.99939%);fill-opacity:0.3;" d="M 53.367188 197.367188 L 56.523438 197.511719 L 55.8125 209.964844 L 52.65625 209.820312 Z M 53.367188 197.367188 "/>
<path style=" stroke:none;fill-rule:nonzero;fill:rgb(39.99939%,39.99939%,39.99939%);fill-opacity:0.3;" d="M 58.824219 197.644531 L 61.980469 197.785156 L 61.273438 210.238281 L 58.117188 210.09375 Z M 58.824219 197.644531 "/>
<path style=" stroke:none;fill-rule:nonzero;fill:rgb(39.99939%,39.99939%,39.99939%);fill-opacity:0.3;" d="M 63.601562 198.101562 L 66.757812 198.246094 L 66.054688 210.699219 L 62.894531 210.554688 Z M 63.601562 198.101562 "/>
<path style=" stroke:none;fill-rule:nonzero;fill:rgb(39.99939%,39.99939%,39.99939%);fill-opacity:0.3;" d="M 71.492188 198.035156 L 74.648438 198.179688 L 73.949219 210.628906 L 70.789062 210.488281 Z M 71.492188 198.035156 "/>
<path style=" stroke:none;fill-rule:nonzero;fill:rgb(39.99939%,39.99939%,39.99939%);fill-opacity:0.3;" d="M 52.355469 214.644531 L 55.195312 214.84375 L 54.804688 219.460938 L 51.964844 219.261719 Z M 52.355469 214.644531 "/>
<path style=" stroke:none;fill-rule:nonzero;fill:rgb(39.99939%,39.99939%,39.99939%);fill-opacity:0.3;" d="M 51.679688 226.523438 L 54.519531 226.722656 L 54.128906 231.339844 L 51.289062 231.140625 Z M 51.679688 226.523438 "/>
<path style=" stroke:none;fill-rule:nonzero;fill:rgb(39.99939%,39.99939%,39.99939%);fill-opacity:0.3;" d="M 56.578125 226.84375 L 59.421875 227.042969 L 59.03125 231.660156 L 56.1875 231.460938 Z M 56.578125 226.84375 "/>
<path style=" stroke:none;fill-rule:nonzero;fill:rgb(39.99939%,39.99939%,39.99939%);fill-opacity:0.3;" d="M 56.332031 220.6875 L 59.175781 220.886719 L 58.785156 225.503906 L 55.945312 225.304688 Z M 56.332031 220.6875 "/>
<path style=" stroke:none;fill-rule:nonzero;fill:rgb(39.99939%,39.99939%,39.99939%);fill-opacity:0.3;" d="M 57.050781 214.644531 L 59.890625 214.84375 L 59.5 219.460938 L 56.660156 219.261719 Z M 57.050781 214.644531 "/>
<path style=" stroke:none;fill-rule:nonzero;fill:rgb(39.99939%,39.99939%,39.99939%);fill-opacity:0.3;" d="M 65.644531 214.65625 L 68.945312 214.808594 L 67.902344 232.878906 L 64.597656 232.722656 Z M 65.644531 214.65625 "/>
<path style=" stroke:none;fill-rule:nonzero;fill:rgb(39.99939%,39.99939%,39.99939%);fill-opacity:0.3;" d="M 69.824219 227.25 L 72.292969 227.363281 L 71.988281 232.761719 L 69.519531 232.648438 Z M 69.824219 227.25 "/>
<path style=" stroke:none;fill-rule:nonzero;fill:rgb(39.99939%,39.99939%,39.99939%);fill-opacity:0.3;" d="M 37.851562 241.917969 L 40.324219 241.917969 L 40.285156 247.324219 L 37.8125 247.324219 Z M 37.851562 241.917969 "/>
<path style=" stroke:none;fill-rule:nonzero;fill:rgb(39.99939%,39.99939%,39.99939%);fill-opacity:0.3;" d="M 42.1875 241.703125 L 44.660156 241.699219 L 44.621094 247.109375 L 42.148438 247.109375 Z M 42.1875 241.703125 "/>
<path style=" stroke:none;fill-rule:nonzero;fill:rgb(39.99939%,39.99939%,39.99939%);fill-opacity:0.3;" d="M 42.460938 235.023438 L 44.933594 235.023438 L 44.898438 240.425781 L 42.421875 240.425781 Z M 42.460938 235.023438 "/>
<path style=" stroke:none;fill-rule:nonzero;fill:rgb(39.99939%,39.99939%,39.99939%);fill-opacity:0.3;" d="M 43.125 228.09375 L 45.59375 228.09375 L 45.558594 233.496094 L 43.085938 233.496094 Z M 43.125 228.09375 "/>
<path style=" stroke:none;fill-rule:nonzero;fill:rgb(39.99939%,39.99939%,39.99939%);fill-opacity:0.3;" d="M 54.863281 249.070312 L 57.335938 249.070312 L 57.289062 254.496094 L 54.820312 254.496094 Z M 54.863281 249.070312 "/>
<path style=" stroke:none;fill-rule:nonzero;fill:rgb(39.99939%,39.99939%,39.99939%);fill-opacity:0.3;" d="M 58.28125 243.535156 L 60.753906 243.535156 L 60.710938 248.953125 L 58.238281 248.949219 Z M 58.28125 243.535156 "/>
<path style=" stroke:none;fill-rule:nonzero;fill:rgb(39.99939%,39.99939%,39.99939%);fill-opacity:0.3;" d="M 54.84375 237.53125 L 57.316406 237.53125 L 57.28125 242.941406 L 54.808594 242.941406 Z M 54.84375 237.53125 "/>
<path style=" stroke:none;fill-rule:nonzero;fill:rgb(39.99939%,39.99939%,39.99939%);fill-opacity:0.3;" d="M 50.875 237.625 L 53.347656 237.625 L 53.3125 243.035156 L 50.839844 243.03125 Z M 50.875 237.625 "/>
<path style=" stroke:none;fill-rule:nonzero;fill:rgb(39.99939%,39.99939%,39.99939%);fill-opacity:0.3;" d="M 125.15625 200.5625 L 160.0625 211.683594 L 170.070312 214.753906 L 172.1875 215.289062 L 171.117188 222.566406 L 167.253906 241.886719 L 167.003906 243.019531 L 144.152344 237.367188 L 145.816406 230.253906 L 145.339844 230.097656 L 144.617188 229.859375 L 136.558594 256.015625 L 123.632812 251.542969 L 132 225.496094 L 131.378906 225.335938 L 130.566406 225.121094 L 131.273438 223.042969 L 118.597656 218.675781 Z M 125.15625 200.5625 "/>
<path style=" stroke:none;fill-rule:nonzero;fill:rgb(39.99939%,39.99939%,39.99939%);fill-opacity:0.3;" d="M 101.761719 204.761719 L 104.921875 204.90625 L 104.230469 217.363281 L 101.070312 217.214844 Z M 101.761719 204.761719 "/>
<path style=" stroke:none;fill-rule:nonzero;fill:rgb(39.99939%,39.99939%,39.99939%);fill-opacity:0.3;" d="M 96.191406 216.289062 L 98.660156 216.402344 L 98.359375 221.800781 L 95.890625 221.6875 Z M 96.191406 216.289062 "/>
<path style=" stroke:none;fill-rule:nonzero;fill:rgb(39.99939%,39.99939%,39.99939%);fill-opacity:0.3;" d="M 95.65625 224.523438 L 98.816406 224.667969 L 98.113281 237.136719 L 94.953125 236.992188 Z M 95.65625 224.523438 "/>
<path style=" stroke:none;fill-rule:nonzero;fill:rgb(39.99939%,39.99939%,39.99939%);fill-opacity:0.3;" d="M 94.003906 203.882812 L 100.324219 204.132812 L 100.207031 206.625 L 93.882812 206.375 Z M 94.003906 203.882812 "/>
<path style=" stroke:none;fill-rule:nonzero;fill:rgb(39.99939%,39.99939%,39.99939%);fill-opacity:0.3;" d="M 125.15625 200.5625 L 118.597656 218.675781 L 131.273438 223.042969 L 130.566406 225.121094 L 120.703125 252.917969 L 160.8125 265.4375 L 153.546875 283.363281 L 151.851562 283.144531 L 91.742188 267.070312 L 24.847656 248.59375 L 42.730469 199.121094 L 73.289062 184.171875 L 114.929688 197.332031 Z M 125.15625 200.5625 "/>
<path style=" stroke:none;fill-rule:nonzero;fill:rgb(39.99939%,39.99939%,39.99939%);fill-opacity:0.3;" d="M 143.144531 238.242188 L 166.761719 244.097656 L 162.332031 264.027344 L 160.730469 263.75 L 137.589844 256.570312 Z M 143.144531 238.242188 "/>
<path style=" stroke:none;fill-rule:nonzero;fill:rgb(39.99939%,39.99939%,39.99939%);fill-opacity:0.3;" d="M 76.882812 197.863281 L 83.199219 198.113281 L 83.078125 200.601562 L 76.757812 200.355469 Z M 76.882812 197.863281 "/>
<path style=" stroke:none;fill-rule:nonzero;fill:rgb(39.99939%,39.99939%,39.99939%);fill-opacity:0.3;" d="M 84.027344 198.125 L 87.1875 198.269531 L 86.492188 210.722656 L 83.332031 210.578125 Z M 84.027344 198.125 "/>
<path style=" stroke:none;fill-rule:nonzero;fill:rgb(39.99939%,39.99939%,39.99939%);fill-opacity:0.3;" d="M 88.785156 203.839844 L 91.945312 203.984375 L 91.25 216.441406 L 88.089844 216.296875 Z M 88.785156 203.839844 "/>
<path style=" stroke:none;fill-rule:nonzero;fill:rgb(39.99939%,39.99939%,39.99939%);fill-opacity:0.3;" d="M 91.800781 216.105469 L 94.269531 216.21875 L 93.96875 221.617188 L 91.5 221.5 Z M 91.800781 216.105469 "/>
<path style=" stroke:none;fill-rule:nonzero;fill:rgb(39.99939%,39.99939%,39.99939%);fill-opacity:0.3;" d="M 91.113281 224.097656 L 94.273438 224.242188 L 93.570312 236.710938 L 90.410156 236.5625 Z M 91.113281 224.097656 "/>
<path style=" stroke:none;fill-rule:nonzero;fill:rgb(39.99939%,39.99939%,39.99939%);fill-opacity:0.3;" d="M 72.503906 214.667969 L 74.96875 214.78125 L 74.664062 220.175781 L 72.195312 220.0625 Z M 72.503906 214.667969 "/>
<path style=" stroke:none;fill-rule:nonzero;fill:rgb(39.99939%,39.99939%,39.99939%);fill-opacity:0.3;" d="M 77.839844 220.984375 L 81 221.132812 L 80.296875 233.589844 L 77.136719 233.445312 Z M 77.839844 220.984375 "/>
<path style=" stroke:none;fill-rule:nonzero;fill:rgb(39.99939%,39.99939%,39.99939%);fill-opacity:0.3;" d="M 82.382812 221.410156 L 85.542969 221.554688 L 84.839844 234.015625 L 81.679688 233.871094 Z M 82.382812 221.410156 "/>
<path style=" stroke:none;fill-rule:nonzero;fill:rgb(39.99939%,39.99939%,39.99939%);fill-opacity:0.3;" d="M 79.039062 255.121094 L 81.511719 255.121094 L 81.558594 260.535156 L 79.089844 260.535156 Z M 79.039062 255.121094 "/>
<path style=" stroke:none;fill-rule:nonzero;fill:rgb(39.99939%,39.99939%,39.99939%);fill-opacity:0.3;" d="M 79.351562 242.527344 L 81.824219 242.527344 L 81.78125 247.945312 L 79.308594 247.945312 Z M 79.351562 242.527344 "/>
<path style=" stroke:none;fill-rule:nonzero;fill:rgb(39.99939%,39.99939%,39.99939%);fill-opacity:0.3;" d="M 79.003906 249.007812 L 81.476562 249.007812 L 81.421875 254.433594 L 78.945312 254.433594 Z M 79.003906 249.007812 "/>
<path style=" stroke:none;fill-rule:nonzero;fill:rgb(39.99939%,39.99939%,39.99939%);fill-opacity:0.3;" d="M 87.867188 256.253906 L 90.339844 256.253906 L 90.390625 261.667969 L 87.917969 261.664062 Z M 87.867188 256.253906 "/>
<path style=" stroke:none;fill-rule:nonzero;fill:rgb(39.99939%,39.99939%,39.99939%);fill-opacity:0.3;" d="M 88.21875 249.761719 L 90.691406 249.765625 L 90.636719 255.191406 L 88.164062 255.191406 Z M 88.21875 249.761719 "/>
<path style=" stroke:none;fill-rule:nonzero;fill:rgb(39.99939%,39.99939%,39.99939%);fill-opacity:0.3;" d="M 92.839844 242.625 L 95.3125 242.628906 L 95.269531 248.046875 L 92.796875 248.046875 Z M 92.839844 242.625 "/>
<path style=" stroke:none;fill-rule:nonzero;fill:rgb(39.99939%,39.99939%,39.99939%);fill-opacity:0.3;" d="M 88.46875 243.375 L 90.941406 243.375 L 90.898438 248.796875 L 88.425781 248.792969 Z M 88.46875 243.375 "/>
<path style=" stroke:none;fill-rule:nonzero;fill:rgb(39.99939%,39.99939%,39.99939%);fill-opacity:0.3;" d="M 79.972656 213.113281 L 82.082031 213.109375 L 82.070312 216.105469 L 79.960938 216.105469 Z M 79.972656 213.113281 "/>
<path style=" stroke:none;fill-rule:nonzero;fill:rgb(39.99939%,39.99939%,39.99939%);fill-opacity:0.3;" d="M 76.496094 213.019531 L 78.605469 213.019531 L 78.589844 216.011719 L 76.480469 216.011719 Z M 76.496094 213.019531 "/>
<path style=" stroke:none;fill-rule:nonzero;fill:rgb(39.99939%,39.99939%,39.99939%);fill-opacity:0.3;" d="M 148.984375 208.726562 L 150.511719 209.113281 L 150.097656 210.5625 L 150.859375 210.753906 L 151.625 210.949219 L 152.039062 209.503906 L 153.566406 209.890625 L 152.324219 214.230469 L 150.796875 213.839844 L 151.210938 212.394531 L 150.445312 212.203125 L 149.683594 212.007812 L 149.269531 213.453125 L 147.742188 213.066406 Z M 148.984375 208.726562 "/>
<path style=" stroke:none;fill-rule:nonzero;fill:rgb(39.99939%,39.99939%,39.99939%);fill-opacity:0.3;" d="M 146.109375 219.226562 L 147.636719 219.613281 L 147.21875 221.0625 L 147.984375 221.253906 L 148.746094 221.449219 L 149.164062 220.003906 L 150.691406 220.390625 L 149.441406 224.730469 L 147.917969 224.34375 L 148.332031 222.894531 L 147.570312 222.703125 L 146.804688 222.507812 L 146.390625 223.957031 L 144.863281 223.566406 Z M 146.109375 219.226562 "/>
<path style=" stroke:none;fill-rule:nonzero;fill:rgb(39.99939%,39.99939%,39.99939%);fill-opacity:0.3;" d="M 147.910156 214.246094 L 149.4375 214.632812 L 149.023438 216.082031 L 150.550781 216.46875 L 150.964844 215.023438 L 152.492188 215.410156 L 151.246094 219.75 L 149.71875 219.363281 L 150.136719 217.914062 L 148.609375 217.527344 L 148.195312 218.972656 L 146.667969 218.585938 Z M 147.910156 214.246094 "/>
<path style=" stroke:none;fill-rule:nonzero;fill:rgb(39.99939%,39.99939%,39.99939%);fill-opacity:0.3;" d="M 138.558594 216.621094 L 140.085938 217.011719 L 139.667969 218.457031 L 140.433594 218.648438 L 141.195312 218.84375 L 141.613281 217.398438 L 143.140625 217.785156 L 141.894531 222.125 L 140.367188 221.738281 L 140.78125 220.292969 L 139.945312 220.078125 L 139.253906 219.902344 L 138.839844 221.351562 L 137.3125 220.960938 Z M 138.558594 216.621094 "/>
<g clip-path="url(#clip39)" clip-rule="nonzero">
<path style=" stroke:none;fill-rule:nonzero;fill:rgb(39.99939%,39.99939%,39.99939%);fill-opacity:0.3;" d="M 338.628906 171.945312 L 347.257812 174.125 L 345.863281 179.421875 L 347.425781 179.8125 L 348.800781 174.875 L 355.363281 176.472656 L 353.902344 181.539062 L 355.429688 181.925781 L 356.90625 176.886719 L 369.261719 180.15625 L 367.085938 188.617188 L 365.707031 193.03125 L 336.722656 185.304688 L 338.105469 181.4375 L 337 177.300781 Z M 338.628906 171.945312 "/>
</g>
<g clip-path="url(#clip40)" clip-rule="nonzero">
<path style=" stroke:none;fill-rule:nonzero;fill:rgb(39.99939%,39.99939%,39.99939%);fill-opacity:0.3;" d="M 357.898438 188.949219 L 358.964844 184.371094 L 360.648438 184.722656 L 360.433594 185.65625 L 361.058594 185.785156 L 361.683594 185.917969 L 361.898438 184.980469 L 363.480469 185.3125 L 362.414062 189.890625 L 360.835938 189.5625 L 360.984375 188.90625 L 360.320312 188.769531 L 359.734375 188.644531 L 359.582031 189.300781 Z M 357.898438 188.949219 "/>
</g>
<g clip-path="url(#clip41)" clip-rule="nonzero">
<path style=" stroke:none;fill-rule:nonzero;fill:rgb(39.99939%,39.99939%,39.99939%);fill-opacity:0.3;" d="M 355.996094 182.820312 L 357.0625 178.242188 L 358.746094 178.59375 L 358.527344 179.527344 L 359.152344 179.65625 L 359.777344 179.789062 L 359.996094 178.851562 L 361.574219 179.183594 L 360.507812 183.761719 L 358.929688 183.429688 L 359.082031 182.777344 L 358.457031 182.648438 L 357.832031 182.515625 L 357.679688 183.171875 Z M 355.996094 182.820312 "/>
</g>
<path style=" stroke:none;fill-rule:nonzero;fill:rgb(39.99939%,39.99939%,39.99939%);fill-opacity:0.3;" d="M 348.890625 186.589844 L 349.957031 182.011719 L 351.640625 182.363281 L 351.421875 183.296875 L 352.046875 183.429688 L 352.671875 183.558594 L 352.890625 182.625 L 354.46875 182.953125 L 353.402344 187.53125 L 351.824219 187.203125 L 351.976562 186.550781 L 351.351562 186.417969 L 350.726562 186.289062 L 350.574219 186.941406 Z M 348.890625 186.589844 "/>
<path style=" stroke:none;fill-rule:nonzero;fill:rgb(39.99939%,39.99939%,39.99939%);fill-opacity:0.3;" d="M 348.222656 180.257812 L 349.289062 175.679688 L 350.972656 176.03125 L 350.757812 176.964844 L 352.007812 177.222656 L 352.222656 176.289062 L 353.804688 176.621094 L 352.738281 181.199219 L 351.160156 180.867188 L 351.3125 180.214844 L 350.6875 180.085938 L 350.0625 179.953125 L 349.910156 180.609375 Z M 348.222656 180.257812 "/>
<path style=" stroke:none;fill-rule:nonzero;fill:rgb(39.99939%,39.99939%,39.99939%);fill-opacity:0.3;" d="M 339.644531 183.859375 L 340.710938 179.28125 L 342.398438 179.632812 L 342.179688 180.566406 L 342.804688 180.695312 L 343.429688 180.828125 L 343.648438 179.894531 L 345.226562 180.222656 L 344.160156 184.800781 L 342.582031 184.472656 L 342.734375 183.816406 L 341.484375 183.558594 L 341.332031 184.210938 Z M 339.644531 183.859375 "/>
<path style=" stroke:none;fill-rule:nonzero;fill:rgb(39.99939%,39.99939%,39.99939%);fill-opacity:0.3;" d="M 339.539062 177.75 L 340.605469 173.175781 L 342.289062 173.523438 L 342.074219 174.460938 L 343.324219 174.71875 L 343.539062 173.785156 L 345.121094 174.113281 L 344.054688 178.691406 L 342.476562 178.363281 L 342.628906 177.710938 L 342.003906 177.578125 L 341.378906 177.449219 L 341.226562 178.101562 Z M 339.539062 177.75 "/>
<path style="fill-rule:nonzero;fill:rgb(39.99939%,39.99939%,39.99939%);fill-opacity:1;stroke-width:0.03;stroke-linecap:square;stroke-linejoin:miter;stroke:rgb(39.99939%,39.99939%,39.99939%);stroke-opacity:1;stroke-miterlimit:3.239307;" d="M 266.300781 263.382812 L 265.261719 266.933594 L 266.023438 267.132812 L 266.789062 267.335938 L 267.816406 263.816406 L 268.007812 263.871094 L 272.757812 265.863281 L 276.140625 267.371094 L 279.597656 268.335938 L 282.699219 269.234375 L 285.4375 269.808594 L 288.714844 270.355469 L 292.617188 271.054688 L 285.023438 297.789062 L 264.152344 293.117188 L 262.515625 300.023438 L 263.253906 300.164062 L 264.039062 300.308594 L 265.132812 295.304688 L 284.921875 299.628906 L 283.34375 306.824219 L 284.117188 306.996094 L 285.921875 307.371094 L 286.871094 302.371094 L 290.976562 303.148438 L 291.144531 302.375 L 291.265625 301.808594 L 285.925781 300.574219 L 287.570312 293.207031 L 318.550781 300.101562 L 316.832031 305.609375 L 317.636719 305.796875 L 318.277344 305.949219 L 319.941406 300.582031 L 337.273438 304.742188 L 334.359375 314.726562 L 329.5 313.558594 L 330.140625 310.890625 L 328.742188 310.46875 L 327.34375 310.042969 L 326.050781 314.5 L 333.710938 316.507812 L 332.28125 321.570312 L 329.53125 320.886719 L 325.714844 319.472656 L 303.082031 313.398438 L 302.960938 313.367188 L 304.683594 306.269531 L 308.683594 307.128906 L 308.972656 305.992188 L 309.164062 305.226562 L 294.445312 301.605469 L 294.226562 302.519531 L 294 303.480469 L 303.230469 305.855469 L 301.472656 312.980469 L 240.425781 297.113281 L 235.015625 296.34375 L 231.175781 295.339844 L 236.453125 279.160156 L 243.320312 280.226562 L 249.980469 281.191406 L 259.089844 283.828125 L 258.488281 288.363281 L 259.039062 288.386719 L 259.59375 288.414062 L 260.195312 282.636719 L 252.425781 280.796875 L 257.050781 261.292969 Z M 266.300781 263.382812 " transform="matrix(1,0,0,1,-74,-13)"/>
<path style="fill-rule:nonzero;fill:rgb(39.99939%,39.99939%,39.99939%);fill-opacity:1;stroke-width:0.03;stroke-linecap:square;stroke-linejoin:miter;stroke:rgb(39.99939%,39.99939%,39.99939%);stroke-opacity:1;stroke-miterlimit:3.239307;" d="M 347.746094 274.507812 L 331.832031 270.257812 L 333.171875 265.582031 L 331.96875 265.316406 L 330.390625 269.933594 L 313.511719 265.585938 L 322.113281 238.792969 L 356.605469 249.355469 L 350.53125 266.597656 L 346.804688 265.238281 L 346.519531 265.941406 L 346.238281 266.640625 L 350.03125 268.023438 Z M 347.746094 274.507812 " transform="matrix(1,0,0,1,-74,-13)"/>
<path style="fill-rule:nonzero;fill:rgb(39.99939%,39.99939%,39.99939%);fill-opacity:1;stroke-width:0.03;stroke-linecap:square;stroke-linejoin:miter;stroke:rgb(39.99939%,39.99939%,39.99939%);stroke-opacity:1;stroke-miterlimit:3.239307;" d="M 165.066406 73.675781 L 251.707031 93.957031 L 382.570312 124.597656 L 369.601562 186.5625 L 321.316406 174.230469 L 146.015625 129.457031 Z M 165.066406 73.675781 " transform="matrix(1,0,0,1,-74,-13)"/>
<path style="fill-rule:nonzero;fill:rgb(39.99939%,39.99939%,39.99939%);fill-opacity:1;stroke-width:0.03;stroke-linecap:square;stroke-linejoin:miter;stroke:rgb(39.99939%,39.99939%,39.99939%);stroke-opacity:1;stroke-miterlimit:3.239307;" d="M 293.449219 272.113281 L 294.441406 271.226562 L 295.652344 270.914062 L 308.152344 273.570312 L 309.988281 273.613281 L 310.824219 272.929688 L 311.519531 271.167969 L 312.738281 268.628906 L 313.621094 268.261719 L 314.882812 268.265625 L 326.847656 271.558594 L 318.996094 298.886719 L 287.78125 292.054688 L 291.273438 280.339844 L 297.753906 281.332031 L 297.882812 280.664062 L 298.019531 279.980469 L 291.59375 278.785156 Z M 293.449219 272.113281 " transform="matrix(1,0,0,1,-74,-13)"/>
<path style="fill-rule:nonzero;fill:rgb(39.99939%,39.99939%,39.99939%);fill-opacity:1;stroke-width:0.03;stroke-linecap:square;stroke-linejoin:miter;stroke:rgb(39.99939%,39.99939%,39.99939%);stroke-opacity:1;stroke-miterlimit:3.239307;" d="M 364.429688 187.878906 L 367.292969 188.996094 L 368.125 189.871094 L 368.261719 191.183594 L 367.890625 192.542969 L 360.820312 216.007812 L 353.75 242.542969 L 312.644531 229.378906 L 294.136719 223.539062 L 288.230469 222.039062 L 284.945312 221.601562 L 281.621094 221.292969 L 278.921875 221.195312 L 276.269531 221.484375 L 272.808594 221.851562 L 269.742188 222.625 L 266.46875 223.203125 L 261.566406 223.78125 L 257.683594 223.78125 L 253.230469 223.742188 L 249.101562 223.066406 L 245.171875 222.171875 L 239.472656 220.316406 L 234.414062 218.757812 L 227.101562 215.882812 L 125.429688 183.371094 L 135.136719 157.625 L 144.8125 131.332031 L 243.332031 157.125 L 330.015625 179.140625 Z M 364.429688 187.878906 " transform="matrix(1,0,0,1,-74,-13)"/>
<path style="fill-rule:nonzero;fill:rgb(39.99939%,39.99939%,39.99939%);fill-opacity:1;stroke-width:0.03;stroke-linecap:square;stroke-linejoin:miter;stroke:rgb(39.99939%,39.99939%,39.99939%);stroke-opacity:1;stroke-miterlimit:3.239307;" d="M 246.1875 228.289062 L 250.003906 229.25 L 256.308594 230.128906 L 260.429688 230.3125 L 266.59375 229.710938 L 272.628906 228.921875 L 278.9375 227.871094 L 284.039062 227.960938 L 288.027344 228.578125 L 294.609375 229.894531 L 307.707031 233.871094 L 320.777344 238.328125 L 312.226562 265.796875 L 310.011719 271.464844 L 308.210938 271.972656 L 305.390625 271.742188 L 296.949219 270.0625 L 283.265625 267.804688 L 277.65625 266.285156 L 272.691406 264.089844 L 256.003906 259.363281 L 257.6875 252.714844 L 257.183594 252.660156 L 256.703125 252.609375 L 254.582031 259.257812 L 243.199219 256.445312 L 246.105469 246.480469 L 245.597656 246.335938 L 245.007812 246.167969 L 241.886719 256.238281 L 241.003906 256.019531 L 241.253906 254.886719 L 245.117188 235.566406 Z M 246.1875 228.289062 " transform="matrix(1,0,0,1,-74,-13)"/>
<path style="fill-rule:nonzero;fill:rgb(39.99939%,39.99939%,39.99939%);fill-opacity:1;stroke-width:0.03;stroke-linecap:square;stroke-linejoin:miter;stroke:rgb(39.99939%,39.99939%,39.99939%);stroke-opacity:1;stroke-miterlimit:3.239307;" d="M 328.535156 271.8125 L 347.339844 276.246094 L 340.839844 295.214844 L 337.921875 303.550781 L 320.683594 299.261719 L 323.890625 288.050781 L 326.339844 279.488281 Z M 328.535156 271.8125 " transform="matrix(1,0,0,1,-74,-13)"/>
<path style="fill-rule:nonzero;fill:rgb(39.99939%,39.99939%,39.99939%);fill-opacity:1;stroke-width:0.03;stroke-linecap:square;stroke-linejoin:miter;stroke:rgb(39.99939%,39.99939%,39.99939%);stroke-opacity:1;stroke-miterlimit:3.239307;" d="M 240.761719 257.097656 L 255.511719 260.753906 L 255.230469 262.332031 L 251.597656 277.761719 L 249.621094 278.941406 L 244.59375 278.460938 L 236.332031 277.027344 Z M 240.761719 257.097656 " transform="matrix(1,0,0,1,-74,-13)"/>
<path style=" stroke:none;fill-rule:evenodd;fill:rgb(85.096741%,85.096741%,81.959534%);fill-opacity:0.7;" d="M 148.039062 340 C 148.039062 337.070312 146.878906 334.265625 144.808594 332.191406 C 142.734375 330.121094 139.929688 328.960938 137 328.960938 C 134.070312 328.960938 131.265625 330.121094 129.191406 332.191406 C 127.121094 334.265625 125.960938 337.070312 125.960938 340 C 125.960938 342.929688 127.121094 345.734375 129.191406 347.808594 C 131.265625 349.878906 134.070312 351.039062 137 351.039062 C 139.929688 351.039062 142.734375 349.878906 144.808594 347.808594 C 146.878906 345.734375 148.039062 342.929688 148.039062 340 Z M 148.039062 340 "/>
<path style=" stroke:none;fill-rule:evenodd;fill:rgb(85.096741%,85.096741%,81.959534%);fill-opacity:0.7;" d="M 28.039062 144 C 28.039062 141.070312 26.878906 138.265625 24.808594 136.191406 C 22.734375 134.121094 19.929688 132.960938 17 132.960938 C 14.070312 132.960938 11.265625 134.121094 9.191406 136.191406 C 7.121094 138.265625 5.960938 141.070312 5.960938 144 C 5.960938 146.929688 7.121094 149.734375 9.191406 151.808594 C 11.265625 153.878906 14.070312 155.039062 17 155.039062 C 19.929688 155.039062 22.734375 153.878906 24.808594 151.808594 C 26.878906 149.734375 28.039062 146.929688 28.039062 144 Z M 28.039062 144 "/>
<path style=" stroke:none;fill-rule:evenodd;fill:rgb(85.096741%,85.096741%,81.959534%);fill-opacity:0.7;" d="M 264.039062 289 C 264.039062 286.070312 262.878906 283.265625 260.808594 281.191406 C 258.734375 279.121094 255.929688 277.960938 253 277.960938 C 250.070312 277.960938 247.265625 279.121094 245.191406 281.191406 C 243.121094 283.265625 241.960938 286.070312 241.960938 289 C 241.960938 291.929688 243.121094 294.734375 245.191406 296.808594 C 247.265625 298.878906 250.070312 300.039062 253 300.039062 C 255.929688 300.039062 258.734375 298.878906 260.808594 296.808594 C 262.878906 294.734375 264.039062 291.929688 264.039062 289 Z M 264.039062 289 "/>
</g>
</svg>
