<?xml version="1.0" encoding="UTF-8"?>
<svg xmlns="http://www.w3.org/2000/svg" xmlns:xlink="http://www.w3.org/1999/xlink" width="361pt" height="361pt" viewBox="0 0 361 361" version="1.1">
<defs>
<clipPath id="clip1">
  <path d="M 0 175 L 234 175 L 234 360 L 0 360 Z M 0 175 "/>
</clipPath>
<clipPath id="clip2">
  <path d="M 61 320 L 211 320 L 211 360 L 61 360 Z M 61 320 "/>
</clipPath>
<clipPath id="clip3">
  <path d="M 348 0 L 360 0 L 360 32 L 348 32 Z M 348 0 "/>
</clipPath>
<clipPath id="clip4">
  <path d="M 351 237 L 360 237 L 360 268 L 351 268 Z M 351 237 "/>
</clipPath>
<clipPath id="clip5">
  <path d="M 320 114 L 360 114 L 360 144 L 320 144 Z M 320 114 "/>
</clipPath>
<clipPath id="clip6">
  <path d="M 328 85 L 360 85 L 360 114 L 328 114 Z M 328 85 "/>
</clipPath>
<clipPath id="clip7">
  <path d="M 336 36 L 360 36 L 360 89 L 336 89 Z M 336 36 "/>
</clipPath>
<clipPath id="clip8">
  <path d="M 354 207 L 360 207 L 360 239 L 354 239 Z M 354 207 "/>
</clipPath>
<clipPath id="clip9">
  <path d="M 357 179 L 360 179 L 360 209 L 357 209 Z M 357 179 "/>
</clipPath>
<clipPath id="clip10">
  <path d="M 348 267 L 360 267 L 360 297 L 348 297 Z M 348 267 "/>
</clipPath>
<clipPath id="clip11">
  <path d="M 242 350 L 298 350 L 298 360 L 242 360 Z M 242 350 "/>
</clipPath>
<clipPath id="clip12">
  <path d="M 298 306 L 360 306 L 360 360 L 298 360 Z M 298 306 "/>
</clipPath>
<clipPath id="clip13">
  <path d="M 0 352 L 3 352 L 3 360 L 0 360 Z M 0 352 "/>
</clipPath>
<clipPath id="clip14">
  <path d="M 342 74 L 360 74 L 360 112 L 342 112 Z M 342 74 "/>
</clipPath>
<clipPath id="clip15">
  <path d="M 339 0 L 360 0 L 360 20 L 339 20 Z M 339 0 "/>
</clipPath>
<clipPath id="clip16">
  <path d="M 0 323 L 64 323 L 64 360 L 0 360 Z M 0 323 "/>
</clipPath>
<clipPath id="clip17">
  <path d="M 0 321 L 66 321 L 66 360 L 0 360 Z M 0 321 "/>
</clipPath>
<clipPath id="clip18">
  <path d="M 256 359 L 336 359 L 336 360 L 256 360 Z M 256 359 "/>
</clipPath>
<clipPath id="clip19">
  <path d="M 255 358 L 337 358 L 337 360 L 255 360 Z M 255 358 "/>
</clipPath>
</defs>
<g id="surface8547">
<path style="fill-rule:nonzero;fill:rgb(0%,0%,0%);fill-opacity:1;stroke-width:0.03;stroke-linecap:square;stroke-linejoin:miter;stroke:rgb(0%,0%,0%);stroke-opacity:1;stroke-miterlimit:10;" d="M 0 178 L 360 178 L 360 -182 L 0 -182 Z M 0 178 " transform="matrix(1,0,0,1,0,182)"/>
<path style=" stroke:none;fill-rule:nonzero;fill:rgb(39.99939%,39.99939%,39.99939%);fill-opacity:0.3;" d="M 199.503906 31.980469 L 200.175781 31.617188 L 200.578125 31.402344 L 200.957031 31.246094 L 201.339844 31.109375 L 201.734375 30.988281 L 202.132812 30.890625 L 202.535156 30.8125 L 202.941406 30.753906 L 203.351562 30.71875 L 203.761719 30.699219 L 204.175781 30.703125 L 204.585938 30.726562 L 204.996094 30.769531 L 205.402344 30.835938 L 205.804688 30.917969 L 206.199219 31.023438 L 206.589844 31.144531 L 206.972656 31.289062 L 207.347656 31.449219 L 207.714844 31.628906 L 208.410156 32.042969 L 209.0625 32.523438 L 209.652344 33.066406 L 210.183594 33.664062 L 210.644531 34.308594 L 210.847656 34.648438 L 211.03125 35 L 211.195312 35.355469 L 211.339844 35.722656 L 211.464844 36.09375 L 211.566406 36.472656 L 211.652344 36.855469 L 211.710938 37.242188 L 211.75 37.628906 L 211.769531 38.019531 L 211.769531 38.148438 L 211.761719 38.539062 L 211.730469 38.929688 L 211.675781 39.316406 L 211.601562 39.703125 L 211.507812 40.082031 L 211.324219 40.640625 L 153.53125 91.421875 L 133.550781 89.695312 Z M 199.503906 31.980469 "/>
<path style=" stroke:none;fill-rule:nonzero;fill:rgb(39.99939%,39.99939%,39.99939%);fill-opacity:0.3;" d="M 216.152344 19.378906 L 280.59375 -37.394531 L 266.316406 34.179688 L 219.542969 34.085938 L 219.316406 34.003906 L 218.863281 33.820312 L 218.421875 33.617188 L 217.992188 33.390625 L 217.574219 33.144531 L 217.171875 32.878906 L 216.785156 32.59375 L 216.414062 32.289062 L 216.058594 31.964844 L 215.722656 31.625 L 215.40625 31.265625 L 215.113281 30.894531 L 214.835938 30.511719 L 214.582031 30.109375 L 214.351562 29.699219 L 214.144531 29.277344 L 213.957031 28.847656 L 213.796875 28.40625 L 213.660156 27.957031 L 213.550781 27.503906 L 213.464844 27.046875 L 213.402344 26.582031 L 213.367188 26.117188 L 213.359375 25.652344 L 213.375 25.1875 L 213.417969 24.722656 L 213.484375 24.261719 L 213.578125 23.804688 L 213.695312 23.351562 L 213.839844 22.90625 L 214.007812 22.46875 L 214.199219 22.039062 L 214.414062 21.617188 L 214.648438 21.210938 L 214.910156 20.816406 L 215.191406 20.433594 L 215.492188 20.066406 L 215.8125 19.714844 Z M 216.152344 19.378906 "/>
<path style=" stroke:none;fill-rule:nonzero;fill:rgb(39.99939%,39.99939%,39.99939%);fill-opacity:0.3;" d="M 174.582031 4.5 L 130.089844 -5.667969 L 138.636719 -43.941406 L 181.710938 -44.234375 L 180.296875 -31.5 L 169.75 -31.894531 L 169.046875 -26.257812 L 168.347656 -20.621094 L 178.8125 -20.050781 Z M 174.582031 4.5 "/>
<path style=" stroke:none;fill-rule:nonzero;fill:rgb(39.99939%,39.99939%,39.99939%);fill-opacity:0.3;" d="M 191.195312 -72.769531 L 233.679688 -78.628906 L 233.804688 -80.648438 L 233.902344 -82.238281 L 194.0625 -76.460938 L 196.503906 -92.59375 L 235.671875 -97.308594 L 235.804688 -99.527344 L 235.90625 -101.175781 L 196.164062 -97.183594 L 200.992188 -150.949219 L 220.660156 -150.464844 L 234.757812 -152.601562 L 254.457031 -155.171875 L 270.121094 -157.738281 L 280.417969 -159.023438 L 290.488281 -161.15625 L 297.875 -162.226562 L 278.507812 -42.003906 L 224.160156 4.894531 L 210.113281 4.453125 L 210.164062 2.492188 L 221.488281 2.777344 L 244.332031 -17.511719 L 256.761719 -27.824219 L 258.464844 -40.640625 L 258.605469 -42.039062 L 258.734375 -43.375 L 261.515625 -67.828125 Z M 191.195312 -72.769531 "/>
<path style=" stroke:none;fill-rule:nonzero;fill:rgb(39.99939%,39.99939%,39.99939%);fill-opacity:0.3;" d="M 309.820312 -49.421875 L 291.148438 32.328125 L 272.351562 32.347656 L 283.875 -28.296875 Z M 309.820312 -49.421875 "/>
<path style=" stroke:none;fill-rule:nonzero;fill:rgb(39.99939%,39.99939%,39.99939%);fill-opacity:0.3;" d="M 309.875 -18.726562 L 342.707031 -18.371094 L 329.125 32.226562 L 296.582031 32.527344 Z M 309.875 -18.726562 "/>
<path style=" stroke:none;fill-rule:nonzero;fill:rgb(39.99939%,39.99939%,39.99939%);fill-opacity:0.3;" d="M 269.597656 38.34375 L 326.355469 38.140625 L 308.570312 106.472656 L 280.304688 104.71875 L 257.398438 102.253906 Z M 269.597656 38.34375 "/>
<path style=" stroke:none;fill-rule:nonzero;fill:rgb(39.99939%,39.99939%,39.99939%);fill-opacity:0.3;" d="M 223.757812 37.4375 L 264.9375 38.347656 L 251.988281 100.957031 L 196.40625 94.679688 L 195.320312 62.238281 Z M 223.757812 37.4375 "/>
<path style=" stroke:none;fill-rule:nonzero;fill:rgb(39.99939%,39.99939%,39.99939%);fill-opacity:0.3;" d="M 188.828125 66.933594 L 190.402344 95.640625 L 161.492188 92.429688 Z M 188.828125 66.933594 "/>
<path style=" stroke:none;fill-rule:nonzero;fill:rgb(39.99939%,39.99939%,39.99939%);fill-opacity:0.3;" d="M 269.238281 85.289062 L 287.636719 87.480469 L 287.25 90.386719 L 284.949219 90.113281 L 284.554688 93.097656 L 286.855469 93.371094 L 286.472656 96.277344 L 268.074219 94.085938 L 268.457031 91.179688 L 270.761719 91.457031 L 271.15625 88.46875 L 268.851562 88.195312 Z M 269.238281 85.289062 "/>
<path style=" stroke:none;fill-rule:nonzero;fill:rgb(39.99939%,39.99939%,39.99939%);fill-opacity:0.3;" d="M 270.804688 69.519531 L 289.203125 71.710938 L 288.816406 74.617188 L 286.515625 74.339844 L 286.121094 77.328125 L 288.421875 77.601562 L 288.039062 80.507812 L 269.640625 78.316406 L 270.023438 75.410156 L 272.324219 75.683594 L 272.722656 72.699219 L 270.417969 72.425781 Z M 270.804688 69.519531 "/>
<path style=" stroke:none;fill-rule:nonzero;fill:rgb(39.99939%,39.99939%,39.99939%);fill-opacity:0.3;" d="M 130.046875 -5.550781 L 174.53125 4.613281 L 190.714844 8.492188 L 221.328125 7.367188 L 128.09375 88.800781 L 108.609375 86.273438 Z M 130.046875 -5.550781 "/>
<path style=" stroke:none;fill-rule:nonzero;fill:rgb(39.99939%,39.99939%,39.99939%);fill-opacity:0.3;" d="M 206.363281 218.929688 L 201.644531 218.746094 L 204.585938 209.960938 L 204.363281 197.203125 L 203.503906 187.070312 L 228.128906 183.703125 L 222.769531 211.894531 L 221.640625 214.566406 L 218.226562 217.28125 L 211.804688 219.191406 Z M 206.363281 218.929688 "/>
<path style=" stroke:none;fill-rule:nonzero;fill:rgb(39.99939%,39.99939%,39.99939%);fill-opacity:0.3;" d="M 156.714844 241.375 L 153.449219 239.398438 L 151.363281 242.5 L 148.09375 240.523438 L 150.179688 237.421875 L 146.910156 235.441406 L 148.996094 232.339844 L 152.261719 234.320312 L 154.347656 231.21875 L 157.617188 233.195312 L 155.53125 236.296875 L 158.800781 238.273438 Z M 156.714844 241.375 "/>
<path style=" stroke:none;fill-rule:nonzero;fill:rgb(39.99939%,39.99939%,39.99939%);fill-opacity:0.3;" d="M 150.851562 259.101562 L 147.582031 257.125 L 145.496094 260.226562 L 142.230469 258.246094 L 144.3125 255.144531 L 141.042969 253.167969 L 143.128906 250.066406 L 146.398438 252.042969 L 148.480469 248.941406 L 151.75 250.921875 L 149.667969 254.023438 L 152.933594 256 Z M 150.851562 259.101562 "/>
<path style=" stroke:none;fill-rule:nonzero;fill:rgb(39.99939%,39.99939%,39.99939%);fill-opacity:0.3;" d="M 163.664062 274.921875 L 160.394531 272.945312 L 158.3125 276.046875 L 155.042969 274.066406 L 157.125 270.964844 L 153.859375 268.988281 L 155.941406 265.886719 L 159.210938 267.863281 L 161.292969 264.761719 L 164.5625 266.742188 L 162.480469 269.84375 L 165.746094 271.820312 Z M 163.664062 274.921875 "/>
<path style=" stroke:none;fill-rule:nonzero;fill:rgb(39.99939%,39.99939%,39.99939%);fill-opacity:0.3;" d="M 94.222656 314.089844 L 90.875 315.535156 L 91.652344 316.734375 L 85.53125 319.773438 L 84.75 318.578125 L 83.152344 319.371094 L 83.960938 320.570312 L 79.453125 322.796875 L 78.726562 321.578125 L 77.054688 322.398438 L 77.792969 323.625 L 71.890625 326.550781 L 71.117188 325.347656 L 66.492188 327.632812 L 67.273438 328.847656 L 62.171875 331.378906 L 61.558594 330.105469 L 59.308594 331.195312 L 59.917969 332.5 L 58.152344 333.375 L 57.527344 332.097656 L 54.851562 333.488281 L 51.199219 327.550781 L 54.839844 325.820312 L 53.359375 323.25 L 59.304688 320.523438 L 60.75 323.136719 L 63.300781 321.976562 L 61.820312 319.378906 L 67.191406 316.941406 L 68.683594 319.539062 L 74.640625 316.847656 L 73.136719 314.238281 L 79.035156 311.5625 L 80.5625 314.136719 L 82.59375 313.226562 L 81.101562 310.628906 L 86.816406 308.042969 L 88.285156 310.484375 L 91.453125 309.035156 L 94.292969 307.660156 L 93.121094 305.082031 L 98.734375 302.300781 L 100.023438 304.992188 L 102.011719 303.996094 L 100.761719 301.289062 L 106.558594 298.425781 L 107.855469 301.132812 L 113.699219 298.234375 L 112.410156 295.539062 L 117.6875 292.933594 L 118.988281 295.617188 L 121.496094 294.375 L 120.164062 291.710938 L 126.035156 288.835938 L 127.308594 291.507812 L 130.628906 289.777344 L 133.796875 295.914062 L 130.984375 297.316406 L 131.683594 298.558594 L 129.886719 299.371094 L 129.152344 298.128906 L 126.882812 299.175781 L 127.585938 300.410156 L 122.386719 302.753906 L 121.832031 301.433594 L 117.128906 303.566406 L 117.679688 304.878906 L 111.667969 307.59375 L 111.082031 306.300781 L 109.378906 307.074219 L 109.972656 308.359375 L 105.386719 310.441406 L 104.863281 309.105469 L 103.238281 309.839844 L 103.773438 311.152344 L 97.535156 313.972656 L 96.992188 312.660156 Z M 94.222656 314.089844 "/>
<g clip-path="url(#clip1)" clip-rule="nonzero">
<path style=" stroke:none;fill-rule:nonzero;fill:rgb(39.99939%,39.99939%,39.99939%);fill-opacity:0.3;" d="M -120.570312 388.324219 L -115.359375 369.113281 L -110.683594 345.109375 L -106.121094 331.882812 L -105.367188 330.222656 L -101.511719 323.554688 L -97.027344 314.792969 L -95.230469 312.296875 L -93.023438 310.40625 L -91.574219 309.40625 L -90.390625 308.6875 L -89.246094 308.039062 L -88.367188 307.789062 L -87.488281 307.507812 L -86.5625 307.335938 L -85.84375 307.207031 L -84.917969 307.3125 L -84.082031 307.65625 L -83.292969 308.019531 L -82.386719 308.550781 L -81.058594 309.554688 L -79.65625 310.832031 L -64.382812 326.640625 L -53.285156 338.175781 L -52.476562 337.546875 L -51.671875 336.914062 L -61.617188 326.144531 L -72.003906 315.738281 L -75.972656 311.523438 L -77.804688 309.738281 L -78.480469 309.175781 L -79.265625 308.503906 L -79.847656 308.152344 L -80.421875 307.769531 L -81.078125 307.351562 L -81.941406 306.890625 L -82.878906 306.484375 L -83.789062 306.128906 L -84.652344 305.871094 L -85.394531 305.75 L -86.210938 305.675781 L -86.898438 305.714844 L -87.96875 305.851562 L -88.492188 305.984375 L -89.160156 306.28125 L -89.96875 306.664062 L -90.851562 307.300781 L -91.636719 307.820312 L -92.777344 308.339844 L -91.417969 306.636719 L -89.722656 304.730469 L -46.890625 258.585938 L -17.542969 232.441406 L -8.6875 222.066406 L 13.550781 200.625 L 47.597656 175.53125 L 198.136719 188.605469 L 198.71875 219.628906 L 109.480469 212.824219 L 109.421875 213.78125 L 109.363281 214.734375 L 197.742188 221.316406 L 201.769531 221.355469 L 206.425781 221.191406 L 211.761719 221.167969 L 216.484375 219.539062 L 219.832031 217.9375 L 222.765625 215.0625 L 233.738281 216.089844 L 218.058594 294.484375 L 212.742188 298.414062 L 208.671875 301.578125 L 205.957031 303.839844 L 202.914062 308.570312 L 193.34375 312.191406 L 176.160156 313.347656 L 155.914062 317.285156 L 121.621094 327.960938 L 81.9375 344.046875 L 50.050781 359.75 L -18.257812 381.519531 L -26.535156 359.964844 L -28.191406 360.53125 L -29.847656 361.101562 L -21.433594 382.597656 L -120.691406 415.0625 L -121.285156 415.132812 L -122.097656 415.125 L -122.898438 415 L -123.667969 414.753906 L -124.390625 414.394531 L -125.09375 413.890625 L -125.78125 413.183594 L -126.214844 412.53125 L -126.539062 411.824219 L -126.6875 411.328125 L -123.308594 400.628906 L -121.046875 391.132812 Z M -120.570312 388.324219 "/>
</g>
<path style=" stroke:none;fill-rule:nonzero;fill:rgb(39.99939%,39.99939%,39.99939%);fill-opacity:0.3;" d="M -25.375 351.039062 L -27.097656 352.011719 L -26.621094 352.683594 L -32.699219 355.824219 L -33.203125 355.09375 L -34.125 355.640625 L -38.804688 348.875 L -37.882812 348.328125 L -38.386719 347.59375 L -32.417969 344.289062 L -32.027344 344.851562 L -31.105469 344.304688 L -30.183594 343.753906 L -30.519531 343.261719 L -24.394531 339.980469 L -23.902344 340.730469 L -17.167969 337.167969 L -17.632812 336.40625 L -11.671875 333.148438 L -11.054688 334.011719 L -10.132812 333.460938 L -9.210938 332.914062 L -9.714844 332.183594 L -3.863281 328.707031 L -3.355469 329.4375 L -1.511719 328.34375 L -2.015625 327.609375 L 3.835938 324.136719 L 4.34375 324.867188 L 6.1875 323.773438 L 5.683594 323.039062 L 11.539062 319.5625 L 12.042969 320.296875 L 12.964844 319.75 L 13.890625 319.203125 L 13.382812 318.46875 L 19.238281 314.992188 L 19.742188 315.726562 L 20.667969 315.179688 L 21.589844 314.628906 L 21.082031 313.898438 L 26.9375 310.421875 L 27.445312 311.15625 L 28.367188 310.605469 L 29.289062 310.058594 L 28.78125 309.328125 L 34.636719 305.851562 L 35.144531 306.582031 L 36.066406 306.035156 L 40.742188 312.800781 L 39.820312 313.347656 L 40.328125 314.082031 L 34.472656 317.558594 L 33.964844 316.824219 L 33.042969 317.371094 L 32.121094 317.921875 L 32.628906 318.652344 L 26.773438 322.128906 L 26.265625 321.394531 L 25.34375 321.945312 L 24.421875 322.492188 L 24.929688 323.222656 L 19.074219 326.699219 L 18.566406 325.96875 L 16.722656 327.0625 L 17.226562 327.792969 L 17.605469 328.339844 L 18.113281 329.074219 L 19.035156 328.523438 L 23.710938 335.289062 L 22.789062 335.839844 L 23.296875 336.570312 L 17.441406 340.046875 L 16.933594 339.3125 L 16.011719 339.863281 L 15.089844 340.410156 L 15.59375 341.140625 L 9.742188 344.617188 L 9.234375 343.886719 L 8.3125 344.433594 L 3.632812 337.667969 L 4.558594 337.121094 L 4.050781 336.386719 L 3.167969 335.109375 L 2.246094 335.65625 L 1.320312 336.203125 L 1.828125 336.9375 L -4.027344 340.414062 L -4.53125 339.679688 L -5.457031 340.226562 L -6.378906 340.777344 L -5.871094 341.507812 L -14.832031 346.375 L -15.179688 345.832031 L -16.378906 346.503906 L -16.074219 347.046875 L -24.890625 351.761719 Z M -25.375 351.039062 "/>
<path style=" stroke:none;fill-rule:nonzero;fill:rgb(39.99939%,39.99939%,39.99939%);fill-opacity:0.3;" d="M 251.828125 179.402344 L 250.664062 185.402344 L 237.953125 217.226562 L 243.609375 180.558594 L 245.757812 178.105469 L 249.378906 178.105469 Z M 251.828125 179.402344 "/>
<path style=" stroke:none;fill-rule:nonzero;fill:rgb(39.99939%,39.99939%,39.99939%);fill-opacity:0.3;" d="M 285.089844 197.011719 L 279.882812 218.382812 L 261.136719 220.167969 L 252.542969 223.332031 L 243.496094 232.378906 L 237.164062 245.496094 L 233.546875 264.941406 L 231.71875 270.59375 L 239.996094 228.246094 L 255.21875 195.328125 L 258.035156 182.6875 Z M 285.089844 197.011719 "/>
<path style=" stroke:none;fill-rule:nonzero;fill:rgb(39.99939%,39.99939%,39.99939%);fill-opacity:0.3;" d="M 98.761719 228.277344 L 109.304688 223.558594 L 117.054688 239.15625 L 106.511719 243.875 Z M 98.761719 228.277344 "/>
<path style=" stroke:none;fill-rule:nonzero;fill:rgb(39.99939%,39.99939%,39.99939%);fill-opacity:0.3;" d="M 99.667969 295.070312 L 77.671875 250.792969 L 95.773438 242.691406 L 111.75 274.847656 L 102.890625 278.8125 L 108.914062 290.933594 Z M 99.667969 295.070312 "/>
<path style=" stroke:none;fill-rule:nonzero;fill:rgb(39.99939%,39.99939%,39.99939%);fill-opacity:0.3;" d="M 69.523438 276.105469 L 64.714844 266.425781 L 73.753906 262.382812 L 91.707031 298.519531 L 74.1875 307.308594 L 60.636719 280.082031 Z M 69.523438 276.105469 "/>
<path style=" stroke:none;fill-rule:nonzero;fill:rgb(39.99939%,39.99939%,39.99939%);fill-opacity:0.3;" d="M 38.648438 300.941406 L 57.414062 292.546875 L 66.71875 311.277344 L 47.957031 319.671875 Z M 38.648438 300.941406 "/>
<g clip-path="url(#clip2)" clip-rule="nonzero">
<path style=" stroke:none;fill-rule:nonzero;fill:rgb(39.99939%,39.99939%,39.99939%);fill-opacity:0.3;" d="M 62.089844 370.722656 L 92.601562 354.617188 L 116.3125 342.582031 L 162.574219 328.882812 L 206.273438 320.988281 L 207.578125 321.136719 L 208.777344 321.777344 L 210.007812 323.144531 L 210.527344 324.027344 L 210.894531 325.089844 L 210.785156 327.433594 L 200.289062 353.90625 L 195.332031 359.023438 L 180.019531 366.972656 L 162.28125 373.316406 L 133.707031 383.492188 L 118.121094 389.464844 L 107.425781 390.765625 L 92.839844 390.414062 L 77.867188 388.957031 L 74.851562 387.660156 L 65.078125 381.785156 L 64.671875 381.429688 L 64.28125 381.050781 L 63.914062 380.65625 L 63.570312 380.242188 L 63.246094 379.8125 L 62.949219 379.363281 L 62.675781 378.90625 L 62.429688 378.433594 L 62.207031 377.949219 L 62.015625 377.453125 L 61.847656 376.949219 L 61.710938 376.4375 L 61.601562 375.917969 L 61.519531 375.398438 L 61.46875 374.871094 L 61.445312 374.34375 L 61.449219 373.816406 L 61.484375 373.289062 L 61.550781 372.765625 L 61.644531 372.246094 L 61.765625 371.730469 L 61.925781 371.230469 Z M 62.089844 370.722656 "/>
</g>
<path style=" stroke:none;fill-rule:nonzero;fill:rgb(39.99939%,39.99939%,39.99939%);fill-opacity:0.3;" d="M 203.503906 187.070312 L 201.0625 158.347656 L 232.464844 160.902344 L 228.128906 183.703125 Z M 203.503906 187.070312 "/>
<path style=" stroke:none;fill-rule:nonzero;fill:rgb(39.99939%,39.99939%,39.99939%);fill-opacity:0.3;" d="M 218.058594 294.484375 L 218.046875 294.542969 L 205.519531 307.585938 L 202.914062 308.570312 L 205.957031 303.839844 L 208.671875 301.578125 L 212.742188 298.414062 Z M 218.058594 294.484375 "/>
<path style=" stroke:none;fill-rule:nonzero;fill:rgb(39.99939%,39.99939%,39.99939%);fill-opacity:0.3;" d="M 88.308594 156.59375 L 86.429688 175.601562 L 51.429688 170.617188 L 75.183594 145.464844 Z M 88.308594 156.59375 "/>
<path style=" stroke:none;fill-rule:nonzero;fill:rgb(39.99939%,39.99939%,39.99939%);fill-opacity:0.3;" d="M 126.125 97.847656 L 144.265625 98.34375 L 86.054688 149.734375 L 78.886719 142.980469 Z M 126.125 97.847656 "/>
<path style=" stroke:none;fill-rule:nonzero;fill:rgb(39.99939%,39.99939%,39.99939%);fill-opacity:0.3;" d="M 107.71875 109.28125 L 101.726562 114.789062 L 101.835938 114.109375 Z M 107.71875 109.28125 "/>
<path style=" stroke:none;fill-rule:nonzero;fill:rgb(39.99939%,39.99939%,39.99939%);fill-opacity:0.3;" d="M 308.570312 106.472656 L 308.246094 107.726562 L 280.304688 104.71875 Z M 308.570312 106.472656 "/>
<path style=" stroke:none;fill-rule:nonzero;fill:rgb(39.99939%,39.99939%,39.99939%);fill-opacity:0.3;" d="M 250.210938 137.785156 L 258.449219 145.25 L 251.828125 179.402344 L 249.378906 178.105469 L 245.757812 178.105469 L 243.609375 180.558594 Z M 250.210938 137.785156 "/>
<path style=" stroke:none;fill-rule:nonzero;fill:rgb(39.99939%,39.99939%,39.99939%);fill-opacity:0.3;" d="M 255.871094 106.292969 L 307.042969 111.4375 L 294.199219 165.179688 L 261.003906 161.585938 L 263.851562 143.511719 L 258.957031 137.882812 L 256.917969 129.066406 L 253.375 123.960938 Z M 255.871094 106.292969 "/>
<path style=" stroke:none;fill-rule:nonzero;fill:rgb(39.99939%,39.99939%,39.99939%);fill-opacity:0.3;" d="M 261.542969 166.925781 L 291.398438 171.109375 L 285.089844 197.011719 L 258.035156 182.6875 Z M 261.542969 166.925781 "/>
<path style=" stroke:none;fill-rule:nonzero;fill:rgb(39.99939%,39.99939%,39.99939%);fill-opacity:0.3;" d="M 279.882812 218.382812 L 271.597656 252.390625 L 255.703125 291.007812 L 238.988281 291.398438 L 227.089844 294.289062 L 231.71875 270.59375 L 233.546875 264.941406 L 237.164062 245.496094 L 243.496094 232.378906 L 252.542969 223.332031 L 261.136719 220.167969 Z M 279.882812 218.382812 "/>
<path style=" stroke:none;fill-rule:nonzero;fill:rgb(39.99939%,39.99939%,39.99939%);fill-opacity:0.3;" d="M 95.585938 151.722656 L 196.046875 157.476562 L 198.222656 183.707031 L 94.367188 172.351562 Z M 95.585938 151.722656 "/>
<path style=" stroke:none;fill-rule:nonzero;fill:rgb(39.99939%,39.99939%,39.99939%);fill-opacity:0.3;" d="M 191.308594 101.621094 L 196.015625 153.277344 L 100.109375 147.84375 L 158.539062 97.148438 Z M 191.308594 101.621094 "/>
<path style=" stroke:none;fill-rule:nonzero;fill:rgb(39.99939%,39.99939%,39.99939%);fill-opacity:0.3;" d="M 197.652344 102.117188 L 218.792969 103.597656 L 222.496094 108.601562 L 244.6875 110.460938 L 233.367188 156.332031 L 200.726562 153.75 Z M 197.652344 102.117188 "/>
<path style=" stroke:none;fill-rule:nonzero;fill:rgb(39.99939%,39.99939%,39.99939%);fill-opacity:0.3;" d="M 40.5 -15.257812 L 61.261719 -13.132812 L 54.945312 31.613281 L 35.207031 29.59375 Z M 40.5 -15.257812 "/>
<path style=" stroke:none;fill-rule:nonzero;fill:rgb(39.99939%,39.99939%,39.99939%);fill-opacity:0.3;" d="M -1.664062 79.984375 L 32.945312 84.695312 L 88.878906 95.671875 L 82.578125 126.777344 L -5.351562 111.933594 Z M -1.664062 79.984375 "/>
<path style=" stroke:none;fill-rule:nonzero;fill:rgb(39.99939%,39.99939%,39.99939%);fill-opacity:0.3;" d="M -2.898438 27.6875 L 103.421875 38.394531 L 93.335938 82.199219 L 58.222656 75.039062 L 37.984375 70.972656 L 3.90625 67.683594 L -1.300781 67.296875 Z M -2.898438 27.6875 "/>
<path style=" stroke:none;fill-rule:nonzero;fill:rgb(39.99939%,39.99939%,39.99939%);fill-opacity:0.3;" d="M 104.605469 96.550781 L 119.582031 98.375 L 107.71875 109.28125 L 101.835938 114.109375 Z M 104.605469 96.550781 "/>
<path style=" stroke:none;fill-rule:nonzero;fill:rgb(39.99939%,39.99939%,39.99939%);fill-opacity:0.3;" d="M 20.550781 -17.300781 L 36.660156 -15.652344 L 31.367188 29.199219 L 15.257812 27.550781 Z M 20.550781 -17.300781 "/>
<path style=" stroke:none;fill-rule:nonzero;fill:rgb(39.99939%,39.99939%,39.99939%);fill-opacity:0.3;" d="M 90.496094 -10.140625 L 112.925781 -7.570312 L 103.550781 36.597656 L 85.101562 34.703125 Z M 90.496094 -10.140625 "/>
<path style=" stroke:none;fill-rule:nonzero;fill:rgb(39.99939%,39.99939%,39.99939%);fill-opacity:0.3;" d="M 1.460938 -19.253906 L 17.863281 -17.574219 L 12.199219 27.238281 L -2.980469 25.683594 L -3 25.230469 L 1.136719 -16.519531 Z M 1.460938 -19.253906 "/>
<path style=" stroke:none;fill-rule:nonzero;fill:rgb(39.99939%,39.99939%,39.99939%);fill-opacity:0.3;" d="M 65.34375 -12.714844 L 85.929688 -10.605469 L 80.640625 34.246094 L 60 32.574219 Z M 65.34375 -12.714844 "/>
<path style=" stroke:none;fill-rule:nonzero;fill:rgb(39.99939%,39.99939%,39.99939%);fill-opacity:0.3;" d="M 120.796875 -16.511719 L 126.738281 -15.503906 L 104.597656 84.308594 L 102.304688 85.265625 L 99.003906 84.722656 L 97.421875 82.6875 Z M 120.796875 -16.511719 "/>
<path style=" stroke:none;fill-rule:nonzero;fill:rgb(39.99939%,39.99939%,39.99939%);fill-opacity:0.3;" d="M -2.980469 25.683594 L -3.832031 25.597656 L 1.136719 -16.519531 L -3 25.230469 Z M -2.980469 25.683594 "/>
<path style=" stroke:none;fill-rule:nonzero;fill:rgb(39.99939%,39.99939%,39.99939%);fill-opacity:0.3;" d="M 82.578125 126.777344 L 81.921875 130.015625 L 60.40625 151.554688 L 43.207031 149.171875 L 32.507812 136.136719 L 11.132812 123.804688 L -2.988281 122.792969 L -2.980469 127.941406 L 10.777344 128.441406 L 28.714844 139.746094 L 35.605469 149.179688 L -13.296875 141.292969 L -8.425781 138.753906 L -5.351562 111.933594 Z M 82.578125 126.777344 "/>
<path style=" stroke:none;fill-rule:nonzero;fill:rgb(39.99939%,39.99939%,39.99939%);fill-opacity:0.3;" d="M 9.898438 174.382812 L 25.867188 163.382812 L 42.691406 167.226562 L 20.046875 187.359375 Z M 9.898438 174.382812 "/>
<path style=" stroke:none;fill-rule:nonzero;fill:rgb(39.99939%,39.99939%,39.99939%);fill-opacity:0.3;" d="M -4.941406 144.496094 L 49.492188 152.867188 L 44.707031 164.191406 L -6.679688 156.707031 Z M -4.941406 144.496094 "/>
<path style=" stroke:none;fill-rule:nonzero;fill:rgb(39.99939%,39.99939%,39.99939%);fill-opacity:0.3;" d="M -2.660156 183.03125 L 8.210938 175.613281 L 18.527344 188.253906 L 8.242188 197.917969 Z M -2.660156 183.03125 "/>
<path style=" stroke:none;fill-rule:nonzero;fill:rgb(39.99939%,39.99939%,39.99939%);fill-opacity:0.3;" d="M -14.203125 190.960938 L -5.117188 184.722656 L 7.191406 200.027344 L -1.8125 207.472656 Z M -14.203125 190.960938 "/>
<path style=" stroke:none;fill-rule:nonzero;fill:rgb(39.99939%,39.99939%,39.99939%);fill-opacity:0.3;" d="M -24.195312 177.644531 L 3.957031 160.261719 L 22.457031 162.820312 L -15.664062 188.941406 Z M -24.195312 177.644531 "/>
<path style=" stroke:none;fill-rule:nonzero;fill:rgb(39.99939%,39.99939%,39.99939%);fill-opacity:0.3;" d="M -32.207031 166.972656 L -16.882812 156.859375 L 1.378906 160.078125 L -25.203125 176.304688 Z M -32.207031 166.972656 "/>
<g clip-path="url(#clip3)" clip-rule="nonzero">
<path style=" stroke:none;fill-rule:nonzero;fill:rgb(39.99939%,39.99939%,39.99939%);fill-opacity:0.3;" d="M 361.507812 -16.730469 L 389.035156 -17.71875 L 386.375 9.113281 L 388.792969 9.113281 L 391.351562 -17.753906 L 398.566406 -17.917969 L 398.339844 -14.527344 L 399.210938 -14.476562 L 400.035156 -14.429688 L 400.328125 -17.886719 L 435.742188 -18.246094 L 429.746094 31.507812 L 348.488281 31.957031 Z M 361.507812 -16.730469 "/>
</g>
<path style=" stroke:none;fill-rule:nonzero;fill:rgb(39.99939%,39.99939%,39.99939%);fill-opacity:0.3;" d="M 329.832031 235.5 L 348.527344 237.257812 L 346.414062 261.941406 L 321.515625 259.640625 Z M 329.832031 235.5 "/>
<g clip-path="url(#clip4)" clip-rule="nonzero">
<path style=" stroke:none;fill-rule:nonzero;fill:rgb(39.99939%,39.99939%,39.99939%);fill-opacity:0.3;" d="M 353.660156 237.367188 L 408.632812 243.507812 L 406.484375 267.609375 L 351.425781 262.28125 Z M 353.660156 237.367188 "/>
</g>
<g clip-path="url(#clip5)" clip-rule="nonzero">
<path style=" stroke:none;fill-rule:nonzero;fill:rgb(39.99939%,39.99939%,39.99939%);fill-opacity:0.3;" d="M 327.457031 114.714844 L 361.460938 118.574219 L 358.761719 143.292969 L 320.667969 138.941406 Z M 327.457031 114.714844 "/>
</g>
<g clip-path="url(#clip6)" clip-rule="nonzero">
<path style=" stroke:none;fill-rule:nonzero;fill:rgb(39.99939%,39.99939%,39.99939%);fill-opacity:0.3;" d="M 334.710938 85.128906 L 364.738281 87.636719 L 362.007812 113.449219 L 328.542969 109.796875 Z M 334.710938 85.128906 "/>
</g>
<g clip-path="url(#clip7)" clip-rule="nonzero">
<path style=" stroke:none;fill-rule:nonzero;fill:rgb(39.99939%,39.99939%,39.99939%);fill-opacity:0.3;" d="M 346.910156 37.167969 L 428.8125 36.246094 L 424.558594 88.191406 L 336.429688 80.777344 Z M 346.910156 37.167969 "/>
</g>
<path style=" stroke:none;fill-rule:nonzero;fill:rgb(39.99939%,39.99939%,39.99939%);fill-opacity:0.3;" d="M 306.050781 292.105469 L 321.324219 290.875 L 344.507812 288.949219 L 343.734375 296.8125 L 336.785156 298.316406 L 316.589844 301.683594 L 313.664062 301.492188 L 310.777344 300.15625 L 304.832031 295.808594 Z M 306.050781 292.105469 "/>
<path style=" stroke:none;fill-rule:nonzero;fill:rgb(39.99939%,39.99939%,39.99939%);fill-opacity:0.3;" d="M 320.5625 263.792969 L 345.910156 266.199219 L 343.6875 285.949219 L 311.460938 288.242188 Z M 320.5625 263.792969 "/>
<path style=" stroke:none;fill-rule:nonzero;fill:rgb(39.99939%,39.99939%,39.99939%);fill-opacity:0.3;" d="M 304.726562 202.820312 L 351.921875 206.925781 L 348.953125 232.511719 L 298.140625 227.703125 Z M 304.726562 202.820312 "/>
<path style=" stroke:none;fill-rule:nonzero;fill:rgb(39.99939%,39.99939%,39.99939%);fill-opacity:0.3;" d="M 312.1875 174.5 L 354.890625 178.910156 L 352.300781 202.902344 L 305.867188 199.019531 Z M 312.1875 174.5 "/>
<path style=" stroke:none;fill-rule:nonzero;fill:rgb(39.99939%,39.99939%,39.99939%);fill-opacity:0.3;" d="M 319.898438 143.875 L 358.316406 147.070312 L 355.316406 175.066406 L 313.425781 170.890625 Z M 319.898438 143.875 "/>
<g clip-path="url(#clip8)" clip-rule="nonzero">
<path style=" stroke:none;fill-rule:nonzero;fill:rgb(39.99939%,39.99939%,39.99939%);fill-opacity:0.3;" d="M 357.140625 207.703125 L 411.171875 213.597656 L 409.015625 238.972656 L 354.074219 232.707031 Z M 357.140625 207.703125 "/>
</g>
<g clip-path="url(#clip9)" clip-rule="nonzero">
<path style=" stroke:none;fill-rule:nonzero;fill:rgb(39.99939%,39.99939%,39.99939%);fill-opacity:0.3;" d="M 359.945312 179.4375 L 413.75 185.070312 L 411.222656 208.910156 L 357.316406 203.21875 Z M 359.945312 179.4375 "/>
</g>
<path style=" stroke:none;fill-rule:nonzero;fill:rgb(39.99939%,39.99939%,39.99939%);fill-opacity:0.3;" d="M 306.042969 292.105469 L 304.828125 295.800781 L 299.308594 291.089844 L 295.035156 286.691406 L 292.070312 282.4375 L 290.042969 277.136719 L 289.695312 272.980469 L 287.847656 262.480469 L 297.1875 231.914062 L 325.238281 234.710938 Z M 306.042969 292.105469 "/>
<g clip-path="url(#clip10)" clip-rule="nonzero">
<path style=" stroke:none;fill-rule:nonzero;fill:rgb(39.99939%,39.99939%,39.99939%);fill-opacity:0.3;" d="M 350.316406 267.109375 L 405.625 272.558594 L 403.054688 294.425781 L 401.734375 296.371094 L 387.976562 294.765625 L 385.167969 293.367188 L 381.945312 289.265625 L 376.347656 287.40625 L 369.113281 286.378906 L 362.023438 287.003906 L 355.699219 288.925781 L 351.652344 293.070312 L 348.046875 292.730469 Z M 350.316406 267.109375 "/>
</g>
<g clip-path="url(#clip11)" clip-rule="nonzero">
<path style=" stroke:none;fill-rule:nonzero;fill:rgb(39.99939%,39.99939%,39.99939%);fill-opacity:0.3;" d="M 274.082031 350.65625 L 274.082031 351.640625 L 274.070312 361.0625 L 276.578125 361.054688 L 276.621094 353.691406 L 297.203125 354.125 L 294.136719 376.21875 L 242.101562 371.21875 L 245.210938 363.324219 L 248.328125 357.992188 L 251.449219 354.632812 L 256.105469 352.359375 L 260.398438 350.792969 L 265.714844 350.335938 Z M 274.082031 350.65625 "/>
</g>
<path style=" stroke:none;fill-rule:nonzero;fill:rgb(39.99939%,39.99939%,39.99939%);fill-opacity:0.3;" d="M 336.785156 298.316406 L 320.167969 301.917969 L 316.589844 301.683594 Z M 336.785156 298.316406 "/>
<g clip-path="url(#clip12)" clip-rule="nonzero">
<path style=" stroke:none;fill-rule:nonzero;fill:rgb(39.99939%,39.99939%,39.99939%);fill-opacity:0.3;" d="M 304.945312 331.605469 L 306.863281 324.949219 L 309.390625 319.71875 L 312.785156 316.042969 L 317.515625 312.746094 L 324.367188 311.105469 L 331.238281 310.042969 L 343.34375 308.433594 L 351.707031 307.484375 L 360.976562 306.785156 L 375.167969 306.84375 L 386.144531 307 L 394 307.175781 L 402.394531 308.066406 L 392.808594 385.84375 L 298.691406 376.378906 Z M 304.945312 331.605469 "/>
</g>
<path style="fill-rule:nonzero;fill:rgb(39.99939%,39.99939%,39.99939%);fill-opacity:1;stroke-width:0.03;stroke-linecap:square;stroke-linejoin:miter;stroke:rgb(39.99939%,39.99939%,39.99939%);stroke-opacity:1;stroke-miterlimit:3.239307;" d="M 277.503906 200.070312 L 275.0625 171.347656 L 306.464844 173.902344 L 302.128906 196.703125 Z M 277.503906 200.070312 " transform="matrix(1,0,0,1,-74,-13)"/>
<path style="fill-rule:nonzero;fill:rgb(39.99939%,39.99939%,39.99939%);fill-opacity:1;stroke-width:0.03;stroke-linecap:square;stroke-linejoin:miter;stroke:rgb(39.99939%,39.99939%,39.99939%);stroke-opacity:1;stroke-miterlimit:3.239307;" d="M 292.058594 307.484375 L 292.046875 307.542969 L 279.519531 320.585938 L 276.914062 321.570312 L 279.957031 316.839844 L 282.671875 314.578125 L 286.742188 311.414062 Z M 292.058594 307.484375 " transform="matrix(1,0,0,1,-74,-13)"/>
<path style="fill-rule:nonzero;fill:rgb(39.99939%,39.99939%,39.99939%);fill-opacity:1;stroke-width:0.03;stroke-linecap:square;stroke-linejoin:miter;stroke:rgb(39.99939%,39.99939%,39.99939%);stroke-opacity:1;stroke-miterlimit:3.239307;" d="M 162.308594 169.59375 L 160.429688 188.601562 L 125.429688 183.617188 L 149.183594 158.464844 Z M 162.308594 169.59375 " transform="matrix(1,0,0,1,-74,-13)"/>
<path style="fill-rule:nonzero;fill:rgb(39.99939%,39.99939%,39.99939%);fill-opacity:1;stroke-width:0.03;stroke-linecap:square;stroke-linejoin:miter;stroke:rgb(39.99939%,39.99939%,39.99939%);stroke-opacity:1;stroke-miterlimit:3.239307;" d="M 200.125 110.847656 L 218.265625 111.34375 L 160.054688 162.734375 L 152.886719 155.980469 Z M 200.125 110.847656 " transform="matrix(1,0,0,1,-74,-13)"/>
<path style="fill-rule:nonzero;fill:rgb(39.99939%,39.99939%,39.99939%);fill-opacity:1;stroke-width:0.03;stroke-linecap:square;stroke-linejoin:miter;stroke:rgb(39.99939%,39.99939%,39.99939%);stroke-opacity:1;stroke-miterlimit:3.239307;" d="M 181.71875 122.28125 L 175.726562 127.789062 L 175.835938 127.109375 Z M 181.71875 122.28125 " transform="matrix(1,0,0,1,-74,-13)"/>
<path style="fill-rule:nonzero;fill:rgb(39.99939%,39.99939%,39.99939%);fill-opacity:1;stroke-width:0.03;stroke-linecap:square;stroke-linejoin:miter;stroke:rgb(39.99939%,39.99939%,39.99939%);stroke-opacity:1;stroke-miterlimit:3.239307;" d="M 382.570312 119.472656 L 382.246094 120.726562 L 354.304688 117.71875 Z M 382.570312 119.472656 " transform="matrix(1,0,0,1,-74,-13)"/>
<path style="fill-rule:nonzero;fill:rgb(39.99939%,39.99939%,39.99939%);fill-opacity:1;stroke-width:0.03;stroke-linecap:square;stroke-linejoin:miter;stroke:rgb(39.99939%,39.99939%,39.99939%);stroke-opacity:1;stroke-miterlimit:3.239307;" d="M 324.210938 150.785156 L 332.449219 158.25 L 325.828125 192.402344 L 323.378906 191.105469 L 319.757812 191.105469 L 317.609375 193.558594 Z M 324.210938 150.785156 " transform="matrix(1,0,0,1,-74,-13)"/>
<path style="fill-rule:nonzero;fill:rgb(39.99939%,39.99939%,39.99939%);fill-opacity:1;stroke-width:0.03;stroke-linecap:square;stroke-linejoin:miter;stroke:rgb(39.99939%,39.99939%,39.99939%);stroke-opacity:1;stroke-miterlimit:3.239307;" d="M 329.871094 119.292969 L 381.042969 124.4375 L 368.199219 178.179688 L 335.003906 174.585938 L 337.851562 156.511719 L 332.957031 150.882812 L 330.917969 142.066406 L 327.375 136.960938 Z M 329.871094 119.292969 " transform="matrix(1,0,0,1,-74,-13)"/>
<path style="fill-rule:nonzero;fill:rgb(39.99939%,39.99939%,39.99939%);fill-opacity:1;stroke-width:0.03;stroke-linecap:square;stroke-linejoin:miter;stroke:rgb(39.99939%,39.99939%,39.99939%);stroke-opacity:1;stroke-miterlimit:3.239307;" d="M 335.542969 179.925781 L 365.398438 184.109375 L 359.089844 210.011719 L 332.035156 195.6875 Z M 335.542969 179.925781 " transform="matrix(1,0,0,1,-74,-13)"/>
<path style="fill-rule:nonzero;fill:rgb(39.99939%,39.99939%,39.99939%);fill-opacity:1;stroke-width:0.03;stroke-linecap:square;stroke-linejoin:miter;stroke:rgb(39.99939%,39.99939%,39.99939%);stroke-opacity:1;stroke-miterlimit:3.239307;" d="M 353.882812 231.382812 L 345.597656 265.390625 L 329.703125 304.007812 L 312.988281 304.398438 L 301.089844 307.289062 L 305.71875 283.59375 L 307.546875 277.941406 L 311.164062 258.496094 L 317.496094 245.378906 L 326.542969 236.332031 L 335.136719 233.167969 Z M 353.882812 231.382812 " transform="matrix(1,0,0,1,-74,-13)"/>
<path style="fill-rule:nonzero;fill:rgb(39.99939%,39.99939%,39.99939%);fill-opacity:1;stroke-width:0.03;stroke-linecap:square;stroke-linejoin:miter;stroke:rgb(39.99939%,39.99939%,39.99939%);stroke-opacity:1;stroke-miterlimit:3.239307;" d="M 169.585938 164.722656 L 270.046875 170.476562 L 272.222656 196.707031 L 168.367188 185.351562 Z M 169.585938 164.722656 " transform="matrix(1,0,0,1,-74,-13)"/>
<path style="fill-rule:nonzero;fill:rgb(39.99939%,39.99939%,39.99939%);fill-opacity:1;stroke-width:0.03;stroke-linecap:square;stroke-linejoin:miter;stroke:rgb(39.99939%,39.99939%,39.99939%);stroke-opacity:1;stroke-miterlimit:3.239307;" d="M 265.308594 114.621094 L 270.015625 166.277344 L 174.109375 160.84375 L 232.539062 110.148438 Z M 265.308594 114.621094 " transform="matrix(1,0,0,1,-74,-13)"/>
<path style="fill-rule:nonzero;fill:rgb(39.99939%,39.99939%,39.99939%);fill-opacity:1;stroke-width:0.03;stroke-linecap:square;stroke-linejoin:miter;stroke:rgb(39.99939%,39.99939%,39.99939%);stroke-opacity:1;stroke-miterlimit:3.239307;" d="M 271.652344 115.117188 L 292.792969 116.597656 L 296.496094 121.601562 L 318.6875 123.460938 L 307.367188 169.332031 L 274.726562 166.75 Z M 271.652344 115.117188 " transform="matrix(1,0,0,1,-74,-13)"/>
<g clip-path="url(#clip13)" clip-rule="nonzero">
<path style=" stroke:none;fill-rule:evenodd;fill:rgb(85.096741%,85.096741%,81.959534%);fill-opacity:0.7;" d="M 2.089844 371 C 2.089844 366.203125 0.183594 361.601562 -3.207031 358.207031 C -6.601562 354.816406 -11.203125 352.910156 -16 352.910156 C -20.796875 352.910156 -25.398438 354.816406 -28.792969 358.207031 C -32.183594 361.601562 -34.089844 366.203125 -34.089844 371 C -34.089844 375.796875 -32.183594 380.398438 -28.792969 383.792969 C -25.398438 387.183594 -20.796875 389.089844 -16 389.089844 C -11.203125 389.089844 -6.601562 387.183594 -3.207031 383.792969 C 0.183594 380.398438 2.089844 375.796875 2.089844 371 Z M 2.089844 371 "/>
</g>
<path style=" stroke:none;fill-rule:evenodd;fill:rgb(85.096741%,85.096741%,81.959534%);fill-opacity:0.7;" d="M 216.089844 290 C 216.089844 285.203125 214.183594 280.601562 210.792969 277.207031 C 207.398438 273.816406 202.796875 271.910156 198 271.910156 C 193.203125 271.910156 188.601562 273.816406 185.207031 277.207031 C 181.816406 280.601562 179.910156 285.203125 179.910156 290 C 179.910156 294.796875 181.816406 299.398438 185.207031 302.792969 C 188.601562 306.183594 193.203125 308.089844 198 308.089844 C 202.796875 308.089844 207.398438 306.183594 210.792969 302.792969 C 214.183594 299.398438 216.089844 294.796875 216.089844 290 Z M 216.089844 290 "/>
<path style=" stroke:none;fill-rule:evenodd;fill:rgb(85.096741%,85.096741%,81.959534%);fill-opacity:0.7;" d="M 222.089844 231 C 222.089844 226.203125 220.183594 221.601562 216.792969 218.207031 C 213.398438 214.816406 208.796875 212.910156 204 212.910156 C 199.203125 212.910156 194.601562 214.816406 191.207031 218.207031 C 187.816406 221.601562 185.910156 226.203125 185.910156 231 C 185.910156 235.796875 187.816406 240.398438 191.207031 243.792969 C 194.601562 247.183594 199.203125 249.089844 204 249.089844 C 208.796875 249.089844 213.398438 247.183594 216.792969 243.792969 C 220.183594 240.398438 222.089844 235.796875 222.089844 231 Z M 222.089844 231 "/>
<path style=" stroke:none;fill-rule:evenodd;fill:rgb(85.096741%,85.096741%,81.959534%);fill-opacity:0.7;" d="M 203.089844 223 C 203.089844 218.203125 201.183594 213.601562 197.792969 210.207031 C 194.398438 206.816406 189.796875 204.910156 185 204.910156 C 180.203125 204.910156 175.601562 206.816406 172.207031 210.207031 C 168.816406 213.601562 166.910156 218.203125 166.910156 223 C 166.910156 227.796875 168.816406 232.398438 172.207031 235.792969 C 175.601562 239.183594 180.203125 241.089844 185 241.089844 C 189.796875 241.089844 194.398438 239.183594 197.792969 235.792969 C 201.183594 232.398438 203.089844 227.796875 203.089844 223 Z M 203.089844 223 "/>
<path style=" stroke:none;fill-rule:evenodd;fill:rgb(85.096741%,85.096741%,81.959534%);fill-opacity:0.7;" d="M 229.089844 203 C 229.089844 198.203125 227.183594 193.601562 223.792969 190.207031 C 220.398438 186.816406 215.796875 184.910156 211 184.910156 C 206.203125 184.910156 201.601562 186.816406 198.207031 190.207031 C 194.816406 193.601562 192.910156 198.203125 192.910156 203 C 192.910156 207.796875 194.816406 212.398438 198.207031 215.792969 C 201.601562 219.183594 206.203125 221.089844 211 221.089844 C 215.796875 221.089844 220.398438 219.183594 223.792969 215.792969 C 227.183594 212.398438 229.089844 207.796875 229.089844 203 Z M 229.089844 203 "/>
<path style=" stroke:none;fill-rule:evenodd;fill:rgb(85.096741%,85.096741%,81.959534%);fill-opacity:0.7;" d="M 48.089844 180 C 48.089844 175.203125 46.183594 170.601562 42.792969 167.207031 C 39.398438 163.816406 34.796875 161.910156 30 161.910156 C 25.203125 161.910156 20.601562 163.816406 17.207031 167.207031 C 13.816406 170.601562 11.910156 175.203125 11.910156 180 C 11.910156 184.796875 13.816406 189.398438 17.207031 192.792969 C 20.601562 196.183594 25.203125 198.089844 30 198.089844 C 34.796875 198.089844 39.398438 196.183594 42.792969 192.792969 C 46.183594 189.398438 48.089844 184.796875 48.089844 180 Z M 48.089844 180 "/>
<path style=" stroke:none;fill-rule:evenodd;fill:rgb(85.096741%,85.096741%,81.959534%);fill-opacity:0.7;" d="M 112.089844 128 C 112.089844 123.203125 110.183594 118.601562 106.792969 115.207031 C 103.398438 111.816406 98.796875 109.910156 94 109.910156 C 89.203125 109.910156 84.601562 111.816406 81.207031 115.207031 C 77.816406 118.601562 75.910156 123.203125 75.910156 128 C 75.910156 132.796875 77.816406 137.398438 81.207031 140.792969 C 84.601562 144.183594 89.203125 146.089844 94 146.089844 C 98.796875 146.089844 103.398438 144.183594 106.792969 140.792969 C 110.183594 137.398438 112.089844 132.796875 112.089844 128 Z M 112.089844 128 "/>
<path style=" stroke:none;fill-rule:evenodd;fill:rgb(85.096741%,85.096741%,81.959534%);fill-opacity:0.7;" d="M 293.089844 108 C 293.089844 103.203125 291.183594 98.601562 287.792969 95.207031 C 284.398438 91.816406 279.796875 89.910156 275 89.910156 C 270.203125 89.910156 265.601562 91.816406 262.207031 95.207031 C 258.816406 98.601562 256.910156 103.203125 256.910156 108 C 256.910156 112.796875 258.816406 117.398438 262.207031 120.792969 C 265.601562 124.183594 270.203125 126.089844 275 126.089844 C 279.796875 126.089844 284.398438 124.183594 287.792969 120.792969 C 291.183594 117.398438 293.089844 112.796875 293.089844 108 Z M 293.089844 108 "/>
<path style=" stroke:none;fill-rule:evenodd;fill:rgb(85.096741%,85.096741%,81.959534%);fill-opacity:0.7;" d="M 309.089844 106 C 309.089844 101.203125 307.183594 96.601562 303.792969 93.207031 C 300.398438 89.816406 295.796875 87.910156 291 87.910156 C 286.203125 87.910156 281.601562 89.816406 278.207031 93.207031 C 274.816406 96.601562 272.910156 101.203125 272.910156 106 C 272.910156 110.796875 274.816406 115.398438 278.207031 118.792969 C 281.601562 122.183594 286.203125 124.089844 291 124.089844 C 295.796875 124.089844 300.398438 122.183594 303.792969 118.792969 C 307.183594 115.398438 309.089844 110.796875 309.089844 106 Z M 309.089844 106 "/>
<path style=" stroke:none;fill-rule:evenodd;fill:rgb(85.096741%,85.096741%,81.959534%);fill-opacity:0.7;" d="M 299.089844 102 C 299.089844 97.203125 297.183594 92.601562 293.792969 89.207031 C 290.398438 85.816406 285.796875 83.910156 281 83.910156 C 276.203125 83.910156 271.601562 85.816406 268.207031 89.207031 C 264.816406 92.601562 262.910156 97.203125 262.910156 102 C 262.910156 106.796875 264.816406 111.398438 268.207031 114.792969 C 271.601562 118.183594 276.203125 120.089844 281 120.089844 C 285.796875 120.089844 290.398438 118.183594 293.792969 114.792969 C 297.183594 111.398438 299.089844 106.796875 299.089844 102 Z M 299.089844 102 "/>
<g clip-path="url(#clip14)" clip-rule="nonzero">
<path style=" stroke:none;fill-rule:evenodd;fill:rgb(85.096741%,85.096741%,81.959534%);fill-opacity:0.7;" d="M 379.089844 93 C 379.089844 88.203125 377.183594 83.601562 373.792969 80.207031 C 370.398438 76.816406 365.796875 74.910156 361 74.910156 C 356.203125 74.910156 351.601562 76.816406 348.207031 80.207031 C 344.816406 83.601562 342.910156 88.203125 342.910156 93 C 342.910156 97.796875 344.816406 102.398438 348.207031 105.792969 C 351.601562 109.183594 356.203125 111.089844 361 111.089844 C 365.796875 111.089844 370.398438 109.183594 373.792969 105.792969 C 377.183594 102.398438 379.089844 97.796875 379.089844 93 Z M 379.089844 93 "/>
</g>
<g clip-path="url(#clip15)" clip-rule="nonzero">
<path style=" stroke:none;fill-rule:evenodd;fill:rgb(85.096741%,85.096741%,81.959534%);fill-opacity:0.7;" d="M 376.089844 1 C 376.089844 -3.796875 374.183594 -8.398438 370.792969 -11.792969 C 367.398438 -15.183594 362.796875 -17.089844 358 -17.089844 C 353.203125 -17.089844 348.601562 -15.183594 345.207031 -11.792969 C 341.816406 -8.398438 339.910156 -3.796875 339.910156 1 C 339.910156 5.796875 341.816406 10.398438 345.207031 13.792969 C 348.601562 17.183594 353.203125 19.089844 358 19.089844 C 362.796875 19.089844 367.398438 17.183594 370.792969 13.792969 C 374.183594 10.398438 376.089844 5.796875 376.089844 1 Z M 376.089844 1 "/>
</g>
<path style=" stroke:none;fill-rule:evenodd;fill:rgb(85.096741%,85.096741%,81.959534%);fill-opacity:0.7;" d="M 115.089844 308 C 115.089844 303.203125 113.183594 298.601562 109.792969 295.207031 C 106.398438 291.816406 101.796875 289.910156 97 289.910156 C 92.203125 289.910156 87.601562 291.816406 84.207031 295.207031 C 80.816406 298.601562 78.910156 303.203125 78.910156 308 C 78.910156 312.796875 80.816406 317.398438 84.207031 320.792969 C 87.601562 324.183594 92.203125 326.089844 97 326.089844 C 101.796875 326.089844 106.398438 324.183594 109.792969 320.792969 C 113.183594 317.398438 115.089844 312.796875 115.089844 308 Z M 115.089844 308 "/>
<path style=" stroke:none;fill-rule:evenodd;fill:rgb(85.096741%,85.096741%,81.959534%);fill-opacity:0.7;" d="M 213.089844 214 C 213.089844 209.203125 211.183594 204.601562 207.792969 201.207031 C 204.398438 197.816406 199.796875 195.910156 195 195.910156 C 190.203125 195.910156 185.601562 197.816406 182.207031 201.207031 C 178.816406 204.601562 176.910156 209.203125 176.910156 214 C 176.910156 218.796875 178.816406 223.398438 182.207031 226.792969 C 185.601562 230.183594 190.203125 232.089844 195 232.089844 C 199.796875 232.089844 204.398438 230.183594 207.792969 226.792969 C 211.183594 223.398438 213.089844 218.796875 213.089844 214 Z M 213.089844 214 "/>
<g clip-path="url(#clip16)" clip-rule="nonzero">
<path style=" stroke:none;fill-rule:nonzero;fill:rgb(99.998474%,99.998474%,30.587769%);fill-opacity:0.8;" d="M 24.589844 323.289062 L -14.578125 391.132812 L 63.757812 391.132812 Z M 24.589844 323.289062 "/>
</g>
<g clip-path="url(#clip17)" clip-rule="nonzero">
<path style="fill:none;stroke-width:0.288;stroke-linecap:square;stroke-linejoin:miter;stroke:rgb(0%,0%,0%);stroke-opacity:0.8;stroke-miterlimit:3.25;" d="M 98.589844 336.289062 L 59.421875 404.132812 L 137.757812 404.132812 Z M 98.589844 336.289062 " transform="matrix(1,0,0,1,-74,-13)"/>
</g>
<g clip-path="url(#clip18)" clip-rule="nonzero">
<path style=" stroke:none;fill-rule:nonzero;fill:rgb(99.998474%,99.998474%,30.587769%);fill-opacity:0.8;" d="M 295.964844 359.472656 L 256.792969 427.316406 L 335.132812 427.316406 Z M 295.964844 359.472656 "/>
</g>
<g clip-path="url(#clip19)" clip-rule="nonzero">
<path style="fill:none;stroke-width:0.288;stroke-linecap:square;stroke-linejoin:miter;stroke:rgb(0%,0%,0%);stroke-opacity:0.8;stroke-miterlimit:3.25;" d="M 369.964844 372.472656 L 330.792969 440.316406 L 409.132812 440.316406 Z M 369.964844 372.472656 " transform="matrix(1,0,0,1,-74,-13)"/>
</g>
</g>
</svg>
