<?xml version="1.0" encoding="UTF-8"?>
<svg xmlns="http://www.w3.org/2000/svg" xmlns:xlink="http://www.w3.org/1999/xlink" width="361pt" height="361pt" viewBox="0 0 361 361" version="1.1">
<defs>
<clipPath id="clip1">
  <path d="M 357 287 L 360 287 L 360 317 L 357 317 Z M 357 287 "/>
</clipPath>
<clipPath id="clip2">
  <path d="M 347 291 L 360 291 L 360 320 L 347 320 Z M 347 291 "/>
</clipPath>
<clipPath id="clip3">
  <path d="M 350 322 L 360 322 L 360 343 L 350 343 Z M 350 322 "/>
</clipPath>
<clipPath id="clip4">
  <path d="M 359 318 L 360 318 L 360 345 L 359 345 Z M 359 318 "/>
</clipPath>
<clipPath id="clip5">
  <path d="M 311 207 L 360 207 L 360 291 L 311 291 Z M 311 207 "/>
</clipPath>
<clipPath id="clip6">
  <path d="M 351 219 L 360 219 L 360 252 L 351 252 Z M 351 219 "/>
</clipPath>
<clipPath id="clip7">
  <path d="M 358 127 L 360 127 L 360 159 L 358 159 Z M 358 127 "/>
</clipPath>
<clipPath id="clip8">
  <path d="M 348 129 L 360 129 L 360 164 L 348 164 Z M 348 129 "/>
</clipPath>
<clipPath id="clip9">
  <path d="M 352 269 L 360 269 L 360 277 L 352 277 Z M 352 269 "/>
</clipPath>
<clipPath id="clip10">
  <path d="M 358 267 L 360 267 L 360 275 L 358 275 Z M 358 267 "/>
</clipPath>
<clipPath id="clip11">
  <path d="M 351 248 L 360 248 L 360 269 L 351 269 Z M 351 248 "/>
</clipPath>
<clipPath id="clip12">
  <path d="M 359 203 L 360 203 L 360 220 L 359 220 Z M 359 203 "/>
</clipPath>
<clipPath id="clip13">
  <path d="M 353 205 L 360 205 L 360 221 L 353 221 Z M 353 205 "/>
</clipPath>
<clipPath id="clip14">
  <path d="M 352 105 L 360 105 L 360 127 L 352 127 Z M 352 105 "/>
</clipPath>
<clipPath id="clip15">
  <path d="M 359 94 L 360 94 L 360 124 L 359 124 Z M 359 94 "/>
</clipPath>
<clipPath id="clip16">
  <path d="M 352 63 L 360 63 L 360 95 L 352 95 Z M 352 63 "/>
</clipPath>
<clipPath id="clip17">
  <path d="M 352 29 L 360 29 L 360 58 L 352 58 Z M 352 29 "/>
</clipPath>
<clipPath id="clip18">
  <path d="M 358 184 L 360 184 L 360 200 L 358 200 Z M 358 184 "/>
</clipPath>
<clipPath id="clip19">
  <path d="M 354 191 L 360 191 L 360 203 L 354 203 Z M 354 191 "/>
</clipPath>
<clipPath id="clip20">
  <path d="M 9 273 L 209 273 L 209 360 L 9 360 Z M 9 273 "/>
</clipPath>
<clipPath id="clip21">
  <path d="M 0 349 L 6 349 L 6 360 L 0 360 Z M 0 349 "/>
</clipPath>
<clipPath id="clip22">
  <path d="M 0 354 L 17 354 L 17 360 L 0 360 Z M 0 354 "/>
</clipPath>
</defs>
<g id="surface4053">
<path style="fill-rule:nonzero;fill:rgb(0%,0%,0%);fill-opacity:1;stroke-width:0.03;stroke-linecap:square;stroke-linejoin:miter;stroke:rgb(0%,0%,0%);stroke-opacity:1;stroke-miterlimit:10;" d="M 0 178 L 360 178 L 360 -182 L 0 -182 Z M 0 178 " transform="matrix(1,0,0,1,0,182)"/>
<path style=" stroke:none;fill-rule:nonzero;fill:rgb(39.99939%,39.99939%,39.99939%);fill-opacity:0.3;" d="M 342.058594 281.96875 L 337.695312 283.59375 L 337.558594 283.261719 L 337.605469 283.242188 Z M 342.058594 281.96875 "/>
<path style=" stroke:none;fill-rule:nonzero;fill:rgb(39.99939%,39.99939%,39.99939%);fill-opacity:0.3;" d="M 330.667969 286.113281 L 330.707031 286.207031 L 325.695312 288.066406 L 325.65625 287.96875 L 326.003906 287.839844 Z M 330.667969 286.113281 "/>
<path style=" stroke:none;fill-rule:nonzero;fill:rgb(39.99939%,39.99939%,39.99939%);fill-opacity:0.3;" d="M 319.144531 290.429688 L 319.175781 290.496094 L 318.148438 290.878906 Z M 319.144531 290.429688 "/>
<path style=" stroke:none;fill-rule:nonzero;fill:rgb(39.99939%,39.99939%,39.99939%);fill-opacity:0.3;" d="M 336.660156 283.992188 L 331.804688 285.800781 L 331.757812 285.691406 L 336.535156 283.691406 Z M 336.660156 283.992188 "/>
<path style=" stroke:none;fill-rule:nonzero;fill:rgb(39.99939%,39.99939%,39.99939%);fill-opacity:0.3;" d="M 325 288.332031 L 320.007812 290.1875 L 319.957031 290.0625 L 320.003906 290.042969 L 324.957031 288.226562 Z M 325 288.332031 "/>
<path style=" stroke:none;fill-rule:nonzero;fill:rgb(39.99939%,39.99939%,39.99939%);fill-opacity:0.3;" d="M 339.335938 328.625 L 341.605469 334.738281 L 336.921875 333.210938 L 332.777344 331.066406 Z M 339.335938 328.625 "/>
<path style=" stroke:none;fill-rule:nonzero;fill:rgb(39.99939%,39.99939%,39.99939%);fill-opacity:0.3;" d="M 307.246094 308.65625 L 307.890625 308.773438 L 309.667969 308.855469 L 317.175781 326.019531 L 301.207031 320.441406 Z M 307.246094 308.65625 "/>
<path style=" stroke:none;fill-rule:nonzero;fill:rgb(39.99939%,39.99939%,39.99939%);fill-opacity:0.3;" d="M 318.878906 304.761719 L 328.441406 329.394531 L 321.714844 327.863281 L 321.429688 327.765625 L 319.851562 327.101562 L 311.140625 307.648438 Z M 318.878906 304.761719 "/>
<path style=" stroke:none;fill-rule:nonzero;fill:rgb(39.99939%,39.99939%,39.99939%);fill-opacity:0.3;" d="M 328.621094 301.128906 L 338.457031 327.0625 L 330.667969 329.964844 L 320.246094 304.253906 Z M 328.621094 301.128906 "/>
<path style=" stroke:none;fill-rule:nonzero;fill:rgb(39.99939%,39.99939%,39.99939%);fill-opacity:0.3;" d="M 346.183594 294.734375 L 356.703125 320.414062 L 349.066406 323.261719 L 338.742188 297.511719 Z M 346.183594 294.734375 "/>
<g clip-path="url(#clip1)" clip-rule="nonzero">
<path style=" stroke:none;fill-rule:nonzero;fill:rgb(39.99939%,39.99939%,39.99939%);fill-opacity:0.3;" d="M 365.148438 287.65625 L 375.414062 313.433594 L 367.703125 316.3125 L 357.402344 290.546875 Z M 365.148438 287.65625 "/>
</g>
<path style=" stroke:none;fill-rule:nonzero;fill:rgb(39.99939%,39.99939%,39.99939%);fill-opacity:0.3;" d="M 337.230469 297.910156 L 347.667969 323.621094 L 340.464844 326.351562 L 329.671875 300.730469 Z M 337.230469 297.910156 "/>
<g clip-path="url(#clip2)" clip-rule="nonzero">
<path style=" stroke:none;fill-rule:nonzero;fill:rgb(39.99939%,39.99939%,39.99939%);fill-opacity:0.3;" d="M 356.121094 291.027344 L 366.414062 316.792969 L 358.398438 319.78125 L 347.992188 294.058594 Z M 356.121094 291.027344 "/>
</g>
<g clip-path="url(#clip3)" clip-rule="nonzero">
<path style=" stroke:none;fill-rule:nonzero;fill:rgb(39.99939%,39.99939%,39.99939%);fill-opacity:0.3;" d="M 357.824219 322.207031 L 365.582031 342.515625 L 362.503906 341.691406 L 356.476562 339.585938 L 350.40625 324.832031 Z M 357.824219 322.207031 "/>
</g>
<g clip-path="url(#clip4)" clip-rule="nonzero">
<path style=" stroke:none;fill-rule:nonzero;fill:rgb(39.99939%,39.99939%,39.99939%);fill-opacity:0.3;" d="M 366.980469 318.191406 L 377.0625 343.511719 L 373.640625 344.675781 L 368.53125 343.304688 L 359.859375 320.882812 Z M 366.980469 318.191406 "/>
</g>
<path style=" stroke:none;fill-rule:nonzero;fill:rgb(39.99939%,39.99939%,39.99939%);fill-opacity:0.3;" d="M 348.121094 325.667969 L 353.613281 338.667969 L 344.375 335.652344 L 341.386719 328.097656 Z M 348.121094 325.667969 "/>
<path style=" stroke:none;fill-rule:nonzero;fill:rgb(39.99939%,39.99939%,39.99939%);fill-opacity:0.3;" d="M 233.832031 192.195312 L 226.253906 193.9375 L 218.222656 160.234375 L 225.546875 158.542969 Z M 233.832031 192.195312 "/>
<path style=" stroke:none;fill-rule:nonzero;fill:rgb(39.99939%,39.99939%,39.99939%);fill-opacity:0.3;" d="M 276.039062 228.925781 L 265.996094 231.179688 L 258.574219 200.808594 L 268.210938 198.601562 Z M 276.039062 228.925781 "/>
<path style=" stroke:none;fill-rule:nonzero;fill:rgb(39.99939%,39.99939%,39.99939%);fill-opacity:0.3;" d="M 256.15625 151.609375 L 266.480469 191.867188 L 255.839844 194.246094 L 245.882812 153.957031 Z M 256.15625 151.609375 "/>
<path style=" stroke:none;fill-rule:nonzero;fill:rgb(39.99939%,39.99939%,39.99939%);fill-opacity:0.3;" d="M 216.375 199.257812 L 226.464844 240.0625 L 218.632812 241.820312 L 208.421875 201.082031 Z M 216.375 199.257812 "/>
<path style=" stroke:none;fill-rule:nonzero;fill:rgb(39.99939%,39.99939%,39.99939%);fill-opacity:0.3;" d="M 198.492188 164.667969 L 206.484375 197.105469 L 199.660156 198.667969 L 191.472656 166.253906 Z M 198.492188 164.667969 "/>
<path style=" stroke:none;fill-rule:nonzero;fill:rgb(39.99939%,39.99939%,39.99939%);fill-opacity:0.3;" d="M 207.398438 162.652344 L 215.6875 196.363281 L 207.722656 198.1875 L 199.777344 164.242188 Z M 207.398438 162.652344 "/>
<path style=" stroke:none;fill-rule:nonzero;fill:rgb(39.99939%,39.99939%,39.99939%);fill-opacity:0.3;" d="M 168.964844 170.972656 L 176.703125 202.667969 L 169.6875 204.359375 L 161.925781 172.566406 Z M 168.964844 170.972656 "/>
<path style=" stroke:none;fill-rule:nonzero;fill:rgb(39.99939%,39.99939%,39.99939%);fill-opacity:0.3;" d="M 187.65625 245.695312 L 187.6875 246.191406 L 187.589844 246.835938 L 187.394531 247.347656 L 187.035156 247.917969 L 186.476562 248.433594 L 181.089844 249.648438 L 176.039062 229.191406 L 183.113281 227.582031 Z M 187.65625 245.695312 "/>
<path style=" stroke:none;fill-rule:nonzero;fill:rgb(39.99939%,39.99939%,39.99939%);fill-opacity:0.3;" d="M 178.507812 210.003906 L 182.691406 226.851562 L 175.617188 228.464844 L 171.445312 211.621094 Z M 178.507812 210.003906 "/>
<path style=" stroke:none;fill-rule:nonzero;fill:rgb(39.99939%,39.99939%,39.99939%);fill-opacity:0.3;" d="M 216.816406 160.519531 L 224.824219 192.894531 L 216.546875 194.796875 L 208.523438 162.398438 Z M 216.816406 160.519531 "/>
<path style=" stroke:none;fill-rule:nonzero;fill:rgb(39.99939%,39.99939%,39.99939%);fill-opacity:0.3;" d="M 241.804688 183.238281 L 233.828125 184.808594 L 227.351562 158.132812 L 235.210938 156.355469 Z M 241.804688 183.238281 "/>
<path style=" stroke:none;fill-rule:nonzero;fill:rgb(39.99939%,39.99939%,39.99939%);fill-opacity:0.3;" d="M 247.15625 204.761719 L 254.371094 233.792969 L 247.386719 235.359375 L 239.84375 206.433594 Z M 247.15625 204.761719 "/>
<path style=" stroke:none;fill-rule:nonzero;fill:rgb(39.99939%,39.99939%,39.99939%);fill-opacity:0.3;" d="M 212.242188 243 L 211.679688 242.734375 L 211.261719 242.429688 L 210.886719 242.03125 L 210.574219 241.507812 L 205.890625 223.210938 L 212.566406 221.683594 L 217.652344 242.042969 L 212.828125 243.113281 Z M 212.242188 243 "/>
<path style=" stroke:none;fill-rule:nonzero;fill:rgb(39.99939%,39.99939%,39.99939%);fill-opacity:0.3;" d="M 230.488281 216.3125 L 222.324219 218.015625 L 218.097656 201.226562 L 226.371094 199.328125 L 230.59375 216.125 Z M 230.488281 216.3125 "/>
<path style=" stroke:none;fill-rule:nonzero;fill:rgb(39.99939%,39.99939%,39.99939%);fill-opacity:0.3;" d="M 234.546875 195.089844 L 244.6875 235.96875 L 237.476562 237.585938 L 226.992188 196.824219 Z M 234.546875 195.089844 "/>
<path style=" stroke:none;fill-rule:nonzero;fill:rgb(39.99939%,39.99939%,39.99939%);fill-opacity:0.3;" d="M 208.085938 203.523438 L 212.230469 220.324219 L 205.550781 221.847656 L 201.289062 205.082031 Z M 208.085938 203.523438 "/>
<path style=" stroke:none;fill-rule:nonzero;fill:rgb(39.99939%,39.99939%,39.99939%);fill-opacity:0.3;" d="M 190.847656 170.820312 L 198.816406 202.25 L 178.882812 206.820312 L 171.050781 175.300781 Z M 190.847656 170.820312 "/>
<path style=" stroke:none;fill-rule:nonzero;fill:rgb(39.99939%,39.99939%,39.99939%);fill-opacity:0.3;" d="M 199.097656 203.390625 L 208.328125 239.4375 L 188.21875 243.9375 L 179.167969 207.960938 Z M 199.097656 203.390625 "/>
<path style=" stroke:none;fill-rule:nonzero;fill:rgb(39.99939%,39.99939%,39.99939%);fill-opacity:0.3;" d="M 231.023438 217.464844 L 236.042969 237.910156 L 227.78125 239.765625 L 222.664062 219.375 Z M 231.023438 217.464844 "/>
<path style=" stroke:none;fill-rule:nonzero;fill:rgb(39.99939%,39.99939%,39.99939%);fill-opacity:0.3;" d="M 255.496094 199.84375 L 263.304688 231.59375 L 256.605469 233.203125 L 237.417969 155.460938 L 244.296875 154.296875 L 254.546875 195.984375 L 264.480469 193.710938 L 265.199219 193.832031 L 265.695312 194.113281 L 266.113281 194.523438 L 266.386719 194.988281 L 266.539062 195.574219 L 266.519531 196.160156 L 266.375 196.625 L 266.039062 197.15625 L 265.445312 197.566406 Z M 255.496094 199.84375 "/>
<path style=" stroke:none;fill-rule:nonzero;fill:rgb(39.99939%,39.99939%,39.99939%);fill-opacity:0.3;" d="M 280.84375 222.007812 L 280.640625 221.65625 L 278.066406 211.8125 L 280.605469 221.246094 Z M 280.84375 222.007812 "/>
<path style=" stroke:none;fill-rule:nonzero;fill:rgb(39.99939%,39.99939%,39.99939%);fill-opacity:0.3;" d="M 277.640625 210.175781 L 276.09375 204.261719 L 276.15625 204.246094 Z M 277.640625 210.175781 "/>
<path style=" stroke:none;fill-rule:nonzero;fill:rgb(39.99939%,39.99939%,39.99939%);fill-opacity:0.3;" d="M 275.859375 203.050781 L 275.773438 203.070312 L 272.496094 190.476562 L 272.609375 190.40625 L 274.007812 195.644531 L 275.808594 202.84375 Z M 275.859375 203.050781 "/>
<path style=" stroke:none;fill-rule:nonzero;fill:rgb(39.99939%,39.99939%,39.99939%);fill-opacity:0.3;" d="M 227.828125 123.921875 L 234.949219 154.199219 L 226.921875 156.042969 L 219.773438 125.726562 Z M 227.828125 123.921875 "/>
<path style=" stroke:none;fill-rule:nonzero;fill:rgb(39.99939%,39.99939%,39.99939%);fill-opacity:0.3;" d="M 235.507812 122.917969 L 242.882812 152.378906 L 236.449219 153.90625 L 229.167969 124.234375 Z M 235.507812 122.917969 "/>
<path style=" stroke:none;fill-rule:nonzero;fill:rgb(39.99939%,39.99939%,39.99939%);fill-opacity:0.3;" d="M 211.703125 140.019531 L 216.453125 158.230469 L 207.847656 159.996094 L 203.257812 141.605469 Z M 211.703125 140.019531 "/>
<path style=" stroke:none;fill-rule:nonzero;fill:rgb(39.99939%,39.99939%,39.99939%);fill-opacity:0.3;" d="M 202.433594 144.09375 L 206.453125 160.238281 L 198.789062 161.171875 L 194.613281 145.839844 Z M 202.433594 144.09375 "/>
<path style=" stroke:none;fill-rule:nonzero;fill:rgb(39.99939%,39.99939%,39.99939%);fill-opacity:0.3;" d="M 173.886719 147.539062 L 177.625 163.800781 L 169.828125 165.933594 L 166.40625 149.1875 Z M 173.886719 147.539062 "/>
<path style=" stroke:none;fill-rule:nonzero;fill:rgb(39.99939%,39.99939%,39.99939%);fill-opacity:0.3;" d="M 192.628906 143.789062 L 196.960938 161.554688 L 188.636719 161.484375 L 184.820312 145.535156 Z M 192.628906 143.789062 "/>
<path style=" stroke:none;fill-rule:nonzero;fill:rgb(39.99939%,39.99939%,39.99939%);fill-opacity:0.3;" d="M 174.867188 144.890625 L 172.792969 136.753906 L 179.933594 131.527344 L 182.703125 142.910156 Z M 174.867188 144.890625 "/>
<path style=" stroke:none;fill-rule:nonzero;fill:rgb(39.99939%,39.99939%,39.99939%);fill-opacity:0.3;" d="M 188.082031 125.710938 L 191.839844 141.011719 L 184.117188 142.964844 L 181.238281 130.609375 Z M 188.082031 125.710938 "/>
<path style=" stroke:none;fill-rule:nonzero;fill:rgb(39.99939%,39.99939%,39.99939%);fill-opacity:0.3;" d="M 183.507812 146.316406 L 187.179688 162.023438 L 179.773438 163.65625 L 175.675781 148.066406 Z M 183.507812 146.316406 "/>
<path style=" stroke:none;fill-rule:nonzero;fill:rgb(39.99939%,39.99939%,39.99939%);fill-opacity:0.3;" d="M 196.316406 119.488281 L 200.730469 137.417969 L 192.964844 139.378906 L 189.421875 124.578125 Z M 196.316406 119.488281 "/>
<path style=" stroke:none;fill-rule:nonzero;fill:rgb(39.99939%,39.99939%,39.99939%);fill-opacity:0.3;" d="M 228.695312 96.054688 L 233.839844 116.730469 L 227.015625 118.136719 L 222.691406 100.53125 Z M 228.695312 96.054688 "/>
<path style=" stroke:none;fill-rule:nonzero;fill:rgb(39.99939%,39.99939%,39.99939%);fill-opacity:0.3;" d="M 248.945312 120.214844 L 255.433594 148.101562 L 254.59375 149.691406 L 246.601562 151.523438 L 239.550781 122.128906 Z M 248.945312 120.214844 "/>
<path style=" stroke:none;fill-rule:nonzero;fill:rgb(39.99939%,39.99939%,39.99939%);fill-opacity:0.3;" d="M 221.933594 139.988281 L 225.871094 155.949219 L 224.976562 156.15625 L 217.335938 157.722656 L 213.5 141.875 Z M 221.933594 139.988281 "/>
<path style=" stroke:none;fill-rule:nonzero;fill:rgb(39.99939%,39.99939%,39.99939%);fill-opacity:0.3;" d="M 204.519531 114.078125 L 207.113281 123.9375 L 199.386719 126.257812 L 197.785156 118.6875 Z M 204.519531 114.078125 "/>
<path style=" stroke:none;fill-rule:nonzero;fill:rgb(39.99939%,39.99939%,39.99939%);fill-opacity:0.3;" d="M 216.550781 119.09375 L 208.582031 121.679688 L 206.40625 112.289062 L 213.894531 106.871094 Z M 216.550781 119.09375 "/>
<path style=" stroke:none;fill-rule:nonzero;fill:rgb(39.99939%,39.99939%,39.99939%);fill-opacity:0.3;" d="M 221.929688 101.117188 L 226.386719 119.355469 L 218.289062 121.039062 L 214.878906 106.214844 Z M 221.929688 101.117188 "/>
<path style=" stroke:none;fill-rule:nonzero;fill:rgb(39.99939%,39.99939%,39.99939%);fill-opacity:0.3;" d="M 243.367188 96.628906 L 247.582031 114.03125 L 237.441406 116.085938 L 231.917969 93.742188 L 234.300781 92.046875 L 235.375 91.972656 L 237.539062 92.320312 L 239.808594 92.96875 L 241.082031 93.84375 L 242.441406 95.210938 Z M 243.367188 96.628906 "/>
<path style=" stroke:none;fill-rule:nonzero;fill:rgb(39.99939%,39.99939%,39.99939%);fill-opacity:0.3;" d="M 169.640625 208.9375 L 179.964844 250.058594 L 172.109375 251.820312 L 161.316406 210.890625 Z M 169.640625 208.9375 "/>
<path style=" stroke:none;fill-rule:nonzero;fill:rgb(39.99939%,39.99939%,39.99939%);fill-opacity:0.3;" d="M 169.175781 206.1875 L 160.8125 208.101562 L 152.050781 174.796875 L 160.820312 172.8125 Z M 169.175781 206.1875 "/>
<path style=" stroke:none;fill-rule:nonzero;fill:rgb(39.99939%,39.99939%,39.99939%);fill-opacity:0.3;" d="M 166.851562 268.472656 L 163.6875 256.371094 L 171.636719 254.636719 L 175.945312 271.457031 Z M 166.851562 268.472656 "/>
<path style=" stroke:none;fill-rule:nonzero;fill:rgb(39.99939%,39.99939%,39.99939%);fill-opacity:0.3;" d="M 181.433594 252.5 L 187.195312 277.320312 L 177.746094 274.226562 L 172.558594 254.4375 Z M 181.433594 252.5 "/>
<path style=" stroke:none;fill-rule:nonzero;fill:rgb(39.99939%,39.99939%,39.99939%);fill-opacity:0.3;" d="M 200.371094 250.859375 L 208.257812 284.207031 L 198.304688 280.957031 L 191.621094 252.648438 Z M 200.371094 250.859375 "/>
<path style=" stroke:none;fill-rule:nonzero;fill:rgb(39.99939%,39.99939%,39.99939%);fill-opacity:0.3;" d="M 276.121094 231.238281 L 284.363281 264.292969 L 275.261719 266.289062 L 267.066406 233.34375 Z M 276.121094 231.238281 "/>
<path style=" stroke:none;fill-rule:nonzero;fill:rgb(39.99939%,39.99939%,39.99939%);fill-opacity:0.3;" d="M 227.398438 242.449219 L 232.292969 262.425781 L 224.207031 264.246094 L 219.273438 244.226562 Z M 227.398438 242.449219 "/>
<path style=" stroke:none;fill-rule:nonzero;fill:rgb(39.99939%,39.99939%,39.99939%);fill-opacity:0.3;" d="M 245.34375 238.40625 L 251.707031 264.0625 L 244.773438 265.644531 L 238.433594 240.015625 Z M 245.34375 238.40625 "/>
<path style=" stroke:none;fill-rule:nonzero;fill:rgb(39.99939%,39.99939%,39.99939%);fill-opacity:0.3;" d="M 255.292969 236.085938 L 261.65625 261.804688 L 253.792969 263.597656 L 247.6875 237.914062 Z M 255.292969 236.085938 "/>
<path style=" stroke:none;fill-rule:nonzero;fill:rgb(39.99939%,39.99939%,39.99939%);fill-opacity:0.3;" d="M 263.734375 234.207031 L 271.730469 264.910156 L 264.179688 266.542969 L 256.558594 235.859375 Z M 263.734375 234.207031 "/>
<path style=" stroke:none;fill-rule:nonzero;fill:rgb(39.99939%,39.99939%,39.99939%);fill-opacity:0.3;" d="M 217.476562 282.679688 L 213.078125 283.640625 L 209.296875 282.597656 L 206.183594 270.257812 L 213.917969 268.5625 Z M 217.476562 282.679688 "/>
<path style=" stroke:none;fill-rule:nonzero;fill:rgb(39.99939%,39.99939%,39.99939%);fill-opacity:0.3;" d="M 233.105469 264.070312 L 236.78125 278.859375 L 228.503906 280.660156 L 224.882812 265.859375 Z M 233.105469 264.070312 "/>
<path style=" stroke:none;fill-rule:nonzero;fill:rgb(39.99939%,39.99939%,39.99939%);fill-opacity:0.3;" d="M 242.511719 266.148438 L 234.855469 267.746094 L 228.347656 242.242188 L 236.242188 240.519531 Z M 242.511719 266.148438 "/>
<path style=" stroke:none;fill-rule:nonzero;fill:rgb(39.99939%,39.99939%,39.99939%);fill-opacity:0.3;" d="M 238.097656 284.652344 L 240.75 295.820312 L 231.105469 292.273438 L 229.796875 286.46875 Z M 238.097656 284.652344 "/>
<path style=" stroke:none;fill-rule:nonzero;fill:rgb(39.99939%,39.99939%,39.99939%);fill-opacity:0.3;" d="M 255.050781 266.027344 L 259.214844 283.007812 L 247.78125 285.5 L 243.617188 268.519531 Z M 255.050781 266.027344 "/>
<path style=" stroke:none;fill-rule:nonzero;fill:rgb(39.99939%,39.99939%,39.99939%);fill-opacity:0.3;" d="M 257.003906 285.667969 L 261.289062 303.210938 L 253.773438 300.476562 L 250.058594 287.191406 Z M 257.003906 285.667969 "/>
<path style=" stroke:none;fill-rule:nonzero;fill:rgb(39.99939%,39.99939%,39.99939%);fill-opacity:0.3;" d="M 279.417969 293.78125 L 283.171875 308.027344 L 280.984375 308.570312 L 274.699219 307.328125 L 273.996094 305.859375 L 271.390625 295.695312 Z M 279.417969 293.78125 "/>
<path style=" stroke:none;fill-rule:nonzero;fill:rgb(39.99939%,39.99939%,39.99939%);fill-opacity:0.3;" d="M 267.097656 283.84375 L 272.882812 307.382812 L 270.203125 306.460938 L 264.257812 304.25 L 259.4375 285.695312 Z M 267.097656 283.84375 "/>
<path style=" stroke:none;fill-rule:nonzero;fill:rgb(39.99939%,39.99939%,39.99939%);fill-opacity:0.3;" d="M 273.277344 271.078125 L 278.90625 292.5 L 270.996094 294.195312 L 265.828125 272.714844 Z M 273.277344 271.078125 "/>
<path style=" stroke:none;fill-rule:nonzero;fill:rgb(39.99939%,39.99939%,39.99939%);fill-opacity:0.3;" d="M 165.25 149.902344 L 168.976562 166.183594 L 161.582031 169.472656 L 157.941406 153.984375 Z M 165.25 149.902344 "/>
<path style=" stroke:none;fill-rule:nonzero;fill:rgb(39.99939%,39.99939%,39.99939%);fill-opacity:0.3;" d="M 148.59375 160.398438 L 151.128906 172.816406 L 142.847656 174.867188 L 141.164062 165.480469 Z M 148.59375 160.398438 "/>
<path style=" stroke:none;fill-rule:nonzero;fill:rgb(39.99939%,39.99939%,39.99939%);fill-opacity:0.3;" d="M 156.28125 155.140625 L 159.476562 170.746094 L 151.886719 172.628906 L 149.328125 159.894531 Z M 156.28125 155.140625 "/>
<path style=" stroke:none;fill-rule:nonzero;fill:rgb(39.99939%,39.99939%,39.99939%);fill-opacity:0.3;" d="M 132.691406 179.171875 L 139.660156 206.789062 L 132.117188 208.359375 L 124.75 180.964844 Z M 132.691406 179.171875 "/>
<path style=" stroke:none;fill-rule:nonzero;fill:rgb(39.99939%,39.99939%,39.99939%);fill-opacity:0.3;" d="M 154.59375 224.335938 L 162.121094 254.175781 L 153.660156 256.074219 L 146.605469 226.261719 Z M 154.59375 224.335938 "/>
<path style=" stroke:none;fill-rule:nonzero;fill:rgb(39.99939%,39.99939%,39.99939%);fill-opacity:0.3;" d="M 71.777344 210.121094 L 77.765625 233.460938 L 71.394531 234.992188 L 65.496094 214.617188 Z M 71.777344 210.121094 "/>
<path style=" stroke:none;fill-rule:nonzero;fill:rgb(39.99939%,39.99939%,39.99939%);fill-opacity:0.3;" d="M 79.574219 204.535156 L 85.921875 231.496094 L 78.675781 233.242188 L 72.59375 209.535156 Z M 79.574219 204.535156 "/>
<path style=" stroke:none;fill-rule:nonzero;fill:rgb(39.99939%,39.99939%,39.99939%);fill-opacity:0.3;" d="M 96.476562 230.738281 L 90.066406 232.28125 L 82.855469 202.1875 L 88.617188 198.0625 Z M 96.476562 230.738281 "/>
<path style=" stroke:none;fill-rule:nonzero;fill:rgb(39.99939%,39.99939%,39.99939%);fill-opacity:0.3;" d="M 116.457031 229.371094 L 121.273438 251.078125 L 112.78125 248.261719 L 108.585938 231.265625 Z M 116.457031 229.371094 "/>
<path style=" stroke:none;fill-rule:nonzero;fill:rgb(39.99939%,39.99939%,39.99939%);fill-opacity:0.3;" d="M 125.644531 228.339844 L 132.035156 254.648438 L 122.8125 251.589844 L 117.90625 230.203125 Z M 125.644531 228.339844 "/>
<path style=" stroke:none;fill-rule:nonzero;fill:rgb(39.99939%,39.99939%,39.99939%);fill-opacity:0.3;" d="M 145.09375 228.253906 L 152.1875 256.425781 L 145.433594 257.941406 L 137.945312 229.976562 Z M 145.09375 228.253906 "/>
<path style=" stroke:none;fill-rule:nonzero;fill:rgb(39.99939%,39.99939%,39.99939%);fill-opacity:0.3;" d="M 136.558594 231.628906 L 143.210938 257.738281 L 142.746094 257.730469 L 133.636719 254.707031 L 128.417969 233.589844 Z M 136.558594 231.628906 "/>
<path style=" stroke:none;fill-rule:nonzero;fill:rgb(39.99939%,39.99939%,39.99939%);fill-opacity:0.3;" d="M 96.269531 192.582031 L 104.980469 226.90625 L 97.886719 228.613281 L 90.257812 196.886719 Z M 96.269531 192.582031 "/>
<path style=" stroke:none;fill-rule:nonzero;fill:rgb(39.99939%,39.99939%,39.99939%);fill-opacity:0.3;" d="M 115.726562 226.101562 L 107.78125 228.015625 L 98.628906 190.890625 L 104.972656 186.351562 L 109.453125 200.675781 L 113.121094 214.414062 Z M 115.726562 226.101562 "/>
<path style=" stroke:none;fill-rule:nonzero;fill:rgb(39.99939%,39.99939%,39.99939%);fill-opacity:0.3;" d="M 99.449219 235.085938 L 106.625 233.359375 L 110.199219 247.402344 L 101.742188 244.613281 Z M 99.449219 235.085938 "/>
<path style=" stroke:none;fill-rule:nonzero;fill:rgb(39.99939%,39.99939%,39.99939%);fill-opacity:0.3;" d="M 150.90625 175.054688 L 159.292969 207.546875 L 151.816406 209.257812 L 143.6875 176.6875 Z M 150.90625 175.054688 "/>
<path style=" stroke:none;fill-rule:nonzero;fill:rgb(39.99939%,39.99939%,39.99939%);fill-opacity:0.3;" d="M 142.898438 176.867188 L 151.253906 210.289062 L 142.824219 212.222656 L 134.464844 178.769531 Z M 142.898438 176.867188 "/>
<path style=" stroke:none;fill-rule:nonzero;fill:rgb(39.99939%,39.99939%,39.99939%);fill-opacity:0.3;" d="M 160.691406 213.324219 L 165.042969 230.15625 L 157.625 231.816406 L 153.453125 215.152344 Z M 160.691406 213.324219 "/>
<path style=" stroke:none;fill-rule:nonzero;fill:rgb(39.99939%,39.99939%,39.99939%);fill-opacity:0.3;" d="M 114.566406 183.269531 L 124.085938 221.933594 L 116.433594 223.773438 L 114.25 214.425781 L 110.453125 200.433594 L 105.917969 185.296875 L 106.074219 185.1875 Z M 114.566406 183.269531 "/>
<path style=" stroke:none;fill-rule:nonzero;fill:rgb(39.99939%,39.99939%,39.99939%);fill-opacity:0.3;" d="M 134.011719 221.324219 L 125.898438 223.277344 L 115.980469 182.949219 L 123.863281 181.167969 Z M 134.011719 221.324219 "/>
<path style=" stroke:none;fill-rule:nonzero;fill:rgb(39.99939%,39.99939%,39.99939%);fill-opacity:0.3;" d="M 92.277344 241.496094 L 90.847656 235.535156 L 97.261719 233.992188 L 99.648438 243.925781 Z M 92.277344 241.496094 "/>
<path style=" stroke:none;fill-rule:nonzero;fill:rgb(39.99939%,39.99939%,39.99939%);fill-opacity:0.3;" d="M 284.832031 266.214844 L 293.355469 300.929688 L 292.257812 302.914062 L 291.402344 303.996094 L 290.257812 304.8125 L 284.171875 307.074219 L 274.652344 268.449219 Z M 284.832031 266.214844 "/>
<path style=" stroke:none;fill-rule:nonzero;fill:rgb(39.99939%,39.99939%,39.99939%);fill-opacity:0.3;" d="M 209.035156 249.058594 L 213.542969 267.070312 L 205.808594 268.761719 L 201.261719 250.675781 Z M 209.035156 249.058594 "/>
<path style=" stroke:none;fill-rule:nonzero;fill:rgb(39.99939%,39.99939%,39.99939%);fill-opacity:0.3;" d="M 218.328125 244.96875 L 227.871094 282.550781 L 219.234375 284.441406 L 210.328125 249.335938 Z M 218.328125 244.96875 "/>
<path style=" stroke:none;fill-rule:nonzero;fill:rgb(39.99939%,39.99939%,39.99939%);fill-opacity:0.3;" d="M 188.007812 275.332031 L 182.976562 253.953125 L 190.75 252.875 L 196.542969 277.441406 Z M 188.007812 275.332031 "/>
<path style=" stroke:none;fill-rule:nonzero;fill:rgb(39.99939%,39.99939%,39.99939%);fill-opacity:0.3;" d="M 308.570312 294.441406 L 306.871094 295.074219 L 305.378906 295.289062 L 303.851562 295.101562 L 302.914062 294.824219 L 301.976562 294.402344 L 301.039062 293.652344 L 298.527344 291.074219 L 297.332031 289.105469 L 295.457031 281.441406 L 297.605469 288.042969 L 299.605469 291.441406 L 301.605469 293.242188 L 304.207031 294.640625 Z M 308.570312 294.441406 "/>
<path style=" stroke:none;fill-rule:nonzero;fill:rgb(39.99939%,39.99939%,39.99939%);fill-opacity:0.3;" d="M 257.90625 130.40625 L 257.875 130.429688 L 251.214844 101.871094 L 251.808594 102.25 L 257.808594 130.050781 Z M 257.90625 130.40625 "/>
<path style=" stroke:none;fill-rule:nonzero;fill:rgb(39.99939%,39.99939%,39.99939%);fill-opacity:0.3;" d="M 62.894531 218.679688 L 63.324219 219.183594 L 63.847656 219.957031 L 64.511719 221.566406 L 65.273438 224.660156 L 66.566406 229.78125 L 67.40625 233.78125 L 68.171875 234.929688 L 69.539062 235.910156 L 75.027344 237.875 L 146.488281 261.363281 L 147.027344 261.707031 L 147.382812 262.199219 L 147.695312 262.96875 L 147.714844 263.699219 L 144.382812 271.613281 L 143.585938 272.546875 L 142.472656 273.425781 L 141.464844 273.878906 L 140.328125 274.164062 L 139.070312 273.988281 L 136.816406 273.226562 L 129.285156 270.441406 L 65.074219 249.335938 L 61.234375 247.402344 L 59.828125 246.445312 L 58.335938 245.375 L 56.992188 244.15625 L 56.324219 243.5 L 55.953125 243.679688 L 55.292969 242.847656 L 53.882812 241.074219 L 52.878906 239.789062 L 51.429688 237.644531 L 52.589844 238.183594 L 53.734375 238.605469 L 54.800781 238.875 L 55.976562 239.03125 L 57.136719 239.007812 L 58.355469 238.945312 L 60.105469 238.464844 L 61.167969 237.988281 L 62.351562 237.25 L 63.507812 236.175781 L 64.757812 234.277344 L 65.394531 232.058594 L 65.375 229.574219 L 64.988281 227.195312 L 64.320312 224.699219 L 63.65625 223.226562 L 63.082031 222.324219 L 62.128906 221.363281 L 61.300781 220.757812 L 60.125 220.175781 L 58.59375 219.859375 L 56.851562 219.625 L 59.132812 218.164062 L 59.820312 217.722656 L 60.300781 217.527344 L 60.816406 217.429688 L 61.179688 217.484375 L 61.492188 217.585938 L 61.832031 217.78125 L 62.128906 217.984375 L 62.457031 218.242188 Z M 62.894531 218.679688 "/>
<path style=" stroke:none;fill-rule:nonzero;fill:rgb(39.99939%,39.99939%,39.99939%);fill-opacity:0.3;" d="M 165.847656 231.472656 L 171.101562 251.84375 L 163.246094 253.605469 L 158.171875 233.222656 Z M 165.847656 231.472656 "/>
<path style=" stroke:none;fill-rule:nonzero;fill:rgb(39.99939%,39.99939%,39.99939%);fill-opacity:0.3;" d="M 247.925781 287.949219 L 250.699219 299.367188 L 242.109375 296.285156 L 240.273438 289.433594 Z M 247.925781 287.949219 "/>
<path style=" stroke:none;fill-rule:nonzero;fill:rgb(39.99939%,39.99939%,39.99939%);fill-opacity:0.3;" d="M 3.777344 105.976562 L -3.65625 125.703125 L -10.960938 123.167969 L -3.015625 102.078125 Z M 3.777344 105.976562 "/>
<path style=" stroke:none;fill-rule:nonzero;fill:rgb(39.99939%,39.99939%,39.99939%);fill-opacity:0.3;" d="M 4.648438 106.480469 L 7.257812 107.976562 L 8.078125 108.898438 L 8.824219 110.144531 L 9.632812 112.421875 L 9.875 115.230469 L 1.96875 136.269531 L -5.589844 133.628906 Z M 4.648438 106.480469 "/>
<g clip-path="url(#clip5)" clip-rule="nonzero">
<path style=" stroke:none;fill-rule:nonzero;fill:rgb(39.99939%,39.99939%,39.99939%);fill-opacity:0.3;" d="M 342.644531 218.703125 L 342.972656 217.851562 L 343.386719 216.769531 L 341.890625 211.492188 L 346.621094 209.738281 L 352.257812 207.648438 L 347.84375 216.054688 L 351.351562 224.453125 L 361.136719 247.757812 L 360.398438 248.054688 L 361.78125 251.171875 L 370.335938 271.425781 L 367.324219 272.546875 L 367.003906 272.640625 L 366.800781 272.71875 L 345.535156 220.449219 L 344.402344 221.261719 L 313.671875 290.007812 L 311.023438 289.945312 Z M 342.644531 218.703125 "/>
</g>
<g clip-path="url(#clip6)" clip-rule="nonzero">
<path style=" stroke:none;fill-rule:nonzero;fill:rgb(39.99939%,39.99939%,39.99939%);fill-opacity:0.3;" d="M 351.425781 224.425781 L 364.078125 219.738281 L 374.910156 246.328125 L 361.816406 251.160156 L 360.4375 248.0625 L 361.164062 247.761719 Z M 351.425781 224.425781 "/>
</g>
<path style=" stroke:none;fill-rule:nonzero;fill:rgb(39.99939%,39.99939%,39.99939%);fill-opacity:0.3;" d="M 356.082031 165.851562 L 359.011719 177.414062 L 354.441406 187.285156 L 353.144531 187.425781 L 347.972656 167.546875 Z M 356.082031 165.851562 "/>
<path style=" stroke:none;fill-rule:nonzero;fill:rgb(39.99939%,39.99939%,39.99939%);fill-opacity:0.3;" d="M 330.390625 181.640625 L 337.175781 208.78125 L 329.390625 211.664062 L 322.367188 183.417969 Z M 330.390625 181.640625 "/>
<path style=" stroke:none;fill-rule:nonzero;fill:rgb(39.99939%,39.99939%,39.99939%);fill-opacity:0.3;" d="M 321.039062 183.714844 L 328.03125 212.164062 L 320.601562 214.914062 L 313.199219 185.453125 Z M 321.039062 183.714844 "/>
<path style=" stroke:none;fill-rule:nonzero;fill:rgb(39.99939%,39.99939%,39.99939%);fill-opacity:0.3;" d="M 297.917969 208.351562 L 301.433594 222.007812 L 293.558594 224.921875 L 289.882812 210.308594 Z M 297.917969 208.351562 "/>
<path style=" stroke:none;fill-rule:nonzero;fill:rgb(39.99939%,39.99939%,39.99939%);fill-opacity:0.3;" d="M 286.21875 201.902344 L 292.171875 225.433594 L 291.703125 225.605469 L 289.78125 226.105469 L 287.277344 226.03125 L 285.144531 225.5625 L 282.972656 224.375 L 281.445312 223.042969 L 280.84375 222.007812 L 280.605469 221.246094 L 278.066406 211.8125 L 277.640625 210.175781 L 276.15625 204.246094 Z M 286.21875 201.902344 "/>
<path style=" stroke:none;fill-rule:nonzero;fill:rgb(39.99939%,39.99939%,39.99939%);fill-opacity:0.3;" d="M 298.75 173.339844 L 304.402344 196.402344 L 297.101562 198.105469 L 291.851562 177.65625 Z M 298.75 173.339844 "/>
<path style=" stroke:none;fill-rule:nonzero;fill:rgb(39.99939%,39.99939%,39.99939%);fill-opacity:0.3;" d="M 316.464844 203.832031 L 319.429688 215.347656 L 311.726562 218.199219 L 308.570312 205.757812 Z M 316.464844 203.832031 "/>
<path style=" stroke:none;fill-rule:nonzero;fill:rgb(39.99939%,39.99939%,39.99939%);fill-opacity:0.3;" d="M 324.289062 157.203125 L 330.015625 180.175781 L 312.980469 184.039062 L 307.046875 160.878906 Z M 324.289062 157.203125 "/>
<path style=" stroke:none;fill-rule:nonzero;fill:rgb(39.99939%,39.99939%,39.99939%);fill-opacity:0.3;" d="M 281.863281 184.632812 L 285.917969 200.714844 L 275.859375 203.050781 L 275.808594 202.84375 L 274.007812 195.644531 L 272.609375 190.40625 Z M 281.863281 184.632812 "/>
<path style=" stroke:none;fill-rule:nonzero;fill:rgb(39.99939%,39.99939%,39.99939%);fill-opacity:0.3;" d="M 273.371094 148.261719 L 281.3125 179.847656 L 272.070312 186.3125 L 265.273438 160.148438 L 265.128906 156.875 L 265.71875 154.671875 L 267.121094 152.347656 L 268.722656 150.660156 L 270.78125 149.351562 Z M 273.371094 148.261719 "/>
<path style=" stroke:none;fill-rule:nonzero;fill:rgb(39.99939%,39.99939%,39.99939%);fill-opacity:0.3;" d="M 291.617188 144.175781 L 297.5 168.234375 L 290.652344 173.027344 L 283.710938 145.949219 Z M 291.617188 144.175781 "/>
<path style=" stroke:none;fill-rule:nonzero;fill:rgb(39.99939%,39.99939%,39.99939%);fill-opacity:0.3;" d="M 290.675781 180.085938 L 297.59375 207.085938 L 289.5625 209.039062 L 283.453125 184.601562 Z M 290.675781 180.085938 "/>
<path style=" stroke:none;fill-rule:nonzero;fill:rgb(39.99939%,39.99939%,39.99939%);fill-opacity:0.3;" d="M 282.039062 146.324219 L 289.648438 175.636719 L 282.566406 180.59375 L 274.316406 148.058594 Z M 282.039062 146.324219 "/>
<path style=" stroke:none;fill-rule:nonzero;fill:rgb(39.99939%,39.99939%,39.99939%);fill-opacity:0.3;" d="M 300.640625 142.148438 L 305.828125 162.40625 L 298.839844 167.296875 L 292.933594 143.878906 Z M 300.640625 142.148438 "/>
<g clip-path="url(#clip7)" clip-rule="nonzero">
<path style=" stroke:none;fill-rule:nonzero;fill:rgb(39.99939%,39.99939%,39.99939%);fill-opacity:0.3;" d="M 365.953125 127.4375 L 371.097656 149.742188 L 367.214844 158.289062 L 365.644531 158.640625 L 358.054688 129.222656 Z M 365.953125 127.4375 "/>
</g>
<g clip-path="url(#clip8)" clip-rule="nonzero">
<path style=" stroke:none;fill-rule:nonzero;fill:rgb(39.99939%,39.99939%,39.99939%);fill-opacity:0.3;" d="M 356.488281 129.574219 L 364.554688 161.851562 L 357.003906 163.503906 L 348.628906 131.347656 Z M 356.488281 129.574219 "/>
</g>
<path style=" stroke:none;fill-rule:nonzero;fill:rgb(39.99939%,39.99939%,39.99939%);fill-opacity:0.3;" d="M 347.25 131.660156 L 355.324219 163.601562 L 347.292969 164.453125 L 339.160156 133.484375 Z M 347.25 131.660156 "/>
<path style=" stroke:none;fill-rule:nonzero;fill:rgb(39.99939%,39.99939%,39.99939%);fill-opacity:0.3;" d="M 337.773438 133.796875 L 346.253906 166.710938 L 338.445312 168.34375 L 330.183594 135.503906 Z M 337.773438 133.796875 "/>
<path style=" stroke:none;fill-rule:nonzero;fill:rgb(39.99939%,39.99939%,39.99939%);fill-opacity:0.3;" d="M 328.570312 135.867188 L 336.664062 167.507812 L 328.636719 169.1875 L 320.734375 137.628906 Z M 328.570312 135.867188 "/>
<path style=" stroke:none;fill-rule:nonzero;fill:rgb(39.99939%,39.99939%,39.99939%);fill-opacity:0.3;" d="M 319.488281 137.910156 L 324.003906 156.152344 L 316 157.839844 L 311.539062 139.699219 Z M 319.488281 137.910156 "/>
<path style=" stroke:none;fill-rule:nonzero;fill:rgb(39.99939%,39.99939%,39.99939%);fill-opacity:0.3;" d="M 310.332031 139.96875 L 314.792969 157.929688 L 307.140625 159.738281 L 302.871094 141.753906 Z M 310.332031 139.96875 "/>
<path style=" stroke:none;fill-rule:nonzero;fill:rgb(39.99939%,39.99939%,39.99939%);fill-opacity:0.3;" d="M 344.738281 221.96875 L 355.261719 247.746094 L 350.6875 249.433594 L 341.863281 227.441406 Z M 344.738281 221.96875 "/>
<path style=" stroke:none;fill-rule:nonzero;fill:rgb(39.99939%,39.99939%,39.99939%);fill-opacity:0.3;" d="M 337.882812 237.625 L 343.808594 251.976562 L 338.933594 253.796875 L 334.859375 243.953125 Z M 337.882812 237.625 "/>
<path style=" stroke:none;fill-rule:nonzero;fill:rgb(39.99939%,39.99939%,39.99939%);fill-opacity:0.3;" d="M 330.726562 252.648438 L 342.816406 281.6875 L 342.058594 281.96875 L 337.605469 283.242188 L 337.558594 283.261719 L 327.546875 259.222656 Z M 330.726562 252.648438 "/>
<path style=" stroke:none;fill-rule:nonzero;fill:rgb(39.99939%,39.99939%,39.99939%);fill-opacity:0.3;" d="M 323.746094 269.355469 L 330.667969 286.113281 L 326.003906 287.839844 L 325.65625 287.96875 L 321.066406 276.9375 Z M 323.746094 269.355469 "/>
<path style=" stroke:none;fill-rule:nonzero;fill:rgb(39.99939%,39.99939%,39.99939%);fill-opacity:0.3;" d="M 317.058594 285.417969 L 319.144531 290.429688 L 318.148438 290.878906 L 313.734375 292.523438 Z M 317.058594 285.417969 "/>
<path style=" stroke:none;fill-rule:nonzero;fill:rgb(39.99939%,39.99939%,39.99939%);fill-opacity:0.3;" d="M 317.585938 274.132812 L 314.386719 280.796875 L 305.324219 245.046875 L 310.238281 243.910156 Z M 317.585938 274.132812 "/>
<path style=" stroke:none;fill-rule:nonzero;fill:rgb(39.99939%,39.99939%,39.99939%);fill-opacity:0.3;" d="M 325.738281 253.265625 L 322.621094 261.609375 L 312.539062 222.367188 L 317.273438 220.613281 Z M 325.738281 253.265625 "/>
<path style=" stroke:none;fill-rule:nonzero;fill:rgb(39.99939%,39.99939%,39.99939%);fill-opacity:0.3;" d="M 334.234375 235.394531 L 330.898438 242.347656 L 324.386719 217.976562 L 328.988281 216.273438 Z M 334.234375 235.394531 "/>
<path style=" stroke:none;fill-rule:nonzero;fill:rgb(39.99939%,39.99939%,39.99939%);fill-opacity:0.3;" d="M 342.414062 218.6875 L 338.996094 225.625 L 335.957031 213.691406 L 340.660156 211.945312 Z M 342.414062 218.6875 "/>
<path style=" stroke:none;fill-rule:nonzero;fill:rgb(39.99939%,39.99939%,39.99939%);fill-opacity:0.3;" d="M 353.753906 259.570312 L 357.460938 268.800781 L 352.394531 270.6875 L 348.6875 261.457031 Z M 353.753906 259.570312 "/>
<path style=" stroke:none;fill-rule:nonzero;fill:rgb(39.99939%,39.99939%,39.99939%);fill-opacity:0.3;" d="M 329.347656 99.386719 L 337.230469 130.585938 L 329.300781 132.398438 L 321.648438 101.148438 Z M 329.347656 99.386719 "/>
<path style=" stroke:none;fill-rule:nonzero;fill:rgb(39.99939%,39.99939%,39.99939%);fill-opacity:0.3;" d="M 299.527344 227.1875 L 306.964844 256.148438 L 302.0625 257.292969 L 295.121094 228.816406 Z M 299.527344 227.1875 "/>
<path style=" stroke:none;fill-rule:nonzero;fill:rgb(39.99939%,39.99939%,39.99939%);fill-opacity:0.3;" d="M 305.605469 224.933594 L 310.007812 242.972656 L 305.082031 244.113281 L 300.648438 226.769531 Z M 305.605469 224.933594 "/>
<path style=" stroke:none;fill-rule:nonzero;fill:rgb(39.99939%,39.99939%,39.99939%);fill-opacity:0.3;" d="M 311.386719 222.792969 L 321.488281 260.796875 L 317.773438 268.347656 L 306.683594 224.535156 Z M 311.386719 222.792969 "/>
<path style=" stroke:none;fill-rule:nonzero;fill:rgb(39.99939%,39.99939%,39.99939%);fill-opacity:0.3;" d="M 323.324219 218.371094 L 329.574219 241.914062 L 325.863281 249.5 L 318.519531 220.148438 Z M 323.324219 218.371094 "/>
<path style=" stroke:none;fill-rule:nonzero;fill:rgb(39.99939%,39.99939%,39.99939%);fill-opacity:0.3;" d="M 331.757812 285.691406 L 325.214844 269.988281 L 328.191406 263.652344 L 336.535156 283.691406 Z M 331.757812 285.691406 "/>
<path style=" stroke:none;fill-rule:nonzero;fill:rgb(39.99939%,39.99939%,39.99939%);fill-opacity:0.3;" d="M 348.53125 279.335938 L 343.632812 281.160156 L 341.425781 275.855469 L 346.320312 274.035156 Z M 348.53125 279.335938 "/>
<path style=" stroke:none;fill-rule:nonzero;fill:rgb(39.99939%,39.99939%,39.99939%);fill-opacity:0.3;" d="M 354.117188 277.253906 L 349.246094 279.070312 L 347.101562 273.742188 L 351.976562 271.929688 Z M 354.117188 277.253906 "/>
<g clip-path="url(#clip9)" clip-rule="nonzero">
<path style=" stroke:none;fill-rule:nonzero;fill:rgb(39.99939%,39.99939%,39.99939%);fill-opacity:0.3;" d="M 360.117188 275.019531 L 355.050781 276.90625 L 352.910156 271.582031 L 357.976562 269.695312 Z M 360.117188 275.019531 "/>
</g>
<g clip-path="url(#clip10)" clip-rule="nonzero">
<path style=" stroke:none;fill-rule:nonzero;fill:rgb(39.99939%,39.99939%,39.99939%);fill-opacity:0.3;" d="M 365.640625 272.960938 L 361.035156 274.675781 L 358.898438 269.355469 L 363.503906 267.640625 Z M 365.640625 272.960938 "/>
</g>
<path style=" stroke:none;fill-rule:nonzero;fill:rgb(39.99939%,39.99939%,39.99939%);fill-opacity:0.3;" d="M 344.269531 253.132812 L 351.460938 271.035156 L 346.585938 272.847656 L 339.394531 254.949219 Z M 344.269531 253.132812 "/>
<path style=" stroke:none;fill-rule:nonzero;fill:rgb(39.99939%,39.99939%,39.99939%);fill-opacity:0.3;" d="M 290.414062 260.828125 L 300.605469 258.449219 L 309.34375 293.554688 L 309.183594 294.0625 L 308.597656 294.433594 L 308.570312 294.441406 L 304.207031 294.640625 L 301.605469 293.242188 L 299.605469 291.441406 L 297.605469 288.042969 L 295.457031 281.441406 Z M 290.414062 260.828125 "/>
<path style=" stroke:none;fill-rule:nonzero;fill:rgb(39.99939%,39.99939%,39.99939%);fill-opacity:0.3;" d="M 300.378906 257.539062 L 290.1875 259.914062 L 285.921875 242.769531 L 285.792969 240.34375 L 286.042969 236.703125 L 286.710938 234.339844 L 288.578125 231.878906 L 290.132812 230.648438 L 293.273438 229.601562 Z M 300.378906 257.539062 "/>
<path style=" stroke:none;fill-rule:nonzero;fill:rgb(39.99939%,39.99939%,39.99939%);fill-opacity:0.3;" d="M 319.957031 290.0625 L 318.015625 285.414062 L 321.074219 278.910156 L 324.957031 288.226562 L 320.003906 290.042969 Z M 319.957031 290.0625 "/>
<path style=" stroke:none;fill-rule:nonzero;fill:rgb(39.99939%,39.99939%,39.99939%);fill-opacity:0.3;" d="M 334.90625 247.285156 L 341.414062 262.664062 L 336.550781 264.476562 L 331.996094 253.582031 Z M 334.90625 247.285156 "/>
<g clip-path="url(#clip11)" clip-rule="nonzero">
<path style=" stroke:none;fill-rule:nonzero;fill:rgb(39.99939%,39.99939%,39.99939%);fill-opacity:0.3;" d="M 355.746094 248.878906 L 362.984375 266.746094 L 358.378906 268.460938 L 351.171875 250.566406 Z M 355.746094 248.878906 "/>
</g>
<path style=" stroke:none;fill-rule:nonzero;fill:rgb(39.99939%,39.99939%,39.99939%);fill-opacity:0.3;" d="M 342.289062 231.53125 L 353.289062 258.414062 L 348.222656 260.300781 L 339.648438 238.070312 Z M 342.289062 231.53125 "/>
<g clip-path="url(#clip12)" clip-rule="nonzero">
<path style=" stroke:none;fill-rule:nonzero;fill:rgb(39.99939%,39.99939%,39.99939%);fill-opacity:0.3;" d="M 364.648438 203.054688 L 370.9375 218.136719 L 366.101562 219.929688 L 359.945312 204.796875 Z M 364.648438 203.054688 "/>
</g>
<g clip-path="url(#clip13)" clip-rule="nonzero">
<path style=" stroke:none;fill-rule:nonzero;fill:rgb(39.99939%,39.99939%,39.99939%);fill-opacity:0.3;" d="M 359.09375 205.152344 L 364.464844 218.363281 L 358.753906 220.476562 L 353.378906 207.269531 Z M 359.09375 205.152344 "/>
</g>
<path style=" stroke:none;fill-rule:nonzero;fill:rgb(39.99939%,39.99939%,39.99939%);fill-opacity:0.3;" d="M 352.707031 209.285156 L 357.457031 220.921875 L 351.972656 222.953125 L 349.3125 216.53125 Z M 352.707031 209.285156 "/>
<path style=" stroke:none;fill-rule:nonzero;fill:rgb(39.99939%,39.99939%,39.99939%);fill-opacity:0.3;" d="M 341.894531 263.8125 L 345.785156 273.144531 L 340.90625 274.960938 L 337.015625 265.628906 Z M 341.894531 263.8125 "/>
<path style=" stroke:none;fill-rule:nonzero;fill:rgb(39.99939%,39.99939%,39.99939%);fill-opacity:0.3;" d="M 307.15625 256.921875 L 313.015625 280.214844 L 309.347656 287.660156 L 302.246094 258.066406 Z M 307.15625 256.921875 "/>
<path style=" stroke:none;fill-rule:nonzero;fill:rgb(39.99939%,39.99939%,39.99939%);fill-opacity:0.3;" d="M 335.023438 214.035156 L 337.917969 224.933594 L 334.5 231.886719 L 330.292969 215.789062 Z M 335.023438 214.035156 "/>
<path style=" stroke:none;fill-rule:nonzero;fill:rgb(39.99939%,39.99939%,39.99939%);fill-opacity:0.3;" d="M 293.351562 111.1875 L 300.300781 139.003906 L 292.066406 140.878906 L 286.042969 116.390625 Z M 293.351562 111.1875 "/>
<path style=" stroke:none;fill-rule:nonzero;fill:rgb(39.99939%,39.99939%,39.99939%);fill-opacity:0.3;" d="M 341.613281 109.019531 L 346.457031 128.476562 L 338.617188 130.269531 L 333.769531 110.863281 Z M 341.613281 109.019531 "/>
<path style=" stroke:none;fill-rule:nonzero;fill:rgb(39.99939%,39.99939%,39.99939%);fill-opacity:0.3;" d="M 348.425781 98.472656 L 355.234375 126.472656 L 347.898438 128.148438 L 340.925781 100.222656 Z M 348.425781 98.472656 "/>
<g clip-path="url(#clip14)" clip-rule="nonzero">
<path style=" stroke:none;fill-rule:nonzero;fill:rgb(39.99939%,39.99939%,39.99939%);fill-opacity:0.3;" d="M 360.269531 105.203125 L 364.789062 124.28125 L 357.132812 126.035156 L 352.621094 106.988281 Z M 360.269531 105.203125 "/>
</g>
<path style=" stroke:none;fill-rule:nonzero;fill:rgb(39.99939%,39.99939%,39.99939%);fill-opacity:0.3;" d="M 295.085938 80.152344 L 300.042969 99.929688 L 293.066406 104.894531 L 287.34375 81.949219 Z M 295.085938 80.152344 "/>
<path style=" stroke:none;fill-rule:nonzero;fill:rgb(39.99939%,39.99939%,39.99939%);fill-opacity:0.3;" d="M 350.921875 68.496094 L 359.59375 103.34375 L 351.941406 105.121094 L 344.085938 73.566406 Z M 350.921875 68.496094 "/>
<path style=" stroke:none;fill-rule:nonzero;fill:rgb(39.99939%,39.99939%,39.99939%);fill-opacity:0.3;" d="M 320.066406 101.511719 L 327.902344 132.714844 L 319.945312 134.527344 L 312.179688 103.308594 Z M 320.066406 101.511719 "/>
<g clip-path="url(#clip15)" clip-rule="nonzero">
<path style=" stroke:none;fill-rule:nonzero;fill:rgb(39.99939%,39.99939%,39.99939%);fill-opacity:0.3;" d="M 367.5 94.015625 L 374.539062 122.042969 L 366.34375 123.925781 L 359.394531 95.914062 Z M 367.5 94.015625 "/>
</g>
<path style=" stroke:none;fill-rule:nonzero;fill:rgb(39.99939%,39.99939%,39.99939%);fill-opacity:0.3;" d="M 342.921875 75.816406 L 348.15625 97.359375 L 340.644531 99.105469 L 336.097656 80.871094 Z M 342.921875 75.816406 "/>
<g clip-path="url(#clip16)" clip-rule="nonzero">
<path style=" stroke:none;fill-rule:nonzero;fill:rgb(39.99939%,39.99939%,39.99939%);fill-opacity:0.3;" d="M 359.796875 63.292969 L 367.222656 92.910156 L 359.117188 94.804688 L 352.632812 68.613281 Z M 359.796875 63.292969 "/>
</g>
<path style=" stroke:none;fill-rule:nonzero;fill:rgb(39.99939%,39.99939%,39.99939%);fill-opacity:0.3;" d="M 314.179688 39.273438 L 322.386719 71.8125 L 314.9375 73.722656 L 307.066406 41.527344 L 308.941406 40.628906 Z M 314.179688 39.273438 "/>
<path style=" stroke:none;fill-rule:nonzero;fill:rgb(39.99939%,39.99939%,39.99939%);fill-opacity:0.3;" d="M 323.667969 36.8125 L 333.429688 76.125 L 326.316406 81 L 315.808594 38.851562 Z M 323.667969 36.8125 "/>
<path style=" stroke:none;fill-rule:nonzero;fill:rgb(39.99939%,39.99939%,39.99939%);fill-opacity:0.3;" d="M 332.9375 34.605469 L 341.632812 70.496094 L 334.699219 75.253906 L 325.035156 36.457031 L 325.503906 36.335938 Z M 332.9375 34.605469 "/>
<path style=" stroke:none;fill-rule:nonzero;fill:rgb(39.99939%,39.99939%,39.99939%);fill-opacity:0.3;" d="M 341.996094 32.488281 L 349.988281 64.757812 L 343.070312 69.511719 L 334.332031 34.28125 Z M 341.996094 32.488281 "/>
<path style=" stroke:none;fill-rule:nonzero;fill:rgb(39.99939%,39.99939%,39.99939%);fill-opacity:0.3;" d="M 351.546875 30.230469 L 358.667969 58.777344 L 351.433594 63.761719 L 343.621094 32.105469 Z M 351.546875 30.230469 "/>
<g clip-path="url(#clip17)" clip-rule="nonzero">
<path style=" stroke:none;fill-rule:nonzero;fill:rgb(39.99939%,39.99939%,39.99939%);fill-opacity:0.3;" d="M 361.28125 29.175781 L 367.078125 52.964844 L 359.855469 57.960938 L 352.789062 29.71875 L 353.007812 29.632812 L 357.953125 29.035156 L 360.542969 29.058594 Z M 361.28125 29.175781 "/>
</g>
<path style=" stroke:none;fill-rule:nonzero;fill:rgb(39.99939%,39.99939%,39.99939%);fill-opacity:0.3;" d="M 306.050781 45.625 L 313.207031 74.164062 L 305.429688 76.15625 L 298.058594 46.488281 L 303.332031 43.417969 Z M 306.050781 45.625 "/>
<path style=" stroke:none;fill-rule:nonzero;fill:rgb(39.99939%,39.99939%,39.99939%);fill-opacity:0.3;" d="M 271.78125 65.203125 L 276.226562 83 L 268.972656 84.832031 L 264.96875 70.082031 Z M 271.78125 65.203125 "/>
<path style=" stroke:none;fill-rule:nonzero;fill:rgb(39.99939%,39.99939%,39.99939%);fill-opacity:0.3;" d="M 280.242188 59.140625 L 291.929688 105.703125 L 284.632812 110.898438 L 273.085938 64.265625 Z M 280.242188 59.140625 "/>
<path style=" stroke:none;fill-rule:nonzero;fill:rgb(39.99939%,39.99939%,39.99939%);fill-opacity:0.3;" d="M 288.363281 53.320312 L 294.847656 79.199219 L 287.105469 80.992188 L 281.441406 58.28125 Z M 288.363281 53.320312 "/>
<path style=" stroke:none;fill-rule:nonzero;fill:rgb(39.99939%,39.99939%,39.99939%);fill-opacity:0.3;" d="M 296.9375 47.175781 L 308.550781 93.867188 L 301.480469 98.902344 L 289.867188 52.246094 Z M 296.9375 47.175781 "/>
<path style=" stroke:none;fill-rule:nonzero;fill:rgb(39.99939%,39.99939%,39.99939%);fill-opacity:0.3;" d="M 276.625 122.894531 L 281.761719 143.226562 L 273.625 145.074219 L 269.339844 128.078125 Z M 276.625 122.894531 "/>
<path style=" stroke:none;fill-rule:nonzero;fill:rgb(39.99939%,39.99939%,39.99939%);fill-opacity:0.3;" d="M 284.34375 116.085938 L 290.558594 141.222656 L 283.300781 142.953125 L 278.070312 120.5625 Z M 284.34375 116.085938 "/>
<path style=" stroke:none;fill-rule:nonzero;fill:rgb(39.99939%,39.99939%,39.99939%);fill-opacity:0.3;" d="M 301.101562 104.152344 L 309.328125 136.949219 L 301.515625 138.730469 L 294.121094 109.125 Z M 301.101562 104.152344 "/>
<path style=" stroke:none;fill-rule:nonzero;fill:rgb(39.99939%,39.99939%,39.99939%);fill-opacity:0.3;" d="M 267.75 127.515625 L 272.746094 144.707031 L 270.21875 145.28125 L 269.179688 145.289062 L 267.480469 145.125 L 265.738281 144.753906 L 263.820312 143.558594 L 261.816406 141.65625 L 260.554688 139.34375 L 259.300781 134.289062 Z M 267.75 127.515625 "/>
<path style=" stroke:none;fill-rule:nonzero;fill:rgb(39.99939%,39.99939%,39.99939%);fill-opacity:0.3;" d="M 276.53125 84.453125 L 283.296875 111.851562 L 276.445312 116.730469 L 268.933594 86.210938 Z M 276.53125 84.453125 "/>
<path style=" stroke:none;fill-rule:nonzero;fill:rgb(39.99939%,39.99939%,39.99939%);fill-opacity:0.3;" d="M 263.621094 71.105469 L 275.300781 117.546875 L 268.308594 122.496094 L 256.714844 75.996094 Z M 263.621094 71.105469 "/>
<path style=" stroke:none;fill-rule:nonzero;fill:rgb(39.99939%,39.99939%,39.99939%);fill-opacity:0.3;" d="M 255.179688 77.507812 L 267.050781 123.875 L 257.90625 130.40625 L 257.808594 130.050781 L 251.808594 102.25 L 251.214844 101.871094 L 248.757812 91.351562 L 248.332031 88.921875 L 248.175781 87.609375 L 248.28125 85.9375 L 248.601562 84.21875 L 249.453125 82.800781 L 251.316406 80.402344 Z M 255.179688 77.507812 "/>
<path style=" stroke:none;fill-rule:nonzero;fill:rgb(39.99939%,39.99939%,39.99939%);fill-opacity:0.3;" d="M 337.785156 171.886719 L 345.472656 201.863281 L 343.769531 206.339844 L 338.460938 208.304688 L 329.734375 173.570312 Z M 337.785156 171.886719 "/>
<path style=" stroke:none;fill-rule:nonzero;fill:rgb(39.99939%,39.99939%,39.99939%);fill-opacity:0.3;" d="M 347.085938 169.941406 L 352.636719 191.445312 L 347.335938 202.449219 L 339.5625 171.484375 Z M 347.085938 169.941406 "/>
<path style=" stroke:none;fill-rule:nonzero;fill:rgb(39.99939%,39.99939%,39.99939%);fill-opacity:0.3;" d="M 354.019531 202.546875 L 353.242188 202.832031 L 354.394531 200.207031 Z M 354.019531 202.546875 "/>
<path style=" stroke:none;fill-rule:nonzero;fill:rgb(39.99939%,39.99939%,39.99939%);fill-opacity:0.3;" d="M 309.980469 99.550781 L 318.742188 134.804688 L 310.875 136.597656 L 302.910156 104.589844 Z M 309.980469 99.550781 "/>
<path style=" stroke:none;fill-rule:nonzero;fill:rgb(39.99939%,39.99939%,39.99939%);fill-opacity:0.3;" d="M 322.667969 72.957031 L 328.820312 97.601562 L 311.992188 101.761719 L 306.003906 77.226562 Z M 322.667969 72.957031 "/>
<path style=" stroke:none;fill-rule:nonzero;fill:rgb(39.99939%,39.99939%,39.99939%);fill-opacity:0.3;" d="M 334.839844 81.800781 L 341.359375 107.996094 L 333.515625 109.839844 L 327.875 87.085938 Z M 334.839844 81.800781 "/>
<path style=" stroke:none;fill-rule:nonzero;fill:rgb(39.99939%,39.99939%,39.99939%);fill-opacity:0.3;" d="M 304.710938 197.585938 L 309.925781 218.863281 L 303.105469 221.386719 L 297.40625 199.292969 Z M 304.710938 197.585938 "/>
<path style=" stroke:none;fill-rule:nonzero;fill:rgb(39.99939%,39.99939%,39.99939%);fill-opacity:0.3;" d="M 307.511719 169.308594 L 316.144531 202.5625 L 308.246094 204.488281 L 300.304688 173.097656 Z M 307.511719 169.308594 "/>
<g clip-path="url(#clip18)" clip-rule="nonzero">
<path style=" stroke:none;fill-rule:nonzero;fill:rgb(39.99939%,39.99939%,39.99939%);fill-opacity:0.3;" d="M 363.011719 184.828125 L 367.894531 197.40625 L 362.121094 199.546875 L 358.8125 190.253906 L 360.691406 185.722656 Z M 363.011719 184.828125 "/>
</g>
<g clip-path="url(#clip19)" clip-rule="nonzero">
<path style=" stroke:none;fill-rule:nonzero;fill:rgb(39.99939%,39.99939%,39.99939%);fill-opacity:0.3;" d="M 358.242188 191.425781 L 361.449219 199.792969 L 354.019531 202.546875 L 354.394531 200.207031 Z M 358.242188 191.425781 "/>
</g>
<g clip-path="url(#clip20)" clip-rule="nonzero">
<path style=" stroke:none;fill-rule:nonzero;fill:rgb(39.99939%,39.99939%,39.99939%);fill-opacity:0.3;" d="M 146.050781 363.125 L 145.746094 362.585938 L 101.675781 378.921875 L 87.503906 384.460938 L 76.359375 387.882812 L 9.386719 350.515625 L 12.472656 345.472656 L 41.425781 324.339844 L 67.535156 305.703125 L 85.375 293.320312 L 103.378906 280.617188 L 110.808594 275.238281 L 111.714844 274.679688 L 112.550781 274.207031 L 113.765625 273.808594 L 114.925781 273.644531 L 116.367188 273.636719 L 117.511719 273.921875 L 140.078125 280.953125 L 168.398438 290.613281 L 206.484375 304.804688 L 208.492188 308.351562 L 208.832031 311.574219 L 207.730469 314.878906 L 205.605469 317.296875 L 197.199219 323.003906 L 198.195312 324.011719 L 198.464844 324.285156 L 191.8125 329.039062 L 188.8125 332.238281 L 188.609375 335.238281 L 189.210938 339.238281 L 191.210938 348.039062 L 190.011719 350.839844 L 189.410156 352.238281 L 185.410156 354.238281 L 183.613281 354.839844 L 170.8125 359.238281 L 154.210938 364.839844 L 151.214844 361.238281 Z M 146.050781 363.125 "/>
</g>
<path style=" stroke:none;fill-rule:nonzero;fill:rgb(39.99939%,39.99939%,39.99939%);fill-opacity:0.3;" d="M 6.898438 247.675781 L 8.886719 246.402344 L 10.660156 245.285156 L 12.050781 244.710938 L 13.421875 244.351562 L 15.429688 244.378906 L 18.078125 244.886719 L 20.074219 245.425781 L 36.3125 250.007812 L 52.371094 251.75 L 53.546875 251.980469 L 76.410156 259.894531 L 80.113281 261.121094 L 98.027344 267.207031 L 98.761719 267.585938 L 99.34375 268.042969 L 99.984375 268.46875 L 100.636719 269.085938 L 101.125 269.894531 L 101.488281 270.933594 L 101.8125 272.128906 L 101.894531 273.628906 L 101.855469 275.015625 L 101.613281 275.980469 L 101.085938 277.019531 L 100.316406 278.136719 L 99.285156 279.179688 L 98.011719 280.085938 L 93.890625 283.042969 L 87.464844 287.65625 L 26.144531 331.683594 L 20.652344 335.621094 L 7.347656 345.1875 L 5.4375 346.183594 L 3.332031 346.898438 L 1.289062 347.03125 L -0.613281 346.695312 L -3.078125 345.695312 L -55.28125 316.484375 L -58.167969 314.976562 L -61.035156 313.210938 L -62.011719 312.339844 L -62.574219 311.742188 L -62.976562 311.023438 L -63.417969 310.003906 L -63.53125 309.503906 L -63.625 308.671875 L -63.511719 307.808594 L -62.957031 306.125 L -62.34375 302.746094 L -61.878906 301.390625 L -61.511719 300.945312 L -61.007812 300.652344 L -60.371094 300.511719 L -59.429688 300.382812 L -54.230469 300.613281 L -53.078125 300.566406 L -52.035156 300.417969 L -51.136719 300.265625 L -50.382812 299.984375 L -49.449219 299.363281 L -48.398438 298.441406 L -47.800781 297.539062 L -47.339844 296.054688 L -47.125 294.539062 L -46.992188 292.164062 L -46.859375 288.589844 L -46.75 287.535156 L -46.570312 286.871094 L -46.417969 286.414062 L -46.207031 286.011719 L -44.144531 284.285156 L -32.382812 276.273438 L 3.949219 249.828125 Z M 6.898438 247.675781 "/>
<g clip-path="url(#clip21)" clip-rule="nonzero">
<path style=" stroke:none;fill-rule:nonzero;fill:rgb(39.99939%,39.99939%,39.99939%);fill-opacity:0.3;" d="M -4.234375 349.113281 L 5.484375 354.445312 L -15.234375 388.261719 L -25.003906 383.011719 Z M -4.234375 349.113281 "/>
</g>
<g clip-path="url(#clip22)" clip-rule="nonzero">
<path style=" stroke:none;fill-rule:nonzero;fill:rgb(39.99939%,39.99939%,39.99939%);fill-opacity:0.3;" d="M 7.164062 354.972656 L 16.390625 359.707031 L -5.5625 393.363281 L -13.234375 389.039062 Z M 7.164062 354.972656 "/>
</g>
<path style="fill-rule:nonzero;fill:rgb(39.99939%,39.99939%,39.99939%);fill-opacity:1;stroke-width:0.03;stroke-linecap:square;stroke-linejoin:miter;stroke:rgb(39.99939%,39.99939%,39.99939%);stroke-opacity:1;stroke-miterlimit:3.239307;" d="M 307.832031 205.195312 L 300.253906 206.9375 L 292.222656 173.234375 L 299.546875 171.542969 Z M 307.832031 205.195312 " transform="matrix(1,0,0,1,-74,-13)"/>
<path style="fill-rule:nonzero;fill:rgb(39.99939%,39.99939%,39.99939%);fill-opacity:1;stroke-width:0.03;stroke-linecap:square;stroke-linejoin:miter;stroke:rgb(39.99939%,39.99939%,39.99939%);stroke-opacity:1;stroke-miterlimit:3.239307;" d="M 350.039062 241.925781 L 339.996094 244.179688 L 332.574219 213.808594 L 342.210938 211.601562 Z M 350.039062 241.925781 " transform="matrix(1,0,0,1,-74,-13)"/>
<path style="fill-rule:nonzero;fill:rgb(39.99939%,39.99939%,39.99939%);fill-opacity:1;stroke-width:0.03;stroke-linecap:square;stroke-linejoin:miter;stroke:rgb(39.99939%,39.99939%,39.99939%);stroke-opacity:1;stroke-miterlimit:3.239307;" d="M 330.15625 164.609375 L 340.480469 204.867188 L 329.839844 207.246094 L 319.882812 166.957031 Z M 330.15625 164.609375 " transform="matrix(1,0,0,1,-74,-13)"/>
<path style="fill-rule:nonzero;fill:rgb(39.99939%,39.99939%,39.99939%);fill-opacity:1;stroke-width:0.03;stroke-linecap:square;stroke-linejoin:miter;stroke:rgb(39.99939%,39.99939%,39.99939%);stroke-opacity:1;stroke-miterlimit:3.239307;" d="M 290.375 212.257812 L 300.464844 253.0625 L 292.632812 254.820312 L 282.421875 214.082031 Z M 290.375 212.257812 " transform="matrix(1,0,0,1,-74,-13)"/>
<path style="fill-rule:nonzero;fill:rgb(39.99939%,39.99939%,39.99939%);fill-opacity:1;stroke-width:0.03;stroke-linecap:square;stroke-linejoin:miter;stroke:rgb(39.99939%,39.99939%,39.99939%);stroke-opacity:1;stroke-miterlimit:3.239307;" d="M 272.492188 177.667969 L 280.484375 210.105469 L 273.660156 211.667969 L 265.472656 179.253906 Z M 272.492188 177.667969 " transform="matrix(1,0,0,1,-74,-13)"/>
<path style="fill-rule:nonzero;fill:rgb(39.99939%,39.99939%,39.99939%);fill-opacity:1;stroke-width:0.03;stroke-linecap:square;stroke-linejoin:miter;stroke:rgb(39.99939%,39.99939%,39.99939%);stroke-opacity:1;stroke-miterlimit:3.239307;" d="M 281.398438 175.652344 L 289.6875 209.363281 L 281.722656 211.1875 L 273.777344 177.242188 Z M 281.398438 175.652344 " transform="matrix(1,0,0,1,-74,-13)"/>
<path style="fill-rule:nonzero;fill:rgb(39.99939%,39.99939%,39.99939%);fill-opacity:1;stroke-width:0.03;stroke-linecap:square;stroke-linejoin:miter;stroke:rgb(39.99939%,39.99939%,39.99939%);stroke-opacity:1;stroke-miterlimit:3.239307;" d="M 242.964844 183.972656 L 250.703125 215.667969 L 243.6875 217.359375 L 235.925781 185.566406 Z M 242.964844 183.972656 " transform="matrix(1,0,0,1,-74,-13)"/>
<path style="fill-rule:nonzero;fill:rgb(39.99939%,39.99939%,39.99939%);fill-opacity:1;stroke-width:0.03;stroke-linecap:square;stroke-linejoin:miter;stroke:rgb(39.99939%,39.99939%,39.99939%);stroke-opacity:1;stroke-miterlimit:3.239307;" d="M 261.65625 258.695312 L 261.6875 259.191406 L 261.589844 259.835938 L 261.394531 260.347656 L 261.035156 260.917969 L 260.476562 261.433594 L 255.089844 262.648438 L 250.039062 242.191406 L 257.113281 240.582031 Z M 261.65625 258.695312 " transform="matrix(1,0,0,1,-74,-13)"/>
<path style="fill-rule:nonzero;fill:rgb(39.99939%,39.99939%,39.99939%);fill-opacity:1;stroke-width:0.03;stroke-linecap:square;stroke-linejoin:miter;stroke:rgb(39.99939%,39.99939%,39.99939%);stroke-opacity:1;stroke-miterlimit:3.239307;" d="M 252.507812 223.003906 L 256.691406 239.851562 L 249.617188 241.464844 L 245.445312 224.621094 Z M 252.507812 223.003906 " transform="matrix(1,0,0,1,-74,-13)"/>
<path style="fill-rule:nonzero;fill:rgb(39.99939%,39.99939%,39.99939%);fill-opacity:1;stroke-width:0.03;stroke-linecap:square;stroke-linejoin:miter;stroke:rgb(39.99939%,39.99939%,39.99939%);stroke-opacity:1;stroke-miterlimit:3.239307;" d="M 290.816406 173.519531 L 298.824219 205.894531 L 290.546875 207.796875 L 282.523438 175.398438 Z M 290.816406 173.519531 " transform="matrix(1,0,0,1,-74,-13)"/>
<path style="fill-rule:nonzero;fill:rgb(39.99939%,39.99939%,39.99939%);fill-opacity:1;stroke-width:0.03;stroke-linecap:square;stroke-linejoin:miter;stroke:rgb(39.99939%,39.99939%,39.99939%);stroke-opacity:1;stroke-miterlimit:3.239307;" d="M 315.804688 196.238281 L 307.828125 197.808594 L 301.351562 171.132812 L 309.210938 169.355469 Z M 315.804688 196.238281 " transform="matrix(1,0,0,1,-74,-13)"/>
<path style="fill-rule:nonzero;fill:rgb(39.99939%,39.99939%,39.99939%);fill-opacity:1;stroke-width:0.03;stroke-linecap:square;stroke-linejoin:miter;stroke:rgb(39.99939%,39.99939%,39.99939%);stroke-opacity:1;stroke-miterlimit:3.239307;" d="M 321.15625 217.761719 L 328.371094 246.792969 L 321.386719 248.359375 L 313.84375 219.433594 Z M 321.15625 217.761719 " transform="matrix(1,0,0,1,-74,-13)"/>
<path style="fill-rule:nonzero;fill:rgb(39.99939%,39.99939%,39.99939%);fill-opacity:1;stroke-width:0.03;stroke-linecap:square;stroke-linejoin:miter;stroke:rgb(39.99939%,39.99939%,39.99939%);stroke-opacity:1;stroke-miterlimit:3.239307;" d="M 286.242188 256 L 285.679688 255.734375 L 285.261719 255.429688 L 284.886719 255.03125 L 284.574219 254.507812 L 279.890625 236.210938 L 286.566406 234.683594 L 291.652344 255.042969 L 286.828125 256.113281 Z M 286.242188 256 " transform="matrix(1,0,0,1,-74,-13)"/>
<path style="fill-rule:nonzero;fill:rgb(39.99939%,39.99939%,39.99939%);fill-opacity:1;stroke-width:0.03;stroke-linecap:square;stroke-linejoin:miter;stroke:rgb(39.99939%,39.99939%,39.99939%);stroke-opacity:1;stroke-miterlimit:3.239307;" d="M 304.488281 229.3125 L 296.324219 231.015625 L 292.097656 214.226562 L 300.371094 212.328125 L 304.59375 229.125 Z M 304.488281 229.3125 " transform="matrix(1,0,0,1,-74,-13)"/>
<path style="fill-rule:nonzero;fill:rgb(39.99939%,39.99939%,39.99939%);fill-opacity:1;stroke-width:0.03;stroke-linecap:square;stroke-linejoin:miter;stroke:rgb(39.99939%,39.99939%,39.99939%);stroke-opacity:1;stroke-miterlimit:3.239307;" d="M 308.546875 208.089844 L 318.6875 248.96875 L 311.476562 250.585938 L 300.992188 209.824219 Z M 308.546875 208.089844 " transform="matrix(1,0,0,1,-74,-13)"/>
<path style="fill-rule:nonzero;fill:rgb(39.99939%,39.99939%,39.99939%);fill-opacity:1;stroke-width:0.03;stroke-linecap:square;stroke-linejoin:miter;stroke:rgb(39.99939%,39.99939%,39.99939%);stroke-opacity:1;stroke-miterlimit:3.239307;" d="M 282.085938 216.523438 L 286.230469 233.324219 L 279.550781 234.847656 L 275.289062 218.082031 Z M 282.085938 216.523438 " transform="matrix(1,0,0,1,-74,-13)"/>
<path style="fill-rule:nonzero;fill:rgb(39.99939%,39.99939%,39.99939%);fill-opacity:1;stroke-width:0.03;stroke-linecap:square;stroke-linejoin:miter;stroke:rgb(39.99939%,39.99939%,39.99939%);stroke-opacity:1;stroke-miterlimit:3.239307;" d="M 264.847656 183.820312 L 272.816406 215.25 L 252.882812 219.820312 L 245.050781 188.300781 Z M 264.847656 183.820312 " transform="matrix(1,0,0,1,-74,-13)"/>
<path style="fill-rule:nonzero;fill:rgb(39.99939%,39.99939%,39.99939%);fill-opacity:1;stroke-width:0.03;stroke-linecap:square;stroke-linejoin:miter;stroke:rgb(39.99939%,39.99939%,39.99939%);stroke-opacity:1;stroke-miterlimit:3.239307;" d="M 273.097656 216.390625 L 282.328125 252.4375 L 262.21875 256.9375 L 253.167969 220.960938 Z M 273.097656 216.390625 " transform="matrix(1,0,0,1,-74,-13)"/>
<path style="fill-rule:nonzero;fill:rgb(39.99939%,39.99939%,39.99939%);fill-opacity:1;stroke-width:0.03;stroke-linecap:square;stroke-linejoin:miter;stroke:rgb(39.99939%,39.99939%,39.99939%);stroke-opacity:1;stroke-miterlimit:3.239307;" d="M 305.023438 230.464844 L 310.042969 250.910156 L 301.78125 252.765625 L 296.664062 232.375 Z M 305.023438 230.464844 " transform="matrix(1,0,0,1,-74,-13)"/>
<path style="fill-rule:nonzero;fill:rgb(39.99939%,39.99939%,39.99939%);fill-opacity:1;stroke-width:0.03;stroke-linecap:square;stroke-linejoin:miter;stroke:rgb(39.99939%,39.99939%,39.99939%);stroke-opacity:1;stroke-miterlimit:3.239307;" d="M 329.496094 212.84375 L 337.304688 244.59375 L 330.605469 246.203125 L 311.417969 168.460938 L 318.296875 167.296875 L 328.546875 208.984375 L 338.480469 206.710938 L 339.199219 206.832031 L 339.695312 207.113281 L 340.113281 207.523438 L 340.386719 207.988281 L 340.539062 208.574219 L 340.519531 209.160156 L 340.375 209.625 L 340.039062 210.15625 L 339.445312 210.566406 Z M 329.496094 212.84375 " transform="matrix(1,0,0,1,-74,-13)"/>
<path style="fill-rule:nonzero;fill:rgb(39.99939%,39.99939%,39.99939%);fill-opacity:1;stroke-width:0.03;stroke-linecap:square;stroke-linejoin:miter;stroke:rgb(39.99939%,39.99939%,39.99939%);stroke-opacity:1;stroke-miterlimit:3.239307;" d="M 354.84375 235.007812 L 354.640625 234.65625 L 352.066406 224.8125 L 354.605469 234.246094 Z M 354.84375 235.007812 " transform="matrix(1,0,0,1,-74,-13)"/>
<path style="fill-rule:nonzero;fill:rgb(39.99939%,39.99939%,39.99939%);fill-opacity:1;stroke-width:0.03;stroke-linecap:square;stroke-linejoin:miter;stroke:rgb(39.99939%,39.99939%,39.99939%);stroke-opacity:1;stroke-miterlimit:3.239307;" d="M 351.640625 223.175781 L 350.09375 217.261719 L 350.15625 217.246094 Z M 351.640625 223.175781 " transform="matrix(1,0,0,1,-74,-13)"/>
<path style="fill-rule:nonzero;fill:rgb(39.99939%,39.99939%,39.99939%);fill-opacity:1;stroke-width:0.03;stroke-linecap:square;stroke-linejoin:miter;stroke:rgb(39.99939%,39.99939%,39.99939%);stroke-opacity:1;stroke-miterlimit:3.239307;" d="M 349.859375 216.050781 L 349.773438 216.070312 L 346.496094 203.476562 L 346.609375 203.40625 L 348.007812 208.644531 L 349.808594 215.84375 Z M 349.859375 216.050781 " transform="matrix(1,0,0,1,-74,-13)"/>
<path style="fill-rule:nonzero;fill:rgb(39.99939%,39.99939%,39.99939%);fill-opacity:1;stroke-width:0.03;stroke-linecap:square;stroke-linejoin:miter;stroke:rgb(39.99939%,39.99939%,39.99939%);stroke-opacity:1;stroke-miterlimit:3.239307;" d="M 301.828125 136.921875 L 308.949219 167.199219 L 300.921875 169.042969 L 293.773438 138.726562 Z M 301.828125 136.921875 " transform="matrix(1,0,0,1,-74,-13)"/>
<path style="fill-rule:nonzero;fill:rgb(39.99939%,39.99939%,39.99939%);fill-opacity:1;stroke-width:0.03;stroke-linecap:square;stroke-linejoin:miter;stroke:rgb(39.99939%,39.99939%,39.99939%);stroke-opacity:1;stroke-miterlimit:3.239307;" d="M 309.507812 135.917969 L 316.882812 165.378906 L 310.449219 166.90625 L 303.167969 137.234375 Z M 309.507812 135.917969 " transform="matrix(1,0,0,1,-74,-13)"/>
<path style="fill-rule:nonzero;fill:rgb(39.99939%,39.99939%,39.99939%);fill-opacity:1;stroke-width:0.03;stroke-linecap:square;stroke-linejoin:miter;stroke:rgb(39.99939%,39.99939%,39.99939%);stroke-opacity:1;stroke-miterlimit:3.239307;" d="M 285.703125 153.019531 L 290.453125 171.230469 L 281.847656 172.996094 L 277.257812 154.605469 Z M 285.703125 153.019531 " transform="matrix(1,0,0,1,-74,-13)"/>
<path style="fill-rule:nonzero;fill:rgb(39.99939%,39.99939%,39.99939%);fill-opacity:1;stroke-width:0.03;stroke-linecap:square;stroke-linejoin:miter;stroke:rgb(39.99939%,39.99939%,39.99939%);stroke-opacity:1;stroke-miterlimit:3.239307;" d="M 276.433594 157.09375 L 280.453125 173.238281 L 272.789062 174.171875 L 268.613281 158.839844 Z M 276.433594 157.09375 " transform="matrix(1,0,0,1,-74,-13)"/>
<path style="fill-rule:nonzero;fill:rgb(39.99939%,39.99939%,39.99939%);fill-opacity:1;stroke-width:0.03;stroke-linecap:square;stroke-linejoin:miter;stroke:rgb(39.99939%,39.99939%,39.99939%);stroke-opacity:1;stroke-miterlimit:3.239307;" d="M 247.886719 160.539062 L 251.625 176.800781 L 243.828125 178.933594 L 240.40625 162.1875 Z M 247.886719 160.539062 " transform="matrix(1,0,0,1,-74,-13)"/>
<path style="fill-rule:nonzero;fill:rgb(39.99939%,39.99939%,39.99939%);fill-opacity:1;stroke-width:0.03;stroke-linecap:square;stroke-linejoin:miter;stroke:rgb(39.99939%,39.99939%,39.99939%);stroke-opacity:1;stroke-miterlimit:3.239307;" d="M 266.628906 156.789062 L 270.960938 174.554688 L 262.636719 174.484375 L 258.820312 158.535156 Z M 266.628906 156.789062 " transform="matrix(1,0,0,1,-74,-13)"/>
<path style="fill-rule:nonzero;fill:rgb(39.99939%,39.99939%,39.99939%);fill-opacity:1;stroke-width:0.03;stroke-linecap:square;stroke-linejoin:miter;stroke:rgb(39.99939%,39.99939%,39.99939%);stroke-opacity:1;stroke-miterlimit:3.239307;" d="M 248.867188 157.890625 L 246.792969 149.753906 L 253.933594 144.527344 L 256.703125 155.910156 Z M 248.867188 157.890625 " transform="matrix(1,0,0,1,-74,-13)"/>
<path style="fill-rule:nonzero;fill:rgb(39.99939%,39.99939%,39.99939%);fill-opacity:1;stroke-width:0.03;stroke-linecap:square;stroke-linejoin:miter;stroke:rgb(39.99939%,39.99939%,39.99939%);stroke-opacity:1;stroke-miterlimit:3.239307;" d="M 262.082031 138.710938 L 265.839844 154.011719 L 258.117188 155.964844 L 255.238281 143.609375 Z M 262.082031 138.710938 " transform="matrix(1,0,0,1,-74,-13)"/>
<path style="fill-rule:nonzero;fill:rgb(39.99939%,39.99939%,39.99939%);fill-opacity:1;stroke-width:0.03;stroke-linecap:square;stroke-linejoin:miter;stroke:rgb(39.99939%,39.99939%,39.99939%);stroke-opacity:1;stroke-miterlimit:3.239307;" d="M 257.507812 159.316406 L 261.179688 175.023438 L 253.773438 176.65625 L 249.675781 161.066406 Z M 257.507812 159.316406 " transform="matrix(1,0,0,1,-74,-13)"/>
<path style="fill-rule:nonzero;fill:rgb(39.99939%,39.99939%,39.99939%);fill-opacity:1;stroke-width:0.03;stroke-linecap:square;stroke-linejoin:miter;stroke:rgb(39.99939%,39.99939%,39.99939%);stroke-opacity:1;stroke-miterlimit:3.239307;" d="M 270.316406 132.488281 L 274.730469 150.417969 L 266.964844 152.378906 L 263.421875 137.578125 Z M 270.316406 132.488281 " transform="matrix(1,0,0,1,-74,-13)"/>
<path style="fill-rule:nonzero;fill:rgb(39.99939%,39.99939%,39.99939%);fill-opacity:1;stroke-width:0.03;stroke-linecap:square;stroke-linejoin:miter;stroke:rgb(39.99939%,39.99939%,39.99939%);stroke-opacity:1;stroke-miterlimit:3.239307;" d="M 302.695312 109.054688 L 307.839844 129.730469 L 301.015625 131.136719 L 296.691406 113.53125 Z M 302.695312 109.054688 " transform="matrix(1,0,0,1,-74,-13)"/>
<path style="fill-rule:nonzero;fill:rgb(39.99939%,39.99939%,39.99939%);fill-opacity:1;stroke-width:0.03;stroke-linecap:square;stroke-linejoin:miter;stroke:rgb(39.99939%,39.99939%,39.99939%);stroke-opacity:1;stroke-miterlimit:3.239307;" d="M 322.945312 133.214844 L 329.433594 161.101562 L 328.59375 162.691406 L 320.601562 164.523438 L 313.550781 135.128906 Z M 322.945312 133.214844 " transform="matrix(1,0,0,1,-74,-13)"/>
<path style="fill-rule:nonzero;fill:rgb(39.99939%,39.99939%,39.99939%);fill-opacity:1;stroke-width:0.03;stroke-linecap:square;stroke-linejoin:miter;stroke:rgb(39.99939%,39.99939%,39.99939%);stroke-opacity:1;stroke-miterlimit:3.239307;" d="M 295.933594 152.988281 L 299.871094 168.949219 L 298.976562 169.15625 L 291.335938 170.722656 L 287.5 154.875 Z M 295.933594 152.988281 " transform="matrix(1,0,0,1,-74,-13)"/>
<path style="fill-rule:nonzero;fill:rgb(39.99939%,39.99939%,39.99939%);fill-opacity:1;stroke-width:0.03;stroke-linecap:square;stroke-linejoin:miter;stroke:rgb(39.99939%,39.99939%,39.99939%);stroke-opacity:1;stroke-miterlimit:3.239307;" d="M 278.519531 127.078125 L 281.113281 136.9375 L 273.386719 139.257812 L 271.785156 131.6875 Z M 278.519531 127.078125 " transform="matrix(1,0,0,1,-74,-13)"/>
<path style="fill-rule:nonzero;fill:rgb(39.99939%,39.99939%,39.99939%);fill-opacity:1;stroke-width:0.03;stroke-linecap:square;stroke-linejoin:miter;stroke:rgb(39.99939%,39.99939%,39.99939%);stroke-opacity:1;stroke-miterlimit:3.239307;" d="M 290.550781 132.09375 L 282.582031 134.679688 L 280.40625 125.289062 L 287.894531 119.871094 Z M 290.550781 132.09375 " transform="matrix(1,0,0,1,-74,-13)"/>
<path style="fill-rule:nonzero;fill:rgb(39.99939%,39.99939%,39.99939%);fill-opacity:1;stroke-width:0.03;stroke-linecap:square;stroke-linejoin:miter;stroke:rgb(39.99939%,39.99939%,39.99939%);stroke-opacity:1;stroke-miterlimit:3.239307;" d="M 295.929688 114.117188 L 300.386719 132.355469 L 292.289062 134.039062 L 288.878906 119.214844 Z M 295.929688 114.117188 " transform="matrix(1,0,0,1,-74,-13)"/>
<path style="fill-rule:nonzero;fill:rgb(39.99939%,39.99939%,39.99939%);fill-opacity:1;stroke-width:0.03;stroke-linecap:square;stroke-linejoin:miter;stroke:rgb(39.99939%,39.99939%,39.99939%);stroke-opacity:1;stroke-miterlimit:3.239307;" d="M 317.367188 109.628906 L 321.582031 127.03125 L 311.441406 129.085938 L 305.917969 106.742188 L 308.300781 105.046875 L 309.375 104.972656 L 311.539062 105.320312 L 313.808594 105.96875 L 315.082031 106.84375 L 316.441406 108.210938 Z M 317.367188 109.628906 " transform="matrix(1,0,0,1,-74,-13)"/>
<path style="fill-rule:nonzero;fill:rgb(39.99939%,39.99939%,39.99939%);fill-opacity:1;stroke-width:0.03;stroke-linecap:square;stroke-linejoin:miter;stroke:rgb(39.99939%,39.99939%,39.99939%);stroke-opacity:1;stroke-miterlimit:3.239307;" d="M 243.640625 221.9375 L 253.964844 263.058594 L 246.109375 264.820312 L 235.316406 223.890625 Z M 243.640625 221.9375 " transform="matrix(1,0,0,1,-74,-13)"/>
<path style="fill-rule:nonzero;fill:rgb(39.99939%,39.99939%,39.99939%);fill-opacity:1;stroke-width:0.03;stroke-linecap:square;stroke-linejoin:miter;stroke:rgb(39.99939%,39.99939%,39.99939%);stroke-opacity:1;stroke-miterlimit:3.239307;" d="M 243.175781 219.1875 L 234.8125 221.101562 L 226.050781 187.796875 L 234.820312 185.8125 Z M 243.175781 219.1875 " transform="matrix(1,0,0,1,-74,-13)"/>
<path style="fill-rule:nonzero;fill:rgb(39.99939%,39.99939%,39.99939%);fill-opacity:1;stroke-width:0.03;stroke-linecap:square;stroke-linejoin:miter;stroke:rgb(39.99939%,39.99939%,39.99939%);stroke-opacity:1;stroke-miterlimit:3.239307;" d="M 240.851562 281.472656 L 237.6875 269.371094 L 245.636719 267.636719 L 249.945312 284.457031 Z M 240.851562 281.472656 " transform="matrix(1,0,0,1,-74,-13)"/>
<path style="fill-rule:nonzero;fill:rgb(39.99939%,39.99939%,39.99939%);fill-opacity:1;stroke-width:0.03;stroke-linecap:square;stroke-linejoin:miter;stroke:rgb(39.99939%,39.99939%,39.99939%);stroke-opacity:1;stroke-miterlimit:3.239307;" d="M 255.433594 265.5 L 261.195312 290.320312 L 251.746094 287.226562 L 246.558594 267.4375 Z M 255.433594 265.5 " transform="matrix(1,0,0,1,-74,-13)"/>
<path style="fill-rule:nonzero;fill:rgb(39.99939%,39.99939%,39.99939%);fill-opacity:1;stroke-width:0.03;stroke-linecap:square;stroke-linejoin:miter;stroke:rgb(39.99939%,39.99939%,39.99939%);stroke-opacity:1;stroke-miterlimit:3.239307;" d="M 274.371094 263.859375 L 282.257812 297.207031 L 272.304688 293.957031 L 265.621094 265.648438 Z M 274.371094 263.859375 " transform="matrix(1,0,0,1,-74,-13)"/>
<path style="fill-rule:nonzero;fill:rgb(39.99939%,39.99939%,39.99939%);fill-opacity:1;stroke-width:0.03;stroke-linecap:square;stroke-linejoin:miter;stroke:rgb(39.99939%,39.99939%,39.99939%);stroke-opacity:1;stroke-miterlimit:3.239307;" d="M 350.121094 244.238281 L 358.363281 277.292969 L 349.261719 279.289062 L 341.066406 246.34375 Z M 350.121094 244.238281 " transform="matrix(1,0,0,1,-74,-13)"/>
<path style="fill-rule:nonzero;fill:rgb(39.99939%,39.99939%,39.99939%);fill-opacity:1;stroke-width:0.03;stroke-linecap:square;stroke-linejoin:miter;stroke:rgb(39.99939%,39.99939%,39.99939%);stroke-opacity:1;stroke-miterlimit:3.239307;" d="M 301.398438 255.449219 L 306.292969 275.425781 L 298.207031 277.246094 L 293.273438 257.226562 Z M 301.398438 255.449219 " transform="matrix(1,0,0,1,-74,-13)"/>
<path style="fill-rule:nonzero;fill:rgb(39.99939%,39.99939%,39.99939%);fill-opacity:1;stroke-width:0.03;stroke-linecap:square;stroke-linejoin:miter;stroke:rgb(39.99939%,39.99939%,39.99939%);stroke-opacity:1;stroke-miterlimit:3.239307;" d="M 319.34375 251.40625 L 325.707031 277.0625 L 318.773438 278.644531 L 312.433594 253.015625 Z M 319.34375 251.40625 " transform="matrix(1,0,0,1,-74,-13)"/>
<path style="fill-rule:nonzero;fill:rgb(39.99939%,39.99939%,39.99939%);fill-opacity:1;stroke-width:0.03;stroke-linecap:square;stroke-linejoin:miter;stroke:rgb(39.99939%,39.99939%,39.99939%);stroke-opacity:1;stroke-miterlimit:3.239307;" d="M 329.292969 249.085938 L 335.65625 274.804688 L 327.792969 276.597656 L 321.6875 250.914062 Z M 329.292969 249.085938 " transform="matrix(1,0,0,1,-74,-13)"/>
<path style="fill-rule:nonzero;fill:rgb(39.99939%,39.99939%,39.99939%);fill-opacity:1;stroke-width:0.03;stroke-linecap:square;stroke-linejoin:miter;stroke:rgb(39.99939%,39.99939%,39.99939%);stroke-opacity:1;stroke-miterlimit:3.239307;" d="M 337.734375 247.207031 L 345.730469 277.910156 L 338.179688 279.542969 L 330.558594 248.859375 Z M 337.734375 247.207031 " transform="matrix(1,0,0,1,-74,-13)"/>
<path style="fill-rule:nonzero;fill:rgb(39.99939%,39.99939%,39.99939%);fill-opacity:1;stroke-width:0.03;stroke-linecap:square;stroke-linejoin:miter;stroke:rgb(39.99939%,39.99939%,39.99939%);stroke-opacity:1;stroke-miterlimit:3.239307;" d="M 291.476562 295.679688 L 287.078125 296.640625 L 283.296875 295.597656 L 280.183594 283.257812 L 287.917969 281.5625 Z M 291.476562 295.679688 " transform="matrix(1,0,0,1,-74,-13)"/>
<path style="fill-rule:nonzero;fill:rgb(39.99939%,39.99939%,39.99939%);fill-opacity:1;stroke-width:0.03;stroke-linecap:square;stroke-linejoin:miter;stroke:rgb(39.99939%,39.99939%,39.99939%);stroke-opacity:1;stroke-miterlimit:3.239307;" d="M 307.105469 277.070312 L 310.78125 291.859375 L 302.503906 293.660156 L 298.882812 278.859375 Z M 307.105469 277.070312 " transform="matrix(1,0,0,1,-74,-13)"/>
<path style="fill-rule:nonzero;fill:rgb(39.99939%,39.99939%,39.99939%);fill-opacity:1;stroke-width:0.03;stroke-linecap:square;stroke-linejoin:miter;stroke:rgb(39.99939%,39.99939%,39.99939%);stroke-opacity:1;stroke-miterlimit:3.239307;" d="M 316.511719 279.148438 L 308.855469 280.746094 L 302.347656 255.242188 L 310.242188 253.519531 Z M 316.511719 279.148438 " transform="matrix(1,0,0,1,-74,-13)"/>
<path style="fill-rule:nonzero;fill:rgb(39.99939%,39.99939%,39.99939%);fill-opacity:1;stroke-width:0.03;stroke-linecap:square;stroke-linejoin:miter;stroke:rgb(39.99939%,39.99939%,39.99939%);stroke-opacity:1;stroke-miterlimit:3.239307;" d="M 312.097656 297.652344 L 314.75 308.820312 L 305.105469 305.273438 L 303.796875 299.46875 Z M 312.097656 297.652344 " transform="matrix(1,0,0,1,-74,-13)"/>
<path style="fill-rule:nonzero;fill:rgb(39.99939%,39.99939%,39.99939%);fill-opacity:1;stroke-width:0.03;stroke-linecap:square;stroke-linejoin:miter;stroke:rgb(39.99939%,39.99939%,39.99939%);stroke-opacity:1;stroke-miterlimit:3.239307;" d="M 329.050781 279.027344 L 333.214844 296.007812 L 321.78125 298.5 L 317.617188 281.519531 Z M 329.050781 279.027344 " transform="matrix(1,0,0,1,-74,-13)"/>
<path style="fill-rule:nonzero;fill:rgb(39.99939%,39.99939%,39.99939%);fill-opacity:1;stroke-width:0.03;stroke-linecap:square;stroke-linejoin:miter;stroke:rgb(39.99939%,39.99939%,39.99939%);stroke-opacity:1;stroke-miterlimit:3.239307;" d="M 331.003906 298.667969 L 335.289062 316.210938 L 327.773438 313.476562 L 324.058594 300.191406 Z M 331.003906 298.667969 " transform="matrix(1,0,0,1,-74,-13)"/>
<path style="fill-rule:nonzero;fill:rgb(39.99939%,39.99939%,39.99939%);fill-opacity:1;stroke-width:0.03;stroke-linecap:square;stroke-linejoin:miter;stroke:rgb(39.99939%,39.99939%,39.99939%);stroke-opacity:1;stroke-miterlimit:3.239307;" d="M 353.417969 306.78125 L 357.171875 321.027344 L 354.984375 321.570312 L 348.699219 320.328125 L 347.996094 318.859375 L 345.390625 308.695312 Z M 353.417969 306.78125 " transform="matrix(1,0,0,1,-74,-13)"/>
<path style="fill-rule:nonzero;fill:rgb(39.99939%,39.99939%,39.99939%);fill-opacity:1;stroke-width:0.03;stroke-linecap:square;stroke-linejoin:miter;stroke:rgb(39.99939%,39.99939%,39.99939%);stroke-opacity:1;stroke-miterlimit:3.239307;" d="M 341.097656 296.84375 L 346.882812 320.382812 L 344.203125 319.460938 L 338.257812 317.25 L 333.4375 298.695312 Z M 341.097656 296.84375 " transform="matrix(1,0,0,1,-74,-13)"/>
<path style="fill-rule:nonzero;fill:rgb(39.99939%,39.99939%,39.99939%);fill-opacity:1;stroke-width:0.03;stroke-linecap:square;stroke-linejoin:miter;stroke:rgb(39.99939%,39.99939%,39.99939%);stroke-opacity:1;stroke-miterlimit:3.239307;" d="M 347.277344 284.078125 L 352.90625 305.5 L 344.996094 307.195312 L 339.828125 285.714844 Z M 347.277344 284.078125 " transform="matrix(1,0,0,1,-74,-13)"/>
<path style="fill-rule:nonzero;fill:rgb(39.99939%,39.99939%,39.99939%);fill-opacity:1;stroke-width:0.03;stroke-linecap:square;stroke-linejoin:miter;stroke:rgb(39.99939%,39.99939%,39.99939%);stroke-opacity:1;stroke-miterlimit:3.239307;" d="M 239.25 162.902344 L 242.976562 179.183594 L 235.582031 182.472656 L 231.941406 166.984375 Z M 239.25 162.902344 " transform="matrix(1,0,0,1,-74,-13)"/>
<path style="fill-rule:nonzero;fill:rgb(39.99939%,39.99939%,39.99939%);fill-opacity:1;stroke-width:0.03;stroke-linecap:square;stroke-linejoin:miter;stroke:rgb(39.99939%,39.99939%,39.99939%);stroke-opacity:1;stroke-miterlimit:3.239307;" d="M 222.59375 173.398438 L 225.128906 185.816406 L 216.847656 187.867188 L 215.164062 178.480469 Z M 222.59375 173.398438 " transform="matrix(1,0,0,1,-74,-13)"/>
<path style="fill-rule:nonzero;fill:rgb(39.99939%,39.99939%,39.99939%);fill-opacity:1;stroke-width:0.03;stroke-linecap:square;stroke-linejoin:miter;stroke:rgb(39.99939%,39.99939%,39.99939%);stroke-opacity:1;stroke-miterlimit:3.239307;" d="M 230.28125 168.140625 L 233.476562 183.746094 L 225.886719 185.628906 L 223.328125 172.894531 Z M 230.28125 168.140625 " transform="matrix(1,0,0,1,-74,-13)"/>
<path style="fill-rule:nonzero;fill:rgb(39.99939%,39.99939%,39.99939%);fill-opacity:1;stroke-width:0.03;stroke-linecap:square;stroke-linejoin:miter;stroke:rgb(39.99939%,39.99939%,39.99939%);stroke-opacity:1;stroke-miterlimit:3.239307;" d="M 206.691406 192.171875 L 213.660156 219.789062 L 206.117188 221.359375 L 198.75 193.964844 Z M 206.691406 192.171875 " transform="matrix(1,0,0,1,-74,-13)"/>
<path style="fill-rule:nonzero;fill:rgb(39.99939%,39.99939%,39.99939%);fill-opacity:1;stroke-width:0.03;stroke-linecap:square;stroke-linejoin:miter;stroke:rgb(39.99939%,39.99939%,39.99939%);stroke-opacity:1;stroke-miterlimit:3.239307;" d="M 228.59375 237.335938 L 236.121094 267.175781 L 227.660156 269.074219 L 220.605469 239.261719 Z M 228.59375 237.335938 " transform="matrix(1,0,0,1,-74,-13)"/>
<path style="fill-rule:nonzero;fill:rgb(39.99939%,39.99939%,39.99939%);fill-opacity:1;stroke-width:0.03;stroke-linecap:square;stroke-linejoin:miter;stroke:rgb(39.99939%,39.99939%,39.99939%);stroke-opacity:1;stroke-miterlimit:3.239307;" d="M 145.777344 223.121094 L 151.765625 246.460938 L 145.394531 247.992188 L 139.496094 227.617188 Z M 145.777344 223.121094 " transform="matrix(1,0,0,1,-74,-13)"/>
<path style="fill-rule:nonzero;fill:rgb(39.99939%,39.99939%,39.99939%);fill-opacity:1;stroke-width:0.03;stroke-linecap:square;stroke-linejoin:miter;stroke:rgb(39.99939%,39.99939%,39.99939%);stroke-opacity:1;stroke-miterlimit:3.239307;" d="M 153.574219 217.535156 L 159.921875 244.496094 L 152.675781 246.242188 L 146.59375 222.535156 Z M 153.574219 217.535156 " transform="matrix(1,0,0,1,-74,-13)"/>
<path style="fill-rule:nonzero;fill:rgb(39.99939%,39.99939%,39.99939%);fill-opacity:1;stroke-width:0.03;stroke-linecap:square;stroke-linejoin:miter;stroke:rgb(39.99939%,39.99939%,39.99939%);stroke-opacity:1;stroke-miterlimit:3.239307;" d="M 170.476562 243.738281 L 164.066406 245.28125 L 156.855469 215.1875 L 162.617188 211.0625 Z M 170.476562 243.738281 " transform="matrix(1,0,0,1,-74,-13)"/>
<path style="fill-rule:nonzero;fill:rgb(39.99939%,39.99939%,39.99939%);fill-opacity:1;stroke-width:0.03;stroke-linecap:square;stroke-linejoin:miter;stroke:rgb(39.99939%,39.99939%,39.99939%);stroke-opacity:1;stroke-miterlimit:3.239307;" d="M 190.457031 242.371094 L 195.273438 264.078125 L 186.78125 261.261719 L 182.585938 244.265625 Z M 190.457031 242.371094 " transform="matrix(1,0,0,1,-74,-13)"/>
<path style="fill-rule:nonzero;fill:rgb(39.99939%,39.99939%,39.99939%);fill-opacity:1;stroke-width:0.03;stroke-linecap:square;stroke-linejoin:miter;stroke:rgb(39.99939%,39.99939%,39.99939%);stroke-opacity:1;stroke-miterlimit:3.239307;" d="M 199.644531 241.339844 L 206.035156 267.648438 L 196.8125 264.589844 L 191.90625 243.203125 Z M 199.644531 241.339844 " transform="matrix(1,0,0,1,-74,-13)"/>
<path style="fill-rule:nonzero;fill:rgb(39.99939%,39.99939%,39.99939%);fill-opacity:1;stroke-width:0.03;stroke-linecap:square;stroke-linejoin:miter;stroke:rgb(39.99939%,39.99939%,39.99939%);stroke-opacity:1;stroke-miterlimit:3.239307;" d="M 219.09375 241.253906 L 226.1875 269.425781 L 219.433594 270.941406 L 211.945312 242.976562 Z M 219.09375 241.253906 " transform="matrix(1,0,0,1,-74,-13)"/>
<path style="fill-rule:nonzero;fill:rgb(39.99939%,39.99939%,39.99939%);fill-opacity:1;stroke-width:0.03;stroke-linecap:square;stroke-linejoin:miter;stroke:rgb(39.99939%,39.99939%,39.99939%);stroke-opacity:1;stroke-miterlimit:3.239307;" d="M 210.558594 244.628906 L 217.210938 270.738281 L 216.746094 270.730469 L 207.636719 267.707031 L 202.417969 246.589844 Z M 210.558594 244.628906 " transform="matrix(1,0,0,1,-74,-13)"/>
<path style="fill-rule:nonzero;fill:rgb(39.99939%,39.99939%,39.99939%);fill-opacity:1;stroke-width:0.03;stroke-linecap:square;stroke-linejoin:miter;stroke:rgb(39.99939%,39.99939%,39.99939%);stroke-opacity:1;stroke-miterlimit:3.239307;" d="M 170.269531 205.582031 L 178.980469 239.90625 L 171.886719 241.613281 L 164.257812 209.886719 Z M 170.269531 205.582031 " transform="matrix(1,0,0,1,-74,-13)"/>
<path style="fill-rule:nonzero;fill:rgb(39.99939%,39.99939%,39.99939%);fill-opacity:1;stroke-width:0.03;stroke-linecap:square;stroke-linejoin:miter;stroke:rgb(39.99939%,39.99939%,39.99939%);stroke-opacity:1;stroke-miterlimit:3.239307;" d="M 189.726562 239.101562 L 181.78125 241.015625 L 172.628906 203.890625 L 178.972656 199.351562 L 183.453125 213.675781 L 187.121094 227.414062 Z M 189.726562 239.101562 " transform="matrix(1,0,0,1,-74,-13)"/>
<path style="fill-rule:nonzero;fill:rgb(39.99939%,39.99939%,39.99939%);fill-opacity:1;stroke-width:0.03;stroke-linecap:square;stroke-linejoin:miter;stroke:rgb(39.99939%,39.99939%,39.99939%);stroke-opacity:1;stroke-miterlimit:3.239307;" d="M 173.449219 248.085938 L 180.625 246.359375 L 184.199219 260.402344 L 175.742188 257.613281 Z M 173.449219 248.085938 " transform="matrix(1,0,0,1,-74,-13)"/>
<path style="fill-rule:nonzero;fill:rgb(39.99939%,39.99939%,39.99939%);fill-opacity:1;stroke-width:0.03;stroke-linecap:square;stroke-linejoin:miter;stroke:rgb(39.99939%,39.99939%,39.99939%);stroke-opacity:1;stroke-miterlimit:3.239307;" d="M 224.90625 188.054688 L 233.292969 220.546875 L 225.816406 222.257812 L 217.6875 189.6875 Z M 224.90625 188.054688 " transform="matrix(1,0,0,1,-74,-13)"/>
<path style="fill-rule:nonzero;fill:rgb(39.99939%,39.99939%,39.99939%);fill-opacity:1;stroke-width:0.03;stroke-linecap:square;stroke-linejoin:miter;stroke:rgb(39.99939%,39.99939%,39.99939%);stroke-opacity:1;stroke-miterlimit:3.239307;" d="M 216.898438 189.867188 L 225.253906 223.289062 L 216.824219 225.222656 L 208.464844 191.769531 Z M 216.898438 189.867188 " transform="matrix(1,0,0,1,-74,-13)"/>
<path style="fill-rule:nonzero;fill:rgb(39.99939%,39.99939%,39.99939%);fill-opacity:1;stroke-width:0.03;stroke-linecap:square;stroke-linejoin:miter;stroke:rgb(39.99939%,39.99939%,39.99939%);stroke-opacity:1;stroke-miterlimit:3.239307;" d="M 234.691406 226.324219 L 239.042969 243.15625 L 231.625 244.816406 L 227.453125 228.152344 Z M 234.691406 226.324219 " transform="matrix(1,0,0,1,-74,-13)"/>
<path style="fill-rule:nonzero;fill:rgb(39.99939%,39.99939%,39.99939%);fill-opacity:1;stroke-width:0.03;stroke-linecap:square;stroke-linejoin:miter;stroke:rgb(39.99939%,39.99939%,39.99939%);stroke-opacity:1;stroke-miterlimit:3.239307;" d="M 188.566406 196.269531 L 198.085938 234.933594 L 190.433594 236.773438 L 188.25 227.425781 L 184.453125 213.433594 L 179.917969 198.296875 L 180.074219 198.1875 Z M 188.566406 196.269531 " transform="matrix(1,0,0,1,-74,-13)"/>
<path style="fill-rule:nonzero;fill:rgb(39.99939%,39.99939%,39.99939%);fill-opacity:1;stroke-width:0.03;stroke-linecap:square;stroke-linejoin:miter;stroke:rgb(39.99939%,39.99939%,39.99939%);stroke-opacity:1;stroke-miterlimit:3.239307;" d="M 208.011719 234.324219 L 199.898438 236.277344 L 189.980469 195.949219 L 197.863281 194.167969 Z M 208.011719 234.324219 " transform="matrix(1,0,0,1,-74,-13)"/>
<path style="fill-rule:nonzero;fill:rgb(39.99939%,39.99939%,39.99939%);fill-opacity:1;stroke-width:0.03;stroke-linecap:square;stroke-linejoin:miter;stroke:rgb(39.99939%,39.99939%,39.99939%);stroke-opacity:1;stroke-miterlimit:3.239307;" d="M 166.277344 254.496094 L 164.847656 248.535156 L 171.261719 246.992188 L 173.648438 256.925781 Z M 166.277344 254.496094 " transform="matrix(1,0,0,1,-74,-13)"/>
<path style="fill-rule:nonzero;fill:rgb(39.99939%,39.99939%,39.99939%);fill-opacity:1;stroke-width:0.03;stroke-linecap:square;stroke-linejoin:miter;stroke:rgb(39.99939%,39.99939%,39.99939%);stroke-opacity:1;stroke-miterlimit:3.239307;" d="M 358.832031 279.214844 L 367.355469 313.929688 L 366.257812 315.914062 L 365.402344 316.996094 L 364.257812 317.8125 L 358.171875 320.074219 L 348.652344 281.449219 Z M 358.832031 279.214844 " transform="matrix(1,0,0,1,-74,-13)"/>
<path style="fill-rule:nonzero;fill:rgb(39.99939%,39.99939%,39.99939%);fill-opacity:1;stroke-width:0.03;stroke-linecap:square;stroke-linejoin:miter;stroke:rgb(39.99939%,39.99939%,39.99939%);stroke-opacity:1;stroke-miterlimit:3.239307;" d="M 283.035156 262.058594 L 287.542969 280.070312 L 279.808594 281.761719 L 275.261719 263.675781 Z M 283.035156 262.058594 " transform="matrix(1,0,0,1,-74,-13)"/>
<path style="fill-rule:nonzero;fill:rgb(39.99939%,39.99939%,39.99939%);fill-opacity:1;stroke-width:0.03;stroke-linecap:square;stroke-linejoin:miter;stroke:rgb(39.99939%,39.99939%,39.99939%);stroke-opacity:1;stroke-miterlimit:3.239307;" d="M 292.328125 257.96875 L 301.871094 295.550781 L 293.234375 297.441406 L 284.328125 262.335938 Z M 292.328125 257.96875 " transform="matrix(1,0,0,1,-74,-13)"/>
<path style="fill-rule:nonzero;fill:rgb(39.99939%,39.99939%,39.99939%);fill-opacity:1;stroke-width:0.03;stroke-linecap:square;stroke-linejoin:miter;stroke:rgb(39.99939%,39.99939%,39.99939%);stroke-opacity:1;stroke-miterlimit:3.239307;" d="M 262.007812 288.332031 L 256.976562 266.953125 L 264.75 265.875 L 270.542969 290.441406 Z M 262.007812 288.332031 " transform="matrix(1,0,0,1,-74,-13)"/>
<path style="fill-rule:nonzero;fill:rgb(39.99939%,39.99939%,39.99939%);fill-opacity:1;stroke-width:0.03;stroke-linecap:square;stroke-linejoin:miter;stroke:rgb(39.99939%,39.99939%,39.99939%);stroke-opacity:1;stroke-miterlimit:3.239307;" d="M 382.570312 307.441406 L 380.871094 308.074219 L 379.378906 308.289062 L 377.851562 308.101562 L 376.914062 307.824219 L 375.976562 307.402344 L 375.039062 306.652344 L 372.527344 304.074219 L 371.332031 302.105469 L 369.457031 294.441406 L 371.605469 301.042969 L 373.605469 304.441406 L 375.605469 306.242188 L 378.207031 307.640625 Z M 382.570312 307.441406 " transform="matrix(1,0,0,1,-74,-13)"/>
<path style="fill-rule:nonzero;fill:rgb(39.99939%,39.99939%,39.99939%);fill-opacity:1;stroke-width:0.03;stroke-linecap:square;stroke-linejoin:miter;stroke:rgb(39.99939%,39.99939%,39.99939%);stroke-opacity:1;stroke-miterlimit:3.239307;" d="M 331.90625 143.40625 L 331.875 143.429688 L 325.214844 114.871094 L 325.808594 115.25 L 331.808594 143.050781 Z M 331.90625 143.40625 " transform="matrix(1,0,0,1,-74,-13)"/>
<path style="fill-rule:nonzero;fill:rgb(39.99939%,39.99939%,39.99939%);fill-opacity:1;stroke-width:0.03;stroke-linecap:square;stroke-linejoin:miter;stroke:rgb(39.99939%,39.99939%,39.99939%);stroke-opacity:1;stroke-miterlimit:3.239307;" d="M 136.894531 231.679688 L 137.324219 232.183594 L 137.847656 232.957031 L 138.511719 234.566406 L 139.273438 237.660156 L 140.566406 242.78125 L 141.40625 246.78125 L 142.171875 247.929688 L 143.539062 248.910156 L 149.027344 250.875 L 220.488281 274.363281 L 221.027344 274.707031 L 221.382812 275.199219 L 221.695312 275.96875 L 221.714844 276.699219 L 218.382812 284.613281 L 217.585938 285.546875 L 216.472656 286.425781 L 215.464844 286.878906 L 214.328125 287.164062 L 213.070312 286.988281 L 210.816406 286.226562 L 203.285156 283.441406 L 139.074219 262.335938 L 135.234375 260.402344 L 133.828125 259.445312 L 132.335938 258.375 L 130.992188 257.15625 L 130.324219 256.5 L 129.953125 256.679688 L 129.292969 255.847656 L 127.882812 254.074219 L 126.878906 252.789062 L 125.429688 250.644531 L 126.589844 251.183594 L 127.734375 251.605469 L 128.800781 251.875 L 129.976562 252.03125 L 131.136719 252.007812 L 132.355469 251.945312 L 134.105469 251.464844 L 135.167969 250.988281 L 136.351562 250.25 L 137.507812 249.175781 L 138.757812 247.277344 L 139.394531 245.058594 L 139.375 242.574219 L 138.988281 240.195312 L 138.320312 237.699219 L 137.65625 236.226562 L 137.082031 235.324219 L 136.128906 234.363281 L 135.300781 233.757812 L 134.125 233.175781 L 132.59375 232.859375 L 130.851562 232.625 L 133.132812 231.164062 L 133.820312 230.722656 L 134.300781 230.527344 L 134.816406 230.429688 L 135.179688 230.484375 L 135.492188 230.585938 L 135.832031 230.78125 L 136.128906 230.984375 L 136.457031 231.242188 Z M 136.894531 231.679688 " transform="matrix(1,0,0,1,-74,-13)"/>
<path style="fill-rule:nonzero;fill:rgb(39.99939%,39.99939%,39.99939%);fill-opacity:1;stroke-width:0.03;stroke-linecap:square;stroke-linejoin:miter;stroke:rgb(39.99939%,39.99939%,39.99939%);stroke-opacity:1;stroke-miterlimit:3.239307;" d="M 239.847656 244.472656 L 245.101562 264.84375 L 237.246094 266.605469 L 232.171875 246.222656 Z M 239.847656 244.472656 " transform="matrix(1,0,0,1,-74,-13)"/>
<path style="fill-rule:nonzero;fill:rgb(39.99939%,39.99939%,39.99939%);fill-opacity:1;stroke-width:0.03;stroke-linecap:square;stroke-linejoin:miter;stroke:rgb(39.99939%,39.99939%,39.99939%);stroke-opacity:1;stroke-miterlimit:3.239307;" d="M 321.925781 300.949219 L 324.699219 312.367188 L 316.109375 309.285156 L 314.273438 302.433594 Z M 321.925781 300.949219 " transform="matrix(1,0,0,1,-74,-13)"/>
<path style=" stroke:none;fill-rule:evenodd;fill:rgb(85.096741%,85.096741%,81.959534%);fill-opacity:0.7;" d="M 275 303 C 275 300.878906 274.15625 298.84375 272.65625 297.34375 C 271.15625 295.84375 269.121094 295 267 295 C 264.878906 295 262.84375 295.84375 261.34375 297.34375 C 259.84375 298.84375 259 300.878906 259 303 C 259 305.121094 259.84375 307.15625 261.34375 308.65625 C 262.84375 310.15625 264.878906 311 267 311 C 269.121094 311 271.15625 310.15625 272.65625 308.65625 C 274.15625 307.15625 275 305.121094 275 303 Z M 275 303 "/>
<path style=" stroke:none;fill-rule:evenodd;fill:rgb(85.096741%,85.096741%,81.959534%);fill-opacity:0.7;" d="M 306 232 C 306 229.878906 305.15625 227.84375 303.65625 226.34375 C 302.15625 224.84375 300.121094 224 298 224 C 295.878906 224 293.84375 224.84375 292.34375 226.34375 C 290.84375 227.84375 290 229.878906 290 232 C 290 234.121094 290.84375 236.15625 292.34375 237.65625 C 293.84375 239.15625 295.878906 240 298 240 C 300.121094 240 302.15625 239.15625 303.65625 237.65625 C 305.15625 236.15625 306 234.121094 306 232 Z M 306 232 "/>
<path style=" stroke:none;fill-rule:evenodd;fill:rgb(85.096741%,85.096741%,81.959534%);fill-opacity:0.7;" d="M 258 207 C 258 204.878906 257.15625 202.84375 255.65625 201.34375 C 254.15625 199.84375 252.121094 199 250 199 C 247.878906 199 245.84375 199.84375 244.34375 201.34375 C 242.84375 202.84375 242 204.878906 242 207 C 242 209.121094 242.84375 211.15625 244.34375 212.65625 C 245.84375 214.15625 247.878906 215 250 215 C 252.121094 215 254.15625 214.15625 255.65625 212.65625 C 257.15625 211.15625 258 209.121094 258 207 Z M 258 207 "/>
</g>
</svg>
