<?xml version="1.0" encoding="UTF-8"?>
<svg xmlns="http://www.w3.org/2000/svg" xmlns:xlink="http://www.w3.org/1999/xlink" width="361pt" height="361pt" viewBox="0 0 361 361" version="1.1">
<defs>
<clipPath id="clip1">
  <path d="M 0 345 L 21 345 L 21 360 L 0 360 Z M 0 345 "/>
</clipPath>
<clipPath id="clip2">
  <path d="M 4 343 L 21 343 L 21 360 L 4 360 Z M 4 343 "/>
</clipPath>
</defs>
<g id="surface6881">
<path style="fill-rule:nonzero;fill:rgb(0%,0%,0%);fill-opacity:1;stroke-width:0.03;stroke-linecap:square;stroke-linejoin:miter;stroke:rgb(0%,0%,0%);stroke-opacity:1;stroke-miterlimit:10;" d="M 0 178 L 360 178 L 360 -182 L 0 -182 Z M 0 178 " transform="matrix(1,0,0,1,0,182)"/>
<path style=" stroke:none;fill-rule:nonzero;fill:rgb(39.99939%,39.99939%,39.99939%);fill-opacity:0.3;" d="M 82.03125 -38.183594 L 88.082031 -37.398438 L 80.769531 13.496094 L 74.714844 12.714844 Z M 82.03125 -38.183594 "/>
<path style=" stroke:none;fill-rule:nonzero;fill:rgb(39.99939%,39.99939%,39.99939%);fill-opacity:0.3;" d="M 48.246094 -2.234375 L 49.40625 0 L 46.339844 1.382812 L 45.144531 -0.851562 Z M 48.246094 -2.234375 "/>
<path style=" stroke:none;fill-rule:nonzero;fill:rgb(39.99939%,39.99939%,39.99939%);fill-opacity:0.3;" d="M 19.898438 7.074219 L 36.976562 0.667969 L 38.519531 3.574219 L 21.125 9.898438 Z M 19.898438 7.074219 "/>
<path style=" stroke:none;fill-rule:nonzero;fill:rgb(39.99939%,39.99939%,39.99939%);fill-opacity:0.3;" d="M -2.046875 30.78125 L 3.132812 31.359375 L 3.359375 29.695312 L 9.226562 30.386719 L 9.011719 32.359375 L 12.628906 32.824219 L 13.328125 29.257812 L 16.144531 29.546875 L 15.351562 35.65625 L -2.421875 33.515625 Z M -2.046875 30.78125 "/>
<path style=" stroke:none;fill-rule:nonzero;fill:rgb(39.99939%,39.99939%,39.99939%);fill-opacity:0.3;" d="M 1.636719 -1.921875 L 7.109375 -1.925781 L 7.058594 1.046875 L 1.589844 1.050781 Z M 1.636719 -1.921875 "/>
<path style=" stroke:none;fill-rule:nonzero;fill:rgb(39.99939%,39.99939%,39.99939%);fill-opacity:0.3;" d="M -5.21875 5.613281 L -0.132812 6.015625 L -0.332031 7.851562 L 7.746094 8.496094 L 7.945312 8.511719 L 12.03125 8.839844 L 12.125 7.964844 L 17.410156 8.386719 L 16.878906 13.054688 L 13.394531 12.773438 L 13.292969 13.652344 L 7.417969 13.175781 L 7.328125 13.957031 L -3.328125 13.097656 L -3.105469 11.152344 L -5.796875 10.9375 Z M -5.21875 5.613281 "/>
<path style=" stroke:none;fill-rule:nonzero;fill:rgb(39.99939%,39.99939%,39.99939%);fill-opacity:0.3;" d="M 15.503906 0.390625 L 20.5 -1.710938 L 22.429688 2.714844 L 17.429688 4.824219 Z M 15.503906 0.390625 "/>
<path style=" stroke:none;fill-rule:nonzero;fill:rgb(39.99939%,39.99939%,39.99939%);fill-opacity:0.3;" d="M 38.867188 14.683594 L 44.3125 15.152344 L 44.058594 19.726562 L 38.621094 19.253906 Z M 38.867188 14.683594 "/>
<path style=" stroke:none;fill-rule:nonzero;fill:rgb(39.99939%,39.99939%,39.99939%);fill-opacity:0.3;" d="M 29.925781 10.21875 L 34.765625 7.730469 L 36.996094 12.035156 L 32.210938 14.484375 Z M 29.925781 10.21875 "/>
<path style=" stroke:none;fill-rule:nonzero;fill:rgb(39.99939%,39.99939%,39.99939%);fill-opacity:0.3;" d="M 29.386719 20.710938 L 32.335938 16.652344 L 36.574219 19.308594 L 33.605469 23.378906 Z M 29.386719 20.710938 "/>
<path style=" stroke:none;fill-rule:nonzero;fill:rgb(39.99939%,39.99939%,39.99939%);fill-opacity:0.3;" d="M 22.515625 33.3125 L 30.390625 34.210938 L 29.976562 37.496094 L 22.101562 36.597656 Z M 22.515625 33.3125 "/>
<path style=" stroke:none;fill-rule:nonzero;fill:rgb(39.99939%,39.99939%,39.99939%);fill-opacity:0.3;" d="M 7.296875 19.046875 L 11.238281 19.59375 L 10.132812 28.433594 L 6.203125 27.878906 Z M 7.296875 19.046875 "/>
<path style=" stroke:none;fill-rule:nonzero;fill:rgb(39.99939%,39.99939%,39.99939%);fill-opacity:0.3;" d="M -2.464844 17.898438 L 3.875 18.605469 L 3.527344 22.53125 L -2.800781 21.820312 Z M -2.464844 17.898438 "/>
<path style=" stroke:none;fill-rule:nonzero;fill:rgb(39.99939%,39.99939%,39.99939%);fill-opacity:0.3;" d="M 13.261719 15.355469 L 21.96875 11.851562 L 24.074219 16.195312 L 30.476562 29.402344 L 21.691406 32.144531 Z M 13.261719 15.355469 "/>
<path style=" stroke:none;fill-rule:nonzero;fill:rgb(39.99939%,39.99939%,39.99939%);fill-opacity:0.3;" d="M 80.382812 45.386719 L 36.605469 39.648438 L 38.703125 21.871094 L 47.464844 22.539062 L 47.90625 17.089844 L 84.011719 21.15625 Z M 80.382812 45.386719 "/>
<path style=" stroke:none;fill-rule:nonzero;fill:rgb(39.99939%,39.99939%,39.99939%);fill-opacity:0.3;" d="M 152.089844 1.050781 L 152.933594 -3.429688 L 154.734375 -3.152344 L 153.886719 1.332031 Z M 152.089844 1.050781 "/>
<path style=" stroke:none;fill-rule:nonzero;fill:rgb(39.99939%,39.99939%,39.99939%);fill-opacity:0.3;" d="M 146.617188 -1.800781 L 151.230469 -1.167969 L 150.929688 0.589844 L 146.320312 -0.0429688 Z M 146.617188 -1.800781 "/>
<path style=" stroke:none;fill-rule:nonzero;fill:rgb(39.99939%,39.99939%,39.99939%);fill-opacity:0.3;" d="M 155.277344 -0.867188 L 163.511719 0.550781 L 163.136719 2.351562 L 154.90625 0.929688 Z M 155.277344 -0.867188 "/>
<path style=" stroke:none;fill-rule:nonzero;fill:rgb(39.99939%,39.99939%,39.99939%);fill-opacity:0.3;" d="M 164.890625 -1.601562 L 173.125 -0.183594 L 172.75 1.613281 L 164.519531 0.195312 Z M 164.890625 -1.601562 "/>
<path style=" stroke:none;fill-rule:nonzero;fill:rgb(39.99939%,39.99939%,39.99939%);fill-opacity:0.3;" d="M 164.433594 0.800781 L 172.664062 2.21875 L 172.28125 4.027344 L 164.054688 2.601562 Z M 164.433594 0.800781 "/>
<path style=" stroke:none;fill-rule:nonzero;fill:rgb(39.99939%,39.99939%,39.99939%);fill-opacity:0.3;" d="M 173.183594 2.339844 L 181.425781 3.75 L 181.195312 5.441406 L 172.800781 4.144531 Z M 173.183594 2.339844 "/>
<path style=" stroke:none;fill-rule:nonzero;fill:rgb(39.99939%,39.99939%,39.99939%);fill-opacity:0.3;" d="M 182.542969 -5.105469 L 180.730469 2.917969 L 178.902344 2.566406 L 180.710938 -5.453125 Z M 182.542969 -5.105469 "/>
<path style=" stroke:none;fill-rule:nonzero;fill:rgb(39.99939%,39.99939%,39.99939%);fill-opacity:0.3;" d="M 179.886719 -5.582031 L 178.082031 2.433594 L 176.25 2.085938 L 178.050781 -5.929688 Z M 179.886719 -5.582031 "/>
<path style=" stroke:none;fill-rule:nonzero;fill:rgb(39.99939%,39.99939%,39.99939%);fill-opacity:0.3;" d="M 177.226562 -6.027344 L 175.425781 1.984375 L 173.597656 1.636719 L 175.394531 -6.371094 Z M 177.226562 -6.027344 "/>
<path style=" stroke:none;fill-rule:nonzero;fill:rgb(39.99939%,39.99939%,39.99939%);fill-opacity:0.3;" d="M 153.238281 1.90625 L 189.945312 7.296875 L 189.507812 11.171875 L 152.644531 6.03125 Z M 153.238281 1.90625 "/>
<path style=" stroke:none;fill-rule:nonzero;fill:rgb(39.99939%,39.99939%,39.99939%);fill-opacity:0.3;" d="M 152.847656 1.851562 L 152.195312 6.207031 L 145.566406 50.148438 L 106.726562 45.074219 L 114.207031 -14.1875 L 115.699219 -23.632812 L 115.753906 -24.101562 L 130.425781 -23.984375 L 146 -22.113281 L 141.226562 0.332031 Z M 152.847656 1.851562 "/>
<path style=" stroke:none;fill-rule:nonzero;fill:rgb(39.99939%,39.99939%,39.99939%);fill-opacity:0.3;" d="M 182.5625 -1.027344 L 190.796875 0.390625 L 190.417969 2.195312 L 182.1875 0.769531 Z M 182.5625 -1.027344 "/>
<path style=" stroke:none;fill-rule:nonzero;fill:rgb(39.99939%,39.99939%,39.99939%);fill-opacity:0.3;" d="M 182.199219 1.472656 L 190.425781 2.898438 L 190.191406 4.589844 L 181.816406 3.277344 Z M 182.199219 1.472656 "/>
<path style=" stroke:none;fill-rule:nonzero;fill:rgb(39.99939%,39.99939%,39.99939%);fill-opacity:0.3;" d="M 181.757812 3.859375 L 190.152344 5.15625 L 189.917969 6.851562 L 181.527344 5.550781 Z M 181.757812 3.859375 "/>
<path style=" stroke:none;fill-rule:nonzero;fill:rgb(39.99939%,39.99939%,39.99939%);fill-opacity:0.3;" d="M 165.445312 9.683594 L 176.605469 11.304688 L 174.214844 29.722656 L 163.101562 28.386719 Z M 165.445312 9.683594 "/>
<path style=" stroke:none;fill-rule:nonzero;fill:rgb(39.99939%,39.99939%,39.99939%);fill-opacity:0.3;" d="M 178.734375 11.628906 L 190.191406 13.433594 L 187.449219 31.535156 L 176.25 29.960938 Z M 178.734375 11.628906 "/>
<path style=" stroke:none;fill-rule:nonzero;fill:rgb(39.99939%,39.99939%,39.99939%);fill-opacity:0.3;" d="M 162.878906 30.070312 L 173.898438 31.765625 L 170.867188 52.761719 L 159.503906 51.421875 Z M 162.878906 30.070312 "/>
<path style=" stroke:none;fill-rule:nonzero;fill:rgb(39.99939%,39.99939%,39.99939%);fill-opacity:0.3;" d="M 176.015625 31.957031 L 187.160156 33.695312 L 183.925781 54.375 L 172.734375 52.917969 Z M 176.015625 31.957031 "/>
<path style=" stroke:none;fill-rule:nonzero;fill:rgb(39.99939%,39.99939%,39.99939%);fill-opacity:0.3;" d="M 189.363281 27.140625 L 198.222656 28.179688 L 195.105469 51.273438 L 185.859375 50.25 Z M 189.363281 27.140625 "/>
<path style=" stroke:none;fill-rule:nonzero;fill:rgb(39.99939%,39.99939%,39.99939%);fill-opacity:0.3;" d="M 199.691406 28.351562 L 210.339844 29.601562 L 206.675781 52.660156 L 196.5 51.480469 Z M 199.691406 28.351562 "/>
<path style=" stroke:none;fill-rule:nonzero;fill:rgb(39.99939%,39.99939%,39.99939%);fill-opacity:0.3;" d="M 211.648438 29.753906 L 221.046875 30.855469 L 217.367188 53.894531 L 208.035156 52.816406 Z M 211.648438 29.753906 "/>
<path style=" stroke:none;fill-rule:nonzero;fill:rgb(39.99939%,39.99939%,39.99939%);fill-opacity:0.3;" d="M 222.410156 31.015625 L 229.234375 31.816406 L 225.414062 54.828125 L 218.722656 54.054688 Z M 222.410156 31.015625 "/>
<path style=" stroke:none;fill-rule:nonzero;fill:rgb(39.99939%,39.99939%,39.99939%);fill-opacity:0.3;" d="M 190.953125 16.097656 L 207.054688 17.9375 L 205.703125 26.128906 L 189.808594 24.1875 Z M 190.953125 16.097656 "/>
<path style=" stroke:none;fill-rule:nonzero;fill:rgb(39.99939%,39.99939%,39.99939%);fill-opacity:0.3;" d="M 209.277344 18.238281 L 230.917969 20.890625 L 229.765625 29.195312 L 208.058594 26.460938 Z M 209.277344 18.238281 "/>
<path style=" stroke:none;fill-rule:nonzero;fill:rgb(39.99939%,39.99939%,39.99939%);fill-opacity:0.3;" d="M 216.539062 9.09375 L 232.566406 11.167969 L 231.339844 18.921875 L 209.371094 16.167969 L 210.214844 11.144531 L 215.996094 11.734375 Z M 216.539062 9.09375 "/>
<path style=" stroke:none;fill-rule:nonzero;fill:rgb(39.99939%,39.99939%,39.99939%);fill-opacity:0.3;" d="M 226.746094 -8.210938 L 235.34375 -6.914062 L 233.101562 9.3125 L 224.308594 8.25 Z M 226.746094 -8.210938 "/>
<path style=" stroke:none;fill-rule:nonzero;fill:rgb(39.99939%,39.99939%,39.99939%);fill-opacity:0.3;" d="M 219.175781 -9.585938 L 224.617188 -8.59375 L 222.15625 8.183594 L 216.316406 7.40625 Z M 219.175781 -9.585938 "/>
<path style=" stroke:none;fill-rule:nonzero;fill:rgb(39.99939%,39.99939%,39.99939%);fill-opacity:0.3;" d="M 154.089844 7.898438 L 163.636719 9.507812 L 157.890625 51.34375 L 147.714844 50.164062 Z M 154.089844 7.898438 "/>
<path style=" stroke:none;fill-rule:nonzero;fill:rgb(39.99939%,39.99939%,39.99939%);fill-opacity:0.3;" d="M 258.648438 -2.816406 L 294.652344 3.238281 L 289.503906 11.003906 L 257.324219 6.089844 Z M 258.648438 -2.816406 "/>
<path style=" stroke:none;fill-rule:nonzero;fill:rgb(39.99939%,39.99939%,39.99939%);fill-opacity:0.3;" d="M 257.105469 7.980469 L 288.371094 12.734375 L 283.527344 20.609375 L 255.921875 16.4375 Z M 257.105469 7.980469 "/>
<path style=" stroke:none;fill-rule:nonzero;fill:rgb(39.99939%,39.99939%,39.99939%);fill-opacity:0.3;" d="M 255.578125 18.363281 L 282.621094 22.417969 L 277.679688 29.742188 L 254.3125 26.242188 Z M 255.578125 18.363281 "/>
<path style=" stroke:none;fill-rule:nonzero;fill:rgb(39.99939%,39.99939%,39.99939%);fill-opacity:0.3;" d="M 254.089844 27.878906 L 276.839844 31.378906 L 271.289062 39.933594 L 252.460938 37.070312 Z M 254.089844 27.878906 "/>
<path style=" stroke:none;fill-rule:nonzero;fill:rgb(39.99939%,39.99939%,39.99939%);fill-opacity:0.3;" d="M 252.242188 38.882812 L 270.453125 41.457031 L 266.035156 48.347656 L 251.050781 45.910156 Z M 252.242188 38.882812 "/>
<path style=" stroke:none;fill-rule:nonzero;fill:rgb(39.99939%,39.99939%,39.99939%);fill-opacity:0.3;" d="M 250.664062 48.148438 L 265.199219 49.964844 L 260.6875 58.300781 L 259.539062 59.101562 L 248.875 58.164062 Z M 250.664062 48.148438 "/>
<path style=" stroke:none;fill-rule:nonzero;fill:rgb(39.99939%,39.99939%,39.99939%);fill-opacity:0.3;" d="M 241.617188 38.371094 L 250.300781 39.660156 L 247.21875 58.050781 L 238.0625 57.023438 Z M 241.617188 38.371094 "/>
<path style=" stroke:none;fill-rule:nonzero;fill:rgb(39.99939%,39.99939%,39.99939%);fill-opacity:0.3;" d="M 191.683594 7.449219 L 190.300781 7.332031 L 189.773438 11.515625 L 152.304688 6.222656 L 152.945312 1.832031 L 141.363281 0.257812 L 146.019531 -22.113281 L 217.082031 -10.671875 L 213.105469 9.855469 L 208.195312 9.464844 L 207.183594 16.285156 L 192.445312 14.5625 L 193.0625 7.570312 Z M 191.683594 7.449219 "/>
<path style=" stroke:none;fill-rule:nonzero;fill:rgb(39.99939%,39.99939%,39.99939%);fill-opacity:0.3;" d="M 243.640625 26.160156 L 252.320312 27.519531 L 250.691406 36.785156 L 241.929688 35.425781 Z M 243.640625 26.160156 "/>
<path style=" stroke:none;fill-rule:nonzero;fill:rgb(39.99939%,39.99939%,39.99939%);fill-opacity:0.3;" d="M 247.0625 6.628906 L 255.523438 7.707031 L 252.46875 26.101562 L 244.011719 24.671875 Z M 247.0625 6.628906 "/>
<path style=" stroke:none;fill-rule:nonzero;fill:rgb(39.99939%,39.99939%,39.99939%);fill-opacity:0.3;" d="M 248.882812 -4.457031 L 256.851562 -3.109375 L 255.617188 5.820312 L 247.394531 4.6875 Z M 248.882812 -4.457031 "/>
<path style=" stroke:none;fill-rule:nonzero;fill:rgb(39.99939%,39.99939%,39.99939%);fill-opacity:0.3;" d="M 236.648438 -6.335938 L 246.6875 -4.898438 L 244.382812 10.71875 L 234.042969 9.535156 Z M 236.648438 -6.335938 "/>
<path style=" stroke:none;fill-rule:nonzero;fill:rgb(39.99939%,39.99939%,39.99939%);fill-opacity:0.3;" d="M 234.007812 11.261719 L 243.855469 12.476562 L 242.492188 20.351562 L 232.667969 19.125 Z M 234.007812 11.261719 "/>
<path style=" stroke:none;fill-rule:nonzero;fill:rgb(39.99939%,39.99939%,39.99939%);fill-opacity:0.3;" d="M 232.402344 21.160156 L 242.179688 22.425781 L 240.914062 30.527344 L 231.203125 29.296875 Z M 232.402344 21.160156 "/>
<path style=" stroke:none;fill-rule:nonzero;fill:rgb(39.99939%,39.99939%,39.99939%);fill-opacity:0.3;" d="M 230.757812 31.996094 L 240.429688 33.132812 L 236.367188 56.09375 L 226.867188 54.996094 Z M 230.757812 31.996094 "/>
<path style=" stroke:none;fill-rule:nonzero;fill:rgb(39.99939%,39.99939%,39.99939%);fill-opacity:0.3;" d="M -8.308594 153.496094 L 4.15625 155.21875 L 2.027344 165.300781 L 3.273438 165.660156 L 4.515625 166.015625 L 6.640625 155.5625 L 17.101562 157.007812 L 9.054688 182.859375 L -14.523438 179.734375 Z M -8.308594 153.496094 "/>
<path style=" stroke:none;fill-rule:nonzero;fill:rgb(39.99939%,39.99939%,39.99939%);fill-opacity:0.3;" d="M 1.667969 109.4375 L 12.71875 110.742188 L 4.058594 152.921875 L -7.710938 151.296875 Z M 1.667969 109.4375 "/>
<path style=" stroke:none;fill-rule:nonzero;fill:rgb(39.99939%,39.99939%,39.99939%);fill-opacity:0.3;" d="M 14.949219 111.203125 L 28 112.546875 L 18.617188 154.933594 L 5.578125 153.132812 Z M 14.949219 111.203125 "/>
<path style=" stroke:none;fill-rule:nonzero;fill:rgb(39.99939%,39.99939%,39.99939%);fill-opacity:0.3;" d="M 69.199219 123.148438 L 28.90625 118.691406 L 30.183594 112.804688 L 38.527344 113.789062 L 70.046875 117.511719 Z M 69.199219 123.148438 "/>
<path style=" stroke:none;fill-rule:nonzero;fill:rgb(39.99939%,39.99939%,39.99939%);fill-opacity:0.3;" d="M -9.113281 274.675781 L 40.09375 286.636719 L 36.738281 293.015625 L 31.363281 301.183594 L 27.058594 305.878906 Z M -9.113281 274.675781 "/>
<path style=" stroke:none;fill-rule:nonzero;fill:rgb(39.99939%,39.99939%,39.99939%);fill-opacity:0.3;" d="M -14.707031 277.535156 L -8.03125 281.203125 L 4.242188 292.421875 L -6.046875 328.855469 L -7.96875 328.898438 L -24.375 304.886719 Z M -14.707031 277.535156 "/>
<path style=" stroke:none;fill-rule:nonzero;fill:rgb(39.99939%,39.99939%,39.99939%);fill-opacity:0.3;" d="M 5.746094 293.441406 L 23.621094 309.144531 L 9.636719 320.378906 L -3.914062 328.753906 Z M 5.746094 293.441406 "/>
<path style=" stroke:none;fill-rule:nonzero;fill:rgb(39.99939%,39.99939%,39.99939%);fill-opacity:0.3;" d="M 28.097656 223.160156 L 27.964844 224.648438 L 27.261719 226.441406 L 25.519531 227.445312 L 13.574219 227.398438 L 14.300781 221.199219 L 14.320312 212.351562 L 13.140625 201.675781 L 27.097656 203.710938 Z M 28.097656 223.160156 "/>
<path style=" stroke:none;fill-rule:nonzero;fill:rgb(39.99939%,39.99939%,39.99939%);fill-opacity:0.3;" d="M 29.75 204 L 56.710938 207.632812 L 53.5 233.351562 L 27.25 230.1875 L 29.21875 228.390625 L 30.585938 225.714844 L 30.914062 223.066406 Z M 29.75 204 "/>
<path style=" stroke:none;fill-rule:nonzero;fill:rgb(39.99939%,39.99939%,39.99939%);fill-opacity:0.3;" d="M 22.148438 149.878906 L 64.328125 155.726562 L 63.332031 162.097656 L 20.644531 156.816406 Z M 22.148438 149.878906 "/>
<path style=" stroke:none;fill-rule:nonzero;fill:rgb(39.99939%,39.99939%,39.99939%);fill-opacity:0.3;" d="M 18.839844 158.285156 L 63.261719 163.503906 L 62.351562 168.960938 L 41.734375 166.15625 L 41.429688 167.25 L 41.042969 168.628906 L 61.90625 171.75 L 60.207031 182.878906 L 13.925781 175.402344 Z M 18.839844 158.285156 "/>
<path style=" stroke:none;fill-rule:nonzero;fill:rgb(39.99939%,39.99939%,39.99939%);fill-opacity:0.3;" d="M 46.535156 182.957031 L 59.863281 185.140625 L 57.011719 205.65625 L 43.011719 203.5625 L 11.492188 198.851562 L 9.214844 190.605469 L 10.429688 185.417969 L 13.292969 177.507812 L 23.539062 179.1875 L 23.367188 180.570312 L 23.113281 182.792969 L 20.601562 182.273438 L 20.390625 182.945312 L 23.394531 183.445312 L 25.753906 183.855469 L 25.867188 183.269531 L 23.78125 182.90625 L 24.015625 180.679688 L 24.183594 179.292969 Z M 46.535156 182.957031 "/>
<path style=" stroke:none;fill-rule:nonzero;fill:rgb(39.99939%,39.99939%,39.99939%);fill-opacity:0.3;" d="M 9.054688 182.859375 L 8.914062 183.3125 L -14.554688 179.875 L -14.523438 179.734375 Z M 9.054688 182.859375 "/>
<path style=" stroke:none;fill-rule:nonzero;fill:rgb(39.99939%,39.99939%,39.99939%);fill-opacity:0.3;" d="M 7.988281 186.652344 L 7.320312 190.585938 L 7.1875 191.601562 L 7.324219 192.863281 L 12.136719 209.25 L -14.414062 205.226562 L -19.097656 227.503906 L -25.773438 226.078125 L -14.863281 183.304688 Z M 7.988281 186.652344 "/>
<path style=" stroke:none;fill-rule:nonzero;fill:rgb(39.99939%,39.99939%,39.99939%);fill-opacity:0.3;" d="M 48.574219 123.207031 L 68.75 125.367188 L 66.664062 139.984375 L 25.132812 136.105469 L 28.394531 121.046875 Z M 48.574219 123.207031 "/>
<path style=" stroke:none;fill-rule:nonzero;fill:rgb(39.99939%,39.99939%,39.99939%);fill-opacity:0.3;" d="M 24.722656 138.003906 L 66.449219 141.410156 L 64.621094 153.535156 L 22.660156 147.511719 Z M 24.722656 138.003906 "/>
<path style=" stroke:none;fill-rule:nonzero;fill:rgb(39.99939%,39.99939%,39.99939%);fill-opacity:0.3;" d="M 53.085938 235.867188 L 50.652344 254.445312 L 30.402344 243.15625 L 30.066406 243.789062 L 29.734375 244.417969 L 50.160156 255.992188 L 50 258.625 L 49.675781 261.71875 L 49.023438 264.042969 L 24.207031 252.292969 L 19.316406 263.90625 L 44.464844 278.59375 L 41.691406 284.324219 L -0.359375 273.617188 L 3.503906 258.105469 L 7.152344 244.632812 L 11.628906 242.238281 L 13.386719 229.121094 Z M 53.085938 235.867188 "/>
<path style=" stroke:none;fill-rule:nonzero;fill:rgb(39.99939%,39.99939%,39.99939%);fill-opacity:0.3;" d="M 25.351562 255.078125 L 42.710938 263.355469 L 47.84375 270.308594 L 46.816406 272.484375 L 37.449219 272.328125 L 21.96875 262.148438 L 31.121094 262.421875 Z M 25.351562 255.078125 "/>
<path style=" stroke:none;fill-rule:nonzero;fill:rgb(39.99939%,39.99939%,39.99939%);fill-opacity:0.3;" d="M -12.644531 207.207031 L 12.355469 211.320312 L 12.035156 223.652344 L 9.734375 240.753906 L 5.214844 242.390625 L 1.78125 256.269531 L -2.726562 273.007812 L -26.132812 267.128906 L -27.011719 266.75 L -23.859375 253.808594 L -22.773438 254.089844 L -13.089844 257.148438 L -11.253906 250.144531 L -12.519531 249.710938 L -13.789062 249.273438 L -14.9375 253.648438 L -22.515625 251.492188 L -23.246094 251.296875 L -19.085938 234.238281 L -18.402344 234.480469 L -16.375 235.15625 L -16.097656 234.230469 L -15.820312 233.308594 L -17.929688 232.511719 L -18.601562 232.25 L -15.5 219.523438 L -7.761719 220.875 L -7.535156 219.574219 L -7.304688 218.273438 L -14.910156 217.179688 Z M -12.644531 207.207031 "/>
<path style=" stroke:none;fill-rule:nonzero;fill:rgb(39.99939%,39.99939%,39.99939%);fill-opacity:0.3;" d="M 9.714844 54.164062 L 20.070312 55.683594 L 10.511719 102.585938 L 0.835938 101.445312 Z M 9.714844 54.164062 "/>
<path style=" stroke:none;fill-rule:nonzero;fill:rgb(39.99939%,39.99939%,39.99939%);fill-opacity:0.3;" d="M 22.132812 55.984375 L 30.734375 57.242188 L 22.8125 104.039062 L 12.574219 102.832031 Z M 22.132812 55.984375 "/>
<path style=" stroke:none;fill-rule:nonzero;fill:rgb(39.99939%,39.99939%,39.99939%);fill-opacity:0.3;" d="M -1.535156 52.519531 L 7.878906 53.898438 L -0.589844 101.277344 L -10.75 100.078125 Z M -1.535156 52.519531 "/>
<path style=" stroke:none;fill-rule:nonzero;fill:rgb(39.99939%,39.99939%,39.99939%);fill-opacity:0.3;" d="M 34.851562 43.332031 L 79.800781 48.835938 L 72.050781 109.1875 L 23.898438 103.5 Z M 34.851562 43.332031 "/>
<path style=" stroke:none;fill-rule:nonzero;fill:rgb(39.99939%,39.99939%,39.99939%);fill-opacity:0.3;" d="M 23.882812 41.992188 L 33.105469 42.984375 L 31.394531 54.945312 L 22.269531 53.714844 Z M 23.882812 41.992188 "/>
<path style=" stroke:none;fill-rule:nonzero;fill:rgb(39.99939%,39.99939%,39.99939%);fill-opacity:0.3;" d="M 11.480469 40.648438 L 22.328125 41.8125 L 20.621094 53.375 L 10.046875 51.515625 Z M 11.480469 40.648438 "/>
<path style=" stroke:none;fill-rule:nonzero;fill:rgb(39.99939%,39.99939%,39.99939%);fill-opacity:0.3;" d="M -19.378906 36.296875 L 9.175781 39.683594 L 7.703125 51.105469 L -21.347656 46.65625 Z M -19.378906 36.296875 "/>
<g clip-path="url(#clip1)" clip-rule="nonzero">
<path style=" stroke:none;fill-rule:nonzero;fill:rgb(39.99939%,39.99939%,39.99939%);fill-opacity:0.3;" d="M 2.128906 345.441406 L 20.621094 371.84375 L 8.144531 426.089844 L -31.347656 412.871094 L -8.738281 352.261719 Z M 2.128906 345.441406 "/>
</g>
<g clip-path="url(#clip2)" clip-rule="nonzero">
<path style=" stroke:none;fill-rule:nonzero;fill:rgb(39.99939%,39.99939%,39.99939%);fill-opacity:0.3;" d="M 4.714844 343.816406 L 5.5625 343.363281 L 20.90625 366.777344 Z M 4.714844 343.816406 "/>
</g>
<path style=" stroke:none;fill-rule:nonzero;fill:rgb(39.99939%,39.99939%,39.99939%);fill-opacity:0.3;" d="M 85.148438 194.449219 L 110.761719 197.203125 L 109.132812 205.988281 L 83.992188 203.070312 Z M 85.148438 194.449219 "/>
<path style=" stroke:none;fill-rule:nonzero;fill:rgb(39.99939%,39.99939%,39.99939%);fill-opacity:0.3;" d="M 86.300781 185.09375 L 112.242188 187.546875 L 110.867188 195.351562 L 85.339844 192.429688 Z M 86.300781 185.09375 "/>
<path style=" stroke:none;fill-rule:nonzero;fill:rgb(39.99939%,39.99939%,39.99939%);fill-opacity:0.3;" d="M 118.671875 163.023438 L 149.613281 167.078125 L 149.148438 169.476562 L 118.230469 165.609375 Z M 118.671875 163.023438 "/>
<path style=" stroke:none;fill-rule:nonzero;fill:rgb(39.99939%,39.99939%,39.99939%);fill-opacity:0.3;" d="M 151.082031 159.503906 L 149.984375 165.574219 L 118.890625 161.738281 L 119.914062 155.769531 Z M 151.082031 159.503906 "/>
<path style=" stroke:none;fill-rule:nonzero;fill:rgb(39.99939%,39.99939%,39.99939%);fill-opacity:0.3;" d="M 148.730469 170.625 L 146.644531 175.988281 L 116.984375 172.890625 L 118.007812 166.894531 Z M 148.730469 170.625 "/>
<path style=" stroke:none;fill-rule:nonzero;fill:rgb(39.99939%,39.99939%,39.99939%);fill-opacity:0.3;" d="M 145.976562 177.707031 L 141.832031 188.367188 L 114.746094 185.980469 L 116.558594 175.371094 Z M 145.976562 177.707031 "/>
<path style=" stroke:none;fill-rule:nonzero;fill:rgb(39.99939%,39.99939%,39.99939%);fill-opacity:0.3;" d="M 141.203125 189.976562 L 138.496094 197.828125 L 113.269531 195.640625 L 114.453125 187.683594 Z M 141.203125 189.976562 "/>
<path style=" stroke:none;fill-rule:nonzero;fill:rgb(39.99939%,39.99939%,39.99939%);fill-opacity:0.3;" d="M 137.917969 199.546875 L 135.132812 207.816406 L 111.378906 205.648438 L 112.847656 197.0625 Z M 137.917969 199.546875 "/>
<path style=" stroke:none;fill-rule:nonzero;fill:rgb(39.99939%,39.99939%,39.99939%);fill-opacity:0.3;" d="M 89.847656 160.0625 L 116.453125 162.9375 L 116.015625 165.496094 L 89.488281 162.589844 Z M 89.847656 160.0625 "/>
<path style=" stroke:none;fill-rule:nonzero;fill:rgb(39.99939%,39.99939%,39.99939%);fill-opacity:0.3;" d="M 91 151.964844 L 117.769531 155.230469 L 116.632812 161.882812 L 90.039062 158.71875 Z M 91 151.964844 "/>
<path style=" stroke:none;fill-rule:nonzero;fill:rgb(39.99939%,39.99939%,39.99939%);fill-opacity:0.3;" d="M 89.265625 164.144531 L 115.796875 166.761719 L 114.832031 172.410156 L 88.449219 169.902344 Z M 89.265625 164.144531 "/>
<path style=" stroke:none;fill-rule:nonzero;fill:rgb(39.99939%,39.99939%,39.99939%);fill-opacity:0.3;" d="M 88.105469 172.3125 L 114.367188 175.128906 L 112.550781 185.738281 L 86.550781 183.269531 Z M 88.105469 172.3125 "/>
<path style=" stroke:none;fill-rule:nonzero;fill:rgb(39.99939%,39.99939%,39.99939%);fill-opacity:0.3;" d="M 151.664062 167.160156 L 202.898438 172.800781 L 201.824219 174.800781 L 151.21875 169.464844 Z M 151.664062 167.160156 "/>
<path style=" stroke:none;fill-rule:nonzero;fill:rgb(39.99939%,39.99939%,39.99939%);fill-opacity:0.3;" d="M 153.226562 159.121094 L 206.898438 165.363281 L 203.519531 171.648438 L 151.9375 165.765625 Z M 153.226562 159.121094 "/>
<path style=" stroke:none;fill-rule:nonzero;fill:rgb(39.99939%,39.99939%,39.99939%);fill-opacity:0.3;" d="M 150.945312 170.492188 L 201.042969 176.257812 L 198.226562 181.621094 L 148.75 176.140625 Z M 150.945312 170.492188 "/>
<path style=" stroke:none;fill-rule:nonzero;fill:rgb(39.99939%,39.99939%,39.99939%);fill-opacity:0.3;" d="M 148.113281 177.78125 L 197.136719 183.527344 L 190.382812 195.996094 L 143.773438 188.6875 Z M 148.113281 177.78125 "/>
<path style=" stroke:none;fill-rule:nonzero;fill:rgb(39.99939%,39.99939%,39.99939%);fill-opacity:0.3;" d="M 189.453125 197.824219 L 185.132812 205.945312 L 183.199219 204.480469 L 180.488281 203.566406 L 175.847656 202.652344 L 140.535156 198.121094 L 143.285156 190.496094 Z M 189.453125 197.824219 "/>
<path style=" stroke:none;fill-rule:nonzero;fill:rgb(39.99939%,39.99939%,39.99939%);fill-opacity:0.3;" d="M 152.707031 95.15625 L 160.96875 95.976562 L 157.339844 120.246094 L 149.785156 119.289062 Z M 152.707031 95.15625 "/>
<path style=" stroke:none;fill-rule:nonzero;fill:rgb(39.99939%,39.99939%,39.99939%);fill-opacity:0.3;" d="M 128.035156 125.953125 L 157.019531 129.261719 L 155.890625 134.882812 L 127.378906 131.144531 Z M 128.035156 125.953125 "/>
<path style=" stroke:none;fill-rule:nonzero;fill:rgb(39.99939%,39.99939%,39.99939%);fill-opacity:0.3;" d="M 121.800781 144.726562 L 153.347656 148.707031 L 151.5 157.34375 L 120.316406 153.539062 Z M 121.800781 144.726562 "/>
<path style=" stroke:none;fill-rule:nonzero;fill:rgb(39.99939%,39.99939%,39.99939%);fill-opacity:0.3;" d="M 123.792969 133.078125 L 155.398438 137.25 L 153.5625 146.71875 L 122.195312 142.859375 Z M 123.792969 133.078125 "/>
<path style=" stroke:none;fill-rule:nonzero;fill:rgb(39.99939%,39.99939%,39.99939%);fill-opacity:0.3;" d="M 94.199219 129.449219 L 121.589844 132.914062 L 119.921875 142.660156 L 92.792969 139.332031 Z M 94.199219 129.449219 "/>
<path style=" stroke:none;fill-rule:nonzero;fill:rgb(39.99939%,39.99939%,39.99939%);fill-opacity:0.3;" d="M 92.570312 140.914062 L 119.601562 144.367188 L 118.023438 153.25 L 91.332031 150.265625 Z M 92.570312 140.914062 "/>
<path style=" stroke:none;fill-rule:nonzero;fill:rgb(39.99939%,39.99939%,39.99939%);fill-opacity:0.3;" d="M 121.832031 92.085938 L 131.5625 93.050781 L 127.746094 116.492188 L 119.566406 115.457031 Z M 121.832031 92.085938 "/>
<path style=" stroke:none;fill-rule:nonzero;fill:rgb(39.99939%,39.99939%,39.99939%);fill-opacity:0.3;" d="M 139.53125 93.84375 L 147.96875 94.683594 L 138.875 117.90625 L 129.492188 116.714844 Z M 139.53125 93.84375 "/>
<path style=" stroke:none;fill-rule:nonzero;fill:rgb(39.99939%,39.99939%,39.99939%);fill-opacity:0.3;" d="M 150.300781 98.027344 L 147.695312 119.039062 L 141.820312 118.484375 Z M 150.300781 98.027344 "/>
<path style=" stroke:none;fill-rule:nonzero;fill:rgb(39.99939%,39.99939%,39.99939%);fill-opacity:0.3;" d="M 132.835938 93.261719 L 137.585938 93.761719 L 129.964844 109.6875 Z M 132.835938 93.261719 "/>
<path style=" stroke:none;fill-rule:nonzero;fill:rgb(39.99939%,39.99939%,39.99939%);fill-opacity:0.3;" d="M 99.988281 89.914062 L 109.746094 90.882812 L 106.597656 113.808594 L 96.929688 112.585938 Z M 99.988281 89.914062 "/>
<path style=" stroke:none;fill-rule:nonzero;fill:rgb(39.99939%,39.99939%,39.99939%);fill-opacity:0.3;" d="M 111.4375 91.050781 L 120.289062 91.933594 L 117.703125 115.21875 L 108.203125 114.015625 Z M 111.4375 91.050781 "/>
<path style=" stroke:none;fill-rule:nonzero;fill:rgb(39.99939%,39.99939%,39.99939%);fill-opacity:0.3;" d="M 95.855469 118.164062 L 104.570312 119.179688 L 104.570312 122.652344 L 126.984375 125.722656 L 126.085938 130.96875 L 94.59375 127.042969 Z M 95.855469 118.164062 "/>
<path style=" stroke:none;fill-rule:nonzero;fill:rgb(39.99939%,39.99939%,39.99939%);fill-opacity:0.3;" d="M 217.90625 144.875 L 213.0625 153.890625 L 196.335938 151.976562 L 200.46875 142.820312 Z M 217.90625 144.875 "/>
<path style=" stroke:none;fill-rule:nonzero;fill:rgb(39.99939%,39.99939%,39.99939%);fill-opacity:0.3;" d="M 157.410156 137.546875 L 198.914062 142.332031 L 194.613281 151.644531 L 155.617188 146.796875 Z M 157.410156 137.546875 "/>
<path style=" stroke:none;fill-rule:nonzero;fill:rgb(39.99939%,39.99939%,39.99939%);fill-opacity:0.3;" d="M 158.886719 130.101562 L 221.035156 138.828125 L 218.5625 143.425781 L 157.90625 135.160156 Z M 158.886719 130.101562 "/>
<path style=" stroke:none;fill-rule:nonzero;fill:rgb(39.99939%,39.99939%,39.99939%);fill-opacity:0.3;" d="M 155.351562 148.820312 L 212.027344 155.816406 L 207.800781 163.679688 L 153.550781 157.445312 Z M 155.351562 148.820312 "/>
<path style=" stroke:none;fill-rule:nonzero;fill:rgb(39.99939%,39.99939%,39.99939%);fill-opacity:0.3;" d="M 186.726562 98.535156 L 195.730469 99.429688 L 192.085938 124.652344 L 183.496094 123.566406 Z M 186.726562 98.535156 "/>
<path style=" stroke:none;fill-rule:nonzero;fill:rgb(39.99939%,39.99939%,39.99939%);fill-opacity:0.3;" d="M 197.28125 99.585938 L 206.871094 100.539062 L 202.886719 126.023438 L 193.582031 124.84375 Z M 197.28125 99.585938 "/>
<path style=" stroke:none;fill-rule:nonzero;fill:rgb(39.99939%,39.99939%,39.99939%);fill-opacity:0.3;" d="M 208.242188 100.675781 L 216.273438 101.472656 L 209.714844 116.730469 L 207.457031 126.605469 L 204.046875 126.171875 Z M 208.242188 100.675781 "/>
<path style=" stroke:none;fill-rule:nonzero;fill:rgb(39.99939%,39.99939%,39.99939%);fill-opacity:0.3;" d="M 162.507812 96.128906 L 171.773438 97.050781 L 168.953125 121.71875 L 158.898438 120.445312 Z M 162.507812 96.128906 "/>
<path style=" stroke:none;fill-rule:nonzero;fill:rgb(39.99939%,39.99939%,39.99939%);fill-opacity:0.3;" d="M 173.734375 97.246094 L 185.273438 98.390625 L 182.109375 123.390625 L 170.753906 121.949219 Z M 173.734375 97.246094 "/>
<path style=" stroke:none;fill-rule:nonzero;fill:rgb(39.99939%,39.99939%,39.99939%);fill-opacity:0.3;" d="M 217.210938 101.566406 L 224.734375 102.3125 L 218.589844 119.808594 L 210.558594 118.117188 Z M 217.210938 101.566406 "/>
<path style=" stroke:none;fill-rule:nonzero;fill:rgb(39.99939%,39.99939%,39.99939%);fill-opacity:0.3;" d="M 225.890625 102.429688 L 235.214844 103.355469 L 225.164062 121.109375 L 219.890625 119.960938 Z M 225.890625 102.429688 "/>
<path style=" stroke:none;fill-rule:nonzero;fill:rgb(39.99939%,39.99939%,39.99939%);fill-opacity:0.3;" d="M 210.152344 118.964844 L 224.921875 122.34375 L 223.527344 128.644531 L 208.304688 126.710938 Z M 210.152344 118.964844 "/>
<path style=" stroke:none;fill-rule:nonzero;fill:rgb(39.99939%,39.99939%,39.99939%);fill-opacity:0.3;" d="M 139.960938 199.824219 L 176.042969 204.667969 L 181.652344 206.132812 L 184.167969 207.78125 L 181.335938 212.9375 L 137.214844 207.980469 Z M 139.960938 199.824219 "/>
<path style=" stroke:none;fill-rule:nonzero;fill:rgb(39.99939%,39.99939%,39.99939%);fill-opacity:0.3;" d="M 136.214844 210.359375 L 178.242188 214.582031 L 179.472656 214.988281 L 180.640625 215.671875 L 181.628906 216.609375 L 182.171875 217.460938 L 181.8125 218.90625 L 174.984375 224.277344 L 131.867188 218.265625 L 132.632812 217.359375 L 133.726562 215.28125 L 134.992188 212.457031 Z M 136.214844 210.359375 "/>
<path style=" stroke:none;fill-rule:nonzero;fill:rgb(39.99939%,39.99939%,39.99939%);fill-opacity:0.3;" d="M 76.15625 249.910156 L 101.882812 271.960938 L 80.871094 288.472656 L 62.476562 305.324219 L 57.199219 308.570312 L 55.144531 308.480469 L 53.191406 307.738281 L 52.113281 306.8125 L 51.429688 305.792969 L 57.386719 297.632812 L 66.675781 283.667969 L 68.628906 279.308594 L 70.871094 273.5625 L 73.019531 265.679688 L 75.457031 255.386719 Z M 76.15625 249.910156 "/>
<path style=" stroke:none;fill-rule:nonzero;fill:rgb(39.99939%,39.99939%,39.99939%);fill-opacity:0.3;" d="M 83.1875 204.992188 L 108.789062 207.734375 L 107.84375 214.203125 L 89.933594 213.0625 L 82.542969 211.996094 Z M 83.1875 204.992188 "/>
<path style=" stroke:none;fill-rule:nonzero;fill:rgb(39.99939%,39.99939%,39.99939%);fill-opacity:0.3;" d="M 82.351562 213.816406 L 94 215.375 L 114.207031 228.886719 L 106.6875 238.734375 L 101.785156 235.410156 L 81.046875 221.992188 Z M 82.351562 213.816406 "/>
<path style=" stroke:none;fill-rule:nonzero;fill:rgb(39.99939%,39.99939%,39.99939%);fill-opacity:0.3;" d="M 80.71875 224.894531 L 125.765625 255.519531 L 103.847656 270.171875 L 77.25 248.371094 Z M 80.71875 224.894531 "/>
<path style=" stroke:none;fill-rule:nonzero;fill:rgb(39.99939%,39.99939%,39.99939%);fill-opacity:0.3;" d="M 128.222656 222.25 L 129.789062 220.554688 L 171.792969 226.320312 L 154.839844 236.648438 Z M 128.222656 222.25 "/>
<path style=" stroke:none;fill-rule:nonzero;fill:rgb(39.99939%,39.99939%,39.99939%);fill-opacity:0.3;" d="M 118.363281 228.53125 L 125.757812 223.234375 L 152.492188 237.738281 L 143.417969 243.730469 Z M 118.363281 228.53125 "/>
<path style=" stroke:none;fill-rule:nonzero;fill:rgb(39.99939%,39.99939%,39.99939%);fill-opacity:0.3;" d="M 110.96875 208.050781 L 133.886719 210.613281 L 132.914062 212.34375 L 130.722656 216.097656 L 127.175781 219.28125 L 116.152344 226.910156 L 111.835938 224.816406 L 108.410156 222.652344 Z M 110.96875 208.050781 "/>
<path style=" stroke:none;fill-rule:nonzero;fill:rgb(39.99939%,39.99939%,39.99939%);fill-opacity:0.3;" d="M 124.078125 235.933594 L 140.820312 246.132812 L 128.109375 254.382812 L 117.335938 246.148438 Z M 124.078125 235.933594 "/>
<path style=" stroke:none;fill-rule:nonzero;fill:rgb(39.99939%,39.99939%,39.99939%);fill-opacity:0.3;" d="M 115.507812 229.785156 L 122.519531 234.824219 L 116.039062 245.285156 L 107.988281 239.753906 Z M 115.507812 229.785156 "/>
<path style=" stroke:none;fill-rule:nonzero;fill:rgb(39.99939%,39.99939%,39.99939%);fill-opacity:0.3;" d="M 99.167969 215.488281 L 107.332031 216.265625 L 106.5625 221.203125 L 99.042969 216.421875 Z M 99.167969 215.488281 "/>
<path style=" stroke:none;fill-rule:nonzero;fill:rgb(39.99939%,39.99939%,39.99939%);fill-opacity:0.3;" d="M 105.421875 51.429688 L 256.359375 69.675781 L 257.050781 71.144531 L 250.886719 83.347656 L 250.667969 83.289062 L 247.8125 82.332031 L 247.460938 83.203125 L 247.117188 84.050781 L 249.441406 85.550781 L 249.675781 85.746094 L 248.480469 88.113281 L 241.304688 101.792969 L 100.851562 87.015625 Z M 105.421875 51.429688 "/>
<path style="fill-rule:nonzero;fill:rgb(39.99939%,39.99939%,39.99939%);fill-opacity:1;stroke-width:0.03;stroke-linecap:square;stroke-linejoin:miter;stroke:rgb(39.99939%,39.99939%,39.99939%);stroke-opacity:1;stroke-miterlimit:3.239307;" d="M 159.148438 207.449219 L 184.761719 210.203125 L 183.132812 218.988281 L 157.992188 216.070312 Z M 159.148438 207.449219 " transform="matrix(1,0,0,1,-74,-13)"/>
<path style="fill-rule:nonzero;fill:rgb(39.99939%,39.99939%,39.99939%);fill-opacity:1;stroke-width:0.03;stroke-linecap:square;stroke-linejoin:miter;stroke:rgb(39.99939%,39.99939%,39.99939%);stroke-opacity:1;stroke-miterlimit:3.239307;" d="M 160.300781 198.09375 L 186.242188 200.546875 L 184.867188 208.351562 L 159.339844 205.429688 Z M 160.300781 198.09375 " transform="matrix(1,0,0,1,-74,-13)"/>
<path style="fill-rule:nonzero;fill:rgb(39.99939%,39.99939%,39.99939%);fill-opacity:1;stroke-width:0.03;stroke-linecap:square;stroke-linejoin:miter;stroke:rgb(39.99939%,39.99939%,39.99939%);stroke-opacity:1;stroke-miterlimit:3.239307;" d="M 192.671875 176.023438 L 223.613281 180.078125 L 223.148438 182.476562 L 192.230469 178.609375 Z M 192.671875 176.023438 " transform="matrix(1,0,0,1,-74,-13)"/>
<path style="fill-rule:nonzero;fill:rgb(39.99939%,39.99939%,39.99939%);fill-opacity:1;stroke-width:0.03;stroke-linecap:square;stroke-linejoin:miter;stroke:rgb(39.99939%,39.99939%,39.99939%);stroke-opacity:1;stroke-miterlimit:3.239307;" d="M 225.082031 172.503906 L 223.984375 178.574219 L 192.890625 174.738281 L 193.914062 168.769531 Z M 225.082031 172.503906 " transform="matrix(1,0,0,1,-74,-13)"/>
<path style="fill-rule:nonzero;fill:rgb(39.99939%,39.99939%,39.99939%);fill-opacity:1;stroke-width:0.03;stroke-linecap:square;stroke-linejoin:miter;stroke:rgb(39.99939%,39.99939%,39.99939%);stroke-opacity:1;stroke-miterlimit:3.239307;" d="M 222.730469 183.625 L 220.644531 188.988281 L 190.984375 185.890625 L 192.007812 179.894531 Z M 222.730469 183.625 " transform="matrix(1,0,0,1,-74,-13)"/>
<path style="fill-rule:nonzero;fill:rgb(39.99939%,39.99939%,39.99939%);fill-opacity:1;stroke-width:0.03;stroke-linecap:square;stroke-linejoin:miter;stroke:rgb(39.99939%,39.99939%,39.99939%);stroke-opacity:1;stroke-miterlimit:3.239307;" d="M 219.976562 190.707031 L 215.832031 201.367188 L 188.746094 198.980469 L 190.558594 188.371094 Z M 219.976562 190.707031 " transform="matrix(1,0,0,1,-74,-13)"/>
<path style="fill-rule:nonzero;fill:rgb(39.99939%,39.99939%,39.99939%);fill-opacity:1;stroke-width:0.03;stroke-linecap:square;stroke-linejoin:miter;stroke:rgb(39.99939%,39.99939%,39.99939%);stroke-opacity:1;stroke-miterlimit:3.239307;" d="M 215.203125 202.976562 L 212.496094 210.828125 L 187.269531 208.640625 L 188.453125 200.683594 Z M 215.203125 202.976562 " transform="matrix(1,0,0,1,-74,-13)"/>
<path style="fill-rule:nonzero;fill:rgb(39.99939%,39.99939%,39.99939%);fill-opacity:1;stroke-width:0.03;stroke-linecap:square;stroke-linejoin:miter;stroke:rgb(39.99939%,39.99939%,39.99939%);stroke-opacity:1;stroke-miterlimit:3.239307;" d="M 211.917969 212.546875 L 209.132812 220.816406 L 185.378906 218.648438 L 186.847656 210.0625 Z M 211.917969 212.546875 " transform="matrix(1,0,0,1,-74,-13)"/>
<path style="fill-rule:nonzero;fill:rgb(39.99939%,39.99939%,39.99939%);fill-opacity:1;stroke-width:0.03;stroke-linecap:square;stroke-linejoin:miter;stroke:rgb(39.99939%,39.99939%,39.99939%);stroke-opacity:1;stroke-miterlimit:3.239307;" d="M 163.847656 173.0625 L 190.453125 175.9375 L 190.015625 178.496094 L 163.488281 175.589844 Z M 163.847656 173.0625 " transform="matrix(1,0,0,1,-74,-13)"/>
<path style="fill-rule:nonzero;fill:rgb(39.99939%,39.99939%,39.99939%);fill-opacity:1;stroke-width:0.03;stroke-linecap:square;stroke-linejoin:miter;stroke:rgb(39.99939%,39.99939%,39.99939%);stroke-opacity:1;stroke-miterlimit:3.239307;" d="M 165 164.964844 L 191.769531 168.230469 L 190.632812 174.882812 L 164.039062 171.71875 Z M 165 164.964844 " transform="matrix(1,0,0,1,-74,-13)"/>
<path style="fill-rule:nonzero;fill:rgb(39.99939%,39.99939%,39.99939%);fill-opacity:1;stroke-width:0.03;stroke-linecap:square;stroke-linejoin:miter;stroke:rgb(39.99939%,39.99939%,39.99939%);stroke-opacity:1;stroke-miterlimit:3.239307;" d="M 163.265625 177.144531 L 189.796875 179.761719 L 188.832031 185.410156 L 162.449219 182.902344 Z M 163.265625 177.144531 " transform="matrix(1,0,0,1,-74,-13)"/>
<path style="fill-rule:nonzero;fill:rgb(39.99939%,39.99939%,39.99939%);fill-opacity:1;stroke-width:0.03;stroke-linecap:square;stroke-linejoin:miter;stroke:rgb(39.99939%,39.99939%,39.99939%);stroke-opacity:1;stroke-miterlimit:3.239307;" d="M 162.105469 185.3125 L 188.367188 188.128906 L 186.550781 198.738281 L 160.550781 196.269531 Z M 162.105469 185.3125 " transform="matrix(1,0,0,1,-74,-13)"/>
<path style="fill-rule:nonzero;fill:rgb(39.99939%,39.99939%,39.99939%);fill-opacity:1;stroke-width:0.03;stroke-linecap:square;stroke-linejoin:miter;stroke:rgb(39.99939%,39.99939%,39.99939%);stroke-opacity:1;stroke-miterlimit:3.239307;" d="M 225.664062 180.160156 L 276.898438 185.800781 L 275.824219 187.800781 L 225.21875 182.464844 Z M 225.664062 180.160156 " transform="matrix(1,0,0,1,-74,-13)"/>
<path style="fill-rule:nonzero;fill:rgb(39.99939%,39.99939%,39.99939%);fill-opacity:1;stroke-width:0.03;stroke-linecap:square;stroke-linejoin:miter;stroke:rgb(39.99939%,39.99939%,39.99939%);stroke-opacity:1;stroke-miterlimit:3.239307;" d="M 227.226562 172.121094 L 280.898438 178.363281 L 277.519531 184.648438 L 225.9375 178.765625 Z M 227.226562 172.121094 " transform="matrix(1,0,0,1,-74,-13)"/>
<path style="fill-rule:nonzero;fill:rgb(39.99939%,39.99939%,39.99939%);fill-opacity:1;stroke-width:0.03;stroke-linecap:square;stroke-linejoin:miter;stroke:rgb(39.99939%,39.99939%,39.99939%);stroke-opacity:1;stroke-miterlimit:3.239307;" d="M 224.945312 183.492188 L 275.042969 189.257812 L 272.226562 194.621094 L 222.75 189.140625 Z M 224.945312 183.492188 " transform="matrix(1,0,0,1,-74,-13)"/>
<path style="fill-rule:nonzero;fill:rgb(39.99939%,39.99939%,39.99939%);fill-opacity:1;stroke-width:0.03;stroke-linecap:square;stroke-linejoin:miter;stroke:rgb(39.99939%,39.99939%,39.99939%);stroke-opacity:1;stroke-miterlimit:3.239307;" d="M 222.113281 190.78125 L 271.136719 196.527344 L 264.382812 208.996094 L 217.773438 201.6875 Z M 222.113281 190.78125 " transform="matrix(1,0,0,1,-74,-13)"/>
<path style="fill-rule:nonzero;fill:rgb(39.99939%,39.99939%,39.99939%);fill-opacity:1;stroke-width:0.03;stroke-linecap:square;stroke-linejoin:miter;stroke:rgb(39.99939%,39.99939%,39.99939%);stroke-opacity:1;stroke-miterlimit:3.239307;" d="M 263.453125 210.824219 L 259.132812 218.945312 L 257.199219 217.480469 L 254.488281 216.566406 L 249.847656 215.652344 L 214.535156 211.121094 L 217.285156 203.496094 Z M 263.453125 210.824219 " transform="matrix(1,0,0,1,-74,-13)"/>
<path style="fill-rule:nonzero;fill:rgb(39.99939%,39.99939%,39.99939%);fill-opacity:1;stroke-width:0.03;stroke-linecap:square;stroke-linejoin:miter;stroke:rgb(39.99939%,39.99939%,39.99939%);stroke-opacity:1;stroke-miterlimit:3.239307;" d="M 226.707031 108.15625 L 234.96875 108.976562 L 231.339844 133.246094 L 223.785156 132.289062 Z M 226.707031 108.15625 " transform="matrix(1,0,0,1,-74,-13)"/>
<path style="fill-rule:nonzero;fill:rgb(39.99939%,39.99939%,39.99939%);fill-opacity:1;stroke-width:0.03;stroke-linecap:square;stroke-linejoin:miter;stroke:rgb(39.99939%,39.99939%,39.99939%);stroke-opacity:1;stroke-miterlimit:3.239307;" d="M 202.035156 138.953125 L 231.019531 142.261719 L 229.890625 147.882812 L 201.378906 144.144531 Z M 202.035156 138.953125 " transform="matrix(1,0,0,1,-74,-13)"/>
<path style="fill-rule:nonzero;fill:rgb(39.99939%,39.99939%,39.99939%);fill-opacity:1;stroke-width:0.03;stroke-linecap:square;stroke-linejoin:miter;stroke:rgb(39.99939%,39.99939%,39.99939%);stroke-opacity:1;stroke-miterlimit:3.239307;" d="M 195.800781 157.726562 L 227.347656 161.707031 L 225.5 170.34375 L 194.316406 166.539062 Z M 195.800781 157.726562 " transform="matrix(1,0,0,1,-74,-13)"/>
<path style="fill-rule:nonzero;fill:rgb(39.99939%,39.99939%,39.99939%);fill-opacity:1;stroke-width:0.03;stroke-linecap:square;stroke-linejoin:miter;stroke:rgb(39.99939%,39.99939%,39.99939%);stroke-opacity:1;stroke-miterlimit:3.239307;" d="M 197.792969 146.078125 L 229.398438 150.25 L 227.5625 159.71875 L 196.195312 155.859375 Z M 197.792969 146.078125 " transform="matrix(1,0,0,1,-74,-13)"/>
<path style="fill-rule:nonzero;fill:rgb(39.99939%,39.99939%,39.99939%);fill-opacity:1;stroke-width:0.03;stroke-linecap:square;stroke-linejoin:miter;stroke:rgb(39.99939%,39.99939%,39.99939%);stroke-opacity:1;stroke-miterlimit:3.239307;" d="M 168.199219 142.449219 L 195.589844 145.914062 L 193.921875 155.660156 L 166.792969 152.332031 Z M 168.199219 142.449219 " transform="matrix(1,0,0,1,-74,-13)"/>
<path style="fill-rule:nonzero;fill:rgb(39.99939%,39.99939%,39.99939%);fill-opacity:1;stroke-width:0.03;stroke-linecap:square;stroke-linejoin:miter;stroke:rgb(39.99939%,39.99939%,39.99939%);stroke-opacity:1;stroke-miterlimit:3.239307;" d="M 166.570312 153.914062 L 193.601562 157.367188 L 192.023438 166.25 L 165.332031 163.265625 Z M 166.570312 153.914062 " transform="matrix(1,0,0,1,-74,-13)"/>
<path style="fill-rule:nonzero;fill:rgb(39.99939%,39.99939%,39.99939%);fill-opacity:1;stroke-width:0.03;stroke-linecap:square;stroke-linejoin:miter;stroke:rgb(39.99939%,39.99939%,39.99939%);stroke-opacity:1;stroke-miterlimit:3.239307;" d="M 195.832031 105.085938 L 205.5625 106.050781 L 201.746094 129.492188 L 193.566406 128.457031 Z M 195.832031 105.085938 " transform="matrix(1,0,0,1,-74,-13)"/>
<path style="fill-rule:nonzero;fill:rgb(39.99939%,39.99939%,39.99939%);fill-opacity:1;stroke-width:0.03;stroke-linecap:square;stroke-linejoin:miter;stroke:rgb(39.99939%,39.99939%,39.99939%);stroke-opacity:1;stroke-miterlimit:3.239307;" d="M 213.53125 106.84375 L 221.96875 107.683594 L 212.875 130.90625 L 203.492188 129.714844 Z M 213.53125 106.84375 " transform="matrix(1,0,0,1,-74,-13)"/>
<path style="fill-rule:nonzero;fill:rgb(39.99939%,39.99939%,39.99939%);fill-opacity:1;stroke-width:0.03;stroke-linecap:square;stroke-linejoin:miter;stroke:rgb(39.99939%,39.99939%,39.99939%);stroke-opacity:1;stroke-miterlimit:3.239307;" d="M 224.300781 111.027344 L 221.695312 132.039062 L 215.820312 131.484375 Z M 224.300781 111.027344 " transform="matrix(1,0,0,1,-74,-13)"/>
<path style="fill-rule:nonzero;fill:rgb(39.99939%,39.99939%,39.99939%);fill-opacity:1;stroke-width:0.03;stroke-linecap:square;stroke-linejoin:miter;stroke:rgb(39.99939%,39.99939%,39.99939%);stroke-opacity:1;stroke-miterlimit:3.239307;" d="M 206.835938 106.261719 L 211.585938 106.761719 L 203.964844 122.6875 Z M 206.835938 106.261719 " transform="matrix(1,0,0,1,-74,-13)"/>
<path style="fill-rule:nonzero;fill:rgb(39.99939%,39.99939%,39.99939%);fill-opacity:1;stroke-width:0.03;stroke-linecap:square;stroke-linejoin:miter;stroke:rgb(39.99939%,39.99939%,39.99939%);stroke-opacity:1;stroke-miterlimit:3.239307;" d="M 173.988281 102.914062 L 183.746094 103.882812 L 180.597656 126.808594 L 170.929688 125.585938 Z M 173.988281 102.914062 " transform="matrix(1,0,0,1,-74,-13)"/>
<path style="fill-rule:nonzero;fill:rgb(39.99939%,39.99939%,39.99939%);fill-opacity:1;stroke-width:0.03;stroke-linecap:square;stroke-linejoin:miter;stroke:rgb(39.99939%,39.99939%,39.99939%);stroke-opacity:1;stroke-miterlimit:3.239307;" d="M 185.4375 104.050781 L 194.289062 104.933594 L 191.703125 128.21875 L 182.203125 127.015625 Z M 185.4375 104.050781 " transform="matrix(1,0,0,1,-74,-13)"/>
<path style="fill-rule:nonzero;fill:rgb(39.99939%,39.99939%,39.99939%);fill-opacity:1;stroke-width:0.03;stroke-linecap:square;stroke-linejoin:miter;stroke:rgb(39.99939%,39.99939%,39.99939%);stroke-opacity:1;stroke-miterlimit:3.239307;" d="M 169.855469 131.164062 L 178.570312 132.179688 L 178.570312 135.652344 L 200.984375 138.722656 L 200.085938 143.96875 L 168.59375 140.042969 Z M 169.855469 131.164062 " transform="matrix(1,0,0,1,-74,-13)"/>
<path style="fill-rule:nonzero;fill:rgb(39.99939%,39.99939%,39.99939%);fill-opacity:1;stroke-width:0.03;stroke-linecap:square;stroke-linejoin:miter;stroke:rgb(39.99939%,39.99939%,39.99939%);stroke-opacity:1;stroke-miterlimit:3.239307;" d="M 291.90625 157.875 L 287.0625 166.890625 L 270.335938 164.976562 L 274.46875 155.820312 Z M 291.90625 157.875 " transform="matrix(1,0,0,1,-74,-13)"/>
<path style="fill-rule:nonzero;fill:rgb(39.99939%,39.99939%,39.99939%);fill-opacity:1;stroke-width:0.03;stroke-linecap:square;stroke-linejoin:miter;stroke:rgb(39.99939%,39.99939%,39.99939%);stroke-opacity:1;stroke-miterlimit:3.239307;" d="M 231.410156 150.546875 L 272.914062 155.332031 L 268.613281 164.644531 L 229.617188 159.796875 Z M 231.410156 150.546875 " transform="matrix(1,0,0,1,-74,-13)"/>
<path style="fill-rule:nonzero;fill:rgb(39.99939%,39.99939%,39.99939%);fill-opacity:1;stroke-width:0.03;stroke-linecap:square;stroke-linejoin:miter;stroke:rgb(39.99939%,39.99939%,39.99939%);stroke-opacity:1;stroke-miterlimit:3.239307;" d="M 232.886719 143.101562 L 295.035156 151.828125 L 292.5625 156.425781 L 231.90625 148.160156 Z M 232.886719 143.101562 " transform="matrix(1,0,0,1,-74,-13)"/>
<path style="fill-rule:nonzero;fill:rgb(39.99939%,39.99939%,39.99939%);fill-opacity:1;stroke-width:0.03;stroke-linecap:square;stroke-linejoin:miter;stroke:rgb(39.99939%,39.99939%,39.99939%);stroke-opacity:1;stroke-miterlimit:3.239307;" d="M 229.351562 161.820312 L 286.027344 168.816406 L 281.800781 176.679688 L 227.550781 170.445312 Z M 229.351562 161.820312 " transform="matrix(1,0,0,1,-74,-13)"/>
<path style="fill-rule:nonzero;fill:rgb(39.99939%,39.99939%,39.99939%);fill-opacity:1;stroke-width:0.03;stroke-linecap:square;stroke-linejoin:miter;stroke:rgb(39.99939%,39.99939%,39.99939%);stroke-opacity:1;stroke-miterlimit:3.239307;" d="M 260.726562 111.535156 L 269.730469 112.429688 L 266.085938 137.652344 L 257.496094 136.566406 Z M 260.726562 111.535156 " transform="matrix(1,0,0,1,-74,-13)"/>
<path style="fill-rule:nonzero;fill:rgb(39.99939%,39.99939%,39.99939%);fill-opacity:1;stroke-width:0.03;stroke-linecap:square;stroke-linejoin:miter;stroke:rgb(39.99939%,39.99939%,39.99939%);stroke-opacity:1;stroke-miterlimit:3.239307;" d="M 271.28125 112.585938 L 280.871094 113.539062 L 276.886719 139.023438 L 267.582031 137.84375 Z M 271.28125 112.585938 " transform="matrix(1,0,0,1,-74,-13)"/>
<path style="fill-rule:nonzero;fill:rgb(39.99939%,39.99939%,39.99939%);fill-opacity:1;stroke-width:0.03;stroke-linecap:square;stroke-linejoin:miter;stroke:rgb(39.99939%,39.99939%,39.99939%);stroke-opacity:1;stroke-miterlimit:3.239307;" d="M 282.242188 113.675781 L 290.273438 114.472656 L 283.714844 129.730469 L 281.457031 139.605469 L 278.046875 139.171875 Z M 282.242188 113.675781 " transform="matrix(1,0,0,1,-74,-13)"/>
<path style="fill-rule:nonzero;fill:rgb(39.99939%,39.99939%,39.99939%);fill-opacity:1;stroke-width:0.03;stroke-linecap:square;stroke-linejoin:miter;stroke:rgb(39.99939%,39.99939%,39.99939%);stroke-opacity:1;stroke-miterlimit:3.239307;" d="M 236.507812 109.128906 L 245.773438 110.050781 L 242.953125 134.71875 L 232.898438 133.445312 Z M 236.507812 109.128906 " transform="matrix(1,0,0,1,-74,-13)"/>
<path style="fill-rule:nonzero;fill:rgb(39.99939%,39.99939%,39.99939%);fill-opacity:1;stroke-width:0.03;stroke-linecap:square;stroke-linejoin:miter;stroke:rgb(39.99939%,39.99939%,39.99939%);stroke-opacity:1;stroke-miterlimit:3.239307;" d="M 247.734375 110.246094 L 259.273438 111.390625 L 256.109375 136.390625 L 244.753906 134.949219 Z M 247.734375 110.246094 " transform="matrix(1,0,0,1,-74,-13)"/>
<path style="fill-rule:nonzero;fill:rgb(39.99939%,39.99939%,39.99939%);fill-opacity:1;stroke-width:0.03;stroke-linecap:square;stroke-linejoin:miter;stroke:rgb(39.99939%,39.99939%,39.99939%);stroke-opacity:1;stroke-miterlimit:3.239307;" d="M 291.210938 114.566406 L 298.734375 115.3125 L 292.589844 132.808594 L 284.558594 131.117188 Z M 291.210938 114.566406 " transform="matrix(1,0,0,1,-74,-13)"/>
<path style="fill-rule:nonzero;fill:rgb(39.99939%,39.99939%,39.99939%);fill-opacity:1;stroke-width:0.03;stroke-linecap:square;stroke-linejoin:miter;stroke:rgb(39.99939%,39.99939%,39.99939%);stroke-opacity:1;stroke-miterlimit:3.239307;" d="M 299.890625 115.429688 L 309.214844 116.355469 L 299.164062 134.109375 L 293.890625 132.960938 Z M 299.890625 115.429688 " transform="matrix(1,0,0,1,-74,-13)"/>
<path style="fill-rule:nonzero;fill:rgb(39.99939%,39.99939%,39.99939%);fill-opacity:1;stroke-width:0.03;stroke-linecap:square;stroke-linejoin:miter;stroke:rgb(39.99939%,39.99939%,39.99939%);stroke-opacity:1;stroke-miterlimit:3.239307;" d="M 284.152344 131.964844 L 298.921875 135.34375 L 297.527344 141.644531 L 282.304688 139.710938 Z M 284.152344 131.964844 " transform="matrix(1,0,0,1,-74,-13)"/>
<path style="fill-rule:nonzero;fill:rgb(39.99939%,39.99939%,39.99939%);fill-opacity:1;stroke-width:0.03;stroke-linecap:square;stroke-linejoin:miter;stroke:rgb(39.99939%,39.99939%,39.99939%);stroke-opacity:1;stroke-miterlimit:3.239307;" d="M 213.960938 212.824219 L 250.042969 217.667969 L 255.652344 219.132812 L 258.167969 220.78125 L 255.335938 225.9375 L 211.214844 220.980469 Z M 213.960938 212.824219 " transform="matrix(1,0,0,1,-74,-13)"/>
<path style="fill-rule:nonzero;fill:rgb(39.99939%,39.99939%,39.99939%);fill-opacity:1;stroke-width:0.03;stroke-linecap:square;stroke-linejoin:miter;stroke:rgb(39.99939%,39.99939%,39.99939%);stroke-opacity:1;stroke-miterlimit:3.239307;" d="M 210.214844 223.359375 L 252.242188 227.582031 L 253.472656 227.988281 L 254.640625 228.671875 L 255.628906 229.609375 L 256.171875 230.460938 L 255.8125 231.90625 L 248.984375 237.277344 L 205.867188 231.265625 L 206.632812 230.359375 L 207.726562 228.28125 L 208.992188 225.457031 Z M 210.214844 223.359375 " transform="matrix(1,0,0,1,-74,-13)"/>
<path style="fill-rule:nonzero;fill:rgb(39.99939%,39.99939%,39.99939%);fill-opacity:1;stroke-width:0.03;stroke-linecap:square;stroke-linejoin:miter;stroke:rgb(39.99939%,39.99939%,39.99939%);stroke-opacity:1;stroke-miterlimit:3.239307;" d="M 150.15625 262.910156 L 175.882812 284.960938 L 154.871094 301.472656 L 136.476562 318.324219 L 131.199219 321.570312 L 129.144531 321.480469 L 127.191406 320.738281 L 126.113281 319.8125 L 125.429688 318.792969 L 131.386719 310.632812 L 140.675781 296.667969 L 142.628906 292.308594 L 144.871094 286.5625 L 147.019531 278.679688 L 149.457031 268.386719 Z M 150.15625 262.910156 " transform="matrix(1,0,0,1,-74,-13)"/>
<path style="fill-rule:nonzero;fill:rgb(39.99939%,39.99939%,39.99939%);fill-opacity:1;stroke-width:0.03;stroke-linecap:square;stroke-linejoin:miter;stroke:rgb(39.99939%,39.99939%,39.99939%);stroke-opacity:1;stroke-miterlimit:3.239307;" d="M 157.1875 217.992188 L 182.789062 220.734375 L 181.84375 227.203125 L 163.933594 226.0625 L 156.542969 224.996094 Z M 157.1875 217.992188 " transform="matrix(1,0,0,1,-74,-13)"/>
<path style="fill-rule:nonzero;fill:rgb(39.99939%,39.99939%,39.99939%);fill-opacity:1;stroke-width:0.03;stroke-linecap:square;stroke-linejoin:miter;stroke:rgb(39.99939%,39.99939%,39.99939%);stroke-opacity:1;stroke-miterlimit:3.239307;" d="M 156.351562 226.816406 L 168 228.375 L 188.207031 241.886719 L 180.6875 251.734375 L 175.785156 248.410156 L 155.046875 234.992188 Z M 156.351562 226.816406 " transform="matrix(1,0,0,1,-74,-13)"/>
<path style="fill-rule:nonzero;fill:rgb(39.99939%,39.99939%,39.99939%);fill-opacity:1;stroke-width:0.03;stroke-linecap:square;stroke-linejoin:miter;stroke:rgb(39.99939%,39.99939%,39.99939%);stroke-opacity:1;stroke-miterlimit:3.239307;" d="M 154.71875 237.894531 L 199.765625 268.519531 L 177.847656 283.171875 L 151.25 261.371094 Z M 154.71875 237.894531 " transform="matrix(1,0,0,1,-74,-13)"/>
<path style="fill-rule:nonzero;fill:rgb(39.99939%,39.99939%,39.99939%);fill-opacity:1;stroke-width:0.03;stroke-linecap:square;stroke-linejoin:miter;stroke:rgb(39.99939%,39.99939%,39.99939%);stroke-opacity:1;stroke-miterlimit:3.239307;" d="M 202.222656 235.25 L 203.789062 233.554688 L 245.792969 239.320312 L 228.839844 249.648438 Z M 202.222656 235.25 " transform="matrix(1,0,0,1,-74,-13)"/>
<path style="fill-rule:nonzero;fill:rgb(39.99939%,39.99939%,39.99939%);fill-opacity:1;stroke-width:0.03;stroke-linecap:square;stroke-linejoin:miter;stroke:rgb(39.99939%,39.99939%,39.99939%);stroke-opacity:1;stroke-miterlimit:3.239307;" d="M 192.363281 241.53125 L 199.757812 236.234375 L 226.492188 250.738281 L 217.417969 256.730469 Z M 192.363281 241.53125 " transform="matrix(1,0,0,1,-74,-13)"/>
<path style="fill-rule:nonzero;fill:rgb(39.99939%,39.99939%,39.99939%);fill-opacity:1;stroke-width:0.03;stroke-linecap:square;stroke-linejoin:miter;stroke:rgb(39.99939%,39.99939%,39.99939%);stroke-opacity:1;stroke-miterlimit:3.239307;" d="M 184.96875 221.050781 L 207.886719 223.613281 L 206.914062 225.34375 L 204.722656 229.097656 L 201.175781 232.28125 L 190.152344 239.910156 L 185.835938 237.816406 L 182.410156 235.652344 Z M 184.96875 221.050781 " transform="matrix(1,0,0,1,-74,-13)"/>
<path style="fill-rule:nonzero;fill:rgb(39.99939%,39.99939%,39.99939%);fill-opacity:1;stroke-width:0.03;stroke-linecap:square;stroke-linejoin:miter;stroke:rgb(39.99939%,39.99939%,39.99939%);stroke-opacity:1;stroke-miterlimit:3.239307;" d="M 198.078125 248.933594 L 214.820312 259.132812 L 202.109375 267.382812 L 191.335938 259.148438 Z M 198.078125 248.933594 " transform="matrix(1,0,0,1,-74,-13)"/>
<path style="fill-rule:nonzero;fill:rgb(39.99939%,39.99939%,39.99939%);fill-opacity:1;stroke-width:0.03;stroke-linecap:square;stroke-linejoin:miter;stroke:rgb(39.99939%,39.99939%,39.99939%);stroke-opacity:1;stroke-miterlimit:3.239307;" d="M 189.507812 242.785156 L 196.519531 247.824219 L 190.039062 258.285156 L 181.988281 252.753906 Z M 189.507812 242.785156 " transform="matrix(1,0,0,1,-74,-13)"/>
<path style="fill-rule:nonzero;fill:rgb(39.99939%,39.99939%,39.99939%);fill-opacity:1;stroke-width:0.03;stroke-linecap:square;stroke-linejoin:miter;stroke:rgb(39.99939%,39.99939%,39.99939%);stroke-opacity:1;stroke-miterlimit:3.239307;" d="M 173.167969 228.488281 L 181.332031 229.265625 L 180.5625 234.203125 L 173.042969 229.421875 Z M 173.167969 228.488281 " transform="matrix(1,0,0,1,-74,-13)"/>
<path style="fill-rule:nonzero;fill:rgb(39.99939%,39.99939%,39.99939%);fill-opacity:1;stroke-width:0.03;stroke-linecap:square;stroke-linejoin:miter;stroke:rgb(39.99939%,39.99939%,39.99939%);stroke-opacity:1;stroke-miterlimit:3.239307;" d="M 179.421875 64.429688 L 330.359375 82.675781 L 331.050781 84.144531 L 324.886719 96.347656 L 324.667969 96.289062 L 321.8125 95.332031 L 321.460938 96.203125 L 321.117188 97.050781 L 323.441406 98.550781 L 323.675781 98.746094 L 322.480469 101.113281 L 315.304688 114.792969 L 174.851562 100.015625 Z M 179.421875 64.429688 " transform="matrix(1,0,0,1,-74,-13)"/>
<path style=" stroke:none;fill-rule:evenodd;fill:rgb(85.096741%,85.096741%,81.959534%);fill-opacity:0.7;" d="M 197.75 197 C 197.75 193.617188 196.40625 190.375 194.015625 187.984375 C 191.625 185.59375 188.382812 184.25 185 184.25 C 181.617188 184.25 178.375 185.59375 175.984375 187.984375 C 173.59375 190.375 172.25 193.617188 172.25 197 C 172.25 200.382812 173.59375 203.625 175.984375 206.015625 C 178.375 208.40625 181.617188 209.75 185 209.75 C 188.382812 209.75 191.625 208.40625 194.015625 206.015625 C 196.40625 203.625 197.75 200.382812 197.75 197 Z M 197.75 197 "/>
<path style=" stroke:none;fill-rule:evenodd;fill:rgb(85.096741%,85.096741%,81.959534%);fill-opacity:0.7;" d="M 189.75 131 C 189.75 127.617188 188.40625 124.375 186.015625 121.984375 C 183.625 119.59375 180.382812 118.25 177 118.25 C 173.617188 118.25 170.375 119.59375 167.984375 121.984375 C 165.59375 124.375 164.25 127.617188 164.25 131 C 164.25 134.382812 165.59375 137.625 167.984375 140.015625 C 170.375 142.40625 173.617188 143.75 177 143.75 C 180.382812 143.75 183.625 142.40625 186.015625 140.015625 C 188.40625 137.625 189.75 134.382812 189.75 131 Z M 189.75 131 "/>
<path style=" stroke:none;fill-rule:evenodd;fill:rgb(85.096741%,85.096741%,81.959534%);fill-opacity:0.7;" d="M 47.75 140 C 47.75 136.617188 46.40625 133.375 44.015625 130.984375 C 41.625 128.59375 38.382812 127.25 35 127.25 C 31.617188 127.25 28.375 128.59375 25.984375 130.984375 C 23.59375 133.375 22.25 136.617188 22.25 140 C 22.25 143.382812 23.59375 146.625 25.984375 149.015625 C 28.375 151.40625 31.617188 152.75 35 152.75 C 38.382812 152.75 41.625 151.40625 44.015625 149.015625 C 46.40625 146.625 47.75 143.382812 47.75 140 Z M 47.75 140 "/>
<path style=" stroke:none;fill-rule:evenodd;fill:rgb(85.096741%,85.096741%,81.959534%);fill-opacity:0.7;" d="M 313.75 74 C 313.75 70.617188 312.40625 67.375 310.015625 64.984375 C 307.625 62.59375 304.382812 61.25 301 61.25 C 297.617188 61.25 294.375 62.59375 291.984375 64.984375 C 289.59375 67.375 288.25 70.617188 288.25 74 C 288.25 77.382812 289.59375 80.625 291.984375 83.015625 C 294.375 85.40625 297.617188 86.75 301 86.75 C 304.382812 86.75 307.625 85.40625 310.015625 83.015625 C 312.40625 80.625 313.75 77.382812 313.75 74 Z M 313.75 74 "/>
<path style="fill-rule:nonzero;fill:rgb(99.998474%,99.998474%,30.587769%);fill-opacity:0.8;stroke-width:0.288;stroke-linecap:square;stroke-linejoin:miter;stroke:rgb(0%,0%,0%);stroke-opacity:0.8;stroke-miterlimit:3.25;" d="M 274.808594 33.355469 L 247.203125 81.171875 L 302.414062 81.171875 Z M 274.808594 33.355469 " transform="matrix(1,0,0,1,-74,-13)"/>
</g>
</svg>
