<?xml version="1.0" encoding="UTF-8"?>
<svg xmlns="http://www.w3.org/2000/svg" xmlns:xlink="http://www.w3.org/1999/xlink" width="361pt" height="361pt" viewBox="0 0 361 361" version="1.1">
<defs>
<clipPath id="clip1">
  <path d="M 346 0 L 360 0 L 360 24 L 346 24 Z M 346 0 "/>
</clipPath>
<clipPath id="clip2">
  <path d="M 350 77 L 360 77 L 360 127 L 350 127 Z M 350 77 "/>
</clipPath>
<clipPath id="clip3">
  <path d="M 342 125 L 360 125 L 360 176 L 342 176 Z M 342 125 "/>
</clipPath>
<clipPath id="clip4">
  <path d="M 317 223 L 360 223 L 360 271 L 317 271 Z M 317 223 "/>
</clipPath>
<clipPath id="clip5">
  <path d="M 334 172 L 360 172 L 360 229 L 334 229 Z M 334 172 "/>
</clipPath>
<clipPath id="clip6">
  <path d="M 337 23 L 360 23 L 360 81 L 337 81 Z M 337 23 "/>
</clipPath>
<clipPath id="clip7">
  <path d="M 0 347 L 19 347 L 19 360 L 0 360 Z M 0 347 "/>
</clipPath>
<clipPath id="clip8">
  <path d="M 259 320 L 296 320 L 296 360 L 259 360 Z M 259 320 "/>
</clipPath>
<clipPath id="clip9">
  <path d="M 233 317 L 270 317 L 270 360 L 233 360 Z M 233 317 "/>
</clipPath>
<clipPath id="clip10">
  <path d="M 180 308 L 244 308 L 244 360 L 180 360 Z M 180 308 "/>
</clipPath>
<clipPath id="clip11">
  <path d="M 287 324 L 350 324 L 350 360 L 287 360 Z M 287 324 "/>
</clipPath>
<clipPath id="clip12">
  <path d="M 353 298 L 360 298 L 360 332 L 353 332 Z M 353 298 "/>
</clipPath>
<clipPath id="clip13">
  <path d="M 344 331 L 360 331 L 360 360 L 344 360 Z M 344 331 "/>
</clipPath>
<clipPath id="clip14">
  <path d="M 166 303 L 191 303 L 191 360 L 166 360 Z M 166 303 "/>
</clipPath>
<clipPath id="clip15">
  <path d="M 130 295 L 171 295 L 171 360 L 130 360 Z M 130 295 "/>
</clipPath>
<clipPath id="clip16">
  <path d="M 72 276 L 145 276 L 145 360 L 72 360 Z M 72 276 "/>
</clipPath>
<clipPath id="clip17">
  <path d="M 21 261 L 130 261 L 130 360 L 21 360 Z M 21 261 "/>
</clipPath>
</defs>
<g id="surface714">
<path style="fill-rule:nonzero;fill:rgb(0%,0%,0%);fill-opacity:1;stroke-width:0.03;stroke-linecap:square;stroke-linejoin:miter;stroke:rgb(0%,0%,0%);stroke-opacity:1;stroke-miterlimit:10;" d="M 0 178 L 360 178 L 360 -182 L 0 -182 Z M 0 178 " transform="matrix(1,0,0,1,0,182)"/>
<g clip-path="url(#clip1)" clip-rule="nonzero">
<path style=" stroke:none;fill-rule:nonzero;fill:rgb(39.99939%,39.99939%,39.99939%);fill-opacity:0.3;" d="M 365.113281 -95.546875 L 418.519531 -82.347656 L 405.03125 -24.835938 L 404.785156 -12.847656 L 404.875 -1.691406 L 399.074219 21.25 L 385.445312 20.382812 L 359.910156 23.433594 L 348 22.605469 L 346.625 17.511719 L 355.710938 -49.269531 L 358.914062 -62.949219 L 361.75 -75.039062 Z M 365.113281 -95.546875 "/>
</g>
<path style=" stroke:none;fill-rule:nonzero;fill:rgb(39.99939%,39.99939%,39.99939%);fill-opacity:0.3;" d="M 318.855469 112.011719 L 317.746094 116.644531 L 317.246094 116.546875 Z M 318.855469 112.011719 "/>
<path style=" stroke:none;fill-rule:nonzero;fill:rgb(39.99939%,39.99939%,39.99939%);fill-opacity:0.3;" d="M 341.15625 75.328125 L 341.28125 74.726562 L 356.472656 77.421875 L 347.800781 122.90625 L 347.707031 122.886719 L 347.78125 122.457031 L 320.421875 117.160156 L 327.542969 88.773438 L 328.53125 88.460938 L 329.503906 88.097656 L 330.453125 87.6875 L 331.378906 87.234375 L 332.28125 86.730469 L 333.15625 86.183594 L 334 85.59375 L 334.808594 84.960938 L 335.585938 84.292969 L 336.324219 83.582031 L 337.023438 82.839844 L 337.679688 82.0625 L 338.292969 81.253906 L 338.863281 80.417969 L 339.386719 79.550781 L 339.863281 78.664062 L 340.289062 77.75 L 340.667969 76.820312 L 340.992188 75.871094 Z M 341.15625 75.328125 "/>
<path style=" stroke:none;fill-rule:nonzero;fill:rgb(39.99939%,39.99939%,39.99939%);fill-opacity:0.3;" d="M 329.410156 85.84375 L 329.402344 85.847656 L 329.171875 85.933594 L 328.941406 86.011719 L 328.703125 86.074219 L 328.464844 86.128906 L 328.222656 86.167969 L 328.015625 86.191406 L 328.082031 86.011719 Z M 329.410156 85.84375 "/>
<g clip-path="url(#clip2)" clip-rule="nonzero">
<path style=" stroke:none;fill-rule:nonzero;fill:rgb(39.99939%,39.99939%,39.99939%);fill-opacity:0.3;" d="M 358.757812 77.726562 L 388.847656 82.722656 L 380.800781 126.785156 L 350.757812 123.257812 Z M 358.757812 77.726562 "/>
</g>
<path style=" stroke:none;fill-rule:nonzero;fill:rgb(39.99939%,39.99939%,39.99939%);fill-opacity:0.3;" d="M 347.511719 125.101562 L 339.59375 169.765625 L 339.410156 169.734375 L 347.320312 125.0625 Z M 347.511719 125.101562 "/>
<g clip-path="url(#clip3)" clip-rule="nonzero">
<path style=" stroke:none;fill-rule:nonzero;fill:rgb(39.99939%,39.99939%,39.99939%);fill-opacity:0.3;" d="M 350.296875 125.671875 L 380.675781 129.496094 L 373.785156 175.46875 L 342.71875 170.34375 Z M 350.296875 125.671875 "/>
</g>
<g clip-path="url(#clip4)" clip-rule="nonzero">
<path style=" stroke:none;fill-rule:nonzero;fill:rgb(39.99939%,39.99939%,39.99939%);fill-opacity:0.3;" d="M 364.097656 231.976562 L 358.484375 270.117188 L 317.886719 224.429688 L 320.957031 223.246094 L 331.757812 224.226562 Z M 364.097656 231.976562 "/>
</g>
<path style=" stroke:none;fill-rule:nonzero;fill:rgb(39.99939%,39.99939%,39.99939%);fill-opacity:0.3;" d="M 307.042969 248.429688 L 307.71875 248.511719 L 305.027344 264.78125 Z M 307.042969 248.429688 "/>
<path style=" stroke:none;fill-rule:nonzero;fill:rgb(39.99939%,39.99939%,39.99939%);fill-opacity:0.3;" d="M 308.113281 244.867188 L 307.984375 246.429688 L 307.300781 246.339844 L 307.394531 245.589844 Z M 308.113281 244.867188 "/>
<path style=" stroke:none;fill-rule:nonzero;fill:rgb(39.99939%,39.99939%,39.99939%);fill-opacity:0.3;" d="M 305.140625 285.832031 L 311.28125 242.667969 L 352.660156 292.050781 Z M 305.140625 285.832031 "/>
<g clip-path="url(#clip5)" clip-rule="nonzero">
<path style=" stroke:none;fill-rule:nonzero;fill:rgb(39.99939%,39.99939%,39.99939%);fill-opacity:0.3;" d="M 342.324219 172.789062 L 373.382812 177.8125 L 364.65625 228.699219 L 334.898438 221.71875 Z M 342.324219 172.789062 "/>
</g>
<path style=" stroke:none;fill-rule:nonzero;fill:rgb(39.99939%,39.99939%,39.99939%);fill-opacity:0.3;" d="M 339.207031 172.203125 L 331.394531 220.785156 L 330.75 220.738281 L 338.996094 172.171875 Z M 339.207031 172.203125 "/>
<path style=" stroke:none;fill-rule:nonzero;fill:rgb(39.99939%,39.99939%,39.99939%);fill-opacity:0.3;" d="M 320.402344 219.96875 L 313.9375 219.484375 L 312.941406 218.210938 Z M 320.402344 219.96875 "/>
<g clip-path="url(#clip6)" clip-rule="nonzero">
<path style=" stroke:none;fill-rule:nonzero;fill:rgb(39.99939%,39.99939%,39.99939%);fill-opacity:0.3;" d="M 369.601562 24.847656 L 384.898438 23.222656 L 398.074219 24.074219 L 389.367188 80.570312 L 341.769531 72.785156 L 341.945312 71.585938 L 342.058594 70.382812 L 342.101562 69.175781 L 342.101562 68.820312 L 342.058594 67.613281 L 341.949219 66.414062 L 341.777344 65.21875 L 341.535156 64.035156 L 341.230469 62.867188 L 340.863281 61.71875 L 340.429688 60.585938 L 339.9375 59.480469 L 339.382812 58.398438 L 338.773438 57.347656 L 338.101562 56.332031 L 337.378906 55.347656 L 343.847656 25.113281 L 360.667969 26.316406 L 367.882812 25.335938 L 363.847656 58.640625 L 369.039062 59.238281 L 369.304688 56.628906 L 365.613281 56.332031 Z M 369.601562 24.847656 "/>
</g>
<path style=" stroke:none;fill-rule:nonzero;fill:rgb(39.99939%,39.99939%,39.99939%);fill-opacity:0.3;" d="M 348.269531 -8.921875 L 344.566406 18.019531 L 343.105469 18.855469 L 346.304688 3.265625 Z M 348.269531 -8.921875 "/>
<g clip-path="url(#clip7)" clip-rule="nonzero">
<path style=" stroke:none;fill-rule:nonzero;fill:rgb(39.99939%,39.99939%,39.99939%);fill-opacity:0.3;" d="M -10.601562 347.945312 L 18.03125 354.078125 L 9.824219 395.957031 L -21.480469 389.835938 L -19.355469 379.988281 L -18.480469 370.855469 L -16.21875 361.238281 L -12.121094 351.734375 Z M -10.601562 347.945312 "/>
</g>
<path style=" stroke:none;fill-rule:nonzero;fill:rgb(39.99939%,39.99939%,39.99939%);fill-opacity:0.3;" d="M 50.839844 215.308594 L 41.332031 257.175781 L 17.835938 253.625 L 25.445312 216.214844 L 26.957031 208.316406 Z M 50.839844 215.308594 "/>
<path style=" stroke:none;fill-rule:nonzero;fill:rgb(39.99939%,39.99939%,39.99939%);fill-opacity:0.3;" d="M 26.328125 216.578125 L 32.511719 217.820312 L 27.683594 243.707031 L 21.230469 242.230469 Z M 26.328125 216.578125 "/>
<path style=" stroke:none;fill-rule:nonzero;fill:rgb(39.99939%,39.99939%,39.99939%);fill-opacity:0.3;" d="M 34.601562 211.957031 L 49.183594 215.589844 L 48.109375 220.152344 L 33.523438 216.546875 Z M 34.601562 211.957031 "/>
<path style=" stroke:none;fill-rule:nonzero;fill:rgb(39.99939%,39.99939%,39.99939%);fill-opacity:0.3;" d="M 41.546875 219.71875 L 47.847656 221.035156 L 43.175781 242.171875 L 36.667969 241.203125 Z M 41.546875 219.71875 "/>
<path style=" stroke:none;fill-rule:nonzero;fill:rgb(39.99939%,39.99939%,39.99939%);fill-opacity:0.3;" d="M -20.367188 147.046875 L 12.417969 154.117188 L -0.324219 198.898438 L -11.710938 235.90625 L -15.210938 235.171875 L -16.222656 237.597656 L -18.996094 237.0625 L -22.742188 247.980469 L -49.585938 239.410156 L -34.082031 191.515625 Z M -20.367188 147.046875 "/>
<path style=" stroke:none;fill-rule:nonzero;fill:rgb(39.99939%,39.99939%,39.99939%);fill-opacity:0.3;" d="M 7.714844 150.609375 L -9.757812 147.351562 L -13.125 146.9375 L -13.640625 146.871094 L -15.539062 145.695312 Z M 7.714844 150.609375 "/>
<path style=" stroke:none;fill-rule:nonzero;fill:rgb(39.99939%,39.99939%,39.99939%);fill-opacity:0.3;" d="M -3.511719 222.246094 L -2.042969 216.347656 L 4.597656 217.585938 L 3.160156 223.542969 Z M -3.511719 222.246094 "/>
<path style=" stroke:none;fill-rule:nonzero;fill:rgb(39.99939%,39.99939%,39.99939%);fill-opacity:0.3;" d="M -5.921875 230.488281 L -4.449219 224.589844 L 2.191406 225.828125 L 0.746094 231.789062 Z M -5.921875 230.488281 "/>
<path style=" stroke:none;fill-rule:nonzero;fill:rgb(39.99939%,39.99939%,39.99939%);fill-opacity:0.3;" d="M 2.964844 240.292969 L 4.445312 234.390625 L 11.082031 235.628906 L 9.632812 241.597656 Z M 2.964844 240.292969 "/>
<path style=" stroke:none;fill-rule:nonzero;fill:rgb(39.99939%,39.99939%,39.99939%);fill-opacity:0.3;" d="M -6.230469 238.5625 L -4.75 232.660156 L 1.886719 233.902344 L 0.4375 239.867188 Z M -6.230469 238.5625 "/>
<path style=" stroke:none;fill-rule:nonzero;fill:rgb(39.99939%,39.99939%,39.99939%);fill-opacity:0.3;" d="M 24.933594 207.6875 L 15.542969 253.195312 L -12.035156 249.050781 L 1.105469 200.289062 Z M 24.933594 207.6875 "/>
<path style=" stroke:none;fill-rule:nonzero;fill:rgb(39.99939%,39.99939%,39.99939%);fill-opacity:0.3;" d="M 12.355469 187.902344 L 19.9375 188.429688 L 19.433594 194.207031 L 11.699219 193.566406 Z M 12.355469 187.902344 "/>
<path style=" stroke:none;fill-rule:nonzero;fill:rgb(39.99939%,39.99939%,39.99939%);fill-opacity:0.3;" d="M 15.089844 179.292969 L 22.679688 179.816406 L 22.195312 185.582031 L 14.453125 184.945312 Z M 15.089844 179.292969 "/>
<path style=" stroke:none;fill-rule:nonzero;fill:rgb(39.99939%,39.99939%,39.99939%);fill-opacity:0.3;" d="M 25.9375 162.226562 L 33.523438 162.75 L 33.109375 168.472656 L 25.34375 167.851562 Z M 25.9375 162.226562 "/>
<path style=" stroke:none;fill-rule:nonzero;fill:rgb(39.99939%,39.99939%,39.99939%);fill-opacity:0.3;" d="M 50.882812 176.789062 L 58.46875 177.3125 L 57.972656 183.085938 L 50.234375 182.449219 Z M 50.882812 176.789062 "/>
<path style=" stroke:none;fill-rule:nonzero;fill:rgb(39.99939%,39.99939%,39.99939%);fill-opacity:0.3;" d="M 52.265625 166.894531 L 59.863281 167.410156 L 59.398438 173.160156 L 51.648438 172.53125 Z M 52.265625 166.894531 "/>
<path style=" stroke:none;fill-rule:nonzero;fill:rgb(39.99939%,39.99939%,39.99939%);fill-opacity:0.3;" d="M 29.644531 197.851562 L 37.21875 198.382812 L 36.691406 204.171875 L 28.964844 203.527344 Z M 29.644531 197.851562 "/>
<path style=" stroke:none;fill-rule:nonzero;fill:rgb(39.99939%,39.99939%,39.99939%);fill-opacity:0.3;" d="M 30.148438 190.378906 L 37.726562 190.910156 L 37.210938 196.691406 L 29.480469 196.050781 Z M 30.148438 190.378906 "/>
<path style=" stroke:none;fill-rule:nonzero;fill:rgb(39.99939%,39.99939%,39.99939%);fill-opacity:0.3;" d="M 63.933594 165.648438 L 51.566406 212.566406 L 26.71875 205.375 L 1.726562 197.976562 L 13.601562 154.375 Z M 63.933594 165.648438 "/>
<path style=" stroke:none;fill-rule:nonzero;fill:rgb(39.99939%,39.99939%,39.99939%);fill-opacity:0.3;" d="M 30.632812 183.316406 L 38.214844 183.84375 L 37.710938 189.617188 L 29.976562 188.976562 Z M 30.632812 183.316406 "/>
<path style=" stroke:none;fill-rule:nonzero;fill:rgb(39.99939%,39.99939%,39.99939%);fill-opacity:0.3;" d="M 15.855469 256.382812 L 41.714844 260.28125 L 23.050781 330.367188 L 18.527344 352.539062 L -11.421875 345.925781 L -6.929688 330.308594 L 4.203125 292.367188 Z M 15.855469 256.382812 "/>
<path style=" stroke:none;fill-rule:nonzero;fill:rgb(39.99939%,39.99939%,39.99939%);fill-opacity:0.3;" d="M -15.53125 251.804688 L 14.679688 255.925781 L 2.660156 292.457031 L -8.277344 330.0625 L -22.925781 327.96875 L -36.785156 325.449219 L -28.375 286.21875 Z M -15.53125 251.804688 "/>
<path style=" stroke:none;fill-rule:nonzero;fill:rgb(39.99939%,39.99939%,39.99939%);fill-opacity:0.3;" d="M 251.300781 281.046875 L 301.308594 287.519531 L 299.070312 301.652344 L 296.109375 320.355469 L 246.535156 313.941406 L 249.230469 295.335938 Z M 251.300781 281.046875 "/>
<path style=" stroke:none;fill-rule:nonzero;fill:rgb(39.99939%,39.99939%,39.99939%);fill-opacity:0.3;" d="M 280.367188 283.242188 L 280.445312 282.671875 L 301.617188 285.375 L 301.578125 285.605469 Z M 280.367188 283.242188 "/>
<path style=" stroke:none;fill-rule:nonzero;fill:rgb(39.99939%,39.99939%,39.99939%);fill-opacity:0.3;" d="M 278.636719 283.03125 L 251.632812 279.132812 L 251.675781 278.84375 L 278.714844 282.445312 Z M 278.636719 283.03125 "/>
<path style=" stroke:none;fill-rule:nonzero;fill:rgb(39.99939%,39.99939%,39.99939%);fill-opacity:0.3;" d="M 225.359375 277.484375 L 248.597656 280.488281 L 243.726562 312.589844 L 220.25 309.210938 Z M 225.359375 277.484375 "/>
<path style=" stroke:none;fill-rule:nonzero;fill:rgb(39.99939%,39.99939%,39.99939%);fill-opacity:0.3;" d="M 349.929688 327.644531 L 300.175781 320.726562 L 305.140625 285.832031 L 352.660156 292.050781 L 354.832031 294.644531 Z M 349.929688 327.644531 "/>
<g clip-path="url(#clip8)" clip-rule="nonzero">
<path style=" stroke:none;fill-rule:nonzero;fill:rgb(39.99939%,39.99939%,39.99939%);fill-opacity:0.3;" d="M 271.933594 320.628906 L 295.882812 323.921875 L 283.871094 416.789062 L 259.234375 413.589844 Z M 271.933594 320.628906 "/>
</g>
<g clip-path="url(#clip9)" clip-rule="nonzero">
<path style=" stroke:none;fill-rule:nonzero;fill:rgb(39.99939%,39.99939%,39.99939%);fill-opacity:0.3;" d="M 246.503906 317.226562 L 269.625 320.414062 L 257.371094 413.34375 L 233.707031 410.65625 Z M 246.503906 317.226562 "/>
</g>
<g clip-path="url(#clip10)" clip-rule="nonzero">
<path style=" stroke:none;fill-rule:nonzero;fill:rgb(39.99939%,39.99939%,39.99939%);fill-opacity:0.3;" d="M 192.980469 308.300781 L 217.179688 312.082031 L 205.804688 386.175781 L 206.941406 386.195312 L 208.078125 386.210938 L 219.820312 312.347656 L 243.367188 316.101562 L 231.160156 409.621094 L 180.066406 402.910156 Z M 192.980469 308.300781 "/>
</g>
<path style=" stroke:none;fill-rule:nonzero;fill:rgb(39.99939%,39.99939%,39.99939%);fill-opacity:0.3;" d="M 249.160156 278.492188 L 249.136719 278.632812 L 225.886719 275.546875 L 226.011719 274.933594 Z M 249.160156 278.492188 "/>
<g clip-path="url(#clip11)" clip-rule="nonzero">
<path style=" stroke:none;fill-rule:nonzero;fill:rgb(39.99939%,39.99939%,39.99939%);fill-opacity:0.3;" d="M 299.730469 324.417969 L 349.46875 330.890625 L 345.8125 357.390625 L 345.792969 357.546875 L 327.785156 355.957031 L 327.625 357.074219 L 327.460938 358.1875 L 345.199219 359.941406 L 342.386719 383.578125 L 317.683594 381.476562 L 317.324219 383.84375 L 342.015625 386.332031 L 340.394531 397.285156 L 336.453125 423.390625 L 334.664062 423.207031 L 325.9375 422.101562 L 326.617188 412.085938 L 325.785156 412.003906 L 324.957031 411.925781 L 323.90625 421.8125 L 287.464844 417.75 Z M 299.730469 324.417969 "/>
</g>
<g clip-path="url(#clip12)" clip-rule="nonzero">
<path style=" stroke:none;fill-rule:nonzero;fill:rgb(39.99939%,39.99939%,39.99939%);fill-opacity:0.3;" d="M 358.148438 298.40625 L 386.382812 331.648438 L 353.128906 328.082031 Z M 358.148438 298.40625 "/>
</g>
<path style=" stroke:none;fill-rule:nonzero;fill:rgb(39.99939%,39.99939%,39.99939%);fill-opacity:0.3;" d="M 350.007812 327.65625 L 349.929688 327.644531 L 354.832031 294.644531 L 355.664062 295.636719 Z M 350.007812 327.65625 "/>
<g clip-path="url(#clip13)" clip-rule="nonzero">
<path style=" stroke:none;fill-rule:nonzero;fill:rgb(39.99939%,39.99939%,39.99939%);fill-opacity:0.3;" d="M 344.085938 396.203125 L 352.457031 331.277344 L 389.855469 335.382812 L 400.320312 349.457031 L 398.742188 363.164062 L 392.984375 401.734375 Z M 344.085938 396.203125 "/>
</g>
<path style=" stroke:none;fill-rule:nonzero;fill:rgb(39.99939%,39.99939%,39.99939%);fill-opacity:0.3;" d="M 349.46875 330.890625 L 349.472656 330.890625 L 345.875 357.554688 L 345.792969 357.546875 L 345.8125 357.390625 Z M 349.46875 330.890625 "/>
<path style=" stroke:none;fill-rule:nonzero;fill:rgb(39.99939%,39.99939%,39.99939%);fill-opacity:0.3;" d="M 83.566406 234.183594 L 94.664062 237.636719 L 92.207031 246.011719 L 80.625 242.707031 Z M 83.566406 234.183594 "/>
<path style=" stroke:none;fill-rule:nonzero;fill:rgb(39.99939%,39.99939%,39.99939%);fill-opacity:0.3;" d="M 59.792969 233.386719 L 69.382812 236.449219 L 65.9375 244.796875 L 57.34375 241.921875 Z M 59.792969 233.386719 "/>
<path style=" stroke:none;fill-rule:nonzero;fill:rgb(39.99939%,39.99939%,39.99939%);fill-opacity:0.3;" d="M 80.234375 244.164062 L 92.066406 247.460938 L 89.558594 255.695312 L 77.492188 251.789062 Z M 80.234375 244.164062 "/>
<path style=" stroke:none;fill-rule:nonzero;fill:rgb(39.99939%,39.99939%,39.99939%);fill-opacity:0.3;" d="M 74.609375 168.585938 L 114.222656 178.015625 L 91.789062 257.773438 L 86.773438 271.097656 L 51.429688 259.671875 Z M 74.609375 168.585938 "/>
<path style=" stroke:none;fill-rule:nonzero;fill:rgb(39.99939%,39.99939%,39.99939%);fill-opacity:0.3;" d="M 142.882812 180.625 L 120.308594 175.609375 L 120.390625 175.285156 Z M 142.882812 180.625 "/>
<path style=" stroke:none;fill-rule:nonzero;fill:rgb(39.99939%,39.99939%,39.99939%);fill-opacity:0.3;" d="M 117.65625 174.640625 L 117.5625 175.058594 L 103.9375 171.929688 Z M 117.65625 174.640625 "/>
<path style=" stroke:none;fill-rule:nonzero;fill:rgb(39.99939%,39.99939%,39.99939%);fill-opacity:0.3;" d="M 129.757812 247.574219 L 136.003906 249.320312 L 134.652344 254.253906 L 128.113281 252.277344 Z M 129.757812 247.574219 "/>
<path style=" stroke:none;fill-rule:nonzero;fill:rgb(39.99939%,39.99939%,39.99939%);fill-opacity:0.3;" d="M 121.328125 245.054688 L 127.867188 246.933594 L 126.226562 252.128906 L 119.738281 250.003906 Z M 121.328125 245.054688 "/>
<path style=" stroke:none;fill-rule:nonzero;fill:rgb(39.99939%,39.99939%,39.99939%);fill-opacity:0.3;" d="M 112.574219 242.429688 L 118.757812 244.308594 L 117.105469 249.453125 L 110.878906 247.476562 Z M 112.574219 242.429688 "/>
<path style=" stroke:none;fill-rule:nonzero;fill:rgb(39.99939%,39.99939%,39.99939%);fill-opacity:0.3;" d="M 103.496094 240.039062 L 109.425781 241.796875 L 107.714844 246.777344 L 101.804688 244.707031 Z M 103.496094 240.039062 "/>
<path style=" stroke:none;fill-rule:nonzero;fill:rgb(39.99939%,39.99939%,39.99939%);fill-opacity:0.3;" d="M 280.445312 282.671875 L 285.351562 245.777344 L 307.042969 248.429688 L 305.027344 264.78125 L 301.617188 285.375 Z M 280.445312 282.671875 "/>
<path style=" stroke:none;fill-rule:nonzero;fill:rgb(39.99939%,39.99939%,39.99939%);fill-opacity:0.3;" d="M 251.675781 278.84375 L 257.605469 241.753906 L 283.550781 245.414062 L 278.714844 282.445312 Z M 251.675781 278.84375 "/>
<path style=" stroke:none;fill-rule:nonzero;fill:rgb(39.99939%,39.99939%,39.99939%);fill-opacity:0.3;" d="M 262.625 211.074219 L 290.867188 217.84375 L 308.570312 239.335938 L 308.113281 244.867188 L 307.394531 245.589844 L 307.300781 246.339844 L 257.875 239.808594 Z M 262.625 211.074219 "/>
<path style=" stroke:none;fill-rule:nonzero;fill:rgb(39.99939%,39.99939%,39.99939%);fill-opacity:0.3;" d="M 193.285156 304.640625 L 192.859375 304.566406 L 194.859375 290.15625 L 195.621094 290.292969 Z M 193.285156 304.640625 "/>
<path style=" stroke:none;fill-rule:nonzero;fill:rgb(39.99939%,39.99939%,39.99939%);fill-opacity:0.3;" d="M 142.191406 280.671875 L 142.214844 280.59375 L 144.5 281.011719 Z M 142.191406 280.671875 "/>
<path style=" stroke:none;fill-rule:nonzero;fill:rgb(39.99939%,39.99939%,39.99939%);fill-opacity:0.3;" d="M 217.5 308.570312 L 206.386719 306.816406 L 195.40625 303.53125 L 197.785156 288.628906 L 142.566406 279.15625 L 146.96875 264.929688 L 223.128906 277.125 Z M 217.5 308.570312 "/>
<path style=" stroke:none;fill-rule:nonzero;fill:rgb(39.99939%,39.99939%,39.99939%);fill-opacity:0.3;" d="M 148.472656 185.703125 L 260.269531 210.492188 L 255.441406 239.578125 L 205.527344 233.394531 L 202.824219 250.402344 L 198.371094 271.070312 L 147.625 263.3125 L 157.070312 231.628906 L 145.328125 227.867188 L 143.503906 223.390625 Z M 148.472656 185.703125 "/>
<path style=" stroke:none;fill-rule:nonzero;fill:rgb(39.99939%,39.99939%,39.99939%);fill-opacity:0.3;" d="M 87.082031 209.96875 L 96.109375 212.621094 L 93.949219 219.464844 L 84.644531 216.742188 Z M 87.082031 209.96875 "/>
<path style=" stroke:none;fill-rule:nonzero;fill:rgb(39.99939%,39.99939%,39.99939%);fill-opacity:0.3;" d="M 68.644531 205.453125 L 78.046875 207.910156 L 75.847656 214.417969 L 66.484375 211.773438 Z M 68.644531 205.453125 "/>
<path style=" stroke:none;fill-rule:nonzero;fill:rgb(39.99939%,39.99939%,39.99939%);fill-opacity:0.3;" d="M 86.8125 219.121094 L 96.367188 221.960938 L 93.707031 230.230469 L 83.925781 227.207031 Z M 86.8125 219.121094 "/>
<path style=" stroke:none;fill-rule:nonzero;fill:rgb(39.99939%,39.99939%,39.99939%);fill-opacity:0.3;" d="M 65.476562 215.429688 L 75.570312 218.582031 L 73.390625 225.632812 L 62.984375 222.433594 Z M 65.476562 215.429688 "/>
<path style=" stroke:none;fill-rule:nonzero;fill:rgb(39.99939%,39.99939%,39.99939%);fill-opacity:0.3;" d="M 62.691406 224.191406 L 72.792969 227.5625 L 69.925781 234.878906 L 60.046875 231.605469 Z M 62.691406 224.191406 "/>
<path style=" stroke:none;fill-rule:nonzero;fill:rgb(39.99939%,39.99939%,39.99939%);fill-opacity:0.3;" d="M 116.515625 178.433594 L 147.066406 185.402344 L 141.730469 223.632812 L 143.988281 228.964844 L 155.441406 232.722656 L 137.523438 289.78125 L 130.117188 287.539062 L 88.59375 272.804688 L 93.714844 258.84375 L 114.398438 265.789062 L 114.734375 264.273438 L 94.355469 257.199219 Z M 116.515625 178.433594 "/>
<path style=" stroke:none;fill-rule:nonzero;fill:rgb(39.99939%,39.99939%,39.99939%);fill-opacity:0.3;" d="M 65.085938 265.589844 L 78.230469 269.804688 L 82.519531 272.5625 Z M 65.085938 265.589844 "/>
<path style=" stroke:none;fill-rule:nonzero;fill:rgb(39.99939%,39.99939%,39.99939%);fill-opacity:0.3;" d="M 207.636719 235.292969 L 255 241.359375 L 249.160156 278.492188 L 226.011719 274.933594 L 229.941406 255.925781 L 228.566406 255.703125 L 227.191406 255.476562 L 223.4375 275.15625 L 200.464844 271.492188 L 205.421875 249.902344 Z M 207.636719 235.292969 "/>
<path style=" stroke:none;fill-rule:nonzero;fill:rgb(39.99939%,39.99939%,39.99939%);fill-opacity:0.3;" d="M 200.820312 -48.835938 L 264.777344 -34.984375 L 254.386719 0.992188 L 191.890625 -12.539062 Z M 200.820312 -48.835938 "/>
<path style=" stroke:none;fill-rule:nonzero;fill:rgb(39.99939%,39.99939%,39.99939%);fill-opacity:0.3;" d="M 287.570312 12.652344 L 340.574219 24.398438 L 333.683594 52.972656 L 280.355469 41.496094 Z M 287.570312 12.652344 "/>
<path style=" stroke:none;fill-rule:nonzero;fill:rgb(39.99939%,39.99939%,39.99939%);fill-opacity:0.3;" d="M 329.164062 54.316406 L 327.800781 55.113281 L 326.835938 55.808594 L 325.910156 56.550781 L 325.023438 57.339844 L 324.183594 58.171875 L 323.390625 59.042969 L 322.644531 59.953125 L 321.953125 60.898438 L 321.308594 61.878906 L 320.722656 62.886719 L 320.191406 63.925781 L 319.714844 64.988281 L 319.300781 66.074219 L 318.941406 67.179688 L 318.648438 68.296875 L 318.410156 69.433594 L 318.238281 70.574219 L 318.128906 71.726562 L 318.082031 72.878906 L 318.09375 74.035156 L 318.171875 75.1875 L 318.3125 76.335938 L 318.515625 77.472656 L 318.777344 78.597656 L 319.101562 79.707031 L 319.488281 80.800781 L 319.929688 81.875 L 320.429688 82.921875 L 320.832031 83.671875 L 272.863281 72.242188 L 279.871094 43.597656 Z M 329.164062 54.316406 "/>
<path style=" stroke:none;fill-rule:nonzero;fill:rgb(39.99939%,39.99939%,39.99939%);fill-opacity:0.3;" d="M 216.753906 62.445312 L 269.824219 73.960938 L 262.023438 104.164062 L 211.738281 94.210938 L 209.636719 92.539062 Z M 216.753906 62.445312 "/>
<path style=" stroke:none;fill-rule:nonzero;fill:rgb(39.99939%,39.99939%,39.99939%);fill-opacity:0.3;" d="M 156.359375 15.742188 L 180.589844 21.097656 L 173.992188 48.121094 L 167.5625 39.53125 L 161.023438 27.816406 Z M 156.359375 15.742188 "/>
<path style=" stroke:none;fill-rule:nonzero;fill:rgb(39.99939%,39.99939%,39.99939%);fill-opacity:0.3;" d="M 145.738281 -19.730469 L 188.347656 -9.894531 L 181.195312 18.65625 L 155.789062 12.824219 Z M 145.738281 -19.730469 "/>
<path style=" stroke:none;fill-rule:nonzero;fill:rgb(39.99939%,39.99939%,39.99939%);fill-opacity:0.3;" d="M 324.425781 88.726562 L 318.855469 112.011719 L 317.246094 116.546875 L 317.746094 116.644531 L 317.695312 116.863281 L 264.324219 105.8125 L 272.191406 74.734375 L 322.199219 86.5 Z M 324.425781 88.726562 "/>
<path style=" stroke:none;fill-rule:nonzero;fill:rgb(39.99939%,39.99939%,39.99939%);fill-opacity:0.3;" d="M 190.964844 -9.292969 L 229.609375 -0.75 L 221.542969 27.648438 L 183.820312 19.359375 Z M 190.964844 -9.292969 "/>
<path style=" stroke:none;fill-rule:nonzero;fill:rgb(39.99939%,39.99939%,39.99939%);fill-opacity:0.3;" d="M 232.6875 0.0820312 L 285.308594 12.164062 L 277.988281 40.960938 L 225.050781 28.289062 Z M 232.6875 0.0820312 "/>
<path style=" stroke:none;fill-rule:nonzero;fill:rgb(39.99939%,39.99939%,39.99939%);fill-opacity:0.3;" d="M 183.257812 22.054688 L 220.910156 30.042969 L 213.996094 59.230469 L 179.113281 52.796875 L 176.664062 49.992188 Z M 183.257812 22.054688 "/>
<path style=" stroke:none;fill-rule:nonzero;fill:rgb(39.99939%,39.99939%,39.99939%);fill-opacity:0.3;" d="M 224.328125 30.683594 L 277.414062 43.1875 L 270.46875 71.480469 L 217.292969 59.695312 Z M 224.328125 30.683594 "/>
<path style=" stroke:none;fill-rule:nonzero;fill:rgb(39.99939%,39.99939%,39.99939%);fill-opacity:0.3;" d="M 180.476562 56.058594 L 213.523438 61.867188 L 206.472656 90.414062 Z M 180.476562 56.058594 "/>
<path style=" stroke:none;fill-rule:nonzero;fill:rgb(39.99939%,39.99939%,39.99939%);fill-opacity:0.3;" d="M 347.707031 122.886719 L 320.375 117.339844 L 320.421875 117.160156 L 347.78125 122.457031 Z M 347.707031 122.886719 "/>
<path style=" stroke:none;fill-rule:nonzero;fill:rgb(39.99939%,39.99939%,39.99939%);fill-opacity:0.3;" d="M 330.542969 55.398438 L 330.789062 55.292969 L 331.1875 55.160156 L 331.601562 55.066406 L 332.023438 55.011719 L 332.449219 55 L 332.871094 55.035156 L 333.289062 55.109375 L 333.695312 55.222656 L 334.085938 55.378906 L 334.457031 55.574219 L 334.808594 55.800781 L 335.128906 56.066406 L 335.417969 56.359375 L 335.675781 56.683594 L 336.289062 57.554688 L 336.855469 58.457031 L 337.371094 59.390625 L 337.832031 60.34375 L 338.242188 61.320312 L 338.59375 62.320312 L 338.894531 63.332031 L 339.136719 64.359375 L 339.324219 65.398438 L 339.449219 66.449219 L 339.523438 67.5 L 339.535156 68.417969 L 339.496094 69.476562 L 339.402344 70.527344 L 339.25 71.574219 L 339.039062 72.613281 L 338.769531 73.640625 L 338.445312 74.65625 L 338.066406 75.652344 L 337.636719 76.628906 L 337.148438 77.582031 L 336.613281 78.511719 L 336.027344 79.414062 L 335.390625 80.285156 L 334.710938 81.121094 L 333.984375 81.925781 L 333.214844 82.695312 L 332.40625 83.421875 L 330.832031 84.9375 L 330.652344 85.097656 L 330.460938 85.246094 L 330.261719 85.386719 L 330.058594 85.519531 L 329.84375 85.640625 L 329.625 85.75 L 329.410156 85.84375 L 328.082031 86.011719 L 328.015625 86.191406 L 327.976562 86.195312 L 327.734375 86.210938 L 327.488281 86.214844 L 327.242188 86.203125 L 327 86.183594 L 326.757812 86.148438 L 326.515625 86.101562 L 326.28125 86.042969 L 326.046875 85.972656 L 325.816406 85.894531 L 325.59375 85.800781 L 325.375 85.695312 L 325.164062 85.582031 L 324.957031 85.453125 L 324.757812 85.316406 L 324.566406 85.171875 L 324.386719 85.015625 L 324.210938 84.851562 L 324.046875 84.679688 L 323.894531 84.496094 L 323.75 84.308594 L 323.613281 84.113281 L 323.492188 83.910156 L 323.179688 83.359375 L 322.660156 82.351562 L 322.199219 81.316406 L 321.796875 80.261719 L 321.449219 79.1875 L 321.160156 78.09375 L 320.933594 76.992188 L 320.761719 75.875 L 320.65625 74.753906 L 320.609375 73.628906 L 320.625 72.503906 L 320.699219 71.378906 L 320.835938 70.257812 L 321.03125 69.148438 L 321.289062 68.046875 L 321.605469 66.960938 L 321.980469 65.894531 L 322.414062 64.847656 L 322.90625 63.820312 L 323.449219 62.820312 L 324.046875 61.847656 L 324.699219 60.910156 L 325.398438 60 L 326.148438 59.132812 L 326.945312 58.300781 L 327.785156 57.507812 L 328.664062 56.757812 L 329.585938 56.054688 Z M 330.542969 55.398438 "/>
<path style=" stroke:none;fill-rule:nonzero;fill:rgb(39.99939%,39.99939%,39.99939%);fill-opacity:0.3;" d="M 339.410156 169.734375 L 264.683594 157.511719 L 254.796875 145.511719 L 262.898438 108.3125 L 347.320312 125.0625 Z M 339.410156 169.734375 "/>
<path style=" stroke:none;fill-rule:nonzero;fill:rgb(39.99939%,39.99939%,39.99939%);fill-opacity:0.3;" d="M 252.738281 140.347656 L 250.28125 141.15625 L 214.226562 97.277344 L 260.492188 106.625 Z M 252.738281 140.347656 "/>
<path style=" stroke:none;fill-rule:nonzero;fill:rgb(39.99939%,39.99939%,39.99939%);fill-opacity:0.3;" d="M 215.125 186.390625 L 220.585938 155.4375 L 227.234375 156.363281 L 221.773438 187.3125 Z M 215.125 186.390625 "/>
<path style=" stroke:none;fill-rule:nonzero;fill:rgb(39.99939%,39.99939%,39.99939%);fill-opacity:0.3;" d="M 225.683594 188.238281 L 231.144531 157.289062 L 237.792969 158.210938 L 232.332031 189.160156 Z M 225.683594 188.238281 "/>
<path style=" stroke:none;fill-rule:nonzero;fill:rgb(39.99939%,39.99939%,39.99939%);fill-opacity:0.3;" d="M 235.265625 190.269531 L 240.726562 159.320312 L 246.300781 166.320312 L 241.914062 191.195312 Z M 235.265625 190.269531 "/>
<path style=" stroke:none;fill-rule:nonzero;fill:rgb(39.99939%,39.99939%,39.99939%);fill-opacity:0.3;" d="M 149.304688 56.640625 L 159.433594 58.824219 L 189.203125 97.015625 L 142.535156 86.414062 Z M 149.304688 56.640625 "/>
<path style=" stroke:none;fill-rule:nonzero;fill:rgb(39.99939%,39.99939%,39.99939%);fill-opacity:0.3;" d="M 141.96875 88.828125 L 190.914062 99.957031 L 222.761719 136.910156 L 135.007812 118.832031 Z M 141.96875 88.828125 "/>
<path style=" stroke:none;fill-rule:nonzero;fill:rgb(39.99939%,39.99939%,39.99939%);fill-opacity:0.3;" d="M 100.917969 77.453125 L 107.871094 47.855469 L 147.332031 56.070312 L 140.105469 85.785156 Z M 100.917969 77.453125 "/>
<path style=" stroke:none;fill-rule:nonzero;fill:rgb(39.99939%,39.99939%,39.99939%);fill-opacity:0.3;" d="M 93.003906 108.738281 L 100.367188 79.824219 L 139.714844 88.410156 L 132.425781 118.273438 Z M 93.003906 108.738281 "/>
<path style=" stroke:none;fill-rule:nonzero;fill:rgb(39.99939%,39.99939%,39.99939%);fill-opacity:0.3;" d="M 52.746094 68.703125 L 94.097656 78.519531 L 86.925781 106.945312 L 46.378906 97.414062 Z M 52.746094 68.703125 "/>
<path style=" stroke:none;fill-rule:nonzero;fill:rgb(39.99939%,39.99939%,39.99939%);fill-opacity:0.3;" d="M 115.835938 14.488281 L 126.632812 16.421875 L 139.507812 35.574219 L 148.449219 45.613281 L 148.359375 52.949219 L 108.675781 44.589844 Z M 115.835938 14.488281 "/>
<path style=" stroke:none;fill-rule:nonzero;fill:rgb(39.99939%,39.99939%,39.99939%);fill-opacity:0.3;" d="M 121.695312 -14.167969 L 127.859375 -13.582031 L 142.300781 34.878906 L 141.441406 35.066406 L 127.53125 15.183594 L 116.160156 12.902344 Z M 121.695312 -14.167969 "/>
<path style=" stroke:none;fill-rule:nonzero;fill:rgb(39.99939%,39.99939%,39.99939%);fill-opacity:0.3;" d="M 61.648438 37.4375 L 102.25 46.6875 L 94.628906 76.28125 L 53.449219 66.503906 Z M 61.648438 37.4375 "/>
<path style=" stroke:none;fill-rule:nonzero;fill:rgb(39.99939%,39.99939%,39.99939%);fill-opacity:0.3;" d="M 69.617188 4.503906 L 110.632812 13.9375 L 103.164062 43.488281 L 62.261719 34.167969 Z M 69.617188 4.503906 "/>
<path style=" stroke:none;fill-rule:nonzero;fill:rgb(39.99939%,39.99939%,39.99939%);fill-opacity:0.3;" d="M 78.425781 -28.109375 L 118.242188 -19.285156 L 111.027344 11.785156 L 70.414062 1.867188 Z M 78.425781 -28.109375 "/>
<path style=" stroke:none;fill-rule:nonzero;fill:rgb(39.99939%,39.99939%,39.99939%);fill-opacity:0.3;" d="M 6.367188 57.980469 L -0.96875 85.957031 L -34.640625 78.425781 L -27.222656 51.015625 Z M 6.367188 57.980469 "/>
<path style=" stroke:none;fill-rule:nonzero;fill:rgb(39.99939%,39.99939%,39.99939%);fill-opacity:0.3;" d="M 9.214844 58.566406 L 49.496094 68.023438 L 42.503906 96.46875 L 1.839844 86.613281 Z M 9.214844 58.566406 "/>
<path style=" stroke:none;fill-rule:nonzero;fill:rgb(39.99939%,39.99939%,39.99939%);fill-opacity:0.3;" d="M 16.820312 25.082031 L 58.128906 35.640625 L 49.996094 65.617188 L 9.632812 56.441406 Z M 16.820312 25.082031 "/>
<path style=" stroke:none;fill-rule:nonzero;fill:rgb(39.99939%,39.99939%,39.99939%);fill-opacity:0.3;" d="M 25.046875 -5.191406 L 66.078125 3.578125 L 58.542969 33.691406 L 17.386719 23.199219 Z M 25.046875 -5.191406 "/>
<path style=" stroke:none;fill-rule:nonzero;fill:rgb(39.99939%,39.99939%,39.99939%);fill-opacity:0.3;" d="M 33.09375 -38.304688 L 74.574219 -29.113281 L 66.65625 0.941406 L 25.863281 -8.0625 Z M 33.09375 -38.304688 "/>
<path style=" stroke:none;fill-rule:nonzero;fill:rgb(39.99939%,39.99939%,39.99939%);fill-opacity:0.3;" d="M -34.929688 81.515625 L -2.160156 89.65625 L -10.761719 122.234375 L -9.234375 122.667969 L -7.707031 123.097656 L 0.582031 90.238281 L 86.296875 110.496094 L 77.964844 146.542969 L 75.714844 152.734375 L 71.207031 160.777344 L 66.453125 163.535156 L 14.136719 151.804688 L 7.714844 150.609375 L -15.539062 145.695312 L -15.855469 145.5 L -20.488281 144.203125 L -52.820312 136.183594 L -40.617188 94.332031 L -37.007812 94.761719 Z M -34.929688 81.515625 "/>
<path style=" stroke:none;fill-rule:nonzero;fill:rgb(39.99939%,39.99939%,39.99939%);fill-opacity:0.3;" d="M 197.996094 160.851562 L 210.300781 163.402344 L 209.550781 169.308594 L 203.8125 168.289062 L 203.554688 169.574219 L 208.742188 170.339844 L 208.523438 175.480469 L 194.867188 172.667969 L 195.902344 167.785156 L 198.90625 168.292969 L 199.433594 166.753906 L 196.421875 165.730469 Z M 197.996094 160.851562 "/>
<path style=" stroke:none;fill-rule:nonzero;fill:rgb(39.99939%,39.99939%,39.99939%);fill-opacity:0.3;" d="M 200.738281 144.972656 L 213.335938 146.992188 L 212.601562 152.113281 L 207.949219 151.355469 L 207.972656 152.890625 L 212.074219 153.394531 L 210.804688 160.066406 L 198.503906 158.03125 L 198.933594 150.859375 L 203.320312 151.875 L 203.554688 149.570312 L 200.539062 148.808594 Z M 200.738281 144.972656 "/>
<path style=" stroke:none;fill-rule:nonzero;fill:rgb(39.99939%,39.99939%,39.99939%);fill-opacity:0.3;" d="M 189.273438 134.230469 L 227.503906 142.132812 L 281.226562 208.074219 L 277.429688 210.65625 L 177.375 188.269531 Z M 189.273438 134.230469 "/>
<path style=" stroke:none;fill-rule:nonzero;fill:rgb(39.99939%,39.99939%,39.99939%);fill-opacity:0.3;" d="M 134.160156 121.828125 L 186.71875 133.6875 L 175.023438 187.757812 L 142.882812 180.625 L 120.390625 175.285156 Z M 134.160156 121.828125 "/>
<path style=" stroke:none;fill-rule:nonzero;fill:rgb(39.99939%,39.99939%,39.99939%);fill-opacity:0.3;" d="M 91.664062 112.085938 L 131.691406 121.125 L 120 164.246094 L 117.65625 174.640625 L 103.9375 171.929688 L 75.542969 165.402344 L 79.59375 149.757812 L 82.886719 148.195312 Z M 91.664062 112.085938 "/>
<path style=" stroke:none;fill-rule:nonzero;fill:rgb(39.99939%,39.99939%,39.99939%);fill-opacity:0.3;" d="M 330.75 220.738281 L 320.402344 219.96875 L 312.941406 218.210938 L 269.71875 163.070312 L 270.964844 161.746094 L 338.996094 172.171875 Z M 330.75 220.738281 "/>
<path style=" stroke:none;fill-rule:nonzero;fill:rgb(39.99939%,39.99939%,39.99939%);fill-opacity:0.3;" d="M 14.507812 23.269531 L 2.917969 21.0625 L 2.761719 22.28125 L 14.339844 24.515625 L 7.015625 55.929688 L -26.617188 48.746094 L -1.035156 -45.847656 L 29.984375 -38.949219 Z M 14.507812 23.269531 "/>
<path style=" stroke:none;fill-rule:nonzero;fill:rgb(39.99939%,39.99939%,39.99939%);fill-opacity:0.3;" d="M 319.117188 -18.785156 L 323.8125 -17.914062 L 323.980469 -18.734375 L 324.148438 -19.550781 L 319.53125 -20.511719 L 327.382812 -53.136719 L 353.675781 -48.265625 L 348.269531 -8.921875 L 346.304688 3.265625 L 343.105469 18.855469 L 339.679688 20.8125 L 255.90625 1.417969 L 266.535156 -34.371094 L 272.710938 -29.773438 Z M 319.117188 -18.785156 "/>
<path style=" stroke:none;fill-rule:nonzero;fill:rgb(39.99939%,39.99939%,39.99939%);fill-opacity:0.3;" d="M 192.859375 304.566406 L 171.996094 300.910156 L 139.089844 290.664062 L 142.191406 280.671875 L 144.5 281.011719 L 194.859375 290.15625 Z M 192.859375 304.566406 "/>
<path style=" stroke:none;fill-rule:nonzero;fill:rgb(39.99939%,39.99939%,39.99939%);fill-opacity:0.3;" d="M 83.847656 302.832031 L 96.265625 307.367188 L 94.449219 312.261719 L 81.730469 307.84375 Z M 83.847656 302.832031 "/>
<path style=" stroke:none;fill-rule:nonzero;fill:rgb(39.99939%,39.99939%,39.99939%);fill-opacity:0.3;" d="M 85.898438 295.382812 L 97.945312 299.566406 L 96.152344 304.746094 L 84.023438 300.332031 Z M 85.898438 295.382812 "/>
<g clip-path="url(#clip14)" clip-rule="nonzero">
<path style=" stroke:none;fill-rule:nonzero;fill:rgb(39.99939%,39.99939%,39.99939%);fill-opacity:0.3;" d="M 172.6875 303.277344 L 190.269531 306.953125 L 181.117188 373.015625 L 166.050781 369.511719 Z M 172.6875 303.277344 "/>
</g>
<g clip-path="url(#clip15)" clip-rule="nonzero">
<path style=" stroke:none;fill-rule:nonzero;fill:rgb(39.99939%,39.99939%,39.99939%);fill-opacity:0.3;" d="M 170.542969 302.585938 L 164.726562 359.621094 L 165.210938 362.71875 L 164.320312 369.363281 L 130.683594 361.496094 L 132.6875 347.902344 L 141.234375 345.769531 L 147.257812 311.921875 L 143.90625 311.226562 L 146.054688 295.269531 Z M 170.542969 302.585938 "/>
</g>
<path style=" stroke:none;fill-rule:nonzero;fill:rgb(39.99939%,39.99939%,39.99939%);fill-opacity:0.3;" d="M 137.523438 289.78125 L 137.417969 290.128906 L 130.117188 287.539062 Z M 137.523438 289.78125 "/>
<g clip-path="url(#clip16)" clip-rule="nonzero">
<path style=" stroke:none;fill-rule:nonzero;fill:rgb(39.99939%,39.99939%,39.99939%);fill-opacity:0.3;" d="M 89.207031 276.054688 L 111.574219 283.835938 L 101.546875 312.914062 L 102.476562 313.359375 L 103.410156 313.800781 L 113.152344 284.265625 L 144.558594 294.851562 L 138.261719 341.449219 L 129.839844 345.488281 L 129.292969 356.191406 L 126.699219 360.375 L 110.699219 356.589844 L 122.214844 319.097656 L 121.324219 318.761719 L 120.429688 318.421875 L 109.796875 353.601562 L 108.527344 355.332031 L 104.734375 354.867188 L 89.09375 350.457031 L 83.09375 348.289062 L 78.386719 346.429688 L 75.160156 344.308594 L 72.117188 341.4375 L 72.0625 337.929688 L 76.410156 319.488281 L 82.996094 321.203125 L 83.113281 320.65625 L 83.230469 320.113281 L 76.863281 318.433594 Z M 89.207031 276.054688 "/>
</g>
<g clip-path="url(#clip17)" clip-rule="nonzero">
<path style=" stroke:none;fill-rule:nonzero;fill:rgb(39.99939%,39.99939%,39.99939%);fill-opacity:0.3;" d="M 129.007812 362.382812 L 124.328125 397.78125 L 121.722656 397.550781 L 107.429688 395.316406 L 87.910156 394.535156 L 79.046875 393.746094 L 77.367188 396.644531 L 74.921875 398.269531 L 71.660156 400.027344 L 61.371094 398.171875 L 56.207031 396.792969 L 45.800781 395.359375 L 21.222656 390.917969 L 28.914062 352.300781 L 32.292969 330.855469 L 51.125 261.113281 L 65.085938 265.589844 L 82.519531 272.5625 L 84.929688 274.113281 L 86.414062 276.6875 L 74.847656 319.21875 L 70.570312 337.730469 L 70.378906 341.878906 L 68.777344 345.332031 L 60.285156 375.742188 L 60.964844 375.894531 L 61.640625 376.046875 L 70.035156 345.203125 L 73.558594 344.902344 L 77.8125 347.488281 L 82.914062 349.734375 L 87.972656 352.46875 L 109.140625 357.847656 Z M 129.007812 362.382812 "/>
</g>
<path style="fill-rule:nonzero;fill:rgb(39.99939%,39.99939%,39.99939%);fill-opacity:1;stroke-width:0.03;stroke-linecap:square;stroke-linejoin:miter;stroke:rgb(39.99939%,39.99939%,39.99939%);stroke-opacity:1;stroke-miterlimit:3.239307;" d="M 157.566406 247.183594 L 168.664062 250.636719 L 166.207031 259.011719 L 154.625 255.707031 Z M 157.566406 247.183594 " transform="matrix(1,0,0,1,-74,-13)"/>
<path style="fill-rule:nonzero;fill:rgb(39.99939%,39.99939%,39.99939%);fill-opacity:1;stroke-width:0.03;stroke-linecap:square;stroke-linejoin:miter;stroke:rgb(39.99939%,39.99939%,39.99939%);stroke-opacity:1;stroke-miterlimit:3.239307;" d="M 133.792969 246.386719 L 143.382812 249.449219 L 139.9375 257.796875 L 131.34375 254.921875 Z M 133.792969 246.386719 " transform="matrix(1,0,0,1,-74,-13)"/>
<path style="fill-rule:nonzero;fill:rgb(39.99939%,39.99939%,39.99939%);fill-opacity:1;stroke-width:0.03;stroke-linecap:square;stroke-linejoin:miter;stroke:rgb(39.99939%,39.99939%,39.99939%);stroke-opacity:1;stroke-miterlimit:3.239307;" d="M 154.234375 257.164062 L 166.066406 260.460938 L 163.558594 268.695312 L 151.492188 264.789062 Z M 154.234375 257.164062 " transform="matrix(1,0,0,1,-74,-13)"/>
<path style="fill-rule:nonzero;fill:rgb(39.99939%,39.99939%,39.99939%);fill-opacity:1;stroke-width:0.03;stroke-linecap:square;stroke-linejoin:miter;stroke:rgb(39.99939%,39.99939%,39.99939%);stroke-opacity:1;stroke-miterlimit:3.239307;" d="M 148.609375 181.585938 L 188.222656 191.015625 L 165.789062 270.773438 L 160.773438 284.097656 L 125.429688 272.671875 Z M 148.609375 181.585938 " transform="matrix(1,0,0,1,-74,-13)"/>
<path style="fill-rule:nonzero;fill:rgb(39.99939%,39.99939%,39.99939%);fill-opacity:1;stroke-width:0.03;stroke-linecap:square;stroke-linejoin:miter;stroke:rgb(39.99939%,39.99939%,39.99939%);stroke-opacity:1;stroke-miterlimit:3.239307;" d="M 216.882812 193.625 L 194.308594 188.609375 L 194.390625 188.285156 Z M 216.882812 193.625 " transform="matrix(1,0,0,1,-74,-13)"/>
<path style="fill-rule:nonzero;fill:rgb(39.99939%,39.99939%,39.99939%);fill-opacity:1;stroke-width:0.03;stroke-linecap:square;stroke-linejoin:miter;stroke:rgb(39.99939%,39.99939%,39.99939%);stroke-opacity:1;stroke-miterlimit:3.239307;" d="M 191.65625 187.640625 L 191.5625 188.058594 L 177.9375 184.929688 Z M 191.65625 187.640625 " transform="matrix(1,0,0,1,-74,-13)"/>
<path style="fill-rule:nonzero;fill:rgb(39.99939%,39.99939%,39.99939%);fill-opacity:1;stroke-width:0.03;stroke-linecap:square;stroke-linejoin:miter;stroke:rgb(39.99939%,39.99939%,39.99939%);stroke-opacity:1;stroke-miterlimit:3.239307;" d="M 203.757812 260.574219 L 210.003906 262.320312 L 208.652344 267.253906 L 202.113281 265.277344 Z M 203.757812 260.574219 " transform="matrix(1,0,0,1,-74,-13)"/>
<path style="fill-rule:nonzero;fill:rgb(39.99939%,39.99939%,39.99939%);fill-opacity:1;stroke-width:0.03;stroke-linecap:square;stroke-linejoin:miter;stroke:rgb(39.99939%,39.99939%,39.99939%);stroke-opacity:1;stroke-miterlimit:3.239307;" d="M 195.328125 258.054688 L 201.867188 259.933594 L 200.226562 265.128906 L 193.738281 263.003906 Z M 195.328125 258.054688 " transform="matrix(1,0,0,1,-74,-13)"/>
<path style="fill-rule:nonzero;fill:rgb(39.99939%,39.99939%,39.99939%);fill-opacity:1;stroke-width:0.03;stroke-linecap:square;stroke-linejoin:miter;stroke:rgb(39.99939%,39.99939%,39.99939%);stroke-opacity:1;stroke-miterlimit:3.239307;" d="M 186.574219 255.429688 L 192.757812 257.308594 L 191.105469 262.453125 L 184.878906 260.476562 Z M 186.574219 255.429688 " transform="matrix(1,0,0,1,-74,-13)"/>
<path style="fill-rule:nonzero;fill:rgb(39.99939%,39.99939%,39.99939%);fill-opacity:1;stroke-width:0.03;stroke-linecap:square;stroke-linejoin:miter;stroke:rgb(39.99939%,39.99939%,39.99939%);stroke-opacity:1;stroke-miterlimit:3.239307;" d="M 177.496094 253.039062 L 183.425781 254.796875 L 181.714844 259.777344 L 175.804688 257.707031 Z M 177.496094 253.039062 " transform="matrix(1,0,0,1,-74,-13)"/>
<path style="fill-rule:nonzero;fill:rgb(39.99939%,39.99939%,39.99939%);fill-opacity:1;stroke-width:0.03;stroke-linecap:square;stroke-linejoin:miter;stroke:rgb(39.99939%,39.99939%,39.99939%);stroke-opacity:1;stroke-miterlimit:3.239307;" d="M 354.445312 295.671875 L 359.351562 258.777344 L 381.042969 261.429688 L 379.027344 277.78125 L 375.617188 298.375 Z M 354.445312 295.671875 " transform="matrix(1,0,0,1,-74,-13)"/>
<path style="fill-rule:nonzero;fill:rgb(39.99939%,39.99939%,39.99939%);fill-opacity:1;stroke-width:0.03;stroke-linecap:square;stroke-linejoin:miter;stroke:rgb(39.99939%,39.99939%,39.99939%);stroke-opacity:1;stroke-miterlimit:3.239307;" d="M 325.675781 291.84375 L 331.605469 254.753906 L 357.550781 258.414062 L 352.714844 295.445312 Z M 325.675781 291.84375 " transform="matrix(1,0,0,1,-74,-13)"/>
<path style="fill-rule:nonzero;fill:rgb(39.99939%,39.99939%,39.99939%);fill-opacity:1;stroke-width:0.03;stroke-linecap:square;stroke-linejoin:miter;stroke:rgb(39.99939%,39.99939%,39.99939%);stroke-opacity:1;stroke-miterlimit:3.239307;" d="M 336.625 224.074219 L 364.867188 230.84375 L 382.570312 252.335938 L 382.113281 257.867188 L 381.394531 258.589844 L 381.300781 259.339844 L 331.875 252.808594 Z M 336.625 224.074219 " transform="matrix(1,0,0,1,-74,-13)"/>
<path style="fill-rule:nonzero;fill:rgb(39.99939%,39.99939%,39.99939%);fill-opacity:1;stroke-width:0.03;stroke-linecap:square;stroke-linejoin:miter;stroke:rgb(39.99939%,39.99939%,39.99939%);stroke-opacity:1;stroke-miterlimit:3.239307;" d="M 267.285156 317.640625 L 266.859375 317.566406 L 268.859375 303.15625 L 269.621094 303.292969 Z M 267.285156 317.640625 " transform="matrix(1,0,0,1,-74,-13)"/>
<path style="fill-rule:nonzero;fill:rgb(39.99939%,39.99939%,39.99939%);fill-opacity:1;stroke-width:0.03;stroke-linecap:square;stroke-linejoin:miter;stroke:rgb(39.99939%,39.99939%,39.99939%);stroke-opacity:1;stroke-miterlimit:3.239307;" d="M 216.191406 293.671875 L 216.214844 293.59375 L 218.5 294.011719 Z M 216.191406 293.671875 " transform="matrix(1,0,0,1,-74,-13)"/>
<path style="fill-rule:nonzero;fill:rgb(39.99939%,39.99939%,39.99939%);fill-opacity:1;stroke-width:0.03;stroke-linecap:square;stroke-linejoin:miter;stroke:rgb(39.99939%,39.99939%,39.99939%);stroke-opacity:1;stroke-miterlimit:3.239307;" d="M 291.5 321.570312 L 280.386719 319.816406 L 269.40625 316.53125 L 271.785156 301.628906 L 216.566406 292.15625 L 220.96875 277.929688 L 297.128906 290.125 Z M 291.5 321.570312 " transform="matrix(1,0,0,1,-74,-13)"/>
<path style="fill-rule:nonzero;fill:rgb(39.99939%,39.99939%,39.99939%);fill-opacity:1;stroke-width:0.03;stroke-linecap:square;stroke-linejoin:miter;stroke:rgb(39.99939%,39.99939%,39.99939%);stroke-opacity:1;stroke-miterlimit:3.239307;" d="M 222.472656 198.703125 L 334.269531 223.492188 L 329.441406 252.578125 L 279.527344 246.394531 L 276.824219 263.402344 L 272.371094 284.070312 L 221.625 276.3125 L 231.070312 244.628906 L 219.328125 240.867188 L 217.503906 236.390625 Z M 222.472656 198.703125 " transform="matrix(1,0,0,1,-74,-13)"/>
<path style="fill-rule:nonzero;fill:rgb(39.99939%,39.99939%,39.99939%);fill-opacity:1;stroke-width:0.03;stroke-linecap:square;stroke-linejoin:miter;stroke:rgb(39.99939%,39.99939%,39.99939%);stroke-opacity:1;stroke-miterlimit:3.239307;" d="M 161.082031 222.96875 L 170.109375 225.621094 L 167.949219 232.464844 L 158.644531 229.742188 Z M 161.082031 222.96875 " transform="matrix(1,0,0,1,-74,-13)"/>
<path style="fill-rule:nonzero;fill:rgb(39.99939%,39.99939%,39.99939%);fill-opacity:1;stroke-width:0.03;stroke-linecap:square;stroke-linejoin:miter;stroke:rgb(39.99939%,39.99939%,39.99939%);stroke-opacity:1;stroke-miterlimit:3.239307;" d="M 142.644531 218.453125 L 152.046875 220.910156 L 149.847656 227.417969 L 140.484375 224.773438 Z M 142.644531 218.453125 " transform="matrix(1,0,0,1,-74,-13)"/>
<path style="fill-rule:nonzero;fill:rgb(39.99939%,39.99939%,39.99939%);fill-opacity:1;stroke-width:0.03;stroke-linecap:square;stroke-linejoin:miter;stroke:rgb(39.99939%,39.99939%,39.99939%);stroke-opacity:1;stroke-miterlimit:3.239307;" d="M 160.8125 232.121094 L 170.367188 234.960938 L 167.707031 243.230469 L 157.925781 240.207031 Z M 160.8125 232.121094 " transform="matrix(1,0,0,1,-74,-13)"/>
<path style="fill-rule:nonzero;fill:rgb(39.99939%,39.99939%,39.99939%);fill-opacity:1;stroke-width:0.03;stroke-linecap:square;stroke-linejoin:miter;stroke:rgb(39.99939%,39.99939%,39.99939%);stroke-opacity:1;stroke-miterlimit:3.239307;" d="M 139.476562 228.429688 L 149.570312 231.582031 L 147.390625 238.632812 L 136.984375 235.433594 Z M 139.476562 228.429688 " transform="matrix(1,0,0,1,-74,-13)"/>
<path style="fill-rule:nonzero;fill:rgb(39.99939%,39.99939%,39.99939%);fill-opacity:1;stroke-width:0.03;stroke-linecap:square;stroke-linejoin:miter;stroke:rgb(39.99939%,39.99939%,39.99939%);stroke-opacity:1;stroke-miterlimit:3.239307;" d="M 136.691406 237.191406 L 146.792969 240.5625 L 143.925781 247.878906 L 134.046875 244.605469 Z M 136.691406 237.191406 " transform="matrix(1,0,0,1,-74,-13)"/>
<path style="fill-rule:nonzero;fill:rgb(39.99939%,39.99939%,39.99939%);fill-opacity:1;stroke-width:0.03;stroke-linecap:square;stroke-linejoin:miter;stroke:rgb(39.99939%,39.99939%,39.99939%);stroke-opacity:1;stroke-miterlimit:3.239307;" d="M 190.515625 191.433594 L 221.066406 198.402344 L 215.730469 236.632812 L 217.988281 241.964844 L 229.441406 245.722656 L 211.523438 302.78125 L 204.117188 300.539062 L 162.59375 285.804688 L 167.714844 271.84375 L 188.398438 278.789062 L 188.734375 277.273438 L 168.355469 270.199219 Z M 190.515625 191.433594 " transform="matrix(1,0,0,1,-74,-13)"/>
<path style="fill-rule:nonzero;fill:rgb(39.99939%,39.99939%,39.99939%);fill-opacity:1;stroke-width:0.03;stroke-linecap:square;stroke-linejoin:miter;stroke:rgb(39.99939%,39.99939%,39.99939%);stroke-opacity:1;stroke-miterlimit:3.239307;" d="M 139.085938 278.589844 L 152.230469 282.804688 L 156.519531 285.5625 Z M 139.085938 278.589844 " transform="matrix(1,0,0,1,-74,-13)"/>
<path style="fill-rule:nonzero;fill:rgb(39.99939%,39.99939%,39.99939%);fill-opacity:1;stroke-width:0.03;stroke-linecap:square;stroke-linejoin:miter;stroke:rgb(39.99939%,39.99939%,39.99939%);stroke-opacity:1;stroke-miterlimit:3.239307;" d="M 281.636719 248.292969 L 329 254.359375 L 323.160156 291.492188 L 300.011719 287.933594 L 303.941406 268.925781 L 302.566406 268.703125 L 301.191406 268.476562 L 297.4375 288.15625 L 274.464844 284.492188 L 279.421875 262.902344 Z M 281.636719 248.292969 " transform="matrix(1,0,0,1,-74,-13)"/>
<path style=" stroke:none;fill-rule:evenodd;fill:rgb(85.096741%,85.096741%,81.959534%);fill-opacity:0.7;" d="M 164.699219 329 C 164.699219 323.773438 162.625 318.765625 158.929688 315.070312 C 155.234375 311.375 150.226562 309.300781 145 309.300781 C 139.773438 309.300781 134.765625 311.375 131.070312 315.070312 C 127.375 318.765625 125.300781 323.773438 125.300781 329 C 125.300781 334.226562 127.375 339.234375 131.070312 342.929688 C 134.765625 346.625 139.773438 348.699219 145 348.699219 C 150.226562 348.699219 155.234375 346.625 158.929688 342.929688 C 162.625 339.234375 164.699219 334.226562 164.699219 329 Z M 164.699219 329 "/>
<path style=" stroke:none;fill-rule:evenodd;fill:rgb(85.096741%,85.096741%,81.959534%);fill-opacity:0.7;" d="M 58.699219 210 C 58.699219 204.773438 56.625 199.765625 52.929688 196.070312 C 49.234375 192.375 44.226562 190.300781 39 190.300781 C 33.773438 190.300781 28.765625 192.375 25.070312 196.070312 C 21.375 199.765625 19.300781 204.773438 19.300781 210 C 19.300781 215.226562 21.375 220.234375 25.070312 223.929688 C 28.765625 227.625 33.773438 229.699219 39 229.699219 C 44.226562 229.699219 49.234375 227.625 52.929688 223.929688 C 56.625 220.234375 58.699219 215.226562 58.699219 210 Z M 58.699219 210 "/>
<path style=" stroke:none;fill-rule:evenodd;fill:rgb(85.096741%,85.096741%,81.959534%);fill-opacity:0.7;" d="M 299.699219 165 C 299.699219 159.773438 297.625 154.765625 293.929688 151.070312 C 290.234375 147.375 285.226562 145.300781 280 145.300781 C 274.773438 145.300781 269.765625 147.375 266.070312 151.070312 C 262.375 154.765625 260.300781 159.773438 260.300781 165 C 260.300781 170.226562 262.375 175.234375 266.070312 178.929688 C 269.765625 182.625 274.773438 184.699219 280 184.699219 C 285.226562 184.699219 290.234375 182.625 293.929688 178.929688 C 297.625 175.234375 299.699219 170.226562 299.699219 165 Z M 299.699219 165 "/>
<path style=" stroke:none;fill-rule:evenodd;fill:rgb(85.096741%,85.096741%,81.959534%);fill-opacity:0.7;" d="M 127.699219 54 C 127.699219 48.773438 125.625 43.765625 121.929688 40.070312 C 118.234375 36.375 113.226562 34.300781 108 34.300781 C 102.773438 34.300781 97.765625 36.375 94.070312 40.070312 C 90.375 43.765625 88.300781 48.773438 88.300781 54 C 88.300781 59.226562 90.375 64.234375 94.070312 67.929688 C 97.765625 71.625 102.773438 73.699219 108 73.699219 C 113.226562 73.699219 118.234375 71.625 121.929688 67.929688 C 125.625 64.234375 127.699219 59.226562 127.699219 54 Z M 127.699219 54 "/>
<path style=" stroke:none;fill-rule:evenodd;fill:rgb(85.096741%,85.096741%,81.959534%);fill-opacity:0.7;" d="M 86.699219 9 C 86.699219 3.773438 84.625 -1.234375 80.929688 -4.929688 C 77.234375 -8.625 72.226562 -10.699219 67 -10.699219 C 61.773438 -10.699219 56.765625 -8.625 53.070312 -4.929688 C 49.375 -1.234375 47.300781 3.773438 47.300781 9 C 47.300781 14.226562 49.375 19.234375 53.070312 22.929688 C 56.765625 26.625 61.773438 28.699219 67 28.699219 C 72.226562 28.699219 77.234375 26.625 80.929688 22.929688 C 84.625 19.234375 86.699219 14.226562 86.699219 9 Z M 86.699219 9 "/>
<path style=" stroke:none;fill-rule:evenodd;fill:rgb(85.096741%,85.096741%,81.959534%);fill-opacity:0.7;" d="M 269.699219 44 C 269.699219 38.773438 267.625 33.765625 263.929688 30.070312 C 260.234375 26.375 255.226562 24.300781 250 24.300781 C 244.773438 24.300781 239.765625 26.375 236.070312 30.070312 C 232.375 33.765625 230.300781 38.773438 230.300781 44 C 230.300781 49.226562 232.375 54.234375 236.070312 57.929688 C 239.765625 61.625 244.773438 63.699219 250 63.699219 C 255.226562 63.699219 260.234375 61.625 263.929688 57.929688 C 267.625 54.234375 269.699219 49.226562 269.699219 44 Z M 269.699219 44 "/>
<path style=" stroke:none;fill-rule:evenodd;fill:rgb(85.096741%,85.096741%,81.959534%);fill-opacity:0.7;" d="M 200.699219 -2 C 200.699219 -7.226562 198.625 -12.234375 194.929688 -15.929688 C 191.234375 -19.625 186.226562 -21.699219 181 -21.699219 C 175.773438 -21.699219 170.765625 -19.625 167.070312 -15.929688 C 163.375 -12.234375 161.300781 -7.226562 161.300781 -2 C 161.300781 3.226562 163.375 8.234375 167.070312 11.929688 C 170.765625 15.625 175.773438 17.699219 181 17.699219 C 186.226562 17.699219 191.234375 15.625 194.929688 11.929688 C 198.625 8.234375 200.699219 3.226562 200.699219 -2 Z M 200.699219 -2 "/>
</g>
</svg>
