<?xml version="1.0" encoding="UTF-8"?>
<svg xmlns="http://www.w3.org/2000/svg" xmlns:xlink="http://www.w3.org/1999/xlink" width="361pt" height="361pt" viewBox="0 0 361 361" version="1.1">
<g id="surface7203">
<path style="fill-rule:nonzero;fill:rgb(0%,0%,0%);fill-opacity:1;stroke-width:0.03;stroke-linecap:square;stroke-linejoin:miter;stroke:rgb(0%,0%,0%);stroke-opacity:1;stroke-miterlimit:10;" d="M 0 178 L 360 178 L 360 -182 L 0 -182 Z M 0 178 " transform="matrix(1,0,0,1,0,182)"/>
<path style=" stroke:none;fill-rule:nonzero;fill:rgb(39.99939%,39.99939%,39.99939%);fill-opacity:0.3;" d="M 68.523438 51.429688 L 106.164062 56.753906 L 81.285156 142.488281 L 59.847656 136.675781 L 55 132.5625 L 51.429688 122.640625 L 52.960938 114.652344 Z M 68.523438 51.429688 "/>
<path style=" stroke:none;fill-rule:nonzero;fill:rgb(39.99939%,39.99939%,39.99939%);fill-opacity:0.3;" d="M 174.335938 251.296875 L 263.335938 280.054688 L 254.109375 308.570312 L 168.753906 281.460938 Z M 174.335938 251.296875 "/>
<path style=" stroke:none;fill-rule:nonzero;fill:rgb(39.99939%,39.99939%,39.99939%);fill-opacity:0.3;" d="M 99.925781 110.042969 L 193.210938 139.398438 L 194.359375 140.703125 L 195.273438 143.308594 L 187.9375 169.613281 L 109.550781 147.214844 L 100.382812 143.519531 L 96.714844 140.476562 L 94.195312 137 L 93.507812 133.738281 L 93.734375 129.824219 Z M 99.925781 110.042969 "/>
<path style=" stroke:none;fill-rule:nonzero;fill:rgb(39.99939%,39.99939%,39.99939%);fill-opacity:0.3;" d="M 201.484375 142.90625 L 284.914062 169.433594 L 285.828125 172.695312 L 286.289062 176.171875 L 283.992188 195.953125 L 282.390625 199 L 278.953125 198.5625 L 249.15625 188.996094 L 233.570312 183.34375 L 194.148438 170.730469 Z M 201.484375 142.90625 "/>
<path style=" stroke:none;fill-rule:nonzero;fill:rgb(39.99939%,39.99939%,39.99939%);fill-opacity:0.3;" d="M 91.898438 149.875 L 95.792969 148.570312 L 185.183594 176.402344 L 178.871094 206.492188 L 105.976562 184.660156 L 106.792969 173.136719 L 104.960938 169.003906 L 101.980469 165.960938 L 89.484375 161.429688 Z M 91.898438 149.875 "/>
<path style=" stroke:none;fill-rule:nonzero;fill:rgb(39.99939%,39.99939%,39.99939%);fill-opacity:0.3;" d="M 193.25 181.003906 L 279.65625 207.964844 L 274.089844 234.984375 L 187.160156 208.972656 Z M 193.25 181.003906 "/>
<path style=" stroke:none;fill-rule:nonzero;fill:rgb(39.99939%,39.99939%,39.99939%);fill-opacity:0.3;" d="M 102.082031 192.457031 L 173.945312 213.605469 L 167.171875 240.246094 L 99.019531 218.300781 Z M 102.082031 192.457031 "/>
<path style=" stroke:none;fill-rule:nonzero;fill:rgb(39.99939%,39.99939%,39.99939%);fill-opacity:0.3;" d="M 201.273438 222.132812 L 271.660156 242.953125 L 264.484375 271.765625 L 195.542969 249.511719 Z M 201.273438 222.132812 "/>
<path style=" stroke:none;fill-rule:nonzero;fill:rgb(39.99939%,39.99939%,39.99939%);fill-opacity:0.3;" d="M 98.128906 226.671875 L 170.453125 250.042969 L 164.28125 280.039062 L 107.851562 261.691406 Z M 98.128906 226.671875 "/>
<path style="fill-rule:nonzero;fill:rgb(39.99939%,39.99939%,39.99939%);fill-opacity:1;stroke-width:0.03;stroke-linecap:square;stroke-linejoin:miter;stroke:rgb(39.99939%,39.99939%,39.99939%);stroke-opacity:1;stroke-miterlimit:3.239307;" d="M 142.523438 64.429688 L 180.164062 69.753906 L 155.285156 155.488281 L 133.847656 149.675781 L 129 145.5625 L 125.429688 135.640625 L 126.960938 127.652344 Z M 142.523438 64.429688 " transform="matrix(1,0,0,1,-74,-13)"/>
<path style="fill-rule:nonzero;fill:rgb(39.99939%,39.99939%,39.99939%);fill-opacity:1;stroke-width:0.03;stroke-linecap:square;stroke-linejoin:miter;stroke:rgb(39.99939%,39.99939%,39.99939%);stroke-opacity:1;stroke-miterlimit:3.239307;" d="M 248.335938 264.296875 L 337.335938 293.054688 L 328.109375 321.570312 L 242.753906 294.460938 Z M 248.335938 264.296875 " transform="matrix(1,0,0,1,-74,-13)"/>
<path style="fill-rule:nonzero;fill:rgb(39.99939%,39.99939%,39.99939%);fill-opacity:1;stroke-width:0.03;stroke-linecap:square;stroke-linejoin:miter;stroke:rgb(39.99939%,39.99939%,39.99939%);stroke-opacity:1;stroke-miterlimit:3.239307;" d="M 173.925781 123.042969 L 267.210938 152.398438 L 268.359375 153.703125 L 269.273438 156.308594 L 261.9375 182.613281 L 183.550781 160.214844 L 174.382812 156.519531 L 170.714844 153.476562 L 168.195312 150 L 167.507812 146.738281 L 167.734375 142.824219 Z M 173.925781 123.042969 " transform="matrix(1,0,0,1,-74,-13)"/>
<path style="fill-rule:nonzero;fill:rgb(39.99939%,39.99939%,39.99939%);fill-opacity:1;stroke-width:0.03;stroke-linecap:square;stroke-linejoin:miter;stroke:rgb(39.99939%,39.99939%,39.99939%);stroke-opacity:1;stroke-miterlimit:3.239307;" d="M 275.484375 155.90625 L 358.914062 182.433594 L 359.828125 185.695312 L 360.289062 189.171875 L 357.992188 208.953125 L 356.390625 212 L 352.953125 211.5625 L 323.15625 201.996094 L 307.570312 196.34375 L 268.148438 183.730469 Z M 275.484375 155.90625 " transform="matrix(1,0,0,1,-74,-13)"/>
<path style="fill-rule:nonzero;fill:rgb(39.99939%,39.99939%,39.99939%);fill-opacity:1;stroke-width:0.03;stroke-linecap:square;stroke-linejoin:miter;stroke:rgb(39.99939%,39.99939%,39.99939%);stroke-opacity:1;stroke-miterlimit:3.239307;" d="M 165.898438 162.875 L 169.792969 161.570312 L 259.183594 189.402344 L 252.871094 219.492188 L 179.976562 197.660156 L 180.792969 186.136719 L 178.960938 182.003906 L 175.980469 178.960938 L 163.484375 174.429688 Z M 165.898438 162.875 " transform="matrix(1,0,0,1,-74,-13)"/>
<path style="fill-rule:nonzero;fill:rgb(39.99939%,39.99939%,39.99939%);fill-opacity:1;stroke-width:0.03;stroke-linecap:square;stroke-linejoin:miter;stroke:rgb(39.99939%,39.99939%,39.99939%);stroke-opacity:1;stroke-miterlimit:3.239307;" d="M 267.25 194.003906 L 353.65625 220.964844 L 348.089844 247.984375 L 261.160156 221.972656 Z M 267.25 194.003906 " transform="matrix(1,0,0,1,-74,-13)"/>
<path style="fill-rule:nonzero;fill:rgb(39.99939%,39.99939%,39.99939%);fill-opacity:1;stroke-width:0.03;stroke-linecap:square;stroke-linejoin:miter;stroke:rgb(39.99939%,39.99939%,39.99939%);stroke-opacity:1;stroke-miterlimit:3.239307;" d="M 176.082031 205.457031 L 247.945312 226.605469 L 241.171875 253.246094 L 173.019531 231.300781 Z M 176.082031 205.457031 " transform="matrix(1,0,0,1,-74,-13)"/>
<path style="fill-rule:nonzero;fill:rgb(39.99939%,39.99939%,39.99939%);fill-opacity:1;stroke-width:0.03;stroke-linecap:square;stroke-linejoin:miter;stroke:rgb(39.99939%,39.99939%,39.99939%);stroke-opacity:1;stroke-miterlimit:3.239307;" d="M 275.273438 235.132812 L 345.660156 255.953125 L 338.484375 284.765625 L 269.542969 262.511719 Z M 275.273438 235.132812 " transform="matrix(1,0,0,1,-74,-13)"/>
<path style="fill-rule:nonzero;fill:rgb(39.99939%,39.99939%,39.99939%);fill-opacity:1;stroke-width:0.03;stroke-linecap:square;stroke-linejoin:miter;stroke:rgb(39.99939%,39.99939%,39.99939%);stroke-opacity:1;stroke-miterlimit:3.239307;" d="M 172.128906 239.671875 L 244.453125 263.042969 L 238.28125 293.039062 L 181.851562 274.691406 Z M 172.128906 239.671875 " transform="matrix(1,0,0,1,-74,-13)"/>
</g>
</svg>
