<?xml version="1.0" encoding="UTF-8"?>
<svg xmlns="http://www.w3.org/2000/svg" xmlns:xlink="http://www.w3.org/1999/xlink" width="361pt" height="361pt" viewBox="0 0 361 361" version="1.1">
<defs>
<clipPath id="clip1">
  <path d="M 224 290 L 285 290 L 285 360 L 224 360 Z M 224 290 "/>
</clipPath>
<clipPath id="clip2">
  <path d="M 290 308 L 346 308 L 346 360 L 290 360 Z M 290 308 "/>
</clipPath>
<clipPath id="clip3">
  <path d="M 353 181 L 360 181 L 360 185 L 353 185 Z M 353 181 "/>
</clipPath>
<clipPath id="clip4">
  <path d="M 351 180 L 360 180 L 360 205 L 351 205 Z M 351 180 "/>
</clipPath>
<clipPath id="clip5">
  <path d="M 317 315 L 360 315 L 360 360 L 317 360 Z M 317 315 "/>
</clipPath>
<clipPath id="clip6">
  <path d="M 343 205 L 360 205 L 360 275 L 343 275 Z M 343 205 "/>
</clipPath>
<clipPath id="clip7">
  <path d="M 322 275 L 360 275 L 360 316 L 322 316 Z M 322 275 "/>
</clipPath>
<clipPath id="clip8">
  <path d="M 216 320 L 249 320 L 249 360 L 216 360 Z M 216 320 "/>
</clipPath>
<clipPath id="clip9">
  <path d="M 256 302 L 318 302 L 318 360 L 256 360 Z M 256 302 "/>
</clipPath>
<clipPath id="clip10">
  <path d="M 160 314 L 260 314 L 260 360 L 160 360 Z M 160 314 "/>
</clipPath>
<clipPath id="clip11">
  <path d="M 0 353 L 9 353 L 9 360 L 0 360 Z M 0 353 "/>
</clipPath>
<clipPath id="clip12">
  <path d="M 315 166 L 360 166 L 360 195 L 315 195 Z M 315 166 "/>
</clipPath>
<clipPath id="clip13">
  <path d="M 295 0 L 360 0 L 360 80 L 295 80 Z M 295 0 "/>
</clipPath>
<clipPath id="clip14">
  <path d="M 320 35 L 360 35 L 360 86 L 320 86 Z M 320 35 "/>
</clipPath>
<clipPath id="clip15">
  <path d="M 347 0 L 360 0 L 360 104 L 347 104 Z M 347 0 "/>
</clipPath>
<clipPath id="clip16">
  <path d="M 333 102 L 360 102 L 360 169 L 333 169 Z M 333 102 "/>
</clipPath>
<clipPath id="clip17">
  <path d="M 26 279 L 178 279 L 178 360 L 26 360 Z M 26 279 "/>
</clipPath>
<clipPath id="clip18">
  <path d="M 144 352 L 164 352 L 164 360 L 144 360 Z M 144 352 "/>
</clipPath>
<clipPath id="clip19">
  <path d="M 131 335 L 194 335 L 194 360 L 131 360 Z M 131 335 "/>
</clipPath>
<clipPath id="clip20">
  <path d="M 130 333 L 196 333 L 196 360 L 130 360 Z M 130 333 "/>
</clipPath>
<clipPath id="clip21">
  <path d="M 0 306 L 37 306 L 37 360 L 0 360 Z M 0 306 "/>
</clipPath>
<clipPath id="clip22">
  <path d="M 0 305 L 39 305 L 39 360 L 0 360 Z M 0 305 "/>
</clipPath>
</defs>
<g id="surface9758">
<path style="fill-rule:nonzero;fill:rgb(0%,0%,0%);fill-opacity:1;stroke-width:0.03;stroke-linecap:square;stroke-linejoin:miter;stroke:rgb(0%,0%,0%);stroke-opacity:1;stroke-miterlimit:10;" d="M 0 178 L 360 178 L 360 -182 L 0 -182 Z M 0 178 " transform="matrix(1,0,0,1,0,182)"/>
<path style=" stroke:none;fill-rule:nonzero;fill:rgb(39.99939%,39.99939%,39.99939%);fill-opacity:0.3;" d="M -156.785156 294.929688 L -144.785156 286.832031 L -128.964844 273.492188 L -122.046875 265.414062 L -118.144531 258.390625 L -114.316406 248.878906 L -110.65625 237.148438 L -106.894531 224.707031 L -105.546875 220.945312 L -103.714844 217.433594 L -101.542969 214.40625 L -97.808594 211.5 L -92.988281 208.195312 L -79.957031 200.164062 L -72.109375 194.734375 L -67.179688 191.003906 L -61.015625 186.53125 L -54.65625 181.757812 L -46.3125 170.785156 L -39.003906 160.539062 L -34.042969 149.796875 L -28.523438 138.175781 L -8.019531 88.90625 L 8.984375 103.859375 L 17.46875 111.316406 L 23.175781 116.335938 L 22.875 116.769531 L 16.167969 122.402344 L 9.550781 133.742188 L 7.859375 138.933594 L 6.691406 141.464844 L 1.699219 152.160156 L -4.363281 170.347656 L -7.4375 174.855469 L -20.515625 191.597656 L -23.261719 194.953125 L -25.710938 197.976562 L -36.328125 209.707031 L -44.738281 217.488281 L -62.816406 216.710938 L -78.261719 210.007812 L -82.035156 217.085938 L -79.742188 217.644531 L -79.640625 217.671875 L -77.246094 218.257812 L -74.535156 213.484375 L -63.199219 218.167969 L -46.234375 218.59375 L -46.835938 219.007812 L -48.933594 220.269531 L -70.328125 234.175781 L -71.398438 237.027344 L -73.222656 241.167969 L -73.375 241.46875 L -74.871094 244.621094 L -77.765625 249.390625 L -89.941406 267.335938 L -103.667969 278.320312 L -168.453125 319.644531 L -196.699219 336.144531 L -199.992188 324.613281 L -176.863281 308.558594 L -162.726562 299.019531 Z M -156.785156 294.929688 "/>
<path style=" stroke:none;fill-rule:nonzero;fill:rgb(39.99939%,39.99939%,39.99939%);fill-opacity:0.3;" d="M 23.175781 116.335938 L 23.277344 116.429688 L 22.875 116.769531 Z M 23.175781 116.335938 "/>
<path style=" stroke:none;fill-rule:nonzero;fill:rgb(39.99939%,39.99939%,39.99939%);fill-opacity:0.3;" d="M 7.859375 138.933594 L 2.988281 153.886719 L -2.507812 168.546875 L -7.4375 174.855469 L -4.363281 170.347656 L 1.699219 152.160156 L 6.691406 141.464844 Z M 7.859375 138.933594 "/>
<path style=" stroke:none;fill-rule:nonzero;fill:rgb(39.99939%,39.99939%,39.99939%);fill-opacity:0.3;" d="M 24.476562 120.457031 L 28.964844 128.753906 L 37.625 142.539062 L 44.214844 151.902344 L 51.714844 160.148438 L 58.628906 166.878906 L 52.828125 193.878906 L 23.527344 185.226562 L 21.492188 185.175781 L 20.015625 185.300781 L 18.3125 185.785156 L 16.425781 186.738281 L 15.320312 187.75 L 14.324219 188.820312 L 13.234375 190.382812 L 12.4375 191.953125 L 11.464844 194.886719 L 10.824219 197.96875 L 10.257812 201.023438 L 9.625 203.574219 L 8.707031 206 L 7.828125 207.699219 L 6.152344 210.273438 L 4.148438 212.789062 L 1.277344 215.878906 L -1.175781 218.324219 L -12.832031 209.363281 L -13.503906 210.160156 L -14.171875 210.957031 L -2.863281 219.539062 L -34.722656 253.832031 L -38.230469 259.433594 L -40.984375 265.703125 L -43.972656 269.617188 L -53.261719 272.871094 L -60.730469 274.199219 L -71.046875 276.097656 L -79.84375 276.601562 L -86.273438 277.644531 L -98.0625 283.203125 L -111.035156 289.796875 L -116.539062 294.578125 L -119.003906 298.453125 L -118.667969 304.570312 L -115.882812 311.8125 L -116.101562 314.726562 L -116.578125 316.726562 L -117.738281 318.761719 L -118.722656 319.796875 L -120.363281 320.703125 L -122.132812 321.3125 L -124.085938 321.628906 L -127.871094 321.75 L -129.992188 321.871094 L -132.417969 321.785156 L -141.617188 304.921875 L -89.140625 271.527344 L -84.644531 265.296875 L -70.5 240.574219 L -69.460938 238.972656 L -68.453125 237.597656 L -67.378906 236.285156 L -66.238281 235.054688 L -65.042969 233.933594 L -64.121094 233.171875 L -62.726562 232.175781 L -57.648438 228.695312 L -52.46875 225.320312 L -46.976562 221.585938 L -41.992188 218.976562 L -37.582031 215.683594 L -33.800781 212.542969 L -30.808594 209.398438 L -27.191406 204.914062 L -23.410156 200.726562 L -16.121094 192.835938 L -5.265625 178.652344 L 0.875 170.277344 L 8.359375 149.007812 L 10.542969 141.378906 L 14.917969 131.496094 L 17.851562 127.109375 Z M 24.476562 120.457031 "/>
<path style=" stroke:none;fill-rule:nonzero;fill:rgb(39.99939%,39.99939%,39.99939%);fill-opacity:0.3;" d="M 52.289062 195.742188 L 46.636719 220.226562 L 29.070312 216.851562 L 28.804688 218.230469 L 28.515625 219.71875 L 45.859375 223.199219 L 36.820312 255.09375 L 16.359375 249.339844 L 15.988281 250.25 L 15.558594 251.300781 L 36.488281 257.535156 L 33.238281 268.003906 L 4.609375 259.269531 L 4.394531 259.957031 L 4.132812 260.800781 L 32.570312 269.703125 L 25.324219 295.953125 L 16.390625 294.46875 L -31.851562 255.839844 L 0.839844 220.597656 L 4.121094 217.308594 L 7.015625 214.050781 L 9.503906 210.554688 L 11.175781 207.207031 L 12.101562 204.105469 L 12.679688 201.140625 L 13.5 197.09375 L 14.410156 194.328125 L 15.425781 192.375 L 16.765625 190.601562 L 18.117188 189.355469 L 19.683594 188.355469 L 21.863281 187.601562 L 22.730469 187.488281 L 25.542969 187.5 Z M 52.289062 195.742188 "/>
<path style=" stroke:none;fill-rule:nonzero;fill:rgb(39.99939%,39.99939%,39.99939%);fill-opacity:0.3;" d="M -54.5 294.882812 L -58.097656 292.226562 L -0.03125 289.003906 L 5.816406 292.078125 L 15.746094 297.871094 L 24.222656 300.46875 L 14.65625 330.347656 L 14.222656 331.984375 L 13.128906 335.269531 L 11.371094 338.542969 L -17.570312 332.144531 L -18.734375 313.890625 L -27.292969 313.492188 L -27.433594 317.414062 L -27.566406 321.066406 L -21.71875 321.332031 L -21.316406 334.46875 L 9.183594 341.476562 L 6.636719 344.203125 L 4.519531 345.960938 L 1.769531 348.429688 L -1.304688 350.804688 L -3.453125 352.410156 L -4.890625 353.402344 L -5.746094 353.925781 L -7 354.589844 L -8.203125 355.097656 L -9.421875 355.503906 L -13.832031 356.324219 L -17.828125 356.453125 L -22.125 356.144531 L -27.425781 355.402344 L -33.941406 354.210938 L -32.386719 342.035156 L -19.613281 345.523438 L -19.410156 343.507812 L -32.121094 339.933594 L -31.398438 334.28125 L -32.945312 334.121094 L -34.824219 333.925781 L -35.679688 341.152344 L -37.144531 353.558594 L -47.042969 351.550781 L -50.753906 351 L -54.34375 350.683594 L -58.3125 350.691406 L -62.023438 351.183594 L -66.742188 352.492188 L -73.035156 338.164062 L -67.792969 293.457031 L -30.84375 305.179688 L -30.492188 303.671875 L -30.171875 302.300781 Z M -54.5 294.882812 "/>
<path style=" stroke:none;fill-rule:nonzero;fill:rgb(39.99939%,39.99939%,39.99939%);fill-opacity:0.3;" d="M -21.023438 269.148438 L 0.535156 286.570312 L -32.261719 288.5 L -26.742188 283.058594 L -25.027344 281.0625 L -23.5625 279.121094 L -22.261719 277.074219 L -21.382812 275.164062 L -20.980469 273.5 L -20.875 271.714844 L -20.898438 270.902344 L -20.960938 269.929688 Z M -21.023438 269.148438 "/>
<path style=" stroke:none;fill-rule:nonzero;fill:rgb(39.99939%,39.99939%,39.99939%);fill-opacity:0.3;" d="M 178.070312 -97.433594 L 240.6875 -52.144531 L 223.308594 -29.671875 L 224.363281 -29.0625 L 225.503906 -28.402344 L 242.582031 -50.6875 L 259.945312 -38.039062 L 254.460938 -33.429688 L 249.765625 -30.433594 L 244.84375 -27.535156 L 242.328125 -26.105469 L 239.871094 -24.710938 L 235.148438 -22.320312 L 230.238281 -20.214844 L 224.785156 -18.183594 L 218.382812 -16.019531 L 212.546875 -14.144531 L 208.070312 -12.710938 L 203.066406 -11.082031 L 198.175781 -9.441406 L 194.203125 -8.074219 L 189.394531 -6.371094 L 183.457031 -4.214844 L 178.199219 -2.300781 L 173.121094 -0.484375 L 168.6875 1.097656 L 164.75 2.523438 L 159.921875 4.378906 L 153.125 7.472656 L 147.535156 10.390625 L 142.601562 13.183594 L 138.878906 15.507812 L 136.003906 17.484375 L 133.671875 19.40625 L 129.832031 17.484375 Z M 178.070312 -97.433594 "/>
<g clip-path="url(#clip1)" clip-rule="nonzero">
<path style=" stroke:none;fill-rule:nonzero;fill:rgb(39.99939%,39.99939%,39.99939%);fill-opacity:0.3;" d="M 232.507812 290.417969 L 276.050781 300.445312 L 284.320312 302.441406 L 278.132812 314.175781 L 260.199219 380.183594 L 244.257812 376.277344 L 238.65625 370.976562 L 250.957031 323.894531 L 252.773438 316.941406 L 251.71875 316.691406 L 250.746094 316.460938 L 248.5625 323.347656 L 224.898438 317.894531 Z M 232.507812 290.417969 "/>
</g>
<g clip-path="url(#clip2)" clip-rule="nonzero">
<path style=" stroke:none;fill-rule:nonzero;fill:rgb(39.99939%,39.99939%,39.99939%);fill-opacity:0.3;" d="M 320.753906 308.5625 L 345.691406 314.335938 L 339.691406 333.609375 L 337.375 343.285156 L 330.566406 371.703125 L 315.097656 410.664062 L 290.410156 408.273438 L 301.007812 363.046875 L 306.460938 348.59375 L 309.011719 339.035156 L 310.78125 330.601562 L 313.1875 322.871094 L 317.203125 314.40625 Z M 320.753906 308.5625 "/>
</g>
<g clip-path="url(#clip3)" clip-rule="nonzero">
<path style=" stroke:none;fill-rule:nonzero;fill:rgb(39.99939%,39.99939%,39.99939%);fill-opacity:0.3;" d="M 361.367188 181.585938 L 360.808594 181.75 L 356.59375 183.417969 L 353.445312 184.667969 L 359.707031 181.402344 Z M 361.367188 181.585938 "/>
</g>
<path style=" stroke:none;fill-rule:nonzero;fill:rgb(39.99939%,39.99939%,39.99939%);fill-opacity:0.3;" d="M 351.988281 185.429688 L 348.644531 187.570312 L 344.765625 189.746094 L 340.300781 192.03125 L 335.320312 194.109375 L 330.863281 195.511719 L 326.589844 196.425781 L 322.992188 196.847656 L 319.054688 197.011719 L 315.109375 197.015625 L 315.105469 194.472656 L 320.839844 193.167969 L 332.960938 193.167969 L 339.023438 191.386719 L 346.15625 187.820312 L 351.503906 185.679688 Z M 351.988281 185.429688 "/>
<path style=" stroke:none;fill-rule:nonzero;fill:rgb(39.99939%,39.99939%,39.99939%);fill-opacity:0.3;" d="M 320.75 199.644531 L 326.714844 198.972656 L 329.339844 198.503906 L 331.476562 197.980469 L 333.773438 197.257812 L 336.75 196.117188 L 338.789062 195.234375 L 341.121094 194.148438 L 343.136719 193.140625 L 345.496094 191.875 L 347.214844 190.863281 L 349.265625 189.65625 L 347.6875 201.019531 Z M 320.75 199.644531 "/>
<g clip-path="url(#clip4)" clip-rule="nonzero">
<path style=" stroke:none;fill-rule:nonzero;fill:rgb(39.99939%,39.99939%,39.99939%);fill-opacity:0.3;" d="M 352.523438 187.863281 L 356.285156 186.914062 L 359.234375 185.953125 L 361.851562 184.933594 L 365.941406 183.402344 L 370.984375 182.234375 L 373.984375 181.628906 L 377.707031 181.222656 L 381.414062 181.070312 L 386.109375 180.425781 L 390.296875 180.269531 L 387.484375 204.078125 L 351.214844 200.902344 Z M 352.523438 187.863281 "/>
</g>
<path style=" stroke:none;fill-rule:nonzero;fill:rgb(39.99939%,39.99939%,39.99939%);fill-opacity:0.3;" d="M 177.679688 309.714844 L 177.789062 309.828125 L 178.375 311.671875 L 178.109375 313.371094 L 172.183594 330.695312 Z M 177.679688 309.714844 "/>
<g clip-path="url(#clip5)" clip-rule="nonzero">
<path style=" stroke:none;fill-rule:nonzero;fill:rgb(39.99939%,39.99939%,39.99939%);fill-opacity:0.3;" d="M 436.433594 388.34375 L 428.125 392.734375 L 407.445312 394.023438 L 393.371094 400.457031 L 395.0625 405.253906 L 385.386719 409.019531 L 381.5 399.515625 L 381.109375 398.554688 L 380.390625 398.859375 L 379.675781 399.167969 L 380.082031 400.203125 L 383.804688 409.648438 L 371.222656 416.382812 L 350.851562 420.644531 L 317.476562 411.402344 L 332.457031 372.789062 L 342.824219 333.601562 L 350.203125 335.421875 L 349.351562 338.816406 L 355.160156 340.671875 L 353.957031 347.046875 L 354.917969 347.199219 L 355.910156 347.355469 L 357.066406 339.59375 L 351.402344 337.757812 L 352.535156 334.015625 L 353.804688 329.933594 L 353.101562 329.714844 L 352.425781 329.507812 L 350.941406 333.917969 L 343.246094 331.792969 L 349.347656 315.515625 L 378.558594 320.542969 L 385.894531 322.566406 L 390.917969 324.253906 L 394.339844 325.949219 L 397.550781 328.375 L 402.613281 333.71875 L 408.132812 340.335938 L 411.707031 344.574219 L 417.351562 350.910156 L 424.320312 358.960938 L 428.941406 365.273438 L 432.113281 370.878906 L 434.695312 378.121094 Z M 436.433594 388.34375 "/>
</g>
<path style=" stroke:none;fill-rule:nonzero;fill:rgb(39.99939%,39.99939%,39.99939%);fill-opacity:0.3;" d="M 186.523438 280.382812 L 227.691406 289.574219 L 221.515625 314.28125 L 183.144531 305.859375 L 180.539062 305.035156 L 179.292969 304.292969 L 178.136719 303.433594 L 177.078125 302.460938 L 176.136719 301.390625 L 175.707031 300.820312 L 174.953125 299.621094 L 174.332031 298.355469 L 173.855469 297.035156 L 173.527344 295.671875 L 173.351562 294.285156 L 173.328125 292.890625 L 173.371094 292.191406 L 173.578125 290.808594 L 173.9375 289.457031 L 174.445312 288.144531 L 174.75 287.507812 L 175.464844 286.289062 L 176.3125 285.144531 L 176.78125 284.605469 L 177.804688 283.605469 L 178.933594 282.707031 L 180.152344 281.929688 L 180.792969 281.585938 L 182.128906 280.996094 L 183.519531 280.542969 L 184.957031 280.234375 Z M 186.523438 280.382812 "/>
<path style=" stroke:none;fill-rule:nonzero;fill:rgb(39.99939%,39.99939%,39.99939%);fill-opacity:0.3;" d="M 313.488281 201.859375 L 346.351562 204.957031 L 338.003906 270.230469 L 299.378906 266.164062 Z M 313.488281 201.859375 "/>
<path style=" stroke:none;fill-rule:nonzero;fill:rgb(39.99939%,39.99939%,39.99939%);fill-opacity:0.3;" d="M 297.386719 270.335938 L 337.316406 274.835938 L 319.589844 304.394531 L 290.234375 297.421875 Z M 297.386719 270.335938 "/>
<g clip-path="url(#clip6)" clip-rule="nonzero">
<path style=" stroke:none;fill-rule:nonzero;fill:rgb(39.99939%,39.99939%,39.99939%);fill-opacity:0.3;" d="M 350.488281 205.347656 L 386.960938 208.792969 L 379.574219 274.605469 L 343.746094 270.875 Z M 350.488281 205.347656 "/>
</g>
<g clip-path="url(#clip7)" clip-rule="nonzero">
<path style=" stroke:none;fill-rule:nonzero;fill:rgb(39.99939%,39.99939%,39.99939%);fill-opacity:0.3;" d="M 340.914062 275.210938 L 379.449219 279.332031 L 374.101562 315.507812 L 349.140625 310.984375 L 322.984375 305.335938 Z M 340.914062 275.210938 "/>
</g>
<g clip-path="url(#clip8)" clip-rule="nonzero">
<path style=" stroke:none;fill-rule:nonzero;fill:rgb(39.99939%,39.99939%,39.99939%);fill-opacity:0.3;" d="M 224.171875 320.511719 L 248.058594 326.070312 L 236.804688 366.574219 L 216.957031 346.570312 Z M 224.171875 320.511719 "/>
</g>
<g clip-path="url(#clip9)" clip-rule="nonzero">
<path style=" stroke:none;fill-rule:nonzero;fill:rgb(39.99939%,39.99939%,39.99939%);fill-opacity:0.3;" d="M 287.929688 302.027344 L 317.90625 307.894531 L 314.675781 314.785156 L 311.289062 322.421875 L 308.910156 329.871094 L 306.871094 336.425781 L 304.914062 344.222656 L 298.875 362.433594 L 286.785156 411.707031 L 260.824219 409.480469 L 260.945312 407.042969 L 256.984375 406.328125 L 261.789062 381.910156 L 278.058594 325.007812 L 281.035156 315.382812 Z M 287.929688 302.027344 "/>
</g>
<path style=" stroke:none;fill-rule:nonzero;fill:rgb(39.99939%,39.99939%,39.99939%);fill-opacity:0.3;" d="M 181.679688 311.550781 L 219.929688 320.625 L 214.339844 343 Z M 181.679688 311.550781 "/>
<g clip-path="url(#clip10)" clip-rule="nonzero">
<path style=" stroke:none;fill-rule:nonzero;fill:rgb(39.99939%,39.99939%,39.99939%);fill-opacity:0.3;" d="M 180.5 314.789062 L 206.679688 341.070312 L 201.820312 349.640625 L 195.636719 366.03125 L 192.707031 374.882812 L 193.796875 375.136719 L 194.890625 375.390625 L 197.707031 366.390625 L 203.890625 350.230469 L 208.140625 342.453125 L 243.929688 378.851562 L 259.226562 382.753906 L 254.25 403.871094 L 244.027344 401.691406 L 234.546875 399.03125 L 160.257812 391.289062 L 166.023438 354.503906 Z M 180.5 314.789062 "/>
</g>
<g clip-path="url(#clip11)" clip-rule="nonzero">
<path style=" stroke:none;fill-rule:nonzero;fill:rgb(39.99939%,39.99939%,39.99939%);fill-opacity:0.3;" d="M -25.082031 358.714844 L -17.929688 359.640625 L -9.96875 359.714844 L -2.816406 359.539062 L 3.527344 358.683594 L 8.085938 357.914062 L 1.714844 384.945312 L -5.082031 414.871094 L -99.121094 390.234375 L -102.488281 390.261719 L -106.839844 390.210938 L -112.1875 389.832031 L -114.960938 389.425781 L -118.796875 388.601562 L -121.601562 387.835938 L -123.722656 386.613281 L -126.113281 384.914062 L -128.882812 383.144531 L -131.5 381.800781 L -136.585938 380.25 L -140.472656 379.191406 L -143.480469 378.6875 L -146.574219 378.40625 L -151.554688 378.546875 L -154.835938 378.832031 L -157.824219 379.105469 L -160.800781 379.128906 L -165.34375 379.546875 L -171.691406 380.300781 L -178.792969 381.96875 L -184.363281 383.320312 L -188.953125 384.984375 L -192.558594 386.441406 L -196.050781 388.3125 L -199.546875 390.492188 L -204.238281 394.542969 L -208.726562 398.023438 L -211.609375 401.402344 L -214.773438 405.875 L -219.042969 414.730469 L -217.398438 407.261719 L -215.8125 404.621094 L -208.328125 395.351562 L -209.351562 387.542969 L -207.449219 385.042969 L -204.1875 381.484375 L -200.777344 378.574219 L -196.332031 376.058594 L -193.507812 374.65625 L -188.335938 372.414062 L -183.789062 370.777344 L -180.207031 369.71875 L -176.148438 368.78125 L -171.191406 368.011719 L -166.316406 367.035156 L -163.433594 366.832031 L -158.40625 367.179688 L -129.523438 370.03125 L -125.085938 370.152344 L -123.828125 370.386719 L -120.152344 370.632812 L -116.234375 370.96875 L -112.1875 370.828125 L -105.804688 370.054688 L -99.265625 369.59375 L -88.429688 364.960938 L -78.785156 360.847656 L -70.542969 356.710938 L -58.367188 353.601562 L -52.007812 353.394531 L -60.378906 376.210938 L -59.027344 376.710938 L -50.503906 353.726562 L -27.460938 358.738281 L -42.574219 399.03125 L -41.019531 399.523438 Z M -25.082031 358.714844 "/>
</g>
<path style=" stroke:none;fill-rule:nonzero;fill:rgb(39.99939%,39.99939%,39.99939%);fill-opacity:0.3;" d="M 271.929688 -27.277344 L 280.128906 -19.800781 L 262.730469 -7.089844 L 248.105469 2.464844 L 238.179688 6.933594 L 208.007812 17.667969 L 186.875 24.988281 L 176.136719 29.027344 L 142.53125 42.179688 L 137.566406 42.929688 L 134.949219 39.835938 L 144.136719 30.707031 L 156.144531 23.230469 L 166.882812 18.398438 L 178.929688 13.707031 L 190.109375 9.429688 L 202.074219 5.582031 L 218.519531 0.480469 L 237.386719 -6.1875 L 260.417969 -18.875 Z M 271.929688 -27.277344 "/>
<g clip-path="url(#clip12)" clip-rule="nonzero">
<path style=" stroke:none;fill-rule:nonzero;fill:rgb(39.99939%,39.99939%,39.99939%);fill-opacity:0.3;" d="M 332.464844 166.996094 L 390.921875 173.484375 L 390.972656 175.289062 L 390.582031 176.746094 L 390.316406 176.976562 L 383.800781 178.667969 L 379.6875 178.726562 L 374.597656 178.949219 L 369.714844 179.519531 L 365.609375 180.34375 L 361.367188 181.585938 L 359.707031 181.402344 L 353.445312 184.667969 L 352.730469 184.953125 L 351.988281 185.429688 L 351.503906 185.679688 L 346.15625 187.820312 L 339.023438 191.386719 L 332.960938 193.167969 L 320.839844 193.167969 L 315.105469 194.472656 L 315.097656 190.078125 L 315.308594 185.820312 L 319.765625 186.085938 L 322.960938 185.777344 L 325.332031 185.007812 L 327.339844 183.75 L 328.699219 182.09375 L 329.46875 180.289062 L 329.945312 178.34375 Z M 332.464844 166.996094 "/>
</g>
<path style=" stroke:none;fill-rule:nonzero;fill:rgb(39.99939%,39.99939%,39.99939%);fill-opacity:0.3;" d="M 314.730469 182.417969 L 315.0625 182.476562 L 314.582031 183.40625 Z M 314.730469 182.417969 "/>
<g clip-path="url(#clip13)" clip-rule="nonzero">
<path style=" stroke:none;fill-rule:nonzero;fill:rgb(39.99939%,39.99939%,39.99939%);fill-opacity:0.3;" d="M 332.179688 -24.476562 L 377.058594 -11.617188 L 374.550781 -6.109375 L 370.863281 2.449219 L 366.886719 13.957031 L 365.417969 22.9375 L 364.109375 39.769531 L 344.871094 34.460938 L 345.640625 28.601562 L 334.472656 23.964844 L 331.996094 28.183594 L 332.898438 28.625 L 333.878906 29.101562 L 335.679688 26.316406 L 342.328125 29.042969 L 340.679688 33.335938 L 334.515625 48.269531 L 317.921875 79.617188 L 295.078125 73.804688 L 306.882812 49.414062 L 312.722656 27.699219 L 314.285156 19.261719 L 316.058594 14.046875 L 318.777344 10.273438 L 323.292969 3.910156 Z M 332.179688 -24.476562 "/>
</g>
<g clip-path="url(#clip14)" clip-rule="nonzero">
<path style=" stroke:none;fill-rule:nonzero;fill:rgb(39.99939%,39.99939%,39.99939%);fill-opacity:0.3;" d="M 342.425781 35.835938 L 363.4375 41.425781 L 363.757812 46.480469 L 361.832031 55.253906 L 360.941406 58.648438 L 357.96875 66.007812 L 353.058594 75.632812 L 346.566406 85.847656 L 320.375 79.570312 L 336.753906 49.253906 L 338.675781 44.953125 Z M 342.425781 35.835938 "/>
</g>
<path style=" stroke:none;fill-rule:nonzero;fill:rgb(39.99939%,39.99939%,39.99939%);fill-opacity:0.3;" d="M 262.144531 -4.625 L 263.800781 -0.769531 L 260.003906 20.601562 L 266.519531 24.199219 L 258.613281 46.25 L 254.652344 63.054688 L 210.058594 53.140625 L 206.25 21.652344 L 224.363281 14.566406 L 239.101562 8.792969 L 249.152344 4.445312 L 254.949219 0.664062 Z M 262.144531 -4.625 "/>
<path style=" stroke:none;fill-rule:nonzero;fill:rgb(39.99939%,39.99939%,39.99939%);fill-opacity:0.3;" d="M 265.445312 -0.28125 L 263.851562 -5.871094 L 285.328125 -19.933594 L 314.667969 -36.574219 L 316.511719 -29.402344 L 329.054688 -25.507812 L 320.671875 3.316406 L 316.003906 9.039062 L 313.375 13.605469 L 304.292969 49.382812 L 291.65625 71.988281 L 256.160156 63.183594 L 261.054688 44.796875 L 268.582031 23.289062 L 262.347656 19.535156 L 264.441406 6.792969 Z M 265.445312 -0.28125 "/>
<path style=" stroke:none;fill-rule:nonzero;fill:rgb(39.99939%,39.99939%,39.99939%);fill-opacity:0.3;" d="M 329.648438 168.417969 L 329.261719 170.390625 L 328.230469 173.339844 L 328.683594 170.703125 Z M 329.648438 168.417969 "/>
<path style=" stroke:none;fill-rule:nonzero;fill:rgb(39.99939%,39.99939%,39.99939%);fill-opacity:0.3;" d="M 154.890625 58.257812 L 154.824219 57.984375 L 144.832031 47.660156 L 143.984375 44.433594 L 160.667969 37.558594 L 169.34375 34.128906 L 179.644531 30.132812 L 186.859375 27.6875 L 194.847656 24.773438 L 202.394531 22.582031 L 205.125 54.039062 L 155.027344 58.382812 Z M 154.890625 58.257812 "/>
<g clip-path="url(#clip15)" clip-rule="nonzero">
<path style=" stroke:none;fill-rule:nonzero;fill:rgb(39.99939%,39.99939%,39.99939%);fill-opacity:0.3;" d="M 417.765625 -69.273438 L 422.109375 -17.113281 L 407.117188 33.882812 L 406.054688 43.203125 L 388.53125 41.683594 L 388.367188 43.941406 L 388.199219 46.199219 L 405.761719 47.304688 L 398.738281 103.382812 L 362.921875 98.753906 L 347.203125 96.722656 L 349.316406 88.71875 L 355.152344 78.71875 L 365.324219 56.46875 L 367.527344 47.84375 L 368.636719 25.128906 L 370.898438 12.6875 L 380.335938 -12.402344 L 399.539062 -38.777344 Z M 417.765625 -69.273438 "/>
</g>
<g clip-path="url(#clip16)" clip-rule="nonzero">
<path style=" stroke:none;fill-rule:nonzero;fill:rgb(39.99939%,39.99939%,39.99939%);fill-opacity:0.3;" d="M 344.941406 102.105469 L 398.539062 108.566406 L 391.445312 167.988281 L 371.113281 165.996094 L 370.984375 168.332031 L 355.070312 166.582031 L 360.566406 121.996094 L 358.214844 121.734375 L 355.859375 121.472656 L 350.316406 166.417969 L 333.570312 164.683594 L 341.828125 130.035156 L 342.488281 122.609375 L 342.148438 120.203125 L 342.3125 116.1875 L 342.886719 112.097656 L 343.351562 109.152344 L 343.914062 106.121094 Z M 344.941406 102.105469 "/>
</g>
<path style=" stroke:none;fill-rule:nonzero;fill:rgb(39.99939%,39.99939%,39.99939%);fill-opacity:0.3;" d="M 186.535156 166.96875 L 193.773438 164.210938 L 199.039062 163.207031 L 205.429688 163.578125 L 233.003906 171.722656 L 239.933594 173.75 L 273.902344 191.066406 L 297.128906 198.253906 L 311.058594 200.917969 L 308.570312 209.195312 L 293.09375 204.371094 L 292.125 203.851562 L 291.023438 203.324219 L 289.921875 203.097656 L 288.03125 202.707031 L 287.683594 202.636719 L 280.1875 199.230469 L 278.363281 198.351562 L 278.132812 198.144531 L 276.71875 196.886719 L 275.332031 195.84375 L 274.042969 194.972656 L 272.449219 194.203125 L 270.449219 193.578125 L 268.804688 193.058594 L 266.847656 192.730469 L 265.054688 192.460938 L 262.863281 192.3125 L 258.714844 192.148438 L 256.691406 192.148438 L 252.609375 191.425781 L 193.789062 177.195312 Z M 186.535156 166.96875 "/>
<path style=" stroke:none;fill-rule:nonzero;fill:rgb(39.99939%,39.99939%,39.99939%);fill-opacity:0.3;" d="M 258.828125 136.398438 L 312.949219 170.261719 L 314.273438 172.265625 L 315.863281 175.777344 L 316.039062 178.28125 L 315.691406 180.289062 L 315.199219 181.953125 L 313.660156 181.703125 L 310.882812 181.273438 L 307.816406 181.109375 L 306.253906 181.34375 L 304.777344 181.070312 L 303.550781 180.355469 L 302.699219 179.285156 L 301.585938 177.585938 L 300.363281 176.664062 L 298.070312 175.550781 L 296.011719 174.914062 L 294.496094 174.613281 L 294.460938 174.882812 L 294.429688 175.152344 L 295.984375 175.457031 L 298.03125 176.152344 L 300.105469 177.167969 L 301.148438 177.984375 L 302.453125 180.15625 L 303.273438 180.910156 L 304.449219 181.527344 L 305.503906 181.859375 L 306.464844 181.875 L 307.90625 181.621094 L 310.976562 181.78125 L 314.730469 182.417969 L 314.582031 183.40625 L 312.292969 187.859375 L 310.679688 189.988281 L 306.203125 192.496094 L 302.566406 193.285156 L 298.597656 193.761719 L 294.792969 193.609375 L 290.324219 192.671875 L 285.03125 191.578125 L 278.476562 189.492188 L 275.230469 188.542969 L 261.007812 181.089844 L 238.265625 169.277344 L 247.917969 163.050781 Z M 258.828125 136.398438 "/>
<path style=" stroke:none;fill-rule:nonzero;fill:rgb(39.99939%,39.99939%,39.99939%);fill-opacity:0.3;" d="M 293.847656 75.980469 L 316.46875 82.011719 L 301.722656 132.535156 L 302.710938 132.789062 L 303.78125 133.109375 L 318.742188 82.742188 L 328.851562 85.195312 L 345.085938 89.132812 L 339.898438 111.332031 L 339.699219 113.492188 L 339.460938 116.105469 L 339.417969 123.058594 L 338.542969 131.90625 L 334.570312 151.285156 L 330.441406 164.351562 L 329.648438 168.417969 L 328.683594 170.703125 L 328.230469 173.339844 L 327.640625 175.023438 L 326.460938 178.253906 L 323.945312 181.066406 L 320.34375 181.023438 L 318.617188 180.652344 L 319.347656 174.472656 L 317.554688 170.132812 L 314.15625 167.175781 L 267.335938 138.867188 Z M 293.847656 75.980469 "/>
<path style=" stroke:none;fill-rule:nonzero;fill:rgb(39.99939%,39.99939%,39.99939%);fill-opacity:0.3;" d="M 241.921875 100.757812 L 211.015625 90.773438 L 218.941406 59.148438 L 289.785156 75.097656 L 265.839844 137.121094 L 254.578125 130.253906 L 246.578125 126.472656 L 236.851562 124.492188 L 244.441406 103.984375 L 245.394531 103.703125 L 246.285156 103.230469 L 246.707031 102.683594 L 246.902344 101.734375 L 246.75 100.8125 L 246.277344 99.929688 L 245.53125 99.289062 L 244.691406 98.976562 L 243.765625 98.941406 L 243.121094 99.15625 L 242.527344 99.691406 L 242.152344 100.296875 Z M 241.921875 100.757812 "/>
<path style=" stroke:none;fill-rule:nonzero;fill:rgb(39.99939%,39.99939%,39.99939%);fill-opacity:0.3;" d="M 177.761719 133.59375 L 201.671875 135.238281 L 200.402344 150.261719 L 189.113281 149.976562 L 178.0625 149.867188 Z M 177.761719 133.59375 "/>
<path style=" stroke:none;fill-rule:nonzero;fill:rgb(39.99939%,39.99939%,39.99939%);fill-opacity:0.3;" d="M 93.269531 111.84375 L 165.34375 115.207031 L 179.8125 115.882812 L 195.65625 118.09375 L 228.636719 125.242188 L 240.152344 127.226562 L 247.953125 129.566406 L 253.03125 131.90625 L 256.871094 134.71875 L 245.136719 161.535156 L 232.917969 168.859375 L 225.320312 166.789062 L 216.054688 164.265625 L 208.945312 162.332031 L 204.136719 161.019531 L 198.292969 160.976562 L 193.027344 161.980469 L 189.117188 163.472656 L 185.039062 164.652344 L 178.765625 151.851562 L 201.855469 152.167969 L 210.328125 152.285156 L 210.328125 151.089844 L 210.324219 149.8125 L 203.585938 149.542969 L 204.242188 134.449219 L 177.417969 132.335938 L 164.957031 131.351562 L 164.941406 132.148438 L 176.394531 133.132812 L 176.601562 149.449219 L 165.164062 148.570312 L 165.09375 149.507812 L 176.101562 150.472656 L 181.835938 164.28125 L 174.164062 164.9375 L 167.476562 164.296875 L 160.667969 162.542969 L 154.972656 160.90625 L 152.9375 160.558594 L 153.800781 154.558594 L 152.402344 154.417969 L 151 154.277344 L 149.894531 160.445312 L 145.441406 160.683594 L 139.75 162.21875 L 136.285156 164.214844 L 127.703125 167.328125 L 124.238281 167.566406 L 121.019531 167.804688 L 115.078125 166.753906 L 108.394531 167.820312 L 102.457031 169.824219 L 98.128906 173.699219 L 96.402344 178.046875 L 93.527344 189.675781 L 89.832031 191.601562 L 84.636719 193.699219 L 80.058594 194.035156 L 70.894531 194.078125 L 81.675781 142.34375 L 89.347656 121.363281 Z M 93.269531 111.84375 "/>
<path style=" stroke:none;fill-rule:nonzero;fill:rgb(39.99939%,39.99939%,39.99939%);fill-opacity:0.3;" d="M 182.875 166.777344 L 190.265625 176.910156 L 167.167969 172.195312 L 160.789062 172.4375 L 154.519531 173.886719 L 141.40625 177.867188 L 130.046875 182.613281 L 125.636719 186 L 116.136719 191.601562 L 111.578125 194.3125 L 102.835938 196.847656 L 96.667969 197.898438 L 93.65625 197.535156 L 92.480469 195.816406 L 92.519531 193.910156 L 95.4375 190.765625 L 99.125 178.511719 L 100.480469 174.636719 L 104.3125 171.230469 L 114.855469 169.402344 L 121.796875 169.953125 L 128.6875 168.761719 L 137.207031 166.128906 L 142.105469 163.917969 L 146.660156 162.933594 L 154.84375 163.109375 L 160.375 164.851562 L 167.09375 166.46875 L 173.675781 167.207031 Z M 182.875 166.777344 "/>
<path style=" stroke:none;fill-rule:nonzero;fill:rgb(39.99939%,39.99939%,39.99939%);fill-opacity:0.3;" d="M 157.878906 70.121094 L 154.890625 58.257812 L 155.027344 58.382812 L 205.125 54.039062 L 205.195312 54.871094 L 215.039062 58.117188 L 207.582031 89.316406 L 206.269531 89.164062 L 204.667969 89.65625 L 203.675781 90.542969 L 203.089844 91.84375 L 203.210938 93.503906 L 204.050781 94.792969 L 205.4375 95.597656 L 206.59375 95.757812 L 207.835938 95.511719 L 208.890625 94.863281 L 209.5625 94.203125 L 240.238281 103.316406 L 233.886719 124.199219 L 206.441406 118.484375 L 193.996094 115.320312 L 182.667969 113.820312 L 170.863281 113.53125 L 146.515625 112.304688 L 146.625 105.039062 L 147.042969 101.625 L 148.113281 97.816406 L 149.472656 95.140625 L 151.601562 92.28125 L 155.476562 88.292969 L 154.921875 87.640625 L 154.234375 86.839844 L 150.125 90.957031 L 147.628906 93.945312 L 145.78125 97.117188 L 144.726562 100.265625 L 144.257812 102.789062 L 143.910156 108.253906 L 144.128906 112.121094 L 119.800781 110.589844 L 94.265625 108.703125 L 97.980469 98.320312 L 105.273438 84.105469 L 110.460938 75.160156 L 118.109375 63.117188 L 123.109375 55.894531 L 127.632812 50.261719 L 140.125 46.03125 L 152.808594 58.675781 L 155.539062 70.351562 L 156.613281 70.246094 Z M 157.878906 70.121094 "/>
<path style=" stroke:none;fill-rule:nonzero;fill:rgb(39.99939%,39.99939%,39.99939%);fill-opacity:0.3;" d="M 144.832031 47.660156 L 142.355469 45.101562 L 143.984375 44.433594 Z M 144.832031 47.660156 "/>
<path style=" stroke:none;fill-rule:nonzero;fill:rgb(39.99939%,39.99939%,39.99939%);fill-opacity:0.3;" d="M 99.53125 65.558594 L 95.636719 71.597656 L 90.800781 79.464844 L 86.519531 88.132812 L 84.527344 92.988281 L 76.441406 113.59375 L 72.167969 125.308594 L 69.683594 133.109375 L 66.789062 143.988281 L 64.78125 152.855469 L 62.449219 164.15625 L 56.617188 158.960938 L 53.355469 155.746094 L 49.640625 151.46875 L 45.03125 145.0625 L 41.117188 138.882812 L 36.984375 132.105469 L 32.46875 124.59375 L 27.726562 117.015625 L 37.972656 106.089844 L 46.320312 99.421875 L 58.054688 91.246094 L 68.21875 85.007812 L 87.691406 73.140625 L 94.609375 68.710938 L 96.195312 69.078125 L 97.902344 66.601562 Z M 99.53125 65.558594 "/>
<path style=" stroke:none;fill-rule:nonzero;fill:rgb(39.99939%,39.99939%,39.99939%);fill-opacity:0.3;" d="M 91.789062 199.816406 L 95.59375 199.441406 L 92.269531 200.300781 L 91.683594 200.253906 Z M 91.789062 199.816406 "/>
<path style=" stroke:none;fill-rule:nonzero;fill:rgb(39.99939%,39.99939%,39.99939%);fill-opacity:0.3;" d="M 110.75 48.625 L 107.980469 53.1875 L 107.363281 53.027344 Z M 110.75 48.625 "/>
<path style=" stroke:none;fill-rule:nonzero;fill:rgb(39.99939%,39.99939%,39.99939%);fill-opacity:0.3;" d="M 308.570312 209.195312 L 308.527344 209.335938 L 303.703125 208.402344 L 301.589844 208.179688 L 299.679688 207.601562 L 298.546875 207.261719 L 297.335938 206.773438 L 295.953125 206.011719 L 294.855469 205.40625 L 293.554688 204.621094 L 293.09375 204.371094 Z M 308.570312 209.195312 "/>
<path style=" stroke:none;fill-rule:nonzero;fill:rgb(39.99939%,39.99939%,39.99939%);fill-opacity:0.3;" d="M 287.683594 202.636719 L 286.410156 202.375 L 285.363281 202.160156 L 283.675781 201.765625 L 282.664062 201.417969 L 281.027344 200.527344 L 279.464844 199.328125 L 278.363281 198.351562 L 280.1875 199.230469 Z M 287.683594 202.636719 "/>
<path style=" stroke:none;fill-rule:nonzero;fill:rgb(39.99939%,39.99939%,39.99939%);fill-opacity:0.3;" d="M 256.691406 192.148438 L 255.585938 192.148438 L 252.609375 191.425781 Z M 256.691406 192.148438 "/>
<path style=" stroke:none;fill-rule:nonzero;fill:rgb(39.99939%,39.99939%,39.99939%);fill-opacity:0.3;" d="M 68.667969 200.578125 L 89.25 201.347656 L 82.296875 229.519531 L 102.695312 234.359375 L 91.296875 278.992188 L 85.394531 276.574219 L 82.285156 275.484375 L 78.671875 274.515625 L 76.445312 274.113281 L 73.867188 273.878906 L 70.664062 273.953125 L 68.535156 274.199219 L 64.652344 274.941406 L 61.507812 275.765625 L 56.238281 277.488281 L 52.644531 278.863281 L 51.429688 272.480469 L 58 247.902344 L 70.636719 250.222656 L 70.785156 249.382812 L 70.9375 248.496094 L 58.351562 246.109375 L 65.003906 219.277344 Z M 68.667969 200.578125 "/>
<path style=" stroke:none;fill-rule:nonzero;fill:rgb(39.99939%,39.99939%,39.99939%);fill-opacity:0.3;" d="M 176.179688 308.4375 L 176.515625 308.542969 L 176.542969 308.570312 Z M 176.179688 308.4375 "/>
<path style=" stroke:none;fill-rule:nonzero;fill:rgb(39.99939%,39.99939%,39.99939%);fill-opacity:0.3;" d="M 95.59375 199.441406 L 101.710938 198.835938 L 110.789062 196.269531 L 103.242188 231.472656 L 84.945312 227.621094 L 91.683594 200.253906 L 92.269531 200.300781 Z M 95.59375 199.441406 "/>
<path style=" stroke:none;fill-rule:nonzero;fill:rgb(39.99939%,39.99939%,39.99939%);fill-opacity:0.3;" d="M 144.71875 179.179688 L 155.238281 176 L 160.914062 174.886719 L 147.941406 218.621094 L 134.242188 214.992188 Z M 144.71875 179.179688 "/>
<path style=" stroke:none;fill-rule:nonzero;fill:rgb(39.99939%,39.99939%,39.99939%);fill-opacity:0.3;" d="M 112.628906 195.835938 L 142.664062 180.277344 L 132.976562 213.953125 L 110.183594 208.511719 Z M 112.628906 195.835938 "/>
<path style=" stroke:none;fill-rule:nonzero;fill:rgb(39.99939%,39.99939%,39.99939%);fill-opacity:0.3;" d="M 134.277344 217.265625 L 147.96875 221.101562 L 139.484375 247.746094 L 127.441406 244.5625 Z M 134.277344 217.265625 "/>
<path style=" stroke:none;fill-rule:nonzero;fill:rgb(39.99939%,39.99939%,39.99939%);fill-opacity:0.3;" d="M 110.398438 210.492188 L 131.683594 215.738281 L 126.023438 236.867188 L 106.105469 232.433594 Z M 110.398438 210.492188 "/>
<path style=" stroke:none;fill-rule:nonzero;fill:rgb(39.99939%,39.99939%,39.99939%);fill-opacity:0.3;" d="M 147.953125 230.238281 L 180.050781 237.566406 L 164.226562 291.460938 L 162.953125 293.691406 L 161.339844 295.097656 L 158.691406 296.238281 L 155.75 296.699219 L 153.097656 296.734375 L 149.851562 296.292969 L 117.074219 285.78125 L 126.378906 247.203125 L 141.417969 251.101562 Z M 147.953125 230.238281 "/>
<path style=" stroke:none;fill-rule:nonzero;fill:rgb(39.99939%,39.99939%,39.99939%);fill-opacity:0.3;" d="M 104.75 235.480469 L 124.117188 239.53125 L 118.15625 264.261719 L 99.007812 259.621094 Z M 104.75 235.480469 "/>
<path style=" stroke:none;fill-rule:nonzero;fill:rgb(39.99939%,39.99939%,39.99939%);fill-opacity:0.3;" d="M 98.804688 261.90625 L 118.269531 266.550781 L 113.265625 284.605469 L 94.015625 279.355469 Z M 98.804688 261.90625 "/>
<path style=" stroke:none;fill-rule:nonzero;fill:rgb(39.99939%,39.99939%,39.99939%);fill-opacity:0.3;" d="M 254.917969 194.441406 L 259.097656 194.453125 L 267.785156 195.660156 L 271.644531 196.777344 L 275.566406 198.746094 L 277.554688 200.519531 L 279.441406 202.191406 L 281.019531 203.277344 L 282.636719 203.972656 L 284.550781 204.425781 L 290.121094 205.886719 L 292.269531 206.753906 L 294.1875 207.699219 L 297.167969 209.34375 L 300.921875 210.472656 L 306.890625 211.105469 L 302.984375 228.195312 L 249.808594 216.515625 Z M 254.917969 194.441406 "/>
<path style=" stroke:none;fill-rule:nonzero;fill:rgb(39.99939%,39.99939%,39.99939%);fill-opacity:0.3;" d="M 248.683594 221.378906 L 301.554688 232.636719 L 295.355469 258.007812 L 242.769531 247.007812 Z M 248.683594 221.378906 "/>
<path style=" stroke:none;fill-rule:nonzero;fill:rgb(39.99939%,39.99939%,39.99939%);fill-opacity:0.3;" d="M 241.351562 253.144531 L 292.554688 264.058594 L 284.074219 296.5625 L 233.957031 285.195312 Z M 241.351562 253.144531 "/>
<path style=" stroke:none;fill-rule:nonzero;fill:rgb(39.99939%,39.99939%,39.99939%);fill-opacity:0.3;" d="M 156.570312 200.964844 L 188.054688 207.933594 L 181.65625 233.902344 L 149.558594 225.476562 Z M 156.570312 200.964844 "/>
<path style=" stroke:none;fill-rule:nonzero;fill:rgb(39.99939%,39.99939%,39.99939%);fill-opacity:0.3;" d="M 198.042969 182.960938 L 249.683594 193.640625 L 244.65625 215.6875 L 192.242188 204.636719 Z M 198.042969 182.960938 "/>
<path style=" stroke:none;fill-rule:nonzero;fill:rgb(39.99939%,39.99939%,39.99939%);fill-opacity:0.3;" d="M 163.769531 174.652344 L 193.296875 180.871094 L 187.558594 204.128906 L 157.101562 197.542969 Z M 163.769531 174.652344 "/>
<path style=" stroke:none;fill-rule:nonzero;fill:rgb(39.99939%,39.99939%,39.99939%);fill-opacity:0.3;" d="M 191.484375 208.363281 L 243.660156 220.042969 L 237.730469 246.054688 L 185.246094 233.695312 Z M 191.484375 208.363281 "/>
<path style=" stroke:none;fill-rule:nonzero;fill:rgb(39.99939%,39.99939%,39.99939%);fill-opacity:0.3;" d="M 185.304688 239.488281 L 236.40625 251.855469 L 228.945312 284.566406 L 175.765625 270.992188 Z M 185.304688 239.488281 "/>
<path style=" stroke:none;fill-rule:nonzero;fill:rgb(39.99939%,39.99939%,39.99939%);fill-opacity:0.3;" d="M 102.511719 55.25 L 103.023438 58.390625 L 101.789062 60.664062 L 66.394531 82.855469 L 56.085938 88.792969 L 44.0625 97.695312 L 25.730469 113.71875 L 11.289062 101.636719 L 2.589844 94.359375 L -6.222656 86.988281 L 0.179688 76.621094 L 5.382812 70.023438 L 7.816406 67.703125 L 9.9375 65.78125 L 12.925781 64.039062 L 21.851562 76.136719 L 22.558594 75.679688 L 23.15625 75.292969 L 14.78125 62.894531 L 17.875 61.257812 L 21.101562 59.957031 L 24.699219 58.625 L 28.101562 57.617188 L 32.679688 56.476562 L 38.113281 55.125 L 49.980469 52.449219 L 62.09375 50.09375 L 73.519531 47.816406 Z M 102.511719 55.25 "/>
<path style=" stroke:none;fill-rule:nonzero;fill:rgb(39.99939%,39.99939%,39.99939%);fill-opacity:0.3;" d="M 94.609375 68.710938 L 97.902344 66.601562 L 96.195312 69.078125 Z M 94.609375 68.710938 "/>
<path style=" stroke:none;fill-rule:nonzero;fill:rgb(39.99939%,39.99939%,39.99939%);fill-opacity:0.3;" d="M -23.613281 -1.527344 L 106.679688 4.953125 L 106.386719 32.050781 L 89.816406 37.78125 L 67.308594 42.894531 L 40.914062 37.378906 L 41.917969 20.851562 L 39.640625 20.792969 L 37.816406 20.746094 L 36.816406 36.734375 L -24.707031 24.03125 Z M -23.613281 -1.527344 "/>
<path style=" stroke:none;fill-rule:nonzero;fill:rgb(39.99939%,39.99939%,39.99939%);fill-opacity:0.3;" d="M 118.871094 35.242188 L 110.75 48.625 L 107.363281 53.027344 L 80.863281 46.128906 L 95.046875 42.613281 Z M 118.871094 35.242188 "/>
<path style=" stroke:none;fill-rule:nonzero;fill:rgb(39.99939%,39.99939%,39.99939%);fill-opacity:0.3;" d="M 2.449219 33.683594 L 58.488281 44.769531 L 44.601562 46.855469 L 34.941406 49.015625 L 27.515625 51.171875 L 19.695312 53.644531 L 15.222656 55.296875 L 10.289062 57.71875 L 7.117188 59.835938 L 4.160156 62.261719 L 1.242188 65.09375 L -2.191406 68.980469 L -5.796875 73.722656 L -8.210938 77.246094 L -11.105469 82.605469 L -16.101562 80.539062 L -7.371094 41.53125 L -0.0351562 42.113281 Z M 2.449219 33.683594 "/>
<path style=" stroke:none;fill-rule:nonzero;fill:rgb(39.99939%,39.99939%,39.99939%);fill-opacity:0.3;" d="M 88.332031 -22.433594 L 136.863281 -20.007812 L 120.277344 26.796875 L 110.570312 29.664062 L 110.53125 1.660156 L 87.394531 -0.140625 Z M 88.332031 -22.433594 "/>
<path style=" stroke:none;fill-rule:nonzero;fill:rgb(39.99939%,39.99939%,39.99939%);fill-opacity:0.3;" d="M 52.644531 278.863281 L 49.390625 280.109375 L 51.429688 272.480469 Z M 52.644531 278.863281 "/>
<g clip-path="url(#clip17)" clip-rule="nonzero">
<path style=" stroke:none;fill-rule:nonzero;fill:rgb(39.99939%,39.99939%,39.99939%);fill-opacity:0.3;" d="M 90.21875 281.996094 L 77.261719 337.726562 L 62.320312 334.515625 L 62.125 335.285156 L 61.933594 336.058594 L 78.070312 339.578125 L 92.128906 342.640625 L 110.222656 346.585938 L 128.027344 293.585938 L 149.855469 300.339844 L 139.433594 330.046875 L 140.246094 330.324219 L 141.175781 330.644531 L 151.601562 300.898438 L 163.078125 304.289062 L 155.609375 327.523438 L 153.847656 333.007812 L 154.503906 333.265625 L 155.292969 333.574219 L 157.136719 328.011719 L 164.808594 304.855469 L 176.179688 308.4375 L 176.542969 308.570312 L 177.679688 309.714844 L 172.183594 330.695312 L 164.195312 354.042969 L 148.742188 350.601562 L 142.429688 387.980469 L 141.835938 387.863281 L 121.867188 384.296875 L 108.316406 381.800781 L 101.628906 380.730469 L 88.921875 378.332031 L 71.582031 373.683594 L 63.324219 371.121094 L 64.097656 365.507812 L 64.878906 359.820312 L 65.480469 355.445312 L 64.328125 355.363281 L 63.179688 355.28125 L 62.164062 362.691406 L 61.101562 370.429688 L 59.824219 370.03125 L 54.390625 368.449219 L 26.953125 359.472656 L 31.335938 343.640625 L 34.042969 335.125 L 36.394531 328.875 L 39.265625 322.246094 L 43.660156 313.167969 L 50.679688 298.949219 L 52.363281 295.539062 L 54.839844 291.433594 L 56.9375 288.496094 L 58.867188 286.332031 L 62.542969 283.265625 L 66.019531 281.308594 L 69.90625 279.988281 L 74.117188 279.34375 L 78.820312 279.375 L 83.945312 280.195312 Z M 90.21875 281.996094 "/>
</g>
<g clip-path="url(#clip18)" clip-rule="nonzero">
<path style=" stroke:none;fill-rule:nonzero;fill:rgb(39.99939%,39.99939%,39.99939%);fill-opacity:0.3;" d="M 150.066406 352.390625 L 163.984375 355.46875 L 158.023438 390.46875 L 145.402344 388.574219 L 144.066406 388.308594 Z M 150.066406 352.390625 "/>
</g>
<path style=" stroke:none;fill-rule:nonzero;fill:rgb(39.99939%,39.99939%,39.99939%);fill-opacity:0.3;" d="M 116.070312 289.800781 L 125.757812 292.925781 L 108.640625 344.179688 L 100.707031 341.996094 Z M 116.070312 289.800781 "/>
<path style=" stroke:none;fill-rule:nonzero;fill:rgb(39.99939%,39.99939%,39.99939%);fill-opacity:0.3;" d="M 92.109375 282.578125 L 113.386719 288.914062 L 97.6875 341.707031 L 79.714844 337.648438 Z M 92.109375 282.578125 "/>
<path style="fill-rule:nonzero;fill:rgb(39.99939%,39.99939%,39.99939%);fill-opacity:1;stroke-width:0.03;stroke-linecap:square;stroke-linejoin:miter;stroke:rgb(39.99939%,39.99939%,39.99939%);stroke-opacity:1;stroke-miterlimit:3.239307;" d="M 382.570312 222.195312 L 382.527344 222.335938 L 377.703125 221.402344 L 375.589844 221.179688 L 373.679688 220.601562 L 372.546875 220.261719 L 371.335938 219.773438 L 369.953125 219.011719 L 368.855469 218.40625 L 367.554688 217.621094 L 367.09375 217.371094 Z M 382.570312 222.195312 " transform="matrix(1,0,0,1,-74,-13)"/>
<path style="fill-rule:nonzero;fill:rgb(39.99939%,39.99939%,39.99939%);fill-opacity:1;stroke-width:0.03;stroke-linecap:square;stroke-linejoin:miter;stroke:rgb(39.99939%,39.99939%,39.99939%);stroke-opacity:1;stroke-miterlimit:3.239307;" d="M 361.683594 215.636719 L 360.410156 215.375 L 359.363281 215.160156 L 357.675781 214.765625 L 356.664062 214.417969 L 355.027344 213.527344 L 353.464844 212.328125 L 352.363281 211.351562 L 354.1875 212.230469 Z M 361.683594 215.636719 " transform="matrix(1,0,0,1,-74,-13)"/>
<path style="fill-rule:nonzero;fill:rgb(39.99939%,39.99939%,39.99939%);fill-opacity:1;stroke-width:0.03;stroke-linecap:square;stroke-linejoin:miter;stroke:rgb(39.99939%,39.99939%,39.99939%);stroke-opacity:1;stroke-miterlimit:3.239307;" d="M 330.691406 205.148438 L 329.585938 205.148438 L 326.609375 204.425781 Z M 330.691406 205.148438 " transform="matrix(1,0,0,1,-74,-13)"/>
<path style="fill-rule:nonzero;fill:rgb(39.99939%,39.99939%,39.99939%);fill-opacity:1;stroke-width:0.03;stroke-linecap:square;stroke-linejoin:miter;stroke:rgb(39.99939%,39.99939%,39.99939%);stroke-opacity:1;stroke-miterlimit:3.239307;" d="M 142.667969 213.578125 L 163.25 214.347656 L 156.296875 242.519531 L 176.695312 247.359375 L 165.296875 291.992188 L 159.394531 289.574219 L 156.285156 288.484375 L 152.671875 287.515625 L 150.445312 287.113281 L 147.867188 286.878906 L 144.664062 286.953125 L 142.535156 287.199219 L 138.652344 287.941406 L 135.507812 288.765625 L 130.238281 290.488281 L 126.644531 291.863281 L 125.429688 285.480469 L 132 260.902344 L 144.636719 263.222656 L 144.785156 262.382812 L 144.9375 261.496094 L 132.351562 259.109375 L 139.003906 232.277344 Z M 142.667969 213.578125 " transform="matrix(1,0,0,1,-74,-13)"/>
<path style="fill-rule:nonzero;fill:rgb(39.99939%,39.99939%,39.99939%);fill-opacity:1;stroke-width:0.03;stroke-linecap:square;stroke-linejoin:miter;stroke:rgb(39.99939%,39.99939%,39.99939%);stroke-opacity:1;stroke-miterlimit:3.239307;" d="M 250.179688 321.4375 L 250.515625 321.542969 L 250.542969 321.570312 Z M 250.179688 321.4375 " transform="matrix(1,0,0,1,-74,-13)"/>
<path style="fill-rule:nonzero;fill:rgb(39.99939%,39.99939%,39.99939%);fill-opacity:1;stroke-width:0.03;stroke-linecap:square;stroke-linejoin:miter;stroke:rgb(39.99939%,39.99939%,39.99939%);stroke-opacity:1;stroke-miterlimit:3.239307;" d="M 169.59375 212.441406 L 175.710938 211.835938 L 184.789062 209.269531 L 177.242188 244.472656 L 158.945312 240.621094 L 165.683594 213.253906 L 166.269531 213.300781 Z M 169.59375 212.441406 " transform="matrix(1,0,0,1,-74,-13)"/>
<path style="fill-rule:nonzero;fill:rgb(39.99939%,39.99939%,39.99939%);fill-opacity:1;stroke-width:0.03;stroke-linecap:square;stroke-linejoin:miter;stroke:rgb(39.99939%,39.99939%,39.99939%);stroke-opacity:1;stroke-miterlimit:3.239307;" d="M 218.71875 192.179688 L 229.238281 189 L 234.914062 187.886719 L 221.941406 231.621094 L 208.242188 227.992188 Z M 218.71875 192.179688 " transform="matrix(1,0,0,1,-74,-13)"/>
<path style="fill-rule:nonzero;fill:rgb(39.99939%,39.99939%,39.99939%);fill-opacity:1;stroke-width:0.03;stroke-linecap:square;stroke-linejoin:miter;stroke:rgb(39.99939%,39.99939%,39.99939%);stroke-opacity:1;stroke-miterlimit:3.239307;" d="M 186.628906 208.835938 L 216.664062 193.277344 L 206.976562 226.953125 L 184.183594 221.511719 Z M 186.628906 208.835938 " transform="matrix(1,0,0,1,-74,-13)"/>
<path style="fill-rule:nonzero;fill:rgb(39.99939%,39.99939%,39.99939%);fill-opacity:1;stroke-width:0.03;stroke-linecap:square;stroke-linejoin:miter;stroke:rgb(39.99939%,39.99939%,39.99939%);stroke-opacity:1;stroke-miterlimit:3.239307;" d="M 208.277344 230.265625 L 221.96875 234.101562 L 213.484375 260.746094 L 201.441406 257.5625 Z M 208.277344 230.265625 " transform="matrix(1,0,0,1,-74,-13)"/>
<path style="fill-rule:nonzero;fill:rgb(39.99939%,39.99939%,39.99939%);fill-opacity:1;stroke-width:0.03;stroke-linecap:square;stroke-linejoin:miter;stroke:rgb(39.99939%,39.99939%,39.99939%);stroke-opacity:1;stroke-miterlimit:3.239307;" d="M 184.398438 223.492188 L 205.683594 228.738281 L 200.023438 249.867188 L 180.105469 245.433594 Z M 184.398438 223.492188 " transform="matrix(1,0,0,1,-74,-13)"/>
<path style="fill-rule:nonzero;fill:rgb(39.99939%,39.99939%,39.99939%);fill-opacity:1;stroke-width:0.03;stroke-linecap:square;stroke-linejoin:miter;stroke:rgb(39.99939%,39.99939%,39.99939%);stroke-opacity:1;stroke-miterlimit:3.239307;" d="M 221.953125 243.238281 L 254.050781 250.566406 L 238.226562 304.460938 L 236.953125 306.691406 L 235.339844 308.097656 L 232.691406 309.238281 L 229.75 309.699219 L 227.097656 309.734375 L 223.851562 309.292969 L 191.074219 298.78125 L 200.378906 260.203125 L 215.417969 264.101562 Z M 221.953125 243.238281 " transform="matrix(1,0,0,1,-74,-13)"/>
<path style="fill-rule:nonzero;fill:rgb(39.99939%,39.99939%,39.99939%);fill-opacity:1;stroke-width:0.03;stroke-linecap:square;stroke-linejoin:miter;stroke:rgb(39.99939%,39.99939%,39.99939%);stroke-opacity:1;stroke-miterlimit:3.239307;" d="M 178.75 248.480469 L 198.117188 252.53125 L 192.15625 277.261719 L 173.007812 272.621094 Z M 178.75 248.480469 " transform="matrix(1,0,0,1,-74,-13)"/>
<path style="fill-rule:nonzero;fill:rgb(39.99939%,39.99939%,39.99939%);fill-opacity:1;stroke-width:0.03;stroke-linecap:square;stroke-linejoin:miter;stroke:rgb(39.99939%,39.99939%,39.99939%);stroke-opacity:1;stroke-miterlimit:3.239307;" d="M 172.804688 274.90625 L 192.269531 279.550781 L 187.265625 297.605469 L 168.015625 292.355469 Z M 172.804688 274.90625 " transform="matrix(1,0,0,1,-74,-13)"/>
<path style="fill-rule:nonzero;fill:rgb(39.99939%,39.99939%,39.99939%);fill-opacity:1;stroke-width:0.03;stroke-linecap:square;stroke-linejoin:miter;stroke:rgb(39.99939%,39.99939%,39.99939%);stroke-opacity:1;stroke-miterlimit:3.239307;" d="M 328.917969 207.441406 L 333.097656 207.453125 L 341.785156 208.660156 L 345.644531 209.777344 L 349.566406 211.746094 L 351.554688 213.519531 L 353.441406 215.191406 L 355.019531 216.277344 L 356.636719 216.972656 L 358.550781 217.425781 L 364.121094 218.886719 L 366.269531 219.753906 L 368.1875 220.699219 L 371.167969 222.34375 L 374.921875 223.472656 L 380.890625 224.105469 L 376.984375 241.195312 L 323.808594 229.515625 Z M 328.917969 207.441406 " transform="matrix(1,0,0,1,-74,-13)"/>
<path style="fill-rule:nonzero;fill:rgb(39.99939%,39.99939%,39.99939%);fill-opacity:1;stroke-width:0.03;stroke-linecap:square;stroke-linejoin:miter;stroke:rgb(39.99939%,39.99939%,39.99939%);stroke-opacity:1;stroke-miterlimit:3.239307;" d="M 322.683594 234.378906 L 375.554688 245.636719 L 369.355469 271.007812 L 316.769531 260.007812 Z M 322.683594 234.378906 " transform="matrix(1,0,0,1,-74,-13)"/>
<path style="fill-rule:nonzero;fill:rgb(39.99939%,39.99939%,39.99939%);fill-opacity:1;stroke-width:0.03;stroke-linecap:square;stroke-linejoin:miter;stroke:rgb(39.99939%,39.99939%,39.99939%);stroke-opacity:1;stroke-miterlimit:3.239307;" d="M 315.351562 266.144531 L 366.554688 277.058594 L 358.074219 309.5625 L 307.957031 298.195312 Z M 315.351562 266.144531 " transform="matrix(1,0,0,1,-74,-13)"/>
<path style="fill-rule:nonzero;fill:rgb(39.99939%,39.99939%,39.99939%);fill-opacity:1;stroke-width:0.03;stroke-linecap:square;stroke-linejoin:miter;stroke:rgb(39.99939%,39.99939%,39.99939%);stroke-opacity:1;stroke-miterlimit:3.239307;" d="M 230.570312 213.964844 L 262.054688 220.933594 L 255.65625 246.902344 L 223.558594 238.476562 Z M 230.570312 213.964844 " transform="matrix(1,0,0,1,-74,-13)"/>
<path style="fill-rule:nonzero;fill:rgb(39.99939%,39.99939%,39.99939%);fill-opacity:1;stroke-width:0.03;stroke-linecap:square;stroke-linejoin:miter;stroke:rgb(39.99939%,39.99939%,39.99939%);stroke-opacity:1;stroke-miterlimit:3.239307;" d="M 272.042969 195.960938 L 323.683594 206.640625 L 318.65625 228.6875 L 266.242188 217.636719 Z M 272.042969 195.960938 " transform="matrix(1,0,0,1,-74,-13)"/>
<path style="fill-rule:nonzero;fill:rgb(39.99939%,39.99939%,39.99939%);fill-opacity:1;stroke-width:0.03;stroke-linecap:square;stroke-linejoin:miter;stroke:rgb(39.99939%,39.99939%,39.99939%);stroke-opacity:1;stroke-miterlimit:3.239307;" d="M 237.769531 187.652344 L 267.296875 193.871094 L 261.558594 217.128906 L 231.101562 210.542969 Z M 237.769531 187.652344 " transform="matrix(1,0,0,1,-74,-13)"/>
<path style="fill-rule:nonzero;fill:rgb(39.99939%,39.99939%,39.99939%);fill-opacity:1;stroke-width:0.03;stroke-linecap:square;stroke-linejoin:miter;stroke:rgb(39.99939%,39.99939%,39.99939%);stroke-opacity:1;stroke-miterlimit:3.239307;" d="M 265.484375 221.363281 L 317.660156 233.042969 L 311.730469 259.054688 L 259.246094 246.695312 Z M 265.484375 221.363281 " transform="matrix(1,0,0,1,-74,-13)"/>
<path style="fill-rule:nonzero;fill:rgb(39.99939%,39.99939%,39.99939%);fill-opacity:1;stroke-width:0.03;stroke-linecap:square;stroke-linejoin:miter;stroke:rgb(39.99939%,39.99939%,39.99939%);stroke-opacity:1;stroke-miterlimit:3.239307;" d="M 259.304688 252.488281 L 310.40625 264.855469 L 302.945312 297.566406 L 249.765625 283.992188 Z M 259.304688 252.488281 " transform="matrix(1,0,0,1,-74,-13)"/>
<path style=" stroke:none;fill-rule:evenodd;fill:rgb(85.096741%,85.096741%,81.959534%);fill-opacity:0.7;" d="M 192.261719 146 C 192.261719 142.21875 190.761719 138.589844 188.085938 135.914062 C 185.410156 133.238281 181.78125 131.738281 178 131.738281 C 174.21875 131.738281 170.589844 133.238281 167.914062 135.914062 C 165.238281 138.589844 163.738281 142.21875 163.738281 146 C 163.738281 149.78125 165.238281 153.410156 167.914062 156.085938 C 170.589844 158.761719 174.21875 160.261719 178 160.261719 C 181.78125 160.261719 185.410156 158.761719 188.085938 156.085938 C 190.761719 153.410156 192.261719 149.78125 192.261719 146 Z M 192.261719 146 "/>
<path style=" stroke:none;fill-rule:evenodd;fill:rgb(85.096741%,85.096741%,81.959534%);fill-opacity:0.7;" d="M 239.261719 57 C 239.261719 53.21875 237.761719 49.589844 235.085938 46.914062 C 232.410156 44.238281 228.78125 42.738281 225 42.738281 C 221.21875 42.738281 217.589844 44.238281 214.914062 46.914062 C 212.238281 49.589844 210.738281 53.21875 210.738281 57 C 210.738281 60.78125 212.238281 64.410156 214.914062 67.085938 C 217.589844 69.761719 221.21875 71.261719 225 71.261719 C 228.78125 71.261719 232.410156 69.761719 235.085938 67.085938 C 237.761719 64.410156 239.261719 60.78125 239.261719 57 Z M 239.261719 57 "/>
<path style=" stroke:none;fill-rule:evenodd;fill:rgb(85.096741%,85.096741%,81.959534%);fill-opacity:0.7;" d="M 168.261719 21 C 168.261719 17.21875 166.761719 13.589844 164.085938 10.914062 C 161.410156 8.238281 157.78125 6.738281 154 6.738281 C 150.21875 6.738281 146.589844 8.238281 143.914062 10.914062 C 141.238281 13.589844 139.738281 17.21875 139.738281 21 C 139.738281 24.78125 141.238281 28.410156 143.914062 31.085938 C 146.589844 33.761719 150.21875 35.261719 154 35.261719 C 157.78125 35.261719 161.410156 33.761719 164.085938 31.085938 C 166.761719 28.410156 168.261719 24.78125 168.261719 21 Z M 168.261719 21 "/>
<path style=" stroke:none;fill-rule:evenodd;fill:rgb(85.096741%,85.096741%,81.959534%);fill-opacity:0.7;" d="M 154.261719 176 C 154.261719 172.21875 152.761719 168.589844 150.085938 165.914062 C 147.410156 163.238281 143.78125 161.738281 140 161.738281 C 136.21875 161.738281 132.589844 163.238281 129.914062 165.914062 C 127.238281 168.589844 125.738281 172.21875 125.738281 176 C 125.738281 179.78125 127.238281 183.410156 129.914062 186.085938 C 132.589844 188.761719 136.21875 190.261719 140 190.261719 C 143.78125 190.261719 147.410156 188.761719 150.085938 186.085938 C 152.761719 183.410156 154.261719 179.78125 154.261719 176 Z M 154.261719 176 "/>
<path style="fill-rule:nonzero;fill:rgb(99.998474%,99.998474%,30.587769%);fill-opacity:0.8;stroke-width:0.288;stroke-linecap:square;stroke-linejoin:miter;stroke:rgb(0%,0%,0%);stroke-opacity:0.8;stroke-miterlimit:3.25;" d="M 233.308594 162.664062 L 202.425781 216.152344 L 264.1875 216.152344 Z M 233.308594 162.664062 " transform="matrix(1,0,0,1,-74,-13)"/>
<path style="fill:none;stroke-width:0.288;stroke-linecap:square;stroke-linejoin:miter;stroke:rgb(0%,0%,0%);stroke-opacity:0.8;stroke-miterlimit:3.25;" d="M 154.859375 -40.585938 L 123.980469 12.902344 L 185.742188 12.902344 Z M 154.859375 -40.585938 " transform="matrix(1,0,0,1,-74,-13)"/>
<g clip-path="url(#clip19)" clip-rule="nonzero">
<path style=" stroke:none;fill-rule:nonzero;fill:rgb(99.998474%,99.998474%,30.587769%);fill-opacity:0.8;" d="M 162.875 335.085938 L 131.992188 388.574219 L 193.753906 388.574219 Z M 162.875 335.085938 "/>
</g>
<g clip-path="url(#clip20)" clip-rule="nonzero">
<path style="fill:none;stroke-width:0.288;stroke-linecap:square;stroke-linejoin:miter;stroke:rgb(0%,0%,0%);stroke-opacity:0.8;stroke-miterlimit:3.25;" d="M 236.875 348.085938 L 205.992188 401.574219 L 267.753906 401.574219 Z M 236.875 348.085938 " transform="matrix(1,0,0,1,-74,-13)"/>
</g>
<path style="fill-rule:nonzero;fill:rgb(99.998474%,99.998474%,30.587769%);fill-opacity:0.8;stroke-width:0.288;stroke-linecap:square;stroke-linejoin:miter;stroke:rgb(0%,0%,0%);stroke-opacity:0.8;stroke-miterlimit:3.25;" d="M 301.058594 127.007812 L 270.175781 180.496094 L 331.9375 180.496094 Z M 301.058594 127.007812 " transform="matrix(1,0,0,1,-74,-13)"/>
<path style="fill-rule:nonzero;fill:rgb(99.998474%,99.998474%,30.587769%);fill-opacity:0.8;stroke-width:0.288;stroke-linecap:square;stroke-linejoin:miter;stroke:rgb(0%,0%,0%);stroke-opacity:0.8;stroke-miterlimit:3.25;" d="M 222.609375 148.402344 L 191.730469 201.890625 L 253.492188 201.890625 Z M 222.609375 148.402344 " transform="matrix(1,0,0,1,-74,-13)"/>
<path style="fill-rule:nonzero;fill:rgb(99.998474%,99.998474%,30.587769%);fill-opacity:0.8;stroke-width:0.288;stroke-linecap:square;stroke-linejoin:miter;stroke:rgb(0%,0%,0%);stroke-opacity:0.8;stroke-miterlimit:3.25;" d="M 65.714844 -26.320312 L 34.835938 27.164062 L 96.597656 27.164062 Z M 65.714844 -26.320312 " transform="matrix(1,0,0,1,-74,-13)"/>
<g clip-path="url(#clip21)" clip-rule="nonzero">
<path style=" stroke:none;fill-rule:nonzero;fill:rgb(99.998474%,99.998474%,30.587769%);fill-opacity:0.8;" d="M 5.980469 306.5625 L -24.902344 360.046875 L 36.859375 360.046875 Z M 5.980469 306.5625 "/>
</g>
<g clip-path="url(#clip22)" clip-rule="nonzero">
<path style="fill:none;stroke-width:0.288;stroke-linecap:square;stroke-linejoin:miter;stroke:rgb(0%,0%,0%);stroke-opacity:0.8;stroke-miterlimit:3.25;" d="M 79.980469 319.5625 L 49.097656 373.046875 L 110.859375 373.046875 Z M 79.980469 319.5625 " transform="matrix(1,0,0,1,-74,-13)"/>
</g>
<path style="fill-rule:nonzero;fill:rgb(99.998474%,99.998474%,30.587769%);fill-opacity:0.8;stroke-width:0.288;stroke-linecap:square;stroke-linejoin:miter;stroke:rgb(0%,0%,0%);stroke-opacity:0.8;stroke-miterlimit:3.25;" d="M 286.796875 162.664062 L 255.914062 216.152344 L 317.675781 216.152344 Z M 286.796875 162.664062 " transform="matrix(1,0,0,1,-74,-13)"/>
</g>
</svg>
