<?xml version="1.0" encoding="UTF-8"?>
<svg xmlns="http://www.w3.org/2000/svg" xmlns:xlink="http://www.w3.org/1999/xlink" width="361pt" height="361pt" viewBox="0 0 361 361" version="1.1">
<defs>
<clipPath id="clip1">
  <path d="M 355 39 L 360 39 L 360 56 L 355 56 Z M 355 39 "/>
</clipPath>
<clipPath id="clip2">
  <path d="M 356 13 L 360 13 L 360 39 L 356 39 Z M 356 13 "/>
</clipPath>
<clipPath id="clip3">
  <path d="M 294 0 L 360 0 L 360 105 L 294 105 Z M 294 0 "/>
</clipPath>
<clipPath id="clip4">
  <path d="M 354 77 L 360 77 L 360 94 L 354 94 Z M 354 77 "/>
</clipPath>
<clipPath id="clip5">
  <path d="M 352 95 L 360 95 L 360 127 L 352 127 Z M 352 95 "/>
</clipPath>
<clipPath id="clip6">
  <path d="M 355 57 L 360 57 L 360 75 L 355 75 Z M 355 57 "/>
</clipPath>
<clipPath id="clip7">
  <path d="M 349 131 L 360 131 L 360 183 L 349 183 Z M 349 131 "/>
</clipPath>
<clipPath id="clip8">
  <path d="M 350 108 L 360 108 L 360 161 L 350 161 Z M 350 108 "/>
</clipPath>
<clipPath id="clip9">
  <path d="M 297 144 L 360 144 L 360 360 L 297 360 Z M 297 144 "/>
</clipPath>
<clipPath id="clip10">
  <path d="M 346 140 L 360 140 L 360 240 L 346 240 Z M 346 140 "/>
</clipPath>
<clipPath id="clip11">
  <path d="M 0 339 L 56 339 L 56 360 L 0 360 Z M 0 339 "/>
</clipPath>
<clipPath id="clip12">
  <path d="M 50 353 L 81 353 L 81 360 L 50 360 Z M 50 353 "/>
</clipPath>
<clipPath id="clip13">
  <path d="M 67 277 L 166 277 L 166 360 L 67 360 Z M 67 277 "/>
</clipPath>
<clipPath id="clip14">
  <path d="M 90 355 L 104 355 L 104 360 L 90 360 Z M 90 355 "/>
</clipPath>
<clipPath id="clip15">
  <path d="M 121 349 L 134 349 L 134 360 L 121 360 Z M 121 349 "/>
</clipPath>
<clipPath id="clip16">
  <path d="M 131 346 L 143 346 L 143 360 L 131 360 Z M 131 346 "/>
</clipPath>
<clipPath id="clip17">
  <path d="M 160 346 L 167 346 L 167 360 L 160 360 Z M 160 346 "/>
</clipPath>
<clipPath id="clip18">
  <path d="M 235 353 L 276 353 L 276 360 L 235 360 Z M 235 353 "/>
</clipPath>
<clipPath id="clip19">
  <path d="M 164 346 L 231 346 L 231 360 L 164 360 Z M 164 346 "/>
</clipPath>
<clipPath id="clip20">
  <path d="M 216 353 L 263 353 L 263 360 L 216 360 Z M 216 353 "/>
</clipPath>
<clipPath id="clip21">
  <path d="M 297 309 L 360 309 L 360 332 L 297 332 Z M 297 309 "/>
</clipPath>
<clipPath id="clip22">
  <path d="M 289 357 L 304 357 L 304 360 L 289 360 Z M 289 357 "/>
</clipPath>
<clipPath id="clip23">
  <path d="M 281 313 L 360 313 L 360 360 L 281 360 Z M 281 313 "/>
</clipPath>
<clipPath id="clip24">
  <path d="M 232 326 L 288 326 L 288 360 L 232 360 Z M 232 326 "/>
</clipPath>
<clipPath id="clip25">
  <path d="M 270 359 L 279 359 L 279 360 L 270 360 Z M 270 359 "/>
</clipPath>
</defs>
<g id="surface3017">
<path style="fill-rule:nonzero;fill:rgb(0%,0%,0%);fill-opacity:1;stroke-width:0.03;stroke-linecap:square;stroke-linejoin:miter;stroke:rgb(0%,0%,0%);stroke-opacity:1;stroke-miterlimit:10;" d="M 0 178 L 360 178 L 360 -182 L 0 -182 Z M 0 178 " transform="matrix(1,0,0,1,0,182)"/>
<path style=" stroke:none;fill-rule:nonzero;fill:rgb(39.99939%,39.99939%,39.99939%);fill-opacity:0.3;" d="M 299.667969 9.507812 L 334.476562 8.007812 L 349.066406 7.835938 L 354.4375 10.070312 L 353.980469 20.722656 L 326.5 20 L 299.871094 18.753906 Z M 299.667969 9.507812 "/>
<path style=" stroke:none;fill-rule:nonzero;fill:rgb(39.99939%,39.99939%,39.99939%);fill-opacity:0.3;" d="M 299.1875 23.085938 L 299.214844 22.332031 L 317.8125 23.085938 Z M 299.1875 23.085938 "/>
<g clip-path="url(#clip1)" clip-rule="nonzero">
<path style=" stroke:none;fill-rule:nonzero;fill:rgb(39.99939%,39.99939%,39.99939%);fill-opacity:0.3;" d="M 381.238281 40.03125 L 388.449219 48.59375 L 394.347656 55.996094 L 355.941406 54.15625 L 356.878906 39.808594 Z M 381.238281 40.03125 "/>
</g>
<g clip-path="url(#clip2)" clip-rule="nonzero">
<path style=" stroke:none;fill-rule:nonzero;fill:rgb(39.99939%,39.99939%,39.99939%);fill-opacity:0.3;" d="M 363.777344 16.601562 L 368.574219 23.511719 L 373.625 30.097656 L 380.261719 38.449219 L 356.753906 38.128906 L 357.101562 32.890625 L 364.011719 32.96875 L 363.90625 32.3125 L 363.8125 31.761719 L 357.296875 31.550781 L 357.742188 13.703125 Z M 363.777344 16.601562 "/>
</g>
<g clip-path="url(#clip3)" clip-rule="nonzero">
<path style=" stroke:none;fill-rule:nonzero;fill:rgb(39.99939%,39.99939%,39.99939%);fill-opacity:0.3;" d="M 299.074219 5.558594 L 294.878906 -73.292969 L 295.128906 -78.597656 L 295.359375 -79.847656 L 296.503906 -81.226562 L 300.398438 -82.894531 L 303.8125 -85.773438 L 314.261719 -104.734375 L 319.574219 -110.851562 L 322.191406 -112.035156 L 325.15625 -112.179688 L 341.8125 -106.175781 L 356.953125 -106.125 L 371.351562 -97.976562 L 378.535156 -94.699219 L 382.589844 -93.898438 L 384.800781 -94.316406 L 387.039062 -95.972656 L 388.835938 -98.511719 L 402.34375 -94.738281 L 412.875 -119.742188 L 426.972656 -158.558594 L 437.6875 -163.007812 L 444.320312 -166.699219 L 460.914062 -178.785156 L 460.625 -179.042969 L 460.367188 -179.304688 L 443.921875 -167.332031 L 437.277344 -163.710938 L 428.515625 -159.710938 L 428.144531 -162.75 L 428.949219 -166.933594 L 427.3125 -175.890625 L 424.445312 -178.152344 L 423.152344 -179.460938 L 421.972656 -180.402344 L 442.179688 -179.15625 L 481.382812 -182.167969 L 499.617188 -175.53125 L 498.582031 -171.589844 L 495.953125 -166.578125 L 493.683594 -162.585938 L 492.074219 -159.085938 L 491.730469 -155.371094 L 492.96875 -148.683594 L 491 -144.523438 L 488.773438 -139.347656 L 488.386719 -134.855469 L 488.347656 -129.578125 L 490.8125 -125.773438 L 484.765625 -121.566406 L 479.628906 -111.765625 L 466.234375 -113.527344 L 460.617188 -115.960938 L 455.601562 -115.960938 L 447.871094 -112.75 L 442.917969 -109.355469 L 435.785156 -106.515625 L 432.589844 -97.445312 L 430.722656 -91.027344 L 428.34375 -83.605469 L 425.101562 -77.421875 L 427.503906 -63.882812 L 423.058594 -48.496094 L 416.5 -40.921875 L 414.710938 -37.785156 L 414.695312 -35.71875 L 415.179688 -31.652344 L 415.835938 -8.664062 L 419.988281 9.789062 L 420.96875 9.730469 L 421.910156 9.675781 L 418.328125 -8.9375 L 417.28125 -32.660156 L 416.960938 -35.035156 L 416.914062 -37.339844 L 418.902344 -40.363281 L 424.949219 -47.304688 L 430.132812 -64.125 L 427.628906 -77.242188 L 429.988281 -82.710938 L 432.855469 -90.199219 L 434.71875 -96.734375 L 437.757812 -105.660156 L 443.515625 -107.945312 L 448.867188 -111.339844 L 456 -114.453125 L 460.539062 -114.148438 L 466.59375 -111.4375 L 480.589844 -110.058594 L 485.898438 -120.492188 L 491.640625 -124.007812 L 500.769531 -106.71875 L 519.753906 -92.257812 L 537.449219 -76.976562 L 541.980469 -66.28125 L 543.46875 -57.910156 L 543.195312 -47.398438 L 540.691406 -41 L 540.902344 -36.621094 L 548.492188 -23.820312 L 545.234375 -13.632812 L 548.007812 -3.445312 L 545.269531 7.300781 L 542.382812 14.738281 L 537.84375 18.699219 L 536.03125 50.382812 L 520.445312 61.789062 L 518.007812 64.246094 L 517.097656 63.613281 L 515.886719 63.195312 L 514.292969 63.273438 L 512.75 63.945312 L 508.679688 61.636719 L 506.269531 59.679688 L 505.175781 57.589844 L 503.640625 35.933594 L 501.953125 24.84375 L 499.898438 19.910156 L 496.671875 15.605469 L 495.179688 14.042969 L 491.964844 12.390625 L 484.402344 10.859375 L 479.753906 9.542969 L 477.660156 7.984375 L 475.8125 5.785156 L 472.917969 -9.136719 L 472.398438 -39.800781 L 470.15625 -39.609375 L 468.15625 -39.417969 L 469.023438 -8.449219 L 472.898438 8.988281 L 476.617188 12.332031 L 479.492188 13.648438 L 486.574219 15.019531 L 491.824219 16.449219 L 494.597656 18.5 L 496.636719 22.210938 L 498.316406 26.246094 L 499.871094 36.457031 L 502.125 58.101562 L 503.164062 61.039062 L 506.285156 63.597656 L 510.09375 66.589844 L 509.90625 68.707031 L 510.503906 70.308594 L 511.699219 71.574219 L 513.316406 72.308594 L 515.105469 72.398438 L 516.796875 71.835938 L 530.613281 91.066406 L 530.613281 96.1875 L 529.722656 99.453125 L 528.578125 100.660156 L 521.777344 103.574219 L 514.636719 104.492188 L 508.273438 103.824219 L 499.046875 101.394531 L 488.4375 100.003906 L 476.539062 100.332031 L 464.082031 99.890625 L 453.070312 99.691406 L 442.289062 98.199219 L 432.558594 94.890625 L 428.183594 92.035156 L 423.550781 85.285156 L 419.078125 76.789062 L 408.789062 66.332031 L 395.257812 50.570312 L 382.476562 34.808594 L 378.738281 25.214844 L 377.394531 16.082031 L 374.304688 12.8125 L 369.066406 9.285156 L 349.484375 3.730469 L 336.226562 3.175781 Z M 299.074219 5.558594 "/>
</g>
<g clip-path="url(#clip4)" clip-rule="nonzero">
<path style=" stroke:none;fill-rule:nonzero;fill:rgb(39.99939%,39.99939%,39.99939%);fill-opacity:0.3;" d="M 382.738281 77.976562 L 413.910156 79.191406 L 424.84375 93.988281 L 354.359375 92.769531 L 355 77.8125 Z M 382.738281 77.976562 "/>
</g>
<g clip-path="url(#clip5)" clip-rule="nonzero">
<path style=" stroke:none;fill-rule:nonzero;fill:rgb(39.99939%,39.99939%,39.99939%);fill-opacity:0.3;" d="M 431.90625 98.945312 L 436.699219 101.777344 L 434.84375 104.21875 L 424.023438 106.875 L 410.664062 110.566406 L 377.621094 121.347656 L 352.042969 126.855469 L 353.554688 95.84375 Z M 431.90625 98.945312 "/>
</g>
<path style=" stroke:none;fill-rule:nonzero;fill:rgb(39.99939%,39.99939%,39.99939%);fill-opacity:0.3;" d="M 348.738281 130.355469 L 349.949219 130.613281 L 349.929688 131.160156 L 348.660156 131.535156 Z M 348.738281 130.355469 "/>
<g clip-path="url(#clip6)" clip-rule="nonzero">
<path style=" stroke:none;fill-rule:nonzero;fill:rgb(39.99939%,39.99939%,39.99939%);fill-opacity:0.3;" d="M 397.179688 60 L 409.917969 74.085938 L 355.464844 73.960938 L 355.683594 57.863281 Z M 397.179688 60 "/>
</g>
<path style=" stroke:none;fill-rule:nonzero;fill:rgb(39.99939%,39.99939%,39.99939%);fill-opacity:0.3;" d="M 201.574219 49.429688 L 197.65625 48.859375 L 188.800781 49.59375 L 176.816406 47.988281 L 184.042969 30.152344 L 186.75 31.148438 L 190.097656 34.546875 L 194.203125 37.828125 L 196.507812 41.140625 L 196.707031 45.648438 L 199.390625 48.222656 Z M 201.574219 49.429688 "/>
<path style=" stroke:none;fill-rule:nonzero;fill:rgb(39.99939%,39.99939%,39.99939%);fill-opacity:0.3;" d="M 203.746094 49.746094 L 199.886719 47.617188 L 197.5 45.324219 L 197.304688 40.898438 L 194.808594 37.316406 L 190.65625 33.996094 L 188.148438 31.355469 L 237.152344 40.726562 L 236.195312 56.046875 L 232.523438 57.855469 L 224.339844 53.847656 L 215.414062 51.441406 Z M 203.746094 49.746094 "/>
<path style=" stroke:none;fill-rule:nonzero;fill:rgb(39.99939%,39.99939%,39.99939%);fill-opacity:0.3;" d="M 354.234375 24.554688 L 352.933594 53.769531 L 298.210938 52.449219 L 299.1875 23.085938 L 317.8125 23.085938 Z M 354.234375 24.554688 "/>
<path style=" stroke:none;fill-rule:nonzero;fill:rgb(39.99939%,39.99939%,39.99939%);fill-opacity:0.3;" d="M 191.335938 13.730469 L 215.96875 19.285156 L 237.03125 22.75 L 236.695312 38.390625 L 184.457031 28.824219 Z M 191.335938 13.730469 "/>
<path style=" stroke:none;fill-rule:nonzero;fill:rgb(39.99939%,39.99939%,39.99939%);fill-opacity:0.3;" d="M 290.28125 -36.71875 L 291.324219 -37.371094 L 293.691406 18.335938 L 269.835938 19.007812 L 270.539062 -23.148438 Z M 290.28125 -36.71875 "/>
<path style=" stroke:none;fill-rule:nonzero;fill:rgb(39.99939%,39.99939%,39.99939%);fill-opacity:0.3;" d="M 240.601562 23.261719 L 247.101562 23.105469 L 249.34375 53.695312 L 238.90625 54.042969 Z M 240.601562 23.261719 "/>
<path style=" stroke:none;fill-rule:nonzero;fill:rgb(39.99939%,39.99939%,39.99939%);fill-opacity:0.3;" d="M 250.417969 23.605469 L 267.296875 23.4375 L 270.621094 52.972656 L 252.101562 53.695312 Z M 250.417969 23.605469 "/>
<path style=" stroke:none;fill-rule:nonzero;fill:rgb(39.99939%,39.99939%,39.99939%);fill-opacity:0.3;" d="M 271.375 22.574219 L 293.441406 22.019531 L 293.824219 52.777344 L 273.628906 52.960938 Z M 271.375 22.574219 "/>
<g clip-path="url(#clip7)" clip-rule="nonzero">
<path style=" stroke:none;fill-rule:nonzero;fill:rgb(39.99939%,39.99939%,39.99939%);fill-opacity:0.3;" d="M 455.132812 131.78125 L 461.011719 147.691406 L 457.011719 149.164062 L 382.191406 172.957031 L 349.746094 182.402344 L 350.605469 163.957031 L 401.9375 148.140625 L 427.292969 140.359375 Z M 455.132812 131.78125 "/>
</g>
<g clip-path="url(#clip8)" clip-rule="nonzero">
<path style=" stroke:none;fill-rule:nonzero;fill:rgb(39.99939%,39.99939%,39.99939%);fill-opacity:0.3;" d="M 428.757812 108.488281 L 437.496094 133.046875 L 400.835938 145.253906 L 350.65625 160.875 L 352.351562 132.054688 L 394.125 119.417969 Z M 428.757812 108.488281 "/>
</g>
<path style=" stroke:none;fill-rule:nonzero;fill:rgb(39.99939%,39.99939%,39.99939%);fill-opacity:0.3;" d="M 221.53125 207.65625 L 225.707031 204.972656 L 232 199.269531 L 242.195312 194.539062 L 242.574219 223.230469 L 223.957031 225.785156 L 222.378906 214.691406 L 221.535156 209.242188 Z M 221.53125 207.65625 "/>
<path style=" stroke:none;fill-rule:nonzero;fill:rgb(39.99939%,39.99939%,39.99939%);fill-opacity:0.3;" d="M 245.957031 193.640625 L 248.875 190.664062 L 263.570312 191.359375 L 285.246094 184.488281 L 282.746094 200.621094 L 266.542969 197.664062 L 266.382812 198.421875 L 266.175781 199.355469 L 282.460938 202.648438 L 280.453125 212.8125 L 278.652344 223.992188 L 278.367188 223.917969 L 256.277344 221.105469 L 245.394531 222.804688 Z M 245.957031 193.640625 "/>
<path style=" stroke:none;fill-rule:nonzero;fill:rgb(39.99939%,39.99939%,39.99939%);fill-opacity:0.3;" d="M 325.710938 172.484375 L 348 165.316406 L 344.152344 235.847656 L 344.1875 237.617188 L 343.839844 238.777344 L 339.824219 238.230469 L 337.351562 236.210938 L 312.21875 231.703125 Z M 325.710938 172.484375 "/>
<path style=" stroke:none;fill-rule:nonzero;fill:rgb(39.99939%,39.99939%,39.99939%);fill-opacity:0.3;" d="M 287.980469 184.753906 L 322.164062 173.476562 L 309.664062 231.976562 L 301.378906 230.109375 L 280.664062 224.535156 Z M 287.980469 184.753906 "/>
<path style=" stroke:none;fill-rule:nonzero;fill:rgb(39.99939%,39.99939%,39.99939%);fill-opacity:0.3;" d="M 350.324219 92.054688 L 296.125 90.257812 L 296.933594 74.457031 L 351.320312 76.40625 Z M 350.324219 92.054688 "/>
<path style=" stroke:none;fill-rule:nonzero;fill:rgb(39.99939%,39.99939%,39.99939%);fill-opacity:0.3;" d="M 293.042969 151.792969 L 347.632812 135.730469 L 349.285156 137.46875 L 347.976562 161.816406 L 321.953125 170.144531 L 288.664062 182.191406 Z M 293.042969 151.792969 "/>
<path style=" stroke:none;fill-rule:nonzero;fill:rgb(39.99939%,39.99939%,39.99939%);fill-opacity:0.3;" d="M 188.976562 198.96875 L 204.355469 192.230469 L 218.753906 186.566406 L 234.242188 181.136719 L 247.484375 175.445312 L 262.714844 167.554688 L 274.011719 161.578125 L 289.695312 152.195312 L 285.347656 182.253906 L 262.394531 189.265625 L 245.917969 188.664062 L 241.289062 193.007812 L 229.246094 198.625 L 222.363281 204.679688 L 217.710938 203.984375 L 217.714844 206.160156 L 218.816406 209.148438 L 220.1875 214.695312 L 222.351562 225.996094 L 203.660156 228.335938 Z M 188.976562 198.96875 "/>
<path style=" stroke:none;fill-rule:nonzero;fill:rgb(39.99939%,39.99939%,39.99939%);fill-opacity:0.3;" d="M 234.171875 91.042969 L 250.792969 91.742188 L 248.734375 121.433594 L 232.183594 120.609375 Z M 234.171875 91.042969 "/>
<path style=" stroke:none;fill-rule:nonzero;fill:rgb(39.99939%,39.99939%,39.99939%);fill-opacity:0.3;" d="M 274.121094 92.300781 L 291.691406 93.25 L 290.046875 122.917969 L 272.453125 121.996094 Z M 274.121094 92.300781 "/>
<path style=" stroke:none;fill-rule:nonzero;fill:rgb(39.99939%,39.99939%,39.99939%);fill-opacity:0.3;" d="M 253.695312 92.023438 L 270.753906 92.210938 L 269.554688 122.125 L 251.144531 121.65625 Z M 253.695312 92.023438 "/>
<path style=" stroke:none;fill-rule:nonzero;fill:rgb(39.99939%,39.99939%,39.99939%);fill-opacity:0.3;" d="M 295.664062 93.160156 L 349.8125 95.527344 L 348.339844 126.257812 L 294.132812 123.378906 Z M 295.664062 93.160156 "/>
<path style=" stroke:none;fill-rule:nonzero;fill:rgb(39.99939%,39.99939%,39.99939%);fill-opacity:0.3;" d="M 271.980469 88.476562 L 253.410156 88.222656 L 252.851562 55.042969 L 271.597656 54.777344 Z M 271.980469 88.476562 "/>
<path style=" stroke:none;fill-rule:nonzero;fill:rgb(39.99939%,39.99939%,39.99939%);fill-opacity:0.3;" d="M 185.136719 162.828125 L 227.773438 164.382812 L 227.222656 180.792969 L 214.109375 185.460938 L 195.839844 192.8125 L 187.664062 196.34375 L 187.191406 195.398438 L 182.53125 197.261719 Z M 185.136719 162.828125 "/>
<path style=" stroke:none;fill-rule:nonzero;fill:rgb(39.99939%,39.99939%,39.99939%);fill-opacity:0.3;" d="M 188.699219 118.746094 L 229.765625 120.382812 L 228.988281 133.558594 L 187.609375 132.328125 Z M 188.699219 118.746094 "/>
<path style=" stroke:none;fill-rule:nonzero;fill:rgb(39.99939%,39.99939%,39.99939%);fill-opacity:0.3;" d="M 232.414062 124.578125 L 248.765625 125.214844 L 246.4375 173.882812 L 238.316406 177.152344 L 229.527344 180.1875 Z M 232.414062 124.578125 "/>
<path style=" stroke:none;fill-rule:nonzero;fill:rgb(39.99939%,39.99939%,39.99939%);fill-opacity:0.3;" d="M 187.453125 133.796875 L 228.894531 135.308594 L 228.042969 147.386719 L 186.664062 146.15625 Z M 187.453125 133.796875 "/>
<path style=" stroke:none;fill-rule:nonzero;fill:rgb(39.99939%,39.99939%,39.99939%);fill-opacity:0.3;" d="M 186.253906 148.050781 L 228.238281 149.539062 L 227.746094 162.257812 L 185.230469 160.660156 Z M 186.253906 148.050781 "/>
<path style=" stroke:none;fill-rule:nonzero;fill:rgb(39.99939%,39.99939%,39.99939%);fill-opacity:0.3;" d="M 293.773438 125.972656 L 342.730469 129.074219 L 348.738281 130.355469 L 348.660156 131.535156 L 349.929688 131.160156 L 349.871094 132.875 L 340.765625 135.765625 L 310.613281 145.171875 L 293.175781 147.816406 Z M 293.773438 125.972656 "/>
<path style=" stroke:none;fill-rule:nonzero;fill:rgb(39.99939%,39.99939%,39.99939%);fill-opacity:0.3;" d="M 251.160156 124.769531 L 269.992188 125.632812 L 269.300781 146.863281 L 268.234375 162.628906 L 263.046875 165.101562 L 255.011719 169.5625 L 249.40625 172.273438 Z M 251.160156 124.769531 "/>
<path style=" stroke:none;fill-rule:nonzero;fill:rgb(39.99939%,39.99939%,39.99939%);fill-opacity:0.3;" d="M 272.730469 125.941406 L 290.773438 126.710938 L 290.417969 146.304688 L 289.824219 150.039062 L 286.976562 151.554688 L 280.535156 155.0625 L 274.761719 158.40625 L 270.328125 161.273438 Z M 272.730469 125.941406 "/>
<path style=" stroke:none;fill-rule:nonzero;fill:rgb(39.99939%,39.99939%,39.99939%);fill-opacity:0.3;" d="M 173.628906 116.355469 L 172.996094 123.996094 L 172.824219 116.296875 Z M 173.628906 116.355469 "/>
<path style=" stroke:none;fill-rule:nonzero;fill:rgb(39.99939%,39.99939%,39.99939%);fill-opacity:0.3;" d="M 190.128906 103.242188 L 205.136719 103.625 L 193.742188 117.3125 L 189.460938 117.378906 Z M 190.128906 103.242188 "/>
<path style=" stroke:none;fill-rule:nonzero;fill:rgb(39.99939%,39.99939%,39.99939%);fill-opacity:0.3;" d="M 207.289062 103.507812 L 230.6875 104.125 L 229.9375 118.59375 L 195.535156 117.535156 Z M 207.289062 103.507812 "/>
<path style=" stroke:none;fill-rule:nonzero;fill:rgb(39.99939%,39.99939%,39.99939%);fill-opacity:0.3;" d="M 185.789062 117.679688 L 184.34375 132.234375 L 173.695312 130.042969 L 174.933594 116.367188 Z M 185.789062 117.679688 "/>
<path style=" stroke:none;fill-rule:nonzero;fill:rgb(39.99939%,39.99939%,39.99939%);fill-opacity:0.3;" d="M 173.917969 99.210938 L 174.902344 99.273438 L 174.003906 115.425781 L 172.800781 115.289062 L 172.730469 112.253906 Z M 173.917969 99.210938 "/>
<path style=" stroke:none;fill-rule:nonzero;fill:rgb(39.99939%,39.99939%,39.99939%);fill-opacity:0.3;" d="M 297.695312 56.09375 L 351.96875 57.597656 L 351.121094 73.332031 L 297.097656 71.363281 Z M 297.695312 56.09375 "/>
<path style=" stroke:none;fill-rule:nonzero;fill:rgb(39.99939%,39.99939%,39.99939%);fill-opacity:0.3;" d="M 238.3125 65.859375 L 235.402344 63.375 L 236.320312 59.476562 L 238.191406 55.867188 L 249.054688 55.359375 L 251.242188 88.929688 L 238.238281 88.480469 Z M 238.3125 65.859375 "/>
<path style=" stroke:none;fill-rule:nonzero;fill:rgb(39.99939%,39.99939%,39.99939%);fill-opacity:0.3;" d="M 274.058594 55.191406 L 293.347656 54.960938 L 293.035156 89.675781 L 274.496094 88.601562 Z M 274.058594 55.191406 "/>
<path style=" stroke:none;fill-rule:nonzero;fill:rgb(39.99939%,39.99939%,39.99939%);fill-opacity:0.3;" d="M 163.574219 77.816406 L 170.226562 79.316406 L 176.492188 80.726562 L 176.585938 80.359375 L 176.6875 79.976562 L 173.90625 79.316406 L 163.910156 76.941406 L 164.699219 74.898438 L 157.46875 74.496094 L 152.816406 73.128906 L 155.796875 69.835938 L 164.050781 62.566406 L 169.042969 58.859375 L 174.769531 51.671875 L 189.039062 53.652344 L 198.367188 52.28125 L 203.160156 51.789062 L 224.671875 56.535156 L 232.515625 61.554688 L 223.445312 87.957031 L 224.511719 87.984375 L 225.503906 88.007812 L 234.0625 64.378906 L 236.460938 67.597656 L 236.140625 79.316406 L 235.273438 88.75 L 231.925781 89.398438 L 231.011719 101.738281 L 189.242188 100.792969 L 189.621094 91.402344 L 188.488281 91.304688 L 187.445312 91.21875 L 186.421875 116.382812 L 175.191406 114.988281 L 176.042969 99.015625 L 177.800781 99.019531 L 177.730469 98.660156 L 177.664062 98.300781 L 176.011719 98.207031 L 176.734375 89.382812 L 175.644531 89.382812 L 174.917969 98.117188 L 174.015625 98.058594 L 175.140625 84.941406 L 169.917969 83.734375 L 162.6875 80.121094 Z M 163.574219 77.816406 "/>
<g clip-path="url(#clip9)" clip-rule="nonzero">
<path style=" stroke:none;fill-rule:nonzero;fill:rgb(39.99939%,39.99939%,39.99939%);fill-opacity:0.3;" d="M 573.632812 226.253906 L 561.984375 240.453125 L 555.042969 248.207031 L 547.777344 257.234375 L 542.539062 266.449219 L 540.328125 274.507812 L 539.53125 282.179688 L 539.542969 288.128906 L 539.738281 293.253906 L 541.03125 297.265625 L 541.820312 300.617188 L 541.996094 303.660156 L 540.789062 308.648438 L 539.789062 315.171875 L 536.167969 324.386719 L 532.34375 334.558594 L 526.628906 348.804688 L 518.375 369.148438 L 514.75 377.976562 L 514.054688 377.929688 L 510.128906 376.949219 L 496.871094 372.933594 L 485.625 368.917969 L 476.386719 362.488281 L 467.550781 357.667969 L 466.617188 357.261719 L 460.117188 353.125 L 453.441406 349.875 L 444.539062 348.164062 L 436.652344 346.449219 L 425.921875 338.601562 L 412.15625 327.6875 L 403.5 323.503906 L 401.277344 321.921875 L 387.621094 319.511719 L 381.195312 319.914062 L 375.570312 322.324219 L 365.527344 327.945312 L 358.300781 330.355469 L 349.460938 329.554688 L 332.59375 324.332031 L 309.296875 315.898438 L 297.265625 309.882812 L 302.570312 274.105469 L 313.765625 274.730469 L 314.089844 273.175781 L 314.4375 271.511719 L 303.753906 270.886719 L 307.613281 252.761719 L 330.730469 253.488281 L 330.601562 252.496094 L 330.480469 251.554688 L 307.027344 250.515625 L 311.640625 235.214844 L 334.277344 238.335938 L 338.054688 240.617188 L 346.050781 240.578125 L 351.828125 240.796875 L 354.484375 241.632812 L 357.089844 243.0625 L 360.34375 245.234375 L 361.253906 244.921875 L 361.25 243.117188 L 360.90625 236.679688 L 361.308594 231.65625 L 362.132812 229.222656 L 363.792969 226.371094 L 366.992188 223.667969 L 376.347656 220.382812 L 375.496094 206.492188 L 372.863281 199.226562 L 375.910156 192.601562 L 385.710938 187.804688 L 391.566406 185.992188 L 397.15625 182.214844 L 405.433594 180.125 L 410.117188 176.386719 L 414.382812 174.476562 L 424.914062 172.160156 L 439.574219 170.742188 L 452.015625 169.527344 L 468.496094 165.511719 L 479.207031 163.792969 L 488.492188 162.324219 L 503.832031 159.773438 L 508.757812 158.429688 L 515.257812 156.242188 L 526.523438 147.054688 L 529.425781 144.03125 L 530.859375 144.894531 L 521.011719 156.109375 L 510.695312 160.453125 L 507.953125 162.292969 L 504.085938 167.433594 L 500.785156 172.878906 L 497.875 179.128906 L 493.527344 185.953125 L 489.683594 193.140625 L 487.488281 196.992188 L 485.316406 201.59375 L 484.191406 206.113281 L 486.386719 213.3125 L 492.375 223.289062 L 495.148438 227.589844 L 496.617188 231.164062 L 497 233.789062 L 496.757812 237.722656 L 494.101562 242.785156 L 477.1875 269.011719 L 462.007812 261.164062 L 464.175781 258.441406 L 451.296875 250.738281 L 451.019531 251.195312 L 450.734375 251.769531 L 443.511719 261.144531 L 446.738281 263.605469 L 448.003906 261.730469 L 449.605469 263.085938 L 445.5 270.789062 L 444.402344 272.890625 L 444.328125 272.976562 L 443.054688 275.328125 L 437.195312 285.691406 L 436.886719 286.277344 L 436.582031 286.902344 L 430.019531 298.054688 L 429.105469 299.617188 L 425.96875 304.945312 L 418.234375 316.011719 L 417.679688 316.886719 L 417.050781 317.949219 L 467.214844 343.863281 L 467.988281 342.910156 L 468.96875 341.511719 L 475.171875 332.910156 L 475.703125 332.273438 L 476.179688 331.792969 L 485.535156 318.667969 L 487.613281 315.84375 L 490.375 310.753906 L 493.746094 304.089844 L 496.796875 298.855469 L 504.128906 286.78125 L 499.246094 283.246094 L 499.167969 282.414062 L 498.753906 280.0625 L 498.132812 279.035156 L 493.0625 275.617188 L 482.820312 269.714844 L 480.261719 271.074219 L 479.050781 270.460938 L 489.683594 254.816406 L 495.226562 243.457031 L 498.222656 238.410156 L 499.453125 233.78125 L 499.601562 231.007812 L 498.058594 226.847656 L 494.894531 221.820312 L 488.570312 213.332031 L 486.378906 205.460938 L 487.558594 201.621094 L 489.300781 197.96875 L 491.085938 194.277344 L 491.777344 192.703125 L 530.800781 217.382812 L 506.71875 261.734375 L 519.625 269.171875 L 551.578125 229.199219 L 544.539062 225.519531 L 558.089844 201.09375 L 561.25 202.597656 L 563.09375 199.347656 L 559.933594 197.769531 L 566.164062 186.429688 L 549.855469 178.101562 L 547.445312 181.941406 L 512.730469 161.183594 L 522.246094 158.054688 L 533.265625 145.003906 L 557.828125 157.574219 L 548.175781 175.632812 L 549.59375 176.332031 L 551.015625 177.035156 L 561.441406 158.550781 L 576.421875 166.015625 L 576.476562 170.308594 L 569.625 184.203125 L 570.519531 184.578125 L 571.414062 184.957031 L 566.671875 195.238281 L 560.523438 205.355469 L 558.136719 206.886719 L 555.039062 208.347656 L 549.125 222.0625 L 556.339844 226.800781 L 562.125 219.050781 Z M 573.632812 226.253906 "/>
</g>
<g clip-path="url(#clip10)" clip-rule="nonzero">
<path style=" stroke:none;fill-rule:nonzero;fill:rgb(39.99939%,39.99939%,39.99939%);fill-opacity:0.3;" d="M 346.089844 239.617188 L 349.925781 184.492188 L 383.6875 173.964844 L 405.660156 166.902344 L 422.101562 161.476562 L 437.722656 156.910156 L 452.703125 152.175781 L 461.742188 149.207031 L 465.871094 161.070312 L 466.625 161.332031 L 467.148438 162.863281 L 472.238281 160.863281 L 486.453125 157.566406 L 503.496094 154.078125 L 513.976562 149.417969 L 522.921875 140.113281 L 527.175781 143.113281 L 524.738281 146.613281 L 521.414062 149.570312 L 517.40625 152.898438 L 514.695312 155.253906 L 508.675781 157.324219 L 496.984375 158.871094 L 487.191406 159.511719 L 468.269531 164.035156 L 451.082031 165.878906 L 439.332031 168.320312 L 424.46875 169.683594 L 413.496094 172.980469 L 408.523438 174.875 L 404.257812 178.457031 L 396.355469 180.761719 L 391.421875 184.316406 L 385.214844 186.53125 L 374.339844 190.980469 L 370.796875 199.292969 L 373.492188 207.09375 L 374.320312 219.578125 L 366.136719 222.25 L 362.21875 225.101562 L 360.230469 228.59375 L 359.539062 231.652344 L 359.335938 236.835938 L 359.09375 239.976562 Z M 346.089844 239.617188 "/>
</g>
<path style=" stroke:none;fill-rule:nonzero;fill:rgb(39.99939%,39.99939%,39.99939%);fill-opacity:0.3;" d="M 301.3125 267.167969 L 300.453125 270.664062 L 300.460938 270.507812 Z M 301.3125 267.167969 "/>
<path style=" stroke:none;fill-rule:nonzero;fill:rgb(39.99939%,39.99939%,39.99939%);fill-opacity:0.3;" d="M 344.1875 237.617188 L 344.210938 238.902344 L 340.148438 238.496094 L 339.824219 238.230469 L 343.839844 238.777344 Z M 344.1875 237.617188 "/>
<path style=" stroke:none;fill-rule:nonzero;fill:rgb(39.99939%,39.99939%,39.99939%);fill-opacity:0.3;" d="M 56.417969 279.730469 L 47.691406 282.726562 L 31.894531 288.703125 L 20.746094 293.96875 L 21.65625 290.394531 L 51.429688 278.945312 Z M 56.417969 279.730469 "/>
<path style=" stroke:none;fill-rule:nonzero;fill:rgb(39.99939%,39.99939%,39.99939%);fill-opacity:0.3;" d="M -4.515625 342.011719 L -5.589844 338.792969 L -2.75 331.253906 L 1.621094 320.191406 L 9.132812 334.175781 Z M -4.515625 342.011719 "/>
<path style=" stroke:none;fill-rule:nonzero;fill:rgb(39.99939%,39.99939%,39.99939%);fill-opacity:0.3;" d="M 10.03125 335.625 L 15.925781 344.367188 L -6.785156 357.601562 L -7.582031 357.195312 L -7.59375 351.730469 L -7.597656 348.125 L -6.890625 346.527344 L -3.808594 343.121094 L 2.3125 339.683594 Z M 10.03125 335.625 "/>
<path style=" stroke:none;fill-rule:nonzero;fill:rgb(39.99939%,39.99939%,39.99939%);fill-opacity:0.3;" d="M -15.855469 301.503906 L -13.707031 302.476562 L -11.371094 302.914062 L -7.324219 303.296875 L -3.132812 303.125 L 1.65625 302.003906 L 8.191406 299.957031 L 9.105469 301.941406 L 2.4375 310.339844 L -1.863281 318.957031 L -6.710938 331.472656 L -9.632812 339.203125 L -13.382812 339.996094 L -25.015625 328.234375 Z M -15.855469 301.503906 "/>
<g clip-path="url(#clip11)" clip-rule="nonzero">
<path style=" stroke:none;fill-rule:nonzero;fill:rgb(39.99939%,39.99939%,39.99939%);fill-opacity:0.3;" d="M 55.886719 342.84375 L 53.472656 352.621094 L 29.417969 351.460938 L 19.507812 358.132812 L 19.914062 358.601562 L 20.355469 359.109375 L 30.167969 352.523438 L 53.378906 353.554688 L 47.351562 378.453125 L 30.683594 378.226562 L -3.355469 395.878906 L -6.601562 372.875 L -7.429688 359.34375 L 16.816406 345.441406 L 28.460938 340.980469 L 46.832031 339.765625 L 53.964844 339.753906 Z M 55.886719 342.84375 "/>
</g>
<g clip-path="url(#clip12)" clip-rule="nonzero">
<path style=" stroke:none;fill-rule:nonzero;fill:rgb(39.99939%,39.99939%,39.99939%);fill-opacity:0.3;" d="M 65.640625 354.210938 L 76.570312 353.414062 L 80.722656 374.015625 L 70.152344 376.339844 L 59.316406 377.785156 L 50.320312 378.300781 L 55.875 354.050781 Z M 65.640625 354.210938 "/>
</g>
<path style=" stroke:none;fill-rule:nonzero;fill:rgb(39.99939%,39.99939%,39.99939%);fill-opacity:0.3;" d="M 73.609375 319.777344 L 58.984375 319.488281 L 58.984375 320.539062 L 73.65625 320.753906 L 73.921875 326.339844 L 74.324219 340.398438 L 75.066406 344.855469 L 75.386719 352.097656 L 64.554688 352.773438 L 56.765625 352.785156 L 58.347656 342.640625 L 55.957031 338.914062 L 47.96875 338.902344 L 45.859375 332.167969 L 43.074219 322.976562 L 43.003906 322.742188 L 42.105469 318.363281 L 43.246094 318.375 L 52.050781 318.328125 L 51.941406 315.898438 L 44.71875 316.363281 L 40.023438 317.191406 L 41.164062 322.070312 L 44.488281 332.628906 L 46.515625 338.90625 L 28.222656 340.011719 L 18.898438 343.570312 L 3.625 319.007812 L 6.234375 312.460938 L 11.84375 304.324219 L 16.988281 303.371094 L 26.578125 326.605469 L 27.453125 326.289062 L 28.207031 326.011719 L 17.164062 297.585938 L 20.695312 296.296875 L 35.230469 288.980469 L 49.007812 284.078125 L 56.859375 281.875 L 62.273438 283.464844 L 66.675781 284.664062 L 68.652344 288.363281 L 68.953125 289.519531 L 71.914062 305.050781 L 72.25 307.757812 L 36.429688 301.785156 L 36.433594 302.507812 L 36.433594 303.089844 L 72.386719 308.851562 L 73.519531 317.90625 Z M 73.609375 319.777344 "/>
<path style=" stroke:none;fill-rule:nonzero;fill:rgb(39.99939%,39.99939%,39.99939%);fill-opacity:0.3;" d="M 19.210938 291.316406 L 19.0625 291.714844 L 17.25 294.597656 L 12.320312 295.746094 L 7.035156 297.582031 L 1.988281 298.957031 L -2.820312 299.878906 L -8.347656 300.113281 L -14.121094 298.984375 L -19.859375 294.699219 L -27.195312 289.507812 L -16.855469 295.8125 L -11.230469 297.820312 L -6.007812 298.222656 L 0.015625 297.421875 L 11.261719 294.207031 Z M 19.210938 291.316406 "/>
<g clip-path="url(#clip13)" clip-rule="nonzero">
<path style=" stroke:none;fill-rule:nonzero;fill:rgb(39.99939%,39.99939%,39.99939%);fill-opacity:0.3;" d="M 146.804688 299.066406 L 144.125 301.75 L 140.234375 303.332031 L 139.933594 303.652344 L 139.667969 303.929688 L 132.011719 310.277344 L 129.023438 311.695312 L 128.558594 311.855469 L 128.152344 311.988281 L 119.683594 315.882812 L 119.722656 316.746094 L 119.777344 317.898438 L 111.980469 320.09375 L 111.738281 320.734375 L 111.472656 321.449219 L 107.332031 323.191406 L 107.667969 325.769531 L 103.914062 326.746094 L 103.710938 327.171875 L 103.417969 327.390625 L 99.097656 328.632812 L 102.207031 339.300781 L 102.394531 339.753906 L 102.5625 340.144531 L 103.832031 344.441406 L 110.355469 348.445312 L 111.191406 348.164062 L 113.800781 347.789062 L 115.070312 348.34375 L 116.066406 351.898438 L 120.824219 353.621094 L 121.371094 353.59375 L 121.921875 353.5625 L 132.363281 359.929688 L 133.515625 360.5625 L 134.003906 360.679688 L 134.511719 360.6875 L 137.621094 360.386719 L 139.5625 359.332031 L 142.46875 356.769531 L 142.773438 356.191406 L 143.085938 355.59375 L 150.910156 343.558594 L 160.089844 345.871094 L 165.046875 346.851562 L 163.894531 354.054688 L 161.886719 362.089844 L 160.277344 370.925781 L 160.277344 372.5625 L 159.839844 375.105469 L 160.238281 380.191406 L 159.898438 387.203125 L 155.152344 387.527344 L 139.894531 388.296875 L 124.300781 388.957031 L 101.234375 391.078125 L 97.378906 378.804688 L 96.359375 374.894531 L 96.058594 373.328125 L 111.828125 369.765625 L 114.722656 359.070312 L 113.453125 359.097656 L 112.351562 359.117188 L 109.726562 368.707031 L 104.675781 369.75 L 99.683594 354.175781 L 89.695312 356.691406 L 93.515625 369.152344 L 83.335938 370.566406 L 81.691406 364.554688 L 79.632812 356.199219 L 78.117188 347.609375 L 77.953125 339.777344 L 77.066406 325.320312 L 76.289062 315.472656 L 75.703125 308.785156 L 75.015625 304.332031 L 73.953125 299.1875 L 72.671875 293.484375 L 71.246094 288.128906 L 69.898438 283.375 L 67.667969 282.523438 L 67.21875 279.714844 L 76.527344 277.300781 L 79.300781 278.363281 L 89.90625 281.425781 L 98.523438 285.265625 L 103.398438 288.113281 L 104.488281 289.824219 L 101.03125 295.601562 L 97.085938 302.253906 L 94.613281 305.542969 L 94.6875 306.753906 L 95.117188 308.496094 L 96.320312 309.300781 L 96.914062 308.921875 L 97.589844 308.492188 L 96.527344 308.023438 L 96.101562 305.742188 L 98.472656 302.625 L 102.023438 296.40625 L 106.46875 289.957031 L 115.054688 294.128906 L 123.039062 298.113281 L 129.15625 298.898438 L 135.578125 298.601562 L 141.9375 297.652344 L 148.203125 297.292969 Z M 146.804688 299.066406 "/>
</g>
<g clip-path="url(#clip14)" clip-rule="nonzero">
<path style=" stroke:none;fill-rule:nonzero;fill:rgb(39.99939%,39.99939%,39.99939%);fill-opacity:0.3;" d="M 90.597656 357.207031 L 99.152344 355.023438 L 103.832031 370 L 95.792969 371.957031 L 95.210938 368.917969 L 94.304688 369.042969 Z M 90.597656 357.207031 "/>
</g>
<path style=" stroke:none;fill-rule:nonzero;fill:rgb(39.99939%,39.99939%,39.99939%);fill-opacity:0.3;" d="M 128.207031 312.085938 L 130.613281 316.71875 L 121.578125 320.160156 L 119.792969 315.914062 Z M 128.207031 312.085938 "/>
<g clip-path="url(#clip15)" clip-rule="nonzero">
<path style=" stroke:none;fill-rule:nonzero;fill:rgb(39.99939%,39.99939%,39.99939%);fill-opacity:0.3;" d="M 121.914062 353.453125 L 121.660156 351.976562 L 130.269531 349.679688 L 133.527344 360.453125 L 132.453125 359.863281 Z M 121.914062 353.453125 "/>
</g>
<path style=" stroke:none;fill-rule:nonzero;fill:rgb(39.99939%,39.99939%,39.99939%);fill-opacity:0.3;" d="M 111.140625 348.066406 L 107.65625 338.738281 L 117.507812 336.125 L 120.804688 353.511719 L 116.121094 351.800781 L 115.140625 348.261719 L 113.8125 347.679688 Z M 111.140625 348.066406 "/>
<path style=" stroke:none;fill-rule:nonzero;fill:rgb(39.99939%,39.99939%,39.99939%);fill-opacity:0.3;" d="M 102.679688 340.132812 L 106.972656 338.898438 L 110.320312 348.339844 L 103.914062 344.363281 Z M 102.679688 340.132812 "/>
<path style=" stroke:none;fill-rule:nonzero;fill:rgb(39.99939%,39.99939%,39.99939%);fill-opacity:0.3;" d="M 103.449219 327.496094 L 106.675781 338.246094 L 102.320312 339.285156 L 99.207031 328.667969 Z M 103.449219 327.496094 "/>
<path style=" stroke:none;fill-rule:nonzero;fill:rgb(39.99939%,39.99939%,39.99939%);fill-opacity:0.3;" d="M 111.519531 321.546875 L 117.226562 335.488281 L 107.382812 338.097656 L 104.007812 326.808594 L 107.761719 325.828125 L 107.4375 323.226562 Z M 111.519531 321.546875 "/>
<path style=" stroke:none;fill-rule:nonzero;fill:rgb(39.99939%,39.99939%,39.99939%);fill-opacity:0.3;" d="M 115.851562 329.417969 L 132.59375 323.460938 L 134.636719 329.898438 L 118.117188 335.300781 Z M 115.851562 329.417969 "/>
<path style=" stroke:none;fill-rule:nonzero;fill:rgb(39.99939%,39.99939%,39.99939%);fill-opacity:0.3;" d="M 152.75 308.789062 L 160.929688 306.304688 L 165.871094 321.117188 L 157.3125 323.890625 Z M 152.75 308.789062 "/>
<path style=" stroke:none;fill-rule:nonzero;fill:rgb(39.99939%,39.99939%,39.99939%);fill-opacity:0.3;" d="M 119.835938 317.996094 L 123.207031 326.144531 L 115.523438 328.914062 L 112.070312 320.160156 Z M 119.835938 317.996094 "/>
<path style=" stroke:none;fill-rule:nonzero;fill:rgb(39.99939%,39.99939%,39.99939%);fill-opacity:0.3;" d="M 148.316406 297.410156 L 151.917969 308.433594 L 143 311.144531 L 140.300781 303.539062 L 144.207031 301.878906 L 146.984375 299.183594 Z M 148.316406 297.410156 "/>
<path style=" stroke:none;fill-rule:nonzero;fill:rgb(39.99939%,39.99939%,39.99939%);fill-opacity:0.3;" d="M 158.160156 296.269531 L 160.886719 305.75 L 152.5 308.214844 L 149.015625 297.285156 Z M 158.160156 296.269531 "/>
<path style=" stroke:none;fill-rule:nonzero;fill:rgb(39.99939%,39.99939%,39.99939%);fill-opacity:0.3;" d="M 121.644531 320.5625 L 130.714844 317.164062 L 132.359375 322.707031 L 123.824219 325.804688 Z M 121.644531 320.5625 "/>
<path style=" stroke:none;fill-rule:nonzero;fill:rgb(39.99939%,39.99939%,39.99939%);fill-opacity:0.3;" d="M 118.296875 336.046875 L 124.902344 334.011719 L 130.105469 349.183594 L 121.503906 351.574219 Z M 118.296875 336.046875 "/>
<path style=" stroke:none;fill-rule:nonzero;fill:rgb(39.99939%,39.99939%,39.99939%);fill-opacity:0.3;" d="M 125.542969 333.816406 L 134.957031 330.609375 L 139.203125 345.730469 L 131.019531 348.847656 Z M 125.542969 333.816406 "/>
<path style=" stroke:none;fill-rule:nonzero;fill:rgb(39.99939%,39.99939%,39.99939%);fill-opacity:0.3;" d="M 161.789062 306.332031 L 173.921875 302.488281 L 173.898438 303.378906 L 172.730469 313.886719 L 171.710938 318.992188 L 166.609375 320.445312 Z M 161.789062 306.332031 "/>
<path style=" stroke:none;fill-rule:nonzero;fill:rgb(39.99939%,39.99939%,39.99939%);fill-opacity:0.3;" d="M 135.589844 330.347656 L 146.273438 325.765625 L 150.769531 342.242188 L 140.578125 347.082031 Z M 135.589844 330.347656 "/>
<path style=" stroke:none;fill-rule:nonzero;fill:rgb(39.99939%,39.99939%,39.99939%);fill-opacity:0.3;" d="M 159.074219 296.09375 L 162.28125 296.066406 L 164.828125 296.378906 L 171.050781 297.386719 L 173.726562 298.195312 L 173.847656 301.960938 L 161.5625 305.523438 Z M 159.074219 296.09375 "/>
<path style=" stroke:none;fill-rule:nonzero;fill:rgb(39.99939%,39.99939%,39.99939%);fill-opacity:0.3;" d="M 147.335938 324.894531 L 156.574219 324.546875 L 162.929688 343.457031 L 152.585938 341.402344 Z M 147.335938 324.894531 "/>
<path style=" stroke:none;fill-rule:nonzero;fill:rgb(39.99939%,39.99939%,39.99939%);fill-opacity:0.3;" d="M 157.546875 324.34375 L 165.941406 321.738281 L 168.675781 330.078125 L 168.421875 332.335938 L 165.550781 343.820312 L 163.792969 343.648438 Z M 157.546875 324.34375 "/>
<path style=" stroke:none;fill-rule:nonzero;fill:rgb(39.99939%,39.99939%,39.99939%);fill-opacity:0.3;" d="M 143.203125 311.820312 L 152 309.027344 L 156.414062 324.007812 L 147.085938 324.21875 Z M 143.203125 311.820312 "/>
<path style=" stroke:none;fill-rule:nonzero;fill:rgb(39.99939%,39.99939%,39.99939%);fill-opacity:0.3;" d="M 174.390625 294.082031 L 174.402344 294.207031 L 157.710938 291.992188 L 157.257812 290.382812 L 165.5 292.601562 Z M 174.390625 294.082031 "/>
<path style=" stroke:none;fill-rule:nonzero;fill:rgb(39.99939%,39.99939%,39.99939%);fill-opacity:0.3;" d="M 109.445312 286.589844 L 109.597656 286.519531 L 124.933594 293.402344 L 132.164062 294.207031 L 143.410156 292.601562 L 151.441406 290.59375 L 153.972656 290.03125 L 154.496094 292.179688 L 148.472656 293.515625 L 141.320312 294.648438 L 133.796875 295.234375 L 129.449219 294.886719 L 124.359375 294.371094 L 116.734375 290.898438 Z M 109.445312 286.589844 "/>
<path style=" stroke:none;fill-rule:nonzero;fill:rgb(39.99939%,39.99939%,39.99939%);fill-opacity:0.3;" d="M 72.527344 308.875 L 73.828125 319.78125 L 73.609375 319.777344 L 73.519531 317.90625 L 72.386719 308.851562 Z M 72.527344 308.875 "/>
<path style=" stroke:none;fill-rule:nonzero;fill:rgb(39.99939%,39.99939%,39.99939%);fill-opacity:0.3;" d="M 73.65625 320.753906 L 74 320.761719 L 75.066406 344.855469 L 74.324219 340.398438 L 73.921875 326.339844 Z M 73.65625 320.753906 "/>
<path style=" stroke:none;fill-rule:nonzero;fill:rgb(39.99939%,39.99939%,39.99939%);fill-opacity:0.3;" d="M 68.953125 289.519531 L 70.074219 293.8125 L 71.382812 299.746094 L 72.042969 303.519531 L 72.523438 307.804688 L 72.25 307.757812 L 71.914062 305.050781 Z M 68.953125 289.519531 "/>
<path style=" stroke:none;fill-rule:nonzero;fill:rgb(39.99939%,39.99939%,39.99939%);fill-opacity:0.3;" d="M 101.09375 282.636719 L 99.480469 282.023438 L 91.316406 278.410156 L 94.003906 279.34375 Z M 101.09375 282.636719 "/>
<path style=" stroke:none;fill-rule:nonzero;fill:rgb(39.99939%,39.99939%,39.99939%);fill-opacity:0.3;" d="M 89.695312 277.847656 L 83.75 276.25 L 84.765625 276.132812 Z M 89.695312 277.847656 "/>
<path style=" stroke:none;fill-rule:nonzero;fill:rgb(39.99939%,39.99939%,39.99939%);fill-opacity:0.3;" d="M 150.808594 343.511719 L 143.039062 355.496094 L 140.8125 347.65625 Z M 150.808594 343.511719 "/>
<g clip-path="url(#clip16)" clip-rule="nonzero">
<path style=" stroke:none;fill-rule:nonzero;fill:rgb(39.99939%,39.99939%,39.99939%);fill-opacity:0.3;" d="M 142.386719 356.695312 L 139.480469 359.257812 L 137.566406 360.292969 L 134.480469 360.582031 L 131.179688 349.511719 L 139.453125 346.292969 Z M 142.386719 356.695312 "/>
</g>
<g clip-path="url(#clip17)" clip-rule="nonzero">
<path style=" stroke:none;fill-rule:nonzero;fill:rgb(39.99939%,39.99939%,39.99939%);fill-opacity:0.3;" d="M 165.046875 346.851562 L 166.441406 347.128906 L 162.441406 360.023438 L 160.277344 372.5625 L 160.277344 370.925781 L 161.886719 362.089844 L 163.894531 354.054688 Z M 165.046875 346.851562 "/>
</g>
<g clip-path="url(#clip18)" clip-rule="nonzero">
<path style=" stroke:none;fill-rule:nonzero;fill:rgb(39.99939%,39.99939%,39.99939%);fill-opacity:0.3;" d="M 274.484375 385.964844 L 264.6875 382.703125 L 235.421875 353.863281 L 236.996094 354.859375 L 248.242188 364.898438 L 257.480469 374.539062 L 269.53125 383.777344 L 275.554688 384.179688 Z M 274.484375 385.964844 "/>
</g>
<path style=" stroke:none;fill-rule:nonzero;fill:rgb(39.99939%,39.99939%,39.99939%);fill-opacity:0.3;" d="M 205.433594 297.503906 L 205.191406 318.6875 L 207.222656 347 L 198.269531 347.148438 L 184.421875 347.261719 L 169.847656 347.113281 L 172.25 332.898438 L 176.644531 316.984375 L 177.375 305.597656 L 177.929688 297.65625 Z M 205.433594 297.503906 "/>
<path style=" stroke:none;fill-rule:nonzero;fill:rgb(39.99939%,39.99939%,39.99939%);fill-opacity:0.3;" d="M 207.960938 297.644531 L 257.648438 297.890625 L 252.492188 308.203125 L 246.714844 318.035156 L 208.027344 317.558594 Z M 207.960938 297.644531 "/>
<path style=" stroke:none;fill-rule:nonzero;fill:rgb(39.99939%,39.99939%,39.99939%);fill-opacity:0.3;" d="M 207.492188 319.464844 L 245.285156 319.992188 L 241.863281 325.453125 L 239.632812 329.472656 L 236.691406 334.78125 L 234.300781 339.183594 L 230.996094 345.066406 L 209.242188 346.253906 L 207.941406 332.746094 Z M 207.492188 319.464844 "/>
<g clip-path="url(#clip19)" clip-rule="nonzero">
<path style=" stroke:none;fill-rule:nonzero;fill:rgb(39.99939%,39.99939%,39.99939%);fill-opacity:0.3;" d="M 209.984375 347.726562 L 230.839844 346.539062 L 230.246094 348.152344 L 229.363281 350.039062 L 229.511719 350.132812 L 228.867188 351.875 L 223.929688 360.558594 L 217.894531 372.796875 L 213.496094 380.847656 L 206.785156 380.125 L 191.511719 379.464844 L 176.023438 381.410156 L 165.066406 384.140625 L 164.066406 378.8125 L 164.449219 373.066406 L 165.023438 366.019531 L 166.40625 358.960938 L 167.917969 352.34375 L 169.171875 348.582031 L 186.273438 348.78125 Z M 209.984375 347.726562 "/>
</g>
<path style=" stroke:none;fill-rule:nonzero;fill:rgb(39.99939%,39.99939%,39.99939%);fill-opacity:0.3;" d="M 173.898438 303.378906 L 173.605469 314.753906 L 172.523438 318.761719 L 171.710938 318.992188 L 172.730469 313.886719 Z M 173.898438 303.378906 "/>
<path style=" stroke:none;fill-rule:nonzero;fill:rgb(39.99939%,39.99939%,39.99939%);fill-opacity:0.3;" d="M 168.421875 332.335938 L 168.03125 335.78125 L 167.003906 343.964844 L 165.550781 343.820312 Z M 168.421875 332.335938 "/>
<g clip-path="url(#clip20)" clip-rule="nonzero">
<path style=" stroke:none;fill-rule:nonzero;fill:rgb(39.99939%,39.99939%,39.99939%);fill-opacity:0.3;" d="M 230.640625 353.855469 L 262.800781 384.910156 L 237.105469 383.878906 L 216.777344 382.148438 Z M 230.640625 353.855469 "/>
</g>
<path style=" stroke:none;fill-rule:nonzero;fill:rgb(39.99939%,39.99939%,39.99939%);fill-opacity:0.3;" d="M 205.433594 293.402344 L 205.417969 295.691406 L 194.222656 295.371094 L 194.246094 293.402344 Z M 205.433594 293.402344 "/>
<path style=" stroke:none;fill-rule:nonzero;fill:rgb(39.99939%,39.99939%,39.99939%);fill-opacity:0.3;" d="M 191.828125 293.464844 L 191.757812 294.90625 L 177.324219 295.375 L 177.234375 294.113281 Z M 191.828125 293.464844 "/>
<path style=" stroke:none;fill-rule:nonzero;fill:rgb(39.99939%,39.99939%,39.99939%);fill-opacity:0.3;" d="M 228.457031 293.78125 L 228.328125 294.996094 L 208.128906 295.015625 L 208.105469 293.4375 Z M 228.457031 293.78125 "/>
<path style=" stroke:none;fill-rule:nonzero;fill:rgb(39.99939%,39.99939%,39.99939%);fill-opacity:0.3;" d="M 253.464844 295.449219 L 230.898438 294.644531 L 230.996094 293.890625 Z M 253.464844 295.449219 "/>
<path style=" stroke:none;fill-rule:nonzero;fill:rgb(39.99939%,39.99939%,39.99939%);fill-opacity:0.3;" d="M 67.21875 279.714844 L 66.921875 277.835938 L 68.542969 275.984375 L 70.234375 274.886719 L 76.527344 277.300781 Z M 67.21875 279.714844 "/>
<path style=" stroke:none;fill-rule:nonzero;fill:rgb(39.99939%,39.99939%,39.99939%);fill-opacity:0.3;" d="M 68.4375 269.566406 L 70.289062 271.34375 L 63.808594 277.199219 L 56.417969 279.730469 L 51.429688 278.945312 L 59.058594 276.535156 L 63.078125 274.925781 Z M 68.4375 269.566406 "/>
<path style=" stroke:none;fill-rule:nonzero;fill:rgb(39.99939%,39.99939%,39.99939%);fill-opacity:0.3;" d="M 139.773438 217.96875 L 139.601562 219.609375 L 135.796875 220.644531 L 135.808594 220.285156 Z M 139.773438 217.96875 "/>
<path style=" stroke:none;fill-rule:nonzero;fill:rgb(39.99939%,39.99939%,39.99939%);fill-opacity:0.3;" d="M 91.667969 251.464844 L 82.992188 258.953125 L 71.433594 268.871094 L 70.210938 267.792969 L 70.308594 267.699219 L 90.390625 252.433594 Z M 91.667969 251.464844 "/>
<path style=" stroke:none;fill-rule:nonzero;fill:rgb(39.99939%,39.99939%,39.99939%);fill-opacity:0.3;" d="M 280.59375 250.378906 L 304.902344 252.515625 L 301.3125 267.167969 L 300.460938 270.507812 L 300.453125 270.664062 L 299.542969 274.382812 L 273.820312 276.765625 L 276.582031 273.144531 L 278.566406 267.789062 L 281.027344 253.550781 Z M 280.59375 250.378906 "/>
<path style=" stroke:none;fill-rule:nonzero;fill:rgb(39.99939%,39.99939%,39.99939%);fill-opacity:0.3;" d="M 116.5 237.464844 L 130.386719 228.492188 L 147.433594 266.304688 L 132.949219 272.941406 Z M 116.5 237.464844 "/>
<path style=" stroke:none;fill-rule:nonzero;fill:rgb(39.99939%,39.99939%,39.99939%);fill-opacity:0.3;" d="M 280.738281 227.304688 L 308.570312 233.636719 L 304.980469 250.871094 L 280.097656 248.539062 Z M 280.738281 227.304688 "/>
<path style=" stroke:none;fill-rule:nonzero;fill:rgb(39.99939%,39.99939%,39.99939%);fill-opacity:0.3;" d="M 242.574219 223.230469 L 242.582031 223.671875 L 224.015625 226.183594 L 223.957031 225.785156 Z M 242.574219 223.230469 "/>
<path style=" stroke:none;fill-rule:nonzero;fill:rgb(39.99939%,39.99939%,39.99939%);fill-opacity:0.3;" d="M 278.652344 223.992188 L 278.566406 224.523438 L 272.335938 223.238281 L 262.746094 223.519531 L 254.386719 223.140625 L 249.246094 224.066406 L 245.371094 224.085938 L 245.394531 222.804688 L 256.277344 221.105469 L 278.367188 223.917969 Z M 278.652344 223.992188 "/>
<path style=" stroke:none;fill-rule:nonzero;fill:rgb(39.99939%,39.99939%,39.99939%);fill-opacity:0.3;" d="M 301.378906 230.109375 L 280.5 225.40625 L 280.664062 224.535156 Z M 301.378906 230.109375 "/>
<path style=" stroke:none;fill-rule:nonzero;fill:rgb(39.99939%,39.99939%,39.99939%);fill-opacity:0.3;" d="M 188.707031 199.085938 L 188.976562 198.96875 L 203.660156 228.335938 L 222.351562 225.996094 L 222.378906 226.140625 L 203.230469 229.125 Z M 188.707031 199.085938 "/>
<path style=" stroke:none;fill-rule:nonzero;fill:rgb(39.99939%,39.99939%,39.99939%);fill-opacity:0.3;" d="M 187.664062 196.34375 L 182.429688 198.605469 L 182.53125 197.261719 L 187.191406 195.398438 Z M 187.664062 196.34375 "/>
<path style=" stroke:none;fill-rule:nonzero;fill:rgb(39.99939%,39.99939%,39.99939%);fill-opacity:0.3;" d="M 179.570312 198.644531 L 179.445312 200.523438 L 166.148438 207.351562 L 166.304688 205.609375 Z M 179.570312 198.644531 "/>
<path style=" stroke:none;fill-rule:nonzero;fill:rgb(39.99939%,39.99939%,39.99939%);fill-opacity:0.3;" d="M 164.648438 206.460938 L 164.519531 208.042969 L 141.390625 218.867188 L 141.566406 217.167969 L 144.210938 216.285156 Z M 164.648438 206.460938 "/>
<path style=" stroke:none;fill-rule:nonzero;fill:rgb(39.99939%,39.99939%,39.99939%);fill-opacity:0.3;" d="M 274.425781 278.8125 L 299.355469 277.488281 L 294.566406 308.570312 L 263.179688 297.410156 Z M 274.425781 278.8125 "/>
<path style=" stroke:none;fill-rule:nonzero;fill:rgb(39.99939%,39.99939%,39.99939%);fill-opacity:0.3;" d="M 233.933594 264.683594 L 275.058594 268.890625 L 271.140625 276.367188 L 233.339844 273.601562 Z M 233.933594 264.683594 "/>
<path style=" stroke:none;fill-rule:nonzero;fill:rgb(39.99939%,39.99939%,39.99939%);fill-opacity:0.3;" d="M 207.480469 263.550781 L 231.5625 264.546875 L 230.769531 273.765625 L 207.753906 273.792969 Z M 207.480469 263.550781 "/>
<path style=" stroke:none;fill-rule:nonzero;fill:rgb(39.99939%,39.99939%,39.99939%);fill-opacity:0.3;" d="M 200.835938 264.453125 L 205.648438 263.417969 L 205.433594 293.402344 L 194.246094 293.402344 L 194.375 282.457031 L 193.566406 282.429688 L 192.351562 282.394531 L 191.828125 293.464844 L 177.234375 294.113281 L 176.757812 287.183594 L 176.195312 281.082031 L 175.78125 278.128906 Z M 200.835938 264.453125 "/>
<path style=" stroke:none;fill-rule:nonzero;fill:rgb(39.99939%,39.99939%,39.99939%);fill-opacity:0.3;" d="M 207.828125 275.089844 L 230.410156 275.472656 L 228.457031 293.78125 L 208.105469 293.4375 Z M 207.828125 275.089844 "/>
<path style=" stroke:none;fill-rule:nonzero;fill:rgb(39.99939%,39.99939%,39.99939%);fill-opacity:0.3;" d="M 233.433594 275.464844 L 270.710938 278.042969 L 259.359375 295.664062 L 253.464844 295.449219 L 230.996094 293.890625 Z M 233.433594 275.464844 "/>
<path style=" stroke:none;fill-rule:nonzero;fill:rgb(39.99939%,39.99939%,39.99939%);fill-opacity:0.3;" d="M 133.605469 226.652344 L 144.1875 220.667969 L 147.675781 227.574219 L 154.980469 239.972656 L 160.957031 249.742188 L 168.464844 262.148438 L 170.757812 269.207031 L 173.09375 280.359375 L 174.390625 294.082031 L 165.5 292.601562 L 157.257812 290.382812 L 150.417969 266.140625 L 145.570312 252.117188 L 135.933594 232.339844 Z M 133.605469 226.652344 "/>
<path style=" stroke:none;fill-rule:nonzero;fill:rgb(39.99939%,39.99939%,39.99939%);fill-opacity:0.3;" d="M 169.046875 256.960938 L 189.203125 251.375 L 197.136719 247.5 L 202.464844 247.984375 L 207.375 247.484375 L 215.835938 247.570312 L 223.882812 247.851562 L 241.855469 248.519531 L 260.664062 249.679688 L 276.859375 250.546875 L 275.113281 267.101562 L 232.914062 262.558594 L 207.359375 261.222656 L 204.84375 261.15625 L 199.84375 262.425781 L 175.765625 275.582031 L 173.972656 265.972656 L 171.148438 260.839844 Z M 169.046875 256.960938 "/>
<path style=" stroke:none;fill-rule:nonzero;fill:rgb(39.99939%,39.99939%,39.99939%);fill-opacity:0.3;" d="M 109.597656 286.519531 L 148.03125 268.429688 L 150.8125 277.09375 L 153.972656 290.03125 L 151.441406 290.59375 L 143.410156 292.601562 L 132.164062 294.207031 L 124.933594 293.402344 Z M 109.597656 286.519531 "/>
<path style=" stroke:none;fill-rule:nonzero;fill:rgb(39.99939%,39.99939%,39.99939%);fill-opacity:0.3;" d="M 146.582031 219.386719 L 165.640625 209.484375 L 178.417969 231.789062 L 179.585938 231.023438 L 180.675781 230.3125 L 168.015625 208.703125 L 186.984375 199.667969 L 201.644531 230.097656 L 196.820312 231.199219 L 197.453125 232.691406 L 205.109375 231.289062 L 214.410156 230.382812 L 236.804688 227.613281 L 253.097656 225.507812 L 262.113281 224.757812 L 273.996094 225.273438 L 277.339844 226.953125 L 276.917969 247.953125 L 261.699219 246.972656 L 243.96875 246.292969 L 224.765625 245.617188 L 217.421875 245.429688 L 208.527344 245.714844 L 202.53125 245.90625 L 196.859375 245.449219 L 189.046875 249.542969 L 168.480469 255.429688 Z M 146.582031 219.386719 "/>
<path style=" stroke:none;fill-rule:nonzero;fill:rgb(39.99939%,39.99939%,39.99939%);fill-opacity:0.3;" d="M 82.609375 263.644531 L 92.191406 255.621094 L 102.976562 270.683594 L 103.566406 270.285156 L 104.136719 269.894531 L 93.847656 254.675781 L 105.082031 245.707031 L 114.21875 262.183594 L 114.914062 261.707031 L 115.597656 261.238281 L 106.375 244.269531 L 110.207031 241.300781 L 114.519531 238.222656 L 131.113281 273.699219 L 106.890625 284.835938 L 101.09375 282.636719 L 94.003906 279.34375 L 91.316406 278.410156 L 90.578125 278.082031 L 89.695312 277.847656 L 84.765625 276.132812 L 83.75 276.25 L 79.976562 275.238281 L 71.621094 272.378906 Z M 82.609375 263.644531 "/>
<g clip-path="url(#clip21)" clip-rule="nonzero">
<path style=" stroke:none;fill-rule:nonzero;fill:rgb(39.99939%,39.99939%,39.99939%);fill-opacity:0.3;" d="M 400.652344 322.773438 L 395.746094 321.527344 L 390.160156 320.8125 L 382.714844 320.191406 L 378.65625 321.074219 L 374.316406 323.394531 L 369.242188 326.09375 L 364.929688 328.480469 L 360.699219 330.480469 L 357.34375 331.351562 L 354.128906 331.730469 L 349.292969 331.488281 L 326.167969 324.414062 L 297.199219 310.320312 L 297.265625 309.882812 L 309.296875 315.898438 L 332.59375 324.332031 L 349.460938 329.554688 L 358.300781 330.355469 L 365.527344 327.945312 L 375.570312 322.324219 L 381.195312 319.914062 L 387.621094 319.511719 L 401.277344 321.921875 Z M 400.652344 322.773438 "/>
</g>
<g clip-path="url(#clip22)" clip-rule="nonzero">
<path style=" stroke:none;fill-rule:nonzero;fill:rgb(39.99939%,39.99939%,39.99939%);fill-opacity:0.3;" d="M 290.53125 358.203125 L 303.527344 357.472656 L 302.929688 369.742188 L 289.761719 369.121094 Z M 290.53125 358.203125 "/>
</g>
<g clip-path="url(#clip23)" clip-rule="nonzero">
<path style=" stroke:none;fill-rule:nonzero;fill:rgb(39.99939%,39.99939%,39.99939%);fill-opacity:0.3;" d="M 341.882812 394.734375 L 326.617188 399.257812 L 325.308594 401.050781 L 316.925781 401.050781 L 293.230469 386.589844 L 281.703125 385.019531 L 281.855469 384.734375 L 287.777344 372.042969 L 288.910156 362.097656 L 290.632812 353.890625 L 291.675781 345.578125 L 292.710938 336.425781 L 293.976562 325.839844 L 295.621094 313.722656 L 325.46875 326.386719 L 348.800781 334.339844 L 354.167969 334.980469 L 360.785156 334.4375 L 363.855469 332.753906 L 366.484375 331.347656 L 372.085938 328.441406 L 380.441406 323.859375 L 383.394531 323.292969 L 387.800781 323.484375 L 392.410156 324.121094 L 397.441406 326.480469 L 392.683594 332.140625 L 388.097656 337.640625 L 380.285156 347.988281 L 374.507812 358.53125 L 373.964844 359.277344 L 371.957031 366.507812 L 371.152344 372.933594 L 370.132812 385.171875 L 369.820312 387.769531 L 348.570312 388.351562 L 348.570312 389.535156 L 369.628906 388.589844 L 369.160156 394.886719 Z M 341.882812 394.734375 "/>
</g>
<path style=" stroke:none;fill-rule:nonzero;fill:rgb(39.99939%,39.99939%,39.99939%);fill-opacity:0.3;" d="M 245.761719 326.808594 L 259.464844 300.675781 L 292.824219 311.542969 L 287.910156 344.316406 Z M 245.761719 326.808594 "/>
<g clip-path="url(#clip24)" clip-rule="nonzero">
<path style=" stroke:none;fill-rule:nonzero;fill:rgb(39.99939%,39.99939%,39.99939%);fill-opacity:0.3;" d="M 245.714844 326.910156 L 287.890625 344.425781 L 283.382812 369.589844 L 278.445312 381.851562 L 276.6875 384.332031 L 275.554688 384.179688 L 269.53125 383.777344 L 257.480469 374.539062 L 248.242188 364.898438 L 236.996094 354.859375 L 235.421875 353.863281 L 232.5625 351.046875 Z M 245.714844 326.910156 "/>
</g>
<path style=" stroke:none;fill-rule:nonzero;fill:rgb(39.99939%,39.99939%,39.99939%);fill-opacity:0.3;" d="M 257.648438 297.890625 L 258.546875 297.894531 L 252.492188 308.203125 Z M 257.648438 297.890625 "/>
<path style=" stroke:none;fill-rule:nonzero;fill:rgb(39.99939%,39.99939%,39.99939%);fill-opacity:0.3;" d="M 230.246094 348.152344 L 229.511719 350.132812 L 229.363281 350.039062 Z M 230.246094 348.152344 "/>
<g clip-path="url(#clip25)" clip-rule="nonzero">
<path style=" stroke:none;fill-rule:nonzero;fill:rgb(39.99939%,39.99939%,39.99939%);fill-opacity:0.3;" d="M 270.996094 359.121094 L 278.558594 359.476562 L 278.269531 366.386719 L 270.785156 366.15625 Z M 270.996094 359.121094 "/>
</g>
<path style=" stroke:none;fill-rule:nonzero;fill:rgb(39.99939%,39.99939%,39.99939%);fill-opacity:0.3;" d="M 252.488281 337.722656 L 245.839844 334.71875 L 248.773438 328.625 L 255.972656 332.015625 Z M 252.488281 337.722656 "/>
<path style=" stroke:none;fill-rule:nonzero;fill:rgb(39.99939%,39.99939%,39.99939%);fill-opacity:0.3;" d="M 273.050781 341.378906 L 280.714844 341.75 L 280.496094 349.238281 L 272.757812 348.8125 Z M 273.050781 341.378906 "/>
<path style=" stroke:none;fill-rule:nonzero;fill:rgb(39.99939%,39.99939%,39.99939%);fill-opacity:0.3;" d="M 262.457031 351.0625 L 265.664062 354.292969 L 260.859375 358.171875 L 257.742188 354.660156 Z M 262.457031 351.0625 "/>
<path style=" stroke:none;fill-rule:nonzero;fill:rgb(39.99939%,39.99939%,39.99939%);fill-opacity:0.3;" d="M 244.746094 338.222656 L 251.042969 342.066406 L 247.042969 349.011719 L 240.46875 344.988281 Z M 244.746094 338.222656 "/>
<path style=" stroke:none;fill-rule:nonzero;fill:rgb(39.99939%,39.99939%,39.99939%);fill-opacity:0.3;" d="M 276.992188 307.378906 L 284.980469 309.765625 L 284.074219 312.078125 L 282.410156 311.753906 L 281.882812 313.605469 L 283.777344 314.042969 L 283.261719 316.113281 L 275.269531 313.828125 L 275.695312 312.191406 L 277.707031 312.410156 L 278.101562 310.554688 L 276.195312 310.011719 Z M 276.992188 307.378906 "/>
<path style=" stroke:none;fill-rule:nonzero;fill:rgb(39.99939%,39.99939%,39.99939%);fill-opacity:0.3;" d="M 260.730469 333.582031 L 266.640625 339.613281 L 259.476562 343.976562 L 254.421875 337.53125 Z M 260.730469 333.582031 "/>
<path style=" stroke:none;fill-rule:nonzero;fill:rgb(39.99939%,39.99939%,39.99939%);fill-opacity:0.3;" d="M 261.386719 302.191406 L 269.882812 305.242188 L 268.511719 308.007812 L 266.71875 307.5 L 265.742188 309.097656 L 267.792969 310.464844 L 266.925781 312.199219 L 258.574219 308.363281 L 259.738281 306.242188 L 261.164062 307.164062 L 262.042969 305.4375 L 260.304688 304.347656 Z M 261.386719 302.191406 "/>
<path style=" stroke:none;fill-rule:nonzero;fill:rgb(39.99939%,39.99939%,39.99939%);fill-opacity:0.3;" d="M 294.566406 308.570312 L 294.324219 310.15625 L 262.25 298.945312 L 263.179688 297.410156 Z M 294.566406 308.570312 "/>
<path style=" stroke:none;fill-rule:nonzero;fill:rgb(39.99939%,39.99939%,39.99939%);fill-opacity:0.3;" d="M -29.027344 227.316406 L -32.222656 222.5625 L -31.90625 218.066406 L -31.648438 211.105469 L -25.890625 211.9375 L -17.421875 215.464844 L -12.085938 217.585938 L -7.882812 219.21875 L 8.6875 227.464844 L 23.652344 234.5625 L 38.089844 245.054688 L 41.894531 247.6875 L 44.359375 247.882812 L 46.054688 246.691406 L 59.292969 255.863281 L 59.835938 259.09375 L 62.082031 263.472656 L 68.4375 269.566406 L 63.078125 274.925781 L 59.058594 276.535156 L 51.429688 278.945312 L 21.65625 290.394531 L 22.589844 286.730469 L 35.296875 264.027344 L 39.964844 259.835938 L 45.351562 263.910156 L 45.714844 263.527344 L 46.136719 263.089844 L 39.316406 258.066406 L 34.988281 261.742188 L 17.621094 251.980469 L -0.203125 240.824219 L -14.5 234.070312 Z M -29.027344 227.316406 "/>
<path style=" stroke:none;fill-rule:nonzero;fill:rgb(39.99939%,39.99939%,39.99939%);fill-opacity:0.3;" d="M 63.46875 176.316406 L 51.601562 199.359375 L 43.75 195.339844 L 55.707031 173.589844 Z M 63.46875 176.316406 "/>
<path style=" stroke:none;fill-rule:nonzero;fill:rgb(39.99939%,39.99939%,39.99939%);fill-opacity:0.3;" d="M 70.210938 267.792969 L 64.140625 262.433594 L 63.324219 259.980469 L 70.308594 267.699219 Z M 70.210938 267.792969 "/>
<path style=" stroke:none;fill-rule:nonzero;fill:rgb(39.99939%,39.99939%,39.99939%);fill-opacity:0.3;" d="M 51.082031 141.753906 L 51.078125 141.921875 L 28.449219 141.289062 L 28.535156 141.171875 L 35.191406 140.472656 L 37.921875 140.5 L 47.011719 141.171875 Z M 51.082031 141.753906 "/>
<path style=" stroke:none;fill-rule:nonzero;fill:rgb(39.99939%,39.99939%,39.99939%);fill-opacity:0.3;" d="M 21.734375 171.054688 L 13.503906 167.613281 L 16.167969 162.421875 L 24.785156 165.753906 Z M 21.734375 171.054688 "/>
<path style=" stroke:none;fill-rule:nonzero;fill:rgb(39.99939%,39.99939%,39.99939%);fill-opacity:0.3;" d="M 15.785156 181.90625 L 7.714844 177.769531 L 12.359375 169.125 L 20.414062 172.40625 Z M 15.785156 181.90625 "/>
<path style=" stroke:none;fill-rule:nonzero;fill:rgb(39.99939%,39.99939%,39.99939%);fill-opacity:0.3;" d="M 38.960938 169.445312 L 28.679688 187.269531 L 20.699219 183.625 L 30.078125 166.652344 Z M 38.960938 169.445312 "/>
<path style=" stroke:none;fill-rule:nonzero;fill:rgb(39.99939%,39.99939%,39.99939%);fill-opacity:0.3;" d="M 51.410156 173.527344 L 40.207031 193.054688 L 31.605469 188.789062 L 42.726562 170.089844 Z M 51.410156 173.527344 "/>
<path style=" stroke:none;fill-rule:nonzero;fill:rgb(39.99939%,39.99939%,39.99939%);fill-opacity:0.3;" d="M 73.878906 180.9375 L 64.390625 205.15625 L 60.335938 202.96875 L 70.585938 179.925781 Z M 73.878906 180.9375 "/>
<path style=" stroke:none;fill-rule:nonzero;fill:rgb(39.99939%,39.99939%,39.99939%);fill-opacity:0.3;" d="M -15.53125 276.4375 L -1.757812 280.0625 L 0.796875 281.199219 L 2.953125 282.28125 L 3.808594 283.496094 L 4.351562 286.835938 L 16.316406 289.453125 L 14.613281 292.796875 L -1.292969 296.875 L -2.679688 297.179688 L -4.496094 297.386719 L -6.738281 297.691406 L -8.875 297.695312 L -10.796875 297.394531 L -12.503906 297.09375 L -13.679688 296.949219 L -14.378906 296.699219 L -15.496094 295.882812 L -15.585938 294.203125 L -16.921875 293.730469 L -18.921875 293.257812 L -20.589844 292.785156 L -21.925781 291.839844 L -22.925781 290.734375 L -23.265625 288.679688 Z M -15.53125 276.4375 "/>
<path style=" stroke:none;fill-rule:nonzero;fill:rgb(39.99939%,39.99939%,39.99939%);fill-opacity:0.3;" d="M -25.636719 201.761719 L -18.960938 204.492188 L -10.359375 207.636719 L -1.292969 210.371094 L 3.789062 213.023438 L 0.101562 220.207031 L -7.488281 216.65625 L -17.542969 212.59375 L -24.390625 210.503906 L -22.335938 206.664062 L -23.65625 206.226562 L -25.769531 210.09375 L -31.480469 209.382812 L -31.410156 208.09375 L -27.699219 201.019531 L -27.671875 200.988281 Z M -25.636719 201.761719 "/>
<path style=" stroke:none;fill-rule:nonzero;fill:rgb(39.99939%,39.99939%,39.99939%);fill-opacity:0.3;" d="M 21.558594 150.472656 L 20.863281 152.347656 L 22.179688 157.152344 L 22.742188 160.265625 L 15.703125 158.28125 Z M 21.558594 150.472656 "/>
<path style=" stroke:none;fill-rule:nonzero;fill:rgb(39.99939%,39.99939%,39.99939%);fill-opacity:0.3;" d="M 26.882812 143.375 L 51.101562 144.183594 L 50.910156 160.453125 L 23.832031 152.257812 L 26.703125 143.613281 Z M 26.882812 143.375 "/>
<path style=" stroke:none;fill-rule:nonzero;fill:rgb(39.99939%,39.99939%,39.99939%);fill-opacity:0.3;" d="M 25.351562 163.453125 L 23.191406 153.335938 L 74.066406 169.757812 L 74.339844 178.15625 L 47.835938 169.636719 Z M 25.351562 163.453125 "/>
<path style=" stroke:none;fill-rule:nonzero;fill:rgb(39.99939%,39.99939%,39.99939%);fill-opacity:0.3;" d="M 44.476562 244.492188 L 43.40625 245.289062 L 42.246094 245.289062 L 33.339844 238.644531 L 39.296875 230.601562 L 42.160156 232.832031 L 49.152344 239.203125 Z M 44.476562 244.492188 "/>
<path style=" stroke:none;fill-rule:nonzero;fill:rgb(39.99939%,39.99939%,39.99939%);fill-opacity:0.3;" d="M 59.9375 206.644531 L 63.328125 209.898438 L 61.542969 211.800781 L 58.136719 208.816406 Z M 59.9375 206.644531 "/>
<path style=" stroke:none;fill-rule:nonzero;fill:rgb(39.99939%,39.99939%,39.99939%);fill-opacity:0.3;" d="M 53.503906 203.042969 L 56.894531 206.296875 L 55.109375 208.199219 L 51.703125 205.214844 Z M 53.503906 203.042969 "/>
<path style=" stroke:none;fill-rule:nonzero;fill:rgb(39.99939%,39.99939%,39.99939%);fill-opacity:0.3;" d="M 46.796875 199.820312 L 50.1875 203.070312 L 48.402344 204.976562 L 44.992188 201.988281 Z M 46.796875 199.820312 "/>
<path style=" stroke:none;fill-rule:nonzero;fill:rgb(39.99939%,39.99939%,39.99939%);fill-opacity:0.3;" d="M 39.753906 197.125 L 43.144531 200.378906 L 41.359375 202.28125 L 37.953125 199.296875 Z M 39.753906 197.125 "/>
<path style=" stroke:none;fill-rule:nonzero;fill:rgb(39.99939%,39.99939%,39.99939%);fill-opacity:0.3;" d="M 32.4375 196.339844 L 35.828125 199.59375 L 34.042969 201.496094 L 30.636719 198.511719 Z M 32.4375 196.339844 "/>
<path style=" stroke:none;fill-rule:nonzero;fill:rgb(39.99939%,39.99939%,39.99939%);fill-opacity:0.3;" d="M 26.628906 189.476562 L 30.019531 192.730469 L 28.234375 194.632812 L 24.828125 191.648438 Z M 26.628906 189.476562 "/>
<path style=" stroke:none;fill-rule:nonzero;fill:rgb(39.99939%,39.99939%,39.99939%);fill-opacity:0.3;" d="M 13.242188 190.066406 L 16.632812 193.316406 L 14.847656 195.222656 L 11.441406 192.234375 Z M 13.242188 190.066406 "/>
<path style=" stroke:none;fill-rule:nonzero;fill:rgb(39.99939%,39.99939%,39.99939%);fill-opacity:0.3;" d="M 11.242188 181.773438 L 14.632812 185.023438 L 12.847656 186.929688 L 9.441406 183.945312 Z M 11.242188 181.773438 "/>
<path style=" stroke:none;fill-rule:nonzero;fill:rgb(39.99939%,39.99939%,39.99939%);fill-opacity:0.3;" d="M 19.308594 185.863281 L 22.699219 189.117188 L 20.914062 191.019531 L 17.507812 188.035156 Z M 19.308594 185.863281 "/>
<path style=" stroke:none;fill-rule:nonzero;fill:rgb(39.99939%,39.99939%,39.99939%);fill-opacity:0.3;" d="M 1.757812 221.125 L 5.890625 213.777344 L 15.542969 217.152344 L 22.980469 220.535156 L 26.109375 220.425781 L 38.214844 229.992188 L 32.03125 237.34375 L 22.027344 230.429688 Z M 1.757812 221.125 "/>
<path style=" stroke:none;fill-rule:nonzero;fill:rgb(39.99939%,39.99939%,39.99939%);fill-opacity:0.3;" d="M 50.589844 240.40625 L 61.210938 248.777344 L 61.125 249.484375 L 59.082031 253.996094 L 47.261719 245.039062 Z M 50.589844 240.40625 "/>
<path style=" stroke:none;fill-rule:nonzero;fill:rgb(39.99939%,39.99939%,39.99939%);fill-opacity:0.3;" d="M 53.65625 144.992188 L 64.695312 144.683594 L 66.226562 137.589844 L 66.289062 137.558594 L 69.90625 137.558594 L 74.140625 138.265625 L 74.308594 167.410156 L 53.683594 160.53125 Z M 53.65625 144.992188 "/>
<path style=" stroke:none;fill-rule:nonzero;fill:rgb(39.99939%,39.99939%,39.99939%);fill-opacity:0.3;" d="M 54.089844 142.609375 L 54.089844 142.289062 L 55.914062 142.679688 Z M 54.089844 142.609375 "/>
<path style=" stroke:none;fill-rule:nonzero;fill:rgb(39.99939%,39.99939%,39.99939%);fill-opacity:0.3;" d="M 64.410156 138.5 L 63.453125 142.964844 L 60.273438 142.84375 L 60.667969 142.78125 L 62.675781 140.773438 L 63.878906 138.761719 Z M 64.410156 138.5 "/>
<path style=" stroke:none;fill-rule:nonzero;fill:rgb(39.99939%,39.99939%,39.99939%);fill-opacity:0.3;" d="M 5.9375 186.648438 L 9.324219 189.898438 L 7.542969 191.804688 L 4.132812 188.816406 Z M 5.9375 186.648438 "/>
<path style=" stroke:none;fill-rule:nonzero;fill:rgb(39.99939%,39.99939%,39.99939%);fill-opacity:0.3;" d="M 21.28125 194.03125 L 24.789062 197.203125 L 22.710938 199.296875 L 19.207031 195.941406 Z M 21.28125 194.03125 "/>
<path style=" stroke:none;fill-rule:nonzero;fill:rgb(39.99939%,39.99939%,39.99939%);fill-opacity:0.3;" d="M -10.71875 273.453125 L -30.054688 267.921875 L -52.769531 261.816406 L -48.746094 251.355469 L -43.0625 244.6875 L -40.804688 245.207031 L -39.359375 246.101562 L -34.316406 239.558594 L -27.457031 229.351562 L -15.25 235.171875 L -23.824219 245.964844 L -23.085938 246.382812 L -22.292969 246.832031 L -14.03125 235.78125 L -1.53125 241.339844 L -13.726562 256.527344 L -13.210938 257.082031 L -12.652344 257.683594 L -0.0976562 242.085938 L 16.011719 252.363281 L 34.53125 263.015625 L 20.617188 287.148438 L 11.015625 282.539062 Z M -10.71875 273.453125 "/>
<path style=" stroke:none;fill-rule:nonzero;fill:rgb(39.99939%,39.99939%,39.99939%);fill-opacity:0.3;" d="M -11.222656 274.902344 L 20.378906 288.175781 L 19.210938 291.316406 L 11.261719 294.207031 L 0.015625 297.421875 L -6.007812 298.222656 L -11.230469 297.820312 L -16.855469 295.8125 L -27.195312 289.507812 L -33.160156 285.289062 L -40.78125 285.214844 L -60.234375 283.765625 L -63.78125 283.21875 L -65.472656 281.816406 L -57.253906 265.664062 L -52.558594 264.453125 Z M -11.222656 274.902344 "/>
<path style=" stroke:none;fill-rule:nonzero;fill:rgb(39.99939%,39.99939%,39.99939%);fill-opacity:0.3;" d="M 25.375 163.5625 L 47.769531 169.722656 L 74.34375 178.265625 L 74.613281 181.925781 L 74.886719 186.25 L 74.898438 194.820312 L 74.914062 202.226562 L 74.492188 211.378906 L 73.972656 216.289062 L 73.28125 222.28125 L 70.8125 233.234375 L 69.570312 236.851562 L 68.351562 240.429688 L 62.925781 248.035156 L 44.136719 231.65625 L 54.972656 220.976562 L 53.566406 219.507812 L 42.820312 230.40625 L 33.410156 223.132812 L 29 219.628906 L 20.554688 217.28125 L 10.886719 213.820312 L -0.402344 209.066406 L -6.453125 206.949219 L -15.476562 203.304688 L -10.210938 192.152344 L -10.671875 191.949219 L -11.136719 191.742188 L -16.457031 202.8125 L -26.488281 199.460938 L -16.453125 186.5625 L 5.640625 171.699219 L 14.78125 159.511719 L 19.441406 160.703125 Z M 25.375 163.5625 "/>
<path style=" stroke:none;fill-rule:nonzero;fill:rgb(39.99939%,39.99939%,39.99939%);fill-opacity:0.3;" d="M 74.828125 98.066406 L 75.949219 99.167969 L 78.910156 101.8125 L 82.523438 102.042969 L 83.761719 105.3125 L 84.261719 108.585938 L 84.519531 109.957031 L 85.390625 110.59375 L 86.550781 111.136719 L 86.480469 118.492188 L 83.996094 119.316406 L 82.726562 134.449219 L 82.886719 144.578125 L 91.03125 144.03125 L 92.4375 155.125 L 95.433594 161.0625 L 94.144531 171.339844 L 95.613281 172.3125 L 95.03125 176.285156 L 92.9375 196.589844 L 89.160156 212.84375 L 82.734375 230.527344 L 80.949219 235.59375 L 75.746094 245.882812 L 77.769531 246.3125 L 81.425781 245.6875 L 83.835938 244.445312 L 84.8125 243.082031 L 85.726562 237.738281 L 86.511719 234.042969 L 88.023438 232.738281 L 90.113281 231.984375 L 90.113281 230.410156 L 90.398438 229.109375 L 91.304688 223.746094 L 91.765625 219.476562 L 92.699219 215.113281 L 95.859375 200.515625 L 102.535156 182.566406 L 105.53125 158.382812 L 107.074219 137.726562 L 108.75 115.839844 L 108.246094 104.414062 L 105.777344 93.609375 L 104 87.730469 L 103.4375 85.132812 L 105.179688 80.703125 L 111.824219 72.695312 L 119.757812 73.34375 L 122.1875 73.5625 L 122.484375 79.316406 L 123.425781 97.175781 L 123.449219 112.960938 L 123.851562 119.550781 L 123.878906 149.863281 L 118.777344 179.546875 L 114.558594 202.804688 L 115.714844 202.984375 L 116.917969 203.175781 L 121.332031 180.832031 L 143.347656 184.257812 L 139.773438 217.96875 L 135.808594 220.285156 L 135.96875 213.855469 L 129.894531 212.394531 L 123.996094 210.664062 L 114.3125 208.480469 L 105.160156 205.230469 L 103.183594 204.324219 L 100.5625 203.121094 L 98.707031 208.710938 L 97.539062 214.929688 L 97.289062 222.640625 L 97.953125 228.234375 L 99.40625 234.324219 L 102.171875 242.398438 L 91.667969 251.464844 L 90.390625 252.433594 L 70.308594 267.699219 L 63.324219 259.980469 L 62.730469 258.195312 L 65.875 251.699219 L 68.761719 246.285156 L 72.433594 238.875 L 73.886719 229.542969 L 75.476562 222.191406 L 76.683594 211.542969 L 77.019531 202.304688 L 76.914062 194.859375 L 76.660156 182.71875 L 76.417969 180.714844 L 87.214844 175.835938 L 87.050781 175.566406 L 86.886719 175.292969 L 76.347656 179.675781 L 75.890625 163.964844 L 75.671875 144.199219 L 75.828125 133.882812 L 75.4375 111.5 L 72.796875 106.511719 L 72.351562 105.667969 Z M 74.828125 98.066406 "/>
<path style=" stroke:none;fill-rule:nonzero;fill:rgb(39.99939%,39.99939%,39.99939%);fill-opacity:0.3;" d="M 101.816406 206.273438 L 105.605469 207.175781 L 113.863281 210.273438 L 124.824219 212.84375 L 130.171875 214.8125 L 133.433594 215.835938 L 133.417969 221.765625 L 120.453125 230.277344 L 109.460938 237.382812 L 104.882812 241.117188 L 102.246094 233.664062 L 100.664062 227.449219 L 100 222.476562 L 99.855469 214.894531 Z M 101.816406 206.273438 "/>
<path style=" stroke:none;fill-rule:nonzero;fill:rgb(39.99939%,39.99939%,39.99939%);fill-opacity:0.3;" d="M 172.996094 123.996094 L 172.257812 132.980469 L 165.871094 132.324219 L 165.078125 123.902344 L 163.515625 120.804688 L 163.980469 119.175781 L 164.285156 117.328125 L 164.828125 115.703125 L 172.824219 116.296875 Z M 172.996094 123.996094 "/>
<path style=" stroke:none;fill-rule:nonzero;fill:rgb(39.99939%,39.99939%,39.99939%);fill-opacity:0.3;" d="M 163.660156 115.558594 L 163.277344 117.773438 L 162.660156 121.175781 L 164.222656 123.757812 L 164.46875 131.957031 L 158.863281 131.300781 L 157.820312 115.050781 Z M 163.660156 115.558594 "/>
<path style=" stroke:none;fill-rule:nonzero;fill:rgb(39.99939%,39.99939%,39.99939%);fill-opacity:0.3;" d="M 157.035156 114.917969 L 158.1875 138.601562 L 148.285156 137.878906 L 146.609375 114.601562 Z M 157.035156 114.917969 "/>
<path style=" stroke:none;fill-rule:nonzero;fill:rgb(39.99939%,39.99939%,39.99939%);fill-opacity:0.3;" d="M 183.875 135.226562 L 179.570312 198.644531 L 166.304688 205.609375 L 169.261719 173.292969 L 168.3125 173.421875 L 167.359375 173.554688 L 164.648438 206.460938 L 144.210938 216.285156 L 141.566406 217.167969 L 145.105469 182.507812 L 148.609375 155.6875 L 148.191406 140.121094 L 159.332031 141.21875 L 159.859375 132.796875 Z M 183.875 135.226562 "/>
<path style=" stroke:none;fill-rule:nonzero;fill:rgb(39.99939%,39.99939%,39.99939%);fill-opacity:0.3;" d="M 144.402344 94.878906 L 144.144531 112.921875 L 135.632812 112.921875 L 134.398438 94.503906 Z M 144.402344 94.878906 "/>
<path style=" stroke:none;fill-rule:nonzero;fill:rgb(39.99939%,39.99939%,39.99939%);fill-opacity:0.3;" d="M 145.621094 137.613281 L 136.292969 137.800781 L 135.617188 114 L 144.230469 113.800781 Z M 145.621094 137.613281 "/>
<path style=" stroke:none;fill-rule:nonzero;fill:rgb(39.99939%,39.99939%,39.99939%);fill-opacity:0.3;" d="M 139.667969 152.082031 L 133.058594 152.265625 L 132.960938 149.257812 L 125.898438 148.992188 L 125.476562 114.277344 L 134.171875 114.433594 L 134.730469 138.976562 L 139.917969 138.9375 Z M 139.667969 152.082031 "/>
<path style=" stroke:none;fill-rule:nonzero;fill:rgb(39.99939%,39.99939%,39.99939%);fill-opacity:0.3;" d="M 134.640625 112.871094 L 125.253906 112.714844 L 125.324219 94.324219 L 133.574219 94.507812 Z M 134.640625 112.871094 "/>
<path style=" stroke:none;fill-rule:nonzero;fill:rgb(39.99939%,39.99939%,39.99939%);fill-opacity:0.3;" d="M 184.34375 132.234375 L 184.171875 133.996094 L 173.425781 133.050781 L 173.695312 130.042969 Z M 184.34375 132.234375 "/>
<path style=" stroke:none;fill-rule:nonzero;fill:rgb(39.99939%,39.99939%,39.99939%);fill-opacity:0.3;" d="M 71.675781 108.566406 L 74.324219 111.933594 L 74.308594 114.222656 L 73.921875 113.058594 Z M 71.675781 108.566406 "/>
<path style=" stroke:none;fill-rule:nonzero;fill:rgb(39.99939%,39.99939%,39.99939%);fill-opacity:0.3;" d="M 157.695312 96.980469 L 164.726562 98.304688 L 162.515625 114.1875 L 155.921875 113.984375 Z M 157.695312 96.980469 "/>
<path style=" stroke:none;fill-rule:nonzero;fill:rgb(39.99939%,39.99939%,39.99939%);fill-opacity:0.3;" d="M 147.074219 94.464844 L 156.675781 96.601562 L 155.296875 113.984375 L 146.394531 113.601562 Z M 147.074219 94.464844 "/>
<path style=" stroke:none;fill-rule:nonzero;fill:rgb(39.99939%,39.99939%,39.99939%);fill-opacity:0.3;" d="M 166 98.71875 L 173.917969 99.210938 L 172.730469 112.253906 L 172.800781 115.289062 L 163.664062 114.25 Z M 166 98.71875 "/>
<path style=" stroke:none;fill-rule:nonzero;fill:rgb(39.99939%,39.99939%,39.99939%);fill-opacity:0.3;" d="M 145.351562 139.703125 L 145.753906 154.222656 L 143.164062 182.429688 L 122.054688 179.027344 L 126.082031 151.054688 L 131.425781 151.238281 L 131.527344 157.25 L 132.292969 157.070312 L 132.882812 156.929688 L 132.96875 153.898438 L 140.847656 153.222656 L 140.824219 139.796875 Z M 145.351562 139.703125 "/>
<path style=" stroke:none;fill-rule:nonzero;fill:rgb(39.99939%,39.99939%,39.99939%);fill-opacity:0.3;" d="M 135.414062 79.316406 L 135.949219 78.050781 L 136.289062 74.78125 L 148.007812 75.476562 L 146.417969 78.226562 L 146.273438 79.316406 L 144.429688 93.128906 L 134.269531 92.960938 L 134.179688 84.867188 L 134.683594 81.039062 Z M 135.414062 79.316406 "/>
<path style=" stroke:none;fill-rule:nonzero;fill:rgb(39.99939%,39.99939%,39.99939%);fill-opacity:0.3;" d="M 124.519531 79.316406 L 124.371094 73.570312 L 135.234375 74.542969 L 135.011719 77.667969 L 134.328125 79.316406 L 133.742188 80.722656 L 133.367188 92.859375 L 125.011719 92.808594 Z M 124.519531 79.316406 "/>
<path style=" stroke:none;fill-rule:nonzero;fill:rgb(39.99939%,39.99939%,39.99939%);fill-opacity:0.3;" d="M 148.300781 79.316406 L 148.386719 78.703125 L 151.246094 75.039062 L 163.574219 77.816406 L 162.6875 80.121094 L 169.917969 83.734375 L 175.140625 84.941406 L 174.015625 98.058594 L 166.160156 97.566406 L 167.527344 87.988281 L 166.800781 87.804688 L 166.042969 87.613281 L 164.875 97.289062 L 157.535156 95.769531 L 157.550781 89.683594 L 157.109375 89.628906 L 156.667969 89.570312 L 156.582031 95.578125 L 147.222656 93.179688 L 147.410156 87.71875 L 147.894531 82.179688 Z M 148.300781 79.316406 "/>
<path style=" stroke:none;fill-rule:nonzero;fill:rgb(39.99939%,39.99939%,39.99939%);fill-opacity:0.3;" d="M 163.910156 76.941406 L 151.9375 74.097656 L 152.816406 73.128906 L 157.46875 74.496094 L 164.699219 74.898438 Z M 163.910156 76.941406 "/>
<path style=" stroke:none;fill-rule:nonzero;fill:rgb(39.99939%,39.99939%,39.99939%);fill-opacity:0.3;" d="M 64.347656 102.996094 L 66.101562 95.171875 L 69.789062 79.652344 L 76.402344 79.863281 L 76.597656 91.605469 L 76.351562 92.109375 L 72.65625 95.355469 L 73.972656 97.222656 L 74.828125 98.066406 L 72.351562 105.667969 L 70.949219 103.023438 L 70.285156 103.140625 L 69.546875 103.273438 L 70.78125 106.351562 L 68.496094 107.296875 L 63.179688 109.921875 L 59.003906 112.992188 L 55.277344 117.941406 L 51.601562 125.90625 L 51.082031 141.753906 L 47.011719 141.171875 L 37.921875 140.5 L 47.160156 140.59375 L 48.535156 126.355469 L 51.15625 119.085938 L 63.265625 107.007812 Z M 64.347656 102.996094 "/>
<path style=" stroke:none;fill-rule:nonzero;fill:rgb(39.99939%,39.99939%,39.99939%);fill-opacity:0.3;" d="M 28.449219 141.289062 L 27.710938 141.269531 L 27.820312 140.398438 L 35.191406 140.472656 L 28.535156 141.171875 Z M 28.449219 141.289062 "/>
<path style=" stroke:none;fill-rule:nonzero;fill:rgb(39.99939%,39.99939%,39.99939%);fill-opacity:0.3;" d="M 20.273438 144.320312 L 24.109375 143.582031 L 21.558594 150.472656 L 15.703125 158.28125 L 14.113281 157.835938 L 8.480469 155.914062 L 9.152344 155.265625 L 12.289062 148.128906 L 18.238281 145.273438 Z M 20.273438 144.320312 "/>
<path style=" stroke:none;fill-rule:nonzero;fill:rgb(39.99939%,39.99939%,39.99939%);fill-opacity:0.3;" d="M 26.785156 143.375 L 26.882812 143.375 L 26.703125 143.613281 Z M 26.785156 143.375 "/>
<path style=" stroke:none;fill-rule:nonzero;fill:rgb(39.99939%,39.99939%,39.99939%);fill-opacity:0.3;" d="M 66.226562 137.589844 L 66.339844 137.054688 L 74.132812 136.773438 L 74.140625 138.265625 L 69.90625 137.558594 L 66.289062 137.558594 Z M 66.226562 137.589844 "/>
<path style=" stroke:none;fill-rule:nonzero;fill:rgb(39.99939%,39.99939%,39.99939%);fill-opacity:0.3;" d="M 54.089844 142.289062 L 54.226562 125.875 L 57.425781 119.777344 L 60.492188 114.71875 L 63.867188 112.089844 L 68.277344 109.390625 L 71.5625 108.421875 L 71.675781 108.566406 L 73.921875 113.058594 L 74.308594 114.222656 L 74.175781 135.015625 L 65.054688 135.480469 L 64.410156 138.5 L 63.878906 138.761719 L 62.675781 140.773438 L 60.667969 142.78125 L 60.273438 142.84375 L 55.914062 142.679688 Z M 54.089844 142.289062 "/>
<path style=" stroke:none;fill-rule:nonzero;fill:rgb(39.99939%,39.99939%,39.99939%);fill-opacity:0.3;" d="M -26.488281 199.460938 L -26.703125 199.390625 L -24.875 196.449219 L -25.332031 196.226562 L -25.789062 196 L -27.664062 198.921875 L -30.882812 197.902344 L -22.539062 186.164062 L -21.089844 184.820312 L -19.632812 183.160156 L -17.570312 181.035156 L -15.808594 179.273438 L -13.648438 177.007812 L -10.753906 173.785156 L -8.109375 171.183594 L -6.347656 169.304688 L -1.605469 165.941406 L 1.09375 163.238281 L 3.316406 161.066406 L 5.429688 158.960938 L 7.296875 157.085938 L 12.339844 158.890625 L 14.78125 159.511719 L 5.640625 171.699219 L -16.453125 186.5625 Z M -26.488281 199.460938 "/>
<path style="fill-rule:nonzero;fill:rgb(39.99939%,39.99939%,39.99939%);fill-opacity:1;stroke-width:0.03;stroke-linecap:square;stroke-linejoin:miter;stroke:rgb(39.99939%,39.99939%,39.99939%);stroke-opacity:1;stroke-miterlimit:3.239307;" d="M 141.21875 292.714844 L 140.921875 290.835938 L 142.542969 288.984375 L 144.234375 287.886719 L 150.527344 290.300781 Z M 141.21875 292.714844 " transform="matrix(1,0,0,1,-74,-13)"/>
<path style="fill-rule:nonzero;fill:rgb(39.99939%,39.99939%,39.99939%);fill-opacity:1;stroke-width:0.03;stroke-linecap:square;stroke-linejoin:miter;stroke:rgb(39.99939%,39.99939%,39.99939%);stroke-opacity:1;stroke-miterlimit:3.239307;" d="M 142.4375 282.566406 L 144.289062 284.34375 L 137.808594 290.199219 L 130.417969 292.730469 L 125.429688 291.945312 L 133.058594 289.535156 L 137.078125 287.925781 Z M 142.4375 282.566406 " transform="matrix(1,0,0,1,-74,-13)"/>
<path style="fill-rule:nonzero;fill:rgb(39.99939%,39.99939%,39.99939%);fill-opacity:1;stroke-width:0.03;stroke-linecap:square;stroke-linejoin:miter;stroke:rgb(39.99939%,39.99939%,39.99939%);stroke-opacity:1;stroke-miterlimit:3.239307;" d="M 213.773438 230.96875 L 213.601562 232.609375 L 209.796875 233.644531 L 209.808594 233.285156 Z M 213.773438 230.96875 " transform="matrix(1,0,0,1,-74,-13)"/>
<path style="fill-rule:nonzero;fill:rgb(39.99939%,39.99939%,39.99939%);fill-opacity:1;stroke-width:0.03;stroke-linecap:square;stroke-linejoin:miter;stroke:rgb(39.99939%,39.99939%,39.99939%);stroke-opacity:1;stroke-miterlimit:3.239307;" d="M 165.667969 264.464844 L 156.992188 271.953125 L 145.433594 281.871094 L 144.210938 280.792969 L 144.308594 280.699219 L 164.390625 265.433594 Z M 165.667969 264.464844 " transform="matrix(1,0,0,1,-74,-13)"/>
<path style="fill-rule:nonzero;fill:rgb(39.99939%,39.99939%,39.99939%);fill-opacity:1;stroke-width:0.03;stroke-linecap:square;stroke-linejoin:miter;stroke:rgb(39.99939%,39.99939%,39.99939%);stroke-opacity:1;stroke-miterlimit:3.239307;" d="M 354.59375 263.378906 L 378.902344 265.515625 L 375.3125 280.167969 L 374.460938 283.507812 L 374.453125 283.664062 L 373.542969 287.382812 L 347.820312 289.765625 L 350.582031 286.144531 L 352.566406 280.789062 L 355.027344 266.550781 Z M 354.59375 263.378906 " transform="matrix(1,0,0,1,-74,-13)"/>
<path style="fill-rule:nonzero;fill:rgb(39.99939%,39.99939%,39.99939%);fill-opacity:1;stroke-width:0.03;stroke-linecap:square;stroke-linejoin:miter;stroke:rgb(39.99939%,39.99939%,39.99939%);stroke-opacity:1;stroke-miterlimit:3.239307;" d="M 190.5 250.464844 L 204.386719 241.492188 L 221.433594 279.304688 L 206.949219 285.941406 Z M 190.5 250.464844 " transform="matrix(1,0,0,1,-74,-13)"/>
<path style="fill-rule:nonzero;fill:rgb(39.99939%,39.99939%,39.99939%);fill-opacity:1;stroke-width:0.03;stroke-linecap:square;stroke-linejoin:miter;stroke:rgb(39.99939%,39.99939%,39.99939%);stroke-opacity:1;stroke-miterlimit:3.239307;" d="M 354.738281 240.304688 L 382.570312 246.636719 L 378.980469 263.871094 L 354.097656 261.539062 Z M 354.738281 240.304688 " transform="matrix(1,0,0,1,-74,-13)"/>
<path style="fill-rule:nonzero;fill:rgb(39.99939%,39.99939%,39.99939%);fill-opacity:1;stroke-width:0.03;stroke-linecap:square;stroke-linejoin:miter;stroke:rgb(39.99939%,39.99939%,39.99939%);stroke-opacity:1;stroke-miterlimit:3.239307;" d="M 316.574219 236.230469 L 316.582031 236.671875 L 298.015625 239.183594 L 297.957031 238.785156 Z M 316.574219 236.230469 " transform="matrix(1,0,0,1,-74,-13)"/>
<path style="fill-rule:nonzero;fill:rgb(39.99939%,39.99939%,39.99939%);fill-opacity:1;stroke-width:0.03;stroke-linecap:square;stroke-linejoin:miter;stroke:rgb(39.99939%,39.99939%,39.99939%);stroke-opacity:1;stroke-miterlimit:3.239307;" d="M 352.652344 236.992188 L 352.566406 237.523438 L 346.335938 236.238281 L 336.746094 236.519531 L 328.386719 236.140625 L 323.246094 237.066406 L 319.371094 237.085938 L 319.394531 235.804688 L 330.277344 234.105469 L 352.367188 236.917969 Z M 352.652344 236.992188 " transform="matrix(1,0,0,1,-74,-13)"/>
<path style="fill-rule:nonzero;fill:rgb(39.99939%,39.99939%,39.99939%);fill-opacity:1;stroke-width:0.03;stroke-linecap:square;stroke-linejoin:miter;stroke:rgb(39.99939%,39.99939%,39.99939%);stroke-opacity:1;stroke-miterlimit:3.239307;" d="M 375.378906 243.109375 L 354.5 238.40625 L 354.664062 237.535156 Z M 375.378906 243.109375 " transform="matrix(1,0,0,1,-74,-13)"/>
<path style="fill-rule:nonzero;fill:rgb(39.99939%,39.99939%,39.99939%);fill-opacity:1;stroke-width:0.03;stroke-linecap:square;stroke-linejoin:miter;stroke:rgb(39.99939%,39.99939%,39.99939%);stroke-opacity:1;stroke-miterlimit:3.239307;" d="M 262.707031 212.085938 L 262.976562 211.96875 L 277.660156 241.335938 L 296.351562 238.996094 L 296.378906 239.140625 L 277.230469 242.125 Z M 262.707031 212.085938 " transform="matrix(1,0,0,1,-74,-13)"/>
<path style="fill-rule:nonzero;fill:rgb(39.99939%,39.99939%,39.99939%);fill-opacity:1;stroke-width:0.03;stroke-linecap:square;stroke-linejoin:miter;stroke:rgb(39.99939%,39.99939%,39.99939%);stroke-opacity:1;stroke-miterlimit:3.239307;" d="M 261.664062 209.34375 L 256.429688 211.605469 L 256.53125 210.261719 L 261.191406 208.398438 Z M 261.664062 209.34375 " transform="matrix(1,0,0,1,-74,-13)"/>
<path style="fill-rule:nonzero;fill:rgb(39.99939%,39.99939%,39.99939%);fill-opacity:1;stroke-width:0.03;stroke-linecap:square;stroke-linejoin:miter;stroke:rgb(39.99939%,39.99939%,39.99939%);stroke-opacity:1;stroke-miterlimit:3.239307;" d="M 253.570312 211.644531 L 253.445312 213.523438 L 240.148438 220.351562 L 240.304688 218.609375 Z M 253.570312 211.644531 " transform="matrix(1,0,0,1,-74,-13)"/>
<path style="fill-rule:nonzero;fill:rgb(39.99939%,39.99939%,39.99939%);fill-opacity:1;stroke-width:0.03;stroke-linecap:square;stroke-linejoin:miter;stroke:rgb(39.99939%,39.99939%,39.99939%);stroke-opacity:1;stroke-miterlimit:3.239307;" d="M 238.648438 219.460938 L 238.519531 221.042969 L 215.390625 231.867188 L 215.566406 230.167969 L 218.210938 229.285156 Z M 238.648438 219.460938 " transform="matrix(1,0,0,1,-74,-13)"/>
<path style="fill-rule:nonzero;fill:rgb(39.99939%,39.99939%,39.99939%);fill-opacity:1;stroke-width:0.03;stroke-linecap:square;stroke-linejoin:miter;stroke:rgb(39.99939%,39.99939%,39.99939%);stroke-opacity:1;stroke-miterlimit:3.239307;" d="M 348.425781 291.8125 L 373.355469 290.488281 L 368.566406 321.570312 L 337.179688 310.410156 Z M 348.425781 291.8125 " transform="matrix(1,0,0,1,-74,-13)"/>
<path style="fill-rule:nonzero;fill:rgb(39.99939%,39.99939%,39.99939%);fill-opacity:1;stroke-width:0.03;stroke-linecap:square;stroke-linejoin:miter;stroke:rgb(39.99939%,39.99939%,39.99939%);stroke-opacity:1;stroke-miterlimit:3.239307;" d="M 307.933594 277.683594 L 349.058594 281.890625 L 345.140625 289.367188 L 307.339844 286.601562 Z M 307.933594 277.683594 " transform="matrix(1,0,0,1,-74,-13)"/>
<path style="fill-rule:nonzero;fill:rgb(39.99939%,39.99939%,39.99939%);fill-opacity:1;stroke-width:0.03;stroke-linecap:square;stroke-linejoin:miter;stroke:rgb(39.99939%,39.99939%,39.99939%);stroke-opacity:1;stroke-miterlimit:3.239307;" d="M 281.480469 276.550781 L 305.5625 277.546875 L 304.769531 286.765625 L 281.753906 286.792969 Z M 281.480469 276.550781 " transform="matrix(1,0,0,1,-74,-13)"/>
<path style="fill-rule:nonzero;fill:rgb(39.99939%,39.99939%,39.99939%);fill-opacity:1;stroke-width:0.03;stroke-linecap:square;stroke-linejoin:miter;stroke:rgb(39.99939%,39.99939%,39.99939%);stroke-opacity:1;stroke-miterlimit:3.239307;" d="M 274.835938 277.453125 L 279.648438 276.417969 L 279.433594 306.402344 L 268.246094 306.402344 L 268.375 295.457031 L 267.566406 295.429688 L 266.351562 295.394531 L 265.828125 306.464844 L 251.234375 307.113281 L 250.757812 300.183594 L 250.195312 294.082031 L 249.78125 291.128906 Z M 274.835938 277.453125 " transform="matrix(1,0,0,1,-74,-13)"/>
<path style="fill-rule:nonzero;fill:rgb(39.99939%,39.99939%,39.99939%);fill-opacity:1;stroke-width:0.03;stroke-linecap:square;stroke-linejoin:miter;stroke:rgb(39.99939%,39.99939%,39.99939%);stroke-opacity:1;stroke-miterlimit:3.239307;" d="M 281.828125 288.089844 L 304.410156 288.472656 L 302.457031 306.78125 L 282.105469 306.4375 Z M 281.828125 288.089844 " transform="matrix(1,0,0,1,-74,-13)"/>
<path style="fill-rule:nonzero;fill:rgb(39.99939%,39.99939%,39.99939%);fill-opacity:1;stroke-width:0.03;stroke-linecap:square;stroke-linejoin:miter;stroke:rgb(39.99939%,39.99939%,39.99939%);stroke-opacity:1;stroke-miterlimit:3.239307;" d="M 307.433594 288.464844 L 344.710938 291.042969 L 333.359375 308.664062 L 327.464844 308.449219 L 304.996094 306.890625 Z M 307.433594 288.464844 " transform="matrix(1,0,0,1,-74,-13)"/>
<path style="fill-rule:nonzero;fill:rgb(39.99939%,39.99939%,39.99939%);fill-opacity:1;stroke-width:0.03;stroke-linecap:square;stroke-linejoin:miter;stroke:rgb(39.99939%,39.99939%,39.99939%);stroke-opacity:1;stroke-miterlimit:3.239307;" d="M 207.605469 239.652344 L 218.1875 233.667969 L 221.675781 240.574219 L 228.980469 252.972656 L 234.957031 262.742188 L 242.464844 275.148438 L 244.757812 282.207031 L 247.09375 293.359375 L 248.390625 307.082031 L 239.5 305.601562 L 231.257812 303.382812 L 224.417969 279.140625 L 219.570312 265.117188 L 209.933594 245.339844 Z M 207.605469 239.652344 " transform="matrix(1,0,0,1,-74,-13)"/>
<path style="fill-rule:nonzero;fill:rgb(39.99939%,39.99939%,39.99939%);fill-opacity:1;stroke-width:0.03;stroke-linecap:square;stroke-linejoin:miter;stroke:rgb(39.99939%,39.99939%,39.99939%);stroke-opacity:1;stroke-miterlimit:3.239307;" d="M 243.046875 269.960938 L 263.203125 264.375 L 271.136719 260.5 L 276.464844 260.984375 L 281.375 260.484375 L 289.835938 260.570312 L 297.882812 260.851562 L 315.855469 261.519531 L 334.664062 262.679688 L 350.859375 263.546875 L 349.113281 280.101562 L 306.914062 275.558594 L 281.359375 274.222656 L 278.84375 274.15625 L 273.84375 275.425781 L 249.765625 288.582031 L 247.972656 278.972656 L 245.148438 273.839844 Z M 243.046875 269.960938 " transform="matrix(1,0,0,1,-74,-13)"/>
<path style="fill-rule:nonzero;fill:rgb(39.99939%,39.99939%,39.99939%);fill-opacity:1;stroke-width:0.03;stroke-linecap:square;stroke-linejoin:miter;stroke:rgb(39.99939%,39.99939%,39.99939%);stroke-opacity:1;stroke-miterlimit:3.239307;" d="M 183.597656 299.519531 L 222.03125 281.429688 L 224.8125 290.09375 L 227.972656 303.03125 L 225.441406 303.59375 L 217.410156 305.601562 L 206.164062 307.207031 L 198.933594 306.402344 Z M 183.597656 299.519531 " transform="matrix(1,0,0,1,-74,-13)"/>
<path style="fill-rule:nonzero;fill:rgb(39.99939%,39.99939%,39.99939%);fill-opacity:1;stroke-width:0.03;stroke-linecap:square;stroke-linejoin:miter;stroke:rgb(39.99939%,39.99939%,39.99939%);stroke-opacity:1;stroke-miterlimit:3.239307;" d="M 220.582031 232.386719 L 239.640625 222.484375 L 252.417969 244.789062 L 253.585938 244.023438 L 254.675781 243.3125 L 242.015625 221.703125 L 260.984375 212.667969 L 275.644531 243.097656 L 270.820312 244.199219 L 271.453125 245.691406 L 279.109375 244.289062 L 288.410156 243.382812 L 310.804688 240.613281 L 327.097656 238.507812 L 336.113281 237.757812 L 347.996094 238.273438 L 351.339844 239.953125 L 350.917969 260.953125 L 335.699219 259.972656 L 317.96875 259.292969 L 298.765625 258.617188 L 291.421875 258.429688 L 282.527344 258.714844 L 276.53125 258.90625 L 270.859375 258.449219 L 263.046875 262.542969 L 242.480469 268.429688 Z M 220.582031 232.386719 " transform="matrix(1,0,0,1,-74,-13)"/>
<path style="fill-rule:nonzero;fill:rgb(39.99939%,39.99939%,39.99939%);fill-opacity:1;stroke-width:0.03;stroke-linecap:square;stroke-linejoin:miter;stroke:rgb(39.99939%,39.99939%,39.99939%);stroke-opacity:1;stroke-miterlimit:3.239307;" d="M 156.609375 276.644531 L 166.191406 268.621094 L 176.976562 283.683594 L 177.566406 283.285156 L 178.136719 282.894531 L 167.847656 267.675781 L 179.082031 258.707031 L 188.21875 275.183594 L 188.914062 274.707031 L 189.597656 274.238281 L 180.375 257.269531 L 184.207031 254.300781 L 188.519531 251.222656 L 205.113281 286.699219 L 180.890625 297.835938 L 175.09375 295.636719 L 168.003906 292.34375 L 165.316406 291.410156 L 164.578125 291.082031 L 163.695312 290.847656 L 158.765625 289.132812 L 157.75 289.25 L 153.976562 288.238281 L 145.621094 285.378906 Z M 156.609375 276.644531 " transform="matrix(1,0,0,1,-74,-13)"/>
<path style=" stroke:none;fill-rule:evenodd;fill:rgb(85.096741%,85.096741%,81.959534%);fill-opacity:0.7;" d="M 176.066406 21 C 176.066406 16.738281 174.375 12.652344 171.359375 9.640625 C 168.347656 6.625 164.261719 4.933594 160 4.933594 C 155.738281 4.933594 151.652344 6.625 148.640625 9.640625 C 145.625 12.652344 143.933594 16.738281 143.933594 21 C 143.933594 25.261719 145.625 29.347656 148.640625 32.359375 C 151.652344 35.375 155.738281 37.066406 160 37.066406 C 164.261719 37.066406 168.347656 35.375 171.359375 32.359375 C 174.375 29.347656 176.066406 25.261719 176.066406 21 Z M 176.066406 21 "/>
</g>
</svg>
