<?xml version="1.0" encoding="UTF-8"?>
<svg xmlns="http://www.w3.org/2000/svg" xmlns:xlink="http://www.w3.org/1999/xlink" width="361pt" height="361pt" viewBox="0 0 361 361" version="1.1">
<defs>
<clipPath id="clip1">
  <path d="M 332 0 L 360 0 L 360 1 L 332 1 Z M 332 0 "/>
</clipPath>
<clipPath id="clip2">
  <path d="M 82 348 L 90 348 L 90 360 L 82 360 Z M 82 348 "/>
</clipPath>
<clipPath id="clip3">
  <path d="M 257 352 L 300 352 L 300 360 L 257 360 Z M 257 352 "/>
</clipPath>
<clipPath id="clip4">
  <path d="M 23 337 L 34 337 L 34 360 L 23 360 Z M 23 337 "/>
</clipPath>
<clipPath id="clip5">
  <path d="M 163 357 L 193 357 L 193 360 L 163 360 Z M 163 357 "/>
</clipPath>
<clipPath id="clip6">
  <path d="M 130 348 L 145 348 L 145 360 L 130 360 Z M 130 348 "/>
</clipPath>
<clipPath id="clip7">
  <path d="M 89 348 L 100 348 L 100 360 L 89 360 Z M 89 348 "/>
</clipPath>
<clipPath id="clip8">
  <path d="M 107 352 L 118 352 L 118 360 L 107 360 Z M 107 352 "/>
</clipPath>
<clipPath id="clip9">
  <path d="M 100 339 L 113 339 L 113 360 L 100 360 Z M 100 339 "/>
</clipPath>
<clipPath id="clip10">
  <path d="M 78 321 L 91 321 L 91 360 L 78 360 Z M 78 321 "/>
</clipPath>
<clipPath id="clip11">
  <path d="M 59 352 L 68 352 L 68 360 L 59 360 Z M 59 352 "/>
</clipPath>
<clipPath id="clip12">
  <path d="M 41 340 L 52 340 L 52 360 L 41 360 Z M 41 340 "/>
</clipPath>
<clipPath id="clip13">
  <path d="M 306 359 L 314 359 L 314 360 L 306 360 Z M 306 359 "/>
</clipPath>
<clipPath id="clip14">
  <path d="M 319 353 L 327 353 L 327 360 L 319 360 Z M 319 353 "/>
</clipPath>
<clipPath id="clip15">
  <path d="M 299 344 L 307 344 L 307 360 L 299 360 Z M 299 344 "/>
</clipPath>
<clipPath id="clip16">
  <path d="M 359 169 L 360 169 L 360 187 L 359 187 Z M 359 169 "/>
</clipPath>
<clipPath id="clip17">
  <path d="M 359 183 L 360 183 L 360 201 L 359 201 Z M 359 183 "/>
</clipPath>
<clipPath id="clip18">
  <path d="M 358 197 L 360 197 L 360 214 L 358 214 Z M 358 197 "/>
</clipPath>
<clipPath id="clip19">
  <path d="M 357 211 L 360 211 L 360 230 L 357 230 Z M 357 211 "/>
</clipPath>
<clipPath id="clip20">
  <path d="M 356 226 L 360 226 L 360 241 L 356 241 Z M 356 226 "/>
</clipPath>
<clipPath id="clip21">
  <path d="M 355 239 L 360 239 L 360 255 L 355 255 Z M 355 239 "/>
</clipPath>
<clipPath id="clip22">
  <path d="M 354 254 L 360 254 L 360 272 L 354 272 Z M 354 254 "/>
</clipPath>
<clipPath id="clip23">
  <path d="M 345 274 L 360 274 L 360 353 L 345 353 Z M 345 274 "/>
</clipPath>
<clipPath id="clip24">
  <path d="M 68 347 L 92 347 L 92 360 L 68 360 Z M 68 347 "/>
</clipPath>
<clipPath id="clip25">
  <path d="M 357 291 L 360 291 L 360 315 L 357 315 Z M 357 291 "/>
</clipPath>
<clipPath id="clip26">
  <path d="M 291 343 L 315 343 L 315 360 L 291 360 Z M 291 343 "/>
</clipPath>
</defs>
<g id="surface1204">
<path style="fill-rule:nonzero;fill:rgb(0%,0%,0%);fill-opacity:1;stroke-width:0.03;stroke-linecap:square;stroke-linejoin:miter;stroke:rgb(0%,0%,0%);stroke-opacity:1;stroke-miterlimit:10;" d="M 0 178 L 360 178 L 360 -182 L 0 -182 Z M 0 178 " transform="matrix(1,0,0,1,0,182)"/>
<path style=" stroke:none;fill-rule:nonzero;fill:rgb(39.99939%,39.99939%,39.99939%);fill-opacity:0.3;" d="M -2.644531 55.46875 L 29.972656 60.503906 L 31.808594 60.75 L 33.605469 61.65625 L 33.933594 63.277344 L 33.222656 64.269531 L 32.085938 65.078125 L 31.1875 65.617188 L 29.574219 66.425781 L -6.0625 76.179688 Z M -2.644531 55.46875 "/>
<path style=" stroke:none;fill-rule:nonzero;fill:rgb(39.99939%,39.99939%,39.99939%);fill-opacity:0.3;" d="M -0.0351562 41.792969 L 26.207031 45.742188 L 33.992188 58.632812 L -2.113281 53.039062 Z M -0.0351562 41.792969 "/>
<path style=" stroke:none;fill-rule:nonzero;fill:rgb(39.99939%,39.99939%,39.99939%);fill-opacity:0.3;" d="M 2.183594 28.152344 L 18.335938 31.027344 L 24.539062 43.195312 L -0.0390625 39.410156 Z M 2.183594 28.152344 "/>
<path style=" stroke:none;fill-rule:nonzero;fill:rgb(39.99939%,39.99939%,39.99939%);fill-opacity:0.3;" d="M 4.683594 13.964844 L 8.894531 14.753906 L 16.363281 27.988281 L 2.457031 25.632812 Z M 4.683594 13.964844 "/>
<path style=" stroke:none;fill-rule:nonzero;fill:rgb(39.99939%,39.99939%,39.99939%);fill-opacity:0.3;" d="M -15.3125 -2.542969 L -2.675781 -0.835938 L 2.527344 4.59375 L 1.414062 11.230469 L -17.421875 8.371094 Z M -15.3125 -2.542969 "/>
<path style=" stroke:none;fill-rule:nonzero;fill:rgb(39.99939%,39.99939%,39.99939%);fill-opacity:0.3;" d="M -17.835938 10.523438 L 1.121094 13.542969 L -1.105469 25.34375 L -19.5 22.597656 Z M -17.835938 10.523438 "/>
<path style=" stroke:none;fill-rule:nonzero;fill:rgb(39.99939%,39.99939%,39.99939%);fill-opacity:0.3;" d="M 47.933594 62.335938 L 47.398438 62.492188 L 47.386719 61.246094 Z M 47.933594 62.335938 "/>
<path style=" stroke:none;fill-rule:nonzero;fill:rgb(39.99939%,39.99939%,39.99939%);fill-opacity:0.3;" d="M 27.371094 32.582031 L 43.316406 34.296875 L 43.4375 61.195312 Z M 27.371094 32.582031 "/>
<path style=" stroke:none;fill-rule:nonzero;fill:rgb(39.99939%,39.99939%,39.99939%);fill-opacity:0.3;" d="M 17.527344 17.304688 L 42.929688 20.878906 L 43.234375 32.546875 L 26.175781 30.6875 Z M 17.527344 17.304688 "/>
<path style=" stroke:none;fill-rule:nonzero;fill:rgb(39.99939%,39.99939%,39.99939%);fill-opacity:0.3;" d="M 6.046875 0.539062 L 42.808594 6.902344 L 42.777344 18.46875 L 16.058594 14.828125 L 5.820312 2.316406 Z M 6.046875 0.539062 "/>
<path style=" stroke:none;fill-rule:nonzero;fill:rgb(39.99939%,39.99939%,39.99939%);fill-opacity:0.3;" d="M 8.101562 -12.160156 L 42.695312 -6.429688 L 42.898438 4.828125 L 6.328125 -1.023438 Z M 8.101562 -12.160156 "/>
<path style=" stroke:none;fill-rule:nonzero;fill:rgb(39.99939%,39.99939%,39.99939%);fill-opacity:0.3;" d="M 103.074219 35.1875 L 115.09375 35.195312 L 115.167969 42.988281 L 103.027344 46.273438 Z M 103.074219 35.1875 "/>
<path style=" stroke:none;fill-rule:nonzero;fill:rgb(39.99939%,39.99939%,39.99939%);fill-opacity:0.3;" d="M 88.789062 35.171875 L 100.457031 35.183594 L 100.414062 46.882812 L 89.148438 50.355469 Z M 88.789062 35.171875 "/>
<path style=" stroke:none;fill-rule:nonzero;fill:rgb(39.99939%,39.99939%,39.99939%);fill-opacity:0.3;" d="M 74.089844 35.144531 L 85.289062 35.164062 L 85.304688 51.308594 L 74.316406 54.605469 Z M 74.089844 35.144531 "/>
<path style=" stroke:none;fill-rule:nonzero;fill:rgb(39.99939%,39.99939%,39.99939%);fill-opacity:0.3;" d="M 60.621094 35.117188 L 70.789062 35.140625 L 71.113281 55.644531 L 60.859375 58.332031 Z M 60.621094 35.117188 "/>
<path style=" stroke:none;fill-rule:nonzero;fill:rgb(39.99939%,39.99939%,39.99939%);fill-opacity:0.3;" d="M 47.144531 35.078125 L 58.082031 35.109375 L 58.386719 59.285156 L 47.933594 62.335938 L 47.386719 61.246094 Z M 47.144531 35.078125 "/>
<path style=" stroke:none;fill-rule:nonzero;fill:rgb(39.99939%,39.99939%,39.99939%);fill-opacity:0.3;" d="M 102.550781 7.042969 L 114.761719 7.09375 L 115.09375 33.660156 L 102.949219 33.652344 Z M 102.550781 7.042969 "/>
<path style=" stroke:none;fill-rule:nonzero;fill:rgb(39.99939%,39.99939%,39.99939%);fill-opacity:0.3;" d="M 102.203125 -21.164062 L 114.253906 -21.183594 L 114.703125 5.414062 L 102.558594 5.363281 Z M 102.203125 -21.164062 "/>
<path style=" stroke:none;fill-rule:nonzero;fill:rgb(39.99939%,39.99939%,39.99939%);fill-opacity:0.3;" d="M 88.378906 6.980469 L 100.035156 7.03125 L 100.460938 33.648438 L 88.710938 33.632812 Z M 88.378906 6.980469 "/>
<path style=" stroke:none;fill-rule:nonzero;fill:rgb(39.99939%,39.99939%,39.99939%);fill-opacity:0.3;" d="M 87.472656 -21.097656 L 99.351562 -21.160156 L 99.886719 5.351562 L 88.402344 5.320312 Z M 87.472656 -21.097656 "/>
<path style=" stroke:none;fill-rule:nonzero;fill:rgb(39.99939%,39.99939%,39.99939%);fill-opacity:0.3;" d="M 73.71875 6.992188 L 84.867188 6.984375 L 85.292969 33.628906 L 74.128906 33.605469 Z M 73.71875 6.992188 "/>
<path style=" stroke:none;fill-rule:nonzero;fill:rgb(39.99939%,39.99939%,39.99939%);fill-opacity:0.3;" d="M 73.175781 -21.121094 L 84.511719 -21.136719 L 84.707031 5.320312 L 73.621094 5.328125 Z M 73.175781 -21.121094 "/>
<path style=" stroke:none;fill-rule:nonzero;fill:rgb(39.99939%,39.99939%,39.99939%);fill-opacity:0.3;" d="M 60.023438 7 L 70.277344 6.996094 L 70.6875 33.601562 L 60.699219 33.578125 Z M 60.023438 7 "/>
<path style=" stroke:none;fill-rule:nonzero;fill:rgb(39.99939%,39.99939%,39.99939%);fill-opacity:0.3;" d="M 59.511719 -21.097656 L 70.011719 -21.113281 L 70.273438 5.332031 L 59.988281 5.332031 Z M 59.511719 -21.097656 "/>
<path style=" stroke:none;fill-rule:nonzero;fill:rgb(39.99939%,39.99939%,39.99939%);fill-opacity:0.3;" d="M 46.417969 7.003906 L 57.4375 7 L 57.9375 33.570312 L 46.882812 33.535156 Z M 46.417969 7.003906 "/>
<path style=" stroke:none;fill-rule:nonzero;fill:rgb(39.99939%,39.99939%,39.99939%);fill-opacity:0.3;" d="M 46.1875 -21.078125 L 57.042969 -21.09375 L 57.433594 5.335938 L 46.289062 5.335938 Z M 46.1875 -21.078125 "/>
<path style=" stroke:none;fill-rule:nonzero;fill:rgb(39.99939%,39.99939%,39.99939%);fill-opacity:0.3;" d="M 180.460938 -22.417969 L 190.882812 7.734375 L 191.578125 9.871094 L 191.757812 12.792969 L 191.9375 15.03125 L 191.570312 17.09375 L 190.121094 18.816406 L 188.761719 20.191406 L 185.855469 21.25 L 117.789062 42.699219 L 116.851562 -21.851562 L 116.519531 -44.835938 L 174.976562 -38.289062 Z M 180.460938 -22.417969 "/>
<path style=" stroke:none;fill-rule:nonzero;fill:rgb(39.99939%,39.99939%,39.99939%);fill-opacity:0.3;" d="M 202.316406 2.925781 L 201.816406 2.023438 L 201.191406 0.691406 L 200.738281 -0.472656 L 200.289062 -1.894531 L 200.105469 -2.617188 L 200.082031 -3.089844 L 200.097656 -3.308594 L 200.132812 -3.457031 Z M 202.316406 2.925781 "/>
<path style=" stroke:none;fill-rule:nonzero;fill:rgb(39.99939%,39.99939%,39.99939%);fill-opacity:0.3;" d="M 226.199219 0.488281 L 224.820312 1.050781 L 223.375 1.683594 L 222.1875 2.230469 L 220.839844 2.890625 L 219.761719 3.445312 L 218.464844 4.148438 L 217.402344 4.753906 L 216.378906 5.363281 L 215.449219 5.933594 L 213.878906 6.890625 L 212.972656 7.308594 L 212.230469 7.550781 L 211.519531 7.714844 L 210.542969 7.921875 L 209.367188 7.996094 L 207.984375 7.84375 L 207.011719 7.574219 L 206.328125 7.292969 L 205.65625 6.933594 L 204.878906 6.386719 L 204.226562 5.699219 L 203.496094 4.75 L 203.003906 4.039062 L 202.398438 3.074219 L 202.316406 2.925781 L 200.132812 -3.457031 L 200.15625 -3.574219 L 200.273438 -3.746094 L 200.402344 -3.910156 L 200.59375 -4.027344 L 200.832031 -4.089844 L 201.15625 -4.097656 L 201.535156 -4.003906 L 226.039062 -3.160156 Z M 226.199219 0.488281 "/>
<path style=" stroke:none;fill-rule:nonzero;fill:rgb(39.99939%,39.99939%,39.99939%);fill-opacity:0.3;" d="M 227.183594 -3.035156 L 227.132812 0.128906 L 226.199219 0.488281 L 226.039062 -3.160156 L 226.699219 -3.140625 Z M 227.183594 -3.035156 "/>
<path style=" stroke:none;fill-rule:nonzero;fill:rgb(39.99939%,39.99939%,39.99939%);fill-opacity:0.3;" d="M 328.398438 2.101562 L 327.855469 14.765625 L 295.296875 13.191406 L 295.621094 0.960938 Z M 328.398438 2.101562 "/>
<g clip-path="url(#clip1)" clip-rule="nonzero">
<path style=" stroke:none;fill-rule:nonzero;fill:rgb(39.99939%,39.99939%,39.99939%);fill-opacity:0.3;" d="M 333.058594 -20.351562 L 360.492188 -17.191406 L 359.007812 0.777344 L 332.046875 -0.429688 Z M 333.058594 -20.351562 "/>
</g>
<path style=" stroke:none;fill-rule:nonzero;fill:rgb(39.99939%,39.99939%,39.99939%);fill-opacity:0.3;" d="M 332.234375 2.578125 L 359.195312 3.875 L 358.445312 15.554688 L 358.320312 15.902344 L 355.027344 15.808594 L 331.503906 14.9375 Z M 332.234375 2.578125 "/>
<path style=" stroke:none;fill-rule:nonzero;fill:rgb(39.99939%,39.99939%,39.99939%);fill-opacity:0.3;" d="M 258.226562 10.296875 L 255.636719 9.851562 L 254.996094 9.570312 L 254.898438 9.21875 L 267.96875 -13.019531 L 275.390625 -25.640625 L 292.488281 -23.507812 L 292.46875 -21.511719 L 266.210938 10.539062 L 265.867188 10.679688 L 265.472656 10.703125 L 262.390625 10.558594 L 259.851562 10.414062 Z M 258.226562 10.296875 "/>
<path style=" stroke:none;fill-rule:nonzero;fill:rgb(39.99939%,39.99939%,39.99939%);fill-opacity:0.3;" d="M 292.15625 1.074219 L 291.765625 12.996094 L 283.984375 12.554688 L 280.066406 13.292969 L 270.632812 13.0625 L 269.59375 12.765625 L 269.070312 12.273438 L 268.863281 11.777344 L 268.863281 11.1875 L 269.28125 10.597656 L 277.699219 0.660156 Z M 292.15625 1.074219 "/>
<path style=" stroke:none;fill-rule:nonzero;fill:rgb(39.99939%,39.99939%,39.99939%);fill-opacity:0.3;" d="M 327.855469 14.765625 L 327.84375 15.101562 L 295.285156 13.59375 L 295.296875 13.191406 Z M 327.855469 14.765625 "/>
<path style=" stroke:none;fill-rule:nonzero;fill:rgb(39.99939%,39.99939%,39.99939%);fill-opacity:0.3;" d="M 358.320312 15.902344 L 358.257812 16.085938 L 357.882812 16.347656 L 357.226562 16.523438 L 356.570312 16.523438 L 331.488281 15.234375 L 331.503906 14.9375 L 355.027344 15.808594 Z M 358.320312 15.902344 "/>
<path style=" stroke:none;fill-rule:nonzero;fill:rgb(39.99939%,39.99939%,39.99939%);fill-opacity:0.3;" d="M 291.765625 12.996094 L 291.746094 13.582031 L 280.066406 13.292969 L 283.984375 12.554688 Z M 291.765625 12.996094 "/>
<path style=" stroke:none;fill-rule:nonzero;fill:rgb(39.99939%,39.99939%,39.99939%);fill-opacity:0.3;" d="M 327.925781 106.78125 L 356.113281 107.855469 L 355.371094 125.789062 L 327.082031 124.453125 Z M 327.925781 106.78125 "/>
<path style=" stroke:none;fill-rule:nonzero;fill:rgb(39.99939%,39.99939%,39.99939%);fill-opacity:0.3;" d="M 329.539062 66.273438 L 357.78125 67.433594 L 357.042969 85.257812 L 328.886719 84.140625 Z M 329.539062 66.273438 "/>
<path style=" stroke:none;fill-rule:nonzero;fill:rgb(39.99939%,39.99939%,39.99939%);fill-opacity:0.3;" d="M 330.441406 45.957031 L 358.628906 46.847656 L 357.878906 64.980469 L 329.773438 63.828125 Z M 330.441406 45.957031 "/>
<path style=" stroke:none;fill-rule:nonzero;fill:rgb(39.99939%,39.99939%,39.99939%);fill-opacity:0.3;" d="M 331.921875 27.011719 L 359.40625 28.007812 L 358.726562 44.445312 L 330.46875 43.550781 Z M 331.921875 27.011719 "/>
<path style=" stroke:none;fill-rule:nonzero;fill:rgb(39.99939%,39.99939%,39.99939%);fill-opacity:0.3;" d="M 327.339844 147.269531 L 354.441406 148.375 L 353.761719 164.824219 L 324.703125 163.03125 L 325.4375 148.8125 Z M 327.339844 147.269531 "/>
<path style=" stroke:none;fill-rule:nonzero;fill:rgb(39.99939%,39.99939%,39.99939%);fill-opacity:0.3;" d="M 327.238281 127.070312 L 355.261719 128.503906 L 354.550781 145.710938 L 326.160156 144.546875 Z M 327.238281 127.070312 "/>
<path style=" stroke:none;fill-rule:nonzero;fill:rgb(39.99939%,39.99939%,39.99939%);fill-opacity:0.3;" d="M 258.492188 28.324219 L 260.558594 28.203125 L 262.726562 28.117188 L 263.074219 26.476562 L 277.808594 26.21875 L 291.765625 25.386719 L 291.21875 42.3125 L 258.117188 41.265625 Z M 258.492188 28.324219 "/>
<path style=" stroke:none;fill-rule:nonzero;fill:rgb(39.99939%,39.99939%,39.99939%);fill-opacity:0.3;" d="M 257.757812 43.65625 L 291.195312 44.714844 L 290.320312 62.210938 L 256.875 60.839844 Z M 257.757812 43.65625 "/>
<path style=" stroke:none;fill-rule:nonzero;fill:rgb(39.99939%,39.99939%,39.99939%);fill-opacity:0.3;" d="M 244.066406 43.226562 L 254.839844 43.566406 L 253.847656 60.714844 L 230.671875 59.765625 L 229.871094 59.542969 L 234.675781 53.570312 L 238.164062 49.386719 Z M 244.066406 43.226562 "/>
<path style=" stroke:none;fill-rule:nonzero;fill:rgb(39.99939%,39.99939%,39.99939%);fill-opacity:0.3;" d="M 256.671875 63.289062 L 290.441406 64.671875 L 289.671875 82.585938 L 255.792969 81.242188 Z M 256.671875 63.289062 "/>
<path style=" stroke:none;fill-rule:nonzero;fill:rgb(39.99939%,39.99939%,39.99939%);fill-opacity:0.3;" d="M 292.421875 85.007812 L 325.164062 86.304688 L 324.386719 103.785156 L 291.25 102.519531 Z M 292.421875 85.007812 "/>
<path style=" stroke:none;fill-rule:nonzero;fill:rgb(39.99939%,39.99939%,39.99939%);fill-opacity:0.3;" d="M 291.148438 105.378906 L 324.53125 106.652344 L 323.492188 124.304688 L 290.203125 122.929688 Z M 291.148438 105.378906 "/>
<path style=" stroke:none;fill-rule:nonzero;fill:rgb(39.99939%,39.99939%,39.99939%);fill-opacity:0.3;" d="M 290.242188 125.542969 L 323.261719 126.90625 L 322.550781 144.402344 L 289.804688 143.0625 Z M 290.242188 125.542969 "/>
<path style=" stroke:none;fill-rule:nonzero;fill:rgb(39.99939%,39.99939%,39.99939%);fill-opacity:0.3;" d="M 289.746094 145.730469 L 322.421875 147.261719 L 321.132812 162.859375 L 288.757812 160.546875 Z M 289.746094 145.730469 "/>
<path style=" stroke:none;fill-rule:nonzero;fill:rgb(39.99939%,39.99939%,39.99939%);fill-opacity:0.3;" d="M 253.359375 30.671875 L 255.605469 30.714844 L 255.425781 41.179688 L 243.785156 40.8125 Z M 253.359375 30.671875 "/>
<path style=" stroke:none;fill-rule:nonzero;fill:rgb(39.99939%,39.99939%,39.99939%);fill-opacity:0.3;" d="M 234.144531 66.316406 L 236.578125 62.464844 L 253.863281 63.171875 L 252.421875 81.109375 L 240.4375 80.632812 L 235.570312 69.957031 Z M 234.144531 66.316406 "/>
<path style=" stroke:none;fill-rule:nonzero;fill:rgb(39.99939%,39.99939%,39.99939%);fill-opacity:0.3;" d="M 255.566406 83.546875 L 289.59375 84.894531 L 288.226562 102.40625 L 254.6875 101.125 Z M 255.566406 83.546875 "/>
<path style=" stroke:none;fill-rule:nonzero;fill:rgb(39.99939%,39.99939%,39.99939%);fill-opacity:0.3;" d="M 241.316406 82.980469 L 252.402344 83.421875 L 251.722656 100.496094 L 249.882812 99.949219 L 243.523438 87.863281 Z M 241.316406 82.980469 "/>
<path style=" stroke:none;fill-rule:nonzero;fill:rgb(39.99939%,39.99939%,39.99939%);fill-opacity:0.3;" d="M 255.816406 104.03125 L 288.335938 105.273438 L 287.105469 122.804688 L 263.125 121.816406 L 254.703125 108.527344 L 254.613281 105.320312 Z M 255.816406 104.03125 "/>
<path style=" stroke:none;fill-rule:nonzero;fill:rgb(39.99939%,39.99939%,39.99939%);fill-opacity:0.3;" d="M 264.050781 124.464844 L 287.0625 125.414062 L 286.320312 142.921875 L 273.226562 142.617188 Z M 264.050781 124.464844 "/>
<path style=" stroke:none;fill-rule:nonzero;fill:rgb(39.99939%,39.99939%,39.99939%);fill-opacity:0.3;" d="M 274.773438 145.367188 L 285.726562 145.566406 L 284.742188 156.195312 L 284.195312 157.699219 L 281.84375 157.859375 L 280.695312 157.082031 Z M 274.773438 145.367188 "/>
<path style=" stroke:none;fill-rule:nonzero;fill:rgb(39.99939%,39.99939%,39.99939%);fill-opacity:0.3;" d="M 294.496094 25.597656 L 327.40625 27.015625 L 326.851562 43.4375 L 293.949219 41.976562 Z M 294.496094 25.597656 "/>
<path style=" stroke:none;fill-rule:nonzero;fill:rgb(39.99939%,39.99939%,39.99939%);fill-opacity:0.3;" d="M 293.9375 44.800781 L 326.925781 45.84375 L 325.929688 63.671875 L 293.285156 62.332031 Z M 293.9375 44.800781 "/>
<path style=" stroke:none;fill-rule:nonzero;fill:rgb(39.99939%,39.99939%,39.99939%);fill-opacity:0.3;" d="M 293.417969 64.792969 L 325.832031 66.125 L 325.179688 83.996094 L 292.699219 82.707031 Z M 293.417969 64.792969 "/>
<path style=" stroke:none;fill-rule:nonzero;fill:rgb(39.99939%,39.99939%,39.99939%);fill-opacity:0.3;" d="M 328.855469 86.453125 L 356.949219 87.566406 L 356.230469 104.996094 L 328.089844 103.925781 Z M 328.855469 86.453125 "/>
<path style=" stroke:none;fill-rule:nonzero;fill:rgb(39.99939%,39.99939%,39.99939%);fill-opacity:0.3;" d="M -1.058594 252.222656 L 13.929688 256.8125 L 15.8125 259.117188 L -37.632812 297.363281 L -38.742188 296.628906 Z M -1.058594 252.222656 "/>
<path style=" stroke:none;fill-rule:nonzero;fill:rgb(39.99939%,39.99939%,39.99939%);fill-opacity:0.3;" d="M 73.8125 358.148438 L 68.765625 357.25 L 69.78125 351.011719 L 65.875 350.117188 L 66.4375 347.300781 L 75.714844 349.230469 Z M 73.8125 358.148438 "/>
<g clip-path="url(#clip2)" clip-rule="nonzero">
<path style=" stroke:none;fill-rule:nonzero;fill:rgb(39.99939%,39.99939%,39.99939%);fill-opacity:0.3;" d="M 85.828125 348.695312 L 89.6875 349.457031 L 87.332031 363.578125 L 82.828125 362.933594 L 84.1875 357.890625 L 86.371094 358.277344 L 87.050781 354.660156 L 84.730469 354.402344 Z M 85.828125 348.695312 "/>
</g>
<g clip-path="url(#clip3)" clip-rule="nonzero">
<path style=" stroke:none;fill-rule:nonzero;fill:rgb(39.99939%,39.99939%,39.99939%);fill-opacity:0.3;" d="M 257.511719 388.171875 L 257.714844 384.238281 L 260.128906 370.824219 L 263.128906 359.609375 L 264.933594 355.609375 L 268.492188 352.929688 L 271.8125 352.234375 L 276.960938 352.113281 L 282.125 353.308594 L 286.421875 355.746094 L 292.121094 361.007812 L 294.929688 364.851562 L 295.714844 366.238281 L 297.117188 368.972656 L 298.621094 373.46875 L 299.40625 377.136719 L 299.308594 381.414062 L 297.632812 385.769531 L 295.460938 388.300781 L 287.242188 392.015625 L 279.792969 394.609375 L 270.671875 398.105469 L 267.214844 398.316406 L 264.273438 397.550781 L 261.917969 396.226562 L 259.511719 393.628906 Z M 257.511719 388.171875 "/>
</g>
<path style=" stroke:none;fill-rule:nonzero;fill:rgb(39.99939%,39.99939%,39.99939%);fill-opacity:0.3;" d="M 66.867188 280.050781 L 72.238281 281.148438 L 66.890625 304.261719 L 61.082031 303.027344 Z M 66.867188 280.050781 "/>
<path style=" stroke:none;fill-rule:nonzero;fill:rgb(39.99939%,39.99939%,39.99939%);fill-opacity:0.3;" d="M 73.800781 293.253906 L 77.925781 294.03125 L 71.828125 317.238281 L 67.769531 316.328125 Z M 73.800781 293.253906 "/>
<path style=" stroke:none;fill-rule:nonzero;fill:rgb(39.99939%,39.99939%,39.99939%);fill-opacity:0.3;" d="M 95.089844 285.15625 L 99.632812 286.214844 L 95.804688 302.707031 L 91.539062 301.914062 Z M 95.089844 285.15625 "/>
<path style=" stroke:none;fill-rule:nonzero;fill:rgb(39.99939%,39.99939%,39.99939%);fill-opacity:0.3;" d="M 75.589844 285.0625 L 90.464844 288.605469 L 87.722656 301.695312 L 96.65625 303.429688 L 94.449219 312.546875 L 80.207031 309.910156 L 79.472656 312.910156 L 74.433594 311.839844 L 79.882812 291.347656 L 74.339844 290.21875 Z M 75.589844 285.0625 "/>
<path style=" stroke:none;fill-rule:nonzero;fill:rgb(39.99939%,39.99939%,39.99939%);fill-opacity:0.3;" d="M 25.089844 317.558594 L 66.320312 326.878906 L 65.597656 329.769531 L 24.367188 320.171875 Z M 25.089844 317.558594 "/>
<path style=" stroke:none;fill-rule:nonzero;fill:rgb(39.99939%,39.99939%,39.99939%);fill-opacity:0.3;" d="M 55.410156 289.140625 L 59.328125 289.960938 L 53.542969 314.179688 L 49.1875 313.082031 Z M 55.410156 289.140625 "/>
<path style=" stroke:none;fill-rule:nonzero;fill:rgb(39.99939%,39.99939%,39.99939%);fill-opacity:0.3;" d="M 50.316406 275.523438 L 61.058594 278.128906 L 58.164062 288.585938 L 47.566406 286.53125 Z M 50.316406 275.523438 "/>
<path style=" stroke:none;fill-rule:nonzero;fill:rgb(39.99939%,39.99939%,39.99939%);fill-opacity:0.3;" d="M 58.875 270.839844 L 77.023438 274.953125 L 76.300781 277.980469 L 58.152344 273.867188 Z M 58.875 270.839844 "/>
<path style=" stroke:none;fill-rule:nonzero;fill:rgb(39.99939%,39.99939%,39.99939%);fill-opacity:0.3;" d="M 48.410156 267.621094 L 51.082031 268.152344 L 41.152344 310.417969 L 37.742188 309.773438 Z M 48.410156 267.621094 "/>
<path style=" stroke:none;fill-rule:nonzero;fill:rgb(39.99939%,39.99939%,39.99939%);fill-opacity:0.3;" d="M 41.195312 327.933594 L 46.488281 329.011719 L 40.261719 352.75 L 35.625 351.71875 Z M 41.195312 327.933594 "/>
<g clip-path="url(#clip4)" clip-rule="nonzero">
<path style=" stroke:none;fill-rule:nonzero;fill:rgb(39.99939%,39.99939%,39.99939%);fill-opacity:0.3;" d="M 28.878906 337.503906 L 33.960938 338.601562 L 28.324219 362.265625 L 23.097656 360.894531 Z M 28.878906 337.503906 "/>
</g>
<path style=" stroke:none;fill-rule:nonzero;fill:rgb(39.99939%,39.99939%,39.99939%);fill-opacity:0.3;" d="M 23 323.613281 L 28.078125 324.433594 L 22.003906 348.652344 L 17.070312 347.554688 Z M 23 323.613281 "/>
<path style=" stroke:none;fill-rule:nonzero;fill:rgb(39.99939%,39.99939%,39.99939%);fill-opacity:0.3;" d="M 1.503906 305.332031 L 7.3125 306.289062 L 1.382812 330.230469 L -4.425781 329.273438 Z M 1.503906 305.332031 "/>
<path style=" stroke:none;fill-rule:nonzero;fill:rgb(39.99939%,39.99939%,39.99939%);fill-opacity:0.3;" d="M 8.34375 302.816406 L 14.566406 278.875 L 19.644531 280.246094 L 13.136719 303.636719 Z M 8.34375 302.816406 "/>
<path style=" stroke:none;fill-rule:nonzero;fill:rgb(39.99939%,39.99939%,39.99939%);fill-opacity:0.3;" d="M -14.582031 336.300781 L 0.949219 339.3125 L -0.589844 345.769531 L -16.535156 342.757812 Z M -14.582031 336.300781 "/>
<g clip-path="url(#clip5)" clip-rule="nonzero">
<path style=" stroke:none;fill-rule:nonzero;fill:rgb(39.99939%,39.99939%,39.99939%);fill-opacity:0.3;" d="M 164.570312 357.890625 L 192.804688 364.457031 L 192.261719 367.300781 L 163.757812 360.992188 Z M 164.570312 357.890625 "/>
</g>
<g clip-path="url(#clip6)" clip-rule="nonzero">
<path style=" stroke:none;fill-rule:nonzero;fill:rgb(39.99939%,39.99939%,39.99939%);fill-opacity:0.3;" d="M 141.332031 348.828125 L 144.746094 349.441406 L 134.074219 393.039062 L 130.34375 392.277344 Z M 141.332031 348.828125 "/>
</g>
<path style=" stroke:none;fill-rule:nonzero;fill:rgb(39.99939%,39.99939%,39.99939%);fill-opacity:0.3;" d="M 91.324219 327.261719 L 100.074219 329.152344 L 98.269531 336.304688 L 89.457031 334.488281 Z M 91.324219 327.261719 "/>
<path style=" stroke:none;fill-rule:nonzero;fill:rgb(39.99939%,39.99939%,39.99939%);fill-opacity:0.3;" d="M 90.535156 336.734375 L 100.046875 338.664062 L 98.453125 345.65625 L 89.03125 343.640625 Z M 90.535156 336.734375 "/>
<g clip-path="url(#clip7)" clip-rule="nonzero">
<path style=" stroke:none;fill-rule:nonzero;fill:rgb(39.99939%,39.99939%,39.99939%);fill-opacity:0.3;" d="M 95.507812 348.46875 L 99.738281 349.242188 L 94.03125 373.414062 L 89.804688 372.644531 Z M 95.507812 348.46875 "/>
</g>
<g clip-path="url(#clip8)" clip-rule="nonzero">
<path style=" stroke:none;fill-rule:nonzero;fill:rgb(39.99939%,39.99939%,39.99939%);fill-opacity:0.3;" d="M 112.96875 352.851562 L 117.46875 353.492188 L 111.21875 376.890625 L 107.535156 376.117188 Z M 112.96875 352.851562 "/>
</g>
<g clip-path="url(#clip9)" clip-rule="nonzero">
<path style=" stroke:none;fill-rule:nonzero;fill:rgb(39.99939%,39.99939%,39.99939%);fill-opacity:0.3;" d="M 106.269531 339.421875 L 112.40625 340.707031 L 106.289062 364.621094 L 100.289062 363.464844 Z M 106.269531 339.421875 "/>
</g>
<path style=" stroke:none;fill-rule:nonzero;fill:rgb(39.99939%,39.99939%,39.99939%);fill-opacity:0.3;" d="M 221.695312 310.300781 L 252.480469 317.070312 L 251.785156 319.90625 L 221.101562 313.039062 Z M 221.695312 310.300781 "/>
<path style=" stroke:none;fill-rule:nonzero;fill:rgb(39.99939%,39.99939%,39.99939%);fill-opacity:0.3;" d="M 237.242188 319.445312 L 246.609375 321.984375 L 244.820312 329.824219 L 235.058594 327.847656 Z M 237.242188 319.445312 "/>
<path style=" stroke:none;fill-rule:nonzero;fill:rgb(39.99939%,39.99939%,39.99939%);fill-opacity:0.3;" d="M 227.132812 323.625 L 232.339844 324.667969 L 227.757812 341.722656 L 222.644531 340.328125 Z M 227.132812 323.625 "/>
<path style=" stroke:none;fill-rule:nonzero;fill:rgb(39.99939%,39.99939%,39.99939%);fill-opacity:0.3;" d="M 264.246094 318.609375 L 269.226562 319.832031 L 262.476562 347.027344 L 257.496094 345.992188 Z M 264.246094 318.609375 "/>
<path style=" stroke:none;fill-rule:nonzero;fill:rgb(39.99939%,39.99939%,39.99939%);fill-opacity:0.3;" d="M 251.800781 324.757812 L 254.988281 325.507812 L 248.636719 352.609375 L 245.152344 351.949219 Z M 251.800781 324.757812 "/>
<path style=" stroke:none;fill-rule:nonzero;fill:rgb(39.99939%,39.99939%,39.99939%);fill-opacity:0.3;" d="M 239.269531 330.65625 L 242.476562 331.316406 L 235.59375 358.566406 L 232.386719 357.890625 Z M 239.269531 330.65625 "/>
<path style=" stroke:none;fill-rule:nonzero;fill:rgb(39.99939%,39.99939%,39.99939%);fill-opacity:0.3;" d="M 215.992188 326.640625 L 221.722656 327.75 L 214.203125 354.722656 L 197.339844 350.820312 L 200.691406 340.054688 L 202.988281 328.949219 L 214.964844 331.097656 Z M 215.992188 326.640625 "/>
<path style=" stroke:none;fill-rule:nonzero;fill:rgb(39.99939%,39.99939%,39.99939%);fill-opacity:0.3;" d="M 64.8125 316.328125 L 57.386719 314.707031 L 59.441406 304.667969 L 67.144531 306.226562 Z M 64.8125 316.328125 "/>
<path style=" stroke:none;fill-rule:nonzero;fill:rgb(39.99939%,39.99939%,39.99939%);fill-opacity:0.3;" d="M 34.207031 310.011719 L 29.128906 309.140625 L 31.691406 298.203125 L 36.835938 299.199219 Z M 34.207031 310.011719 "/>
<path style=" stroke:none;fill-rule:nonzero;fill:rgb(39.99939%,39.99939%,39.99939%);fill-opacity:0.3;" d="M -4.257812 293.246094 L 1.550781 294.203125 L -4.378906 318.144531 L -10.183594 317.1875 Z M -4.257812 293.246094 "/>
<g clip-path="url(#clip10)" clip-rule="nonzero">
<path style=" stroke:none;fill-rule:nonzero;fill:rgb(39.99939%,39.99939%,39.99939%);fill-opacity:0.3;" d="M 87.550781 321.5625 L 90.417969 322.335938 L 81.179688 360.339844 L 78.285156 359.738281 Z M 87.550781 321.5625 "/>
</g>
<g clip-path="url(#clip11)" clip-rule="nonzero">
<path style=" stroke:none;fill-rule:nonzero;fill:rgb(39.99939%,39.99939%,39.99939%);fill-opacity:0.3;" d="M 62.792969 352.902344 L 67.839844 353.832031 L 64.511719 369.863281 L 59.214844 368.933594 Z M 62.792969 352.902344 "/>
</g>
<g clip-path="url(#clip12)" clip-rule="nonzero">
<path style=" stroke:none;fill-rule:nonzero;fill:rgb(39.99939%,39.99939%,39.99939%);fill-opacity:0.3;" d="M 47.511719 340.429688 L 51.867188 341.25 L 46.375 365.46875 L 41.585938 364.507812 Z M 47.511719 340.429688 "/>
</g>
<path style=" stroke:none;fill-rule:nonzero;fill:rgb(39.99939%,39.99939%,39.99939%);fill-opacity:0.3;" d="M 59.328125 332.476562 L 63.148438 333.25 L 57.988281 356.648438 L 54.03125 356.003906 Z M 59.328125 332.476562 "/>
<path style=" stroke:none;fill-rule:nonzero;fill:rgb(39.99939%,39.99939%,39.99939%);fill-opacity:0.3;" d="M 81.582031 276.125 L 99.371094 279.988281 L 98.699219 282.65625 L 81.035156 278.914062 Z M 81.582031 276.125 "/>
<path style=" stroke:none;fill-rule:nonzero;fill:rgb(39.99939%,39.99939%,39.99939%);fill-opacity:0.3;" d="M 129.648438 291.726562 L 133.132812 292.546875 L 123.007812 333.6875 L 119.523438 333.003906 Z M 129.648438 291.726562 "/>
<path style=" stroke:none;fill-rule:nonzero;fill:rgb(39.99939%,39.99939%,39.99939%);fill-opacity:0.3;" d="M 44.070312 303.109375 L 47.550781 303.945312 L 45.648438 311.191406 L 42.234375 310.546875 Z M 44.070312 303.109375 "/>
<path style=" stroke:none;fill-rule:nonzero;fill:rgb(39.99939%,39.99939%,39.99939%);fill-opacity:0.3;" d="M 46.246094 294.054688 L 50 294.890625 L 48.300781 302.007812 L 44.410156 301.167969 Z M 46.246094 294.054688 "/>
<path style=" stroke:none;fill-rule:nonzero;fill:rgb(39.99939%,39.99939%,39.99939%);fill-opacity:0.3;" d="M 47.398438 287.519531 L 51.5625 288.421875 L 50.476562 292.886719 L 46.378906 292.113281 Z M 47.398438 287.519531 "/>
<path style=" stroke:none;fill-rule:nonzero;fill:rgb(39.99939%,39.99939%,39.99939%);fill-opacity:0.3;" d="M 190.558594 314.992188 L 200.667969 317.261719 L 198.472656 325.230469 L 188.160156 322.773438 Z M 190.558594 314.992188 "/>
<path style=" stroke:none;fill-rule:nonzero;fill:rgb(39.99939%,39.99939%,39.99939%);fill-opacity:0.3;" d="M 197.054688 304.929688 L 215.878906 309.847656 L 211.191406 327.78125 L 200.675781 325.703125 L 203.367188 311.375 L 196.359375 309.671875 Z M 197.054688 304.929688 "/>
<path style=" stroke:none;fill-rule:nonzero;fill:rgb(39.99939%,39.99939%,39.99939%);fill-opacity:0.3;" d="M 150.492188 292.761719 L 153.988281 293.585938 L 147.261719 320.851562 L 143.84375 320.175781 Z M 150.492188 292.761719 "/>
<path style=" stroke:none;fill-rule:nonzero;fill:rgb(39.99939%,39.99939%,39.99939%);fill-opacity:0.3;" d="M 163.320312 297.433594 L 179.621094 301.046875 L 177.425781 309.304688 L 161.867188 305.660156 Z M 163.320312 297.433594 "/>
<path style=" stroke:none;fill-rule:nonzero;fill:rgb(39.99939%,39.99939%,39.99939%);fill-opacity:0.3;" d="M 142.460938 332.125 L 153.507812 334.234375 L 151.082031 344.457031 L 140.234375 342.160156 Z M 142.460938 332.125 "/>
<path style=" stroke:none;fill-rule:nonzero;fill:rgb(39.99939%,39.99939%,39.99939%);fill-opacity:0.3;" d="M 188.691406 304.984375 L 191.570312 305.578125 L 180.722656 347.441406 L 177.753906 347.015625 Z M 188.691406 304.984375 "/>
<path style=" stroke:none;fill-rule:nonzero;fill:rgb(39.99939%,39.99939%,39.99939%);fill-opacity:0.3;" d="M 167.007812 314.503906 L 170.054688 315.113281 L 163.054688 342.246094 L 160.054688 341.664062 Z M 167.007812 314.503906 "/>
<path style=" stroke:none;fill-rule:nonzero;fill:rgb(39.99939%,39.99939%,39.99939%);fill-opacity:0.3;" d="M 105.324219 318.074219 L 117.246094 320.253906 L 115.355469 329.648438 L 103.132812 327.199219 Z M 105.324219 318.074219 "/>
<path style=" stroke:none;fill-rule:nonzero;fill:rgb(39.99939%,39.99939%,39.99939%);fill-opacity:0.3;" d="M 104.515625 281.175781 L 118.484375 284.117188 L 117.785156 287.152344 L 103.820312 284.289062 Z M 104.515625 281.175781 "/>
<path style=" stroke:none;fill-rule:nonzero;fill:rgb(39.99939%,39.99939%,39.99939%);fill-opacity:0.3;" d="M 101.261719 299.183594 L 104.933594 299.777344 L 99.332031 323.597656 L 95.375 322.894531 Z M 101.261719 299.183594 "/>
<path style=" stroke:none;fill-rule:nonzero;fill:rgb(39.99939%,39.99939%,39.99939%);fill-opacity:0.3;" d="M 119.742188 294.453125 L 125.398438 295.589844 L 120.820312 312.40625 L 115.164062 311.273438 Z M 119.742188 294.453125 "/>
<path style=" stroke:none;fill-rule:nonzero;fill:rgb(39.99939%,39.99939%,39.99939%);fill-opacity:0.3;" d="M 112.882812 290.105469 L 116.773438 290.972656 L 110.644531 315.429688 L 106.6875 314.359375 Z M 112.882812 290.105469 "/>
<g clip-path="url(#clip13)" clip-rule="nonzero">
<path style=" stroke:none;fill-rule:nonzero;fill:rgb(39.99939%,39.99939%,39.99939%);fill-opacity:0.3;" d="M 310.117188 359.988281 L 313.035156 360.554688 L 309.445312 374.867188 L 306.699219 374.300781 Z M 310.117188 359.988281 "/>
</g>
<g clip-path="url(#clip14)" clip-rule="nonzero">
<path style=" stroke:none;fill-rule:nonzero;fill:rgb(39.99939%,39.99939%,39.99939%);fill-opacity:0.3;" d="M 320.902344 353.074219 L 326.304688 354.199219 L 324.472656 360.757812 L 319.175781 359.632812 Z M 320.902344 353.074219 "/>
</g>
<g clip-path="url(#clip15)" clip-rule="nonzero">
<path style=" stroke:none;fill-rule:nonzero;fill:rgb(39.99939%,39.99939%,39.99939%);fill-opacity:0.3;" d="M 303.085938 344.628906 L 306.210938 345.09375 L 302.933594 361.167969 L 299.558594 360.234375 Z M 303.085938 344.628906 "/>
</g>
<path style=" stroke:none;fill-rule:nonzero;fill:rgb(39.99939%,39.99939%,39.99939%);fill-opacity:0.3;" d="M 274.617188 341.058594 L 287.453125 344.324219 L 286.46875 348.226562 L 273.550781 344.882812 Z M 274.617188 341.058594 "/>
<path style=" stroke:none;fill-rule:nonzero;fill:rgb(39.99939%,39.99939%,39.99939%);fill-opacity:0.3;" d="M 282.109375 320.308594 L 285.8125 321.355469 L 284.671875 325.902344 L 286.125 326.632812 L 287.03125 323.441406 L 298.3125 326.234375 L 297.542969 330.675781 L 299.863281 331.105469 L 300.289062 328.214844 L 308.269531 330.160156 L 306.210938 343.378906 L 276.1875 337.179688 L 276.699219 332.949219 L 279.082031 333.019531 L 280.003906 328.675781 L 278.101562 328.238281 L 279.042969 324.871094 L 280.871094 325.261719 Z M 282.109375 320.308594 "/>
<path style=" stroke:none;fill-rule:nonzero;fill:rgb(39.99939%,39.99939%,39.99939%);fill-opacity:0.3;" d="M 350.050781 352.683594 L 354.933594 353.746094 L 353.4375 359.179688 L 348.617188 358.230469 Z M 350.050781 352.683594 "/>
<path style=" stroke:none;fill-rule:nonzero;fill:rgb(39.99939%,39.99939%,39.99939%);fill-opacity:0.3;" d="M 175.113281 161 L 178.777344 161.511719 L 176 184.574219 L 169.847656 183.730469 Z M 175.113281 161 "/>
<path style=" stroke:none;fill-rule:nonzero;fill:rgb(39.99939%,39.99939%,39.99939%);fill-opacity:0.3;" d="M 182.902344 187.925781 L 207.464844 191.285156 L 201.5625 213.246094 L 179.753906 211.515625 Z M 182.902344 187.925781 "/>
<path style=" stroke:none;fill-rule:nonzero;fill:rgb(39.99939%,39.99939%,39.99939%);fill-opacity:0.3;" d="M 169.546875 186.097656 L 180.558594 187.605469 L 177.503906 211.515625 L 164.222656 210.289062 Z M 169.546875 186.097656 "/>
<path style=" stroke:none;fill-rule:nonzero;fill:rgb(39.99939%,39.99939%,39.99939%);fill-opacity:0.3;" d="M 150.59375 155.460938 L 164.375 138.613281 L 166.554688 143.015625 L 167.457031 149.339844 L 166.867188 157.367188 Z M 150.59375 155.460938 "/>
<path style=" stroke:none;fill-rule:nonzero;fill:rgb(39.99939%,39.99939%,39.99939%);fill-opacity:0.3;" d="M 138.925781 173.339844 L 137.632812 179.378906 L 133.949219 178.730469 L 135.558594 173.265625 Z M 138.925781 173.339844 "/>
<path style=" stroke:none;fill-rule:nonzero;fill:rgb(39.99939%,39.99939%,39.99939%);fill-opacity:0.3;" d="M 161.171875 185.53125 L 159.539062 196.703125 L 122.761719 191.957031 L 123.542969 188.371094 L 125.925781 184.417969 L 129.285156 181.351562 L 132.625 181.089844 L 137.253906 181.234375 Z M 161.171875 185.53125 "/>
<path style=" stroke:none;fill-rule:nonzero;fill:rgb(39.99939%,39.99939%,39.99939%);fill-opacity:0.3;" d="M 119.078125 208.996094 L 122.292969 193.398438 L 159.226562 198.144531 L 157.429688 211.28125 Z M 119.078125 208.996094 "/>
<path style=" stroke:none;fill-rule:nonzero;fill:rgb(39.99939%,39.99939%,39.99939%);fill-opacity:0.3;" d="M 151.601562 127.640625 L 161.414062 136.402344 L 125.410156 177.9375 L 121.375 182.589844 L 119.082031 186.949219 L 118.074219 192.003906 L 114.777344 208.832031 L 85.617188 207.894531 Z M 151.601562 127.640625 "/>
<path style=" stroke:none;fill-rule:nonzero;fill:rgb(39.99939%,39.99939%,39.99939%);fill-opacity:0.3;" d="M 164.289062 214.117188 L 200.6875 216.789062 L 197.144531 233.511719 L 161.070312 225.722656 Z M 164.289062 214.117188 "/>
<path style=" stroke:none;fill-rule:nonzero;fill:rgb(39.99939%,39.99939%,39.99939%);fill-opacity:0.3;" d="M 230.671875 59.765625 L 229.722656 59.726562 L 229.871094 59.542969 Z M 230.671875 59.765625 "/>
<path style=" stroke:none;fill-rule:nonzero;fill:rgb(39.99939%,39.99939%,39.99939%);fill-opacity:0.3;" d="M 183.410156 185.585938 L 177.847656 184.824219 L 180.253906 161.699219 L 186.050781 162.507812 Z M 183.410156 185.585938 "/>
<path style=" stroke:none;fill-rule:nonzero;fill:rgb(39.99939%,39.99939%,39.99939%);fill-opacity:0.3;" d="M 224.0625 137.046875 L 227.121094 125.960938 L 259.261719 132.679688 L 266.738281 146.464844 Z M 224.0625 137.046875 "/>
<path style=" stroke:none;fill-rule:nonzero;fill:rgb(39.99939%,39.99939%,39.99939%);fill-opacity:0.3;" d="M 251.550781 146.308594 L 267.761719 149.945312 L 278.703125 171.746094 L 247.089844 167.1875 Z M 251.550781 146.308594 "/>
<path style=" stroke:none;fill-rule:nonzero;fill:rgb(39.99939%,39.99939%,39.99939%);fill-opacity:0.3;" d="M 244.8125 169.960938 L 282.910156 175.941406 L 284.328125 177.132812 L 292.613281 194.140625 L 299.082031 208.835938 L 297.722656 215.507812 L 296.546875 223.570312 L 235.433594 216.527344 Z M 244.8125 169.960938 "/>
<path style=" stroke:none;fill-rule:nonzero;fill:rgb(39.99939%,39.99939%,39.99939%);fill-opacity:0.3;" d="M 216.453125 166.410156 L 243.152344 170.269531 L 237.226562 192.953125 L 210.617188 189.3125 Z M 216.453125 166.410156 "/>
<path style=" stroke:none;fill-rule:nonzero;fill:rgb(39.99939%,39.99939%,39.99939%);fill-opacity:0.3;" d="M 210.046875 191.640625 L 236.925781 195.320312 L 233.261719 216.445312 L 204.417969 213.464844 Z M 210.046875 191.640625 "/>
<path style=" stroke:none;fill-rule:nonzero;fill:rgb(39.99939%,39.99939%,39.99939%);fill-opacity:0.3;" d="M 199.917969 234.203125 L 204.085938 217.089844 L 245.703125 222.265625 L 241.070312 243.214844 Z M 199.917969 234.203125 "/>
<path style=" stroke:none;fill-rule:nonzero;fill:rgb(39.99939%,39.99939%,39.99939%);fill-opacity:0.3;" d="M 199.453125 236.578125 L 240.449219 245.722656 L 237.121094 259.167969 L 196.304688 249.976562 Z M 199.453125 236.578125 "/>
<path style=" stroke:none;fill-rule:nonzero;fill:rgb(39.99939%,39.99939%,39.99939%);fill-opacity:0.3;" d="M 197.53125 99.300781 L 206.363281 87.523438 L 232.039062 93.796875 L 228.488281 107.222656 Z M 197.53125 99.300781 "/>
<path style=" stroke:none;fill-rule:nonzero;fill:rgb(39.99939%,39.99939%,39.99939%);fill-opacity:0.3;" d="M 207.988281 86.308594 L 218.300781 72.90625 L 218.554688 72.648438 L 219.109375 72.183594 L 219.796875 71.917969 L 220.125 71.832031 L 220.457031 71.746094 L 220.886719 71.753906 L 221.113281 71.761719 L 221.609375 71.882812 L 222.101562 72.035156 L 222.84375 72.328125 L 223.40625 72.738281 L 233.785156 87.832031 L 232.257812 92.410156 Z M 207.988281 86.308594 "/>
<path style=" stroke:none;fill-rule:nonzero;fill:rgb(39.99939%,39.99939%,39.99939%);fill-opacity:0.3;" d="M 195.4375 133.257812 L 219.707031 138.925781 L 213.191406 163.574219 L 189.011719 160.011719 Z M 195.4375 133.257812 "/>
<path style=" stroke:none;fill-rule:nonzero;fill:rgb(39.99939%,39.99939%,39.99939%);fill-opacity:0.3;" d="M 216.023438 105.761719 L 228.214844 108.734375 L 220.457031 136.25 L 208.988281 133.71875 Z M 216.023438 105.761719 "/>
<path style=" stroke:none;fill-rule:nonzero;fill:rgb(39.99939%,39.99939%,39.99939%);fill-opacity:0.3;" d="M 167.839844 132.921875 L 181.886719 118.230469 L 180.195312 128.074219 L 180.464844 129.859375 L 181.367188 130.484375 L 193.347656 132.925781 L 189.613281 149.027344 L 173.925781 145.585938 L 172.414062 138.773438 L 169.722656 135.804688 Z M 167.839844 132.921875 "/>
<path style=" stroke:none;fill-rule:nonzero;fill:rgb(39.99939%,39.99939%,39.99939%);fill-opacity:0.3;" d="M 173.128906 147.152344 L 186.984375 150.039062 L 187.640625 159.828125 L 174.296875 157.632812 L 173.933594 153.902344 L 174.289062 150.929688 Z M 173.128906 147.152344 "/>
<path style=" stroke:none;fill-rule:nonzero;fill:rgb(39.99939%,39.99939%,39.99939%);fill-opacity:0.3;" d="M 160.613281 227.894531 L 196.511719 236.0625 L 193.582031 249.464844 L 157.234375 241.363281 Z M 160.613281 227.894531 "/>
<path style=" stroke:none;fill-rule:nonzero;fill:rgb(39.99939%,39.99939%,39.99939%);fill-opacity:0.3;" d="M 115.910156 221.566406 L 117.722656 213.316406 L 153.644531 214.789062 L 150.09375 228.449219 Z M 115.910156 221.566406 "/>
<path style=" stroke:none;fill-rule:nonzero;fill:rgb(39.99939%,39.99939%,39.99939%);fill-opacity:0.3;" d="M 113.140625 231.5 L 115.277344 222.691406 L 150.207031 229.910156 L 148.074219 239.132812 Z M 113.140625 231.5 "/>
<path style=" stroke:none;fill-rule:nonzero;fill:rgb(39.99939%,39.99939%,39.99939%);fill-opacity:0.3;" d="M 108.902344 250.394531 L 112.867188 233.660156 L 147.800781 241.132812 L 143.1875 257.992188 Z M 108.902344 250.394531 "/>
<path style=" stroke:none;fill-rule:nonzero;fill:rgb(39.99939%,39.99939%,39.99939%);fill-opacity:0.3;" d="M 77.636719 223.394531 L 84.304688 212.671875 L 114.898438 213.550781 L 110.824219 230.855469 Z M 77.636719 223.394531 "/>
<path style=" stroke:none;fill-rule:nonzero;fill:rgb(39.99939%,39.99939%,39.99939%);fill-opacity:0.3;" d="M 76.273438 225.230469 L 110.617188 233.207031 L 106.136719 250.710938 L 72.539062 242.664062 L 69.816406 241.699219 L 69.445312 240.4375 Z M 76.273438 225.230469 "/>
<path style=" stroke:none;fill-rule:nonzero;fill:rgb(39.99939%,39.99939%,39.99939%);fill-opacity:0.3;" d="M 51.429688 246.230469 L 57.835938 241.449219 L 62.347656 237.914062 L 64.699219 236.050781 L 71.0625 229.941406 L 68.765625 236.191406 L 66.65625 240.039062 L 64.953125 243.042969 L 63.265625 246.570312 L 62.097656 249.347656 L 61.71875 251.683594 L 61.363281 253.777344 L 61.148438 256.132812 L 61.472656 258.136719 L 62.207031 259.597656 L 63.265625 262.90625 L 55.628906 261.066406 L 58.046875 258.625 L 58.972656 256.988281 L 59.675781 254.816406 L 59.855469 252.191406 L 59.1875 249.601562 L 57.414062 247.46875 L 55.050781 246.316406 Z M 51.429688 246.230469 "/>
<path style=" stroke:none;fill-rule:nonzero;fill:rgb(39.99939%,39.99939%,39.99939%);fill-opacity:0.3;" d="M 101.679688 268.566406 L 66.207031 260.996094 L 64.472656 259.78125 L 63.574219 258.121094 L 63 256.78125 L 63.125 255.066406 L 67.347656 244.28125 L 68.050781 243.429688 L 69.011719 243.246094 L 106.023438 251.785156 Z M 101.679688 268.566406 "/>
<path style=" stroke:none;fill-rule:nonzero;fill:rgb(39.99939%,39.99939%,39.99939%);fill-opacity:0.3;" d="M 104.371094 269.109375 L 108.394531 252.558594 L 142.984375 260.421875 L 139.046875 277.148438 Z M 104.371094 269.109375 "/>
<path style=" stroke:none;fill-rule:nonzero;fill:rgb(39.99939%,39.99939%,39.99939%);fill-opacity:0.3;" d="M 156.761719 243.4375 L 193.457031 251.613281 L 184.226562 287.945312 L 147.800781 278.878906 Z M 156.761719 243.4375 "/>
<path style=" stroke:none;fill-rule:nonzero;fill:rgb(39.99939%,39.99939%,39.99939%);fill-opacity:0.3;" d="M 185.527344 51.429688 L 188.328125 56.542969 L 188.144531 60.78125 L 149.832031 114.992188 L 147.859375 105.660156 L 147.582031 99.992188 L 148.511719 95.933594 L 152.972656 89.046875 Z M 185.527344 51.429688 "/>
<path style=" stroke:none;fill-rule:nonzero;fill:rgb(39.99939%,39.99939%,39.99939%);fill-opacity:0.3;" d="M 199.855469 66.710938 L 154.289062 117.320312 L 189.621094 65.097656 L 190.902344 63.882812 L 192.390625 63.074219 L 194.523438 63.273438 Z M 199.855469 66.710938 "/>
<path style=" stroke:none;fill-rule:nonzero;fill:rgb(39.99939%,39.99939%,39.99939%);fill-opacity:0.3;" d="M 234.011719 66.527344 L 234.144531 66.316406 L 235.570312 69.957031 Z M 234.011719 66.527344 "/>
<path style=" stroke:none;fill-rule:nonzero;fill:rgb(39.99939%,39.99939%,39.99939%);fill-opacity:0.3;" d="M 249.882812 99.949219 L 249.84375 99.9375 L 248.347656 98.53125 L 243.523438 87.863281 Z M 249.882812 99.949219 "/>
<path style=" stroke:none;fill-rule:nonzero;fill:rgb(39.99939%,39.99939%,39.99939%);fill-opacity:0.3;" d="M 294.800781 227.042969 L 276.351562 308.570312 L 188.132812 288.117188 L 196.242188 252.234375 L 207.082031 254.648438 L 205.292969 261.65625 L 206.371094 261.875 L 207.453125 262.09375 L 209.128906 255.105469 L 236.945312 261.324219 L 234.941406 269.828125 L 237.566406 270.265625 L 239.371094 261.847656 L 246.738281 263.488281 L 247.160156 261.402344 L 239.753906 259.753906 L 243.042969 245.460938 L 249.914062 246.867188 L 250.109375 246.003906 L 250.386719 244.753906 L 243.546875 243.253906 L 245.578125 234.25 L 252.5625 235.628906 L 252.78125 234.652344 L 253.003906 233.671875 L 246.035156 232.3125 L 248.269531 222.484375 Z M 294.800781 227.042969 "/>
<path style=" stroke:none;fill-rule:nonzero;fill:rgb(39.99939%,39.99939%,39.99939%);fill-opacity:0.3;" d="M 149.324219 157.28125 L 166.195312 159.328125 L 161.492188 183.628906 L 151.59375 182.144531 L 154.945312 166.898438 L 154.445312 166.800781 L 153.941406 166.707031 L 150.246094 181.933594 L 138.996094 179.953125 L 142.28125 165.8125 Z M 149.324219 157.28125 "/>
<path style=" stroke:none;fill-rule:nonzero;fill:rgb(39.99939%,39.99939%,39.99939%);fill-opacity:0.3;" d="M 189.722656 162.921875 L 213.585938 165.960938 L 207.835938 188.929688 L 187.605469 186.160156 L 189.023438 171.429688 L 194.535156 171.945312 L 194.535156 170.675781 L 189.097656 170.085938 Z M 189.722656 162.921875 "/>
<path style=" stroke:none;fill-rule:nonzero;fill:rgb(39.99939%,39.99939%,39.99939%);fill-opacity:0.3;" d="M 223.761719 140.308594 L 249.398438 145.460938 L 243.597656 168.039062 L 216.800781 164.324219 L 219.921875 152.019531 L 228.6875 153.644531 L 228.90625 152.589844 L 229.167969 151.316406 L 221.53125 149.8125 Z M 223.761719 140.308594 "/>
<path style=" stroke:none;fill-rule:nonzero;fill:rgb(39.99939%,39.99939%,39.99939%);fill-opacity:0.3;" d="M 187.539062 128.988281 L 182.796875 127.941406 L 185.648438 114.640625 L 186.628906 111.328125 L 189.851562 107.085938 L 195.792969 100.871094 L 204.152344 102.890625 L 212.398438 104.773438 L 213.9375 106.386719 L 210.675781 119.875 L 207.578125 133.410156 L 194.644531 130.554688 L 198.996094 112.027344 L 198.117188 111.839844 L 197.375 111.683594 L 193.070312 130.207031 Z M 187.539062 128.988281 "/>
<path style=" stroke:none;fill-rule:nonzero;fill:rgb(39.99939%,39.99939%,39.99939%);fill-opacity:0.3;" d="M 234.953125 94.398438 L 238.835938 95.101562 L 258.570312 130.613281 L 227.808594 123.785156 L 230.699219 112.441406 L 238.332031 114.488281 L 238.5625 113.679688 L 238.847656 112.683594 L 231.132812 110.550781 Z M 234.953125 94.398438 "/>
<g clip-path="url(#clip16)" clip-rule="nonzero">
<path style=" stroke:none;fill-rule:nonzero;fill:rgb(39.99939%,39.99939%,39.99939%);fill-opacity:0.3;" d="M 360.5625 169.984375 L 383.972656 171.800781 L 389.117188 173.421875 L 393.175781 175.070312 L 390.410156 186.414062 L 359.703125 181.699219 Z M 360.5625 169.984375 "/>
</g>
<g clip-path="url(#clip17)" clip-rule="nonzero">
<path style=" stroke:none;fill-rule:nonzero;fill:rgb(39.99939%,39.99939%,39.99939%);fill-opacity:0.3;" d="M 359.726562 183.96875 L 389.96875 188.78125 L 387.683594 200.257812 L 359.070312 194.957031 Z M 359.726562 183.96875 "/>
</g>
<g clip-path="url(#clip18)" clip-rule="nonzero">
<path style=" stroke:none;fill-rule:nonzero;fill:rgb(39.99939%,39.99939%,39.99939%);fill-opacity:0.3;" d="M 358.894531 197.882812 L 387.242188 202.84375 L 384.90625 213.871094 L 358.195312 209.589844 Z M 358.894531 197.882812 "/>
</g>
<g clip-path="url(#clip19)" clip-rule="nonzero">
<path style=" stroke:none;fill-rule:nonzero;fill:rgb(39.99939%,39.99939%,39.99939%);fill-opacity:0.3;" d="M 358.058594 211.871094 L 384.550781 215.921875 L 381.746094 229.09375 L 357.363281 223.558594 Z M 358.058594 211.871094 "/>
</g>
<g clip-path="url(#clip20)" clip-rule="nonzero">
<path style=" stroke:none;fill-rule:nonzero;fill:rgb(39.99939%,39.99939%,39.99939%);fill-opacity:0.3;" d="M 357.1875 226.511719 L 380.476562 231.75 L 378.089844 240.21875 L 356.5625 236.957031 Z M 357.1875 226.511719 "/>
</g>
<g clip-path="url(#clip21)" clip-rule="nonzero">
<path style=" stroke:none;fill-rule:nonzero;fill:rgb(39.99939%,39.99939%,39.99939%);fill-opacity:0.3;" d="M 356.410156 239.523438 L 377.992188 243.179688 L 376.019531 254.570312 L 355.683594 251.675781 Z M 356.410156 239.523438 "/>
</g>
<g clip-path="url(#clip22)" clip-rule="nonzero">
<path style=" stroke:none;fill-rule:nonzero;fill:rgb(39.99939%,39.99939%,39.99939%);fill-opacity:0.3;" d="M 355.542969 254.046875 L 375.363281 256.824219 L 372.863281 268.339844 L 371.148438 270.71875 L 367.714844 271.597656 L 354.507812 271.417969 Z M 355.542969 254.046875 "/>
</g>
<path style=" stroke:none;fill-rule:nonzero;fill:rgb(39.99939%,39.99939%,39.99939%);fill-opacity:0.3;" d="M 329.910156 249.355469 L 348.789062 253.175781 L 347.648438 272.410156 L 341.683594 272.085938 Z M 329.910156 249.355469 "/>
<path style=" stroke:none;fill-rule:nonzero;fill:rgb(39.99939%,39.99939%,39.99939%);fill-opacity:0.3;" d="M 322.90625 234.597656 L 349.613281 239.324219 L 348.914062 251.0625 L 328.949219 246.609375 Z M 322.90625 234.597656 "/>
<path style=" stroke:none;fill-rule:nonzero;fill:rgb(39.99939%,39.99939%,39.99939%);fill-opacity:0.3;" d="M 322.457031 221.050781 L 350.46875 224.882812 L 349.765625 236.773438 L 321.679688 231.660156 Z M 322.457031 221.050781 "/>
<path style=" stroke:none;fill-rule:nonzero;fill:rgb(39.99939%,39.99939%,39.99939%);fill-opacity:0.3;" d="M 322.695312 207.109375 L 351.289062 211.050781 L 350.640625 221.964844 L 322.074219 218.027344 Z M 322.695312 207.109375 "/>
<path style=" stroke:none;fill-rule:nonzero;fill:rgb(39.99939%,39.99939%,39.99939%);fill-opacity:0.3;" d="M 323.726562 192.992188 L 351.867188 196.859375 L 351.113281 208.574219 L 323.035156 204.347656 Z M 323.726562 192.992188 "/>
<path style=" stroke:none;fill-rule:nonzero;fill:rgb(39.99939%,39.99939%,39.99939%);fill-opacity:0.3;" d="M 324.414062 178.679688 L 352.800781 182.390625 L 352.050781 194.015625 L 323.558594 190.15625 Z M 324.414062 178.679688 "/>
<path style=" stroke:none;fill-rule:nonzero;fill:rgb(39.99939%,39.99939%,39.99939%);fill-opacity:0.3;" d="M 324.839844 167.441406 L 353.632812 169.515625 L 352.941406 180.199219 L 324.289062 176.609375 Z M 324.839844 167.441406 "/>
<path style=" stroke:none;fill-rule:nonzero;fill:rgb(39.99939%,39.99939%,39.99939%);fill-opacity:0.3;" d="M 286.972656 164.484375 L 321.253906 167.109375 L 320.691406 176.261719 L 289.515625 172.855469 Z M 286.972656 164.484375 "/>
<path style=" stroke:none;fill-rule:nonzero;fill:rgb(39.99939%,39.99939%,39.99939%);fill-opacity:0.3;" d="M 290.566406 174.757812 L 320.738281 178.214844 L 320.273438 189.75 L 297.046875 186.523438 Z M 290.566406 174.757812 "/>
<path style=" stroke:none;fill-rule:nonzero;fill:rgb(39.99939%,39.99939%,39.99939%);fill-opacity:0.3;" d="M 298.886719 189.945312 L 319.964844 192.578125 L 319.097656 203.6875 L 305.191406 202.039062 Z M 298.886719 189.945312 "/>
<path style=" stroke:none;fill-rule:nonzero;fill:rgb(39.99939%,39.99939%,39.99939%);fill-opacity:0.3;" d="M 306.429688 204.636719 L 319.199219 206.117188 L 319.03125 216.726562 L 312.472656 215.652344 Z M 306.429688 204.636719 "/>
<path style=" stroke:none;fill-rule:nonzero;fill:rgb(39.99939%,39.99939%,39.99939%);fill-opacity:0.3;" d="M 314.761719 219.8125 L 318.519531 220.308594 L 317.914062 225.777344 Z M 314.761719 219.8125 "/>
<path style=" stroke:none;fill-rule:nonzero;fill:rgb(39.99939%,39.99939%,39.99939%);fill-opacity:0.3;" d="M 302.265625 214.492188 L 308.890625 226.726562 L 300.066406 224.492188 Z M 302.265625 214.492188 "/>
<path style=" stroke:none;fill-rule:nonzero;fill:rgb(39.99939%,39.99939%,39.99939%);fill-opacity:0.3;" d="M 317.238281 317.628906 L 339.515625 305.109375 L 335.488281 321.34375 Z M 317.238281 317.628906 "/>
<path style=" stroke:none;fill-rule:nonzero;fill:rgb(39.99939%,39.99939%,39.99939%);fill-opacity:0.3;" d="M 299.261719 228.527344 L 315.035156 231.851562 L 343.710938 285.003906 L 339.417969 302.828125 L 314.960938 316.65625 L 280.734375 309.3125 L 289.429688 269.578125 Z M 299.261719 228.527344 "/>
<g clip-path="url(#clip23)" clip-rule="nonzero">
<path style=" stroke:none;fill-rule:nonzero;fill:rgb(39.99939%,39.99939%,39.99939%);fill-opacity:0.3;" d="M 352.234375 274.160156 L 397.757812 277.527344 L 401.5 278.410156 L 405.085938 279.589844 L 408.359375 281.507812 L 411.324219 282.835938 L 414.910156 285.195312 L 419.746094 288.441406 L 422.398438 291.246094 L 425.832031 294.644531 L 432.695312 301.730469 L 441.902344 312.65625 L 450.796875 321.957031 L 461.09375 330.960938 L 470.917969 337.457031 L 464.652344 352.269531 L 458.1875 350.78125 L 457.453125 350.609375 L 457.289062 350.574219 L 426.417969 343.472656 L 399.875 336.875 L 380.164062 332.351562 L 367.125 329.378906 L 362.640625 327.84375 L 358.792969 325.636719 L 354.390625 319.890625 L 345.054688 307.054688 Z M 352.234375 274.160156 "/>
</g>
<path style=" stroke:none;fill-rule:nonzero;fill:rgb(39.99939%,39.99939%,39.99939%);fill-opacity:0.3;" d="M 127.796875 104.78125 L 129.609375 102.972656 L 132.609375 105.550781 L 131.113281 107.445312 Z M 127.796875 104.78125 "/>
<path style=" stroke:none;fill-rule:nonzero;fill:rgb(39.99939%,39.99939%,39.99939%);fill-opacity:0.3;" d="M -41.78125 216.667969 L 0.0976562 225.976562 L -2.988281 242.984375 L -45.539062 226.644531 Z M -41.78125 216.667969 "/>
<path style=" stroke:none;fill-rule:nonzero;fill:rgb(39.99939%,39.99939%,39.99939%);fill-opacity:0.3;" d="M 4.207031 226.683594 L 45.875 237.398438 L 45.949219 238.011719 L 45.804688 238.691406 L 45.160156 239.171875 L 27.59375 251.152344 L 26.925781 251.488281 L 0.933594 244.796875 Z M 4.207031 226.683594 "/>
<path style=" stroke:none;fill-rule:nonzero;fill:rgb(39.99939%,39.99939%,39.99939%);fill-opacity:0.3;" d="M -53.214844 186.066406 L 4.121094 196.675781 L 0.0742188 223.097656 L -59.785156 210.308594 Z M -53.214844 186.066406 "/>
<path style=" stroke:none;fill-rule:nonzero;fill:rgb(39.99939%,39.99939%,39.99939%);fill-opacity:0.3;" d="M 100.902344 151.210938 L 103.390625 151.796875 L 104.730469 153.074219 L 105.214844 156.703125 L 105.203125 163.96875 L 102.902344 169.996094 L 78.15625 204.953125 L 75.316406 207.457031 L 71.355469 208.710938 L 66.789062 208.8125 L 63.128906 207.660156 L 61.503906 205.542969 L 61.90625 202.078125 L 64.136719 197.449219 L 66.136719 193.964844 L 70.210938 188.277344 L 73.527344 183.679688 L 97.210938 153.796875 L 99.34375 151.359375 Z M 100.902344 151.210938 "/>
<path style=" stroke:none;fill-rule:nonzero;fill:rgb(39.99939%,39.99939%,39.99939%);fill-opacity:0.3;" d="M 178.371094 48.898438 L 177.425781 52.304688 L 164.546875 67.007812 L 152.6875 80.246094 L 154.605469 46.164062 L 166.089844 43.285156 L 169.238281 43.136719 L 172.953125 43.722656 L 175.171875 44.550781 L 177.957031 46.699219 Z M 178.371094 48.898438 "/>
<path style=" stroke:none;fill-rule:nonzero;fill:rgb(39.99939%,39.99939%,39.99939%);fill-opacity:0.3;" d="M 133.679688 51.96875 L 152.074219 46.75 L 149.597656 84.972656 L 134.507812 102.761719 L 131.167969 100.050781 Z M 133.679688 51.96875 "/>
<path style=" stroke:none;fill-rule:nonzero;fill:rgb(39.99939%,39.99939%,39.99939%);fill-opacity:0.3;" d="M 96.476562 63.421875 L 131.140625 52.71875 L 128.585938 100.390625 Z M 96.476562 63.421875 "/>
<path style=" stroke:none;fill-rule:nonzero;fill:rgb(39.99939%,39.99939%,39.99939%);fill-opacity:0.3;" d="M 96.484375 69.890625 L 126.09375 103.335938 L 99.785156 102.726562 Z M 96.484375 69.890625 "/>
<path style=" stroke:none;fill-rule:nonzero;fill:rgb(39.99939%,39.99939%,39.99939%);fill-opacity:0.3;" d="M 75.019531 69.398438 L 92.816406 63.96875 L 96.695312 102.671875 L 77.09375 102.316406 L 75.394531 76.347656 Z M 75.019531 69.398438 "/>
<path style=" stroke:none;fill-rule:nonzero;fill:rgb(39.99939%,39.99939%,39.99939%);fill-opacity:0.3;" d="M 77.332031 105.105469 L 96.933594 105.464844 L 99.492188 142.5625 L 81.011719 138.992188 Z M 77.332031 105.105469 "/>
<path style=" stroke:none;fill-rule:nonzero;fill:rgb(39.99939%,39.99939%,39.99939%);fill-opacity:0.3;" d="M 99.800781 105.59375 L 124.800781 105.996094 L 129.257812 110.023438 L 102.511719 142.367188 Z M 99.800781 105.59375 "/>
<path style=" stroke:none;fill-rule:nonzero;fill:rgb(39.99939%,39.99939%,39.99939%);fill-opacity:0.3;" d="M 81.363281 142.769531 L 95.261719 145.453125 L 97.269531 146.085938 L 97.839844 146.558594 L 98.140625 147.066406 L 98.105469 147.664062 L 97.773438 148.457031 L 84.007812 165.53125 Z M 81.363281 142.769531 "/>
<path style=" stroke:none;fill-rule:nonzero;fill:rgb(39.99939%,39.99939%,39.99939%);fill-opacity:0.3;" d="M 63.429688 139.308594 L 78.253906 142.171875 L 81.433594 168.945312 L 64.351562 192.484375 L 62.769531 191.957031 L 63.253906 182.796875 L 64.09375 172.632812 L 63.804688 161.621094 L 63.671875 152.714844 L 63.6875 146.367188 Z M 63.429688 139.308594 "/>
<path style=" stroke:none;fill-rule:nonzero;fill:rgb(39.99939%,39.99939%,39.99939%);fill-opacity:0.3;" d="M 57.289062 104.886719 L 74.660156 105.054688 L 77.9375 138.398438 L 62.644531 135.445312 L 60.960938 124.773438 L 59.214844 115.003906 Z M 57.289062 104.886719 "/>
<path style=" stroke:none;fill-rule:nonzero;fill:rgb(39.99939%,39.99939%,39.99939%);fill-opacity:0.3;" d="M 72.03125 70.308594 L 72.347656 76.523438 L 72.625 82.402344 L 73.179688 87.074219 L 73.300781 92.234375 L 74.421875 102.265625 L 56.660156 101.945312 L 51.890625 84.855469 L 53.714844 83.210938 L 54.535156 81.652344 L 53.871094 77.871094 L 53.433594 75.945312 Z M 72.03125 70.308594 "/>
<path style=" stroke:none;fill-rule:nonzero;fill:rgb(39.99939%,39.99939%,39.99939%);fill-opacity:0.3;" d="M 24.746094 96.179688 L 33.410156 84.59375 L 34.683594 85.683594 L 36.207031 86.34375 L 38.550781 86.964844 L 40.101562 87.050781 L 41.300781 90.175781 L 42.175781 92.613281 L 43.121094 93.976562 L 43.011719 95.03125 L 44.039062 98.804688 Z M 24.746094 96.179688 "/>
<path style=" stroke:none;fill-rule:nonzero;fill:rgb(39.99939%,39.99939%,39.99939%);fill-opacity:0.3;" d="M -8.648438 91.570312 L 11.148438 86.882812 L 29.25 81.828125 L 31.160156 82.15625 L 30.964844 83.835938 L 25.71875 90.4375 L 20.796875 96.042969 Z M -8.648438 91.570312 "/>
<path style=" stroke:none;fill-rule:nonzero;fill:rgb(39.99939%,39.99939%,39.99939%);fill-opacity:0.3;" d="M -30.277344 93.164062 L 18.011719 100.347656 L 14.246094 126.054688 L -36.464844 116.347656 Z M -30.277344 93.164062 "/>
<path style=" stroke:none;fill-rule:nonzero;fill:rgb(39.99939%,39.99939%,39.99939%);fill-opacity:0.3;" d="M 21.988281 100.445312 L 45.1875 103.800781 L 46.023438 113.335938 L 46.523438 118.054688 L 47.628906 125.910156 L 48.984375 132.808594 L 17.761719 126.742188 Z M 21.988281 100.445312 "/>
<path style=" stroke:none;fill-rule:nonzero;fill:rgb(39.99939%,39.99939%,39.99939%);fill-opacity:0.3;" d="M 17.808594 130.5 L 49.476562 136.613281 L 51.300781 156.433594 L 15.214844 149.464844 Z M 17.808594 130.5 "/>
<path style=" stroke:none;fill-rule:nonzero;fill:rgb(39.99939%,39.99939%,39.99939%);fill-opacity:0.3;" d="M -37.316406 120.03125 L 14.105469 129.785156 L 11.800781 148.804688 L -41.90625 138.4375 Z M -37.316406 120.03125 "/>
<path style=" stroke:none;fill-rule:nonzero;fill:rgb(39.99939%,39.99939%,39.99939%);fill-opacity:0.3;" d="M 14.710938 152.148438 L 51.777344 159.308594 L 51.777344 178.816406 L 11.675781 171.074219 Z M 14.710938 152.148438 "/>
<path style=" stroke:none;fill-rule:nonzero;fill:rgb(39.99939%,39.99939%,39.99939%);fill-opacity:0.3;" d="M -42.511719 141.101562 L 11.765625 151.582031 L 8.574219 170.476562 L -47.355469 159.675781 Z M -42.511719 141.101562 "/>
<path style=" stroke:none;fill-rule:nonzero;fill:rgb(39.99939%,39.99939%,39.99939%);fill-opacity:0.3;" d="M 11.394531 174.320312 L 51.894531 182.136719 L 49.277344 203.925781 L 8.515625 193.210938 Z M 11.394531 174.320312 "/>
<path style=" stroke:none;fill-rule:nonzero;fill:rgb(39.99939%,39.99939%,39.99939%);fill-opacity:0.3;" d="M -48.148438 162.824219 L 7.960938 173.65625 L 4.53125 192.921875 L -52.375 182.394531 Z M -48.148438 162.824219 "/>
<path style=" stroke:none;fill-rule:nonzero;fill:rgb(39.99939%,39.99939%,39.99939%);fill-opacity:0.3;" d="M 39.972656 82.265625 L 37.121094 80.386719 L 51.6875 76.46875 L 50.503906 79.238281 L 48.226562 81.660156 L 44.394531 83.132812 Z M 39.972656 82.265625 "/>
<path style=" stroke:none;fill-rule:nonzero;fill:rgb(39.99939%,39.99939%,39.99939%);fill-opacity:0.3;" d="M 8.289062 198.28125 L 68.792969 212.957031 L 68.523438 214.832031 L 67.960938 216.867188 L 67.382812 219.675781 L 66.804688 221.484375 L 66.183594 223.296875 L 64.890625 224.914062 L 63.597656 226.207031 L 60.050781 228.644531 L 49.09375 236.160156 L 4.511719 224.765625 L 6.414062 211.175781 L 38.035156 219.800781 L 38.171875 219.15625 L 38.308594 218.507812 L 6.40625 209.910156 Z M 8.289062 198.28125 "/>
<path style="fill-rule:nonzero;fill:rgb(39.99939%,39.99939%,39.99939%);fill-opacity:1;stroke-width:0.03;stroke-linecap:square;stroke-linejoin:miter;stroke:rgb(39.99939%,39.99939%,39.99939%);stroke-opacity:1;stroke-miterlimit:3.239307;" d="M 249.113281 174 L 252.777344 174.511719 L 250 197.574219 L 243.847656 196.730469 Z M 249.113281 174 " transform="matrix(1,0,0,1,-74,-13)"/>
<path style="fill-rule:nonzero;fill:rgb(39.99939%,39.99939%,39.99939%);fill-opacity:1;stroke-width:0.03;stroke-linecap:square;stroke-linejoin:miter;stroke:rgb(39.99939%,39.99939%,39.99939%);stroke-opacity:1;stroke-miterlimit:3.239307;" d="M 256.902344 200.925781 L 281.464844 204.285156 L 275.5625 226.246094 L 253.753906 224.515625 Z M 256.902344 200.925781 " transform="matrix(1,0,0,1,-74,-13)"/>
<path style="fill-rule:nonzero;fill:rgb(39.99939%,39.99939%,39.99939%);fill-opacity:1;stroke-width:0.03;stroke-linecap:square;stroke-linejoin:miter;stroke:rgb(39.99939%,39.99939%,39.99939%);stroke-opacity:1;stroke-miterlimit:3.239307;" d="M 243.546875 199.097656 L 254.558594 200.605469 L 251.503906 224.515625 L 238.222656 223.289062 Z M 243.546875 199.097656 " transform="matrix(1,0,0,1,-74,-13)"/>
<path style="fill-rule:nonzero;fill:rgb(39.99939%,39.99939%,39.99939%);fill-opacity:1;stroke-width:0.03;stroke-linecap:square;stroke-linejoin:miter;stroke:rgb(39.99939%,39.99939%,39.99939%);stroke-opacity:1;stroke-miterlimit:3.239307;" d="M 224.59375 168.460938 L 238.375 151.613281 L 240.554688 156.015625 L 241.457031 162.339844 L 240.867188 170.367188 Z M 224.59375 168.460938 " transform="matrix(1,0,0,1,-74,-13)"/>
<path style="fill-rule:nonzero;fill:rgb(39.99939%,39.99939%,39.99939%);fill-opacity:1;stroke-width:0.03;stroke-linecap:square;stroke-linejoin:miter;stroke:rgb(39.99939%,39.99939%,39.99939%);stroke-opacity:1;stroke-miterlimit:3.239307;" d="M 212.925781 186.339844 L 211.632812 192.378906 L 207.949219 191.730469 L 209.558594 186.265625 Z M 212.925781 186.339844 " transform="matrix(1,0,0,1,-74,-13)"/>
<path style="fill-rule:nonzero;fill:rgb(39.99939%,39.99939%,39.99939%);fill-opacity:1;stroke-width:0.03;stroke-linecap:square;stroke-linejoin:miter;stroke:rgb(39.99939%,39.99939%,39.99939%);stroke-opacity:1;stroke-miterlimit:3.239307;" d="M 235.171875 198.53125 L 233.539062 209.703125 L 196.761719 204.957031 L 197.542969 201.371094 L 199.925781 197.417969 L 203.285156 194.351562 L 206.625 194.089844 L 211.253906 194.234375 Z M 235.171875 198.53125 " transform="matrix(1,0,0,1,-74,-13)"/>
<path style="fill-rule:nonzero;fill:rgb(39.99939%,39.99939%,39.99939%);fill-opacity:1;stroke-width:0.03;stroke-linecap:square;stroke-linejoin:miter;stroke:rgb(39.99939%,39.99939%,39.99939%);stroke-opacity:1;stroke-miterlimit:3.239307;" d="M 193.078125 221.996094 L 196.292969 206.398438 L 233.226562 211.144531 L 231.429688 224.28125 Z M 193.078125 221.996094 " transform="matrix(1,0,0,1,-74,-13)"/>
<path style="fill-rule:nonzero;fill:rgb(39.99939%,39.99939%,39.99939%);fill-opacity:1;stroke-width:0.03;stroke-linecap:square;stroke-linejoin:miter;stroke:rgb(39.99939%,39.99939%,39.99939%);stroke-opacity:1;stroke-miterlimit:3.239307;" d="M 225.601562 140.640625 L 235.414062 149.402344 L 199.410156 190.9375 L 195.375 195.589844 L 193.082031 199.949219 L 192.074219 205.003906 L 188.777344 221.832031 L 159.617188 220.894531 Z M 225.601562 140.640625 " transform="matrix(1,0,0,1,-74,-13)"/>
<path style="fill-rule:nonzero;fill:rgb(39.99939%,39.99939%,39.99939%);fill-opacity:1;stroke-width:0.03;stroke-linecap:square;stroke-linejoin:miter;stroke:rgb(39.99939%,39.99939%,39.99939%);stroke-opacity:1;stroke-miterlimit:3.239307;" d="M 238.289062 227.117188 L 274.6875 229.789062 L 271.144531 246.511719 L 235.070312 238.722656 Z M 238.289062 227.117188 " transform="matrix(1,0,0,1,-74,-13)"/>
<path style="fill-rule:nonzero;fill:rgb(39.99939%,39.99939%,39.99939%);fill-opacity:1;stroke-width:0.03;stroke-linecap:square;stroke-linejoin:miter;stroke:rgb(39.99939%,39.99939%,39.99939%);stroke-opacity:1;stroke-miterlimit:3.239307;" d="M 304.671875 72.765625 L 303.722656 72.726562 L 303.871094 72.542969 Z M 304.671875 72.765625 " transform="matrix(1,0,0,1,-74,-13)"/>
<path style="fill-rule:nonzero;fill:rgb(39.99939%,39.99939%,39.99939%);fill-opacity:1;stroke-width:0.03;stroke-linecap:square;stroke-linejoin:miter;stroke:rgb(39.99939%,39.99939%,39.99939%);stroke-opacity:1;stroke-miterlimit:3.239307;" d="M 257.410156 198.585938 L 251.847656 197.824219 L 254.253906 174.699219 L 260.050781 175.507812 Z M 257.410156 198.585938 " transform="matrix(1,0,0,1,-74,-13)"/>
<path style="fill-rule:nonzero;fill:rgb(39.99939%,39.99939%,39.99939%);fill-opacity:1;stroke-width:0.03;stroke-linecap:square;stroke-linejoin:miter;stroke:rgb(39.99939%,39.99939%,39.99939%);stroke-opacity:1;stroke-miterlimit:3.239307;" d="M 298.0625 150.046875 L 301.121094 138.960938 L 333.261719 145.679688 L 340.738281 159.464844 Z M 298.0625 150.046875 " transform="matrix(1,0,0,1,-74,-13)"/>
<path style="fill-rule:nonzero;fill:rgb(39.99939%,39.99939%,39.99939%);fill-opacity:1;stroke-width:0.03;stroke-linecap:square;stroke-linejoin:miter;stroke:rgb(39.99939%,39.99939%,39.99939%);stroke-opacity:1;stroke-miterlimit:3.239307;" d="M 325.550781 159.308594 L 341.761719 162.945312 L 352.703125 184.746094 L 321.089844 180.1875 Z M 325.550781 159.308594 " transform="matrix(1,0,0,1,-74,-13)"/>
<path style="fill-rule:nonzero;fill:rgb(39.99939%,39.99939%,39.99939%);fill-opacity:1;stroke-width:0.03;stroke-linecap:square;stroke-linejoin:miter;stroke:rgb(39.99939%,39.99939%,39.99939%);stroke-opacity:1;stroke-miterlimit:3.239307;" d="M 318.8125 182.960938 L 356.910156 188.941406 L 358.328125 190.132812 L 366.613281 207.140625 L 373.082031 221.835938 L 371.722656 228.507812 L 370.546875 236.570312 L 309.433594 229.527344 Z M 318.8125 182.960938 " transform="matrix(1,0,0,1,-74,-13)"/>
<path style="fill-rule:nonzero;fill:rgb(39.99939%,39.99939%,39.99939%);fill-opacity:1;stroke-width:0.03;stroke-linecap:square;stroke-linejoin:miter;stroke:rgb(39.99939%,39.99939%,39.99939%);stroke-opacity:1;stroke-miterlimit:3.239307;" d="M 290.453125 179.410156 L 317.152344 183.269531 L 311.226562 205.953125 L 284.617188 202.3125 Z M 290.453125 179.410156 " transform="matrix(1,0,0,1,-74,-13)"/>
<path style="fill-rule:nonzero;fill:rgb(39.99939%,39.99939%,39.99939%);fill-opacity:1;stroke-width:0.03;stroke-linecap:square;stroke-linejoin:miter;stroke:rgb(39.99939%,39.99939%,39.99939%);stroke-opacity:1;stroke-miterlimit:3.239307;" d="M 284.046875 204.640625 L 310.925781 208.320312 L 307.261719 229.445312 L 278.417969 226.464844 Z M 284.046875 204.640625 " transform="matrix(1,0,0,1,-74,-13)"/>
<path style="fill-rule:nonzero;fill:rgb(39.99939%,39.99939%,39.99939%);fill-opacity:1;stroke-width:0.03;stroke-linecap:square;stroke-linejoin:miter;stroke:rgb(39.99939%,39.99939%,39.99939%);stroke-opacity:1;stroke-miterlimit:3.239307;" d="M 273.917969 247.203125 L 278.085938 230.089844 L 319.703125 235.265625 L 315.070312 256.214844 Z M 273.917969 247.203125 " transform="matrix(1,0,0,1,-74,-13)"/>
<path style="fill-rule:nonzero;fill:rgb(39.99939%,39.99939%,39.99939%);fill-opacity:1;stroke-width:0.03;stroke-linecap:square;stroke-linejoin:miter;stroke:rgb(39.99939%,39.99939%,39.99939%);stroke-opacity:1;stroke-miterlimit:3.239307;" d="M 273.453125 249.578125 L 314.449219 258.722656 L 311.121094 272.167969 L 270.304688 262.976562 Z M 273.453125 249.578125 " transform="matrix(1,0,0,1,-74,-13)"/>
<path style="fill-rule:nonzero;fill:rgb(39.99939%,39.99939%,39.99939%);fill-opacity:1;stroke-width:0.03;stroke-linecap:square;stroke-linejoin:miter;stroke:rgb(39.99939%,39.99939%,39.99939%);stroke-opacity:1;stroke-miterlimit:3.239307;" d="M 271.53125 112.300781 L 280.363281 100.523438 L 306.039062 106.796875 L 302.488281 120.222656 Z M 271.53125 112.300781 " transform="matrix(1,0,0,1,-74,-13)"/>
<path style="fill-rule:nonzero;fill:rgb(39.99939%,39.99939%,39.99939%);fill-opacity:1;stroke-width:0.03;stroke-linecap:square;stroke-linejoin:miter;stroke:rgb(39.99939%,39.99939%,39.99939%);stroke-opacity:1;stroke-miterlimit:3.239307;" d="M 281.988281 99.308594 L 292.300781 85.90625 L 292.554688 85.648438 L 293.109375 85.183594 L 293.796875 84.917969 L 294.125 84.832031 L 294.457031 84.746094 L 294.886719 84.753906 L 295.113281 84.761719 L 295.609375 84.882812 L 296.101562 85.035156 L 296.84375 85.328125 L 297.40625 85.738281 L 307.785156 100.832031 L 306.257812 105.410156 Z M 281.988281 99.308594 " transform="matrix(1,0,0,1,-74,-13)"/>
<path style="fill-rule:nonzero;fill:rgb(39.99939%,39.99939%,39.99939%);fill-opacity:1;stroke-width:0.03;stroke-linecap:square;stroke-linejoin:miter;stroke:rgb(39.99939%,39.99939%,39.99939%);stroke-opacity:1;stroke-miterlimit:3.239307;" d="M 269.4375 146.257812 L 293.707031 151.925781 L 287.191406 176.574219 L 263.011719 173.011719 Z M 269.4375 146.257812 " transform="matrix(1,0,0,1,-74,-13)"/>
<path style="fill-rule:nonzero;fill:rgb(39.99939%,39.99939%,39.99939%);fill-opacity:1;stroke-width:0.03;stroke-linecap:square;stroke-linejoin:miter;stroke:rgb(39.99939%,39.99939%,39.99939%);stroke-opacity:1;stroke-miterlimit:3.239307;" d="M 290.023438 118.761719 L 302.214844 121.734375 L 294.457031 149.25 L 282.988281 146.71875 Z M 290.023438 118.761719 " transform="matrix(1,0,0,1,-74,-13)"/>
<path style="fill-rule:nonzero;fill:rgb(39.99939%,39.99939%,39.99939%);fill-opacity:1;stroke-width:0.03;stroke-linecap:square;stroke-linejoin:miter;stroke:rgb(39.99939%,39.99939%,39.99939%);stroke-opacity:1;stroke-miterlimit:3.239307;" d="M 241.839844 145.921875 L 255.886719 131.230469 L 254.195312 141.074219 L 254.464844 142.859375 L 255.367188 143.484375 L 267.347656 145.925781 L 263.613281 162.027344 L 247.925781 158.585938 L 246.414062 151.773438 L 243.722656 148.804688 Z M 241.839844 145.921875 " transform="matrix(1,0,0,1,-74,-13)"/>
<path style="fill-rule:nonzero;fill:rgb(39.99939%,39.99939%,39.99939%);fill-opacity:1;stroke-width:0.03;stroke-linecap:square;stroke-linejoin:miter;stroke:rgb(39.99939%,39.99939%,39.99939%);stroke-opacity:1;stroke-miterlimit:3.239307;" d="M 247.128906 160.152344 L 260.984375 163.039062 L 261.640625 172.828125 L 248.296875 170.632812 L 247.933594 166.902344 L 248.289062 163.929688 Z M 247.128906 160.152344 " transform="matrix(1,0,0,1,-74,-13)"/>
<path style="fill-rule:nonzero;fill:rgb(39.99939%,39.99939%,39.99939%);fill-opacity:1;stroke-width:0.03;stroke-linecap:square;stroke-linejoin:miter;stroke:rgb(39.99939%,39.99939%,39.99939%);stroke-opacity:1;stroke-miterlimit:3.239307;" d="M 234.613281 240.894531 L 270.511719 249.0625 L 267.582031 262.464844 L 231.234375 254.363281 Z M 234.613281 240.894531 " transform="matrix(1,0,0,1,-74,-13)"/>
<path style="fill-rule:nonzero;fill:rgb(39.99939%,39.99939%,39.99939%);fill-opacity:1;stroke-width:0.03;stroke-linecap:square;stroke-linejoin:miter;stroke:rgb(39.99939%,39.99939%,39.99939%);stroke-opacity:1;stroke-miterlimit:3.239307;" d="M 189.910156 234.566406 L 191.722656 226.316406 L 227.644531 227.789062 L 224.09375 241.449219 Z M 189.910156 234.566406 " transform="matrix(1,0,0,1,-74,-13)"/>
<path style="fill-rule:nonzero;fill:rgb(39.99939%,39.99939%,39.99939%);fill-opacity:1;stroke-width:0.03;stroke-linecap:square;stroke-linejoin:miter;stroke:rgb(39.99939%,39.99939%,39.99939%);stroke-opacity:1;stroke-miterlimit:3.239307;" d="M 187.140625 244.5 L 189.277344 235.691406 L 224.207031 242.910156 L 222.074219 252.132812 Z M 187.140625 244.5 " transform="matrix(1,0,0,1,-74,-13)"/>
<path style="fill-rule:nonzero;fill:rgb(39.99939%,39.99939%,39.99939%);fill-opacity:1;stroke-width:0.03;stroke-linecap:square;stroke-linejoin:miter;stroke:rgb(39.99939%,39.99939%,39.99939%);stroke-opacity:1;stroke-miterlimit:3.239307;" d="M 182.902344 263.394531 L 186.867188 246.660156 L 221.800781 254.132812 L 217.1875 270.992188 Z M 182.902344 263.394531 " transform="matrix(1,0,0,1,-74,-13)"/>
<path style="fill-rule:nonzero;fill:rgb(39.99939%,39.99939%,39.99939%);fill-opacity:1;stroke-width:0.03;stroke-linecap:square;stroke-linejoin:miter;stroke:rgb(39.99939%,39.99939%,39.99939%);stroke-opacity:1;stroke-miterlimit:3.239307;" d="M 151.636719 236.394531 L 158.304688 225.671875 L 188.898438 226.550781 L 184.824219 243.855469 Z M 151.636719 236.394531 " transform="matrix(1,0,0,1,-74,-13)"/>
<path style="fill-rule:nonzero;fill:rgb(39.99939%,39.99939%,39.99939%);fill-opacity:1;stroke-width:0.03;stroke-linecap:square;stroke-linejoin:miter;stroke:rgb(39.99939%,39.99939%,39.99939%);stroke-opacity:1;stroke-miterlimit:3.239307;" d="M 150.273438 238.230469 L 184.617188 246.207031 L 180.136719 263.710938 L 146.539062 255.664062 L 143.816406 254.699219 L 143.445312 253.4375 Z M 150.273438 238.230469 " transform="matrix(1,0,0,1,-74,-13)"/>
<path style="fill-rule:nonzero;fill:rgb(39.99939%,39.99939%,39.99939%);fill-opacity:1;stroke-width:0.03;stroke-linecap:square;stroke-linejoin:miter;stroke:rgb(39.99939%,39.99939%,39.99939%);stroke-opacity:1;stroke-miterlimit:3.239307;" d="M 125.429688 259.230469 L 131.835938 254.449219 L 136.347656 250.914062 L 138.699219 249.050781 L 145.0625 242.941406 L 142.765625 249.191406 L 140.65625 253.039062 L 138.953125 256.042969 L 137.265625 259.570312 L 136.097656 262.347656 L 135.71875 264.683594 L 135.363281 266.777344 L 135.148438 269.132812 L 135.472656 271.136719 L 136.207031 272.597656 L 137.265625 275.90625 L 129.628906 274.066406 L 132.046875 271.625 L 132.972656 269.988281 L 133.675781 267.816406 L 133.855469 265.191406 L 133.1875 262.601562 L 131.414062 260.46875 L 129.050781 259.316406 Z M 125.429688 259.230469 " transform="matrix(1,0,0,1,-74,-13)"/>
<path style="fill-rule:nonzero;fill:rgb(39.99939%,39.99939%,39.99939%);fill-opacity:1;stroke-width:0.03;stroke-linecap:square;stroke-linejoin:miter;stroke:rgb(39.99939%,39.99939%,39.99939%);stroke-opacity:1;stroke-miterlimit:3.239307;" d="M 175.679688 281.566406 L 140.207031 273.996094 L 138.472656 272.78125 L 137.574219 271.121094 L 137 269.78125 L 137.125 268.066406 L 141.347656 257.28125 L 142.050781 256.429688 L 143.011719 256.246094 L 180.023438 264.785156 Z M 175.679688 281.566406 " transform="matrix(1,0,0,1,-74,-13)"/>
<path style="fill-rule:nonzero;fill:rgb(39.99939%,39.99939%,39.99939%);fill-opacity:1;stroke-width:0.03;stroke-linecap:square;stroke-linejoin:miter;stroke:rgb(39.99939%,39.99939%,39.99939%);stroke-opacity:1;stroke-miterlimit:3.239307;" d="M 178.371094 282.109375 L 182.394531 265.558594 L 216.984375 273.421875 L 213.046875 290.148438 Z M 178.371094 282.109375 " transform="matrix(1,0,0,1,-74,-13)"/>
<path style="fill-rule:nonzero;fill:rgb(39.99939%,39.99939%,39.99939%);fill-opacity:1;stroke-width:0.03;stroke-linecap:square;stroke-linejoin:miter;stroke:rgb(39.99939%,39.99939%,39.99939%);stroke-opacity:1;stroke-miterlimit:3.239307;" d="M 230.761719 256.4375 L 267.457031 264.613281 L 258.226562 300.945312 L 221.800781 291.878906 Z M 230.761719 256.4375 " transform="matrix(1,0,0,1,-74,-13)"/>
<path style="fill-rule:nonzero;fill:rgb(39.99939%,39.99939%,39.99939%);fill-opacity:1;stroke-width:0.03;stroke-linecap:square;stroke-linejoin:miter;stroke:rgb(39.99939%,39.99939%,39.99939%);stroke-opacity:1;stroke-miterlimit:3.239307;" d="M 259.527344 64.429688 L 262.328125 69.542969 L 262.144531 73.78125 L 223.832031 127.992188 L 221.859375 118.660156 L 221.582031 112.992188 L 222.511719 108.933594 L 226.972656 102.046875 Z M 259.527344 64.429688 " transform="matrix(1,0,0,1,-74,-13)"/>
<path style="fill-rule:nonzero;fill:rgb(39.99939%,39.99939%,39.99939%);fill-opacity:1;stroke-width:0.03;stroke-linecap:square;stroke-linejoin:miter;stroke:rgb(39.99939%,39.99939%,39.99939%);stroke-opacity:1;stroke-miterlimit:3.239307;" d="M 273.855469 79.710938 L 228.289062 130.320312 L 263.621094 78.097656 L 264.902344 76.882812 L 266.390625 76.074219 L 268.523438 76.273438 Z M 273.855469 79.710938 " transform="matrix(1,0,0,1,-74,-13)"/>
<path style="fill-rule:nonzero;fill:rgb(39.99939%,39.99939%,39.99939%);fill-opacity:1;stroke-width:0.03;stroke-linecap:square;stroke-linejoin:miter;stroke:rgb(39.99939%,39.99939%,39.99939%);stroke-opacity:1;stroke-miterlimit:3.239307;" d="M 308.011719 79.527344 L 308.144531 79.316406 L 309.570312 82.957031 Z M 308.011719 79.527344 " transform="matrix(1,0,0,1,-74,-13)"/>
<path style="fill-rule:nonzero;fill:rgb(39.99939%,39.99939%,39.99939%);fill-opacity:1;stroke-width:0.03;stroke-linecap:square;stroke-linejoin:miter;stroke:rgb(39.99939%,39.99939%,39.99939%);stroke-opacity:1;stroke-miterlimit:3.239307;" d="M 323.882812 112.949219 L 323.84375 112.9375 L 322.347656 111.53125 L 317.523438 100.863281 Z M 323.882812 112.949219 " transform="matrix(1,0,0,1,-74,-13)"/>
<path style="fill-rule:nonzero;fill:rgb(39.99939%,39.99939%,39.99939%);fill-opacity:1;stroke-width:0.03;stroke-linecap:square;stroke-linejoin:miter;stroke:rgb(39.99939%,39.99939%,39.99939%);stroke-opacity:1;stroke-miterlimit:3.239307;" d="M 368.800781 240.042969 L 350.351562 321.570312 L 262.132812 301.117188 L 270.242188 265.234375 L 281.082031 267.648438 L 279.292969 274.65625 L 280.371094 274.875 L 281.453125 275.09375 L 283.128906 268.105469 L 310.945312 274.324219 L 308.941406 282.828125 L 311.566406 283.265625 L 313.371094 274.847656 L 320.738281 276.488281 L 321.160156 274.402344 L 313.753906 272.753906 L 317.042969 258.460938 L 323.914062 259.867188 L 324.109375 259.003906 L 324.386719 257.753906 L 317.546875 256.253906 L 319.578125 247.25 L 326.5625 248.628906 L 326.78125 247.652344 L 327.003906 246.671875 L 320.035156 245.3125 L 322.269531 235.484375 Z M 368.800781 240.042969 " transform="matrix(1,0,0,1,-74,-13)"/>
<path style="fill-rule:nonzero;fill:rgb(39.99939%,39.99939%,39.99939%);fill-opacity:1;stroke-width:0.03;stroke-linecap:square;stroke-linejoin:miter;stroke:rgb(39.99939%,39.99939%,39.99939%);stroke-opacity:1;stroke-miterlimit:3.239307;" d="M 223.324219 170.28125 L 240.195312 172.328125 L 235.492188 196.628906 L 225.59375 195.144531 L 228.945312 179.898438 L 228.445312 179.800781 L 227.941406 179.707031 L 224.246094 194.933594 L 212.996094 192.953125 L 216.28125 178.8125 Z M 223.324219 170.28125 " transform="matrix(1,0,0,1,-74,-13)"/>
<path style="fill-rule:nonzero;fill:rgb(39.99939%,39.99939%,39.99939%);fill-opacity:1;stroke-width:0.03;stroke-linecap:square;stroke-linejoin:miter;stroke:rgb(39.99939%,39.99939%,39.99939%);stroke-opacity:1;stroke-miterlimit:3.239307;" d="M 263.722656 175.921875 L 287.585938 178.960938 L 281.835938 201.929688 L 261.605469 199.160156 L 263.023438 184.429688 L 268.535156 184.945312 L 268.535156 183.675781 L 263.097656 183.085938 Z M 263.722656 175.921875 " transform="matrix(1,0,0,1,-74,-13)"/>
<path style="fill-rule:nonzero;fill:rgb(39.99939%,39.99939%,39.99939%);fill-opacity:1;stroke-width:0.03;stroke-linecap:square;stroke-linejoin:miter;stroke:rgb(39.99939%,39.99939%,39.99939%);stroke-opacity:1;stroke-miterlimit:3.239307;" d="M 297.761719 153.308594 L 323.398438 158.460938 L 317.597656 181.039062 L 290.800781 177.324219 L 293.921875 165.019531 L 302.6875 166.644531 L 302.90625 165.589844 L 303.167969 164.316406 L 295.53125 162.8125 Z M 297.761719 153.308594 " transform="matrix(1,0,0,1,-74,-13)"/>
<path style="fill-rule:nonzero;fill:rgb(39.99939%,39.99939%,39.99939%);fill-opacity:1;stroke-width:0.03;stroke-linecap:square;stroke-linejoin:miter;stroke:rgb(39.99939%,39.99939%,39.99939%);stroke-opacity:1;stroke-miterlimit:3.239307;" d="M 261.539062 141.988281 L 256.796875 140.941406 L 259.648438 127.640625 L 260.628906 124.328125 L 263.851562 120.085938 L 269.792969 113.871094 L 278.152344 115.890625 L 286.398438 117.773438 L 287.9375 119.386719 L 284.675781 132.875 L 281.578125 146.410156 L 268.644531 143.554688 L 272.996094 125.027344 L 272.117188 124.839844 L 271.375 124.683594 L 267.070312 143.207031 Z M 261.539062 141.988281 " transform="matrix(1,0,0,1,-74,-13)"/>
<path style="fill-rule:nonzero;fill:rgb(39.99939%,39.99939%,39.99939%);fill-opacity:1;stroke-width:0.03;stroke-linecap:square;stroke-linejoin:miter;stroke:rgb(39.99939%,39.99939%,39.99939%);stroke-opacity:1;stroke-miterlimit:3.239307;" d="M 308.953125 107.398438 L 312.835938 108.101562 L 332.570312 143.613281 L 301.808594 136.785156 L 304.699219 125.441406 L 312.332031 127.488281 L 312.5625 126.679688 L 312.847656 125.683594 L 305.132812 123.550781 Z M 308.953125 107.398438 " transform="matrix(1,0,0,1,-74,-13)"/>
<g clip-path="url(#clip24)" clip-rule="nonzero">
<path style=" stroke:none;fill-rule:evenodd;fill:rgb(85.096741%,85.096741%,81.959534%);fill-opacity:0.7;" d="M 91.839844 359 C 91.839844 355.859375 90.59375 352.847656 88.371094 350.628906 C 86.152344 348.40625 83.140625 347.160156 80 347.160156 C 76.859375 347.160156 73.847656 348.40625 71.628906 350.628906 C 69.40625 352.847656 68.160156 355.859375 68.160156 359 C 68.160156 362.140625 69.40625 365.152344 71.628906 367.371094 C 73.847656 369.59375 76.859375 370.839844 80 370.839844 C 83.140625 370.839844 86.152344 369.59375 88.371094 367.371094 C 90.59375 365.152344 91.839844 362.140625 91.839844 359 Z M 91.839844 359 "/>
</g>
<path style=" stroke:none;fill-rule:evenodd;fill:rgb(85.096741%,85.096741%,81.959534%);fill-opacity:0.7;" d="M 178.839844 321 C 178.839844 317.859375 177.59375 314.847656 175.371094 312.628906 C 173.152344 310.40625 170.140625 309.160156 167 309.160156 C 163.859375 309.160156 160.847656 310.40625 158.628906 312.628906 C 156.40625 314.847656 155.160156 317.859375 155.160156 321 C 155.160156 324.140625 156.40625 327.152344 158.628906 329.371094 C 160.847656 331.59375 163.859375 332.839844 167 332.839844 C 170.140625 332.839844 173.152344 331.59375 175.371094 329.371094 C 177.59375 327.152344 178.839844 324.140625 178.839844 321 Z M 178.839844 321 "/>
<path style=" stroke:none;fill-rule:evenodd;fill:rgb(85.096741%,85.096741%,81.959534%);fill-opacity:0.7;" d="M 145.839844 314 C 145.839844 310.859375 144.59375 307.847656 142.371094 305.628906 C 140.152344 303.40625 137.140625 302.160156 134 302.160156 C 130.859375 302.160156 127.847656 303.40625 125.628906 305.628906 C 123.40625 307.847656 122.160156 310.859375 122.160156 314 C 122.160156 317.140625 123.40625 320.152344 125.628906 322.371094 C 127.847656 324.59375 130.859375 325.839844 134 325.839844 C 137.140625 325.839844 140.152344 324.59375 142.371094 322.371094 C 144.59375 320.152344 145.839844 317.140625 145.839844 314 Z M 145.839844 314 "/>
<path style=" stroke:none;fill-rule:evenodd;fill:rgb(85.096741%,85.096741%,81.959534%);fill-opacity:0.7;" d="M 137.839844 311 C 137.839844 307.859375 136.59375 304.847656 134.371094 302.628906 C 132.152344 300.40625 129.140625 299.160156 126 299.160156 C 122.859375 299.160156 119.847656 300.40625 117.628906 302.628906 C 115.40625 304.847656 114.160156 307.859375 114.160156 311 C 114.160156 314.140625 115.40625 317.152344 117.628906 319.371094 C 119.847656 321.59375 122.859375 322.839844 126 322.839844 C 129.140625 322.839844 132.152344 321.59375 134.371094 319.371094 C 136.59375 317.152344 137.839844 314.140625 137.839844 311 Z M 137.839844 311 "/>
<path style=" stroke:none;fill-rule:evenodd;fill:rgb(85.096741%,85.096741%,81.959534%);fill-opacity:0.7;" d="M 158.839844 309 C 158.839844 305.859375 157.59375 302.847656 155.371094 300.628906 C 153.152344 298.40625 150.140625 297.160156 147 297.160156 C 143.859375 297.160156 140.847656 298.40625 138.628906 300.628906 C 136.40625 302.847656 135.160156 305.859375 135.160156 309 C 135.160156 312.140625 136.40625 315.152344 138.628906 317.371094 C 140.847656 319.59375 143.859375 320.839844 147 320.839844 C 150.140625 320.839844 153.152344 319.59375 155.371094 317.371094 C 157.59375 315.152344 158.839844 312.140625 158.839844 309 Z M 158.839844 309 "/>
<g clip-path="url(#clip25)" clip-rule="nonzero">
<path style=" stroke:none;fill-rule:evenodd;fill:rgb(85.096741%,85.096741%,81.959534%);fill-opacity:0.7;" d="M 380.839844 303 C 380.839844 299.859375 379.59375 296.847656 377.371094 294.628906 C 375.152344 292.40625 372.140625 291.160156 369 291.160156 C 365.859375 291.160156 362.847656 292.40625 360.628906 294.628906 C 358.40625 296.847656 357.160156 299.859375 357.160156 303 C 357.160156 306.140625 358.40625 309.152344 360.628906 311.371094 C 362.847656 313.59375 365.859375 314.839844 369 314.839844 C 372.140625 314.839844 375.152344 313.59375 377.371094 311.371094 C 379.59375 309.152344 380.839844 306.140625 380.839844 303 Z M 380.839844 303 "/>
</g>
<path style=" stroke:none;fill-rule:evenodd;fill:rgb(85.096741%,85.096741%,81.959534%);fill-opacity:0.7;" d="M 226.839844 300 C 226.839844 296.859375 225.59375 293.847656 223.371094 291.628906 C 221.152344 289.40625 218.140625 288.160156 215 288.160156 C 211.859375 288.160156 208.847656 289.40625 206.628906 291.628906 C 204.40625 293.847656 203.160156 296.859375 203.160156 300 C 203.160156 303.140625 204.40625 306.152344 206.628906 308.371094 C 208.847656 310.59375 211.859375 311.839844 215 311.839844 C 218.140625 311.839844 221.152344 310.59375 223.371094 308.371094 C 225.59375 306.152344 226.839844 303.140625 226.839844 300 Z M 226.839844 300 "/>
<path style=" stroke:none;fill-rule:evenodd;fill:rgb(85.096741%,85.096741%,81.959534%);fill-opacity:0.7;" d="M 185.839844 300 C 185.839844 296.859375 184.59375 293.847656 182.371094 291.628906 C 180.152344 289.40625 177.140625 288.160156 174 288.160156 C 170.859375 288.160156 167.847656 289.40625 165.628906 291.628906 C 163.40625 293.847656 162.160156 296.859375 162.160156 300 C 162.160156 303.140625 163.40625 306.152344 165.628906 308.371094 C 167.847656 310.59375 170.859375 311.839844 174 311.839844 C 177.140625 311.839844 180.152344 310.59375 182.371094 308.371094 C 184.59375 306.152344 185.839844 303.140625 185.839844 300 Z M 185.839844 300 "/>
<path style=" stroke:none;fill-rule:evenodd;fill:rgb(85.096741%,85.096741%,81.959534%);fill-opacity:0.7;" d="M 187.839844 292 C 187.839844 288.859375 186.59375 285.847656 184.371094 283.628906 C 182.152344 281.40625 179.140625 280.160156 176 280.160156 C 172.859375 280.160156 169.847656 281.40625 167.628906 283.628906 C 165.40625 285.847656 164.160156 288.859375 164.160156 292 C 164.160156 295.140625 165.40625 298.152344 167.628906 300.371094 C 169.847656 302.59375 172.859375 303.839844 176 303.839844 C 179.140625 303.839844 182.152344 302.59375 184.371094 300.371094 C 186.59375 298.152344 187.839844 295.140625 187.839844 292 Z M 187.839844 292 "/>
<path style=" stroke:none;fill-rule:evenodd;fill:rgb(85.096741%,85.096741%,81.959534%);fill-opacity:0.7;" d="M 126.839844 286 C 126.839844 282.859375 125.59375 279.847656 123.371094 277.628906 C 121.152344 275.40625 118.140625 274.160156 115 274.160156 C 111.859375 274.160156 108.847656 275.40625 106.628906 277.628906 C 104.40625 279.847656 103.160156 282.859375 103.160156 286 C 103.160156 289.140625 104.40625 292.152344 106.628906 294.371094 C 108.847656 296.59375 111.859375 297.839844 115 297.839844 C 118.140625 297.839844 121.152344 296.59375 123.371094 294.371094 C 125.59375 292.152344 126.839844 289.140625 126.839844 286 Z M 126.839844 286 "/>
<path style=" stroke:none;fill-rule:evenodd;fill:rgb(85.096741%,85.096741%,81.959534%);fill-opacity:0.7;" d="M 168.839844 278 C 168.839844 274.859375 167.59375 271.847656 165.371094 269.628906 C 163.152344 267.40625 160.140625 266.160156 157 266.160156 C 153.859375 266.160156 150.847656 267.40625 148.628906 269.628906 C 146.40625 271.847656 145.160156 274.859375 145.160156 278 C 145.160156 281.140625 146.40625 284.152344 148.628906 286.371094 C 150.847656 288.59375 153.859375 289.839844 157 289.839844 C 160.140625 289.839844 163.152344 288.59375 165.371094 286.371094 C 167.59375 284.152344 168.839844 281.140625 168.839844 278 Z M 168.839844 278 "/>
<path style=" stroke:none;fill-rule:evenodd;fill:rgb(85.096741%,85.096741%,81.959534%);fill-opacity:0.7;" d="M 110.839844 274 C 110.839844 270.859375 109.59375 267.847656 107.371094 265.628906 C 105.152344 263.40625 102.140625 262.160156 99 262.160156 C 95.859375 262.160156 92.847656 263.40625 90.628906 265.628906 C 88.40625 267.847656 87.160156 270.859375 87.160156 274 C 87.160156 277.140625 88.40625 280.152344 90.628906 282.371094 C 92.847656 284.59375 95.859375 285.839844 99 285.839844 C 102.140625 285.839844 105.152344 284.59375 107.371094 282.371094 C 109.59375 280.152344 110.839844 277.140625 110.839844 274 Z M 110.839844 274 "/>
<path style=" stroke:none;fill-rule:evenodd;fill:rgb(85.096741%,85.096741%,81.959534%);fill-opacity:0.7;" d="M 68.839844 271 C 68.839844 267.859375 67.59375 264.847656 65.371094 262.628906 C 63.152344 260.40625 60.140625 259.160156 57 259.160156 C 53.859375 259.160156 50.847656 260.40625 48.628906 262.628906 C 46.40625 264.847656 45.160156 267.859375 45.160156 271 C 45.160156 274.140625 46.40625 277.152344 48.628906 279.371094 C 50.847656 281.59375 53.859375 282.839844 57 282.839844 C 60.140625 282.839844 63.152344 281.59375 65.371094 279.371094 C 67.59375 277.152344 68.839844 274.140625 68.839844 271 Z M 68.839844 271 "/>
<path style=" stroke:none;fill-rule:evenodd;fill:rgb(85.096741%,85.096741%,81.959534%);fill-opacity:0.7;" d="M 36.839844 255 C 36.839844 251.859375 35.59375 248.847656 33.371094 246.628906 C 31.152344 244.40625 28.140625 243.160156 25 243.160156 C 21.859375 243.160156 18.847656 244.40625 16.628906 246.628906 C 14.40625 248.847656 13.160156 251.859375 13.160156 255 C 13.160156 258.140625 14.40625 261.152344 16.628906 263.371094 C 18.847656 265.59375 21.859375 266.839844 25 266.839844 C 28.140625 266.839844 31.152344 265.59375 33.371094 263.371094 C 35.59375 261.152344 36.839844 258.140625 36.839844 255 Z M 36.839844 255 "/>
<path style=" stroke:none;fill-rule:evenodd;fill:rgb(85.096741%,85.096741%,81.959534%);fill-opacity:0.7;" d="M 42.839844 174 C 42.839844 170.859375 41.59375 167.847656 39.371094 165.628906 C 37.152344 163.40625 34.140625 162.160156 31 162.160156 C 27.859375 162.160156 24.847656 163.40625 22.628906 165.628906 C 20.40625 167.847656 19.160156 170.859375 19.160156 174 C 19.160156 177.140625 20.40625 180.152344 22.628906 182.371094 C 24.847656 184.59375 27.859375 185.839844 31 185.839844 C 34.140625 185.839844 37.152344 184.59375 39.371094 182.371094 C 41.59375 180.152344 42.839844 177.140625 42.839844 174 Z M 42.839844 174 "/>
<path style=" stroke:none;fill-rule:evenodd;fill:rgb(85.096741%,85.096741%,81.959534%);fill-opacity:0.7;" d="M 195.839844 69 C 195.839844 65.859375 194.59375 62.847656 192.371094 60.628906 C 190.152344 58.40625 187.140625 57.160156 184 57.160156 C 180.859375 57.160156 177.847656 58.40625 175.628906 60.628906 C 173.40625 62.847656 172.160156 65.859375 172.160156 69 C 172.160156 72.140625 173.40625 75.152344 175.628906 77.371094 C 177.847656 79.59375 180.859375 80.839844 184 80.839844 C 187.140625 80.839844 190.152344 79.59375 192.371094 77.371094 C 194.59375 75.152344 195.839844 72.140625 195.839844 69 Z M 195.839844 69 "/>
<path style=" stroke:none;fill-rule:evenodd;fill:rgb(85.096741%,85.096741%,81.959534%);fill-opacity:0.7;" d="M 177.839844 17 C 177.839844 13.859375 176.59375 10.847656 174.371094 8.628906 C 172.152344 6.40625 169.140625 5.160156 166 5.160156 C 162.859375 5.160156 159.847656 6.40625 157.628906 8.628906 C 155.40625 10.847656 154.160156 13.859375 154.160156 17 C 154.160156 20.140625 155.40625 23.152344 157.628906 25.371094 C 159.847656 27.59375 162.859375 28.839844 166 28.839844 C 169.140625 28.839844 172.152344 27.59375 174.371094 25.371094 C 176.59375 23.152344 177.839844 20.140625 177.839844 17 Z M 177.839844 17 "/>
<path style=" stroke:none;fill-rule:evenodd;fill:rgb(85.096741%,85.096741%,81.959534%);fill-opacity:0.7;" d="M 127.839844 -9 C 127.839844 -12.140625 126.59375 -15.152344 124.371094 -17.371094 C 122.152344 -19.59375 119.140625 -20.839844 116 -20.839844 C 112.859375 -20.839844 109.847656 -19.59375 107.628906 -17.371094 C 105.40625 -15.152344 104.160156 -12.140625 104.160156 -9 C 104.160156 -5.859375 105.40625 -2.847656 107.628906 -0.628906 C 109.847656 1.59375 112.859375 2.839844 116 2.839844 C 119.140625 2.839844 122.152344 1.59375 124.371094 -0.628906 C 126.59375 -2.847656 127.839844 -5.859375 127.839844 -9 Z M 127.839844 -9 "/>
<g clip-path="url(#clip26)" clip-rule="nonzero">
<path style=" stroke:none;fill-rule:evenodd;fill:rgb(85.096741%,85.096741%,81.959534%);fill-opacity:0.7;" d="M 314.839844 355 C 314.839844 351.859375 313.59375 348.847656 311.371094 346.628906 C 309.152344 344.40625 306.140625 343.160156 303 343.160156 C 299.859375 343.160156 296.847656 344.40625 294.628906 346.628906 C 292.40625 348.847656 291.160156 351.859375 291.160156 355 C 291.160156 358.140625 292.40625 361.152344 294.628906 363.371094 C 296.847656 365.59375 299.859375 366.839844 303 366.839844 C 306.140625 366.839844 309.152344 365.59375 311.371094 363.371094 C 313.59375 361.152344 314.839844 358.140625 314.839844 355 Z M 314.839844 355 "/>
</g>
<path style=" stroke:none;fill-rule:evenodd;fill:rgb(85.096741%,85.096741%,81.959534%);fill-opacity:0.7;" d="M 132.839844 333 C 132.839844 329.859375 131.59375 326.847656 129.371094 324.628906 C 127.152344 322.40625 124.140625 321.160156 121 321.160156 C 117.859375 321.160156 114.847656 322.40625 112.628906 324.628906 C 110.40625 326.847656 109.160156 329.859375 109.160156 333 C 109.160156 336.140625 110.40625 339.152344 112.628906 341.371094 C 114.847656 343.59375 117.859375 344.839844 121 344.839844 C 124.140625 344.839844 127.152344 343.59375 129.371094 341.371094 C 131.59375 339.152344 132.839844 336.140625 132.839844 333 Z M 132.839844 333 "/>
<path style=" stroke:none;fill-rule:evenodd;fill:rgb(85.096741%,85.096741%,81.959534%);fill-opacity:0.7;" d="M 204.839844 301 C 204.839844 297.859375 203.59375 294.847656 201.371094 292.628906 C 199.152344 290.40625 196.140625 289.160156 193 289.160156 C 189.859375 289.160156 186.847656 290.40625 184.628906 292.628906 C 182.40625 294.847656 181.160156 297.859375 181.160156 301 C 181.160156 304.140625 182.40625 307.152344 184.628906 309.371094 C 186.847656 311.59375 189.859375 312.839844 193 312.839844 C 196.140625 312.839844 199.152344 311.59375 201.371094 309.371094 C 203.59375 307.152344 204.839844 304.140625 204.839844 301 Z M 204.839844 301 "/>
<path style=" stroke:none;fill-rule:evenodd;fill:rgb(85.096741%,85.096741%,81.959534%);fill-opacity:0.7;" d="M 268.839844 236 C 268.839844 232.859375 267.59375 229.847656 265.371094 227.628906 C 263.152344 225.40625 260.140625 224.160156 257 224.160156 C 253.859375 224.160156 250.847656 225.40625 248.628906 227.628906 C 246.40625 229.847656 245.160156 232.859375 245.160156 236 C 245.160156 239.140625 246.40625 242.152344 248.628906 244.371094 C 250.847656 246.59375 253.859375 247.839844 257 247.839844 C 260.140625 247.839844 263.152344 246.59375 265.371094 244.371094 C 267.59375 242.152344 268.839844 239.140625 268.839844 236 Z M 268.839844 236 "/>
<path style="fill-rule:nonzero;fill:rgb(99.998474%,99.998474%,30.587769%);fill-opacity:0.8;stroke-width:0.288;stroke-linecap:square;stroke-linejoin:miter;stroke:rgb(0%,0%,0%);stroke-opacity:0.8;stroke-miterlimit:3.25;" d="M 285.753906 197.835938 L 260.117188 242.242188 L 311.390625 242.242188 Z M 285.753906 197.835938 " transform="matrix(1,0,0,1,-74,-13)"/>
<path style="fill-rule:nonzero;fill:rgb(99.998474%,99.998474%,30.587769%);fill-opacity:0.8;stroke-width:0.288;stroke-linecap:square;stroke-linejoin:miter;stroke:rgb(0%,0%,0%);stroke-opacity:0.8;stroke-miterlimit:3.25;" d="M 276.875 280.722656 L 251.238281 325.125 L 302.511719 325.125 Z M 276.875 280.722656 " transform="matrix(1,0,0,1,-74,-13)"/>
<path style="fill-rule:nonzero;fill:rgb(99.998474%,99.998474%,30.587769%);fill-opacity:0.8;stroke-width:0.288;stroke-linecap:square;stroke-linejoin:miter;stroke:rgb(0%,0%,0%);stroke-opacity:0.8;stroke-miterlimit:3.25;" d="M 267.992188 260 L 242.359375 304.40625 L 293.628906 304.40625 Z M 267.992188 260 " transform="matrix(1,0,0,1,-74,-13)"/>
<path style="fill-rule:nonzero;fill:rgb(99.998474%,99.998474%,30.587769%);fill-opacity:0.8;stroke-width:0.288;stroke-linecap:square;stroke-linejoin:miter;stroke:rgb(0%,0%,0%);stroke-opacity:0.8;stroke-miterlimit:3.25;" d="M 146.625 52.789062 L 120.988281 97.191406 L 172.261719 97.191406 Z M 146.625 52.789062 " transform="matrix(1,0,0,1,-74,-13)"/>
</g>
</svg>
