<?xml version="1.0" encoding="UTF-8"?>
<svg xmlns="http://www.w3.org/2000/svg" xmlns:xlink="http://www.w3.org/1999/xlink" width="361pt" height="361pt" viewBox="0 0 361 361" version="1.1">
<defs>
<clipPath id="clip1">
  <path d="M 0 281 L 29 281 L 29 360 L 0 360 Z M 0 281 "/>
</clipPath>
<clipPath id="clip2">
  <path d="M 261 330 L 311 330 L 311 360 L 261 360 Z M 261 330 "/>
</clipPath>
<clipPath id="clip3">
  <path d="M 348 230 L 360 230 L 360 245 L 348 245 Z M 348 230 "/>
</clipPath>
<clipPath id="clip4">
  <path d="M 344 151 L 360 151 L 360 187 L 344 187 Z M 344 151 "/>
</clipPath>
<clipPath id="clip5">
  <path d="M 359 175 L 360 175 L 360 195 L 359 195 Z M 359 175 "/>
</clipPath>
<clipPath id="clip6">
  <path d="M 351 196 L 360 196 L 360 234 L 351 234 Z M 351 196 "/>
</clipPath>
<clipPath id="clip7">
  <path d="M 327 336 L 360 336 L 360 360 L 327 360 Z M 327 336 "/>
</clipPath>
<clipPath id="clip8">
  <path d="M 353 301 L 360 301 L 360 360 L 353 360 Z M 353 301 "/>
</clipPath>
<clipPath id="clip9">
  <path d="M 314 336 L 360 336 L 360 360 L 314 360 Z M 314 336 "/>
</clipPath>
<clipPath id="clip10">
  <path d="M 266 319 L 347 319 L 347 360 L 266 360 Z M 266 319 "/>
</clipPath>
<clipPath id="clip11">
  <path d="M 319 260 L 360 260 L 360 333 L 319 333 Z M 319 260 "/>
</clipPath>
<clipPath id="clip12">
  <path d="M 336 235 L 360 235 L 360 284 L 336 284 Z M 336 235 "/>
</clipPath>
<clipPath id="clip13">
  <path d="M 356 193 L 360 193 L 360 206 L 356 206 Z M 356 193 "/>
</clipPath>
<clipPath id="clip14">
  <path d="M 351 133 L 360 133 L 360 153 L 351 153 Z M 351 133 "/>
</clipPath>
<clipPath id="clip15">
  <path d="M 67 345 L 250 345 L 250 360 L 67 360 Z M 67 345 "/>
</clipPath>
<clipPath id="clip16">
  <path d="M 161 291 L 261 291 L 261 360 L 161 360 Z M 161 291 "/>
</clipPath>
<clipPath id="clip17">
  <path d="M 3 244 L 191 244 L 191 360 L 3 360 Z M 3 244 "/>
</clipPath>
<clipPath id="clip18">
  <path d="M 353 49 L 360 49 L 360 76 L 353 76 Z M 353 49 "/>
</clipPath>
<clipPath id="clip19">
  <path d="M 328 0 L 360 0 L 360 53 L 328 53 Z M 328 0 "/>
</clipPath>
<clipPath id="clip20">
  <path d="M 341 112 L 360 112 L 360 133 L 341 133 Z M 341 112 "/>
</clipPath>
<clipPath id="clip21">
  <path d="M 345 71 L 360 71 L 360 115 L 345 115 Z M 345 71 "/>
</clipPath>
<clipPath id="clip22">
  <path d="M 338 0 L 360 0 L 360 2 L 338 2 Z M 338 0 "/>
</clipPath>
</defs>
<g id="surface399">
<path style="fill-rule:nonzero;fill:rgb(0%,0%,0%);fill-opacity:1;stroke-width:0.03;stroke-linecap:square;stroke-linejoin:miter;stroke:rgb(0%,0%,0%);stroke-opacity:1;stroke-miterlimit:10;" d="M 0 178 L 360 178 L 360 -182 L 0 -182 Z M 0 178 " transform="matrix(1,0,0,1,0,182)"/>
<g clip-path="url(#clip1)" clip-rule="nonzero">
<path style=" stroke:none;fill-rule:nonzero;fill:rgb(39.99939%,39.99939%,39.99939%);fill-opacity:0.3;" d="M 20.949219 364 L 28.132812 393.304688 L 25.621094 394.277344 L -42.078125 415.824219 L -48.015625 417.558594 L -68.054688 376.539062 L -59.726562 377.21875 L -58.183594 389.40625 L -57.203125 389.40625 L -58.609375 377.25 L -52.71875 377.234375 L -49.324219 377.105469 L -45.929688 390.261719 L -44.53125 390.152344 L -48.21875 377.082031 L -36.171875 376.359375 L -28.605469 374.980469 L -27.429688 384.058594 L -26.769531 384.054688 L -26.113281 384.046875 L -27.097656 374.722656 L -16.054688 373.578125 L -12.339844 389.601562 L -11.75 389.453125 L -11.15625 389.304688 L -15.128906 372.125 L -27.527344 373.445312 L -39.40625 375.300781 L -45.375 375.644531 L -52.742188 375.796875 L -60.507812 375.699219 L -69.058594 374.882812 L -74.742188 364 L -75.171875 363.183594 L -18.761719 352.609375 L -31.292969 333.707031 L -41.132812 335.777344 L -50.714844 337.589844 L -60.035156 339.402344 L -69.101562 341.214844 L -76.867188 343.804688 L -84.957031 344.441406 L -90.933594 332.992188 L -87.589844 331.683594 L -93.902344 319.496094 L -28.238281 293.976562 L -11.609375 287.453125 L -1.011719 281.828125 L 2.265625 288.128906 L 5.074219 294.726562 L 6.84375 299.945312 L -16.449219 327.769531 L -15.683594 328.660156 L -14.875 329.605469 L 7.636719 302.671875 L 10.714844 315.527344 L 10.085938 316.210938 L -9.699219 325.132812 L -3.042969 346.574219 L 14.6875 334.320312 L 15.589844 339.113281 L 18.261719 353.039062 Z M 20.949219 364 "/>
</g>
<path style=" stroke:none;fill-rule:nonzero;fill:rgb(39.99939%,39.99939%,39.99939%);fill-opacity:0.3;" d="M 249.226562 0.601562 L 267.425781 4.132812 L 267.683594 3.148438 L 281.523438 6.148438 L 277.734375 21.835938 L 246.09375 15.515625 Z M 249.226562 0.601562 "/>
<path style=" stroke:none;fill-rule:nonzero;fill:rgb(39.99939%,39.99939%,39.99939%);fill-opacity:0.3;" d="M 277.234375 23.796875 L 272.082031 44.675781 L 255.195312 41.761719 L 255.488281 40.382812 L 257.757812 37.277344 L 259.019531 34.621094 L 261.777344 30.773438 L 262.882812 28.226562 L 264.566406 21.496094 L 264.898438 21.292969 Z M 277.234375 23.796875 "/>
<path style=" stroke:none;fill-rule:nonzero;fill:rgb(39.99939%,39.99939%,39.99939%);fill-opacity:0.3;" d="M 250.375 42.015625 L 250.410156 42.417969 L 247.363281 44.894531 L 243.097656 49.78125 L 234.414062 49.1875 L 233.898438 48.785156 L 231.375 40.242188 L 240.582031 39.460938 L 243.125 40.242188 L 244.28125 40.957031 L 243.421875 42.65625 L 244.375 42.855469 L 245.449219 43.082031 L 246.375 41.445312 L 246.914062 41.378906 L 248.671875 41.867188 Z M 250.375 42.015625 "/>
<path style=" stroke:none;fill-rule:nonzero;fill:rgb(39.99939%,39.99939%,39.99939%);fill-opacity:0.3;" d="M 254.1875 -18.066406 L 285.605469 -11.402344 L 281.996094 3.347656 L 271.914062 1.355469 L 272.25 -0.273438 L 250.800781 -4.871094 Z M 254.1875 -18.066406 "/>
<path style=" stroke:none;fill-rule:nonzero;fill:rgb(39.99939%,39.99939%,39.99939%);fill-opacity:0.3;" d="M 208.511719 79.027344 L 208.101562 83.496094 L 197.691406 81.839844 L 198.050781 77.992188 Z M 208.511719 79.027344 "/>
<path style=" stroke:none;fill-rule:nonzero;fill:rgb(39.99939%,39.99939%,39.99939%);fill-opacity:0.3;" d="M 195.324219 119.566406 L 224.078125 126.789062 L 221.367188 133.027344 L 194.050781 127.09375 Z M 195.324219 119.566406 "/>
<path style=" stroke:none;fill-rule:nonzero;fill:rgb(39.99939%,39.99939%,39.99939%);fill-opacity:0.3;" d="M 260.0625 102.179688 L 254.109375 125.355469 L 230.070312 120.066406 L 233.734375 112.761719 L 238.089844 108.492188 L 242.632812 109.328125 L 243.632812 108.972656 L 246.328125 109.191406 L 246.304688 108.605469 L 246.28125 108.023438 L 243.679688 107.855469 L 242.917969 108.273438 L 239.117188 107.605469 L 239.347656 106.824219 L 240.714844 105.523438 L 245.320312 102.441406 L 248.191406 101.574219 L 252.941406 100.976562 L 259.851562 101.25 Z M 260.0625 102.179688 "/>
<path style=" stroke:none;fill-rule:nonzero;fill:rgb(39.99939%,39.99939%,39.99939%);fill-opacity:0.3;" d="M 225.289062 29.332031 L 225.792969 30.265625 L 228.839844 39.773438 L 228.726562 39.992188 L 228.382812 40.210938 L 218.71875 40.996094 L 220.164062 32.035156 L 220.453125 31.226562 L 220.683594 30.792969 L 222.21875 30.140625 L 224.265625 29.4375 Z M 225.289062 29.332031 "/>
<path style=" stroke:none;fill-rule:nonzero;fill:rgb(39.99939%,39.99939%,39.99939%);fill-opacity:0.3;" d="M 240.84375 88.171875 L 235.914062 95.59375 L 235.421875 95.707031 L 228.597656 93.089844 L 234.621094 74.628906 L 237.050781 80.304688 L 239.109375 84.316406 L 241.039062 87.570312 Z M 240.84375 88.171875 "/>
<path style=" stroke:none;fill-rule:nonzero;fill:rgb(39.99939%,39.99939%,39.99939%);fill-opacity:0.3;" d="M 234.65625 102.996094 L 232.941406 105.121094 L 236.179688 106.742188 L 237.257812 108.417969 L 233.785156 111.796875 L 227.421875 109.628906 L 227.304688 109.890625 L 227.207031 110.109375 L 233.359375 112.203125 L 230.941406 116.835938 L 229.828125 116.726562 L 229.773438 118.042969 L 227.675781 119.707031 L 223.691406 118.875 L 224.261719 115.347656 L 223.78125 115.273438 L 223.140625 115.175781 L 222.566406 118.652344 L 213.519531 116.710938 L 213.355469 116.535156 L 213.316406 116.308594 L 214.015625 113.886719 L 215.679688 108.160156 L 216.261719 102.179688 L 216.375 101.394531 L 217.832031 96.117188 L 219 91.535156 L 219.207031 91.078125 L 219.644531 90.386719 L 225.496094 93.175781 L 225.347656 100.855469 L 230.34375 103.421875 L 232.78125 102.46875 Z M 234.65625 102.996094 "/>
<path style=" stroke:none;fill-rule:nonzero;fill:rgb(39.99939%,39.99939%,39.99939%);fill-opacity:0.3;" d="M 234.613281 21.273438 L 233.796875 25.414062 L 233.394531 25.898438 L 232.890625 25.992188 L 226.878906 25.582031 L 226.183594 25.523438 L 224.792969 22.863281 L 223.6875 20.566406 L 223.789062 20.183594 L 223.988281 20.085938 L 224.507812 20.035156 L 225.386719 20.09375 L 226.816406 20.335938 L 228.414062 20.613281 L 230.109375 20.796875 L 231.707031 20.859375 L 233.21875 20.882812 L 233.8125 20.808594 L 234.179688 20.867188 L 234.527344 21.046875 Z M 234.613281 21.273438 "/>
<path style=" stroke:none;fill-rule:nonzero;fill:rgb(39.99939%,39.99939%,39.99939%);fill-opacity:0.3;" d="M 243.675781 21.070312 L 242.273438 26.609375 L 239.5625 26.375 L 235.910156 26.058594 L 237.328125 19.613281 L 237.96875 19.617188 L 239.066406 19.992188 L 240.488281 20.40625 L 242.019531 20.601562 L 243.300781 20.632812 Z M 243.675781 21.070312 "/>
<path style=" stroke:none;fill-rule:nonzero;fill:rgb(39.99939%,39.99939%,39.99939%);fill-opacity:0.3;" d="M 247.90625 0.648438 L 243.84375 19.667969 L 243.140625 19.664062 L 242.039062 19.660156 L 241.4375 19.5625 L 238.734375 18.878906 L 237.03125 18.199219 L 235.730469 17.8125 L 234.886719 17.734375 L 234.652344 20.375 L 234.015625 20.402344 L 231.710938 20.398438 L 228.503906 20.003906 L 226.097656 19.707031 L 224.492188 19.125 L 222.234375 17.921875 L 217.207031 7.160156 L 217.535156 5.328125 L 218 4.527344 L 218.304688 4.144531 L 219.710938 3.089844 L 221.917969 1.945312 L 224.730469 0.414062 L 226.941406 -0.636719 L 229.351562 -1.398438 L 231.960938 -1.777344 L 233.667969 -1.824219 L 235.636719 -1.699219 L 238.210938 -1.359375 Z M 247.90625 0.648438 "/>
<path style=" stroke:none;fill-rule:nonzero;fill:rgb(39.99939%,39.99939%,39.99939%);fill-opacity:0.3;" d="M 261.074219 95.722656 L 260.808594 96.742188 L 260.230469 97.324219 L 259.453125 97.671875 L 256.800781 98.371094 L 255.429688 98.199219 L 254.054688 97.726562 L 252.453125 96.777344 L 250.980469 95.171875 L 249.757812 93.859375 L 243.5 83.402344 L 248.484375 82.621094 L 257.683594 86.203125 L 257.742188 85.929688 L 257.824219 85.675781 L 252.105469 83.234375 L 252.265625 81.789062 L 248.636719 81.027344 L 242.90625 81.882812 L 236.628906 70.003906 L 237.417969 69.003906 L 238.546875 68.773438 L 239.367188 68.855469 L 252.394531 72.394531 L 258.308594 74.769531 L 264.933594 77.078125 Z M 261.074219 95.722656 "/>
<path style=" stroke:none;fill-rule:nonzero;fill:rgb(39.99939%,39.99939%,39.99939%);fill-opacity:0.3;" d="M 241.730469 27.746094 L 241.800781 27.980469 L 240.894531 33.046875 L 228.5625 31.605469 L 226.949219 27.117188 L 227.273438 26.878906 Z M 241.730469 27.746094 "/>
<path style=" stroke:none;fill-rule:nonzero;fill:rgb(39.99939%,39.99939%,39.99939%);fill-opacity:0.3;" d="M 271.890625 45.484375 L 270.113281 53.980469 L 243.957031 49.960938 L 246.269531 47.28125 L 247.875 45.410156 L 250.015625 43.460938 L 250.992188 42.734375 L 251.996094 42.242188 L 254.117188 42.402344 Z M 271.890625 45.484375 "/>
<path style=" stroke:none;fill-rule:nonzero;fill:rgb(39.99939%,39.99939%,39.99939%);fill-opacity:0.3;" d="M 269.800781 54.980469 L 264.914062 76.199219 L 258.625 74.214844 L 253.117188 72.007812 L 239.46875 68.15625 L 238.175781 68.058594 L 236.992188 68.257812 L 235.722656 69.019531 L 234.125 66.308594 L 233.464844 65.363281 L 233.4375 64.234375 L 233.820312 56.960938 L 233.550781 55.441406 L 233.613281 54.46875 L 234.050781 52.28125 L 234.628906 51.367188 L 235.257812 50.78125 L 241.789062 51.054688 L 242.503906 51.167969 L 252.667969 52.78125 L 252.894531 52.316406 L 259.597656 53.371094 L 258.527344 58.007812 L 258.816406 58.058594 L 259.128906 58.117188 L 260.253906 53.472656 Z M 269.800781 54.980469 "/>
<path style=" stroke:none;fill-rule:nonzero;fill:rgb(39.99939%,39.99939%,39.99939%);fill-opacity:0.3;" d="M 263.527344 20.667969 L 263.601562 20.882812 L 263.65625 21.125 L 261.964844 27.980469 L 260.960938 30.339844 L 258.207031 34.203125 L 256.902344 37 L 254.699219 39.9375 L 253.625 41.460938 L 252.148438 41.5 L 248.15625 41.007812 L 241.972656 39.1875 L 241.492188 38.757812 L 241.214844 38.074219 L 241.421875 36.464844 L 241.941406 32.644531 L 242.703125 28.085938 L 243.1875 25.671875 L 244.152344 21.835938 L 245.523438 16.96875 L 246.09375 16.8125 L 254.171875 18.4375 L 254.296875 18.640625 L 253.273438 22.164062 L 247.933594 22.140625 L 247.34375 25.355469 L 247.738281 25.40625 L 248.132812 25.46875 L 248.609375 22.800781 L 253.449219 22.996094 L 255.378906 23.734375 L 255.214844 24.691406 L 254.855469 26.753906 L 255.15625 26.832031 L 255.570312 26.9375 L 256.015625 25.09375 L 258.195312 25.386719 L 258.273438 25.035156 L 258.34375 24.726562 L 256.082031 24.398438 L 256.351562 23.1875 L 253.996094 22.386719 L 254.941406 18.851562 L 255.257812 18.816406 L 263.339844 20.507812 Z M 263.527344 20.667969 "/>
<path style=" stroke:none;fill-rule:nonzero;fill:rgb(39.99939%,39.99939%,39.99939%);fill-opacity:0.3;" d="M 242.941406 101.898438 L 237.738281 107.5 L 236.777344 106.324219 L 234.65625 104.964844 L 235.605469 103.535156 L 235.890625 102.550781 L 234.617188 102.050781 L 232.578125 101.789062 L 230.382812 102.625 L 226.1875 100.515625 L 226.375 93.476562 L 235.222656 96.660156 L 234.597656 98.722656 L 235.035156 98.9375 L 235.46875 99.148438 L 236.480469 97.175781 L 242.925781 101.011719 Z M 242.941406 101.898438 "/>
<path style=" stroke:none;fill-rule:nonzero;fill:rgb(39.99939%,39.99939%,39.99939%);fill-opacity:0.3;" d="M 248.546875 97.347656 L 249.984375 98.683594 L 249.664062 99.988281 L 245.425781 100.628906 L 244.535156 100.683594 L 243.589844 100.261719 L 236.980469 96.269531 L 236.992188 95.636719 L 241.605469 88.433594 L 242.0625 88.542969 L 247.039062 95.605469 Z M 248.546875 97.347656 "/>
<path style=" stroke:none;fill-rule:nonzero;fill:rgb(39.99939%,39.99939%,39.99939%);fill-opacity:0.3;" d="M 216.03125 11.082031 L 224.496094 27.339844 L 224.210938 28.234375 L 219.375 30.179688 L 216.035156 29.628906 L 216.707031 26.082031 L 216.175781 25.964844 L 216.582031 23.65625 L 216.105469 23.566406 L 215.632812 23.476562 L 214.902344 27.210938 L 215.621094 27.433594 L 215.050781 30.949219 L 219.601562 31.492188 L 216.5 48.90625 L 216.222656 49.558594 L 214.902344 51.542969 L 213.707031 53.046875 L 212.859375 53.882812 L 211.898438 54.703125 L 210.222656 55.199219 L 207.210938 54.824219 L 204.175781 54.476562 L 204.421875 51.726562 L 203.703125 51.632812 L 203.003906 51.542969 L 202.699219 54.148438 L 200.292969 53.828125 L 199.835938 52.574219 L 201.488281 37.714844 L 207.039062 38.554688 L 207.167969 38.292969 L 207.292969 38.03125 L 201.554688 36.894531 L 203.726562 19.277344 L 203.890625 17.847656 L 204.664062 17.21875 L 215.25 11.046875 Z M 216.03125 11.082031 "/>
<path style=" stroke:none;fill-rule:nonzero;fill:rgb(39.99939%,39.99939%,39.99939%);fill-opacity:0.3;" d="M 199.902344 55.253906 L 208.863281 56.203125 L 209.488281 56.65625 L 210.183594 58.441406 L 208.507812 78.292969 L 198.121094 77.257812 Z M 199.902344 55.253906 "/>
<path style=" stroke:none;fill-rule:nonzero;fill:rgb(39.99939%,39.99939%,39.99939%);fill-opacity:0.3;" d="M 255.589844 125.664062 L 261.917969 101.5625 L 264.972656 102.359375 L 283.585938 112.804688 L 279.84375 132.148438 L 279.199219 132.300781 L 262.75 128.292969 L 263.03125 127.402344 Z M 255.589844 125.664062 "/>
<path style=" stroke:none;fill-rule:nonzero;fill:rgb(39.99939%,39.99939%,39.99939%);fill-opacity:0.3;" d="M 197.488281 83.484375 L 197.726562 82.820312 L 206.8125 84.277344 L 207.707031 84.539062 L 207.925781 85.160156 L 206.953125 91.523438 L 207.570312 91.667969 L 208.085938 91.789062 L 209.082031 85.3125 L 209.296875 84.984375 L 209.707031 84.984375 L 218.515625 88.46875 L 218.75 88.964844 L 215.792969 101.449219 L 215.03125 107.894531 L 212.835938 116.148438 L 211.816406 116.675781 L 195.640625 111.921875 L 196.457031 101.984375 L 201.539062 103.585938 L 201.78125 101.945312 L 196.699219 100.5 Z M 197.488281 83.484375 "/>
<path style=" stroke:none;fill-rule:nonzero;fill:rgb(39.99939%,39.99939%,39.99939%);fill-opacity:0.3;" d="M 211.109375 64.027344 L 211.511719 58 L 230.789062 61.167969 L 230.585938 65.371094 L 229.53125 66.507812 L 223.59375 66.859375 L 222.507812 67.769531 L 221.5625 71.324219 L 219.082031 87.75 L 209.234375 83.882812 Z M 211.109375 64.027344 "/>
<path style=" stroke:none;fill-rule:nonzero;fill:rgb(39.99939%,39.99939%,39.99939%);fill-opacity:0.3;" d="M 240.003906 33.777344 L 240.449219 34.546875 L 240.027344 37.722656 L 239.757812 38.578125 L 231.109375 39.445312 L 228.8125 32.570312 L 233.316406 33.132812 L 235.171875 33.363281 Z M 240.003906 33.777344 "/>
<path style=" stroke:none;fill-rule:nonzero;fill:rgb(39.99939%,39.99939%,39.99939%);fill-opacity:0.3;" d="M 230.90625 55.019531 L 230.707031 60.230469 L 211.199219 56.972656 L 210.730469 56.527344 L 213.125 55.179688 L 213.652344 56.386719 L 214.085938 56.273438 L 214.332031 56.210938 L 213.828125 54.714844 L 216.179688 51.773438 L 217.277344 50.832031 Z M 230.90625 55.019531 "/>
<path style=" stroke:none;fill-rule:nonzero;fill:rgb(39.99939%,39.99939%,39.99939%);fill-opacity:0.3;" d="M 229.148438 40.78125 L 231.25 47.777344 L 231.347656 53.5625 L 230.851562 54.03125 L 217.457031 49.859375 L 218.601562 41.6875 Z M 229.148438 40.78125 "/>
<path style=" stroke:none;fill-rule:nonzero;fill:rgb(39.99939%,39.99939%,39.99939%);fill-opacity:0.3;" d="M 231.203125 67.605469 L 234.140625 73.585938 L 227.753906 92.765625 L 222.234375 90.207031 L 222.621094 86.140625 L 222.21875 86.113281 L 221.839844 86.082031 L 221.464844 89.847656 L 219.585938 89.015625 L 222.386719 72.121094 L 223.207031 69.515625 L 223.460938 68.65625 L 224.585938 67.789062 Z M 231.203125 67.605469 "/>
<path style=" stroke:none;fill-rule:nonzero;fill:rgb(39.99939%,39.99939%,39.99939%);fill-opacity:0.3;" d="M 213.210938 -1.230469 L 213.871094 5.636719 L 204.097656 11.019531 L 206.050781 -1.003906 Z M 213.210938 -1.230469 "/>
<path style=" stroke:none;fill-rule:nonzero;fill:rgb(39.99939%,39.99939%,39.99939%);fill-opacity:0.3;" d="M 83.390625 69.503906 L 84.078125 70.179688 L 84.875 71.429688 L 89.492188 79.808594 L 89.324219 80.621094 L 88.730469 81.222656 L 83.34375 80.152344 L 76.03125 79.351562 L 71.414062 78.328125 L 64.375 75.269531 L 33 59.714844 L 18.84375 52.269531 L 12.730469 48.269531 L 12.394531 47.261719 L 7.300781 34.070312 L 7.402344 33.195312 L 7.980469 32.574219 L 9.492188 32.285156 L 20.371094 37.789062 Z M 83.390625 69.503906 "/>
<path style=" stroke:none;fill-rule:nonzero;fill:rgb(39.99939%,39.99939%,39.99939%);fill-opacity:0.3;" d="M -5.253906 141.335938 L 12.113281 186.425781 L 8.109375 188.65625 L -4.230469 178.632812 L -5.734375 176.601562 L -6.820312 174.960938 L -16.273438 147.570312 L -15.109375 146.511719 L -14.164062 145.050781 L -13.90625 143.992188 Z M -5.253906 141.335938 "/>
<path style=" stroke:none;fill-rule:nonzero;fill:rgb(39.99939%,39.99939%,39.99939%);fill-opacity:0.3;" d="M 22.984375 85.984375 L 36.480469 123.023438 L 24.472656 126.726562 L 11.773438 89.640625 Z M 22.984375 85.984375 "/>
<path style=" stroke:none;fill-rule:nonzero;fill:rgb(39.99939%,39.99939%,39.99939%);fill-opacity:0.3;" d="M 45.65625 182.039062 L 45.46875 179.34375 L 56.160156 175.5625 L 94.460938 205.535156 L 85.117188 212.71875 Z M 45.65625 182.039062 "/>
<path style=" stroke:none;fill-rule:nonzero;fill:rgb(39.99939%,39.99939%,39.99939%);fill-opacity:0.3;" d="M 8.109375 46.914062 L 9.441406 52.210938 L 8.523438 53.375 L 6.992188 53.023438 L 4.75 51.179688 L 1.441406 50.851562 L -0.578125 50.761719 L -1.988281 50.9375 L -3.8125 51.542969 L -5.128906 51.726562 L -2.988281 46.777344 L 0.679688 39.792969 L 2.410156 37.367188 L 3.617188 36.007812 L 4.757812 36.445312 Z M 8.109375 46.914062 "/>
<path style=" stroke:none;fill-rule:nonzero;fill:rgb(39.99939%,39.99939%,39.99939%);fill-opacity:0.3;" d="M -43.695312 177.039062 L 1.371094 209.199219 L 0.828125 211.296875 L -4.890625 218.601562 L -50.105469 184.464844 Z M -43.695312 177.039062 "/>
<path style=" stroke:none;fill-rule:nonzero;fill:rgb(39.99939%,39.99939%,39.99939%);fill-opacity:0.3;" d="M -17.257812 80.320312 L -16.949219 77.699219 L -7.167969 57.308594 L -6.148438 55.949219 L -3.601562 54.105469 L -1.257812 53.621094 L 1.085938 53.71875 L 3.734375 54.007812 L 6.585938 54.6875 L 8.625 55.367188 L 11.273438 57.308594 L 12.996094 59.519531 L 22.085938 83.289062 L -17.460938 96.390625 L -20.519531 87.429688 L -16.484375 86.269531 L -15.226562 86.097656 L -14.617188 86.488281 L -12.988281 86.292969 L 5.859375 80.566406 L 7.695312 79.597656 L 8.917969 78.238281 L 9.730469 76.683594 L 9.9375 75.324219 L 9.433594 73.429688 L 7.378906 66.519531 L 6.546875 64.738281 L 4.78125 62.855469 L 2.492188 61.863281 L -0.0078125 62.390625 L -1.390625 63.832031 L -2.363281 65.710938 L -3.589844 69.757812 L -4.113281 72.164062 L -6.761719 76.628906 L -6.558594 79.449219 L -6.5625 81.195312 L -15.832031 84.109375 L -16.746094 82.75 Z M -17.257812 80.320312 "/>
<path style=" stroke:none;fill-rule:nonzero;fill:rgb(39.99939%,39.99939%,39.99939%);fill-opacity:0.3;" d="M -49.796875 153.996094 L -49.378906 153.023438 L -48.972656 152.457031 L -47.894531 151.785156 L -28.441406 147.613281 L -24.410156 146.761719 L -23.945312 147.300781 L -22.96875 147.804688 L -21.675781 148.226562 L -20.503906 148.410156 L -19.316406 148.472656 L -17.238281 155.042969 L -10.246094 174.34375 L -8.039062 178.050781 L -6.378906 180.601562 L 0.0625 186.605469 L 5.949219 191.871094 L -3.546875 202.804688 L -29.382812 184.875 L -35.347656 180.328125 L -40.449219 176.390625 L -43.464844 173.5 L -45.507812 170.21875 L -49.003906 158.324219 Z M -49.796875 153.996094 "/>
<path style=" stroke:none;fill-rule:nonzero;fill:rgb(39.99939%,39.99939%,39.99939%);fill-opacity:0.3;" d="M 26.617188 185.46875 L 26.90625 184.714844 L 28.050781 183.851562 L 39 179.84375 L 40.1875 180.109375 L 41.480469 180.8125 L 83.351562 214.074219 L 72.972656 222.058594 Z M 26.617188 185.46875 "/>
<path style=" stroke:none;fill-rule:nonzero;fill:rgb(39.99939%,39.99939%,39.99939%);fill-opacity:0.3;" d="M 131.039062 149.675781 L 140.5 166.191406 L 142.597656 169.597656 L 142.550781 170.257812 L 141.699219 172.597656 L 141.648438 172.664062 L 138.886719 174.671875 L 137.738281 175.242188 L 130.980469 167.402344 L 121.765625 155.003906 L 121.519531 153.640625 L 123.605469 138.054688 L 124.199219 137.746094 Z M 131.039062 149.675781 "/>
<path style=" stroke:none;fill-rule:nonzero;fill:rgb(39.99939%,39.99939%,39.99939%);fill-opacity:0.3;" d="M 6.070312 75.257812 L 5.765625 76.328125 L 4.847656 77.394531 L -3.609375 79.917969 L -4.183594 77.730469 L -2.691406 75.699219 L -1.269531 72.703125 L 0.164062 66.230469 L 0.90625 65 L 2.289062 64.824219 L 3.214844 65.308594 Z M 6.070312 75.257812 "/>
<path style=" stroke:none;fill-rule:nonzero;fill:rgb(39.99939%,39.99939%,39.99939%);fill-opacity:0.3;" d="M 131.039062 170.507812 L 135.402344 175.949219 L 135.539062 176.925781 L 134.070312 178.035156 L 131.039062 180.015625 L 108.757812 194.554688 L 106.484375 196.445312 L 97.308594 203.347656 L 60.777344 175.042969 L 58.871094 172.660156 L 57.230469 169.8125 L 27.550781 88.347656 L 14.90625 54.097656 L 15.472656 53.714844 L 23.488281 57.496094 L 43.378906 67.722656 L 62.363281 76.976562 L 71.203125 80.671875 L 75.6875 81.511719 L 80.328125 82.335938 L 84.867188 83.265625 L 88.875 84.195312 L 91.613281 85.632812 L 93.777344 87.125 L 96.089844 89.414062 L 121.550781 133.101562 L 96.09375 141.546875 L 94.394531 137.742188 L 92.574219 138.46875 L 94.804688 143.902344 L 121.128906 135.539062 L 119.101562 153.699219 L 119.171875 155.433594 L 120.09375 156.863281 Z M 131.039062 170.507812 "/>
<path style=" stroke:none;fill-rule:nonzero;fill:rgb(39.99939%,39.99939%,39.99939%);fill-opacity:0.3;" d="M 30.726562 92.019531 L 66.652344 79.769531 L 68.757812 84.589844 L 33.066406 97.03125 Z M 30.726562 92.019531 "/>
<path style=" stroke:none;fill-rule:nonzero;fill:rgb(39.99939%,39.99939%,39.99939%);fill-opacity:0.3;" d="M 33.347656 98.15625 L 69.609375 85.347656 L 71.78125 90.742188 L 35.386719 103.394531 Z M 33.347656 98.15625 "/>
<path style=" stroke:none;fill-rule:nonzero;fill:rgb(39.99939%,39.99939%,39.99939%);fill-opacity:0.3;" d="M 34.929688 104.640625 L 71.554688 91.53125 L 72.902344 94.574219 L 35.960938 107.503906 Z M 34.929688 104.640625 "/>
<path style=" stroke:none;fill-rule:nonzero;fill:rgb(39.99939%,39.99939%,39.99939%);fill-opacity:0.3;" d="M -4.894531 95.21875 L 7.714844 131.894531 L -3.746094 135.535156 L -16.484375 99.058594 Z M -4.894531 95.21875 "/>
<path style=" stroke:none;fill-rule:nonzero;fill:rgb(39.99939%,39.99939%,39.99939%);fill-opacity:0.3;" d="M -1.53125 94.101562 L 8.871094 90.683594 L 21.796875 127.550781 L 11.1875 130.898438 Z M -1.53125 94.101562 "/>
<path style=" stroke:none;fill-rule:nonzero;fill:rgb(39.99939%,39.99939%,39.99939%);fill-opacity:0.3;" d="M 9.179688 136.902344 L 26.1875 181.714844 L 18.035156 184.195312 L 14.675781 184.578125 L 12.949219 182.449219 L -2.851562 140.597656 Z M 9.179688 136.902344 "/>
<path style=" stroke:none;fill-rule:nonzero;fill:rgb(39.99939%,39.99939%,39.99939%);fill-opacity:0.3;" d="M 37.996094 128.046875 L 54.425781 172.203125 L 42.851562 176.382812 L 26.078125 131.710938 Z M 37.996094 128.046875 "/>
<path style=" stroke:none;fill-rule:nonzero;fill:rgb(39.99939%,39.99939%,39.99939%);fill-opacity:0.3;" d="M 23.753906 132.425781 L 40.875 177.34375 L 28.882812 181.050781 L 11.492188 136.191406 Z M 23.753906 132.425781 "/>
<path style=" stroke:none;fill-rule:nonzero;fill:rgb(39.99939%,39.99939%,39.99939%);fill-opacity:0.3;" d="M 21.933594 186.277344 L 22.847656 186.40625 L 23.898438 186.535156 L 25.3125 187.054688 L 26.816406 187.832031 L 71.097656 223.503906 L 61.167969 231.144531 L 10.652344 191.320312 L 10.609375 190.800781 L 11.253906 190.019531 L 12.492188 189.324219 Z M 21.933594 186.277344 "/>
<path style=" stroke:none;fill-rule:nonzero;fill:rgb(39.99939%,39.99939%,39.99939%);fill-opacity:0.3;" d="M 7.351562 193.054688 L 58.433594 233.078125 L 48.324219 241.03125 L 10.496094 213.1875 L 4.183594 208.117188 L 3.988281 208.332031 L -1.949219 203.863281 Z M 7.351562 193.054688 "/>
<path style=" stroke:none;fill-rule:nonzero;fill:rgb(39.99939%,39.99939%,39.99939%);fill-opacity:0.3;" d="M -2.214844 -7.894531 L -1.757812 -8.34375 L -1.273438 -8.597656 L -0.648438 -8.789062 L 39.675781 -9.34375 L 77.6875 56.921875 L 77.539062 57.21875 L 77.082031 57.199219 L 76.460938 57.113281 L 75.984375 57.058594 L -4.742188 16.160156 Z M -2.214844 -7.894531 "/>
<path style=" stroke:none;fill-rule:nonzero;fill:rgb(39.99939%,39.99939%,39.99939%);fill-opacity:0.3;" d="M -22.175781 15.757812 L -0.167969 26.828125 L 0.367188 27.539062 L -5.96875 39.121094 L -7.472656 39.121094 L -28.390625 28.109375 L -28.589844 27.179688 Z M -22.175781 15.757812 "/>
<g clip-path="url(#clip2)" clip-rule="nonzero">
<path style=" stroke:none;fill-rule:nonzero;fill:rgb(39.99939%,39.99939%,39.99939%);fill-opacity:0.3;" d="M 310.589844 372.925781 L 285.824219 398.671875 L 278.269531 389.898438 L 272.71875 380.046875 L 270.210938 374.957031 L 265.695312 365.609375 L 270.171875 361.804688 L 273.632812 365.648438 L 273.957031 365.425781 L 274.277344 365.203125 L 270.171875 360.859375 L 265.242188 364.660156 L 264.171875 362.449219 L 261.796875 356.019531 L 262.214844 347.582031 L 263.816406 335.195312 L 264.800781 330.09375 Z M 310.589844 372.925781 "/>
</g>
<g clip-path="url(#clip3)" clip-rule="nonzero">
<path style=" stroke:none;fill-rule:nonzero;fill:rgb(39.99939%,39.99939%,39.99939%);fill-opacity:0.3;" d="M 350.902344 230.664062 L 363.574219 233.667969 L 363.574219 234.496094 L 350.507812 244.230469 L 349.539062 244.558594 L 348.777344 244.230469 L 348.292969 242.984375 L 348.507812 241.273438 Z M 350.902344 230.664062 "/>
</g>
<path style=" stroke:none;fill-rule:nonzero;fill:rgb(39.99939%,39.99939%,39.99939%);fill-opacity:0.3;" d="M 354.324219 133.363281 L 350.414062 149.070312 L 345.082031 147.785156 L 348.652344 131.964844 Z M 354.324219 133.363281 "/>
<g clip-path="url(#clip4)" clip-rule="nonzero">
<path style=" stroke:none;fill-rule:nonzero;fill:rgb(39.99939%,39.99939%,39.99939%);fill-opacity:0.3;" d="M 351.703125 151.140625 L 364.882812 154.324219 L 358.175781 186.5 L 344.308594 183.558594 Z M 351.703125 151.140625 "/>
</g>
<path style=" stroke:none;fill-rule:nonzero;fill:rgb(39.99939%,39.99939%,39.99939%);fill-opacity:0.3;" d="M 349.945312 150.179688 L 342.523438 183.1875 L 328.980469 180.34375 L 336.523438 146.90625 Z M 349.945312 150.179688 "/>
<path style=" stroke:none;fill-rule:nonzero;fill:rgb(39.99939%,39.99939%,39.99939%);fill-opacity:0.3;" d="M 338.707031 128.003906 L 338.464844 128.1875 L 337.050781 128.585938 L 335.363281 128.882812 L 334.910156 128.765625 Z M 338.707031 128.003906 "/>
<path style=" stroke:none;fill-rule:nonzero;fill:rgb(39.99939%,39.99939%,39.99939%);fill-opacity:0.3;" d="M 313.078125 123.078125 L 310.722656 122.464844 L 310.746094 122.359375 Z M 313.078125 123.078125 "/>
<g clip-path="url(#clip5)" clip-rule="nonzero">
<path style=" stroke:none;fill-rule:nonzero;fill:rgb(39.99939%,39.99939%,39.99939%);fill-opacity:0.3;" d="M 363.089844 175.175781 L 372.195312 177.203125 L 368.421875 194.101562 L 359.800781 191.847656 Z M 363.089844 175.175781 "/>
</g>
<path style=" stroke:none;fill-rule:nonzero;fill:rgb(39.99939%,39.99939%,39.99939%);fill-opacity:0.3;" d="M 306.453125 141.09375 L 334.910156 146.820312 L 332.726562 155.832031 L 328.144531 155.320312 L 327.664062 154.101562 L 321.945312 152.527344 L 319.019531 156.550781 L 320.019531 157.285156 L 322.402344 153.855469 L 326.5625 154.875 L 327.210938 156.152344 L 332.398438 157.054688 L 327.25 179.507812 L 326.410156 180.078125 L 298.925781 175.125 Z M 306.453125 141.09375 "/>
<path style=" stroke:none;fill-rule:nonzero;fill:rgb(39.99939%,39.99939%,39.99939%);fill-opacity:0.3;" d="M 315.796875 179.980469 L 310.710938 194.929688 L 294.566406 195.335938 L 298.652344 176.964844 Z M 315.796875 179.980469 "/>
<path style=" stroke:none;fill-rule:nonzero;fill:rgb(39.99939%,39.99939%,39.99939%);fill-opacity:0.3;" d="M 340.535156 130.167969 L 347.496094 131.882812 L 346.941406 134.042969 L 344.902344 133.609375 L 344.726562 134.203125 L 344.554688 134.773438 L 346.695312 135.222656 L 343.738281 147.460938 L 337.074219 145.839844 Z M 340.535156 130.167969 "/>
<path style=" stroke:none;fill-rule:nonzero;fill:rgb(39.99939%,39.99939%,39.99939%);fill-opacity:0.3;" d="M 310.4375 195.976562 L 302.679688 218.332031 L 289.640625 215.570312 L 294.300781 196.425781 Z M 310.4375 195.976562 "/>
<g clip-path="url(#clip6)" clip-rule="nonzero">
<path style=" stroke:none;fill-rule:nonzero;fill:rgb(39.99939%,39.99939%,39.99939%);fill-opacity:0.3;" d="M 372.945312 200.011719 L 371.199219 213.765625 L 370.671875 219.035156 L 370.320312 221.980469 L 370.484375 224.628906 L 367.804688 232.445312 L 367.566406 233.128906 L 367.085938 233.21875 L 351.1875 228.9375 L 353.910156 216.761719 L 357.371094 217.535156 L 357.476562 217.195312 L 357.609375 216.761719 L 354.199219 215.804688 L 356.453125 205.09375 L 362.617188 206.292969 L 365.378906 203.75 L 368.332031 196.234375 L 374.148438 198.210938 Z M 372.945312 200.011719 "/>
</g>
<g clip-path="url(#clip7)" clip-rule="nonzero">
<path style=" stroke:none;fill-rule:nonzero;fill:rgb(39.99939%,39.99939%,39.99939%);fill-opacity:0.3;" d="M 431.617188 336.308594 L 545.933594 360.046875 L 543.828125 383.421875 L 531.339844 416.550781 L 530.085938 416.054688 L 527.898438 414.855469 L 525.824219 413.574219 L 525.074219 413.058594 L 524.074219 412.34375 L 523.269531 411.875 L 522.238281 411.226562 L 520.574219 410.214844 L 519.117188 409.503906 L 517.789062 408.914062 L 516.769531 408.394531 L 515.316406 407.796875 L 514.101562 407.277344 L 513.074219 406.902344 L 511.511719 406.421875 L 510.21875 405.976562 L 508.492188 405.496094 L 507.320312 405.160156 L 506.261719 404.863281 L 504.128906 404.347656 L 502.089844 404.082031 L 499.464844 403.695312 L 496.511719 403.542969 L 492.585938 403.234375 L 487.910156 402.847656 L 485.125 402.925781 L 480.390625 402.773438 L 476.222656 402.542969 L 473.566406 402.402344 L 471.53125 402.25 L 469.597656 402.152344 L 467.292969 402.074219 L 464.367188 401.949219 L 461.488281 401.976562 L 458.714844 402.183594 L 456.796875 402.398438 L 455.074219 402.554688 L 452.941406 402.867188 L 451.367188 403.105469 L 449.796875 403.578125 L 448.164062 404.042969 L 446.351562 404.589844 L 444.714844 405.214844 L 443.3125 405.683594 L 442.160156 406.230469 L 440.859375 406.773438 L 427.886719 412.234375 L 422.242188 414.492188 L 416.921875 416.902344 L 413.890625 418.222656 L 411.199219 419.621094 L 407.53125 421.015625 L 404.253906 422.261719 L 399.03125 424.660156 L 395.777344 426.0625 L 392.773438 427.34375 L 390.359375 428.335938 L 387.222656 429.601562 L 384.949219 430.816406 L 382.792969 432.085938 L 381.09375 433.285156 L 379.074219 434.742188 L 377.238281 436.386719 L 375.792969 437.765625 L 374.835938 438.75 L 373.644531 440.261719 L 372.535156 441.769531 L 371.660156 443.054688 L 370.546875 445.035156 L 369.683594 446.730469 L 361.621094 459.753906 L 361.0625 460.425781 L 360.496094 461.066406 L 359.871094 461.640625 L 359.441406 461.9375 L 359.011719 462.199219 L 357.84375 462.253906 L 340.839844 446.898438 L 333.046875 439.355469 L 332.273438 439.164062 L 327.636719 434.976562 L 327.289062 434.339844 L 327.453125 433.59375 L 327.933594 432.925781 Z M 431.617188 336.308594 "/>
</g>
<g clip-path="url(#clip8)" clip-rule="nonzero">
<path style=" stroke:none;fill-rule:nonzero;fill:rgb(39.99939%,39.99939%,39.99939%);fill-opacity:0.3;" d="M 383.105469 301.757812 L 406.511719 320.875 L 426.167969 333.515625 L 394.636719 364.792969 L 353.554688 333.8125 L 359.476562 327.371094 L 368.535156 333.816406 L 368.96875 333.308594 L 369.398438 332.804688 L 360.671875 326.367188 Z M 383.105469 301.757812 "/>
</g>
<g clip-path="url(#clip9)" clip-rule="nonzero">
<path style=" stroke:none;fill-rule:nonzero;fill:rgb(39.99939%,39.99939%,39.99939%);fill-opacity:0.3;" d="M 349.410156 336.734375 L 390.675781 366.894531 L 375.898438 380.835938 L 359 364.808594 L 358.480469 365.269531 L 357.964844 365.734375 L 375.054688 381.632812 L 370.300781 386.117188 L 355.96875 373.570312 L 355.601562 373.949219 L 355.230469 374.324219 L 369.417969 386.949219 L 350.859375 404.460938 L 314.9375 372.570312 Z M 349.410156 336.734375 "/>
</g>
<path style=" stroke:none;fill-rule:nonzero;fill:rgb(39.99939%,39.99939%,39.99939%);fill-opacity:0.3;" d="M 286.953125 225.585938 L 305.96875 240.320312 L 323.722656 252.902344 L 318.949219 258.90625 L 313.359375 255.207031 L 313.074219 255.59375 L 312.792969 255.984375 L 318.304688 259.695312 L 317.070312 261.039062 L 317.527344 261.363281 L 317.9375 261.65625 L 319.210938 260.261719 L 321.511719 261.785156 L 321.84375 261.367188 L 322.160156 260.964844 L 319.914062 259.402344 L 324.648438 253.519531 L 327.242188 256.15625 L 327.957031 257.21875 L 327.941406 258.398438 L 317.527344 268.066406 L 317.585938 270.132812 L 317.363281 271.140625 L 316.917969 271.773438 L 315.683594 272.523438 L 307.453125 273.242188 L 307.242188 267.757812 L 306.621094 267.785156 L 306.125 267.804688 L 306.304688 273.371094 L 277.46875 275.304688 L 277.300781 274.832031 L 286.261719 225.835938 Z M 286.953125 225.585938 "/>
<g clip-path="url(#clip10)" clip-rule="nonzero">
<path style=" stroke:none;fill-rule:nonzero;fill:rgb(39.99939%,39.99939%,39.99939%);fill-opacity:0.3;" d="M 267.648438 320.050781 L 325.929688 319.960938 L 331.367188 324.730469 L 334.6875 327.449219 L 346.945312 335.132812 L 312.726562 370.703125 L 306.457031 364.835938 L 317.222656 355.023438 L 316.417969 354.25 L 305.746094 363.96875 L 292.753906 352.007812 L 307.429688 339.914062 L 307.089844 339.59375 L 306.753906 339.273438 L 291.964844 351.273438 L 266.046875 326.792969 Z M 267.648438 320.050781 "/>
</g>
<g clip-path="url(#clip11)" clip-rule="nonzero">
<path style=" stroke:none;fill-rule:nonzero;fill:rgb(39.99939%,39.99939%,39.99939%);fill-opacity:0.3;" d="M 329.472656 260.71875 L 379.992188 300.597656 L 349.480469 332.496094 L 342.0625 327.527344 L 349.046875 320.074219 L 348.328125 319.574219 L 347.613281 319.074219 L 340.664062 326.597656 L 338.039062 324.839844 L 330.339844 318.542969 L 325.84375 313.183594 L 324.75 306.230469 L 323.234375 291.726562 L 336.085938 291.382812 L 335.90625 289.765625 L 323.160156 290.199219 L 319.59375 270.234375 L 319.757812 269.585938 Z M 329.472656 260.71875 "/>
</g>
<g clip-path="url(#clip12)" clip-rule="nonzero">
<path style=" stroke:none;fill-rule:nonzero;fill:rgb(39.99939%,39.99939%,39.99939%);fill-opacity:0.3;" d="M 366.96875 235.523438 L 383.992188 240.03125 L 384.484375 240.460938 L 383.3125 256.234375 L 382.308594 265.007812 L 380.171875 274.09375 L 379.464844 276.207031 L 378.859375 276.960938 L 370.28125 283.121094 L 369.808594 283.035156 L 336.238281 256.855469 L 336.8125 255.210938 L 350.804688 245.691406 Z M 366.96875 235.523438 "/>
</g>
<path style=" stroke:none;fill-rule:nonzero;fill:rgb(39.99939%,39.99939%,39.99939%);fill-opacity:0.3;" d="M 276.34375 277.992188 L 295.632812 276.503906 L 296.328125 286.683594 L 293.152344 286.816406 L 293.1875 287.339844 L 293.21875 287.796875 L 297.453125 287.640625 L 296.617188 276.449219 L 303.867188 276.035156 L 303.890625 281.589844 L 304.476562 281.570312 L 305.058594 281.554688 L 304.953125 275.96875 L 309.628906 275.6875 L 309.886719 279.105469 L 310.339844 279.066406 L 310.796875 279.027344 L 310.546875 275.628906 L 318.933594 275.101562 L 321.1875 291.667969 L 274.421875 297.898438 L 274.527344 298.648438 L 274.644531 299.460938 L 321.542969 293.351562 L 323.109375 309.953125 L 324.789062 314.921875 L 323.894531 316.882812 L 269.320312 316.855469 L 268.609375 316.414062 L 272.945312 295.238281 Z M 276.34375 277.992188 "/>
<path style=" stroke:none;fill-rule:nonzero;fill:rgb(39.99939%,39.99939%,39.99939%);fill-opacity:0.3;" d="M 349.460938 229.792969 L 346.296875 244.371094 L 346.058594 245.058594 L 345.492188 245.589844 L 343.390625 246.820312 L 334.679688 244.355469 L 333.128906 247.851562 L 333.628906 248.058594 L 334.128906 248.269531 L 335.304688 245.492188 L 342.375 247.550781 L 331.199219 254.570312 L 314.757812 241.171875 L 317.378906 230.886719 L 324.550781 232.183594 L 324.628906 231.871094 L 324.730469 231.496094 L 317.585938 230.144531 L 319.164062 223.113281 L 333.65625 226.324219 L 332.636719 229.921875 L 330.398438 229.472656 L 330.296875 229.902344 L 330.1875 230.351562 L 333.300781 230.972656 L 334.59375 226.546875 Z M 349.460938 229.792969 "/>
<path style=" stroke:none;fill-rule:nonzero;fill:rgb(39.99939%,39.99939%,39.99939%);fill-opacity:0.3;" d="M 358.882812 188.664062 L 354.59375 206.75 L 350.929688 205.828125 L 350.8125 206.207031 L 350.703125 206.570312 L 354.433594 207.425781 L 349.5 228.605469 L 333.855469 225.234375 L 335.90625 213.886719 L 336.695312 214.15625 L 336.773438 213.957031 L 336.855469 213.757812 L 334.613281 212.96875 L 334.527344 213.179688 L 334.4375 213.394531 L 335.25 213.664062 L 333.074219 225 L 319.414062 221.980469 L 328.46875 182.175781 Z M 358.882812 188.664062 "/>
<path style=" stroke:none;fill-rule:nonzero;fill:rgb(39.99939%,39.99939%,39.99939%);fill-opacity:0.3;" d="M 326.855469 182.09375 L 318.207031 221.710938 L 303.75 218.554688 L 317.113281 180.261719 Z M 326.855469 182.09375 "/>
<path style=" stroke:none;fill-rule:nonzero;fill:rgb(39.99939%,39.99939%,39.99939%);fill-opacity:0.3;" d="M 310.371094 124.054688 L 310.777344 123.933594 L 334.964844 130.1875 L 336.394531 130.117188 L 338.023438 129.847656 L 338.652344 129.773438 L 339.035156 130.148438 L 335.886719 143.773438 L 335.625 144.636719 L 335.082031 144.800781 L 307.171875 139.371094 L 306.667969 139.050781 L 306.628906 138.453125 L 310.007812 124.476562 Z M 310.371094 124.054688 "/>
<g clip-path="url(#clip13)" clip-rule="nonzero">
<path style=" stroke:none;fill-rule:nonzero;fill:rgb(39.99939%,39.99939%,39.99939%);fill-opacity:0.3;" d="M 359.238281 193.289062 L 367.433594 195.921875 L 364.28125 203.511719 L 362.324219 205.238281 L 356.652344 204.097656 Z M 359.238281 193.289062 "/>
</g>
<path style=" stroke:none;fill-rule:nonzero;fill:rgb(39.99939%,39.99939%,39.99939%);fill-opacity:0.3;" d="M 288.695312 220.382812 L 289.054688 217.726562 L 289.339844 216.699219 L 317.9375 222.839844 L 313.488281 240.300781 L 292.566406 224.019531 Z M 288.695312 220.382812 "/>
<g clip-path="url(#clip14)" clip-rule="nonzero">
<path style=" stroke:none;fill-rule:nonzero;fill:rgb(39.99939%,39.99939%,39.99939%);fill-opacity:0.3;" d="M 355.863281 133.804688 L 358.8125 134.460938 L 363.007812 134.9375 L 368.472656 134.945312 L 369.082031 135.089844 L 365.257812 152.613281 L 351.972656 149.441406 Z M 355.863281 133.804688 "/>
</g>
<path style=" stroke:none;fill-rule:nonzero;fill:rgb(39.99939%,39.99939%,39.99939%);fill-opacity:0.3;" d="M 131.039062 184.40625 L 139.4375 178.796875 L 141.132812 178.148438 L 158.253906 185.652344 L 170.058594 191.527344 L 275.726562 223.839844 L 258.125 308.570312 L 131.039062 268.398438 L 78.425781 251.765625 L 74.195312 239.824219 L 71.160156 228.886719 L 110.863281 197.886719 Z M 131.039062 184.40625 "/>
<path style=" stroke:none;fill-rule:nonzero;fill:rgb(39.99939%,39.99939%,39.99939%);fill-opacity:0.3;" d="M 76.453125 252.132812 L 51.546875 244.183594 L 51.429688 243.53125 L 68.671875 230.683594 L 68.960938 231.332031 L 71.886719 240.695312 L 75.714844 250.601562 Z M 76.453125 252.132812 "/>
<path style=" stroke:none;fill-rule:nonzero;fill:rgb(39.99939%,39.99939%,39.99939%);fill-opacity:0.3;" d="M 308.539062 121.648438 L 308.5 121.808594 L 305.285156 120.519531 Z M 308.539062 121.648438 "/>
<path style=" stroke:none;fill-rule:nonzero;fill:rgb(39.99939%,39.99939%,39.99939%);fill-opacity:0.3;" d="M 308.570312 123.964844 L 304.851562 138.847656 L 282.300781 133.554688 L 282.136719 133.195312 L 284.304688 121.472656 L 290.597656 123.738281 L 290.871094 122.816406 L 284.480469 120.507812 L 285.496094 115.003906 L 285.882812 114.820312 L 291.496094 117.152344 L 308.09375 123.621094 Z M 308.570312 123.964844 "/>
<path style=" stroke:none;fill-rule:nonzero;fill:rgb(39.99939%,39.99939%,39.99939%);fill-opacity:0.3;" d="M 249.4375 141.867188 L 243.777344 167.691406 L 241.214844 167.28125 L 238.152344 163.417969 L 239.75 156.292969 L 239.402344 156.214844 L 238.636719 156.042969 L 237.023438 163.210938 L 231.589844 162.210938 L 237.183594 139.15625 Z M 249.4375 141.867188 "/>
<path style=" stroke:none;fill-rule:nonzero;fill:rgb(39.99939%,39.99939%,39.99939%);fill-opacity:0.3;" d="M 300.828125 156.199219 L 296.980469 173.917969 L 273.816406 169.859375 L 277.867188 150.273438 Z M 300.828125 156.199219 "/>
<path style=" stroke:none;fill-rule:nonzero;fill:rgb(39.99939%,39.99939%,39.99939%);fill-opacity:0.3;" d="M 142.550781 170.257812 L 142.449219 171.585938 L 141.699219 172.597656 Z M 142.550781 170.257812 "/>
<path style=" stroke:none;fill-rule:nonzero;fill:rgb(39.99939%,39.99939%,39.99939%);fill-opacity:0.3;" d="M 141.648438 172.664062 L 141.273438 173.171875 L 140.320312 173.964844 L 138.886719 174.671875 Z M 141.648438 172.664062 "/>
<path style=" stroke:none;fill-rule:nonzero;fill:rgb(39.99939%,39.99939%,39.99939%);fill-opacity:0.3;" d="M 304.453125 141.296875 L 301.15625 154.316406 L 300.945312 154.574219 L 278.320312 148.585938 L 278.144531 148.253906 L 281.277344 136.089844 L 281.808594 135.777344 L 304.230469 140.746094 Z M 304.453125 141.296875 "/>
<path style=" stroke:none;fill-rule:nonzero;fill:rgb(39.99939%,39.99939%,39.99939%);fill-opacity:0.3;" d="M 247.882812 167.746094 L 270.945312 172.367188 L 268.878906 184.378906 L 268.304688 193.523438 L 269.738281 202.457031 L 255.539062 207.601562 L 251.875 208.660156 L 249.03125 208.773438 L 233.066406 204.078125 L 232.914062 203.03125 L 246.796875 168.949219 Z M 247.882812 167.746094 "/>
<path style=" stroke:none;fill-rule:nonzero;fill:rgb(39.99939%,39.99939%,39.99939%);fill-opacity:0.3;" d="M 278.609375 135.558594 L 276.75 144.398438 L 263.398438 142.421875 L 261.730469 146.625 L 262.375 146.742188 L 263.070312 146.863281 L 264.382812 143.777344 L 276.515625 145.515625 L 271.464844 169.503906 L 248.398438 165.308594 L 246.875 164.675781 L 246.457031 162.660156 L 254.019531 129.773438 Z M 278.609375 135.558594 "/>
<path style=" stroke:none;fill-rule:nonzero;fill:rgb(39.99939%,39.99939%,39.99939%);fill-opacity:0.3;" d="M 223.988281 133.597656 L 226.941406 126.230469 L 227.496094 125.363281 L 228.527344 124.8125 L 229.199219 124.800781 L 252.601562 129.636719 L 250.089844 139.3125 Z M 223.988281 133.597656 "/>
<path style=" stroke:none;fill-rule:nonzero;fill:rgb(39.99939%,39.99939%,39.99939%);fill-opacity:0.3;" d="M 270.4375 205.203125 L 274.339844 216.105469 L 273.871094 216.5625 L 255.960938 211.050781 L 256.078125 210.5625 Z M 270.4375 205.203125 "/>
<path style=" stroke:none;fill-rule:nonzero;fill:rgb(39.99939%,39.99939%,39.99939%);fill-opacity:0.3;" d="M 296.230469 176.882812 L 291.953125 196.574219 L 271.753906 201.441406 L 270.429688 193.78125 L 270.75 185.285156 L 271.683594 179.128906 L 272.792969 173.613281 L 273.074219 172.90625 Z M 296.230469 176.882812 "/>
<path style=" stroke:none;fill-rule:nonzero;fill:rgb(39.99939%,39.99939%,39.99939%);fill-opacity:0.3;" d="M 291.710938 198.941406 L 285.96875 220.179688 L 278.742188 217.933594 L 277.800781 217.132812 L 276.996094 215.679688 L 272.78125 203.753906 Z M 291.710938 198.941406 "/>
<path style=" stroke:none;fill-rule:nonzero;fill:rgb(39.99939%,39.99939%,39.99939%);fill-opacity:0.3;" d="M 235.730469 138.832031 L 230.101562 161.921875 L 212.988281 158.597656 L 223.066406 136.035156 Z M 235.730469 138.832031 "/>
<path style=" stroke:none;fill-rule:nonzero;fill:rgb(39.99939%,39.99939%,39.99939%);fill-opacity:0.3;" d="M 230.09375 164.855469 L 228 174.300781 L 228.648438 174.402344 L 229.292969 174.503906 L 231.410156 165.109375 L 238.378906 166.394531 L 240.46875 168.582031 L 244.0625 169.003906 L 230.203125 203.203125 L 198.445312 193.367188 L 211.957031 161.320312 Z M 230.09375 164.855469 "/>
<path style=" stroke:none;fill-rule:nonzero;fill:rgb(39.99939%,39.99939%,39.99939%);fill-opacity:0.3;" d="M 135.539062 176.925781 L 135.5625 177.0625 L 134.070312 178.035156 Z M 135.539062 176.925781 "/>
<path style=" stroke:none;fill-rule:nonzero;fill:rgb(39.99939%,39.99939%,39.99939%);fill-opacity:0.3;" d="M 53.125 272.027344 L 54.542969 268.652344 L 56.9375 269.554688 L 55.519531 272.929688 Z M 53.125 272.027344 "/>
<path style=" stroke:none;fill-rule:nonzero;fill:rgb(39.99939%,39.99939%,39.99939%);fill-opacity:0.3;" d="M 62.917969 274.535156 L 64.039062 274.917969 L 64.113281 274.722656 L 65.894531 275.324219 L 65.820312 275.519531 L 66.945312 275.902344 L 66.171875 277.949219 L 65.046875 277.566406 L 64.964844 277.789062 L 63.183594 277.1875 L 63.269531 276.964844 L 62.144531 276.582031 Z M 62.917969 274.535156 "/>
<path style=" stroke:none;fill-rule:nonzero;fill:rgb(39.99939%,39.99939%,39.99939%);fill-opacity:0.3;" d="M 38.308594 259.335938 L 38.566406 260.441406 L 38.78125 260.394531 L 39.1875 262.144531 L 38.972656 262.191406 L 39.230469 263.296875 L 36.996094 263.765625 L 36.738281 262.660156 L 36.496094 262.710938 L 36.085938 260.960938 L 36.332031 260.910156 L 36.074219 259.804688 Z M 38.308594 259.335938 "/>
<path style=" stroke:none;fill-rule:nonzero;fill:rgb(39.99939%,39.99939%,39.99939%);fill-opacity:0.3;" d="M 41.578125 263.527344 L 41.835938 264.636719 L 42.050781 264.589844 L 42.457031 266.339844 L 42.242188 266.382812 L 42.5 267.488281 L 40.265625 267.960938 L 40.007812 266.855469 L 39.761719 266.90625 L 39.355469 265.15625 L 39.597656 265.105469 L 39.339844 264 Z M 41.578125 263.527344 "/>
<path style=" stroke:none;fill-rule:nonzero;fill:rgb(39.99939%,39.99939%,39.99939%);fill-opacity:0.3;" d="M 40.558594 278.136719 L 41.726562 278.382812 L 41.773438 278.179688 L 43.617188 278.570312 L 43.570312 278.773438 L 44.734375 279.015625 L 44.238281 281.136719 L 43.074219 280.890625 L 43.019531 281.125 L 41.175781 280.734375 L 41.226562 280.503906 L 40.0625 280.257812 Z M 40.558594 278.136719 "/>
<g clip-path="url(#clip15)" clip-rule="nonzero">
<path style=" stroke:none;fill-rule:nonzero;fill:rgb(39.99939%,39.99939%,39.99939%);fill-opacity:0.3;" d="M 236.3125 421.046875 L 225.277344 463.886719 L 216.832031 487.523438 L 216.308594 488.066406 L 67.996094 450.640625 L 87.5625 431.328125 L 95.25 422.179688 L 100.828125 416.644531 L 141.238281 373.332031 L 142.816406 371.820312 L 159.308594 346.421875 L 159.722656 345.875 L 160.074219 345.636719 L 160.519531 345.605469 L 161.089844 345.726562 L 161.792969 345.875 L 162.683594 346.117188 L 175.324219 350.085938 L 249.628906 373.285156 Z M 236.3125 421.046875 "/>
</g>
<g clip-path="url(#clip16)" clip-rule="nonzero">
<path style=" stroke:none;fill-rule:nonzero;fill:rgb(39.99939%,39.99939%,39.99939%);fill-opacity:0.3;" d="M 260.664062 313.65625 L 252.351562 352.226562 L 252.761719 353.871094 L 252.3125 356.90625 L 251.65625 358.507812 L 248.359375 367.71875 L 247.65625 368.671875 L 246.65625 368.957031 L 244.648438 368.769531 L 172.730469 346.429688 L 172.683594 346.011719 L 177.140625 334.929688 L 176.523438 334.746094 L 175.902344 334.558594 L 171.203125 345.851562 L 161.453125 342.59375 L 193.273438 291.765625 Z M 260.664062 313.65625 "/>
</g>
<path style=" stroke:none;fill-rule:nonzero;fill:rgb(39.99939%,39.99939%,39.99939%);fill-opacity:0.3;" d="M 26.25 266.453125 L 27.429688 264.070312 L 29.4375 264.96875 L 28.253906 267.347656 Z M 26.25 266.453125 "/>
<path style=" stroke:none;fill-rule:nonzero;fill:rgb(39.99939%,39.99939%,39.99939%);fill-opacity:0.3;" d="M 36.960938 274.589844 L 38.125 274.835938 L 38.175781 274.632812 L 40.019531 275.023438 L 39.972656 275.226562 L 41.136719 275.472656 L 40.640625 277.589844 L 39.472656 277.347656 L 39.417969 277.578125 L 37.574219 277.1875 L 37.628906 276.957031 L 36.464844 276.710938 Z M 36.960938 274.589844 "/>
<path style=" stroke:none;fill-rule:nonzero;fill:rgb(39.99939%,39.99939%,39.99939%);fill-opacity:0.3;" d="M 53.203125 274.066406 L 53.460938 275.171875 L 53.671875 275.125 L 54.082031 276.875 L 53.867188 276.921875 L 54.125 278.027344 L 51.890625 278.496094 L 51.632812 277.390625 L 51.386719 277.441406 L 50.980469 275.691406 L 51.222656 275.640625 L 50.964844 274.535156 Z M 53.203125 274.066406 "/>
<path style=" stroke:none;fill-rule:nonzero;fill:rgb(39.99939%,39.99939%,39.99939%);fill-opacity:0.3;" d="M 71.808594 270.230469 L 72.929688 270.609375 L 73.003906 270.414062 L 74.785156 271.015625 L 74.710938 271.214844 L 75.835938 271.59375 L 75.0625 273.640625 L 73.9375 273.257812 L 73.855469 273.480469 L 72.074219 272.878906 L 72.160156 272.65625 L 71.035156 272.273438 Z M 71.808594 270.230469 "/>
<path style=" stroke:none;fill-rule:nonzero;fill:rgb(39.99939%,39.99939%,39.99939%);fill-opacity:0.3;" d="M 57.40625 276.722656 L 58.53125 277.105469 L 58.605469 276.910156 L 60.386719 277.511719 L 60.3125 277.707031 L 61.4375 278.089844 L 60.664062 280.132812 L 59.539062 279.753906 L 59.457031 279.976562 L 57.675781 279.371094 L 57.761719 279.148438 L 56.636719 278.769531 Z M 57.40625 276.722656 "/>
<path style=" stroke:none;fill-rule:nonzero;fill:rgb(39.99939%,39.99939%,39.99939%);fill-opacity:0.3;" d="M 78.785156 265.976562 L 78.238281 266.984375 L 78.433594 267.082031 L 77.574219 268.675781 L 77.378906 268.582031 L 76.832031 269.589844 L 74.796875 268.597656 L 75.339844 267.589844 L 75.117188 267.484375 L 75.980469 265.886719 L 76.203125 265.996094 L 76.746094 264.988281 Z M 78.785156 265.976562 "/>
<g clip-path="url(#clip17)" clip-rule="nonzero">
<path style=" stroke:none;fill-rule:nonzero;fill:rgb(39.99939%,39.99939%,39.99939%);fill-opacity:0.3;" d="M 27.8125 364 L 30.714844 363.160156 L 50.3125 359.699219 L 49.84375 358.699219 L 30.304688 362.164062 L 27.027344 363.109375 L 25.855469 363.613281 L 23.09375 352.144531 L 20.210938 338.4375 L 19.347656 333.082031 L 39.140625 331.324219 L 34.996094 313.25 L 28.265625 310.398438 L 15.96875 314.5 L 9.867188 292.253906 L 7.882812 286.859375 L 5.882812 282.40625 L 3.933594 279.066406 L 3.917969 277.246094 L 12.511719 270.535156 L 25.367188 261.585938 L 47.902344 244.882812 L 131.039062 271.203125 L 190.328125 289.980469 L 190.648438 290.941406 L 190.757812 292.0625 L 145.453125 364 L 142.757812 368.273438 L 140.007812 368.894531 L 141.941406 366.589844 L 139.351562 367.886719 L 44.578125 387.046875 L 33.269531 391.320312 L 30.15625 378.132812 L 36.746094 376.445312 L 41.40625 376.09375 L 45.0625 375.394531 L 49.90625 374.175781 L 57.039062 372.65625 L 61.105469 371.636719 L 75.027344 368.746094 L 74.871094 368.257812 L 74.714844 367.765625 L 60.527344 370.625 L 56.761719 371.566406 L 48.167969 373.484375 L 42.777344 374.792969 L 38.9375 375.230469 L 34.277344 375.929688 L 29.84375 376.945312 L 26.535156 364.726562 L 27.4375 364.109375 Z M 27.8125 364 "/>
</g>
<path style=" stroke:none;fill-rule:nonzero;fill:rgb(39.99939%,39.99939%,39.99939%);fill-opacity:0.3;" d="M 44.1875 281.554688 L 45.351562 281.800781 L 45.398438 281.597656 L 47.246094 281.988281 L 47.195312 282.1875 L 48.363281 282.433594 L 47.863281 284.554688 L 46.699219 284.308594 L 46.644531 284.542969 L 44.800781 284.152344 L 44.855469 283.921875 L 43.6875 283.675781 Z M 44.1875 281.554688 "/>
<path style=" stroke:none;fill-rule:nonzero;fill:rgb(39.99939%,39.99939%,39.99939%);fill-opacity:0.3;" d="M 49.609375 282.4375 L 50.503906 281.691406 L 50.359375 281.535156 L 51.78125 280.351562 L 51.925781 280.507812 L 52.824219 279.761719 L 54.335938 281.394531 L 53.4375 282.140625 L 53.601562 282.316406 L 52.179688 283.5 L 52.015625 283.324219 L 51.117188 284.070312 Z M 49.609375 282.4375 "/>
<path style=" stroke:none;fill-rule:nonzero;fill:rgb(39.99939%,39.99939%,39.99939%);fill-opacity:0.3;" d="M 32.554688 270.882812 L 33.722656 271.128906 L 33.769531 270.925781 L 35.613281 271.3125 L 35.566406 271.515625 L 36.730469 271.761719 L 36.234375 273.882812 L 35.066406 273.636719 L 35.011719 273.867188 L 33.167969 273.476562 L 33.222656 273.246094 L 32.058594 273.003906 Z M 32.554688 270.882812 "/>
<path style=" stroke:none;fill-rule:nonzero;fill:rgb(39.99939%,39.99939%,39.99939%);fill-opacity:0.3;" d="M 29 267.375 L 30.164062 267.621094 L 30.210938 267.417969 L 32.054688 267.808594 L 32.007812 268.007812 L 33.175781 268.253906 L 32.675781 270.375 L 31.511719 270.128906 L 31.457031 270.359375 L 29.613281 269.972656 L 29.667969 269.742188 L 28.5 269.496094 Z M 29 267.375 "/>
<path style=" stroke:none;fill-rule:nonzero;fill:rgb(39.99939%,39.99939%,39.99939%);fill-opacity:0.3;" d="M 49.347656 270.589844 L 49.605469 271.695312 L 49.820312 271.652344 L 50.226562 273.402344 L 50.015625 273.445312 L 50.273438 274.550781 L 48.035156 275.023438 L 47.777344 273.914062 L 47.535156 273.96875 L 47.125 272.21875 L 47.371094 272.164062 L 47.113281 271.058594 Z M 49.347656 270.589844 "/>
<path style=" stroke:none;fill-rule:nonzero;fill:rgb(39.99939%,39.99939%,39.99939%);fill-opacity:0.3;" d="M 45.582031 266.964844 L 45.839844 268.070312 L 46.054688 268.023438 L 46.460938 269.773438 L 46.25 269.820312 L 46.507812 270.925781 L 44.269531 271.394531 L 44.011719 270.289062 L 43.769531 270.339844 L 43.359375 268.589844 L 43.605469 268.539062 L 43.347656 267.433594 Z M 45.582031 266.964844 "/>
<path style=" stroke:none;fill-rule:nonzero;fill:rgb(39.99939%,39.99939%,39.99939%);fill-opacity:0.3;" d="M 67.347656 272.574219 L 68.472656 272.957031 L 68.546875 272.757812 L 70.328125 273.363281 L 70.253906 273.558594 L 71.378906 273.941406 L 70.605469 275.984375 L 69.480469 275.605469 L 69.398438 275.828125 L 67.617188 275.222656 L 67.703125 275 L 66.578125 274.621094 Z M 67.347656 272.574219 "/>
<path style=" stroke:none;fill-rule:nonzero;fill:rgb(39.99939%,39.99939%,39.99939%);fill-opacity:0.3;" d="M 80.867188 261.992188 L 80.324219 263 L 80.515625 263.097656 L 79.65625 264.691406 L 79.460938 264.597656 L 78.914062 265.605469 L 76.878906 264.613281 L 77.421875 263.605469 L 77.199219 263.5 L 78.0625 261.902344 L 78.285156 262.011719 L 78.828125 261.003906 Z M 80.867188 261.992188 "/>
<path style=" stroke:none;fill-rule:nonzero;fill:rgb(39.99939%,39.99939%,39.99939%);fill-opacity:0.3;" d="M 82.882812 257.824219 L 82.339844 258.832031 L 82.535156 258.925781 L 81.671875 260.519531 L 81.476562 260.425781 L 80.933594 261.433594 L 78.894531 260.445312 L 79.4375 259.4375 L 79.21875 259.328125 L 80.078125 257.734375 L 80.300781 257.839844 L 80.847656 256.832031 Z M 82.882812 257.824219 "/>
<path style=" stroke:none;fill-rule:nonzero;fill:rgb(39.99939%,39.99939%,39.99939%);fill-opacity:0.3;" d="M 155.660156 165.871094 L 155.953125 164.460938 L 161.066406 165.5 L 160.769531 166.910156 Z M 155.660156 165.871094 "/>
<path style=" stroke:none;fill-rule:nonzero;fill:rgb(39.99939%,39.99939%,39.99939%);fill-opacity:0.3;" d="M 131.039062 31.429688 L 132.902344 31.839844 L 132.304688 41.296875 L 132.070312 46.328125 L 131.039062 46.246094 L 125.976562 45.851562 L 124.507812 46.605469 L 122.210938 48.554688 L 121.804688 48.832031 L 121.023438 48.894531 L 108.546875 49.558594 L 105.4375 49.082031 L 102.972656 47.96875 L 103.445312 45.855469 L 106.863281 28.050781 L 114.65625 28.847656 L 112.773438 36.847656 L 113.40625 37.042969 L 114.0625 37.242188 L 116.121094 28.902344 L 120.640625 29.355469 L 126.683594 30.480469 Z M 131.039062 31.429688 "/>
<path style=" stroke:none;fill-rule:nonzero;fill:rgb(39.99939%,39.99939%,39.99939%);fill-opacity:0.3;" d="M 161.148438 8.460938 L 173.742188 10.859375 L 167.4375 32.066406 L 164.4375 31.859375 L 160.601562 31.476562 L 155.839844 31.226562 L 159.085938 19.871094 Z M 161.148438 8.460938 "/>
<path style=" stroke:none;fill-rule:nonzero;fill:rgb(39.99939%,39.99939%,39.99939%);fill-opacity:0.3;" d="M 170.039062 124.222656 L 164.660156 150.355469 L 144.90625 147.019531 L 150.609375 120.230469 Z M 170.039062 124.222656 "/>
<path style=" stroke:none;fill-rule:nonzero;fill:rgb(39.99939%,39.99939%,39.99939%);fill-opacity:0.3;" d="M 172.414062 184.757812 L 171.835938 184.882812 L 164.230469 181.746094 L 160.085938 179.082031 L 148.519531 167.910156 L 144.539062 162.707031 L 141.667969 156.65625 L 138.292969 150.914062 L 137.375 149.257812 L 137.917969 148.6875 L 164.332031 153.191406 L 162.773438 164.5 L 163.535156 164.628906 L 164.300781 164.753906 L 166.007812 153.476562 L 183.273438 156.402344 Z M 172.414062 184.757812 "/>
<path style=" stroke:none;fill-rule:nonzero;fill:rgb(39.99939%,39.99939%,39.99939%);fill-opacity:0.3;" d="M 163.804688 76.5625 L 184.222656 79.804688 L 184.097656 82.859375 L 184.566406 82.878906 L 185.308594 82.910156 L 185.472656 80.050781 L 195.558594 81.820312 L 195.195312 89.886719 L 190.496094 89.832031 L 190.496094 90.703125 L 195.203125 90.949219 L 195.265625 92.433594 L 194.144531 110.386719 L 193.605469 111.265625 L 172.191406 104.148438 L 173.261719 99.191406 L 175.648438 99.1875 L 175.699219 98.847656 L 175.75 98.46875 L 168.105469 98.472656 L 168.183594 98.769531 L 168.257812 99.054688 L 172.417969 99.121094 L 171.34375 104.152344 L 165.109375 101.582031 L 165.828125 98.652344 L 165.515625 98.605469 L 165.214844 98.558594 L 164.496094 101.328125 L 160.410156 99.417969 L 161.34375 96.542969 L 161.085938 96.464844 L 160.851562 96.390625 L 159.902344 99.261719 L 157.867188 98.425781 L 155.367188 97.261719 L 155.367188 96.464844 L 157.023438 96.460938 L 158.34375 93.871094 L 161.082031 93.664062 Z M 163.804688 76.5625 "/>
<path style=" stroke:none;fill-rule:nonzero;fill:rgb(39.99939%,39.99939%,39.99939%);fill-opacity:0.3;" d="M 184.445312 36.808594 L 182.382812 51.050781 L 181.882812 51.8125 L 180.960938 51.871094 L 150.902344 49.117188 L 152.125 41.921875 L 153.070312 39.679688 L 155.328125 33.355469 L 163.3125 34.125 L 161.335938 42.425781 L 161.945312 42.5 L 162.554688 42.570312 L 164.496094 34.246094 L 182.1875 36.386719 Z M 184.445312 36.808594 "/>
<path style=" stroke:none;fill-rule:nonzero;fill:rgb(39.99939%,39.99939%,39.99939%);fill-opacity:0.3;" d="M 131.039062 92.964844 L 151.066406 103.035156 L 147.945312 117.296875 L 131.039062 114.007812 L 127.296875 113.277344 L 129.105469 91.992188 Z M 131.039062 92.964844 "/>
<path style=" stroke:none;fill-rule:nonzero;fill:rgb(39.99939%,39.99939%,39.99939%);fill-opacity:0.3;" d="M 96.878906 75.878906 L 97.058594 75.394531 L 97.539062 75.394531 L 125.953125 90.96875 L 123.871094 118.195312 L 123.472656 120.167969 L 122.746094 120.5 Z M 96.878906 75.878906 "/>
<path style=" stroke:none;fill-rule:nonzero;fill:rgb(39.99939%,39.99939%,39.99939%);fill-opacity:0.3;" d="M 131.039062 116.4375 L 147.457031 119.628906 L 141.761719 146.457031 L 138.210938 145.878906 L 136.335938 145.148438 L 134.734375 143.707031 L 131.039062 136.289062 L 126.070312 126.328125 L 127.21875 115.691406 Z M 131.039062 116.4375 "/>
<path style=" stroke:none;fill-rule:nonzero;fill:rgb(39.99939%,39.99939%,39.99939%);fill-opacity:0.3;" d="M 193.609375 129.328125 L 220.667969 135.503906 L 210.492188 158.113281 L 187.460938 154.210938 L 191.824219 139.328125 L 199.171875 140.492188 L 199.867188 137.085938 L 199.34375 137.003906 L 198.695312 136.894531 L 198.265625 139.195312 L 192.183594 138.171875 Z M 193.609375 129.328125 "/>
<path style=" stroke:none;fill-rule:nonzero;fill:rgb(39.99939%,39.99939%,39.99939%);fill-opacity:0.3;" d="M 130.117188 4.652344 L 129.449219 6.871094 L 123.183594 5.394531 L 121.828125 9.546875 L 112.15625 7.140625 L 113.601562 1.855469 L 120.824219 3.441406 L 121.179688 2.519531 Z M 130.117188 4.652344 "/>
<path style=" stroke:none;fill-rule:nonzero;fill:rgb(39.99939%,39.99939%,39.99939%);fill-opacity:0.3;" d="M 131.039062 -2.480469 L 132.066406 -2.269531 L 131.039062 1.351562 L 130.332031 3.832031 L 121.6875 1.746094 L 122.707031 -2.417969 L 115.382812 -4.019531 L 115.640625 -5.601562 Z M 131.039062 -2.480469 "/>
<path style=" stroke:none;fill-rule:nonzero;fill:rgb(39.99939%,39.99939%,39.99939%);fill-opacity:0.3;" d="M 121.585938 -1.789062 L 120.3125 2.472656 L 113.84375 0.972656 L 114.980469 -3.1875 Z M 121.585938 -1.789062 "/>
<path style=" stroke:none;fill-rule:nonzero;fill:rgb(39.99939%,39.99939%,39.99939%);fill-opacity:0.3;" d="M 119.324219 15.246094 L 119.898438 16.015625 L 120.070312 17.222656 L 118.167969 23.53125 L 115.632812 27.921875 L 107.046875 27.089844 L 107.488281 24.792969 L 109.296875 17.648438 L 110.664062 12.621094 Z M 119.324219 15.246094 "/>
<path style=" stroke:none;fill-rule:nonzero;fill:rgb(39.99939%,39.99939%,39.99939%);fill-opacity:0.3;" d="M 181.742188 53.292969 L 179.507812 67.195312 L 179.917969 68.292969 L 180.523438 68.707031 L 179.371094 77.261719 L 171.664062 75.953125 L 172.195312 72.425781 L 171.578125 72.359375 L 170.960938 72.289062 L 170.4375 75.816406 L 165.355469 75.105469 L 167.300781 64.160156 L 165.792969 63.996094 L 163.769531 73.585938 L 162.65625 74.75 L 132.886719 69.058594 L 131.851562 68.113281 L 132.566406 60.261719 L 137.707031 61.039062 L 137.753906 60.402344 L 137.796875 59.765625 L 132.894531 59.015625 L 133.289062 54.804688 L 134.140625 45.960938 L 151.078125 40.863281 L 151.066406 41.21875 L 149.742188 49.378906 L 145.753906 48.855469 L 144.550781 56.054688 L 145.070312 56.136719 L 145.613281 56.21875 L 146.773438 49.949219 L 149.472656 50.292969 L 148.839844 54.164062 L 149.230469 54.230469 L 149.683594 54.28125 L 150.355469 50.296875 Z M 181.742188 53.292969 "/>
<path style=" stroke:none;fill-rule:nonzero;fill:rgb(39.99939%,39.99939%,39.99939%);fill-opacity:0.3;" d="M 202.089844 18.792969 L 200.949219 30.085938 L 199.066406 45.390625 L 197.996094 53.113281 L 197.578125 53.402344 L 188.066406 52.402344 L 184.898438 51.710938 L 184.003906 51.378906 L 183.335938 50.726562 L 185.25 36.886719 L 190.167969 37.425781 L 190.007812 37.097656 L 189.847656 36.765625 L 185.335938 36.269531 L 182.15625 35.792969 L 181.253906 35.511719 L 180.921875 35.019531 L 181.21875 34.402344 L 181.769531 33.875 L 182.179688 33.464844 L 186.636719 31.332031 L 191.085938 28.652344 L 193.066406 26.933594 L 196.007812 23.824219 L 200.617188 18.511719 L 201.578125 18.328125 Z M 202.089844 18.792969 "/>
<path style=" stroke:none;fill-rule:nonzero;fill:rgb(39.99939%,39.99939%,39.99939%);fill-opacity:0.3;" d="M 143.859375 33.609375 L 145.066406 29.710938 L 154.4375 31.933594 L 152.511719 37.839844 L 134.855469 43.472656 L 133.992188 43.378906 L 134.738281 32.09375 Z M 143.859375 33.609375 "/>
<path style=" stroke:none;fill-rule:nonzero;fill:rgb(39.99939%,39.99939%,39.99939%);fill-opacity:0.3;" d="M 131.039062 72.425781 L 131.316406 70.761719 L 162.882812 76.304688 L 160.328125 92.757812 L 157.683594 93.148438 L 156.359375 95.632812 L 154.085938 95.832031 L 131.039062 85.402344 L 129.007812 84.484375 Z M 131.039062 72.425781 "/>
<path style=" stroke:none;fill-rule:nonzero;fill:rgb(39.99939%,39.99939%,39.99939%);fill-opacity:0.3;" d="M 117.023438 73.234375 L 115.039062 76.785156 L 110.972656 74.71875 L 112.957031 71.171875 Z M 117.023438 73.234375 "/>
<path style=" stroke:none;fill-rule:nonzero;fill:rgb(39.99939%,39.99939%,39.99939%);fill-opacity:0.3;" d="M 131.039062 47.644531 L 131.871094 47.695312 L 131.039062 53.195312 L 130.023438 59.890625 L 128.628906 70.273438 L 127.335938 76.382812 L 122.179688 76.164062 L 122.128906 77 L 122.074219 77.828125 L 127.234375 78.050781 L 126.929688 80.742188 L 126.050781 82.734375 L 96.9375 67.734375 L 102.34375 49.5625 L 105.304688 50.335938 L 108.546875 51.113281 L 109.910156 50.988281 L 108.179688 58.144531 L 109.085938 58.332031 L 109.882812 58.496094 L 111.664062 50.929688 L 121.632812 50.105469 L 122.296875 50 L 123.007812 49.699219 L 125.367188 47.53125 L 125.910156 47.308594 Z M 131.039062 47.644531 "/>
<path style=" stroke:none;fill-rule:nonzero;fill:rgb(39.99939%,39.99939%,39.99939%);fill-opacity:0.3;" d="M 153.128906 162.9375 L 153.476562 161.453125 L 158.550781 162.539062 L 158.238281 163.96875 Z M 153.128906 162.9375 "/>
<path style=" stroke:none;fill-rule:nonzero;fill:rgb(39.99939%,39.99939%,39.99939%);fill-opacity:0.3;" d="M 146.859375 161.605469 L 147.210938 160.117188 L 152.289062 161.199219 L 151.933594 162.691406 Z M 146.859375 161.605469 "/>
<path style=" stroke:none;fill-rule:nonzero;fill:rgb(39.99939%,39.99939%,39.99939%);fill-opacity:0.3;" d="M 130.859375 7.683594 L 131.359375 5.957031 L 131.535156 5.835938 L 138.816406 7.726562 L 136.511719 15.710938 L 131.039062 14.835938 L 130.195312 14.699219 L 130.007812 15.464844 L 131.039062 15.632812 L 136.324219 16.476562 L 133.613281 24.863281 L 132.679688 30.101562 L 132.210938 30.335938 L 131.039062 30.117188 L 119.058594 27.886719 L 119 25.722656 L 119.429688 24.140625 L 120.84375 18.703125 L 121.210938 17.269531 L 121.046875 15.480469 L 120.292969 14.402344 L 119.125 13.875 L 111.015625 11.339844 L 111.886719 8.828125 L 121.519531 11.265625 L 120.785156 13.371094 L 121.289062 13.429688 L 121.765625 13.488281 L 122.65625 10.722656 L 123.980469 6.625 L 129.191406 7.808594 L 128.53125 10.394531 L 129.261719 10.765625 L 129.988281 11.136719 Z M 130.859375 7.683594 "/>
<path style=" stroke:none;fill-rule:nonzero;fill:rgb(39.99939%,39.99939%,39.99939%);fill-opacity:0.3;" d="M 185.78125 156.828125 L 209.464844 160.847656 L 196.15625 192.613281 L 174.574219 185.867188 Z M 185.78125 156.828125 "/>
<path style=" stroke:none;fill-rule:nonzero;fill:rgb(39.99939%,39.99939%,39.99939%);fill-opacity:0.3;" d="M 149.714844 164.570312 L 150.011719 163.160156 L 155.121094 164.195312 L 154.828125 165.605469 Z M 149.714844 164.570312 "/>
<path style=" stroke:none;fill-rule:nonzero;fill:rgb(39.99939%,39.99939%,39.99939%);fill-opacity:0.3;" d="M 174.824219 113.101562 L 183.730469 116.523438 L 192.347656 118.449219 L 190.835938 125.929688 L 172.734375 122.152344 Z M 174.824219 113.101562 "/>
<path style=" stroke:none;fill-rule:nonzero;fill:rgb(39.99939%,39.99939%,39.99939%);fill-opacity:0.3;" d="M 189.914062 128.808594 L 188.882812 137.855469 L 184.421875 153.695312 L 167 150.75 L 172.03125 124.949219 Z M 189.914062 128.808594 "/>
<path style=" stroke:none;fill-rule:nonzero;fill:rgb(39.99939%,39.99939%,39.99939%);fill-opacity:0.3;" d="M 172.617188 112.242188 L 170.5625 121.621094 L 151.230469 117.464844 L 154.171875 104.390625 Z M 172.617188 112.242188 "/>
<path style=" stroke:none;fill-rule:nonzero;fill:rgb(39.99939%,39.99939%,39.99939%);fill-opacity:0.3;" d="M 121.296875 75.464844 L 119.308594 79.023438 L 115.246094 76.949219 L 117.230469 73.394531 Z M 121.296875 75.464844 "/>
<path style=" stroke:none;fill-rule:nonzero;fill:rgb(39.99939%,39.99939%,39.99939%);fill-opacity:0.3;" d="M 191.882812 54.582031 L 191.472656 59.234375 L 192.0625 59.230469 L 192.558594 59.222656 L 192.898438 54.578125 L 197.632812 55.070312 L 195.9375 79.597656 L 180.8125 77.515625 L 181.785156 68.542969 L 181.503906 67.601562 L 180.898438 66.75 L 182.929688 53.519531 Z M 191.882812 54.582031 "/>
<path style=" stroke:none;fill-rule:nonzero;fill:rgb(39.99939%,39.99939%,39.99939%);fill-opacity:0.3;" d="M 204.402344 -1.078125 L 202.160156 14.898438 L 199.480469 17.15625 L 185.371094 12.855469 L 188.945312 -1.308594 Z M 204.402344 -1.078125 "/>
<path style=" stroke:none;fill-rule:nonzero;fill:rgb(39.99939%,39.99939%,39.99939%);fill-opacity:0.3;" d="M 143.925781 -9.90625 L 139.234375 6.304688 L 131.757812 4.511719 L 136.042969 -10.078125 L 140.972656 -9.851562 Z M 143.925781 -9.90625 "/>
<path style=" stroke:none;fill-rule:nonzero;fill:rgb(39.99939%,39.99939%,39.99939%);fill-opacity:0.3;" d="M 147.148438 -9.96875 L 151.570312 -9.839844 L 157.292969 -9.960938 L 161.171875 -9.382812 L 168.886719 -6.882812 L 173.949219 -4.777344 L 177.769531 -3.34375 L 179.703125 -2.945312 L 182.796875 -2.175781 L 187.9375 -1.679688 L 184.152344 13.339844 L 180.785156 20.242188 L 181.304688 20.484375 L 181.910156 20.765625 L 185.089844 13.863281 L 199.007812 18.160156 L 195.113281 22.84375 L 190.527344 27.328125 L 186.390625 29.820312 L 182.519531 32.050781 L 180.589844 32.875 L 178.691406 33.125 L 168.652344 32.21875 L 175.226562 10.597656 L 176.082031 7.890625 L 175.515625 7.726562 L 174.839844 7.535156 L 174.152344 9.6875 L 160.941406 7.054688 L 153.308594 5.515625 L 153.136719 6.078125 L 152.980469 6.601562 L 159.425781 8.113281 L 159.625 8.621094 L 158.082031 17.980469 L 154.605469 30.464844 L 153.960938 30.710938 L 153.113281 30.601562 L 145.296875 28.695312 L 140.3125 27.480469 L 140.140625 27.929688 L 139.96875 28.382812 L 144.039062 29.355469 L 143.167969 32.273438 L 134.683594 30.78125 L 134.261719 30.152344 L 134.332031 29.285156 L 135.269531 24.984375 L 138.664062 14.257812 L 148.527344 16.820312 L 148.628906 16.152344 L 148.734375 15.484375 L 138.953125 13.039062 L 145.351562 -9.933594 Z M 147.148438 -9.96875 "/>
<path style=" stroke:none;fill-rule:nonzero;fill:rgb(39.99939%,39.99939%,39.99939%);fill-opacity:0.3;" d="M 72.300781 32.804688 L 72.835938 32.191406 L 102.1875 39.359375 L 101.046875 45.316406 L 100.496094 47.167969 L 92.457031 44.878906 L 91.972656 46.105469 L 100.078125 48.570312 L 94.757812 66.445312 L 90.082031 63.910156 Z M 72.300781 32.804688 "/>
<path style=" stroke:none;fill-rule:nonzero;fill:rgb(39.99939%,39.99939%,39.99939%);fill-opacity:0.3;" d="M 114.472656 -11.113281 L 109.832031 6.339844 L 106.90625 17.078125 L 105.078125 24.304688 L 102.480469 37.84375 L 72.71875 30.507812 L 71.328125 30.054688 L 70.011719 28.8125 L 48.394531 -8.832031 L 114.054688 -11.621094 Z M 114.472656 -11.113281 "/>
<path style=" stroke:none;fill-rule:nonzero;fill:rgb(39.99939%,39.99939%,39.99939%);fill-opacity:0.3;" d="M 330.75 17.476562 L 327.195312 31.597656 L 280.519531 21.605469 L 283.875 6.976562 Z M 330.75 17.476562 "/>
<path style=" stroke:none;fill-rule:nonzero;fill:rgb(39.99939%,39.99939%,39.99939%);fill-opacity:0.3;" d="M 324.894531 34.964844 L 318.335938 60.894531 L 301.402344 57.4375 L 307.304688 31.105469 Z M 324.894531 34.964844 "/>
<path style=" stroke:none;fill-rule:nonzero;fill:rgb(39.99939%,39.99939%,39.99939%);fill-opacity:0.3;" d="M 312.851562 102.660156 L 308.539062 121.648438 L 305.285156 120.519531 L 286.164062 112.859375 L 289.09375 97.871094 Z M 312.851562 102.660156 "/>
<path style=" stroke:none;fill-rule:nonzero;fill:rgb(39.99939%,39.99939%,39.99939%);fill-opacity:0.3;" d="M 286.621094 98.476562 L 284.121094 110.269531 L 278.242188 107.148438 L 265.890625 100.300781 L 262.335938 99.132812 L 263.542969 93.695312 Z M 286.621094 98.476562 "/>
<path style=" stroke:none;fill-rule:nonzero;fill:rgb(39.99939%,39.99939%,39.99939%);fill-opacity:0.3;" d="M 302.195312 29.71875 L 295.707031 58.019531 L 272.609375 53.101562 L 278.738281 24.671875 Z M 302.195312 29.71875 "/>
<path style=" stroke:none;fill-rule:nonzero;fill:rgb(39.99939%,39.99939%,39.99939%);fill-opacity:0.3;" d="M 297.746094 -8.820312 L 334.980469 -0.722656 L 331.421875 14.679688 L 294.175781 6.660156 L 283.15625 4.183594 L 284.960938 -3.238281 L 287.074219 -11.101562 Z M 297.746094 -8.820312 "/>
<path style=" stroke:none;fill-rule:nonzero;fill:rgb(39.99939%,39.99939%,39.99939%);fill-opacity:0.3;" d="M 295.300781 59.929688 L 286.902344 97.054688 L 263.75 92.464844 L 272.09375 55.1875 Z M 295.300781 59.929688 "/>
<path style=" stroke:none;fill-rule:nonzero;fill:rgb(39.99939%,39.99939%,39.99939%);fill-opacity:0.3;" d="M 304.5 61.796875 L 320.605469 65.058594 L 319.160156 71.335938 L 303.042969 68.105469 Z M 304.5 61.796875 "/>
<path style=" stroke:none;fill-rule:nonzero;fill:rgb(39.99939%,39.99939%,39.99939%);fill-opacity:0.3;" d="M 304.421875 61.78125 L 302.972656 68.097656 L 296.113281 66.695312 L 297.5625 60.382812 Z M 304.421875 61.78125 "/>
<path style=" stroke:none;fill-rule:nonzero;fill:rgb(39.99939%,39.99939%,39.99939%);fill-opacity:0.3;" d="M 303.027344 68.140625 L 319.148438 71.378906 L 312.28125 101.132812 L 296.117188 97.835938 Z M 303.027344 68.140625 "/>
<g clip-path="url(#clip18)" clip-rule="nonzero">
<path style=" stroke:none;fill-rule:nonzero;fill:rgb(39.99939%,39.99939%,39.99939%);fill-opacity:0.3;" d="M 387.742188 55.128906 L 383.414062 75.703125 L 366.785156 72.140625 L 367.453125 69.707031 L 366.316406 69.378906 L 366.910156 67.128906 L 366.492188 67.011719 L 366.070312 66.894531 L 365.378906 69.945312 L 366.171875 70.179688 L 365.84375 71.941406 L 353.988281 69.402344 L 358.363281 49.042969 Z M 387.742188 55.128906 "/>
</g>
<g clip-path="url(#clip19)" clip-rule="nonzero">
<path style=" stroke:none;fill-rule:nonzero;fill:rgb(39.99939%,39.99939%,39.99939%);fill-opacity:0.3;" d="M 398.753906 11.230469 L 397.027344 18.863281 L 392.015625 18.089844 L 389.582031 17.710938 L 389.519531 18.101562 L 389.46875 18.410156 L 391.9375 18.84375 L 391.023438 22.3125 L 391.382812 22.382812 L 391.710938 22.445312 L 392.625 18.945312 L 396.902344 19.59375 L 390.824219 43.941406 L 386.589844 42.929688 L 387.148438 40.769531 L 386.816406 40.683594 L 386.488281 40.601562 L 385.710938 43.496094 L 390.59375 44.660156 L 388.414062 52.804688 L 328.308594 40.707031 L 337.921875 -0.367188 Z M 398.753906 11.230469 "/>
</g>
<path style=" stroke:none;fill-rule:nonzero;fill:rgb(39.99939%,39.99939%,39.99939%);fill-opacity:0.3;" d="M 357.296875 48.714844 L 352.84375 69.089844 L 333.496094 65.328125 L 323.5625 62.976562 L 327.824219 43.125 Z M 357.296875 48.714844 "/>
<path style=" stroke:none;fill-rule:nonzero;fill:rgb(39.99939%,39.99939%,39.99939%);fill-opacity:0.3;" d="M 358.949219 0.53125 L 338.320312 -3.207031 L 338.367188 -3.382812 Z M 358.949219 0.53125 "/>
<path style=" stroke:none;fill-rule:nonzero;fill:rgb(39.99939%,39.99939%,39.99939%);fill-opacity:0.3;" d="M 327.492188 105.609375 L 325.964844 112.113281 L 327.269531 112.347656 L 328.65625 105.777344 L 343.660156 108.6875 L 339.648438 126.96875 L 339.199219 127.636719 L 338.707031 128.003906 L 334.910156 128.765625 L 313.078125 123.078125 L 310.746094 122.359375 L 315.003906 103.101562 Z M 327.492188 105.609375 "/>
<path style=" stroke:none;fill-rule:nonzero;fill:rgb(39.99939%,39.99939%,39.99939%);fill-opacity:0.3;" d="M 352.226562 71.375 L 348.59375 87.757812 L 338.636719 87.386719 L 338.640625 87.714844 L 338.640625 88.148438 L 348.371094 88.328125 L 343.929688 107.3125 L 315.03125 101.671875 L 323.289062 65.597656 L 336.171875 68.144531 L 334.144531 74.441406 L 334.820312 74.496094 L 335.5 74.554688 L 337.550781 68.410156 Z M 352.226562 71.375 "/>
<g clip-path="url(#clip20)" clip-rule="nonzero">
<path style=" stroke:none;fill-rule:nonzero;fill:rgb(39.99939%,39.99939%,39.99939%);fill-opacity:0.3;" d="M 373.554688 115.179688 L 370.929688 126.035156 L 369.9375 131.566406 L 368.472656 132.78125 L 362.675781 132.699219 L 359.042969 132.195312 L 341.132812 127.746094 L 344.089844 114.464844 L 358.476562 117.894531 L 363.488281 118.8125 L 363.429688 121.511719 L 368.050781 122.332031 L 368.539062 120.433594 L 369.03125 118.535156 L 359.777344 117.058594 L 360.9375 112.480469 Z M 373.554688 115.179688 "/>
</g>
<path style=" stroke:none;fill-rule:nonzero;fill:rgb(39.99939%,39.99939%,39.99939%);fill-opacity:0.3;" d="M 333.496094 65.328125 L 323.472656 63.378906 L 323.5625 62.976562 Z M 333.496094 65.328125 "/>
<g clip-path="url(#clip21)" clip-rule="nonzero">
<path style=" stroke:none;fill-rule:nonzero;fill:rgb(39.99939%,39.99939%,39.99939%);fill-opacity:0.3;" d="M 383.019531 77.984375 L 380.730469 91.226562 L 378.621094 98.839844 L 378.808594 98.925781 L 378.417969 100.308594 L 368.621094 97.6875 L 366.332031 104.953125 L 367.261719 105.195312 L 367.433594 105.242188 L 368.378906 105.484375 L 370.207031 99.535156 L 378.003906 101.640625 L 374.617188 114.289062 L 366.269531 112.390625 L 367.402344 107.679688 L 369.84375 108.183594 L 369.886719 107.8125 L 369.933594 107.441406 L 366.546875 106.730469 L 365.207031 112.167969 L 345.160156 107.640625 L 353.5 71.695312 L 366.734375 74.511719 L 365.734375 81.15625 L 366.671875 81.34375 L 367.855469 74.753906 Z M 383.019531 77.984375 "/>
</g>
<path style=" stroke:none;fill-rule:nonzero;fill:rgb(39.99939%,39.99939%,39.99939%);fill-opacity:0.3;" d="M 358.84375 112.066406 L 357.871094 116.320312 L 344.34375 113.351562 L 345.109375 108.917969 Z M 358.84375 112.066406 "/>
<g clip-path="url(#clip22)" clip-rule="nonzero">
<path style=" stroke:none;fill-rule:nonzero;fill:rgb(39.99939%,39.99939%,39.99939%);fill-opacity:0.3;" d="M 365.652344 -12.519531 L 362.441406 1.160156 L 358.949219 0.53125 L 338.367188 -3.382812 L 341.855469 -16.722656 Z M 365.652344 -12.519531 "/>
</g>
<path style=" stroke:none;fill-rule:nonzero;fill:rgb(39.99939%,39.99939%,39.99939%);fill-opacity:0.3;" d="M 7.554688 232.414062 L 8.0625 232.234375 L 8.761719 232.230469 L 9.757812 232.914062 L 20.316406 240.429688 L 20.75 241.132812 L 20.917969 241.933594 L 20.46875 242.683594 L 9.757812 250.710938 L 8.164062 251.054688 L 6.441406 250.511719 L -3.015625 246.128906 L -3.496094 245.511719 L -2.984375 244.484375 Z M 7.554688 232.414062 "/>
<path style=" stroke:none;fill-rule:nonzero;fill:rgb(39.99939%,39.99939%,39.99939%);fill-opacity:0.3;" d="M 45.320312 243.347656 L 1.335938 274.410156 L -26.605469 249.699219 L 2.734375 212.769531 L 3.871094 212.566406 L 5.046875 212.566406 L 6.269531 212.804688 L 7.910156 213.402344 L 29.964844 230.886719 L 30.390625 232.535156 L 28.734375 236.117188 L 26.015625 237.972656 L 23.679688 238.617188 L 21.230469 238.917969 L 7.640625 229.550781 L -5.40625 244.320312 L -6.035156 245.636719 L -5.894531 246.417969 L -5.414062 247.066406 L 5.425781 252.453125 L 7.140625 252.96875 L 8.71875 252.902344 L 10.230469 252.382812 L 11.875 251.273438 L 34.53125 234.917969 Z M 45.320312 243.347656 "/>
<path style=" stroke:none;fill-rule:nonzero;fill:rgb(39.99939%,39.99939%,39.99939%);fill-opacity:0.3;" d="M 10.496094 213.1875 L 8.003906 211.355469 L 3.988281 208.332031 L 4.183594 208.117188 Z M 10.496094 213.1875 "/>
<path style=" stroke:none;fill-rule:nonzero;fill:rgb(39.99939%,39.99939%,39.99939%);fill-opacity:0.3;" d="M 10.085938 316.210938 L 3.351562 323.535156 L 3.652344 323.78125 L 3.957031 324.027344 L 11.011719 316.765625 L 11.089844 317.09375 L 13.730469 329.234375 L 14.6875 334.320312 L -3.042969 346.574219 L -9.699219 325.132812 Z M 10.085938 316.210938 "/>
<path style=" stroke:none;fill-rule:nonzero;fill:rgb(39.99939%,39.99939%,39.99939%);fill-opacity:0.3;" d="M 19.347656 333.082031 L 16.902344 317.914062 L 15.96875 314.5 L 28.265625 310.398438 L 34.996094 313.25 L 39.140625 331.324219 Z M 19.347656 333.082031 "/>
<path style="fill-rule:nonzero;fill:rgb(39.99939%,39.99939%,39.99939%);fill-opacity:1;stroke-width:0.03;stroke-linecap:square;stroke-linejoin:miter;stroke:rgb(39.99939%,39.99939%,39.99939%);stroke-opacity:1;stroke-miterlimit:3.239307;" d="M 205.039062 197.40625 L 213.4375 191.796875 L 215.132812 191.148438 L 232.253906 198.652344 L 244.058594 204.527344 L 349.726562 236.839844 L 332.125 321.570312 L 205.039062 281.398438 L 152.425781 264.765625 L 148.195312 252.824219 L 145.160156 241.886719 L 184.863281 210.886719 Z M 205.039062 197.40625 " transform="matrix(1,0,0,1,-74,-13)"/>
<path style="fill-rule:nonzero;fill:rgb(39.99939%,39.99939%,39.99939%);fill-opacity:1;stroke-width:0.03;stroke-linecap:square;stroke-linejoin:miter;stroke:rgb(39.99939%,39.99939%,39.99939%);stroke-opacity:1;stroke-miterlimit:3.239307;" d="M 150.453125 265.132812 L 125.546875 257.183594 L 125.429688 256.53125 L 142.671875 243.683594 L 142.960938 244.332031 L 145.886719 253.695312 L 149.714844 263.601562 Z M 150.453125 265.132812 " transform="matrix(1,0,0,1,-74,-13)"/>
<path style="fill-rule:nonzero;fill:rgb(39.99939%,39.99939%,39.99939%);fill-opacity:1;stroke-width:0.03;stroke-linecap:square;stroke-linejoin:miter;stroke:rgb(39.99939%,39.99939%,39.99939%);stroke-opacity:1;stroke-miterlimit:3.239307;" d="M 382.539062 134.648438 L 382.5 134.808594 L 379.285156 133.519531 Z M 382.539062 134.648438 " transform="matrix(1,0,0,1,-74,-13)"/>
<path style="fill-rule:nonzero;fill:rgb(39.99939%,39.99939%,39.99939%);fill-opacity:1;stroke-width:0.03;stroke-linecap:square;stroke-linejoin:miter;stroke:rgb(39.99939%,39.99939%,39.99939%);stroke-opacity:1;stroke-miterlimit:3.239307;" d="M 382.570312 136.964844 L 378.851562 151.847656 L 356.300781 146.554688 L 356.136719 146.195312 L 358.304688 134.472656 L 364.597656 136.738281 L 364.871094 135.816406 L 358.480469 133.507812 L 359.496094 128.003906 L 359.882812 127.820312 L 365.496094 130.152344 L 382.09375 136.621094 Z M 382.570312 136.964844 " transform="matrix(1,0,0,1,-74,-13)"/>
<path style="fill-rule:nonzero;fill:rgb(39.99939%,39.99939%,39.99939%);fill-opacity:1;stroke-width:0.03;stroke-linecap:square;stroke-linejoin:miter;stroke:rgb(39.99939%,39.99939%,39.99939%);stroke-opacity:1;stroke-miterlimit:3.239307;" d="M 323.4375 154.867188 L 317.777344 180.691406 L 315.214844 180.28125 L 312.152344 176.417969 L 313.75 169.292969 L 313.402344 169.214844 L 312.636719 169.042969 L 311.023438 176.210938 L 305.589844 175.210938 L 311.183594 152.15625 Z M 323.4375 154.867188 " transform="matrix(1,0,0,1,-74,-13)"/>
<path style="fill-rule:nonzero;fill:rgb(39.99939%,39.99939%,39.99939%);fill-opacity:1;stroke-width:0.03;stroke-linecap:square;stroke-linejoin:miter;stroke:rgb(39.99939%,39.99939%,39.99939%);stroke-opacity:1;stroke-miterlimit:3.239307;" d="M 374.828125 169.199219 L 370.980469 186.917969 L 347.816406 182.859375 L 351.867188 163.273438 Z M 374.828125 169.199219 " transform="matrix(1,0,0,1,-74,-13)"/>
<path style="fill-rule:nonzero;fill:rgb(39.99939%,39.99939%,39.99939%);fill-opacity:1;stroke-width:0.03;stroke-linecap:square;stroke-linejoin:miter;stroke:rgb(39.99939%,39.99939%,39.99939%);stroke-opacity:1;stroke-miterlimit:3.239307;" d="M 216.550781 183.257812 L 216.449219 184.585938 L 215.699219 185.597656 Z M 216.550781 183.257812 " transform="matrix(1,0,0,1,-74,-13)"/>
<path style="fill-rule:nonzero;fill:rgb(39.99939%,39.99939%,39.99939%);fill-opacity:1;stroke-width:0.03;stroke-linecap:square;stroke-linejoin:miter;stroke:rgb(39.99939%,39.99939%,39.99939%);stroke-opacity:1;stroke-miterlimit:3.239307;" d="M 215.648438 185.664062 L 215.273438 186.171875 L 214.320312 186.964844 L 212.886719 187.671875 Z M 215.648438 185.664062 " transform="matrix(1,0,0,1,-74,-13)"/>
<path style="fill-rule:nonzero;fill:rgb(39.99939%,39.99939%,39.99939%);fill-opacity:1;stroke-width:0.03;stroke-linecap:square;stroke-linejoin:miter;stroke:rgb(39.99939%,39.99939%,39.99939%);stroke-opacity:1;stroke-miterlimit:3.239307;" d="M 378.453125 154.296875 L 375.15625 167.316406 L 374.945312 167.574219 L 352.320312 161.585938 L 352.144531 161.253906 L 355.277344 149.089844 L 355.808594 148.777344 L 378.230469 153.746094 Z M 378.453125 154.296875 " transform="matrix(1,0,0,1,-74,-13)"/>
<path style="fill-rule:nonzero;fill:rgb(39.99939%,39.99939%,39.99939%);fill-opacity:1;stroke-width:0.03;stroke-linecap:square;stroke-linejoin:miter;stroke:rgb(39.99939%,39.99939%,39.99939%);stroke-opacity:1;stroke-miterlimit:3.239307;" d="M 321.882812 180.746094 L 344.945312 185.367188 L 342.878906 197.378906 L 342.304688 206.523438 L 343.738281 215.457031 L 329.539062 220.601562 L 325.875 221.660156 L 323.03125 221.773438 L 307.066406 217.078125 L 306.914062 216.03125 L 320.796875 181.949219 Z M 321.882812 180.746094 " transform="matrix(1,0,0,1,-74,-13)"/>
<path style="fill-rule:nonzero;fill:rgb(39.99939%,39.99939%,39.99939%);fill-opacity:1;stroke-width:0.03;stroke-linecap:square;stroke-linejoin:miter;stroke:rgb(39.99939%,39.99939%,39.99939%);stroke-opacity:1;stroke-miterlimit:3.239307;" d="M 352.609375 148.558594 L 350.75 157.398438 L 337.398438 155.421875 L 335.730469 159.625 L 336.375 159.742188 L 337.070312 159.863281 L 338.382812 156.777344 L 350.515625 158.515625 L 345.464844 182.503906 L 322.398438 178.308594 L 320.875 177.675781 L 320.457031 175.660156 L 328.019531 142.773438 Z M 352.609375 148.558594 " transform="matrix(1,0,0,1,-74,-13)"/>
<path style="fill-rule:nonzero;fill:rgb(39.99939%,39.99939%,39.99939%);fill-opacity:1;stroke-width:0.03;stroke-linecap:square;stroke-linejoin:miter;stroke:rgb(39.99939%,39.99939%,39.99939%);stroke-opacity:1;stroke-miterlimit:3.239307;" d="M 297.988281 146.597656 L 300.941406 139.230469 L 301.496094 138.363281 L 302.527344 137.8125 L 303.199219 137.800781 L 326.601562 142.636719 L 324.089844 152.3125 Z M 297.988281 146.597656 " transform="matrix(1,0,0,1,-74,-13)"/>
<path style="fill-rule:nonzero;fill:rgb(39.99939%,39.99939%,39.99939%);fill-opacity:1;stroke-width:0.03;stroke-linecap:square;stroke-linejoin:miter;stroke:rgb(39.99939%,39.99939%,39.99939%);stroke-opacity:1;stroke-miterlimit:3.239307;" d="M 344.4375 218.203125 L 348.339844 229.105469 L 347.871094 229.5625 L 329.960938 224.050781 L 330.078125 223.5625 Z M 344.4375 218.203125 " transform="matrix(1,0,0,1,-74,-13)"/>
<path style="fill-rule:nonzero;fill:rgb(39.99939%,39.99939%,39.99939%);fill-opacity:1;stroke-width:0.03;stroke-linecap:square;stroke-linejoin:miter;stroke:rgb(39.99939%,39.99939%,39.99939%);stroke-opacity:1;stroke-miterlimit:3.239307;" d="M 370.230469 189.882812 L 365.953125 209.574219 L 345.753906 214.441406 L 344.429688 206.78125 L 344.75 198.285156 L 345.683594 192.128906 L 346.792969 186.613281 L 347.074219 185.90625 Z M 370.230469 189.882812 " transform="matrix(1,0,0,1,-74,-13)"/>
<path style="fill-rule:nonzero;fill:rgb(39.99939%,39.99939%,39.99939%);fill-opacity:1;stroke-width:0.03;stroke-linecap:square;stroke-linejoin:miter;stroke:rgb(39.99939%,39.99939%,39.99939%);stroke-opacity:1;stroke-miterlimit:3.239307;" d="M 365.710938 211.941406 L 359.96875 233.179688 L 352.742188 230.933594 L 351.800781 230.132812 L 350.996094 228.679688 L 346.78125 216.753906 Z M 365.710938 211.941406 " transform="matrix(1,0,0,1,-74,-13)"/>
<path style="fill-rule:nonzero;fill:rgb(39.99939%,39.99939%,39.99939%);fill-opacity:1;stroke-width:0.03;stroke-linecap:square;stroke-linejoin:miter;stroke:rgb(39.99939%,39.99939%,39.99939%);stroke-opacity:1;stroke-miterlimit:3.239307;" d="M 309.730469 151.832031 L 304.101562 174.921875 L 286.988281 171.597656 L 297.066406 149.035156 Z M 309.730469 151.832031 " transform="matrix(1,0,0,1,-74,-13)"/>
<path style="fill-rule:nonzero;fill:rgb(39.99939%,39.99939%,39.99939%);fill-opacity:1;stroke-width:0.03;stroke-linecap:square;stroke-linejoin:miter;stroke:rgb(39.99939%,39.99939%,39.99939%);stroke-opacity:1;stroke-miterlimit:3.239307;" d="M 304.09375 177.855469 L 302 187.300781 L 302.648438 187.402344 L 303.292969 187.503906 L 305.410156 178.109375 L 312.378906 179.394531 L 314.46875 181.582031 L 318.0625 182.003906 L 304.203125 216.203125 L 272.445312 206.367188 L 285.957031 174.320312 Z M 304.09375 177.855469 " transform="matrix(1,0,0,1,-74,-13)"/>
<path style="fill-rule:nonzero;fill:rgb(39.99939%,39.99939%,39.99939%);fill-opacity:1;stroke-width:0.03;stroke-linecap:square;stroke-linejoin:miter;stroke:rgb(39.99939%,39.99939%,39.99939%);stroke-opacity:1;stroke-miterlimit:3.239307;" d="M 209.539062 189.925781 L 209.5625 190.0625 L 208.070312 191.035156 Z M 209.539062 189.925781 " transform="matrix(1,0,0,1,-74,-13)"/>
<path style=" stroke:none;fill-rule:evenodd;fill:rgb(85.096741%,85.096741%,81.959534%);fill-opacity:0.7;" d="M 343.359375 324 C 343.359375 321.253906 342.265625 318.617188 340.324219 316.675781 C 338.382812 314.734375 335.746094 313.640625 333 313.640625 C 330.253906 313.640625 327.617188 314.734375 325.675781 316.675781 C 323.734375 318.617188 322.640625 321.253906 322.640625 324 C 322.640625 326.746094 323.734375 329.382812 325.675781 331.324219 C 327.617188 333.265625 330.253906 334.359375 333 334.359375 C 335.746094 334.359375 338.382812 333.265625 340.324219 331.324219 C 342.265625 329.382812 343.359375 326.746094 343.359375 324 Z M 343.359375 324 "/>
<path style=" stroke:none;fill-rule:evenodd;fill:rgb(85.096741%,85.096741%,81.959534%);fill-opacity:0.7;" d="M 60.359375 259 C 60.359375 256.253906 59.265625 253.617188 57.324219 251.675781 C 55.382812 249.734375 52.746094 248.640625 50 248.640625 C 47.253906 248.640625 44.617188 249.734375 42.675781 251.675781 C 40.734375 253.617188 39.640625 256.253906 39.640625 259 C 39.640625 261.746094 40.734375 264.382812 42.675781 266.324219 C 44.617188 268.265625 47.253906 269.359375 50 269.359375 C 52.746094 269.359375 55.382812 268.265625 57.324219 266.324219 C 59.265625 264.382812 60.359375 261.746094 60.359375 259 Z M 60.359375 259 "/>
<path style=" stroke:none;fill-rule:evenodd;fill:rgb(85.096741%,85.096741%,81.959534%);fill-opacity:0.7;" d="M 47.359375 256 C 47.359375 253.253906 46.265625 250.617188 44.324219 248.675781 C 42.382812 246.734375 39.746094 245.640625 37 245.640625 C 34.253906 245.640625 31.617188 246.734375 29.675781 248.675781 C 27.734375 250.617188 26.640625 253.253906 26.640625 256 C 26.640625 258.746094 27.734375 261.382812 29.675781 263.324219 C 31.617188 265.265625 34.253906 266.359375 37 266.359375 C 39.746094 266.359375 42.382812 265.265625 44.324219 263.324219 C 46.265625 261.382812 47.359375 258.746094 47.359375 256 Z M 47.359375 256 "/>
<path style=" stroke:none;fill-rule:evenodd;fill:rgb(85.096741%,85.096741%,81.959534%);fill-opacity:0.7;" d="M 86.359375 252 C 86.359375 249.253906 85.265625 246.617188 83.324219 244.675781 C 81.382812 242.734375 78.746094 241.640625 76 241.640625 C 73.253906 241.640625 70.617188 242.734375 68.675781 244.675781 C 66.734375 246.617188 65.640625 249.253906 65.640625 252 C 65.640625 254.746094 66.734375 257.382812 68.675781 259.324219 C 70.617188 261.265625 73.253906 262.359375 76 262.359375 C 78.746094 262.359375 81.382812 261.265625 83.324219 259.324219 C 85.265625 257.382812 86.359375 254.746094 86.359375 252 Z M 86.359375 252 "/>
<path style=" stroke:none;fill-rule:evenodd;fill:rgb(85.096741%,85.096741%,81.959534%);fill-opacity:0.7;" d="M 352.359375 177 C 352.359375 174.253906 351.265625 171.617188 349.324219 169.675781 C 347.382812 167.734375 344.746094 166.640625 342 166.640625 C 339.253906 166.640625 336.617188 167.734375 334.675781 169.675781 C 332.734375 171.617188 331.640625 174.253906 331.640625 177 C 331.640625 179.746094 332.734375 182.382812 334.675781 184.324219 C 336.617188 186.265625 339.253906 187.359375 342 187.359375 C 344.746094 187.359375 347.382812 186.265625 349.324219 184.324219 C 351.265625 182.382812 352.359375 179.746094 352.359375 177 Z M 352.359375 177 "/>
<path style=" stroke:none;fill-rule:evenodd;fill:rgb(85.096741%,85.096741%,81.959534%);fill-opacity:0.7;" d="M 267.359375 167 C 267.359375 164.253906 266.265625 161.617188 264.324219 159.675781 C 262.382812 157.734375 259.746094 156.640625 257 156.640625 C 254.253906 156.640625 251.617188 157.734375 249.675781 159.675781 C 247.734375 161.617188 246.640625 164.253906 246.640625 167 C 246.640625 169.746094 247.734375 172.382812 249.675781 174.324219 C 251.617188 176.265625 254.253906 177.359375 257 177.359375 C 259.746094 177.359375 262.382812 176.265625 264.324219 174.324219 C 266.265625 172.382812 267.359375 169.746094 267.359375 167 Z M 267.359375 167 "/>
<path style=" stroke:none;fill-rule:evenodd;fill:rgb(85.096741%,85.096741%,81.959534%);fill-opacity:0.7;" d="M 302.359375 7 C 302.359375 4.253906 301.265625 1.617188 299.324219 -0.324219 C 297.382812 -2.265625 294.746094 -3.359375 292 -3.359375 C 289.253906 -3.359375 286.617188 -2.265625 284.675781 -0.324219 C 282.734375 1.617188 281.640625 4.253906 281.640625 7 C 281.640625 9.746094 282.734375 12.382812 284.675781 14.324219 C 286.617188 16.265625 289.253906 17.359375 292 17.359375 C 294.746094 17.359375 297.382812 16.265625 299.324219 14.324219 C 301.265625 12.382812 302.359375 9.746094 302.359375 7 Z M 302.359375 7 "/>
<path style=" stroke:none;fill-rule:evenodd;fill:rgb(85.096741%,85.096741%,81.959534%);fill-opacity:0.7;" d="M 9.359375 148 C 9.359375 145.253906 8.265625 142.617188 6.324219 140.675781 C 4.382812 138.734375 1.746094 137.640625 -1 137.640625 C -3.746094 137.640625 -6.382812 138.734375 -8.324219 140.675781 C -10.265625 142.617188 -11.359375 145.253906 -11.359375 148 C -11.359375 150.746094 -10.265625 153.382812 -8.324219 155.324219 C -6.382812 157.265625 -3.746094 158.359375 -1 158.359375 C 1.746094 158.359375 4.382812 157.265625 6.324219 155.324219 C 8.265625 153.382812 9.359375 150.746094 9.359375 148 Z M 9.359375 148 "/>
<path style=" stroke:none;fill-rule:evenodd;fill:rgb(85.096741%,85.096741%,81.959534%);fill-opacity:0.7;" d="M 191.359375 62 C 191.359375 59.253906 190.265625 56.617188 188.324219 54.675781 C 186.382812 52.734375 183.746094 51.640625 181 51.640625 C 178.253906 51.640625 175.617188 52.734375 173.675781 54.675781 C 171.734375 56.617188 170.640625 59.253906 170.640625 62 C 170.640625 64.746094 171.734375 67.382812 173.675781 69.324219 C 175.617188 71.265625 178.253906 72.359375 181 72.359375 C 183.746094 72.359375 186.382812 71.265625 188.324219 69.324219 C 190.265625 67.382812 191.359375 64.746094 191.359375 62 Z M 191.359375 62 "/>
<path style=" stroke:none;fill-rule:evenodd;fill:rgb(76.469421%,0.392151%,0%);fill-opacity:0.7;" d="M 283.714844 1 C 283.714844 -4.496094 281.535156 -9.761719 277.648438 -13.648438 C 273.761719 -17.535156 268.496094 -19.714844 263 -19.714844 C 257.503906 -19.714844 252.238281 -17.535156 248.351562 -13.648438 C 244.464844 -9.761719 242.285156 -4.496094 242.285156 1 C 242.285156 6.496094 244.464844 11.761719 248.351562 15.648438 C 252.238281 19.535156 257.503906 21.714844 263 21.714844 C 268.496094 21.714844 273.761719 19.535156 277.648438 15.648438 C 281.535156 11.761719 283.714844 6.496094 283.714844 1 Z M 283.714844 1 "/>
<path style="fill-rule:nonzero;fill:rgb(99.998474%,99.998474%,30.587769%);fill-opacity:0.8;stroke-width:0.288;stroke-linecap:square;stroke-linejoin:miter;stroke:rgb(0%,0%,0%);stroke-opacity:0.8;stroke-miterlimit:3.25;" d="M 78.441406 24.832031 L 56.015625 63.675781 L 100.867188 63.675781 Z M 78.441406 24.832031 " transform="matrix(1,0,0,1,-74,-13)"/>
</g>
</svg>
