<?xml version="1.0" encoding="UTF-8"?>
<svg xmlns="http://www.w3.org/2000/svg" xmlns:xlink="http://www.w3.org/1999/xlink" width="361pt" height="361pt" viewBox="0 0 361 361" version="1.1">
<g id="surface3934">
<path style="fill-rule:nonzero;fill:rgb(0%,0%,0%);fill-opacity:1;stroke-width:0.03;stroke-linecap:square;stroke-linejoin:miter;stroke:rgb(0%,0%,0%);stroke-opacity:1;stroke-miterlimit:10;" d="M 0 178 L 360 178 L 360 -182 L 0 -182 Z M 0 178 " transform="matrix(1,0,0,1,0,182)"/>
<path style=" stroke:none;fill-rule:nonzero;fill:rgb(39.99939%,39.99939%,39.99939%);fill-opacity:0.3;" d="M 123.625 198.601562 L 117.65625 223.214844 L 95.449219 214.15625 L 94.648438 213.085938 L 94.726562 211.027344 L 94.882812 209.574219 L 100.554688 191.585938 L 102.207031 191.195312 Z M 123.625 198.601562 "/>
<path style=" stroke:none;fill-rule:nonzero;fill:rgb(39.99939%,39.99939%,39.99939%);fill-opacity:0.3;" d="M 105.796875 164.910156 L 127.03125 170.230469 L 123.582031 192.042969 L 102.207031 185.875 Z M 105.796875 164.910156 "/>
<path style=" stroke:none;fill-rule:nonzero;fill:rgb(39.99939%,39.99939%,39.99939%);fill-opacity:0.3;" d="M 99.710938 163.269531 L 96.34375 182.007812 L 53.546875 174.621094 L 52.429688 174.480469 L 51.507812 174.035156 L 51.429688 173.773438 L 51.429688 172.421875 L 51.734375 171.609375 L 52.480469 169.796875 L 53.855469 167.789062 L 58.472656 164.523438 L 93.191406 143.714844 L 103.082031 141.492188 L 143.863281 136.578125 L 155.789062 134.78125 L 156.527344 135.171875 L 157.019531 135.832031 L 140.570312 168.683594 L 140.214844 169.253906 L 139.246094 169.605469 L 138.03125 169.730469 L 103.976562 161.027344 L 102.128906 161.445312 L 100.453125 162.171875 Z M 99.710938 163.269531 "/>
<path style=" stroke:none;fill-rule:nonzero;fill:rgb(39.99939%,39.99939%,39.99939%);fill-opacity:0.3;" d="M 237.648438 271.824219 L 220.398438 264.230469 L 220.53125 263.5625 L 221.035156 263.761719 Z M 237.648438 271.824219 "/>
<path style=" stroke:none;fill-rule:nonzero;fill:rgb(39.99939%,39.99939%,39.99939%);fill-opacity:0.3;" d="M 130.617188 196.222656 L 128.539062 195.492188 L 132.667969 173.835938 L 139.023438 175.234375 L 130.894531 195.5625 Z M 130.617188 196.222656 "/>
<path style=" stroke:none;fill-rule:nonzero;fill:rgb(39.99939%,39.99939%,39.99939%);fill-opacity:0.3;" d="M 287.765625 297.109375 L 287.703125 297.308594 L 273.828125 289.835938 Z M 287.765625 297.109375 "/>
<path style=" stroke:none;fill-rule:nonzero;fill:rgb(39.99939%,39.99939%,39.99939%);fill-opacity:0.3;" d="M 308.570312 308.570312 L 291.195312 300.175781 L 291.546875 299.171875 Z M 308.570312 308.570312 "/>
<path style=" stroke:none;fill-rule:nonzero;fill:rgb(39.99939%,39.99939%,39.99939%);fill-opacity:0.3;" d="M 126.074219 207.007812 L 127.808594 198.882812 L 129.277344 199.398438 Z M 126.074219 207.007812 "/>
<path style="fill-rule:nonzero;fill:rgb(39.99939%,39.99939%,39.99939%);fill-opacity:1;stroke-width:0.03;stroke-linecap:square;stroke-linejoin:miter;stroke:rgb(39.99939%,39.99939%,39.99939%);stroke-opacity:1;stroke-miterlimit:3.239307;" d="M 197.625 211.601562 L 191.65625 236.214844 L 169.449219 227.15625 L 168.648438 226.085938 L 168.726562 224.027344 L 168.882812 222.574219 L 174.554688 204.585938 L 176.207031 204.195312 Z M 197.625 211.601562 " transform="matrix(1,0,0,1,-74,-13)"/>
<path style="fill-rule:nonzero;fill:rgb(39.99939%,39.99939%,39.99939%);fill-opacity:1;stroke-width:0.03;stroke-linecap:square;stroke-linejoin:miter;stroke:rgb(39.99939%,39.99939%,39.99939%);stroke-opacity:1;stroke-miterlimit:3.239307;" d="M 179.796875 177.910156 L 201.03125 183.230469 L 197.582031 205.042969 L 176.207031 198.875 Z M 179.796875 177.910156 " transform="matrix(1,0,0,1,-74,-13)"/>
<path style="fill-rule:nonzero;fill:rgb(39.99939%,39.99939%,39.99939%);fill-opacity:1;stroke-width:0.03;stroke-linecap:square;stroke-linejoin:miter;stroke:rgb(39.99939%,39.99939%,39.99939%);stroke-opacity:1;stroke-miterlimit:3.239307;" d="M 173.710938 176.269531 L 170.34375 195.007812 L 127.546875 187.621094 L 126.429688 187.480469 L 125.507812 187.035156 L 125.429688 186.773438 L 125.429688 185.421875 L 125.734375 184.609375 L 126.480469 182.796875 L 127.855469 180.789062 L 132.472656 177.523438 L 167.191406 156.714844 L 177.082031 154.492188 L 217.863281 149.578125 L 229.789062 147.78125 L 230.527344 148.171875 L 231.019531 148.832031 L 214.570312 181.683594 L 214.214844 182.253906 L 213.246094 182.605469 L 212.03125 182.730469 L 177.976562 174.027344 L 176.128906 174.445312 L 174.453125 175.171875 Z M 173.710938 176.269531 " transform="matrix(1,0,0,1,-74,-13)"/>
<path style="fill-rule:nonzero;fill:rgb(39.99939%,39.99939%,39.99939%);fill-opacity:1;stroke-width:0.03;stroke-linecap:square;stroke-linejoin:miter;stroke:rgb(39.99939%,39.99939%,39.99939%);stroke-opacity:1;stroke-miterlimit:3.239307;" d="M 311.648438 284.824219 L 294.398438 277.230469 L 294.53125 276.5625 L 295.035156 276.761719 Z M 311.648438 284.824219 " transform="matrix(1,0,0,1,-74,-13)"/>
<path style="fill-rule:nonzero;fill:rgb(39.99939%,39.99939%,39.99939%);fill-opacity:1;stroke-width:0.03;stroke-linecap:square;stroke-linejoin:miter;stroke:rgb(39.99939%,39.99939%,39.99939%);stroke-opacity:1;stroke-miterlimit:3.239307;" d="M 204.617188 209.222656 L 202.539062 208.492188 L 206.667969 186.835938 L 213.023438 188.234375 L 204.894531 208.5625 Z M 204.617188 209.222656 " transform="matrix(1,0,0,1,-74,-13)"/>
<path style="fill-rule:nonzero;fill:rgb(39.99939%,39.99939%,39.99939%);fill-opacity:1;stroke-width:0.03;stroke-linecap:square;stroke-linejoin:miter;stroke:rgb(39.99939%,39.99939%,39.99939%);stroke-opacity:1;stroke-miterlimit:3.239307;" d="M 361.765625 310.109375 L 361.703125 310.308594 L 347.828125 302.835938 Z M 361.765625 310.109375 " transform="matrix(1,0,0,1,-74,-13)"/>
<path style="fill-rule:nonzero;fill:rgb(39.99939%,39.99939%,39.99939%);fill-opacity:1;stroke-width:0.03;stroke-linecap:square;stroke-linejoin:miter;stroke:rgb(39.99939%,39.99939%,39.99939%);stroke-opacity:1;stroke-miterlimit:3.239307;" d="M 382.570312 321.570312 L 365.195312 313.175781 L 365.546875 312.171875 Z M 382.570312 321.570312 " transform="matrix(1,0,0,1,-74,-13)"/>
<path style="fill-rule:nonzero;fill:rgb(39.99939%,39.99939%,39.99939%);fill-opacity:1;stroke-width:0.03;stroke-linecap:square;stroke-linejoin:miter;stroke:rgb(39.99939%,39.99939%,39.99939%);stroke-opacity:1;stroke-miterlimit:3.239307;" d="M 200.074219 220.007812 L 201.808594 211.882812 L 203.277344 212.398438 Z M 200.074219 220.007812 " transform="matrix(1,0,0,1,-74,-13)"/>
</g>
</svg>
