<?xml version="1.0" encoding="UTF-8"?>
<svg xmlns="http://www.w3.org/2000/svg" xmlns:xlink="http://www.w3.org/1999/xlink" width="361pt" height="361pt" viewBox="0 0 361 361" version="1.1">
<defs>
<clipPath id="clip1">
  <path d="M 132 313 L 153 313 L 153 360 L 132 360 Z M 132 313 "/>
</clipPath>
<clipPath id="clip2">
  <path d="M 115 311 L 139 311 L 139 360 L 115 360 Z M 115 311 "/>
</clipPath>
<clipPath id="clip3">
  <path d="M 100 310 L 123 310 L 123 360 L 100 360 Z M 100 310 "/>
</clipPath>
<clipPath id="clip4">
  <path d="M 29 354 L 61 354 L 61 360 L 29 360 Z M 29 354 "/>
</clipPath>
<clipPath id="clip5">
  <path d="M 54 357 L 79 357 L 79 360 L 54 360 Z M 54 357 "/>
</clipPath>
<clipPath id="clip6">
  <path d="M 188 355 L 212 355 L 212 360 L 188 360 Z M 188 355 "/>
</clipPath>
<clipPath id="clip7">
  <path d="M 225 333 L 237 333 L 237 360 L 225 360 Z M 225 333 "/>
</clipPath>
<clipPath id="clip8">
  <path d="M 213 344 L 225 344 L 225 360 L 213 360 Z M 213 344 "/>
</clipPath>
<clipPath id="clip9">
  <path d="M 264 326 L 309 326 L 309 360 L 264 360 Z M 264 326 "/>
</clipPath>
<clipPath id="clip10">
  <path d="M 242 333 L 277 333 L 277 360 L 242 360 Z M 242 333 "/>
</clipPath>
<clipPath id="clip11">
  <path d="M 297 332 L 308 332 L 308 360 L 297 360 Z M 297 332 "/>
</clipPath>
<clipPath id="clip12">
  <path d="M 161 359 L 190 359 L 190 360 L 161 360 Z M 161 359 "/>
</clipPath>
<clipPath id="clip13">
  <path d="M 327 330 L 360 330 L 360 360 L 327 360 Z M 327 330 "/>
</clipPath>
<clipPath id="clip14">
  <path d="M 297 327 L 329 327 L 329 360 L 297 360 Z M 297 327 "/>
</clipPath>
<clipPath id="clip15">
  <path d="M 359 333 L 360 333 L 360 360 L 359 360 Z M 359 333 "/>
</clipPath>
<clipPath id="clip16">
  <path d="M 323 111 L 360 111 L 360 195 L 323 195 Z M 323 111 "/>
</clipPath>
<clipPath id="clip17">
  <path d="M 341 196 L 360 196 L 360 249 L 341 249 Z M 341 196 "/>
</clipPath>
<clipPath id="clip18">
  <path d="M 353 60 L 360 60 L 360 92 L 353 92 Z M 353 60 "/>
</clipPath>
<clipPath id="clip19">
  <path d="M 328 0 L 360 0 L 360 7 L 328 7 Z M 328 0 "/>
</clipPath>
<clipPath id="clip20">
  <path d="M 342 6 L 360 6 L 360 48 L 342 48 Z M 342 6 "/>
</clipPath>
<clipPath id="clip21">
  <path d="M 312 253 L 360 253 L 360 329 L 312 329 Z M 312 253 "/>
</clipPath>
<clipPath id="clip22">
  <path d="M 338 236 L 360 236 L 360 263 L 338 263 Z M 338 236 "/>
</clipPath>
<clipPath id="clip23">
  <path d="M 0 331 L 9 331 L 9 360 L 0 360 Z M 0 331 "/>
</clipPath>
<clipPath id="clip24">
  <path d="M 7 333 L 27 333 L 27 360 L 7 360 Z M 7 333 "/>
</clipPath>
<clipPath id="clip25">
  <path d="M 356 94 L 360 94 L 360 124 L 356 124 Z M 356 94 "/>
</clipPath>
<clipPath id="clip26">
  <path d="M 338 0 L 360 0 L 360 20 L 338 20 Z M 338 0 "/>
</clipPath>
<clipPath id="clip27">
  <path d="M 340 140 L 360 140 L 360 195 L 340 195 Z M 340 140 "/>
</clipPath>
<clipPath id="clip28">
  <path d="M 339 139 L 360 139 L 360 197 L 339 197 Z M 339 139 "/>
</clipPath>
<clipPath id="clip29">
  <path d="M 307 169 L 360 169 L 360 224 L 307 224 Z M 307 169 "/>
</clipPath>
<clipPath id="clip30">
  <path d="M 306 168 L 360 168 L 360 225 L 306 225 Z M 306 168 "/>
</clipPath>
<clipPath id="clip31">
  <path d="M 340 7 L 360 7 L 360 62 L 340 62 Z M 340 7 "/>
</clipPath>
<clipPath id="clip32">
  <path d="M 339 5 L 360 5 L 360 63 L 339 63 Z M 339 5 "/>
</clipPath>
</defs>
<g id="surface5376">
<path style="fill-rule:nonzero;fill:rgb(0%,0%,0%);fill-opacity:1;stroke-width:0.03;stroke-linecap:square;stroke-linejoin:miter;stroke:rgb(0%,0%,0%);stroke-opacity:1;stroke-miterlimit:10;" d="M 0 178 L 360 178 L 360 -182 L 0 -182 Z M 0 178 " transform="matrix(1,0,0,1,0,182)"/>
<g clip-path="url(#clip1)" clip-rule="nonzero">
<path style=" stroke:none;fill-rule:nonzero;fill:rgb(39.99939%,39.99939%,39.99939%);fill-opacity:0.3;" d="M 140.804688 313.457031 L 152.09375 314.546875 L 150.847656 366.820312 L 132.382812 364.386719 Z M 140.804688 313.457031 "/>
</g>
<g clip-path="url(#clip2)" clip-rule="nonzero">
<path style=" stroke:none;fill-rule:nonzero;fill:rgb(39.99939%,39.99939%,39.99939%);fill-opacity:0.3;" d="M 125.449219 311.980469 L 138.679688 313.253906 L 129.351562 363.984375 L 115.832031 362.199219 Z M 125.449219 311.980469 "/>
</g>
<g clip-path="url(#clip3)" clip-rule="nonzero">
<path style=" stroke:none;fill-rule:nonzero;fill:rgb(39.99939%,39.99939%,39.99939%);fill-opacity:0.3;" d="M 108.558594 310.359375 L 122.792969 311.722656 L 112.972656 361.820312 L 100.464844 360.167969 Z M 108.558594 310.359375 "/>
</g>
<path style=" stroke:none;fill-rule:nonzero;fill:rgb(39.99939%,39.99939%,39.99939%);fill-opacity:0.3;" d="M 90.382812 308.621094 L 106.265625 310.140625 L 97.835938 359.820312 L 81.550781 357.667969 Z M 90.382812 308.621094 "/>
<path style=" stroke:none;fill-rule:nonzero;fill:rgb(39.99939%,39.99939%,39.99939%);fill-opacity:0.3;" d="M 71.683594 306.839844 L 87.847656 308.378906 L 79.023438 357.335938 L 63.316406 355.261719 Z M 71.683594 306.839844 "/>
<path style=" stroke:none;fill-rule:nonzero;fill:rgb(39.99939%,39.99939%,39.99939%);fill-opacity:0.3;" d="M 50.605469 304.835938 L 69.355469 306.617188 L 60.40625 354.882812 L 40.652344 352.265625 Z M 50.605469 304.835938 "/>
<g clip-path="url(#clip4)" clip-rule="nonzero">
<path style=" stroke:none;fill-rule:nonzero;fill:rgb(39.99939%,39.99939%,39.99939%);fill-opacity:0.3;" d="M 40.046875 354.847656 L 60.050781 357.480469 L 51.75 402.8125 L 29.785156 400.144531 Z M 40.046875 354.847656 "/>
</g>
<g clip-path="url(#clip5)" clip-rule="nonzero">
<path style=" stroke:none;fill-rule:nonzero;fill:rgb(39.99939%,39.99939%,39.99939%);fill-opacity:0.3;" d="M 62.921875 357.859375 L 78.558594 359.921875 L 69.851562 405.085938 L 54.519531 403.160156 Z M 62.921875 357.859375 "/>
</g>
<g clip-path="url(#clip6)" clip-rule="nonzero">
<path style=" stroke:none;fill-rule:nonzero;fill:rgb(39.99939%,39.99939%,39.99939%);fill-opacity:0.3;" d="M 188.980469 355.578125 L 211.367188 356.261719 L 211.3125 362 L 195.183594 361.460938 L 195.257812 360.054688 L 195.371094 357.976562 L 189.375 357.898438 L 188.90625 357.890625 Z M 188.980469 355.578125 "/>
</g>
<path style=" stroke:none;fill-rule:nonzero;fill:rgb(39.99939%,39.99939%,39.99939%);fill-opacity:0.3;" d="M 202.859375 330.714844 L 203.230469 318.664062 L 237.003906 322.0625 L 236.640625 332.050781 Z M 202.859375 330.714844 "/>
<path style=" stroke:none;fill-rule:nonzero;fill:rgb(39.99939%,39.99939%,39.99939%);fill-opacity:0.3;" d="M 202.328125 342.515625 L 202.785156 332.296875 L 224.21875 333.148438 L 224.089844 343.191406 Z M 202.328125 342.515625 "/>
<path style=" stroke:none;fill-rule:nonzero;fill:rgb(39.99939%,39.99939%,39.99939%);fill-opacity:0.3;" d="M 164.113281 314.789062 L 175.492188 315.90625 L 174.949219 326.652344 L 176.1875 326.753906 L 177.390625 326.886719 L 177.867188 316.140625 L 188.296875 317.175781 L 188.082031 327.875 L 189.152344 327.96875 L 190.226562 328.0625 L 190.519531 317.394531 L 201.042969 318.445312 L 200.339844 342.457031 L 189.503906 342.128906 L 189.792969 336.929688 L 188.730469 336.9375 L 187.707031 336.953125 L 186.847656 357.585938 L 176.722656 357.316406 L 177.035156 344.890625 L 176.25 344.894531 L 175.457031 344.898438 L 174.992188 357.269531 L 163.140625 356.953125 Z M 164.113281 314.789062 "/>
<g clip-path="url(#clip7)" clip-rule="nonzero">
<path style=" stroke:none;fill-rule:nonzero;fill:rgb(39.99939%,39.99939%,39.99939%);fill-opacity:0.3;" d="M 225.933594 333.21875 L 236.582031 333.648438 L 235.777344 362.53125 L 225.65625 362.445312 Z M 225.933594 333.21875 "/>
</g>
<g clip-path="url(#clip8)" clip-rule="nonzero">
<path style=" stroke:none;fill-rule:nonzero;fill:rgb(39.99939%,39.99939%,39.99939%);fill-opacity:0.3;" d="M 213.761719 344.476562 L 224.074219 344.789062 L 223.941406 362.414062 L 213.378906 362.175781 Z M 213.761719 344.476562 "/>
</g>
<path style=" stroke:none;fill-rule:nonzero;fill:rgb(39.99939%,39.99939%,39.99939%);fill-opacity:0.3;" d="M 189.425781 343.734375 L 211.71875 344.414062 L 211.46875 354.589844 L 189.042969 353.898438 Z M 189.425781 343.734375 "/>
<path style=" stroke:none;fill-rule:nonzero;fill:rgb(39.99939%,39.99939%,39.99939%);fill-opacity:0.3;" d="M 245.167969 323.785156 L 281.550781 326 L 277.355469 336.316406 L 244.691406 332.375 Z M 245.167969 323.785156 "/>
<g clip-path="url(#clip9)" clip-rule="nonzero">
<path style=" stroke:none;fill-rule:nonzero;fill:rgb(39.99939%,39.99939%,39.99939%);fill-opacity:0.3;" d="M 285.011719 326.210938 L 308.925781 327.695312 L 308.90625 327.769531 L 303.941406 333.660156 L 303.359375 334.851562 L 302.863281 335.949219 L 302.648438 337.039062 L 302.617188 338.175781 L 300.578125 344.765625 L 287.582031 391.503906 L 264.953125 385.539062 L 270.058594 364.628906 L 275.785156 347.527344 L 280.066406 337.59375 Z M 285.011719 326.210938 "/>
</g>
<g clip-path="url(#clip10)" clip-rule="nonzero">
<path style=" stroke:none;fill-rule:nonzero;fill:rgb(39.99939%,39.99939%,39.99939%);fill-opacity:0.3;" d="M 244.589844 333.796875 L 254.824219 335.152344 L 253.058594 350.570312 L 253.910156 350.691406 L 254.667969 350.800781 L 256.457031 335.371094 L 276.820312 338.082031 L 273.183594 346.589844 L 268.042969 362.441406 L 256.375 355.6875 L 255.839844 356.613281 L 255.226562 357.671875 L 267.261719 364.3125 L 261.160156 387.972656 L 255.808594 400.042969 L 252.335938 403.277344 L 243.578125 419.890625 L 243.398438 420.074219 L 243.082031 420.132812 L 242.792969 420.019531 L 242.617188 419.839844 L 242.566406 419.527344 L 243.304688 377.941406 L 256.339844 379.398438 L 256.375 378.386719 L 256.445312 377.648438 L 243.25 376.160156 Z M 244.589844 333.796875 "/>
</g>
<g clip-path="url(#clip11)" clip-rule="nonzero">
<path style=" stroke:none;fill-rule:nonzero;fill:rgb(39.99939%,39.99939%,39.99939%);fill-opacity:0.3;" d="M 297.152344 365.179688 L 304.632812 338.550781 L 304.847656 337.195312 L 305.171875 335.984375 L 305.585938 335.023438 L 306.132812 333.996094 L 307.546875 332.242188 L 307.625 332.15625 L 297.957031 365.300781 Z M 297.152344 365.179688 "/>
</g>
<path style=" stroke:none;fill-rule:nonzero;fill:rgb(39.99939%,39.99939%,39.99939%);fill-opacity:0.3;" d="M 170.367188 310.40625 L 164.804688 309.957031 L 164.808594 309.746094 Z M 170.367188 310.40625 "/>
<g clip-path="url(#clip12)" clip-rule="nonzero">
<path style=" stroke:none;fill-rule:nonzero;fill:rgb(39.99939%,39.99939%,39.99939%);fill-opacity:0.3;" d="M 163.082031 359.738281 L 187.929688 360.144531 L 188.578125 360.335938 L 188.972656 360.742188 L 189.175781 361.300781 L 188.984375 370.671875 L 172.921875 370.214844 L 169.316406 370.113281 L 169.265625 370.921875 L 169.214844 371.738281 L 171.917969 371.894531 L 170.082031 418.171875 L 161.484375 416.789062 Z M 163.082031 359.738281 "/>
</g>
<path style=" stroke:none;fill-rule:nonzero;fill:rgb(39.99939%,39.99939%,39.99939%);fill-opacity:0.3;" d="M 308.925781 327.695312 L 308.964844 327.699219 L 308.90625 327.769531 Z M 308.925781 327.695312 "/>
<g clip-path="url(#clip13)" clip-rule="nonzero">
<path style=" stroke:none;fill-rule:nonzero;fill:rgb(39.99939%,39.99939%,39.99939%);fill-opacity:0.3;" d="M 328.328125 369.84375 L 330.027344 358.039062 L 327.484375 350.429688 L 331.953125 330.136719 L 360.605469 333.355469 L 355.210938 373.917969 Z M 328.328125 369.84375 "/>
</g>
<g clip-path="url(#clip14)" clip-rule="nonzero">
<path style=" stroke:none;fill-rule:nonzero;fill:rgb(39.99939%,39.99939%,39.99939%);fill-opacity:0.3;" d="M 307.625 332.15625 L 311.660156 327.867188 L 319.265625 328.71875 L 317.921875 333.136719 L 319.378906 333.480469 L 318.515625 336.3125 L 319.484375 336.578125 L 320.433594 336.839844 L 321.480469 333.082031 L 319.773438 332.628906 L 320.929688 328.902344 L 328.957031 329.804688 L 324.074219 350.554688 L 319.863281 349.0625 L 319.472656 349.640625 L 318.984375 350.414062 L 322.265625 352.015625 L 323.074219 353.882812 L 327.082031 355.664062 L 325.660156 369.410156 L 297.957031 365.300781 Z M 307.625 332.15625 "/>
</g>
<g clip-path="url(#clip15)" clip-rule="nonzero">
<path style=" stroke:none;fill-rule:nonzero;fill:rgb(39.99939%,39.99939%,39.99939%);fill-opacity:0.3;" d="M 364.269531 333.804688 L 378.5625 335.367188 L 374.074219 373.433594 L 373.886719 375.019531 L 359.695312 372.296875 Z M 364.269531 333.804688 "/>
</g>
<path style=" stroke:none;fill-rule:nonzero;fill:rgb(39.99939%,39.99939%,39.99939%);fill-opacity:0.3;" d="M 332.308594 325.347656 L 330.796875 325.175781 L 331.90625 325.285156 Z M 332.308594 325.347656 "/>
<path style=" stroke:none;fill-rule:nonzero;fill:rgb(39.99939%,39.99939%,39.99939%);fill-opacity:0.3;" d="M 358.914062 91.582031 L 358.90625 91.585938 L 358.445312 91.5625 L 358.082031 91.269531 L 353.132812 65.3125 L 353.222656 64.875 L 354.992188 69.53125 L 355.710938 74.222656 L 357.515625 86.125 Z M 358.914062 91.582031 "/>
<path style=" stroke:none;fill-rule:nonzero;fill:rgb(39.99939%,39.99939%,39.99939%);fill-opacity:0.3;" d="M 319.695312 48.222656 L 318.691406 48.25 L 318.691406 48.234375 Z M 319.695312 48.222656 "/>
<path style=" stroke:none;fill-rule:nonzero;fill:rgb(39.99939%,39.99939%,39.99939%);fill-opacity:0.3;" d="M 313.671875 204.5625 L 313.746094 204.253906 L 325.050781 206.042969 L 320.722656 205.523438 Z M 313.671875 204.5625 "/>
<path style=" stroke:none;fill-rule:nonzero;fill:rgb(39.99939%,39.99939%,39.99939%);fill-opacity:0.3;" d="M 250.199219 147.832031 L 273.875 148.851562 L 280.945312 150 L 280.75 150.761719 L 278.886719 150.75 L 278.886719 151.808594 L 279.261719 151.914062 L 279.074219 153.4375 L 279.316406 153.523438 L 279.554688 153.605469 L 279.929688 151.417969 L 281.761719 151.640625 L 281.449219 153.84375 L 281.910156 153.890625 L 282.367188 153.941406 L 283.074219 149.957031 L 298.035156 152.828125 L 298.28125 153.792969 L 315.855469 156.445312 L 314.679688 166.855469 L 314.445312 173.265625 L 314.777344 176.101562 L 315.335938 182.136719 L 294.050781 179.253906 L 293.753906 181.316406 L 316.09375 184.492188 L 315.914062 186.984375 L 314.925781 187.042969 L 313.378906 198.042969 L 299.796875 195.269531 L 301.773438 186.328125 L 300.808594 186.199219 L 299.730469 186.058594 L 297.792969 195.007812 L 283.808594 192.6875 L 286.078125 181.558594 L 285.46875 181.472656 L 284.722656 181.339844 L 282.386719 192.429688 L 268.207031 189.734375 L 270.167969 178.734375 L 269.324219 178.609375 L 268.472656 178.484375 L 266.105469 189.503906 L 252.1875 186.84375 L 252.0625 184.863281 L 248.15625 184.636719 Z M 250.199219 147.832031 "/>
<path style=" stroke:none;fill-rule:nonzero;fill:rgb(39.99939%,39.99939%,39.99939%);fill-opacity:0.3;" d="M 321.761719 111.835938 L 318.019531 144.953125 L 310.289062 144.035156 L 310.1875 144.558594 L 310.089844 145.050781 L 317.78125 146.246094 L 316.730469 153.015625 L 274.984375 146.078125 L 276.214844 141.234375 L 275.363281 141.082031 L 274.414062 140.921875 L 273.066406 145.738281 L 249.914062 144.246094 L 250.078125 115.617188 L 276.734375 122.058594 L 279.109375 113.425781 L 287.191406 115.433594 L 286.652344 117.160156 L 287.945312 117.605469 L 285.648438 124.234375 L 282.691406 140.414062 L 284.050781 140.59375 L 285.808594 140.550781 L 288.5625 124.371094 L 287.898438 123.671875 L 288.8125 120.519531 L 289.65625 120.59375 L 292.597656 110.46875 L 293.660156 110.328125 L 294.253906 106.597656 L 312.746094 110.644531 Z M 321.761719 111.835938 "/>
<path style=" stroke:none;fill-rule:nonzero;fill:rgb(39.99939%,39.99939%,39.99939%);fill-opacity:0.3;" d="M 280.714844 104.917969 L 291.820312 106.113281 L 290.1875 112.320312 L 279.496094 109.851562 Z M 280.714844 104.917969 "/>
<path style=" stroke:none;fill-rule:nonzero;fill:rgb(39.99939%,39.99939%,39.99939%);fill-opacity:0.3;" d="M 330.570312 140.820312 L 349.6875 144.820312 L 348.523438 150.320312 L 329.144531 146.195312 Z M 330.570312 140.820312 "/>
<g clip-path="url(#clip16)" clip-rule="nonzero">
<path style=" stroke:none;fill-rule:nonzero;fill:rgb(39.99939%,39.99939%,39.99939%);fill-opacity:0.3;" d="M 325.257812 111.820312 L 360.433594 115.410156 L 362.90625 134.167969 L 371.96875 179.367188 L 376.039062 194.585938 L 347.007812 194.207031 L 347.40625 182.476562 L 347.410156 172.160156 L 348.085938 166.074219 L 352.902344 143.40625 L 345.679688 142.042969 L 328.289062 138.847656 L 329.382812 132.195312 L 334.007812 132.949219 L 334.792969 128.582031 L 344.984375 130.234375 L 345.039062 129.65625 L 345.101562 129 L 334.179688 127.492188 L 332.972656 131.097656 L 329.441406 130.71875 L 323.167969 129.71875 L 324.511719 123.742188 L 335.625 124.914062 L 335.6875 124.398438 L 335.71875 123.847656 L 324.863281 122.441406 Z M 325.257812 111.820312 "/>
</g>
<path style=" stroke:none;fill-rule:nonzero;fill:rgb(39.99939%,39.99939%,39.99939%);fill-opacity:0.3;" d="M 249.96875 65.144531 L 329.457031 63.265625 L 329.441406 68.5 L 320.496094 68.589844 L 320.496094 70.308594 L 331.039062 70.191406 L 331.109375 63.261719 L 348.296875 63.042969 L 351.113281 76.261719 L 315.394531 76.484375 L 315.394531 77.242188 L 315.398438 78.003906 L 351.484375 77.917969 L 355.273438 94.917969 L 337.058594 94.542969 L 336.996094 95.171875 L 336.949219 95.800781 L 355.535156 96.1875 L 359.394531 113.238281 L 325.472656 109.746094 L 314.582031 108.347656 L 316.734375 96.917969 L 315.53125 96.714844 L 314.335938 96.511719 L 312.128906 107.800781 L 298.253906 105.769531 L 302.742188 83.277344 L 302.324219 83.226562 L 301.898438 83.171875 L 297.503906 105.644531 L 293.046875 104.828125 L 296.011719 88.707031 L 295.328125 88.625 L 294.683594 88.546875 L 291.570312 104.394531 L 271.1875 101.234375 L 274.453125 76.929688 L 285.289062 77.546875 L 285.289062 76.023438 L 272.847656 75.285156 L 269.648438 96.582031 L 268.308594 98.738281 L 267.105469 99.757812 L 265.234375 100.519531 L 249.4375 98.40625 Z M 249.96875 65.144531 "/>
<path style=" stroke:none;fill-rule:nonzero;fill:rgb(39.99939%,39.99939%,39.99939%);fill-opacity:0.3;" d="M 249.785156 99.734375 L 279.308594 104.78125 L 277.976562 111.488281 L 275.867188 120.949219 L 250.136719 114.738281 Z M 249.785156 99.734375 "/>
<path style=" stroke:none;fill-rule:nonzero;fill:rgb(39.99939%,39.99939%,39.99939%);fill-opacity:0.3;" d="M 323.21875 131.371094 L 328.023438 132.273438 L 325.757812 145.722656 L 320.796875 145.164062 Z M 323.21875 131.371094 "/>
<path style=" stroke:none;fill-rule:nonzero;fill:rgb(39.99939%,39.99939%,39.99939%);fill-opacity:0.3;" d="M 320.820312 146.558594 L 326.054688 147.082031 L 348.609375 152.019531 L 345.976562 165.542969 L 345.421875 176.398438 L 345.3125 189.125 L 344.34375 197.371094 L 342.921875 207.34375 L 314.195312 203.050781 L 315.070312 200.148438 L 328.628906 202.621094 L 328.761719 201.175781 L 315.761719 198.726562 L 318.273438 188.324219 L 319.359375 183.855469 L 318.941406 180.160156 L 317.765625 175.472656 L 317.554688 171.566406 L 317.765625 166.8125 L 318.5625 157.492188 Z M 320.820312 146.558594 "/>
<g clip-path="url(#clip17)" clip-rule="nonzero">
<path style=" stroke:none;fill-rule:nonzero;fill:rgb(39.99939%,39.99939%,39.99939%);fill-opacity:0.3;" d="M 347.011719 196.269531 L 376.628906 196.792969 L 391.898438 248.433594 L 341.566406 236.589844 L 342.644531 231.273438 L 344.675781 220.097656 L 346.4375 219.628906 Z M 347.011719 196.269531 "/>
</g>
<g clip-path="url(#clip18)" clip-rule="nonzero">
<path style=" stroke:none;fill-rule:nonzero;fill:rgb(39.99939%,39.99939%,39.99939%);fill-opacity:0.3;" d="M 358.183594 62.15625 L 376.078125 60.554688 L 371.289062 68.238281 L 366.917969 76.117188 L 362.703125 84.789062 L 360.53125 89.367188 L 359.730469 90.96875 L 359.425781 91.339844 L 358.914062 91.582031 L 357.515625 86.125 L 355.710938 74.222656 L 354.992188 69.53125 L 353.222656 64.875 L 353.339844 64.308594 L 353.933594 63.472656 L 354.765625 62.972656 L 355.6875 62.59375 L 356.753906 62.304688 Z M 358.183594 62.15625 "/>
</g>
<path style=" stroke:none;fill-rule:nonzero;fill:rgb(39.99939%,39.99939%,39.99939%);fill-opacity:0.3;" d="M -9.113281 -60.648438 L 8.246094 -59.1875 L 4.101562 14.859375 L -13.398438 14.238281 Z M -9.113281 -60.648438 "/>
<path style=" stroke:none;fill-rule:nonzero;fill:rgb(39.99939%,39.99939%,39.99939%);fill-opacity:0.3;" d="M 11.855469 -58.886719 L 26.527344 -57.667969 L 22.183594 15.503906 L 6.792969 14.957031 Z M 11.855469 -58.886719 "/>
<path style=" stroke:none;fill-rule:nonzero;fill:rgb(39.99939%,39.99939%,39.99939%);fill-opacity:0.3;" d="M 29.714844 -57.378906 L 45.214844 -56.074219 L 40.3125 16.148438 L 25.128906 15.609375 Z M 29.714844 -57.378906 "/>
<path style=" stroke:none;fill-rule:nonzero;fill:rgb(39.99939%,39.99939%,39.99939%);fill-opacity:0.3;" d="M 48.285156 -55.816406 L 65.625 -54.355469 L 61.253906 16.816406 L 44.234375 16.289062 Z M 48.285156 -55.816406 "/>
<path style=" stroke:none;fill-rule:nonzero;fill:rgb(39.99939%,39.99939%,39.99939%);fill-opacity:0.3;" d="M 68.535156 -54.117188 L 162.25 -52.792969 L 159.945312 18.578125 L 96.121094 17.8125 L 64.714844 16.957031 Z M 68.535156 -54.117188 "/>
<path style=" stroke:none;fill-rule:nonzero;fill:rgb(39.99939%,39.99939%,39.99939%);fill-opacity:0.3;" d="M 255.84375 -8.1875 L 325.199219 -7.441406 L 330.339844 8.730469 L 254.921875 7.921875 Z M 255.84375 -8.1875 "/>
<path style=" stroke:none;fill-rule:nonzero;fill:rgb(39.99939%,39.99939%,39.99939%);fill-opacity:0.3;" d="M 220.789062 29.988281 L 245.609375 30.589844 L 243.777344 48.34375 L 243.347656 49.484375 L 242.746094 50.542969 L 241.523438 51.3125 L 241.011719 51.429688 L 233.125 52.109375 L 220.519531 52.980469 Z M 220.789062 29.988281 "/>
<path style=" stroke:none;fill-rule:nonzero;fill:rgb(39.99939%,39.99939%,39.99939%);fill-opacity:0.3;" d="M 216.34375 -4.300781 L 229.644531 -3.917969 L 228.664062 26.585938 L 215.628906 26.390625 Z M 216.34375 -4.300781 "/>
<path style=" stroke:none;fill-rule:nonzero;fill:rgb(39.99939%,39.99939%,39.99939%);fill-opacity:0.3;" d="M 232.574219 -3.921875 L 248.929688 -3.609375 L 248.058594 8.320312 L 246.984375 20.503906 L 246.351562 26.855469 L 231.46875 26.628906 Z M 232.574219 -3.921875 "/>
<path style=" stroke:none;fill-rule:nonzero;fill:rgb(39.99939%,39.99939%,39.99939%);fill-opacity:0.3;" d="M 253.15625 26.957031 L 254.722656 10.523438 L 331.164062 11.34375 L 336.199219 27.875 Z M 253.15625 26.957031 "/>
<path style=" stroke:none;fill-rule:nonzero;fill:rgb(39.99939%,39.99939%,39.99939%);fill-opacity:0.3;" d="M 318.699219 30.878906 L 337.1875 31.140625 L 342.347656 47.617188 L 319.695312 48.222656 L 318.691406 48.234375 Z M 318.699219 30.878906 "/>
<path style=" stroke:none;fill-rule:nonzero;fill:rgb(39.99939%,39.99939%,39.99939%);fill-opacity:0.3;" d="M 297.179688 30.710938 L 315.164062 30.96875 L 314.996094 48.347656 L 296.957031 48.828125 Z M 297.179688 30.710938 "/>
<path style=" stroke:none;fill-rule:nonzero;fill:rgb(39.99939%,39.99939%,39.99939%);fill-opacity:0.3;" d="M 275.78125 30.480469 L 294.175781 30.679688 L 293.605469 48.917969 L 275.113281 49.414062 Z M 275.78125 30.480469 "/>
<path style=" stroke:none;fill-rule:nonzero;fill:rgb(39.99939%,39.99939%,39.99939%);fill-opacity:0.3;" d="M 252.996094 30.238281 L 273.203125 30.453125 L 272.40625 49.484375 L 250.8125 50.0625 L 251.386719 45.710938 L 252.347656 35.769531 Z M 252.996094 30.238281 "/>
<path style=" stroke:none;fill-rule:nonzero;fill:rgb(39.99939%,39.99939%,39.99939%);fill-opacity:0.3;" d="M 196.519531 29.382812 L 216.382812 29.597656 L 216.246094 53.027344 L 195.882812 54.242188 Z M 196.519531 29.382812 "/>
<path style=" stroke:none;fill-rule:nonzero;fill:rgb(39.99939%,39.99939%,39.99939%);fill-opacity:0.3;" d="M 172.371094 29.046875 L 191.84375 29.257812 L 191.324219 54.445312 L 171.558594 55.195312 Z M 172.371094 29.046875 "/>
<path style=" stroke:none;fill-rule:nonzero;fill:rgb(39.99939%,39.99939%,39.99939%);fill-opacity:0.3;" d="M 141.324219 28.636719 L 159.484375 29.019531 L 158.664062 55.382812 L 157.957031 56.152344 L 156.957031 56.625 L 147.515625 58.902344 L 140.425781 53.457031 Z M 141.324219 28.636719 "/>
<path style=" stroke:none;fill-rule:nonzero;fill:rgb(39.99939%,39.99939%,39.99939%);fill-opacity:0.3;" d="M 118.277344 36.566406 L 118.457031 28.210938 L 139.234375 28.597656 L 138.386719 52.4375 Z M 118.277344 36.566406 "/>
<path style=" stroke:none;fill-rule:nonzero;fill:rgb(39.99939%,39.99939%,39.99939%);fill-opacity:0.3;" d="M 118.0625 38.917969 L 144.632812 59.859375 L 138.390625 61.835938 L 131.886719 64.367188 L 127.011719 66.609375 L 120.90625 69.871094 L 117.886719 71.703125 L 117.257812 69.65625 Z M 118.0625 38.917969 "/>
<path style=" stroke:none;fill-rule:nonzero;fill:rgb(39.99939%,39.99939%,39.99939%);fill-opacity:0.3;" d="M 197.371094 -52.457031 L 209.621094 -54.761719 L 215.171875 -44.988281 L 213.179688 26.351562 L 195.109375 26.082031 Z M 197.371094 -52.457031 "/>
<path style=" stroke:none;fill-rule:nonzero;fill:rgb(39.99939%,39.99939%,39.99939%);fill-opacity:0.3;" d="M 174.84375 -48.214844 L 194.433594 -51.902344 L 192.042969 26.035156 L 172.472656 25.84375 Z M 174.84375 -48.214844 "/>
<g clip-path="url(#clip19)" clip-rule="nonzero">
<path style=" stroke:none;fill-rule:nonzero;fill:rgb(39.99939%,39.99939%,39.99939%);fill-opacity:0.3;" d="M 328.835938 -35.035156 L 388.410156 -38.109375 L 389.199219 -22.242188 L 378.074219 -22.46875 L 378.054688 -21.21875 L 378.039062 -19.964844 L 389.214844 -19.6875 L 389.902344 2.175781 L 341.460938 6.761719 L 334.691406 -14.664062 Z M 328.835938 -35.035156 "/>
</g>
<g clip-path="url(#clip20)" clip-rule="nonzero">
<path style=" stroke:none;fill-rule:nonzero;fill:rgb(39.99939%,39.99939%,39.99939%);fill-opacity:0.3;" d="M 342.472656 9.949219 L 389.390625 6.378906 L 389.617188 38.109375 L 387.566406 41.296875 L 386.035156 43.714844 L 384.457031 46.660156 L 353.242188 47.160156 L 347.339844 25.945312 Z M 342.472656 9.949219 "/>
</g>
<path style=" stroke:none;fill-rule:nonzero;fill:rgb(39.99939%,39.99939%,39.99939%);fill-opacity:0.3;" d="M 241.011719 51.429688 L 240.136719 51.625 L 233.125 52.109375 Z M 241.011719 51.429688 "/>
<path style=" stroke:none;fill-rule:nonzero;fill:rgb(39.99939%,39.99939%,39.99939%);fill-opacity:0.3;" d="M 153.257812 263.675781 L 145.453125 263.207031 L 151.746094 227.976562 L 154.695312 228.339844 Z M 153.257812 263.675781 "/>
<path style=" stroke:none;fill-rule:nonzero;fill:rgb(39.99939%,39.99939%,39.99939%);fill-opacity:0.3;" d="M 155.25 123.628906 L 156.570312 123.625 L 155.964844 143.519531 L 151.394531 143.613281 Z M 155.25 123.628906 "/>
<path style=" stroke:none;fill-rule:nonzero;fill:rgb(39.99939%,39.99939%,39.99939%);fill-opacity:0.3;" d="M 129.820312 145.804688 L 148.773438 146.171875 L 146.105469 158.902344 L 127.105469 158.023438 Z M 129.820312 145.804688 "/>
<path style=" stroke:none;fill-rule:nonzero;fill:rgb(39.99939%,39.99939%,39.99939%);fill-opacity:0.3;" d="M 107.226562 145.371094 L 126.476562 145.742188 L 118.085938 183.453125 L 99.078125 181.488281 Z M 107.226562 145.371094 "/>
<path style=" stroke:none;fill-rule:nonzero;fill:rgb(39.99939%,39.99939%,39.99939%);fill-opacity:0.3;" d="M 85.640625 144.957031 L 104.183594 145.3125 L 96.21875 181.191406 L 77.570312 179.261719 Z M 85.640625 144.957031 "/>
<path style=" stroke:none;fill-rule:nonzero;fill:rgb(39.99939%,39.99939%,39.99939%);fill-opacity:0.3;" d="M 98.703125 183.449219 L 117.625 185.398438 L 110.179688 220.382812 L 90.605469 218.355469 Z M 98.703125 183.449219 "/>
<path style=" stroke:none;fill-rule:nonzero;fill:rgb(39.99939%,39.99939%,39.99939%);fill-opacity:0.3;" d="M 77.210938 181.234375 L 95.792969 183.148438 L 87.792969 218.066406 L 69.800781 216.203125 Z M 77.210938 181.234375 "/>
<path style=" stroke:none;fill-rule:nonzero;fill:rgb(39.99939%,39.99939%,39.99939%);fill-opacity:0.3;" d="M 90.226562 220.320312 L 109.867188 222.34375 L 101.890625 256.628906 L 82.460938 254.617188 Z M 90.226562 220.320312 "/>
<path style=" stroke:none;fill-rule:nonzero;fill:rgb(39.99939%,39.99939%,39.99939%);fill-opacity:0.3;" d="M 69.242188 218.15625 L 87.441406 220.03125 L 79.730469 254.335938 L 61.222656 252.417969 Z M 69.242188 218.15625 "/>
<path style=" stroke:none;fill-rule:nonzero;fill:rgb(39.99939%,39.99939%,39.99939%);fill-opacity:0.3;" d="M 145.066406 266.519531 L 153.257812 266.714844 L 151.738281 308.570312 L 137.308594 307.183594 Z M 145.066406 266.519531 "/>
<path style=" stroke:none;fill-rule:nonzero;fill:rgb(39.99939%,39.99939%,39.99939%);fill-opacity:0.3;" d="M 82.046875 256.578125 L 101.382812 258.574219 L 91.90625 302.839844 L 72.554688 300.996094 Z M 82.046875 256.578125 "/>
<path style=" stroke:none;fill-rule:nonzero;fill:rgb(39.99939%,39.99939%,39.99939%);fill-opacity:0.3;" d="M 60.816406 254.386719 L 79.273438 256.292969 L 70.039062 300.757812 L 51.429688 298.992188 Z M 60.816406 254.386719 "/>
<path style=" stroke:none;fill-rule:nonzero;fill:rgb(39.99939%,39.99939%,39.99939%);fill-opacity:0.3;" d="M 144.988281 73.417969 L 145.59375 71.980469 L 146.644531 70.984375 L 148.417969 70.292969 L 155.234375 68.476562 L 158.28125 67.847656 L 156.882812 105.449219 L 138.867188 104.695312 Z M 144.988281 73.417969 "/>
<path style=" stroke:none;fill-rule:nonzero;fill:rgb(39.99939%,39.99939%,39.99939%);fill-opacity:0.3;" d="M 116.429688 103.792969 L 121.671875 82.164062 L 124.535156 79.9375 L 127.882812 77.871094 L 132.769531 75.207031 L 136.207031 73.488281 L 139.371094 72.453125 L 141.027344 72.085938 L 142.082031 72.3125 L 142.558594 72.878906 L 142.621094 73.753906 L 136.242188 104.589844 Z M 116.429688 103.792969 "/>
<path style=" stroke:none;fill-rule:nonzero;fill:rgb(39.99939%,39.99939%,39.99939%);fill-opacity:0.3;" d="M 99.945312 103.132812 L 103.195312 98.75 L 107.714844 93.511719 L 112.449219 88.664062 L 114.464844 86.847656 L 115.464844 86.269531 L 116.445312 86.285156 L 117.195312 86.554688 L 117.609375 87.046875 L 117.664062 87.492188 L 113.78125 103.6875 Z M 99.945312 103.132812 "/>
<path style=" stroke:none;fill-rule:nonzero;fill:rgb(39.99939%,39.99939%,39.99939%);fill-opacity:0.3;" d="M 138.417969 106.632812 L 156.703125 107.335938 L 156.179688 114.265625 L 148.835938 143.488281 L 130.371094 143.207031 Z M 138.417969 106.632812 "/>
<path style=" stroke:none;fill-rule:nonzero;fill:rgb(39.99939%,39.99939%,39.99939%);fill-opacity:0.3;" d="M 115.960938 105.734375 L 135.882812 106.53125 L 127.117188 143.144531 L 107.570312 142.769531 Z M 115.960938 105.734375 "/>
<path style=" stroke:none;fill-rule:nonzero;fill:rgb(39.99939%,39.99939%,39.99939%);fill-opacity:0.3;" d="M 86.167969 142.285156 L 87.636719 133.101562 L 89.550781 121.953125 L 91.042969 117.695312 L 92.980469 113.800781 L 94.476562 110.964844 L 96.941406 106.976562 L 98.507812 105.03125 L 113.394531 105.628906 L 104.605469 142.710938 Z M 86.167969 142.285156 "/>
<path style=" stroke:none;fill-rule:nonzero;fill:rgb(39.99939%,39.99939%,39.99939%);fill-opacity:0.3;" d="M 151.203125 146.21875 L 156.066406 146.3125 L 155.359375 159.332031 L 148.484375 159.011719 Z M 151.203125 146.21875 "/>
<path style=" stroke:none;fill-rule:nonzero;fill:rgb(39.99939%,39.99939%,39.99939%);fill-opacity:0.3;" d="M 235.40625 72.449219 L 238.398438 72.5625 L 238.339844 74.367188 L 239.070312 74.386719 L 239.046875 77.175781 L 234.441406 77.027344 L 234.492188 74.257812 L 235.339844 74.28125 Z M 235.40625 72.449219 "/>
<path style=" stroke:none;fill-rule:nonzero;fill:rgb(39.99939%,39.99939%,39.99939%);fill-opacity:0.3;" d="M 234.066406 80.570312 L 236.992188 80.617188 L 236.882812 83.492188 L 233.902344 83.496094 Z M 234.066406 80.570312 "/>
<path style=" stroke:none;fill-rule:nonzero;fill:rgb(39.99939%,39.99939%,39.99939%);fill-opacity:0.3;" d="M 228.480469 76.472656 L 232.601562 76.671875 L 232.4375 80.625 L 228.265625 80.375 Z M 228.480469 76.472656 "/>
<path style=" stroke:none;fill-rule:nonzero;fill:rgb(39.99939%,39.99939%,39.99939%);fill-opacity:0.3;" d="M 171.199219 66.863281 L 191.464844 66.425781 L 190.664062 105.894531 L 170.003906 105.929688 Z M 171.199219 66.863281 "/>
<path style=" stroke:none;fill-rule:nonzero;fill:rgb(39.99939%,39.99939%,39.99939%);fill-opacity:0.3;" d="M 218.726562 108.128906 L 242.210938 108.089844 L 241.890625 119.199219 L 230.976562 117.421875 L 230.90625 117.890625 L 230.816406 118.488281 L 241.863281 120.171875 L 241.71875 125.253906 L 231.589844 123.960938 L 231.484375 124.65625 L 231.367188 125.515625 L 241.675781 126.769531 L 241.175781 144.355469 L 241.023438 144.886719 L 240.792969 145.265625 L 240.378906 145.539062 L 229 145.289062 L 229.171875 140.988281 L 228.5625 140.960938 L 228.015625 140.933594 L 227.824219 145.265625 L 217.925781 145.046875 Z M 218.726562 108.128906 "/>
<path style=" stroke:none;fill-rule:nonzero;fill:rgb(39.99939%,39.99939%,39.99939%);fill-opacity:0.3;" d="M 194.113281 108.167969 L 214.78125 108.132812 L 213.992188 144.964844 L 193.148438 144.507812 Z M 194.113281 108.167969 "/>
<path style=" stroke:none;fill-rule:nonzero;fill:rgb(39.99939%,39.99939%,39.99939%);fill-opacity:0.3;" d="M 169.933594 108.210938 L 190.328125 108.175781 L 189.621094 144.433594 L 168.921875 143.800781 Z M 169.933594 108.210938 "/>
<path style=" stroke:none;fill-rule:nonzero;fill:rgb(39.99939%,39.99939%,39.99939%);fill-opacity:0.3;" d="M 168.714844 145.824219 L 189.816406 146.546875 L 188.894531 183.910156 L 169.351562 184.179688 L 167.359375 184.109375 Z M 168.714844 145.824219 "/>
<path style=" stroke:none;fill-rule:nonzero;fill:rgb(39.99939%,39.99939%,39.99939%);fill-opacity:0.3;" d="M 193.324219 146.632812 L 213.902344 147.140625 L 212.8125 184.847656 L 191.8125 183.921875 Z M 193.324219 146.632812 "/>
<path style=" stroke:none;fill-rule:nonzero;fill:rgb(39.99939%,39.99939%,39.99939%);fill-opacity:0.3;" d="M 217.957031 147.242188 L 240.976562 147.8125 L 240.652344 185.550781 L 216.96875 185 Z M 217.957031 147.242188 "/>
<path style=" stroke:none;fill-rule:nonzero;fill:rgb(39.99939%,39.99939%,39.99939%);fill-opacity:0.3;" d="M 219.277344 81.441406 L 225.179688 82.515625 L 225.375 81.488281 L 225.640625 80.445312 L 219.40625 79.308594 L 219.199219 65.972656 L 242.3125 65.472656 L 242.210938 105.808594 L 218.707031 105.847656 Z M 219.277344 81.441406 "/>
<path style=" stroke:none;fill-rule:nonzero;fill:rgb(39.99939%,39.99939%,39.99939%);fill-opacity:0.3;" d="M 194.933594 66.726562 L 216 65.9375 L 214.953125 105.851562 L 193.957031 105.886719 Z M 194.933594 66.726562 "/>
<path style=" stroke:none;fill-rule:nonzero;fill:rgb(39.99939%,39.99939%,39.99939%);fill-opacity:0.3;" d="M 124.757812 159.875 L 155.386719 161.292969 L 154.039062 200.648438 L 133.144531 306.785156 L 95.664062 303.199219 L 106.144531 252.042969 L 114.042969 215.414062 L 119.9375 183.984375 Z M 124.757812 159.875 "/>
<path style=" stroke:none;fill-rule:nonzero;fill:rgb(39.99939%,39.99939%,39.99939%);fill-opacity:0.3;" d="M 117.886719 71.703125 L 117.191406 72.125 L 117.257812 69.65625 Z M 117.886719 71.703125 "/>
<path style=" stroke:none;fill-rule:nonzero;fill:rgb(39.99939%,39.99939%,39.99939%);fill-opacity:0.3;" d="M 97.714844 27.828125 L 116.382812 28.171875 L 114.757812 66.546875 L 96.425781 66.0625 Z M 97.714844 27.828125 "/>
<path style=" stroke:none;fill-rule:nonzero;fill:rgb(39.99939%,39.99939%,39.99939%);fill-opacity:0.3;" d="M 96.3125 68.328125 L 114.660156 68.824219 L 114.617188 73.824219 L 112.542969 75.273438 L 109.992188 77.15625 L 106.992188 79.367188 L 103.292969 82.863281 L 100.019531 85.941406 L 95.496094 90.820312 Z M 96.3125 68.328125 "/>
<path style=" stroke:none;fill-rule:nonzero;fill:rgb(39.99939%,39.99939%,39.99939%);fill-opacity:0.3;" d="M 72.6875 68.347656 L 74.367188 68.554688 L 91.679688 68.558594 L 91.167969 95.003906 L 87.949219 99.382812 L 85.242188 104.269531 L 66.578125 101.5625 L 68.53125 91.691406 L 70.855469 95.171875 L 71.367188 94.726562 L 71.882812 94.269531 L 68.875 89.769531 Z M 72.6875 68.347656 "/>
<path style=" stroke:none;fill-rule:nonzero;fill:rgb(39.99939%,39.99939%,39.99939%);fill-opacity:0.3;" d="M 28.605469 228.742188 L 33.371094 229.089844 L 36.851562 228.855469 L 40.761719 228.15625 L 43.816406 227.402344 L 47.480469 225.773438 L 51.757812 223.335938 L 52.734375 222.929688 L 54.269531 222.746094 L 51.910156 234.546875 L 49.679688 233.03125 L 46.5625 231.871094 L 41.984375 230.710938 L 36.363281 230.074219 L 30.378906 229.613281 L 28.363281 229.265625 Z M 28.605469 228.742188 "/>
<path style=" stroke:none;fill-rule:nonzero;fill:rgb(39.99939%,39.99939%,39.99939%);fill-opacity:0.3;" d="M -11.167969 245.152344 L 3.121094 247.140625 L -2.457031 280.03125 L -16.632812 277.902344 Z M -11.167969 245.152344 "/>
<path style=" stroke:none;fill-rule:nonzero;fill:rgb(39.99939%,39.99939%,39.99939%);fill-opacity:0.3;" d="M -8.453125 227.464844 L 5.902344 229.410156 L 3.632812 242.789062 L -10.667969 240.800781 Z M -8.453125 227.464844 "/>
<path style=" stroke:none;fill-rule:nonzero;fill:rgb(39.99939%,39.99939%,39.99939%);fill-opacity:0.3;" d="M -5.402344 208.144531 L 8.847656 210.210938 L 7.136719 220.683594 L -7.089844 218.675781 Z M -5.402344 208.144531 "/>
<path style=" stroke:none;fill-rule:nonzero;fill:rgb(39.99939%,39.99939%,39.99939%);fill-opacity:0.3;" d="M 0.535156 172.167969 L 14.617188 174.210938 L 9.300781 207.625 L -4.960938 205.558594 Z M 0.535156 172.167969 "/>
<path style=" stroke:none;fill-rule:nonzero;fill:rgb(39.99939%,39.99939%,39.99939%);fill-opacity:0.3;" d="M -12.027344 130.441406 L 2.738281 132.59375 L -2.832031 166.421875 L -17.367188 164.316406 Z M -12.027344 130.441406 "/>
<path style=" stroke:none;fill-rule:nonzero;fill:rgb(39.99939%,39.99939%,39.99939%);fill-opacity:0.3;" d="M -6.023438 94.734375 L 8.917969 96.886719 L 3.542969 129.570312 L -11.238281 127.414062 Z M -6.023438 94.734375 "/>
<path style=" stroke:none;fill-rule:nonzero;fill:rgb(39.99939%,39.99939%,39.99939%);fill-opacity:0.3;" d="M -0.261719 58.0625 L 14.835938 60.339844 L 9.394531 93.503906 L -5.558594 91.339844 Z M -0.261719 58.0625 "/>
<path style=" stroke:none;fill-rule:nonzero;fill:rgb(39.99939%,39.99939%,39.99939%);fill-opacity:0.3;" d="M -14.113281 24.953125 L 0.898438 25.683594 L -3.675781 54.480469 L -18.355469 52.265625 Z M -14.113281 24.953125 "/>
<path style=" stroke:none;fill-rule:nonzero;fill:rgb(39.99939%,39.99939%,39.99939%);fill-opacity:0.3;" d="M 51.503906 179.625 L 46.433594 213.0625 L 32.289062 211.007812 L 37.621094 177.605469 Z M 51.503906 179.625 "/>
<path style=" stroke:none;fill-rule:nonzero;fill:rgb(39.99939%,39.99939%,39.99939%);fill-opacity:0.3;" d="M 45.414062 102.230469 L 40.082031 134.988281 L 25.90625 132.914062 L 31.328125 100.199219 Z M 45.414062 102.230469 "/>
<path style=" stroke:none;fill-rule:nonzero;fill:rgb(39.99939%,39.99939%,39.99939%);fill-opacity:0.3;" d="M 61.777344 27.851562 L 72.179688 28.164062 L 69.996094 64.992188 L 55.949219 63.25 Z M 61.777344 27.851562 "/>
<path style=" stroke:none;fill-rule:nonzero;fill:rgb(39.99939%,39.99939%,39.99939%);fill-opacity:0.3;" d="M 69.761719 68.046875 L 63.667969 101.183594 L 49.972656 99.195312 L 55.4375 66.253906 Z M 69.761719 68.046875 "/>
<path style=" stroke:none;fill-rule:nonzero;fill:rgb(39.99939%,39.99939%,39.99939%);fill-opacity:0.3;" d="M 43.039062 252.636719 L 49.023438 253.527344 L 38.535156 298.042969 L 34.957031 297.722656 L 38.417969 277.804688 Z M 43.039062 252.636719 "/>
<path style=" stroke:none;fill-rule:nonzero;fill:rgb(39.99939%,39.99939%,39.99939%);fill-opacity:0.3;" d="M 20.3125 286.417969 L 34.632812 288.570312 L 32.863281 297.425781 L 18.71875 296.15625 Z M 20.3125 286.417969 "/>
<path style=" stroke:none;fill-rule:nonzero;fill:rgb(39.99939%,39.99939%,39.99939%);fill-opacity:0.3;" d="M 1.5 283.605469 L 16.191406 285.742188 L 14.636719 295.808594 L -0.496094 294.519531 Z M 1.5 283.605469 "/>
<path style=" stroke:none;fill-rule:nonzero;fill:rgb(39.99939%,39.99939%,39.99939%);fill-opacity:0.3;" d="M 7.421875 247.738281 L 22.03125 249.773438 L 16.621094 282.769531 L 1.820312 280.671875 Z M 7.421875 247.738281 "/>
<path style=" stroke:none;fill-rule:nonzero;fill:rgb(39.99939%,39.99939%,39.99939%);fill-opacity:0.3;" d="M 26.042969 250.125 L 40.347656 252.261719 L 35.519531 278.722656 L 34.328125 285.351562 L 20.605469 283.292969 Z M 26.042969 250.125 "/>
<path style=" stroke:none;fill-rule:nonzero;fill:rgb(39.99939%,39.99939%,39.99939%);fill-opacity:0.3;" d="M 45.261719 235.992188 L 47.820312 236.410156 L 49.757812 237.101562 L 51.066406 238.765625 L 49.242188 250.371094 L 43.25 249.304688 Z M 45.261719 235.992188 "/>
<path style=" stroke:none;fill-rule:nonzero;fill:rgb(39.99939%,39.99939%,39.99939%);fill-opacity:0.3;" d="M 10.246094 230.003906 L 24.761719 231.972656 L 22.554688 245.453125 L 7.964844 243.421875 Z M 10.246094 230.003906 "/>
<path style=" stroke:none;fill-rule:nonzero;fill:rgb(39.99939%,39.99939%,39.99939%);fill-opacity:0.3;" d="M 28.34375 232.460938 L 42.78125 234.6875 L 40.742188 248.191406 L 26.136719 245.984375 Z M 28.34375 232.460938 "/>
<path style=" stroke:none;fill-rule:nonzero;fill:rgb(39.99939%,39.99939%,39.99939%);fill-opacity:0.3;" d="M 13.027344 210.816406 L 27.117188 212.859375 L 25.453125 223.269531 L 11.59375 221.3125 Z M 13.027344 210.816406 "/>
<path style=" stroke:none;fill-rule:nonzero;fill:rgb(39.99939%,39.99939%,39.99939%);fill-opacity:0.3;" d="M 31.882812 213.550781 L 46.046875 215.609375 L 45.175781 221.371094 L 41.066406 222.628906 L 36.929688 223.234375 L 30.996094 223.539062 L 30.347656 223.164062 Z M 31.882812 213.550781 "/>
<path style=" stroke:none;fill-rule:nonzero;fill:rgb(39.99939%,39.99939%,39.99939%);fill-opacity:0.3;" d="M 19.074219 174.859375 L 32.886719 176.867188 L 27.558594 210.273438 L 13.757812 208.269531 Z M 19.074219 174.859375 "/>
<path style=" stroke:none;fill-rule:nonzero;fill:rgb(39.99939%,39.99939%,39.99939%);fill-opacity:0.3;" d="M 53.738281 180.007812 L 62.957031 181.433594 L 59.972656 198.386719 L 55.964844 214.277344 L 54.980469 215.273438 L 53.996094 216.273438 L 50.601562 218.792969 L 47.578125 220.609375 Z M 53.738281 180.007812 "/>
<path style=" stroke:none;fill-rule:nonzero;fill:rgb(39.99939%,39.99939%,39.99939%);fill-opacity:0.3;" d="M 6.964844 133.210938 L 20.589844 135.199219 L 15.40625 169.136719 L 1.394531 167.035156 Z M 6.964844 133.210938 "/>
<path style=" stroke:none;fill-rule:nonzero;fill:rgb(39.99939%,39.99939%,39.99939%);fill-opacity:0.3;" d="M 24.839844 135.851562 L 38.988281 137.921875 L 33.523438 171.734375 L 19.644531 169.875 Z M 24.839844 135.851562 "/>
<path style=" stroke:none;fill-rule:nonzero;fill:rgb(39.99939%,39.99939%,39.99939%);fill-opacity:0.3;" d="M 43.546875 138.8125 L 57.183594 140.808594 L 51.925781 174.636719 L 38.085938 172.621094 Z M 43.546875 138.8125 "/>
<path style=" stroke:none;fill-rule:nonzero;fill:rgb(39.99939%,39.99939%,39.99939%);fill-opacity:0.3;" d="M 59.984375 140.996094 L 72.371094 142.8125 L 70.738281 149.191406 L 64.207031 176.121094 L 54.726562 174.824219 Z M 59.984375 140.996094 "/>
<path style=" stroke:none;fill-rule:nonzero;fill:rgb(39.99939%,39.99939%,39.99939%);fill-opacity:0.3;" d="M 13.050781 97.585938 L 26.683594 99.554688 L 21.261719 132.261719 L 7.675781 130.277344 Z M 13.050781 97.585938 "/>
<path style=" stroke:none;fill-rule:nonzero;fill:rgb(39.99939%,39.99939%,39.99939%);fill-opacity:0.3;" d="M 49.777344 102.550781 L 63.414062 104.519531 L 62.207031 111.085938 L 58.070312 137.3125 L 44.445312 135.316406 Z M 49.777344 102.550781 "/>
<path style=" stroke:none;fill-rule:nonzero;fill:rgb(39.99939%,39.99939%,39.99939%);fill-opacity:0.3;" d="M 66.003906 104.984375 L 83.660156 107.53125 L 80.195312 115.578125 L 78.945312 119.519531 L 76.71875 126.539062 L 74.652344 134.582031 L 73.347656 139.644531 L 60.667969 137.785156 L 64.847656 111.261719 Z M 66.003906 104.984375 "/>
<path style=" stroke:none;fill-rule:nonzero;fill:rgb(39.99939%,39.99939%,39.99939%);fill-opacity:0.3;" d="M 19.058594 60.976562 L 32.734375 63.035156 L 27.257812 96.09375 L 13.621094 94.117188 Z M 19.058594 60.976562 "/>
<path style=" stroke:none;fill-rule:nonzero;fill:rgb(39.99939%,39.99939%,39.99939%);fill-opacity:0.3;" d="M 37.1875 63.703125 L 51.265625 65.820312 L 45.796875 98.785156 L 31.714844 96.742188 Z M 37.1875 63.703125 "/>
<path style=" stroke:none;fill-rule:nonzero;fill:rgb(39.99939%,39.99939%,39.99939%);fill-opacity:0.3;" d="M 4.855469 25.875 L 20.363281 26.582031 L 15.324219 57.351562 L 0.214844 55.070312 Z M 4.855469 25.875 "/>
<path style=" stroke:none;fill-rule:nonzero;fill:rgb(39.99939%,39.99939%,39.99939%);fill-opacity:0.3;" d="M 76.042969 28.277344 L 94.058594 28.769531 L 92.976562 65.476562 L 74.164062 65.464844 L 73.839844 65.449219 Z M 76.042969 28.277344 "/>
<path style=" stroke:none;fill-rule:nonzero;fill:rgb(39.99939%,39.99939%,39.99939%);fill-opacity:0.3;" d="M 24.671875 26.71875 L 38.363281 27.140625 L 33.203125 60.046875 L 19.550781 57.988281 Z M 24.671875 26.71875 "/>
<path style=" stroke:none;fill-rule:nonzero;fill:rgb(39.99939%,39.99939%,39.99939%);fill-opacity:0.3;" d="M 42.957031 27.359375 L 57.554688 27.726562 L 51.757812 62.835938 L 37.65625 60.714844 Z M 42.957031 27.359375 "/>
<path style=" stroke:none;fill-rule:nonzero;fill:rgb(39.99939%,39.99939%,39.99939%);fill-opacity:0.3;" d="M 188.894531 183.910156 L 188.871094 184.867188 L 169.351562 184.179688 Z M 188.894531 183.910156 "/>
<path style=" stroke:none;fill-rule:nonzero;fill:rgb(39.99939%,39.99939%,39.99939%);fill-opacity:0.3;" d="M 212.8125 184.847656 L 212.789062 185.707031 L 191.769531 184.96875 L 191.8125 183.921875 Z M 212.8125 184.847656 "/>
<path style=" stroke:none;fill-rule:nonzero;fill:rgb(39.99939%,39.99939%,39.99939%);fill-opacity:0.3;" d="M 240.652344 185.550781 L 240.640625 186.6875 L 216.945312 185.855469 L 216.96875 185 Z M 240.652344 185.550781 "/>
<path style=" stroke:none;fill-rule:nonzero;fill:rgb(39.99939%,39.99939%,39.99939%);fill-opacity:0.3;" d="M 191.757812 187.253906 L 212.722656 187.988281 L 212.167969 207.359375 L 214.421875 207.433594 L 216.390625 207.480469 L 216.886719 188.136719 L 240.753906 188.976562 L 239.824219 226.324219 L 190.234375 224.574219 Z M 191.757812 187.253906 "/>
<path style=" stroke:none;fill-rule:nonzero;fill:rgb(39.99939%,39.99939%,39.99939%);fill-opacity:0.3;" d="M 167.253906 186.390625 L 188.878906 187.152344 L 187.457031 224.476562 L 166.625 223.742188 Z M 167.253906 186.390625 "/>
<path style=" stroke:none;fill-rule:nonzero;fill:rgb(39.99939%,39.99939%,39.99939%);fill-opacity:0.3;" d="M 166.605469 226.03125 L 187.253906 226.757812 L 186.066406 264.722656 L 165.652344 264.355469 Z M 166.605469 226.03125 "/>
<path style=" stroke:none;fill-rule:nonzero;fill:rgb(39.99939%,39.99939%,39.99939%);fill-opacity:0.3;" d="M 190.828125 226.882812 L 202.132812 227.28125 L 201.0625 264.996094 L 189.988281 264.792969 Z M 190.828125 226.882812 "/>
<path style=" stroke:none;fill-rule:nonzero;fill:rgb(39.99939%,39.99939%,39.99939%);fill-opacity:0.3;" d="M 203.972656 227.347656 L 239.730469 228.609375 L 239.125 265.6875 L 203.023438 265.03125 Z M 203.972656 227.347656 "/>
<path style=" stroke:none;fill-rule:nonzero;fill:rgb(39.99939%,39.99939%,39.99939%);fill-opacity:0.3;" d="M 228.644531 269.058594 L 238.90625 269.332031 L 238.246094 315.972656 L 227.753906 315.09375 Z M 228.644531 269.058594 "/>
<path style=" stroke:none;fill-rule:nonzero;fill:rgb(39.99939%,39.99939%,39.99939%);fill-opacity:0.3;" d="M 213.761719 268.664062 L 226.035156 268.988281 L 224.96875 314.863281 L 213.191406 313.890625 Z M 213.761719 268.664062 "/>
<path style=" stroke:none;fill-rule:nonzero;fill:rgb(39.99939%,39.99939%,39.99939%);fill-opacity:0.3;" d="M 189.539062 268.027344 L 210.070312 268.570312 L 209.492188 313.585938 L 188.582031 311.878906 Z M 189.539062 268.027344 "/>
<path style=" stroke:none;fill-rule:nonzero;fill:rgb(39.99939%,39.99939%,39.99939%);fill-opacity:0.3;" d="M 165.664062 267.402344 L 186.082031 267.9375 L 185.105469 311.597656 L 170.367188 310.40625 L 164.808594 309.746094 Z M 165.664062 267.402344 "/>
<g clip-path="url(#clip21)" clip-rule="nonzero">
<path style=" stroke:none;fill-rule:nonzero;fill:rgb(39.99939%,39.99939%,39.99939%);fill-opacity:0.3;" d="M 338.632812 253.402344 L 354.539062 256.96875 L 354.136719 268.363281 L 354.90625 268.367188 L 355.613281 268.378906 L 356.554688 257.308594 L 371.582031 259.964844 L 366.796875 292.722656 L 364.054688 311.746094 L 359.6875 311.421875 L 359.886719 308.804688 L 358.96875 308.703125 L 358.0625 308.605469 L 357.554688 314.226562 L 363.84375 314.628906 L 361.425781 328.585938 L 332.308594 325.347656 L 331.90625 325.285156 L 330.796875 325.175781 L 312.515625 323.144531 L 317.921875 298.96875 L 320.328125 292.570312 L 324.828125 285.246094 L 330.238281 278.636719 L 333.613281 270.734375 L 336.746094 261.597656 Z M 338.632812 253.402344 "/>
</g>
<path style=" stroke:none;fill-rule:nonzero;fill:rgb(39.99939%,39.99939%,39.99939%);fill-opacity:0.3;" d="M 248.761719 188.460938 L 281.503906 193.933594 L 280.324219 199.804688 L 274.363281 198.617188 L 274.265625 199.007812 L 274.148438 199.503906 L 280.195312 200.679688 L 277.804688 211.101562 L 279.40625 211.464844 L 280.777344 211.773438 L 283.234375 201.503906 L 294.199219 203.507812 L 294.335938 202.8125 L 294.441406 202.1875 L 283.59375 199.945312 L 284.757812 194.125 L 312.734375 199.878906 L 308.539062 215.53125 L 309.574219 215.828125 L 310.757812 216.203125 L 313.671875 204.5625 L 320.722656 205.523438 L 325.050781 206.042969 L 343.320312 208.929688 L 342.582031 214.824219 L 320.042969 210.253906 L 317.675781 218.222656 L 341.84375 223.035156 L 340.929688 228.199219 L 339.570312 228.078125 L 338.523438 234.871094 L 325.820312 232.359375 L 325.695312 232.804688 L 325.5625 233.277344 L 338.46875 235.871094 L 335.550781 254.671875 L 334.5625 259.136719 L 333.183594 263.949219 L 330.859375 270.871094 L 321.980469 268.699219 L 321.878906 269.152344 L 321.765625 269.570312 L 330.523438 271.769531 L 327.613281 278.027344 L 325.132812 281.21875 L 322.566406 284.527344 L 320.550781 287.292969 L 318.375 290.964844 L 316.605469 294.203125 L 315.710938 297.730469 L 310.445312 296.070312 L 310.355469 296.398438 L 310.25 296.777344 L 315.550781 298.476562 L 309.613281 322.703125 L 286.417969 320.347656 L 287.191406 309.230469 L 291.511719 285.523438 L 296.292969 272.320312 L 303.378906 254.433594 L 305.972656 254.75 L 308.945312 241.65625 L 313.996094 241.53125 L 317.617188 240.832031 L 317.59375 240.40625 L 317.574219 240.003906 L 313.921875 240.753906 L 309.023438 240.917969 L 311.664062 228.835938 L 311.296875 226.074219 L 310.601562 226.230469 L 309.910156 226.402344 L 310.230469 228.785156 L 307.203125 240.5625 L 296.632812 239.117188 L 283.636719 236.796875 L 247.71875 229.472656 Z M 248.761719 188.460938 "/>
<path style=" stroke:none;fill-rule:nonzero;fill:rgb(39.99939%,39.99939%,39.99939%);fill-opacity:0.3;" d="M 302.351562 240.925781 L 306.621094 241.589844 L 302.667969 251.632812 L 301.019531 251.453125 Z M 302.351562 240.925781 "/>
<path style=" stroke:none;fill-rule:nonzero;fill:rgb(39.99939%,39.99939%,39.99939%);fill-opacity:0.3;" d="M 342.195312 215.933594 L 341.453125 222.140625 L 319.023438 217.488281 L 320.863281 211.148438 Z M 342.195312 215.933594 "/>
<g clip-path="url(#clip22)" clip-rule="nonzero">
<path style=" stroke:none;fill-rule:nonzero;fill:rgb(39.99939%,39.99939%,39.99939%);fill-opacity:0.3;" d="M 391.898438 248.433594 L 396.089844 262.605469 L 338.871094 251.316406 L 340.445312 242.09375 L 341.566406 236.589844 Z M 391.898438 248.433594 "/>
</g>
<path style=" stroke:none;fill-rule:nonzero;fill:rgb(39.99939%,39.99939%,39.99939%);fill-opacity:0.3;" d="M 300.574219 250.359375 L 300.414062 251.933594 L 302.464844 252.230469 L 289.820312 286.144531 L 285.367188 309.414062 L 284.46875 320.097656 L 245.726562 315.488281 L 247.382812 268.089844 L 268.78125 269.019531 L 284.347656 272.332031 L 284.894531 271.140625 L 285.382812 269.921875 L 259.96875 265.546875 L 262.773438 252.269531 L 262.21875 252.207031 L 261.628906 252.148438 L 258.679688 265.410156 L 246.808594 263.496094 L 247.671875 230.511719 L 283.746094 238.226562 L 301.683594 240.863281 L 300.644531 249.699219 L 293.929688 249.179688 L 291.621094 250.265625 L 290.476562 252.902344 L 290.894531 252.957031 L 291.308594 253.007812 L 292.320312 250.683594 L 294.078125 249.855469 Z M 300.574219 250.359375 "/>
<g clip-path="url(#clip23)" clip-rule="nonzero">
<path style=" stroke:none;fill-rule:nonzero;fill:rgb(39.99939%,39.99939%,39.99939%);fill-opacity:0.3;" d="M -6.679688 331.449219 L 8.007812 333.433594 L 3 366.382812 L -11.347656 364.601562 Z M -6.679688 331.449219 "/>
</g>
<path style=" stroke:none;fill-rule:nonzero;fill:rgb(39.99939%,39.99939%,39.99939%);fill-opacity:0.3;" d="M -2.015625 299.425781 L 12.980469 301.058594 L 8.507812 330.40625 L -6.222656 328.417969 Z M -2.015625 299.425781 "/>
<g clip-path="url(#clip24)" clip-rule="nonzero">
<path style=" stroke:none;fill-rule:nonzero;fill:rgb(39.99939%,39.99939%,39.99939%);fill-opacity:0.3;" d="M 12.273438 333.976562 L 26.242188 335.890625 L 22.90625 348.707031 L 18.78125 368.308594 L 7.269531 366.878906 Z M 12.273438 333.976562 "/>
</g>
<path style=" stroke:none;fill-rule:nonzero;fill:rgb(39.99939%,39.99939%,39.99939%);fill-opacity:0.3;" d="M 17.085938 301.460938 L 35.148438 303.058594 L 29.253906 323.753906 L 26.902344 332.84375 L 12.59375 330.910156 Z M 17.085938 301.460938 "/>
<path style="fill-rule:nonzero;fill:rgb(39.99939%,39.99939%,39.99939%);fill-opacity:1;stroke-width:0.03;stroke-linecap:square;stroke-linejoin:miter;stroke:rgb(39.99939%,39.99939%,39.99939%);stroke-opacity:1;stroke-miterlimit:3.239307;" d="M 315.011719 64.429688 L 314.136719 64.625 L 307.125 65.109375 Z M 315.011719 64.429688 " transform="matrix(1,0,0,1,-74,-13)"/>
<path style="fill-rule:nonzero;fill:rgb(39.99939%,39.99939%,39.99939%);fill-opacity:1;stroke-width:0.03;stroke-linecap:square;stroke-linejoin:miter;stroke:rgb(39.99939%,39.99939%,39.99939%);stroke-opacity:1;stroke-miterlimit:3.239307;" d="M 227.257812 276.675781 L 219.453125 276.207031 L 225.746094 240.976562 L 228.695312 241.339844 Z M 227.257812 276.675781 " transform="matrix(1,0,0,1,-74,-13)"/>
<path style="fill-rule:nonzero;fill:rgb(39.99939%,39.99939%,39.99939%);fill-opacity:1;stroke-width:0.03;stroke-linecap:square;stroke-linejoin:miter;stroke:rgb(39.99939%,39.99939%,39.99939%);stroke-opacity:1;stroke-miterlimit:3.239307;" d="M 229.25 136.628906 L 230.570312 136.625 L 229.964844 156.519531 L 225.394531 156.613281 Z M 229.25 136.628906 " transform="matrix(1,0,0,1,-74,-13)"/>
<path style="fill-rule:nonzero;fill:rgb(39.99939%,39.99939%,39.99939%);fill-opacity:1;stroke-width:0.03;stroke-linecap:square;stroke-linejoin:miter;stroke:rgb(39.99939%,39.99939%,39.99939%);stroke-opacity:1;stroke-miterlimit:3.239307;" d="M 203.820312 158.804688 L 222.773438 159.171875 L 220.105469 171.902344 L 201.105469 171.023438 Z M 203.820312 158.804688 " transform="matrix(1,0,0,1,-74,-13)"/>
<path style="fill-rule:nonzero;fill:rgb(39.99939%,39.99939%,39.99939%);fill-opacity:1;stroke-width:0.03;stroke-linecap:square;stroke-linejoin:miter;stroke:rgb(39.99939%,39.99939%,39.99939%);stroke-opacity:1;stroke-miterlimit:3.239307;" d="M 181.226562 158.371094 L 200.476562 158.742188 L 192.085938 196.453125 L 173.078125 194.488281 Z M 181.226562 158.371094 " transform="matrix(1,0,0,1,-74,-13)"/>
<path style="fill-rule:nonzero;fill:rgb(39.99939%,39.99939%,39.99939%);fill-opacity:1;stroke-width:0.03;stroke-linecap:square;stroke-linejoin:miter;stroke:rgb(39.99939%,39.99939%,39.99939%);stroke-opacity:1;stroke-miterlimit:3.239307;" d="M 159.640625 157.957031 L 178.183594 158.3125 L 170.21875 194.191406 L 151.570312 192.261719 Z M 159.640625 157.957031 " transform="matrix(1,0,0,1,-74,-13)"/>
<path style="fill-rule:nonzero;fill:rgb(39.99939%,39.99939%,39.99939%);fill-opacity:1;stroke-width:0.03;stroke-linecap:square;stroke-linejoin:miter;stroke:rgb(39.99939%,39.99939%,39.99939%);stroke-opacity:1;stroke-miterlimit:3.239307;" d="M 172.703125 196.449219 L 191.625 198.398438 L 184.179688 233.382812 L 164.605469 231.355469 Z M 172.703125 196.449219 " transform="matrix(1,0,0,1,-74,-13)"/>
<path style="fill-rule:nonzero;fill:rgb(39.99939%,39.99939%,39.99939%);fill-opacity:1;stroke-width:0.03;stroke-linecap:square;stroke-linejoin:miter;stroke:rgb(39.99939%,39.99939%,39.99939%);stroke-opacity:1;stroke-miterlimit:3.239307;" d="M 151.210938 194.234375 L 169.792969 196.148438 L 161.792969 231.066406 L 143.800781 229.203125 Z M 151.210938 194.234375 " transform="matrix(1,0,0,1,-74,-13)"/>
<path style="fill-rule:nonzero;fill:rgb(39.99939%,39.99939%,39.99939%);fill-opacity:1;stroke-width:0.03;stroke-linecap:square;stroke-linejoin:miter;stroke:rgb(39.99939%,39.99939%,39.99939%);stroke-opacity:1;stroke-miterlimit:3.239307;" d="M 164.226562 233.320312 L 183.867188 235.34375 L 175.890625 269.628906 L 156.460938 267.617188 Z M 164.226562 233.320312 " transform="matrix(1,0,0,1,-74,-13)"/>
<path style="fill-rule:nonzero;fill:rgb(39.99939%,39.99939%,39.99939%);fill-opacity:1;stroke-width:0.03;stroke-linecap:square;stroke-linejoin:miter;stroke:rgb(39.99939%,39.99939%,39.99939%);stroke-opacity:1;stroke-miterlimit:3.239307;" d="M 143.242188 231.15625 L 161.441406 233.03125 L 153.730469 267.335938 L 135.222656 265.417969 Z M 143.242188 231.15625 " transform="matrix(1,0,0,1,-74,-13)"/>
<path style="fill-rule:nonzero;fill:rgb(39.99939%,39.99939%,39.99939%);fill-opacity:1;stroke-width:0.03;stroke-linecap:square;stroke-linejoin:miter;stroke:rgb(39.99939%,39.99939%,39.99939%);stroke-opacity:1;stroke-miterlimit:3.239307;" d="M 219.066406 279.519531 L 227.257812 279.714844 L 225.738281 321.570312 L 211.308594 320.183594 Z M 219.066406 279.519531 " transform="matrix(1,0,0,1,-74,-13)"/>
<path style="fill-rule:nonzero;fill:rgb(39.99939%,39.99939%,39.99939%);fill-opacity:1;stroke-width:0.03;stroke-linecap:square;stroke-linejoin:miter;stroke:rgb(39.99939%,39.99939%,39.99939%);stroke-opacity:1;stroke-miterlimit:3.239307;" d="M 156.046875 269.578125 L 175.382812 271.574219 L 165.90625 315.839844 L 146.554688 313.996094 Z M 156.046875 269.578125 " transform="matrix(1,0,0,1,-74,-13)"/>
<path style="fill-rule:nonzero;fill:rgb(39.99939%,39.99939%,39.99939%);fill-opacity:1;stroke-width:0.03;stroke-linecap:square;stroke-linejoin:miter;stroke:rgb(39.99939%,39.99939%,39.99939%);stroke-opacity:1;stroke-miterlimit:3.239307;" d="M 134.816406 267.386719 L 153.273438 269.292969 L 144.039062 313.757812 L 125.429688 311.992188 Z M 134.816406 267.386719 " transform="matrix(1,0,0,1,-74,-13)"/>
<path style="fill-rule:nonzero;fill:rgb(39.99939%,39.99939%,39.99939%);fill-opacity:1;stroke-width:0.03;stroke-linecap:square;stroke-linejoin:miter;stroke:rgb(39.99939%,39.99939%,39.99939%);stroke-opacity:1;stroke-miterlimit:3.239307;" d="M 218.988281 86.417969 L 219.59375 84.980469 L 220.644531 83.984375 L 222.417969 83.292969 L 229.234375 81.476562 L 232.28125 80.847656 L 230.882812 118.449219 L 212.867188 117.695312 Z M 218.988281 86.417969 " transform="matrix(1,0,0,1,-74,-13)"/>
<path style="fill-rule:nonzero;fill:rgb(39.99939%,39.99939%,39.99939%);fill-opacity:1;stroke-width:0.03;stroke-linecap:square;stroke-linejoin:miter;stroke:rgb(39.99939%,39.99939%,39.99939%);stroke-opacity:1;stroke-miterlimit:3.239307;" d="M 190.429688 116.792969 L 195.671875 95.164062 L 198.535156 92.9375 L 201.882812 90.871094 L 206.769531 88.207031 L 210.207031 86.488281 L 213.371094 85.453125 L 215.027344 85.085938 L 216.082031 85.3125 L 216.558594 85.878906 L 216.621094 86.753906 L 210.242188 117.589844 Z M 190.429688 116.792969 " transform="matrix(1,0,0,1,-74,-13)"/>
<path style="fill-rule:nonzero;fill:rgb(39.99939%,39.99939%,39.99939%);fill-opacity:1;stroke-width:0.03;stroke-linecap:square;stroke-linejoin:miter;stroke:rgb(39.99939%,39.99939%,39.99939%);stroke-opacity:1;stroke-miterlimit:3.239307;" d="M 173.945312 116.132812 L 177.195312 111.75 L 181.714844 106.511719 L 186.449219 101.664062 L 188.464844 99.847656 L 189.464844 99.269531 L 190.445312 99.285156 L 191.195312 99.554688 L 191.609375 100.046875 L 191.664062 100.492188 L 187.78125 116.6875 Z M 173.945312 116.132812 " transform="matrix(1,0,0,1,-74,-13)"/>
<path style="fill-rule:nonzero;fill:rgb(39.99939%,39.99939%,39.99939%);fill-opacity:1;stroke-width:0.03;stroke-linecap:square;stroke-linejoin:miter;stroke:rgb(39.99939%,39.99939%,39.99939%);stroke-opacity:1;stroke-miterlimit:3.239307;" d="M 212.417969 119.632812 L 230.703125 120.335938 L 230.179688 127.265625 L 222.835938 156.488281 L 204.371094 156.207031 Z M 212.417969 119.632812 " transform="matrix(1,0,0,1,-74,-13)"/>
<path style="fill-rule:nonzero;fill:rgb(39.99939%,39.99939%,39.99939%);fill-opacity:1;stroke-width:0.03;stroke-linecap:square;stroke-linejoin:miter;stroke:rgb(39.99939%,39.99939%,39.99939%);stroke-opacity:1;stroke-miterlimit:3.239307;" d="M 189.960938 118.734375 L 209.882812 119.53125 L 201.117188 156.144531 L 181.570312 155.769531 Z M 189.960938 118.734375 " transform="matrix(1,0,0,1,-74,-13)"/>
<path style="fill-rule:nonzero;fill:rgb(39.99939%,39.99939%,39.99939%);fill-opacity:1;stroke-width:0.03;stroke-linecap:square;stroke-linejoin:miter;stroke:rgb(39.99939%,39.99939%,39.99939%);stroke-opacity:1;stroke-miterlimit:3.239307;" d="M 160.167969 155.285156 L 161.636719 146.101562 L 163.550781 134.953125 L 165.042969 130.695312 L 166.980469 126.800781 L 168.476562 123.964844 L 170.941406 119.976562 L 172.507812 118.03125 L 187.394531 118.628906 L 178.605469 155.710938 Z M 160.167969 155.285156 " transform="matrix(1,0,0,1,-74,-13)"/>
<path style="fill-rule:nonzero;fill:rgb(39.99939%,39.99939%,39.99939%);fill-opacity:1;stroke-width:0.03;stroke-linecap:square;stroke-linejoin:miter;stroke:rgb(39.99939%,39.99939%,39.99939%);stroke-opacity:1;stroke-miterlimit:3.239307;" d="M 225.203125 159.21875 L 230.066406 159.3125 L 229.359375 172.332031 L 222.484375 172.011719 Z M 225.203125 159.21875 " transform="matrix(1,0,0,1,-74,-13)"/>
<path style="fill-rule:nonzero;fill:rgb(39.99939%,39.99939%,39.99939%);fill-opacity:1;stroke-width:0.03;stroke-linecap:square;stroke-linejoin:miter;stroke:rgb(39.99939%,39.99939%,39.99939%);stroke-opacity:1;stroke-miterlimit:3.239307;" d="M 309.40625 85.449219 L 312.398438 85.5625 L 312.339844 87.367188 L 313.070312 87.386719 L 313.046875 90.175781 L 308.441406 90.027344 L 308.492188 87.257812 L 309.339844 87.28125 Z M 309.40625 85.449219 " transform="matrix(1,0,0,1,-74,-13)"/>
<path style="fill-rule:nonzero;fill:rgb(39.99939%,39.99939%,39.99939%);fill-opacity:1;stroke-width:0.03;stroke-linecap:square;stroke-linejoin:miter;stroke:rgb(39.99939%,39.99939%,39.99939%);stroke-opacity:1;stroke-miterlimit:3.239307;" d="M 308.066406 93.570312 L 310.992188 93.617188 L 310.882812 96.492188 L 307.902344 96.496094 Z M 308.066406 93.570312 " transform="matrix(1,0,0,1,-74,-13)"/>
<path style="fill-rule:nonzero;fill:rgb(39.99939%,39.99939%,39.99939%);fill-opacity:1;stroke-width:0.03;stroke-linecap:square;stroke-linejoin:miter;stroke:rgb(39.99939%,39.99939%,39.99939%);stroke-opacity:1;stroke-miterlimit:3.239307;" d="M 302.480469 89.472656 L 306.601562 89.671875 L 306.4375 93.625 L 302.265625 93.375 Z M 302.480469 89.472656 " transform="matrix(1,0,0,1,-74,-13)"/>
<path style="fill-rule:nonzero;fill:rgb(39.99939%,39.99939%,39.99939%);fill-opacity:1;stroke-width:0.03;stroke-linecap:square;stroke-linejoin:miter;stroke:rgb(39.99939%,39.99939%,39.99939%);stroke-opacity:1;stroke-miterlimit:3.239307;" d="M 245.199219 79.863281 L 265.464844 79.425781 L 264.664062 118.894531 L 244.003906 118.929688 Z M 245.199219 79.863281 " transform="matrix(1,0,0,1,-74,-13)"/>
<path style="fill-rule:nonzero;fill:rgb(39.99939%,39.99939%,39.99939%);fill-opacity:1;stroke-width:0.03;stroke-linecap:square;stroke-linejoin:miter;stroke:rgb(39.99939%,39.99939%,39.99939%);stroke-opacity:1;stroke-miterlimit:3.239307;" d="M 292.726562 121.128906 L 316.210938 121.089844 L 315.890625 132.199219 L 304.976562 130.421875 L 304.90625 130.890625 L 304.816406 131.488281 L 315.863281 133.171875 L 315.71875 138.253906 L 305.589844 136.960938 L 305.484375 137.65625 L 305.367188 138.515625 L 315.675781 139.769531 L 315.175781 157.355469 L 315.023438 157.886719 L 314.792969 158.265625 L 314.378906 158.539062 L 303 158.289062 L 303.171875 153.988281 L 302.5625 153.960938 L 302.015625 153.933594 L 301.824219 158.265625 L 291.925781 158.046875 Z M 292.726562 121.128906 " transform="matrix(1,0,0,1,-74,-13)"/>
<path style="fill-rule:nonzero;fill:rgb(39.99939%,39.99939%,39.99939%);fill-opacity:1;stroke-width:0.03;stroke-linecap:square;stroke-linejoin:miter;stroke:rgb(39.99939%,39.99939%,39.99939%);stroke-opacity:1;stroke-miterlimit:3.239307;" d="M 268.113281 121.167969 L 288.78125 121.132812 L 287.992188 157.964844 L 267.148438 157.507812 Z M 268.113281 121.167969 " transform="matrix(1,0,0,1,-74,-13)"/>
<path style="fill-rule:nonzero;fill:rgb(39.99939%,39.99939%,39.99939%);fill-opacity:1;stroke-width:0.03;stroke-linecap:square;stroke-linejoin:miter;stroke:rgb(39.99939%,39.99939%,39.99939%);stroke-opacity:1;stroke-miterlimit:3.239307;" d="M 243.933594 121.210938 L 264.328125 121.175781 L 263.621094 157.433594 L 242.921875 156.800781 Z M 243.933594 121.210938 " transform="matrix(1,0,0,1,-74,-13)"/>
<path style="fill-rule:nonzero;fill:rgb(39.99939%,39.99939%,39.99939%);fill-opacity:1;stroke-width:0.03;stroke-linecap:square;stroke-linejoin:miter;stroke:rgb(39.99939%,39.99939%,39.99939%);stroke-opacity:1;stroke-miterlimit:3.239307;" d="M 242.714844 158.824219 L 263.816406 159.546875 L 262.894531 196.910156 L 243.351562 197.179688 L 241.359375 197.109375 Z M 242.714844 158.824219 " transform="matrix(1,0,0,1,-74,-13)"/>
<path style="fill-rule:nonzero;fill:rgb(39.99939%,39.99939%,39.99939%);fill-opacity:1;stroke-width:0.03;stroke-linecap:square;stroke-linejoin:miter;stroke:rgb(39.99939%,39.99939%,39.99939%);stroke-opacity:1;stroke-miterlimit:3.239307;" d="M 267.324219 159.632812 L 287.902344 160.140625 L 286.8125 197.847656 L 265.8125 196.921875 Z M 267.324219 159.632812 " transform="matrix(1,0,0,1,-74,-13)"/>
<path style="fill-rule:nonzero;fill:rgb(39.99939%,39.99939%,39.99939%);fill-opacity:1;stroke-width:0.03;stroke-linecap:square;stroke-linejoin:miter;stroke:rgb(39.99939%,39.99939%,39.99939%);stroke-opacity:1;stroke-miterlimit:3.239307;" d="M 291.957031 160.242188 L 314.976562 160.8125 L 314.652344 198.550781 L 290.96875 198 Z M 291.957031 160.242188 " transform="matrix(1,0,0,1,-74,-13)"/>
<path style="fill-rule:nonzero;fill:rgb(39.99939%,39.99939%,39.99939%);fill-opacity:1;stroke-width:0.03;stroke-linecap:square;stroke-linejoin:miter;stroke:rgb(39.99939%,39.99939%,39.99939%);stroke-opacity:1;stroke-miterlimit:3.239307;" d="M 293.277344 94.441406 L 299.179688 95.515625 L 299.375 94.488281 L 299.640625 93.445312 L 293.40625 92.308594 L 293.199219 78.972656 L 316.3125 78.472656 L 316.210938 118.808594 L 292.707031 118.847656 Z M 293.277344 94.441406 " transform="matrix(1,0,0,1,-74,-13)"/>
<path style="fill-rule:nonzero;fill:rgb(39.99939%,39.99939%,39.99939%);fill-opacity:1;stroke-width:0.03;stroke-linecap:square;stroke-linejoin:miter;stroke:rgb(39.99939%,39.99939%,39.99939%);stroke-opacity:1;stroke-miterlimit:3.239307;" d="M 268.933594 79.726562 L 290 78.9375 L 288.953125 118.851562 L 267.957031 118.886719 Z M 268.933594 79.726562 " transform="matrix(1,0,0,1,-74,-13)"/>
<path style="fill-rule:nonzero;fill:rgb(39.99939%,39.99939%,39.99939%);fill-opacity:1;stroke-width:0.03;stroke-linecap:square;stroke-linejoin:miter;stroke:rgb(39.99939%,39.99939%,39.99939%);stroke-opacity:1;stroke-miterlimit:3.239307;" d="M 198.757812 172.875 L 229.386719 174.292969 L 228.039062 213.648438 L 207.144531 319.785156 L 169.664062 316.199219 L 180.144531 265.042969 L 188.042969 228.414062 L 193.9375 196.984375 Z M 198.757812 172.875 " transform="matrix(1,0,0,1,-74,-13)"/>
<path style=" stroke:none;fill-rule:evenodd;fill:rgb(85.096741%,85.096741%,81.959534%);fill-opacity:0.7;" d="M 359.429688 219 C 359.429688 215.171875 357.910156 211.503906 355.203125 208.796875 C 352.496094 206.089844 348.828125 204.570312 345 204.570312 C 341.171875 204.570312 337.503906 206.089844 334.796875 208.796875 C 332.089844 211.503906 330.570312 215.171875 330.570312 219 C 330.570312 222.828125 332.089844 226.496094 334.796875 229.203125 C 337.503906 231.910156 341.171875 233.429688 345 233.429688 C 348.828125 233.429688 352.496094 231.910156 355.203125 229.203125 C 357.910156 226.496094 359.429688 222.828125 359.429688 219 Z M 359.429688 219 "/>
<path style=" stroke:none;fill-rule:evenodd;fill:rgb(85.096741%,85.096741%,81.959534%);fill-opacity:0.7;" d="M 97.429688 146 C 97.429688 142.171875 95.910156 138.503906 93.203125 135.796875 C 90.496094 133.089844 86.828125 131.570312 83 131.570312 C 79.171875 131.570312 75.503906 133.089844 72.796875 135.796875 C 70.089844 138.503906 68.570312 142.171875 68.570312 146 C 68.570312 149.828125 70.089844 153.496094 72.796875 156.203125 C 75.503906 158.910156 79.171875 160.429688 83 160.429688 C 86.828125 160.429688 90.496094 158.910156 93.203125 156.203125 C 95.910156 153.496094 97.429688 149.828125 97.429688 146 Z M 97.429688 146 "/>
<path style=" stroke:none;fill-rule:evenodd;fill:rgb(85.096741%,85.096741%,81.959534%);fill-opacity:0.7;" d="M 320.429688 146 C 320.429688 142.171875 318.910156 138.503906 316.203125 135.796875 C 313.496094 133.089844 309.828125 131.570312 306 131.570312 C 302.171875 131.570312 298.503906 133.089844 295.796875 135.796875 C 293.089844 138.503906 291.570312 142.171875 291.570312 146 C 291.570312 149.828125 293.089844 153.496094 295.796875 156.203125 C 298.503906 158.910156 302.171875 160.429688 306 160.429688 C 309.828125 160.429688 313.496094 158.910156 316.203125 156.203125 C 318.910156 153.496094 320.429688 149.828125 320.429688 146 Z M 320.429688 146 "/>
<path style=" stroke:none;fill-rule:evenodd;fill:rgb(85.096741%,85.096741%,81.959534%);fill-opacity:0.7;" d="M 275.429688 120 C 275.429688 116.171875 273.910156 112.503906 271.203125 109.796875 C 268.496094 107.089844 264.828125 105.570312 261 105.570312 C 257.171875 105.570312 253.503906 107.089844 250.796875 109.796875 C 248.089844 112.503906 246.570312 116.171875 246.570312 120 C 246.570312 123.828125 248.089844 127.496094 250.796875 130.203125 C 253.503906 132.910156 257.171875 134.429688 261 134.429688 C 264.828125 134.429688 268.496094 132.910156 271.203125 130.203125 C 273.910156 127.496094 275.429688 123.828125 275.429688 120 Z M 275.429688 120 "/>
<g clip-path="url(#clip25)" clip-rule="nonzero">
<path style=" stroke:none;fill-rule:evenodd;fill:rgb(85.096741%,85.096741%,81.959534%);fill-opacity:0.7;" d="M 385.429688 109 C 385.429688 105.171875 383.910156 101.503906 381.203125 98.796875 C 378.496094 96.089844 374.828125 94.570312 371 94.570312 C 367.171875 94.570312 363.503906 96.089844 360.796875 98.796875 C 358.089844 101.503906 356.570312 105.171875 356.570312 109 C 356.570312 112.828125 358.089844 116.496094 360.796875 119.203125 C 363.503906 121.910156 367.171875 123.429688 371 123.429688 C 374.828125 123.429688 378.496094 121.910156 381.203125 119.203125 C 383.910156 116.496094 385.429688 112.828125 385.429688 109 Z M 385.429688 109 "/>
</g>
<path style=" stroke:none;fill-rule:evenodd;fill:rgb(85.096741%,85.096741%,81.959534%);fill-opacity:0.7;" d="M 231.429688 89 C 231.429688 85.171875 229.910156 81.503906 227.203125 78.796875 C 224.496094 76.089844 220.828125 74.570312 217 74.570312 C 213.171875 74.570312 209.503906 76.089844 206.796875 78.796875 C 204.089844 81.503906 202.570312 85.171875 202.570312 89 C 202.570312 92.828125 204.089844 96.496094 206.796875 99.203125 C 209.503906 101.910156 213.171875 103.429688 217 103.429688 C 220.828125 103.429688 224.496094 101.910156 227.203125 99.203125 C 229.910156 96.496094 231.429688 92.828125 231.429688 89 Z M 231.429688 89 "/>
<path style=" stroke:none;fill-rule:evenodd;fill:rgb(85.096741%,85.096741%,81.959534%);fill-opacity:0.7;" d="M 237.429688 88 C 237.429688 84.171875 235.910156 80.503906 233.203125 77.796875 C 230.496094 75.089844 226.828125 73.570312 223 73.570312 C 219.171875 73.570312 215.503906 75.089844 212.796875 77.796875 C 210.089844 80.503906 208.570312 84.171875 208.570312 88 C 208.570312 91.828125 210.089844 95.496094 212.796875 98.203125 C 215.503906 100.910156 219.171875 102.429688 223 102.429688 C 226.828125 102.429688 230.496094 100.910156 233.203125 98.203125 C 235.910156 95.496094 237.429688 91.828125 237.429688 88 Z M 237.429688 88 "/>
<path style=" stroke:none;fill-rule:evenodd;fill:rgb(85.096741%,85.096741%,81.959534%);fill-opacity:0.7;" d="M 232.429688 81 C 232.429688 77.171875 230.910156 73.503906 228.203125 70.796875 C 225.496094 68.089844 221.828125 66.570312 218 66.570312 C 214.171875 66.570312 210.503906 68.089844 207.796875 70.796875 C 205.089844 73.503906 203.570312 77.171875 203.570312 81 C 203.570312 84.828125 205.089844 88.496094 207.796875 91.203125 C 210.503906 93.910156 214.171875 95.429688 218 95.429688 C 221.828125 95.429688 225.496094 93.910156 228.203125 91.203125 C 230.910156 88.496094 232.429688 84.828125 232.429688 81 Z M 232.429688 81 "/>
<g clip-path="url(#clip26)" clip-rule="nonzero">
<path style=" stroke:none;fill-rule:evenodd;fill:rgb(85.096741%,85.096741%,81.959534%);fill-opacity:0.7;" d="M 367.429688 5 C 367.429688 1.171875 365.910156 -2.496094 363.203125 -5.203125 C 360.496094 -7.910156 356.828125 -9.429688 353 -9.429688 C 349.171875 -9.429688 345.503906 -7.910156 342.796875 -5.203125 C 340.089844 -2.496094 338.570312 1.171875 338.570312 5 C 338.570312 8.828125 340.089844 12.496094 342.796875 15.203125 C 345.503906 17.910156 349.171875 19.429688 353 19.429688 C 356.828125 19.429688 360.496094 17.910156 363.203125 15.203125 C 365.910156 12.496094 367.429688 8.828125 367.429688 5 Z M 367.429688 5 "/>
</g>
<path style=" stroke:none;fill-rule:evenodd;fill:rgb(85.096741%,85.096741%,81.959534%);fill-opacity:0.7;" d="M 216.429688 187 C 216.429688 183.171875 214.910156 179.503906 212.203125 176.796875 C 209.496094 174.089844 205.828125 172.570312 202 172.570312 C 198.171875 172.570312 194.503906 174.089844 191.796875 176.796875 C 189.089844 179.503906 187.570312 183.171875 187.570312 187 C 187.570312 190.828125 189.089844 194.496094 191.796875 197.203125 C 194.503906 199.910156 198.171875 201.429688 202 201.429688 C 205.828125 201.429688 209.496094 199.910156 212.203125 197.203125 C 214.910156 194.496094 216.429688 190.828125 216.429688 187 Z M 216.429688 187 "/>
<path style=" stroke:none;fill-rule:evenodd;fill:rgb(85.096741%,85.096741%,81.959534%);fill-opacity:0.7;" d="M 268.429688 8 C 268.429688 4.171875 266.910156 0.503906 264.203125 -2.203125 C 261.496094 -4.910156 257.828125 -6.429688 254 -6.429688 C 250.171875 -6.429688 246.503906 -4.910156 243.796875 -2.203125 C 241.089844 0.503906 239.570312 4.171875 239.570312 8 C 239.570312 11.828125 241.089844 15.496094 243.796875 18.203125 C 246.503906 20.910156 250.171875 22.429688 254 22.429688 C 257.828125 22.429688 261.496094 20.910156 264.203125 18.203125 C 266.910156 15.496094 268.429688 11.828125 268.429688 8 Z M 268.429688 8 "/>
<g clip-path="url(#clip27)" clip-rule="nonzero">
<path style=" stroke:none;fill-rule:nonzero;fill:rgb(99.998474%,99.998474%,30.587769%);fill-opacity:0.8;" d="M 371.582031 140.59375 L 340.34375 194.703125 L 402.824219 194.703125 Z M 371.582031 140.59375 "/>
</g>
<g clip-path="url(#clip28)" clip-rule="nonzero">
<path style="fill:none;stroke-width:0.288;stroke-linecap:square;stroke-linejoin:miter;stroke:rgb(0%,0%,0%);stroke-opacity:0.8;stroke-miterlimit:3.25;" d="M 445.582031 153.59375 L 414.34375 207.703125 L 476.824219 207.703125 Z M 445.582031 153.59375 " transform="matrix(1,0,0,1,-74,-13)"/>
</g>
<g clip-path="url(#clip29)" clip-rule="nonzero">
<path style=" stroke:none;fill-rule:nonzero;fill:rgb(99.998474%,99.998474%,30.587769%);fill-opacity:0.8;" d="M 339.117188 169.453125 L 307.878906 223.558594 L 370.359375 223.558594 Z M 339.117188 169.453125 "/>
</g>
<g clip-path="url(#clip30)" clip-rule="nonzero">
<path style="fill:none;stroke-width:0.288;stroke-linecap:square;stroke-linejoin:miter;stroke:rgb(0%,0%,0%);stroke-opacity:0.8;stroke-miterlimit:3.25;" d="M 413.117188 182.453125 L 381.878906 236.558594 L 444.359375 236.558594 Z M 413.117188 182.453125 " transform="matrix(1,0,0,1,-74,-13)"/>
</g>
<path style="fill-rule:nonzero;fill:rgb(99.998474%,99.998474%,30.587769%);fill-opacity:0.8;stroke-width:0.288;stroke-linecap:square;stroke-linejoin:miter;stroke:rgb(0%,0%,0%);stroke-opacity:0.8;stroke-miterlimit:3.25;" d="M 272.4375 23.734375 L 241.199219 77.84375 L 303.675781 77.84375 Z M 272.4375 23.734375 " transform="matrix(1,0,0,1,-74,-13)"/>
<path style="fill-rule:nonzero;fill:rgb(99.998474%,99.998474%,30.587769%);fill-opacity:0.8;stroke-width:0.288;stroke-linecap:square;stroke-linejoin:miter;stroke:rgb(0%,0%,0%);stroke-opacity:0.8;stroke-miterlimit:3.25;" d="M 290.472656 272.632812 L 259.234375 326.742188 L 321.710938 326.742188 Z M 290.472656 272.632812 " transform="matrix(1,0,0,1,-74,-13)"/>
<g clip-path="url(#clip31)" clip-rule="nonzero">
<path style=" stroke:none;fill-rule:nonzero;fill:rgb(99.998474%,99.998474%,30.587769%);fill-opacity:0.8;" d="M 371.582031 7.128906 L 340.34375 61.234375 L 402.824219 61.234375 Z M 371.582031 7.128906 "/>
</g>
<g clip-path="url(#clip32)" clip-rule="nonzero">
<path style="fill:none;stroke-width:0.288;stroke-linecap:square;stroke-linejoin:miter;stroke:rgb(0%,0%,0%);stroke-opacity:0.8;stroke-miterlimit:3.25;" d="M 445.582031 20.128906 L 414.34375 74.234375 L 476.824219 74.234375 Z M 445.582031 20.128906 " transform="matrix(1,0,0,1,-74,-13)"/>
</g>
<path style="fill-rule:nonzero;fill:rgb(99.998474%,99.998474%,30.587769%);fill-opacity:0.8;stroke-width:0.288;stroke-linecap:square;stroke-linejoin:miter;stroke:rgb(0%,0%,0%);stroke-opacity:0.8;stroke-miterlimit:3.25;" d="M 48.789062 106.699219 L 17.550781 160.808594 L 80.03125 160.808594 Z M 48.789062 106.699219 " transform="matrix(1,0,0,1,-74,-13)"/>
</g>
</svg>
