<?xml version="1.0" encoding="UTF-8"?>
<svg xmlns="http://www.w3.org/2000/svg" xmlns:xlink="http://www.w3.org/1999/xlink" width="361pt" height="361pt" viewBox="0 0 361 361" version="1.1">
<defs>
<clipPath id="clip1">
  <path d="M 341 54 L 360 54 L 360 148 L 341 148 Z M 341 54 "/>
</clipPath>
<clipPath id="clip2">
  <path d="M 299 0 L 360 0 L 360 76 L 299 76 Z M 299 0 "/>
</clipPath>
<clipPath id="clip3">
  <path d="M 343 0 L 360 0 L 360 21 L 343 21 Z M 343 0 "/>
</clipPath>
<clipPath id="clip4">
  <path d="M 345 22 L 360 22 L 360 59 L 345 59 Z M 345 22 "/>
</clipPath>
<clipPath id="clip5">
  <path d="M 356 0 L 360 0 L 360 27 L 356 27 Z M 356 0 "/>
</clipPath>
<clipPath id="clip6">
  <path d="M 348 176 L 360 176 L 360 237 L 348 237 Z M 348 176 "/>
</clipPath>
<clipPath id="clip7">
  <path d="M 348 160 L 360 160 L 360 195 L 348 195 Z M 348 160 "/>
</clipPath>
<clipPath id="clip8">
  <path d="M 342 105 L 360 105 L 360 163 L 342 163 Z M 342 105 "/>
</clipPath>
</defs>
<g id="surface2352">
<path style="fill-rule:nonzero;fill:rgb(0%,0%,0%);fill-opacity:1;stroke-width:0.03;stroke-linecap:square;stroke-linejoin:miter;stroke:rgb(0%,0%,0%);stroke-opacity:1;stroke-miterlimit:10;" d="M 0 178 L 360 178 L 360 -182 L 0 -182 Z M 0 178 " transform="matrix(1,0,0,1,0,182)"/>
<path style=" stroke:none;fill-rule:nonzero;fill:rgb(39.99939%,39.99939%,39.99939%);fill-opacity:0.3;" d="M 68.785156 160.792969 L 65.90625 159.679688 L 63.910156 158.976562 L 60.890625 157.3125 Z M 68.785156 160.792969 "/>
<path style=" stroke:none;fill-rule:nonzero;fill:rgb(39.99939%,39.99939%,39.99939%);fill-opacity:0.3;" d="M 76.664062 160.886719 L 75.988281 161.164062 L 75.859375 161.191406 Z M 76.664062 160.886719 "/>
<path style=" stroke:none;fill-rule:nonzero;fill:rgb(39.99939%,39.99939%,39.99939%);fill-opacity:0.3;" d="M 131.96875 147.199219 L 132.417969 147.757812 L 132.476562 148.785156 L 131.125 152.71875 L 129.382812 155.929688 L 126.644531 162.601562 L 126.085938 164.496094 L 125.804688 165.03125 L 125.542969 178.242188 L 124.722656 177.910156 L 122.910156 177.578125 L 121.917969 177.578125 L 116.542969 177.527344 L 115.253906 177.140625 L 110.636719 174.648438 L 101.183594 170.578125 L 93.039062 168.359375 L 93.390625 167.839844 L 99.964844 167.113281 L 103.679688 165.933594 L 108.457031 163.527344 L 112.195312 161.347656 L 112.652344 161.113281 L 115.535156 157.695312 L 115.007812 157.332031 L 117.332031 153.34375 L 117.300781 151.710938 L 120.453125 148.082031 L 115.175781 143.25 L 114.882812 141.9375 L 120.351562 135.171875 L 127.945312 145.203125 Z M 131.96875 147.199219 "/>
<path style=" stroke:none;fill-rule:nonzero;fill:rgb(39.99939%,39.99939%,39.99939%);fill-opacity:0.3;" d="M 308.570312 139.6875 L 305.914062 140.921875 L 302.675781 143.90625 L 300.910156 146.421875 L 299.539062 150.898438 L 299.933594 153.042969 L 300.722656 156.398438 L 296.5 156.773438 L 292.476562 157.054688 L 290.054688 157.410156 L 270.378906 154.785156 L 268.835938 154.117188 L 267.398438 153.261719 L 265.324219 150.613281 L 264.125 149.78125 L 262.769531 149.480469 L 258.226562 149.179688 L 256.421875 149.089844 L 250.402344 146.851562 L 247.257812 146.207031 L 245.71875 145.59375 L 241.824219 144.136719 L 238.464844 143.808594 L 235.242188 144 L 231.164062 143.933594 L 231.007812 145.089844 L 225.324219 142.417969 L 249.308594 138.914062 L 255.054688 139.734375 L 256.148438 127.96875 L 288.714844 128.789062 L 307.046875 136.453125 Z M 308.570312 139.6875 "/>
<path style=" stroke:none;fill-rule:nonzero;fill:rgb(39.99939%,39.99939%,39.99939%);fill-opacity:0.3;" d="M 224.171875 142.296875 L 223.613281 142.25 L 212.402344 140.785156 L 209.1875 139.777344 L 222.492188 141.925781 Z M 224.171875 142.296875 "/>
<path style=" stroke:none;fill-rule:nonzero;fill:rgb(39.99939%,39.99939%,39.99939%);fill-opacity:0.3;" d="M 176.417969 130.703125 L 173.203125 129.863281 L 162.902344 126.785156 L 161.351562 126.207031 L 160.90625 125.964844 L 167.761719 127.96875 Z M 176.417969 130.703125 "/>
<path style=" stroke:none;fill-rule:nonzero;fill:rgb(39.99939%,39.99939%,39.99939%);fill-opacity:0.3;" d="M 89.507812 237.707031 L 89.6875 238.3125 L 89.582031 239.832031 Z M 89.507812 237.707031 "/>
<path style=" stroke:none;fill-rule:nonzero;fill:rgb(39.99939%,39.99939%,39.99939%);fill-opacity:0.3;" d="M 76.464844 212.171875 L 76.621094 216.21875 L 76.269531 217.371094 L 76.019531 217.867188 Z M 76.464844 212.171875 "/>
<path style=" stroke:none;fill-rule:nonzero;fill:rgb(39.99939%,39.99939%,39.99939%);fill-opacity:0.3;" d="M 89.175781 236.714844 L 89.253906 236.84375 L 89.289062 236.964844 Z M 89.175781 236.714844 "/>
<path style=" stroke:none;fill-rule:nonzero;fill:rgb(39.99939%,39.99939%,39.99939%);fill-opacity:0.3;" d="M 128.371094 294.949219 L 128.375 294.949219 L 128.375 294.957031 Z M 128.371094 294.949219 "/>
<path style=" stroke:none;fill-rule:nonzero;fill:rgb(39.99939%,39.99939%,39.99939%);fill-opacity:0.3;" d="M 130.882812 145.359375 L 128.589844 144.1875 L 121.324219 134.816406 L 121.402344 133.019531 L 130.988281 126.429688 L 134.414062 123.726562 L 135.402344 124 L 138.796875 126.207031 L 142.242188 126.910156 L 158.441406 132.988281 L 158.699219 132.582031 L 158.957031 132.179688 L 145.15625 127.167969 L 147.738281 123.617188 L 149.164062 123.078125 L 151.136719 123.644531 L 153.671875 123.851562 L 157.667969 125.019531 L 160.269531 126.605469 L 168.023438 129.019531 L 159.371094 147.046875 L 159.734375 147.167969 L 160.097656 147.285156 L 168.695312 129.25 L 179.722656 132.667969 L 161.21875 171.191406 L 162.59375 171.660156 L 180.746094 133.074219 L 190.367188 136.128906 L 190.8125 139.167969 L 189.929688 141.582031 L 186.089844 150.027344 L 186.410156 150.210938 L 186.734375 150.398438 L 191.476562 140.21875 L 191.78125 138.714844 L 191.695312 136.441406 L 201.476562 139.101562 L 195.542969 152.054688 L 196.042969 152.230469 L 196.539062 152.410156 L 202.394531 139.363281 L 212.25 141.9375 L 221.019531 143.082031 L 214.945312 158.554688 L 215.566406 158.636719 L 216.183594 158.722656 L 222.507812 143.152344 L 224.699219 143.308594 L 230.589844 145.984375 L 230.417969 149.285156 L 226.59375 152.167969 L 217.5 159.664062 L 215.820312 161.660156 L 208.859375 170.5 L 205.085938 175.421875 L 194.8125 189.855469 L 194.03125 190.632812 L 193.617188 191.53125 L 192.25 193.453125 L 191.128906 195.597656 L 191.222656 197.59375 L 192.484375 199.320312 L 194.820312 201.132812 L 197.757812 201.800781 L 200.640625 202.332031 L 202.242188 202.679688 L 203.921875 204.15625 L 205.71875 206.78125 L 206.753906 214.449219 L 202.792969 219.742188 L 202.046875 220.945312 L 200.902344 223.890625 L 200.386719 227.820312 L 199.8125 229.515625 L 199.355469 230.988281 L 198.722656 231.914062 L 196.71875 236.898438 L 192.8125 256.445312 L 191.226562 257.917969 L 190.0625 258.554688 L 187.21875 258.53125 L 183.808594 260.652344 L 181.460938 266.96875 L 176.183594 274.757812 L 170.410156 281.539062 L 170.011719 282.453125 L 170.128906 283.746094 L 170.300781 287.617188 L 169.285156 290.203125 L 168.09375 291.277344 L 164.242188 291.121094 L 163.277344 291.226562 L 161.804688 292.035156 L 161.523438 293.113281 L 161.449219 294.964844 L 160.414062 296.222656 L 158.113281 297.425781 L 154.453125 299.425781 L 151.582031 301.828125 L 149.542969 307.59375 L 148.644531 308.34375 L 147.980469 308.445312 L 146.492188 308.5625 L 144.257812 308.570312 L 139.027344 307.207031 L 134.375 304.195312 L 131.09375 299.542969 L 130.765625 298.992188 L 130.4375 295.601562 L 130.003906 294.210938 L 127.046875 292.71875 L 126.714844 292.15625 L 122.335938 290.242188 L 118.183594 287.179688 L 117.363281 286.144531 L 112.609375 279.261719 L 111.9375 278.199219 L 110.84375 275.464844 L 102.8125 258.898438 L 104.089844 257.5625 L 105.707031 255.679688 L 108.710938 252.074219 L 110.035156 251.558594 L 115.125 254.652344 L 118.78125 253.230469 L 126.5 247.523438 L 132.597656 244.84375 L 138.8125 242.835938 L 142.625 240.4375 L 147.371094 236.339844 L 147.75 236.644531 L 147.617188 242.804688 L 147.742188 243.609375 L 148.089844 244.578125 L 148.515625 245.113281 L 152.976562 247.527344 L 154.738281 248.886719 L 156.019531 252.980469 L 156.207031 258.421875 L 156.816406 258.3125 L 157.421875 258.199219 L 156.71875 252.578125 L 155.300781 248 L 153.273438 246.792969 L 149.132812 244.730469 L 148.640625 244.089844 L 148.429688 242.375 L 148.601562 238.734375 L 149.992188 234.132812 L 151.703125 232.9375 L 155.089844 230.769531 L 161.792969 229.902344 L 167.917969 232.023438 L 169.519531 231.789062 L 169.90625 227.996094 L 172.050781 221.421875 L 178.710938 220.246094 L 178.476562 219.464844 L 177.675781 208.839844 L 178.933594 205.746094 L 178.210938 201.699219 L 185.96875 190.648438 L 185.210938 189.875 L 177.523438 200.621094 L 173.144531 198.789062 L 170.371094 197.34375 L 166.265625 194.917969 L 164.046875 195.761719 L 161.066406 196.148438 L 158.902344 196.910156 L 155.570312 197.597656 L 153.460938 196.644531 L 151.84375 196.175781 L 149.835938 193.707031 L 148.65625 190.898438 L 147.230469 189.128906 L 152.546875 172.773438 L 152.546875 170.863281 L 153.234375 169.277344 L 154.378906 165.792969 L 155.800781 152.414062 L 142.910156 148.976562 L 137.460938 145.921875 Z M 130.882812 145.359375 "/>
<path style=" stroke:none;fill-rule:nonzero;fill:rgb(39.99939%,39.99939%,39.99939%);fill-opacity:0.3;" d="M 131.945312 153.042969 L 141.261719 155.71875 L 137.019531 167.828125 L 126.597656 165.40625 L 126.914062 164.796875 L 127.484375 162.867188 L 130.191406 156.273438 Z M 131.945312 153.042969 "/>
<path style=" stroke:none;fill-rule:nonzero;fill:rgb(39.99939%,39.99939%,39.99939%);fill-opacity:0.3;" d="M 131.753906 186.058594 L 135.847656 173.320312 L 135.457031 173.214844 L 135.074219 173.097656 L 131.125 185.476562 L 130.699219 184.957031 L 127.886719 180.945312 L 126.171875 179.3125 L 126.566406 166.394531 L 137.492188 169.058594 L 142.328125 155.273438 L 132.1875 152.335938 L 133.363281 148.917969 L 133.359375 146.777344 L 137.046875 147.125 L 142.394531 150.121094 L 154.394531 153.324219 L 153.09375 165.542969 L 152.007812 168.859375 L 151.246094 170.617188 L 151.246094 172.585938 L 146.160156 188.230469 L 144.234375 187.105469 L 141.265625 186.503906 L 139.175781 186.476562 L 136.972656 186.445312 L 140.34375 176.394531 L 140.03125 176.28125 L 139.679688 176.164062 L 135.941406 186.378906 L 133.144531 186.535156 Z M 131.753906 186.058594 "/>
<path style=" stroke:none;fill-rule:nonzero;fill:rgb(39.99939%,39.99939%,39.99939%);fill-opacity:0.3;" d="M 55.664062 179.128906 L 62.332031 179.453125 L 62.378906 179.097656 L 62.429688 178.738281 L 55.546875 178.261719 L 52.5625 170.964844 L 51.671875 169.457031 L 51.429688 168.785156 L 54.074219 162.300781 L 54.378906 155.449219 L 62.234375 159.402344 L 72.289062 163.449219 L 76.628906 164.835938 L 81.09375 166.34375 L 80.488281 174.726562 L 80.894531 175.480469 L 81.121094 176.242188 L 80.203125 181.011719 L 79.148438 185.632812 L 79.425781 185.703125 L 79.699219 185.773438 L 80.246094 183.875 L 80.792969 181.695312 L 81.191406 179.753906 L 81.988281 176.148438 L 81.789062 175.34375 L 81.335938 173.921875 L 82.160156 166.410156 L 88.46875 168.179688 L 89.597656 168.613281 L 88.234375 180.335938 L 93.710938 182.261719 L 93.792969 182.136719 L 93.878906 182.015625 L 89.039062 180.222656 L 89.808594 173.28125 L 90.679688 168.679688 L 101.367188 171.75 L 111.644531 176.359375 L 113.605469 177.535156 L 114.019531 178.136719 L 109.632812 192.09375 L 100.023438 187.515625 L 99.632812 188.101562 L 108.992188 192.804688 L 110.8125 198.421875 L 111.117188 200.160156 L 111.328125 200.453125 L 111.5 199.5 L 111.675781 198.542969 L 110.140625 193.851562 L 114.894531 180.941406 L 115.960938 179.550781 L 116.984375 178.949219 L 123.03125 179.023438 L 127.152344 181.804688 L 130.925781 187.0625 L 131.902344 187.367188 L 133.253906 187.375 L 140.65625 187.285156 L 143.375 187.617188 L 145.347656 188.632812 L 146.417969 189.378906 L 147.851562 191.058594 L 149.195312 194.109375 L 151.515625 196.734375 L 153.410156 197.539062 L 155.707031 198.566406 L 160.679688 197.121094 L 164.257812 196.609375 L 166.886719 195.996094 L 172.570312 199.382812 L 177.347656 201.378906 L 177.816406 205.84375 L 176.773438 208.800781 L 177.460938 213.113281 L 177.726562 219.425781 L 171.726562 220.652344 L 169.667969 224.507812 L 168.855469 226.730469 L 168.257812 230.675781 L 161.941406 228.210938 L 155.257812 229.132812 L 153.128906 229.703125 L 147.988281 234.425781 L 142.503906 238.992188 L 140.453125 240.441406 L 138.578125 241.332031 L 132.40625 243.433594 L 125.757812 246.121094 L 116.785156 252.285156 L 115.125 252.917969 L 109.425781 249.171875 L 104.964844 254.878906 L 103.820312 255.996094 L 102.453125 256.671875 L 101.570312 256.535156 L 101.355469 256.308594 L 98.800781 252.476562 L 90.554688 245.980469 L 90.417969 245.070312 L 90.804688 238.621094 L 85.378906 227.890625 L 80.148438 223.148438 L 76.53125 220.761719 L 76.4375 219.453125 L 77.160156 218.050781 L 77.277344 216.179688 L 77.144531 207.960938 L 76.863281 207.109375 L 76.910156 206.503906 L 76.625 206.398438 L 76.613281 206.351562 L 73.925781 205.039062 L 80.261719 201.371094 L 91.308594 202.792969 L 97.285156 204.679688 L 100.859375 205.925781 L 100.976562 205.503906 L 101.097656 205.085938 L 97.9375 203.710938 L 91.738281 201.613281 L 82.445312 200.640625 L 81.109375 199.859375 L 84.476562 190.320312 L 84.039062 190.125 L 83.601562 189.933594 L 80.230469 198.90625 L 79.300781 200.785156 L 77.972656 201.628906 L 72.265625 204.207031 L 67.722656 202.609375 L 67.570312 201.710938 L 72.621094 186.488281 L 72.429688 186.363281 L 72.253906 186.226562 L 71.847656 186.875 L 66.53125 201.484375 L 65.765625 201.90625 L 57.800781 198.984375 L 55.28125 197.078125 L 54.617188 195.6875 L 54.632812 194.375 L 54.96875 186.785156 L 55.636719 181.492188 Z M 55.664062 179.128906 "/>
<path style=" stroke:none;fill-rule:nonzero;fill:rgb(39.99939%,39.99939%,39.99939%);fill-opacity:0.3;" d="M 145.390625 124.507812 L 144.863281 125.324219 L 143.011719 125.410156 Z M 145.390625 124.507812 "/>
<path style=" stroke:none;fill-rule:nonzero;fill:rgb(39.99939%,39.99939%,39.99939%);fill-opacity:0.3;" d="M 113.496094 142.960938 L 118.90625 148.125 L 116.601562 151.824219 L 116.671875 153.433594 L 114.355469 157.316406 L 114.460938 157.96875 L 113.285156 159.230469 L 111.007812 160.59375 L 106.71875 163.0625 L 104.535156 164.125 L 100.4375 165.847656 L 92.832031 167.355469 L 90.289062 167.367188 L 82.152344 165.390625 L 74.5 163.480469 L 75.074219 162.738281 L 76.90625 162.003906 L 83.324219 159.195312 L 93.566406 155.566406 L 96.410156 154.402344 L 101.199219 151.660156 L 107.140625 147.355469 L 110.507812 144.753906 Z M 113.496094 142.960938 "/>
<path style=" stroke:none;fill-rule:nonzero;fill:rgb(39.99939%,39.99939%,39.99939%);fill-opacity:0.3;" d="M 313.023438 34.410156 L 314.503906 34.019531 L 315.414062 34.148438 L 328.683594 38.203125 L 344 41.195312 L 342.785156 51.003906 L 332.554688 51.445312 L 319.945312 51.84375 L 320.371094 48.378906 L 319.988281 48.320312 L 319.609375 48.265625 L 319.074219 51.859375 L 310.820312 51.84375 L 300.523438 51.414062 L 301.46875 46.175781 L 302.101562 45.164062 L 303.449219 44.0625 L 308.292969 41.460938 L 312.148438 35.015625 Z M 313.023438 34.410156 "/>
<path style=" stroke:none;fill-rule:nonzero;fill:rgb(39.99939%,39.99939%,39.99939%);fill-opacity:0.3;" d="M 300.558594 53.105469 L 316.460938 54.019531 L 313.722656 62.527344 L 311.878906 67.390625 L 308.257812 74.070312 L 301.53125 70.910156 L 286.019531 64.289062 L 293.640625 61.171875 L 297.414062 58.082031 L 299.503906 55.296875 Z M 300.558594 53.105469 "/>
<path style=" stroke:none;fill-rule:nonzero;fill:rgb(39.99939%,39.99939%,39.99939%);fill-opacity:0.3;" d="M 307.394531 75.871094 L 300.171875 87.699219 L 296.003906 89.871094 L 293.65625 96.222656 L 287.453125 93.363281 L 283.925781 91.460938 L 278.574219 88.660156 L 279.363281 86.367188 L 279.46875 84.039062 L 278.421875 81.738281 L 276.023438 80.566406 L 270.917969 80.859375 L 265.644531 78.917969 L 266.550781 75.773438 L 266.40625 73.550781 L 263.898438 69.210938 L 268.402344 70.335938 L 271.632812 69.914062 L 278.09375 66.714844 L 282.890625 64.726562 L 290.707031 68.28125 L 288.835938 78.769531 L 290.09375 78.902344 L 291.949219 68.875 Z M 307.394531 75.871094 "/>
<path style=" stroke:none;fill-rule:nonzero;fill:rgb(39.99939%,39.99939%,39.99939%);fill-opacity:0.3;" d="M 226.414062 102.332031 L 226.773438 102.605469 L 227.128906 102.878906 L 230.828125 98.367188 L 231.066406 96.710938 L 230.546875 95.683594 L 222.003906 91.359375 L 224.976562 85.507812 L 226.976562 82.402344 L 229.003906 75.707031 L 230.515625 75.605469 L 231.507812 75.824219 L 232.832031 76.207031 L 234.011719 77.082031 L 235.808594 79.273438 L 236.835938 80.8125 L 238.292969 81.542969 L 239.402344 81.542969 L 240.855469 81.296875 L 241.710938 80.160156 L 242.234375 79.019531 L 243.339844 76.324219 L 244.667969 73.511719 L 250.265625 74.976562 L 255.039062 76.964844 L 261.683594 79.207031 L 271.023438 82.21875 L 274.652344 81.574219 L 275.820312 81.746094 L 277.671875 83.035156 L 278.316406 84.613281 L 277.902344 85.90625 L 275.703125 88.347656 L 270.484375 91.476562 L 268.800781 91.675781 L 267.273438 92.46875 L 266.320312 94.136719 L 264.195312 98.066406 L 264.507812 98.339844 L 264.820312 98.617188 L 268.019531 92.992188 L 269.238281 92.355469 L 271 92.082031 L 276.21875 89.183594 L 281.96875 92.113281 L 285.199219 93.878906 L 287.71875 95.367188 L 292.753906 98.152344 L 291.828125 101.347656 L 299.847656 102.511719 L 318.492188 103.3125 L 320.671875 103.527344 L 321.890625 103.84375 L 322.90625 104.421875 L 323.300781 104.875 L 321.484375 112.675781 L 322.199219 114.695312 L 320.535156 120.753906 L 320.246094 124.203125 L 319.953125 129.609375 L 320.496094 136.625 L 318.890625 140.519531 L 317.425781 139.886719 L 314.265625 138.933594 L 309.742188 139.148438 L 308.570312 139.6875 L 307.046875 136.453125 L 288.714844 128.789062 L 256.148438 127.96875 L 255.054688 139.734375 L 249.308594 138.914062 L 225.324219 142.417969 L 225.277344 142.394531 L 224.171875 142.296875 L 222.492188 141.925781 L 209.1875 139.777344 L 206.347656 138.886719 L 198.164062 136.839844 L 187.203125 133.527344 L 193.976562 117.59375 L 193.328125 117.363281 L 192.683594 117.132812 L 186.058594 133.21875 L 176.417969 130.703125 L 167.761719 127.96875 L 160.90625 125.964844 L 158.960938 124.894531 L 157.007812 122.085938 L 158.953125 119.46875 L 160.308594 117.898438 L 162.355469 115.648438 L 165.578125 113.164062 L 169.359375 110.371094 L 171.945312 109.445312 L 174.023438 109.339844 L 181.945312 109.785156 L 187.917969 107.625 L 196.640625 105.886719 L 205.621094 97.84375 L 209.457031 94.824219 L 210.328125 86.054688 L 210.445312 86.023438 L 211.261719 85.503906 L 217.105469 83.328125 L 220.628906 81.613281 L 226.535156 76.492188 L 228.0625 75.824219 L 226.003906 82.152344 L 224.066406 85.152344 L 220.847656 91.613281 L 230.015625 96.277344 L 230.132812 97.238281 L 229.914062 98.175781 Z M 226.414062 102.332031 "/>
<path style=" stroke:none;fill-rule:nonzero;fill:rgb(39.99939%,39.99939%,39.99939%);fill-opacity:0.3;" d="M 318.640625 53.539062 L 337.433594 52.898438 L 340.523438 52.816406 L 343.164062 52.9375 L 341.570312 70.109375 L 324.34375 65.210938 L 324.164062 65.917969 L 324.058594 66.769531 L 334.554688 69.933594 L 341.203125 71.660156 L 339.570312 86.140625 L 339.832031 87.460938 L 339.734375 97.003906 L 339.445312 103.472656 L 338.414062 104.8125 L 336.4375 106.101562 L 333.773438 106.347656 L 331.238281 105.796875 L 325.910156 103.703125 L 323.460938 102.820312 L 322.347656 102.25 L 327.796875 89.488281 L 326.375 89.019531 L 320.535156 101.722656 L 312.992188 101.367188 L 317.941406 86.238281 L 317.273438 86.039062 L 316.605469 85.84375 L 311.464844 101.171875 L 294.15625 100.652344 L 293.816406 100.09375 L 296.128906 92.476562 L 298.878906 89.441406 L 301.359375 88.074219 L 307.042969 79.269531 L 307.667969 79.566406 L 313.308594 69.753906 Z M 318.640625 53.539062 "/>
<path style=" stroke:none;fill-rule:nonzero;fill:rgb(39.99939%,39.99939%,39.99939%);fill-opacity:0.3;" d="M 179.921875 57.195312 L 176.832031 66.296875 L 176.285156 71.347656 L 176.363281 76.289062 L 176.109375 80.152344 L 174.628906 83.105469 L 174.015625 83.511719 L 173.78125 58.460938 Z M 179.921875 57.195312 "/>
<path style=" stroke:none;fill-rule:nonzero;fill:rgb(39.99939%,39.99939%,39.99939%);fill-opacity:0.3;" d="M 255.859375 48.875 L 255.480469 49.34375 L 249.253906 46.375 L 247.375 45.925781 L 244.363281 45.347656 L 240.816406 44.617188 L 255.863281 41.507812 L 256.160156 41.734375 L 256.460938 42.324219 L 256.121094 45.792969 Z M 255.859375 48.875 "/>
<path style=" stroke:none;fill-rule:nonzero;fill:rgb(39.99939%,39.99939%,39.99939%);fill-opacity:0.3;" d="M 252.375 55.386719 L 249.609375 67.261719 L 246.75 68.960938 L 243.59375 73.03125 L 242.664062 74.746094 L 241.28125 78.699219 L 239.574219 80.570312 L 237.605469 79.921875 L 234.265625 75.617188 L 231.832031 74.871094 L 232.464844 69.128906 L 232.625 65.019531 L 231.484375 63.050781 L 230.5 61.734375 L 230.128906 60.726562 L 230.40625 59.15625 L 231.625 57.496094 L 234.917969 53.832031 L 235.8125 53.714844 L 237.03125 53.851562 L 238.15625 54.257812 L 239.359375 53.96875 L 240.261719 51.828125 L 240.941406 49.96875 L 241.617188 49.253906 L 242.96875 49.105469 L 244.097656 49.179688 L 244.363281 48.605469 L 244.625 48.035156 L 243.183594 47.960938 L 241.46875 48.226562 L 240.628906 48.699219 L 240.035156 49.609375 L 238.78125 52.867188 L 238.078125 53.402344 L 237.175781 53.003906 L 235.835938 52.796875 L 234.40625 53.015625 L 230.707031 57.195312 L 229.582031 58.949219 L 229.335938 60.867188 L 229.839844 62.132812 L 230.726562 63.320312 L 231.910156 65.125 L 231.925781 69.074219 L 231.238281 74.699219 L 226.40625 75.546875 L 224.769531 76.308594 L 219.519531 81.117188 L 213.964844 82.609375 L 214.863281 73.660156 L 212.855469 70.695312 L 211.730469 69.171875 L 211.730469 67.601562 L 212.226562 65.980469 L 213.214844 63.414062 L 213.933594 61.738281 L 213.378906 61.605469 L 212.828125 61.476562 L 211.972656 63.175781 L 211.164062 65.691406 L 210.574219 67.550781 L 210.578125 69.382812 L 211.738281 71.058594 L 213.589844 73.972656 L 212.371094 82.886719 L 208.648438 84.859375 L 202.878906 84.007812 L 205.566406 67.90625 L 205.054688 67.742188 L 204.539062 67.582031 L 201.511719 83.757812 L 194.527344 83.808594 L 179.613281 87.96875 L 175.699219 87.726562 L 174.800781 86.71875 L 178.347656 79.523438 L 179.214844 68.496094 L 180.894531 61.015625 L 183.285156 56.5 L 238.164062 45.164062 L 239.363281 45.453125 L 242.609375 45.945312 L 248.300781 47.085938 L 255.210938 50.097656 L 255.449219 50.773438 L 254.554688 53.210938 Z M 252.375 55.386719 "/>
<path style=" stroke:none;fill-rule:nonzero;fill:rgb(39.99939%,39.99939%,39.99939%);fill-opacity:0.3;" d="M 261.171875 36.804688 L 261.253906 36.738281 L 261.679688 36.261719 L 295.007812 16.046875 L 302.929688 8.125 L 303.605469 8.921875 L 297.867188 14.398438 L 298.304688 14.9375 L 298.738281 15.472656 L 304.324219 9.46875 L 307.675781 11.308594 L 323.289062 15.039062 L 324.695312 16.277344 L 324.992188 17.015625 L 321.210938 25.945312 L 319.117188 33.316406 L 312.304688 31.707031 L 306.527344 41.433594 L 304.273438 42.410156 L 301.703125 44 L 300.265625 45.496094 L 299.09375 52.253906 L 296.074219 57.167969 L 292.582031 60.105469 L 280.085938 63.804688 L 271.433594 68.332031 L 269.308594 68.875 L 257.359375 66.515625 L 254.460938 66.273438 L 250.828125 66.953125 L 253.460938 56.082031 L 254.648438 54.925781 L 256.40625 52.175781 L 257.085938 48.597656 L 257.113281 45.519531 L 257.230469 42.304688 L 264.460938 45.410156 L 266.835938 45.863281 L 270.558594 47.707031 L 270.785156 47.421875 L 271.007812 47.132812 L 267.546875 45.339844 L 266.542969 45.070312 L 264.734375 44.761719 L 258.625 42.089844 L 257.273438 41.191406 Z M 261.171875 36.804688 "/>
<path style=" stroke:none;fill-rule:nonzero;fill:rgb(39.99939%,39.99939%,39.99939%);fill-opacity:0.3;" d="M 153.671875 123.851562 L 156.074219 124.042969 L 157.667969 125.019531 Z M 153.671875 123.851562 "/>
<path style=" stroke:none;fill-rule:nonzero;fill:rgb(39.99939%,39.99939%,39.99939%);fill-opacity:0.3;" d="M 144.824219 120.03125 L 144.824219 119.847656 L 144.710938 115.933594 L 144.820312 114.242188 L 146.601562 112.125 L 150.164062 108.84375 L 154.394531 105.242188 L 164.527344 96.984375 L 172.546875 91.585938 L 174.359375 89.234375 L 175.257812 89.382812 L 178.234375 89.429688 L 179.574219 89.148438 L 180.460938 88.867188 L 181.410156 88.453125 L 183.371094 87.984375 L 186.171875 87.621094 L 185.351562 91.207031 L 186.242188 91.300781 L 187.09375 87.363281 L 192.238281 85.957031 L 197.046875 84.796875 L 201.230469 84.886719 L 206.183594 85.652344 L 208.882812 86.738281 L 208.9375 90.371094 L 208.414062 93.730469 L 207.9375 94.589844 L 203.742188 98.09375 L 197.6875 103.921875 L 196.867188 104.382812 L 192.222656 100.605469 L 191.835938 100.949219 L 191.453125 101.296875 L 195.78125 105 L 185.664062 107.332031 L 183.757812 108.105469 L 181.40625 108.96875 L 179.742188 108.96875 L 173.363281 108.5 L 170.300781 108.921875 L 163.296875 113.765625 L 157.039062 119.921875 L 154.625 122.128906 L 151.636719 122.636719 L 150.558594 121.820312 L 156.136719 114.707031 L 155.832031 114.484375 L 155.53125 114.261719 L 150.003906 121.207031 L 148.898438 121.570312 L 146.714844 121.128906 Z M 144.824219 120.03125 "/>
<path style=" stroke:none;fill-rule:nonzero;fill:rgb(39.99939%,39.99939%,39.99939%);fill-opacity:0.3;" d="M 171.566406 90.117188 L 171.335938 90.417969 L 170.730469 90.828125 Z M 171.566406 90.117188 "/>
<path style=" stroke:none;fill-rule:nonzero;fill:rgb(39.99939%,39.99939%,39.99939%);fill-opacity:0.3;" d="M 262.25 69.054688 L 265.089844 73.164062 L 265.238281 74.960938 L 264.636719 77.765625 L 263.425781 78.398438 L 250.988281 74.011719 L 245.945312 72.695312 L 248.445312 69.773438 L 250.199219 68.59375 L 254.378906 67.335938 L 257.886719 67.683594 Z M 262.25 69.054688 "/>
<path style=" stroke:none;fill-rule:nonzero;fill:rgb(39.99939%,39.99939%,39.99939%);fill-opacity:0.3;" d="M 347.640625 38.953125 L 356.542969 22.601562 L 356.578125 22.613281 L 347.605469 39.203125 Z M 347.640625 38.953125 "/>
<path style=" stroke:none;fill-rule:nonzero;fill:rgb(39.99939%,39.99939%,39.99939%);fill-opacity:0.3;" d="M 336.488281 14.394531 L 335.621094 14.136719 L 335.78125 14.132812 Z M 336.488281 14.394531 "/>
<path style=" stroke:none;fill-rule:nonzero;fill:rgb(39.99939%,39.99939%,39.99939%);fill-opacity:0.3;" d="M 317.679688 12.09375 L 316.792969 11.875 L 315.648438 11.542969 L 315.167969 11.339844 Z M 317.679688 12.09375 "/>
<path style=" stroke:none;fill-rule:nonzero;fill:rgb(39.99939%,39.99939%,39.99939%);fill-opacity:0.3;" d="M 351.867188 22.976562 L 350.746094 27.246094 L 345.511719 36.210938 L 343.96875 37.730469 L 338.148438 37.78125 L 334.542969 37.6875 L 330.320312 37.054688 L 320.488281 33.59375 L 322.433594 26.714844 L 323.171875 24.71875 L 324.089844 22.894531 L 326.375 18.769531 L 326.425781 15.359375 L 332.628906 14.523438 L 348.058594 20.269531 Z M 351.867188 22.976562 "/>
<g clip-path="url(#clip1)" clip-rule="nonzero">
<path style=" stroke:none;fill-rule:nonzero;fill:rgb(39.99939%,39.99939%,39.99939%);fill-opacity:0.3;" d="M 366.226562 60.894531 L 383.40625 63.21875 L 398.824219 60.097656 L 411.613281 63.765625 L 423.265625 66.988281 L 430.335938 69.835938 L 442.5625 74.265625 L 445.574219 75.597656 L 448.167969 77.027344 L 444.253906 81.304688 L 443.25 82.386719 L 442.394531 83.574219 L 441.59375 84.796875 L 440.890625 86.121094 L 440.015625 87.566406 L 439.121094 89.367188 L 438.207031 91.726562 L 437.664062 93.714844 L 437.109375 95.796875 L 436.742188 96.761719 L 436.140625 97.472656 L 435.171875 97.871094 L 434.015625 98.160156 L 432.53125 98.289062 L 430.964844 98.34375 L 429.308594 98.1875 L 427.652344 97.832031 L 426.351562 97.367188 L 424.695312 97.246094 L 423.378906 97.488281 L 422.195312 97.820312 L 421.34375 97.957031 L 420.660156 97.839844 L 419.472656 97.378906 L 418.554688 97.160156 L 416.605469 96.957031 L 415.324219 97.078125 L 413.8125 97.402344 L 412.304688 98.023438 L 411.277344 98.523438 L 410.085938 99.316406 L 408.804688 100.386719 L 407.554688 101.796875 L 406.507812 103.226562 L 405.605469 104.855469 L 404.882812 106.582031 L 404.304688 108.796875 L 404.011719 111.292969 L 404.128906 114.183594 L 404.433594 116.160156 L 405.078125 118.265625 L 405.84375 120.441406 L 407.023438 122.679688 L 408.203125 124.289062 L 409.359375 125.316406 L 410.667969 126.089844 L 411.226562 126.828125 L 411.710938 127.878906 L 412.183594 128.976562 L 412.449219 129.792969 L 412.523438 130.796875 L 412.269531 132.730469 L 413.070312 136.015625 L 414.578125 138.746094 L 416.734375 140.195312 L 417.730469 141.421875 L 418.039062 143.398438 L 417.617188 147.085938 L 401.6875 140.226562 L 403.96875 130.359375 L 403.171875 130.15625 L 400.871094 139.871094 L 396.855469 137.890625 L 393.683594 136.582031 L 391.421875 135.789062 L 389.027344 134.785156 L 386.875 134.121094 L 383.734375 133.4375 L 380.09375 132.53125 L 375.316406 131.21875 L 372.976562 130.71875 L 369.59375 129.804688 L 368.8125 129.558594 L 368.03125 129.390625 L 367.164062 129.0625 L 366.210938 128.648438 L 365.429688 128.320312 L 364.648438 128.070312 L 364.152344 127.535156 L 363.730469 127.132812 L 363.464844 126.84375 L 363.15625 126.550781 L 362.886719 126.257812 L 362.65625 125.894531 L 362.347656 125.316406 L 362.117188 124.804688 L 361.925781 124.332031 L 361.8125 123.859375 L 361.695312 123.351562 L 361.621094 122.953125 L 361.542969 122.554688 L 361.351562 122.082031 L 361.15625 121.644531 L 360.925781 121.242188 L 360.660156 120.769531 L 360.390625 120.371094 L 360.082031 119.898438 L 359.660156 119.171875 L 359.351562 118.769531 L 358.890625 118.117188 L 358.507812 117.570312 L 358.277344 117.242188 L 355.703125 114.039062 L 354.628906 112.914062 L 354.09375 112.367188 L 353.59375 111.855469 L 350.214844 108.882812 L 346.066406 105.539062 L 343.964844 103.492188 L 343.089844 102.15625 L 342.445312 100.683594 L 341.953125 99.5 L 341.613281 98.242188 L 341.382812 97.054688 L 341.371094 95.410156 L 341.394531 94.792969 L 341.445312 93.867188 L 341.816406 90.734375 L 342.429688 83.308594 L 343.246094 75.785156 L 347.585938 75.179688 L 347.519531 74.726562 L 347.449219 74.273438 L 343.34375 74.769531 L 343.960938 65.40625 L 362.566406 71.648438 L 362.730469 71.125 L 362.898438 70.597656 L 344.296875 63.746094 L 344.726562 60.042969 L 344.847656 58.121094 L 345.039062 55.976562 L 345.226562 54.960938 L 345.777344 54.632812 L 346.613281 54.660156 L 347.539062 54.921875 L 348.621094 55.257812 L 350.371094 55.777344 L 355.597656 57.230469 L 361.820312 59.394531 L 362.886719 59.882812 L 363.320312 60.105469 L 364.144531 60.589844 L 365.011719 61.414062 L 367.871094 64.289062 L 369.453125 66.066406 L 367.21875 72.269531 L 368.585938 72.472656 L 371.007812 65.890625 Z M 366.226562 60.894531 "/>
</g>
<g clip-path="url(#clip2)" clip-rule="nonzero">
<path style=" stroke:none;fill-rule:nonzero;fill:rgb(39.99939%,39.99939%,39.99939%);fill-opacity:0.3;" d="M 423.78125 65.773438 L 399.15625 58.960938 L 410.136719 24.265625 L 409.183594 24.039062 L 397.769531 58.945312 L 384.320312 61.761719 L 365.464844 59.621094 L 365.457031 59.382812 L 365.53125 59.179688 L 374.128906 37.082031 L 378.195312 37.242188 L 379.601562 36.984375 L 382.1875 34.554688 L 381.753906 34.269531 L 381.320312 33.980469 L 379.09375 36.070312 L 378.121094 36.246094 L 376.789062 36.25 L 376.125 36.15625 L 375.5 35.984375 L 375.085938 35.703125 L 374.9375 35.179688 L 376.769531 30.074219 L 376.65625 29.679688 L 371.421875 27.46875 L 377.832031 9.820312 L 378.933594 7.632812 L 385.003906 -2.558594 L 388.445312 -8.914062 L 393.335938 -6.734375 L 393.445312 -6.957031 L 393.550781 -7.179688 L 387.976562 -9.667969 L 373.308594 -16.496094 L 383.355469 -36.984375 L 379.457031 -38.503906 L 376.914062 -39.667969 L 380.246094 -46.851562 L 379.277344 -47.277344 L 378.304688 -47.699219 L 374.222656 -39.570312 L 374.355469 -38.933594 L 374.800781 -38.132812 L 378.542969 -36.660156 L 380.605469 -35.898438 L 369.304688 -12.277344 L 357.644531 -17.132812 L 366.039062 -36.25 L 366.144531 -37.070312 L 366.039062 -37.824219 L 365.570312 -38.378906 L 364.894531 -39.070312 L 362.109375 -40.046875 L 351.234375 -42.363281 L 342.347656 -45.183594 L 341.785156 -45.183594 L 341.335938 -45.078125 L 340.5625 -44.40625 L 333.808594 -29.597656 L 333.578125 -29.597656 L 332.886719 -29.601562 L 327.414062 -31.933594 L 326.949219 -32.300781 L 326.796875 -32.664062 L 326.71875 -33.171875 L 326.792969 -34.046875 L 331.945312 -45.949219 L 331.214844 -46.191406 L 330.484375 -46.4375 L 326.035156 -35.855469 L 320.792969 -37.808594 L 321.902344 -40.496094 L 321.230469 -40.648438 L 321.144531 -40.675781 L 320.527344 -40.820312 L 317.539062 -31.46875 L 316.59375 -31.285156 L 312.890625 -31.613281 L 312.855469 -31.003906 L 312.8125 -30.371094 L 317.316406 -29.941406 L 318.074219 -29.941406 L 318.578125 -30.121094 L 319.019531 -30.417969 L 319.394531 -30.953125 L 320.902344 -35.3125 L 321.34375 -35.667969 L 321.972656 -35.847656 L 322.605469 -35.789062 L 325.128906 -34.652344 L 325.507812 -34.472656 L 325.636719 -34.234375 L 325.636719 -33.457031 L 325.574219 -32.800781 L 325.449219 -32.382812 L 321.492188 -23.082031 L 322.4375 -22.722656 L 326.019531 -30.414062 L 332.523438 -27.84375 L 333.519531 -27.625 L 328.632812 -19.628906 L 328.449219 -19.191406 L 328.117188 -18.800781 L 326.789062 -17.234375 L 316.441406 -0.910156 L 315.613281 -0.0390625 L 313.375 2.898438 L 312.933594 3.902344 L 312.707031 4.640625 L 312.304688 5.828125 L 312.128906 7.660156 L 312.195312 8.484375 L 312.15625 9.238281 L 312.15625 9.621094 L 311.699219 9.847656 L 311.296875 9.859375 L 307.1875 8.566406 L 306.5625 8.015625 L 306.175781 7.566406 L 305.835938 7.074219 L 304.644531 5.914062 L 302.839844 4.078125 L 300.828125 1.78125 L 299.660156 -19.253906 L 308.140625 -44.15625 L 341.800781 -124.609375 L 315.320312 -146.105469 L 315.839844 -146.730469 L 328.417969 -163.304688 L 342.378906 -183.035156 L 355.242188 -201.773438 L 374.496094 -230.164062 L 375.003906 -230.339844 L 375.492188 -230.3125 L 376.300781 -230.148438 L 377.066406 -229.574219 L 377.472656 -229.28125 L 382.917969 -224.566406 L 386.191406 -221.652344 L 390.230469 -218.191406 L 391.988281 -216.433594 L 393.71875 -214.320312 L 395.34375 -211.585938 L 397.21875 -207.765625 L 398.542969 -204.351562 L 399.742188 -200.832031 L 400.402344 -197.265625 L 400.914062 -193.445312 L 400.523438 -189.582031 L 399.984375 -185.78125 L 399.035156 -181.4375 L 398.109375 -177.210938 L 397.59375 -172.855469 L 397.390625 -172.070312 L 397.257812 -171.304688 L 397.183594 -170.34375 L 397.203125 -169.484375 L 397.324219 -168.488281 L 397.535156 -167.558594 L 397.742188 -166.917969 L 398.226562 -165.761719 L 403.832031 -153.019531 L 426.078125 -106.609375 L 430.457031 -98.902344 L 434.246094 -92.027344 L 436.265625 -87.878906 L 439.488281 -84.757812 L 443.105469 -82.582031 L 446.292969 -81.007812 L 449.734375 -79.742188 L 452.921875 -77.609375 L 455.285156 -75.589844 L 458.238281 -72.226562 L 460.367188 -67.964844 L 463.675781 -62.925781 L 467.695312 -55.871094 L 469.953125 -51.003906 L 470.667969 -47.203125 L 470.914062 -42.167969 L 470.125 -37.828125 L 468.5 -34.578125 L 468.5 -33.859375 L 467.628906 -31.992188 L 467.449219 -29.136719 L 467.503906 -27.191406 L 468.109375 -25.0625 L 469.183594 -22.230469 L 469.472656 -21.878906 L 469.785156 -21.535156 L 470.273438 -21.054688 L 470.636719 -20.640625 L 471.089844 -20.171875 L 471.484375 -19.796875 L 472.113281 -19.261719 L 472.570312 -18.914062 L 473.066406 -18.566406 L 473.460938 -18.316406 L 473.964844 -18.023438 L 474.484375 -17.75 L 475 -17.503906 L 475.273438 -17.386719 L 475.933594 -17.097656 L 472.605469 -6.390625 L 448.917969 75.972656 L 446.898438 74.753906 L 445.566406 74.117188 L 443.359375 73.375 Z M 423.78125 65.773438 "/>
</g>
<g clip-path="url(#clip3)" clip-rule="nonzero">
<path style=" stroke:none;fill-rule:nonzero;fill:rgb(39.99939%,39.99939%,39.99939%);fill-opacity:0.3;" d="M 368.003906 -9.835938 L 363.90625 1.078125 L 361.285156 8.511719 L 360.699219 10.496094 L 355.648438 20.453125 L 355.125 20.945312 L 344.265625 16.953125 L 343.667969 16 L 347.003906 8.488281 L 348.535156 4.753906 L 349.003906 3.132812 L 349.96875 0.492188 L 352.089844 -4.671875 L 355.101562 -11.820312 L 356.78125 -15.441406 L 368.003906 -10.941406 L 368.183594 -10.601562 L 368.183594 -10.347656 Z M 368.003906 -9.835938 "/>
</g>
<g clip-path="url(#clip4)" clip-rule="nonzero">
<path style=" stroke:none;fill-rule:nonzero;fill:rgb(39.99939%,39.99939%,39.99939%);fill-opacity:0.3;" d="M 356.542969 22.601562 L 356.589844 22.515625 L 374.820312 30.21875 L 375.101562 30.996094 L 364.445312 58.984375 L 345.574219 52.75 L 347.605469 39.203125 L 356.578125 22.613281 Z M 356.542969 22.601562 "/>
</g>
<g clip-path="url(#clip5)" clip-rule="nonzero">
<path style=" stroke:none;fill-rule:nonzero;fill:rgb(39.99939%,39.99939%,39.99939%);fill-opacity:0.3;" d="M 386.625 -8.476562 L 383.519531 -2.75 L 377.511719 7.339844 L 376.71875 9.171875 L 370.617188 25.824219 L 370.289062 26.324219 L 370.183594 26.625 L 369.964844 26.722656 L 369.433594 26.878906 L 356.902344 21.492188 L 361.972656 11.210938 L 362.898438 8.976562 L 365.640625 1.683594 L 369.167969 -7.871094 L 370.683594 -10.941406 L 372.695312 -14.742188 L 373.023438 -14.992188 L 386.691406 -8.851562 Z M 386.625 -8.476562 "/>
</g>
<path style=" stroke:none;fill-rule:nonzero;fill:rgb(39.99939%,39.99939%,39.99939%);fill-opacity:0.3;" d="M 358.390625 -23.125 L 353.316406 -12.265625 L 350.433594 -5.320312 L 348.566406 -0.933594 L 343.328125 -2.394531 L 343.261719 -2.035156 L 343.183594 -1.726562 L 348.292969 -0.25 L 347.21875 2.777344 L 346.898438 3.984375 L 345.136719 7.894531 L 341.6875 15.199219 L 339.867188 14.519531 L 339.433594 15.269531 L 336.488281 14.394531 L 335.78125 14.132812 L 335.621094 14.136719 L 333.015625 13.359375 L 325.007812 13.960938 L 322.726562 13.402344 L 321.683594 13.1875 L 320.886719 12.980469 L 319.992188 12.738281 L 318.941406 12.4375 L 317.894531 12.148438 L 317.679688 12.09375 L 315.167969 11.339844 L 314.359375 11.003906 L 313.90625 10.535156 L 313.640625 9.890625 L 313.386719 8.871094 L 313.226562 8.320312 L 313.171875 7.671875 L 313.332031 6.023438 L 313.707031 4.925781 L 313.917969 4.226562 L 314.292969 3.375 L 316.429688 0.574219 L 317.285156 -0.328125 L 321.550781 -6.855469 L 327.582031 -3.839844 L 327.878906 -4.367188 L 328.179688 -4.894531 L 322.214844 -7.953125 L 327.648438 -16.671875 L 328.929688 -18.183594 L 329.355469 -18.6875 L 329.570312 -19.195312 L 334.265625 -26.875 L 334.695312 -27.078125 L 335.015625 -26.976562 L 335.65625 -26.875 L 342.402344 -23.835938 L 343.152344 -23.632812 L 343.578125 -23.632812 L 344.007812 -24.039062 L 345.605469 -27.578125 L 345.925781 -27.78125 L 346.246094 -27.882812 L 346.675781 -27.78125 Z M 358.390625 -23.125 "/>
<g clip-path="url(#clip6)" clip-rule="nonzero">
<path style=" stroke:none;fill-rule:nonzero;fill:rgb(39.99939%,39.99939%,39.99939%);fill-opacity:0.3;" d="M 363.386719 180.1875 L 378.882812 184.605469 L 396.574219 189.871094 L 406.457031 192.632812 L 408.113281 192.949219 L 409.777344 193.210938 L 411.960938 193.839844 L 418.070312 196.011719 L 420.128906 198.414062 L 420.308594 202.03125 L 420.144531 216.402344 L 420.613281 219.40625 L 419.417969 220.285156 L 416.652344 221.972656 L 414.277344 224.027344 L 411.820312 226.304688 L 409.90625 228.578125 L 408.371094 231.363281 L 406.839844 234.222656 L 405.433594 235.65625 L 403.589844 236.390625 L 399.589844 236.46875 L 394.054688 235.671875 L 388.441406 233.921875 L 382.824219 231.367188 L 379.515625 229.761719 L 374.515625 228.160156 L 372.976562 227.210938 L 369.28125 224.945312 L 362.742188 222.246094 L 361.09375 222.136719 L 358.40625 222.507812 L 356.5625 222.363281 L 352.867188 220.761719 L 349.171875 218.421875 L 348.765625 218.144531 L 350.285156 211.703125 L 348.992188 176.167969 Z M 363.386719 180.1875 "/>
</g>
<g clip-path="url(#clip7)" clip-rule="nonzero">
<path style=" stroke:none;fill-rule:nonzero;fill:rgb(39.99939%,39.99939%,39.99939%);fill-opacity:0.3;" d="M 397.726562 189.015625 L 400.417969 180.375 L 399.441406 180.164062 L 396.6875 188.6875 L 379.707031 184.027344 L 382.472656 175.144531 L 381.984375 175.039062 L 381.496094 174.929688 L 378.671875 183.671875 L 353.632812 176.589844 L 348.960938 175.355469 L 348.640625 166.550781 L 349.738281 160.804688 L 349.820312 160.296875 L 361.789062 162.789062 L 367.628906 162.757812 L 372.878906 163.652344 L 381.453125 163.375 L 413.808594 163.605469 L 416.3125 163.460938 L 417.230469 163.308594 L 418.382812 163.300781 L 419.515625 164.089844 L 420.40625 165.328125 L 419.824219 167.148438 L 418.207031 171.027344 L 418.070312 179.964844 L 417.398438 182.898438 L 417.675781 194.675781 L 411.679688 192.9375 L 411.011719 192.660156 L 410.023438 192.359375 L 408.671875 192.09375 L 406.871094 191.816406 Z M 397.726562 189.015625 "/>
</g>
<g clip-path="url(#clip8)" clip-rule="nonzero">
<path style=" stroke:none;fill-rule:nonzero;fill:rgb(39.99939%,39.99939%,39.99939%);fill-opacity:0.3;" d="M 398.859375 140.992188 L 416.714844 149.445312 L 417.164062 149.796875 L 417.546875 150.378906 L 417.945312 156.085938 L 418.28125 161.332031 L 417.558594 162.078125 L 416.957031 162.324219 L 416.023438 162.511719 L 413.746094 162.65625 L 411.5625 162.578125 L 381.34375 162.398438 L 376.414062 162.605469 L 373.605469 162.636719 L 372.585938 162.636719 L 369.726562 162.121094 L 367.832031 161.835938 L 363.894531 161.8125 L 360.976562 161.671875 L 352.898438 159.726562 L 350.675781 159.242188 L 350.003906 159.207031 L 352.199219 146.027344 L 353.839844 134.808594 L 353.523438 133.515625 L 353.53125 133.386719 L 353.605469 131.972656 L 353.605469 131.121094 L 353.53125 130.269531 L 353.378906 129.632812 L 353.15625 129.066406 L 352.707031 128.429688 L 352.34375 127.8125 L 352.097656 127.683594 L 350.558594 121.402344 L 349.738281 117.570312 L 342.402344 105.140625 L 343.738281 106.480469 L 346.015625 108.421875 L 348.289062 110.039062 L 349.902344 111.355469 L 351.644531 113.351562 L 353.070312 114.632812 L 354.117188 115.625 L 354.945312 116.621094 L 355.84375 117.6875 L 356.742188 118.824219 L 357.34375 119.605469 L 357.867188 120.597656 L 358.167969 121.664062 L 358.539062 122.828125 L 358.839844 124.175781 L 358.914062 125.238281 L 361 126.789062 L 362.78125 128.582031 L 365.25 129.882812 L 369.191406 131.308594 L 380.136719 134.214844 L 387.492188 136.0625 L 390.902344 137.175781 L 395.886719 139.277344 L 396.101562 139.382812 L 396.265625 139.746094 L 396.207031 140.207031 L 394.984375 142.59375 L 392.316406 147.308594 L 391.628906 147.335938 L 372.058594 143.878906 L 363.933594 142.378906 L 359.890625 141.523438 L 359.804688 142.398438 L 372.007812 144.710938 L 391.875 148.300781 L 393.121094 148.214844 L 394.398438 146.136719 L 396.046875 143.101562 L 397.425781 140.285156 Z M 398.859375 140.992188 "/>
</g>
<path style="fill-rule:nonzero;fill:rgb(39.99939%,39.99939%,39.99939%);fill-opacity:1;stroke-width:0.03;stroke-linecap:square;stroke-linejoin:miter;stroke:rgb(39.99939%,39.99939%,39.99939%);stroke-opacity:1;stroke-miterlimit:3.239307;" d="M 142.785156 173.792969 L 139.90625 172.679688 L 137.910156 171.976562 L 134.890625 170.3125 Z M 142.785156 173.792969 " transform="matrix(1,0,0,1,-74,-13)"/>
<path style="fill-rule:nonzero;fill:rgb(39.99939%,39.99939%,39.99939%);fill-opacity:1;stroke-width:0.03;stroke-linecap:square;stroke-linejoin:miter;stroke:rgb(39.99939%,39.99939%,39.99939%);stroke-opacity:1;stroke-miterlimit:3.239307;" d="M 150.664062 173.886719 L 149.988281 174.164062 L 149.859375 174.191406 Z M 150.664062 173.886719 " transform="matrix(1,0,0,1,-74,-13)"/>
<path style="fill-rule:nonzero;fill:rgb(39.99939%,39.99939%,39.99939%);fill-opacity:1;stroke-width:0.03;stroke-linecap:square;stroke-linejoin:miter;stroke:rgb(39.99939%,39.99939%,39.99939%);stroke-opacity:1;stroke-miterlimit:3.239307;" d="M 205.96875 160.199219 L 206.417969 160.757812 L 206.476562 161.785156 L 205.125 165.71875 L 203.382812 168.929688 L 200.644531 175.601562 L 200.085938 177.496094 L 199.804688 178.03125 L 199.542969 191.242188 L 198.722656 190.910156 L 196.910156 190.578125 L 195.917969 190.578125 L 190.542969 190.527344 L 189.253906 190.140625 L 184.636719 187.648438 L 175.183594 183.578125 L 167.039062 181.359375 L 167.390625 180.839844 L 173.964844 180.113281 L 177.679688 178.933594 L 182.457031 176.527344 L 186.195312 174.347656 L 186.652344 174.113281 L 189.535156 170.695312 L 189.007812 170.332031 L 191.332031 166.34375 L 191.300781 164.710938 L 194.453125 161.082031 L 189.175781 156.25 L 188.882812 154.9375 L 194.351562 148.171875 L 201.945312 158.203125 Z M 205.96875 160.199219 " transform="matrix(1,0,0,1,-74,-13)"/>
<path style="fill-rule:nonzero;fill:rgb(39.99939%,39.99939%,39.99939%);fill-opacity:1;stroke-width:0.03;stroke-linecap:square;stroke-linejoin:miter;stroke:rgb(39.99939%,39.99939%,39.99939%);stroke-opacity:1;stroke-miterlimit:3.239307;" d="M 382.570312 152.6875 L 379.914062 153.921875 L 376.675781 156.90625 L 374.910156 159.421875 L 373.539062 163.898438 L 373.933594 166.042969 L 374.722656 169.398438 L 370.5 169.773438 L 366.476562 170.054688 L 364.054688 170.410156 L 344.378906 167.785156 L 342.835938 167.117188 L 341.398438 166.261719 L 339.324219 163.613281 L 338.125 162.78125 L 336.769531 162.480469 L 332.226562 162.179688 L 330.421875 162.089844 L 324.402344 159.851562 L 321.257812 159.207031 L 319.71875 158.59375 L 315.824219 157.136719 L 312.464844 156.808594 L 309.242188 157 L 305.164062 156.933594 L 305.007812 158.089844 L 299.324219 155.417969 L 323.308594 151.914062 L 329.054688 152.734375 L 330.148438 140.96875 L 362.714844 141.789062 L 381.046875 149.453125 Z M 382.570312 152.6875 " transform="matrix(1,0,0,1,-74,-13)"/>
<path style="fill-rule:nonzero;fill:rgb(39.99939%,39.99939%,39.99939%);fill-opacity:1;stroke-width:0.03;stroke-linecap:square;stroke-linejoin:miter;stroke:rgb(39.99939%,39.99939%,39.99939%);stroke-opacity:1;stroke-miterlimit:3.239307;" d="M 298.171875 155.296875 L 297.613281 155.25 L 286.402344 153.785156 L 283.1875 152.777344 L 296.492188 154.925781 Z M 298.171875 155.296875 " transform="matrix(1,0,0,1,-74,-13)"/>
<path style="fill-rule:nonzero;fill:rgb(39.99939%,39.99939%,39.99939%);fill-opacity:1;stroke-width:0.03;stroke-linecap:square;stroke-linejoin:miter;stroke:rgb(39.99939%,39.99939%,39.99939%);stroke-opacity:1;stroke-miterlimit:3.239307;" d="M 250.417969 143.703125 L 247.203125 142.863281 L 236.902344 139.785156 L 235.351562 139.207031 L 234.90625 138.964844 L 241.761719 140.96875 Z M 250.417969 143.703125 " transform="matrix(1,0,0,1,-74,-13)"/>
<path style="fill-rule:nonzero;fill:rgb(39.99939%,39.99939%,39.99939%);fill-opacity:1;stroke-width:0.03;stroke-linecap:square;stroke-linejoin:miter;stroke:rgb(39.99939%,39.99939%,39.99939%);stroke-opacity:1;stroke-miterlimit:3.239307;" d="M 163.507812 250.707031 L 163.6875 251.3125 L 163.582031 252.832031 Z M 163.507812 250.707031 " transform="matrix(1,0,0,1,-74,-13)"/>
<path style="fill-rule:nonzero;fill:rgb(39.99939%,39.99939%,39.99939%);fill-opacity:1;stroke-width:0.03;stroke-linecap:square;stroke-linejoin:miter;stroke:rgb(39.99939%,39.99939%,39.99939%);stroke-opacity:1;stroke-miterlimit:3.239307;" d="M 150.464844 225.171875 L 150.621094 229.21875 L 150.269531 230.371094 L 150.019531 230.867188 Z M 150.464844 225.171875 " transform="matrix(1,0,0,1,-74,-13)"/>
<path style="fill-rule:nonzero;fill:rgb(39.99939%,39.99939%,39.99939%);fill-opacity:1;stroke-width:0.03;stroke-linecap:square;stroke-linejoin:miter;stroke:rgb(39.99939%,39.99939%,39.99939%);stroke-opacity:1;stroke-miterlimit:3.239307;" d="M 163.175781 249.714844 L 163.253906 249.84375 L 163.289062 249.964844 Z M 163.175781 249.714844 " transform="matrix(1,0,0,1,-74,-13)"/>
<path style="fill-rule:nonzero;fill:rgb(39.99939%,39.99939%,39.99939%);fill-opacity:1;stroke-width:0.03;stroke-linecap:square;stroke-linejoin:miter;stroke:rgb(39.99939%,39.99939%,39.99939%);stroke-opacity:1;stroke-miterlimit:3.239307;" d="M 202.371094 307.949219 L 202.375 307.949219 L 202.375 307.957031 Z M 202.371094 307.949219 " transform="matrix(1,0,0,1,-74,-13)"/>
<path style="fill-rule:nonzero;fill:rgb(39.99939%,39.99939%,39.99939%);fill-opacity:1;stroke-width:0.03;stroke-linecap:square;stroke-linejoin:miter;stroke:rgb(39.99939%,39.99939%,39.99939%);stroke-opacity:1;stroke-miterlimit:3.239307;" d="M 204.882812 158.359375 L 202.589844 157.1875 L 195.324219 147.816406 L 195.402344 146.019531 L 204.988281 139.429688 L 208.414062 136.726562 L 209.402344 137 L 212.796875 139.207031 L 216.242188 139.910156 L 232.441406 145.988281 L 232.699219 145.582031 L 232.957031 145.179688 L 219.15625 140.167969 L 221.738281 136.617188 L 223.164062 136.078125 L 225.136719 136.644531 L 227.671875 136.851562 L 231.667969 138.019531 L 234.269531 139.605469 L 242.023438 142.019531 L 233.371094 160.046875 L 233.734375 160.167969 L 234.097656 160.285156 L 242.695312 142.25 L 253.722656 145.667969 L 235.21875 184.191406 L 236.59375 184.660156 L 254.746094 146.074219 L 264.367188 149.128906 L 264.8125 152.167969 L 263.929688 154.582031 L 260.089844 163.027344 L 260.410156 163.210938 L 260.734375 163.398438 L 265.476562 153.21875 L 265.78125 151.714844 L 265.695312 149.441406 L 275.476562 152.101562 L 269.542969 165.054688 L 270.042969 165.230469 L 270.539062 165.410156 L 276.394531 152.363281 L 286.25 154.9375 L 295.019531 156.082031 L 288.945312 171.554688 L 289.566406 171.636719 L 290.183594 171.722656 L 296.507812 156.152344 L 298.699219 156.308594 L 304.589844 158.984375 L 304.417969 162.285156 L 300.59375 165.167969 L 291.5 172.664062 L 289.820312 174.660156 L 282.859375 183.5 L 279.085938 188.421875 L 268.8125 202.855469 L 268.03125 203.632812 L 267.617188 204.53125 L 266.25 206.453125 L 265.128906 208.597656 L 265.222656 210.59375 L 266.484375 212.320312 L 268.820312 214.132812 L 271.757812 214.800781 L 274.640625 215.332031 L 276.242188 215.679688 L 277.921875 217.15625 L 279.71875 219.78125 L 280.753906 227.449219 L 276.792969 232.742188 L 276.046875 233.945312 L 274.902344 236.890625 L 274.386719 240.820312 L 273.8125 242.515625 L 273.355469 243.988281 L 272.722656 244.914062 L 270.71875 249.898438 L 266.8125 269.445312 L 265.226562 270.917969 L 264.0625 271.554688 L 261.21875 271.53125 L 257.808594 273.652344 L 255.460938 279.96875 L 250.183594 287.757812 L 244.410156 294.539062 L 244.011719 295.453125 L 244.128906 296.746094 L 244.300781 300.617188 L 243.285156 303.203125 L 242.09375 304.277344 L 238.242188 304.121094 L 237.277344 304.226562 L 235.804688 305.035156 L 235.523438 306.113281 L 235.449219 307.964844 L 234.414062 309.222656 L 232.113281 310.425781 L 228.453125 312.425781 L 225.582031 314.828125 L 223.542969 320.59375 L 222.644531 321.34375 L 221.980469 321.445312 L 220.492188 321.5625 L 218.257812 321.570312 L 213.027344 320.207031 L 208.375 317.195312 L 205.09375 312.542969 L 204.765625 311.992188 L 204.4375 308.601562 L 204.003906 307.210938 L 201.046875 305.71875 L 200.714844 305.15625 L 196.335938 303.242188 L 192.183594 300.179688 L 191.363281 299.144531 L 186.609375 292.261719 L 185.9375 291.199219 L 184.84375 288.464844 L 176.8125 271.898438 L 178.089844 270.5625 L 179.707031 268.679688 L 182.710938 265.074219 L 184.035156 264.558594 L 189.125 267.652344 L 192.78125 266.230469 L 200.5 260.523438 L 206.597656 257.84375 L 212.8125 255.835938 L 216.625 253.4375 L 221.371094 249.339844 L 221.75 249.644531 L 221.617188 255.804688 L 221.742188 256.609375 L 222.089844 257.578125 L 222.515625 258.113281 L 226.976562 260.527344 L 228.738281 261.886719 L 230.019531 265.980469 L 230.207031 271.421875 L 230.816406 271.3125 L 231.421875 271.199219 L 230.71875 265.578125 L 229.300781 261 L 227.273438 259.792969 L 223.132812 257.730469 L 222.640625 257.089844 L 222.429688 255.375 L 222.601562 251.734375 L 223.992188 247.132812 L 225.703125 245.9375 L 229.089844 243.769531 L 235.792969 242.902344 L 241.917969 245.023438 L 243.519531 244.789062 L 243.90625 240.996094 L 246.050781 234.421875 L 252.710938 233.246094 L 252.476562 232.464844 L 251.675781 221.839844 L 252.933594 218.746094 L 252.210938 214.699219 L 259.96875 203.648438 L 259.210938 202.875 L 251.523438 213.621094 L 247.144531 211.789062 L 244.371094 210.34375 L 240.265625 207.917969 L 238.046875 208.761719 L 235.066406 209.148438 L 232.902344 209.910156 L 229.570312 210.597656 L 227.460938 209.644531 L 225.84375 209.175781 L 223.835938 206.707031 L 222.65625 203.898438 L 221.230469 202.128906 L 226.546875 185.773438 L 226.546875 183.863281 L 227.234375 182.277344 L 228.378906 178.792969 L 229.800781 165.414062 L 216.910156 161.976562 L 211.460938 158.921875 Z M 204.882812 158.359375 " transform="matrix(1,0,0,1,-74,-13)"/>
<path style="fill-rule:nonzero;fill:rgb(39.99939%,39.99939%,39.99939%);fill-opacity:1;stroke-width:0.03;stroke-linecap:square;stroke-linejoin:miter;stroke:rgb(39.99939%,39.99939%,39.99939%);stroke-opacity:1;stroke-miterlimit:3.239307;" d="M 205.945312 166.042969 L 215.261719 168.71875 L 211.019531 180.828125 L 200.597656 178.40625 L 200.914062 177.796875 L 201.484375 175.867188 L 204.191406 169.273438 Z M 205.945312 166.042969 " transform="matrix(1,0,0,1,-74,-13)"/>
<path style="fill-rule:nonzero;fill:rgb(39.99939%,39.99939%,39.99939%);fill-opacity:1;stroke-width:0.03;stroke-linecap:square;stroke-linejoin:miter;stroke:rgb(39.99939%,39.99939%,39.99939%);stroke-opacity:1;stroke-miterlimit:3.239307;" d="M 205.753906 199.058594 L 209.847656 186.320312 L 209.457031 186.214844 L 209.074219 186.097656 L 205.125 198.476562 L 204.699219 197.957031 L 201.886719 193.945312 L 200.171875 192.3125 L 200.566406 179.394531 L 211.492188 182.058594 L 216.328125 168.273438 L 206.1875 165.335938 L 207.363281 161.917969 L 207.359375 159.777344 L 211.046875 160.125 L 216.394531 163.121094 L 228.394531 166.324219 L 227.09375 178.542969 L 226.007812 181.859375 L 225.246094 183.617188 L 225.246094 185.585938 L 220.160156 201.230469 L 218.234375 200.105469 L 215.265625 199.503906 L 213.175781 199.476562 L 210.972656 199.445312 L 214.34375 189.394531 L 214.03125 189.28125 L 213.679688 189.164062 L 209.941406 199.378906 L 207.144531 199.535156 Z M 205.753906 199.058594 " transform="matrix(1,0,0,1,-74,-13)"/>
<path style="fill-rule:nonzero;fill:rgb(39.99939%,39.99939%,39.99939%);fill-opacity:1;stroke-width:0.03;stroke-linecap:square;stroke-linejoin:miter;stroke:rgb(39.99939%,39.99939%,39.99939%);stroke-opacity:1;stroke-miterlimit:3.239307;" d="M 129.664062 192.128906 L 136.332031 192.453125 L 136.378906 192.097656 L 136.429688 191.738281 L 129.546875 191.261719 L 126.5625 183.964844 L 125.671875 182.457031 L 125.429688 181.785156 L 128.074219 175.300781 L 128.378906 168.449219 L 136.234375 172.402344 L 146.289062 176.449219 L 150.628906 177.835938 L 155.09375 179.34375 L 154.488281 187.726562 L 154.894531 188.480469 L 155.121094 189.242188 L 154.203125 194.011719 L 153.148438 198.632812 L 153.425781 198.703125 L 153.699219 198.773438 L 154.246094 196.875 L 154.792969 194.695312 L 155.191406 192.753906 L 155.988281 189.148438 L 155.789062 188.34375 L 155.335938 186.921875 L 156.160156 179.410156 L 162.46875 181.179688 L 163.597656 181.613281 L 162.234375 193.335938 L 167.710938 195.261719 L 167.792969 195.136719 L 167.878906 195.015625 L 163.039062 193.222656 L 163.808594 186.28125 L 164.679688 181.679688 L 175.367188 184.75 L 185.644531 189.359375 L 187.605469 190.535156 L 188.019531 191.136719 L 183.632812 205.09375 L 174.023438 200.515625 L 173.632812 201.101562 L 182.992188 205.804688 L 184.8125 211.421875 L 185.117188 213.160156 L 185.328125 213.453125 L 185.5 212.5 L 185.675781 211.542969 L 184.140625 206.851562 L 188.894531 193.941406 L 189.960938 192.550781 L 190.984375 191.949219 L 197.03125 192.023438 L 201.152344 194.804688 L 204.925781 200.0625 L 205.902344 200.367188 L 207.253906 200.375 L 214.65625 200.285156 L 217.375 200.617188 L 219.347656 201.632812 L 220.417969 202.378906 L 221.851562 204.058594 L 223.195312 207.109375 L 225.515625 209.734375 L 227.410156 210.539062 L 229.707031 211.566406 L 234.679688 210.121094 L 238.257812 209.609375 L 240.886719 208.996094 L 246.570312 212.382812 L 251.347656 214.378906 L 251.816406 218.84375 L 250.773438 221.800781 L 251.460938 226.113281 L 251.726562 232.425781 L 245.726562 233.652344 L 243.667969 237.507812 L 242.855469 239.730469 L 242.257812 243.675781 L 235.941406 241.210938 L 229.257812 242.132812 L 227.128906 242.703125 L 221.988281 247.425781 L 216.503906 251.992188 L 214.453125 253.441406 L 212.578125 254.332031 L 206.40625 256.433594 L 199.757812 259.121094 L 190.785156 265.285156 L 189.125 265.917969 L 183.425781 262.171875 L 178.964844 267.878906 L 177.820312 268.996094 L 176.453125 269.671875 L 175.570312 269.535156 L 175.355469 269.308594 L 172.800781 265.476562 L 164.554688 258.980469 L 164.417969 258.070312 L 164.804688 251.621094 L 159.378906 240.890625 L 154.148438 236.148438 L 150.53125 233.761719 L 150.4375 232.453125 L 151.160156 231.050781 L 151.277344 229.179688 L 151.144531 220.960938 L 150.863281 220.109375 L 150.910156 219.503906 L 150.625 219.398438 L 150.613281 219.351562 L 147.925781 218.039062 L 154.261719 214.371094 L 165.308594 215.792969 L 171.285156 217.679688 L 174.859375 218.925781 L 174.976562 218.503906 L 175.097656 218.085938 L 171.9375 216.710938 L 165.738281 214.613281 L 156.445312 213.640625 L 155.109375 212.859375 L 158.476562 203.320312 L 158.039062 203.125 L 157.601562 202.933594 L 154.230469 211.90625 L 153.300781 213.785156 L 151.972656 214.628906 L 146.265625 217.207031 L 141.722656 215.609375 L 141.570312 214.710938 L 146.621094 199.488281 L 146.429688 199.363281 L 146.253906 199.226562 L 145.847656 199.875 L 140.53125 214.484375 L 139.765625 214.90625 L 131.800781 211.984375 L 129.28125 210.078125 L 128.617188 208.6875 L 128.632812 207.375 L 128.96875 199.785156 L 129.636719 194.492188 Z M 129.664062 192.128906 " transform="matrix(1,0,0,1,-74,-13)"/>
<path style="fill-rule:nonzero;fill:rgb(39.99939%,39.99939%,39.99939%);fill-opacity:1;stroke-width:0.03;stroke-linecap:square;stroke-linejoin:miter;stroke:rgb(39.99939%,39.99939%,39.99939%);stroke-opacity:1;stroke-miterlimit:3.239307;" d="M 219.390625 137.507812 L 218.863281 138.324219 L 217.011719 138.410156 Z M 219.390625 137.507812 " transform="matrix(1,0,0,1,-74,-13)"/>
<path style="fill-rule:nonzero;fill:rgb(39.99939%,39.99939%,39.99939%);fill-opacity:1;stroke-width:0.03;stroke-linecap:square;stroke-linejoin:miter;stroke:rgb(39.99939%,39.99939%,39.99939%);stroke-opacity:1;stroke-miterlimit:3.239307;" d="M 187.496094 155.960938 L 192.90625 161.125 L 190.601562 164.824219 L 190.671875 166.433594 L 188.355469 170.316406 L 188.460938 170.96875 L 187.285156 172.230469 L 185.007812 173.59375 L 180.71875 176.0625 L 178.535156 177.125 L 174.4375 178.847656 L 166.832031 180.355469 L 164.289062 180.367188 L 156.152344 178.390625 L 148.5 176.480469 L 149.074219 175.738281 L 150.90625 175.003906 L 157.324219 172.195312 L 167.566406 168.566406 L 170.410156 167.402344 L 175.199219 164.660156 L 181.140625 160.355469 L 184.507812 157.753906 Z M 187.496094 155.960938 " transform="matrix(1,0,0,1,-74,-13)"/>
</g>
</svg>
