<?xml version="1.0" encoding="UTF-8"?>
<svg xmlns="http://www.w3.org/2000/svg" xmlns:xlink="http://www.w3.org/1999/xlink" width="361pt" height="361pt" viewBox="0 0 361 361" version="1.1">
<defs>
<clipPath id="clip1">
  <path d="M 345 117 L 360 117 L 360 262 L 345 262 Z M 345 117 "/>
</clipPath>
<clipPath id="clip2">
  <path d="M 74 354 L 153 354 L 153 360 L 74 360 Z M 74 354 "/>
</clipPath>
<clipPath id="clip3">
  <path d="M 330 20 L 360 20 L 360 92 L 330 92 Z M 330 20 "/>
</clipPath>
<clipPath id="clip4">
  <path d="M 350 54 L 360 54 L 360 95 L 350 95 Z M 350 54 "/>
</clipPath>
<clipPath id="clip5">
  <path d="M 355 56 L 360 56 L 360 97 L 355 97 Z M 355 56 "/>
</clipPath>
<clipPath id="clip6">
  <path d="M 344 7 L 360 7 L 360 23 L 344 23 Z M 344 7 "/>
</clipPath>
<clipPath id="clip7">
  <path d="M 358 0 L 360 0 L 360 6 L 358 6 Z M 358 0 "/>
</clipPath>
<clipPath id="clip8">
  <path d="M 199 359 L 208 359 L 208 360 L 199 360 Z M 199 359 "/>
</clipPath>
<clipPath id="clip9">
  <path d="M 177 357 L 197 357 L 197 360 L 177 360 Z M 177 357 "/>
</clipPath>
<clipPath id="clip10">
  <path d="M 168 354 L 187 354 L 187 360 L 168 360 Z M 168 354 "/>
</clipPath>
<clipPath id="clip11">
  <path d="M 146 323 L 176 323 L 176 360 L 146 360 Z M 146 323 "/>
</clipPath>
<clipPath id="clip12">
  <path d="M 135 323 L 163 323 L 163 360 L 135 360 Z M 135 323 "/>
</clipPath>
<clipPath id="clip13">
  <path d="M 121 319 L 152 319 L 152 360 L 121 360 Z M 121 319 "/>
</clipPath>
<clipPath id="clip14">
  <path d="M 108 314 L 138 314 L 138 360 L 108 360 Z M 108 314 "/>
</clipPath>
<clipPath id="clip15">
  <path d="M 158 350 L 177 350 L 177 360 L 158 360 Z M 158 350 "/>
</clipPath>
<clipPath id="clip16">
  <path d="M 239 347 L 258 347 L 258 360 L 239 360 Z M 239 347 "/>
</clipPath>
<clipPath id="clip17">
  <path d="M 228 344 L 248 344 L 248 360 L 228 360 Z M 228 344 "/>
</clipPath>
<clipPath id="clip18">
  <path d="M 218 340 L 238 340 L 238 360 L 218 360 Z M 218 340 "/>
</clipPath>
<clipPath id="clip19">
  <path d="M 209 337 L 228 337 L 228 360 L 209 360 Z M 209 337 "/>
</clipPath>
<clipPath id="clip20">
  <path d="M 199 333 L 219 333 L 219 360 L 199 360 Z M 199 333 "/>
</clipPath>
<clipPath id="clip21">
  <path d="M 248 351 L 267 351 L 267 360 L 248 360 Z M 248 351 "/>
</clipPath>
<clipPath id="clip22">
  <path d="M 246 77 L 360 77 L 360 201 L 246 201 Z M 246 77 "/>
</clipPath>
<clipPath id="clip23">
  <path d="M 0 314 L 73 314 L 73 360 L 0 360 Z M 0 314 "/>
</clipPath>
<clipPath id="clip24">
  <path d="M 345 204 L 360 204 L 360 221 L 345 221 Z M 345 204 "/>
</clipPath>
<clipPath id="clip25">
  <path d="M 347 312 L 360 312 L 360 354 L 347 354 Z M 347 312 "/>
</clipPath>
<clipPath id="clip26">
  <path d="M 347 289 L 360 289 L 360 314 L 347 314 Z M 347 289 "/>
</clipPath>
<clipPath id="clip27">
  <path d="M 353 264 L 360 264 L 360 298 L 353 298 Z M 353 264 "/>
</clipPath>
<clipPath id="clip28">
  <path d="M 341 226 L 360 226 L 360 285 L 341 285 Z M 341 226 "/>
</clipPath>
<clipPath id="clip29">
  <path d="M 329 221 L 360 221 L 360 279 L 329 279 Z M 329 221 "/>
</clipPath>
<clipPath id="clip30">
  <path d="M 336 355 L 353 355 L 353 360 L 336 360 Z M 336 355 "/>
</clipPath>
<clipPath id="clip31">
  <path d="M 316 345 L 334 345 L 334 360 L 316 360 Z M 316 345 "/>
</clipPath>
<clipPath id="clip32">
  <path d="M 306 341 L 324 341 L 324 360 L 306 360 Z M 306 341 "/>
</clipPath>
<clipPath id="clip33">
  <path d="M 297 337 L 316 337 L 316 360 L 297 360 Z M 297 337 "/>
</clipPath>
<clipPath id="clip34">
  <path d="M 288 332 L 307 332 L 307 360 L 288 360 Z M 288 332 "/>
</clipPath>
<clipPath id="clip35">
  <path d="M 268 358 L 286 358 L 286 360 L 268 360 Z M 268 358 "/>
</clipPath>
<clipPath id="clip36">
  <path d="M 325 350 L 342 350 L 342 360 L 325 360 Z M 325 350 "/>
</clipPath>
<clipPath id="clip37">
  <path d="M 264 358 L 284 358 L 284 360 L 264 360 Z M 264 358 "/>
</clipPath>
</defs>
<g id="surface4459">
<path style="fill-rule:nonzero;fill:rgb(0%,0%,0%);fill-opacity:1;stroke-width:0.03;stroke-linecap:square;stroke-linejoin:miter;stroke:rgb(0%,0%,0%);stroke-opacity:1;stroke-miterlimit:10;" d="M 0 178 L 360 178 L 360 -182 L 0 -182 Z M 0 178 " transform="matrix(1,0,0,1,0,182)"/>
<path style=" stroke:none;fill-rule:nonzero;fill:rgb(39.99939%,39.99939%,39.99939%);fill-opacity:0.3;" d="M 28.800781 27.046875 L 19.847656 46.839844 L 16.695312 45.265625 L 6.96875 39.652344 L 14.742188 20.617188 Z M 28.800781 27.046875 "/>
<path style=" stroke:none;fill-rule:nonzero;fill:rgb(39.99939%,39.99939%,39.99939%);fill-opacity:0.3;" d="M 23.152344 -0.917969 L 38.289062 3.53125 L 29.886719 24.414062 L 15.695312 18.121094 Z M 23.152344 -0.917969 "/>
<path style=" stroke:none;fill-rule:nonzero;fill:rgb(39.99939%,39.99939%,39.99939%);fill-opacity:0.3;" d="M 0.0820312 -14.375 L 41.617188 -4.59375 L 39.234375 1.398438 L -1.082031 -9.796875 Z M 0.0820312 -14.375 "/>
<path style=" stroke:none;fill-rule:nonzero;fill:rgb(39.99939%,39.99939%,39.99939%);fill-opacity:0.3;" d="M -17.914062 -11.355469 L -17.726562 -11.503906 L -17.429688 -11.625 L -17.109375 -11.667969 L -16.761719 -11.6875 L 20.28125 -1.390625 L 20.558594 -1.203125 L 20.765625 -0.890625 L 20.847656 -0.617188 L 20.773438 -0.246094 L 5.21875 35.328125 L 5.015625 35.75 L 4.8125 35.910156 L 4.640625 36.039062 L 4.367188 36.074219 L 4.015625 36.050781 L 3.6875 35.953125 L -28.875 20.414062 L -29.148438 20.234375 L -29.34375 19.945312 L -29.425781 19.582031 L -29.480469 19.191406 L -29.402344 18.75 Z M -17.914062 -11.355469 "/>
<path style=" stroke:none;fill-rule:nonzero;fill:rgb(39.99939%,39.99939%,39.99939%);fill-opacity:0.3;" d="M 100.25 57.4375 L 101.019531 56.449219 L 112.152344 52.871094 L 130.433594 41.277344 L 136.917969 37.71875 L 135.003906 36.089844 L 143.597656 29.6875 L 153.839844 25.925781 L 155.175781 25.753906 L 156.632812 26.160156 L 158.011719 26.894531 L 158.324219 27.777344 L 158.175781 29.003906 L 153.980469 41.746094 L 132.644531 70.433594 Z M 100.25 57.4375 "/>
<path style=" stroke:none;fill-rule:nonzero;fill:rgb(39.99939%,39.99939%,39.99939%);fill-opacity:0.3;" d="M 48.835938 -3.949219 L 148.429688 17.628906 L 148.332031 18.785156 L 147.054688 21.226562 L 137.503906 29.90625 L 129.804688 35.332031 L 122.675781 39.132812 L 90.4375 52.0625 L 48.835938 33.003906 L 31.171875 24.910156 L 43.367188 -5.132812 Z M 48.835938 -3.949219 "/>
<path style=" stroke:none;fill-rule:nonzero;fill:rgb(39.99939%,39.99939%,39.99939%);fill-opacity:0.3;" d="M 96.105469 57.34375 L 131.003906 73.074219 L 131.257812 73.308594 L 131.386719 73.640625 L 131.414062 73.914062 L 131.34375 74.285156 L 112.804688 96.054688 L 112.351562 96.230469 L 111.847656 96.261719 L 110.992188 96.148438 L 110.179688 95.902344 L 109.421875 95.546875 L 54.023438 63.339844 L 53.957031 63.171875 L 54.082031 62.894531 L 54.257812 62.789062 L 54.550781 62.757812 L 55.566406 62.851562 L 57.867188 63.019531 L 61.34375 63.164062 L 64.949219 63.179688 L 68.417969 63.066406 L 71.050781 62.890625 L 73.789062 62.632812 L 77.394531 62.164062 L 80.4375 61.660156 L 83.167969 61.117188 L 86.902344 60.234375 L 89.632812 59.488281 L 92.332031 58.65625 L 94.824219 57.523438 Z M 96.105469 57.34375 "/>
<path style=" stroke:none;fill-rule:nonzero;fill:rgb(39.99939%,39.99939%,39.99939%);fill-opacity:0.3;" d="M 48.835938 43.707031 L 46.949219 45.636719 L 43.25 48.921875 L 36.992188 53.980469 L 36.109375 54.230469 L 35.222656 54.148438 L 25.417969 49.667969 L 21.445312 47.644531 L 30.371094 27.746094 L 48.835938 35.914062 L 53.253906 37.867188 L 53.460938 38.117188 L 53.550781 38.363281 L 53.527344 38.664062 L 53.433594 39.011719 Z M 48.835938 43.707031 "/>
<path style=" stroke:none;fill-rule:nonzero;fill:rgb(39.99939%,39.99939%,39.99939%);fill-opacity:0.3;" d="M 48.835938 60.070312 L 48.320312 59.988281 L 47.210938 59.613281 L 46.097656 59.179688 L 44.066406 58.308594 L 38.960938 55.636719 L 38.699219 55.324219 L 38.695312 54.953125 L 38.886719 54.457031 L 39.300781 54.046875 L 42.179688 52.039062 L 44.527344 50.339844 L 48.835938 46.214844 L 49.050781 46.011719 L 51.414062 43.78125 L 52.839844 42.046875 L 53.683594 40.992188 L 54.042969 40.613281 L 54.339844 40.292969 L 54.640625 40.078125 L 55.113281 39.742188 L 55.722656 39.589844 L 56.414062 39.628906 L 57.003906 39.6875 L 57.773438 39.914062 L 89.375 54.886719 L 89.585938 55.113281 L 89.589844 55.484375 L 89.441406 55.796875 L 89.171875 56.050781 L 88.757812 56.335938 L 87.835938 56.90625 L 85.3125 57.890625 L 81.652344 58.753906 L 78.996094 59.28125 L 76.023438 59.777344 L 72.5 60.230469 L 69.828125 60.484375 L 67.261719 60.652344 L 63.875 60.765625 L 60.351562 60.75 L 56.953125 60.609375 L 54.707031 60.445312 L 53.492188 60.335938 L 51.71875 60.359375 L 49.824219 60.234375 Z M 48.835938 60.070312 "/>
<path style=" stroke:none;fill-rule:nonzero;fill:rgb(39.99939%,39.99939%,39.99939%);fill-opacity:0.3;" d="M 2.433594 160.296875 L 48.585938 176.75 L 34.582031 195.8125 L -11.203125 179.972656 Z M 2.433594 160.296875 "/>
<path style=" stroke:none;fill-rule:nonzero;fill:rgb(39.99939%,39.99939%,39.99939%);fill-opacity:0.3;" d="M -8.953125 231.570312 L 4.355469 236.375 L 2.085938 239.40625 L -11.644531 257.757812 L -12.171875 258.183594 L -12.773438 258.398438 L -13.300781 258.539062 L -20.210938 259.269531 Z M -8.953125 231.570312 "/>
<path style=" stroke:none;fill-rule:nonzero;fill:rgb(39.99939%,39.99939%,39.99939%);fill-opacity:0.3;" d="M -3.160156 186.867188 L 4.707031 189.707031 L -8.921875 224.632812 L -16.515625 222.210938 Z M -3.160156 186.867188 "/>
<path style=" stroke:none;fill-rule:nonzero;fill:rgb(39.99939%,39.99939%,39.99939%);fill-opacity:0.3;" d="M 22.714844 196.210938 L 31.753906 199.472656 L 26.445312 205.777344 Z M 22.714844 196.210938 "/>
<path style=" stroke:none;fill-rule:nonzero;fill:rgb(39.99939%,39.99939%,39.99939%);fill-opacity:0.3;" d="M 6.523438 190.363281 L 14.945312 193.40625 L 0.710938 227.769531 L -7.207031 225.179688 Z M 6.523438 190.363281 "/>
<path style=" stroke:none;fill-rule:nonzero;fill:rgb(39.99939%,39.99939%,39.99939%);fill-opacity:0.3;" d="M 2.957031 228.464844 L 17.242188 194.234375 L 19.242188 194.957031 L 24.273438 208.359375 L 6.753906 229.636719 Z M 2.957031 228.464844 "/>
<g clip-path="url(#clip1)" clip-rule="nonzero">
<path style=" stroke:none;fill-rule:nonzero;fill:rgb(39.99939%,39.99939%,39.99939%);fill-opacity:0.3;" d="M 502.082031 165.925781 L 502.382812 166.125 L 502.636719 166.449219 L 502.765625 166.816406 L 502.777344 166.972656 L 502.753906 167.15625 L 502.691406 167.398438 L 502.570312 167.714844 L 467.667969 260.542969 L 467.410156 260.902344 L 467.113281 261.085938 L 466.699219 261.191406 L 466.289062 261.1875 L 465.910156 261.160156 L 443.253906 250.863281 L 377.292969 220.125 L 371.15625 216.917969 L 345.644531 204.042969 L 345.746094 203.78125 L 384.023438 117.789062 L 384.4375 117.59375 Z M 502.082031 165.925781 "/>
</g>
<g clip-path="url(#clip2)" clip-rule="nonzero">
<path style=" stroke:none;fill-rule:nonzero;fill:rgb(39.99939%,39.99939%,39.99939%);fill-opacity:0.3;" d="M 151.6875 380.992188 L 152.179688 381.285156 L 152.363281 381.640625 L 152.425781 382.109375 L 152.304688 382.578125 L 148.785156 391.148438 L 74.503906 363.949219 L 78.421875 355.230469 L 78.632812 354.984375 L 78.800781 354.863281 L 79.140625 354.863281 L 79.519531 354.90625 Z M 151.6875 380.992188 "/>
</g>
<g clip-path="url(#clip3)" clip-rule="nonzero">
<path style=" stroke:none;fill-rule:nonzero;fill:rgb(39.99939%,39.99939%,39.99939%);fill-opacity:0.3;" d="M 369.464844 44.050781 L 368.855469 45.417969 L 367.414062 48.660156 L 357.28125 48.632812 L 355.351562 48.628906 L 355.34375 49.191406 L 355.335938 49.730469 L 366.929688 49.75 L 348.453125 91.527344 L 346.667969 90.8125 L 339.113281 61.378906 L 349.671875 58.753906 L 350.199219 60.414062 L 350.785156 60.222656 L 351.433594 60.054688 L 350.953125 58.433594 L 353.636719 57.765625 L 353.445312 57.207031 L 353.292969 56.675781 L 338.832031 60.273438 L 338.148438 57.785156 L 330.683594 28.59375 L 363.453125 20.496094 Z M 369.464844 44.050781 "/>
</g>
<g clip-path="url(#clip4)" clip-rule="nonzero">
<path style=" stroke:none;fill-rule:nonzero;fill:rgb(39.99939%,39.99939%,39.99939%);fill-opacity:0.3;" d="M 371.753906 56.132812 L 354.898438 94.113281 L 350.144531 92.207031 L 366.9375 54.273438 Z M 371.753906 56.132812 "/>
</g>
<g clip-path="url(#clip5)" clip-rule="nonzero">
<path style=" stroke:none;fill-rule:nonzero;fill:rgb(39.99939%,39.99939%,39.99939%);fill-opacity:0.3;" d="M 372.710938 56.5 L 377.050781 58.171875 L 360.121094 96.207031 L 355.84375 94.492188 Z M 372.710938 56.5 "/>
</g>
<path style=" stroke:none;fill-rule:nonzero;fill:rgb(39.99939%,39.99939%,39.99939%);fill-opacity:0.3;" d="M 238.214844 47.238281 L 241.917969 36.964844 L 264.109375 31.445312 L 267.4375 42.8125 L 242.628906 48.996094 Z M 238.214844 47.238281 "/>
<path style=" stroke:none;fill-rule:nonzero;fill:rgb(39.99939%,39.99939%,39.99939%);fill-opacity:0.3;" d="M 298.625 36.550781 L 300.824219 44.339844 L 272.007812 51.515625 L 269.824219 43.722656 Z M 298.625 36.550781 "/>
<path style=" stroke:none;fill-rule:nonzero;fill:rgb(39.99939%,39.99939%,39.99939%);fill-opacity:0.3;" d="M 329.113281 28.984375 L 331.089844 36.820312 L 303.332031 43.714844 L 301.136719 35.929688 Z M 329.113281 28.984375 "/>
<path style=" stroke:none;fill-rule:nonzero;fill:rgb(39.99939%,39.99939%,39.99939%);fill-opacity:0.3;" d="M 325.863281 16.085938 L 328.757812 27.566406 L 300.742188 34.519531 L 297.421875 23.160156 Z M 325.863281 16.085938 "/>
<path style=" stroke:none;fill-rule:nonzero;fill:rgb(39.99939%,39.99939%,39.99939%);fill-opacity:0.3;" d="M 342.738281 81.046875 L 344.816406 90.066406 L 330.085938 84.140625 Z M 342.738281 81.046875 "/>
<path style=" stroke:none;fill-rule:nonzero;fill:rgb(39.99939%,39.99939%,39.99939%);fill-opacity:0.3;" d="M 342.929688 11.847656 L 345.792969 23.347656 L 330.328125 27.175781 L 327.441406 15.695312 Z M 342.929688 11.847656 "/>
<path style=" stroke:none;fill-rule:nonzero;fill:rgb(39.99939%,39.99939%,39.99939%);fill-opacity:0.3;" d="M 337.1875 60.507812 L 339.671875 69.878906 L 313.011719 76.582031 L 310.167969 67.253906 Z M 337.1875 60.507812 "/>
<path style=" stroke:none;fill-rule:nonzero;fill:rgb(39.99939%,39.99939%,39.99939%);fill-opacity:0.3;" d="M 331.453125 38.238281 L 334.121094 48.679688 L 306.71875 55.496094 L 303.734375 45.121094 Z M 331.453125 38.238281 "/>
<path style=" stroke:none;fill-rule:nonzero;fill:rgb(39.99939%,39.99939%,39.99939%);fill-opacity:0.3;" d="M 339.96875 70.984375 L 342.484375 79.949219 L 328.300781 83.417969 L 313.785156 77.578125 Z M 339.96875 70.984375 "/>
<path style=" stroke:none;fill-rule:nonzero;fill:rgb(39.99939%,39.99939%,39.99939%);fill-opacity:0.3;" d="M 304.617188 57.53125 L 310.175781 76.136719 L 279.464844 63.808594 Z M 304.617188 57.53125 "/>
<path style=" stroke:none;fill-rule:nonzero;fill:rgb(39.99939%,39.99939%,39.99939%);fill-opacity:0.3;" d="M 334.484375 50.097656 L 336.898438 59.402344 L 309.84375 66.152344 L 307.128906 56.90625 Z M 334.484375 50.097656 "/>
<path style=" stroke:none;fill-rule:nonzero;fill:rgb(39.99939%,39.99939%,39.99939%);fill-opacity:0.3;" d="M 274.980469 62.003906 L 272.402344 52.925781 L 301.222656 45.746094 L 304.207031 56.121094 L 277.148438 62.875 Z M 274.980469 62.003906 "/>
<path style=" stroke:none;fill-rule:nonzero;fill:rgb(39.99939%,39.99939%,39.99939%);fill-opacity:0.3;" d="M 294.90625 23.785156 L 298.234375 35.140625 L 269.40625 42.320312 L 266.074219 30.957031 Z M 294.90625 23.785156 "/>
<g clip-path="url(#clip6)" clip-rule="nonzero">
<path style=" stroke:none;fill-rule:nonzero;fill:rgb(39.99939%,39.99939%,39.99939%);fill-opacity:0.3;" d="M 360.210938 7.589844 L 363.09375 19.078125 L 347.367188 22.960938 L 344.5 11.460938 Z M 360.210938 7.589844 "/>
</g>
<path style=" stroke:none;fill-rule:nonzero;fill:rgb(39.99939%,39.99939%,39.99939%);fill-opacity:0.3;" d="M 267.855469 44.214844 L 272.605469 61.042969 L 244.960938 49.921875 Z M 267.855469 44.214844 "/>
<g clip-path="url(#clip7)" clip-rule="nonzero">
<path style=" stroke:none;fill-rule:nonzero;fill:rgb(39.99939%,39.99939%,39.99939%);fill-opacity:0.3;" d="M 374.238281 -8.433594 L 376.902344 1.996094 L 361.433594 5.78125 L 358.734375 -4.644531 Z M 374.238281 -8.433594 "/>
</g>
<path style=" stroke:none;fill-rule:nonzero;fill:rgb(39.99939%,39.99939%,39.99939%);fill-opacity:0.3;" d="M 257.183594 7.335938 L 260.273438 18.136719 L 247.628906 21.253906 L 252.277344 8.53125 Z M 257.183594 7.335938 "/>
<path style=" stroke:none;fill-rule:nonzero;fill:rgb(39.99939%,39.99939%,39.99939%);fill-opacity:0.3;" d="M 255.226562 0.480469 L 256.75 5.820312 L 252.929688 6.75 Z M 255.226562 0.480469 "/>
<path style=" stroke:none;fill-rule:nonzero;fill:rgb(39.99939%,39.99939%,39.99939%);fill-opacity:0.3;" d="M 260.664062 19.503906 L 263.699219 30.042969 L 242.515625 35.308594 L 247.039062 22.863281 Z M 260.664062 19.503906 "/>
<path style=" stroke:none;fill-rule:nonzero;fill:rgb(39.99939%,39.99939%,39.99939%);fill-opacity:0.3;" d="M 284.597656 -11.679688 L 287.488281 -1.664062 L 258.71875 5.339844 L 256.414062 -2.753906 L 257.246094 -5.023438 Z M 284.597656 -11.679688 "/>
<path style=" stroke:none;fill-rule:nonzero;fill:rgb(39.99939%,39.99939%,39.99939%);fill-opacity:0.3;" d="M 287.925781 -0.148438 L 291.03125 10.554688 L 262.238281 17.652344 L 259.152344 6.855469 Z M 287.925781 -0.148438 "/>
<path style=" stroke:none;fill-rule:nonzero;fill:rgb(39.99939%,39.99939%,39.99939%);fill-opacity:0.3;" d="M 322.746094 4.203125 L 325.492188 14.679688 L 297.007812 21.757812 L 293.945312 11.300781 Z M 322.746094 4.203125 "/>
<path style=" stroke:none;fill-rule:nonzero;fill:rgb(39.99939%,39.99939%,39.99939%);fill-opacity:0.3;" d="M 357.15625 -4.257812 L 359.859375 6.167969 L 344.144531 10.042969 L 341.394531 -0.386719 Z M 357.15625 -4.257812 "/>
<path style=" stroke:none;fill-rule:nonzero;fill:rgb(39.99939%,39.99939%,39.99939%);fill-opacity:0.3;" d="M 319.621094 -7.863281 L 322.386719 2.828125 L 293.550781 9.933594 L 290.445312 -0.765625 Z M 319.621094 -7.863281 "/>
<path style=" stroke:none;fill-rule:nonzero;fill:rgb(39.99939%,39.99939%,39.99939%);fill-opacity:0.3;" d="M 291.429688 11.921875 L 294.492188 22.386719 L 265.667969 29.554688 L 262.632812 19.019531 Z M 291.429688 11.921875 "/>
<path style=" stroke:none;fill-rule:nonzero;fill:rgb(39.99939%,39.99939%,39.99939%);fill-opacity:0.3;" d="M 339.820312 0 L 342.570312 10.433594 L 327.066406 14.285156 L 324.320312 3.816406 Z M 339.820312 0 "/>
<path style=" stroke:none;fill-rule:nonzero;fill:rgb(39.99939%,39.99939%,39.99939%);fill-opacity:0.3;" d="M 286.519531 -88.472656 L 247.984375 16.589844 L 236.929688 46.726562 L 208.644531 35.324219 L 185.894531 26.152344 L 181.320312 20.957031 L 216.613281 -26.636719 L 234.25 -50.421875 L 267.820312 -95.6875 Z M 286.519531 -88.472656 "/>
<path style=" stroke:none;fill-rule:nonzero;fill:rgb(39.99939%,39.99939%,39.99939%);fill-opacity:0.3;" d="M 336.703125 -12.019531 L 339.460938 -1.375 L 323.960938 2.441406 L 321.195312 -8.25 Z M 336.703125 -12.019531 "/>
<path style=" stroke:none;fill-rule:nonzero;fill:rgb(39.99939%,39.99939%,39.99939%);fill-opacity:0.3;" d="M 180.265625 22.378906 L 184.265625 26.992188 L 178.820312 24.519531 Z M 180.265625 22.378906 "/>
<path style=" stroke:none;fill-rule:nonzero;fill:rgb(39.99939%,39.99939%,39.99939%);fill-opacity:0.3;" d="M 219.664062 21.195312 L 220.640625 18.734375 L 219.984375 18.5 L 219.011719 20.953125 L 216.832031 20.175781 L 219.039062 14.601562 L 229.925781 18.507812 L 229.101562 20.578125 L 223.230469 18.472656 L 221.847656 21.976562 Z M 219.664062 21.195312 "/>
<path style=" stroke:none;fill-rule:nonzero;fill:rgb(39.99939%,39.99939%,39.99939%);fill-opacity:0.3;" d="M 225.402344 23.375 L 225.910156 22.082031 L 225.148438 21.769531 L 224.632812 23.082031 L 222.417969 22.296875 L 223.695312 19.035156 L 228.898438 20.898438 L 227.621094 24.160156 Z M 225.402344 23.375 "/>
<path style=" stroke:none;fill-rule:nonzero;fill:rgb(39.99939%,39.99939%,39.99939%);fill-opacity:0.3;" d="M 231.007812 25.265625 L 231.972656 22.835938 L 231.496094 22.644531 L 230.511719 25.128906 L 228.328125 24.351562 L 230.535156 18.78125 L 235.398438 20.472656 L 233.191406 26.042969 Z M 231.007812 25.265625 "/>
<path style=" stroke:none;fill-rule:nonzero;fill:rgb(39.99939%,39.99939%,39.99939%);fill-opacity:0.3;" d="M 236.699219 27.292969 L 237.203125 26 L 236.441406 25.691406 L 235.925781 27 L 233.710938 26.214844 L 234.988281 22.953125 L 240.191406 24.816406 L 238.914062 28.078125 Z M 236.699219 27.292969 "/>
<path style=" stroke:none;fill-rule:nonzero;fill:rgb(39.99939%,39.99939%,39.99939%);fill-opacity:0.3;" d="M 239.570312 28.179688 L 240.964844 24.679688 L 235.085938 22.597656 L 235.902344 20.523438 L 243.960938 23.386719 L 241.753906 28.957031 Z M 239.570312 28.179688 "/>
<path style=" stroke:none;fill-rule:nonzero;fill:rgb(39.99939%,39.99939%,39.99939%);fill-opacity:0.3;" d="M 224.789062 7.960938 L 226.976562 8.722656 L 225.613281 12.230469 L 231.511719 14.269531 L 230.710938 16.347656 L 219.777344 12.566406 L 221.9375 6.980469 L 224.128906 7.742188 L 223.175781 10.203125 L 223.832031 10.429688 Z M 224.789062 7.960938 "/>
<path style=" stroke:none;fill-rule:nonzero;fill:rgb(39.99939%,39.99939%,39.99939%);fill-opacity:0.3;" d="M 230.636719 9.863281 L 232.855469 10.640625 L 231.578125 13.902344 L 226.355469 12.09375 L 227.632812 8.832031 L 229.851562 9.609375 L 229.335938 10.917969 L 230.128906 11.15625 Z M 230.636719 9.863281 "/>
<path style=" stroke:none;fill-rule:nonzero;fill:rgb(39.99939%,39.99939%,39.99939%);fill-opacity:0.3;" d="M 236.183594 11.902344 L 238.371094 12.664062 L 236.210938 18.25 L 231.359375 16.519531 L 233.523438 10.933594 L 235.710938 11.695312 L 234.746094 14.1875 L 235.238281 14.339844 Z M 236.183594 11.902344 "/>
<path style=" stroke:none;fill-rule:nonzero;fill:rgb(39.99939%,39.99939%,39.99939%);fill-opacity:0.3;" d="M 241.886719 13.886719 L 244.105469 14.664062 L 242.828125 17.925781 L 237.605469 16.117188 L 238.882812 12.855469 L 241.101562 13.632812 L 240.589844 14.941406 L 241.382812 15.179688 Z M 241.886719 13.886719 "/>
<path style=" stroke:none;fill-rule:nonzero;fill:rgb(39.99939%,39.99939%,39.99939%);fill-opacity:0.3;" d="M 244.671875 15 L 246.863281 15.761719 L 244.699219 21.347656 L 236.625 18.523438 L 237.433594 16.449219 L 243.320312 18.511719 Z M 244.671875 15 "/>
<path style=" stroke:none;fill-rule:nonzero;fill:rgb(39.99939%,39.99939%,39.99939%);fill-opacity:0.3;" d="M 188.152344 -16.648438 L 188.265625 -16.644531 L 188.371094 -16.507812 L 188.417969 -16.210938 L 188.414062 -15.863281 L 188.332031 -15.566406 L 188.132812 -15.15625 L 187.386719 -14.09375 L 166.140625 9.777344 L 165.824219 10 L 165.546875 10.128906 L 165.210938 10.222656 L 164.925781 10.234375 L 164.726562 10.203125 L 164.527344 10.066406 L 178.371094 -5.589844 L 178.523438 -5.464844 L 180.757812 -8.191406 L 180.859375 -8.402344 Z M 188.152344 -16.648438 "/>
<path style=" stroke:none;fill-rule:nonzero;fill:rgb(39.99939%,39.99939%,39.99939%);fill-opacity:0.3;" d="M 19.847656 46.839844 L 19.761719 47.035156 L 16.695312 45.265625 Z M 19.847656 46.839844 "/>
<path style=" stroke:none;fill-rule:nonzero;fill:rgb(39.99939%,39.99939%,39.99939%);fill-opacity:0.3;" d="M 68.617188 76.1875 L 108.984375 101.222656 L 102.980469 109.582031 L 59.945312 94.554688 L 67.820312 76.59375 Z M 68.617188 76.1875 "/>
<path style=" stroke:none;fill-rule:nonzero;fill:rgb(39.99939%,39.99939%,39.99939%);fill-opacity:0.3;" d="M 55.046875 106.785156 L 59.265625 96.410156 L 101.691406 111.382812 L 94.679688 121.183594 Z M 55.046875 106.785156 "/>
<path style=" stroke:none;fill-rule:nonzero;fill:rgb(39.99939%,39.99939%,39.99939%);fill-opacity:0.3;" d="M 48.835938 173.277344 L 31.824219 167.585938 L 38.242188 151.621094 L 48.835938 155.386719 L 64.226562 160.851562 L 52.773438 174.59375 Z M 48.835938 173.277344 "/>
<path style=" stroke:none;fill-rule:nonzero;fill:rgb(39.99939%,39.99939%,39.99939%);fill-opacity:0.3;" d="M 48.835938 150.34375 L 40.078125 147.179688 L 47.976562 127.460938 L 48.835938 127.777344 L 81.238281 139.640625 L 67.367188 157.035156 Z M 48.835938 150.34375 "/>
<path style=" stroke:none;fill-rule:nonzero;fill:rgb(39.99939%,39.99939%,39.99939%);fill-opacity:0.3;" d="M 86.746094 132.292969 L 83.4375 136.878906 L 77.167969 134.28125 Z M 86.746094 132.292969 "/>
<path style=" stroke:none;fill-rule:nonzero;fill:rgb(39.99939%,39.99939%,39.99939%);fill-opacity:0.3;" d="M 54.96875 110.160156 L 93.113281 123.382812 L 88.566406 129.757812 L 74.28125 132.5625 L 73.339844 132.511719 L 49.476562 123.804688 Z M 54.96875 110.160156 "/>
<path style=" stroke:none;fill-rule:nonzero;fill:rgb(39.99939%,39.99939%,39.99939%);fill-opacity:0.3;" d="M -14.699219 131.050781 L 6.4375 138.800781 L -0.015625 156.238281 L -21.359375 148.589844 Z M -14.699219 131.050781 "/>
<path style=" stroke:none;fill-rule:nonzero;fill:rgb(39.99939%,39.99939%,39.99939%);fill-opacity:0.3;" d="M 10.039062 141.492188 L 35.058594 150.53125 L 28.628906 166.441406 L 3.683594 157.484375 Z M 10.039062 141.492188 "/>
<path style=" stroke:none;fill-rule:nonzero;fill:rgb(39.99939%,39.99939%,39.99939%);fill-opacity:0.3;" d="M 19.148438 117.183594 L 45.054688 126.371094 L 37.015625 145.972656 L 11.875 137.019531 Z M 19.148438 117.183594 "/>
<path style=" stroke:none;fill-rule:nonzero;fill:rgb(39.99939%,39.99939%,39.99939%);fill-opacity:0.3;" d="M 25.925781 100.15625 L 48.835938 108.074219 L 51.664062 109.050781 L 48.835938 116.351562 L 46.351562 122.765625 L 20.609375 113.714844 Z M 25.925781 100.15625 "/>
<path style=" stroke:none;fill-rule:nonzero;fill:rgb(39.99939%,39.99939%,39.99939%);fill-opacity:0.3;" d="M -6.046875 108.472656 L 15.21875 115.789062 L 7.566406 135.894531 L -13.429688 128.296875 Z M -6.046875 108.472656 "/>
<path style=" stroke:none;fill-rule:nonzero;fill:rgb(39.99939%,39.99939%,39.99939%);fill-opacity:0.3;" d="M 1.046875 90.847656 L 22.789062 98.976562 L 17.285156 112.582031 L -4.386719 104.640625 Z M 1.046875 90.847656 "/>
<path style=" stroke:none;fill-rule:nonzero;fill:rgb(39.99939%,39.99939%,39.99939%);fill-opacity:0.3;" d="M 48.835938 92.722656 L 56.527344 95.441406 L 52.300781 105.824219 L 48.835938 104.65625 L 27.253906 97.390625 L 31.441406 86.570312 Z M 48.835938 92.722656 "/>
<path style=" stroke:none;fill-rule:nonzero;fill:rgb(39.99939%,39.99939%,39.99939%);fill-opacity:0.3;" d="M 28.789062 83.429688 L 7.085938 75.347656 L 11.625 63.078125 L 11.757812 62.769531 L 11.964844 62.535156 L 12.167969 62.375 L 12.453125 62.265625 L 12.8125 62.214844 L 13.1875 62.179688 L 13.667969 62.179688 L 14.429688 62.277344 L 15.101562 62.402344 L 15.710938 62.628906 L 32.792969 72.730469 Z M 28.789062 83.429688 "/>
<path style=" stroke:none;fill-rule:nonzero;fill:rgb(39.99939%,39.99939%,39.99939%);fill-opacity:0.3;" d="M 25.417969 49.667969 L 21.367188 47.816406 L 21.445312 47.644531 Z M 25.417969 49.667969 "/>
<path style=" stroke:none;fill-rule:nonzero;fill:rgb(39.99939%,39.99939%,39.99939%);fill-opacity:0.3;" d="M 27.875 85.441406 L 23.652344 96.355469 L 2.183594 88.0625 L 6.296875 77.617188 Z M 27.875 85.441406 "/>
<path style=" stroke:none;fill-rule:nonzero;fill:rgb(39.99939%,39.99939%,39.99939%);fill-opacity:0.3;" d="M 35.566406 56.378906 L 38.296875 57.820312 L 38.472656 58.105469 L 38.476562 58.375 L 38.429688 58.609375 L 38.355469 58.8125 L 38.207031 58.984375 L 37.933594 59.144531 L 37.644531 59.1875 L 37.277344 59.203125 L 32.277344 58.621094 L 32.09375 58.519531 L 32.046875 58.390625 L 32.09375 58.160156 L 32.183594 58 L 32.363281 57.808594 L 34.714844 56.519531 L 34.988281 56.402344 L 35.230469 56.359375 Z M 35.566406 56.378906 "/>
<path style=" stroke:none;fill-rule:nonzero;fill:rgb(39.99939%,39.99939%,39.99939%);fill-opacity:0.3;" d="M -15.703125 58.796875 L -15.503906 58.359375 L -15.246094 57.976562 L -14.945312 57.804688 L -14.542969 57.75 L -14.117188 57.75 L 7.296875 61.316406 L 7.71875 61.453125 L 8.035156 61.652344 L 8.195312 61.886719 L 8.316406 62.101562 L 8.371094 62.351562 L 8.410156 62.617188 L 8.378906 62.898438 L 3.859375 74.210938 L -18.363281 66.414062 Z M -15.703125 58.796875 "/>
<path style=" stroke:none;fill-rule:nonzero;fill:rgb(39.99939%,39.99939%,39.99939%);fill-opacity:0.3;" d="M 3.226562 76.234375 L -1.125 87.160156 L -23.664062 79.25 L -19.511719 68.15625 Z M 3.226562 76.234375 "/>
<path style=" stroke:none;fill-rule:nonzero;fill:rgb(39.99939%,39.99939%,39.99939%);fill-opacity:0.3;" d="M 32.207031 54.949219 L 32.390625 55.101562 L 32.484375 55.339844 L 32.484375 55.535156 L 32.394531 55.730469 L 32.214844 55.882812 L 26.84375 57.644531 L 26.457031 57.664062 L 26.066406 57.601562 L 25.632812 57.492188 L 25.3125 57.382812 L 1.53125 48.898438 L -0.894531 48.296875 L -3.316406 47.867188 L -5.203125 47.605469 L -9.421875 47 L -17.140625 45.453125 L -19.835938 44.679688 L -36.714844 39.195312 L -37.164062 38.855469 L -37.347656 38.34375 L -37.167969 37.664062 L -32.378906 25.082031 L -31.839844 24.65625 L -31.214844 24.402344 L -30.230469 24.148438 L -29.332031 24.152344 L -28.257812 24.40625 L -27 24.835938 Z M 32.207031 54.949219 "/>
<path style=" stroke:none;fill-rule:nonzero;fill:rgb(39.99939%,39.99939%,39.99939%);fill-opacity:0.3;" d="M 37.199219 61.386719 L 37.664062 61.441406 L 38.128906 61.773438 L 38.304688 62.105469 L 38.425781 62.546875 L 38.3125 62.988281 L 34.9375 71.445312 L 34.648438 71.503906 L 34.066406 71.390625 L 33.65625 71.113281 L 33.363281 70.835938 L 19.675781 62.632812 L 17.449219 61.195312 L 15.949219 60.460938 L 14.398438 60.027344 L 12.921875 59.890625 L -1.933594 57.824219 L -10.574219 56.582031 L -18.164062 55.125 L -39.40625 50.753906 L -39.695312 50.628906 L -39.902344 50.382812 L -39.929688 50.0625 L -39.878906 49.820312 L -37.691406 43.121094 L -37.410156 42.804688 L -36.84375 42.511719 L -36.277344 42.414062 L -35.609375 42.367188 L -34.886719 42.441406 L -25.507812 45.726562 L -5.390625 50.085938 L -1.464844 51.296875 L 3.246094 52.6875 L 6.671875 53.832031 L 16.933594 57.417969 L 20.949219 58.558594 L 23.253906 58.964844 L 28.890625 60.265625 L 34.78125 61.324219 Z M 37.199219 61.386719 "/>
<path style=" stroke:none;fill-rule:nonzero;fill:rgb(39.99939%,39.99939%,39.99939%);fill-opacity:0.3;" d="M 41.648438 59.945312 L 42.25 59.558594 L 48.835938 63.726562 L 65.757812 74.429688 L 62.804688 81.164062 L 57.785156 80.570312 L 48.835938 77.386719 L 36.859375 73.132812 L 41.308594 60.460938 Z M 41.648438 59.945312 "/>
<path style=" stroke:none;fill-rule:nonzero;fill:rgb(39.99939%,39.99939%,39.99939%);fill-opacity:0.3;" d="M 35.960938 75.316406 L 48.835938 79.882812 L 61.285156 84.300781 L 57.363281 93.609375 L 48.835938 90.660156 L 32.171875 84.898438 Z M 35.960938 75.316406 "/>
<path style=" stroke:none;fill-rule:nonzero;fill:rgb(39.99939%,39.99939%,39.99939%);fill-opacity:0.3;" d="M 154.054688 12.523438 L 116.382812 4.855469 L 116.027344 4.441406 L 117.171875 -21.5 L 127.753906 -21.035156 L 126.199219 -5.632812 L 127.296875 -5.585938 L 128.328125 -5.542969 L 130.035156 -20.847656 L 140.316406 -20.351562 L 139.472656 -4.984375 L 140.167969 -4.941406 L 140.933594 -4.890625 L 141.816406 -20.480469 L 147.101562 -20.320312 Z M 154.054688 12.523438 "/>
<path style=" stroke:none;fill-rule:nonzero;fill:rgb(39.99939%,39.99939%,39.99939%);fill-opacity:0.3;" d="M 106.242188 -23.160156 L 114.117188 -22.78125 L 114.617188 -22.457031 L 114.925781 -22.105469 L 115.359375 -21.648438 L 115.613281 -20.949219 L 113.964844 4.222656 L 113.195312 4.34375 L 83.910156 -2.257812 L 85.570312 -11.660156 L 104.625 -10.382812 Z M 106.242188 -23.160156 "/>
<path style=" stroke:none;fill-rule:nonzero;fill:rgb(39.99939%,39.99939%,39.99939%);fill-opacity:0.3;" d="M 197.109375 358.304688 L 196.742188 359.195312 L 188.734375 356.265625 L 189.03125 355.546875 Z M 197.109375 358.304688 "/>
<path style=" stroke:none;fill-rule:nonzero;fill:rgb(39.99939%,39.99939%,39.99939%);fill-opacity:0.3;" d="M 147.050781 255.664062 L 128.871094 301.777344 L 119.265625 298.335938 L 138.285156 251.226562 Z M 147.050781 255.664062 "/>
<path style=" stroke:none;fill-rule:nonzero;fill:rgb(39.99939%,39.99939%,39.99939%);fill-opacity:0.3;" d="M 136.230469 250.351562 L 115.429688 301.679688 L 105.515625 297.847656 L 112.613281 281.945312 L 114.304688 277.808594 L 116.164062 272.714844 L 117.6875 267.144531 L 124.125 245.484375 L 124.289062 245.082031 L 124.472656 244.90625 L 124.65625 244.808594 L 124.960938 244.804688 L 125.25 244.835938 Z M 136.230469 250.351562 "/>
<g clip-path="url(#clip8)" clip-rule="nonzero">
<path style=" stroke:none;fill-rule:nonzero;fill:rgb(39.99939%,39.99939%,39.99939%);fill-opacity:0.3;" d="M 207.5 362.183594 L 207.164062 363 L 199.039062 360.035156 L 199.40625 359.148438 Z M 207.5 362.183594 "/>
</g>
<path style=" stroke:none;fill-rule:nonzero;fill:rgb(39.99939%,39.99939%,39.99939%);fill-opacity:0.3;" d="M 177.675781 351.742188 L 177.535156 352.089844 L 169.519531 349.144531 L 169.585938 348.984375 Z M 177.675781 351.742188 "/>
<g clip-path="url(#clip9)" clip-rule="nonzero">
<path style=" stroke:none;fill-rule:nonzero;fill:rgb(39.99939%,39.99939%,39.99939%);fill-opacity:0.3;" d="M 196.144531 360.644531 L 185.257812 386.933594 L 177.214844 383.902344 L 188.132812 357.714844 Z M 196.144531 360.644531 "/>
</g>
<g clip-path="url(#clip10)" clip-rule="nonzero">
<path style=" stroke:none;fill-rule:nonzero;fill:rgb(39.99939%,39.99939%,39.99939%);fill-opacity:0.3;" d="M 186.226562 357.34375 L 175.316406 383.519531 L 168.109375 380.800781 L 178.8125 354.628906 Z M 186.226562 357.34375 "/>
</g>
<g clip-path="url(#clip11)" clip-rule="nonzero">
<path style=" stroke:none;fill-rule:nonzero;fill:rgb(39.99939%,39.99939%,39.99939%);fill-opacity:0.3;" d="M 175.964844 327.367188 L 156.109375 376.339844 L 146.289062 372.867188 L 165.78125 323.59375 Z M 175.964844 327.367188 "/>
</g>
<g clip-path="url(#clip12)" clip-rule="nonzero">
<path style=" stroke:none;fill-rule:nonzero;fill:rgb(39.99939%,39.99939%,39.99939%);fill-opacity:0.3;" d="M 162.554688 327.179688 L 144.925781 372.183594 L 135.511719 368.847656 L 152.890625 323.851562 Z M 162.554688 327.179688 "/>
</g>
<g clip-path="url(#clip13)" clip-rule="nonzero">
<path style=" stroke:none;fill-rule:nonzero;fill:rgb(39.99939%,39.99939%,39.99939%);fill-opacity:0.3;" d="M 151.476562 323.359375 L 134.085938 368.34375 L 121.765625 363.964844 L 139.242188 319.078125 Z M 151.476562 323.359375 "/>
</g>
<g clip-path="url(#clip14)" clip-rule="nonzero">
<path style=" stroke:none;fill-rule:nonzero;fill:rgb(39.99939%,39.99939%,39.99939%);fill-opacity:0.3;" d="M 137.828125 318.578125 L 120.339844 363.457031 L 108.347656 359.179688 L 125.910156 314.355469 Z M 137.828125 318.578125 "/>
</g>
<path style=" stroke:none;fill-rule:nonzero;fill:rgb(39.99939%,39.99939%,39.99939%);fill-opacity:0.3;" d="M 124.109375 313.714844 L 106.535156 358.53125 L 96.394531 354.886719 L 114.421875 310.261719 Z M 124.109375 313.714844 "/>
<path style=" stroke:none;fill-rule:nonzero;fill:rgb(39.99939%,39.99939%,39.99939%);fill-opacity:0.3;" d="M 114.265625 304.550781 L 94.265625 353.84375 L 81.445312 349.167969 L 104.105469 300.832031 Z M 114.265625 304.550781 "/>
<path style=" stroke:none;fill-rule:nonzero;fill:rgb(39.99939%,39.99939%,39.99939%);fill-opacity:0.3;" d="M 195.183594 279.988281 L 176.738281 323.789062 L 166.574219 320.179688 L 185.082031 274.917969 Z M 195.183594 279.988281 "/>
<path style=" stroke:none;fill-rule:nonzero;fill:rgb(39.99939%,39.99939%,39.99939%);fill-opacity:0.3;" d="M 184.125 274.367188 L 167.445312 315.472656 L 157.675781 312.03125 L 174.503906 269.535156 Z M 184.125 274.367188 "/>
<path style=" stroke:none;fill-rule:nonzero;fill:rgb(39.99939%,39.99939%,39.99939%);fill-opacity:0.3;" d="M 173.152344 268.855469 L 156.261719 311.53125 L 144.011719 307.183594 L 161.585938 262.679688 Z M 173.152344 268.855469 "/>
<path style=" stroke:none;fill-rule:nonzero;fill:rgb(39.99939%,39.99939%,39.99939%);fill-opacity:0.3;" d="M 160.089844 262.371094 L 142.59375 306.675781 L 130.671875 302.421875 L 148.75 256.578125 Z M 160.089844 262.371094 "/>
<g clip-path="url(#clip15)" clip-rule="nonzero">
<path style=" stroke:none;fill-rule:nonzero;fill:rgb(39.99939%,39.99939%,39.99939%);fill-opacity:0.3;" d="M 176.945312 353.542969 L 166.257812 379.703125 L 159.214844 377.046875 L 158.882812 376.921875 L 158.664062 376.75 L 158.550781 376.542969 L 158.53125 376.308594 L 158.550781 376.058594 L 158.617188 375.824219 L 168.941406 350.613281 Z M 176.945312 353.542969 "/>
</g>
<path style=" stroke:none;fill-rule:nonzero;fill:rgb(39.99939%,39.99939%,39.99939%);fill-opacity:0.3;" d="M 187.378906 354.984375 L 187.097656 355.667969 L 179.671875 352.945312 L 179.863281 352.476562 Z M 187.378906 354.984375 "/>
<path style=" stroke:none;fill-rule:nonzero;fill:rgb(39.99939%,39.99939%,39.99939%);fill-opacity:0.3;" d="M 166.609375 316.4375 L 162.742188 325.714844 L 114.609375 308.792969 L 118.433594 299.320312 Z M 166.609375 316.4375 "/>
<path style=" stroke:none;fill-rule:nonzero;fill:rgb(39.99939%,39.99939%,39.99939%);fill-opacity:0.3;" d="M 207.578125 332.839844 L 197.109375 358.304688 L 189.03125 355.546875 L 199.625 329.886719 Z M 207.578125 332.839844 "/>
<path style=" stroke:none;fill-rule:nonzero;fill:rgb(39.99939%,39.99939%,39.99939%);fill-opacity:0.3;" d="M 262.414062 312.773438 L 260.59375 317.246094 L 252.351562 314.261719 L 254.585938 308.703125 Z M 262.414062 312.773438 "/>
<path style=" stroke:none;fill-rule:nonzero;fill:rgb(39.99939%,39.99939%,39.99939%);fill-opacity:0.3;" d="M 269.011719 322.761719 L 257.988281 349.332031 L 250.261719 346.511719 L 261.246094 319.976562 Z M 269.011719 322.761719 "/>
<path style=" stroke:none;fill-rule:nonzero;fill:rgb(39.99939%,39.99939%,39.99939%);fill-opacity:0.3;" d="M 205.808594 284.410156 L 200.851562 296.289062 L 192.867188 293.515625 L 198.246094 280.617188 Z M 205.808594 284.410156 "/>
<path style=" stroke:none;fill-rule:nonzero;fill:rgb(39.99939%,39.99939%,39.99939%);fill-opacity:0.3;" d="M 214.8125 289.121094 L 210.265625 299.769531 L 202.46875 297.078125 L 207.351562 285.390625 Z M 214.8125 289.121094 "/>
<path style=" stroke:none;fill-rule:nonzero;fill:rgb(39.99939%,39.99939%,39.99939%);fill-opacity:0.3;" d="M 223.789062 293.589844 L 219.757812 303.027344 L 211.902344 300.335938 L 216.363281 289.894531 Z M 223.789062 293.589844 "/>
<path style=" stroke:none;fill-rule:nonzero;fill:rgb(39.99939%,39.99939%,39.99939%);fill-opacity:0.3;" d="M 252.113281 307.402344 L 249.765625 313.320312 L 241.464844 310.273438 L 244.308594 303.46875 Z M 252.113281 307.402344 "/>
<path style=" stroke:none;fill-rule:nonzero;fill:rgb(39.99939%,39.99939%,39.99939%);fill-opacity:0.3;" d="M 242.765625 302.722656 L 239.8125 309.660156 L 231.785156 306.855469 L 235.207031 299.03125 Z M 242.765625 302.722656 "/>
<path style=" stroke:none;fill-rule:nonzero;fill:rgb(39.99939%,39.99939%,39.99939%);fill-opacity:0.3;" d="M 233.660156 298.269531 L 230.15625 306.308594 L 222.039062 303.574219 L 225.964844 294.464844 Z M 233.660156 298.269531 "/>
<path style=" stroke:none;fill-rule:nonzero;fill:rgb(39.99939%,39.99939%,39.99939%);fill-opacity:0.3;" d="M 249.125 315.925781 L 238.28125 342.453125 L 229.972656 339.410156 L 240.824219 312.894531 Z M 249.125 315.925781 "/>
<path style=" stroke:none;fill-rule:nonzero;fill:rgb(39.99939%,39.99939%,39.99939%);fill-opacity:0.3;" d="M 259.261719 319.507812 L 248.28125 346.039062 L 240.097656 343.042969 L 251.023438 316.539062 Z M 259.261719 319.507812 "/>
<g clip-path="url(#clip16)" clip-rule="nonzero">
<path style=" stroke:none;fill-rule:nonzero;fill:rgb(39.99939%,39.99939%,39.99939%);fill-opacity:0.3;" d="M 257.382812 350.777344 L 246.835938 376.042969 L 239.054688 373.378906 L 249.660156 347.957031 Z M 257.382812 350.777344 "/>
</g>
<g clip-path="url(#clip17)" clip-rule="nonzero">
<path style=" stroke:none;fill-rule:nonzero;fill:rgb(39.99939%,39.99939%,39.99939%);fill-opacity:0.3;" d="M 247.679688 347.484375 L 237.152344 372.71875 L 228.980469 369.730469 L 239.496094 344.492188 Z M 247.679688 347.484375 "/>
</g>
<g clip-path="url(#clip18)" clip-rule="nonzero">
<path style=" stroke:none;fill-rule:nonzero;fill:rgb(39.99939%,39.99939%,39.99939%);fill-opacity:0.3;" d="M 237.683594 343.902344 L 227.257812 369.101562 L 218.761719 366.34375 L 229.371094 340.859375 Z M 237.683594 343.902344 "/>
</g>
<g clip-path="url(#clip19)" clip-rule="nonzero">
<path style=" stroke:none;fill-rule:nonzero;fill:rgb(39.99939%,39.99939%,39.99939%);fill-opacity:0.3;" d="M 227.476562 340.683594 L 217.042969 365.761719 L 209.0625 362.773438 L 219.464844 337.738281 Z M 227.476562 340.683594 "/>
</g>
<path style=" stroke:none;fill-rule:nonzero;fill:rgb(39.99939%,39.99939%,39.99939%);fill-opacity:0.3;" d="M 229.46875 308.785156 L 218.679688 335.257812 L 210.542969 332.253906 L 221.363281 306.074219 Z M 229.46875 308.785156 "/>
<path style=" stroke:none;fill-rule:nonzero;fill:rgb(39.99939%,39.99939%,39.99939%);fill-opacity:0.3;" d="M 239.175781 312.289062 L 228.332031 338.808594 L 220.320312 335.863281 L 231.097656 309.324219 Z M 239.175781 312.289062 "/>
<path style=" stroke:none;fill-rule:nonzero;fill:rgb(39.99939%,39.99939%,39.99939%);fill-opacity:0.3;" d="M 209.441406 302.007812 L 198.582031 327.808594 L 190.953125 324.941406 L 201.664062 299.328125 Z M 209.441406 302.007812 "/>
<path style=" stroke:none;fill-rule:nonzero;fill:rgb(39.99939%,39.99939%,39.99939%);fill-opacity:0.3;" d="M 218.941406 305.253906 L 208.175781 331.378906 L 200.222656 328.421875 L 211.078125 302.570312 Z M 218.941406 305.253906 "/>
<g clip-path="url(#clip20)" clip-rule="nonzero">
<path style=" stroke:none;fill-rule:nonzero;fill:rgb(39.99939%,39.99939%,39.99939%);fill-opacity:0.3;" d="M 218.082031 336.710938 L 207.5 362.183594 L 199.40625 359.148438 L 209.941406 333.710938 Z M 218.082031 336.710938 "/>
</g>
<path style=" stroke:none;fill-rule:nonzero;fill:rgb(39.99939%,39.99939%,39.99939%);fill-opacity:0.3;" d="M 188.222656 325.546875 L 177.675781 351.742188 L 169.585938 348.984375 L 180.1875 322.484375 Z M 188.222656 325.546875 "/>
<path style=" stroke:none;fill-rule:nonzero;fill:rgb(39.99939%,39.99939%,39.99939%);fill-opacity:0.3;" d="M 278.125 326.015625 L 267.015625 352.625 L 259.285156 349.804688 L 270.316406 323.226562 Z M 278.125 326.015625 "/>
<g clip-path="url(#clip21)" clip-rule="nonzero">
<path style=" stroke:none;fill-rule:nonzero;fill:rgb(39.99939%,39.99939%,39.99939%);fill-opacity:0.3;" d="M 266.410156 354.070312 L 255.820312 379.324219 L 248.136719 376.515625 L 258.683594 351.25 Z M 266.410156 354.070312 "/>
</g>
<path style=" stroke:none;fill-rule:nonzero;fill:rgb(39.99939%,39.99939%,39.99939%);fill-opacity:0.3;" d="M 279.667969 321.636719 L 278.785156 323.765625 L 270.972656 320.972656 L 272.261719 317.84375 Z M 279.667969 321.636719 "/>
<path style=" stroke:none;fill-rule:nonzero;fill:rgb(39.99939%,39.99939%,39.99939%);fill-opacity:0.3;" d="M 271.023438 317.210938 L 269.667969 320.507812 L 261.898438 317.714844 L 263.652344 313.414062 Z M 271.023438 317.210938 "/>
<path style=" stroke:none;fill-rule:nonzero;fill:rgb(39.99939%,39.99939%,39.99939%);fill-opacity:0.3;" d="M 199.515625 298.5 L 188.804688 324.066406 L 180.785156 321.058594 L 191.53125 295.734375 Z M 199.515625 298.5 "/>
<path style=" stroke:none;fill-rule:nonzero;fill:rgb(39.99939%,39.99939%,39.99939%);fill-opacity:0.3;" d="M 197.984375 329.277344 L 187.378906 354.984375 L 179.863281 352.476562 L 190.367188 326.421875 Z M 197.984375 329.277344 "/>
<path style=" stroke:none;fill-rule:nonzero;fill:rgb(39.99939%,39.99939%,39.99939%);fill-opacity:0.3;" d="M 226.578125 54.542969 L 235.671875 58.191406 L 228.355469 79.933594 L 218.851562 75.886719 Z M 226.578125 54.542969 "/>
<path style=" stroke:none;fill-rule:nonzero;fill:rgb(39.99939%,39.99939%,39.99939%);fill-opacity:0.3;" d="M 208.839844 101.417969 L 217.980469 78.527344 L 227.273438 82.394531 L 217.515625 109.445312 L 211.617188 106.988281 L 211.707031 106.261719 L 211.6875 105.527344 L 211.566406 104.804688 L 211.335938 104.109375 L 211.007812 103.445312 L 210.582031 102.835938 L 210.074219 102.289062 L 209.488281 101.8125 Z M 208.839844 101.417969 "/>
<path style=" stroke:none;fill-rule:nonzero;fill:rgb(39.99939%,39.99939%,39.99939%);fill-opacity:0.3;" d="M 155.640625 84.761719 L 180.914062 95.84375 L 168.941406 125.585938 L 151.75 117.5 Z M 155.640625 84.761719 "/>
<path style=" stroke:none;fill-rule:nonzero;fill:rgb(39.99939%,39.99939%,39.99939%);fill-opacity:0.3;" d="M 200.851562 104.632812 L 200.675781 105.445312 L 200.636719 106.179688 L 200.710938 106.90625 L 200.886719 107.621094 L 201.167969 108.300781 L 201.546875 108.9375 L 202.015625 109.519531 L 202.566406 110.035156 L 203.1875 110.46875 L 203.4375 110.597656 L 192.320312 138.085938 L 171.648438 126.8125 L 183.730469 97.132812 Z M 200.851562 104.632812 "/>
<path style=" stroke:none;fill-rule:nonzero;fill:rgb(39.99939%,39.99939%,39.99939%);fill-opacity:0.3;" d="M 165.679688 56.28125 L 192.578125 67.589844 L 181.726562 93.820312 L 155.890625 81.652344 Z M 165.679688 56.28125 "/>
<path style=" stroke:none;fill-rule:nonzero;fill:rgb(39.99939%,39.99939%,39.99939%);fill-opacity:0.3;" d="M 201.554688 44.171875 L 198.8125 51.207031 L 194.425781 49.453125 L 194.035156 50.320312 L 193.648438 51.183594 L 197.992188 52.996094 L 193.394531 64.804688 L 167.101562 53.21875 L 173.765625 36.644531 L 174.167969 36.09375 L 174.683594 35.679688 L 175.230469 35.371094 L 175.804688 35.109375 L 176.40625 34.929688 L 177.007812 34.851562 L 177.609375 34.851562 L 178.265625 34.953125 Z M 201.554688 44.171875 "/>
<path style=" stroke:none;fill-rule:nonzero;fill:rgb(39.99939%,39.99939%,39.99939%);fill-opacity:0.3;" d="M 203.460938 44.957031 L 224.375 53.730469 L 216.816406 74.777344 L 195.492188 65.515625 Z M 203.460938 44.957031 "/>
<path style=" stroke:none;fill-rule:nonzero;fill:rgb(39.99939%,39.99939%,39.99939%);fill-opacity:0.3;" d="M 201.960938 102.707031 L 184.496094 95.007812 L 194.894531 68.523438 L 216.488281 77.632812 L 207.3125 100.898438 L 206.636719 100.800781 L 205.863281 100.796875 L 205.097656 100.890625 L 204.351562 101.089844 L 203.640625 101.378906 L 202.980469 101.765625 L 202.382812 102.230469 Z M 201.960938 102.707031 "/>
<path style=" stroke:none;fill-rule:nonzero;fill:rgb(39.99939%,39.99939%,39.99939%);fill-opacity:0.3;" d="M 238.90625 59.710938 L 279.277344 76.078125 L 243.988281 162.226562 L 243.804688 162.515625 L 243.527344 162.585938 L 243.179688 162.585938 L 242.777344 162.539062 L 208.628906 145.585938 L 208.15625 145.347656 L 207.90625 145.046875 L 207.808594 144.507812 L 207.980469 144 Z M 238.90625 59.710938 "/>
<g clip-path="url(#clip22)" clip-rule="nonzero">
<path style=" stroke:none;fill-rule:nonzero;fill:rgb(39.99939%,39.99939%,39.99939%);fill-opacity:0.3;" d="M 367.949219 111.089844 L 368.316406 111.347656 L 368.546875 111.648438 L 368.613281 111.808594 L 368.640625 112.023438 L 368.609375 112.238281 L 368.496094 112.523438 L 329.882812 199.953125 L 329.660156 200.261719 L 329.441406 200.367188 L 329.152344 200.367188 L 328.824219 200.296875 L 247.199219 164.570312 L 246.941406 164.417969 L 246.746094 164.203125 L 246.679688 163.925781 L 246.746094 163.644531 L 246.847656 163.367188 L 282.824219 77.855469 L 282.921875 77.675781 L 283.035156 77.574219 L 283.199219 77.53125 L 283.339844 77.53125 L 283.46875 77.5625 Z M 367.949219 111.089844 "/>
</g>
<path style=" stroke:none;fill-rule:nonzero;fill:rgb(39.99939%,39.99939%,39.99939%);fill-opacity:0.3;" d="M 204.964844 111.152344 L 205.34375 111.230469 L 206.113281 111.289062 L 206.882812 111.242188 L 207.640625 111.097656 L 208.371094 110.851562 L 209.054688 110.511719 L 209.6875 110.085938 L 210.246094 109.582031 L 210.730469 109.007812 L 216.957031 111.789062 L 205.238281 143.855469 L 194.074219 138.777344 Z M 204.964844 111.152344 "/>
<path style=" stroke:none;fill-rule:nonzero;fill:rgb(39.99939%,39.99939%,39.99939%);fill-opacity:0.3;" d="M 91.339844 138.953125 L 117.300781 104.566406 L 117.679688 104.53125 L 144.839844 118.300781 L 143.195312 137.144531 L 142.761719 140.039062 L 129.550781 134.300781 L 119.542969 130.273438 L 117.96875 129.90625 L 116.378906 129.621094 L 114.773438 129.414062 L 113.160156 129.289062 L 111.542969 129.242188 L 109.925781 129.277344 L 108.3125 129.390625 L 106.707031 129.589844 L 105.117188 129.863281 L 103.539062 130.21875 L 102.054688 130.644531 L 100.914062 131.15625 L 99.804688 131.722656 L 98.730469 132.347656 L 97.6875 133.023438 L 96.6875 133.75 L 95.726562 134.527344 L 94.808594 135.351562 L 93.9375 136.222656 L 93.121094 137.136719 L 92.351562 138.089844 L 91.628906 139.105469 Z M 91.339844 138.953125 "/>
<path style=" stroke:none;fill-rule:nonzero;fill:rgb(39.99939%,39.99939%,39.99939%);fill-opacity:0.3;" d="M 64.226562 160.851562 L 64.511719 160.953125 L 53.367188 174.792969 L 52.773438 174.59375 Z M 64.226562 160.851562 "/>
<path style=" stroke:none;fill-rule:nonzero;fill:rgb(39.99939%,39.99939%,39.99939%);fill-opacity:0.3;" d="M 81.238281 139.640625 L 81.492188 139.734375 L 67.585938 157.113281 L 67.367188 157.035156 Z M 81.238281 139.640625 "/>
<path style=" stroke:none;fill-rule:nonzero;fill:rgb(39.99939%,39.99939%,39.99939%);fill-opacity:0.3;" d="M 138.234375 163.5625 L 93.078125 140.847656 L 94.078125 139.292969 L 94.773438 138.421875 L 95.515625 137.589844 L 96.308594 136.796875 L 97.140625 136.042969 L 98.015625 135.332031 L 98.929688 134.667969 L 99.875 134.050781 L 100.855469 133.484375 L 101.867188 132.964844 L 102.8125 132.539062 L 104.085938 132.175781 L 105.542969 131.847656 L 107.027344 131.589844 L 108.523438 131.40625 L 110.027344 131.300781 L 111.535156 131.265625 L 113.042969 131.308594 L 114.542969 131.425781 L 116.039062 131.621094 L 117.523438 131.886719 L 118.878906 132.203125 L 128.710938 136.160156 L 142.449219 142.121094 L 139.222656 163.589844 L 139.160156 163.640625 L 138.699219 163.707031 Z M 138.234375 163.5625 "/>
<path style=" stroke:none;fill-rule:nonzero;fill:rgb(39.99939%,39.99939%,39.99939%);fill-opacity:0.3;" d="M 295.542969 245.878906 L 294.085938 247.785156 L 291.855469 250.191406 L 288.921875 252.679688 L 286.683594 254.203125 L 284.613281 255.375 L 282.265625 256.46875 L 280.085938 257.289062 L 276.984375 258.15625 L 274.722656 258.585938 L 271.847656 258.894531 L 269.589844 258.960938 L 266.578125 258.800781 L 262.5625 258.140625 L 259.96875 257.429688 L 257.429688 256.496094 L 254.691406 255.195312 L 216.585938 236.675781 L 226.96875 211.714844 Z M 295.542969 245.878906 "/>
<path style=" stroke:none;fill-rule:nonzero;fill:rgb(39.99939%,39.99939%,39.99939%);fill-opacity:0.3;" d="M 138.179688 166.367188 L 138.527344 166.671875 L 138.699219 166.976562 L 138.785156 167.304688 L 138.757812 167.691406 L 138.636719 168.273438 L 131.515625 194.234375 L 96.28125 176.570312 L 94.476562 175.703125 L 93.140625 175.136719 L 91.691406 174.589844 L 89.960938 174.03125 L 87.976562 173.5 L 86.316406 173.144531 L 84.738281 172.882812 L 82.695312 172.644531 L 80.6875 172.515625 L 78.738281 172.519531 L 76.933594 172.644531 L 74.851562 172.933594 L 73.398438 173.226562 L 71.558594 173.714844 L 69.894531 174.269531 L 68.285156 174.921875 L 66.511719 175.78125 L 65.058594 176.609375 L 63.285156 177.785156 L 62.082031 178.703125 L 61.523438 179.234375 L 61.230469 179.085938 L 89.144531 143.308594 L 89.5 143.15625 L 89.886719 143.136719 L 90.371094 143.25 L 91 143.496094 Z M 138.179688 166.367188 "/>
<path style=" stroke:none;fill-rule:nonzero;fill:rgb(39.99939%,39.99939%,39.99939%);fill-opacity:0.3;" d="M 224.386719 210.277344 L 213.941406 235.472656 L 140.433594 198.78125 L 139.371094 197.941406 L 138.488281 196.765625 L 138.3125 196.09375 L 138.316406 194.917969 L 141.890625 180.96875 L 142.226562 179.957031 L 145.996094 171.230469 L 146.464844 170.976562 L 147.132812 170.914062 L 148 171.167969 Z M 224.386719 210.277344 "/>
<path style=" stroke:none;fill-rule:nonzero;fill:rgb(39.99939%,39.99939%,39.99939%);fill-opacity:0.3;" d="M 137.011719 200.378906 L 137.289062 200.078125 L 137.605469 199.949219 L 137.902344 199.910156 L 138.199219 199.929688 L 138.648438 199.980469 L 212.898438 237.988281 L 201.304688 265.949219 L 201.039062 266.492188 L 200.785156 266.773438 L 200.554688 266.949219 L 200.257812 267.011719 L 199.9375 267.011719 L 199.617188 266.992188 L 154.699219 244.3125 L 149.996094 242.179688 L 127.648438 234.890625 L 127.339844 234.449219 L 127.347656 233.820312 Z M 137.011719 200.378906 "/>
<path style=" stroke:none;fill-rule:nonzero;fill:rgb(39.99939%,39.99939%,39.99939%);fill-opacity:0.3;" d="M 121.214844 231.5 L 111.855469 225.113281 L 75.09375 205.90625 L 73.65625 205.015625 L 57.046875 196.339844 L 54.070312 194.605469 L 51.429688 193.074219 L 51.503906 192.398438 L 58.804688 183.097656 L 60.941406 181.269531 L 62.988281 179.675781 L 64.101562 178.824219 L 65.796875 177.695312 L 67.171875 176.917969 L 68.863281 176.097656 L 70.386719 175.480469 L 71.964844 174.949219 L 73.71875 174.484375 L 75.085938 174.210938 L 77.074219 173.933594 L 78.785156 173.816406 L 80.636719 173.8125 L 82.558594 173.9375 L 84.53125 174.167969 L 86.042969 174.417969 L 87.636719 174.757812 L 89.550781 175.269531 L 91.210938 175.808594 L 92.605469 176.332031 L 93.882812 176.875 L 95.644531 177.722656 L 131.148438 195.519531 Z M 121.214844 231.5 "/>
<path style=" stroke:none;fill-rule:nonzero;fill:rgb(39.99939%,39.99939%,39.99939%);fill-opacity:0.3;" d="M 273.007812 264.859375 L 273.660156 263.40625 L 267.871094 261.613281 L 267.542969 261.507812 L 267.390625 261.347656 L 267.457031 261.1875 L 270.027344 261.285156 L 271.726562 261.289062 L 273.425781 261.210938 L 275.117188 261.046875 L 276.800781 260.800781 L 278.46875 260.472656 L 280.113281 260.0625 L 281.734375 259.570312 L 283.328125 259 L 284.886719 258.351562 L 286.410156 257.625 L 287.886719 256.828125 L 289.324219 255.957031 L 290.707031 255.015625 L 292.035156 254.007812 L 293.308594 252.9375 L 294.523438 251.804688 L 295.671875 250.613281 L 296.75 249.367188 L 297.761719 248.070312 L 298.253906 247.308594 L 308.570312 251.746094 L 285.324219 308.023438 L 285.167969 308.332031 L 285.007812 308.527344 L 284.757812 308.570312 L 284.304688 308.570312 L 250.070312 290.894531 L 203.90625 269.242188 L 203.605469 269.03125 L 203.410156 268.816406 L 203.289062 268.5625 L 203.199219 268.3125 L 203.183594 267.992188 L 203.238281 267.625 L 203.363281 267.207031 L 215.535156 239.183594 L 267.007812 263.644531 L 272.402344 266.207031 Z M 273.007812 264.859375 "/>
<path style=" stroke:none;fill-rule:nonzero;fill:rgb(39.99939%,39.99939%,39.99939%);fill-opacity:0.3;" d="M 143.195312 137.144531 L 142.9375 140.117188 L 142.761719 140.039062 Z M 143.195312 137.144531 "/>
<path style=" stroke:none;fill-rule:nonzero;fill:rgb(39.99939%,39.99939%,39.99939%);fill-opacity:0.3;" d="M 129.230469 100.691406 L 127.503906 103.550781 L 126.015625 102.757812 L 126.679688 101.660156 L 126.402344 101.507812 L 125.742188 102.601562 L 124.257812 101.800781 L 125.988281 98.941406 L 127.472656 99.742188 L 126.808594 100.835938 L 127.085938 100.984375 L 127.746094 99.890625 Z M 129.230469 100.691406 "/>
<path style=" stroke:none;fill-rule:nonzero;fill:rgb(39.99939%,39.99939%,39.99939%);fill-opacity:0.3;" d="M 133.226562 102.84375 L 131.507812 105.707031 L 130.015625 104.910156 L 130.675781 103.8125 L 130.402344 103.664062 L 129.742188 104.757812 L 128.257812 103.957031 L 129.980469 101.09375 L 131.464844 101.894531 L 130.804688 102.988281 L 131.082031 103.136719 L 131.742188 102.042969 Z M 133.226562 102.84375 "/>
<path style=" stroke:none;fill-rule:nonzero;fill:rgb(39.99939%,39.99939%,39.99939%);fill-opacity:0.3;" d="M 137.851562 105.328125 L 136.144531 108.1875 L 134.644531 107.390625 L 135.300781 106.292969 L 135.023438 106.144531 L 134.371094 107.238281 L 132.878906 106.4375 L 134.597656 103.578125 L 136.085938 104.378906 L 135.429688 105.472656 L 135.707031 105.621094 L 136.363281 104.527344 Z M 137.851562 105.328125 "/>
<path style=" stroke:none;fill-rule:nonzero;fill:rgb(39.99939%,39.99939%,39.99939%);fill-opacity:0.3;" d="M 141.828125 107.476562 L 140.066406 110.339844 L 138.605469 109.542969 L 139.285156 108.445312 L 139.011719 108.296875 L 138.339844 109.390625 L 136.882812 108.589844 L 138.613281 105.730469 L 140.105469 106.527344 L 139.429688 107.621094 L 139.699219 107.769531 L 140.375 106.675781 Z M 141.828125 107.476562 "/>
<path style=" stroke:none;fill-rule:nonzero;fill:rgb(39.99939%,39.99939%,39.99939%);fill-opacity:0.3;" d="M 146.195312 109.015625 L 124.207031 97.027344 L 139.429688 75.769531 L 140.402344 74.632812 L 142.039062 72.832031 L 143.0625 71.988281 L 144.25 71.222656 L 145.558594 70.496094 L 147.070312 69.730469 L 148.902344 69.042969 L 150.101562 68.699219 L 150.863281 68.582031 L 151.042969 68.621094 L 151.203125 68.65625 L 151.429688 68.8125 L 150.191406 79.597656 L 149.8125 82.277344 L 147.523438 100.667969 Z M 146.195312 109.015625 "/>
<path style=" stroke:none;fill-rule:nonzero;fill:rgb(39.99939%,39.99939%,39.99939%);fill-opacity:0.3;" d="M 142.449219 142.121094 L 142.671875 142.21875 L 139.753906 162.652344 L 139.628906 163.101562 L 139.464844 163.394531 L 139.222656 163.589844 Z M 142.449219 142.121094 "/>
<path style=" stroke:none;fill-rule:nonzero;fill:rgb(39.99939%,39.99939%,39.99939%);fill-opacity:0.3;" d="M 327.410156 206.613281 L 309.84375 247.660156 L 300.1875 243.402344 L 317.03125 202.054688 Z M 327.410156 206.613281 "/>
<path style=" stroke:none;fill-rule:nonzero;fill:rgb(39.99939%,39.99939%,39.99939%);fill-opacity:0.3;" d="M 314.945312 201.136719 L 298.132812 242.628906 L 228.46875 207.851562 L 243.824219 169.855469 Z M 314.945312 201.136719 "/>
<path style=" stroke:none;fill-rule:nonzero;fill:rgb(39.99939%,39.99939%,39.99939%);fill-opacity:0.3;" d="M 152.019531 124.832031 L 152.132812 124.453125 L 152.292969 124.183594 L 152.617188 124.070312 L 153.019531 124.03125 L 153.507812 124.109375 L 241.03125 168.742188 L 225.921875 206.457031 L 147.300781 167.082031 L 147.078125 166.867188 L 146.855469 166.578125 L 146.773438 166.179688 L 149.308594 146.542969 L 218.320312 180.195312 L 218.847656 179.382812 L 219.082031 178.96875 L 219.3125 178.554688 L 219.628906 177.734375 L 149.535156 143.917969 Z M 152.019531 124.832031 "/>
<path style=" stroke:none;fill-rule:nonzero;fill:rgb(39.99939%,39.99939%,39.99939%);fill-opacity:0.3;" d="M 118.371094 239.085938 L 112.125 261.371094 L 101.792969 258.910156 L 107.953125 233.792969 Z M 118.371094 239.085938 "/>
<path style=" stroke:none;fill-rule:nonzero;fill:rgb(39.99939%,39.99939%,39.99939%);fill-opacity:0.3;" d="M 66.632812 212.671875 L 76.222656 217.433594 L 68.34375 251.136719 L 57.964844 247.882812 Z M 66.632812 212.671875 "/>
<path style=" stroke:none;fill-rule:nonzero;fill:rgb(39.99939%,39.99939%,39.99939%);fill-opacity:0.3;" d="M 48.835938 293.132812 L 47.621094 292.722656 L 48.835938 288.105469 L 57.753906 254.222656 L 67.753906 257.589844 L 58.683594 296.464844 Z M 48.835938 293.132812 "/>
<path style=" stroke:none;fill-rule:nonzero;fill:rgb(39.99939%,39.99939%,39.99939%);fill-opacity:0.3;" d="M 83.832031 221.070312 L 93.90625 226.277344 L 86.902344 256.003906 L 77.375 253.816406 Z M 83.832031 221.070312 "/>
<path style=" stroke:none;fill-rule:nonzero;fill:rgb(39.99939%,39.99939%,39.99939%);fill-opacity:0.3;" d="M 73.992188 259.238281 L 84.863281 261.339844 L 75.570312 300.605469 L 64.804688 298.253906 Z M 73.992188 259.238281 "/>
<path style=" stroke:none;fill-rule:nonzero;fill:rgb(39.99939%,39.99939%,39.99939%);fill-opacity:0.3;" d="M 86.726562 261.886719 L 97.773438 264.402344 L 87.929688 303.296875 L 77.382812 301 Z M 86.726562 261.886719 "/>
<path style=" stroke:none;fill-rule:nonzero;fill:rgb(39.99939%,39.99939%,39.99939%);fill-opacity:0.3;" d="M 44.707031 249.484375 L 48.835938 250.875 L 55.273438 253.039062 L 48.835938 277.164062 L 45.015625 291.492188 L 35.148438 288.148438 Z M 44.707031 249.484375 "/>
<path style=" stroke:none;fill-rule:nonzero;fill:rgb(39.99939%,39.99939%,39.99939%);fill-opacity:0.3;" d="M 95.964844 227.285156 L 105.476562 232.203125 L 98.660156 258.628906 L 89.078125 256.359375 Z M 95.964844 227.285156 "/>
<path style=" stroke:none;fill-rule:nonzero;fill:rgb(39.99939%,39.99939%,39.99939%);fill-opacity:0.3;" d="M 77.136719 303.925781 L 87.847656 306.109375 L 81.007812 334.890625 L 75.503906 347.191406 L 66.953125 344.351562 Z M 77.136719 303.925781 "/>
<path style=" stroke:none;fill-rule:nonzero;fill:rgb(39.99939%,39.99939%,39.99939%);fill-opacity:0.3;" d="M 63.832031 301.207031 L 74.722656 303.40625 L 64.90625 343.8125 L 54.332031 340.238281 Z M 63.832031 301.207031 "/>
<path style=" stroke:none;fill-rule:nonzero;fill:rgb(39.99939%,39.99939%,39.99939%);fill-opacity:0.3;" d="M 48.835938 334.535156 L 48.023438 338.082031 L 36.734375 334.210938 L 46.769531 295.65625 L 48.835938 296.378906 L 56.949219 299.203125 Z M 48.835938 334.535156 "/>
<path style=" stroke:none;fill-rule:nonzero;fill:rgb(39.99939%,39.99939%,39.99939%);fill-opacity:0.3;" d="M 90.417969 303.675781 L 100.273438 264.78125 L 111.21875 267.15625 L 104.382812 285.765625 L 95.605469 304.804688 Z M 90.417969 303.675781 "/>
<path style=" stroke:none;fill-rule:nonzero;fill:rgb(39.99939%,39.99939%,39.99939%);fill-opacity:0.3;" d="M 11.253906 282.800781 L 21.167969 286.261719 L 11.109375 324.910156 L 1.421875 321.445312 Z M 11.253906 282.800781 "/>
<path style=" stroke:none;fill-rule:nonzero;fill:rgb(39.99939%,39.99939%,39.99939%);fill-opacity:0.3;" d="M -1.929688 278.195312 L 9.203125 282.082031 L -0.828125 320.773438 L -11.140625 317.191406 Z M -1.929688 278.195312 "/>
<path style=" stroke:none;fill-rule:nonzero;fill:rgb(39.99939%,39.99939%,39.99939%);fill-opacity:0.3;" d="M 35.191406 291.160156 L 45.503906 294.757812 L 35.484375 333.324219 L 25.3125 329.820312 Z M 35.191406 291.160156 "/>
<path style=" stroke:none;fill-rule:nonzero;fill:rgb(39.99939%,39.99939%,39.99939%);fill-opacity:0.3;" d="M 23.226562 286.984375 L 33.023438 290.402344 L 23.390625 329.15625 L 12.894531 325.527344 Z M 23.226562 286.984375 "/>
<path style=" stroke:none;fill-rule:nonzero;fill:rgb(39.99939%,39.99939%,39.99939%);fill-opacity:0.3;" d="M 16.234375 239.660156 L 19.226562 240.667969 L 9.230469 279.675781 L -2.210938 275.757812 L 1.597656 259.078125 Z M 16.234375 239.660156 "/>
<path style=" stroke:none;fill-rule:nonzero;fill:rgb(39.99939%,39.99939%,39.99939%);fill-opacity:0.3;" d="M 40.519531 210.167969 L 32.769531 239.976562 L 19.449219 235.796875 L 39.871094 209.988281 Z M 40.519531 210.167969 "/>
<path style=" stroke:none;fill-rule:nonzero;fill:rgb(39.99939%,39.99939%,39.99939%);fill-opacity:0.3;" d="M 33.160156 245.597656 L 42.855469 248.859375 L 33.574219 287.617188 L 22.992188 284.015625 Z M 33.160156 245.597656 "/>
<path style=" stroke:none;fill-rule:nonzero;fill:rgb(39.99939%,39.99939%,39.99939%);fill-opacity:0.3;" d="M 45.777344 202.421875 L 48.835938 203.898438 L 53.492188 206.144531 L 48.835938 224.835938 L 44.175781 243.554688 L 34.234375 240.433594 L 42.933594 206.160156 Z M 45.777344 202.421875 "/>
<path style=" stroke:none;fill-rule:nonzero;fill:rgb(39.99939%,39.99939%,39.99939%);fill-opacity:0.3;" d="M 20.542969 241.347656 L 31.324219 244.976562 L 21.101562 283.390625 L 11.222656 280.039062 Z M 20.542969 241.347656 "/>
<path style=" stroke:none;fill-rule:nonzero;fill:rgb(39.99939%,39.99939%,39.99939%);fill-opacity:0.3;" d="M 55.507812 207.136719 L 60.753906 209.269531 L 63.121094 209.21875 L 65.96875 209.21875 L 68.386719 209.902344 L 68.121094 210.386719 L 67.5 210.3125 L 65.996094 210.261719 L 64.894531 210.722656 L 64.164062 211.429688 L 55.726562 247.195312 L 46.183594 244.203125 Z M 55.507812 207.136719 "/>
<path style=" stroke:none;fill-rule:nonzero;fill:rgb(39.99939%,39.99939%,39.99939%);fill-opacity:0.3;" d="M 75.09375 205.90625 L 51.785156 193.726562 L 51.421875 193.144531 L 51.429688 193.074219 L 54.070312 194.605469 L 57.046875 196.339844 L 73.65625 205.015625 Z M 75.09375 205.90625 "/>
<g clip-path="url(#clip23)" clip-rule="nonzero">
<path style=" stroke:none;fill-rule:nonzero;fill:rgb(39.99939%,39.99939%,39.99939%);fill-opacity:0.3;" d="M -34.265625 314.714844 L 48.835938 343.347656 L 72.179688 351.390625 L 72.414062 351.597656 L 72.558594 351.820312 L 72.625 352.015625 L 72.695312 352.347656 L 72.710938 352.613281 L 72.683594 352.878906 L 54.859375 393.085938 L 54.429688 393.609375 L 54.070312 393.859375 L 53.742188 393.953125 L 53.378906 394.015625 L 52.855469 393.949219 L 52.261719 393.761719 L 48.835938 392.550781 L -60.472656 353.917969 L -51.832031 341.316406 L -46.15625 340.980469 L -41.816406 341.609375 L -26.058594 346.773438 L -25.460938 345.546875 L -24.859375 344.324219 L -41.21875 338.695312 L -46.160156 337.628906 L -50.203125 338.519531 Z M -34.265625 314.714844 "/>
</g>
<path style=" stroke:none;fill-rule:nonzero;fill:rgb(39.99939%,39.99939%,39.99939%);fill-opacity:0.3;" d="M 348.996094 335.832031 L 345.234375 346.066406 L 333.746094 340.097656 L 337.085938 331.117188 Z M 348.996094 335.832031 "/>
<g clip-path="url(#clip24)" clip-rule="nonzero">
<path style=" stroke:none;fill-rule:nonzero;fill:rgb(39.99939%,39.99939%,39.99939%);fill-opacity:0.3;" d="M 377.292969 220.125 L 346.371094 205.714844 L 345.933594 205.53125 L 345.59375 205.164062 L 345.449219 204.75 L 345.546875 204.289062 L 345.644531 204.042969 L 371.15625 216.917969 Z M 377.292969 220.125 "/>
</g>
<g clip-path="url(#clip25)" clip-rule="nonzero">
<path style=" stroke:none;fill-rule:nonzero;fill:rgb(39.99939%,39.99939%,39.99939%);fill-opacity:0.3;" d="M 373.386719 316.683594 L 359.5625 353.351562 L 347.972656 347.414062 L 360.882812 312.21875 Z M 373.386719 316.683594 "/>
</g>
<path style=" stroke:none;fill-rule:nonzero;fill:rgb(39.99939%,39.99939%,39.99939%);fill-opacity:0.3;" d="M 327.199219 276.253906 L 308.0625 327.34375 L 294.949219 320.582031 L 316.570312 271.246094 Z M 327.199219 276.253906 "/>
<path style=" stroke:none;fill-rule:nonzero;fill:rgb(39.99939%,39.99939%,39.99939%);fill-opacity:0.3;" d="M 339.171875 281.792969 L 320.054688 333.507812 L 309.203125 327.929688 L 328.492188 276.859375 Z M 339.171875 281.792969 "/>
<path style=" stroke:none;fill-rule:nonzero;fill:rgb(39.99939%,39.99939%,39.99939%);fill-opacity:0.3;" d="M 351.523438 287.894531 L 332.207031 339.75 L 321.191406 334.09375 L 340.253906 282.863281 Z M 351.523438 287.894531 "/>
<g clip-path="url(#clip26)" clip-rule="nonzero">
<path style=" stroke:none;fill-rule:nonzero;fill:rgb(39.99939%,39.99939%,39.99939%);fill-opacity:0.3;" d="M 378.679688 301.851562 L 374.226562 313.898438 L 347.183594 304.070312 L 352.582031 289.402344 Z M 378.679688 301.851562 "/>
</g>
<path style=" stroke:none;fill-rule:nonzero;fill:rgb(39.99939%,39.99939%,39.99939%);fill-opacity:0.3;" d="M 358.613281 311.625 L 350.292969 334.351562 L 337.789062 329.320312 L 346.171875 307.167969 Z M 358.613281 311.625 "/>
<g clip-path="url(#clip27)" clip-rule="nonzero">
<path style=" stroke:none;fill-rule:nonzero;fill:rgb(39.99939%,39.99939%,39.99939%);fill-opacity:0.3;" d="M 388.984375 274.125 L 380.371094 297.75 L 353.789062 284.554688 L 361.535156 264.675781 Z M 388.984375 274.125 "/>
</g>
<g clip-path="url(#clip28)" clip-rule="nonzero">
<path style=" stroke:none;fill-rule:nonzero;fill:rgb(39.99939%,39.99939%,39.99939%);fill-opacity:0.3;" d="M 373.117188 231.496094 L 352.761719 284.023438 L 341.820312 278.675781 L 362.261719 226.585938 Z M 373.117188 231.496094 "/>
</g>
<g clip-path="url(#clip29)" clip-rule="nonzero">
<path style=" stroke:none;fill-rule:nonzero;fill:rgb(39.99939%,39.99939%,39.99939%);fill-opacity:0.3;" d="M 360.773438 225.914062 L 340.523438 278.070312 L 329.855469 273.03125 L 350.082031 221.074219 Z M 360.773438 225.914062 "/>
</g>
<path style=" stroke:none;fill-rule:nonzero;fill:rgb(39.99939%,39.99939%,39.99939%);fill-opacity:0.3;" d="M 348.597656 220.402344 L 328.550781 272.40625 L 317.988281 267.347656 L 340.714844 216.828125 Z M 348.597656 220.402344 "/>
<g clip-path="url(#clip30)" clip-rule="nonzero">
<path style=" stroke:none;fill-rule:nonzero;fill:rgb(39.99939%,39.99939%,39.99939%);fill-opacity:0.3;" d="M 352.617188 359.710938 L 345.019531 380.003906 L 336.558594 377.019531 L 344.566406 355.628906 Z M 352.617188 359.710938 "/>
</g>
<g clip-path="url(#clip31)" clip-rule="nonzero">
<path style=" stroke:none;fill-rule:nonzero;fill:rgb(39.99939%,39.99939%,39.99939%);fill-opacity:0.3;" d="M 333.25 350.007812 L 324.507812 372.976562 L 316.203125 370.046875 L 325.335938 345.988281 Z M 333.25 350.007812 "/>
</g>
<g clip-path="url(#clip32)" clip-rule="nonzero">
<path style=" stroke:none;fill-rule:nonzero;fill:rgb(39.99939%,39.99939%,39.99939%);fill-opacity:0.3;" d="M 323.984375 345.300781 L 314.765625 369.535156 L 306.875 366.75 L 316.460938 341.476562 Z M 323.984375 345.300781 "/>
</g>
<g clip-path="url(#clip33)" clip-rule="nonzero">
<path style=" stroke:none;fill-rule:nonzero;fill:rgb(39.99939%,39.99939%,39.99939%);fill-opacity:0.3;" d="M 315.109375 340.789062 L 305.4375 366.242188 L 297.675781 363.496094 L 307.707031 337.023438 Z M 315.109375 340.789062 "/>
</g>
<g clip-path="url(#clip34)" clip-rule="nonzero">
<path style=" stroke:none;fill-rule:nonzero;fill:rgb(39.99939%,39.99939%,39.99939%);fill-opacity:0.3;" d="M 306.359375 336.335938 L 296.238281 362.988281 L 288.171875 360.136719 L 298.546875 332.359375 Z M 306.359375 336.335938 "/>
</g>
<path style=" stroke:none;fill-rule:nonzero;fill:rgb(39.99939%,39.99939%,39.99939%);fill-opacity:0.3;" d="M 296.582031 331.238281 L 286.136719 359.203125 L 279.878906 356.992188 L 291.691406 328.742188 Z M 296.582031 331.238281 "/>
<g clip-path="url(#clip35)" clip-rule="nonzero">
<path style=" stroke:none;fill-rule:nonzero;fill:rgb(39.99939%,39.99939%,39.99939%);fill-opacity:0.3;" d="M 285.398438 361.179688 L 275.71875 387.019531 L 268.371094 384.421875 L 279.0625 358.9375 Z M 285.398438 361.179688 "/>
</g>
<g clip-path="url(#clip36)" clip-rule="nonzero">
<path style=" stroke:none;fill-rule:nonzero;fill:rgb(39.99939%,39.99939%,39.99939%);fill-opacity:0.3;" d="M 341.976562 354.4375 L 333.808594 376.261719 L 325.945312 373.484375 L 334.601562 350.691406 Z M 341.976562 354.4375 "/>
</g>
<path style="fill-rule:nonzero;fill:rgb(39.99939%,39.99939%,39.99939%);fill-opacity:1;stroke-width:0.03;stroke-linecap:square;stroke-linejoin:miter;stroke:rgb(39.99939%,39.99939%,39.99939%);stroke-opacity:1;stroke-miterlimit:3.239307;" d="M 165.339844 151.953125 L 191.300781 117.566406 L 191.679688 117.53125 L 218.839844 131.300781 L 217.195312 150.144531 L 216.761719 153.039062 L 203.550781 147.300781 L 193.542969 143.273438 L 191.96875 142.90625 L 190.378906 142.621094 L 188.773438 142.414062 L 187.160156 142.289062 L 185.542969 142.242188 L 183.925781 142.277344 L 182.3125 142.390625 L 180.707031 142.589844 L 179.117188 142.863281 L 177.539062 143.21875 L 176.054688 143.644531 L 174.914062 144.15625 L 173.804688 144.722656 L 172.730469 145.347656 L 171.6875 146.023438 L 170.6875 146.75 L 169.726562 147.527344 L 168.808594 148.351562 L 167.9375 149.222656 L 167.121094 150.136719 L 166.351562 151.089844 L 165.628906 152.105469 Z M 165.339844 151.953125 " transform="matrix(1,0,0,1,-74,-13)"/>
<path style="fill-rule:nonzero;fill:rgb(39.99939%,39.99939%,39.99939%);fill-opacity:1;stroke-width:0.03;stroke-linecap:square;stroke-linejoin:miter;stroke:rgb(39.99939%,39.99939%,39.99939%);stroke-opacity:1;stroke-miterlimit:3.239307;" d="M 138.226562 173.851562 L 138.511719 173.953125 L 127.367188 187.792969 L 126.773438 187.59375 Z M 138.226562 173.851562 " transform="matrix(1,0,0,1,-74,-13)"/>
<path style="fill-rule:nonzero;fill:rgb(39.99939%,39.99939%,39.99939%);fill-opacity:1;stroke-width:0.03;stroke-linecap:square;stroke-linejoin:miter;stroke:rgb(39.99939%,39.99939%,39.99939%);stroke-opacity:1;stroke-miterlimit:3.239307;" d="M 155.238281 152.640625 L 155.492188 152.734375 L 141.585938 170.113281 L 141.367188 170.035156 Z M 155.238281 152.640625 " transform="matrix(1,0,0,1,-74,-13)"/>
<path style="fill-rule:nonzero;fill:rgb(39.99939%,39.99939%,39.99939%);fill-opacity:1;stroke-width:0.03;stroke-linecap:square;stroke-linejoin:miter;stroke:rgb(39.99939%,39.99939%,39.99939%);stroke-opacity:1;stroke-miterlimit:3.239307;" d="M 212.234375 176.5625 L 167.078125 153.847656 L 168.078125 152.292969 L 168.773438 151.421875 L 169.515625 150.589844 L 170.308594 149.796875 L 171.140625 149.042969 L 172.015625 148.332031 L 172.929688 147.667969 L 173.875 147.050781 L 174.855469 146.484375 L 175.867188 145.964844 L 176.8125 145.539062 L 178.085938 145.175781 L 179.542969 144.847656 L 181.027344 144.589844 L 182.523438 144.40625 L 184.027344 144.300781 L 185.535156 144.265625 L 187.042969 144.308594 L 188.542969 144.425781 L 190.039062 144.621094 L 191.523438 144.886719 L 192.878906 145.203125 L 202.710938 149.160156 L 216.449219 155.121094 L 213.222656 176.589844 L 213.160156 176.640625 L 212.699219 176.707031 Z M 212.234375 176.5625 " transform="matrix(1,0,0,1,-74,-13)"/>
<path style="fill-rule:nonzero;fill:rgb(39.99939%,39.99939%,39.99939%);fill-opacity:1;stroke-width:0.03;stroke-linecap:square;stroke-linejoin:miter;stroke:rgb(39.99939%,39.99939%,39.99939%);stroke-opacity:1;stroke-miterlimit:3.239307;" d="M 369.542969 258.878906 L 368.085938 260.785156 L 365.855469 263.191406 L 362.921875 265.679688 L 360.683594 267.203125 L 358.613281 268.375 L 356.265625 269.46875 L 354.085938 270.289062 L 350.984375 271.15625 L 348.722656 271.585938 L 345.847656 271.894531 L 343.589844 271.960938 L 340.578125 271.800781 L 336.5625 271.140625 L 333.96875 270.429688 L 331.429688 269.496094 L 328.691406 268.195312 L 290.585938 249.675781 L 300.96875 224.714844 Z M 369.542969 258.878906 " transform="matrix(1,0,0,1,-74,-13)"/>
<path style="fill-rule:nonzero;fill:rgb(39.99939%,39.99939%,39.99939%);fill-opacity:1;stroke-width:0.03;stroke-linecap:square;stroke-linejoin:miter;stroke:rgb(39.99939%,39.99939%,39.99939%);stroke-opacity:1;stroke-miterlimit:3.239307;" d="M 212.179688 179.367188 L 212.527344 179.671875 L 212.699219 179.976562 L 212.785156 180.304688 L 212.757812 180.691406 L 212.636719 181.273438 L 205.515625 207.234375 L 170.28125 189.570312 L 168.476562 188.703125 L 167.140625 188.136719 L 165.691406 187.589844 L 163.960938 187.03125 L 161.976562 186.5 L 160.316406 186.144531 L 158.738281 185.882812 L 156.695312 185.644531 L 154.6875 185.515625 L 152.738281 185.519531 L 150.933594 185.644531 L 148.851562 185.933594 L 147.398438 186.226562 L 145.558594 186.714844 L 143.894531 187.269531 L 142.285156 187.921875 L 140.511719 188.78125 L 139.058594 189.609375 L 137.285156 190.785156 L 136.082031 191.703125 L 135.523438 192.234375 L 135.230469 192.085938 L 163.144531 156.308594 L 163.5 156.15625 L 163.886719 156.136719 L 164.371094 156.25 L 165 156.496094 Z M 212.179688 179.367188 " transform="matrix(1,0,0,1,-74,-13)"/>
<path style="fill-rule:nonzero;fill:rgb(39.99939%,39.99939%,39.99939%);fill-opacity:1;stroke-width:0.03;stroke-linecap:square;stroke-linejoin:miter;stroke:rgb(39.99939%,39.99939%,39.99939%);stroke-opacity:1;stroke-miterlimit:3.239307;" d="M 298.386719 223.277344 L 287.941406 248.472656 L 214.433594 211.78125 L 213.371094 210.941406 L 212.488281 209.765625 L 212.3125 209.09375 L 212.316406 207.917969 L 215.890625 193.96875 L 216.226562 192.957031 L 219.996094 184.230469 L 220.464844 183.976562 L 221.132812 183.914062 L 222 184.167969 Z M 298.386719 223.277344 " transform="matrix(1,0,0,1,-74,-13)"/>
<path style="fill-rule:nonzero;fill:rgb(39.99939%,39.99939%,39.99939%);fill-opacity:1;stroke-width:0.03;stroke-linecap:square;stroke-linejoin:miter;stroke:rgb(39.99939%,39.99939%,39.99939%);stroke-opacity:1;stroke-miterlimit:3.239307;" d="M 211.011719 213.378906 L 211.289062 213.078125 L 211.605469 212.949219 L 211.902344 212.910156 L 212.199219 212.929688 L 212.648438 212.980469 L 286.898438 250.988281 L 275.304688 278.949219 L 275.039062 279.492188 L 274.785156 279.773438 L 274.554688 279.949219 L 274.257812 280.011719 L 273.9375 280.011719 L 273.617188 279.992188 L 228.699219 257.3125 L 223.996094 255.179688 L 201.648438 247.890625 L 201.339844 247.449219 L 201.347656 246.820312 Z M 211.011719 213.378906 " transform="matrix(1,0,0,1,-74,-13)"/>
<path style="fill-rule:nonzero;fill:rgb(39.99939%,39.99939%,39.99939%);fill-opacity:1;stroke-width:0.03;stroke-linecap:square;stroke-linejoin:miter;stroke:rgb(39.99939%,39.99939%,39.99939%);stroke-opacity:1;stroke-miterlimit:3.239307;" d="M 195.214844 244.5 L 185.855469 238.113281 L 149.09375 218.90625 L 147.65625 218.015625 L 131.046875 209.339844 L 128.070312 207.605469 L 125.429688 206.074219 L 125.503906 205.398438 L 132.804688 196.097656 L 134.941406 194.269531 L 136.988281 192.675781 L 138.101562 191.824219 L 139.796875 190.695312 L 141.171875 189.917969 L 142.863281 189.097656 L 144.386719 188.480469 L 145.964844 187.949219 L 147.71875 187.484375 L 149.085938 187.210938 L 151.074219 186.933594 L 152.785156 186.816406 L 154.636719 186.8125 L 156.558594 186.9375 L 158.53125 187.167969 L 160.042969 187.417969 L 161.636719 187.757812 L 163.550781 188.269531 L 165.210938 188.808594 L 166.605469 189.332031 L 167.882812 189.875 L 169.644531 190.722656 L 205.148438 208.519531 Z M 195.214844 244.5 " transform="matrix(1,0,0,1,-74,-13)"/>
<path style="fill-rule:nonzero;fill:rgb(39.99939%,39.99939%,39.99939%);fill-opacity:1;stroke-width:0.03;stroke-linecap:square;stroke-linejoin:miter;stroke:rgb(39.99939%,39.99939%,39.99939%);stroke-opacity:1;stroke-miterlimit:3.239307;" d="M 347.007812 277.859375 L 347.660156 276.40625 L 341.871094 274.613281 L 341.542969 274.507812 L 341.390625 274.347656 L 341.457031 274.1875 L 344.027344 274.285156 L 345.726562 274.289062 L 347.425781 274.210938 L 349.117188 274.046875 L 350.800781 273.800781 L 352.46875 273.472656 L 354.113281 273.0625 L 355.734375 272.570312 L 357.328125 272 L 358.886719 271.351562 L 360.410156 270.625 L 361.886719 269.828125 L 363.324219 268.957031 L 364.707031 268.015625 L 366.035156 267.007812 L 367.308594 265.9375 L 368.523438 264.804688 L 369.671875 263.613281 L 370.75 262.367188 L 371.761719 261.070312 L 372.253906 260.308594 L 382.570312 264.746094 L 359.324219 321.023438 L 359.167969 321.332031 L 359.007812 321.527344 L 358.757812 321.570312 L 358.304688 321.570312 L 324.070312 303.894531 L 277.90625 282.242188 L 277.605469 282.03125 L 277.410156 281.816406 L 277.289062 281.5625 L 277.199219 281.3125 L 277.183594 280.992188 L 277.238281 280.625 L 277.363281 280.207031 L 289.535156 252.183594 L 341.007812 276.644531 L 346.402344 279.207031 Z M 347.007812 277.859375 " transform="matrix(1,0,0,1,-74,-13)"/>
<g clip-path="url(#clip37)" clip-rule="nonzero">
<path style=" stroke:none;fill-rule:evenodd;fill:rgb(85.096741%,85.096741%,81.959534%);fill-opacity:0.7;" d="M 283.917969 368 C 283.917969 365.371094 282.871094 362.847656 281.011719 360.988281 C 279.152344 359.128906 276.628906 358.082031 274 358.082031 C 271.371094 358.082031 268.847656 359.128906 266.988281 360.988281 C 265.128906 362.847656 264.082031 365.371094 264.082031 368 C 264.082031 370.628906 265.128906 373.152344 266.988281 375.011719 C 268.847656 376.871094 271.371094 377.917969 274 377.917969 C 276.628906 377.917969 279.152344 376.871094 281.011719 375.011719 C 282.871094 373.152344 283.917969 370.628906 283.917969 368 Z M 283.917969 368 "/>
</g>
<path style=" stroke:none;fill-rule:evenodd;fill:rgb(85.096741%,85.096741%,81.959534%);fill-opacity:0.7;" d="M 206.917969 122 C 206.917969 119.371094 205.871094 116.847656 204.011719 114.988281 C 202.152344 113.128906 199.628906 112.082031 197 112.082031 C 194.371094 112.082031 191.847656 113.128906 189.988281 114.988281 C 188.128906 116.847656 187.082031 119.371094 187.082031 122 C 187.082031 124.628906 188.128906 127.152344 189.988281 129.011719 C 191.847656 130.871094 194.371094 131.917969 197 131.917969 C 199.628906 131.917969 202.152344 130.871094 204.011719 129.011719 C 205.871094 127.152344 206.917969 124.628906 206.917969 122 Z M 206.917969 122 "/>
<path style=" stroke:none;fill-rule:evenodd;fill:rgb(85.096741%,85.096741%,81.959534%);fill-opacity:0.7;" d="M 169.917969 64 C 169.917969 61.371094 168.871094 58.847656 167.011719 56.988281 C 165.152344 55.128906 162.628906 54.082031 160 54.082031 C 157.371094 54.082031 154.847656 55.128906 152.988281 56.988281 C 151.128906 58.847656 150.082031 61.371094 150.082031 64 C 150.082031 66.628906 151.128906 69.152344 152.988281 71.011719 C 154.847656 72.871094 157.371094 73.917969 160 73.917969 C 162.628906 73.917969 165.152344 72.871094 167.011719 71.011719 C 168.871094 69.152344 169.917969 66.628906 169.917969 64 Z M 169.917969 64 "/>
<path style=" stroke:none;fill-rule:evenodd;fill:rgb(85.096741%,85.096741%,81.959534%);fill-opacity:0.7;" d="M 170.917969 63 C 170.917969 60.371094 169.871094 57.847656 168.011719 55.988281 C 166.152344 54.128906 163.628906 53.082031 161 53.082031 C 158.371094 53.082031 155.847656 54.128906 153.988281 55.988281 C 152.128906 57.847656 151.082031 60.371094 151.082031 63 C 151.082031 65.628906 152.128906 68.152344 153.988281 70.011719 C 155.847656 71.871094 158.371094 72.917969 161 72.917969 C 163.628906 72.917969 166.152344 71.871094 168.011719 70.011719 C 169.871094 68.152344 170.917969 65.628906 170.917969 63 Z M 170.917969 63 "/>
<path style=" stroke:none;fill-rule:evenodd;fill:rgb(85.096741%,85.096741%,81.959534%);fill-opacity:0.7;" d="M 314.917969 42 C 314.917969 39.371094 313.871094 36.847656 312.011719 34.988281 C 310.152344 33.128906 307.628906 32.082031 305 32.082031 C 302.371094 32.082031 299.847656 33.128906 297.988281 34.988281 C 296.128906 36.847656 295.082031 39.371094 295.082031 42 C 295.082031 44.628906 296.128906 47.152344 297.988281 49.011719 C 299.847656 50.871094 302.371094 51.917969 305 51.917969 C 307.628906 51.917969 310.152344 50.871094 312.011719 49.011719 C 313.871094 47.152344 314.917969 44.628906 314.917969 42 Z M 314.917969 42 "/>
<path style=" stroke:none;fill-rule:evenodd;fill:rgb(85.096741%,85.096741%,81.959534%);fill-opacity:0.7;" d="M 328.917969 -4 C 328.917969 -6.628906 327.871094 -9.152344 326.011719 -11.011719 C 324.152344 -12.871094 321.628906 -13.917969 319 -13.917969 C 316.371094 -13.917969 313.847656 -12.871094 311.988281 -11.011719 C 310.128906 -9.152344 309.082031 -6.628906 309.082031 -4 C 309.082031 -1.371094 310.128906 1.152344 311.988281 3.011719 C 313.847656 4.871094 316.371094 5.917969 319 5.917969 C 321.628906 5.917969 324.152344 4.871094 326.011719 3.011719 C 327.871094 1.152344 328.917969 -1.371094 328.917969 -4 Z M 328.917969 -4 "/>
<path style="fill-rule:nonzero;fill:rgb(99.998474%,99.998474%,30.587769%);fill-opacity:0.8;stroke-width:0.288;stroke-linecap:square;stroke-linejoin:miter;stroke:rgb(0%,0%,0%);stroke-opacity:0.8;stroke-miterlimit:3.25;" d="M 326.40625 41.75 L 304.933594 78.9375 L 347.875 78.9375 Z M 326.40625 41.75 " transform="matrix(1,0,0,1,-74,-13)"/>
<path style="fill-rule:nonzero;fill:rgb(99.998474%,99.998474%,30.587769%);fill-opacity:0.8;stroke-width:0.288;stroke-linecap:square;stroke-linejoin:miter;stroke:rgb(0%,0%,0%);stroke-opacity:0.8;stroke-miterlimit:3.25;" d="M 53.695312 163.226562 L 32.226562 200.414062 L 75.164062 200.414062 Z M 53.695312 163.226562 " transform="matrix(1,0,0,1,-74,-13)"/>
</g>
</svg>
