<?xml version="1.0" encoding="UTF-8"?>
<svg xmlns="http://www.w3.org/2000/svg" xmlns:xlink="http://www.w3.org/1999/xlink" width="361pt" height="361pt" viewBox="0 0 361 361" version="1.1">
<defs>
<clipPath id="clip1">
  <path d="M 319 37 L 360 37 L 360 123 L 319 123 Z M 319 37 "/>
</clipPath>
<clipPath id="clip2">
  <path d="M 278 144 L 360 144 L 360 246 L 278 246 Z M 278 144 "/>
</clipPath>
<clipPath id="clip3">
  <path d="M 308 359 L 346 359 L 346 360 L 308 360 Z M 308 359 "/>
</clipPath>
<clipPath id="clip4">
  <path d="M 282 335 L 317 335 L 317 360 L 282 360 Z M 282 335 "/>
</clipPath>
<clipPath id="clip5">
  <path d="M 356 336 L 360 336 L 360 358 L 356 358 Z M 356 336 "/>
</clipPath>
<clipPath id="clip6">
  <path d="M 348 327 L 360 327 L 360 347 L 348 347 Z M 348 327 "/>
</clipPath>
<clipPath id="clip7">
  <path d="M 344 295 L 360 295 L 360 328 L 344 328 Z M 344 295 "/>
</clipPath>
<clipPath id="clip8">
  <path d="M 279 36 L 360 36 L 360 142 L 279 142 Z M 279 36 "/>
</clipPath>
<clipPath id="clip9">
  <path d="M 355 241 L 360 241 L 360 249 L 355 249 Z M 355 241 "/>
</clipPath>
<clipPath id="clip10">
  <path d="M 357 93 L 360 93 L 360 167 L 357 167 Z M 357 93 "/>
</clipPath>
<clipPath id="clip11">
  <path d="M 353 214 L 360 214 L 360 225 L 353 225 Z M 353 214 "/>
</clipPath>
<clipPath id="clip12">
  <path d="M 359 227 L 360 227 L 360 242 L 359 242 Z M 359 227 "/>
</clipPath>
<clipPath id="clip13">
  <path d="M 354 249 L 360 249 L 360 267 L 354 267 Z M 354 249 "/>
</clipPath>
<clipPath id="clip14">
  <path d="M 321 336 L 360 336 L 360 360 L 321 360 Z M 321 336 "/>
</clipPath>
<clipPath id="clip15">
  <path d="M 286 0 L 360 0 L 360 31 L 286 31 Z M 286 0 "/>
</clipPath>
<clipPath id="clip16">
  <path d="M 335 0 L 360 0 L 360 77 L 335 77 Z M 335 0 "/>
</clipPath>
<clipPath id="clip17">
  <path d="M 327 31 L 360 31 L 360 65 L 327 65 Z M 327 31 "/>
</clipPath>
</defs>
<g id="surface6573">
<path style="fill-rule:nonzero;fill:rgb(0%,0%,0%);fill-opacity:1;stroke-width:0.03;stroke-linecap:square;stroke-linejoin:miter;stroke:rgb(0%,0%,0%);stroke-opacity:1;stroke-miterlimit:10;" d="M 0 178 L 360 178 L 360 -182 L 0 -182 Z M 0 178 " transform="matrix(1,0,0,1,0,182)"/>
<g clip-path="url(#clip1)" clip-rule="nonzero">
<path style=" stroke:none;fill-rule:nonzero;fill:rgb(39.99939%,39.99939%,39.99939%);fill-opacity:0.3;" d="M 321.96875 37.792969 L 462.171875 103.066406 L 455.425781 122.46875 L 442.878906 116.015625 L 437.765625 113.125 L 437.636719 113.320312 L 371.542969 79.339844 L 353.050781 68.683594 L 341.609375 61.640625 L 331.3125 53.332031 L 323.671875 46.554688 L 321.613281 43.859375 L 320.070312 40.960938 L 319.882812 39.804688 L 320.023438 38.667969 L 320.648438 37.9375 Z M 321.96875 37.792969 "/>
</g>
<g clip-path="url(#clip2)" clip-rule="nonzero">
<path style=" stroke:none;fill-rule:nonzero;fill:rgb(39.99939%,39.99939%,39.99939%);fill-opacity:0.3;" d="M 353.484375 144.257812 L 400.601562 168.328125 L 400.882812 170.210938 L 385.859375 203.957031 L 373.429688 198.09375 L 365.648438 210.730469 L 353.167969 218.066406 L 350.042969 214.6875 L 348.707031 215.671875 L 347.371094 216.660156 L 354.65625 223.28125 L 357.929688 227.507812 L 358.671875 230.75 L 357.785156 237.09375 L 356.746094 239.632812 L 345.152344 242.175781 L 343.8125 233.433594 L 342.175781 229.914062 L 341.582031 230.40625 L 340.984375 230.898438 L 342.324219 233.71875 L 343.519531 242.597656 L 336.679688 243.382812 L 333.105469 243.792969 L 322.636719 245.832031 L 321.40625 228.652344 L 319.386719 228.160156 L 319.316406 227.480469 L 278.386719 217.992188 L 283.054688 213.898438 L 300.863281 197.476562 L 304.238281 201.089844 L 304.71875 200.679688 L 305.210938 200.160156 L 301.820312 196.515625 L 305.066406 194.085938 L 307.488281 191.878906 L 317.242188 197.34375 L 321.234375 213.230469 L 311.34375 213.105469 L 311.589844 214.550781 L 311.757812 215.578125 L 323.5625 215.5 L 333.457031 215.4375 L 332.746094 214.164062 L 332.21875 213.222656 L 324.722656 213.082031 L 319.578125 197.472656 L 322.460938 195.90625 L 344.71875 214.390625 L 345.207031 213.925781 L 345.816406 213.347656 L 323.96875 194.214844 L 324.28125 192.226562 L 353.09375 209.699219 L 353.929688 209.027344 L 354.878906 208.265625 L 325.480469 191.21875 L 344.019531 168.902344 L 364.074219 180.355469 L 365.035156 179.050781 L 345.535156 167.449219 L 349.175781 162.628906 L 351.105469 158.660156 L 352.390625 154.28125 L 366.300781 162.496094 L 366.382812 161.621094 L 366.460938 160.742188 L 352.71875 153.078125 L 353.035156 149.394531 L 353.355469 146.648438 L 353.429688 145.292969 Z M 353.484375 144.257812 "/>
</g>
<path style=" stroke:none;fill-rule:nonzero;fill:rgb(39.99939%,39.99939%,39.99939%);fill-opacity:0.3;" d="M 292.835938 332.175781 L 292.828125 332.179688 Z M 292.835938 332.175781 "/>
<path style=" stroke:none;fill-rule:nonzero;fill:rgb(39.99939%,39.99939%,39.99939%);fill-opacity:0.3;" d="M 327.195312 317.011719 L 343.472656 338.5 L 330.253906 347.339844 L 310.21875 327.59375 Z M 327.195312 317.011719 "/>
<g clip-path="url(#clip3)" clip-rule="nonzero">
<path style=" stroke:none;fill-rule:nonzero;fill:rgb(39.99939%,39.99939%,39.99939%);fill-opacity:0.3;" d="M 308.863281 365.054688 L 317.878906 359.257812 L 345.21875 382.21875 L 330.292969 389.652344 L 326.375 385.175781 L 311.46875 367.371094 Z M 308.863281 365.054688 "/>
</g>
<path style=" stroke:none;fill-rule:nonzero;fill:rgb(39.99939%,39.99939%,39.99939%);fill-opacity:0.3;" d="M 307.121094 329.527344 L 326.953125 349.546875 L 318.386719 355.277344 L 296.519531 336.105469 Z M 307.121094 329.527344 "/>
<g clip-path="url(#clip4)" clip-rule="nonzero">
<path style=" stroke:none;fill-rule:nonzero;fill:rgb(39.99939%,39.99939%,39.99939%);fill-opacity:0.3;" d="M 292.121094 335.558594 L 316.671875 356.839844 L 306.699219 363.097656 L 282.484375 340.871094 L 283.027344 340.414062 Z M 292.121094 335.558594 "/>
</g>
<path style=" stroke:none;fill-rule:nonzero;fill:rgb(39.99939%,39.99939%,39.99939%);fill-opacity:0.3;" d="M 342.335938 307.570312 L 349.976562 318.121094 L 337.371094 326.511719 L 329.210938 315.753906 Z M 342.335938 307.570312 "/>
<g clip-path="url(#clip5)" clip-rule="nonzero">
<path style=" stroke:none;fill-rule:nonzero;fill:rgb(39.99939%,39.99939%,39.99939%);fill-opacity:0.3;" d="M 356.394531 347.855469 L 371.679688 336.117188 L 379.929688 345.074219 L 364.300781 357.464844 Z M 356.394531 347.855469 "/>
</g>
<g clip-path="url(#clip6)" clip-rule="nonzero">
<path style=" stroke:none;fill-rule:nonzero;fill:rgb(39.99939%,39.99939%,39.99939%);fill-opacity:0.3;" d="M 348.660156 339.0625 L 365.316406 327.976562 L 371.164062 334.652344 L 355.019531 346.878906 Z M 348.660156 339.0625 "/>
</g>
<g clip-path="url(#clip7)" clip-rule="nonzero">
<path style=" stroke:none;fill-rule:nonzero;fill:rgb(39.99939%,39.99939%,39.99939%);fill-opacity:0.3;" d="M 344.953125 305.9375 L 361.804688 295.429688 L 376.261719 316.570312 L 360.308594 327.242188 Z M 344.953125 305.9375 "/>
</g>
<path style=" stroke:none;fill-rule:nonzero;fill:rgb(39.99939%,39.99939%,39.99939%);fill-opacity:0.3;" d="M 338.257812 327.472656 L 351.347656 319.242188 L 358.324219 328.570312 L 345.460938 337.171875 Z M 338.257812 327.472656 "/>
<path style=" stroke:none;fill-rule:nonzero;fill:rgb(39.99939%,39.99939%,39.99939%);fill-opacity:0.3;" d="M 255.882812 137.847656 L 271.015625 154.210938 L 255.332031 176.828125 L 224.457031 166.074219 L 240.09375 150.867188 L 242.320312 149.152344 Z M 255.882812 137.847656 "/>
<path style=" stroke:none;fill-rule:nonzero;fill:rgb(39.99939%,39.99939%,39.99939%);fill-opacity:0.3;" d="M 222.648438 168.949219 L 253.746094 179.476562 L 254.378906 179.691406 L 265.832031 223.472656 L 255.210938 228.851562 L 249.359375 198.425781 L 256.398438 192.628906 L 243.148438 186.832031 L 232.382812 183.105469 L 229.484375 183.105469 L 223.269531 185.175781 L 223.109375 184.484375 Z M 222.648438 168.949219 "/>
<path style=" stroke:none;fill-rule:nonzero;fill:rgb(39.99939%,39.99939%,39.99939%);fill-opacity:0.3;" d="M 277.75 90.34375 L 296.046875 101.328125 L 284.953125 119.453125 L 286.09375 119.917969 L 287.238281 120.382812 L 298.171875 102.878906 L 313.035156 111.542969 L 298.511719 131.523438 L 289.699219 140.820312 L 268.953125 127.046875 L 274.828125 117.753906 L 272.375 116.050781 L 261.441406 131.078125 L 262.410156 132.066406 L 263.566406 133.246094 L 267.320312 128.597656 L 288.394531 142.371094 L 276.96875 154.609375 L 259.429688 134.894531 L 259.710938 134.660156 L 258.503906 133.855469 L 251.113281 125.546875 Z M 277.75 90.34375 "/>
<g clip-path="url(#clip8)" clip-rule="nonzero">
<path style=" stroke:none;fill-rule:nonzero;fill:rgb(39.99939%,39.99939%,39.99939%);fill-opacity:0.3;" d="M 311.089844 36.558594 L 313.84375 36.945312 L 315.90625 38.382812 L 317.007812 41.25 L 319.210938 45.296875 L 322.792969 49.339844 L 334.21875 60.296875 L 353.671875 72.726562 L 389.195312 92.238281 L 355.507812 141.449219 L 348.621094 129.316406 L 335.957031 120.839844 L 319.851562 111.453125 L 294.457031 96.300781 L 279.589844 86.910156 L 282.582031 80.820312 L 291.558594 65.71875 L 309.175781 76.414062 L 310.277344 74.585938 L 292.796875 63.632812 L 303.128906 43.585938 L 303.601562 42.734375 L 305.875 38.867188 L 307.511719 37.210938 Z M 311.089844 36.558594 "/>
</g>
<path style=" stroke:none;fill-rule:nonzero;fill:rgb(39.99939%,39.99939%,39.99939%);fill-opacity:0.3;" d="M 310.484375 33.996094 L 309.582031 34.222656 L 309.8125 34.039062 Z M 310.484375 33.996094 "/>
<path style=" stroke:none;fill-rule:nonzero;fill:rgb(39.99939%,39.99939%,39.99939%);fill-opacity:0.3;" d="M 339.847656 246.191406 L 353.488281 243.277344 L 354.351562 249.953125 L 340.871094 252.671875 Z M 339.847656 246.191406 "/>
<g clip-path="url(#clip9)" clip-rule="nonzero">
<path style=" stroke:none;fill-rule:nonzero;fill:rgb(39.99939%,39.99939%,39.99939%);fill-opacity:0.3;" d="M 357.242188 241.125 L 369.289062 245.199219 L 369.058594 246.3125 L 355.523438 248.691406 Z M 357.242188 241.125 "/>
</g>
<g clip-path="url(#clip10)" clip-rule="nonzero">
<path style=" stroke:none;fill-rule:nonzero;fill:rgb(39.99939%,39.99939%,39.99939%);fill-opacity:0.3;" d="M 390.976562 93.5625 L 432.601562 114.257812 L 434.0625 115.988281 L 434.429688 118.066406 L 434.429688 118.191406 L 419.871094 140.292969 L 418.367188 141.285156 L 415.628906 143.363281 L 413.621094 145.097656 L 403.035156 166.058594 L 357.132812 142.382812 Z M 390.976562 93.5625 "/>
</g>
<g clip-path="url(#clip11)" clip-rule="nonzero">
<path style=" stroke:none;fill-rule:nonzero;fill:rgb(39.99939%,39.99939%,39.99939%);fill-opacity:0.3;" d="M 353.761719 219.335938 L 363.570312 214.257812 L 364.3125 214.960938 L 361.496094 224.96875 L 358.820312 224.40625 Z M 353.761719 219.335938 "/>
</g>
<g clip-path="url(#clip12)" clip-rule="nonzero">
<path style=" stroke:none;fill-rule:nonzero;fill:rgb(39.99939%,39.99939%,39.99939%);fill-opacity:0.3;" d="M 362.03125 227.351562 L 374.425781 230.082031 L 371.3125 241.074219 L 359.121094 238.542969 Z M 362.03125 227.351562 "/>
</g>
<path style=" stroke:none;fill-rule:nonzero;fill:rgb(39.99939%,39.99939%,39.99939%);fill-opacity:0.3;" d="M 259.441406 177 L 264.429688 172.09375 L 274.046875 186.457031 L 264.257812 198.203125 Z M 259.441406 177 "/>
<path style=" stroke:none;fill-rule:nonzero;fill:rgb(39.99939%,39.99939%,39.99939%);fill-opacity:0.3;" d="M 316.167969 113.140625 L 346.785156 131.640625 L 349.910156 136.378906 L 351.320312 140.523438 L 351.101562 148.074219 L 349.816406 154.691406 L 346.828125 162.292969 L 342.890625 167.835938 L 318.230469 195.835938 L 305.132812 188.714844 L 280.398438 155.257812 L 306.640625 127.0625 L 335.542969 142.894531 L 336.113281 142.230469 L 336.945312 141.265625 L 308.046875 124.691406 Z M 316.167969 113.140625 "/>
<path style=" stroke:none;fill-rule:nonzero;fill:rgb(39.99939%,39.99939%,39.99939%);fill-opacity:0.3;" d="M 273.828125 160.054688 L 278.507812 156.148438 L 305.597656 191.238281 L 300.058594 195.308594 Z M 273.828125 160.054688 "/>
<path style=" stroke:none;fill-rule:nonzero;fill:rgb(39.99939%,39.99939%,39.99939%);fill-opacity:0.3;" d="M 265.277344 169.25 L 271.996094 162.460938 L 298.105469 197.34375 L 293.035156 201.855469 L 286.375 194.042969 L 284.96875 195.125 L 283.839844 196 L 291.453125 203.960938 L 269.394531 221.558594 L 264.152344 200.96875 L 276.859375 186.679688 Z M 265.277344 169.25 "/>
<g clip-path="url(#clip13)" clip-rule="nonzero">
<path style=" stroke:none;fill-rule:nonzero;fill:rgb(39.99939%,39.99939%,39.99939%);fill-opacity:0.3;" d="M 354.976562 250.992188 L 366.164062 249.875 L 364.292969 265.085938 L 356.707031 266.570312 Z M 354.976562 250.992188 "/>
</g>
<path style=" stroke:none;fill-rule:nonzero;fill:rgb(39.99939%,39.99939%,39.99939%);fill-opacity:0.3;" d="M 341.125 254.230469 L 352.554688 252.179688 L 355.066406 266.792969 L 343.621094 269.566406 Z M 341.125 254.230469 "/>
<g clip-path="url(#clip14)" clip-rule="nonzero">
<path style=" stroke:none;fill-rule:nonzero;fill:rgb(39.99939%,39.99939%,39.99939%);fill-opacity:0.3;" d="M 388.910156 358.164062 L 387.207031 356.699219 L 357.789062 377.621094 L 358.519531 378.421875 L 359.253906 379.226562 L 369.625 371.898438 L 372.949219 376.054688 L 363.851562 382.546875 L 364.503906 383.339844 L 365.152344 384.132812 L 374.1875 378.058594 L 379.035156 383.441406 L 361.988281 394.601562 L 321.527344 357.972656 L 329.769531 352.105469 L 354.519531 376.042969 L 355.808594 375.066406 L 357.09375 374.085938 L 333.03125 349.660156 L 346.597656 340.691406 L 365.507812 363.167969 L 366.625 362.269531 L 367.742188 361.375 L 365.332031 358.441406 L 394.699219 336.761719 L 403.996094 344.398438 Z M 388.910156 358.164062 "/>
</g>
<path style=" stroke:none;fill-rule:nonzero;fill:rgb(39.99939%,39.99939%,39.99939%);fill-opacity:0.3;" d="M 322.636719 245.832031 L 321.246094 246.101562 L 319.386719 228.160156 L 321.40625 228.652344 Z M 322.636719 245.832031 "/>
<path style=" stroke:none;fill-rule:nonzero;fill:rgb(39.99939%,39.99939%,39.99939%);fill-opacity:0.3;" d="M 271.347656 267.285156 L 275.621094 264.621094 L 272.960938 266.75 Z M 271.347656 267.285156 "/>
<path style=" stroke:none;fill-rule:nonzero;fill:rgb(39.99939%,39.99939%,39.99939%);fill-opacity:0.3;" d="M 254.445312 231.6875 L 266.179688 226.269531 L 276.183594 262.339844 L 264.179688 269.445312 Z M 254.445312 231.6875 "/>
<path style=" stroke:none;fill-rule:nonzero;fill:rgb(39.99939%,39.99939%,39.99939%);fill-opacity:0.3;" d="M 249.160156 234.445312 L 253.019531 232.589844 L 262.175781 270.089844 L 258.886719 270.9375 L 250.027344 272.578125 L 241.179688 238.496094 L 242.734375 238.179688 Z M 249.160156 234.445312 "/>
<path style=" stroke:none;fill-rule:nonzero;fill:rgb(39.99939%,39.99939%,39.99939%);fill-opacity:0.3;" d="M 228.835938 241.796875 L 238.914062 239.0625 L 247.492188 273.480469 L 236.25 275.425781 L 230.3125 247.703125 Z M 228.835938 241.796875 "/>
<path style=" stroke:none;fill-rule:nonzero;fill:rgb(39.99939%,39.99939%,39.99939%);fill-opacity:0.3;" d="M 268.421875 225.03125 L 276.503906 220.066406 L 285.539062 221.867188 L 317.121094 229.695312 L 318.804688 245.902344 L 304.097656 248.917969 L 291.578125 253.28125 L 285.066406 231.488281 L 283.523438 232.085938 L 282.660156 232.421875 L 288.726562 254.035156 L 278.269531 261.105469 Z M 268.421875 225.03125 "/>
<path style=" stroke:none;fill-rule:nonzero;fill:rgb(39.99939%,39.99939%,39.99939%);fill-opacity:0.3;" d="M -7.699219 253.753906 L 0.925781 259.464844 L -21.386719 294.476562 L -48.640625 276.765625 L -26.484375 241.152344 L -11.75 250.609375 L -23.148438 269.605469 L -20.839844 270.921875 L -18.527344 272.238281 Z M -7.699219 253.753906 "/>
<path style=" stroke:none;fill-rule:nonzero;fill:rgb(39.99939%,39.99939%,39.99939%);fill-opacity:0.3;" d="M 62.214844 157.851562 L 62.375 158.316406 L 35.746094 167.363281 Z M 62.214844 157.851562 "/>
<path style=" stroke:none;fill-rule:nonzero;fill:rgb(39.99939%,39.99939%,39.99939%);fill-opacity:0.3;" d="M 1.644531 270.265625 L 1.15625 269.117188 L 0.722656 266.046875 L 1.429688 262.867188 L 3.082031 260.246094 L 3.742188 259.496094 L 1.324219 266.75 Z M 1.644531 270.265625 "/>
<path style=" stroke:none;fill-rule:nonzero;fill:rgb(39.99939%,39.99939%,39.99939%);fill-opacity:0.3;" d="M 80.816406 195.964844 L 84.027344 192.808594 L 84.734375 192.585938 L 85.105469 192.832031 Z M 80.816406 195.964844 "/>
<path style=" stroke:none;fill-rule:nonzero;fill:rgb(39.99939%,39.99939%,39.99939%);fill-opacity:0.3;" d="M 48.441406 298.980469 L 47.734375 298.84375 L 45.890625 297.066406 Z M 48.441406 298.980469 "/>
<path style=" stroke:none;fill-rule:nonzero;fill:rgb(39.99939%,39.99939%,39.99939%);fill-opacity:0.3;" d="M 42.539062 294.539062 L 35.113281 289.417969 L 27.5 284.746094 L 24.210938 283.355469 L 29.480469 284.554688 Z M 42.539062 294.539062 "/>
<path style=" stroke:none;fill-rule:nonzero;fill:rgb(39.99939%,39.99939%,39.99939%);fill-opacity:0.3;" d="M 74.457031 200.566406 L 74.769531 200.386719 L 74.617188 200.496094 Z M 74.457031 200.566406 "/>
<path style=" stroke:none;fill-rule:nonzero;fill:rgb(39.99939%,39.99939%,39.99939%);fill-opacity:0.3;" d="M 19.730469 229.097656 L 11.585938 231.160156 L 1.832031 233.769531 L -10.421875 186.652344 L 67.148438 159.644531 L 66.027344 156.480469 L 67.992188 155.777344 L 86.011719 187.984375 L 83.640625 190.644531 L 81.007812 192.476562 L 71.867188 199.078125 L 48.183594 211.902344 L 38.4375 219.03125 L 24.46875 232.257812 Z M 19.730469 229.097656 "/>
<path style=" stroke:none;fill-rule:nonzero;fill:rgb(39.99939%,39.99939%,39.99939%);fill-opacity:0.3;" d="M -13.457031 325.292969 L -5.503906 306.609375 L -19.402344 296.5625 L -2.238281 269.046875 L -0.929688 271.53125 L 0.90625 275.378906 L 3.527344 278.359375 L 6.8125 280.703125 L 11.386719 282.578125 L 15.839844 283.570312 L 18.984375 284.5625 L 21.734375 285.800781 L 25.882812 288.074219 L 29.199219 289.773438 L 31.953125 291.386719 L 39.578125 296.246094 L 45.082031 300.339844 L 51.496094 307.453125 L 44.804688 313.539062 L 32.796875 317.265625 L 31.554688 318.921875 L 28.652344 319.75 L 26.167969 320.578125 L 22.855469 321.40625 L 18.714844 321.40625 L 14.988281 321.820312 L 10.019531 323.0625 L 10.019531 325.132812 L 5.878906 325.546875 L -11.925781 331.347656 L -12.753906 325.546875 Z M -13.457031 325.292969 "/>
<path style=" stroke:none;fill-rule:nonzero;fill:rgb(39.99939%,39.99939%,39.99939%);fill-opacity:0.3;" d="M 13.113281 244.980469 L 2.546875 257.234375 L -43.28125 226.027344 L -43.453125 221.476562 L -6.175781 212.296875 L -0.0976562 236.765625 L 19.730469 232.09375 L 22.539062 234.921875 Z M 13.113281 244.980469 "/>
<path style=" stroke:none;fill-rule:nonzero;fill:rgb(39.99939%,39.99939%,39.99939%);fill-opacity:0.3;" d="M 95.296875 295.105469 L 135.023438 295.042969 L 129.273438 308.570312 L 124.304688 303.601562 L 116.4375 299.460938 L 104.015625 296.976562 L 97.390625 295.734375 Z M 95.296875 295.105469 "/>
<path style=" stroke:none;fill-rule:nonzero;fill:rgb(39.99939%,39.99939%,39.99939%);fill-opacity:0.3;" d="M 158.242188 136.277344 L 161.191406 122.078125 L 180.78125 124.875 L 177.832031 139.769531 Z M 158.242188 136.277344 "/>
<path style=" stroke:none;fill-rule:nonzero;fill:rgb(39.99939%,39.99939%,39.99939%);fill-opacity:0.3;" d="M 88.957031 197.410156 L 88.320312 190.1875 L 92.773438 183.859375 L 95.765625 178.621094 L 97.339844 173.34375 L 98.285156 168.253906 L 111.765625 165.402344 L 116.5 170.039062 L 128.214844 179.203125 L 135.984375 185.484375 Z M 88.957031 197.410156 "/>
<path style=" stroke:none;fill-rule:nonzero;fill:rgb(39.99939%,39.99939%,39.99939%);fill-opacity:0.3;" d="M 157.875 138.378906 L 177.464844 142.050781 L 167.695312 188.492188 L 155.128906 188.5 L 145.707031 187.101562 Z M 157.875 138.378906 "/>
<path style=" stroke:none;fill-rule:nonzero;fill:rgb(39.99939%,39.99939%,39.99939%);fill-opacity:0.3;" d="M 182.074219 124.875 L 188.171875 125.570312 L 191.691406 138.710938 L 201.332031 196.710938 L 179.523438 190.765625 L 170.28125 188.492188 Z M 182.074219 124.875 "/>
<path style=" stroke:none;fill-rule:nonzero;fill:rgb(39.99939%,39.99939%,39.99939%);fill-opacity:0.3;" d="M 137.761719 134.066406 L 155.5625 138.136719 L 143.4375 186.777344 L 136.980469 184.183594 L 128.566406 177.511719 L 135.796875 166.195312 L 134.820312 165.640625 L 133.839844 165.082031 L 126.609375 176.214844 L 122.5 172.136719 L 125.230469 157.855469 L 123.472656 157.667969 L 120.9375 170.28125 L 113.695312 163.054688 L 115.257812 157.488281 L 117.792969 148.957031 L 120.921875 144.6875 L 124.246094 141.347656 L 128.546875 141.71875 L 128.351562 145.398438 L 129.382812 145.445312 L 130.40625 145.492188 L 131.3125 140.5625 L 133.265625 133.328125 Z M 137.761719 134.066406 "/>
<path style=" stroke:none;fill-rule:nonzero;fill:rgb(39.99939%,39.99939%,39.99939%);fill-opacity:0.3;" d="M 108.675781 75.914062 L 110.347656 76.921875 L 102.140625 113.957031 L 97.960938 133.113281 L 85.84375 125.03125 L 76.265625 117.941406 L 63.84375 108.441406 L 71.914062 103.757812 L 81.785156 98.503906 L 91.054688 91.6875 L 96.289062 87.289062 Z M 108.675781 75.914062 "/>
<path style=" stroke:none;fill-rule:nonzero;fill:rgb(39.99939%,39.99939%,39.99939%);fill-opacity:0.3;" d="M 75.453125 61.644531 L 64.667969 57.613281 L 66.75 51.429688 L 73.789062 54.328125 Z M 75.453125 61.644531 "/>
<path style=" stroke:none;fill-rule:nonzero;fill:rgb(39.99939%,39.99939%,39.99939%);fill-opacity:0.3;" d="M 64.121094 59.242188 L 81.816406 65.863281 L 87.039062 67.992188 L 90.765625 69.234375 L 91.066406 69.324219 L 106.980469 75.277344 L 97.339844 83.3125 L 88.21875 90.980469 L 80.144531 96.941406 L 62.800781 106.1875 L 54.488281 100.160156 L 51.429688 96.976562 Z M 64.121094 59.242188 "/>
<path style=" stroke:none;fill-rule:nonzero;fill:rgb(39.99939%,39.99939%,39.99939%);fill-opacity:0.3;" d="M 201.355469 180.375 L 197.644531 163.273438 L 197.925781 163.230469 L 198.011719 163.644531 L 216.644531 160.332031 L 226.535156 160.332031 L 220.878906 165.699219 L 220.882812 167.933594 L 217.222656 168.226562 L 218.082031 178.503906 Z M 201.355469 180.375 "/>
<path style=" stroke:none;fill-rule:nonzero;fill:rgb(39.99939%,39.99939%,39.99939%);fill-opacity:0.3;" d="M 197.625 161.824219 L 197.25 161.886719 L 196.40625 156.097656 Z M 197.625 161.824219 "/>
<path style=" stroke:none;fill-rule:nonzero;fill:rgb(39.99939%,39.99939%,39.99939%);fill-opacity:0.3;" d="M 255.210938 228.851562 L 254.15625 229.386719 L 248.703125 208.75 L 247.4375 208.953125 L 246.132812 209.164062 L 252.203125 230.191406 L 240.179688 236.164062 L 231.898438 203.496094 L 224.605469 203.199219 L 223.316406 189.027344 L 238.058594 189.46875 L 238.242188 187.789062 L 238.371094 186.613281 L 223.15625 186.019531 L 223.109375 184.484375 L 223.269531 185.175781 L 229.484375 183.105469 L 232.382812 183.105469 L 243.148438 186.832031 L 256.398438 192.628906 L 249.359375 198.425781 Z M 255.210938 228.851562 "/>
<path style=" stroke:none;fill-rule:nonzero;fill:rgb(39.99939%,39.99939%,39.99939%);fill-opacity:0.3;" d="M 224.6875 204.511719 L 230.414062 205.207031 L 238.191406 236.746094 L 226.183594 239.90625 L 220.628906 217.304688 Z M 224.6875 204.511719 "/>
<path style=" stroke:none;fill-rule:nonzero;fill:rgb(39.99939%,39.99939%,39.99939%);fill-opacity:0.3;" d="M 201.933594 182.367188 L 218.378906 180.257812 L 223.011719 203.035156 L 204.898438 198.3125 Z M 201.933594 182.367188 "/>
<path style=" stroke:none;fill-rule:nonzero;fill:rgb(39.99939%,39.99939%,39.99939%);fill-opacity:0.3;" d="M 136.363281 288.871094 L 136.269531 292.109375 L 135.882812 293.027344 L 124.824219 292.632812 L 125.101562 290.722656 L 90.230469 290.75 L 96.375 264.242188 L 136.710938 265.496094 Z M 136.363281 288.871094 "/>
<path style=" stroke:none;fill-rule:nonzero;fill:rgb(39.99939%,39.99939%,39.99939%);fill-opacity:0.3;" d="M 169.652344 252.417969 L 181.3125 252.9375 L 170.269531 252.671875 L 169.511719 257.78125 Z M 169.652344 252.417969 "/>
<path style=" stroke:none;fill-rule:nonzero;fill:rgb(39.99939%,39.99939%,39.99939%);fill-opacity:0.3;" d="M 169.957031 231.386719 L 203.863281 232.753906 L 200.679688 251.804688 L 169.652344 251.070312 Z M 169.957031 231.386719 "/>
<path style=" stroke:none;fill-rule:nonzero;fill:rgb(39.99939%,39.99939%,39.99939%);fill-opacity:0.3;" d="M 151.59375 250.929688 L 151.371094 262.996094 L 96.332031 261.804688 L 94.695312 250.367188 Z M 151.59375 250.929688 "/>
<path style=" stroke:none;fill-rule:nonzero;fill:rgb(39.99939%,39.99939%,39.99939%);fill-opacity:0.3;" d="M 241.132812 238.308594 L 249.160156 234.445312 L 242.734375 238.179688 L 241.179688 238.496094 Z M 241.132812 238.308594 "/>
<path style=" stroke:none;fill-rule:nonzero;fill:rgb(39.99939%,39.99939%,39.99939%);fill-opacity:0.3;" d="M 61.839844 141.761719 L 63.839844 139.863281 L 65.710938 136.066406 L 66.894531 130.683594 L 66.917969 129.757812 L 67.578125 125.132812 L 66.335938 120.164062 L 64.378906 112.734375 L 70.601562 117.425781 L 77.324219 122.136719 L 88.988281 130.703125 L 97.074219 136.554688 L 94.851562 155.523438 L 95.207031 162.847656 L 94.859375 168.003906 L 93.632812 173.664062 L 92.054688 178.160156 L 90.304688 181.820312 L 87.496094 186.316406 L 86.011719 187.984375 L 67.992188 155.777344 Z M 61.839844 141.761719 "/>
<path style=" stroke:none;fill-rule:nonzero;fill:rgb(39.99939%,39.99939%,39.99939%);fill-opacity:0.3;" d="M 154.726562 207.667969 L 167.894531 206.914062 L 167.292969 263.382812 L 153.335938 262.941406 Z M 154.726562 207.667969 "/>
<path style=" stroke:none;fill-rule:nonzero;fill:rgb(39.99939%,39.99939%,39.99939%);fill-opacity:0.3;" d="M 185.417969 194.714844 L 202.421875 199.878906 L 203.695312 214.195312 L 198.367188 214.199219 L 196.589844 212.636719 L 194.433594 212.15625 L 192.785156 212.277344 L 190.882812 212.878906 L 185.425781 213.484375 Z M 185.417969 194.714844 "/>
<path style=" stroke:none;fill-rule:nonzero;fill:rgb(39.99939%,39.99939%,39.99939%);fill-opacity:0.3;" d="M 170.824219 190.992188 L 183.511719 194.59375 L 183.398438 214.207031 L 170.074219 214.09375 Z M 170.824219 190.992188 "/>
<path style=" stroke:none;fill-rule:nonzero;fill:rgb(39.99939%,39.99939%,39.99939%);fill-opacity:0.3;" d="M 146.496094 190.453125 L 152.671875 190.835938 L 153.222656 200.347656 L 142.210938 202.421875 L 141.554688 198.90625 Z M 146.496094 190.453125 "/>
<path style=" stroke:none;fill-rule:nonzero;fill:rgb(39.99939%,39.99939%,39.99939%);fill-opacity:0.3;" d="M 203.0625 253.460938 L 207.511719 228.335938 L 206.710938 228.273438 L 205.617188 228.1875 L 205.144531 230.835938 L 170.515625 229.484375 L 170.191406 216.382812 L 185.488281 216.339844 L 188.449219 215.417969 L 191.070312 214.554688 L 193.007812 214.28125 L 195.398438 214.605469 L 197.792969 215.683594 L 204.078125 216.601562 L 204.4375 224.472656 L 206.367188 224.300781 L 205.429688 200.722656 L 221.859375 205.214844 L 218.554688 216.140625 L 222.5 236.554688 L 223.609375 240.296875 L 215.089844 241.199219 L 214.996094 241.855469 L 207.949219 232.796875 L 204.636719 253.5 Z M 203.0625 253.460938 "/>
<path style=" stroke:none;fill-rule:nonzero;fill:rgb(39.99939%,39.99939%,39.99939%);fill-opacity:0.3;" d="M 216.125 243.304688 L 221.757812 242.742188 L 216.644531 243.976562 Z M 216.125 243.304688 "/>
<path style=" stroke:none;fill-rule:nonzero;fill:rgb(39.99939%,39.99939%,39.99939%);fill-opacity:0.3;" d="M 88.417969 201.382812 L 129.011719 189.605469 L 134.464844 188.363281 L 144.277344 189.289062 L 144.949219 190.28125 L 137.523438 204.078125 L 131.441406 205.191406 L 131.59375 205.878906 L 131.746094 206.5625 L 155.40625 202.3125 L 154.527344 191.457031 L 167.390625 191.242188 L 167.835938 205.613281 L 153.445312 206.550781 L 153.085938 219.03125 L 131.164062 221.566406 L 131.222656 222.390625 L 131.269531 223.023438 L 152.882812 220.679688 L 152.375 231.171875 L 130.660156 231.378906 L 130.945312 232.46875 L 131.070312 232.933594 L 152.273438 232.726562 L 151.605469 248.101562 L 94.308594 247.667969 L 93.058594 238.902344 L 126.195312 236.390625 L 126.242188 235.574219 L 126.304688 234.425781 L 92.78125 236.964844 L 92.007812 231.554688 L 91.839844 230.285156 L 120.195312 228.328125 L 120.078125 227.210938 L 119.976562 226.261719 L 91.539062 227.992188 L 90.203125 217.847656 L 89.867188 214.882812 L 113.960938 210.105469 L 113.675781 209.355469 L 113.414062 208.660156 L 89.671875 213.164062 L 89.472656 211.402344 Z M 88.417969 201.382812 "/>
<path style=" stroke:none;fill-rule:nonzero;fill:rgb(39.99939%,39.99939%,39.99939%);fill-opacity:0.3;" d="M 192.269531 133.425781 L 190.503906 124.636719 L 190.972656 124.71875 Z M 192.269531 133.425781 "/>
<path style=" stroke:none;fill-rule:nonzero;fill:rgb(39.99939%,39.99939%,39.99939%);fill-opacity:0.3;" d="M 188.695312 124.304688 L 162.980469 120.207031 L 161.007812 119.273438 L 141.257812 94.921875 L 135.671875 87.917969 L 131.726562 83.871094 L 129.839844 82.269531 L 131.347656 82.898438 L 135.074219 84.96875 L 138.800781 88.28125 L 161.988281 118.507812 L 186.417969 123.890625 Z M 188.695312 124.304688 "/>
<path style=" stroke:none;fill-rule:nonzero;fill:rgb(39.99939%,39.99939%,39.99939%);fill-opacity:0.3;" d="M 123.007812 79.667969 L 118.578125 78.828125 L 115.304688 77.804688 L 113.988281 76.5625 L 113.988281 76.550781 L 114.367188 76.6875 Z M 123.007812 79.667969 "/>
<path style=" stroke:none;fill-rule:nonzero;fill:rgb(39.99939%,39.99939%,39.99939%);fill-opacity:0.3;" d="M 111.542969 80.773438 L 128.445312 85.117188 L 158.488281 120.0625 L 146.238281 119 L 146.097656 119.539062 L 145.957031 120.066406 L 158.769531 121.53125 L 155.5625 135.355469 L 131.503906 129.988281 L 128.769531 138.523438 L 121.507812 140.421875 L 117.402344 144.132812 L 113.492188 150.257812 L 111.539062 156.75 L 109.785156 163.835938 L 98.441406 166.066406 L 98.824219 151.042969 L 100.578125 137.875 L 102.589844 128.847656 Z M 111.542969 80.773438 "/>
<g clip-path="url(#clip15)" clip-rule="nonzero">
<path style=" stroke:none;fill-rule:nonzero;fill:rgb(39.99939%,39.99939%,39.99939%);fill-opacity:0.3;" d="M 317.246094 -63.199219 L 362.140625 -40.585938 L 349.589844 -10.203125 L 328.890625 -18.296875 L 327.921875 -16.835938 L 348.863281 -8.828125 L 333.078125 30.199219 L 291.484375 4.636719 L 288.304688 1.738281 L 286.957031 -0.578125 L 286.710938 -2.546875 L 286.464844 -4.984375 L 287.808594 -9.535156 Z M 317.246094 -63.199219 "/>
</g>
<g clip-path="url(#clip16)" clip-rule="nonzero">
<path style=" stroke:none;fill-rule:nonzero;fill:rgb(39.99939%,39.99939%,39.99939%);fill-opacity:0.3;" d="M 439.425781 -7.566406 L 434.191406 5.984375 L 442.179688 8.347656 L 435.125 27.285156 L 421.402344 22.726562 L 415.433594 37.882812 L 447.929688 52.550781 L 435.191406 76.730469 L 335.769531 31.9375 L 364.339844 -39.660156 Z M 439.425781 -7.566406 "/>
</g>
<path style=" stroke:none;fill-rule:nonzero;fill:rgb(39.99939%,39.99939%,39.99939%);fill-opacity:0.3;" d="M -0.0273438 17.667969 L -1.53125 17.859375 L -0.683594 11.554688 L -0.207031 8.375 L -0.472656 6.105469 L -6.1875 -25.023438 L -7.15625 -28.761719 L -7.3125 -32.511719 L -7.890625 -46.644531 L -7.722656 -46.6875 L -4.886719 -26.832031 L 2.566406 6.707031 Z M -0.0273438 17.667969 "/>
<path style=" stroke:none;fill-rule:nonzero;fill:rgb(39.99939%,39.99939%,39.99939%);fill-opacity:0.3;" d="M 32.273438 24.09375 L 74.132812 17.78125 L 42.914062 91.015625 L 18.414062 74.441406 Z M 32.273438 24.09375 "/>
<path style=" stroke:none;fill-rule:nonzero;fill:rgb(39.99939%,39.99939%,39.99939%);fill-opacity:0.3;" d="M 77.113281 17.484375 L 138.066406 9.414062 L 142.308594 12.855469 L 145.136719 15.726562 L 146.953125 18.597656 L 147.964844 21.660156 L 148.777344 25.296875 L 148.777344 29.507812 L 147.367188 33.910156 L 145.957031 36.589844 L 142.929688 40.804688 L 139.296875 44.441406 L 135.464844 46.933594 L 131.832031 49.039062 L 126.585938 51.914062 L 123.359375 54.402344 L 119.726562 57.660156 L 116.5 61.871094 L 114.480469 64.550781 L 112.265625 70.105469 L 110.855469 74.890625 L 75.453125 61.644531 L 73.789062 54.328125 L 66.75 51.429688 L 64.667969 57.613281 L 60.785156 56.15625 L 69.03125 36.621094 L 96.703125 38.144531 L 96.523438 37.023438 L 96.371094 36.0625 L 69.421875 34.558594 Z M 77.113281 17.484375 "/>
<path style=" stroke:none;fill-rule:nonzero;fill:rgb(39.99939%,39.99939%,39.99939%);fill-opacity:0.3;" d="M 61.015625 58.082031 L 64.121094 59.242188 L 51.429688 96.976562 L 54.488281 100.160156 L 45.582031 93.695312 Z M 61.015625 58.082031 "/>
<path style=" stroke:none;fill-rule:nonzero;fill:rgb(39.99939%,39.99939%,39.99939%);fill-opacity:0.3;" d="M 81.816406 65.863281 L 91.066406 69.324219 L 90.765625 69.234375 L 87.039062 67.992188 Z M 81.816406 65.863281 "/>
<path style=" stroke:none;fill-rule:nonzero;fill:rgb(39.99939%,39.99939%,39.99939%);fill-opacity:0.3;" d="M -11.65625 183.472656 L -15.492188 172.082031 L 56.976562 142.746094 L 62.214844 157.851562 L 35.746094 167.363281 Z M -11.65625 183.472656 "/>
<path style=" stroke:none;fill-rule:nonzero;fill:rgb(39.99939%,39.99939%,39.99939%);fill-opacity:0.3;" d="M -23.5625 144.632812 L 59.066406 111.660156 L 60.652344 114.539062 L 62.902344 120.171875 L 29.003906 132.324219 L 29.589844 133.5 L 29.921875 134.164062 L 63.429688 122.050781 L 64.226562 128.3125 L 63.246094 132.898438 L 56.972656 140.082031 L -16.15625 169.167969 L -22.589844 147.859375 L -23.105469 145.839844 L -23.4375 145.054688 Z M -23.5625 144.632812 "/>
<path style=" stroke:none;fill-rule:nonzero;fill:rgb(39.99939%,39.99939%,39.99939%);fill-opacity:0.3;" d="M 66.027344 156.480469 L 61.066406 142.492188 L 61.839844 141.761719 L 67.992188 155.777344 Z M 66.027344 156.480469 "/>
<path style=" stroke:none;fill-rule:nonzero;fill:rgb(39.99939%,39.99939%,39.99939%);fill-opacity:0.3;" d="M 66.917969 129.757812 L 67.023438 125.300781 L 65.699219 119.917969 L 62.203125 111.089844 L 64.378906 112.734375 L 66.335938 120.164062 L 67.578125 125.132812 Z M 66.917969 129.757812 "/>
<path style=" stroke:none;fill-rule:nonzero;fill:rgb(39.99939%,39.99939%,39.99939%);fill-opacity:0.3;" d="M 4.15625 109.871094 L 41.617188 95.273438 L 57.957031 109.085938 L 18.09375 124.898438 Z M 4.15625 109.871094 "/>
<path style=" stroke:none;fill-rule:nonzero;fill:rgb(39.99939%,39.99939%,39.99939%);fill-opacity:0.3;" d="M -4.058594 28.503906 L 29.59375 24.460938 L 15.652344 74.191406 L -14.195312 85.636719 L -23.011719 61.871094 L 4.398438 54.265625 L 4.929688 49.882812 L 8.839844 50.890625 L 9.050781 50.261719 L 9.3125 49.488281 L -1.242188 46.625 L -5.964844 44.179688 Z M -4.058594 28.503906 "/>
<path style=" stroke:none;fill-rule:nonzero;fill:rgb(39.99939%,39.99939%,39.99939%);fill-opacity:0.3;" d="M -33.832031 122.011719 L -3.8125 110.601562 L 0.363281 117.367188 L -30.148438 129.160156 L -30.972656 127.203125 L -33 123.765625 Z M -33.832031 122.011719 "/>
<path style=" stroke:none;fill-rule:nonzero;fill:rgb(39.99939%,39.99939%,39.99939%);fill-opacity:0.3;" d="M 29.441406 86.320312 L 35.367188 89.507812 L 38.734375 94.0625 L 2.394531 107.746094 L -11.082031 86.503906 L 17.617188 75.707031 L 27.199219 84.195312 L 7.027344 91.949219 L 7.683594 93.542969 L 8.148438 94.683594 Z M 29.441406 86.320312 "/>
<path style=" stroke:none;fill-rule:nonzero;fill:rgb(39.99939%,39.99939%,39.99939%);fill-opacity:0.3;" d="M -32.980469 31.609375 L -7.296875 28.679688 L -9.277344 44.632812 L 2.847656 52.519531 L -23.378906 59.738281 Z M -32.980469 31.609375 "/>
<path style=" stroke:none;fill-rule:nonzero;fill:rgb(39.99939%,39.99939%,39.99939%);fill-opacity:0.3;" d="M -39.222656 111.703125 L -7.453125 98.632812 L -0.0703125 109.0625 L 15.132812 126.894531 L -24.824219 141.769531 L -30.972656 127.203125 L -35.667969 119.242188 Z M -39.222656 111.703125 "/>
<path style=" stroke:none;fill-rule:nonzero;fill:rgb(39.99939%,39.99939%,39.99939%);fill-opacity:0.3;" d="M 84.765625 -69.617188 L 130.03125 -80.839844 L 132.34375 -80.84375 L 134.269531 -80.113281 L 135.171875 -78.40625 L 121.703125 -37.347656 L 119.785156 -29.835938 L 119.097656 -23.28125 L 119.765625 -17.449219 L 119.429688 -17.421875 L 94.226562 -18.589844 L 94.214844 -16.921875 L 94.203125 -15.230469 L 119.644531 -14.789062 L 120.023438 -15.203125 L 125.785156 -6.253906 L 127.792969 -4.007812 L 126.691406 -3.863281 L 105.675781 -4.890625 L 105.632812 -4.152344 L 105.589844 -3.472656 L 127.632812 -2.8125 L 128.898438 -2.765625 L 132.121094 0.839844 L -0.0273438 17.667969 L 2.566406 6.707031 L -4.886719 -26.832031 L -7.722656 -46.6875 L 11.484375 -51.449219 Z M 84.765625 -69.617188 "/>
<path style=" stroke:none;fill-rule:nonzero;fill:rgb(39.99939%,39.99939%,39.99939%);fill-opacity:0.3;" d="M 143.261719 9.898438 L 144.28125 9.777344 L 145.964844 12.621094 Z M 143.261719 9.898438 "/>
<path style=" stroke:none;fill-rule:nonzero;fill:rgb(39.99939%,39.99939%,39.99939%);fill-opacity:0.3;" d="M 113.988281 76.550781 L 113.824219 74.691406 L 114.644531 71.890625 L 115.792969 69.398438 L 116.429688 68.269531 L 116.023438 69.234375 L 114.367188 76.6875 Z M 113.988281 76.550781 "/>
<path style=" stroke:none;fill-rule:nonzero;fill:rgb(39.99939%,39.99939%,39.99939%);fill-opacity:0.3;" d="M 149.601562 34.914062 L 150.273438 32.855469 L 150.757812 28.304688 L 151.144531 24.640625 L 151.222656 24.925781 L 151.222656 32.796875 Z M 149.601562 34.914062 "/>
<path style=" stroke:none;fill-rule:nonzero;fill:rgb(39.99939%,39.99939%,39.99939%);fill-opacity:0.3;" d="M 18.949219 129.09375 L 22.003906 128.078125 L 27.296875 138.847656 L 24.292969 139.863281 L 22.628906 136.414062 L 23.933594 135.660156 L 22.519531 132.417969 L 20.828125 133.015625 Z M 18.949219 129.09375 "/>
<path style=" stroke:none;fill-rule:nonzero;fill:rgb(39.99939%,39.99939%,39.99939%);fill-opacity:0.3;" d="M 11.796875 132.226562 L 17.734375 130.136719 L 19.328125 133.585938 L 17.507812 134.21875 L 19.21875 137.914062 L 21.035156 137.308594 L 22.523438 140.796875 L 16.5625 143.195312 L 15.132812 139.496094 L 16.804688 138.84375 L 15.066406 135.25 L 13.507812 135.863281 Z M 11.796875 132.226562 "/>
<path style=" stroke:none;fill-rule:nonzero;fill:rgb(39.99939%,39.99939%,39.99939%);fill-opacity:0.3;" d="M 4.558594 134.917969 L 10.496094 132.828125 L 12.089844 136.277344 L 10.269531 136.910156 L 11.980469 140.605469 L 13.796875 140 L 15.285156 143.488281 L 9.324219 145.882812 L 7.894531 142.1875 L 9.566406 141.535156 L 7.828125 137.941406 L 6.269531 138.554688 Z M 4.558594 134.917969 "/>
<path style=" stroke:none;fill-rule:nonzero;fill:rgb(39.99939%,39.99939%,39.99939%);fill-opacity:0.3;" d="M -2.785156 137.707031 L 3.152344 135.617188 L 4.75 139.066406 L 2.925781 139.699219 L 4.636719 143.394531 L 6.453125 142.789062 L 7.945312 146.277344 L 1.980469 148.675781 L 0.554688 144.980469 L 2.222656 144.328125 L 0.488281 140.730469 L -1.074219 141.34375 Z M -2.785156 137.707031 "/>
<path style=" stroke:none;fill-rule:nonzero;fill:rgb(39.99939%,39.99939%,39.99939%);fill-opacity:0.3;" d="M 197.925781 163.230469 L 215.425781 160.542969 L 215.140625 159.449219 L 214.984375 158.855469 L 197.625 161.824219 L 196.40625 156.097656 L 194.878906 145.613281 L 216.640625 141.855469 L 230.867188 138.34375 L 246.519531 128.375 L 252.667969 135.527344 L 226.535156 160.332031 L 216.644531 160.332031 L 198.011719 163.644531 Z M 197.925781 163.230469 "/>
<path style=" stroke:none;fill-rule:nonzero;fill:rgb(39.99939%,39.99939%,39.99939%);fill-opacity:0.3;" d="M 255.859375 137.824219 L 255.882812 137.847656 L 242.320312 149.152344 L 240.09375 150.867188 L 240.34375 150.625 Z M 255.859375 137.824219 "/>
<path style=" stroke:none;fill-rule:nonzero;fill:rgb(39.99939%,39.99939%,39.99939%);fill-opacity:0.3;" d="M 259.429688 134.894531 L 258.503906 133.855469 L 259.710938 134.660156 Z M 259.429688 134.894531 "/>
<path style=" stroke:none;fill-rule:nonzero;fill:rgb(39.99939%,39.99939%,39.99939%);fill-opacity:0.3;" d="M 210.066406 56.597656 L 234.324219 67.351562 L 230.402344 73.820312 L 206.144531 63.0625 Z M 210.066406 56.597656 "/>
<path style=" stroke:none;fill-rule:nonzero;fill:rgb(39.99939%,39.99939%,39.99939%);fill-opacity:0.3;" d="M 212.519531 43.882812 L 232.96875 53.171875 L 229.046875 59.636719 L 208.597656 50.347656 Z M 212.519531 43.882812 "/>
<path style=" stroke:none;fill-rule:nonzero;fill:rgb(39.99939%,39.99939%,39.99939%);fill-opacity:0.3;" d="M 216.824219 34.746094 L 237.273438 44.035156 L 233.351562 50.503906 L 212.902344 41.214844 Z M 216.824219 34.746094 "/>
<path style=" stroke:none;fill-rule:nonzero;fill:rgb(39.99939%,39.99939%,39.99939%);fill-opacity:0.3;" d="M 303.128906 43.585938 L 303.386719 43.085938 L 305.449219 39.300781 L 305.875 38.867188 L 303.601562 42.734375 Z M 303.128906 43.585938 "/>
<path style=" stroke:none;fill-rule:nonzero;fill:rgb(39.99939%,39.99939%,39.99939%);fill-opacity:0.3;" d="M 270.6875 17.320312 L 276.027344 17.832031 L 288.507812 22.339844 L 311.832031 33.074219 L 311.667969 33.695312 L 310.484375 33.996094 L 309.8125 34.039062 L 309.582031 34.222656 L 309.183594 34.324219 L 305.265625 34.789062 L 303.128906 36.972656 L 301.160156 40.863281 L 266.660156 23.925781 Z M 270.6875 17.320312 "/>
<path style=" stroke:none;fill-rule:nonzero;fill:rgb(39.99939%,39.99939%,39.99939%);fill-opacity:0.3;" d="M 239.089844 -5.855469 L 245.226562 -20.722656 L 267.777344 -5.238281 L 269.753906 -3.453125 L 270.179688 -1.667969 L 269.785156 -0.136719 L 268.539062 0.160156 L 264.304688 0.261719 L 256.570312 -1.742188 L 251.800781 -3.046875 L 246.1875 -4.449219 Z M 239.089844 -5.855469 "/>
<path style=" stroke:none;fill-rule:nonzero;fill:rgb(39.99939%,39.99939%,39.99939%);fill-opacity:0.3;" d="M 139.09375 -81.203125 L 140.824219 -81.824219 L 159.34375 -75.769531 L 154.945312 -56.371094 L 155.886719 -55.988281 L 156.675781 -55.667969 L 160.9375 -75.304688 L 168.898438 -72.867188 L 173.0625 -71.011719 L 177.84375 -68.578125 L 186.171875 -62.890625 L 193.402344 -57.203125 L 194.996094 -54.066406 L 187.285156 -42.566406 L 188.207031 -42.101562 L 189.125 -41.636719 L 197.570312 -54.300781 L 228 -31.738281 L 220.535156 -18.378906 L 221.761719 -17.566406 L 222.984375 -16.753906 L 231.046875 -29.4375 L 238.144531 -24.085938 L 243.09375 -20.789062 L 237.097656 -6.5 L 228.769531 -7.078125 L 212.847656 -7.765625 L 189.046875 -5.953125 L 178.757812 -4.765625 L 179.222656 -8.082031 L 174.824219 -7.675781 L 172.605469 -9.902344 L 170.386719 -12.007812 L 166.992188 -13.242188 L 166.46875 -12.621094 L 165.949219 -12.003906 L 167.777344 -11.136719 L 170.367188 -9.011719 L 172.605469 -6.933594 L 173.914062 -3.839844 L 135.957031 0.660156 L 132.851562 -2.5 L 129.585938 -6.121094 L 126.765625 -9.554688 L 124.3125 -14.25 L 122.777344 -20.992188 L 123.082031 -27.722656 L 124.300781 -34.808594 L 125.027344 -38.691406 L 126.503906 -43.230469 L 134.207031 -63.3125 Z M 139.09375 -81.203125 "/>
<path style=" stroke:none;fill-rule:nonzero;fill:rgb(39.99939%,39.99939%,39.99939%);fill-opacity:0.3;" d="M 144.28125 9.777344 L 206.480469 2.238281 L 213.539062 2.546875 L 240.308594 5.179688 L 256.882812 9.195312 L 262.519531 11.449219 L 267.976562 15.03125 L 236.316406 66.945312 L 237.386719 67.332031 L 238.777344 67.832031 L 246.492188 55.886719 L 250.761719 58.375 L 252.074219 56.195312 L 247.3125 53.546875 L 264.375 26.445312 L 279.648438 34.535156 L 255.207031 79.707031 L 256.507812 80.476562 L 257.835938 81.261719 L 282.769531 35.625 L 299.6875 43.558594 L 289.34375 64.496094 L 268.34375 97.207031 L 260.535156 107.664062 L 247.304688 100.253906 L 242.105469 90.429688 L 245.011719 87.558594 L 243.609375 86.621094 L 242.203125 85.6875 L 237.175781 90.199219 L 243.59375 100.207031 L 233.832031 111.902344 L 234.414062 112.410156 L 234.988281 112.914062 L 245.972656 102.046875 L 258.621094 110.226562 L 254.277344 117.503906 L 253.164062 119.511719 L 251.230469 121.71875 L 246.871094 124.847656 L 238.316406 130.988281 L 228.90625 136.523438 L 222.496094 122.355469 L 221.589844 122.785156 L 220.855469 123.136719 L 227.265625 137.613281 L 194.429688 144.171875 L 192.269531 133.425781 L 190.972656 124.71875 L 190.503906 124.636719 L 190.496094 124.59375 L 188.695312 124.304688 L 186.417969 123.890625 L 161.988281 118.507812 L 138.800781 88.28125 L 135.074219 84.96875 L 131.347656 82.898438 L 129.839844 82.269531 L 128.605469 81.226562 L 125.484375 80.136719 L 123.007812 79.667969 L 114.367188 76.6875 L 116.023438 69.234375 L 116.429688 68.269531 L 118.089844 65.347656 L 121.371094 60.828125 L 126.292969 56.3125 L 134.679688 51.085938 L 141.414062 46.40625 L 145.679688 41.886719 L 148.796875 37.371094 L 149.601562 34.914062 L 151.222656 32.796875 L 151.222656 24.925781 L 151.144531 24.640625 L 151.277344 23.386719 L 150.101562 18.371094 L 147.964844 14.636719 L 145.964844 12.621094 Z M 144.28125 9.777344 "/>
<path style=" stroke:none;fill-rule:nonzero;fill:rgb(39.99939%,39.99939%,39.99939%);fill-opacity:0.3;" d="M 137.015625 265.507812 L 136.363281 288.871094 L 136.710938 265.496094 Z M 137.015625 265.507812 "/>
<path style=" stroke:none;fill-rule:nonzero;fill:rgb(39.99939%,39.99939%,39.99939%);fill-opacity:0.3;" d="M 153.335938 265.261719 L 167.292969 265.703125 L 166.996094 293.441406 L 152.773438 290.824219 Z M 153.335938 265.261719 "/>
<path style=" stroke:none;fill-rule:nonzero;fill:rgb(39.99939%,39.99939%,39.99939%);fill-opacity:0.3;" d="M 138.316406 265.417969 L 151.445312 265.410156 L 151.171875 290.867188 L 137.875 291.886719 Z M 138.316406 265.417969 "/>
<path style=" stroke:none;fill-rule:nonzero;fill:rgb(39.99939%,39.99939%,39.99939%);fill-opacity:0.3;" d="M 181.3125 252.9375 L 200.367188 253.785156 L 197.535156 272.085938 L 169.1875 270.15625 L 169.511719 257.78125 L 170.269531 252.671875 Z M 181.3125 252.9375 "/>
<path style=" stroke:none;fill-rule:nonzero;fill:rgb(39.99939%,39.99939%,39.99939%);fill-opacity:0.3;" d="M 226.710938 242.375 L 228.835938 241.796875 L 230.3125 247.703125 L 236.25 275.425781 L 235.289062 275.589844 Z M 226.710938 242.375 "/>
<path style=" stroke:none;fill-rule:nonzero;fill:rgb(39.99939%,39.99939%,39.99939%);fill-opacity:0.3;" d="M 217.15625 264.539062 L 229.203125 262.597656 L 232.933594 276.382812 L 218.199219 279.601562 Z M 217.15625 264.539062 "/>
<path style=" stroke:none;fill-rule:nonzero;fill:rgb(39.99939%,39.99939%,39.99939%);fill-opacity:0.3;" d="M 195.675781 288.339844 L 195.707031 286.574219 L 170.148438 285.238281 L 170.773438 272.636719 L 199.488281 273.640625 L 203.0625 253.460938 L 204.636719 253.5 L 207.949219 232.796875 L 214.996094 241.855469 L 214.960938 242.125 L 214.773438 243.441406 L 216.125 243.304688 L 216.644531 243.976562 L 221.757812 242.742188 L 223.765625 242.539062 L 228.804688 261.683594 L 215.734375 263.539062 L 216.695312 280.3125 L 208.167969 282.824219 L 207.988281 283.613281 L 198.839844 288.695312 Z M 195.675781 288.339844 "/>
<path style="fill-rule:nonzero;fill:rgb(39.99939%,39.99939%,39.99939%);fill-opacity:1;stroke-width:0.03;stroke-linecap:square;stroke-linejoin:miter;stroke:rgb(39.99939%,39.99939%,39.99939%);stroke-opacity:1;stroke-miterlimit:3.239307;" d="M 169.296875 308.105469 L 209.023438 308.042969 L 203.273438 321.570312 L 198.304688 316.601562 L 190.4375 312.460938 L 178.015625 309.976562 L 171.390625 308.734375 Z M 169.296875 308.105469 " transform="matrix(1,0,0,1,-74,-13)"/>
<path style="fill-rule:nonzero;fill:rgb(39.99939%,39.99939%,39.99939%);fill-opacity:1;stroke-width:0.03;stroke-linecap:square;stroke-linejoin:miter;stroke:rgb(39.99939%,39.99939%,39.99939%);stroke-opacity:1;stroke-miterlimit:3.239307;" d="M 232.242188 149.277344 L 235.191406 135.078125 L 254.78125 137.875 L 251.832031 152.769531 Z M 232.242188 149.277344 " transform="matrix(1,0,0,1,-74,-13)"/>
<path style="fill-rule:nonzero;fill:rgb(39.99939%,39.99939%,39.99939%);fill-opacity:1;stroke-width:0.03;stroke-linecap:square;stroke-linejoin:miter;stroke:rgb(39.99939%,39.99939%,39.99939%);stroke-opacity:1;stroke-miterlimit:3.239307;" d="M 162.957031 210.410156 L 162.320312 203.1875 L 166.773438 196.859375 L 169.765625 191.621094 L 171.339844 186.34375 L 172.285156 181.253906 L 185.765625 178.402344 L 190.5 183.039062 L 202.214844 192.203125 L 209.984375 198.484375 Z M 162.957031 210.410156 " transform="matrix(1,0,0,1,-74,-13)"/>
<path style="fill-rule:nonzero;fill:rgb(39.99939%,39.99939%,39.99939%);fill-opacity:1;stroke-width:0.03;stroke-linecap:square;stroke-linejoin:miter;stroke:rgb(39.99939%,39.99939%,39.99939%);stroke-opacity:1;stroke-miterlimit:3.239307;" d="M 231.875 151.378906 L 251.464844 155.050781 L 241.695312 201.492188 L 229.128906 201.5 L 219.707031 200.101562 Z M 231.875 151.378906 " transform="matrix(1,0,0,1,-74,-13)"/>
<path style="fill-rule:nonzero;fill:rgb(39.99939%,39.99939%,39.99939%);fill-opacity:1;stroke-width:0.03;stroke-linecap:square;stroke-linejoin:miter;stroke:rgb(39.99939%,39.99939%,39.99939%);stroke-opacity:1;stroke-miterlimit:3.239307;" d="M 256.074219 137.875 L 262.171875 138.570312 L 265.691406 151.710938 L 275.332031 209.710938 L 253.523438 203.765625 L 244.28125 201.492188 Z M 256.074219 137.875 " transform="matrix(1,0,0,1,-74,-13)"/>
<path style="fill-rule:nonzero;fill:rgb(39.99939%,39.99939%,39.99939%);fill-opacity:1;stroke-width:0.03;stroke-linecap:square;stroke-linejoin:miter;stroke:rgb(39.99939%,39.99939%,39.99939%);stroke-opacity:1;stroke-miterlimit:3.239307;" d="M 211.761719 147.066406 L 229.5625 151.136719 L 217.4375 199.777344 L 210.980469 197.183594 L 202.566406 190.511719 L 209.796875 179.195312 L 208.820312 178.640625 L 207.839844 178.082031 L 200.609375 189.214844 L 196.5 185.136719 L 199.230469 170.855469 L 197.472656 170.667969 L 194.9375 183.28125 L 187.695312 176.054688 L 189.257812 170.488281 L 191.792969 161.957031 L 194.921875 157.6875 L 198.246094 154.347656 L 202.546875 154.71875 L 202.351562 158.398438 L 203.382812 158.445312 L 204.40625 158.492188 L 205.3125 153.5625 L 207.265625 146.328125 Z M 211.761719 147.066406 " transform="matrix(1,0,0,1,-74,-13)"/>
<path style="fill-rule:nonzero;fill:rgb(39.99939%,39.99939%,39.99939%);fill-opacity:1;stroke-width:0.03;stroke-linecap:square;stroke-linejoin:miter;stroke:rgb(39.99939%,39.99939%,39.99939%);stroke-opacity:1;stroke-miterlimit:3.239307;" d="M 182.675781 88.914062 L 184.347656 89.921875 L 176.140625 126.957031 L 171.960938 146.113281 L 159.84375 138.03125 L 150.265625 130.941406 L 137.84375 121.441406 L 145.914062 116.757812 L 155.785156 111.503906 L 165.054688 104.6875 L 170.289062 100.289062 Z M 182.675781 88.914062 " transform="matrix(1,0,0,1,-74,-13)"/>
<path style="fill-rule:nonzero;fill:rgb(39.99939%,39.99939%,39.99939%);fill-opacity:1;stroke-width:0.03;stroke-linecap:square;stroke-linejoin:miter;stroke:rgb(39.99939%,39.99939%,39.99939%);stroke-opacity:1;stroke-miterlimit:3.239307;" d="M 149.453125 74.644531 L 138.667969 70.613281 L 140.75 64.429688 L 147.789062 67.328125 Z M 149.453125 74.644531 " transform="matrix(1,0,0,1,-74,-13)"/>
<path style="fill-rule:nonzero;fill:rgb(39.99939%,39.99939%,39.99939%);fill-opacity:1;stroke-width:0.03;stroke-linecap:square;stroke-linejoin:miter;stroke:rgb(39.99939%,39.99939%,39.99939%);stroke-opacity:1;stroke-miterlimit:3.239307;" d="M 138.121094 72.242188 L 155.816406 78.863281 L 161.039062 80.992188 L 164.765625 82.234375 L 165.066406 82.324219 L 180.980469 88.277344 L 171.339844 96.3125 L 162.21875 103.980469 L 154.144531 109.941406 L 136.800781 119.1875 L 128.488281 113.160156 L 125.429688 109.976562 Z M 138.121094 72.242188 " transform="matrix(1,0,0,1,-74,-13)"/>
<path style="fill-rule:nonzero;fill:rgb(39.99939%,39.99939%,39.99939%);fill-opacity:1;stroke-width:0.03;stroke-linecap:square;stroke-linejoin:miter;stroke:rgb(39.99939%,39.99939%,39.99939%);stroke-opacity:1;stroke-miterlimit:3.239307;" d="M 275.355469 193.375 L 271.644531 176.273438 L 271.925781 176.230469 L 272.011719 176.644531 L 290.644531 173.332031 L 300.535156 173.332031 L 294.878906 178.699219 L 294.882812 180.933594 L 291.222656 181.226562 L 292.082031 191.503906 Z M 275.355469 193.375 " transform="matrix(1,0,0,1,-74,-13)"/>
<path style="fill-rule:nonzero;fill:rgb(39.99939%,39.99939%,39.99939%);fill-opacity:1;stroke-width:0.03;stroke-linecap:square;stroke-linejoin:miter;stroke:rgb(39.99939%,39.99939%,39.99939%);stroke-opacity:1;stroke-miterlimit:3.239307;" d="M 271.625 174.824219 L 271.25 174.886719 L 270.40625 169.097656 Z M 271.625 174.824219 " transform="matrix(1,0,0,1,-74,-13)"/>
<path style="fill-rule:nonzero;fill:rgb(39.99939%,39.99939%,39.99939%);fill-opacity:1;stroke-width:0.03;stroke-linecap:square;stroke-linejoin:miter;stroke:rgb(39.99939%,39.99939%,39.99939%);stroke-opacity:1;stroke-miterlimit:3.239307;" d="M 329.210938 241.851562 L 328.15625 242.386719 L 322.703125 221.75 L 321.4375 221.953125 L 320.132812 222.164062 L 326.203125 243.191406 L 314.179688 249.164062 L 305.898438 216.496094 L 298.605469 216.199219 L 297.316406 202.027344 L 312.058594 202.46875 L 312.242188 200.789062 L 312.371094 199.613281 L 297.15625 199.019531 L 297.109375 197.484375 L 297.269531 198.175781 L 303.484375 196.105469 L 306.382812 196.105469 L 317.148438 199.832031 L 330.398438 205.628906 L 323.359375 211.425781 Z M 329.210938 241.851562 " transform="matrix(1,0,0,1,-74,-13)"/>
<path style="fill-rule:nonzero;fill:rgb(39.99939%,39.99939%,39.99939%);fill-opacity:1;stroke-width:0.03;stroke-linecap:square;stroke-linejoin:miter;stroke:rgb(39.99939%,39.99939%,39.99939%);stroke-opacity:1;stroke-miterlimit:3.239307;" d="M 298.6875 217.511719 L 304.414062 218.207031 L 312.191406 249.746094 L 300.183594 252.90625 L 294.628906 230.304688 Z M 298.6875 217.511719 " transform="matrix(1,0,0,1,-74,-13)"/>
<path style="fill-rule:nonzero;fill:rgb(39.99939%,39.99939%,39.99939%);fill-opacity:1;stroke-width:0.03;stroke-linecap:square;stroke-linejoin:miter;stroke:rgb(39.99939%,39.99939%,39.99939%);stroke-opacity:1;stroke-miterlimit:3.239307;" d="M 275.933594 195.367188 L 292.378906 193.257812 L 297.011719 216.035156 L 278.898438 211.3125 Z M 275.933594 195.367188 " transform="matrix(1,0,0,1,-74,-13)"/>
<path style="fill-rule:nonzero;fill:rgb(39.99939%,39.99939%,39.99939%);fill-opacity:1;stroke-width:0.03;stroke-linecap:square;stroke-linejoin:miter;stroke:rgb(39.99939%,39.99939%,39.99939%);stroke-opacity:1;stroke-miterlimit:3.239307;" d="M 210.363281 301.871094 L 210.269531 305.109375 L 209.882812 306.027344 L 198.824219 305.632812 L 199.101562 303.722656 L 164.230469 303.75 L 170.375 277.242188 L 210.710938 278.496094 Z M 210.363281 301.871094 " transform="matrix(1,0,0,1,-74,-13)"/>
<path style="fill-rule:nonzero;fill:rgb(39.99939%,39.99939%,39.99939%);fill-opacity:1;stroke-width:0.03;stroke-linecap:square;stroke-linejoin:miter;stroke:rgb(39.99939%,39.99939%,39.99939%);stroke-opacity:1;stroke-miterlimit:3.239307;" d="M 243.652344 265.417969 L 255.3125 265.9375 L 244.269531 265.671875 L 243.511719 270.78125 Z M 243.652344 265.417969 " transform="matrix(1,0,0,1,-74,-13)"/>
<path style="fill-rule:nonzero;fill:rgb(39.99939%,39.99939%,39.99939%);fill-opacity:1;stroke-width:0.03;stroke-linecap:square;stroke-linejoin:miter;stroke:rgb(39.99939%,39.99939%,39.99939%);stroke-opacity:1;stroke-miterlimit:3.239307;" d="M 243.957031 244.386719 L 277.863281 245.753906 L 274.679688 264.804688 L 243.652344 264.070312 Z M 243.957031 244.386719 " transform="matrix(1,0,0,1,-74,-13)"/>
<path style="fill-rule:nonzero;fill:rgb(39.99939%,39.99939%,39.99939%);fill-opacity:1;stroke-width:0.03;stroke-linecap:square;stroke-linejoin:miter;stroke:rgb(39.99939%,39.99939%,39.99939%);stroke-opacity:1;stroke-miterlimit:3.239307;" d="M 225.59375 263.929688 L 225.371094 275.996094 L 170.332031 274.804688 L 168.695312 263.367188 Z M 225.59375 263.929688 " transform="matrix(1,0,0,1,-74,-13)"/>
<path style="fill-rule:nonzero;fill:rgb(39.99939%,39.99939%,39.99939%);fill-opacity:1;stroke-width:0.03;stroke-linecap:square;stroke-linejoin:miter;stroke:rgb(39.99939%,39.99939%,39.99939%);stroke-opacity:1;stroke-miterlimit:3.239307;" d="M 315.132812 251.308594 L 323.160156 247.445312 L 316.734375 251.179688 L 315.179688 251.496094 Z M 315.132812 251.308594 " transform="matrix(1,0,0,1,-74,-13)"/>
<path style="fill-rule:nonzero;fill:rgb(39.99939%,39.99939%,39.99939%);fill-opacity:1;stroke-width:0.03;stroke-linecap:square;stroke-linejoin:miter;stroke:rgb(39.99939%,39.99939%,39.99939%);stroke-opacity:1;stroke-miterlimit:3.239307;" d="M 135.839844 154.761719 L 137.839844 152.863281 L 139.710938 149.066406 L 140.894531 143.683594 L 140.917969 142.757812 L 141.578125 138.132812 L 140.335938 133.164062 L 138.378906 125.734375 L 144.601562 130.425781 L 151.324219 135.136719 L 162.988281 143.703125 L 171.074219 149.554688 L 168.851562 168.523438 L 169.207031 175.847656 L 168.859375 181.003906 L 167.632812 186.664062 L 166.054688 191.160156 L 164.304688 194.820312 L 161.496094 199.316406 L 160.011719 200.984375 L 141.992188 168.777344 Z M 135.839844 154.761719 " transform="matrix(1,0,0,1,-74,-13)"/>
<path style="fill-rule:nonzero;fill:rgb(39.99939%,39.99939%,39.99939%);fill-opacity:1;stroke-width:0.03;stroke-linecap:square;stroke-linejoin:miter;stroke:rgb(39.99939%,39.99939%,39.99939%);stroke-opacity:1;stroke-miterlimit:3.239307;" d="M 228.726562 220.667969 L 241.894531 219.914062 L 241.292969 276.382812 L 227.335938 275.941406 Z M 228.726562 220.667969 " transform="matrix(1,0,0,1,-74,-13)"/>
<path style="fill-rule:nonzero;fill:rgb(39.99939%,39.99939%,39.99939%);fill-opacity:1;stroke-width:0.03;stroke-linecap:square;stroke-linejoin:miter;stroke:rgb(39.99939%,39.99939%,39.99939%);stroke-opacity:1;stroke-miterlimit:3.239307;" d="M 259.417969 207.714844 L 276.421875 212.878906 L 277.695312 227.195312 L 272.367188 227.199219 L 270.589844 225.636719 L 268.433594 225.15625 L 266.785156 225.277344 L 264.882812 225.878906 L 259.425781 226.484375 Z M 259.417969 207.714844 " transform="matrix(1,0,0,1,-74,-13)"/>
<path style="fill-rule:nonzero;fill:rgb(39.99939%,39.99939%,39.99939%);fill-opacity:1;stroke-width:0.03;stroke-linecap:square;stroke-linejoin:miter;stroke:rgb(39.99939%,39.99939%,39.99939%);stroke-opacity:1;stroke-miterlimit:3.239307;" d="M 244.824219 203.992188 L 257.511719 207.59375 L 257.398438 227.207031 L 244.074219 227.09375 Z M 244.824219 203.992188 " transform="matrix(1,0,0,1,-74,-13)"/>
<path style="fill-rule:nonzero;fill:rgb(39.99939%,39.99939%,39.99939%);fill-opacity:1;stroke-width:0.03;stroke-linecap:square;stroke-linejoin:miter;stroke:rgb(39.99939%,39.99939%,39.99939%);stroke-opacity:1;stroke-miterlimit:3.239307;" d="M 220.496094 203.453125 L 226.671875 203.835938 L 227.222656 213.347656 L 216.210938 215.421875 L 215.554688 211.90625 Z M 220.496094 203.453125 " transform="matrix(1,0,0,1,-74,-13)"/>
<path style="fill-rule:nonzero;fill:rgb(39.99939%,39.99939%,39.99939%);fill-opacity:1;stroke-width:0.03;stroke-linecap:square;stroke-linejoin:miter;stroke:rgb(39.99939%,39.99939%,39.99939%);stroke-opacity:1;stroke-miterlimit:3.239307;" d="M 277.0625 266.460938 L 281.511719 241.335938 L 280.710938 241.273438 L 279.617188 241.1875 L 279.144531 243.835938 L 244.515625 242.484375 L 244.191406 229.382812 L 259.488281 229.339844 L 262.449219 228.417969 L 265.070312 227.554688 L 267.007812 227.28125 L 269.398438 227.605469 L 271.792969 228.683594 L 278.078125 229.601562 L 278.4375 237.472656 L 280.367188 237.300781 L 279.429688 213.722656 L 295.859375 218.214844 L 292.554688 229.140625 L 296.5 249.554688 L 297.609375 253.296875 L 289.089844 254.199219 L 288.996094 254.855469 L 281.949219 245.796875 L 278.636719 266.5 Z M 277.0625 266.460938 " transform="matrix(1,0,0,1,-74,-13)"/>
<path style="fill-rule:nonzero;fill:rgb(39.99939%,39.99939%,39.99939%);fill-opacity:1;stroke-width:0.03;stroke-linecap:square;stroke-linejoin:miter;stroke:rgb(39.99939%,39.99939%,39.99939%);stroke-opacity:1;stroke-miterlimit:3.239307;" d="M 290.125 256.304688 L 295.757812 255.742188 L 290.644531 256.976562 Z M 290.125 256.304688 " transform="matrix(1,0,0,1,-74,-13)"/>
<path style="fill-rule:nonzero;fill:rgb(39.99939%,39.99939%,39.99939%);fill-opacity:1;stroke-width:0.03;stroke-linecap:square;stroke-linejoin:miter;stroke:rgb(39.99939%,39.99939%,39.99939%);stroke-opacity:1;stroke-miterlimit:3.239307;" d="M 162.417969 214.382812 L 203.011719 202.605469 L 208.464844 201.363281 L 218.277344 202.289062 L 218.949219 203.28125 L 211.523438 217.078125 L 205.441406 218.191406 L 205.59375 218.878906 L 205.746094 219.5625 L 229.40625 215.3125 L 228.527344 204.457031 L 241.390625 204.242188 L 241.835938 218.613281 L 227.445312 219.550781 L 227.085938 232.03125 L 205.164062 234.566406 L 205.222656 235.390625 L 205.269531 236.023438 L 226.882812 233.679688 L 226.375 244.171875 L 204.660156 244.378906 L 204.945312 245.46875 L 205.070312 245.933594 L 226.273438 245.726562 L 225.605469 261.101562 L 168.308594 260.667969 L 167.058594 251.902344 L 200.195312 249.390625 L 200.242188 248.574219 L 200.304688 247.425781 L 166.78125 249.964844 L 166.007812 244.554688 L 165.839844 243.285156 L 194.195312 241.328125 L 194.078125 240.210938 L 193.976562 239.261719 L 165.539062 240.992188 L 164.203125 230.847656 L 163.867188 227.882812 L 187.960938 223.105469 L 187.675781 222.355469 L 187.414062 221.660156 L 163.671875 226.164062 L 163.472656 224.402344 Z M 162.417969 214.382812 " transform="matrix(1,0,0,1,-74,-13)"/>
<path style="fill-rule:nonzero;fill:rgb(39.99939%,39.99939%,39.99939%);fill-opacity:1;stroke-width:0.03;stroke-linecap:square;stroke-linejoin:miter;stroke:rgb(39.99939%,39.99939%,39.99939%);stroke-opacity:1;stroke-miterlimit:3.239307;" d="M 266.269531 146.425781 L 264.503906 137.636719 L 264.972656 137.71875 Z M 266.269531 146.425781 " transform="matrix(1,0,0,1,-74,-13)"/>
<path style="fill-rule:nonzero;fill:rgb(39.99939%,39.99939%,39.99939%);fill-opacity:1;stroke-width:0.03;stroke-linecap:square;stroke-linejoin:miter;stroke:rgb(39.99939%,39.99939%,39.99939%);stroke-opacity:1;stroke-miterlimit:3.239307;" d="M 262.695312 137.304688 L 236.980469 133.207031 L 235.007812 132.273438 L 215.257812 107.921875 L 209.671875 100.917969 L 205.726562 96.871094 L 203.839844 95.269531 L 205.347656 95.898438 L 209.074219 97.96875 L 212.800781 101.28125 L 235.988281 131.507812 L 260.417969 136.890625 Z M 262.695312 137.304688 " transform="matrix(1,0,0,1,-74,-13)"/>
<path style="fill-rule:nonzero;fill:rgb(39.99939%,39.99939%,39.99939%);fill-opacity:1;stroke-width:0.03;stroke-linecap:square;stroke-linejoin:miter;stroke:rgb(39.99939%,39.99939%,39.99939%);stroke-opacity:1;stroke-miterlimit:3.239307;" d="M 197.007812 92.667969 L 192.578125 91.828125 L 189.304688 90.804688 L 187.988281 89.5625 L 187.988281 89.550781 L 188.367188 89.6875 Z M 197.007812 92.667969 " transform="matrix(1,0,0,1,-74,-13)"/>
<path style="fill-rule:nonzero;fill:rgb(39.99939%,39.99939%,39.99939%);fill-opacity:1;stroke-width:0.03;stroke-linecap:square;stroke-linejoin:miter;stroke:rgb(39.99939%,39.99939%,39.99939%);stroke-opacity:1;stroke-miterlimit:3.239307;" d="M 185.542969 93.773438 L 202.445312 98.117188 L 232.488281 133.0625 L 220.238281 132 L 220.097656 132.539062 L 219.957031 133.066406 L 232.769531 134.53125 L 229.5625 148.355469 L 205.503906 142.988281 L 202.769531 151.523438 L 195.507812 153.421875 L 191.402344 157.132812 L 187.492188 163.257812 L 185.539062 169.75 L 183.785156 176.835938 L 172.441406 179.066406 L 172.824219 164.042969 L 174.578125 150.875 L 176.589844 141.847656 Z M 185.542969 93.773438 " transform="matrix(1,0,0,1,-74,-13)"/>
<path style=" stroke:none;fill-rule:evenodd;fill:rgb(85.096741%,85.096741%,81.959534%);fill-opacity:0.7;" d="M 316.5625 185 C 316.5625 180.605469 314.816406 176.394531 311.710938 173.289062 C 308.605469 170.183594 304.394531 168.4375 300 168.4375 C 295.605469 168.4375 291.394531 170.183594 288.289062 173.289062 C 285.183594 176.394531 283.4375 180.605469 283.4375 185 C 283.4375 189.394531 285.183594 193.605469 288.289062 196.710938 C 291.394531 199.816406 295.605469 201.5625 300 201.5625 C 304.394531 201.5625 308.605469 199.816406 311.710938 196.710938 C 314.816406 193.605469 316.5625 189.394531 316.5625 185 Z M 316.5625 185 "/>
<path style=" stroke:none;fill-rule:evenodd;fill:rgb(85.096741%,85.096741%,81.959534%);fill-opacity:0.7;" d="M 324.5625 123 C 324.5625 118.605469 322.816406 114.394531 319.710938 111.289062 C 316.605469 108.183594 312.394531 106.4375 308 106.4375 C 303.605469 106.4375 299.394531 108.183594 296.289062 111.289062 C 293.183594 114.394531 291.4375 118.605469 291.4375 123 C 291.4375 127.394531 293.183594 131.605469 296.289062 134.710938 C 299.394531 137.816406 303.605469 139.5625 308 139.5625 C 312.394531 139.5625 316.605469 137.816406 319.710938 134.710938 C 322.816406 131.605469 324.5625 127.394531 324.5625 123 Z M 324.5625 123 "/>
<path style=" stroke:none;fill-rule:evenodd;fill:rgb(85.096741%,85.096741%,81.959534%);fill-opacity:0.7;" d="M 266.5625 58 C 266.5625 53.605469 264.816406 49.394531 261.710938 46.289062 C 258.605469 43.183594 254.394531 41.4375 250 41.4375 C 245.605469 41.4375 241.394531 43.183594 238.289062 46.289062 C 235.183594 49.394531 233.4375 53.605469 233.4375 58 C 233.4375 62.394531 235.183594 66.605469 238.289062 69.710938 C 241.394531 72.816406 245.605469 74.5625 250 74.5625 C 254.394531 74.5625 258.605469 72.816406 261.710938 69.710938 C 264.816406 66.605469 266.5625 62.394531 266.5625 58 Z M 266.5625 58 "/>
<path style=" stroke:none;fill-rule:evenodd;fill:rgb(85.096741%,85.096741%,81.959534%);fill-opacity:0.7;" d="M 292.5625 58 C 292.5625 53.605469 290.816406 49.394531 287.710938 46.289062 C 284.605469 43.183594 280.394531 41.4375 276 41.4375 C 271.605469 41.4375 267.394531 43.183594 264.289062 46.289062 C 261.183594 49.394531 259.4375 53.605469 259.4375 58 C 259.4375 62.394531 261.183594 66.605469 264.289062 69.710938 C 267.394531 72.816406 271.605469 74.5625 276 74.5625 C 280.394531 74.5625 284.605469 72.816406 287.710938 69.710938 C 290.816406 66.605469 292.5625 62.394531 292.5625 58 Z M 292.5625 58 "/>
<g clip-path="url(#clip17)" clip-rule="nonzero">
<path style=" stroke:none;fill-rule:evenodd;fill:rgb(85.096741%,85.096741%,81.959534%);fill-opacity:0.7;" d="M 360.5625 48 C 360.5625 43.605469 358.816406 39.394531 355.710938 36.289062 C 352.605469 33.183594 348.394531 31.4375 344 31.4375 C 339.605469 31.4375 335.394531 33.183594 332.289062 36.289062 C 329.183594 39.394531 327.4375 43.605469 327.4375 48 C 327.4375 52.394531 329.183594 56.605469 332.289062 59.710938 C 335.394531 62.816406 339.605469 64.5625 344 64.5625 C 348.394531 64.5625 352.605469 62.816406 355.710938 59.710938 C 358.816406 56.605469 360.5625 52.394531 360.5625 48 Z M 360.5625 48 "/>
</g>
<path style=" stroke:none;fill-rule:evenodd;fill:rgb(85.096741%,85.096741%,81.959534%);fill-opacity:0.7;" d="M 289.5625 56 C 289.5625 51.605469 287.816406 47.394531 284.710938 44.289062 C 281.605469 41.183594 277.394531 39.4375 273 39.4375 C 268.605469 39.4375 264.394531 41.183594 261.289062 44.289062 C 258.183594 47.394531 256.4375 51.605469 256.4375 56 C 256.4375 60.394531 258.183594 64.605469 261.289062 67.710938 C 264.394531 70.816406 268.605469 72.5625 273 72.5625 C 277.394531 72.5625 281.605469 70.816406 284.710938 67.710938 C 287.816406 64.605469 289.5625 60.394531 289.5625 56 Z M 289.5625 56 "/>
</g>
</svg>
