<?xml version="1.0" encoding="UTF-8"?>
<svg xmlns="http://www.w3.org/2000/svg" xmlns:xlink="http://www.w3.org/1999/xlink" width="361pt" height="361pt" viewBox="0 0 361 361" version="1.1">
<defs>
<clipPath id="clip1">
  <path d="M 16 331 L 39 331 L 39 360 L 16 360 Z M 16 331 "/>
</clipPath>
<clipPath id="clip2">
  <path d="M 37 328 L 59 328 L 59 360 L 37 360 Z M 37 328 "/>
</clipPath>
<clipPath id="clip3">
  <path d="M 0 333 L 19 333 L 19 360 L 0 360 Z M 0 333 "/>
</clipPath>
<clipPath id="clip4">
  <path d="M 57 324 L 84 324 L 84 360 L 57 360 Z M 57 324 "/>
</clipPath>
<clipPath id="clip5">
  <path d="M 287 337 L 324 337 L 324 360 L 287 360 Z M 287 337 "/>
</clipPath>
<clipPath id="clip6">
  <path d="M 247 336 L 284 336 L 284 360 L 247 360 Z M 247 336 "/>
</clipPath>
<clipPath id="clip7">
  <path d="M 86 332 L 122 332 L 122 360 L 86 360 Z M 86 332 "/>
</clipPath>
<clipPath id="clip8">
  <path d="M 325 336 L 360 336 L 360 360 L 325 360 Z M 325 336 "/>
</clipPath>
<clipPath id="clip9">
  <path d="M 204 334 L 244 334 L 244 360 L 204 360 Z M 204 334 "/>
</clipPath>
<clipPath id="clip10">
  <path d="M 163 334 L 202 334 L 202 360 L 163 360 Z M 163 334 "/>
</clipPath>
<clipPath id="clip11">
  <path d="M 123 334 L 161 334 L 161 360 L 123 360 Z M 123 334 "/>
</clipPath>
<clipPath id="clip12">
  <path d="M 320 156 L 360 156 L 360 259 L 320 259 Z M 320 156 "/>
</clipPath>
<clipPath id="clip13">
  <path d="M 325 260 L 360 260 L 360 297 L 325 297 Z M 325 260 "/>
</clipPath>
<clipPath id="clip14">
  <path d="M 326 298 L 360 298 L 360 336 L 326 336 Z M 326 298 "/>
</clipPath>
<clipPath id="clip15">
  <path d="M 303 74 L 360 74 L 360 156 L 303 156 Z M 303 74 "/>
</clipPath>
<clipPath id="clip16">
  <path d="M 331 77 L 360 77 L 360 89 L 331 89 Z M 331 77 "/>
</clipPath>
<clipPath id="clip17">
  <path d="M 334 22 L 360 22 L 360 78 L 334 78 Z M 334 22 "/>
</clipPath>
<clipPath id="clip18">
  <path d="M 349 8 L 360 8 L 360 82 L 349 82 Z M 349 8 "/>
</clipPath>
<clipPath id="clip19">
  <path d="M 344 0 L 360 0 L 360 13 L 344 13 Z M 344 0 "/>
</clipPath>
<clipPath id="clip20">
  <path d="M 343 4 L 360 4 L 360 26 L 343 26 Z M 343 4 "/>
</clipPath>
</defs>
<g id="surface301">
<path style="fill-rule:nonzero;fill:rgb(0%,0%,0%);fill-opacity:1;stroke-width:0.03;stroke-linecap:square;stroke-linejoin:miter;stroke:rgb(0%,0%,0%);stroke-opacity:1;stroke-miterlimit:10;" d="M 0 178 L 360 178 L 360 -182 L 0 -182 Z M 0 178 " transform="matrix(1,0,0,1,0,182)"/>
<g clip-path="url(#clip1)" clip-rule="nonzero">
<path style=" stroke:none;fill-rule:nonzero;fill:rgb(39.99939%,39.99939%,39.99939%);fill-opacity:0.3;" d="M 16.261719 333.414062 L 33.054688 331.070312 L 38.332031 364.839844 L 21.566406 367.304688 Z M 16.261719 333.414062 "/>
</g>
<g clip-path="url(#clip2)" clip-rule="nonzero">
<path style=" stroke:none;fill-rule:nonzero;fill:rgb(39.99939%,39.99939%,39.99939%);fill-opacity:0.3;" d="M 37.09375 330.507812 L 53.632812 328.199219 L 58.921875 362.035156 L 42.382812 364.246094 Z M 37.09375 330.507812 "/>
</g>
<path style=" stroke:none;fill-rule:nonzero;fill:rgb(39.99939%,39.99939%,39.99939%);fill-opacity:0.3;" d="M -22.308594 210.464844 L 59.550781 199.464844 L 71.839844 283.859375 L -9.21875 294.625 Z M -22.308594 210.464844 "/>
<path style=" stroke:none;fill-rule:nonzero;fill:rgb(39.99939%,39.99939%,39.99939%);fill-opacity:0.3;" d="M 17.386719 259.605469 L 19.015625 259.382812 L 19.132812 260.175781 L 20.40625 260 L 20.289062 259.210938 L 21.910156 258.957031 L 22.585938 259.4375 L 23.203125 263.546875 L 22.5625 263.632812 L 22.71875 264.695312 L 23.359375 264.605469 L 24.035156 269.097656 L 23.53125 269.738281 L 21.902344 269.960938 L 21.785156 269.167969 L 20.511719 269.339844 L 20.632812 270.132812 L 19.007812 270.386719 L 18.335938 269.90625 L 17.652344 265.359375 L 18.292969 265.273438 L 18.132812 264.210938 L 17.492188 264.300781 L 16.882812 260.246094 Z M 17.386719 259.605469 "/>
<path style=" stroke:none;fill-rule:nonzero;fill:rgb(39.99939%,39.99939%,39.99939%);fill-opacity:0.3;" d="M 10.503906 295.390625 L 27.207031 293.128906 L 32.640625 327.015625 L 15.875 329.355469 Z M 10.503906 295.390625 "/>
<path style=" stroke:none;fill-rule:nonzero;fill:rgb(39.99939%,39.99939%,39.99939%);fill-opacity:0.3;" d="M 1.398438 261.894531 L 3.027344 261.675781 L 3.148438 262.464844 L 4.417969 262.292969 L 4.300781 261.503906 L 5.921875 261.25 L 6.597656 261.730469 L 7.214844 265.839844 L 6.574219 265.925781 L 6.730469 266.984375 L 7.375 266.898438 L 8.046875 271.390625 L 7.542969 272.03125 L 5.914062 272.25 L 5.796875 271.460938 L 4.523438 271.632812 L 4.644531 272.425781 L 3.019531 272.679688 L 2.347656 272.199219 L 1.664062 267.652344 L 2.304688 267.566406 L 2.144531 266.503906 L 1.503906 266.589844 L 0.894531 262.535156 Z M 1.398438 261.894531 "/>
<path style=" stroke:none;fill-rule:nonzero;fill:rgb(39.99939%,39.99939%,39.99939%);fill-opacity:0.3;" d="M -5.605469 262.84375 L -3.976562 262.625 L -3.859375 263.414062 L -2.589844 263.242188 L -2.707031 262.453125 L -1.085938 262.199219 L -0.410156 262.679688 L 0.207031 266.789062 L -0.433594 266.875 L -0.273438 267.933594 L 0.367188 267.847656 L 1.042969 272.339844 L 0.535156 272.980469 L -1.089844 273.199219 L -1.210938 272.410156 L -2.480469 272.582031 L -2.363281 273.375 L -3.984375 273.628906 L -4.660156 273.148438 L -5.34375 268.601562 L -4.703125 268.515625 L -4.863281 267.453125 L -5.503906 267.539062 L -6.113281 263.484375 Z M -5.605469 262.84375 "/>
<path style=" stroke:none;fill-rule:nonzero;fill:rgb(39.99939%,39.99939%,39.99939%);fill-opacity:0.3;" d="M 0.605469 238.308594 L 3.359375 237.949219 L 3.632812 239.816406 L 4.417969 239.714844 L 4.148438 237.847656 L 6.902344 237.484375 L 7.824219 243.839844 L 5.070312 244.199219 L 4.796875 242.332031 L 4.011719 242.433594 L 4.28125 244.304688 L 1.527344 244.664062 Z M 0.605469 238.308594 "/>
<path style=" stroke:none;fill-rule:nonzero;fill:rgb(39.99939%,39.99939%,39.99939%);fill-opacity:0.3;" d="M 8.519531 240.320312 L 11.273438 239.960938 L 11.546875 241.832031 L 12.332031 241.726562 L 12.0625 239.859375 L 14.820312 239.496094 L 15.742188 245.851562 L 12.984375 246.214844 L 12.714844 244.34375 L 11.925781 244.449219 L 12.195312 246.316406 L 9.441406 246.675781 Z M 8.519531 240.320312 "/>
<path style=" stroke:none;fill-rule:nonzero;fill:rgb(39.99939%,39.99939%,39.99939%);fill-opacity:0.3;" d="M 59.015625 195.574219 L 59.058594 195.875 L 39.851562 198.457031 Z M 59.015625 195.574219 "/>
<g clip-path="url(#clip3)" clip-rule="nonzero">
<path style=" stroke:none;fill-rule:nonzero;fill:rgb(39.99939%,39.99939%,39.99939%);fill-opacity:0.3;" d="M -3.632812 336.195312 L 12.789062 333.898438 L 18.089844 367.808594 L 1.582031 370.238281 Z M -3.632812 336.195312 "/>
</g>
<g clip-path="url(#clip4)" clip-rule="nonzero">
<path style=" stroke:none;fill-rule:nonzero;fill:rgb(39.99939%,39.99939%,39.99939%);fill-opacity:0.3;" d="M 57.53125 327.652344 L 78.210938 324.625 L 83.539062 358.738281 L 62.261719 361.585938 Z M 57.53125 327.652344 "/>
</g>
<path style=" stroke:none;fill-rule:nonzero;fill:rgb(39.99939%,39.99939%,39.99939%);fill-opacity:0.3;" d="M -9.636719 298.121094 L 6.890625 295.878906 L 12.390625 329.84375 L -4.375 332.183594 Z M -9.636719 298.121094 "/>
<path style=" stroke:none;fill-rule:nonzero;fill:rgb(39.99939%,39.99939%,39.99939%);fill-opacity:0.3;" d="M 10.421875 260.546875 L 12.046875 260.328125 L 12.167969 261.117188 L 13.4375 260.945312 L 13.320312 260.15625 L 14.941406 259.902344 L 15.617188 260.382812 L 16.234375 264.488281 L 15.59375 264.578125 L 15.753906 265.636719 L 16.394531 265.550781 L 17.070312 270.042969 L 16.5625 270.683594 L 14.933594 270.902344 L 14.816406 270.113281 L 13.542969 270.285156 L 13.664062 271.074219 L 12.042969 271.332031 L 11.367188 270.851562 L 10.683594 266.304688 L 11.324219 266.21875 L 11.164062 265.15625 L 10.523438 265.242188 L 9.914062 261.1875 Z M 10.421875 260.546875 "/>
<path style=" stroke:none;fill-rule:nonzero;fill:rgb(39.99939%,39.99939%,39.99939%);fill-opacity:0.3;" d="M 15.117188 236.03125 L 17.875 235.671875 L 18.144531 237.539062 L 18.933594 237.4375 L 18.660156 235.566406 L 21.417969 235.207031 L 22.339844 241.5625 L 19.582031 241.921875 L 19.3125 240.054688 L 18.523438 240.15625 L 18.796875 242.023438 L 16.039062 242.386719 Z M 15.117188 236.03125 "/>
<path style=" stroke:none;fill-rule:nonzero;fill:rgb(39.99939%,39.99939%,39.99939%);fill-opacity:0.3;" d="M 16.417969 245.003906 L 19.175781 244.640625 L 19.445312 246.511719 L 20.234375 246.410156 L 19.960938 244.539062 L 22.71875 244.179688 L 23.640625 250.535156 L 20.882812 250.894531 L 20.613281 249.023438 L 19.824219 249.128906 L 20.097656 250.996094 L 17.339844 251.359375 Z M 16.417969 245.003906 "/>
<path style=" stroke:none;fill-rule:nonzero;fill:rgb(39.99939%,39.99939%,39.99939%);fill-opacity:0.3;" d="M -5.941406 242.972656 L -3.183594 242.613281 L -2.914062 244.484375 L -2.125 244.378906 L -2.398438 242.511719 L 0.359375 242.152344 L 1.28125 248.503906 L -1.476562 248.867188 L -1.746094 246.996094 L -2.535156 247.101562 L -2.261719 248.96875 L -5.019531 249.328125 Z M -5.941406 242.972656 "/>
<path style=" stroke:none;fill-rule:nonzero;fill:rgb(39.99939%,39.99939%,39.99939%);fill-opacity:0.3;" d="M 31.296875 292.574219 L 47.757812 290.34375 L 53.101562 324.160156 L 36.558594 326.46875 Z M 31.296875 292.574219 "/>
<path style=" stroke:none;fill-rule:nonzero;fill:rgb(39.99939%,39.99939%,39.99939%);fill-opacity:0.3;" d="M 40.445312 256.519531 L 42.074219 256.300781 L 42.191406 257.089844 L 43.464844 256.917969 L 43.34375 256.128906 L 44.96875 255.871094 L 45.640625 256.351562 L 46.257812 260.460938 L 45.617188 260.550781 L 45.777344 261.609375 L 46.417969 261.523438 L 47.09375 266.015625 L 46.585938 266.65625 L 44.960938 266.875 L 44.839844 266.085938 L 43.570312 266.257812 L 43.6875 267.046875 L 42.066406 267.304688 L 41.390625 266.824219 L 40.707031 262.277344 L 41.351562 262.191406 L 41.191406 261.128906 L 40.550781 261.214844 L 39.941406 257.160156 Z M 40.445312 256.519531 "/>
<path style=" stroke:none;fill-rule:nonzero;fill:rgb(39.99939%,39.99939%,39.99939%);fill-opacity:0.3;" d="M 33.570312 257.453125 L 35.199219 257.230469 L 35.316406 258.023438 L 36.585938 257.851562 L 36.46875 257.058594 L 38.089844 256.804688 L 38.765625 257.285156 L 39.382812 261.394531 L 38.742188 261.480469 L 38.902344 262.542969 L 39.542969 262.457031 L 40.21875 266.945312 L 39.710938 267.585938 L 38.085938 267.808594 L 37.964844 267.015625 L 36.695312 267.191406 L 36.8125 267.980469 L 35.191406 268.234375 L 34.515625 267.753906 L 33.832031 263.207031 L 34.472656 263.121094 L 34.3125 262.0625 L 33.671875 262.148438 L 33.0625 258.09375 Z M 33.570312 257.453125 "/>
<path style=" stroke:none;fill-rule:nonzero;fill:rgb(39.99939%,39.99939%,39.99939%);fill-opacity:0.3;" d="M 24.238281 258.675781 L 25.867188 258.457031 L 25.984375 259.246094 L 27.257812 259.074219 L 27.136719 258.28125 L 28.761719 258.027344 L 29.433594 258.507812 L 30.050781 262.617188 L 29.410156 262.703125 L 29.570312 263.765625 L 30.210938 263.679688 L 30.886719 268.171875 L 30.378906 268.8125 L 28.753906 269.03125 L 28.632812 268.242188 L 27.363281 268.414062 L 27.480469 269.203125 L 25.859375 269.457031 L 25.183594 268.976562 L 24.5 264.433594 L 25.140625 264.34375 L 24.984375 263.285156 L 24.34375 263.371094 L 23.734375 259.316406 Z M 24.238281 258.675781 "/>
<path style=" stroke:none;fill-rule:nonzero;fill:rgb(39.99939%,39.99939%,39.99939%);fill-opacity:0.3;" d="M 52.054688 289.761719 L 72.65625 286.96875 L 77.507812 320.75 L 57.058594 323.605469 Z M 52.054688 289.761719 "/>
<path style=" stroke:none;fill-rule:nonzero;fill:rgb(39.99939%,39.99939%,39.99939%);fill-opacity:0.3;" d="M 61.066406 253.726562 L 62.695312 253.507812 L 62.8125 254.296875 L 64.082031 254.125 L 63.964844 253.332031 L 65.585938 253.078125 L 66.261719 253.558594 L 66.878906 257.667969 L 66.238281 257.753906 L 66.398438 258.816406 L 67.039062 258.730469 L 67.714844 263.222656 L 67.207031 263.863281 L 65.582031 264.082031 L 65.460938 263.292969 L 64.191406 263.464844 L 64.308594 264.253906 L 62.6875 264.507812 L 62.011719 264.027344 L 61.328125 259.484375 L 61.96875 259.394531 L 61.808594 258.335938 L 61.167969 258.421875 L 60.558594 254.367188 Z M 61.066406 253.726562 "/>
<path style=" stroke:none;fill-rule:nonzero;fill:rgb(39.99939%,39.99939%,39.99939%);fill-opacity:0.3;" d="M 53.898438 254.699219 L 55.523438 254.476562 L 55.644531 255.269531 L 56.914062 255.09375 L 56.796875 254.304688 L 58.417969 254.050781 L 59.09375 254.53125 L 59.710938 258.640625 L 59.070312 258.726562 L 59.230469 259.789062 L 59.871094 259.699219 L 60.542969 264.191406 L 60.039062 264.832031 L 58.410156 265.054688 L 58.292969 264.261719 L 57.019531 264.433594 L 57.140625 265.226562 L 55.515625 265.480469 L 54.84375 265 L 54.160156 260.453125 L 54.800781 260.367188 L 54.640625 259.304688 L 54 259.394531 L 53.390625 255.339844 Z M 53.898438 254.699219 "/>
<path style=" stroke:none;fill-rule:nonzero;fill:rgb(39.99939%,39.99939%,39.99939%);fill-opacity:0.3;" d="M 47.15625 255.609375 L 48.785156 255.390625 L 48.902344 256.179688 L 50.171875 256.007812 L 50.054688 255.21875 L 51.675781 254.964844 L 52.351562 255.445312 L 52.96875 259.554688 L 52.328125 259.640625 L 52.488281 260.699219 L 53.128906 260.613281 L 53.804688 265.105469 L 53.296875 265.746094 L 51.671875 265.964844 L 51.550781 265.175781 L 50.28125 265.347656 L 50.398438 266.140625 L 48.777344 266.394531 L 48.101562 265.914062 L 47.417969 261.367188 L 48.058594 261.28125 L 47.902344 260.21875 L 47.257812 260.304688 L 46.648438 256.25 Z M 47.15625 255.609375 "/>
<path style=" stroke:none;fill-rule:nonzero;fill:rgb(39.99939%,39.99939%,39.99939%);fill-opacity:0.3;" d="M -84.695312 106.457031 L -26.972656 99.933594 L -23.382812 125.351562 L -22.132812 125 L -21.113281 124.710938 L -24.617188 99.667969 L -7.441406 97.753906 L -4.269531 122.222656 L -3.511719 122.125 L -2.84375 122.035156 L -5.976562 97.589844 L 5.515625 96.308594 L 8.183594 127.628906 L 9.316406 127.554688 L 10.128906 127.503906 L 7.394531 96.097656 L 45.527344 91.851562 L 52.957031 148.183594 L -7.261719 155.570312 L -7.144531 157 L -7.050781 158.15625 L 52.929688 150.785156 L 59.015625 195.574219 L 39.851562 198.457031 L -68.125 212.976562 Z M -84.695312 106.457031 "/>
<path style=" stroke:none;fill-rule:nonzero;fill:rgb(39.99939%,39.99939%,39.99939%);fill-opacity:0.3;" d="M 13.558594 32.175781 L 19.308594 30.539062 L 23.644531 29.789062 L 27.597656 29.953125 L 33.949219 31.121094 L 38.734375 33.550781 L 42.648438 36.203125 L 53.699219 45.164062 L 50.9375 56.835938 Z M 13.558594 32.175781 "/>
<path style=" stroke:none;fill-rule:nonzero;fill:rgb(39.99939%,39.99939%,39.99939%);fill-opacity:0.3;" d="M -30.207031 28.691406 L 9.757812 32.980469 L 50.144531 60.082031 L 43.199219 89.421875 L 4.613281 93.75 L 1.25 65.078125 L 0.453125 65.140625 L -0.347656 65.207031 L 2.9375 93.769531 L -22.609375 96.800781 Z M -30.207031 28.691406 "/>
<path style=" stroke:none;fill-rule:nonzero;fill:rgb(39.99939%,39.99939%,39.99939%);fill-opacity:0.3;" d="M 24.835938 -53.332031 L -18.296875 -1.074219 L -19.695312 0.460938 L -32.359375 16.261719 L -123.527344 6.054688 L -113.339844 -5.710938 L -105.585938 -0.617188 L -105.195312 -1.179688 L -104.800781 -1.738281 L -112.484375 -6.980469 L -85.8125 -38.449219 L -72.964844 -29.917969 L -72.5625 -25.128906 L -71.515625 -25.171875 L -70.46875 -25.21875 L -71.117188 -30.875 L -84.546875 -39.996094 L -80.335938 -45.023438 L -78.019531 -46.378906 L -34.699219 -98.46875 L -31.375 -95.8125 L -25.113281 -91.636719 L -23.441406 -89.964844 L -7.574219 -78.691406 L -5.070312 -76.605469 L -0.894531 -72.011719 L 7.039062 -65.746094 L 12.464844 -61.988281 L 20.816406 -56.144531 Z M 24.835938 -53.332031 "/>
<path style=" stroke:none;fill-rule:nonzero;fill:rgb(39.99939%,39.99939%,39.99939%);fill-opacity:0.3;" d="M -28.195312 16.949219 L 26.863281 -51.589844 L 72.074219 -12.125 L 60.285156 26.988281 Z M -28.195312 16.949219 "/>
<path style=" stroke:none;fill-rule:nonzero;fill:rgb(39.99939%,39.99939%,39.99939%);fill-opacity:0.3;" d="M -11.125 -257.417969 L 50.921875 -212.453125 L -58.535156 -76.144531 L -89.636719 -98.875 L -90.328125 -98.023438 L -91.015625 -97.171875 L -60.019531 -74.519531 L -80.679688 -49.367188 L -94.390625 -58.964844 L -95.703125 -57.496094 L -82.023438 -47.859375 L -126.785156 6.195312 L -217.851562 -2.035156 L -162.160156 -71.25 L -144.621094 -59.378906 L -143.929688 -60.4375 L -143.238281 -61.492188 L -160.277344 -73.164062 Z M -11.125 -257.417969 "/>
<g clip-path="url(#clip5)" clip-rule="nonzero">
<path style=" stroke:none;fill-rule:nonzero;fill:rgb(39.99939%,39.99939%,39.99939%);fill-opacity:0.3;" d="M 290.144531 337.011719 L 322.945312 337.242188 L 323.039062 372.414062 L 287.160156 372.296875 L 288.082031 353.910156 L 289.992188 352.601562 Z M 290.144531 337.011719 "/>
</g>
<path style=" stroke:none;fill-rule:nonzero;fill:rgb(39.99939%,39.99939%,39.99939%);fill-opacity:0.3;" d="M 322.421875 334.609375 L 322.417969 334.785156 L 305.203125 334.828125 L 305.199219 333.90625 Z M 322.421875 334.609375 "/>
<path style=" stroke:none;fill-rule:nonzero;fill:rgb(39.99939%,39.99939%,39.99939%);fill-opacity:0.3;" d="M 302.96875 333.855469 L 302.96875 334.675781 L 291.59375 334.339844 L 300.582031 333.855469 Z M 302.96875 333.855469 "/>
<g clip-path="url(#clip6)" clip-rule="nonzero">
<path style=" stroke:none;fill-rule:nonzero;fill:rgb(39.99939%,39.99939%,39.99939%);fill-opacity:0.3;" d="M 247.4375 336.132812 L 283.085938 336.917969 L 282.855469 371.089844 L 247.199219 370.304688 Z M 247.4375 336.132812 "/>
</g>
<path style=" stroke:none;fill-rule:nonzero;fill:rgb(39.99939%,39.99939%,39.99939%);fill-opacity:0.3;" d="M 125.246094 294.359375 L 161.882812 298.117188 L 160.917969 331.128906 L 125.324219 330.640625 Z M 125.246094 294.359375 "/>
<path style=" stroke:none;fill-rule:nonzero;fill:rgb(39.99939%,39.99939%,39.99939%);fill-opacity:0.3;" d="M 206.058594 302.804688 L 243.96875 306.574219 L 243.75 332.710938 L 205.296875 332.054688 Z M 206.058594 302.804688 "/>
<g clip-path="url(#clip7)" clip-rule="nonzero">
<path style=" stroke:none;fill-rule:nonzero;fill:rgb(39.99939%,39.99939%,39.99939%);fill-opacity:0.3;" d="M 86.238281 332.390625 L 121.378906 333.917969 L 121.214844 368.644531 L 92.640625 367.460938 Z M 86.238281 332.390625 "/>
</g>
<g clip-path="url(#clip8)" clip-rule="nonzero">
<path style=" stroke:none;fill-rule:nonzero;fill:rgb(39.99939%,39.99939%,39.99939%);fill-opacity:0.3;" d="M 326.082031 336.925781 L 360.5 337.925781 L 360.59375 346.398438 L 343.492188 346.074219 L 343.449219 346.546875 L 343.410156 347.015625 L 360.59375 347.304688 L 360.542969 359.769531 L 360.304688 372.660156 L 325.882812 371.96875 Z M 326.082031 336.925781 "/>
</g>
<path style=" stroke:none;fill-rule:nonzero;fill:rgb(39.99939%,39.99939%,39.99939%);fill-opacity:0.3;" d="M 80.722656 289.761719 L 120.871094 293.949219 L 121.089844 320.425781 L 102.972656 319.738281 L 102.933594 320.753906 L 121.054688 321.527344 L 121.109375 330.277344 L 85.761719 329.902344 L 84.617188 316.542969 L 97.976562 316.539062 L 98.046875 316.027344 L 98.113281 315.515625 L 84.480469 315.007812 Z M 80.722656 289.761719 "/>
<g clip-path="url(#clip9)" clip-rule="nonzero">
<path style=" stroke:none;fill-rule:nonzero;fill:rgb(39.99939%,39.99939%,39.99939%);fill-opacity:0.3;" d="M 204.734375 334 L 229.503906 335.0625 L 230.292969 349.265625 L 230.910156 349.273438 L 231.609375 349.285156 L 230.878906 334.996094 L 243.46875 335.308594 L 243.0625 369.957031 L 204.507812 369.78125 L 204.847656 356.828125 L 216.738281 356.8125 L 216.738281 355.445312 L 204.691406 355.507812 L 204.972656 344.117188 L 218.605469 344.410156 L 218.589844 343.589844 L 218.570312 342.769531 L 204.949219 342.398438 Z M 204.734375 334 "/>
</g>
<g clip-path="url(#clip10)" clip-rule="nonzero">
<path style=" stroke:none;fill-rule:nonzero;fill:rgb(39.99939%,39.99939%,39.99939%);fill-opacity:0.3;" d="M 180.746094 335.25 L 201.242188 335.703125 L 200.535156 370.636719 L 163.269531 369.039062 L 163.871094 352.671875 L 187.699219 352.9375 L 187.625 352.007812 L 187.574219 351.097656 L 180.492188 351.035156 L 164.335938 350.820312 L 164.441406 334.890625 Z M 180.746094 335.25 "/>
</g>
<path style=" stroke:none;fill-rule:nonzero;fill:rgb(39.99939%,39.99939%,39.99939%);fill-opacity:0.3;" d="M 165.640625 298.535156 L 202.335938 302.40625 L 202.003906 332.210938 L 164.953125 331.363281 Z M 165.640625 298.535156 "/>
<path style=" stroke:none;fill-rule:nonzero;fill:rgb(39.99939%,39.99939%,39.99939%);fill-opacity:0.3;" d="M 247.167969 307.582031 L 264.796875 309.003906 L 282.90625 311.308594 L 282.449219 332.832031 L 264.09375 332.40625 L 264.21875 320.003906 L 263.492188 320.011719 L 262.765625 320.023438 L 262.191406 332.40625 L 246.671875 332.3125 Z M 247.167969 307.582031 "/>
<g clip-path="url(#clip11)" clip-rule="nonzero">
<path style=" stroke:none;fill-rule:nonzero;fill:rgb(39.99939%,39.99939%,39.99939%);fill-opacity:0.3;" d="M 124.871094 334.015625 L 160.675781 334.804688 L 159.886719 368.964844 L 123.574219 368.164062 L 123.816406 351.347656 L 138.707031 352.320312 L 138.691406 351.214844 L 138.675781 350.210938 L 124.160156 349.242188 Z M 124.871094 334.015625 "/>
</g>
<path style=" stroke:none;fill-rule:nonzero;fill:rgb(39.99939%,39.99939%,39.99939%);fill-opacity:0.3;" d="M 288.320312 298.246094 L 323.046875 297.992188 L 322.421875 334.609375 L 305.199219 333.90625 L 305.15625 324.378906 L 302.96875 324.371094 L 302.96875 333.855469 L 300.582031 333.855469 L 291.59375 334.339844 L 287.601562 334.222656 Z M 288.320312 298.246094 "/>
<path style=" stroke:none;fill-rule:nonzero;fill:rgb(39.99939%,39.99939%,39.99939%);fill-opacity:0.3;" d="M 288.15625 261.492188 L 323.414062 260.535156 L 322.777344 295.796875 L 288.277344 296.253906 Z M 288.15625 261.492188 "/>
<path style=" stroke:none;fill-rule:nonzero;fill:rgb(39.99939%,39.99939%,39.99939%);fill-opacity:0.3;" d="M 284.464844 168.960938 L 285.128906 168.851562 L 284.828125 181.789062 Z M 284.464844 168.960938 "/>
<path style=" stroke:none;fill-rule:nonzero;fill:rgb(39.99939%,39.99939%,39.99939%);fill-opacity:0.3;" d="M 300.972656 166.335938 L 319.832031 162.800781 L 317.378906 258.457031 L 287.972656 259.246094 L 288.671875 198.859375 L 288.597656 168.359375 Z M 300.972656 166.335938 "/>
<g clip-path="url(#clip12)" clip-rule="nonzero">
<path style=" stroke:none;fill-rule:nonzero;fill:rgb(39.99939%,39.99939%,39.99939%);fill-opacity:0.3;" d="M 323.144531 162.683594 L 361.128906 156.785156 L 360.0625 258.003906 L 320.261719 258.144531 Z M 323.144531 162.683594 "/>
</g>
<g clip-path="url(#clip13)" clip-rule="nonzero">
<path style=" stroke:none;fill-rule:nonzero;fill:rgb(39.99939%,39.99939%,39.99939%);fill-opacity:0.3;" d="M 326.796875 260.617188 L 360.59375 260.867188 L 360.933594 295.398438 L 325.820312 296.210938 Z M 326.796875 260.617188 "/>
</g>
<g clip-path="url(#clip14)" clip-rule="nonzero">
<path style=" stroke:none;fill-rule:nonzero;fill:rgb(39.99939%,39.99939%,39.99939%);fill-opacity:0.3;" d="M 326.703125 298.105469 L 360.523438 298.113281 L 360.257812 325.785156 L 360.257812 327.078125 L 360.261719 335.457031 L 326.480469 334.710938 Z M 326.703125 298.105469 "/>
</g>
<path style=" stroke:none;fill-rule:nonzero;fill:rgb(39.99939%,39.99939%,39.99939%);fill-opacity:0.3;" d="M 135.078125 48.230469 L 135.257812 42.988281 L 137.421875 30.925781 L 144.464844 26.382812 L 149.074219 27.078125 L 150.175781 21.457031 L 162.851562 14.140625 L 178.914062 16.585938 L 190.417969 19.046875 L 194.59375 20.671875 L 200.601562 26.464844 L 204.164062 26.867188 L 201.386719 41.453125 L 195.550781 62.757812 Z M 135.078125 48.230469 "/>
<path style=" stroke:none;fill-rule:nonzero;fill:rgb(39.99939%,39.99939%,39.99939%);fill-opacity:0.3;" d="M 202.992188 42.945312 L 222.535156 46.824219 L 217.261719 67.671875 L 197.976562 63.054688 Z M 202.992188 42.945312 "/>
<path style=" stroke:none;fill-rule:nonzero;fill:rgb(39.99939%,39.99939%,39.99939%);fill-opacity:0.3;" d="M 266.46875 44.964844 L 273.957031 46.445312 L 274.109375 47.46875 L 296.144531 51.679688 L 291.230469 69.058594 L 260.789062 63.609375 Z M 266.46875 44.964844 "/>
<path style=" stroke:none;fill-rule:nonzero;fill:rgb(39.99939%,39.99939%,39.99939%);fill-opacity:0.3;" d="M 284.476562 32.339844 L 283.519531 32.246094 L 282.4375 36.929688 L 280.15625 38.167969 L 277.082031 38.363281 L 276.441406 45.757812 L 266.761719 43.757812 L 277.117188 11.546875 L 283.972656 8.128906 L 306.089844 13.980469 L 301.773438 28.441406 L 314.175781 31.453125 L 309.636719 47.957031 L 313.199219 48.46875 L 307.425781 71.691406 L 293.136719 69.367188 L 298.320312 50.28125 L 277.851562 46.050781 L 278.617188 39.820312 L 280.871094 39.722656 L 283.125 38.554688 L 284.355469 37.195312 L 285.378906 32.429688 Z M 284.476562 32.339844 "/>
<path style=" stroke:none;fill-rule:nonzero;fill:rgb(39.99939%,39.99939%,39.99939%);fill-opacity:0.3;" d="M 121.054688 -162.527344 L 124.640625 -166.3125 L 130.226562 -167.828125 L 133.617188 -166.316406 L 182.183594 -139.230469 L 167.890625 -92.953125 L 177.601562 -89.785156 L 233.011719 -72.222656 L 227.019531 -55.894531 L 174.238281 -72.929688 L 173.8125 -71.953125 L 173.335938 -70.617188 L 225.777344 -53.765625 L 223.042969 -45.355469 L 184.632812 -57.191406 L 184.289062 -56.152344 L 183.871094 -55.085938 L 222.273438 -43.207031 L 218.890625 -34.195312 L 163.070312 -52.78125 L 162.414062 -51.867188 L 161.785156 -50.832031 L 218.65625 -32.21875 L 216.378906 -26.144531 L 199.234375 -31.304688 L 198.792969 -30.390625 L 198.410156 -29.566406 L 215.671875 -24.253906 L 208 -3.773438 L 186.894531 -8.445312 L 182.597656 15.539062 L 163.910156 12.128906 L 160.640625 11.953125 L 157.128906 13.621094 L 149.941406 6.367188 L 151.460938 -11.996094 L 148.992188 -12.183594 L 147.457031 4.882812 L 127.28125 -1.839844 L 128.78125 -12.714844 L 127.332031 -12.988281 L 125.695312 -13.300781 L 124.226562 -2.445312 L 119.679688 -3.027344 L 119.953125 -5.992188 L 104.511719 -8.855469 L 104.277344 -7.21875 L 86.917969 -9.421875 L 86.75 -8.496094 L 76.644531 -10.117188 L 91.332031 -56.140625 L 101.726562 -93.65625 L 100.53125 -94.226562 Z M 121.054688 -162.527344 "/>
<path style=" stroke:none;fill-rule:nonzero;fill:rgb(39.99939%,39.99939%,39.99939%);fill-opacity:0.3;" d="M 304.355469 27.3125 L 308.316406 14.144531 L 340.496094 21.667969 L 330.941406 75.511719 L 309.359375 72.003906 L 315.132812 47.199219 L 311.925781 46.671875 L 316.222656 31.160156 L 316.820312 25.828125 L 314.8125 25.679688 L 314.492188 29.757812 Z M 304.355469 27.3125 "/>
<path style=" stroke:none;fill-rule:nonzero;fill:rgb(39.99939%,39.99939%,39.99939%);fill-opacity:0.3;" d="M 313.292969 -76.109375 L 353.671875 -63.878906 L 345.773438 -43.675781 L 317.695312 -50.800781 L 317.007812 -48.644531 L 345.171875 -41.210938 L 341.675781 -33.191406 L 340.984375 -28.449219 L 340.84375 -25.027344 L 323.210938 -28.578125 L 323.140625 -27.589844 L 323.074219 -26.601562 L 340.984375 -22.65625 L 342.375 -13.828125 L 345.070312 -4.667969 L 340.496094 19.464844 L 285.589844 6.351562 L 294.824219 -23.269531 Z M 313.292969 -76.109375 "/>
<path style=" stroke:none;fill-rule:nonzero;fill:rgb(39.99939%,39.99939%,39.99939%);fill-opacity:0.3;" d="M 209.089844 -0.992188 L 235.625 8.078125 L 226.859375 36.691406 L 222.839844 44.996094 L 203.300781 40.898438 L 206.007812 25.644531 Z M 209.089844 -0.992188 "/>
<path style=" stroke:none;fill-rule:nonzero;fill:rgb(39.99939%,39.99939%,39.99939%);fill-opacity:0.3;" d="M 278.328125 68.34375 L 307.539062 73.207031 L 306.128906 82.460938 L 276.625 77.671875 L 263.898438 75.714844 L 266.011719 66.460938 Z M 278.328125 68.34375 "/>
<path style=" stroke:none;fill-rule:nonzero;fill:rgb(39.99939%,39.99939%,39.99939%);fill-opacity:0.3;" d="M 246.222656 -30.53125 L 246.714844 -32.117188 L 224.75 -38.972656 L 226.027344 -42.4375 L 291.683594 -21.945312 L 282.941406 6.183594 L 277.292969 7.835938 L 244.84375 0.628906 L 242.386719 7.59375 L 238.183594 6.675781 L 237.652344 5.929688 L 227.578125 2.316406 L 229.828125 -6.15625 L 228.996094 -6.371094 L 227.964844 -6.628906 L 225.667969 1.628906 L 211.429688 -2.921875 L 223.695312 -36.117188 L 245.816406 -29.214844 Z M 246.222656 -30.53125 "/>
<path style=" stroke:none;fill-rule:nonzero;fill:rgb(39.99939%,39.99939%,39.99939%);fill-opacity:0.3;" d="M 247.484375 4.011719 L 275.738281 9.410156 L 262.097656 50.339844 L 259.871094 51.78125 L 257.742188 50.75 L 254.839844 45.59375 L 251.691406 40.128906 L 248.707031 33.957031 L 246.796875 28.8125 L 245.179688 13.296875 L 244.042969 6.878906 L 245.105469 4.511719 Z M 247.484375 4.011719 "/>
<path style=" stroke:none;fill-rule:nonzero;fill:rgb(39.99939%,39.99939%,39.99939%);fill-opacity:0.3;" d="M 64.921875 29.597656 L 76.105469 -7.9375 L 98.804688 -4.527344 L 96.320312 9.382812 L 97.613281 9.617188 L 98.714844 9.820312 L 101.613281 -5.386719 L 112.648438 -3.492188 L 112.46875 -2.160156 L 124.148438 -0.53125 L 146.535156 7.417969 L 155.472656 15.367188 L 145.800781 23.410156 L 143.960938 23.234375 L 142.441406 24.632812 L 135.488281 29.703125 L 130.839844 47.183594 Z M 64.921875 29.597656 "/>
<path style=" stroke:none;fill-rule:nonzero;fill:rgb(39.99939%,39.99939%,39.99939%);fill-opacity:0.3;" d="M 188.582031 -6.660156 L 207.464844 -2.066406 L 204.523438 25.476562 L 201.558594 25.097656 L 200.261719 22.503906 L 193.144531 17.441406 L 184.347656 15.101562 Z M 188.582031 -6.660156 "/>
<path style=" stroke:none;fill-rule:nonzero;fill:rgb(39.99939%,39.99939%,39.99939%);fill-opacity:0.3;" d="M 238.210938 71.566406 L 219.152344 67.96875 L 225.371094 43.3125 L 228.914062 36.660156 L 236.460938 10.886719 L 239.738281 11.203125 L 243.109375 11.441406 L 244.046875 15.941406 L 245.453125 29.414062 L 247.441406 34.644531 L 250.335938 40.472656 L 253.902344 47.179688 L 256.679688 53.222656 L 259.207031 58.015625 L 258.054688 64.082031 L 251.121094 63.035156 L 249.265625 73.652344 L 245.3125 72.851562 Z M 238.210938 71.566406 "/>
<path style=" stroke:none;fill-rule:nonzero;fill:rgb(39.99939%,39.99939%,39.99939%);fill-opacity:0.3;" d="M 321.195312 91.003906 L 319.351562 98.921875 L 318.535156 99.367188 Z M 321.195312 91.003906 "/>
<path style=" stroke:none;fill-rule:nonzero;fill:rgb(39.99939%,39.99939%,39.99939%);fill-opacity:0.3;" d="M 302.691406 149.113281 L 301.375 155.984375 L 300.480469 156.066406 Z M 302.691406 149.113281 "/>
<g clip-path="url(#clip15)" clip-rule="nonzero">
<path style=" stroke:none;fill-rule:nonzero;fill:rgb(39.99939%,39.99939%,39.99939%);fill-opacity:0.3;" d="M 323.757812 88.167969 L 341.132812 91.214844 L 346.210938 91.390625 L 352.707031 90.597656 L 376.066406 85.425781 L 390.527344 81.679688 L 396.3125 80.152344 L 412.5625 74.980469 L 432.328125 135.464844 L 407.414062 138.925781 L 374.546875 144.585938 L 373.71875 110.953125 L 372.851562 110.96875 L 372.089844 110.980469 L 372.9375 144.863281 L 358.882812 146.5625 L 358.804688 120.0625 L 358.015625 120.105469 L 357.144531 120.175781 L 357.367188 147.1875 L 303.335938 155.390625 L 307.429688 134.238281 L 317.710938 101.949219 L 320.625 100.582031 Z M 323.757812 88.167969 "/>
</g>
<path style=" stroke:none;fill-rule:nonzero;fill:rgb(39.99939%,39.99939%,39.99939%);fill-opacity:0.3;" d="M 288.390625 82.632812 L 322.011719 87.503906 L 321.195312 91.003906 L 318.535156 99.367188 L 311.484375 103.203125 L 302.691406 149.113281 L 300.480469 156.066406 L 286.675781 157.296875 Z M 288.390625 82.632812 "/>
<path style=" stroke:none;fill-rule:nonzero;fill:rgb(39.99939%,39.99939%,39.99939%);fill-opacity:0.3;" d="M 309.0625 74.070312 L 330.527344 77.558594 L 328.605469 86.40625 L 307.664062 83.226562 Z M 309.0625 74.070312 "/>
<path style=" stroke:none;fill-rule:nonzero;fill:rgb(39.99939%,39.99939%,39.99939%);fill-opacity:0.3;" d="M 208.277344 94.078125 L 210.890625 93.660156 L 215.710938 70.125 L 234.601562 73.832031 L 225.394531 117.941406 L 226.949219 118.214844 L 228.5 118.488281 L 236.886719 74.285156 L 254.664062 77.820312 L 233.730469 164.804688 L 226.613281 166.859375 L 212.625 167.234375 L 219.726562 124.007812 L 216.96875 123.789062 L 210.113281 166.789062 L 202.011719 165.71875 L 204.476562 148.925781 L 203.511719 148.824219 L 202.410156 148.710938 L 200.203125 165.273438 L 182.660156 163.277344 Z M 208.277344 94.078125 "/>
<path style=" stroke:none;fill-rule:nonzero;fill:rgb(39.99939%,39.99939%,39.99939%);fill-opacity:0.3;" d="M 102.472656 149.042969 L 106.628906 126.492188 L 123.882812 48.757812 L 146.796875 54.402344 L 142.425781 70.136719 L 139.671875 77.765625 L 135.175781 88.300781 L 116.273438 153.972656 L 109.988281 152.980469 Z M 102.472656 149.042969 "/>
<path style=" stroke:none;fill-rule:nonzero;fill:rgb(39.99939%,39.99939%,39.99939%);fill-opacity:0.3;" d="M 145.179688 157.941406 L 164.195312 77.675781 L 176.53125 79.703125 L 160.152344 160.289062 Z M 145.179688 157.941406 "/>
<path style=" stroke:none;fill-rule:nonzero;fill:rgb(39.99939%,39.99939%,39.99939%);fill-opacity:0.3;" d="M 118.292969 154.46875 L 136.339844 90.476562 L 139.320312 82.226562 L 141.28125 79.074219 L 144.628906 69.449219 L 148.535156 54.832031 L 180.898438 62.804688 L 178.8125 75.40625 L 177 78.355469 L 162.871094 76.195312 L 143.273438 157.726562 Z M 118.292969 154.46875 "/>
<path style=" stroke:none;fill-rule:nonzero;fill:rgb(39.99939%,39.99939%,39.99939%);fill-opacity:0.3;" d="M 161.820312 160.554688 L 164.367188 143.972656 L 176.828125 82.746094 L 180.0625 76.683594 L 184.191406 62.722656 L 188.78125 63.972656 L 186.960938 74.175781 L 188.386719 74.371094 L 189.582031 74.53125 L 191.476562 64.679688 L 213.394531 68.984375 L 208.820312 92.136719 L 206.742188 93.105469 L 180.550781 162.84375 Z M 161.820312 160.554688 "/>
<path style=" stroke:none;fill-rule:nonzero;fill:rgb(39.99939%,39.99939%,39.99939%);fill-opacity:0.3;" d="M 285.449219 82.242188 L 282.332031 158.511719 L 240.808594 163.019531 L 256.738281 91.105469 L 260.039062 91.214844 L 261.738281 81.605469 L 259.210938 81.148438 L 260.035156 78.128906 Z M 285.449219 82.242188 "/>
<path style=" stroke:none;fill-rule:nonzero;fill:rgb(39.99939%,39.99939%,39.99939%);fill-opacity:0.3;" d="M 307.429688 134.238281 L 313.273438 104.035156 L 317.710938 101.949219 Z M 307.429688 134.238281 "/>
<path style=" stroke:none;fill-rule:nonzero;fill:rgb(39.99939%,39.99939%,39.99939%);fill-opacity:0.3;" d="M 63.503906 38.453125 L 65.296875 33.019531 L 97.117188 42.164062 L 77.835938 116.105469 L 72.929688 73.691406 L 72.539062 65.75 L 70.699219 58.777344 L 67.902344 52.164062 L 62.234375 42.367188 Z M 63.503906 38.453125 "/>
<path style=" stroke:none;fill-rule:nonzero;fill:rgb(39.99939%,39.99939%,39.99939%);fill-opacity:0.3;" d="M 77.105469 124.160156 L 98.917969 42.609375 L 121.605469 48.199219 L 114.320312 82.492188 L 104.148438 126.898438 L 100.339844 148.34375 L 95.050781 144.175781 L 90.757812 141.019531 L 85.390625 136.335938 L 81.742188 132.671875 L 78.949219 128.398438 Z M 77.105469 124.160156 "/>
<path style=" stroke:none;fill-rule:nonzero;fill:rgb(39.99939%,39.99939%,39.99939%);fill-opacity:0.3;" d="M 108.140625 161.921875 L 122.046875 162.394531 L 119.839844 290.324219 L 105.84375 288.824219 Z M 108.140625 161.921875 "/>
<path style=" stroke:none;fill-rule:nonzero;fill:rgb(39.99939%,39.99939%,39.99939%);fill-opacity:0.3;" d="M 207.535156 172.945312 L 221.742188 174.574219 L 217.730469 300.796875 L 201.304688 299.039062 Z M 207.535156 172.945312 "/>
<path style=" stroke:none;fill-rule:nonzero;fill:rgb(39.99939%,39.99939%,39.99939%);fill-opacity:0.3;" d="M 223.066406 265.085938 L 250.074219 265.808594 L 249.519531 295.828125 L 241.683594 295.621094 L 241.6875 296.40625 L 241.683594 297.101562 L 249.488281 297.375 L 249.1875 305.050781 L 221.902344 302.175781 Z M 223.066406 265.085938 "/>
<path style=" stroke:none;fill-rule:nonzero;fill:rgb(39.99939%,39.99939%,39.99939%);fill-opacity:0.3;" d="M 225.5625 196.148438 L 225.992188 174.953125 L 238.285156 175.222656 L 248.160156 174.566406 L 264.929688 172.167969 L 284.464844 168.960938 L 284.828125 181.789062 L 281.882812 308.570312 L 252.941406 306.011719 L 253.023438 294.066406 L 257.742188 293.996094 L 257.738281 293.277344 L 257.738281 292.5625 L 253.050781 292.566406 L 253.316406 278.480469 L 270.472656 278.3125 L 270.449219 277.601562 L 270.421875 276.890625 L 253.335938 276.984375 L 253.394531 271.957031 L 260.273438 271.957031 L 260.273438 270.765625 L 253.519531 270.765625 L 253.585938 266.390625 L 253.632812 263.128906 L 253.855469 240.613281 L 252.265625 240.574219 L 250.371094 240.527344 L 250.152344 261.539062 L 223.171875 261.035156 L 225.171875 215.65625 L 251.304688 216.214844 L 251.328125 215.222656 L 251.34375 214.347656 L 225.210938 213.53125 L 225.398438 204.292969 Z M 225.5625 196.148438 "/>
<path style=" stroke:none;fill-rule:nonzero;fill:rgb(39.99939%,39.99939%,39.99939%);fill-opacity:0.3;" d="M 87.496094 156.921875 L 106.394531 160.066406 L 103.199219 288.542969 L 84.46875 286.539062 Z M 87.496094 156.921875 "/>
<path style=" stroke:none;fill-rule:nonzero;fill:rgb(39.99939%,39.99939%,39.99939%);fill-opacity:0.3;" d="M 143.40625 164.648438 L 179.429688 168.753906 L 178.683594 210.726562 L 158.546875 209.535156 L 158.546875 211.414062 L 178.652344 212.363281 L 178.226562 236.046875 L 152.140625 235.054688 L 152.097656 236.136719 L 152.054688 237.222656 L 178.1875 238.164062 L 178.042969 246.179688 L 149.464844 245.042969 L 149.464844 247.054688 L 178.007812 248.285156 L 177.136719 296.453125 L 141.003906 292.585938 Z M 143.40625 164.648438 "/>
<path style=" stroke:none;fill-rule:nonzero;fill:rgb(39.99939%,39.99939%,39.99939%);fill-opacity:0.3;" d="M 125.179688 163.726562 L 141.339844 164.523438 L 137.539062 291.957031 L 122.523438 290.351562 Z M 125.179688 163.726562 "/>
<path style=" stroke:none;fill-rule:nonzero;fill:rgb(39.99939%,39.99939%,39.99939%);fill-opacity:0.3;" d="M 182.6875 169.441406 L 204.515625 172.617188 L 199.042969 298.796875 L 179.191406 296.671875 Z M 182.6875 169.441406 "/>
<path style=" stroke:none;fill-rule:nonzero;fill:rgb(39.99939%,39.99939%,39.99939%);fill-opacity:0.3;" d="M 67.617188 84.550781 L 51.664062 85.714844 L 51.429688 80.695312 L 58.6875 51.429688 L 60.308594 53.121094 L 62.710938 56.492188 L 65.066406 62.96875 L 66.496094 71.828125 L 67.003906 77.886719 Z M 67.617188 84.550781 "/>
<path style=" stroke:none;fill-rule:nonzero;fill:rgb(39.99939%,39.99939%,39.99939%);fill-opacity:0.3;" d="M 56.457031 124.828125 L 69.855469 124.421875 L 73.476562 133.691406 L 78.320312 139.257812 L 83.832031 144.621094 L 88.648438 147.21875 L 96.105469 151.894531 L 106.179688 157.105469 L 106.054688 157.699219 L 84.886719 154.039062 L 81.839844 286.539062 L 80.714844 286.519531 L 79.5625 285.886719 Z M 56.457031 124.828125 "/>
<g clip-path="url(#clip16)" clip-rule="nonzero">
<path style=" stroke:none;fill-rule:nonzero;fill:rgb(39.99939%,39.99939%,39.99939%);fill-opacity:0.3;" d="M 332.75 77.332031 L 362.097656 82.6875 L 361.984375 85.292969 L 355.230469 87.640625 L 350.335938 88.617188 L 344.265625 88.675781 L 331.160156 86.546875 Z M 332.75 77.332031 "/>
</g>
<g clip-path="url(#clip17)" clip-rule="nonzero">
<path style=" stroke:none;fill-rule:nonzero;fill:rgb(39.99939%,39.99939%,39.99939%);fill-opacity:0.3;" d="M 343.128906 22.164062 L 360.550781 26.664062 L 347.890625 77.75 L 334.007812 74.929688 Z M 343.128906 22.164062 "/>
</g>
<g clip-path="url(#clip18)" clip-rule="nonzero">
<path style=" stroke:none;fill-rule:nonzero;fill:rgb(39.99939%,39.99939%,39.99939%);fill-opacity:0.3;" d="M 366.902344 8.601562 L 385.273438 11.8125 L 381.738281 39.933594 L 380.664062 51.597656 L 379.433594 64.480469 L 380.347656 80.148438 L 367.199219 81.9375 L 349.574219 78.003906 Z M 366.902344 8.601562 "/>
</g>
<g clip-path="url(#clip19)" clip-rule="nonzero">
<path style=" stroke:none;fill-rule:nonzero;fill:rgb(39.99939%,39.99939%,39.99939%);fill-opacity:0.3;" d="M 359.957031 -67.398438 L 367.078125 -65.207031 L 356.796875 -36.265625 L 358.113281 -35.871094 L 359.433594 -35.476562 L 369.664062 -64.152344 L 373.367188 -62.960938 L 357.066406 -10.582031 L 358.128906 -10.296875 L 359.195312 -10.015625 L 376.027344 -62.261719 L 388.351562 -58.273438 L 373.820312 -15.359375 L 374.996094 -14.929688 L 376.167969 -14.496094 L 390.867188 -57.457031 L 437.886719 -42.242188 L 426.496094 -15.464844 L 423.242188 -9.34375 L 419.304688 -2.21875 L 414.609375 5.226562 L 413.21875 7.453125 L 411.636719 12.320312 L 388.683594 9.851562 L 365.179688 5.445312 L 366.714844 -0.0703125 L 365.59375 -0.207031 L 364.542969 -0.339844 L 363.320312 5.445312 L 347.382812 1.796875 L 348.488281 -4.476562 L 345.152344 -14.882812 L 344.011719 -22.679688 L 344.316406 -29.636719 L 345.285156 -34.511719 L 356.675781 -63.472656 Z M 359.957031 -67.398438 "/>
</g>
<g clip-path="url(#clip20)" clip-rule="nonzero">
<path style=" stroke:none;fill-rule:nonzero;fill:rgb(39.99939%,39.99939%,39.99939%);fill-opacity:0.3;" d="M 346.675781 4.214844 L 365.722656 8.46875 L 361.105469 25.253906 L 343.132812 20.773438 Z M 346.675781 4.214844 "/>
</g>
<path style="fill-rule:nonzero;fill:rgb(39.99939%,39.99939%,39.99939%);fill-opacity:1;stroke-width:0.03;stroke-linecap:square;stroke-linejoin:miter;stroke:rgb(39.99939%,39.99939%,39.99939%);stroke-opacity:1;stroke-miterlimit:3.239307;" d="M 182.140625 174.921875 L 196.046875 175.394531 L 193.839844 303.324219 L 179.84375 301.824219 Z M 182.140625 174.921875 " transform="matrix(1,0,0,1,-74,-13)"/>
<path style="fill-rule:nonzero;fill:rgb(39.99939%,39.99939%,39.99939%);fill-opacity:1;stroke-width:0.03;stroke-linecap:square;stroke-linejoin:miter;stroke:rgb(39.99939%,39.99939%,39.99939%);stroke-opacity:1;stroke-miterlimit:3.239307;" d="M 281.535156 185.945312 L 295.742188 187.574219 L 291.730469 313.796875 L 275.304688 312.039062 Z M 281.535156 185.945312 " transform="matrix(1,0,0,1,-74,-13)"/>
<path style="fill-rule:nonzero;fill:rgb(39.99939%,39.99939%,39.99939%);fill-opacity:1;stroke-width:0.03;stroke-linecap:square;stroke-linejoin:miter;stroke:rgb(39.99939%,39.99939%,39.99939%);stroke-opacity:1;stroke-miterlimit:3.239307;" d="M 297.066406 278.085938 L 324.074219 278.808594 L 323.519531 308.828125 L 315.683594 308.621094 L 315.6875 309.40625 L 315.683594 310.101562 L 323.488281 310.375 L 323.1875 318.050781 L 295.902344 315.175781 Z M 297.066406 278.085938 " transform="matrix(1,0,0,1,-74,-13)"/>
<path style="fill-rule:nonzero;fill:rgb(39.99939%,39.99939%,39.99939%);fill-opacity:1;stroke-width:0.03;stroke-linecap:square;stroke-linejoin:miter;stroke:rgb(39.99939%,39.99939%,39.99939%);stroke-opacity:1;stroke-miterlimit:3.239307;" d="M 299.5625 209.148438 L 299.992188 187.953125 L 312.285156 188.222656 L 322.160156 187.566406 L 338.929688 185.167969 L 358.464844 181.960938 L 358.828125 194.789062 L 355.882812 321.570312 L 326.941406 319.011719 L 327.023438 307.066406 L 331.742188 306.996094 L 331.738281 306.277344 L 331.738281 305.5625 L 327.050781 305.566406 L 327.316406 291.480469 L 344.472656 291.3125 L 344.449219 290.601562 L 344.421875 289.890625 L 327.335938 289.984375 L 327.394531 284.957031 L 334.273438 284.957031 L 334.273438 283.765625 L 327.519531 283.765625 L 327.585938 279.390625 L 327.632812 276.128906 L 327.855469 253.613281 L 326.265625 253.574219 L 324.371094 253.527344 L 324.152344 274.539062 L 297.171875 274.035156 L 299.171875 228.65625 L 325.304688 229.214844 L 325.328125 228.222656 L 325.34375 227.347656 L 299.210938 226.53125 L 299.398438 217.292969 Z M 299.5625 209.148438 " transform="matrix(1,0,0,1,-74,-13)"/>
<path style="fill-rule:nonzero;fill:rgb(39.99939%,39.99939%,39.99939%);fill-opacity:1;stroke-width:0.03;stroke-linecap:square;stroke-linejoin:miter;stroke:rgb(39.99939%,39.99939%,39.99939%);stroke-opacity:1;stroke-miterlimit:3.239307;" d="M 161.496094 169.921875 L 180.394531 173.066406 L 177.199219 301.542969 L 158.46875 299.539062 Z M 161.496094 169.921875 " transform="matrix(1,0,0,1,-74,-13)"/>
<path style="fill-rule:nonzero;fill:rgb(39.99939%,39.99939%,39.99939%);fill-opacity:1;stroke-width:0.03;stroke-linecap:square;stroke-linejoin:miter;stroke:rgb(39.99939%,39.99939%,39.99939%);stroke-opacity:1;stroke-miterlimit:3.239307;" d="M 217.40625 177.648438 L 253.429688 181.753906 L 252.683594 223.726562 L 232.546875 222.535156 L 232.546875 224.414062 L 252.652344 225.363281 L 252.226562 249.046875 L 226.140625 248.054688 L 226.097656 249.136719 L 226.054688 250.222656 L 252.1875 251.164062 L 252.042969 259.179688 L 223.464844 258.042969 L 223.464844 260.054688 L 252.007812 261.285156 L 251.136719 309.453125 L 215.003906 305.585938 Z M 217.40625 177.648438 " transform="matrix(1,0,0,1,-74,-13)"/>
<path style="fill-rule:nonzero;fill:rgb(39.99939%,39.99939%,39.99939%);fill-opacity:1;stroke-width:0.03;stroke-linecap:square;stroke-linejoin:miter;stroke:rgb(39.99939%,39.99939%,39.99939%);stroke-opacity:1;stroke-miterlimit:3.239307;" d="M 199.179688 176.726562 L 215.339844 177.523438 L 211.539062 304.957031 L 196.523438 303.351562 Z M 199.179688 176.726562 " transform="matrix(1,0,0,1,-74,-13)"/>
<path style="fill-rule:nonzero;fill:rgb(39.99939%,39.99939%,39.99939%);fill-opacity:1;stroke-width:0.03;stroke-linecap:square;stroke-linejoin:miter;stroke:rgb(39.99939%,39.99939%,39.99939%);stroke-opacity:1;stroke-miterlimit:3.239307;" d="M 256.6875 182.441406 L 278.515625 185.617188 L 273.042969 311.796875 L 253.191406 309.671875 Z M 256.6875 182.441406 " transform="matrix(1,0,0,1,-74,-13)"/>
<path style="fill-rule:nonzero;fill:rgb(39.99939%,39.99939%,39.99939%);fill-opacity:1;stroke-width:0.03;stroke-linecap:square;stroke-linejoin:miter;stroke:rgb(39.99939%,39.99939%,39.99939%);stroke-opacity:1;stroke-miterlimit:3.239307;" d="M 141.617188 97.550781 L 125.664062 98.714844 L 125.429688 93.695312 L 132.6875 64.429688 L 134.308594 66.121094 L 136.710938 69.492188 L 139.066406 75.96875 L 140.496094 84.828125 L 141.003906 90.886719 Z M 141.617188 97.550781 " transform="matrix(1,0,0,1,-74,-13)"/>
<path style="fill-rule:nonzero;fill:rgb(39.99939%,39.99939%,39.99939%);fill-opacity:1;stroke-width:0.03;stroke-linecap:square;stroke-linejoin:miter;stroke:rgb(39.99939%,39.99939%,39.99939%);stroke-opacity:1;stroke-miterlimit:3.239307;" d="M 130.457031 137.828125 L 143.855469 137.421875 L 147.476562 146.691406 L 152.320312 152.257812 L 157.832031 157.621094 L 162.648438 160.21875 L 170.105469 164.894531 L 180.179688 170.105469 L 180.054688 170.699219 L 158.886719 167.039062 L 155.839844 299.539062 L 154.714844 299.519531 L 153.5625 298.886719 Z M 130.457031 137.828125 " transform="matrix(1,0,0,1,-74,-13)"/>
<path style=" stroke:none;fill-rule:evenodd;fill:rgb(85.096741%,85.096741%,81.959534%);fill-opacity:0.7;" d="M 240.703125 167 C 240.703125 162.570312 238.941406 158.320312 235.808594 155.191406 C 232.679688 152.058594 228.429688 150.296875 224 150.296875 C 219.570312 150.296875 215.320312 152.058594 212.191406 155.191406 C 209.058594 158.320312 207.296875 162.570312 207.296875 167 C 207.296875 171.429688 209.058594 175.679688 212.191406 178.808594 C 215.320312 181.941406 219.570312 183.703125 224 183.703125 C 228.429688 183.703125 232.679688 181.941406 235.808594 178.808594 C 238.941406 175.679688 240.703125 171.429688 240.703125 167 Z M 240.703125 167 "/>
</g>
</svg>
