<?xml version="1.0" encoding="UTF-8"?>
<svg xmlns="http://www.w3.org/2000/svg" xmlns:xlink="http://www.w3.org/1999/xlink" width="361pt" height="361pt" viewBox="0 0 361 361" version="1.1">
<defs>
<clipPath id="clip1">
  <path d="M 0 0 L 360 0 L 360 360 L 0 360 Z M 0 0 "/>
</clipPath>
<clipPath id="clip2">
  <path d="M 37 28 L 279 28 L 279 360 L 37 360 Z M 37 28 "/>
</clipPath>
<clipPath id="clip3">
  <path d="M 184 343 L 231 343 L 231 360 L 184 360 Z M 184 343 "/>
</clipPath>
<clipPath id="clip4">
  <path d="M 237 0 L 360 0 L 360 360 L 237 360 Z M 237 0 "/>
</clipPath>
<clipPath id="clip5">
  <path d="M 0 251 L 38 251 L 38 360 L 0 360 Z M 0 251 "/>
</clipPath>
<clipPath id="clip6">
  <path d="M 0 352 L 215 352 L 215 360 L 0 360 Z M 0 352 "/>
</clipPath>
</defs>
<g id="surface189">
<path style="fill-rule:nonzero;fill:rgb(0%,0%,0%);fill-opacity:1;stroke-width:0.03;stroke-linecap:square;stroke-linejoin:miter;stroke:rgb(0%,0%,0%);stroke-opacity:1;stroke-miterlimit:10;" d="M 0 178 L 360 178 L 360 -182 L 0 -182 Z M 0 178 " transform="matrix(1,0,0,1,0,182)"/>
<g clip-path="url(#clip1)" clip-rule="nonzero">
<path style=" stroke:none;fill-rule:nonzero;fill:rgb(39.99939%,39.99939%,39.99939%);fill-opacity:0.3;" d="M -966.144531 -2673.152344 L -953.574219 -2691.195312 L -938.746094 -2708.9375 L -925.851562 -2719.949219 L -914.566406 -2727.902344 L -899.089844 -2736.164062 L -881.675781 -2742.59375 L -862.652344 -2747.191406 L -841.363281 -2747.8125 L -823.421875 -2746.894531 L -793.679688 -2742.503906 L -731.09375 -2722.355469 L -691.886719 -2705.171875 L -643.324219 -2653.828125 L -546.875 -2708.738281 L -507.441406 -2702.472656 L -235.226562 -2854.589844 L -227.402344 -2864.777344 L -221.269531 -2876.425781 L -219.429688 -2888.066406 L -218.824219 -2899.710938 L -218.214844 -2913.097656 L -218.21875 -2920.085938 L -214.539062 -2927.070312 L -207.171875 -2932.894531 L -117.492188 -2978.722656 L -90.15625 -2938.28125 L 467.277344 -3257.8125 L 693.792969 -3387.402344 L 726.972656 -3406.382812 L 818.121094 -3458.53125 L 948.882812 -3533.335938 L 1303.71875 -3736.328125 L 1305.34375 -3798.214844 L 1305.160156 -3800.246094 L 1304.523438 -3803.492188 L 1304.140625 -3806.257812 L 1307.242188 -3816.109375 L 1412.527344 -4239.976562 L 1489.171875 -4537.230469 L 1501.917969 -4582.625 L 1509.6875 -4590.539062 L 1949.683594 -4769.617188 L 1944.183594 -4779.394531 L 1941.734375 -4783.75 L 1993.617188 -4802.730469 L 2023.765625 -4766.550781 L 2190.59375 -4822.828125 L 2319.230469 -4867.046875 L 2337.316406 -4873.078125 L 2377.515625 -4893.175781 L 2383.546875 -4907.246094 L 2395.605469 -4935.386719 L 2375.507812 -5023.824219 L 2369.476562 -5064.023438 L 2371.488281 -5094.171875 L 2401.636719 -5126.332031 L 2468.511719 -5174.097656 L 2475.804688 -5166.710938 L 2641.570312 -5282.210938 L 2664.160156 -5295.289062 L 2696.988281 -5306.085938 L 2722.8125 -5312.394531 L 2971.09375 -5233.425781 L 3008.386719 -5218.691406 L 3043.933594 -5213.625 L 3083.375 -5210.871094 L 3129.144531 -5214.121094 L 3153.972656 -5219.667969 L 3263.574219 -5255.382812 L 3277.492188 -5260.632812 L 3288.566406 -5261.507812 L 3295.820312 -5260.746094 L 3522.058594 -5184.101562 L 4096.960938 -4980.132812 L 4226.164062 -4933.789062 L 4270.285156 -4917.730469 L 4273.101562 -4916.945312 L 4275.855469 -4916.816406 L 4279.894531 -4918.128906 L 4740.589844 -5085.042969 L 5248.003906 -5271.371094 L 5476.460938 -5356.953125 L 5875.078125 -5505.765625 L 6220.628906 -5637.644531 L 6240.863281 -5647.363281 L 6339.140625 -5754.417969 L 6420.238281 -5833.902344 L 6470.679688 -5887.40625 L 6578.3125 -5950.410156 L 6608.320312 -5915.949219 L 6777.757812 -5590.671875 L 6805.648438 -5538.960938 L 6949.066406 -5275.058594 L 7017.949219 -5154.109375 L 7219.070312 -4795.777344 L 7253.210938 -4727.164062 L 7265.089844 -4688.753906 L 7268.59375 -4658.058594 L 7268.914062 -4628.464844 L 7263.84375 -4598.363281 L 7254.398438 -4564.339844 L 7235.300781 -4524.175781 L 7206.886719 -4493.1875 L 7163.316406 -4458.894531 L 7056.871094 -4397.066406 L 6977.84375 -4353.207031 L 6825.34375 -4269.800781 L 6495.316406 -4085.523438 L 6164.84375 -3897.300781 L 5752.390625 -3665.636719 L 5384.972656 -3461.34375 L 4804.390625 -3129.296875 L 4759.601562 -3093.535156 L 4718.808594 -3044.730469 L 4340.367188 -2515.046875 L 4333.417969 -2505.148438 L 4096.140625 -2075.53125 L 4067.699219 -2024.035156 L 3997.507812 -1855.578125 L 3950.765625 -1772.078125 L 3939.804688 -1758.5625 L 3926.898438 -1747.246094 L 3802.6875 -1652.632812 L 3788.636719 -1643.015625 L 3783.765625 -1642.472656 L 3754.332031 -1651.128906 L 3743.59375 -1659.183594 L 3538.960938 -1878.589844 L 3045.019531 -2104.136719 L 2121.363281 -1568.925781 L 2105.953125 -1561.308594 L 2068.878906 -1539.660156 L 2064.386719 -1536.332031 L 2061.78125 -1526.972656 L 2013.570312 -1179.296875 L 1945.542969 -692.289062 L 1918.765625 -494.902344 L 1912.261719 -442.390625 L 1911.425781 -435.242188 L 1910.304688 -429.683594 L 1910.308594 -423.332031 L 1911.710938 -418.304688 L 1915.257812 -413.082031 L 1927.960938 -408.273438 L 1935.1875 -405.179688 L 1941.136719 -402.875 L 1946.167969 -397.765625 L 1948.328125 -387.886719 L 1924.539062 -226.550781 L 1864.660156 229.703125 L 1851.628906 334.519531 L 1843.433594 429.03125 L 1841.9375 438.027344 L 1839.945312 446.546875 L 1831.460938 451.285156 L 1823.972656 454.128906 L 1813.488281 458.394531 L 1804.503906 465.96875 L 1792.628906 475.371094 L 1786.039062 489.644531 L 1781.554688 508.582031 L 1775.082031 552.132812 L 1768.613281 604.203125 L 1762.132812 623.613281 L 1753.648438 634.980469 L 1742.667969 643.503906 L 1733.683594 650.609375 L 1723.199219 654.398438 L 1706.671875 655.722656 L 1692.582031 654.0625 L 1674.542969 647.8125 L 1197.625 371.007812 L 1188.683594 385.878906 L 1183.605469 382.941406 L 1083.109375 549.765625 L 1046.929688 529.664062 L 978.917969 492.34375 L 834.988281 397.839844 L 714.335938 311.980469 L 698.03125 300.171875 L 681.613281 284.703125 L 666.613281 267.316406 L 619.234375 195.644531 L 592.835938 145.394531 L 538.882812 64.621094 L 487.542969 2.617188 L 442.785156 -40.359375 L 388.667969 -78.964844 L 103.003906 -237.96875 L 74.992188 -253.558594 L 45.125 -270.183594 L 20.726562 -283.761719 L 2.851562 -294.320312 L -336.414062 -494.707031 L -672.128906 -685.554688 L -910.515625 -820.050781 L -1152.875 -967.355469 L -1315.820312 -1074.15625 L -1660.539062 -1287.8125 L -1691.523438 -1307.617188 L -1698.394531 -1312.777344 L -1700.972656 -1315.234375 L -1702.898438 -1318.613281 L -1704.300781 -1322.589844 L -1705.414062 -1327.425781 L -1705.859375 -1332.050781 L -1705.640625 -1335.414062 L -1704.757812 -1341.300781 L -1693.449219 -1367.105469 L -1614.957031 -1503.414062 L -1539.429688 -1655.722656 L -1470.773438 -1769.785156 L -1395.945312 -1906.851562 L -1343.429688 -2002.796875 L -1144.175781 -2361.378906 L -1083.503906 -2465.136719 L -1023.636719 -2571.1875 Z M -966.144531 -2673.152344 "/>
</g>
<path style=" stroke:none;fill-rule:nonzero;fill:rgb(39.99939%,39.99939%,39.99939%);fill-opacity:0.3;" d="M 94.152344 28.070312 L 195.445312 -130.484375 L 346.222656 -38.628906 L 311.082031 153.632812 L 278.332031 146.828125 L 277.222656 75.652344 Z M 94.152344 28.070312 "/>
<g clip-path="url(#clip2)" clip-rule="nonzero">
<path style=" stroke:none;fill-rule:nonzero;fill:rgb(39.99939%,39.99939%,39.99939%);fill-opacity:0.3;" d="M 93.929688 28.417969 L 277.082031 75.78125 L 278.082031 146.777344 L 265.863281 212.429688 L 237.550781 354.097656 L 122.210938 945.246094 L 115.382812 944.089844 L 116.324219 937.6875 L 108.285156 915.578125 L 130.394531 801.007812 L 156.523438 690.460938 L 182.652344 571.875 L 192.703125 515.597656 L 202.753906 449.269531 L 214.8125 380.929688 L 160.542969 370.878906 L 142.453125 366.859375 L 104.265625 360.832031 L 37.738281 352.300781 L 51.429688 283.429688 L 56.027344 284.453125 L 112.304688 292.492188 L 154.511719 298.523438 L 194.710938 304.550781 L 228.882812 308.570312 L 265.058594 121.644531 L 272.699219 85.265625 L 90.441406 51.429688 Z M 93.929688 28.417969 "/>
</g>
<g clip-path="url(#clip3)" clip-rule="nonzero">
<path style=" stroke:none;fill-rule:nonzero;fill:rgb(39.99939%,39.99939%,39.99939%);fill-opacity:0.3;" d="M 190.363281 343.414062 L 230.34375 350.261719 L 221.160156 398.515625 L 211.984375 396.941406 L 214.8125 380.929688 L 184.296875 375.277344 Z M 190.363281 343.414062 "/>
</g>
<g clip-path="url(#clip4)" clip-rule="nonzero">
<path style=" stroke:none;fill-rule:nonzero;fill:rgb(39.99939%,39.99939%,39.99939%);fill-opacity:0.3;" d="M 350.285156 -6.019531 L 374.316406 5.191406 L 417.386719 30.871094 L 467.625 71.042969 L 410.371094 353.25 L 355.070312 635.144531 L 313.035156 628.136719 L 318.25 603.4375 L 237.902344 589.421875 Z M 350.285156 -6.019531 "/>
</g>
<path style=" stroke:none;fill-rule:nonzero;fill:rgb(39.99939%,39.99939%,39.99939%);fill-opacity:0.3;" d="M 271.546875 153.621094 L 259.945312 220.097656 L 246.464844 217.730469 L 259.289062 151.46875 Z M 271.546875 153.621094 "/>
<g clip-path="url(#clip5)" clip-rule="nonzero">
<path style=" stroke:none;fill-rule:nonzero;fill:rgb(39.99939%,39.99939%,39.99939%);fill-opacity:0.3;" d="M -192.304688 486.058594 L -43.523438 251.78125 L 37.917969 295.957031 L -105.335938 536.285156 Z M -192.304688 486.058594 "/>
</g>
<path style=" stroke:none;fill-rule:nonzero;fill:rgb(39.99939%,39.99939%,39.99939%);fill-opacity:0.3;" d="M -32.371094 236.574219 L 68.074219 75.824219 L 78.109375 78.046875 L 36.953125 274.476562 Z M -32.371094 236.574219 "/>
<path style=" stroke:none;fill-rule:nonzero;fill:rgb(39.99939%,39.99939%,39.99939%);fill-opacity:0.3;" d="M 54.863281 -104.984375 L 148.820312 -130.265625 L -39.644531 150.765625 L -61.179688 68.914062 Z M 54.863281 -104.984375 "/>
<path style=" stroke:none;fill-rule:nonzero;fill:rgb(39.99939%,39.99939%,39.99939%);fill-opacity:0.3;" d="M -100.933594 -73.828125 L 29.335938 -102.824219 L -69.496094 49.179688 Z M -100.933594 -73.828125 "/>
<path style=" stroke:none;fill-rule:nonzero;fill:rgb(39.99939%,39.99939%,39.99939%);fill-opacity:0.3;" d="M 51.429688 283.429688 L 67.605469 202.042969 L 90.441406 51.429688 L 272.699219 85.265625 L 265.058594 121.644531 L 228.882812 308.570312 L 194.710938 304.550781 L 154.511719 298.523438 L 112.304688 292.492188 L 56.027344 284.453125 Z M 51.429688 283.429688 "/>
<path style=" stroke:none;fill-rule:nonzero;fill:rgb(39.99939%,39.99939%,39.99939%);fill-opacity:0.3;" d="M 232.378906 146.636719 L 220.777344 213.113281 L 185.332031 206.890625 L 196.933594 140.417969 Z M 232.378906 146.636719 "/>
<path style=" stroke:none;fill-rule:nonzero;fill:rgb(39.99939%,39.99939%,39.99939%);fill-opacity:0.3;" d="M 246.464844 217.730469 L 224.5 213.875 L 236.101562 147.398438 L 259.289062 151.46875 Z M 246.464844 217.730469 "/>
<path style=" stroke:none;fill-rule:nonzero;fill:rgb(39.99939%,39.99939%,39.99939%);fill-opacity:0.3;" d="M 147.035156 128.777344 L 135.433594 195.25 L 84.367188 186.773438 L 95.972656 120.304688 Z M 147.035156 128.777344 "/>
<path style=" stroke:none;fill-rule:nonzero;fill:rgb(39.99939%,39.99939%,39.99939%);fill-opacity:0.3;" d="M 191.972656 140.441406 L 180.371094 206.914062 L 144.925781 200.691406 L 156.527344 134.21875 Z M 191.972656 140.441406 "/>
<g clip-path="url(#clip6)" clip-rule="nonzero">
<path style=" stroke:none;fill-rule:nonzero;fill:rgb(39.99939%,39.99939%,39.99939%);fill-opacity:0.3;" d="M 115.382812 944.089844 L -73.527344 912.066406 L 37.738281 352.300781 L 104.265625 360.832031 L 142.453125 366.859375 L 160.542969 370.878906 L 214.8125 380.929688 L 202.753906 449.269531 L 192.703125 515.597656 L 182.652344 571.875 L 156.523438 690.460938 L 130.394531 801.007812 L 108.285156 915.578125 L 116.324219 937.6875 Z M 115.382812 944.089844 "/>
</g>
<path style="fill-rule:nonzero;fill:rgb(39.99939%,39.99939%,39.99939%);fill-opacity:1;stroke-width:0.03;stroke-linecap:square;stroke-linejoin:miter;stroke:rgb(39.99939%,39.99939%,39.99939%);stroke-opacity:1;stroke-miterlimit:3.239307;" d="M 125.429688 296.429688 L 141.605469 215.042969 L 164.441406 64.429688 L 346.699219 98.265625 L 339.058594 134.644531 L 302.882812 321.570312 L 268.710938 317.550781 L 228.511719 311.523438 L 186.304688 305.492188 L 130.027344 297.453125 Z M 125.429688 296.429688 " transform="matrix(1,0,0,1,-74,-13)"/>
<path style="fill-rule:nonzero;fill:rgb(39.99939%,39.99939%,39.99939%);fill-opacity:1;stroke-width:0.03;stroke-linecap:square;stroke-linejoin:miter;stroke:rgb(39.99939%,39.99939%,39.99939%);stroke-opacity:1;stroke-miterlimit:3.239307;" d="M 306.378906 159.636719 L 294.777344 226.113281 L 259.332031 219.890625 L 270.933594 153.417969 Z M 306.378906 159.636719 " transform="matrix(1,0,0,1,-74,-13)"/>
<path style="fill-rule:nonzero;fill:rgb(39.99939%,39.99939%,39.99939%);fill-opacity:1;stroke-width:0.03;stroke-linecap:square;stroke-linejoin:miter;stroke:rgb(39.99939%,39.99939%,39.99939%);stroke-opacity:1;stroke-miterlimit:3.239307;" d="M 320.464844 230.730469 L 298.5 226.875 L 310.101562 160.398438 L 333.289062 164.46875 Z M 320.464844 230.730469 " transform="matrix(1,0,0,1,-74,-13)"/>
<path style="fill-rule:nonzero;fill:rgb(39.99939%,39.99939%,39.99939%);fill-opacity:1;stroke-width:0.03;stroke-linecap:square;stroke-linejoin:miter;stroke:rgb(39.99939%,39.99939%,39.99939%);stroke-opacity:1;stroke-miterlimit:3.239307;" d="M 221.035156 141.777344 L 209.433594 208.25 L 158.367188 199.773438 L 169.972656 133.304688 Z M 221.035156 141.777344 " transform="matrix(1,0,0,1,-74,-13)"/>
<path style="fill-rule:nonzero;fill:rgb(39.99939%,39.99939%,39.99939%);fill-opacity:1;stroke-width:0.03;stroke-linecap:square;stroke-linejoin:miter;stroke:rgb(39.99939%,39.99939%,39.99939%);stroke-opacity:1;stroke-miterlimit:3.239307;" d="M 265.972656 153.441406 L 254.371094 219.914062 L 218.925781 213.691406 L 230.527344 147.21875 Z M 265.972656 153.441406 " transform="matrix(1,0,0,1,-74,-13)"/>
</g>
</svg>
