<?xml version="1.0" encoding="UTF-8"?>
<svg xmlns="http://www.w3.org/2000/svg" xmlns:xlink="http://www.w3.org/1999/xlink" width="361pt" height="361pt" viewBox="0 0 361 361" version="1.1">
<defs>
<clipPath id="clip1">
  <path d="M 285 0 L 360 0 L 360 51 L 285 51 Z M 285 0 "/>
</clipPath>
<clipPath id="clip2">
  <path d="M 0 0 L 80 0 L 80 360 L 0 360 Z M 0 0 "/>
</clipPath>
</defs>
<g id="surface2646">
<path style="fill-rule:nonzero;fill:rgb(0%,0%,0%);fill-opacity:1;stroke-width:0.03;stroke-linecap:square;stroke-linejoin:miter;stroke:rgb(0%,0%,0%);stroke-opacity:1;stroke-miterlimit:10;" d="M 0 178 L 360 178 L 360 -182 L 0 -182 Z M 0 178 " transform="matrix(1,0,0,1,0,182)"/>
<path style=" stroke:none;fill-rule:nonzero;fill:rgb(39.99939%,39.99939%,39.99939%);fill-opacity:0.3;" d="M 255.675781 196.726562 L 253.535156 195.644531 L 251.492188 194.226562 L 249.058594 191.511719 L 248.136719 188.460938 L 246.628906 185.597656 L 244.03125 182.3125 L 246.828125 177.417969 L 347.722656 38.003906 L 344.445312 16.183594 L 347.9375 16.09375 L 348.53125 29.1875 L 355.367188 35.785156 L 358.074219 46.785156 L 353.710938 68.015625 L 351.828125 71.140625 L 347.789062 78.136719 L 346.03125 82.300781 L 346.332031 89.578125 L 345.347656 95.066406 L 344.367188 100.871094 L 342.34375 103.488281 L 341.011719 110.03125 L 331.496094 119.648438 L 325.046875 143.160156 L 316.625 160.789062 L 315.210938 165.421875 L 312.882812 169.109375 L 308.269531 171.691406 L 302.773438 177.0625 L 301.285156 182.515625 L 300.683594 185.9375 L 300.085938 188.054688 L 298.601562 195.292969 L 296.925781 196.882812 L 296.039062 198.960938 L 295.636719 202.390625 L 294.1875 206.6875 L 290.839844 211.027344 L 285.019531 215.390625 L 272.730469 222.949219 L 264.898438 205.816406 L 254.546875 198.253906 L 255.082031 197.53125 Z M 255.675781 196.726562 "/>
<g clip-path="url(#clip1)" clip-rule="nonzero">
<path style=" stroke:none;fill-rule:nonzero;fill:rgb(39.99939%,39.99939%,39.99939%);fill-opacity:0.3;" d="M 376.980469 -394.546875 L 377.652344 -393.328125 L 381.832031 -391.507812 L 382.875 -391.164062 L 384.054688 -390.929688 L 388.640625 -390.789062 L 390.296875 -390.398438 L 395.132812 -387.925781 L 399.492188 -385.609375 L 404.335938 -384.046875 L 419.699219 -373.675781 L 420.675781 -372.746094 L 421.875 -371.449219 L 446.011719 -355.824219 L 420.734375 -361.480469 L 420.117188 -361.335938 L 419.578125 -360.929688 L 414.027344 -356.722656 L 413.191406 -356.308594 L 411.871094 -356.011719 L 409.484375 -356.238281 L 394.4375 -362.011719 L 391.558594 -361.542969 L 389.4375 -359.785156 L 386.230469 -354.582031 L 384.832031 -351.582031 L 382.902344 -344.890625 L 382.808594 -340.027344 L 382.828125 -322.40625 L 381.320312 -320.953125 L 376.445312 -315.027344 L 374.113281 -311.996094 L 369.640625 -303.945312 L 370.261719 -303.617188 L 370.886719 -303.289062 L 375.277344 -311.101562 L 398.734375 -308.179688 L 432.347656 -303.214844 L 456.289062 -299.953125 L 456.875 -299.472656 L 457.363281 -298.828125 L 457.285156 -296.289062 L 462 -270.371094 L 467.726562 -252.296875 L 471.128906 -244.160156 L 473.921875 -240.527344 L 479.828125 -235.671875 L 484.40625 -230.246094 L 488.363281 -224.582031 L 489.851562 -221.316406 L 490.496094 -216.796875 L 487.921875 -205.964844 L 488.761719 -205.75 L 489.597656 -205.535156 L 491.402344 -212.453125 L 492.644531 -216.992188 L 491.976562 -221.160156 L 490.511719 -224.820312 L 486.25 -231.511719 L 481.324219 -237.066406 L 475.507812 -242.902344 L 469.757812 -252.515625 L 463.925781 -269.679688 L 459.050781 -296.796875 L 496.445312 -284.109375 L 497.097656 -285.335938 L 497.746094 -286.5625 L 458.980469 -299.761719 L 451.109375 -312.195312 L 446.378906 -319.988281 L 444.058594 -324.222656 L 441.5625 -329.671875 L 441.089844 -337.191406 L 441.046875 -341.183594 L 440.785156 -342.75 L 440.480469 -343.488281 L 428.46875 -354.191406 L 421.835938 -357.480469 L 421.859375 -357.9375 L 422.203125 -358.316406 L 423.519531 -358.101562 L 442.34375 -354.738281 L 445.953125 -354.03125 L 448.535156 -353.992188 L 449.441406 -354.0625 L 450.195312 -353.917969 L 450.929688 -353.679688 L 454.550781 -352.203125 L 458.585938 -349.542969 L 463.496094 -346.550781 L 468.972656 -342.867188 L 473.925781 -340.015625 L 477.480469 -337.769531 L 480.609375 -335.425781 L 482.8125 -333.339844 L 485.734375 -330.726562 L 487.007812 -329.78125 L 488.527344 -327.742188 L 490.378906 -324.988281 L 493.261719 -321.914062 L 495.363281 -319.257812 L 498.546875 -315.566406 L 500.683594 -312.871094 L 502.851562 -310.46875 L 505.542969 -307.601562 L 507.734375 -304.480469 L 510.570312 -305.410156 L 508.410156 -309.449219 L 505.441406 -312.621094 L 503.363281 -314.914062 L 501.253906 -317.585938 L 498.070312 -321.273438 L 495.925781 -323.984375 L 493.125 -326.972656 L 492.351562 -327.914062 L 491.386719 -329.039062 L 490.992188 -329.550781 L 490.785156 -329.832031 L 490.582031 -330.316406 L 490.277344 -330.886719 L 489.738281 -331.597656 L 488.96875 -332.441406 L 487.777344 -333.382812 L 484.8125 -336.027344 L 482.503906 -338.214844 L 479.109375 -340.757812 L 475.378906 -343.113281 L 470.46875 -345.941406 L 463.585938 -350.480469 L 459.128906 -352.71875 L 454.285156 -355.089844 L 450.074219 -357.347656 L 446.125 -359.203125 L 437.441406 -365.757812 L 439.3125 -367.609375 L 441.828125 -371.039062 L 447.636719 -378.347656 L 450.933594 -382.371094 L 452.816406 -382.96875 L 455.792969 -382.910156 L 460.449219 -381.050781 L 468.742188 -375.976562 L 471.097656 -374.355469 L 587.617188 -192.289062 L 603.109375 -159.757812 L 620.664062 -156.660156 L 633.691406 -151.882812 L 634.9375 -142.214844 L 628.269531 -140.503906 L 629.710938 -117.246094 L 629.863281 -115.5 L 629.714844 -104.3125 L 630.328125 -101.40625 L 630.632812 -98.792969 L 631.402344 -95.105469 L 632.933594 -91.179688 L 634.667969 -87.839844 L 637.070312 -83.335938 L 640.441406 -78.832031 L 645.035156 -73.167969 L 647.027344 -70.117188 L 641.976562 -68.804688 L 642.527344 -67.703125 L 642.894531 -66.917969 L 648.101562 -67.789062 L 649.628906 -66.335938 L 652.238281 -63.289062 L 655.296875 -60.527344 L 660.507812 -56.753906 L 661.417969 -56.136719 L 661.957031 -56.664062 L 662.496094 -57.1875 L 657.59375 -61.402344 L 654.15625 -64.660156 L 650.992188 -68.457031 L 649.015625 -71.714844 L 645.648438 -75.636719 L 640.953125 -81.90625 L 636.949219 -88.558594 L 635.464844 -91.980469 L 634.675781 -95.683594 L 635.019531 -96.761719 L 636.335938 -97.800781 L 640.695312 -97.394531 L 669.917969 -90.953125 L 672.046875 -91.335938 L 672.035156 -83.75 L 673.417969 -83.792969 L 674.796875 -83.839844 L 675.371094 -91.582031 L 676.132812 -92.121094 L 676.710938 -93.042969 L 676.882812 -94.011719 L 677.027344 -95.117188 L 677.183594 -96.160156 L 677.023438 -97.53125 L 676.691406 -98.785156 L 675.898438 -99.984375 L 674.429688 -102.078125 L 669.683594 -107.6875 L 668.082031 -110.359375 L 717.953125 -105.195312 L 720.800781 -104.695312 L 743.183594 -100.566406 L 764.539062 -99.328125 L 765.570312 -98.769531 L 766.148438 -94.757812 L 765.421875 -89.429688 L 763.039062 -79.695312 L 760.753906 -72.273438 L 758.84375 -65.757812 L 758.519531 -59.652344 L 757.59375 -57.09375 L 754.710938 -50.484375 L 751.890625 -43.304688 L 747.253906 -32.8125 L 743.683594 -27.492188 L 738.886719 -21.503906 L 733.738281 -15.324219 L 730.804688 -9.210938 L 725.953125 0.242188 L 723.144531 4.90625 L 715.925781 11.519531 L 710.808594 15.304688 L 711.617188 15.972656 L 712.421875 16.644531 L 716.628906 13.546875 L 720.789062 10.152344 L 723.628906 8.214844 L 724.898438 7.015625 L 728.851562 0.429688 L 732.582031 -7.164062 L 735.644531 -13.40625 L 738.457031 -16.972656 L 743.699219 -23.679688 L 749.351562 -31.59375 L 753.621094 -40.394531 L 756.289062 -46.988281 L 758.519531 -53.257812 L 758.847656 -40.011719 L 759.761719 -28.339844 L 764.613281 -19.140625 L 767.46875 -13.277344 L 768.410156 -10.386719 L 769.039062 -7.429688 L 766.957031 -1.503906 L 762.296875 8.277344 L 754.136719 22.613281 L 745.570312 35.195312 L 741.757812 44.53125 L 739.371094 48.738281 L 736.984375 50.683594 L 732.828125 47.023438 L 726.578125 40.1875 L 720.347656 32.4375 L 718.15625 31.25 L 715.769531 30.871094 L 713.582031 31.082031 L 710.851562 30.441406 L 708.738281 29.238281 L 705.222656 28.054688 L 701.777344 27.222656 L 697.929688 26.679688 L 693.664062 27.242188 L 691.148438 27.121094 L 687.328125 25.128906 L 538.691406 -135.371094 L 545.4375 -149.007812 L 551.261719 -160.050781 L 551.308594 -173.367188 L 548.390625 -182.851562 L 516.757812 -185.242188 L 515.371094 -177.484375 L 464.664062 -176.957031 L 454.691406 -179.304688 L 433.472656 -179.953125 L 441.683594 -214.550781 L 444.417969 -231.5 L 446.046875 -246.769531 L 433.757812 -250.28125 L 420.65625 -251.117188 L 414.65625 -254.847656 L 415.382812 -262.910156 L 407.371094 -263.765625 L 381.539062 -241.40625 L 378.367188 -254.789062 L 360.507812 -248.503906 L 351.152344 -243.25 L 349.632812 -235.246094 L 343.445312 -233.257812 L 341.59375 -237.234375 L 333.8125 -233.335938 L 325.609375 -224.207031 L 329.183594 -217.9375 L 334.199219 -216.5625 L 337.277344 -209.367188 L 336.222656 -202.601562 L 333.246094 -196.136719 L 331.503906 -190.769531 L 333.992188 -186.9375 L 336.265625 -183.21875 L 336.894531 -175.472656 L 350.128906 -153.359375 L 354.179688 -149.503906 L 361.769531 -147.242188 L 370.417969 -146.691406 L 382.351562 -142.988281 L 365.335938 -110.933594 L 361.335938 -102.589844 L 355.835938 -95.304688 L 346.957031 -84.722656 L 332.566406 -79.671875 L 330.261719 -78.300781 L 325.3125 -111.273438 L 314.726562 -149.484375 L 285.863281 -175.199219 L 365.433594 -321.324219 Z M 376.980469 -394.546875 "/>
</g>
<path style=" stroke:none;fill-rule:nonzero;fill:rgb(39.99939%,39.99939%,39.99939%);fill-opacity:0.3;" d="M 242.742188 184.5625 L 244.535156 186.828125 L 245.84375 189.308594 L 245.945312 189.644531 L 242.695312 184.648438 Z M 242.742188 184.5625 "/>
<path style=" stroke:none;fill-rule:nonzero;fill:rgb(39.99939%,39.99939%,39.99939%);fill-opacity:0.3;" d="M 137.351562 79.828125 L 137.066406 81.882812 L 127.15625 82.609375 L 116.824219 78.4375 L 113.566406 75.964844 L 114.125 76.214844 L 124.96875 79.3125 L 131.164062 79.828125 Z M 137.351562 79.828125 "/>
<path style=" stroke:none;fill-rule:nonzero;fill:rgb(39.99939%,39.99939%,39.99939%);fill-opacity:0.3;" d="M 97.886719 70.222656 L 95.199219 70.457031 L 91.015625 72.820312 L 87.839844 74.519531 L 84.265625 77.160156 L 81.6875 78.855469 L 75.730469 80.367188 L 64.015625 81.871094 L 55.65625 83.160156 L 51.765625 84.648438 L 54.226562 82.925781 L 58.875 80.859375 L 63.523438 80.34375 L 70.75 80.34375 L 71.265625 67.953125 L 69.203125 59.171875 L 66.105469 56.074219 L 67.136719 53.492188 L 73.332031 51.945312 L 77.980469 51.429688 L 82.625 52.976562 L 88.824219 58.140625 L 91.921875 62.273438 L 96.050781 66.917969 Z M 97.886719 70.222656 "/>
<path style=" stroke:none;fill-rule:nonzero;fill:rgb(39.99939%,39.99939%,39.99939%);fill-opacity:0.3;" d="M 236.320312 177.824219 L 235.984375 177.695312 L 233.832031 175.167969 L 232.773438 172.757812 Z M 236.320312 177.824219 "/>
<path style=" stroke:none;fill-rule:nonzero;fill:rgb(39.99939%,39.99939%,39.99939%);fill-opacity:0.3;" d="M 229.902344 157.453125 L 228.816406 155.714844 L 229.121094 151.175781 L 229.269531 151.601562 Z M 229.902344 157.453125 "/>
<path style=" stroke:none;fill-rule:nonzero;fill:rgb(39.99939%,39.99939%,39.99939%);fill-opacity:0.3;" d="M 211.148438 119.503906 L 206.5 113.917969 L 205.65625 112.320312 L 206.035156 112.875 Z M 211.148438 119.503906 "/>
<path style=" stroke:none;fill-rule:nonzero;fill:rgb(39.99939%,39.99939%,39.99939%);fill-opacity:0.3;" d="M 272.730469 222.949219 L 190.359375 273.609375 L 73.332031 308.570312 L 82.109375 299.277344 L 82.109375 293.804688 L 83.75 294.203125 L 84.242188 292.980469 L 84.738281 291.757812 L 82.109375 290.835938 L 82.109375 289.464844 L 81.925781 288.09375 L 82.4375 283.523438 L 81.105469 276.753906 L 78.695312 270.03125 L 75.976562 264.433594 L 73.019531 259.046875 L 71.289062 253.648438 L 72.0625 247.132812 L 74.019531 241.324219 L 79.214844 231.160156 L 96.332031 240.300781 L 98.066406 284.839844 L 99.5625 284.75 L 101.058594 284.664062 L 99.734375 249.867188 L 104.601562 253.070312 L 108.058594 254.402344 L 123.96875 253.90625 L 143.085938 266.414062 L 146.109375 264.699219 L 156.03125 272.070312 L 156.035156 270.824219 L 156.019531 269.714844 L 145.867188 262.285156 L 143.121094 263.761719 L 124.871094 252.011719 L 108.449219 252.539062 L 105.539062 251.417969 L 99.667969 247.550781 L 99.476562 240.757812 L 98.382812 237.796875 L 95.652344 236.257812 L 81.90625 229.6875 L 87.316406 216.058594 L 89.292969 213.171875 L 91.46875 210.820312 L 101.34375 184.628906 L 102.359375 183.289062 L 114.601562 189.960938 L 125.4375 196.144531 L 125.976562 195.078125 L 126.523438 193.996094 L 111.128906 185.203125 L 118.660156 163.65625 L 116.949219 143.878906 L 120.460938 120.433594 L 125.308594 107.304688 L 114.214844 102.972656 L 113.714844 104.25 L 113.21875 105.527344 L 122.144531 109.023438 L 118.117188 119.484375 L 89.0625 110.667969 L 87.375 110.132812 L 86.265625 110.867188 L 84.054688 112.851562 L 61.898438 138.28125 L 61.046875 138.382812 L 60.582031 138.113281 L 61.699219 134.085938 L 63.363281 127.296875 L 64.542969 119.753906 L 64.660156 116.019531 L 64.183594 113.191406 L 62.035156 107.3125 L 60.484375 103.691406 L 58.933594 97.808594 L 57.140625 93.058594 L 54.757812 90.230469 L 53.679688 89.019531 L 52.605469 88.109375 L 52.03125 87.703125 L 51.429688 87.347656 L 51.429688 86.804688 L 51.886719 86.585938 L 53.777344 86.152344 L 55.527344 85.660156 L 57.015625 85.25 L 58.957031 84.9375 L 71.933594 83.175781 L 77.773438 82.480469 L 78.449219 82.640625 L 80.167969 82.488281 L 81.445312 82.246094 L 82.398438 81.945312 L 83.085938 81.617188 L 84.058594 81.207031 L 85.457031 80.363281 L 86.320312 79.660156 L 87.628906 78.503906 L 88.457031 77.789062 L 89.789062 76.921875 L 91.59375 75.636719 L 92.917969 74.796875 L 93.664062 74.300781 L 94.261719 74.015625 L 95.035156 73.597656 L 95.542969 73.296875 L 95.96875 73.144531 L 97.425781 72.625 L 97.984375 72.425781 L 98.308594 72.351562 L 98.824219 72.300781 L 99.742188 72.300781 L 101.613281 72.523438 L 102.59375 72.707031 L 103.628906 73.085938 L 104.84375 73.4375 L 105.652344 73.71875 L 106.484375 74.078125 L 107.128906 74.382812 L 107.878906 74.878906 L 108.359375 75.183594 L 108.695312 75.554688 L 109.425781 76.246094 L 109.824219 76.6875 L 110.777344 77.511719 L 113.480469 79.035156 L 114.4375 79.84375 L 116.109375 80.960938 L 118.34375 82.199219 L 119.347656 82.769531 L 120.386719 83.164062 L 121.15625 83.4375 L 122.054688 83.722656 L 122.835938 84.15625 L 123.996094 84.453125 L 125.3125 85.050781 L 126.972656 85.191406 L 128.496094 85.339844 L 129.652344 85.371094 L 131.03125 85.398438 L 132.59375 85.28125 L 134.03125 85.101562 L 135.066406 85.191406 L 136.160156 85.039062 L 137.109375 84.902344 L 138.320312 84.613281 L 144.519531 83.464844 L 152.914062 81.304688 L 169.675781 77.113281 L 173.15625 76.726562 L 174.894531 80.949219 L 176.570312 86.371094 L 177.402344 92.65625 L 177.84375 93.960938 L 177.488281 95.476562 L 176.855469 96.3125 L 145.5 103.023438 L 143.300781 103.683594 L 141.566406 104.671875 L 140.757812 105.550781 L 140.179688 106.867188 L 139.832031 110.824219 L 139.71875 113.019531 L 138.949219 115.625 L 136.226562 121.796875 L 135.699219 124.167969 L 135.070312 126.730469 L 135.433594 128.90625 L 137.003906 130.621094 L 138.207031 132.109375 L 138.691406 134.058594 L 139.78125 136.347656 L 140.011719 139.269531 L 139.863281 140.992188 L 139.789062 143.71875 L 139.484375 146.234375 L 139.542969 148.71875 L 139.664062 149.0625 L 140.628906 149.117188 L 141.59375 149.175781 L 141.714844 146.769531 L 142.128906 142.570312 L 142.3125 138.867188 L 142.203125 135.246094 L 140.988281 132.679688 L 139.535156 130.277344 L 138.449219 128.21875 L 137.726562 126.269531 L 137.734375 125.054688 L 138.191406 122.972656 L 141.117188 115.519531 L 141.671875 113.28125 L 141.792969 110.945312 L 142.113281 107.316406 L 142.449219 106.550781 L 142.84375 106.121094 L 144.113281 105.394531 L 146.011719 104.828125 L 177.84375 98.015625 L 178.691406 98.238281 L 179.5 98.804688 L 182.164062 103.035156 L 182.464844 104.335938 L 184.097656 104.191406 L 185.398438 104.078125 L 185.191406 101.898438 L 181.613281 96.386719 L 180.460938 91.925781 L 179.625 85.578125 L 177.84375 79.828125 L 174.800781 72.433594 L 191.246094 91.207031 L 199.804688 103.746094 L 200.097656 104.234375 L 201.878906 110.96875 L 204.171875 115.316406 L 218.652344 132.058594 L 223.167969 139.523438 L 225.414062 145.644531 L 226.757812 149.722656 L 226.320312 156.285156 L 228.847656 160.332031 L 230.191406 162.417969 L 229.929688 167.34375 L 230.082031 172.6875 L 231.703125 176.375 L 234.472656 179.628906 L 237.550781 180.8125 L 239.625 181.992188 L 239.777344 182.09375 L 242.695312 184.648438 L 245.945312 189.644531 L 246.847656 192.636719 L 249.9375 196.085938 L 254.488281 198.335938 L 254.546875 198.253906 L 264.898438 205.816406 Z M 272.730469 222.949219 "/>
<path style=" stroke:none;fill-rule:nonzero;fill:rgb(39.99939%,39.99939%,39.99939%);fill-opacity:0.3;" d="M 65.648438 224.578125 L 70.136719 224.398438 L 71.382812 224.976562 L 75.035156 229.0625 L 77.53125 230.519531 L 72.222656 240.847656 L 70.160156 246.726562 L 69.574219 253.722656 L 71.132812 259.359375 L 67.136719 252.804688 L 64.554688 226.988281 Z M 65.648438 224.578125 "/>
<path style=" stroke:none;fill-rule:nonzero;fill:rgb(39.99939%,39.99939%,39.99939%);fill-opacity:0.3;" d="M 61.082031 201.824219 L 83.863281 212.617188 L 84.421875 211.476562 L 84.988281 210.3125 L 60.851562 199.445312 L 60.144531 187.503906 L 56.269531 176.476562 L 51.726562 166.085938 L 51.441406 160.1875 L 61.011719 162.539062 L 66.992188 163.574219 L 72.160156 164.085938 L 77.886719 165.027344 L 85.824219 167.394531 L 91.070312 170.175781 L 94.824219 172.925781 L 96.066406 175.933594 L 97.171875 175.675781 L 98.277344 175.421875 L 96.765625 171.832031 L 92.175781 168.742188 L 86.550781 165.515625 L 78.261719 163.128906 L 72.488281 162.148438 L 67.15625 161.585938 L 61.332031 160.464844 L 51.804688 157.851562 L 52.332031 155.511719 L 54.5625 150.328125 L 64.558594 140.617188 L 87.234375 112.960938 L 117.554688 122.023438 L 113.660156 143.230469 L 114.351562 151.984375 L 72.964844 142.515625 L 72.804688 143.644531 L 72.648438 144.769531 L 114.5 154.082031 L 115.386719 161.304688 L 108.894531 183.410156 L 100.8125 178.324219 L 89.363281 208.453125 L 85.582031 213.515625 L 79.816406 225.011719 L 78.378906 227.960938 L 76.976562 227.160156 L 73.28125 222.957031 L 71.019531 221.886719 L 66.800781 222.046875 L 67.136719 221.308594 L 64.554688 217.695312 Z M 61.082031 201.824219 "/>
<path style=" stroke:none;fill-rule:nonzero;fill:rgb(39.99939%,39.99939%,39.99939%);fill-opacity:0.3;" d="M 171.429688 74.035156 L 141.703125 81.511719 L 140.71875 81.578125 L 138.824219 81.648438 L 139.164062 79.769531 L 159.046875 75.179688 L 170.773438 71.410156 Z M 171.429688 74.035156 "/>
<path style=" stroke:none;fill-rule:nonzero;fill:rgb(39.99939%,39.99939%,39.99939%);fill-opacity:0.3;" d="M 48.328125 87 L 46.464844 86.824219 L 45.066406 86.441406 L 43.453125 86.238281 L 41.1875 85.765625 L 39.292969 85.175781 L 37.398438 84.855469 L 34.894531 84.53125 L 30.78125 83.855469 L 28.226562 83.699219 L 24.96875 83.53125 L 21.164062 83.074219 L 19.925781 82.839844 L 18.03125 82.351562 L 15.898438 81.558594 L 14.035156 80.519531 L 12.414062 79.484375 L 10.183594 77.492188 L 8.328125 75.074219 L 6.652344 72.566406 L 5.027344 70.160156 L 3.371094 67.71875 L 1.488281 65.367188 L -0.277344 63.191406 L -2.03125 61.441406 L -13.195312 53.414062 L -14.5 52.355469 L -17.480469 49.839844 L -19.707031 48.4375 L -22.285156 47.179688 L -25.230469 46.382812 L -30.597656 44.152344 L -37.746094 42.085938 L -40.820312 41.097656 L -43.25 39.390625 L -45.160156 37.726562 L -48.339844 33.914062 L -50.503906 30.867188 L -52.113281 28.207031 L -53.734375 25.589844 L -54.953125 23.082031 L -55.699219 20.0625 L -55.507812 14.546875 L -54.960938 10.988281 L -53.496094 5.867188 L -54.046875 2.238281 L -54.945312 0.308594 L -55.425781 -0.410156 L -56.011719 -1.0625 L -56.632812 -2.078125 L -56.976562 -3.320312 L -56.632812 -4.5625 L -55.902344 -6.003906 L -54.324219 -8.082031 L -53.230469 -9.695312 L -51.773438 -12.695312 L -51.164062 -14.078125 L -50.074219 -18.347656 L -47.644531 -23.769531 L -45.703125 -27.117188 L -43.636719 -30.230469 L -40.238281 -34.039062 L -38.292969 -36.347656 L -35.621094 -39.015625 L -32.523438 -41.253906 L -28.230469 -43.878906 L -25.125 -45.195312 L -24.984375 -44.992188 L -24.367188 -44.640625 L -23.722656 -44.410156 L -23.085938 -44.4375 L -22.433594 -44.648438 L -21.839844 -44.960938 L -21.234375 -45.203125 L -20.117188 -45.585938 L -19.550781 -45.757812 L -18.917969 -45.945312 L -18.308594 -46.058594 L -17.761719 -46.132812 L -15.96875 -46.386719 L -15.335938 -46.492188 L -14.6875 -46.109375 L -14.328125 -46.195312 L -14.027344 -46.074219 L -13.675781 -45.828125 L -13.191406 -45.480469 L -12.738281 -45.46875 L -12.40625 -45.316406 L -10.613281 -45.171875 L -10.277344 -44.914062 L -1.957031 -44.382812 L -1.558594 -45.070312 L -6.390625 -45.421875 L -11.5625 -46.59375 L -12.484375 -46.917969 L -13.109375 -47.121094 L -14.292969 -47.347656 L -15.613281 -47.460938 L -16.167969 -47.472656 L -18.21875 -47.121094 L -18.65625 -47.019531 L -20.070312 -46.546875 L -20.386719 -46.433594 L -21.941406 -45.742188 L -22.3125 -45.648438 L -22.710938 -45.554688 L -23.125 -45.53125 L -23.839844 -46.078125 L -18.738281 -49.546875 L -10.679688 -53.164062 L -5.9375 -54.640625 L -5.222656 -54.886719 L -0.21875 -55.910156 L 6.46875 -57.511719 L 10.203125 -58.269531 L 15.140625 -58.285156 L 31.234375 -55.40625 L 41.621094 -52.902344 L 46.433594 -52.125 L 53.527344 -52.265625 L 55.355469 -52.65625 L 58.015625 -53.882812 L 66.066406 -60.1875 L 66.796875 -60.9375 L 71.84375 -65.257812 L 72.226562 -65.464844 L 78.410156 -71.414062 L 89.5 -86.789062 L 99.128906 -100.328125 L 99.625 -100.628906 L 101.027344 -99.5625 L 103.398438 -97.660156 L 106.5 -94.027344 L 117.988281 -86.78125 L 123.066406 -84.375 L 126.53125 -83.253906 L 131.320312 -82.222656 L 135.242188 -80.929688 L 138.710938 -80.769531 L 142.769531 -80.53125 L 147.589844 -80.292969 L 149.957031 -79.972656 L 151.734375 -79.8125 L 153.171875 -79.410156 L 155.117188 -78.6875 L 156.214844 -77.246094 L 156.726562 -73.390625 L 158.164062 -68.496094 L 159.382812 -61.515625 L 161.222656 -41.097656 L 161.199219 -37.207031 L 161.015625 -32.273438 L 160.972656 -27.957031 L 160.914062 -25.222656 L 160.625 -23.210938 L 160.179688 -20.976562 L 159.625 -18.640625 L 158.390625 -16.015625 L 157.65625 -14.941406 L 155.628906 -12.175781 L 154.914062 -11.324219 L 154.183594 -10.671875 L 153.417969 -10.085938 L 152.601562 -9.511719 L 148.90625 -6.484375 L 144.855469 -3.320312 L 141.460938 -1.628906 L 138.527344 -0.28125 L 133.75 2.964844 L 131.695312 4.261719 L 129.933594 5.460938 L 129.113281 6.480469 L 128.738281 7.472656 L 127.773438 9.96875 L 125.882812 14 L 120.625 11.828125 L 112.753906 7.898438 L 94.855469 0.21875 L 86.6875 -2.664062 L 86.246094 -3.125 L 85.640625 -3.386719 L 85.046875 -3.425781 L 82.382812 5.097656 L 80.601562 13.425781 L 70.222656 12.023438 L 68.53125 16.285156 L 69.347656 16.433594 L 70.167969 16.582031 L 71.113281 13.878906 L 73.980469 13.929688 L 79.269531 15.398438 L 89.351562 21.222656 L 93.960938 24.050781 L 95.171875 24.953125 L 110.023438 32.09375 L 110.589844 32.316406 L 124.414062 36.355469 L 125.136719 36.542969 L 125.777344 36.578125 L 127.851562 36.332031 L 129.882812 35.582031 L 130.351562 35.144531 L 131.605469 33.621094 L 131.824219 33.054688 L 133.019531 29.628906 L 134.269531 27.589844 L 136.917969 24.359375 L 139.113281 22.152344 L 141.84375 19.648438 L 143.855469 18.085938 L 146.941406 16.425781 L 149.386719 15.726562 L 154.710938 14.300781 L 155.210938 15.199219 L 156.570312 18.761719 L 158.640625 22 L 160.714844 26.570312 L 164.113281 32.761719 L 165.738281 35.96875 L 166.457031 37.523438 L 166.996094 39.007812 L 167.316406 40.46875 L 168.199219 48.632812 L 154.417969 43.589844 L 153.929688 44.109375 L 153.4375 44.632812 L 167.871094 50.183594 L 167.429688 51.535156 L 164.238281 50.339844 L 164.195312 50.640625 L 164.152344 50.9375 L 167.285156 52.070312 L 167.109375 53.929688 L 167.257812 55 L 168.167969 59.40625 L 142.019531 53.242188 L 138.152344 72.125 L 124.648438 69.367188 L 124.457031 70.386719 L 124.269531 71.402344 L 138.132812 74.234375 L 137.351562 79.828125 L 131.164062 79.828125 L 124.96875 79.3125 L 114.125 76.214844 L 113.566406 75.964844 L 109.054688 72.542969 L 102.320312 69.839844 L 97.886719 70.222656 L 96.050781 66.917969 L 91.921875 62.273438 L 88.824219 58.140625 L 82.625 52.976562 L 77.980469 51.429688 L 73.332031 51.945312 L 67.136719 53.492188 L 66.105469 56.074219 L 69.203125 59.171875 L 71.265625 67.953125 L 70.75 80.34375 L 63.523438 80.34375 L 58.875 80.859375 L 54.226562 82.925781 L 51.765625 84.648438 L 50.121094 85.277344 L 49.570312 86.117188 Z M 48.328125 87 "/>
<path style=" stroke:none;fill-rule:nonzero;fill:rgb(39.99939%,39.99939%,39.99939%);fill-opacity:0.3;" d="M 151.917969 12.742188 L 149.460938 13.429688 L 146 13.765625 L 141.289062 16.324219 L 132.683594 24.5 L 129.992188 30.886719 L 128.652344 32.980469 L 127.625 33.746094 L 126.476562 34.179688 L 125.3125 34.253906 L 124.699219 34.109375 L 123.339844 33.875 L 114.722656 31.601562 L 109.691406 30.148438 L 107.777344 29.320312 L 94.582031 22.457031 L 82.890625 14.429688 L 83.023438 11.234375 L 86.25 -0.261719 L 103.609375 6.375 L 124.597656 15.433594 L 122.941406 18.210938 L 120.378906 20.621094 L 119.910156 20.78125 L 109.6875 18.890625 L 109.214844 19.558594 L 108.746094 20.226562 L 119.289062 22.519531 L 120.632812 22.453125 L 123.589844 20.414062 L 126.878906 16.585938 L 128.503906 12.625 L 129.714844 9.046875 L 130.65625 7.769531 L 132.539062 6.109375 L 135.132812 3.65625 L 140.625 0.71875 L 148.15625 -3.730469 L 151.507812 -6.558594 L 155.8125 -10.375 L 158.214844 -14.199219 L 158.726562 -14.539062 L 159.179688 -14.625 L 159.367188 -14.339844 L 159.523438 -13.863281 L 159.304688 -13.515625 L 158.957031 -12.019531 L 158.851562 -12.183594 L 157.570312 -7.988281 L 156.085938 -2.476562 L 154.46875 4.3125 L 153.867188 7.328125 L 153.609375 9.023438 L 153.660156 10.789062 L 153.792969 11.738281 Z M 151.917969 12.742188 "/>
<path style=" stroke:none;fill-rule:nonzero;fill:rgb(39.99939%,39.99939%,39.99939%);fill-opacity:0.3;" d="M 244.03125 182.3125 L 243.625 181.796875 L 240.957031 180.035156 L 238.648438 178.722656 L 236.320312 177.824219 L 232.773438 172.757812 L 232.523438 172.191406 L 232.382812 167.371094 L 232.683594 161.816406 L 230.949219 159.128906 L 229.902344 157.453125 L 229.269531 151.601562 L 229.121094 151.175781 L 229.234375 149.441406 L 227.742188 144.910156 L 225.414062 138.570312 L 221.199219 131.578125 L 211.148438 119.503906 L 206.035156 112.875 L 205.65625 112.320312 L 204.464844 110.058594 L 202.664062 103.25 L 196.714844 93.378906 L 173.222656 66.125 L 173.707031 63.25 L 174.613281 59.214844 L 175.8125 54.023438 L 177.410156 48.578125 L 178.875 44.652344 L 180.078125 41.484375 L 181.144531 38.953125 L 181.941406 37.433594 L 183.277344 35.40625 L 184.078125 34.265625 L 187.429688 30.53125 L 189.832031 28 L 191.832031 26.226562 L 193.433594 24.832031 L 195.167969 23.691406 L 196.5 22.679688 L 197.835938 21.792969 L 199.570312 20.523438 L 201.035156 19.257812 L 202.371094 17.992188 L 203.972656 16.597656 L 205.171875 15.078125 L 205.972656 13.9375 L 207.984375 10.96875 L 210.25 7.171875 L 211.851562 4.003906 L 213.71875 0.078125 L 215.851562 -4.480469 L 217.183594 -7.902344 L 217.71875 -9.292969 L 218.25 -9.925781 L 218.917969 -10.308594 L 219.363281 -10.414062 L 219.914062 -10.445312 L 222.066406 -10.53125 L 225.851562 -9.777344 L 228.921875 -9.488281 L 231.074219 -9.285156 L 228.089844 4.976562 L 226.140625 14.222656 L 224.46875 18.691406 L 220.078125 27.828125 L 221.648438 28.820312 L 226.664062 18.097656 L 227.671875 14.621094 L 229.5 4.804688 L 232.894531 -8.253906 L 233.378906 -8.757812 L 234.300781 -8.847656 L 245.714844 -8.828125 L 252.988281 11.296875 L 253.785156 11.078125 L 254.578125 10.859375 L 247.675781 -9.394531 L 252.296875 -10.316406 L 255.074219 -10.933594 L 257.617188 -11.382812 L 260.6875 -11.832031 L 264.785156 -12.238281 L 268.558594 -12.171875 L 271.195312 -11.539062 L 271.742188 -10.890625 L 271.964844 -10.109375 L 272.355469 -7.441406 L 273.445312 0.0585938 L 274.238281 -0.117188 L 274.949219 -0.246094 L 273.957031 -10.066406 L 273.726562 -11.660156 L 272.957031 -12.585938 L 271.695312 -13.054688 L 263.578125 -13.28125 L 259.164062 -12.773438 L 256.152344 -12.253906 L 255.265625 -12.011719 L 253.582031 -18.527344 L 267.097656 -44.621094 L 258.824219 -54.914062 L 253.882812 -59.953125 L 251.09375 -66.117188 L 255.429688 -74.105469 L 272.984375 -70.730469 L 273.070312 -71.125 L 273.152344 -71.515625 L 255.867188 -74.910156 L 260.042969 -82.605469 L 275.148438 -79.386719 L 275.296875 -80.011719 L 275.445312 -80.640625 L 259.875 -83.957031 L 254.269531 -85.476562 L 250.433594 -87.140625 L 245.949219 -89.746094 L 240.417969 -93.160156 L 233.105469 -93.6875 L 219.085938 -93.082031 L 214.246094 -102 L 209.960938 -108.546875 L 206.300781 -113.625 L 205.730469 -120.730469 L 205.253906 -124.066406 L 202.949219 -125.574219 L 198.457031 -127.976562 L 191.996094 -131.03125 L 183.339844 -137.328125 L 182.234375 -137.679688 L 181.023438 -137.160156 L 179.347656 -135.324219 L 177.414062 -134.222656 L 176.25 -133.699219 L 175.347656 -132.878906 L 170.171875 -128.121094 L 163.996094 -123.28125 L 163.136719 -122.773438 L 161.796875 -122.902344 L 152.976562 -125.976562 L 151.289062 -126.675781 L 147.714844 -128.703125 L 143.519531 -130.496094 L 143.539062 -134.210938 L 143.929688 -135.902344 L 145.226562 -137.78125 L 148.136719 -140.984375 L 154.5 -147.332031 L 163.917969 -156.558594 L 173.902344 -165.503906 L 179.910156 -170.589844 L 182.75 -173.136719 L 184.375 -174.601562 L 185.925781 -176.558594 L 186.738281 -178.636719 L 187.53125 -181.105469 L 188.796875 -183.210938 L 196.621094 -192 L 200.003906 -196.128906 L 285.863281 -175.199219 L 314.726562 -149.484375 L 325.3125 -111.273438 L 330.261719 -78.300781 L 325.621094 -75.542969 L 319.539062 -64.820312 L 314.738281 -52.941406 L 314.410156 -43.980469 L 316.460938 -25.582031 L 322.773438 -2.414062 L 328.414062 16.597656 L 344.445312 16.183594 L 347.722656 38.003906 L 246.828125 177.417969 Z M 244.03125 182.3125 "/>
<path style=" stroke:none;fill-rule:nonzero;fill:rgb(39.99939%,39.99939%,39.99939%);fill-opacity:0.3;" d="M 190.359375 273.609375 L 180.832031 279.46875 L 152.472656 289.734375 L 144.371094 296.40625 L 139.40625 303.023438 L 134.445312 311.945312 L 129.75 314.3125 L 101.921875 321.800781 L 64.410156 337.234375 L 42.121094 349.464844 L 67.605469 315.613281 L 79.074219 300.613281 L 81.28125 293.601562 L 82.109375 293.804688 L 82.109375 299.277344 L 73.332031 308.570312 Z M 190.359375 273.609375 "/>
<path style=" stroke:none;fill-rule:nonzero;fill:rgb(39.99939%,39.99939%,39.99939%);fill-opacity:0.3;" d="M 82.109375 290.835938 L 81.640625 290.667969 L 81.925781 288.09375 L 82.109375 289.464844 Z M 82.109375 290.835938 "/>
<path style=" stroke:none;fill-rule:nonzero;fill:rgb(39.99939%,39.99939%,39.99939%);fill-opacity:0.3;" d="M 191.246094 91.207031 L 194.453125 94.871094 L 199.804688 103.746094 Z M 191.246094 91.207031 "/>
<path style=" stroke:none;fill-rule:nonzero;fill:rgb(39.99939%,39.99939%,39.99939%);fill-opacity:0.3;" d="M 239.777344 182.09375 L 241.898438 183.496094 L 242.742188 184.5625 L 242.695312 184.648438 Z M 239.777344 182.09375 "/>
<path style=" stroke:none;fill-rule:nonzero;fill:rgb(39.99939%,39.99939%,39.99939%);fill-opacity:0.3;" d="M 213.898438 -55.226562 L 222.777344 -43.875 L 220.539062 -36.355469 L 218.4375 -25.914062 L 213.925781 -15.070312 L 214.625 -13.347656 L 215.738281 -11.546875 L 215.046875 -9.957031 L 214.527344 -8.886719 L 214.066406 -7.828125 L 213 -5.632812 L 208.265625 4.90625 L 205.644531 8.871094 L 204.101562 11.367188 L 200.695312 15.492188 L 198.835938 17.40625 L 196.96875 18.886719 L 195.105469 20.511719 L 184.855469 29.96875 L 183.449219 31.519531 L 181.742188 33.292969 L 180.8125 34.621094 L 179.414062 36.390625 L 178.488281 38.011719 L 177.871094 39.921875 L 176.632812 42.570312 L 174.929688 46.84375 L 173.066406 53.476562 L 172.132812 55.984375 L 171.695312 57.324219 L 171.382812 58.089844 L 171.132812 58.503906 L 170.824219 58.742188 L 170.3125 58.773438 L 169.910156 58.5 L 169.839844 58.097656 L 170.421875 45.722656 L 169.652344 40.183594 L 168.390625 36.507812 L 164.210938 28.859375 L 160.105469 21.199219 L 172.332031 9.988281 L 171.34375 9.332031 L 170.355469 8.679688 L 158.816406 18.847656 L 156.300781 11.753906 L 156.140625 8.910156 L 157.789062 0.558594 L 161.976562 -16.835938 L 164.191406 -31.890625 L 164.679688 -44.160156 L 163.152344 -54.738281 L 189.082031 -54.191406 L 187.140625 -27.257812 L 188.328125 -27.195312 L 189.546875 -27.128906 L 190.964844 -53.925781 L 199.03125 -53.496094 L 204.945312 -53.320312 L 208.964844 -51.96875 L 211.453125 -50.183594 L 212.179688 -50.183594 L 212.707031 -50.394531 L 213.195312 -50.601562 L 214.011719 -51.902344 Z M 213.898438 -55.226562 "/>
<g clip-path="url(#clip2)" clip-rule="nonzero">
<path style=" stroke:none;fill-rule:nonzero;fill:rgb(39.99939%,39.99939%,39.99939%);fill-opacity:0.3;" d="M 10.5 114.394531 L 23.402344 86.621094 L 32.625 86.730469 L 41.375 87.511719 L 46.878906 88.160156 L 50.480469 89.191406 L 53.082031 91.882812 L 55.449219 95.695312 L 56.988281 99.398438 L 58.761719 105.792969 L 60.066406 110.167969 L 61.132812 114.207031 L 61.015625 118.132812 L 61.273438 122.792969 L 59.976562 129.972656 L 57.839844 134.730469 L 54.863281 142.867188 L 48.726562 156.148438 L 47.164062 160.183594 L 47.207031 162.785156 L 47.957031 166.941406 L 50.65625 172.152344 L 55.273438 183.882812 L 56.441406 188.265625 L 56.835938 193.601562 L 56.886719 199 L 57.589844 207.222656 L 59.058594 215.050781 L 55.519531 214.695312 L 30.222656 206.796875 L 17.90625 198.027344 L 16.710938 199.496094 L 29.292969 208.453125 L 55.101562 216.515625 L 59.964844 217.007812 L 61.671875 220.679688 L 62.386719 222.652344 L 62.480469 224.019531 L 61.414062 228.15625 L 44.796875 225.917969 L 33.144531 223.351562 L 30.859375 230.878906 L 31.808594 231.140625 L 32.753906 231.402344 L 34.503906 225.554688 L 44.4375 227.742188 L 63.402344 230.296875 L 64.957031 224.609375 L 65.648438 224.578125 L 64.554688 226.988281 L 67.136719 252.804688 L 71.132812 259.359375 L 71.199219 259.597656 L 76.359375 270.367188 L 77.785156 274.039062 L 79.335938 279.488281 L 79.976562 284.15625 L 79.476562 290.617188 L 76.839844 299.625 L 65.773438 313.132812 L 38.5 349.261719 L 32.097656 357.375 L 21.917969 365.570312 L 4.796875 383.753906 L -5.230469 388.769531 L -14.109375 393.96875 L -25.398438 396.015625 L -37.496094 396.261719 L -46.363281 394.207031 L -55.859375 387.601562 L -66.617188 386.074219 L -78.535156 386.757812 L -84.359375 387.1875 L -86.746094 386.335938 L -85.089844 352.074219 L -82.777344 330.066406 L -82.527344 322.015625 L -81.625 320.675781 L -79.566406 319 L -76.15625 315.925781 L -73.984375 312.917969 L -73.3125 310.421875 L -73.492188 306.015625 L -74.039062 302.933594 L -55.648438 288.9375 L -47.234375 281.226562 L -43.121094 276.59375 L -39.8125 271.980469 L -38.367188 268.226562 L -37.816406 264.535156 L -37.066406 253.535156 L -36.21875 242.132812 L -35.859375 241.503906 L -34.796875 241.019531 L -33.566406 240.882812 L -32.824219 241.191406 L -31.515625 242.851562 L -29.046875 244.472656 L -25.976562 244.351562 L -22.773438 243.558594 L -19.414062 239.933594 L -15.324219 233.585938 L -12.441406 226.332031 L -11.394531 218.640625 L -11.445312 214.828125 L -12.121094 202.671875 L -16.277344 191.082031 L -22.96875 178.613281 L -33.351562 161.550781 L -38.199219 153.019531 L -40.734375 148.644531 L -42.746094 145.433594 L -46.042969 142.742188 L -49.269531 141.210938 L -52.269531 140.992188 L -55.957031 140.339844 L -58.265625 138.152344 L -59.417969 134.214844 L -60.628906 124.277344 L -63.570312 96.613281 L -64.757812 88.6875 L -65.351562 86.539062 L -66.980469 83.582031 L -68.191406 82.304688 L -68.585938 81.339844 L -73.054688 61.800781 L -73.324219 59.308594 L -73.65625 57.496094 L -73.402344 49.636719 L -73.363281 46.460938 L -73.6875 43.917969 L -78.152344 31.113281 L -79.277344 27.761719 L -79.453125 25.871094 L -79.378906 24.371094 L -78.398438 22.351562 L -67.925781 -5.125 L -67.308594 -5.59375 L -66.515625 -5.628906 L -65.472656 -5.476562 L -64.652344 -5.082031 L -62.964844 -3.441406 L -60.1875 -2.75 L -58.414062 -1 L -56.625 2.75 L -56.21875 5.351562 L -57.148438 13.980469 L -57.679688 21.773438 L -57.191406 25.566406 L -55.28125 29.421875 L -52.082031 34.175781 L -48.101562 39.621094 L -45.226562 42.140625 L -40.675781 45.316406 L -36.183594 47.929688 L -32.460938 49.175781 L -27.574219 50.421875 L -23.957031 51.4375 L -21.054688 52.542969 L -17.769531 54.53125 L -0.929688 67.734375 L 1.59375 70.320312 L -13.320312 72.726562 L -28.429688 70.691406 L -28.613281 71.867188 L -28.796875 73.046875 L -13.320312 75.136719 L 3.167969 72.476562 L 3.71875 73.308594 L 4.335938 74.867188 L 4.734375 76.46875 L 5.535156 78.875 L 7.265625 81.460938 L 10.273438 82.8125 L 15.003906 84.71875 L 21.15625 86.0625 L 14.175781 100.957031 L 5.804688 95.410156 L 5.113281 96.355469 L 4.421875 97.296875 L 13.164062 103.097656 L 8.285156 113.425781 L 9.394531 113.910156 Z M 10.5 114.394531 "/>
</g>
<path style=" stroke:none;fill-rule:nonzero;fill:rgb(39.99939%,39.99939%,39.99939%);fill-opacity:0.3;" d="M 60.15625 201.382812 L 61.082031 201.824219 L 64.554688 217.695312 L 67.136719 221.308594 L 66.800781 222.046875 L 65.222656 222.109375 L 64.375 219.648438 L 61.871094 214.105469 L 60.554688 206.640625 Z M 60.15625 201.382812 "/>
<path style=" stroke:none;fill-rule:nonzero;fill:rgb(39.99939%,39.99939%,39.99939%);fill-opacity:0.3;" d="M 139.164062 79.769531 L 143.261719 57.027344 L 167.746094 61.691406 L 169.066406 64.574219 L 170.773438 71.410156 L 159.046875 75.179688 Z M 139.164062 79.769531 "/>
<path style="fill-rule:nonzero;fill:rgb(39.99939%,39.99939%,39.99939%);fill-opacity:1;stroke-width:0.03;stroke-linecap:square;stroke-linejoin:miter;stroke:rgb(39.99939%,39.99939%,39.99939%);stroke-opacity:1;stroke-miterlimit:3.239307;" d="M 211.351562 92.828125 L 211.066406 94.882812 L 201.15625 95.609375 L 190.824219 91.4375 L 187.566406 88.964844 L 188.125 89.214844 L 198.96875 92.3125 L 205.164062 92.828125 Z M 211.351562 92.828125 " transform="matrix(1,0,0,1,-74,-13)"/>
<path style="fill-rule:nonzero;fill:rgb(39.99939%,39.99939%,39.99939%);fill-opacity:1;stroke-width:0.03;stroke-linecap:square;stroke-linejoin:miter;stroke:rgb(39.99939%,39.99939%,39.99939%);stroke-opacity:1;stroke-miterlimit:3.239307;" d="M 171.886719 83.222656 L 169.199219 83.457031 L 165.015625 85.820312 L 161.839844 87.519531 L 158.265625 90.160156 L 155.6875 91.855469 L 149.730469 93.367188 L 138.015625 94.871094 L 129.65625 96.160156 L 125.765625 97.648438 L 128.226562 95.925781 L 132.875 93.859375 L 137.523438 93.34375 L 144.75 93.34375 L 145.265625 80.953125 L 143.203125 72.171875 L 140.105469 69.074219 L 141.136719 66.492188 L 147.332031 64.945312 L 151.980469 64.429688 L 156.625 65.976562 L 162.824219 71.140625 L 165.921875 75.273438 L 170.050781 79.917969 Z M 171.886719 83.222656 " transform="matrix(1,0,0,1,-74,-13)"/>
<path style="fill-rule:nonzero;fill:rgb(39.99939%,39.99939%,39.99939%);fill-opacity:1;stroke-width:0.03;stroke-linecap:square;stroke-linejoin:miter;stroke:rgb(39.99939%,39.99939%,39.99939%);stroke-opacity:1;stroke-miterlimit:3.239307;" d="M 310.320312 190.824219 L 309.984375 190.695312 L 307.832031 188.167969 L 306.773438 185.757812 Z M 310.320312 190.824219 " transform="matrix(1,0,0,1,-74,-13)"/>
<path style="fill-rule:nonzero;fill:rgb(39.99939%,39.99939%,39.99939%);fill-opacity:1;stroke-width:0.03;stroke-linecap:square;stroke-linejoin:miter;stroke:rgb(39.99939%,39.99939%,39.99939%);stroke-opacity:1;stroke-miterlimit:3.239307;" d="M 303.902344 170.453125 L 302.816406 168.714844 L 303.121094 164.175781 L 303.269531 164.601562 Z M 303.902344 170.453125 " transform="matrix(1,0,0,1,-74,-13)"/>
<path style="fill-rule:nonzero;fill:rgb(39.99939%,39.99939%,39.99939%);fill-opacity:1;stroke-width:0.03;stroke-linecap:square;stroke-linejoin:miter;stroke:rgb(39.99939%,39.99939%,39.99939%);stroke-opacity:1;stroke-miterlimit:3.239307;" d="M 285.148438 132.503906 L 280.5 126.917969 L 279.65625 125.320312 L 280.035156 125.875 Z M 285.148438 132.503906 " transform="matrix(1,0,0,1,-74,-13)"/>
<path style="fill-rule:nonzero;fill:rgb(39.99939%,39.99939%,39.99939%);fill-opacity:1;stroke-width:0.03;stroke-linecap:square;stroke-linejoin:miter;stroke:rgb(39.99939%,39.99939%,39.99939%);stroke-opacity:1;stroke-miterlimit:3.239307;" d="M 346.730469 235.949219 L 264.359375 286.609375 L 147.332031 321.570312 L 156.109375 312.277344 L 156.109375 306.804688 L 157.75 307.203125 L 158.242188 305.980469 L 158.738281 304.757812 L 156.109375 303.835938 L 156.109375 302.464844 L 155.925781 301.09375 L 156.4375 296.523438 L 155.105469 289.753906 L 152.695312 283.03125 L 149.976562 277.433594 L 147.019531 272.046875 L 145.289062 266.648438 L 146.0625 260.132812 L 148.019531 254.324219 L 153.214844 244.160156 L 170.332031 253.300781 L 172.066406 297.839844 L 173.5625 297.75 L 175.058594 297.664062 L 173.734375 262.867188 L 178.601562 266.070312 L 182.058594 267.402344 L 197.96875 266.90625 L 217.085938 279.414062 L 220.109375 277.699219 L 230.03125 285.070312 L 230.035156 283.824219 L 230.019531 282.714844 L 219.867188 275.285156 L 217.121094 276.761719 L 198.871094 265.011719 L 182.449219 265.539062 L 179.539062 264.417969 L 173.667969 260.550781 L 173.476562 253.757812 L 172.382812 250.796875 L 169.652344 249.257812 L 155.90625 242.6875 L 161.316406 229.058594 L 163.292969 226.171875 L 165.46875 223.820312 L 175.34375 197.628906 L 176.359375 196.289062 L 188.601562 202.960938 L 199.4375 209.144531 L 199.976562 208.078125 L 200.523438 206.996094 L 185.128906 198.203125 L 192.660156 176.65625 L 190.949219 156.878906 L 194.460938 133.433594 L 199.308594 120.304688 L 188.214844 115.972656 L 187.714844 117.25 L 187.21875 118.527344 L 196.144531 122.023438 L 192.117188 132.484375 L 163.0625 123.667969 L 161.375 123.132812 L 160.265625 123.867188 L 158.054688 125.851562 L 135.898438 151.28125 L 135.046875 151.382812 L 134.582031 151.113281 L 135.699219 147.085938 L 137.363281 140.296875 L 138.542969 132.753906 L 138.660156 129.019531 L 138.183594 126.191406 L 136.035156 120.3125 L 134.484375 116.691406 L 132.933594 110.808594 L 131.140625 106.058594 L 128.757812 103.230469 L 127.679688 102.019531 L 126.605469 101.109375 L 126.03125 100.703125 L 125.429688 100.347656 L 125.429688 99.804688 L 125.886719 99.585938 L 127.777344 99.152344 L 129.527344 98.660156 L 131.015625 98.25 L 132.957031 97.9375 L 145.933594 96.175781 L 151.773438 95.480469 L 152.449219 95.640625 L 154.167969 95.488281 L 155.445312 95.246094 L 156.398438 94.945312 L 157.085938 94.617188 L 158.058594 94.207031 L 159.457031 93.363281 L 160.320312 92.660156 L 161.628906 91.503906 L 162.457031 90.789062 L 163.789062 89.921875 L 165.59375 88.636719 L 166.917969 87.796875 L 167.664062 87.300781 L 168.261719 87.015625 L 169.035156 86.597656 L 169.542969 86.296875 L 169.96875 86.144531 L 171.425781 85.625 L 171.984375 85.425781 L 172.308594 85.351562 L 172.824219 85.300781 L 173.742188 85.300781 L 175.613281 85.523438 L 176.59375 85.707031 L 177.628906 86.085938 L 178.84375 86.4375 L 179.652344 86.71875 L 180.484375 87.078125 L 181.128906 87.382812 L 181.878906 87.878906 L 182.359375 88.183594 L 182.695312 88.554688 L 183.425781 89.246094 L 183.824219 89.6875 L 184.777344 90.511719 L 187.480469 92.035156 L 188.4375 92.84375 L 190.109375 93.960938 L 192.34375 95.199219 L 193.347656 95.769531 L 194.386719 96.164062 L 195.15625 96.4375 L 196.054688 96.722656 L 196.835938 97.15625 L 197.996094 97.453125 L 199.3125 98.050781 L 200.972656 98.191406 L 202.496094 98.339844 L 203.652344 98.371094 L 205.03125 98.398438 L 206.59375 98.28125 L 208.03125 98.101562 L 209.066406 98.191406 L 210.160156 98.039062 L 211.109375 97.902344 L 212.320312 97.613281 L 218.519531 96.464844 L 226.914062 94.304688 L 243.675781 90.113281 L 247.15625 89.726562 L 248.894531 93.949219 L 250.570312 99.371094 L 251.402344 105.65625 L 251.84375 106.960938 L 251.488281 108.476562 L 250.855469 109.3125 L 219.5 116.023438 L 217.300781 116.683594 L 215.566406 117.671875 L 214.757812 118.550781 L 214.179688 119.867188 L 213.832031 123.824219 L 213.71875 126.019531 L 212.949219 128.625 L 210.226562 134.796875 L 209.699219 137.167969 L 209.070312 139.730469 L 209.433594 141.90625 L 211.003906 143.621094 L 212.207031 145.109375 L 212.691406 147.058594 L 213.78125 149.347656 L 214.011719 152.269531 L 213.863281 153.992188 L 213.789062 156.71875 L 213.484375 159.234375 L 213.542969 161.71875 L 213.664062 162.0625 L 214.628906 162.117188 L 215.59375 162.175781 L 215.714844 159.769531 L 216.128906 155.570312 L 216.3125 151.867188 L 216.203125 148.246094 L 214.988281 145.679688 L 213.535156 143.277344 L 212.449219 141.21875 L 211.726562 139.269531 L 211.734375 138.054688 L 212.191406 135.972656 L 215.117188 128.519531 L 215.671875 126.28125 L 215.792969 123.945312 L 216.113281 120.316406 L 216.449219 119.550781 L 216.84375 119.121094 L 218.113281 118.394531 L 220.011719 117.828125 L 251.84375 111.015625 L 252.691406 111.238281 L 253.5 111.804688 L 256.164062 116.035156 L 256.464844 117.335938 L 258.097656 117.191406 L 259.398438 117.078125 L 259.191406 114.898438 L 255.613281 109.386719 L 254.460938 104.925781 L 253.625 98.578125 L 251.84375 92.828125 L 248.800781 85.433594 L 265.246094 104.207031 L 273.804688 116.746094 L 274.097656 117.234375 L 275.878906 123.96875 L 278.171875 128.316406 L 292.652344 145.058594 L 297.167969 152.523438 L 299.414062 158.644531 L 300.757812 162.722656 L 300.320312 169.285156 L 302.847656 173.332031 L 304.191406 175.417969 L 303.929688 180.34375 L 304.082031 185.6875 L 305.703125 189.375 L 308.472656 192.628906 L 311.550781 193.8125 L 313.625 194.992188 L 313.777344 195.09375 L 316.695312 197.648438 L 319.945312 202.644531 L 320.847656 205.636719 L 323.9375 209.085938 L 328.488281 211.335938 L 328.546875 211.253906 L 338.898438 218.816406 Z M 346.730469 235.949219 " transform="matrix(1,0,0,1,-74,-13)"/>
<path style="fill-rule:nonzero;fill:rgb(39.99939%,39.99939%,39.99939%);fill-opacity:1;stroke-width:0.03;stroke-linecap:square;stroke-linejoin:miter;stroke:rgb(39.99939%,39.99939%,39.99939%);stroke-opacity:1;stroke-miterlimit:3.239307;" d="M 139.648438 237.578125 L 144.136719 237.398438 L 145.382812 237.976562 L 149.035156 242.0625 L 151.53125 243.519531 L 146.222656 253.847656 L 144.160156 259.726562 L 143.574219 266.722656 L 145.132812 272.359375 L 141.136719 265.804688 L 138.554688 239.988281 Z M 139.648438 237.578125 " transform="matrix(1,0,0,1,-74,-13)"/>
<path style="fill-rule:nonzero;fill:rgb(39.99939%,39.99939%,39.99939%);fill-opacity:1;stroke-width:0.03;stroke-linecap:square;stroke-linejoin:miter;stroke:rgb(39.99939%,39.99939%,39.99939%);stroke-opacity:1;stroke-miterlimit:3.239307;" d="M 135.082031 214.824219 L 157.863281 225.617188 L 158.421875 224.476562 L 158.988281 223.3125 L 134.851562 212.445312 L 134.144531 200.503906 L 130.269531 189.476562 L 125.726562 179.085938 L 125.441406 173.1875 L 135.011719 175.539062 L 140.992188 176.574219 L 146.160156 177.085938 L 151.886719 178.027344 L 159.824219 180.394531 L 165.070312 183.175781 L 168.824219 185.925781 L 170.066406 188.933594 L 171.171875 188.675781 L 172.277344 188.421875 L 170.765625 184.832031 L 166.175781 181.742188 L 160.550781 178.515625 L 152.261719 176.128906 L 146.488281 175.148438 L 141.15625 174.585938 L 135.332031 173.464844 L 125.804688 170.851562 L 126.332031 168.511719 L 128.5625 163.328125 L 138.558594 153.617188 L 161.234375 125.960938 L 191.554688 135.023438 L 187.660156 156.230469 L 188.351562 164.984375 L 146.964844 155.515625 L 146.804688 156.644531 L 146.648438 157.769531 L 188.5 167.082031 L 189.386719 174.304688 L 182.894531 196.410156 L 174.8125 191.324219 L 163.363281 221.453125 L 159.582031 226.515625 L 153.816406 238.011719 L 152.378906 240.960938 L 150.976562 240.160156 L 147.28125 235.957031 L 145.019531 234.886719 L 140.800781 235.046875 L 141.136719 234.308594 L 138.554688 230.695312 Z M 135.082031 214.824219 " transform="matrix(1,0,0,1,-74,-13)"/>
<path style="fill-rule:nonzero;fill:rgb(39.99939%,39.99939%,39.99939%);fill-opacity:1;stroke-width:0.03;stroke-linecap:square;stroke-linejoin:miter;stroke:rgb(39.99939%,39.99939%,39.99939%);stroke-opacity:1;stroke-miterlimit:3.239307;" d="M 245.429688 87.035156 L 215.703125 94.511719 L 214.71875 94.578125 L 212.824219 94.648438 L 213.164062 92.769531 L 233.046875 88.179688 L 244.773438 84.410156 Z M 245.429688 87.035156 " transform="matrix(1,0,0,1,-74,-13)"/>
</g>
</svg>
