<?xml version="1.0" encoding="UTF-8"?>
<svg xmlns="http://www.w3.org/2000/svg" xmlns:xlink="http://www.w3.org/1999/xlink" width="361pt" height="361pt" viewBox="0 0 361 361" version="1.1">
<defs>
<clipPath id="clip1">
  <path d="M 254 247 L 360 247 L 360 360 L 254 360 Z M 254 247 "/>
</clipPath>
<clipPath id="clip2">
  <path d="M 317 231 L 360 231 L 360 360 L 317 360 Z M 317 231 "/>
</clipPath>
<clipPath id="clip3">
  <path d="M 165 296 L 281 296 L 281 360 L 165 360 Z M 165 296 "/>
</clipPath>
<clipPath id="clip4">
  <path d="M 109 298 L 209 298 L 209 360 L 109 360 Z M 109 298 "/>
</clipPath>
<clipPath id="clip5">
  <path d="M 305 92 L 360 92 L 360 158 L 305 158 Z M 305 92 "/>
</clipPath>
<clipPath id="clip6">
  <path d="M 356 0 L 360 0 L 360 35 L 356 35 Z M 356 0 "/>
</clipPath>
<clipPath id="clip7">
  <path d="M 310 210 L 360 210 L 360 245 L 310 245 Z M 310 210 "/>
</clipPath>
<clipPath id="clip8">
  <path d="M 0 290 L 1 290 L 1 360 L 0 360 Z M 0 290 "/>
</clipPath>
<clipPath id="clip9">
  <path d="M 17 284 L 102 284 L 102 360 L 17 360 Z M 17 284 "/>
</clipPath>
<clipPath id="clip10">
  <path d="M 0 335 L 58 335 L 58 360 L 0 360 Z M 0 335 "/>
</clipPath>
<clipPath id="clip11">
  <path d="M 102 307 L 125 307 L 125 360 L 102 360 Z M 102 307 "/>
</clipPath>
</defs>
<g id="surface9002">
<path style="fill-rule:nonzero;fill:rgb(0%,0%,0%);fill-opacity:1;stroke-width:0.03;stroke-linecap:square;stroke-linejoin:miter;stroke:rgb(0%,0%,0%);stroke-opacity:1;stroke-miterlimit:10;" d="M 0 178 L 360 178 L 360 -182 L 0 -182 Z M 0 178 " transform="matrix(1,0,0,1,0,182)"/>
<path style=" stroke:none;fill-rule:nonzero;fill:rgb(39.99939%,39.99939%,39.99939%);fill-opacity:0.3;" d="M 53.226562 -29.332031 L 74.039062 14.023438 L 78.691406 25.652344 L 41.101562 41.601562 L 15.203125 -15.855469 Z M 53.226562 -29.332031 "/>
<path style=" stroke:none;fill-rule:nonzero;fill:rgb(39.99939%,39.99939%,39.99939%);fill-opacity:0.3;" d="M -39.875 -16.804688 L 9.933594 -13.988281 L 36.003906 43.761719 L 19.972656 50.566406 L -4.324219 63.292969 Z M -39.875 -16.804688 "/>
<g clip-path="url(#clip1)" clip-rule="nonzero">
<path style=" stroke:none;fill-rule:nonzero;fill:rgb(39.99939%,39.99939%,39.99939%);fill-opacity:0.3;" d="M 308.570312 247.503906 L 363.402344 442.578125 L 295.378906 462.542969 L 254.628906 292.863281 Z M 308.570312 247.503906 "/>
</g>
<path style=" stroke:none;fill-rule:nonzero;fill:rgb(39.99939%,39.99939%,39.99939%);fill-opacity:0.3;" d="M 241.785156 303.664062 L 241.792969 303.71875 L 241.746094 303.695312 Z M 241.785156 303.664062 "/>
<g clip-path="url(#clip2)" clip-rule="nonzero">
<path style=" stroke:none;fill-rule:nonzero;fill:rgb(39.99939%,39.99939%,39.99939%);fill-opacity:0.3;" d="M 384.433594 231.070312 L 438.117188 422.339844 L 372.933594 440.699219 L 317.914062 244.675781 Z M 384.433594 231.070312 "/>
</g>
<g clip-path="url(#clip3)" clip-rule="nonzero">
<path style=" stroke:none;fill-rule:nonzero;fill:rgb(39.99939%,39.99939%,39.99939%);fill-opacity:0.3;" d="M 165.324219 296.617188 L 237.289062 316.613281 L 280.726562 466.671875 L 217.542969 485.207031 Z M 165.324219 296.617188 "/>
</g>
<g clip-path="url(#clip4)" clip-rule="nonzero">
<path style=" stroke:none;fill-rule:nonzero;fill:rgb(39.99939%,39.99939%,39.99939%);fill-opacity:0.3;" d="M 174.945312 506.675781 L 109.339844 380.894531 L 110.71875 377.964844 L 124.957031 308.570312 L 134.832031 303.632812 L 141.25 302.199219 L 154.957031 298.269531 L 208.515625 489.757812 Z M 174.945312 506.675781 "/>
</g>
<g clip-path="url(#clip5)" clip-rule="nonzero">
<path style=" stroke:none;fill-rule:nonzero;fill:rgb(39.99939%,39.99939%,39.99939%);fill-opacity:0.3;" d="M 360.40625 92.328125 L 369.347656 121.839844 L 366.71875 147.222656 L 322.113281 156.714844 L 306.078125 157.832031 L 305.136719 136.65625 Z M 360.40625 92.328125 "/>
</g>
<g clip-path="url(#clip6)" clip-rule="nonzero">
<path style=" stroke:none;fill-rule:nonzero;fill:rgb(39.99939%,39.99939%,39.99939%);fill-opacity:0.3;" d="M 356.59375 -8.378906 L 448.636719 -34.921875 L 462.628906 8.359375 L 370.640625 34.886719 Z M 356.59375 -8.378906 "/>
</g>
<path style=" stroke:none;fill-rule:nonzero;fill:rgb(39.99939%,39.99939%,39.99939%);fill-opacity:0.3;" d="M 265.917969 -24.765625 L 273.277344 -27.664062 L 309.820312 61.078125 L 297.128906 68.863281 Z M 265.917969 -24.765625 "/>
<path style=" stroke:none;fill-rule:nonzero;fill:rgb(39.99939%,39.99939%,39.99939%);fill-opacity:0.3;" d="M 327.25 -52.535156 L 352.472656 23.722656 L 324.15625 52.621094 L 285.757812 -32.339844 Z M 327.25 -52.535156 "/>
<g clip-path="url(#clip7)" clip-rule="nonzero">
<path style=" stroke:none;fill-rule:nonzero;fill:rgb(39.99939%,39.99939%,39.99939%);fill-opacity:0.3;" d="M 310.460938 218.113281 L 328.582031 214.171875 L 347.921875 210.367188 L 352.949219 217.308594 L 361.074219 219.5625 L 368.722656 221.367188 L 382.234375 223.246094 L 384.433594 231.070312 L 317.914062 244.675781 Z M 310.460938 218.113281 "/>
</g>
<path style=" stroke:none;fill-rule:nonzero;fill:rgb(39.99939%,39.99939%,39.99939%);fill-opacity:0.3;" d="M 306.078125 157.832031 L 296.222656 158.519531 L 291.917969 147.257812 L 305.136719 136.65625 Z M 306.078125 157.832031 "/>
<path style=" stroke:none;fill-rule:nonzero;fill:rgb(39.99939%,39.99939%,39.99939%);fill-opacity:0.3;" d="M 103.882812 284.230469 L 129.875 261.203125 L 145.421875 260.386719 L 187.875 268.304688 L 190.785156 248.371094 L 301.328125 221.734375 L 308.570312 247.503906 L 254.628906 292.863281 L 253.273438 287.210938 L 245.597656 287.367188 L 238.609375 287.507812 L 241.785156 303.664062 L 241.746094 303.695312 L 225.730469 296.554688 L 196.726562 288.621094 L 173.1875 282.671875 L 151.332031 281.902344 L 124.867188 288.3125 L 110.121094 297.519531 L 109.355469 296.949219 Z M 103.882812 284.230469 "/>
<path style=" stroke:none;fill-rule:nonzero;fill:rgb(39.99939%,39.99939%,39.99939%);fill-opacity:0.3;" d="M 88.339844 166.878906 L 90.035156 170.507812 L 78.398438 169.519531 L 71.523438 171.785156 L 60.953125 177.5625 L 51.707031 183.085938 L 51.429688 182.5 L 68.015625 169.78125 Z M 88.339844 166.878906 "/>
<path style=" stroke:none;fill-rule:nonzero;fill:rgb(39.99939%,39.99939%,39.99939%);fill-opacity:0.3;" d="M 124.148438 307.972656 L 131.320312 304.417969 L 134.832031 303.632812 L 124.957031 308.570312 Z M 124.148438 307.972656 "/>
<g clip-path="url(#clip8)" clip-rule="nonzero">
<path style=" stroke:none;fill-rule:nonzero;fill:rgb(39.99939%,39.99939%,39.99939%);fill-opacity:0.3;" d="M -52.890625 310.28125 L -30.644531 294.503906 L -18.894531 290.839844 L -7.925781 293.453125 L -0.996094 300.835938 L 0.117188 312.910156 L -10.867188 337.613281 L -23.863281 359 L -39.863281 378.011719 L -56.980469 396.707031 L -76.460938 408.316406 L -96.40625 418.921875 L -122.941406 427.976562 L -146.980469 430.855469 L -147.488281 426.109375 L -131.441406 416.132812 L -107.410156 407.058594 L -83.417969 395.164062 L -70.410156 374.542969 L -64.277344 353.679688 L -60.339844 335.734375 Z M -52.890625 310.28125 "/>
</g>
<path style=" stroke:none;fill-rule:nonzero;fill:rgb(39.99939%,39.99939%,39.99939%);fill-opacity:0.3;" d="M 110.121094 297.519531 L 109.710938 297.777344 L 109.355469 296.949219 Z M 110.121094 297.519531 "/>
<g clip-path="url(#clip9)" clip-rule="nonzero">
<path style=" stroke:none;fill-rule:nonzero;fill:rgb(39.99939%,39.99939%,39.99939%);fill-opacity:0.3;" d="M 86.46875 284.949219 L 101.085938 309.144531 L 93.222656 323.253906 L 90.738281 332.09375 L 71.886719 369.023438 L 48.5 348.496094 L 17.878906 323.226562 L 52.222656 296.015625 L 61.570312 292.992188 Z M 86.46875 284.949219 "/>
</g>
<path style=" stroke:none;fill-rule:nonzero;fill:rgb(39.99939%,39.99939%,39.99939%);fill-opacity:0.3;" d="M 12.925781 207.796875 L 11.90625 208.464844 L -56.726562 102.242188 L -41.941406 96.421875 L -33.40625 128.855469 Z M 12.925781 207.796875 "/>
<g clip-path="url(#clip10)" clip-rule="nonzero">
<path style=" stroke:none;fill-rule:nonzero;fill:rgb(39.99939%,39.99939%,39.99939%);fill-opacity:0.3;" d="M -162.46875 447.972656 L -118.90625 440.757812 L -85.3125 426.925781 L -53.726562 413.097656 L -35.492188 396.125 L -16.394531 379.132812 L 10.71875 335.480469 L 57.027344 373.613281 L 5.734375 407.792969 L -31.75 424.199219 L -55.796875 432.417969 L -66.273438 440.039062 L -71.1875 452.328125 L -77.964844 458.1875 L -154.371094 497.410156 Z M -162.46875 447.972656 "/>
</g>
<path style=" stroke:none;fill-rule:nonzero;fill:rgb(39.99939%,39.99939%,39.99939%);fill-opacity:0.3;" d="M -44.382812 135.382812 L 11.105469 234.089844 L -32.539062 259.417969 L -59.644531 208.59375 L -84.304688 174.136719 Z M -44.382812 135.382812 "/>
<g clip-path="url(#clip11)" clip-rule="nonzero">
<path style=" stroke:none;fill-rule:nonzero;fill:rgb(39.99939%,39.99939%,39.99939%);fill-opacity:0.3;" d="M 109.339844 380.894531 L 103.210938 369.148438 L 102.644531 355.585938 L 106.195312 342.546875 L 113.277344 331.339844 L 118.757812 310.644531 L 124.148438 307.972656 L 124.957031 308.570312 L 110.71875 377.964844 Z M 109.339844 380.894531 "/>
</g>
<path style=" stroke:none;fill-rule:nonzero;fill:rgb(39.99939%,39.99939%,39.99939%);fill-opacity:0.3;" d="M 92.8125 43.375 L 133.699219 27.277344 L 196.886719 160.53125 L 193.867188 164.289062 L 189.996094 167.972656 L 186.71875 170.214844 L 183.382812 171.890625 L 180.671875 172.929688 L 177.859375 173.765625 L 175.1875 174.378906 L 171.464844 174.984375 L 167.402344 175.605469 L 159.625 175.421875 L 155.378906 175.324219 Z M 92.8125 43.375 "/>
<path style=" stroke:none;fill-rule:nonzero;fill:rgb(39.99939%,39.99939%,39.99939%);fill-opacity:0.3;" d="M 141.546875 24.191406 L 178.359375 9.699219 L 229.582031 117.726562 L 222.933594 123.851562 L 217.859375 129.242188 L 213.488281 134.511719 L 207.429688 143.25 L 202.21875 152.148438 Z M 141.546875 24.191406 "/>
<path style=" stroke:none;fill-rule:nonzero;fill:rgb(39.99939%,39.99939%,39.99939%);fill-opacity:0.3;" d="M 109.570312 -43.238281 L 146.929688 -56.582031 L 174.128906 0.777344 L 137.316406 15.269531 Z M 109.570312 -43.238281 "/>
<path style=" stroke:none;fill-rule:nonzero;fill:rgb(39.99939%,39.99939%,39.99939%);fill-opacity:0.3;" d="M 189.171875 5.441406 L 227.507812 -9.648438 L 272.707031 85.671875 L 238.9375 110.390625 Z M 189.171875 5.441406 "/>
<path style=" stroke:none;fill-rule:nonzero;fill:rgb(39.99939%,39.99939%,39.99939%);fill-opacity:0.3;" d="M 236.226562 -13.078125 L 265.917969 -24.765625 L 297.128906 68.863281 L 280.050781 79.34375 Z M 236.226562 -13.078125 "/>
<path style=" stroke:none;fill-rule:nonzero;fill:rgb(39.99939%,39.99939%,39.99939%);fill-opacity:0.3;" d="M -4.847656 81.820312 L 43.453125 183.679688 L 33.460938 191.71875 L 24.445312 200.246094 L 12.925781 207.796875 L -33.40625 128.855469 L -41.941406 96.421875 Z M -4.847656 81.820312 "/>
<path style=" stroke:none;fill-rule:nonzero;fill:rgb(39.99939%,39.99939%,39.99939%);fill-opacity:0.3;" d="M 2.636719 78.871094 L 40.261719 64.058594 L 88.339844 166.878906 L 68.015625 169.78125 L 51.429688 182.5 Z M 2.636719 78.871094 "/>
<path style=" stroke:none;fill-rule:nonzero;fill:rgb(39.99939%,39.99939%,39.99939%);fill-opacity:0.3;" d="M 47.214844 61.324219 L 86.058594 46.03125 L 147.617188 174.578125 L 119.535156 169.4375 L 109.679688 167.648438 L 96.980469 166.273438 Z M 47.214844 61.324219 "/>
<path style=" stroke:none;fill-rule:nonzero;fill:rgb(39.99939%,39.99939%,39.99939%);fill-opacity:0.3;" d="M 60.117188 -25.574219 L 101.609375 -40.394531 L 129.46875 18.355469 L 88.582031 34.453125 Z M 60.117188 -25.574219 "/>
<path style=" stroke:none;fill-rule:nonzero;fill:rgb(39.99939%,39.99939%,39.99939%);fill-opacity:0.3;" d="M 74.039062 14.023438 L 86.453125 39.878906 L 46.378906 53.308594 L 41.101562 41.601562 L 78.691406 25.652344 Z M 74.039062 14.023438 "/>
<path style=" stroke:none;fill-rule:nonzero;fill:rgb(39.99939%,39.99939%,39.99939%);fill-opacity:0.3;" d="M 36.003906 43.761719 L 41.113281 55.074219 L -1.617188 69.390625 L -4.324219 63.292969 L 19.972656 50.566406 Z M 36.003906 43.761719 "/>
<path style="fill-rule:nonzero;fill:rgb(39.99939%,39.99939%,39.99939%);fill-opacity:1;stroke-width:0.03;stroke-linecap:square;stroke-linejoin:miter;stroke:rgb(39.99939%,39.99939%,39.99939%);stroke-opacity:1;stroke-miterlimit:3.239307;" d="M 380.078125 170.832031 L 370.222656 171.519531 L 365.917969 160.257812 L 379.136719 149.65625 Z M 380.078125 170.832031 " transform="matrix(1,0,0,1,-74,-13)"/>
<path style="fill-rule:nonzero;fill:rgb(39.99939%,39.99939%,39.99939%);fill-opacity:1;stroke-width:0.03;stroke-linecap:square;stroke-linejoin:miter;stroke:rgb(39.99939%,39.99939%,39.99939%);stroke-opacity:1;stroke-miterlimit:3.239307;" d="M 177.882812 297.230469 L 203.875 274.203125 L 219.421875 273.386719 L 261.875 281.304688 L 264.785156 261.371094 L 375.328125 234.734375 L 382.570312 260.503906 L 328.628906 305.863281 L 327.273438 300.210938 L 319.597656 300.367188 L 312.609375 300.507812 L 315.785156 316.664062 L 315.746094 316.695312 L 299.730469 309.554688 L 270.726562 301.621094 L 247.1875 295.671875 L 225.332031 294.902344 L 198.867188 301.3125 L 184.121094 310.519531 L 183.355469 309.949219 Z M 177.882812 297.230469 " transform="matrix(1,0,0,1,-74,-13)"/>
<path style="fill-rule:nonzero;fill:rgb(39.99939%,39.99939%,39.99939%);fill-opacity:1;stroke-width:0.03;stroke-linecap:square;stroke-linejoin:miter;stroke:rgb(39.99939%,39.99939%,39.99939%);stroke-opacity:1;stroke-miterlimit:3.239307;" d="M 162.339844 179.878906 L 164.035156 183.507812 L 152.398438 182.519531 L 145.523438 184.785156 L 134.953125 190.5625 L 125.707031 196.085938 L 125.429688 195.5 L 142.015625 182.78125 Z M 162.339844 179.878906 " transform="matrix(1,0,0,1,-74,-13)"/>
<path style="fill-rule:nonzero;fill:rgb(39.99939%,39.99939%,39.99939%);fill-opacity:1;stroke-width:0.03;stroke-linecap:square;stroke-linejoin:miter;stroke:rgb(39.99939%,39.99939%,39.99939%);stroke-opacity:1;stroke-miterlimit:3.239307;" d="M 198.148438 320.972656 L 205.320312 317.417969 L 208.832031 316.632812 L 198.957031 321.570312 Z M 198.148438 320.972656 " transform="matrix(1,0,0,1,-74,-13)"/>
</g>
</svg>
