<?xml version="1.0" encoding="UTF-8"?>
<svg xmlns="http://www.w3.org/2000/svg" xmlns:xlink="http://www.w3.org/1999/xlink" width="361pt" height="361pt" viewBox="0 0 361 361" version="1.1">
<defs>
<clipPath id="clip1">
  <path d="M 0 308 L 11 308 L 11 360 L 0 360 Z M 0 308 "/>
</clipPath>
</defs>
<g id="surface1148">
<path style="fill-rule:nonzero;fill:rgb(0%,0%,0%);fill-opacity:1;stroke-width:0.03;stroke-linecap:square;stroke-linejoin:miter;stroke:rgb(0%,0%,0%);stroke-opacity:1;stroke-miterlimit:10;" d="M 0 178 L 360 178 L 360 -182 L 0 -182 Z M 0 178 " transform="matrix(1,0,0,1,0,182)"/>
<path style=" stroke:none;fill-rule:nonzero;fill:rgb(39.99939%,39.99939%,39.99939%);fill-opacity:0.3;" d="M 54.519531 226.664062 L 76.726562 213.347656 L 78.164062 215.222656 L 79.824219 215.644531 L 81.488281 216.066406 L 83.414062 214.800781 L 96.65625 236.878906 L 94.882812 238.058594 L 94.234375 241.632812 L 95.320312 243.507812 L 82.789062 251.097656 L 58.980469 244.640625 L 71.417969 237.230469 L 74.394531 239.273438 L 77.953125 238.964844 L 79.859375 235.976562 L 79.457031 232.429688 L 76.476562 230.523438 L 73.195312 230.890625 L 71.167969 233.640625 L 54.984375 229.261719 L 55.199219 228.058594 Z M 54.519531 226.664062 "/>
<path style=" stroke:none;fill-rule:nonzero;fill:rgb(39.99939%,39.99939%,39.99939%);fill-opacity:0.3;" d="M 99.507812 254.128906 L 99.722656 252.925781 L 99.039062 251.53125 L 121.246094 238.214844 L 122.683594 240.089844 L 124.347656 240.515625 L 126.007812 240.9375 L 127.933594 239.667969 L 141.179688 261.75 L 139.40625 262.925781 L 138.796875 266.289062 L 123.546875 262.152344 L 124.382812 260.847656 L 123.976562 257.296875 L 120.996094 255.390625 L 117.714844 255.761719 L 115.691406 258.507812 Z M 99.507812 254.128906 "/>
<path style=" stroke:none;fill-rule:nonzero;fill:rgb(39.99939%,39.99939%,39.99939%);fill-opacity:0.3;" d="M 148.320312 254.242188 L 148.535156 253.039062 L 147.851562 251.644531 L 170.058594 238.328125 L 171.625 240.238281 L 174.820312 241.050781 L 176.746094 239.785156 L 189.992188 261.863281 L 188.21875 263.042969 L 187.570312 266.617188 L 188.65625 268.492188 L 175.742188 276.308594 L 151.933594 269.851562 L 164.753906 262.214844 L 167.726562 264.257812 L 171.289062 263.945312 L 173.195312 260.960938 L 172.792969 257.414062 L 169.808594 255.503906 L 166.527344 255.875 L 164.503906 258.625 Z M 148.320312 254.242188 "/>
<path style=" stroke:none;fill-rule:nonzero;fill:rgb(39.99939%,39.99939%,39.99939%);fill-opacity:0.3;" d="M 253.761719 297.472656 L 271.324219 286.941406 L 272.761719 288.816406 L 274.425781 289.242188 L 276.085938 289.664062 L 278.011719 288.394531 L 289.226562 307.09375 Z M 253.761719 297.472656 "/>
<path style=" stroke:none;fill-rule:nonzero;fill:rgb(39.99939%,39.99939%,39.99939%);fill-opacity:0.3;" d="M 308.570312 167.394531 L 297.808594 218.863281 L 293.660156 255.457031 L 299.398438 283.902344 L 294.683594 308.570312 L 52.269531 242.820312 L 51.429688 106.472656 Z M 308.570312 167.394531 "/>
<path style="fill-rule:nonzero;fill:rgb(39.99939%,39.99939%,39.99939%);fill-opacity:1;stroke-width:0.03;stroke-linecap:square;stroke-linejoin:miter;stroke:rgb(39.99939%,39.99939%,39.99939%);stroke-opacity:1;stroke-miterlimit:3.239307;" d="M 128.519531 239.664062 L 150.726562 226.347656 L 152.164062 228.222656 L 153.824219 228.644531 L 155.488281 229.066406 L 157.414062 227.800781 L 170.65625 249.878906 L 168.882812 251.058594 L 168.234375 254.632812 L 169.320312 256.507812 L 156.789062 264.097656 L 132.980469 257.640625 L 145.417969 250.230469 L 148.394531 252.273438 L 151.953125 251.964844 L 153.859375 248.976562 L 153.457031 245.429688 L 150.476562 243.523438 L 147.195312 243.890625 L 145.167969 246.640625 L 128.984375 242.261719 L 129.199219 241.058594 Z M 128.519531 239.664062 " transform="matrix(1,0,0,1,-74,-13)"/>
<path style="fill-rule:nonzero;fill:rgb(39.99939%,39.99939%,39.99939%);fill-opacity:1;stroke-width:0.03;stroke-linecap:square;stroke-linejoin:miter;stroke:rgb(39.99939%,39.99939%,39.99939%);stroke-opacity:1;stroke-miterlimit:3.239307;" d="M 173.507812 267.128906 L 173.722656 265.925781 L 173.039062 264.53125 L 195.246094 251.214844 L 196.683594 253.089844 L 198.347656 253.515625 L 200.007812 253.9375 L 201.933594 252.667969 L 215.179688 274.75 L 213.40625 275.925781 L 212.796875 279.289062 L 197.546875 275.152344 L 198.382812 273.847656 L 197.976562 270.296875 L 194.996094 268.390625 L 191.714844 268.761719 L 189.691406 271.507812 Z M 173.507812 267.128906 " transform="matrix(1,0,0,1,-74,-13)"/>
<path style="fill-rule:nonzero;fill:rgb(39.99939%,39.99939%,39.99939%);fill-opacity:1;stroke-width:0.03;stroke-linecap:square;stroke-linejoin:miter;stroke:rgb(39.99939%,39.99939%,39.99939%);stroke-opacity:1;stroke-miterlimit:3.239307;" d="M 222.320312 267.242188 L 222.535156 266.039062 L 221.851562 264.644531 L 244.058594 251.328125 L 245.625 253.238281 L 248.820312 254.050781 L 250.746094 252.785156 L 263.992188 274.863281 L 262.21875 276.042969 L 261.570312 279.617188 L 262.65625 281.492188 L 249.742188 289.308594 L 225.933594 282.851562 L 238.753906 275.214844 L 241.726562 277.257812 L 245.289062 276.945312 L 247.195312 273.960938 L 246.792969 270.414062 L 243.808594 268.503906 L 240.527344 268.875 L 238.503906 271.625 Z M 222.320312 267.242188 " transform="matrix(1,0,0,1,-74,-13)"/>
<path style="fill-rule:nonzero;fill:rgb(39.99939%,39.99939%,39.99939%);fill-opacity:1;stroke-width:0.03;stroke-linecap:square;stroke-linejoin:miter;stroke:rgb(39.99939%,39.99939%,39.99939%);stroke-opacity:1;stroke-miterlimit:3.239307;" d="M 327.761719 310.472656 L 345.324219 299.941406 L 346.761719 301.816406 L 348.425781 302.242188 L 350.085938 302.664062 L 352.011719 301.394531 L 363.226562 320.09375 Z M 327.761719 310.472656 " transform="matrix(1,0,0,1,-74,-13)"/>
<path style="fill-rule:nonzero;fill:rgb(39.99939%,39.99939%,39.99939%);fill-opacity:1;stroke-width:0.03;stroke-linecap:square;stroke-linejoin:miter;stroke:rgb(39.99939%,39.99939%,39.99939%);stroke-opacity:1;stroke-miterlimit:3.239307;" d="M 382.570312 180.394531 L 371.808594 231.863281 L 367.660156 268.457031 L 373.398438 296.902344 L 368.683594 321.570312 L 126.269531 255.820312 L 125.429688 119.472656 Z M 382.570312 180.394531 " transform="matrix(1,0,0,1,-74,-13)"/>
<g clip-path="url(#clip1)" clip-rule="nonzero">
<path style=" stroke:none;fill-rule:evenodd;fill:rgb(85.096741%,85.096741%,81.959534%);fill-opacity:0.7;" d="M 10.332031 376 C 10.332031 358.140625 3.238281 341.015625 -9.390625 328.390625 C -22.015625 315.761719 -39.140625 308.667969 -57 308.667969 C -74.859375 308.667969 -91.984375 315.761719 -104.609375 328.390625 C -117.238281 341.015625 -124.332031 358.140625 -124.332031 376 C -124.332031 393.859375 -117.238281 410.984375 -104.609375 423.609375 C -91.984375 436.238281 -74.859375 443.332031 -57 443.332031 C -39.140625 443.332031 -22.015625 436.238281 -9.390625 423.609375 C 3.238281 410.984375 10.332031 393.859375 10.332031 376 Z M 10.332031 376 "/>
</g>
</g>
</svg>
