<?xml version="1.0" encoding="UTF-8"?>
<svg xmlns="http://www.w3.org/2000/svg" xmlns:xlink="http://www.w3.org/1999/xlink" width="361pt" height="361pt" viewBox="0 0 361 361" version="1.1">
<defs>
<clipPath id="clip1">
  <path d="M 0 291 L 113 291 L 113 360 L 0 360 Z M 0 291 "/>
</clipPath>
<clipPath id="clip2">
  <path d="M 333 343 L 360 343 L 360 360 L 333 360 Z M 333 343 "/>
</clipPath>
<clipPath id="clip3">
  <path d="M 333 342 L 360 342 L 360 360 L 333 360 Z M 333 342 "/>
</clipPath>
<clipPath id="clip4">
  <path d="M 342 294 L 360 294 L 360 331 L 342 331 Z M 342 294 "/>
</clipPath>
<clipPath id="clip5">
  <path d="M 337 320 L 360 320 L 360 355 L 337 355 Z M 337 320 "/>
</clipPath>
<clipPath id="clip6">
  <path d="M 312 130 L 360 130 L 360 204 L 312 204 Z M 312 130 "/>
</clipPath>
<clipPath id="clip7">
  <path d="M 250 0 L 360 0 L 360 267 L 250 267 Z M 250 0 "/>
</clipPath>
</defs>
<g id="surface4186">
<path style="fill-rule:nonzero;fill:rgb(0%,0%,0%);fill-opacity:1;stroke-width:0.03;stroke-linecap:square;stroke-linejoin:miter;stroke:rgb(0%,0%,0%);stroke-opacity:1;stroke-miterlimit:10;" d="M 0 178 L 360 178 L 360 -182 L 0 -182 Z M 0 178 " transform="matrix(1,0,0,1,0,182)"/>
<path style=" stroke:none;fill-rule:nonzero;fill:rgb(39.99939%,39.99939%,39.99939%);fill-opacity:0.3;" d="M 90.746094 295.292969 L 101.699219 290.378906 L 102.128906 291.5625 L 92.457031 295.535156 Z M 90.746094 295.292969 "/>
<path style=" stroke:none;fill-rule:nonzero;fill:rgb(39.99939%,39.99939%,39.99939%);fill-opacity:0.3;" d="M 170.824219 174.527344 L 215.949219 184.597656 L 218.175781 185.132812 L 218.582031 185.1875 L 308.570312 205.273438 L 297.203125 232.65625 L 287.757812 241.375 L 275.046875 233.234375 L 235.9375 214.269531 L 229.933594 214 L 167.289062 181.796875 Z M 170.824219 174.527344 "/>
<path style=" stroke:none;fill-rule:nonzero;fill:rgb(39.99939%,39.99939%,39.99939%);fill-opacity:0.3;" d="M 292.460938 244.082031 L 290.304688 242.371094 L 294.792969 238.464844 Z M 292.460938 244.082031 "/>
<path style=" stroke:none;fill-rule:nonzero;fill:rgb(39.99939%,39.99939%,39.99939%);fill-opacity:0.3;" d="M 107.34375 289.421875 L 106.898438 288.269531 L 172.949219 262.511719 L 194.683594 251.097656 L 212.253906 240.378906 L 236.039062 220.546875 L 287.671875 248.304688 L 183.890625 300.503906 L 152.363281 308.570312 L 137.585938 277 Z M 107.34375 289.421875 "/>
<path style=" stroke:none;fill-rule:nonzero;fill:rgb(39.99939%,39.99939%,39.99939%);fill-opacity:0.3;" d="M 163.46875 182.941406 L 228.234375 218.503906 L 191.199219 246.332031 L 168.753906 259.621094 L 119.210938 278.902344 L 89.074219 291.375 L 85.699219 292.195312 L 73.375 292.355469 L 67.832031 292.019531 L 52.589844 289.839844 L 51.429688 288.890625 Z M 163.46875 182.941406 "/>
<g clip-path="url(#clip1)" clip-rule="nonzero">
<path style=" stroke:none;fill-rule:nonzero;fill:rgb(39.99939%,39.99939%,39.99939%);fill-opacity:0.3;" d="M 46.800781 296.273438 L 88.121094 296.46875 L 90.746094 295.292969 L 92.457031 295.535156 L 102.128906 291.5625 L 112.316406 319.535156 L -6.332031 395.683594 L -25.476562 406.953125 L -39.746094 461.121094 L -37.042969 483.808594 L -27.90625 488.25 L -14.695312 504.105469 L -20.628906 525.433594 L -34.40625 521.4375 L -51.582031 516.582031 L -47.441406 504.566406 L -48.800781 504.140625 L -50.15625 503.71875 L -54.46875 515.769531 L -76.835938 509.453125 L -45.347656 387.585938 L -38.246094 373.933594 L 21.519531 320.71875 L 46.789062 341.800781 L 47.496094 341.035156 L 48.8125 339.609375 L 23.746094 318.6875 Z M 46.800781 296.273438 "/>
</g>
<path style=" stroke:none;fill-rule:nonzero;fill:rgb(39.99939%,39.99939%,39.99939%);fill-opacity:0.3;" d="M 42.800781 274.785156 L -0.640625 319.332031 L -1.582031 318.6875 Z M 42.800781 274.785156 "/>
<path style=" stroke:none;fill-rule:nonzero;fill:rgb(39.99939%,39.99939%,39.99939%);fill-opacity:0.3;" d="M 118.128906 317.332031 L 107.34375 289.421875 L 137.585938 277 L 152.363281 308.570312 Z M 118.128906 317.332031 "/>
<path style=" stroke:none;fill-rule:nonzero;fill:rgb(39.99939%,39.99939%,39.99939%);fill-opacity:0.3;" d="M 287.671875 248.304688 L 287.96875 248.464844 L 282.230469 256.3125 L 236.585938 284.316406 L 217.996094 290.542969 L 201.175781 296.082031 L 183.890625 300.503906 Z M 287.671875 248.304688 "/>
<path style=" stroke:none;fill-rule:nonzero;fill:rgb(39.99939%,39.99939%,39.99939%);fill-opacity:0.3;" d="M 320.667969 264.113281 L 257.027344 298 L 238.453125 305.019531 L 182.738281 309.539062 L 173.816406 307.828125 L 229.855469 293.234375 L 243.269531 285.195312 L 298.46875 253.867188 Z M 320.667969 264.113281 "/>
<path style=" stroke:none;fill-rule:nonzero;fill:rgb(39.99939%,39.99939%,39.99939%);fill-opacity:0.3;" d="M 67.832031 292.019531 L 54.238281 291.1875 L 52.589844 289.839844 Z M 67.832031 292.019531 "/>
<g clip-path="url(#clip2)" clip-rule="nonzero">
<path style=" stroke:none;fill-rule:nonzero;fill:rgb(39.99939%,39.99939%,39.99939%);fill-opacity:0.3;" d="M 413.75 346.179688 L 417.769531 365.609375 L 376.84375 375.089844 L 334.644531 384.867188 L 333.242188 370.449219 L 333.769531 364.273438 L 413.195312 343.886719 Z M 413.75 346.179688 "/>
</g>
<g clip-path="url(#clip3)" clip-rule="nonzero">
<path style=" stroke:none;fill-rule:nonzero;fill:rgb(39.99939%,39.99939%,39.99939%);fill-opacity:0.3;" d="M 412.9375 342.265625 L 413.75 346.179688 L 413.195312 343.886719 L 333.769531 364.273438 L 334.304688 358.019531 L 376.84375 349.496094 Z M 412.9375 342.265625 "/>
</g>
<g clip-path="url(#clip4)" clip-rule="nonzero">
<path style=" stroke:none;fill-rule:nonzero;fill:rgb(39.99939%,39.99939%,39.99939%);fill-opacity:0.3;" d="M 376.84375 322.304688 L 342.714844 330.105469 L 376.84375 307.753906 L 397.199219 294.421875 L 406.085938 315.621094 Z M 376.84375 322.304688 "/>
</g>
<g clip-path="url(#clip5)" clip-rule="nonzero">
<path style=" stroke:none;fill-rule:nonzero;fill:rgb(39.99939%,39.99939%,39.99939%);fill-opacity:0.3;" d="M 338.609375 334.449219 L 376.84375 326.734375 L 406.945312 320.660156 L 412.15625 338.371094 L 376.84375 345.917969 L 337.507812 354.324219 Z M 338.609375 334.449219 "/>
</g>
<path style=" stroke:none;fill-rule:nonzero;fill:rgb(39.99939%,39.99939%,39.99939%);fill-opacity:0.3;" d="M 170.976562 166.628906 L 258.492188 -183.40625 L 295.671875 -141.34375 L 296.285156 -134.265625 L 210.84375 124.984375 Z M 170.976562 166.628906 "/>
<path style=" stroke:none;fill-rule:nonzero;fill:rgb(39.99939%,39.99939%,39.99939%);fill-opacity:0.3;" d="M 175.742188 171.28125 L 212.445312 136.519531 L 221.703125 110.914062 L 255.324219 119.554688 L 230.710938 182.496094 Z M 175.742188 171.28125 "/>
<path style=" stroke:none;fill-rule:nonzero;fill:rgb(39.99939%,39.99939%,39.99939%);fill-opacity:0.3;" d="M 222.785156 106.949219 L 249.1875 29.261719 L 283.765625 38.089844 L 256.785156 116.128906 Z M 222.785156 106.949219 "/>
<path style=" stroke:none;fill-rule:nonzero;fill:rgb(39.99939%,39.99939%,39.99939%);fill-opacity:0.3;" d="M 308.570312 205.273438 L 323.316406 208.5625 L 297.203125 232.65625 Z M 308.570312 205.273438 "/>
<path style=" stroke:none;fill-rule:nonzero;fill:rgb(39.99939%,39.99939%,39.99939%);fill-opacity:0.3;" d="M 215.949219 184.597656 L 218.582031 185.1875 L 218.175781 185.132812 Z M 215.949219 184.597656 "/>
<g clip-path="url(#clip6)" clip-rule="nonzero">
<path style=" stroke:none;fill-rule:nonzero;fill:rgb(39.99939%,39.99939%,39.99939%);fill-opacity:0.3;" d="M 363.292969 145.523438 L 351.058594 180.855469 L 338.789062 179.09375 L 327.433594 203.777344 L 312.246094 199.914062 L 341.054688 130.953125 L 348.765625 140.242188 Z M 363.292969 145.523438 "/>
</g>
<path style=" stroke:none;fill-rule:nonzero;fill:rgb(39.99939%,39.99939%,39.99939%);fill-opacity:0.3;" d="M 308.097656 91.480469 L 338.597656 126.972656 L 308.480469 198.949219 L 270.890625 191.839844 Z M 308.097656 91.480469 "/>
<path style=" stroke:none;fill-rule:nonzero;fill:rgb(39.99939%,39.99939%,39.99939%);fill-opacity:0.3;" d="M 303.300781 230.867188 L 329.3125 207.84375 L 341.210938 182.515625 L 349.675781 184.15625 L 347.382812 211.476562 L 334.203125 261.527344 L 296.871094 247.574219 L 292.460938 244.082031 L 294.792969 238.464844 L 298.980469 234.820312 L 313.710938 243.339844 L 315.453125 241.125 L 317.191406 238.910156 Z M 303.300781 230.867188 "/>
<path style=" stroke:none;fill-rule:nonzero;fill:rgb(39.99939%,39.99939%,39.99939%);fill-opacity:0.3;" d="M 279.652344 63.835938 L 303.5 86.984375 L 287.886719 130.425781 L 259.28125 121.433594 Z M 279.652344 63.835938 "/>
<path style=" stroke:none;fill-rule:nonzero;fill:rgb(39.99939%,39.99939%,39.99939%);fill-opacity:0.3;" d="M 258.195312 126.144531 L 286.023438 134.9375 L 265.515625 190.519531 L 235.464844 183.570312 Z M 258.195312 126.144531 "/>
<g clip-path="url(#clip7)" clip-rule="nonzero">
<path style=" stroke:none;fill-rule:nonzero;fill:rgb(39.99939%,39.99939%,39.99939%);fill-opacity:0.3;" d="M 305.648438 81.78125 L 290.078125 67.199219 L 291.441406 33.59375 L 250.941406 23.492188 L 298.199219 -124.082031 L 334.957031 -113.8125 L 369.707031 -106.105469 L 440.195312 -92.5 L 424.640625 -66.175781 L 410.984375 -36.269531 L 420.734375 21.921875 L 428.980469 89.835938 L 426.417969 145.703125 L 414.929688 185.066406 L 395.507812 237.550781 L 386.601562 236.707031 L 369.679688 252.019531 L 362.867188 266.773438 L 355.671875 266.378906 L 347.085938 258.953125 L 358.433594 220.59375 L 362.714844 206.808594 L 366.21875 188.695312 L 371.308594 158.171875 L 374.0625 147.820312 L 391.277344 93.226562 L 384.074219 91.148438 L 363.242188 138.3125 L 353.207031 135.1875 L 341.703125 121.347656 L 354.519531 84.621094 L 353.085938 84.011719 L 351.652344 83.40625 L 338.457031 118.984375 L 326.46875 102.132812 L 310.859375 85.570312 L 317.417969 70.175781 L 312.246094 67.152344 Z M 305.648438 81.78125 "/>
</g>
<path style=" stroke:none;fill-rule:nonzero;fill:rgb(39.99939%,39.99939%,39.99939%);fill-opacity:0.3;" d="M 298.699219 253.738281 L 321.371094 263.738281 L 320.667969 264.113281 L 298.46875 253.867188 Z M 298.699219 253.738281 "/>
<path style="fill-rule:nonzero;fill:rgb(39.99939%,39.99939%,39.99939%);fill-opacity:1;stroke-width:0.03;stroke-linecap:square;stroke-linejoin:miter;stroke:rgb(39.99939%,39.99939%,39.99939%);stroke-opacity:1;stroke-miterlimit:3.239307;" d="M 164.746094 308.292969 L 175.699219 303.378906 L 176.128906 304.5625 L 166.457031 308.535156 Z M 164.746094 308.292969 " transform="matrix(1,0,0,1,-74,-13)"/>
<path style="fill-rule:nonzero;fill:rgb(39.99939%,39.99939%,39.99939%);fill-opacity:1;stroke-width:0.03;stroke-linecap:square;stroke-linejoin:miter;stroke:rgb(39.99939%,39.99939%,39.99939%);stroke-opacity:1;stroke-miterlimit:3.239307;" d="M 244.824219 187.527344 L 289.949219 197.597656 L 292.175781 198.132812 L 292.582031 198.1875 L 382.570312 218.273438 L 371.203125 245.65625 L 361.757812 254.375 L 349.046875 246.234375 L 309.9375 227.269531 L 303.933594 227 L 241.289062 194.796875 Z M 244.824219 187.527344 " transform="matrix(1,0,0,1,-74,-13)"/>
<path style="fill-rule:nonzero;fill:rgb(39.99939%,39.99939%,39.99939%);fill-opacity:1;stroke-width:0.03;stroke-linecap:square;stroke-linejoin:miter;stroke:rgb(39.99939%,39.99939%,39.99939%);stroke-opacity:1;stroke-miterlimit:3.239307;" d="M 366.460938 257.082031 L 364.304688 255.371094 L 368.792969 251.464844 Z M 366.460938 257.082031 " transform="matrix(1,0,0,1,-74,-13)"/>
<path style="fill-rule:nonzero;fill:rgb(39.99939%,39.99939%,39.99939%);fill-opacity:1;stroke-width:0.03;stroke-linecap:square;stroke-linejoin:miter;stroke:rgb(39.99939%,39.99939%,39.99939%);stroke-opacity:1;stroke-miterlimit:3.239307;" d="M 181.34375 302.421875 L 180.898438 301.269531 L 246.949219 275.511719 L 268.683594 264.097656 L 286.253906 253.378906 L 310.039062 233.546875 L 361.671875 261.304688 L 257.890625 313.503906 L 226.363281 321.570312 L 211.585938 290 Z M 181.34375 302.421875 " transform="matrix(1,0,0,1,-74,-13)"/>
<path style="fill-rule:nonzero;fill:rgb(39.99939%,39.99939%,39.99939%);fill-opacity:1;stroke-width:0.03;stroke-linecap:square;stroke-linejoin:miter;stroke:rgb(39.99939%,39.99939%,39.99939%);stroke-opacity:1;stroke-miterlimit:3.239307;" d="M 237.46875 195.941406 L 302.234375 231.503906 L 265.199219 259.332031 L 242.753906 272.621094 L 193.210938 291.902344 L 163.074219 304.375 L 159.699219 305.195312 L 147.375 305.355469 L 141.832031 305.019531 L 126.589844 302.839844 L 125.429688 301.890625 Z M 237.46875 195.941406 " transform="matrix(1,0,0,1,-74,-13)"/>
</g>
</svg>
