<?xml version="1.0" encoding="UTF-8"?>
<svg xmlns="http://www.w3.org/2000/svg" xmlns:xlink="http://www.w3.org/1999/xlink" width="361pt" height="361pt" viewBox="0 0 361 361" version="1.1">
<defs>
<clipPath id="clip1">
  <path d="M 319 50 L 360 50 L 360 107 L 319 107 Z M 319 50 "/>
</clipPath>
<clipPath id="clip2">
  <path d="M 351 130 L 360 130 L 360 164 L 351 164 Z M 351 130 "/>
</clipPath>
<clipPath id="clip3">
  <path d="M 340 139 L 360 139 L 360 172 L 340 172 Z M 340 139 "/>
</clipPath>
<clipPath id="clip4">
  <path d="M 314 159 L 360 159 L 360 202 L 314 202 Z M 314 159 "/>
</clipPath>
<clipPath id="clip5">
  <path d="M 350 350 L 360 350 L 360 360 L 350 360 Z M 350 350 "/>
</clipPath>
<clipPath id="clip6">
  <path d="M 349 329 L 360 329 L 360 348 L 349 348 Z M 349 329 "/>
</clipPath>
<clipPath id="clip7">
  <path d="M 349 312 L 360 312 L 360 329 L 349 329 Z M 349 312 "/>
</clipPath>
<clipPath id="clip8">
  <path d="M 280 334 L 325 334 L 325 360 L 280 360 Z M 280 334 "/>
</clipPath>
<clipPath id="clip9">
  <path d="M 294 351 L 316 351 L 316 360 L 294 360 Z M 294 351 "/>
</clipPath>
<clipPath id="clip10">
  <path d="M 294 348 L 334 348 L 334 360 L 294 360 Z M 294 348 "/>
</clipPath>
<clipPath id="clip11">
  <path d="M 264 332 L 301 332 L 301 360 L 264 360 Z M 264 332 "/>
</clipPath>
<clipPath id="clip12">
  <path d="M 236 324 L 270 324 L 270 360 L 236 360 Z M 236 324 "/>
</clipPath>
<clipPath id="clip13">
  <path d="M 250 328 L 285 328 L 285 360 L 250 360 Z M 250 328 "/>
</clipPath>
<clipPath id="clip14">
  <path d="M 221 330 L 250 330 L 250 360 L 221 360 Z M 221 330 "/>
</clipPath>
<clipPath id="clip15">
  <path d="M 233 185 L 360 185 L 360 288 L 233 288 Z M 233 185 "/>
</clipPath>
<clipPath id="clip16">
  <path d="M 354 221 L 360 221 L 360 294 L 354 294 Z M 354 221 "/>
</clipPath>
<clipPath id="clip17">
  <path d="M 313 31 L 360 31 L 360 107 L 313 107 Z M 313 31 "/>
</clipPath>
<clipPath id="clip18">
  <path d="M 353 18 L 360 18 L 360 51 L 353 51 Z M 353 18 "/>
</clipPath>
<clipPath id="clip19">
  <path d="M 240 19 L 360 19 L 360 114 L 240 114 Z M 240 19 "/>
</clipPath>
<clipPath id="clip20">
  <path d="M 318 0 L 360 0 L 360 4 L 318 4 Z M 318 0 "/>
</clipPath>
<clipPath id="clip21">
  <path d="M 3 332 L 43 332 L 43 360 L 3 360 Z M 3 332 "/>
</clipPath>
<clipPath id="clip22">
  <path d="M 0 347 L 35 347 L 35 360 L 0 360 Z M 0 347 "/>
</clipPath>
<clipPath id="clip23">
  <path d="M 19 314 L 108 314 L 108 360 L 19 360 Z M 19 314 "/>
</clipPath>
<clipPath id="clip24">
  <path d="M 25 298 L 147 298 L 147 360 L 25 360 Z M 25 298 "/>
</clipPath>
<clipPath id="clip25">
  <path d="M 111 333 L 136 333 L 136 360 L 111 360 Z M 111 333 "/>
</clipPath>
<clipPath id="clip26">
  <path d="M 125 339 L 150 339 L 150 360 L 125 360 Z M 125 339 "/>
</clipPath>
<clipPath id="clip27">
  <path d="M 169 354 L 197 354 L 197 360 L 169 360 Z M 169 354 "/>
</clipPath>
<clipPath id="clip28">
  <path d="M 140 345 L 167 345 L 167 360 L 140 360 Z M 140 345 "/>
</clipPath>
<clipPath id="clip29">
  <path d="M 155 348 L 181 348 L 181 360 L 155 360 Z M 155 348 "/>
</clipPath>
</defs>
<g id="surface9079">
<path style="fill-rule:nonzero;fill:rgb(0%,0%,0%);fill-opacity:1;stroke-width:0.03;stroke-linecap:square;stroke-linejoin:miter;stroke:rgb(0%,0%,0%);stroke-opacity:1;stroke-miterlimit:10;" d="M 0 178 L 360 178 L 360 -182 L 0 -182 Z M 0 178 " transform="matrix(1,0,0,1,0,182)"/>
<path style=" stroke:none;fill-rule:nonzero;fill:rgb(39.99939%,39.99939%,39.99939%);fill-opacity:0.3;" d="M 266.777344 205.261719 L 269.3125 203.570312 L 272.960938 203.140625 L 276.035156 202.355469 L 305.320312 186.402344 L 315.214844 203.953125 L 275.296875 227.214844 Z M 266.777344 205.261719 "/>
<path style=" stroke:none;fill-rule:nonzero;fill:rgb(39.99939%,39.99939%,39.99939%);fill-opacity:0.3;" d="M 249.941406 147.929688 L 250.472656 148.746094 L 251.378906 148.371094 L 273.660156 139.21875 L 276.054688 136.605469 L 276.039062 136.035156 L 278.679688 134.847656 L 290.828125 126.367188 L 291.832031 127.136719 L 291.851562 132.652344 L 287.167969 138.757812 L 254.476562 155.332031 L 253.5625 155.792969 L 256.320312 164.796875 L 256.324219 168.242188 L 251.675781 171.148438 L 245.722656 174.785156 L 242.710938 172.535156 L 243.195312 168.949219 L 241.789062 166.449219 L 238.945312 165.675781 L 230.441406 167.007812 L 229.335938 162.230469 Z M 249.941406 147.929688 "/>
<g clip-path="url(#clip1)" clip-rule="nonzero">
<path style=" stroke:none;fill-rule:nonzero;fill:rgb(39.99939%,39.99939%,39.99939%);fill-opacity:0.3;" d="M 393.933594 61.136719 L 390.597656 68.191406 L 386.082031 73.367188 L 383.105469 74.554688 L 370.011719 77.40625 L 360.863281 81.761719 L 330.5 102.570312 L 319.503906 106.378906 L 319.46875 106.375 L 399.058594 50.808594 L 399.515625 51.144531 L 403.078125 51.492188 L 406.539062 51.472656 L 409.003906 52.023438 L 409.84375 52.765625 L 409.96875 53.929688 L 409.601562 54.980469 L 407.0625 55.347656 L 402.527344 55.96875 L 398.171875 57.328125 Z M 393.933594 61.136719 "/>
</g>
<path style=" stroke:none;fill-rule:nonzero;fill:rgb(39.99939%,39.99939%,39.99939%);fill-opacity:0.3;" d="M 264.726562 206.597656 L 272.867188 228.503906 L 253.8125 239.464844 L 249.101562 228.6875 L 248.390625 225.175781 L 248.375 220.242188 Z M 264.726562 206.597656 "/>
<g clip-path="url(#clip2)" clip-rule="nonzero">
<path style=" stroke:none;fill-rule:nonzero;fill:rgb(39.99939%,39.99939%,39.99939%);fill-opacity:0.3;" d="M 362.582031 163.984375 L 351.703125 138.585938 L 356.808594 132.953125 L 359.464844 131.398438 L 363.550781 130.035156 L 375.457031 157.566406 Z M 362.582031 163.984375 "/>
</g>
<path style=" stroke:none;fill-rule:nonzero;fill:rgb(39.99939%,39.99939%,39.99939%);fill-opacity:0.3;" d="M 315.488281 174.414062 L 326.03125 164.261719 L 333.652344 181.820312 L 322.234375 187.582031 Z M 315.488281 174.414062 "/>
<g clip-path="url(#clip3)" clip-rule="nonzero">
<path style=" stroke:none;fill-rule:nonzero;fill:rgb(39.99939%,39.99939%,39.99939%);fill-opacity:0.3;" d="M 340.367188 150.613281 L 350.328125 139.507812 L 361.226562 164.902344 L 349.160156 171.933594 Z M 340.367188 150.613281 "/>
</g>
<path style=" stroke:none;fill-rule:nonzero;fill:rgb(39.99939%,39.99939%,39.99939%);fill-opacity:0.3;" d="M 307.167969 182.429688 L 314.0625 175.785156 L 320.472656 188.828125 L 312.878906 193.5 Z M 307.167969 182.429688 "/>
<path style=" stroke:none;fill-rule:nonzero;fill:rgb(39.99939%,39.99939%,39.99939%);fill-opacity:0.3;" d="M 327.539062 162.804688 L 338.078125 152.65625 L 347.492188 173.617188 L 335.226562 181.042969 Z M 327.539062 162.804688 "/>
<g clip-path="url(#clip4)" clip-rule="nonzero">
<path style=" stroke:none;fill-rule:nonzero;fill:rgb(39.99939%,39.99939%,39.99939%);fill-opacity:0.3;" d="M 314.078125 195.371094 L 378.222656 159.96875 L 383.464844 168.824219 L 317.617188 201.667969 Z M 314.078125 195.371094 "/>
</g>
<path style=" stroke:none;fill-rule:nonzero;fill:rgb(39.99939%,39.99939%,39.99939%);fill-opacity:0.3;" d="M 251.964844 240.835938 L 237.878906 248.914062 L 233.625 242.390625 L 245.953125 223.082031 L 246.148438 225.460938 L 246.925781 229.308594 Z M 251.964844 240.835938 "/>
<path style=" stroke:none;fill-rule:nonzero;fill:rgb(39.99939%,39.99939%,39.99939%);fill-opacity:0.3;" d="M 225.992188 185.628906 L 228.664062 182.667969 L 230.617188 179.300781 L 231.40625 175.246094 L 231.476562 174.285156 L 235.246094 174.210938 L 235.683594 176.132812 L 235.980469 180.390625 L 235.261719 183.964844 L 233.234375 186.371094 L 230.195312 188.230469 L 227.804688 188.785156 L 226.429688 187.824219 Z M 225.992188 185.628906 "/>
<path style=" stroke:none;fill-rule:nonzero;fill:rgb(39.99939%,39.99939%,39.99939%);fill-opacity:0.3;" d="M 191.199219 187.9375 L 190.820312 184.945312 L 224.316406 183.585938 L 227.597656 178.433594 L 225.253906 173.746094 L 223.378906 168.121094 L 227.285156 163.78125 L 228.574219 169.683594 L 228.941406 174.21875 L 228.769531 177.585938 L 227.304688 181.511719 L 224.140625 184.855469 L 219.375 187.523438 L 213.753906 189.335938 L 202.273438 194.199219 L 201.714844 195.261719 L 204.804688 197.652344 L 207.050781 200.308594 L 207.058594 203.503906 L 204.816406 206.699219 L 202.113281 208.480469 L 199.445312 203.460938 L 200.328125 203.429688 L 200.269531 202.773438 L 200.210938 202.113281 L 198.746094 202.140625 Z M 191.199219 187.9375 "/>
<path style=" stroke:none;fill-rule:nonzero;fill:rgb(39.99939%,39.99939%,39.99939%);fill-opacity:0.3;" d="M 224.207031 250.074219 L 232.660156 243.578125 L 236.554688 249.773438 L 227.519531 256.304688 Z M 224.207031 250.074219 "/>
<path style=" stroke:none;fill-rule:nonzero;fill:rgb(39.99939%,39.99939%,39.99939%);fill-opacity:0.3;" d="M 25.964844 305.5 L 24.851562 302.789062 L 25.242188 300.191406 L 26.671875 298.152344 L 29.359375 300.75 Z M 25.964844 305.5 "/>
<path style=" stroke:none;fill-rule:nonzero;fill:rgb(39.99939%,39.99939%,39.99939%);fill-opacity:0.3;" d="M -17.289062 335.5 L 6.011719 309.222656 L 15.535156 317.636719 L 13.4375 327.847656 L 11.097656 332.542969 L 6.488281 338.859375 L 3.273438 341.195312 L -2.96875 343.609375 L -7.136719 344.65625 Z M -17.289062 335.5 "/>
<path style=" stroke:none;fill-rule:nonzero;fill:rgb(39.99939%,39.99939%,39.99939%);fill-opacity:0.3;" d="M 0.613281 277.71875 L 21.222656 298.804688 L 17.136719 315.390625 L -11.351562 291.210938 Z M 0.613281 277.71875 "/>
<path style=" stroke:none;fill-rule:nonzero;fill:rgb(39.99939%,39.99939%,39.99939%);fill-opacity:0.3;" d="M -10.3125 294.800781 L 3.664062 307.148438 L -3.339844 315.101562 L -18.246094 303.613281 Z M -10.3125 294.800781 "/>
<path style=" stroke:none;fill-rule:nonzero;fill:rgb(39.99939%,39.99939%,39.99939%);fill-opacity:0.3;" d="M 23.03125 294.628906 L 22.230469 295.109375 L 1.882812 274.921875 L 1.488281 273.796875 Z M 23.03125 294.628906 "/>
<path style=" stroke:none;fill-rule:nonzero;fill:rgb(39.99939%,39.99939%,39.99939%);fill-opacity:0.3;" d="M 294.175781 308.714844 L 302.089844 319.09375 L 298.710938 319.867188 L 293.636719 320.882812 L 288.644531 321.324219 L 284.804688 320.964844 L 283.023438 320.222656 L 280.445312 316.710938 Z M 294.175781 308.714844 "/>
<path style=" stroke:none;fill-rule:nonzero;fill:rgb(39.99939%,39.99939%,39.99939%);fill-opacity:0.3;" d="M 338.683594 344.101562 L 347.046875 338.421875 L 356.480469 349.890625 L 348.117188 355.714844 Z M 338.683594 344.101562 "/>
<g clip-path="url(#clip5)" clip-rule="nonzero">
<path style=" stroke:none;fill-rule:nonzero;fill:rgb(39.99939%,39.99939%,39.99939%);fill-opacity:0.3;" d="M 350.9375 359.179688 L 362.160156 350.449219 L 371.144531 359.371094 L 360.84375 368.316406 Z M 350.9375 359.179688 "/>
</g>
<path style=" stroke:none;fill-rule:nonzero;fill:rgb(39.99939%,39.99939%,39.99939%);fill-opacity:0.3;" d="M 333.402344 311.894531 L 338.628906 307.351562 L 336.230469 303.667969 L 348.714844 295.285156 L 354.226562 304.734375 L 356.160156 307.621094 L 356.214844 310.835938 L 340.292969 321.527344 Z M 333.402344 311.894531 "/>
<path style=" stroke:none;fill-rule:nonzero;fill:rgb(39.99939%,39.99939%,39.99939%);fill-opacity:0.3;" d="M 331.101562 329.8125 L 348.210938 319.136719 L 356.890625 329.574219 L 334.796875 344.957031 Z M 331.101562 329.8125 "/>
<path style=" stroke:none;fill-rule:nonzero;fill:rgb(39.99939%,39.99939%,39.99939%);fill-opacity:0.3;" d="M 309.203125 321.710938 L 307.347656 320.230469 L 328.765625 309.066406 L 338.707031 322.878906 L 329.992188 328.628906 L 323.410156 325.804688 L 317.128906 323.542969 Z M 309.203125 321.710938 "/>
<path style=" stroke:none;fill-rule:nonzero;fill:rgb(39.99939%,39.99939%,39.99939%);fill-opacity:0.3;" d="M 327.347656 295.875 L 326.34375 297.214844 L 325.742188 300.082031 L 325.144531 303.71875 L 323.332031 306.78125 L 318.699219 310.800781 L 305.871094 318 L 301.300781 312.414062 L 308.230469 307.472656 L 304.714844 302.429688 L 315.449219 294.550781 L 316.65625 292.445312 L 317.664062 291.296875 L 319.074219 290.148438 L 320.886719 289.761719 L 321.855469 289.761719 L 322.261719 290.4375 L 323.222656 290.199219 Z M 327.347656 295.875 "/>
<path style=" stroke:none;fill-rule:nonzero;fill:rgb(39.99939%,39.99939%,39.99939%);fill-opacity:0.3;" d="M 304.441406 291.136719 L 309.035156 296.9375 L 303.992188 300.097656 L 299.960938 294.277344 Z M 304.441406 291.136719 "/>
<path style=" stroke:none;fill-rule:nonzero;fill:rgb(39.99939%,39.99939%,39.99939%);fill-opacity:0.3;" d="M 304.808594 289.324219 L 317.171875 281.953125 L 319.894531 286.496094 L 318.058594 286.898438 L 315.84375 287.667969 L 314.433594 289.007812 L 312.621094 291.6875 L 312.222656 293.984375 L 311.621094 295.320312 L 310.117188 296.261719 Z M 304.808594 289.324219 "/>
<g clip-path="url(#clip6)" clip-rule="nonzero">
<path style=" stroke:none;fill-rule:nonzero;fill:rgb(39.99939%,39.99939%,39.99939%);fill-opacity:0.3;" d="M 349.039062 337.878906 L 359.890625 329.894531 L 368.273438 339.667969 L 357.523438 347.90625 Z M 349.039062 337.878906 "/>
</g>
<g clip-path="url(#clip7)" clip-rule="nonzero">
<path style=" stroke:none;fill-rule:nonzero;fill:rgb(39.99939%,39.99939%,39.99939%);fill-opacity:0.3;" d="M 349.558594 318.253906 L 357.675781 312.492188 L 362.050781 316.410156 L 365.378906 321.371094 L 366.96875 323.105469 L 358.839844 328.90625 Z M 349.558594 318.253906 "/>
</g>
<path style=" stroke:none;fill-rule:nonzero;fill:rgb(39.99939%,39.99939%,39.99939%);fill-opacity:0.3;" d="M 271.476562 312.40625 L 298.390625 295.230469 L 306.644531 306.9375 L 300.421875 311.347656 L 296 305.339844 L 275.804688 317.34375 Z M 271.476562 312.40625 "/>
<path style=" stroke:none;fill-rule:nonzero;fill:rgb(39.99939%,39.99939%,39.99939%);fill-opacity:0.3;" d="M 202.949219 280.976562 L 228.164062 314.539062 L 229.082031 313.816406 L 230.003906 313.089844 L 205.246094 279.574219 L 216.542969 272.695312 L 244.152344 311.21875 L 242.082031 313.191406 L 238.671875 316.550781 L 236.847656 319.332031 L 235.28125 323.992188 L 231.941406 332.117188 L 230.800781 334.472656 L 221.972656 335.898438 L 199.210938 301.109375 L 223.007812 330.011719 L 223.660156 329.304688 L 224.308594 328.597656 L 191.191406 288.136719 Z M 202.949219 280.976562 "/>
<path style=" stroke:none;fill-rule:nonzero;fill:rgb(39.99939%,39.99939%,39.99939%);fill-opacity:0.3;" d="M 333.765625 287.5625 L 343.078125 297.136719 L 335.125 302.265625 L 325.132812 289.722656 Z M 333.765625 287.5625 "/>
<path style=" stroke:none;fill-rule:nonzero;fill:rgb(39.99939%,39.99939%,39.99939%);fill-opacity:0.3;" d="M 317.457031 280.082031 L 316.882812 279.359375 L 319.308594 277.863281 Z M 317.457031 280.082031 "/>
<path style=" stroke:none;fill-rule:nonzero;fill:rgb(39.99939%,39.99939%,39.99939%);fill-opacity:0.3;" d="M 271.476562 312.402344 L 243.511719 274.339844 L 258.996094 264.664062 L 270.242188 266.539062 L 300.238281 270.757812 L 321.324219 275.441406 L 319.972656 277.0625 L 316.5625 279.222656 L 317.335938 280.230469 L 316.640625 281.066406 L 317.148438 281.917969 L 304.769531 289.300781 L 304.40625 291.113281 L 299.941406 294.242188 L 298.363281 295.195312 Z M 271.476562 312.402344 "/>
<path style=" stroke:none;fill-rule:nonzero;fill:rgb(39.99939%,39.99939%,39.99939%);fill-opacity:0.3;" d="M 233.527344 334.035156 L 237.769531 325.054688 L 243.152344 316.75 L 250.039062 308.996094 L 258.101562 304.855469 L 270.796875 319.179688 L 273.234375 320.511719 L 275.921875 321.601562 L 283.480469 322.929688 L 288.730469 323.289062 L 296.285156 322.792969 L 300.894531 321.570312 L 304.832031 321.042969 L 308.007812 322.960938 L 316.339844 325.203125 L 321.832031 327.203125 L 327.78125 329.050781 L 329.320312 329.972656 L 332.617188 342.105469 L 326.382812 344.042969 L 322.261719 339.648438 L 304.453125 332.617188 L 299.769531 332.148438 L 293.898438 331.03125 L 292.335938 330.683594 L 290.746094 330.429688 L 289.925781 330.273438 L 270.242188 323.714844 L 262.746094 320.902344 L 248.214844 313.871094 L 241.1875 323.714844 L 236.5 333.554688 Z M 233.527344 334.035156 "/>
<path style=" stroke:none;fill-rule:nonzero;fill:rgb(39.99939%,39.99939%,39.99939%);fill-opacity:0.3;" d="M 218.757812 271.34375 L 230.019531 264.484375 L 257.519531 302.890625 L 252.652344 304.707031 L 248.21875 307.0625 L 245.492188 310.175781 Z M 218.757812 271.34375 "/>
<path style=" stroke:none;fill-rule:nonzero;fill:rgb(39.99939%,39.99939%,39.99939%);fill-opacity:0.3;" d="M 356.085938 303.320312 L 356.160156 307.621094 L 354.226562 304.734375 Z M 356.085938 303.320312 "/>
<g clip-path="url(#clip8)" clip-rule="nonzero">
<path style=" stroke:none;fill-rule:nonzero;fill:rgb(39.99939%,39.99939%,39.99939%);fill-opacity:0.3;" d="M 280.652344 384.132812 L 303.277344 334.84375 L 324.332031 347.613281 L 316.054688 357.433594 L 302.191406 349.214844 L 293.335938 371.519531 L 302.519531 376.796875 L 292.960938 391.640625 L 281.335938 385.015625 Z M 280.652344 384.132812 "/>
</g>
<g clip-path="url(#clip9)" clip-rule="nonzero">
<path style=" stroke:none;fill-rule:nonzero;fill:rgb(39.99939%,39.99939%,39.99939%);fill-opacity:0.3;" d="M 294.90625 371.015625 L 303.167969 351.257812 L 315.460938 358.628906 L 303.445312 375.546875 Z M 294.90625 371.015625 "/>
</g>
<g clip-path="url(#clip10)" clip-rule="nonzero">
<path style=" stroke:none;fill-rule:nonzero;fill:rgb(39.99939%,39.99939%,39.99939%);fill-opacity:0.3;" d="M 325.257812 348.9375 L 333.148438 359.1875 L 307.074219 397.519531 L 294.097656 391.925781 Z M 325.257812 348.9375 "/>
</g>
<g clip-path="url(#clip11)" clip-rule="nonzero">
<path style=" stroke:none;fill-rule:nonzero;fill:rgb(39.99939%,39.99939%,39.99939%);fill-opacity:0.3;" d="M 264.960938 377.4375 L 286.28125 332.359375 L 300.324219 335.3125 L 279.097656 382.121094 L 276.335938 378.546875 L 266.492188 376.671875 Z M 264.960938 377.4375 "/>
</g>
<g clip-path="url(#clip12)" clip-rule="nonzero">
<path style=" stroke:none;fill-rule:nonzero;fill:rgb(39.99939%,39.99939%,39.99939%);fill-opacity:0.3;" d="M 236.261719 365.179688 L 253.722656 328.96875 L 259.460938 324.765625 L 269.238281 327.945312 L 248.308594 370.449219 Z M 236.261719 365.179688 "/>
</g>
<g clip-path="url(#clip13)" clip-rule="nonzero">
<path style=" stroke:none;fill-rule:nonzero;fill:rgb(39.99939%,39.99939%,39.99939%);fill-opacity:0.3;" d="M 250.691406 371.492188 L 271.601562 328.492188 L 284.289062 331.777344 L 262.953125 376.859375 Z M 250.691406 371.492188 "/>
</g>
<path style=" stroke:none;fill-rule:nonzero;fill:rgb(39.99939%,39.99939%,39.99939%);fill-opacity:0.3;" d="M 326.382812 344.042969 L 324.46875 344.636719 L 318.15625 341.003906 L 312.070312 336.675781 L 307.3125 334.6875 L 303.882812 333.257812 L 293.898438 331.03125 L 299.769531 332.148438 L 304.453125 332.617188 L 322.261719 339.648438 Z M 326.382812 344.042969 "/>
<path style=" stroke:none;fill-rule:nonzero;fill:rgb(39.99939%,39.99939%,39.99939%);fill-opacity:0.3;" d="M 290.746094 330.429688 L 281.902344 329.03125 L 265.867188 324.859375 L 258.855469 322.648438 L 250.746094 327.640625 L 233.375 338.324219 L 236.5 333.554688 L 241.1875 323.714844 L 248.214844 313.871094 L 262.746094 320.902344 L 270.242188 323.714844 L 289.925781 330.273438 Z M 290.746094 330.429688 "/>
<g clip-path="url(#clip14)" clip-rule="nonzero">
<path style=" stroke:none;fill-rule:nonzero;fill:rgb(39.99939%,39.99939%,39.99939%);fill-opacity:0.3;" d="M 221.53125 358.734375 L 224.679688 351.597656 L 229.878906 343.664062 L 231.339844 341.757812 L 239.953125 335.277344 L 249.507812 330.832031 L 234.386719 364.144531 Z M 221.53125 358.734375 "/>
</g>
<path style=" stroke:none;fill-rule:nonzero;fill:rgb(39.99939%,39.99939%,39.99939%);fill-opacity:0.3;" d="M 348.714844 295.285156 L 349.734375 294.597656 L 352.808594 294.144531 L 355.949219 295.558594 L 356.085938 303.320312 L 354.226562 304.734375 Z M 348.714844 295.285156 "/>
<path style=" stroke:none;fill-rule:nonzero;fill:rgb(39.99939%,39.99939%,39.99939%);fill-opacity:0.3;" d="M 321.855469 289.761719 L 322.902344 289.761719 L 323.222656 290.199219 L 322.261719 290.4375 Z M 321.855469 289.761719 "/>
<path style=" stroke:none;fill-rule:nonzero;fill:rgb(39.99939%,39.99939%,39.99939%);fill-opacity:0.3;" d="M 317.171875 281.953125 L 317.46875 281.773438 L 320.679688 286.320312 L 319.894531 286.496094 Z M 317.171875 281.953125 "/>
<path style=" stroke:none;fill-rule:nonzero;fill:rgb(39.99939%,39.99939%,39.99939%);fill-opacity:0.3;" d="M 333.371094 287.15625 L 333.765625 287.5625 L 325.132812 289.722656 L 317.457031 280.082031 L 319.308594 277.863281 L 322.6875 275.777344 Z M 333.371094 287.15625 "/>
<g clip-path="url(#clip15)" clip-rule="nonzero">
<path style=" stroke:none;fill-rule:nonzero;fill:rgb(39.99939%,39.99939%,39.99939%);fill-opacity:0.3;" d="M 243.511719 274.339844 L 233.609375 260.863281 L 284.425781 230.648438 L 366.816406 185.527344 L 385.191406 215.980469 L 382.902344 221.757812 L 351.261719 240.085938 L 337.835938 247.867188 L 338.449219 248.695312 L 339.066406 249.523438 L 350.597656 243.039062 L 364.492188 259.84375 L 377.726562 275.847656 L 359.980469 287.152344 L 356.589844 283.460938 L 353.535156 281.097656 L 350.617188 280.574219 L 348.121094 280.710938 L 333.699219 286.945312 L 322.929688 275.195312 L 319.972656 277.0625 L 321.324219 275.441406 L 300.238281 270.757812 L 270.242188 266.539062 L 258.996094 264.664062 Z M 243.511719 274.339844 "/>
</g>
<path style=" stroke:none;fill-rule:nonzero;fill:rgb(39.99939%,39.99939%,39.99939%);fill-opacity:0.3;" d="M 317.335938 280.230469 L 318.167969 281.308594 L 317.148438 281.917969 L 316.640625 281.066406 Z M 317.335938 280.230469 "/>
<g clip-path="url(#clip16)" clip-rule="nonzero">
<path style=" stroke:none;fill-rule:nonzero;fill:rgb(39.99939%,39.99939%,39.99939%);fill-opacity:0.3;" d="M 422.078125 253.886719 L 422.015625 254.285156 L 422.144531 254.402344 L 423.21875 255.375 L 430.234375 264.515625 L 430.335938 266.738281 L 395.929688 293.128906 L 387.234375 282.261719 L 396.972656 275.222656 L 396.367188 274.464844 L 395.761719 273.710938 L 385.992188 280.707031 L 385.53125 280.128906 L 385.421875 280.214844 L 384.800781 279.433594 L 368.046875 258.328125 L 373.113281 254.144531 L 372.503906 253.425781 L 371.921875 252.742188 L 366.710938 256.867188 L 354.382812 241.484375 L 389.644531 221.410156 L 404 241.585938 L 405.316406 240.601562 L 405.609375 240.386719 L 406.152344 241.230469 L 417.398438 247.792969 Z M 422.078125 253.886719 "/>
</g>
<path style=" stroke:none;fill-rule:nonzero;fill:rgb(39.99939%,39.99939%,39.99939%);fill-opacity:0.3;" d="M 234.914062 125 L 249.941406 147.929688 L 229.335938 162.230469 L 225.855469 147.222656 L 222.53125 141.984375 L 218.929688 138.578125 L 213.675781 137.800781 L 207.042969 137.808594 L 199.582031 140.964844 L 186.03125 147.566406 L 182.140625 130.089844 L 192.554688 125.386719 L 208.171875 118.453125 L 212.859375 118.203125 L 216.765625 118.445312 Z M 234.914062 125 "/>
<path style=" stroke:none;fill-rule:nonzero;fill:rgb(39.99939%,39.99939%,39.99939%);fill-opacity:0.3;" d="M 241.886719 130.703125 L 240.605469 130.863281 L 240.316406 127.75 Z M 241.886719 130.703125 "/>
<path style=" stroke:none;fill-rule:nonzero;fill:rgb(39.99939%,39.99939%,39.99939%);fill-opacity:0.3;" d="M 165.835938 228.839844 L 174.539062 229.28125 L 187.8125 230.191406 L 195.945312 233.980469 L 195.4375 236.136719 L 193.242188 237.632812 L 188.796875 237.507812 L 184.3125 236.398438 L 179.605469 233.828125 L 161.089844 256.046875 L 150.042969 249.308594 Z M 165.835938 228.839844 "/>
<path style=" stroke:none;fill-rule:nonzero;fill:rgb(39.99939%,39.99939%,39.99939%);fill-opacity:0.3;" d="M 179.089844 238.988281 L 187.207031 243.085938 L 173.207031 261.222656 L 171.097656 262 L 164.113281 256.949219 Z M 179.089844 238.988281 "/>
<path style=" stroke:none;fill-rule:nonzero;fill:rgb(39.99939%,39.99939%,39.99939%);fill-opacity:0.3;" d="M 185.871094 167.808594 L 190.351562 199.753906 L 181.601562 202.242188 L 177.039062 203.75 L 169.960938 206.320312 L 166.867188 188.402344 L 165.816406 178.6875 Z M 185.871094 167.808594 "/>
<path style=" stroke:none;fill-rule:nonzero;fill:rgb(39.99939%,39.99939%,39.99939%);fill-opacity:0.3;" d="M 97.609375 214.632812 L 125.007812 180.882812 L 161.691406 155.664062 L 161.707031 156.792969 L 163.199219 170.570312 L 132.585938 193.792969 L 108.863281 222.910156 Z M 97.609375 214.632812 "/>
<path style=" stroke:none;fill-rule:nonzero;fill:rgb(39.99939%,39.99939%,39.99939%);fill-opacity:0.3;" d="M 84.378906 204.90625 L 111.613281 172.890625 L 136.378906 154.902344 L 152.136719 143.980469 L 160.65625 138.871094 L 161.660156 153.035156 L 122.980469 179.628906 L 95.816406 213.113281 L 95.710938 213.238281 Z M 84.378906 204.90625 "/>
<path style=" stroke:none;fill-rule:nonzero;fill:rgb(39.99939%,39.99939%,39.99939%);fill-opacity:0.3;" d="M 152.289062 200.285156 L 165.679688 190.925781 L 168.9375 211.464844 L 167.234375 214.667969 L 164.234375 216.226562 L 159.238281 216.476562 L 156.03125 215.144531 Z M 152.289062 200.285156 "/>
<path style=" stroke:none;fill-rule:nonzero;fill:rgb(39.99939%,39.99939%,39.99939%);fill-opacity:0.3;" d="M 155.558594 217.316406 L 166.707031 223.839844 L 147.523438 247.71875 L 137.398438 240.738281 L 136.761719 240.339844 Z M 155.558594 217.316406 "/>
<path style=" stroke:none;fill-rule:nonzero;fill:rgb(39.99939%,39.99939%,39.99939%);fill-opacity:0.3;" d="M 110.320312 223.824219 L 134.316406 194.367188 L 163.449219 172.863281 L 165.164062 188.660156 L 146.398438 201.773438 L 142.1875 205.414062 L 121.90625 229.4375 L 121.140625 230.582031 Z M 110.320312 223.824219 "/>
<path style=" stroke:none;fill-rule:nonzero;fill:rgb(39.99939%,39.99939%,39.99939%);fill-opacity:0.3;" d="M 150.230469 201.722656 L 154.5 215.308594 L 153.757812 216.175781 L 135.257812 239.402344 L 123.003906 231.746094 L 123.722656 230.671875 L 143.820312 206.867188 L 147.816406 203.410156 Z M 150.230469 201.722656 "/>
<path style=" stroke:none;fill-rule:nonzero;fill:rgb(39.99939%,39.99939%,39.99939%);fill-opacity:0.3;" d="M 193.011719 202.242188 L 191.199219 187.9375 L 198.746094 202.140625 Z M 193.011719 202.242188 "/>
<path style=" stroke:none;fill-rule:nonzero;fill:rgb(39.99939%,39.99939%,39.99939%);fill-opacity:0.3;" d="M 190.820312 184.945312 L 189.304688 172.984375 L 210.332031 167.050781 L 211.445312 167.046875 L 211.558594 167.089844 L 211.742188 166.300781 L 211.925781 165.515625 L 211.765625 165.453125 L 210.085938 165.457031 L 189.101562 171.378906 L 186.488281 150.773438 L 186.335938 149.691406 L 186.996094 149.382812 L 200.507812 142.800781 L 207.5 139.839844 L 213.511719 139.832031 L 217.914062 140.484375 L 220.71875 143.34375 L 223.839844 147.984375 L 227.285156 163.78125 L 223.378906 168.121094 L 225.253906 173.746094 L 227.597656 178.433594 L 224.316406 183.585938 Z M 190.820312 184.945312 "/>
<path style=" stroke:none;fill-rule:nonzero;fill:rgb(39.99939%,39.99939%,39.99939%);fill-opacity:0.3;" d="M 202.113281 208.480469 L 201.175781 209.097656 L 196.96875 209.367188 L 193.882812 209.105469 L 193.191406 203.664062 L 199.445312 203.460938 Z M 202.113281 208.480469 "/>
<path style=" stroke:none;fill-rule:nonzero;fill:rgb(39.99939%,39.99939%,39.99939%);fill-opacity:0.3;" d="M 177.402344 130.566406 L 183.425781 148.785156 L 163.578125 158.066406 L 162.316406 137.875 L 162.496094 137.769531 Z M 177.402344 130.566406 "/>
<path style=" stroke:none;fill-rule:nonzero;fill:rgb(39.99939%,39.99939%,39.99939%);fill-opacity:0.3;" d="M 183.421875 151.050781 L 185.503906 165.496094 L 165.558594 176.316406 L 163.8125 160.222656 Z M 183.421875 151.050781 "/>
<path style=" stroke:none;fill-rule:nonzero;fill:rgb(39.99939%,39.99939%,39.99939%);fill-opacity:0.3;" d="M 210.84375 268.359375 L 209.769531 266.511719 L 209.496094 263.679688 L 210.847656 261.492188 L 213.964844 259.816406 L 217.476562 258.085938 L 218.347656 256.414062 L 218.570312 254.40625 L 224.207031 250.074219 L 227.519531 256.304688 Z M 210.84375 268.359375 "/>
<path style=" stroke:none;fill-rule:nonzero;fill:rgb(39.99939%,39.99939%,39.99939%);fill-opacity:0.3;" d="M 116.957031 163.371094 L 116.9375 163.339844 L 117.746094 162.882812 Z M 116.957031 163.371094 "/>
<path style=" stroke:none;fill-rule:nonzero;fill:rgb(39.99939%,39.99939%,39.99939%);fill-opacity:0.3;" d="M 114.964844 164.539062 L 114.996094 164.582031 L 114.253906 165.289062 Z M 114.964844 164.539062 "/>
<path style=" stroke:none;fill-rule:nonzero;fill:rgb(39.99939%,39.99939%,39.99939%);fill-opacity:0.3;" d="M 81.679688 208.113281 L 93.648438 215.675781 L 82.457031 229.625 L 83.558594 231.289062 L 95.65625 216.945312 L 107.554688 224.460938 L 91.847656 243.148438 L 92.246094 244.011719 L 92.644531 244.878906 L 109.023438 225.390625 L 119.976562 232.3125 L 106.902344 250.121094 L 107.695312 250.679688 L 108.488281 251.234375 L 121.832031 233.484375 L 133.910156 241.117188 L 116.039062 263.636719 L 117.59375 264.699219 L 135.621094 243.085938 L 145.945312 250.609375 L 141.738281 258.085938 L 134.890625 263.515625 L 123.761719 270.707031 L 112.816406 277.863281 L 113.210938 278.398438 L 113.605469 278.929688 L 124.59375 271.871094 L 135.785156 264.636719 L 142.945312 258.960938 L 148.074219 251.648438 L 153.824219 254.402344 L 159.023438 257.679688 L 155.335938 264.816406 L 149.140625 271.761719 L 138.816406 280.527344 L 140.011719 281.792969 L 150.429688 272.953125 L 156.863281 265.730469 L 160.570312 257.960938 L 169.902344 263.859375 L 162.824219 272.949219 L 162.824219 274.609375 L 163.773438 275.945312 L 167.460938 281.152344 L 134.042969 308.570312 L 116.945312 305.335938 L 91.449219 301.035156 L 85.238281 300.433594 L 81.765625 299.054688 L 79.667969 297.660156 L 76.949219 292.746094 L 76.625 291.523438 L 74.359375 282.976562 L 72.097656 276.570312 L 51.429688 250.125 L 65.710938 229.519531 Z M 81.679688 208.113281 "/>
<path style=" stroke:none;fill-rule:nonzero;fill:rgb(39.99939%,39.99939%,39.99939%);fill-opacity:0.3;" d="M 168.964844 223.96875 L 168.511719 222.609375 L 168.433594 221.605469 L 168.734375 220.53125 L 169.867188 219.8125 L 172.207031 219.597656 L 191.015625 225.515625 L 198.683594 226.753906 L 210.21875 228.613281 L 205.429688 236.144531 L 199.203125 245.9375 L 192.003906 242.683594 L 200.226562 233.773438 L 198.648438 233.1875 L 188.003906 229.242188 L 180.375 228.109375 L 174.859375 227.183594 Z M 168.964844 223.96875 "/>
<path style=" stroke:none;fill-rule:nonzero;fill:rgb(39.99939%,39.99939%,39.99939%);fill-opacity:0.3;" d="M 187.453125 52.050781 L 180.671875 53.375 L 172.09375 54.742188 L 171.347656 52.910156 L 187.292969 51.429688 Z M 187.453125 52.050781 "/>
<path style=" stroke:none;fill-rule:nonzero;fill:rgb(39.99939%,39.99939%,39.99939%);fill-opacity:0.3;" d="M 160.234375 60.757812 L 167.769531 60.542969 L 173.152344 60.128906 L 178.105469 59.101562 L 183.054688 57.460938 L 199.855469 117.539062 L 179.710938 125.210938 L 164.945312 77.449219 Z M 160.234375 60.757812 "/>
<path style=" stroke:none;fill-rule:nonzero;fill:rgb(39.99939%,39.99939%,39.99939%);fill-opacity:0.3;" d="M 208.207031 113.191406 L 203.761719 115.746094 L 200.003906 100.460938 L 203.695312 114.695312 Z M 208.207031 113.191406 "/>
<path style=" stroke:none;fill-rule:nonzero;fill:rgb(39.99939%,39.99939%,39.99939%);fill-opacity:0.3;" d="M 167.367188 53.28125 L 168.0625 55.121094 L 162.878906 56.75 L 158.546875 56.757812 L 157.765625 54.242188 L 167.140625 53.304688 Z M 167.367188 53.28125 "/>
<path style=" stroke:none;fill-rule:nonzero;fill:rgb(39.99939%,39.99939%,39.99939%);fill-opacity:0.3;" d="M 172.679688 128.757812 L 172.695312 129.234375 L 161.433594 133.972656 L 161.515625 133.910156 Z M 172.679688 128.757812 "/>
<path style=" stroke:none;fill-rule:nonzero;fill:rgb(39.99939%,39.99939%,39.99939%);fill-opacity:0.3;" d="M 243.246094 133.359375 L 243.273438 133.355469 L 243.667969 134.125 Z M 243.246094 133.359375 "/>
<path style=" stroke:none;fill-rule:nonzero;fill:rgb(39.99939%,39.99939%,39.99939%);fill-opacity:0.3;" d="M 276.039062 136.035156 L 275.910156 131.871094 L 273.878906 128.507812 L 269.902344 127.234375 L 241.886719 130.703125 L 240.316406 127.75 L 239.988281 124.226562 L 275.792969 120.230469 L 282.996094 121.953125 L 287.878906 124.113281 L 290.828125 126.367188 L 278.679688 134.847656 Z M 276.039062 136.035156 "/>
<g clip-path="url(#clip17)" clip-rule="nonzero">
<path style=" stroke:none;fill-rule:nonzero;fill:rgb(39.99939%,39.99939%,39.99939%);fill-opacity:0.3;" d="M 319.46875 106.375 L 314.632812 105.835938 L 313.679688 104.214844 L 314.4375 102.5 L 330.65625 90.773438 L 343.617188 80.515625 L 357.253906 70.851562 L 370.832031 61.832031 L 382.417969 52.144531 L 387.734375 46.644531 L 390.535156 41.867188 L 392.234375 36.558594 L 392.53125 33.476562 L 393.296875 32.441406 L 394.382812 31.9375 L 395.746094 32.425781 L 396.761719 34.980469 L 396.535156 38.449219 L 395.585938 42.441406 L 395.328125 46.136719 L 396.683594 49.050781 L 399.058594 50.808594 Z M 319.46875 106.375 "/>
</g>
<g clip-path="url(#clip18)" clip-rule="nonzero">
<path style=" stroke:none;fill-rule:nonzero;fill:rgb(39.99939%,39.99939%,39.99939%);fill-opacity:0.3;" d="M 353.375 18.730469 L 360.652344 19.65625 L 364.839844 22.785156 L 366.890625 27.300781 L 367.371094 30.855469 L 367.484375 36.429688 L 367.429688 40.84375 L 366.136719 44.179688 L 362.375 47.464844 L 354.347656 50.878906 Z M 353.375 18.730469 "/>
</g>
<path style=" stroke:none;fill-rule:nonzero;fill:rgb(39.99939%,39.99939%,39.99939%);fill-opacity:0.3;" d="M 280.863281 27.671875 L 281.777344 82.894531 L 263.152344 89.894531 L 262.824219 33.59375 L 271.648438 30.808594 Z M 280.863281 27.671875 "/>
<path style=" stroke:none;fill-rule:nonzero;fill:rgb(39.99939%,39.99939%,39.99939%);fill-opacity:0.3;" d="M 330.492188 26.941406 L 349.972656 21.839844 L 350.605469 51.761719 L 340.863281 52.605469 L 341.066406 58.046875 L 332.074219 62.386719 Z M 330.492188 26.941406 "/>
<path style=" stroke:none;fill-rule:nonzero;fill:rgb(39.99939%,39.99939%,39.99939%);fill-opacity:0.3;" d="M 302.195312 19.285156 L 305.304688 73.558594 L 286.433594 80.5625 L 286.109375 25.886719 L 293.675781 23.308594 Z M 302.195312 19.285156 "/>
<path style=" stroke:none;fill-rule:nonzero;fill:rgb(39.99939%,39.99939%,39.99939%);fill-opacity:0.3;" d="M 308.757812 16.1875 L 319.132812 12.445312 L 325.570312 17.246094 L 327.359375 64.460938 L 309.960938 72.15625 L 307.675781 16.699219 Z M 308.757812 16.1875 "/>
<g clip-path="url(#clip19)" clip-rule="nonzero">
<path style=" stroke:none;fill-rule:nonzero;fill:rgb(39.99939%,39.99939%,39.99939%);fill-opacity:0.3;" d="M 241.035156 103.9375 L 307.445312 77.390625 L 336.179688 65.707031 L 367.667969 49.363281 L 370.6875 46.625 L 372.648438 41.019531 L 375.398438 22.253906 L 375.886719 19.703125 L 379.066406 19.699219 L 386.5625 27.773438 L 387.738281 30.65625 L 387.785156 34.726562 L 386 40.113281 L 383.671875 46.152344 L 379.648438 50.90625 L 371.625 57.800781 L 358.957031 65.6875 L 303.824219 105.835938 L 295.492188 102.878906 L 289.933594 102.273438 L 286.234375 99.289062 L 279.949219 98.515625 L 274.4375 99.871094 L 268.9375 103.394531 L 263.78125 108.453125 L 261.359375 109.375 L 253.207031 110.308594 L 249.820312 110.925781 L 248.222656 113.3125 L 240.546875 113.417969 Z M 241.035156 103.9375 "/>
</g>
<g clip-path="url(#clip20)" clip-rule="nonzero">
<path style=" stroke:none;fill-rule:nonzero;fill:rgb(39.99939%,39.99939%,39.99939%);fill-opacity:0.3;" d="M 318.941406 -4.179688 L 321.191406 -5.96875 L 323.523438 -7.378906 L 325.878906 -8.257812 L 332.414062 -8.265625 L 336.5 -8.660156 L 343.164062 -11.367188 L 348.6875 -12.777344 L 351.554688 -12.855469 L 351.789062 -12.777344 L 357.878906 -9.496094 L 359.785156 -7.738281 L 353.355469 -10.972656 L 352.863281 -10.4375 L 352.367188 -9.898438 L 360.929688 -5.484375 L 360.816406 -2.300781 L 350.398438 -3.257812 L 343.539062 -3.046875 L 336.714844 -1.6875 L 329.566406 0.0664062 L 319.324219 3.324219 Z M 318.941406 -4.179688 "/>
</g>
<path style=" stroke:none;fill-rule:nonzero;fill:rgb(39.99939%,39.99939%,39.99939%);fill-opacity:0.3;" d="M 301.601562 -3.664062 L 315.058594 -5.144531 L 316.660156 8 L 308.558594 11.117188 L 303.691406 0.773438 L 304.242188 0.683594 L 304.046875 -1.011719 L 302.914062 -0.875 Z M 301.601562 -3.664062 "/>
<path style=" stroke:none;fill-rule:nonzero;fill:rgb(39.99939%,39.99939%,39.99939%);fill-opacity:0.3;" d="M 239.652344 41.394531 L 250.878906 37.222656 L 257.4375 35.230469 L 258.984375 91.996094 L 240.851562 98.761719 Z M 239.652344 41.394531 "/>
<path style=" stroke:none;fill-rule:nonzero;fill:rgb(39.99939%,39.99939%,39.99939%);fill-opacity:0.3;" d="M 243.273438 133.355469 L 269.3125 130.054688 L 270.835938 130.242188 L 271.953125 130.820312 L 272.96875 131.683594 L 273.476562 133.125 L 273.582031 133.945312 L 273.683594 134.761719 L 272.773438 136.300781 L 271.050781 137.84375 L 248.289062 142.496094 L 243.667969 134.125 Z M 243.273438 133.355469 "/>
<path style=" stroke:none;fill-rule:nonzero;fill:rgb(39.99939%,39.99939%,39.99939%);fill-opacity:0.3;" d="M 163.296875 -5.320312 L 163.328125 -5.316406 L 167.894531 -4.785156 L 171.238281 -4.230469 L 171.242188 -2.191406 L 166.667969 -0.203125 L 164.316406 0.738281 Z M 163.296875 -5.320312 "/>
<path style=" stroke:none;fill-rule:nonzero;fill:rgb(39.99939%,39.99939%,39.99939%);fill-opacity:0.3;" d="M 262.167969 4.808594 L 284.832031 -1.035156 L 291.746094 17.664062 L 271.59375 24.746094 Z M 262.167969 4.808594 "/>
<path style=" stroke:none;fill-rule:nonzero;fill:rgb(39.99939%,39.99939%,39.99939%);fill-opacity:0.3;" d="M 262.820312 32.6875 L 280.851562 27.023438 L 280.863281 27.671875 L 271.648438 30.808594 L 262.824219 33.59375 Z M 262.820312 32.6875 "/>
<path style=" stroke:none;fill-rule:nonzero;fill:rgb(39.99939%,39.99939%,39.99939%);fill-opacity:0.3;" d="M 286.101562 24.515625 L 302.15625 18.617188 L 302.195312 19.285156 L 293.675781 23.308594 L 286.109375 25.886719 Z M 286.101562 24.515625 "/>
<path style=" stroke:none;fill-rule:nonzero;fill:rgb(39.99939%,39.99939%,39.99939%);fill-opacity:0.3;" d="M 307.667969 16.578125 L 308.757812 16.1875 L 307.675781 16.699219 Z M 307.667969 16.578125 "/>
<path style=" stroke:none;fill-rule:nonzero;fill:rgb(39.99939%,39.99939%,39.99939%);fill-opacity:0.3;" d="M 291.390625 -2.539062 L 301.601562 -3.664062 L 302.914062 -0.875 L 291.714844 0.472656 Z M 291.390625 -2.539062 "/>
<path style=" stroke:none;fill-rule:nonzero;fill:rgb(39.99939%,39.99939%,39.99939%);fill-opacity:0.3;" d="M 308.558594 11.117188 L 295.761719 16.042969 L 292.074219 2.65625 L 303.691406 0.773438 Z M 308.558594 11.117188 "/>
<path style=" stroke:none;fill-rule:nonzero;fill:rgb(39.99939%,39.99939%,39.99939%);fill-opacity:0.3;" d="M 238.230469 2.089844 L 246.378906 2.414062 L 253.285156 1.398438 L 269.351562 26.105469 L 252.40625 32.523438 Z M 238.230469 2.089844 "/>
<path style=" stroke:none;fill-rule:nonzero;fill:rgb(39.99939%,39.99939%,39.99939%);fill-opacity:0.3;" d="M 153.4375 9.050781 L 162.417969 5.746094 L 170.378906 2.246094 L 177.523438 -1.441406 L 200.457031 49.554688 L 190.675781 51.421875 L 187.453125 52.050781 L 187.292969 51.429688 L 171.347656 52.910156 Z M 153.4375 9.050781 "/>
<path style=" stroke:none;fill-rule:nonzero;fill:rgb(39.99939%,39.99939%,39.99939%);fill-opacity:0.3;" d="M 210.761719 -2.242188 L 232.734375 1.257812 L 247.640625 33.714844 L 230.902344 41.101562 Z M 210.761719 -2.242188 "/>
<path style=" stroke:none;fill-rule:nonzero;fill:rgb(39.99939%,39.99939%,39.99939%);fill-opacity:0.3;" d="M 180.652344 -2.054688 L 191.8125 -8.242188 L 198.714844 -8.089844 L 204.464844 -6.808594 L 227.835938 41.492188 L 204.359375 49.464844 Z M 180.652344 -2.054688 "/>
<path style=" stroke:none;fill-rule:nonzero;fill:rgb(39.99939%,39.99939%,39.99939%);fill-opacity:0.3;" d="M 94.886719 15.125 L 94.875 15.617188 L 87.917969 15.699219 Z M 94.886719 15.125 "/>
<path style=" stroke:none;fill-rule:nonzero;fill:rgb(39.99939%,39.99939%,39.99939%);fill-opacity:0.3;" d="M 85.964844 15.71875 L 83.660156 15.746094 L 75.042969 15.113281 L 74.816406 13.9375 Z M 85.964844 15.71875 "/>
<path style=" stroke:none;fill-rule:nonzero;fill:rgb(39.99939%,39.99939%,39.99939%);fill-opacity:0.3;" d="M 250.878906 37.222656 L 257.425781 34.789062 L 257.4375 35.230469 Z M 250.878906 37.222656 "/>
<path style=" stroke:none;fill-rule:nonzero;fill:rgb(39.99939%,39.99939%,39.99939%);fill-opacity:0.3;" d="M 163.761719 0.960938 L 163.679688 0.992188 L 149.070312 6.0625 L 139.75 8.167969 L 129.003906 10.835938 L 120.273438 13.046875 L 109.125 14.246094 L 101.03125 14.714844 L 101.027344 14.625 L 115.121094 13.46875 L 147.925781 5.03125 Z M 163.761719 0.960938 "/>
<path style=" stroke:none;fill-rule:nonzero;fill:rgb(39.99939%,39.99939%,39.99939%);fill-opacity:0.3;" d="M 189.191406 56.484375 L 205.652344 53.277344 L 218.824219 99.917969 L 218.535156 103.628906 L 217.113281 106.839844 L 215.074219 109.246094 L 208.207031 113.191406 L 203.695312 114.695312 L 200.003906 100.460938 Z M 189.191406 56.484375 "/>
<path style=" stroke:none;fill-rule:nonzero;fill:rgb(39.99939%,39.99939%,39.99939%);fill-opacity:0.3;" d="M 116.472656 17.257812 L 127.152344 14.777344 L 140.039062 11.875 L 150.667969 9.210938 L 167.367188 53.28125 L 167.140625 53.304688 L 157.765625 54.242188 L 148.292969 51.847656 L 145.292969 48.75 L 142.386719 41.613281 L 141.285156 41.777344 L 140.183594 41.945312 L 142.164062 48.699219 L 111.105469 40.871094 Z M 116.472656 17.257812 "/>
<path style=" stroke:none;fill-rule:nonzero;fill:rgb(39.99939%,39.99939%,39.99939%);fill-opacity:0.3;" d="M 210.550781 53.054688 L 233.703125 44.082031 L 236.121094 110.464844 L 235.691406 112.601562 L 234.738281 113.921875 L 227.796875 115.578125 L 226.5625 115.792969 L 219.03125 114.273438 L 218.507812 113.367188 L 218.882812 112.246094 L 222.046875 109.574219 L 223.855469 98.570312 Z M 210.550781 53.054688 "/>
<path style=" stroke:none;fill-rule:nonzero;fill:rgb(39.99939%,39.99939%,39.99939%);fill-opacity:0.3;" d="M 75.421875 17.097656 L 110.871094 18.859375 L 105.800781 41.316406 L 79.035156 35.964844 Z M 75.421875 17.097656 "/>
<path style=" stroke:none;fill-rule:nonzero;fill:rgb(39.99939%,39.99939%,39.99939%);fill-opacity:0.3;" d="M -5.480469 18.96875 L 0.949219 19.402344 L 4.226562 20.808594 L 6.609375 21.371094 L 9.289062 21.367188 L 12.464844 21.363281 L 12.484375 21.433594 L -2.988281 27.453125 Z M -5.480469 18.96875 "/>
<path style=" stroke:none;fill-rule:nonzero;fill:rgb(39.99939%,39.99939%,39.99939%);fill-opacity:0.3;" d="M 71.398438 5.199219 L 95.222656 2.28125 L 94.886719 15.125 L 87.917969 15.699219 L 85.964844 15.71875 L 74.816406 13.9375 Z M 71.398438 5.199219 "/>
<path style=" stroke:none;fill-rule:nonzero;fill:rgb(39.99939%,39.99939%,39.99939%);fill-opacity:0.3;" d="M 100.40625 2.144531 L 135.539062 -5.644531 L 141.90625 -6.019531 L 147.695312 -5.660156 L 152.328125 -5.667969 L 158.308594 -5.675781 L 163.296875 -5.320312 L 164.316406 0.738281 L 163.761719 0.960938 L 147.925781 5.03125 L 115.121094 13.46875 L 101.027344 14.625 Z M 100.40625 2.144531 "/>
<path style=" stroke:none;fill-rule:nonzero;fill:rgb(39.99939%,39.99939%,39.99939%);fill-opacity:0.3;" d="M 53.09375 154.886719 L 60.042969 166.089844 L 23.847656 188.941406 L 23.078125 177.097656 Z M 53.09375 154.886719 "/>
<path style=" stroke:none;fill-rule:nonzero;fill:rgb(39.99939%,39.99939%,39.99939%);fill-opacity:0.3;" d="M 29.164062 151.433594 L 45.65625 142.894531 L 52.09375 153.277344 L 22.890625 174.265625 L 22.796875 172.808594 Z M 29.164062 151.433594 "/>
<path style=" stroke:none;fill-rule:nonzero;fill:rgb(39.99939%,39.99939%,39.99939%);fill-opacity:0.3;" d="M 80.476562 92.609375 L 80.878906 93.144531 L 81.34375 93.765625 L 85.691406 99.5625 L 60.230469 116.140625 L 53.261719 105.59375 L 78.113281 89.460938 Z M 80.476562 92.609375 "/>
<path style=" stroke:none;fill-rule:nonzero;fill:rgb(39.99939%,39.99939%,39.99939%);fill-opacity:0.3;" d="M 86.636719 71.957031 L 88.722656 72.417969 L 81.074219 76.714844 L 80.796875 76.289062 Z M 86.636719 71.957031 "/>
<path style=" stroke:none;fill-rule:nonzero;fill:rgb(39.99939%,39.99939%,39.99939%);fill-opacity:0.3;" d="M 121.394531 64.261719 L 119.164062 76.171875 L 105.878906 73.515625 L 107.734375 61.710938 Z M 121.394531 64.261719 "/>
<path style=" stroke:none;fill-rule:nonzero;fill:rgb(39.99939%,39.99939%,39.99939%);fill-opacity:0.3;" d="M 105.394531 125.816406 L 105.9375 126.539062 L 106.480469 127.265625 L 111.667969 134.175781 L 87.058594 149.042969 L 78.578125 140.484375 L 104.332031 124.398438 Z M 105.394531 125.816406 "/>
<path style=" stroke:none;fill-rule:nonzero;fill:rgb(39.99939%,39.99939%,39.99939%);fill-opacity:0.3;" d="M 116.9375 163.339844 L 101.835938 143.261719 L 112.761719 137.25 L 127.210938 157.019531 L 117.746094 162.882812 Z M 116.9375 163.339844 "/>
<path style=" stroke:none;fill-rule:nonzero;fill:rgb(39.99939%,39.99939%,39.99939%);fill-opacity:0.3;" d="M 106.480469 127.261719 L 121.304688 117.015625 L 126.75 125.066406 L 111.667969 134.175781 Z M 106.480469 127.261719 "/>
<path style=" stroke:none;fill-rule:nonzero;fill:rgb(39.99939%,39.99939%,39.99939%);fill-opacity:0.3;" d="M 97.878906 115.792969 L 113.621094 106.007812 L 120.265625 115.402344 L 105.410156 125.808594 L 104.335938 124.398438 L 103.289062 123.011719 L 102.25 121.621094 Z M 97.878906 115.792969 "/>
<path style=" stroke:none;fill-rule:nonzero;fill:rgb(39.99939%,39.99939%,39.99939%);fill-opacity:0.3;" d="M 161.285156 134.035156 L 154.058594 138.945312 L 129.691406 155.644531 L 116.5 135.746094 L 140.015625 121.597656 L 156.839844 117.351562 Z M 161.285156 134.035156 "/>
<path style=" stroke:none;fill-rule:nonzero;fill:rgb(39.99939%,39.99939%,39.99939%);fill-opacity:0.3;" d="M 156.332031 115.183594 L 139.789062 119.503906 L 137.007812 107.648438 L 153.101562 103.011719 Z M 156.332031 115.183594 "/>
<path style=" stroke:none;fill-rule:nonzero;fill:rgb(39.99939%,39.99939%,39.99939%);fill-opacity:0.3;" d="M 105.296875 175.183594 L 88.945312 152.898438 L 100.390625 144.261719 L 114.964844 164.539062 L 114.253906 165.289062 L 112.726562 166.742188 L 110.042969 169.101562 Z M 105.296875 175.183594 "/>
<path style=" stroke:none;fill-rule:nonzero;fill:rgb(39.99939%,39.99939%,39.99939%);fill-opacity:0.3;" d="M 80.265625 76.683594 L 80.496094 77.042969 L 75.917969 79.910156 Z M 80.265625 76.683594 "/>
<path style=" stroke:none;fill-rule:nonzero;fill:rgb(39.99939%,39.99939%,39.99939%);fill-opacity:0.3;" d="M 74.246094 82.4375 L 81.941406 77.71875 L 88.800781 73.511719 L 95.605469 82.597656 L 80.476562 92.609375 L 78.117188 89.460938 L 76.265625 87 L 75.554688 86.050781 Z M 74.246094 82.4375 "/>
<path style=" stroke:none;fill-rule:nonzero;fill:rgb(39.99939%,39.99939%,39.99939%);fill-opacity:0.3;" d="M 51.429688 250.125 L 50.867188 249.410156 L 65.710938 229.519531 Z M 51.429688 250.125 "/>
<path style=" stroke:none;fill-rule:nonzero;fill:rgb(39.99939%,39.99939%,39.99939%);fill-opacity:0.3;" d="M 47.476562 141.832031 L 65.773438 130.757812 L 72.15625 140.933594 L 54.09375 151.996094 Z M 47.476562 141.832031 "/>
<path style=" stroke:none;fill-rule:nonzero;fill:rgb(39.99939%,39.99939%,39.99939%);fill-opacity:0.3;" d="M 50.503906 106.148438 L 64.738281 129.050781 L 58.273438 133.128906 L 42.339844 107.496094 L 44.488281 105.777344 L 46.332031 104.492188 L 49.039062 107.199219 Z M 50.503906 106.148438 "/>
<path style=" stroke:none;fill-rule:nonzero;fill:rgb(39.99939%,39.99939%,39.99939%);fill-opacity:0.3;" d="M 41.472656 108.1875 L 57.339844 133.714844 L 46.242188 140.722656 L 31.140625 116.777344 L 39.199219 110.007812 Z M 41.472656 108.1875 "/>
<path style=" stroke:none;fill-rule:nonzero;fill:rgb(39.99939%,39.99939%,39.99939%);fill-opacity:0.3;" d="M 30.695312 118.769531 L 42.105469 137.164062 L 27.484375 119.851562 L 29.367188 118.269531 Z M 30.695312 118.769531 "/>
<path style=" stroke:none;fill-rule:nonzero;fill:rgb(39.99939%,39.99939%,39.99939%);fill-opacity:0.3;" d="M 44.679688 141.320312 L 44.765625 141.460938 L 42.8125 142.472656 Z M 44.679688 141.320312 "/>
<path style=" stroke:none;fill-rule:nonzero;fill:rgb(39.99939%,39.99939%,39.99939%);fill-opacity:0.3;" d="M 55.234375 153.75 L 75.117188 141.984375 L 84.445312 150.683594 L 62.328125 164.648438 Z M 55.234375 153.75 "/>
<path style=" stroke:none;fill-rule:nonzero;fill:rgb(39.99939%,39.99939%,39.99939%);fill-opacity:0.3;" d="M 88.789062 103.6875 L 89.140625 104.15625 L 89.488281 104.621094 L 94.523438 111.332031 L 67.570312 127.175781 L 61.132812 117.335938 L 86.839844 101.089844 Z M 88.789062 103.6875 "/>
<path style=" stroke:none;fill-rule:nonzero;fill:rgb(39.99939%,39.99939%,39.99939%);fill-opacity:0.3;" d="M 67.796875 184.144531 L 81.367188 204.542969 L 48.527344 247.109375 L 40.597656 235.539062 L 39.199219 233.265625 L 28.421875 215.925781 L 24.65625 209.859375 Z M 67.796875 184.144531 "/>
<path style=" stroke:none;fill-rule:nonzero;fill:rgb(39.99939%,39.99939%,39.99939%);fill-opacity:0.3;" d="M 22.957031 196.71875 L 26.785156 192.773438 L 59.535156 171.722656 L 66.945312 182.859375 L 23.910156 208.65625 L 19.984375 202.332031 Z M 22.957031 196.71875 "/>
<path style=" stroke:none;fill-rule:nonzero;fill:rgb(39.99939%,39.99939%,39.99939%);fill-opacity:0.3;" d="M 92.933594 190.257812 L 84.519531 200.511719 L 61.324219 170.273438 L 71.058594 163.257812 Z M 92.933594 190.257812 "/>
<path style=" stroke:none;fill-rule:nonzero;fill:rgb(39.99939%,39.99939%,39.99939%);fill-opacity:0.3;" d="M 95.082031 187.636719 L 73.828125 161.886719 L 86.046875 153.777344 L 104.257812 176.449219 Z M 95.082031 187.636719 "/>
<path style=" stroke:none;fill-rule:nonzero;fill:rgb(39.99939%,39.99939%,39.99939%);fill-opacity:0.3;" d="M 97.875 115.796875 L 102.246094 121.621094 L 74.46875 139.203125 L 68.367188 129.832031 L 95.871094 113.125 L 97.199219 114.898438 L 97.539062 115.347656 Z M 97.875 115.796875 "/>
<path style=" stroke:none;fill-rule:nonzero;fill:rgb(39.99939%,39.99939%,39.99939%);fill-opacity:0.3;" d="M 179.710938 125.210938 L 178.542969 125.65625 L 164.945312 77.449219 Z M 179.710938 125.210938 "/>
<path style=" stroke:none;fill-rule:nonzero;fill:rgb(39.99939%,39.99939%,39.99939%);fill-opacity:0.3;" d="M 158.546875 56.757812 L 156.886719 56.757812 L 151.34375 54.996094 L 148.292969 51.847656 L 157.765625 54.242188 Z M 158.546875 56.757812 "/>
<path style=" stroke:none;fill-rule:nonzero;fill:rgb(39.99939%,39.99939%,39.99939%);fill-opacity:0.3;" d="M 105.800781 41.316406 L 105.707031 41.722656 L 89.332031 38.210938 L 79.011719 36.488281 L 79.035156 35.964844 Z M 105.800781 41.316406 "/>
<path style=" stroke:none;fill-rule:nonzero;fill:rgb(39.99939%,39.99939%,39.99939%);fill-opacity:0.3;" d="M 106.867188 61.550781 L 105.054688 73.351562 L 92.957031 70.902344 L 94.941406 59.324219 Z M 106.867188 61.550781 "/>
<path style=" stroke:none;fill-rule:nonzero;fill:rgb(39.99939%,39.99939%,39.99939%);fill-opacity:0.3;" d="M 135.09375 66.816406 L 132.425781 78.824219 L 120.015625 76.339844 L 122.273438 64.425781 Z M 135.09375 66.816406 "/>
<path style=" stroke:none;fill-rule:nonzero;fill:rgb(39.99939%,39.99939%,39.99939%);fill-opacity:0.3;" d="M 78.410156 56.238281 L 78.207031 56.199219 L 78.847656 40.550781 L 84.289062 41.199219 L 136.605469 52.683594 L 153.585938 58.21875 L 170.394531 112.574219 L 172.476562 122.175781 L 172.679688 128.757812 L 161.515625 133.910156 L 161.433594 133.972656 L 161.285156 134.035156 L 156.839844 117.351562 L 156.585938 116.269531 L 156.332031 115.183594 L 153.101562 103.011719 L 152.960938 102.46875 L 152.820312 101.929688 L 149.796875 90.34375 L 149.683594 89.90625 L 149.570312 89.472656 L 146.539062 77.839844 L 145.585938 76.597656 L 141.902344 67.804688 L 135.648438 66.898438 L 135.09375 66.816406 L 122.273438 64.425781 L 121.835938 64.34375 L 121.394531 64.261719 L 107.734375 61.710938 L 107.296875 61.628906 L 106.867188 61.550781 L 94.941406 59.324219 L 93.996094 59.148438 L 93.050781 58.96875 Z M 78.410156 56.238281 "/>
<path style=" stroke:none;fill-rule:nonzero;fill:rgb(39.99939%,39.99939%,39.99939%);fill-opacity:0.3;" d="M 145.585938 76.597656 L 139.125 78.386719 L 137.222656 69.109375 L 141.902344 67.804688 Z M 145.585938 76.597656 "/>
<path style=" stroke:none;fill-rule:nonzero;fill:rgb(39.99939%,39.99939%,39.99939%);fill-opacity:0.3;" d="M 78.410156 56.238281 L 93.050781 58.96875 L 90.945312 70.53125 L 76.441406 67.628906 L 77.652344 60.613281 L 78.097656 58.925781 L 78.144531 57.777344 Z M 78.410156 56.238281 "/>
<path style=" stroke:none;fill-rule:nonzero;fill:rgb(39.99939%,39.99939%,39.99939%);fill-opacity:0.3;" d="M 85.691406 99.5625 L 81.34375 93.765625 L 96.507812 83.800781 L 104.464844 93.996094 L 88.789062 103.6875 L 86.839844 101.089844 L 86.265625 100.324219 Z M 85.691406 99.5625 "/>
<path style=" stroke:none;fill-rule:nonzero;fill:rgb(39.99939%,39.99939%,39.99939%);fill-opacity:0.3;" d="M 127.871094 124.390625 L 114.777344 105.296875 L 130.5 95.832031 L 134.496094 112.34375 L 134.789062 114.855469 L 134.546875 117.890625 L 132.644531 121.503906 Z M 127.871094 124.390625 "/>
<path style=" stroke:none;fill-rule:nonzero;fill:rgb(39.99939%,39.99939%,39.99939%);fill-opacity:0.3;" d="M 107.382812 93.605469 L 98.378906 82.054688 L 105.648438 77.066406 L 121.800781 80.226562 L 116.15625 87.535156 L 123.097656 98.40625 L 113.601562 104.300781 L 106.148438 94.421875 Z M 107.382812 93.605469 "/>
<path style=" stroke:none;fill-rule:nonzero;fill:rgb(39.99939%,39.99939%,39.99939%);fill-opacity:0.3;" d="M 94.535156 111.324219 L 89.523438 104.59375 L 105.214844 94.964844 L 112.984375 105.085938 L 97.269531 114.878906 L 95.929688 113.105469 L 95.199219 112.230469 Z M 94.535156 111.324219 "/>
<path style=" stroke:none;fill-rule:nonzero;fill:rgb(39.99939%,39.99939%,39.99939%);fill-opacity:0.3;" d="M 122.867188 80.726562 L 130.164062 94.367188 L 124.257812 97.679688 L 117.757812 87.410156 Z M 122.867188 80.726562 "/>
<path style=" stroke:none;fill-rule:nonzero;fill:rgb(39.99939%,39.99939%,39.99939%);fill-opacity:0.3;" d="M 149.570312 89.472656 L 133.613281 93.167969 L 130.796875 81.433594 L 146.539062 77.839844 Z M 149.570312 89.472656 "/>
<path style=" stroke:none;fill-rule:nonzero;fill:rgb(39.99939%,39.99939%,39.99939%);fill-opacity:0.3;" d="M 152.820312 101.929688 L 136.75 106.558594 L 133.816406 94.046875 L 149.796875 90.34375 Z M 152.820312 101.929688 "/>
<path style=" stroke:none;fill-rule:nonzero;fill:rgb(39.99939%,39.99939%,39.99939%);fill-opacity:0.3;" d="M 75.554688 86.050781 L 76.265625 87 L 73.246094 88.914062 L 75.660156 86.34375 Z M 75.554688 86.050781 "/>
<path style=" stroke:none;fill-rule:nonzero;fill:rgb(39.99939%,39.99939%,39.99939%);fill-opacity:0.3;" d="M 23.847656 188.941406 L 21.757812 190.261719 L 16.511719 200.433594 L -11.035156 193.472656 L -9.070312 192.492188 L -22.882812 190.484375 L -30.292969 188.613281 L -29.707031 180.59375 L 14.769531 178.816406 L 14.824219 177.90625 L 14.886719 176.851562 L -29.601562 179.160156 L -28.25 160.707031 L 15.164062 158.683594 L 29.164062 151.433594 L 22.796875 172.808594 L 22.890625 174.265625 L 21.464844 175.289062 L 22.015625 176.410156 L 22.542969 177.492188 L 23.078125 177.097656 Z M 23.847656 188.941406 "/>
<path style=" stroke:none;fill-rule:nonzero;fill:rgb(39.99939%,39.99939%,39.99939%);fill-opacity:0.3;" d="M 26.671875 298.152344 L 26.699219 298.113281 L 29.863281 297.414062 L 36.386719 298.289062 L 29.359375 300.75 Z M 26.671875 298.152344 "/>
<path style=" stroke:none;fill-rule:nonzero;fill:rgb(39.99939%,39.99939%,39.99939%);fill-opacity:0.3;" d="M -37.238281 211.402344 L -9.1875 196.558594 L 12.03125 202.851562 L -35.296875 230.195312 L -39.035156 222.269531 L -39.542969 216.285156 L -39.398438 214.613281 Z M -37.238281 211.402344 "/>
<path style=" stroke:none;fill-rule:nonzero;fill:rgb(39.99939%,39.99939%,39.99939%);fill-opacity:0.3;" d="M 8.296875 124.160156 L 8.257812 124.195312 L 8.113281 124.199219 Z M 8.296875 124.160156 "/>
<path style=" stroke:none;fill-rule:nonzero;fill:rgb(39.99939%,39.99939%,39.99939%);fill-opacity:0.3;" d="M 4.359375 259.6875 L 37.832031 236.84375 L 48.964844 252.363281 L 26.9375 267.464844 Z M 4.359375 259.6875 "/>
<path style=" stroke:none;fill-rule:nonzero;fill:rgb(39.99939%,39.99939%,39.99939%);fill-opacity:0.3;" d="M 79.667969 297.660156 L 79.113281 297.292969 L 77.535156 294.941406 L 76.949219 292.746094 Z M 79.667969 297.660156 "/>
<path style=" stroke:none;fill-rule:nonzero;fill:rgb(39.99939%,39.99939%,39.99939%);fill-opacity:0.3;" d="M -1.796875 264.375 L 3.027344 261.175781 L 69.671875 284.015625 L 75.785156 300.046875 L 27.347656 292.558594 L 26.050781 292.832031 L 23.03125 294.628906 L 1.488281 273.796875 Z M -1.796875 264.375 "/>
<path style=" stroke:none;fill-rule:nonzero;fill:rgb(39.99939%,39.99939%,39.99939%);fill-opacity:0.3;" d="M 66.328125 277.683594 L 63.964844 280.683594 L 30.4375 268.851562 L 49.144531 256.304688 Z M 66.328125 277.683594 "/>
<path style=" stroke:none;fill-rule:nonzero;fill:rgb(39.99939%,39.99939%,39.99939%);fill-opacity:0.3;" d="M 42.105469 137.164062 L 44.679688 141.320312 L 42.8125 142.472656 L 16.933594 155.882812 L 10.398438 156.21875 L 10.210938 154.1875 L 12.953125 154.0625 L 8.941406 140.246094 L 8.394531 134.234375 L 16.730469 130.5625 L 18.636719 129.460938 L 20.164062 127.925781 L 21.136719 125.804688 L 24.3125 120.5625 L 27.484375 119.851562 Z M 42.105469 137.164062 "/>
<path style=" stroke:none;fill-rule:nonzero;fill:rgb(39.99939%,39.99939%,39.99939%);fill-opacity:0.3;" d="M 8.160156 154.28125 L 8.34375 156.324219 L -10.644531 157.300781 L -10.710938 155.355469 L -7.664062 155 Z M 8.160156 154.28125 "/>
<path style=" stroke:none;fill-rule:nonzero;fill:rgb(39.99939%,39.99939%,39.99939%);fill-opacity:0.3;" d="M 40.597656 235.539062 L 23.480469 210.558594 L 24.65625 209.859375 L 28.421875 215.925781 L 39.199219 233.265625 Z M 40.597656 235.539062 "/>
<path style=" stroke:none;fill-rule:nonzero;fill:rgb(39.99939%,39.99939%,39.99939%);fill-opacity:0.3;" d="M 22.679688 209.390625 L 17.800781 202.035156 L 22.957031 196.71875 L 19.984375 202.332031 L 23.910156 208.65625 Z M 22.679688 209.390625 "/>
<path style=" stroke:none;fill-rule:nonzero;fill:rgb(39.99939%,39.99939%,39.99939%);fill-opacity:0.3;" d="M -33.96875 233.757812 L 15.265625 204.761719 L 23.164062 217.152344 L -22.855469 246.289062 L -27.394531 242.394531 Z M -33.96875 233.757812 "/>
<path style=" stroke:none;fill-rule:nonzero;fill:rgb(39.99939%,39.99939%,39.99939%);fill-opacity:0.3;" d="M -20.816406 248.574219 L 25.792969 219.757812 L 34.902344 234.617188 L -8.074219 263.21875 L -13.136719 258.175781 Z M -20.816406 248.574219 "/>
<g clip-path="url(#clip21)" clip-rule="nonzero">
<path style=" stroke:none;fill-rule:nonzero;fill:rgb(39.99939%,39.99939%,39.99939%);fill-opacity:0.3;" d="M 3.082031 347.378906 L 15.90625 337.40625 L 17.996094 332.464844 L 42.292969 374.210938 L 36.417969 379.238281 Z M 3.082031 347.378906 "/>
</g>
<g clip-path="url(#clip22)" clip-rule="nonzero">
<path style=" stroke:none;fill-rule:nonzero;fill:rgb(39.99939%,39.99939%,39.99939%);fill-opacity:0.3;" d="M -18.039062 355.523438 L -13.636719 350.902344 L -9.097656 349.941406 L -4.296875 349.226562 L -0.578125 347.382812 L 34.3125 381.050781 L 22.277344 392.535156 Z M -18.039062 355.523438 "/>
</g>
<g clip-path="url(#clip23)" clip-rule="nonzero">
<path style=" stroke:none;fill-rule:nonzero;fill:rgb(39.99939%,39.99939%,39.99939%);fill-opacity:0.3;" d="M 26.859375 314.285156 L 54.589844 353.882812 L 78.941406 369.519531 L 98.632812 382.160156 L 100.140625 382.863281 L 107.621094 387.917969 L 104.21875 402.105469 L 92.929688 396.566406 L 69.757812 383.820312 L 56.363281 376.507812 L 58.898438 386.804688 L 63.113281 394.109375 L 63.882812 395.453125 L 64.023438 397.957031 L 63.136719 399.691406 L 61.179688 401.996094 L 57.980469 404.015625 L 55.535156 403.753906 L 50.074219 399.035156 L 47.839844 399.257812 L 46.339844 401.140625 L 46.671875 403.445312 L 70.742188 421.011719 L 96.824219 432.902344 L 94.335938 443.273438 L 87.828125 440.390625 L 76.773438 435.351562 L 63.765625 426.863281 L 50.105469 417.023438 L 49.082031 416.144531 L 37.714844 406.40625 L 24.699219 394.34375 L 35.542969 383.636719 L 45.320312 392.476562 L 46.6875 391.453125 L 48.058594 390.433594 L 38.542969 381.902344 L 44.984375 374.855469 L 19.425781 329.09375 Z M 26.859375 314.285156 "/>
</g>
<g clip-path="url(#clip24)" clip-rule="nonzero">
<path style=" stroke:none;fill-rule:nonzero;fill:rgb(39.99939%,39.99939%,39.99939%);fill-opacity:0.3;" d="M 144.261719 387.136719 L 138.808594 395.5625 L 121.433594 388.019531 L 110.917969 386.082031 L 96.683594 377.890625 L 61.601562 355.066406 L 58.542969 352.511719 L 28.289062 311.136719 L 25.964844 305.5 L 29.359375 300.75 L 36.386719 298.289062 L 78.230469 303.898438 L 72.941406 309.183594 L 68.523438 310.660156 L 66.742188 311.082031 L 63.851562 312.625 L 62.316406 318.339844 L 62.820312 321.726562 L 64.738281 326.699219 L 66.921875 330.085938 L 72.085938 334.839844 L 79.703125 340.121094 L 106.015625 354.691406 L 114.859375 359.867188 L 123.851562 364.378906 L 124.601562 368.234375 L 135.875 378.566406 L 146.652344 382.941406 Z M 144.261719 387.136719 "/>
</g>
<path style=" stroke:none;fill-rule:nonzero;fill:rgb(39.99939%,39.99939%,39.99939%);fill-opacity:0.3;" d="M 110.691406 353.617188 L 110.320312 354.371094 L 85.78125 339.871094 L 82.96875 337.414062 Z M 110.691406 353.617188 "/>
<path style=" stroke:none;fill-rule:nonzero;fill:rgb(39.99939%,39.99939%,39.99939%);fill-opacity:0.3;" d="M 82.5625 337.054688 L 77.867188 332.949219 L 70.347656 325.652344 L 67.65625 320.398438 Z M 82.5625 337.054688 "/>
<path style=" stroke:none;fill-rule:nonzero;fill:rgb(39.99939%,39.99939%,39.99939%);fill-opacity:0.3;" d="M 118.910156 359.265625 L 111.53125 355.277344 L 111.976562 354.371094 L 113.246094 355.113281 Z M 118.910156 359.265625 "/>
<path style=" stroke:none;fill-rule:nonzero;fill:rgb(39.99939%,39.99939%,39.99939%);fill-opacity:0.3;" d="M 230.800781 334.472656 L 219.011719 358.8125 L 201.6875 351.222656 L 209.160156 337.152344 L 208.316406 336.738281 L 200.714844 350.734375 L 187.867188 344.609375 L 197.117188 326.136719 L 196.402344 325.8125 L 195.683594 325.488281 L 186.558594 343.828125 L 174.640625 338.195312 L 189.292969 306.40625 L 204.949219 324.390625 L 206.121094 323.578125 L 207.289062 322.765625 L 190.246094 303.117188 L 187.605469 299.878906 L 186.488281 297.234375 L 186.105469 291.234375 L 189.421875 289.214844 L 199.210938 301.109375 L 221.972656 335.898438 Z M 230.800781 334.472656 "/>
<path style=" stroke:none;fill-rule:nonzero;fill:rgb(39.99939%,39.99939%,39.99939%);fill-opacity:0.3;" d="M 78.230469 303.898438 L 99.871094 306.796875 L 99.636719 311.183594 L 82.109375 310.171875 L 74.929688 309.949219 L 70.335938 310.226562 L 68.523438 310.660156 L 72.941406 309.183594 Z M 78.230469 303.898438 "/>
<path style=" stroke:none;fill-rule:nonzero;fill:rgb(39.99939%,39.99939%,39.99939%);fill-opacity:0.3;" d="M 231.835938 337.621094 L 233.527344 334.035156 L 236.5 333.554688 L 233.375 338.324219 L 232.953125 338.585938 Z M 231.835938 337.621094 "/>
<path style=" stroke:none;fill-rule:nonzero;fill:rgb(39.99939%,39.99939%,39.99939%);fill-opacity:0.3;" d="M 67.960938 315.722656 L 117.667969 339.449219 L 110.691406 353.617188 L 82.96875 337.414062 L 82.5625 337.054688 L 67.65625 320.398438 L 67.375 319.84375 Z M 67.960938 315.722656 "/>
<g clip-path="url(#clip25)" clip-rule="nonzero">
<path style=" stroke:none;fill-rule:nonzero;fill:rgb(39.99939%,39.99939%,39.99939%);fill-opacity:0.3;" d="M 122.277344 333.480469 L 135.242188 338.816406 L 123.957031 361.996094 L 118.910156 359.265625 L 113.246094 355.113281 L 111.976562 354.371094 Z M 122.277344 333.480469 "/>
</g>
<path style=" stroke:none;fill-rule:nonzero;fill:rgb(39.99939%,39.99939%,39.99939%);fill-opacity:0.3;" d="M 73.042969 315.398438 L 72.738281 314.269531 L 73.4375 313.054688 L 74.582031 312.746094 L 85.914062 318.421875 L 96.59375 318.828125 L 102.246094 321.078125 L 121.117188 333.195312 L 118.5625 338.351562 Z M 73.042969 315.398438 "/>
<g clip-path="url(#clip26)" clip-rule="nonzero">
<path style=" stroke:none;fill-rule:nonzero;fill:rgb(39.99939%,39.99939%,39.99939%);fill-opacity:0.3;" d="M 136.878906 339.707031 L 149.976562 345.53125 L 138.554688 368.832031 L 134.984375 367.75 L 125.375 363.375 Z M 136.878906 339.707031 "/>
</g>
<path style=" stroke:none;fill-rule:nonzero;fill:rgb(39.99939%,39.99939%,39.99939%);fill-opacity:0.3;" d="M 183.136719 292.660156 L 185.960938 305.585938 L 151.863281 326.527344 L 132.042969 320.613281 L 115.363281 312.785156 L 115.003906 312.148438 L 115.046875 311.304688 L 115.621094 310.792969 L 116.519531 310.625 L 121.804688 311.292969 L 130.804688 312.464844 L 138.570312 313.640625 L 144.84375 312.828125 L 148.378906 312.023438 L 151.871094 310.511719 Z M 183.136719 292.660156 "/>
<path style=" stroke:none;fill-rule:nonzero;fill:rgb(39.99939%,39.99939%,39.99939%);fill-opacity:0.3;" d="M 178.125 312.183594 L 182.621094 315.292969 L 172.394531 335.714844 L 152.0625 328.589844 Z M 178.125 312.183594 "/>
<g clip-path="url(#clip27)" clip-rule="nonzero">
<path style=" stroke:none;fill-rule:nonzero;fill:rgb(39.99939%,39.99939%,39.99939%);fill-opacity:0.3;" d="M 182.746094 354.511719 L 196.226562 360.089844 L 182.398438 388.335938 L 180.585938 387.480469 L 171.828125 382.761719 L 169.566406 381.632812 Z M 182.746094 354.511719 "/>
</g>
<g clip-path="url(#clip28)" clip-rule="nonzero">
<path style=" stroke:none;fill-rule:nonzero;fill:rgb(39.99939%,39.99939%,39.99939%);fill-opacity:0.3;" d="M 152.324219 345.789062 L 166.3125 347.960938 L 153.007812 373.523438 L 142.769531 370.109375 L 140.460938 369.410156 L 140.21875 369.300781 Z M 152.324219 345.789062 "/>
</g>
<g clip-path="url(#clip29)" clip-rule="nonzero">
<path style=" stroke:none;fill-rule:nonzero;fill:rgb(39.99939%,39.99939%,39.99939%);fill-opacity:0.3;" d="M 168.527344 348.527344 L 180.820312 353.660156 L 167.597656 380.648438 L 155.5625 374.628906 Z M 168.527344 348.527344 "/>
</g>
<path style=" stroke:none;fill-rule:nonzero;fill:rgb(39.99939%,39.99939%,39.99939%);fill-opacity:0.3;" d="M 224.679688 351.597656 L 225.882812 348.867188 L 229.878906 343.664062 Z M 224.679688 351.597656 "/>
<path style=" stroke:none;fill-rule:nonzero;fill:rgb(39.99939%,39.99939%,39.99939%);fill-opacity:0.3;" d="M 76.484375 69.699219 L 86.636719 71.957031 L 80.796875 76.289062 Z M 76.484375 69.699219 "/>
<path style=" stroke:none;fill-rule:nonzero;fill:rgb(39.99939%,39.99939%,39.99939%);fill-opacity:0.3;" d="M 18.414062 109.84375 L 19.558594 113.730469 L 8.296875 124.160156 L 8.113281 124.199219 L 3.523438 124.375 L 0.144531 115.164062 L 5.6875 111.339844 L 8.5625 110.332031 L 12.191406 109.753906 L 15.972656 109.460938 Z M 18.414062 109.84375 "/>
<path style=" stroke:none;fill-rule:nonzero;fill:rgb(39.99939%,39.99939%,39.99939%);fill-opacity:0.3;" d="M -2.789062 115.660156 L 1.765625 128.082031 L -13.984375 137.644531 L -19.359375 119.960938 L -19.4375 119.636719 L -16.386719 117.398438 L -6.707031 115.804688 Z M -2.789062 115.660156 "/>
<path style=" stroke:none;fill-rule:nonzero;fill:rgb(39.99939%,39.99939%,39.99939%);fill-opacity:0.3;" d="M 68.828125 77.089844 L 68.230469 76.191406 L 65.136719 71.570312 L 73.242188 65.898438 L 80.265625 76.683594 L 75.917969 79.910156 L 72.535156 82.027344 L 69.300781 77.71875 Z M 68.828125 77.089844 "/>
<path style=" stroke:none;fill-rule:nonzero;fill:rgb(39.99939%,39.99939%,39.99939%);fill-opacity:0.3;" d="M 73.285156 83.027344 L 74.246094 82.4375 L 75.554688 86.050781 Z M 73.285156 83.027344 "/>
<path style=" stroke:none;fill-rule:nonzero;fill:rgb(39.99939%,39.99939%,39.99939%);fill-opacity:0.3;" d="M 48.523438 102.960938 L 50.503906 106.148438 L 49.039062 107.199219 L 46.332031 104.492188 Z M 48.523438 102.960938 "/>
<path style=" stroke:none;fill-rule:nonzero;fill:rgb(39.99939%,39.99939%,39.99939%);fill-opacity:0.3;" d="M 42.339844 107.496094 L 42.246094 107.34375 L 44.488281 105.777344 Z M 42.339844 107.496094 "/>
<path style=" stroke:none;fill-rule:nonzero;fill:rgb(39.99939%,39.99939%,39.99939%);fill-opacity:0.3;" d="M 41.339844 107.972656 L 41.472656 108.1875 L 39.199219 110.007812 L 31.140625 116.777344 L 30.402344 115.605469 Z M 41.339844 107.972656 "/>
<path style=" stroke:none;fill-rule:nonzero;fill:rgb(39.99939%,39.99939%,39.99939%);fill-opacity:0.3;" d="M 10.210938 154.1875 L 8.941406 140.246094 L 12.953125 154.0625 Z M 10.210938 154.1875 "/>
<path style=" stroke:none;fill-rule:nonzero;fill:rgb(39.99939%,39.99939%,39.99939%);fill-opacity:0.3;" d="M 24.3125 120.5625 L 25.050781 119.34375 L 26.546875 118.457031 L 29.011719 118.132812 L 29.367188 118.269531 L 27.484375 119.851562 Z M 24.3125 120.5625 "/>
<path style=" stroke:none;fill-rule:nonzero;fill:rgb(39.99939%,39.99939%,39.99939%);fill-opacity:0.3;" d="M 6.398438 134.953125 L 8.160156 154.28125 L -7.664062 155 L -10.710938 155.355469 L -11.191406 141.597656 L 4.921875 135.480469 Z M 6.398438 134.953125 "/>
<path style=" stroke:none;fill-rule:nonzero;fill:rgb(39.99939%,39.99939%,39.99939%);fill-opacity:0.3;" d="M 75.042969 15.113281 L 73.363281 14.992188 L 69.625 14.5625 L 74.816406 13.9375 Z M 75.042969 15.113281 "/>
<path style=" stroke:none;fill-rule:nonzero;fill:rgb(39.99939%,39.99939%,39.99939%);fill-opacity:0.3;" d="M 12.878906 21.386719 L 13.757812 22.773438 L 12.871094 26.160156 L 13.765625 28.136719 L 15.855469 30.957031 L 21.230469 40.550781 L 23.320312 43.089844 L 23.621094 46.195312 L 21.835938 47.894531 L 15.113281 53.289062 L 7.855469 55.855469 L 5.636719 56.816406 L -2.988281 27.453125 L 12.484375 21.433594 Z M 12.878906 21.386719 "/>
<path style=" stroke:none;fill-rule:nonzero;fill:rgb(39.99939%,39.99939%,39.99939%);fill-opacity:0.3;" d="M 4.199219 61.449219 L 9.058594 77.992188 L -8.917969 83.355469 L -13.839844 67.003906 Z M 4.199219 61.449219 "/>
<path style=" stroke:none;fill-rule:nonzero;fill:rgb(39.99939%,39.99939%,39.99939%);fill-opacity:0.3;" d="M 6.785156 60.5625 L 15.9375 56.625 L 18.941406 54.597656 L 21.449219 53.40625 L 24.207031 53.402344 L 25.214844 54.113281 L 25.59375 55.660156 L 25.351562 62.558594 L 25.105469 64.460938 L 29.253906 71.710938 L 20.230469 74.9375 L 17.34375 74.941406 L 11.953125 76.851562 Z M 6.785156 60.5625 "/>
<path style=" stroke:none;fill-rule:nonzero;fill:rgb(39.99939%,39.99939%,39.99939%);fill-opacity:0.3;" d="M 42.679688 48.464844 L 46.121094 48.003906 L 47.832031 48.101562 L 48.476562 49.011719 L 49.015625 52.761719 L 47.949219 54.386719 L 44.320312 57.9375 L 43.363281 60.070312 L 42.832031 63.515625 L 40.167969 67.777344 L 38.53125 69.195312 L 31.449219 71.308594 L 31.097656 71.019531 L 29.890625 68.09375 L 28.695312 65.265625 L 27.601562 62.691406 L 27.882812 57.804688 L 27.511719 51.664062 L 29.582031 51.023438 Z M 42.679688 48.464844 "/>
<path style=" stroke:none;fill-rule:nonzero;fill:rgb(39.99939%,39.99939%,39.99939%);fill-opacity:0.3;" d="M 46.25 45.070312 L 38.507812 45.648438 L 31.664062 47.632812 L 26.417969 48.882812 L 24.921875 43.386719 L 22.433594 39.8125 L 17.34375 30.730469 L 15.636719 28.304688 L 15.097656 25.984375 L 15.089844 22.109375 L 15.578125 21.0625 L 20.703125 20.445312 L 38.363281 21.46875 L 40.449219 34.210938 L 41.578125 34.023438 L 42.703125 33.839844 L 40.722656 21.390625 L 44.128906 22.179688 L 45.945312 22.929688 L 48.785156 25.292969 L 49.582031 27.117188 L 50.152344 29.164062 L 49.699219 30.453125 L 49.25 33.359375 L 49.253906 35.726562 L 49.824219 37.230469 L 50.394531 39.167969 L 50.171875 40.78125 L 48.359375 42.398438 L 46.773438 44.011719 Z M 46.25 45.070312 "/>
<path style=" stroke:none;fill-rule:nonzero;fill:rgb(39.99939%,39.99939%,39.99939%);fill-opacity:0.3;" d="M -5.484375 28.472656 L 3.097656 57.6875 L -0.480469 58.691406 L -4.644531 60.675781 L -14.78125 63.875 L -18.949219 48.53125 L -20.210938 40.464844 L -22.125 35.710938 Z M -5.484375 28.472656 "/>
<path style=" stroke:none;fill-rule:nonzero;fill:rgb(39.99939%,39.99939%,39.99939%);fill-opacity:0.3;" d="M 16.8125 104.382812 L -0.820312 110.253906 L -8.425781 84.984375 L 9.535156 79.605469 Z M 16.8125 104.382812 "/>
<path style=" stroke:none;fill-rule:nonzero;fill:rgb(39.99939%,39.99939%,39.99939%);fill-opacity:0.3;" d="M 30.554688 73.304688 L 32.304688 77.285156 L 32.308594 79.824219 L 33.503906 82.082031 L 34.996094 84.621094 L 33.226562 94.789062 L 31.742188 99.59375 L 24.601562 103.839844 L 22.222656 103.84375 L 19.359375 103.535156 L 12.101562 78.835938 Z M 30.554688 73.304688 "/>
<path style=" stroke:none;fill-rule:nonzero;fill:rgb(39.99939%,39.99939%,39.99939%);fill-opacity:0.3;" d="M 56.390625 16.152344 L 75.421875 17.097656 L 79.035156 35.964844 L 79.011719 36.488281 L 74.742188 35.773438 L 73.609375 37.773438 L 57.007812 35.621094 L 54.882812 16.335938 Z M 56.390625 16.152344 "/>
<path style=" stroke:none;fill-rule:nonzero;fill:rgb(39.99939%,39.99939%,39.99939%);fill-opacity:0.3;" d="M 78.207031 56.199219 L 77.867188 56.136719 L 58.851562 52.585938 L 55.757812 37.816406 L 78.847656 40.550781 Z M 78.207031 56.199219 "/>
<path style=" stroke:none;fill-rule:nonzero;fill:rgb(39.99939%,39.99939%,39.99939%);fill-opacity:0.3;" d="M 77.652344 60.613281 L 78.144531 57.777344 L 78.097656 58.925781 Z M 77.652344 60.613281 "/>
<path style=" stroke:none;fill-rule:nonzero;fill:rgb(39.99939%,39.99939%,39.99939%);fill-opacity:0.3;" d="M 73.285156 83.027344 L 75.554688 86.050781 L 75.660156 86.34375 L 73.246094 88.914062 L 51.359375 102.796875 L 45.457031 93.921875 L 68.828125 77.089844 L 69.300781 77.71875 L 72.535156 82.027344 Z M 73.285156 83.027344 "/>
<path style=" stroke:none;fill-rule:nonzero;fill:rgb(39.99939%,39.99939%,39.99939%);fill-opacity:0.3;" d="M 55.128906 5.75 L 67.824219 3.050781 L 68.019531 5.613281 L 71.398438 5.199219 L 74.816406 13.9375 L 69.625 14.5625 L 63.867188 13.898438 L 56.683594 12.882812 L 53.324219 12.15625 Z M 55.128906 5.75 "/>
<path style=" stroke:none;fill-rule:nonzero;fill:rgb(39.99939%,39.99939%,39.99939%);fill-opacity:0.3;" d="M 12.464844 21.363281 L 12.863281 21.359375 L 12.878906 21.386719 L 12.484375 21.433594 Z M 12.464844 21.363281 "/>
<path style=" stroke:none;fill-rule:nonzero;fill:rgb(39.99939%,39.99939%,39.99939%);fill-opacity:0.3;" d="M 15.578125 21.0625 L 15.996094 20.171875 L 20.703125 20.445312 Z M 15.578125 21.0625 "/>
<path style=" stroke:none;fill-rule:nonzero;fill:rgb(39.99939%,39.99939%,39.99939%);fill-opacity:0.3;" d="M 54.855469 16.078125 L 56.390625 16.152344 L 54.882812 16.335938 Z M 54.855469 16.078125 "/>
<path style="fill-rule:nonzero;fill:rgb(39.99939%,39.99939%,39.99939%);fill-opacity:1;stroke-width:0.03;stroke-linecap:square;stroke-linejoin:miter;stroke:rgb(39.99939%,39.99939%,39.99939%);stroke-opacity:1;stroke-miterlimit:3.239307;" d="M 308.914062 138 L 323.941406 160.929688 L 303.335938 175.230469 L 299.855469 160.222656 L 296.53125 154.984375 L 292.929688 151.578125 L 287.675781 150.800781 L 281.042969 150.808594 L 273.582031 153.964844 L 260.03125 160.566406 L 256.140625 143.089844 L 266.554688 138.386719 L 282.171875 131.453125 L 286.859375 131.203125 L 290.765625 131.445312 Z M 308.914062 138 " transform="matrix(1,0,0,1,-74,-13)"/>
<path style="fill-rule:nonzero;fill:rgb(39.99939%,39.99939%,39.99939%);fill-opacity:1;stroke-width:0.03;stroke-linecap:square;stroke-linejoin:miter;stroke:rgb(39.99939%,39.99939%,39.99939%);stroke-opacity:1;stroke-miterlimit:3.239307;" d="M 315.886719 143.703125 L 314.605469 143.863281 L 314.316406 140.75 Z M 315.886719 143.703125 " transform="matrix(1,0,0,1,-74,-13)"/>
<path style="fill-rule:nonzero;fill:rgb(39.99939%,39.99939%,39.99939%);fill-opacity:1;stroke-width:0.03;stroke-linecap:square;stroke-linejoin:miter;stroke:rgb(39.99939%,39.99939%,39.99939%);stroke-opacity:1;stroke-miterlimit:3.239307;" d="M 239.835938 241.839844 L 248.539062 242.28125 L 261.8125 243.191406 L 269.945312 246.980469 L 269.4375 249.136719 L 267.242188 250.632812 L 262.796875 250.507812 L 258.3125 249.398438 L 253.605469 246.828125 L 235.089844 269.046875 L 224.042969 262.308594 Z M 239.835938 241.839844 " transform="matrix(1,0,0,1,-74,-13)"/>
<path style="fill-rule:nonzero;fill:rgb(39.99939%,39.99939%,39.99939%);fill-opacity:1;stroke-width:0.03;stroke-linecap:square;stroke-linejoin:miter;stroke:rgb(39.99939%,39.99939%,39.99939%);stroke-opacity:1;stroke-miterlimit:3.239307;" d="M 253.089844 251.988281 L 261.207031 256.085938 L 247.207031 274.222656 L 245.097656 275 L 238.113281 269.949219 Z M 253.089844 251.988281 " transform="matrix(1,0,0,1,-74,-13)"/>
<path style="fill-rule:nonzero;fill:rgb(39.99939%,39.99939%,39.99939%);fill-opacity:1;stroke-width:0.03;stroke-linecap:square;stroke-linejoin:miter;stroke:rgb(39.99939%,39.99939%,39.99939%);stroke-opacity:1;stroke-miterlimit:3.239307;" d="M 259.871094 180.808594 L 264.351562 212.753906 L 255.601562 215.242188 L 251.039062 216.75 L 243.960938 219.320312 L 240.867188 201.402344 L 239.816406 191.6875 Z M 259.871094 180.808594 " transform="matrix(1,0,0,1,-74,-13)"/>
<path style="fill-rule:nonzero;fill:rgb(39.99939%,39.99939%,39.99939%);fill-opacity:1;stroke-width:0.03;stroke-linecap:square;stroke-linejoin:miter;stroke:rgb(39.99939%,39.99939%,39.99939%);stroke-opacity:1;stroke-miterlimit:3.239307;" d="M 171.609375 227.632812 L 199.007812 193.882812 L 235.691406 168.664062 L 235.707031 169.792969 L 237.199219 183.570312 L 206.585938 206.792969 L 182.863281 235.910156 Z M 171.609375 227.632812 " transform="matrix(1,0,0,1,-74,-13)"/>
<path style="fill-rule:nonzero;fill:rgb(39.99939%,39.99939%,39.99939%);fill-opacity:1;stroke-width:0.03;stroke-linecap:square;stroke-linejoin:miter;stroke:rgb(39.99939%,39.99939%,39.99939%);stroke-opacity:1;stroke-miterlimit:3.239307;" d="M 158.378906 217.90625 L 185.613281 185.890625 L 210.378906 167.902344 L 226.136719 156.980469 L 234.65625 151.871094 L 235.660156 166.035156 L 196.980469 192.628906 L 169.816406 226.113281 L 169.710938 226.238281 Z M 158.378906 217.90625 " transform="matrix(1,0,0,1,-74,-13)"/>
<path style="fill-rule:nonzero;fill:rgb(39.99939%,39.99939%,39.99939%);fill-opacity:1;stroke-width:0.03;stroke-linecap:square;stroke-linejoin:miter;stroke:rgb(39.99939%,39.99939%,39.99939%);stroke-opacity:1;stroke-miterlimit:3.239307;" d="M 226.289062 213.285156 L 239.679688 203.925781 L 242.9375 224.464844 L 241.234375 227.667969 L 238.234375 229.226562 L 233.238281 229.476562 L 230.03125 228.144531 Z M 226.289062 213.285156 " transform="matrix(1,0,0,1,-74,-13)"/>
<path style="fill-rule:nonzero;fill:rgb(39.99939%,39.99939%,39.99939%);fill-opacity:1;stroke-width:0.03;stroke-linecap:square;stroke-linejoin:miter;stroke:rgb(39.99939%,39.99939%,39.99939%);stroke-opacity:1;stroke-miterlimit:3.239307;" d="M 229.558594 230.316406 L 240.707031 236.839844 L 221.523438 260.71875 L 211.398438 253.738281 L 210.761719 253.339844 Z M 229.558594 230.316406 " transform="matrix(1,0,0,1,-74,-13)"/>
<path style="fill-rule:nonzero;fill:rgb(39.99939%,39.99939%,39.99939%);fill-opacity:1;stroke-width:0.03;stroke-linecap:square;stroke-linejoin:miter;stroke:rgb(39.99939%,39.99939%,39.99939%);stroke-opacity:1;stroke-miterlimit:3.239307;" d="M 184.320312 236.824219 L 208.316406 207.367188 L 237.449219 185.863281 L 239.164062 201.660156 L 220.398438 214.773438 L 216.1875 218.414062 L 195.90625 242.4375 L 195.140625 243.582031 Z M 184.320312 236.824219 " transform="matrix(1,0,0,1,-74,-13)"/>
<path style="fill-rule:nonzero;fill:rgb(39.99939%,39.99939%,39.99939%);fill-opacity:1;stroke-width:0.03;stroke-linecap:square;stroke-linejoin:miter;stroke:rgb(39.99939%,39.99939%,39.99939%);stroke-opacity:1;stroke-miterlimit:3.239307;" d="M 224.230469 214.722656 L 228.5 228.308594 L 227.757812 229.175781 L 209.257812 252.402344 L 197.003906 244.746094 L 197.722656 243.671875 L 217.820312 219.867188 L 221.816406 216.410156 Z M 224.230469 214.722656 " transform="matrix(1,0,0,1,-74,-13)"/>
<path style="fill-rule:nonzero;fill:rgb(39.99939%,39.99939%,39.99939%);fill-opacity:1;stroke-width:0.03;stroke-linecap:square;stroke-linejoin:miter;stroke:rgb(39.99939%,39.99939%,39.99939%);stroke-opacity:1;stroke-miterlimit:3.239307;" d="M 267.011719 215.242188 L 265.199219 200.9375 L 272.746094 215.140625 Z M 267.011719 215.242188 " transform="matrix(1,0,0,1,-74,-13)"/>
<path style="fill-rule:nonzero;fill:rgb(39.99939%,39.99939%,39.99939%);fill-opacity:1;stroke-width:0.03;stroke-linecap:square;stroke-linejoin:miter;stroke:rgb(39.99939%,39.99939%,39.99939%);stroke-opacity:1;stroke-miterlimit:3.239307;" d="M 264.820312 197.945312 L 263.304688 185.984375 L 284.332031 180.050781 L 285.445312 180.046875 L 285.558594 180.089844 L 285.742188 179.300781 L 285.925781 178.515625 L 285.765625 178.453125 L 284.085938 178.457031 L 263.101562 184.378906 L 260.488281 163.773438 L 260.335938 162.691406 L 260.996094 162.382812 L 274.507812 155.800781 L 281.5 152.839844 L 287.511719 152.832031 L 291.914062 153.484375 L 294.71875 156.34375 L 297.839844 160.984375 L 301.285156 176.78125 L 297.378906 181.121094 L 299.253906 186.746094 L 301.597656 191.433594 L 298.316406 196.585938 Z M 264.820312 197.945312 " transform="matrix(1,0,0,1,-74,-13)"/>
<path style="fill-rule:nonzero;fill:rgb(39.99939%,39.99939%,39.99939%);fill-opacity:1;stroke-width:0.03;stroke-linecap:square;stroke-linejoin:miter;stroke:rgb(39.99939%,39.99939%,39.99939%);stroke-opacity:1;stroke-miterlimit:3.239307;" d="M 276.113281 221.480469 L 275.175781 222.097656 L 270.96875 222.367188 L 267.882812 222.105469 L 267.191406 216.664062 L 273.445312 216.460938 Z M 276.113281 221.480469 " transform="matrix(1,0,0,1,-74,-13)"/>
<path style="fill-rule:nonzero;fill:rgb(39.99939%,39.99939%,39.99939%);fill-opacity:1;stroke-width:0.03;stroke-linecap:square;stroke-linejoin:miter;stroke:rgb(39.99939%,39.99939%,39.99939%);stroke-opacity:1;stroke-miterlimit:3.239307;" d="M 251.402344 143.566406 L 257.425781 161.785156 L 237.578125 171.066406 L 236.316406 150.875 L 236.496094 150.769531 Z M 251.402344 143.566406 " transform="matrix(1,0,0,1,-74,-13)"/>
<path style="fill-rule:nonzero;fill:rgb(39.99939%,39.99939%,39.99939%);fill-opacity:1;stroke-width:0.03;stroke-linecap:square;stroke-linejoin:miter;stroke:rgb(39.99939%,39.99939%,39.99939%);stroke-opacity:1;stroke-miterlimit:3.239307;" d="M 257.421875 164.050781 L 259.503906 178.496094 L 239.558594 189.316406 L 237.8125 173.222656 Z M 257.421875 164.050781 " transform="matrix(1,0,0,1,-74,-13)"/>
<path style="fill-rule:nonzero;fill:rgb(39.99939%,39.99939%,39.99939%);fill-opacity:1;stroke-width:0.03;stroke-linecap:square;stroke-linejoin:miter;stroke:rgb(39.99939%,39.99939%,39.99939%);stroke-opacity:1;stroke-miterlimit:3.239307;" d="M 284.84375 281.359375 L 283.769531 279.511719 L 283.496094 276.679688 L 284.847656 274.492188 L 287.964844 272.816406 L 291.476562 271.085938 L 292.347656 269.414062 L 292.570312 267.40625 L 298.207031 263.074219 L 301.519531 269.304688 Z M 284.84375 281.359375 " transform="matrix(1,0,0,1,-74,-13)"/>
<path style="fill-rule:nonzero;fill:rgb(39.99939%,39.99939%,39.99939%);fill-opacity:1;stroke-width:0.03;stroke-linecap:square;stroke-linejoin:miter;stroke:rgb(39.99939%,39.99939%,39.99939%);stroke-opacity:1;stroke-miterlimit:3.239307;" d="M 190.957031 176.371094 L 190.9375 176.339844 L 191.746094 175.882812 Z M 190.957031 176.371094 " transform="matrix(1,0,0,1,-74,-13)"/>
<path style="fill-rule:nonzero;fill:rgb(39.99939%,39.99939%,39.99939%);fill-opacity:1;stroke-width:0.03;stroke-linecap:square;stroke-linejoin:miter;stroke:rgb(39.99939%,39.99939%,39.99939%);stroke-opacity:1;stroke-miterlimit:3.239307;" d="M 188.964844 177.539062 L 188.996094 177.582031 L 188.253906 178.289062 Z M 188.964844 177.539062 " transform="matrix(1,0,0,1,-74,-13)"/>
<path style="fill-rule:nonzero;fill:rgb(39.99939%,39.99939%,39.99939%);fill-opacity:1;stroke-width:0.03;stroke-linecap:square;stroke-linejoin:miter;stroke:rgb(39.99939%,39.99939%,39.99939%);stroke-opacity:1;stroke-miterlimit:3.239307;" d="M 155.679688 221.113281 L 167.648438 228.675781 L 156.457031 242.625 L 157.558594 244.289062 L 169.65625 229.945312 L 181.554688 237.460938 L 165.847656 256.148438 L 166.246094 257.011719 L 166.644531 257.878906 L 183.023438 238.390625 L 193.976562 245.3125 L 180.902344 263.121094 L 181.695312 263.679688 L 182.488281 264.234375 L 195.832031 246.484375 L 207.910156 254.117188 L 190.039062 276.636719 L 191.59375 277.699219 L 209.621094 256.085938 L 219.945312 263.609375 L 215.738281 271.085938 L 208.890625 276.515625 L 197.761719 283.707031 L 186.816406 290.863281 L 187.210938 291.398438 L 187.605469 291.929688 L 198.59375 284.871094 L 209.785156 277.636719 L 216.945312 271.960938 L 222.074219 264.648438 L 227.824219 267.402344 L 233.023438 270.679688 L 229.335938 277.816406 L 223.140625 284.761719 L 212.816406 293.527344 L 214.011719 294.792969 L 224.429688 285.953125 L 230.863281 278.730469 L 234.570312 270.960938 L 243.902344 276.859375 L 236.824219 285.949219 L 236.824219 287.609375 L 237.773438 288.945312 L 241.460938 294.152344 L 208.042969 321.570312 L 190.945312 318.335938 L 165.449219 314.035156 L 159.238281 313.433594 L 155.765625 312.054688 L 153.667969 310.660156 L 150.949219 305.746094 L 150.625 304.523438 L 148.359375 295.976562 L 146.097656 289.570312 L 125.429688 263.125 L 139.710938 242.519531 Z M 155.679688 221.113281 " transform="matrix(1,0,0,1,-74,-13)"/>
<path style="fill-rule:nonzero;fill:rgb(39.99939%,39.99939%,39.99939%);fill-opacity:1;stroke-width:0.03;stroke-linecap:square;stroke-linejoin:miter;stroke:rgb(39.99939%,39.99939%,39.99939%);stroke-opacity:1;stroke-miterlimit:3.239307;" d="M 242.964844 236.96875 L 242.511719 235.609375 L 242.433594 234.605469 L 242.734375 233.53125 L 243.867188 232.8125 L 246.207031 232.597656 L 265.015625 238.515625 L 272.683594 239.753906 L 284.21875 241.613281 L 279.429688 249.144531 L 273.203125 258.9375 L 266.003906 255.683594 L 274.226562 246.773438 L 272.648438 246.1875 L 262.003906 242.242188 L 254.375 241.109375 L 248.859375 240.183594 Z M 242.964844 236.96875 " transform="matrix(1,0,0,1,-74,-13)"/>
<path style="fill-rule:nonzero;fill:rgb(39.99939%,39.99939%,39.99939%);fill-opacity:1;stroke-width:0.03;stroke-linecap:square;stroke-linejoin:miter;stroke:rgb(39.99939%,39.99939%,39.99939%);stroke-opacity:1;stroke-miterlimit:3.239307;" d="M 261.453125 65.050781 L 254.671875 66.375 L 246.09375 67.742188 L 245.347656 65.910156 L 261.292969 64.429688 Z M 261.453125 65.050781 " transform="matrix(1,0,0,1,-74,-13)"/>
<path style="fill-rule:nonzero;fill:rgb(39.99939%,39.99939%,39.99939%);fill-opacity:1;stroke-width:0.03;stroke-linecap:square;stroke-linejoin:miter;stroke:rgb(39.99939%,39.99939%,39.99939%);stroke-opacity:1;stroke-miterlimit:3.239307;" d="M 234.234375 73.757812 L 241.769531 73.542969 L 247.152344 73.128906 L 252.105469 72.101562 L 257.054688 70.460938 L 273.855469 130.539062 L 253.710938 138.210938 L 238.945312 90.449219 Z M 234.234375 73.757812 " transform="matrix(1,0,0,1,-74,-13)"/>
<path style="fill-rule:nonzero;fill:rgb(39.99939%,39.99939%,39.99939%);fill-opacity:1;stroke-width:0.03;stroke-linecap:square;stroke-linejoin:miter;stroke:rgb(39.99939%,39.99939%,39.99939%);stroke-opacity:1;stroke-miterlimit:3.239307;" d="M 282.207031 126.191406 L 277.761719 128.746094 L 274.003906 113.460938 L 277.695312 127.695312 Z M 282.207031 126.191406 " transform="matrix(1,0,0,1,-74,-13)"/>
<path style="fill-rule:nonzero;fill:rgb(39.99939%,39.99939%,39.99939%);fill-opacity:1;stroke-width:0.03;stroke-linecap:square;stroke-linejoin:miter;stroke:rgb(39.99939%,39.99939%,39.99939%);stroke-opacity:1;stroke-miterlimit:3.239307;" d="M 241.367188 66.28125 L 242.0625 68.121094 L 236.878906 69.75 L 232.546875 69.757812 L 231.765625 67.242188 L 241.140625 66.304688 Z M 241.367188 66.28125 " transform="matrix(1,0,0,1,-74,-13)"/>
<path style="fill-rule:nonzero;fill:rgb(39.99939%,39.99939%,39.99939%);fill-opacity:1;stroke-width:0.03;stroke-linecap:square;stroke-linejoin:miter;stroke:rgb(39.99939%,39.99939%,39.99939%);stroke-opacity:1;stroke-miterlimit:3.239307;" d="M 246.679688 141.757812 L 246.695312 142.234375 L 235.433594 146.972656 L 235.515625 146.910156 Z M 246.679688 141.757812 " transform="matrix(1,0,0,1,-74,-13)"/>
<path style="fill-rule:nonzero;fill:rgb(39.99939%,39.99939%,39.99939%);fill-opacity:1;stroke-width:0.03;stroke-linecap:square;stroke-linejoin:miter;stroke:rgb(39.99939%,39.99939%,39.99939%);stroke-opacity:1;stroke-miterlimit:3.239307;" d="M 317.246094 146.359375 L 317.273438 146.355469 L 317.667969 147.125 Z M 317.246094 146.359375 " transform="matrix(1,0,0,1,-74,-13)"/>
<path style=" stroke:none;fill-rule:evenodd;fill:rgb(85.096741%,85.096741%,81.959534%);fill-opacity:0.7;" d="M 332.746094 314 C 332.746094 309.027344 330.769531 304.261719 327.253906 300.746094 C 323.738281 297.230469 318.972656 295.253906 314 295.253906 C 309.027344 295.253906 304.261719 297.230469 300.746094 300.746094 C 297.230469 304.261719 295.253906 309.027344 295.253906 314 C 295.253906 318.972656 297.230469 323.738281 300.746094 327.253906 C 304.261719 330.769531 309.027344 332.746094 314 332.746094 C 318.972656 332.746094 323.738281 330.769531 327.253906 327.253906 C 330.769531 323.738281 332.746094 318.972656 332.746094 314 Z M 332.746094 314 "/>
<path style="fill-rule:nonzero;fill:rgb(99.998474%,99.998474%,30.587769%);fill-opacity:0.8;stroke-width:0.288;stroke-linecap:square;stroke-linejoin:miter;stroke:rgb(0%,0%,0%);stroke-opacity:0.8;stroke-miterlimit:3.25;" d="M 300.660156 222.832031 L 260.074219 293.128906 L 341.246094 293.128906 Z M 300.660156 222.832031 " transform="matrix(1,0,0,1,-74,-13)"/>
</g>
</svg>
