<?xml version="1.0" encoding="UTF-8"?>
<svg xmlns="http://www.w3.org/2000/svg" xmlns:xlink="http://www.w3.org/1999/xlink" width="361pt" height="361pt" viewBox="0 0 361 361" version="1.1">
<defs>
<clipPath id="clip1">
  <path d="M 0 194 L 34 194 L 34 360 L 0 360 Z M 0 194 "/>
</clipPath>
<clipPath id="clip2">
  <path d="M 51 131 L 360 131 L 360 360 L 51 360 Z M 51 131 "/>
</clipPath>
</defs>
<g id="surface637">
<path style="fill-rule:nonzero;fill:rgb(0%,0%,0%);fill-opacity:1;stroke-width:0.03;stroke-linecap:square;stroke-linejoin:miter;stroke:rgb(0%,0%,0%);stroke-opacity:1;stroke-miterlimit:10;" d="M 0 178 L 360 178 L 360 -182 L 0 -182 Z M 0 178 " transform="matrix(1,0,0,1,0,182)"/>
<g clip-path="url(#clip1)" clip-rule="nonzero">
<path style=" stroke:none;fill-rule:nonzero;fill:rgb(39.99939%,39.99939%,39.99939%);fill-opacity:0.3;" d="M -322.382812 265.445312 L -305.960938 266.511719 L -245.378906 269.242188 L -230.59375 389.058594 L -86.753906 367.863281 L -86.9375 363.269531 L -87.105469 354.910156 L -86.90625 351.476562 L -122.804688 349.292969 L -228.601562 340.363281 L -233.480469 270.246094 L -76.246094 275.316406 L -74.339844 282.558594 L 33.746094 252.816406 L 25.101562 326.652344 L -69.320312 354.34375 L -68.585938 361.007812 L -67.851562 367.675781 L 22.734375 344.132812 L -2.871094 546.992188 L -267.070312 504.1875 L -254.902344 417.417969 L -261.6875 416.5 L -268.472656 415.578125 L -282.175781 501.742188 L -677.675781 437.675781 L -782.652344 389.035156 L -723.746094 194.132812 L -341.3125 264.105469 Z M -322.382812 265.445312 "/>
</g>
<g clip-path="url(#clip2)" clip-rule="nonzero">
<path style=" stroke:none;fill-rule:nonzero;fill:rgb(39.99939%,39.99939%,39.99939%);fill-opacity:0.3;" d="M 308.570312 185.257812 L 422.84375 158.25 L 534.628906 131.828125 L 614.761719 153.703125 L 572.605469 438.511719 L 322.78125 402.203125 L 333.769531 296.289062 L 324.890625 295.277344 L 315.929688 294.253906 L 303.726562 399.324219 L 73.738281 364.59375 L 64.011719 321.523438 L 282.34375 270.246094 L 281.785156 265.476562 L 281.261719 261.015625 L 51.191406 310.785156 L 51.429688 308.570312 L 235.28125 267.714844 L 299.910156 256.871094 Z M 308.570312 185.257812 "/>
</g>
<path style=" stroke:none;fill-rule:nonzero;fill:rgb(39.99939%,39.99939%,39.99939%);fill-opacity:0.3;" d="M 58.316406 244.40625 L 308.570312 185.257812 L 299.910156 256.871094 L 235.28125 267.714844 L 51.429688 308.570312 Z M 58.316406 244.40625 "/>
<path style="fill-rule:nonzero;fill:rgb(39.99939%,39.99939%,39.99939%);fill-opacity:1;stroke-width:0.03;stroke-linecap:square;stroke-linejoin:miter;stroke:rgb(39.99939%,39.99939%,39.99939%);stroke-opacity:1;stroke-miterlimit:3.239307;" d="M 132.316406 257.40625 L 382.570312 198.257812 L 373.910156 269.871094 L 309.28125 280.714844 L 125.429688 321.570312 Z M 132.316406 257.40625 " transform="matrix(1,0,0,1,-74,-13)"/>
</g>
</svg>
