<?xml version="1.0" encoding="UTF-8"?>
<svg xmlns="http://www.w3.org/2000/svg" xmlns:xlink="http://www.w3.org/1999/xlink" width="361pt" height="361pt" viewBox="0 0 361 361" version="1.1">
<defs>
<clipPath id="clip1">
  <path d="M 344 71 L 360 71 L 360 96 L 344 96 Z M 344 71 "/>
</clipPath>
<clipPath id="clip2">
  <path d="M 343 51 L 360 51 L 360 71 L 343 71 Z M 343 51 "/>
</clipPath>
<clipPath id="clip3">
  <path d="M 357 3 L 360 3 L 360 31 L 357 31 Z M 357 3 "/>
</clipPath>
<clipPath id="clip4">
  <path d="M 351 47 L 360 47 L 360 65 L 351 65 Z M 351 47 "/>
</clipPath>
<clipPath id="clip5">
  <path d="M 342 153 L 360 153 L 360 178 L 342 178 Z M 342 153 "/>
</clipPath>
<clipPath id="clip6">
  <path d="M 345 88 L 360 88 L 360 128 L 345 128 Z M 345 88 "/>
</clipPath>
<clipPath id="clip7">
  <path d="M 352 114 L 360 114 L 360 148 L 352 148 Z M 352 114 "/>
</clipPath>
<clipPath id="clip8">
  <path d="M 184 0 L 360 0 L 360 6 L 184 6 Z M 184 0 "/>
</clipPath>
<clipPath id="clip9">
  <path d="M 333 0 L 360 0 L 360 13 L 333 13 Z M 333 0 "/>
</clipPath>
</defs>
<g id="surface9226">
<path style="fill-rule:nonzero;fill:rgb(0%,0%,0%);fill-opacity:1;stroke-width:0.03;stroke-linecap:square;stroke-linejoin:miter;stroke:rgb(0%,0%,0%);stroke-opacity:1;stroke-miterlimit:10;" d="M 0 178 L 360 178 L 360 -182 L 0 -182 Z M 0 178 " transform="matrix(1,0,0,1,0,182)"/>
<path style=" stroke:none;fill-rule:nonzero;fill:rgb(39.99939%,39.99939%,39.99939%);fill-opacity:0.3;" d="M 233.941406 141.839844 L 254.871094 144.226562 L 227.761719 193.296875 L 212.339844 189.164062 Z M 233.941406 141.839844 "/>
<path style=" stroke:none;fill-rule:nonzero;fill:rgb(39.99939%,39.99939%,39.99939%);fill-opacity:0.3;" d="M 242.734375 125.382812 L 242.957031 124.898438 L 243.800781 125.988281 Z M 242.734375 125.382812 "/>
<path style=" stroke:none;fill-rule:nonzero;fill:rgb(39.99939%,39.99939%,39.99939%);fill-opacity:0.3;" d="M 350.078125 177.222656 L 344.621094 178.871094 L 339.777344 182.960938 L 327.761719 194.722656 L 317.898438 204.949219 L 309.359375 211.058594 L 312.691406 205.347656 L 319.683594 186.957031 L 324.5625 182.097656 L 328.679688 178.230469 L 334.703125 175.523438 L 339.210938 173.617188 L 341.359375 171.179688 L 342.554688 169.046875 Z M 350.078125 177.222656 "/>
<path style=" stroke:none;fill-rule:nonzero;fill:rgb(39.99939%,39.99939%,39.99939%);fill-opacity:0.3;" d="M 223.453125 116.945312 L 223.597656 116.636719 L 225.488281 115.691406 L 237.628906 118.003906 L 241.039062 122.417969 L 240.199219 124.273438 Z M 223.453125 116.945312 "/>
<path style=" stroke:none;fill-rule:nonzero;fill:rgb(39.99939%,39.99939%,39.99939%);fill-opacity:0.3;" d="M 335.011719 162.894531 L 334.316406 164.230469 L 329.050781 162.273438 Z M 335.011719 162.894531 "/>
<path style=" stroke:none;fill-rule:nonzero;fill:rgb(39.99939%,39.99939%,39.99939%);fill-opacity:0.3;" d="M 256.996094 144.019531 L 271.386719 148.042969 L 246.925781 198.226562 L 229.820312 194.046875 Z M 256.996094 144.019531 "/>
<path style=" stroke:none;fill-rule:nonzero;fill:rgb(39.99939%,39.99939%,39.99939%);fill-opacity:0.3;" d="M 308.792969 167.320312 L 319.835938 177.449219 L 306.769531 211.289062 L 288.492188 208.339844 Z M 308.792969 167.320312 "/>
<path style=" stroke:none;fill-rule:nonzero;fill:rgb(39.99939%,39.99939%,39.99939%);fill-opacity:0.3;" d="M 273.128906 149.390625 L 289.605469 156.273438 L 267.460938 203.054688 L 249.140625 198.222656 Z M 273.128906 149.390625 "/>
<path style=" stroke:none;fill-rule:nonzero;fill:rgb(39.99939%,39.99939%,39.99939%);fill-opacity:0.3;" d="M 291.734375 158.152344 L 306.78125 163.996094 L 286.5 207.554688 L 271.132812 203.710938 Z M 291.734375 158.152344 "/>
<path style=" stroke:none;fill-rule:nonzero;fill:rgb(39.99939%,39.99939%,39.99939%);fill-opacity:0.3;" d="M 213.824219 135.164062 L 231.160156 141.695312 L 210.320312 187.570312 L 200.355469 180.605469 L 196.574219 176.988281 L 196.042969 176.667969 Z M 213.824219 135.164062 "/>
<path style=" stroke:none;fill-rule:nonzero;fill:rgb(39.99939%,39.99939%,39.99939%);fill-opacity:0.3;" d="M 167.382812 98.550781 L 183.859375 106.1875 L 161.292969 153.367188 L 145.128906 143.628906 Z M 167.382812 98.550781 "/>
<path style=" stroke:none;fill-rule:nonzero;fill:rgb(39.99939%,39.99939%,39.99939%);fill-opacity:0.3;" d="M 185.128906 107.234375 L 200.847656 114.582031 L 178.441406 162.964844 L 162.5625 154.265625 Z M 185.128906 107.234375 "/>
<path style=" stroke:none;fill-rule:nonzero;fill:rgb(39.99939%,39.99939%,39.99939%);fill-opacity:0.3;" d="M 202.433594 116.082031 L 215.113281 126.726562 L 193.949219 175.398438 L 191.539062 173.9375 L 179.550781 164.613281 Z M 202.433594 116.082031 "/>
<g clip-path="url(#clip1)" clip-rule="nonzero">
<path style=" stroke:none;fill-rule:nonzero;fill:rgb(39.99939%,39.99939%,39.99939%);fill-opacity:0.3;" d="M 344.574219 82.554688 L 359.046875 71.160156 L 371.394531 83.378906 L 357.753906 95.039062 Z M 344.574219 82.554688 "/>
</g>
<g clip-path="url(#clip2)" clip-rule="nonzero">
<path style=" stroke:none;fill-rule:nonzero;fill:rgb(39.99939%,39.99939%,39.99939%);fill-opacity:0.3;" d="M 343.308594 56.746094 L 351.074219 51.355469 L 360.222656 61.335938 L 362.953125 64.472656 L 355.5 70.203125 Z M 343.308594 56.746094 "/>
</g>
<path style=" stroke:none;fill-rule:nonzero;fill:rgb(39.99939%,39.99939%,39.99939%);fill-opacity:0.3;" d="M 259.644531 31.839844 L 269.40625 44.648438 L 265.238281 45.601562 L 258.976562 46.851562 L 252.820312 47.402344 L 248.082031 46.957031 L 245.882812 46.039062 L 242.703125 41.707031 Z M 259.644531 31.839844 "/>
<path style=" stroke:none;fill-rule:nonzero;fill:rgb(39.99939%,39.99939%,39.99939%);fill-opacity:0.3;" d="M 314.5625 75.503906 L 324.878906 68.492188 L 336.523438 82.648438 L 326.203125 89.835938 Z M 314.5625 75.503906 "/>
<path style=" stroke:none;fill-rule:nonzero;fill:rgb(39.99939%,39.99939%,39.99939%);fill-opacity:0.3;" d="M 329.683594 94.109375 L 343.53125 83.339844 L 354.617188 94.34375 L 341.90625 105.382812 Z M 329.683594 94.109375 "/>
<path style=" stroke:none;fill-rule:nonzero;fill:rgb(39.99939%,39.99939%,39.99939%);fill-opacity:0.3;" d="M 308.046875 35.765625 L 314.492188 30.15625 L 311.535156 25.613281 L 326.941406 15.269531 L 333.738281 26.925781 L 336.125 30.488281 L 336.195312 34.457031 L 316.550781 47.648438 Z M 308.046875 35.765625 "/>
<path style=" stroke:none;fill-rule:nonzero;fill:rgb(39.99939%,39.99939%,39.99939%);fill-opacity:0.3;" d="M 305.207031 57.871094 L 326.320312 44.699219 L 337.027344 57.578125 L 309.769531 76.5625 Z M 305.207031 57.871094 "/>
<path style=" stroke:none;fill-rule:nonzero;fill:rgb(39.99939%,39.99939%,39.99939%);fill-opacity:0.3;" d="M 278.183594 47.875 L 275.898438 46.050781 L 302.324219 32.273438 L 314.589844 49.316406 L 303.835938 56.414062 L 295.714844 52.925781 L 287.964844 50.136719 Z M 278.183594 47.875 "/>
<path style=" stroke:none;fill-rule:nonzero;fill:rgb(39.99939%,39.99939%,39.99939%);fill-opacity:0.3;" d="M 300.578125 15.996094 L 299.335938 17.648438 L 298.59375 21.191406 L 297.855469 25.675781 L 295.621094 29.453125 L 289.90625 34.417969 L 274.074219 43.296875 L 268.433594 36.40625 L 276.988281 30.304688 L 272.644531 24.082031 L 285.894531 14.363281 L 287.382812 11.765625 L 288.625 10.347656 L 290.363281 8.929688 L 292.601562 8.457031 L 293.800781 8.453125 L 294.300781 9.289062 L 295.484375 8.996094 Z M 300.578125 15.996094 "/>
<path style=" stroke:none;fill-rule:nonzero;fill:rgb(39.99939%,39.99939%,39.99939%);fill-opacity:0.3;" d="M 272.3125 10.152344 L 277.980469 17.308594 L 271.757812 21.210938 L 266.78125 14.023438 Z M 272.3125 10.152344 "/>
<path style=" stroke:none;fill-rule:nonzero;fill:rgb(39.99939%,39.99939%,39.99939%);fill-opacity:0.3;" d="M 272.761719 7.914062 L 288.015625 -1.183594 L 291.378906 4.421875 L 289.113281 4.921875 L 286.378906 5.871094 L 284.640625 7.523438 L 282.40625 10.828125 L 281.914062 13.664062 L 281.167969 15.316406 L 279.3125 16.472656 Z M 272.761719 7.914062 "/>
<path style=" stroke:none;fill-rule:nonzero;fill:rgb(39.99939%,39.99939%,39.99939%);fill-opacity:0.3;" d="M 327.339844 67.824219 L 340.726562 57.976562 L 351.074219 70.03125 L 337.808594 80.199219 Z M 327.339844 67.824219 "/>
<path style=" stroke:none;fill-rule:nonzero;fill:rgb(39.99939%,39.99939%,39.99939%);fill-opacity:0.3;" d="M 327.980469 43.609375 L 337.996094 36.5 L 343.398438 41.332031 L 347.5 47.457031 L 349.464844 49.597656 L 339.433594 56.753906 Z M 327.980469 43.609375 "/>
<path style=" stroke:none;fill-rule:nonzero;fill:rgb(39.99939%,39.99939%,39.99939%);fill-opacity:0.3;" d="M 231.636719 36.394531 L 264.84375 15.203125 L 275.03125 29.644531 L 267.351562 35.089844 L 261.894531 27.675781 L 236.976562 42.488281 Z M 231.636719 36.394531 "/>
<path style=" stroke:none;fill-rule:nonzero;fill:rgb(39.99939%,39.99939%,39.99939%);fill-opacity:0.3;" d="M 147.078125 -2.386719 L 178.191406 39.027344 L 179.328125 38.136719 L 180.460938 37.242188 L 149.914062 -4.117188 L 163.851562 -12.605469 L 197.921875 34.933594 L 195.367188 37.363281 L 191.15625 41.507812 L 188.90625 44.9375 L 186.972656 50.695312 L 182.855469 60.71875 L 181.445312 63.625 L 170.550781 65.382812 L 142.46875 22.457031 L 171.828125 58.117188 L 172.632812 57.246094 L 173.433594 56.375 L 132.574219 6.445312 Z M 147.078125 -2.386719 "/>
<path style=" stroke:none;fill-rule:nonzero;fill:rgb(39.99939%,39.99939%,39.99939%);fill-opacity:0.3;" d="M 308.496094 5.742188 L 319.988281 17.554688 L 310.171875 23.882812 L 297.84375 8.40625 Z M 308.496094 5.742188 "/>
<path style=" stroke:none;fill-rule:nonzero;fill:rgb(39.99939%,39.99939%,39.99939%);fill-opacity:0.3;" d="M 231.636719 36.394531 L 197.128906 -10.574219 L 216.234375 -22.515625 L 230.113281 -20.203125 L 267.121094 -14.996094 L 293.144531 -9.214844 L 291.476562 -7.214844 L 287.269531 -4.550781 L 288.222656 -3.308594 L 287.363281 -2.273438 L 287.992188 -1.226562 L 272.71875 7.882812 L 272.269531 10.121094 L 266.757812 13.984375 L 264.8125 15.160156 Z M 231.636719 36.394531 "/>
<path style=" stroke:none;fill-rule:nonzero;fill:rgb(39.99939%,39.99939%,39.99939%);fill-opacity:0.3;" d="M 184.8125 63.082031 L 190.042969 52.003906 L 196.6875 41.753906 L 205.183594 32.1875 L 215.128906 27.078125 L 230.796875 44.753906 L 233.800781 46.398438 L 237.121094 47.742188 L 246.445312 49.382812 L 252.925781 49.824219 L 262.246094 49.210938 L 267.933594 47.703125 L 272.792969 47.050781 L 276.710938 49.417969 L 286.992188 52.1875 L 293.769531 54.65625 L 301.109375 56.933594 L 303.007812 58.070312 L 307.078125 73.039062 L 299.386719 75.433594 L 294.300781 70.007812 L 272.328125 61.335938 L 266.542969 60.757812 L 259.300781 59.375 L 257.375 58.945312 L 255.410156 58.636719 L 254.398438 58.441406 L 230.113281 50.347656 L 220.859375 46.878906 L 202.933594 38.203125 L 194.261719 50.347656 L 188.476562 62.492188 Z M 184.8125 63.082031 "/>
<path style=" stroke:none;fill-rule:nonzero;fill:rgb(39.99939%,39.99939%,39.99939%);fill-opacity:0.3;" d="M 166.585938 -14.269531 L 180.480469 -22.734375 L 214.414062 24.652344 L 208.40625 26.894531 L 202.9375 29.800781 L 199.574219 33.644531 Z M 166.585938 -14.269531 "/>
<g clip-path="url(#clip3)" clip-rule="nonzero">
<path style=" stroke:none;fill-rule:nonzero;fill:rgb(39.99939%,39.99939%,39.99939%);fill-opacity:0.3;" d="M 371.382812 3.054688 L 381.945312 15.066406 L 361.449219 30.496094 L 360.957031 30.050781 L 360.300781 26.03125 L 359.964844 21.703125 L 360.613281 18.609375 L 357.242188 13.773438 Z M 371.382812 3.054688 "/>
</g>
<g clip-path="url(#clip4)" clip-rule="nonzero">
<path style=" stroke:none;fill-rule:nonzero;fill:rgb(39.99939%,39.99939%,39.99939%);fill-opacity:0.3;" d="M 351.074219 51.355469 L 356.941406 47.28125 L 368.949219 59.863281 L 362.953125 64.472656 L 360.222656 61.335938 Z M 351.074219 51.355469 "/>
</g>
<path style=" stroke:none;fill-rule:nonzero;fill:rgb(39.99939%,39.99939%,39.99939%);fill-opacity:0.3;" d="M 336.035156 25.1875 L 336.125 30.488281 L 333.738281 26.925781 Z M 336.035156 25.1875 "/>
<path style=" stroke:none;fill-rule:nonzero;fill:rgb(39.99939%,39.99939%,39.99939%);fill-opacity:0.3;" d="M 343.398438 41.332031 L 351.226562 48.339844 L 349.464844 49.597656 L 347.5 47.457031 Z M 343.398438 41.332031 "/>
<path style=" stroke:none;fill-rule:nonzero;fill:rgb(39.99939%,39.99939%,39.99939%);fill-opacity:0.3;" d="M 242.957031 124.898438 L 270.871094 64.078125 L 296.855469 79.835938 L 286.640625 91.953125 L 269.53125 81.816406 L 258.609375 109.335938 L 269.941406 115.847656 L 258.144531 134.164062 L 243.800781 125.988281 Z M 242.957031 124.898438 "/>
<g clip-path="url(#clip5)" clip-rule="nonzero">
<path style=" stroke:none;fill-rule:nonzero;fill:rgb(39.99939%,39.99939%,39.99939%);fill-opacity:0.3;" d="M 383.371094 153.921875 L 384.378906 153.761719 L 385.3125 154.132812 L 389.261719 158.96875 L 389.960938 160.4375 L 389.808594 161.976562 L 389.308594 162.445312 L 389.019531 162.632812 L 388.1875 163.007812 L 381.722656 163.765625 L 371.691406 168.789062 L 356.433594 175.300781 L 356.347656 175.332031 L 350.078125 177.222656 L 342.554688 169.046875 L 343.105469 168.070312 L 344.253906 161.097656 L 345.257812 158.378906 L 347.339844 155.589844 L 349.507812 154.925781 L 352.136719 156.097656 L 357.15625 163.796875 L 369.570312 160.65625 L 377.347656 157.003906 Z M 383.371094 153.921875 "/>
</g>
<path style=" stroke:none;fill-rule:nonzero;fill:rgb(39.99939%,39.99939%,39.99939%);fill-opacity:0.3;" d="M 260.542969 108.714844 L 270.738281 84.335938 L 285.910156 93.429688 L 271.082031 114.304688 Z M 260.542969 108.714844 "/>
<path style=" stroke:none;fill-rule:nonzero;fill:rgb(39.99939%,39.99939%,39.99939%);fill-opacity:0.3;" d="M 297.996094 81.46875 L 307.730469 94.117188 L 275.558594 141.417969 L 259.550781 134.515625 Z M 297.996094 81.46875 "/>
<path style=" stroke:none;fill-rule:nonzero;fill:rgb(39.99939%,39.99939%,39.99939%);fill-opacity:0.3;" d="M 309.117188 97.839844 L 321.214844 108.578125 L 294.3125 147.949219 L 279.027344 141.261719 Z M 309.117188 97.839844 "/>
<path style=" stroke:none;fill-rule:nonzero;fill:rgb(39.99939%,39.99939%,39.99939%);fill-opacity:0.3;" d="M 323.410156 110.578125 L 338.589844 119.652344 L 312.960938 156.109375 L 296.882812 149.074219 Z M 323.410156 110.578125 "/>
<path style=" stroke:none;fill-rule:nonzero;fill:rgb(39.99939%,39.99939%,39.99939%);fill-opacity:0.3;" d="M 223.597656 116.636719 L 249.902344 61.015625 L 267.230469 64.660156 L 241.039062 122.417969 L 237.628906 118.003906 L 225.488281 115.691406 Z M 223.597656 116.636719 "/>
<path style=" stroke:none;fill-rule:nonzero;fill:rgb(39.99939%,39.99939%,39.99939%);fill-opacity:0.3;" d="M 188.183594 101.511719 L 209.730469 56.832031 L 216.8125 51.648438 L 228.875 55.570312 L 203.046875 108.015625 Z M 188.183594 101.511719 "/>
<path style=" stroke:none;fill-rule:nonzero;fill:rgb(39.99939%,39.99939%,39.99939%);fill-opacity:0.3;" d="M 205.988281 109.300781 L 231.789062 56.246094 L 247.445312 60.296875 L 221.121094 115.921875 Z M 205.988281 109.300781 "/>
<g clip-path="url(#clip6)" clip-rule="nonzero">
<path style=" stroke:none;fill-rule:nonzero;fill:rgb(39.99939%,39.99939%,39.99939%);fill-opacity:0.3;" d="M 345.777344 119.03125 L 350.910156 115.90625 L 355.628906 112.394531 L 361.988281 107.511719 L 369.785156 101.65625 L 378.609375 94.046875 L 379.839844 91.902344 L 380.78125 88.8125 L 384.511719 98.34375 L 388 110.800781 L 383.160156 114.109375 L 375.769531 119.378906 L 368.382812 123.871094 L 362.632812 126.609375 L 358.523438 127.527344 Z M 345.777344 119.03125 "/>
</g>
<path style=" stroke:none;fill-rule:nonzero;fill:rgb(39.99939%,39.99939%,39.99939%);fill-opacity:0.3;" d="M 340.382812 121.496094 L 345.714844 124.890625 L 349.183594 126.9375 L 351.457031 128.066406 L 353.621094 128.679688 L 356.59375 129.382812 L 354.132812 132.714844 L 347.59375 141.5625 L 341.445312 150.535156 L 335.011719 162.894531 L 329.050781 162.273438 L 315.667969 157.292969 Z M 340.382812 121.496094 "/>
<path style=" stroke:none;fill-rule:nonzero;fill:rgb(39.99939%,39.99939%,39.99939%);fill-opacity:0.3;" d="M 299.386719 75.433594 L 297.023438 76.167969 L 289.234375 71.683594 L 281.722656 66.339844 L 275.851562 63.886719 L 271.621094 62.125 L 259.300781 59.375 L 266.542969 60.757812 L 272.328125 61.335938 L 294.300781 70.007812 Z M 299.386719 75.433594 "/>
<path style=" stroke:none;fill-rule:nonzero;fill:rgb(39.99939%,39.99939%,39.99939%);fill-opacity:0.3;" d="M 255.410156 58.636719 L 244.5 56.910156 L 224.710938 51.761719 L 216.0625 49.035156 L 206.054688 55.191406 L 184.621094 68.378906 L 188.476562 62.492188 L 194.261719 50.347656 L 202.933594 38.203125 L 220.859375 46.878906 L 230.113281 50.347656 L 254.398438 58.441406 Z M 255.410156 58.636719 "/>
<path style=" stroke:none;fill-rule:nonzero;fill:rgb(39.99939%,39.99939%,39.99939%);fill-opacity:0.3;" d="M 170.007812 93.558594 L 173.890625 84.753906 L 180.304688 74.964844 L 182.109375 72.613281 L 192.738281 64.613281 L 204.527344 59.128906 L 185.871094 100.234375 Z M 170.007812 93.558594 "/>
<g clip-path="url(#clip7)" clip-rule="nonzero">
<path style=" stroke:none;fill-rule:nonzero;fill:rgb(39.99939%,39.99939%,39.99939%);fill-opacity:0.3;" d="M 358.746094 135.132812 L 363.070312 134.132812 L 367.300781 133.15625 L 377.238281 126.742188 L 383.289062 122.117188 L 388.753906 115.074219 L 389.703125 114.265625 L 394.285156 120.136719 L 386.570312 132.707031 L 382.511719 138.007812 L 372.660156 144.0625 L 362.394531 147.582031 L 358.277344 147.886719 L 352.941406 147.402344 L 356.828125 135.703125 Z M 358.746094 135.132812 "/>
</g>
<path style=" stroke:none;fill-rule:nonzero;fill:rgb(39.99939%,39.99939%,39.99939%);fill-opacity:0.3;" d="M 326.941406 15.269531 L 328.195312 14.421875 L 331.992188 13.863281 L 335.867188 15.605469 L 336.035156 25.1875 L 333.738281 26.925781 Z M 326.941406 15.269531 "/>
<path style=" stroke:none;fill-rule:nonzero;fill:rgb(39.99939%,39.99939%,39.99939%);fill-opacity:0.3;" d="M 293.800781 8.453125 L 295.089844 8.453125 L 295.484375 8.996094 L 294.300781 9.289062 Z M 293.800781 8.453125 "/>
<path style=" stroke:none;fill-rule:nonzero;fill:rgb(39.99939%,39.99939%,39.99939%);fill-opacity:0.3;" d="M 288.015625 -1.183594 L 288.386719 -1.402344 L 292.347656 4.210938 L 291.378906 4.421875 Z M 288.015625 -1.183594 "/>
<path style=" stroke:none;fill-rule:nonzero;fill:rgb(39.99939%,39.99939%,39.99939%);fill-opacity:0.3;" d="M 308.007812 5.238281 L 308.496094 5.742188 L 297.84375 8.40625 L 288.371094 -3.488281 L 290.65625 -6.226562 L 294.824219 -8.800781 Z M 308.007812 5.238281 "/>
<g clip-path="url(#clip8)" clip-rule="nonzero">
<path style=" stroke:none;fill-rule:nonzero;fill:rgb(39.99939%,39.99939%,39.99939%);fill-opacity:0.3;" d="M 197.128906 -10.574219 L 184.914062 -27.207031 L 247.613281 -64.484375 L 349.277344 -120.160156 L 371.949219 -82.585938 L 369.125 -75.457031 L 330.082031 -52.839844 L 313.519531 -43.242188 L 314.273438 -42.21875 L 315.03125 -41.195312 L 329.261719 -49.199219 L 346.40625 -28.464844 L 362.734375 -8.714844 L 340.839844 5.230469 L 336.660156 0.683594 L 332.886719 -2.238281 L 329.289062 -2.882812 L 326.207031 -2.714844 L 308.410156 4.980469 L 295.125 -9.519531 L 291.476562 -7.214844 L 293.144531 -9.214844 L 267.121094 -14.996094 L 230.113281 -20.203125 L 216.234375 -22.515625 Z M 197.128906 -10.574219 "/>
</g>
<g clip-path="url(#clip9)" clip-rule="nonzero">
<path style=" stroke:none;fill-rule:nonzero;fill:rgb(39.99939%,39.99939%,39.99939%);fill-opacity:0.3;" d="M 417.460938 -35.8125 L 417.382812 -35.320312 L 417.542969 -35.175781 L 418.871094 -33.976562 L 427.523438 -22.699219 L 427.65625 -19.957031 L 385.199219 12.609375 L 374.46875 -0.800781 L 386.488281 -9.488281 L 385.738281 -10.421875 L 384.992188 -11.351562 L 372.9375 -2.71875 L 372.367188 -3.429688 L 372.230469 -3.324219 L 371.464844 -4.292969 L 350.796875 -30.332031 L 357.046875 -35.496094 L 356.292969 -36.382812 L 355.574219 -37.222656 L 349.144531 -32.136719 L 333.933594 -51.113281 L 377.445312 -75.886719 L 395.15625 -50.988281 L 396.78125 -52.203125 L 397.144531 -52.472656 L 397.8125 -51.425781 L 411.6875 -43.332031 Z M 417.460938 -35.8125 "/>
</g>
<path style=" stroke:none;fill-rule:nonzero;fill:rgb(39.99939%,39.99939%,39.99939%);fill-opacity:0.3;" d="M -2.554688 -92.289062 L 12.210938 -82.960938 L -1.597656 -65.75 L -0.917969 -64.722656 L -0.238281 -63.691406 L 14.6875 -81.394531 L 29.371094 -72.121094 L 9.992188 -49.0625 L 10.484375 -47.996094 L 10.972656 -46.925781 L 31.1875 -70.972656 L 44.699219 -62.433594 L 28.566406 -40.457031 L 29.542969 -39.769531 L 30.523438 -39.085938 L 46.988281 -60.988281 L 61.890625 -51.570312 L 39.839844 -23.78125 L 40.796875 -23.125 L 41.757812 -22.472656 L 64.003906 -49.140625 L 76.742188 -39.859375 L 71.550781 -30.628906 L 63.101562 -23.933594 L 49.371094 -15.054688 L 35.863281 -6.226562 L 36.351562 -5.566406 L 36.839844 -4.910156 L 50.398438 -13.621094 L 64.207031 -22.546875 L 73.039062 -29.550781 L 79.367188 -38.570312 L 86.464844 -35.175781 L 92.882812 -31.132812 L 88.328125 -22.328125 L 80.6875 -13.753906 L 67.945312 -2.941406 L 68.683594 -2.160156 L 69.417969 -1.378906 L 82.273438 -12.289062 L 90.214844 -21.195312 L 94.785156 -30.785156 L 106.300781 -23.507812 L 97.566406 -12.289062 L 97.570312 -10.242188 L 98.738281 -8.589844 L 103.289062 -2.167969 L 62.058594 31.664062 L 40.957031 27.667969 L 9.5 22.363281 L 1.835938 21.625 L -2.453125 19.917969 L -5.039062 18.199219 L -8.390625 12.140625 L -8.789062 10.628906 L -11.589844 0.0820312 L -14.382812 -7.824219 L -39.882812 -40.453125 L -22.261719 -65.878906 Z M -2.554688 -92.289062 "/>
<path style=" stroke:none;fill-rule:nonzero;fill:rgb(39.99939%,39.99939%,39.99939%);fill-opacity:0.3;" d="M -21.707031 215.59375 L -25.363281 203.6875 L -58.226562 176.644531 L -61.644531 176.382812 L -63.753906 177.875 L -64.136719 180.0625 L -64.210938 184.992188 L -59.199219 196.390625 L -52.585938 212.710938 L -50.699219 220.085938 L -68.273438 221.515625 L -68.597656 225.257812 L -69.074219 219.632812 L -70.96875 208.699219 L -71.457031 205.378906 L -76.027344 201.058594 L -89.140625 185.457031 L -77.753906 165.5625 L -81.152344 162.351562 L -80.996094 161.953125 L -90.570312 153.335938 L -77.453125 139.710938 L -68.375 148.570312 L -38.601562 173.300781 L 7.894531 201.566406 L 8.792969 202.941406 L -4.433594 207.289062 Z M -21.707031 215.59375 "/>
<path style=" stroke:none;fill-rule:nonzero;fill:rgb(39.99939%,39.99939%,39.99939%);fill-opacity:0.3;" d="M -70.195312 38.714844 L -35.980469 87.574219 L -5.933594 106.867188 L 18.363281 122.464844 L 20.222656 123.332031 L 29.453125 129.570312 L 25.253906 147.074219 L 11.324219 140.242188 L -17.269531 124.511719 L -33.792969 115.492188 L -30.667969 128.195312 L -25.464844 137.210938 L -24.515625 138.863281 L -24.339844 141.953125 L -25.433594 144.09375 L -27.847656 146.9375 L -31.800781 149.433594 L -34.8125 149.109375 L -41.554688 143.285156 L -44.3125 143.5625 L -46.160156 145.886719 L -45.753906 148.726562 L -16.050781 170.40625 L 16.132812 185.078125 L 13.0625 197.871094 L 5.03125 194.3125 L -8.609375 188.097656 L -24.660156 177.625 L -41.515625 165.480469 L -42.78125 164.398438 L -56.804688 152.382812 L -72.863281 137.5 L -59.484375 124.285156 L -47.421875 135.195312 L -45.730469 133.933594 L -44.042969 132.671875 L -55.78125 122.148438 L -47.835938 113.453125 L -79.371094 56.984375 Z M -70.195312 38.714844 "/>
<path style=" stroke:none;fill-rule:nonzero;fill:rgb(39.99939%,39.99939%,39.99939%);fill-opacity:0.3;" d="M 15.96875 213.921875 L 18.449219 217.714844 L 16.734375 216.308594 Z M 15.96875 213.921875 "/>
<path style=" stroke:none;fill-rule:nonzero;fill:rgb(39.99939%,39.99939%,39.99939%);fill-opacity:0.3;" d="M 53.71875 246.617188 L 65.96875 251.75 L 58.367188 250.429688 Z M 53.71875 246.617188 "/>
<path style=" stroke:none;fill-rule:nonzero;fill:rgb(39.99939%,39.99939%,39.99939%);fill-opacity:0.3;" d="M 72.714844 254.578125 L 72.777344 254.601562 L 72.746094 254.625 Z M 72.714844 254.578125 "/>
<path style=" stroke:none;fill-rule:nonzero;fill:rgb(39.99939%,39.99939%,39.99939%);fill-opacity:0.3;" d="M 74.707031 128.625 L 77.679688 123.402344 L 64.320312 118.023438 L 50.410156 105.28125 L 49.488281 100.527344 L 84.683594 115.808594 L 76.949219 129.558594 Z M 74.707031 128.625 "/>
<path style=" stroke:none;fill-rule:nonzero;fill:rgb(39.99939%,39.99939%,39.99939%);fill-opacity:0.3;" d="M 63.824219 143.765625 L 65.070312 144.527344 L 57.210938 153.855469 L 56.050781 153.742188 Z M 63.824219 143.765625 "/>
<path style=" stroke:none;fill-rule:nonzero;fill:rgb(39.99939%,39.99939%,39.99939%);fill-opacity:0.3;" d="M 84.894531 175.898438 L 62.269531 163.277344 L 54.308594 155.976562 L 54.699219 155.476562 L 84.96875 175.832031 Z M 84.894531 175.898438 "/>
<path style=" stroke:none;fill-rule:nonzero;fill:rgb(39.99939%,39.99939%,39.99939%);fill-opacity:0.3;" d="M 103.199219 195.652344 L 100.863281 199.21875 L 71.734375 177.46875 L 74.332031 172.523438 L 83.296875 177.335938 L 79.183594 181.035156 Z M 103.199219 195.652344 "/>
<path style=" stroke:none;fill-rule:nonzero;fill:rgb(39.99939%,39.99939%,39.99939%);fill-opacity:0.3;" d="M 74.667969 128.609375 L 67.9375 139 L 46.5 129.695312 L 33.523438 127.300781 L 15.957031 117.195312 L -27.332031 89.03125 L -31.105469 85.882812 L -68.4375 34.828125 L -71.300781 27.871094 L -67.117188 22.011719 L -58.445312 18.976562 L -6.8125 25.898438 L -13.335938 32.421875 L -18.789062 34.238281 L -20.984375 34.761719 L -24.554688 36.664062 L -26.449219 43.71875 L -25.824219 47.898438 L -23.460938 54.03125 L -20.765625 58.207031 L -14.394531 64.078125 L -4.996094 70.59375 L 27.472656 88.570312 L 38.386719 94.957031 L 49.476562 100.523438 L 50.40625 105.28125 L 64.316406 118.03125 L 77.617188 123.429688 Z M 74.667969 128.609375 "/>
<path style=" stroke:none;fill-rule:nonzero;fill:rgb(39.99939%,39.99939%,39.99939%);fill-opacity:0.3;" d="M 102.15625 204.738281 L 102.457031 204.324219 L 102.242188 204.789062 Z M 102.15625 204.738281 "/>
<path style=" stroke:none;fill-rule:nonzero;fill:rgb(39.99939%,39.99939%,39.99939%);fill-opacity:0.3;" d="M 20.222656 123.332031 L 41.097656 133.042969 L 44.703125 132.855469 L 50.304688 135.015625 L 61.25 140.066406 L 58.710938 144.652344 L 52.492188 153.386719 L 51.429688 153.277344 L 52.199219 153.796875 L 50.851562 155.6875 L 50.65625 156.988281 L 52.199219 158.753906 L 47.78125 165.402344 L 45.1875 164.070312 L 44.484375 161.390625 L 45.359375 156.941406 L 25.253906 147.074219 L 29.453125 129.570312 Z M 20.222656 123.332031 "/>
<path style=" stroke:none;fill-rule:nonzero;fill:rgb(39.99939%,39.99939%,39.99939%);fill-opacity:0.3;" d="M 16.132812 185.078125 L 27.214844 190.128906 L 29.273438 192.726562 L 30.3125 199.617188 L 30.246094 208.425781 L 31.894531 213.476562 L 37.042969 216.460938 L 51.507812 222.796875 L 68.367188 239.183594 L 71.058594 243.664062 L 81.613281 247.34375 L 83.429688 245.347656 L 103 251.785156 L 86.074219 270.71875 L 82.078125 272.402344 L 67.621094 270.089844 L 59.292969 269.003906 L 81.53125 254.113281 L 68.492188 248.398438 L 61.355469 247.195312 L 53.117188 243.5625 L 50.554688 242.699219 L 41.035156 235.601562 L 41.507812 232.054688 L 29.125 222.957031 L 17.226562 210.335938 L 14.761719 202.296875 L 14.0625 198.3125 L 13.0625 197.871094 Z M 16.132812 185.078125 "/>
<path style=" stroke:none;fill-rule:nonzero;fill:rgb(39.99939%,39.99939%,39.99939%);fill-opacity:0.3;" d="M 33.238281 87.246094 L 32.78125 88.175781 L 2.503906 70.285156 L -0.964844 67.25 Z M 33.238281 87.246094 "/>
<path style=" stroke:none;fill-rule:nonzero;fill:rgb(39.99939%,39.99939%,39.99939%);fill-opacity:0.3;" d="M 43.382812 94.214844 L 34.28125 89.292969 L 34.828125 88.175781 L 36.394531 89.089844 Z M 43.382812 94.214844 "/>
<path style=" stroke:none;fill-rule:nonzero;fill:rgb(39.99939%,39.99939%,39.99939%);fill-opacity:0.3;" d="M 67.621094 106.019531 L 67.351562 106.566406 L 63.21875 104.683594 Z M 67.621094 106.019531 "/>
<path style=" stroke:none;fill-rule:nonzero;fill:rgb(39.99939%,39.99939%,39.99939%);fill-opacity:0.3;" d="M 85.457031 111.808594 L 84.667969 113.328125 L 69.972656 106.730469 L 72.824219 107.597656 Z M 85.457031 111.808594 "/>
<path style=" stroke:none;fill-rule:nonzero;fill:rgb(39.99939%,39.99939%,39.99939%);fill-opacity:0.3;" d="M -13.558594 251.398438 L -12.027344 247.105469 L -21.707031 215.59375 L -4.433594 207.289062 L 8.792969 202.941406 L 15.96875 213.921875 L 16.734375 216.308594 L 18.449219 217.714844 L 19.980469 220.0625 L 23.90625 225.722656 L 47.628906 244.066406 L 53.71875 246.617188 L 58.367188 250.429688 L 65.96875 251.75 L 72.714844 254.578125 L 72.746094 254.625 L 54.164062 268.160156 L 48.363281 268.652344 L 46.222656 268.757812 L 41.480469 268.3125 L 29.171875 252.652344 L 25.28125 247.828125 L 17.417969 244.816406 L 8.980469 242.90625 L 2.363281 243.796875 L -3.773438 247.296875 L -3.234375 249.945312 L -4.027344 253.316406 L -7.390625 289.78125 L -14.71875 293.914062 Z M -13.558594 251.398438 "/>
<path style=" stroke:none;fill-rule:nonzero;fill:rgb(39.99939%,39.99939%,39.99939%);fill-opacity:0.3;" d="M 24.84375 250.992188 L 38.316406 268.546875 L 25.480469 268.546875 Z M 24.84375 250.992188 "/>
<path style=" stroke:none;fill-rule:nonzero;fill:rgb(39.99939%,39.99939%,39.99939%);fill-opacity:0.3;" d="M -4.753906 272.441406 L -2.171875 249.644531 L -0.726562 248.917969 L 1.261719 248.335938 L 6.785156 255.1875 L 6.300781 273.144531 L 13.585938 273.011719 L -5.863281 287.988281 Z M -4.753906 272.441406 "/>
<path style=" stroke:none;fill-rule:nonzero;fill:rgb(39.99939%,39.99939%,39.99939%);fill-opacity:0.3;" d="M 15.707031 272.796875 L 16.238281 272.753906 L 15.632812 273.1875 Z M 15.707031 272.796875 "/>
<path style=" stroke:none;fill-rule:nonzero;fill:rgb(39.99939%,39.99939%,39.99939%);fill-opacity:0.3;" d="M -1.679688 289.910156 L 9.082031 302.214844 L -2.289062 312.417969 L -13.050781 300.265625 Z M -1.679688 289.910156 "/>
<path style=" stroke:none;fill-rule:nonzero;fill:rgb(39.99939%,39.99939%,39.99939%);fill-opacity:0.3;" d="M -2.292969 316.316406 L 13.136719 303.066406 L 34.132812 323.078125 L 40.441406 329.648438 L 31 330.929688 L 14.941406 314.65625 L 3.964844 323.050781 Z M -2.292969 316.316406 "/>
<path style=" stroke:none;fill-rule:nonzero;fill:rgb(39.99939%,39.99939%,39.99939%);fill-opacity:0.3;" d="M 48.363281 268.652344 L 46.636719 268.796875 L 46.222656 268.757812 Z M 48.363281 268.652344 "/>
<path style=" stroke:none;fill-rule:nonzero;fill:rgb(39.99939%,39.99939%,39.99939%);fill-opacity:0.3;" d="M 50.707031 275.328125 L 73.070312 277.464844 L 78.773438 299.585938 L 54.796875 299.03125 Z M 50.707031 275.328125 "/>
<path style=" stroke:none;fill-rule:nonzero;fill:rgb(39.99939%,39.99939%,39.99939%);fill-opacity:0.3;" d="M 86.074219 270.71875 L 82.179688 275.078125 L 57.566406 274.121094 L 55.753906 271.371094 L 59.292969 269.003906 L 67.621094 270.089844 L 82.078125 272.402344 Z M 86.074219 270.71875 "/>
<path style=" stroke:none;fill-rule:nonzero;fill:rgb(39.99939%,39.99939%,39.99939%);fill-opacity:0.3;" d="M 16.238281 272.753906 L 34.664062 271.269531 L 47.335938 272.46875 L 52.074219 298.96875 L 22.238281 290.882812 L 18.207031 288.636719 L 14.535156 279.097656 L 15.632812 273.1875 Z M 16.238281 272.753906 "/>
<path style=" stroke:none;fill-rule:nonzero;fill:rgb(39.99939%,39.99939%,39.99939%);fill-opacity:0.3;" d="M 98.101562 266.113281 L 101.835938 268.632812 L 142.511719 299.300781 L 149.253906 301.703125 L 152.464844 301.945312 L 154.359375 303.628906 L 155.945312 308.570312 L 146.847656 312.636719 L 111.90625 286.726562 L 94.082031 271.535156 Z M 98.101562 266.113281 "/>
<path style=" stroke:none;fill-rule:nonzero;fill:rgb(39.99939%,39.99939%,39.99939%);fill-opacity:0.3;" d="M 119.457031 295.285156 L 134.261719 306.5 L 120.597656 303.734375 Z M 119.457031 295.285156 "/>
<path style=" stroke:none;fill-rule:nonzero;fill:rgb(39.99939%,39.99939%,39.99939%);fill-opacity:0.3;" d="M 0.664062 287.605469 L 7.902344 282.035156 L 27.957031 304.609375 L 49.984375 326.640625 L 46.914062 329.988281 L 43.160156 329.792969 L 14.160156 302.195312 Z M 0.664062 287.605469 "/>
<path style=" stroke:none;fill-rule:nonzero;fill:rgb(39.99939%,39.99939%,39.99939%);fill-opacity:0.3;" d="M 78.84375 279.058594 L 85.113281 277.472656 L 88.683594 274.789062 L 91.234375 274.222656 L 94.351562 274.492188 L 99.730469 279.511719 L 103.898438 300.390625 L 85.613281 299.808594 Z M 78.84375 279.058594 "/>
<path style=" stroke:none;fill-rule:nonzero;fill:rgb(39.99939%,39.99939%,39.99939%);fill-opacity:0.3;" d="M 103.722656 282.960938 L 117.707031 294.398438 L 118.972656 303.808594 L 106.363281 301.707031 Z M 103.722656 282.960938 "/>
<path style=" stroke:none;fill-rule:nonzero;fill:rgb(39.99939%,39.99939%,39.99939%);fill-opacity:0.3;" d="M 129.105469 309.199219 L 145.28125 313.867188 L 145.148438 317.675781 L 128.792969 317.507812 L 123.738281 314.605469 L 118.144531 312.558594 L 111.464844 311.199219 L 102.984375 309.6875 L 90.175781 308.148438 L 78.277344 307.863281 L 67.269531 309.207031 L 58.433594 311.101562 L 40.40625 307.628906 L 35.863281 297.273438 L 56.648438 303.78125 L 65.960938 302.464844 L 80.832031 302.011719 L 87.515625 301.945312 L 105.453125 303.882812 Z M 129.105469 309.199219 "/>
<path style=" stroke:none;fill-rule:nonzero;fill:rgb(39.99939%,39.99939%,39.99939%);fill-opacity:0.3;" d="M 34.132812 323.078125 L 41.0625 329.683594 L 40.441406 329.648438 Z M 34.132812 323.078125 "/>
<path style=" stroke:none;fill-rule:nonzero;fill:rgb(39.99939%,39.99939%,39.99939%);fill-opacity:0.3;" d="M 181.445312 63.625 L 166.898438 93.65625 L 145.523438 84.292969 L 154.742188 66.925781 L 153.703125 66.417969 L 144.320312 83.691406 L 128.46875 76.132812 L 139.886719 53.335938 L 139 52.9375 L 138.117188 52.535156 L 126.855469 75.167969 L 112.148438 68.21875 L 130.226562 28.996094 L 149.546875 51.179688 L 150.992188 50.179688 L 152.433594 49.175781 L 131.40625 24.933594 L 128.148438 20.9375 L 126.765625 17.675781 L 126.296875 10.269531 L 130.386719 7.777344 L 142.46875 22.457031 L 170.550781 65.382812 Z M 181.445312 63.625 "/>
<path style=" stroke:none;fill-rule:nonzero;fill:rgb(39.99939%,39.99939%,39.99939%);fill-opacity:0.3;" d="M -6.8125 25.898438 L 19.890625 29.476562 L 19.601562 34.886719 L -2.023438 33.636719 L -10.882812 33.363281 L -16.550781 33.703125 L -18.789062 34.238281 L -13.335938 32.421875 Z M -6.8125 25.898438 "/>
<path style=" stroke:none;fill-rule:nonzero;fill:rgb(39.99939%,39.99939%,39.99939%);fill-opacity:0.3;" d="M 182.722656 67.507812 L 184.8125 63.082031 L 188.476562 62.492188 L 184.621094 68.378906 L 184.101562 68.695312 Z M 182.722656 67.507812 "/>
<path style=" stroke:none;fill-rule:nonzero;fill:rgb(39.99939%,39.99939%,39.99939%);fill-opacity:0.3;" d="M -19.484375 40.488281 L 41.847656 69.761719 L 33.238281 87.246094 L -0.964844 67.25 L -1.46875 66.8125 L -19.859375 46.257812 L -20.207031 45.574219 Z M -19.484375 40.488281 "/>
<path style=" stroke:none;fill-rule:nonzero;fill:rgb(39.99939%,39.99939%,39.99939%);fill-opacity:0.3;" d="M 47.535156 62.398438 L 63.535156 68.980469 L 49.609375 97.582031 L 43.382812 94.214844 L 36.394531 89.089844 L 34.828125 88.175781 Z M 47.535156 62.398438 "/>
<path style=" stroke:none;fill-rule:nonzero;fill:rgb(39.99939%,39.99939%,39.99939%);fill-opacity:0.3;" d="M -13.210938 40.085938 L -13.589844 38.695312 L -12.726562 37.195312 L -11.3125 36.8125 L 2.667969 43.820312 L 15.847656 44.320312 L 22.824219 47.097656 L 46.105469 62.050781 L 42.953125 68.410156 Z M -13.210938 40.085938 "/>
<path style=" stroke:none;fill-rule:nonzero;fill:rgb(39.99939%,39.99939%,39.99939%);fill-opacity:0.3;" d="M 65.554688 70.082031 L 81.714844 77.265625 L 67.621094 106.019531 L 63.21875 104.683594 L 51.359375 99.285156 Z M 65.554688 70.082031 "/>
<path style=" stroke:none;fill-rule:nonzero;fill:rgb(39.99939%,39.99939%,39.99939%);fill-opacity:0.3;" d="M 122.632812 12.03125 L 126.117188 27.980469 L 84.042969 53.816406 L 59.585938 46.523438 L 39.003906 36.863281 L 38.5625 36.078125 L 38.617188 35.035156 L 39.324219 34.40625 L 40.433594 34.195312 L 46.953125 35.023438 L 58.058594 36.46875 L 67.644531 37.917969 L 75.382812 36.914062 L 79.742188 35.925781 L 84.054688 34.058594 Z M 122.632812 12.03125 "/>
<path style=" stroke:none;fill-rule:nonzero;fill:rgb(39.99939%,39.99939%,39.99939%);fill-opacity:0.3;" d="M 116.445312 36.121094 L 121.996094 39.957031 L 109.375 65.15625 L 84.289062 56.363281 Z M 116.445312 36.121094 "/>
<path style=" stroke:none;fill-rule:nonzero;fill:rgb(39.99939%,39.99939%,39.99939%);fill-opacity:0.3;" d="M 122.148438 88.347656 L 138.78125 95.234375 L 121.71875 130.085938 L 119.484375 129.027344 L 108.675781 123.210938 L 105.890625 121.816406 Z M 122.148438 88.347656 "/>
<path style=" stroke:none;fill-rule:nonzero;fill:rgb(39.99939%,39.99939%,39.99939%);fill-opacity:0.3;" d="M 141.054688 96.007812 L 159.273438 103.039062 L 141.28125 140.152344 L 124.632812 131.492188 Z M 141.054688 96.007812 "/>
<path style=" stroke:none;fill-rule:nonzero;fill:rgb(39.99939%,39.99939%,39.99939%);fill-opacity:0.3;" d="M 84.613281 77.589844 L 101.871094 80.269531 L 85.457031 111.808594 L 72.824219 107.597656 L 69.972656 106.730469 L 69.675781 106.597656 Z M 84.613281 77.589844 "/>
<path style=" stroke:none;fill-rule:nonzero;fill:rgb(39.99939%,39.99939%,39.99939%);fill-opacity:0.3;" d="M 104.609375 80.964844 L 119.773438 87.300781 L 103.460938 120.601562 L 88.609375 113.175781 Z M 104.609375 80.964844 "/>
<path style=" stroke:none;fill-rule:nonzero;fill:rgb(39.99939%,39.99939%,39.99939%);fill-opacity:0.3;" d="M 173.890625 84.753906 L 175.378906 81.386719 L 180.304688 74.964844 Z M 173.890625 84.753906 "/>
<path style=" stroke:none;fill-rule:nonzero;fill:rgb(39.99939%,39.99939%,39.99939%);fill-opacity:0.3;" d="M 84.683594 115.808594 L 88.839844 117.613281 L 101.269531 123.90625 L 136.964844 144.097656 L 127.878906 157.082031 L 79.289062 132.296875 L 77.527344 129.796875 L 76.949219 129.558594 Z M 84.683594 115.808594 "/>
<path style=" stroke:none;fill-rule:nonzero;fill:rgb(39.99939%,39.99939%,39.99939%);fill-opacity:0.3;" d="M 84.914062 136.886719 L 127.160156 159.070312 L 117.757812 173.425781 L 70.921875 145.4375 L 78.804688 134.019531 Z M 84.914062 136.886719 "/>
<path style=" stroke:none;fill-rule:nonzero;fill:rgb(39.99939%,39.99939%,39.99939%);fill-opacity:0.3;" d="M 65.070312 144.527344 L 116.210938 175.785156 L 107.777344 188.664062 L 84.894531 175.898438 L 84.96875 175.832031 L 54.699219 155.476562 L 56.050781 153.742188 L 57.210938 153.855469 Z M 65.070312 144.527344 "/>
<path style=" stroke:none;fill-rule:nonzero;fill:rgb(39.99939%,39.99939%,39.99939%);fill-opacity:0.3;" d="M 106.898438 190.003906 L 103.199219 195.652344 L 79.183594 181.035156 L 83.296875 177.335938 Z M 106.898438 190.003906 "/>
<path style=" stroke:none;fill-rule:nonzero;fill:rgb(39.99939%,39.99939%,39.99939%);fill-opacity:0.3;" d="M 134.519531 273.84375 L 147.464844 256.640625 L 185.578125 277.484375 L 168.335938 286.789062 L 154.820312 287.648438 Z M 134.519531 273.84375 "/>
<path style=" stroke:none;fill-rule:nonzero;fill:rgb(39.99939%,39.99939%,39.99939%);fill-opacity:0.3;" d="M 109.679688 213.082031 L 156.265625 240.6875 L 146.816406 254.082031 L 122.195312 238.863281 Z M 109.679688 213.082031 "/>
<path style=" stroke:none;fill-rule:nonzero;fill:rgb(39.99939%,39.99939%,39.99939%);fill-opacity:0.3;" d="M 146.054688 255.773438 L 133.367188 273.082031 L 132.234375 265.722656 L 130.242188 257.648438 L 127.632812 250.707031 L 123.621094 242.140625 Z M 146.054688 255.773438 "/>
<path style=" stroke:none;fill-rule:nonzero;fill:rgb(39.99939%,39.99939%,39.99939%);fill-opacity:0.3;" d="M 148.140625 255.089844 L 157.632812 241.15625 L 212.605469 271.710938 L 195.324219 281.25 Z M 148.140625 255.089844 "/>
<path style=" stroke:none;fill-rule:nonzero;fill:rgb(39.99939%,39.99939%,39.99939%);fill-opacity:0.3;" d="M 131.976562 161.242188 L 174.722656 185.960938 L 171.566406 190.101562 L 185.679688 199.351562 L 173.621094 207.546875 L 162.355469 196.671875 L 137.59375 182.070312 L 124.222656 173.3125 Z M 131.976562 161.242188 "/>
<path style=" stroke:none;fill-rule:nonzero;fill:rgb(39.99939%,39.99939%,39.99939%);fill-opacity:0.3;" d="M 121.652344 176.179688 L 160.871094 197.710938 L 166.128906 204.507812 L 165.980469 206.570312 L 159.898438 217.8125 L 112.964844 189.519531 Z M 121.652344 176.179688 "/>
<path style=" stroke:none;fill-rule:nonzero;fill:rgb(39.99939%,39.99939%,39.99939%);fill-opacity:0.3;" d="M 142.191406 146.074219 L 208.664062 190.136719 L 202.449219 201.339844 L 133.234375 159.535156 Z M 142.191406 146.074219 "/>
<path style=" stroke:none;fill-rule:nonzero;fill:rgb(39.99939%,39.99939%,39.99939%);fill-opacity:0.3;" d="M 102.457031 204.324219 L 112.175781 191.054688 L 165.753906 224.300781 L 157.476562 238.480469 L 102.242188 204.789062 Z M 102.457031 204.324219 "/>
<path style=" stroke:none;fill-rule:nonzero;fill:rgb(39.99939%,39.99939%,39.99939%);fill-opacity:0.3;" d="M 168.121094 206.382812 L 192.230469 234.308594 L 190.730469 236.136719 L 161.886719 218.839844 Z M 168.121094 206.382812 "/>
<path style=" stroke:none;fill-rule:nonzero;fill:rgb(39.99939%,39.99939%,39.99939%);fill-opacity:0.3;" d="M 167.316406 225.550781 L 201.554688 244.679688 L 216.980469 262.355469 L 216.488281 268.179688 L 210.761719 268.917969 L 158.949219 239.34375 Z M 167.316406 225.550781 "/>
<path style=" stroke:none;fill-rule:nonzero;fill:rgb(39.99939%,39.99939%,39.99939%);fill-opacity:0.3;" d="M 242.148438 260.5625 L 249.269531 253.839844 L 255.335938 265.007812 L 249.074219 266.265625 Z M 242.148438 260.5625 "/>
<path style=" stroke:none;fill-rule:nonzero;fill:rgb(39.99939%,39.99939%,39.99939%);fill-opacity:0.3;" d="M 229.1875 247.675781 L 237.128906 241.6875 L 243.53125 237.046875 L 251.132812 231.765625 L 267.828125 236.222656 L 251.707031 248.074219 L 239.125 259.066406 Z M 229.1875 247.675781 "/>
<path style=" stroke:none;fill-rule:nonzero;fill:rgb(39.99939%,39.99939%,39.99939%);fill-opacity:0.3;" d="M 251.003906 252.230469 L 255.671875 248.527344 L 265.257812 258.753906 L 258.035156 264.886719 Z M 251.003906 252.230469 "/>
<path style=" stroke:none;fill-rule:nonzero;fill:rgb(39.99939%,39.99939%,39.99939%);fill-opacity:0.3;" d="M 277.378906 241.691406 L 285.183594 237.238281 L 287.382812 238.484375 L 280.660156 246.109375 L 279.167969 244.230469 Z M 277.378906 241.691406 "/>
<path style=" stroke:none;fill-rule:nonzero;fill:rgb(39.99939%,39.99939%,39.99939%);fill-opacity:0.3;" d="M 257.132812 247.667969 L 269.171875 237.449219 L 278.703125 247.140625 L 266.421875 257.707031 Z M 257.132812 247.667969 "/>
<path style=" stroke:none;fill-rule:nonzero;fill:rgb(39.99939%,39.99939%,39.99939%);fill-opacity:0.3;" d="M 218.394531 222.613281 L 221.0625 222.117188 L 241.84375 227.355469 L 243.996094 228.835938 L 245.132812 230.289062 L 245.257812 232.328125 L 239.878906 236.746094 L 229.183594 244.710938 L 222.417969 235.566406 L 216.960938 227.945312 L 216.65625 225.171875 Z M 218.394531 222.613281 "/>
<path style=" stroke:none;fill-rule:nonzero;fill:rgb(39.99939%,39.99939%,39.99939%);fill-opacity:0.3;" d="M 211.296875 192.140625 L 246.769531 201.832031 L 267.535156 205.773438 L 263.925781 222.195312 L 260.261719 222.734375 L 258.582031 229.691406 L 224.082031 220.449219 L 226.054688 214.414062 L 230.339844 215.394531 L 233.023438 212.4375 L 239.871094 215.011719 L 240.253906 213.605469 L 240.585938 212.390625 L 234.808594 210.152344 L 233.851562 209.550781 L 232.972656 206.570312 L 232.855469 206.308594 L 232.265625 205.789062 L 231.613281 205.722656 L 228.960938 207.035156 L 228.429688 207.316406 L 227.898438 208.046875 L 228.113281 208.75 L 228.769531 209.011719 L 230.832031 207.910156 L 231.039062 207.859375 L 231.199219 207.914062 L 231.75 208.460938 L 232.125 209.722656 L 231.976562 210.914062 L 230.828125 212.851562 L 230.085938 212.964844 L 209.734375 208.339844 L 211.625 200.527344 L 209.566406 199.628906 Z M 211.296875 192.140625 "/>
<path style=" stroke:none;fill-rule:nonzero;fill:rgb(39.99939%,39.99939%,39.99939%);fill-opacity:0.3;" d="M 269.703125 206.40625 L 308.570312 214.441406 L 295.738281 229.003906 L 291.3125 228.4375 L 293.710938 221.164062 L 292.792969 220.988281 L 291.871094 220.816406 L 289.945312 225.882812 L 288.339844 227.074219 L 286.414062 228.804688 L 285.070312 228.59375 L 283.296875 234.359375 L 280.867188 234.359375 L 272.355469 232.683594 L 268.332031 231.675781 L 262.5 230.066406 L 263.820312 225.5625 L 266.109375 224.71875 Z M 269.703125 206.40625 "/>
<path style=" stroke:none;fill-rule:nonzero;fill:rgb(39.99939%,39.99939%,39.99939%);fill-opacity:0.3;" d="M 175.644531 210.945312 L 190.117188 200.664062 L 194.527344 206.449219 L 185.746094 213.15625 L 186.453125 214.003906 L 187.164062 214.851562 L 195.898438 208.246094 L 204.109375 219.011719 L 195.746094 226.269531 L 197.207031 228.183594 L 205.71875 221.125 L 211.390625 228.558594 L 202.734375 235.433594 L 203.460938 236.382812 L 204.183594 237.335938 L 212.921875 230.570312 L 230.1875 253.207031 L 223.453125 258.445312 L 223.910156 258.96875 L 224.367188 259.488281 L 231.15625 254.476562 L 232.796875 256.628906 L 230.847656 258.921875 L 228.625 260.601562 L 225.8125 261.539062 L 222.898438 261.875 L 218.871094 260.675781 L 215.855469 259.238281 L 201.386719 241.859375 Z M 175.644531 210.945312 "/>
<path style=" stroke:none;fill-rule:nonzero;fill:rgb(39.99939%,39.99939%,39.99939%);fill-opacity:0.3;" d="M 200.355469 180.605469 L 195.738281 177.378906 L 196.042969 176.667969 L 196.574219 176.988281 Z M 200.355469 180.605469 "/>
<path style=" stroke:none;fill-rule:nonzero;fill:rgb(39.99939%,39.99939%,39.99939%);fill-opacity:0.3;" d="M 52.492188 153.386719 L 52.199219 153.796875 L 51.429688 153.277344 Z M 52.492188 153.386719 "/>
<path style=" stroke:none;fill-rule:nonzero;fill:rgb(39.99939%,39.99939%,39.99939%);fill-opacity:0.3;" d="M 119.484375 129.027344 L 105.578125 122.457031 L 105.890625 121.816406 L 108.675781 123.210938 Z M 119.484375 129.027344 "/>
<path style=" stroke:none;fill-rule:nonzero;fill:rgb(39.99939%,39.99939%,39.99939%);fill-opacity:0.3;" d="M 193.949219 175.398438 L 193.816406 175.707031 L 191.539062 173.9375 Z M 193.949219 175.398438 "/>
<path style=" stroke:none;fill-rule:nonzero;fill:rgb(39.99939%,39.99939%,39.99939%);fill-opacity:0.3;" d="M 103.460938 120.601562 L 103.359375 120.808594 L 88.449219 113.496094 L 88.609375 113.175781 Z M 103.460938 120.601562 "/>
<path style=" stroke:none;fill-rule:nonzero;fill:rgb(39.99939%,39.99939%,39.99939%);fill-opacity:0.3;" d="M 152.464844 301.945312 L 156.738281 302.261719 L 162.878906 302.253906 L 165.589844 304.261719 L 155.945312 308.570312 L 154.359375 303.628906 Z M 152.464844 301.945312 "/>
<path style="fill-rule:nonzero;fill:rgb(39.99939%,39.99939%,39.99939%);fill-opacity:1;stroke-width:0.03;stroke-linecap:square;stroke-linejoin:miter;stroke:rgb(39.99939%,39.99939%,39.99939%);stroke-opacity:1;stroke-miterlimit:3.239307;" d="M 158.683594 128.808594 L 162.839844 130.613281 L 175.269531 136.90625 L 210.964844 157.097656 L 201.878906 170.082031 L 153.289062 145.296875 L 151.527344 142.796875 L 150.949219 142.558594 Z M 158.683594 128.808594 " transform="matrix(1,0,0,1,-74,-13)"/>
<path style="fill-rule:nonzero;fill:rgb(39.99939%,39.99939%,39.99939%);fill-opacity:1;stroke-width:0.03;stroke-linecap:square;stroke-linejoin:miter;stroke:rgb(39.99939%,39.99939%,39.99939%);stroke-opacity:1;stroke-miterlimit:3.239307;" d="M 158.914062 149.886719 L 201.160156 172.070312 L 191.757812 186.425781 L 144.921875 158.4375 L 152.804688 147.019531 Z M 158.914062 149.886719 " transform="matrix(1,0,0,1,-74,-13)"/>
<path style="fill-rule:nonzero;fill:rgb(39.99939%,39.99939%,39.99939%);fill-opacity:1;stroke-width:0.03;stroke-linecap:square;stroke-linejoin:miter;stroke:rgb(39.99939%,39.99939%,39.99939%);stroke-opacity:1;stroke-miterlimit:3.239307;" d="M 139.070312 157.527344 L 190.210938 188.785156 L 181.777344 201.664062 L 158.894531 188.898438 L 158.96875 188.832031 L 128.699219 168.476562 L 130.050781 166.742188 L 131.210938 166.855469 Z M 139.070312 157.527344 " transform="matrix(1,0,0,1,-74,-13)"/>
<path style="fill-rule:nonzero;fill:rgb(39.99939%,39.99939%,39.99939%);fill-opacity:1;stroke-width:0.03;stroke-linecap:square;stroke-linejoin:miter;stroke:rgb(39.99939%,39.99939%,39.99939%);stroke-opacity:1;stroke-miterlimit:3.239307;" d="M 180.898438 203.003906 L 177.199219 208.652344 L 153.183594 194.035156 L 157.296875 190.335938 Z M 180.898438 203.003906 " transform="matrix(1,0,0,1,-74,-13)"/>
<path style="fill-rule:nonzero;fill:rgb(39.99939%,39.99939%,39.99939%);fill-opacity:1;stroke-width:0.03;stroke-linecap:square;stroke-linejoin:miter;stroke:rgb(39.99939%,39.99939%,39.99939%);stroke-opacity:1;stroke-miterlimit:3.239307;" d="M 208.519531 286.84375 L 221.464844 269.640625 L 259.578125 290.484375 L 242.335938 299.789062 L 228.820312 300.648438 Z M 208.519531 286.84375 " transform="matrix(1,0,0,1,-74,-13)"/>
<path style="fill-rule:nonzero;fill:rgb(39.99939%,39.99939%,39.99939%);fill-opacity:1;stroke-width:0.03;stroke-linecap:square;stroke-linejoin:miter;stroke:rgb(39.99939%,39.99939%,39.99939%);stroke-opacity:1;stroke-miterlimit:3.239307;" d="M 183.679688 226.082031 L 230.265625 253.6875 L 220.816406 267.082031 L 196.195312 251.863281 Z M 183.679688 226.082031 " transform="matrix(1,0,0,1,-74,-13)"/>
<path style="fill-rule:nonzero;fill:rgb(39.99939%,39.99939%,39.99939%);fill-opacity:1;stroke-width:0.03;stroke-linecap:square;stroke-linejoin:miter;stroke:rgb(39.99939%,39.99939%,39.99939%);stroke-opacity:1;stroke-miterlimit:3.239307;" d="M 220.054688 268.773438 L 207.367188 286.082031 L 206.234375 278.722656 L 204.242188 270.648438 L 201.632812 263.707031 L 197.621094 255.140625 Z M 220.054688 268.773438 " transform="matrix(1,0,0,1,-74,-13)"/>
<path style="fill-rule:nonzero;fill:rgb(39.99939%,39.99939%,39.99939%);fill-opacity:1;stroke-width:0.03;stroke-linecap:square;stroke-linejoin:miter;stroke:rgb(39.99939%,39.99939%,39.99939%);stroke-opacity:1;stroke-miterlimit:3.239307;" d="M 222.140625 268.089844 L 231.632812 254.15625 L 286.605469 284.710938 L 269.324219 294.25 Z M 222.140625 268.089844 " transform="matrix(1,0,0,1,-74,-13)"/>
<path style="fill-rule:nonzero;fill:rgb(39.99939%,39.99939%,39.99939%);fill-opacity:1;stroke-width:0.03;stroke-linecap:square;stroke-linejoin:miter;stroke:rgb(39.99939%,39.99939%,39.99939%);stroke-opacity:1;stroke-miterlimit:3.239307;" d="M 205.976562 174.242188 L 248.722656 198.960938 L 245.566406 203.101562 L 259.679688 212.351562 L 247.621094 220.546875 L 236.355469 209.671875 L 211.59375 195.070312 L 198.222656 186.3125 Z M 205.976562 174.242188 " transform="matrix(1,0,0,1,-74,-13)"/>
<path style="fill-rule:nonzero;fill:rgb(39.99939%,39.99939%,39.99939%);fill-opacity:1;stroke-width:0.03;stroke-linecap:square;stroke-linejoin:miter;stroke:rgb(39.99939%,39.99939%,39.99939%);stroke-opacity:1;stroke-miterlimit:3.239307;" d="M 195.652344 189.179688 L 234.871094 210.710938 L 240.128906 217.507812 L 239.980469 219.570312 L 233.898438 230.8125 L 186.964844 202.519531 Z M 195.652344 189.179688 " transform="matrix(1,0,0,1,-74,-13)"/>
<path style="fill-rule:nonzero;fill:rgb(39.99939%,39.99939%,39.99939%);fill-opacity:1;stroke-width:0.03;stroke-linecap:square;stroke-linejoin:miter;stroke:rgb(39.99939%,39.99939%,39.99939%);stroke-opacity:1;stroke-miterlimit:3.239307;" d="M 216.191406 159.074219 L 282.664062 203.136719 L 276.449219 214.339844 L 207.234375 172.535156 Z M 216.191406 159.074219 " transform="matrix(1,0,0,1,-74,-13)"/>
<path style="fill-rule:nonzero;fill:rgb(39.99939%,39.99939%,39.99939%);fill-opacity:1;stroke-width:0.03;stroke-linecap:square;stroke-linejoin:miter;stroke:rgb(39.99939%,39.99939%,39.99939%);stroke-opacity:1;stroke-miterlimit:3.239307;" d="M 176.457031 217.324219 L 186.175781 204.054688 L 239.753906 237.300781 L 231.476562 251.480469 L 176.242188 217.789062 Z M 176.457031 217.324219 " transform="matrix(1,0,0,1,-74,-13)"/>
<path style="fill-rule:nonzero;fill:rgb(39.99939%,39.99939%,39.99939%);fill-opacity:1;stroke-width:0.03;stroke-linecap:square;stroke-linejoin:miter;stroke:rgb(39.99939%,39.99939%,39.99939%);stroke-opacity:1;stroke-miterlimit:3.239307;" d="M 242.121094 219.382812 L 266.230469 247.308594 L 264.730469 249.136719 L 235.886719 231.839844 Z M 242.121094 219.382812 " transform="matrix(1,0,0,1,-74,-13)"/>
<path style="fill-rule:nonzero;fill:rgb(39.99939%,39.99939%,39.99939%);fill-opacity:1;stroke-width:0.03;stroke-linecap:square;stroke-linejoin:miter;stroke:rgb(39.99939%,39.99939%,39.99939%);stroke-opacity:1;stroke-miterlimit:3.239307;" d="M 241.316406 238.550781 L 275.554688 257.679688 L 290.980469 275.355469 L 290.488281 281.179688 L 284.761719 281.917969 L 232.949219 252.34375 Z M 241.316406 238.550781 " transform="matrix(1,0,0,1,-74,-13)"/>
<path style="fill-rule:nonzero;fill:rgb(39.99939%,39.99939%,39.99939%);fill-opacity:1;stroke-width:0.03;stroke-linecap:square;stroke-linejoin:miter;stroke:rgb(39.99939%,39.99939%,39.99939%);stroke-opacity:1;stroke-miterlimit:3.239307;" d="M 316.148438 273.5625 L 323.269531 266.839844 L 329.335938 278.007812 L 323.074219 279.265625 Z M 316.148438 273.5625 " transform="matrix(1,0,0,1,-74,-13)"/>
<path style="fill-rule:nonzero;fill:rgb(39.99939%,39.99939%,39.99939%);fill-opacity:1;stroke-width:0.03;stroke-linecap:square;stroke-linejoin:miter;stroke:rgb(39.99939%,39.99939%,39.99939%);stroke-opacity:1;stroke-miterlimit:3.239307;" d="M 303.1875 260.675781 L 311.128906 254.6875 L 317.53125 250.046875 L 325.132812 244.765625 L 341.828125 249.222656 L 325.707031 261.074219 L 313.125 272.066406 Z M 303.1875 260.675781 " transform="matrix(1,0,0,1,-74,-13)"/>
<path style="fill-rule:nonzero;fill:rgb(39.99939%,39.99939%,39.99939%);fill-opacity:1;stroke-width:0.03;stroke-linecap:square;stroke-linejoin:miter;stroke:rgb(39.99939%,39.99939%,39.99939%);stroke-opacity:1;stroke-miterlimit:3.239307;" d="M 325.003906 265.230469 L 329.671875 261.527344 L 339.257812 271.753906 L 332.035156 277.886719 Z M 325.003906 265.230469 " transform="matrix(1,0,0,1,-74,-13)"/>
<path style="fill-rule:nonzero;fill:rgb(39.99939%,39.99939%,39.99939%);fill-opacity:1;stroke-width:0.03;stroke-linecap:square;stroke-linejoin:miter;stroke:rgb(39.99939%,39.99939%,39.99939%);stroke-opacity:1;stroke-miterlimit:3.239307;" d="M 351.378906 254.691406 L 359.183594 250.238281 L 361.382812 251.484375 L 354.660156 259.109375 L 353.167969 257.230469 Z M 351.378906 254.691406 " transform="matrix(1,0,0,1,-74,-13)"/>
<path style="fill-rule:nonzero;fill:rgb(39.99939%,39.99939%,39.99939%);fill-opacity:1;stroke-width:0.03;stroke-linecap:square;stroke-linejoin:miter;stroke:rgb(39.99939%,39.99939%,39.99939%);stroke-opacity:1;stroke-miterlimit:3.239307;" d="M 331.132812 260.667969 L 343.171875 250.449219 L 352.703125 260.140625 L 340.421875 270.707031 Z M 331.132812 260.667969 " transform="matrix(1,0,0,1,-74,-13)"/>
<path style="fill-rule:nonzero;fill:rgb(39.99939%,39.99939%,39.99939%);fill-opacity:1;stroke-width:0.03;stroke-linecap:square;stroke-linejoin:miter;stroke:rgb(39.99939%,39.99939%,39.99939%);stroke-opacity:1;stroke-miterlimit:3.239307;" d="M 292.394531 235.613281 L 295.0625 235.117188 L 315.84375 240.355469 L 317.996094 241.835938 L 319.132812 243.289062 L 319.257812 245.328125 L 313.878906 249.746094 L 303.183594 257.710938 L 296.417969 248.566406 L 290.960938 240.945312 L 290.65625 238.171875 Z M 292.394531 235.613281 " transform="matrix(1,0,0,1,-74,-13)"/>
<path style="fill-rule:nonzero;fill:rgb(39.99939%,39.99939%,39.99939%);fill-opacity:1;stroke-width:0.03;stroke-linecap:square;stroke-linejoin:miter;stroke:rgb(39.99939%,39.99939%,39.99939%);stroke-opacity:1;stroke-miterlimit:3.239307;" d="M 285.296875 205.140625 L 320.769531 214.832031 L 341.535156 218.773438 L 337.925781 235.195312 L 334.261719 235.734375 L 332.582031 242.691406 L 298.082031 233.449219 L 300.054688 227.414062 L 304.339844 228.394531 L 307.023438 225.4375 L 313.871094 228.011719 L 314.253906 226.605469 L 314.585938 225.390625 L 308.808594 223.152344 L 307.851562 222.550781 L 306.972656 219.570312 L 306.855469 219.308594 L 306.265625 218.789062 L 305.613281 218.722656 L 302.960938 220.035156 L 302.429688 220.316406 L 301.898438 221.046875 L 302.113281 221.75 L 302.769531 222.011719 L 304.832031 220.910156 L 305.039062 220.859375 L 305.199219 220.914062 L 305.75 221.460938 L 306.125 222.722656 L 305.976562 223.914062 L 304.828125 225.851562 L 304.085938 225.964844 L 283.734375 221.339844 L 285.625 213.527344 L 283.566406 212.628906 Z M 285.296875 205.140625 " transform="matrix(1,0,0,1,-74,-13)"/>
<path style="fill-rule:nonzero;fill:rgb(39.99939%,39.99939%,39.99939%);fill-opacity:1;stroke-width:0.03;stroke-linecap:square;stroke-linejoin:miter;stroke:rgb(39.99939%,39.99939%,39.99939%);stroke-opacity:1;stroke-miterlimit:3.239307;" d="M 343.703125 219.40625 L 382.570312 227.441406 L 369.738281 242.003906 L 365.3125 241.4375 L 367.710938 234.164062 L 366.792969 233.988281 L 365.871094 233.816406 L 363.945312 238.882812 L 362.339844 240.074219 L 360.414062 241.804688 L 359.070312 241.59375 L 357.296875 247.359375 L 354.867188 247.359375 L 346.355469 245.683594 L 342.332031 244.675781 L 336.5 243.066406 L 337.820312 238.5625 L 340.109375 237.71875 Z M 343.703125 219.40625 " transform="matrix(1,0,0,1,-74,-13)"/>
<path style="fill-rule:nonzero;fill:rgb(39.99939%,39.99939%,39.99939%);fill-opacity:1;stroke-width:0.03;stroke-linecap:square;stroke-linejoin:miter;stroke:rgb(39.99939%,39.99939%,39.99939%);stroke-opacity:1;stroke-miterlimit:3.239307;" d="M 249.644531 223.945312 L 264.117188 213.664062 L 268.527344 219.449219 L 259.746094 226.15625 L 260.453125 227.003906 L 261.164062 227.851562 L 269.898438 221.246094 L 278.109375 232.011719 L 269.746094 239.269531 L 271.207031 241.183594 L 279.71875 234.125 L 285.390625 241.558594 L 276.734375 248.433594 L 277.460938 249.382812 L 278.183594 250.335938 L 286.921875 243.570312 L 304.1875 266.207031 L 297.453125 271.445312 L 297.910156 271.96875 L 298.367188 272.488281 L 305.15625 267.476562 L 306.796875 269.628906 L 304.847656 271.921875 L 302.625 273.601562 L 299.8125 274.539062 L 296.898438 274.875 L 292.871094 273.675781 L 289.855469 272.238281 L 275.386719 254.859375 Z M 249.644531 223.945312 " transform="matrix(1,0,0,1,-74,-13)"/>
<path style="fill-rule:nonzero;fill:rgb(39.99939%,39.99939%,39.99939%);fill-opacity:1;stroke-width:0.03;stroke-linecap:square;stroke-linejoin:miter;stroke:rgb(39.99939%,39.99939%,39.99939%);stroke-opacity:1;stroke-miterlimit:3.239307;" d="M 274.355469 193.605469 L 269.738281 190.378906 L 270.042969 189.667969 L 270.574219 189.988281 Z M 274.355469 193.605469 " transform="matrix(1,0,0,1,-74,-13)"/>
<path style="fill-rule:nonzero;fill:rgb(39.99939%,39.99939%,39.99939%);fill-opacity:1;stroke-width:0.03;stroke-linecap:square;stroke-linejoin:miter;stroke:rgb(39.99939%,39.99939%,39.99939%);stroke-opacity:1;stroke-miterlimit:3.239307;" d="M 126.492188 166.386719 L 126.199219 166.796875 L 125.429688 166.277344 Z M 126.492188 166.386719 " transform="matrix(1,0,0,1,-74,-13)"/>
<path style="fill-rule:nonzero;fill:rgb(39.99939%,39.99939%,39.99939%);fill-opacity:1;stroke-width:0.03;stroke-linecap:square;stroke-linejoin:miter;stroke:rgb(39.99939%,39.99939%,39.99939%);stroke-opacity:1;stroke-miterlimit:3.239307;" d="M 193.484375 142.027344 L 179.578125 135.457031 L 179.890625 134.816406 L 182.675781 136.210938 Z M 193.484375 142.027344 " transform="matrix(1,0,0,1,-74,-13)"/>
<path style="fill-rule:nonzero;fill:rgb(39.99939%,39.99939%,39.99939%);fill-opacity:1;stroke-width:0.03;stroke-linecap:square;stroke-linejoin:miter;stroke:rgb(39.99939%,39.99939%,39.99939%);stroke-opacity:1;stroke-miterlimit:3.239307;" d="M 267.949219 188.398438 L 267.816406 188.707031 L 265.539062 186.9375 Z M 267.949219 188.398438 " transform="matrix(1,0,0,1,-74,-13)"/>
<path style="fill-rule:nonzero;fill:rgb(39.99939%,39.99939%,39.99939%);fill-opacity:1;stroke-width:0.03;stroke-linecap:square;stroke-linejoin:miter;stroke:rgb(39.99939%,39.99939%,39.99939%);stroke-opacity:1;stroke-miterlimit:3.239307;" d="M 177.460938 133.601562 L 177.359375 133.808594 L 162.449219 126.496094 L 162.609375 126.175781 Z M 177.460938 133.601562 " transform="matrix(1,0,0,1,-74,-13)"/>
<path style="fill-rule:nonzero;fill:rgb(39.99939%,39.99939%,39.99939%);fill-opacity:1;stroke-width:0.03;stroke-linecap:square;stroke-linejoin:miter;stroke:rgb(39.99939%,39.99939%,39.99939%);stroke-opacity:1;stroke-miterlimit:3.239307;" d="M 226.464844 314.945312 L 230.738281 315.261719 L 236.878906 315.253906 L 239.589844 317.261719 L 229.945312 321.570312 L 228.359375 316.628906 Z M 226.464844 314.945312 " transform="matrix(1,0,0,1,-74,-13)"/>
<path style=" stroke:none;fill-rule:evenodd;fill:rgb(85.096741%,85.096741%,81.959534%);fill-opacity:0.7;" d="M 307.128906 38 C 307.128906 31.867188 304.695312 25.980469 300.355469 21.644531 C 296.019531 17.304688 290.132812 14.871094 284 14.871094 C 277.867188 14.871094 271.980469 17.304688 267.644531 21.644531 C 263.304688 25.980469 260.871094 31.867188 260.871094 38 C 260.871094 44.132812 263.304688 50.019531 267.644531 54.355469 C 271.980469 58.695312 277.867188 61.128906 284 61.128906 C 290.132812 61.128906 296.019531 58.695312 300.355469 54.355469 C 304.695312 50.019531 307.128906 44.132812 307.128906 38 Z M 307.128906 38 "/>
</g>
</svg>
