<?xml version="1.0" encoding="UTF-8"?>
<svg xmlns="http://www.w3.org/2000/svg" xmlns:xlink="http://www.w3.org/1999/xlink" width="361pt" height="361pt" viewBox="0 0 361 361" version="1.1">
<defs>
<clipPath id="clip1">
  <path d="M 0 219 L 74 219 L 74 360 L 0 360 Z M 0 219 "/>
</clipPath>
<clipPath id="clip2">
  <path d="M 357 125 L 360 125 L 360 153 L 357 153 Z M 357 125 "/>
</clipPath>
<clipPath id="clip3">
  <path d="M 346 153 L 360 153 L 360 226 L 346 226 Z M 346 153 "/>
</clipPath>
<clipPath id="clip4">
  <path d="M 3 116 L 360 116 L 360 360 L 3 360 Z M 3 116 "/>
</clipPath>
<clipPath id="clip5">
  <path d="M 356 0 L 360 0 L 360 122 L 356 122 Z M 356 0 "/>
</clipPath>
<clipPath id="clip6">
  <path d="M 352 0 L 360 0 L 360 18 L 352 18 Z M 352 0 "/>
</clipPath>
<clipPath id="clip7">
  <path d="M 357 42 L 360 42 L 360 94 L 357 94 Z M 357 42 "/>
</clipPath>
<clipPath id="clip8">
  <path d="M 332 30 L 360 30 L 360 84 L 332 84 Z M 332 30 "/>
</clipPath>
<clipPath id="clip9">
  <path d="M 355 5 L 360 5 L 360 26 L 355 26 Z M 355 5 "/>
</clipPath>
<clipPath id="clip10">
  <path d="M 352 23 L 360 23 L 360 60 L 352 60 Z M 352 23 "/>
</clipPath>
</defs>
<g id="surface3318">
<path style="fill-rule:nonzero;fill:rgb(0%,0%,0%);fill-opacity:1;stroke-width:0.03;stroke-linecap:square;stroke-linejoin:miter;stroke:rgb(0%,0%,0%);stroke-opacity:1;stroke-miterlimit:10;" d="M 0 178 L 360 178 L 360 -182 L 0 -182 Z M 0 178 " transform="matrix(1,0,0,1,0,182)"/>
<path style=" stroke:none;fill-rule:nonzero;fill:rgb(39.99939%,39.99939%,39.99939%);fill-opacity:0.3;" d="M -14.824219 52.726562 L 11.929688 104.445312 L -86.296875 153.136719 L -113.585938 103.167969 L -113.375 102.480469 Z M -14.824219 52.726562 "/>
<path style=" stroke:none;fill-rule:nonzero;fill:rgb(39.99939%,39.99939%,39.99939%);fill-opacity:0.3;" d="M 130.640625 52.601562 L 147.851562 43.984375 L 172.515625 88.371094 L 156.699219 96.292969 Z M 130.640625 52.601562 "/>
<path style=" stroke:none;fill-rule:nonzero;fill:rgb(39.99939%,39.99939%,39.99939%);fill-opacity:0.3;" d="M 93.117188 71.636719 L 109.21875 63.441406 L 135.335938 107 L 119.375 115.003906 Z M 93.117188 71.636719 "/>
<path style=" stroke:none;fill-rule:nonzero;fill:rgb(39.99939%,39.99939%,39.99939%);fill-opacity:0.3;" d="M 112.582031 61.75 L 127.539062 54.15625 L 153.910156 97.691406 L 138.597656 105.363281 Z M 112.582031 61.75 "/>
<path style=" stroke:none;fill-rule:nonzero;fill:rgb(39.99939%,39.99939%,39.99939%);fill-opacity:0.3;" d="M 74.871094 80.71875 L 90.214844 72.996094 L 116.550781 116.421875 L 100.519531 124.464844 Z M 74.871094 80.71875 "/>
<path style=" stroke:none;fill-rule:nonzero;fill:rgb(39.99939%,39.99939%,39.99939%);fill-opacity:0.3;" d="M 21.398438 107.714844 L 35.390625 100.648438 L 60.6875 144.484375 L 45.976562 151.792969 Z M 21.398438 107.714844 "/>
<path style=" stroke:none;fill-rule:nonzero;fill:rgb(39.99939%,39.99939%,39.99939%);fill-opacity:0.3;" d="M 56.109375 90.167969 L 71.730469 82.296875 L 97.546875 125.957031 L 81.964844 133.785156 Z M 56.109375 90.167969 "/>
<path style=" stroke:none;fill-rule:nonzero;fill:rgb(39.99939%,39.99939%,39.99939%);fill-opacity:0.3;" d="M 53.355469 91.589844 L 79.621094 134.992188 L 63.953125 142.863281 L 38.820312 98.917969 Z M 53.355469 91.589844 "/>
<path style=" stroke:none;fill-rule:nonzero;fill:rgb(39.99939%,39.99939%,39.99939%);fill-opacity:0.3;" d="M 243.652344 -4.351562 L 265.453125 -15.207031 L 291.734375 28.726562 L 269.375 39.910156 Z M 243.652344 -4.351562 "/>
<path style=" stroke:none;fill-rule:nonzero;fill:rgb(39.99939%,39.99939%,39.99939%);fill-opacity:0.3;" d="M 279.636719 -21.359375 L 294.835938 -29.011719 L 321.429688 14.878906 L 311.3125 19.9375 L 305.425781 11.660156 L 296.417969 7.882812 Z M 279.636719 -21.359375 "/>
<path style=" stroke:none;fill-rule:nonzero;fill:rgb(39.99939%,39.99939%,39.99939%);fill-opacity:0.3;" d="M -16.929688 128.050781 L -0.75 119.941406 L 23.984375 163.871094 L 8.214844 171.734375 Z M -16.929688 128.050781 "/>
<path style=" stroke:none;fill-rule:nonzero;fill:rgb(39.99939%,39.99939%,39.99939%);fill-opacity:0.3;" d="M 0.746094 118.875 L 17.09375 110.617188 L 41.820312 154.601562 L 26.03125 162.476562 Z M 0.746094 118.875 "/>
<path style=" stroke:none;fill-rule:nonzero;fill:rgb(39.99939%,39.99939%,39.99939%);fill-opacity:0.3;" d="M -36.175781 136.753906 L -20.976562 129.164062 L 4.238281 172.734375 L -11.675781 180.625 Z M -36.175781 136.753906 "/>
<path style=" stroke:none;fill-rule:nonzero;fill:rgb(39.99939%,39.99939%,39.99939%);fill-opacity:0.3;" d="M 20.460938 33.753906 L 49.296875 85.722656 L 33.738281 93.511719 L 5.730469 41.148438 Z M 20.460938 33.753906 "/>
<path style=" stroke:none;fill-rule:nonzero;fill:rgb(39.99939%,39.99939%,39.99939%);fill-opacity:0.3;" d="M 150.300781 42.757812 L 165.785156 35.019531 L 190.542969 79.339844 L 175.164062 87.042969 Z M 150.300781 42.757812 "/>
<path style=" stroke:none;fill-rule:nonzero;fill:rgb(39.99939%,39.99939%,39.99939%);fill-opacity:0.3;" d="M 2.261719 42.9375 L 29.589844 95.589844 L 14.898438 102.957031 L -12.566406 50.464844 Z M 2.261719 42.9375 "/>
<path style=" stroke:none;fill-rule:nonzero;fill:rgb(39.99939%,39.99939%,39.99939%);fill-opacity:0.3;" d="M 42.617188 22.132812 L 57.105469 14.664062 L 86.601562 67.070312 L 71.671875 74.527344 Z M 42.617188 22.132812 "/>
<path style=" stroke:none;fill-rule:nonzero;fill:rgb(39.99939%,39.99939%,39.99939%);fill-opacity:0.3;" d="M 78.554688 3.613281 L 93.261719 -3.960938 L 123.550781 48.632812 L 108.601562 56.085938 Z M 78.554688 3.613281 "/>
<path style=" stroke:none;fill-rule:nonzero;fill:rgb(39.99939%,39.99939%,39.99939%);fill-opacity:0.3;" d="M 60.328125 13.003906 L 75.035156 5.425781 L 104.917969 57.925781 L 89.976562 65.382812 Z M 60.328125 13.003906 "/>
<path style=" stroke:none;fill-rule:nonzero;fill:rgb(39.99939%,39.99939%,39.99939%);fill-opacity:0.3;" d="M 200.125 17.636719 L 214.171875 10.53125 L 239.382812 54.898438 L 225.875 61.65625 Z M 200.125 17.636719 "/>
<path style=" stroke:none;fill-rule:nonzero;fill:rgb(39.99939%,39.99939%,39.99939%);fill-opacity:0.3;" d="M 24.296875 31.574219 L 37.90625 24.558594 L 67.746094 76.492188 L 53.289062 83.722656 Z M 24.296875 31.574219 "/>
<path style=" stroke:none;fill-rule:nonzero;fill:rgb(39.99939%,39.99939%,39.99939%);fill-opacity:0.3;" d="M 186.390625 24.589844 L 198.394531 18.511719 L 223.992188 62.597656 L 211.214844 68.996094 Z M 186.390625 24.589844 "/>
<path style=" stroke:none;fill-rule:nonzero;fill:rgb(39.99939%,39.99939%,39.99939%);fill-opacity:0.3;" d="M 168.757812 33.523438 L 184.886719 25.351562 L 209.636719 69.785156 L 193.878906 77.671875 Z M 168.757812 33.523438 "/>
<path style=" stroke:none;fill-rule:nonzero;fill:rgb(39.99939%,39.99939%,39.99939%);fill-opacity:0.3;" d="M 231.566406 1.753906 L 241.480469 -3.253906 L 267.121094 41.035156 L 257.179688 46.007812 Z M 231.566406 1.753906 "/>
<path style=" stroke:none;fill-rule:nonzero;fill:rgb(39.99939%,39.99939%,39.99939%);fill-opacity:0.3;" d="M 216.558594 9.457031 L 229.105469 3 L 254.574219 47.3125 L 242.15625 53.523438 Z M 216.558594 9.457031 "/>
<path style=" stroke:none;fill-rule:nonzero;fill:rgb(39.99939%,39.99939%,39.99939%);fill-opacity:0.3;" d="M 115.832031 -15.585938 L 130.535156 -23.152344 L 161.707031 29.636719 L 146.738281 37.085938 Z M 115.832031 -15.585938 "/>
<path style=" stroke:none;fill-rule:nonzero;fill:rgb(39.99939%,39.99939%,39.99939%);fill-opacity:0.3;" d="M 97.097656 -5.9375 L 111.804688 -13.511719 L 142.5625 39.25 L 127.605469 46.699219 Z M 97.097656 -5.9375 "/>
<path style=" stroke:none;fill-rule:nonzero;fill:rgb(39.99939%,39.99939%,39.99939%);fill-opacity:0.3;" d="M 202.632812 8.972656 L 170.710938 -43.886719 L 186.132812 -51.867188 L 218.191406 1.078125 Z M 202.632812 8.972656 "/>
<path style=" stroke:none;fill-rule:nonzero;fill:rgb(39.99939%,39.99939%,39.99939%);fill-opacity:0.3;" d="M 183.773438 18.554688 L 151.734375 -34.058594 L 167.15625 -42.042969 L 199.320312 10.65625 Z M 183.773438 18.554688 "/>
<path style=" stroke:none;fill-rule:nonzero;fill:rgb(39.99939%,39.99939%,39.99939%);fill-opacity:0.3;" d="M 134.351562 -25.117188 L 149.050781 -32.679688 L 180.648438 20.207031 L 165.710938 27.648438 Z M 134.351562 -25.117188 "/>
<path style=" stroke:none;fill-rule:nonzero;fill:rgb(39.99939%,39.99939%,39.99939%);fill-opacity:0.3;" d="M 268.054688 -16.515625 L 276.46875 -20.757812 L 293.585938 8.75 L 302.40625 12.523438 L 308.367188 20.414062 L 294.128906 27.53125 Z M 268.054688 -16.515625 "/>
<path style=" stroke:none;fill-rule:nonzero;fill:rgb(39.99939%,39.99939%,39.99939%);fill-opacity:0.3;" d="M 323.980469 26.859375 L 355.714844 11.113281 L 352.941406 17.726562 L 325.671875 30.621094 Z M 323.980469 26.859375 "/>
<path style=" stroke:none;fill-rule:nonzero;fill:rgb(39.99939%,39.99939%,39.99939%);fill-opacity:0.3;" d="M 302.945312 43.503906 L 311.152344 59.523438 L 311.324219 60.164062 L 311.425781 64.175781 L 311.175781 65.460938 L 310.753906 66.265625 L 302.484375 78.488281 L 301.890625 78.570312 L 300.441406 77.691406 L 299.675781 77.132812 L 287.101562 51.5 L 287.097656 50.695312 L 287.351562 50.054688 L 287.859375 49.730469 L 301.332031 43.351562 L 301.84375 43.269531 L 302.4375 43.265625 Z M 302.945312 43.503906 "/>
<path style=" stroke:none;fill-rule:nonzero;fill:rgb(39.99939%,39.99939%,39.99939%);fill-opacity:0.3;" d="M 314.386719 36.464844 L 321.042969 49.855469 L 320.464844 52.0625 L 315.039062 55.875 L 314.390625 55.753906 L 306.5 41.269531 L 306.433594 40.535156 L 306.625 39.980469 L 312.832031 36.714844 Z M 314.386719 36.464844 "/>
<path style=" stroke:none;fill-rule:nonzero;fill:rgb(39.99939%,39.99939%,39.99939%);fill-opacity:0.3;" d="M 303.832031 86.910156 L 303.753906 86.890625 L 303.339844 86.246094 L 303.335938 85.46875 L 303.605469 84.300781 L 310.824219 72.921875 Z M 303.832031 86.910156 "/>
<path style=" stroke:none;fill-rule:nonzero;fill:rgb(39.99939%,39.99939%,39.99939%);fill-opacity:0.3;" d="M 291.34375 67.648438 L 291.703125 68.375 L 291.597656 68.425781 Z M 291.34375 67.648438 "/>
<path style=" stroke:none;fill-rule:nonzero;fill:rgb(39.99939%,39.99939%,39.99939%);fill-opacity:0.3;" d="M 293.78125 72.855469 L 294.160156 72.675781 L 295.703125 76.101562 Z M 293.78125 72.855469 "/>
<path style=" stroke:none;fill-rule:nonzero;fill:rgb(39.99939%,39.99939%,39.99939%);fill-opacity:0.3;" d="M 323.296875 -43.34375 L 332.507812 -47.980469 L 357.363281 -3.078125 L 341.894531 4.652344 L 324.128906 -27.464844 L 330.910156 -30.960938 Z M 323.296875 -43.34375 "/>
<path style=" stroke:none;fill-rule:nonzero;fill:rgb(39.99939%,39.99939%,39.99939%);fill-opacity:0.3;" d="M 298.226562 -30.722656 L 303.621094 -33.28125 L 310.160156 -22.046875 L 320.199219 -26.6875 L 339 6.097656 L 324.402344 13.394531 Z M 298.226562 -30.722656 "/>
<path style=" stroke:none;fill-rule:nonzero;fill:rgb(39.99939%,39.99939%,39.99939%);fill-opacity:0.3;" d="M 73.992188 295.820312 L 74.148438 295.777344 L 76.753906 305.765625 Z M 73.992188 295.820312 "/>
<path style=" stroke:none;fill-rule:nonzero;fill:rgb(39.99939%,39.99939%,39.99939%);fill-opacity:0.3;" d="M 65.570312 265.519531 L 65.886719 265.433594 L 69.277344 277.859375 L 69.027344 277.925781 Z M 65.570312 265.519531 "/>
<path style=" stroke:none;fill-rule:nonzero;fill:rgb(39.99939%,39.99939%,39.99939%);fill-opacity:0.3;" d="M 69.664062 279.621094 L 69.753906 279.601562 L 73.234375 292.367188 L 73.207031 292.375 Z M 69.664062 279.621094 "/>
<path style=" stroke:none;fill-rule:nonzero;fill:rgb(39.99939%,39.99939%,39.99939%);fill-opacity:0.3;" d="M 57.304688 235.808594 L 61.339844 234.695312 L 59.410156 243.378906 Z M 57.304688 235.808594 "/>
<path style=" stroke:none;fill-rule:nonzero;fill:rgb(39.99939%,39.99939%,39.99939%);fill-opacity:0.3;" d="M 64.824219 262.308594 L 64.460938 262.40625 L 63.257812 258.089844 Z M 64.824219 262.308594 "/>
<path style=" stroke:none;fill-rule:nonzero;fill:rgb(39.99939%,39.99939%,39.99939%);fill-opacity:0.3;" d="M 43.082031 242.835938 L 48.570312 262.585938 L 48.238281 265.816406 L 36.042969 286 L 27.984375 286.300781 L 17.667969 282.644531 Z M 43.082031 242.835938 "/>
<path style=" stroke:none;fill-rule:nonzero;fill:rgb(39.99939%,39.99939%,39.99939%);fill-opacity:0.3;" d="M 56.742188 232.679688 L 52.960938 220.222656 L 54.292969 219.90625 L 60.457031 231.722656 Z M 56.742188 232.679688 "/>
<path style=" stroke:none;fill-rule:nonzero;fill:rgb(39.99939%,39.99939%,39.99939%);fill-opacity:0.3;" d="M 52.277344 215.648438 L 50.515625 215.347656 L 51.429688 213.707031 Z M 52.277344 215.648438 "/>
<path style=" stroke:none;fill-rule:nonzero;fill:rgb(39.99939%,39.99939%,39.99939%);fill-opacity:0.3;" d="M 32.375 325.996094 L 5.617188 311.296875 L 18.554688 290.398438 L 36.730469 288.582031 L 50.75 308.195312 Z M 32.375 325.996094 "/>
<g clip-path="url(#clip1)" clip-rule="nonzero">
<path style=" stroke:none;fill-rule:nonzero;fill:rgb(39.99939%,39.99939%,39.99939%);fill-opacity:0.3;" d="M 1.277344 313.105469 L 30.230469 328.878906 L 1.636719 356.457031 L -3.828125 363.742188 L -30.921875 410.199219 L -59.699219 394.824219 L 45.457031 219.664062 L 47.695312 219.664062 L 73.105469 303.011719 L 71.070312 305.730469 L 55.789062 308.210938 L 50.113281 300.679688 L 58.808594 287.664062 L 58.125 285.476562 L 57.441406 283.292969 L 48.128906 297.539062 L 39.582031 285.628906 L 52.261719 263.988281 L 43.191406 234.890625 L 10.558594 286.433594 L 15.984375 289.292969 Z M 1.277344 313.105469 "/>
</g>
<path style=" stroke:none;fill-rule:nonzero;fill:rgb(39.99939%,39.99939%,39.99939%);fill-opacity:0.3;" d="M 74.148438 295.777344 L 115.679688 284.863281 L 119.101562 296.96875 L 77.535156 308.570312 L 76.753906 305.765625 Z M 74.148438 295.777344 "/>
<path style=" stroke:none;fill-rule:nonzero;fill:rgb(39.99939%,39.99939%,39.99939%);fill-opacity:0.3;" d="M 109.691406 213.957031 L 148.316406 167.824219 L 156.496094 184.929688 L 125.679688 225.179688 Z M 109.691406 213.957031 "/>
<path style=" stroke:none;fill-rule:nonzero;fill:rgb(39.99939%,39.99939%,39.99939%);fill-opacity:0.3;" d="M 127.078125 125.898438 L 135.902344 141.605469 L 116.148438 150.871094 L 123.550781 165.921875 L 114.488281 177.988281 L 95.351562 140.984375 Z M 127.078125 125.898438 "/>
<path style=" stroke:none;fill-rule:nonzero;fill:rgb(39.99939%,39.99939%,39.99939%);fill-opacity:0.3;" d="M 90.53125 141.90625 L 110.605469 181.125 L 104.132812 189.617188 L 80.910156 146.484375 Z M 90.53125 141.90625 "/>
<path style=" stroke:none;fill-rule:nonzero;fill:rgb(39.99939%,39.99939%,39.99939%);fill-opacity:0.3;" d="M 121.226562 153.996094 L 137.582031 146.34375 L 144.90625 163.238281 L 133.214844 168.132812 L 133.566406 168.636719 L 133.863281 169.0625 L 145.890625 164.585938 L 146.941406 165.378906 L 107.917969 212.710938 L 99.484375 206.792969 L 98.285156 204.527344 L 127.742188 166.933594 Z M 121.226562 153.996094 "/>
<path style=" stroke:none;fill-rule:nonzero;fill:rgb(39.99939%,39.99939%,39.99939%);fill-opacity:0.3;" d="M 197.8125 215.964844 L 210.066406 223.9375 L 177.871094 262.695312 L 165.914062 254.46875 Z M 197.8125 215.964844 "/>
<path style=" stroke:none;fill-rule:nonzero;fill:rgb(39.99939%,39.99939%,39.99939%);fill-opacity:0.3;" d="M 153.035156 245.128906 L 184.003906 206.484375 L 194.640625 213.398438 L 162.984375 251.972656 Z M 153.035156 245.128906 "/>
<path style=" stroke:none;fill-rule:nonzero;fill:rgb(39.99939%,39.99939%,39.99939%);fill-opacity:0.3;" d="M 127.175781 227.433594 L 157.246094 188.976562 L 169.046875 196.765625 L 138.109375 235.117188 Z M 127.175781 227.433594 "/>
<path style=" stroke:none;fill-rule:nonzero;fill:rgb(39.99939%,39.99939%,39.99939%);fill-opacity:0.3;" d="M 139.886719 236.09375 L 170.714844 197.847656 L 181.703125 204.984375 L 151.136719 243.824219 Z M 139.886719 236.09375 "/>
<path style=" stroke:none;fill-rule:nonzero;fill:rgb(39.99939%,39.99939%,39.99939%);fill-opacity:0.3;" d="M 65.886719 265.433594 L 106.917969 254.09375 L 110.558594 266.898438 L 69.277344 277.859375 Z M 65.886719 265.433594 "/>
<path style=" stroke:none;fill-rule:nonzero;fill:rgb(39.99939%,39.99939%,39.99939%);fill-opacity:0.3;" d="M 69.753906 279.601562 L 111.292969 268.851562 L 114.789062 281.160156 L 73.234375 292.367188 Z M 69.753906 279.601562 "/>
<path style=" stroke:none;fill-rule:nonzero;fill:rgb(39.99939%,39.99939%,39.99939%);fill-opacity:0.3;" d="M 61.339844 234.695312 L 98.496094 224.449219 L 102.082031 237.074219 L 60.625 247.746094 L 59.410156 243.378906 Z M 61.339844 234.695312 "/>
<path style=" stroke:none;fill-rule:nonzero;fill:rgb(39.99939%,39.99939%,39.99939%);fill-opacity:0.3;" d="M 122.664062 283.015625 L 167.253906 270.972656 L 167.492188 274.195312 L 162.679688 277.914062 L 143.804688 290 L 143.292969 290.214844 L 126.164062 294.996094 Z M 122.664062 283.015625 "/>
<path style=" stroke:none;fill-rule:nonzero;fill:rgb(39.99939%,39.99939%,39.99939%);fill-opacity:0.3;" d="M 117.652344 267.175781 L 162.800781 256 L 176.21875 265.09375 L 121.097656 279.910156 Z M 117.652344 267.175781 "/>
<path style=" stroke:none;fill-rule:nonzero;fill:rgb(39.99939%,39.99939%,39.99939%);fill-opacity:0.3;" d="M 144.203125 243.484375 L 159.253906 253.675781 L 116.535156 265 L 112.777344 252.15625 Z M 144.203125 243.484375 "/>
<path style=" stroke:none;fill-rule:nonzero;fill:rgb(39.99939%,39.99939%,39.99939%);fill-opacity:0.3;" d="M 111.929688 248.738281 L 108.566406 237.230469 L 128.660156 232.179688 L 141.367188 240.773438 Z M 111.929688 248.738281 "/>
<path style=" stroke:none;fill-rule:nonzero;fill:rgb(39.99939%,39.99939%,39.99939%);fill-opacity:0.3;" d="M 61.011719 250.003906 L 102.539062 239.539062 L 105.851562 251.1875 L 64.824219 262.308594 L 63.257812 258.089844 Z M 61.011719 250.003906 "/>
<path style=" stroke:none;fill-rule:nonzero;fill:rgb(39.99939%,39.99939%,39.99939%);fill-opacity:0.3;" d="M 104.226562 219.90625 L 107.523438 218.175781 L 126.296875 230.851562 L 108.738281 235.363281 Z M 104.226562 219.90625 "/>
<path style=" stroke:none;fill-rule:nonzero;fill:rgb(39.99939%,39.99939%,39.99939%);fill-opacity:0.3;" d="M 54.292969 219.90625 L 87.414062 212.050781 L 93.074219 223.316406 L 60.457031 231.722656 Z M 54.292969 219.90625 "/>
<path style=" stroke:none;fill-rule:nonzero;fill:rgb(39.99939%,39.99939%,39.99939%);fill-opacity:0.3;" d="M 82.171875 195.914062 L 87.179688 208.945312 L 55.570312 216.210938 L 52.277344 215.648438 L 51.429688 213.707031 L 57.011719 203.691406 L 62.316406 201.488281 Z M 82.171875 195.914062 "/>
<path style=" stroke:none;fill-rule:nonzero;fill:rgb(39.99939%,39.99939%,39.99939%);fill-opacity:0.3;" d="M 298.382812 93.148438 L 299.851562 90.714844 L 300.589844 90.941406 Z M 298.382812 93.148438 "/>
<path style=" stroke:none;fill-rule:nonzero;fill:rgb(39.99939%,39.99939%,39.99939%);fill-opacity:0.3;" d="M 258.492188 249.917969 L 258.546875 244.621094 L 258.085938 241.304688 L 253.398438 239.261719 L 240.28125 245.285156 L 238.28125 244.773438 L 236.167969 242.777344 L 234.851562 242.15625 L 232 241.957031 L 230.027344 242.675781 L 227.316406 241.984375 L 226.621094 242.363281 L 212.285156 231.226562 L 211.628906 229.988281 L 211.632812 229.160156 L 212.078125 227.710938 L 224.910156 208.054688 L 230.671875 200.824219 L 232.691406 196.082031 L 251.980469 166.085938 L 256.652344 189.453125 L 264.839844 251.535156 Z M 258.492188 249.917969 "/>
<path style=" stroke:none;fill-rule:nonzero;fill:rgb(39.99939%,39.99939%,39.99939%);fill-opacity:0.3;" d="M 234.757812 74.496094 L 283.390625 51.429688 L 291.34375 67.648438 L 291.597656 68.425781 L 243.277344 91.03125 Z M 234.757812 74.496094 "/>
<path style=" stroke:none;fill-rule:nonzero;fill:rgb(39.99939%,39.99939%,39.99939%);fill-opacity:0.3;" d="M 257.433594 116.265625 L 286.652344 102.007812 L 287.695312 104.464844 L 265.933594 132.5 Z M 257.433594 116.265625 "/>
<path style=" stroke:none;fill-rule:nonzero;fill:rgb(39.99939%,39.99939%,39.99939%);fill-opacity:0.3;" d="M 193.984375 120.214844 L 242.199219 97.285156 L 250.710938 113.652344 L 202.722656 136.648438 Z M 193.984375 120.214844 "/>
<path style=" stroke:none;fill-rule:nonzero;fill:rgb(39.99939%,39.99939%,39.99939%);fill-opacity:0.3;" d="M 205.210938 141.320312 L 252.992188 118.148438 L 262.152344 135.832031 L 214.28125 158.339844 Z M 205.210938 141.320312 "/>
<path style=" stroke:none;fill-rule:nonzero;fill:rgb(39.99939%,39.99939%,39.99939%);fill-opacity:0.3;" d="M 231.71875 77.023438 L 240.320312 93.496094 L 191.855469 116.207031 L 183.261719 100.023438 Z M 231.71875 77.023438 "/>
<path style=" stroke:none;fill-rule:nonzero;fill:rgb(39.99939%,39.99939%,39.99939%);fill-opacity:0.3;" d="M 298.578125 82.492188 L 291.472656 93.976562 L 254.308594 111.777344 L 245.8125 95.292969 L 293.78125 72.855469 L 295.703125 76.101562 Z M 298.578125 82.492188 "/>
<path style=" stroke:none;fill-rule:nonzero;fill:rgb(39.99939%,39.99939%,39.99939%);fill-opacity:0.3;" d="M 214.742188 164.046875 L 262.6875 141.789062 L 246.222656 168.921875 L 223.363281 180.125 Z M 214.742188 164.046875 "/>
<path style=" stroke:none;fill-rule:nonzero;fill:rgb(39.99939%,39.99939%,39.99939%);fill-opacity:0.3;" d="M 200.546875 143.585938 L 209.820312 160.4375 L 161.066406 183.425781 L 152.515625 166.917969 Z M 200.546875 143.585938 "/>
<path style=" stroke:none;fill-rule:nonzero;fill:rgb(39.99939%,39.99939%,39.99939%);fill-opacity:0.3;" d="M 178.007812 102.519531 L 186.808594 118.566406 L 139.144531 140.90625 L 130.953125 124.875 Z M 178.007812 102.519531 "/>
<path style=" stroke:none;fill-rule:nonzero;fill:rgb(39.99939%,39.99939%,39.99939%);fill-opacity:0.3;" d="M 188.898438 122.382812 L 197.984375 138.921875 L 149.992188 162.023438 L 141.175781 144.871094 Z M 188.898438 122.382812 "/>
<path style=" stroke:none;fill-rule:nonzero;fill:rgb(39.99939%,39.99939%,39.99939%);fill-opacity:0.3;" d="M 161.496094 188.839844 L 209.960938 166.269531 L 218.839844 182.34375 L 180.320312 201.046875 Z M 161.496094 188.839844 "/>
<path style=" stroke:none;fill-rule:nonzero;fill:rgb(39.99939%,39.99939%,39.99939%);fill-opacity:0.3;" d="M 220.078125 185.828125 L 226.261719 197.164062 L 211.132812 221.101562 L 183.128906 202.890625 Z M 220.078125 185.828125 "/>
<path style=" stroke:none;fill-rule:nonzero;fill:rgb(39.99939%,39.99939%,39.99939%);fill-opacity:0.3;" d="M 225.796875 183.355469 L 238.667969 176.808594 L 229.914062 191.007812 Z M 225.796875 183.355469 "/>
<path style=" stroke:none;fill-rule:nonzero;fill:rgb(39.99939%,39.99939%,39.99939%);fill-opacity:0.3;" d="M 209.410156 231.296875 L 224.835938 243.335938 L 219.8125 246.078125 L 208.214844 250.851562 L 198.265625 262.128906 L 196.652344 263.117188 L 192.523438 265.179688 L 189.796875 263.132812 L 186.101562 258.820312 Z M 209.410156 231.296875 "/>
<path style=" stroke:none;fill-rule:nonzero;fill:rgb(39.99939%,39.99939%,39.99939%);fill-opacity:0.3;" d="M 246.082031 246.761719 L 252.273438 244.1875 L 253.621094 244.070312 L 254.351562 244.183594 L 255.085938 244.644531 L 255.449219 245.21875 L 255.691406 246.027344 L 255.574219 249.175781 Z M 246.082031 246.761719 "/>
<path style=" stroke:none;fill-rule:nonzero;fill:rgb(39.99939%,39.99939%,39.99939%);fill-opacity:0.3;" d="M 167.492188 274.195312 L 167.539062 274.804688 L 162.679688 277.914062 Z M 167.492188 274.195312 "/>
<path style=" stroke:none;fill-rule:nonzero;fill:rgb(39.99939%,39.99939%,39.99939%);fill-opacity:0.3;" d="M 143.804688 290 L 143.605469 290.128906 L 143.292969 290.214844 Z M 143.804688 290 "/>
<path style=" stroke:none;fill-rule:nonzero;fill:rgb(39.99939%,39.99939%,39.99939%);fill-opacity:0.3;" d="M 348.316406 165.4375 L 344.796875 183.386719 L 349.785156 187.65625 L 352.328125 225.273438 L 337.136719 231.730469 L 333.785156 233.128906 L 335.125 211.179688 L 334.886719 201.304688 L 330.0625 191.765625 L 330.757812 177.605469 L 335.710938 170.640625 Z M 348.316406 165.4375 "/>
<path style=" stroke:none;fill-rule:nonzero;fill:rgb(39.99939%,39.99939%,39.99939%);fill-opacity:0.3;" d="M 317.769531 96.132812 L 347.539062 102.234375 L 349.601562 116.617188 L 348.421875 120.023438 L 348.847656 125.324219 L 349.972656 128.386719 L 354.371094 131.972656 L 358.335938 137.621094 L 358.886719 149.507812 L 349.675781 161.335938 L 334.480469 168.800781 L 328.398438 177.222656 L 327.507812 192.378906 L 332.117188 201.941406 L 331.960938 210.972656 L 330.859375 234.085938 L 290.808594 243.699219 L 290.722656 243.113281 L 290.5625 242.476562 L 268.800781 244.433594 L 267.773438 224.074219 L 278.699219 221.082031 L 289.257812 217.304688 L 286.308594 215.140625 L 279.914062 211.617188 L 279.335938 206.640625 L 275.097656 173.027344 L 278.277344 169.550781 L 287.582031 165.4375 L 285.671875 164.9375 L 261.179688 160.542969 L 264.535156 155.332031 L 272.582031 139.859375 L 272.015625 138.722656 L 271.765625 137.210938 L 298.382812 93.148438 L 300.589844 90.941406 Z M 317.769531 96.132812 "/>
<path style=" stroke:none;fill-rule:nonzero;fill:rgb(39.99939%,39.99939%,39.99939%);fill-opacity:0.3;" d="M 285.355469 165.570312 L 277.914062 168.921875 L 274.386719 172.832031 L 278.355469 206.574219 L 279.183594 212.035156 L 286.125 215.738281 L 287.910156 217.1875 L 278.328125 220.550781 L 266.839844 223.453125 L 268.035156 245.464844 L 289.8125 243.6875 L 273.257812 248.75 L 274.015625 251.855469 L 261.351562 256.832031 L 262.300781 258.863281 L 257.761719 259.996094 L 258.410156 257.386719 L 258.492188 249.917969 L 264.839844 251.535156 L 256.652344 189.453125 L 251.980469 166.085938 L 252.46875 165.320312 L 260.636719 161.097656 Z M 285.355469 165.570312 "/>
<path style=" stroke:none;fill-rule:nonzero;fill:rgb(39.99939%,39.99939%,39.99939%);fill-opacity:0.3;" d="M 240.28125 245.285156 L 239.890625 245.464844 L 238.574219 245.050781 L 238.28125 244.773438 Z M 240.28125 245.285156 "/>
<path style=" stroke:none;fill-rule:nonzero;fill:rgb(39.99939%,39.99939%,39.99939%);fill-opacity:0.3;" d="M 230.027344 242.675781 L 229.144531 242.996094 L 228.046875 242.996094 L 227.171875 242.792969 L 226.621094 242.363281 L 227.316406 241.984375 Z M 230.027344 242.675781 "/>
<g clip-path="url(#clip2)" clip-rule="nonzero">
<path style=" stroke:none;fill-rule:nonzero;fill:rgb(39.99939%,39.99939%,39.99939%);fill-opacity:0.3;" d="M 362.046875 152.84375 L 363.078125 139.617188 L 360.144531 131.375 L 357.515625 125.757812 L 372.425781 126.628906 L 372.242188 144.046875 L 373.613281 152.328125 Z M 362.046875 152.84375 "/>
</g>
<g clip-path="url(#clip3)" clip-rule="nonzero">
<path style=" stroke:none;fill-rule:nonzero;fill:rgb(39.99939%,39.99939%,39.99939%);fill-opacity:0.3;" d="M 361.363281 154.621094 L 373.835938 153.820312 L 375.574219 158.675781 L 376.101562 165.636719 L 377.316406 169.234375 L 382.875 182.273438 L 383.132812 184.300781 L 383.183594 194.160156 L 382.445312 197.261719 L 381.714844 199.699219 L 380.695312 209.246094 L 380.914062 212.136719 L 380.824219 218.152344 L 370.09375 219.675781 L 367.382812 221.246094 L 363.617188 221.269531 L 353.675781 225.28125 L 351.523438 186.804688 L 346.988281 182.980469 L 350.445312 165.816406 Z M 361.363281 154.621094 "/>
</g>
<path style=" stroke:none;fill-rule:nonzero;fill:rgb(39.99939%,39.99939%,39.99939%);fill-opacity:0.3;" d="M 224.835938 243.335938 L 226.960938 244.996094 L 215.4375 251.625 L 198.265625 262.128906 L 208.214844 250.851562 L 219.8125 246.078125 Z M 224.835938 243.335938 "/>
<path style=" stroke:none;fill-rule:nonzero;fill:rgb(39.99939%,39.99939%,39.99939%);fill-opacity:0.3;" d="M 196.652344 263.117188 L 191.796875 266.082031 L 185.792969 259.183594 L 186.101562 258.820312 L 189.796875 263.132812 L 192.523438 265.179688 Z M 196.652344 263.117188 "/>
<g clip-path="url(#clip4)" clip-rule="nonzero">
<path style=" stroke:none;fill-rule:nonzero;fill:rgb(39.99939%,39.99939%,39.99939%);fill-opacity:0.3;" d="M 3.402344 365.480469 L 5.742188 362.992188 L 50.1875 317.875 L 51.085938 317.492188 L 54.417969 317.15625 L 58.207031 316.792969 L 78.964844 314.496094 L 108.914062 309.09375 L 119.746094 307.246094 L 124.886719 305.960938 L 148.992188 296.195312 L 151.070312 295.035156 L 153.765625 292.71875 L 177.757812 275.214844 L 179.347656 274.402344 L 186.164062 271.671875 L 246.082031 246.761719 L 255.574219 249.175781 L 255.550781 249.765625 L 253.472656 267.886719 L 253.589844 268.339844 L 254.128906 268.5625 L 254.910156 268.5625 L 255.449219 268.449219 L 259.804688 265.359375 L 290.820312 254.042969 L 291.175781 255.363281 L 291.738281 256.941406 L 292.574219 258.703125 L 293.84375 260.210938 L 295.476562 261.371094 L 297.359375 262.109375 L 299.382812 262.378906 L 301.414062 262.167969 L 303.328125 261.484375 L 305.003906 260.375 L 306.335938 258.902344 L 307.242188 257.167969 L 307.664062 255.277344 L 307.574219 253.347656 L 307.546875 251.605469 L 307.472656 250.671875 L 313.046875 247.828125 L 315.679688 245.570312 L 319.738281 244.441406 L 326.902344 243.308594 L 327.191406 240.742188 L 337.800781 236.335938 L 379.800781 233.746094 L 381.839844 230.605469 L 385.1875 225.5625 L 383.898438 223.246094 L 382.753906 220.65625 L 385.90625 215.757812 L 386.523438 214.617188 L 386.925781 213.308594 L 387.039062 211.347656 L 387.710938 201.644531 L 388.023438 199.59375 L 388.742188 197.265625 L 389.179688 193.449219 L 389.046875 190.234375 L 388.503906 186.351562 L 387.878906 183.511719 L 387.066406 181.808594 L 386.65625 180.484375 L 386.332031 177.839844 L 385.820312 176.421875 L 384.03125 173.1875 L 381.890625 169.050781 L 380.601562 165.449219 L 380.71875 162.777344 L 380.53125 156.242188 L 381.085938 155.441406 L 383 147.308594 L 383.828125 145.308594 L 384.09375 142.644531 L 384.789062 141.308594 L 389.804688 135.175781 L 391.488281 134.507812 L 408.859375 128.890625 L 420.070312 125.679688 L 432.117188 120.738281 L 434.914062 118.738281 L 437.15625 117.136719 L 440.238281 116.601562 L 445.710938 116.0625 L 447.21875 116.320312 L 448.179688 117.097656 L 448.863281 117.875 L 449.414062 119.039062 L 452.523438 180.191406 L 452.125 181.230469 L 450.515625 187.578125 L 443.792969 222.519531 L 442.484375 255.980469 L 442.003906 261.441406 L 441.71875 263.378906 L 441.058594 266.902344 L 440.210938 271.660156 L 439.453125 277.390625 L 439.164062 282.238281 L 438.398438 317.539062 L 438.398438 318.613281 L 438.085938 319.394531 L 436.847656 321.445312 L 435.191406 323.792969 L 375.191406 402.304688 L 371.925781 405.777344 L 363.871094 414.792969 L 276.203125 519.703125 L 275.519531 520.101562 L 274.464844 520.351562 L 273.730469 520.402344 L 272.726562 520.40625 L 271.9375 520.40625 L 271.148438 520.207031 L 270.359375 519.90625 L 245.457031 506.445312 L 228.769531 499.546875 L 213.839844 493.175781 L 211.058594 491.652344 L 209.300781 490.40625 L 207.105469 488.878906 L 206.078125 487.859375 L 204.617188 486.335938 L 203.300781 484.671875 L 202.566406 483.421875 L 201.25 481.480469 L 200.519531 479.539062 L 188.972656 444.304688 L 188.09375 442.085938 L 187.214844 440.28125 L 186.191406 438.617188 L 184.875 436.679688 L 182.972656 434.597656 L 181.363281 433.214844 L 173.605469 426.289062 L 169.722656 423.316406 L 167.378906 422.210938 L 165.476562 421.242188 L 162.984375 420.414062 L 160.789062 420 L 158.300781 419.589844 L 156.101562 419.316406 L 154.492188 419.316406 L 153.027344 419.457031 L 151.707031 419.460938 L 150.242188 419.460938 L 148.78125 419.324219 L 147.167969 419.050781 L 145.410156 418.636719 L 143.800781 418.085938 L 141.894531 417.53125 L 140.429688 417.117188 L 139.257812 417.121094 L 137.796875 417.125 L 136.621094 417.402344 L 135.449219 417.820312 L 134.132812 418.792969 L 113.179688 430.890625 L 111.714844 430.890625 L 110.835938 430.476562 L 110.25 429.921875 L 107.027344 423.828125 L 102.925781 425.914062 L 107.316406 434.503906 L 106.875 435.199219 L 106.144531 435.617188 L 91.582031 443.414062 L 90.90625 443.691406 L 90.0625 443.890625 L 89.34375 443.890625 L 88.582031 443.8125 L 87.648438 443.65625 L 86.929688 443.414062 L 85.957031 443.097656 L 85.070312 442.699219 L 84.097656 442.140625 L 83.039062 441.421875 L 32.792969 402.636719 L 31.007812 400.746094 L 29.894531 398.855469 L 29.671875 397.59375 L 29.671875 396.539062 L 35.246094 387.894531 L 35.792969 386.828125 L 35.882812 385.476562 L 35.792969 384.464844 L 35.4375 383.707031 L 35.070312 382.84375 L 34.140625 381.800781 L 34.046875 381.738281 L 35.617188 379.109375 Z M 3.402344 365.480469 "/>
</g>
<g clip-path="url(#clip5)" clip-rule="nonzero">
<path style=" stroke:none;fill-rule:nonzero;fill:rgb(39.99939%,39.99939%,39.99939%);fill-opacity:0.3;" d="M 384.035156 48.519531 L 388.761719 43.855469 L 395.496094 25.210938 L 396.984375 17.351562 L 398.085938 -2.828125 L 397.847656 -3.921875 L 397.070312 -5.96875 L 397.09375 -7.613281 L 397.65625 -8.238281 L 398.316406 -8.507812 L 399.164062 -8.601562 L 408.890625 -3.1875 L 417.796875 -1.289062 L 426.515625 0.5 L 440.007812 58.964844 L 447.570312 106.640625 L 412.121094 118.261719 L 368.316406 121.253906 L 360.1875 121.121094 L 357.546875 118.632812 L 356.285156 103.585938 L 357.113281 102.339844 L 358.753906 101.71875 L 361.246094 101.351562 L 363.859375 101.679688 L 366.351562 93.890625 Z M 384.035156 48.519531 "/>
</g>
<g clip-path="url(#clip6)" clip-rule="nonzero">
<path style=" stroke:none;fill-rule:nonzero;fill:rgb(39.99939%,39.99939%,39.99939%);fill-opacity:0.3;" d="M 355.714844 11.113281 L 389.183594 -5.496094 L 389.644531 -4.5625 L 358.160156 11.46875 L 356.484375 12.664062 L 356.488281 14.054688 L 356.074219 15.640625 L 355.238281 16.636719 L 354.398438 17.035156 L 352.941406 17.726562 Z M 355.714844 11.113281 "/>
</g>
<g clip-path="url(#clip7)" clip-rule="nonzero">
<path style=" stroke:none;fill-rule:nonzero;fill:rgb(39.99939%,39.99939%,39.99939%);fill-opacity:0.3;" d="M 384.035156 48.519531 L 366.351562 93.890625 L 357.242188 90.597656 L 358.703125 86.273438 L 360.789062 81.527344 L 362.507812 80.046875 L 369.882812 58.714844 L 373.058594 52.117188 L 377.550781 42.929688 Z M 384.035156 48.519531 "/>
</g>
<g clip-path="url(#clip8)" clip-rule="nonzero">
<path style=" stroke:none;fill-rule:nonzero;fill:rgb(39.99939%,39.99939%,39.99939%);fill-opacity:0.3;" d="M 346.429688 30.707031 L 362.695312 64.847656 L 362.699219 65.625 L 362.292969 66.917969 L 355.105469 83.648438 L 354.558594 83.777344 L 353.597656 83.261719 L 332.507812 42.652344 L 332.5 41.230469 L 336.042969 36.558594 L 337.683594 35.132812 L 345.335938 30.96875 Z M 346.429688 30.707031 "/>
</g>
<path style=" stroke:none;fill-rule:nonzero;fill:rgb(39.99939%,39.99939%,39.99939%);fill-opacity:0.3;" d="M 329.878906 45.910156 L 352.632812 90.144531 L 352.773438 91.183594 L 352.640625 92.089844 L 352.230469 92.609375 L 348.410156 95.339844 L 347.453125 95.46875 L 334.167969 93.296875 L 333.617188 92.648438 L 318.03125 62.898438 L 318.027344 62.121094 L 318.4375 61.085938 L 328.511719 46.300781 Z M 329.878906 45.910156 "/>
<path style=" stroke:none;fill-rule:nonzero;fill:rgb(39.99939%,39.99939%,39.99939%);fill-opacity:0.3;" d="M 315.585938 67.566406 L 328.957031 91.234375 L 328.824219 92.140625 L 328.28125 92.660156 L 327.1875 92.921875 L 303.832031 86.910156 L 310.824219 72.921875 L 313.808594 68.21875 L 314.765625 67.570312 Z M 315.585938 67.566406 "/>
<g clip-path="url(#clip9)" clip-rule="nonzero">
<path style=" stroke:none;fill-rule:nonzero;fill:rgb(39.99939%,39.99939%,39.99939%);fill-opacity:0.3;" d="M 384.515625 5.429688 L 387.316406 10.929688 L 356.144531 25.535156 L 355.1875 22.367188 Z M 384.515625 5.429688 "/>
</g>
<g clip-path="url(#clip10)" clip-rule="nonzero">
<path style=" stroke:none;fill-rule:nonzero;fill:rgb(39.99939%,39.99939%,39.99939%);fill-opacity:0.3;" d="M 352.917969 36.390625 L 358.136719 31.890625 L 356.777344 27.960938 L 365.847656 23.644531 L 374.488281 39.867188 L 363.820312 59.929688 Z M 352.917969 36.390625 "/>
</g>
<path style="fill-rule:nonzero;fill:rgb(39.99939%,39.99939%,39.99939%);fill-opacity:1;stroke-width:0.03;stroke-linecap:square;stroke-linejoin:miter;stroke:rgb(39.99939%,39.99939%,39.99939%);stroke-opacity:1;stroke-miterlimit:3.239307;" d="M 148.148438 308.777344 L 189.679688 297.863281 L 193.101562 309.96875 L 151.535156 321.570312 L 150.753906 318.765625 Z M 148.148438 308.777344 " transform="matrix(1,0,0,1,-74,-13)"/>
<path style="fill-rule:nonzero;fill:rgb(39.99939%,39.99939%,39.99939%);fill-opacity:1;stroke-width:0.03;stroke-linecap:square;stroke-linejoin:miter;stroke:rgb(39.99939%,39.99939%,39.99939%);stroke-opacity:1;stroke-miterlimit:3.239307;" d="M 183.691406 226.957031 L 222.316406 180.824219 L 230.496094 197.929688 L 199.679688 238.179688 Z M 183.691406 226.957031 " transform="matrix(1,0,0,1,-74,-13)"/>
<path style="fill-rule:nonzero;fill:rgb(39.99939%,39.99939%,39.99939%);fill-opacity:1;stroke-width:0.03;stroke-linecap:square;stroke-linejoin:miter;stroke:rgb(39.99939%,39.99939%,39.99939%);stroke-opacity:1;stroke-miterlimit:3.239307;" d="M 201.078125 138.898438 L 209.902344 154.605469 L 190.148438 163.871094 L 197.550781 178.921875 L 188.488281 190.988281 L 169.351562 153.984375 Z M 201.078125 138.898438 " transform="matrix(1,0,0,1,-74,-13)"/>
<path style="fill-rule:nonzero;fill:rgb(39.99939%,39.99939%,39.99939%);fill-opacity:1;stroke-width:0.03;stroke-linecap:square;stroke-linejoin:miter;stroke:rgb(39.99939%,39.99939%,39.99939%);stroke-opacity:1;stroke-miterlimit:3.239307;" d="M 164.53125 154.90625 L 184.605469 194.125 L 178.132812 202.617188 L 154.910156 159.484375 Z M 164.53125 154.90625 " transform="matrix(1,0,0,1,-74,-13)"/>
<path style="fill-rule:nonzero;fill:rgb(39.99939%,39.99939%,39.99939%);fill-opacity:1;stroke-width:0.03;stroke-linecap:square;stroke-linejoin:miter;stroke:rgb(39.99939%,39.99939%,39.99939%);stroke-opacity:1;stroke-miterlimit:3.239307;" d="M 195.226562 166.996094 L 211.582031 159.34375 L 218.90625 176.238281 L 207.214844 181.132812 L 207.566406 181.636719 L 207.863281 182.0625 L 219.890625 177.585938 L 220.941406 178.378906 L 181.917969 225.710938 L 173.484375 219.792969 L 172.285156 217.527344 L 201.742188 179.933594 Z M 195.226562 166.996094 " transform="matrix(1,0,0,1,-74,-13)"/>
<path style="fill-rule:nonzero;fill:rgb(39.99939%,39.99939%,39.99939%);fill-opacity:1;stroke-width:0.03;stroke-linecap:square;stroke-linejoin:miter;stroke:rgb(39.99939%,39.99939%,39.99939%);stroke-opacity:1;stroke-miterlimit:3.239307;" d="M 271.8125 228.964844 L 284.066406 236.9375 L 251.871094 275.695312 L 239.914062 267.46875 Z M 271.8125 228.964844 " transform="matrix(1,0,0,1,-74,-13)"/>
<path style="fill-rule:nonzero;fill:rgb(39.99939%,39.99939%,39.99939%);fill-opacity:1;stroke-width:0.03;stroke-linecap:square;stroke-linejoin:miter;stroke:rgb(39.99939%,39.99939%,39.99939%);stroke-opacity:1;stroke-miterlimit:3.239307;" d="M 227.035156 258.128906 L 258.003906 219.484375 L 268.640625 226.398438 L 236.984375 264.972656 Z M 227.035156 258.128906 " transform="matrix(1,0,0,1,-74,-13)"/>
<path style="fill-rule:nonzero;fill:rgb(39.99939%,39.99939%,39.99939%);fill-opacity:1;stroke-width:0.03;stroke-linecap:square;stroke-linejoin:miter;stroke:rgb(39.99939%,39.99939%,39.99939%);stroke-opacity:1;stroke-miterlimit:3.239307;" d="M 201.175781 240.433594 L 231.246094 201.976562 L 243.046875 209.765625 L 212.109375 248.117188 Z M 201.175781 240.433594 " transform="matrix(1,0,0,1,-74,-13)"/>
<path style="fill-rule:nonzero;fill:rgb(39.99939%,39.99939%,39.99939%);fill-opacity:1;stroke-width:0.03;stroke-linecap:square;stroke-linejoin:miter;stroke:rgb(39.99939%,39.99939%,39.99939%);stroke-opacity:1;stroke-miterlimit:3.239307;" d="M 213.886719 249.09375 L 244.714844 210.847656 L 255.703125 217.984375 L 225.136719 256.824219 Z M 213.886719 249.09375 " transform="matrix(1,0,0,1,-74,-13)"/>
<path style="fill-rule:nonzero;fill:rgb(39.99939%,39.99939%,39.99939%);fill-opacity:1;stroke-width:0.03;stroke-linecap:square;stroke-linejoin:miter;stroke:rgb(39.99939%,39.99939%,39.99939%);stroke-opacity:1;stroke-miterlimit:3.239307;" d="M 139.886719 278.433594 L 180.917969 267.09375 L 184.558594 279.898438 L 143.277344 290.859375 Z M 139.886719 278.433594 " transform="matrix(1,0,0,1,-74,-13)"/>
<path style="fill-rule:nonzero;fill:rgb(39.99939%,39.99939%,39.99939%);fill-opacity:1;stroke-width:0.03;stroke-linecap:square;stroke-linejoin:miter;stroke:rgb(39.99939%,39.99939%,39.99939%);stroke-opacity:1;stroke-miterlimit:3.239307;" d="M 143.753906 292.601562 L 185.292969 281.851562 L 188.789062 294.160156 L 147.234375 305.367188 Z M 143.753906 292.601562 " transform="matrix(1,0,0,1,-74,-13)"/>
<path style="fill-rule:nonzero;fill:rgb(39.99939%,39.99939%,39.99939%);fill-opacity:1;stroke-width:0.03;stroke-linecap:square;stroke-linejoin:miter;stroke:rgb(39.99939%,39.99939%,39.99939%);stroke-opacity:1;stroke-miterlimit:3.239307;" d="M 135.339844 247.695312 L 172.496094 237.449219 L 176.082031 250.074219 L 134.625 260.746094 L 133.410156 256.378906 Z M 135.339844 247.695312 " transform="matrix(1,0,0,1,-74,-13)"/>
<path style="fill-rule:nonzero;fill:rgb(39.99939%,39.99939%,39.99939%);fill-opacity:1;stroke-width:0.03;stroke-linecap:square;stroke-linejoin:miter;stroke:rgb(39.99939%,39.99939%,39.99939%);stroke-opacity:1;stroke-miterlimit:3.239307;" d="M 196.664062 296.015625 L 241.253906 283.972656 L 241.492188 287.195312 L 236.679688 290.914062 L 217.804688 303 L 217.292969 303.214844 L 200.164062 307.996094 Z M 196.664062 296.015625 " transform="matrix(1,0,0,1,-74,-13)"/>
<path style="fill-rule:nonzero;fill:rgb(39.99939%,39.99939%,39.99939%);fill-opacity:1;stroke-width:0.03;stroke-linecap:square;stroke-linejoin:miter;stroke:rgb(39.99939%,39.99939%,39.99939%);stroke-opacity:1;stroke-miterlimit:3.239307;" d="M 191.652344 280.175781 L 236.800781 269 L 250.21875 278.09375 L 195.097656 292.910156 Z M 191.652344 280.175781 " transform="matrix(1,0,0,1,-74,-13)"/>
<path style="fill-rule:nonzero;fill:rgb(39.99939%,39.99939%,39.99939%);fill-opacity:1;stroke-width:0.03;stroke-linecap:square;stroke-linejoin:miter;stroke:rgb(39.99939%,39.99939%,39.99939%);stroke-opacity:1;stroke-miterlimit:3.239307;" d="M 218.203125 256.484375 L 233.253906 266.675781 L 190.535156 278 L 186.777344 265.15625 Z M 218.203125 256.484375 " transform="matrix(1,0,0,1,-74,-13)"/>
<path style="fill-rule:nonzero;fill:rgb(39.99939%,39.99939%,39.99939%);fill-opacity:1;stroke-width:0.03;stroke-linecap:square;stroke-linejoin:miter;stroke:rgb(39.99939%,39.99939%,39.99939%);stroke-opacity:1;stroke-miterlimit:3.239307;" d="M 185.929688 261.738281 L 182.566406 250.230469 L 202.660156 245.179688 L 215.367188 253.773438 Z M 185.929688 261.738281 " transform="matrix(1,0,0,1,-74,-13)"/>
<path style="fill-rule:nonzero;fill:rgb(39.99939%,39.99939%,39.99939%);fill-opacity:1;stroke-width:0.03;stroke-linecap:square;stroke-linejoin:miter;stroke:rgb(39.99939%,39.99939%,39.99939%);stroke-opacity:1;stroke-miterlimit:3.239307;" d="M 135.011719 263.003906 L 176.539062 252.539062 L 179.851562 264.1875 L 138.824219 275.308594 L 137.257812 271.089844 Z M 135.011719 263.003906 " transform="matrix(1,0,0,1,-74,-13)"/>
<path style="fill-rule:nonzero;fill:rgb(39.99939%,39.99939%,39.99939%);fill-opacity:1;stroke-width:0.03;stroke-linecap:square;stroke-linejoin:miter;stroke:rgb(39.99939%,39.99939%,39.99939%);stroke-opacity:1;stroke-miterlimit:3.239307;" d="M 178.226562 232.90625 L 181.523438 231.175781 L 200.296875 243.851562 L 182.738281 248.363281 Z M 178.226562 232.90625 " transform="matrix(1,0,0,1,-74,-13)"/>
<path style="fill-rule:nonzero;fill:rgb(39.99939%,39.99939%,39.99939%);fill-opacity:1;stroke-width:0.03;stroke-linecap:square;stroke-linejoin:miter;stroke:rgb(39.99939%,39.99939%,39.99939%);stroke-opacity:1;stroke-miterlimit:3.239307;" d="M 128.292969 232.90625 L 161.414062 225.050781 L 167.074219 236.316406 L 134.457031 244.722656 Z M 128.292969 232.90625 " transform="matrix(1,0,0,1,-74,-13)"/>
<path style="fill-rule:nonzero;fill:rgb(39.99939%,39.99939%,39.99939%);fill-opacity:1;stroke-width:0.03;stroke-linecap:square;stroke-linejoin:miter;stroke:rgb(39.99939%,39.99939%,39.99939%);stroke-opacity:1;stroke-miterlimit:3.239307;" d="M 156.171875 208.914062 L 161.179688 221.945312 L 129.570312 229.210938 L 126.277344 228.648438 L 125.429688 226.707031 L 131.011719 216.691406 L 136.316406 214.488281 Z M 156.171875 208.914062 " transform="matrix(1,0,0,1,-74,-13)"/>
<path style="fill-rule:nonzero;fill:rgb(39.99939%,39.99939%,39.99939%);fill-opacity:1;stroke-width:0.03;stroke-linecap:square;stroke-linejoin:miter;stroke:rgb(39.99939%,39.99939%,39.99939%);stroke-opacity:1;stroke-miterlimit:3.239307;" d="M 372.382812 106.148438 L 373.851562 103.714844 L 374.589844 103.941406 Z M 372.382812 106.148438 " transform="matrix(1,0,0,1,-74,-13)"/>
<path style="fill-rule:nonzero;fill:rgb(39.99939%,39.99939%,39.99939%);fill-opacity:1;stroke-width:0.03;stroke-linecap:square;stroke-linejoin:miter;stroke:rgb(39.99939%,39.99939%,39.99939%);stroke-opacity:1;stroke-miterlimit:3.239307;" d="M 332.492188 262.917969 L 332.546875 257.621094 L 332.085938 254.304688 L 327.398438 252.261719 L 314.28125 258.285156 L 312.28125 257.773438 L 310.167969 255.777344 L 308.851562 255.15625 L 306 254.957031 L 304.027344 255.675781 L 301.316406 254.984375 L 300.621094 255.363281 L 286.285156 244.226562 L 285.628906 242.988281 L 285.632812 242.160156 L 286.078125 240.710938 L 298.910156 221.054688 L 304.671875 213.824219 L 306.691406 209.082031 L 325.980469 179.085938 L 330.652344 202.453125 L 338.839844 264.535156 Z M 332.492188 262.917969 " transform="matrix(1,0,0,1,-74,-13)"/>
<path style="fill-rule:nonzero;fill:rgb(39.99939%,39.99939%,39.99939%);fill-opacity:1;stroke-width:0.03;stroke-linecap:square;stroke-linejoin:miter;stroke:rgb(39.99939%,39.99939%,39.99939%);stroke-opacity:1;stroke-miterlimit:3.239307;" d="M 308.757812 87.496094 L 357.390625 64.429688 L 365.34375 80.648438 L 365.597656 81.425781 L 317.277344 104.03125 Z M 308.757812 87.496094 " transform="matrix(1,0,0,1,-74,-13)"/>
<path style="fill-rule:nonzero;fill:rgb(39.99939%,39.99939%,39.99939%);fill-opacity:1;stroke-width:0.03;stroke-linecap:square;stroke-linejoin:miter;stroke:rgb(39.99939%,39.99939%,39.99939%);stroke-opacity:1;stroke-miterlimit:3.239307;" d="M 331.433594 129.265625 L 360.652344 115.007812 L 361.695312 117.464844 L 339.933594 145.5 Z M 331.433594 129.265625 " transform="matrix(1,0,0,1,-74,-13)"/>
<path style="fill-rule:nonzero;fill:rgb(39.99939%,39.99939%,39.99939%);fill-opacity:1;stroke-width:0.03;stroke-linecap:square;stroke-linejoin:miter;stroke:rgb(39.99939%,39.99939%,39.99939%);stroke-opacity:1;stroke-miterlimit:3.239307;" d="M 267.984375 133.214844 L 316.199219 110.285156 L 324.710938 126.652344 L 276.722656 149.648438 Z M 267.984375 133.214844 " transform="matrix(1,0,0,1,-74,-13)"/>
<path style="fill-rule:nonzero;fill:rgb(39.99939%,39.99939%,39.99939%);fill-opacity:1;stroke-width:0.03;stroke-linecap:square;stroke-linejoin:miter;stroke:rgb(39.99939%,39.99939%,39.99939%);stroke-opacity:1;stroke-miterlimit:3.239307;" d="M 279.210938 154.320312 L 326.992188 131.148438 L 336.152344 148.832031 L 288.28125 171.339844 Z M 279.210938 154.320312 " transform="matrix(1,0,0,1,-74,-13)"/>
<path style="fill-rule:nonzero;fill:rgb(39.99939%,39.99939%,39.99939%);fill-opacity:1;stroke-width:0.03;stroke-linecap:square;stroke-linejoin:miter;stroke:rgb(39.99939%,39.99939%,39.99939%);stroke-opacity:1;stroke-miterlimit:3.239307;" d="M 305.71875 90.023438 L 314.320312 106.496094 L 265.855469 129.207031 L 257.261719 113.023438 Z M 305.71875 90.023438 " transform="matrix(1,0,0,1,-74,-13)"/>
<path style="fill-rule:nonzero;fill:rgb(39.99939%,39.99939%,39.99939%);fill-opacity:1;stroke-width:0.03;stroke-linecap:square;stroke-linejoin:miter;stroke:rgb(39.99939%,39.99939%,39.99939%);stroke-opacity:1;stroke-miterlimit:3.239307;" d="M 372.578125 95.492188 L 365.472656 106.976562 L 328.308594 124.777344 L 319.8125 108.292969 L 367.78125 85.855469 L 369.703125 89.101562 Z M 372.578125 95.492188 " transform="matrix(1,0,0,1,-74,-13)"/>
<path style="fill-rule:nonzero;fill:rgb(39.99939%,39.99939%,39.99939%);fill-opacity:1;stroke-width:0.03;stroke-linecap:square;stroke-linejoin:miter;stroke:rgb(39.99939%,39.99939%,39.99939%);stroke-opacity:1;stroke-miterlimit:3.239307;" d="M 288.742188 177.046875 L 336.6875 154.789062 L 320.222656 181.921875 L 297.363281 193.125 Z M 288.742188 177.046875 " transform="matrix(1,0,0,1,-74,-13)"/>
<path style="fill-rule:nonzero;fill:rgb(39.99939%,39.99939%,39.99939%);fill-opacity:1;stroke-width:0.03;stroke-linecap:square;stroke-linejoin:miter;stroke:rgb(39.99939%,39.99939%,39.99939%);stroke-opacity:1;stroke-miterlimit:3.239307;" d="M 274.546875 156.585938 L 283.820312 173.4375 L 235.066406 196.425781 L 226.515625 179.917969 Z M 274.546875 156.585938 " transform="matrix(1,0,0,1,-74,-13)"/>
<path style="fill-rule:nonzero;fill:rgb(39.99939%,39.99939%,39.99939%);fill-opacity:1;stroke-width:0.03;stroke-linecap:square;stroke-linejoin:miter;stroke:rgb(39.99939%,39.99939%,39.99939%);stroke-opacity:1;stroke-miterlimit:3.239307;" d="M 252.007812 115.519531 L 260.808594 131.566406 L 213.144531 153.90625 L 204.953125 137.875 Z M 252.007812 115.519531 " transform="matrix(1,0,0,1,-74,-13)"/>
<path style="fill-rule:nonzero;fill:rgb(39.99939%,39.99939%,39.99939%);fill-opacity:1;stroke-width:0.03;stroke-linecap:square;stroke-linejoin:miter;stroke:rgb(39.99939%,39.99939%,39.99939%);stroke-opacity:1;stroke-miterlimit:3.239307;" d="M 262.898438 135.382812 L 271.984375 151.921875 L 223.992188 175.023438 L 215.175781 157.871094 Z M 262.898438 135.382812 " transform="matrix(1,0,0,1,-74,-13)"/>
<path style="fill-rule:nonzero;fill:rgb(39.99939%,39.99939%,39.99939%);fill-opacity:1;stroke-width:0.03;stroke-linecap:square;stroke-linejoin:miter;stroke:rgb(39.99939%,39.99939%,39.99939%);stroke-opacity:1;stroke-miterlimit:3.239307;" d="M 235.496094 201.839844 L 283.960938 179.269531 L 292.839844 195.34375 L 254.320312 214.046875 Z M 235.496094 201.839844 " transform="matrix(1,0,0,1,-74,-13)"/>
<path style="fill-rule:nonzero;fill:rgb(39.99939%,39.99939%,39.99939%);fill-opacity:1;stroke-width:0.03;stroke-linecap:square;stroke-linejoin:miter;stroke:rgb(39.99939%,39.99939%,39.99939%);stroke-opacity:1;stroke-miterlimit:3.239307;" d="M 294.078125 198.828125 L 300.261719 210.164062 L 285.132812 234.101562 L 257.128906 215.890625 Z M 294.078125 198.828125 " transform="matrix(1,0,0,1,-74,-13)"/>
<path style="fill-rule:nonzero;fill:rgb(39.99939%,39.99939%,39.99939%);fill-opacity:1;stroke-width:0.03;stroke-linecap:square;stroke-linejoin:miter;stroke:rgb(39.99939%,39.99939%,39.99939%);stroke-opacity:1;stroke-miterlimit:3.239307;" d="M 299.796875 196.355469 L 312.667969 189.808594 L 303.914062 204.007812 Z M 299.796875 196.355469 " transform="matrix(1,0,0,1,-74,-13)"/>
<path style="fill-rule:nonzero;fill:rgb(39.99939%,39.99939%,39.99939%);fill-opacity:1;stroke-width:0.03;stroke-linecap:square;stroke-linejoin:miter;stroke:rgb(39.99939%,39.99939%,39.99939%);stroke-opacity:1;stroke-miterlimit:3.239307;" d="M 283.410156 244.296875 L 298.835938 256.335938 L 293.8125 259.078125 L 282.214844 263.851562 L 272.265625 275.128906 L 270.652344 276.117188 L 266.523438 278.179688 L 263.796875 276.132812 L 260.101562 271.820312 Z M 283.410156 244.296875 " transform="matrix(1,0,0,1,-74,-13)"/>
<path style="fill-rule:nonzero;fill:rgb(39.99939%,39.99939%,39.99939%);fill-opacity:1;stroke-width:0.03;stroke-linecap:square;stroke-linejoin:miter;stroke:rgb(39.99939%,39.99939%,39.99939%);stroke-opacity:1;stroke-miterlimit:3.239307;" d="M 320.082031 259.761719 L 326.273438 257.1875 L 327.621094 257.070312 L 328.351562 257.183594 L 329.085938 257.644531 L 329.449219 258.21875 L 329.691406 259.027344 L 329.574219 262.175781 Z M 320.082031 259.761719 " transform="matrix(1,0,0,1,-74,-13)"/>
</g>
</svg>
