<?xml version="1.0" encoding="UTF-8"?>
<svg xmlns="http://www.w3.org/2000/svg" xmlns:xlink="http://www.w3.org/1999/xlink" width="361pt" height="361pt" viewBox="0 0 361 361" version="1.1">
<defs>
<clipPath id="clip1">
  <path d="M 191 345 L 255 345 L 255 360 L 191 360 Z M 191 345 "/>
</clipPath>
<clipPath id="clip2">
  <path d="M 126 330 L 158 330 L 158 360 L 126 360 Z M 126 330 "/>
</clipPath>
<clipPath id="clip3">
  <path d="M 178 340 L 202 340 L 202 360 L 178 360 Z M 178 340 "/>
</clipPath>
<clipPath id="clip4">
  <path d="M 162 334 L 189 334 L 189 360 L 162 360 Z M 162 334 "/>
</clipPath>
<clipPath id="clip5">
  <path d="M 147 329 L 172 329 L 172 360 L 147 360 Z M 147 329 "/>
</clipPath>
<clipPath id="clip6">
  <path d="M 345 69 L 360 69 L 360 124 L 345 124 Z M 345 69 "/>
</clipPath>
<clipPath id="clip7">
  <path d="M 346 18 L 360 18 L 360 48 L 346 48 Z M 346 18 "/>
</clipPath>
<clipPath id="clip8">
  <path d="M 327 42 L 360 42 L 360 121 L 327 121 Z M 327 42 "/>
</clipPath>
<clipPath id="clip9">
  <path d="M 352 0 L 360 0 L 360 21 L 352 21 Z M 352 0 "/>
</clipPath>
<clipPath id="clip10">
  <path d="M 229 342 L 262 342 L 262 360 L 229 360 Z M 229 342 "/>
</clipPath>
<clipPath id="clip11">
  <path d="M 293 352 L 330 352 L 330 360 L 293 360 Z M 293 352 "/>
</clipPath>
<clipPath id="clip12">
  <path d="M 327 356 L 360 356 L 360 360 L 327 360 Z M 327 356 "/>
</clipPath>
<clipPath id="clip13">
  <path d="M 260 347 L 297 347 L 297 360 L 260 360 Z M 260 347 "/>
</clipPath>
<clipPath id="clip14">
  <path d="M 336 320 L 360 320 L 360 358 L 336 358 Z M 336 320 "/>
</clipPath>
<clipPath id="clip15">
  <path d="M 345 285 L 360 285 L 360 323 L 345 323 Z M 345 285 "/>
</clipPath>
<clipPath id="clip16">
  <path d="M 355 247 L 360 247 L 360 286 L 355 286 Z M 355 247 "/>
</clipPath>
<clipPath id="clip17">
  <path d="M 331 205 L 360 205 L 360 244 L 331 244 Z M 331 205 "/>
</clipPath>
<clipPath id="clip18">
  <path d="M 341 169 L 360 169 L 360 208 L 341 208 Z M 341 169 "/>
</clipPath>
<clipPath id="clip19">
  <path d="M 350 133 L 360 133 L 360 172 L 350 172 Z M 350 133 "/>
</clipPath>
<clipPath id="clip20">
  <path d="M 15 345 L 91 345 L 91 360 L 15 360 Z M 15 345 "/>
</clipPath>
<clipPath id="clip21">
  <path d="M 0 338 L 14 338 L 14 360 L 0 360 Z M 0 338 "/>
</clipPath>
<clipPath id="clip22">
  <path d="M 0 317 L 24 317 L 24 360 L 0 360 Z M 0 317 "/>
</clipPath>
<clipPath id="clip23">
  <path d="M 33 308 L 85 308 L 85 360 L 33 360 Z M 33 308 "/>
</clipPath>
<clipPath id="clip24">
  <path d="M 48 267 L 132 267 L 132 360 L 48 360 Z M 48 267 "/>
</clipPath>
<clipPath id="clip25">
  <path d="M 89 359 L 115 359 L 115 360 L 89 360 Z M 89 359 "/>
</clipPath>
<clipPath id="clip26">
  <path d="M 143 358 L 169 358 L 169 360 L 143 360 Z M 143 358 "/>
</clipPath>
<clipPath id="clip27">
  <path d="M 203 348 L 229 348 L 229 360 L 203 360 Z M 203 348 "/>
</clipPath>
<clipPath id="clip28">
  <path d="M 297 343 L 323 343 L 323 360 L 297 360 Z M 297 343 "/>
</clipPath>
<clipPath id="clip29">
  <path d="M 198 342 L 224 342 L 224 360 L 198 360 Z M 198 342 "/>
</clipPath>
<clipPath id="clip30">
  <path d="M 346 190 L 360 190 L 360 216 L 346 216 Z M 346 190 "/>
</clipPath>
<clipPath id="clip31">
  <path d="M 148 352 L 174 352 L 174 360 L 148 360 Z M 148 352 "/>
</clipPath>
<clipPath id="clip32">
  <path d="M 19 354 L 45 354 L 45 360 L 19 360 Z M 19 354 "/>
</clipPath>
<clipPath id="clip33">
  <path d="M 341 245 L 360 245 L 360 291 L 341 291 Z M 341 245 "/>
</clipPath>
<clipPath id="clip34">
  <path d="M 339 244 L 360 244 L 360 293 L 339 293 Z M 339 244 "/>
</clipPath>
<clipPath id="clip35">
  <path d="M 332 0 L 360 0 L 360 30 L 332 30 Z M 332 0 "/>
</clipPath>
<clipPath id="clip36">
  <path d="M 330 0 L 360 0 L 360 31 L 330 31 Z M 330 0 "/>
</clipPath>
</defs>
<g id="surface161">
<path style="fill-rule:nonzero;fill:rgb(0%,0%,0%);fill-opacity:1;stroke-width:0.03;stroke-linecap:square;stroke-linejoin:miter;stroke:rgb(0%,0%,0%);stroke-opacity:1;stroke-miterlimit:10;" d="M 0 178 L 360 178 L 360 -182 L 0 -182 Z M 0 178 " transform="matrix(1,0,0,1,0,182)"/>
<path style=" stroke:none;fill-rule:nonzero;fill:rgb(39.99939%,39.99939%,39.99939%);fill-opacity:0.3;" d="M 291.707031 2.59375 L 291.664062 2.585938 L 292.234375 0.292969 L 291.871094 1.953125 Z M 291.707031 2.59375 "/>
<path style=" stroke:none;fill-rule:nonzero;fill:rgb(39.99939%,39.99939%,39.99939%);fill-opacity:0.3;" d="M 290.519531 5.304688 L 290.988281 5.402344 L 288.808594 13.945312 Z M 290.519531 5.304688 "/>
<path style=" stroke:none;fill-rule:nonzero;fill:rgb(39.99939%,39.99939%,39.99939%);fill-opacity:0.3;" d="M 287.640625 16.910156 L 288.007812 16.976562 L 285.203125 26.664062 L 285.1875 26.660156 Z M 287.640625 16.910156 "/>
<path style=" stroke:none;fill-rule:nonzero;fill:rgb(39.99939%,39.99939%,39.99939%);fill-opacity:0.3;" d="M 226.59375 -5.84375 L 252.683594 -0.636719 L 252.8125 0.101562 L 252.960938 0.8125 L 253.21875 1.503906 L 253.5625 2.011719 L 253.96875 2.582031 L 242.5 37.765625 L 242.09375 38.351562 L 241.773438 38.539062 L 241.429688 38.585938 L 241.078125 38.582031 L 240.574219 38.515625 L 240.148438 38.433594 L 239.640625 38.332031 L 223.863281 34.269531 Z M 226.59375 -5.84375 "/>
<path style=" stroke:none;fill-rule:nonzero;fill:rgb(39.99939%,39.99939%,39.99939%);fill-opacity:0.3;" d="M 267.992188 45.21875 L 250.128906 41.054688 L 249.574219 40.878906 L 249.167969 40.605469 L 248.820312 40.328125 L 248.617188 40.085938 L 248.46875 39.78125 L 248.429688 39.503906 L 248.375 39.183594 L 260.292969 2.964844 L 261.011719 2.859375 L 261.707031 2.644531 L 262.359375 2.332031 L 262.953125 1.925781 L 263.46875 1.4375 L 263.75 1.09375 L 277.519531 3.203125 Z M 267.992188 45.21875 "/>
<path style=" stroke:none;fill-rule:nonzero;fill:rgb(39.99939%,39.99939%,39.99939%);fill-opacity:0.3;" d="M 238.890625 42.425781 L 239.101562 42.542969 L 239.324219 42.742188 L 239.460938 42.941406 L 239.546875 43.160156 L 239.585938 43.445312 L 239.507812 43.847656 L 232.101562 71.097656 L 230.234375 73.738281 L 220.960938 68.652344 L 223.46875 39.039062 L 238.472656 42.328125 Z M 238.890625 42.425781 "/>
<path style=" stroke:none;fill-rule:nonzero;fill:rgb(39.99939%,39.99939%,39.99939%);fill-opacity:0.3;" d="M 260.953125 47.53125 L 267.382812 48.910156 L 257.890625 89.273438 L 249.933594 84.472656 L 251.054688 82.257812 L 253.402344 80.457031 Z M 260.953125 47.53125 "/>
<path style=" stroke:none;fill-rule:nonzero;fill:rgb(39.99939%,39.99939%,39.99939%);fill-opacity:0.3;" d="M 249.945312 44.988281 L 260.101562 47.328125 L 252.546875 79.851562 L 250.464844 81.90625 L 249.191406 84.136719 L 234.515625 75.988281 L 236.996094 72.273438 L 245.128906 47.613281 L 245.242188 47.375 L 245.351562 47.175781 L 245.472656 46.980469 L 245.601562 46.792969 L 245.742188 46.613281 L 245.894531 46.4375 L 246.054688 46.269531 L 246.222656 46.113281 L 246.402344 45.960938 L 246.589844 45.820312 L 246.78125 45.691406 L 246.980469 45.570312 L 247.1875 45.457031 L 247.402344 45.355469 L 247.617188 45.265625 L 247.839844 45.1875 L 248.066406 45.117188 L 248.296875 45.0625 L 248.527344 45.015625 L 248.765625 44.980469 L 249 44.960938 L 249.238281 44.949219 L 249.472656 44.949219 L 249.710938 44.964844 Z M 249.945312 44.988281 "/>
<g clip-path="url(#clip1)" clip-rule="nonzero">
<path style=" stroke:none;fill-rule:nonzero;fill:rgb(39.99939%,39.99939%,39.99939%);fill-opacity:0.3;" d="M 254.589844 365.664062 L 245.484375 394.082031 L 243.6875 395.179688 L 242.015625 396.15625 L 240.34375 396.523438 L 191.316406 382.667969 L 203.371094 345.222656 Z M 254.589844 365.664062 "/>
</g>
<g clip-path="url(#clip2)" clip-rule="nonzero">
<path style=" stroke:none;fill-rule:nonzero;fill:rgb(39.99939%,39.99939%,39.99939%);fill-opacity:0.3;" d="M 126.515625 363.054688 L 145.097656 335.566406 L 149.117188 332.277344 L 152.972656 330.785156 L 155.929688 330.730469 L 157.449219 331.222656 L 145.695312 368.203125 Z M 126.515625 363.054688 "/>
</g>
<g clip-path="url(#clip3)" clip-rule="nonzero">
<path style=" stroke:none;fill-rule:nonzero;fill:rgb(39.99939%,39.99939%,39.99939%);fill-opacity:0.3;" d="M 191.007812 340.339844 L 201.917969 344.5 L 190.378906 382.1875 L 178.460938 379.15625 Z M 191.007812 340.339844 "/>
</g>
<g clip-path="url(#clip4)" clip-rule="nonzero">
<path style=" stroke:none;fill-rule:nonzero;fill:rgb(39.99939%,39.99939%,39.99939%);fill-opacity:0.3;" d="M 188.421875 339.40625 L 176.460938 378.628906 L 162.421875 374.816406 L 174.398438 334.730469 L 187.035156 338.945312 Z M 188.421875 339.40625 "/>
</g>
<g clip-path="url(#clip5)" clip-rule="nonzero">
<path style=" stroke:none;fill-rule:nonzero;fill:rgb(39.99939%,39.99939%,39.99939%);fill-opacity:0.3;" d="M 171.472656 333.714844 L 159.722656 372.496094 L 147.085938 368.691406 L 159.503906 329.226562 Z M 171.472656 333.714844 "/>
</g>
<path style=" stroke:none;fill-rule:nonzero;fill:rgb(39.99939%,39.99939%,39.99939%);fill-opacity:0.3;" d="M 295.507812 -12.847656 L 308.394531 -10.453125 L 305.503906 5.511719 L 291.707031 2.59375 L 291.871094 1.953125 L 292.234375 0.292969 Z M 295.507812 -12.847656 "/>
<path style=" stroke:none;fill-rule:nonzero;fill:rgb(39.99939%,39.99939%,39.99939%);fill-opacity:0.3;" d="M 317.988281 -36.132812 L 357.871094 -29.921875 L 348.429688 14.921875 L 309.085938 6.933594 Z M 317.988281 -36.132812 "/>
<g clip-path="url(#clip6)" clip-rule="nonzero">
<path style=" stroke:none;fill-rule:nonzero;fill:rgb(39.99939%,39.99939%,39.99939%);fill-opacity:0.3;" d="M 356.015625 69.953125 L 374.023438 74.410156 L 360.570312 120.890625 L 360.226562 122.195312 L 359.769531 123.101562 L 359.035156 123.523438 L 345.429688 120.449219 Z M 356.015625 69.953125 "/>
</g>
<g clip-path="url(#clip7)" clip-rule="nonzero">
<path style=" stroke:none;fill-rule:nonzero;fill:rgb(39.99939%,39.99939%,39.99939%);fill-opacity:0.3;" d="M 351.914062 18.195312 L 386.160156 24.683594 L 381.316406 47.902344 L 346.828125 39.609375 Z M 351.914062 18.195312 "/>
</g>
<path style=" stroke:none;fill-rule:nonzero;fill:rgb(39.99939%,39.99939%,39.99939%);fill-opacity:0.3;" d="M 290.988281 5.402344 L 304.953125 8.332031 L 303.277344 18.277344 L 288.539062 15.296875 L 288.808594 13.945312 Z M 290.988281 5.402344 "/>
<path style=" stroke:none;fill-rule:nonzero;fill:rgb(39.99939%,39.99939%,39.99939%);fill-opacity:0.3;" d="M 288.007812 16.976562 L 303.09375 19.769531 L 301.21875 29.480469 L 285.203125 26.664062 Z M 288.007812 16.976562 "/>
<path style=" stroke:none;fill-rule:nonzero;fill:rgb(39.99939%,39.99939%,39.99939%);fill-opacity:0.3;" d="M 284.921875 28.160156 L 301.226562 31.078125 L 299.554688 41.132812 L 283.15625 38.042969 Z M 284.921875 28.160156 "/>
<path style=" stroke:none;fill-rule:nonzero;fill:rgb(39.99939%,39.99939%,39.99939%);fill-opacity:0.3;" d="M 282.113281 39.328125 L 298.9375 42.363281 L 296.574219 52.644531 L 280.304688 49.199219 Z M 282.113281 39.328125 "/>
<path style=" stroke:none;fill-rule:nonzero;fill:rgb(39.99939%,39.99939%,39.99939%);fill-opacity:0.3;" d="M 279.921875 51.171875 L 295.023438 54.765625 L 293.398438 69.902344 L 277.253906 66.875 Z M 279.921875 51.171875 "/>
<path style=" stroke:none;fill-rule:nonzero;fill:rgb(39.99939%,39.99939%,39.99939%);fill-opacity:0.3;" d="M 277.472656 69.636719 L 293.785156 73.429688 L 288.207031 105.125 L 272.394531 96.058594 Z M 277.472656 69.636719 "/>
<path style=" stroke:none;fill-rule:nonzero;fill:rgb(39.99939%,39.99939%,39.99939%);fill-opacity:0.3;" d="M 304.523438 31.359375 L 340.75 40.226562 L 336.015625 63.09375 L 299.691406 53.886719 Z M 304.523438 31.359375 "/>
<path style=" stroke:none;fill-rule:nonzero;fill:rgb(39.99939%,39.99939%,39.99939%);fill-opacity:0.3;" d="M 308.699219 9.722656 L 346.566406 16.953125 L 341.632812 37.84375 L 304.804688 28.898438 Z M 308.699219 9.722656 "/>
<g clip-path="url(#clip8)" clip-rule="nonzero">
<path style=" stroke:none;fill-rule:nonzero;fill:rgb(39.99939%,39.99939%,39.99939%);fill-opacity:0.3;" d="M 346.296875 42.054688 L 380.609375 50.320312 L 374.519531 72.882812 L 346.726562 66.269531 L 346.273438 67.972656 L 354.832031 69.9375 L 352.019531 82.96875 L 343.613281 81.203125 L 343.457031 81.917969 L 343.296875 82.628906 L 351.703125 84.355469 L 350.519531 89.871094 L 341.972656 88.277344 L 341.769531 88.972656 L 341.5625 89.664062 L 350.246094 91.257812 L 348.875 97.691406 L 340.425781 96.097656 L 340.058594 97.441406 L 348.558594 99.035156 L 347.332031 105.140625 L 339.289062 103.328125 L 339.109375 104.066406 L 338.925781 104.800781 L 346.921875 106.570312 L 345.828125 112.304688 L 337.695312 110.625 L 337.558594 111.398438 L 337.4375 112.117188 L 345.492188 113.730469 L 343.917969 120.214844 L 327.878906 116.609375 Z M 346.296875 42.054688 "/>
</g>
<path style=" stroke:none;fill-rule:nonzero;fill:rgb(39.99939%,39.99939%,39.99939%);fill-opacity:0.3;" d="M 299.222656 56.375 L 335.445312 65.660156 L 323.5625 115.671875 L 293.136719 108.976562 L 289.8125 107.53125 L 294.148438 82.503906 L 309.207031 84.730469 L 309.644531 83.28125 L 309.953125 82.253906 L 294.890625 79.792969 Z M 299.222656 56.375 "/>
<g clip-path="url(#clip9)" clip-rule="nonzero">
<path style=" stroke:none;fill-rule:nonzero;fill:rgb(39.99939%,39.99939%,39.99939%);fill-opacity:0.3;" d="M 362.925781 -29.742188 L 394.8125 -24.457031 L 386.324219 20.824219 L 352.582031 15.050781 L 356.863281 -4.578125 L 370.152344 -2.617188 L 370.34375 -3.914062 L 370.539062 -5.207031 L 357.773438 -7.050781 Z M 362.925781 -29.742188 "/>
</g>
<path style=" stroke:none;fill-rule:nonzero;fill:rgb(39.99939%,39.99939%,39.99939%);fill-opacity:0.3;" d="M 254.566406 125.769531 L 265.9375 104.234375 L 280.128906 113.222656 L 267.472656 131.5 L 217.152344 203.515625 L 214.464844 202.324219 L 219.441406 191.523438 L 223.195312 184.578125 L 228.84375 172.226562 Z M 254.566406 125.769531 "/>
<g clip-path="url(#clip10)" clip-rule="nonzero">
<path style=" stroke:none;fill-rule:nonzero;fill:rgb(39.99939%,39.99939%,39.99939%);fill-opacity:0.3;" d="M 261.347656 346.667969 L 257.613281 361.15625 L 229.320312 351.15625 L 231.515625 342.449219 Z M 261.347656 346.667969 "/>
</g>
<g clip-path="url(#clip11)" clip-rule="nonzero">
<path style=" stroke:none;fill-rule:nonzero;fill:rgb(39.99939%,39.99939%,39.99939%);fill-opacity:0.3;" d="M 299.40625 352.28125 L 329.820312 356.542969 L 323.230469 381.476562 L 293.769531 372.796875 Z M 299.40625 352.28125 "/>
</g>
<path style=" stroke:none;fill-rule:nonzero;fill:rgb(39.99939%,39.99939%,39.99939%);fill-opacity:0.3;" d="M 194.519531 285.863281 L 175.613281 325.714844 L 156.515625 317.226562 L 177.664062 282.09375 Z M 194.519531 285.863281 "/>
<path style=" stroke:none;fill-rule:nonzero;fill:rgb(39.99939%,39.99939%,39.99939%);fill-opacity:0.3;" d="M 174.601562 334.054688 L 188.488281 339.1875 L 188.421875 339.40625 L 187.035156 338.945312 L 174.398438 334.730469 Z M 174.601562 334.054688 "/>
<path style=" stroke:none;fill-rule:nonzero;fill:rgb(39.99939%,39.99939%,39.99939%);fill-opacity:0.3;" d="M 159.726562 328.523438 L 171.726562 332.875 L 171.472656 333.714844 L 159.503906 329.226562 Z M 159.726562 328.523438 "/>
<path style=" stroke:none;fill-rule:nonzero;fill:rgb(39.99939%,39.99939%,39.99939%);fill-opacity:0.3;" d="M 222.277344 337.121094 L 213.019531 336.859375 L 199.625 335.925781 L 188.796875 332.15625 L 176.683594 327.035156 L 185.636719 309.070312 L 196.15625 286.507812 L 239.613281 296.460938 L 228.683594 334.550781 L 227.261719 336.847656 Z M 222.277344 337.121094 "/>
<path style=" stroke:none;fill-rule:nonzero;fill:rgb(39.99939%,39.99939%,39.99939%);fill-opacity:0.3;" d="M 241.140625 292.84375 L 178.996094 278.722656 L 194.664062 248.667969 L 248.988281 261.222656 Z M 241.140625 292.84375 "/>
<path style=" stroke:none;fill-rule:nonzero;fill:rgb(39.99939%,39.99939%,39.99939%);fill-opacity:0.3;" d="M 259.019531 224.398438 L 250.257812 256.425781 L 229.25 251.945312 L 198.34375 244.425781 L 216.21875 214.582031 Z M 259.019531 224.398438 "/>
<path style=" stroke:none;fill-rule:nonzero;fill:rgb(39.99939%,39.99939%,39.99939%);fill-opacity:0.3;" d="M 268.550781 188.882812 L 259.820312 220.796875 L 219.632812 211.542969 L 238.519531 181.074219 Z M 268.550781 188.882812 "/>
<g clip-path="url(#clip12)" clip-rule="nonzero">
<path style=" stroke:none;fill-rule:nonzero;fill:rgb(39.99939%,39.99939%,39.99939%);fill-opacity:0.3;" d="M 334.515625 356.476562 L 365.496094 360.875 L 357.335938 392.316406 L 327.894531 381.152344 Z M 334.515625 356.476562 "/>
</g>
<path style=" stroke:none;fill-rule:nonzero;fill:rgb(39.99939%,39.99939%,39.99939%);fill-opacity:0.3;" d="M 276.425781 305.730469 L 306.179688 312.488281 L 296.988281 347.929688 L 266.125 343.285156 Z M 276.425781 305.730469 "/>
<g clip-path="url(#clip13)" clip-rule="nonzero">
<path style=" stroke:none;fill-rule:nonzero;fill:rgb(39.99939%,39.99939%,39.99939%);fill-opacity:0.3;" d="M 265.050781 347.25 L 296.1875 351.640625 L 290.519531 371.042969 L 260.640625 362.980469 Z M 265.050781 347.25 "/>
</g>
<path style=" stroke:none;fill-rule:nonzero;fill:rgb(39.99939%,39.99939%,39.99939%);fill-opacity:0.3;" d="M 243.011719 297.917969 L 272.128906 304.675781 L 261.511719 342.988281 L 231.441406 338.792969 Z M 243.011719 297.917969 "/>
<path style=" stroke:none;fill-rule:nonzero;fill:rgb(39.99939%,39.99939%,39.99939%);fill-opacity:0.3;" d="M 252.878906 261.769531 L 283.0625 268.636719 L 274.734375 300.171875 L 244.5 293.457031 Z M 252.878906 261.769531 "/>
<path style=" stroke:none;fill-rule:nonzero;fill:rgb(39.99939%,39.99939%,39.99939%);fill-opacity:0.3;" d="M 263.222656 225.339844 L 292.191406 231.898438 L 283.667969 265.558594 L 254.464844 258.972656 Z M 263.222656 225.339844 "/>
<path style=" stroke:none;fill-rule:nonzero;fill:rgb(39.99939%,39.99939%,39.99939%);fill-opacity:0.3;" d="M 272.359375 192.070312 L 274.089844 190.972656 L 276.039062 190.550781 L 278.550781 190.460938 L 294.5625 193.796875 L 297.382812 194.558594 L 299.113281 195.542969 L 300.265625 196.523438 L 300.617188 198.730469 L 292.289062 227.984375 L 264.226562 221.496094 Z M 272.359375 192.070312 "/>
<path style=" stroke:none;fill-rule:nonzero;fill:rgb(39.99939%,39.99939%,39.99939%);fill-opacity:0.3;" d="M 281.804688 156.71875 L 283.851562 155.449219 L 285.28125 154.941406 L 287.0625 154.9375 L 311.347656 160.667969 L 303.332031 189.832031 L 302.53125 191.355469 L 301.371094 192.203125 L 300.035156 192.289062 L 298.339844 192.207031 L 274 187.117188 Z M 281.804688 156.71875 "/>
<path style=" stroke:none;fill-rule:nonzero;fill:rgb(39.99939%,39.99939%,39.99939%);fill-opacity:0.3;" d="M 292.578125 118.359375 L 321.550781 125.089844 L 312.625 156.363281 L 284.019531 150.324219 Z M 292.578125 118.359375 "/>
<path style=" stroke:none;fill-rule:nonzero;fill:rgb(39.99939%,39.99939%,39.99939%);fill-opacity:0.3;" d="M 263.25 145.347656 L 265.53125 141.621094 L 276.386719 125.417969 L 280.675781 118.238281 L 281.953125 117.234375 L 283.085938 116.820312 L 284.242188 116.398438 L 286.089844 116.441406 L 287.984375 116.773438 L 288.730469 117.8125 L 279.519531 149.316406 Z M 263.25 145.347656 "/>
<path style=" stroke:none;fill-rule:nonzero;fill:rgb(39.99939%,39.99939%,39.99939%);fill-opacity:0.3;" d="M 240.460938 179.34375 L 261.171875 148.667969 L 278.90625 153.070312 L 270.800781 180.617188 L 270.164062 183.300781 L 268.703125 185.035156 L 265.960938 185.296875 Z M 240.460938 179.34375 "/>
<g clip-path="url(#clip14)" clip-rule="nonzero">
<path style=" stroke:none;fill-rule:nonzero;fill:rgb(39.99939%,39.99939%,39.99939%);fill-opacity:0.3;" d="M 344.574219 320.902344 L 372.664062 327.183594 L 366.519531 357.121094 L 336.015625 353.027344 Z M 344.574219 320.902344 "/>
</g>
<path style=" stroke:none;fill-rule:nonzero;fill:rgb(39.99939%,39.99939%,39.99939%);fill-opacity:0.3;" d="M 310.84375 313.242188 L 340.4375 319.851562 L 331.5625 352.429688 L 301.171875 348.234375 Z M 310.84375 313.242188 "/>
<g clip-path="url(#clip15)" clip-rule="nonzero">
<path style=" stroke:none;fill-rule:nonzero;fill:rgb(39.99939%,39.99939%,39.99939%);fill-opacity:0.3;" d="M 354.472656 285.082031 L 381.179688 291.136719 L 373.195312 322.523438 L 345.617188 316.21875 Z M 354.472656 285.082031 "/>
</g>
<path style=" stroke:none;fill-rule:nonzero;fill:rgb(39.99939%,39.99939%,39.99939%);fill-opacity:0.3;" d="M 320.867188 277.445312 L 349.878906 284.019531 L 341.324219 315.320312 L 311.730469 308.660156 Z M 320.867188 277.445312 "/>
<g clip-path="url(#clip16)" clip-rule="nonzero">
<path style=" stroke:none;fill-rule:nonzero;fill:rgb(39.99939%,39.99939%,39.99939%);fill-opacity:0.3;" d="M 364.484375 247.976562 L 390.207031 253.828125 L 381.019531 285.699219 L 355.4375 280.332031 Z M 364.484375 247.976562 "/>
</g>
<path style=" stroke:none;fill-rule:nonzero;fill:rgb(39.99939%,39.99939%,39.99939%);fill-opacity:0.3;" d="M 330.5 240.003906 L 358.957031 246.503906 L 350.390625 280.171875 L 321.609375 273.621094 Z M 330.5 240.003906 "/>
<g clip-path="url(#clip17)" clip-rule="nonzero">
<path style=" stroke:none;fill-rule:nonzero;fill:rgb(39.99939%,39.99939%,39.99939%);fill-opacity:0.3;" d="M 340.320312 205.871094 L 368.511719 212.007812 L 359.777344 243.4375 L 331.535156 237 Z M 340.320312 205.871094 "/>
</g>
<g clip-path="url(#clip18)" clip-rule="nonzero">
<path style=" stroke:none;fill-rule:nonzero;fill:rgb(39.99939%,39.99939%,39.99939%);fill-opacity:0.3;" d="M 349.53125 169.839844 L 379.117188 176.402344 L 370.636719 207.683594 L 341.929688 201.296875 Z M 349.53125 169.839844 "/>
</g>
<g clip-path="url(#clip19)" clip-rule="nonzero">
<path style=" stroke:none;fill-rule:nonzero;fill:rgb(39.99939%,39.99939%,39.99939%);fill-opacity:0.3;" d="M 359.320312 133.503906 L 366.722656 135.054688 L 371.75 136.523438 L 378.058594 138.855469 L 382.171875 140.5 L 386.101562 142.398438 L 388.203125 143.523438 L 380.464844 171.9375 L 350.671875 165.554688 Z M 359.320312 133.503906 "/>
</g>
<path style=" stroke:none;fill-rule:nonzero;fill:rgb(39.99939%,39.99939%,39.99939%);fill-opacity:0.3;" d="M 326.058594 126.472656 L 355.03125 132.511719 L 346.300781 163.789062 L 317.875 157.234375 Z M 326.058594 126.472656 "/>
<path style=" stroke:none;fill-rule:nonzero;fill:rgb(39.99939%,39.99939%,39.99939%);fill-opacity:0.3;" d="M 315.917969 164.054688 L 317.253906 163.292969 L 318.949219 162.613281 L 320.910156 162.527344 L 322.605469 162.867188 L 345 168.253906 L 336.359375 199.703125 L 310.75 194.03125 L 309.574219 193.433594 L 308.902344 192.546875 L 308.542969 191.449219 L 308.808594 189.925781 Z M 315.917969 164.054688 "/>
<path style=" stroke:none;fill-rule:nonzero;fill:rgb(39.99939%,39.99939%,39.99939%);fill-opacity:0.3;" d="M 305.25 200.195312 L 306.234375 199.042969 L 307.316406 198.496094 L 309.105469 198.433594 L 312.105469 198.917969 L 334.546875 204.753906 L 325.632812 235.796875 L 297.460938 229.382812 Z M 305.25 200.195312 "/>
<path style=" stroke:none;fill-rule:nonzero;fill:rgb(39.99939%,39.99939%,39.99939%);fill-opacity:0.3;" d="M 296.578125 233 L 324.96875 239.460938 L 315.496094 272.933594 L 287.089844 266.535156 Z M 296.578125 233 "/>
<path style=" stroke:none;fill-rule:nonzero;fill:rgb(39.99939%,39.99939%,39.99939%);fill-opacity:0.3;" d="M 286.835938 269.425781 L 315.605469 276.042969 L 306.667969 307.398438 L 277.976562 300.863281 Z M 286.835938 269.425781 "/>
<path style=" stroke:none;fill-rule:nonzero;fill:rgb(39.99939%,39.99939%,39.99939%);fill-opacity:0.3;" d="M 293.136719 108.976562 L 289.695312 108.21875 L 289.8125 107.53125 Z M 293.136719 108.976562 "/>
<path style=" stroke:none;fill-rule:nonzero;fill:rgb(39.99939%,39.99939%,39.99939%);fill-opacity:0.3;" d="M 219.441406 191.523438 L 225.792969 177.734375 L 228.84375 172.226562 L 223.195312 184.578125 Z M 219.441406 191.523438 "/>
<path style=" stroke:none;fill-rule:nonzero;fill:rgb(39.99939%,39.99939%,39.99939%);fill-opacity:0.3;" d="M 140.011719 157.726562 L 160.425781 168.921875 L 153.074219 180.851562 L 143.167969 196.921875 L 122.695312 185.8125 L 132.550781 169.828125 Z M 140.011719 157.726562 "/>
<path style=" stroke:none;fill-rule:nonzero;fill:rgb(39.99939%,39.99939%,39.99939%);fill-opacity:0.3;" d="M 142.097656 114.386719 L 141.667969 114.039062 L 142.0625 113.472656 L 151.972656 102.683594 Z M 142.097656 114.386719 "/>
<path style=" stroke:none;fill-rule:nonzero;fill:rgb(39.99939%,39.99939%,39.99939%);fill-opacity:0.3;" d="M 141.445312 115.34375 L 131.3125 129 L 141.011719 114.984375 Z M 141.445312 115.34375 "/>
<path style=" stroke:none;fill-rule:nonzero;fill:rgb(39.99939%,39.99939%,39.99939%);fill-opacity:0.3;" d="M 130.882812 129.574219 L 130.816406 129.667969 L 130.503906 130.0625 Z M 130.882812 129.574219 "/>
<path style=" stroke:none;fill-rule:nonzero;fill:rgb(39.99939%,39.99939%,39.99939%);fill-opacity:0.3;" d="M 119.457031 143.902344 L 115.824219 147.863281 L 102.160156 146.710938 L 102.339844 145.484375 L 116.535156 146.289062 Z M 119.457031 143.902344 "/>
<path style=" stroke:none;fill-rule:nonzero;fill:rgb(39.99939%,39.99939%,39.99939%);fill-opacity:0.3;" d="M 100.460938 145.378906 L 100.304688 146.507812 L 100.21875 146.496094 L 100.429688 145.378906 Z M 100.460938 145.378906 "/>
<path style=" stroke:none;fill-rule:nonzero;fill:rgb(39.99939%,39.99939%,39.99939%);fill-opacity:0.3;" d="M 100.066406 148.023438 L 96.953125 169.851562 L 96.480469 167.863281 L 98.304688 156.621094 L 99.933594 148.003906 Z M 100.066406 148.023438 "/>
<path style=" stroke:none;fill-rule:nonzero;fill:rgb(39.99939%,39.99939%,39.99939%);fill-opacity:0.3;" d="M 96.046875 176.757812 L 95.617188 180.515625 L 94.683594 181.984375 L 95.875 176.980469 Z M 96.046875 176.757812 "/>
<path style=" stroke:none;fill-rule:nonzero;fill:rgb(39.99939%,39.99939%,39.99939%);fill-opacity:0.3;" d="M 90.136719 189.117188 L 80.9375 203.566406 L 79.640625 203.453125 Z M 90.136719 189.117188 "/>
<path style=" stroke:none;fill-rule:nonzero;fill:rgb(39.99939%,39.99939%,39.99939%);fill-opacity:0.3;" d="M 67.875 200.902344 L 60.21875 199.851562 L 60.28125 199.4375 Z M 67.875 200.902344 "/>
<path style=" stroke:none;fill-rule:nonzero;fill:rgb(39.99939%,39.99939%,39.99939%);fill-opacity:0.3;" d="M 74.738281 202.296875 L 74.1875 202.121094 L 74.601562 202.203125 Z M 74.738281 202.296875 "/>
<path style=" stroke:none;fill-rule:nonzero;fill:rgb(39.99939%,39.99939%,39.99939%);fill-opacity:0.3;" d="M 57.683594 198.9375 L 57.582031 199.574219 L 57.199219 199.53125 L 57.28125 198.859375 Z M 57.683594 198.9375 "/>
<path style=" stroke:none;fill-rule:nonzero;fill:rgb(39.99939%,39.99939%,39.99939%);fill-opacity:0.3;" d="M 183.949219 181.585938 L 203.421875 192.296875 L 204.480469 195.769531 L 190.601562 223.007812 L 166.539062 210.371094 Z M 183.949219 181.585938 "/>
<path style=" stroke:none;fill-rule:nonzero;fill:rgb(39.99939%,39.99939%,39.99939%);fill-opacity:0.3;" d="M 162.054688 169.886719 L 181.859375 181.023438 L 165.132812 208.828125 L 144.792969 197.761719 Z M 162.054688 169.886719 "/>
<path style=" stroke:none;fill-rule:nonzero;fill:rgb(39.99939%,39.99939%,39.99939%);fill-opacity:0.3;" d="M 56.96875 201.347656 L 57.28125 201.386719 L 55.40625 213.851562 Z M 56.96875 201.347656 "/>
<path style=" stroke:none;fill-rule:nonzero;fill:rgb(39.99939%,39.99939%,39.99939%);fill-opacity:0.3;" d="M 54.535156 237.136719 L 58.679688 237.867188 L 80.582031 250.34375 L 68.710938 270.085938 L 51.429688 258.34375 Z M 54.535156 237.136719 "/>
<path style=" stroke:none;fill-rule:nonzero;fill:rgb(39.99939%,39.99939%,39.99939%);fill-opacity:0.3;" d="M 102.394531 262.554688 L 88.496094 282.179688 L 69.722656 270.792969 L 81.648438 250.871094 Z M 102.394531 262.554688 "/>
<path style=" stroke:none;fill-rule:nonzero;fill:rgb(39.99939%,39.99939%,39.99939%);fill-opacity:0.3;" d="M 103.628906 263.164062 L 152.671875 290.308594 L 140.59375 308.570312 L 130.933594 307.546875 L 104.789062 291.9375 L 99.519531 287.894531 L 94.546875 285.820312 L 89.921875 283.058594 Z M 103.628906 263.164062 "/>
<path style=" stroke:none;fill-rule:nonzero;fill:rgb(39.99939%,39.99939%,39.99939%);fill-opacity:0.3;" d="M 59.601562 236.160156 L 54.945312 235.125 L 59.960938 201.78125 L 71.8125 203.214844 L 77.519531 205.125 L 79 207 Z M 59.601562 236.160156 "/>
<path style=" stroke:none;fill-rule:nonzero;fill:rgb(39.99939%,39.99939%,39.99939%);fill-opacity:0.3;" d="M 144.039062 244.09375 L 172.554688 259.480469 L 154.464844 287.453125 L 125.703125 272.582031 Z M 144.039062 244.09375 "/>
<path style=" stroke:none;fill-rule:nonzero;fill:rgb(39.99939%,39.99939%,39.99939%);fill-opacity:0.3;" d="M 122.933594 232.496094 L 142.113281 243.789062 L 124.101562 271.816406 L 104.332031 261.164062 Z M 122.933594 232.496094 "/>
<path style=" stroke:none;fill-rule:nonzero;fill:rgb(39.99939%,39.99939%,39.99939%);fill-opacity:0.3;" d="M 100.605469 220.152344 L 121.457031 231.710938 L 102.550781 260.253906 L 82.550781 249.332031 Z M 100.605469 220.152344 "/>
<path style=" stroke:none;fill-rule:nonzero;fill:rgb(39.99939%,39.99939%,39.99939%);fill-opacity:0.3;" d="M 79.914062 207.691406 L 99.453125 219.585938 L 81.613281 248.679688 L 60.730469 236.964844 Z M 79.914062 207.691406 "/>
<path style=" stroke:none;fill-rule:nonzero;fill:rgb(39.99939%,39.99939%,39.99939%);fill-opacity:0.3;" d="M 119.328125 187.515625 L 101.042969 216.980469 L 81.496094 205.757812 L 100.394531 176.886719 Z M 119.328125 187.515625 "/>
<path style=" stroke:none;fill-rule:nonzero;fill:rgb(39.99939%,39.99939%,39.99939%);fill-opacity:0.3;" d="M 164.867188 213.109375 L 189.210938 226.21875 L 175.4375 255.53125 L 169.996094 255.472656 L 145.695312 242.304688 Z M 164.867188 213.109375 "/>
<path style=" stroke:none;fill-rule:nonzero;fill:rgb(39.99939%,39.99939%,39.99939%);fill-opacity:0.3;" d="M 142.960938 200.804688 L 162.941406 212.183594 L 144.03125 240.964844 L 124.484375 229.96875 Z M 142.960938 200.804688 "/>
<path style=" stroke:none;fill-rule:nonzero;fill:rgb(39.99939%,39.99939%,39.99939%);fill-opacity:0.3;" d="M 174.792969 101.460938 L 160.796875 122.535156 L 157.425781 123.4375 L 143.589844 115.214844 L 162.234375 94.570312 Z M 174.792969 101.460938 "/>
<path style=" stroke:none;fill-rule:nonzero;fill:rgb(39.99939%,39.99939%,39.99939%);fill-opacity:0.3;" d="M 221.792969 120.714844 L 224.675781 120.023438 L 236.394531 126.511719 L 237.277344 129.617188 L 224.515625 155.238281 L 220.144531 155.871094 L 206.320312 148.28125 L 206.773438 145.070312 Z M 221.792969 120.714844 "/>
<path style=" stroke:none;fill-rule:nonzero;fill:rgb(39.99939%,39.99939%,39.99939%);fill-opacity:0.3;" d="M 180.421875 95.164062 L 197.300781 104.96875 L 198.003906 108.492188 L 182.917969 133.914062 L 179.34375 134.992188 L 162.90625 126.195312 L 162.667969 123.523438 L 176.425781 101.59375 Z M 180.421875 95.164062 "/>
<path style=" stroke:none;fill-rule:nonzero;fill:rgb(39.99939%,39.99939%,39.99939%);fill-opacity:0.3;" d="M 200.347656 109.101562 L 203.882812 108.4375 L 219.53125 117.308594 L 219.753906 119.949219 L 204.566406 144.46875 L 201.234375 145.476562 L 185.515625 136.894531 L 184.515625 134.867188 Z M 200.347656 109.101562 "/>
<path style=" stroke:none;fill-rule:nonzero;fill:rgb(39.99939%,39.99939%,39.99939%);fill-opacity:0.3;" d="M 180.367188 140.472656 L 183.960938 139.105469 L 199.832031 148.734375 L 200 151.457031 L 182.980469 179.296875 L 163.121094 168.125 Z M 180.367188 140.472656 "/>
<path style=" stroke:none;fill-rule:nonzero;fill:rgb(39.99939%,39.99939%,39.99939%);fill-opacity:0.3;" d="M 202.054688 152.273438 L 204.960938 150.878906 L 219.324219 158.722656 L 220.292969 161.433594 L 207.433594 188.742188 L 204.121094 189.726562 L 185.226562 179.632812 Z M 202.054688 152.273438 "/>
<path style=" stroke:none;fill-rule:nonzero;fill:rgb(39.99939%,39.99939%,39.99939%);fill-opacity:0.3;" d="M 158.777344 128.9375 L 162.230469 127.378906 L 178.722656 136.179688 L 178.570312 139.777344 L 161.496094 167.359375 L 140.984375 156.09375 L 150.25 141.726562 Z M 158.777344 128.9375 "/>
<path style=" stroke:none;fill-rule:nonzero;fill:rgb(39.99939%,39.99939%,39.99939%);fill-opacity:0.3;" d="M 242.667969 88.730469 L 256.167969 96.46875 L 256.117188 99.515625 L 240.941406 124.09375 L 237.082031 125.074219 L 225.917969 118.820312 L 225.378906 115.46875 Z M 242.667969 88.730469 "/>
<path style=" stroke:none;fill-rule:nonzero;fill:rgb(39.99939%,39.99939%,39.99939%);fill-opacity:0.3;" d="M 220.296875 76.527344 L 240.839844 87.839844 L 223.449219 114.613281 L 220.40625 115.652344 L 205.078125 106.753906 L 204.253906 103.15625 Z M 220.296875 76.527344 "/>
<path style=" stroke:none;fill-rule:nonzero;fill:rgb(39.99939%,39.99939%,39.99939%);fill-opacity:0.3;" d="M 198.402344 63.25 L 218.402344 75.230469 L 202.089844 102.277344 L 198.164062 103.148438 L 181.382812 93.808594 Z M 198.402344 63.25 "/>
<path style=" stroke:none;fill-rule:nonzero;fill:rgb(39.99939%,39.99939%,39.99939%);fill-opacity:0.3;" d="M 178.421875 51.429688 L 197.097656 62.519531 L 179.574219 93.480469 L 175.273438 100.546875 L 162.980469 93.648438 L 164.933594 90.734375 Z M 178.421875 51.429688 "/>
<path style=" stroke:none;fill-rule:nonzero;fill:rgb(39.99939%,39.99939%,39.99939%);fill-opacity:0.3;" d="M 142.839844 116.273438 L 156.558594 124.707031 L 157.210938 127.988281 L 149.300781 139.855469 L 132.628906 130.140625 Z M 142.839844 116.273438 "/>
<path style=" stroke:none;fill-rule:nonzero;fill:rgb(39.99939%,39.99939%,39.99939%);fill-opacity:0.3;" d="M 132.167969 130.863281 L 148.761719 140.492188 L 139.136719 154.953125 L 122.117188 143.625 Z M 132.167969 130.863281 "/>
<path style=" stroke:none;fill-rule:nonzero;fill:rgb(39.99939%,39.99939%,39.99939%);fill-opacity:0.3;" d="M 121.113281 188.359375 L 141.273438 199.546875 L 134.519531 210.53125 L 130.738281 216.683594 L 123.074219 229.148438 L 102.253906 217.84375 L 106.320312 211.480469 L 113.867188 199.6875 Z M 121.113281 188.359375 "/>
<path style=" stroke:none;fill-rule:nonzero;fill:rgb(39.99939%,39.99939%,39.99939%);fill-opacity:0.3;" d="M 164.34375 88.554688 L 163.652344 90.585938 L 161.804688 92.367188 Z M 164.34375 88.554688 "/>
<path style=" stroke:none;fill-rule:nonzero;fill:rgb(39.99939%,39.99939%,39.99939%);fill-opacity:0.3;" d="M 101.882812 148.269531 L 116.460938 149.738281 L 121.839844 148.34375 L 126.957031 149.660156 L 137.949219 156.652344 L 120.667969 185.378906 L 113.292969 181.375 L 101.421875 174.488281 L 111.660156 159.132812 L 111.292969 158.929688 L 110.921875 158.726562 L 100.46875 173.992188 L 98.105469 172.601562 Z M 101.882812 148.269531 "/>
<path style=" stroke:none;fill-rule:nonzero;fill:rgb(39.99939%,39.99939%,39.99939%);fill-opacity:0.3;" d="M 9.238281 284.015625 L 48.820312 307.679688 L 38.386719 323.527344 L -2.433594 300.695312 Z M 9.238281 284.015625 "/>
<path style=" stroke:none;fill-rule:nonzero;fill:rgb(39.99939%,39.99939%,39.99939%);fill-opacity:0.3;" d="M 27.992188 254.898438 L 31.910156 257.167969 L 52.796875 302.566406 L 47.328125 303.511719 L 10.835938 281.683594 Z M 27.992188 254.898438 "/>
<path style=" stroke:none;fill-rule:nonzero;fill:rgb(39.99939%,39.99939%,39.99939%);fill-opacity:0.3;" d="M 33.382812 255.6875 L 47.347656 265.328125 L 45.171875 279.136719 L 44.023438 279.429688 Z M 33.382812 255.6875 "/>
<g clip-path="url(#clip20)" clip-rule="nonzero">
<path style=" stroke:none;fill-rule:nonzero;fill:rgb(39.99939%,39.99939%,39.99939%);fill-opacity:0.3;" d="M 25.789062 347.113281 L 33.460938 345.296875 L 88.085938 377.835938 L 90.261719 381.140625 L 84.585938 393.523438 L 72.816406 395.175781 L 41.828125 378.5 L 15.347656 362.914062 Z M 25.789062 347.113281 "/>
</g>
<g clip-path="url(#clip21)" clip-rule="nonzero">
<path style=" stroke:none;fill-rule:nonzero;fill:rgb(39.99939%,39.99939%,39.99939%);fill-opacity:0.3;" d="M -27.195312 338.316406 L 13.179688 362.34375 L 5.375 374.824219 L -35.253906 351.269531 Z M -27.195312 338.316406 "/>
</g>
<g clip-path="url(#clip22)" clip-rule="nonzero">
<path style=" stroke:none;fill-rule:nonzero;fill:rgb(39.99939%,39.99939%,39.99939%);fill-opacity:0.3;" d="M -13.054688 317.765625 L 23.144531 339.320312 L 23.828125 346.25 L 14.003906 360.871094 L -26.378906 337.035156 Z M -13.054688 317.765625 "/>
</g>
<path style=" stroke:none;fill-rule:nonzero;fill:rgb(39.99939%,39.99939%,39.99939%);fill-opacity:0.3;" d="M 104.789062 291.9375 L 94.546875 285.820312 L 99.519531 287.894531 Z M 104.789062 291.9375 "/>
<path style=" stroke:none;fill-rule:nonzero;fill:rgb(39.99939%,39.99939%,39.99939%);fill-opacity:0.3;" d="M -13.574219 267.09375 L -81.691406 226.0625 L -55.054688 192.113281 L -53.351562 191.5 L -30.214844 212.230469 L 6.085938 237.285156 Z M -13.574219 267.09375 "/>
<path style=" stroke:none;fill-rule:nonzero;fill:rgb(39.99939%,39.99939%,39.99939%);fill-opacity:0.3;" d="M -12.152344 267.625 L 6.902344 237.875 L 27.703125 251.898438 L 8.785156 280.277344 Z M -12.152344 267.625 "/>
<path style=" stroke:none;fill-rule:nonzero;fill:rgb(39.99939%,39.99939%,39.99939%);fill-opacity:0.3;" d="M 7.007812 282.890625 L -4.496094 299.710938 L -65.0625 264.050781 L -53.484375 246.796875 Z M 7.007812 282.890625 "/>
<g clip-path="url(#clip23)" clip-rule="nonzero">
<path style=" stroke:none;fill-rule:nonzero;fill:rgb(39.99939%,39.99939%,39.99939%);fill-opacity:0.3;" d="M 51.367188 308.476562 L 57.347656 311.613281 L 84.402344 366.613281 L 84.566406 367.492188 L 84.421875 368.429688 L 83.792969 369.453125 L 82.785156 370.148438 L 81.875 370.382812 L 80.914062 370.328125 L 34.535156 342.519531 L 33.355469 336.210938 Z M 51.367188 308.476562 "/>
</g>
<g clip-path="url(#clip24)" clip-rule="nonzero">
<path style=" stroke:none;fill-rule:nonzero;fill:rgb(39.99939%,39.99939%,39.99939%);fill-opacity:0.3;" d="M 130.328125 321.207031 L 130.894531 321.902344 L 131.203125 322.410156 L 131.453125 322.945312 L 131.644531 323.503906 L 131.773438 324.074219 L 131.84375 324.949219 L 131.769531 325.828125 L 131.640625 326.398438 L 131.414062 327.042969 L 100.0625 374.101562 L 94.472656 372.886719 L 56.757812 293.1875 L 48.929688 281.578125 L 50.746094 267.0625 L 90.113281 293.277344 L 114.941406 311.226562 Z M 130.328125 321.207031 "/>
</g>
<path style=" stroke:none;fill-rule:nonzero;fill:rgb(39.99939%,39.99939%,39.99939%);fill-opacity:0.3;" d="M 37.511719 325.113281 L 30.707031 335.625 L 24.441406 337.234375 L -11.820312 315.640625 L -3.042969 302.128906 Z M 37.511719 325.113281 "/>
<path style=" stroke:none;fill-rule:nonzero;fill:rgb(39.99939%,39.99939%,39.99939%);fill-opacity:0.3;" d="M 179.71875 45.574219 L 158.769531 33.734375 L 153.050781 28.773438 L 138.597656 7.136719 L 130.335938 -5.230469 L 134.769531 1.34375 L 142.667969 12.890625 L 150.875 24.742188 L 156.953125 30.820312 L 180.347656 44.492188 Z M 179.71875 45.574219 "/>
<path style=" stroke:none;fill-rule:nonzero;fill:rgb(39.99939%,39.99939%,39.99939%);fill-opacity:0.3;" d="M 131.804688 62.640625 L 141.972656 64.078125 L 143.074219 71.625 L 146.734375 79.414062 L 151.554688 86.121094 L 153.148438 88.132812 L 152.609375 89.980469 L 114.386719 87.867188 L 113.734375 85.433594 Z M 131.804688 62.640625 "/>
<path style=" stroke:none;fill-rule:nonzero;fill:rgb(39.99939%,39.99939%,39.99939%);fill-opacity:0.3;" d="M 115.238281 60.402344 L 130.640625 62.378906 L 114.355469 82.640625 L 112.507812 82.292969 Z M 115.238281 60.402344 "/>
<path style=" stroke:none;fill-rule:nonzero;fill:rgb(39.99939%,39.99939%,39.99939%);fill-opacity:0.3;" d="M 44.894531 56.5 L 42.367188 74.777344 L 38.566406 78.007812 L 11.472656 74.558594 L 14.417969 52.558594 Z M 44.894531 56.5 "/>
<path style=" stroke:none;fill-rule:nonzero;fill:rgb(39.99939%,39.99939%,39.99939%);fill-opacity:0.3;" d="M 47.402344 42.003906 L 45.007812 55.726562 L 14.605469 51.683594 L 16.929688 37.585938 Z M 47.402344 42.003906 "/>
<path style=" stroke:none;fill-rule:nonzero;fill:rgb(39.99939%,39.99939%,39.99939%);fill-opacity:0.3;" d="M 20.058594 18.113281 L 51.246094 22.023438 L 47.542969 41.160156 L 17.03125 36.707031 Z M 20.058594 18.113281 "/>
<path style=" stroke:none;fill-rule:nonzero;fill:rgb(39.99939%,39.99939%,39.99939%);fill-opacity:0.3;" d="M 77.421875 58.027344 L 78.980469 58.265625 L 75.316406 82.960938 L 48.230469 79.632812 L 47.21875 78.285156 Z M 77.421875 58.027344 "/>
<path style=" stroke:none;fill-rule:nonzero;fill:rgb(39.99939%,39.99939%,39.99939%);fill-opacity:0.3;" d="M 84.148438 26.332031 L 79.078125 55.085938 L 45.863281 77.703125 L 44.171875 77.167969 L 47.308594 57.070312 L 49.601562 42.113281 L 53.453125 22.4375 Z M 84.148438 26.332031 "/>
<path style=" stroke:none;fill-rule:nonzero;fill:rgb(39.99939%,39.99939%,39.99939%);fill-opacity:0.3;" d="M 86.121094 26.546875 L 114.113281 30.414062 L 114.074219 31.789062 L 82.503906 53.371094 L 81.558594 52.824219 Z M 86.121094 26.546875 "/>
<path style=" stroke:none;fill-rule:nonzero;fill:rgb(39.99939%,39.99939%,39.99939%);fill-opacity:0.3;" d="M 141.667969 114.039062 L 114.910156 92.191406 L 115.863281 89.792969 L 156.5625 92.019531 L 158.828125 94.5625 L 151.972656 102.683594 L 142.0625 113.472656 Z M 141.667969 114.039062 "/>
<path style=" stroke:none;fill-rule:nonzero;fill:rgb(39.99939%,39.99939%,39.99939%);fill-opacity:0.3;" d="M 131.3125 129 L 130.882812 129.574219 L 130.503906 130.0625 L 119.507812 143.84375 L 119.457031 143.902344 L 116.535156 146.289062 L 102.339844 145.484375 L 110.042969 92.609375 L 114.003906 92.710938 L 141.011719 114.984375 Z M 131.3125 129 "/>
<path style=" stroke:none;fill-rule:nonzero;fill:rgb(39.99939%,39.99939%,39.99939%);fill-opacity:0.3;" d="M 103.105469 126.378906 L 100.460938 145.378906 L 100.429688 145.378906 L 100.21875 146.496094 L 68.894531 142.046875 L 71.679688 122.398438 Z M 103.105469 126.378906 "/>
<path style=" stroke:none;fill-rule:nonzero;fill:rgb(39.99939%,39.99939%,39.99939%);fill-opacity:0.3;" d="M 105.785156 108.898438 L 103.105469 125.421875 L 71.820312 121.402344 L 74.390625 105 Z M 105.785156 108.898438 "/>
<path style=" stroke:none;fill-rule:nonzero;fill:rgb(39.99939%,39.99939%,39.99939%);fill-opacity:0.3;" d="M 77.53125 85.167969 L 104.566406 88.734375 L 108.183594 91.152344 L 105.851562 108.261719 L 74.5 104.21875 Z M 77.53125 85.167969 "/>
<path style=" stroke:none;fill-rule:nonzero;fill:rgb(39.99939%,39.99939%,39.99939%);fill-opacity:0.3;" d="M 58.246094 102.367188 L 72.007812 104.09375 L 69.433594 120.386719 L 66.609375 141.726562 L 52.75 139.925781 Z M 58.246094 102.367188 "/>
<path style=" stroke:none;fill-rule:nonzero;fill:rgb(39.99939%,39.99939%,39.99939%);fill-opacity:0.3;" d="M 43.511719 80.824219 L 75.210938 84.792969 L 72.121094 103.410156 L 57.417969 101.5 L 51.675781 139.777344 L 35.367188 137.601562 Z M 43.511719 80.824219 "/>
<path style=" stroke:none;fill-rule:nonzero;fill:rgb(39.99939%,39.99939%,39.99939%);fill-opacity:0.3;" d="M -22.238281 71.820312 L 9.144531 76.417969 L 0.316406 132.640625 L -30.851562 128.464844 Z M -22.238281 71.820312 "/>
<path style=" stroke:none;fill-rule:nonzero;fill:rgb(39.99939%,39.99939%,39.99939%);fill-opacity:0.3;" d="M 96.953125 169.851562 L 96.371094 173.949219 L 96.046875 176.757812 L 95.875 176.980469 L 94.683594 181.984375 L 90.136719 189.117188 L 79.640625 203.453125 L 77.890625 203.296875 L 74.738281 202.296875 L 74.601562 202.203125 L 74.1875 202.121094 L 72.234375 201.503906 L 67.875 200.902344 L 60.28125 199.4375 L 68.585938 143.71875 L 99.933594 148.003906 L 98.304688 156.621094 L 96.480469 167.863281 Z M 96.953125 169.851562 "/>
<path style=" stroke:none;fill-rule:nonzero;fill:rgb(39.99939%,39.99939%,39.99939%);fill-opacity:0.3;" d="M 1.964844 134.59375 L 27.113281 138.152344 L 33.144531 141.050781 L 24.265625 195.6875 L -7.027344 191.183594 Z M 1.964844 134.59375 "/>
<path style=" stroke:none;fill-rule:nonzero;fill:rgb(39.99939%,39.99939%,39.99939%);fill-opacity:0.3;" d="M 35.132812 139.382812 L 66.324219 143.375 L 57.683594 198.9375 L 57.28125 198.859375 L 57.199219 199.53125 L 26.128906 195.96875 Z M 35.132812 139.382812 "/>
<path style=" stroke:none;fill-rule:nonzero;fill:rgb(39.99939%,39.99939%,39.99939%);fill-opacity:0.3;" d="M 25.886719 197.488281 L 56.96875 201.347656 L 55.40625 213.851562 L 48.960938 256.785156 L 19.71875 237.433594 Z M 25.886719 197.488281 "/>
<path style=" stroke:none;fill-rule:nonzero;fill:rgb(39.99939%,39.99939%,39.99939%);fill-opacity:0.3;" d="M 25.410156 -40.304688 L 18.027344 16.117188 L -12.628906 11.730469 L -4.707031 -44.5 Z M 25.410156 -40.304688 "/>
<path style=" stroke:none;fill-rule:nonzero;fill:rgb(39.99939%,39.99939%,39.99939%);fill-opacity:0.3;" d="M 61.292969 -35.992188 L 92.375 -31.644531 L 84.289062 24.808594 L 53.53125 20.644531 Z M 61.292969 -35.992188 "/>
<path style=" stroke:none;fill-rule:nonzero;fill:rgb(39.99939%,39.99939%,39.99939%);fill-opacity:0.3;" d="M 27.542969 -40.023438 L 58.84375 -36.292969 L 51.472656 20.335938 L 20.1875 16.355469 Z M 27.542969 -40.023438 "/>
<path style=" stroke:none;fill-rule:nonzero;fill:rgb(39.99939%,39.99939%,39.99939%);fill-opacity:0.3;" d="M 152.507812 35.902344 L 177.257812 50.640625 L 164.34375 88.554688 L 161.804688 92.367188 L 159.453125 91.914062 L 155.371094 88.746094 L 152.574219 84.960938 L 148.019531 78.835938 L 144.519531 71.121094 L 143.273438 63.253906 L 145.207031 48.492188 Z M 152.507812 35.902344 "/>
<path style=" stroke:none;fill-rule:nonzero;fill:rgb(39.99939%,39.99939%,39.99939%);fill-opacity:0.3;" d="M -12.832031 13.375 L 17.765625 17.730469 L 9.367188 74.289062 L -21.933594 69.707031 Z M -12.832031 13.375 "/>
<path style=" stroke:none;fill-rule:nonzero;fill:rgb(39.99939%,39.99939%,39.99939%);fill-opacity:0.3;" d="M -39.746094 188.121094 L -8.691406 192.300781 L -10.476562 203.378906 L -9.875 203.46875 L -9.277344 203.558594 L -7.550781 192.429688 L 23.992188 197.246094 L 17.839844 236.300781 L -25.222656 206.953125 L -42.007812 190.5625 Z M -39.746094 188.121094 "/>
<path style=" stroke:none;fill-rule:nonzero;fill:rgb(39.99939%,39.99939%,39.99939%);fill-opacity:0.3;" d="M 11.082031 76.753906 L 41.488281 80.550781 L 35.796875 122.835938 L 19.65625 121.253906 L 19.609375 121.5 L 19.5625 121.75 L 35.773438 123.359375 L 33.433594 137.328125 L 2.238281 132.859375 Z M 11.082031 76.753906 "/>
<path style=" stroke:none;fill-rule:nonzero;fill:rgb(39.99939%,39.99939%,39.99939%);fill-opacity:0.3;" d="M 81.640625 56.070312 L 116.453125 32.035156 L 118 32.652344 L 113.683594 59.066406 L 99.667969 57.871094 L 99.664062 58.328125 L 99.660156 58.78125 L 113.585938 60.015625 L 111.558594 73.523438 L 92.519531 71.933594 L 92.484375 72.277344 L 92.449219 72.617188 L 111.53125 74.171875 L 110.617188 81.875 L 107.253906 85.246094 L 103.492188 86.777344 L 79.789062 83.84375 L 77.734375 81.574219 Z M 81.640625 56.070312 "/>
<path style=" stroke:none;fill-rule:nonzero;fill:rgb(39.99939%,39.99939%,39.99939%);fill-opacity:0.3;" d="M 120.628906 29.523438 L 137.988281 16.789062 L 149.253906 32.828125 L 151.398438 34.914062 L 144.050781 48.207031 L 142.019531 62.933594 L 132.734375 61.675781 L 135.902344 57.425781 L 135.296875 57.289062 L 134.695312 57.148438 L 131.339844 61.382812 L 115.378906 59.328125 Z M 120.628906 29.523438 "/>
<path style=" stroke:none;fill-rule:nonzero;fill:rgb(39.99939%,39.99939%,39.99939%);fill-opacity:0.3;" d="M 137.039062 15.386719 L 117.761719 29.53125 L 86.324219 25.015625 L 94.246094 -31.289062 L 105.960938 -29.894531 L 110.78125 -22.488281 L 96.929688 -14.214844 L 97.328125 -13.835938 L 97.730469 -13.460938 L 111.503906 -21.683594 L 129.132812 5.480469 L 106.875 19.894531 L 107.109375 20.300781 L 107.339844 20.710938 L 129.777344 6.171875 Z M 137.039062 15.386719 "/>
<path style=" stroke:none;fill-rule:nonzero;fill:rgb(39.99939%,39.99939%,39.99939%);fill-opacity:0.3;" d="M 232.5625 -103.933594 L 230.632812 -82.296875 L 227.546875 -51.320312 L 223.472656 -7.425781 L 219.59375 37.351562 L 217.875 60.777344 L 216.65625 62.632812 L 213.925781 63.191406 L 209.539062 62.429688 L 179.71875 45.574219 L 180.347656 44.492188 L 156.953125 30.820312 L 150.875 24.742188 L 142.667969 12.890625 L 134.769531 1.34375 L 130.335938 -5.230469 L 126.125 -11.539062 L 101.8125 -47.9375 L 133.457031 -64.351562 L 146.382812 -71.058594 L 175.933594 -86.046875 L 183.964844 -88.023438 L 220.027344 -106.335938 Z M 232.5625 -103.933594 "/>
<path style="fill-rule:nonzero;fill:rgb(39.99939%,39.99939%,39.99939%);fill-opacity:1;stroke-width:0.03;stroke-linecap:square;stroke-linejoin:miter;stroke:rgb(39.99939%,39.99939%,39.99939%);stroke-opacity:1;stroke-miterlimit:3.239307;" d="M 293.441406 204.523438 L 299.792969 190.734375 L 302.84375 185.226562 L 297.195312 197.578125 Z M 293.441406 204.523438 " transform="matrix(1,0,0,1,-74,-13)"/>
<path style="fill-rule:nonzero;fill:rgb(39.99939%,39.99939%,39.99939%);fill-opacity:1;stroke-width:0.03;stroke-linecap:square;stroke-linejoin:miter;stroke:rgb(39.99939%,39.99939%,39.99939%);stroke-opacity:1;stroke-miterlimit:3.239307;" d="M 214.011719 170.726562 L 234.425781 181.921875 L 227.074219 193.851562 L 217.167969 209.921875 L 196.695312 198.8125 L 206.550781 182.828125 Z M 214.011719 170.726562 " transform="matrix(1,0,0,1,-74,-13)"/>
<path style="fill-rule:nonzero;fill:rgb(39.99939%,39.99939%,39.99939%);fill-opacity:1;stroke-width:0.03;stroke-linecap:square;stroke-linejoin:miter;stroke:rgb(39.99939%,39.99939%,39.99939%);stroke-opacity:1;stroke-miterlimit:3.239307;" d="M 216.097656 127.386719 L 215.667969 127.039062 L 216.0625 126.472656 L 225.972656 115.683594 Z M 216.097656 127.386719 " transform="matrix(1,0,0,1,-74,-13)"/>
<path style="fill-rule:nonzero;fill:rgb(39.99939%,39.99939%,39.99939%);fill-opacity:1;stroke-width:0.03;stroke-linecap:square;stroke-linejoin:miter;stroke:rgb(39.99939%,39.99939%,39.99939%);stroke-opacity:1;stroke-miterlimit:3.239307;" d="M 215.445312 128.34375 L 205.3125 142 L 215.011719 127.984375 Z M 215.445312 128.34375 " transform="matrix(1,0,0,1,-74,-13)"/>
<path style="fill-rule:nonzero;fill:rgb(39.99939%,39.99939%,39.99939%);fill-opacity:1;stroke-width:0.03;stroke-linecap:square;stroke-linejoin:miter;stroke:rgb(39.99939%,39.99939%,39.99939%);stroke-opacity:1;stroke-miterlimit:3.239307;" d="M 204.882812 142.574219 L 204.816406 142.667969 L 204.503906 143.0625 Z M 204.882812 142.574219 " transform="matrix(1,0,0,1,-74,-13)"/>
<path style="fill-rule:nonzero;fill:rgb(39.99939%,39.99939%,39.99939%);fill-opacity:1;stroke-width:0.03;stroke-linecap:square;stroke-linejoin:miter;stroke:rgb(39.99939%,39.99939%,39.99939%);stroke-opacity:1;stroke-miterlimit:3.239307;" d="M 193.457031 156.902344 L 189.824219 160.863281 L 176.160156 159.710938 L 176.339844 158.484375 L 190.535156 159.289062 Z M 193.457031 156.902344 " transform="matrix(1,0,0,1,-74,-13)"/>
<path style="fill-rule:nonzero;fill:rgb(39.99939%,39.99939%,39.99939%);fill-opacity:1;stroke-width:0.03;stroke-linecap:square;stroke-linejoin:miter;stroke:rgb(39.99939%,39.99939%,39.99939%);stroke-opacity:1;stroke-miterlimit:3.239307;" d="M 174.460938 158.378906 L 174.304688 159.507812 L 174.21875 159.496094 L 174.429688 158.378906 Z M 174.460938 158.378906 " transform="matrix(1,0,0,1,-74,-13)"/>
<path style="fill-rule:nonzero;fill:rgb(39.99939%,39.99939%,39.99939%);fill-opacity:1;stroke-width:0.03;stroke-linecap:square;stroke-linejoin:miter;stroke:rgb(39.99939%,39.99939%,39.99939%);stroke-opacity:1;stroke-miterlimit:3.239307;" d="M 174.066406 161.023438 L 170.953125 182.851562 L 170.480469 180.863281 L 172.304688 169.621094 L 173.933594 161.003906 Z M 174.066406 161.023438 " transform="matrix(1,0,0,1,-74,-13)"/>
<path style="fill-rule:nonzero;fill:rgb(39.99939%,39.99939%,39.99939%);fill-opacity:1;stroke-width:0.03;stroke-linecap:square;stroke-linejoin:miter;stroke:rgb(39.99939%,39.99939%,39.99939%);stroke-opacity:1;stroke-miterlimit:3.239307;" d="M 170.046875 189.757812 L 169.617188 193.515625 L 168.683594 194.984375 L 169.875 189.980469 Z M 170.046875 189.757812 " transform="matrix(1,0,0,1,-74,-13)"/>
<path style="fill-rule:nonzero;fill:rgb(39.99939%,39.99939%,39.99939%);fill-opacity:1;stroke-width:0.03;stroke-linecap:square;stroke-linejoin:miter;stroke:rgb(39.99939%,39.99939%,39.99939%);stroke-opacity:1;stroke-miterlimit:3.239307;" d="M 164.136719 202.117188 L 154.9375 216.566406 L 153.640625 216.453125 Z M 164.136719 202.117188 " transform="matrix(1,0,0,1,-74,-13)"/>
<path style="fill-rule:nonzero;fill:rgb(39.99939%,39.99939%,39.99939%);fill-opacity:1;stroke-width:0.03;stroke-linecap:square;stroke-linejoin:miter;stroke:rgb(39.99939%,39.99939%,39.99939%);stroke-opacity:1;stroke-miterlimit:3.239307;" d="M 141.875 213.902344 L 134.21875 212.851562 L 134.28125 212.4375 Z M 141.875 213.902344 " transform="matrix(1,0,0,1,-74,-13)"/>
<path style="fill-rule:nonzero;fill:rgb(39.99939%,39.99939%,39.99939%);fill-opacity:1;stroke-width:0.03;stroke-linecap:square;stroke-linejoin:miter;stroke:rgb(39.99939%,39.99939%,39.99939%);stroke-opacity:1;stroke-miterlimit:3.239307;" d="M 148.738281 215.296875 L 148.1875 215.121094 L 148.601562 215.203125 Z M 148.738281 215.296875 " transform="matrix(1,0,0,1,-74,-13)"/>
<path style="fill-rule:nonzero;fill:rgb(39.99939%,39.99939%,39.99939%);fill-opacity:1;stroke-width:0.03;stroke-linecap:square;stroke-linejoin:miter;stroke:rgb(39.99939%,39.99939%,39.99939%);stroke-opacity:1;stroke-miterlimit:3.239307;" d="M 131.683594 211.9375 L 131.582031 212.574219 L 131.199219 212.53125 L 131.28125 211.859375 Z M 131.683594 211.9375 " transform="matrix(1,0,0,1,-74,-13)"/>
<path style="fill-rule:nonzero;fill:rgb(39.99939%,39.99939%,39.99939%);fill-opacity:1;stroke-width:0.03;stroke-linecap:square;stroke-linejoin:miter;stroke:rgb(39.99939%,39.99939%,39.99939%);stroke-opacity:1;stroke-miterlimit:3.239307;" d="M 257.949219 194.585938 L 277.421875 205.296875 L 278.480469 208.769531 L 264.601562 236.007812 L 240.539062 223.371094 Z M 257.949219 194.585938 " transform="matrix(1,0,0,1,-74,-13)"/>
<path style="fill-rule:nonzero;fill:rgb(39.99939%,39.99939%,39.99939%);fill-opacity:1;stroke-width:0.03;stroke-linecap:square;stroke-linejoin:miter;stroke:rgb(39.99939%,39.99939%,39.99939%);stroke-opacity:1;stroke-miterlimit:3.239307;" d="M 236.054688 182.886719 L 255.859375 194.023438 L 239.132812 221.828125 L 218.792969 210.761719 Z M 236.054688 182.886719 " transform="matrix(1,0,0,1,-74,-13)"/>
<path style="fill-rule:nonzero;fill:rgb(39.99939%,39.99939%,39.99939%);fill-opacity:1;stroke-width:0.03;stroke-linecap:square;stroke-linejoin:miter;stroke:rgb(39.99939%,39.99939%,39.99939%);stroke-opacity:1;stroke-miterlimit:3.239307;" d="M 130.96875 214.347656 L 131.28125 214.386719 L 129.40625 226.851562 Z M 130.96875 214.347656 " transform="matrix(1,0,0,1,-74,-13)"/>
<path style="fill-rule:nonzero;fill:rgb(39.99939%,39.99939%,39.99939%);fill-opacity:1;stroke-width:0.03;stroke-linecap:square;stroke-linejoin:miter;stroke:rgb(39.99939%,39.99939%,39.99939%);stroke-opacity:1;stroke-miterlimit:3.239307;" d="M 128.535156 250.136719 L 132.679688 250.867188 L 154.582031 263.34375 L 142.710938 283.085938 L 125.429688 271.34375 Z M 128.535156 250.136719 " transform="matrix(1,0,0,1,-74,-13)"/>
<path style="fill-rule:nonzero;fill:rgb(39.99939%,39.99939%,39.99939%);fill-opacity:1;stroke-width:0.03;stroke-linecap:square;stroke-linejoin:miter;stroke:rgb(39.99939%,39.99939%,39.99939%);stroke-opacity:1;stroke-miterlimit:3.239307;" d="M 176.394531 275.554688 L 162.496094 295.179688 L 143.722656 283.792969 L 155.648438 263.871094 Z M 176.394531 275.554688 " transform="matrix(1,0,0,1,-74,-13)"/>
<path style="fill-rule:nonzero;fill:rgb(39.99939%,39.99939%,39.99939%);fill-opacity:1;stroke-width:0.03;stroke-linecap:square;stroke-linejoin:miter;stroke:rgb(39.99939%,39.99939%,39.99939%);stroke-opacity:1;stroke-miterlimit:3.239307;" d="M 177.628906 276.164062 L 226.671875 303.308594 L 214.59375 321.570312 L 204.933594 320.546875 L 178.789062 304.9375 L 173.519531 300.894531 L 168.546875 298.820312 L 163.921875 296.058594 Z M 177.628906 276.164062 " transform="matrix(1,0,0,1,-74,-13)"/>
<path style="fill-rule:nonzero;fill:rgb(39.99939%,39.99939%,39.99939%);fill-opacity:1;stroke-width:0.03;stroke-linecap:square;stroke-linejoin:miter;stroke:rgb(39.99939%,39.99939%,39.99939%);stroke-opacity:1;stroke-miterlimit:3.239307;" d="M 133.601562 249.160156 L 128.945312 248.125 L 133.960938 214.78125 L 145.8125 216.214844 L 151.519531 218.125 L 153 220 Z M 133.601562 249.160156 " transform="matrix(1,0,0,1,-74,-13)"/>
<path style="fill-rule:nonzero;fill:rgb(39.99939%,39.99939%,39.99939%);fill-opacity:1;stroke-width:0.03;stroke-linecap:square;stroke-linejoin:miter;stroke:rgb(39.99939%,39.99939%,39.99939%);stroke-opacity:1;stroke-miterlimit:3.239307;" d="M 218.039062 257.09375 L 246.554688 272.480469 L 228.464844 300.453125 L 199.703125 285.582031 Z M 218.039062 257.09375 " transform="matrix(1,0,0,1,-74,-13)"/>
<path style="fill-rule:nonzero;fill:rgb(39.99939%,39.99939%,39.99939%);fill-opacity:1;stroke-width:0.03;stroke-linecap:square;stroke-linejoin:miter;stroke:rgb(39.99939%,39.99939%,39.99939%);stroke-opacity:1;stroke-miterlimit:3.239307;" d="M 196.933594 245.496094 L 216.113281 256.789062 L 198.101562 284.816406 L 178.332031 274.164062 Z M 196.933594 245.496094 " transform="matrix(1,0,0,1,-74,-13)"/>
<path style="fill-rule:nonzero;fill:rgb(39.99939%,39.99939%,39.99939%);fill-opacity:1;stroke-width:0.03;stroke-linecap:square;stroke-linejoin:miter;stroke:rgb(39.99939%,39.99939%,39.99939%);stroke-opacity:1;stroke-miterlimit:3.239307;" d="M 174.605469 233.152344 L 195.457031 244.710938 L 176.550781 273.253906 L 156.550781 262.332031 Z M 174.605469 233.152344 " transform="matrix(1,0,0,1,-74,-13)"/>
<path style="fill-rule:nonzero;fill:rgb(39.99939%,39.99939%,39.99939%);fill-opacity:1;stroke-width:0.03;stroke-linecap:square;stroke-linejoin:miter;stroke:rgb(39.99939%,39.99939%,39.99939%);stroke-opacity:1;stroke-miterlimit:3.239307;" d="M 153.914062 220.691406 L 173.453125 232.585938 L 155.613281 261.679688 L 134.730469 249.964844 Z M 153.914062 220.691406 " transform="matrix(1,0,0,1,-74,-13)"/>
<path style="fill-rule:nonzero;fill:rgb(39.99939%,39.99939%,39.99939%);fill-opacity:1;stroke-width:0.03;stroke-linecap:square;stroke-linejoin:miter;stroke:rgb(39.99939%,39.99939%,39.99939%);stroke-opacity:1;stroke-miterlimit:3.239307;" d="M 193.328125 200.515625 L 175.042969 229.980469 L 155.496094 218.757812 L 174.394531 189.886719 Z M 193.328125 200.515625 " transform="matrix(1,0,0,1,-74,-13)"/>
<path style="fill-rule:nonzero;fill:rgb(39.99939%,39.99939%,39.99939%);fill-opacity:1;stroke-width:0.03;stroke-linecap:square;stroke-linejoin:miter;stroke:rgb(39.99939%,39.99939%,39.99939%);stroke-opacity:1;stroke-miterlimit:3.239307;" d="M 238.867188 226.109375 L 263.210938 239.21875 L 249.4375 268.53125 L 243.996094 268.472656 L 219.695312 255.304688 Z M 238.867188 226.109375 " transform="matrix(1,0,0,1,-74,-13)"/>
<path style="fill-rule:nonzero;fill:rgb(39.99939%,39.99939%,39.99939%);fill-opacity:1;stroke-width:0.03;stroke-linecap:square;stroke-linejoin:miter;stroke:rgb(39.99939%,39.99939%,39.99939%);stroke-opacity:1;stroke-miterlimit:3.239307;" d="M 216.960938 213.804688 L 236.941406 225.183594 L 218.03125 253.964844 L 198.484375 242.96875 Z M 216.960938 213.804688 " transform="matrix(1,0,0,1,-74,-13)"/>
<path style="fill-rule:nonzero;fill:rgb(39.99939%,39.99939%,39.99939%);fill-opacity:1;stroke-width:0.03;stroke-linecap:square;stroke-linejoin:miter;stroke:rgb(39.99939%,39.99939%,39.99939%);stroke-opacity:1;stroke-miterlimit:3.239307;" d="M 248.792969 114.460938 L 234.796875 135.535156 L 231.425781 136.4375 L 217.589844 128.214844 L 236.234375 107.570312 Z M 248.792969 114.460938 " transform="matrix(1,0,0,1,-74,-13)"/>
<path style="fill-rule:nonzero;fill:rgb(39.99939%,39.99939%,39.99939%);fill-opacity:1;stroke-width:0.03;stroke-linecap:square;stroke-linejoin:miter;stroke:rgb(39.99939%,39.99939%,39.99939%);stroke-opacity:1;stroke-miterlimit:3.239307;" d="M 295.792969 133.714844 L 298.675781 133.023438 L 310.394531 139.511719 L 311.277344 142.617188 L 298.515625 168.238281 L 294.144531 168.871094 L 280.320312 161.28125 L 280.773438 158.070312 Z M 295.792969 133.714844 " transform="matrix(1,0,0,1,-74,-13)"/>
<path style="fill-rule:nonzero;fill:rgb(39.99939%,39.99939%,39.99939%);fill-opacity:1;stroke-width:0.03;stroke-linecap:square;stroke-linejoin:miter;stroke:rgb(39.99939%,39.99939%,39.99939%);stroke-opacity:1;stroke-miterlimit:3.239307;" d="M 254.421875 108.164062 L 271.300781 117.96875 L 272.003906 121.492188 L 256.917969 146.914062 L 253.34375 147.992188 L 236.90625 139.195312 L 236.667969 136.523438 L 250.425781 114.59375 Z M 254.421875 108.164062 " transform="matrix(1,0,0,1,-74,-13)"/>
<path style="fill-rule:nonzero;fill:rgb(39.99939%,39.99939%,39.99939%);fill-opacity:1;stroke-width:0.03;stroke-linecap:square;stroke-linejoin:miter;stroke:rgb(39.99939%,39.99939%,39.99939%);stroke-opacity:1;stroke-miterlimit:3.239307;" d="M 274.347656 122.101562 L 277.882812 121.4375 L 293.53125 130.308594 L 293.753906 132.949219 L 278.566406 157.46875 L 275.234375 158.476562 L 259.515625 149.894531 L 258.515625 147.867188 Z M 274.347656 122.101562 " transform="matrix(1,0,0,1,-74,-13)"/>
<path style="fill-rule:nonzero;fill:rgb(39.99939%,39.99939%,39.99939%);fill-opacity:1;stroke-width:0.03;stroke-linecap:square;stroke-linejoin:miter;stroke:rgb(39.99939%,39.99939%,39.99939%);stroke-opacity:1;stroke-miterlimit:3.239307;" d="M 254.367188 153.472656 L 257.960938 152.105469 L 273.832031 161.734375 L 274 164.457031 L 256.980469 192.296875 L 237.121094 181.125 Z M 254.367188 153.472656 " transform="matrix(1,0,0,1,-74,-13)"/>
<path style="fill-rule:nonzero;fill:rgb(39.99939%,39.99939%,39.99939%);fill-opacity:1;stroke-width:0.03;stroke-linecap:square;stroke-linejoin:miter;stroke:rgb(39.99939%,39.99939%,39.99939%);stroke-opacity:1;stroke-miterlimit:3.239307;" d="M 276.054688 165.273438 L 278.960938 163.878906 L 293.324219 171.722656 L 294.292969 174.433594 L 281.433594 201.742188 L 278.121094 202.726562 L 259.226562 192.632812 Z M 276.054688 165.273438 " transform="matrix(1,0,0,1,-74,-13)"/>
<path style="fill-rule:nonzero;fill:rgb(39.99939%,39.99939%,39.99939%);fill-opacity:1;stroke-width:0.03;stroke-linecap:square;stroke-linejoin:miter;stroke:rgb(39.99939%,39.99939%,39.99939%);stroke-opacity:1;stroke-miterlimit:3.239307;" d="M 232.777344 141.9375 L 236.230469 140.378906 L 252.722656 149.179688 L 252.570312 152.777344 L 235.496094 180.359375 L 214.984375 169.09375 L 224.25 154.726562 Z M 232.777344 141.9375 " transform="matrix(1,0,0,1,-74,-13)"/>
<path style="fill-rule:nonzero;fill:rgb(39.99939%,39.99939%,39.99939%);fill-opacity:1;stroke-width:0.03;stroke-linecap:square;stroke-linejoin:miter;stroke:rgb(39.99939%,39.99939%,39.99939%);stroke-opacity:1;stroke-miterlimit:3.239307;" d="M 316.667969 101.730469 L 330.167969 109.46875 L 330.117188 112.515625 L 314.941406 137.09375 L 311.082031 138.074219 L 299.917969 131.820312 L 299.378906 128.46875 Z M 316.667969 101.730469 " transform="matrix(1,0,0,1,-74,-13)"/>
<path style="fill-rule:nonzero;fill:rgb(39.99939%,39.99939%,39.99939%);fill-opacity:1;stroke-width:0.03;stroke-linecap:square;stroke-linejoin:miter;stroke:rgb(39.99939%,39.99939%,39.99939%);stroke-opacity:1;stroke-miterlimit:3.239307;" d="M 294.296875 89.527344 L 314.839844 100.839844 L 297.449219 127.613281 L 294.40625 128.652344 L 279.078125 119.753906 L 278.253906 116.15625 Z M 294.296875 89.527344 " transform="matrix(1,0,0,1,-74,-13)"/>
<path style="fill-rule:nonzero;fill:rgb(39.99939%,39.99939%,39.99939%);fill-opacity:1;stroke-width:0.03;stroke-linecap:square;stroke-linejoin:miter;stroke:rgb(39.99939%,39.99939%,39.99939%);stroke-opacity:1;stroke-miterlimit:3.239307;" d="M 272.402344 76.25 L 292.402344 88.230469 L 276.089844 115.277344 L 272.164062 116.148438 L 255.382812 106.808594 Z M 272.402344 76.25 " transform="matrix(1,0,0,1,-74,-13)"/>
<path style="fill-rule:nonzero;fill:rgb(39.99939%,39.99939%,39.99939%);fill-opacity:1;stroke-width:0.03;stroke-linecap:square;stroke-linejoin:miter;stroke:rgb(39.99939%,39.99939%,39.99939%);stroke-opacity:1;stroke-miterlimit:3.239307;" d="M 252.421875 64.429688 L 271.097656 75.519531 L 253.574219 106.480469 L 249.273438 113.546875 L 236.980469 106.648438 L 238.933594 103.734375 Z M 252.421875 64.429688 " transform="matrix(1,0,0,1,-74,-13)"/>
<path style="fill-rule:nonzero;fill:rgb(39.99939%,39.99939%,39.99939%);fill-opacity:1;stroke-width:0.03;stroke-linecap:square;stroke-linejoin:miter;stroke:rgb(39.99939%,39.99939%,39.99939%);stroke-opacity:1;stroke-miterlimit:3.239307;" d="M 216.839844 129.273438 L 230.558594 137.707031 L 231.210938 140.988281 L 223.300781 152.855469 L 206.628906 143.140625 Z M 216.839844 129.273438 " transform="matrix(1,0,0,1,-74,-13)"/>
<path style="fill-rule:nonzero;fill:rgb(39.99939%,39.99939%,39.99939%);fill-opacity:1;stroke-width:0.03;stroke-linecap:square;stroke-linejoin:miter;stroke:rgb(39.99939%,39.99939%,39.99939%);stroke-opacity:1;stroke-miterlimit:3.239307;" d="M 206.167969 143.863281 L 222.761719 153.492188 L 213.136719 167.953125 L 196.117188 156.625 Z M 206.167969 143.863281 " transform="matrix(1,0,0,1,-74,-13)"/>
<path style="fill-rule:nonzero;fill:rgb(39.99939%,39.99939%,39.99939%);fill-opacity:1;stroke-width:0.03;stroke-linecap:square;stroke-linejoin:miter;stroke:rgb(39.99939%,39.99939%,39.99939%);stroke-opacity:1;stroke-miterlimit:3.239307;" d="M 195.113281 201.359375 L 215.273438 212.546875 L 208.519531 223.53125 L 204.738281 229.683594 L 197.074219 242.148438 L 176.253906 230.84375 L 180.320312 224.480469 L 187.867188 212.6875 Z M 195.113281 201.359375 " transform="matrix(1,0,0,1,-74,-13)"/>
<path style="fill-rule:nonzero;fill:rgb(39.99939%,39.99939%,39.99939%);fill-opacity:1;stroke-width:0.03;stroke-linecap:square;stroke-linejoin:miter;stroke:rgb(39.99939%,39.99939%,39.99939%);stroke-opacity:1;stroke-miterlimit:3.239307;" d="M 238.34375 101.554688 L 237.652344 103.585938 L 235.804688 105.367188 Z M 238.34375 101.554688 " transform="matrix(1,0,0,1,-74,-13)"/>
<path style="fill-rule:nonzero;fill:rgb(39.99939%,39.99939%,39.99939%);fill-opacity:1;stroke-width:0.03;stroke-linecap:square;stroke-linejoin:miter;stroke:rgb(39.99939%,39.99939%,39.99939%);stroke-opacity:1;stroke-miterlimit:3.239307;" d="M 175.882812 161.269531 L 190.460938 162.738281 L 195.839844 161.34375 L 200.957031 162.660156 L 211.949219 169.652344 L 194.667969 198.378906 L 187.292969 194.375 L 175.421875 187.488281 L 185.660156 172.132812 L 185.292969 171.929688 L 184.921875 171.726562 L 174.46875 186.992188 L 172.105469 185.601562 Z M 175.882812 161.269531 " transform="matrix(1,0,0,1,-74,-13)"/>
<g clip-path="url(#clip25)" clip-rule="nonzero">
<path style=" stroke:none;fill-rule:evenodd;fill:rgb(85.096741%,85.096741%,81.959534%);fill-opacity:0.7;" d="M 114.15625 372 C 114.15625 368.777344 112.875 365.683594 110.59375 363.40625 C 108.316406 361.125 105.222656 359.84375 102 359.84375 C 98.777344 359.84375 95.683594 361.125 93.40625 363.40625 C 91.125 365.683594 89.84375 368.777344 89.84375 372 C 89.84375 375.222656 91.125 378.316406 93.40625 380.59375 C 95.683594 382.875 98.777344 384.15625 102 384.15625 C 105.222656 384.15625 108.316406 382.875 110.59375 380.59375 C 112.875 378.316406 114.15625 375.222656 114.15625 372 Z M 114.15625 372 "/>
</g>
<g clip-path="url(#clip26)" clip-rule="nonzero">
<path style=" stroke:none;fill-rule:evenodd;fill:rgb(85.096741%,85.096741%,81.959534%);fill-opacity:0.7;" d="M 168.15625 371 C 168.15625 367.777344 166.875 364.683594 164.59375 362.40625 C 162.316406 360.125 159.222656 358.84375 156 358.84375 C 152.777344 358.84375 149.683594 360.125 147.40625 362.40625 C 145.125 364.683594 143.84375 367.777344 143.84375 371 C 143.84375 374.222656 145.125 377.316406 147.40625 379.59375 C 149.683594 381.875 152.777344 383.15625 156 383.15625 C 159.222656 383.15625 162.316406 381.875 164.59375 379.59375 C 166.875 377.316406 168.15625 374.222656 168.15625 371 Z M 168.15625 371 "/>
</g>
<g clip-path="url(#clip27)" clip-rule="nonzero">
<path style=" stroke:none;fill-rule:evenodd;fill:rgb(85.096741%,85.096741%,81.959534%);fill-opacity:0.7;" d="M 228.15625 361 C 228.15625 357.777344 226.875 354.683594 224.59375 352.40625 C 222.316406 350.125 219.222656 348.84375 216 348.84375 C 212.777344 348.84375 209.683594 350.125 207.40625 352.40625 C 205.125 354.683594 203.84375 357.777344 203.84375 361 C 203.84375 364.222656 205.125 367.316406 207.40625 369.59375 C 209.683594 371.875 212.777344 373.15625 216 373.15625 C 219.222656 373.15625 222.316406 371.875 224.59375 369.59375 C 226.875 367.316406 228.15625 364.222656 228.15625 361 Z M 228.15625 361 "/>
</g>
<g clip-path="url(#clip28)" clip-rule="nonzero">
<path style=" stroke:none;fill-rule:evenodd;fill:rgb(85.096741%,85.096741%,81.959534%);fill-opacity:0.7;" d="M 322.15625 356 C 322.15625 352.777344 320.875 349.683594 318.59375 347.40625 C 316.316406 345.125 313.222656 343.84375 310 343.84375 C 306.777344 343.84375 303.683594 345.125 301.40625 347.40625 C 299.125 349.683594 297.84375 352.777344 297.84375 356 C 297.84375 359.222656 299.125 362.316406 301.40625 364.59375 C 303.683594 366.875 306.777344 368.15625 310 368.15625 C 313.222656 368.15625 316.316406 366.875 318.59375 364.59375 C 320.875 362.316406 322.15625 359.222656 322.15625 356 Z M 322.15625 356 "/>
</g>
<g clip-path="url(#clip29)" clip-rule="nonzero">
<path style=" stroke:none;fill-rule:evenodd;fill:rgb(85.096741%,85.096741%,81.959534%);fill-opacity:0.7;" d="M 223.15625 355 C 223.15625 351.777344 221.875 348.683594 219.59375 346.40625 C 217.316406 344.125 214.222656 342.84375 211 342.84375 C 207.777344 342.84375 204.683594 344.125 202.40625 346.40625 C 200.125 348.683594 198.84375 351.777344 198.84375 355 C 198.84375 358.222656 200.125 361.316406 202.40625 363.59375 C 204.683594 365.875 207.777344 367.15625 211 367.15625 C 214.222656 367.15625 217.316406 365.875 219.59375 363.59375 C 221.875 361.316406 223.15625 358.222656 223.15625 355 Z M 223.15625 355 "/>
</g>
<path style=" stroke:none;fill-rule:evenodd;fill:rgb(85.096741%,85.096741%,81.959534%);fill-opacity:0.7;" d="M 192.15625 344 C 192.15625 340.777344 190.875 337.683594 188.59375 335.40625 C 186.316406 333.125 183.222656 331.84375 180 331.84375 C 176.777344 331.84375 173.683594 333.125 171.40625 335.40625 C 169.125 337.683594 167.84375 340.777344 167.84375 344 C 167.84375 347.222656 169.125 350.316406 171.40625 352.59375 C 173.683594 354.875 176.777344 356.15625 180 356.15625 C 183.222656 356.15625 186.316406 354.875 188.59375 352.59375 C 190.875 350.316406 192.15625 347.222656 192.15625 344 Z M 192.15625 344 "/>
<path style=" stroke:none;fill-rule:evenodd;fill:rgb(85.096741%,85.096741%,81.959534%);fill-opacity:0.7;" d="M 236.15625 338 C 236.15625 334.777344 234.875 331.683594 232.59375 329.40625 C 230.316406 327.125 227.222656 325.84375 224 325.84375 C 220.777344 325.84375 217.683594 327.125 215.40625 329.40625 C 213.125 331.683594 211.84375 334.777344 211.84375 338 C 211.84375 341.222656 213.125 344.316406 215.40625 346.59375 C 217.683594 348.875 220.777344 350.15625 224 350.15625 C 227.222656 350.15625 230.316406 348.875 232.59375 346.59375 C 234.875 344.316406 236.15625 341.222656 236.15625 338 Z M 236.15625 338 "/>
<path style=" stroke:none;fill-rule:evenodd;fill:rgb(85.096741%,85.096741%,81.959534%);fill-opacity:0.7;" d="M 29.15625 333 C 29.15625 329.777344 27.875 326.683594 25.59375 324.40625 C 23.316406 322.125 20.222656 320.84375 17 320.84375 C 13.777344 320.84375 10.683594 322.125 8.40625 324.40625 C 6.125 326.683594 4.84375 329.777344 4.84375 333 C 4.84375 336.222656 6.125 339.316406 8.40625 341.59375 C 10.683594 343.875 13.777344 345.15625 17 345.15625 C 20.222656 345.15625 23.316406 343.875 25.59375 341.59375 C 27.875 339.316406 29.15625 336.222656 29.15625 333 Z M 29.15625 333 "/>
<path style=" stroke:none;fill-rule:evenodd;fill:rgb(85.096741%,85.096741%,81.959534%);fill-opacity:0.7;" d="M 161.15625 322 C 161.15625 318.777344 159.875 315.683594 157.59375 313.40625 C 155.316406 311.125 152.222656 309.84375 149 309.84375 C 145.777344 309.84375 142.683594 311.125 140.40625 313.40625 C 138.125 315.683594 136.84375 318.777344 136.84375 322 C 136.84375 325.222656 138.125 328.316406 140.40625 330.59375 C 142.683594 332.875 145.777344 334.15625 149 334.15625 C 152.222656 334.15625 155.316406 332.875 157.59375 330.59375 C 159.875 328.316406 161.15625 325.222656 161.15625 322 Z M 161.15625 322 "/>
<path style=" stroke:none;fill-rule:evenodd;fill:rgb(85.096741%,85.096741%,81.959534%);fill-opacity:0.7;" d="M 158.15625 318 C 158.15625 314.777344 156.875 311.683594 154.59375 309.40625 C 152.316406 307.125 149.222656 305.84375 146 305.84375 C 142.777344 305.84375 139.683594 307.125 137.40625 309.40625 C 135.125 311.683594 133.84375 314.777344 133.84375 318 C 133.84375 321.222656 135.125 324.316406 137.40625 326.59375 C 139.683594 328.875 142.777344 330.15625 146 330.15625 C 149.222656 330.15625 152.316406 328.875 154.59375 326.59375 C 156.875 324.316406 158.15625 321.222656 158.15625 318 Z M 158.15625 318 "/>
<path style=" stroke:none;fill-rule:evenodd;fill:rgb(85.096741%,85.096741%,81.959534%);fill-opacity:0.7;" d="M 328.15625 314 C 328.15625 310.777344 326.875 307.683594 324.59375 305.40625 C 322.316406 303.125 319.222656 301.84375 316 301.84375 C 312.777344 301.84375 309.683594 303.125 307.40625 305.40625 C 305.125 307.683594 303.84375 310.777344 303.84375 314 C 303.84375 317.222656 305.125 320.316406 307.40625 322.59375 C 309.683594 324.875 312.777344 326.15625 316 326.15625 C 319.222656 326.15625 322.316406 324.875 324.59375 322.59375 C 326.875 320.316406 328.15625 317.222656 328.15625 314 Z M 328.15625 314 "/>
<path style=" stroke:none;fill-rule:evenodd;fill:rgb(85.096741%,85.096741%,81.959534%);fill-opacity:0.7;" d="M 27.15625 310 C 27.15625 306.777344 25.875 303.683594 23.59375 301.40625 C 21.316406 299.125 18.222656 297.84375 15 297.84375 C 11.777344 297.84375 8.683594 299.125 6.40625 301.40625 C 4.125 303.683594 2.84375 306.777344 2.84375 310 C 2.84375 313.222656 4.125 316.316406 6.40625 318.59375 C 8.683594 320.875 11.777344 322.15625 15 322.15625 C 18.222656 322.15625 21.316406 320.875 23.59375 318.59375 C 25.875 316.316406 27.15625 313.222656 27.15625 310 Z M 27.15625 310 "/>
<path style=" stroke:none;fill-rule:evenodd;fill:rgb(85.096741%,85.096741%,81.959534%);fill-opacity:0.7;" d="M 22.15625 301 C 22.15625 297.777344 20.875 294.683594 18.59375 292.40625 C 16.316406 290.125 13.222656 288.84375 10 288.84375 C 6.777344 288.84375 3.683594 290.125 1.40625 292.40625 C -0.875 294.683594 -2.15625 297.777344 -2.15625 301 C -2.15625 304.222656 -0.875 307.316406 1.40625 309.59375 C 3.683594 311.875 6.777344 313.15625 10 313.15625 C 13.222656 313.15625 16.316406 311.875 18.59375 309.59375 C 20.875 307.316406 22.15625 304.222656 22.15625 301 Z M 22.15625 301 "/>
<path style=" stroke:none;fill-rule:evenodd;fill:rgb(85.096741%,85.096741%,81.959534%);fill-opacity:0.7;" d="M 0.15625 295 C 0.15625 291.777344 -1.125 288.683594 -3.40625 286.40625 C -5.683594 284.125 -8.777344 282.84375 -12 282.84375 C -15.222656 282.84375 -18.316406 284.125 -20.59375 286.40625 C -22.875 288.683594 -24.15625 291.777344 -24.15625 295 C -24.15625 298.222656 -22.875 301.316406 -20.59375 303.59375 C -18.316406 305.875 -15.222656 307.15625 -12 307.15625 C -8.777344 307.15625 -5.683594 305.875 -3.40625 303.59375 C -1.125 301.316406 0.15625 298.222656 0.15625 295 Z M 0.15625 295 "/>
<path style=" stroke:none;fill-rule:evenodd;fill:rgb(85.096741%,85.096741%,81.959534%);fill-opacity:0.7;" d="M 137.15625 291 C 137.15625 287.777344 135.875 284.683594 133.59375 282.40625 C 131.316406 280.125 128.222656 278.84375 125 278.84375 C 121.777344 278.84375 118.683594 280.125 116.40625 282.40625 C 114.125 284.683594 112.84375 287.777344 112.84375 291 C 112.84375 294.222656 114.125 297.316406 116.40625 299.59375 C 118.683594 301.875 121.777344 303.15625 125 303.15625 C 128.222656 303.15625 131.316406 301.875 133.59375 299.59375 C 135.875 297.316406 137.15625 294.222656 137.15625 291 Z M 137.15625 291 "/>
<path style=" stroke:none;fill-rule:evenodd;fill:rgb(85.096741%,85.096741%,81.959534%);fill-opacity:0.7;" d="M 90.15625 287 C 90.15625 283.777344 88.875 280.683594 86.59375 278.40625 C 84.316406 276.125 81.222656 274.84375 78 274.84375 C 74.777344 274.84375 71.683594 276.125 69.40625 278.40625 C 67.125 280.683594 65.84375 283.777344 65.84375 287 C 65.84375 290.222656 67.125 293.316406 69.40625 295.59375 C 71.683594 297.875 74.777344 299.15625 78 299.15625 C 81.222656 299.15625 84.316406 297.875 86.59375 295.59375 C 88.875 293.316406 90.15625 290.222656 90.15625 287 Z M 90.15625 287 "/>
<path style=" stroke:none;fill-rule:evenodd;fill:rgb(85.096741%,85.096741%,81.959534%);fill-opacity:0.7;" d="M 259.15625 273 C 259.15625 269.777344 257.875 266.683594 255.59375 264.40625 C 253.316406 262.125 250.222656 260.84375 247 260.84375 C 243.777344 260.84375 240.683594 262.125 238.40625 264.40625 C 236.125 266.683594 234.84375 269.777344 234.84375 273 C 234.84375 276.222656 236.125 279.316406 238.40625 281.59375 C 240.683594 283.875 243.777344 285.15625 247 285.15625 C 250.222656 285.15625 253.316406 283.875 255.59375 281.59375 C 257.875 279.316406 259.15625 276.222656 259.15625 273 Z M 259.15625 273 "/>
<path style=" stroke:none;fill-rule:evenodd;fill:rgb(85.096741%,85.096741%,81.959534%);fill-opacity:0.7;" d="M 255.15625 272 C 255.15625 268.777344 253.875 265.683594 251.59375 263.40625 C 249.316406 261.125 246.222656 259.84375 243 259.84375 C 239.777344 259.84375 236.683594 261.125 234.40625 263.40625 C 232.125 265.683594 230.84375 268.777344 230.84375 272 C 230.84375 275.222656 232.125 278.316406 234.40625 280.59375 C 236.683594 282.875 239.777344 284.15625 243 284.15625 C 246.222656 284.15625 249.316406 282.875 251.59375 280.59375 C 253.875 278.316406 255.15625 275.222656 255.15625 272 Z M 255.15625 272 "/>
<path style=" stroke:none;fill-rule:evenodd;fill:rgb(85.096741%,85.096741%,81.959534%);fill-opacity:0.7;" d="M 293.15625 260 C 293.15625 256.777344 291.875 253.683594 289.59375 251.40625 C 287.316406 249.125 284.222656 247.84375 281 247.84375 C 277.777344 247.84375 274.683594 249.125 272.40625 251.40625 C 270.125 253.683594 268.84375 256.777344 268.84375 260 C 268.84375 263.222656 270.125 266.316406 272.40625 268.59375 C 274.683594 270.875 277.777344 272.15625 281 272.15625 C 284.222656 272.15625 287.316406 270.875 289.59375 268.59375 C 291.875 266.316406 293.15625 263.222656 293.15625 260 Z M 293.15625 260 "/>
<path style=" stroke:none;fill-rule:evenodd;fill:rgb(85.096741%,85.096741%,81.959534%);fill-opacity:0.7;" d="M 264.15625 250 C 264.15625 246.777344 262.875 243.683594 260.59375 241.40625 C 258.316406 239.125 255.222656 237.84375 252 237.84375 C 248.777344 237.84375 245.683594 239.125 243.40625 241.40625 C 241.125 243.683594 239.84375 246.777344 239.84375 250 C 239.84375 253.222656 241.125 256.316406 243.40625 258.59375 C 245.683594 260.875 248.777344 262.15625 252 262.15625 C 255.222656 262.15625 258.316406 260.875 260.59375 258.59375 C 262.875 256.316406 264.15625 253.222656 264.15625 250 Z M 264.15625 250 "/>
<g clip-path="url(#clip30)" clip-rule="nonzero">
<path style=" stroke:none;fill-rule:evenodd;fill:rgb(85.096741%,85.096741%,81.959534%);fill-opacity:0.7;" d="M 371.15625 203 C 371.15625 199.777344 369.875 196.683594 367.59375 194.40625 C 365.316406 192.125 362.222656 190.84375 359 190.84375 C 355.777344 190.84375 352.683594 192.125 350.40625 194.40625 C 348.125 196.683594 346.84375 199.777344 346.84375 203 C 346.84375 206.222656 348.125 209.316406 350.40625 211.59375 C 352.683594 213.875 355.777344 215.15625 359 215.15625 C 362.222656 215.15625 365.316406 213.875 367.59375 211.59375 C 369.875 209.316406 371.15625 206.222656 371.15625 203 Z M 371.15625 203 "/>
</g>
<path style=" stroke:none;fill-rule:evenodd;fill:rgb(85.096741%,85.096741%,81.959534%);fill-opacity:0.7;" d="M 187.15625 178 C 187.15625 174.777344 185.875 171.683594 183.59375 169.40625 C 181.316406 167.125 178.222656 165.84375 175 165.84375 C 171.777344 165.84375 168.683594 167.125 166.40625 169.40625 C 164.125 171.683594 162.84375 174.777344 162.84375 178 C 162.84375 181.222656 164.125 184.316406 166.40625 186.59375 C 168.683594 188.875 171.777344 190.15625 175 190.15625 C 178.222656 190.15625 181.316406 188.875 183.59375 186.59375 C 185.875 184.316406 187.15625 181.222656 187.15625 178 Z M 187.15625 178 "/>
<path style=" stroke:none;fill-rule:evenodd;fill:rgb(85.096741%,85.096741%,81.959534%);fill-opacity:0.7;" d="M 350.15625 159 C 350.15625 155.777344 348.875 152.683594 346.59375 150.40625 C 344.316406 148.125 341.222656 146.84375 338 146.84375 C 334.777344 146.84375 331.683594 148.125 329.40625 150.40625 C 327.125 152.683594 325.84375 155.777344 325.84375 159 C 325.84375 162.222656 327.125 165.316406 329.40625 167.59375 C 331.683594 169.875 334.777344 171.15625 338 171.15625 C 341.222656 171.15625 344.316406 169.875 346.59375 167.59375 C 348.875 165.316406 350.15625 162.222656 350.15625 159 Z M 350.15625 159 "/>
<path style=" stroke:none;fill-rule:evenodd;fill:rgb(85.096741%,85.096741%,81.959534%);fill-opacity:0.7;" d="M 286.15625 146 C 286.15625 142.777344 284.875 139.683594 282.59375 137.40625 C 280.316406 135.125 277.222656 133.84375 274 133.84375 C 270.777344 133.84375 267.683594 135.125 265.40625 137.40625 C 263.125 139.683594 261.84375 142.777344 261.84375 146 C 261.84375 149.222656 263.125 152.316406 265.40625 154.59375 C 267.683594 156.875 270.777344 158.15625 274 158.15625 C 277.222656 158.15625 280.316406 156.875 282.59375 154.59375 C 284.875 152.316406 286.15625 149.222656 286.15625 146 Z M 286.15625 146 "/>
<path style=" stroke:none;fill-rule:evenodd;fill:rgb(85.096741%,85.096741%,81.959534%);fill-opacity:0.7;" d="M 343.15625 93 C 343.15625 89.777344 341.875 86.683594 339.59375 84.40625 C 337.316406 82.125 334.222656 80.84375 331 80.84375 C 327.777344 80.84375 324.683594 82.125 322.40625 84.40625 C 320.125 86.683594 318.84375 89.777344 318.84375 93 C 318.84375 96.222656 320.125 99.316406 322.40625 101.59375 C 324.683594 103.875 327.777344 105.15625 331 105.15625 C 334.222656 105.15625 337.316406 103.875 339.59375 101.59375 C 341.875 99.316406 343.15625 96.222656 343.15625 93 Z M 343.15625 93 "/>
<path style=" stroke:none;fill-rule:evenodd;fill:rgb(85.096741%,85.096741%,81.959534%);fill-opacity:0.7;" d="M 341.15625 90 C 341.15625 86.777344 339.875 83.683594 337.59375 81.40625 C 335.316406 79.125 332.222656 77.84375 329 77.84375 C 325.777344 77.84375 322.683594 79.125 320.40625 81.40625 C 318.125 83.683594 316.84375 86.777344 316.84375 90 C 316.84375 93.222656 318.125 96.316406 320.40625 98.59375 C 322.683594 100.875 325.777344 102.15625 329 102.15625 C 332.222656 102.15625 335.316406 100.875 337.59375 98.59375 C 339.875 96.316406 341.15625 93.222656 341.15625 90 Z M 341.15625 90 "/>
<path style=" stroke:none;fill-rule:evenodd;fill:rgb(85.096741%,85.096741%,81.959534%);fill-opacity:0.7;" d="M 219.15625 80 C 219.15625 76.777344 217.875 73.683594 215.59375 71.40625 C 213.316406 69.125 210.222656 67.84375 207 67.84375 C 203.777344 67.84375 200.683594 69.125 198.40625 71.40625 C 196.125 73.683594 194.84375 76.777344 194.84375 80 C 194.84375 83.222656 196.125 86.316406 198.40625 88.59375 C 200.683594 90.875 203.777344 92.15625 207 92.15625 C 210.222656 92.15625 213.316406 90.875 215.59375 88.59375 C 217.875 86.316406 219.15625 83.222656 219.15625 80 Z M 219.15625 80 "/>
<path style=" stroke:none;fill-rule:evenodd;fill:rgb(85.096741%,85.096741%,81.959534%);fill-opacity:0.7;" d="M 22.15625 62 C 22.15625 58.777344 20.875 55.683594 18.59375 53.40625 C 16.316406 51.125 13.222656 49.84375 10 49.84375 C 6.777344 49.84375 3.683594 51.125 1.40625 53.40625 C -0.875 55.683594 -2.15625 58.777344 -2.15625 62 C -2.15625 65.222656 -0.875 68.316406 1.40625 70.59375 C 3.683594 72.875 6.777344 74.15625 10 74.15625 C 13.222656 74.15625 16.316406 72.875 18.59375 70.59375 C 20.875 68.316406 22.15625 65.222656 22.15625 62 Z M 22.15625 62 "/>
<path style=" stroke:none;fill-rule:evenodd;fill:rgb(85.096741%,85.096741%,81.959534%);fill-opacity:0.7;" d="M 245.15625 -7 C 245.15625 -10.222656 243.875 -13.316406 241.59375 -15.59375 C 239.316406 -17.875 236.222656 -19.15625 233 -19.15625 C 229.777344 -19.15625 226.683594 -17.875 224.40625 -15.59375 C 222.125 -13.316406 220.84375 -10.222656 220.84375 -7 C 220.84375 -3.777344 222.125 -0.683594 224.40625 1.59375 C 226.683594 3.875 229.777344 5.15625 233 5.15625 C 236.222656 5.15625 239.316406 3.875 241.59375 1.59375 C 243.875 -0.683594 245.15625 -3.777344 245.15625 -7 Z M 245.15625 -7 "/>
<path style=" stroke:none;fill-rule:evenodd;fill:rgb(85.096741%,85.096741%,81.959534%);fill-opacity:0.7;" d="M 70.15625 -11 C 70.15625 -14.222656 68.875 -17.316406 66.59375 -19.59375 C 64.316406 -21.875 61.222656 -23.15625 58 -23.15625 C 54.777344 -23.15625 51.683594 -21.875 49.40625 -19.59375 C 47.125 -17.316406 45.84375 -14.222656 45.84375 -11 C 45.84375 -7.777344 47.125 -4.683594 49.40625 -2.40625 C 51.683594 -0.125 54.777344 1.15625 58 1.15625 C 61.222656 1.15625 64.316406 -0.125 66.59375 -2.40625 C 68.875 -4.683594 70.15625 -7.777344 70.15625 -11 Z M 70.15625 -11 "/>
<g clip-path="url(#clip31)" clip-rule="nonzero">
<path style=" stroke:none;fill-rule:evenodd;fill:rgb(85.096741%,85.096741%,81.959534%);fill-opacity:0.7;" d="M 173.15625 365 C 173.15625 361.777344 171.875 358.683594 169.59375 356.40625 C 167.316406 354.125 164.222656 352.84375 161 352.84375 C 157.777344 352.84375 154.683594 354.125 152.40625 356.40625 C 150.125 358.683594 148.84375 361.777344 148.84375 365 C 148.84375 368.222656 150.125 371.316406 152.40625 373.59375 C 154.683594 375.875 157.777344 377.15625 161 377.15625 C 164.222656 377.15625 167.316406 375.875 169.59375 373.59375 C 171.875 371.316406 173.15625 368.222656 173.15625 365 Z M 173.15625 365 "/>
</g>
<path style=" stroke:none;fill-rule:evenodd;fill:rgb(85.096741%,85.096741%,81.959534%);fill-opacity:0.7;" d="M 182.15625 323 C 182.15625 319.777344 180.875 316.683594 178.59375 314.40625 C 176.316406 312.125 173.222656 310.84375 170 310.84375 C 166.777344 310.84375 163.683594 312.125 161.40625 314.40625 C 159.125 316.683594 157.84375 319.777344 157.84375 323 C 157.84375 326.222656 159.125 329.316406 161.40625 331.59375 C 163.683594 333.875 166.777344 335.15625 170 335.15625 C 173.222656 335.15625 176.316406 333.875 178.59375 331.59375 C 180.875 329.316406 182.15625 326.222656 182.15625 323 Z M 182.15625 323 "/>
<path style=" stroke:none;fill-rule:evenodd;fill:rgb(85.096741%,85.096741%,81.959534%);fill-opacity:0.7;" d="M 46.15625 323 C 46.15625 319.777344 44.875 316.683594 42.59375 314.40625 C 40.316406 312.125 37.222656 310.84375 34 310.84375 C 30.777344 310.84375 27.683594 312.125 25.40625 314.40625 C 23.125 316.683594 21.84375 319.777344 21.84375 323 C 21.84375 326.222656 23.125 329.316406 25.40625 331.59375 C 27.683594 333.875 30.777344 335.15625 34 335.15625 C 37.222656 335.15625 40.316406 333.875 42.59375 331.59375 C 44.875 329.316406 46.15625 326.222656 46.15625 323 Z M 46.15625 323 "/>
<path style=" stroke:none;fill-rule:evenodd;fill:rgb(85.096741%,85.096741%,81.959534%);fill-opacity:0.7;" d="M 186.15625 198 C 186.15625 194.777344 184.875 191.683594 182.59375 189.40625 C 180.316406 187.125 177.222656 185.84375 174 185.84375 C 170.777344 185.84375 167.683594 187.125 165.40625 189.40625 C 163.125 191.683594 161.84375 194.777344 161.84375 198 C 161.84375 201.222656 163.125 204.316406 165.40625 206.59375 C 167.683594 208.875 170.777344 210.15625 174 210.15625 C 177.222656 210.15625 180.316406 208.875 182.59375 206.59375 C 184.875 204.316406 186.15625 201.222656 186.15625 198 Z M 186.15625 198 "/>
<path style=" stroke:none;fill-rule:evenodd;fill:rgb(85.096741%,85.096741%,81.959534%);fill-opacity:0.7;" d="M 323.15625 183 C 323.15625 179.777344 321.875 176.683594 319.59375 174.40625 C 317.316406 172.125 314.222656 170.84375 311 170.84375 C 307.777344 170.84375 304.683594 172.125 302.40625 174.40625 C 300.125 176.683594 298.84375 179.777344 298.84375 183 C 298.84375 186.222656 300.125 189.316406 302.40625 191.59375 C 304.683594 193.875 307.777344 195.15625 311 195.15625 C 314.222656 195.15625 317.316406 193.875 319.59375 191.59375 C 321.875 189.316406 323.15625 186.222656 323.15625 183 Z M 323.15625 183 "/>
<path style=" stroke:none;fill-rule:evenodd;fill:rgb(85.096741%,85.096741%,81.959534%);fill-opacity:0.7;" d="M 182.15625 172 C 182.15625 168.777344 180.875 165.683594 178.59375 163.40625 C 176.316406 161.125 173.222656 159.84375 170 159.84375 C 166.777344 159.84375 163.683594 161.125 161.40625 163.40625 C 159.125 165.683594 157.84375 168.777344 157.84375 172 C 157.84375 175.222656 159.125 178.316406 161.40625 180.59375 C 163.683594 182.875 166.777344 184.15625 170 184.15625 C 173.222656 184.15625 176.316406 182.875 178.59375 180.59375 C 180.875 178.316406 182.15625 175.222656 182.15625 172 Z M 182.15625 172 "/>
<path style=" stroke:none;fill-rule:evenodd;fill:rgb(85.096741%,85.096741%,81.959534%);fill-opacity:0.7;" d="M 286.15625 146 C 286.15625 142.777344 284.875 139.683594 282.59375 137.40625 C 280.316406 135.125 277.222656 133.84375 274 133.84375 C 270.777344 133.84375 267.683594 135.125 265.40625 137.40625 C 263.125 139.683594 261.84375 142.777344 261.84375 146 C 261.84375 149.222656 263.125 152.316406 265.40625 154.59375 C 267.683594 156.875 270.777344 158.15625 274 158.15625 C 277.222656 158.15625 280.316406 156.875 282.59375 154.59375 C 284.875 152.316406 286.15625 149.222656 286.15625 146 Z M 286.15625 146 "/>
<path style=" stroke:none;fill-rule:evenodd;fill:rgb(85.096741%,85.096741%,81.959534%);fill-opacity:0.7;" d="M 217.15625 79 C 217.15625 75.777344 215.875 72.683594 213.59375 70.40625 C 211.316406 68.125 208.222656 66.84375 205 66.84375 C 201.777344 66.84375 198.683594 68.125 196.40625 70.40625 C 194.125 72.683594 192.84375 75.777344 192.84375 79 C 192.84375 82.222656 194.125 85.316406 196.40625 87.59375 C 198.683594 89.875 201.777344 91.15625 205 91.15625 C 208.222656 91.15625 211.316406 89.875 213.59375 87.59375 C 215.875 85.316406 217.15625 82.222656 217.15625 79 Z M 217.15625 79 "/>
<path style=" stroke:none;fill-rule:evenodd;fill:rgb(85.096741%,85.096741%,81.959534%);fill-opacity:0.7;" d="M 148.15625 299 C 148.15625 295.777344 146.875 292.683594 144.59375 290.40625 C 142.316406 288.125 139.222656 286.84375 136 286.84375 C 132.777344 286.84375 129.683594 288.125 127.40625 290.40625 C 125.125 292.683594 123.84375 295.777344 123.84375 299 C 123.84375 302.222656 125.125 305.316406 127.40625 307.59375 C 129.683594 309.875 132.777344 311.15625 136 311.15625 C 139.222656 311.15625 142.316406 309.875 144.59375 307.59375 C 146.875 305.316406 148.15625 302.222656 148.15625 299 Z M 148.15625 299 "/>
<g clip-path="url(#clip32)" clip-rule="nonzero">
<path style=" stroke:none;fill-rule:evenodd;fill:rgb(85.096741%,85.096741%,81.959534%);fill-opacity:0.7;" d="M 44.15625 367 C 44.15625 363.777344 42.875 360.683594 40.59375 358.40625 C 38.316406 356.125 35.222656 354.84375 32 354.84375 C 28.777344 354.84375 25.683594 356.125 23.40625 358.40625 C 21.125 360.683594 19.84375 363.777344 19.84375 367 C 19.84375 370.222656 21.125 373.316406 23.40625 375.59375 C 25.683594 377.875 28.777344 379.15625 32 379.15625 C 35.222656 379.15625 38.316406 377.875 40.59375 375.59375 C 42.875 373.316406 44.15625 370.222656 44.15625 367 Z M 44.15625 367 "/>
</g>
<g clip-path="url(#clip33)" clip-rule="nonzero">
<path style=" stroke:none;fill-rule:nonzero;fill:rgb(99.998474%,99.998474%,30.587769%);fill-opacity:0.8;" d="M 367.535156 245.351562 L 341.21875 290.933594 L 393.847656 290.933594 Z M 367.535156 245.351562 "/>
</g>
<g clip-path="url(#clip34)" clip-rule="nonzero">
<path style="fill:none;stroke-width:0.288;stroke-linecap:square;stroke-linejoin:miter;stroke:rgb(0%,0%,0%);stroke-opacity:0.8;stroke-miterlimit:3.25;" d="M 441.535156 258.351562 L 415.21875 303.933594 L 467.847656 303.933594 Z M 441.535156 258.351562 " transform="matrix(1,0,0,1,-74,-13)"/>
</g>
<g clip-path="url(#clip35)" clip-rule="nonzero">
<path style=" stroke:none;fill-rule:nonzero;fill:rgb(99.998474%,99.998474%,30.587769%);fill-opacity:0.8;" d="M 358.417969 -15.976562 L 332.101562 29.605469 L 384.734375 29.605469 Z M 358.417969 -15.976562 "/>
</g>
<g clip-path="url(#clip36)" clip-rule="nonzero">
<path style="fill:none;stroke-width:0.288;stroke-linecap:square;stroke-linejoin:miter;stroke:rgb(0%,0%,0%);stroke-opacity:0.8;stroke-miterlimit:3.25;" d="M 432.417969 -2.976562 L 406.101562 42.605469 L 458.734375 42.605469 Z M 432.417969 -2.976562 " transform="matrix(1,0,0,1,-74,-13)"/>
</g>
<path style="fill-rule:nonzero;fill:rgb(99.998474%,99.998474%,30.587769%);fill-opacity:0.8;stroke-width:0.288;stroke-linecap:square;stroke-linejoin:miter;stroke:rgb(0%,0%,0%);stroke-opacity:0.8;stroke-miterlimit:3.25;" d="M 177.167969 39.566406 L 150.851562 85.144531 L 203.480469 85.144531 Z M 177.167969 39.566406 " transform="matrix(1,0,0,1,-74,-13)"/>
</g>
</svg>
