<?xml version="1.0" encoding="UTF-8"?>
<svg xmlns="http://www.w3.org/2000/svg" xmlns:xlink="http://www.w3.org/1999/xlink" width="361pt" height="361pt" viewBox="0 0 361 361" version="1.1">
<defs>
<clipPath id="clip1">
  <path d="M 306 35 L 360 35 L 360 221 L 306 221 Z M 306 35 "/>
</clipPath>
<clipPath id="clip2">
  <path d="M 311 146 L 360 146 L 360 232 L 311 232 Z M 311 146 "/>
</clipPath>
<clipPath id="clip3">
  <path d="M 317 0 L 360 0 L 360 189 L 317 189 Z M 317 0 "/>
</clipPath>
<clipPath id="clip4">
  <path d="M 356 222 L 360 222 L 360 230 L 356 230 Z M 356 222 "/>
</clipPath>
<clipPath id="clip5">
  <path d="M 312 237 L 357 237 L 357 360 L 312 360 Z M 312 237 "/>
</clipPath>
<clipPath id="clip6">
  <path d="M 228 267 L 308 267 L 308 360 L 228 360 Z M 228 267 "/>
</clipPath>
<clipPath id="clip7">
  <path d="M 227 308 L 285 308 L 285 360 L 227 360 Z M 227 308 "/>
</clipPath>
<clipPath id="clip8">
  <path d="M 81 191 L 271 191 L 271 360 L 81 360 Z M 81 191 "/>
</clipPath>
<clipPath id="clip9">
  <path d="M 0 158 L 203 158 L 203 360 L 0 360 Z M 0 158 "/>
</clipPath>
<clipPath id="clip10">
  <path d="M 0 194 L 114 194 L 114 360 L 0 360 Z M 0 194 "/>
</clipPath>
<clipPath id="clip11">
  <path d="M 0 226 L 39 226 L 39 360 L 0 360 Z M 0 226 "/>
</clipPath>
<clipPath id="clip12">
  <path d="M 90 348 L 164 348 L 164 360 L 90 360 Z M 90 348 "/>
</clipPath>
<clipPath id="clip13">
  <path d="M 232 333 L 306 333 L 306 360 L 232 360 Z M 232 333 "/>
</clipPath>
<clipPath id="clip14">
  <path d="M 0 300 L 64 300 L 64 360 L 0 360 Z M 0 300 "/>
</clipPath>
<clipPath id="clip15">
  <path d="M 287 74 L 360 74 L 360 148 L 287 148 Z M 287 74 "/>
</clipPath>
</defs>
<g id="surface2457">
<path style="fill-rule:nonzero;fill:rgb(0%,0%,0%);fill-opacity:1;stroke-width:0.03;stroke-linecap:square;stroke-linejoin:miter;stroke:rgb(0%,0%,0%);stroke-opacity:1;stroke-miterlimit:10;" d="M 0 178 L 360 178 L 360 -182 L 0 -182 Z M 0 178 " transform="matrix(1,0,0,1,0,182)"/>
<g clip-path="url(#clip1)" clip-rule="nonzero">
<path style=" stroke:none;fill-rule:nonzero;fill:rgb(39.99939%,39.99939%,39.99939%);fill-opacity:0.3;" d="M 368.089844 161.726562 L 380.929688 188.980469 L 311.398438 220.175781 L 306.121094 35.277344 L 306.972656 35.007812 L 309.25 36.351562 Z M 368.089844 161.726562 "/>
</g>
<path style=" stroke:none;fill-rule:nonzero;fill:rgb(39.99939%,39.99939%,39.99939%);fill-opacity:0.3;" d="M 313 158.191406 L 321.058594 158.125 L 321.109375 165.984375 L 325.234375 165.953125 L 325.183594 158.089844 L 333.242188 158.023438 L 333.359375 176.363281 L 325.300781 176.433594 L 325.253906 169.097656 L 321.128906 169.128906 L 321.175781 176.46875 L 313.117188 176.535156 Z M 313 158.191406 "/>
<path style=" stroke:none;fill-rule:nonzero;fill:rgb(39.99939%,39.99939%,39.99939%);fill-opacity:0.3;" d="M 313.359375 118.429688 L 321.417969 118.359375 L 321.464844 126.222656 L 325.589844 126.1875 L 325.542969 118.324219 L 333.601562 118.257812 L 333.714844 136.597656 L 325.65625 136.667969 L 325.609375 129.332031 L 321.484375 129.367188 L 321.53125 136.703125 L 313.472656 136.769531 Z M 313.359375 118.429688 "/>
<g clip-path="url(#clip2)" clip-rule="nonzero">
<path style=" stroke:none;fill-rule:nonzero;fill:rgb(39.99939%,39.99939%,39.99939%);fill-opacity:0.3;" d="M 477.0625 146.75 L 509.253906 172.484375 L 504.324219 172.769531 L 498.8125 173.316406 L 493.367188 174.394531 L 488.070312 176.011719 L 379.449219 222.484375 L 369.769531 226.113281 L 356.308594 229.316406 L 351.398438 230.339844 L 345.90625 231.054688 L 336.816406 231.828125 L 330.996094 231.945312 L 321.019531 230.957031 L 315.351562 228.742188 L 312.171875 224.589844 L 311.398438 220.179688 L 381.011719 189.03125 Z M 477.0625 146.75 "/>
</g>
<g clip-path="url(#clip3)" clip-rule="nonzero">
<path style=" stroke:none;fill-rule:nonzero;fill:rgb(39.99939%,39.99939%,39.99939%);fill-opacity:0.3;" d="M 327.589844 41.042969 L 333.277344 41.304688 L 337.394531 40.355469 L 482.398438 -27.40625 L 492.5 -6.726562 L 363.417969 50.6875 L 409.515625 146.070312 L 659.539062 30.90625 L 658.824219 49.78125 L 640.546875 74.214844 L 476.882812 146.429688 L 381.042969 188.917969 L 368.207031 161.722656 L 372.160156 160.027344 L 376.113281 158.335938 L 317.035156 38.699219 L 320.125 39.707031 L 322.472656 40.242188 Z M 327.589844 41.042969 "/>
</g>
<g clip-path="url(#clip4)" clip-rule="nonzero">
<path style=" stroke:none;fill-rule:nonzero;fill:rgb(39.99939%,39.99939%,39.99939%);fill-opacity:0.3;" d="M 379.449219 222.484375 L 372.59375 225.414062 L 361.542969 228.226562 L 356.308594 229.316406 L 369.769531 226.113281 Z M 379.449219 222.484375 "/>
</g>
<path style=" stroke:none;fill-rule:nonzero;fill:rgb(39.99939%,39.99939%,39.99939%);fill-opacity:0.3;" d="M 345.90625 231.054688 L 340.539062 231.753906 L 336.816406 231.828125 Z M 345.90625 231.054688 "/>
<g clip-path="url(#clip5)" clip-rule="nonzero">
<path style=" stroke:none;fill-rule:nonzero;fill:rgb(39.99939%,39.99939%,39.99939%);fill-opacity:0.3;" d="M 314.089844 244.765625 L 315.996094 241.589844 L 319.339844 239.316406 L 323.398438 237.953125 L 333.191406 237.484375 L 341.316406 237.699219 L 348.007812 239.277344 L 353.03125 243.351562 L 355.429688 248.105469 L 356.390625 252.636719 L 356.160156 257.171875 L 354.019531 263.066406 L 352.355469 268.28125 L 349.027344 280.070312 L 341.664062 307.730469 L 339.433594 316.957031 L 339.105469 334.28125 L 339.53125 348.347656 L 340.074219 361.566406 L 341.625 375.558594 L 339.6875 377.566406 L 337.136719 379.578125 L 333.699219 381.507812 L 329.292969 382.683594 L 324.710938 382.355469 L 321.003906 381.023438 L 318.710938 378.683594 L 316.988281 375.929688 L 316.320312 372.414062 L 316.667969 369.40625 L 316.304688 356.054688 L 315.429688 339.617188 L 312.902344 249.296875 Z M 314.089844 244.765625 "/>
</g>
<g clip-path="url(#clip6)" clip-rule="nonzero">
<path style=" stroke:none;fill-rule:nonzero;fill:rgb(39.99939%,39.99939%,39.99939%);fill-opacity:0.3;" d="M 265.289062 283.296875 L 290.390625 268.449219 L 295.265625 267.574219 L 299.230469 268.726562 L 302.886719 269.878906 L 305.332031 274.210938 L 307.90625 361.804688 L 307.609375 366.722656 L 306.703125 371.636719 L 305.144531 377.820312 L 301.761719 382.792969 L 298.21875 386.328125 L 294.941406 389.199219 L 291.660156 391.046875 L 289.046875 392.277344 L 286.1875 392.894531 L 284.113281 392.574219 L 280.0625 386.5 L 270.09375 372 L 261.03125 362.03125 L 228.414062 308.570312 Z M 265.289062 283.296875 "/>
</g>
<path style=" stroke:none;fill-rule:nonzero;fill:rgb(39.99939%,39.99939%,39.99939%);fill-opacity:0.3;" d="M 184.105469 119.390625 L 187.003906 125.546875 L 183.460938 127.046875 L 186.703125 133.933594 L 190.195312 132.453125 L 192.734375 137.710938 L 187.222656 140.050781 L 185.617188 136.636719 L 180.144531 138.960938 L 181.75 142.371094 L 176.242188 144.710938 L 173.753906 139.429688 L 177.296875 137.925781 L 174.054688 131.042969 L 170.511719 132.546875 L 167.613281 126.390625 L 173.121094 124.054688 L 175.140625 128.339844 L 180.613281 126.015625 L 178.59375 121.730469 Z M 184.105469 119.390625 "/>
<path style=" stroke:none;fill-rule:nonzero;fill:rgb(39.99939%,39.99939%,39.99939%);fill-opacity:0.3;" d="M 185.460938 118.746094 L 190.972656 116.40625 L 192.988281 120.691406 L 198.460938 118.367188 L 196.445312 114.082031 L 201.953125 111.742188 L 204.851562 117.898438 L 201.308594 119.402344 L 204.550781 126.285156 L 208.09375 124.78125 L 210.582031 130.0625 L 205.074219 132.402344 L 203.464844 128.988281 L 197.992188 131.3125 L 199.601562 134.726562 L 194.089844 137.0625 L 191.601562 131.78125 L 195.144531 130.28125 L 191.902344 123.394531 L 188.359375 124.898438 Z M 185.460938 118.746094 "/>
<path style=" stroke:none;fill-rule:nonzero;fill:rgb(39.99939%,39.99939%,39.99939%);fill-opacity:0.3;" d="M 239.875 131.445312 L 299.882812 111.414062 L 303.96875 189.753906 L 241.828125 212.96875 L 238.78125 212.394531 L 237.558594 209.507812 L 231.050781 140.707031 L 233.480469 135.789062 Z M 239.875 131.445312 "/>
<path style=" stroke:none;fill-rule:nonzero;fill:rgb(39.99939%,39.99939%,39.99939%);fill-opacity:0.3;" d="M 92.621094 161.445312 L 209.484375 189.351562 L 216.171875 76.292969 L 271.121094 51.726562 L 277.824219 51.429688 L 284.53125 51.996094 L 288.496094 52.859375 L 293.070312 54.875 L 297.34375 58.628906 L 299.179688 63.253906 L 299.851562 105.171875 L 233.144531 128.828125 L 225.195312 133.808594 L 223.785156 140.542969 L 224.640625 147.917969 L 231.761719 211.261719 L 235.734375 217.90625 L 240.308594 219.921875 L 246.40625 220.492188 L 303.371094 199.007812 L 305.472656 243.207031 L 305.480469 247.308594 L 304.410156 252.4375 L 300.984375 257.253906 L 232.164062 296.667969 L 224.542969 296.679688 L 217.527344 292.351562 L 177.769531 230.757812 L 170.398438 222.355469 L 163.171875 211.617188 L 140.519531 195.304688 L 117.085938 190.238281 L 114.25 189.539062 L 112.914062 189.335938 L 106.992188 188.054688 L 103.109375 188.054688 L 96.195312 187.566406 L 80.097656 187.933594 L 73.734375 186.832031 L 69.769531 185.101562 L 60.191406 171.171875 L 58.964844 169.027344 L 51.589844 151.8125 L 51.429688 151.304688 Z M 92.621094 161.445312 "/>
<path style=" stroke:none;fill-rule:nonzero;fill:rgb(39.99939%,39.99939%,39.99939%);fill-opacity:0.3;" d="M 228.402344 308.558594 L 228.824219 307.648438 L 230.03125 305.480469 L 231.441406 303.820312 L 233.253906 302.222656 L 236.492188 300.328125 L 265.289062 283.296875 L 228.414062 308.570312 Z M 228.402344 308.558594 "/>
<path style=" stroke:none;fill-rule:nonzero;fill:rgb(39.99939%,39.99939%,39.99939%);fill-opacity:0.3;" d="M 183.019531 177.582031 L 184.238281 171.914062 L 188.039062 172.648438 L 189.625 165.261719 L 185.824219 164.523438 L 187.242188 157.917969 L 193.152344 159.0625 L 192.167969 163.664062 L 198.039062 164.800781 L 199.027344 160.199219 L 204.941406 161.34375 L 203.523438 167.949219 L 199.722656 167.214844 L 198.136719 174.601562 L 201.9375 175.339844 L 200.722656 181.007812 L 194.808594 179.863281 L 195.59375 176.199219 L 189.722656 175.0625 L 188.933594 178.726562 Z M 183.019531 177.582031 "/>
<path style=" stroke:none;fill-rule:nonzero;fill:rgb(39.99939%,39.99939%,39.99939%);fill-opacity:0.3;" d="M 155.636719 156.109375 L 161.605469 157.265625 L 160.832031 160.875 L 168.617188 162.378906 L 169.390625 158.769531 L 176.347656 160.117188 L 175.144531 165.730469 L 170.296875 164.792969 L 169.101562 170.371094 L 173.945312 171.308594 L 172.742188 176.921875 L 165.785156 175.578125 L 166.558594 171.96875 L 158.773438 170.460938 L 158 174.070312 L 152.03125 172.914062 L 153.234375 167.300781 L 157.09375 168.046875 L 158.289062 162.472656 L 154.429688 161.726562 Z M 155.636719 156.109375 "/>
<path style=" stroke:none;fill-rule:nonzero;fill:rgb(39.99939%,39.99939%,39.99939%);fill-opacity:0.3;" d="M 125.125 149.089844 L 131.09375 150.246094 L 130.320312 153.855469 L 138.101562 155.359375 L 138.878906 151.75 L 145.835938 153.097656 L 144.628906 158.710938 L 139.785156 157.773438 L 138.585938 163.351562 L 143.433594 164.289062 L 142.230469 169.902344 L 135.269531 168.554688 L 136.046875 164.949219 L 128.261719 163.441406 L 127.488281 167.050781 L 121.515625 165.894531 L 122.722656 160.28125 L 126.582031 161.027344 L 127.777344 155.453125 L 123.917969 154.703125 Z M 125.125 149.089844 "/>
<path style=" stroke:none;fill-rule:nonzero;fill:rgb(39.99939%,39.99939%,39.99939%);fill-opacity:0.3;" d="M 170.398438 222.355469 L 165.863281 217.1875 L 156.703125 207.371094 L 149.210938 202.585938 L 141.335938 198.425781 L 136.691406 196.335938 L 125.644531 192.347656 L 117.085938 190.238281 L 140.519531 195.304688 L 163.171875 211.617188 Z M 170.398438 222.355469 "/>
<path style=" stroke:none;fill-rule:nonzero;fill:rgb(39.99939%,39.99939%,39.99939%);fill-opacity:0.3;" d="M 112.914062 189.335938 L 105.714844 188.242188 L 103.109375 188.054688 L 106.992188 188.054688 Z M 112.914062 189.335938 "/>
<path style=" stroke:none;fill-rule:nonzero;fill:rgb(39.99939%,39.99939%,39.99939%);fill-opacity:0.3;" d="M 60.191406 171.171875 L 57.855469 167.773438 L 53.878906 159.105469 L 51.589844 151.8125 L 58.964844 169.027344 Z M 60.191406 171.171875 "/>
<g clip-path="url(#clip7)" clip-rule="nonzero">
<path style=" stroke:none;fill-rule:nonzero;fill:rgb(39.99939%,39.99939%,39.99939%);fill-opacity:0.3;" d="M 227.484375 311.480469 L 228.085938 309.246094 L 228.402344 308.558594 L 228.414062 308.570312 L 261.03125 362.03125 L 270.09375 372 L 280.0625 386.5 L 284.113281 392.574219 L 283.546875 392.488281 L 280.910156 392.082031 L 277.835938 388.199219 Z M 227.484375 311.480469 "/>
</g>
<g clip-path="url(#clip8)" clip-rule="nonzero">
<path style=" stroke:none;fill-rule:nonzero;fill:rgb(39.99939%,39.99939%,39.99939%);fill-opacity:0.3;" d="M 87.175781 213.054688 L 82.894531 205.253906 L 81.972656 200.917969 L 82.578125 196.871094 L 84.707031 193.6875 L 89.273438 191.65625 L 95.0625 191.070312 L 102.074219 191.929688 L 108.78125 192.785156 L 116.402344 194.511719 L 129.210938 198.828125 L 138.363281 203.441406 L 149.34375 210.652344 L 156.667969 215.847656 L 164.300781 223.355469 L 171.019531 233.171875 L 184.457031 251.65625 L 264.1875 380.648438 L 267.296875 384.53125 L 269.332031 387.316406 L 270.375 390.050781 L 270.042969 392.074219 L 268.355469 393.722656 L 265.40625 395.460938 L 216.496094 399 L 208.265625 399.011719 L 205.214844 396.992188 L 199.21875 390.636719 Z M 87.175781 213.054688 "/>
</g>
<g clip-path="url(#clip9)" clip-rule="nonzero">
<path style=" stroke:none;fill-rule:nonzero;fill:rgb(39.99939%,39.99939%,39.99939%);fill-opacity:0.3;" d="M -4.523438 197.097656 L -6.183594 194.230469 L -7.097656 191.472656 L -7.445312 188.171875 L -7.109375 184.65625 L -5.574219 181.515625 L -2.742188 179.390625 L 1.425781 177.136719 L 32.289062 159.0625 L 33.859375 158.78125 L 35.65625 159.058594 L 38.59375 162.078125 L 40.964844 164.753906 L 44.453125 167.492188 L 48.332031 169.042969 L 54.050781 170.070312 L 188.292969 384.777344 L 191.082031 389.023438 L 196.015625 393.890625 L 202.585938 398.078125 L 202.792969 398.957031 L 201.964844 400.136719 L 139.664062 406.824219 L 135.070312 407.121094 L 131.085938 405.386719 L 128.019531 403.066406 L 125.566406 400.164062 Z M -4.523438 197.097656 "/>
</g>
<g clip-path="url(#clip10)" clip-rule="nonzero">
<path style=" stroke:none;fill-rule:nonzero;fill:rgb(39.99939%,39.99939%,39.99939%);fill-opacity:0.3;" d="M -66.035156 227.59375 L -67.574219 224.109375 L -66.96875 219.75 L -64.417969 215.910156 L -57.074219 210.960938 L -39.941406 201.929688 L -28.316406 194.070312 L -22.496094 194.0625 L -18.511719 195.21875 L -13.914062 198.117188 L -9.925781 202.179688 L 113.308594 395.824219 L 113.929688 400.761719 L 112.101562 406.863281 L 107.9375 409.28125 L 55.15625 415.078125 L 51.007812 413.558594 L 47.1875 411.023438 L 44.734375 408.410156 Z M -66.035156 227.59375 "/>
</g>
<g clip-path="url(#clip11)" clip-rule="nonzero">
<path style=" stroke:none;fill-rule:nonzero;fill:rgb(39.99939%,39.99939%,39.99939%);fill-opacity:0.3;" d="M -189.382812 292.636719 L -185.714844 288.855469 L -177.1875 283.628906 L -168.929688 278.097656 L -160.628906 272.550781 L -149.347656 266.453125 L -134.050781 256.84375 L -121.199219 249.273438 L -103.078125 237.523438 L -88.085938 226.753906 L -83.1875 226.457031 L -77.980469 227.902344 L -73.6875 230.507812 L -68.777344 237.472656 L 38.398438 408.929688 L 38.019531 412.085938 L 36.878906 415.324219 L 35.042969 417.648438 L -9.96875 421.488281 L -17.011719 421.789062 L -23.136719 420.925781 L -28.957031 420.0625 L -35.390625 418.328125 L -44.582031 416.019531 L -51.933594 413.125 L -140.53125 353.410156 L -164.816406 336.175781 L -175.238281 328.636719 L -184.746094 319.644531 L -194.257812 309.78125 L -195.421875 304.296875 L -192.8125 296.988281 Z M -189.382812 292.636719 "/>
</g>
<path style="fill-rule:nonzero;fill:rgb(39.99939%,39.99939%,39.99939%);fill-opacity:1;stroke-width:0.03;stroke-linecap:square;stroke-linejoin:miter;stroke:rgb(39.99939%,39.99939%,39.99939%);stroke-opacity:1;stroke-miterlimit:3.239307;" d="M 258.105469 132.390625 L 261.003906 138.546875 L 257.460938 140.046875 L 260.703125 146.933594 L 264.195312 145.453125 L 266.734375 150.710938 L 261.222656 153.050781 L 259.617188 149.636719 L 254.144531 151.960938 L 255.75 155.371094 L 250.242188 157.710938 L 247.753906 152.429688 L 251.296875 150.925781 L 248.054688 144.042969 L 244.511719 145.546875 L 241.613281 139.390625 L 247.121094 137.054688 L 249.140625 141.339844 L 254.613281 139.015625 L 252.59375 134.730469 Z M 258.105469 132.390625 " transform="matrix(1,0,0,1,-74,-13)"/>
<path style="fill-rule:nonzero;fill:rgb(39.99939%,39.99939%,39.99939%);fill-opacity:1;stroke-width:0.03;stroke-linecap:square;stroke-linejoin:miter;stroke:rgb(39.99939%,39.99939%,39.99939%);stroke-opacity:1;stroke-miterlimit:3.239307;" d="M 259.460938 131.746094 L 264.972656 129.40625 L 266.988281 133.691406 L 272.460938 131.367188 L 270.445312 127.082031 L 275.953125 124.742188 L 278.851562 130.898438 L 275.308594 132.402344 L 278.550781 139.285156 L 282.09375 137.78125 L 284.582031 143.0625 L 279.074219 145.402344 L 277.464844 141.988281 L 271.992188 144.3125 L 273.601562 147.726562 L 268.089844 150.0625 L 265.601562 144.78125 L 269.144531 143.28125 L 265.902344 136.394531 L 262.359375 137.898438 Z M 259.460938 131.746094 " transform="matrix(1,0,0,1,-74,-13)"/>
<path style="fill-rule:nonzero;fill:rgb(39.99939%,39.99939%,39.99939%);fill-opacity:1;stroke-width:0.03;stroke-linecap:square;stroke-linejoin:miter;stroke:rgb(39.99939%,39.99939%,39.99939%);stroke-opacity:1;stroke-miterlimit:3.239307;" d="M 313.875 144.445312 L 373.882812 124.414062 L 377.96875 202.753906 L 315.828125 225.96875 L 312.78125 225.394531 L 311.558594 222.507812 L 305.050781 153.707031 L 307.480469 148.789062 Z M 313.875 144.445312 " transform="matrix(1,0,0,1,-74,-13)"/>
<path style="fill-rule:nonzero;fill:rgb(39.99939%,39.99939%,39.99939%);fill-opacity:1;stroke-width:0.03;stroke-linecap:square;stroke-linejoin:miter;stroke:rgb(39.99939%,39.99939%,39.99939%);stroke-opacity:1;stroke-miterlimit:3.239307;" d="M 166.621094 174.445312 L 283.484375 202.351562 L 290.171875 89.292969 L 345.121094 64.726562 L 351.824219 64.429688 L 358.53125 64.996094 L 362.496094 65.859375 L 367.070312 67.875 L 371.34375 71.628906 L 373.179688 76.253906 L 373.851562 118.171875 L 307.144531 141.828125 L 299.195312 146.808594 L 297.785156 153.542969 L 298.640625 160.917969 L 305.761719 224.261719 L 309.734375 230.90625 L 314.308594 232.921875 L 320.40625 233.492188 L 377.371094 212.007812 L 379.472656 256.207031 L 379.480469 260.308594 L 378.410156 265.4375 L 374.984375 270.253906 L 306.164062 309.667969 L 298.542969 309.679688 L 291.527344 305.351562 L 251.769531 243.757812 L 244.398438 235.355469 L 237.171875 224.617188 L 214.519531 208.304688 L 191.085938 203.238281 L 188.25 202.539062 L 186.914062 202.335938 L 180.992188 201.054688 L 177.109375 201.054688 L 170.195312 200.566406 L 154.097656 200.933594 L 147.734375 199.832031 L 143.769531 198.101562 L 134.191406 184.171875 L 132.964844 182.027344 L 125.589844 164.8125 L 125.429688 164.304688 Z M 166.621094 174.445312 " transform="matrix(1,0,0,1,-74,-13)"/>
<path style="fill-rule:nonzero;fill:rgb(39.99939%,39.99939%,39.99939%);fill-opacity:1;stroke-width:0.03;stroke-linecap:square;stroke-linejoin:miter;stroke:rgb(39.99939%,39.99939%,39.99939%);stroke-opacity:1;stroke-miterlimit:3.239307;" d="M 302.402344 321.558594 L 302.824219 320.648438 L 304.03125 318.480469 L 305.441406 316.820312 L 307.253906 315.222656 L 310.492188 313.328125 L 339.289062 296.296875 L 302.414062 321.570312 Z M 302.402344 321.558594 " transform="matrix(1,0,0,1,-74,-13)"/>
<path style="fill-rule:nonzero;fill:rgb(39.99939%,39.99939%,39.99939%);fill-opacity:1;stroke-width:0.03;stroke-linecap:square;stroke-linejoin:miter;stroke:rgb(39.99939%,39.99939%,39.99939%);stroke-opacity:1;stroke-miterlimit:3.239307;" d="M 257.019531 190.582031 L 258.238281 184.914062 L 262.039062 185.648438 L 263.625 178.261719 L 259.824219 177.523438 L 261.242188 170.917969 L 267.152344 172.0625 L 266.167969 176.664062 L 272.039062 177.800781 L 273.027344 173.199219 L 278.941406 174.34375 L 277.523438 180.949219 L 273.722656 180.214844 L 272.136719 187.601562 L 275.9375 188.339844 L 274.722656 194.007812 L 268.808594 192.863281 L 269.59375 189.199219 L 263.722656 188.0625 L 262.933594 191.726562 Z M 257.019531 190.582031 " transform="matrix(1,0,0,1,-74,-13)"/>
<path style="fill-rule:nonzero;fill:rgb(39.99939%,39.99939%,39.99939%);fill-opacity:1;stroke-width:0.03;stroke-linecap:square;stroke-linejoin:miter;stroke:rgb(39.99939%,39.99939%,39.99939%);stroke-opacity:1;stroke-miterlimit:3.239307;" d="M 229.636719 169.109375 L 235.605469 170.265625 L 234.832031 173.875 L 242.617188 175.378906 L 243.390625 171.769531 L 250.347656 173.117188 L 249.144531 178.730469 L 244.296875 177.792969 L 243.101562 183.371094 L 247.945312 184.308594 L 246.742188 189.921875 L 239.785156 188.578125 L 240.558594 184.96875 L 232.773438 183.460938 L 232 187.070312 L 226.03125 185.914062 L 227.234375 180.300781 L 231.09375 181.046875 L 232.289062 175.472656 L 228.429688 174.726562 Z M 229.636719 169.109375 " transform="matrix(1,0,0,1,-74,-13)"/>
<path style="fill-rule:nonzero;fill:rgb(39.99939%,39.99939%,39.99939%);fill-opacity:1;stroke-width:0.03;stroke-linecap:square;stroke-linejoin:miter;stroke:rgb(39.99939%,39.99939%,39.99939%);stroke-opacity:1;stroke-miterlimit:3.239307;" d="M 199.125 162.089844 L 205.09375 163.246094 L 204.320312 166.855469 L 212.101562 168.359375 L 212.878906 164.75 L 219.835938 166.097656 L 218.628906 171.710938 L 213.785156 170.773438 L 212.585938 176.351562 L 217.433594 177.289062 L 216.230469 182.902344 L 209.269531 181.554688 L 210.046875 177.949219 L 202.261719 176.441406 L 201.488281 180.050781 L 195.515625 178.894531 L 196.722656 173.28125 L 200.582031 174.027344 L 201.777344 168.453125 L 197.917969 167.703125 Z M 199.125 162.089844 " transform="matrix(1,0,0,1,-74,-13)"/>
<g clip-path="url(#clip12)" clip-rule="nonzero">
<path style=" stroke:none;fill-rule:evenodd;fill:rgb(85.096741%,85.096741%,81.959534%);fill-opacity:0.7;" d="M 163.246094 385 C 163.246094 375.386719 159.425781 366.167969 152.628906 359.371094 C 145.832031 352.574219 136.613281 348.753906 127 348.753906 C 117.386719 348.753906 108.167969 352.574219 101.371094 359.371094 C 94.574219 366.167969 90.753906 375.386719 90.753906 385 C 90.753906 394.613281 94.574219 403.832031 101.371094 410.628906 C 108.167969 417.425781 117.386719 421.246094 127 421.246094 C 136.613281 421.246094 145.832031 417.425781 152.628906 410.628906 C 159.425781 403.832031 163.246094 394.613281 163.246094 385 Z M 163.246094 385 "/>
</g>
<g clip-path="url(#clip13)" clip-rule="nonzero">
<path style=" stroke:none;fill-rule:evenodd;fill:rgb(85.096741%,85.096741%,81.959534%);fill-opacity:0.7;" d="M 305.246094 370 C 305.246094 360.386719 301.425781 351.167969 294.628906 344.371094 C 287.832031 337.574219 278.613281 333.753906 269 333.753906 C 259.386719 333.753906 250.167969 337.574219 243.371094 344.371094 C 236.574219 351.167969 232.753906 360.386719 232.753906 370 C 232.753906 379.613281 236.574219 388.832031 243.371094 395.628906 C 250.167969 402.425781 259.386719 406.246094 269 406.246094 C 278.613281 406.246094 287.832031 402.425781 294.628906 395.628906 C 301.425781 388.832031 305.246094 379.613281 305.246094 370 Z M 305.246094 370 "/>
</g>
<g clip-path="url(#clip14)" clip-rule="nonzero">
<path style=" stroke:none;fill-rule:evenodd;fill:rgb(85.096741%,85.096741%,81.959534%);fill-opacity:0.7;" d="M 63.246094 337 C 63.246094 327.386719 59.425781 318.167969 52.628906 311.371094 C 45.832031 304.574219 36.613281 300.753906 27 300.753906 C 17.386719 300.753906 8.167969 304.574219 1.371094 311.371094 C -5.425781 318.167969 -9.246094 327.386719 -9.246094 337 C -9.246094 346.613281 -5.425781 355.832031 1.371094 362.628906 C 8.167969 369.425781 17.386719 373.246094 27 373.246094 C 36.613281 373.246094 45.832031 369.425781 52.628906 362.628906 C 59.425781 355.832031 63.246094 346.613281 63.246094 337 Z M 63.246094 337 "/>
</g>
<path style=" stroke:none;fill-rule:evenodd;fill:rgb(85.096741%,85.096741%,81.959534%);fill-opacity:0.7;" d="M 26.246094 319 C 26.246094 309.386719 22.425781 300.167969 15.628906 293.371094 C 8.832031 286.574219 -0.386719 282.753906 -10 282.753906 C -19.613281 282.753906 -28.832031 286.574219 -35.628906 293.371094 C -42.425781 300.167969 -46.246094 309.386719 -46.246094 319 C -46.246094 328.613281 -42.425781 337.832031 -35.628906 344.628906 C -28.832031 351.425781 -19.613281 355.246094 -10 355.246094 C -0.386719 355.246094 8.832031 351.425781 15.628906 344.628906 C 22.425781 337.832031 26.246094 328.613281 26.246094 319 Z M 26.246094 319 "/>
<path style=" stroke:none;fill-rule:evenodd;fill:rgb(85.096741%,85.096741%,81.959534%);fill-opacity:0.7;" d="M 283.246094 315 C 283.246094 305.386719 279.425781 296.167969 272.628906 289.371094 C 265.832031 282.574219 256.613281 278.753906 247 278.753906 C 237.386719 278.753906 228.167969 282.574219 221.371094 289.371094 C 214.574219 296.167969 210.753906 305.386719 210.753906 315 C 210.753906 324.613281 214.574219 333.832031 221.371094 340.628906 C 228.167969 347.425781 237.386719 351.246094 247 351.246094 C 256.613281 351.246094 265.832031 347.425781 272.628906 340.628906 C 279.425781 333.832031 283.246094 324.613281 283.246094 315 Z M 283.246094 315 "/>
<path style=" stroke:none;fill-rule:evenodd;fill:rgb(85.096741%,85.096741%,81.959534%);fill-opacity:0.7;" d="M 288.246094 312 C 288.246094 302.386719 284.425781 293.167969 277.628906 286.371094 C 270.832031 279.574219 261.613281 275.753906 252 275.753906 C 242.386719 275.753906 233.167969 279.574219 226.371094 286.371094 C 219.574219 293.167969 215.753906 302.386719 215.753906 312 C 215.753906 321.613281 219.574219 330.832031 226.371094 337.628906 C 233.167969 344.425781 242.386719 348.246094 252 348.246094 C 261.613281 348.246094 270.832031 344.425781 277.628906 337.628906 C 284.425781 330.832031 288.246094 321.613281 288.246094 312 Z M 288.246094 312 "/>
<path style=" stroke:none;fill-rule:evenodd;fill:rgb(85.096741%,85.096741%,81.959534%);fill-opacity:0.7;" d="M 255.246094 307 C 255.246094 297.386719 251.425781 288.167969 244.628906 281.371094 C 237.832031 274.574219 228.613281 270.753906 219 270.753906 C 209.386719 270.753906 200.167969 274.574219 193.371094 281.371094 C 186.574219 288.167969 182.753906 297.386719 182.753906 307 C 182.753906 316.613281 186.574219 325.832031 193.371094 332.628906 C 200.167969 339.425781 209.386719 343.246094 219 343.246094 C 228.613281 343.246094 237.832031 339.425781 244.628906 332.628906 C 251.425781 325.832031 255.246094 316.613281 255.246094 307 Z M 255.246094 307 "/>
<path style=" stroke:none;fill-rule:evenodd;fill:rgb(85.096741%,85.096741%,81.959534%);fill-opacity:0.7;" d="M 320.246094 269 C 320.246094 259.386719 316.425781 250.167969 309.628906 243.371094 C 302.832031 236.574219 293.613281 232.753906 284 232.753906 C 274.386719 232.753906 265.167969 236.574219 258.371094 243.371094 C 251.574219 250.167969 247.753906 259.386719 247.753906 269 C 247.753906 278.613281 251.574219 287.832031 258.371094 294.628906 C 265.167969 301.425781 274.386719 305.246094 284 305.246094 C 293.613281 305.246094 302.832031 301.425781 309.628906 294.628906 C 316.425781 287.832031 320.246094 278.613281 320.246094 269 Z M 320.246094 269 "/>
<path style=" stroke:none;fill-rule:evenodd;fill:rgb(85.096741%,85.096741%,81.959534%);fill-opacity:0.7;" d="M 211.246094 252 C 211.246094 242.386719 207.425781 233.167969 200.628906 226.371094 C 193.832031 219.574219 184.613281 215.753906 175 215.753906 C 165.386719 215.753906 156.167969 219.574219 149.371094 226.371094 C 142.574219 233.167969 138.753906 242.386719 138.753906 252 C 138.753906 261.613281 142.574219 270.832031 149.371094 277.628906 C 156.167969 284.425781 165.386719 288.246094 175 288.246094 C 184.613281 288.246094 193.832031 284.425781 200.628906 277.628906 C 207.425781 270.832031 211.246094 261.613281 211.246094 252 Z M 211.246094 252 "/>
<path style=" stroke:none;fill-rule:evenodd;fill:rgb(85.096741%,85.096741%,81.959534%);fill-opacity:0.7;" d="M 189.246094 193 C 189.246094 183.386719 185.425781 174.167969 178.628906 167.371094 C 171.832031 160.574219 162.613281 156.753906 153 156.753906 C 143.386719 156.753906 134.167969 160.574219 127.371094 167.371094 C 120.574219 174.167969 116.753906 183.386719 116.753906 193 C 116.753906 202.613281 120.574219 211.832031 127.371094 218.628906 C 134.167969 225.425781 143.386719 229.246094 153 229.246094 C 162.613281 229.246094 171.832031 225.425781 178.628906 218.628906 C 185.425781 211.832031 189.246094 202.613281 189.246094 193 Z M 189.246094 193 "/>
<path style=" stroke:none;fill-rule:evenodd;fill:rgb(85.096741%,85.096741%,81.959534%);fill-opacity:0.7;" d="M 143.246094 181 C 143.246094 171.386719 139.425781 162.167969 132.628906 155.371094 C 125.832031 148.574219 116.613281 144.753906 107 144.753906 C 97.386719 144.753906 88.167969 148.574219 81.371094 155.371094 C 74.574219 162.167969 70.753906 171.386719 70.753906 181 C 70.753906 190.613281 74.574219 199.832031 81.371094 206.628906 C 88.167969 213.425781 97.386719 217.246094 107 217.246094 C 116.613281 217.246094 125.832031 213.425781 132.628906 206.628906 C 139.425781 199.832031 143.246094 190.613281 143.246094 181 Z M 143.246094 181 "/>
<path style=" stroke:none;fill-rule:evenodd;fill:rgb(85.096741%,85.096741%,81.959534%);fill-opacity:0.7;" d="M 130.246094 177 C 130.246094 167.386719 126.425781 158.167969 119.628906 151.371094 C 112.832031 144.574219 103.613281 140.753906 94 140.753906 C 84.386719 140.753906 75.167969 144.574219 68.371094 151.371094 C 61.574219 158.167969 57.753906 167.386719 57.753906 177 C 57.753906 186.613281 61.574219 195.832031 68.371094 202.628906 C 75.167969 209.425781 84.386719 213.246094 94 213.246094 C 103.613281 213.246094 112.832031 209.425781 119.628906 202.628906 C 126.425781 195.832031 130.246094 186.613281 130.246094 177 Z M 130.246094 177 "/>
<g clip-path="url(#clip15)" clip-rule="nonzero">
<path style=" stroke:none;fill-rule:evenodd;fill:rgb(85.096741%,85.096741%,81.959534%);fill-opacity:0.7;" d="M 360.246094 111 C 360.246094 101.386719 356.425781 92.167969 349.628906 85.371094 C 342.832031 78.574219 333.613281 74.753906 324 74.753906 C 314.386719 74.753906 305.167969 78.574219 298.371094 85.371094 C 291.574219 92.167969 287.753906 101.386719 287.753906 111 C 287.753906 120.613281 291.574219 129.832031 298.371094 136.628906 C 305.167969 143.425781 314.386719 147.246094 324 147.246094 C 333.613281 147.246094 342.832031 143.425781 349.628906 136.628906 C 356.425781 129.832031 360.246094 120.613281 360.246094 111 Z M 360.246094 111 "/>
</g>
<path style=" stroke:none;fill-rule:evenodd;fill:rgb(85.096741%,85.096741%,81.959534%);fill-opacity:0.7;" d="M 261.246094 304 C 261.246094 294.386719 257.425781 285.167969 250.628906 278.371094 C 243.832031 271.574219 234.613281 267.753906 225 267.753906 C 215.386719 267.753906 206.167969 271.574219 199.371094 278.371094 C 192.574219 285.167969 188.753906 294.386719 188.753906 304 C 188.753906 313.613281 192.574219 322.832031 199.371094 329.628906 C 206.167969 336.425781 215.386719 340.246094 225 340.246094 C 234.613281 340.246094 243.832031 336.425781 250.628906 329.628906 C 257.425781 322.832031 261.246094 313.613281 261.246094 304 Z M 261.246094 304 "/>
<path style=" stroke:none;fill-rule:evenodd;fill:rgb(85.096741%,85.096741%,81.959534%);fill-opacity:0.7;" d="M 313.246094 277 C 313.246094 267.386719 309.425781 258.167969 302.628906 251.371094 C 295.832031 244.574219 286.613281 240.753906 277 240.753906 C 267.386719 240.753906 258.167969 244.574219 251.371094 251.371094 C 244.574219 258.167969 240.753906 267.386719 240.753906 277 C 240.753906 286.613281 244.574219 295.832031 251.371094 302.628906 C 258.167969 309.425781 267.386719 313.246094 277 313.246094 C 286.613281 313.246094 295.832031 309.425781 302.628906 302.628906 C 309.425781 295.832031 313.246094 286.613281 313.246094 277 Z M 313.246094 277 "/>
<path style=" stroke:none;fill-rule:evenodd;fill:rgb(85.096741%,85.096741%,81.959534%);fill-opacity:0.7;" d="M 317.246094 264 C 317.246094 254.386719 313.425781 245.167969 306.628906 238.371094 C 299.832031 231.574219 290.613281 227.753906 281 227.753906 C 271.386719 227.753906 262.167969 231.574219 255.371094 238.371094 C 248.574219 245.167969 244.753906 254.386719 244.753906 264 C 244.753906 273.613281 248.574219 282.832031 255.371094 289.628906 C 262.167969 296.425781 271.386719 300.246094 281 300.246094 C 290.613281 300.246094 299.832031 296.425781 306.628906 289.628906 C 313.425781 282.832031 317.246094 273.613281 317.246094 264 Z M 317.246094 264 "/>
<path style=" stroke:none;fill-rule:evenodd;fill:rgb(85.096741%,85.096741%,81.959534%);fill-opacity:0.7;" d="M 95.246094 223 C 95.246094 213.386719 91.425781 204.167969 84.628906 197.371094 C 77.832031 190.574219 68.613281 186.753906 59 186.753906 C 49.386719 186.753906 40.167969 190.574219 33.371094 197.371094 C 26.574219 204.167969 22.753906 213.386719 22.753906 223 C 22.753906 232.613281 26.574219 241.832031 33.371094 248.628906 C 40.167969 255.425781 49.386719 259.246094 59 259.246094 C 68.613281 259.246094 77.832031 255.425781 84.628906 248.628906 C 91.425781 241.832031 95.246094 232.613281 95.246094 223 Z M 95.246094 223 "/>
<path style=" stroke:none;fill-rule:evenodd;fill:rgb(85.096741%,85.096741%,81.959534%);fill-opacity:0.7;" d="M 108.246094 275 C 108.246094 265.386719 104.425781 256.167969 97.628906 249.371094 C 90.832031 242.574219 81.613281 238.753906 72 238.753906 C 62.386719 238.753906 53.167969 242.574219 46.371094 249.371094 C 39.574219 256.167969 35.753906 265.386719 35.753906 275 C 35.753906 284.613281 39.574219 293.832031 46.371094 300.628906 C 53.167969 307.425781 62.386719 311.246094 72 311.246094 C 81.613281 311.246094 90.832031 307.425781 97.628906 300.628906 C 104.425781 293.832031 108.246094 284.613281 108.246094 275 Z M 108.246094 275 "/>
<path style=" stroke:none;fill-rule:evenodd;fill:rgb(85.096741%,85.096741%,81.959534%);fill-opacity:0.7;" d="M 90.246094 312 C 90.246094 302.386719 86.425781 293.167969 79.628906 286.371094 C 72.832031 279.574219 63.613281 275.753906 54 275.753906 C 44.386719 275.753906 35.167969 279.574219 28.371094 286.371094 C 21.574219 293.167969 17.753906 302.386719 17.753906 312 C 17.753906 321.613281 21.574219 330.832031 28.371094 337.628906 C 35.167969 344.425781 44.386719 348.246094 54 348.246094 C 63.613281 348.246094 72.832031 344.425781 79.628906 337.628906 C 86.425781 330.832031 90.246094 321.613281 90.246094 312 Z M 90.246094 312 "/>
<path style=" stroke:none;fill-rule:evenodd;fill:rgb(85.096741%,85.096741%,81.959534%);fill-opacity:0.7;" d="M 75.246094 130 C 75.246094 120.386719 71.425781 111.167969 64.628906 104.371094 C 57.832031 97.574219 48.613281 93.753906 39 93.753906 C 29.386719 93.753906 20.167969 97.574219 13.371094 104.371094 C 6.574219 111.167969 2.753906 120.386719 2.753906 130 C 2.753906 139.613281 6.574219 148.832031 13.371094 155.628906 C 20.167969 162.425781 29.386719 166.246094 39 166.246094 C 48.613281 166.246094 57.832031 162.425781 64.628906 155.628906 C 71.425781 148.832031 75.246094 139.613281 75.246094 130 Z M 75.246094 130 "/>
<path style=" stroke:none;fill-rule:evenodd;fill:rgb(85.096741%,85.096741%,81.959534%);fill-opacity:0.7;" d="M 80.246094 128 C 80.246094 118.386719 76.425781 109.167969 69.628906 102.371094 C 62.832031 95.574219 53.613281 91.753906 44 91.753906 C 34.386719 91.753906 25.167969 95.574219 18.371094 102.371094 C 11.574219 109.167969 7.753906 118.386719 7.753906 128 C 7.753906 137.613281 11.574219 146.832031 18.371094 153.628906 C 25.167969 160.425781 34.386719 164.246094 44 164.246094 C 53.613281 164.246094 62.832031 160.425781 69.628906 153.628906 C 76.425781 146.832031 80.246094 137.613281 80.246094 128 Z M 80.246094 128 "/>
</g>
</svg>
