<?xml version="1.0" encoding="UTF-8"?>
<svg xmlns="http://www.w3.org/2000/svg" xmlns:xlink="http://www.w3.org/1999/xlink" width="361pt" height="361pt" viewBox="0 0 361 361" version="1.1">
<defs>
<clipPath id="clip1">
  <path d="M 308 0 L 360 0 L 360 54 L 308 54 Z M 308 0 "/>
</clipPath>
<clipPath id="clip2">
  <path d="M 268 346 L 315 346 L 315 360 L 268 360 Z M 268 346 "/>
</clipPath>
<clipPath id="clip3">
  <path d="M 242 341 L 287 341 L 287 360 L 242 360 Z M 242 341 "/>
</clipPath>
<clipPath id="clip4">
  <path d="M 293 352 L 341 352 L 341 360 L 293 360 Z M 293 352 "/>
</clipPath>
<clipPath id="clip5">
  <path d="M 254 353 L 258 353 L 258 360 L 254 360 Z M 254 353 "/>
</clipPath>
<clipPath id="clip6">
  <path d="M 304 351 L 314 351 L 314 360 L 304 360 Z M 304 351 "/>
</clipPath>
<clipPath id="clip7">
  <path d="M 289 359 L 298 359 L 298 360 L 289 360 Z M 289 359 "/>
</clipPath>
<clipPath id="clip8">
  <path d="M 321 359 L 328 359 L 328 360 L 321 360 Z M 321 359 "/>
</clipPath>
<clipPath id="clip9">
  <path d="M 332 358 L 360 358 L 360 360 L 332 360 Z M 332 358 "/>
</clipPath>
<clipPath id="clip10">
  <path d="M 54 352 L 67 352 L 67 360 L 54 360 Z M 54 352 "/>
</clipPath>
<clipPath id="clip11">
  <path d="M 0 356 L 19 356 L 19 360 L 0 360 Z M 0 356 "/>
</clipPath>
<clipPath id="clip12">
  <path d="M 203 332 L 260 332 L 260 360 L 203 360 Z M 203 332 "/>
</clipPath>
<clipPath id="clip13">
  <path d="M 73 315 L 172 315 L 172 360 L 73 360 Z M 73 315 "/>
</clipPath>
<clipPath id="clip14">
  <path d="M 154 321 L 222 321 L 222 360 L 154 360 Z M 154 321 "/>
</clipPath>
<clipPath id="clip15">
  <path d="M 339 156 L 360 156 L 360 179 L 339 179 Z M 339 156 "/>
</clipPath>
<clipPath id="clip16">
  <path d="M 356 181 L 360 181 L 360 220 L 356 220 Z M 356 181 "/>
</clipPath>
<clipPath id="clip17">
  <path d="M 301 176 L 360 176 L 360 213 L 301 213 Z M 301 176 "/>
</clipPath>
<clipPath id="clip18">
  <path d="M 332 287 L 360 287 L 360 316 L 332 316 Z M 332 287 "/>
</clipPath>
<clipPath id="clip19">
  <path d="M 337 262 L 360 262 L 360 293 L 337 293 Z M 337 262 "/>
</clipPath>
<clipPath id="clip20">
  <path d="M 343 240 L 360 240 L 360 269 L 343 269 Z M 343 240 "/>
</clipPath>
<clipPath id="clip21">
  <path d="M 349 215 L 360 215 L 360 245 L 349 245 Z M 349 215 "/>
</clipPath>
<clipPath id="clip22">
  <path d="M 291 304 L 360 304 L 360 360 L 291 360 Z M 291 304 "/>
</clipPath>
<clipPath id="clip23">
  <path d="M 350 125 L 360 125 L 360 153 L 350 153 Z M 350 125 "/>
</clipPath>
<clipPath id="clip24">
  <path d="M 354 72 L 360 72 L 360 105 L 354 105 Z M 354 72 "/>
</clipPath>
<clipPath id="clip25">
  <path d="M 358 37 L 360 37 L 360 70 L 358 70 Z M 358 37 "/>
</clipPath>
<clipPath id="clip26">
  <path d="M 0 341 L 53 341 L 53 360 L 0 360 Z M 0 341 "/>
</clipPath>
<clipPath id="clip27">
  <path d="M 130 331 L 160 331 L 160 360 L 130 360 Z M 130 331 "/>
</clipPath>
</defs>
<g id="surface455">
<path style="fill-rule:nonzero;fill:rgb(0%,0%,0%);fill-opacity:1;stroke-width:0.03;stroke-linecap:square;stroke-linejoin:miter;stroke:rgb(0%,0%,0%);stroke-opacity:1;stroke-miterlimit:10;" d="M 0 178 L 360 178 L 360 -182 L 0 -182 Z M 0 178 " transform="matrix(1,0,0,1,0,182)"/>
<path style=" stroke:none;fill-rule:nonzero;fill:rgb(39.99939%,39.99939%,39.99939%);fill-opacity:0.3;" d="M -186.613281 -48.84375 L -220.1875 -60.140625 L -251.117188 -70.660156 L -281.191406 -80.839844 L -288.871094 -83.351562 L -285.078125 -90.820312 L -279.566406 -100.671875 L -272.921875 -119.898438 L -238.578125 -237.386719 L -49.972656 -176.351562 L 53.582031 -142.34375 L 56.050781 -141.453125 L 113.667969 -122.625 L 216.550781 -91.441406 L 271.214844 -76.488281 L 276.488281 -73.753906 L 280.851562 -70.324219 L 285.632812 -65.957031 L 319.722656 -37.363281 L 357.242188 -6.402344 L 349.714844 0.988281 L 304.40625 -8.804688 L 295.464844 -18.964844 L 286.035156 -27.707031 L 282.914062 -28.128906 L 143.679688 -68.550781 L 140.769531 -69.507812 L 140.613281 -69.035156 L 136.632812 -67.339844 L 129.734375 -41.453125 L 121.992188 -16.054688 L 121.53125 -14.839844 L 121.148438 -14.378906 L 120.230469 -13.585938 L 119.148438 -12.988281 L 117.953125 -12.609375 L 116.691406 -12.472656 L 115.734375 -12.53125 L 97.949219 -16.625 L 84.917969 26.660156 L 83.183594 31.535156 L 80.21875 57.777344 L 72.984375 58.386719 L -32.320312 68.554688 L -56.554688 68.898438 L -48.515625 36.707031 L -39.433594 1.125 L -156.070312 -38.476562 Z M -186.613281 -48.84375 "/>
<path style=" stroke:none;fill-rule:nonzero;fill:rgb(39.99939%,39.99939%,39.99939%);fill-opacity:0.3;" d="M -220.21875 -59.769531 L -40.023438 1.449219 L -49.03125 36.453125 L -57.808594 69.613281 L -32.339844 68.761719 L 80.1875 57.984375 L 64.570312 159.332031 L 4.46875 171.746094 L -10.628906 174.574219 L -23.976562 174.066406 L -35.472656 173.425781 L -83.53125 158.75 L -111.933594 149.269531 L -143.40625 140.175781 L -167.578125 133.878906 L -172.839844 132.253906 L -226.570312 117.269531 L -293.457031 98.992188 L -333.296875 87.296875 L -347.1875 83.277344 L -355.71875 79.707031 L -370.023438 72.832031 L -375.695312 69.753906 L -384.164062 64.773438 L -388.789062 61.808594 L -406.894531 46.726562 L -429.613281 24.804688 L -429.429688 23.402344 L -429.316406 22.609375 L -429.25 21.816406 L -429.222656 21.019531 L -429.222656 20.753906 L -429.253906 19.957031 L -429.332031 19.167969 L -429.449219 18.378906 L -429.609375 17.597656 L -429.8125 16.828125 L -430.058594 16.070312 L -430.34375 15.324219 L -430.667969 14.59375 L -431.035156 13.882812 L -431.441406 13.191406 L -431.882812 12.519531 L -432.359375 11.871094 L -433.152344 11.097656 L -425.386719 -1.363281 L -407.277344 -30.417969 L -399.863281 -41.703125 L -392.34375 -54.160156 L -380.117188 -73.058594 L -376.941406 -76.792969 L -372.820312 -78.816406 L -371.636719 -79.328125 L -370.429688 -79.78125 L -369.199219 -80.175781 L -367.953125 -80.503906 L -366.691406 -80.769531 L -365.417969 -80.972656 L -364.136719 -81.109375 L -362.847656 -81.179688 L -361.5625 -81.1875 L -360.28125 -81.128906 L -359.003906 -81.003906 L -357.742188 -80.816406 L -315.007812 -63.027344 L -313.894531 -62.890625 L -312.777344 -62.808594 L -311.65625 -62.777344 L -310.539062 -62.804688 L -309.425781 -62.886719 L -308.316406 -63.019531 L -307.222656 -63.207031 L -306.136719 -63.449219 L -305.070312 -63.746094 L -304.023438 -64.09375 L -302.996094 -64.488281 L -301.996094 -64.9375 L -301.023438 -65.433594 L -300.078125 -65.976562 L -299.164062 -66.566406 L -298.289062 -67.199219 L -297.449219 -67.875 L -296.648438 -68.589844 L -295.890625 -69.347656 L -295.066406 -70.265625 L -288.890625 -83.300781 L -281.222656 -80.8125 Z M -220.21875 -59.769531 "/>
<g clip-path="url(#clip1)" clip-rule="nonzero">
<path style=" stroke:none;fill-rule:nonzero;fill:rgb(39.99939%,39.99939%,39.99939%);fill-opacity:0.3;" d="M 354.945312 53.300781 L 308.5625 -4.066406 L 309.910156 -5.324219 L 353.289062 3.90625 L 363.757812 8.070312 L 365.464844 11.035156 L 367.09375 14.667969 L 367.945312 18.433594 L 368.097656 21.605469 L 356.367188 53.453125 Z M 354.945312 53.300781 "/>
</g>
<g clip-path="url(#clip2)" clip-rule="nonzero">
<path style=" stroke:none;fill-rule:nonzero;fill:rgb(39.99939%,39.99939%,39.99939%);fill-opacity:0.3;" d="M 288.503906 346.136719 L 314.324219 352.640625 L 292.394531 421.140625 L 268.28125 413.121094 Z M 288.503906 346.136719 "/>
</g>
<g clip-path="url(#clip3)" clip-rule="nonzero">
<path style=" stroke:none;fill-rule:nonzero;fill:rgb(39.99939%,39.99939%,39.99939%);fill-opacity:0.3;" d="M 261.425781 341.183594 L 282.480469 345.410156 L 282.65625 348.84375 L 286.234375 349.59375 L 266.796875 412.6875 L 242.703125 404.628906 L 247.007812 389.777344 L 246.339844 387.175781 L 258.148438 356.222656 Z M 261.425781 341.183594 "/>
</g>
<g clip-path="url(#clip4)" clip-rule="nonzero">
<path style=" stroke:none;fill-rule:nonzero;fill:rgb(39.99939%,39.99939%,39.99939%);fill-opacity:0.3;" d="M 315.671875 352.996094 L 340.003906 358.242188 L 330.550781 391.476562 L 322.097656 418.9375 L 319.5 418.394531 L 318.75 420.195312 L 316.691406 419.796875 L 313.910156 427.898438 L 293.992188 421.539062 L 305.496094 385.996094 Z M 315.671875 352.996094 "/>
</g>
<g clip-path="url(#clip5)" clip-rule="nonzero">
<path style=" stroke:none;fill-rule:nonzero;fill:rgb(39.99939%,39.99939%,39.99939%);fill-opacity:0.3;" d="M 257.222656 353.324219 L 256.636719 355.945312 L 254.089844 362.882812 Z M 257.222656 353.324219 "/>
</g>
<path style=" stroke:none;fill-rule:nonzero;fill:rgb(39.99939%,39.99939%,39.99939%);fill-opacity:0.3;" d="M 336.515625 355.640625 L 323.546875 353.222656 L 321.050781 352.914062 L 320.664062 352.867188 L 319.257812 351.992188 Z M 336.515625 355.640625 "/>
<g clip-path="url(#clip6)" clip-rule="nonzero">
<path style=" stroke:none;fill-rule:nonzero;fill:rgb(39.99939%,39.99939%,39.99939%);fill-opacity:0.3;" d="M 306.835938 351.785156 L 313.296875 353.328125 L 310.382812 362.03125 L 304.109375 360.285156 Z M 306.835938 351.785156 "/>
</g>
<path style=" stroke:none;fill-rule:nonzero;fill:rgb(39.99939%,39.99939%,39.99939%);fill-opacity:0.3;" d="M 301.242188 350.320312 L 305.710938 351.371094 L 304.414062 355.683594 L 300.078125 354.578125 Z M 301.242188 350.320312 "/>
<g clip-path="url(#clip7)" clip-rule="nonzero">
<path style=" stroke:none;fill-rule:nonzero;fill:rgb(39.99939%,39.99939%,39.99939%);fill-opacity:0.3;" d="M 291.640625 359.242188 L 297.019531 360.816406 L 294.863281 366.59375 L 289.417969 364.882812 Z M 291.640625 359.242188 "/>
</g>
<path style=" stroke:none;fill-rule:nonzero;fill:rgb(39.99939%,39.99939%,39.99939%);fill-opacity:0.3;" d="M 294.160156 351.46875 L 299.769531 352.945312 L 298.171875 358.417969 L 292.699219 356.957031 Z M 294.160156 351.46875 "/>
<g clip-path="url(#clip8)" clip-rule="nonzero">
<path style=" stroke:none;fill-rule:nonzero;fill:rgb(39.99939%,39.99939%,39.99939%);fill-opacity:0.3;" d="M 323.503906 359.152344 L 327.777344 359.898438 L 326.464844 367.945312 L 321.917969 367.171875 Z M 323.503906 359.152344 "/>
</g>
<g clip-path="url(#clip9)" clip-rule="nonzero">
<path style=" stroke:none;fill-rule:nonzero;fill:rgb(39.99939%,39.99939%,39.99939%);fill-opacity:0.3;" d="M 378.234375 366.800781 L 369.054688 401.617188 L 350.617188 396.28125 L 332.070312 390.789062 L 340.882812 358.433594 Z M 378.234375 366.800781 "/>
</g>
<path style=" stroke:none;fill-rule:nonzero;fill:rgb(39.99939%,39.99939%,39.99939%);fill-opacity:0.3;" d="M 87.085938 30.710938 L 99.914062 -13.320312 L 120.375 -8.742188 L 107.722656 35.679688 Z M 87.085938 30.710938 "/>
<path style=" stroke:none;fill-rule:nonzero;fill:rgb(39.99939%,39.99939%,39.99939%);fill-opacity:0.3;" d="M 143.949219 -3.089844 L 131.589844 41.789062 L 109.6875 36.257812 L 122.460938 -8.457031 Z M 143.949219 -3.089844 "/>
<path style=" stroke:none;fill-rule:nonzero;fill:rgb(39.99939%,39.99939%,39.99939%);fill-opacity:0.3;" d="M 148.234375 -2.027344 L 163.300781 1.851562 L 150.914062 46.898438 L 135.476562 42.773438 Z M 148.234375 -2.027344 "/>
<g clip-path="url(#clip10)" clip-rule="nonzero">
<path style=" stroke:none;fill-rule:nonzero;fill:rgb(39.99939%,39.99939%,39.99939%);fill-opacity:0.3;" d="M 60.292969 352.460938 L 61.507812 352.582031 L 62.667969 352.941406 L 63.722656 353.523438 L 64.628906 354.300781 L 65.347656 355.242188 L 65.839844 356.304688 L 66.113281 357.730469 L 65.992188 359.179688 L 65.613281 360.285156 L 65 361.292969 L 64.179688 362.15625 L 63.191406 362.839844 L 62.074219 363.3125 L 60.878906 363.554688 L 59.660156 363.554688 L 58.464844 363.3125 L 57.351562 362.839844 L 56.367188 362.15625 L 55.550781 361.292969 L 54.941406 360.285156 L 54.570312 359.179688 L 54.445312 358.023438 L 54.574219 356.867188 L 54.953125 355.761719 L 55.566406 354.753906 L 56.382812 353.890625 L 57.371094 353.207031 L 58.488281 352.734375 L 59.683594 352.492188 Z M 60.292969 352.460938 "/>
</g>
<path style=" stroke:none;fill-rule:nonzero;fill:rgb(39.99939%,39.99939%,39.99939%);fill-opacity:0.3;" d="M 242.726562 207.71875 L 264.515625 214.429688 L 251.527344 223.203125 L 238.332031 219.847656 Z M 242.726562 207.71875 "/>
<path style=" stroke:none;fill-rule:nonzero;fill:rgb(39.99939%,39.99939%,39.99939%);fill-opacity:0.3;" d="M 123.003906 272.941406 L 141.414062 278.757812 L 134.332031 303.0625 L 130.140625 307.472656 L 128.496094 308.570312 L 112.777344 304.597656 Z M 123.003906 272.941406 "/>
<path style=" stroke:none;fill-rule:nonzero;fill:rgb(39.99939%,39.99939%,39.99939%);fill-opacity:0.3;" d="M 134.085938 236.03125 L 153.175781 241.941406 L 141.855469 277.140625 L 123.507812 271.304688 Z M 134.085938 236.03125 "/>
<path style=" stroke:none;fill-rule:nonzero;fill:rgb(39.99939%,39.99939%,39.99939%);fill-opacity:0.3;" d="M 75.878906 218.835938 L 95.117188 223.996094 L 83.109375 259.519531 L 64.210938 253.554688 Z M 75.878906 218.835938 "/>
<path style=" stroke:none;fill-rule:nonzero;fill:rgb(39.99939%,39.99939%,39.99939%);fill-opacity:0.3;" d="M 97.183594 224.578125 L 113.1875 229.277344 L 100.792969 264.03125 L 84.789062 259.945312 Z M 97.183594 224.578125 "/>
<path style=" stroke:none;fill-rule:nonzero;fill:rgb(39.99939%,39.99939%,39.99939%);fill-opacity:0.3;" d="M 114.882812 229.789062 L 131.882812 235.320312 L 121.199219 270.664062 L 102.960938 264.746094 Z M 114.882812 229.789062 "/>
<path style=" stroke:none;fill-rule:nonzero;fill:rgb(39.99939%,39.99939%,39.99939%);fill-opacity:0.3;" d="M 102.535156 266.386719 L 120.839844 272.25 L 110.730469 304.230469 L 90.933594 300.023438 Z M 102.535156 266.386719 "/>
<path style=" stroke:none;fill-rule:nonzero;fill:rgb(39.99939%,39.99939%,39.99939%);fill-opacity:0.3;" d="M 63.734375 255.363281 L 82.320312 261.128906 L 70.800781 295.511719 L 51.429688 291.175781 L 54.375 280.664062 L 54.507812 280.285156 L 57.015625 272.96875 Z M 63.734375 255.363281 "/>
<path style=" stroke:none;fill-rule:nonzero;fill:rgb(39.99939%,39.99939%,39.99939%);fill-opacity:0.3;" d="M 84.132812 261.738281 L 100.25 265.726562 L 88.894531 299.574219 L 72.703125 295.964844 Z M 84.132812 261.738281 "/>
<path style=" stroke:none;fill-rule:nonzero;fill:rgb(39.99939%,39.99939%,39.99939%);fill-opacity:0.3;" d="M 296.859375 159.976562 L 307.300781 124.832031 L 308.570312 124.84375 Z M 296.859375 159.976562 "/>
<path style=" stroke:none;fill-rule:nonzero;fill:rgb(39.99939%,39.99939%,39.99939%);fill-opacity:0.3;" d="M 295.15625 124.96875 L 304.96875 124.917969 L 293.574219 163.613281 L 283.734375 160.898438 Z M 295.15625 124.96875 "/>
<path style=" stroke:none;fill-rule:nonzero;fill:rgb(39.99939%,39.99939%,39.99939%);fill-opacity:0.3;" d="M 293.554688 124.917969 L 282.578125 160.566406 L 264.488281 155.691406 L 274.167969 124.335938 Z M 293.554688 124.917969 "/>
<path style=" stroke:none;fill-rule:nonzero;fill:rgb(39.99939%,39.99939%,39.99939%);fill-opacity:0.3;" d="M 245.378906 127.617188 L 257.59375 126.09375 L 270.902344 125.097656 L 262.53125 154.90625 L 239.511719 148.308594 Z M 245.378906 127.617188 "/>
<path style=" stroke:none;fill-rule:nonzero;fill:rgb(39.99939%,39.99939%,39.99939%);fill-opacity:0.3;" d="M 242.988281 127.613281 L 237.445312 147.847656 L 214.296875 141.90625 L 212.628906 139.3125 L 211.535156 137 L 210.902344 134.851562 Z M 242.988281 127.613281 "/>
<path style=" stroke:none;fill-rule:nonzero;fill:rgb(39.99939%,39.99939%,39.99939%);fill-opacity:0.3;" d="M 263.902344 157.632812 L 293.460938 165.421875 L 283.496094 195.769531 L 254.820312 187.917969 Z M 263.902344 157.632812 "/>
<path style=" stroke:none;fill-rule:nonzero;fill:rgb(39.99939%,39.99939%,39.99939%);fill-opacity:0.3;" d="M 238.808594 150.414062 L 261.882812 157.089844 L 252.648438 187.269531 L 228.957031 180.539062 Z M 238.808594 150.414062 "/>
<path style=" stroke:none;fill-rule:nonzero;fill:rgb(39.99939%,39.99939%,39.99939%);fill-opacity:0.3;" d="M 213.652344 143.792969 L 236.835938 149.859375 L 226.28125 179.792969 L 204.492188 174.027344 Z M 213.652344 143.792969 "/>
<path style=" stroke:none;fill-rule:nonzero;fill:rgb(39.99939%,39.99939%,39.99939%);fill-opacity:0.3;" d="M 208.285156 135.484375 L 208.625 137.472656 L 209.929688 140.183594 L 211.511719 142.371094 L 202.015625 173.378906 L 178.644531 167.179688 L 186.933594 140.1875 Z M 208.285156 135.484375 "/>
<path style=" stroke:none;fill-rule:nonzero;fill:rgb(39.99939%,39.99939%,39.99939%);fill-opacity:0.3;" d="M 158.320312 160.988281 L 162.359375 145.65625 L 184.480469 140.878906 L 176.65625 166.695312 Z M 158.320312 160.988281 "/>
<path style=" stroke:none;fill-rule:nonzero;fill:rgb(39.99939%,39.99939%,39.99939%);fill-opacity:0.3;" d="M 159.875 146.449219 L 156.046875 160.226562 L 139.292969 155.996094 L 131.289062 153.179688 L 131.027344 152.148438 Z M 159.875 146.449219 "/>
<path style=" stroke:none;fill-rule:nonzero;fill:rgb(39.99939%,39.99939%,39.99939%);fill-opacity:0.3;" d="M 217.355469 216.519531 L 247.335938 224.035156 L 249.183594 225.050781 L 209.597656 251.5625 L 208.816406 248.03125 Z M 217.355469 216.519531 "/>
<path style=" stroke:none;fill-rule:nonzero;fill:rgb(39.99939%,39.99939%,39.99939%);fill-opacity:0.3;" d="M 192.609375 210.515625 L 215.664062 216.1875 L 206.8125 249.117188 L 206.515625 253.230469 L 203.683594 255.222656 L 180.578125 247.984375 Z M 192.609375 210.515625 "/>
<path style=" stroke:none;fill-rule:nonzero;fill:rgb(39.99939%,39.99939%,39.99939%);fill-opacity:0.3;" d="M 164.367188 213.445312 L 187.074219 220.285156 L 178.6875 247.375 L 156.207031 240.234375 Z M 164.367188 213.445312 "/>
<path style=" stroke:none;fill-rule:nonzero;fill:rgb(39.99939%,39.99939%,39.99939%);fill-opacity:0.3;" d="M 107.40625 195.289062 L 122.796875 200.011719 L 113.828125 227.722656 L 97.910156 222.925781 Z M 107.40625 195.289062 "/>
<path style=" stroke:none;fill-rule:nonzero;fill:rgb(39.99939%,39.99939%,39.99939%);fill-opacity:0.3;" d="M 140.066406 158.175781 L 155.660156 162.144531 L 141.808594 204.398438 L 125.113281 199.113281 Z M 140.066406 158.175781 "/>
<path style=" stroke:none;fill-rule:nonzero;fill:rgb(39.99939%,39.99939%,39.99939%);fill-opacity:0.3;" d="M 143.488281 206.5625 L 162.539062 212.847656 L 153.695312 240.222656 L 134.628906 234.433594 Z M 143.488281 206.5625 "/>
<path style=" stroke:none;fill-rule:nonzero;fill:rgb(39.99939%,39.99939%,39.99939%);fill-opacity:0.3;" d="M 124.75 200.582031 L 141.160156 205.847656 L 132.441406 233.527344 L 115.476562 228.113281 Z M 124.75 200.582031 "/>
<path style=" stroke:none;fill-rule:nonzero;fill:rgb(39.99939%,39.99939%,39.99939%);fill-opacity:0.3;" d="M 157.917969 162.789062 L 176.191406 168.40625 L 163.027344 211.261719 L 143.941406 205.070312 Z M 157.917969 162.789062 "/>
<path style=" stroke:none;fill-rule:nonzero;fill:rgb(39.99939%,39.99939%,39.99939%);fill-opacity:0.3;" d="M 120.570312 154.195312 L 126.164062 153.125 L 137.5625 157.46875 L 123.339844 198.5625 L 107.863281 193.757812 Z M 120.570312 154.195312 "/>
<path style=" stroke:none;fill-rule:nonzero;fill:rgb(39.99939%,39.99939%,39.99939%);fill-opacity:0.3;" d="M 86.734375 188.707031 L 105.265625 194.644531 L 95.753906 222.28125 L 76.730469 217.054688 Z M 86.734375 188.707031 "/>
<path style=" stroke:none;fill-rule:nonzero;fill:rgb(39.99939%,39.99939%,39.99939%);fill-opacity:0.3;" d="M 118.40625 154.472656 L 105.863281 193.121094 L 87.34375 187.15625 L 96.464844 158.699219 Z M 118.40625 154.472656 "/>
<path style=" stroke:none;fill-rule:nonzero;fill:rgb(39.99939%,39.99939%,39.99939%);fill-opacity:0.3;" d="M 155.546875 242.761719 L 199.226562 256.195312 L 200.316406 257.738281 L 138.78125 300.851562 L 137.816406 299.808594 L 148.117188 265.375 L 168.082031 271.640625 L 168.707031 270.15625 L 148.875 263.753906 Z M 155.546875 242.761719 "/>
<path style=" stroke:none;fill-rule:nonzero;fill:rgb(39.99939%,39.99939%,39.99939%);fill-opacity:0.3;" d="M 284.25 198.074219 L 285.242188 200.277344 L 265.726562 213.597656 L 242.109375 206.292969 L 219.773438 199.382812 L 219.53125 200.007812 L 219.289062 200.636719 L 241.671875 207.386719 L 237.203125 219.515625 L 190.996094 208.007812 L 187.660156 218.703125 L 164.898438 211.726562 L 178.113281 168.914062 L 202.648438 175.660156 L 227.226562 182.441406 L 252.503906 189.722656 Z M 284.25 198.074219 "/>
<path style=" stroke:none;fill-rule:nonzero;fill:rgb(39.99939%,39.99939%,39.99939%);fill-opacity:0.3;" d="M 146.558594 141.710938 L 124.460938 146.617188 L 124.675781 145.867188 Z M 146.558594 141.710938 "/>
<path style=" stroke:none;fill-rule:nonzero;fill:rgb(39.99939%,39.99939%,39.99939%);fill-opacity:0.3;" d="M 122.9375 146.214844 L 122.75 146.875 L 111.027344 149.152344 Z M 122.9375 146.214844 "/>
<path style=" stroke:none;fill-rule:nonzero;fill:rgb(39.99939%,39.99939%,39.99939%);fill-opacity:0.3;" d="M 240.90625 273.195312 L 272.261719 285.023438 L 272.050781 293.363281 L 237.929688 284.445312 Z M 240.90625 273.195312 "/>
<path style=" stroke:none;fill-rule:nonzero;fill:rgb(39.99939%,39.99939%,39.99939%);fill-opacity:0.3;" d="M 217.105469 266.601562 L 239.960938 272.863281 L 236.632812 284.070312 L 213.496094 278.128906 Z M 217.105469 266.601562 "/>
<path style=" stroke:none;fill-rule:nonzero;fill:rgb(39.99939%,39.99939%,39.99939%);fill-opacity:0.3;" d="M 130.140625 307.472656 L 128.980469 308.695312 L 128.496094 308.570312 Z M 130.140625 307.472656 "/>
<path style=" stroke:none;fill-rule:nonzero;fill:rgb(39.99939%,39.99939%,39.99939%);fill-opacity:0.3;" d="M 238.039062 302.238281 L 257.792969 306.609375 L 256.792969 309.769531 L 237.128906 305.386719 Z M 238.039062 302.238281 "/>
<path style=" stroke:none;fill-rule:nonzero;fill:rgb(39.99939%,39.99939%,39.99939%);fill-opacity:0.3;" d="M 236.539062 307.425781 L 256.292969 311.796875 L 255.289062 314.957031 L 235.628906 310.574219 Z M 236.539062 307.425781 "/>
<path style=" stroke:none;fill-rule:nonzero;fill:rgb(39.99939%,39.99939%,39.99939%);fill-opacity:0.3;" d="M 234.828125 312.550781 L 254.582031 316.917969 L 253.582031 320.078125 L 233.921875 315.699219 Z M 234.828125 312.550781 "/>
<path style=" stroke:none;fill-rule:nonzero;fill:rgb(39.99939%,39.99939%,39.99939%);fill-opacity:0.3;" d="M 233.226562 317.539062 L 252.980469 321.910156 L 251.976562 325.070312 L 232.316406 320.691406 Z M 233.226562 317.539062 "/>
<path style=" stroke:none;fill-rule:nonzero;fill:rgb(39.99939%,39.99939%,39.99939%);fill-opacity:0.3;" d="M 231.910156 322.425781 L 251.664062 326.796875 L 250.660156 329.957031 L 231 325.578125 Z M 231.910156 322.425781 "/>
<path style=" stroke:none;fill-rule:nonzero;fill:rgb(39.99939%,39.99939%,39.99939%);fill-opacity:0.3;" d="M 230.472656 327.425781 L 250.226562 331.796875 L 249.226562 334.957031 L 229.566406 330.578125 Z M 230.472656 327.425781 "/>
<path style=" stroke:none;fill-rule:nonzero;fill:rgb(39.99939%,39.99939%,39.99939%);fill-opacity:0.3;" d="M 298.148438 202.46875 L 304.640625 204.160156 L 299.992188 225.171875 L 275.257812 219.484375 Z M 298.148438 202.46875 "/>
<path style=" stroke:none;fill-rule:nonzero;fill:rgb(39.99939%,39.99939%,39.99939%);fill-opacity:0.3;" d="M 251.078125 235.433594 L 273.597656 220.535156 L 299.691406 226.425781 L 294.25 248.382812 L 255.09375 237.960938 Z M 251.078125 235.433594 "/>
<path style=" stroke:none;fill-rule:nonzero;fill:rgb(39.99939%,39.99939%,39.99939%);fill-opacity:0.3;" d="M 264.199219 339.007812 L 264.128906 338.996094 L 265.035156 336.207031 Z M 264.199219 339.007812 "/>
<path style=" stroke:none;fill-rule:nonzero;fill:rgb(39.99939%,39.99939%,39.99939%);fill-opacity:0.3;" d="M 237.429688 285.992188 L 276.441406 296.5 L 273.503906 305.746094 L 234.65625 295.234375 Z M 237.429688 285.992188 "/>
<path style=" stroke:none;fill-rule:nonzero;fill:rgb(39.99939%,39.99939%,39.99939%);fill-opacity:0.3;" d="M 234.363281 296.234375 L 273.171875 306.878906 L 263.175781 338.820312 L 223.375 330.105469 Z M 234.363281 296.234375 "/>
<path style=" stroke:none;fill-rule:nonzero;fill:rgb(39.99939%,39.99939%,39.99939%);fill-opacity:0.3;" d="M 197.667969 324.085938 L 213.136719 279.730469 L 236.109375 285.703125 L 222.253906 329.875 Z M 197.667969 324.085938 "/>
<path style=" stroke:none;fill-rule:nonzero;fill:rgb(39.99939%,39.99939%,39.99939%);fill-opacity:0.3;" d="M 196.414062 324.011719 L 140.789062 311.789062 L 211.90625 261.96875 L 215.207031 266.042969 Z M 196.414062 324.011719 "/>
<path style=" stroke:none;fill-rule:nonzero;fill:rgb(39.99939%,39.99939%,39.99939%);fill-opacity:0.3;" d="M 213.488281 260.894531 L 250.054688 236.132812 L 254.710938 239.011719 L 294.089844 249.738281 L 291.167969 262.734375 L 251.734375 250.304688 L 251.453125 250.949219 L 251.171875 251.589844 L 290.773438 263.9375 L 288.191406 274.25 L 288.167969 274.242188 L 284.046875 272.976562 L 283.921875 273.402344 L 283.359375 273.292969 L 276.976562 294.695312 L 273.65625 293.757812 L 273.761719 284.183594 L 241.402344 272.128906 L 244.6875 264.101562 L 244.179688 263.890625 L 243.671875 263.675781 L 240.363281 271.785156 L 217.242188 265.1875 Z M 213.488281 260.894531 "/>
<path style=" stroke:none;fill-rule:nonzero;fill:rgb(39.99939%,39.99939%,39.99939%);fill-opacity:0.3;" d="M 235.324219 63.621094 L 251.109375 63.335938 L 250.949219 64.515625 L 250.859375 65.074219 L 250.707031 65.621094 L 250.496094 66.152344 L 250.226562 66.65625 L 249.902344 67.132812 L 249.53125 67.570312 L 248.648438 68.328125 L 247.617188 68.894531 L 247.0625 69.097656 L 246.484375 69.246094 L 245.898438 69.332031 L 245.300781 69.363281 L 243.027344 69.003906 L 241.476562 68.570312 L 239.84375 67.890625 L 239.097656 67.46875 L 238.042969 66.839844 L 237.3125 66.289062 L 235.632812 64.9375 Z M 235.324219 63.621094 "/>
<path style=" stroke:none;fill-rule:nonzero;fill:rgb(39.99939%,39.99939%,39.99939%);fill-opacity:0.3;" d="M 256.265625 64.261719 L 276.445312 61.855469 L 288.328125 61.167969 L 301.246094 61.691406 L 314.351562 64.742188 L 323.835938 67.261719 L 318.203125 118.054688 L 296.445312 118.027344 L 271.957031 117.878906 L 255.710938 118.90625 L 243.378906 120.664062 L 225.8125 124.253906 L 235.460938 97.222656 L 241.09375 69.640625 L 244.347656 70.292969 L 246.417969 70.402344 L 247.910156 70.113281 L 249.371094 69.578125 L 249.988281 69.097656 L 250.546875 68.558594 L 251.042969 67.96875 L 251.46875 67.332031 L 251.65625 66.996094 L 251.824219 66.65625 L 251.972656 66.304688 L 252.105469 65.945312 L 252.222656 63.699219 Z M 256.265625 64.261719 "/>
<path style=" stroke:none;fill-rule:nonzero;fill:rgb(39.99939%,39.99939%,39.99939%);fill-opacity:0.3;" d="M 192.011719 -34.160156 L 181.570312 4.300781 L 165.789062 0.359375 L 176.339844 -38.53125 Z M 192.011719 -34.160156 "/>
<path style=" stroke:none;fill-rule:nonzero;fill:rgb(39.99939%,39.99939%,39.99939%);fill-opacity:0.3;" d="M 165.207031 2.242188 L 181.203125 6.316406 L 168.085938 52.996094 L 165.820312 52.40625 L 160.554688 49.984375 L 152.761719 47.511719 Z M 165.207031 2.242188 "/>
<path style=" stroke:none;fill-rule:nonzero;fill:rgb(39.99939%,39.99939%,39.99939%);fill-opacity:0.3;" d="M 319.761719 117.996094 L 325.183594 67.527344 L 332.496094 69.480469 L 348.03125 75.90625 L 339.894531 100.402344 L 339.441406 101.402344 L 338.699219 102.851562 L 337.882812 104.261719 L 336.988281 105.628906 L 336.015625 106.953125 L 334.976562 108.222656 L 333.867188 109.4375 L 332.695312 110.597656 L 331.457031 111.699219 L 330.160156 112.734375 L 328.8125 113.703125 L 327.410156 114.605469 L 325.957031 115.433594 L 324.464844 116.191406 L 322.929688 116.871094 L 321.363281 117.472656 Z M 319.761719 117.996094 "/>
<path style=" stroke:none;fill-rule:nonzero;fill:rgb(39.99939%,39.99939%,39.99939%);fill-opacity:0.3;" d="M 340.886719 43.125 L 342.800781 42.9375 L 354.75 56.789062 L 349.097656 72.765625 L 334.148438 67.5625 Z M 340.886719 43.125 "/>
<path style=" stroke:none;fill-rule:nonzero;fill:rgb(39.99939%,39.99939%,39.99939%);fill-opacity:0.3;" d="M 223.066406 63.964844 L 232.320312 67.117188 L 237.6875 67.75 L 239.996094 69.15625 L 233.738281 96.753906 L 224.054688 124.523438 L 219.382812 125.539062 L 215.957031 98.417969 L 215.96875 98.273438 L 217.527344 85.835938 L 218.855469 79.390625 Z M 223.066406 63.964844 "/>
<path style=" stroke:none;fill-rule:nonzero;fill:rgb(39.99939%,39.99939%,39.99939%);fill-opacity:0.3;" d="M 252.507812 57.046875 L 252.585938 61.898438 L 231.292969 62.386719 L 233.339844 51.886719 L 232.144531 51.644531 L 229.90625 62.296875 L 221.296875 61.679688 L 225.089844 42.96875 L 227.449219 42.449219 L 233.144531 19.308594 L 260.726562 26.28125 Z M 252.507812 57.046875 "/>
<path style=" stroke:none;fill-rule:nonzero;fill:rgb(39.99939%,39.99939%,39.99939%);fill-opacity:0.3;" d="M 229.433594 -29.941406 L 231.554688 -29.222656 L 234.691406 -38.851562 L 289.570312 -22.664062 L 313.398438 7.671875 L 333.53125 32.550781 L 339.105469 39.441406 L 331.0625 66.628906 L 314.1875 61.941406 L 301.066406 58.40625 L 287.425781 59.039062 L 275.296875 60.011719 L 254.132812 61.855469 L 254.210938 56.632812 L 263.15625 25.046875 L 266.480469 13.320312 L 265.445312 13.125 L 264.410156 12.925781 L 260.96875 24.40625 L 233.117188 17.804688 L 243.855469 -20.738281 L 246.484375 -20.042969 L 246.769531 -20.910156 L 247.058594 -21.777344 L 244.34375 -22.460938 L 246.070312 -28.582031 L 244.765625 -28.800781 L 231.90625 17.492188 L 215.167969 13.234375 L 203.394531 7.164062 L 213.472656 -28.132812 L 217.210938 -27.183594 L 217.503906 -28.359375 L 217.792969 -29.539062 L 214.125 -30.65625 L 217.789062 -44.109375 L 230.027344 -40.257812 L 227.167969 -30.683594 Z M 229.433594 -29.941406 "/>
<path style=" stroke:none;fill-rule:nonzero;fill:rgb(39.99939%,39.99939%,39.99939%);fill-opacity:0.3;" d="M 194.289062 -33.625 L 211.152344 -28.824219 L 200.9375 8.039062 L 195.53125 7.9375 L 190.15625 6.605469 L 194.847656 -9.296875 L 194.429688 -9.347656 L 194.007812 -9.394531 L 189.363281 6.386719 L 183.292969 4.765625 Z M 194.289062 -33.625 "/>
<path style=" stroke:none;fill-rule:nonzero;fill:rgb(39.99939%,39.99939%,39.99939%);fill-opacity:0.3;" d="M 201.527344 11.601562 L 214.421875 15.324219 L 212.882812 23.578125 L 213.347656 23.628906 L 213.8125 23.675781 L 215.332031 15.5 L 231.785156 18.957031 L 226.96875 41.851562 L 224.46875 42.429688 L 220.378906 61.53125 L 207.382812 59.867188 L 211.910156 31.1875 L 200.128906 28.191406 L 198.152344 25.804688 Z M 201.527344 11.601562 "/>
<path style=" stroke:none;fill-rule:nonzero;fill:rgb(39.99939%,39.99939%,39.99939%);fill-opacity:0.3;" d="M 182.929688 6.917969 L 200.335938 11.183594 L 196.773438 26.082031 L 199.039062 28.914062 L 210.542969 31.871094 L 206.082031 59.824219 L 196.734375 59.710938 L 185.066406 57.660156 L 187.574219 39.988281 L 186.175781 39.660156 L 183.496094 57.332031 L 175.40625 55.347656 L 170 53.546875 Z M 182.929688 6.917969 "/>
<g clip-path="url(#clip11)" clip-rule="nonzero">
<path style=" stroke:none;fill-rule:nonzero;fill:rgb(39.99939%,39.99939%,39.99939%);fill-opacity:0.3;" d="M -54.132812 357.753906 L -27.867188 365.585938 L 17.691406 379.167969 L 18.632812 381.679688 L -15.964844 405.125 L -19.800781 404.011719 L -31.574219 400.585938 L -41.210938 397.78125 L -64.535156 390.996094 L -59.921875 356.304688 Z M -54.132812 357.753906 "/>
</g>
<path style=" stroke:none;fill-rule:nonzero;fill:rgb(39.99939%,39.99939%,39.99939%);fill-opacity:0.3;" d="M 30.96875 222.644531 L 40.277344 168.984375 L 64.855469 165.027344 L 94.773438 158.964844 L 85.335938 187.253906 L 74.714844 216.945312 L 59.550781 219.324219 L 42.730469 221.410156 Z M 30.96875 222.644531 "/>
<path style=" stroke:none;fill-rule:nonzero;fill:rgb(39.99939%,39.99939%,39.99939%);fill-opacity:0.3;" d="M 16.25 174.222656 L 38.898438 169.1875 L 29.414062 222.613281 L 9.953125 222.101562 Z M 16.25 174.222656 "/>
<path style=" stroke:none;fill-rule:nonzero;fill:rgb(39.99939%,39.99939%,39.99939%);fill-opacity:0.3;" d="M -9.011719 178.898438 L 14.335938 174.550781 L 8.246094 221.980469 L -15.242188 220.136719 Z M -9.011719 178.898438 "/>
<path style=" stroke:none;fill-rule:nonzero;fill:rgb(39.99939%,39.99939%,39.99939%);fill-opacity:0.3;" d="M 85.40625 154.75 L 77.707031 156.382812 L 80.460938 155.648438 Z M 85.40625 154.75 "/>
<g clip-path="url(#clip12)" clip-rule="nonzero">
<path style=" stroke:none;fill-rule:nonzero;fill:rgb(39.99939%,39.99939%,39.99939%);fill-opacity:0.3;" d="M 222.683594 332.222656 L 259.941406 341.125 L 257.222656 353.324219 L 254.089844 362.882812 L 239.070312 403.769531 L 204.03125 393.707031 L 203.886719 393.238281 L 218.476562 353.347656 L 219.589844 343.058594 Z M 222.683594 332.222656 "/>
</g>
<path style=" stroke:none;fill-rule:nonzero;fill:rgb(39.99939%,39.99939%,39.99939%);fill-opacity:0.3;" d="M 67.976562 347.851562 L 66.859375 348.378906 L 71.289062 345.707031 Z M 67.976562 347.851562 "/>
<path style=" stroke:none;fill-rule:nonzero;fill:rgb(39.99939%,39.99939%,39.99939%);fill-opacity:0.3;" d="M 122.660156 312.449219 L 122.640625 312.480469 L 121.457031 313.25 Z M 122.660156 312.449219 "/>
<g clip-path="url(#clip13)" clip-rule="nonzero">
<path style=" stroke:none;fill-rule:nonzero;fill:rgb(39.99939%,39.99939%,39.99939%);fill-opacity:0.3;" d="M 171.722656 320.804688 L 166.429688 336.625 L 150.554688 332.9375 L 141.464844 360.003906 L 142.402344 361.152344 L 151.359375 334.171875 L 165.960938 337.796875 L 152.671875 382.035156 L 134.867188 376.3125 L 134.1875 376.050781 L 121.03125 371.296875 L 112.988281 368.738281 L 99.402344 364.980469 L 74.195312 356.945312 L 73.917969 355.398438 L 75.089844 353.773438 L 128.050781 319.554688 L 134.710938 316.777344 L 139.144531 315.386719 L 148.023438 315.628906 L 154.832031 316.941406 Z M 171.722656 320.804688 "/>
</g>
<g clip-path="url(#clip14)" clip-rule="nonzero">
<path style=" stroke:none;fill-rule:nonzero;fill:rgb(39.99939%,39.99939%,39.99939%);fill-opacity:0.3;" d="M 173.539062 321.308594 L 221.53125 331.984375 L 218.421875 343.480469 L 217.417969 352.742188 L 214.058594 359.707031 L 194.433594 354.722656 L 198.179688 342.097656 L 197.402344 341.925781 L 196.628906 341.753906 L 187.105469 376.597656 L 187.753906 376.730469 L 188.402344 376.867188 L 194.074219 355.867188 L 213.777344 360.933594 L 202.304688 393.09375 L 195.269531 391.921875 L 183.53125 389.574219 L 159.449219 383.925781 L 154.832031 382.644531 L 166.84375 341.40625 L 179 345.320312 L 170.367188 374.933594 L 171.007812 375.128906 L 171.644531 375.320312 L 180.976562 344.4375 L 167.277344 340.261719 Z M 173.539062 321.308594 "/>
</g>
<g clip-path="url(#clip15)" clip-rule="nonzero">
<path style=" stroke:none;fill-rule:nonzero;fill:rgb(39.99939%,39.99939%,39.99939%);fill-opacity:0.3;" d="M 365.484375 156.671875 L 359.882812 178.242188 L 339.84375 174.253906 Z M 365.484375 156.671875 "/>
</g>
<g clip-path="url(#clip16)" clip-rule="nonzero">
<path style=" stroke:none;fill-rule:nonzero;fill:rgb(39.99939%,39.99939%,39.99939%);fill-opacity:0.3;" d="M 363.777344 181.574219 L 394.636719 187.5 L 386.816406 219.371094 L 356.007812 212.667969 Z M 363.777344 181.574219 "/>
</g>
<g clip-path="url(#clip17)" clip-rule="nonzero">
<path style=" stroke:none;fill-rule:nonzero;fill:rgb(39.99939%,39.99939%,39.99939%);fill-opacity:0.3;" d="M 336.394531 176.449219 L 360.929688 181.058594 L 353.589844 212.136719 L 301.394531 199.855469 Z M 336.394531 176.449219 "/>
</g>
<path style=" stroke:none;fill-rule:nonzero;fill:rgb(39.99939%,39.99939%,39.99939%);fill-opacity:0.3;" d="M 335.511719 286.898438 L 330.070312 307.660156 L 305.082031 302.070312 L 310.585938 281.730469 Z M 335.511719 286.898438 "/>
<g clip-path="url(#clip18)" clip-rule="nonzero">
<path style=" stroke:none;fill-rule:nonzero;fill:rgb(39.99939%,39.99939%,39.99939%);fill-opacity:0.3;" d="M 337.625 287.332031 L 367.523438 294.351562 L 362.332031 315.460938 L 332.15625 308.144531 Z M 337.625 287.332031 "/>
</g>
<g clip-path="url(#clip19)" clip-rule="nonzero">
<path style=" stroke:none;fill-rule:nonzero;fill:rgb(39.99939%,39.99939%,39.99939%);fill-opacity:0.3;" d="M 343.273438 262.484375 L 373.925781 270.320312 L 367.894531 292.566406 L 337.9375 285.757812 Z M 343.273438 262.484375 "/>
</g>
<g clip-path="url(#clip20)" clip-rule="nonzero">
<path style=" stroke:none;fill-rule:nonzero;fill:rgb(39.99939%,39.99939%,39.99939%);fill-opacity:0.3;" d="M 349.378906 240.015625 L 379.824219 246.527344 L 374.234375 268.871094 L 343.691406 261.085938 Z M 349.378906 240.015625 "/>
</g>
<g clip-path="url(#clip21)" clip-rule="nonzero">
<path style=" stroke:none;fill-rule:nonzero;fill:rgb(39.99939%,39.99939%,39.99939%);fill-opacity:0.3;" d="M 355.347656 215.445312 L 386.128906 222.261719 L 380.257812 244.566406 L 349.984375 237.886719 Z M 355.347656 215.445312 "/>
</g>
<path style=" stroke:none;fill-rule:nonzero;fill:rgb(39.99939%,39.99939%,39.99939%);fill-opacity:0.3;" d="M 306.507812 204.6875 L 328.113281 209.300781 L 308.742188 279.488281 L 289.902344 274.804688 Z M 306.507812 204.6875 "/>
<path style=" stroke:none;fill-rule:nonzero;fill:rgb(39.99939%,39.99939%,39.99939%);fill-opacity:0.3;" d="M 284.191406 275.269531 L 308.480469 281.234375 L 301.558594 301.167969 L 278.328125 295.003906 Z M 284.191406 275.269531 "/>
<g clip-path="url(#clip22)" clip-rule="nonzero">
<path style=" stroke:none;fill-rule:nonzero;fill:rgb(39.99939%,39.99939%,39.99939%);fill-opacity:0.3;" d="M 304.867188 304.363281 L 329.1875 310.40625 L 322.800781 334.582031 L 323.9375 334.902344 L 325.070312 335.222656 L 331.222656 310.835938 L 394.832031 325.871094 L 388.648438 352.621094 L 386.976562 357.214844 L 383.632812 363.183594 L 380.105469 365.230469 L 341.277344 356.527344 L 336.515625 355.640625 L 319.257812 351.992188 L 319.023438 351.847656 L 315.585938 350.882812 L 291.589844 344.933594 L 300.644531 313.875 L 303.324219 314.195312 Z M 304.867188 304.363281 "/>
</g>
<path style=" stroke:none;fill-rule:nonzero;fill:rgb(39.99939%,39.99939%,39.99939%);fill-opacity:0.3;" d="M 277.8125 296.90625 L 300.964844 303.328125 L 289.722656 344.402344 L 264.199219 339.007812 L 265.035156 336.207031 Z M 277.8125 296.90625 "/>
<g clip-path="url(#clip23)" clip-rule="nonzero">
<path style=" stroke:none;fill-rule:nonzero;fill:rgb(39.99939%,39.99939%,39.99939%);fill-opacity:0.3;" d="M 351.070312 152.800781 L 350.972656 151.761719 L 358.378906 125.203125 L 380.773438 126.089844 L 381.757812 126.816406 L 382.398438 127.777344 L 382.785156 129.042969 L 382.644531 130.242188 L 381.867188 131.515625 Z M 351.070312 152.800781 "/>
</g>
<path style=" stroke:none;fill-rule:nonzero;fill:rgb(39.99939%,39.99939%,39.99939%);fill-opacity:0.3;" d="M 342.433594 124.972656 L 357.175781 125.277344 L 349.273438 154.144531 L 331.921875 166.332031 L 331.101562 166.332031 L 331.410156 163.066406 Z M 342.433594 124.972656 "/>
<path style=" stroke:none;fill-rule:nonzero;fill:rgb(39.99939%,39.99939%,39.99939%);fill-opacity:0.3;" d="M 339.96875 125.074219 L 325.550781 171.828125 L 297.910156 164.238281 L 296.203125 162.183594 L 296.859375 159.976562 L 308.570312 124.84375 Z M 339.96875 125.074219 "/>
<path style=" stroke:none;fill-rule:nonzero;fill:rgb(39.99939%,39.99939%,39.99939%);fill-opacity:0.3;" d="M 295.617188 165.96875 L 321.3125 172.933594 L 321.714844 175.425781 L 289.589844 197.511719 L 285.820312 196.308594 Z M 295.617188 165.96875 "/>
<g clip-path="url(#clip24)" clip-rule="nonzero">
<path style=" stroke:none;fill-rule:nonzero;fill:rgb(39.99939%,39.99939%,39.99939%);fill-opacity:0.3;" d="M 386.074219 104.453125 L 374.4375 99.9375 L 362.546875 95.367188 L 358.21875 92.957031 L 355.964844 90.820312 L 354.425781 88.082031 L 354.007812 82.980469 L 356.085938 77.25 L 359.769531 74.175781 L 364.660156 72.671875 L 368.65625 72.292969 L 372.660156 73.132812 L 376.78125 76.183594 L 379.566406 80.609375 Z M 386.074219 104.453125 "/>
</g>
<g clip-path="url(#clip25)" clip-rule="nonzero">
<path style=" stroke:none;fill-rule:nonzero;fill:rgb(39.99939%,39.99939%,39.99939%);fill-opacity:0.3;" d="M 367.992188 37.945312 L 373.273438 43.011719 L 375.855469 68.71875 L 374.484375 69.914062 L 366.289062 67.765625 L 362.742188 67.441406 L 359.941406 63.832031 L 358.714844 61.472656 Z M 367.992188 37.945312 "/>
</g>
<path style=" stroke:none;fill-rule:nonzero;fill:rgb(39.99939%,39.99939%,39.99939%);fill-opacity:0.3;" d="M 288.167969 274.242188 L 283.921875 273.402344 L 284.046875 272.976562 Z M 288.167969 274.242188 "/>
<path style=" stroke:none;fill-rule:nonzero;fill:rgb(39.99939%,39.99939%,39.99939%);fill-opacity:0.3;" d="M 341.554688 261.140625 L 332.957031 259.5 L 332.839844 260.40625 L 341.429688 262.0625 L 335.996094 285.375 L 311.035156 280.042969 L 330.019531 209.847656 L 353.039062 214.964844 Z M 341.554688 261.140625 "/>
<path style=" stroke:none;fill-rule:nonzero;fill:rgb(39.99939%,39.99939%,39.99939%);fill-opacity:0.3;" d="M 54.375 280.664062 L 55.183594 277.773438 L 57.015625 272.96875 L 54.507812 280.285156 Z M 54.375 280.664062 "/>
<path style=" stroke:none;fill-rule:nonzero;fill:rgb(39.99939%,39.99939%,39.99939%);fill-opacity:0.3;" d="M 59.804688 221.449219 L 73.636719 219.363281 L 62.542969 253.050781 L 49.539062 249.199219 Z M 59.804688 221.449219 "/>
<path style=" stroke:none;fill-rule:nonzero;fill:rgb(39.99939%,39.99939%,39.99939%);fill-opacity:0.3;" d="M 43.550781 223.304688 L 58 221.648438 L 48 248.707031 L 36.148438 245.019531 Z M 43.550781 223.304688 "/>
<path style=" stroke:none;fill-rule:nonzero;fill:rgb(39.99939%,39.99939%,39.99939%);fill-opacity:0.3;" d="M 49.019531 250.929688 L 61.921875 254.660156 L 53.296875 277.265625 L 41.238281 274.066406 Z M 49.019531 250.929688 "/>
<path style=" stroke:none;fill-rule:nonzero;fill:rgb(39.99939%,39.99939%,39.99939%);fill-opacity:0.3;" d="M 35.589844 246.671875 L 47.351562 250.414062 L 39.601562 273.566406 L 27.078125 269.28125 Z M 35.589844 246.671875 "/>
<path style=" stroke:none;fill-rule:nonzero;fill:rgb(39.99939%,39.99939%,39.99939%);fill-opacity:0.3;" d="M -15.652344 222.089844 L 7.964844 223.878906 L 2.488281 261.375 L -20.523438 258.128906 Z M -15.652344 222.089844 "/>
<path style=" stroke:none;fill-rule:nonzero;fill:rgb(39.99939%,39.99939%,39.99939%);fill-opacity:0.3;" d="M 40.5625 276.023438 L 52.960938 279.433594 L 49.453125 290.726562 L 36.398438 287.519531 Z M 40.5625 276.023438 "/>
<path style=" stroke:none;fill-rule:nonzero;fill:rgb(39.99939%,39.99939%,39.99939%);fill-opacity:0.3;" d="M 26.636719 271.410156 L 38.9375 275.441406 L 34.734375 287.113281 L 23.246094 284.164062 Z M 26.636719 271.410156 "/>
<path style=" stroke:none;fill-rule:nonzero;fill:rgb(39.99939%,39.99939%,39.99939%);fill-opacity:0.3;" d="M 4 263.773438 L 24.976562 270.867188 L 21.523438 283.742188 L 1.703125 278.589844 Z M 4 263.773438 "/>
<path style=" stroke:none;fill-rule:nonzero;fill:rgb(39.99939%,39.99939%,39.99939%);fill-opacity:0.3;" d="M -20.851562 260.148438 L 2.222656 263.113281 L 0.261719 274.6875 L -15.890625 296.789062 L -26.382812 295.59375 Z M -20.851562 260.148438 "/>
<path style=" stroke:none;fill-rule:nonzero;fill:rgb(39.99939%,39.99939%,39.99939%);fill-opacity:0.3;" d="M 2.988281 281.183594 L -3.429688 301.429688 L -13.742188 297.988281 L -0.957031 280.367188 Z M 2.988281 281.183594 "/>
<path style=" stroke:none;fill-rule:nonzero;fill:rgb(39.99939%,39.99939%,39.99939%);fill-opacity:0.3;" d="M 8.300781 287.085938 L 15.683594 288.683594 L 14.636719 295.089844 L 6.832031 293.492188 Z M 8.300781 287.085938 "/>
<path style=" stroke:none;fill-rule:nonzero;fill:rgb(39.99939%,39.99939%,39.99939%);fill-opacity:0.3;" d="M 40.785156 294.882812 L 48.453125 296.945312 L 46.691406 302.976562 L 39.105469 301.089844 Z M 40.785156 294.882812 "/>
<path style=" stroke:none;fill-rule:nonzero;fill:rgb(39.99939%,39.99939%,39.99939%);fill-opacity:0.3;" d="M 17.378906 297.292969 L 16.539062 302.300781 L 7.679688 300.5 L 9.175781 294.800781 Z M 17.378906 297.292969 "/>
<path style=" stroke:none;fill-rule:nonzero;fill:rgb(39.99939%,39.99939%,39.99939%);fill-opacity:0.3;" d="M 21.207031 298.042969 L 29.921875 300.109375 L 28.65625 305.625 L 19.429688 303.550781 Z M 21.207031 298.042969 "/>
<path style=" stroke:none;fill-rule:nonzero;fill:rgb(39.99939%,39.99939%,39.99939%);fill-opacity:0.3;" d="M 33.3125 300.96875 L 42.480469 303.09375 L 40.945312 308.554688 L 31.863281 306.601562 Z M 33.3125 300.96875 "/>
<path style=" stroke:none;fill-rule:nonzero;fill:rgb(39.99939%,39.99939%,39.99939%);fill-opacity:0.3;" d="M 9.972656 224.042969 L 30.378906 224.8125 L 41.765625 223.4375 L 34.457031 244.445312 L 21.355469 240.453125 L 20.957031 241.253906 L 20.554688 242.054688 L 33.800781 246.25 L 29.609375 257.269531 L 14.601562 252.5 L 13.976562 253.726562 L 29.238281 258.71875 L 25.550781 268.785156 L 4.316406 261.902344 Z M 9.972656 224.042969 "/>
<path style=" stroke:none;fill-rule:nonzero;fill:rgb(39.99939%,39.99939%,39.99939%);fill-opacity:0.3;" d="M 66.859375 348.378906 L 66.53125 348.535156 L 64.21875 347.96875 L 61.960938 347.296875 L 59.945312 347.25 L 58.019531 347.382812 L 55.824219 348.234375 L 53.890625 349.25 L 52.148438 350.25 L 32.710938 352.363281 L 26.050781 350.878906 L 11.296875 348.628906 L 16.414062 319.480469 L 15.65625 319.421875 L 14.898438 319.359375 L 9.765625 348.371094 L -9.433594 346.019531 L -38.496094 340.191406 L -29.875 320.914062 L -26.597656 297.410156 L -18.046875 298.3125 L 2.039062 305.242188 L 2.359375 304.320312 L 2.613281 303.597656 L -2.15625 301.761719 L 4.011719 281.382812 L 35.464844 289.488281 L 49.625 292.917969 L 71.121094 297.992188 L 89.554688 302.191406 L 111.78125 306.792969 L 122.847656 309.152344 L 123.640625 310.636719 L 122.660156 312.449219 L 121.457031 313.25 L 71.289062 345.707031 Z M 66.859375 348.378906 "/>
<g clip-path="url(#clip26)" clip-rule="nonzero">
<path style=" stroke:none;fill-rule:nonzero;fill:rgb(39.99939%,39.99939%,39.99939%);fill-opacity:0.3;" d="M -40.945312 341.480469 L -9.207031 347.863281 L 10.460938 350.066406 L 16.1875 350.890625 L 25.695312 352.265625 L 32.003906 354.332031 L 52.464844 351.945312 L 50.578125 355.054688 L 49.703125 358.363281 L 50.085938 360.652344 L 48.027344 362.089844 L 34.742188 370.914062 L 10.273438 364.011719 L 10.148438 364.390625 L 10.027344 364.765625 L 34.019531 371.566406 L 22.335938 379.167969 L 17.773438 377.789062 L -17.441406 367.125 L -46.375 358.367188 L -42.894531 346.527344 Z M -40.945312 341.480469 "/>
</g>
<path style=" stroke:none;fill-rule:nonzero;fill:rgb(39.99939%,39.99939%,39.99939%);fill-opacity:0.3;" d="M 168.085938 52.996094 L 167.976562 53.394531 L 165.820312 52.40625 Z M 168.085938 52.996094 "/>
<path style=" stroke:none;fill-rule:nonzero;fill:rgb(39.99939%,39.99939%,39.99939%);fill-opacity:0.3;" d="M 215.96875 98.273438 L 217.160156 85.601562 L 218.855469 79.390625 L 217.527344 85.835938 Z M 215.96875 98.273438 "/>
<path style=" stroke:none;fill-rule:nonzero;fill:rgb(39.99939%,39.99939%,39.99939%);fill-opacity:0.3;" d="M 175.40625 55.347656 L 169.875 53.992188 L 170 53.546875 Z M 175.40625 55.347656 "/>
<path style=" stroke:none;fill-rule:nonzero;fill:rgb(39.99939%,39.99939%,39.99939%);fill-opacity:0.3;" d="M 152.121094 49.8125 L 160.613281 52.476562 L 167.378906 55.722656 L 164.242188 71.839844 L 166.210938 72.167969 L 169.199219 56.203125 L 183.816406 59.949219 L 195.554688 61.925781 L 206.757812 62.007812 L 221.726562 63.71875 L 215.664062 84.699219 L 186.007812 79.070312 L 185.925781 79.730469 L 185.839844 80.390625 L 215.269531 86.101562 L 214.65625 98.351562 L 216.0625 112.015625 L 204.695312 112.792969 L 204.742188 113.386719 L 204.792969 113.980469 L 216.140625 113.011719 L 217.820312 125.890625 L 146.558594 141.710938 L 124.675781 145.867188 L 146.574219 68.851562 Z M 152.121094 49.8125 "/>
<path style=" stroke:none;fill-rule:nonzero;fill:rgb(39.99939%,39.99939%,39.99939%);fill-opacity:0.3;" d="M 93.988281 133.25 L 98.730469 149.460938 L 98.621094 150.148438 L 98.277344 150.953125 L 97.96875 151.386719 L 97.589844 151.765625 L 96.675781 152.335938 L 95.4375 152.621094 L 85.40625 154.75 L 80.460938 155.648438 L 77.707031 156.382812 L 67.066406 158.640625 L 75.59375 99.371094 L 86.011719 33.8125 L 106.875 38.933594 L 102.3125 63.96875 L 103.167969 64.007812 L 104.027344 64.050781 L 108.839844 39.492188 L 130.800781 44.789062 L 125.03125 65.878906 L 128.960938 66.824219 L 134.699219 45.507812 L 150.148438 49.320312 L 122.9375 146.214844 L 111.027344 149.152344 L 101.851562 150.933594 L 96.382812 132.703125 L 102.554688 73.242188 L 101.492188 73.1875 L 100.425781 73.128906 Z M 93.988281 133.25 "/>
<path style="fill-rule:nonzero;fill:rgb(39.99939%,39.99939%,39.99939%);fill-opacity:1;stroke-width:0.03;stroke-linecap:square;stroke-linejoin:miter;stroke:rgb(39.99939%,39.99939%,39.99939%);stroke-opacity:1;stroke-miterlimit:3.239307;" d="M 316.726562 220.71875 L 338.515625 227.429688 L 325.527344 236.203125 L 312.332031 232.847656 Z M 316.726562 220.71875 " transform="matrix(1,0,0,1,-74,-13)"/>
<path style="fill-rule:nonzero;fill:rgb(39.99939%,39.99939%,39.99939%);fill-opacity:1;stroke-width:0.03;stroke-linecap:square;stroke-linejoin:miter;stroke:rgb(39.99939%,39.99939%,39.99939%);stroke-opacity:1;stroke-miterlimit:3.239307;" d="M 197.003906 285.941406 L 215.414062 291.757812 L 208.332031 316.0625 L 204.140625 320.472656 L 202.496094 321.570312 L 186.777344 317.597656 Z M 197.003906 285.941406 " transform="matrix(1,0,0,1,-74,-13)"/>
<path style="fill-rule:nonzero;fill:rgb(39.99939%,39.99939%,39.99939%);fill-opacity:1;stroke-width:0.03;stroke-linecap:square;stroke-linejoin:miter;stroke:rgb(39.99939%,39.99939%,39.99939%);stroke-opacity:1;stroke-miterlimit:3.239307;" d="M 208.085938 249.03125 L 227.175781 254.941406 L 215.855469 290.140625 L 197.507812 284.304688 Z M 208.085938 249.03125 " transform="matrix(1,0,0,1,-74,-13)"/>
<path style="fill-rule:nonzero;fill:rgb(39.99939%,39.99939%,39.99939%);fill-opacity:1;stroke-width:0.03;stroke-linecap:square;stroke-linejoin:miter;stroke:rgb(39.99939%,39.99939%,39.99939%);stroke-opacity:1;stroke-miterlimit:3.239307;" d="M 149.878906 231.835938 L 169.117188 236.996094 L 157.109375 272.519531 L 138.210938 266.554688 Z M 149.878906 231.835938 " transform="matrix(1,0,0,1,-74,-13)"/>
<path style="fill-rule:nonzero;fill:rgb(39.99939%,39.99939%,39.99939%);fill-opacity:1;stroke-width:0.03;stroke-linecap:square;stroke-linejoin:miter;stroke:rgb(39.99939%,39.99939%,39.99939%);stroke-opacity:1;stroke-miterlimit:3.239307;" d="M 171.183594 237.578125 L 187.1875 242.277344 L 174.792969 277.03125 L 158.789062 272.945312 Z M 171.183594 237.578125 " transform="matrix(1,0,0,1,-74,-13)"/>
<path style="fill-rule:nonzero;fill:rgb(39.99939%,39.99939%,39.99939%);fill-opacity:1;stroke-width:0.03;stroke-linecap:square;stroke-linejoin:miter;stroke:rgb(39.99939%,39.99939%,39.99939%);stroke-opacity:1;stroke-miterlimit:3.239307;" d="M 188.882812 242.789062 L 205.882812 248.320312 L 195.199219 283.664062 L 176.960938 277.746094 Z M 188.882812 242.789062 " transform="matrix(1,0,0,1,-74,-13)"/>
<path style="fill-rule:nonzero;fill:rgb(39.99939%,39.99939%,39.99939%);fill-opacity:1;stroke-width:0.03;stroke-linecap:square;stroke-linejoin:miter;stroke:rgb(39.99939%,39.99939%,39.99939%);stroke-opacity:1;stroke-miterlimit:3.239307;" d="M 176.535156 279.386719 L 194.839844 285.25 L 184.730469 317.230469 L 164.933594 313.023438 Z M 176.535156 279.386719 " transform="matrix(1,0,0,1,-74,-13)"/>
<path style="fill-rule:nonzero;fill:rgb(39.99939%,39.99939%,39.99939%);fill-opacity:1;stroke-width:0.03;stroke-linecap:square;stroke-linejoin:miter;stroke:rgb(39.99939%,39.99939%,39.99939%);stroke-opacity:1;stroke-miterlimit:3.239307;" d="M 137.734375 268.363281 L 156.320312 274.128906 L 144.800781 308.511719 L 125.429688 304.175781 L 128.375 293.664062 L 128.507812 293.285156 L 131.015625 285.96875 Z M 137.734375 268.363281 " transform="matrix(1,0,0,1,-74,-13)"/>
<path style="fill-rule:nonzero;fill:rgb(39.99939%,39.99939%,39.99939%);fill-opacity:1;stroke-width:0.03;stroke-linecap:square;stroke-linejoin:miter;stroke:rgb(39.99939%,39.99939%,39.99939%);stroke-opacity:1;stroke-miterlimit:3.239307;" d="M 158.132812 274.738281 L 174.25 278.726562 L 162.894531 312.574219 L 146.703125 308.964844 Z M 158.132812 274.738281 " transform="matrix(1,0,0,1,-74,-13)"/>
<path style="fill-rule:nonzero;fill:rgb(39.99939%,39.99939%,39.99939%);fill-opacity:1;stroke-width:0.03;stroke-linecap:square;stroke-linejoin:miter;stroke:rgb(39.99939%,39.99939%,39.99939%);stroke-opacity:1;stroke-miterlimit:3.239307;" d="M 370.859375 172.976562 L 381.300781 137.832031 L 382.570312 137.84375 Z M 370.859375 172.976562 " transform="matrix(1,0,0,1,-74,-13)"/>
<path style="fill-rule:nonzero;fill:rgb(39.99939%,39.99939%,39.99939%);fill-opacity:1;stroke-width:0.03;stroke-linecap:square;stroke-linejoin:miter;stroke:rgb(39.99939%,39.99939%,39.99939%);stroke-opacity:1;stroke-miterlimit:3.239307;" d="M 369.15625 137.96875 L 378.96875 137.917969 L 367.574219 176.613281 L 357.734375 173.898438 Z M 369.15625 137.96875 " transform="matrix(1,0,0,1,-74,-13)"/>
<path style="fill-rule:nonzero;fill:rgb(39.99939%,39.99939%,39.99939%);fill-opacity:1;stroke-width:0.03;stroke-linecap:square;stroke-linejoin:miter;stroke:rgb(39.99939%,39.99939%,39.99939%);stroke-opacity:1;stroke-miterlimit:3.239307;" d="M 367.554688 137.917969 L 356.578125 173.566406 L 338.488281 168.691406 L 348.167969 137.335938 Z M 367.554688 137.917969 " transform="matrix(1,0,0,1,-74,-13)"/>
<path style="fill-rule:nonzero;fill:rgb(39.99939%,39.99939%,39.99939%);fill-opacity:1;stroke-width:0.03;stroke-linecap:square;stroke-linejoin:miter;stroke:rgb(39.99939%,39.99939%,39.99939%);stroke-opacity:1;stroke-miterlimit:3.239307;" d="M 319.378906 140.617188 L 331.59375 139.09375 L 344.902344 138.097656 L 336.53125 167.90625 L 313.511719 161.308594 Z M 319.378906 140.617188 " transform="matrix(1,0,0,1,-74,-13)"/>
<path style="fill-rule:nonzero;fill:rgb(39.99939%,39.99939%,39.99939%);fill-opacity:1;stroke-width:0.03;stroke-linecap:square;stroke-linejoin:miter;stroke:rgb(39.99939%,39.99939%,39.99939%);stroke-opacity:1;stroke-miterlimit:3.239307;" d="M 316.988281 140.613281 L 311.445312 160.847656 L 288.296875 154.90625 L 286.628906 152.3125 L 285.535156 150 L 284.902344 147.851562 Z M 316.988281 140.613281 " transform="matrix(1,0,0,1,-74,-13)"/>
<path style="fill-rule:nonzero;fill:rgb(39.99939%,39.99939%,39.99939%);fill-opacity:1;stroke-width:0.03;stroke-linecap:square;stroke-linejoin:miter;stroke:rgb(39.99939%,39.99939%,39.99939%);stroke-opacity:1;stroke-miterlimit:3.239307;" d="M 337.902344 170.632812 L 367.460938 178.421875 L 357.496094 208.769531 L 328.820312 200.917969 Z M 337.902344 170.632812 " transform="matrix(1,0,0,1,-74,-13)"/>
<path style="fill-rule:nonzero;fill:rgb(39.99939%,39.99939%,39.99939%);fill-opacity:1;stroke-width:0.03;stroke-linecap:square;stroke-linejoin:miter;stroke:rgb(39.99939%,39.99939%,39.99939%);stroke-opacity:1;stroke-miterlimit:3.239307;" d="M 312.808594 163.414062 L 335.882812 170.089844 L 326.648438 200.269531 L 302.957031 193.539062 Z M 312.808594 163.414062 " transform="matrix(1,0,0,1,-74,-13)"/>
<path style="fill-rule:nonzero;fill:rgb(39.99939%,39.99939%,39.99939%);fill-opacity:1;stroke-width:0.03;stroke-linecap:square;stroke-linejoin:miter;stroke:rgb(39.99939%,39.99939%,39.99939%);stroke-opacity:1;stroke-miterlimit:3.239307;" d="M 287.652344 156.792969 L 310.835938 162.859375 L 300.28125 192.792969 L 278.492188 187.027344 Z M 287.652344 156.792969 " transform="matrix(1,0,0,1,-74,-13)"/>
<path style="fill-rule:nonzero;fill:rgb(39.99939%,39.99939%,39.99939%);fill-opacity:1;stroke-width:0.03;stroke-linecap:square;stroke-linejoin:miter;stroke:rgb(39.99939%,39.99939%,39.99939%);stroke-opacity:1;stroke-miterlimit:3.239307;" d="M 282.285156 148.484375 L 282.625 150.472656 L 283.929688 153.183594 L 285.511719 155.371094 L 276.015625 186.378906 L 252.644531 180.179688 L 260.933594 153.1875 Z M 282.285156 148.484375 " transform="matrix(1,0,0,1,-74,-13)"/>
<path style="fill-rule:nonzero;fill:rgb(39.99939%,39.99939%,39.99939%);fill-opacity:1;stroke-width:0.03;stroke-linecap:square;stroke-linejoin:miter;stroke:rgb(39.99939%,39.99939%,39.99939%);stroke-opacity:1;stroke-miterlimit:3.239307;" d="M 232.320312 173.988281 L 236.359375 158.65625 L 258.480469 153.878906 L 250.65625 179.695312 Z M 232.320312 173.988281 " transform="matrix(1,0,0,1,-74,-13)"/>
<path style="fill-rule:nonzero;fill:rgb(39.99939%,39.99939%,39.99939%);fill-opacity:1;stroke-width:0.03;stroke-linecap:square;stroke-linejoin:miter;stroke:rgb(39.99939%,39.99939%,39.99939%);stroke-opacity:1;stroke-miterlimit:3.239307;" d="M 233.875 159.449219 L 230.046875 173.226562 L 213.292969 168.996094 L 205.289062 166.179688 L 205.027344 165.148438 Z M 233.875 159.449219 " transform="matrix(1,0,0,1,-74,-13)"/>
<path style="fill-rule:nonzero;fill:rgb(39.99939%,39.99939%,39.99939%);fill-opacity:1;stroke-width:0.03;stroke-linecap:square;stroke-linejoin:miter;stroke:rgb(39.99939%,39.99939%,39.99939%);stroke-opacity:1;stroke-miterlimit:3.239307;" d="M 291.355469 229.519531 L 321.335938 237.035156 L 323.183594 238.050781 L 283.597656 264.5625 L 282.816406 261.03125 Z M 291.355469 229.519531 " transform="matrix(1,0,0,1,-74,-13)"/>
<path style="fill-rule:nonzero;fill:rgb(39.99939%,39.99939%,39.99939%);fill-opacity:1;stroke-width:0.03;stroke-linecap:square;stroke-linejoin:miter;stroke:rgb(39.99939%,39.99939%,39.99939%);stroke-opacity:1;stroke-miterlimit:3.239307;" d="M 266.609375 223.515625 L 289.664062 229.1875 L 280.8125 262.117188 L 280.515625 266.230469 L 277.683594 268.222656 L 254.578125 260.984375 Z M 266.609375 223.515625 " transform="matrix(1,0,0,1,-74,-13)"/>
<path style="fill-rule:nonzero;fill:rgb(39.99939%,39.99939%,39.99939%);fill-opacity:1;stroke-width:0.03;stroke-linecap:square;stroke-linejoin:miter;stroke:rgb(39.99939%,39.99939%,39.99939%);stroke-opacity:1;stroke-miterlimit:3.239307;" d="M 238.367188 226.445312 L 261.074219 233.285156 L 252.6875 260.375 L 230.207031 253.234375 Z M 238.367188 226.445312 " transform="matrix(1,0,0,1,-74,-13)"/>
<path style="fill-rule:nonzero;fill:rgb(39.99939%,39.99939%,39.99939%);fill-opacity:1;stroke-width:0.03;stroke-linecap:square;stroke-linejoin:miter;stroke:rgb(39.99939%,39.99939%,39.99939%);stroke-opacity:1;stroke-miterlimit:3.239307;" d="M 181.40625 208.289062 L 196.796875 213.011719 L 187.828125 240.722656 L 171.910156 235.925781 Z M 181.40625 208.289062 " transform="matrix(1,0,0,1,-74,-13)"/>
<path style="fill-rule:nonzero;fill:rgb(39.99939%,39.99939%,39.99939%);fill-opacity:1;stroke-width:0.03;stroke-linecap:square;stroke-linejoin:miter;stroke:rgb(39.99939%,39.99939%,39.99939%);stroke-opacity:1;stroke-miterlimit:3.239307;" d="M 214.066406 171.175781 L 229.660156 175.144531 L 215.808594 217.398438 L 199.113281 212.113281 Z M 214.066406 171.175781 " transform="matrix(1,0,0,1,-74,-13)"/>
<path style="fill-rule:nonzero;fill:rgb(39.99939%,39.99939%,39.99939%);fill-opacity:1;stroke-width:0.03;stroke-linecap:square;stroke-linejoin:miter;stroke:rgb(39.99939%,39.99939%,39.99939%);stroke-opacity:1;stroke-miterlimit:3.239307;" d="M 217.488281 219.5625 L 236.539062 225.847656 L 227.695312 253.222656 L 208.628906 247.433594 Z M 217.488281 219.5625 " transform="matrix(1,0,0,1,-74,-13)"/>
<path style="fill-rule:nonzero;fill:rgb(39.99939%,39.99939%,39.99939%);fill-opacity:1;stroke-width:0.03;stroke-linecap:square;stroke-linejoin:miter;stroke:rgb(39.99939%,39.99939%,39.99939%);stroke-opacity:1;stroke-miterlimit:3.239307;" d="M 198.75 213.582031 L 215.160156 218.847656 L 206.441406 246.527344 L 189.476562 241.113281 Z M 198.75 213.582031 " transform="matrix(1,0,0,1,-74,-13)"/>
<path style="fill-rule:nonzero;fill:rgb(39.99939%,39.99939%,39.99939%);fill-opacity:1;stroke-width:0.03;stroke-linecap:square;stroke-linejoin:miter;stroke:rgb(39.99939%,39.99939%,39.99939%);stroke-opacity:1;stroke-miterlimit:3.239307;" d="M 231.917969 175.789062 L 250.191406 181.40625 L 237.027344 224.261719 L 217.941406 218.070312 Z M 231.917969 175.789062 " transform="matrix(1,0,0,1,-74,-13)"/>
<path style="fill-rule:nonzero;fill:rgb(39.99939%,39.99939%,39.99939%);fill-opacity:1;stroke-width:0.03;stroke-linecap:square;stroke-linejoin:miter;stroke:rgb(39.99939%,39.99939%,39.99939%);stroke-opacity:1;stroke-miterlimit:3.239307;" d="M 194.570312 167.195312 L 200.164062 166.125 L 211.5625 170.46875 L 197.339844 211.5625 L 181.863281 206.757812 Z M 194.570312 167.195312 " transform="matrix(1,0,0,1,-74,-13)"/>
<path style="fill-rule:nonzero;fill:rgb(39.99939%,39.99939%,39.99939%);fill-opacity:1;stroke-width:0.03;stroke-linecap:square;stroke-linejoin:miter;stroke:rgb(39.99939%,39.99939%,39.99939%);stroke-opacity:1;stroke-miterlimit:3.239307;" d="M 160.734375 201.707031 L 179.265625 207.644531 L 169.753906 235.28125 L 150.730469 230.054688 Z M 160.734375 201.707031 " transform="matrix(1,0,0,1,-74,-13)"/>
<path style="fill-rule:nonzero;fill:rgb(39.99939%,39.99939%,39.99939%);fill-opacity:1;stroke-width:0.03;stroke-linecap:square;stroke-linejoin:miter;stroke:rgb(39.99939%,39.99939%,39.99939%);stroke-opacity:1;stroke-miterlimit:3.239307;" d="M 192.40625 167.472656 L 179.863281 206.121094 L 161.34375 200.15625 L 170.464844 171.699219 Z M 192.40625 167.472656 " transform="matrix(1,0,0,1,-74,-13)"/>
<path style="fill-rule:nonzero;fill:rgb(39.99939%,39.99939%,39.99939%);fill-opacity:1;stroke-width:0.03;stroke-linecap:square;stroke-linejoin:miter;stroke:rgb(39.99939%,39.99939%,39.99939%);stroke-opacity:1;stroke-miterlimit:3.239307;" d="M 229.546875 255.761719 L 273.226562 269.195312 L 274.316406 270.738281 L 212.78125 313.851562 L 211.816406 312.808594 L 222.117188 278.375 L 242.082031 284.640625 L 242.707031 283.15625 L 222.875 276.753906 Z M 229.546875 255.761719 " transform="matrix(1,0,0,1,-74,-13)"/>
<path style="fill-rule:nonzero;fill:rgb(39.99939%,39.99939%,39.99939%);fill-opacity:1;stroke-width:0.03;stroke-linecap:square;stroke-linejoin:miter;stroke:rgb(39.99939%,39.99939%,39.99939%);stroke-opacity:1;stroke-miterlimit:3.239307;" d="M 358.25 211.074219 L 359.242188 213.277344 L 339.726562 226.597656 L 316.109375 219.292969 L 293.773438 212.382812 L 293.53125 213.007812 L 293.289062 213.636719 L 315.671875 220.386719 L 311.203125 232.515625 L 264.996094 221.007812 L 261.660156 231.703125 L 238.898438 224.726562 L 252.113281 181.914062 L 276.648438 188.660156 L 301.226562 195.441406 L 326.503906 202.722656 Z M 358.25 211.074219 " transform="matrix(1,0,0,1,-74,-13)"/>
<path style="fill-rule:nonzero;fill:rgb(39.99939%,39.99939%,39.99939%);fill-opacity:1;stroke-width:0.03;stroke-linecap:square;stroke-linejoin:miter;stroke:rgb(39.99939%,39.99939%,39.99939%);stroke-opacity:1;stroke-miterlimit:3.239307;" d="M 220.558594 154.710938 L 198.460938 159.617188 L 198.675781 158.867188 Z M 220.558594 154.710938 " transform="matrix(1,0,0,1,-74,-13)"/>
<path style="fill-rule:nonzero;fill:rgb(39.99939%,39.99939%,39.99939%);fill-opacity:1;stroke-width:0.03;stroke-linecap:square;stroke-linejoin:miter;stroke:rgb(39.99939%,39.99939%,39.99939%);stroke-opacity:1;stroke-miterlimit:3.239307;" d="M 196.9375 159.214844 L 196.75 159.875 L 185.027344 162.152344 Z M 196.9375 159.214844 " transform="matrix(1,0,0,1,-74,-13)"/>
<path style=" stroke:none;fill-rule:evenodd;fill:rgb(85.096741%,85.096741%,81.959534%);fill-opacity:0.7;" d="M 255.621094 334 C 255.621094 330.121094 254.078125 326.402344 251.339844 323.660156 C 248.597656 320.921875 244.878906 319.378906 241 319.378906 C 237.121094 319.378906 233.402344 320.921875 230.660156 323.660156 C 227.921875 326.402344 226.378906 330.121094 226.378906 334 C 226.378906 337.878906 227.921875 341.597656 230.660156 344.339844 C 233.402344 347.078125 237.121094 348.621094 241 348.621094 C 244.878906 348.621094 248.597656 347.078125 251.339844 344.339844 C 254.078125 341.597656 255.621094 337.878906 255.621094 334 Z M 255.621094 334 "/>
<path style=" stroke:none;fill-rule:evenodd;fill:rgb(85.096741%,85.096741%,81.959534%);fill-opacity:0.7;" d="M 277.621094 304 C 277.621094 300.121094 276.078125 296.402344 273.339844 293.660156 C 270.597656 290.921875 266.878906 289.378906 263 289.378906 C 259.121094 289.378906 255.402344 290.921875 252.660156 293.660156 C 249.921875 296.402344 248.378906 300.121094 248.378906 304 C 248.378906 307.878906 249.921875 311.597656 252.660156 314.339844 C 255.402344 317.078125 259.121094 318.621094 263 318.621094 C 266.878906 318.621094 270.597656 317.078125 273.339844 314.339844 C 276.078125 311.597656 277.621094 307.878906 277.621094 304 Z M 277.621094 304 "/>
<path style=" stroke:none;fill-rule:evenodd;fill:rgb(85.096741%,85.096741%,81.959534%);fill-opacity:0.7;" d="M 193.621094 299 C 193.621094 295.121094 192.078125 291.402344 189.339844 288.660156 C 186.597656 285.921875 182.878906 284.378906 179 284.378906 C 175.121094 284.378906 171.402344 285.921875 168.660156 288.660156 C 165.921875 291.402344 164.378906 295.121094 164.378906 299 C 164.378906 302.878906 165.921875 306.597656 168.660156 309.339844 C 171.402344 312.078125 175.121094 313.621094 179 313.621094 C 182.878906 313.621094 186.597656 312.078125 189.339844 309.339844 C 192.078125 306.597656 193.621094 302.878906 193.621094 299 Z M 193.621094 299 "/>
<path style=" stroke:none;fill-rule:evenodd;fill:rgb(85.096741%,85.096741%,81.959534%);fill-opacity:0.7;" d="M 324.621094 263 C 324.621094 259.121094 323.078125 255.402344 320.339844 252.660156 C 317.597656 249.921875 313.878906 248.378906 310 248.378906 C 306.121094 248.378906 302.402344 249.921875 299.660156 252.660156 C 296.921875 255.402344 295.378906 259.121094 295.378906 263 C 295.378906 266.878906 296.921875 270.597656 299.660156 273.339844 C 302.402344 276.078125 306.121094 277.621094 310 277.621094 C 313.878906 277.621094 317.597656 276.078125 320.339844 273.339844 C 323.078125 270.597656 324.621094 266.878906 324.621094 263 Z M 324.621094 263 "/>
<path style=" stroke:none;fill-rule:evenodd;fill:rgb(85.096741%,85.096741%,81.959534%);fill-opacity:0.7;" d="M 166.621094 238 C 166.621094 234.121094 165.078125 230.402344 162.339844 227.660156 C 159.597656 224.921875 155.878906 223.378906 152 223.378906 C 148.121094 223.378906 144.402344 224.921875 141.660156 227.660156 C 138.921875 230.402344 137.378906 234.121094 137.378906 238 C 137.378906 241.878906 138.921875 245.597656 141.660156 248.339844 C 144.402344 251.078125 148.121094 252.621094 152 252.621094 C 155.878906 252.621094 159.597656 251.078125 162.339844 248.339844 C 165.078125 245.597656 166.621094 241.878906 166.621094 238 Z M 166.621094 238 "/>
<path style=" stroke:none;fill-rule:evenodd;fill:rgb(85.096741%,85.096741%,81.959534%);fill-opacity:0.7;" d="M 324.621094 171 C 324.621094 167.121094 323.078125 163.402344 320.339844 160.660156 C 317.597656 157.921875 313.878906 156.378906 310 156.378906 C 306.121094 156.378906 302.402344 157.921875 299.660156 160.660156 C 296.921875 163.402344 295.378906 167.121094 295.378906 171 C 295.378906 174.878906 296.921875 178.597656 299.660156 181.339844 C 302.402344 184.078125 306.121094 185.621094 310 185.621094 C 313.878906 185.621094 317.597656 184.078125 320.339844 181.339844 C 323.078125 178.597656 324.621094 174.878906 324.621094 171 Z M 324.621094 171 "/>
<path style=" stroke:none;fill-rule:evenodd;fill:rgb(85.096741%,85.096741%,81.959534%);fill-opacity:0.7;" d="M 145.621094 135 C 145.621094 131.121094 144.078125 127.402344 141.339844 124.660156 C 138.597656 121.921875 134.878906 120.378906 131 120.378906 C 127.121094 120.378906 123.402344 121.921875 120.660156 124.660156 C 117.921875 127.402344 116.378906 131.121094 116.378906 135 C 116.378906 138.878906 117.921875 142.597656 120.660156 145.339844 C 123.402344 148.078125 127.121094 149.621094 131 149.621094 C 134.878906 149.621094 138.597656 148.078125 141.339844 145.339844 C 144.078125 142.597656 145.621094 138.878906 145.621094 135 Z M 145.621094 135 "/>
<path style=" stroke:none;fill-rule:evenodd;fill:rgb(85.096741%,85.096741%,81.959534%);fill-opacity:0.7;" d="M 237.621094 125 C 237.621094 121.121094 236.078125 117.402344 233.339844 114.660156 C 230.597656 111.921875 226.878906 110.378906 223 110.378906 C 219.121094 110.378906 215.402344 111.921875 212.660156 114.660156 C 209.921875 117.402344 208.378906 121.121094 208.378906 125 C 208.378906 128.878906 209.921875 132.597656 212.660156 135.339844 C 215.402344 138.078125 219.121094 139.621094 223 139.621094 C 226.878906 139.621094 230.597656 138.078125 233.339844 135.339844 C 236.078125 132.597656 237.621094 128.878906 237.621094 125 Z M 237.621094 125 "/>
<path style=" stroke:none;fill-rule:evenodd;fill:rgb(85.096741%,85.096741%,81.959534%);fill-opacity:0.7;" d="M 334.621094 97 C 334.621094 93.121094 333.078125 89.402344 330.339844 86.660156 C 327.597656 83.921875 323.878906 82.378906 320 82.378906 C 316.121094 82.378906 312.402344 83.921875 309.660156 86.660156 C 306.921875 89.402344 305.378906 93.121094 305.378906 97 C 305.378906 100.878906 306.921875 104.597656 309.660156 107.339844 C 312.402344 110.078125 316.121094 111.621094 320 111.621094 C 323.878906 111.621094 327.597656 110.078125 330.339844 107.339844 C 333.078125 104.597656 334.621094 100.878906 334.621094 97 Z M 334.621094 97 "/>
<g clip-path="url(#clip27)" clip-rule="nonzero">
<path style=" stroke:none;fill-rule:evenodd;fill:rgb(85.096741%,85.096741%,81.959534%);fill-opacity:0.7;" d="M 159.621094 346 C 159.621094 342.121094 158.078125 338.402344 155.339844 335.660156 C 152.597656 332.921875 148.878906 331.378906 145 331.378906 C 141.121094 331.378906 137.402344 332.921875 134.660156 335.660156 C 131.921875 338.402344 130.378906 342.121094 130.378906 346 C 130.378906 349.878906 131.921875 353.597656 134.660156 356.339844 C 137.402344 359.078125 141.121094 360.621094 145 360.621094 C 148.878906 360.621094 152.597656 359.078125 155.339844 356.339844 C 158.078125 353.597656 159.621094 349.878906 159.621094 346 Z M 159.621094 346 "/>
</g>
<path style=" stroke:none;fill-rule:evenodd;fill:rgb(85.096741%,85.096741%,81.959534%);fill-opacity:0.7;" d="M 308.621094 257 C 308.621094 253.121094 307.078125 249.402344 304.339844 246.660156 C 301.597656 243.921875 297.878906 242.378906 294 242.378906 C 290.121094 242.378906 286.402344 243.921875 283.660156 246.660156 C 280.921875 249.402344 279.378906 253.121094 279.378906 257 C 279.378906 260.878906 280.921875 264.597656 283.660156 267.339844 C 286.402344 270.078125 290.121094 271.621094 294 271.621094 C 297.878906 271.621094 301.597656 270.078125 304.339844 267.339844 C 307.078125 264.597656 308.621094 260.878906 308.621094 257 Z M 308.621094 257 "/>
<path style=" stroke:none;fill-rule:evenodd;fill:rgb(85.096741%,85.096741%,81.959534%);fill-opacity:0.7;" d="M 295.621094 60 C 295.621094 56.121094 294.078125 52.402344 291.339844 49.660156 C 288.597656 46.921875 284.878906 45.378906 281 45.378906 C 277.121094 45.378906 273.402344 46.921875 270.660156 49.660156 C 267.921875 52.402344 266.378906 56.121094 266.378906 60 C 266.378906 63.878906 267.921875 67.597656 270.660156 70.339844 C 273.402344 73.078125 277.121094 74.621094 281 74.621094 C 284.878906 74.621094 288.597656 73.078125 291.339844 70.339844 C 294.078125 67.597656 295.621094 63.878906 295.621094 60 Z M 295.621094 60 "/>
<path style=" stroke:none;fill-rule:evenodd;fill:rgb(85.096741%,85.096741%,81.959534%);fill-opacity:0.7;" d="M 176.621094 235 C 176.621094 231.121094 175.078125 227.402344 172.339844 224.660156 C 169.597656 221.921875 165.878906 220.378906 162 220.378906 C 158.121094 220.378906 154.402344 221.921875 151.660156 224.660156 C 148.921875 227.402344 147.378906 231.121094 147.378906 235 C 147.378906 238.878906 148.921875 242.597656 151.660156 245.339844 C 154.402344 248.078125 158.121094 249.621094 162 249.621094 C 165.878906 249.621094 169.597656 248.078125 172.339844 245.339844 C 175.078125 242.597656 176.621094 238.878906 176.621094 235 Z M 176.621094 235 "/>
<path style="fill-rule:nonzero;fill:rgb(99.998474%,99.998474%,30.587769%);fill-opacity:0.8;stroke-width:0.288;stroke-linecap:square;stroke-linejoin:miter;stroke:rgb(0%,0%,0%);stroke-opacity:0.8;stroke-miterlimit:3.25;" d="M 280.925781 275.742188 L 249.273438 330.570312 L 312.578125 330.570312 Z M 280.925781 275.742188 " transform="matrix(1,0,0,1,-74,-13)"/>
<path style="fill-rule:nonzero;fill:rgb(99.998474%,99.998474%,30.587769%);fill-opacity:0.8;stroke-width:0.288;stroke-linecap:square;stroke-linejoin:miter;stroke:rgb(0%,0%,0%);stroke-opacity:0.8;stroke-miterlimit:3.25;" d="M 339.40625 173.398438 L 307.753906 228.226562 L 371.0625 228.226562 Z M 339.40625 173.398438 " transform="matrix(1,0,0,1,-74,-13)"/>
</g>
</svg>
