<?xml version="1.0" encoding="UTF-8"?>
<svg xmlns="http://www.w3.org/2000/svg" xmlns:xlink="http://www.w3.org/1999/xlink" width="361pt" height="361pt" viewBox="0 0 361 361" version="1.1">
<defs>
<clipPath id="clip1">
  <path d="M 309 263 L 360 263 L 360 360 L 309 360 Z M 309 263 "/>
</clipPath>
<clipPath id="clip2">
  <path d="M 0 333 L 114 333 L 114 360 L 0 360 Z M 0 333 "/>
</clipPath>
<clipPath id="clip3">
  <path d="M 74 295 L 186 295 L 186 360 L 74 360 Z M 74 295 "/>
</clipPath>
<clipPath id="clip4">
  <path d="M 349 211 L 360 211 L 360 279 L 349 279 Z M 349 211 "/>
</clipPath>
<clipPath id="clip5">
  <path d="M 256 0 L 360 0 L 360 84 L 256 84 Z M 256 0 "/>
</clipPath>
<clipPath id="clip6">
  <path d="M 85 282 L 229 282 L 229 360 L 85 360 Z M 85 282 "/>
</clipPath>
<clipPath id="clip7">
  <path d="M 116 290 L 195 290 L 195 360 L 116 360 Z M 116 290 "/>
</clipPath>
</defs>
<g id="surface224">
<path style="fill-rule:nonzero;fill:rgb(0%,0%,0%);fill-opacity:1;stroke-width:0.03;stroke-linecap:square;stroke-linejoin:miter;stroke:rgb(0%,0%,0%);stroke-opacity:1;stroke-miterlimit:10;" d="M 0 178 L 360 178 L 360 -182 L 0 -182 Z M 0 178 " transform="matrix(1,0,0,1,0,182)"/>
<g clip-path="url(#clip1)" clip-rule="nonzero">
<path style=" stroke:none;fill-rule:nonzero;fill:rgb(39.99939%,39.99939%,39.99939%);fill-opacity:0.3;" d="M 335.347656 309.378906 L 358.933594 309.128906 L 377.210938 305.285156 L 400.039062 298.351562 L 425.625 287.355469 L 447.792969 275.972656 L 480.441406 263.109375 L 496.398438 271.667969 L 439.726562 441.65625 L 396.5 421.464844 L 404.90625 398.675781 L 402.089844 397.570312 L 398.984375 396.355469 L 390.777344 418.992188 L 309.820312 381.5 Z M 335.347656 309.378906 "/>
</g>
<g clip-path="url(#clip2)" clip-rule="nonzero">
<path style=" stroke:none;fill-rule:nonzero;fill:rgb(39.99939%,39.99939%,39.99939%);fill-opacity:0.3;" d="M 35.164062 471.640625 L -9.53125 459.394531 L 6.480469 383.574219 L 113.195312 333.230469 L 69.800781 480.371094 L 38.527344 472.507812 L 51.957031 420.742188 L 50.339844 420.304688 L 48.722656 419.863281 Z M 35.164062 471.640625 "/>
</g>
<path style=" stroke:none;fill-rule:nonzero;fill:rgb(39.99939%,39.99939%,39.99939%);fill-opacity:0.3;" d="M 207.535156 256.429688 L 191.679688 258.945312 L 178.472656 261.734375 L 191.601562 257.207031 Z M 207.535156 256.429688 "/>
<g clip-path="url(#clip3)" clip-rule="nonzero">
<path style=" stroke:none;fill-rule:nonzero;fill:rgb(39.99939%,39.99939%,39.99939%);fill-opacity:0.3;" d="M 118.742188 331.445312 L 185.3125 295.878906 L 185.730469 297.132812 L 116.53125 493.195312 L 74.230469 482.492188 Z M 118.742188 331.445312 "/>
</g>
<path style=" stroke:none;fill-rule:nonzero;fill:rgb(39.99939%,39.99939%,39.99939%);fill-opacity:0.3;" d="M 48.667969 267.804688 L 25.460938 322.628906 L -15.257812 338.226562 L 11.347656 264.386719 Z M 48.667969 267.804688 "/>
<path style=" stroke:none;fill-rule:nonzero;fill:rgb(39.99939%,39.99939%,39.99939%);fill-opacity:0.3;" d="M -33.085938 242.226562 L 8.136719 140.652344 L 42.546875 153.464844 L 3.785156 246.484375 Z M -33.085938 242.226562 "/>
<path style=" stroke:none;fill-rule:nonzero;fill:rgb(39.99939%,39.99939%,39.99939%);fill-opacity:0.3;" d="M 20.648438 245.171875 L 56.6875 156.09375 L 92.019531 168.4375 L 57.4375 250.632812 Z M 20.648438 245.171875 "/>
<path style=" stroke:none;fill-rule:nonzero;fill:rgb(39.99939%,39.99939%,39.99939%);fill-opacity:0.3;" d="M 97.609375 11.445312 L 60.730469 -0.199219 L 91.820312 -85.171875 L 116.425781 -45.550781 Z M 97.609375 11.445312 "/>
<path style=" stroke:none;fill-rule:nonzero;fill:rgb(39.99939%,39.99939%,39.99939%);fill-opacity:0.3;" d="M 149.898438 11.496094 L 144.980469 29.800781 L 108.984375 15.609375 L 123.179688 -32.40625 Z M 149.898438 11.496094 "/>
<path style=" stroke:none;fill-rule:nonzero;fill:rgb(39.99939%,39.99939%,39.99939%);fill-opacity:0.3;" d="M -43.976562 105.75 L 1.449219 0.527344 L 38.578125 12.488281 L -1.027344 119.808594 Z M -43.976562 105.75 "/>
<path style=" stroke:none;fill-rule:nonzero;fill:rgb(39.99939%,39.99939%,39.99939%);fill-opacity:0.3;" d="M 11.921875 124.734375 L 53.171875 18.257812 L 92.003906 31.074219 L 50.804688 137.796875 Z M 11.921875 124.734375 "/>
<path style=" stroke:none;fill-rule:nonzero;fill:rgb(39.99939%,39.99939%,39.99939%);fill-opacity:0.3;" d="M 59.8125 141.226562 L 104.011719 33.359375 L 140.90625 46.292969 L 98.957031 154.277344 Z M 59.8125 141.226562 "/>
<g clip-path="url(#clip4)" clip-rule="nonzero">
<path style=" stroke:none;fill-rule:nonzero;fill:rgb(39.99939%,39.99939%,39.99939%);fill-opacity:0.3;" d="M 372.398438 211.566406 L 451.117188 241.195312 L 426.972656 255.457031 L 407.203125 263.882812 L 384.664062 271.3125 L 366.03125 276.085938 L 349.667969 278.734375 Z M 372.398438 211.566406 "/>
</g>
<path style=" stroke:none;fill-rule:nonzero;fill:rgb(39.99939%,39.99939%,39.99939%);fill-opacity:0.3;" d="M 247.042969 224.757812 L 244.671875 236.886719 L 242.398438 243.972656 L 242.378906 243.996094 Z M 247.042969 224.757812 "/>
<path style=" stroke:none;fill-rule:nonzero;fill:rgb(39.99939%,39.99939%,39.99939%);fill-opacity:0.3;" d="M 210.324219 53.085938 L 268.550781 -99.6875 L 306.296875 -86.667969 L 249.761719 65.175781 Z M 210.324219 53.085938 "/>
<g clip-path="url(#clip5)" clip-rule="nonzero">
<path style=" stroke:none;fill-rule:nonzero;fill:rgb(39.99939%,39.99939%,39.99939%);fill-opacity:0.3;" d="M 306.21875 83.78125 L 256.257812 67.3125 L 313.082031 -85.609375 L 363.023438 -68.878906 Z M 306.21875 83.78125 "/>
</g>
<path style=" stroke:none;fill-rule:nonzero;fill:rgb(39.99939%,39.99939%,39.99939%);fill-opacity:0.3;" d="M 177.957031 1.699219 L 221.269531 -117.175781 L 260.269531 -103.980469 L 206.796875 45.21875 Z M 177.957031 1.699219 "/>
<g clip-path="url(#clip6)" clip-rule="nonzero">
<path style=" stroke:none;fill-rule:nonzero;fill:rgb(39.99939%,39.99939%,39.99939%);fill-opacity:0.3;" d="M 199.136719 289.957031 L 204.285156 285.230469 L 215.820312 282.28125 L 228.054688 282.414062 L 160.4375 484.277344 L 113.011719 603.4375 L 85.152344 601.226562 Z M 199.136719 289.957031 "/>
</g>
<g clip-path="url(#clip7)" clip-rule="nonzero">
<path style=" stroke:none;fill-rule:nonzero;fill:rgb(39.99939%,39.99939%,39.99939%);fill-opacity:0.3;" d="M 185.3125 295.878906 L 194.550781 290.941406 L 117.917969 493.546875 L 116.53125 493.195312 L 185.730469 297.132812 Z M 185.3125 295.878906 "/>
</g>
<path style=" stroke:none;fill-rule:nonzero;fill:rgb(39.99939%,39.99939%,39.99939%);fill-opacity:0.3;" d="M 165.617188 265.265625 L 153.636719 263.644531 L 181.957031 226.199219 L 188.621094 216.425781 L 195.886719 200.332031 L 242.179688 212.644531 L 245.761719 214.261719 L 248.332031 216.21875 L 247.566406 222.085938 L 247.042969 224.757812 L 242.378906 243.996094 L 238.105469 249.898438 L 226.835938 254.328125 L 209.863281 256.0625 L 207.535156 256.429688 L 191.601562 257.207031 L 178.472656 261.734375 L 175.3125 262.402344 Z M 165.617188 265.265625 "/>
<path style=" stroke:none;fill-rule:nonzero;fill:rgb(39.99939%,39.99939%,39.99939%);fill-opacity:0.3;" d="M 51.429688 308.570312 L 68.097656 270.070312 L 110.730469 274.304688 L 104.804688 289.738281 Z M 51.429688 308.570312 "/>
<path style=" stroke:none;fill-rule:nonzero;fill:rgb(39.99939%,39.99939%,39.99939%);fill-opacity:0.3;" d="M 184.605469 78.410156 L 148.492188 169.542969 L 111.503906 158.234375 L 155.882812 51.429688 L 178.035156 59.882812 Z M 184.605469 78.410156 "/>
<path style=" stroke:none;fill-rule:nonzero;fill:rgb(39.99939%,39.99939%,39.99939%);fill-opacity:0.3;" d="M 76.410156 252.894531 L 107.007812 175.117188 L 142.203125 186.066406 L 116.988281 257.511719 Z M 76.410156 252.894531 "/>
<path style=" stroke:none;fill-rule:nonzero;fill:rgb(39.99939%,39.99939%,39.99939%);fill-opacity:0.3;" d="M 125.316406 260.144531 L 149.933594 189.316406 L 179.292969 199.089844 L 170.601562 215.820312 L 138.726562 262.746094 Z M 125.316406 260.144531 "/>
<path style=" stroke:none;fill-rule:nonzero;fill:rgb(39.99939%,39.99939%,39.99939%);fill-opacity:0.3;" d="M 158.507812 173.5625 L 188.503906 93.8125 L 191.367188 93.421875 L 193.546875 94.328125 L 196.007812 105.832031 L 194.808594 146.554688 L 192.910156 163.359375 L 186.792969 183.140625 Z M 158.507812 173.5625 "/>
<path style=" stroke:none;fill-rule:nonzero;fill:rgb(39.99939%,39.99939%,39.99939%);fill-opacity:0.3;" d="M 289.710938 97.222656 L 264.859375 159.039062 L 258.679688 159.691406 L 253.363281 156.054688 L 204.929688 68.53125 Z M 289.710938 97.222656 "/>
<path style=" stroke:none;fill-rule:nonzero;fill:rgb(39.99939%,39.99939%,39.99939%);fill-opacity:0.3;" d="M 209.503906 140 L 205.625 102.351562 L 209.679688 100.425781 L 252.542969 173.496094 L 253.773438 205.207031 L 197.417969 188.136719 Z M 209.503906 140 "/>
<path style="fill-rule:nonzero;fill:rgb(39.99939%,39.99939%,39.99939%);fill-opacity:1;stroke-width:0.03;stroke-linecap:square;stroke-linejoin:miter;stroke:rgb(39.99939%,39.99939%,39.99939%);stroke-opacity:1;stroke-miterlimit:3.239307;" d="M 239.617188 278.265625 L 227.636719 276.644531 L 255.957031 239.199219 L 262.621094 229.425781 L 269.886719 213.332031 L 316.179688 225.644531 L 319.761719 227.261719 L 322.332031 229.21875 L 321.566406 235.085938 L 321.042969 237.757812 L 316.378906 256.996094 L 312.105469 262.898438 L 300.835938 267.328125 L 283.863281 269.0625 L 281.535156 269.429688 L 265.601562 270.207031 L 252.472656 274.734375 L 249.3125 275.402344 Z M 239.617188 278.265625 " transform="matrix(1,0,0,1,-74,-13)"/>
<path style="fill-rule:nonzero;fill:rgb(39.99939%,39.99939%,39.99939%);fill-opacity:1;stroke-width:0.03;stroke-linecap:square;stroke-linejoin:miter;stroke:rgb(39.99939%,39.99939%,39.99939%);stroke-opacity:1;stroke-miterlimit:3.239307;" d="M 125.429688 321.570312 L 142.097656 283.070312 L 184.730469 287.304688 L 178.804688 302.738281 Z M 125.429688 321.570312 " transform="matrix(1,0,0,1,-74,-13)"/>
<path style="fill-rule:nonzero;fill:rgb(39.99939%,39.99939%,39.99939%);fill-opacity:1;stroke-width:0.03;stroke-linecap:square;stroke-linejoin:miter;stroke:rgb(39.99939%,39.99939%,39.99939%);stroke-opacity:1;stroke-miterlimit:3.239307;" d="M 258.605469 91.410156 L 222.492188 182.542969 L 185.503906 171.234375 L 229.882812 64.429688 L 252.035156 72.882812 Z M 258.605469 91.410156 " transform="matrix(1,0,0,1,-74,-13)"/>
<path style="fill-rule:nonzero;fill:rgb(39.99939%,39.99939%,39.99939%);fill-opacity:1;stroke-width:0.03;stroke-linecap:square;stroke-linejoin:miter;stroke:rgb(39.99939%,39.99939%,39.99939%);stroke-opacity:1;stroke-miterlimit:3.239307;" d="M 150.410156 265.894531 L 181.007812 188.117188 L 216.203125 199.066406 L 190.988281 270.511719 Z M 150.410156 265.894531 " transform="matrix(1,0,0,1,-74,-13)"/>
<path style="fill-rule:nonzero;fill:rgb(39.99939%,39.99939%,39.99939%);fill-opacity:1;stroke-width:0.03;stroke-linecap:square;stroke-linejoin:miter;stroke:rgb(39.99939%,39.99939%,39.99939%);stroke-opacity:1;stroke-miterlimit:3.239307;" d="M 199.316406 273.144531 L 223.933594 202.316406 L 253.292969 212.089844 L 244.601562 228.820312 L 212.726562 275.746094 Z M 199.316406 273.144531 " transform="matrix(1,0,0,1,-74,-13)"/>
<path style="fill-rule:nonzero;fill:rgb(39.99939%,39.99939%,39.99939%);fill-opacity:1;stroke-width:0.03;stroke-linecap:square;stroke-linejoin:miter;stroke:rgb(39.99939%,39.99939%,39.99939%);stroke-opacity:1;stroke-miterlimit:3.239307;" d="M 232.507812 186.5625 L 262.503906 106.8125 L 265.367188 106.421875 L 267.546875 107.328125 L 270.007812 118.832031 L 268.808594 159.554688 L 266.910156 176.359375 L 260.792969 196.140625 Z M 232.507812 186.5625 " transform="matrix(1,0,0,1,-74,-13)"/>
<path style="fill-rule:nonzero;fill:rgb(39.99939%,39.99939%,39.99939%);fill-opacity:1;stroke-width:0.03;stroke-linecap:square;stroke-linejoin:miter;stroke:rgb(39.99939%,39.99939%,39.99939%);stroke-opacity:1;stroke-miterlimit:3.239307;" d="M 363.710938 110.222656 L 338.859375 172.039062 L 332.679688 172.691406 L 327.363281 169.054688 L 278.929688 81.53125 Z M 363.710938 110.222656 " transform="matrix(1,0,0,1,-74,-13)"/>
<path style="fill-rule:nonzero;fill:rgb(39.99939%,39.99939%,39.99939%);fill-opacity:1;stroke-width:0.03;stroke-linecap:square;stroke-linejoin:miter;stroke:rgb(39.99939%,39.99939%,39.99939%);stroke-opacity:1;stroke-miterlimit:3.239307;" d="M 283.503906 153 L 279.625 115.351562 L 283.679688 113.425781 L 326.542969 186.496094 L 327.773438 218.207031 L 271.417969 201.136719 Z M 283.503906 153 " transform="matrix(1,0,0,1,-74,-13)"/>
<path style=" stroke:none;fill-rule:evenodd;fill:rgb(85.096741%,85.096741%,81.959534%);fill-opacity:0.7;" d="M 115.96875 288 C 115.96875 275.542969 111.023438 263.59375 102.214844 254.785156 C 93.40625 245.976562 81.457031 241.03125 69 241.03125 C 56.542969 241.03125 44.59375 245.976562 35.785156 254.785156 C 26.976562 263.59375 22.03125 275.542969 22.03125 288 C 22.03125 300.457031 26.976562 312.40625 35.785156 321.214844 C 44.59375 330.023438 56.542969 334.96875 69 334.96875 C 81.457031 334.96875 93.40625 330.023438 102.214844 321.214844 C 111.023438 312.40625 115.96875 300.457031 115.96875 288 Z M 115.96875 288 "/>
</g>
</svg>
