<?xml version="1.0" encoding="UTF-8"?>
<svg xmlns="http://www.w3.org/2000/svg" xmlns:xlink="http://www.w3.org/1999/xlink" width="361pt" height="361pt" viewBox="0 0 361 361" version="1.1">
<defs>
<clipPath id="clip1">
  <path d="M 305 0 L 360 0 L 360 9 L 305 9 Z M 305 0 "/>
</clipPath>
<clipPath id="clip2">
  <path d="M 318 0 L 360 0 L 360 9 L 318 9 Z M 318 0 "/>
</clipPath>
<clipPath id="clip3">
  <path d="M 0 271 L 127 271 L 127 360 L 0 360 Z M 0 271 "/>
</clipPath>
<clipPath id="clip4">
  <path d="M 0 269 L 129 269 L 129 360 L 0 360 Z M 0 269 "/>
</clipPath>
</defs>
<g id="surface9940">
<path style="fill-rule:nonzero;fill:rgb(0%,0%,0%);fill-opacity:1;stroke-width:0.03;stroke-linecap:square;stroke-linejoin:miter;stroke:rgb(0%,0%,0%);stroke-opacity:1;stroke-miterlimit:10;" d="M 0 178 L 360 178 L 360 -182 L 0 -182 Z M 0 178 " transform="matrix(1,0,0,1,0,182)"/>
<path style=" stroke:none;fill-rule:nonzero;fill:rgb(39.99939%,39.99939%,39.99939%);fill-opacity:0.3;" d="M 82.789062 73.046875 L 85.136719 72.523438 L 93.921875 71.613281 L 98.972656 138.40625 L 148.042969 148.824219 L 142.054688 182.53125 L 128.96875 180.769531 L 124.402344 207.867188 L 136.210938 208.476562 L 134.378906 221.0625 L 134.277344 222.335938 L 134.105469 223.707031 L 133.972656 224.65625 L 133.828125 225.542969 L 133.582031 226.414062 L 133.246094 227.253906 L 132.816406 228.054688 L 132.300781 228.808594 L 131.703125 229.507812 L 131.035156 230.144531 L 130.417969 230.621094 L 69.5625 219.125 L 66.546875 188.433594 L 54.570312 189.410156 L 56.015625 177.316406 L 58.488281 149.523438 L 63.78125 123.054688 L 90.25 123.9375 Z M 82.789062 73.046875 "/>
<path style=" stroke:none;fill-rule:nonzero;fill:rgb(39.99939%,39.99939%,39.99939%);fill-opacity:0.3;" d="M 132.335938 236.1875 L 133.394531 235.664062 L 134.441406 235.003906 L 135.40625 234.246094 L 136.289062 233.394531 L 137.066406 232.460938 L 137.742188 231.457031 L 138.203125 230.59375 L 144.769531 222.171875 L 152.503906 216.761719 L 191.402344 189.421875 L 190.414062 188.019531 L 189.429688 186.621094 L 165.796875 202.21875 L 149.710938 209.402344 L 137.871094 199.757812 L 147.058594 191.964844 L 153.984375 175.753906 L 164.695312 90.691406 L 204.207031 91.160156 L 199.761719 116.464844 L 205.355469 116.457031 L 211.195312 92.34375 L 261.8125 91.039062 L 258.832031 125.109375 L 195.375 210.308594 L 150.769531 273.785156 L 145.460938 272.480469 L 140.683594 270.808594 L 141.425781 269.523438 Z M 132.335938 236.1875 "/>
<path style=" stroke:none;fill-rule:nonzero;fill:rgb(39.99939%,39.99939%,39.99939%);fill-opacity:0.3;" d="M 145.308594 272.671875 L 137.050781 286.390625 L 131.96875 308.570312 L 129.957031 305.699219 L 128.191406 292.460938 L 140.582031 270.984375 Z M 145.308594 272.671875 "/>
<path style=" stroke:none;fill-rule:nonzero;fill:rgb(39.99939%,39.99939%,39.99939%);fill-opacity:0.3;" d="M 164.730469 62.78125 L 264.34375 51.429688 L 261.667969 82.039062 L 163.292969 84.328125 Z M 164.730469 62.78125 "/>
<path style=" stroke:none;fill-rule:nonzero;fill:rgb(39.99939%,39.99939%,39.99939%);fill-opacity:0.3;" d="M 248.480469 236.097656 L 241.054688 235.609375 L 237.601562 234.226562 L 216.425781 233.347656 L 199.84375 232.65625 L 216.742188 211.410156 L 230.367188 194.308594 L 246.121094 170.050781 L 259.9375 146.609375 Z M 248.480469 236.097656 "/>
<path style=" stroke:none;fill-rule:nonzero;fill:rgb(39.99939%,39.99939%,39.99939%);fill-opacity:0.3;" d="M 54.542969 189.652344 L 66.398438 188.636719 L 69.292969 219.074219 L 56.273438 216.613281 L 54.082031 193.515625 Z M 54.542969 189.652344 "/>
<path style=" stroke:none;fill-rule:nonzero;fill:rgb(39.99939%,39.99939%,39.99939%);fill-opacity:0.3;" d="M 96.320312 71.542969 L 109.1875 70.125 L 110.101562 115.5625 L 112.976562 115.21875 L 112.203125 69.792969 L 122.390625 68.605469 L 120.484375 114.394531 L 122.117188 114.214844 L 123.753906 114.03125 L 126.265625 68.246094 L 154.269531 64.832031 L 147.71875 141.617188 L 100.621094 133.355469 Z M 96.320312 71.542969 "/>
<path style=" stroke:none;fill-rule:nonzero;fill:rgb(39.99939%,39.99939%,39.99939%);fill-opacity:0.3;" d="M 52.113281 209.972656 L 52.679688 215.9375 L 51.429688 215.699219 Z M 52.113281 209.972656 "/>
<path style=" stroke:none;fill-rule:nonzero;fill:rgb(39.99939%,39.99939%,39.99939%);fill-opacity:0.3;" d="M 307.9375 15.5625 L 318.371094 -142.859375 L 336.503906 -92.878906 L 343.898438 -73.042969 L 343.8125 -43.714844 L 343.75 -33.785156 L 343.578125 -7.617188 L 337.371094 13.414062 Z M 307.9375 15.5625 "/>
<g clip-path="url(#clip1)" clip-rule="nonzero">
<path style=" stroke:none;fill-rule:nonzero;fill:rgb(39.99939%,39.99939%,39.99939%);fill-opacity:0.3;" d="M 444.660156 7.839844 L 423.664062 8.597656 L 415.667969 -48.296875 L 414.910156 -54.984375 L 407.332031 -122.035156 L 392.726562 -225.402344 L 317.253906 -206.570312 L 305.65625 -225.371094 L 311.191406 -328.289062 L 350.226562 -340.765625 L 388.457031 -326.273438 L 433.085938 -316.15625 L 465.683594 -312.367188 L 514.683594 -312.972656 L 511.125 -306.644531 L 507.597656 -297.820312 L 506.714844 -288.113281 L 512.007812 -273.113281 L 519.949219 -261.644531 L 530.539062 -252.820312 L 454.65625 -239.585938 L 463.480469 -231.644531 L 470.539062 -220.175781 L 474.949219 -206.058594 L 478.480469 -191.941406 L 473.183594 -170.765625 L 473.183594 -146.941406 L 478.480469 -124.882812 L 481.125 -111.648438 L 488.183594 -92.234375 L 501.421875 -81.648438 L 509.359375 -74.589844 L 512.007812 -59.589844 L 518.183594 -34 L 518.183594 -22.53125 L 517.300781 -10.179688 L 520.832031 -2.238281 L 527.007812 2.175781 L 474.949219 3.054688 Z M 444.660156 7.839844 "/>
</g>
<g clip-path="url(#clip2)" clip-rule="nonzero">
<path style=" stroke:none;fill-rule:nonzero;fill:rgb(39.99939%,39.99939%,39.99939%);fill-opacity:0.3;" d="M 318.183594 -200.035156 L 390.878906 -217.355469 L 404.503906 -119.164062 L 410.789062 -47.777344 L 416.824219 1.621094 L 365.914062 8.066406 L 352.730469 -14.433594 L 354.175781 -68.804688 L 345.726562 -113.839844 L 337.523438 -151.835938 L 329.210938 -177.203125 L 321.960938 -191.527344 Z M 318.183594 -200.035156 "/>
</g>
<path style=" stroke:none;fill-rule:nonzero;fill:rgb(39.99939%,39.99939%,39.99939%);fill-opacity:0.3;" d="M 143.285156 35.574219 L 84.144531 41.042969 L 78.457031 -4.585938 L 70.707031 -69.960938 L 117.53125 -76.117188 L 128.949219 -31.386719 Z M 143.285156 35.574219 "/>
<path style=" stroke:none;fill-rule:nonzero;fill:rgb(39.99939%,39.99939%,39.99939%);fill-opacity:0.3;" d="M 215.226562 -38.144531 L 223.664062 25.398438 L 153.621094 32.347656 L 136.855469 -29.332031 Z M 215.226562 -38.144531 "/>
<path style=" stroke:none;fill-rule:nonzero;fill:rgb(39.99939%,39.99939%,39.99939%);fill-opacity:0.3;" d="M 221.042969 -38.785156 L 280.234375 -46.203125 L 274.277344 15.757812 L 267.714844 20.53125 L 228.742188 24.8125 Z M 221.042969 -38.785156 "/>
<path style=" stroke:none;fill-rule:nonzero;fill:rgb(39.99939%,39.99939%,39.99939%);fill-opacity:0.3;" d="M 58.414062 47.734375 L 26.683594 52.84375 L -98.226562 66.421875 L -111.074219 -26.75 L -114.941406 -48.570312 L -54.914062 -56.148438 L -52.972656 -34.679688 L -51.136719 -34.929688 L -49.296875 -35.179688 L -51.402344 -56.445312 L 59.824219 -68.828125 L 68.527344 -2.816406 L 74.976562 44.347656 Z M 58.414062 47.734375 "/>
<path style="fill-rule:nonzero;fill:rgb(39.99939%,39.99939%,39.99939%);fill-opacity:1;stroke-width:0.03;stroke-linecap:square;stroke-linejoin:miter;stroke:rgb(39.99939%,39.99939%,39.99939%);stroke-opacity:1;stroke-miterlimit:3.239307;" d="M 156.789062 86.046875 L 159.136719 85.523438 L 167.921875 84.613281 L 172.972656 151.40625 L 222.042969 161.824219 L 216.054688 195.53125 L 202.96875 193.769531 L 198.402344 220.867188 L 210.210938 221.476562 L 208.378906 234.0625 L 208.277344 235.335938 L 208.105469 236.707031 L 207.972656 237.65625 L 207.828125 238.542969 L 207.582031 239.414062 L 207.246094 240.253906 L 206.816406 241.054688 L 206.300781 241.808594 L 205.703125 242.507812 L 205.035156 243.144531 L 204.417969 243.621094 L 143.5625 232.125 L 140.546875 201.433594 L 128.570312 202.410156 L 130.015625 190.316406 L 132.488281 162.523438 L 137.78125 136.054688 L 164.25 136.9375 Z M 156.789062 86.046875 " transform="matrix(1,0,0,1,-74,-13)"/>
<path style="fill-rule:nonzero;fill:rgb(39.99939%,39.99939%,39.99939%);fill-opacity:1;stroke-width:0.03;stroke-linecap:square;stroke-linejoin:miter;stroke:rgb(39.99939%,39.99939%,39.99939%);stroke-opacity:1;stroke-miterlimit:3.239307;" d="M 206.335938 249.1875 L 207.394531 248.664062 L 208.441406 248.003906 L 209.40625 247.246094 L 210.289062 246.394531 L 211.066406 245.460938 L 211.742188 244.457031 L 212.203125 243.59375 L 218.769531 235.171875 L 226.503906 229.761719 L 265.402344 202.421875 L 264.414062 201.019531 L 263.429688 199.621094 L 239.796875 215.21875 L 223.710938 222.402344 L 211.871094 212.757812 L 221.058594 204.964844 L 227.984375 188.753906 L 238.695312 103.691406 L 278.207031 104.160156 L 273.761719 129.464844 L 279.355469 129.457031 L 285.195312 105.34375 L 335.8125 104.039062 L 332.832031 138.109375 L 269.375 223.308594 L 224.769531 286.785156 L 219.460938 285.480469 L 214.683594 283.808594 L 215.425781 282.523438 Z M 206.335938 249.1875 " transform="matrix(1,0,0,1,-74,-13)"/>
<path style="fill-rule:nonzero;fill:rgb(39.99939%,39.99939%,39.99939%);fill-opacity:1;stroke-width:0.03;stroke-linecap:square;stroke-linejoin:miter;stroke:rgb(39.99939%,39.99939%,39.99939%);stroke-opacity:1;stroke-miterlimit:3.239307;" d="M 219.308594 285.671875 L 211.050781 299.390625 L 205.96875 321.570312 L 203.957031 318.699219 L 202.191406 305.460938 L 214.582031 283.984375 Z M 219.308594 285.671875 " transform="matrix(1,0,0,1,-74,-13)"/>
<path style="fill-rule:nonzero;fill:rgb(39.99939%,39.99939%,39.99939%);fill-opacity:1;stroke-width:0.03;stroke-linecap:square;stroke-linejoin:miter;stroke:rgb(39.99939%,39.99939%,39.99939%);stroke-opacity:1;stroke-miterlimit:3.239307;" d="M 238.730469 75.78125 L 338.34375 64.429688 L 335.667969 95.039062 L 237.292969 97.328125 Z M 238.730469 75.78125 " transform="matrix(1,0,0,1,-74,-13)"/>
<path style="fill-rule:nonzero;fill:rgb(39.99939%,39.99939%,39.99939%);fill-opacity:1;stroke-width:0.03;stroke-linecap:square;stroke-linejoin:miter;stroke:rgb(39.99939%,39.99939%,39.99939%);stroke-opacity:1;stroke-miterlimit:3.239307;" d="M 322.480469 249.097656 L 315.054688 248.609375 L 311.601562 247.226562 L 290.425781 246.347656 L 273.84375 245.65625 L 290.742188 224.410156 L 304.367188 207.308594 L 320.121094 183.050781 L 333.9375 159.609375 Z M 322.480469 249.097656 " transform="matrix(1,0,0,1,-74,-13)"/>
<path style="fill-rule:nonzero;fill:rgb(39.99939%,39.99939%,39.99939%);fill-opacity:1;stroke-width:0.03;stroke-linecap:square;stroke-linejoin:miter;stroke:rgb(39.99939%,39.99939%,39.99939%);stroke-opacity:1;stroke-miterlimit:3.239307;" d="M 128.542969 202.652344 L 140.398438 201.636719 L 143.292969 232.074219 L 130.273438 229.613281 L 128.082031 206.515625 Z M 128.542969 202.652344 " transform="matrix(1,0,0,1,-74,-13)"/>
<path style="fill-rule:nonzero;fill:rgb(39.99939%,39.99939%,39.99939%);fill-opacity:1;stroke-width:0.03;stroke-linecap:square;stroke-linejoin:miter;stroke:rgb(39.99939%,39.99939%,39.99939%);stroke-opacity:1;stroke-miterlimit:3.239307;" d="M 170.320312 84.542969 L 183.1875 83.125 L 184.101562 128.5625 L 186.976562 128.21875 L 186.203125 82.792969 L 196.390625 81.605469 L 194.484375 127.394531 L 196.117188 127.214844 L 197.753906 127.03125 L 200.265625 81.246094 L 228.269531 77.832031 L 221.71875 154.617188 L 174.621094 146.355469 Z M 170.320312 84.542969 " transform="matrix(1,0,0,1,-74,-13)"/>
<path style="fill-rule:nonzero;fill:rgb(39.99939%,39.99939%,39.99939%);fill-opacity:1;stroke-width:0.03;stroke-linecap:square;stroke-linejoin:miter;stroke:rgb(39.99939%,39.99939%,39.99939%);stroke-opacity:1;stroke-miterlimit:3.239307;" d="M 126.113281 222.972656 L 126.679688 228.9375 L 125.429688 228.699219 Z M 126.113281 222.972656 " transform="matrix(1,0,0,1,-74,-13)"/>
<path style="fill-rule:nonzero;fill:rgb(99.998474%,99.998474%,30.587769%);fill-opacity:0.8;stroke-width:0.288;stroke-linecap:square;stroke-linejoin:miter;stroke:rgb(0%,0%,0%);stroke-opacity:0.8;stroke-miterlimit:3.25;" d="M 327.484375 54.878906 L 251.070312 187.230469 L 403.894531 187.230469 Z M 327.484375 54.878906 " transform="matrix(1,0,0,1,-74,-13)"/>
<g clip-path="url(#clip3)" clip-rule="nonzero">
<path style=" stroke:none;fill-rule:nonzero;fill:rgb(99.998474%,99.998474%,30.587769%);fill-opacity:0.8;" d="M 50.546875 271.285156 L -25.867188 403.636719 L 126.957031 403.636719 Z M 50.546875 271.285156 "/>
</g>
<g clip-path="url(#clip4)" clip-rule="nonzero">
<path style="fill:none;stroke-width:0.288;stroke-linecap:square;stroke-linejoin:miter;stroke:rgb(0%,0%,0%);stroke-opacity:0.8;stroke-miterlimit:3.25;" d="M 124.546875 284.285156 L 48.132812 416.636719 L 200.957031 416.636719 Z M 124.546875 284.285156 " transform="matrix(1,0,0,1,-74,-13)"/>
</g>
</g>
</svg>
