<?xml version="1.0" encoding="UTF-8"?>
<svg xmlns="http://www.w3.org/2000/svg" xmlns:xlink="http://www.w3.org/1999/xlink" width="361pt" height="361pt" viewBox="0 0 361 361" version="1.1">
<defs>
<clipPath id="clip1">
  <path d="M 0 328 L 30 328 L 30 360 L 0 360 Z M 0 328 "/>
</clipPath>
<clipPath id="clip2">
  <path d="M 72 341 L 116 341 L 116 360 L 72 360 Z M 72 341 "/>
</clipPath>
<clipPath id="clip3">
  <path d="M 39 329 L 84 329 L 84 360 L 39 360 Z M 39 329 "/>
</clipPath>
<clipPath id="clip4">
  <path d="M 6 317 L 48 317 L 48 360 L 6 360 Z M 6 317 "/>
</clipPath>
<clipPath id="clip5">
  <path d="M 104 352 L 149 352 L 149 360 L 104 360 Z M 104 352 "/>
</clipPath>
<clipPath id="clip6">
  <path d="M 300 80 L 360 80 L 360 228 L 300 228 Z M 300 80 "/>
</clipPath>
<clipPath id="clip7">
  <path d="M 293 224 L 360 224 L 360 268 L 293 268 Z M 293 224 "/>
</clipPath>
<clipPath id="clip8">
  <path d="M 331 234 L 360 234 L 360 327 L 331 327 Z M 331 234 "/>
</clipPath>
<clipPath id="clip9">
  <path d="M 264 0 L 360 0 L 360 29 L 264 29 Z M 264 0 "/>
</clipPath>
<clipPath id="clip10">
  <path d="M 286 23 L 360 23 L 360 214 L 286 214 Z M 286 23 "/>
</clipPath>
<clipPath id="clip11">
  <path d="M 314 0 L 360 0 L 360 25 L 314 25 Z M 314 0 "/>
</clipPath>
<clipPath id="clip12">
  <path d="M 224 328 L 308 328 L 308 360 L 224 360 Z M 224 328 "/>
</clipPath>
<clipPath id="clip13">
  <path d="M 359 336 L 360 336 L 360 360 L 359 360 Z M 359 336 "/>
</clipPath>
<clipPath id="clip14">
  <path d="M 300 351 L 360 351 L 360 360 L 300 360 Z M 300 351 "/>
</clipPath>
<clipPath id="clip15">
  <path d="M 255 352 L 298 352 L 298 360 L 255 360 Z M 255 352 "/>
</clipPath>
<clipPath id="clip16">
  <path d="M 174 326 L 234 326 L 234 360 L 174 360 Z M 174 326 "/>
</clipPath>
<clipPath id="clip17">
  <path d="M 130 324 L 183 324 L 183 360 L 130 360 Z M 130 324 "/>
</clipPath>
<clipPath id="clip18">
  <path d="M 352 338 L 360 338 L 360 360 L 352 360 Z M 352 338 "/>
</clipPath>
<clipPath id="clip19">
  <path d="M 341 353 L 360 353 L 360 360 L 341 360 Z M 341 353 "/>
</clipPath>
<clipPath id="clip20">
  <path d="M 19 355 L 69 355 L 69 360 L 19 360 Z M 19 355 "/>
</clipPath>
<clipPath id="clip21">
  <path d="M 239 317 L 289 317 L 289 360 L 239 360 Z M 239 317 "/>
</clipPath>
</defs>
<g id="surface2380">
<path style="fill-rule:nonzero;fill:rgb(0%,0%,0%);fill-opacity:1;stroke-width:0.03;stroke-linecap:square;stroke-linejoin:miter;stroke:rgb(0%,0%,0%);stroke-opacity:1;stroke-miterlimit:10;" d="M 0 178 L 360 178 L 360 -182 L 0 -182 Z M 0 178 " transform="matrix(1,0,0,1,0,182)"/>
<path style=" stroke:none;fill-rule:nonzero;fill:rgb(39.99939%,39.99939%,39.99939%);fill-opacity:0.3;" d="M -69.410156 328.8125 L -100.066406 334.574219 L -104.144531 346.507812 L -123.226562 339.984375 L -133.746094 334.039062 L -139.925781 326.828125 L -139.226562 326.742188 L -136.390625 326.378906 L -133.796875 326.050781 L -105.375 322.441406 L -102.96875 322.132812 L -101.003906 321.886719 L -69.195312 317.847656 L -67.734375 317.660156 L -66.132812 317.457031 L -68.417969 302.507812 L -61.347656 288.542969 L -44.949219 294.261719 L 16.0625 315.523438 L 16.964844 317.4375 L 16.96875 319.503906 L 2.652344 353.367188 L 1.46875 354.4375 L -0.402344 354.464844 Z M -69.410156 328.8125 "/>
<g clip-path="url(#clip1)" clip-rule="nonzero">
<path style=" stroke:none;fill-rule:nonzero;fill:rgb(39.99939%,39.99939%,39.99939%);fill-opacity:0.3;" d="M -69.464844 328.910156 L -70.824219 331.253906 L -72.238281 333.695312 L 29.773438 370.820312 L 22.84375 387.539062 L -104.035156 346.546875 L -99.992188 334.65625 Z M -69.464844 328.910156 "/>
</g>
<g clip-path="url(#clip2)" clip-rule="nonzero">
<path style=" stroke:none;fill-rule:nonzero;fill:rgb(39.99939%,39.99939%,39.99939%);fill-opacity:0.3;" d="M 88.539062 341.074219 L 115.851562 350.582031 L 100.152344 389.597656 L 72.320312 379.082031 Z M 88.539062 341.074219 "/>
</g>
<g clip-path="url(#clip3)" clip-rule="nonzero">
<path style=" stroke:none;fill-rule:nonzero;fill:rgb(39.99939%,39.99939%,39.99939%);fill-opacity:0.3;" d="M 54.824219 329.257812 L 83.332031 339.085938 L 66.84375 377.78125 L 39.871094 367.949219 Z M 54.824219 329.257812 "/>
</g>
<g clip-path="url(#clip4)" clip-rule="nonzero">
<path style=" stroke:none;fill-rule:nonzero;fill:rgb(39.99939%,39.99939%,39.99939%);fill-opacity:0.3;" d="M 22.390625 317.328125 L 47.144531 326.195312 L 31.679688 365.210938 L 6.925781 356.183594 Z M 22.390625 317.328125 "/>
</g>
<path style=" stroke:none;fill-rule:nonzero;fill:rgb(39.99939%,39.99939%,39.99939%);fill-opacity:0.3;" d="M 156.234375 358.558594 L 128.523438 348.769531 L 130.320312 348.230469 L 153.421875 357.46875 Z M 156.234375 358.558594 "/>
<g clip-path="url(#clip5)" clip-rule="nonzero">
<path style=" stroke:none;fill-rule:nonzero;fill:rgb(39.99939%,39.99939%,39.99939%);fill-opacity:0.3;" d="M 120.535156 352.425781 L 148.113281 362.253906 L 132.761719 401.324219 L 104.609375 391.292969 Z M 120.535156 352.425781 "/>
</g>
<path style=" stroke:none;fill-rule:nonzero;fill:rgb(39.99939%,39.99939%,39.99939%);fill-opacity:0.3;" d="M 112.09375 42.332031 L 113.816406 38.796875 L 116.238281 33.828125 L 118.71875 27.679688 L 118.675781 23.402344 L 117.980469 20.199219 L 118.035156 19.539062 L 117.496094 17.964844 L 117.449219 17.757812 L 117.382812 17.632812 L 112.570312 3.617188 L 114.050781 -6.269531 L 171.296875 3.929688 L 161.714844 80.046875 L 138.132812 61.746094 L 138.4375 60.253906 L 137.261719 56.871094 L 134.460938 54.503906 L 130.785156 53.777344 L 127.222656 54.898438 L 125.746094 56.144531 L 124.726562 57.554688 L 123.960938 61.042969 L 125.140625 64.425781 L 127.941406 66.796875 L 131.617188 67.519531 L 135.179688 66.402344 L 154.191406 80.949219 L 114.972656 62.492188 Z M 112.09375 42.332031 "/>
<g clip-path="url(#clip6)" clip-rule="nonzero">
<path style=" stroke:none;fill-rule:nonzero;fill:rgb(39.99939%,39.99939%,39.99939%);fill-opacity:0.3;" d="M 427.671875 80.859375 L 474.386719 119.867188 L 371.707031 227.722656 L 319.964844 222.445312 L 300.914062 220.851562 L 301.203125 219.25 L 301.269531 217.785156 L 300.996094 216.132812 Z M 427.671875 80.859375 "/>
</g>
<g clip-path="url(#clip7)" clip-rule="nonzero">
<path style=" stroke:none;fill-rule:nonzero;fill:rgb(39.99939%,39.99939%,39.99939%);fill-opacity:0.3;" d="M 317.78125 255.085938 L 308.082031 246.273438 L 293.433594 233.917969 L 295.980469 231.378906 L 297.917969 228.03125 L 299.144531 224.78125 L 319.863281 226.742188 L 368.289062 232.074219 L 350.175781 251.046875 L 334.351562 267.570312 Z M 317.78125 255.085938 "/>
</g>
<g clip-path="url(#clip8)" clip-rule="nonzero">
<path style=" stroke:none;fill-rule:nonzero;fill:rgb(39.99939%,39.99939%,39.99939%);fill-opacity:0.3;" d="M 513.339844 264.535156 L 511.136719 264.789062 L 511.011719 269.953125 L 510.367188 269.925781 L 509.867188 269.890625 L 502.300781 326.210938 L 473.316406 324.242188 L 469.199219 324.234375 L 452.84375 322.714844 L 445.234375 322.875 L 334.601562 316.058594 L 331.035156 312.378906 L 343.113281 280.347656 L 383.457031 237.917969 L 388.574219 235.214844 L 394.542969 234.128906 L 458.550781 243.246094 L 403.148438 301.078125 L 405.710938 303.101562 L 408.273438 305.121094 L 440.222656 272.328125 L 465.996094 293.1875 L 466.285156 296.15625 L 454.394531 311.109375 L 457.085938 312.582031 L 459.777344 314.050781 L 471.433594 299.480469 L 476.070312 284.40625 L 468.804688 282.484375 L 466.199219 285.328125 L 442.933594 267.289062 L 462.617188 245.382812 L 491.832031 246.726562 L 503.167969 249.941406 L 513.867188 249.753906 Z M 513.339844 264.535156 "/>
</g>
<path style=" stroke:none;fill-rule:nonzero;fill:rgb(39.99939%,39.99939%,39.99939%);fill-opacity:0.3;" d="M 176.542969 5.605469 L 234.496094 12.621094 L 215.511719 141.296875 L 208.953125 134.039062 L 167.121094 87.09375 L 167.273438 83.539062 L 175.390625 85.898438 L 184.269531 91.855469 L 184.613281 87.03125 L 184.960938 82.207031 L 167.894531 77.460938 Z M 176.542969 5.605469 "/>
<g clip-path="url(#clip9)" clip-rule="nonzero">
<path style=" stroke:none;fill-rule:nonzero;fill:rgb(39.99939%,39.99939%,39.99939%);fill-opacity:0.3;" d="M 337.9375 -154.804688 L 337.558594 -151.722656 L 373.355469 -147.675781 L 374.199219 -132.460938 L 415.457031 -33.601562 L 407.871094 28.882812 L 377.375 25.390625 L 380.589844 -4.855469 L 343.8125 -95.851562 L 341.007812 -101.3125 L 335.882812 -103.070312 L 264.648438 -112.6875 L 266.605469 -124.21875 L 280.746094 -121.984375 L 280.863281 -123.226562 L 280.980469 -124.464844 L 267.074219 -127.039062 L 270.914062 -156.027344 L 272.972656 -155.585938 L 301.8125 -152.582031 Z M 337.9375 -154.804688 "/>
</g>
<path style=" stroke:none;fill-rule:nonzero;fill:rgb(39.99939%,39.99939%,39.99939%);fill-opacity:0.3;" d="M 192.394531 -116.554688 L 218.273438 -113.292969 L 203.636719 0.8125 L 178.609375 -3.53125 Z M 192.394531 -116.554688 "/>
<g clip-path="url(#clip10)" clip-rule="nonzero">
<path style=" stroke:none;fill-rule:nonzero;fill:rgb(39.99939%,39.99939%,39.99939%);fill-opacity:0.3;" d="M 312.097656 23.722656 L 369.636719 31.703125 L 354.285156 148.84375 L 296.984375 213.648438 L 294.414062 212.832031 L 290.257812 211.675781 L 286.039062 211.195312 Z M 312.097656 23.722656 "/>
</g>
<path style=" stroke:none;fill-rule:nonzero;fill:rgb(39.99939%,39.99939%,39.99939%);fill-opacity:0.3;" d="M 243.023438 13.554688 L 304.394531 22.503906 L 279.59375 211.445312 L 276.375 212.277344 L 272.5625 213.683594 L 269.429688 215.105469 L 267.203125 216.074219 L 265.378906 215.613281 L 261.363281 212.136719 L 225.578125 167.722656 L 226.660156 158.957031 L 243.160156 161.15625 L 243.433594 157.675781 L 243.707031 154.199219 L 226.941406 151.996094 Z M 243.023438 13.554688 "/>
<path style=" stroke:none;fill-rule:nonzero;fill:rgb(39.99939%,39.99939%,39.99939%);fill-opacity:0.3;" d="M 224.214844 -112.433594 L 249.617188 -109.519531 L 235.847656 5.402344 L 211.300781 1.855469 Z M 224.214844 -112.433594 "/>
<path style=" stroke:none;fill-rule:nonzero;fill:rgb(39.99939%,39.99939%,39.99939%);fill-opacity:0.3;" d="M 262.839844 -107.859375 L 322.710938 -100.554688 L 306.519531 14.632812 L 245.726562 6.234375 Z M 262.839844 -107.859375 "/>
<g clip-path="url(#clip11)" clip-rule="nonzero">
<path style=" stroke:none;fill-rule:nonzero;fill:rgb(39.99939%,39.99939%,39.99939%);fill-opacity:0.3;" d="M 314.136719 16.125 L 328.554688 -99.132812 L 332.441406 -99.410156 L 335.382812 -99.050781 L 374.578125 -4.476562 L 370.320312 24.460938 Z M 314.136719 16.125 "/>
</g>
<g clip-path="url(#clip12)" clip-rule="nonzero">
<path style=" stroke:none;fill-rule:nonzero;fill:rgb(39.99939%,39.99939%,39.99939%);fill-opacity:0.3;" d="M 224.367188 382.628906 L 235.007812 361.125 L 235.632812 359.5625 L 235.796875 357.683594 L 237.308594 328.707031 L 307.832031 334.34375 L 298.898438 358.261719 L 268.472656 348.324219 L 251.75 391.761719 L 249.59375 391.164062 Z M 224.367188 382.628906 "/>
</g>
<g clip-path="url(#clip13)" clip-rule="nonzero">
<path style=" stroke:none;fill-rule:nonzero;fill:rgb(39.99939%,39.99939%,39.99939%);fill-opacity:0.3;" d="M 431.378906 362.820312 L 430.140625 362.734375 L 426.488281 360.425781 L 413.082031 355.90625 L 410.167969 354.960938 L 407.277344 353.976562 L 400.171875 351.175781 L 389.800781 347.28125 L 385.804688 345.832031 L 381.730469 344.542969 L 359.960938 338.710938 L 360.777344 336.214844 L 435.140625 339.78125 Z M 431.378906 362.820312 "/>
</g>
<path style=" stroke:none;fill-rule:nonzero;fill:rgb(39.99939%,39.99939%,39.99939%);fill-opacity:0.3;" d="M 354.792969 336.261719 L 347.78125 357.621094 L 315.203125 346.453125 L 319.433594 335.738281 L 320.773438 334.425781 L 322.375 333.789062 Z M 354.792969 336.261719 "/>
<g clip-path="url(#clip14)" clip-rule="nonzero">
<path style=" stroke:none;fill-rule:nonzero;fill:rgb(39.99939%,39.99939%,39.99939%);fill-opacity:0.3;" d="M 313.554688 351.15625 L 369.316406 372.164062 L 355.75 404.285156 L 300.21875 383.722656 Z M 313.554688 351.15625 "/>
</g>
<g clip-path="url(#clip15)" clip-rule="nonzero">
<path style=" stroke:none;fill-rule:nonzero;fill:rgb(39.99939%,39.99939%,39.99939%);fill-opacity:0.3;" d="M 255.21875 392.867188 L 270.683594 352.445312 L 297.132812 360.828125 L 280.355469 402.355469 Z M 255.21875 392.867188 "/>
</g>
<g clip-path="url(#clip16)" clip-rule="nonzero">
<path style=" stroke:none;fill-rule:nonzero;fill:rgb(39.99939%,39.99939%,39.99939%);fill-opacity:0.3;" d="M 233.683594 328.761719 L 232.917969 353.363281 L 231.902344 357.570312 L 221.378906 381.574219 L 174.105469 364.910156 L 182.742188 346.554688 L 183.742188 343.304688 L 183.738281 340.628906 L 185.984375 326.089844 L 189.578125 326.085938 L 194.394531 326.859375 L 199.03125 327.425781 L 206.484375 328.179688 L 205.726562 357.796875 L 215.195312 357.78125 L 215.089844 355.296875 L 214.984375 352.816406 L 209.34375 352.058594 L 210.3125 328.554688 Z M 233.683594 328.761719 "/>
</g>
<g clip-path="url(#clip17)" clip-rule="nonzero">
<path style=" stroke:none;fill-rule:nonzero;fill:rgb(39.99939%,39.99939%,39.99939%);fill-opacity:0.3;" d="M 149.285156 339.324219 L 153.28125 336.894531 L 158.003906 334.558594 L 162.730469 332.398438 L 170.101562 329.160156 L 182.195312 324.820312 L 179.933594 328.789062 L 179.183594 342.300781 L 178.066406 344.574219 L 172.039062 358.394531 L 169.914062 363.390625 L 158.492188 359.355469 L 156.234375 358.558594 L 153.421875 357.46875 L 130.320312 348.230469 L 135.707031 346.605469 L 141.945312 343.726562 Z M 149.285156 339.324219 "/>
</g>
<g clip-path="url(#clip18)" clip-rule="nonzero">
<path style=" stroke:none;fill-rule:nonzero;fill:rgb(39.99939%,39.99939%,39.99939%);fill-opacity:0.3;" d="M 359.925781 338.8125 L 381.625 344.765625 L 372.996094 366.613281 L 352.453125 358.960938 Z M 359.925781 338.8125 "/>
</g>
<g clip-path="url(#clip19)" clip-rule="nonzero">
<path style=" stroke:none;fill-rule:nonzero;fill:rgb(39.99939%,39.99939%,39.99939%);fill-opacity:0.3;" d="M 431.359375 362.921875 L 452.183594 364.300781 L 452.164062 372.097656 L 456.777344 372 L 457.492188 353.640625 L 488.75 362.027344 L 488.839844 363.644531 L 458.164062 426.285156 L 415.238281 514 L 414.847656 515.570312 L 414.140625 517.007812 L 410.804688 522.996094 L 390.125 513.066406 L 347.117188 500.5625 L 341.03125 497.949219 L 347.273438 488.117188 L 356.359375 490.179688 L 370.898438 467.410156 L 395.53125 422.953125 L 430.976562 365.28125 Z M 431.359375 362.921875 "/>
</g>
<path style=" stroke:none;fill-rule:nonzero;fill:rgb(39.99939%,39.99939%,39.99939%);fill-opacity:0.3;" d="M -10.394531 288.324219 L -15.371094 286.523438 L -71.203125 266.339844 L -125.582031 246.097656 L -126.316406 244.613281 L -125.691406 243.027344 L -114.519531 236.269531 L -102.574219 226.148438 L -89.890625 213.453125 L -74.234375 195.859375 L -60.21875 200.171875 L -45.226562 204.789062 L -42.546875 205.175781 L -39.871094 204.195312 L -24.136719 192.480469 L 33.867188 231.910156 L -5.78125 288.980469 Z M -10.394531 288.324219 "/>
<path style=" stroke:none;fill-rule:nonzero;fill:rgb(39.99939%,39.99939%,39.99939%);fill-opacity:0.3;" d="M -0.90625 194.113281 L 37.414062 221.972656 L 40.457031 223.894531 L 44.230469 226.996094 L 43.601562 230.742188 L 33.867188 231.910156 L -24.136719 192.480469 L -20.949219 190.109375 L -17.859375 189.714844 L -14.566406 190.097656 L -9.824219 193.023438 L -2.097656 197.332031 Z M -0.90625 194.113281 "/>
<path style=" stroke:none;fill-rule:nonzero;fill:rgb(39.99939%,39.99939%,39.99939%);fill-opacity:0.3;" d="M -12.714844 188.339844 L -18.484375 186.980469 L -21.777344 186.789062 L -25.277344 188.160156 L -27.558594 190.15625 L -57.542969 169.773438 L -53.734375 162.421875 L -46.953125 148.0625 L -41.621094 133.210938 L -37.632812 116.886719 L -21.714844 121.207031 L 66.910156 148.039062 L 68.082031 153.480469 L 76.226562 155.976562 L 52.613281 194.921875 L 40.25 218.09375 L 37.480469 221.882812 L -0.867188 194.011719 Z M -12.714844 188.339844 "/>
<path style=" stroke:none;fill-rule:nonzero;fill:rgb(39.99939%,39.99939%,39.99939%);fill-opacity:0.3;" d="M 55.972656 201.890625 L 59.171875 202.988281 L 51.429688 223.40625 L 47.976562 222.570312 Z M 55.972656 201.890625 "/>
<path style=" stroke:none;fill-rule:nonzero;fill:rgb(39.99939%,39.99939%,39.99939%);fill-opacity:0.3;" d="M 43.601562 230.742188 L 43.417969 231.816406 L 47.925781 233.757812 L 22.671875 298.847656 L 22.1875 300.101562 L -10.394531 288.324219 L -5.78125 288.980469 L 33.867188 231.910156 Z M 43.601562 230.742188 "/>
<path style=" stroke:none;fill-rule:nonzero;fill:rgb(39.99939%,39.99939%,39.99939%);fill-opacity:0.3;" d="M 36.03125 282.113281 L 45.183594 282.433594 L 44.855469 298.121094 L 35.351562 297.964844 Z M 36.03125 282.113281 "/>
<path style=" stroke:none;fill-rule:nonzero;fill:rgb(39.99939%,39.99939%,39.99939%);fill-opacity:0.3;" d="M 105.800781 263.929688 L 115.703125 267.445312 L 110.269531 280.800781 L 100.960938 277.382812 Z M 105.800781 263.929688 "/>
<path style=" stroke:none;fill-rule:nonzero;fill:rgb(39.99939%,39.99939%,39.99939%);fill-opacity:0.3;" d="M 22.789062 298.863281 L 31.347656 300.078125 L 39.386719 303.15625 L 132.246094 310.84375 L 137.613281 310.414062 L 142.308594 309.558594 L 146.105469 307.855469 L 153.671875 308.421875 L 152.820312 310.609375 L 164.835938 309.40625 L 174.367188 310.003906 L 174.617188 310.058594 L 174.9375 310.160156 L 175.171875 310.628906 L 174.894531 311.152344 L 164.230469 315.253906 L 158.417969 318.230469 L 154.398438 320.144531 L 132.507812 335.230469 L 127.144531 337.570312 L 122.898438 338.851562 L 119.097656 338.429688 L 115.292969 336.953125 L 22.292969 300.140625 Z M 22.789062 298.863281 "/>
<path style=" stroke:none;fill-rule:nonzero;fill:rgb(39.99939%,39.99939%,39.99939%);fill-opacity:0.3;" d="M 60.355469 266.859375 L 69.507812 270.238281 L 64.070312 283.597656 L 55.566406 280.382812 Z M 60.355469 266.859375 "/>
<path style=" stroke:none;fill-rule:nonzero;fill:rgb(39.99939%,39.99939%,39.99939%);fill-opacity:0.3;" d="M 49.101562 263.050781 L 57.90625 266.164062 L 52.472656 279.519531 L 44.363281 276.097656 Z M 49.101562 263.050781 "/>
<path style=" stroke:none;fill-rule:nonzero;fill:rgb(39.99939%,39.99939%,39.99939%);fill-opacity:0.3;" d="M 55.144531 245.800781 L 65 249.15625 L 59.566406 262.515625 L 50.386719 259.109375 Z M 55.144531 245.800781 "/>
<path style=" stroke:none;fill-rule:nonzero;fill:rgb(39.99939%,39.99939%,39.99939%);fill-opacity:0.3;" d="M 67.957031 250.386719 L 77.539062 253.8125 L 72.242188 266.835938 L 63.089844 263.699219 Z M 67.957031 250.386719 "/>
<path style=" stroke:none;fill-rule:nonzero;fill:rgb(39.99939%,39.99939%,39.99939%);fill-opacity:0.3;" d="M 80.363281 254.644531 L 90.527344 258.46875 L 85.09375 271.824219 L 75.46875 268.171875 Z M 80.363281 254.644531 "/>
<path style=" stroke:none;fill-rule:nonzero;fill:rgb(39.99939%,39.99939%,39.99939%);fill-opacity:0.3;" d="M 93.140625 259.398438 L 103.101562 262.964844 L 97.699219 276.203125 L 88.136719 272.75 Z M 93.140625 259.398438 "/>
<path style=" stroke:none;fill-rule:nonzero;fill:rgb(39.99939%,39.99939%,39.99939%);fill-opacity:0.3;" d="M 92.714844 285.609375 L 101.871094 286.035156 L 101.546875 301.699219 L 92.042969 301.542969 Z M 92.714844 285.609375 "/>
<path style=" stroke:none;fill-rule:nonzero;fill:rgb(39.99939%,39.99939%,39.99939%);fill-opacity:0.3;" d="M 79.5 285.007812 L 88.660156 285.425781 L 88.332031 301.0625 L 78.832031 300.910156 Z M 79.5 285.007812 "/>
<path style=" stroke:none;fill-rule:nonzero;fill:rgb(39.99939%,39.99939%,39.99939%);fill-opacity:0.3;" d="M 66.296875 284.402344 L 75.460938 284.824219 L 75.136719 300.414062 L 65.632812 300.261719 Z M 66.296875 284.402344 "/>
<path style=" stroke:none;fill-rule:nonzero;fill:rgb(39.99939%,39.99939%,39.99939%);fill-opacity:0.3;" d="M 49.40625 283.09375 L 58.554688 283.414062 L 58.230469 299.101562 L 48.726562 298.949219 Z M 49.40625 283.09375 "/>
<path style=" stroke:none;fill-rule:nonzero;fill:rgb(39.99939%,39.99939%,39.99939%);fill-opacity:0.3;" d="M 51.828125 242.15625 L 141.875 271.667969 L 130.367188 305.324219 L 31.410156 299.980469 L 32.652344 278.023438 L 38.691406 278.015625 Z M 51.828125 242.15625 "/>
<path style=" stroke:none;fill-rule:nonzero;fill:rgb(39.99939%,39.99939%,39.99939%);fill-opacity:0.3;" d="M 163.492188 284.03125 L 166.980469 274.0625 L 167.484375 274.234375 Z M 163.492188 284.03125 "/>
<path style=" stroke:none;fill-rule:nonzero;fill:rgb(39.99939%,39.99939%,39.99939%);fill-opacity:0.3;" d="M 146.757812 267.898438 L 161.800781 273.136719 L 150.082031 304.644531 L 140.578125 304.195312 L 136.804688 303.109375 L 135.164062 301.558594 Z M 146.757812 267.898438 "/>
<path style=" stroke:none;fill-rule:nonzero;fill:rgb(39.99939%,39.99939%,39.99939%);fill-opacity:0.3;" d="M 137.074219 261.707031 L 136.753906 262.628906 L 130.6875 260.617188 L 131.113281 259.449219 Z M 137.074219 261.707031 "/>
<path style=" stroke:none;fill-rule:nonzero;fill:rgb(39.99939%,39.99939%,39.99939%);fill-opacity:0.3;" d="M 130.8125 272.835938 L 139.148438 275.484375 L 134.421875 288.632812 L 125.800781 285.917969 Z M 130.8125 272.835938 "/>
<path style=" stroke:none;fill-rule:nonzero;fill:rgb(39.99939%,39.99939%,39.99939%);fill-opacity:0.3;" d="M 118.414062 268.441406 L 128.027344 271.765625 L 122.59375 285.121094 L 113.328125 281.851562 Z M 118.414062 268.441406 "/>
<path style=" stroke:none;fill-rule:nonzero;fill:rgb(39.99939%,39.99939%,39.99939%);fill-opacity:0.3;" d="M 118.9375 286.8125 L 128.597656 288.789062 L 127.75 302.84375 L 118.25 302.691406 Z M 118.9375 286.8125 "/>
<path style=" stroke:none;fill-rule:nonzero;fill:rgb(39.99939%,39.99939%,39.99939%);fill-opacity:0.3;" d="M 105.898438 286.214844 L 115.054688 286.632812 L 114.730469 302.195312 L 105.226562 302.039062 Z M 105.898438 286.214844 "/>
<path style=" stroke:none;fill-rule:nonzero;fill:rgb(39.99939%,39.99939%,39.99939%);fill-opacity:0.3;" d="M 153.671875 308.421875 L 174.121094 309.949219 L 174.367188 310.003906 L 164.835938 309.40625 L 152.820312 310.609375 Z M 153.671875 308.421875 "/>
<path style=" stroke:none;fill-rule:nonzero;fill:rgb(39.99939%,39.99939%,39.99939%);fill-opacity:0.3;" d="M 174.617188 310.058594 L 174.921875 310.128906 L 174.9375 310.160156 Z M 174.617188 310.058594 "/>
<path style=" stroke:none;fill-rule:nonzero;fill:rgb(39.99939%,39.99939%,39.99939%);fill-opacity:0.3;" d="M 224.542969 291.960938 L 224.375 292.425781 L 216.761719 289.910156 L 216.960938 289.347656 Z M 224.542969 291.960938 "/>
<path style=" stroke:none;fill-rule:nonzero;fill:rgb(39.99939%,39.99939%,39.99939%);fill-opacity:0.3;" d="M 220.621094 305.800781 L 209.03125 302.046875 L 203.816406 303.039062 L 161.949219 288.4375 L 163.492188 284.03125 L 167.484375 274.234375 L 207.65625 287.957031 L 224.894531 293.941406 Z M 220.621094 305.800781 "/>
<path style=" stroke:none;fill-rule:nonzero;fill:rgb(39.99939%,39.99939%,39.99939%);fill-opacity:0.3;" d="M 161.039062 290.96875 L 208.164062 306.515625 L 208.878906 307.195312 L 209.132812 307.933594 L 208.882812 308.757812 L 208.351562 309.171875 L 156.007812 305.34375 Z M 161.039062 290.96875 "/>
<path style=" stroke:none;fill-rule:nonzero;fill:rgb(39.99939%,39.99939%,39.99939%);fill-opacity:0.3;" d="M 200.867188 284.285156 L 200.832031 284.378906 L 197.941406 283.371094 Z M 200.867188 284.285156 "/>
<path style=" stroke:none;fill-rule:nonzero;fill:rgb(39.99939%,39.99939%,39.99939%);fill-opacity:0.3;" d="M 233.136719 295.027344 L 233.171875 294.9375 L 233.324219 294.988281 L 234.792969 295.605469 Z M 233.136719 295.027344 "/>
<path style=" stroke:none;fill-rule:nonzero;fill:rgb(39.99939%,39.99939%,39.99939%);fill-opacity:0.3;" d="M 108.105469 204.957031 L 113.710938 206.632812 L 103.074219 235.890625 L 97.171875 233.878906 Z M 108.105469 204.957031 "/>
<path style=" stroke:none;fill-rule:nonzero;fill:rgb(39.99939%,39.99939%,39.99939%);fill-opacity:0.3;" d="M 58.488281 218.59375 L 91.769531 229.738281 L 89.972656 234.402344 L 56.839844 223.382812 Z M 58.488281 218.59375 "/>
<path style=" stroke:none;fill-rule:nonzero;fill:rgb(39.99939%,39.99939%,39.99939%);fill-opacity:0.3;" d="M 228.320312 257.316406 L 236.171875 259.746094 L 224.542969 291.960938 L 216.960938 289.347656 Z M 228.320312 257.316406 "/>
<path style=" stroke:none;fill-rule:nonzero;fill:rgb(39.99939%,39.99939%,39.99939%);fill-opacity:0.3;" d="M 263.378906 268.214844 L 271.238281 270.644531 L 259.175781 304.054688 L 251.519531 301.523438 Z M 263.378906 268.214844 "/>
<path style=" stroke:none;fill-rule:nonzero;fill:rgb(39.99939%,39.99939%,39.99939%);fill-opacity:0.3;" d="M 175.46875 275.390625 L 187.023438 243.691406 L 192.800781 245.476562 L 181.371094 277.347656 Z M 175.46875 275.390625 "/>
<path style=" stroke:none;fill-rule:nonzero;fill:rgb(39.99939%,39.99939%,39.99939%);fill-opacity:0.3;" d="M 127.34375 217.265625 L 133.40625 218.808594 L 121.5 252.859375 L 115.269531 251.160156 Z M 127.34375 217.265625 "/>
<path style=" stroke:none;fill-rule:nonzero;fill:rgb(39.99939%,39.99939%,39.99939%);fill-opacity:0.3;" d="M 142.273438 229.054688 L 148.007812 230.445312 L 137.074219 261.707031 L 131.113281 259.449219 Z M 142.273438 229.054688 "/>
<path style=" stroke:none;fill-rule:nonzero;fill:rgb(39.99939%,39.99939%,39.99939%);fill-opacity:0.3;" d="M 267.675781 306.519531 L 280.074219 273.660156 L 285.71875 275.5 L 273.554688 308.570312 Z M 267.675781 306.519531 "/>
<path style=" stroke:none;fill-rule:nonzero;fill:rgb(39.99939%,39.99939%,39.99939%);fill-opacity:0.3;" d="M 296.597656 298.578125 L 290.394531 296.625 L 291.84375 293.011719 L 298.066406 295.023438 L 300.332031 289.152344 L 304.5 290.464844 L 302.738281 295.011719 L 308.570312 296.75 L 307.089844 299.921875 L 301.621094 298.113281 L 298.964844 304.839844 L 294.65625 303.367188 Z M 296.597656 298.578125 "/>
<path style=" stroke:none;fill-rule:nonzero;fill:rgb(39.99939%,39.99939%,39.99939%);fill-opacity:0.3;" d="M 172.765625 232.183594 L 170.640625 238.007812 L 176.453125 239.75 L 175.050781 243.195312 L 169.382812 241.460938 L 166.832031 248.445312 L 162.453125 247.203125 L 164.371094 241.941406 L 158.355469 240.136719 L 159.761719 236.691406 L 165.628906 238.488281 L 168.855469 229.628906 Z M 172.765625 232.183594 "/>
<path style=" stroke:none;fill-rule:nonzero;fill:rgb(39.99939%,39.99939%,39.99939%);fill-opacity:0.3;" d="M 87.984375 129.386719 L 110.609375 136.503906 L 108.488281 142.414062 L 86.027344 135.296875 Z M 87.984375 129.386719 "/>
<path style=" stroke:none;fill-rule:nonzero;fill:rgb(39.99939%,39.99939%,39.99939%);fill-opacity:0.3;" d="M 191.050781 232.5625 L 188.777344 230.816406 L 188.539062 229.71875 L 188.867188 227.101562 Z M 191.050781 232.5625 "/>
<path style=" stroke:none;fill-rule:nonzero;fill:rgb(39.99939%,39.99939%,39.99939%);fill-opacity:0.3;" d="M 194.953125 282.328125 L 207.351562 249.46875 L 212.996094 251.304688 L 200.867188 284.285156 L 197.941406 283.371094 Z M 194.953125 282.328125 "/>
<path style=" stroke:none;fill-rule:nonzero;fill:rgb(39.99939%,39.99939%,39.99939%);fill-opacity:0.3;" d="M 233.171875 294.9375 L 245.535156 262.171875 L 251.179688 264.007812 L 239.015625 297.082031 L 234.792969 295.605469 L 233.324219 294.988281 Z M 233.171875 294.9375 "/>
<path style=" stroke:none;fill-rule:nonzero;fill:rgb(39.99939%,39.99939%,39.99939%);fill-opacity:0.3;" d="M 104.074219 143.65625 L 109.648438 145.355469 L 102.632812 165.101562 L 96.730469 163.246094 Z M 104.074219 143.65625 "/>
<path style=" stroke:none;fill-rule:nonzero;fill:rgb(39.99939%,39.99939%,39.99939%);fill-opacity:0.3;" d="M 59.171875 202.988281 L 61.382812 203.746094 L 53.714844 223.960938 L 51.429688 223.40625 Z M 59.171875 202.988281 "/>
<path style=" stroke:none;fill-rule:nonzero;fill:rgb(39.99939%,39.99939%,39.99939%);fill-opacity:0.3;" d="M 74.9375 168.34375 L 80.183594 169.890625 L 68.925781 202.230469 L 63.515625 200.839844 Z M 74.9375 168.34375 "/>
<path style=" stroke:none;fill-rule:nonzero;fill:rgb(39.99939%,39.99939%,39.99939%);fill-opacity:0.3;" d="M 104.980469 165.738281 L 110.339844 167.441406 L 99.082031 197.914062 L 93.179688 196.214844 Z M 104.980469 165.738281 "/>
<path style=" stroke:none;fill-rule:nonzero;fill:rgb(39.99939%,39.99939%,39.99939%);fill-opacity:0.3;" d="M 117.980469 20.199219 L 117.496094 17.964844 L 118.035156 19.539062 Z M 117.980469 20.199219 "/>
<path style=" stroke:none;fill-rule:nonzero;fill:rgb(39.99939%,39.99939%,39.99939%);fill-opacity:0.3;" d="M 117.382812 17.632812 L 112.6875 9.203125 L 110.007812 3.671875 L 107.929688 -3.125 L 107.152344 -7.496094 L 114.050781 -6.269531 L 112.570312 3.617188 Z M 117.382812 17.632812 "/>
<path style=" stroke:none;fill-rule:nonzero;fill:rgb(39.99939%,39.99939%,39.99939%);fill-opacity:0.3;" d="M 60.207031 78.34375 L 53.613281 112.519531 L 44.195312 110.878906 L 51.207031 77.144531 Z M 60.207031 78.34375 "/>
<path style=" stroke:none;fill-rule:nonzero;fill:rgb(39.99939%,39.99939%,39.99939%);fill-opacity:0.3;" d="M -11.007812 8.761719 L -6.933594 10.460938 L -25.589844 107.941406 L -25.824219 109.875 L -24.746094 111.121094 L -22.949219 111.6875 L 47.40625 135.617188 L 45.804688 138.464844 L -34.089844 113.695312 L -35.03125 113.09375 L -35.691406 112.335938 L -36.140625 111.082031 L -14.234375 9.410156 Z M -11.007812 8.761719 "/>
<path style=" stroke:none;fill-rule:nonzero;fill:rgb(39.99939%,39.99939%,39.99939%);fill-opacity:0.3;" d="M 60.320312 78.355469 L 76.546875 81.015625 L 53.726562 112.539062 Z M 60.320312 78.355469 "/>
<path style=" stroke:none;fill-rule:nonzero;fill:rgb(39.99939%,39.99939%,39.99939%);fill-opacity:0.3;" d="M 81.199219 -17.242188 L 90.3125 -16.03125 L 83.71875 18.152344 L 74.1875 16.492188 Z M 81.199219 -17.242188 "/>
<path style=" stroke:none;fill-rule:nonzero;fill:rgb(39.99939%,39.99939%,39.99939%);fill-opacity:0.3;" d="M 67.140625 -19.875 L 76.253906 -18.660156 L 69.660156 15.519531 L 60.125 13.859375 Z M 67.140625 -19.875 "/>
<path style=" stroke:none;fill-rule:nonzero;fill:rgb(39.99939%,39.99939%,39.99939%);fill-opacity:0.3;" d="M 53.1875 -22.367188 L 62.289062 -20.722656 L 55.867188 11.964844 L 46.332031 10.304688 Z M 53.1875 -22.367188 "/>
<path style=" stroke:none;fill-rule:nonzero;fill:rgb(39.99939%,39.99939%,39.99939%);fill-opacity:0.3;" d="M 32.792969 2.539062 L 36.847656 -0.0078125 L 32.921875 -5.351562 L 35.546875 -6.996094 L 39.46875 -1.652344 L 43.523438 -4.199219 L 45.320312 -1.75 L 41.265625 0.796875 L 45.191406 6.140625 L 42.566406 7.789062 L 38.644531 2.441406 L 34.589844 4.988281 Z M 32.792969 2.539062 "/>
<path style=" stroke:none;fill-rule:nonzero;fill:rgb(39.99939%,39.99939%,39.99939%);fill-opacity:0.3;" d="M 92.472656 0.0117188 L 96.527344 -2.535156 L 92.605469 -7.878906 L 95.226562 -9.527344 L 99.152344 -4.179688 L 103.203125 -6.730469 L 105.003906 -4.277344 L 100.949219 -1.730469 L 104.871094 3.613281 L 102.25 5.257812 L 98.324219 -0.0859375 L 94.273438 2.460938 Z M 92.472656 0.0117188 "/>
<path style=" stroke:none;fill-rule:nonzero;fill:rgb(39.99939%,39.99939%,39.99939%);fill-opacity:0.3;" d="M 89.046875 14.824219 L 93.097656 12.277344 L 89.175781 6.933594 L 91.796875 5.289062 L 95.722656 10.632812 L 99.777344 8.085938 L 101.574219 10.535156 L 97.519531 13.082031 L 101.445312 18.425781 L 98.820312 20.074219 L 94.898438 14.730469 L 90.84375 17.273438 Z M 89.046875 14.824219 "/>
<path style=" stroke:none;fill-rule:nonzero;fill:rgb(39.99939%,39.99939%,39.99939%);fill-opacity:0.3;" d="M 102.960938 25.355469 L 107.015625 22.808594 L 103.09375 17.464844 L 105.714844 15.816406 L 109.640625 21.160156 L 113.691406 18.613281 L 115.492188 21.0625 L 111.4375 23.609375 L 115.363281 28.953125 L 112.738281 30.601562 L 108.816406 25.257812 L 104.761719 27.804688 Z M 102.960938 25.355469 "/>
<path style=" stroke:none;fill-rule:nonzero;fill:rgb(39.99939%,39.99939%,39.99939%);fill-opacity:0.3;" d="M 88.753906 39.921875 L 92.808594 37.375 L 88.886719 32.03125 L 91.507812 30.382812 L 95.433594 35.726562 L 99.484375 33.183594 L 101.285156 35.632812 L 97.230469 38.175781 L 101.15625 43.523438 L 98.53125 45.167969 L 94.609375 39.824219 L 90.554688 42.371094 Z M 88.753906 39.921875 "/>
<path style=" stroke:none;fill-rule:nonzero;fill:rgb(39.99939%,39.99939%,39.99939%);fill-opacity:0.3;" d="M 1.289062 24.769531 L 5.34375 22.222656 L 1.421875 16.878906 L 4.042969 15.230469 L 7.96875 20.574219 L 12.019531 18.027344 L 13.820312 20.476562 L 9.765625 23.023438 L 13.691406 28.367188 L 11.066406 30.015625 L 7.140625 24.671875 L 3.089844 27.21875 Z M 1.289062 24.769531 "/>
<path style=" stroke:none;fill-rule:nonzero;fill:rgb(39.99939%,39.99939%,39.99939%);fill-opacity:0.3;" d="M -2.464844 41.765625 L 1.589844 39.21875 L -2.332031 33.875 L 0.289062 32.226562 L 4.214844 37.570312 L 8.265625 35.023438 L 10.066406 37.472656 L 6.011719 40.019531 L 9.9375 45.363281 L 7.3125 47.011719 L 3.386719 41.667969 L -0.664062 44.214844 Z M -2.464844 41.765625 "/>
<path style=" stroke:none;fill-rule:nonzero;fill:rgb(39.99939%,39.99939%,39.99939%);fill-opacity:0.3;" d="M 61.636719 73.421875 L 65.691406 70.875 L 61.765625 65.53125 L 64.390625 63.882812 L 68.3125 69.226562 L 72.367188 66.679688 L 74.164062 69.128906 L 70.113281 71.675781 L 74.035156 77.019531 L 71.414062 78.667969 L 67.488281 73.324219 L 63.433594 75.871094 Z M 61.636719 73.421875 "/>
<path style=" stroke:none;fill-rule:nonzero;fill:rgb(39.99939%,39.99939%,39.99939%);fill-opacity:0.3;" d="M 44.140625 69.960938 L 48.191406 67.414062 L 44.269531 62.070312 L 46.890625 60.421875 L 50.816406 65.765625 L 54.871094 63.222656 L 56.667969 65.671875 L 52.613281 68.214844 L 56.539062 73.5625 L 53.914062 75.207031 L 49.992188 69.863281 L 45.9375 72.410156 Z M 44.140625 69.960938 "/>
<path style=" stroke:none;fill-rule:nonzero;fill:rgb(39.99939%,39.99939%,39.99939%);fill-opacity:0.3;" d="M 27.867188 66.667969 L 31.921875 64.121094 L 27.996094 58.777344 L 30.621094 57.128906 L 34.542969 62.472656 L 38.597656 59.925781 L 40.394531 62.375 L 36.34375 64.921875 L 40.265625 70.265625 L 37.644531 71.914062 L 33.71875 66.570312 L 29.664062 69.117188 Z M 27.867188 66.667969 "/>
<path style=" stroke:none;fill-rule:nonzero;fill:rgb(39.99939%,39.99939%,39.99939%);fill-opacity:0.3;" d="M 10.71875 64.035156 L 14.773438 61.488281 L 10.851562 56.144531 L 13.472656 54.496094 L 17.398438 59.84375 L 21.449219 57.296875 L 23.25 59.746094 L 19.195312 62.292969 L 23.121094 67.636719 L 20.496094 69.285156 L 16.574219 63.9375 L 12.519531 66.484375 Z M 10.71875 64.035156 "/>
<path style=" stroke:none;fill-rule:nonzero;fill:rgb(39.99939%,39.99939%,39.99939%);fill-opacity:0.3;" d="M -6.429688 60.410156 L -2.375 57.863281 L -6.296875 52.519531 L -3.675781 50.871094 L 0.25 56.214844 L 4.304688 53.671875 L 6.101562 56.121094 L 2.046875 58.667969 L 5.972656 64.011719 L 3.347656 65.65625 L -0.574219 60.3125 L -4.628906 62.859375 Z M -6.429688 60.410156 "/>
<path style=" stroke:none;fill-rule:nonzero;fill:rgb(39.99939%,39.99939%,39.99939%);fill-opacity:0.3;" d="M -9.027344 75.675781 L -4.972656 73.128906 L -8.898438 67.785156 L -6.273438 66.136719 L -2.351562 71.480469 L 1.703125 68.9375 L 3.5 71.386719 L -0.550781 73.929688 L 3.371094 79.277344 L 0.75 80.921875 L -3.175781 75.578125 L -7.230469 78.125 Z M -9.027344 75.675781 "/>
<path style=" stroke:none;fill-rule:nonzero;fill:rgb(39.99939%,39.99939%,39.99939%);fill-opacity:0.3;" d="M -11.804688 90.277344 L -7.75 87.730469 L -11.671875 82.386719 L -9.050781 80.738281 L -5.125 86.085938 L -1.074219 83.539062 L 0.726562 85.988281 L -3.328125 88.535156 L 0.59375 93.878906 L -2.027344 95.527344 L -5.953125 90.179688 L -10.003906 92.726562 Z M -11.804688 90.277344 "/>
<path style=" stroke:none;fill-rule:nonzero;fill:rgb(39.99939%,39.99939%,39.99939%);fill-opacity:0.3;" d="M 34.601562 85.460938 L 43.714844 86.675781 L 37.121094 120.855469 L 27.589844 119.195312 Z M 34.601562 85.460938 "/>
<path style=" stroke:none;fill-rule:nonzero;fill:rgb(39.99939%,39.99939%,39.99939%);fill-opacity:0.3;" d="M 23.402344 71.109375 L 32.5 72.753906 L 26.078125 105.445312 L 16.546875 103.785156 Z M 23.402344 71.109375 "/>
<path style=" stroke:none;fill-rule:nonzero;fill:rgb(39.99939%,39.99939%,39.99939%);fill-opacity:0.3;" d="M 6.957031 79.53125 L 16.070312 80.742188 L 9.125 114.09375 L 0.550781 112.449219 Z M 6.957031 79.53125 "/>
<path style=" stroke:none;fill-rule:nonzero;fill:rgb(39.99939%,39.99939%,39.99939%);fill-opacity:0.3;" d="M 76.320312 27.175781 L 85.433594 28.722656 L 78.839844 62.570312 L 69.304688 60.910156 Z M 76.320312 27.175781 "/>
<path style=" stroke:none;fill-rule:nonzero;fill:rgb(39.99939%,39.99939%,39.99939%);fill-opacity:0.3;" d="M 63.015625 22.21875 L 72.128906 23.429688 L 65.535156 57.613281 L 56.003906 55.953125 Z M 63.015625 22.21875 "/>
<path style=" stroke:none;fill-rule:nonzero;fill:rgb(39.99939%,39.99939%,39.99939%);fill-opacity:0.3;" d="M 47.972656 22.238281 L 57.085938 23.453125 L 50.492188 57.632812 L 40.960938 55.972656 Z M 47.972656 22.238281 "/>
<path style=" stroke:none;fill-rule:nonzero;fill:rgb(39.99939%,39.99939%,39.99939%);fill-opacity:0.3;" d="M 34.515625 18.339844 L 43.613281 19.988281 L 37.191406 52.675781 L 27.660156 51.015625 Z M 34.515625 18.339844 "/>
<path style=" stroke:none;fill-rule:nonzero;fill:rgb(39.99939%,39.99939%,39.99939%);fill-opacity:0.3;" d="M 19.980469 17.964844 L 29.09375 19.179688 L 22.148438 52.53125 L 13.574219 50.882812 Z M 19.980469 17.964844 "/>
<path style=" stroke:none;fill-rule:nonzero;fill:rgb(39.99939%,39.99939%,39.99939%);fill-opacity:0.3;" d="M -4.222656 -21.207031 L 0.167969 -20.617188 L 0.710938 -24.152344 L 4.75 -23.730469 L 4.164062 -20.015625 L 7.722656 -19.46875 L 7.339844 -15.648438 L 3.558594 -16.167969 L 1.75 -4.449219 L 5.867188 -3.875 L 5.445312 -0.550781 L 1.265625 -1.152344 L 0.648438 2.992188 L -3.480469 2.484375 L -2.761719 -1.957031 L -7.792969 -2.902344 L -7.28125 -6.460938 L -2.21875 -5.65625 L -0.40625 -16.972656 L -4.753906 -17.71875 Z M -4.222656 -21.207031 "/>
<path style=" stroke:none;fill-rule:nonzero;fill:rgb(39.99939%,39.99939%,39.99939%);fill-opacity:0.3;" d="M 13.882812 -23.546875 L 18.273438 -22.957031 L 18.8125 -26.492188 L 22.855469 -26.070312 L 22.269531 -22.355469 L 25.738281 -21.824219 L 25.628906 -19.800781 L 25.445312 -17.988281 L 21.664062 -18.507812 L 19.851562 -6.789062 L 23.972656 -6.214844 L 23.550781 -2.890625 L 19.371094 -3.492188 L 18.753906 0.652344 L 14.625 0.148438 L 15.34375 -4.292969 L 10.3125 -5.242188 L 10.824219 -8.800781 L 15.886719 -7.996094 L 17.699219 -19.3125 L 13.347656 -20.058594 Z M 13.882812 -23.546875 "/>
<path style=" stroke:none;fill-rule:nonzero;fill:rgb(39.99939%,39.99939%,39.99939%);fill-opacity:0.3;" d="M 121.40625 76.898438 L 113.628906 74.375 L 100.296875 66.53125 L 112.09375 42.332031 L 114.972656 62.492188 L 154.191406 80.949219 L 160.851562 86.042969 L 213.5 146.484375 L 215.511719 152.515625 L 218.660156 161.417969 L 221.222656 168.449219 L 224.148438 172.824219 L 265.316406 222.855469 L 267.703125 225.117188 L 271.109375 227.648438 L 276.390625 231.421875 L 285.335938 233.96875 L 291.269531 236.632812 L 305.289062 248.582031 L 330.480469 271.027344 L 324.667969 279.210938 L 284.605469 251.847656 L 266.941406 242.042969 L 264.296875 241.734375 L 260.570312 241.582031 L 258.183594 241.148438 L 256.355469 240.144531 L 250.160156 225.992188 L 249.289062 224.949219 L 243.210938 222.195312 L 241.417969 220.316406 L 240.773438 215.289062 L 239.554688 213.214844 L 237.363281 210.453125 L 232.601562 207.859375 L 217.855469 182.289062 L 213.449219 171.886719 L 204.433594 153.699219 L 199.535156 148.085938 L 189.863281 140.609375 L 187.132812 138.429688 L 183.722656 132.214844 L 180.804688 129.222656 L 169.855469 117.949219 L 165.722656 114.960938 L 155.265625 108.296875 L 154.292969 107.144531 L 153.804688 105.535156 L 154.039062 98.390625 L 153.542969 94.015625 L 151.355469 91.945312 L 138.957031 85.972656 L 124.320312 78.277344 Z M 121.40625 76.898438 "/>
<path style=" stroke:none;fill-rule:nonzero;fill:rgb(39.99939%,39.99939%,39.99939%);fill-opacity:0.3;" d="M 333.03125 268.949219 L 317.78125 255.085938 L 334.351562 267.570312 Z M 333.03125 268.949219 "/>
<path style=" stroke:none;fill-rule:nonzero;fill:rgb(39.99939%,39.99939%,39.99939%);fill-opacity:0.3;" d="M 239.4375 240.398438 L 233.5 238.433594 L 235.238281 234.410156 L 241.269531 235.75 L 243.449219 230.5625 L 248.160156 231.992188 L 246.316406 236.621094 L 251.789062 238.289062 L 250.195312 242.359375 L 245.0625 240.453125 L 242.378906 246.597656 L 237.582031 245.246094 Z M 239.4375 240.398438 "/>
<path style=" stroke:none;fill-rule:nonzero;fill:rgb(39.99939%,39.99939%,39.99939%);fill-opacity:0.3;" d="M 47.40625 135.617188 L 48.945312 136.144531 L 49.667969 139.660156 L 45.804688 138.464844 Z M 47.40625 135.617188 "/>
<path style=" stroke:none;fill-rule:nonzero;fill:rgb(39.99939%,39.99939%,39.99939%);fill-opacity:0.3;" d="M 69.796875 109.925781 L 74.566406 111.515625 L 67.019531 131.085938 L 61.972656 129.898438 Z M 69.796875 109.925781 "/>
<path style=" stroke:none;fill-rule:nonzero;fill:rgb(39.99939%,39.99939%,39.99939%);fill-opacity:0.3;" d="M 190.300781 162.058594 L 184.882812 160.117188 L 186.597656 155.945312 L 192.136719 157.40625 L 194.3125 152.21875 L 199.027344 153.648438 L 197.402344 157.832031 L 203.042969 159.09375 L 201.425781 162.992188 L 196.261719 161.550781 L 193.5 167.71875 L 188.8125 166.363281 Z M 190.300781 162.058594 "/>
<path style=" stroke:none;fill-rule:nonzero;fill:rgb(39.99939%,39.99939%,39.99939%);fill-opacity:0.3;" d="M 127.007812 93.800781 L 134.230469 95.75 L 121.179688 130.796875 L 113.992188 128.304688 Z M 127.007812 93.800781 "/>
<path style=" stroke:none;fill-rule:nonzero;fill:rgb(39.99939%,39.99939%,39.99939%);fill-opacity:0.3;" d="M 142.492188 101.800781 L 147.855469 103.164062 L 135.324219 135.847656 L 130.371094 134.484375 Z M 142.492188 101.800781 "/>
<path style=" stroke:none;fill-rule:nonzero;fill:rgb(39.99939%,39.99939%,39.99939%);fill-opacity:0.3;" d="M 206.78125 178.855469 L 212.171875 180.09375 L 200.527344 212.007812 L 195 210.707031 Z M 206.78125 178.855469 "/>
<path style=" stroke:none;fill-rule:nonzero;fill:rgb(39.99939%,39.99939%,39.99939%);fill-opacity:0.3;" d="M 138.21875 148.734375 L 140.625 142.140625 L 145.070312 143.265625 L 143.246094 148.261719 L 149.199219 150.042969 L 147.792969 153.488281 L 141.988281 151.710938 L 137.757812 163.304688 L 143.824219 165.121094 L 142.417969 168.566406 L 136.496094 166.753906 L 132.269531 178.339844 L 138.078125 180.085938 L 136.675781 183.53125 L 131.007812 181.792969 L 128.457031 188.78125 L 124.078125 187.535156 L 125.996094 182.273438 L 119.980469 180.46875 L 121.386719 177.023438 L 127.253906 178.820312 L 131.476562 167.230469 L 125.726562 165.507812 L 127.128906 162.0625 L 132.738281 163.777344 L 136.960938 152.1875 L 131.101562 150.429688 L 132.503906 146.984375 Z M 138.21875 148.734375 "/>
<path style=" stroke:none;fill-rule:nonzero;fill:rgb(39.99939%,39.99939%,39.99939%);fill-opacity:0.3;" d="M 176.59375 208.402344 L 178.996094 201.808594 L 183.445312 202.933594 L 181.621094 207.925781 L 187.574219 209.710938 L 186.167969 213.15625 L 180.359375 211.378906 L 176.128906 222.96875 L 182.195312 224.789062 L 180.792969 228.234375 L 174.871094 226.421875 L 172.765625 232.183594 L 168.855469 229.628906 L 169.851562 226.898438 L 164.101562 225.175781 L 165.503906 221.730469 L 171.109375 223.445312 L 175.335938 211.855469 L 169.476562 210.097656 L 170.878906 206.652344 Z M 176.59375 208.402344 "/>
<path style=" stroke:none;fill-rule:nonzero;fill:rgb(39.99939%,39.99939%,39.99939%);fill-opacity:0.3;" d="M 215.511719 141.296875 L 215.5 141.382812 L 208.953125 134.039062 Z M 215.511719 141.296875 "/>
<path style=" stroke:none;fill-rule:nonzero;fill:rgb(39.99939%,39.99939%,39.99939%);fill-opacity:0.3;" d="M 150.808594 105.765625 L 151.796875 108.242188 L 153.441406 110.421875 L 167.960938 120.085938 L 175.316406 127.296875 L 179.621094 131.511719 L 181.65625 133.839844 L 183.957031 138.5 L 185.4375 140.246094 L 197.539062 150.585938 L 201.765625 155.472656 L 214.636719 183.105469 L 229.691406 208.070312 L 231.894531 210.25 L 235.785156 212.351562 L 237.382812 214.578125 L 238.394531 216.648438 L 238.6875 220.734375 L 240.09375 223.0625 L 247.125 226.988281 L 248.171875 227.835938 L 254.402344 241.066406 L 255.664062 242.953125 L 258.078125 243.75 L 264.132812 244.183594 L 270.585938 247.363281 L 282.976562 254.175781 L 318.460938 278.039062 L 316.921875 278.835938 L 315.238281 278.175781 L 302.273438 268.914062 L 300.089844 267.960938 L 191.800781 233.140625 L 191.050781 232.5625 L 188.867188 227.101562 L 188.539062 229.71875 L 187.847656 226.554688 L 187.917969 224.847656 L 187.945312 224.164062 L 188.679688 220.308594 L 199.855469 190.699219 L 164.519531 149.496094 L 162.554688 147.769531 L 159.726562 146.390625 L 139.023438 139.402344 L 110.363281 129.730469 L 122.527344 95.082031 L 119.53125 94.121094 L 115.882812 92.953125 L 103.070312 128.242188 L 85.546875 123.082031 L 63.667969 140.382812 L 59.605469 141.449219 L 55.960938 140.65625 L 52.875 138.933594 L 51.472656 136.941406 L 51.1875 134.949219 L 53.480469 128.984375 L 106.582031 44.910156 L 108.09375 45.789062 L 96.246094 67.382812 L 106.347656 73.882812 L 118.960938 80.804688 L 121.90625 82.421875 L 149.335938 93.84375 L 150.890625 95.863281 Z M 150.808594 105.765625 "/>
<path style=" stroke:none;fill-rule:nonzero;fill:rgb(39.99939%,39.99939%,39.99939%);fill-opacity:0.3;" d="M 88.214844 82.65625 L 93.121094 84.113281 L 81.398438 115.757812 L 76.773438 114.035156 Z M 88.214844 82.65625 "/>
<path style=" stroke:none;fill-rule:nonzero;fill:rgb(39.99939%,39.99939%,39.99939%);fill-opacity:0.3;" d="M 93.21875 74.480469 L 115.371094 81.625 L 113.140625 87.078125 L 91.40625 79.664062 Z M 93.21875 74.480469 "/>
<path style=" stroke:none;fill-rule:nonzero;fill:rgb(39.99939%,39.99939%,39.99939%);fill-opacity:0.3;" d="M 221.054688 204.070312 L 226.441406 205.308594 L 214.796875 237.222656 L 209.269531 235.921875 Z M 221.054688 204.070312 "/>
<path style="fill-rule:nonzero;fill:rgb(39.99939%,39.99939%,39.99939%);fill-opacity:1;stroke-width:0.03;stroke-linecap:square;stroke-linejoin:miter;stroke:rgb(39.99939%,39.99939%,39.99939%);stroke-opacity:1;stroke-miterlimit:3.239307;" d="M 182.105469 217.957031 L 187.710938 219.632812 L 177.074219 248.890625 L 171.171875 246.878906 Z M 182.105469 217.957031 " transform="matrix(1,0,0,1,-74,-13)"/>
<path style="fill-rule:nonzero;fill:rgb(39.99939%,39.99939%,39.99939%);fill-opacity:1;stroke-width:0.03;stroke-linecap:square;stroke-linejoin:miter;stroke:rgb(39.99939%,39.99939%,39.99939%);stroke-opacity:1;stroke-miterlimit:3.239307;" d="M 132.488281 231.59375 L 165.769531 242.738281 L 163.972656 247.402344 L 130.839844 236.382812 Z M 132.488281 231.59375 " transform="matrix(1,0,0,1,-74,-13)"/>
<path style="fill-rule:nonzero;fill:rgb(39.99939%,39.99939%,39.99939%);fill-opacity:1;stroke-width:0.03;stroke-linecap:square;stroke-linejoin:miter;stroke:rgb(39.99939%,39.99939%,39.99939%);stroke-opacity:1;stroke-miterlimit:3.239307;" d="M 302.320312 270.316406 L 310.171875 272.746094 L 298.542969 304.960938 L 290.960938 302.347656 Z M 302.320312 270.316406 " transform="matrix(1,0,0,1,-74,-13)"/>
<path style="fill-rule:nonzero;fill:rgb(39.99939%,39.99939%,39.99939%);fill-opacity:1;stroke-width:0.03;stroke-linecap:square;stroke-linejoin:miter;stroke:rgb(39.99939%,39.99939%,39.99939%);stroke-opacity:1;stroke-miterlimit:3.239307;" d="M 337.378906 281.214844 L 345.238281 283.644531 L 333.175781 317.054688 L 325.519531 314.523438 Z M 337.378906 281.214844 " transform="matrix(1,0,0,1,-74,-13)"/>
<path style="fill-rule:nonzero;fill:rgb(39.99939%,39.99939%,39.99939%);fill-opacity:1;stroke-width:0.03;stroke-linecap:square;stroke-linejoin:miter;stroke:rgb(39.99939%,39.99939%,39.99939%);stroke-opacity:1;stroke-miterlimit:3.239307;" d="M 249.46875 288.390625 L 261.023438 256.691406 L 266.800781 258.476562 L 255.371094 290.347656 Z M 249.46875 288.390625 " transform="matrix(1,0,0,1,-74,-13)"/>
<path style="fill-rule:nonzero;fill:rgb(39.99939%,39.99939%,39.99939%);fill-opacity:1;stroke-width:0.03;stroke-linecap:square;stroke-linejoin:miter;stroke:rgb(39.99939%,39.99939%,39.99939%);stroke-opacity:1;stroke-miterlimit:3.239307;" d="M 201.34375 230.265625 L 207.40625 231.808594 L 195.5 265.859375 L 189.269531 264.160156 Z M 201.34375 230.265625 " transform="matrix(1,0,0,1,-74,-13)"/>
<path style="fill-rule:nonzero;fill:rgb(39.99939%,39.99939%,39.99939%);fill-opacity:1;stroke-width:0.03;stroke-linecap:square;stroke-linejoin:miter;stroke:rgb(39.99939%,39.99939%,39.99939%);stroke-opacity:1;stroke-miterlimit:3.239307;" d="M 216.273438 242.054688 L 222.007812 243.445312 L 211.074219 274.707031 L 205.113281 272.449219 Z M 216.273438 242.054688 " transform="matrix(1,0,0,1,-74,-13)"/>
<path style="fill-rule:nonzero;fill:rgb(39.99939%,39.99939%,39.99939%);fill-opacity:1;stroke-width:0.03;stroke-linecap:square;stroke-linejoin:miter;stroke:rgb(39.99939%,39.99939%,39.99939%);stroke-opacity:1;stroke-miterlimit:3.239307;" d="M 341.675781 319.519531 L 354.074219 286.660156 L 359.71875 288.5 L 347.554688 321.570312 Z M 341.675781 319.519531 " transform="matrix(1,0,0,1,-74,-13)"/>
<path style="fill-rule:nonzero;fill:rgb(39.99939%,39.99939%,39.99939%);fill-opacity:1;stroke-width:0.03;stroke-linecap:square;stroke-linejoin:miter;stroke:rgb(39.99939%,39.99939%,39.99939%);stroke-opacity:1;stroke-miterlimit:3.239307;" d="M 370.597656 311.578125 L 364.394531 309.625 L 365.84375 306.011719 L 372.066406 308.023438 L 374.332031 302.152344 L 378.5 303.464844 L 376.738281 308.011719 L 382.570312 309.75 L 381.089844 312.921875 L 375.621094 311.113281 L 372.964844 317.839844 L 368.65625 316.367188 Z M 370.597656 311.578125 " transform="matrix(1,0,0,1,-74,-13)"/>
<path style="fill-rule:nonzero;fill:rgb(39.99939%,39.99939%,39.99939%);fill-opacity:1;stroke-width:0.03;stroke-linecap:square;stroke-linejoin:miter;stroke:rgb(39.99939%,39.99939%,39.99939%);stroke-opacity:1;stroke-miterlimit:3.239307;" d="M 246.765625 245.183594 L 244.640625 251.007812 L 250.453125 252.75 L 249.050781 256.195312 L 243.382812 254.460938 L 240.832031 261.445312 L 236.453125 260.203125 L 238.371094 254.941406 L 232.355469 253.136719 L 233.761719 249.691406 L 239.628906 251.488281 L 242.855469 242.628906 Z M 246.765625 245.183594 " transform="matrix(1,0,0,1,-74,-13)"/>
<path style="fill-rule:nonzero;fill:rgb(39.99939%,39.99939%,39.99939%);fill-opacity:1;stroke-width:0.03;stroke-linecap:square;stroke-linejoin:miter;stroke:rgb(39.99939%,39.99939%,39.99939%);stroke-opacity:1;stroke-miterlimit:3.239307;" d="M 161.984375 142.386719 L 184.609375 149.503906 L 182.488281 155.414062 L 160.027344 148.296875 Z M 161.984375 142.386719 " transform="matrix(1,0,0,1,-74,-13)"/>
<path style="fill-rule:nonzero;fill:rgb(39.99939%,39.99939%,39.99939%);fill-opacity:1;stroke-width:0.03;stroke-linecap:square;stroke-linejoin:miter;stroke:rgb(39.99939%,39.99939%,39.99939%);stroke-opacity:1;stroke-miterlimit:3.239307;" d="M 265.050781 245.5625 L 262.777344 243.816406 L 262.539062 242.71875 L 262.867188 240.101562 Z M 265.050781 245.5625 " transform="matrix(1,0,0,1,-74,-13)"/>
<path style="fill-rule:nonzero;fill:rgb(39.99939%,39.99939%,39.99939%);fill-opacity:1;stroke-width:0.03;stroke-linecap:square;stroke-linejoin:miter;stroke:rgb(39.99939%,39.99939%,39.99939%);stroke-opacity:1;stroke-miterlimit:3.239307;" d="M 268.953125 295.328125 L 281.351562 262.46875 L 286.996094 264.304688 L 274.867188 297.285156 L 271.941406 296.371094 Z M 268.953125 295.328125 " transform="matrix(1,0,0,1,-74,-13)"/>
<path style="fill-rule:nonzero;fill:rgb(39.99939%,39.99939%,39.99939%);fill-opacity:1;stroke-width:0.03;stroke-linecap:square;stroke-linejoin:miter;stroke:rgb(39.99939%,39.99939%,39.99939%);stroke-opacity:1;stroke-miterlimit:3.239307;" d="M 307.171875 307.9375 L 319.535156 275.171875 L 325.179688 277.007812 L 313.015625 310.082031 L 308.792969 308.605469 L 307.324219 307.988281 Z M 307.171875 307.9375 " transform="matrix(1,0,0,1,-74,-13)"/>
<path style="fill-rule:nonzero;fill:rgb(39.99939%,39.99939%,39.99939%);fill-opacity:1;stroke-width:0.03;stroke-linecap:square;stroke-linejoin:miter;stroke:rgb(39.99939%,39.99939%,39.99939%);stroke-opacity:1;stroke-miterlimit:3.239307;" d="M 178.074219 156.65625 L 183.648438 158.355469 L 176.632812 178.101562 L 170.730469 176.246094 Z M 178.074219 156.65625 " transform="matrix(1,0,0,1,-74,-13)"/>
<path style="fill-rule:nonzero;fill:rgb(39.99939%,39.99939%,39.99939%);fill-opacity:1;stroke-width:0.03;stroke-linecap:square;stroke-linejoin:miter;stroke:rgb(39.99939%,39.99939%,39.99939%);stroke-opacity:1;stroke-miterlimit:3.239307;" d="M 133.171875 215.988281 L 135.382812 216.746094 L 127.714844 236.960938 L 125.429688 236.40625 Z M 133.171875 215.988281 " transform="matrix(1,0,0,1,-74,-13)"/>
<path style="fill-rule:nonzero;fill:rgb(39.99939%,39.99939%,39.99939%);fill-opacity:1;stroke-width:0.03;stroke-linecap:square;stroke-linejoin:miter;stroke:rgb(39.99939%,39.99939%,39.99939%);stroke-opacity:1;stroke-miterlimit:3.239307;" d="M 148.9375 181.34375 L 154.183594 182.890625 L 142.925781 215.230469 L 137.515625 213.839844 Z M 148.9375 181.34375 " transform="matrix(1,0,0,1,-74,-13)"/>
<path style="fill-rule:nonzero;fill:rgb(39.99939%,39.99939%,39.99939%);fill-opacity:1;stroke-width:0.03;stroke-linecap:square;stroke-linejoin:miter;stroke:rgb(39.99939%,39.99939%,39.99939%);stroke-opacity:1;stroke-miterlimit:3.239307;" d="M 178.980469 178.738281 L 184.339844 180.441406 L 173.082031 210.914062 L 167.179688 209.214844 Z M 178.980469 178.738281 " transform="matrix(1,0,0,1,-74,-13)"/>
<g clip-path="url(#clip20)" clip-rule="nonzero">
<path style=" stroke:none;fill-rule:evenodd;fill:rgb(85.096741%,85.096741%,81.959534%);fill-opacity:0.7;" d="M 68.03125 380 C 68.03125 373.625 65.5 367.515625 60.992188 363.007812 C 56.484375 358.5 50.375 355.96875 44 355.96875 C 37.625 355.96875 31.515625 358.5 27.007812 363.007812 C 22.5 367.515625 19.96875 373.625 19.96875 380 C 19.96875 386.375 22.5 392.484375 27.007812 396.992188 C 31.515625 401.5 37.625 404.03125 44 404.03125 C 50.375 404.03125 56.484375 401.5 60.992188 396.992188 C 65.5 392.484375 68.03125 386.375 68.03125 380 Z M 68.03125 380 "/>
</g>
<g clip-path="url(#clip21)" clip-rule="nonzero">
<path style=" stroke:none;fill-rule:evenodd;fill:rgb(85.096741%,85.096741%,81.959534%);fill-opacity:0.7;" d="M 288.03125 342 C 288.03125 335.625 285.5 329.515625 280.992188 325.007812 C 276.484375 320.5 270.375 317.96875 264 317.96875 C 257.625 317.96875 251.515625 320.5 247.007812 325.007812 C 242.5 329.515625 239.96875 335.625 239.96875 342 C 239.96875 348.375 242.5 354.484375 247.007812 358.992188 C 251.515625 363.5 257.625 366.03125 264 366.03125 C 270.375 366.03125 276.484375 363.5 280.992188 358.992188 C 285.5 354.484375 288.03125 348.375 288.03125 342 Z M 288.03125 342 "/>
</g>
<path style=" stroke:none;fill-rule:evenodd;fill:rgb(85.096741%,85.096741%,81.959534%);fill-opacity:0.7;" d="M 333.03125 296 C 333.03125 289.625 330.5 283.515625 325.992188 279.007812 C 321.484375 274.5 315.375 271.96875 309 271.96875 C 302.625 271.96875 296.515625 274.5 292.007812 279.007812 C 287.5 283.515625 284.96875 289.625 284.96875 296 C 284.96875 302.375 287.5 308.484375 292.007812 312.992188 C 296.515625 317.5 302.625 320.03125 309 320.03125 C 315.375 320.03125 321.484375 317.5 325.992188 312.992188 C 330.5 308.484375 333.03125 302.375 333.03125 296 Z M 333.03125 296 "/>
<path style=" stroke:none;fill-rule:evenodd;fill:rgb(85.096741%,85.096741%,81.959534%);fill-opacity:0.7;" d="M 24.03125 159 C 24.03125 152.625 21.5 146.515625 16.992188 142.007812 C 12.484375 137.5 6.375 134.96875 0 134.96875 C -6.375 134.96875 -12.484375 137.5 -16.992188 142.007812 C -21.5 146.515625 -24.03125 152.625 -24.03125 159 C -24.03125 165.375 -21.5 171.484375 -16.992188 175.992188 C -12.484375 180.5 -6.375 183.03125 0 183.03125 C 6.375 183.03125 12.484375 180.5 16.992188 175.992188 C 21.5 171.484375 24.03125 165.375 24.03125 159 Z M 24.03125 159 "/>
<path style=" stroke:none;fill-rule:evenodd;fill:rgb(85.096741%,85.096741%,81.959534%);fill-opacity:0.7;" d="M 351.03125 298 C 351.03125 291.625 348.5 285.515625 343.992188 281.007812 C 339.484375 276.5 333.375 273.96875 327 273.96875 C 320.625 273.96875 314.515625 276.5 310.007812 281.007812 C 305.5 285.515625 302.96875 291.625 302.96875 298 C 302.96875 304.375 305.5 310.484375 310.007812 314.992188 C 314.515625 319.5 320.625 322.03125 327 322.03125 C 333.375 322.03125 339.484375 319.5 343.992188 314.992188 C 348.5 310.484375 351.03125 304.375 351.03125 298 Z M 351.03125 298 "/>
<path style="fill-rule:nonzero;fill:rgb(99.998474%,99.998474%,30.587769%);fill-opacity:0.8;stroke-width:0.288;stroke-linecap:square;stroke-linejoin:miter;stroke:rgb(0%,0%,0%);stroke-opacity:0.8;stroke-miterlimit:3.25;" d="M 75.425781 122.351562 L 23.398438 212.46875 L 127.453125 212.46875 Z M 75.425781 122.351562 " transform="matrix(1,0,0,1,-74,-13)"/>
</g>
</svg>
