<?xml version="1.0" encoding="UTF-8"?>
<svg xmlns="http://www.w3.org/2000/svg" xmlns:xlink="http://www.w3.org/1999/xlink" width="361pt" height="361pt" viewBox="0 0 361 361" version="1.1">
<defs>
<clipPath id="clip1">
  <path d="M 0 307 L 6 307 L 6 360 L 0 360 Z M 0 307 "/>
</clipPath>
<clipPath id="clip2">
  <path d="M 2 309 L 24 309 L 24 360 L 2 360 Z M 2 309 "/>
</clipPath>
<clipPath id="clip3">
  <path d="M 129 325 L 209 325 L 209 360 L 129 360 Z M 129 325 "/>
</clipPath>
<clipPath id="clip4">
  <path d="M 114 358 L 133 358 L 133 360 L 114 360 Z M 114 358 "/>
</clipPath>
<clipPath id="clip5">
  <path d="M 51 346 L 70 346 L 70 360 L 51 360 Z M 51 346 "/>
</clipPath>
<clipPath id="clip6">
  <path d="M 83 352 L 102 352 L 102 360 L 83 360 Z M 83 352 "/>
</clipPath>
<clipPath id="clip7">
  <path d="M 34 343 L 54 343 L 54 360 L 34 360 Z M 34 343 "/>
</clipPath>
<clipPath id="clip8">
  <path d="M 67 349 L 86 349 L 86 360 L 67 360 Z M 67 349 "/>
</clipPath>
<clipPath id="clip9">
  <path d="M 99 355 L 117 355 L 117 360 L 99 360 Z M 99 355 "/>
</clipPath>
<clipPath id="clip10">
  <path d="M 243 332 L 258 332 L 258 360 L 243 360 Z M 243 332 "/>
</clipPath>
<clipPath id="clip11">
  <path d="M 274 334 L 291 334 L 291 360 L 274 360 Z M 274 334 "/>
</clipPath>
<clipPath id="clip12">
  <path d="M 290 293 L 312 293 L 312 360 L 290 360 Z M 290 293 "/>
</clipPath>
<clipPath id="clip13">
  <path d="M 258 333 L 275 333 L 275 360 L 258 360 Z M 258 333 "/>
</clipPath>
<clipPath id="clip14">
  <path d="M 356 219 L 360 219 L 360 245 L 356 245 Z M 356 219 "/>
</clipPath>
<clipPath id="clip15">
  <path d="M 359 187 L 360 187 L 360 213 L 359 213 Z M 359 187 "/>
</clipPath>
<clipPath id="clip16">
  <path d="M 324 289 L 360 289 L 360 299 L 324 299 Z M 324 289 "/>
</clipPath>
<clipPath id="clip17">
  <path d="M 336 269 L 360 269 L 360 278 L 336 278 Z M 336 269 "/>
</clipPath>
<clipPath id="clip18">
  <path d="M 356 177 L 360 177 L 360 185 L 356 185 Z M 356 177 "/>
</clipPath>
<clipPath id="clip19">
  <path d="M 200 320 L 242 320 L 242 360 L 200 360 Z M 200 320 "/>
</clipPath>
<clipPath id="clip20">
  <path d="M 309 300 L 360 300 L 360 360 L 309 360 Z M 309 300 "/>
</clipPath>
<clipPath id="clip21">
  <path d="M 347 41 L 360 41 L 360 144 L 347 144 Z M 347 41 "/>
</clipPath>
<clipPath id="clip22">
  <path d="M 267 0 L 360 0 L 360 54 L 267 54 Z M 267 0 "/>
</clipPath>
<clipPath id="clip23">
  <path d="M 288 321 L 336 321 L 336 360 L 288 360 Z M 288 321 "/>
</clipPath>
</defs>
<g id="surface1603">
<path style="fill-rule:nonzero;fill:rgb(0%,0%,0%);fill-opacity:1;stroke-width:0.03;stroke-linecap:square;stroke-linejoin:miter;stroke:rgb(0%,0%,0%);stroke-opacity:1;stroke-miterlimit:10;" d="M 0 178 L 360 178 L 360 -182 L 0 -182 Z M 0 178 " transform="matrix(1,0,0,1,0,182)"/>
<path style=" stroke:none;fill-rule:nonzero;fill:rgb(39.99939%,39.99939%,39.99939%);fill-opacity:0.3;" d="M 73.050781 184.050781 L 87.988281 186.800781 L 103.875 189.722656 L 115.257812 191.816406 L 94.363281 294.785156 L 93.359375 295.597656 L 91.554688 295.695312 L 54.53125 288.675781 L 52.464844 287.648438 L 51.429688 285.125 L 63.234375 227.738281 Z M 73.050781 184.050781 "/>
<path style=" stroke:none;fill-rule:nonzero;fill:rgb(39.99939%,39.99939%,39.99939%);fill-opacity:0.3;" d="M 136.90625 205.179688 L 137.28125 201.777344 L 147.632812 196.527344 L 160.335938 199.65625 L 153.222656 235.289062 L 134.109375 232.054688 L 136.5625 216.625 L 136.972656 212.914062 Z M 136.90625 205.179688 "/>
<path style=" stroke:none;fill-rule:nonzero;fill:rgb(39.99939%,39.99939%,39.99939%);fill-opacity:0.3;" d="M 145.4375 236.222656 L 151.632812 237.195312 L 149.195312 251.210938 L 142.871094 250.175781 L 143.257812 248.433594 L 141.210938 248.0625 L 141.59375 246.257812 L 143.570312 246.628906 L 144.511719 241.386719 L 142.757812 241.027344 L 143.113281 239.261719 L 144.863281 239.554688 Z M 145.4375 236.222656 "/>
<path style=" stroke:none;fill-rule:nonzero;fill:rgb(39.99939%,39.99939%,39.99939%);fill-opacity:0.3;" d="M 142.128906 98.640625 L 155.199219 101.101562 L 148.253906 134.367188 L 135.183594 131.90625 Z M 142.128906 98.640625 "/>
<path style=" stroke:none;fill-rule:nonzero;fill:rgb(39.99939%,39.99939%,39.99939%);fill-opacity:0.3;" d="M 125.492188 95.507812 L 139.972656 98.234375 L 133.027344 131.5 L 118.546875 128.777344 Z M 125.492188 95.507812 "/>
<path style=" stroke:none;fill-rule:nonzero;fill:rgb(39.99939%,39.99939%,39.99939%);fill-opacity:0.3;" d="M 123.335938 95.105469 L 116.390625 128.371094 L 102.746094 125.804688 L 109.695312 92.535156 Z M 123.335938 95.105469 "/>
<path style=" stroke:none;fill-rule:nonzero;fill:rgb(39.99939%,39.99939%,39.99939%);fill-opacity:0.3;" d="M 236.570312 141.621094 L 235.46875 141.101562 L 229.542969 145.898438 L 228.222656 146.527344 L 227.125 145.902344 L 220.269531 140.308594 L 213.65625 136.066406 L 207.257812 132.636719 L 197.234375 127.589844 L 200.617188 113.113281 L 201.605469 111.546875 L 203.363281 110.714844 L 205.777344 110.398438 L 210.0625 111.644531 L 215.339844 114.035156 L 221.164062 117.363281 L 228.085938 122.042969 L 232.484375 125.269531 L 236.441406 128.390625 L 241.058594 131.824219 L 246.996094 136.296875 L 255.460938 143.0625 L 256.558594 144.9375 L 255.792969 147.332031 L 249.917969 154.230469 L 244.808594 160.503906 L 239.699219 166.574219 L 234.164062 172.242188 L 228.628906 180.539062 L 225.371094 185.09375 L 222.960938 190.515625 L 220.769531 195.621094 L 218.800781 202.289062 L 217.265625 203.960938 L 215.617188 204.480469 L 213.3125 204.691406 L 192.109375 200.960938 L 163.652344 194.738281 L 161.675781 193.699219 L 160.464844 192.347656 L 160.027344 191.617188 L 159.585938 190.890625 L 159.363281 189.328125 L 176.726562 108.726562 L 177.386719 107.371094 L 178.261719 106.433594 L 179.472656 105.808594 L 195.621094 108.1875 L 196.609375 109.019531 L 197.050781 110.582031 L 196.832031 112.144531 L 193.664062 127.671875 L 181.726562 178.765625 L 200.492188 182.386719 L 202.621094 180.359375 L 212.628906 168.824219 L 227.789062 151.109375 L 237.886719 142.246094 Z M 236.570312 141.621094 "/>
<path style=" stroke:none;fill-rule:nonzero;fill:rgb(39.99939%,39.99939%,39.99939%);fill-opacity:0.3;" d="M 93.15625 89.425781 L 107.539062 92.128906 L 100.589844 125.398438 L 86.210938 122.691406 Z M 93.15625 89.425781 "/>
<path style=" stroke:none;fill-rule:nonzero;fill:rgb(39.99939%,39.99939%,39.99939%);fill-opacity:0.3;" d="M 109.949219 232.332031 L 114.292969 206.785156 L 133.21875 211.207031 L 128.042969 235.476562 Z M 109.949219 232.332031 "/>
<path style=" stroke:none;fill-rule:nonzero;fill:rgb(39.99939%,39.99939%,39.99939%);fill-opacity:0.3;" d="M 163.984375 130.53125 L 154.742188 118.582031 L 157.292969 116.851562 L 158.898438 118.929688 L 160.679688 117.707031 L 161.597656 118.894531 L 159.867188 120.179688 L 163.992188 125.511719 L 165.722656 124.226562 L 166.726562 125.523438 L 165.027344 126.851562 L 166.507812 128.769531 Z M 163.984375 130.53125 "/>
<path style=" stroke:none;fill-rule:nonzero;fill:rgb(39.99939%,39.99939%,39.99939%);fill-opacity:0.3;" d="M 167.050781 117.28125 L 157.808594 105.335938 L 160.359375 103.605469 L 161.96875 105.679688 L 163.75 104.460938 L 164.667969 105.648438 L 162.933594 106.933594 L 167.058594 112.265625 L 168.792969 110.980469 L 169.796875 112.277344 L 168.09375 113.605469 L 169.578125 115.523438 Z M 167.050781 117.28125 "/>
<path style=" stroke:none;fill-rule:nonzero;fill:rgb(39.99939%,39.99939%,39.99939%);fill-opacity:0.3;" d="M 136.554688 305.425781 L 129.449219 304.226562 L 118.957031 302.453125 L 119.425781 299.4375 L 123.050781 300.03125 L 123.527344 297.402344 L 125.226562 297.734375 L 124.734375 300.308594 L 131.785156 301.464844 L 132.3125 299.089844 L 133.871094 299.394531 L 133.441406 301.738281 L 137.121094 302.339844 Z M 136.554688 305.425781 "/>
<path style=" stroke:none;fill-rule:nonzero;fill:rgb(39.99939%,39.99939%,39.99939%);fill-opacity:0.3;" d="M 157.808594 278.917969 L 172.84375 281.550781 L 190.234375 284.582031 L 189.75 287.597656 L 186.125 286.980469 L 185.632812 289.609375 L 183.9375 289.269531 L 184.445312 286.695312 L 177.398438 285.503906 L 176.859375 287.875 L 175.300781 287.5625 L 175.746094 285.222656 L 172.359375 284.621094 L 170.003906 284.164062 L 169.511719 286.789062 L 167.816406 286.449219 L 168.324219 283.878906 L 161.683594 282.734375 L 161.167969 285.152344 L 159.523438 284.820312 L 159.988281 282.476562 L 157.234375 282.019531 Z M 157.808594 278.917969 "/>
<path style=" stroke:none;fill-rule:nonzero;fill:rgb(39.99939%,39.99939%,39.99939%);fill-opacity:0.3;" d="M 201.34375 274.773438 L 198.210938 291.484375 L 195.035156 291.039062 L 195.664062 287.59375 L 192.890625 287.140625 L 193.242188 285.53125 L 195.953125 285.996094 L 197.171875 279.300781 L 194.667969 278.800781 L 194.992188 277.324219 L 197.457031 277.730469 L 198.09375 274.238281 Z M 201.34375 274.773438 "/>
<path style=" stroke:none;fill-rule:nonzero;fill:rgb(39.99939%,39.99939%,39.99939%);fill-opacity:0.3;" d="M 202.476562 265.375 L 201.835938 268.9375 L 157.722656 260.367188 L 154.140625 259.671875 L 154.859375 256.136719 L 158.1875 256.679688 L 158.652344 254.371094 L 160.59375 254.753906 L 160.125 257.058594 L 165.546875 258.121094 L 166.011719 255.816406 L 167.949219 256.199219 L 167.484375 258.503906 L 174.058594 259.792969 L 174.527344 257.488281 L 176.464844 257.867188 L 176 260.175781 L 181.871094 261.328125 L 182.339844 259.023438 L 184.277344 259.402344 L 183.8125 261.710938 L 189.882812 262.902344 L 190.351562 260.59375 L 192.289062 260.976562 L 191.824219 263.28125 L 197.773438 264.449219 L 198.242188 262.144531 L 200.179688 262.523438 L 199.714844 264.832031 Z M 202.476562 265.375 "/>
<path style=" stroke:none;fill-rule:nonzero;fill:rgb(39.99939%,39.99939%,39.99939%);fill-opacity:0.3;" d="M 142.972656 307.878906 L 139.996094 307.390625 L 149.757812 262.113281 L 153.480469 262.796875 L 152.910156 265.957031 L 155.335938 266.398438 L 154.9375 268.238281 L 152.507812 267.796875 L 151.386719 272.941406 L 153.816406 273.382812 L 153.414062 275.222656 L 150.984375 274.78125 L 149.625 281.023438 L 152.054688 281.464844 L 151.652344 283.308594 L 149.226562 282.863281 L 148.011719 288.441406 L 150.4375 288.882812 L 150.039062 290.726562 L 147.609375 290.28125 L 146.355469 296.046875 L 148.78125 296.488281 L 148.382812 298.332031 L 145.953125 297.886719 L 144.722656 303.539062 L 147.152344 303.980469 L 146.75 305.820312 L 144.320312 305.378906 L 143.757812 307.964844 Z M 142.972656 307.878906 "/>
<path style=" stroke:none;fill-rule:nonzero;fill:rgb(39.99939%,39.99939%,39.99939%);fill-opacity:0.3;" d="M 130.828125 280.140625 L 127.074219 279.53125 L 136.835938 234.253906 L 140.558594 234.933594 L 139.988281 238.09375 L 142.414062 238.535156 L 142.035156 240.308594 L 139.585938 239.933594 L 138.507812 245.089844 L 140.894531 245.523438 L 140.492188 247.363281 L 138.097656 246.921875 L 136.703125 253.160156 L 139.132812 253.605469 L 138.730469 255.445312 L 136.304688 255.003906 L 135.089844 260.578125 L 137.515625 261.023438 L 137.117188 262.863281 L 134.6875 262.421875 L 133.433594 268.183594 L 135.859375 268.628906 L 135.460938 270.46875 L 133.03125 270.027344 L 131.800781 275.675781 L 134.230469 276.117188 L 133.828125 277.960938 L 131.398438 277.515625 Z M 130.828125 280.140625 "/>
<path style=" stroke:none;fill-rule:nonzero;fill:rgb(39.99939%,39.99939%,39.99939%);fill-opacity:0.3;" d="M 128.8125 158.605469 L 141.882812 161.0625 L 135.132812 193.382812 L 122.0625 190.921875 Z M 128.8125 158.605469 "/>
<path style=" stroke:none;fill-rule:nonzero;fill:rgb(39.99939%,39.99939%,39.99939%);fill-opacity:0.3;" d="M 112.175781 155.472656 L 126.65625 158.199219 L 119.90625 190.515625 L 105.429688 187.792969 Z M 112.175781 155.472656 "/>
<path style=" stroke:none;fill-rule:nonzero;fill:rgb(39.99939%,39.99939%,39.99939%);fill-opacity:0.3;" d="M 110.019531 155.066406 L 103.273438 187.386719 L 89.628906 184.820312 L 96.378906 152.5 Z M 110.019531 155.066406 "/>
<path style=" stroke:none;fill-rule:nonzero;fill:rgb(39.99939%,39.99939%,39.99939%);fill-opacity:0.3;" d="M 150.804688 194.722656 L 141.5625 182.773438 L 144.113281 181.042969 L 145.71875 183.121094 L 147.5 181.902344 L 148.417969 183.085938 L 146.6875 184.375 L 150.8125 189.707031 L 152.542969 188.421875 L 153.546875 189.71875 L 151.847656 191.046875 L 153.328125 192.960938 Z M 150.804688 194.722656 "/>
<path style=" stroke:none;fill-rule:nonzero;fill:rgb(39.99939%,39.99939%,39.99939%);fill-opacity:0.3;" d="M 152.964844 180.960938 L 143.722656 169.011719 L 146.273438 167.28125 L 147.878906 169.359375 L 149.664062 168.136719 L 150.582031 169.324219 L 148.847656 170.613281 L 152.972656 175.945312 L 154.707031 174.660156 L 155.707031 175.957031 L 154.007812 177.28125 L 155.492188 179.199219 Z M 152.964844 180.960938 "/>
<path style=" stroke:none;fill-rule:nonzero;fill:rgb(39.99939%,39.99939%,39.99939%);fill-opacity:0.3;" d="M 156.039062 168.003906 L 146.796875 156.054688 L 149.347656 154.324219 L 150.953125 156.402344 L 152.738281 155.179688 L 153.65625 156.367188 L 151.921875 157.65625 L 156.046875 162.988281 L 157.777344 161.703125 L 158.78125 163 L 157.082031 164.324219 L 158.566406 166.242188 Z M 156.039062 168.003906 "/>
<path style=" stroke:none;fill-rule:nonzero;fill:rgb(39.99939%,39.99939%,39.99939%);fill-opacity:0.3;" d="M 159.199219 155.789062 L 149.957031 143.839844 L 152.507812 142.109375 L 154.113281 144.1875 L 155.898438 142.964844 L 156.816406 144.152344 L 155.082031 145.4375 L 159.207031 150.773438 L 160.941406 149.488281 L 161.941406 150.78125 L 160.242188 152.109375 L 161.726562 154.027344 Z M 159.199219 155.789062 "/>
<path style=" stroke:none;fill-rule:nonzero;fill:rgb(39.99939%,39.99939%,39.99939%);fill-opacity:0.3;" d="M 161.640625 143.519531 L 152.398438 131.570312 L 154.949219 129.839844 L 156.554688 131.917969 L 158.335938 130.695312 L 159.253906 131.882812 L 157.523438 133.167969 L 161.648438 138.5 L 163.378906 137.214844 L 164.382812 138.511719 L 162.683594 139.839844 L 164.164062 141.757812 Z M 161.640625 143.519531 "/>
<path style=" stroke:none;fill-rule:nonzero;fill:rgb(39.99939%,39.99939%,39.99939%);fill-opacity:0.3;" d="M 196.980469 296.023438 L 194.105469 304.8125 L 193.609375 307.074219 L 149.222656 308.570312 L 148.558594 308.496094 L 153.984375 287.964844 Z M 196.980469 296.023438 "/>
<path style=" stroke:none;fill-rule:nonzero;fill:rgb(39.99939%,39.99939%,39.99939%);fill-opacity:0.3;" d="M 150.621094 251.835938 L 161.476562 197.46875 L 212.550781 208.019531 L 213.554688 208.957031 L 214.105469 210.191406 L 214.328125 211.804688 L 204.035156 262.28125 Z M 150.621094 251.835938 "/>
<path style=" stroke:none;fill-rule:nonzero;fill:rgb(39.99939%,39.99939%,39.99939%);fill-opacity:0.3;" d="M 205.539062 70.03125 L 212.574219 71.84375 L 220.46875 74.867188 L 227.292969 78.703125 L 234.546875 82.738281 L 239.027344 85.972656 L 244.574219 90.007812 L 250.546875 94.855469 L 256.523438 99.097656 L 260.789062 102.734375 L 262.070312 103.945312 L 261.433594 105.5625 L 256.949219 110.867188 L 255.042969 111.433594 L 252.910156 110.222656 L 248.855469 107.191406 L 242.242188 102.144531 L 239.042969 99.921875 L 235.414062 97.296875 L 230.507812 95.078125 L 226.667969 93.261719 L 222.828125 91.242188 L 217.800781 89.460938 L 212.765625 87.640625 L 206.195312 85.597656 L 202.355469 84.589844 Z M 205.539062 70.03125 "/>
<path style=" stroke:none;fill-rule:nonzero;fill:rgb(39.99939%,39.99939%,39.99939%);fill-opacity:0.3;" d="M 184.003906 66.207031 L 192.957031 67.414062 L 201.6875 69.265625 L 198.085938 88.074219 L 202.773438 88.070312 L 211.53125 89.839844 L 221.980469 94.074219 L 231.152344 98.109375 L 236.699219 101.746094 L 242.671875 105.984375 L 247.367188 109.824219 L 252.0625 113.660156 L 255.675781 117.136719 L 264.40625 106.613281 L 277.421875 115.902344 L 278.273438 117.921875 L 277.851562 120.957031 L 276.574219 123.386719 L 263.550781 138.453125 L 261.839844 139.636719 L 259.296875 140.128906 L 257.066406 139.789062 L 255.09375 139.003906 L 248.660156 134.535156 L 231.164062 121.203125 L 218.792969 113.128906 L 213.246094 110.101562 L 207.273438 108.085938 L 195.332031 105.0625 L 184.457031 103.050781 L 176.9375 101.632812 Z M 184.003906 66.207031 "/>
<path style=" stroke:none;fill-rule:nonzero;fill:rgb(39.99939%,39.99939%,39.99939%);fill-opacity:0.3;" d="M 119.339844 54.359375 L 112.683594 87.015625 L 96.386719 83.644531 L 95.660156 83.449219 L 95.140625 83.058594 L 94.726562 82.371094 L 101.425781 53.394531 L 102.460938 52.414062 L 104.425781 51.429688 L 106.546875 51.445312 Z M 119.339844 54.359375 "/>
<path style=" stroke:none;fill-rule:nonzero;fill:rgb(39.99939%,39.99939%,39.99939%);fill-opacity:0.3;" d="M 180.03125 74.394531 L 177.011719 90.132812 L 173.820312 89.734375 L 174.347656 87.214844 L 171.578125 86.765625 L 171.925781 85.152344 L 174.640625 85.621094 L 175.859375 78.925781 L 173.355469 78.421875 L 173.675781 76.945312 L 176.144531 77.351562 L 176.78125 73.859375 Z M 180.03125 74.394531 "/>
<path style=" stroke:none;fill-rule:nonzero;fill:rgb(39.99939%,39.99939%,39.99939%);fill-opacity:0.3;" d="M 174.785156 70.199219 L 172.019531 69.652344 L 171.480469 71.945312 L 169.542969 71.5625 L 170.082031 69.269531 L 164.132812 68.09375 L 163.59375 70.382812 L 161.65625 70 L 162.195312 67.707031 L 156.125 66.507812 L 155.585938 68.796875 L 153.644531 68.414062 L 154.183594 66.125 L 148.3125 64.960938 L 147.773438 67.253906 L 145.835938 66.867188 L 146.375 64.578125 L 139.800781 63.277344 L 139.261719 65.566406 L 137.324219 65.183594 L 137.863281 62.890625 L 132.445312 61.820312 L 131.90625 64.113281 L 129.96875 63.726562 L 130.507812 61.4375 L 127.226562 60.675781 L 127.953125 57.460938 L 175.617188 66.949219 Z M 174.785156 70.199219 "/>
<path style=" stroke:none;fill-rule:nonzero;fill:rgb(39.99939%,39.99939%,39.99939%);fill-opacity:0.3;" d="M 164.265625 92.628906 L 163.652344 95.921875 L 115.988281 86.433594 L 116.683594 83.210938 L 120.007812 83.765625 L 120.484375 81.464844 L 122.421875 81.851562 L 121.945312 84.15625 L 127.363281 85.238281 L 127.835938 82.933594 L 129.773438 83.324219 L 129.300781 85.628906 L 135.867188 86.941406 L 136.34375 84.636719 L 138.28125 85.027344 L 137.804688 87.332031 L 143.675781 88.503906 L 144.152344 86.199219 L 146.089844 86.589844 L 145.613281 88.894531 L 151.679688 90.109375 L 152.15625 87.804688 L 154.09375 88.191406 L 153.617188 90.496094 L 159.5625 91.6875 L 160.039062 89.382812 L 161.976562 89.769531 L 161.503906 92.074219 Z M 164.265625 92.628906 "/>
<path style=" stroke:none;fill-rule:nonzero;fill:rgb(39.99939%,39.99939%,39.99939%);fill-opacity:0.3;" d="M 94.222656 152.09375 L 87.472656 184.414062 L 73.828125 181.847656 L 74.632812 178 L 77.59375 163.824219 L 80.578125 149.527344 Z M 94.222656 152.09375 "/>
<g clip-path="url(#clip1)" clip-rule="nonzero">
<path style=" stroke:none;fill-rule:nonzero;fill:rgb(39.99939%,39.99939%,39.99939%);fill-opacity:0.3;" d="M -12.546875 307.894531 L 5.25 309.625 L -0.53125 365.359375 L -18.484375 363.746094 Z M -12.546875 307.894531 "/>
</g>
<g clip-path="url(#clip2)" clip-rule="nonzero">
<path style=" stroke:none;fill-rule:nonzero;fill:rgb(39.99939%,39.99939%,39.99939%);fill-opacity:0.3;" d="M 23.714844 311.421875 L 16.769531 366.910156 L 2.054688 365.589844 L 7.976562 309.890625 Z M 23.714844 311.421875 "/>
</g>
<path style=" stroke:none;fill-rule:nonzero;fill:rgb(39.99939%,39.99939%,39.99939%);fill-opacity:0.3;" d="M -15.136719 23.03125 L 56.824219 12.132812 L 58.777344 24.523438 L -13.246094 34.960938 Z M -15.136719 23.03125 "/>
<path style=" stroke:none;fill-rule:nonzero;fill:rgb(39.99939%,39.99939%,39.99939%);fill-opacity:0.3;" d="M 54.449219 -3.683594 L 56.335938 8.25 L -16.144531 19.53125 L -17.875 6.742188 Z M 54.449219 -3.683594 "/>
<path style=" stroke:none;fill-rule:nonzero;fill:rgb(39.99939%,39.99939%,39.99939%);fill-opacity:0.3;" d="M 63.507812 27.226562 L 77.796875 25.007812 L 83.222656 54.984375 L 68.832031 56.808594 Z M 63.507812 27.226562 "/>
<path style=" stroke:none;fill-rule:nonzero;fill:rgb(39.99939%,39.99939%,39.99939%);fill-opacity:0.3;" d="M -15.746094 246.722656 L -18.230469 243.417969 L -21.851562 215.390625 L -4.503906 212.878906 L 0.0585938 244.539062 Z M -15.746094 246.722656 "/>
<path style=" stroke:none;fill-rule:nonzero;fill:rgb(39.99939%,39.99939%,39.99939%);fill-opacity:0.3;" d="M 94.996094 -2.453125 L 89.527344 23.898438 L 79.425781 24.761719 L 75.039062 0.535156 Z M 94.996094 -2.453125 "/>
<path style=" stroke:none;fill-rule:nonzero;fill:rgb(39.99939%,39.99939%,39.99939%);fill-opacity:0.3;" d="M 88.960938 26.625 L 85.855469 41.597656 L 82.808594 43.460938 L 80.003906 27.960938 Z M 88.960938 26.625 "/>
<path style=" stroke:none;fill-rule:nonzero;fill:rgb(39.99939%,39.99939%,39.99939%);fill-opacity:0.3;" d="M 62.347656 145.894531 L 64.082031 164.964844 L 55.90625 201.277344 L 53.675781 200.871094 L 46.132812 148.285156 Z M 62.347656 145.894531 "/>
<path style=" stroke:none;fill-rule:nonzero;fill:rgb(39.99939%,39.99939%,39.99939%);fill-opacity:0.3;" d="M 55.121094 106.5625 L 61.539062 142.964844 L 45.632812 145.453125 L 38.539062 109.371094 Z M 55.121094 106.5625 "/>
<path style=" stroke:none;fill-rule:nonzero;fill:rgb(39.99939%,39.99939%,39.99939%);fill-opacity:0.3;" d="M 26.613281 151.140625 L 44.261719 148.761719 L 52.277344 201.425781 L 36.15625 204.449219 Z M 26.613281 151.140625 "/>
<path style=" stroke:none;fill-rule:nonzero;fill:rgb(39.99939%,39.99939%,39.99939%);fill-opacity:0.3;" d="M -3.191406 212.125 L 14.058594 209.582031 L 24.058594 263.855469 L 5.390625 266.371094 Z M -3.191406 212.125 "/>
<path style=" stroke:none;fill-rule:nonzero;fill:rgb(39.99939%,39.99939%,39.99939%);fill-opacity:0.3;" d="M 17.035156 209.289062 L 55.535156 202.753906 L 55.140625 212.140625 L 18.511719 217.933594 Z M 17.035156 209.289062 "/>
<path style=" stroke:none;fill-rule:nonzero;fill:rgb(39.99939%,39.99939%,39.99939%);fill-opacity:0.3;" d="M 7.757812 153.800781 L 25.4375 151.296875 L 34.292969 204.664062 L 17.742188 206.65625 Z M 7.757812 153.800781 "/>
<path style=" stroke:none;fill-rule:nonzero;fill:rgb(39.99939%,39.99939%,39.99939%);fill-opacity:0.3;" d="M -12.945312 157.414062 L 4.816406 154.710938 L 14.277344 207.839844 L -3.574219 210.128906 Z M -12.945312 157.414062 "/>
<path style=" stroke:none;fill-rule:nonzero;fill:rgb(39.99939%,39.99939%,39.99939%);fill-opacity:0.3;" d="M -18.496094 118.34375 L -1.632812 116.039062 L 3.941406 150.496094 L -12.746094 153.527344 Z M -18.496094 118.34375 "/>
<path style=" stroke:none;fill-rule:nonzero;fill:rgb(39.99939%,39.99939%,39.99939%);fill-opacity:0.3;" d="M 1.570312 114.941406 L 18.132812 112.648438 L 24.230469 148.089844 L 6.9375 150.535156 Z M 1.570312 114.941406 "/>
<path style=" stroke:none;fill-rule:nonzero;fill:rgb(39.99939%,39.99939%,39.99939%);fill-opacity:0.3;" d="M 20.144531 111.785156 L 36.703125 109.273438 L 43.507812 145.652344 L 26.378906 147.914062 Z M 20.144531 111.785156 "/>
<path style=" stroke:none;fill-rule:nonzero;fill:rgb(39.99939%,39.99939%,39.99939%);fill-opacity:0.3;" d="M 57.46875 -6.941406 L 71.679688 -8.773438 L 77.332031 22.433594 L 63.046875 24.316406 Z M 57.46875 -6.941406 "/>
<path style=" stroke:none;fill-rule:nonzero;fill:rgb(39.99939%,39.99939%,39.99939%);fill-opacity:0.3;" d="M 69.265625 87.78125 L 70.492188 98.984375 L 0.277344 111.128906 L -1.574219 98.992188 Z M 69.265625 87.78125 "/>
<path style=" stroke:none;fill-rule:nonzero;fill:rgb(39.99939%,39.99939%,39.99939%);fill-opacity:0.3;" d="M -4.535156 83.441406 L 65.980469 71.839844 L 67.546875 84.242188 L -2.175781 96.628906 Z M -4.535156 83.441406 "/>
<path style=" stroke:none;fill-rule:nonzero;fill:rgb(39.99939%,39.99939%,39.99939%);fill-opacity:0.3;" d="M -7.15625 69.304688 L 63.84375 58.042969 L 65.558594 70.203125 L -4.949219 81.894531 Z M -7.15625 69.304688 "/>
<path style=" stroke:none;fill-rule:nonzero;fill:rgb(39.99939%,39.99939%,39.99939%);fill-opacity:0.3;" d="M -9.496094 54.09375 L 62.195312 42.886719 L 63.980469 55.425781 L -7.671875 66.53125 Z M -9.496094 54.09375 "/>
<path style=" stroke:none;fill-rule:nonzero;fill:rgb(39.99939%,39.99939%,39.99939%);fill-opacity:0.3;" d="M -12.167969 38.496094 L 59.136719 27.082031 L 61.0625 39.574219 L -10.730469 50.082031 Z M -12.167969 38.496094 "/>
<path style=" stroke:none;fill-rule:nonzero;fill:rgb(39.99939%,39.99939%,39.99939%);fill-opacity:0.3;" d="M 85.128906 57.347656 L 88.628906 81.558594 L 85.113281 98.507812 L 75.792969 99.859375 L 70.210938 59.671875 Z M 85.128906 57.347656 "/>
<path style=" stroke:none;fill-rule:nonzero;fill:rgb(39.99939%,39.99939%,39.99939%);fill-opacity:0.3;" d="M 54.816406 213.617188 L 46.140625 261.976562 L 26.089844 262.527344 L 18.550781 219.8125 Z M 54.816406 213.617188 "/>
<g clip-path="url(#clip3)" clip-rule="nonzero">
<path style=" stroke:none;fill-rule:nonzero;fill:rgb(39.99939%,39.99939%,39.99939%);fill-opacity:0.3;" d="M 147.886719 343.007812 L 147.5625 344.28125 L 153.929688 345.867188 L 149.132812 369.78125 L 155.890625 371.597656 L 164.507812 373.347656 L 174.050781 372.835938 L 180.277344 371.699219 L 182.664062 372.074219 L 184.390625 373.328125 L 186.871094 384.019531 L 186.527344 386.457031 L 185.765625 388.300781 L 184.589844 389.945312 L 181.816406 391.132812 L 177.652344 392.257812 L 172.28125 393.066406 L 167.355469 393.003906 L 162.425781 392.613281 L 158.054688 392.027344 L 153.820312 391.238281 L 149.792969 390.257812 L 144.726562 389.207031 L 139.9375 388.292969 L 134.523438 387.113281 L 129.316406 385.800781 L 142.996094 325.453125 L 193.144531 337.53125 L 208.535156 374.5625 L 208.539062 376.996094 L 207.917969 378.855469 L 206.925781 380.253906 L 196.335938 385.632812 L 194.597656 385.371094 L 193.070312 384.648438 L 191.820312 383.464844 L 177.871094 351.714844 L 176.941406 350.332031 L 173.359375 348.828125 L 161.164062 345.445312 L 148.132812 342.039062 Z M 147.886719 343.007812 "/>
</g>
<path style=" stroke:none;fill-rule:nonzero;fill:rgb(39.99939%,39.99939%,39.99939%);fill-opacity:0.3;" d="M 59.074219 319.152344 L 45.066406 316.382812 L 50.273438 292.628906 L 64.28125 295.398438 Z M 59.074219 319.152344 "/>
<path style=" stroke:none;fill-rule:nonzero;fill:rgb(39.99939%,39.99939%,39.99939%);fill-opacity:0.3;" d="M 90.835938 325.429688 L 77.339844 322.761719 L 82.546875 299.007812 L 96.042969 301.675781 Z M 90.835938 325.429688 "/>
<path style=" stroke:none;fill-rule:nonzero;fill:rgb(39.99939%,39.99939%,39.99939%);fill-opacity:0.3;" d="M 121.820312 331.550781 L 109.347656 329.085938 L 114.554688 305.335938 L 127.027344 307.800781 Z M 121.820312 331.550781 "/>
<path style=" stroke:none;fill-rule:nonzero;fill:rgb(39.99939%,39.99939%,39.99939%);fill-opacity:0.3;" d="M 137.558594 334.660156 L 124.507812 332.082031 L 129.71875 308.332031 L 142.765625 310.910156 Z M 137.558594 334.660156 "/>
<path style=" stroke:none;fill-rule:nonzero;fill:rgb(39.99939%,39.99939%,39.99939%);fill-opacity:0.3;" d="M 74.648438 322.230469 L 61.765625 319.683594 L 66.972656 295.929688 L 79.855469 298.476562 Z M 74.648438 322.230469 "/>
<path style=" stroke:none;fill-rule:nonzero;fill:rgb(39.99939%,39.99939%,39.99939%);fill-opacity:0.3;" d="M 106.65625 328.554688 L 93.527344 325.960938 L 98.734375 302.207031 L 111.867188 304.804688 Z M 106.65625 328.554688 "/>
<path style=" stroke:none;fill-rule:nonzero;fill:rgb(39.99939%,39.99939%,39.99939%);fill-opacity:0.3;" d="M 143.75 308.003906 L 142.972656 307.878906 L 143.757812 307.964844 Z M 143.75 308.003906 "/>
<g clip-path="url(#clip4)" clip-rule="nonzero">
<path style=" stroke:none;fill-rule:nonzero;fill:rgb(39.99939%,39.99939%,39.99939%);fill-opacity:0.3;" d="M 127.230469 385.203125 L 114.183594 382.625 L 119.390625 358.871094 L 132.4375 361.449219 Z M 127.230469 385.203125 "/>
</g>
<g clip-path="url(#clip5)" clip-rule="nonzero">
<path style=" stroke:none;fill-rule:nonzero;fill:rgb(39.99939%,39.99939%,39.99939%);fill-opacity:0.3;" d="M 64.320312 372.769531 L 51.4375 370.222656 L 56.644531 346.46875 L 69.527344 349.015625 Z M 64.320312 372.769531 "/>
</g>
<g clip-path="url(#clip6)" clip-rule="nonzero">
<path style=" stroke:none;fill-rule:nonzero;fill:rgb(39.99939%,39.99939%,39.99939%);fill-opacity:0.3;" d="M 96.332031 379.09375 L 83.199219 376.5 L 88.40625 352.746094 L 101.539062 355.34375 Z M 96.332031 379.09375 "/>
</g>
<g clip-path="url(#clip7)" clip-rule="nonzero">
<path style=" stroke:none;fill-rule:nonzero;fill:rgb(39.99939%,39.99939%,39.99939%);fill-opacity:0.3;" d="M 48.746094 369.691406 L 34.738281 366.921875 L 39.945312 343.171875 L 53.953125 345.9375 Z M 48.746094 369.691406 "/>
</g>
<g clip-path="url(#clip8)" clip-rule="nonzero">
<path style=" stroke:none;fill-rule:nonzero;fill:rgb(39.99939%,39.99939%,39.99939%);fill-opacity:0.3;" d="M 80.507812 375.96875 L 67.011719 373.300781 L 72.21875 349.546875 L 85.714844 352.214844 Z M 80.507812 375.96875 "/>
</g>
<g clip-path="url(#clip9)" clip-rule="nonzero">
<path style=" stroke:none;fill-rule:nonzero;fill:rgb(39.99939%,39.99939%,39.99939%);fill-opacity:0.3;" d="M 111.492188 382.089844 L 99.019531 379.625 L 104.230469 355.875 L 116.699219 358.339844 Z M 111.492188 382.089844 "/>
</g>
<g clip-path="url(#clip10)" clip-rule="nonzero">
<path style=" stroke:none;fill-rule:nonzero;fill:rgb(39.99939%,39.99939%,39.99939%);fill-opacity:0.3;" d="M 245.488281 332.078125 L 257.398438 332.847656 L 255.34375 361.480469 L 243.433594 360.710938 Z M 245.488281 332.078125 "/>
</g>
<g clip-path="url(#clip11)" clip-rule="nonzero">
<path style=" stroke:none;fill-rule:nonzero;fill:rgb(39.99939%,39.99939%,39.99939%);fill-opacity:0.3;" d="M 276.921875 334.109375 L 290.21875 334.972656 L 288.167969 363.601562 L 274.886719 362.503906 Z M 276.921875 334.109375 "/>
</g>
<g clip-path="url(#clip12)" clip-rule="nonzero">
<path style=" stroke:none;fill-rule:nonzero;fill:rgb(39.99939%,39.99939%,39.99939%);fill-opacity:0.3;" d="M 290.824219 363.785156 L 296.1875 293.425781 L 301.949219 293.871094 L 301.859375 295.699219 L 308.28125 296.195312 L 308.109375 298.277344 L 311.5 298.542969 L 306.464844 364.628906 Z M 290.824219 363.785156 "/>
</g>
<path style=" stroke:none;fill-rule:nonzero;fill:rgb(39.99939%,39.99939%,39.99939%);fill-opacity:0.3;" d="M 308.128906 285.011719 L 319.558594 285.269531 L 319.582031 289.9375 L 308.09375 289.703125 Z M 308.128906 285.011719 "/>
<path style=" stroke:none;fill-rule:nonzero;fill:rgb(39.99939%,39.99939%,39.99939%);fill-opacity:0.3;" d="M 209.046875 277.191406 L 230.25 279.035156 L 228.140625 303.621094 L 213.164062 304.558594 L 208.59375 303.648438 L 205.703125 300.460938 Z M 209.046875 277.191406 "/>
<path style=" stroke:none;fill-rule:nonzero;fill:rgb(39.99939%,39.99939%,39.99939%);fill-opacity:0.3;" d="M 233.996094 279.210938 L 245.90625 279.980469 L 244.121094 304.878906 L 232.210938 304.109375 Z M 233.996094 279.210938 "/>
<path style=" stroke:none;fill-rule:nonzero;fill:rgb(39.99939%,39.99939%,39.99939%);fill-opacity:0.3;" d="M 248.648438 280.15625 L 262.691406 281.066406 L 260.902344 305.960938 L 246.863281 305.054688 Z M 248.648438 280.15625 "/>
<path style=" stroke:none;fill-rule:nonzero;fill:rgb(39.99939%,39.99939%,39.99939%);fill-opacity:0.3;" d="M 265.429688 281.242188 L 278.730469 282.101562 L 276.945312 307 L 263.644531 306.140625 Z M 265.429688 281.242188 "/>
<path style=" stroke:none;fill-rule:nonzero;fill:rgb(39.99939%,39.99939%,39.99939%);fill-opacity:0.3;" d="M 281.144531 282.257812 L 293.464844 283.054688 L 291.679688 307.953125 L 279.683594 307.175781 Z M 281.144531 282.257812 "/>
<path style=" stroke:none;fill-rule:nonzero;fill:rgb(39.99939%,39.99939%,39.99939%);fill-opacity:0.3;" d="M 287.601562 240.296875 L 292.558594 240.464844 L 290.558594 267.417969 L 285.378906 267.210938 Z M 287.601562 240.296875 "/>
<path style=" stroke:none;fill-rule:nonzero;fill:rgb(39.99939%,39.99939%,39.99939%);fill-opacity:0.3;" d="M 236.382812 183.828125 L 256.269531 159.632812 L 260.675781 163.089844 L 240.886719 187.242188 Z M 236.382812 183.828125 "/>
<path style=" stroke:none;fill-rule:nonzero;fill:rgb(39.99939%,39.99939%,39.99939%);fill-opacity:0.3;" d="M 257.707031 169.601562 L 273.703125 169.757812 L 292.804688 183.875 L 292.808594 190.082031 L 257 188.21875 Z M 257.707031 169.601562 "/>
<g clip-path="url(#clip13)" clip-rule="nonzero">
<path style=" stroke:none;fill-rule:nonzero;fill:rgb(39.99939%,39.99939%,39.99939%);fill-opacity:0.3;" d="M 272.132812 362.472656 L 258.085938 361.65625 L 260.140625 333.027344 L 274.179688 333.933594 Z M 272.132812 362.472656 "/>
</g>
<path style=" stroke:none;fill-rule:nonzero;fill:rgb(39.99939%,39.99939%,39.99939%);fill-opacity:0.3;" d="M 311.074219 216.457031 L 323.257812 217.253906 L 321.5 241.382812 L 309.175781 240.109375 Z M 311.074219 216.457031 "/>
<path style=" stroke:none;fill-rule:nonzero;fill:rgb(39.99939%,39.99939%,39.99939%);fill-opacity:0.3;" d="M 311.914062 184.964844 L 324.117188 185.351562 L 323.269531 209.523438 L 310.902344 208.667969 Z M 311.914062 184.964844 "/>
<g clip-path="url(#clip14)" clip-rule="nonzero">
<path style=" stroke:none;fill-rule:nonzero;fill:rgb(39.99939%,39.99939%,39.99939%);fill-opacity:0.3;" d="M 358.808594 219.414062 L 370.996094 220.214844 L 369.355469 244.210938 L 356.984375 243.339844 Z M 358.808594 219.414062 "/>
</g>
<path style=" stroke:none;fill-rule:nonzero;fill:rgb(39.99939%,39.99939%,39.99939%);fill-opacity:0.3;" d="M 342.859375 218.429688 L 355.042969 219.230469 L 353.289062 243.359375 L 341.03125 242.355469 Z M 342.859375 218.429688 "/>
<path style=" stroke:none;fill-rule:nonzero;fill:rgb(39.99939%,39.99939%,39.99939%);fill-opacity:0.3;" d="M 326.835938 217.4375 L 339.019531 218.238281 L 337.265625 242.363281 L 324.9375 241.09375 Z M 326.835938 217.4375 "/>
<g clip-path="url(#clip15)" clip-rule="nonzero">
<path style=" stroke:none;fill-rule:nonzero;fill:rgb(39.99939%,39.99939%,39.99939%);fill-opacity:0.3;" d="M 360.585938 187.652344 L 372.785156 188.257812 L 371.457031 212.410156 L 359.183594 211.601562 Z M 360.585938 187.652344 "/>
</g>
<path style=" stroke:none;fill-rule:nonzero;fill:rgb(39.99939%,39.99939%,39.99939%);fill-opacity:0.3;" d="M 344.421875 186.707031 L 356.613281 187.351562 L 355.207031 211.496094 L 342.9375 210.65625 Z M 344.421875 186.707031 "/>
<path style=" stroke:none;fill-rule:nonzero;fill:rgb(39.99939%,39.99939%,39.99939%);fill-opacity:0.3;" d="M 327.683594 185.917969 L 339.890625 186.257812 L 339.144531 210.433594 L 326.773438 209.625 Z M 327.683594 185.917969 "/>
<path style=" stroke:none;fill-rule:nonzero;fill:rgb(39.99939%,39.99939%,39.99939%);fill-opacity:0.3;" d="M 262.648438 157.957031 L 264.730469 155.519531 L 266.265625 156.714844 L 267.832031 154.851562 L 269.171875 155.820312 L 267.578125 157.765625 L 272.820312 161.800781 L 274.542969 159.757812 L 275.917969 160.757812 L 274.140625 162.824219 L 276.042969 164.222656 L 278.730469 166.269531 L 280.308594 164.425781 L 281.574219 165.339844 L 280.03125 167.277344 L 285.578125 171.570312 L 287.300781 169.527344 L 288.679688 170.527344 L 286.902344 172.59375 L 289.460938 174.5625 L 287.414062 176.878906 L 273.90625 166.574219 Z M 262.648438 157.957031 "/>
<path style=" stroke:none;fill-rule:nonzero;fill:rgb(39.99939%,39.99939%,39.99939%);fill-opacity:0.3;" d="M 282.949219 218.507812 L 282.75 221.648438 L 279.953125 221.480469 L 279.832031 223.863281 L 278.152344 223.824219 L 278.246094 221.359375 L 271.503906 220.996094 L 271.367188 223.613281 L 269.632812 223.566406 L 269.800781 220.902344 L 267.398438 220.824219 L 263.960938 220.65625 L 263.8125 223.03125 L 262.222656 222.992188 L 262.28125 220.5625 L 255.136719 220.164062 L 254.996094 222.777344 L 253.265625 222.730469 L 253.433594 220.066406 L 249.757812 219.859375 L 250.027344 216.824219 L 267.683594 217.730469 Z M 282.949219 218.507812 "/>
<path style=" stroke:none;fill-rule:nonzero;fill:rgb(39.99939%,39.99939%,39.99939%);fill-opacity:0.3;" d="M 306.230469 232.109375 L 306.105469 235.453125 L 297.753906 234.90625 L 285.695312 234.113281 L 284.351562 234.023438 L 257.519531 232.308594 L 257.734375 229.054688 L 261.109375 229.167969 L 261.242188 226.824219 L 263.21875 226.953125 L 263.082031 229.296875 L 268.605469 229.65625 L 268.738281 227.3125 L 270.714844 227.441406 L 270.578125 229.785156 L 277.277344 230.222656 L 277.410156 227.878906 L 279.386719 228.003906 L 279.253906 230.351562 L 285.238281 230.742188 L 285.371094 228.394531 L 287.347656 228.523438 L 287.214844 230.871094 L 293.398438 231.273438 L 293.535156 228.929688 L 295.507812 229.054688 L 295.375 231.402344 L 301.4375 231.796875 L 301.570312 229.453125 L 303.546875 229.582031 L 303.414062 231.925781 Z M 306.230469 232.109375 "/>
<g clip-path="url(#clip16)" clip-rule="nonzero">
<path style=" stroke:none;fill-rule:nonzero;fill:rgb(39.99939%,39.99939%,39.99939%);fill-opacity:0.3;" d="M 373.253906 295.953125 L 370.433594 295.773438 L 370.234375 298.113281 L 368.261719 297.988281 L 368.460938 295.648438 L 362.394531 295.265625 L 362.195312 297.609375 L 360.222656 297.484375 L 360.417969 295.144531 L 354.234375 294.753906 L 354.035156 297.09375 L 352.058594 296.96875 L 352.257812 294.628906 L 346.269531 294.25 L 346.074219 296.589844 L 344.097656 296.46875 L 344.296875 294.125 L 337.597656 293.703125 L 337.398438 296.042969 L 335.421875 295.921875 L 335.621094 293.578125 L 330.097656 293.230469 L 329.902344 295.574219 L 327.925781 295.449219 L 328.125 293.105469 L 324.761719 292.789062 L 325.011719 289.507812 L 373.601562 292.621094 Z M 373.253906 295.953125 "/>
</g>
<path style=" stroke:none;fill-rule:nonzero;fill:rgb(39.99939%,39.99939%,39.99939%);fill-opacity:0.3;" d="M 331.175781 274.488281 L 315.914062 273.699219 L 298.253906 272.800781 L 298.332031 269.753906 L 302.011719 269.925781 L 302.144531 267.257812 L 303.871094 267.390625 L 303.714844 270.003906 L 310.863281 270.332031 L 311.082031 267.914062 L 312.664062 268.035156 L 312.542969 270.410156 L 315.980469 270.59375 L 318.378906 270.765625 L 318.511719 268.097656 L 320.238281 268.230469 L 320.082031 270.84375 L 326.824219 271.171875 L 327.011719 268.710938 L 328.6875 268.84375 L 328.539062 271.226562 L 331.332031 271.34375 Z M 331.175781 274.488281 "/>
<g clip-path="url(#clip17)" clip-rule="nonzero">
<path style=" stroke:none;fill-rule:nonzero;fill:rgb(39.99939%,39.99939%,39.99939%);fill-opacity:0.3;" d="M 384.800781 274.613281 L 384.675781 277.957031 L 336.085938 274.84375 L 336.300781 271.5625 L 339.675781 271.671875 L 339.8125 269.328125 L 341.785156 269.457031 L 341.652344 271.800781 L 347.171875 272.160156 L 347.308594 269.816406 L 349.285156 269.945312 L 349.148438 272.289062 L 355.847656 272.726562 L 355.980469 270.382812 L 357.957031 270.511719 L 357.824219 272.855469 L 363.808594 273.246094 L 363.941406 270.902344 L 365.917969 271.027344 L 365.78125 273.375 L 371.96875 273.777344 L 372.101562 271.433594 L 374.078125 271.5625 L 373.945312 273.90625 L 380.007812 274.300781 L 380.140625 271.957031 L 382.117188 272.085938 L 381.980469 274.429688 Z M 384.800781 274.613281 "/>
</g>
<path style=" stroke:none;fill-rule:nonzero;fill:rgb(39.99939%,39.99939%,39.99939%);fill-opacity:0.3;" d="M 302.425781 183.199219 L 307.828125 183.410156 L 305.386719 214.164062 L 299.980469 213.742188 Z M 302.425781 183.199219 "/>
<g clip-path="url(#clip18)" clip-rule="nonzero">
<path style=" stroke:none;fill-rule:nonzero;fill:rgb(39.99939%,39.99939%,39.99939%);fill-opacity:0.3;" d="M 356.277344 177.269531 L 389.523438 179.492188 L 389.363281 184.050781 L 356.070312 181.84375 Z M 356.277344 177.269531 "/>
</g>
<path style=" stroke:none;fill-rule:nonzero;fill:rgb(39.99939%,39.99939%,39.99939%);fill-opacity:0.3;" d="M 347.503906 181.269531 L 345.949219 182.34375 L 326.101562 182.144531 L 318.691406 180.90625 L 310.539062 177.808594 L 303.84375 174.417969 L 298.464844 171.023438 L 293.324219 168.195312 L 287.945312 164.574219 L 283.28125 160.953125 L 279.335938 157.78125 L 273.117188 152.238281 L 270.484375 149.292969 L 270.125 147.707031 L 270.539062 146.269531 L 271.042969 145.195312 L 287.515625 125.46875 L 288.636719 124.554688 L 289.832031 124.441406 L 302.863281 133.492188 L 303.140625 134.652344 L 303.144531 136.085938 L 296.53125 146.960938 L 297.589844 147.734375 L 298.640625 148.5 L 299.414062 147.320312 L 301.925781 149.585938 L 304.558594 151.621094 L 307.1875 154 L 310.175781 156.261719 L 314.003906 158.753906 L 317.828125 160.335938 L 321.652344 161.238281 L 324.878906 161.800781 L 327.984375 162.25 L 330.613281 162.589844 L 334.4375 162.925781 L 334.433594 161.539062 L 334.433594 160.207031 L 330.574219 160.011719 L 331.917969 148.78125 L 349.117188 149.539062 L 348.488281 180.132812 Z M 347.503906 181.269531 "/>
<path style=" stroke:none;fill-rule:nonzero;fill:rgb(39.99939%,39.99939%,39.99939%);fill-opacity:0.3;" d="M 193.609375 307.074219 L 192.261719 313.210938 L 191.039062 324.34375 L 191.664062 332.546875 L 145.125 321.503906 L 148.558594 308.496094 L 149.222656 308.570312 Z M 193.609375 307.074219 "/>
<g clip-path="url(#clip19)" clip-rule="nonzero">
<path style=" stroke:none;fill-rule:nonzero;fill:rgb(39.99939%,39.99939%,39.99939%);fill-opacity:0.3;" d="M 201.953125 320.234375 L 217.285156 320.976562 L 217.296875 330.050781 L 241.996094 331.921875 L 239.578125 364.167969 L 238.027344 366.371094 L 232.542969 368.78125 L 226.074219 371.453125 L 221.429688 373.460938 L 219.460938 373.195312 L 217.207031 371.597656 L 215.914062 369.878906 L 212.671875 364.652344 L 206 350.046875 L 202.757812 342.476562 L 200.421875 333.179688 L 201.96875 333.179688 Z M 201.953125 320.234375 "/>
</g>
<path style=" stroke:none;fill-rule:nonzero;fill:rgb(39.99939%,39.99939%,39.99939%);fill-opacity:0.3;" d="M 305.953125 136.285156 L 310.449219 139.488281 L 314.941406 142.304688 L 319.960938 144.679688 L 325.210938 146.609375 L 329.414062 147.988281 L 327.855469 158.066406 L 326.976562 159.160156 L 325.386719 159.628906 L 323.171875 159.507812 L 318.722656 158.292969 L 315.328125 156.4375 L 311.480469 154.152344 L 307.929688 151.222656 L 304.308594 148.4375 L 300.835938 144.867188 Z M 305.953125 136.285156 "/>
<path style=" stroke:none;fill-rule:nonzero;fill:rgb(39.99939%,39.99939%,39.99939%);fill-opacity:0.3;" d="M 225.769531 229.851562 L 234.585938 230.445312 L 237.597656 230.652344 L 241.746094 230.933594 L 244.945312 231.148438 L 257.515625 232.339844 L 284.347656 234.058594 L 280.734375 270.804688 L 210.675781 268.273438 L 219.28125 229.410156 Z M 225.769531 229.851562 "/>
<path style=" stroke:none;fill-rule:nonzero;fill:rgb(39.99939%,39.99939%,39.99939%);fill-opacity:0.3;" d="M 233.457031 183.574219 L 238.886719 187.457031 L 243.242188 187.671875 L 241.996094 210.933594 L 248.730469 211.246094 L 247.941406 223.769531 L 247.914062 228.820312 L 219.464844 227.285156 L 219.832031 218.957031 L 223.371094 205.488281 L 228.8125 189.566406 Z M 233.457031 183.574219 "/>
<g clip-path="url(#clip20)" clip-rule="nonzero">
<path style=" stroke:none;fill-rule:nonzero;fill:rgb(39.99939%,39.99939%,39.99939%);fill-opacity:0.3;" d="M 364.96875 352.113281 L 364.988281 350.1875 L 361.09375 349.929688 L 362.859375 326.769531 L 363.609375 325.945312 L 364.671875 325.53125 L 379.503906 326.492188 L 380.175781 326.867188 L 380.375 327.5 L 377.417969 367.90625 L 376.863281 368.765625 L 376.15625 369.140625 L 375.09375 369.515625 L 312.707031 365.355469 L 311.453125 364.980469 L 310.386719 364.121094 L 309.796875 363.1875 L 314.1875 302.640625 L 314.9375 301.667969 L 316.148438 301.089844 L 317.546875 300.847656 L 379.507812 304.738281 L 380.542969 305.128906 L 381.371094 305.910156 L 382.09375 306.890625 L 380.933594 320.363281 L 380.46875 320.945312 L 379.792969 321.34375 L 378.917969 321.570312 L 333.886719 318.601562 L 327.40625 318.175781 L 327.199219 320.796875 L 327.019531 323.039062 L 330.90625 323.273438 L 329.097656 347.804688 L 328.332031 358.203125 L 330.582031 358.347656 L 332.996094 358.507812 L 333.507812 351.558594 L 364.949219 353.902344 Z M 364.96875 352.113281 "/>
</g>
<g clip-path="url(#clip21)" clip-rule="nonzero">
<path style=" stroke:none;fill-rule:nonzero;fill:rgb(39.99939%,39.99939%,39.99939%);fill-opacity:0.3;" d="M 347.574219 141.03125 L 369.742188 41.515625 L 394.757812 58.542969 L 396.03125 60.355469 L 396.035156 62.769531 L 390.101562 142.03125 L 390.105469 142.9375 L 388.191406 143.238281 Z M 347.574219 141.03125 "/>
</g>
<path style=" stroke:none;fill-rule:nonzero;fill:rgb(39.99939%,39.99939%,39.99939%);fill-opacity:0.3;" d="M 309.574219 35.339844 L 299.8125 33.464844 L 300.554688 30.296875 L 303.425781 30.828125 L 303.890625 28.726562 L 301.113281 28.109375 L 301.734375 25.296875 L 311.421875 27.234375 L 310.695312 30.03125 L 307.855469 29.53125 L 307.328125 31.925781 L 310.191406 32.511719 Z M 309.574219 35.339844 "/>
<path style=" stroke:none;fill-rule:nonzero;fill:rgb(39.99939%,39.99939%,39.99939%);fill-opacity:0.3;" d="M 295.816406 32.699219 L 286.050781 30.824219 L 286.796875 27.660156 L 289.667969 28.1875 L 290.132812 26.089844 L 287.355469 25.46875 L 287.976562 22.660156 L 297.664062 24.597656 L 296.9375 27.390625 L 294.097656 26.890625 L 293.570312 29.289062 L 296.433594 29.875 Z M 295.816406 32.699219 "/>
<path style=" stroke:none;fill-rule:nonzero;fill:rgb(39.99939%,39.99939%,39.99939%);fill-opacity:0.3;" d="M 307.441406 47.554688 L 297.679688 45.679688 L 298.421875 42.511719 L 301.292969 43.042969 L 301.757812 40.941406 L 298.984375 40.324219 L 299.601562 37.511719 L 309.289062 39.449219 L 308.5625 42.246094 L 305.722656 41.746094 L 305.195312 44.140625 L 308.058594 44.726562 Z M 307.441406 47.554688 "/>
<path style=" stroke:none;fill-rule:nonzero;fill:rgb(39.99939%,39.99939%,39.99939%);fill-opacity:0.3;" d="M 293.683594 44.914062 L 283.917969 43.039062 L 284.664062 39.875 L 287.535156 40.402344 L 288 38.300781 L 285.222656 37.683594 L 285.84375 34.871094 L 295.53125 36.808594 L 294.804688 39.605469 L 291.964844 39.105469 L 291.4375 41.503906 L 294.300781 42.089844 Z M 293.683594 44.914062 "/>
<path style=" stroke:none;fill-rule:nonzero;fill:rgb(39.99939%,39.99939%,39.99939%);fill-opacity:0.3;" d="M 304.734375 59.8125 L 294.96875 57.941406 L 295.714844 54.773438 L 298.585938 55.304688 L 299.050781 53.203125 L 296.273438 52.582031 L 296.894531 49.773438 L 306.582031 51.710938 L 305.855469 54.503906 L 303.015625 54.003906 L 302.488281 56.402344 L 305.351562 56.988281 Z M 304.734375 59.8125 "/>
<path style=" stroke:none;fill-rule:nonzero;fill:rgb(39.99939%,39.99939%,39.99939%);fill-opacity:0.3;" d="M 290.449219 57.175781 L 280.683594 55.300781 L 281.429688 52.136719 L 284.296875 52.664062 L 284.765625 50.5625 L 281.988281 49.945312 L 282.609375 47.132812 L 292.292969 49.070312 L 291.566406 51.867188 L 288.726562 51.367188 L 288.199219 53.761719 L 291.0625 54.351562 Z M 290.449219 57.175781 "/>
<path style=" stroke:none;fill-rule:nonzero;fill:rgb(39.99939%,39.99939%,39.99939%);fill-opacity:0.3;" d="M 301.617188 72.539062 L 291.851562 70.664062 L 292.597656 67.496094 L 295.46875 68.027344 L 295.933594 65.925781 L 293.15625 65.308594 L 293.777344 62.496094 L 303.460938 64.433594 L 302.734375 67.230469 L 299.898438 66.730469 L 299.371094 69.125 L 302.230469 69.710938 Z M 301.617188 72.539062 "/>
<path style=" stroke:none;fill-rule:nonzero;fill:rgb(39.99939%,39.99939%,39.99939%);fill-opacity:0.3;" d="M 287.859375 69.898438 L 278.09375 68.023438 L 278.839844 64.859375 L 281.710938 65.386719 L 282.175781 63.289062 L 279.398438 62.667969 L 280.019531 59.859375 L 289.703125 61.796875 L 288.976562 64.589844 L 286.140625 64.089844 L 285.609375 66.488281 L 288.472656 67.074219 Z M 287.859375 69.898438 "/>
<path style=" stroke:none;fill-rule:nonzero;fill:rgb(39.99939%,39.99939%,39.99939%);fill-opacity:0.3;" d="M 298.910156 84.800781 L 289.144531 82.925781 L 289.890625 79.757812 L 292.761719 80.289062 L 293.226562 78.1875 L 290.449219 77.570312 L 291.070312 74.757812 L 300.753906 76.695312 L 300.027344 79.492188 L 297.1875 78.992188 L 296.660156 81.386719 L 299.523438 81.972656 Z M 298.910156 84.800781 "/>
<path style=" stroke:none;fill-rule:nonzero;fill:rgb(39.99939%,39.99939%,39.99939%);fill-opacity:0.3;" d="M 284.621094 82.160156 L 274.859375 80.285156 L 275.601562 77.121094 L 278.472656 77.648438 L 278.9375 75.550781 L 276.160156 74.929688 L 276.78125 72.121094 L 286.46875 74.058594 L 285.742188 76.851562 L 282.902344 76.351562 L 282.375 78.75 L 285.238281 79.335938 Z M 284.621094 82.160156 "/>
<path style=" stroke:none;fill-rule:nonzero;fill:rgb(39.99939%,39.99939%,39.99939%);fill-opacity:0.3;" d="M 299.398438 104.726562 L 309.015625 106.636719 L 307.007812 115.769531 L 297.386719 113.859375 Z M 299.398438 104.726562 "/>
<path style=" stroke:none;fill-rule:nonzero;fill:rgb(39.99939%,39.99939%,39.99939%);fill-opacity:0.3;" d="M 305.847656 78.25 L 315.058594 80.007812 L 310.957031 99.996094 L 301.507812 98.246094 Z M 305.847656 78.25 "/>
<path style=" stroke:none;fill-rule:nonzero;fill:rgb(39.99939%,39.99939%,39.99939%);fill-opacity:0.3;" d="M 310.972656 53.78125 L 320.183594 55.535156 L 316.082031 75.527344 L 306.632812 73.773438 Z M 310.972656 53.78125 "/>
<path style=" stroke:none;fill-rule:nonzero;fill:rgb(39.99939%,39.99939%,39.99939%);fill-opacity:0.3;" d="M 316.359375 28.703125 L 325.570312 30.460938 L 321.46875 50.449219 L 312.019531 48.695312 Z M 316.359375 28.703125 "/>
<path style=" stroke:none;fill-rule:nonzero;fill:rgb(39.99939%,39.99939%,39.99939%);fill-opacity:0.3;" d="M 328.714844 122.21875 L 338.335938 124.128906 L 336.324219 133.261719 L 326.703125 131.351562 Z M 328.714844 122.21875 "/>
<path style=" stroke:none;fill-rule:nonzero;fill:rgb(39.99939%,39.99939%,39.99939%);fill-opacity:0.3;" d="M 335.222656 96.648438 L 344.433594 98.40625 L 340.332031 118.394531 L 330.882812 116.640625 Z M 335.222656 96.648438 "/>
<path style=" stroke:none;fill-rule:nonzero;fill:rgb(39.99939%,39.99939%,39.99939%);fill-opacity:0.3;" d="M 346.3125 46.796875 L 355.523438 48.554688 L 351.425781 68.542969 L 341.976562 66.792969 Z M 346.3125 46.796875 "/>
<path style=" stroke:none;fill-rule:nonzero;fill:rgb(39.99939%,39.99939%,39.99939%);fill-opacity:0.3;" d="M 340.609375 71.875 L 349.820312 73.628906 L 345.71875 93.621094 L 336.269531 91.867188 Z M 340.609375 71.875 "/>
<g clip-path="url(#clip22)" clip-rule="nonzero">
<path style=" stroke:none;fill-rule:nonzero;fill:rgb(39.99939%,39.99939%,39.99939%);fill-opacity:0.3;" d="M 358.765625 -62.566406 L 372.6875 -52.699219 L 390.828125 -35.144531 L 412.09375 -12.46875 L 428.867188 6.402344 L 433.613281 14.5625 L 440.546875 25.671875 L 447.769531 37.933594 L 453.753906 53.164062 L 446.792969 51.035156 L 439.324219 49.003906 L 431.136719 47.65625 L 422.949219 46.984375 L 416.09375 47.28125 L 410.058594 48.0625 L 407.5 48.746094 L 405.980469 48.871094 L 404.886719 48.554688 L 267.316406 -45.273438 Z M 358.765625 -62.566406 "/>
</g>
<path style=" stroke:none;fill-rule:nonzero;fill:rgb(39.99939%,39.99939%,39.99939%);fill-opacity:0.3;" d="M 189.257812 27.140625 L 198.121094 28.75 L 194.144531 48.496094 L 185.28125 46.882812 Z M 189.257812 27.140625 "/>
<path style=" stroke:none;fill-rule:nonzero;fill:rgb(39.99939%,39.99939%,39.99939%);fill-opacity:0.3;" d="M 133.648438 36.449219 L 123.882812 34.574219 L 124.628906 31.410156 L 127.496094 31.9375 L 127.964844 29.835938 L 125.1875 29.21875 L 125.808594 26.40625 L 135.492188 28.34375 L 134.765625 31.140625 L 131.925781 30.640625 L 131.398438 33.039062 L 134.261719 33.625 Z M 133.648438 36.449219 "/>
<path style=" stroke:none;fill-rule:nonzero;fill:rgb(39.99939%,39.99939%,39.99939%);fill-opacity:0.3;" d="M 119.359375 33.8125 L 109.59375 31.9375 L 110.339844 28.769531 L 113.210938 29.300781 L 113.675781 27.199219 L 110.898438 26.582031 L 111.519531 23.769531 L 121.207031 25.707031 L 120.480469 28.503906 L 117.640625 28.003906 L 117.113281 30.398438 L 119.972656 30.984375 Z M 119.359375 33.8125 "/>
<path style=" stroke:none;fill-rule:nonzero;fill:rgb(39.99939%,39.99939%,39.99939%);fill-opacity:0.3;" d="M 169.8125 18.894531 L 160.046875 17.019531 L 160.792969 13.851562 L 163.664062 14.382812 L 164.128906 12.28125 L 161.351562 11.664062 L 161.972656 8.851562 L 171.65625 10.789062 L 170.929688 13.585938 L 168.089844 13.085938 L 167.5625 15.480469 L 170.425781 16.066406 Z M 169.8125 18.894531 "/>
<path style=" stroke:none;fill-rule:nonzero;fill:rgb(39.99939%,39.99939%,39.99939%);fill-opacity:0.3;" d="M 181.1875 35.695312 L 179.214844 44.964844 L 175.878906 44.257812 L 176.4375 41.535156 L 174.226562 41.09375 L 173.574219 43.726562 L 170.613281 43.140625 L 172.652344 33.945312 L 175.597656 34.632812 L 175.070312 37.328125 L 177.59375 37.832031 L 178.210938 35.113281 Z M 181.1875 35.695312 "/>
<path style=" stroke:none;fill-rule:nonzero;fill:rgb(39.99939%,39.99939%,39.99939%);fill-opacity:0.3;" d="M 167.042969 -12.875 L 175.90625 -11.265625 L 172.160156 7.242188 L 163.332031 5.578125 Z M 167.042969 -12.875 "/>
<path style=" stroke:none;fill-rule:nonzero;fill:rgb(39.99939%,39.99939%,39.99939%);fill-opacity:0.3;" d="M 176.453125 12.59375 L 185.316406 14.203125 L 181.566406 32.710938 L 172.742188 31.046875 Z M 176.453125 12.59375 "/>
<path style=" stroke:none;fill-rule:nonzero;fill:rgb(39.99939%,39.99939%,39.99939%);fill-opacity:0.3;" d="M 159.832031 20.699219 L 168.695312 22.308594 L 164.714844 42.050781 L 155.851562 40.441406 Z M 159.832031 20.699219 "/>
<path style=" stroke:none;fill-rule:nonzero;fill:rgb(39.99939%,39.99939%,39.99939%);fill-opacity:0.3;" d="M 187.558594 10.210938 L 177.792969 8.339844 L 178.539062 5.171875 L 181.40625 5.703125 L 181.875 3.601562 L 179.097656 2.984375 L 179.71875 0.171875 L 189.402344 2.109375 L 188.675781 4.90625 L 185.835938 4.402344 L 185.308594 6.800781 L 188.171875 7.386719 Z M 187.558594 10.210938 "/>
<path style=" stroke:none;fill-rule:nonzero;fill:rgb(39.99939%,39.99939%,39.99939%);fill-opacity:0.3;" d="M 205.539062 1.046875 L 195.773438 -0.828125 L 196.519531 -3.996094 L 199.390625 -3.464844 L 199.855469 -5.566406 L 197.078125 -6.183594 L 197.699219 -8.996094 L 207.382812 -7.058594 L 206.65625 -4.261719 L 203.816406 -4.761719 L 203.289062 -2.367188 L 206.152344 -1.78125 Z M 205.539062 1.046875 "/>
<path style=" stroke:none;fill-rule:nonzero;fill:rgb(39.99939%,39.99939%,39.99939%);fill-opacity:0.3;" d="M 202.496094 13.179688 L 192.734375 11.304688 L 193.476562 8.140625 L 196.347656 8.671875 L 196.8125 6.570312 L 194.035156 5.949219 L 194.65625 3.140625 L 204.34375 5.078125 L 203.617188 7.871094 L 200.777344 7.371094 L 200.25 9.769531 L 203.113281 10.355469 Z M 202.496094 13.179688 "/>
<path style=" stroke:none;fill-rule:nonzero;fill:rgb(39.99939%,39.99939%,39.99939%);fill-opacity:0.3;" d="M 199.453125 25.132812 L 189.6875 23.257812 L 190.433594 20.09375 L 193.300781 20.621094 L 193.769531 18.519531 L 190.992188 17.902344 L 191.613281 15.089844 L 201.296875 17.027344 L 200.570312 19.824219 L 197.730469 19.324219 L 197.203125 21.722656 L 200.066406 22.308594 Z M 199.453125 25.132812 "/>
<path style=" stroke:none;fill-rule:nonzero;fill:rgb(39.99939%,39.99939%,39.99939%);fill-opacity:0.3;" d="M 220.457031 42.074219 L 227.328125 43.289062 L 225.289062 53.960938 L 218.363281 52.738281 Z M 220.457031 42.074219 "/>
<path style=" stroke:none;fill-rule:nonzero;fill:rgb(39.99939%,39.99939%,39.99939%);fill-opacity:0.3;" d="M 229.269531 -2.929688 L 236.140625 -1.714844 L 234.105469 8.957031 L 227.175781 7.734375 Z M 229.269531 -2.929688 "/>
<path style=" stroke:none;fill-rule:nonzero;fill:rgb(39.99939%,39.99939%,39.99939%);fill-opacity:0.3;" d="M 226.261719 11.984375 L 233.132812 13.199219 L 231.09375 23.871094 L 224.167969 22.648438 Z M 226.261719 11.984375 "/>
<path style=" stroke:none;fill-rule:nonzero;fill:rgb(39.99939%,39.99939%,39.99939%);fill-opacity:0.3;" d="M 223.285156 27.050781 L 230.15625 28.265625 L 228.121094 38.9375 L 221.191406 37.714844 Z M 223.285156 27.050781 "/>
<path style=" stroke:none;fill-rule:nonzero;fill:rgb(39.99939%,39.99939%,39.99939%);fill-opacity:0.3;" d="M 262.40625 3.25 L 269.28125 4.46875 L 267.242188 15.140625 L 260.3125 13.917969 Z M 262.40625 3.25 "/>
<path style=" stroke:none;fill-rule:nonzero;fill:rgb(39.99939%,39.99939%,39.99939%);fill-opacity:0.3;" d="M 259.285156 18.273438 L 266.160156 19.488281 L 264.121094 30.160156 L 257.195312 28.9375 Z M 259.285156 18.273438 "/>
<path style=" stroke:none;fill-rule:nonzero;fill:rgb(39.99939%,39.99939%,39.99939%);fill-opacity:0.3;" d="M 253.125 49.332031 L 259.996094 50.550781 L 257.957031 61.222656 L 251.03125 60 Z M 253.125 49.332031 "/>
<path style=" stroke:none;fill-rule:nonzero;fill:rgb(39.99939%,39.99939%,39.99939%);fill-opacity:0.3;" d="M 256.132812 33.972656 L 263.003906 35.1875 L 260.96875 45.859375 L 254.039062 44.636719 Z M 256.132812 33.972656 "/>
<path style=" stroke:none;fill-rule:nonzero;fill:rgb(39.99939%,39.99939%,39.99939%);fill-opacity:0.3;" d="M 230.40625 44.28125 L 237.28125 45.5 L 235.242188 56.171875 L 228.316406 54.949219 Z M 230.40625 44.28125 "/>
<path style=" stroke:none;fill-rule:nonzero;fill:rgb(39.99939%,39.99939%,39.99939%);fill-opacity:0.3;" d="M 239.21875 -0.71875 L 246.09375 0.496094 L 244.054688 11.167969 L 237.128906 9.945312 Z M 239.21875 -0.71875 "/>
<path style=" stroke:none;fill-rule:nonzero;fill:rgb(39.99939%,39.99939%,39.99939%);fill-opacity:0.3;" d="M 236.210938 14.195312 L 243.085938 15.410156 L 241.046875 26.082031 L 234.117188 24.859375 Z M 236.210938 14.195312 "/>
<path style=" stroke:none;fill-rule:nonzero;fill:rgb(39.99939%,39.99939%,39.99939%);fill-opacity:0.3;" d="M 233.234375 29.261719 L 240.109375 30.476562 L 238.070312 41.148438 L 231.144531 39.925781 Z M 233.234375 29.261719 "/>
<path style=" stroke:none;fill-rule:nonzero;fill:rgb(39.99939%,39.99939%,39.99939%);fill-opacity:0.3;" d="M 251.675781 1.410156 L 258.550781 2.628906 L 256.511719 13.300781 L 249.582031 12.078125 Z M 251.675781 1.410156 "/>
<path style=" stroke:none;fill-rule:nonzero;fill:rgb(39.99939%,39.99939%,39.99939%);fill-opacity:0.3;" d="M 248.554688 16.433594 L 255.429688 17.648438 L 253.390625 28.320312 L 246.460938 27.097656 Z M 248.554688 16.433594 "/>
<path style=" stroke:none;fill-rule:nonzero;fill:rgb(39.99939%,39.99939%,39.99939%);fill-opacity:0.3;" d="M 242.390625 47.492188 L 249.265625 48.710938 L 247.226562 59.382812 L 240.300781 58.160156 Z M 242.390625 47.492188 "/>
<path style=" stroke:none;fill-rule:nonzero;fill:rgb(39.99939%,39.99939%,39.99939%);fill-opacity:0.3;" d="M 245.398438 32.132812 L 252.273438 33.347656 L 250.234375 44.019531 L 243.308594 42.796875 Z M 245.398438 32.132812 "/>
<path style=" stroke:none;fill-rule:nonzero;fill:rgb(39.99939%,39.99939%,39.99939%);fill-opacity:0.3;" d="M 138.277344 15.613281 L 128.511719 13.738281 L 129.257812 10.574219 L 132.128906 11.101562 L 132.59375 9.003906 L 129.816406 8.382812 L 130.4375 5.574219 L 140.125 7.507812 L 139.398438 10.304688 L 136.558594 9.804688 L 136.03125 12.203125 L 138.894531 12.789062 Z M 138.277344 15.613281 "/>
<path style=" stroke:none;fill-rule:nonzero;fill:rgb(39.99939%,39.99939%,39.99939%);fill-opacity:0.3;" d="M 124.519531 12.976562 L 114.753906 11.101562 L 115.5 7.933594 L 118.371094 8.464844 L 118.835938 6.363281 L 116.058594 5.746094 L 116.679688 2.933594 L 126.363281 4.871094 L 125.636719 7.667969 L 122.800781 7.167969 L 122.273438 9.5625 L 125.132812 10.148438 Z M 124.519531 12.976562 "/>
<path style=" stroke:none;fill-rule:nonzero;fill:rgb(39.99939%,39.99939%,39.99939%);fill-opacity:0.3;" d="M 136.140625 25.402344 L 126.378906 23.527344 L 127.125 20.363281 L 129.992188 20.890625 L 130.457031 18.789062 L 127.683594 18.171875 L 128.304688 15.359375 L 137.988281 17.296875 L 137.261719 20.09375 L 134.421875 19.59375 L 133.894531 21.988281 L 136.757812 22.574219 Z M 136.140625 25.402344 "/>
<path style=" stroke:none;fill-rule:nonzero;fill:rgb(39.99939%,39.99939%,39.99939%);fill-opacity:0.3;" d="M 122.382812 22.761719 L 112.621094 20.890625 L 113.363281 17.722656 L 116.234375 18.253906 L 116.699219 16.152344 L 113.925781 15.53125 L 114.542969 12.722656 L 124.230469 14.660156 L 123.503906 17.453125 L 120.664062 16.953125 L 120.136719 19.351562 L 123 19.9375 Z M 122.382812 22.761719 "/>
<path style="fill-rule:nonzero;fill:rgb(39.99939%,39.99939%,39.99939%);fill-opacity:1;stroke-width:0.03;stroke-linecap:square;stroke-linejoin:miter;stroke:rgb(39.99939%,39.99939%,39.99939%);stroke-opacity:1;stroke-miterlimit:3.239307;" d="M 147.050781 197.050781 L 161.988281 199.800781 L 177.875 202.722656 L 189.257812 204.816406 L 168.363281 307.785156 L 167.359375 308.597656 L 165.554688 308.695312 L 128.53125 301.675781 L 126.464844 300.648438 L 125.429688 298.125 L 137.234375 240.738281 Z M 147.050781 197.050781 " transform="matrix(1,0,0,1,-74,-13)"/>
<path style="fill-rule:nonzero;fill:rgb(39.99939%,39.99939%,39.99939%);fill-opacity:1;stroke-width:0.03;stroke-linecap:square;stroke-linejoin:miter;stroke:rgb(39.99939%,39.99939%,39.99939%);stroke-opacity:1;stroke-miterlimit:3.239307;" d="M 210.90625 218.179688 L 211.28125 214.777344 L 221.632812 209.527344 L 234.335938 212.65625 L 227.222656 248.289062 L 208.109375 245.054688 L 210.5625 229.625 L 210.972656 225.914062 Z M 210.90625 218.179688 " transform="matrix(1,0,0,1,-74,-13)"/>
<path style="fill-rule:nonzero;fill:rgb(39.99939%,39.99939%,39.99939%);fill-opacity:1;stroke-width:0.03;stroke-linecap:square;stroke-linejoin:miter;stroke:rgb(39.99939%,39.99939%,39.99939%);stroke-opacity:1;stroke-miterlimit:3.239307;" d="M 219.4375 249.222656 L 225.632812 250.195312 L 223.195312 264.210938 L 216.871094 263.175781 L 217.257812 261.433594 L 215.210938 261.0625 L 215.59375 259.257812 L 217.570312 259.628906 L 218.511719 254.386719 L 216.757812 254.027344 L 217.113281 252.261719 L 218.863281 252.554688 Z M 219.4375 249.222656 " transform="matrix(1,0,0,1,-74,-13)"/>
<path style="fill-rule:nonzero;fill:rgb(39.99939%,39.99939%,39.99939%);fill-opacity:1;stroke-width:0.03;stroke-linecap:square;stroke-linejoin:miter;stroke:rgb(39.99939%,39.99939%,39.99939%);stroke-opacity:1;stroke-miterlimit:3.239307;" d="M 216.128906 111.640625 L 229.199219 114.101562 L 222.253906 147.367188 L 209.183594 144.90625 Z M 216.128906 111.640625 " transform="matrix(1,0,0,1,-74,-13)"/>
<path style="fill-rule:nonzero;fill:rgb(39.99939%,39.99939%,39.99939%);fill-opacity:1;stroke-width:0.03;stroke-linecap:square;stroke-linejoin:miter;stroke:rgb(39.99939%,39.99939%,39.99939%);stroke-opacity:1;stroke-miterlimit:3.239307;" d="M 199.492188 108.507812 L 213.972656 111.234375 L 207.027344 144.5 L 192.546875 141.777344 Z M 199.492188 108.507812 " transform="matrix(1,0,0,1,-74,-13)"/>
<path style="fill-rule:nonzero;fill:rgb(39.99939%,39.99939%,39.99939%);fill-opacity:1;stroke-width:0.03;stroke-linecap:square;stroke-linejoin:miter;stroke:rgb(39.99939%,39.99939%,39.99939%);stroke-opacity:1;stroke-miterlimit:3.239307;" d="M 197.335938 108.105469 L 190.390625 141.371094 L 176.746094 138.804688 L 183.695312 105.535156 Z M 197.335938 108.105469 " transform="matrix(1,0,0,1,-74,-13)"/>
<path style="fill-rule:nonzero;fill:rgb(39.99939%,39.99939%,39.99939%);fill-opacity:1;stroke-width:0.03;stroke-linecap:square;stroke-linejoin:miter;stroke:rgb(39.99939%,39.99939%,39.99939%);stroke-opacity:1;stroke-miterlimit:3.239307;" d="M 310.570312 154.621094 L 309.46875 154.101562 L 303.542969 158.898438 L 302.222656 159.527344 L 301.125 158.902344 L 294.269531 153.308594 L 287.65625 149.066406 L 281.257812 145.636719 L 271.234375 140.589844 L 274.617188 126.113281 L 275.605469 124.546875 L 277.363281 123.714844 L 279.777344 123.398438 L 284.0625 124.644531 L 289.339844 127.035156 L 295.164062 130.363281 L 302.085938 135.042969 L 306.484375 138.269531 L 310.441406 141.390625 L 315.058594 144.824219 L 320.996094 149.296875 L 329.460938 156.0625 L 330.558594 157.9375 L 329.792969 160.332031 L 323.917969 167.230469 L 318.808594 173.503906 L 313.699219 179.574219 L 308.164062 185.242188 L 302.628906 193.539062 L 299.371094 198.09375 L 296.960938 203.515625 L 294.769531 208.621094 L 292.800781 215.289062 L 291.265625 216.960938 L 289.617188 217.480469 L 287.3125 217.691406 L 266.109375 213.960938 L 237.652344 207.738281 L 235.675781 206.699219 L 234.464844 205.347656 L 234.027344 204.617188 L 233.585938 203.890625 L 233.363281 202.328125 L 250.726562 121.726562 L 251.386719 120.371094 L 252.261719 119.433594 L 253.472656 118.808594 L 269.621094 121.1875 L 270.609375 122.019531 L 271.050781 123.582031 L 270.832031 125.144531 L 267.664062 140.671875 L 255.726562 191.765625 L 274.492188 195.386719 L 276.621094 193.359375 L 286.628906 181.824219 L 301.789062 164.109375 L 311.886719 155.246094 Z M 310.570312 154.621094 " transform="matrix(1,0,0,1,-74,-13)"/>
<path style="fill-rule:nonzero;fill:rgb(39.99939%,39.99939%,39.99939%);fill-opacity:1;stroke-width:0.03;stroke-linecap:square;stroke-linejoin:miter;stroke:rgb(39.99939%,39.99939%,39.99939%);stroke-opacity:1;stroke-miterlimit:3.239307;" d="M 167.15625 102.425781 L 181.539062 105.128906 L 174.589844 138.398438 L 160.210938 135.691406 Z M 167.15625 102.425781 " transform="matrix(1,0,0,1,-74,-13)"/>
<path style="fill-rule:nonzero;fill:rgb(39.99939%,39.99939%,39.99939%);fill-opacity:1;stroke-width:0.03;stroke-linecap:square;stroke-linejoin:miter;stroke:rgb(39.99939%,39.99939%,39.99939%);stroke-opacity:1;stroke-miterlimit:3.239307;" d="M 183.949219 245.332031 L 188.292969 219.785156 L 207.21875 224.207031 L 202.042969 248.476562 Z M 183.949219 245.332031 " transform="matrix(1,0,0,1,-74,-13)"/>
<path style="fill-rule:nonzero;fill:rgb(39.99939%,39.99939%,39.99939%);fill-opacity:1;stroke-width:0.03;stroke-linecap:square;stroke-linejoin:miter;stroke:rgb(39.99939%,39.99939%,39.99939%);stroke-opacity:1;stroke-miterlimit:3.239307;" d="M 237.984375 143.53125 L 228.742188 131.582031 L 231.292969 129.851562 L 232.898438 131.929688 L 234.679688 130.707031 L 235.597656 131.894531 L 233.867188 133.179688 L 237.992188 138.511719 L 239.722656 137.226562 L 240.726562 138.523438 L 239.027344 139.851562 L 240.507812 141.769531 Z M 237.984375 143.53125 " transform="matrix(1,0,0,1,-74,-13)"/>
<path style="fill-rule:nonzero;fill:rgb(39.99939%,39.99939%,39.99939%);fill-opacity:1;stroke-width:0.03;stroke-linecap:square;stroke-linejoin:miter;stroke:rgb(39.99939%,39.99939%,39.99939%);stroke-opacity:1;stroke-miterlimit:3.239307;" d="M 241.050781 130.28125 L 231.808594 118.335938 L 234.359375 116.605469 L 235.96875 118.679688 L 237.75 117.460938 L 238.667969 118.648438 L 236.933594 119.933594 L 241.058594 125.265625 L 242.792969 123.980469 L 243.796875 125.277344 L 242.09375 126.605469 L 243.578125 128.523438 Z M 241.050781 130.28125 " transform="matrix(1,0,0,1,-74,-13)"/>
<path style="fill-rule:nonzero;fill:rgb(39.99939%,39.99939%,39.99939%);fill-opacity:1;stroke-width:0.03;stroke-linecap:square;stroke-linejoin:miter;stroke:rgb(39.99939%,39.99939%,39.99939%);stroke-opacity:1;stroke-miterlimit:3.239307;" d="M 210.554688 318.425781 L 203.449219 317.226562 L 192.957031 315.453125 L 193.425781 312.4375 L 197.050781 313.03125 L 197.527344 310.402344 L 199.226562 310.734375 L 198.734375 313.308594 L 205.785156 314.464844 L 206.3125 312.089844 L 207.871094 312.394531 L 207.441406 314.738281 L 211.121094 315.339844 Z M 210.554688 318.425781 " transform="matrix(1,0,0,1,-74,-13)"/>
<path style="fill-rule:nonzero;fill:rgb(39.99939%,39.99939%,39.99939%);fill-opacity:1;stroke-width:0.03;stroke-linecap:square;stroke-linejoin:miter;stroke:rgb(39.99939%,39.99939%,39.99939%);stroke-opacity:1;stroke-miterlimit:3.239307;" d="M 231.808594 291.917969 L 246.84375 294.550781 L 264.234375 297.582031 L 263.75 300.597656 L 260.125 299.980469 L 259.632812 302.609375 L 257.9375 302.269531 L 258.445312 299.695312 L 251.398438 298.503906 L 250.859375 300.875 L 249.300781 300.5625 L 249.746094 298.222656 L 246.359375 297.621094 L 244.003906 297.164062 L 243.511719 299.789062 L 241.816406 299.449219 L 242.324219 296.878906 L 235.683594 295.734375 L 235.167969 298.152344 L 233.523438 297.820312 L 233.988281 295.476562 L 231.234375 295.019531 Z M 231.808594 291.917969 " transform="matrix(1,0,0,1,-74,-13)"/>
<path style="fill-rule:nonzero;fill:rgb(39.99939%,39.99939%,39.99939%);fill-opacity:1;stroke-width:0.03;stroke-linecap:square;stroke-linejoin:miter;stroke:rgb(39.99939%,39.99939%,39.99939%);stroke-opacity:1;stroke-miterlimit:3.239307;" d="M 275.34375 287.773438 L 272.210938 304.484375 L 269.035156 304.039062 L 269.664062 300.59375 L 266.890625 300.140625 L 267.242188 298.53125 L 269.953125 298.996094 L 271.171875 292.300781 L 268.667969 291.800781 L 268.992188 290.324219 L 271.457031 290.730469 L 272.09375 287.238281 Z M 275.34375 287.773438 " transform="matrix(1,0,0,1,-74,-13)"/>
<path style="fill-rule:nonzero;fill:rgb(39.99939%,39.99939%,39.99939%);fill-opacity:1;stroke-width:0.03;stroke-linecap:square;stroke-linejoin:miter;stroke:rgb(39.99939%,39.99939%,39.99939%);stroke-opacity:1;stroke-miterlimit:3.239307;" d="M 276.476562 278.375 L 275.835938 281.9375 L 231.722656 273.367188 L 228.140625 272.671875 L 228.859375 269.136719 L 232.1875 269.679688 L 232.652344 267.371094 L 234.59375 267.753906 L 234.125 270.058594 L 239.546875 271.121094 L 240.011719 268.816406 L 241.949219 269.199219 L 241.484375 271.503906 L 248.058594 272.792969 L 248.527344 270.488281 L 250.464844 270.867188 L 250 273.175781 L 255.871094 274.328125 L 256.339844 272.023438 L 258.277344 272.402344 L 257.8125 274.710938 L 263.882812 275.902344 L 264.351562 273.59375 L 266.289062 273.976562 L 265.824219 276.28125 L 271.773438 277.449219 L 272.242188 275.144531 L 274.179688 275.523438 L 273.714844 277.832031 Z M 276.476562 278.375 " transform="matrix(1,0,0,1,-74,-13)"/>
<path style="fill-rule:nonzero;fill:rgb(39.99939%,39.99939%,39.99939%);fill-opacity:1;stroke-width:0.03;stroke-linecap:square;stroke-linejoin:miter;stroke:rgb(39.99939%,39.99939%,39.99939%);stroke-opacity:1;stroke-miterlimit:3.239307;" d="M 216.972656 320.878906 L 213.996094 320.390625 L 223.757812 275.113281 L 227.480469 275.796875 L 226.910156 278.957031 L 229.335938 279.398438 L 228.9375 281.238281 L 226.507812 280.796875 L 225.386719 285.941406 L 227.816406 286.382812 L 227.414062 288.222656 L 224.984375 287.78125 L 223.625 294.023438 L 226.054688 294.464844 L 225.652344 296.308594 L 223.226562 295.863281 L 222.011719 301.441406 L 224.4375 301.882812 L 224.039062 303.726562 L 221.609375 303.28125 L 220.355469 309.046875 L 222.78125 309.488281 L 222.382812 311.332031 L 219.953125 310.886719 L 218.722656 316.539062 L 221.152344 316.980469 L 220.75 318.820312 L 218.320312 318.378906 L 217.757812 320.964844 Z M 216.972656 320.878906 " transform="matrix(1,0,0,1,-74,-13)"/>
<path style="fill-rule:nonzero;fill:rgb(39.99939%,39.99939%,39.99939%);fill-opacity:1;stroke-width:0.03;stroke-linecap:square;stroke-linejoin:miter;stroke:rgb(39.99939%,39.99939%,39.99939%);stroke-opacity:1;stroke-miterlimit:3.239307;" d="M 204.828125 293.140625 L 201.074219 292.53125 L 210.835938 247.253906 L 214.558594 247.933594 L 213.988281 251.09375 L 216.414062 251.535156 L 216.035156 253.308594 L 213.585938 252.933594 L 212.507812 258.089844 L 214.894531 258.523438 L 214.492188 260.363281 L 212.097656 259.921875 L 210.703125 266.160156 L 213.132812 266.605469 L 212.730469 268.445312 L 210.304688 268.003906 L 209.089844 273.578125 L 211.515625 274.023438 L 211.117188 275.863281 L 208.6875 275.421875 L 207.433594 281.183594 L 209.859375 281.628906 L 209.460938 283.46875 L 207.03125 283.027344 L 205.800781 288.675781 L 208.230469 289.117188 L 207.828125 290.960938 L 205.398438 290.515625 Z M 204.828125 293.140625 " transform="matrix(1,0,0,1,-74,-13)"/>
<path style="fill-rule:nonzero;fill:rgb(39.99939%,39.99939%,39.99939%);fill-opacity:1;stroke-width:0.03;stroke-linecap:square;stroke-linejoin:miter;stroke:rgb(39.99939%,39.99939%,39.99939%);stroke-opacity:1;stroke-miterlimit:3.239307;" d="M 202.8125 171.605469 L 215.882812 174.0625 L 209.132812 206.382812 L 196.0625 203.921875 Z M 202.8125 171.605469 " transform="matrix(1,0,0,1,-74,-13)"/>
<path style="fill-rule:nonzero;fill:rgb(39.99939%,39.99939%,39.99939%);fill-opacity:1;stroke-width:0.03;stroke-linecap:square;stroke-linejoin:miter;stroke:rgb(39.99939%,39.99939%,39.99939%);stroke-opacity:1;stroke-miterlimit:3.239307;" d="M 186.175781 168.472656 L 200.65625 171.199219 L 193.90625 203.515625 L 179.429688 200.792969 Z M 186.175781 168.472656 " transform="matrix(1,0,0,1,-74,-13)"/>
<path style="fill-rule:nonzero;fill:rgb(39.99939%,39.99939%,39.99939%);fill-opacity:1;stroke-width:0.03;stroke-linecap:square;stroke-linejoin:miter;stroke:rgb(39.99939%,39.99939%,39.99939%);stroke-opacity:1;stroke-miterlimit:3.239307;" d="M 184.019531 168.066406 L 177.273438 200.386719 L 163.628906 197.820312 L 170.378906 165.5 Z M 184.019531 168.066406 " transform="matrix(1,0,0,1,-74,-13)"/>
<path style="fill-rule:nonzero;fill:rgb(39.99939%,39.99939%,39.99939%);fill-opacity:1;stroke-width:0.03;stroke-linecap:square;stroke-linejoin:miter;stroke:rgb(39.99939%,39.99939%,39.99939%);stroke-opacity:1;stroke-miterlimit:3.239307;" d="M 224.804688 207.722656 L 215.5625 195.773438 L 218.113281 194.042969 L 219.71875 196.121094 L 221.5 194.902344 L 222.417969 196.085938 L 220.6875 197.375 L 224.8125 202.707031 L 226.542969 201.421875 L 227.546875 202.71875 L 225.847656 204.046875 L 227.328125 205.960938 Z M 224.804688 207.722656 " transform="matrix(1,0,0,1,-74,-13)"/>
<path style="fill-rule:nonzero;fill:rgb(39.99939%,39.99939%,39.99939%);fill-opacity:1;stroke-width:0.03;stroke-linecap:square;stroke-linejoin:miter;stroke:rgb(39.99939%,39.99939%,39.99939%);stroke-opacity:1;stroke-miterlimit:3.239307;" d="M 226.964844 193.960938 L 217.722656 182.011719 L 220.273438 180.28125 L 221.878906 182.359375 L 223.664062 181.136719 L 224.582031 182.324219 L 222.847656 183.613281 L 226.972656 188.945312 L 228.707031 187.660156 L 229.707031 188.957031 L 228.007812 190.28125 L 229.492188 192.199219 Z M 226.964844 193.960938 " transform="matrix(1,0,0,1,-74,-13)"/>
<path style="fill-rule:nonzero;fill:rgb(39.99939%,39.99939%,39.99939%);fill-opacity:1;stroke-width:0.03;stroke-linecap:square;stroke-linejoin:miter;stroke:rgb(39.99939%,39.99939%,39.99939%);stroke-opacity:1;stroke-miterlimit:3.239307;" d="M 230.039062 181.003906 L 220.796875 169.054688 L 223.347656 167.324219 L 224.953125 169.402344 L 226.738281 168.179688 L 227.65625 169.367188 L 225.921875 170.65625 L 230.046875 175.988281 L 231.777344 174.703125 L 232.78125 176 L 231.082031 177.324219 L 232.566406 179.242188 Z M 230.039062 181.003906 " transform="matrix(1,0,0,1,-74,-13)"/>
<path style="fill-rule:nonzero;fill:rgb(39.99939%,39.99939%,39.99939%);fill-opacity:1;stroke-width:0.03;stroke-linecap:square;stroke-linejoin:miter;stroke:rgb(39.99939%,39.99939%,39.99939%);stroke-opacity:1;stroke-miterlimit:3.239307;" d="M 233.199219 168.789062 L 223.957031 156.839844 L 226.507812 155.109375 L 228.113281 157.1875 L 229.898438 155.964844 L 230.816406 157.152344 L 229.082031 158.4375 L 233.207031 163.773438 L 234.941406 162.488281 L 235.941406 163.78125 L 234.242188 165.109375 L 235.726562 167.027344 Z M 233.199219 168.789062 " transform="matrix(1,0,0,1,-74,-13)"/>
<path style="fill-rule:nonzero;fill:rgb(39.99939%,39.99939%,39.99939%);fill-opacity:1;stroke-width:0.03;stroke-linecap:square;stroke-linejoin:miter;stroke:rgb(39.99939%,39.99939%,39.99939%);stroke-opacity:1;stroke-miterlimit:3.239307;" d="M 235.640625 156.519531 L 226.398438 144.570312 L 228.949219 142.839844 L 230.554688 144.917969 L 232.335938 143.695312 L 233.253906 144.882812 L 231.523438 146.167969 L 235.648438 151.5 L 237.378906 150.214844 L 238.382812 151.511719 L 236.683594 152.839844 L 238.164062 154.757812 Z M 235.640625 156.519531 " transform="matrix(1,0,0,1,-74,-13)"/>
<path style="fill-rule:nonzero;fill:rgb(39.99939%,39.99939%,39.99939%);fill-opacity:1;stroke-width:0.03;stroke-linecap:square;stroke-linejoin:miter;stroke:rgb(39.99939%,39.99939%,39.99939%);stroke-opacity:1;stroke-miterlimit:3.239307;" d="M 270.980469 309.023438 L 268.105469 317.8125 L 267.609375 320.074219 L 223.222656 321.570312 L 222.558594 321.496094 L 227.984375 300.964844 Z M 270.980469 309.023438 " transform="matrix(1,0,0,1,-74,-13)"/>
<path style="fill-rule:nonzero;fill:rgb(39.99939%,39.99939%,39.99939%);fill-opacity:1;stroke-width:0.03;stroke-linecap:square;stroke-linejoin:miter;stroke:rgb(39.99939%,39.99939%,39.99939%);stroke-opacity:1;stroke-miterlimit:3.239307;" d="M 224.621094 264.835938 L 235.476562 210.46875 L 286.550781 221.019531 L 287.554688 221.957031 L 288.105469 223.191406 L 288.328125 224.804688 L 278.035156 275.28125 Z M 224.621094 264.835938 " transform="matrix(1,0,0,1,-74,-13)"/>
<path style="fill-rule:nonzero;fill:rgb(39.99939%,39.99939%,39.99939%);fill-opacity:1;stroke-width:0.03;stroke-linecap:square;stroke-linejoin:miter;stroke:rgb(39.99939%,39.99939%,39.99939%);stroke-opacity:1;stroke-miterlimit:3.239307;" d="M 279.539062 83.03125 L 286.574219 84.84375 L 294.46875 87.867188 L 301.292969 91.703125 L 308.546875 95.738281 L 313.027344 98.972656 L 318.574219 103.007812 L 324.546875 107.855469 L 330.523438 112.097656 L 334.789062 115.734375 L 336.070312 116.945312 L 335.433594 118.5625 L 330.949219 123.867188 L 329.042969 124.433594 L 326.910156 123.222656 L 322.855469 120.191406 L 316.242188 115.144531 L 313.042969 112.921875 L 309.414062 110.296875 L 304.507812 108.078125 L 300.667969 106.261719 L 296.828125 104.242188 L 291.800781 102.460938 L 286.765625 100.640625 L 280.195312 98.597656 L 276.355469 97.589844 Z M 279.539062 83.03125 " transform="matrix(1,0,0,1,-74,-13)"/>
<path style="fill-rule:nonzero;fill:rgb(39.99939%,39.99939%,39.99939%);fill-opacity:1;stroke-width:0.03;stroke-linecap:square;stroke-linejoin:miter;stroke:rgb(39.99939%,39.99939%,39.99939%);stroke-opacity:1;stroke-miterlimit:3.239307;" d="M 258.003906 79.207031 L 266.957031 80.414062 L 275.6875 82.265625 L 272.085938 101.074219 L 276.773438 101.070312 L 285.53125 102.839844 L 295.980469 107.074219 L 305.152344 111.109375 L 310.699219 114.746094 L 316.671875 118.984375 L 321.367188 122.824219 L 326.0625 126.660156 L 329.675781 130.136719 L 338.40625 119.613281 L 351.421875 128.902344 L 352.273438 130.921875 L 351.851562 133.957031 L 350.574219 136.386719 L 337.550781 151.453125 L 335.839844 152.636719 L 333.296875 153.128906 L 331.066406 152.789062 L 329.09375 152.003906 L 322.660156 147.535156 L 305.164062 134.203125 L 292.792969 126.128906 L 287.246094 123.101562 L 281.273438 121.085938 L 269.332031 118.0625 L 258.457031 116.050781 L 250.9375 114.632812 Z M 258.003906 79.207031 " transform="matrix(1,0,0,1,-74,-13)"/>
<path style="fill-rule:nonzero;fill:rgb(39.99939%,39.99939%,39.99939%);fill-opacity:1;stroke-width:0.03;stroke-linecap:square;stroke-linejoin:miter;stroke:rgb(39.99939%,39.99939%,39.99939%);stroke-opacity:1;stroke-miterlimit:3.239307;" d="M 193.339844 67.359375 L 186.683594 100.015625 L 170.386719 96.644531 L 169.660156 96.449219 L 169.140625 96.058594 L 168.726562 95.371094 L 175.425781 66.394531 L 176.460938 65.414062 L 178.425781 64.429688 L 180.546875 64.445312 Z M 193.339844 67.359375 " transform="matrix(1,0,0,1,-74,-13)"/>
<path style="fill-rule:nonzero;fill:rgb(39.99939%,39.99939%,39.99939%);fill-opacity:1;stroke-width:0.03;stroke-linecap:square;stroke-linejoin:miter;stroke:rgb(39.99939%,39.99939%,39.99939%);stroke-opacity:1;stroke-miterlimit:3.239307;" d="M 254.03125 87.394531 L 251.011719 103.132812 L 247.820312 102.734375 L 248.347656 100.214844 L 245.578125 99.765625 L 245.925781 98.152344 L 248.640625 98.621094 L 249.859375 91.925781 L 247.355469 91.421875 L 247.675781 89.945312 L 250.144531 90.351562 L 250.78125 86.859375 Z M 254.03125 87.394531 " transform="matrix(1,0,0,1,-74,-13)"/>
<path style="fill-rule:nonzero;fill:rgb(39.99939%,39.99939%,39.99939%);fill-opacity:1;stroke-width:0.03;stroke-linecap:square;stroke-linejoin:miter;stroke:rgb(39.99939%,39.99939%,39.99939%);stroke-opacity:1;stroke-miterlimit:3.239307;" d="M 248.785156 83.199219 L 246.019531 82.652344 L 245.480469 84.945312 L 243.542969 84.5625 L 244.082031 82.269531 L 238.132812 81.09375 L 237.59375 83.382812 L 235.65625 83 L 236.195312 80.707031 L 230.125 79.507812 L 229.585938 81.796875 L 227.644531 81.414062 L 228.183594 79.125 L 222.3125 77.960938 L 221.773438 80.253906 L 219.835938 79.867188 L 220.375 77.578125 L 213.800781 76.277344 L 213.261719 78.566406 L 211.324219 78.183594 L 211.863281 75.890625 L 206.445312 74.820312 L 205.90625 77.113281 L 203.96875 76.726562 L 204.507812 74.4375 L 201.226562 73.675781 L 201.953125 70.460938 L 249.617188 79.949219 Z M 248.785156 83.199219 " transform="matrix(1,0,0,1,-74,-13)"/>
<path style="fill-rule:nonzero;fill:rgb(39.99939%,39.99939%,39.99939%);fill-opacity:1;stroke-width:0.03;stroke-linecap:square;stroke-linejoin:miter;stroke:rgb(39.99939%,39.99939%,39.99939%);stroke-opacity:1;stroke-miterlimit:3.239307;" d="M 238.265625 105.628906 L 237.652344 108.921875 L 189.988281 99.433594 L 190.683594 96.210938 L 194.007812 96.765625 L 194.484375 94.464844 L 196.421875 94.851562 L 195.945312 97.15625 L 201.363281 98.238281 L 201.835938 95.933594 L 203.773438 96.324219 L 203.300781 98.628906 L 209.867188 99.941406 L 210.34375 97.636719 L 212.28125 98.027344 L 211.804688 100.332031 L 217.675781 101.503906 L 218.152344 99.199219 L 220.089844 99.589844 L 219.613281 101.894531 L 225.679688 103.109375 L 226.15625 100.804688 L 228.09375 101.191406 L 227.617188 103.496094 L 233.5625 104.6875 L 234.039062 102.382812 L 235.976562 102.769531 L 235.503906 105.074219 Z M 238.265625 105.628906 " transform="matrix(1,0,0,1,-74,-13)"/>
<path style="fill-rule:nonzero;fill:rgb(39.99939%,39.99939%,39.99939%);fill-opacity:1;stroke-width:0.03;stroke-linecap:square;stroke-linejoin:miter;stroke:rgb(39.99939%,39.99939%,39.99939%);stroke-opacity:1;stroke-miterlimit:3.239307;" d="M 168.222656 165.09375 L 161.472656 197.414062 L 147.828125 194.847656 L 148.632812 191 L 151.59375 176.824219 L 154.578125 162.527344 Z M 168.222656 165.09375 " transform="matrix(1,0,0,1,-74,-13)"/>
<g clip-path="url(#clip23)" clip-rule="nonzero">
<path style=" stroke:none;fill-rule:evenodd;fill:rgb(85.096741%,85.096741%,81.959534%);fill-opacity:0.7;" d="M 335.105469 345 C 335.105469 338.871094 332.667969 332.996094 328.335938 328.664062 C 324.003906 324.332031 318.128906 321.894531 312 321.894531 C 305.871094 321.894531 299.996094 324.332031 295.664062 328.664062 C 291.332031 332.996094 288.894531 338.871094 288.894531 345 C 288.894531 351.128906 291.332031 357.003906 295.664062 361.335938 C 299.996094 365.667969 305.871094 368.105469 312 368.105469 C 318.128906 368.105469 324.003906 365.667969 328.335938 361.335938 C 332.667969 357.003906 335.105469 351.128906 335.105469 345 Z M 335.105469 345 "/>
</g>
<path style=" stroke:none;fill-rule:evenodd;fill:rgb(85.096741%,85.096741%,81.959534%);fill-opacity:0.7;" d="M 73.105469 175 C 73.105469 168.871094 70.667969 162.996094 66.335938 158.664062 C 62.003906 154.332031 56.128906 151.894531 50 151.894531 C 43.871094 151.894531 37.996094 154.332031 33.664062 158.664062 C 29.332031 162.996094 26.894531 168.871094 26.894531 175 C 26.894531 181.128906 29.332031 187.003906 33.664062 191.335938 C 37.996094 195.667969 43.871094 198.105469 50 198.105469 C 56.128906 198.105469 62.003906 195.667969 66.335938 191.335938 C 70.667969 187.003906 73.105469 181.128906 73.105469 175 Z M 73.105469 175 "/>
<path style="fill-rule:nonzero;fill:rgb(99.998474%,99.998474%,30.587769%);fill-opacity:0.8;stroke-width:0.288;stroke-linecap:square;stroke-linejoin:miter;stroke:rgb(0%,0%,0%);stroke-opacity:0.8;stroke-miterlimit:3.25;" d="M 197.808594 254.570312 L 147.789062 341.210938 L 247.828125 341.210938 Z M 197.808594 254.570312 " transform="matrix(1,0,0,1,-74,-13)"/>
</g>
</svg>
