<?xml version="1.0" encoding="UTF-8"?>
<svg xmlns="http://www.w3.org/2000/svg" xmlns:xlink="http://www.w3.org/1999/xlink" width="361pt" height="361pt" viewBox="0 0 361 361" version="1.1">
<defs>
<clipPath id="clip1">
  <path d="M 41 311 L 93 311 L 93 360 L 41 360 Z M 41 311 "/>
</clipPath>
<clipPath id="clip2">
  <path d="M 193 328 L 276 328 L 276 360 L 193 360 Z M 193 328 "/>
</clipPath>
<clipPath id="clip3">
  <path d="M 188 354 L 269 354 L 269 360 L 188 360 Z M 188 354 "/>
</clipPath>
<clipPath id="clip4">
  <path d="M 122 336 L 195 336 L 195 360 L 122 360 Z M 122 336 "/>
</clipPath>
<clipPath id="clip5">
  <path d="M 86 352 L 184 352 L 184 360 L 86 360 Z M 86 352 "/>
</clipPath>
<clipPath id="clip6">
  <path d="M 332 159 L 360 159 L 360 236 L 332 236 Z M 332 159 "/>
</clipPath>
<clipPath id="clip7">
  <path d="M 317 219 L 360 219 L 360 266 L 317 266 Z M 317 219 "/>
</clipPath>
<clipPath id="clip8">
  <path d="M 323 194 L 360 194 L 360 233 L 323 233 Z M 323 194 "/>
</clipPath>
<clipPath id="clip9">
  <path d="M 343 141 L 360 141 L 360 222 L 343 222 Z M 343 141 "/>
</clipPath>
<clipPath id="clip10">
  <path d="M 355 235 L 360 235 L 360 278 L 355 278 Z M 355 235 "/>
</clipPath>
<clipPath id="clip11">
  <path d="M 347 269 L 360 269 L 360 312 L 347 312 Z M 347 269 "/>
</clipPath>
<clipPath id="clip12">
  <path d="M 0 352 L 42 352 L 42 360 L 0 360 Z M 0 352 "/>
</clipPath>
<clipPath id="clip13">
  <path d="M 0 327 L 44 327 L 44 360 L 0 360 Z M 0 327 "/>
</clipPath>
<clipPath id="clip14">
  <path d="M 260 353 L 317 353 L 317 360 L 260 360 Z M 260 353 "/>
</clipPath>
<clipPath id="clip15">
  <path d="M 335 358 L 347 358 L 347 360 L 335 360 Z M 335 358 "/>
</clipPath>
<clipPath id="clip16">
  <path d="M 322 336 L 343 336 L 343 360 L 322 360 Z M 322 336 "/>
</clipPath>
<clipPath id="clip17">
  <path d="M 312 333 L 331 333 L 331 360 L 312 360 Z M 312 333 "/>
</clipPath>
<clipPath id="clip18">
  <path d="M 300 330 L 321 330 L 321 360 L 300 360 Z M 300 330 "/>
</clipPath>
<clipPath id="clip19">
  <path d="M 356 347 L 360 347 L 360 360 L 356 360 Z M 356 347 "/>
</clipPath>
<clipPath id="clip20">
  <path d="M 357 87 L 360 87 L 360 130 L 357 130 Z M 357 87 "/>
</clipPath>
<clipPath id="clip21">
  <path d="M 352 116 L 360 116 L 360 139 L 352 139 Z M 352 116 "/>
</clipPath>
<clipPath id="clip22">
  <path d="M 349 129 L 360 129 L 360 144 L 349 144 Z M 349 129 "/>
</clipPath>
<clipPath id="clip23">
  <path d="M 340 0 L 360 0 L 360 127 L 340 127 Z M 340 0 "/>
</clipPath>
<clipPath id="clip24">
  <path d="M 351 264 L 360 264 L 360 292 L 351 292 Z M 351 264 "/>
</clipPath>
<clipPath id="clip25">
  <path d="M 357 231 L 360 231 L 360 284 L 357 284 Z M 357 231 "/>
</clipPath>
<clipPath id="clip26">
  <path d="M 355 230 L 360 230 L 360 285 L 355 285 Z M 355 230 "/>
</clipPath>
</defs>
<g id="surface812">
<path style="fill-rule:nonzero;fill:rgb(0%,0%,0%);fill-opacity:1;stroke-width:0.03;stroke-linecap:square;stroke-linejoin:miter;stroke:rgb(0%,0%,0%);stroke-opacity:1;stroke-miterlimit:10;" d="M 0 178 L 360 178 L 360 -182 L 0 -182 Z M 0 178 " transform="matrix(1,0,0,1,0,182)"/>
<g clip-path="url(#clip1)" clip-rule="nonzero">
<path style=" stroke:none;fill-rule:nonzero;fill:rgb(39.99939%,39.99939%,39.99939%);fill-opacity:0.3;" d="M 48.972656 311.496094 L 66.335938 317.304688 L 68.152344 318.210938 L 69.300781 319.113281 L 70.066406 320.292969 L 70.734375 321.832031 L 71.074219 324.6875 L 72.824219 336.355469 L 72.90625 337.785156 L 73.066406 338.914062 L 73.03125 340.214844 L 72.363281 342.613281 L 71.597656 344.878906 L 71.503906 345.785156 L 71.234375 347.121094 L 60.214844 344.433594 L 60.035156 345.21875 L 59.800781 346.242188 L 84.089844 352.113281 L 92.066406 361.167969 L 86.210938 385.410156 L 41.75 374.609375 L 44.609375 349.015625 Z M 48.972656 311.496094 "/>
</g>
<g clip-path="url(#clip2)" clip-rule="nonzero">
<path style=" stroke:none;fill-rule:nonzero;fill:rgb(39.99939%,39.99939%,39.99939%);fill-opacity:0.3;" d="M 199.339844 328.824219 L 263.722656 346.296875 L 274.941406 351.316406 L 275.050781 351.355469 L 268.617188 373.617188 L 193.039062 351.382812 Z M 199.339844 328.824219 "/>
</g>
<g clip-path="url(#clip3)" clip-rule="nonzero">
<path style=" stroke:none;fill-rule:nonzero;fill:rgb(39.99939%,39.99939%,39.99939%);fill-opacity:0.3;" d="M 195.617188 354.859375 L 268.300781 376.761719 L 261.691406 398.148438 L 188.464844 376.648438 Z M 195.617188 354.859375 "/>
</g>
<g clip-path="url(#clip4)" clip-rule="nonzero">
<path style=" stroke:none;fill-rule:nonzero;fill:rgb(39.99939%,39.99939%,39.99939%);fill-opacity:0.3;" d="M 130.171875 336.996094 L 194.394531 354.386719 L 187.242188 376.332031 L 122.726562 358.238281 Z M 130.171875 336.996094 "/>
</g>
<path style=" stroke:none;fill-rule:nonzero;fill:rgb(39.99939%,39.99939%,39.99939%);fill-opacity:0.3;" d="M 156.871094 324.839844 L 164.46875 326.890625 L 163.386719 330.492188 L 155.789062 328.441406 Z M 156.871094 324.839844 "/>
<path style=" stroke:none;fill-rule:nonzero;fill:rgb(39.99939%,39.99939%,39.99939%);fill-opacity:0.3;" d="M 166.175781 327.582031 L 173.773438 329.632812 L 172.691406 333.234375 L 165.09375 331.183594 Z M 166.175781 327.582031 "/>
<path style=" stroke:none;fill-rule:nonzero;fill:rgb(39.99939%,39.99939%,39.99939%);fill-opacity:0.3;" d="M 169.332031 321.441406 L 171.234375 321.953125 L 170.871094 323.152344 L 171.824219 323.410156 L 172.773438 323.664062 L 173.132812 322.464844 L 175.03125 322.976562 L 173.410156 328.378906 L 171.511719 327.867188 L 171.871094 326.664062 L 170.921875 326.410156 L 169.972656 326.152344 L 169.609375 327.355469 L 167.710938 326.84375 Z M 169.332031 321.441406 "/>
<path style=" stroke:none;fill-rule:nonzero;fill:rgb(39.99939%,39.99939%,39.99939%);fill-opacity:0.3;" d="M 160.082031 318.78125 L 161.980469 319.292969 L 161.621094 320.496094 L 162.570312 320.75 L 163.519531 321.007812 L 163.882812 319.808594 L 165.78125 320.320312 L 164.160156 325.722656 L 162.257812 325.210938 L 162.621094 324.007812 L 161.671875 323.753906 L 160.71875 323.496094 L 160.359375 324.695312 L 158.460938 324.183594 Z M 160.082031 318.78125 "/>
<path style=" stroke:none;fill-rule:nonzero;fill:rgb(39.99939%,39.99939%,39.99939%);fill-opacity:0.3;" d="M 151.121094 317.96875 L 153.019531 318.480469 L 152.660156 319.679688 L 154.558594 320.195312 L 154.921875 318.992188 L 156.820312 319.503906 L 155.199219 324.90625 L 153.296875 324.394531 L 153.660156 323.195312 L 152.707031 322.9375 L 151.757812 322.683594 L 151.398438 323.882812 L 149.5 323.371094 Z M 151.121094 317.96875 "/>
<path style=" stroke:none;fill-rule:nonzero;fill:rgb(39.99939%,39.99939%,39.99939%);fill-opacity:0.3;" d="M 121.582031 336.257812 L 123.398438 336.855469 L 121.269531 342.5 L 119.542969 341.953125 Z M 121.582031 336.257812 "/>
<path style=" stroke:none;fill-rule:nonzero;fill:rgb(39.99939%,39.99939%,39.99939%);fill-opacity:0.3;" d="M 118.667969 357.4375 L 74.148438 346.726562 L 73.667969 345.746094 L 73.667969 344.542969 L 74.304688 342.359375 L 74.945312 339.496094 L 75.039062 337.773438 L 73.890625 330.257812 L 73.160156 325.398438 L 72.371094 319.71875 L 71.539062 318.347656 L 70.660156 317.519531 L 67.683594 316.195312 L 49.117188 309.863281 L 51.3125 289.054688 L 134.203125 311.738281 L 126.847656 333.269531 L 105.429688 327.171875 L 105.039062 328.585938 L 104.644531 330.003906 L 126.15625 336.117188 Z M 118.667969 357.4375 "/>
<path style=" stroke:none;fill-rule:nonzero;fill:rgb(39.99939%,39.99939%,39.99939%);fill-opacity:0.3;" d="M 76.328125 338.628906 L 81.402344 340 L 80.652344 342.449219 L 75.585938 341.085938 Z M 76.328125 338.628906 "/>
<path style=" stroke:none;fill-rule:nonzero;fill:rgb(39.99939%,39.99939%,39.99939%);fill-opacity:0.3;" d="M 138.066406 312.054688 L 197.789062 328.359375 L 191.511719 350.992188 L 130.878906 334.527344 Z M 138.066406 312.054688 "/>
<g clip-path="url(#clip5)" clip-rule="nonzero">
<path style=" stroke:none;fill-rule:nonzero;fill:rgb(39.99939%,39.99939%,39.99939%);fill-opacity:0.3;" d="M 86.398438 352.050781 L 183.1875 377.671875 L 175.171875 400.320312 L 128.960938 387.136719 L 131.203125 376.226562 L 130.167969 375.957031 L 128.675781 375.5625 L 123.484375 398.980469 L 125.167969 399.242188 L 122.71875 411.648438 L 110.796875 408.410156 L 112.253906 393.253906 L 112.714844 386.527344 L 111.796875 386.488281 L 110.867188 386.449219 L 110.398438 390.964844 L 88.0625 385.507812 L 94.203125 360.558594 Z M 86.398438 352.050781 "/>
</g>
<path style=" stroke:none;fill-rule:nonzero;fill:rgb(39.99939%,39.99939%,39.99939%);fill-opacity:0.3;" d="M 119.105469 342.777344 L 120.917969 343.375 L 118.789062 349.019531 L 117.0625 348.472656 Z M 119.105469 342.777344 "/>
<path style=" stroke:none;fill-rule:nonzero;fill:rgb(39.99939%,39.99939%,39.99939%);fill-opacity:0.3;" d="M 111.898438 348.507812 L 116.96875 349.878906 L 116.21875 352.328125 L 111.152344 350.964844 Z M 111.898438 348.507812 "/>
<path style=" stroke:none;fill-rule:nonzero;fill:rgb(39.99939%,39.99939%,39.99939%);fill-opacity:0.3;" d="M 106.945312 335.730469 L 112.015625 337.101562 L 111.265625 339.550781 L 106.199219 338.183594 Z M 106.945312 335.730469 "/>
<path style=" stroke:none;fill-rule:nonzero;fill:rgb(39.99939%,39.99939%,39.99939%);fill-opacity:0.3;" d="M 113.542969 333.742188 L 118.617188 335.113281 L 117.863281 337.5625 L 112.800781 336.195312 Z M 113.542969 333.742188 "/>
<path style=" stroke:none;fill-rule:nonzero;fill:rgb(39.99939%,39.99939%,39.99939%);fill-opacity:0.3;" d="M 106.671875 332.136719 L 111.746094 333.507812 L 110.992188 335.957031 L 105.925781 334.589844 Z M 106.671875 332.136719 "/>
<path style=" stroke:none;fill-rule:nonzero;fill:rgb(39.99939%,39.99939%,39.99939%);fill-opacity:0.3;" d="M 99.738281 330.25 L 104.8125 331.621094 L 104.0625 334.070312 L 98.996094 332.703125 Z M 99.738281 330.25 "/>
<path style=" stroke:none;fill-rule:nonzero;fill:rgb(39.99939%,39.99939%,39.99939%);fill-opacity:0.3;" d="M 99.449219 334.742188 L 104.523438 336.113281 L 103.769531 338.5625 L 98.703125 337.195312 Z M 99.449219 334.742188 "/>
<path style=" stroke:none;fill-rule:nonzero;fill:rgb(39.99939%,39.99939%,39.99939%);fill-opacity:0.3;" d="M 105.972656 342.691406 L 111.046875 344.0625 L 110.296875 346.511719 L 105.230469 345.144531 Z M 105.972656 342.691406 "/>
<path style=" stroke:none;fill-rule:nonzero;fill:rgb(39.99939%,39.99939%,39.99939%);fill-opacity:0.3;" d="M 99.261719 341.117188 L 104.332031 342.488281 L 103.582031 344.9375 L 98.515625 343.574219 Z M 99.261719 341.117188 "/>
<path style=" stroke:none;fill-rule:nonzero;fill:rgb(39.99939%,39.99939%,39.99939%);fill-opacity:0.3;" d="M 91.636719 338.519531 L 96.710938 339.890625 L 95.960938 342.339844 L 90.894531 340.972656 Z M 91.636719 338.519531 "/>
<path style=" stroke:none;fill-rule:nonzero;fill:rgb(39.99939%,39.99939%,39.99939%);fill-opacity:0.3;" d="M 84.605469 336.628906 L 89.679688 338 L 88.925781 340.449219 L 83.859375 339.082031 Z M 84.605469 336.628906 "/>
<path style=" stroke:none;fill-rule:nonzero;fill:rgb(39.99939%,39.99939%,39.99939%);fill-opacity:0.3;" d="M 76.886719 334.695312 L 81.960938 336.0625 L 81.207031 338.511719 L 76.140625 337.148438 Z M 76.886719 334.695312 "/>
<path style=" stroke:none;fill-rule:nonzero;fill:rgb(39.99939%,39.99939%,39.99939%);fill-opacity:0.3;" d="M 104.863281 346.394531 L 109.933594 347.765625 L 109.183594 350.214844 L 104.117188 348.847656 Z M 104.863281 346.394531 "/>
<path style=" stroke:none;fill-rule:nonzero;fill:rgb(39.99939%,39.99939%,39.99939%);fill-opacity:0.3;" d="M 97.703125 344.351562 L 102.777344 345.722656 L 102.023438 348.171875 L 96.960938 346.808594 Z M 97.703125 344.351562 "/>
<path style=" stroke:none;fill-rule:nonzero;fill:rgb(39.99939%,39.99939%,39.99939%);fill-opacity:0.3;" d="M 90.511719 342.421875 L 95.585938 343.792969 L 94.835938 346.242188 L 89.769531 344.875 Z M 90.511719 342.421875 "/>
<path style=" stroke:none;fill-rule:nonzero;fill:rgb(39.99939%,39.99939%,39.99939%);fill-opacity:0.3;" d="M 82.296875 340.222656 L 87.371094 341.59375 L 86.617188 344.042969 L 81.554688 342.675781 Z M 82.296875 340.222656 "/>
<g clip-path="url(#clip6)" clip-rule="nonzero">
<path style=" stroke:none;fill-rule:nonzero;fill:rgb(39.99939%,39.99939%,39.99939%);fill-opacity:0.3;" d="M 396.625 198.980469 L 396.859375 198.226562 L 397.070312 197.546875 L 385.730469 194.46875 L 382.46875 207.511719 L 377.535156 206.289062 L 332.328125 191.492188 L 342.625 159.578125 L 387.9375 172.007812 L 437.316406 186.417969 L 435.539062 196.855469 L 438.617188 197.550781 L 440.699219 187.515625 L 494.292969 203.6875 L 487.945312 225.546875 L 483.0625 224.761719 L 479.480469 235.925781 L 438.527344 223.160156 L 412.699219 215.140625 L 392.082031 209.933594 L 383.605469 207.792969 L 386.410156 195.992188 Z M 396.625 198.980469 "/>
</g>
<g clip-path="url(#clip7)" clip-rule="nonzero">
<path style=" stroke:none;fill-rule:nonzero;fill:rgb(39.99939%,39.99939%,39.99939%);fill-opacity:0.3;" d="M 317.304688 233.449219 L 321.359375 220.445312 L 321.851562 219.195312 L 364.355469 234.015625 L 352.667969 265.445312 L 347.519531 263.417969 L 353.363281 247.027344 L 352.328125 246.855469 L 350.933594 246.625 L 345.433594 262.464844 L 330.066406 257.105469 L 325.898438 249.09375 L 321.523438 240.488281 Z M 317.304688 233.449219 "/>
</g>
<g clip-path="url(#clip8)" clip-rule="nonzero">
<path style=" stroke:none;fill-rule:nonzero;fill:rgb(39.99939%,39.99939%,39.99939%);fill-opacity:0.3;" d="M 374.320312 208.234375 L 365.273438 232.40625 L 323.09375 217.699219 L 331.042969 194.109375 Z M 374.320312 208.234375 "/>
</g>
<path style=" stroke:none;fill-rule:nonzero;fill:rgb(39.99939%,39.99939%,39.99939%);fill-opacity:0.3;" d="M 346.710938 284.226562 L 334.367188 262.800781 L 352.917969 269.386719 Z M 346.710938 284.226562 "/>
<g clip-path="url(#clip9)" clip-rule="nonzero">
<path style=" stroke:none;fill-rule:nonzero;fill:rgb(39.99939%,39.99939%,39.99939%);fill-opacity:0.3;" d="M 503.746094 187.804688 L 503.496094 192.746094 L 509.820312 194.6875 L 564.8125 212.085938 L 561.167969 221.253906 L 416.570312 178.867188 L 420.992188 168.59375 L 419.339844 167.945312 L 417.683594 167.292969 L 413.210938 177.808594 L 343.246094 158.371094 L 347.667969 141.722656 Z M 503.746094 187.804688 "/>
</g>
<path style=" stroke:none;fill-rule:nonzero;fill:rgb(39.99939%,39.99939%,39.99939%);fill-opacity:0.3;" d="M 354.621094 141.484375 L 348.910156 140 L 349.050781 139.414062 Z M 354.621094 141.484375 "/>
<g clip-path="url(#clip10)" clip-rule="nonzero">
<path style=" stroke:none;fill-rule:nonzero;fill:rgb(39.99939%,39.99939%,39.99939%);fill-opacity:0.3;" d="M 367.128906 235.703125 L 397.730469 246.359375 L 385.71875 277.601562 L 355.125 266.796875 Z M 367.128906 235.703125 "/>
</g>
<g clip-path="url(#clip11)" clip-rule="nonzero">
<path style=" stroke:none;fill-rule:nonzero;fill:rgb(39.99939%,39.99939%,39.99939%);fill-opacity:0.3;" d="M 354.996094 269.972656 L 386.070312 280.585938 L 374.886719 311.777344 L 357.574219 306.207031 L 347.855469 286.027344 Z M 354.996094 269.972656 "/>
</g>
<g clip-path="url(#clip12)" clip-rule="nonzero">
<path style=" stroke:none;fill-rule:nonzero;fill:rgb(39.99939%,39.99939%,39.99939%);fill-opacity:0.3;" d="M -5.425781 352.667969 L 41.015625 365.835938 L 40.253906 370.027344 L 38.609375 375.175781 L 37.21875 379.246094 L 35.414062 383.238281 L 34.402344 385.753906 L 33.351562 388.105469 L -10.203125 374.96875 Z M -5.425781 352.667969 "/>
</g>
<g clip-path="url(#clip13)" clip-rule="nonzero">
<path style=" stroke:none;fill-rule:nonzero;fill:rgb(39.99939%,39.99939%,39.99939%);fill-opacity:0.3;" d="M -0.679688 327.78125 L 43.34375 340.480469 L 40.84375 363.570312 L -4.863281 350.285156 Z M -0.679688 327.78125 "/>
</g>
<path style=" stroke:none;fill-rule:nonzero;fill:rgb(39.99939%,39.99939%,39.99939%);fill-opacity:0.3;" d="M 6.75 301.925781 L 46.21875 312.722656 L 43.636719 338.144531 L -0.121094 325.519531 Z M 6.75 301.925781 "/>
<path style=" stroke:none;fill-rule:nonzero;fill:rgb(39.99939%,39.99939%,39.99939%);fill-opacity:0.3;" d="M 5.023438 301.5625 L -1.796875 325.015625 L -68.382812 305.804688 L -61.890625 281.730469 Z M 5.023438 301.5625 "/>
<path style=" stroke:none;fill-rule:nonzero;fill:rgb(39.99939%,39.99939%,39.99939%);fill-opacity:0.3;" d="M 318.429688 114.167969 L 321.601562 104.695312 L 352.148438 113.554688 L 342.070312 148.492188 L 334.707031 146.320312 L 337.617188 137.757812 L 335.878906 137.234375 L 334.144531 136.710938 L 330.953125 145.269531 L 310.214844 138.683594 Z M 318.429688 114.167969 "/>
<path style=" stroke:none;fill-rule:nonzero;fill:rgb(39.99939%,39.99939%,39.99939%);fill-opacity:0.3;" d="M 181.875 106.011719 L 193.125 108.496094 L 198.984375 114.167969 L 228.949219 143.183594 L 228.320312 146.902344 L 227.695312 150.328125 L 190.308594 114.167969 Z M 181.875 106.011719 "/>
<path style=" stroke:none;fill-rule:nonzero;fill:rgb(39.99939%,39.99939%,39.99939%);fill-opacity:0.3;" d="M 204.9375 110.390625 L 217.019531 114.167969 L 237 120.414062 L 234.496094 127.976562 L 233.234375 133.757812 L 232.503906 137.300781 L 225.058594 134.828125 L 204.945312 114.167969 L 203.871094 113.070312 Z M 204.9375 110.390625 "/>
<path style=" stroke:none;fill-rule:nonzero;fill:rgb(39.99939%,39.99939%,39.99939%);fill-opacity:0.3;" d="M 267.835938 87.800781 L 283.480469 92.492188 L 276.5625 114.167969 L 274.320312 121.195312 L 271.796875 121.140625 L 269.148438 121.917969 L 267.1875 123.175781 L 265.933594 124.96875 L 257.304688 122.289062 L 259.785156 114.167969 Z M 267.835938 87.800781 "/>
<path style=" stroke:none;fill-rule:nonzero;fill:rgb(39.99939%,39.99939%,39.99939%);fill-opacity:0.3;" d="M 251.882812 82.617188 L 265.097656 86.675781 L 256.957031 114.167969 L 254.773438 121.542969 L 246.234375 118.777344 L 247.804688 114.167969 L 248.917969 110.910156 L 248.046875 110.6875 L 247.175781 110.460938 L 245.789062 114.167969 L 244.253906 118.257812 L 240.027344 116.992188 L 241 114.167969 Z M 251.882812 82.617188 "/>
<path style=" stroke:none;fill-rule:nonzero;fill:rgb(39.99939%,39.99939%,39.99939%);fill-opacity:0.3;" d="M 217.941406 72.289062 L 235.082031 77.492188 L 229.460938 95.011719 L 230.929688 95.359375 L 232.398438 95.703125 L 238.019531 78.414062 L 249.746094 81.878906 L 239.128906 114.167969 L 238.410156 116.347656 L 231.203125 114.167969 L 206.207031 106.617188 Z M 217.941406 72.289062 "/>
<path style=" stroke:none;fill-rule:nonzero;fill:rgb(39.99939%,39.99939%,39.99939%);fill-opacity:0.3;" d="M 319.496094 104.183594 L 316.117188 114.167969 L 307.992188 138.15625 L 292.558594 133.308594 L 298.738281 114.167969 L 303.65625 98.933594 Z M 319.496094 104.183594 "/>
<path style=" stroke:none;fill-rule:nonzero;fill:rgb(39.99939%,39.99939%,39.99939%);fill-opacity:0.3;" d="M 321.359375 220.445312 L 321.757812 219.164062 L 321.851562 219.195312 Z M 321.359375 220.445312 "/>
<path style=" stroke:none;fill-rule:nonzero;fill:rgb(39.99939%,39.99939%,39.99939%);fill-opacity:0.3;" d="M 287.742188 206.421875 L 290.601562 199.363281 L 301.746094 212.175781 L 307.316406 218.585938 L 315.621094 228.300781 L 312.675781 236.214844 L 304.800781 226.28125 L 298.050781 217.949219 Z M 287.742188 206.421875 "/>
<path style=" stroke:none;fill-rule:nonzero;fill:rgb(39.99939%,39.99939%,39.99939%);fill-opacity:0.3;" d="M 292.953125 198.171875 L 322.613281 207.410156 L 316.574219 226.246094 L 310.046875 218.015625 L 297.613281 203.316406 Z M 292.953125 198.171875 "/>
<path style=" stroke:none;fill-rule:nonzero;fill:rgb(39.99939%,39.99939%,39.99939%);fill-opacity:0.3;" d="M 292.269531 195.609375 L 297.085938 179.734375 L 328.738281 188.335938 L 323.230469 204.613281 Z M 292.269531 195.609375 "/>
<path style=" stroke:none;fill-rule:nonzero;fill:rgb(39.99939%,39.99939%,39.99939%);fill-opacity:0.3;" d="M 301.988281 98.542969 L 296.78125 114.167969 L 290.621094 132.648438 L 280.949219 129.734375 L 281.011719 127.882812 L 280.632812 126.328125 L 280.125 124.894531 L 278.988281 123.460938 L 277.664062 122.566406 L 280.550781 114.167969 L 287.484375 93.984375 Z M 301.988281 98.542969 "/>
<path style=" stroke:none;fill-rule:nonzero;fill:rgb(39.99939%,39.99939%,39.99939%);fill-opacity:0.3;" d="M 130.226562 51.296875 L 134.1875 50.054688 L 140.660156 52.253906 L 187.378906 100.890625 L 174.71875 98.9375 Z M 130.226562 51.296875 "/>
<path style=" stroke:none;fill-rule:nonzero;fill:rgb(39.99939%,39.99939%,39.99939%);fill-opacity:0.3;" d="M 144.539062 51.765625 L 188.945312 64.777344 L 183.660156 78.828125 L 184.644531 79.253906 L 185.628906 79.683594 L 190.914062 65.492188 L 214.472656 71.253906 L 203.703125 104.40625 L 193.050781 102.589844 Z M 144.539062 51.765625 "/>
<path style=" stroke:none;fill-rule:nonzero;fill:rgb(39.99939%,39.99939%,39.99939%);fill-opacity:0.3;" d="M 263.28125 169.757812 L 294.785156 178.917969 L 289.769531 195.191406 L 262.878906 171.296875 Z M 263.28125 169.757812 "/>
<path style=" stroke:none;fill-rule:nonzero;fill:rgb(39.99939%,39.99939%,39.99939%);fill-opacity:0.3;" d="M 263.984375 167.761719 L 268.78125 150.988281 L 300.367188 160.703125 L 295.410156 176.699219 Z M 263.984375 167.761719 "/>
<path style=" stroke:none;fill-rule:nonzero;fill:rgb(39.99939%,39.99939%,39.99939%);fill-opacity:0.3;" d="M 264.597656 149.621094 L 259.984375 165.652344 L 240.167969 150.875 L 238.875 149.144531 L 238.261719 146.910156 L 237.804688 144.027344 L 237.574219 141.214844 Z M 264.597656 149.621094 "/>
<path style=" stroke:none;fill-rule:nonzero;fill:rgb(39.99939%,39.99939%,39.99939%);fill-opacity:0.3;" d="M 230.675781 144.964844 L 235.867188 150.914062 L 237.441406 160.886719 L 229.582031 151.515625 Z M 230.675781 144.964844 "/>
<path style=" stroke:none;fill-rule:nonzero;fill:rgb(39.99939%,39.99939%,39.99939%);fill-opacity:0.3;" d="M 239.480469 154.035156 L 257.875 171.285156 L 256.152344 178.285156 L 241.84375 162.667969 Z M 239.480469 154.035156 "/>
<path style=" stroke:none;fill-rule:nonzero;fill:rgb(39.99939%,39.99939%,39.99939%);fill-opacity:0.3;" d="M 264.226562 128.996094 L 265.015625 129.195312 L 265.183594 131.066406 L 266.066406 132.917969 L 267.328125 134.351562 L 269.09375 135.542969 L 265.28125 147.023438 L 237.496094 138.332031 L 236.804688 135.390625 L 236.800781 131.679688 L 237.375 127.535156 L 239.515625 121.136719 Z M 264.226562 128.996094 "/>
<path style=" stroke:none;fill-rule:nonzero;fill:rgb(39.99939%,39.99939%,39.99939%);fill-opacity:0.3;" d="M 272.878906 136.496094 L 275.339844 136.136719 L 277.671875 135.117188 L 278.746094 134.277344 L 279.511719 133.535156 L 306.121094 142.148438 L 301.050781 158.214844 L 269.542969 148.320312 Z M 272.878906 136.496094 "/>
<path style=" stroke:none;fill-rule:nonzero;fill:rgb(39.99939%,39.99939%,39.99939%);fill-opacity:0.3;" d="M 297.941406 177.394531 L 302.886719 161.335938 L 335.019531 171.214844 L 329.589844 186.449219 Z M 297.941406 177.394531 "/>
<path style=" stroke:none;fill-rule:nonzero;fill:rgb(39.99939%,39.99939%,39.99939%);fill-opacity:0.3;" d="M 303.609375 158.960938 L 308.683594 142.796875 L 340.929688 152.78125 L 335.824219 169.007812 Z M 303.609375 158.960938 "/>
<path style=" stroke:none;fill-rule:nonzero;fill:rgb(39.99939%,39.99939%,39.99939%);fill-opacity:0.3;" d="M 118.519531 54.5 L 175.300781 114.167969 L 207.179688 148.925781 L 207 149.082031 L 206.59375 148.691406 L 185.191406 129.359375 L 176.5625 119.695312 L 162.753906 105.886719 L 156.195312 98.292969 L 135.828125 75.164062 L 124.09375 62.394531 Z M 118.519531 54.5 "/>
<path style=" stroke:none;fill-rule:nonzero;fill:rgb(39.99939%,39.99939%,39.99939%);fill-opacity:0.3;" d="M 261.515625 173.800781 L 288.507812 198.417969 L 285.730469 204.707031 L 260.128906 181.609375 Z M 261.515625 173.800781 "/>
<path style=" stroke:none;fill-rule:nonzero;fill:rgb(39.99939%,39.99939%,39.99939%);fill-opacity:0.3;" d="M 343.429688 107.539062 L 332.152344 104.378906 L 330.09375 103.140625 L 330.035156 102.65625 L 338.109375 105.886719 Z M 343.429688 107.539062 "/>
<path style=" stroke:none;fill-rule:nonzero;fill:rgb(39.99939%,39.99939%,39.99939%);fill-opacity:0.3;" d="M 270.09375 221.9375 L 274.910156 221.921875 L 274.960938 224.476562 L 277.304688 224.46875 L 277.378906 226.894531 L 279.9375 226.878906 L 279.914062 229.28125 L 275.679688 229.308594 L 275.648438 226.886719 L 272.972656 226.875 L 272.976562 224.488281 L 270.074219 224.492188 Z M 270.09375 221.9375 "/>
<path style=" stroke:none;fill-rule:nonzero;fill:rgb(39.99939%,39.99939%,39.99939%);fill-opacity:0.3;" d="M 263.664062 214.640625 L 267.367188 214.640625 L 267.351562 232.839844 L 263.683594 232.84375 Z M 263.664062 214.640625 "/>
<path style=" stroke:none;fill-rule:nonzero;fill:rgb(39.99939%,39.99939%,39.99939%);fill-opacity:0.3;" d="M 252.863281 262.59375 L 275.941406 262.574219 L 275.941406 266.472656 L 252.867188 266.496094 Z M 252.863281 262.59375 "/>
<path style=" stroke:none;fill-rule:nonzero;fill:rgb(39.99939%,39.99939%,39.99939%);fill-opacity:0.3;" d="M 209.183594 267.539062 L 224.980469 267.523438 L 224.984375 272.203125 L 209.1875 272.21875 Z M 209.183594 267.539062 "/>
<path style=" stroke:none;fill-rule:nonzero;fill:rgb(39.99939%,39.99939%,39.99939%);fill-opacity:0.3;" d="M 278.222656 234.078125 L 285.882812 234.070312 L 285.882812 246.035156 L 278.234375 246.023438 Z M 278.222656 234.078125 "/>
<path style=" stroke:none;fill-rule:nonzero;fill:rgb(39.99939%,39.99939%,39.99939%);fill-opacity:0.3;" d="M 254.703125 241.648438 L 258.308594 241.671875 L 258.304688 259.257812 L 254.601562 259.261719 Z M 254.703125 241.648438 "/>
<path style=" stroke:none;fill-rule:nonzero;fill:rgb(39.99939%,39.99939%,39.99939%);fill-opacity:0.3;" d="M 172.402344 275.984375 L 179.398438 275.984375 L 179.417969 289.25 L 172.324219 289.242188 Z M 172.402344 275.984375 "/>
<path style=" stroke:none;fill-rule:nonzero;fill:rgb(39.99939%,39.99939%,39.99939%);fill-opacity:0.3;" d="M 164.277344 277.730469 L 171.273438 277.730469 L 171.292969 290.996094 L 164.195312 290.988281 Z M 164.277344 277.730469 "/>
<path style=" stroke:none;fill-rule:nonzero;fill:rgb(39.99939%,39.99939%,39.99939%);fill-opacity:0.3;" d="M 156.371094 277.707031 L 163.367188 277.710938 L 163.386719 290.976562 L 156.292969 290.96875 Z M 156.371094 277.707031 "/>
<path style=" stroke:none;fill-rule:nonzero;fill:rgb(39.99939%,39.99939%,39.99939%);fill-opacity:0.3;" d="M 248.660156 281.085938 L 264.457031 281.074219 L 264.460938 285.753906 L 248.664062 285.765625 Z M 248.660156 281.085938 "/>
<path style=" stroke:none;fill-rule:nonzero;fill:rgb(39.99939%,39.99939%,39.99939%);fill-opacity:0.3;" d="M 262.007812 342.945312 L 270.808594 317 L 282.578125 282.316406 L 283.289062 280.222656 L 284.652344 276.5625 L 283.222656 281.242188 L 262.601562 343.113281 Z M 262.007812 342.945312 "/>
<path style=" stroke:none;fill-rule:nonzero;fill:rgb(39.99939%,39.99939%,39.99939%);fill-opacity:0.3;" d="M 209.261719 231.410156 L 250.953125 244.800781 L 242.753906 268.742188 L 200.730469 256.3125 Z M 209.261719 231.410156 "/>
<path style=" stroke:none;fill-rule:nonzero;fill:rgb(39.99939%,39.99939%,39.99939%);fill-opacity:0.3;" d="M 212.820312 321.222656 L 212.824219 300.730469 L 220.246094 300.722656 L 220.222656 321.21875 Z M 212.820312 321.222656 "/>
<path style=" stroke:none;fill-rule:nonzero;fill:rgb(39.99939%,39.99939%,39.99939%);fill-opacity:0.3;" d="M 207 149.082031 L 202.164062 153.328125 L 196.820312 158.804688 L 191.691406 163.46875 L 187.84375 168.335938 L 185.910156 172.511719 L 183.726562 177.515625 L 182.472656 177.164062 L 187.261719 168.710938 L 189.679688 165.949219 L 192.09375 162.84375 L 206.59375 148.691406 Z M 207 149.082031 "/>
<path style=" stroke:none;fill-rule:nonzero;fill:rgb(39.99939%,39.99939%,39.99939%);fill-opacity:0.3;" d="M 245.628906 219.300781 L 249.589844 219.296875 L 249.597656 228.574219 L 245.632812 228.578125 Z M 245.628906 219.300781 "/>
<path style=" stroke:none;fill-rule:nonzero;fill:rgb(39.99939%,39.99939%,39.99939%);fill-opacity:0.3;" d="M 210.246094 219.761719 L 223.765625 219.746094 L 223.769531 223.390625 L 210.246094 223.40625 Z M 210.246094 219.761719 "/>
<path style=" stroke:none;fill-rule:nonzero;fill:rgb(39.99939%,39.99939%,39.99939%);fill-opacity:0.3;" d="M 227.382812 226.160156 L 244.738281 226.144531 L 244.738281 229.851562 L 227.386719 229.867188 Z M 227.382812 226.160156 "/>
<path style=" stroke:none;fill-rule:nonzero;fill:rgb(39.99939%,39.99939%,39.99939%);fill-opacity:0.3;" d="M 185.433594 213.136719 L 202.789062 213.121094 L 202.789062 216.832031 L 185.4375 216.847656 Z M 185.433594 213.136719 "/>
<path style=" stroke:none;fill-rule:nonzero;fill:rgb(39.99939%,39.99939%,39.99939%);fill-opacity:0.3;" d="M 230.679688 183.703125 L 235.324219 183.699219 L 235.332031 194.832031 L 230.6875 194.839844 Z M 230.679688 183.703125 "/>
<path style=" stroke:none;fill-rule:nonzero;fill:rgb(39.99939%,39.99939%,39.99939%);fill-opacity:0.3;" d="M 183.117188 191.125 L 190.707031 191.117188 L 190.714844 210.34375 L 183.128906 210.351562 Z M 183.117188 191.125 "/>
<path style=" stroke:none;fill-rule:nonzero;fill:rgb(39.99939%,39.99939%,39.99939%);fill-opacity:0.3;" d="M 198.09375 165.695312 L 215.445312 165.675781 L 215.445312 169.386719 L 198.097656 169.402344 Z M 198.09375 165.695312 "/>
<path style=" stroke:none;fill-rule:nonzero;fill:rgb(39.99939%,39.99939%,39.99939%);fill-opacity:0.3;" d="M 192.09375 166.195312 L 196.269531 166.191406 L 196.277344 182.011719 L 192.101562 182.015625 Z M 192.09375 166.195312 "/>
<path style=" stroke:none;fill-rule:nonzero;fill:rgb(39.99939%,39.99939%,39.99939%);fill-opacity:0.3;" d="M 225.941406 204.03125 L 233.527344 204.023438 L 233.542969 223.25 L 225.953125 223.257812 Z M 225.941406 204.03125 "/>
<path style=" stroke:none;fill-rule:nonzero;fill:rgb(39.99939%,39.99939%,39.99939%);fill-opacity:0.3;" d="M 204.277344 198.199219 L 211.863281 198.191406 L 211.875 217.417969 L 204.289062 217.425781 Z M 204.277344 198.199219 "/>
<path style=" stroke:none;fill-rule:nonzero;fill:rgb(39.99939%,39.99939%,39.99939%);fill-opacity:0.3;" d="M 209.925781 170.148438 L 217.511719 170.140625 L 217.523438 189.367188 L 209.9375 189.371094 Z M 209.925781 170.148438 "/>
<path style=" stroke:none;fill-rule:nonzero;fill:rgb(39.99939%,39.99939%,39.99939%);fill-opacity:0.3;" d="M 201.441406 184.214844 L 209.101562 184.207031 L 209.097656 196.167969 L 201.449219 196.15625 Z M 201.441406 184.214844 "/>
<path style=" stroke:none;fill-rule:nonzero;fill:rgb(39.99939%,39.99939%,39.99939%);fill-opacity:0.3;" d="M 192.640625 186.15625 L 200.300781 186.148438 L 200.296875 198.109375 L 192.652344 198.101562 Z M 192.640625 186.15625 "/>
<path style=" stroke:none;fill-rule:nonzero;fill:rgb(39.99939%,39.99939%,39.99939%);fill-opacity:0.3;" d="M 213.445312 191.027344 L 221.105469 191.019531 L 221.101562 202.980469 L 213.457031 202.96875 Z M 213.445312 191.027344 "/>
<path style=" stroke:none;fill-rule:nonzero;fill:rgb(39.99939%,39.99939%,39.99939%);fill-opacity:0.3;" d="M 222.417969 190.96875 L 230.078125 190.957031 L 230.074219 202.921875 L 222.429688 202.910156 Z M 222.417969 190.96875 "/>
<path style=" stroke:none;fill-rule:nonzero;fill:rgb(39.99939%,39.99939%,39.99939%);fill-opacity:0.3;" d="M 243.765625 196.558594 L 251.425781 196.550781 L 251.421875 208.511719 L 243.777344 208.503906 Z M 243.765625 196.558594 "/>
<path style=" stroke:none;fill-rule:nonzero;fill:rgb(39.99939%,39.99939%,39.99939%);fill-opacity:0.3;" d="M 234.363281 199.488281 L 242.023438 199.480469 L 242.019531 211.441406 L 234.375 211.429688 Z M 234.363281 199.488281 "/>
<path style=" stroke:none;fill-rule:nonzero;fill:rgb(39.99939%,39.99939%,39.99939%);fill-opacity:0.3;" d="M 200.976562 302.78125 L 200.972656 290 L 208.464844 290.015625 L 208.460938 302.777344 Z M 200.976562 302.78125 "/>
<path style=" stroke:none;fill-rule:nonzero;fill:rgb(39.99939%,39.99939%,39.99939%);fill-opacity:0.3;" d="M 232.5 274.769531 L 248.296875 274.757812 L 248.296875 279.4375 L 232.503906 279.449219 Z M 232.5 274.769531 "/>
<path style=" stroke:none;fill-rule:nonzero;fill:rgb(39.99939%,39.99939%,39.99939%);fill-opacity:0.3;" d="M 297.007812 241.371094 L 302.15625 248.558594 L 292.398438 257.785156 Z M 297.007812 241.371094 "/>
<path style=" stroke:none;fill-rule:nonzero;fill:rgb(39.99939%,39.99939%,39.99939%);fill-opacity:0.3;" d="M 198.003906 287.585938 L 198.007812 267.097656 L 205.429688 267.089844 L 205.40625 287.582031 Z M 198.003906 287.585938 "/>
<path style=" stroke:none;fill-rule:nonzero;fill:rgb(39.99939%,39.99939%,39.99939%);fill-opacity:0.3;" d="M 238.652344 301.082031 L 238.65625 280.589844 L 246.078125 280.582031 L 246.058594 301.078125 Z M 238.652344 301.082031 "/>
<path style=" stroke:none;fill-rule:nonzero;fill:rgb(39.99939%,39.99939%,39.99939%);fill-opacity:0.3;" d="M 218.160156 294.054688 L 218.167969 273.5625 L 225.585938 273.550781 L 225.566406 294.046875 Z M 218.160156 294.054688 "/>
<path style=" stroke:none;fill-rule:nonzero;fill:rgb(39.99939%,39.99939%,39.99939%);fill-opacity:0.3;" d="M 250.585938 315.066406 L 250.582031 302.285156 L 258.074219 302.300781 L 258.074219 315.0625 Z M 250.585938 315.066406 "/>
<path style=" stroke:none;fill-rule:nonzero;fill:rgb(39.99939%,39.99939%,39.99939%);fill-opacity:0.3;" d="M 230.050781 306.199219 L 230.046875 293.417969 L 237.539062 293.433594 L 237.539062 306.191406 Z M 230.050781 306.199219 "/>
<path style=" stroke:none;fill-rule:nonzero;fill:rgb(39.99939%,39.99939%,39.99939%);fill-opacity:0.3;" d="M 259.328125 306.851562 L 259.332031 286.359375 L 266.753906 286.351562 L 266.734375 306.847656 Z M 259.328125 306.851562 "/>
<path style=" stroke:none;fill-rule:nonzero;fill:rgb(39.99939%,39.99939%,39.99939%);fill-opacity:0.3;" d="M 241.824219 315.074219 L 241.820312 302.292969 L 249.3125 302.308594 L 249.3125 315.070312 Z M 241.824219 315.074219 "/>
<path style=" stroke:none;fill-rule:nonzero;fill:rgb(39.99939%,39.99939%,39.99939%);fill-opacity:0.3;" d="M 233.34375 327.972656 L 233.347656 307.480469 L 240.765625 307.472656 L 240.746094 327.96875 Z M 233.34375 327.972656 "/>
<path style=" stroke:none;fill-rule:nonzero;fill:rgb(39.99939%,39.99939%,39.99939%);fill-opacity:0.3;" d="M 220.960938 309.335938 L 220.960938 296.558594 L 228.453125 296.570312 L 228.449219 309.332031 Z M 220.960938 309.335938 "/>
<path style=" stroke:none;fill-rule:nonzero;fill:rgb(39.99939%,39.99939%,39.99939%);fill-opacity:0.3;" d="M 151.957031 306.695312 L 171.046875 306.683594 L 171.050781 310.425781 L 151.960938 310.441406 Z M 151.957031 306.695312 "/>
<path style=" stroke:none;fill-rule:nonzero;fill:rgb(39.99939%,39.99939%,39.99939%);fill-opacity:0.3;" d="M 172.550781 290.898438 L 176.527344 290.972656 L 176.539062 308.867188 L 172.589844 308.871094 Z M 172.550781 290.898438 "/>
<path style=" stroke:none;fill-rule:nonzero;fill:rgb(39.99939%,39.99939%,39.99939%);fill-opacity:0.3;" d="M 253.636719 332.070312 L 253.625 317.089844 L 258.558594 317.085938 L 258.570312 332.066406 Z M 253.636719 332.070312 "/>
<path style=" stroke:none;fill-rule:nonzero;fill:rgb(39.99939%,39.99939%,39.99939%);fill-opacity:0.3;" d="M 236.707031 329.75 L 252.503906 329.742188 L 252.507812 334.421875 L 236.710938 334.433594 Z M 236.707031 329.75 "/>
<path style=" stroke:none;fill-rule:nonzero;fill:rgb(39.99939%,39.99939%,39.99939%);fill-opacity:0.3;" d="M 215.613281 323.027344 L 231.410156 323.015625 L 231.414062 327.699219 L 215.613281 327.707031 Z M 215.613281 323.027344 "/>
<path style=" stroke:none;fill-rule:nonzero;fill:rgb(39.99939%,39.99939%,39.99939%);fill-opacity:0.3;" d="M 210.367188 298.285156 L 210.355469 283.308594 L 215.292969 283.304688 L 215.300781 298.28125 Z M 210.367188 298.285156 "/>
<path style=" stroke:none;fill-rule:nonzero;fill:rgb(39.99939%,39.99939%,39.99939%);fill-opacity:0.3;" d="M 191.574219 314.050781 L 191.582031 293.558594 L 199.003906 293.550781 L 198.980469 314.042969 Z M 191.574219 314.050781 "/>
<path style=" stroke:none;fill-rule:nonzero;fill:rgb(39.99939%,39.99939%,39.99939%);fill-opacity:0.3;" d="M 194.558594 317.585938 L 210.355469 317.574219 L 210.359375 322.253906 L 194.558594 322.265625 Z M 194.558594 317.585938 "/>
<path style=" stroke:none;fill-rule:nonzero;fill:rgb(39.99939%,39.99939%,39.99939%);fill-opacity:0.3;" d="M 276.894531 247.457031 L 280.597656 247.457031 L 280.582031 265.65625 L 276.914062 265.660156 Z M 276.894531 247.457031 "/>
<path style=" stroke:none;fill-rule:nonzero;fill:rgb(39.99939%,39.99939%,39.99939%);fill-opacity:0.3;" d="M 259.867188 235.882812 L 267.527344 235.871094 L 267.523438 247.835938 L 259.875 247.824219 Z M 259.867188 235.882812 "/>
<path style=" stroke:none;fill-rule:nonzero;fill:rgb(39.99939%,39.99939%,39.99939%);fill-opacity:0.3;" d="M 268.863281 234.085938 L 276.519531 234.078125 L 276.519531 246.042969 L 268.871094 246.03125 Z M 268.863281 234.085938 "/>
<path style=" stroke:none;fill-rule:nonzero;fill:rgb(39.99939%,39.99939%,39.99939%);fill-opacity:0.3;" d="M 168.398438 229.492188 L 172.371094 229.492188 L 172.382812 247.472656 L 168.433594 247.476562 Z M 168.398438 229.492188 "/>
<path style=" stroke:none;fill-rule:nonzero;fill:rgb(39.99939%,39.99939%,39.99939%);fill-opacity:0.3;" d="M 165.195312 248.433594 L 172.1875 248.433594 L 172.210938 261.699219 L 165.113281 261.691406 Z M 165.195312 248.433594 "/>
<path style=" stroke:none;fill-rule:nonzero;fill:rgb(39.99939%,39.99939%,39.99939%);fill-opacity:0.3;" d="M 182.894531 248.382812 L 189.890625 248.382812 L 189.910156 261.648438 L 182.8125 261.640625 Z M 182.894531 248.382812 "/>
<path style=" stroke:none;fill-rule:nonzero;fill:rgb(39.99939%,39.99939%,39.99939%);fill-opacity:0.3;" d="M 191.949219 235.378906 L 195.921875 235.449219 L 195.933594 253.347656 L 191.984375 253.351562 Z M 191.949219 235.378906 "/>
<path style=" stroke:none;fill-rule:nonzero;fill:rgb(39.99939%,39.99939%,39.99939%);fill-opacity:0.3;" d="M 158.1875 257.390625 L 162.160156 257.390625 L 162.167969 275.371094 L 158.21875 275.375 Z M 158.1875 257.390625 "/>
<path style=" stroke:none;fill-rule:nonzero;fill:rgb(39.99939%,39.99939%,39.99939%);fill-opacity:0.3;" d="M 173.984375 248.464844 L 180.980469 248.464844 L 181 261.730469 L 173.90625 261.722656 Z M 173.984375 248.464844 "/>
<path style=" stroke:none;fill-rule:nonzero;fill:rgb(39.99939%,39.99939%,39.99939%);fill-opacity:0.3;" d="M 181.75 263.691406 L 185.699219 263.6875 L 185.707031 278.039062 L 181.757812 278.042969 Z M 181.75 263.691406 "/>
<path style=" stroke:none;fill-rule:nonzero;fill:rgb(39.99939%,39.99939%,39.99939%);fill-opacity:0.3;" d="M 176.410156 230.894531 L 195.496094 230.878906 L 195.496094 234.625 L 176.414062 234.640625 Z M 176.410156 230.894531 "/>
<path style=" stroke:none;fill-rule:nonzero;fill:rgb(39.99939%,39.99939%,39.99939%);fill-opacity:0.3;" d="M 149.117188 285.074219 L 153.089844 285.074219 L 153.101562 303.054688 L 149.152344 303.058594 Z M 149.117188 285.074219 "/>
<path style=" stroke:none;fill-rule:nonzero;fill:rgb(39.99939%,39.99939%,39.99939%);fill-opacity:0.3;" d="M 134.953125 167.554688 L 178.726562 179.84375 L 179.292969 181.8125 L 171.15625 205.273438 L 127.730469 192.410156 Z M 134.953125 167.554688 "/>
<path style=" stroke:none;fill-rule:nonzero;fill:rgb(39.99939%,39.99939%,39.99939%);fill-opacity:0.3;" d="M 145.472656 269.957031 L 143.585938 276.066406 L 137.738281 274.378906 L 139.695312 268.34375 Z M 145.472656 269.957031 "/>
<path style=" stroke:none;fill-rule:nonzero;fill:rgb(39.99939%,39.99939%,39.99939%);fill-opacity:0.3;" d="M 54.007812 256.273438 L 72.402344 261.285156 L 69.261719 269.839844 L 70.515625 270.230469 L 71.925781 270.671875 L 74.882812 262.242188 L 144.925781 280.773438 L 135.53125 308.570312 L 51.429688 286.492188 Z M 54.007812 256.273438 "/>
<path style=" stroke:none;fill-rule:nonzero;fill:rgb(39.99939%,39.99939%,39.99939%);fill-opacity:0.3;" d="M 66.585938 164.320312 L 73.796875 166.175781 L 71.394531 173.5625 L 72.488281 174.25 L 72.027344 176.675781 L 65.058594 174.394531 Z M 66.585938 164.320312 "/>
<path style=" stroke:none;fill-rule:nonzero;fill:rgb(39.99939%,39.99939%,39.99939%);fill-opacity:0.3;" d="M 87.648438 154.304688 L 81.761719 172.15625 L 84.894531 173.121094 L 82.671875 179.726562 L 74.613281 177.308594 L 74.988281 174.164062 L 73.679688 173.335938 L 75.863281 166.367188 L 77.535156 166.917969 L 81.820312 152.417969 Z M 87.648438 154.304688 "/>
<path style=" stroke:none;fill-rule:nonzero;fill:rgb(39.99939%,39.99939%,39.99939%);fill-opacity:0.3;" d="M 96.109375 156.675781 L 88.257812 181.40625 L 83.855469 180.082031 L 86.714844 171.046875 L 83.800781 170.222656 L 88.886719 154.652344 Z M 96.109375 156.675781 "/>
<path style=" stroke:none;fill-rule:nonzero;fill:rgb(39.99939%,39.99939%,39.99939%);fill-opacity:0.3;" d="M 93.351562 168.570312 L 97.261719 156.996094 L 102.523438 158.652344 L 98.816406 170.292969 Z M 93.351562 168.570312 "/>
<path style=" stroke:none;fill-rule:nonzero;fill:rgb(39.99939%,39.99939%,39.99939%);fill-opacity:0.3;" d="M 96.253906 183.804688 L 89.207031 181.691406 L 91.761719 174.152344 L 98.582031 176.101562 Z M 96.253906 183.804688 "/>
<path style=" stroke:none;fill-rule:nonzero;fill:rgb(39.99939%,39.99939%,39.99939%);fill-opacity:0.3;" d="M 103.554688 181.328125 L 99.316406 180.09375 L 100 177.1875 L 99.398438 177.039062 L 100.605469 173.410156 L 98.816406 172.707031 L 103.535156 158.753906 L 110.230469 160.628906 Z M 103.554688 181.328125 "/>
<path style=" stroke:none;fill-rule:nonzero;fill:rgb(39.99939%,39.99939%,39.99939%);fill-opacity:0.3;" d="M 111.910156 161.101562 L 117.742188 162.734375 L 109.820312 187.878906 L 104.023438 186.140625 Z M 111.910156 161.101562 "/>
<path style=" stroke:none;fill-rule:nonzero;fill:rgb(39.99939%,39.99939%,39.99939%);fill-opacity:0.3;" d="M 120.414062 180.363281 L 117.191406 190.09375 L 111.015625 188.238281 L 114.171875 178.636719 Z M 120.414062 180.363281 "/>
<path style=" stroke:none;fill-rule:nonzero;fill:rgb(39.99939%,39.99939%,39.99939%);fill-opacity:0.3;" d="M 116.542969 192.269531 L 169.632812 209.429688 L 161.285156 234.378906 L 145.6875 229.652344 L 147.828125 221.117188 L 111.292969 210.742188 Z M 116.542969 192.269531 "/>
<path style=" stroke:none;fill-rule:nonzero;fill:rgb(39.99939%,39.99939%,39.99939%);fill-opacity:0.3;" d="M 116.519531 192.261719 L 111.292969 210.742188 L 94.144531 264.539062 L 93.039062 264.238281 L 97.859375 249.140625 L 109.941406 211.167969 L 115.808594 192.183594 L 109.25 190.457031 L 105.109375 189.421875 L 101.308594 188.386719 L 99.585938 188.042969 L 94.75 186.660156 L 90.609375 185.625 L 82.875 207.761719 L 89.867188 185.183594 Z M 116.519531 192.261719 "/>
<path style=" stroke:none;fill-rule:nonzero;fill:rgb(39.99939%,39.99939%,39.99939%);fill-opacity:0.3;" d="M 80.582031 78.59375 L 115.597656 51.429688 L 118.519531 54.5 L 124.09375 62.394531 L 135.828125 75.164062 L 156.195312 98.292969 L 162.753906 105.886719 L 176.5625 119.695312 L 185.191406 129.359375 L 206.59375 148.691406 L 192.09375 162.84375 L 189.679688 165.949219 L 187.261719 168.710938 L 182.472656 177.164062 L 163.570312 171.816406 L 71.300781 145.71875 L 75.433594 114.167969 L 76.523438 105.84375 Z M 80.582031 78.59375 "/>
<path style=" stroke:none;fill-rule:nonzero;fill:rgb(39.99939%,39.99939%,39.99939%);fill-opacity:0.3;" d="M 120.191406 276.238281 L 131.179688 279.558594 L 130.089844 282.808594 L 119.097656 279.484375 Z M 120.191406 276.238281 "/>
<path style=" stroke:none;fill-rule:nonzero;fill:rgb(39.99939%,39.99939%,39.99939%);fill-opacity:0.3;" d="M 108.617188 273.390625 L 116.28125 275.703125 L 114.933594 279.714844 L 107.269531 277.402344 Z M 108.617188 273.390625 "/>
<path style=" stroke:none;fill-rule:nonzero;fill:rgb(39.99939%,39.99939%,39.99939%);fill-opacity:0.3;" d="M 71.714844 213.15625 L 78.367188 215.4375 L 65.691406 256.488281 L 61.035156 255.222656 Z M 71.714844 213.15625 "/>
<path style=" stroke:none;fill-rule:nonzero;fill:rgb(39.99939%,39.99939%,39.99939%);fill-opacity:0.3;" d="M 60.902344 210.304688 L 70.332031 212.796875 L 62.039062 245.085938 L 57.007812 243.421875 Z M 60.902344 210.304688 "/>
<path style=" stroke:none;fill-rule:nonzero;fill:rgb(39.99939%,39.99939%,39.99939%);fill-opacity:0.3;" d="M 83.890625 184.691406 L 87.640625 185.808594 L 79.828125 210.777344 L 74.640625 209.191406 Z M 83.890625 184.691406 "/>
<path style=" stroke:none;fill-rule:nonzero;fill:rgb(39.99939%,39.99939%,39.99939%);fill-opacity:0.3;" d="M 70.941406 198.949219 L 76.59375 200.644531 L 73.507812 208.859375 L 67.84375 207.203125 Z M 70.941406 198.949219 "/>
<path style=" stroke:none;fill-rule:nonzero;fill:rgb(39.99939%,39.99939%,39.99939%);fill-opacity:0.3;" d="M 76.953125 182.652344 L 82.609375 184.339844 L 77.910156 196.859375 L 72.351562 195.132812 Z M 76.953125 182.652344 "/>
<path style=" stroke:none;fill-rule:nonzero;fill:rgb(39.99939%,39.99939%,39.99939%);fill-opacity:0.3;" d="M 65.046875 179.457031 L 74.558594 181.910156 L 65.53125 206.527344 L 61.582031 205.273438 Z M 65.046875 179.457031 "/>
<path style=" stroke:none;fill-rule:nonzero;fill:rgb(39.99939%,39.99939%,39.99939%);fill-opacity:0.3;" d="M 98.351562 247.589844 L 98.539062 247.636719 L 97.679688 250.578125 L 97.421875 250.511719 L 97.859375 249.140625 Z M 98.351562 247.589844 "/>
<path style=" stroke:none;fill-rule:nonzero;fill:rgb(39.99939%,39.99939%,39.99939%);fill-opacity:0.3;" d="M 95.582031 256.273438 L 95.902344 256.367188 L 95.140625 258.953125 L 94.757812 258.851562 Z M 95.582031 256.273438 "/>
<path style=" stroke:none;fill-rule:nonzero;fill:rgb(39.99939%,39.99939%,39.99939%);fill-opacity:0.3;" d="M 111.992188 212.910156 L 116.144531 214.070312 L 104.847656 250.355469 L 100.617188 249.433594 Z M 111.992188 212.910156 "/>
<path style=" stroke:none;fill-rule:nonzero;fill:rgb(39.99939%,39.99939%,39.99939%);fill-opacity:0.3;" d="M 110.4375 235.34375 L 116.125 236.53125 L 111.277344 252.042969 L 105.664062 250.617188 Z M 110.4375 235.34375 "/>
<path style=" stroke:none;fill-rule:nonzero;fill:rgb(39.99939%,39.99939%,39.99939%);fill-opacity:0.3;" d="M 116.972656 214.300781 L 122.546875 215.855469 L 117.484375 232.175781 L 111.828125 230.890625 Z M 116.972656 214.300781 "/>
<path style=" stroke:none;fill-rule:nonzero;fill:rgb(39.99939%,39.99939%,39.99939%);fill-opacity:0.3;" d="M 123.457031 216.109375 L 129.433594 217.714844 L 118.292969 253.804688 L 112.199219 252.269531 Z M 123.457031 216.109375 "/>
<path style=" stroke:none;fill-rule:nonzero;fill:rgb(39.99939%,39.99939%,39.99939%);fill-opacity:0.3;" d="M 124.3125 238.164062 L 130.722656 239.652344 L 125.78125 255.464844 L 119.355469 254.039062 Z M 124.3125 238.164062 "/>
<path style=" stroke:none;fill-rule:nonzero;fill:rgb(39.99939%,39.99939%,39.99939%);fill-opacity:0.3;" d="M 130.339844 219.246094 L 136.554688 220.972656 L 131.851562 236.035156 L 125.433594 234.578125 Z M 130.339844 219.246094 "/>
<path style=" stroke:none;fill-rule:nonzero;fill:rgb(39.99939%,39.99939%,39.99939%);fill-opacity:0.3;" d="M 138.605469 221.542969 L 144.449219 223.164062 L 133.71875 257.535156 L 127.867188 255.929688 Z M 138.605469 221.542969 "/>
<path style=" stroke:none;fill-rule:nonzero;fill:rgb(39.99939%,39.99939%,39.99939%);fill-opacity:0.3;" d="M 150.582031 233.519531 L 160.554688 236.03125 L 155.558594 251.542969 L 145.933594 248.96875 Z M 150.582031 233.519531 "/>
<path style=" stroke:none;fill-rule:nonzero;fill:rgb(39.99939%,39.99939%,39.99939%);fill-opacity:0.3;" d="M 143.027344 231.253906 L 148.972656 232.933594 L 143.976562 248.445312 L 138.03125 246.765625 Z M 143.027344 231.253906 "/>
<path style=" stroke:none;fill-rule:nonzero;fill:rgb(39.99939%,39.99939%,39.99939%);fill-opacity:0.3;" d="M 136.265625 250.582031 L 142.207031 252.261719 L 135.832031 272.425781 L 129.886719 270.746094 Z M 136.265625 250.582031 "/>
<path style=" stroke:none;fill-rule:nonzero;fill:rgb(39.99939%,39.99939%,39.99939%);fill-opacity:0.3;" d="M 70.292969 149.5625 L 79.765625 152.011719 L 76.5625 162.574219 L 67.898438 160.441406 Z M 70.292969 149.5625 "/>
<path style=" stroke:none;fill-rule:nonzero;fill:rgb(39.99939%,39.99939%,39.99939%);fill-opacity:0.3;" d="M 133.714844 280.671875 L 141.382812 282.984375 L 140.035156 286.996094 L 132.367188 284.683594 Z M 133.714844 280.671875 "/>
<path style=" stroke:none;fill-rule:nonzero;fill:rgb(39.99939%,39.99939%,39.99939%);fill-opacity:0.3;" d="M 106.503906 279.707031 L 114.167969 282.019531 L 112.816406 286.035156 L 105.152344 283.722656 Z M 106.503906 279.707031 "/>
<path style=" stroke:none;fill-rule:nonzero;fill:rgb(39.99939%,39.99939%,39.99939%);fill-opacity:0.3;" d="M 132.867188 298.984375 L 135.832031 299.742188 L 133.550781 307.777344 L 130.585938 307.019531 Z M 132.867188 298.984375 "/>
<path style=" stroke:none;fill-rule:nonzero;fill:rgb(39.99939%,39.99939%,39.99939%);fill-opacity:0.3;" d="M 128.84375 297.785156 L 131.808594 298.539062 L 129.527344 306.574219 L 126.5625 305.820312 Z M 128.84375 297.785156 "/>
<path style=" stroke:none;fill-rule:nonzero;fill:rgb(39.99939%,39.99939%,39.99939%);fill-opacity:0.3;" d="M 119.421875 289.871094 L 122.386719 290.628906 L 120.101562 298.664062 L 117.136719 297.90625 Z M 119.421875 289.871094 "/>
<path style=" stroke:none;fill-rule:nonzero;fill:rgb(39.99939%,39.99939%,39.99939%);fill-opacity:0.3;" d="M 115.714844 288.570312 L 118.679688 289.328125 L 116.398438 297.363281 L 113.433594 296.605469 Z M 115.714844 288.570312 "/>
<path style=" stroke:none;fill-rule:nonzero;fill:rgb(39.99939%,39.99939%,39.99939%);fill-opacity:0.3;" d="M 123.867188 291.859375 L 127.746094 292.875 L 124.253906 304.859375 L 120.375 303.84375 Z M 123.867188 291.859375 "/>
<path style=" stroke:none;fill-rule:nonzero;fill:rgb(39.99939%,39.99939%,39.99939%);fill-opacity:0.3;" d="M 108.09375 287.460938 L 111.972656 288.476562 L 108.476562 300.457031 L 104.601562 299.445312 Z M 108.09375 287.460938 "/>
<path style=" stroke:none;fill-rule:nonzero;fill:rgb(39.99939%,39.99939%,39.99939%);fill-opacity:0.3;" d="M 130.738281 287.210938 L 138.40625 289.523438 L 137.058594 293.539062 L 129.390625 291.226562 Z M 130.738281 287.210938 "/>
<path style=" stroke:none;fill-rule:nonzero;fill:rgb(39.99939%,39.99939%,39.99939%);fill-opacity:0.3;" d="M 126.613281 165.398438 L 133.488281 167.152344 L 125.558594 192.605469 L 118.359375 190.445312 Z M 126.613281 165.398438 "/>
<path style=" stroke:none;fill-rule:nonzero;fill:rgb(39.99939%,39.99939%,39.99939%);fill-opacity:0.3;" d="M 125.34375 165 L 121.898438 175.414062 L 115.824219 173.644531 L 119.105469 163.277344 Z M 125.34375 165 "/>
<path style=" stroke:none;fill-rule:nonzero;fill:rgb(39.99939%,39.99939%,39.99939%);fill-opacity:0.3;" d="M 16.730469 229.238281 L 6.625 257.335938 L -5.722656 253.351562 L 3.621094 225.757812 Z M 16.730469 229.238281 "/>
<path style=" stroke:none;fill-rule:nonzero;fill:rgb(39.99939%,39.99939%,39.99939%);fill-opacity:0.3;" d="M 1.992188 225.144531 L -11.328125 263.488281 L -24.015625 259.449219 L -11.699219 221.140625 Z M 1.992188 225.144531 "/>
<path style=" stroke:none;fill-rule:nonzero;fill:rgb(39.99939%,39.99939%,39.99939%);fill-opacity:0.3;" d="M 19.167969 230.085938 L 51.234375 239.574219 L 52.675781 240.515625 L 52.816406 241.664062 L 51.433594 254.453125 L 50.257812 264.90625 L 48.390625 281.914062 L 45.867188 309.855469 L -17.640625 290.527344 L -6.558594 255.238281 L 8.535156 259.722656 Z M 19.167969 230.085938 "/>
<path style=" stroke:none;fill-rule:nonzero;fill:rgb(39.99939%,39.99939%,39.99939%);fill-opacity:0.3;" d="M -159.941406 114.535156 L -135.824219 38.4375 L -56.949219 60.738281 L -4.570312 74.285156 L 40.636719 88.085938 L 67.855469 98.101562 L 70.851562 101.078125 L 69.070312 114.167969 L 62.738281 160.808594 L 59.628906 183.703125 L 54.9375 218.230469 L 53.296875 230.253906 L 52.035156 232.652344 L 50.960938 233.515625 L 48.53125 234.144531 L 44.773438 234.355469 L -176.191406 169.25 Z M -159.941406 114.535156 "/>
<path style=" stroke:none;fill-rule:nonzero;fill:rgb(39.99939%,39.99939%,39.99939%);fill-opacity:0.3;" d="M 37.722656 289.941406 L 44.429688 291.285156 L 43.691406 294.527344 L 36.996094 293.1875 Z M 37.722656 289.941406 "/>
<path style=" stroke:none;fill-rule:nonzero;fill:rgb(39.99939%,39.99939%,39.99939%);fill-opacity:0.3;" d="M 31.167969 284.613281 L 37.875 285.957031 L 37.132812 289.195312 L 30.4375 287.859375 Z M 31.167969 284.613281 "/>
<path style=" stroke:none;fill-rule:nonzero;fill:rgb(39.99939%,39.99939%,39.99939%);fill-opacity:0.3;" d="M 21.195312 285.769531 L 27.902344 287.109375 L 27.164062 290.351562 L 20.46875 289.015625 Z M 21.195312 285.769531 "/>
<path style=" stroke:none;fill-rule:nonzero;fill:rgb(39.99939%,39.99939%,39.99939%);fill-opacity:0.3;" d="M 14.664062 280.363281 L 21.371094 281.703125 L 20.632812 284.945312 L 13.9375 283.609375 Z M 14.664062 280.363281 "/>
<path style=" stroke:none;fill-rule:nonzero;fill:rgb(39.99939%,39.99939%,39.99939%);fill-opacity:0.3;" d="M 5.1875 281.578125 L 11.894531 282.921875 L 11.152344 286.160156 L 4.457031 284.824219 Z M 5.1875 281.578125 "/>
<path style=" stroke:none;fill-rule:nonzero;fill:rgb(39.99939%,39.99939%,39.99939%);fill-opacity:0.3;" d="M -1.261719 276.351562 L 5.445312 277.695312 L 4.707031 280.933594 L -1.988281 279.597656 Z M -1.261719 276.351562 "/>
<g clip-path="url(#clip14)" clip-rule="nonzero">
<path style=" stroke:none;fill-rule:nonzero;fill:rgb(39.99939%,39.99939%,39.99939%);fill-opacity:0.3;" d="M 277.636719 353.605469 L 292.882812 358.308594 L 281.777344 391.324219 L 282.386719 391.496094 L 282.976562 391.664062 L 294.199219 358.644531 L 304.316406 361.652344 L 292.917969 394.496094 L 293.605469 394.730469 L 294.234375 394.949219 L 305.695312 362.15625 L 316.050781 365.320312 L 299.285156 420.953125 L 288.738281 418.003906 L 291 411.679688 L 289.984375 411.375 L 288.605469 410.964844 L 286.21875 417.171875 L 275.757812 414.550781 L 281.300781 402.101562 L 280.582031 401.941406 L 279.800781 401.769531 L 274.085938 414.039062 L 260.132812 410.382812 Z M 277.636719 353.605469 "/>
</g>
<path style=" stroke:none;fill-rule:nonzero;fill:rgb(39.99939%,39.99939%,39.99939%);fill-opacity:0.3;" d="M 263.722656 346.296875 L 275.582031 349.515625 L 275.050781 351.355469 L 274.941406 351.316406 Z M 263.722656 346.296875 "/>
<path style=" stroke:none;fill-rule:nonzero;fill:rgb(39.99939%,39.99939%,39.99939%);fill-opacity:0.3;" d="M 345.824219 327.808594 L 349.824219 328.847656 L 345.835938 339.972656 L 341.800781 338.726562 Z M 345.824219 327.808594 "/>
<path style=" stroke:none;fill-rule:nonzero;fill:rgb(39.99939%,39.99939%,39.99939%);fill-opacity:0.3;" d="M 351.660156 332.472656 L 354.558594 333.335938 L 352.421875 338.601562 L 349.40625 337.738281 Z M 351.660156 332.472656 "/>
<path style=" stroke:none;fill-rule:nonzero;fill:rgb(39.99939%,39.99939%,39.99939%);fill-opacity:0.3;" d="M 311.519531 272.132812 L 315.519531 273.171875 L 311.53125 284.296875 L 307.496094 283.054688 Z M 311.519531 272.132812 "/>
<path style=" stroke:none;fill-rule:nonzero;fill:rgb(39.99939%,39.99939%,39.99939%);fill-opacity:0.3;" d="M 316.722656 280.136719 L 319.621094 280.996094 L 317.484375 286.261719 L 314.46875 285.398438 Z M 316.722656 280.136719 "/>
<path style=" stroke:none;fill-rule:nonzero;fill:rgb(39.99939%,39.99939%,39.99939%);fill-opacity:0.3;" d="M 284.652344 276.5625 L 286.539062 271.492188 L 289.328125 265.757812 L 293.507812 259.136719 L 304.796875 249.453125 L 308.933594 259.183594 L 304.378906 264.328125 L 302.117188 267.941406 L 298.539062 277.589844 L 295.539062 285.691406 L 292.246094 294.570312 L 283.648438 320.96875 L 275.265625 346.703125 L 262.601562 343.113281 L 283.222656 281.242188 Z M 284.652344 276.5625 "/>
<path style=" stroke:none;fill-rule:nonzero;fill:rgb(39.99939%,39.99939%,39.99939%);fill-opacity:0.3;" d="M 285.660156 322.332031 L 291.257812 323.980469 L 286.527344 338.089844 L 280.988281 336.558594 Z M 285.660156 322.332031 "/>
<path style=" stroke:none;fill-rule:nonzero;fill:rgb(39.99939%,39.99939%,39.99939%);fill-opacity:0.3;" d="M 291.1875 305.773438 L 296.75 307.574219 L 292.039062 322.246094 L 286.332031 320.605469 Z M 291.1875 305.773438 "/>
<g clip-path="url(#clip15)" clip-rule="nonzero">
<path style=" stroke:none;fill-rule:nonzero;fill:rgb(39.99939%,39.99939%,39.99939%);fill-opacity:0.3;" d="M 338.789062 358.238281 L 346.109375 360.253906 L 342.457031 371.605469 L 335.183594 368.929688 Z M 338.789062 358.238281 "/>
</g>
<g clip-path="url(#clip16)" clip-rule="nonzero">
<path style=" stroke:none;fill-rule:nonzero;fill:rgb(39.99939%,39.99939%,39.99939%);fill-opacity:0.3;" d="M 331.796875 336.730469 L 342.433594 340.03125 L 332.84375 368.144531 L 322.414062 364.996094 Z M 331.796875 336.730469 "/>
</g>
<g clip-path="url(#clip17)" clip-rule="nonzero">
<path style=" stroke:none;fill-rule:nonzero;fill:rgb(39.99939%,39.99939%,39.99939%);fill-opacity:0.3;" d="M 321.675781 333.625 L 330.375 336.292969 L 320.992188 364.558594 L 312.292969 361.890625 Z M 321.675781 333.625 "/>
</g>
<g clip-path="url(#clip18)" clip-rule="nonzero">
<path style=" stroke:none;fill-rule:nonzero;fill:rgb(39.99939%,39.99939%,39.99939%);fill-opacity:0.3;" d="M 310.296875 330.007812 L 320.253906 333.058594 L 310.867188 361.324219 L 300.914062 358.269531 Z M 310.296875 330.007812 "/>
</g>
<path style=" stroke:none;fill-rule:nonzero;fill:rgb(39.99939%,39.99939%,39.99939%);fill-opacity:0.3;" d="M 298.796875 326.457031 L 308.875 329.570312 L 299.488281 357.832031 L 289.46875 354.757812 Z M 298.796875 326.457031 "/>
<path style=" stroke:none;fill-rule:nonzero;fill:rgb(39.99939%,39.99939%,39.99939%);fill-opacity:0.3;" d="M 292.480469 324.582031 L 297.433594 326.058594 L 288.046875 354.320312 L 277.039062 350.824219 L 280.816406 338.878906 L 287.515625 340.660156 Z M 292.480469 324.582031 "/>
<path style=" stroke:none;fill-rule:nonzero;fill:rgb(39.99939%,39.99939%,39.99939%);fill-opacity:0.3;" d="M 325.4375 323.488281 L 333.929688 325.921875 L 330.886719 334.421875 L 322.582031 331.808594 Z M 325.4375 323.488281 "/>
<path style=" stroke:none;fill-rule:nonzero;fill:rgb(39.99939%,39.99939%,39.99939%);fill-opacity:0.3;" d="M 317.886719 308.214844 L 327.429688 311.097656 L 320.863281 331.175781 L 311.152344 328.296875 Z M 317.886719 308.214844 "/>
<path style=" stroke:none;fill-rule:nonzero;fill:rgb(39.99939%,39.99939%,39.99939%);fill-opacity:0.3;" d="M 310.304688 292.628906 L 320.320312 295.703125 L 309.601562 327.980469 L 299.585938 324.90625 Z M 310.304688 292.628906 "/>
<path style=" stroke:none;fill-rule:nonzero;fill:rgb(39.99939%,39.99939%,39.99939%);fill-opacity:0.3;" d="M 297.304688 288.679688 L 308.882812 292.074219 L 298.160156 324.351562 L 293.121094 322.75 L 298.707031 306.105469 L 292.070312 304.140625 Z M 297.304688 288.679688 "/>
<path style=" stroke:none;fill-rule:nonzero;fill:rgb(39.99939%,39.99939%,39.99939%);fill-opacity:0.3;" d="M 306.503906 269.5 L 310.453125 270.632812 L 304.898438 287.355469 L 300.863281 286.109375 Z M 306.503906 269.5 "/>
<path style=" stroke:none;fill-rule:nonzero;fill:rgb(39.99939%,39.99939%,39.99939%);fill-opacity:0.3;" d="M 321.558594 285.191406 L 324.453125 286.054688 L 322.316406 291.320312 L 319.300781 290.457031 Z M 321.558594 285.191406 "/>
<g clip-path="url(#clip19)" clip-rule="nonzero">
<path style=" stroke:none;fill-rule:nonzero;fill:rgb(39.99939%,39.99939%,39.99939%);fill-opacity:0.3;" d="M 360.308594 347.273438 L 364.308594 348.316406 L 360.324219 359.441406 L 356.285156 358.195312 Z M 360.308594 347.273438 "/>
</g>
<path style=" stroke:none;fill-rule:nonzero;fill:rgb(39.99939%,39.99939%,39.99939%);fill-opacity:0.3;" d="M 356.484375 339.980469 L 359.382812 340.84375 L 357.246094 346.109375 L 354.230469 345.246094 Z M 356.484375 339.980469 "/>
<path style=" stroke:none;fill-rule:nonzero;fill:rgb(39.99939%,39.99939%,39.99939%);fill-opacity:0.3;" d="M 331.53125 305.882812 L 334.429688 306.742188 L 332.292969 312.007812 L 329.277344 311.148438 Z M 331.53125 305.882812 "/>
<path style=" stroke:none;fill-rule:nonzero;fill:rgb(39.99939%,39.99939%,39.99939%);fill-opacity:0.3;" d="M 337.691406 311.730469 L 341.6875 312.773438 L 337.703125 323.898438 L 333.667969 322.652344 Z M 337.691406 311.730469 "/>
<path style=" stroke:none;fill-rule:nonzero;fill:rgb(39.99939%,39.99939%,39.99939%);fill-opacity:0.3;" d="M 341.433594 319.824219 L 345.429688 320.863281 L 341.445312 331.988281 L 337.410156 330.742188 Z M 341.433594 319.824219 "/>
<g clip-path="url(#clip20)" clip-rule="nonzero">
<path style=" stroke:none;fill-rule:nonzero;fill:rgb(39.99939%,39.99939%,39.99939%);fill-opacity:0.3;" d="M 376.183594 87.4375 L 394.328125 92.589844 L 392.097656 98.664062 L 392.753906 98.804688 L 393.410156 98.941406 L 395.675781 92.949219 L 432.449219 103.351562 L 429.65625 113.511719 L 425.199219 129.71875 L 369.09375 114.167969 L 357.195312 110.78125 Z M 376.183594 87.4375 "/>
</g>
<g clip-path="url(#clip21)" clip-rule="nonzero">
<path style=" stroke:none;fill-rule:nonzero;fill:rgb(39.99939%,39.99939%,39.99939%);fill-opacity:0.3;" d="M 354.582031 116.867188 L 393.976562 128.007812 L 391.4375 138.851562 L 352 127.699219 Z M 354.582031 116.867188 "/>
</g>
<g clip-path="url(#clip22)" clip-rule="nonzero">
<path style=" stroke:none;fill-rule:nonzero;fill:rgb(39.99939%,39.99939%,39.99939%);fill-opacity:0.3;" d="M 351.324219 129.984375 L 362.824219 133.003906 L 360.578125 143.03125 L 354.621094 141.484375 L 349.050781 139.414062 Z M 351.324219 129.984375 "/>
</g>
<g clip-path="url(#clip23)" clip-rule="nonzero">
<path style=" stroke:none;fill-rule:nonzero;fill:rgb(39.99939%,39.99939%,39.99939%);fill-opacity:0.3;" d="M 502.4375 -71.878906 L 509.261719 -69.722656 L 508.597656 -68.292969 L 584.332031 -43.578125 L 586.03125 -45.335938 L 588.175781 -44.652344 L 597.046875 -53.144531 L 598.863281 -36.429688 L 626.730469 114.167969 L 629.078125 126.84375 L 585.351562 114.167969 L 542.601562 101.777344 L 464.066406 80.402344 L 365.976562 52.324219 L 364.125 52.015625 L 363.972656 52.480469 L 360.203125 51.347656 L 362.046875 45.699219 L 366.148438 34.6875 L 371.722656 18.242188 L 372.203125 12.953125 L 372.042969 11.640625 L 372.28125 10.269531 L 371.246094 3.710938 L 365.179688 -13.445312 L 355.894531 -42.480469 L 347.085938 -70.644531 L 342.132812 -85.785156 L 340.640625 -91.699219 L 340.515625 -99.433594 L 342.246094 -106.464844 L 344.472656 -113.140625 L 349.671875 -128.605469 L 356.84375 -150.328125 L 364.144531 -150.613281 L 369.664062 -149.097656 L 385.089844 -144.855469 L 398.621094 -141.136719 L 443.527344 -128.792969 L 432.5 -93.992188 Z M 502.4375 -71.878906 "/>
</g>
<path style=" stroke:none;fill-rule:nonzero;fill:rgb(39.99939%,39.99939%,39.99939%);fill-opacity:0.3;" d="M 97.007812 55.871094 L 93.152344 50.441406 L 98.882812 46.777344 L 102.738281 52.210938 Z M 97.007812 55.871094 "/>
<path style=" stroke:none;fill-rule:nonzero;fill:rgb(39.99939%,39.99939%,39.99939%);fill-opacity:0.3;" d="M 81.722656 53.382812 L 77.8125 47.988281 L 83.503906 44.277344 L 87.417969 49.671875 Z M 81.722656 53.382812 "/>
<path style=" stroke:none;fill-rule:nonzero;fill:rgb(39.99939%,39.99939%,39.99939%);fill-opacity:0.3;" d="M 105.179688 50.269531 L 101.285156 44.863281 L 106.988281 41.164062 L 110.882812 46.570312 Z M 105.179688 50.269531 "/>
<path style=" stroke:none;fill-rule:nonzero;fill:rgb(39.99939%,39.99939%,39.99939%);fill-opacity:0.3;" d="M 87.71875 42.464844 L 83.453125 37.316406 L 88.886719 33.269531 L 93.152344 38.417969 Z M 87.71875 42.464844 "/>
<path style=" stroke:none;fill-rule:nonzero;fill:rgb(39.99939%,39.99939%,39.99939%);fill-opacity:0.3;" d="M 95.75 36.765625 L 91.496094 31.605469 L 96.9375 27.570312 L 101.191406 32.726562 Z M 95.75 36.765625 "/>
<path style=" stroke:none;fill-rule:nonzero;fill:rgb(39.99939%,39.99939%,39.99939%);fill-opacity:0.3;" d="M 96.601562 46.339844 L 92.335938 41.191406 L 97.769531 37.140625 L 102.035156 42.289062 Z M 96.601562 46.339844 "/>
<path style=" stroke:none;fill-rule:nonzero;fill:rgb(39.99939%,39.99939%,39.99939%);fill-opacity:0.3;" d="M 74.179688 24.824219 L 70.269531 19.425781 L 75.964844 15.714844 L 79.875 21.109375 Z M 74.179688 24.824219 "/>
<path style=" stroke:none;fill-rule:nonzero;fill:rgb(39.99939%,39.99939%,39.99939%);fill-opacity:0.3;" d="M 67.523438 33.742188 L 64.003906 28.882812 L 69.125 25.542969 L 72.644531 30.398438 Z M 67.523438 33.742188 "/>
<path style=" stroke:none;fill-rule:nonzero;fill:rgb(39.99939%,39.99939%,39.99939%);fill-opacity:0.3;" d="M 65.09375 41.464844 L 61.574219 36.605469 L 66.695312 33.265625 L 70.214844 38.121094 Z M 65.09375 41.464844 "/>
<path style=" stroke:none;fill-rule:nonzero;fill:rgb(39.99939%,39.99939%,39.99939%);fill-opacity:0.3;" d="M 62.820312 49.367188 L 59.300781 44.511719 L 64.425781 41.171875 L 67.945312 46.027344 Z M 62.820312 49.367188 "/>
<path style=" stroke:none;fill-rule:nonzero;fill:rgb(39.99939%,39.99939%,39.99939%);fill-opacity:0.3;" d="M 83.105469 19.667969 L 79.15625 13.46875 L 84.066406 10.550781 L 88.0625 15.921875 Z M 83.105469 19.667969 "/>
<path style=" stroke:none;fill-rule:nonzero;fill:rgb(39.99939%,39.99939%,39.99939%);fill-opacity:0.3;" d="M 65.226562 11.75 L 60.910156 6.402344 L 66.304688 3.3125 L 70.621094 8.421875 Z M 65.226562 11.75 "/>
<path style=" stroke:none;fill-rule:nonzero;fill:rgb(39.99939%,39.99939%,39.99939%);fill-opacity:0.3;" d="M 73.914062 5.859375 L 69.609375 1.257812 L 75.007812 -3.34375 L 79.179688 2.03125 Z M 73.914062 5.859375 "/>
<path style=" stroke:none;fill-rule:nonzero;fill:rgb(39.99939%,39.99939%,39.99939%);fill-opacity:0.3;" d="M 73.816406 16.074219 L 69.5 10.722656 L 74.890625 6.542969 L 79.207031 11.65625 Z M 73.816406 16.074219 "/>
<path style=" stroke:none;fill-rule:nonzero;fill:rgb(39.99939%,39.99939%,39.99939%);fill-opacity:0.3;" d="M 78.773438 61.210938 L 74.859375 55.816406 L 80.554688 52.101562 L 84.464844 57.5 Z M 78.773438 61.210938 "/>
<path style=" stroke:none;fill-rule:nonzero;fill:rgb(39.99939%,39.99939%,39.99939%);fill-opacity:0.3;" d="M 75.453125 69.382812 L 71.542969 63.984375 L 77.234375 60.273438 L 81.144531 65.667969 Z M 75.453125 69.382812 "/>
<path style=" stroke:none;fill-rule:nonzero;fill:rgb(39.99939%,39.99939%,39.99939%);fill-opacity:0.3;" d="M 54.761719 82.773438 L 51.242188 77.914062 L 56.367188 74.574219 L 59.886719 79.429688 Z M 54.761719 82.773438 "/>
<path style=" stroke:none;fill-rule:nonzero;fill:rgb(39.99939%,39.99939%,39.99939%);fill-opacity:0.3;" d="M 64.566406 86.363281 L 60.652344 80.964844 L 66.347656 77.253906 L 70.257812 82.648438 Z M 64.566406 86.363281 "/>
<path style=" stroke:none;fill-rule:nonzero;fill:rgb(39.99939%,39.99939%,39.99939%);fill-opacity:0.3;" d="M 60.863281 57.425781 L 57.34375 52.570312 L 62.464844 49.226562 L 65.984375 54.082031 Z M 60.863281 57.425781 "/>
<path style=" stroke:none;fill-rule:nonzero;fill:rgb(39.99939%,39.99939%,39.99939%);fill-opacity:0.3;" d="M 58.355469 65.308594 L 54.835938 60.449219 L 59.957031 57.109375 L 63.476562 61.964844 Z M 58.355469 65.308594 "/>
<path style=" stroke:none;fill-rule:nonzero;fill:rgb(39.99939%,39.99939%,39.99939%);fill-opacity:0.3;" d="M 56.171875 73.398438 L 52.652344 68.542969 L 57.777344 65.203125 L 61.296875 70.058594 Z M 56.171875 73.398438 "/>
<path style=" stroke:none;fill-rule:nonzero;fill:rgb(39.99939%,39.99939%,39.99939%);fill-opacity:0.3;" d="M 59.402344 28.546875 L 59.003906 32.773438 L 56.59375 40.289062 L 56.78125 39.609375 Z M 59.402344 28.546875 "/>
<path style=" stroke:none;fill-rule:nonzero;fill:rgb(39.99939%,39.99939%,39.99939%);fill-opacity:0.3;" d="M -8.546875 -14.628906 L 7.800781 -12.667969 L -0.371094 29.535156 L -10.78125 64.917969 L -26.148438 60.632812 L -14.839844 22.308594 Z M -8.546875 -14.628906 "/>
<path style=" stroke:none;fill-rule:nonzero;fill:rgb(39.99939%,39.99939%,39.99939%);fill-opacity:0.3;" d="M 48.3125 0.367188 L 51.742188 4.359375 L 56.023438 12.3125 L 58.496094 19.484375 L 59.652344 25.878906 L 59.402344 28.546875 L 56.78125 39.609375 L 56.59375 40.289062 L 47.265625 69.34375 L 43.8125 74.648438 L 36.238281 78.398438 L 28.167969 75.914062 L 44.5 18.5625 L 46.648438 4.710938 Z M 48.3125 0.367188 "/>
<path style=" stroke:none;fill-rule:nonzero;fill:rgb(39.99939%,39.99939%,39.99939%);fill-opacity:0.3;" d="M 45.253906 -3.292969 L 41.132812 18.875 L 32.210938 49.898438 L 25 75.203125 L -8.304688 65.113281 L 2.363281 29.769531 L 7.554688 7.238281 L 14.1875 -33.734375 L 30.890625 -17.34375 Z M 45.253906 -3.292969 "/>
<path style=" stroke:none;fill-rule:nonzero;fill:rgb(39.99939%,39.99939%,39.99939%);fill-opacity:0.3;" d="M 93.039062 264.238281 L 67.535156 257.304688 L 82.875 207.761719 L 90.609375 185.625 L 94.75 186.660156 L 99.585938 188.042969 L 101.308594 188.386719 L 105.109375 189.421875 L 109.25 190.457031 L 115.808594 192.183594 L 109.941406 211.167969 L 97.859375 249.140625 Z M 93.039062 264.238281 "/>
<path style=" stroke:none;fill-rule:nonzero;fill:rgb(39.99939%,39.99939%,39.99939%);fill-opacity:0.3;" d="M 104.140625 211.691406 L 103.34375 214.460938 L 107.148438 215.390625 L 106.355469 218.171875 L 102.546875 217.242188 L 100.128906 225.71875 L 103.941406 226.648438 L 103.097656 229.59375 L 99.285156 228.660156 L 98.433594 231.628906 L 95.996094 231.035156 L 93.558594 230.4375 L 94.796875 226.117188 L 91.886719 225.40625 L 92.601562 222.894531 L 95.523438 223.582031 L 96.988281 218.445312 L 94.0625 217.757812 L 94.996094 214.492188 L 97.921875 215.179688 L 99.257812 210.523438 L 101.699219 211.105469 Z M 104.140625 211.691406 "/>
<path style=" stroke:none;fill-rule:nonzero;fill:rgb(39.99939%,39.99939%,39.99939%);fill-opacity:0.3;" d="M 94.3125 186.796875 L 99.148438 188.132812 L 97.8125 192.789062 L 100.707031 193.597656 L 99.769531 196.863281 L 96.878906 196.054688 L 95.398438 201.1875 L 98.285156 201.996094 L 97.566406 204.503906 L 94.671875 203.722656 L 93.433594 208.046875 L 91.011719 207.390625 L 88.59375 206.734375 L 89.441406 203.769531 L 85.65625 202.742188 L 86.5 199.796875 L 90.285156 200.824219 L 92.722656 192.351562 L 88.945312 191.328125 L 89.742188 188.546875 L 93.519531 189.570312 Z M 94.3125 186.796875 "/>
<path style=" stroke:none;fill-rule:nonzero;fill:rgb(39.99939%,39.99939%,39.99939%);fill-opacity:0.3;" d="M 111.230469 191.316406 L 110.433594 194.089844 L 114.238281 195.019531 L 113.441406 197.800781 L 109.632812 196.867188 L 107.207031 205.34375 L 111.019531 206.277344 L 110.171875 209.21875 L 106.359375 208.289062 L 105.507812 211.257812 L 103.070312 210.660156 L 100.632812 210.066406 L 101.875 205.742188 L 98.960938 205.03125 L 99.679688 202.519531 L 102.601562 203.207031 L 104.070312 198.070312 L 101.144531 197.382812 L 102.082031 194.117188 L 105.007812 194.804688 L 106.347656 190.152344 Z M 111.230469 191.316406 "/>
<path style=" stroke:none;fill-rule:nonzero;fill:rgb(39.99939%,39.99939%,39.99939%);fill-opacity:0.3;" d="M 87.972656 207.261719 L 90.390625 207.929688 L 92.804688 208.597656 L 91.472656 213.253906 L 94.363281 214.066406 L 93.429688 217.328125 L 90.539062 216.519531 L 89.054688 221.65625 L 91.945312 222.464844 L 91.222656 224.972656 L 88.332031 224.1875 L 87.089844 228.511719 L 82.269531 227.144531 L 83.101562 224.234375 L 79.316406 223.210938 L 80.160156 220.265625 L 83.945312 221.289062 L 86.382812 212.816406 L 82.601562 211.792969 L 83.402344 209.015625 L 87.179688 210.035156 Z M 87.972656 207.261719 "/>
<path style=" stroke:none;fill-rule:nonzero;fill:rgb(39.99939%,39.99939%,39.99939%);fill-opacity:0.3;" d="M 98.964844 232.210938 L 98.15625 234.980469 L 101.957031 235.925781 L 101.144531 238.703125 L 97.34375 237.757812 L 94.730469 246.691406 L 98.351562 247.589844 L 97.859375 249.140625 L 97.421875 250.511719 L 93.871094 249.632812 L 92.175781 255.296875 L 95.582031 256.273438 L 94.757812 258.851562 L 91.390625 257.964844 L 89.984375 262.730469 L 87.636719 262.148438 L 85.292969 261.566406 L 86.101562 258.566406 L 83.097656 257.730469 L 83.886719 255.050781 L 86.894531 255.902344 L 89.398438 247.066406 L 86.488281 246.34375 L 87.21875 243.835938 L 90.136719 244.535156 L 91.773438 238.933594 L 88.851562 238.234375 L 89.804688 234.976562 L 92.726562 235.675781 L 94.085938 231.023438 L 96.527344 231.617188 Z M 98.964844 232.210938 "/>
<path style=" stroke:none;fill-rule:nonzero;fill:rgb(39.99939%,39.99939%,39.99939%);fill-opacity:0.3;" d="M 82.023438 227.734375 L 86.84375 229.109375 L 85.46875 233.753906 L 88.355469 234.589844 L 87.386719 237.84375 L 84.503906 237.011719 L 82.847656 242.605469 L 85.726562 243.4375 L 84.984375 245.941406 L 82.097656 245.136719 L 79.410156 253.921875 L 82.453125 254.667969 L 81.664062 257.347656 L 78.636719 256.59375 L 77.691406 259.554688 L 75.363281 258.902344 L 73.039062 258.253906 L 74.4375 253.484375 L 70.691406 252.492188 L 71.453125 249.90625 L 75.222656 250.816406 L 76.867188 245.136719 L 73.089844 244.082031 L 73.960938 241.144531 L 77.738281 242.199219 L 80.382812 233.273438 L 76.613281 232.21875 L 77.433594 229.445312 L 81.203125 230.5 Z M 82.023438 227.734375 "/>
<path style="fill-rule:nonzero;fill:rgb(39.99939%,39.99939%,39.99939%);fill-opacity:1;stroke-width:0.03;stroke-linecap:square;stroke-linejoin:miter;stroke:rgb(39.99939%,39.99939%,39.99939%);stroke-opacity:1;stroke-miterlimit:3.239307;" d="M 208.953125 180.554688 L 252.726562 192.84375 L 253.292969 194.8125 L 245.15625 218.273438 L 201.730469 205.410156 Z M 208.953125 180.554688 " transform="matrix(1,0,0,1,-74,-13)"/>
<path style="fill-rule:nonzero;fill:rgb(39.99939%,39.99939%,39.99939%);fill-opacity:1;stroke-width:0.03;stroke-linecap:square;stroke-linejoin:miter;stroke:rgb(39.99939%,39.99939%,39.99939%);stroke-opacity:1;stroke-miterlimit:3.239307;" d="M 219.472656 282.957031 L 217.585938 289.066406 L 211.738281 287.378906 L 213.695312 281.34375 Z M 219.472656 282.957031 " transform="matrix(1,0,0,1,-74,-13)"/>
<path style="fill-rule:nonzero;fill:rgb(39.99939%,39.99939%,39.99939%);fill-opacity:1;stroke-width:0.03;stroke-linecap:square;stroke-linejoin:miter;stroke:rgb(39.99939%,39.99939%,39.99939%);stroke-opacity:1;stroke-miterlimit:3.239307;" d="M 128.007812 269.273438 L 146.402344 274.285156 L 143.261719 282.839844 L 144.515625 283.230469 L 145.925781 283.671875 L 148.882812 275.242188 L 218.925781 293.773438 L 209.53125 321.570312 L 125.429688 299.492188 Z M 128.007812 269.273438 " transform="matrix(1,0,0,1,-74,-13)"/>
<path style="fill-rule:nonzero;fill:rgb(39.99939%,39.99939%,39.99939%);fill-opacity:1;stroke-width:0.03;stroke-linecap:square;stroke-linejoin:miter;stroke:rgb(39.99939%,39.99939%,39.99939%);stroke-opacity:1;stroke-miterlimit:3.239307;" d="M 140.585938 177.320312 L 147.796875 179.175781 L 145.394531 186.5625 L 146.488281 187.25 L 146.027344 189.675781 L 139.058594 187.394531 Z M 140.585938 177.320312 " transform="matrix(1,0,0,1,-74,-13)"/>
<path style="fill-rule:nonzero;fill:rgb(39.99939%,39.99939%,39.99939%);fill-opacity:1;stroke-width:0.03;stroke-linecap:square;stroke-linejoin:miter;stroke:rgb(39.99939%,39.99939%,39.99939%);stroke-opacity:1;stroke-miterlimit:3.239307;" d="M 161.648438 167.304688 L 155.761719 185.15625 L 158.894531 186.121094 L 156.671875 192.726562 L 148.613281 190.308594 L 148.988281 187.164062 L 147.679688 186.335938 L 149.863281 179.367188 L 151.535156 179.917969 L 155.820312 165.417969 Z M 161.648438 167.304688 " transform="matrix(1,0,0,1,-74,-13)"/>
<path style="fill-rule:nonzero;fill:rgb(39.99939%,39.99939%,39.99939%);fill-opacity:1;stroke-width:0.03;stroke-linecap:square;stroke-linejoin:miter;stroke:rgb(39.99939%,39.99939%,39.99939%);stroke-opacity:1;stroke-miterlimit:3.239307;" d="M 170.109375 169.675781 L 162.257812 194.40625 L 157.855469 193.082031 L 160.714844 184.046875 L 157.800781 183.222656 L 162.886719 167.652344 Z M 170.109375 169.675781 " transform="matrix(1,0,0,1,-74,-13)"/>
<path style="fill-rule:nonzero;fill:rgb(39.99939%,39.99939%,39.99939%);fill-opacity:1;stroke-width:0.03;stroke-linecap:square;stroke-linejoin:miter;stroke:rgb(39.99939%,39.99939%,39.99939%);stroke-opacity:1;stroke-miterlimit:3.239307;" d="M 167.351562 181.570312 L 171.261719 169.996094 L 176.523438 171.652344 L 172.816406 183.292969 Z M 167.351562 181.570312 " transform="matrix(1,0,0,1,-74,-13)"/>
<path style="fill-rule:nonzero;fill:rgb(39.99939%,39.99939%,39.99939%);fill-opacity:1;stroke-width:0.03;stroke-linecap:square;stroke-linejoin:miter;stroke:rgb(39.99939%,39.99939%,39.99939%);stroke-opacity:1;stroke-miterlimit:3.239307;" d="M 170.253906 196.804688 L 163.207031 194.691406 L 165.761719 187.152344 L 172.582031 189.101562 Z M 170.253906 196.804688 " transform="matrix(1,0,0,1,-74,-13)"/>
<path style="fill-rule:nonzero;fill:rgb(39.99939%,39.99939%,39.99939%);fill-opacity:1;stroke-width:0.03;stroke-linecap:square;stroke-linejoin:miter;stroke:rgb(39.99939%,39.99939%,39.99939%);stroke-opacity:1;stroke-miterlimit:3.239307;" d="M 177.554688 194.328125 L 173.316406 193.09375 L 174 190.1875 L 173.398438 190.039062 L 174.605469 186.410156 L 172.816406 185.707031 L 177.535156 171.753906 L 184.230469 173.628906 Z M 177.554688 194.328125 " transform="matrix(1,0,0,1,-74,-13)"/>
<path style="fill-rule:nonzero;fill:rgb(39.99939%,39.99939%,39.99939%);fill-opacity:1;stroke-width:0.03;stroke-linecap:square;stroke-linejoin:miter;stroke:rgb(39.99939%,39.99939%,39.99939%);stroke-opacity:1;stroke-miterlimit:3.239307;" d="M 185.910156 174.101562 L 191.742188 175.734375 L 183.820312 200.878906 L 178.023438 199.140625 Z M 185.910156 174.101562 " transform="matrix(1,0,0,1,-74,-13)"/>
<path style="fill-rule:nonzero;fill:rgb(39.99939%,39.99939%,39.99939%);fill-opacity:1;stroke-width:0.03;stroke-linecap:square;stroke-linejoin:miter;stroke:rgb(39.99939%,39.99939%,39.99939%);stroke-opacity:1;stroke-miterlimit:3.239307;" d="M 194.414062 193.363281 L 191.191406 203.09375 L 185.015625 201.238281 L 188.171875 191.636719 Z M 194.414062 193.363281 " transform="matrix(1,0,0,1,-74,-13)"/>
<path style="fill-rule:nonzero;fill:rgb(39.99939%,39.99939%,39.99939%);fill-opacity:1;stroke-width:0.03;stroke-linecap:square;stroke-linejoin:miter;stroke:rgb(39.99939%,39.99939%,39.99939%);stroke-opacity:1;stroke-miterlimit:3.239307;" d="M 190.542969 205.269531 L 243.632812 222.429688 L 235.285156 247.378906 L 219.6875 242.652344 L 221.828125 234.117188 L 185.292969 223.742188 Z M 190.542969 205.269531 " transform="matrix(1,0,0,1,-74,-13)"/>
<path style="fill-rule:nonzero;fill:rgb(39.99939%,39.99939%,39.99939%);fill-opacity:1;stroke-width:0.03;stroke-linecap:square;stroke-linejoin:miter;stroke:rgb(39.99939%,39.99939%,39.99939%);stroke-opacity:1;stroke-miterlimit:3.239307;" d="M 190.519531 205.261719 L 185.292969 223.742188 L 168.144531 277.539062 L 167.039062 277.238281 L 171.859375 262.140625 L 183.941406 224.167969 L 189.808594 205.183594 L 183.25 203.457031 L 179.109375 202.421875 L 175.308594 201.386719 L 173.585938 201.042969 L 168.75 199.660156 L 164.609375 198.625 L 156.875 220.761719 L 163.867188 198.183594 Z M 190.519531 205.261719 " transform="matrix(1,0,0,1,-74,-13)"/>
<path style="fill-rule:nonzero;fill:rgb(39.99939%,39.99939%,39.99939%);fill-opacity:1;stroke-width:0.03;stroke-linecap:square;stroke-linejoin:miter;stroke:rgb(39.99939%,39.99939%,39.99939%);stroke-opacity:1;stroke-miterlimit:3.239307;" d="M 154.582031 91.59375 L 189.597656 64.429688 L 192.519531 67.5 L 198.09375 75.394531 L 209.828125 88.164062 L 230.195312 111.292969 L 236.753906 118.886719 L 250.5625 132.695312 L 259.191406 142.359375 L 280.59375 161.691406 L 266.09375 175.84375 L 263.679688 178.949219 L 261.261719 181.710938 L 256.472656 190.164062 L 237.570312 184.816406 L 145.300781 158.71875 L 149.433594 127.167969 L 150.523438 118.84375 Z M 154.582031 91.59375 " transform="matrix(1,0,0,1,-74,-13)"/>
<path style="fill-rule:nonzero;fill:rgb(39.99939%,39.99939%,39.99939%);fill-opacity:1;stroke-width:0.03;stroke-linecap:square;stroke-linejoin:miter;stroke:rgb(39.99939%,39.99939%,39.99939%);stroke-opacity:1;stroke-miterlimit:3.239307;" d="M 194.191406 289.238281 L 205.179688 292.558594 L 204.089844 295.808594 L 193.097656 292.484375 Z M 194.191406 289.238281 " transform="matrix(1,0,0,1,-74,-13)"/>
<path style="fill-rule:nonzero;fill:rgb(39.99939%,39.99939%,39.99939%);fill-opacity:1;stroke-width:0.03;stroke-linecap:square;stroke-linejoin:miter;stroke:rgb(39.99939%,39.99939%,39.99939%);stroke-opacity:1;stroke-miterlimit:3.239307;" d="M 182.617188 286.390625 L 190.28125 288.703125 L 188.933594 292.714844 L 181.269531 290.402344 Z M 182.617188 286.390625 " transform="matrix(1,0,0,1,-74,-13)"/>
<path style="fill-rule:nonzero;fill:rgb(39.99939%,39.99939%,39.99939%);fill-opacity:1;stroke-width:0.03;stroke-linecap:square;stroke-linejoin:miter;stroke:rgb(39.99939%,39.99939%,39.99939%);stroke-opacity:1;stroke-miterlimit:3.239307;" d="M 145.714844 226.15625 L 152.367188 228.4375 L 139.691406 269.488281 L 135.035156 268.222656 Z M 145.714844 226.15625 " transform="matrix(1,0,0,1,-74,-13)"/>
<path style="fill-rule:nonzero;fill:rgb(39.99939%,39.99939%,39.99939%);fill-opacity:1;stroke-width:0.03;stroke-linecap:square;stroke-linejoin:miter;stroke:rgb(39.99939%,39.99939%,39.99939%);stroke-opacity:1;stroke-miterlimit:3.239307;" d="M 134.902344 223.304688 L 144.332031 225.796875 L 136.039062 258.085938 L 131.007812 256.421875 Z M 134.902344 223.304688 " transform="matrix(1,0,0,1,-74,-13)"/>
<path style="fill-rule:nonzero;fill:rgb(39.99939%,39.99939%,39.99939%);fill-opacity:1;stroke-width:0.03;stroke-linecap:square;stroke-linejoin:miter;stroke:rgb(39.99939%,39.99939%,39.99939%);stroke-opacity:1;stroke-miterlimit:3.239307;" d="M 157.890625 197.691406 L 161.640625 198.808594 L 153.828125 223.777344 L 148.640625 222.191406 Z M 157.890625 197.691406 " transform="matrix(1,0,0,1,-74,-13)"/>
<path style="fill-rule:nonzero;fill:rgb(39.99939%,39.99939%,39.99939%);fill-opacity:1;stroke-width:0.03;stroke-linecap:square;stroke-linejoin:miter;stroke:rgb(39.99939%,39.99939%,39.99939%);stroke-opacity:1;stroke-miterlimit:3.239307;" d="M 144.941406 211.949219 L 150.59375 213.644531 L 147.507812 221.859375 L 141.84375 220.203125 Z M 144.941406 211.949219 " transform="matrix(1,0,0,1,-74,-13)"/>
<path style="fill-rule:nonzero;fill:rgb(39.99939%,39.99939%,39.99939%);fill-opacity:1;stroke-width:0.03;stroke-linecap:square;stroke-linejoin:miter;stroke:rgb(39.99939%,39.99939%,39.99939%);stroke-opacity:1;stroke-miterlimit:3.239307;" d="M 150.953125 195.652344 L 156.609375 197.339844 L 151.910156 209.859375 L 146.351562 208.132812 Z M 150.953125 195.652344 " transform="matrix(1,0,0,1,-74,-13)"/>
<path style="fill-rule:nonzero;fill:rgb(39.99939%,39.99939%,39.99939%);fill-opacity:1;stroke-width:0.03;stroke-linecap:square;stroke-linejoin:miter;stroke:rgb(39.99939%,39.99939%,39.99939%);stroke-opacity:1;stroke-miterlimit:3.239307;" d="M 139.046875 192.457031 L 148.558594 194.910156 L 139.53125 219.527344 L 135.582031 218.273438 Z M 139.046875 192.457031 " transform="matrix(1,0,0,1,-74,-13)"/>
<path style="fill-rule:nonzero;fill:rgb(39.99939%,39.99939%,39.99939%);fill-opacity:1;stroke-width:0.03;stroke-linecap:square;stroke-linejoin:miter;stroke:rgb(39.99939%,39.99939%,39.99939%);stroke-opacity:1;stroke-miterlimit:3.239307;" d="M 172.351562 260.589844 L 172.539062 260.636719 L 171.679688 263.578125 L 171.421875 263.511719 L 171.859375 262.140625 Z M 172.351562 260.589844 " transform="matrix(1,0,0,1,-74,-13)"/>
<path style="fill-rule:nonzero;fill:rgb(39.99939%,39.99939%,39.99939%);fill-opacity:1;stroke-width:0.03;stroke-linecap:square;stroke-linejoin:miter;stroke:rgb(39.99939%,39.99939%,39.99939%);stroke-opacity:1;stroke-miterlimit:3.239307;" d="M 169.582031 269.273438 L 169.902344 269.367188 L 169.140625 271.953125 L 168.757812 271.851562 Z M 169.582031 269.273438 " transform="matrix(1,0,0,1,-74,-13)"/>
<path style="fill-rule:nonzero;fill:rgb(39.99939%,39.99939%,39.99939%);fill-opacity:1;stroke-width:0.03;stroke-linecap:square;stroke-linejoin:miter;stroke:rgb(39.99939%,39.99939%,39.99939%);stroke-opacity:1;stroke-miterlimit:3.239307;" d="M 185.992188 225.910156 L 190.144531 227.070312 L 178.847656 263.355469 L 174.617188 262.433594 Z M 185.992188 225.910156 " transform="matrix(1,0,0,1,-74,-13)"/>
<path style="fill-rule:nonzero;fill:rgb(39.99939%,39.99939%,39.99939%);fill-opacity:1;stroke-width:0.03;stroke-linecap:square;stroke-linejoin:miter;stroke:rgb(39.99939%,39.99939%,39.99939%);stroke-opacity:1;stroke-miterlimit:3.239307;" d="M 184.4375 248.34375 L 190.125 249.53125 L 185.277344 265.042969 L 179.664062 263.617188 Z M 184.4375 248.34375 " transform="matrix(1,0,0,1,-74,-13)"/>
<path style="fill-rule:nonzero;fill:rgb(39.99939%,39.99939%,39.99939%);fill-opacity:1;stroke-width:0.03;stroke-linecap:square;stroke-linejoin:miter;stroke:rgb(39.99939%,39.99939%,39.99939%);stroke-opacity:1;stroke-miterlimit:3.239307;" d="M 190.972656 227.300781 L 196.546875 228.855469 L 191.484375 245.175781 L 185.828125 243.890625 Z M 190.972656 227.300781 " transform="matrix(1,0,0,1,-74,-13)"/>
<path style="fill-rule:nonzero;fill:rgb(39.99939%,39.99939%,39.99939%);fill-opacity:1;stroke-width:0.03;stroke-linecap:square;stroke-linejoin:miter;stroke:rgb(39.99939%,39.99939%,39.99939%);stroke-opacity:1;stroke-miterlimit:3.239307;" d="M 197.457031 229.109375 L 203.433594 230.714844 L 192.292969 266.804688 L 186.199219 265.269531 Z M 197.457031 229.109375 " transform="matrix(1,0,0,1,-74,-13)"/>
<path style="fill-rule:nonzero;fill:rgb(39.99939%,39.99939%,39.99939%);fill-opacity:1;stroke-width:0.03;stroke-linecap:square;stroke-linejoin:miter;stroke:rgb(39.99939%,39.99939%,39.99939%);stroke-opacity:1;stroke-miterlimit:3.239307;" d="M 198.3125 251.164062 L 204.722656 252.652344 L 199.78125 268.464844 L 193.355469 267.039062 Z M 198.3125 251.164062 " transform="matrix(1,0,0,1,-74,-13)"/>
<path style="fill-rule:nonzero;fill:rgb(39.99939%,39.99939%,39.99939%);fill-opacity:1;stroke-width:0.03;stroke-linecap:square;stroke-linejoin:miter;stroke:rgb(39.99939%,39.99939%,39.99939%);stroke-opacity:1;stroke-miterlimit:3.239307;" d="M 204.339844 232.246094 L 210.554688 233.972656 L 205.851562 249.035156 L 199.433594 247.578125 Z M 204.339844 232.246094 " transform="matrix(1,0,0,1,-74,-13)"/>
<path style="fill-rule:nonzero;fill:rgb(39.99939%,39.99939%,39.99939%);fill-opacity:1;stroke-width:0.03;stroke-linecap:square;stroke-linejoin:miter;stroke:rgb(39.99939%,39.99939%,39.99939%);stroke-opacity:1;stroke-miterlimit:3.239307;" d="M 212.605469 234.542969 L 218.449219 236.164062 L 207.71875 270.535156 L 201.867188 268.929688 Z M 212.605469 234.542969 " transform="matrix(1,0,0,1,-74,-13)"/>
<path style="fill-rule:nonzero;fill:rgb(39.99939%,39.99939%,39.99939%);fill-opacity:1;stroke-width:0.03;stroke-linecap:square;stroke-linejoin:miter;stroke:rgb(39.99939%,39.99939%,39.99939%);stroke-opacity:1;stroke-miterlimit:3.239307;" d="M 224.582031 246.519531 L 234.554688 249.03125 L 229.558594 264.542969 L 219.933594 261.96875 Z M 224.582031 246.519531 " transform="matrix(1,0,0,1,-74,-13)"/>
<path style="fill-rule:nonzero;fill:rgb(39.99939%,39.99939%,39.99939%);fill-opacity:1;stroke-width:0.03;stroke-linecap:square;stroke-linejoin:miter;stroke:rgb(39.99939%,39.99939%,39.99939%);stroke-opacity:1;stroke-miterlimit:3.239307;" d="M 217.027344 244.253906 L 222.972656 245.933594 L 217.976562 261.445312 L 212.03125 259.765625 Z M 217.027344 244.253906 " transform="matrix(1,0,0,1,-74,-13)"/>
<path style="fill-rule:nonzero;fill:rgb(39.99939%,39.99939%,39.99939%);fill-opacity:1;stroke-width:0.03;stroke-linecap:square;stroke-linejoin:miter;stroke:rgb(39.99939%,39.99939%,39.99939%);stroke-opacity:1;stroke-miterlimit:3.239307;" d="M 210.265625 263.582031 L 216.207031 265.261719 L 209.832031 285.425781 L 203.886719 283.746094 Z M 210.265625 263.582031 " transform="matrix(1,0,0,1,-74,-13)"/>
<path style="fill-rule:nonzero;fill:rgb(39.99939%,39.99939%,39.99939%);fill-opacity:1;stroke-width:0.03;stroke-linecap:square;stroke-linejoin:miter;stroke:rgb(39.99939%,39.99939%,39.99939%);stroke-opacity:1;stroke-miterlimit:3.239307;" d="M 144.292969 162.5625 L 153.765625 165.011719 L 150.5625 175.574219 L 141.898438 173.441406 Z M 144.292969 162.5625 " transform="matrix(1,0,0,1,-74,-13)"/>
<path style="fill-rule:nonzero;fill:rgb(39.99939%,39.99939%,39.99939%);fill-opacity:1;stroke-width:0.03;stroke-linecap:square;stroke-linejoin:miter;stroke:rgb(39.99939%,39.99939%,39.99939%);stroke-opacity:1;stroke-miterlimit:3.239307;" d="M 207.714844 293.671875 L 215.382812 295.984375 L 214.035156 299.996094 L 206.367188 297.683594 Z M 207.714844 293.671875 " transform="matrix(1,0,0,1,-74,-13)"/>
<path style="fill-rule:nonzero;fill:rgb(39.99939%,39.99939%,39.99939%);fill-opacity:1;stroke-width:0.03;stroke-linecap:square;stroke-linejoin:miter;stroke:rgb(39.99939%,39.99939%,39.99939%);stroke-opacity:1;stroke-miterlimit:3.239307;" d="M 180.503906 292.707031 L 188.167969 295.019531 L 186.816406 299.035156 L 179.152344 296.722656 Z M 180.503906 292.707031 " transform="matrix(1,0,0,1,-74,-13)"/>
<path style="fill-rule:nonzero;fill:rgb(39.99939%,39.99939%,39.99939%);fill-opacity:1;stroke-width:0.03;stroke-linecap:square;stroke-linejoin:miter;stroke:rgb(39.99939%,39.99939%,39.99939%);stroke-opacity:1;stroke-miterlimit:3.239307;" d="M 206.867188 311.984375 L 209.832031 312.742188 L 207.550781 320.777344 L 204.585938 320.019531 Z M 206.867188 311.984375 " transform="matrix(1,0,0,1,-74,-13)"/>
<path style="fill-rule:nonzero;fill:rgb(39.99939%,39.99939%,39.99939%);fill-opacity:1;stroke-width:0.03;stroke-linecap:square;stroke-linejoin:miter;stroke:rgb(39.99939%,39.99939%,39.99939%);stroke-opacity:1;stroke-miterlimit:3.239307;" d="M 202.84375 310.785156 L 205.808594 311.539062 L 203.527344 319.574219 L 200.5625 318.820312 Z M 202.84375 310.785156 " transform="matrix(1,0,0,1,-74,-13)"/>
<path style="fill-rule:nonzero;fill:rgb(39.99939%,39.99939%,39.99939%);fill-opacity:1;stroke-width:0.03;stroke-linecap:square;stroke-linejoin:miter;stroke:rgb(39.99939%,39.99939%,39.99939%);stroke-opacity:1;stroke-miterlimit:3.239307;" d="M 193.421875 302.871094 L 196.386719 303.628906 L 194.101562 311.664062 L 191.136719 310.90625 Z M 193.421875 302.871094 " transform="matrix(1,0,0,1,-74,-13)"/>
<path style="fill-rule:nonzero;fill:rgb(39.99939%,39.99939%,39.99939%);fill-opacity:1;stroke-width:0.03;stroke-linecap:square;stroke-linejoin:miter;stroke:rgb(39.99939%,39.99939%,39.99939%);stroke-opacity:1;stroke-miterlimit:3.239307;" d="M 189.714844 301.570312 L 192.679688 302.328125 L 190.398438 310.363281 L 187.433594 309.605469 Z M 189.714844 301.570312 " transform="matrix(1,0,0,1,-74,-13)"/>
<path style="fill-rule:nonzero;fill:rgb(39.99939%,39.99939%,39.99939%);fill-opacity:1;stroke-width:0.03;stroke-linecap:square;stroke-linejoin:miter;stroke:rgb(39.99939%,39.99939%,39.99939%);stroke-opacity:1;stroke-miterlimit:3.239307;" d="M 197.867188 304.859375 L 201.746094 305.875 L 198.253906 317.859375 L 194.375 316.84375 Z M 197.867188 304.859375 " transform="matrix(1,0,0,1,-74,-13)"/>
<path style="fill-rule:nonzero;fill:rgb(39.99939%,39.99939%,39.99939%);fill-opacity:1;stroke-width:0.03;stroke-linecap:square;stroke-linejoin:miter;stroke:rgb(39.99939%,39.99939%,39.99939%);stroke-opacity:1;stroke-miterlimit:3.239307;" d="M 182.09375 300.460938 L 185.972656 301.476562 L 182.476562 313.457031 L 178.601562 312.445312 Z M 182.09375 300.460938 " transform="matrix(1,0,0,1,-74,-13)"/>
<path style="fill-rule:nonzero;fill:rgb(39.99939%,39.99939%,39.99939%);fill-opacity:1;stroke-width:0.03;stroke-linecap:square;stroke-linejoin:miter;stroke:rgb(39.99939%,39.99939%,39.99939%);stroke-opacity:1;stroke-miterlimit:3.239307;" d="M 204.738281 300.210938 L 212.40625 302.523438 L 211.058594 306.539062 L 203.390625 304.226562 Z M 204.738281 300.210938 " transform="matrix(1,0,0,1,-74,-13)"/>
<path style="fill-rule:nonzero;fill:rgb(39.99939%,39.99939%,39.99939%);fill-opacity:1;stroke-width:0.03;stroke-linecap:square;stroke-linejoin:miter;stroke:rgb(39.99939%,39.99939%,39.99939%);stroke-opacity:1;stroke-miterlimit:3.239307;" d="M 200.613281 178.398438 L 207.488281 180.152344 L 199.558594 205.605469 L 192.359375 203.445312 Z M 200.613281 178.398438 " transform="matrix(1,0,0,1,-74,-13)"/>
<path style="fill-rule:nonzero;fill:rgb(39.99939%,39.99939%,39.99939%);fill-opacity:1;stroke-width:0.03;stroke-linecap:square;stroke-linejoin:miter;stroke:rgb(39.99939%,39.99939%,39.99939%);stroke-opacity:1;stroke-miterlimit:3.239307;" d="M 199.34375 178 L 195.898438 188.414062 L 189.824219 186.644531 L 193.105469 176.277344 Z M 199.34375 178 " transform="matrix(1,0,0,1,-74,-13)"/>
<g clip-path="url(#clip24)" clip-rule="nonzero">
<path style=" stroke:none;fill-rule:evenodd;fill:rgb(85.096741%,85.096741%,81.959534%);fill-opacity:0.7;" d="M 378.808594 278 C 378.808594 274.339844 377.351562 270.824219 374.761719 268.238281 C 372.175781 265.648438 368.660156 264.191406 365 264.191406 C 361.339844 264.191406 357.824219 265.648438 355.238281 268.238281 C 352.648438 270.824219 351.191406 274.339844 351.191406 278 C 351.191406 281.660156 352.648438 285.175781 355.238281 287.761719 C 357.824219 290.351562 361.339844 291.808594 365 291.808594 C 368.660156 291.808594 372.175781 290.351562 374.761719 287.761719 C 377.351562 285.175781 378.808594 281.660156 378.808594 278 Z M 378.808594 278 "/>
</g>
<path style=" stroke:none;fill-rule:evenodd;fill:rgb(85.096741%,85.096741%,81.959534%);fill-opacity:0.7;" d="M 84.808594 175 C 84.808594 171.339844 83.351562 167.824219 80.761719 165.238281 C 78.175781 162.648438 74.660156 161.191406 71 161.191406 C 67.339844 161.191406 63.824219 162.648438 61.238281 165.238281 C 58.648438 167.824219 57.191406 171.339844 57.191406 175 C 57.191406 178.660156 58.648438 182.175781 61.238281 184.761719 C 63.824219 187.351562 67.339844 188.808594 71 188.808594 C 74.660156 188.808594 78.175781 187.351562 80.761719 184.761719 C 83.351562 182.175781 84.808594 178.660156 84.808594 175 Z M 84.808594 175 "/>
<g clip-path="url(#clip25)" clip-rule="nonzero">
<path style=" stroke:none;fill-rule:nonzero;fill:rgb(99.998474%,99.998474%,30.587769%);fill-opacity:0.8;" d="M 387.125 231.535156 L 357.230469 283.3125 L 417.019531 283.3125 Z M 387.125 231.535156 "/>
</g>
<g clip-path="url(#clip26)" clip-rule="nonzero">
<path style="fill:none;stroke-width:0.288;stroke-linecap:square;stroke-linejoin:miter;stroke:rgb(0%,0%,0%);stroke-opacity:0.8;stroke-miterlimit:3.25;" d="M 461.125 244.535156 L 431.230469 296.3125 L 491.019531 296.3125 Z M 461.125 244.535156 " transform="matrix(1,0,0,1,-74,-13)"/>
</g>
</g>
</svg>
