<?xml version="1.0" encoding="UTF-8"?>
<svg xmlns="http://www.w3.org/2000/svg" xmlns:xlink="http://www.w3.org/1999/xlink" width="361pt" height="361pt" viewBox="0 0 361 361" version="1.1">
<defs>
<clipPath id="clip1">
  <path d="M 0 319 L 18 319 L 18 360 L 0 360 Z M 0 319 "/>
</clipPath>
<clipPath id="clip2">
  <path d="M 17 323 L 38 323 L 38 360 L 17 360 Z M 17 323 "/>
</clipPath>
<clipPath id="clip3">
  <path d="M 39 327 L 60 327 L 60 360 L 39 360 Z M 39 327 "/>
</clipPath>
<clipPath id="clip4">
  <path d="M 59 331 L 80 331 L 80 360 L 59 360 Z M 59 331 "/>
</clipPath>
<clipPath id="clip5">
  <path d="M 54 348 L 65 348 L 65 360 L 54 360 Z M 54 348 "/>
</clipPath>
<clipPath id="clip6">
  <path d="M 75 351 L 86 351 L 86 360 L 75 360 Z M 75 351 "/>
</clipPath>
<clipPath id="clip7">
  <path d="M 81 336 L 101 336 L 101 360 L 81 360 Z M 81 336 "/>
</clipPath>
<clipPath id="clip8">
  <path d="M 9 355 L 20 355 L 20 360 L 9 360 Z M 9 355 "/>
</clipPath>
<clipPath id="clip9">
  <path d="M 178 345 L 189 345 L 189 360 L 178 360 Z M 178 345 "/>
</clipPath>
<clipPath id="clip10">
  <path d="M 163 345 L 174 345 L 174 360 L 163 360 Z M 163 345 "/>
</clipPath>
<clipPath id="clip11">
  <path d="M 185 347 L 197 347 L 197 360 L 185 360 Z M 185 347 "/>
</clipPath>
<clipPath id="clip12">
  <path d="M 93 336 L 130 336 L 130 360 L 93 360 Z M 93 336 "/>
</clipPath>
<clipPath id="clip13">
  <path d="M 138 341 L 164 341 L 164 360 L 138 360 Z M 138 341 "/>
</clipPath>
<clipPath id="clip14">
  <path d="M 32 344 L 45 344 L 45 360 L 32 360 Z M 32 344 "/>
</clipPath>
<clipPath id="clip15">
  <path d="M 333 140 L 360 140 L 360 191 L 333 191 Z M 333 140 "/>
</clipPath>
<clipPath id="clip16">
  <path d="M 352 141 L 360 141 L 360 180 L 352 180 Z M 352 141 "/>
</clipPath>
<clipPath id="clip17">
  <path d="M 350 126 L 360 126 L 360 158 L 350 158 Z M 350 126 "/>
</clipPath>
<clipPath id="clip18">
  <path d="M 265 280 L 360 280 L 360 360 L 265 360 Z M 265 280 "/>
</clipPath>
<clipPath id="clip19">
  <path d="M 277 184 L 360 184 L 360 285 L 277 285 Z M 277 184 "/>
</clipPath>
<clipPath id="clip20">
  <path d="M 213 336 L 276 336 L 276 360 L 213 360 Z M 213 336 "/>
</clipPath>
<clipPath id="clip21">
  <path d="M 329 84 L 360 84 L 360 128 L 329 128 Z M 329 84 "/>
</clipPath>
<clipPath id="clip22">
  <path d="M 339 45 L 360 45 L 360 101 L 339 101 Z M 339 45 "/>
</clipPath>
<clipPath id="clip23">
  <path d="M 237 0 L 360 0 L 360 113 L 237 113 Z M 237 0 "/>
</clipPath>
</defs>
<g id="surface63">
<path style="fill-rule:nonzero;fill:rgb(0%,0%,0%);fill-opacity:1;stroke-width:0.03;stroke-linecap:square;stroke-linejoin:miter;stroke:rgb(0%,0%,0%);stroke-opacity:1;stroke-miterlimit:10;" d="M 0 178 L 360 178 L 360 -182 L 0 -182 Z M 0 178 " transform="matrix(1,0,0,1,0,182)"/>
<g clip-path="url(#clip1)" clip-rule="nonzero">
<path style=" stroke:none;fill-rule:nonzero;fill:rgb(39.99939%,39.99939%,39.99939%);fill-opacity:0.3;" d="M 6.394531 319.152344 L 17.300781 321.164062 L 8.300781 368.964844 L -2.445312 367.046875 Z M 6.394531 319.152344 "/>
</g>
<g clip-path="url(#clip2)" clip-rule="nonzero">
<path style=" stroke:none;fill-rule:nonzero;fill:rgb(39.99939%,39.99939%,39.99939%);fill-opacity:0.3;" d="M 27.269531 323.398438 L 37.953125 325.367188 L 28.636719 372.992188 L 17.488281 370.992188 Z M 27.269531 323.398438 "/>
</g>
<g clip-path="url(#clip3)" clip-rule="nonzero">
<path style=" stroke:none;fill-rule:nonzero;fill:rgb(39.99939%,39.99939%,39.99939%);fill-opacity:0.3;" d="M 48.972656 327.558594 L 59.964844 329.367188 L 49.988281 377.003906 L 39.039062 375.128906 Z M 48.972656 327.558594 "/>
</g>
<g clip-path="url(#clip4)" clip-rule="nonzero">
<path style=" stroke:none;fill-rule:nonzero;fill:rgb(39.99939%,39.99939%,39.99939%);fill-opacity:0.3;" d="M 68.816406 331.609375 L 79.667969 333.609375 L 70.949219 381.28125 L 59.566406 379.40625 Z M 68.816406 331.609375 "/>
</g>
<g clip-path="url(#clip5)" clip-rule="nonzero">
<path style=" stroke:none;fill-rule:nonzero;fill:rgb(39.99939%,39.99939%,39.99939%);fill-opacity:0.3;" d="M 57.351562 348.011719 L 64.21875 349.292969 L 61.578125 362.0625 L 54.695312 360.789062 Z M 57.351562 348.011719 "/>
</g>
<g clip-path="url(#clip6)" clip-rule="nonzero">
<path style=" stroke:none;fill-rule:nonzero;fill:rgb(39.99939%,39.99939%,39.99939%);fill-opacity:0.3;" d="M 78.207031 351.871094 L 85.882812 353.285156 L 83.308594 366.085938 L 75.386719 364.621094 Z M 78.207031 351.871094 "/>
</g>
<g clip-path="url(#clip7)" clip-rule="nonzero">
<path style=" stroke:none;fill-rule:nonzero;fill:rgb(39.99939%,39.99939%,39.99939%);fill-opacity:0.3;" d="M 90.550781 336.003906 L 100.898438 338.027344 L 94.882812 366.46875 L 91.433594 384.785156 L 81.097656 382.851562 L 84.773438 364.984375 Z M 90.550781 336.003906 "/>
</g>
<path style=" stroke:none;fill-rule:nonzero;fill:rgb(39.99939%,39.99939%,39.99939%);fill-opacity:0.3;" d="M 81.101562 335.65625 L 89.445312 337.191406 L 86.695312 349.988281 L 78.648438 348.507812 Z M 81.101562 335.65625 "/>
<path style=" stroke:none;fill-rule:nonzero;fill:rgb(39.99939%,39.99939%,39.99939%);fill-opacity:0.3;" d="M -5.90625 336.394531 L 1.8125 337.816406 L -0.855469 351.234375 L -8.703125 349.769531 Z M -5.90625 336.394531 "/>
<path style=" stroke:none;fill-rule:nonzero;fill:rgb(39.99939%,39.99939%,39.99939%);fill-opacity:0.3;" d="M -2.695312 320.238281 L 4.976562 321.648438 L 2.488281 334.492188 L -5.375 333.046875 Z M -2.695312 320.238281 "/>
<path style=" stroke:none;fill-rule:nonzero;fill:rgb(39.99939%,39.99939%,39.99939%);fill-opacity:0.3;" d="M 18.09375 324.0625 L 25.507812 325.425781 L 23.070312 338.28125 L 15.613281 336.90625 Z M 18.09375 324.0625 "/>
<g clip-path="url(#clip8)" clip-rule="nonzero">
<path style=" stroke:none;fill-rule:nonzero;fill:rgb(39.99939%,39.99939%,39.99939%);fill-opacity:0.3;" d="M 11.96875 355.964844 L 19.003906 357.257812 L 16.390625 370.699219 L 9.417969 369.308594 Z M 11.96875 355.964844 "/>
</g>
<path style=" stroke:none;fill-rule:nonzero;fill:rgb(39.99939%,39.99939%,39.99939%);fill-opacity:0.3;" d="M 14.972656 340.238281 L 22.09375 341.546875 L 19.582031 354.761719 L 12.386719 353.519531 Z M 14.972656 340.238281 "/>
<path style=" stroke:none;fill-rule:nonzero;fill:rgb(39.99939%,39.99939%,39.99939%);fill-opacity:0.3;" d="M 153.464844 327.46875 L 159.992188 328.972656 L 160.894531 325.449219 L 163.097656 325.957031 L 162.195312 329.480469 L 168.726562 330.984375 L 168.191406 333.078125 L 152.929688 329.5625 Z M 153.464844 327.46875 "/>
<path style=" stroke:none;fill-rule:nonzero;fill:rgb(39.99939%,39.99939%,39.99939%);fill-opacity:0.3;" d="M 40.59375 295.949219 L 45.230469 296.964844 L 41.050781 314.15625 L 36.414062 313.140625 Z M 40.59375 295.949219 "/>
<path style=" stroke:none;fill-rule:nonzero;fill:rgb(39.99939%,39.99939%,39.99939%);fill-opacity:0.3;" d="M 69.664062 311.046875 L 76.191406 312.546875 L 77.09375 309.027344 L 79.296875 309.535156 L 78.394531 313.054688 L 84.925781 314.558594 L 84.390625 316.652344 L 69.128906 313.136719 Z M 69.664062 311.046875 "/>
<path style=" stroke:none;fill-rule:nonzero;fill:rgb(39.99939%,39.99939%,39.99939%);fill-opacity:0.3;" d="M 133.515625 318.402344 L 140.042969 319.90625 L 140.945312 316.382812 L 143.148438 316.890625 L 142.25 320.414062 L 148.777344 321.917969 L 148.242188 324.011719 L 132.980469 320.496094 Z M 133.515625 318.402344 "/>
<path style=" stroke:none;fill-rule:nonzero;fill:rgb(39.99939%,39.99939%,39.99939%);fill-opacity:0.3;" d="M 49.742188 303.363281 L 56.273438 304.867188 L 57.171875 301.34375 L 59.378906 301.851562 L 58.476562 305.375 L 65.003906 306.878906 L 64.46875 308.96875 L 49.207031 305.453125 Z M 49.742188 303.363281 "/>
<path style=" stroke:none;fill-rule:nonzero;fill:rgb(39.99939%,39.99939%,39.99939%);fill-opacity:0.3;" d="M 12.21875 291.007812 L 16.855469 292.023438 L 12.675781 309.21875 L 8.039062 308.203125 Z M 12.21875 291.007812 "/>
<path style=" stroke:none;fill-rule:nonzero;fill:rgb(39.99939%,39.99939%,39.99939%);fill-opacity:0.3;" d="M 26.871094 293.835938 L 31.511719 294.851562 L 27.328125 312.046875 L 22.691406 311.03125 Z M 26.871094 293.835938 "/>
<path style=" stroke:none;fill-rule:nonzero;fill:rgb(39.99939%,39.99939%,39.99939%);fill-opacity:0.3;" d="M 89.28125 322.886719 L 95.808594 324.390625 L 96.707031 320.867188 L 98.914062 321.375 L 98.011719 324.898438 L 104.539062 326.402344 L 104.003906 328.492188 L 88.746094 324.976562 Z M 89.28125 322.886719 "/>
<path style=" stroke:none;fill-rule:nonzero;fill:rgb(39.99939%,39.99939%,39.99939%);fill-opacity:0.3;" d="M -1.472656 288.464844 L 3.164062 289.480469 L -1.019531 306.675781 L -5.65625 305.660156 Z M -1.472656 288.464844 "/>
<g clip-path="url(#clip9)" clip-rule="nonzero">
<path style=" stroke:none;fill-rule:nonzero;fill:rgb(39.99939%,39.99939%,39.99939%);fill-opacity:0.3;" d="M 181.773438 345.257812 L 188.492188 346.425781 L 185.546875 362.664062 L 178.6875 361.730469 Z M 181.773438 345.257812 "/>
</g>
<g clip-path="url(#clip10)" clip-rule="nonzero">
<path style=" stroke:none;fill-rule:nonzero;fill:rgb(39.99939%,39.99939%,39.99939%);fill-opacity:0.3;" d="M 167.398438 345.199219 L 173.75 346.027344 L 170.371094 364.546875 L 163.636719 363.105469 Z M 167.398438 345.199219 "/>
</g>
<g clip-path="url(#clip11)" clip-rule="nonzero">
<path style=" stroke:none;fill-rule:nonzero;fill:rgb(39.99939%,39.99939%,39.99939%);fill-opacity:0.3;" d="M 189.878906 347.546875 L 196.707031 348.578125 L 192.070312 372.765625 L 185.132812 371.359375 Z M 189.878906 347.546875 "/>
</g>
<g clip-path="url(#clip12)" clip-rule="nonzero">
<path style=" stroke:none;fill-rule:nonzero;fill:rgb(39.99939%,39.99939%,39.99939%);fill-opacity:0.3;" d="M 102.238281 336.230469 L 112.371094 338.230469 L 129.542969 341.859375 L 125.949219 358.9375 L 109.097656 355.886719 L 106.78125 368.785156 L 104.675781 380.277344 L 93.972656 378.695312 L 96.382812 367.1875 Z M 102.238281 336.230469 "/>
</g>
<g clip-path="url(#clip13)" clip-rule="nonzero">
<path style=" stroke:none;fill-rule:nonzero;fill:rgb(39.99939%,39.99939%,39.99939%);fill-opacity:0.3;" d="M 145.90625 405.710938 L 144.691406 398.703125 L 143.707031 386.132812 L 143.460938 379.929688 L 142.328125 372.257812 L 141.921875 369.136719 L 140.871094 365.480469 L 139.820312 360.453125 L 138.84375 346.039062 L 138.808594 345.816406 L 138.789062 345.65625 L 138.78125 345.492188 L 138.785156 345.332031 L 138.792969 345.171875 L 138.8125 345.007812 L 138.839844 344.851562 L 138.878906 344.691406 L 138.921875 344.535156 L 138.976562 344.382812 L 139.039062 344.234375 L 139.109375 344.085938 L 139.1875 343.941406 L 139.273438 343.800781 L 139.367188 343.667969 L 139.46875 343.539062 L 139.578125 343.414062 L 139.660156 343.328125 L 139.8125 343.179688 L 139.941406 343.074219 L 140.074219 342.972656 L 140.214844 342.878906 L 140.355469 342.789062 L 140.503906 342.710938 L 140.65625 342.636719 L 140.8125 342.574219 L 140.972656 342.515625 L 141.136719 342.46875 L 141.300781 342.425781 L 141.46875 342.394531 L 141.636719 342.371094 L 149.355469 341.238281 L 149.644531 341.21875 L 149.921875 341.210938 L 150.195312 341.21875 L 150.46875 341.242188 L 150.742188 341.277344 L 151.015625 341.324219 L 151.28125 341.386719 L 151.546875 341.460938 L 151.804688 341.550781 L 152.058594 341.652344 L 152.308594 341.765625 L 152.550781 341.890625 L 152.785156 342.027344 L 153.011719 342.175781 L 153.230469 342.335938 L 153.4375 342.507812 L 153.636719 342.6875 L 153.828125 342.875 L 154.003906 343.078125 L 154.171875 343.285156 L 154.328125 343.5 L 154.46875 343.722656 L 154.601562 343.953125 L 154.71875 344.191406 L 154.824219 344.433594 L 158.542969 356.644531 L 159.523438 368.679688 L 160.582031 380.085938 L 161.472656 386.253906 L 162.527344 393.566406 L 163.015625 397.507812 L 163.234375 400.542969 L 163.4375 403.683594 L 163.015625 406.519531 L 162.714844 406.824219 L 162.304688 407.203125 L 161.871094 407.5625 L 161.421875 407.898438 L 160.953125 408.214844 L 160.464844 408.503906 L 159.964844 408.773438 L 159.449219 409.011719 L 158.921875 409.226562 L 158.382812 409.417969 L 157.835938 409.578125 L 157.277344 409.710938 L 156.714844 409.820312 L 156.144531 409.898438 L 155.574219 409.945312 L 155 409.96875 L 154.425781 409.960938 L 153.851562 409.925781 L 153.28125 409.859375 L 152.714844 409.769531 L 152.15625 409.648438 L 151.601562 409.5 L 151.058594 409.324219 L 150.523438 409.121094 L 150.003906 408.894531 L 149.496094 408.640625 L 149 408.363281 L 148.523438 408.058594 L 148.0625 407.734375 L 147.621094 407.382812 L 147.199219 407.015625 L 146.800781 406.625 L 146.421875 406.214844 Z M 145.90625 405.710938 "/>
</g>
<path style=" stroke:none;fill-rule:nonzero;fill:rgb(39.99939%,39.99939%,39.99939%);fill-opacity:0.3;" d="M 111.664062 319.390625 L 118.191406 320.894531 L 119.089844 317.371094 L 121.296875 317.878906 L 120.394531 321.402344 L 126.921875 322.902344 L 126.386719 324.996094 L 111.128906 321.480469 Z M 111.664062 319.390625 "/>
<path style=" stroke:none;fill-rule:nonzero;fill:rgb(39.99939%,39.99939%,39.99939%);fill-opacity:0.3;" d="M 39.289062 327.960938 L 47.253906 329.429688 L 44.597656 342.242188 L 36.59375 340.769531 Z M 39.289062 327.960938 "/>
<path style=" stroke:none;fill-rule:nonzero;fill:rgb(39.99939%,39.99939%,39.99939%);fill-opacity:0.3;" d="M 60.695312 331.902344 L 67.570312 333.167969 L 65.09375 346.011719 L 58.164062 344.738281 Z M 60.695312 331.902344 "/>
<g clip-path="url(#clip14)" clip-rule="nonzero">
<path style=" stroke:none;fill-rule:nonzero;fill:rgb(39.99939%,39.99939%,39.99939%);fill-opacity:0.3;" d="M 35.894531 344.109375 L 44.167969 345.574219 L 40.613281 362.996094 L 32.285156 361.386719 Z M 35.894531 344.109375 "/>
</g>
<path style=" stroke:none;fill-rule:nonzero;fill:rgb(39.99939%,39.99939%,39.99939%);fill-opacity:0.3;" d="M 231.113281 225.101562 L 246.886719 254.371094 L 223.980469 268.210938 L 223.460938 265.90625 L 222.9375 262.921875 L 222.582031 259.910156 L 222.394531 256.890625 L 222.371094 253.863281 L 222.515625 250.835938 L 222.824219 247.824219 L 223.300781 244.832031 L 223.941406 241.863281 L 224.746094 238.933594 L 225.710938 236.050781 L 226.832031 233.214844 L 228.109375 230.441406 L 229.535156 227.734375 Z M 231.113281 225.101562 "/>
<path style=" stroke:none;fill-rule:nonzero;fill:rgb(39.99939%,39.99939%,39.99939%);fill-opacity:0.3;" d="M 332.339844 136.296875 L 339.894531 138.117188 L 313.707031 162.859375 L 310.023438 157.40625 Z M 332.339844 136.296875 "/>
<g clip-path="url(#clip15)" clip-rule="nonzero">
<path style=" stroke:none;fill-rule:nonzero;fill:rgb(39.99939%,39.99939%,39.99939%);fill-opacity:0.3;" d="M 333.789062 151.21875 L 345.039062 140.152344 L 372.679688 181.195312 L 357.726562 190.464844 Z M 333.789062 151.21875 "/>
</g>
<path style=" stroke:none;fill-rule:nonzero;fill:rgb(39.99939%,39.99939%,39.99939%);fill-opacity:0.3;" d="M 294.609375 175.421875 L 311.285156 163.8125 L 336.414062 201.714844 L 319.167969 211.609375 Z M 294.609375 175.421875 "/>
<path style=" stroke:none;fill-rule:nonzero;fill:rgb(39.99939%,39.99939%,39.99939%);fill-opacity:0.3;" d="M 316.789062 165.410156 L 330.371094 152.683594 L 353.929688 191.523438 L 339.371094 199.828125 Z M 316.789062 165.410156 "/>
<path style=" stroke:none;fill-rule:nonzero;fill:rgb(39.99939%,39.99939%,39.99939%);fill-opacity:0.3;" d="M 236.511719 221.085938 L 250.828125 207.722656 L 271.382812 239.878906 L 253.839844 250.539062 Z M 236.511719 221.085938 "/>
<path style=" stroke:none;fill-rule:nonzero;fill:rgb(39.99939%,39.99939%,39.99939%);fill-opacity:0.3;" d="M 291.667969 177.484375 L 315.222656 214.851562 L 297.363281 224.265625 L 274.644531 189.152344 Z M 291.667969 177.484375 "/>
<path style=" stroke:none;fill-rule:nonzero;fill:rgb(39.99939%,39.99939%,39.99939%);fill-opacity:0.3;" d="M 252.644531 205.90625 L 269.898438 193.1875 L 293.589844 226.992188 L 273.34375 238.328125 Z M 252.644531 205.90625 "/>
<g clip-path="url(#clip16)" clip-rule="nonzero">
<path style=" stroke:none;fill-rule:nonzero;fill:rgb(39.99939%,39.99939%,39.99939%);fill-opacity:0.3;" d="M 352.347656 141.894531 L 412.050781 159.289062 L 376.875 179.53125 Z M 352.347656 141.894531 "/>
</g>
<g clip-path="url(#clip17)" clip-rule="nonzero">
<path style=" stroke:none;fill-rule:nonzero;fill:rgb(39.99939%,39.99939%,39.99939%);fill-opacity:0.3;" d="M 360.207031 126.484375 L 434.292969 148.601562 L 418.441406 157.34375 L 350.605469 136.703125 Z M 360.207031 126.484375 "/>
</g>
<path style=" stroke:none;fill-rule:nonzero;fill:rgb(39.99939%,39.99939%,39.99939%);fill-opacity:0.3;" d="M 80.148438 172.761719 L 93.535156 169.242188 L 102.246094 202.660156 L 88.855469 206.160156 Z M 80.148438 172.761719 "/>
<path style=" stroke:none;fill-rule:nonzero;fill:rgb(39.99939%,39.99939%,39.99939%);fill-opacity:0.3;" d="M 98.261719 121.542969 L 98.058594 121.636719 L 94.632812 115.621094 L 94.9375 115.738281 L 98.078125 121.117188 Z M 98.261719 121.542969 "/>
<path style=" stroke:none;fill-rule:nonzero;fill:rgb(39.99939%,39.99939%,39.99939%);fill-opacity:0.3;" d="M 98.914062 123.136719 L 98.953125 123.117188 L 99.117188 123.492188 Z M 98.914062 123.136719 "/>
<path style=" stroke:none;fill-rule:nonzero;fill:rgb(39.99939%,39.99939%,39.99939%);fill-opacity:0.3;" d="M 128.488281 197.730469 L 135.296875 195.945312 L 144.867188 212.929688 L 133.648438 217.070312 Z M 128.488281 197.730469 "/>
<path style=" stroke:none;fill-rule:nonzero;fill:rgb(39.99939%,39.99939%,39.99939%);fill-opacity:0.3;" d="M 73.394531 146.851562 L 86.78125 143.332031 L 93.050781 167.390625 L 79.664062 170.90625 Z M 73.394531 146.851562 "/>
<path style=" stroke:none;fill-rule:nonzero;fill:rgb(39.99939%,39.99939%,39.99939%);fill-opacity:0.3;" d="M 84.246094 128.84375 L 96.238281 125.742188 L 106.871094 163.804688 L 94.558594 166.992188 Z M 84.246094 128.84375 "/>
<path style=" stroke:none;fill-rule:nonzero;fill:rgb(39.99939%,39.99939%,39.99939%);fill-opacity:0.3;" d="M 42.023438 202.289062 L 54.28125 199.070312 L 58.230469 214.226562 L 45.71875 217.515625 Z M 42.023438 202.289062 "/>
<path style=" stroke:none;fill-rule:nonzero;fill:rgb(39.99939%,39.99939%,39.99939%);fill-opacity:0.3;" d="M 47.515625 166.265625 L 60.316406 162.902344 L 67.261719 189.550781 L 54.464844 192.917969 Z M 47.515625 166.265625 "/>
<path style=" stroke:none;fill-rule:nonzero;fill:rgb(39.99939%,39.99939%,39.99939%);fill-opacity:0.3;" d="M 55.953125 198.628906 L 68.753906 195.265625 L 72.703125 210.425781 L 59.90625 213.789062 Z M 55.953125 198.628906 "/>
<path style=" stroke:none;fill-rule:nonzero;fill:rgb(39.99939%,39.99939%,39.99939%);fill-opacity:0.3;" d="M 71.058594 194.660156 L 83.355469 191.429688 L 87.308594 206.585938 L 75.011719 209.820312 Z M 71.058594 194.660156 "/>
<path style=" stroke:none;fill-rule:nonzero;fill:rgb(39.99939%,39.99939%,39.99939%);fill-opacity:0.3;" d="M 95.039062 168.847656 L 107.65625 165.695312 L 116.84375 198.824219 L 103.75 202.265625 Z M 95.039062 168.847656 "/>
<path style=" stroke:none;fill-rule:nonzero;fill:rgb(39.99939%,39.99939%,39.99939%);fill-opacity:0.3;" d="M 46.027344 219.402344 L 126.914062 198.144531 L 132.140625 217.707031 L 49.976562 238.914062 Z M 46.027344 219.402344 "/>
<path style=" stroke:none;fill-rule:nonzero;fill:rgb(39.99939%,39.99939%,39.99939%);fill-opacity:0.3;" d="M 111.164062 168.519531 L 118.636719 166.328125 L 134.273438 194.246094 L 118.742188 198.328125 Z M 111.164062 168.519531 "/>
<path style=" stroke:none;fill-rule:nonzero;fill:rgb(39.99939%,39.99939%,39.99939%);fill-opacity:0.3;" d="M 34.71875 172.933594 L 46.488281 169.179688 L 52.785156 193.335938 L 39.988281 196.726562 Z M 34.71875 172.933594 "/>
<path style=" stroke:none;fill-rule:nonzero;fill:rgb(39.99939%,39.99939%,39.99939%);fill-opacity:0.3;" d="M 60.882812 155.625 L 73.183594 152.394531 L 81.867188 185.710938 L 69.570312 188.945312 Z M 60.882812 155.625 "/>
<path style=" stroke:none;fill-rule:nonzero;fill:rgb(39.99939%,39.99939%,39.99939%);fill-opacity:0.3;" d="M 0.636719 235.625 L 14.40625 235.425781 L 14.351562 238.085938 L 1.992188 241.019531 Z M 0.636719 235.625 "/>
<path style=" stroke:none;fill-rule:nonzero;fill:rgb(39.99939%,39.99939%,39.99939%);fill-opacity:0.3;" d="M -12.46875 237.59375 L -39.53125 183.996094 L 30.347656 166.460938 L 45.414062 234.515625 L 45.171875 234.101562 L 35.171875 235.527344 L 25.011719 236.496094 L 14.410156 235.414062 L 0.632812 235.617188 L -1.421875 235.589844 L -6.1875 236.453125 Z M -12.46875 237.59375 "/>
<path style=" stroke:none;fill-rule:nonzero;fill:rgb(39.99939%,39.99939%,39.99939%);fill-opacity:0.3;" d="M -12.46875 237.59375 L -6.1875 236.453125 L -4.769531 239.492188 L -0.507812 238.765625 L 0.335938 241.410156 L -9.472656 243.738281 Z M -12.46875 237.59375 "/>
<path style=" stroke:none;fill-rule:nonzero;fill:rgb(39.99939%,39.99939%,39.99939%);fill-opacity:0.3;" d="M 54.148438 266.078125 L 53.554688 263.246094 L 53.308594 261.203125 Z M 54.148438 266.078125 "/>
<path style=" stroke:none;fill-rule:nonzero;fill:rgb(39.99939%,39.99939%,39.99939%);fill-opacity:0.3;" d="M 14.351562 238.085938 L 14.136719 247.875 L 7.589844 248.027344 L 10.058594 270.976562 L 4.726562 268.386719 L 3.941406 252.21875 L 3.105469 252.21875 L 2.269531 252.222656 L 2.441406 268.820312 L -3.195312 264.929688 L -4.855469 254.105469 L -5.421875 250.1875 L 3.9375 248.753906 L 1.992188 241.019531 Z M 14.351562 238.085938 "/>
<path style=" stroke:none;fill-rule:nonzero;fill:rgb(39.99939%,39.99939%,39.99939%);fill-opacity:0.3;" d="M 45.414062 234.515625 L 45.421875 234.554688 L 35.171875 235.527344 L 45.171875 234.101562 Z M 45.414062 234.515625 "/>
<path style=" stroke:none;fill-rule:nonzero;fill:rgb(39.99939%,39.99939%,39.99939%);fill-opacity:0.3;" d="M 0.335938 241.410156 L 2.398438 247.875 L -6.886719 249.039062 L -9.472656 243.738281 Z M 0.335938 241.410156 "/>
<path style=" stroke:none;fill-rule:nonzero;fill:rgb(39.99939%,39.99939%,39.99939%);fill-opacity:0.3;" d="M 23.210938 239.914062 L 20.28125 275.152344 L 12.800781 271.695312 L 10.03125 250.769531 L 16.730469 250.183594 L 15.707031 238.59375 Z M 23.210938 239.914062 "/>
<path style=" stroke:none;fill-rule:nonzero;fill:rgb(39.99939%,39.99939%,39.99939%);fill-opacity:0.3;" d="M 25.53125 240.320312 L 30.550781 240.195312 L 35.820312 281.199219 L 23.023438 275.582031 Z M 25.53125 240.320312 "/>
<path style=" stroke:none;fill-rule:nonzero;fill:rgb(39.99939%,39.99939%,39.99939%);fill-opacity:0.3;" d="M 32.039062 240.160156 L 46.597656 239.796875 L 54.40625 288.679688 L 37.800781 281.917969 Z M 32.039062 240.160156 "/>
<g clip-path="url(#clip18)" clip-rule="nonzero">
<path style=" stroke:none;fill-rule:nonzero;fill:rgb(39.99939%,39.99939%,39.99939%);fill-opacity:0.3;" d="M 443.777344 294.96875 L 454.464844 296.421875 L 461.210938 297.339844 L 457.554688 329.011719 L 454.503906 355.597656 L 449.679688 358.113281 L 448.386719 357.90625 L 440.40625 356.867188 L 433.976562 361.40625 L 424.414062 358.804688 L 412.289062 362.304688 L 407.957031 356.988281 L 405.476562 353.945312 L 392.988281 361.28125 L 382.886719 367.566406 L 358.09375 382.585938 L 365.8125 392.226562 L 370.464844 398.304688 L 363.046875 408.953125 L 361.605469 410.117188 L 358.246094 406.574219 L 356.386719 407.832031 L 359.878906 411.507812 L 351.386719 418.367188 L 349.132812 419.289062 L 345.996094 415.054688 L 345.15625 415.585938 L 344.3125 416.121094 L 347.25 420.058594 L 341.523438 422.402344 L 333.25 421.683594 L 321.40625 405.046875 L 293.382812 368.335938 L 312.113281 354.660156 L 310.667969 352.628906 L 309.222656 350.59375 L 289.980469 363.570312 L 274.429688 345.125 L 265.136719 331.847656 L 286.023438 317.683594 L 298.015625 309.355469 L 298.242188 309.003906 L 298.449219 308.640625 L 298.632812 308.269531 L 298.800781 307.890625 L 298.882812 307.664062 L 298.933594 307.628906 L 301.621094 302.695312 L 299.828125 296.867188 L 286.796875 280.339844 L 357.457031 286.28125 Z M 443.777344 294.96875 "/>
</g>
<g clip-path="url(#clip19)" clip-rule="nonzero">
<path style=" stroke:none;fill-rule:nonzero;fill:rgb(39.99939%,39.99939%,39.99939%);fill-opacity:0.3;" d="M 456.398438 245.144531 L 457.160156 245.21875 L 459.984375 245.503906 L 461.570312 284.765625 L 455.164062 284.292969 L 438.128906 282.640625 L 409.019531 279.933594 L 342.984375 273.070312 L 312.496094 269.324219 L 288.984375 269.210938 L 281.289062 270.824219 L 277.679688 263.984375 L 289.390625 258.246094 L 298.046875 252.765625 L 311.847656 242.953125 L 321.410156 235.71875 L 333.320312 230.148438 L 350.105469 219.203125 L 343.382812 206.96875 L 367.257812 193.4375 L 375.101562 204.277344 L 377.894531 210.300781 L 380.253906 208.765625 L 382.617188 207.226562 L 379.953125 201.554688 L 371.992188 190.621094 L 387.03125 184.496094 L 392.710938 196.527344 L 417.039062 196.574219 L 416.726562 201.714844 L 417.839844 201.753906 L 418.8125 201.792969 L 419.1875 196.941406 L 432.5625 197.761719 L 432.191406 202.515625 L 434.535156 202.882812 L 435.234375 197.808594 L 461.003906 195.8125 Z M 456.398438 245.144531 "/>
</g>
<path style=" stroke:none;fill-rule:nonzero;fill:rgb(39.99939%,39.99939%,39.99939%);fill-opacity:0.3;" d="M 299.410156 231.675781 L 339.496094 208.558594 L 346.074219 219.734375 L 331.902344 228.714844 L 320.210938 234.238281 L 310.300781 241.378906 L 307.382812 243.457031 Z M 299.410156 231.675781 "/>
<path style=" stroke:none;fill-rule:nonzero;fill:rgb(39.99939%,39.99939%,39.99939%);fill-opacity:0.3;" d="M 263.121094 252.589844 L 296.707031 233.359375 L 305.035156 245.34375 L 296.664062 251.101562 L 289.277344 255.292969 L 277.089844 260.347656 L 271.984375 261.921875 L 268.269531 258.929688 Z M 263.121094 252.589844 "/>
<path style=" stroke:none;fill-rule:nonzero;fill:rgb(39.99939%,39.99939%,39.99939%);fill-opacity:0.3;" d="M 230.550781 271.128906 L 261.058594 255.703125 L 275.59375 273.273438 Z M 230.550781 271.128906 "/>
<path style=" stroke:none;fill-rule:nonzero;fill:rgb(39.99939%,39.99939%,39.99939%);fill-opacity:0.3;" d="M 267.617188 326.535156 L 263.390625 329.359375 L 262.617188 328.25 Z M 267.617188 326.535156 "/>
<path style=" stroke:none;fill-rule:nonzero;fill:rgb(39.99939%,39.99939%,39.99939%);fill-opacity:0.3;" d="M 274.429688 345.125 L 263.929688 332.667969 L 265.136719 331.847656 Z M 274.429688 345.125 "/>
<path style=" stroke:none;fill-rule:nonzero;fill:rgb(39.99939%,39.99939%,39.99939%);fill-opacity:0.3;" d="M 298.882812 307.664062 L 298.945312 307.503906 L 299.066406 307.109375 L 299.167969 306.710938 L 299.246094 306.304688 L 299.300781 305.898438 L 299.335938 305.488281 L 299.34375 305.078125 L 299.34375 304.867188 L 299.320312 304.457031 L 299.273438 304.050781 L 299.203125 303.644531 L 299.113281 303.242188 L 299 302.84375 L 298.867188 302.453125 L 298.710938 302.070312 L 285.285156 280.210938 L 286.796875 280.339844 L 299.828125 296.867188 L 301.621094 302.695312 L 298.933594 307.628906 Z M 298.882812 307.664062 "/>
<path style=" stroke:none;fill-rule:nonzero;fill:rgb(39.99939%,39.99939%,39.99939%);fill-opacity:0.3;" d="M 197.652344 334.992188 L 230.039062 312.855469 L 245.078125 332.132812 L 212.722656 356.203125 Z M 197.652344 334.992188 "/>
<path style=" stroke:none;fill-rule:nonzero;fill:rgb(39.99939%,39.99939%,39.99939%);fill-opacity:0.3;" d="M 192.9375 332.4375 L 175.660156 305.878906 L 208.476562 288.128906 L 214.339844 294.90625 L 226.28125 308.710938 L 217.394531 315.035156 Z M 192.9375 332.4375 "/>
<g clip-path="url(#clip20)" clip-rule="nonzero">
<path style=" stroke:none;fill-rule:nonzero;fill:rgb(39.99939%,39.99939%,39.99939%);fill-opacity:0.3;" d="M 213.917969 362.0625 L 248.171875 336.957031 L 275.8125 376.558594 L 241.671875 402.222656 Z M 213.917969 362.0625 "/>
</g>
<path style=" stroke:none;fill-rule:nonzero;fill:rgb(39.99939%,39.99939%,39.99939%);fill-opacity:0.3;" d="M 276.429688 274.289062 L 227.496094 272.675781 L 230.550781 271.128906 L 275.59375 273.273438 Z M 276.429688 274.289062 "/>
<path style=" stroke:none;fill-rule:nonzero;fill:rgb(39.99939%,39.99939%,39.99939%);fill-opacity:0.3;" d="M 296.640625 303.613281 L 296.71875 303.789062 L 296.800781 303.964844 L 296.863281 304.144531 L 296.917969 304.328125 L 296.964844 304.511719 L 297 304.699219 L 297.023438 304.886719 L 297.035156 305.078125 L 297.039062 305.222656 L 297.035156 305.414062 L 297.019531 305.601562 L 296.992188 305.789062 L 296.957031 305.976562 L 296.910156 306.164062 L 296.851562 306.34375 L 296.785156 306.523438 L 296.710938 306.699219 L 296.625 306.871094 L 296.527344 307.039062 L 296.425781 307.203125 L 296.277344 307.402344 L 267.617188 326.535156 L 262.617188 328.25 L 263.390625 329.359375 L 262.566406 329.910156 L 251.085938 314.65625 L 224.085938 278.785156 L 269.644531 279.421875 L 280.621094 279.574219 Z M 296.640625 303.613281 "/>
<path style=" stroke:none;fill-rule:nonzero;fill:rgb(39.99939%,39.99939%,39.99939%);fill-opacity:0.3;" d="M 119.878906 124.34375 L 128.195312 117.859375 L 141.074219 131.035156 L 128.335938 137.328125 Z M 119.878906 124.34375 "/>
<path style=" stroke:none;fill-rule:nonzero;fill:rgb(39.99939%,39.99939%,39.99939%);fill-opacity:0.3;" d="M 134.628906 89.722656 L 136.753906 88.261719 L 141.699219 94.164062 L 146.644531 100.0625 L 144.144531 102.027344 Z M 134.628906 89.722656 "/>
<path style=" stroke:none;fill-rule:nonzero;fill:rgb(39.99939%,39.99939%,39.99939%);fill-opacity:0.3;" d="M 97.011719 92.984375 L 90.210938 110.296875 L 87.917969 111.015625 L 85.152344 106.238281 Z M 97.011719 92.984375 "/>
<path style=" stroke:none;fill-rule:nonzero;fill:rgb(39.99939%,39.99939%,39.99939%);fill-opacity:0.3;" d="M 96.90625 102.152344 L 100.882812 94.070312 L 106.632812 101.71875 L 93.4375 109.546875 Z M 96.90625 102.152344 "/>
<path style=" stroke:none;fill-rule:nonzero;fill:rgb(39.99939%,39.99939%,39.99939%);fill-opacity:0.3;" d="M 104.679688 97.109375 L 118.679688 88.3125 L 122.089844 92.457031 L 107.582031 101.1875 Z M 104.679688 97.109375 "/>
<path style=" stroke:none;fill-rule:nonzero;fill:rgb(39.99939%,39.99939%,39.99939%);fill-opacity:0.3;" d="M 93.011719 74.550781 L 98.917969 72.648438 L 107.105469 74.871094 L 113.757812 77.191406 L 132.285156 86.09375 L 123.644531 91.890625 L 118.96875 86.636719 L 105.75 94.953125 Z M 93.011719 74.550781 "/>
<path style=" stroke:none;fill-rule:nonzero;fill:rgb(39.99939%,39.99939%,39.99939%);fill-opacity:0.3;" d="M 137.277344 86.800781 L 113.066406 72.914062 L 113.34375 72.371094 L 118.699219 74.042969 L 130.804688 81.21875 L 135.738281 85.699219 Z M 137.277344 86.800781 "/>
<path style=" stroke:none;fill-rule:nonzero;fill:rgb(39.99939%,39.99939%,39.99939%);fill-opacity:0.3;" d="M 163.519531 144.722656 L 166.882812 143.136719 L 175.476562 159.3125 L 172.777344 162.140625 Z M 163.519531 144.722656 "/>
<path style=" stroke:none;fill-rule:nonzero;fill:rgb(39.99939%,39.99939%,39.99939%);fill-opacity:0.3;" d="M 157.1875 147.707031 L 161.933594 145.46875 L 171.503906 163.476562 L 167.691406 167.472656 Z M 157.1875 147.707031 "/>
<path style=" stroke:none;fill-rule:nonzero;fill:rgb(39.99939%,39.99939%,39.99939%);fill-opacity:0.3;" d="M 151.894531 150.203125 L 155.953125 148.289062 L 166.703125 168.511719 L 163.441406 171.929688 Z M 151.894531 150.203125 "/>
<path style=" stroke:none;fill-rule:nonzero;fill:rgb(39.99939%,39.99939%,39.99939%);fill-opacity:0.3;" d="M 170.6875 166.25 L 179.457031 166.839844 L 173.054688 170.726562 Z M 170.6875 166.25 "/>
<path style=" stroke:none;fill-rule:nonzero;fill:rgb(39.99939%,39.99939%,39.99939%);fill-opacity:0.3;" d="M 125.589844 106.3125 L 130.847656 102.175781 L 136.261719 108.226562 L 130.886719 112.234375 Z M 125.589844 106.3125 "/>
<path style=" stroke:none;fill-rule:nonzero;fill:rgb(39.99939%,39.99939%,39.99939%);fill-opacity:0.3;" d="M 132.300781 101.03125 L 137.78125 96.722656 L 143.246094 102.734375 L 137.71875 107.082031 Z M 132.300781 101.03125 "/>
<path style=" stroke:none;fill-rule:nonzero;fill:rgb(39.99939%,39.99939%,39.99939%);fill-opacity:0.3;" d="M 136.40625 111.402344 L 140.753906 107.980469 L 156.054688 123.632812 L 150.867188 126.199219 Z M 136.40625 111.402344 "/>
<path style=" stroke:none;fill-rule:nonzero;fill:rgb(39.99939%,39.99939%,39.99939%);fill-opacity:0.3;" d="M 142.027344 107.148438 L 148.023438 102.261719 L 164.71875 119.355469 L 157.707031 122.921875 Z M 142.027344 107.148438 "/>
<path style=" stroke:none;fill-rule:nonzero;fill:rgb(39.99939%,39.99939%,39.99939%);fill-opacity:0.3;" d="M 128.671875 139.285156 L 134.304688 136.46875 L 143.152344 152.429688 L 137.160156 155.257812 Z M 128.671875 139.285156 "/>
<path style=" stroke:none;fill-rule:nonzero;fill:rgb(39.99939%,39.99939%,39.99939%);fill-opacity:0.3;" d="M 135.722656 135.960938 L 141.371094 133.296875 L 149.859375 149.269531 L 144.210938 151.933594 Z M 135.722656 135.960938 "/>
<path style=" stroke:none;fill-rule:nonzero;fill:rgb(39.99939%,39.99939%,39.99939%);fill-opacity:0.3;" d="M 142.601562 132.71875 L 146.660156 130.804688 L 155.148438 146.773438 L 151.089844 148.6875 Z M 142.601562 132.71875 "/>
<path style=" stroke:none;fill-rule:nonzero;fill:rgb(39.99939%,39.99939%,39.99939%);fill-opacity:0.3;" d="M 147.894531 130.222656 L 152.640625 127.984375 L 160.984375 143.683594 L 156.382812 146.195312 Z M 147.894531 130.222656 "/>
<path style=" stroke:none;fill-rule:nonzero;fill:rgb(39.99939%,39.99939%,39.99939%);fill-opacity:0.3;" d="M 154.226562 127.234375 L 162.78125 122.742188 L 167.847656 134.816406 L 172.957031 138.414062 L 162.714844 143.207031 Z M 154.226562 127.234375 "/>
<path style=" stroke:none;fill-rule:nonzero;fill:rgb(39.99939%,39.99939%,39.99939%);fill-opacity:0.3;" d="M 163.988281 122.445312 L 170.464844 119.335938 L 171.605469 120.222656 L 176.535156 129.1875 L 179.875 135.035156 L 175.316406 137.039062 L 169.277344 134.074219 Z M 163.988281 122.445312 "/>
<path style=" stroke:none;fill-rule:nonzero;fill:rgb(39.99939%,39.99939%,39.99939%);fill-opacity:0.3;" d="M 168.496094 142.453125 L 174.699219 139.601562 L 181.378906 151.847656 L 176.636719 157.8125 Z M 168.496094 142.453125 "/>
<path style=" stroke:none;fill-rule:nonzero;fill:rgb(39.99939%,39.99939%,39.99939%);fill-opacity:0.3;" d="M 145.015625 153.445312 L 150.664062 150.785156 L 162.453125 172.96875 L 157.917969 177.722656 Z M 145.015625 153.445312 "/>
<path style=" stroke:none;fill-rule:nonzero;fill:rgb(39.99939%,39.99939%,39.99939%);fill-opacity:0.3;" d="M 137.964844 156.769531 L 143.957031 153.945312 L 157.070312 178.613281 L 152.253906 183.660156 Z M 137.964844 156.769531 "/>
<path style=" stroke:none;fill-rule:nonzero;fill:rgb(39.99939%,39.99939%,39.99939%);fill-opacity:0.3;" d="M 129.929688 116.496094 L 135.367188 112.21875 L 149.628906 126.808594 L 143.144531 130.011719 Z M 129.929688 116.496094 "/>
<path style=" stroke:none;fill-rule:nonzero;fill:rgb(39.99939%,39.99939%,39.99939%);fill-opacity:0.3;" d="M 136.554688 157.433594 L 151.125 184.847656 L 147.300781 188.855469 L 131.792969 159.679688 Z M 136.554688 157.433594 "/>
<path style=" stroke:none;fill-rule:nonzero;fill:rgb(39.99939%,39.99939%,39.99939%);fill-opacity:0.3;" d="M 138.578125 194.195312 L 147.632812 190.144531 L 154.296875 204.125 L 151.925781 205.464844 L 153.898438 209.378906 L 148.195312 212.558594 Z M 138.578125 194.195312 "/>
<path style=" stroke:none;fill-rule:nonzero;fill:rgb(39.99939%,39.99939%,39.99939%);fill-opacity:0.3;" d="M 149.300781 188.726562 L 157.390625 180.1875 L 164.414062 193.121094 L 155.957031 201.992188 Z M 149.300781 188.726562 "/>
<path style=" stroke:none;fill-rule:nonzero;fill:rgb(39.99939%,39.99939%,39.99939%);fill-opacity:0.3;" d="M 158.714844 178.800781 L 164.386719 172.886719 L 171.226562 186.644531 L 165.695312 191.324219 Z M 158.714844 178.800781 "/>
<path style=" stroke:none;fill-rule:nonzero;fill:rgb(39.99939%,39.99939%,39.99939%);fill-opacity:0.3;" d="M 165.921875 171.246094 L 169.351562 167.648438 L 175.839844 181.84375 L 172.324219 185.1875 Z M 165.921875 171.246094 "/>
<path style=" stroke:none;fill-rule:nonzero;fill:rgb(39.99939%,39.99939%,39.99939%);fill-opacity:0.3;" d="M 123.160156 163.75 L 130.03125 160.507812 L 145.289062 189.214844 L 137.949219 192.332031 Z M 123.160156 163.75 "/>
<path style=" stroke:none;fill-rule:nonzero;fill:rgb(39.99939%,39.99939%,39.99939%);fill-opacity:0.3;" d="M 182.234375 169.121094 L 178.53125 158.691406 L 187.265625 149.503906 L 188.339844 151.503906 L 188.640625 152.503906 L 189.566406 153.773438 L 203.210938 179.085938 L 183.382812 191.882812 L 158.066406 206.90625 L 156.691406 203.789062 L 178.164062 181.984375 L 174.070312 173.917969 L 180.695312 170.351562 L 187.734375 183.140625 L 188.695312 182.53125 L 189.484375 182.035156 Z M 182.234375 169.121094 "/>
<path style=" stroke:none;fill-rule:nonzero;fill:rgb(39.99939%,39.99939%,39.99939%);fill-opacity:0.3;" d="M 113.722656 146.484375 L 120.738281 143.023438 L 129.230469 158.996094 L 122.050781 162.339844 Z M 113.722656 146.484375 "/>
<path style=" stroke:none;fill-rule:nonzero;fill:rgb(39.99939%,39.99939%,39.99939%);fill-opacity:0.3;" d="M 104.78125 120.207031 L 111.089844 117.058594 L 114.679688 124.355469 L 108.8125 127.285156 Z M 104.78125 120.207031 "/>
<path style=" stroke:none;fill-rule:nonzero;fill:rgb(39.99939%,39.99939%,39.99939%);fill-opacity:0.3;" d="M 93.96875 114.449219 L 106.359375 108.386719 L 110.726562 115.792969 L 98.261719 121.542969 L 98.078125 121.117188 L 94.9375 115.738281 L 94.632812 115.621094 Z M 93.96875 114.449219 "/>
<path style=" stroke:none;fill-rule:nonzero;fill:rgb(39.99939%,39.99939%,39.99939%);fill-opacity:0.3;" d="M 98.953125 123.117188 L 103.273438 120.960938 L 107.300781 128.039062 L 102.941406 130.214844 L 99.117188 123.492188 Z M 98.953125 123.117188 "/>
<path style=" stroke:none;fill-rule:nonzero;fill:rgb(39.99939%,39.99939%,39.99939%);fill-opacity:0.3;" d="M 104.085938 132.222656 L 108.445312 130.046875 L 116.046875 143.398438 L 110.933594 145.875 Z M 104.085938 132.222656 "/>
<path style=" stroke:none;fill-rule:nonzero;fill:rgb(39.99939%,39.99939%,39.99939%);fill-opacity:0.3;" d="M 109.957031 129.292969 L 115.695312 126.429688 L 122.480469 140.21875 L 117.5625 142.648438 Z M 109.957031 129.292969 "/>
<path style=" stroke:none;fill-rule:nonzero;fill:rgb(39.99939%,39.99939%,39.99939%);fill-opacity:0.3;" d="M 122.5 142.191406 L 127.261719 139.949219 L 135.75 155.921875 L 130.992188 158.164062 Z M 122.5 142.191406 "/>
<path style=" stroke:none;fill-rule:nonzero;fill:rgb(39.99939%,39.99939%,39.99939%);fill-opacity:0.3;" d="M 114.835938 115.171875 L 124.417969 107.234375 L 129.832031 113.285156 L 118.488281 122.210938 Z M 114.835938 115.171875 "/>
<path style=" stroke:none;fill-rule:nonzero;fill:rgb(39.99939%,39.99939%,39.99939%);fill-opacity:0.3;" d="M 163.664062 71.042969 L 238.65625 93.625 L 242.738281 92.425781 L 238.667969 105.070312 L 225.984375 101.59375 L 158.652344 79.015625 Z M 163.664062 71.042969 "/>
<path style=" stroke:none;fill-rule:nonzero;fill:rgb(39.99939%,39.99939%,39.99939%);fill-opacity:0.3;" d="M 130.976562 61.425781 L 129.234375 68.515625 L 111.996094 63.714844 L 112.453125 62.417969 L 117.355469 61.042969 L 118.699219 60.144531 L 121.390625 59.25 Z M 130.976562 61.425781 "/>
<path style=" stroke:none;fill-rule:nonzero;fill:rgb(39.99939%,39.99939%,39.99939%);fill-opacity:0.3;" d="M 113.558594 71.960938 L 119.097656 73.445312 L 118.699219 74.042969 L 113.34375 72.371094 Z M 113.558594 71.960938 "/>
<path style=" stroke:none;fill-rule:nonzero;fill:rgb(39.99939%,39.99939%,39.99939%);fill-opacity:0.3;" d="M 147.117188 63.535156 L 145.054688 72.523438 L 131.019531 68.96875 L 132.628906 62.316406 L 133.496094 62.835938 Z M 147.117188 63.535156 "/>
<path style=" stroke:none;fill-rule:nonzero;fill:rgb(39.99939%,39.99939%,39.99939%);fill-opacity:0.3;" d="M 202.023438 57.464844 L 202.230469 59.09375 L 181.507812 61.785156 L 181.410156 60.398438 L 183.261719 60.144531 Z M 202.023438 57.464844 "/>
<path style=" stroke:none;fill-rule:nonzero;fill:rgb(39.99939%,39.99939%,39.99939%);fill-opacity:0.3;" d="M 177.96875 60.867188 L 178.058594 62.546875 L 172.765625 61.578125 Z M 177.96875 60.867188 "/>
<path style=" stroke:none;fill-rule:nonzero;fill:rgb(39.99939%,39.99939%,39.99939%);fill-opacity:0.3;" d="M 221.199219 55.269531 L 221.347656 57.179688 L 205.5625 58.898438 L 205.324219 56.996094 Z M 221.199219 55.269531 "/>
<path style=" stroke:none;fill-rule:nonzero;fill:rgb(39.99939%,39.99939%,39.99939%);fill-opacity:0.3;" d="M 206.753906 62.011719 L 241.453125 57.960938 L 242.855469 72.480469 L 208.480469 75.855469 Z M 206.753906 62.011719 "/>
<path style=" stroke:none;fill-rule:nonzero;fill:rgb(39.99939%,39.99939%,39.99939%);fill-opacity:0.3;" d="M 244.234375 57.632812 L 278.488281 53.613281 L 277.816406 69.042969 L 245.761719 72.191406 Z M 244.234375 57.632812 "/>
<path style=" stroke:none;fill-rule:nonzero;fill:rgb(39.99939%,39.99939%,39.99939%);fill-opacity:0.3;" d="M 244.824219 53.472656 L 244.933594 54.449219 L 223.828125 56.890625 L 223.675781 55 L 225.855469 54.765625 Z M 244.824219 53.472656 "/>
<path style=" stroke:none;fill-rule:nonzero;fill:rgb(39.99939%,39.99939%,39.99939%);fill-opacity:0.3;" d="M 267.980469 50.835938 L 268.148438 51.765625 L 248.605469 53.855469 L 248.554688 53.421875 L 249.167969 53.421875 Z M 267.980469 50.835938 "/>
<path style=" stroke:none;fill-rule:nonzero;fill:rgb(39.99939%,39.99939%,39.99939%);fill-opacity:0.3;" d="M 279.230469 50.300781 L 271.21875 50.976562 L 271.121094 50.40625 L 272.03125 50.28125 L 279.207031 50.28125 Z M 279.230469 50.300781 "/>
<path style=" stroke:none;fill-rule:nonzero;fill:rgb(39.99939%,39.99939%,39.99939%);fill-opacity:0.3;" d="M 167.066406 64.226562 L 178.449219 65.355469 L 179.953125 65.253906 L 203.808594 62.371094 L 205.753906 76.125 L 197.777344 76.910156 L 165.109375 67.839844 Z M 167.066406 64.226562 "/>
<path style=" stroke:none;fill-rule:nonzero;fill:rgb(39.99939%,39.99939%,39.99939%);fill-opacity:0.3;" d="M 245.066406 91.890625 L 276.566406 87.914062 L 275.777344 101.703125 L 275.78125 106.300781 L 277.171875 109.578125 L 279.253906 114.0625 L 281.589844 117.765625 L 251.410156 108.566406 L 241.183594 105.761719 Z M 245.066406 91.890625 "/>
<path style=" stroke:none;fill-rule:nonzero;fill:rgb(39.99939%,39.99939%,39.99939%);fill-opacity:0.3;" d="M 209.46875 77.980469 L 243.890625 75.054688 L 245.261719 90.097656 L 240.644531 90.433594 L 209.820312 81.386719 Z M 209.46875 77.980469 "/>
<path style=" stroke:none;fill-rule:nonzero;fill:rgb(39.99939%,39.99939%,39.99939%);fill-opacity:0.3;" d="M 246.523438 74.832031 L 277.167969 72.230469 L 277.03125 85.582031 L 247.890625 88.675781 Z M 246.523438 74.832031 "/>
<path style=" stroke:none;fill-rule:nonzero;fill:rgb(39.99939%,39.99939%,39.99939%);fill-opacity:0.3;" d="M 152.085938 63.546875 L 163.214844 65.714844 L 156.453125 76.792969 L 146.84375 73.144531 L 148.945312 63.628906 L 150.980469 63.730469 Z M 152.085938 63.546875 "/>
<path style=" stroke:none;fill-rule:nonzero;fill:rgb(39.99939%,39.99939%,39.99939%);fill-opacity:0.3;" d="M 238.667969 105.070312 L 238.441406 105.773438 L 225.984375 101.59375 Z M 238.667969 105.070312 "/>
<path style=" stroke:none;fill-rule:nonzero;fill:rgb(39.99939%,39.99939%,39.99939%);fill-opacity:0.3;" d="M 119.097656 73.445312 L 150.980469 81.992188 L 143.273438 90.238281 L 137.277344 86.800781 L 135.738281 85.699219 L 130.804688 81.21875 L 118.699219 74.042969 Z M 119.097656 73.445312 "/>
<path style=" stroke:none;fill-rule:nonzero;fill:rgb(39.99939%,39.99939%,39.99939%);fill-opacity:0.3;" d="M 170.464844 119.335938 L 172.375 118.417969 L 180.78125 134.636719 L 179.875 135.035156 L 176.535156 129.1875 L 171.605469 120.222656 Z M 170.464844 119.335938 "/>
<path style=" stroke:none;fill-rule:nonzero;fill:rgb(39.99939%,39.99939%,39.99939%);fill-opacity:0.3;" d="M 188.339844 151.503906 L 189.566406 153.773438 L 188.640625 152.503906 Z M 188.339844 151.503906 "/>
<path style=" stroke:none;fill-rule:nonzero;fill:rgb(39.99939%,39.99939%,39.99939%);fill-opacity:0.3;" d="M 220.976562 106.214844 L 225.457031 104.226562 L 247.035156 110.945312 L 231.472656 124.972656 Z M 220.976562 106.214844 "/>
<path style=" stroke:none;fill-rule:nonzero;fill:rgb(39.99939%,39.99939%,39.99939%);fill-opacity:0.3;" d="M 206.527344 115.507812 L 218.523438 110.023438 L 228.007812 127.410156 L 218.789062 137.269531 Z M 206.527344 115.507812 "/>
<path style=" stroke:none;fill-rule:nonzero;fill:rgb(39.99939%,39.99939%,39.99939%);fill-opacity:0.3;" d="M 281.589844 117.765625 L 282.839844 119.75 L 240.929688 106.667969 L 241.183594 105.761719 L 251.410156 108.566406 Z M 281.589844 117.765625 "/>
<path style=" stroke:none;fill-rule:nonzero;fill:rgb(39.99939%,39.99939%,39.99939%);fill-opacity:0.3;" d="M 146.589844 91.984375 L 154.589844 83.460938 L 218.527344 102.394531 L 216.640625 107.527344 L 193.09375 119.902344 L 194.675781 125.929688 L 188.410156 131.234375 L 182.589844 132.382812 L 173.566406 115.496094 L 158.015625 107.660156 Z M 146.589844 91.984375 "/>
<path style=" stroke:none;fill-rule:nonzero;fill:rgb(39.99939%,39.99939%,39.99939%);fill-opacity:0.3;" d="M 183.707031 136.84375 L 192.433594 132.277344 L 204.847656 116.613281 L 218.097656 140.738281 L 248.160156 112.070312 L 293.8125 127.84375 L 206.871094 179.023438 Z M 183.707031 136.84375 "/>
<path style=" stroke:none;fill-rule:nonzero;fill:rgb(39.99939%,39.99939%,39.99939%);fill-opacity:0.3;" d="M -38.9375 -13.703125 L -37.890625 -13.476562 L -32.515625 -13.035156 L -26.199219 -14.988281 L -21.304688 -17.992188 L 2.546875 -23.261719 L 7.753906 -29.03125 L 9.539062 -30.320312 L 10.957031 -31.316406 L 12.3125 -32.195312 L 13.484375 -32.722656 L 14.53125 -33.015625 L 15.644531 -33.25 L 16.9375 -33.3125 L 18.171875 -33.253906 L 21.40625 -33.113281 L 25.023438 -32.792969 L 27.566406 -32.542969 L 28.5625 -32.414062 L 29.347656 -32.300781 L 30.351562 -32.128906 L 31.386719 -31.921875 L 32.195312 -31.742188 L 33.636719 -31.394531 L 35.667969 -30.875 L 38.195312 -30.25 L 39.851562 -29.898438 L 41.132812 -29.679688 L 42.109375 -29.554688 L 43.972656 -29.398438 L 46.261719 -29.242188 L 51.324219 -29.066406 L 54.507812 -29.089844 L 55.671875 -29.265625 L 56.953125 -29.570312 L 57.796875 -29.824219 L 58.949219 -30.21875 L 61.984375 -31.34375 L 64.136719 -32.304688 L 65.921875 -33.023438 L 67.425781 -33.589844 L 68.871094 -34.097656 L 70.027344 -34.472656 L 71.523438 -34.925781 L 72.984375 -35.335938 L 74.066406 -35.617188 L 76.988281 -36.355469 L 82.109375 -26.609375 L 69.824219 -22.222656 L 49.886719 -15.179688 L 32.941406 -18.910156 L 22.191406 -25.1875 L 23.472656 -11.105469 L -0.53125 -1.789062 L -2.78125 -7.285156 L -16.171875 -3.570312 L -21.820312 -11.496094 L -28.824219 -10.445312 L -29.011719 -9.453125 L -29.136719 -8.796875 L -22.339844 -8.054688 L -22.421875 -1.1875 L -22.484375 4.230469 L -21.425781 4.144531 L -20.585938 4.078125 L -19.960938 -0.117188 L -4.167969 -4.929688 L -1.152344 5.402344 L -13.269531 9.582031 L -17.007812 10.328125 L -21.53125 11.21875 L -26.675781 11.820312 L -32.445312 11.679688 L -37.371094 10.980469 L -41.480469 9.488281 L -41.59375 9.441406 Z M -38.9375 -13.703125 "/>
<path style=" stroke:none;fill-rule:nonzero;fill:rgb(39.99939%,39.99939%,39.99939%);fill-opacity:0.3;" d="M 228.269531 -9.3125 L 228.222656 -9.125 L 228.125 -8.816406 L 228.011719 -8.515625 L 227.882812 -8.214844 L 227.738281 -7.925781 L 227.578125 -7.640625 L 227.402344 -7.367188 L 227.210938 -7.101562 L 227.007812 -6.847656 L 226.785156 -6.601562 L 226.554688 -6.367188 L 226.308594 -6.144531 L 226.050781 -5.933594 L 225.785156 -5.738281 L 225.503906 -5.554688 L 225.214844 -5.386719 L 224.917969 -5.234375 L 224.613281 -5.09375 L 224.300781 -4.96875 L 223.980469 -4.859375 L 223.65625 -4.769531 L 223.328125 -4.691406 L 222.992188 -4.632812 L 222.65625 -4.589844 L 222.320312 -4.5625 L 221.980469 -4.554688 L 221.644531 -4.5625 L 221.304688 -4.585938 L 220.96875 -4.628906 L 203.632812 -4.949219 L 195.730469 -5.125 L 190.5625 -5.417969 L 184.027344 -5.429688 L 178.554688 -5.289062 L 174.527344 -5.09375 L 170.097656 -4.769531 L 167.996094 -4.570312 L 163.515625 -3.992188 L 159.339844 -3.234375 L 154.878906 -2.152344 L 148.832031 -0.332031 L 142.382812 2.027344 L 142.128906 2.132812 L 141.800781 2.25 L 141.464844 2.351562 L 141.121094 2.4375 L 140.777344 2.507812 L 140.425781 2.558594 L 140.074219 2.59375 L 139.722656 2.609375 L 139.371094 2.605469 L 139.015625 2.589844 L 138.664062 2.550781 L 138.316406 2.5 L 137.972656 2.429688 L 137.628906 2.339844 L 137.292969 2.234375 L 136.964844 2.113281 L 136.644531 1.976562 L 136.328125 1.824219 L 136.023438 1.65625 L 135.726562 1.472656 L 135.441406 1.273438 L 135.167969 1.0625 L 134.90625 0.835938 L 134.660156 0.597656 L 134.421875 0.347656 L 127.523438 -14.601562 L 124.261719 -22.183594 L 124.039062 -22.875 L 123.894531 -23.441406 L 123.785156 -24.019531 L 123.703125 -24.597656 L 123.652344 -25.179688 L 123.636719 -25.765625 L 123.652344 -26.347656 L 123.699219 -26.933594 L 123.78125 -27.511719 L 123.890625 -28.085938 L 124.035156 -28.65625 L 124.210938 -29.214844 L 124.414062 -29.769531 L 124.648438 -30.308594 L 124.914062 -30.835938 L 125.207031 -31.351562 L 125.53125 -31.847656 L 125.878906 -32.332031 L 126.253906 -32.796875 L 126.652344 -33.242188 L 127.078125 -33.664062 L 127.523438 -34.070312 L 127.992188 -34.449219 L 128.480469 -34.804688 L 128.988281 -35.136719 L 129.511719 -35.441406 L 130.054688 -35.722656 L 182.71875 -44.773438 L 225.546875 -65.277344 L 263.464844 -74.3125 L 283.472656 -79.1875 L 294.949219 -82.082031 L 306.984375 -84.949219 L 336.929688 -90.976562 L 342.609375 -65.121094 L 324.726562 -60.855469 L 320.003906 -60.007812 L 301.667969 -55.359375 L 265.257812 -46.675781 L 262.269531 -51.003906 L 260.492188 -52.851562 L 258.976562 -54.113281 L 257.957031 -54.738281 L 257.105469 -55.121094 L 255.953125 -55.476562 L 254.914062 -55.667969 L 253.273438 -55.753906 L 251.484375 -55.558594 L 249.761719 -55.128906 L 248.148438 -54.621094 L 246.808594 -54.1875 L 245.152344 -53.652344 L 243.136719 -52.855469 L 241.578125 -51.96875 L 240.117188 -50.734375 L 239.125 -49.660156 L 238.507812 -48.96875 L 238.105469 -48.429688 L 237.980469 -48.09375 L 232.960938 -24.460938 L 231.9375 -24.269531 L 232.433594 -35.035156 L 230.867188 -35.082031 L 229.601562 -35.121094 Z M 228.269531 -9.3125 "/>
<path style=" stroke:none;fill-rule:nonzero;fill:rgb(39.99939%,39.99939%,39.99939%);fill-opacity:0.3;" d="M 129.386719 6.964844 L 129.273438 7.414062 L 129.121094 7.898438 L 128.945312 8.375 L 128.742188 8.839844 L 128.515625 9.296875 L 128.261719 9.742188 L 127.984375 10.171875 L 127.683594 10.589844 L 127.359375 10.988281 L 127.011719 11.375 L 126.648438 11.742188 L 126.261719 12.089844 L 125.835938 12.433594 L 50.949219 36 L 50.183594 36.117188 L 47.902344 36.394531 L 45.605469 36.554688 L 43.304688 36.601562 L 41 36.539062 L 38.707031 36.355469 L 36.425781 36.0625 L 34.164062 35.65625 L 31.925781 35.136719 L -31.234375 17.054688 L -34.433594 15.265625 L -32.476562 15.734375 L -30.496094 16.105469 L -28.496094 16.375 L -26.484375 16.546875 L -24.46875 16.617188 L -22.449219 16.589844 L -20.4375 16.457031 L -18.433594 16.230469 L -16.445312 15.902344 L -14.816406 15.554688 L 106.035156 -29.808594 L 106.359375 -29.90625 L 106.835938 -30.03125 L 107.316406 -30.132812 L 107.804688 -30.210938 L 108.296875 -30.261719 L 108.789062 -30.289062 L 109.28125 -30.292969 L 109.773438 -30.273438 L 110.265625 -30.226562 L 110.753906 -30.160156 L 111.238281 -30.066406 L 111.714844 -29.945312 L 112.183594 -29.804688 L 112.644531 -29.640625 L 113.097656 -29.453125 L 113.539062 -29.246094 L 113.96875 -29.015625 L 114.386719 -28.761719 L 114.785156 -28.488281 L 115.171875 -28.199219 L 115.542969 -27.886719 L 115.894531 -27.558594 L 116.226562 -27.214844 L 116.539062 -26.851562 L 116.832031 -26.476562 L 129.324219 2.636719 L 129.4375 3.128906 L 129.523438 3.628906 L 129.582031 4.132812 L 129.613281 4.636719 L 129.617188 4.914062 L 129.601562 5.421875 L 129.5625 5.925781 L 129.492188 6.425781 Z M 129.386719 6.964844 "/>
<path style=" stroke:none;fill-rule:nonzero;fill:rgb(39.99939%,39.99939%,39.99939%);fill-opacity:0.3;" d="M -0.03125 -0.449219 L 25.394531 -10.367188 L 24.28125 -21.613281 L 32.652344 -16.820312 L 47.351562 -13.691406 L 0.765625 4.792969 Z M -0.03125 -0.449219 "/>
<g clip-path="url(#clip21)" clip-rule="nonzero">
<path style=" stroke:none;fill-rule:nonzero;fill:rgb(39.99939%,39.99939%,39.99939%);fill-opacity:0.3;" d="M 377.59375 84.710938 L 353.726562 127.160156 L 329.996094 117.527344 L 334.800781 108.5625 Z M 377.59375 84.710938 "/>
</g>
<g clip-path="url(#clip22)" clip-rule="nonzero">
<path style=" stroke:none;fill-rule:nonzero;fill:rgb(39.99939%,39.99939%,39.99939%);fill-opacity:0.3;" d="M 364.1875 54.269531 L 381.417969 49.402344 L 374.179688 63.417969 L 376.476562 64.347656 L 384.109375 48.710938 L 399.316406 45.96875 L 381.152344 75.863281 L 339.023438 100.089844 L 349.878906 78.265625 L 361.371094 56.429688 L 361.46875 56.242188 L 361.582031 56.0625 L 361.699219 55.886719 L 361.828125 55.71875 L 361.96875 55.554688 L 362.117188 55.402344 L 362.273438 55.253906 L 362.4375 55.113281 L 362.605469 54.984375 L 362.785156 54.859375 L 362.96875 54.746094 L 363.160156 54.644531 L 363.355469 54.546875 L 363.558594 54.464844 L 363.765625 54.390625 L 363.972656 54.324219 Z M 364.1875 54.269531 "/>
</g>
<path style=" stroke:none;fill-rule:nonzero;fill:rgb(39.99939%,39.99939%,39.99939%);fill-opacity:0.3;" d="M 114.8125 55.671875 L 131.386719 59.765625 L 130.976562 61.425781 L 121.390625 59.25 L 118.699219 60.144531 L 117.355469 61.042969 L 112.453125 62.417969 Z M 114.8125 55.671875 "/>
<path style=" stroke:none;fill-rule:nonzero;fill:rgb(39.99939%,39.99939%,39.99939%);fill-opacity:0.3;" d="M 41.558594 43.800781 L 57.488281 42.410156 L 86.960938 48.019531 L 88.078125 49.996094 L 83.277344 51.519531 L 84.144531 65.355469 L 40.535156 52.550781 L 40.21875 52.445312 L 39.992188 52.351562 L 39.769531 52.246094 L 39.554688 52.132812 L 39.34375 52.003906 L 39.140625 51.871094 L 38.949219 51.722656 L 38.585938 51.402344 L 38.257812 51.050781 L 38.109375 50.859375 L 37.972656 50.664062 L 37.945312 50.621094 L 37.515625 49.757812 L 37.457031 49.601562 L 37.390625 49.375 L 37.335938 49.144531 L 37.296875 48.910156 L 37.265625 48.679688 L 37.25 48.445312 L 37.25 48.207031 L 37.257812 47.972656 L 37.28125 47.738281 L 37.316406 47.507812 L 37.367188 47.277344 L 37.429688 47.046875 L 37.503906 46.824219 L 37.589844 46.605469 L 37.6875 46.386719 L 37.796875 46.175781 L 37.917969 45.972656 L 38.050781 45.773438 L 38.195312 45.582031 L 38.347656 45.398438 L 38.683594 45.054688 L 39.058594 44.742188 L 39.257812 44.601562 L 39.464844 44.472656 L 39.675781 44.351562 L 39.894531 44.242188 L 40.121094 44.144531 L 40.351562 44.058594 L 40.585938 43.984375 L 40.824219 43.921875 L 41.066406 43.867188 Z M 41.558594 43.800781 "/>
<path style=" stroke:none;fill-rule:nonzero;fill:rgb(39.99939%,39.99939%,39.99939%);fill-opacity:0.3;" d="M 133.269531 59.679688 L 147.207031 63.144531 L 147.117188 63.535156 L 133.496094 62.835938 L 132.628906 62.316406 Z M 133.269531 59.679688 "/>
<path style=" stroke:none;fill-rule:nonzero;fill:rgb(39.99939%,39.99939%,39.99939%);fill-opacity:0.3;" d="M 153.210938 15.539062 L 160.300781 13.488281 L 151.582031 57.980469 L 145.125 56.824219 Z M 153.210938 15.539062 "/>
<path style=" stroke:none;fill-rule:nonzero;fill:rgb(39.99939%,39.99939%,39.99939%);fill-opacity:0.3;" d="M 156.625 58.617188 L 155.539062 58.417969 L 157.171875 49.871094 Z M 156.625 58.617188 "/>
<path style=" stroke:none;fill-rule:nonzero;fill:rgb(39.99939%,39.99939%,39.99939%);fill-opacity:0.3;" d="M 123.285156 24.183594 L 135.113281 20.765625 L 132.710938 33.039062 L 121.808594 31.71875 Z M 123.285156 24.183594 "/>
<path style=" stroke:none;fill-rule:nonzero;fill:rgb(39.99939%,39.99939%,39.99939%);fill-opacity:0.3;" d="M 134.953125 34.847656 L 147.09375 36.421875 L 143.167969 56.472656 L 131.144531 54.3125 Z M 134.953125 34.847656 "/>
<path style=" stroke:none;fill-rule:nonzero;fill:rgb(39.99939%,39.99939%,39.99939%);fill-opacity:0.3;" d="M 137.867188 19.972656 L 151.0625 16.160156 L 147.40625 34.816406 L 135.25 33.34375 Z M 137.867188 19.972656 "/>
<path style=" stroke:none;fill-rule:nonzero;fill:rgb(39.99939%,39.99939%,39.99939%);fill-opacity:0.3;" d="M 107.9375 28.621094 L 120.675781 24.9375 L 119.40625 31.425781 L 107.667969 30.003906 Z M 107.9375 28.621094 "/>
<path style=" stroke:none;fill-rule:nonzero;fill:rgb(39.99939%,39.99939%,39.99939%);fill-opacity:0.3;" d="M 78.230469 37.203125 L 89.828125 33.851562 L 87.359375 46.453125 L 76.871094 44.570312 Z M 78.230469 37.203125 "/>
<path style=" stroke:none;fill-rule:nonzero;fill:rgb(39.99939%,39.99939%,39.99939%);fill-opacity:0.3;" d="M 92.4375 33.097656 L 103.328125 29.953125 L 99.632812 48.832031 L 89.738281 46.878906 Z M 92.4375 33.097656 "/>
<path style=" stroke:none;fill-rule:nonzero;fill:rgb(39.99939%,39.99939%,39.99939%);fill-opacity:0.3;" d="M 107.371094 31.507812 L 119.109375 32.929688 L 115.472656 51.5 L 103.867188 49.414062 Z M 107.371094 31.507812 "/>
<path style=" stroke:none;fill-rule:nonzero;fill:rgb(39.99939%,39.99939%,39.99939%);fill-opacity:0.3;" d="M 61.984375 41.898438 L 76.324219 37.753906 L 75.054688 44.242188 Z M 61.984375 41.898438 "/>
<path style=" stroke:none;fill-rule:nonzero;fill:rgb(39.99939%,39.99939%,39.99939%);fill-opacity:0.3;" d="M 121.515625 33.21875 L 132.414062 34.539062 L 128.632812 53.863281 L 117.851562 51.925781 Z M 121.515625 33.21875 "/>
<path style=" stroke:none;fill-rule:nonzero;fill:rgb(39.99939%,39.99939%,39.99939%);fill-opacity:0.3;" d="M 149.089844 62.964844 L 152.085938 63.546875 L 150.980469 63.730469 L 148.945312 63.628906 Z M 149.089844 62.964844 "/>
<path style=" stroke:none;fill-rule:nonzero;fill:rgb(39.99939%,39.99939%,39.99939%);fill-opacity:0.3;" d="M 37.945312 50.621094 L 37.847656 50.464844 L 37.730469 50.253906 L 37.628906 50.042969 L 37.539062 49.824219 L 37.515625 49.757812 Z M 37.945312 50.621094 "/>
<path style=" stroke:none;fill-rule:nonzero;fill:rgb(39.99939%,39.99939%,39.99939%);fill-opacity:0.3;" d="M 60.300781 63.246094 L 90.332031 71.445312 L 70.828125 81.457031 Z M 60.300781 63.246094 "/>
<path style=" stroke:none;fill-rule:nonzero;fill:rgb(39.99939%,39.99939%,39.99939%);fill-opacity:0.3;" d="M 35.050781 64.027344 L 47.054688 57.847656 L 57.136719 62.160156 L 68.875 82.460938 L 51.011719 91.632812 Z M 35.050781 64.027344 "/>
<path style=" stroke:none;fill-rule:nonzero;fill:rgb(39.99939%,39.99939%,39.99939%);fill-opacity:0.3;" d="M -1.671875 42.558594 L 40.464844 56.054688 L 14.007812 69.675781 Z M -1.671875 42.558594 "/>
<path style=" stroke:none;fill-rule:nonzero;fill:rgb(39.99939%,39.99939%,39.99939%);fill-opacity:0.3;" d="M -25.109375 43.128906 L -5.152344 42.554688 L 11.324219 71.054688 L -4.308594 79.101562 Z M -25.109375 43.128906 "/>
<path style=" stroke:none;fill-rule:nonzero;fill:rgb(39.99939%,39.99939%,39.99939%);fill-opacity:0.3;" d="M 34.265625 104.714844 L 50.339844 96.460938 L 64.734375 121.359375 L 48.203125 128.820312 Z M 34.265625 104.714844 "/>
<path style=" stroke:none;fill-rule:nonzero;fill:rgb(39.99939%,39.99939%,39.99939%);fill-opacity:0.3;" d="M 53.011719 95.089844 L 70.875 85.917969 L 85.855469 111.832031 L 67.480469 120.121094 Z M 53.011719 95.089844 "/>
<path style=" stroke:none;fill-rule:nonzero;fill:rgb(39.99939%,39.99939%,39.99939%);fill-opacity:0.3;" d="M 72.828125 84.914062 L 90.398438 75.890625 L 98.355469 89.558594 L 97.011719 92.984375 L 85.152344 106.238281 Z M 72.828125 84.914062 "/>
<path style=" stroke:none;fill-rule:nonzero;fill:rgb(39.99939%,39.99939%,39.99939%);fill-opacity:0.3;" d="M 16.316406 73.671875 L 32.382812 65.402344 L 48.339844 93.003906 L 32.265625 101.253906 Z M 16.316406 73.671875 "/>
<path style=" stroke:none;fill-rule:nonzero;fill:rgb(39.99939%,39.99939%,39.99939%);fill-opacity:0.3;" d="M 13.636719 75.050781 L 29.582031 102.632812 L 13.9375 110.664062 L -1.996094 83.097656 Z M 13.636719 75.050781 "/>
<path style=" stroke:none;fill-rule:nonzero;fill:rgb(39.99939%,39.99939%,39.99939%);fill-opacity:0.3;" d="M -5.644531 84.976562 L 10.289062 112.539062 L -6.582031 121.199219 L -22.65625 93.730469 Z M -5.644531 84.976562 "/>
<path style=" stroke:none;fill-rule:nonzero;fill:rgb(39.99939%,39.99939%,39.99939%);fill-opacity:0.3;" d="M -8.121094 126.484375 L 7.941406 154.339844 L -10.4375 160.078125 L -24.554688 134.921875 Z M -8.121094 126.484375 "/>
<path style=" stroke:none;fill-rule:nonzero;fill:rgb(39.99939%,39.99939%,39.99939%);fill-opacity:0.3;" d="M -4.5625 124.65625 L 12.292969 116 L 30.402344 147.324219 L 12.054688 153.054688 Z M -4.5625 124.65625 "/>
<path style=" stroke:none;fill-rule:nonzero;fill:rgb(39.99939%,39.99939%,39.99939%);fill-opacity:0.3;" d="M 15.941406 114.128906 L 31.585938 106.09375 L 46.046875 130.199219 L 33.835938 145.074219 Z M 15.941406 114.128906 "/>
<path style=" stroke:none;fill-rule:nonzero;fill:rgb(39.99939%,39.99939%,39.99939%);fill-opacity:0.3;" d="M 282.296875 16.332031 L 282.9375 16.960938 L 284.523438 19.207031 L 285.71875 26.199219 L 285.089844 49.804688 L 281.917969 50.070312 Z M 282.296875 16.332031 "/>
<g clip-path="url(#clip23)" clip-rule="nonzero">
<path style=" stroke:none;fill-rule:nonzero;fill:rgb(39.99939%,39.99939%,39.99939%);fill-opacity:0.3;" d="M 294.015625 83.195312 L 293.554688 81.726562 L 293.5625 48.667969 L 294.714844 34.21875 L 294.4375 22.558594 L 294.28125 21.390625 L 294.058594 20.234375 L 293.773438 19.09375 L 293.425781 17.964844 L 293.019531 16.855469 L 292.546875 15.769531 L 292.019531 14.707031 L 291.433594 13.671875 L 290.789062 12.667969 L 290.089844 11.695312 L 289.339844 10.761719 L 288.539062 9.863281 L 287.691406 9.007812 L 286.796875 8.199219 L 285.859375 7.429688 L 284.878906 6.710938 L 283.859375 6.042969 L 282.808594 5.425781 L 281.722656 4.859375 L 280.605469 4.351562 L 279.464844 3.898438 L 278.296875 3.5 L 277.113281 3.164062 L 275.59375 2.820312 L 241.777344 -7.28125 L 240.304688 -7.800781 L 239.199219 -8.585938 L 238.433594 -9.582031 L 238.097656 -10.726562 L 237.820312 -11.886719 L 237.613281 -13.058594 L 237.46875 -14.238281 L 237.390625 -15.421875 L 237.375 -16.613281 L 237.425781 -17.800781 L 237.542969 -18.984375 L 237.726562 -20.160156 L 237.972656 -21.324219 L 238.285156 -22.476562 L 238.660156 -23.609375 L 239.09375 -24.722656 L 239.589844 -25.816406 L 240.148438 -26.878906 L 240.761719 -27.917969 L 241.433594 -28.921875 L 242.15625 -29.890625 L 242.933594 -30.820312 L 243.761719 -31.714844 L 244.640625 -32.5625 L 245.5625 -33.367188 L 246.523438 -34.125 L 247.53125 -34.835938 L 248.574219 -35.492188 L 249.652344 -36.097656 L 264.289062 -40.746094 L 276.703125 -44.066406 L 327.335938 -56.492188 L 328.625 -56.667969 L 329.632812 -56.746094 L 330.644531 -56.773438 L 331.65625 -56.75 L 332.664062 -56.679688 L 333.667969 -56.558594 L 334.664062 -56.386719 L 335.648438 -56.164062 L 336.621094 -55.894531 L 337.574219 -55.578125 L 338.511719 -55.210938 L 339.425781 -54.800781 L 340.316406 -54.347656 L 341.179688 -53.847656 L 342.015625 -53.308594 L 342.820312 -52.726562 L 343.59375 -52.105469 L 344.328125 -51.445312 L 345.027344 -50.75 L 345.6875 -50.023438 L 346.304688 -49.265625 L 346.882812 -48.472656 L 348.863281 -40.003906 L 353.289062 -21.453125 L 359.039062 -1.867188 L 359.652344 0.078125 L 360.15625 2.054688 L 360.554688 4.050781 L 360.839844 6.0625 L 361.011719 8.089844 L 361.074219 10.167969 L 361.019531 12.199219 L 360.855469 14.222656 L 360.578125 16.238281 L 360.191406 18.234375 L 359.691406 20.210938 L 359.085938 22.160156 L 358.960938 22.53125 L 354.578125 31.867188 L 341.582031 58.6875 L 318.304688 109.179688 L 317.839844 109.671875 L 317.011719 110.414062 L 316.570312 110.753906 L 316.109375 111.066406 L 315.632812 111.359375 L 315.140625 111.628906 L 314.632812 111.875 L 314.113281 112.089844 L 313.582031 112.285156 L 313.039062 112.449219 L 312.492188 112.585938 L 311.9375 112.699219 L 311.375 112.78125 L 310.808594 112.835938 L 310.242188 112.863281 L 309.671875 112.863281 L 309.105469 112.832031 L 308.539062 112.773438 L 307.980469 112.691406 L 307.425781 112.578125 L 306.875 112.4375 L 306.335938 112.269531 L 305.804688 112.074219 L 305.285156 111.851562 L 304.78125 111.605469 L 304.289062 111.335938 L 303.8125 111.042969 L 303.355469 110.722656 L 302.914062 110.382812 L 302.492188 110.023438 L 301.710938 109.238281 L 301.355469 108.820312 L 301.023438 108.382812 L 300.714844 107.929688 L 300.429688 107.460938 L 300.175781 106.980469 L 299.945312 106.488281 L 299.742188 105.984375 L 299.523438 104.605469 L 299.472656 103.554688 L 301.355469 92.730469 Z M 294.015625 83.195312 "/>
</g>
<path style=" stroke:none;fill-rule:nonzero;fill:rgb(39.99939%,39.99939%,39.99939%);fill-opacity:0.3;" d="M 178.6875 20.578125 L 162.867188 11.730469 L 174.191406 8.46875 L 198.128906 8.082031 L 198.347656 28.6875 L 202.023438 57.464844 L 183.261719 60.144531 L 181.410156 60.398438 Z M 178.6875 20.578125 "/>
<path style=" stroke:none;fill-rule:nonzero;fill:rgb(39.99939%,39.99939%,39.99939%);fill-opacity:0.3;" d="M 163.671875 15.828125 L 175.945312 22.246094 L 177.96875 60.867188 L 172.765625 61.578125 L 156.625 58.617188 L 157.171875 49.871094 Z M 163.671875 15.828125 "/>
<path style=" stroke:none;fill-rule:nonzero;fill:rgb(39.99939%,39.99939%,39.99939%);fill-opacity:0.3;" d="M 201.683594 27.894531 L 201.53125 7.921875 L 217.480469 7.152344 L 221.199219 55.269531 L 205.324219 56.996094 Z M 201.683594 27.894531 "/>
<path style=" stroke:none;fill-rule:nonzero;fill:rgb(39.99939%,39.99939%,39.99939%);fill-opacity:0.3;" d="M 219.808594 7.082031 L 247.625 6.1875 L 242.488281 9.878906 L 233.457031 13.648438 L 240.882812 18.511719 L 244.824219 53.472656 L 225.855469 54.765625 L 223.675781 55 Z M 219.808594 7.082031 "/>
<path style=" stroke:none;fill-rule:nonzero;fill:rgb(39.99939%,39.99939%,39.99939%);fill-opacity:0.3;" d="M 244.191406 17.191406 L 238.160156 13.992188 L 242.890625 12.804688 L 248.8125 10.167969 L 251.769531 6.65625 L 256.773438 8.050781 L 256.980469 11.726562 L 258.300781 15.347656 L 261.347656 17.265625 L 262.042969 18.039062 L 262.496094 19.199219 L 263.03125 23.339844 L 267.980469 50.835938 L 249.167969 53.421875 L 248.554688 53.421875 L 245.5 27.367188 Z M 244.191406 17.191406 "/>
<path style=" stroke:none;fill-rule:nonzero;fill:rgb(39.99939%,39.99939%,39.99939%);fill-opacity:0.3;" d="M 266.273438 22.6875 L 263.707031 15.984375 L 260.679688 14.472656 L 259.621094 11.226562 L 260.011719 7.726562 L 278.71875 12.828125 L 282.296875 16.332031 L 281.917969 50.070312 L 279.230469 50.300781 L 279.207031 50.28125 L 272.03125 50.28125 L 271.121094 50.40625 Z M 266.273438 22.6875 "/>
<path style=" stroke:none;fill-rule:nonzero;fill:rgb(39.99939%,39.99939%,39.99939%);fill-opacity:0.3;" d="M 252.027344 157.339844 L 302.070312 128.441406 L 308.570312 130.425781 L 303.46875 141.402344 L 294.265625 153.503906 L 279.226562 165.902344 L 264.1875 176.117188 Z M 252.027344 157.339844 "/>
<path style=" stroke:none;fill-rule:nonzero;fill:rgb(39.99939%,39.99939%,39.99939%);fill-opacity:0.3;" d="M 208.648438 184.003906 L 249.960938 158.476562 L 262.574219 177.542969 L 224.171875 206.929688 Z M 208.648438 184.003906 "/>
<path style=" stroke:none;fill-rule:nonzero;fill:rgb(39.99939%,39.99939%,39.99939%);fill-opacity:0.3;" d="M 220.660156 209.359375 L 216.765625 213.25 L 214.117188 216.984375 L 211.679688 220.851562 L 209.457031 224.832031 L 207.457031 228.917969 L 205.683594 233.09375 L 204.144531 237.355469 L 202.84375 241.6875 L 201.78125 246.078125 L 201.441406 247.78125 L 160.660156 268.5 L 161.382812 270.964844 L 162.101562 273.429688 L 201.140625 255.214844 L 204.027344 268.476562 L 203.46875 277.539062 L 188.410156 285.722656 L 170.660156 295.269531 L 148.074219 306.523438 L 130.214844 308.570312 L 105.457031 306.898438 L 84.640625 300.972656 L 59.332031 290.625 L 54.148438 266.078125 L 53.308594 261.203125 L 51.429688 245.402344 L 119.507812 228.84375 L 144.105469 222.15625 L 167.289062 209.140625 L 204.621094 186.617188 Z M 220.660156 209.359375 "/>
<path style="fill-rule:nonzero;fill:rgb(39.99939%,39.99939%,39.99939%);fill-opacity:1;stroke-width:0.03;stroke-linecap:square;stroke-linejoin:miter;stroke:rgb(39.99939%,39.99939%,39.99939%);stroke-opacity:1;stroke-miterlimit:3.239307;" d="M 326.027344 170.339844 L 376.070312 141.441406 L 382.570312 143.425781 L 377.46875 154.402344 L 368.265625 166.503906 L 353.226562 178.902344 L 338.1875 189.117188 Z M 326.027344 170.339844 " transform="matrix(1,0,0,1,-74,-13)"/>
<path style="fill-rule:nonzero;fill:rgb(39.99939%,39.99939%,39.99939%);fill-opacity:1;stroke-width:0.03;stroke-linecap:square;stroke-linejoin:miter;stroke:rgb(39.99939%,39.99939%,39.99939%);stroke-opacity:1;stroke-miterlimit:3.239307;" d="M 282.648438 197.003906 L 323.960938 171.476562 L 336.574219 190.542969 L 298.171875 219.929688 Z M 282.648438 197.003906 " transform="matrix(1,0,0,1,-74,-13)"/>
<path style="fill-rule:nonzero;fill:rgb(39.99939%,39.99939%,39.99939%);fill-opacity:1;stroke-width:0.03;stroke-linecap:square;stroke-linejoin:miter;stroke:rgb(39.99939%,39.99939%,39.99939%);stroke-opacity:1;stroke-miterlimit:3.239307;" d="M 294.660156 222.359375 L 290.765625 226.25 L 288.117188 229.984375 L 285.679688 233.851562 L 283.457031 237.832031 L 281.457031 241.917969 L 279.683594 246.09375 L 278.144531 250.355469 L 276.84375 254.6875 L 275.78125 259.078125 L 275.441406 260.78125 L 234.660156 281.5 L 235.382812 283.964844 L 236.101562 286.429688 L 275.140625 268.214844 L 278.027344 281.476562 L 277.46875 290.539062 L 262.410156 298.722656 L 244.660156 308.269531 L 222.074219 319.523438 L 204.214844 321.570312 L 179.457031 319.898438 L 158.640625 313.972656 L 133.332031 303.625 L 128.148438 279.078125 L 127.308594 274.203125 L 125.429688 258.402344 L 193.507812 241.84375 L 218.105469 235.15625 L 241.289062 222.140625 L 278.621094 199.617188 Z M 294.660156 222.359375 " transform="matrix(1,0,0,1,-74,-13)"/>
<path style=" stroke:none;fill-rule:evenodd;fill:rgb(85.096741%,85.096741%,81.959534%);fill-opacity:0.7;" d="M 167.933594 309 C 167.933594 304.242188 166.042969 299.683594 162.679688 296.320312 C 159.316406 292.957031 154.757812 291.066406 150 291.066406 C 145.242188 291.066406 140.683594 292.957031 137.320312 296.320312 C 133.957031 299.683594 132.066406 304.242188 132.066406 309 C 132.066406 313.757812 133.957031 318.316406 137.320312 321.679688 C 140.683594 325.042969 145.242188 326.933594 150 326.933594 C 154.757812 326.933594 159.316406 325.042969 162.679688 321.679688 C 166.042969 318.316406 167.933594 313.757812 167.933594 309 Z M 167.933594 309 "/>
</g>
</svg>
