<?xml version="1.0" encoding="UTF-8"?>
<svg xmlns="http://www.w3.org/2000/svg" xmlns:xlink="http://www.w3.org/1999/xlink" width="361pt" height="361pt" viewBox="0 0 361 361" version="1.1">
<defs>
<clipPath id="clip1">
  <path d="M 205 358 L 295 358 L 295 360 L 205 360 Z M 205 358 "/>
</clipPath>
<clipPath id="clip2">
  <path d="M 235 359 L 266 359 L 266 360 L 235 360 Z M 235 359 "/>
</clipPath>
<clipPath id="clip3">
  <path d="M 234 357 L 239 357 L 239 360 L 234 360 Z M 234 357 "/>
</clipPath>
<clipPath id="clip4">
  <path d="M 240 358 L 247 358 L 247 360 L 240 360 Z M 240 358 "/>
</clipPath>
<clipPath id="clip5">
  <path d="M 96 313 L 130 313 L 130 360 L 96 360 Z M 96 313 "/>
</clipPath>
<clipPath id="clip6">
  <path d="M 123 317 L 154 317 L 154 360 L 123 360 Z M 123 317 "/>
</clipPath>
<clipPath id="clip7">
  <path d="M 176 346 L 205 346 L 205 360 L 176 360 Z M 176 346 "/>
</clipPath>
<clipPath id="clip8">
  <path d="M 149 332 L 179 332 L 179 360 L 149 360 Z M 149 332 "/>
</clipPath>
<clipPath id="clip9">
  <path d="M 0 295 L 102 295 L 102 360 L 0 360 Z M 0 295 "/>
</clipPath>
</defs>
<g id="surface6657">
<path style="fill-rule:nonzero;fill:rgb(0%,0%,0%);fill-opacity:1;stroke-width:0.03;stroke-linecap:square;stroke-linejoin:miter;stroke:rgb(0%,0%,0%);stroke-opacity:1;stroke-miterlimit:10;" d="M 0 178 L 360 178 L 360 -182 L 0 -182 Z M 0 178 " transform="matrix(1,0,0,1,0,182)"/>
<path style=" stroke:none;fill-rule:nonzero;fill:rgb(39.99939%,39.99939%,39.99939%);fill-opacity:0.3;" d="M 157.546875 46.578125 L 180.898438 50.371094 L 180.996094 51.429688 L 178.632812 52.46875 L 154.660156 62.148438 Z M 157.546875 46.578125 "/>
<path style=" stroke:none;fill-rule:nonzero;fill:rgb(39.99939%,39.99939%,39.99939%);fill-opacity:0.3;" d="M 199.625 -43.371094 L 190.894531 2.441406 L 166.628906 -1.691406 L 175.355469 -47.5 Z M 199.625 -43.371094 "/>
<path style=" stroke:none;fill-rule:nonzero;fill:rgb(39.99939%,39.99939%,39.99939%);fill-opacity:0.3;" d="M 129.691406 42.050781 L 154.867188 46.140625 L 151.421875 63.886719 L 139.945312 69.339844 L 139.101562 62.695312 L 137.914062 62.960938 L 136.71875 63.230469 L 137.421875 70.136719 L 123.472656 75.578125 Z M 129.691406 42.050781 "/>
<path style=" stroke:none;fill-rule:nonzero;fill:rgb(39.99939%,39.99939%,39.99939%);fill-opacity:0.3;" d="M 192.71875 4.835938 L 215.8125 8.769531 L 210.074219 38.886719 L 197.066406 43.707031 L 198.644531 34.964844 L 198.152344 34.816406 L 197.5625 34.636719 L 195.675781 44.222656 L 183.433594 49.164062 Z M 192.71875 4.835938 "/>
<path style=" stroke:none;fill-rule:nonzero;fill:rgb(39.99939%,39.99939%,39.99939%);fill-opacity:0.3;" d="M 180.761719 47.691406 L 158.027344 43.996094 L 166.242188 0.328125 L 190.511719 4.460938 Z M 180.761719 47.691406 "/>
<path style=" stroke:none;fill-rule:nonzero;fill:rgb(39.99939%,39.99939%,39.99939%);fill-opacity:0.3;" d="M 155.296875 43.550781 L 130.167969 39.46875 L 139.753906 -4.179688 L 163.617188 -0.117188 Z M 155.296875 43.550781 "/>
<path style=" stroke:none;fill-rule:nonzero;fill:rgb(39.99939%,39.99939%,39.99939%);fill-opacity:0.3;" d="M 356.9375 -16.925781 L 354.117188 3.882812 L 340.847656 3.113281 L 329.003906 3.890625 L 334.621094 -20.386719 Z M 356.9375 -16.925781 "/>
<path style=" stroke:none;fill-rule:nonzero;fill:rgb(39.99939%,39.99939%,39.99939%);fill-opacity:0.3;" d="M 332.085938 -20.816406 L 325.125 5.632812 L 313.488281 6.605469 L 299.8125 9.125 L 308.207031 -24.882812 Z M 332.085938 -20.816406 "/>
<path style=" stroke:none;fill-rule:nonzero;fill:rgb(39.99939%,39.99939%,39.99939%);fill-opacity:0.3;" d="M 218.753906 8.914062 L 243.070312 13.023438 L 240.273438 27.703125 L 224.726562 33.460938 L 217.960938 35.828125 L 215.226562 36.980469 L 213.269531 37.703125 Z M 218.753906 8.914062 "/>
<path style=" stroke:none;fill-rule:nonzero;fill:rgb(39.99939%,39.99939%,39.99939%);fill-opacity:0.3;" d="M 243.320312 26.574219 L 245.808594 13.507812 L 267.996094 16.96875 L 267.6875 18.367188 Z M 243.320312 26.574219 "/>
<path style=" stroke:none;fill-rule:nonzero;fill:rgb(39.99939%,39.99939%,39.99939%);fill-opacity:0.3;" d="M 252.113281 -34.433594 L 243.382812 11.375 L 219.074219 7.238281 L 227.800781 -38.574219 Z M 252.113281 -34.433594 "/>
<path style=" stroke:none;fill-rule:nonzero;fill:rgb(39.99939%,39.99939%,39.99939%);fill-opacity:0.3;" d="M 305.34375 -25.371094 L 296.953125 10.277344 L 284.910156 13.003906 L 271.4375 16.492188 L 281.3125 -29.460938 Z M 305.34375 -25.371094 "/>
<path style=" stroke:none;fill-rule:nonzero;fill:rgb(39.99939%,39.99939%,39.99939%);fill-opacity:0.3;" d="M 278.992188 -29.859375 L 269.195312 14.726562 L 246.246094 11.226562 L 254.855469 -33.96875 Z M 278.992188 -29.859375 "/>
<path style=" stroke:none;fill-rule:nonzero;fill:rgb(39.99939%,39.99939%,39.99939%);fill-opacity:0.3;" d="M 224.929688 -39.0625 L 216.199219 6.746094 L 193.105469 2.816406 L 201.835938 -42.992188 Z M 224.929688 -39.0625 "/>
<path style=" stroke:none;fill-rule:nonzero;fill:rgb(39.99939%,39.99939%,39.99939%);fill-opacity:0.3;" d="M 51.992188 -19.117188 L 42.289062 24.445312 L 18.597656 20.445312 L 28.160156 -23.175781 Z M 51.992188 -19.117188 "/>
<path style=" stroke:none;fill-rule:nonzero;fill:rgb(39.99939%,39.99939%,39.99939%);fill-opacity:0.3;" d="M 25.476562 -23.632812 L 15.945312 20 L -8.109375 15.941406 L 1.582031 -27.699219 Z M 25.476562 -23.632812 "/>
<path style=" stroke:none;fill-rule:nonzero;fill:rgb(39.99939%,39.99939%,39.99939%);fill-opacity:0.3;" d="M 78.726562 -14.566406 L 69.039062 28.957031 L 44.941406 24.890625 L 54.902344 -18.625 Z M 78.726562 -14.566406 "/>
<path style=" stroke:none;fill-rule:nonzero;fill:rgb(39.99939%,39.99939%,39.99939%);fill-opacity:0.3;" d="M 15.417969 22.519531 L 10.195312 50.695312 L -13.8125 46.644531 L -8.589844 18.46875 Z M 15.417969 22.519531 "/>
<path style=" stroke:none;fill-rule:nonzero;fill:rgb(39.99939%,39.99939%,39.99939%);fill-opacity:0.3;" d="M 36.089844 57.574219 L 29.492188 93.171875 L 6.21875 87.035156 L 12.421875 53.582031 Z M 36.089844 57.574219 "/>
<path style=" stroke:none;fill-rule:nonzero;fill:rgb(39.99939%,39.99939%,39.99939%);fill-opacity:0.3;" d="M -14.316406 49.355469 L 9.746094 53.128906 L 3.589844 86.34375 L -20.019531 80.117188 Z M -14.316406 49.355469 "/>
<path style=" stroke:none;fill-rule:nonzero;fill:rgb(39.99939%,39.99939%,39.99939%);fill-opacity:0.3;" d="M 71.160156 31.925781 L 95.632812 36.054688 L 90.046875 64.164062 L 65.9375 60.097656 Z M 71.160156 31.925781 "/>
<path style=" stroke:none;fill-rule:nonzero;fill:rgb(39.99939%,39.99939%,39.99939%);fill-opacity:0.3;" d="M 65.488281 62.535156 L 90.273438 66.714844 L 85 92.398438 L 83.398438 93.328125 L 73.921875 97.191406 L 73.789062 90.941406 L 72.78125 90.992188 L 72.121094 91.027344 L 71.839844 98.03125 L 68.460938 99.382812 L 67.964844 99.550781 L 60.234375 100.214844 L 58.503906 100.199219 Z M 65.488281 62.535156 "/>
<path style=" stroke:none;fill-rule:nonzero;fill:rgb(39.99939%,39.99939%,39.99939%);fill-opacity:0.3;" d="M 38.714844 58.289062 L 62.8125 62.082031 L 55.804688 99.886719 L 32.121094 93.867188 Z M 38.714844 58.289062 "/>
<path style=" stroke:none;fill-rule:nonzero;fill:rgb(39.99939%,39.99939%,39.99939%);fill-opacity:0.3;" d="M 44.4375 27.417969 L 68.484375 31.472656 L 63.261719 59.648438 L 39.214844 55.589844 Z M 44.4375 27.417969 "/>
<path style=" stroke:none;fill-rule:nonzero;fill:rgb(39.99939%,39.99939%,39.99939%);fill-opacity:0.3;" d="M 136.757812 -4.6875 L 127.492188 39.03125 L 103.246094 34.726562 L 111.363281 -9.011719 Z M 136.757812 -4.6875 "/>
<path style=" stroke:none;fill-rule:nonzero;fill:rgb(39.99939%,39.99939%,39.99939%);fill-opacity:0.3;" d="M 102.847656 37.6875 L 127.011719 41.613281 L 120.382812 77.378906 L 96.570312 87.859375 L 95.582031 88.273438 L 94.566406 88.148438 L 93.824219 87.574219 L 93.484375 86.417969 Z M 102.847656 37.6875 "/>
<path style=" stroke:none;fill-rule:nonzero;fill:rgb(39.99939%,39.99939%,39.99939%);fill-opacity:0.3;" d="M 104.035156 -10.261719 L 96.019531 33.507812 L 71.6875 29.402344 L 81.402344 -14.113281 Z M 104.035156 -10.261719 "/>
<path style=" stroke:none;fill-rule:nonzero;fill:rgb(39.99939%,39.99939%,39.99939%);fill-opacity:0.3;" d="M 18.09375 22.972656 L 41.765625 26.964844 L 36.542969 55.140625 L 12.871094 51.144531 Z M 18.09375 22.972656 "/>
<path style=" stroke:none;fill-rule:nonzero;fill:rgb(39.99939%,39.99939%,39.99939%);fill-opacity:0.3;" d="M 180.996094 51.429688 L 181.003906 51.511719 L 178.632812 52.46875 Z M 180.996094 51.429688 "/>
<path style=" stroke:none;fill-rule:nonzero;fill:rgb(39.99939%,39.99939%,39.99939%);fill-opacity:0.3;" d="M 159.804688 73.679688 L 164.347656 75.335938 L 162.304688 80.148438 L 157.757812 78.492188 L 155.726562 83.265625 L 150.917969 81.511719 L 153.230469 76.074219 L 158.039062 77.828125 Z M 159.804688 73.679688 "/>
<path style=" stroke:none;fill-rule:nonzero;fill:rgb(39.99939%,39.99939%,39.99939%);fill-opacity:0.3;" d="M 147.476562 97.972656 L 143.804688 106.558594 L 140.09375 105.109375 L 143.769531 96.523438 Z M 147.476562 97.972656 "/>
<path style=" stroke:none;fill-rule:nonzero;fill:rgb(39.99939%,39.99939%,39.99939%);fill-opacity:0.3;" d="M 150.492188 72.371094 L 150.613281 72.320312 L 150.269531 73.121094 Z M 150.492188 72.371094 "/>
<path style=" stroke:none;fill-rule:nonzero;fill:rgb(39.99939%,39.99939%,39.99939%);fill-opacity:0.3;" d="M 149.398438 83.90625 L 158.488281 87.289062 L 157.007812 90.828125 L 147.914062 87.445312 Z M 149.398438 83.90625 "/>
<path style=" stroke:none;fill-rule:nonzero;fill:rgb(39.99939%,39.99939%,39.99939%);fill-opacity:0.3;" d="M 144.308594 107.660156 L 148.054688 99.101562 L 164.519531 105.5 L 161.082031 114.183594 Z M 144.308594 107.660156 "/>
<path style=" stroke:none;fill-rule:nonzero;fill:rgb(39.99939%,39.99939%,39.99939%);fill-opacity:0.3;" d="M 162.417969 84.140625 L 171.511719 87.527344 L 164.886719 104.28125 L 155.46875 100.683594 Z M 162.417969 84.140625 "/>
<path style=" stroke:none;fill-rule:nonzero;fill:rgb(39.99939%,39.99939%,39.99939%);fill-opacity:0.3;" d="M 173.847656 65.519531 L 178.394531 67.175781 L 176.347656 71.984375 L 171.804688 70.328125 L 169.773438 75.101562 L 164.964844 73.347656 L 167.277344 67.914062 L 172.085938 69.664062 Z M 173.847656 65.519531 "/>
<path style=" stroke:none;fill-rule:nonzero;fill:rgb(39.99939%,39.99939%,39.99939%);fill-opacity:0.3;" d="M 61.074219 284.085938 L 78.230469 294.457031 L 72.464844 308.570312 L 65.71875 308.332031 L 51.429688 306.902344 Z M 61.074219 284.085938 "/>
<path style=" stroke:none;fill-rule:nonzero;fill:rgb(39.99939%,39.99939%,39.99939%);fill-opacity:0.3;" d="M 70.523438 262.496094 L 88.445312 272.714844 L 81.234375 289.285156 L 62.789062 279.253906 Z M 70.523438 262.496094 "/>
<path style=" stroke:none;fill-rule:nonzero;fill:rgb(39.99939%,39.99939%,39.99939%);fill-opacity:0.3;" d="M 78.402344 248.160156 L 91.15625 252.71875 L 87.570312 260.949219 L 75.023438 256.425781 Z M 78.402344 248.160156 "/>
<path style=" stroke:none;fill-rule:nonzero;fill:rgb(39.99939%,39.99939%,39.99939%);fill-opacity:0.3;" d="M 90.046875 237.949219 L 94.59375 239.605469 L 92.546875 244.414062 L 88.003906 242.757812 L 85.972656 247.53125 L 81.164062 245.777344 L 83.472656 240.34375 L 88.285156 242.097656 Z M 90.046875 237.949219 "/>
<path style=" stroke:none;fill-rule:nonzero;fill:rgb(39.99939%,39.99939%,39.99939%);fill-opacity:0.3;" d="M 122.28125 155.964844 L 119.417969 162.628906 L 115.710938 161.179688 L 118.570312 154.515625 Z M 122.28125 155.964844 "/>
<path style=" stroke:none;fill-rule:nonzero;fill:rgb(39.99939%,39.99939%,39.99939%);fill-opacity:0.3;" d="M 122.988281 195.019531 L 119.316406 203.605469 L 115.609375 202.15625 L 119.28125 193.570312 Z M 122.988281 195.019531 "/>
<path style=" stroke:none;fill-rule:nonzero;fill:rgb(39.99939%,39.99939%,39.99939%);fill-opacity:0.3;" d="M 115.613281 180 L 120.15625 181.65625 L 118.109375 186.464844 L 113.566406 184.808594 L 111.535156 189.582031 L 106.726562 187.828125 L 109.039062 182.394531 L 113.847656 184.144531 Z M 115.613281 180 "/>
<path style=" stroke:none;fill-rule:nonzero;fill:rgb(39.99939%,39.99939%,39.99939%);fill-opacity:0.3;" d="M 118.792969 164.011719 L 115.929688 170.675781 L 112.21875 169.226562 L 115.082031 162.5625 Z M 118.792969 164.011719 "/>
<path style=" stroke:none;fill-rule:nonzero;fill:rgb(39.99939%,39.99939%,39.99939%);fill-opacity:0.3;" d="M 126.679688 168.074219 L 131.226562 169.730469 L 129.179688 174.542969 L 124.636719 172.886719 L 122.605469 177.660156 L 117.796875 175.90625 L 120.109375 170.46875 L 124.917969 172.222656 Z M 126.679688 168.074219 "/>
<path style=" stroke:none;fill-rule:nonzero;fill:rgb(39.99939%,39.99939%,39.99939%);fill-opacity:0.3;" d="M 98.105469 211.917969 L 94.433594 220.503906 L 90.726562 219.058594 L 94.398438 210.472656 Z M 98.105469 211.917969 "/>
<path style=" stroke:none;fill-rule:nonzero;fill:rgb(39.99939%,39.99939%,39.99939%);fill-opacity:0.3;" d="M 115.382812 211.691406 L 111.707031 220.277344 L 108 218.832031 L 111.671875 210.242188 Z M 115.382812 211.691406 "/>
<path style=" stroke:none;fill-rule:nonzero;fill:rgb(39.99939%,39.99939%,39.99939%);fill-opacity:0.3;" d="M 98.441406 200.832031 L 111.660156 205.550781 L 108.074219 213.78125 L 94.855469 209.0625 Z M 98.441406 200.832031 "/>
<path style=" stroke:none;fill-rule:nonzero;fill:rgb(39.99939%,39.99939%,39.99939%);fill-opacity:0.3;" d="M 103.28125 188.773438 L 117.429688 193.933594 L 113.84375 202.164062 L 99.699219 197.003906 Z M 103.28125 188.773438 "/>
<path style=" stroke:none;fill-rule:nonzero;fill:rgb(39.99939%,39.99939%,39.99939%);fill-opacity:0.3;" d="M 98.058594 217.0625 L 111.277344 221.78125 L 107.695312 230.011719 L 94.476562 225.292969 Z M 98.058594 217.0625 "/>
<path style=" stroke:none;fill-rule:nonzero;fill:rgb(39.99939%,39.99939%,39.99939%);fill-opacity:0.3;" d="M 124.910156 157.1875 L 139.117188 162.199219 L 135.625 170.46875 L 121.417969 165.453125 Z M 124.910156 157.1875 "/>
<path style=" stroke:none;fill-rule:nonzero;fill:rgb(39.99939%,39.99939%,39.99939%);fill-opacity:0.3;" d="M 128.234375 130.179688 L 150.667969 138.578125 L 141.285156 159.0625 L 119.132812 151.300781 Z M 128.234375 130.179688 "/>
<path style=" stroke:none;fill-rule:nonzero;fill:rgb(39.99939%,39.99939%,39.99939%);fill-opacity:0.3;" d="M 144.1875 123.117188 L 148.734375 124.773438 L 146.617188 129.828125 L 142.140625 127.929688 L 140.222656 132.4375 L 135.464844 130.570312 L 137.691406 125.328125 L 142.425781 127.265625 Z M 144.1875 123.117188 "/>
<path style=" stroke:none;fill-rule:nonzero;fill:rgb(39.99939%,39.99939%,39.99939%);fill-opacity:0.3;" d="M 137.527344 121.296875 L 133.855469 129.882812 L 130.148438 128.433594 L 133.828125 119.777344 Z M 137.527344 121.296875 "/>
<path style=" stroke:none;fill-rule:nonzero;fill:rgb(39.99939%,39.99939%,39.99939%);fill-opacity:0.3;" d="M 141.882812 110.800781 L 138.261719 119.269531 L 134.558594 117.859375 L 138.222656 109.234375 Z M 141.882812 110.800781 "/>
<path style=" stroke:none;fill-rule:nonzero;fill:rgb(39.99939%,39.99939%,39.99939%);fill-opacity:0.3;" d="M 139.214844 119.699219 L 142.894531 111.328125 L 158.941406 118.1875 L 155.277344 126.035156 Z M 139.214844 119.699219 "/>
<path style=" stroke:none;fill-rule:nonzero;fill:rgb(39.99939%,39.99939%,39.99939%);fill-opacity:0.3;" d="M 96.667969 252.621094 L 92.996094 261.207031 L 89.285156 259.757812 L 92.957031 251.171875 Z M 96.667969 252.621094 "/>
<path style=" stroke:none;fill-rule:nonzero;fill:rgb(39.99939%,39.99939%,39.99939%);fill-opacity:0.3;" d="M 99.578125 227.941406 L 104.125 229.597656 L 102.078125 234.410156 L 97.535156 232.753906 L 95.503906 237.527344 L 90.695312 235.773438 L 93.003906 230.335938 L 97.816406 232.089844 Z M 99.578125 227.941406 "/>
<path style=" stroke:none;fill-rule:nonzero;fill:rgb(39.99939%,39.99939%,39.99939%);fill-opacity:0.3;" d="M 228.921875 97.90625 L 254.664062 95.644531 L 247.140625 129.363281 L 223.535156 125.332031 Z M 228.921875 97.90625 "/>
<path style=" stroke:none;fill-rule:nonzero;fill:rgb(39.99939%,39.99939%,39.99939%);fill-opacity:0.3;" d="M 201.21875 100.34375 L 226.234375 98.144531 L 220.769531 125.242188 L 197.578125 121.386719 Z M 201.21875 100.34375 "/>
<path style=" stroke:none;fill-rule:nonzero;fill:rgb(39.99939%,39.99939%,39.99939%);fill-opacity:0.3;" d="M 257.308594 95.410156 L 283.882812 93.070312 L 265.214844 132.574219 L 249.804688 129.675781 Z M 257.308594 95.410156 "/>
<path style=" stroke:none;fill-rule:nonzero;fill:rgb(39.99939%,39.99939%,39.99939%);fill-opacity:0.3;" d="M 232.496094 36.023438 L 245.171875 31.0625 L 215.1875 97.332031 L 204.324219 98.285156 Z M 232.496094 36.023438 "/>
<path style=" stroke:none;fill-rule:nonzero;fill:rgb(39.99939%,39.99939%,39.99939%);fill-opacity:0.3;" d="M 248.257812 29.855469 L 260.316406 26.183594 L 228.660156 96.144531 L 217.742188 97.296875 Z M 248.257812 29.855469 "/>
<path style=" stroke:none;fill-rule:nonzero;fill:rgb(39.99939%,39.99939%,39.99939%);fill-opacity:0.3;" d="M 216.398438 42.519531 L 229.410156 37.230469 L 201.679688 98.519531 L 190.621094 99.492188 Z M 216.398438 42.519531 "/>
<path style=" stroke:none;fill-rule:nonzero;fill:rgb(39.99939%,39.99939%,39.99939%);fill-opacity:0.3;" d="M 292.035156 18.664062 L 303.476562 16.496094 L 269.042969 92.59375 L 258.152344 93.550781 Z M 292.035156 18.664062 "/>
<path style=" stroke:none;fill-rule:nonzero;fill:rgb(39.99939%,39.99939%,39.99939%);fill-opacity:0.3;" d="M 306.253906 15.96875 L 315.253906 15.191406 L 321.257812 15.84375 L 284.488281 91.234375 L 271.6875 92.359375 Z M 306.253906 15.96875 "/>
<path style=" stroke:none;fill-rule:nonzero;fill:rgb(39.99939%,39.99939%,39.99939%);fill-opacity:0.3;" d="M 263.238281 25.339844 L 274.445312 22.203125 L 241.285156 95.035156 L 231.304688 95.914062 Z M 263.238281 25.339844 "/>
<path style=" stroke:none;fill-rule:nonzero;fill:rgb(39.99939%,39.99939%,39.99939%);fill-opacity:0.3;" d="M 277.242188 21.632812 L 289.257812 19.1875 L 255.507812 93.785156 L 244.140625 94.785156 Z M 277.242188 21.632812 "/>
<path style=" stroke:none;fill-rule:nonzero;fill:rgb(39.99939%,39.99939%,39.99939%);fill-opacity:0.3;" d="M 172.929688 102.835938 L 198.664062 100.570312 L 194.886719 121.15625 L 170.664062 117.585938 Z M 172.929688 102.835938 "/>
<path style=" stroke:none;fill-rule:nonzero;fill:rgb(39.99939%,39.99939%,39.99939%);fill-opacity:0.3;" d="M 168.335938 104.953125 L 169.804688 105.066406 L 168.09375 117.304688 L 165.175781 116.78125 L 163.535156 116.386719 Z M 168.335938 104.953125 "/>
<path style=" stroke:none;fill-rule:nonzero;fill:rgb(39.99939%,39.99939%,39.99939%);fill-opacity:0.3;" d="M 200.011719 49.53125 L 213.265625 43.828125 L 187.976562 99.726562 L 176.855469 100.703125 Z M 200.011719 49.53125 "/>
<path style=" stroke:none;fill-rule:nonzero;fill:rgb(39.99939%,39.99939%,39.99939%);fill-opacity:0.3;" d="M 224.726562 33.460938 L 215.226562 36.980469 L 217.960938 35.828125 Z M 224.726562 33.460938 "/>
<path style=" stroke:none;fill-rule:nonzero;fill:rgb(39.99939%,39.99939%,39.99939%);fill-opacity:0.3;" d="M 187.535156 55.296875 L 196.800781 51.015625 L 179.1875 89.933594 L 174.265625 100.816406 L 170.605469 99.886719 Z M 187.535156 55.296875 "/>
<g clip-path="url(#clip1)" clip-rule="nonzero">
<path style=" stroke:none;fill-rule:nonzero;fill:rgb(39.99939%,39.99939%,39.99939%);fill-opacity:0.3;" d="M 207.359375 358.792969 L 294.941406 466.429688 L 287.914062 468.882812 L 268.234375 445.644531 L 263.203125 438.730469 L 262.226562 438.554688 L 205.945312 372.105469 Z M 207.359375 358.792969 "/>
</g>
<g clip-path="url(#clip2)" clip-rule="nonzero">
<path style=" stroke:none;fill-rule:nonzero;fill:rgb(39.99939%,39.99939%,39.99939%);fill-opacity:0.3;" d="M 235.800781 389.96875 L 236.5 390.003906 L 236.875 390.058594 L 237.253906 390.089844 L 237.632812 390.105469 L 238.011719 390.101562 L 238.390625 390.078125 L 238.769531 390.035156 L 239.140625 389.976562 L 239.511719 389.894531 L 239.878906 389.796875 L 240.238281 389.683594 L 240.589844 389.550781 L 240.9375 389.398438 L 241.273438 389.230469 L 241.601562 389.046875 L 241.914062 388.847656 L 242.21875 388.632812 L 242.511719 388.402344 L 242.792969 388.15625 L 243.058594 387.898438 L 243.269531 387.671875 L 253.015625 365.019531 L 253.074219 364.878906 L 253.183594 364.585938 L 253.273438 364.292969 L 253.351562 363.992188 L 253.410156 363.6875 L 253.453125 363.378906 L 253.476562 363.070312 L 253.488281 362.761719 L 253.484375 362.640625 L 253.46875 362.332031 L 253.4375 362.023438 L 253.386719 361.71875 L 253.320312 361.414062 L 253.238281 361.113281 L 253.140625 360.820312 L 253.023438 360.53125 L 252.894531 360.25 L 252.746094 359.972656 L 252.585938 359.703125 L 252.410156 359.445312 L 265.757812 360.867188 L 260.9375 371.953125 L 247.015625 403.546875 Z M 235.800781 389.96875 "/>
</g>
<g clip-path="url(#clip3)" clip-rule="nonzero">
<path style=" stroke:none;fill-rule:nonzero;fill:rgb(39.99939%,39.99939%,39.99939%);fill-opacity:0.3;" d="M 238.148438 358.128906 L 236.914062 364.484375 L 234.371094 364.027344 L 235.605469 357.671875 Z M 238.148438 358.128906 "/>
</g>
<g clip-path="url(#clip4)" clip-rule="nonzero">
<path style=" stroke:none;fill-rule:nonzero;fill:rgb(39.99939%,39.99939%,39.99939%);fill-opacity:0.3;" d="M 242 358.289062 L 246.148438 359.757812 L 245.132812 362.019531 L 240.816406 360.292969 Z M 242 358.289062 "/>
</g>
<path style=" stroke:none;fill-rule:nonzero;fill:rgb(39.99939%,39.99939%,39.99939%);fill-opacity:0.3;" d="M 3.9375 299.589844 L 3.90625 299.667969 L -11.21875 296.714844 L -11.179688 296.617188 Z M 3.9375 299.589844 "/>
<path style=" stroke:none;fill-rule:nonzero;fill:rgb(39.99939%,39.99939%,39.99939%);fill-opacity:0.3;" d="M 22.191406 303.121094 L 22.144531 303.234375 L 6.222656 300.121094 L 6.257812 300.039062 Z M 22.191406 303.121094 "/>
<path style=" stroke:none;fill-rule:nonzero;fill:rgb(39.99939%,39.99939%,39.99939%);fill-opacity:0.3;" d="M 65.71875 308.332031 L 51.046875 307.808594 L 51.429688 306.902344 Z M 65.71875 308.332031 "/>
<path style=" stroke:none;fill-rule:nonzero;fill:rgb(39.99939%,39.99939%,39.99939%);fill-opacity:0.3;" d="M 48.183594 306.59375 L 48.015625 306.996094 L 36.265625 305.578125 Z M 48.183594 306.59375 "/>
<path style=" stroke:none;fill-rule:nonzero;fill:rgb(39.99939%,39.99939%,39.99939%);fill-opacity:0.3;" d="M 33.429688 305.199219 L 33.332031 305.417969 L 24.238281 303.640625 L 24.289062 303.515625 Z M 33.429688 305.199219 "/>
<g clip-path="url(#clip5)" clip-rule="nonzero">
<path style=" stroke:none;fill-rule:nonzero;fill:rgb(39.99939%,39.99939%,39.99939%);fill-opacity:0.3;" d="M 104.257812 315.90625 L 104.703125 314.679688 L 105.035156 314.210938 L 105.53125 313.894531 L 106.191406 313.621094 L 106.9375 313.464844 L 120.84375 314.65625 L 129.125 316.375 L 120.851562 362.152344 L 96.585938 357.867188 Z M 104.257812 315.90625 "/>
</g>
<g clip-path="url(#clip6)" clip-rule="nonzero">
<path style=" stroke:none;fill-rule:nonzero;fill:rgb(39.99939%,39.99939%,39.99939%);fill-opacity:0.3;" d="M 131.460938 317.742188 L 153.582031 330.691406 L 146.546875 366.679688 L 123.207031 362.566406 Z M 131.460938 317.742188 "/>
</g>
<g clip-path="url(#clip7)" clip-rule="nonzero">
<path style=" stroke:none;fill-rule:nonzero;fill:rgb(39.99939%,39.99939%,39.99939%);fill-opacity:0.3;" d="M 180.722656 346.578125 L 186.621094 350.808594 L 193.621094 352.855469 L 199.21875 354.058594 L 204.5625 354.058594 L 200.753906 374.683594 L 200.117188 375.285156 L 198.824219 375.632812 L 176.308594 371.777344 Z M 180.722656 346.578125 "/>
</g>
<g clip-path="url(#clip8)" clip-rule="nonzero">
<path style=" stroke:none;fill-rule:nonzero;fill:rgb(39.99939%,39.99939%,39.99939%);fill-opacity:0.3;" d="M 155.941406 332.070312 L 178.382812 345.207031 L 173.605469 371.316406 L 149.425781 367.171875 Z M 155.941406 332.070312 "/>
</g>
<path style=" stroke:none;fill-rule:nonzero;fill:rgb(39.99939%,39.99939%,39.99939%);fill-opacity:0.3;" d="M 113.730469 311.4375 L 117.054688 312.894531 L 84.3125 309.664062 L 105 310.6875 Z M 113.730469 311.4375 "/>
<path style=" stroke:none;fill-rule:nonzero;fill:rgb(39.99939%,39.99939%,39.99939%);fill-opacity:0.3;" d="M 133.386719 299.757812 L 138.085938 302.148438 L 145.617188 307.414062 L 150.058594 310.660156 L 152.535156 313.625 L 155.960938 318.183594 L 159.769531 324.988281 L 160.277344 325.679688 L 161.152344 326.644531 L 164.210938 328.992188 L 179.15625 337.296875 L 179.15625 337.917969 L 178.867188 338.679688 L 178.066406 339.164062 L 177.191406 339.300781 L 160.367188 329.710938 L 137.15625 316.625 L 131.113281 313.453125 L 130.238281 313.078125 Z M 133.386719 299.757812 "/>
<path style=" stroke:none;fill-rule:nonzero;fill:rgb(39.99939%,39.99939%,39.99939%);fill-opacity:0.3;" d="M 148.566406 305.351562 L 146.597656 304.25 L 148.398438 305.148438 Z M 148.566406 305.351562 "/>
<g clip-path="url(#clip9)" clip-rule="nonzero">
<path style=" stroke:none;fill-rule:nonzero;fill:rgb(39.99939%,39.99939%,39.99939%);fill-opacity:0.3;" d="M 24.296875 306.332031 L 29.449219 307.324219 L 42.53125 309.5 L 48.933594 310.34375 L 69.617188 312.230469 L 101.511719 314.128906 L 87.941406 387.738281 L 65.089844 383.355469 L 64.9375 384.445312 L 64.792969 385.480469 L 87.792969 389.863281 L 84.367188 405.359375 L 60.324219 399.847656 L 60.160156 400.917969 L 60.023438 401.832031 L 83.921875 407.058594 L 79.898438 424.335938 L 78.105469 427.3125 L 76.464844 429.4375 L 69.921875 450.121094 L 69.910156 450.121094 L -18.699219 443.347656 L -18.96875 440.488281 L -20.257812 438.003906 L -21.550781 431.792969 L -22 421.667969 L -21.761719 417.125 L -21.285156 415.535156 L -20.804688 413.945312 L -19.96875 412.183594 L -19.492188 410.820312 L -19.289062 409.984375 L -19.132812 409.34375 L -19.132812 407.8125 L -19.371094 406.109375 L -20.152344 404.914062 L -20.992188 404.007812 L -21.769531 403.441406 L -23.085938 402.988281 L -25.902344 402.875 L -26.089844 396.132812 L -26.136719 395.183594 L -26.511719 384.445312 L -26.558594 383.15625 L -26.941406 372.609375 L -26.976562 371.558594 L -27.296875 362.679688 L -27.332031 361.71875 L -27.679688 352.042969 L -27.746094 350.230469 L -28.097656 340.480469 L -28.164062 338.691406 L -28.515625 328.917969 L -28.554688 327.84375 L -28.894531 318.355469 L -28.9375 317.175781 L -29.3125 306.792969 L -29.347656 305.839844 L -29.667969 296.957031 L -29.675781 296.488281 L -29.429688 296.09375 L -28.847656 295.699219 L 19.292969 305.371094 L 20.808594 305.675781 Z M 24.296875 306.332031 "/>
</g>
<path style=" stroke:none;fill-rule:nonzero;fill:rgb(39.99939%,39.99939%,39.99939%);fill-opacity:0.3;" d="M 83.398438 93.328125 L 80.65625 94.921875 L 77.15625 96.519531 L 73.933594 97.714844 L 73.921875 97.191406 Z M 83.398438 93.328125 "/>
<path style=" stroke:none;fill-rule:nonzero;fill:rgb(39.99939%,39.99939%,39.99939%);fill-opacity:0.3;" d="M 71.839844 98.03125 L 71.832031 98.25 L 68.460938 99.382812 Z M 71.839844 98.03125 "/>
<path style=" stroke:none;fill-rule:nonzero;fill:rgb(39.99939%,39.99939%,39.99939%);fill-opacity:0.3;" d="M 67.964844 99.550781 L 67.488281 99.710938 L 63.5625 100.246094 L 60.234375 100.214844 Z M 67.964844 99.550781 "/>
<path style=" stroke:none;fill-rule:nonzero;fill:rgb(39.99939%,39.99939%,39.99939%);fill-opacity:0.3;" d="M 134.234375 79.441406 L 150.492188 72.371094 L 150.269531 73.121094 L 136.472656 105.136719 L 125.117188 100.371094 Z M 134.234375 79.441406 "/>
<path style=" stroke:none;fill-rule:nonzero;fill:rgb(39.99939%,39.99939%,39.99939%);fill-opacity:0.3;" d="M 96.570312 87.859375 L 95.617188 88.277344 L 95.582031 88.273438 Z M 96.570312 87.859375 "/>
<path style=" stroke:none;fill-rule:nonzero;fill:rgb(39.99939%,39.99939%,39.99939%);fill-opacity:0.3;" d="M -2.441406 274.164062 L 11.769531 279.691406 L 3.9375 299.589844 L -11.179688 296.617188 Z M -2.441406 274.164062 "/>
<path style=" stroke:none;fill-rule:nonzero;fill:rgb(39.99939%,39.99939%,39.99939%);fill-opacity:0.3;" d="M 22.414062 261.8125 L 36.074219 269.683594 L 22.191406 303.121094 L 6.257812 300.039062 L 14.453125 280.738281 L 20.804688 283.207031 L 22.046875 280.589844 L 15.363281 277.992188 Z M 22.414062 261.8125 "/>
<path style=" stroke:none;fill-rule:nonzero;fill:rgb(39.99939%,39.99939%,39.99939%);fill-opacity:0.3;" d="M 6.828125 252.832031 L 20.269531 260.578125 L 13.140625 277.125 L -0.957031 271.585938 Z M 6.828125 252.832031 "/>
<path style=" stroke:none;fill-rule:nonzero;fill:rgb(39.99939%,39.99939%,39.99939%);fill-opacity:0.3;" d="M -6.5625 245.144531 L 5.074219 251.820312 L -3.121094 270.800781 L -15.308594 266.042969 Z M -6.5625 245.144531 "/>
<path style=" stroke:none;fill-rule:nonzero;fill:rgb(39.99939%,39.99939%,39.99939%);fill-opacity:0.3;" d="M 48.585938 276.890625 L 58.269531 282.472656 L 48.183594 306.59375 L 36.265625 305.578125 L 35.832031 305.527344 Z M 48.585938 276.890625 "/>
<path style=" stroke:none;fill-rule:nonzero;fill:rgb(39.99939%,39.99939%,39.99939%);fill-opacity:0.3;" d="M 37.75 270.648438 L 46.320312 275.589844 L 33.429688 305.199219 L 24.289062 303.515625 Z M 37.75 270.648438 "/>
<path style=" stroke:none;fill-rule:nonzero;fill:rgb(39.99939%,39.99939%,39.99939%);fill-opacity:0.3;" d="M 15.773438 232.414062 L 68.382812 260.882812 L 60.320312 278.082031 L 8.589844 248.691406 Z M 15.773438 232.414062 "/>
<path style=" stroke:none;fill-rule:nonzero;fill:rgb(39.99939%,39.99939%,39.99939%);fill-opacity:0.3;" d="M 27.101562 172.242188 L 38.375 176.613281 L 15.578125 229.519531 L 4.9375 223.6875 Z M 27.101562 172.242188 "/>
<path style=" stroke:none;fill-rule:nonzero;fill:rgb(39.99939%,39.99939%,39.99939%);fill-opacity:0.3;" d="M 24.917969 171.398438 L 2.875 222.558594 L -11.289062 214.804688 L 9.917969 165.585938 Z M 24.917969 171.398438 "/>
<path style=" stroke:none;fill-rule:nonzero;fill:rgb(39.99939%,39.99939%,39.99939%);fill-opacity:0.3;" d="M -31.4375 206.621094 L 14.566406 231.222656 L 7.070312 247.882812 L -32.757812 225.167969 Z M -31.4375 206.621094 "/>
<path style=" stroke:none;fill-rule:nonzero;fill:rgb(39.99939%,39.99939%,39.99939%);fill-opacity:0.3;" d="M 84.210938 194.371094 L 96.046875 198.960938 L 70.03125 259.34375 L 58.648438 253.109375 Z M 84.210938 194.371094 "/>
<path style=" stroke:none;fill-rule:nonzero;fill:rgb(39.99939%,39.99939%,39.99939%);fill-opacity:0.3;" d="M 72.792969 189.949219 L 82.027344 193.527344 L 56.589844 251.980469 L 48.074219 247.316406 Z M 72.792969 189.949219 "/>
<path style=" stroke:none;fill-rule:nonzero;fill:rgb(39.99939%,39.99939%,39.99939%);fill-opacity:0.3;" d="M 85.496094 160.460938 L 94.675781 164.460938 L 83.144531 190.960938 L 73.898438 187.378906 Z M 85.496094 160.460938 "/>
<path style=" stroke:none;fill-rule:nonzero;fill:rgb(39.99939%,39.99939%,39.99939%);fill-opacity:0.3;" d="M 55.488281 183.242188 L 70.742188 189.152344 L 46.140625 246.253906 L 31.734375 238.367188 Z M 55.488281 183.242188 "/>
<path style=" stroke:none;fill-rule:nonzero;fill:rgb(39.99939%,39.99939%,39.99939%);fill-opacity:0.3;" d="M 40.558594 177.457031 L 53.300781 182.394531 L 29.675781 237.238281 L 17.640625 230.648438 Z M 40.558594 177.457031 "/>
<path style=" stroke:none;fill-rule:nonzero;fill:rgb(39.99939%,39.99939%,39.99939%);fill-opacity:0.3;" d="M 37.007812 102.707031 L 52.601562 106.574219 L 26.023438 168.828125 L 11.023438 163.015625 Z M 37.007812 102.707031 "/>
<path style=" stroke:none;fill-rule:nonzero;fill:rgb(39.99939%,39.99939%,39.99939%);fill-opacity:0.3;" d="M 92.5625 97.195312 L 108.9375 90.445312 L 79.800781 158.28125 L 83.675781 160.046875 L 71.847656 186.582031 L 60.589844 182.21875 L 69.523438 161.054688 L 69.121094 160.902344 L 68.714844 160.75 L 59.492188 181.796875 L 56.59375 180.671875 Z M 92.5625 97.195312 "/>
<path style=" stroke:none;fill-rule:nonzero;fill:rgb(39.99939%,39.99939%,39.99939%);fill-opacity:0.3;" d="M 72.421875 104.328125 L 89.464844 98.460938 L 54.410156 179.828125 L 41.664062 174.886719 Z M 72.421875 104.328125 "/>
<path style=" stroke:none;fill-rule:nonzero;fill:rgb(39.99939%,39.99939%,39.99939%);fill-opacity:0.3;" d="M 55.390625 106.582031 L 68.886719 105.542969 L 39.480469 174.042969 L 28.207031 169.671875 Z M 55.390625 106.582031 "/>
<path style=" stroke:none;fill-rule:nonzero;fill:rgb(39.99939%,39.99939%,39.99939%);fill-opacity:0.3;" d="M 104.039062 148.800781 L 115.875 152.949219 L 97.15625 196.390625 L 85.328125 191.804688 Z M 104.039062 148.800781 "/>
<path style=" stroke:none;fill-rule:nonzero;fill:rgb(39.99939%,39.99939%,39.99939%);fill-opacity:0.3;" d="M 124.042969 102.644531 L 135.339844 107.261719 L 116.917969 150.523438 L 105.09375 146.378906 Z M 124.042969 102.644531 "/>
<path style=" stroke:none;fill-rule:nonzero;fill:rgb(39.99939%,39.99939%,39.99939%);fill-opacity:0.3;" d="M 112.1875 89.03125 L 131.097656 80.808594 L 95.597656 162.339844 L 82.960938 156.867188 Z M 112.1875 89.03125 "/>
<path style=" stroke:none;fill-rule:nonzero;fill:rgb(39.99939%,39.99939%,39.99939%);fill-opacity:0.3;" d="M -6.808594 159.105469 L 6.976562 164.445312 L -14.066406 213.28125 L -27.078125 206.15625 Z M -6.808594 159.105469 "/>
<path style=" stroke:none;fill-rule:nonzero;fill:rgb(39.99939%,39.99939%,39.99939%);fill-opacity:0.3;" d="M 19.441406 98.179688 L 34.058594 101.976562 L 8.082031 161.875 L -5.699219 156.535156 Z M 19.441406 98.179688 "/>
<path style=" stroke:none;fill-rule:nonzero;fill:rgb(39.99939%,39.99939%,39.99939%);fill-opacity:0.3;" d="M -8.035156 91.046875 L 6.644531 94.859375 L -17.894531 151.808594 L -31.878906 146.390625 Z M -8.035156 91.046875 "/>
<path style=" stroke:none;fill-rule:nonzero;fill:rgb(39.99939%,39.99939%,39.99939%);fill-opacity:0.3;" d="M 8.933594 95.453125 L 17.148438 97.585938 L -7.882812 155.6875 L -15.710938 152.65625 Z M 8.933594 95.453125 "/>
<path style=" stroke:none;fill-rule:nonzero;fill:rgb(39.99939%,39.99939%,39.99939%);fill-opacity:0.3;" d="M 165.175781 116.78125 L 163.5 116.476562 L 163.535156 116.386719 Z M 165.175781 116.78125 "/>
<path style=" stroke:none;fill-rule:nonzero;fill:rgb(39.99939%,39.99939%,39.99939%);fill-opacity:0.3;" d="M 141.964844 163.203125 L 158.304688 166.175781 L 150.242188 210.402344 L 149.9375 210.347656 L 122.28125 205.980469 Z M 141.964844 163.203125 "/>
<path style=" stroke:none;fill-rule:nonzero;fill:rgb(39.99939%,39.99939%,39.99939%);fill-opacity:0.3;" d="M 187.796875 171.546875 L 211.726562 175.902344 L 203.316406 218.691406 L 202.480469 219.484375 L 201.691406 219.859375 L 179.351562 215.652344 L 179.128906 215.296875 L 178.984375 214.28125 Z M 187.796875 171.546875 "/>
<path style=" stroke:none;fill-rule:nonzero;fill:rgb(39.99939%,39.99939%,39.99939%);fill-opacity:0.3;" d="M 160.851562 166.640625 L 185.050781 171.046875 L 176.820312 213.609375 L 176.488281 214.5625 L 176.054688 215.042969 L 152.511719 210.8125 Z M 160.851562 166.640625 "/>
<path style=" stroke:none;fill-rule:nonzero;fill:rgb(39.99939%,39.99939%,39.99939%);fill-opacity:0.3;" d="M 214.011719 176.378906 L 242.75 181.550781 L 224.0625 224.253906 L 205.929688 220.679688 L 205.828125 220.59375 L 205.664062 219.640625 Z M 214.011719 176.378906 "/>
<path style=" stroke:none;fill-rule:nonzero;fill:rgb(39.99939%,39.99939%,39.99939%);fill-opacity:0.3;" d="M 170.261719 119.632812 L 194.210938 123.90625 L 186.109375 165.917969 L 185.804688 167.117188 L 185.324219 167.730469 L 184.78125 168.085938 L 184.164062 168.15625 L 182.867188 168.121094 L 161.75 164.375 L 161.113281 163.910156 L 160.796875 163.140625 L 160.902344 162.476562 Z M 170.261719 119.632812 "/>
<path style=" stroke:none;fill-rule:nonzero;fill:rgb(39.99939%,39.99939%,39.99939%);fill-opacity:0.3;" d="M 162.195312 119.308594 L 167.996094 119.789062 L 158.601562 163.714844 L 142.953125 160.578125 Z M 162.195312 119.308594 "/>
<path style=" stroke:none;fill-rule:nonzero;fill:rgb(39.99939%,39.99939%,39.99939%);fill-opacity:0.3;" d="M 255.515625 134.84375 L 264.484375 136.445312 L 249.679688 167.375 Z M 255.515625 134.84375 "/>
<path style=" stroke:none;fill-rule:nonzero;fill:rgb(39.99939%,39.99939%,39.99939%);fill-opacity:0.3;" d="M 223.15625 129.070312 L 252.777344 134.355469 L 245.121094 174.441406 L 244.660156 177.386719 L 244.199219 178.371094 L 243.050781 178.917969 L 215.371094 173.949219 L 214.644531 173.441406 L 214.375 172.015625 Z M 223.15625 129.070312 "/>
<path style=" stroke:none;fill-rule:nonzero;fill:rgb(39.99939%,39.99939%,39.99939%);fill-opacity:0.3;" d="M 196.777344 124.363281 L 220.425781 128.582031 L 218.753906 137.894531 L 211.363281 136.734375 L 211.230469 137.429688 L 218.613281 138.570312 L 212.773438 171.121094 L 212.363281 172.222656 L 211.785156 172.804688 L 211.066406 172.933594 L 208.609375 172.804688 L 189.125 169.285156 L 188.511719 168.898438 L 188.304688 168.398438 L 188.304688 167.699219 Z M 196.777344 124.363281 "/>
<path style=" stroke:none;fill-rule:nonzero;fill:rgb(39.99939%,39.99939%,39.99939%);fill-opacity:0.3;" d="M 81.054688 295.308594 L 99.105469 304.800781 L 108.085938 308.964844 L 113.730469 311.4375 L 105 310.6875 L 84.3125 309.664062 L 75.671875 308.8125 Z M 81.054688 295.308594 "/>
<path style=" stroke:none;fill-rule:nonzero;fill:rgb(39.99939%,39.99939%,39.99939%);fill-opacity:0.3;" d="M 120.15625 207.769531 L 149.214844 213.03125 L 140.710938 258.078125 L 111.195312 253.078125 Z M 120.15625 207.769531 "/>
<path style=" stroke:none;fill-rule:nonzero;fill:rgb(39.99939%,39.99939%,39.99939%);fill-opacity:0.3;" d="M 111.117188 255.339844 L 139.964844 260.222656 L 133.175781 296.496094 L 121.363281 289.707031 L 113.003906 285.433594 L 105.707031 282.417969 Z M 111.117188 255.339844 "/>
<path style=" stroke:none;fill-rule:nonzero;fill:rgb(39.99939%,39.99939%,39.99939%);fill-opacity:0.3;" d="M 90.542969 274.832031 L 96.761719 280.324219 L 103.097656 286.050781 L 106.085938 288.398438 L 109.433594 290.328125 L 114.824219 292.675781 L 122.980469 295.15625 L 130.21875 298.148438 L 133.386719 299.757812 L 130.238281 313.078125 L 126.742188 311.589844 L 122.664062 309.933594 L 114.945312 306.96875 L 101.363281 300.867188 L 83.140625 290.777344 Z M 90.542969 274.832031 "/>
<path style=" stroke:none;fill-rule:nonzero;fill:rgb(39.99939%,39.99939%,39.99939%);fill-opacity:0.3;" d="M 100.496094 253.539062 L 108.4375 254.882812 L 103.902344 278.234375 L 92.480469 271.316406 Z M 100.496094 253.539062 "/>
<path style=" stroke:none;fill-rule:nonzero;fill:rgb(39.99939%,39.99939%,39.99939%);fill-opacity:0.3;" d="M 112.523438 226.796875 L 113.089844 227.394531 L 108.742188 252.664062 L 101.511719 251.441406 Z M 112.523438 226.796875 "/>
<path style=" stroke:none;fill-rule:nonzero;fill:rgb(39.99939%,39.99939%,39.99939%);fill-opacity:0.3;" d="M 195.53125 269.367188 L 203.035156 270.378906 L 198.148438 280.226562 L 197.144531 281.054688 L 193.460938 281.246094 Z M 195.53125 269.367188 "/>
<path style=" stroke:none;fill-rule:nonzero;fill:rgb(39.99939%,39.99939%,39.99939%);fill-opacity:0.3;" d="M 169.796875 265.273438 L 193.808594 269.339844 L 184.542969 316.515625 L 183.875 318.039062 L 182.9375 319.183594 L 182 320.011719 L 181.0625 320.644531 L 179.921875 320.773438 L 178.449219 320.835938 L 174.296875 320.394531 L 159.320312 317.523438 Z M 169.796875 265.273438 "/>
<path style=" stroke:none;fill-rule:nonzero;fill:rgb(39.99939%,39.99939%,39.99939%);fill-opacity:0.3;" d="M 179.285156 218.40625 L 202.5 222.554688 L 194.222656 267.136719 L 170.359375 263.097656 Z M 179.285156 218.40625 "/>
<path style=" stroke:none;fill-rule:nonzero;fill:rgb(39.99939%,39.99939%,39.99939%);fill-opacity:0.3;" d="M 152.089844 213.800781 L 176.300781 217.871094 L 167.421875 262.601562 L 143.46875 258.542969 Z M 152.089844 213.800781 "/>
<path style=" stroke:none;fill-rule:nonzero;fill:rgb(39.99939%,39.99939%,39.99939%);fill-opacity:0.3;" d="M 143.1875 260.769531 L 166.824219 264.769531 L 157.191406 310.195312 L 148.566406 305.351562 L 148.398438 305.148438 L 146.597656 304.25 L 135.695312 298.128906 Z M 143.1875 260.769531 "/>
<path style=" stroke:none;fill-rule:nonzero;fill:rgb(39.99939%,39.99939%,39.99939%);fill-opacity:0.3;" d="M 150.242188 210.402344 L 150.101562 211.183594 L 122.183594 206.191406 L 122.28125 205.980469 L 149.9375 210.347656 Z M 150.242188 210.402344 "/>
<path style=" stroke:none;fill-rule:nonzero;fill:rgb(39.99939%,39.99939%,39.99939%);fill-opacity:0.3;" d="M 201.691406 219.859375 L 201.644531 219.882812 L 200.363281 220.164062 L 180.214844 216.5625 L 179.503906 215.902344 L 179.351562 215.652344 Z M 201.691406 219.859375 "/>
<path style=" stroke:none;fill-rule:nonzero;fill:rgb(39.99939%,39.99939%,39.99939%);fill-opacity:0.3;" d="M 176.054688 215.042969 L 175.984375 215.121094 L 175.214844 215.671875 L 152.363281 211.585938 L 152.511719 210.8125 Z M 176.054688 215.042969 "/>
<path style=" stroke:none;fill-rule:nonzero;fill:rgb(39.99939%,39.99939%,39.99939%);fill-opacity:0.3;" d="M 204.761719 222.960938 L 222.820312 226.1875 L 204.289062 267.644531 L 196.472656 266.925781 L 199.199219 253.53125 Z M 204.761719 222.960938 "/>
<path style=" stroke:none;fill-rule:nonzero;fill:rgb(39.99939%,39.99939%,39.99939%);fill-opacity:0.3;" d="M 224.0625 224.253906 L 224.003906 224.390625 L 206.640625 221.285156 L 205.929688 220.679688 Z M 224.0625 224.253906 "/>
<path style="fill-rule:nonzero;fill:rgb(39.99939%,39.99939%,39.99939%);fill-opacity:1;stroke-width:0.03;stroke-linecap:square;stroke-linejoin:miter;stroke:rgb(39.99939%,39.99939%,39.99939%);stroke-opacity:1;stroke-miterlimit:3.239307;" d="M 254.996094 64.429688 L 255.003906 64.511719 L 252.632812 65.46875 Z M 254.996094 64.429688 " transform="matrix(1,0,0,1,-74,-13)"/>
<path style="fill-rule:nonzero;fill:rgb(39.99939%,39.99939%,39.99939%);fill-opacity:1;stroke-width:0.03;stroke-linecap:square;stroke-linejoin:miter;stroke:rgb(39.99939%,39.99939%,39.99939%);stroke-opacity:1;stroke-miterlimit:3.239307;" d="M 233.804688 86.679688 L 238.347656 88.335938 L 236.304688 93.148438 L 231.757812 91.492188 L 229.726562 96.265625 L 224.917969 94.511719 L 227.230469 89.074219 L 232.039062 90.828125 Z M 233.804688 86.679688 " transform="matrix(1,0,0,1,-74,-13)"/>
<path style="fill-rule:nonzero;fill:rgb(39.99939%,39.99939%,39.99939%);fill-opacity:1;stroke-width:0.03;stroke-linecap:square;stroke-linejoin:miter;stroke:rgb(39.99939%,39.99939%,39.99939%);stroke-opacity:1;stroke-miterlimit:3.239307;" d="M 221.476562 110.972656 L 217.804688 119.558594 L 214.09375 118.109375 L 217.769531 109.523438 Z M 221.476562 110.972656 " transform="matrix(1,0,0,1,-74,-13)"/>
<path style="fill-rule:nonzero;fill:rgb(39.99939%,39.99939%,39.99939%);fill-opacity:1;stroke-width:0.03;stroke-linecap:square;stroke-linejoin:miter;stroke:rgb(39.99939%,39.99939%,39.99939%);stroke-opacity:1;stroke-miterlimit:3.239307;" d="M 224.492188 85.371094 L 224.613281 85.320312 L 224.269531 86.121094 Z M 224.492188 85.371094 " transform="matrix(1,0,0,1,-74,-13)"/>
<path style="fill-rule:nonzero;fill:rgb(39.99939%,39.99939%,39.99939%);fill-opacity:1;stroke-width:0.03;stroke-linecap:square;stroke-linejoin:miter;stroke:rgb(39.99939%,39.99939%,39.99939%);stroke-opacity:1;stroke-miterlimit:3.239307;" d="M 223.398438 96.90625 L 232.488281 100.289062 L 231.007812 103.828125 L 221.914062 100.445312 Z M 223.398438 96.90625 " transform="matrix(1,0,0,1,-74,-13)"/>
<path style="fill-rule:nonzero;fill:rgb(39.99939%,39.99939%,39.99939%);fill-opacity:1;stroke-width:0.03;stroke-linecap:square;stroke-linejoin:miter;stroke:rgb(39.99939%,39.99939%,39.99939%);stroke-opacity:1;stroke-miterlimit:3.239307;" d="M 218.308594 120.660156 L 222.054688 112.101562 L 238.519531 118.5 L 235.082031 127.183594 Z M 218.308594 120.660156 " transform="matrix(1,0,0,1,-74,-13)"/>
<path style="fill-rule:nonzero;fill:rgb(39.99939%,39.99939%,39.99939%);fill-opacity:1;stroke-width:0.03;stroke-linecap:square;stroke-linejoin:miter;stroke:rgb(39.99939%,39.99939%,39.99939%);stroke-opacity:1;stroke-miterlimit:3.239307;" d="M 236.417969 97.140625 L 245.511719 100.527344 L 238.886719 117.28125 L 229.46875 113.683594 Z M 236.417969 97.140625 " transform="matrix(1,0,0,1,-74,-13)"/>
<path style="fill-rule:nonzero;fill:rgb(39.99939%,39.99939%,39.99939%);fill-opacity:1;stroke-width:0.03;stroke-linecap:square;stroke-linejoin:miter;stroke:rgb(39.99939%,39.99939%,39.99939%);stroke-opacity:1;stroke-miterlimit:3.239307;" d="M 247.847656 78.519531 L 252.394531 80.175781 L 250.347656 84.984375 L 245.804688 83.328125 L 243.773438 88.101562 L 238.964844 86.347656 L 241.277344 80.914062 L 246.085938 82.664062 Z M 247.847656 78.519531 " transform="matrix(1,0,0,1,-74,-13)"/>
<path style="fill-rule:nonzero;fill:rgb(39.99939%,39.99939%,39.99939%);fill-opacity:1;stroke-width:0.03;stroke-linecap:square;stroke-linejoin:miter;stroke:rgb(39.99939%,39.99939%,39.99939%);stroke-opacity:1;stroke-miterlimit:3.239307;" d="M 135.074219 297.085938 L 152.230469 307.457031 L 146.464844 321.570312 L 139.71875 321.332031 L 125.429688 319.902344 Z M 135.074219 297.085938 " transform="matrix(1,0,0,1,-74,-13)"/>
<path style="fill-rule:nonzero;fill:rgb(39.99939%,39.99939%,39.99939%);fill-opacity:1;stroke-width:0.03;stroke-linecap:square;stroke-linejoin:miter;stroke:rgb(39.99939%,39.99939%,39.99939%);stroke-opacity:1;stroke-miterlimit:3.239307;" d="M 144.523438 275.496094 L 162.445312 285.714844 L 155.234375 302.285156 L 136.789062 292.253906 Z M 144.523438 275.496094 " transform="matrix(1,0,0,1,-74,-13)"/>
<path style="fill-rule:nonzero;fill:rgb(39.99939%,39.99939%,39.99939%);fill-opacity:1;stroke-width:0.03;stroke-linecap:square;stroke-linejoin:miter;stroke:rgb(39.99939%,39.99939%,39.99939%);stroke-opacity:1;stroke-miterlimit:3.239307;" d="M 152.402344 261.160156 L 165.15625 265.71875 L 161.570312 273.949219 L 149.023438 269.425781 Z M 152.402344 261.160156 " transform="matrix(1,0,0,1,-74,-13)"/>
<path style="fill-rule:nonzero;fill:rgb(39.99939%,39.99939%,39.99939%);fill-opacity:1;stroke-width:0.03;stroke-linecap:square;stroke-linejoin:miter;stroke:rgb(39.99939%,39.99939%,39.99939%);stroke-opacity:1;stroke-miterlimit:3.239307;" d="M 164.046875 250.949219 L 168.59375 252.605469 L 166.546875 257.414062 L 162.003906 255.757812 L 159.972656 260.53125 L 155.164062 258.777344 L 157.472656 253.34375 L 162.285156 255.097656 Z M 164.046875 250.949219 " transform="matrix(1,0,0,1,-74,-13)"/>
<path style="fill-rule:nonzero;fill:rgb(39.99939%,39.99939%,39.99939%);fill-opacity:1;stroke-width:0.03;stroke-linecap:square;stroke-linejoin:miter;stroke:rgb(39.99939%,39.99939%,39.99939%);stroke-opacity:1;stroke-miterlimit:3.239307;" d="M 196.28125 168.964844 L 193.417969 175.628906 L 189.710938 174.179688 L 192.570312 167.515625 Z M 196.28125 168.964844 " transform="matrix(1,0,0,1,-74,-13)"/>
<path style="fill-rule:nonzero;fill:rgb(39.99939%,39.99939%,39.99939%);fill-opacity:1;stroke-width:0.03;stroke-linecap:square;stroke-linejoin:miter;stroke:rgb(39.99939%,39.99939%,39.99939%);stroke-opacity:1;stroke-miterlimit:3.239307;" d="M 196.988281 208.019531 L 193.316406 216.605469 L 189.609375 215.15625 L 193.28125 206.570312 Z M 196.988281 208.019531 " transform="matrix(1,0,0,1,-74,-13)"/>
<path style="fill-rule:nonzero;fill:rgb(39.99939%,39.99939%,39.99939%);fill-opacity:1;stroke-width:0.03;stroke-linecap:square;stroke-linejoin:miter;stroke:rgb(39.99939%,39.99939%,39.99939%);stroke-opacity:1;stroke-miterlimit:3.239307;" d="M 189.613281 193 L 194.15625 194.65625 L 192.109375 199.464844 L 187.566406 197.808594 L 185.535156 202.582031 L 180.726562 200.828125 L 183.039062 195.394531 L 187.847656 197.144531 Z M 189.613281 193 " transform="matrix(1,0,0,1,-74,-13)"/>
<path style="fill-rule:nonzero;fill:rgb(39.99939%,39.99939%,39.99939%);fill-opacity:1;stroke-width:0.03;stroke-linecap:square;stroke-linejoin:miter;stroke:rgb(39.99939%,39.99939%,39.99939%);stroke-opacity:1;stroke-miterlimit:3.239307;" d="M 192.792969 177.011719 L 189.929688 183.675781 L 186.21875 182.226562 L 189.082031 175.5625 Z M 192.792969 177.011719 " transform="matrix(1,0,0,1,-74,-13)"/>
<path style="fill-rule:nonzero;fill:rgb(39.99939%,39.99939%,39.99939%);fill-opacity:1;stroke-width:0.03;stroke-linecap:square;stroke-linejoin:miter;stroke:rgb(39.99939%,39.99939%,39.99939%);stroke-opacity:1;stroke-miterlimit:3.239307;" d="M 200.679688 181.074219 L 205.226562 182.730469 L 203.179688 187.542969 L 198.636719 185.886719 L 196.605469 190.660156 L 191.796875 188.90625 L 194.109375 183.46875 L 198.917969 185.222656 Z M 200.679688 181.074219 " transform="matrix(1,0,0,1,-74,-13)"/>
<path style="fill-rule:nonzero;fill:rgb(39.99939%,39.99939%,39.99939%);fill-opacity:1;stroke-width:0.03;stroke-linecap:square;stroke-linejoin:miter;stroke:rgb(39.99939%,39.99939%,39.99939%);stroke-opacity:1;stroke-miterlimit:3.239307;" d="M 172.105469 224.917969 L 168.433594 233.503906 L 164.726562 232.058594 L 168.398438 223.472656 Z M 172.105469 224.917969 " transform="matrix(1,0,0,1,-74,-13)"/>
<path style="fill-rule:nonzero;fill:rgb(39.99939%,39.99939%,39.99939%);fill-opacity:1;stroke-width:0.03;stroke-linecap:square;stroke-linejoin:miter;stroke:rgb(39.99939%,39.99939%,39.99939%);stroke-opacity:1;stroke-miterlimit:3.239307;" d="M 189.382812 224.691406 L 185.707031 233.277344 L 182 231.832031 L 185.671875 223.242188 Z M 189.382812 224.691406 " transform="matrix(1,0,0,1,-74,-13)"/>
<path style="fill-rule:nonzero;fill:rgb(39.99939%,39.99939%,39.99939%);fill-opacity:1;stroke-width:0.03;stroke-linecap:square;stroke-linejoin:miter;stroke:rgb(39.99939%,39.99939%,39.99939%);stroke-opacity:1;stroke-miterlimit:3.239307;" d="M 172.441406 213.832031 L 185.660156 218.550781 L 182.074219 226.78125 L 168.855469 222.0625 Z M 172.441406 213.832031 " transform="matrix(1,0,0,1,-74,-13)"/>
<path style="fill-rule:nonzero;fill:rgb(39.99939%,39.99939%,39.99939%);fill-opacity:1;stroke-width:0.03;stroke-linecap:square;stroke-linejoin:miter;stroke:rgb(39.99939%,39.99939%,39.99939%);stroke-opacity:1;stroke-miterlimit:3.239307;" d="M 177.28125 201.773438 L 191.429688 206.933594 L 187.84375 215.164062 L 173.699219 210.003906 Z M 177.28125 201.773438 " transform="matrix(1,0,0,1,-74,-13)"/>
<path style="fill-rule:nonzero;fill:rgb(39.99939%,39.99939%,39.99939%);fill-opacity:1;stroke-width:0.03;stroke-linecap:square;stroke-linejoin:miter;stroke:rgb(39.99939%,39.99939%,39.99939%);stroke-opacity:1;stroke-miterlimit:3.239307;" d="M 172.058594 230.0625 L 185.277344 234.78125 L 181.695312 243.011719 L 168.476562 238.292969 Z M 172.058594 230.0625 " transform="matrix(1,0,0,1,-74,-13)"/>
<path style="fill-rule:nonzero;fill:rgb(39.99939%,39.99939%,39.99939%);fill-opacity:1;stroke-width:0.03;stroke-linecap:square;stroke-linejoin:miter;stroke:rgb(39.99939%,39.99939%,39.99939%);stroke-opacity:1;stroke-miterlimit:3.239307;" d="M 198.910156 170.1875 L 213.117188 175.199219 L 209.625 183.46875 L 195.417969 178.453125 Z M 198.910156 170.1875 " transform="matrix(1,0,0,1,-74,-13)"/>
<path style="fill-rule:nonzero;fill:rgb(39.99939%,39.99939%,39.99939%);fill-opacity:1;stroke-width:0.03;stroke-linecap:square;stroke-linejoin:miter;stroke:rgb(39.99939%,39.99939%,39.99939%);stroke-opacity:1;stroke-miterlimit:3.239307;" d="M 202.234375 143.179688 L 224.667969 151.578125 L 215.285156 172.0625 L 193.132812 164.300781 Z M 202.234375 143.179688 " transform="matrix(1,0,0,1,-74,-13)"/>
<path style="fill-rule:nonzero;fill:rgb(39.99939%,39.99939%,39.99939%);fill-opacity:1;stroke-width:0.03;stroke-linecap:square;stroke-linejoin:miter;stroke:rgb(39.99939%,39.99939%,39.99939%);stroke-opacity:1;stroke-miterlimit:3.239307;" d="M 218.1875 136.117188 L 222.734375 137.773438 L 220.617188 142.828125 L 216.140625 140.929688 L 214.222656 145.4375 L 209.464844 143.570312 L 211.691406 138.328125 L 216.425781 140.265625 Z M 218.1875 136.117188 " transform="matrix(1,0,0,1,-74,-13)"/>
<path style="fill-rule:nonzero;fill:rgb(39.99939%,39.99939%,39.99939%);fill-opacity:1;stroke-width:0.03;stroke-linecap:square;stroke-linejoin:miter;stroke:rgb(39.99939%,39.99939%,39.99939%);stroke-opacity:1;stroke-miterlimit:3.239307;" d="M 211.527344 134.296875 L 207.855469 142.882812 L 204.148438 141.433594 L 207.828125 132.777344 Z M 211.527344 134.296875 " transform="matrix(1,0,0,1,-74,-13)"/>
<path style="fill-rule:nonzero;fill:rgb(39.99939%,39.99939%,39.99939%);fill-opacity:1;stroke-width:0.03;stroke-linecap:square;stroke-linejoin:miter;stroke:rgb(39.99939%,39.99939%,39.99939%);stroke-opacity:1;stroke-miterlimit:3.239307;" d="M 215.882812 123.800781 L 212.261719 132.269531 L 208.558594 130.859375 L 212.222656 122.234375 Z M 215.882812 123.800781 " transform="matrix(1,0,0,1,-74,-13)"/>
<path style="fill-rule:nonzero;fill:rgb(39.99939%,39.99939%,39.99939%);fill-opacity:1;stroke-width:0.03;stroke-linecap:square;stroke-linejoin:miter;stroke:rgb(39.99939%,39.99939%,39.99939%);stroke-opacity:1;stroke-miterlimit:3.239307;" d="M 213.214844 132.699219 L 216.894531 124.328125 L 232.941406 131.1875 L 229.277344 139.035156 Z M 213.214844 132.699219 " transform="matrix(1,0,0,1,-74,-13)"/>
<path style="fill-rule:nonzero;fill:rgb(39.99939%,39.99939%,39.99939%);fill-opacity:1;stroke-width:0.03;stroke-linecap:square;stroke-linejoin:miter;stroke:rgb(39.99939%,39.99939%,39.99939%);stroke-opacity:1;stroke-miterlimit:3.239307;" d="M 170.667969 265.621094 L 166.996094 274.207031 L 163.285156 272.757812 L 166.957031 264.171875 Z M 170.667969 265.621094 " transform="matrix(1,0,0,1,-74,-13)"/>
<path style="fill-rule:nonzero;fill:rgb(39.99939%,39.99939%,39.99939%);fill-opacity:1;stroke-width:0.03;stroke-linecap:square;stroke-linejoin:miter;stroke:rgb(39.99939%,39.99939%,39.99939%);stroke-opacity:1;stroke-miterlimit:3.239307;" d="M 173.578125 240.941406 L 178.125 242.597656 L 176.078125 247.410156 L 171.535156 245.753906 L 169.503906 250.527344 L 164.695312 248.773438 L 167.003906 243.335938 L 171.816406 245.089844 Z M 173.578125 240.941406 " transform="matrix(1,0,0,1,-74,-13)"/>
<path style=" stroke:none;fill-rule:evenodd;fill:rgb(85.096741%,85.096741%,81.959534%);fill-opacity:0.7;" d="M 17.3125 298 C 17.3125 294.734375 16.015625 291.601562 13.707031 289.292969 C 11.398438 286.984375 8.265625 285.6875 5 285.6875 C 1.734375 285.6875 -1.398438 286.984375 -3.707031 289.292969 C -6.015625 291.601562 -7.3125 294.734375 -7.3125 298 C -7.3125 301.265625 -6.015625 304.398438 -3.707031 306.707031 C -1.398438 309.015625 1.734375 310.3125 5 310.3125 C 8.265625 310.3125 11.398438 309.015625 13.707031 306.707031 C 16.015625 304.398438 17.3125 301.265625 17.3125 298 Z M 17.3125 298 "/>
<path style=" stroke:none;fill-rule:evenodd;fill:rgb(85.096741%,85.096741%,81.959534%);fill-opacity:0.7;" d="M 58.3125 178 C 58.3125 174.734375 57.015625 171.601562 54.707031 169.292969 C 52.398438 166.984375 49.265625 165.6875 46 165.6875 C 42.734375 165.6875 39.601562 166.984375 37.292969 169.292969 C 34.984375 171.601562 33.6875 174.734375 33.6875 178 C 33.6875 181.265625 34.984375 184.398438 37.292969 186.707031 C 39.601562 189.015625 42.734375 190.3125 46 190.3125 C 49.265625 190.3125 52.398438 189.015625 54.707031 186.707031 C 57.015625 184.398438 58.3125 181.265625 58.3125 178 Z M 58.3125 178 "/>
<path style=" stroke:none;fill-rule:evenodd;fill:rgb(85.096741%,85.096741%,81.959534%);fill-opacity:0.7;" d="M 212.3125 103 C 212.3125 99.734375 211.015625 96.601562 208.707031 94.292969 C 206.398438 91.984375 203.265625 90.6875 200 90.6875 C 196.734375 90.6875 193.601562 91.984375 191.292969 94.292969 C 188.984375 96.601562 187.6875 99.734375 187.6875 103 C 187.6875 106.265625 188.984375 109.398438 191.292969 111.707031 C 193.601562 114.015625 196.734375 115.3125 200 115.3125 C 203.265625 115.3125 206.398438 114.015625 208.707031 111.707031 C 211.015625 109.398438 212.3125 106.265625 212.3125 103 Z M 212.3125 103 "/>
<path style=" stroke:none;fill-rule:evenodd;fill:rgb(85.096741%,85.096741%,81.959534%);fill-opacity:0.7;" d="M 82.3125 36 C 82.3125 32.734375 81.015625 29.601562 78.707031 27.292969 C 76.398438 24.984375 73.265625 23.6875 70 23.6875 C 66.734375 23.6875 63.601562 24.984375 61.292969 27.292969 C 58.984375 29.601562 57.6875 32.734375 57.6875 36 C 57.6875 39.265625 58.984375 42.398438 61.292969 44.707031 C 63.601562 47.015625 66.734375 48.3125 70 48.3125 C 73.265625 48.3125 76.398438 47.015625 78.707031 44.707031 C 81.015625 42.398438 82.3125 39.265625 82.3125 36 Z M 82.3125 36 "/>
<path style="fill-rule:nonzero;fill:rgb(99.998474%,99.998474%,30.587769%);fill-opacity:0.8;stroke-width:0.288;stroke-linecap:square;stroke-linejoin:miter;stroke:rgb(0%,0%,0%);stroke-opacity:0.8;stroke-miterlimit:3.25;" d="M 372.292969 193.492188 L 345.636719 239.660156 L 398.949219 239.660156 Z M 372.292969 193.492188 " transform="matrix(1,0,0,1,-74,-13)"/>
</g>
</svg>
