<?xml version="1.0" encoding="UTF-8"?>
<svg xmlns="http://www.w3.org/2000/svg" xmlns:xlink="http://www.w3.org/1999/xlink" width="361pt" height="361pt" viewBox="0 0 361 361" version="1.1">
<defs>
<clipPath id="clip1">
  <path d="M 352 211 L 360 211 L 360 214 L 352 214 Z M 352 211 "/>
</clipPath>
<clipPath id="clip2">
  <path d="M 351 37 L 360 37 L 360 80 L 351 80 Z M 351 37 "/>
</clipPath>
<clipPath id="clip3">
  <path d="M 335 31 L 360 31 L 360 73 L 335 73 Z M 335 31 "/>
</clipPath>
<clipPath id="clip4">
  <path d="M 332 0 L 360 0 L 360 25 L 332 25 Z M 332 0 "/>
</clipPath>
<clipPath id="clip5">
  <path d="M 351 0 L 360 0 L 360 31 L 351 31 Z M 351 0 "/>
</clipPath>
<clipPath id="clip6">
  <path d="M 341 78 L 360 78 L 360 120 L 341 120 Z M 341 78 "/>
</clipPath>
<clipPath id="clip7">
  <path d="M 0 353 L 26 353 L 26 360 L 0 360 Z M 0 353 "/>
</clipPath>
<clipPath id="clip8">
  <path d="M 352 83 L 360 83 L 360 140 L 352 140 Z M 352 83 "/>
</clipPath>
<clipPath id="clip9">
  <path d="M 30 304 L 190 304 L 190 360 L 30 360 Z M 30 304 "/>
</clipPath>
<clipPath id="clip10">
  <path d="M 175 319 L 191 319 L 191 360 L 175 360 Z M 175 319 "/>
</clipPath>
<clipPath id="clip11">
  <path d="M 179 319 L 248 319 L 248 360 L 179 360 Z M 179 319 "/>
</clipPath>
<clipPath id="clip12">
  <path d="M 241 345 L 245 345 L 245 360 L 241 360 Z M 241 345 "/>
</clipPath>
<clipPath id="clip13">
  <path d="M 321 220 L 360 220 L 360 331 L 321 331 Z M 321 220 "/>
</clipPath>
<clipPath id="clip14">
  <path d="M 276 332 L 286 332 L 286 360 L 276 360 Z M 276 332 "/>
</clipPath>
<clipPath id="clip15">
  <path d="M 283 332 L 303 332 L 303 360 L 283 360 Z M 283 332 "/>
</clipPath>
<clipPath id="clip16">
  <path d="M 297 333 L 322 333 L 322 360 L 297 360 Z M 297 333 "/>
</clipPath>
<clipPath id="clip17">
  <path d="M 242 345 L 255 345 L 255 360 L 242 360 Z M 242 345 "/>
</clipPath>
<clipPath id="clip18">
  <path d="M 260 347 L 267 347 L 267 360 L 260 360 Z M 260 347 "/>
</clipPath>
<clipPath id="clip19">
  <path d="M 251 346 L 263 346 L 263 360 L 251 360 Z M 251 346 "/>
</clipPath>
<clipPath id="clip20">
  <path d="M 343 358 L 349 358 L 349 360 L 343 360 Z M 343 358 "/>
</clipPath>
<clipPath id="clip21">
  <path d="M 293 359 L 314 359 L 314 360 L 293 360 Z M 293 359 "/>
</clipPath>
<clipPath id="clip22">
  <path d="M 344 192 L 360 192 L 360 215 L 344 215 Z M 344 192 "/>
</clipPath>
<clipPath id="clip23">
  <path d="M 359 158 L 360 158 L 360 195 L 359 195 Z M 359 158 "/>
</clipPath>
<clipPath id="clip24">
  <path d="M 353 338 L 360 338 L 360 360 L 353 360 Z M 353 338 "/>
</clipPath>
</defs>
<g id="surface119">
<path style="fill-rule:nonzero;fill:rgb(0%,0%,0%);fill-opacity:1;stroke-width:0.03;stroke-linecap:square;stroke-linejoin:miter;stroke:rgb(0%,0%,0%);stroke-opacity:1;stroke-miterlimit:10;" d="M 0 178 L 360 178 L 360 -182 L 0 -182 Z M 0 178 " transform="matrix(1,0,0,1,0,182)"/>
<path style=" stroke:none;fill-rule:nonzero;fill:rgb(39.99939%,39.99939%,39.99939%);fill-opacity:0.3;" d="M 303.953125 285.246094 L 288.664062 281.054688 L 294.140625 255.121094 L 330.644531 237.898438 L 315.800781 288.230469 L 305.101562 285.539062 L 309.695312 267.832031 L 309.144531 267.683594 L 308.589844 267.535156 Z M 303.953125 285.246094 "/>
<g clip-path="url(#clip1)" clip-rule="nonzero">
<path style=" stroke:none;fill-rule:nonzero;fill:rgb(39.99939%,39.99939%,39.99939%);fill-opacity:0.3;" d="M 362.914062 211.628906 L 357.488281 212.488281 L 352.972656 213.445312 L 357.464844 211.894531 Z M 362.914062 211.628906 "/>
</g>
<path style=" stroke:none;fill-rule:nonzero;fill:rgb(39.99939%,39.99939%,39.99939%);fill-opacity:0.3;" d="M 282.515625 308.910156 L 296.664062 310.996094 L 292.15625 327.089844 L 279.367188 325.761719 Z M 282.515625 308.910156 "/>
<path style=" stroke:none;fill-rule:nonzero;fill:rgb(39.99939%,39.99939%,39.99939%);fill-opacity:0.3;" d="M 298.054688 310.917969 L 309.203125 312.5625 L 304.628906 328.121094 L 293.460938 326.960938 Z M 298.054688 310.917969 "/>
<path style=" stroke:none;fill-rule:nonzero;fill:rgb(39.99939%,39.99939%,39.99939%);fill-opacity:0.3;" d="M 311.261719 312.664062 L 322.613281 314.339844 L 317.070312 329.238281 L 306.640625 328.152344 Z M 311.261719 312.664062 "/>
<path style=" stroke:none;fill-rule:nonzero;fill:rgb(39.99939%,39.99939%,39.99939%);fill-opacity:0.3;" d="M 236.710938 299.921875 L 238.40625 290.207031 L 259.476562 293.253906 L 257.878906 302.8125 Z M 236.710938 299.921875 "/>
<path style=" stroke:none;fill-rule:nonzero;fill:rgb(39.99939%,39.99939%,39.99939%);fill-opacity:0.3;" d="M 263.503906 324.230469 L 256.976562 319.441406 L 259.21875 305.589844 L 281.136719 308.820312 L 278.097656 325.746094 Z M 263.503906 324.230469 "/>
<path style=" stroke:none;fill-rule:nonzero;fill:rgb(39.99939%,39.99939%,39.99939%);fill-opacity:0.3;" d="M 264.238281 267.878906 L 262.082031 274.792969 L 254.984375 273.085938 Z M 264.238281 267.878906 "/>
<path style=" stroke:none;fill-rule:nonzero;fill:rgb(39.99939%,39.99939%,39.99939%);fill-opacity:0.3;" d="M 291.835938 256.195312 L 287.011719 280.554688 L 266.003906 275.902344 L 267.6875 267.097656 Z M 291.835938 256.195312 "/>
<path style=" stroke:none;fill-rule:nonzero;fill:rgb(39.99939%,39.99939%,39.99939%);fill-opacity:0.3;" d="M 332.539062 237.289062 L 355.3125 225.121094 L 355.457031 225.550781 L 331.785156 292.617188 L 317.316406 288.957031 Z M 332.539062 237.289062 "/>
<path style=" stroke:none;fill-rule:nonzero;fill:rgb(39.99939%,39.99939%,39.99939%);fill-opacity:0.3;" d="M 227.664062 285.910156 L 252.003906 274.726562 L 261.855469 276.566406 L 259.339844 290.167969 Z M 227.664062 285.910156 "/>
<path style=" stroke:none;fill-rule:nonzero;fill:rgb(39.99939%,39.99939%,39.99939%);fill-opacity:0.3;" d="M 285.742188 282.757812 L 283.894531 293.085938 L 261.632812 290.296875 L 264.511719 277.066406 Z M 285.742188 282.757812 "/>
<path style=" stroke:none;fill-rule:nonzero;fill:rgb(39.99939%,39.99939%,39.99939%);fill-opacity:0.3;" d="M 303.429688 287.09375 L 301.25 294.886719 L 285.625 292.929688 L 287.507812 282.824219 Z M 303.429688 287.09375 "/>
<path style=" stroke:none;fill-rule:nonzero;fill:rgb(39.99939%,39.99939%,39.99939%);fill-opacity:0.3;" d="M 315.417969 290.136719 L 313.847656 296.785156 L 302.742188 295.257812 L 304.921875 287.628906 Z M 315.417969 290.136719 "/>
<path style=" stroke:none;fill-rule:nonzero;fill:rgb(39.99939%,39.99939%,39.99939%);fill-opacity:0.3;" d="M 235.515625 290.089844 L 234.035156 299.214844 L 211.59375 296.457031 L 211.03125 295.492188 L 211.257812 293.457031 L 224.222656 288.367188 Z M 235.515625 290.089844 "/>
<path style=" stroke:none;fill-rule:nonzero;fill:rgb(39.99939%,39.99939%,39.99939%);fill-opacity:0.3;" d="M 283.519531 296.429688 L 281.867188 305.640625 L 259.847656 302.675781 L 261.34375 293.410156 Z M 283.519531 296.429688 "/>
<path style=" stroke:none;fill-rule:nonzero;fill:rgb(39.99939%,39.99939%,39.99939%);fill-opacity:0.3;" d="M 284.734375 296.59375 L 299.460938 298.601562 L 297.523438 307.753906 L 283.019531 305.796875 Z M 284.734375 296.59375 "/>
<path style=" stroke:none;fill-rule:nonzero;fill:rgb(39.99939%,39.99939%,39.99939%);fill-opacity:0.3;" d="M 301.035156 298.546875 L 312.710938 300.425781 L 310.664062 309.40625 L 298.976562 307.824219 Z M 301.035156 298.546875 "/>
<path style=" stroke:none;fill-rule:nonzero;fill:rgb(39.99939%,39.99939%,39.99939%);fill-opacity:0.3;" d="M 323.863281 311.320312 L 311.992188 309.503906 L 316.753906 291.421875 L 330.953125 294.769531 Z M 323.863281 311.320312 "/>
<path style=" stroke:none;fill-rule:nonzero;fill:rgb(39.99939%,39.99939%,39.99939%);fill-opacity:0.3;" d="M 227.441406 301.011719 L 226.335938 309.867188 L 219.289062 309.847656 L 211.046875 309.632812 L 199.980469 309.839844 L 202.417969 297.523438 Z M 227.441406 301.011719 "/>
<path style=" stroke:none;fill-rule:nonzero;fill:rgb(39.99939%,39.99939%,39.99939%);fill-opacity:0.3;" d="M 233.695312 301.863281 L 257.554688 305.144531 L 255.269531 317.449219 L 249.449219 315.40625 L 240.875 312.40625 L 232.359375 310.550781 Z M 233.695312 301.863281 "/>
<path style=" stroke:none;fill-rule:nonzero;fill:rgb(39.99939%,39.99939%,39.99939%);fill-opacity:0.3;" d="M 124.445312 293.085938 L 134.136719 243.339844 L 149.242188 244.828125 L 136.515625 302.753906 L 132.296875 302.929688 L 121.652344 302.296875 L 104.253906 300.238281 L 115.753906 241.5625 L 129.234375 242.894531 L 119.492188 292.398438 Z M 124.445312 293.085938 "/>
<path style=" stroke:none;fill-rule:nonzero;fill:rgb(39.99939%,39.99939%,39.99939%);fill-opacity:0.3;" d="M 80.605469 233.460938 L 93.648438 194.589844 L 108.367188 195.949219 L 93.230469 234.628906 Z M 80.605469 233.460938 "/>
<path style=" stroke:none;fill-rule:nonzero;fill:rgb(39.99939%,39.99939%,39.99939%);fill-opacity:0.3;" d="M 98.4375 234.972656 L 112.375 196.214844 L 125.871094 197.539062 L 110.671875 236.109375 Z M 98.4375 234.972656 "/>
<path style=" stroke:none;fill-rule:nonzero;fill:rgb(39.99939%,39.99939%,39.99939%);fill-opacity:0.3;" d="M 116.683594 237.441406 L 131.480469 198.867188 L 145.75 200.265625 L 131.554688 238.816406 Z M 116.683594 237.441406 "/>
<path style=" stroke:none;fill-rule:nonzero;fill:rgb(39.99939%,39.99939%,39.99939%);fill-opacity:0.3;" d="M 157.710938 299.640625 L 148.378906 301.230469 L 142.34375 300.59375 L 152.375 245.183594 L 165.285156 246.460938 Z M 157.710938 299.640625 "/>
<path style=" stroke:none;fill-rule:nonzero;fill:rgb(39.99939%,39.99939%,39.99939%);fill-opacity:0.3;" d="M 171.269531 247.304688 L 185.042969 248.667969 L 176.320312 295.375 L 171.269531 296.507812 L 160.734375 298.863281 L 170.171875 247.195312 Z M 171.269531 247.304688 "/>
<path style=" stroke:none;fill-rule:nonzero;fill:rgb(39.99939%,39.99939%,39.99939%);fill-opacity:0.3;" d="M 135.605469 239.0625 L 150.019531 200.554688 L 163.558594 201.882812 L 149.050781 240.308594 Z M 135.605469 239.0625 "/>
<path style=" stroke:none;fill-rule:nonzero;fill:rgb(39.99939%,39.99939%,39.99939%);fill-opacity:0.3;" d="M 171.269531 202.996094 L 182.765625 204.328125 L 171.269531 235.945312 L 168.894531 242.476562 L 155.238281 241.210938 L 169.648438 202.808594 Z M 171.269531 202.996094 "/>
<path style=" stroke:none;fill-rule:nonzero;fill:rgb(39.99939%,39.99939%,39.99939%);fill-opacity:0.3;" d="M 51.429688 293.6875 L 65.402344 237.007812 L 76.269531 238.355469 L 63.917969 295.144531 Z M 51.429688 293.6875 "/>
<path style=" stroke:none;fill-rule:nonzero;fill:rgb(39.99939%,39.99939%,39.99939%);fill-opacity:0.3;" d="M 110.214844 241.191406 L 99.457031 299.03125 L 84.980469 297.53125 L 96.550781 239.664062 Z M 110.214844 241.191406 "/>
<path style=" stroke:none;fill-rule:nonzero;fill:rgb(39.99939%,39.99939%,39.99939%);fill-opacity:0.3;" d="M 79.34375 297.347656 L 68.347656 295.859375 L 79.957031 238.484375 L 90.929688 239.109375 Z M 79.34375 297.347656 "/>
<path style=" stroke:none;fill-rule:nonzero;fill:rgb(39.99939%,39.99939%,39.99939%);fill-opacity:0.3;" d="M 66.683594 232.15625 L 74.726562 192.644531 L 86.09375 193.757812 L 71.925781 232.640625 Z M 66.683594 232.15625 "/>
<path style=" stroke:none;fill-rule:nonzero;fill:rgb(39.99939%,39.99939%,39.99939%);fill-opacity:0.3;" d="M 171.269531 300.839844 L 177.453125 299.382812 L 189.328125 295.382812 L 196.359375 292.417969 L 192.128906 308.570312 L 171.269531 307.820312 L 147.515625 306.964844 L 145.867188 306.335938 L 146.199219 305.398438 L 158.359375 303.113281 L 169.589844 301.234375 Z M 171.269531 300.839844 "/>
<path style=" stroke:none;fill-rule:nonzero;fill:rgb(39.99939%,39.99939%,39.99939%);fill-opacity:0.3;" d="M 171.46875 242.152344 L 185.347656 204.125 L 200.097656 205.789062 L 185.128906 244.285156 Z M 171.46875 242.152344 "/>
<path style=" stroke:none;fill-rule:nonzero;fill:rgb(39.99939%,39.99939%,39.99939%);fill-opacity:0.3;" d="M 192.292969 244.355469 L 206.996094 206.003906 L 221.367188 207.417969 L 206.515625 245.675781 Z M 192.292969 244.355469 "/>
<path style=" stroke:none;fill-rule:nonzero;fill:rgb(39.99939%,39.99939%,39.99939%);fill-opacity:0.3;" d="M 210.5625 246.308594 L 225.089844 208.226562 L 238.703125 209.566406 L 223.726562 247.308594 Z M 210.5625 246.308594 "/>
<path style=" stroke:none;fill-rule:nonzero;fill:rgb(39.99939%,39.99939%,39.99939%);fill-opacity:0.3;" d="M 226.816406 247.496094 L 242.460938 209.355469 L 255.574219 210.792969 L 240.785156 248.890625 Z M 226.816406 247.496094 "/>
<path style=" stroke:none;fill-rule:nonzero;fill:rgb(39.99939%,39.99939%,39.99939%);fill-opacity:0.3;" d="M 244.898438 249.070312 L 258.644531 210.949219 L 272.703125 212.09375 L 258.207031 250.722656 Z M 244.898438 249.070312 "/>
<path style=" stroke:none;fill-rule:nonzero;fill:rgb(39.99939%,39.99939%,39.99939%);fill-opacity:0.3;" d="M 308.570312 215.519531 L 300.632812 234.273438 L 286.707031 239.609375 L 295.804688 214.351562 Z M 308.570312 215.519531 "/>
<path style=" stroke:none;fill-rule:nonzero;fill:rgb(39.99939%,39.99939%,39.99939%);fill-opacity:0.3;" d="M 281.324219 241.261719 L 264.640625 249.417969 L 278.507812 213.117188 L 291.136719 214.042969 Z M 281.324219 241.261719 "/>
<path style=" stroke:none;fill-rule:nonzero;fill:rgb(39.99939%,39.99939%,39.99939%);fill-opacity:0.3;" d="M 198.914062 286.949219 L 182.402344 293.171875 L 190.71875 249.324219 L 205.664062 250.34375 Z M 198.914062 286.949219 "/>
<path style=" stroke:none;fill-rule:nonzero;fill:rgb(39.99939%,39.99939%,39.99939%);fill-opacity:0.3;" d="M 217.320312 277.738281 L 201.757812 285.710938 L 205.726562 265.589844 L 208.972656 250.054688 L 221.1875 251.265625 Z M 217.320312 277.738281 "/>
<path style=" stroke:none;fill-rule:nonzero;fill:rgb(39.99939%,39.99939%,39.99939%);fill-opacity:0.3;" d="M 237.394531 264.605469 L 223.4375 271.496094 L 225.730469 253.035156 L 237.847656 254.226562 Z M 237.394531 264.605469 "/>
<path style=" stroke:none;fill-rule:nonzero;fill:rgb(39.99939%,39.99939%,39.99939%);fill-opacity:0.3;" d="M 256.101562 255.347656 L 241.820312 262.046875 L 242.296875 254.269531 Z M 256.101562 255.347656 "/>
<path style=" stroke:none;fill-rule:nonzero;fill:rgb(39.99939%,39.99939%,39.99939%);fill-opacity:0.3;" d="M -31.800781 182.015625 L -14.539062 183.714844 L 2.785156 225.667969 L -28.671875 222.765625 Z M -31.800781 182.015625 "/>
<path style=" stroke:none;fill-rule:nonzero;fill:rgb(39.99939%,39.99939%,39.99939%);fill-opacity:0.3;" d="M 11.75 162.480469 L 28.136719 182.421875 L -13.121094 178.289062 L -20.886719 160.425781 Z M 11.75 162.480469 "/>
<path style=" stroke:none;fill-rule:nonzero;fill:rgb(39.99939%,39.99939%,39.99939%);fill-opacity:0.3;" d="M 8.953125 159.332031 L -22.148438 157.523438 L -30.289062 138.792969 L -7.066406 141.300781 Z M 8.953125 159.332031 "/>
<path style=" stroke:none;fill-rule:nonzero;fill:rgb(39.99939%,39.99939%,39.99939%);fill-opacity:0.3;" d="M -25.867188 266.5625 L 2.582031 269.964844 L -0.308594 292.542969 L -27.542969 290.59375 L -26.144531 278.957031 Z M -25.867188 266.5625 "/>
<path style=" stroke:none;fill-rule:nonzero;fill:rgb(39.99939%,39.99939%,39.99939%);fill-opacity:0.3;" d="M 8.0625 265.027344 L 8.523438 250.816406 L 7.75 232.113281 L 33.542969 234.554688 L 24.042969 294.226562 L 5.535156 292.945312 L 6.839844 279.304688 L 15.035156 280.246094 L 16.8125 278.78125 L 18.503906 269.042969 L 17.5 266.335938 L 15.015625 266.15625 L 12.554688 265.972656 L 14.71875 268.167969 L 14.492188 275.046875 L 13.464844 276.332031 L 7.394531 275.453125 Z M 8.0625 265.027344 "/>
<path style=" stroke:none;fill-rule:nonzero;fill:rgb(39.99939%,39.99939%,39.99939%);fill-opacity:0.3;" d="M 38.058594 235.164062 L 48.605469 236.308594 L 36.6875 295.101562 L 26.695312 294.410156 Z M 38.058594 235.164062 "/>
<path style=" stroke:none;fill-rule:nonzero;fill:rgb(39.99939%,39.99939%,39.99939%);fill-opacity:0.3;" d="M 1.980469 230.445312 L 3.277344 264.519531 L -25.753906 261.429688 L -25.542969 251.9375 L -26.898438 228.128906 Z M 1.980469 230.445312 "/>
<path style=" stroke:none;fill-rule:nonzero;fill:rgb(39.99939%,39.99939%,39.99939%);fill-opacity:0.3;" d="M 10.082031 186.046875 L 34.65625 188.773438 L 49.621094 204.285156 L 44.449219 229.734375 L 6.84375 226.261719 L 2.320312 213.566406 L -9.695312 183.855469 Z M 10.082031 186.046875 "/>
<path style=" stroke:none;fill-rule:nonzero;fill:rgb(39.99939%,39.99939%,39.99939%);fill-opacity:0.3;" d="M 60.773438 190.425781 L 58.164062 201.648438 L 53.308594 189.773438 Z M 60.773438 190.425781 "/>
<path style=" stroke:none;fill-rule:nonzero;fill:rgb(39.99939%,39.99939%,39.99939%);fill-opacity:0.3;" d="M -70.332031 56.019531 L -35.242188 45.574219 L 12.097656 95.984375 L 38.984375 124.617188 L 13.503906 145.738281 L -13.851562 116.464844 Z M -70.332031 56.019531 "/>
<path style=" stroke:none;fill-rule:nonzero;fill:rgb(39.99939%,39.99939%,39.99939%);fill-opacity:0.3;" d="M 47.863281 123.71875 L 38.09375 113.484375 L 40.351562 109.5625 L 41.1875 103.042969 L 53.773438 107.257812 L 51.4375 117.535156 Z M 47.863281 123.71875 "/>
<path style=" stroke:none;fill-rule:nonzero;fill:rgb(39.99939%,39.99939%,39.99939%);fill-opacity:0.3;" d="M 27.734375 139.171875 L 63.992188 178.652344 L 61.011719 186.417969 L 52.917969 185.355469 L 16.773438 148.144531 Z M 27.734375 139.171875 "/>
<path style=" stroke:none;fill-rule:nonzero;fill:rgb(39.99939%,39.99939%,39.99939%);fill-opacity:0.3;" d="M 34.800781 110.882812 L 22.199219 98.324219 L 23.871094 98.011719 L 37.441406 101.933594 Z M 34.800781 110.882812 "/>
<path style=" stroke:none;fill-rule:nonzero;fill:rgb(39.99939%,39.99939%,39.99939%);fill-opacity:0.3;" d="M 40.707031 127.84375 L 71.789062 157.632812 L 65.8125 173.773438 L 31.328125 136.179688 Z M 40.707031 127.84375 "/>
<path style=" stroke:none;fill-rule:nonzero;fill:rgb(39.99939%,39.99939%,39.99939%);fill-opacity:0.3;" d="M 74.5 152.238281 L 64.488281 140.832031 L 68.183594 132.128906 L 72.039062 121.882812 L 74.371094 114.40625 L 81.15625 116.554688 L 87.363281 118.714844 Z M 74.5 152.238281 "/>
<path style=" stroke:none;fill-rule:nonzero;fill:rgb(39.99939%,39.99939%,39.99939%);fill-opacity:0.3;" d="M 51.898438 127.0625 L 55.347656 118.1875 L 57.089844 107.652344 L 69.980469 112.882812 L 67.007812 123.5 L 61.394531 138.035156 Z M 51.898438 127.0625 "/>
<path style=" stroke:none;fill-rule:nonzero;fill:rgb(39.99939%,39.99939%,39.99939%);fill-opacity:0.3;" d="M -27.359375 45.480469 L -29.953125 42.132812 L -31.128906 39.230469 L -23.867188 11.230469 L -15.292969 -32.816406 L 20.589844 -21.605469 L 63.554688 -10.703125 L 64.699219 -14.34375 L 103.867188 -6.5 L 131.382812 -0.988281 L 124.390625 18.039062 L 88.625 115.371094 L 16.722656 92.140625 Z M -27.359375 45.480469 "/>
<path style=" stroke:none;fill-rule:nonzero;fill:rgb(39.99939%,39.99939%,39.99939%);fill-opacity:0.3;" d="M 22.199219 98.324219 L 21.074219 97.203125 L 23.871094 98.011719 Z M 22.199219 98.324219 "/>
<path style=" stroke:none;fill-rule:nonzero;fill:rgb(39.99939%,39.99939%,39.99939%);fill-opacity:0.3;" d="M 74.371094 114.40625 L 74.429688 114.21875 L 81.15625 116.554688 Z M 74.371094 114.40625 "/>
<path style=" stroke:none;fill-rule:nonzero;fill:rgb(39.99939%,39.99939%,39.99939%);fill-opacity:0.3;" d="M 57.089844 107.652344 L 57.113281 107.507812 L 70.253906 111.910156 L 69.980469 112.882812 Z M 57.089844 107.652344 "/>
<path style=" stroke:none;fill-rule:nonzero;fill:rgb(39.99939%,39.99939%,39.99939%);fill-opacity:0.3;" d="M 108.269531 102.496094 L 121.816406 65.929688 L 136.050781 71.632812 L 122.941406 107.375 Z M 108.269531 102.496094 "/>
<path style=" stroke:none;fill-rule:nonzero;fill:rgb(39.99939%,39.99939%,39.99939%);fill-opacity:0.3;" d="M 92.214844 144.890625 L 105.839844 108.675781 L 119.632812 113.546875 L 105.675781 149.589844 Z M 92.214844 144.890625 "/>
<path style=" stroke:none;fill-rule:nonzero;fill:rgb(39.99939%,39.99939%,39.99939%);fill-opacity:0.3;" d="M 109.644531 151.101562 L 123.753906 114.746094 L 136.914062 118.941406 L 122.34375 155.910156 Z M 109.644531 151.101562 "/>
<path style=" stroke:none;fill-rule:nonzero;fill:rgb(39.99939%,39.99939%,39.99939%);fill-opacity:0.3;" d="M 77.675781 187.183594 L 90.484375 150.585938 L 103.308594 154.585938 L 90.078125 188.363281 Z M 77.675781 187.183594 "/>
<path style=" stroke:none;fill-rule:nonzero;fill:rgb(39.99939%,39.99939%,39.99939%);fill-opacity:0.3;" d="M 295.742188 12.9375 L 304.714844 30.4375 L 297.023438 34.355469 L 286.699219 17.488281 L 285.367188 15.199219 L 285.574219 14.4375 L 287.644531 12.953125 L 289.863281 11.722656 L 292.101562 11.355469 L 294.367188 11.609375 Z M 295.742188 12.9375 "/>
<path style=" stroke:none;fill-rule:nonzero;fill:rgb(39.99939%,39.99939%,39.99939%);fill-opacity:0.3;" d="M 251.683594 -32.925781 L 238.871094 0.292969 L 226.265625 -3.453125 L 240.199219 -41.214844 L 247.984375 -38.398438 L 250.644531 -35.542969 Z M 251.683594 -32.925781 "/>
<path style=" stroke:none;fill-rule:nonzero;fill:rgb(39.99939%,39.99939%,39.99939%);fill-opacity:0.3;" d="M 262.882812 3.277344 L 269.367188 15.113281 L 259.429688 12.144531 Z M 262.882812 3.277344 "/>
<path style=" stroke:none;fill-rule:nonzero;fill:rgb(39.99939%,39.99939%,39.99939%);fill-opacity:0.3;" d="M 342.554688 29.300781 L 328.292969 65.585938 L 315.621094 61.542969 L 329.066406 25.015625 Z M 342.554688 29.300781 "/>
<g clip-path="url(#clip2)" clip-rule="nonzero">
<path style=" stroke:none;fill-rule:nonzero;fill:rgb(39.99939%,39.99939%,39.99939%);fill-opacity:0.3;" d="M 370.253906 65.21875 L 364.910156 79.296875 L 351.65625 74.496094 L 365.558594 37.199219 L 378.140625 41.773438 Z M 370.253906 65.21875 "/>
</g>
<g clip-path="url(#clip3)" clip-rule="nonzero">
<path style=" stroke:none;fill-rule:nonzero;fill:rgb(39.99939%,39.99939%,39.99939%);fill-opacity:0.3;" d="M 361.976562 35.609375 L 348.054688 72.90625 L 335.675781 68.632812 L 349.371094 31.234375 Z M 361.976562 35.609375 "/>
</g>
<path style=" stroke:none;fill-rule:nonzero;fill:rgb(39.99939%,39.99939%,39.99939%);fill-opacity:0.3;" d="M 344.515625 -22.351562 L 329.117188 18.636719 L 316.644531 14.753906 L 331.804688 -26.273438 Z M 344.515625 -22.351562 "/>
<path style=" stroke:none;fill-rule:nonzero;fill:rgb(39.99939%,39.99939%,39.99939%);fill-opacity:0.3;" d="M 140.769531 18.519531 L 155.304688 -18.082031 L 168.097656 -13.53125 L 153.941406 23.152344 Z M 140.769531 18.519531 "/>
<path style=" stroke:none;fill-rule:nonzero;fill:rgb(39.99939%,39.99939%,39.99939%);fill-opacity:0.3;" d="M 124.792969 61.25 L 139.464844 22.769531 L 152.835938 27.253906 L 138.109375 65.714844 Z M 124.792969 61.25 "/>
<path style=" stroke:none;fill-rule:nonzero;fill:rgb(39.99939%,39.99939%,39.99939%);fill-opacity:0.3;" d="M 142.902344 67.273438 L 157.300781 29.292969 L 170.449219 33.722656 L 155.257812 71.421875 Z M 142.902344 67.273438 "/>
<path style=" stroke:none;fill-rule:nonzero;fill:rgb(39.99939%,39.99939%,39.99939%);fill-opacity:0.3;" d="M 171.269531 40.875 L 173.363281 35.160156 L 187.074219 39.867188 L 172.769531 77.847656 L 171.269531 77.324219 L 159.421875 73.191406 Z M 171.269531 40.875 "/>
<path style=" stroke:none;fill-rule:nonzero;fill:rgb(39.99939%,39.99939%,39.99939%);fill-opacity:0.3;" d="M 125.652344 108.0625 L 139.414062 72.589844 L 154.019531 77.464844 L 139.542969 112.886719 Z M 125.652344 108.0625 "/>
<path style=" stroke:none;fill-rule:nonzero;fill:rgb(39.99939%,39.99939%,39.99939%);fill-opacity:0.3;" d="M 142.085938 114.550781 L 157.378906 78.714844 L 170.53125 83.195312 L 157.09375 119.972656 Z M 142.085938 114.550781 "/>
<path style=" stroke:none;fill-rule:nonzero;fill:rgb(39.99939%,39.99939%,39.99939%);fill-opacity:0.3;" d="M 171.269531 96.25 L 176.035156 84.039062 L 187.976562 87.886719 L 173.96875 125.769531 L 171.269531 124.800781 L 161.5 121.296875 Z M 171.269531 96.25 "/>
<path style=" stroke:none;fill-rule:nonzero;fill:rgb(39.99939%,39.99939%,39.99939%);fill-opacity:0.3;" d="M 171.269531 145.710938 L 176.613281 131.433594 L 190.070312 135.714844 L 175.277344 172.742188 L 171.269531 171.4375 L 162.683594 168.644531 Z M 171.269531 145.710938 "/>
<path style=" stroke:none;fill-rule:nonzero;fill:rgb(39.99939%,39.99939%,39.99939%);fill-opacity:0.3;" d="M 158.757812 24.785156 L 171.269531 -9.234375 L 172.316406 -12.074219 L 186.230469 -7.15625 L 172.308594 29.277344 L 171.269531 28.933594 Z M 158.757812 24.785156 "/>
<path style=" stroke:none;fill-rule:nonzero;fill:rgb(39.99939%,39.99939%,39.99939%);fill-opacity:0.3;" d="M 126.0625 157.183594 L 140.101562 119.730469 L 154.609375 124.75 L 140.519531 161.835938 Z M 126.0625 157.183594 "/>
<path style=" stroke:none;fill-rule:nonzero;fill:rgb(39.99939%,39.99939%,39.99939%);fill-opacity:0.3;" d="M 171.269531 129.628906 L 172.632812 130.085938 L 171.269531 133.722656 L 158.683594 167.34375 L 145.84375 163.167969 L 160.019531 125.820312 Z M 171.269531 129.628906 "/>
<path style=" stroke:none;fill-rule:nonzero;fill:rgb(39.99939%,39.99939%,39.99939%);fill-opacity:0.3;" d="M 134.203125 193.226562 L 143.417969 168.941406 L 156.25 173.300781 L 148.394531 194.632812 Z M 134.203125 193.226562 "/>
<path style=" stroke:none;fill-rule:nonzero;fill:rgb(39.99939%,39.99939%,39.99939%);fill-opacity:0.3;" d="M 171.269531 178.445312 L 172.597656 178.894531 L 171.269531 182.410156 L 165.992188 196.390625 L 152.445312 195.046875 L 160.078125 174.644531 Z M 171.269531 178.445312 "/>
<path style=" stroke:none;fill-rule:nonzero;fill:rgb(39.99939%,39.99939%,39.99939%);fill-opacity:0.3;" d="M 137.730469 166.628906 L 127.894531 192.160156 L 114.230469 190.804688 L 125.085938 162.335938 Z M 137.730469 166.628906 "/>
<path style=" stroke:none;fill-rule:nonzero;fill:rgb(39.99939%,39.99939%,39.99939%);fill-opacity:0.3;" d="M 120.433594 160.753906 L 109.230469 190.308594 L 95.066406 188.90625 L 107.785156 156.789062 Z M 120.433594 160.753906 "/>
<path style=" stroke:none;fill-rule:nonzero;fill:rgb(39.99939%,39.99939%,39.99939%);fill-opacity:0.3;" d="M 264.738281 -0.257812 L 266.871094 -9.199219 L 269.085938 -12.351562 L 282.578125 -8.703125 L 291.464844 10.179688 L 290.328125 10.34375 L 287.824219 11.691406 L 284.582031 14.097656 L 284.210938 14.917969 L 298.765625 38.800781 L 297.933594 40.140625 L 296.265625 41.222656 L 293.480469 42.3125 L 291.929688 42.421875 L 290.628906 41.929688 L 288.664062 39.488281 L 285.238281 35.789062 Z M 264.738281 -0.257812 "/>
<path style=" stroke:none;fill-rule:nonzero;fill:rgb(39.99939%,39.99939%,39.99939%);fill-opacity:0.3;" d="M 252.363281 -25.902344 L 260.882812 -12.554688 L 255.445312 6.015625 L 241.785156 0.46875 Z M 252.363281 -25.902344 "/>
<path style=" stroke:none;fill-rule:nonzero;fill:rgb(39.99939%,39.99939%,39.99939%);fill-opacity:0.3;" d="M 304.042969 27.425781 L 297.253906 13.980469 L 298.480469 13.328125 L 310.257812 17.160156 L 310.257812 18.378906 Z M 304.042969 27.425781 "/>
<path style=" stroke:none;fill-rule:nonzero;fill:rgb(39.99939%,39.99939%,39.99939%);fill-opacity:0.3;" d="M 180.492188 174.4375 L 194.378906 137.445312 L 206.5 141.546875 L 192.640625 178.390625 Z M 180.492188 174.4375 "/>
<path style=" stroke:none;fill-rule:nonzero;fill:rgb(39.99939%,39.99939%,39.99939%);fill-opacity:0.3;" d="M 222.519531 147.0625 L 208.214844 183.539062 L 196.078125 179.589844 L 209.792969 142.753906 Z M 222.519531 147.0625 "/>
<path style=" stroke:none;fill-rule:nonzero;fill:rgb(39.99939%,39.99939%,39.99939%);fill-opacity:0.3;" d="M 226.785156 189.582031 L 213.449219 185.242188 L 227.410156 148.71875 L 240.839844 153.265625 Z M 226.785156 189.582031 "/>
<path style=" stroke:none;fill-rule:nonzero;fill:rgb(39.99939%,39.99939%,39.99939%);fill-opacity:0.3;" d="M 244.984375 154.667969 L 257.417969 158.785156 L 240.722656 203.113281 L 226.570312 201.460938 Z M 244.984375 154.667969 "/>
<path style=" stroke:none;fill-rule:nonzero;fill:rgb(39.99939%,39.99939%,39.99939%);fill-opacity:0.3;" d="M 258.402344 201.882812 L 256.53125 201.757812 L 255.480469 204.933594 L 243.433594 203.609375 L 259.066406 160.359375 L 272.21875 164.640625 Z M 258.402344 201.882812 "/>
<path style=" stroke:none;fill-rule:nonzero;fill:rgb(39.99939%,39.99939%,39.99939%);fill-opacity:0.3;" d="M 201.957031 199.554688 L 189.589844 198.773438 L 194.621094 185.898438 L 206.121094 189.433594 Z M 201.957031 199.554688 "/>
<path style=" stroke:none;fill-rule:nonzero;fill:rgb(39.99939%,39.99939%,39.99939%);fill-opacity:0.3;" d="M 223.195312 201.824219 L 208.394531 200.359375 L 211.65625 191.523438 L 225.316406 196.34375 Z M 223.195312 201.824219 "/>
<path style=" stroke:none;fill-rule:nonzero;fill:rgb(39.99939%,39.99939%,39.99939%);fill-opacity:0.3;" d="M 171.683594 196.953125 L 177.796875 180.664062 L 189.882812 184.769531 L 184.8125 198.257812 Z M 171.683594 196.953125 "/>
<path style=" stroke:none;fill-rule:nonzero;fill:rgb(39.99939%,39.99939%,39.99939%);fill-opacity:0.3;" d="M 261.746094 204.511719 L 275.867188 165.703125 L 288.984375 170.460938 L 274.605469 206.257812 Z M 261.746094 204.511719 "/>
<path style=" stroke:none;fill-rule:nonzero;fill:rgb(39.99939%,39.99939%,39.99939%);fill-opacity:0.3;" d="M 280.609375 206.769531 L 294.707031 172.027344 L 306.476562 176.410156 L 293.21875 208.226562 Z M 280.609375 206.769531 "/>
<path style=" stroke:none;fill-rule:nonzero;fill:rgb(39.99939%,39.99939%,39.99939%);fill-opacity:0.3;" d="M 298.988281 207.777344 L 311.3125 177.308594 L 323.402344 181.53125 L 311.570312 209.648438 Z M 298.988281 207.777344 "/>
<path style=" stroke:none;fill-rule:nonzero;fill:rgb(39.99939%,39.99939%,39.99939%);fill-opacity:0.3;" d="M 326.8125 24.175781 L 313.832031 55.265625 L 306.058594 40.730469 L 314.996094 20.082031 Z M 326.8125 24.175781 "/>
<path style=" stroke:none;fill-rule:nonzero;fill:rgb(39.99939%,39.99939%,39.99939%);fill-opacity:0.3;" d="M 327.957031 -28.148438 L 310.53125 16.242188 L 297.367188 11.824219 L 315.128906 -32.644531 Z M 327.957031 -28.148438 "/>
<path style=" stroke:none;fill-rule:nonzero;fill:rgb(39.99939%,39.99939%,39.99939%);fill-opacity:0.3;" d="M 316.996094 67.472656 L 319.9375 66.464844 L 321.636719 66.449219 L 323.847656 67.078125 L 326.253906 68.410156 L 328.238281 70.289062 L 329.703125 73.0625 L 330.109375 75.835938 L 329.660156 78.855469 L 328.878906 80.867188 L 326.582031 83.566406 Z M 316.996094 67.472656 "/>
<g clip-path="url(#clip4)" clip-rule="nonzero">
<path style=" stroke:none;fill-rule:nonzero;fill:rgb(39.99939%,39.99939%,39.99939%);fill-opacity:0.3;" d="M 348.25 -21.476562 L 362.304688 -16.804688 L 346.734375 24.558594 L 332.519531 19.914062 Z M 348.25 -21.476562 "/>
</g>
<g clip-path="url(#clip5)" clip-rule="nonzero">
<path style=" stroke:none;fill-rule:nonzero;fill:rgb(39.99939%,39.99939%,39.99939%);fill-opacity:0.3;" d="M 351.1875 26.074219 L 366.386719 -15.382812 L 379.339844 -11.078125 L 363.90625 30.234375 Z M 351.1875 26.074219 "/>
</g>
<path style=" stroke:none;fill-rule:nonzero;fill:rgb(39.99939%,39.99939%,39.99939%);fill-opacity:0.3;" d="M 325.3125 127.828125 L 312.699219 123.847656 L 323.332031 94.78125 L 331.75 108.332031 Z M 325.3125 127.828125 "/>
<path style=" stroke:none;fill-rule:nonzero;fill:rgb(39.99939%,39.99939%,39.99939%);fill-opacity:0.3;" d="M 175.652344 30.515625 L 189.449219 -6.097656 L 202.945312 -1.253906 L 189.171875 35.273438 Z M 175.652344 30.515625 "/>
<path style=" stroke:none;fill-rule:nonzero;fill:rgb(39.99939%,39.99939%,39.99939%);fill-opacity:0.3;" d="M 193.335938 36.332031 L 207.550781 -0.25 L 219.527344 3.902344 L 205.566406 40.453125 Z M 193.335938 36.332031 "/>
<path style=" stroke:none;fill-rule:nonzero;fill:rgb(39.99939%,39.99939%,39.99939%);fill-opacity:0.3;" d="M 209.554688 41.925781 L 223.476562 5.238281 L 235.570312 9.304688 L 223.320312 46.636719 Z M 209.554688 41.925781 "/>
<path style=" stroke:none;fill-rule:nonzero;fill:rgb(39.99939%,39.99939%,39.99939%);fill-opacity:0.3;" d="M 226.332031 46.828125 L 238.820312 10.757812 L 252.578125 15.441406 L 240.765625 51.128906 Z M 226.332031 46.828125 "/>
<path style=" stroke:none;fill-rule:nonzero;fill:rgb(39.99939%,39.99939%,39.99939%);fill-opacity:0.3;" d="M 244.046875 54.023438 L 257.421875 17.652344 L 272.253906 22.734375 L 258.382812 58.910156 Z M 244.046875 54.023438 "/>
<path style=" stroke:none;fill-rule:nonzero;fill:rgb(39.99939%,39.99939%,39.99939%);fill-opacity:0.3;" d="M 261.914062 60.074219 L 273.859375 27.148438 L 275.925781 27.355469 L 284.46875 41.652344 L 275.726562 64.816406 Z M 261.914062 60.074219 "/>
<path style=" stroke:none;fill-rule:nonzero;fill:rgb(39.99939%,39.99939%,39.99939%);fill-opacity:0.3;" d="M 308.511719 67.886719 L 305.933594 74.414062 L 293.304688 70.214844 L 299.449219 55.105469 Z M 308.511719 67.886719 "/>
<path style=" stroke:none;fill-rule:nonzero;fill:rgb(39.99939%,39.99939%,39.99939%);fill-opacity:0.3;" d="M 245.402344 101.777344 L 259.601562 65.085938 L 273.410156 69.851562 L 259.050781 106.382812 Z M 245.402344 101.777344 "/>
<path style=" stroke:none;fill-rule:nonzero;fill:rgb(39.99939%,39.99939%,39.99939%);fill-opacity:0.3;" d="M 262.546875 107.933594 L 276.238281 71.363281 L 288.917969 75.246094 L 274.9375 112.035156 Z M 262.546875 107.933594 "/>
<path style=" stroke:none;fill-rule:nonzero;fill:rgb(39.99939%,39.99939%,39.99939%);fill-opacity:0.3;" d="M 277.6875 113.007812 L 291.839844 75.910156 L 303.550781 80.035156 L 289.792969 116.867188 Z M 277.6875 113.007812 "/>
<path style=" stroke:none;fill-rule:nonzero;fill:rgb(39.99939%,39.99939%,39.99939%);fill-opacity:0.3;" d="M 293.445312 118.136719 L 307.882812 81.621094 L 317.023438 84.410156 L 319.078125 88.253906 L 306.160156 122.050781 Z M 293.445312 118.136719 "/>
<path style=" stroke:none;fill-rule:nonzero;fill:rgb(39.99939%,39.99939%,39.99939%);fill-opacity:0.3;" d="M 177.210938 78.84375 L 191.339844 41.789062 L 205.230469 46.414062 L 191.273438 83.476562 Z M 177.210938 78.84375 "/>
<path style=" stroke:none;fill-rule:nonzero;fill:rgb(39.99939%,39.99939%,39.99939%);fill-opacity:0.3;" d="M 193.609375 84.351562 L 207.5625 47.300781 L 221.023438 51.996094 L 206.964844 88.953125 Z M 193.609375 84.351562 "/>
<path style=" stroke:none;fill-rule:nonzero;fill:rgb(39.99939%,39.99939%,39.99939%);fill-opacity:0.3;" d="M 224.960938 94.867188 L 211.433594 90.34375 L 225.410156 53.378906 L 238.964844 57.976562 Z M 224.960938 94.867188 "/>
<path style=" stroke:none;fill-rule:nonzero;fill:rgb(39.99939%,39.99939%,39.99939%);fill-opacity:0.3;" d="M 343.199219 127.847656 L 341.515625 134.109375 L 329.203125 129.253906 L 334.058594 112.828125 Z M 343.199219 127.847656 "/>
<path style=" stroke:none;fill-rule:nonzero;fill:rgb(39.99939%,39.99939%,39.99939%);fill-opacity:0.3;" d="M 204.816406 93.898438 L 191.796875 131.808594 L 178.09375 127.054688 L 192.269531 89.46875 Z M 204.816406 93.898438 "/>
<path style=" stroke:none;fill-rule:nonzero;fill:rgb(39.99939%,39.99939%,39.99939%);fill-opacity:0.3;" d="M 222.59375 99.683594 L 208.382812 137.582031 L 196.152344 133.476562 L 210.449219 95.441406 Z M 222.59375 99.683594 "/>
<path style=" stroke:none;fill-rule:nonzero;fill:rgb(39.99939%,39.99939%,39.99939%);fill-opacity:0.3;" d="M 212.199219 138.675781 L 226.277344 100.109375 L 239.4375 104.355469 L 224.449219 142.480469 Z M 212.199219 138.675781 "/>
<path style=" stroke:none;fill-rule:nonzero;fill:rgb(39.99939%,39.99939%,39.99939%);fill-opacity:0.3;" d="M 229.324219 144.75 L 243.6875 106.210938 L 257.453125 110.660156 L 242.933594 149.011719 Z M 229.324219 144.75 "/>
<path style=" stroke:none;fill-rule:nonzero;fill:rgb(39.99939%,39.99939%,39.99939%);fill-opacity:0.3;" d="M 245.644531 149.917969 L 259.648438 112.765625 L 273.523438 116.972656 L 258.710938 154.027344 Z M 245.644531 149.917969 "/>
<path style=" stroke:none;fill-rule:nonzero;fill:rgb(39.99939%,39.99939%,39.99939%);fill-opacity:0.3;" d="M 261.816406 154.804688 L 275.761719 118.132812 L 287.984375 122.328125 L 274.066406 158.695312 Z M 261.816406 154.804688 "/>
<path style=" stroke:none;fill-rule:nonzero;fill:rgb(39.99939%,39.99939%,39.99939%);fill-opacity:0.3;" d="M 276.882812 160.089844 L 292.421875 124.09375 L 305.121094 128.1875 L 291.574219 164.898438 Z M 276.882812 160.089844 "/>
<path style=" stroke:none;fill-rule:nonzero;fill:rgb(39.99939%,39.99939%,39.99939%);fill-opacity:0.3;" d="M 296.003906 166.582031 L 310.113281 130.160156 L 323.394531 134.542969 L 309.304688 171.050781 Z M 296.003906 166.582031 "/>
<path style=" stroke:none;fill-rule:nonzero;fill:rgb(39.99939%,39.99939%,39.99939%);fill-opacity:0.3;" d="M 312.382812 172.222656 L 327.5 135.328125 L 340.121094 139.75 L 325.773438 176.6875 Z M 312.382812 172.222656 "/>
<path style=" stroke:none;fill-rule:nonzero;fill:rgb(39.99939%,39.99939%,39.99939%);fill-opacity:0.3;" d="M 286.539062 43.121094 L 297.402344 51.898438 L 291.242188 69.652344 L 277.929688 65.304688 Z M 286.539062 43.121094 "/>
<path style=" stroke:none;fill-rule:nonzero;fill:rgb(39.99939%,39.99939%,39.99939%);fill-opacity:0.3;" d="M 227.355469 95.699219 L 241.230469 58.785156 L 255.445312 63.65625 L 240.921875 100.269531 Z M 227.355469 95.699219 "/>
<g clip-path="url(#clip6)" clip-rule="nonzero">
<path style=" stroke:none;fill-rule:nonzero;fill:rgb(39.99939%,39.99939%,39.99939%);fill-opacity:0.3;" d="M 341.496094 103.292969 L 349.570312 78.328125 L 363.25 83.203125 L 350.324219 119.332031 L 350.089844 119.945312 Z M 341.496094 103.292969 "/>
</g>
<path style=" stroke:none;fill-rule:nonzero;fill:rgb(39.99939%,39.99939%,39.99939%);fill-opacity:0.3;" d="M 329.832031 84.898438 L 334.105469 72.90625 L 346.832031 77.34375 L 338.585938 101.085938 Z M 329.832031 84.898438 "/>
<path style=" stroke:none;fill-rule:nonzero;fill:rgb(39.99939%,39.99939%,39.99939%);fill-opacity:0.3;" d="M 295.433594 8.246094 L 286.578125 -9.613281 L 297.847656 -37.996094 L 311.3125 -33.648438 Z M 295.433594 8.246094 "/>
<path style=" stroke:none;fill-rule:nonzero;fill:rgb(39.99939%,39.99939%,39.99939%);fill-opacity:0.3;" d="M -6.292969 347.328125 L 1.171875 302.339844 L 35.851562 305.46875 L 27.386719 351.707031 L -2.003906 349.519531 L -4.972656 348.582031 Z M -6.292969 347.328125 "/>
<g clip-path="url(#clip7)" clip-rule="nonzero">
<path style=" stroke:none;fill-rule:nonzero;fill:rgb(39.99939%,39.99939%,39.99939%);fill-opacity:0.3;" d="M 25.917969 356.652344 L 19.089844 396.347656 L -12.648438 392.628906 L -6.753906 353.253906 Z M 25.917969 356.652344 "/>
</g>
<path style=" stroke:none;fill-rule:nonzero;fill:rgb(39.99939%,39.99939%,39.99939%);fill-opacity:0.3;" d="M 350.324219 119.332031 L 350.101562 119.964844 L 350.089844 119.945312 Z M 350.324219 119.332031 "/>
<g clip-path="url(#clip8)" clip-rule="nonzero">
<path style=" stroke:none;fill-rule:nonzero;fill:rgb(39.99939%,39.99939%,39.99939%);fill-opacity:0.3;" d="M 352.796875 124.496094 L 367.613281 83.832031 L 380.953125 88.347656 L 362.660156 139.382812 Z M 352.796875 124.496094 "/>
</g>
<g clip-path="url(#clip9)" clip-rule="nonzero">
<path style=" stroke:none;fill-rule:nonzero;fill:rgb(39.99939%,39.99939%,39.99939%);fill-opacity:0.3;" d="M 156.074219 316.566406 L 171.269531 317.820312 L 187.5625 319.164062 L 189.144531 319.492188 L 189.164062 319.542969 L 189.164062 323.558594 L 182.738281 356.496094 L 176.714844 394.253906 L 175.105469 411.121094 L 175.339844 413.460938 L 175.277344 413.847656 L 174.761719 416.257812 L 174.613281 416.480469 L 172.6875 418.164062 L 171.269531 418.265625 L 169.441406 418.398438 L 129.113281 412.671875 L 32.90625 399.019531 L 30.929688 397.453125 L 31.265625 394.632812 L 49.472656 304.84375 L 77.902344 309.042969 L 143.027344 317.726562 L 151.9375 318.953125 L 154.71875 316.453125 Z M 156.074219 316.566406 "/>
</g>
<g clip-path="url(#clip10)" clip-rule="nonzero">
<path style=" stroke:none;fill-rule:nonzero;fill:rgb(39.99939%,39.99939%,39.99939%);fill-opacity:0.3;" d="M 189.144531 319.492188 L 189.378906 319.539062 L 190.191406 320.164062 L 190.375 321.386719 L 175.339844 413.460938 L 175.105469 411.121094 L 176.714844 394.253906 L 182.738281 356.496094 L 189.164062 323.558594 L 189.164062 319.542969 Z M 189.144531 319.492188 "/>
</g>
<g clip-path="url(#clip11)" clip-rule="nonzero">
<path style=" stroke:none;fill-rule:nonzero;fill:rgb(39.99939%,39.99939%,39.99939%);fill-opacity:0.3;" d="M 179.25 445.703125 L 185.636719 393.925781 L 193.570312 345.753906 L 194.898438 341.683594 L 196.558594 336.355469 L 196.898438 330.089844 L 198.113281 319.339844 L 237.53125 322.066406 L 240.980469 322.753906 L 245.800781 324.765625 L 247.074219 325.53125 L 247.277344 326.011719 L 244.074219 345.207031 L 243.390625 347.257812 L 241.785156 352.878906 L 241.464844 360.824219 L 239.765625 371 L 239.375 372.964844 L 238.167969 378.183594 L 237.691406 383.414062 L 230.769531 424.871094 Z M 179.25 445.703125 "/>
</g>
<path style=" stroke:none;fill-rule:nonzero;fill:rgb(39.99939%,39.99939%,39.99939%);fill-opacity:0.3;" d="M 237.53125 322.066406 L 241.476562 322.339844 L 244.054688 322.746094 L 245.992188 324.378906 L 246.851562 324.992188 L 247.074219 325.53125 L 245.800781 324.765625 L 240.980469 322.753906 Z M 237.53125 322.066406 "/>
<g clip-path="url(#clip12)" clip-rule="nonzero">
<path style=" stroke:none;fill-rule:nonzero;fill:rgb(39.99939%,39.99939%,39.99939%);fill-opacity:0.3;" d="M 244.074219 345.207031 L 241.464844 360.824219 L 241.785156 352.878906 L 243.390625 347.257812 Z M 244.074219 345.207031 "/>
</g>
<path style=" stroke:none;fill-rule:nonzero;fill:rgb(39.99939%,39.99939%,39.99939%);fill-opacity:0.3;" d="M 322.613281 314.339844 L 324.609375 314.632812 L 319.148438 329.453125 L 317.070312 329.238281 Z M 322.613281 314.339844 "/>
<g clip-path="url(#clip13)" clip-rule="nonzero">
<path style=" stroke:none;fill-rule:nonzero;fill:rgb(39.99939%,39.99939%,39.99939%);fill-opacity:0.3;" d="M 360.039062 223.097656 L 361.800781 221.480469 L 365.75 220.472656 L 369.933594 220.515625 L 346.804688 289.566406 L 330.582031 330.328125 L 321.050781 329.570312 Z M 360.039062 223.097656 "/>
</g>
<g clip-path="url(#clip14)" clip-rule="nonzero">
<path style=" stroke:none;fill-rule:nonzero;fill:rgb(39.99939%,39.99939%,39.99939%);fill-opacity:0.3;" d="M 285.800781 333.027344 L 280.75 369.574219 L 279.351562 368.703125 L 278.503906 360.96875 L 276.648438 351.695312 L 278.578125 332.328125 Z M 285.800781 333.027344 "/>
</g>
<g clip-path="url(#clip15)" clip-rule="nonzero">
<path style=" stroke:none;fill-rule:nonzero;fill:rgb(39.99939%,39.99939%,39.99939%);fill-opacity:0.3;" d="M 283.722656 374.679688 L 289.0625 332.636719 L 302.097656 333.484375 L 302.214844 333.558594 L 292.546875 367.136719 Z M 283.722656 374.679688 "/>
</g>
<g clip-path="url(#clip16)" clip-rule="nonzero">
<path style=" stroke:none;fill-rule:nonzero;fill:rgb(39.99939%,39.99939%,39.99939%);fill-opacity:0.3;" d="M 305.265625 333.890625 L 321.042969 335.3125 L 319.738281 340.449219 L 313.535156 349.105469 L 305.65625 358.042969 L 297.164062 363.414062 Z M 305.265625 333.890625 "/>
</g>
<path style=" stroke:none;fill-rule:nonzero;fill:rgb(39.99939%,39.99939%,39.99939%);fill-opacity:0.3;" d="M 264.226562 343.457031 L 247.042969 342.183594 L 249.742188 325.394531 L 255.675781 330.09375 L 260.289062 335.734375 L 263.253906 340.433594 Z M 264.226562 343.457031 "/>
<g clip-path="url(#clip17)" clip-rule="nonzero">
<path style=" stroke:none;fill-rule:nonzero;fill:rgb(39.99939%,39.99939%,39.99939%);fill-opacity:0.3;" d="M 246.390625 345.246094 L 254.199219 346.316406 L 249.675781 373.109375 L 242.253906 372.632812 Z M 246.390625 345.246094 "/>
</g>
<g clip-path="url(#clip18)" clip-rule="nonzero">
<path style=" stroke:none;fill-rule:nonzero;fill:rgb(39.99939%,39.99939%,39.99939%);fill-opacity:0.3;" d="M 264.632812 347.738281 L 264.765625 349.066406 L 266.363281 367.921875 L 266.945312 374.273438 L 260.558594 373.8125 L 263.902344 347.644531 Z M 264.632812 347.738281 "/>
</g>
<g clip-path="url(#clip19)" clip-rule="nonzero">
<path style=" stroke:none;fill-rule:nonzero;fill:rgb(39.99939%,39.99939%,39.99939%);fill-opacity:0.3;" d="M 262.742188 347.484375 L 259.414062 373.738281 L 251.332031 373.21875 L 255.460938 346.488281 Z M 262.742188 347.484375 "/>
</g>
<g clip-path="url(#clip20)" clip-rule="nonzero">
<path style=" stroke:none;fill-rule:nonzero;fill:rgb(39.99939%,39.99939%,39.99939%);fill-opacity:0.3;" d="M 346.792969 358.082031 L 348.660156 360.648438 L 343.59375 362.496094 Z M 346.792969 358.082031 "/>
</g>
<path style=" stroke:none;fill-rule:nonzero;fill:rgb(39.99939%,39.99939%,39.99939%);fill-opacity:0.3;" d="M 355.3125 225.121094 L 358.472656 223.433594 L 332.257812 292.738281 L 331.785156 292.617188 L 355.457031 225.550781 Z M 355.3125 225.121094 "/>
<path style=" stroke:none;fill-rule:nonzero;fill:rgb(39.99939%,39.99939%,39.99939%);fill-opacity:0.3;" d="M 331.535156 294.90625 L 325.605469 311.585938 L 323.863281 311.320312 L 330.953125 294.769531 Z M 331.535156 294.90625 "/>
<g clip-path="url(#clip21)" clip-rule="nonzero">
<path style=" stroke:none;fill-rule:nonzero;fill:rgb(39.99939%,39.99939%,39.99939%);fill-opacity:0.3;" d="M 308.917969 359.527344 L 313.707031 364.226562 L 298.074219 377.621094 L 293.4375 372.925781 Z M 308.917969 359.527344 "/>
</g>
<g clip-path="url(#clip22)" clip-rule="nonzero">
<path style=" stroke:none;fill-rule:nonzero;fill:rgb(39.99939%,39.99939%,39.99939%);fill-opacity:0.3;" d="M 348.574219 214.652344 L 344.476562 214.097656 L 354.164062 201.289062 L 356.445312 197.945312 L 358.929688 192.441406 L 374.761719 196.652344 L 375.988281 197.207031 L 376.871094 197.875 L 376.605469 199.882812 L 376.429688 200.796875 L 374.832031 207.375 L 373.371094 209.394531 L 369.515625 210.910156 L 363.710938 211.503906 L 362.914062 211.628906 L 357.464844 211.894531 L 352.972656 213.445312 L 351.890625 213.671875 Z M 348.574219 214.652344 "/>
</g>
<path style=" stroke:none;fill-rule:nonzero;fill:rgb(39.99939%,39.99939%,39.99939%);fill-opacity:0.3;" d="M 309.515625 229.464844 L 315.21875 216.292969 L 329.800781 217.742188 L 327.773438 223.023438 Z M 309.515625 229.464844 "/>
<path style=" stroke:none;fill-rule:nonzero;fill:rgb(39.99939%,39.99939%,39.99939%);fill-opacity:0.3;" d="M 355.070312 150.738281 L 342.71875 181.910156 L 330.066406 178.042969 L 345.246094 141.507812 L 352.824219 144.398438 Z M 355.070312 150.738281 "/>
<path style=" stroke:none;fill-rule:nonzero;fill:rgb(39.99939%,39.99939%,39.99939%);fill-opacity:0.3;" d="M 318.058594 210.417969 L 328.527344 183.816406 L 340.566406 187.5625 L 331.941406 212 Z M 318.058594 210.417969 "/>
<path style=" stroke:none;fill-rule:nonzero;fill:rgb(39.99939%,39.99939%,39.99939%);fill-opacity:0.3;" d="M 334.789062 212.898438 L 343.210938 188.671875 L 353.253906 192.015625 L 350.28125 197.738281 L 339.375 213.789062 Z M 334.789062 212.898438 "/>
<path style=" stroke:none;fill-rule:nonzero;fill:rgb(39.99939%,39.99939%,39.99939%);fill-opacity:0.3;" d="M 346.144531 183.28125 L 356.402344 156.003906 L 357.382812 155.871094 L 358.128906 156.179688 L 358.972656 160.117188 L 358.558594 174.042969 L 357.910156 179.792969 L 355.816406 186.5625 Z M 346.144531 183.28125 "/>
<g clip-path="url(#clip23)" clip-rule="nonzero">
<path style=" stroke:none;fill-rule:nonzero;fill:rgb(39.99939%,39.99939%,39.99939%);fill-opacity:0.3;" d="M 363.585938 171.804688 L 362.261719 158.925781 L 363.648438 158.265625 L 378.308594 183.261719 L 378.730469 194.109375 L 359.453125 188.269531 Z M 363.585938 171.804688 "/>
</g>
<g clip-path="url(#clip24)" clip-rule="nonzero">
<path style=" stroke:none;fill-rule:nonzero;fill:rgb(39.99939%,39.99939%,39.99939%);fill-opacity:0.3;" d="M 366.1875 338.5 L 376.460938 343.738281 L 361.65625 372.777344 L 353.269531 362.253906 Z M 366.1875 338.5 "/>
</g>
<path style="fill-rule:nonzero;fill:rgb(39.99939%,39.99939%,39.99939%);fill-opacity:1;stroke-width:0.03;stroke-linecap:square;stroke-linejoin:miter;stroke:rgb(39.99939%,39.99939%,39.99939%);stroke-opacity:1;stroke-miterlimit:3.239307;" d="M 198.445312 306.085938 L 208.136719 256.339844 L 223.242188 257.828125 L 210.515625 315.753906 L 206.296875 315.929688 L 195.652344 315.296875 L 178.253906 313.238281 L 189.753906 254.5625 L 203.234375 255.894531 L 193.492188 305.398438 Z M 198.445312 306.085938 " transform="matrix(1,0,0,1,-74,-13)"/>
<path style="fill-rule:nonzero;fill:rgb(39.99939%,39.99939%,39.99939%);fill-opacity:1;stroke-width:0.03;stroke-linecap:square;stroke-linejoin:miter;stroke:rgb(39.99939%,39.99939%,39.99939%);stroke-opacity:1;stroke-miterlimit:3.239307;" d="M 154.605469 246.460938 L 167.648438 207.589844 L 182.367188 208.949219 L 167.230469 247.628906 Z M 154.605469 246.460938 " transform="matrix(1,0,0,1,-74,-13)"/>
<path style="fill-rule:nonzero;fill:rgb(39.99939%,39.99939%,39.99939%);fill-opacity:1;stroke-width:0.03;stroke-linecap:square;stroke-linejoin:miter;stroke:rgb(39.99939%,39.99939%,39.99939%);stroke-opacity:1;stroke-miterlimit:3.239307;" d="M 172.4375 247.972656 L 186.375 209.214844 L 199.871094 210.539062 L 184.671875 249.109375 Z M 172.4375 247.972656 " transform="matrix(1,0,0,1,-74,-13)"/>
<path style="fill-rule:nonzero;fill:rgb(39.99939%,39.99939%,39.99939%);fill-opacity:1;stroke-width:0.03;stroke-linecap:square;stroke-linejoin:miter;stroke:rgb(39.99939%,39.99939%,39.99939%);stroke-opacity:1;stroke-miterlimit:3.239307;" d="M 190.683594 250.441406 L 205.480469 211.867188 L 219.75 213.265625 L 205.554688 251.816406 Z M 190.683594 250.441406 " transform="matrix(1,0,0,1,-74,-13)"/>
<path style="fill-rule:nonzero;fill:rgb(39.99939%,39.99939%,39.99939%);fill-opacity:1;stroke-width:0.03;stroke-linecap:square;stroke-linejoin:miter;stroke:rgb(39.99939%,39.99939%,39.99939%);stroke-opacity:1;stroke-miterlimit:3.239307;" d="M 231.710938 312.640625 L 222.378906 314.230469 L 216.34375 313.59375 L 226.375 258.183594 L 239.285156 259.460938 Z M 231.710938 312.640625 " transform="matrix(1,0,0,1,-74,-13)"/>
<path style="fill-rule:nonzero;fill:rgb(39.99939%,39.99939%,39.99939%);fill-opacity:1;stroke-width:0.03;stroke-linecap:square;stroke-linejoin:miter;stroke:rgb(39.99939%,39.99939%,39.99939%);stroke-opacity:1;stroke-miterlimit:3.239307;" d="M 245.269531 260.304688 L 259.042969 261.667969 L 250.320312 308.375 L 245.269531 309.507812 L 234.734375 311.863281 L 244.171875 260.195312 Z M 245.269531 260.304688 " transform="matrix(1,0,0,1,-74,-13)"/>
<path style="fill-rule:nonzero;fill:rgb(39.99939%,39.99939%,39.99939%);fill-opacity:1;stroke-width:0.03;stroke-linecap:square;stroke-linejoin:miter;stroke:rgb(39.99939%,39.99939%,39.99939%);stroke-opacity:1;stroke-miterlimit:3.239307;" d="M 209.605469 252.0625 L 224.019531 213.554688 L 237.558594 214.882812 L 223.050781 253.308594 Z M 209.605469 252.0625 " transform="matrix(1,0,0,1,-74,-13)"/>
<path style="fill-rule:nonzero;fill:rgb(39.99939%,39.99939%,39.99939%);fill-opacity:1;stroke-width:0.03;stroke-linecap:square;stroke-linejoin:miter;stroke:rgb(39.99939%,39.99939%,39.99939%);stroke-opacity:1;stroke-miterlimit:3.239307;" d="M 245.269531 215.996094 L 256.765625 217.328125 L 245.269531 248.945312 L 242.894531 255.476562 L 229.238281 254.210938 L 243.648438 215.808594 Z M 245.269531 215.996094 " transform="matrix(1,0,0,1,-74,-13)"/>
<path style="fill-rule:nonzero;fill:rgb(39.99939%,39.99939%,39.99939%);fill-opacity:1;stroke-width:0.03;stroke-linecap:square;stroke-linejoin:miter;stroke:rgb(39.99939%,39.99939%,39.99939%);stroke-opacity:1;stroke-miterlimit:3.239307;" d="M 125.429688 306.6875 L 139.402344 250.007812 L 150.269531 251.355469 L 137.917969 308.144531 Z M 125.429688 306.6875 " transform="matrix(1,0,0,1,-74,-13)"/>
<path style="fill-rule:nonzero;fill:rgb(39.99939%,39.99939%,39.99939%);fill-opacity:1;stroke-width:0.03;stroke-linecap:square;stroke-linejoin:miter;stroke:rgb(39.99939%,39.99939%,39.99939%);stroke-opacity:1;stroke-miterlimit:3.239307;" d="M 184.214844 254.191406 L 173.457031 312.03125 L 158.980469 310.53125 L 170.550781 252.664062 Z M 184.214844 254.191406 " transform="matrix(1,0,0,1,-74,-13)"/>
<path style="fill-rule:nonzero;fill:rgb(39.99939%,39.99939%,39.99939%);fill-opacity:1;stroke-width:0.03;stroke-linecap:square;stroke-linejoin:miter;stroke:rgb(39.99939%,39.99939%,39.99939%);stroke-opacity:1;stroke-miterlimit:3.239307;" d="M 153.34375 310.347656 L 142.347656 308.859375 L 153.957031 251.484375 L 164.929688 252.109375 Z M 153.34375 310.347656 " transform="matrix(1,0,0,1,-74,-13)"/>
<path style="fill-rule:nonzero;fill:rgb(39.99939%,39.99939%,39.99939%);fill-opacity:1;stroke-width:0.03;stroke-linecap:square;stroke-linejoin:miter;stroke:rgb(39.99939%,39.99939%,39.99939%);stroke-opacity:1;stroke-miterlimit:3.239307;" d="M 140.683594 245.15625 L 148.726562 205.644531 L 160.09375 206.757812 L 145.925781 245.640625 Z M 140.683594 245.15625 " transform="matrix(1,0,0,1,-74,-13)"/>
<path style="fill-rule:nonzero;fill:rgb(39.99939%,39.99939%,39.99939%);fill-opacity:1;stroke-width:0.03;stroke-linecap:square;stroke-linejoin:miter;stroke:rgb(39.99939%,39.99939%,39.99939%);stroke-opacity:1;stroke-miterlimit:3.239307;" d="M 245.269531 313.839844 L 251.453125 312.382812 L 263.328125 308.382812 L 270.359375 305.417969 L 266.128906 321.570312 L 245.269531 320.820312 L 221.515625 319.964844 L 219.867188 319.335938 L 220.199219 318.398438 L 232.359375 316.113281 L 243.589844 314.234375 Z M 245.269531 313.839844 " transform="matrix(1,0,0,1,-74,-13)"/>
<path style="fill-rule:nonzero;fill:rgb(39.99939%,39.99939%,39.99939%);fill-opacity:1;stroke-width:0.03;stroke-linecap:square;stroke-linejoin:miter;stroke:rgb(39.99939%,39.99939%,39.99939%);stroke-opacity:1;stroke-miterlimit:3.239307;" d="M 245.46875 255.152344 L 259.347656 217.125 L 274.097656 218.789062 L 259.128906 257.285156 Z M 245.46875 255.152344 " transform="matrix(1,0,0,1,-74,-13)"/>
<path style="fill-rule:nonzero;fill:rgb(39.99939%,39.99939%,39.99939%);fill-opacity:1;stroke-width:0.03;stroke-linecap:square;stroke-linejoin:miter;stroke:rgb(39.99939%,39.99939%,39.99939%);stroke-opacity:1;stroke-miterlimit:3.239307;" d="M 266.292969 257.355469 L 280.996094 219.003906 L 295.367188 220.417969 L 280.515625 258.675781 Z M 266.292969 257.355469 " transform="matrix(1,0,0,1,-74,-13)"/>
<path style="fill-rule:nonzero;fill:rgb(39.99939%,39.99939%,39.99939%);fill-opacity:1;stroke-width:0.03;stroke-linecap:square;stroke-linejoin:miter;stroke:rgb(39.99939%,39.99939%,39.99939%);stroke-opacity:1;stroke-miterlimit:3.239307;" d="M 284.5625 259.308594 L 299.089844 221.226562 L 312.703125 222.566406 L 297.726562 260.308594 Z M 284.5625 259.308594 " transform="matrix(1,0,0,1,-74,-13)"/>
<path style="fill-rule:nonzero;fill:rgb(39.99939%,39.99939%,39.99939%);fill-opacity:1;stroke-width:0.03;stroke-linecap:square;stroke-linejoin:miter;stroke:rgb(39.99939%,39.99939%,39.99939%);stroke-opacity:1;stroke-miterlimit:3.239307;" d="M 300.816406 260.496094 L 316.460938 222.355469 L 329.574219 223.792969 L 314.785156 261.890625 Z M 300.816406 260.496094 " transform="matrix(1,0,0,1,-74,-13)"/>
<path style="fill-rule:nonzero;fill:rgb(39.99939%,39.99939%,39.99939%);fill-opacity:1;stroke-width:0.03;stroke-linecap:square;stroke-linejoin:miter;stroke:rgb(39.99939%,39.99939%,39.99939%);stroke-opacity:1;stroke-miterlimit:3.239307;" d="M 318.898438 262.070312 L 332.644531 223.949219 L 346.703125 225.09375 L 332.207031 263.722656 Z M 318.898438 262.070312 " transform="matrix(1,0,0,1,-74,-13)"/>
<path style="fill-rule:nonzero;fill:rgb(39.99939%,39.99939%,39.99939%);fill-opacity:1;stroke-width:0.03;stroke-linecap:square;stroke-linejoin:miter;stroke:rgb(39.99939%,39.99939%,39.99939%);stroke-opacity:1;stroke-miterlimit:3.239307;" d="M 382.570312 228.519531 L 374.632812 247.273438 L 360.707031 252.609375 L 369.804688 227.351562 Z M 382.570312 228.519531 " transform="matrix(1,0,0,1,-74,-13)"/>
<path style="fill-rule:nonzero;fill:rgb(39.99939%,39.99939%,39.99939%);fill-opacity:1;stroke-width:0.03;stroke-linecap:square;stroke-linejoin:miter;stroke:rgb(39.99939%,39.99939%,39.99939%);stroke-opacity:1;stroke-miterlimit:3.239307;" d="M 355.324219 254.261719 L 338.640625 262.417969 L 352.507812 226.117188 L 365.136719 227.042969 Z M 355.324219 254.261719 " transform="matrix(1,0,0,1,-74,-13)"/>
<path style="fill-rule:nonzero;fill:rgb(39.99939%,39.99939%,39.99939%);fill-opacity:1;stroke-width:0.03;stroke-linecap:square;stroke-linejoin:miter;stroke:rgb(39.99939%,39.99939%,39.99939%);stroke-opacity:1;stroke-miterlimit:3.239307;" d="M 272.914062 299.949219 L 256.402344 306.171875 L 264.71875 262.324219 L 279.664062 263.34375 Z M 272.914062 299.949219 " transform="matrix(1,0,0,1,-74,-13)"/>
<path style="fill-rule:nonzero;fill:rgb(39.99939%,39.99939%,39.99939%);fill-opacity:1;stroke-width:0.03;stroke-linecap:square;stroke-linejoin:miter;stroke:rgb(39.99939%,39.99939%,39.99939%);stroke-opacity:1;stroke-miterlimit:3.239307;" d="M 291.320312 290.738281 L 275.757812 298.710938 L 279.726562 278.589844 L 282.972656 263.054688 L 295.1875 264.265625 Z M 291.320312 290.738281 " transform="matrix(1,0,0,1,-74,-13)"/>
<path style="fill-rule:nonzero;fill:rgb(39.99939%,39.99939%,39.99939%);fill-opacity:1;stroke-width:0.03;stroke-linecap:square;stroke-linejoin:miter;stroke:rgb(39.99939%,39.99939%,39.99939%);stroke-opacity:1;stroke-miterlimit:3.239307;" d="M 311.394531 277.605469 L 297.4375 284.496094 L 299.730469 266.035156 L 311.847656 267.226562 Z M 311.394531 277.605469 " transform="matrix(1,0,0,1,-74,-13)"/>
<path style="fill-rule:nonzero;fill:rgb(39.99939%,39.99939%,39.99939%);fill-opacity:1;stroke-width:0.03;stroke-linecap:square;stroke-linejoin:miter;stroke:rgb(39.99939%,39.99939%,39.99939%);stroke-opacity:1;stroke-miterlimit:3.239307;" d="M 330.101562 268.347656 L 315.820312 275.046875 L 316.296875 267.269531 Z M 330.101562 268.347656 " transform="matrix(1,0,0,1,-74,-13)"/>
<path style=" stroke:none;fill-rule:evenodd;fill:rgb(85.096741%,85.096741%,81.959534%);fill-opacity:0.7;" d="M 331.066406 222 C 331.066406 217.738281 329.375 213.652344 326.359375 210.640625 C 323.347656 207.625 319.261719 205.933594 315 205.933594 C 310.738281 205.933594 306.652344 207.625 303.640625 210.640625 C 300.625 213.652344 298.933594 217.738281 298.933594 222 C 298.933594 226.261719 300.625 230.347656 303.640625 233.359375 C 306.652344 236.375 310.738281 238.066406 315 238.066406 C 319.261719 238.066406 323.347656 236.375 326.359375 233.359375 C 329.375 230.347656 331.066406 226.261719 331.066406 222 Z M 331.066406 222 "/>
<path style=" stroke:none;fill-rule:evenodd;fill:rgb(85.096741%,85.096741%,81.959534%);fill-opacity:0.7;" d="M 10.066406 327 C 10.066406 322.738281 8.375 318.652344 5.359375 315.640625 C 2.347656 312.625 -1.738281 310.933594 -6 310.933594 C -10.261719 310.933594 -14.347656 312.625 -17.359375 315.640625 C -20.375 318.652344 -22.066406 322.738281 -22.066406 327 C -22.066406 331.261719 -20.375 335.347656 -17.359375 338.359375 C -14.347656 341.375 -10.261719 343.066406 -6 343.066406 C -1.738281 343.066406 2.347656 341.375 5.359375 338.359375 C 8.375 335.347656 10.066406 331.261719 10.066406 327 Z M 10.066406 327 "/>
</g>
</svg>
