<?xml version="1.0" encoding="UTF-8"?>
<svg xmlns="http://www.w3.org/2000/svg" xmlns:xlink="http://www.w3.org/1999/xlink" width="361pt" height="361pt" viewBox="0 0 361 361" version="1.1">
<defs>
<clipPath id="clip1">
  <path d="M 351 0 L 360 0 L 360 74 L 351 74 Z M 351 0 "/>
</clipPath>
<clipPath id="clip2">
  <path d="M 321 49 L 360 49 L 360 132 L 321 132 Z M 321 49 "/>
</clipPath>
<clipPath id="clip3">
  <path d="M 336 140 L 360 140 L 360 201 L 336 201 Z M 336 140 "/>
</clipPath>
<clipPath id="clip4">
  <path d="M 331 106 L 360 106 L 360 174 L 331 174 Z M 331 106 "/>
</clipPath>
<clipPath id="clip5">
  <path d="M 299 0 L 360 0 L 360 25 L 299 25 Z M 299 0 "/>
</clipPath>
<clipPath id="clip6">
  <path d="M 40 323 L 78 323 L 78 360 L 40 360 Z M 40 323 "/>
</clipPath>
<clipPath id="clip7">
  <path d="M 64 346 L 74 346 L 74 360 L 64 360 Z M 64 346 "/>
</clipPath>
<clipPath id="clip8">
  <path d="M 46 342 L 55 342 L 55 360 L 46 360 Z M 46 342 "/>
</clipPath>
<clipPath id="clip9">
  <path d="M 202 325 L 264 325 L 264 360 L 202 360 Z M 202 325 "/>
</clipPath>
<clipPath id="clip10">
  <path d="M 140 336 L 208 336 L 208 360 L 140 360 Z M 140 336 "/>
</clipPath>
<clipPath id="clip11">
  <path d="M 261 355 L 302 355 L 302 360 L 261 360 Z M 261 355 "/>
</clipPath>
<clipPath id="clip12">
  <path d="M 335 331 L 359 331 L 359 360 L 335 360 Z M 335 331 "/>
</clipPath>
<clipPath id="clip13">
  <path d="M 343 279 L 360 279 L 360 333 L 343 333 Z M 343 279 "/>
</clipPath>
<clipPath id="clip14">
  <path d="M 352 334 L 360 334 L 360 360 L 352 360 Z M 352 334 "/>
</clipPath>
<clipPath id="clip15">
  <path d="M 300 247 L 360 247 L 360 280 L 300 280 Z M 300 247 "/>
</clipPath>
<clipPath id="clip16">
  <path d="M 304 225 L 360 225 L 360 261 L 304 261 Z M 304 225 "/>
</clipPath>
<clipPath id="clip17">
  <path d="M 354 194 L 360 194 L 360 234 L 354 234 Z M 354 194 "/>
</clipPath>
<clipPath id="clip18">
  <path d="M 340 190 L 360 190 L 360 231 L 340 231 Z M 340 190 "/>
</clipPath>
<clipPath id="clip19">
  <path d="M 276 337 L 301 337 L 301 360 L 276 360 Z M 276 337 "/>
</clipPath>
<clipPath id="clip20">
  <path d="M 293 345 L 335 345 L 335 360 L 293 360 Z M 293 345 "/>
</clipPath>
<clipPath id="clip21">
  <path d="M 319 356 L 349 356 L 349 360 L 319 360 Z M 319 356 "/>
</clipPath>
<clipPath id="clip22">
  <path d="M 21 319 L 43 319 L 43 360 L 21 360 Z M 21 319 "/>
</clipPath>
<clipPath id="clip23">
  <path d="M 0 315 L 39 315 L 39 360 L 0 360 Z M 0 315 "/>
</clipPath>
<clipPath id="clip24">
  <path d="M 0 307 L 5 307 L 5 360 L 0 360 Z M 0 307 "/>
</clipPath>
<clipPath id="clip25">
  <path d="M 98 305 L 139 305 L 139 360 L 98 360 Z M 98 305 "/>
</clipPath>
<clipPath id="clip26">
  <path d="M 83 338 L 98 338 L 98 360 L 83 360 Z M 83 338 "/>
</clipPath>
<clipPath id="clip27">
  <path d="M 359 262 L 360 262 L 360 288 L 359 288 Z M 359 262 "/>
</clipPath>
</defs>
<g id="surface980">
<path style="fill-rule:nonzero;fill:rgb(0%,0%,0%);fill-opacity:1;stroke-width:0.03;stroke-linecap:square;stroke-linejoin:miter;stroke:rgb(0%,0%,0%);stroke-opacity:1;stroke-miterlimit:10;" d="M 0 178 L 360 178 L 360 -182 L 0 -182 Z M 0 178 " transform="matrix(1,0,0,1,0,182)"/>
<g clip-path="url(#clip1)" clip-rule="nonzero">
<path style=" stroke:none;fill-rule:nonzero;fill:rgb(39.99939%,39.99939%,39.99939%);fill-opacity:0.3;" d="M 489.199219 -10.757812 L 493.886719 -10.371094 L 495.175781 -10.265625 L 496.269531 -19.453125 L 509.164062 30.367188 L 508.53125 32.640625 L 508.035156 32.523438 L 506.898438 32.253906 L 495.746094 73.445312 L 481.925781 72.761719 L 483.167969 62.859375 L 486.90625 63.183594 L 487.863281 58.398438 L 485.332031 57.980469 L 485.988281 54.386719 L 483.453125 54.046875 L 480.492188 53.648438 L 480.058594 55.851562 L 481.273438 56.121094 L 480.132812 62.269531 L 482.082031 62.53125 L 480.605469 72.675781 L 459.171875 73.523438 L 476.894531 0.132812 L 439.652344 -9.625 L 436.984375 0.628906 L 431.949219 19.988281 L 415.074219 16.523438 L 411.417969 33.574219 L 402.597656 31.832031 L 401.015625 45.53125 L 399.835938 47.914062 L 397.617188 49.738281 L 395.105469 50.019531 L 390.078125 50.167969 L 351.089844 48.003906 L 370.839844 -11.195312 L 376.878906 -29.292969 L 385.695312 -55.722656 L 386.9375 -59.453125 L 395.496094 -82.832031 L 400.308594 -88.4375 L 407.285156 -92.496094 L 440.410156 -98.367188 L 449.765625 -99.75 L 454.820312 -100.921875 L 457.550781 -101.40625 L 503.253906 -109.511719 L 492.570312 -20.410156 L 474.484375 -21.882812 L 474.578125 -20.660156 L 474.683594 -19.234375 L 489.789062 -17.945312 Z M 489.199219 -10.757812 "/>
</g>
<g clip-path="url(#clip2)" clip-rule="nonzero">
<path style=" stroke:none;fill-rule:nonzero;fill:rgb(39.99939%,39.99939%,39.99939%);fill-opacity:0.3;" d="M 350.402344 49.96875 L 398.203125 61.160156 L 388.027344 102.691406 L 366.613281 112.761719 L 370.621094 95.722656 L 379.738281 97.652344 L 379.953125 97.132812 L 380.214844 96.5 L 363.179688 92.640625 L 362.972656 93.242188 L 362.707031 94.019531 L 369.304688 95.496094 L 365.175781 112.996094 L 352.386719 118.953125 L 354.722656 106.835938 L 354.15625 106.753906 L 353.289062 106.625 L 350.832031 119.535156 L 338.609375 124.652344 L 322.253906 131.980469 L 321.964844 131.859375 L 326.898438 118.0625 L 331.277344 108.308594 L 334.417969 99.507812 L 335.828125 93.09375 L 338.46875 85.707031 L 348.785156 88.203125 L 349.058594 87.410156 L 349.261719 86.824219 L 339.066406 84.328125 L 347.03125 58.300781 Z M 350.402344 49.96875 "/>
</g>
<g clip-path="url(#clip3)" clip-rule="nonzero">
<path style=" stroke:none;fill-rule:nonzero;fill:rgb(39.99939%,39.99939%,39.99939%);fill-opacity:0.3;" d="M 347.792969 140.636719 L 409.714844 154.160156 L 397.828125 200.289062 L 336.46875 181.015625 Z M 347.792969 140.636719 "/>
</g>
<g clip-path="url(#clip4)" clip-rule="nonzero">
<path style=" stroke:none;fill-rule:nonzero;fill:rgb(39.99939%,39.99939%,39.99939%);fill-opacity:0.3;" d="M 386.644531 106.714844 L 531.71875 137.996094 L 527.894531 173.863281 L 331.230469 132.617188 L 331.554688 131.25 Z M 386.644531 106.714844 "/>
</g>
<path style=" stroke:none;fill-rule:nonzero;fill:rgb(39.99939%,39.99939%,39.99939%);fill-opacity:0.3;" d="M 356.332031 24.230469 L 356.320312 24.257812 L 354.125 23.589844 Z M 356.332031 24.230469 "/>
<path style=" stroke:none;fill-rule:nonzero;fill:rgb(39.99939%,39.99939%,39.99939%);fill-opacity:0.3;" d="M 314.011719 30.878906 L 329.328125 34.617188 L 327.097656 42.339844 L 311.871094 38.28125 Z M 314.011719 30.878906 "/>
<path style=" stroke:none;fill-rule:nonzero;fill:rgb(39.99939%,39.99939%,39.99939%);fill-opacity:0.3;" d="M 300.980469 10.652344 L 355.039062 26.855469 L 332.484375 96.882812 L 279.054688 84.175781 L 281.707031 74.289062 L 289.761719 76.195312 L 290.207031 74.394531 L 290.558594 72.984375 L 282.503906 71.210938 L 284.523438 63.90625 L 312.339844 69.296875 L 312.589844 68.574219 L 312.945312 67.542969 L 285.832031 61.589844 Z M 300.980469 10.652344 "/>
<path style=" stroke:none;fill-rule:nonzero;fill:rgb(39.99939%,39.99939%,39.99939%);fill-opacity:0.3;" d="M 190.972656 38.074219 L 167.90625 32.78125 L 172.335938 18.03125 L 175.363281 11.695312 L 178.585938 7 L 184.820312 1.023438 L 191.058594 -3.457031 L 199.367188 -8.257812 Z M 190.972656 38.074219 "/>
<path style=" stroke:none;fill-rule:nonzero;fill:rgb(39.99939%,39.99939%,39.99939%);fill-opacity:0.3;" d="M 184.917969 68.828125 L 159.460938 68.453125 L 161.597656 56.054688 L 162.820312 49.183594 L 164.046875 43.511719 L 166.566406 34.84375 L 190.167969 40.183594 Z M 184.917969 68.828125 "/>
<path style=" stroke:none;fill-rule:nonzero;fill:rgb(39.99939%,39.99939%,39.99939%);fill-opacity:0.3;" d="M 330.386719 22.484375 L 327.441406 30.800781 L 305.585938 24.542969 L 308.679688 15.886719 Z M 330.386719 22.484375 "/>
<path style=" stroke:none;fill-rule:nonzero;fill:rgb(39.99939%,39.99939%,39.99939%);fill-opacity:0.3;" d="M 272.253906 58.582031 L 288.484375 9.507812 L 294.40625 10.878906 L 279.410156 60.578125 Z M 272.253906 58.582031 "/>
<path style=" stroke:none;fill-rule:nonzero;fill:rgb(39.99939%,39.99939%,39.99939%);fill-opacity:0.3;" d="M 210.375 -15.902344 L 221.144531 -8.464844 L 230.839844 -2.390625 L 219.835938 23.503906 L 220.785156 23.503906 L 221.632812 23.5 L 230.53125 2.042969 L 232.46875 4.464844 L 232.898438 4.417969 L 233.34375 4.371094 L 233.242188 2.238281 L 231.4375 0.339844 L 232.226562 -1.996094 L 239.320312 1.25 L 245.515625 3.457031 L 246.488281 23.207031 L 246.328125 29.738281 L 246.164062 36.378906 L 244.410156 51.738281 L 192.753906 38.460938 L 195.546875 26.195312 L 197.945312 14.488281 L 200.242188 1.878906 L 201.449219 -8.691406 Z M 210.375 -15.902344 "/>
<path style=" stroke:none;fill-rule:nonzero;fill:rgb(39.99939%,39.99939%,39.99939%);fill-opacity:0.3;" d="M 265.714844 69.953125 L 275.140625 70.167969 L 271.511719 83.019531 L 262.417969 81.605469 Z M 265.714844 69.953125 "/>
<path style=" stroke:none;fill-rule:nonzero;fill:rgb(39.99939%,39.99939%,39.99939%);fill-opacity:0.3;" d="M 268.523438 59.988281 L 277.65625 62.28125 L 275.347656 68.847656 L 265.945312 68.582031 Z M 268.523438 59.988281 "/>
<path style=" stroke:none;fill-rule:nonzero;fill:rgb(39.99939%,39.99939%,39.99939%);fill-opacity:0.3;" d="M 242.488281 69.792969 L 263.628906 69.960938 L 260.082031 81.292969 L 240.84375 77.902344 Z M 242.488281 69.792969 "/>
<path style=" stroke:none;fill-rule:nonzero;fill:rgb(39.99939%,39.99939%,39.99939%);fill-opacity:0.3;" d="M 246.089844 54.484375 L 266.519531 59.59375 L 263.875 68.605469 L 242.859375 68.578125 Z M 246.089844 54.484375 "/>
<path style=" stroke:none;fill-rule:nonzero;fill:rgb(39.99939%,39.99939%,39.99939%);fill-opacity:0.3;" d="M 222.332031 48.757812 L 243.429688 53.878906 L 238.089844 77.511719 L 216.894531 73.8125 Z M 222.332031 48.757812 "/>
<path style=" stroke:none;fill-rule:nonzero;fill:rgb(39.99939%,39.99939%,39.99939%);fill-opacity:0.3;" d="M 220.488281 48.023438 L 214.835938 73.660156 L 206.21875 72.257812 L 188.347656 69.074219 L 194.269531 40.824219 Z M 220.488281 48.023438 "/>
<path style=" stroke:none;fill-rule:nonzero;fill:rgb(39.99939%,39.99939%,39.99939%);fill-opacity:0.3;" d="M 274.871094 6.570312 L 285.054688 8.921875 L 268.582031 57.804688 L 257.753906 54.855469 Z M 274.871094 6.570312 "/>
<path style=" stroke:none;fill-rule:nonzero;fill:rgb(39.99939%,39.99939%,39.99939%);fill-opacity:0.3;" d="M 248.886719 1.757812 L 272.480469 6.378906 L 255.828125 54.421875 L 247.019531 52.429688 L 248.828125 33.820312 L 248.933594 19.960938 Z M 248.886719 1.757812 "/>
<path style=" stroke:none;fill-rule:nonzero;fill:rgb(39.99939%,39.99939%,39.99939%);fill-opacity:0.3;" d="M 349.636719 49.792969 L 350.402344 49.96875 L 347.03125 58.300781 Z M 349.636719 49.792969 "/>
<path style=" stroke:none;fill-rule:nonzero;fill:rgb(39.99939%,39.99939%,39.99939%);fill-opacity:0.3;" d="M 333.601562 99.316406 L 335.828125 93.09375 L 334.417969 99.507812 Z M 333.601562 99.316406 "/>
<path style=" stroke:none;fill-rule:nonzero;fill:rgb(39.99939%,39.99939%,39.99939%);fill-opacity:0.3;" d="M 322.675781 46.132812 L 321.71875 49.46875 L 306.511719 46.082031 L 307.351562 42.871094 Z M 322.675781 46.132812 "/>
<path style=" stroke:none;fill-rule:nonzero;fill:rgb(39.99939%,39.99939%,39.99939%);fill-opacity:0.3;" d="M 345.703125 51.1875 L 345.09375 54.261719 L 329.109375 50.761719 L 329.753906 47.722656 Z M 345.703125 51.1875 "/>
<path style=" stroke:none;fill-rule:nonzero;fill:rgb(39.99939%,39.99939%,39.99939%);fill-opacity:0.3;" d="M 313.878906 40.34375 L 312.996094 43.773438 L 308.132812 42.628906 L 308.980469 39.121094 Z M 313.878906 40.34375 "/>
<g clip-path="url(#clip5)" clip-rule="nonzero">
<path style=" stroke:none;fill-rule:nonzero;fill:rgb(39.99939%,39.99939%,39.99939%);fill-opacity:0.3;" d="M 337.5625 -82.449219 L 400.539062 -91.710938 L 397.199219 -87.886719 L 393.855469 -84.316406 L 392.253906 -81.003906 L 356.332031 24.230469 L 354.125 23.589844 L 306.363281 9.074219 L 307.34375 4.121094 L 341.160156 9.847656 L 341.214844 9.484375 L 341.265625 9.085938 L 307.007812 3.535156 L 305.847656 8.996094 L 299.652344 6.957031 L 324.5625 -81.207031 L 336.476562 -82.449219 L 332.371094 -63.601562 L 336.839844 -62.464844 L 335.457031 -56.476562 L 332.625 -57.183594 L 332.550781 -56.953125 L 332.460938 -56.675781 L 335.324219 -55.933594 L 333.925781 -49.996094 L 334.386719 -49.878906 L 334.910156 -49.75 L 335.542969 -52.648438 L 341.519531 -51.457031 L 341.59375 -51.988281 L 341.65625 -52.460938 L 335.613281 -53.722656 L 337.867188 -62.191406 L 360.6875 -56.464844 L 361.855469 -63.648438 L 363.191406 -63.515625 L 366.015625 -77.761719 L 365.589844 -77.847656 L 365.117188 -77.941406 L 362.648438 -64.558594 L 361.371094 -64.835938 L 360.164062 -57.359375 L 333.605469 -64.191406 Z M 337.5625 -82.449219 "/>
</g>
<path style=" stroke:none;fill-rule:nonzero;fill:rgb(39.99939%,39.99939%,39.99939%);fill-opacity:0.3;" d="M 223.195312 -29.734375 L 226.050781 -35.988281 L 228.769531 -42.632812 L 233.300781 -41.023438 L 239.714844 -39.402344 L 243.953125 -38.890625 L 247.234375 -38.503906 L 251.550781 -38.652344 L 256.238281 -38.972656 L 259.113281 -39.371094 L 252.957031 -18.398438 L 239.789062 -24.089844 L 239.355469 -23.332031 L 238.933594 -22.589844 L 252.816406 -16.492188 L 248.417969 -2.179688 L 247.851562 0.136719 L 245.566406 1.097656 L 243.421875 0.964844 L 233.402344 -3.507812 L 216.347656 -13.996094 L 212.015625 -17.601562 L 219.105469 -24.519531 Z M 223.195312 -29.734375 "/>
<path style=" stroke:none;fill-rule:nonzero;fill:rgb(39.99939%,39.99939%,39.99939%);fill-opacity:0.3;" d="M 332.519531 -15.804688 L 338.667969 -14.867188 L 338.351562 -13.238281 L 339.5 -13.0625 L 338.933594 -10.136719 L 337.785156 -10.3125 L 334.957031 4.316406 L 336.105469 4.492188 L 335.5 7.621094 L 334.351562 7.445312 L 334.296875 7.6875 L 331.324219 7.234375 L 328.355469 6.78125 L 329.015625 3.410156 L 330.640625 3.65625 L 333.472656 -10.972656 L 331.84375 -11.21875 Z M 332.519531 -15.804688 "/>
<path style=" stroke:none;fill-rule:nonzero;fill:rgb(39.99939%,39.99939%,39.99939%);fill-opacity:0.3;" d="M 317.578125 -22.230469 L 322.464844 -21.484375 L 322.175781 -19.980469 L 324.929688 -19.558594 L 325.222656 -21.0625 L 330.8125 -20.210938 L 329.867188 -15.320312 L 328.609375 -15.511719 L 328.117188 -12.960938 L 329.375 -12.769531 L 328.382812 -7.652344 L 322.792969 -8.507812 L 323.035156 -9.75 L 320.21875 -10.179688 L 319.554688 -6.441406 L 322.3125 -6.019531 L 322.550781 -7.246094 L 328.140625 -6.390625 L 327.011719 -0.558594 L 325.753906 -0.75 L 325.179688 2.21875 L 326.4375 2.410156 L 325.691406 6.269531 L 318.648438 5.191406 L 319.394531 1.335938 L 320.847656 1.558594 L 321.65625 -2.625 L 318.898438 -3.046875 L 318.664062 -1.835938 L 313.777344 -2.582031 L 314.664062 -7.175781 L 316.136719 -14.792969 L 317.5 -14.585938 L 317.992188 -17.132812 L 316.628906 -17.339844 Z M 317.578125 -22.230469 "/>
<path style=" stroke:none;fill-rule:nonzero;fill:rgb(39.99939%,39.99939%,39.99939%);fill-opacity:0.3;" d="M 271.488281 -75.832031 L 283.042969 -76.558594 L 282.476562 -70.308594 L 283.746094 -70.421875 L 284.597656 -70.5 L 285.070312 -76.734375 L 315.039062 -79.625 L 292.945312 4.929688 L 292.109375 6.121094 L 291.179688 7.210938 L 288.789062 7.613281 L 250.027344 -0.511719 Z M 271.488281 -75.832031 "/>
<path style=" stroke:none;fill-rule:nonzero;fill:rgb(39.99939%,39.99939%,39.99939%);fill-opacity:0.3;" d="M 57.683594 344.289062 L 63.328125 344.578125 L 63.15625 350.488281 L 57.28125 350.234375 Z M 57.683594 344.289062 "/>
<g clip-path="url(#clip6)" clip-rule="nonzero">
<path style=" stroke:none;fill-rule:nonzero;fill:rgb(39.99939%,39.99939%,39.99939%);fill-opacity:0.3;" d="M 47.558594 323.796875 L 77.648438 329.753906 L 73.78125 368.484375 L 71.425781 397.539062 L 67.3125 439.835938 L 40.957031 433.851562 L 47.363281 341.925781 L 53.304688 342.785156 L 53.304688 339.753906 L 47.824219 338.890625 Z M 47.558594 323.796875 "/>
</g>
<g clip-path="url(#clip7)" clip-rule="nonzero">
<path style=" stroke:none;fill-rule:nonzero;fill:rgb(39.99939%,39.99939%,39.99939%);fill-opacity:0.3;" d="M 70.820312 377.855469 L 64.289062 377.296875 L 66.878906 346.28125 L 73.46875 346.777344 Z M 70.820312 377.855469 "/>
</g>
<g clip-path="url(#clip8)" clip-rule="nonzero">
<path style=" stroke:none;fill-rule:nonzero;fill:rgb(39.99939%,39.99939%,39.99939%);fill-opacity:0.3;" d="M 53.332031 374.464844 L 46.949219 373.957031 L 48.59375 342.882812 L 55 343.464844 Z M 53.332031 374.464844 "/>
</g>
<g clip-path="url(#clip9)" clip-rule="nonzero">
<path style=" stroke:none;fill-rule:nonzero;fill:rgb(39.99939%,39.99939%,39.99939%);fill-opacity:0.3;" d="M 207.398438 325.238281 L 246.730469 334.917969 L 256.089844 346.0625 L 252.5 361.425781 L 253.054688 361.59375 L 253.636719 361.765625 L 256.988281 347.25 L 263.257812 353.136719 L 258.886719 380.761719 L 244.734375 377.738281 L 247.222656 366.324219 L 246.710938 366.179688 L 246.136719 366.023438 L 243.652344 377.496094 L 232.4375 375.164062 L 239.875 342.777344 L 239.425781 342.714844 L 238.976562 342.65625 L 231.355469 374.925781 L 202.421875 368.601562 L 206.703125 353.859375 L 227.828125 358.964844 L 228.015625 358.433594 L 228.207031 357.890625 L 206.902344 352.414062 L 207.957031 348.394531 L 208.925781 344.378906 L 208.753906 342.085938 L 207.691406 340.59375 L 206.125 339.648438 L 204.339844 338.992188 L 202.304688 338.40625 Z M 207.398438 325.238281 "/>
</g>
<g clip-path="url(#clip10)" clip-rule="nonzero">
<path style=" stroke:none;fill-rule:nonzero;fill:rgb(39.99939%,39.99939%,39.99939%);fill-opacity:0.3;" d="M 187.167969 336.898438 L 205.09375 340.851562 L 207 341.488281 L 207.617188 342.882812 L 207.308594 345.453125 L 193.128906 397.902344 L 181.113281 397.074219 L 185.210938 370.183594 L 184.578125 370.132812 L 184.445312 370.125 L 183.675781 370.0625 L 179.578125 397.195312 L 158.738281 395.777344 L 158.871094 375.917969 L 157.949219 375.976562 L 157.914062 375.980469 L 156.953125 376.039062 L 156.820312 395.660156 L 140.074219 394.230469 L 140.214844 375.214844 L 140.230469 344.359375 L 196.980469 353.5625 L 196.84375 352.921875 L 196.667969 352.089844 L 184.542969 349.929688 Z M 187.167969 336.898438 "/>
</g>
<path style=" stroke:none;fill-rule:nonzero;fill:rgb(39.99939%,39.99939%,39.99939%);fill-opacity:0.3;" d="M 140.164062 299.699219 L 148.414062 298.949219 L 156.210938 297.902344 L 162.414062 297.171875 L 167.90625 296.40625 L 173.363281 295.804688 L 178.507812 295.058594 L 181.824219 294.628906 L 187.746094 294.320312 L 193.203125 294.164062 L 199.28125 294.886719 L 205.203125 296.203125 L 210.035156 297.371094 L 214.539062 298.171875 L 210.863281 311.417969 L 196.679688 307.90625 L 195.742188 312.480469 L 192.777344 312.488281 L 192.777344 313.816406 L 195.441406 314.144531 L 194.957031 317.648438 L 195.738281 317.730469 L 196.359375 317.792969 L 197.910156 309.539062 L 210.371094 312.449219 L 201.335938 337.269531 L 192.261719 335.230469 L 183.691406 333.917969 L 174.960938 333.34375 L 165.761719 333.0625 L 159.210938 333.222656 L 153.753906 333.085938 L 147.515625 333.09375 L 144.710938 333.394531 L 140.1875 333.546875 L 140.148438 300.164062 Z M 140.164062 299.699219 "/>
<path style=" stroke:none;fill-rule:nonzero;fill:rgb(39.99939%,39.99939%,39.99939%);fill-opacity:0.3;" d="M 216.464844 298.550781 L 219.425781 299.574219 L 248.394531 331.988281 L 248.082031 333.613281 L 208.652344 323.953125 Z M 216.464844 298.550781 "/>
<path style=" stroke:none;fill-rule:nonzero;fill:rgb(39.99939%,39.99939%,39.99939%);fill-opacity:0.3;" d="M 221.375 299.53125 L 218.554688 297.886719 L 219.703125 298.140625 Z M 221.375 299.53125 "/>
<path style=" stroke:none;fill-rule:nonzero;fill:rgb(39.99939%,39.99939%,39.99939%);fill-opacity:0.3;" d="M 221.640625 299.777344 L 221.550781 299.679688 L 221.589844 299.710938 Z M 221.640625 299.777344 "/>
<g clip-path="url(#clip11)" clip-rule="nonzero">
<path style=" stroke:none;fill-rule:nonzero;fill:rgb(39.99939%,39.99939%,39.99939%);fill-opacity:0.3;" d="M 265.929688 355.421875 L 288.460938 380.949219 L 295.152344 388.535156 L 301.660156 395.90625 L 300.117188 399.960938 L 283.578125 394.945312 L 286.382812 386.039062 L 261.410156 380.765625 L 262.558594 373.214844 L 270.839844 375.734375 L 270.925781 375.425781 L 271.03125 375.070312 L 262.621094 372.429688 Z M 265.929688 355.421875 "/>
</g>
<path style=" stroke:none;fill-rule:nonzero;fill:rgb(39.99939%,39.99939%,39.99939%);fill-opacity:0.3;" d="M 182.484375 349.75 L 140.699219 343.03125 L 140.550781 335.058594 L 148.664062 335.09375 L 153.601562 334.875 L 157.308594 334.867188 L 169.238281 334.863281 L 176.097656 335 L 183.425781 335.28125 L 185.609375 335.722656 Z M 182.484375 349.75 "/>
<path style=" stroke:none;fill-rule:nonzero;fill:rgb(39.99939%,39.99939%,39.99939%);fill-opacity:0.3;" d="M -30.371094 91.410156 L 14.980469 105.375 L 5.519531 133.183594 L -35.585938 113.699219 Z M -30.371094 91.410156 "/>
<path style=" stroke:none;fill-rule:nonzero;fill:rgb(39.99939%,39.99939%,39.99939%);fill-opacity:0.3;" d="M 16.828125 106.15625 L 52.363281 115.53125 L 52.132812 135.796875 L 38.351562 133.414062 L 38.222656 134.058594 L 38.082031 134.785156 L 51.597656 137.167969 L 51.054688 141.277344 L 33.035156 137.394531 L 32.890625 137.800781 L 32.632812 138.515625 L 50.652344 142.648438 L 48.898438 154.359375 L 7.9375 133.515625 Z M 16.828125 106.15625 "/>
<path style=" stroke:none;fill-rule:nonzero;fill:rgb(39.99939%,39.99939%,39.99939%);fill-opacity:0.3;" d="M 9.230469 179.433594 L 7.59375 179.945312 L 5.644531 180.386719 L 3.769531 180.527344 L -23.554688 171.796875 L -35.5 170.539062 L -49.328125 168.96875 L -50.210938 168.914062 L -47.3125 157.960938 L -41.410156 135.640625 L -40.867188 133.589844 L -36.144531 115.722656 L -28.800781 119.339844 L -18.011719 124.648438 L -10.890625 128.152344 L 4.335938 135.648438 L 48.992188 157.855469 L 47.726562 182.371094 L 36.035156 181.796875 L 34.703125 181.660156 L 32.554688 181.453125 L 29.640625 180.96875 L 26.320312 180.492188 L 24 179.910156 L 21.222656 179.101562 L 18.292969 178.5625 L 15.359375 178.175781 L 12.976562 178.625 L 10.871094 179.140625 Z M 9.230469 179.433594 "/>
<path style=" stroke:none;fill-rule:nonzero;fill:rgb(39.99939%,39.99939%,39.99939%);fill-opacity:0.3;" d="M -59.058594 172.398438 L -52.199219 172.625 L -53.621094 180.511719 L -52.882812 180.636719 L -52.144531 180.757812 L -50.054688 172.898438 L -44.847656 172.871094 L -36.058594 173.570312 L -37.289062 178.660156 L -43.097656 177.742188 L -43.316406 178.355469 L -43.53125 178.96875 L -30.945312 181.019531 L -30.8125 180.527344 L -30.683594 180.039062 L -34.414062 179.300781 L -33.367188 173.816406 L -27.464844 174.554688 L -23.121094 175.128906 L -16.722656 176.582031 L -8.265625 179.039062 L -1.109375 181.800781 L 4.253906 183.796875 L 10.597656 185.945312 L 16.125 187.941406 L 19.90625 190.46875 L 21.863281 193.308594 L 22.226562 195.859375 L 19.714844 197.84375 L 12.851562 199.59375 L -21.269531 200.796875 L -18.6875 187.839844 L -27.628906 186.035156 L -27.71875 186.855469 L -27.804688 187.675781 L -20.859375 188.824219 L -23.566406 200.941406 L -45.082031 201.707031 L -45.472656 203.738281 L -19.5 203.089844 L -41.597656 265.875 L -87.488281 251.484375 L -81.546875 229.601562 L -77.503906 218.015625 L -74.691406 211.207031 L -71.265625 202.558594 L -68.292969 195.078125 Z M -59.058594 172.398438 "/>
<path style=" stroke:none;fill-rule:nonzero;fill:rgb(39.99939%,39.99939%,39.99939%);fill-opacity:0.3;" d="M 46.890625 214.460938 L 46.421875 220.550781 L 42.105469 213.898438 Z M 46.890625 214.460938 "/>
<path style=" stroke:none;fill-rule:nonzero;fill:rgb(39.99939%,39.99939%,39.99939%);fill-opacity:0.3;" d="M 48.90625 185.578125 L 48.164062 196.246094 L 38.421875 194.894531 L 38.335938 196.140625 L 38.273438 197.058594 L 48.160156 198.679688 L 47.84375 211.648438 L 39.964844 211.109375 L 29.535156 194.894531 Z M 48.90625 185.578125 "/>
<path style=" stroke:none;fill-rule:nonzero;fill:rgb(39.99939%,39.99939%,39.99939%);fill-opacity:0.3;" d="M 28.679688 193.8125 L 26.25 190.570312 L 23.53125 188.003906 L 21.097656 185.839844 L 17.945312 183.949219 L 15.511719 182.6875 L 12.863281 181.21875 L 14.34375 180.777344 L 16.527344 180.410156 L 18.867188 180.265625 L 21.519531 180.632812 L 23.078125 181 L 25.027344 181.738281 L 27.132812 182.914062 L 29.703125 183.355469 L 32.746094 183.503906 L 39.292969 184.019531 L 46.976562 184.890625 Z M 28.679688 193.8125 "/>
<path style=" stroke:none;fill-rule:nonzero;fill:rgb(39.99939%,39.99939%,39.99939%);fill-opacity:0.3;" d="M -18.179688 210.214844 L 46.632812 230.785156 L 45.378906 251.417969 L -25.460938 229.027344 Z M -18.179688 210.214844 "/>
<path style=" stroke:none;fill-rule:nonzero;fill:rgb(39.99939%,39.99939%,39.99939%);fill-opacity:0.3;" d="M -15.488281 202.394531 L 10.898438 201.394531 L 14.519531 200.800781 L 19.066406 199.390625 L 22.257812 198.53125 L 24.917969 196.8125 L 33.035156 208.421875 L 38.089844 215.890625 L 33.691406 216.644531 L 34.417969 217.863281 L 34.953125 218.761719 L 39.191406 217.976562 L 46.027344 228.40625 L 21.554688 220.710938 L -17.320312 208.113281 Z M -15.488281 202.394531 "/>
<path style=" stroke:none;fill-rule:nonzero;fill:rgb(39.99939%,39.99939%,39.99939%);fill-opacity:0.3;" d="M -25.507812 231.164062 L 45.992188 253.203125 L 44.925781 265.203125 L 36.789062 269.855469 L 27.234375 273.210938 L 21.746094 273.835938 L 15.214844 274.148438 L 10.949219 274.070312 L 7.09375 273.996094 L 1.890625 274.234375 L -2.210938 274.15625 L -5.742188 274.082031 L -11.15625 273.851562 L -17.640625 272.847656 L -22.644531 271.375 L -26.171875 270.292969 L -38.554688 266.75 Z M -25.507812 231.164062 "/>
<path style=" stroke:none;fill-rule:nonzero;fill:rgb(39.99939%,39.99939%,39.99939%);fill-opacity:0.3;" d="M 3.769531 180.527344 L 1.542969 180.695312 L -1.984375 179.476562 L -7.515625 177.140625 L -15.398438 174.808594 L -22.621094 172.773438 L -29.640625 171.808594 L -35.171875 170.917969 L -40.707031 170.136719 L -45.53125 169.46875 L -50.359375 169.46875 L -50.210938 168.914062 L -49.328125 168.96875 L -35.5 170.539062 L -23.554688 171.796875 Z M 3.769531 180.527344 "/>
<path style=" stroke:none;fill-rule:nonzero;fill:rgb(39.99939%,39.99939%,39.99939%);fill-opacity:0.3;" d="M 22.976562 87.277344 L 53.523438 95.75 L 52.417969 114.378906 L 17.679688 104.488281 Z M 22.976562 87.277344 "/>
<path style=" stroke:none;fill-rule:nonzero;fill:rgb(39.99939%,39.99939%,39.99939%);fill-opacity:0.3;" d="M 41.640625 30.546875 L 56.226562 45.753906 L 53.378906 93.464844 L 24.140625 84.828125 Z M 41.640625 30.546875 "/>
<path style=" stroke:none;fill-rule:nonzero;fill:rgb(39.99939%,39.99939%,39.99939%);fill-opacity:0.3;" d="M -3.867188 -7.527344 L 40.070312 29.800781 L 22.199219 84.464844 L -4.195312 76.453125 L -4.5625 77.523438 L -4.984375 78.734375 L 21.542969 86.621094 L 16.0625 103.882812 L -28.539062 89.109375 L -23.398438 68.027344 L 3.480469 64.878906 L 2.042969 71.71875 L 2.894531 71.851562 L 3.640625 71.972656 L 5.480469 65.132812 L 18.253906 64.257812 L 18.253906 63.46875 L 18.25 62.613281 L 0.984375 63.648438 L 0.792969 58.101562 L 0.0546875 58.269531 L -0.6875 58.4375 L -0.796875 59.609375 L -1.945312 59.675781 L -1.921875 60.355469 L -0.773438 60.40625 L -0.78125 63.609375 L -23.152344 66.15625 L -13.675781 30.75 L -7.445312 32.542969 L -7.246094 35.949219 L 9.109375 40.265625 L 9.203125 39.800781 L 9.363281 39.007812 L -5.679688 34.671875 L -5.949219 31.554688 L -13.042969 29.003906 Z M -3.867188 -7.527344 "/>
<path style=" stroke:none;fill-rule:nonzero;fill:rgb(39.99939%,39.99939%,39.99939%);fill-opacity:0.3;" d="M 37.511719 -56.390625 L 50.832031 -52.902344 L 33.292969 6.351562 L 22.703125 -3.039062 Z M 37.511719 -56.390625 "/>
<path style=" stroke:none;fill-rule:nonzero;fill:rgb(39.99939%,39.99939%,39.99939%);fill-opacity:0.3;" d="M 53.042969 -52.320312 L 63.785156 -49.648438 L 63.183594 -9.03125 L 49.484375 -13.671875 L 49.394531 -12.90625 L 49.265625 -11.835938 L 63.085938 -6.957031 L 61.136719 31.617188 L 35.117188 8.1875 Z M 53.042969 -52.320312 "/>
<path style=" stroke:none;fill-rule:nonzero;fill:rgb(39.99939%,39.99939%,39.99939%);fill-opacity:0.3;" d="M 60.613281 51.171875 L 60.816406 51.429688 L 60.046875 66.824219 L 59.941406 67.234375 Z M 60.613281 51.171875 "/>
<g clip-path="url(#clip12)" clip-rule="nonzero">
<path style=" stroke:none;fill-rule:nonzero;fill:rgb(39.99939%,39.99939%,39.99939%);fill-opacity:0.3;" d="M 341.789062 331.683594 L 358.234375 334.730469 L 350.792969 362.089844 L 335.410156 355.261719 Z M 341.789062 331.683594 "/>
</g>
<g clip-path="url(#clip13)" clip-rule="nonzero">
<path style=" stroke:none;fill-rule:nonzero;fill:rgb(39.99939%,39.99939%,39.99939%);fill-opacity:0.3;" d="M 354.433594 279.125 L 369.796875 283.453125 L 359.085938 332.320312 L 343.128906 329.242188 L 348.632812 304.21875 L 350.808594 304.214844 L 351.535156 301.464844 L 349.207031 300.957031 Z M 354.433594 279.125 "/>
</g>
<g clip-path="url(#clip14)" clip-rule="nonzero">
<path style=" stroke:none;fill-rule:nonzero;fill:rgb(39.99939%,39.99939%,39.99939%);fill-opacity:0.3;" d="M 360.6875 334.792969 L 387.710938 340.671875 L 405.492188 344.542969 L 399.183594 378.023438 L 379.890625 371.5625 L 352.535156 362.402344 Z M 360.6875 334.792969 "/>
</g>
<path style=" stroke:none;fill-rule:nonzero;fill:rgb(39.99939%,39.99939%,39.99939%);fill-opacity:0.3;" d="M 341.730469 331.675781 L 341.789062 331.683594 L 335.410156 355.261719 L 335.375 355.246094 Z M 341.730469 331.675781 "/>
<path style=" stroke:none;fill-rule:nonzero;fill:rgb(39.99939%,39.99939%,39.99939%);fill-opacity:0.3;" d="M 268.035156 269.957031 L 270.394531 265.675781 L 271.769531 263.257812 L 273.339844 259.378906 L 275.109375 254.425781 L 277.324219 241.894531 L 291.148438 245.027344 L 287.449219 261.738281 L 288.136719 261.867188 L 288.601562 261.953125 L 292.1875 245.570312 L 301.863281 247.289062 L 294.476562 278.058594 L 295.707031 278.386719 L 296.933594 278.71875 L 299.867188 266.960938 L 325.292969 272.015625 L 319.972656 290.898438 L 314.386719 311.667969 L 313.839844 317.171875 L 314.382812 322.328125 L 312.929688 323.535156 L 303.679688 321.835938 L 303.605469 322.765625 L 303.496094 324.070312 L 316.558594 326.621094 L 313.46875 335.566406 L 310.386719 334.886719 L 310.105469 336.21875 L 309.84375 337.464844 L 317.277344 338.996094 L 318.367188 336.070312 L 318.1875 334.867188 L 320.367188 327.816406 L 339.597656 331.429688 L 333.246094 353.796875 L 305.628906 344.140625 L 290.921875 341.179688 L 290.917969 338.5625 L 280.179688 336.03125 L 289.726562 304.277344 L 300.128906 307.039062 L 297.800781 316.664062 L 298.394531 316.847656 L 298.925781 317.007812 L 301.46875 306.691406 L 305.519531 307.527344 L 305.734375 306.925781 L 305.945312 306.324219 L 260.675781 295.550781 L 261.449219 288.585938 L 262.667969 279.691406 L 278.714844 283.09375 L 278.714844 282.042969 L 263.074219 278.351562 L 263.984375 275.289062 L 265.191406 272.285156 Z M 268.035156 269.957031 "/>
<path style=" stroke:none;fill-rule:nonzero;fill:rgb(39.99939%,39.99939%,39.99939%);fill-opacity:0.3;" d="M 327.839844 273.1875 L 342.417969 276.125 L 338.238281 297.621094 L 338.894531 297.828125 L 339.328125 297.960938 L 343.773438 276.125 L 354.433594 279.125 L 349.207031 300.957031 L 349.179688 300.953125 L 352.152344 288.144531 L 350.96875 288.507812 L 349.652344 288.910156 L 340.40625 329.074219 L 317.191406 323.988281 L 316.105469 319.160156 L 315.925781 315.207031 Z M 327.839844 273.1875 "/>
<g clip-path="url(#clip15)" clip-rule="nonzero">
<path style=" stroke:none;fill-rule:nonzero;fill:rgb(39.99939%,39.99939%,39.99939%);fill-opacity:0.3;" d="M 304.203125 247.613281 L 333.382812 253.917969 L 374.371094 262.40625 L 370.714844 279.160156 L 354.300781 275.890625 L 342.59375 273.113281 L 328.828125 270.285156 L 331.382812 261.773438 L 330.6875 261.617188 L 329.738281 261.40625 L 327.0625 270.042969 L 300.566406 264.546875 Z M 304.203125 247.613281 "/>
</g>
<g clip-path="url(#clip16)" clip-rule="nonzero">
<path style=" stroke:none;fill-rule:nonzero;fill:rgb(39.99939%,39.99939%,39.99939%);fill-opacity:0.3;" d="M 309.121094 225.78125 L 321.375 228.457031 L 319.664062 235.109375 L 320.589844 235.289062 L 321.535156 235.472656 L 323.363281 228.890625 L 338.183594 232.132812 L 336.652344 237.566406 L 337.78125 237.851562 L 338.972656 238.160156 L 340.433594 232.621094 L 380.023438 241.277344 L 376.75 253.1875 L 360.621094 251.195312 L 360.527344 251.496094 L 360.335938 252.113281 L 376.308594 254.207031 L 374.664062 260.601562 L 345.398438 254.917969 L 347.210938 248.621094 L 353.824219 249.414062 L 353.988281 248.894531 L 354.183594 248.285156 L 346.742188 247.414062 L 344.3125 254.746094 L 304.636719 246.160156 Z M 309.121094 225.78125 "/>
</g>
<path style=" stroke:none;fill-rule:nonzero;fill:rgb(39.99939%,39.99939%,39.99939%);fill-opacity:0.3;" d="M 320.902344 179.734375 L 337.507812 183.839844 L 334.726562 194.246094 L 335.4375 194.429688 L 336.164062 194.613281 L 338.867188 184.394531 L 350.902344 189.425781 L 338.890625 227.835938 L 309.3125 221.53125 L 315.792969 197.261719 L 332.375 201.546875 L 332.722656 200.160156 L 333.027344 198.949219 L 316.578125 194.046875 Z M 320.902344 179.734375 "/>
<path style=" stroke:none;fill-rule:nonzero;fill:rgb(39.99939%,39.99939%,39.99939%);fill-opacity:0.3;" d="M 262.75 327.375 L 279.929688 331.40625 L 275.066406 345.480469 L 265.023438 333.84375 Z M 262.75 327.375 "/>
<path style=" stroke:none;fill-rule:nonzero;fill:rgb(39.99939%,39.99939%,39.99939%);fill-opacity:0.3;" d="M 260.535156 296.882812 L 288.550781 304.128906 L 280.066406 330.621094 L 262.75 326.457031 L 257.117188 313.875 Z M 260.535156 296.882812 "/>
<path style=" stroke:none;fill-rule:nonzero;fill:rgb(39.99939%,39.99939%,39.99939%);fill-opacity:0.3;" d="M 232.492188 260.269531 L 244.964844 271.621094 L 236.125 300.410156 L 225.496094 286.957031 Z M 232.492188 260.269531 "/>
<path style=" stroke:none;fill-rule:nonzero;fill:rgb(39.99939%,39.99939%,39.99939%);fill-opacity:0.3;" d="M 247.054688 272.722656 L 261.5 278.339844 L 255.457031 312.769531 L 237.910156 300.835938 Z M 247.054688 272.722656 "/>
<path style=" stroke:none;fill-rule:nonzero;fill:rgb(39.99939%,39.99939%,39.99939%);fill-opacity:0.3;" d="M 236.8125 242.765625 L 274.375 253.003906 L 272.800781 257.46875 L 271.523438 261 L 268.871094 264.628906 L 264.554688 269.21875 L 263.765625 273.121094 L 263.175781 275.722656 L 262.488281 277.492188 L 261.703125 277.585938 L 247.78125 271.304688 L 233.277344 258.246094 Z M 236.8125 242.765625 "/>
<path style=" stroke:none;fill-rule:nonzero;fill:rgb(39.99939%,39.99939%,39.99939%);fill-opacity:0.3;" d="M 290.25 215.292969 L 299.816406 217.34375 L 298.914062 221.96875 L 289.867188 220.210938 Z M 290.25 215.292969 "/>
<path style=" stroke:none;fill-rule:nonzero;fill:rgb(39.99939%,39.99939%,39.99939%);fill-opacity:0.3;" d="M 255.398438 237.152344 L 275.488281 241.519531 L 273.554688 250.527344 L 252.738281 245.125 Z M 255.398438 237.152344 "/>
<path style=" stroke:none;fill-rule:nonzero;fill:rgb(39.99939%,39.99939%,39.99939%);fill-opacity:0.3;" d="M 261.03125 158.273438 L 273.722656 163.964844 L 272.894531 169.058594 L 256.570312 167.84375 L 259.332031 157.628906 Z M 261.03125 158.273438 "/>
<path style=" stroke:none;fill-rule:nonzero;fill:rgb(39.99939%,39.99939%,39.99939%);fill-opacity:0.3;" d="M 280.371094 213.46875 L 288.855469 215.316406 L 288.382812 220.484375 L 299.824219 223.101562 L 301.109375 217.523438 L 308.652344 218.777344 L 302.179688 245.472656 L 278.519531 240.144531 L 279.703125 229.335938 Z M 280.371094 213.46875 "/>
<path style=" stroke:none;fill-rule:nonzero;fill:rgb(39.99939%,39.99939%,39.99939%);fill-opacity:0.3;" d="M 263.050781 210.023438 L 277.746094 213.34375 L 277.257812 225.066406 L 277.050781 233.992188 L 276.410156 239.105469 L 255.074219 235.03125 Z M 263.050781 210.023438 "/>
<path style=" stroke:none;fill-rule:nonzero;fill:rgb(39.99939%,39.99939%,39.99939%);fill-opacity:0.3;" d="M 245.4375 206.367188 L 261.566406 209.589844 L 250.351562 244.039062 L 236.28125 239.027344 Z M 245.4375 206.367188 "/>
<g clip-path="url(#clip17)" clip-rule="nonzero">
<path style=" stroke:none;fill-rule:nonzero;fill:rgb(39.99939%,39.99939%,39.99939%);fill-opacity:0.3;" d="M 366.058594 194.035156 L 376.859375 197.289062 L 366.46875 233.722656 L 354.980469 231.269531 Z M 366.058594 194.035156 "/>
</g>
<g clip-path="url(#clip18)" clip-rule="nonzero">
<path style=" stroke:none;fill-rule:nonzero;fill:rgb(39.99939%,39.99939%,39.99939%);fill-opacity:0.3;" d="M 352.769531 190.03125 L 363.480469 193.261719 L 352.476562 230.734375 L 340.992188 228.285156 Z M 352.769531 190.03125 "/>
</g>
<path style=" stroke:none;fill-rule:nonzero;fill:rgb(39.99939%,39.99939%,39.99939%);fill-opacity:0.3;" d="M 293.796875 174.820312 L 317.691406 179.300781 L 307.679688 216.714844 L 284.5625 212.171875 Z M 293.796875 174.820312 "/>
<path style=" stroke:none;fill-rule:nonzero;fill:rgb(39.99939%,39.99939%,39.99939%);fill-opacity:0.3;" d="M 256.179688 169.285156 L 282.300781 171.628906 L 281.585938 174.046875 L 265.382812 187.789062 L 252.128906 184.820312 Z M 256.179688 169.285156 "/>
<path style=" stroke:none;fill-rule:nonzero;fill:rgb(39.99939%,39.99939%,39.99939%);fill-opacity:0.3;" d="M 302.691406 173.3125 L 302.476562 173.984375 L 290.21875 168.65625 L 290.265625 168.515625 L 301.734375 172.738281 Z M 302.691406 173.3125 "/>
<path style=" stroke:none;fill-rule:nonzero;fill:rgb(39.99939%,39.99939%,39.99939%);fill-opacity:0.3;" d="M 251.613281 186.214844 L 263.964844 189.003906 L 262.746094 192.9375 L 264.519531 193.347656 L 266.878906 193.933594 L 271.066406 194.878906 L 271.214844 194.109375 L 271.359375 193.335938 L 265.648438 191.726562 L 266.308594 189.46875 L 285.5625 172.425781 L 292.660156 173.613281 L 282.488281 211.742188 L 246.585938 204.664062 Z M 251.613281 186.214844 "/>
<g clip-path="url(#clip19)" clip-rule="nonzero">
<path style=" stroke:none;fill-rule:nonzero;fill:rgb(39.99939%,39.99939%,39.99939%);fill-opacity:0.3;" d="M 279.449219 337.125 L 288.46875 339.222656 L 287.910156 341.160156 L 300.460938 345.097656 L 291.882812 366.789062 L 289.648438 364.414062 L 292.46875 354.265625 L 291.847656 354.054688 L 291.285156 353.867188 L 288.710938 363.160156 L 286.472656 360.457031 L 289.683594 350.035156 L 289.015625 350.042969 L 288.484375 350.046875 L 285.519531 359.402344 L 284.515625 358.226562 L 286.984375 349.558594 L 286.457031 349.515625 L 286.058594 349.484375 L 283.710938 357.246094 L 276.3125 348.453125 Z M 279.449219 337.125 "/>
</g>
<g clip-path="url(#clip20)" clip-rule="nonzero">
<path style=" stroke:none;fill-rule:nonzero;fill:rgb(39.99939%,39.99939%,39.99939%);fill-opacity:0.3;" d="M 302.007812 345.660156 L 322.984375 352.382812 L 318.027344 364.917969 L 318.660156 365.316406 L 318.902344 365.46875 L 323.761719 352.84375 L 334.351562 356.628906 L 318.914062 398.28125 L 293.410156 368.136719 Z M 302.007812 345.660156 "/>
</g>
<g clip-path="url(#clip21)" clip-rule="nonzero">
<path style=" stroke:none;fill-rule:nonzero;fill:rgb(39.99939%,39.99939%,39.99939%);fill-opacity:0.3;" d="M 335.386719 356.835938 L 338.328125 358.035156 L 335.3125 366.054688 L 335.644531 366.277344 L 335.992188 366.511719 L 339.296875 358.492188 L 348.816406 362.25 L 329.511719 411.40625 L 319.773438 399.648438 Z M 335.386719 356.835938 "/>
</g>
<path style=" stroke:none;fill-rule:nonzero;fill:rgb(39.99939%,39.99939%,39.99939%);fill-opacity:0.3;" d="M 186.328125 207.78125 L 210.628906 214.171875 L 201.582031 239.128906 L 178.980469 232.175781 Z M 186.328125 207.78125 "/>
<path style=" stroke:none;fill-rule:nonzero;fill:rgb(39.99939%,39.99939%,39.99939%);fill-opacity:0.3;" d="M 225.644531 180.773438 L 245.800781 186.304688 L 236.855469 219.859375 L 214.804688 213.539062 Z M 225.644531 180.773438 "/>
<path style=" stroke:none;fill-rule:nonzero;fill:rgb(39.99939%,39.99939%,39.99939%);fill-opacity:0.3;" d="M 223.300781 180.132812 L 211.980469 212.945312 L 161.394531 199.246094 L 167.359375 172.742188 L 169.179688 165.300781 Z M 223.300781 180.132812 "/>
<path style=" stroke:none;fill-rule:nonzero;fill:rgb(39.99939%,39.99939%,39.99939%);fill-opacity:0.3;" d="M 229.015625 168.433594 L 249.945312 169.363281 L 245.945312 183.4375 L 225.980469 177.964844 Z M 229.015625 168.433594 "/>
<path style=" stroke:none;fill-rule:nonzero;fill:rgb(39.99939%,39.99939%,39.99939%);fill-opacity:0.3;" d="M 234.316406 149.601562 L 254.253906 153.277344 L 250.25 167.609375 L 229.46875 166.757812 Z M 234.316406 149.601562 "/>
<path style=" stroke:none;fill-rule:nonzero;fill:rgb(39.99939%,39.99939%,39.99939%);fill-opacity:0.3;" d="M 200.628906 143.597656 L 231.277344 148.894531 L 222.699219 176.960938 L 192.757812 167.910156 Z M 200.628906 143.597656 "/>
<path style=" stroke:none;fill-rule:nonzero;fill:rgb(39.99939%,39.99939%,39.99939%);fill-opacity:0.3;" d="M 231.847656 112.359375 L 262.472656 117.941406 L 253.484375 150.535156 L 223.125 145.167969 Z M 231.847656 112.359375 "/>
<path style=" stroke:none;fill-rule:nonzero;fill:rgb(39.99939%,39.99939%,39.99939%);fill-opacity:0.3;" d="M 208.34375 108.039062 L 229.285156 111.816406 L 225.9375 124.117188 L 220.277344 144.910156 L 201.617188 141.46875 L 205.757812 120.902344 Z M 208.34375 108.039062 "/>
<path style=" stroke:none;fill-rule:nonzero;fill:rgb(39.99939%,39.99939%,39.99939%);fill-opacity:0.3;" d="M 144.855469 266.507812 L 197.160156 281.34375 L 195.75 287.839844 L 190.917969 287.554688 L 188.105469 292.429688 L 183.015625 293.128906 L 176.464844 293.734375 L 167.421875 294.785156 L 161.808594 295.679688 L 156.195312 296.425781 L 148.398438 297.324219 L 140.1875 298.203125 L 140.1875 296.933594 L 140.917969 292.46875 L 141.394531 287.160156 L 141.707031 284.820312 L 142.703125 278.339844 L 143.859375 270.25 Z M 144.855469 266.507812 "/>
<path style=" stroke:none;fill-rule:nonzero;fill:rgb(39.99939%,39.99939%,39.99939%);fill-opacity:0.3;" d="M 198.417969 281.632812 L 214.621094 286.46875 L 223.335938 299.433594 L 229.5625 308.570312 L 221.640625 299.777344 L 221.589844 299.710938 L 221.550781 299.679688 L 221.464844 299.585938 L 221.375 299.53125 L 219.703125 298.140625 L 218.554688 297.886719 L 218.195312 297.675781 L 213.832031 296.0625 L 208.066406 294.746094 L 196.378906 292.851562 Z M 198.417969 281.632812 "/>
<path style=" stroke:none;fill-rule:nonzero;fill:rgb(39.99939%,39.99939%,39.99939%);fill-opacity:0.3;" d="M 182.707031 237.601562 L 173.527344 266.890625 L 146.363281 259.050781 L 152.710938 228.480469 Z M 182.707031 237.601562 "/>
<path style=" stroke:none;fill-rule:nonzero;fill:rgb(39.99939%,39.99939%,39.99939%);fill-opacity:0.3;" d="M 184.730469 207.351562 L 177.265625 231.960938 L 154.675781 225.480469 L 160.710938 200.625 Z M 184.730469 207.351562 "/>
<path style=" stroke:none;fill-rule:nonzero;fill:rgb(39.99939%,39.99939%,39.99939%);fill-opacity:0.3;" d="M 198.75 143.558594 L 190.929688 167.832031 L 180.078125 164.628906 L 170.246094 161.730469 L 173.132812 150.9375 L 176.308594 139.058594 Z M 198.75 143.558594 "/>
<path style=" stroke:none;fill-rule:nonzero;fill:rgb(39.99939%,39.99939%,39.99939%);fill-opacity:0.3;" d="M 104.390625 174.3125 L 128.464844 179.675781 L 118.625 215.21875 L 101.316406 210.421875 Z M 104.390625 174.3125 "/>
<path style=" stroke:none;fill-rule:nonzero;fill:rgb(39.99939%,39.99939%,39.99939%);fill-opacity:0.3;" d="M 121.679688 219.621094 L 150.710938 228.003906 L 143.707031 257.949219 L 113.460938 248.207031 Z M 121.679688 219.621094 "/>
<path style=" stroke:none;fill-rule:nonzero;fill:rgb(39.99939%,39.99939%,39.99939%);fill-opacity:0.3;" d="M 136.71875 169.019531 L 163.65625 175.488281 L 159.660156 191.449219 L 151.375 224.542969 L 122.21875 216.238281 L 127.523438 194.441406 L 139.675781 197.171875 L 139.902344 195.898438 L 140.136719 194.613281 L 128.230469 192.441406 L 134.386719 170.015625 Z M 136.71875 169.019531 "/>
<path style=" stroke:none;fill-rule:nonzero;fill:rgb(39.99939%,39.99939%,39.99939%);fill-opacity:0.3;" d="M 105.457031 157.089844 L 126.46875 161.980469 L 131.941406 169.847656 L 129.175781 177.808594 L 104.183594 172.042969 Z M 105.457031 157.089844 "/>
<path style=" stroke:none;fill-rule:nonzero;fill:rgb(39.99939%,39.99939%,39.99939%);fill-opacity:0.3;" d="M 106.558594 133.699219 L 112.222656 141.253906 L 112.527344 145.316406 L 111.128906 148.609375 L 108.113281 156.296875 L 105.265625 155.570312 Z M 106.558594 133.699219 "/>
<path style=" stroke:none;fill-rule:nonzero;fill:rgb(39.99939%,39.99939%,39.99939%);fill-opacity:0.3;" d="M 88.746094 208.78125 L 83.660156 207.421875 L 88.867188 188.488281 Z M 88.746094 208.78125 "/>
<path style=" stroke:none;fill-rule:nonzero;fill:rgb(39.99939%,39.99939%,39.99939%);fill-opacity:0.3;" d="M 81.925781 208.578125 L 87.195312 210.117188 L 83.976562 241.109375 L 74.070312 237.644531 Z M 81.925781 208.578125 "/>
<path style=" stroke:none;fill-rule:nonzero;fill:rgb(39.99939%,39.99939%,39.99939%);fill-opacity:0.3;" d="M 52.527344 200.414062 L 80.105469 208.105469 L 72.46875 237.191406 L 65.261719 234.820312 L 57.214844 231.824219 L 51.429688 228.777344 Z M 52.527344 200.414062 "/>
<path style=" stroke:none;fill-rule:nonzero;fill:rgb(39.99939%,39.99939%,39.99939%);fill-opacity:0.3;" d="M 54.308594 183.539062 L 88.703125 181.507812 L 81.90625 206.886719 L 53.554688 198.664062 Z M 54.308594 183.539062 "/>
<path style=" stroke:none;fill-rule:nonzero;fill:rgb(39.99939%,39.99939%,39.99939%);fill-opacity:0.3;" d="M 55.300781 160.34375 L 60.894531 163.820312 L 64.894531 165.457031 L 69.964844 167.21875 L 74.898438 168.222656 L 83.964844 169.859375 L 87.699219 170.359375 L 89.828125 171.363281 L 91.421875 172.996094 L 90.867188 179.152344 L 54.835938 181.292969 Z M 55.300781 160.34375 "/>
<path style=" stroke:none;fill-rule:nonzero;fill:rgb(39.99939%,39.99939%,39.99939%);fill-opacity:0.3;" d="M 57.269531 117.574219 L 91.988281 123.839844 L 92.703125 139.011719 L 91.824219 156.554688 L 90.714844 168.730469 L 86.847656 168.355469 L 78.847656 167.222656 L 74.046875 166.21875 L 70.042969 165.589844 L 65.777344 164.207031 L 59.910156 161.5625 L 57.640625 160.304688 L 54.597656 158.40625 Z M 57.269531 117.574219 "/>
<path style=" stroke:none;fill-rule:nonzero;fill:rgb(39.99939%,39.99939%,39.99939%);fill-opacity:0.3;" d="M 60.816406 51.429688 L 67.339844 59.816406 L 73.398438 68.734375 L 75.253906 71.761719 L 78.128906 77.976562 L 82.019531 86.109375 L 85.933594 97.121094 L 89.179688 107.5 L 91.527344 122.402344 L 57.902344 115.921875 L 59.941406 67.234375 L 60.046875 66.824219 Z M 60.816406 51.429688 "/>
<path style=" stroke:none;fill-rule:nonzero;fill:rgb(39.99939%,39.99939%,39.99939%);fill-opacity:0.3;" d="M 114.839844 145.175781 L 123.148438 158.742188 L 111.230469 156.460938 L 110.488281 155.859375 L 110.578125 154.953125 L 113.199219 149.09375 Z M 114.839844 145.175781 "/>
<path style=" stroke:none;fill-rule:nonzero;fill:rgb(39.99939%,39.99939%,39.99939%);fill-opacity:0.3;" d="M 100.679688 214.203125 L 118.253906 218.835938 L 110.117188 247.003906 L 97.695312 243.3125 Z M 100.679688 214.203125 "/>
<path style=" stroke:none;fill-rule:nonzero;fill:rgb(39.99939%,39.99939%,39.99939%);fill-opacity:0.3;" d="M 84.738281 54.027344 L 78.722656 52.910156 L 78.070312 51.667969 L 84.875 53.9375 Z M 84.738281 54.027344 "/>
<path style=" stroke:none;fill-rule:nonzero;fill:rgb(39.99939%,39.99939%,39.99939%);fill-opacity:0.3;" d="M 206.183594 107.519531 L 199.203125 140.6875 L 177.886719 136.945312 L 177.585938 136.054688 L 181.769531 113.957031 L 179.207031 113.554688 L 181.6875 103.074219 Z M 206.183594 107.519531 "/>
<path style=" stroke:none;fill-rule:nonzero;fill:rgb(39.99939%,39.99939%,39.99939%);fill-opacity:0.3;" d="M 187.828125 71.808594 L 214.886719 76.386719 L 272.351562 86.105469 L 263.792969 115.929688 L 209.078125 105.289062 L 182.289062 100.078125 L 185.125 85.597656 Z M 187.828125 71.808594 "/>
<path style=" stroke:none;fill-rule:nonzero;fill:rgb(39.99939%,39.99939%,39.99939%);fill-opacity:0.3;" d="M 214.835938 73.660156 L 214.808594 73.785156 L 206.21875 72.257812 Z M 214.835938 73.660156 "/>
<path style=" stroke:none;fill-rule:nonzero;fill:rgb(39.99939%,39.99939%,39.99939%);fill-opacity:0.3;" d="M 203.898438 243.226562 L 207.984375 244.730469 L 212.335938 246.441406 L 216.375 248.199219 L 220.59375 250.332031 L 223.578125 251.855469 L 226.589844 253.597656 L 219.128906 279.347656 L 217.335938 279.511719 L 199.210938 257.542969 Z M 203.898438 243.226562 "/>
<path style=" stroke:none;fill-rule:nonzero;fill:rgb(39.99939%,39.99939%,39.99939%);fill-opacity:0.3;" d="M 184.941406 238.214844 L 201.046875 242.933594 L 196.011719 257.046875 L 215.496094 281.152344 L 176.042969 267.414062 Z M 184.941406 238.214844 "/>
<path style=" stroke:none;fill-rule:nonzero;fill:rgb(39.99939%,39.99939%,39.99939%);fill-opacity:0.3;" d="M 213.933594 215.113281 L 236.105469 221.449219 L 227.320312 251.976562 L 222.746094 249.421875 L 216.792969 246.570312 L 211.765625 244.417969 L 207.871094 242.730469 L 204.273438 241.351562 Z M 213.933594 215.113281 "/>
<path style=" stroke:none;fill-rule:nonzero;fill:rgb(39.99939%,39.99939%,39.99939%);fill-opacity:0.3;" d="M 167.359375 172.742188 L 169.042969 165.261719 L 169.179688 165.300781 Z M 167.359375 172.742188 "/>
<path style=" stroke:none;fill-rule:nonzero;fill:rgb(39.99939%,39.99939%,39.99939%);fill-opacity:0.3;" d="M 134.789062 168.554688 L 136.71875 169.019531 L 134.386719 170.015625 Z M 134.789062 168.554688 "/>
<path style=" stroke:none;fill-rule:nonzero;fill:rgb(39.99939%,39.99939%,39.99939%);fill-opacity:0.3;" d="M 103.734375 115.195312 L 136.207031 132.605469 L 131.769531 142.867188 L 128.378906 149.226562 L 124.605469 153.996094 L 108.546875 131.003906 L 105.851562 127.113281 Z M 103.734375 115.195312 "/>
<path style=" stroke:none;fill-rule:nonzero;fill:rgb(39.99939%,39.99939%,39.99939%);fill-opacity:0.3;" d="M 139.1875 132.8125 L 170.171875 138.464844 L 166.011719 158.402344 L 149.351562 154.5625 L 149 155.628906 L 148.714844 156.503906 L 165.578125 160.492188 L 162.824219 172.964844 L 134.515625 166.703125 L 130.515625 163.417969 L 126.535156 156.554688 Z M 139.1875 132.8125 "/>
<path style=" stroke:none;fill-rule:nonzero;fill:rgb(39.99939%,39.99939%,39.99939%);fill-opacity:0.3;" d="M 147.960938 106.519531 L 175.113281 113.496094 L 170.210938 135.648438 L 139.734375 130.398438 L 142.613281 121.632812 L 157.972656 125.71875 L 158.03125 125.171875 L 158.105469 124.503906 L 143.265625 120.296875 Z M 147.960938 106.519531 "/>
<path style=" stroke:none;fill-rule:nonzero;fill:rgb(39.99939%,39.99939%,39.99939%);fill-opacity:0.3;" d="M 82.433594 57.574219 L 156.027344 73.527344 L 137.335938 130.230469 L 104.335938 112.242188 L 101.398438 101.101562 L 95.207031 82.308594 L 87.25 65.097656 Z M 82.433594 57.574219 "/>
<path style=" stroke:none;fill-rule:nonzero;fill:rgb(39.99939%,39.99939%,39.99939%);fill-opacity:0.3;" d="M 90.617188 55.53125 L 87.382812 54.859375 L 87.421875 54.644531 Z M 90.617188 55.53125 "/>
<path style=" stroke:none;fill-rule:nonzero;fill:rgb(39.99939%,39.99939%,39.99939%);fill-opacity:0.3;" d="M 157.902344 73.078125 L 183.101562 72.679688 L 174.585938 111.820312 L 147.808594 105.207031 Z M 157.902344 73.078125 "/>
<path style=" stroke:none;fill-rule:nonzero;fill:rgb(39.99939%,39.99939%,39.99939%);fill-opacity:0.3;" d="M 85.152344 54.101562 L 84.738281 54.027344 L 84.875 53.9375 L 85.167969 54.019531 Z M 85.152344 54.101562 "/>
<path style=" stroke:none;fill-rule:nonzero;fill:rgb(39.99939%,39.99939%,39.99939%);fill-opacity:0.3;" d="M 259.359375 157.527344 L 261.03125 158.273438 L 259.332031 157.628906 Z M 259.359375 157.527344 "/>
<path style=" stroke:none;fill-rule:nonzero;fill:rgb(39.99939%,39.99939%,39.99939%);fill-opacity:0.3;" d="M 318.683594 134.875 L 344.421875 139.84375 L 332.867188 180.207031 L 319.621094 177.066406 L 327.585938 154.636719 L 326.671875 154.4375 L 325.292969 154.140625 L 317.324219 176.570312 L 305.667969 174.09375 Z M 318.683594 134.875 "/>
<path style=" stroke:none;fill-rule:nonzero;fill:rgb(39.99939%,39.99939%,39.99939%);fill-opacity:0.3;" d="M 302.882812 130.820312 L 315.203125 134.238281 L 302.691406 173.3125 L 301.734375 172.738281 L 290.265625 168.515625 Z M 302.882812 130.820312 "/>
<path style=" stroke:none;fill-rule:nonzero;fill:rgb(39.99939%,39.99939%,39.99939%);fill-opacity:0.3;" d="M 288.140625 126.863281 L 300.976562 130.34375 L 288.699219 167.984375 L 276.90625 162.878906 Z M 288.140625 126.863281 "/>
<path style=" stroke:none;fill-rule:nonzero;fill:rgb(39.99939%,39.99939%,39.99939%);fill-opacity:0.3;" d="M 269.738281 121.960938 L 286.164062 126.316406 L 274.59375 161.570312 L 260.132812 155.59375 Z M 269.738281 121.960938 "/>
<path style=" stroke:none;fill-rule:nonzero;fill:rgb(39.99939%,39.99939%,39.99939%);fill-opacity:0.3;" d="M 314.488281 95.804688 L 326.433594 98.199219 L 328.730469 99.734375 L 330.03125 101.675781 L 330.261719 103.859375 L 321.140625 127.613281 L 319.761719 129.550781 L 318.039062 130.089844 L 315.632812 129.988281 L 304.628906 126.8125 Z M 314.488281 95.804688 "/>
<path style=" stroke:none;fill-rule:nonzero;fill:rgb(39.99939%,39.99939%,39.99939%);fill-opacity:0.3;" d="M 298.882812 92.765625 L 312.535156 95.367188 L 302.28125 126.269531 L 290.035156 122.863281 Z M 298.882812 92.765625 "/>
<path style=" stroke:none;fill-rule:nonzero;fill:rgb(39.99939%,39.99939%,39.99939%);fill-opacity:0.3;" d="M 277.886719 88.320312 L 297.164062 92.773438 L 288.277344 122.457031 L 270.238281 117.542969 Z M 277.886719 88.320312 "/>
<path style=" stroke:none;fill-rule:nonzero;fill:rgb(39.99939%,39.99939%,39.99939%);fill-opacity:0.3;" d="M 326.898438 118.0625 L 333.601562 99.316406 L 334.417969 99.507812 L 331.277344 108.308594 Z M 326.898438 118.0625 "/>
<path style=" stroke:none;fill-rule:nonzero;fill:rgb(39.99939%,39.99939%,39.99939%);fill-opacity:0.3;" d="M 322.253906 131.980469 L 321.855469 132.160156 L 321.964844 131.859375 Z M 322.253906 131.980469 "/>
<path style=" stroke:none;fill-rule:nonzero;fill:rgb(39.99939%,39.99939%,39.99939%);fill-opacity:0.3;" d="M 7.207031 278.367188 L 12.441406 278.296875 L 18.007812 277.960938 L 23.460938 277.347656 L 26.214844 276.847656 L 29.792969 276.070312 L 33.308594 275.125 L 36.417969 274.292969 L 39.054688 273.460938 L 41.273438 272.570312 L 44.449219 271.296875 L 44.105469 290.824219 Z M 7.207031 278.367188 "/>
<g clip-path="url(#clip22)" clip-rule="nonzero">
<path style=" stroke:none;fill-rule:nonzero;fill:rgb(39.99939%,39.99939%,39.99939%);fill-opacity:0.3;" d="M 27.359375 319.226562 L 42.527344 322.339844 L 39.019531 380.210938 L 21.484375 379.167969 Z M 27.359375 319.226562 "/>
</g>
<path style=" stroke:none;fill-rule:nonzero;fill:rgb(39.99939%,39.99939%,39.99939%);fill-opacity:0.3;" d="M 28.882812 291.664062 L 43.582031 296.066406 L 42.421875 320.476562 L 27.25 317.253906 Z M 28.882812 291.664062 "/>
<path style=" stroke:none;fill-rule:nonzero;fill:rgb(39.99939%,39.99939%,39.99939%);fill-opacity:0.3;" d="M 15.007812 287.488281 L 25.734375 290.734375 L 24.644531 316.761719 L 8.183594 313.328125 Z M 15.007812 287.488281 "/>
<path style=" stroke:none;fill-rule:nonzero;fill:rgb(39.99939%,39.99939%,39.99939%);fill-opacity:0.3;" d="M -22.644531 282.078125 L -5.511719 280.765625 L 12.5 286.339844 L 5.289062 312.199219 L -30.828125 304.699219 Z M -22.644531 282.078125 "/>
<g clip-path="url(#clip23)" clip-rule="nonzero">
<path style=" stroke:none;fill-rule:nonzero;fill:rgb(39.99939%,39.99939%,39.99939%);fill-opacity:0.3;" d="M 7.808594 315.5 L 24.320312 318.933594 L 18.335938 381.488281 L 38.113281 383.355469 L 34.941406 430.15625 L -2.558594 416.433594 L 4.117188 388.757812 L 3.097656 388.65625 L 1.84375 388.535156 L -1.742188 402.011719 L -16.691406 397.269531 L -13.464844 385.828125 L -14.347656 385.726562 L -15.375 385.605469 L -18.605469 396.59375 L -48.386719 386.988281 L -48.496094 387.371094 L -48.746094 388.234375 L -36.304688 392.640625 L -37.980469 396.265625 L -46.351562 394.574219 L -46.578125 395.113281 L -46.832031 395.707031 L -38.335938 397.738281 L -39.730469 401.769531 L -63.867188 393.296875 L -55.382812 371.210938 L -49.878906 372.113281 L -51.195312 376.414062 L -50.324219 376.476562 L -49.636719 376.527344 L -48.441406 372.222656 L -21.734375 377.769531 L -22.453125 381.617188 L -21.015625 381.617188 L -20.417969 377.992188 L -11.832031 380.054688 L -12.15625 382.042969 L -10.949219 382.230469 L -9.894531 382.394531 L -5.828125 366.886719 L 4.816406 368.460938 L 4.949219 367.78125 L 5.058594 367.214844 L -5.628906 365.449219 L -1.535156 349.304688 Z M 7.808594 315.5 "/>
</g>
<path style=" stroke:none;fill-rule:nonzero;fill:rgb(39.99939%,39.99939%,39.99939%);fill-opacity:0.3;" d="M 44.925781 265.203125 L 44.921875 265.234375 L 43.855469 267.847656 L 42.214844 269.324219 L 39.503906 270.410156 L 33.84375 271.808594 L 27.933594 273.132812 L 27.234375 273.210938 L 36.789062 269.855469 Z M 44.925781 265.203125 "/>
<path style=" stroke:none;fill-rule:nonzero;fill:rgb(39.99939%,39.99939%,39.99939%);fill-opacity:0.3;" d="M 47.976562 320.382812 L 47.199219 320.179688 L 47.636719 315.058594 Z M 47.976562 320.382812 "/>
<g clip-path="url(#clip24)" clip-rule="nonzero">
<path style=" stroke:none;fill-rule:nonzero;fill:rgb(39.99939%,39.99939%,39.99939%);fill-opacity:0.3;" d="M -32.054688 307.050781 L -14.878906 310.800781 L -20.859375 333.203125 L -19.71875 333.488281 L -19.660156 333.5 L -18.464844 333.800781 L -12.574219 311.292969 L 4.6875 314.9375 L -8.207031 365.984375 L -49.726562 356.84375 L -42.902344 337.085938 L -25.929688 340.890625 L -25.722656 339.863281 L -25.648438 339.496094 L -25.515625 338.835938 L -42.074219 334.832031 Z M -32.054688 307.050781 "/>
</g>
<path style=" stroke:none;fill-rule:nonzero;fill:rgb(39.99939%,39.99939%,39.99939%);fill-opacity:0.3;" d="M 141.707031 284.820312 L 142.339844 280.078125 L 142.65625 276.242188 L 143.597656 271.226562 L 143.859375 270.25 L 142.703125 278.339844 Z M 141.707031 284.820312 "/>
<path style=" stroke:none;fill-rule:nonzero;fill:rgb(39.99939%,39.99939%,39.99939%);fill-opacity:0.3;" d="M 140.1875 298.203125 L 139.976562 298.222656 L 140.1875 296.933594 Z M 140.1875 298.203125 "/>
<path style=" stroke:none;fill-rule:nonzero;fill:rgb(39.99939%,39.99939%,39.99939%);fill-opacity:0.3;" d="M 110.578125 256.300781 L 141.902344 266.425781 L 140.019531 275.574219 L 119.597656 271.476562 L 119.519531 272.214844 L 119.441406 272.949219 L 125.519531 274.414062 L 121.914062 289.167969 L 122.867188 289.367188 L 123.316406 289.460938 L 127.234375 274.5625 L 139.550781 277.046875 L 138.292969 285.015625 L 137.660156 291.503906 L 137.339844 299.472656 L 137.644531 303.898438 L 137.953125 306.699219 L 132.496094 306.265625 L 127.039062 305.683594 L 120.492188 304.214844 L 114.257812 302.601562 L 108.957031 300.839844 L 105.371094 299.367188 Z M 110.578125 256.300781 "/>
<path style=" stroke:none;fill-rule:nonzero;fill:rgb(39.99939%,39.99939%,39.99939%);fill-opacity:0.3;" d="M 140.148438 299.699219 L 140.164062 299.699219 L 140.148438 300.164062 Z M 140.148438 299.699219 "/>
<g clip-path="url(#clip25)" clip-rule="nonzero">
<path style=" stroke:none;fill-rule:nonzero;fill:rgb(39.99939%,39.99939%,39.99939%);fill-opacity:0.3;" d="M 104.734375 314.621094 L 114.578125 317.671875 L 117.152344 305.800781 L 123.355469 306.941406 L 130.097656 308.207031 L 138.992188 309.28125 L 138.171875 332.246094 L 134.246094 331.664062 L 123.421875 326.429688 L 117.46875 325.414062 L 117.332031 330.664062 L 118.210938 330.917969 L 119.089844 331.175781 L 119.5 326.945312 L 122.609375 327.710938 L 130.726562 331.285156 L 133.296875 332.691406 L 138.167969 333.582031 L 137.339844 350.644531 L 137.324219 394.472656 L 98.769531 386.429688 L 101.941406 349.53125 Z M 104.734375 314.621094 "/>
</g>
<g clip-path="url(#clip26)" clip-rule="nonzero">
<path style=" stroke:none;fill-rule:nonzero;fill:rgb(39.99939%,39.99939%,39.99939%);fill-opacity:0.3;" d="M 87.683594 338.628906 L 97.53125 340.148438 L 93.480469 385.417969 L 83.617188 383.714844 Z M 87.683594 338.628906 "/>
</g>
<path style=" stroke:none;fill-rule:nonzero;fill:rgb(39.99939%,39.99939%,39.99939%);fill-opacity:0.3;" d="M 105.460938 302.296875 L 107.957031 302.886719 L 112.011719 304.207031 L 115.597656 304.941406 L 113.089844 316.007812 L 104.046875 313.070312 Z M 105.460938 302.296875 "/>
<path style=" stroke:none;fill-rule:nonzero;fill:rgb(39.99939%,39.99939%,39.99939%);fill-opacity:0.3;" d="M 92.371094 294.144531 L 101.878906 298.707031 L 97.746094 338.3125 L 87.683594 337.015625 Z M 92.371094 294.144531 "/>
<path style=" stroke:none;fill-rule:nonzero;fill:rgb(39.99939%,39.99939%,39.99939%);fill-opacity:0.3;" d="M 65.277344 279.878906 L 80.332031 286.839844 L 76.882812 326.773438 L 56.804688 322.710938 Z M 65.277344 279.878906 "/>
<path style=" stroke:none;fill-rule:nonzero;fill:rgb(39.99939%,39.99939%,39.99939%);fill-opacity:0.3;" d="M 63.644531 278.964844 L 54.5 322.082031 L 47.976562 320.382812 L 47.636719 315.058594 L 51.25 272.769531 Z M 63.644531 278.964844 "/>
<path style=" stroke:none;fill-rule:nonzero;fill:rgb(39.99939%,39.99939%,39.99939%);fill-opacity:0.3;" d="M 83 272.242188 L 76.71875 282.546875 L 51.34375 268.664062 L 51.671875 265.542969 L 78.121094 248.023438 L 79.621094 247.121094 L 81.390625 247.121094 L 82.890625 247.378906 L 84.113281 247.890625 L 85.066406 248.660156 Z M 83 272.242188 "/>
<path style=" stroke:none;fill-rule:nonzero;fill:rgb(39.99939%,39.99939%,39.99939%);fill-opacity:0.3;" d="M 96.546875 252.636719 L 106.992188 254.835938 L 103.5 295.242188 L 93.835938 291.121094 Z M 96.546875 252.636719 "/>
<path style=" stroke:none;fill-rule:nonzero;fill:rgb(39.99939%,39.99939%,39.99939%);fill-opacity:0.3;" d="M 81.917969 243.753906 L 81.234375 245.296875 L 76.839844 245.40625 L 74.082031 246.101562 L 71.691406 247.320312 L 67.734375 249.753906 L 49.144531 262.445312 L 51.011719 232.683594 Z M 81.917969 243.753906 "/>
<path style=" stroke:none;fill-rule:nonzero;fill:rgb(39.99939%,39.99939%,39.99939%);fill-opacity:0.3;" d="M 65.261719 234.820312 L 51.371094 230.257812 L 51.429688 228.777344 L 57.214844 231.824219 Z M 65.261719 234.820312 "/>
<path style=" stroke:none;fill-rule:nonzero;fill:rgb(39.99939%,39.99939%,39.99939%);fill-opacity:0.3;" d="M 92.015625 30.816406 L 161.339844 46.824219 L 157.214844 69.378906 L 90.617188 55.53125 L 87.421875 54.644531 Z M 92.015625 30.816406 "/>
<path style=" stroke:none;fill-rule:nonzero;fill:rgb(39.99939%,39.99939%,39.99939%);fill-opacity:0.3;" d="M 129.246094 13.441406 L 168.472656 22.460938 L 161.066406 44.929688 L 122.757812 34.847656 Z M 129.246094 13.441406 "/>
<path style=" stroke:none;fill-rule:nonzero;fill:rgb(39.99939%,39.99939%,39.99939%);fill-opacity:0.3;" d="M 108.34375 -38.316406 L 129.386719 -33.058594 L 118.6875 8.273438 L 112.371094 6.628906 L 112.011719 8.089844 L 111.597656 9.757812 L 125.800781 13.054688 L 119.316406 34.464844 L 92.035156 28.355469 Z M 108.34375 -38.316406 "/>
<path style=" stroke:none;fill-rule:nonzero;fill:rgb(39.99939%,39.99939%,39.99939%);fill-opacity:0.3;" d="M 196.574219 -23.4375 L 198.398438 -10.351562 L 193.378906 -6.988281 L 186.605469 -2.660156 L 180.082031 2.144531 L 178.101562 3.867188 L 175.382812 7.441406 L 173.300781 10.898438 L 171.285156 16.183594 L 170.839844 16.003906 L 166.976562 1.144531 L 165.492188 -5.265625 L 164.511719 -11.785156 L 163.210938 -23.863281 L 161.867188 -33.039062 L 162.839844 -32.789062 Z M 196.574219 -23.4375 "/>
<path style=" stroke:none;fill-rule:nonzero;fill:rgb(39.99939%,39.99939%,39.99939%);fill-opacity:0.3;" d="M 136.890625 11.828125 L 147.207031 -31.351562 L 160.25 -30.433594 L 162.988281 -12.785156 L 163.96875 -4.886719 L 167.699219 9.390625 L 169.574219 18.976562 L 168.558594 19.460938 L 166.210938 19.46875 Z M 136.890625 11.828125 "/>
<path style=" stroke:none;fill-rule:nonzero;fill:rgb(39.99939%,39.99939%,39.99939%);fill-opacity:0.3;" d="M 134.90625 11.832031 L 121.898438 9.027344 L 132.351562 -32.785156 L 138.214844 -32.433594 L 145.746094 -31.6875 Z M 134.90625 11.832031 "/>
<path style=" stroke:none;fill-rule:nonzero;fill:rgb(39.99939%,39.99939%,39.99939%);fill-opacity:0.3;" d="M 78.070312 51.667969 L 76.234375 48.199219 L 73.125 43.972656 L 68.949219 38.777344 L 63.785156 33.042969 L 64.230469 25.042969 L 89.410156 30.265625 L 85.167969 54.019531 L 84.875 53.9375 Z M 78.070312 51.667969 "/>
<path style=" stroke:none;fill-rule:nonzero;fill:rgb(39.99939%,39.99939%,39.99939%);fill-opacity:0.3;" d="M 65.203125 -1.789062 L 96.203125 5.3125 L 90.25 27.851562 L 63.816406 22.449219 Z M 65.203125 -1.789062 "/>
<path style=" stroke:none;fill-rule:nonzero;fill:rgb(39.99939%,39.99939%,39.99939%);fill-opacity:0.3;" d="M 66.414062 -27.527344 L 102.398438 -20.226562 L 96.46875 3.214844 L 64.761719 -4.269531 Z M 66.414062 -27.527344 "/>
<path style="fill-rule:nonzero;fill:rgb(39.99939%,39.99939%,39.99939%);fill-opacity:1;stroke-width:0.03;stroke-linecap:square;stroke-linejoin:miter;stroke:rgb(39.99939%,39.99939%,39.99939%);stroke-opacity:1;stroke-miterlimit:3.239307;" d="M 260.328125 220.78125 L 284.628906 227.171875 L 275.582031 252.128906 L 252.980469 245.175781 Z M 260.328125 220.78125 " transform="matrix(1,0,0,1,-74,-13)"/>
<path style="fill-rule:nonzero;fill:rgb(39.99939%,39.99939%,39.99939%);fill-opacity:1;stroke-width:0.03;stroke-linecap:square;stroke-linejoin:miter;stroke:rgb(39.99939%,39.99939%,39.99939%);stroke-opacity:1;stroke-miterlimit:3.239307;" d="M 299.644531 193.773438 L 319.800781 199.304688 L 310.855469 232.859375 L 288.804688 226.539062 Z M 299.644531 193.773438 " transform="matrix(1,0,0,1,-74,-13)"/>
<path style="fill-rule:nonzero;fill:rgb(39.99939%,39.99939%,39.99939%);fill-opacity:1;stroke-width:0.03;stroke-linecap:square;stroke-linejoin:miter;stroke:rgb(39.99939%,39.99939%,39.99939%);stroke-opacity:1;stroke-miterlimit:3.239307;" d="M 297.300781 193.132812 L 285.980469 225.945312 L 235.394531 212.246094 L 241.359375 185.742188 L 243.179688 178.300781 Z M 297.300781 193.132812 " transform="matrix(1,0,0,1,-74,-13)"/>
<path style="fill-rule:nonzero;fill:rgb(39.99939%,39.99939%,39.99939%);fill-opacity:1;stroke-width:0.03;stroke-linecap:square;stroke-linejoin:miter;stroke:rgb(39.99939%,39.99939%,39.99939%);stroke-opacity:1;stroke-miterlimit:3.239307;" d="M 303.015625 181.433594 L 323.945312 182.363281 L 319.945312 196.4375 L 299.980469 190.964844 Z M 303.015625 181.433594 " transform="matrix(1,0,0,1,-74,-13)"/>
<path style="fill-rule:nonzero;fill:rgb(39.99939%,39.99939%,39.99939%);fill-opacity:1;stroke-width:0.03;stroke-linecap:square;stroke-linejoin:miter;stroke:rgb(39.99939%,39.99939%,39.99939%);stroke-opacity:1;stroke-miterlimit:3.239307;" d="M 308.316406 162.601562 L 328.253906 166.277344 L 324.25 180.609375 L 303.46875 179.757812 Z M 308.316406 162.601562 " transform="matrix(1,0,0,1,-74,-13)"/>
<path style="fill-rule:nonzero;fill:rgb(39.99939%,39.99939%,39.99939%);fill-opacity:1;stroke-width:0.03;stroke-linecap:square;stroke-linejoin:miter;stroke:rgb(39.99939%,39.99939%,39.99939%);stroke-opacity:1;stroke-miterlimit:3.239307;" d="M 274.628906 156.597656 L 305.277344 161.894531 L 296.699219 189.960938 L 266.757812 180.910156 Z M 274.628906 156.597656 " transform="matrix(1,0,0,1,-74,-13)"/>
<path style="fill-rule:nonzero;fill:rgb(39.99939%,39.99939%,39.99939%);fill-opacity:1;stroke-width:0.03;stroke-linecap:square;stroke-linejoin:miter;stroke:rgb(39.99939%,39.99939%,39.99939%);stroke-opacity:1;stroke-miterlimit:3.239307;" d="M 305.847656 125.359375 L 336.472656 130.941406 L 327.484375 163.535156 L 297.125 158.167969 Z M 305.847656 125.359375 " transform="matrix(1,0,0,1,-74,-13)"/>
<path style="fill-rule:nonzero;fill:rgb(39.99939%,39.99939%,39.99939%);fill-opacity:1;stroke-width:0.03;stroke-linecap:square;stroke-linejoin:miter;stroke:rgb(39.99939%,39.99939%,39.99939%);stroke-opacity:1;stroke-miterlimit:3.239307;" d="M 282.34375 121.039062 L 303.285156 124.816406 L 299.9375 137.117188 L 294.277344 157.910156 L 275.617188 154.46875 L 279.757812 133.902344 Z M 282.34375 121.039062 " transform="matrix(1,0,0,1,-74,-13)"/>
<path style="fill-rule:nonzero;fill:rgb(39.99939%,39.99939%,39.99939%);fill-opacity:1;stroke-width:0.03;stroke-linecap:square;stroke-linejoin:miter;stroke:rgb(39.99939%,39.99939%,39.99939%);stroke-opacity:1;stroke-miterlimit:3.239307;" d="M 218.855469 279.507812 L 271.160156 294.34375 L 269.75 300.839844 L 264.917969 300.554688 L 262.105469 305.429688 L 257.015625 306.128906 L 250.464844 306.734375 L 241.421875 307.785156 L 235.808594 308.679688 L 230.195312 309.425781 L 222.398438 310.324219 L 214.1875 311.203125 L 214.1875 309.933594 L 214.917969 305.46875 L 215.394531 300.160156 L 215.707031 297.820312 L 216.703125 291.339844 L 217.859375 283.25 Z M 218.855469 279.507812 " transform="matrix(1,0,0,1,-74,-13)"/>
<path style="fill-rule:nonzero;fill:rgb(39.99939%,39.99939%,39.99939%);fill-opacity:1;stroke-width:0.03;stroke-linecap:square;stroke-linejoin:miter;stroke:rgb(39.99939%,39.99939%,39.99939%);stroke-opacity:1;stroke-miterlimit:3.239307;" d="M 272.417969 294.632812 L 288.621094 299.46875 L 297.335938 312.433594 L 303.5625 321.570312 L 295.640625 312.777344 L 295.589844 312.710938 L 295.550781 312.679688 L 295.464844 312.585938 L 295.375 312.53125 L 293.703125 311.140625 L 292.554688 310.886719 L 292.195312 310.675781 L 287.832031 309.0625 L 282.066406 307.746094 L 270.378906 305.851562 Z M 272.417969 294.632812 " transform="matrix(1,0,0,1,-74,-13)"/>
<path style="fill-rule:nonzero;fill:rgb(39.99939%,39.99939%,39.99939%);fill-opacity:1;stroke-width:0.03;stroke-linecap:square;stroke-linejoin:miter;stroke:rgb(39.99939%,39.99939%,39.99939%);stroke-opacity:1;stroke-miterlimit:3.239307;" d="M 256.707031 250.601562 L 247.527344 279.890625 L 220.363281 272.050781 L 226.710938 241.480469 Z M 256.707031 250.601562 " transform="matrix(1,0,0,1,-74,-13)"/>
<path style="fill-rule:nonzero;fill:rgb(39.99939%,39.99939%,39.99939%);fill-opacity:1;stroke-width:0.03;stroke-linecap:square;stroke-linejoin:miter;stroke:rgb(39.99939%,39.99939%,39.99939%);stroke-opacity:1;stroke-miterlimit:3.239307;" d="M 258.730469 220.351562 L 251.265625 244.960938 L 228.675781 238.480469 L 234.710938 213.625 Z M 258.730469 220.351562 " transform="matrix(1,0,0,1,-74,-13)"/>
<path style="fill-rule:nonzero;fill:rgb(39.99939%,39.99939%,39.99939%);fill-opacity:1;stroke-width:0.03;stroke-linecap:square;stroke-linejoin:miter;stroke:rgb(39.99939%,39.99939%,39.99939%);stroke-opacity:1;stroke-miterlimit:3.239307;" d="M 272.75 156.558594 L 264.929688 180.832031 L 254.078125 177.628906 L 244.246094 174.730469 L 247.132812 163.9375 L 250.308594 152.058594 Z M 272.75 156.558594 " transform="matrix(1,0,0,1,-74,-13)"/>
<path style="fill-rule:nonzero;fill:rgb(39.99939%,39.99939%,39.99939%);fill-opacity:1;stroke-width:0.03;stroke-linecap:square;stroke-linejoin:miter;stroke:rgb(39.99939%,39.99939%,39.99939%);stroke-opacity:1;stroke-miterlimit:3.239307;" d="M 178.390625 187.3125 L 202.464844 192.675781 L 192.625 228.21875 L 175.316406 223.421875 Z M 178.390625 187.3125 " transform="matrix(1,0,0,1,-74,-13)"/>
<path style="fill-rule:nonzero;fill:rgb(39.99939%,39.99939%,39.99939%);fill-opacity:1;stroke-width:0.03;stroke-linecap:square;stroke-linejoin:miter;stroke:rgb(39.99939%,39.99939%,39.99939%);stroke-opacity:1;stroke-miterlimit:3.239307;" d="M 195.679688 232.621094 L 224.710938 241.003906 L 217.707031 270.949219 L 187.460938 261.207031 Z M 195.679688 232.621094 " transform="matrix(1,0,0,1,-74,-13)"/>
<path style="fill-rule:nonzero;fill:rgb(39.99939%,39.99939%,39.99939%);fill-opacity:1;stroke-width:0.03;stroke-linecap:square;stroke-linejoin:miter;stroke:rgb(39.99939%,39.99939%,39.99939%);stroke-opacity:1;stroke-miterlimit:3.239307;" d="M 210.71875 182.019531 L 237.65625 188.488281 L 233.660156 204.449219 L 225.375 237.542969 L 196.21875 229.238281 L 201.523438 207.441406 L 213.675781 210.171875 L 213.902344 208.898438 L 214.136719 207.613281 L 202.230469 205.441406 L 208.386719 183.015625 Z M 210.71875 182.019531 " transform="matrix(1,0,0,1,-74,-13)"/>
<path style="fill-rule:nonzero;fill:rgb(39.99939%,39.99939%,39.99939%);fill-opacity:1;stroke-width:0.03;stroke-linecap:square;stroke-linejoin:miter;stroke:rgb(39.99939%,39.99939%,39.99939%);stroke-opacity:1;stroke-miterlimit:3.239307;" d="M 179.457031 170.089844 L 200.46875 174.980469 L 205.941406 182.847656 L 203.175781 190.808594 L 178.183594 185.042969 Z M 179.457031 170.089844 " transform="matrix(1,0,0,1,-74,-13)"/>
<path style="fill-rule:nonzero;fill:rgb(39.99939%,39.99939%,39.99939%);fill-opacity:1;stroke-width:0.03;stroke-linecap:square;stroke-linejoin:miter;stroke:rgb(39.99939%,39.99939%,39.99939%);stroke-opacity:1;stroke-miterlimit:3.239307;" d="M 180.558594 146.699219 L 186.222656 154.253906 L 186.527344 158.316406 L 185.128906 161.609375 L 182.113281 169.296875 L 179.265625 168.570312 Z M 180.558594 146.699219 " transform="matrix(1,0,0,1,-74,-13)"/>
<path style="fill-rule:nonzero;fill:rgb(39.99939%,39.99939%,39.99939%);fill-opacity:1;stroke-width:0.03;stroke-linecap:square;stroke-linejoin:miter;stroke:rgb(39.99939%,39.99939%,39.99939%);stroke-opacity:1;stroke-miterlimit:3.239307;" d="M 162.746094 221.78125 L 157.660156 220.421875 L 162.867188 201.488281 Z M 162.746094 221.78125 " transform="matrix(1,0,0,1,-74,-13)"/>
<path style="fill-rule:nonzero;fill:rgb(39.99939%,39.99939%,39.99939%);fill-opacity:1;stroke-width:0.03;stroke-linecap:square;stroke-linejoin:miter;stroke:rgb(39.99939%,39.99939%,39.99939%);stroke-opacity:1;stroke-miterlimit:3.239307;" d="M 155.925781 221.578125 L 161.195312 223.117188 L 157.976562 254.109375 L 148.070312 250.644531 Z M 155.925781 221.578125 " transform="matrix(1,0,0,1,-74,-13)"/>
<path style="fill-rule:nonzero;fill:rgb(39.99939%,39.99939%,39.99939%);fill-opacity:1;stroke-width:0.03;stroke-linecap:square;stroke-linejoin:miter;stroke:rgb(39.99939%,39.99939%,39.99939%);stroke-opacity:1;stroke-miterlimit:3.239307;" d="M 126.527344 213.414062 L 154.105469 221.105469 L 146.46875 250.191406 L 139.261719 247.820312 L 131.214844 244.824219 L 125.429688 241.777344 Z M 126.527344 213.414062 " transform="matrix(1,0,0,1,-74,-13)"/>
<path style="fill-rule:nonzero;fill:rgb(39.99939%,39.99939%,39.99939%);fill-opacity:1;stroke-width:0.03;stroke-linecap:square;stroke-linejoin:miter;stroke:rgb(39.99939%,39.99939%,39.99939%);stroke-opacity:1;stroke-miterlimit:3.239307;" d="M 128.308594 196.539062 L 162.703125 194.507812 L 155.90625 219.886719 L 127.554688 211.664062 Z M 128.308594 196.539062 " transform="matrix(1,0,0,1,-74,-13)"/>
<path style="fill-rule:nonzero;fill:rgb(39.99939%,39.99939%,39.99939%);fill-opacity:1;stroke-width:0.03;stroke-linecap:square;stroke-linejoin:miter;stroke:rgb(39.99939%,39.99939%,39.99939%);stroke-opacity:1;stroke-miterlimit:3.239307;" d="M 129.300781 173.34375 L 134.894531 176.820312 L 138.894531 178.457031 L 143.964844 180.21875 L 148.898438 181.222656 L 157.964844 182.859375 L 161.699219 183.359375 L 163.828125 184.363281 L 165.421875 185.996094 L 164.867188 192.152344 L 128.835938 194.292969 Z M 129.300781 173.34375 " transform="matrix(1,0,0,1,-74,-13)"/>
<path style="fill-rule:nonzero;fill:rgb(39.99939%,39.99939%,39.99939%);fill-opacity:1;stroke-width:0.03;stroke-linecap:square;stroke-linejoin:miter;stroke:rgb(39.99939%,39.99939%,39.99939%);stroke-opacity:1;stroke-miterlimit:3.239307;" d="M 131.269531 130.574219 L 165.988281 136.839844 L 166.703125 152.011719 L 165.824219 169.554688 L 164.714844 181.730469 L 160.847656 181.355469 L 152.847656 180.222656 L 148.046875 179.21875 L 144.042969 178.589844 L 139.777344 177.207031 L 133.910156 174.5625 L 131.640625 173.304688 L 128.597656 171.40625 Z M 131.269531 130.574219 " transform="matrix(1,0,0,1,-74,-13)"/>
<path style="fill-rule:nonzero;fill:rgb(39.99939%,39.99939%,39.99939%);fill-opacity:1;stroke-width:0.03;stroke-linecap:square;stroke-linejoin:miter;stroke:rgb(39.99939%,39.99939%,39.99939%);stroke-opacity:1;stroke-miterlimit:3.239307;" d="M 134.816406 64.429688 L 141.339844 72.816406 L 147.398438 81.734375 L 149.253906 84.761719 L 152.128906 90.976562 L 156.019531 99.109375 L 159.933594 110.121094 L 163.179688 120.5 L 165.527344 135.402344 L 131.902344 128.921875 L 133.941406 80.234375 L 134.046875 79.824219 Z M 134.816406 64.429688 " transform="matrix(1,0,0,1,-74,-13)"/>
<path style="fill-rule:nonzero;fill:rgb(39.99939%,39.99939%,39.99939%);fill-opacity:1;stroke-width:0.03;stroke-linecap:square;stroke-linejoin:miter;stroke:rgb(39.99939%,39.99939%,39.99939%);stroke-opacity:1;stroke-miterlimit:3.239307;" d="M 188.839844 158.175781 L 197.148438 171.742188 L 185.230469 169.460938 L 184.488281 168.859375 L 184.578125 167.953125 L 187.199219 162.09375 Z M 188.839844 158.175781 " transform="matrix(1,0,0,1,-74,-13)"/>
<path style="fill-rule:nonzero;fill:rgb(39.99939%,39.99939%,39.99939%);fill-opacity:1;stroke-width:0.03;stroke-linecap:square;stroke-linejoin:miter;stroke:rgb(39.99939%,39.99939%,39.99939%);stroke-opacity:1;stroke-miterlimit:3.239307;" d="M 174.679688 227.203125 L 192.253906 231.835938 L 184.117188 260.003906 L 171.695312 256.3125 Z M 174.679688 227.203125 " transform="matrix(1,0,0,1,-74,-13)"/>
<path style="fill-rule:nonzero;fill:rgb(39.99939%,39.99939%,39.99939%);fill-opacity:1;stroke-width:0.03;stroke-linecap:square;stroke-linejoin:miter;stroke:rgb(39.99939%,39.99939%,39.99939%);stroke-opacity:1;stroke-miterlimit:3.239307;" d="M 158.738281 67.027344 L 152.722656 65.910156 L 152.070312 64.667969 L 158.875 66.9375 Z M 158.738281 67.027344 " transform="matrix(1,0,0,1,-74,-13)"/>
<path style="fill-rule:nonzero;fill:rgb(39.99939%,39.99939%,39.99939%);fill-opacity:1;stroke-width:0.03;stroke-linecap:square;stroke-linejoin:miter;stroke:rgb(39.99939%,39.99939%,39.99939%);stroke-opacity:1;stroke-miterlimit:3.239307;" d="M 280.183594 120.519531 L 273.203125 153.6875 L 251.886719 149.945312 L 251.585938 149.054688 L 255.769531 126.957031 L 253.207031 126.554688 L 255.6875 116.074219 Z M 280.183594 120.519531 " transform="matrix(1,0,0,1,-74,-13)"/>
<path style="fill-rule:nonzero;fill:rgb(39.99939%,39.99939%,39.99939%);fill-opacity:1;stroke-width:0.03;stroke-linecap:square;stroke-linejoin:miter;stroke:rgb(39.99939%,39.99939%,39.99939%);stroke-opacity:1;stroke-miterlimit:3.239307;" d="M 261.828125 84.808594 L 288.886719 89.386719 L 346.351562 99.105469 L 337.792969 128.929688 L 283.078125 118.289062 L 256.289062 113.078125 L 259.125 98.597656 Z M 261.828125 84.808594 " transform="matrix(1,0,0,1,-74,-13)"/>
<path style="fill-rule:nonzero;fill:rgb(39.99939%,39.99939%,39.99939%);fill-opacity:1;stroke-width:0.03;stroke-linecap:square;stroke-linejoin:miter;stroke:rgb(39.99939%,39.99939%,39.99939%);stroke-opacity:1;stroke-miterlimit:3.239307;" d="M 288.835938 86.660156 L 288.808594 86.785156 L 280.21875 85.257812 Z M 288.835938 86.660156 " transform="matrix(1,0,0,1,-74,-13)"/>
<path style="fill-rule:nonzero;fill:rgb(39.99939%,39.99939%,39.99939%);fill-opacity:1;stroke-width:0.03;stroke-linecap:square;stroke-linejoin:miter;stroke:rgb(39.99939%,39.99939%,39.99939%);stroke-opacity:1;stroke-miterlimit:3.239307;" d="M 277.898438 256.226562 L 281.984375 257.730469 L 286.335938 259.441406 L 290.375 261.199219 L 294.59375 263.332031 L 297.578125 264.855469 L 300.589844 266.597656 L 293.128906 292.347656 L 291.335938 292.511719 L 273.210938 270.542969 Z M 277.898438 256.226562 " transform="matrix(1,0,0,1,-74,-13)"/>
<path style="fill-rule:nonzero;fill:rgb(39.99939%,39.99939%,39.99939%);fill-opacity:1;stroke-width:0.03;stroke-linecap:square;stroke-linejoin:miter;stroke:rgb(39.99939%,39.99939%,39.99939%);stroke-opacity:1;stroke-miterlimit:3.239307;" d="M 258.941406 251.214844 L 275.046875 255.933594 L 270.011719 270.046875 L 289.496094 294.152344 L 250.042969 280.414062 Z M 258.941406 251.214844 " transform="matrix(1,0,0,1,-74,-13)"/>
<path style="fill-rule:nonzero;fill:rgb(39.99939%,39.99939%,39.99939%);fill-opacity:1;stroke-width:0.03;stroke-linecap:square;stroke-linejoin:miter;stroke:rgb(39.99939%,39.99939%,39.99939%);stroke-opacity:1;stroke-miterlimit:3.239307;" d="M 287.933594 228.113281 L 310.105469 234.449219 L 301.320312 264.976562 L 296.746094 262.421875 L 290.792969 259.570312 L 285.765625 257.417969 L 281.871094 255.730469 L 278.273438 254.351562 Z M 287.933594 228.113281 " transform="matrix(1,0,0,1,-74,-13)"/>
<path style=" stroke:none;fill-rule:evenodd;fill:rgb(85.096741%,85.096741%,81.959534%);fill-opacity:0.7;" d="M 220.570312 340 C 220.570312 336.664062 219.246094 333.46875 216.890625 331.109375 C 214.53125 328.753906 211.335938 327.429688 208 327.429688 C 204.664062 327.429688 201.46875 328.753906 199.109375 331.109375 C 196.753906 333.46875 195.429688 336.664062 195.429688 340 C 195.429688 343.335938 196.753906 346.53125 199.109375 348.890625 C 201.46875 351.246094 204.664062 352.570312 208 352.570312 C 211.335938 352.570312 214.53125 351.246094 216.890625 348.890625 C 219.246094 346.53125 220.570312 343.335938 220.570312 340 Z M 220.570312 340 "/>
<path style=" stroke:none;fill-rule:evenodd;fill:rgb(85.096741%,85.096741%,81.959534%);fill-opacity:0.7;" d="M 316.570312 279 C 316.570312 275.664062 315.246094 272.46875 312.890625 270.109375 C 310.53125 267.753906 307.335938 266.429688 304 266.429688 C 300.664062 266.429688 297.46875 267.753906 295.109375 270.109375 C 292.753906 272.46875 291.429688 275.664062 291.429688 279 C 291.429688 282.335938 292.753906 285.53125 295.109375 287.890625 C 297.46875 290.246094 300.664062 291.570312 304 291.570312 C 307.335938 291.570312 310.53125 290.246094 312.890625 287.890625 C 315.246094 285.53125 316.570312 282.335938 316.570312 279 Z M 316.570312 279 "/>
<path style=" stroke:none;fill-rule:evenodd;fill:rgb(85.096741%,85.096741%,81.959534%);fill-opacity:0.7;" d="M 124.570312 237 C 124.570312 233.664062 123.246094 230.46875 120.890625 228.109375 C 118.53125 225.753906 115.335938 224.429688 112 224.429688 C 108.664062 224.429688 105.46875 225.753906 103.109375 228.109375 C 100.753906 230.46875 99.429688 233.664062 99.429688 237 C 99.429688 240.335938 100.753906 243.53125 103.109375 245.890625 C 105.46875 248.246094 108.664062 249.570312 112 249.570312 C 115.335938 249.570312 118.53125 248.246094 120.890625 245.890625 C 123.246094 243.53125 124.570312 240.335938 124.570312 237 Z M 124.570312 237 "/>
<path style=" stroke:none;fill-rule:evenodd;fill:rgb(85.096741%,85.096741%,81.959534%);fill-opacity:0.7;" d="M 255.570312 120 C 255.570312 116.664062 254.246094 113.46875 251.890625 111.109375 C 249.53125 108.753906 246.335938 107.429688 243 107.429688 C 239.664062 107.429688 236.46875 108.753906 234.109375 111.109375 C 231.753906 113.46875 230.429688 116.664062 230.429688 120 C 230.429688 123.335938 231.753906 126.53125 234.109375 128.890625 C 236.46875 131.246094 239.664062 132.570312 243 132.570312 C 246.335938 132.570312 249.53125 131.246094 251.890625 128.890625 C 254.246094 126.53125 255.570312 123.335938 255.570312 120 Z M 255.570312 120 "/>
<path style=" stroke:none;fill-rule:evenodd;fill:rgb(85.096741%,85.096741%,81.959534%);fill-opacity:0.7;" d="M 15.570312 79 C 15.570312 75.664062 14.246094 72.46875 11.890625 70.109375 C 9.53125 67.753906 6.335938 66.429688 3 66.429688 C -0.335938 66.429688 -3.53125 67.753906 -5.890625 70.109375 C -8.246094 72.46875 -9.570312 75.664062 -9.570312 79 C -9.570312 82.335938 -8.246094 85.53125 -5.890625 87.890625 C -3.53125 90.246094 -0.335938 91.570312 3 91.570312 C 6.335938 91.570312 9.53125 90.246094 11.890625 87.890625 C 14.246094 85.53125 15.570312 82.335938 15.570312 79 Z M 15.570312 79 "/>
<path style=" stroke:none;fill-rule:evenodd;fill:rgb(85.096741%,85.096741%,81.959534%);fill-opacity:0.7;" d="M 260.570312 309 C 260.570312 305.664062 259.246094 302.46875 256.890625 300.109375 C 254.53125 297.753906 251.335938 296.429688 248 296.429688 C 244.664062 296.429688 241.46875 297.753906 239.109375 300.109375 C 236.753906 302.46875 235.429688 305.664062 235.429688 309 C 235.429688 312.335938 236.753906 315.53125 239.109375 317.890625 C 241.46875 320.246094 244.664062 321.570312 248 321.570312 C 251.335938 321.570312 254.53125 320.246094 256.890625 317.890625 C 259.246094 315.53125 260.570312 312.335938 260.570312 309 Z M 260.570312 309 "/>
<g clip-path="url(#clip27)" clip-rule="nonzero">
<path style=" stroke:none;fill-rule:evenodd;fill:rgb(85.096741%,85.096741%,81.959534%);fill-opacity:0.7;" d="M 384.570312 275 C 384.570312 271.664062 383.246094 268.46875 380.890625 266.109375 C 378.53125 263.753906 375.335938 262.429688 372 262.429688 C 368.664062 262.429688 365.46875 263.753906 363.109375 266.109375 C 360.753906 268.46875 359.429688 271.664062 359.429688 275 C 359.429688 278.335938 360.753906 281.53125 363.109375 283.890625 C 365.46875 286.246094 368.664062 287.570312 372 287.570312 C 375.335938 287.570312 378.53125 286.246094 380.890625 283.890625 C 383.246094 281.53125 384.570312 278.335938 384.570312 275 Z M 384.570312 275 "/>
</g>
<path style="fill-rule:nonzero;fill:rgb(99.998474%,99.998474%,30.587769%);fill-opacity:0.8;stroke-width:0.288;stroke-linecap:square;stroke-linejoin:miter;stroke:rgb(0%,0%,0%);stroke-opacity:0.8;stroke-miterlimit:3.25;" d="M 95.703125 126.023438 L 68.484375 173.167969 L 122.921875 173.167969 Z M 95.703125 126.023438 " transform="matrix(1,0,0,1,-74,-13)"/>
</g>
</svg>
