<?xml version="1.0" encoding="UTF-8"?>
<svg xmlns="http://www.w3.org/2000/svg" xmlns:xlink="http://www.w3.org/1999/xlink" width="361pt" height="361pt" viewBox="0 0 361 361" version="1.1">
<defs>
<clipPath id="clip1">
  <path d="M 217 0 L 360 0 L 360 38 L 217 38 Z M 217 0 "/>
</clipPath>
<clipPath id="clip2">
  <path d="M 326 121 L 360 121 L 360 360 L 326 360 Z M 326 121 "/>
</clipPath>
<clipPath id="clip3">
  <path d="M 0 350 L 46 350 L 46 360 L 0 360 Z M 0 350 "/>
</clipPath>
<clipPath id="clip4">
  <path d="M 0 341 L 1 341 L 1 360 L 0 360 Z M 0 341 "/>
</clipPath>
<clipPath id="clip5">
  <path d="M 245 40 L 360 40 L 360 257 L 245 257 Z M 245 40 "/>
</clipPath>
<clipPath id="clip6">
  <path d="M 0 339 L 148 339 L 148 360 L 0 360 Z M 0 339 "/>
</clipPath>
<clipPath id="clip7">
  <path d="M 150 272 L 328 272 L 328 360 L 150 360 Z M 150 272 "/>
</clipPath>
<clipPath id="clip8">
  <path d="M 141 306 L 337 306 L 337 360 L 141 360 Z M 141 306 "/>
</clipPath>
<clipPath id="clip9">
  <path d="M 56 329 L 90 329 L 90 360 L 56 360 Z M 56 329 "/>
</clipPath>
</defs>
<g id="surface1967">
<path style="fill-rule:nonzero;fill:rgb(0%,0%,0%);fill-opacity:1;stroke-width:0.03;stroke-linecap:square;stroke-linejoin:miter;stroke:rgb(0%,0%,0%);stroke-opacity:1;stroke-miterlimit:10;" d="M 0 178 L 360 178 L 360 -182 L 0 -182 Z M 0 178 " transform="matrix(1,0,0,1,0,182)"/>
<path style=" stroke:none;fill-rule:nonzero;fill:rgb(39.99939%,39.99939%,39.99939%);fill-opacity:0.3;" d="M 28.621094 2.773438 L 28.253906 -3.878906 L 30.851562 -4.125 L 31.101562 -1.550781 L 33.015625 -1.46875 L 32.820312 -4.449219 L 35.769531 -4.453125 L 36.066406 2.351562 L 33.429688 2.410156 L 33.171875 -0.207031 L 31.296875 -0.226562 L 31.539062 2.6875 Z M 28.621094 2.773438 "/>
<path style=" stroke:none;fill-rule:nonzero;fill:rgb(39.99939%,39.99939%,39.99939%);fill-opacity:0.3;" d="M 14.769531 10.976562 L 14.40625 4.328125 L 17.003906 4.078125 L 17.25 6.652344 L 19.167969 6.734375 L 18.96875 3.753906 L 21.921875 3.75 L 22.21875 10.554688 L 19.582031 10.613281 L 19.320312 7.996094 L 17.449219 7.976562 L 17.691406 10.890625 Z M 14.769531 10.976562 "/>
<path style=" stroke:none;fill-rule:nonzero;fill:rgb(39.99939%,39.99939%,39.99939%);fill-opacity:0.3;" d="M 15.617188 19.421875 L 15.253906 12.773438 L 17.847656 12.527344 L 18.097656 15.101562 L 20.015625 15.179688 L 19.816406 12.199219 L 22.769531 12.199219 L 23.066406 19.003906 L 20.429688 19.058594 L 20.167969 16.441406 L 18.296875 16.421875 L 18.535156 19.339844 Z M 15.617188 19.421875 "/>
<path style=" stroke:none;fill-rule:nonzero;fill:rgb(39.99939%,39.99939%,39.99939%);fill-opacity:0.3;" d="M 6.21875 29.988281 L 6.09375 25.382812 L 12.402344 25.148438 L 12.527344 29.984375 Z M 6.21875 29.988281 "/>
<path style=" stroke:none;fill-rule:nonzero;fill:rgb(39.99939%,39.99939%,39.99939%);fill-opacity:0.3;" d="M 7.074219 37.820312 L 6.949219 33.097656 L 12.773438 33.09375 L 12.898438 38.164062 Z M 7.074219 37.820312 "/>
<path style=" stroke:none;fill-rule:nonzero;fill:rgb(39.99939%,39.99939%,39.99939%);fill-opacity:0.3;" d="M -88.1875 -216.308594 L -28.097656 -207.960938 L -26.027344 -207.179688 L -24.789062 -206.003906 L -23.960938 -204.433594 L 1.738281 45.167969 L -32.578125 36.773438 L -32.796875 34.59375 L -32.921875 32.128906 L -38.265625 -20.300781 L -47.738281 -115.34375 L -39.992188 -112.871094 L -40.128906 -114.917969 L -40.265625 -116.960938 L -48.058594 -119.527344 L -55.15625 -192.050781 L -55.425781 -192.089844 L -55.429688 -192.121094 L -56.125 -192.183594 L -107.648438 -199.21875 L -103.210938 -214.953125 L -99.792969 -215.660156 L -94.289062 -216.230469 Z M -88.1875 -216.308594 "/>
<path style=" stroke:none;fill-rule:nonzero;fill:rgb(39.99939%,39.99939%,39.99939%);fill-opacity:0.3;" d="M 103.960938 43.582031 L 103.921875 43.585938 L 102.839844 37.304688 L 102.988281 38.074219 Z M 103.960938 43.582031 "/>
<path style=" stroke:none;fill-rule:nonzero;fill:rgb(39.99939%,39.99939%,39.99939%);fill-opacity:0.3;" d="M 30.878906 -195.726562 L 31.878906 -197.078125 L 33.457031 -197.730469 L 41.429688 -197.265625 L 59.765625 -198.257812 L 86.492188 -42.519531 L 76.777344 -41.332031 L 77.097656 -38.910156 L 77.402344 -36.628906 L 87.734375 -37.621094 L 101.683594 43.71875 L 55.59375 46.117188 Z M 30.878906 -195.726562 "/>
<path style=" stroke:none;fill-rule:nonzero;fill:rgb(39.99939%,39.99939%,39.99939%);fill-opacity:0.3;" d="M -21.066406 -204.632812 L -20.859375 -205.8125 L -20.035156 -206.59375 L -17.554688 -206.597656 L 25.652344 -198.601562 L 27.101562 -197.625 L 28.34375 -196.253906 L 28.757812 -194.488281 L 52.496094 46.121094 L 32.242188 47.90625 L 15.5 48.511719 L 4.542969 46.171875 Z M -21.066406 -204.632812 "/>
<path style=" stroke:none;fill-rule:nonzero;fill:rgb(39.99939%,39.99939%,39.99939%);fill-opacity:0.3;" d="M 71.082031 15.355469 L 70.871094 8.78125 L 78.414062 7.894531 L 78.832031 15.152344 L 76.042969 14.859375 L 75.730469 12.507812 L 74.179688 12.507812 L 74.390625 15.449219 Z M 71.082031 15.355469 "/>
<path style=" stroke:none;fill-rule:nonzero;fill:rgb(39.99939%,39.99939%,39.99939%);fill-opacity:0.3;" d="M 55.480469 17.03125 L 55.0625 10.753906 L 62.8125 10.0625 L 63.332031 16.242188 L 60.023438 16.539062 L 59.714844 15.164062 L 58.269531 15.460938 L 58.371094 17.128906 Z M 55.480469 17.03125 "/>
<path style=" stroke:none;fill-rule:nonzero;fill:rgb(39.99939%,39.99939%,39.99939%);fill-opacity:0.3;" d="M 206.03125 -52.722656 L 224.199219 -54.304688 L 230.972656 37.230469 L 213.167969 38.25 Z M 206.03125 -52.722656 "/>
<path style=" stroke:none;fill-rule:nonzero;fill:rgb(39.99939%,39.99939%,39.99939%);fill-opacity:0.3;" d="M 185.492188 -51.476562 L 203.691406 -52.5 L 211.058594 38.25 L 192.257812 39.445312 Z M 185.492188 -51.476562 "/>
<path style=" stroke:none;fill-rule:nonzero;fill:rgb(39.99939%,39.99939%,39.99939%);fill-opacity:0.3;" d="M 162.433594 5.660156 L 185.761719 3.46875 L 188.480469 39.125 L 168.671875 40.308594 Z M 162.433594 5.660156 "/>
<path style=" stroke:none;fill-rule:nonzero;fill:rgb(39.99939%,39.99939%,39.99939%);fill-opacity:0.3;" d="M 134.898438 -22.796875 L 153.339844 -25.386719 L 164.527344 40.515625 L 145.875 41.472656 Z M 134.898438 -22.796875 "/>
<path style=" stroke:none;fill-rule:nonzero;fill:rgb(39.99939%,39.99939%,39.99939%);fill-opacity:0.3;" d="M 114.570312 -19.683594 L 132.878906 -22.390625 L 143.769531 41.601562 L 125.445312 42.824219 Z M 114.570312 -19.683594 "/>
<path style=" stroke:none;fill-rule:nonzero;fill:rgb(39.99939%,39.99939%,39.99939%);fill-opacity:0.3;" d="M 93.519531 -16.738281 L 112.070312 -19.128906 L 122.792969 42.972656 L 103.960938 43.582031 L 102.988281 38.074219 L 102.839844 37.304688 Z M 93.519531 -16.738281 "/>
<path style=" stroke:none;fill-rule:nonzero;fill:rgb(39.99939%,39.99939%,39.99939%);fill-opacity:0.3;" d="M 130.113281 -175.6875 L 173.285156 -161.714844 L 185.492188 0.394531 L 161.953125 2.6875 Z M 130.113281 -175.6875 "/>
<g clip-path="url(#clip1)" clip-rule="nonzero">
<path style=" stroke:none;fill-rule:nonzero;fill:rgb(39.99939%,39.99939%,39.99939%);fill-opacity:0.3;" d="M 226.402344 -53.46875 L 231.464844 -53.789062 L 231.332031 -55.976562 L 231.203125 -58.03125 L 226.03125 -57.851562 L 220.921875 -147.042969 L 228.410156 -148.382812 L 228.050781 -151.980469 L 227.703125 -155.484375 L 220.449219 -153.703125 L 217.476562 -191.800781 L 379.636719 -157.742188 L 379.429688 -155.421875 L 362.964844 29.058594 L 361.855469 30.265625 L 360.144531 30.832031 L 319.988281 32.84375 L 302.804688 33.707031 L 244.507812 36.589844 L 244.949219 12.933594 L 256.09375 13.964844 L 256.234375 8.636719 L 242.15625 7.78125 L 242.441406 36.660156 L 233.097656 37.078125 Z M 226.402344 -53.46875 "/>
</g>
<g clip-path="url(#clip2)" clip-rule="nonzero">
<path style=" stroke:none;fill-rule:nonzero;fill:rgb(39.99939%,39.99939%,39.99939%);fill-opacity:0.3;" d="M 599.371094 528.351562 L 593.9375 580.1875 L 596.210938 581.820312 L 597.75 583.160156 L 598.980469 585.960938 L 598.609375 589.117188 L 597.613281 591.0625 L 597.195312 591.570312 L 594.925781 593.253906 L 592.222656 593.894531 L 589.003906 633.125 L 588.777344 635.617188 L 513.21875 624.464844 L 500.199219 622.476562 L 498.789062 622.226562 L 494.777344 621.398438 L 490.835938 620.835938 L 468.664062 616.957031 L 461.625 616.703125 L 447.546875 614.476562 L 436.632812 613.558594 L 410.898438 612.953125 L 366.023438 612.773438 L 350.757812 612.710938 L 326.433594 611.835938 L 326.433594 609.648438 L 332.734375 552.332031 L 335.238281 514.601562 L 350.554688 397.414062 L 367.449219 369.757812 L 368.929688 366.589844 L 369.183594 363.152344 L 367.21875 359.550781 L 363.875 353.871094 L 361.949219 350.929688 L 360.257812 347.53125 L 359.050781 343.222656 L 356.882812 340.964844 L 340.507812 332.449219 L 335.691406 328.167969 L 332.3125 323.199219 L 330.378906 316.855469 L 330.6875 310.738281 L 331.074219 304.8125 L 334.558594 293.613281 L 337.070312 287.96875 L 339.1875 283.597656 L 341.921875 279.566406 L 342.8125 276.714844 L 343.464844 270.125 L 344.15625 265.785156 L 345.070312 260.960938 L 346.816406 257.605469 L 350.105469 254.675781 L 353.492188 252.148438 L 361.46875 247.824219 L 370.234375 243.476562 L 379.484375 239.261719 L 387.292969 235.929688 L 417.375 228.617188 L 441.652344 222.613281 L 459.859375 218.183594 L 476.976562 211.320312 L 493.027344 203.960938 L 526.414062 188.65625 L 561.191406 174.304688 L 607.578125 154.6875 L 683.5625 122.964844 L 687.039062 121.941406 L 700.335938 129.113281 L 732.6875 144.917969 L 738.167969 147.488281 L 742.410156 148.425781 L 747 148.78125 L 751.054688 148.96875 L 753.394531 148.75 L 755.140625 148.457031 L 757.011719 147.746094 L 758.171875 147.414062 L 756.085938 157.554688 L 758.402344 161.90625 L 758.320312 163.789062 L 760.019531 166.535156 L 761.960938 172.550781 L 766.734375 186.535156 L 769.824219 198.410156 L 771.15625 209.902344 L 771.929688 216.460938 L 772.324219 226.070312 L 771.628906 235.046875 L 769.683594 242.359375 L 766.171875 246.535156 L 761.988281 250.507812 L 756.527344 252.261719 L 755.195312 253.582031 L 754.496094 253.828125 L 753.335938 255.425781 L 750.734375 258.003906 L 743.878906 272.359375 L 735.902344 282.410156 L 726.917969 289.691406 L 716.160156 294.800781 L 715.183594 295.597656 L 699.285156 297.148438 L 700.476562 314.636719 L 698.070312 318.273438 L 701.941406 320.933594 L 709.902344 350.238281 L 702.679688 354.484375 L 702.679688 361.703125 L 705.230469 368.074219 L 707.777344 372.320312 L 706.929688 378.269531 L 716.273438 379.96875 L 713.113281 385.890625 L 711.417969 387.398438 L 708.203125 389.734375 L 691.214844 402.050781 L 686.117188 407.996094 L 680.171875 416.066406 L 676.773438 422.4375 L 670.402344 440.277344 L 669.128906 447.070312 L 668.28125 449.820312 L 664.976562 457.320312 L 654.566406 477.378906 L 649.75 484.5 L 639.355469 496.316406 L 627.492188 505.8125 L 609.445312 520.277344 L 599.902344 526.492188 L 599.78125 528.027344 Z M 599.371094 528.351562 "/>
</g>
<path style=" stroke:none;fill-rule:nonzero;fill:rgb(39.99939%,39.99939%,39.99939%);fill-opacity:0.3;" d="M -68.21875 37.574219 L 0.242188 54.269531 L -19.027344 163.675781 L -18.90625 162.9375 L -18.480469 159.117188 L -16.78125 145.949219 L -15.933594 141.277344 L -14.234375 133.632812 L -12.957031 124.714844 L -11.261719 114.523438 L -8.710938 98.382812 L -15.507812 97.535156 L -22.300781 96.257812 L -33.34375 94.136719 L -44.8125 92.4375 L -43.960938 87.339844 L -54.582031 82.242188 L -69.871094 79.269531 L -71.144531 86.492188 L -88.578125 83.351562 L -80.402344 34.601562 Z M -68.21875 37.574219 "/>
<path style=" stroke:none;fill-rule:nonzero;fill:rgb(39.99939%,39.99939%,39.99939%);fill-opacity:0.3;" d="M 51.429688 292.34375 L -31.089844 276.683594 L -14.003906 162.625 L 4.65625 55.429688 L 19.117188 57.976562 L 44.691406 58.015625 L 32.378906 134.753906 L 33.378906 134.859375 L 34.34375 134.957031 L 47.769531 57.921875 L 92.726562 55.890625 L 67.773438 177.386719 L 70.59375 181.503906 L 68.585938 181.203125 L 68.160156 192.246094 L 66.460938 207.535156 L 64.339844 218.578125 L 53.722656 279.734375 Z M 51.429688 292.34375 "/>
<path style=" stroke:none;fill-rule:nonzero;fill:rgb(39.99939%,39.99939%,39.99939%);fill-opacity:0.3;" d="M 73.378906 181.921875 L 73.398438 181.785156 L 82.414062 183.28125 Z M 73.378906 181.921875 "/>
<path style=" stroke:none;fill-rule:nonzero;fill:rgb(39.99939%,39.99939%,39.99939%);fill-opacity:0.3;" d="M 119.640625 188.828125 L 119.625 188.546875 L 119.523438 186.8125 L 72.144531 178.304688 L 95.527344 54.839844 L 105.871094 54.34375 L 114.453125 111.972656 L 125.675781 170.96875 L 128.980469 190.074219 Z M 119.640625 188.828125 "/>
<g clip-path="url(#clip3)" clip-rule="nonzero">
<path style=" stroke:none;fill-rule:nonzero;fill:rgb(39.99939%,39.99939%,39.99939%);fill-opacity:0.3;" d="M -47.589844 373.070312 L 5.160156 350.417969 L 45.792969 357.863281 L -37.410156 392.339844 Z M -47.589844 373.070312 "/>
</g>
<g clip-path="url(#clip4)" clip-rule="nonzero">
<path style=" stroke:none;fill-rule:nonzero;fill:rgb(39.99939%,39.99939%,39.99939%);fill-opacity:0.3;" d="M -46.519531 369.984375 L -41.292969 341.117188 L 0.445312 349.503906 Z M -46.519531 369.984375 "/>
</g>
<path style=" stroke:none;fill-rule:nonzero;fill:rgb(39.99939%,39.99939%,39.99939%);fill-opacity:0.3;" d="M 50.964844 294.996094 L 53.875 295.542969 L 44.058594 355.574219 L 42.6875 355.304688 L 43.953125 351.9375 L 45.226562 330.699219 L 49.898438 301.394531 Z M 50.964844 294.996094 "/>
<path style=" stroke:none;fill-rule:nonzero;fill:rgb(39.99939%,39.99939%,39.99939%);fill-opacity:0.3;" d="M 51.207031 326.667969 L 56.652344 296.074219 L 103.195312 304.839844 Z M 51.207031 326.667969 "/>
<path style=" stroke:none;fill-rule:nonzero;fill:rgb(39.99939%,39.99939%,39.99939%);fill-opacity:0.3;" d="M 46.648438 357.273438 L 50.414062 331.578125 L 109.835938 306.074219 L 141.179688 311.949219 L 145.808594 314.519531 Z M 46.648438 357.273438 "/>
<path style=" stroke:none;fill-rule:nonzero;fill:rgb(39.99939%,39.99939%,39.99939%);fill-opacity:0.3;" d="M 2.292969 347.40625 L 11.835938 287.640625 L 31.269531 291.308594 L 21.453125 351.152344 Z M 2.292969 347.40625 "/>
<path style=" stroke:none;fill-rule:nonzero;fill:rgb(39.99939%,39.99939%,39.99939%);fill-opacity:0.3;" d="M 24.808594 351.808594 L 34.402344 291.871094 L 50.964844 294.996094 L 49.898438 301.394531 L 45.226562 330.699219 L 43.953125 351.9375 L 42.6875 355.304688 Z M 24.808594 351.808594 "/>
<path style=" stroke:none;fill-rule:nonzero;fill:rgb(39.99939%,39.99939%,39.99939%);fill-opacity:0.3;" d="M -18.59375 343.316406 L -9.617188 283.609375 L 10.027344 287.316406 L -0.207031 346.917969 Z M -18.59375 343.316406 "/>
<path style=" stroke:none;fill-rule:nonzero;fill:rgb(39.99939%,39.99939%,39.99939%);fill-opacity:0.3;" d="M 189.417969 95.453125 L 187.140625 95.484375 L 187.203125 93.507812 L 184.898438 93.539062 L 185.042969 101.511719 L 182.761719 101.542969 L 182.726562 99.851562 L 180.421875 99.882812 L 180.460938 101.574219 L 178.230469 101.605469 L 178.074219 95.324219 L 180.355469 95.292969 L 180.390625 97.078125 L 182.695312 97.046875 L 182.550781 88.976562 L 184.832031 88.945312 L 184.867188 91.398438 L 187.171875 91.367188 L 187.132812 88.914062 L 189.414062 88.882812 Z M 189.417969 95.453125 "/>
<path style=" stroke:none;fill-rule:nonzero;fill:rgb(39.99939%,39.99939%,39.99939%);fill-opacity:0.3;" d="M 182.636719 79.839844 L 184.914062 79.796875 L 184.964844 82.25 L 187.269531 82.207031 L 187.21875 79.753906 L 189.496094 79.710938 L 189.644531 86.757812 L 187.367188 86.800781 L 187.3125 84.347656 L 185.011719 84.390625 L 185.0625 86.84375 L 182.78125 86.886719 Z M 182.636719 79.839844 "/>
<path style=" stroke:none;fill-rule:nonzero;fill:rgb(39.99939%,39.99939%,39.99939%);fill-opacity:0.3;" d="M 188.355469 198.375 L 190.632812 198.332031 L 190.683594 200.785156 L 192.988281 200.742188 L 192.9375 198.289062 L 195.214844 198.246094 L 195.363281 204.703125 L 193.085938 204.746094 L 193.035156 202.878906 L 190.730469 202.921875 L 190.78125 204.789062 L 188.5 204.832031 Z M 188.355469 198.375 "/>
<path style=" stroke:none;fill-rule:nonzero;fill:rgb(39.99939%,39.99939%,39.99939%);fill-opacity:0.3;" d="M 187.425781 186.28125 L 189.707031 186.238281 L 189.757812 188.695312 L 192.058594 188.648438 L 192.007812 186.195312 L 194.289062 186.152344 L 194.433594 192.445312 L 192.15625 192.488281 L 192.105469 190.789062 L 189.800781 190.832031 L 189.851562 192.535156 L 187.574219 192.574219 Z M 187.425781 186.28125 "/>
<path style=" stroke:none;fill-rule:nonzero;fill:rgb(39.99939%,39.99939%,39.99939%);fill-opacity:0.3;" d="M 177.941406 74.054688 L 178.179688 77.253906 L 178.390625 83.1875 L 178.160156 83.71875 L 178.160156 77.570312 Z M 177.941406 74.054688 "/>
<path style=" stroke:none;fill-rule:nonzero;fill:rgb(39.99939%,39.99939%,39.99939%);fill-opacity:0.3;" d="M 176.1875 88.292969 L 175.996094 88.730469 L 173.601562 93.582031 L 171.28125 99.082031 L 169.183594 102.171875 L 165.890625 107.863281 L 164.296875 112.039062 L 163.085938 115.890625 L 163.191406 119.945312 L 163.445312 122.667969 L 162.871094 117.496094 L 162.871094 113.671875 L 164.996094 108.574219 L 169.242188 101.355469 L 170.515625 98.808594 L 175.1875 89.886719 Z M 176.1875 88.292969 "/>
<path style=" stroke:none;fill-rule:nonzero;fill:rgb(39.99939%,39.99939%,39.99939%);fill-opacity:0.3;" d="M 202.648438 244.070312 L 203.445312 259.433594 L 203.644531 263.597656 L 203.683594 264.023438 L 204.972656 288.765625 L 190.589844 294.738281 L 189.5625 251.945312 L 188.304688 228.023438 L 188.085938 222.347656 L 187.515625 218.777344 L 186.027344 213.902344 L 183.042969 210.476562 L 176.160156 202.738281 L 174.25 199.578125 L 172.890625 195.1875 L 171.570312 171.113281 L 170.703125 152.058594 L 168.710938 135.523438 L 167.207031 119.269531 L 167.242188 116.363281 L 168.324219 112.917969 L 172.75 105.015625 L 175.566406 99.40625 L 178.804688 92.199219 L 180.601562 87.605469 L 181.714844 82.777344 L 182.203125 76.007812 L 181.453125 68.902344 L 180.847656 58.285156 L 179.84375 50.984375 L 191.933594 50.339844 L 192.175781 54.210938 L 193.128906 64.4375 L 195.570312 113.945312 L 196.777344 133.378906 L 196.847656 135.757812 L 197.078125 138.1875 L 199.707031 180.457031 Z M 202.648438 244.070312 "/>
<path style=" stroke:none;fill-rule:nonzero;fill:rgb(39.99939%,39.99939%,39.99939%);fill-opacity:0.3;" d="M 188.769531 228.105469 L 191.050781 228.0625 L 191.101562 230.515625 L 193.40625 230.472656 L 193.351562 228.019531 L 195.632812 227.976562 L 195.777344 235.023438 L 193.5 235.066406 L 193.449219 232.613281 L 191.144531 232.65625 L 191.195312 235.109375 L 188.917969 235.152344 Z M 188.769531 228.105469 "/>
<path style=" stroke:none;fill-rule:nonzero;fill:rgb(39.99939%,39.99939%,39.99939%);fill-opacity:0.3;" d="M 191.945312 272.144531 L 194.226562 272.101562 L 194.277344 274.554688 L 196.582031 274.511719 L 196.527344 272.058594 L 198.808594 272.015625 L 198.953125 277.667969 L 196.675781 277.710938 L 196.625 276.652344 L 194.320312 276.695312 L 194.371094 277.753906 L 192.09375 277.796875 Z M 191.945312 272.144531 "/>
<path style=" stroke:none;fill-rule:nonzero;fill:rgb(39.99939%,39.99939%,39.99939%);fill-opacity:0.3;" d="M 190.195312 264.085938 L 192.472656 264.042969 L 192.527344 266.496094 L 194.828125 266.453125 L 194.777344 264 L 197.058594 263.957031 L 197.238281 270.394531 L 194.957031 270.4375 L 194.875 268.589844 L 192.570312 268.632812 L 192.65625 270.480469 L 190.375 270.523438 Z M 190.195312 264.085938 "/>
<path style=" stroke:none;fill-rule:nonzero;fill:rgb(39.99939%,39.99939%,39.99939%);fill-opacity:0.3;" d="M 191.320312 255.984375 L 193.601562 255.941406 L 193.652344 258.394531 L 195.953125 258.351562 L 195.902344 255.898438 L 198.183594 255.855469 L 198.40625 262.101562 L 196.125 262.144531 L 196 260.492188 L 193.695312 260.535156 L 193.824219 262.1875 L 191.542969 262.230469 Z M 191.320312 255.984375 "/>
<path style=" stroke:none;fill-rule:nonzero;fill:rgb(39.99939%,39.99939%,39.99939%);fill-opacity:0.3;" d="M 189.75 235.859375 L 192.027344 235.816406 L 192.082031 238.273438 L 194.382812 238.226562 L 194.332031 235.773438 L 196.613281 235.730469 L 196.953125 241.671875 L 194.671875 241.714844 L 194.429688 240.367188 L 192.125 240.410156 L 192.371094 241.757812 L 190.089844 241.800781 Z M 189.75 235.859375 "/>
<path style=" stroke:none;fill-rule:nonzero;fill:rgb(39.99939%,39.99939%,39.99939%);fill-opacity:0.3;" d="M 187.1875 206.605469 L 189.46875 206.5625 L 189.519531 209.015625 L 191.820312 208.972656 L 191.769531 206.519531 L 194.050781 206.476562 L 194.195312 212.71875 L 191.917969 212.761719 L 191.867188 211.113281 L 189.5625 211.15625 L 189.613281 212.804688 L 187.335938 212.847656 Z M 187.1875 206.605469 "/>
<path style=" stroke:none;fill-rule:nonzero;fill:rgb(39.99939%,39.99939%,39.99939%);fill-opacity:0.3;" d="M 187.707031 214.59375 L 189.988281 214.550781 L 190.039062 217.003906 L 192.34375 216.960938 L 192.292969 214.507812 L 194.570312 214.464844 L 194.714844 220.414062 L 192.4375 220.457031 L 192.386719 219.097656 L 190.082031 219.140625 L 190.132812 220.5 L 187.855469 220.542969 Z M 187.707031 214.59375 "/>
<path style=" stroke:none;fill-rule:nonzero;fill:rgb(39.99939%,39.99939%,39.99939%);fill-opacity:0.3;" d="M 184.332031 109.234375 L 186.609375 109.191406 L 186.664062 111.644531 L 188.964844 111.601562 L 188.914062 109.148438 L 191.195312 109.105469 L 191.339844 116.152344 L 189.0625 116.195312 L 189.011719 113.742188 L 186.707031 113.785156 L 186.757812 116.238281 L 184.480469 116.28125 Z M 184.332031 109.234375 "/>
<path style=" stroke:none;fill-rule:nonzero;fill:rgb(39.99939%,39.99939%,39.99939%);fill-opacity:0.3;" d="M 184.253906 193.429688 L 184.402344 199.316406 L 182.121094 199.359375 L 182.070312 198.0625 L 179.769531 198.109375 L 179.820312 199.402344 L 177.539062 199.445312 L 177.34375 191.105469 L 175.039062 191.148438 L 175.128906 193.128906 L 172.8125 193.148438 L 172.714844 186.597656 L 174.945312 186.554688 L 174.996094 189.007812 L 177.296875 188.964844 L 177.246094 186.511719 L 179.527344 186.46875 L 179.722656 195.96875 L 182.027344 195.925781 L 181.976562 193.472656 Z M 184.253906 193.429688 "/>
<path style=" stroke:none;fill-rule:nonzero;fill:rgb(39.99939%,39.99939%,39.99939%);fill-opacity:0.3;" d="M 182.613281 109.863281 L 180.335938 109.894531 L 180.296875 107.441406 L 177.992188 107.472656 L 178.136719 116.113281 L 175.859375 116.144531 L 175.820312 113.691406 L 173.515625 113.722656 L 173.554688 116.175781 L 171.324219 116.207031 L 171.167969 110.019531 L 173.449219 109.988281 L 173.484375 112.441406 L 175.789062 112.410156 L 175.847656 103.671875 L 178.125 103.640625 L 178.164062 106.09375 L 180.464844 106.0625 L 180.429688 103.609375 L 182.707031 103.578125 Z M 182.613281 109.863281 "/>
<path style=" stroke:none;fill-rule:nonzero;fill:rgb(39.99939%,39.99939%,39.99939%);fill-opacity:0.3;" d="M 186.972656 296.222656 L 162.679688 305.960938 L 134.566406 52.90625 L 175.765625 51.429688 L 177.546875 68.742188 L 177.941406 74.054688 L 178.160156 77.570312 L 178.160156 83.71875 L 176.1875 88.292969 L 175.1875 89.886719 L 170.515625 98.808594 L 169.242188 101.355469 L 164.996094 108.574219 L 162.871094 113.671875 L 162.871094 117.496094 L 163.445312 122.667969 L 164.453125 133.402344 L 165.1875 142.210938 L 167.496094 166.3125 L 168.546875 176.125 L 169.28125 184.238281 L 170.015625 189.1875 L 170.222656 192.648438 L 170.539062 197.664062 L 173.238281 203.328125 L 174.957031 206.433594 L 178.160156 210.746094 L 183.792969 216.679688 L 185.152344 221.765625 L 185.886719 229.878906 Z M 186.972656 296.222656 "/>
<path style=" stroke:none;fill-rule:nonzero;fill:rgb(39.99939%,39.99939%,39.99939%);fill-opacity:0.3;" d="M 171.789062 216.78125 L 174.070312 216.742188 L 174.121094 219.195312 L 176.421875 219.152344 L 176.371094 216.695312 L 178.652344 216.65625 L 178.71875 222.882812 L 176.441406 222.925781 L 176.46875 221.289062 L 174.164062 221.332031 L 174.136719 222.96875 L 171.859375 223.011719 Z M 171.789062 216.78125 "/>
<path style=" stroke:none;fill-rule:nonzero;fill:rgb(39.99939%,39.99939%,39.99939%);fill-opacity:0.3;" d="M 163.9375 232.84375 L 166.21875 232.800781 L 166.269531 235.253906 L 168.574219 235.210938 L 168.523438 232.757812 L 170.800781 232.714844 L 170.945312 239.390625 L 168.667969 239.433594 L 168.617188 237.351562 L 166.3125 237.394531 L 166.363281 239.476562 L 164.085938 239.519531 Z M 163.9375 232.84375 "/>
<path style=" stroke:none;fill-rule:nonzero;fill:rgb(39.99939%,39.99939%,39.99939%);fill-opacity:0.3;" d="M 163.109375 223.621094 L 165.390625 223.578125 L 165.441406 226.03125 L 167.742188 225.988281 L 167.691406 223.535156 L 169.972656 223.492188 L 170.117188 230.09375 L 167.839844 230.136719 L 167.789062 228.128906 L 165.484375 228.171875 L 165.535156 230.179688 L 163.257812 230.222656 Z M 163.109375 223.621094 "/>
<path style=" stroke:none;fill-rule:nonzero;fill:rgb(39.99939%,39.99939%,39.99939%);fill-opacity:0.3;" d="M 140.171875 245.246094 L 152.101562 243.765625 L 155.40625 270.855469 L 145.214844 271.429688 Z M 140.171875 245.246094 "/>
<path style=" stroke:none;fill-rule:nonzero;fill:rgb(39.99939%,39.99939%,39.99939%);fill-opacity:0.3;" d="M 157.953125 291.773438 L 158.601562 297.109375 L 158.4375 297.15625 Z M 157.953125 291.773438 "/>
<path style=" stroke:none;fill-rule:nonzero;fill:rgb(39.99939%,39.99939%,39.99939%);fill-opacity:0.3;" d="M 128.5625 247.027344 L 137.984375 245.671875 L 143.164062 271.546875 L 133.660156 272.082031 Z M 128.5625 247.027344 "/>
<path style=" stroke:none;fill-rule:nonzero;fill:rgb(39.99939%,39.99939%,39.99939%);fill-opacity:0.3;" d="M 173.59375 227.707031 L 175.871094 227.664062 L 175.921875 230.117188 L 178.226562 230.074219 L 178.175781 227.621094 L 180.453125 227.578125 L 180.601562 234.03125 L 178.324219 234.074219 L 178.273438 232.214844 L 175.96875 232.257812 L 176.019531 234.117188 L 173.738281 234.160156 Z M 173.59375 227.707031 "/>
<path style=" stroke:none;fill-rule:nonzero;fill:rgb(39.99939%,39.99939%,39.99939%);fill-opacity:0.3;" d="M 162.460938 213.730469 L 164.738281 213.6875 L 164.792969 216.140625 L 167.09375 216.097656 L 167.042969 213.644531 L 169.324219 213.601562 L 169.46875 219.757812 L 167.191406 219.800781 L 167.140625 218.238281 L 164.835938 218.28125 L 164.886719 219.84375 L 162.609375 219.886719 Z M 162.460938 213.730469 "/>
<path style=" stroke:none;fill-rule:nonzero;fill:rgb(39.99939%,39.99939%,39.99939%);fill-opacity:0.3;" d="M 162.003906 205.25 L 164.285156 205.207031 L 164.335938 207.660156 L 166.636719 207.617188 L 166.585938 205.164062 L 168.867188 205.121094 L 169.011719 211.578125 L 166.734375 211.621094 L 166.683594 209.753906 L 164.378906 209.796875 L 164.429688 211.664062 L 162.152344 211.707031 Z M 162.003906 205.25 "/>
<path style=" stroke:none;fill-rule:nonzero;fill:rgb(39.99939%,39.99939%,39.99939%);fill-opacity:0.3;" d="M 160.945312 197.089844 L 163.222656 197.046875 L 163.273438 199.5 L 165.578125 199.457031 L 165.527344 197.003906 L 167.804688 196.960938 L 167.953125 203.300781 L 165.675781 203.34375 L 165.625 201.597656 L 163.320312 201.640625 L 163.371094 203.386719 L 161.089844 203.429688 Z M 160.945312 197.089844 "/>
<path style=" stroke:none;fill-rule:nonzero;fill:rgb(39.99939%,39.99939%,39.99939%);fill-opacity:0.3;" d="M 158.34375 187.539062 L 160.621094 187.496094 L 160.671875 189.949219 L 162.976562 189.90625 L 162.925781 187.449219 L 165.203125 187.410156 L 165.351562 193.617188 L 163.070312 193.660156 L 163.019531 192.042969 L 160.71875 192.085938 L 160.769531 193.703125 L 158.488281 193.746094 Z M 158.34375 187.539062 "/>
<path style=" stroke:none;fill-rule:nonzero;fill:rgb(39.99939%,39.99939%,39.99939%);fill-opacity:0.3;" d="M 114.242188 89.890625 L 135.644531 86.429688 L 149.3125 215.394531 L 135.890625 217.507812 Z M 114.242188 89.890625 "/>
<path style=" stroke:none;fill-rule:nonzero;fill:rgb(39.99939%,39.99939%,39.99939%);fill-opacity:0.3;" d="M 167.050781 74.421875 L 169.328125 74.378906 L 169.382812 76.832031 L 171.683594 76.789062 L 171.632812 74.335938 L 173.914062 74.292969 L 174.058594 81.339844 L 171.78125 81.382812 L 171.730469 78.925781 L 169.425781 78.972656 L 169.476562 81.425781 L 167.199219 81.46875 Z M 167.050781 74.421875 "/>
<path style=" stroke:none;fill-rule:nonzero;fill:rgb(39.99939%,39.99939%,39.99939%);fill-opacity:0.3;" d="M 158.160156 75.269531 L 160.4375 75.226562 L 160.488281 77.679688 L 162.792969 77.636719 L 162.742188 75.183594 L 165.019531 75.140625 L 165.167969 82.1875 L 162.890625 82.230469 L 162.835938 79.777344 L 160.535156 79.820312 L 160.585938 82.273438 L 158.304688 82.316406 Z M 158.160156 75.269531 "/>
<path style=" stroke:none;fill-rule:nonzero;fill:rgb(39.99939%,39.99939%,39.99939%);fill-opacity:0.3;" d="M 147.589844 75.277344 L 149.867188 75.234375 L 149.917969 77.6875 L 152.222656 77.644531 L 152.171875 75.191406 L 154.449219 75.148438 L 154.597656 82.195312 L 152.316406 82.238281 L 152.265625 79.785156 L 149.960938 79.828125 L 150.011719 82.28125 L 147.734375 82.324219 Z M 147.589844 75.277344 "/>
<path style=" stroke:none;fill-rule:nonzero;fill:rgb(39.99939%,39.99939%,39.99939%);fill-opacity:0.3;" d="M 150.769531 115.550781 L 153.046875 115.507812 L 153.101562 117.960938 L 155.402344 117.917969 L 155.351562 115.464844 L 157.632812 115.421875 L 157.777344 122.46875 L 155.5 122.511719 L 155.449219 120.058594 L 153.144531 120.101562 L 153.195312 122.554688 L 150.917969 122.597656 Z M 150.769531 115.550781 "/>
<path style=" stroke:none;fill-rule:nonzero;fill:rgb(39.99939%,39.99939%,39.99939%);fill-opacity:0.3;" d="M 161.625 107.269531 L 159.34375 107.300781 L 159.308594 104.847656 L 157.003906 104.878906 L 157.148438 113.519531 L 154.867188 113.550781 L 154.832031 111.097656 L 152.527344 111.128906 L 152.566406 113.582031 L 150.335938 113.613281 L 150.179688 107.425781 L 152.457031 107.394531 L 152.496094 109.847656 L 154.800781 109.816406 L 154.855469 101.082031 L 157.136719 101.050781 L 157.171875 103.503906 L 159.476562 103.472656 L 159.441406 101.019531 L 161.71875 100.988281 Z M 161.625 107.269531 "/>
<path style=" stroke:none;fill-rule:nonzero;fill:rgb(39.99939%,39.99939%,39.99939%);fill-opacity:0.3;" d="M 164.753906 84.027344 L 167.035156 83.984375 L 167.085938 86.4375 L 169.386719 86.394531 L 169.335938 83.941406 L 171.617188 83.898438 L 171.761719 90.945312 L 169.484375 90.988281 L 169.433594 88.53125 L 167.128906 88.578125 L 167.179688 91.03125 L 164.902344 91.074219 Z M 164.753906 84.027344 "/>
<path style=" stroke:none;fill-rule:nonzero;fill:rgb(39.99939%,39.99939%,39.99939%);fill-opacity:0.3;" d="M 165.964844 92.871094 L 166.109375 99.917969 L 163.832031 99.960938 L 163.78125 97.503906 L 161.476562 97.550781 L 161.527344 100.003906 L 159.25 100.046875 L 159.050781 90.546875 L 156.746094 90.589844 L 156.796875 93.042969 L 154.519531 93.085938 L 154.425781 86.039062 L 156.652344 85.996094 L 156.703125 88.449219 L 159.007812 88.40625 L 158.957031 85.953125 L 161.234375 85.910156 L 161.433594 95.410156 L 163.734375 95.367188 L 163.683594 92.914062 Z M 165.964844 92.871094 "/>
<path style=" stroke:none;fill-rule:nonzero;fill:rgb(39.99939%,39.99939%,39.99939%);fill-opacity:0.3;" d="M 140.171875 245.246094 L 139.074219 245.449219 L 137.980469 245.648438 L 128.519531 246.996094 L 133.632812 272.082031 L 127.492188 272.429688 L 131.867188 301.820312 L 136.933594 308.570312 L 51.429688 292.34375 L 53.722656 279.734375 L 64.339844 218.578125 L 66.460938 207.535156 L 68.160156 192.246094 L 68.585938 181.203125 L 70.59375 181.503906 L 70.710938 181.671875 L 65.726562 214.578125 L 67.109375 214.804688 L 68.535156 215.039062 L 73.378906 181.921875 L 82.414062 183.28125 L 91.929688 184.859375 L 119.722656 190.28125 L 119.640625 188.828125 L 128.980469 190.074219 L 134.097656 219.695312 L 149.851562 217.570312 L 152.101562 243.761719 Z M 140.171875 245.246094 "/>
<path style=" stroke:none;fill-rule:nonzero;fill:rgb(39.99939%,39.99939%,39.99939%);fill-opacity:0.3;" d="M 105.871094 54.34375 L 113.359375 53.984375 L 131.921875 53.175781 L 134.992188 84.722656 L 111.386719 88.285156 L 125.675781 170.96875 L 114.453125 111.972656 Z M 105.871094 54.34375 "/>
<path style=" stroke:none;fill-rule:nonzero;fill:rgb(39.99939%,39.99939%,39.99939%);fill-opacity:0.3;" d="M 191.933594 50.339844 L 192.433594 50.3125 L 193.128906 64.4375 L 192.175781 54.210938 Z M 191.933594 50.339844 "/>
<path style=" stroke:none;fill-rule:nonzero;fill:rgb(39.99939%,39.99939%,39.99939%);fill-opacity:0.3;" d="M 196.777344 133.378906 L 197.078125 138.1875 L 196.847656 135.757812 Z M 196.777344 133.378906 "/>
<path style=" stroke:none;fill-rule:nonzero;fill:rgb(39.99939%,39.99939%,39.99939%);fill-opacity:0.3;" d="M 240.488281 170.109375 L 229.566406 170.445312 L 229 153.824219 L 239.46875 153.507812 L 239.746094 163.789062 Z M 240.488281 170.109375 "/>
<path style=" stroke:none;fill-rule:nonzero;fill:rgb(39.99939%,39.99939%,39.99939%);fill-opacity:0.3;" d="M 215.824219 159.199219 L 225.597656 158.902344 L 225.988281 170.449219 L 216.214844 170.75 Z M 215.824219 159.199219 "/>
<path style=" stroke:none;fill-rule:nonzero;fill:rgb(39.99939%,39.99939%,39.99939%);fill-opacity:0.3;" d="M 239.292969 89.59375 L 234.332031 89.722656 L 233.800781 74.035156 L 238.976562 73.898438 L 239.320312 88.613281 Z M 239.292969 89.59375 "/>
<path style=" stroke:none;fill-rule:nonzero;fill:rgb(39.99939%,39.99939%,39.99939%);fill-opacity:0.3;" d="M 239.441406 152.558594 L 228.820312 152.875 L 228.257812 136.320312 L 238.765625 135.996094 L 239.746094 143.828125 L 239.320312 148.074219 Z M 239.441406 152.558594 "/>
<path style=" stroke:none;fill-rule:nonzero;fill:rgb(39.99939%,39.99939%,39.99939%);fill-opacity:0.3;" d="M 215.542969 136.667969 L 223.179688 136.503906 L 223.84375 155.976562 L 216.207031 156.199219 Z M 215.542969 136.667969 "/>
<path style=" stroke:none;fill-rule:nonzero;fill:rgb(39.99939%,39.99939%,39.99939%);fill-opacity:0.3;" d="M 214.871094 122.332031 L 226.632812 121.972656 L 227.070312 134.84375 L 215.308594 135.203125 Z M 214.871094 122.332031 "/>
<path style=" stroke:none;fill-rule:nonzero;fill:rgb(39.99939%,39.99939%,39.99939%);fill-opacity:0.3;" d="M 238.566406 134.410156 L 228.441406 134.699219 L 227.984375 121.359375 L 238.832031 121.050781 L 238.472656 133.632812 Z M 238.566406 134.410156 "/>
<path style=" stroke:none;fill-rule:nonzero;fill:rgb(39.99939%,39.99939%,39.99939%);fill-opacity:0.3;" d="M 238.878906 119.308594 L 232.347656 119.519531 L 232.179688 105.8125 L 239.144531 105.679688 L 239.746094 111.972656 L 238.894531 118.769531 Z M 238.878906 119.308594 "/>
<path style=" stroke:none;fill-rule:nonzero;fill:rgb(39.99939%,39.99939%,39.99939%);fill-opacity:0.3;" d="M 216.035156 106.207031 L 226.523438 105.886719 L 227.023438 120.570312 L 216.535156 120.894531 Z M 216.035156 106.207031 "/>
<path style=" stroke:none;fill-rule:nonzero;fill:rgb(39.99939%,39.99939%,39.99939%);fill-opacity:0.3;" d="M 199.902344 106.78125 L 214.328125 106.339844 L 214.847656 121.613281 L 200.425781 122.054688 Z M 199.902344 106.78125 "/>
<path style=" stroke:none;fill-rule:nonzero;fill:rgb(39.99939%,39.99939%,39.99939%);fill-opacity:0.3;" d="M 199.113281 91.425781 L 213.011719 91 L 213.476562 104.578125 L 199.578125 105.003906 Z M 199.113281 91.425781 "/>
<path style=" stroke:none;fill-rule:nonzero;fill:rgb(39.99939%,39.99939%,39.99939%);fill-opacity:0.3;" d="M 239.035156 104.535156 L 227.269531 104.527344 L 226.890625 90.484375 L 239.265625 90.445312 L 238.894531 103.054688 Z M 239.035156 104.535156 "/>
<path style=" stroke:none;fill-rule:nonzero;fill:rgb(39.99939%,39.99939%,39.99939%);fill-opacity:0.3;" d="M 206.6875 75.992188 L 218.394531 75.632812 L 218.882812 89.890625 L 207.171875 90.25 Z M 206.6875 75.992188 "/>
<path style=" stroke:none;fill-rule:nonzero;fill:rgb(39.99939%,39.99939%,39.99939%);fill-opacity:0.3;" d="M 198.527344 74.855469 L 205.355469 74.644531 L 206.007812 90.152344 L 199.054688 90.367188 Z M 198.527344 74.855469 "/>
<path style=" stroke:none;fill-rule:nonzero;fill:rgb(39.99939%,39.99939%,39.99939%);fill-opacity:0.3;" d="M 220.003906 75.609375 L 231.710938 75.25 L 232.195312 89.507812 L 220.488281 89.867188 Z M 220.003906 75.609375 "/>
<path style=" stroke:none;fill-rule:nonzero;fill:rgb(39.99939%,39.99939%,39.99939%);fill-opacity:0.3;" d="M 239.265625 90.445312 L 226.890625 90.484375 L 227.269531 104.527344 L 239.035156 104.535156 L 239.144531 105.679688 L 232.179688 105.8125 L 232.347656 119.519531 L 238.878906 119.308594 L 238.832031 121.050781 L 227.984375 121.359375 L 228.441406 134.699219 L 238.566406 134.410156 L 238.765625 135.996094 L 228.257812 136.320312 L 228.820312 152.875 L 239.441406 152.558594 L 239.46875 153.507812 L 229 153.824219 L 229.566406 170.445312 L 240.488281 170.109375 L 240.59375 171.007812 L 227.851562 171.433594 L 202.742188 171.433594 L 198.089844 85.160156 L 196.898438 72.050781 L 195.867188 49.125 L 238.992188 46.253906 L 239.320312 55.0625 L 238.894531 70.351562 L 238.976562 73.898438 L 233.796875 74.035156 L 234.332031 89.722656 L 239.292969 89.59375 Z M 239.265625 90.445312 "/>
<path style=" stroke:none;fill-rule:nonzero;fill:rgb(39.99939%,39.99939%,39.99939%);fill-opacity:0.3;" d="M 203.445312 259.433594 L 203.683594 264.023438 L 203.644531 263.597656 Z M 203.445312 259.433594 "/>
<path style=" stroke:none;fill-rule:nonzero;fill:rgb(39.99939%,39.99939%,39.99939%);fill-opacity:0.3;" d="M 241.019531 248.355469 L 234.457031 248.558594 L 233.914062 232.519531 L 240.382812 232.320312 L 241.019531 235.988281 Z M 241.019531 248.355469 "/>
<path style=" stroke:none;fill-rule:nonzero;fill:rgb(39.99939%,39.99939%,39.99939%);fill-opacity:0.3;" d="M 215.636719 234.179688 L 232.761719 233.652344 L 233.226562 247.402344 L 216.105469 247.929688 Z M 215.636719 234.179688 "/>
<path style=" stroke:none;fill-rule:nonzero;fill:rgb(39.99939%,39.99939%,39.99939%);fill-opacity:0.3;" d="M 205.449219 249.480469 L 206.125 233.453125 L 214.371094 233.175781 L 214.917969 249.214844 Z M 205.449219 249.480469 "/>
<path style=" stroke:none;fill-rule:nonzero;fill:rgb(39.99939%,39.99939%,39.99939%);fill-opacity:0.3;" d="M 205.847656 253.085938 L 240.925781 252.570312 L 240.59375 264.871094 L 240.972656 273.921875 L 207.269531 286.195312 Z M 205.847656 253.085938 "/>
<path style=" stroke:none;fill-rule:nonzero;fill:rgb(39.99939%,39.99939%,39.99939%);fill-opacity:0.3;" d="M 205.363281 218.925781 L 217.65625 218.476562 L 218.019531 232.074219 L 206.097656 232.5 Z M 205.363281 218.925781 "/>
<path style=" stroke:none;fill-rule:nonzero;fill:rgb(39.99939%,39.99939%,39.99939%);fill-opacity:0.3;" d="M 240.234375 231.488281 L 229.273438 231.78125 L 228.8125 218.203125 L 239.566406 217.90625 L 239.320312 226.222656 Z M 240.234375 231.488281 "/>
<path style=" stroke:none;fill-rule:nonzero;fill:rgb(39.99939%,39.99939%,39.99939%);fill-opacity:0.3;" d="M 239.597656 216.832031 L 228.402344 217.144531 L 227.878906 202.175781 L 239.855469 201.792969 L 240.167969 208.382812 L 239.746094 211.78125 Z M 239.597656 216.832031 "/>
<path style=" stroke:none;fill-rule:nonzero;fill:rgb(39.99939%,39.99939%,39.99939%);fill-opacity:0.3;" d="M 221.1875 202.355469 L 226.226562 202.203125 L 226.738281 217.164062 L 221.699219 217.320312 Z M 221.1875 202.355469 "/>
<path style=" stroke:none;fill-rule:nonzero;fill:rgb(39.99939%,39.99939%,39.99939%);fill-opacity:0.3;" d="M 205.300781 217.734375 L 204.429688 202.722656 L 219.097656 202.320312 L 219.609375 217.285156 Z M 205.300781 217.734375 "/>
<path style=" stroke:none;fill-rule:nonzero;fill:rgb(39.99939%,39.99939%,39.99939%);fill-opacity:0.3;" d="M 220.722656 187.582031 L 225.761719 187.425781 L 226.242188 201.527344 L 221.199219 201.679688 Z M 220.722656 187.582031 "/>
<path style=" stroke:none;fill-rule:nonzero;fill:rgb(39.99939%,39.99939%,39.99939%);fill-opacity:0.3;" d="M 239.824219 201.132812 L 227.808594 201.53125 L 227.328125 187.390625 L 240.851562 186.933594 L 239.746094 199.464844 Z M 239.824219 201.132812 "/>
<path style=" stroke:none;fill-rule:nonzero;fill:rgb(39.99939%,39.99939%,39.99939%);fill-opacity:0.3;" d="M 240.953125 185.789062 L 232.914062 186 L 232.453125 172.390625 L 240.628906 172.160156 L 241.019531 185.023438 Z M 240.953125 185.789062 "/>
<path style=" stroke:none;fill-rule:nonzero;fill:rgb(39.99939%,39.99939%,39.99939%);fill-opacity:0.3;" d="M 216.449219 172.875 L 228.007812 172.523438 L 228.46875 186.101562 L 216.910156 186.457031 Z M 216.449219 172.875 "/>
<path style=" stroke:none;fill-rule:nonzero;fill:rgb(39.99939%,39.99939%,39.99939%);fill-opacity:0.3;" d="M 240.628906 172.160156 L 232.453125 172.390625 L 232.914062 186 L 240.953125 185.789062 L 240.851562 186.933594 L 227.328125 187.390625 L 227.808594 201.53125 L 239.824219 201.132812 L 239.855469 201.792969 L 227.878906 202.175781 L 228.390625 217.152344 L 239.597656 216.832031 L 239.566406 217.90625 L 228.8125 218.203125 L 229.273438 231.78125 L 240.234375 231.488281 L 240.382812 232.320312 L 233.914062 232.519531 L 234.457031 248.558594 L 241.019531 248.355469 L 241.019531 249.15625 L 240.925781 252.566406 L 205.847656 253.066406 L 205.449219 249.480469 L 214.917969 249.214844 L 214.371094 233.175781 L 206.125 233.453125 L 206.097656 232.5 L 218.019531 232.074219 L 217.65625 218.476562 L 205.363281 218.925781 L 205.300781 217.734375 L 219.609375 217.285156 L 219.097656 202.320312 L 204.429688 202.722656 L 202.742188 171.433594 L 227.851562 171.433594 L 240.59375 171.007812 Z M 240.628906 172.160156 "/>
<path style=" stroke:none;fill-rule:nonzero;fill:rgb(39.99939%,39.99939%,39.99939%);fill-opacity:0.3;" d="M 242.621094 248.304688 L 241.019531 248.355469 L 241.019531 235.988281 L 240.382812 232.320312 L 242.507812 232.257812 Z M 242.621094 248.304688 "/>
<path style=" stroke:none;fill-rule:nonzero;fill:rgb(39.99939%,39.99939%,39.99939%);fill-opacity:0.3;" d="M 240.925781 252.570312 L 242.765625 252.542969 L 242.820312 273.246094 L 240.972656 273.921875 L 240.59375 264.871094 Z M 240.925781 252.570312 "/>
<path style=" stroke:none;fill-rule:nonzero;fill:rgb(39.99939%,39.99939%,39.99939%);fill-opacity:0.3;" d="M 240.90625 170.097656 L 240.488281 170.109375 L 239.746094 163.789062 L 239.46875 153.507812 L 240.402344 153.480469 Z M 240.90625 170.097656 "/>
<path style=" stroke:none;fill-rule:nonzero;fill:rgb(39.99939%,39.99939%,39.99939%);fill-opacity:0.3;" d="M 242.484375 231.425781 L 240.234375 231.488281 L 239.320312 226.222656 L 239.566406 217.90625 L 242.320312 217.828125 Z M 242.484375 231.425781 "/>
<path style=" stroke:none;fill-rule:nonzero;fill:rgb(39.99939%,39.99939%,39.99939%);fill-opacity:0.3;" d="M 242.292969 216.753906 L 239.597656 216.832031 L 239.746094 211.78125 L 240.167969 208.382812 L 239.855469 201.792969 L 242.015625 201.722656 Z M 242.292969 216.753906 "/>
<path style=" stroke:none;fill-rule:nonzero;fill:rgb(39.99939%,39.99939%,39.99939%);fill-opacity:0.3;" d="M 242.015625 201.058594 L 239.824219 201.132812 L 239.746094 199.464844 L 240.851562 186.933594 L 241.371094 186.917969 Z M 242.015625 201.058594 "/>
<path style=" stroke:none;fill-rule:nonzero;fill:rgb(39.99939%,39.99939%,39.99939%);fill-opacity:0.3;" d="M 241.359375 185.777344 L 240.953125 185.789062 L 241.019531 185.023438 L 240.628906 172.160156 L 240.90625 172.152344 Z M 241.359375 185.777344 "/>
<path style=" stroke:none;fill-rule:nonzero;fill:rgb(39.99939%,39.99939%,39.99939%);fill-opacity:0.3;" d="M 240.78125 89.554688 L 239.292969 89.59375 L 239.320312 88.613281 L 238.976562 73.898438 L 240.332031 73.863281 Z M 240.78125 89.554688 "/>
<path style=" stroke:none;fill-rule:nonzero;fill:rgb(39.99939%,39.99939%,39.99939%);fill-opacity:0.3;" d="M 240.375 152.53125 L 239.441406 152.558594 L 239.320312 148.074219 L 239.746094 143.828125 L 238.765625 135.996094 L 240.445312 135.945312 Z M 240.375 152.53125 "/>
<path style=" stroke:none;fill-rule:nonzero;fill:rgb(39.99939%,39.99939%,39.99939%);fill-opacity:0.3;" d="M 240.507812 134.355469 L 238.566406 134.410156 L 238.472656 133.632812 L 238.832031 121.050781 L 240.785156 120.992188 Z M 240.507812 134.355469 "/>
<path style=" stroke:none;fill-rule:nonzero;fill:rgb(39.99939%,39.99939%,39.99939%);fill-opacity:0.3;" d="M 240.828125 119.246094 L 238.878906 119.308594 L 238.894531 118.769531 L 239.746094 111.972656 L 239.144531 105.679688 L 240.738281 105.648438 Z M 240.828125 119.246094 "/>
<path style=" stroke:none;fill-rule:nonzero;fill:rgb(39.99939%,39.99939%,39.99939%);fill-opacity:0.3;" d="M 240.707031 104.535156 L 239.035156 104.535156 L 238.894531 103.054688 L 239.265625 90.445312 L 240.808594 90.4375 Z M 240.707031 104.535156 "/>
<path style=" stroke:none;fill-rule:nonzero;fill:rgb(39.99939%,39.99939%,39.99939%);fill-opacity:0.3;" d="M 240.808594 90.4375 L 239.265625 90.445312 L 239.292969 89.59375 L 240.78125 89.554688 Z M 240.808594 90.4375 "/>
<path style=" stroke:none;fill-rule:nonzero;fill:rgb(39.99939%,39.99939%,39.99939%);fill-opacity:0.3;" d="M 239.035156 104.535156 L 240.707031 104.535156 L 240.738281 105.648438 L 239.144531 105.679688 Z M 239.035156 104.535156 "/>
<path style=" stroke:none;fill-rule:nonzero;fill:rgb(39.99939%,39.99939%,39.99939%);fill-opacity:0.3;" d="M 238.878906 119.308594 L 240.828125 119.246094 L 240.785156 120.992188 L 238.832031 121.050781 Z M 238.878906 119.308594 "/>
<path style=" stroke:none;fill-rule:nonzero;fill:rgb(39.99939%,39.99939%,39.99939%);fill-opacity:0.3;" d="M 238.566406 134.410156 L 240.507812 134.355469 L 240.445312 135.945312 L 238.765625 135.996094 Z M 238.566406 134.410156 "/>
<path style=" stroke:none;fill-rule:nonzero;fill:rgb(39.99939%,39.99939%,39.99939%);fill-opacity:0.3;" d="M 239.441406 152.558594 L 240.375 152.53125 L 240.402344 153.476562 L 239.46875 153.507812 Z M 239.441406 152.558594 "/>
<path style=" stroke:none;fill-rule:nonzero;fill:rgb(39.99939%,39.99939%,39.99939%);fill-opacity:0.3;" d="M 240.488281 170.109375 L 240.90625 170.097656 L 240.90625 172.152344 L 240.628906 172.160156 L 240.59375 171.007812 Z M 240.488281 170.109375 "/>
<path style=" stroke:none;fill-rule:nonzero;fill:rgb(39.99939%,39.99939%,39.99939%);fill-opacity:0.3;" d="M 240.953125 185.789062 L 241.359375 185.777344 L 241.371094 186.917969 L 240.851562 186.933594 Z M 240.953125 185.789062 "/>
<path style=" stroke:none;fill-rule:nonzero;fill:rgb(39.99939%,39.99939%,39.99939%);fill-opacity:0.3;" d="M 239.824219 201.132812 L 242.015625 201.058594 L 242.015625 201.722656 L 239.855469 201.792969 Z M 239.824219 201.132812 "/>
<path style=" stroke:none;fill-rule:nonzero;fill:rgb(39.99939%,39.99939%,39.99939%);fill-opacity:0.3;" d="M 239.597656 216.832031 L 242.292969 216.753906 L 242.320312 217.828125 L 239.566406 217.90625 Z M 239.597656 216.832031 "/>
<path style=" stroke:none;fill-rule:nonzero;fill:rgb(39.99939%,39.99939%,39.99939%);fill-opacity:0.3;" d="M 240.234375 231.488281 L 242.484375 231.425781 L 242.507812 232.257812 L 240.382812 232.320312 Z M 240.234375 231.488281 "/>
<path style=" stroke:none;fill-rule:nonzero;fill:rgb(39.99939%,39.99939%,39.99939%);fill-opacity:0.3;" d="M 241.019531 248.355469 L 242.621094 248.304688 L 242.765625 252.542969 L 240.925781 252.566406 L 241.019531 249.15625 Z M 241.019531 248.355469 "/>
<path style=" stroke:none;fill-rule:nonzero;fill:rgb(39.99939%,39.99939%,39.99939%);fill-opacity:0.3;" d="M 238.992188 46.253906 L 239.964844 46.1875 L 240.25 70.46875 L 240.332031 73.863281 L 238.976562 73.898438 L 238.894531 70.351562 L 239.320312 55.0625 Z M 238.992188 46.253906 "/>
<path style=" stroke:none;fill-rule:nonzero;fill:rgb(39.99939%,39.99939%,39.99939%);fill-opacity:0.3;" d="M 254.890625 227.414062 L 257.867188 224.421875 L 272.261719 237.910156 L 269.285156 241.0625 Z M 254.890625 227.414062 "/>
<path style=" stroke:none;fill-rule:nonzero;fill:rgb(39.99939%,39.99939%,39.99939%);fill-opacity:0.3;" d="M 278.394531 258.800781 L 254.648438 268.28125 L 244.847656 272.496094 L 243.984375 217.144531 L 243.777344 184.902344 L 243.511719 168.429688 L 243.496094 148.832031 L 243.21875 123.269531 L 243.570312 69.738281 L 243.421875 51.515625 L 244.484375 50.84375 L 262.671875 67.414062 L 264.378906 69.078125 L 271.597656 76.296875 L 280.09375 84.367188 L 283.492188 87.765625 L 283.066406 103.480469 L 282.640625 111.972656 L 282.214844 124.289062 L 281.367188 145.527344 L 281.367188 147.648438 L 280.941406 162.9375 L 281.367188 173.980469 L 280.515625 179.925781 L 280.09375 192.667969 L 279.667969 204.136719 L 279.667969 214.753906 L 278.820312 237.6875 L 278.394531 249.15625 Z M 278.394531 258.800781 "/>
<path style=" stroke:none;fill-rule:nonzero;fill:rgb(39.99939%,39.99939%,39.99939%);fill-opacity:0.3;" d="M 262.496094 162.441406 L 256.097656 155.808594 L 261.554688 151.0625 L 267.953125 157.691406 Z M 262.496094 162.441406 "/>
<path style=" stroke:none;fill-rule:nonzero;fill:rgb(39.99939%,39.99939%,39.99939%);fill-opacity:0.3;" d="M 243.546875 155 L 248.449219 150.734375 L 260.738281 163.464844 L 255.835938 167.730469 Z M 243.546875 155 "/>
<path style=" stroke:none;fill-rule:nonzero;fill:rgb(39.99939%,39.99939%,39.99939%);fill-opacity:0.3;" d="M 245.9375 219.191406 L 251.917969 213.792969 L 256.390625 218.25 L 251.242188 224.222656 Z M 245.9375 219.191406 "/>
<path style=" stroke:none;fill-rule:nonzero;fill:rgb(39.99939%,39.99939%,39.99939%);fill-opacity:0.3;" d="M 246.730469 214.84375 L 244.167969 209.339844 L 256.1875 197.835938 L 260.542969 202.449219 Z M 246.730469 214.84375 "/>
<path style=" stroke:none;fill-rule:nonzero;fill:rgb(39.99939%,39.99939%,39.99939%);fill-opacity:0.3;" d="M 243.828125 187.375 L 247.078125 183.5 L 258.847656 194.660156 L 254.847656 198.511719 Z M 243.828125 187.375 "/>
<path style=" stroke:none;fill-rule:nonzero;fill:rgb(39.99939%,39.99939%,39.99939%);fill-opacity:0.3;" d="M 245.019531 176.726562 L 252.003906 170.652344 L 257.003906 175.832031 L 250.023438 181.910156 Z M 245.019531 176.726562 "/>
<path style=" stroke:none;fill-rule:nonzero;fill:rgb(39.99939%,39.99939%,39.99939%);fill-opacity:0.3;" d="M 265.1875 224.902344 L 260.246094 220.621094 L 273.097656 208.730469 L 277.78125 212.609375 Z M 265.1875 224.902344 "/>
<path style=" stroke:none;fill-rule:nonzero;fill:rgb(39.99939%,39.99939%,39.99939%);fill-opacity:0.3;" d="M 259.011719 206.445312 L 265.140625 201.03125 L 269.980469 205.113281 L 263.960938 210.222656 Z M 259.011719 206.445312 "/>
<path style=" stroke:none;fill-rule:nonzero;fill:rgb(39.99939%,39.99939%,39.99939%);fill-opacity:0.3;" d="M 253.632812 186.625 L 260.617188 180.550781 L 265.617188 185.734375 L 258.636719 191.808594 Z M 253.632812 186.625 "/>
<path style=" stroke:none;fill-rule:nonzero;fill:rgb(39.99939%,39.99939%,39.99939%);fill-opacity:0.3;" d="M 264.9375 178.492188 L 271.917969 172.414062 L 276.921875 177.597656 L 269.9375 183.671875 Z M 264.9375 178.492188 "/>
<path style=" stroke:none;fill-rule:nonzero;fill:rgb(39.99939%,39.99939%,39.99939%);fill-opacity:0.3;" d="M 263.417969 175.617188 L 257.019531 168.984375 L 262.476562 164.234375 L 268.878906 170.867188 Z M 263.417969 175.617188 "/>
<path style=" stroke:none;fill-rule:nonzero;fill:rgb(39.99939%,39.99939%,39.99939%);fill-opacity:0.3;" d="M 263.578125 142.851562 L 257.179688 136.21875 L 262.636719 131.472656 L 269.035156 138.101562 Z M 263.578125 142.851562 "/>
<path style=" stroke:none;fill-rule:nonzero;fill:rgb(39.99939%,39.99939%,39.99939%);fill-opacity:0.3;" d="M 255.789062 105.878906 L 262.773438 99.804688 L 267.777344 104.988281 L 260.792969 111.0625 Z M 255.789062 105.878906 "/>
<path style=" stroke:none;fill-rule:nonzero;fill:rgb(39.99939%,39.99939%,39.99939%);fill-opacity:0.3;" d="M 253.195312 151.453125 L 246.53125 144.929688 L 252.003906 140.542969 L 258.453125 146.757812 Z M 253.195312 151.453125 "/>
<path style=" stroke:none;fill-rule:nonzero;fill:rgb(39.99939%,39.99939%,39.99939%);fill-opacity:0.3;" d="M 243.597656 122.542969 L 248.5 118.277344 L 260.789062 131.007812 L 255.882812 135.277344 Z M 243.597656 122.542969 "/>
<path style=" stroke:none;fill-rule:nonzero;fill:rgb(39.99939%,39.99939%,39.99939%);fill-opacity:0.3;" d="M 247.574219 114.207031 L 254.554688 108.128906 L 259.558594 113.3125 L 252.574219 119.390625 Z M 247.574219 114.207031 "/>
<path style=" stroke:none;fill-rule:nonzero;fill:rgb(39.99939%,39.99939%,39.99939%);fill-opacity:0.3;" d="M 244.121094 90.644531 L 245.664062 87.785156 L 258.304688 99.5 L 255.648438 102.207031 Z M 244.121094 90.644531 "/>
<path style=" stroke:none;fill-rule:nonzero;fill:rgb(39.99939%,39.99939%,39.99939%);fill-opacity:0.3;" d="M 265.042969 148.007812 L 271.214844 142.585938 L 277.191406 148.765625 L 271.058594 154.046875 Z M 265.042969 148.007812 "/>
<path style=" stroke:none;fill-rule:nonzero;fill:rgb(39.99939%,39.99939%,39.99939%);fill-opacity:0.3;" d="M 256.71875 124.429688 L 263.703125 118.351562 L 268.703125 123.535156 L 261.71875 129.613281 Z M 256.71875 124.429688 "/>
<path style=" stroke:none;fill-rule:nonzero;fill:rgb(39.99939%,39.99939%,39.99939%);fill-opacity:0.3;" d="M 265.847656 115.753906 L 272.832031 109.679688 L 277.835938 114.863281 L 270.851562 120.9375 Z M 265.847656 115.753906 "/>
<path style=" stroke:none;fill-rule:nonzero;fill:rgb(39.99939%,39.99939%,39.99939%);fill-opacity:0.3;" d="M 256.746094 92.246094 L 262.242188 86.738281 L 267.589844 91.8125 L 262.097656 97.394531 Z M 256.746094 92.246094 "/>
<path style=" stroke:none;fill-rule:nonzero;fill:rgb(39.99939%,39.99939%,39.99939%);fill-opacity:0.3;" d="M 271.355469 90.59375 L 264.648438 84.234375 L 270.144531 79.226562 L 276.773438 85.300781 Z M 271.355469 90.59375 "/>
<path style=" stroke:none;fill-rule:nonzero;fill:rgb(39.99939%,39.99939%,39.99939%);fill-opacity:0.3;" d="M 251.511719 88.007812 L 247.703125 84.578125 L 262.351562 71.648438 L 266.347656 75.714844 Z M 251.511719 88.007812 "/>
<path style=" stroke:none;fill-rule:nonzero;fill:rgb(39.99939%,39.99939%,39.99939%);fill-opacity:0.3;" d="M 243.589844 77.605469 L 247.316406 73.105469 L 252.074219 77.4375 L 247.226562 81.507812 Z M 243.589844 77.605469 "/>
<path style=" stroke:none;fill-rule:nonzero;fill:rgb(39.99939%,39.99939%,39.99939%);fill-opacity:0.3;" d="M 243.976562 61 L 247.875 57.5625 L 259.875 69.664062 L 256.640625 72.917969 Z M 243.976562 61 "/>
<path style=" stroke:none;fill-rule:nonzero;fill:rgb(39.99939%,39.99939%,39.99939%);fill-opacity:0.3;" d="M 141.179688 311.949219 L 148.558594 313.332031 L 145.808594 314.519531 Z M 141.179688 311.949219 "/>
<path style=" stroke:none;fill-rule:nonzero;fill:rgb(39.99939%,39.99939%,39.99939%);fill-opacity:0.3;" d="M 155.40625 270.855469 L 157.953125 291.773438 L 158.4375 297.15625 L 150.609375 299.421875 L 145.214844 271.429688 Z M 155.40625 270.855469 "/>
<path style=" stroke:none;fill-rule:nonzero;fill:rgb(39.99939%,39.99939%,39.99939%);fill-opacity:0.3;" d="M 143.164062 271.546875 L 148.816406 299.773438 L 139.664062 301.605469 L 133.660156 272.082031 Z M 143.164062 271.546875 "/>
<path style=" stroke:none;fill-rule:nonzero;fill:rgb(39.99939%,39.99939%,39.99939%);fill-opacity:0.3;" d="M 133.632812 272.082031 L 139.652344 301.632812 L 140.949219 309.332031 L 136.933594 308.570312 L 131.867188 301.820312 L 127.492188 272.429688 Z M 133.632812 272.082031 "/>
<path style=" stroke:none;fill-rule:nonzero;fill:rgb(39.99939%,39.99939%,39.99939%);fill-opacity:0.3;" d="M 280.488281 243.933594 L 280.054688 258.136719 L 278.394531 258.800781 L 278.394531 249.15625 L 278.820312 237.6875 L 279.667969 214.753906 L 279.667969 204.136719 L 280.09375 192.667969 L 280.515625 179.925781 L 281.367188 173.980469 L 280.941406 162.9375 L 281.367188 147.648438 L 281.367188 145.527344 L 282.214844 124.289062 L 282.640625 111.972656 L 283.066406 103.480469 L 283.492188 87.765625 L 280.09375 84.367188 L 271.597656 76.296875 L 264.378906 69.078125 L 262.671875 67.414062 L 285.234375 87.964844 Z M 280.488281 243.933594 "/>
<path style=" stroke:none;fill-rule:nonzero;fill:rgb(39.99939%,39.99939%,39.99939%);fill-opacity:0.3;" d="M 296.382812 250.5 L 296.457031 249.652344 L 297.199219 248.734375 L 299.132812 246.757812 L 301.410156 242.769531 L 302.941406 234.949219 L 304.050781 227.65625 L 304.6875 220.292969 L 305.578125 212.8125 L 306.832031 208.304688 L 308.507812 206.183594 L 311.160156 203.132812 L 315.347656 199.554688 L 323.03125 194.910156 L 330.011719 191.0625 L 339.511719 185.621094 L 344.152344 182.566406 L 346.441406 181.367188 L 348.546875 182.199219 L 349.5 183.285156 L 349.828125 185.726562 L 346.347656 229.613281 L 296.976562 250.921875 Z M 296.382812 250.5 "/>
<path style=" stroke:none;fill-rule:nonzero;fill:rgb(39.99939%,39.99939%,39.99939%);fill-opacity:0.3;" d="M 285.019531 179.128906 L 293.863281 179.457031 L 294.546875 182.039062 L 302.605469 182.25 L 301.9375 200.335938 L 293.765625 200.339844 L 292.972656 202.601562 L 284.691406 202.683594 Z M 285.019531 179.128906 "/>
<path style=" stroke:none;fill-rule:nonzero;fill:rgb(39.99939%,39.99939%,39.99939%);fill-opacity:0.3;" d="M 304.734375 175.546875 L 296.589844 175.253906 L 295.804688 172.875 L 285.625 172.140625 L 285.921875 151.339844 L 296.414062 151.332031 L 296.882812 148.957031 L 304.871094 148.949219 Z M 304.734375 175.546875 "/>
<path style=" stroke:none;fill-rule:nonzero;fill:rgb(39.99939%,39.99939%,39.99939%);fill-opacity:0.3;" d="M 322.976562 152.617188 L 333.941406 153.054688 L 335.511719 155.160156 L 341.777344 155.753906 L 341.480469 175.363281 L 335.214844 176.109375 L 333.175781 178.351562 L 322.214844 178.058594 Z M 322.976562 152.617188 "/>
<path style=" stroke:none;fill-rule:nonzero;fill:rgb(39.99939%,39.99939%,39.99939%);fill-opacity:0.3;" d="M 292.246094 106.222656 L 299.554688 106.21875 L 300.21875 108.128906 L 303.992188 108.445312 L 304.113281 111.691406 L 309.667969 111.789062 L 308.710938 138.152344 L 302.503906 138.359375 L 301.929688 140.878906 L 299.238281 140.722656 L 298.015625 142.121094 L 291.75 142.125 Z M 292.246094 106.222656 "/>
<path style=" stroke:none;fill-rule:nonzero;fill:rgb(39.99939%,39.99939%,39.99939%);fill-opacity:0.3;" d="M 311.300781 106.707031 L 303.992188 106.710938 L 303.328125 104.800781 L 299.550781 104.484375 L 299.429688 101.238281 L 293.875 101.140625 L 294.832031 74.78125 L 301.039062 74.574219 L 301.617188 72.050781 L 304.304688 72.207031 L 305.53125 70.8125 L 311.796875 70.808594 Z M 311.300781 106.707031 "/>
<g clip-path="url(#clip5)" clip-rule="nonzero">
<path style=" stroke:none;fill-rule:nonzero;fill:rgb(39.99939%,39.99939%,39.99939%);fill-opacity:0.3;" d="M 283.332031 203.304688 L 286.144531 127.09375 L 288.484375 88.757812 L 245.898438 50.058594 L 245.027344 45.890625 L 274.523438 44.363281 L 288.839844 43.617188 L 354.480469 40.214844 L 357.320312 40.863281 L 359.230469 42.210938 L 360.457031 43.742188 L 361.042969 46.007812 L 361.273438 48.363281 L 356.015625 102.089844 L 351.769531 165.296875 L 350.648438 171.941406 L 346.554688 178.425781 L 334.921875 185.789062 L 327.132812 190.234375 L 316.597656 196.28125 L 310.507812 200.542969 L 307.578125 203.527344 L 304.761719 207.769531 L 303.511719 212.460938 L 302.476562 220.601562 L 300.289062 238.6875 L 298.335938 243.847656 L 294.144531 248.96875 L 290.804688 251.886719 L 284.921875 255.570312 L 281.988281 256.027344 L 281.75 246.183594 L 282.492188 226.050781 Z M 283.332031 203.304688 "/>
</g>
<path style=" stroke:none;fill-rule:nonzero;fill:rgb(39.99939%,39.99939%,39.99939%);fill-opacity:0.3;" d="M 329.535156 124.679688 L 340.5 125.117188 L 342.171875 128.621094 L 350 129.359375 L 348.96875 146.9375 L 342.445312 147.1875 L 339.734375 150.414062 L 328.773438 150.125 Z M 329.535156 124.679688 "/>
<path style=" stroke:none;fill-rule:nonzero;fill:rgb(39.99939%,39.99939%,39.99939%);fill-opacity:0.3;" d="M 352.039062 125.53125 L 344.136719 124.976562 L 344.058594 123.09375 L 340.28125 122.78125 L 340.160156 119.535156 L 334.605469 119.433594 L 335.5625 93.074219 L 341.769531 92.867188 L 342.347656 90.347656 L 345.035156 90.5 L 346.261719 89.105469 L 352.523438 89.101562 Z M 352.039062 125.53125 "/>
<path style=" stroke:none;fill-rule:nonzero;fill:rgb(39.99939%,39.99939%,39.99939%);fill-opacity:0.3;" d="M 337.878906 48.011719 L 345.1875 48.007812 L 345.851562 49.917969 L 349.625 50.234375 L 349.746094 53.480469 L 355.300781 53.578125 L 354.34375 79.941406 L 348.136719 80.144531 L 347.5625 82.667969 L 344.871094 82.511719 L 343.648438 83.90625 L 337.382812 83.914062 Z M 337.878906 48.011719 "/>
<g clip-path="url(#clip6)" clip-rule="nonzero">
<path style=" stroke:none;fill-rule:nonzero;fill:rgb(39.99939%,39.99939%,39.99939%);fill-opacity:0.3;" d="M -68.21875 428.367188 L 145.640625 339.855469 L 147.84375 356.105469 L -68.21875 441.445312 L -142.183594 470.664062 L -163.800781 477.660156 L -173.808594 480.875 L -189.421875 484.273438 L -198.828125 486.730469 L -206.359375 489.101562 L -207.863281 486.167969 Z M -68.21875 428.367188 "/>
</g>
<g clip-path="url(#clip7)" clip-rule="nonzero">
<path style=" stroke:none;fill-rule:nonzero;fill:rgb(39.99939%,39.99939%,39.99939%);fill-opacity:0.3;" d="M 150.191406 336.882812 L 301.421875 273.035156 L 305.292969 272.53125 L 309.472656 272.890625 L 313.785156 274.042969 L 317.0625 275.515625 L 320.34375 277.367188 L 322.257812 278.816406 L 324.324219 280.804688 L 325.886719 282.730469 L 327.039062 284.839844 L 327.621094 288.140625 L 326.464844 299.371094 L 157.566406 366.535156 L 156.050781 366.050781 L 154.675781 364.738281 L 153.578125 362.648438 L 152.632812 359.902344 L 152.039062 356.328125 Z M 150.191406 336.882812 "/>
</g>
<g clip-path="url(#clip8)" clip-rule="nonzero">
<path style=" stroke:none;fill-rule:nonzero;fill:rgb(39.99939%,39.99939%,39.99939%);fill-opacity:0.3;" d="M 190.183594 358.199219 L 233.632812 341.46875 L 311.519531 311.480469 L 323.042969 306.992188 L 323.925781 307.261719 L 324.632812 308.074219 L 325.328125 309.078125 L 325.503906 309.757812 L 325.679688 310.523438 L 326.042969 316.125 L 326.804688 320.164062 L 328.089844 323.492188 L 330.425781 328.015625 L 332.988281 332.179688 L 335.023438 335.074219 L 335.929688 337.480469 L 336.234375 338.96875 L 336.398438 341.441406 L 336.226562 343.578125 L 330.828125 395.390625 L 324.300781 474.148438 L 321.171875 514.519531 L 319.589844 531.589844 L 315.300781 611.433594 L 300.480469 611.433594 L 267.351562 636.070312 L 263.105469 688.308594 L 255.460938 763.90625 L 250.363281 822.515625 L 247.816406 841.628906 L 242.929688 840.824219 L 186.953125 833.453125 L 186.953125 833.265625 L 186.605469 831.085938 L 185.574219 828.898438 L 183.164062 826.480469 L 179.382812 824.488281 L 178.179688 823.875 L 169.667969 811.476562 L 166.558594 806.855469 L 166.476562 804.78125 L 167.246094 790.007812 L 167.929688 784.679688 L 169.984375 778.4375 L 172.589844 772.335938 L 172.726562 769.335938 L 173.863281 747.304688 L 175 735.625 L 176.613281 716.675781 L 182.203125 653.929688 L 190.976562 555.097656 L 164.945312 554.820312 L 173.53125 453.398438 L 142.921875 450.859375 L 141.203125 414.058594 L 141.933594 381.691406 L 142.132812 379.160156 L 142.449219 377.296875 L 144.285156 375.492188 Z M 190.183594 358.199219 "/>
</g>
<path style="fill-rule:nonzero;fill:rgb(39.99939%,39.99939%,39.99939%);fill-opacity:1;stroke-width:0.03;stroke-linecap:square;stroke-linejoin:miter;stroke:rgb(39.99939%,39.99939%,39.99939%);stroke-opacity:1;stroke-miterlimit:3.239307;" d="M 260.972656 309.222656 L 236.679688 318.960938 L 208.566406 65.90625 L 249.765625 64.429688 L 251.546875 81.742188 L 251.941406 87.054688 L 252.160156 90.570312 L 252.160156 96.71875 L 250.1875 101.292969 L 249.1875 102.886719 L 244.515625 111.808594 L 243.242188 114.355469 L 238.996094 121.574219 L 236.871094 126.671875 L 236.871094 130.496094 L 237.445312 135.667969 L 238.453125 146.402344 L 239.1875 155.210938 L 241.496094 179.3125 L 242.546875 189.125 L 243.28125 197.238281 L 244.015625 202.1875 L 244.222656 205.648438 L 244.539062 210.664062 L 247.238281 216.328125 L 248.957031 219.433594 L 252.160156 223.746094 L 257.792969 229.679688 L 259.152344 234.765625 L 259.886719 242.878906 Z M 260.972656 309.222656 " transform="matrix(1,0,0,1,-74,-13)"/>
<path style="fill-rule:nonzero;fill:rgb(39.99939%,39.99939%,39.99939%);fill-opacity:1;stroke-width:0.03;stroke-linecap:square;stroke-linejoin:miter;stroke:rgb(39.99939%,39.99939%,39.99939%);stroke-opacity:1;stroke-miterlimit:3.239307;" d="M 245.789062 229.78125 L 248.070312 229.742188 L 248.121094 232.195312 L 250.421875 232.152344 L 250.371094 229.695312 L 252.652344 229.65625 L 252.71875 235.882812 L 250.441406 235.925781 L 250.46875 234.289062 L 248.164062 234.332031 L 248.136719 235.96875 L 245.859375 236.011719 Z M 245.789062 229.78125 " transform="matrix(1,0,0,1,-74,-13)"/>
<path style="fill-rule:nonzero;fill:rgb(39.99939%,39.99939%,39.99939%);fill-opacity:1;stroke-width:0.03;stroke-linecap:square;stroke-linejoin:miter;stroke:rgb(39.99939%,39.99939%,39.99939%);stroke-opacity:1;stroke-miterlimit:3.239307;" d="M 237.9375 245.84375 L 240.21875 245.800781 L 240.269531 248.253906 L 242.574219 248.210938 L 242.523438 245.757812 L 244.800781 245.714844 L 244.945312 252.390625 L 242.667969 252.433594 L 242.617188 250.351562 L 240.3125 250.394531 L 240.363281 252.476562 L 238.085938 252.519531 Z M 237.9375 245.84375 " transform="matrix(1,0,0,1,-74,-13)"/>
<path style="fill-rule:nonzero;fill:rgb(39.99939%,39.99939%,39.99939%);fill-opacity:1;stroke-width:0.03;stroke-linecap:square;stroke-linejoin:miter;stroke:rgb(39.99939%,39.99939%,39.99939%);stroke-opacity:1;stroke-miterlimit:3.239307;" d="M 237.109375 236.621094 L 239.390625 236.578125 L 239.441406 239.03125 L 241.742188 238.988281 L 241.691406 236.535156 L 243.972656 236.492188 L 244.117188 243.09375 L 241.839844 243.136719 L 241.789062 241.128906 L 239.484375 241.171875 L 239.535156 243.179688 L 237.257812 243.222656 Z M 237.109375 236.621094 " transform="matrix(1,0,0,1,-74,-13)"/>
<path style="fill-rule:nonzero;fill:rgb(39.99939%,39.99939%,39.99939%);fill-opacity:1;stroke-width:0.03;stroke-linecap:square;stroke-linejoin:miter;stroke:rgb(39.99939%,39.99939%,39.99939%);stroke-opacity:1;stroke-miterlimit:3.239307;" d="M 214.171875 258.246094 L 226.101562 256.765625 L 229.40625 283.855469 L 219.214844 284.429688 Z M 214.171875 258.246094 " transform="matrix(1,0,0,1,-74,-13)"/>
<path style="fill-rule:nonzero;fill:rgb(39.99939%,39.99939%,39.99939%);fill-opacity:1;stroke-width:0.03;stroke-linecap:square;stroke-linejoin:miter;stroke:rgb(39.99939%,39.99939%,39.99939%);stroke-opacity:1;stroke-miterlimit:3.239307;" d="M 231.953125 304.773438 L 232.601562 310.109375 L 232.4375 310.15625 Z M 231.953125 304.773438 " transform="matrix(1,0,0,1,-74,-13)"/>
<path style="fill-rule:nonzero;fill:rgb(39.99939%,39.99939%,39.99939%);fill-opacity:1;stroke-width:0.03;stroke-linecap:square;stroke-linejoin:miter;stroke:rgb(39.99939%,39.99939%,39.99939%);stroke-opacity:1;stroke-miterlimit:3.239307;" d="M 202.5625 260.027344 L 211.984375 258.671875 L 217.164062 284.546875 L 207.660156 285.082031 Z M 202.5625 260.027344 " transform="matrix(1,0,0,1,-74,-13)"/>
<path style="fill-rule:nonzero;fill:rgb(39.99939%,39.99939%,39.99939%);fill-opacity:1;stroke-width:0.03;stroke-linecap:square;stroke-linejoin:miter;stroke:rgb(39.99939%,39.99939%,39.99939%);stroke-opacity:1;stroke-miterlimit:3.239307;" d="M 247.59375 240.707031 L 249.871094 240.664062 L 249.921875 243.117188 L 252.226562 243.074219 L 252.175781 240.621094 L 254.453125 240.578125 L 254.601562 247.03125 L 252.324219 247.074219 L 252.273438 245.214844 L 249.96875 245.257812 L 250.019531 247.117188 L 247.738281 247.160156 Z M 247.59375 240.707031 " transform="matrix(1,0,0,1,-74,-13)"/>
<path style="fill-rule:nonzero;fill:rgb(39.99939%,39.99939%,39.99939%);fill-opacity:1;stroke-width:0.03;stroke-linecap:square;stroke-linejoin:miter;stroke:rgb(39.99939%,39.99939%,39.99939%);stroke-opacity:1;stroke-miterlimit:3.239307;" d="M 236.460938 226.730469 L 238.738281 226.6875 L 238.792969 229.140625 L 241.09375 229.097656 L 241.042969 226.644531 L 243.324219 226.601562 L 243.46875 232.757812 L 241.191406 232.800781 L 241.140625 231.238281 L 238.835938 231.28125 L 238.886719 232.84375 L 236.609375 232.886719 Z M 236.460938 226.730469 " transform="matrix(1,0,0,1,-74,-13)"/>
<path style="fill-rule:nonzero;fill:rgb(39.99939%,39.99939%,39.99939%);fill-opacity:1;stroke-width:0.03;stroke-linecap:square;stroke-linejoin:miter;stroke:rgb(39.99939%,39.99939%,39.99939%);stroke-opacity:1;stroke-miterlimit:3.239307;" d="M 236.003906 218.25 L 238.285156 218.207031 L 238.335938 220.660156 L 240.636719 220.617188 L 240.585938 218.164062 L 242.867188 218.121094 L 243.011719 224.578125 L 240.734375 224.621094 L 240.683594 222.753906 L 238.378906 222.796875 L 238.429688 224.664062 L 236.152344 224.707031 Z M 236.003906 218.25 " transform="matrix(1,0,0,1,-74,-13)"/>
<path style="fill-rule:nonzero;fill:rgb(39.99939%,39.99939%,39.99939%);fill-opacity:1;stroke-width:0.03;stroke-linecap:square;stroke-linejoin:miter;stroke:rgb(39.99939%,39.99939%,39.99939%);stroke-opacity:1;stroke-miterlimit:3.239307;" d="M 234.945312 210.089844 L 237.222656 210.046875 L 237.273438 212.5 L 239.578125 212.457031 L 239.527344 210.003906 L 241.804688 209.960938 L 241.953125 216.300781 L 239.675781 216.34375 L 239.625 214.597656 L 237.320312 214.640625 L 237.371094 216.386719 L 235.089844 216.429688 Z M 234.945312 210.089844 " transform="matrix(1,0,0,1,-74,-13)"/>
<path style="fill-rule:nonzero;fill:rgb(39.99939%,39.99939%,39.99939%);fill-opacity:1;stroke-width:0.03;stroke-linecap:square;stroke-linejoin:miter;stroke:rgb(39.99939%,39.99939%,39.99939%);stroke-opacity:1;stroke-miterlimit:3.239307;" d="M 232.34375 200.539062 L 234.621094 200.496094 L 234.671875 202.949219 L 236.976562 202.90625 L 236.925781 200.449219 L 239.203125 200.410156 L 239.351562 206.617188 L 237.070312 206.660156 L 237.019531 205.042969 L 234.71875 205.085938 L 234.769531 206.703125 L 232.488281 206.746094 Z M 232.34375 200.539062 " transform="matrix(1,0,0,1,-74,-13)"/>
<path style="fill-rule:nonzero;fill:rgb(39.99939%,39.99939%,39.99939%);fill-opacity:1;stroke-width:0.03;stroke-linecap:square;stroke-linejoin:miter;stroke:rgb(39.99939%,39.99939%,39.99939%);stroke-opacity:1;stroke-miterlimit:3.239307;" d="M 188.242188 102.890625 L 209.644531 99.429688 L 223.3125 228.394531 L 209.890625 230.507812 Z M 188.242188 102.890625 " transform="matrix(1,0,0,1,-74,-13)"/>
<path style="fill-rule:nonzero;fill:rgb(39.99939%,39.99939%,39.99939%);fill-opacity:1;stroke-width:0.03;stroke-linecap:square;stroke-linejoin:miter;stroke:rgb(39.99939%,39.99939%,39.99939%);stroke-opacity:1;stroke-miterlimit:3.239307;" d="M 241.050781 87.421875 L 243.328125 87.378906 L 243.382812 89.832031 L 245.683594 89.789062 L 245.632812 87.335938 L 247.914062 87.292969 L 248.058594 94.339844 L 245.78125 94.382812 L 245.730469 91.925781 L 243.425781 91.972656 L 243.476562 94.425781 L 241.199219 94.46875 Z M 241.050781 87.421875 " transform="matrix(1,0,0,1,-74,-13)"/>
<path style="fill-rule:nonzero;fill:rgb(39.99939%,39.99939%,39.99939%);fill-opacity:1;stroke-width:0.03;stroke-linecap:square;stroke-linejoin:miter;stroke:rgb(39.99939%,39.99939%,39.99939%);stroke-opacity:1;stroke-miterlimit:3.239307;" d="M 232.160156 88.269531 L 234.4375 88.226562 L 234.488281 90.679688 L 236.792969 90.636719 L 236.742188 88.183594 L 239.019531 88.140625 L 239.167969 95.1875 L 236.890625 95.230469 L 236.835938 92.777344 L 234.535156 92.820312 L 234.585938 95.273438 L 232.304688 95.316406 Z M 232.160156 88.269531 " transform="matrix(1,0,0,1,-74,-13)"/>
<path style="fill-rule:nonzero;fill:rgb(39.99939%,39.99939%,39.99939%);fill-opacity:1;stroke-width:0.03;stroke-linecap:square;stroke-linejoin:miter;stroke:rgb(39.99939%,39.99939%,39.99939%);stroke-opacity:1;stroke-miterlimit:3.239307;" d="M 221.589844 88.277344 L 223.867188 88.234375 L 223.917969 90.6875 L 226.222656 90.644531 L 226.171875 88.191406 L 228.449219 88.148438 L 228.597656 95.195312 L 226.316406 95.238281 L 226.265625 92.785156 L 223.960938 92.828125 L 224.011719 95.28125 L 221.734375 95.324219 Z M 221.589844 88.277344 " transform="matrix(1,0,0,1,-74,-13)"/>
<path style="fill-rule:nonzero;fill:rgb(39.99939%,39.99939%,39.99939%);fill-opacity:1;stroke-width:0.03;stroke-linecap:square;stroke-linejoin:miter;stroke:rgb(39.99939%,39.99939%,39.99939%);stroke-opacity:1;stroke-miterlimit:3.239307;" d="M 224.769531 128.550781 L 227.046875 128.507812 L 227.101562 130.960938 L 229.402344 130.917969 L 229.351562 128.464844 L 231.632812 128.421875 L 231.777344 135.46875 L 229.5 135.511719 L 229.449219 133.058594 L 227.144531 133.101562 L 227.195312 135.554688 L 224.917969 135.597656 Z M 224.769531 128.550781 " transform="matrix(1,0,0,1,-74,-13)"/>
<path style="fill-rule:nonzero;fill:rgb(39.99939%,39.99939%,39.99939%);fill-opacity:1;stroke-width:0.03;stroke-linecap:square;stroke-linejoin:miter;stroke:rgb(39.99939%,39.99939%,39.99939%);stroke-opacity:1;stroke-miterlimit:3.239307;" d="M 235.625 120.269531 L 233.34375 120.300781 L 233.308594 117.847656 L 231.003906 117.878906 L 231.148438 126.519531 L 228.867188 126.550781 L 228.832031 124.097656 L 226.527344 124.128906 L 226.566406 126.582031 L 224.335938 126.613281 L 224.179688 120.425781 L 226.457031 120.394531 L 226.496094 122.847656 L 228.800781 122.816406 L 228.855469 114.082031 L 231.136719 114.050781 L 231.171875 116.503906 L 233.476562 116.472656 L 233.441406 114.019531 L 235.71875 113.988281 Z M 235.625 120.269531 " transform="matrix(1,0,0,1,-74,-13)"/>
<path style="fill-rule:nonzero;fill:rgb(39.99939%,39.99939%,39.99939%);fill-opacity:1;stroke-width:0.03;stroke-linecap:square;stroke-linejoin:miter;stroke:rgb(39.99939%,39.99939%,39.99939%);stroke-opacity:1;stroke-miterlimit:3.239307;" d="M 238.753906 97.027344 L 241.035156 96.984375 L 241.085938 99.4375 L 243.386719 99.394531 L 243.335938 96.941406 L 245.617188 96.898438 L 245.761719 103.945312 L 243.484375 103.988281 L 243.433594 101.53125 L 241.128906 101.578125 L 241.179688 104.03125 L 238.902344 104.074219 Z M 238.753906 97.027344 " transform="matrix(1,0,0,1,-74,-13)"/>
<path style="fill-rule:nonzero;fill:rgb(39.99939%,39.99939%,39.99939%);fill-opacity:1;stroke-width:0.03;stroke-linecap:square;stroke-linejoin:miter;stroke:rgb(39.99939%,39.99939%,39.99939%);stroke-opacity:1;stroke-miterlimit:3.239307;" d="M 239.964844 105.871094 L 240.109375 112.917969 L 237.832031 112.960938 L 237.78125 110.503906 L 235.476562 110.550781 L 235.527344 113.003906 L 233.25 113.046875 L 233.050781 103.546875 L 230.746094 103.589844 L 230.796875 106.042969 L 228.519531 106.085938 L 228.425781 99.039062 L 230.652344 98.996094 L 230.703125 101.449219 L 233.007812 101.40625 L 232.957031 98.953125 L 235.234375 98.910156 L 235.433594 108.410156 L 237.734375 108.367188 L 237.683594 105.914062 Z M 239.964844 105.871094 " transform="matrix(1,0,0,1,-74,-13)"/>
<path style="fill-rule:nonzero;fill:rgb(39.99939%,39.99939%,39.99939%);fill-opacity:1;stroke-width:0.03;stroke-linecap:square;stroke-linejoin:miter;stroke:rgb(39.99939%,39.99939%,39.99939%);stroke-opacity:1;stroke-miterlimit:3.239307;" d="M 214.171875 258.246094 L 213.074219 258.449219 L 211.980469 258.648438 L 202.519531 259.996094 L 207.632812 285.082031 L 201.492188 285.429688 L 205.867188 314.820312 L 210.933594 321.570312 L 125.429688 305.34375 L 127.722656 292.734375 L 138.339844 231.578125 L 140.460938 220.535156 L 142.160156 205.246094 L 142.585938 194.203125 L 144.59375 194.503906 L 144.710938 194.671875 L 139.726562 227.578125 L 141.109375 227.804688 L 142.535156 228.039062 L 147.378906 194.921875 L 156.414062 196.28125 L 165.929688 197.859375 L 193.722656 203.28125 L 193.640625 201.828125 L 202.980469 203.074219 L 208.097656 232.695312 L 223.851562 230.570312 L 226.101562 256.761719 Z M 214.171875 258.246094 " transform="matrix(1,0,0,1,-74,-13)"/>
<path style="fill-rule:nonzero;fill:rgb(39.99939%,39.99939%,39.99939%);fill-opacity:1;stroke-width:0.03;stroke-linecap:square;stroke-linejoin:miter;stroke:rgb(39.99939%,39.99939%,39.99939%);stroke-opacity:1;stroke-miterlimit:3.239307;" d="M 179.871094 67.34375 L 187.359375 66.984375 L 205.921875 66.175781 L 208.992188 97.722656 L 185.386719 101.285156 L 199.675781 183.96875 L 188.453125 124.972656 Z M 179.871094 67.34375 " transform="matrix(1,0,0,1,-74,-13)"/>
<g clip-path="url(#clip9)" clip-rule="nonzero">
<path style=" stroke:none;fill-rule:evenodd;fill:rgb(85.096741%,85.096741%,81.959534%);fill-opacity:0.7;" d="M 89.988281 346 C 89.988281 341.496094 88.199219 337.171875 85.011719 333.988281 C 81.828125 330.800781 77.503906 329.011719 73 329.011719 C 68.496094 329.011719 64.171875 330.800781 60.988281 333.988281 C 57.800781 337.171875 56.011719 341.496094 56.011719 346 C 56.011719 350.503906 57.800781 354.828125 60.988281 358.011719 C 64.171875 361.199219 68.496094 362.988281 73 362.988281 C 77.503906 362.988281 81.828125 361.199219 85.011719 358.011719 C 88.199219 354.828125 89.988281 350.503906 89.988281 346 Z M 89.988281 346 "/>
</g>
<path style=" stroke:none;fill-rule:evenodd;fill:rgb(85.096741%,85.096741%,81.959534%);fill-opacity:0.7;" d="M 131.988281 55 C 131.988281 50.496094 130.199219 46.171875 127.011719 42.988281 C 123.828125 39.800781 119.503906 38.011719 115 38.011719 C 110.496094 38.011719 106.171875 39.800781 102.988281 42.988281 C 99.800781 46.171875 98.011719 50.496094 98.011719 55 C 98.011719 59.503906 99.800781 63.828125 102.988281 67.011719 C 106.171875 70.199219 110.496094 71.988281 115 71.988281 C 119.503906 71.988281 123.828125 70.199219 127.011719 67.011719 C 130.199219 63.828125 131.988281 59.503906 131.988281 55 Z M 131.988281 55 "/>
<path style=" stroke:none;fill-rule:evenodd;fill:rgb(85.096741%,85.096741%,81.959534%);fill-opacity:0.7;" d="M 68.988281 15 C 68.988281 10.496094 67.199219 6.171875 64.011719 2.988281 C 60.828125 -0.199219 56.503906 -1.988281 52 -1.988281 C 47.496094 -1.988281 43.171875 -0.199219 39.988281 2.988281 C 36.800781 6.171875 35.011719 10.496094 35.011719 15 C 35.011719 19.503906 36.800781 23.828125 39.988281 27.011719 C 43.171875 30.199219 47.496094 31.988281 52 31.988281 C 56.503906 31.988281 60.828125 30.199219 64.011719 27.011719 C 67.199219 23.828125 68.988281 19.503906 68.988281 15 Z M 68.988281 15 "/>
<path style=" stroke:none;fill-rule:evenodd;fill:rgb(85.096741%,85.096741%,81.959534%);fill-opacity:0.7;" d="M 205.988281 139 C 205.988281 134.496094 204.199219 130.171875 201.011719 126.988281 C 197.828125 123.800781 193.503906 122.011719 189 122.011719 C 184.496094 122.011719 180.171875 123.800781 176.988281 126.988281 C 173.800781 130.171875 172.011719 134.496094 172.011719 139 C 172.011719 143.503906 173.800781 147.828125 176.988281 151.011719 C 180.171875 154.199219 184.496094 155.988281 189 155.988281 C 193.503906 155.988281 197.828125 154.199219 201.011719 151.011719 C 204.199219 147.828125 205.988281 143.503906 205.988281 139 Z M 205.988281 139 "/>
<path style=" stroke:none;fill-rule:evenodd;fill:rgb(85.096741%,85.096741%,81.959534%);fill-opacity:0.7;" d="M 15.988281 33 C 15.988281 28.496094 14.199219 24.171875 11.011719 20.988281 C 7.828125 17.800781 3.503906 16.011719 -1 16.011719 C -5.503906 16.011719 -9.828125 17.800781 -13.011719 20.988281 C -16.199219 24.171875 -17.988281 28.496094 -17.988281 33 C -17.988281 37.503906 -16.199219 41.828125 -13.011719 45.011719 C -9.828125 48.199219 -5.503906 49.988281 -1 49.988281 C 3.503906 49.988281 7.828125 48.199219 11.011719 45.011719 C 14.199219 41.828125 15.988281 37.503906 15.988281 33 Z M 15.988281 33 "/>
<path style=" stroke:none;fill-rule:evenodd;fill:rgb(85.096741%,85.096741%,81.959534%);fill-opacity:0.7;" d="M 157.988281 317 C 157.988281 312.496094 156.199219 308.171875 153.011719 304.988281 C 149.828125 301.800781 145.503906 300.011719 141 300.011719 C 136.496094 300.011719 132.171875 301.800781 128.988281 304.988281 C 125.800781 308.171875 124.011719 312.496094 124.011719 317 C 124.011719 321.503906 125.800781 325.828125 128.988281 329.011719 C 132.171875 332.199219 136.496094 333.988281 141 333.988281 C 145.503906 333.988281 149.828125 332.199219 153.011719 329.011719 C 156.199219 325.828125 157.988281 321.503906 157.988281 317 Z M 157.988281 317 "/>
<path style="fill-rule:nonzero;fill:rgb(99.998474%,99.998474%,30.587769%);fill-opacity:0.8;stroke-width:0.288;stroke-linecap:square;stroke-linejoin:miter;stroke:rgb(0%,0%,0%);stroke-opacity:0.8;stroke-miterlimit:3.25;" d="M 167.644531 38.332031 L 130.863281 102.039062 L 204.425781 102.039062 Z M 167.644531 38.332031 " transform="matrix(1,0,0,1,-74,-13)"/>
</g>
</svg>
