<?xml version="1.0" encoding="UTF-8"?>
<svg xmlns="http://www.w3.org/2000/svg" xmlns:xlink="http://www.w3.org/1999/xlink" width="361pt" height="361pt" viewBox="0 0 361 361" version="1.1">
<defs>
<clipPath id="clip1">
  <path d="M 0 332 L 20 332 L 20 360 L 0 360 Z M 0 332 "/>
</clipPath>
<clipPath id="clip2">
  <path d="M 0 327 L 2 327 L 2 360 L 0 360 Z M 0 327 "/>
</clipPath>
<clipPath id="clip3">
  <path d="M 2 333 L 30 333 L 30 360 L 2 360 Z M 2 333 "/>
</clipPath>
<clipPath id="clip4">
  <path d="M 33 347 L 54 347 L 54 360 L 33 360 Z M 33 347 "/>
</clipPath>
<clipPath id="clip5">
  <path d="M 0 357 L 39 357 L 39 360 L 0 360 Z M 0 357 "/>
</clipPath>
</defs>
<g id="surface3479">
<path style="fill-rule:nonzero;fill:rgb(0%,0%,0%);fill-opacity:1;stroke-width:0.03;stroke-linecap:square;stroke-linejoin:miter;stroke:rgb(0%,0%,0%);stroke-opacity:1;stroke-miterlimit:10;" d="M 0 178 L 360 178 L 360 -182 L 0 -182 Z M 0 178 " transform="matrix(1,0,0,1,0,182)"/>
<path style=" stroke:none;fill-rule:nonzero;fill:rgb(39.99939%,39.99939%,39.99939%);fill-opacity:0.3;" d="M 54.496094 23.214844 L 43.972656 18.078125 L 43.417969 17.96875 L 43.039062 18.050781 L 42.746094 18.207031 L 42.355469 19.007812 L 41.742188 20.933594 L 35.398438 29.871094 L 34.4375 29.113281 L 34.121094 28.15625 L 24.238281 21.085938 L 22.410156 19.644531 L 13.828125 13.375 L 13.960938 12.9375 L 27.625 7.246094 L 28.214844 7.152344 L 29.988281 7.710938 L 39.019531 13.269531 L 58.714844 21.664062 L 59.320312 21.132812 L 59.992188 20.542969 L 33.230469 6.960938 L 32.9375 6.125 L 40.015625 3.417969 L 44.898438 -1.929688 L 45.910156 -1.898438 L 70.902344 10.570312 L 78.316406 13.734375 L 82.511719 15.3125 L 75.421875 21.460938 L 63.398438 21.460938 L 55.734375 28.777344 L 55.113281 28.4375 Z M 54.496094 23.214844 "/>
<path style=" stroke:none;fill-rule:nonzero;fill:rgb(39.99939%,39.99939%,39.99939%);fill-opacity:0.3;" d="M 3.375 6.617188 L 17.726562 -11.914062 L 22.613281 -8.597656 L 15.238281 0.582031 L 15.523438 0.847656 L 15.894531 1.195312 L 23.636719 -7.851562 L 24.242188 -7.824219 L 37.1875 -0.328125 L 37.1875 -0.0507812 L 36.96875 0.566406 L 36.238281 1.394531 L 11.601562 11.617188 Z M 3.375 6.617188 "/>
<path style=" stroke:none;fill-rule:nonzero;fill:rgb(39.99939%,39.99939%,39.99939%);fill-opacity:0.3;" d="M 94.828125 3.683594 L 82.808594 12.800781 L 81.613281 12.703125 L 43.945312 -4.527344 L 42.757812 -4.613281 L 42.164062 -4.421875 L 39.382812 -1.605469 L 31.96875 -5.851562 L 43.632812 -18.460938 L 44.84375 -18.976562 L 47.089844 -18.609375 L 44.160156 -13.289062 L 44.910156 -12.949219 L 45.664062 -12.605469 L 48.730469 -17.617188 L 88.929688 -0.09375 Z M 94.828125 3.683594 "/>
<path style=" stroke:none;fill-rule:nonzero;fill:rgb(39.99939%,39.99939%,39.99939%);fill-opacity:0.3;" d="M 65.425781 -26.660156 L 103.667969 -14.066406 L 103.078125 -11.53125 L 98.585938 -2.117188 L 97.253906 0.910156 L 96.84375 0.960938 L 95.5625 0.871094 L 44.359375 -21.613281 L 44.0625 -22.171875 L 46.242188 -26.375 L 46.636719 -27.589844 L 46.738281 -30.011719 L 47.035156 -31.039062 L 47.332031 -31.878906 L 48.121094 -31.695312 L 57.8125 -28.207031 L 62.261719 -26.832031 L 64.238281 -26.84375 Z M 65.425781 -26.660156 "/>
<path style=" stroke:none;fill-rule:nonzero;fill:rgb(39.99939%,39.99939%,39.99939%);fill-opacity:0.3;" d="M 47.011719 38.5625 L 47.027344 38.550781 L 52.574219 30.28125 L 53.859375 30.992188 L 47.441406 38.871094 Z M 47.011719 38.5625 "/>
<path style=" stroke:none;fill-rule:nonzero;fill:rgb(39.99939%,39.99939%,39.99939%);fill-opacity:0.3;" d="M 37.75 31.722656 L 45.070312 21.476562 L 51.527344 25.453125 L 44.230469 35.8125 L 38.613281 32.402344 Z M 37.75 31.722656 "/>
<path style=" stroke:none;fill-rule:nonzero;fill:rgb(39.99939%,39.99939%,39.99939%);fill-opacity:0.3;" d="M 76.929688 250.488281 L 75.53125 262.007812 L 74.292969 262.375 L 68.265625 260.867188 L 66.449219 259.996094 L 65.066406 259.328125 L 64.195312 258.585938 L 62.453125 257.648438 L 61.292969 256.429688 L 59.984375 254.1875 L 44.191406 249.054688 L 42.910156 248.3125 L 43.105469 241.929688 L 43.84375 241.871094 L 49.011719 245.152344 L 51.414062 245.941406 L 51.414062 244.574219 L 51.417969 243.207031 L 48.070312 242.703125 L 44.429688 240.148438 L 42.941406 237.875 L 47.195312 211.140625 L 49.644531 193.976562 L 50.054688 193.285156 L 50.601562 192.851562 L 51.011719 192.761719 L 54.367188 194.066406 L 53.179688 196.765625 L 54.160156 197.148438 L 55.316406 197.582031 L 56.390625 195.226562 L 60.835938 197.027344 L 61.371094 196.015625 L 61.90625 195.007812 L 58.714844 193.585938 L 61.078125 189.828125 L 60.085938 189.285156 L 59.097656 188.738281 L 56.542969 192.46875 L 52.410156 190.953125 L 44.464844 186.796875 L 56.238281 172.601562 L 56.367188 169.9375 L 63.761719 182.878906 L 61.949219 195.210938 L 68.839844 197.386719 L 55.417969 248.171875 Z M 76.929688 250.488281 "/>
<path style=" stroke:none;fill-rule:nonzero;fill:rgb(39.99939%,39.99939%,39.99939%);fill-opacity:0.3;" d="M 8.550781 285.09375 L 12.988281 287.804688 L 13.078125 288.230469 L 13.082031 288.824219 L 12.75 289.238281 L 10.683594 290.054688 L 6.382812 291.671875 L 8.179688 296.027344 L 13.449219 303.835938 L 13.273438 304.429688 L 6.570312 308.726562 L -9.082031 323.648438 L -9.707031 323.894531 L -10.507812 323.886719 L -11.84375 323.535156 L -28.75 316.449219 L -14.175781 304.902344 L -14.738281 304.324219 L -15.261719 303.792969 L -16.902344 305.050781 L -24.890625 293.574219 L -24.710938 293.152344 L -14.519531 290.386719 L -11.207031 295.261719 L -7.464844 292.371094 L -4.265625 289.898438 L -5.339844 288.355469 L -5.164062 287.679688 L -4.542969 287.433594 L -0.292969 286.21875 L 4.570312 284.9375 Z M 8.550781 285.09375 "/>
<path style=" stroke:none;fill-rule:nonzero;fill:rgb(39.99939%,39.99939%,39.99939%);fill-opacity:0.3;" d="M -6.90625 139.300781 L -16.449219 177.171875 L -13.335938 177.730469 L 15.082031 163.117188 L 20.285156 158.511719 L 26.304688 162.164062 L 22.257812 166.972656 L -2.546875 178.949219 L -1.660156 181.101562 L -0.785156 183.222656 L 9.707031 178.605469 L 16.804688 179.464844 L 20.367188 172.175781 L 21.9375 170.398438 L 30.683594 165.59375 L 31.523438 165.582031 L 37.578125 170.710938 L 8.304688 202.222656 L -1.546875 194.105469 L 5.742188 187.347656 L 4.753906 186.808594 L 3.867188 186.328125 L -3.0625 192.671875 L -14.835938 183.269531 L -14.910156 181.425781 L -16.085938 181.5 L -16.160156 181.503906 L -17.226562 181.574219 L -17.207031 184.382812 L -34 205.03125 L -40.132812 201.140625 L -38.527344 188.28125 L -38.394531 186.636719 L -38.574219 184.988281 L -39.109375 183.847656 L -39.378906 182.285156 L -39.003906 175.546875 L -39.644531 175.4375 L -39.761719 175.417969 L -40.425781 175.304688 L -41.21875 179.859375 L -41.621094 179.097656 L -42.203125 178 L -43.765625 175.71875 L -47.949219 169.554688 L -50.476562 165.46875 L -53.027344 162.628906 L -53.980469 161.726562 L -60.085938 156.855469 L -61.078125 156.484375 L -61.359375 156.214844 L -60.960938 150.953125 L -59.828125 150.964844 L -59.375 146.738281 L -58.707031 145.949219 L -45.988281 132.425781 L -45.769531 131.253906 L -39.078125 120.84375 L -38.558594 120.308594 L -38.164062 120.0625 L -37.816406 120.109375 L -28.757812 126.050781 L -34.917969 135.75 L -38.578125 133.527344 L -45.636719 144.582031 L -50.835938 150.015625 L -43.476562 157.761719 L -44.511719 160.082031 L -43.589844 160.652344 L -42.589844 161.269531 L -40.355469 155.636719 L -34.027344 139.589844 L -22.394531 145.125 L -22.136719 143.652344 L -21.898438 142.308594 L -32.3125 136.789062 L -26.847656 127.585938 Z M -6.90625 139.300781 "/>
<path style=" stroke:none;fill-rule:nonzero;fill:rgb(39.99939%,39.99939%,39.99939%);fill-opacity:0.3;" d="M 43.265625 250.027344 L 56.789062 254.480469 L 57.65625 255.015625 L 58.0625 255.613281 L 58.757812 256.476562 L 59.335938 257.558594 L 59.972656 258.261719 L 60.957031 259.066406 L 62.289062 259.761719 L 63.910156 260.449219 L 65.066406 260.929688 L 71.667969 262.929688 L 72.480469 263.355469 L 72.710938 263.679688 L 72.769531 264.226562 L 72.003906 272.246094 L 71.714844 272.632812 L 71.074219 272.859375 L 70.207031 272.8125 L 41.125 266.386719 L 40.660156 266.121094 L 40.542969 265.851562 L 41.75 250.539062 L 42.042969 250.152344 L 42.507812 250.039062 Z M 43.265625 250.027344 "/>
<path style=" stroke:none;fill-rule:nonzero;fill:rgb(39.99939%,39.99939%,39.99939%);fill-opacity:0.3;" d="M -15.84375 186.152344 L -5.234375 195.195312 L -22.773438 216.679688 L -21.722656 217.441406 L -20.675781 218.207031 L -2.980469 196.574219 L 5.875 203.742188 L -4.84375 215.316406 L -8.636719 213.4375 L -9.226562 214.066406 L -9.949219 214.835938 L -6.503906 216.667969 L -36.402344 248.6875 L -35.914062 242.328125 L -36.664062 242.285156 L -37.425781 242.238281 L -37.953125 249.433594 L -40.59375 250.484375 L -44.445312 249.621094 L -48.660156 246.585938 L -51.269531 244.082031 L -51.132812 243.054688 L -46.929688 240.550781 L -45.011719 238.925781 L -44.199219 235.636719 L -39.074219 236.808594 L -39.046875 236.085938 L -39.019531 235.484375 L -46.734375 232.90625 L -46.121094 224.675781 L -45.4375 223.128906 L -34.527344 225.71875 L -34.476562 225.125 L -34.421875 224.53125 L -44.109375 221.773438 L -40.054688 202.976562 L -34.320312 207.191406 L -36.984375 210.453125 L -36.398438 210.871094 L -35.859375 211.257812 L -32.824219 207.449219 Z M -15.84375 186.152344 "/>
<path style=" stroke:none;fill-rule:nonzero;fill:rgb(39.99939%,39.99939%,39.99939%);fill-opacity:0.3;" d="M -3.339844 80.800781 L 3.347656 89.742188 L 3.453125 90.039062 L 3.453125 90.386719 L 3.347656 90.683594 L 3.300781 90.785156 L -0.441406 94.371094 L -0.558594 94.464844 L -0.730469 94.351562 L -10.121094 86.261719 L -10.121094 85.914062 L -10.011719 85.46875 L -9.695312 85.164062 L -3.972656 80.824219 Z M -3.339844 80.800781 "/>
<path style=" stroke:none;fill-rule:nonzero;fill:rgb(39.99939%,39.99939%,39.99939%);fill-opacity:0.3;" d="M 0.511719 82.226562 L 12.285156 75.066406 L 12.847656 75.007812 L 13.296875 75.109375 L 13.746094 75.367188 L 14.027344 75.734375 L 14.25 76.15625 L 14.078125 78.164062 L 13.796875 78.800781 L 13.234375 79.652344 L 5.226562 88.878906 L 4.832031 88.78125 L 4.4375 88.625 L 4.160156 88.257812 L 0.566406 82.757812 Z M 0.511719 82.226562 "/>
<path style=" stroke:none;fill-rule:nonzero;fill:rgb(39.99939%,39.99939%,39.99939%);fill-opacity:0.3;" d="M 6.035156 68.644531 L 1.648438 65.460938 L -14.140625 53.183594 L -14.324219 52.898438 L -14.324219 52.855469 L 1.734375 64.988281 Z M 6.035156 68.644531 "/>
<path style=" stroke:none;fill-rule:nonzero;fill:rgb(39.99939%,39.99939%,39.99939%);fill-opacity:0.3;" d="M -14.375 57.992188 L -13.082031 57.21875 L 10.535156 74.144531 L 0.3125 81.394531 L -3.78125 74.632812 L -0.867188 72.765625 L -1.097656 72.546875 L -1.355469 72.304688 L -4.238281 74.070312 Z M -14.375 57.992188 "/>
<path style=" stroke:none;fill-rule:nonzero;fill:rgb(39.99939%,39.99939%,39.99939%);fill-opacity:0.3;" d="M 13.800781 319.527344 L 16.863281 327.007812 L 16.730469 327.53125 L 11.117188 330.402344 L 9.675781 331.039062 L 7.957031 331.277344 L 6.375 331.1875 L 4.308594 330.703125 L 3.410156 330.296875 L 3.132812 329.964844 L 3.128906 329.304688 L 3.742188 327.867188 L 4.90625 326.367188 L 7.710938 323.378906 L 12.566406 319.835938 Z M 13.800781 319.527344 "/>
<path style=" stroke:none;fill-rule:nonzero;fill:rgb(39.99939%,39.99939%,39.99939%);fill-opacity:0.3;" d="M 49.628906 304.066406 L 63.191406 312.882812 L 63.519531 313.25 L 63.515625 313.683594 L 63.320312 314.179688 L 47.972656 324.484375 L 46.714844 325.003906 L 45.253906 325.472656 L 39.078125 327.230469 L 33.699219 327.78125 L 23.828125 327.929688 L 20.507812 327.925781 L 19.421875 327.785156 L 18.972656 327.53125 L 18.652344 327.339844 L 17.160156 324.066406 L 15.207031 318.332031 L 20.367188 316.035156 L 22.5625 319.816406 L 21.671875 320.289062 L 22.011719 320.828125 L 22.382812 321.40625 L 24.144531 320.398438 L 34.15625 314.257812 L 38.621094 311.167969 L 48.96875 304.015625 Z M 49.628906 304.066406 "/>
<path style=" stroke:none;fill-rule:nonzero;fill:rgb(39.99939%,39.99939%,39.99939%);fill-opacity:0.3;" d="M 55.816406 291.621094 L 64.8125 295.785156 L 73.929688 301.226562 L 76.878906 303.082031 L 79.015625 303.953125 L 83.664062 304.847656 L 85.164062 304.925781 L 85.761719 305.027344 L 86.390625 305.226562 L 86.746094 305.488281 L 86.886719 305.855469 L 86.851562 306.1875 L 86.5625 306.632812 L 81.578125 315.4375 L 78.460938 319.09375 L 61.128906 339.820312 L 60.046875 338.746094 L 58.890625 339.558594 L 52.835938 333.054688 L 49.039062 328.945312 L 48.355469 327.472656 L 49.054688 326.429688 L 50.324219 325.644531 L 67.34375 314.101562 L 52.820312 304.316406 L 46.71875 300.945312 L 46.25 300.515625 L 46.304688 300.074219 L 46.460938 299.582031 L 55.09375 291.945312 Z M 55.816406 291.621094 "/>
<path style=" stroke:none;fill-rule:nonzero;fill:rgb(39.99939%,39.99939%,39.99939%);fill-opacity:0.3;" d="M 15.914062 305.867188 L 19.871094 313.824219 L 19.875 314.28125 L 19.058594 315.253906 L 17.488281 316.207031 L 16.535156 316.71875 L 15.097656 317.152344 L 13.246094 317.648438 L 12.152344 318.089844 L 11.398438 318.601562 L 0.308594 328.515625 L -0.449219 328.503906 L -5.984375 323.96875 L -5.988281 323.507812 L -5.785156 322.71875 L 6.351562 312.804688 L 6.695312 312.21875 L 9.765625 308.78125 L 14.953125 305.519531 Z M 15.914062 305.867188 "/>
<path style=" stroke:none;fill-rule:nonzero;fill:rgb(39.99939%,39.99939%,39.99939%);fill-opacity:0.3;" d="M 39.117188 283.707031 L 42.132812 285.066406 L 45.214844 286.878906 L 46.859375 287.6875 L 47.816406 287.863281 L 49.121094 288.035156 L 49.804688 288.085938 L 54.046875 289.753906 L 54.320312 290.074219 L 54.316406 290.523438 L 53.5625 291.433594 L 45.179688 298.523438 L 44.628906 298.597656 L 34.332031 293.785156 L 34.058594 293.46875 L 37.332031 283.808594 Z M 39.117188 283.707031 "/>
<path style=" stroke:none;fill-rule:nonzero;fill:rgb(39.99939%,39.99939%,39.99939%);fill-opacity:0.3;" d="M 42.117188 268.703125 L 72.320312 275.6875 L 72.796875 276.003906 L 73 276.386719 L 73.136719 277.09375 L 72.378906 282.621094 L 72.101562 284.164062 L 71.417969 286.097656 L 70.800781 287.066406 L 70.253906 287.84375 L 65.191406 293.558594 L 64.644531 293.695312 L 64.03125 293.636719 L 59.59375 291.644531 L 59.046875 291.074219 L 58.636719 290.371094 L 58.09375 289.671875 L 39.550781 281.363281 L 39.140625 280.789062 L 40.480469 269.253906 L 40.824219 268.730469 L 41.304688 268.59375 Z M 42.117188 268.703125 "/>
<path style=" stroke:none;fill-rule:nonzero;fill:rgb(39.99939%,39.99939%,39.99939%);fill-opacity:0.3;" d="M 16.285156 289.230469 L 28.707031 295.089844 L 27.457031 296.078125 L 16.433594 302.292969 L 10.371094 292.640625 L 10.289062 292.117188 L 10.484375 291.746094 L 15.464844 289.289062 Z M 16.285156 289.230469 "/>
<path style=" stroke:none;fill-rule:nonzero;fill:rgb(39.99939%,39.99939%,39.99939%);fill-opacity:0.3;" d="M 74.398438 289.050781 L 88.964844 292.613281 L 91.148438 297.820312 L 88.652344 303.824219 L 88.296875 304.210938 L 87.789062 304.308594 L 85.300781 304.191406 L 82.101562 303.699219 L 80.578125 303.191406 L 78.851562 302.589844 L 68.335938 296.683594 L 67.980469 296.210938 L 68.082031 295.875 L 71.292969 292.726562 L 72.210938 291.519531 L 73.6875 289.394531 Z M 74.398438 289.050781 "/>
<path style=" stroke:none;fill-rule:nonzero;fill:rgb(39.99939%,39.99939%,39.99939%);fill-opacity:0.3;" d="M 78.339844 255.707031 L 78.796875 250.6875 L 78.996094 250.710938 Z M 78.339844 255.707031 "/>
<path style=" stroke:none;fill-rule:nonzero;fill:rgb(39.99939%,39.99939%,39.99939%);fill-opacity:0.3;" d="M -20.585938 268.675781 L -15.996094 268.554688 L -13.539062 268.671875 L -11.949219 268.867188 L -10.722656 269.1875 L -9.675781 269.503906 L -8.628906 269.910156 L -8.085938 270.265625 L -7.628906 270.792969 L 3.808594 281.945312 L 3.675781 282.289062 L 3.453125 282.460938 L 2.953125 282.539062 L 1.007812 282.636719 L -1.574219 282.683594 L -3.886719 282.910156 L -5.472656 283.105469 L -6.152344 283.402344 L -14.140625 285.386719 L -14.550781 285.378906 L -14.960938 285.160156 L -16.203125 284.246094 L -9.699219 282.730469 L -9.910156 282.289062 L -10.101562 281.886719 L -16.792969 283.320312 L -23.535156 270.816406 L -23.582031 270.339844 L -23.492188 269.773438 L -23.085938 269.300781 L -22.539062 269.046875 L -21.949219 268.878906 Z M -20.585938 268.675781 "/>
<path style=" stroke:none;fill-rule:nonzero;fill:rgb(39.99939%,39.99939%,39.99939%);fill-opacity:0.3;" d="M 16.722656 304.726562 L 32.363281 296.046875 L 47.453125 302.992188 L 23.902344 318.121094 L 18.402344 308.207031 L 27.222656 307.871094 L 27.289062 307.015625 L 27.34375 306.285156 L 17.648438 306.28125 Z M 16.722656 304.726562 "/>
<path style=" stroke:none;fill-rule:nonzero;fill:rgb(39.99939%,39.99939%,39.99939%);fill-opacity:0.3;" d="M 22.21875 268.242188 L 22.1875 266.984375 L 31.71875 266.132812 L 37.496094 267.546875 L 36.453125 279.359375 L 24.421875 274.523438 L 24.207031 270.785156 Z M 22.21875 268.242188 "/>
<path style=" stroke:none;fill-rule:nonzero;fill:rgb(39.99939%,39.99939%,39.99939%);fill-opacity:0.3;" d="M 10.132812 283.367188 L 21.042969 275.71875 L 34.945312 282.644531 L 30.261719 292.917969 L 16.660156 287.476562 Z M 10.132812 283.367188 "/>
<path style=" stroke:none;fill-rule:nonzero;fill:rgb(39.99939%,39.99939%,39.99939%);fill-opacity:0.3;" d="M 78.410156 288.40625 L 74.15625 287.390625 L 74.191406 287.171875 Z M 78.410156 288.40625 "/>
<path style=" stroke:none;fill-rule:nonzero;fill:rgb(39.99939%,39.99939%,39.99939%);fill-opacity:0.3;" d="M 76.683594 264.386719 L 77.183594 264.511719 L 76.015625 273.539062 L 75.601562 273.453125 Z M 76.683594 264.386719 "/>
<path style=" stroke:none;fill-rule:nonzero;fill:rgb(39.99939%,39.99939%,39.99939%);fill-opacity:0.3;" d="M 13.632812 205.953125 L 42.945312 212.125 L 43.585938 212.34375 L 43.984375 212.714844 L 44.382812 213.160156 L 44.542969 213.6875 L 41.449219 235.941406 L 41.367188 236.246094 L 40.964844 236.25 L 40.484375 236.03125 L 26.773438 226.453125 L 25.40625 225.496094 L 24.363281 224.984375 L 23.394531 224.703125 L 0.941406 218.019531 L 0.628906 217.640625 L 0.625 217.195312 L 1.039062 215.976562 L 10.121094 205.914062 L 11.453125 205.769531 Z M 13.632812 205.953125 "/>
<path style=" stroke:none;fill-rule:nonzero;fill:rgb(39.99939%,39.99939%,39.99939%);fill-opacity:0.3;" d="M 29.898438 183.90625 L 47.75 191.535156 L 47.921875 192.179688 L 47.054688 198.492188 L 46.625 198.65625 L 25.414062 188.871094 Z M 29.898438 183.90625 "/>
<path style=" stroke:none;fill-rule:nonzero;fill:rgb(39.99939%,39.99939%,39.99939%);fill-opacity:0.3;" d="M 53.917969 165.648438 L 53.277344 171.988281 L 53.105469 172.390625 L 42.351562 185.992188 L 33.671875 182.214844 L 33.671875 181.8125 L 47.449219 165.984375 L 48.652344 164.679688 L 49.683594 163.699219 L 50.335938 163.117188 L 51.070312 162.585938 L 51.699219 162.160156 L 51.871094 162.066406 Z M 53.917969 165.648438 "/>
<path style=" stroke:none;fill-rule:nonzero;fill:rgb(39.99939%,39.99939%,39.99939%);fill-opacity:0.3;" d="M 24.03125 191.300781 L 45.492188 199.808594 L 43.90625 210.792969 L 12.550781 204.003906 Z M 24.03125 191.300781 "/>
<path style=" stroke:none;fill-rule:nonzero;fill:rgb(39.99939%,39.99939%,39.99939%);fill-opacity:0.3;" d="M -8.574219 243.664062 L -18.007812 236.53125 L -2.15625 219.5 L 17.917969 224.871094 L 38.851562 238.625 L 39.179688 239.046875 L 38.878906 242.183594 L 38.46875 242.90625 L 37.054688 244.796875 L 36.703125 244.96875 L 24.507812 240.214844 L 25.335938 241.816406 L 26.203125 243.5 L 36.140625 247.6875 L 36.828125 248.265625 L 37.398438 248.847656 L 37.738281 249.597656 L 37.910156 250.453125 L 37.0625 265.519531 L 36.660156 265.632812 L 33.792969 264.449219 L 32.992188 264.140625 L 29.828125 264.308594 L 26.398438 264.761719 L 24.589844 265.335938 L 20.726562 264.996094 L 19.71875 264.890625 L 12.75 253.722656 L 11.746094 254.378906 L 10.71875 255.054688 L 22.714844 272.550781 L 22.492188 273.515625 L 15.070312 278.15625 L 14.601562 277.945312 L 11 273.542969 L 10.472656 274.003906 L 9.714844 274.660156 L 9.824219 275.308594 L 11.859375 277.9375 L 11.96875 278.636719 L 11.714844 279.179688 L 7.949219 281.992188 L -4.90625 269.632812 L -6.835938 268.160156 L -10.128906 266.617188 L -6.953125 257.382812 L -7.46875 257.445312 L -7.988281 257.507812 L -11.28125 266.246094 L -12.773438 265.941406 L -14.808594 265.773438 L -17.441406 265.550781 L -25.4375 265.84375 L -26.285156 265.5 L -27.484375 264.253906 L -22.132812 260.847656 L -18.21875 258.425781 L -18.226562 257.429688 L -7.484375 247.027344 L 6.898438 230.003906 L 5.972656 229.316406 L 4.816406 228.460938 Z M -8.574219 243.664062 "/>
<g clip-path="url(#clip1)" clip-rule="nonzero">
<path style=" stroke:none;fill-rule:nonzero;fill:rgb(39.99939%,39.99939%,39.99939%);fill-opacity:0.3;" d="M 10.023438 333.113281 L 0.226562 345.054688 L 0.230469 345.9375 L 3.117188 348.226562 L 3.9375 348.335938 L 4.660156 348.441406 L 6.308594 349.832031 L 6.550781 350.207031 L 6.550781 350.421875 L 6.414062 350.640625 L 3.925781 353.390625 L 4.128906 353.523438 L 4.335938 353.65625 L 7.144531 351.039062 L 7.464844 351.042969 L 7.875 351.265625 L 8.058594 351.570312 L 11.980469 355.589844 L 13.53125 357.375 L 19.570312 363.757812 L 19.660156 364.511719 L 15.152344 367.964844 L 10.328125 372.390625 L 8.492188 373.992188 L 7.761719 373.976562 L 3.835938 371.78125 L -3.570312 365.925781 L -1.988281 364.140625 L -2.429688 363.617188 L -2.828125 363.136719 L -4.527344 364.933594 L -12.378906 358.972656 L -13.304688 358.765625 L -14.132812 358.074219 L -14.339844 357.484375 L -14.035156 356.894531 L -6.453125 346.949219 L 3.871094 333.917969 L 4.171875 333.632812 L 4.464844 333.527344 L 4.855469 333.457031 L 9.558594 332.914062 Z M 10.023438 333.113281 "/>
</g>
<g clip-path="url(#clip2)" clip-rule="nonzero">
<path style=" stroke:none;fill-rule:nonzero;fill:rgb(39.99939%,39.99939%,39.99939%);fill-opacity:0.3;" d="M -10.800781 327.351562 L -3.429688 330.703125 L 1.351562 332.511719 L 1.722656 332.867188 L 1.75 333.25 L 1.707031 333.679688 L -2.21875 338.96875 L -11.8125 351.332031 L -14.867188 355.167969 L -17.191406 359.25 L -27.992188 371.441406 L -28.21875 371.507812 L -28.472656 371.484375 L -28.769531 371.351562 L -29 371.175781 L -34.242188 366.632812 L -34.378906 366.410156 L -34.355469 366.152344 L -34.21875 365.847656 L -34.035156 365.585938 L -21.652344 348.796875 L -19.449219 345.652344 L -15.792969 337.136719 L -11.414062 327.8125 Z M -10.800781 327.351562 "/>
</g>
<g clip-path="url(#clip3)" clip-rule="nonzero">
<path style=" stroke:none;fill-rule:nonzero;fill:rgb(39.99939%,39.99939%,39.99939%);fill-opacity:0.3;" d="M 12.863281 333.554688 L 21.648438 340.9375 L 21.746094 341.410156 L 21.457031 341.78125 L 19.421875 343.667969 L 19.171875 343.988281 L 19.132812 344.308594 L 19.300781 344.675781 L 19.515625 344.964844 L 29.40625 355.378906 L 29.574219 355.746094 L 29.578125 356.191406 L 29.285156 356.628906 L 22.4375 362.667969 L 21.910156 362.855469 L 21.414062 362.847656 L 20.84375 362.671875 L 20.453125 362.394531 L 18.59375 360.363281 L 14.554688 355.878906 L 12.179688 353.492188 L 7.628906 349.386719 L 2.730469 346.019531 Z M 12.863281 333.554688 "/>
</g>
<path style=" stroke:none;fill-rule:nonzero;fill:rgb(39.99939%,39.99939%,39.99939%);fill-opacity:0.3;" d="M 27.941406 329.6875 L 28.824219 330.175781 L 29.511719 330.566406 L 43.878906 346.179688 L 44.078125 346.839844 L 43.667969 347.136719 L 43.054688 347.25 L 41.636719 347.277344 L 40.371094 347.527344 L 31.4375 354.554688 L 30.75 354.542969 L 21.863281 344.511719 L 21.761719 343.945312 L 22.054688 343.574219 L 24.203125 342.015625 L 14.433594 333.203125 L 14.234375 332.542969 L 15.308594 331.335938 L 16.289062 331.164062 L 18.933594 330.546875 L 22.363281 329.859375 L 26.179688 329.460938 Z M 27.941406 329.6875 "/>
<g clip-path="url(#clip4)" clip-rule="nonzero">
<path style=" stroke:none;fill-rule:nonzero;fill:rgb(39.99939%,39.99939%,39.99939%);fill-opacity:0.3;" d="M 33.042969 355.246094 L 38.246094 351.308594 L 39.625 350.410156 L 41.097656 349.777344 L 42.660156 349.632812 L 45.519531 349.316406 L 49.417969 348.058594 L 52.511719 347.367188 L 53.207031 347.613281 L 53.496094 348.339844 L 46.957031 355.785156 L 40.320312 362.828125 L 39.71875 362.902344 L 39.300781 362.671875 L 33.046875 356.226562 Z M 33.042969 355.246094 "/>
</g>
<path style=" stroke:none;fill-rule:nonzero;fill:rgb(39.99939%,39.99939%,39.99939%);fill-opacity:0.3;" d="M 32.847656 329.347656 L 46.203125 327.355469 L 59.441406 341.214844 L 47.5625 346.183594 Z M 32.847656 329.347656 "/>
<g clip-path="url(#clip5)" clip-rule="nonzero">
<path style=" stroke:none;fill-rule:nonzero;fill:rgb(39.99939%,39.99939%,39.99939%);fill-opacity:0.3;" d="M -1.417969 406.300781 L -14.394531 387.722656 L -10.898438 385.554688 L -6.710938 383.050781 L -4.5 382.039062 L -1.484375 381.070312 L 1.636719 380.238281 L 4.742188 379.109375 L 7.082031 377.613281 L 9.171875 375.84375 L 13.375 372.402344 L 16.992188 369.035156 L 18.847656 367.339844 L 20.296875 366.332031 L 22.089844 364.789062 L 29.609375 358.4375 L 31.171875 357.828125 L 38.09375 364.414062 L 27.3125 376.035156 L 25.246094 379.535156 L 20.078125 386.679688 L 16.683594 391.023438 L 6.914062 400.042969 Z M -1.417969 406.300781 "/>
</g>
<path style=" stroke:none;fill-rule:nonzero;fill:rgb(39.99939%,39.99939%,39.99939%);fill-opacity:0.3;" d="M 56.785156 161.371094 L 56.945312 161.027344 L 58.046875 161.203125 L 59.054688 161.589844 L 60.253906 162.160156 L 61.128906 162.765625 L 62.007812 163.523438 L 62.851562 164.3125 L 63.5625 165.101562 L 64.308594 166.074219 L 65.765625 168.507812 L 66.546875 169.910156 L 68.511719 173.523438 L 74.902344 184.023438 L 81.824219 196.601562 L 84.125 205.128906 L 84.472656 214.171875 L 83.578125 223.894531 L 81.4375 231.785156 L 80.898438 237.988281 L 81.414062 242.96875 L 78.386719 243.597656 L 68.035156 245.753906 L 67.960938 246.484375 L 67.875 247.34375 L 77.460938 246.121094 L 76.929688 250.488281 L 55.417969 248.171875 L 68.839844 197.386719 L 61.949219 195.210938 L 63.761719 182.878906 L 56.367188 169.9375 Z M 56.785156 161.371094 "/>
<path style=" stroke:none;fill-rule:nonzero;fill:rgb(39.99939%,39.99939%,39.99939%);fill-opacity:0.3;" d="M 80.613281 147.101562 L 82.550781 147.179688 L 83.230469 146.808594 L 84.488281 146.527344 L 89.332031 146.042969 L 89.816406 146.132812 L 90.011719 146.496094 L 89.519531 158.097656 L 89.421875 162.757812 L 89.710938 167.140625 L 90 168.507812 L 90.289062 169.148438 L 91.0625 169.597656 L 91.9375 169.683594 L 92.625 169.894531 L 93.300781 170.621094 L 93.6875 171.167969 L 105.296875 193.480469 L 107.449219 197.5 L 107.992188 198.625 L 108.144531 199.351562 L 108.222656 199.972656 L 108.296875 200.84375 L 108.296875 201.679688 L 108.21875 202.519531 L 107.949219 203.613281 L 107.449219 204.636719 L 105.4375 208.070312 L 104.484375 209.296875 L 97.394531 209.75 L 89.351562 210.15625 L 87.5 210.109375 L 86.21875 209.625 L 86.121094 205.96875 L 86.414062 205.511719 L 94.265625 205.640625 L 93.78125 201.898438 L 86.320312 202.3125 L 85.257812 196.929688 L 96.59375 193.289062 L 96.355469 192.699219 L 96.113281 192.105469 L 84.289062 195.566406 L 83.707031 195.476562 L 83.027344 195.117188 L 82.738281 194.570312 L 76.917969 183.613281 L 78.179688 183.058594 L 78.085938 182.417969 L 76.53125 182.0625 L 75.273438 179.972656 L 75.855469 179.417969 L 78.960938 178.757812 L 80.898438 178.742188 L 84.289062 178.902344 L 89.8125 178.316406 L 89.554688 177.542969 L 89.328125 176.859375 L 85.9375 177.15625 L 84 177.167969 L 82.644531 176.902344 L 81.480469 176.730469 L 80.222656 176.738281 L 74.789062 177.964844 L 74.210938 177.695312 L 73.53125 177.332031 L 69.464844 170.507812 L 69.367188 169.777344 L 69.65625 169.320312 L 70.046875 169.226562 L 78.332031 169.238281 L 85.582031 169.410156 L 85.414062 168.292969 L 85.265625 167.292969 L 80.460938 167.363281 L 80.226562 164.175781 L 80.328125 158.144531 L 80.621094 157.503906 L 81.007812 157.316406 L 86.917969 157.28125 L 86.917969 155.910156 L 80.425781 155.859375 L 79.941406 155.679688 L 79.75 155.042969 L 80.140625 147.730469 Z M 80.613281 147.101562 "/>
<path style=" stroke:none;fill-rule:nonzero;fill:rgb(39.99939%,39.99939%,39.99939%);fill-opacity:0.3;" d="M 65.480469 158.796875 L 66.648438 158.496094 L 68.820312 158.554688 L 70.449219 158.613281 L 71.539062 158.386719 L 72.46875 158.308594 L 77.203125 158.203125 L 77.667969 158.492188 L 77.902344 158.855469 L 78.660156 164.210938 L 78.769531 165.363281 L 78.820312 165.964844 L 78.449219 166.292969 L 77.242188 166.378906 L 76.3125 166.46875 L 72.78125 166.472656 L 70.828125 166.648438 L 68.816406 165.574219 L 67.886719 163.609375 L 65.015625 159.679688 Z M 65.480469 158.796875 "/>
<path style=" stroke:none;fill-rule:nonzero;fill:rgb(39.99939%,39.99939%,39.99939%);fill-opacity:0.3;" d="M 63.9375 147.617188 L 66.65625 147.742188 L 78.140625 146.859375 L 78.839844 147 L 79.148438 147.292969 L 79.304688 147.730469 L 79.066406 154.96875 L 78.835938 155.484375 L 78.214844 155.707031 L 77.359375 155.714844 L 67.890625 156.4375 L 66.882812 156.8125 L 66.183594 156.890625 L 62.921875 156.769531 L 62.609375 156.476562 L 63.082031 148.425781 Z M 63.9375 147.617188 "/>
<path style=" stroke:none;fill-rule:nonzero;fill:rgb(39.99939%,39.99939%,39.99939%);fill-opacity:0.3;" d="M 79.84375 117.808594 L 97.253906 122.160156 L 95.589844 130.472656 L 77.460938 126 Z M 79.84375 117.808594 "/>
<path style=" stroke:none;fill-rule:nonzero;fill:rgb(39.99939%,39.99939%,39.99939%);fill-opacity:0.3;" d="M 98.117188 120.554688 L 80.039062 115.976562 L 82.980469 106.660156 L 100.734375 111.542969 Z M 98.117188 120.554688 "/>
<path style=" stroke:none;fill-rule:nonzero;fill:rgb(39.99939%,39.99939%,39.99939%);fill-opacity:0.3;" d="M 96.234375 86.71875 L 93.871094 96.75 L 93.578125 96.9375 L 92.988281 96.847656 L 81.179688 92.917969 L 80.789062 92.644531 L 80.789062 91.992188 L 80.984375 87.816406 L 81.578125 84.566406 L 81.972656 83.265625 L 82.269531 82.796875 L 86.992188 76.648438 L 101.457031 57.566406 L 102.636719 58.023438 L 92.992188 84.96875 L 93.1875 85.621094 L 93.875 85.988281 L 95.644531 86.257812 Z M 96.234375 86.71875 "/>
<path style=" stroke:none;fill-rule:nonzero;fill:rgb(39.99939%,39.99939%,39.99939%);fill-opacity:0.3;" d="M 85.449219 75.070312 L 80.636719 80.421875 L 79.851562 80.332031 L 75.226562 78.316406 L 75.144531 78.214844 L 86.613281 57.007812 L 89.210938 51.53125 L 89.898438 51.429688 L 91.570312 51.605469 L 93.242188 51.96875 L 94.519531 52.425781 L 100.910156 55.183594 L 95.664062 61.230469 Z M 85.449219 75.070312 "/>
<path style=" stroke:none;fill-rule:nonzero;fill:rgb(39.99939%,39.99939%,39.99939%);fill-opacity:0.3;" d="M 69.164062 115.578125 L 77.925781 117.242188 L 75.25 125.644531 L 67.039062 124.691406 Z M 69.164062 115.578125 "/>
<path style=" stroke:none;fill-rule:nonzero;fill:rgb(39.99939%,39.99939%,39.99939%);fill-opacity:0.3;" d="M 78.808594 115.199219 L 70.300781 113.132812 L 72.222656 104.085938 L 81.394531 106.359375 Z M 78.808594 115.199219 "/>
<path style=" stroke:none;fill-rule:nonzero;fill:rgb(39.99939%,39.99939%,39.99939%);fill-opacity:0.3;" d="M 62.898438 114.496094 L 66.984375 115.410156 L 61.386719 137.476562 L 59.863281 157.679688 L 59.527344 157.6875 L 57.964844 157.132812 L 56.527344 156.855469 L 55.253906 156.765625 L 54.128906 156.796875 L 53.09375 156.925781 L 51.625 157.285156 L 51.429688 157.234375 L 60.5 122.300781 Z M 62.898438 114.496094 "/>
<path style=" stroke:none;fill-rule:nonzero;fill:rgb(39.99939%,39.99939%,39.99939%);fill-opacity:0.3;" d="M 117.824219 251.191406 L 120.195312 255.152344 L 126.34375 260.769531 L 117.011719 284.835938 L 105.363281 280.261719 L 117.21875 251.253906 Z M 117.824219 251.191406 "/>
<path style=" stroke:none;fill-rule:nonzero;fill:rgb(39.99939%,39.99939%,39.99939%);fill-opacity:0.3;" d="M 104.105469 282.070312 L 115.792969 286.488281 L 111.660156 295.65625 L 98.460938 308.570312 L 94.03125 305.734375 L 95.351562 300.324219 L 97.003906 296.425781 Z M 104.105469 282.070312 "/>
<path style=" stroke:none;fill-rule:nonzero;fill:rgb(39.99939%,39.99939%,39.99939%);fill-opacity:0.3;" d="M 87.71875 222.273438 L 96.539062 223.390625 L 97.050781 223.558594 L 97.34375 223.867188 L 97.417969 224.214844 L 97.417969 224.527344 L 97.34375 224.839844 L 96.867188 226.921875 L 96.863281 227.683594 L 96.53125 230.042969 L 96.3125 230.613281 L 94.949219 231.910156 L 94.445312 232 L 93.445312 232.007812 L 92.945312 232.308594 L 92.488281 234.847656 L 92.304688 236.265625 L 92.300781 238.5 L 92.4375 240.429688 L 93.027344 243.257812 L 93.574219 244.953125 L 93.941406 245.953125 L 94.183594 247.378906 L 94.265625 248.417969 L 94.675781 249.84375 L 95.328125 251.691406 L 95.941406 253.460938 L 96.675781 254.882812 L 97.945312 256.1875 L 98.558594 256.722656 L 98.964844 257.335938 L 99.25 258.144531 L 99.472656 259.949219 L 99.644531 261.441406 L 99.855469 262.085938 L 100.15625 262.691406 L 100.371094 263.496094 L 100.5 264.183594 L 100.710938 265.757812 L 100.75 269.554688 L 100.707031 270.203125 L 100.40625 270.527344 L 100.109375 270.609375 L 99.550781 270.574219 L 99.164062 270.417969 L 98.953125 270.09375 L 98.867188 268.710938 L 98.707031 266.449219 L 98.507812 265.433594 L 98.148438 264.339844 L 97.628906 263.101562 L 96.949219 261.671875 L 96.230469 260.546875 L 94.234375 257.09375 L 93.476562 255.96875 L 92.714844 254.957031 L 89.519531 249.964844 L 87.058594 246.273438 L 85.636719 243.917969 L 85.210938 242.9375 L 84.832031 241.914062 L 84.546875 241.066406 L 84.265625 239.949219 L 84.074219 238.699219 L 84.03125 237.136719 L 84.125 235.550781 L 84.335938 234.410156 L 84.652344 232.773438 L 85.128906 230.496094 L 85.867188 225.984375 L 86.183594 223.359375 L 86.394531 222.667969 L 86.710938 222.367188 L 87.078125 222.316406 Z M 87.71875 222.273438 "/>
<path style=" stroke:none;fill-rule:nonzero;fill:rgb(39.99939%,39.99939%,39.99939%);fill-opacity:0.3;" d="M 90.410156 211.511719 L 98.082031 211.453125 L 102.15625 211.402344 L 103.480469 211.25 L 104.25 211.378906 L 102.5 215.890625 L 100.691406 219.640625 L 98.535156 221.90625 L 97.835938 222.1875 L 97.019531 222.246094 L 88.28125 221.15625 L 87.699219 220.828125 L 87.289062 220.449219 L 86.941406 219.40625 L 87.0625 211.65625 Z M 90.410156 211.511719 "/>
<path style=" stroke:none;fill-rule:nonzero;fill:rgb(39.99939%,39.99939%,39.99939%);fill-opacity:0.3;" d="M 107.257812 211.492188 L 110.640625 212.269531 L 112.175781 212.859375 L 112.757812 213.003906 L 113.65625 212.898438 L 114.449219 212.695312 L 115.292969 212.589844 L 116.085938 212.585938 L 117.089844 212.78125 L 118.359375 213.273438 L 118.730469 213.667969 L 118.886719 214.019531 L 111.269531 229.175781 L 110.550781 231.308594 L 110.109375 233.492188 L 108.84375 235.738281 L 107.796875 236.003906 L 107.078125 236.214844 L 106.417969 240.378906 L 106.582031 242.089844 L 107.296875 242.347656 L 110.050781 244.511719 L 111.867188 245.121094 L 113.355469 245.996094 L 115.886719 247.644531 L 116.664062 248.527344 L 116.765625 249.015625 L 104.121094 278.964844 L 101.039062 277.6875 L 100.632812 276.695312 L 100.472656 276.160156 L 102.585938 270.484375 L 102.75 269.179688 L 101.699219 261.691406 L 100.570312 255.425781 L 100.003906 254.207031 L 99.433594 253.828125 L 98.625 253.453125 L 98.054688 253.074219 L 96.433594 250.179688 L 95.300781 246.59375 L 95.0625 243.761719 L 94.324219 240.261719 L 94.8125 237.125 L 95.140625 236.738281 L 96.113281 236.65625 L 97.089844 232.671875 L 97.171875 230.835938 L 98.0625 229.453125 L 98.878906 224.167969 L 102.367188 221.316406 L 102.933594 220.625 L 106.585938 211.808594 Z M 107.257812 211.492188 "/>
<path style=" stroke:none;fill-rule:nonzero;fill:rgb(39.99939%,39.99939%,39.99939%);fill-opacity:0.3;" d="M 118.449219 155.425781 L 119.554688 156.980469 L 120.378906 157.890625 L 121.621094 158.664062 L 126.574219 162.101562 L 117.203125 181.714844 L 110.03125 178.761719 L 109.617188 179.285156 L 109.203125 179.804688 L 110.445312 181.359375 L 115.132812 183.417969 L 114.996094 184.851562 L 115.960938 185.105469 L 115.960938 187.449219 L 116.648438 187.503906 L 117.476562 187.570312 L 117.476562 185.75 L 117.890625 184.964844 L 127.339844 188.660156 L 127.675781 189.164062 L 124.867188 194.664062 L 122.988281 196.132812 L 121.882812 201.730469 L 118.984375 211.769531 L 117.882812 212.035156 L 107.8125 209.621094 L 111.125 202.3125 L 110.4375 197.238281 L 110.164062 195.679688 L 109.75 194.898438 L 107.820312 193.347656 L 97.480469 173.234375 L 96.238281 171.550781 L 95.964844 168.6875 L 103.277344 165 L 103.277344 164.222656 L 105.902344 162.644531 L 106.726562 161.46875 L 111.96875 157.929688 Z M 118.449219 155.425781 "/>
<path style=" stroke:none;fill-rule:nonzero;fill:rgb(39.99939%,39.99939%,39.99939%);fill-opacity:0.3;" d="M 149.132812 146.949219 L 146.535156 151.558594 L 143.613281 155.453125 L 138.738281 165.484375 L 130.296875 161.332031 L 129.863281 160.722656 L 129.753906 160.007812 L 129.972656 158.777344 L 130.621094 157.449219 L 137.011719 146.589844 L 139.175781 143.414062 L 140.800781 141.058594 L 144.371094 133.585938 L 145.886719 131.742188 L 146.644531 128.878906 L 148.59375 125.191406 L 148.8125 122.535156 L 150.757812 121.507812 L 156.601562 122.609375 L 156.816406 127.410156 L 151.296875 136.113281 L 151.296875 137.339844 L 149.457031 142.761719 L 150.105469 143.472656 Z M 149.132812 146.949219 "/>
<path style=" stroke:none;fill-rule:nonzero;fill:rgb(39.99939%,39.99939%,39.99939%);fill-opacity:0.3;" d="M 72.558594 91.75 L 76.996094 93.382812 L 77.191406 93.746094 L 77.125 94.171875 L 76.671875 94.78125 L 72.410156 100.40625 L 71.828125 101.140625 L 71.503906 101.871094 L 71.117188 102.726562 L 68.851562 111.992188 L 64.03125 110.734375 L 66.300781 103.074219 L 67.027344 98.722656 L 67.390625 93.28125 L 67.390625 89.425781 Z M 72.558594 91.75 "/>
<path style=" stroke:none;fill-rule:nonzero;fill:rgb(39.99939%,39.99939%,39.99939%);fill-opacity:0.3;" d="M 82.417969 94.976562 L 95.0625 99.230469 L 95.253906 99.59375 L 95.253906 99.957031 L 92.671875 106.90625 L 92.285156 107.214844 L 91.640625 107.214844 L 90.867188 107.097656 L 74.992188 102.5 L 75.125 101.890625 L 80.226562 96.386719 L 80.417969 95.472656 L 80.675781 94.863281 L 80.871094 94.738281 Z M 82.417969 94.976562 "/>
<path style=" stroke:none;fill-rule:nonzero;fill:rgb(39.99939%,39.99939%,39.99939%);fill-opacity:0.3;" d="M 79.960938 83.175781 L 78.761719 91.570312 L 78.464844 91.992188 L 77.917969 92.089844 L 77.371094 92 L 67.390625 87.835938 L 67.390625 87.476562 L 69.242188 78.226562 L 79.3125 82.519531 L 79.660156 82.800781 Z M 79.960938 83.175781 "/>
<path style=" stroke:none;fill-rule:nonzero;fill:rgb(39.99939%,39.99939%,39.99939%);fill-opacity:0.3;" d="M 153.59375 171.398438 L 140.472656 166.089844 L 144.910156 155.875 L 157.945312 161.15625 Z M 153.59375 171.398438 "/>
<path style=" stroke:none;fill-rule:nonzero;fill:rgb(39.99939%,39.99939%,39.99939%);fill-opacity:0.3;" d="M 121.523438 233.316406 L 125.796875 235.433594 L 128.265625 234.179688 L 159.554688 164.746094 L 161.097656 164.128906 L 164.023438 165.4375 L 164.421875 166.460938 L 165.488281 169.207031 L 166.386719 173.824219 L 166.875 176.210938 L 166.554688 179.828125 L 142.355469 239.109375 L 139.996094 244.609375 L 138.027344 248.082031 L 135.019531 254.648438 L 132.226562 255.175781 L 128.09375 256.640625 L 124.3125 253.792969 L 121.570312 250.847656 L 122.03125 249.996094 L 118.695312 247.367188 L 116.089844 244.835938 Z M 121.523438 233.316406 "/>
<path style=" stroke:none;fill-rule:nonzero;fill:rgb(39.99939%,39.99939%,39.99939%);fill-opacity:0.3;" d="M 139.335938 168.585938 L 152.394531 173.734375 L 143.175781 194.199219 L 130.191406 188.824219 Z M 139.335938 168.585938 "/>
<path style=" stroke:none;fill-rule:nonzero;fill:rgb(39.99939%,39.99939%,39.99939%);fill-opacity:0.3;" d="M 127.996094 190.527344 L 142.238281 196.492188 L 125.449219 233.203125 L 120.847656 230.898438 L 113.929688 245.070312 L 109.320312 242.925781 L 109.980469 239.039062 L 111.796875 234.523438 L 117.394531 222.378906 L 121.34375 213.507812 L 122.664062 205.738281 L 124.640625 197.65625 Z M 127.996094 190.527344 "/>
<path style=" stroke:none;fill-rule:nonzero;fill:rgb(39.99939%,39.99939%,39.99939%);fill-opacity:0.3;" d="M 66.355469 126.507812 L 78.214844 128.292969 L 95.464844 132.753906 L 94.574219 143.921875 L 81.429688 145.578125 L 81.300781 140.007812 L 80.917969 140.054688 L 80.539062 140.105469 L 80.769531 145.621094 L 69.515625 145.964844 L 69.699219 140.296875 L 69.261719 140.246094 L 68.828125 140.195312 L 68.789062 146.027344 L 63.632812 146.324219 L 64.042969 135.53125 Z M 66.355469 126.507812 "/>
<path style=" stroke:none;fill-rule:nonzero;fill:rgb(39.99939%,39.99939%,39.99939%);fill-opacity:0.3;" d="M 127.933594 163.390625 L 136.707031 167.632812 L 128.132812 187.960938 L 118.28125 183.878906 Z M 127.933594 163.390625 "/>
<path style=" stroke:none;fill-rule:nonzero;fill:rgb(39.99939%,39.99939%,39.99939%);fill-opacity:0.3;" d="M 139.53125 129.691406 L 142.097656 125.648438 L 143.304688 124.15625 L 146.660156 125.890625 L 143.722656 132.054688 L 137.800781 141.757812 L 134.789062 146.355469 L 133.925781 146.765625 L 130.695312 152.382812 L 128.007812 159.636719 L 127.46875 159.738281 L 122.507812 156.574219 L 121.429688 155.554688 L 120.242188 154.230469 L 119.808594 153.410156 L 119.699219 152.390625 L 119.855469 151.832031 L 120.992188 150.859375 L 122.179688 150.550781 L 126.921875 149.015625 L 135.859375 137.574219 L 136.289062 135.226562 L 136.824219 133.386719 Z M 139.53125 129.691406 "/>
<path style=" stroke:none;fill-rule:nonzero;fill:rgb(39.99939%,39.99939%,39.99939%);fill-opacity:0.3;" d="M 88.964844 292.613281 L 91.863281 293.320312 L 92.164062 293.511719 L 92.316406 293.890625 L 92.316406 294.226562 L 92.265625 295.132812 L 91.148438 297.820312 Z M 88.964844 292.613281 "/>
<path style=" stroke:none;fill-rule:nonzero;fill:rgb(39.99939%,39.99939%,39.99939%);fill-opacity:0.3;" d="M 83.191406 244.3125 L 87.839844 251.316406 L 89.316406 253.496094 L 90.9375 256.144531 L 92.910156 260.113281 L 93.613281 262.035156 L 94.175781 264.023438 L 94.242188 265.753906 L 94.101562 266.285156 L 93.75 266.421875 L 78.796875 261.902344 L 78.234375 261.507812 L 77.878906 260.78125 L 78.339844 255.707031 L 78.996094 250.710938 L 78.796875 250.6875 L 79.308594 245.007812 L 79.59375 244.609375 L 79.875 244.40625 L 82.34375 244.183594 Z M 83.191406 244.3125 "/>
<path style=" stroke:none;fill-rule:nonzero;fill:rgb(39.99939%,39.99939%,39.99939%);fill-opacity:0.3;" d="M 75.785156 277.050781 L 94.277344 280.820312 L 93.019531 291.894531 L 78.410156 288.40625 L 74.191406 287.171875 Z M 75.785156 277.050781 "/>
<path style=" stroke:none;fill-rule:nonzero;fill:rgb(39.99939%,39.99939%,39.99939%);fill-opacity:0.3;" d="M 77.183594 264.511719 L 95.480469 269.027344 L 94.027344 277.21875 L 76.015625 273.539062 Z M 77.183594 264.511719 "/>
<path style=" stroke:none;fill-rule:nonzero;fill:rgb(39.99939%,39.99939%,39.99939%);fill-opacity:0.3;" d="M 54.320312 161.640625 L 53.917969 165.648438 L 51.871094 162.066406 L 52.34375 161.800781 L 52.84375 161.578125 L 53.203125 161.539062 Z M 54.320312 161.640625 "/>
<path style=" stroke:none;fill-rule:nonzero;fill:rgb(39.99939%,39.99939%,39.99939%);fill-opacity:0.3;" d="M 35.398438 29.871094 L 34.914062 30.554688 L 34.4375 29.113281 Z M 35.398438 29.871094 "/>
<path style=" stroke:none;fill-rule:nonzero;fill:rgb(39.99939%,39.99939%,39.99939%);fill-opacity:0.3;" d="M 24.238281 21.085938 L 13.761719 13.589844 L 13.828125 13.375 L 22.410156 19.644531 Z M 24.238281 21.085938 "/>
<path style=" stroke:none;fill-rule:nonzero;fill:rgb(39.99939%,39.99939%,39.99939%);fill-opacity:0.3;" d="M 75.421875 21.460938 L 70.515625 25.710938 L 61.207031 31.761719 L 55.734375 28.777344 L 63.398438 21.460938 Z M 75.421875 21.460938 "/>
<path style=" stroke:none;fill-rule:nonzero;fill:rgb(39.99939%,39.99939%,39.99939%);fill-opacity:0.3;" d="M -30.589844 -41.78125 L -0.96875 -23.070312 L -6.847656 -14.339844 L -6.203125 -13.886719 L -5.589844 -13.457031 L 0.574219 -22.339844 L 11.792969 -16.722656 L 12.40625 -16.246094 L 12.714844 -15.476562 L 12.816406 -14.707031 L 12.8125 -13.933594 L 12.402344 -13.257812 L 2.234375 0.328125 L 1.617188 0.71875 L 0.898438 0.726562 L -0.0273438 0.542969 L -0.742188 0.261719 L -1.976562 1.71875 L -2.695312 1.726562 L -5.46875 0.304688 L -11.421875 -3.109375 L -13.167969 -4.246094 L -14.195312 -5.394531 L -15.632812 -6.34375 L -20.976562 -10.433594 L -22.417969 -10.996094 L -25.195312 -11.347656 L -27.253906 -11.613281 L -30.035156 -12.15625 L -31.582031 -12.621094 L -33.4375 -13.5625 L -44.976562 -22.085938 L -38.753906 -30.871094 L -38.238281 -31.070312 L -37.515625 -30.886719 L -29.386719 -25.96875 L -17.769531 -19.832031 L -17.398438 -20.429688 L -17.046875 -20.996094 L -26.089844 -26.105469 L -27.53125 -26.570312 L -37.207031 -31.761719 L -37.410156 -32.238281 L -37.410156 -32.914062 L -31.414062 -41.289062 Z M -30.589844 -41.78125 "/>
<path style=" stroke:none;fill-rule:nonzero;fill:rgb(39.99939%,39.99939%,39.99939%);fill-opacity:0.3;" d="M 35.378906 51.359375 L 44.292969 39.835938 L 51.179688 44.542969 L 41.929688 57.449219 Z M 35.378906 51.359375 "/>
<path style=" stroke:none;fill-rule:nonzero;fill:rgb(39.99939%,39.99939%,39.99939%);fill-opacity:0.3;" d="M 19.710938 38.050781 L -5.023438 16.550781 L 1.070312 9.414062 L 27.238281 28.925781 L 43.128906 39.777344 L 34.113281 51.046875 Z M 19.710938 38.050781 "/>
<path style=" stroke:none;fill-rule:nonzero;fill:rgb(39.99939%,39.99939%,39.99939%);fill-opacity:0.3;" d="M -7.710938 19.761719 L 3.511719 28.164062 L -10.113281 43.257812 L -12.363281 41.667969 L -13.210938 42.71875 L -14.035156 43.738281 L -11.964844 45.316406 L -15.414062 49.164062 L -25.949219 41.777344 Z M -7.710938 19.761719 "/>
<path style=" stroke:none;fill-rule:nonzero;fill:rgb(39.99939%,39.99939%,39.99939%);fill-opacity:0.3;" d="M 28.878906 66.617188 L 28.914062 66.5 L 29.988281 65.929688 Z M 28.878906 66.617188 "/>
<path style=" stroke:none;fill-rule:nonzero;fill:rgb(39.99939%,39.99939%,39.99939%);fill-opacity:0.3;" d="M 34.082031 63.335938 L 38.007812 60.53125 L 36.195312 62.085938 L 34.101562 63.382812 Z M 34.082031 63.335938 "/>
<path style=" stroke:none;fill-rule:nonzero;fill:rgb(39.99939%,39.99939%,39.99939%);fill-opacity:0.3;" d="M -9.890625 46.746094 L 0.265625 51.796875 L 2.101562 52.867188 L 3.933594 54.054688 L 6.011719 55.527344 L 19.992188 66.1875 L 20.234375 66.53125 L 20.296875 66.875 L 20.234375 67.277344 L 19.804688 67.683594 L 13.136719 72.976562 L 12.707031 73.039062 L 12.28125 72.984375 L 11.976562 72.816406 L 11.242188 72.421875 L 6.035156 68.644531 L 1.734375 64.988281 L -14.324219 52.855469 L -14.324219 52.4375 L -14.136719 51.976562 L -10.445312 46.980469 Z M -9.890625 46.746094 "/>
<path style=" stroke:none;fill-rule:nonzero;fill:rgb(39.99939%,39.99939%,39.99939%);fill-opacity:0.3;" d="M 5.054688 29.878906 L 9.195312 32.992188 L 4.980469 36.988281 L 6.042969 37.925781 L 7.523438 39.230469 L 11.804688 35.394531 L 25.574219 48.101562 L 20.199219 51.617188 L 21.171875 52.167969 L 22.128906 52.710938 L 26.355469 49.421875 L 28.058594 50.914062 L 23.929688 54.109375 L 24.445312 54.738281 L 25.023438 55.449219 L 29.804688 52.003906 L 36.777344 57.785156 L 36.597656 58.171875 L 25.589844 66.515625 L 25.195312 66.601562 L 24.714844 66.441406 L 24.015625 66.160156 L 5.671875 52.527344 L -8.253906 45.351562 Z M 5.054688 29.878906 "/>
<path style=" stroke:none;fill-rule:nonzero;fill:rgb(39.99939%,39.99939%,39.99939%);fill-opacity:0.3;" d="M 75.144531 78.214844 L 74.929688 77.945312 L 74.929688 77.390625 L 75.226562 76.644531 L 85.613281 56.566406 L 86.613281 57.007812 Z M 75.144531 78.214844 "/>
<path style=" stroke:none;fill-rule:nonzero;fill:rgb(39.99939%,39.99939%,39.99939%);fill-opacity:0.3;" d="M 63.667969 72.363281 L 55.582031 69.164062 L 65.804688 51.410156 L 72.445312 54.269531 Z M 63.667969 72.363281 "/>
<path style=" stroke:none;fill-rule:nonzero;fill:rgb(39.99939%,39.99939%,39.99939%);fill-opacity:0.3;" d="M 43.519531 59.164062 L 53.527344 45.421875 L 62.582031 50.179688 L 52.195312 66.226562 L 49.609375 64.257812 L 45.261719 60.273438 Z M 43.519531 59.164062 "/>
<path style=" stroke:none;fill-rule:nonzero;fill:rgb(39.99939%,39.99939%,39.99939%);fill-opacity:0.3;" d="M 72.96875 77.320312 L 66.175781 74.230469 L 75.617188 54.457031 L 82.421875 57.144531 L 77.613281 67.871094 Z M 72.96875 77.320312 "/>
<path style=" stroke:none;fill-rule:nonzero;fill:rgb(39.99939%,39.99939%,39.99939%);fill-opacity:0.3;" d="M 46.46875 38.878906 L 47.011719 38.5625 L 47.441406 38.871094 L 53.859375 30.992188 L 59.128906 33.917969 L 53.011719 42.503906 Z M 46.46875 38.878906 "/>
<path style=" stroke:none;fill-rule:nonzero;fill:rgb(39.99939%,39.99939%,39.99939%);fill-opacity:0.3;" d="M 37.671875 31.832031 L 37.75 31.722656 L 38.613281 32.402344 Z M 37.671875 31.832031 "/>
<path style=" stroke:none;fill-rule:nonzero;fill:rgb(39.99939%,39.99939%,39.99939%);fill-opacity:0.3;" d="M 53.609375 72.128906 L 55.019531 72.683594 L 54.332031 74.058594 L 52.1875 75.84375 L 52.367188 72.792969 L 52.515625 72.277344 L 52.8125 72.136719 L 53.011719 72.039062 Z M 53.609375 72.128906 "/>
<path style=" stroke:none;fill-rule:nonzero;fill:rgb(39.99939%,39.99939%,39.99939%);fill-opacity:0.3;" d="M 23.613281 142.484375 L -0.125 127.1875 L 2.289062 117.734375 L 26.855469 133.042969 Z M 23.613281 142.484375 "/>
<path style=" stroke:none;fill-rule:nonzero;fill:rgb(39.99939%,39.99939%,39.99939%);fill-opacity:0.3;" d="M 22.914062 144.527344 L 19.5625 154.289062 L -2.675781 139.59375 L -2.617188 139.351562 L -3.191406 138.9375 L -0.78125 129.417969 Z M 22.914062 144.527344 "/>
<path style=" stroke:none;fill-rule:nonzero;fill:rgb(39.99939%,39.99939%,39.99939%);fill-opacity:0.3;" d="M -3.253906 142.027344 L 18.621094 156.882812 L 9.660156 162.570312 L -5.757812 152.597656 Z M -3.253906 142.027344 "/>
<path style=" stroke:none;fill-rule:nonzero;fill:rgb(39.99939%,39.99939%,39.99939%);fill-opacity:0.3;" d="M 19.175781 96.886719 L 27.878906 94.996094 L 28.382812 95.078125 L 29.160156 95.242188 L 38.824219 101.03125 L 35.925781 109.472656 L 35.003906 109.578125 L 18.613281 98.449219 L 18.476562 97.804688 L 18.617188 97.242188 Z M 19.175781 96.886719 "/>
<path style=" stroke:none;fill-rule:nonzero;fill:rgb(39.99939%,39.99939%,39.99939%);fill-opacity:0.3;" d="M 32.441406 64.625 L 32.933594 64.851562 L 41.539062 87.832031 L 33.058594 90.976562 L 26.328125 70.476562 L 29.277344 68.976562 L 29.308594 68.632812 L 28.789062 66.90625 L 28.878906 66.617188 L 29.988281 65.929688 Z M 32.441406 64.625 "/>
<path style=" stroke:none;fill-rule:nonzero;fill:rgb(39.99939%,39.99939%,39.99939%);fill-opacity:0.3;" d="M 29.125 92.152344 L 21.109375 94.035156 L 20.785156 93.847656 L 20.457031 93.464844 L 16.433594 78.9375 L 16.738281 77.601562 L 18.050781 75.148438 L 18.296875 74.734375 L 18.519531 74.375 L 21.960938 71.980469 L 22.179688 71.976562 L 22.425781 72.050781 L 22.644531 72.179688 L 29.804688 91.382812 Z M 29.125 92.152344 "/>
<path style=" stroke:none;fill-rule:nonzero;fill:rgb(39.99939%,39.99939%,39.99939%);fill-opacity:0.3;" d="M 38.007812 60.53125 L 38.964844 59.851562 L 45.382812 64.828125 L 47.355469 67.015625 L 49.101562 69.496094 L 49.691406 70.78125 L 49.949219 73.363281 L 49.871094 74.699219 L 49.054688 86.144531 L 43.59375 87.078125 L 34.101562 63.382812 L 36.195312 62.085938 Z M 38.007812 60.53125 "/>
<path style=" stroke:none;fill-rule:nonzero;fill:rgb(39.99939%,39.99939%,39.99939%);fill-opacity:0.3;" d="M -6.167969 154.511719 L 8 163.542969 L 1.113281 166.886719 L -7.558594 161.183594 Z M -6.167969 154.511719 "/>
<path style=" stroke:none;fill-rule:nonzero;fill:rgb(39.99939%,39.99939%,39.99939%);fill-opacity:0.3;" d="M -5.5625 109.535156 L -3.121094 112.03125 L -1.570312 113.078125 L -0.105469 114.410156 L 0.347656 114.828125 L 0.492188 115.199219 L 0.609375 116.136719 L 0.566406 117.023438 L 0.441406 118.125 L -4.273438 135.042969 L -4.421875 135.398438 L -4.804688 135.65625 L -5.378906 135.703125 L -6.144531 135.574219 L -7.25 135.167969 L -8.207031 134.648438 L -15.441406 130.191406 L -20.390625 126.652344 L -14.589844 119.761719 L -12.699219 117.363281 L -9.324219 118.316406 L -9.324219 117.835938 L -9.320312 117.207031 L -11.988281 116.460938 L -11.066406 115.289062 L -8.90625 115.683594 L -7.3125 112.753906 L -6.300781 110.890625 Z M -5.5625 109.535156 "/>
<path style=" stroke:none;fill-rule:nonzero;fill:rgb(39.99939%,39.99939%,39.99939%);fill-opacity:0.3;" d="M 39.757812 99.796875 L 40.394531 97.496094 L 40.609375 95.445312 L 40.21875 95.421875 L 39.867188 95.351562 L 39.761719 95.554688 L 39.65625 96.152344 L 38.589844 98.210938 L 38.242188 98.351562 L 37.691406 98.21875 L 30.957031 93.929688 L 31.425781 93.125 L 42.3125 89.195312 L 43.480469 88.886719 L 46.398438 88.527344 L 47.191406 88.757812 L 47.984375 89.050781 L 48.300781 89.347656 L 48.566406 89.894531 L 50.625 98.863281 L 50.78125 100.859375 L 50.78125 101.558594 L 50.621094 102.308594 L 33.109375 160.628906 L 32.652344 160.632812 L 26.597656 159.070312 L 21.988281 156.90625 L 21.757812 156.621094 L 21.824219 155.941406 Z M 39.757812 99.796875 "/>
<path style=" stroke:none;fill-rule:nonzero;fill:rgb(39.99939%,39.99939%,39.99939%);fill-opacity:0.3;" d="M 3.300781 90.785156 L 3.1875 91.03125 L 0.324219 94.6875 L 0.0078125 94.738281 L -0.359375 94.597656 L -0.558594 94.464844 L -0.441406 94.371094 Z M 3.300781 90.785156 "/>
<path style=" stroke:none;fill-rule:nonzero;fill:rgb(39.99939%,39.99939%,39.99939%);fill-opacity:0.3;" d="M 6.851562 91.175781 L 9.257812 95.40625 L 9.257812 95.65625 L 9.101562 95.855469 L 8.941406 96.054688 L 2.28125 99.507812 L 0.488281 97.75 L 0.542969 97.402344 L 0.648438 97.25 L 3.246094 93.847656 L 3.5625 93.398438 L 5.628906 91.144531 L 6.261719 91.085938 Z M 6.851562 91.175781 "/>
<path style=" stroke:none;fill-rule:nonzero;fill:rgb(39.99939%,39.99939%,39.99939%);fill-opacity:0.3;" d="M 15.292969 80.5 L 19.082031 92.820312 L 18.960938 93.117188 L 18.648438 93.339844 L 18.214844 93.457031 L 12.203125 95.183594 L 11.769531 95.222656 L 11.296875 95.15625 L 10.867188 94.976562 L 10.277344 94.539062 L 10.042969 94.171875 L 7.539062 88.667969 L 7.539062 88.296875 L 7.695312 87.890625 L 14.507812 80.617188 L 14.742188 80.46875 Z M 15.292969 80.5 "/>
<path style=" stroke:none;fill-rule:nonzero;fill:rgb(39.99939%,39.99939%,39.99939%);fill-opacity:0.3;" d="M 14.070312 98.15625 L 35.046875 112.078125 L 31.953125 121.113281 L 3.484375 101.476562 L 3.484375 101.074219 L 3.8125 100.460938 L 13.511719 98.097656 Z M 14.070312 98.15625 "/>
<path style=" stroke:none;fill-rule:nonzero;fill:rgb(39.99939%,39.99939%,39.99939%);fill-opacity:0.3;" d="M 31.324219 122.949219 L 28.199219 132.0625 L 1.039062 114.503906 L -5.515625 108.246094 L -5.15625 107.792969 L -6.820312 107 L -8.195312 105.691406 L -6.929688 104.820312 L -7.832031 103.5625 L -7.90625 103.28125 L -7.753906 102.890625 L -2.800781 99.285156 L -2.464844 99.171875 L -1.898438 99.269531 L -1.332031 99.441406 L -0.730469 99.855469 L 5.804688 105.554688 Z M 31.324219 122.949219 "/>
<path style=" stroke:none;fill-rule:nonzero;fill:rgb(39.99939%,39.99939%,39.99939%);fill-opacity:0.3;" d="M 43.304688 59.457031 L 43.519531 59.164062 L 45.261719 60.273438 L 49.609375 64.257812 Z M 43.304688 59.457031 "/>
<path style=" stroke:none;fill-rule:nonzero;fill:rgb(39.99939%,39.99939%,39.99939%);fill-opacity:0.3;" d="M 62.503906 114.40625 L 62.898438 114.496094 L 60.5 122.300781 L 51.429688 157.234375 L 50.570312 157.019531 Z M 62.503906 114.40625 "/>
<path style=" stroke:none;fill-rule:nonzero;fill:rgb(39.99939%,39.99939%,39.99939%);fill-opacity:0.3;" d="M 35.332031 164.714844 L 50.605469 110.730469 L 60.203125 113.503906 L 47.433594 157.679688 L 40.664062 167.507812 L 40.203125 167.875 L 39.855469 168.058594 L 39.511719 168.097656 L 39.128906 167.921875 Z M 35.332031 164.714844 "/>
<path style=" stroke:none;fill-rule:nonzero;fill:rgb(39.99939%,39.99939%,39.99939%);fill-opacity:0.3;" d="M 51.730469 84.914062 L 63.332031 88.945312 L 63.71875 89.183594 L 64.039062 89.542969 L 64.101562 90.027344 L 63.972656 93.652344 L 64.035156 94.800781 L 64.289062 96.488281 L 64.609375 98.179688 L 64.738281 98.902344 L 64.738281 99.808594 L 64.480469 100.839844 L 61.074219 112.703125 L 50.746094 109.636719 L 52.484375 102.855469 L 52.679688 101.101562 L 52.488281 99.773438 L 51.339844 93.738281 L 51.148438 92.46875 L 51.472656 85.335938 Z M 51.730469 84.914062 "/>
<path style=" stroke:none;fill-rule:nonzero;fill:rgb(39.99939%,39.99939%,39.99939%);fill-opacity:0.3;" d="M 64.03125 110.734375 L 63.621094 110.625 L 65.949219 103.976562 L 66.53125 101.597656 L 66.726562 100.015625 L 66.664062 98.675781 L 65.761719 94.421875 L 65.570312 92.964844 L 65.894531 89.613281 L 66.339844 88.953125 L 67.390625 89.425781 L 67.390625 93.28125 L 67.027344 98.722656 L 66.300781 103.074219 Z M 64.03125 110.734375 "/>
<path style=" stroke:none;fill-rule:nonzero;fill:rgb(39.99939%,39.99939%,39.99939%);fill-opacity:0.3;" d="M 67.390625 87.835938 L 67.179688 87.746094 L 66.882812 87.421875 L 66.734375 86.8125 L 66.78125 86.296875 L 67.78125 78.273438 L 67.929688 77.992188 L 68.230469 77.945312 L 68.578125 77.941406 L 69.242188 78.226562 L 67.390625 87.476562 Z M 67.390625 87.835938 "/>
<path style=" stroke:none;fill-rule:nonzero;fill:rgb(39.99939%,39.99939%,39.99939%);fill-opacity:0.3;" d="M 55.019531 72.683594 L 65.496094 76.789062 L 65.792969 77.070312 L 66.042969 77.441406 L 66.089844 77.957031 L 66.089844 78.472656 L 64.894531 86.261719 L 64.695312 86.542969 L 64.296875 86.640625 L 62.953125 86.742188 L 62.355469 86.746094 L 61.609375 86.609375 L 52.257812 83.296875 L 51.960938 82.96875 L 51.8125 82.316406 L 52.1875 75.84375 L 54.332031 74.058594 Z M 55.019531 72.683594 "/>
<path style="fill-rule:nonzero;fill:rgb(39.99939%,39.99939%,39.99939%);fill-opacity:1;stroke-width:0.03;stroke-linecap:square;stroke-linejoin:miter;stroke:rgb(39.99939%,39.99939%,39.99939%);stroke-opacity:1;stroke-miterlimit:3.239307;" d="M 130.785156 174.371094 L 130.945312 174.027344 L 132.046875 174.203125 L 133.054688 174.589844 L 134.253906 175.160156 L 135.128906 175.765625 L 136.007812 176.523438 L 136.851562 177.3125 L 137.5625 178.101562 L 138.308594 179.074219 L 139.765625 181.507812 L 140.546875 182.910156 L 142.511719 186.523438 L 148.902344 197.023438 L 155.824219 209.601562 L 158.125 218.128906 L 158.472656 227.171875 L 157.578125 236.894531 L 155.4375 244.785156 L 154.898438 250.988281 L 155.414062 255.96875 L 152.386719 256.597656 L 142.035156 258.753906 L 141.960938 259.484375 L 141.875 260.34375 L 151.460938 259.121094 L 150.929688 263.488281 L 129.417969 261.171875 L 142.839844 210.386719 L 135.949219 208.210938 L 137.761719 195.878906 L 130.367188 182.9375 Z M 130.785156 174.371094 " transform="matrix(1,0,0,1,-74,-13)"/>
<path style="fill-rule:nonzero;fill:rgb(39.99939%,39.99939%,39.99939%);fill-opacity:1;stroke-width:0.03;stroke-linecap:square;stroke-linejoin:miter;stroke:rgb(39.99939%,39.99939%,39.99939%);stroke-opacity:1;stroke-miterlimit:3.239307;" d="M 154.613281 160.101562 L 156.550781 160.179688 L 157.230469 159.808594 L 158.488281 159.527344 L 163.332031 159.042969 L 163.816406 159.132812 L 164.011719 159.496094 L 163.519531 171.097656 L 163.421875 175.757812 L 163.710938 180.140625 L 164 181.507812 L 164.289062 182.148438 L 165.0625 182.597656 L 165.9375 182.683594 L 166.625 182.894531 L 167.300781 183.621094 L 167.6875 184.167969 L 179.296875 206.480469 L 181.449219 210.5 L 181.992188 211.625 L 182.144531 212.351562 L 182.222656 212.972656 L 182.296875 213.84375 L 182.296875 214.679688 L 182.21875 215.519531 L 181.949219 216.613281 L 181.449219 217.636719 L 179.4375 221.070312 L 178.484375 222.296875 L 171.394531 222.75 L 163.351562 223.15625 L 161.5 223.109375 L 160.21875 222.625 L 160.121094 218.96875 L 160.414062 218.511719 L 168.265625 218.640625 L 167.78125 214.898438 L 160.320312 215.3125 L 159.257812 209.929688 L 170.59375 206.289062 L 170.355469 205.699219 L 170.113281 205.105469 L 158.289062 208.566406 L 157.707031 208.476562 L 157.027344 208.117188 L 156.738281 207.570312 L 150.917969 196.613281 L 152.179688 196.058594 L 152.085938 195.417969 L 150.53125 195.0625 L 149.273438 192.972656 L 149.855469 192.417969 L 152.960938 191.757812 L 154.898438 191.742188 L 158.289062 191.902344 L 163.8125 191.316406 L 163.554688 190.542969 L 163.328125 189.859375 L 159.9375 190.15625 L 158 190.167969 L 156.644531 189.902344 L 155.480469 189.730469 L 154.222656 189.738281 L 148.789062 190.964844 L 148.210938 190.695312 L 147.53125 190.332031 L 143.464844 183.507812 L 143.367188 182.777344 L 143.65625 182.320312 L 144.046875 182.226562 L 152.332031 182.238281 L 159.582031 182.410156 L 159.414062 181.292969 L 159.265625 180.292969 L 154.460938 180.363281 L 154.226562 177.175781 L 154.328125 171.144531 L 154.621094 170.503906 L 155.007812 170.316406 L 160.917969 170.28125 L 160.917969 168.910156 L 154.425781 168.859375 L 153.941406 168.679688 L 153.75 168.042969 L 154.140625 160.730469 Z M 154.613281 160.101562 " transform="matrix(1,0,0,1,-74,-13)"/>
<path style="fill-rule:nonzero;fill:rgb(39.99939%,39.99939%,39.99939%);fill-opacity:1;stroke-width:0.03;stroke-linecap:square;stroke-linejoin:miter;stroke:rgb(39.99939%,39.99939%,39.99939%);stroke-opacity:1;stroke-miterlimit:3.239307;" d="M 139.480469 171.796875 L 140.648438 171.496094 L 142.820312 171.554688 L 144.449219 171.613281 L 145.539062 171.386719 L 146.46875 171.308594 L 151.203125 171.203125 L 151.667969 171.492188 L 151.902344 171.855469 L 152.660156 177.210938 L 152.769531 178.363281 L 152.820312 178.964844 L 152.449219 179.292969 L 151.242188 179.378906 L 150.3125 179.46875 L 146.78125 179.472656 L 144.828125 179.648438 L 142.816406 178.574219 L 141.886719 176.609375 L 139.015625 172.679688 Z M 139.480469 171.796875 " transform="matrix(1,0,0,1,-74,-13)"/>
<path style="fill-rule:nonzero;fill:rgb(39.99939%,39.99939%,39.99939%);fill-opacity:1;stroke-width:0.03;stroke-linecap:square;stroke-linejoin:miter;stroke:rgb(39.99939%,39.99939%,39.99939%);stroke-opacity:1;stroke-miterlimit:3.239307;" d="M 137.9375 160.617188 L 140.65625 160.742188 L 152.140625 159.859375 L 152.839844 160 L 153.148438 160.292969 L 153.304688 160.730469 L 153.066406 167.96875 L 152.835938 168.484375 L 152.214844 168.707031 L 151.359375 168.714844 L 141.890625 169.4375 L 140.882812 169.8125 L 140.183594 169.890625 L 136.921875 169.769531 L 136.609375 169.476562 L 137.082031 161.425781 Z M 137.9375 160.617188 " transform="matrix(1,0,0,1,-74,-13)"/>
<path style="fill-rule:nonzero;fill:rgb(39.99939%,39.99939%,39.99939%);fill-opacity:1;stroke-width:0.03;stroke-linecap:square;stroke-linejoin:miter;stroke:rgb(39.99939%,39.99939%,39.99939%);stroke-opacity:1;stroke-miterlimit:3.239307;" d="M 153.84375 130.808594 L 171.253906 135.160156 L 169.589844 143.472656 L 151.460938 139 Z M 153.84375 130.808594 " transform="matrix(1,0,0,1,-74,-13)"/>
<path style="fill-rule:nonzero;fill:rgb(39.99939%,39.99939%,39.99939%);fill-opacity:1;stroke-width:0.03;stroke-linecap:square;stroke-linejoin:miter;stroke:rgb(39.99939%,39.99939%,39.99939%);stroke-opacity:1;stroke-miterlimit:3.239307;" d="M 172.117188 133.554688 L 154.039062 128.976562 L 156.980469 119.660156 L 174.734375 124.542969 Z M 172.117188 133.554688 " transform="matrix(1,0,0,1,-74,-13)"/>
<path style="fill-rule:nonzero;fill:rgb(39.99939%,39.99939%,39.99939%);fill-opacity:1;stroke-width:0.03;stroke-linecap:square;stroke-linejoin:miter;stroke:rgb(39.99939%,39.99939%,39.99939%);stroke-opacity:1;stroke-miterlimit:3.239307;" d="M 170.234375 99.71875 L 167.871094 109.75 L 167.578125 109.9375 L 166.988281 109.847656 L 155.179688 105.917969 L 154.789062 105.644531 L 154.789062 104.992188 L 154.984375 100.816406 L 155.578125 97.566406 L 155.972656 96.265625 L 156.269531 95.796875 L 160.992188 89.648438 L 175.457031 70.566406 L 176.636719 71.023438 L 166.992188 97.96875 L 167.1875 98.621094 L 167.875 98.988281 L 169.644531 99.257812 Z M 170.234375 99.71875 " transform="matrix(1,0,0,1,-74,-13)"/>
<path style="fill-rule:nonzero;fill:rgb(39.99939%,39.99939%,39.99939%);fill-opacity:1;stroke-width:0.03;stroke-linecap:square;stroke-linejoin:miter;stroke:rgb(39.99939%,39.99939%,39.99939%);stroke-opacity:1;stroke-miterlimit:3.239307;" d="M 159.449219 88.070312 L 154.636719 93.421875 L 153.851562 93.332031 L 149.226562 91.316406 L 149.144531 91.214844 L 160.613281 70.007812 L 163.210938 64.53125 L 163.898438 64.429688 L 165.570312 64.605469 L 167.242188 64.96875 L 168.519531 65.425781 L 174.910156 68.183594 L 169.664062 74.230469 Z M 159.449219 88.070312 " transform="matrix(1,0,0,1,-74,-13)"/>
<path style="fill-rule:nonzero;fill:rgb(39.99939%,39.99939%,39.99939%);fill-opacity:1;stroke-width:0.03;stroke-linecap:square;stroke-linejoin:miter;stroke:rgb(39.99939%,39.99939%,39.99939%);stroke-opacity:1;stroke-miterlimit:3.239307;" d="M 143.164062 128.578125 L 151.925781 130.242188 L 149.25 138.644531 L 141.039062 137.691406 Z M 143.164062 128.578125 " transform="matrix(1,0,0,1,-74,-13)"/>
<path style="fill-rule:nonzero;fill:rgb(39.99939%,39.99939%,39.99939%);fill-opacity:1;stroke-width:0.03;stroke-linecap:square;stroke-linejoin:miter;stroke:rgb(39.99939%,39.99939%,39.99939%);stroke-opacity:1;stroke-miterlimit:3.239307;" d="M 152.808594 128.199219 L 144.300781 126.132812 L 146.222656 117.085938 L 155.394531 119.359375 Z M 152.808594 128.199219 " transform="matrix(1,0,0,1,-74,-13)"/>
<path style="fill-rule:nonzero;fill:rgb(39.99939%,39.99939%,39.99939%);fill-opacity:1;stroke-width:0.03;stroke-linecap:square;stroke-linejoin:miter;stroke:rgb(39.99939%,39.99939%,39.99939%);stroke-opacity:1;stroke-miterlimit:3.239307;" d="M 136.898438 127.496094 L 140.984375 128.410156 L 135.386719 150.476562 L 133.863281 170.679688 L 133.527344 170.6875 L 131.964844 170.132812 L 130.527344 169.855469 L 129.253906 169.765625 L 128.128906 169.796875 L 127.09375 169.925781 L 125.625 170.285156 L 125.429688 170.234375 L 134.5 135.300781 Z M 136.898438 127.496094 " transform="matrix(1,0,0,1,-74,-13)"/>
<path style="fill-rule:nonzero;fill:rgb(39.99939%,39.99939%,39.99939%);fill-opacity:1;stroke-width:0.03;stroke-linecap:square;stroke-linejoin:miter;stroke:rgb(39.99939%,39.99939%,39.99939%);stroke-opacity:1;stroke-miterlimit:3.239307;" d="M 191.824219 264.191406 L 194.195312 268.152344 L 200.34375 273.769531 L 191.011719 297.835938 L 179.363281 293.261719 L 191.21875 264.253906 Z M 191.824219 264.191406 " transform="matrix(1,0,0,1,-74,-13)"/>
<path style="fill-rule:nonzero;fill:rgb(39.99939%,39.99939%,39.99939%);fill-opacity:1;stroke-width:0.03;stroke-linecap:square;stroke-linejoin:miter;stroke:rgb(39.99939%,39.99939%,39.99939%);stroke-opacity:1;stroke-miterlimit:3.239307;" d="M 178.105469 295.070312 L 189.792969 299.488281 L 185.660156 308.65625 L 172.460938 321.570312 L 168.03125 318.734375 L 169.351562 313.324219 L 171.003906 309.425781 Z M 178.105469 295.070312 " transform="matrix(1,0,0,1,-74,-13)"/>
<path style="fill-rule:nonzero;fill:rgb(39.99939%,39.99939%,39.99939%);fill-opacity:1;stroke-width:0.03;stroke-linecap:square;stroke-linejoin:miter;stroke:rgb(39.99939%,39.99939%,39.99939%);stroke-opacity:1;stroke-miterlimit:3.239307;" d="M 161.71875 235.273438 L 170.539062 236.390625 L 171.050781 236.558594 L 171.34375 236.867188 L 171.417969 237.214844 L 171.417969 237.527344 L 171.34375 237.839844 L 170.867188 239.921875 L 170.863281 240.683594 L 170.53125 243.042969 L 170.3125 243.613281 L 168.949219 244.910156 L 168.445312 245 L 167.445312 245.007812 L 166.945312 245.308594 L 166.488281 247.847656 L 166.304688 249.265625 L 166.300781 251.5 L 166.4375 253.429688 L 167.027344 256.257812 L 167.574219 257.953125 L 167.941406 258.953125 L 168.183594 260.378906 L 168.265625 261.417969 L 168.675781 262.84375 L 169.328125 264.691406 L 169.941406 266.460938 L 170.675781 267.882812 L 171.945312 269.1875 L 172.558594 269.722656 L 172.964844 270.335938 L 173.25 271.144531 L 173.472656 272.949219 L 173.644531 274.441406 L 173.855469 275.085938 L 174.15625 275.691406 L 174.371094 276.496094 L 174.5 277.183594 L 174.710938 278.757812 L 174.75 282.554688 L 174.707031 283.203125 L 174.40625 283.527344 L 174.109375 283.609375 L 173.550781 283.574219 L 173.164062 283.417969 L 172.953125 283.09375 L 172.867188 281.710938 L 172.707031 279.449219 L 172.507812 278.433594 L 172.148438 277.339844 L 171.628906 276.101562 L 170.949219 274.671875 L 170.230469 273.546875 L 168.234375 270.09375 L 167.476562 268.96875 L 166.714844 267.957031 L 163.519531 262.964844 L 161.058594 259.273438 L 159.636719 256.917969 L 159.210938 255.9375 L 158.832031 254.914062 L 158.546875 254.066406 L 158.265625 252.949219 L 158.074219 251.699219 L 158.03125 250.136719 L 158.125 248.550781 L 158.335938 247.410156 L 158.652344 245.773438 L 159.128906 243.496094 L 159.867188 238.984375 L 160.183594 236.359375 L 160.394531 235.667969 L 160.710938 235.367188 L 161.078125 235.316406 Z M 161.71875 235.273438 " transform="matrix(1,0,0,1,-74,-13)"/>
<path style="fill-rule:nonzero;fill:rgb(39.99939%,39.99939%,39.99939%);fill-opacity:1;stroke-width:0.03;stroke-linecap:square;stroke-linejoin:miter;stroke:rgb(39.99939%,39.99939%,39.99939%);stroke-opacity:1;stroke-miterlimit:3.239307;" d="M 164.410156 224.511719 L 172.082031 224.453125 L 176.15625 224.402344 L 177.480469 224.25 L 178.25 224.378906 L 176.5 228.890625 L 174.691406 232.640625 L 172.535156 234.90625 L 171.835938 235.1875 L 171.019531 235.246094 L 162.28125 234.15625 L 161.699219 233.828125 L 161.289062 233.449219 L 160.941406 232.40625 L 161.0625 224.65625 Z M 164.410156 224.511719 " transform="matrix(1,0,0,1,-74,-13)"/>
<path style="fill-rule:nonzero;fill:rgb(39.99939%,39.99939%,39.99939%);fill-opacity:1;stroke-width:0.03;stroke-linecap:square;stroke-linejoin:miter;stroke:rgb(39.99939%,39.99939%,39.99939%);stroke-opacity:1;stroke-miterlimit:3.239307;" d="M 181.257812 224.492188 L 184.640625 225.269531 L 186.175781 225.859375 L 186.757812 226.003906 L 187.65625 225.898438 L 188.449219 225.695312 L 189.292969 225.589844 L 190.085938 225.585938 L 191.089844 225.78125 L 192.359375 226.273438 L 192.730469 226.667969 L 192.886719 227.019531 L 185.269531 242.175781 L 184.550781 244.308594 L 184.109375 246.492188 L 182.84375 248.738281 L 181.796875 249.003906 L 181.078125 249.214844 L 180.417969 253.378906 L 180.582031 255.089844 L 181.296875 255.347656 L 184.050781 257.511719 L 185.867188 258.121094 L 187.355469 258.996094 L 189.886719 260.644531 L 190.664062 261.527344 L 190.765625 262.015625 L 178.121094 291.964844 L 175.039062 290.6875 L 174.632812 289.695312 L 174.472656 289.160156 L 176.585938 283.484375 L 176.75 282.179688 L 175.699219 274.691406 L 174.570312 268.425781 L 174.003906 267.207031 L 173.433594 266.828125 L 172.625 266.453125 L 172.054688 266.074219 L 170.433594 263.179688 L 169.300781 259.59375 L 169.0625 256.761719 L 168.324219 253.261719 L 168.8125 250.125 L 169.140625 249.738281 L 170.113281 249.65625 L 171.089844 245.671875 L 171.171875 243.835938 L 172.0625 242.453125 L 172.878906 237.167969 L 176.367188 234.316406 L 176.933594 233.625 L 180.585938 224.808594 Z M 181.257812 224.492188 " transform="matrix(1,0,0,1,-74,-13)"/>
<path style="fill-rule:nonzero;fill:rgb(39.99939%,39.99939%,39.99939%);fill-opacity:1;stroke-width:0.03;stroke-linecap:square;stroke-linejoin:miter;stroke:rgb(39.99939%,39.99939%,39.99939%);stroke-opacity:1;stroke-miterlimit:3.239307;" d="M 192.449219 168.425781 L 193.554688 169.980469 L 194.378906 170.890625 L 195.621094 171.664062 L 200.574219 175.101562 L 191.203125 194.714844 L 184.03125 191.761719 L 183.617188 192.285156 L 183.203125 192.804688 L 184.445312 194.359375 L 189.132812 196.417969 L 188.996094 197.851562 L 189.960938 198.105469 L 189.960938 200.449219 L 190.648438 200.503906 L 191.476562 200.570312 L 191.476562 198.75 L 191.890625 197.964844 L 201.339844 201.660156 L 201.675781 202.164062 L 198.867188 207.664062 L 196.988281 209.132812 L 195.882812 214.730469 L 192.984375 224.769531 L 191.882812 225.035156 L 181.8125 222.621094 L 185.125 215.3125 L 184.4375 210.238281 L 184.164062 208.679688 L 183.75 207.898438 L 181.820312 206.347656 L 171.480469 186.234375 L 170.238281 184.550781 L 169.964844 181.6875 L 177.277344 178 L 177.277344 177.222656 L 179.902344 175.644531 L 180.726562 174.46875 L 185.96875 170.929688 Z M 192.449219 168.425781 " transform="matrix(1,0,0,1,-74,-13)"/>
<path style="fill-rule:nonzero;fill:rgb(39.99939%,39.99939%,39.99939%);fill-opacity:1;stroke-width:0.03;stroke-linecap:square;stroke-linejoin:miter;stroke:rgb(39.99939%,39.99939%,39.99939%);stroke-opacity:1;stroke-miterlimit:3.239307;" d="M 223.132812 159.949219 L 220.535156 164.558594 L 217.613281 168.453125 L 212.738281 178.484375 L 204.296875 174.332031 L 203.863281 173.722656 L 203.753906 173.007812 L 203.972656 171.777344 L 204.621094 170.449219 L 211.011719 159.589844 L 213.175781 156.414062 L 214.800781 154.058594 L 218.371094 146.585938 L 219.886719 144.742188 L 220.644531 141.878906 L 222.59375 138.191406 L 222.8125 135.535156 L 224.757812 134.507812 L 230.601562 135.609375 L 230.816406 140.410156 L 225.296875 149.113281 L 225.296875 150.339844 L 223.457031 155.761719 L 224.105469 156.472656 Z M 223.132812 159.949219 " transform="matrix(1,0,0,1,-74,-13)"/>
<path style="fill-rule:nonzero;fill:rgb(39.99939%,39.99939%,39.99939%);fill-opacity:1;stroke-width:0.03;stroke-linecap:square;stroke-linejoin:miter;stroke:rgb(39.99939%,39.99939%,39.99939%);stroke-opacity:1;stroke-miterlimit:3.239307;" d="M 146.558594 104.75 L 150.996094 106.382812 L 151.191406 106.746094 L 151.125 107.171875 L 150.671875 107.78125 L 146.410156 113.40625 L 145.828125 114.140625 L 145.503906 114.871094 L 145.117188 115.726562 L 142.851562 124.992188 L 138.03125 123.734375 L 140.300781 116.074219 L 141.027344 111.722656 L 141.390625 106.28125 L 141.390625 102.425781 Z M 146.558594 104.75 " transform="matrix(1,0,0,1,-74,-13)"/>
<path style="fill-rule:nonzero;fill:rgb(39.99939%,39.99939%,39.99939%);fill-opacity:1;stroke-width:0.03;stroke-linecap:square;stroke-linejoin:miter;stroke:rgb(39.99939%,39.99939%,39.99939%);stroke-opacity:1;stroke-miterlimit:3.239307;" d="M 156.417969 107.976562 L 169.0625 112.230469 L 169.253906 112.59375 L 169.253906 112.957031 L 166.671875 119.90625 L 166.285156 120.214844 L 165.640625 120.214844 L 164.867188 120.097656 L 148.992188 115.5 L 149.125 114.890625 L 154.226562 109.386719 L 154.417969 108.472656 L 154.675781 107.863281 L 154.871094 107.738281 Z M 156.417969 107.976562 " transform="matrix(1,0,0,1,-74,-13)"/>
<path style="fill-rule:nonzero;fill:rgb(39.99939%,39.99939%,39.99939%);fill-opacity:1;stroke-width:0.03;stroke-linecap:square;stroke-linejoin:miter;stroke:rgb(39.99939%,39.99939%,39.99939%);stroke-opacity:1;stroke-miterlimit:3.239307;" d="M 153.960938 96.175781 L 152.761719 104.570312 L 152.464844 104.992188 L 151.917969 105.089844 L 151.371094 105 L 141.390625 100.835938 L 141.390625 100.476562 L 143.242188 91.226562 L 153.3125 95.519531 L 153.660156 95.800781 Z M 153.960938 96.175781 " transform="matrix(1,0,0,1,-74,-13)"/>
<path style="fill-rule:nonzero;fill:rgb(39.99939%,39.99939%,39.99939%);fill-opacity:1;stroke-width:0.03;stroke-linecap:square;stroke-linejoin:miter;stroke:rgb(39.99939%,39.99939%,39.99939%);stroke-opacity:1;stroke-miterlimit:3.239307;" d="M 227.59375 184.398438 L 214.472656 179.089844 L 218.910156 168.875 L 231.945312 174.15625 Z M 227.59375 184.398438 " transform="matrix(1,0,0,1,-74,-13)"/>
<path style="fill-rule:nonzero;fill:rgb(39.99939%,39.99939%,39.99939%);fill-opacity:1;stroke-width:0.03;stroke-linecap:square;stroke-linejoin:miter;stroke:rgb(39.99939%,39.99939%,39.99939%);stroke-opacity:1;stroke-miterlimit:3.239307;" d="M 195.523438 246.316406 L 199.796875 248.433594 L 202.265625 247.179688 L 233.554688 177.746094 L 235.097656 177.128906 L 238.023438 178.4375 L 238.421875 179.460938 L 239.488281 182.207031 L 240.386719 186.824219 L 240.875 189.210938 L 240.554688 192.828125 L 216.355469 252.109375 L 213.996094 257.609375 L 212.027344 261.082031 L 209.019531 267.648438 L 206.226562 268.175781 L 202.09375 269.640625 L 198.3125 266.792969 L 195.570312 263.847656 L 196.03125 262.996094 L 192.695312 260.367188 L 190.089844 257.835938 Z M 195.523438 246.316406 " transform="matrix(1,0,0,1,-74,-13)"/>
<path style="fill-rule:nonzero;fill:rgb(39.99939%,39.99939%,39.99939%);fill-opacity:1;stroke-width:0.03;stroke-linecap:square;stroke-linejoin:miter;stroke:rgb(39.99939%,39.99939%,39.99939%);stroke-opacity:1;stroke-miterlimit:3.239307;" d="M 213.335938 181.585938 L 226.394531 186.734375 L 217.175781 207.199219 L 204.191406 201.824219 Z M 213.335938 181.585938 " transform="matrix(1,0,0,1,-74,-13)"/>
<path style="fill-rule:nonzero;fill:rgb(39.99939%,39.99939%,39.99939%);fill-opacity:1;stroke-width:0.03;stroke-linecap:square;stroke-linejoin:miter;stroke:rgb(39.99939%,39.99939%,39.99939%);stroke-opacity:1;stroke-miterlimit:3.239307;" d="M 201.996094 203.527344 L 216.238281 209.492188 L 199.449219 246.203125 L 194.847656 243.898438 L 187.929688 258.070312 L 183.320312 255.925781 L 183.980469 252.039062 L 185.796875 247.523438 L 191.394531 235.378906 L 195.34375 226.507812 L 196.664062 218.738281 L 198.640625 210.65625 Z M 201.996094 203.527344 " transform="matrix(1,0,0,1,-74,-13)"/>
<path style="fill-rule:nonzero;fill:rgb(39.99939%,39.99939%,39.99939%);fill-opacity:1;stroke-width:0.03;stroke-linecap:square;stroke-linejoin:miter;stroke:rgb(39.99939%,39.99939%,39.99939%);stroke-opacity:1;stroke-miterlimit:3.239307;" d="M 140.355469 139.507812 L 152.214844 141.292969 L 169.464844 145.753906 L 168.574219 156.921875 L 155.429688 158.578125 L 155.300781 153.007812 L 154.917969 153.054688 L 154.539062 153.105469 L 154.769531 158.621094 L 143.515625 158.964844 L 143.699219 153.296875 L 143.261719 153.246094 L 142.828125 153.195312 L 142.789062 159.027344 L 137.632812 159.324219 L 138.042969 148.53125 Z M 140.355469 139.507812 " transform="matrix(1,0,0,1,-74,-13)"/>
<path style="fill-rule:nonzero;fill:rgb(39.99939%,39.99939%,39.99939%);fill-opacity:1;stroke-width:0.03;stroke-linecap:square;stroke-linejoin:miter;stroke:rgb(39.99939%,39.99939%,39.99939%);stroke-opacity:1;stroke-miterlimit:3.239307;" d="M 201.933594 176.390625 L 210.707031 180.632812 L 202.132812 200.960938 L 192.28125 196.878906 Z M 201.933594 176.390625 " transform="matrix(1,0,0,1,-74,-13)"/>
<path style="fill-rule:nonzero;fill:rgb(39.99939%,39.99939%,39.99939%);fill-opacity:1;stroke-width:0.03;stroke-linecap:square;stroke-linejoin:miter;stroke:rgb(39.99939%,39.99939%,39.99939%);stroke-opacity:1;stroke-miterlimit:3.239307;" d="M 213.53125 142.691406 L 216.097656 138.648438 L 217.304688 137.15625 L 220.660156 138.890625 L 217.722656 145.054688 L 211.800781 154.757812 L 208.789062 159.355469 L 207.925781 159.765625 L 204.695312 165.382812 L 202.007812 172.636719 L 201.46875 172.738281 L 196.507812 169.574219 L 195.429688 168.554688 L 194.242188 167.230469 L 193.808594 166.410156 L 193.699219 165.390625 L 193.855469 164.832031 L 194.992188 163.859375 L 196.179688 163.550781 L 200.921875 162.015625 L 209.859375 150.574219 L 210.289062 148.226562 L 210.824219 146.386719 Z M 213.53125 142.691406 " transform="matrix(1,0,0,1,-74,-13)"/>
<path style="fill-rule:nonzero;fill:rgb(39.99939%,39.99939%,39.99939%);fill-opacity:1;stroke-width:0.03;stroke-linecap:square;stroke-linejoin:miter;stroke:rgb(39.99939%,39.99939%,39.99939%);stroke-opacity:1;stroke-miterlimit:3.239307;" d="M 162.964844 305.613281 L 165.863281 306.320312 L 166.164062 306.511719 L 166.316406 306.890625 L 166.316406 307.226562 L 166.265625 308.132812 L 165.148438 310.820312 Z M 162.964844 305.613281 " transform="matrix(1,0,0,1,-74,-13)"/>
<path style="fill-rule:nonzero;fill:rgb(39.99939%,39.99939%,39.99939%);fill-opacity:1;stroke-width:0.03;stroke-linecap:square;stroke-linejoin:miter;stroke:rgb(39.99939%,39.99939%,39.99939%);stroke-opacity:1;stroke-miterlimit:3.239307;" d="M 157.191406 257.3125 L 161.839844 264.316406 L 163.316406 266.496094 L 164.9375 269.144531 L 166.910156 273.113281 L 167.613281 275.035156 L 168.175781 277.023438 L 168.242188 278.753906 L 168.101562 279.285156 L 167.75 279.421875 L 152.796875 274.902344 L 152.234375 274.507812 L 151.878906 273.78125 L 152.339844 268.707031 L 152.996094 263.710938 L 152.796875 263.6875 L 153.308594 258.007812 L 153.59375 257.609375 L 153.875 257.40625 L 156.34375 257.183594 Z M 157.191406 257.3125 " transform="matrix(1,0,0,1,-74,-13)"/>
<path style="fill-rule:nonzero;fill:rgb(39.99939%,39.99939%,39.99939%);fill-opacity:1;stroke-width:0.03;stroke-linecap:square;stroke-linejoin:miter;stroke:rgb(39.99939%,39.99939%,39.99939%);stroke-opacity:1;stroke-miterlimit:3.239307;" d="M 149.785156 290.050781 L 168.277344 293.820312 L 167.019531 304.894531 L 152.410156 301.40625 L 148.191406 300.171875 Z M 149.785156 290.050781 " transform="matrix(1,0,0,1,-74,-13)"/>
<path style="fill-rule:nonzero;fill:rgb(39.99939%,39.99939%,39.99939%);fill-opacity:1;stroke-width:0.03;stroke-linecap:square;stroke-linejoin:miter;stroke:rgb(39.99939%,39.99939%,39.99939%);stroke-opacity:1;stroke-miterlimit:3.239307;" d="M 151.183594 277.511719 L 169.480469 282.027344 L 168.027344 290.21875 L 150.015625 286.539062 Z M 151.183594 277.511719 " transform="matrix(1,0,0,1,-74,-13)"/>
<path style="fill-rule:nonzero;fill:rgb(39.99939%,39.99939%,39.99939%);fill-opacity:1;stroke-width:0.03;stroke-linecap:square;stroke-linejoin:miter;stroke:rgb(39.99939%,39.99939%,39.99939%);stroke-opacity:1;stroke-miterlimit:3.239307;" d="M 128.320312 174.640625 L 127.917969 178.648438 L 125.871094 175.066406 L 126.34375 174.800781 L 126.84375 174.578125 L 127.203125 174.539062 Z M 128.320312 174.640625 " transform="matrix(1,0,0,1,-74,-13)"/>
</g>
</svg>
