<?xml version="1.0" encoding="UTF-8"?>
<svg xmlns="http://www.w3.org/2000/svg" xmlns:xlink="http://www.w3.org/1999/xlink" width="361pt" height="361pt" viewBox="0 0 361 361" version="1.1">
<defs>
<clipPath id="clip1">
  <path d="M 0 305 L 204 305 L 204 360 L 0 360 Z M 0 305 "/>
</clipPath>
<clipPath id="clip2">
  <path d="M 357 243 L 360 243 L 360 261 L 357 261 Z M 357 243 "/>
</clipPath>
<clipPath id="clip3">
  <path d="M 350 200 L 360 200 L 360 217 L 350 217 Z M 350 200 "/>
</clipPath>
<clipPath id="clip4">
  <path d="M 326 168 L 360 168 L 360 185 L 326 185 Z M 326 168 "/>
</clipPath>
<clipPath id="clip5">
  <path d="M 355 295 L 360 295 L 360 339 L 355 339 Z M 355 295 "/>
</clipPath>
<clipPath id="clip6">
  <path d="M 338 340 L 360 340 L 360 353 L 338 353 Z M 338 340 "/>
</clipPath>
<clipPath id="clip7">
  <path d="M 354 265 L 360 265 L 360 288 L 354 288 Z M 354 265 "/>
</clipPath>
<clipPath id="clip8">
  <path d="M 120 0 L 360 0 L 360 48 L 120 48 Z M 120 0 "/>
</clipPath>
<clipPath id="clip9">
  <path d="M 283 301 L 360 301 L 360 360 L 283 360 Z M 283 301 "/>
</clipPath>
<clipPath id="clip10">
  <path d="M 304 214 L 360 214 L 360 292 L 304 292 Z M 304 214 "/>
</clipPath>
</defs>
<g id="surface5082">
<path style="fill-rule:nonzero;fill:rgb(0%,0%,0%);fill-opacity:1;stroke-width:0.03;stroke-linecap:square;stroke-linejoin:miter;stroke:rgb(0%,0%,0%);stroke-opacity:1;stroke-miterlimit:10;" d="M 0 178 L 360 178 L 360 -182 L 0 -182 Z M 0 178 " transform="matrix(1,0,0,1,0,182)"/>
<g clip-path="url(#clip1)" clip-rule="nonzero">
<path style=" stroke:none;fill-rule:nonzero;fill:rgb(39.99939%,39.99939%,39.99939%);fill-opacity:0.3;" d="M -186.933594 633.457031 L -184.152344 619.121094 L -184.164062 617.75 L -185.042969 616.929688 L -186.207031 616.660156 L -187.664062 616.390625 L -219.53125 611.445312 L -220.128906 611.449219 L -220.730469 611.621094 L -221.523438 612.152344 L -221.796875 612.625 L -222.648438 617.082031 L -226.824219 616.429688 L -221.898438 589.925781 L -217.246094 590.746094 L -218.589844 597.34375 L -218.582031 598.039062 L -218.429688 598.523438 L -217.976562 599.082031 L -217.382812 599.355469 L -216.492188 599.5625 L -184.128906 604.492188 L -183.292969 604.320312 L -182.425781 604.058594 L -181.746094 603.453125 L -181.292969 602.847656 L -180.984375 601.683594 L -172.328125 557.148438 L -172.324219 555.757812 L -173.191406 554.925781 L -174.355469 554.652344 L -175.804688 554.375 L -207.945312 548.503906 L -208.542969 548.503906 L -209.144531 548.679688 L -209.941406 549.214844 L -210.21875 549.695312 L -211.117188 554.214844 L -215.28125 553.546875 L -209.140625 524.359375 L -204.492188 525.183594 L -205.921875 531.882812 L -205.921875 532.589844 L -205.773438 533.085938 L -205.332031 533.648438 L -204.738281 533.929688 L -203.851562 534.140625 L -171.953125 539.566406 L -171.117188 539.394531 L -170.25 539.132812 L -169.5625 538.519531 L -169.101562 537.90625 L -168.78125 536.726562 L -160.765625 497.722656 L -160.765625 495.816406 L -161.636719 494.984375 L -162.796875 494.710938 L -164.25 494.433594 L -196.039062 489.097656 L -196.640625 489.097656 L -197.238281 489.273438 L -198.039062 489.808594 L -198.316406 490.285156 L -199.210938 494.792969 L -203.375 494.128906 L -198.171875 465.910156 L -193.523438 466.734375 L -194.945312 473.417969 L -194.945312 474.125 L -194.796875 474.617188 L -194.355469 475.179688 L -193.761719 475.460938 L -192.875 475.671875 L -160.230469 481.089844 L -159.394531 480.917969 L -158.523438 480.652344 L -157.835938 480.042969 L -157.378906 479.433594 L -157.058594 478.253906 L -148.808594 433.621094 L -148.808594 432.238281 L -149.679688 431.410156 L -150.84375 431.136719 L -152.296875 430.859375 L -183.363281 425.523438 L -183.964844 425.527344 L -184.5625 425.699219 L -185.363281 426.234375 L -185.640625 426.710938 L -186.535156 431.210938 L -190.699219 430.546875 L -185.324219 402.710938 L -180.675781 403.535156 L -182.09375 410.210938 L -182.09375 410.917969 L -181.945312 411.410156 L -181.503906 411.972656 L -180.910156 412.253906 L -180.023438 412.464844 L -148.59375 417.53125 L -147.757812 417.359375 L -146.890625 417.097656 L -146.203125 416.488281 L -145.746094 415.878906 L -145.425781 414.703125 L -133.21875 345.046875 L -133.21875 343.664062 L -134.089844 342.835938 L -135.253906 342.5625 L -136.707031 342.285156 L -167.785156 336.949219 L -168.386719 336.953125 L -168.988281 337.125 L -169.785156 337.660156 L -170.0625 338.136719 L -175.320312 363.152344 L -178.351562 362.507812 L -178.757812 359.019531 L -178.757812 352.242188 L -178.554688 347.011719 L -178.144531 342.75 L -177.730469 338.613281 L -176.792969 332.960938 L -176.007812 329.242188 L -174.992188 325.746094 L -173.253906 322.214844 L -170.851562 318.316406 L -167.375 314.054688 L -164.203125 311.042969 L -160.953125 308.558594 L -157.160156 306.347656 L -154.101562 305.359375 L 187.148438 364.234375 L 189.089844 364.578125 L 191.679688 365.355469 L 194.042969 366.421875 L 196.238281 367.789062 L 197.839844 369.078125 L 199.476562 370.742188 L 200.78125 372.441406 L 201.828125 374.183594 L 202.613281 375.875 L 203.253906 377.785156 L 203.695312 379.917969 L 203.859375 381.683594 L 203.828125 383.664062 L 203.691406 384.921875 L 203.472656 386.605469 L 191.679688 460.417969 L 116.910156 444.078125 L 74.347656 642.71875 L 112.324219 648.46875 L 112.636719 617.617188 L 157.605469 623.335938 L 156.039062 631.421875 L 155.351562 633.457031 L 154.269531 636.652344 L 152.632812 641.105469 L 149.894531 645.820312 L 147.148438 650.277344 L 143.851562 654.472656 L 142.210938 658.140625 L 141.117188 661.546875 L 133.234375 700.316406 L 133.210938 703.390625 L 133.84375 707.183594 L 134.5625 710.640625 L 135.648438 720.5 L 135.945312 723.335938 L 136.039062 726.445312 L 135.867188 729.214844 L 132.226562 748.417969 L 121.289062 747.519531 L 101.1875 742.671875 L 119.417969 657.160156 L 71.144531 651.816406 L 28.140625 869.808594 L 108.460938 881.011719 L 101.742188 918.335938 L 99.664062 925.714844 L 97.757812 931.292969 L 95.679688 936.375 L 93.773438 940.640625 L 91.695312 944.578125 L 89.445312 947.53125 L 86.507812 951.304688 L 84.816406 955.671875 L 56.425781 1084.855469 L 57.296875 1089.375 L 58.382812 1094.503906 L 59.472656 1101.074219 L 60.125 1106.414062 L 60.566406 1113.394531 L 60.789062 1118.527344 L 61.007812 1124.894531 L 60.582031 1130.4375 L 59.9375 1134.75 L 58.425781 1139.0625 L 56.699219 1142.761719 L 54.753906 1146.046875 L 53.15625 1148.253906 L 51.488281 1150.121094 L 50 1151.59375 L 48.453125 1152.835938 L 46.789062 1154.023438 L 44.347656 1155.269531 L 42.144531 1156.117188 L 40.121094 1156.683594 L 37.917969 1157.304688 L 34.941406 1157.644531 L 32.441406 1157.757812 L 29.761719 1157.535156 L 27.5 1157.308594 L 25.355469 1157.027344 L 23.6875 1156.632812 L 17.992188 1155.503906 L -189.691406 1102.21875 L -193.136719 1100.871094 L -196.503906 1098.898438 L -202.277344 1094.945312 L -204.679688 1093.273438 L -207.566406 1091.605469 L -210.132812 1090.539062 L -212.539062 1089.933594 L -251.488281 1082.207031 L -256.296875 1081.753906 L -229.292969 937.085938 L -174.011719 947.253906 L -175.464844 957.304688 L -171.863281 957.578125 L -171.09375 947.710938 L -141.832031 953.671875 L -142.792969 963.25 L -140.851562 963.445312 L -138.914062 963.640625 L -138.371094 949.867188 L -228.742188 931.796875 L -223.238281 901.828125 L -225.078125 901.578125 L -226.921875 901.332031 L -232.308594 931.042969 L -259.664062 1081.910156 L -263.507812 1082.519531 L -266.714844 1083.128906 L -271.519531 1084.199219 L -274.722656 1084.808594 L -278.355469 1084.929688 L -304.734375 1078.179688 L -306.890625 1075.980469 L -308.386719 1073.777344 L -309.714844 1071.261719 L -310.878906 1068.429688 L -311.378906 1065.597656 L -311.550781 1062.132812 L -308.617188 1022.957031 L -307.960938 1017.921875 L -307.230469 1011.261719 L -306.011719 1003.445312 L -304.386719 991.914062 L -302.488281 980.957031 L -300.605469 972.152344 L -289.144531 918.507812 L -286.816406 911.613281 L -283.328125 905.816406 L -281.582031 906.089844 L -286.433594 928.707031 L -286.292969 929.359375 L -285.882812 930.011719 L -284.78125 930.535156 L -283.679688 930.664062 L -249.808594 937.160156 L -248.15625 937.15625 L -247.328125 936.894531 L -246.777344 935.980469 L -246.363281 934.933594 L -246.085938 934.148438 L -232.449219 868.722656 L -232.449219 867.34375 L -233.320312 866.519531 L -234.484375 866.246094 L -235.9375 865.972656 L -267.007812 860.65625 L -267.605469 860.65625 L -268.207031 860.828125 L -269.003906 861.363281 L -269.28125 861.835938 L -270.167969 866.320312 L -274.335938 865.65625 L -269.179688 838.972656 L -264.527344 839.792969 L -265.9375 846.445312 L -265.9375 847.144531 L -265.789062 847.636719 L -265.34375 848.199219 L -264.75 848.476562 L -263.863281 848.6875 L -231.574219 853.734375 L -230.738281 853.5625 L -229.871094 853.300781 L -229.183594 852.691406 L -228.726562 852.085938 L -228.40625 850.914062 L -218.976562 805.933594 L -218.597656 804.53125 L -218.894531 803.578125 L -219.765625 802.753906 L -220.929688 802.480469 L -222.382812 802.207031 L -253.460938 796.902344 L -254.0625 796.902344 L -254.660156 797.078125 L -255.457031 797.609375 L -255.734375 798.082031 L -256.617188 802.566406 L -260.785156 801.902344 L -255.652344 775.230469 L -251 776.050781 L -252.40625 782.699219 L -252.40625 783.398438 L -252.253906 783.890625 L -251.808594 784.453125 L -251.21875 784.730469 L -250.328125 784.941406 L -218.03125 789.972656 L -217.195312 789.800781 L -216.328125 789.539062 L -215.640625 788.933594 L -215.183594 788.324219 L -214.867188 787.152344 L -206.894531 742.351562 L -206.898438 740.976562 L -207.773438 740.152344 L -208.9375 739.878906 L -210.390625 739.605469 L -242.394531 734.148438 L -242.996094 734.148438 L -243.59375 734.320312 L -244.390625 734.855469 L -244.667969 735.328125 L -245.546875 739.804688 L -249.714844 739.148438 L -244.617188 712.5 L -239.960938 713.316406 L -241.355469 719.957031 L -241.355469 720.660156 L -241.207031 721.148438 L -240.757812 721.707031 L -240.164062 721.988281 L -239.277344 722.195312 L -206.96875 727.210938 L -206.132812 727.039062 L -205.265625 726.777344 L -204.578125 726.171875 L -204.125 725.5625 L -203.808594 724.394531 L -196.132812 680.242188 L -196.140625 678.867188 L -197.015625 678.042969 L -198.179688 677.773438 L -199.636719 677.5 L -230.738281 672.238281 L -231.339844 672.242188 L -231.9375 672.414062 L -232.734375 672.945312 L -233.011719 673.421875 L -233.878906 677.890625 L -238.050781 677.234375 L -232.847656 647.703125 L -228.1875 648.511719 L -229.566406 655.136719 L -229.5625 655.835938 L -229.410156 656.328125 L -228.964844 656.882812 L -228.371094 657.164062 L -227.480469 657.371094 L -195.152344 662.355469 L -194.316406 662.183594 L -193.449219 661.921875 L -192.765625 661.3125 L -192.3125 660.707031 L -191.996094 659.539062 Z M -186.933594 633.457031 "/>
</g>
<path style=" stroke:none;fill-rule:nonzero;fill:rgb(39.99939%,39.99939%,39.99939%);fill-opacity:0.3;" d="M 67.355469 107.191406 L 107.769531 148.816406 L 67.558594 184.664062 L 37.125 211.292969 L -11.289062 252.980469 L -51.871094 211.140625 Z M 67.355469 107.191406 "/>
<path style=" stroke:none;fill-rule:nonzero;fill:rgb(39.99939%,39.99939%,39.99939%);fill-opacity:0.3;" d="M 47.96875 68.921875 L -4.785156 114.175781 L -9.210938 109.535156 L -4.652344 105.609375 L -8.683594 101.378906 L -13.246094 105.304688 L -17.671875 100.660156 L -5.640625 90.308594 L -1.210938 94.949219 L -5.773438 98.875 L -1.738281 103.101562 L 6.917969 95.691406 L 2.890625 91.445312 L 6.109375 88.691406 L 10.136719 92.9375 L 21.140625 83.515625 L 17.105469 79.289062 L 12.546875 83.210938 L 8.121094 78.570312 L 20.152344 68.214844 L 24.578125 72.859375 L 20.019531 76.78125 L 24.046875 81.003906 L 34.15625 72.332031 L 30.128906 68.085938 L 33.347656 65.332031 L 37.375 69.578125 L 43.273438 64.511719 Z M 47.96875 68.921875 "/>
<path style=" stroke:none;fill-rule:nonzero;fill:rgb(39.99939%,39.99939%,39.99939%);fill-opacity:0.3;" d="M 148.914062 -49.335938 L 124.820312 -62.484375 L 53.277344 -102.441406 L 21.640625 -121.972656 L -17.117188 -145.902344 L -68.183594 -182.6875 L 57.242188 -383.1875 L 195.769531 -166.101562 L 226.976562 -120.332031 L 339.808594 46.777344 L 334.667969 50.292969 L 314.09375 38.988281 L 307.304688 38.40625 L 257.8125 14.730469 L 250.105469 11.039062 L 201.984375 -14.984375 L 184.113281 -27.167969 L 160.886719 -42.800781 Z M 148.914062 -49.335938 "/>
<path style=" stroke:none;fill-rule:nonzero;fill:rgb(39.99939%,39.99939%,39.99939%);fill-opacity:0.3;" d="M 67.035156 211.230469 L 67.257812 208.828125 L 69.292969 208.996094 Z M 67.035156 211.230469 "/>
<path style=" stroke:none;fill-rule:nonzero;fill:rgb(39.99939%,39.99939%,39.99939%);fill-opacity:0.3;" d="M 78.542969 199.863281 L 79.136719 193.445312 L 84.582031 193.894531 Z M 78.542969 199.863281 "/>
<path style=" stroke:none;fill-rule:nonzero;fill:rgb(39.99939%,39.99939%,39.99939%);fill-opacity:0.3;" d="M 68.261719 106.550781 L 194.820312 -3.917969 L 210.875 4.976562 L 216.855469 8.941406 L 226.421875 15.175781 L 237.902344 20.871094 L 215.695312 40.957031 L 224.066406 49.53125 L 107.992188 147.871094 Z M 68.261719 106.550781 "/>
<path style=" stroke:none;fill-rule:nonzero;fill:rgb(39.99939%,39.99939%,39.99939%);fill-opacity:0.3;" d="M 159.136719 -35.207031 L 64.5 52.550781 L 51.328125 40.066406 L 52.449219 33.28125 L 80.804688 10.347656 L 79.570312 8.808594 L 51.027344 31.871094 L 44.691406 25.597656 L 130.640625 -52.082031 L 138.976562 -48.171875 L 144.921875 -44.160156 L 107.722656 -11.019531 L 109.265625 -9.703125 L 110.8125 -8.386719 L 148.425781 -41.792969 Z M 159.136719 -35.207031 "/>
<path style=" stroke:none;fill-rule:nonzero;fill:rgb(39.99939%,39.99939%,39.99939%);fill-opacity:0.3;" d="M 186.34375 -7.882812 L 174.984375 2.574219 L 153.953125 -18.246094 L 165.371094 -28.644531 Z M 186.34375 -7.882812 "/>
<path style=" stroke:none;fill-rule:nonzero;fill:rgb(39.99939%,39.99939%,39.99939%);fill-opacity:0.3;" d="M 172.003906 5.203125 L 160.648438 15.660156 L 139.617188 -5.160156 L 151.035156 -15.558594 Z M 172.003906 5.203125 "/>
<path style=" stroke:none;fill-rule:nonzero;fill:rgb(39.99939%,39.99939%,39.99939%);fill-opacity:0.3;" d="M 158.4375 17.636719 L 147.082031 28.09375 L 126.050781 7.273438 L 137.46875 -3.125 Z M 158.4375 17.636719 "/>
<path style=" stroke:none;fill-rule:nonzero;fill:rgb(39.99939%,39.99939%,39.99939%);fill-opacity:0.3;" d="M 130.761719 43.054688 L 119.40625 53.511719 L 98.375 32.6875 L 109.792969 22.289062 Z M 130.761719 43.054688 "/>
<path style=" stroke:none;fill-rule:nonzero;fill:rgb(39.99939%,39.99939%,39.99939%);fill-opacity:0.3;" d="M 144.246094 30.769531 L 132.886719 41.230469 L 111.855469 20.40625 L 123.273438 10.007812 Z M 144.246094 30.769531 "/>
<path style=" stroke:none;fill-rule:nonzero;fill:rgb(39.99939%,39.99939%,39.99939%);fill-opacity:0.3;" d="M 102.515625 69.101562 L 91.15625 79.5625 L 70.128906 58.738281 L 81.546875 48.335938 Z M 102.515625 69.101562 "/>
<path style=" stroke:none;fill-rule:nonzero;fill:rgb(39.99939%,39.99939%,39.99939%);fill-opacity:0.3;" d="M 115.996094 56.816406 L 104.636719 67.277344 L 83.609375 46.453125 L 95.027344 36.050781 Z M 115.996094 56.816406 "/>
<path style=" stroke:none;fill-rule:nonzero;fill:rgb(39.99939%,39.99939%,39.99939%);fill-opacity:0.3;" d="M 46.042969 121.023438 L 34.683594 131.484375 L 13.65625 110.65625 L 25.074219 100.253906 Z M 46.042969 121.023438 "/>
<path style=" stroke:none;fill-rule:nonzero;fill:rgb(39.99939%,39.99939%,39.99939%);fill-opacity:0.3;" d="M 59.835938 108.449219 L 48.476562 118.910156 L 27.449219 98.085938 L 38.867188 87.683594 Z M 59.835938 108.449219 "/>
<path style=" stroke:none;fill-rule:nonzero;fill:rgb(39.99939%,39.99939%,39.99939%);fill-opacity:0.3;" d="M 73.703125 95.8125 L 62.34375 106.273438 L 41.316406 85.445312 L 52.734375 75.042969 Z M 73.703125 95.8125 "/>
<path style=" stroke:none;fill-rule:nonzero;fill:rgb(39.99939%,39.99939%,39.99939%);fill-opacity:0.3;" d="M 88.917969 81.640625 L 77.558594 92.101562 L 56.53125 71.277344 L 67.949219 60.875 Z M 88.917969 81.640625 "/>
<path style=" stroke:none;fill-rule:nonzero;fill:rgb(39.99939%,39.99939%,39.99939%);fill-opacity:0.3;" d="M 1.285156 159.261719 L -10.074219 169.730469 L -31.097656 148.898438 L -19.679688 138.496094 Z M 1.285156 159.261719 "/>
<path style=" stroke:none;fill-rule:nonzero;fill:rgb(39.99939%,39.99939%,39.99939%);fill-opacity:0.3;" d="M 31.242188 134.640625 L 19.703125 144.929688 L -1.140625 124.273438 L 10.277344 113.871094 Z M 31.242188 134.640625 "/>
<path style=" stroke:none;fill-rule:nonzero;fill:rgb(39.99939%,39.99939%,39.99939%);fill-opacity:0.3;" d="M 56.117188 -40.414062 L 61.476562 -34.796875 L 58.757812 -32.457031 L 63.640625 -27.339844 L 66.359375 -29.679688 L 71.71875 -24.0625 L 57.160156 -11.539062 L 51.800781 -17.15625 L 54.417969 -19.605469 L 49.636719 -24.613281 L 46.917969 -22.273438 L 44.359375 -24.957031 L 32.335938 -14.617188 L 34.726562 -12.109375 L 32.089844 -9.683594 L 37.058594 -4.476562 L 39.78125 -6.816406 L 45.136719 -1.199219 L 30.578125 11.324219 L 25.21875 5.710938 L 27.941406 3.371094 L 23.054688 -1.75 L 20.335938 0.589844 L 14.976562 -5.027344 L 28.691406 -16.824219 L 26.132812 -19.507812 L 28.851562 -21.847656 L 23.964844 -26.964844 L 21.246094 -24.625 L 15.886719 -30.242188 L 30.445312 -42.765625 L 35.804688 -37.148438 L 33.085938 -34.808594 L 37.972656 -29.691406 L 40.691406 -32.03125 L 43.25 -29.347656 Z M 56.117188 -40.414062 "/>
<path style=" stroke:none;fill-rule:nonzero;fill:rgb(39.99939%,39.99939%,39.99939%);fill-opacity:0.3;" d="M 4.394531 -0.980469 L 9.753906 4.636719 L 7.035156 6.972656 L 11.917969 12.09375 L 14.636719 9.753906 L 19.996094 15.371094 L 5.4375 27.894531 L 0.078125 22.277344 L 2.695312 19.832031 L -2.085938 14.820312 L -4.804688 17.160156 L -7.367188 14.476562 L -19.390625 24.820312 L -16.996094 27.324219 L -19.632812 29.753906 L -14.664062 34.960938 L -11.945312 32.621094 L -6.585938 38.238281 L -21.144531 50.765625 L -26.503906 45.148438 L -23.785156 42.808594 L -28.667969 37.691406 L -31.386719 40.03125 L -36.746094 34.410156 L -23.03125 22.613281 L -25.59375 19.925781 L -22.875 17.589844 L -27.757812 12.46875 L -30.480469 14.808594 L -35.839844 9.191406 L -21.28125 -3.335938 L -15.917969 2.285156 L -18.640625 4.621094 L -13.753906 9.742188 L -11.035156 7.402344 L -8.472656 10.085938 Z M 4.394531 -0.980469 "/>
<path style=" stroke:none;fill-rule:nonzero;fill:rgb(39.99939%,39.99939%,39.99939%);fill-opacity:0.3;" d="M 17.761719 146.929688 L 6.148438 157.140625 L -14.625 136.566406 L -3.203125 126.160156 Z M 17.761719 146.929688 "/>
<path style=" stroke:none;fill-rule:nonzero;fill:rgb(39.99939%,39.99939%,39.99939%);fill-opacity:0.3;" d="M 350.722656 250.953125 L 291.070312 242.042969 L 292.457031 233.980469 L 352.074219 242.886719 Z M 350.722656 250.953125 "/>
<g clip-path="url(#clip2)" clip-rule="nonzero">
<path style=" stroke:none;fill-rule:nonzero;fill:rgb(39.99939%,39.99939%,39.99939%);fill-opacity:0.3;" d="M 417.070312 260.871094 L 357.421875 251.960938 L 358.8125 243.902344 L 418.421875 252.808594 Z M 417.070312 260.871094 "/>
</g>
<g clip-path="url(#clip3)" clip-rule="nonzero">
<path style=" stroke:none;fill-rule:nonzero;fill:rgb(39.99939%,39.99939%,39.99939%);fill-opacity:0.3;" d="M 393.582031 216.226562 L 350.625 208.8125 L 352.214844 200.785156 L 395.132812 208.191406 Z M 393.582031 216.226562 "/>
</g>
<path style=" stroke:none;fill-rule:nonzero;fill:rgb(39.99939%,39.99939%,39.99939%);fill-opacity:0.3;" d="M 351.375 189.808594 L 347.691406 210.285156 L 339.226562 208.882812 L 342.902344 188.445312 Z M 351.375 189.808594 "/>
<path style=" stroke:none;fill-rule:nonzero;fill:rgb(39.99939%,39.99939%,39.99939%);fill-opacity:0.3;" d="M 336.5625 187.6875 L 332.882812 208.164062 L 324.417969 206.761719 L 328.09375 186.324219 Z M 336.5625 187.6875 "/>
<g clip-path="url(#clip4)" clip-rule="nonzero">
<path style=" stroke:none;fill-rule:nonzero;fill:rgb(39.99939%,39.99939%,39.99939%);fill-opacity:0.3;" d="M 369.179688 184.15625 L 326.214844 176.742188 L 327.804688 168.714844 L 370.726562 176.125 Z M 369.179688 184.15625 "/>
</g>
<path style=" stroke:none;fill-rule:nonzero;fill:rgb(39.99939%,39.99939%,39.99939%);fill-opacity:0.3;" d="M 358.746094 145.652344 L 355.070312 166.128906 L 346.601562 164.726562 L 350.273438 144.289062 Z M 358.746094 145.652344 "/>
<g clip-path="url(#clip5)" clip-rule="nonzero">
<path style=" stroke:none;fill-rule:nonzero;fill:rgb(39.99939%,39.99939%,39.99939%);fill-opacity:0.3;" d="M 371.101562 297.285156 L 363.714844 338.207031 L 355.253906 336.808594 L 362.632812 295.925781 Z M 371.101562 297.285156 "/>
</g>
<g clip-path="url(#clip6)" clip-rule="nonzero">
<path style=" stroke:none;fill-rule:nonzero;fill:rgb(39.99939%,39.99939%,39.99939%);fill-opacity:0.3;" d="M 360.160156 352.214844 L 338.671875 348.492188 L 340.277344 340.460938 L 361.722656 344.179688 Z M 360.160156 352.214844 "/>
</g>
<path style=" stroke:none;fill-rule:nonzero;fill:rgb(39.99939%,39.99939%,39.99939%);fill-opacity:0.3;" d="M 323.464844 308.976562 L 316.085938 349.90625 L 307.625 348.507812 L 314.996094 307.617188 Z M 323.464844 308.976562 "/>
<path style=" stroke:none;fill-rule:nonzero;fill:rgb(39.99939%,39.99939%,39.99939%);fill-opacity:0.3;" d="M 295.597656 343.890625 L 274.109375 340.164062 L 275.710938 332.132812 L 297.160156 335.855469 Z M 295.597656 343.890625 "/>
<path style=" stroke:none;fill-rule:nonzero;fill:rgb(39.99939%,39.99939%,39.99939%);fill-opacity:0.3;" d="M 349.117188 309.027344 L 289.472656 300.121094 L 290.863281 292.058594 L 350.46875 300.960938 Z M 349.117188 309.027344 "/>
<path style=" stroke:none;fill-rule:nonzero;fill:rgb(39.99939%,39.99939%,39.99939%);fill-opacity:0.3;" d="M 291.917969 273.65625 L 281.351562 330.203125 L 272.898438 328.75 L 283.457031 272.246094 Z M 291.917969 273.65625 "/>
<g clip-path="url(#clip7)" clip-rule="nonzero">
<path style=" stroke:none;fill-rule:nonzero;fill:rgb(39.99939%,39.99939%,39.99939%);fill-opacity:0.3;" d="M 366.773438 267.132812 L 363.085938 287.609375 L 354.621094 286.210938 L 358.304688 265.769531 Z M 366.773438 267.132812 "/>
</g>
<path style=" stroke:none;fill-rule:nonzero;fill:rgb(39.99939%,39.99939%,39.99939%);fill-opacity:0.3;" d="M 333.441406 254.210938 L 326.074219 295.132812 L 317.609375 293.730469 L 324.96875 252.847656 Z M 333.441406 254.210938 "/>
<path style=" stroke:none;fill-rule:nonzero;fill:rgb(39.99939%,39.99939%,39.99939%);fill-opacity:0.3;" d="M 351.078125 256.535156 L 343.710938 297.453125 L 335.246094 296.054688 L 342.609375 255.175781 Z M 351.078125 256.535156 "/>
<g clip-path="url(#clip8)" clip-rule="nonzero">
<path style=" stroke:none;fill-rule:nonzero;fill:rgb(39.99939%,39.99939%,39.99939%);fill-opacity:0.3;" d="M 898.296875 -627.570312 L 899.582031 -624.484375 L 900.558594 -621.105469 L 901.101562 -618.238281 L 901.539062 -613.632812 L 901.539062 -608.820312 L 901.433594 -605.339844 L 900.898438 -601.246094 L 899.925781 -595.921875 L 898.847656 -591.109375 L 897.875 -587.9375 L 884.476562 -520.859375 L 878.289062 -490.585938 L 875.894531 -483.347656 L 872.894531 -478.183594 L 868.296875 -471.15625 L 862.816406 -452.160156 L 367.566406 46.597656 L 366.554688 47.0625 L 365.347656 47.242188 L 364.140625 47.242188 L 362.9375 46.890625 L 361.636719 46.363281 L 360.523438 45.746094 L 120.847656 -317.953125 L 196.394531 -431.242188 L 263.863281 -593.453125 L 272.195312 -601.59375 L 278.964844 -598.160156 L 305.171875 -616.792969 L 361.789062 -620.511719 L 358.816406 -686.320312 L 361.4375 -689.75 L 362.292969 -739.003906 L 433.222656 -815.800781 L 506.589844 -900.246094 L 610.246094 -1026.074219 L 732.714844 -923.941406 L 750.9375 -897.210938 L 829.699219 -749.832031 L 729.367188 -713.804688 L 739.894531 -685.894531 L 677.988281 -658.5625 L 603.523438 -552.328125 L 690.832031 -599.265625 L 718.871094 -589.179688 L 707.257812 -580.601562 L 772.53125 -562.859375 L 779.183594 -567.484375 L 790.984375 -563.242188 Z M 898.296875 -627.570312 "/>
</g>
<path style=" stroke:none;fill-rule:nonzero;fill:rgb(39.99939%,39.99939%,39.99939%);fill-opacity:0.3;" d="M 155.4375 228.984375 L 168.390625 242.902344 L 155.613281 253.257812 L 142.738281 239.636719 Z M 155.4375 228.984375 "/>
<path style=" stroke:none;fill-rule:nonzero;fill:rgb(39.99939%,39.99939%,39.99939%);fill-opacity:0.3;" d="M 62.621094 284.34375 L 73.425781 295.710938 L 62.382812 305.710938 L 51.429688 294.183594 Z M 62.621094 284.34375 "/>
<path style=" stroke:none;fill-rule:nonzero;fill:rgb(39.99939%,39.99939%,39.99939%);fill-opacity:0.3;" d="M 90.527344 258.074219 L 102.144531 269.707031 L 91.097656 279.707031 L 79.414062 268.277344 Z M 90.527344 258.074219 "/>
<path style=" stroke:none;fill-rule:nonzero;fill:rgb(39.99939%,39.99939%,39.99939%);fill-opacity:0.3;" d="M 108.292969 242.183594 L 119.773438 253.746094 L 108.726562 263.742188 L 97.210938 252.253906 Z M 108.292969 242.183594 "/>
<path style=" stroke:none;fill-rule:nonzero;fill:rgb(39.99939%,39.99939%,39.99939%);fill-opacity:0.3;" d="M 126.386719 225.625 L 138.074219 237.179688 L 127.03125 247.171875 L 115.355469 235.871094 Z M 126.386719 225.625 "/>
<path style=" stroke:none;fill-rule:nonzero;fill:rgb(39.99939%,39.99939%,39.99939%);fill-opacity:0.3;" d="M 143.960938 209.730469 L 155.382812 221.398438 L 144.660156 231.214844 L 133.039062 219.765625 Z M 143.960938 209.730469 "/>
<path style=" stroke:none;fill-rule:nonzero;fill:rgb(39.99939%,39.99939%,39.99939%);fill-opacity:0.3;" d="M 205.480469 242.066406 L 198.375 241.574219 L 198.730469 236.804688 L 195.449219 236.589844 L 195.09375 241.386719 L 187.988281 240.921875 L 189.566406 219.59375 L 186.289062 219.378906 L 185.914062 224.445312 L 178.804688 223.980469 L 180.132812 206.027344 L 187.242188 206.492188 L 186.820312 212.183594 L 190.097656 212.398438 L 190.519531 206.707031 L 197.625 207.171875 L 195.984375 229.394531 L 199.261719 229.609375 L 199.578125 225.339844 L 206.683594 225.804688 Z M 205.480469 242.066406 "/>
<path style=" stroke:none;fill-rule:nonzero;fill:rgb(39.99939%,39.99939%,39.99939%);fill-opacity:0.3;" d="M 190.40625 251.945312 L 188.890625 268.1875 L 181.796875 267.601562 L 182.191406 263.335938 L 178.917969 263.0625 L 176.429688 289.765625 L 179.703125 290.035156 L 180.125 285.53125 L 187.21875 286.117188 L 185.703125 302.359375 L 178.609375 301.777344 L 179.136719 296.089844 L 175.867188 295.820312 L 175.335938 301.503906 L 168.238281 300.921875 L 170.285156 278.992188 L 167.011719 278.722656 L 166.480469 284.40625 L 159.382812 283.820312 L 161.054688 265.886719 L 168.152344 266.472656 L 167.679688 271.535156 L 170.953125 271.804688 L 172.9375 250.503906 L 180.035156 251.089844 L 179.589844 255.878906 L 182.863281 256.148438 L 183.304688 251.386719 Z M 190.40625 251.945312 "/>
<path style=" stroke:none;fill-rule:nonzero;fill:rgb(39.99939%,39.99939%,39.99939%);fill-opacity:0.3;" d="M 268.273438 77.117188 L 275.375 77.707031 L 274.90625 82.765625 L 278.179688 83.035156 L 280.152344 61.746094 L 287.25 62.335938 L 286.808594 67.121094 L 290.082031 67.390625 L 290.523438 62.632812 L 297.625 63.191406 L 296.121094 79.425781 L 289.019531 78.835938 L 289.417969 74.574219 L 286.140625 74.300781 L 284.085938 96.488281 L 276.988281 95.898438 L 277.511719 90.21875 L 274.238281 89.945312 L 272.050781 113.550781 L 264.953125 112.964844 L 265.421875 107.90625 L 262.148438 107.632812 L 261.679688 112.691406 L 254.578125 112.105469 L 256.242188 94.183594 L 263.339844 94.769531 L 262.8125 100.453125 L 266.085938 100.722656 Z M 268.273438 77.117188 "/>
<path style=" stroke:none;fill-rule:nonzero;fill:rgb(39.99939%,39.99939%,39.99939%);fill-opacity:0.3;" d="M 248.054688 102.378906 L 246.546875 118.613281 L 239.449219 118.023438 L 239.84375 113.761719 L 236.570312 113.492188 L 234.09375 140.179688 L 237.371094 140.449219 L 237.785156 135.949219 L 244.886719 136.535156 L 243.378906 152.769531 L 236.28125 152.183594 L 236.808594 146.5 L 233.535156 146.230469 L 233.007812 151.914062 L 225.90625 151.324219 L 227.941406 129.40625 L 224.667969 129.136719 L 224.140625 134.820312 L 217.042969 134.234375 L 218.703125 116.308594 L 225.800781 116.894531 L 225.332031 121.953125 L 228.609375 122.226562 L 230.582031 100.933594 L 237.679688 101.519531 L 237.234375 106.308594 L 240.511719 106.578125 L 240.953125 101.820312 Z M 248.054688 102.378906 "/>
<path style=" stroke:none;fill-rule:nonzero;fill:rgb(39.99939%,39.99939%,39.99939%);fill-opacity:0.3;" d="M 254.984375 52.875 L 253.480469 69.105469 L 246.382812 68.519531 L 246.777344 64.257812 L 243.5 63.984375 L 241.445312 86.171875 L 234.347656 85.582031 L 234.875 79.902344 L 231.601562 79.628906 L 231.074219 85.3125 L 223.972656 84.722656 L 225.632812 66.800781 L 232.734375 67.390625 L 232.265625 72.449219 L 235.539062 72.71875 L 237.511719 51.429688 L 244.609375 52.015625 L 244.167969 56.804688 L 247.441406 57.074219 L 247.882812 52.316406 Z M 254.984375 52.875 "/>
<path style=" stroke:none;fill-rule:nonzero;fill:rgb(39.99939%,39.99939%,39.99939%);fill-opacity:0.3;" d="M 212.445312 91.621094 L 210.941406 107.855469 L 203.839844 107.269531 L 204.234375 103.003906 L 200.960938 102.734375 L 198.90625 124.921875 L 191.808594 124.335938 L 192.332031 118.652344 L 189.058594 118.378906 L 188.53125 124.0625 L 181.433594 123.476562 L 183.09375 105.550781 L 190.195312 106.136719 L 189.726562 111.199219 L 193 111.46875 L 194.972656 90.175781 L 202.070312 90.761719 L 201.625 95.550781 L 204.902344 95.820312 L 205.34375 91.0625 Z M 212.445312 91.621094 "/>
<path style=" stroke:none;fill-rule:nonzero;fill:rgb(39.99939%,39.99939%,39.99939%);fill-opacity:0.3;" d="M 147.746094 136.167969 L 154.84375 136.753906 L 154.375 141.816406 L 157.652344 142.085938 L 159.625 120.789062 L 166.722656 121.378906 L 166.277344 126.167969 L 169.554688 126.4375 L 169.996094 121.675781 L 177.097656 122.234375 L 175.589844 138.472656 L 168.492188 137.882812 L 168.886719 133.621094 L 165.613281 133.347656 L 163.558594 155.539062 L 156.457031 154.953125 L 156.984375 149.269531 L 153.710938 149 L 151.125 176.875 L 154.402344 177.144531 L 154.796875 172.882812 L 161.894531 173.46875 L 160.386719 189.707031 L 153.292969 189.09375 L 153.734375 184.328125 L 150.460938 184.058594 L 150.015625 188.847656 L 142.917969 188.261719 L 144.894531 166.964844 L 141.617188 166.691406 L 141.148438 171.753906 L 134.050781 171.167969 L 135.710938 153.238281 L 142.8125 153.824219 L 142.285156 159.507812 L 145.558594 159.78125 Z M 147.746094 136.167969 "/>
<path style=" stroke:none;fill-rule:nonzero;fill:rgb(39.99939%,39.99939%,39.99939%);fill-opacity:0.3;" d="M 131.867188 197.632812 L 130.359375 213.871094 L 123.261719 213.285156 L 123.65625 209.019531 L 120.382812 208.75 L 118.320312 230.945312 L 111.222656 230.359375 L 111.75 224.671875 L 108.476562 224.402344 L 107.949219 230.089844 L 100.851562 229.5 L 102.515625 211.570312 L 109.613281 212.15625 L 109.144531 217.21875 L 112.417969 217.488281 L 114.394531 196.1875 L 121.492188 196.773438 L 121.050781 201.5625 L 124.324219 201.835938 L 124.765625 197.070312 Z M 131.867188 197.632812 "/>
<path style=" stroke:none;fill-rule:nonzero;fill:rgb(39.99939%,39.99939%,39.99939%);fill-opacity:0.3;" d="M 96.605469 194.890625 L 95.101562 211.128906 L 88.003906 210.542969 L 88.398438 206.277344 L 85.125 206.007812 L 82.648438 232.707031 L 85.921875 232.976562 L 86.339844 228.476562 L 93.4375 229.0625 L 91.929688 245.304688 L 74.476562 243.363281 L 76.496094 221.933594 L 73.21875 221.664062 L 72.691406 227.347656 L 65.59375 226.761719 L 67.035156 211.230469 L 69.292969 208.996094 L 74.355469 209.414062 L 73.886719 214.476562 L 77.160156 214.746094 L 78.542969 199.863281 L 84.582031 193.894531 L 86.234375 194.03125 L 85.789062 198.824219 L 89.066406 199.09375 L 89.507812 194.332031 Z M 96.605469 194.890625 "/>
<path style=" stroke:none;fill-rule:nonzero;fill:rgb(39.99939%,39.99939%,39.99939%);fill-opacity:0.3;" d="M 90.085938 283.773438 L 103.332031 298.003906 L 90.761719 308.570312 L 77.386719 294.429688 Z M 90.085938 283.773438 "/>
<path style=" stroke:none;fill-rule:nonzero;fill:rgb(39.99939%,39.99939%,39.99939%);fill-opacity:0.3;" d="M 112.074219 265.097656 L 125.320312 279.328125 L 112.753906 289.894531 L 99.375 275.753906 Z M 112.074219 265.097656 "/>
<path style=" stroke:none;fill-rule:nonzero;fill:rgb(39.99939%,39.99939%,39.99939%);fill-opacity:0.3;" d="M 135.25 246.761719 L 148.496094 260.992188 L 135.929688 271.554688 L 122.546875 257.414062 Z M 135.25 246.761719 "/>
<path style="fill-rule:nonzero;fill:rgb(39.99939%,39.99939%,39.99939%);fill-opacity:1;stroke-width:0.03;stroke-linecap:square;stroke-linejoin:miter;stroke:rgb(39.99939%,39.99939%,39.99939%);stroke-opacity:1;stroke-miterlimit:3.239307;" d="M 229.4375 241.984375 L 242.390625 255.902344 L 229.613281 266.257812 L 216.738281 252.636719 Z M 229.4375 241.984375 " transform="matrix(1,0,0,1,-74,-13)"/>
<path style="fill-rule:nonzero;fill:rgb(39.99939%,39.99939%,39.99939%);fill-opacity:1;stroke-width:0.03;stroke-linecap:square;stroke-linejoin:miter;stroke:rgb(39.99939%,39.99939%,39.99939%);stroke-opacity:1;stroke-miterlimit:3.239307;" d="M 136.621094 297.34375 L 147.425781 308.710938 L 136.382812 318.710938 L 125.429688 307.183594 Z M 136.621094 297.34375 " transform="matrix(1,0,0,1,-74,-13)"/>
<path style="fill-rule:nonzero;fill:rgb(39.99939%,39.99939%,39.99939%);fill-opacity:1;stroke-width:0.03;stroke-linecap:square;stroke-linejoin:miter;stroke:rgb(39.99939%,39.99939%,39.99939%);stroke-opacity:1;stroke-miterlimit:3.239307;" d="M 164.527344 271.074219 L 176.144531 282.707031 L 165.097656 292.707031 L 153.414062 281.277344 Z M 164.527344 271.074219 " transform="matrix(1,0,0,1,-74,-13)"/>
<path style="fill-rule:nonzero;fill:rgb(39.99939%,39.99939%,39.99939%);fill-opacity:1;stroke-width:0.03;stroke-linecap:square;stroke-linejoin:miter;stroke:rgb(39.99939%,39.99939%,39.99939%);stroke-opacity:1;stroke-miterlimit:3.239307;" d="M 182.292969 255.183594 L 193.773438 266.746094 L 182.726562 276.742188 L 171.210938 265.253906 Z M 182.292969 255.183594 " transform="matrix(1,0,0,1,-74,-13)"/>
<path style="fill-rule:nonzero;fill:rgb(39.99939%,39.99939%,39.99939%);fill-opacity:1;stroke-width:0.03;stroke-linecap:square;stroke-linejoin:miter;stroke:rgb(39.99939%,39.99939%,39.99939%);stroke-opacity:1;stroke-miterlimit:3.239307;" d="M 200.386719 238.625 L 212.074219 250.179688 L 201.03125 260.171875 L 189.355469 248.871094 Z M 200.386719 238.625 " transform="matrix(1,0,0,1,-74,-13)"/>
<path style="fill-rule:nonzero;fill:rgb(39.99939%,39.99939%,39.99939%);fill-opacity:1;stroke-width:0.03;stroke-linecap:square;stroke-linejoin:miter;stroke:rgb(39.99939%,39.99939%,39.99939%);stroke-opacity:1;stroke-miterlimit:3.239307;" d="M 217.960938 222.730469 L 229.382812 234.398438 L 218.660156 244.214844 L 207.039062 232.765625 Z M 217.960938 222.730469 " transform="matrix(1,0,0,1,-74,-13)"/>
<path style="fill-rule:nonzero;fill:rgb(39.99939%,39.99939%,39.99939%);fill-opacity:1;stroke-width:0.03;stroke-linecap:square;stroke-linejoin:miter;stroke:rgb(39.99939%,39.99939%,39.99939%);stroke-opacity:1;stroke-miterlimit:3.239307;" d="M 279.480469 255.066406 L 272.375 254.574219 L 272.730469 249.804688 L 269.449219 249.589844 L 269.09375 254.386719 L 261.988281 253.921875 L 263.566406 232.59375 L 260.289062 232.378906 L 259.914062 237.445312 L 252.804688 236.980469 L 254.132812 219.027344 L 261.242188 219.492188 L 260.820312 225.183594 L 264.097656 225.398438 L 264.519531 219.707031 L 271.625 220.171875 L 269.984375 242.394531 L 273.261719 242.609375 L 273.578125 238.339844 L 280.683594 238.804688 Z M 279.480469 255.066406 " transform="matrix(1,0,0,1,-74,-13)"/>
<path style="fill-rule:nonzero;fill:rgb(39.99939%,39.99939%,39.99939%);fill-opacity:1;stroke-width:0.03;stroke-linecap:square;stroke-linejoin:miter;stroke:rgb(39.99939%,39.99939%,39.99939%);stroke-opacity:1;stroke-miterlimit:3.239307;" d="M 264.40625 264.945312 L 262.890625 281.1875 L 255.796875 280.601562 L 256.191406 276.335938 L 252.917969 276.0625 L 250.429688 302.765625 L 253.703125 303.035156 L 254.125 298.53125 L 261.21875 299.117188 L 259.703125 315.359375 L 252.609375 314.777344 L 253.136719 309.089844 L 249.867188 308.820312 L 249.335938 314.503906 L 242.238281 313.921875 L 244.285156 291.992188 L 241.011719 291.722656 L 240.480469 297.40625 L 233.382812 296.820312 L 235.054688 278.886719 L 242.152344 279.472656 L 241.679688 284.535156 L 244.953125 284.804688 L 246.9375 263.503906 L 254.035156 264.089844 L 253.589844 268.878906 L 256.863281 269.148438 L 257.304688 264.386719 Z M 264.40625 264.945312 " transform="matrix(1,0,0,1,-74,-13)"/>
<path style="fill-rule:nonzero;fill:rgb(39.99939%,39.99939%,39.99939%);fill-opacity:1;stroke-width:0.03;stroke-linecap:square;stroke-linejoin:miter;stroke:rgb(39.99939%,39.99939%,39.99939%);stroke-opacity:1;stroke-miterlimit:3.239307;" d="M 342.273438 90.117188 L 349.375 90.707031 L 348.90625 95.765625 L 352.179688 96.035156 L 354.152344 74.746094 L 361.25 75.335938 L 360.808594 80.121094 L 364.082031 80.390625 L 364.523438 75.632812 L 371.625 76.191406 L 370.121094 92.425781 L 363.019531 91.835938 L 363.417969 87.574219 L 360.140625 87.300781 L 358.085938 109.488281 L 350.988281 108.898438 L 351.511719 103.21875 L 348.238281 102.945312 L 346.050781 126.550781 L 338.953125 125.964844 L 339.421875 120.90625 L 336.148438 120.632812 L 335.679688 125.691406 L 328.578125 125.105469 L 330.242188 107.183594 L 337.339844 107.769531 L 336.8125 113.453125 L 340.085938 113.722656 Z M 342.273438 90.117188 " transform="matrix(1,0,0,1,-74,-13)"/>
<path style="fill-rule:nonzero;fill:rgb(39.99939%,39.99939%,39.99939%);fill-opacity:1;stroke-width:0.03;stroke-linecap:square;stroke-linejoin:miter;stroke:rgb(39.99939%,39.99939%,39.99939%);stroke-opacity:1;stroke-miterlimit:3.239307;" d="M 322.054688 115.378906 L 320.546875 131.613281 L 313.449219 131.023438 L 313.84375 126.761719 L 310.570312 126.492188 L 308.09375 153.179688 L 311.371094 153.449219 L 311.785156 148.949219 L 318.886719 149.535156 L 317.378906 165.769531 L 310.28125 165.183594 L 310.808594 159.5 L 307.535156 159.230469 L 307.007812 164.914062 L 299.90625 164.324219 L 301.941406 142.40625 L 298.667969 142.136719 L 298.140625 147.820312 L 291.042969 147.234375 L 292.703125 129.308594 L 299.800781 129.894531 L 299.332031 134.953125 L 302.609375 135.226562 L 304.582031 113.933594 L 311.679688 114.519531 L 311.234375 119.308594 L 314.511719 119.578125 L 314.953125 114.820312 Z M 322.054688 115.378906 " transform="matrix(1,0,0,1,-74,-13)"/>
<path style="fill-rule:nonzero;fill:rgb(39.99939%,39.99939%,39.99939%);fill-opacity:1;stroke-width:0.03;stroke-linecap:square;stroke-linejoin:miter;stroke:rgb(39.99939%,39.99939%,39.99939%);stroke-opacity:1;stroke-miterlimit:3.239307;" d="M 328.984375 65.875 L 327.480469 82.105469 L 320.382812 81.519531 L 320.777344 77.257812 L 317.5 76.984375 L 315.445312 99.171875 L 308.347656 98.582031 L 308.875 92.902344 L 305.601562 92.628906 L 305.074219 98.3125 L 297.972656 97.722656 L 299.632812 79.800781 L 306.734375 80.390625 L 306.265625 85.449219 L 309.539062 85.71875 L 311.511719 64.429688 L 318.609375 65.015625 L 318.167969 69.804688 L 321.441406 70.074219 L 321.882812 65.316406 Z M 328.984375 65.875 " transform="matrix(1,0,0,1,-74,-13)"/>
<path style="fill-rule:nonzero;fill:rgb(39.99939%,39.99939%,39.99939%);fill-opacity:1;stroke-width:0.03;stroke-linecap:square;stroke-linejoin:miter;stroke:rgb(39.99939%,39.99939%,39.99939%);stroke-opacity:1;stroke-miterlimit:3.239307;" d="M 286.445312 104.621094 L 284.941406 120.855469 L 277.839844 120.269531 L 278.234375 116.003906 L 274.960938 115.734375 L 272.90625 137.921875 L 265.808594 137.335938 L 266.332031 131.652344 L 263.058594 131.378906 L 262.53125 137.0625 L 255.433594 136.476562 L 257.09375 118.550781 L 264.195312 119.136719 L 263.726562 124.199219 L 267 124.46875 L 268.972656 103.175781 L 276.070312 103.761719 L 275.625 108.550781 L 278.902344 108.820312 L 279.34375 104.0625 Z M 286.445312 104.621094 " transform="matrix(1,0,0,1,-74,-13)"/>
<path style="fill-rule:nonzero;fill:rgb(39.99939%,39.99939%,39.99939%);fill-opacity:1;stroke-width:0.03;stroke-linecap:square;stroke-linejoin:miter;stroke:rgb(39.99939%,39.99939%,39.99939%);stroke-opacity:1;stroke-miterlimit:3.239307;" d="M 221.746094 149.167969 L 228.84375 149.753906 L 228.375 154.816406 L 231.652344 155.085938 L 233.625 133.789062 L 240.722656 134.378906 L 240.277344 139.167969 L 243.554688 139.4375 L 243.996094 134.675781 L 251.097656 135.234375 L 249.589844 151.472656 L 242.492188 150.882812 L 242.886719 146.621094 L 239.613281 146.347656 L 237.558594 168.539062 L 230.457031 167.953125 L 230.984375 162.269531 L 227.710938 162 L 225.125 189.875 L 228.402344 190.144531 L 228.796875 185.882812 L 235.894531 186.46875 L 234.386719 202.707031 L 227.292969 202.09375 L 227.734375 197.328125 L 224.460938 197.058594 L 224.015625 201.847656 L 216.917969 201.261719 L 218.894531 179.964844 L 215.617188 179.691406 L 215.148438 184.753906 L 208.050781 184.167969 L 209.710938 166.238281 L 216.8125 166.824219 L 216.285156 172.507812 L 219.558594 172.78125 Z M 221.746094 149.167969 " transform="matrix(1,0,0,1,-74,-13)"/>
<path style="fill-rule:nonzero;fill:rgb(39.99939%,39.99939%,39.99939%);fill-opacity:1;stroke-width:0.03;stroke-linecap:square;stroke-linejoin:miter;stroke:rgb(39.99939%,39.99939%,39.99939%);stroke-opacity:1;stroke-miterlimit:3.239307;" d="M 205.867188 210.632812 L 204.359375 226.871094 L 197.261719 226.285156 L 197.65625 222.019531 L 194.382812 221.75 L 192.320312 243.945312 L 185.222656 243.359375 L 185.75 237.671875 L 182.476562 237.402344 L 181.949219 243.089844 L 174.851562 242.5 L 176.515625 224.570312 L 183.613281 225.15625 L 183.144531 230.21875 L 186.417969 230.488281 L 188.394531 209.1875 L 195.492188 209.773438 L 195.050781 214.5625 L 198.324219 214.835938 L 198.765625 210.070312 Z M 205.867188 210.632812 " transform="matrix(1,0,0,1,-74,-13)"/>
<path style="fill-rule:nonzero;fill:rgb(39.99939%,39.99939%,39.99939%);fill-opacity:1;stroke-width:0.03;stroke-linecap:square;stroke-linejoin:miter;stroke:rgb(39.99939%,39.99939%,39.99939%);stroke-opacity:1;stroke-miterlimit:3.239307;" d="M 170.605469 207.890625 L 169.101562 224.128906 L 162.003906 223.542969 L 162.398438 219.277344 L 159.125 219.007812 L 156.648438 245.707031 L 159.921875 245.976562 L 160.339844 241.476562 L 167.4375 242.0625 L 165.929688 258.304688 L 148.476562 256.363281 L 150.496094 234.933594 L 147.21875 234.664062 L 146.691406 240.347656 L 139.59375 239.761719 L 141.035156 224.230469 L 143.292969 221.996094 L 148.355469 222.414062 L 147.886719 227.476562 L 151.160156 227.746094 L 152.542969 212.863281 L 158.582031 206.894531 L 160.234375 207.03125 L 159.789062 211.824219 L 163.066406 212.09375 L 163.507812 207.332031 Z M 170.605469 207.890625 " transform="matrix(1,0,0,1,-74,-13)"/>
<path style="fill-rule:nonzero;fill:rgb(39.99939%,39.99939%,39.99939%);fill-opacity:1;stroke-width:0.03;stroke-linecap:square;stroke-linejoin:miter;stroke:rgb(39.99939%,39.99939%,39.99939%);stroke-opacity:1;stroke-miterlimit:3.239307;" d="M 164.085938 296.773438 L 177.332031 311.003906 L 164.761719 321.570312 L 151.386719 307.429688 Z M 164.085938 296.773438 " transform="matrix(1,0,0,1,-74,-13)"/>
<path style="fill-rule:nonzero;fill:rgb(39.99939%,39.99939%,39.99939%);fill-opacity:1;stroke-width:0.03;stroke-linecap:square;stroke-linejoin:miter;stroke:rgb(39.99939%,39.99939%,39.99939%);stroke-opacity:1;stroke-miterlimit:3.239307;" d="M 186.074219 278.097656 L 199.320312 292.328125 L 186.753906 302.894531 L 173.375 288.753906 Z M 186.074219 278.097656 " transform="matrix(1,0,0,1,-74,-13)"/>
<path style="fill-rule:nonzero;fill:rgb(39.99939%,39.99939%,39.99939%);fill-opacity:1;stroke-width:0.03;stroke-linecap:square;stroke-linejoin:miter;stroke:rgb(39.99939%,39.99939%,39.99939%);stroke-opacity:1;stroke-miterlimit:3.239307;" d="M 209.25 259.761719 L 222.496094 273.992188 L 209.929688 284.554688 L 196.546875 270.414062 Z M 209.25 259.761719 " transform="matrix(1,0,0,1,-74,-13)"/>
<g clip-path="url(#clip9)" clip-rule="nonzero">
<path style=" stroke:none;fill-rule:evenodd;fill:rgb(85.096741%,85.096741%,81.959534%);fill-opacity:0.7;" d="M 360.632812 340 C 360.632812 329.753906 356.5625 319.929688 349.316406 312.683594 C 342.070312 305.4375 332.246094 301.367188 322 301.367188 C 311.753906 301.367188 301.929688 305.4375 294.683594 312.683594 C 287.4375 319.929688 283.367188 329.753906 283.367188 340 C 283.367188 350.246094 287.4375 360.070312 294.683594 367.316406 C 301.929688 374.5625 311.753906 378.632812 322 378.632812 C 332.246094 378.632812 342.070312 374.5625 349.316406 367.316406 C 356.5625 360.070312 360.632812 350.246094 360.632812 340 Z M 360.632812 340 "/>
</g>
<path style=" stroke:none;fill-rule:evenodd;fill:rgb(85.096741%,85.096741%,81.959534%);fill-opacity:0.7;" d="M 152.632812 269 C 152.632812 258.753906 148.5625 248.929688 141.316406 241.683594 C 134.070312 234.4375 124.246094 230.367188 114 230.367188 C 103.753906 230.367188 93.929688 234.4375 86.683594 241.683594 C 79.4375 248.929688 75.367188 258.753906 75.367188 269 C 75.367188 279.246094 79.4375 289.070312 86.683594 296.316406 C 93.929688 303.5625 103.753906 307.632812 114 307.632812 C 124.246094 307.632812 134.070312 303.5625 141.316406 296.316406 C 148.5625 289.070312 152.632812 279.246094 152.632812 269 Z M 152.632812 269 "/>
<g clip-path="url(#clip10)" clip-rule="nonzero">
<path style=" stroke:none;fill-rule:evenodd;fill:rgb(85.096741%,85.096741%,81.959534%);fill-opacity:0.7;" d="M 381.632812 253 C 381.632812 242.753906 377.5625 232.929688 370.316406 225.683594 C 363.070312 218.4375 353.246094 214.367188 343 214.367188 C 332.753906 214.367188 322.929688 218.4375 315.683594 225.683594 C 308.4375 232.929688 304.367188 242.753906 304.367188 253 C 304.367188 263.246094 308.4375 273.070312 315.683594 280.316406 C 322.929688 287.5625 332.753906 291.632812 343 291.632812 C 353.246094 291.632812 363.070312 287.5625 370.316406 280.316406 C 377.5625 273.070312 381.632812 263.246094 381.632812 253 Z M 381.632812 253 "/>
</g>
</g>
</svg>
