<svg xmlns="http://www.w3.org/2000/svg" viewBox="0 0 375.96 246.82"><defs><style>.cls-1{fill:#f4f4f4;}.cls-2{fill:#efefef;}.cls-3{fill:#eee;}.cls-4{fill:#6d0e29;}.cls-5{fill:#da1549;}.cls-6{fill:#a21239;}.cls-7,.cls-8{fill:none;stroke:#6d0e29;stroke-miterlimit:10;}.cls-8{stroke-width:0.5px;}.cls-9{font-size:16px;fill:#fff;font-family:Lato-Bold, Lato;}.cls-10{font-weight:700;}.cls-11{font-size:14px;fill:#f1f1f1;font-family:Lato-Regular, Lato;}</style></defs><title>balsas18.bj</title><g id="Capa_2" data-name="Capa 2"><g id="edificios"><g id="balsas_18_benito_ju치rez" data-name="balsas 18, benito ju치rez"><polygon class="cls-1" points="131.99 199.73 13.3 140.53 10.87 119.36 130.74 172.9 131.99 199.73"/><polygon class="cls-2" points="260.4 146.45 131.99 199.73 130.74 172.9 261.08 124.7 260.68 137.42 260.4 146.45"/><polygon class="cls-1" points="269.75 140.13 260.68 137.42 261.08 124.7 261.33 116.56 270.52 119 269.75 140.13"/><polygon class="cls-3" points="367.35 99.17 269.75 140.13 270.52 119 368.91 82.2 367.35 99.17"/><polygon class="cls-4" points="144.79 12.51 251.66 0.5 375.46 10.85 273.8 28.93 255.5 26.65 261.19 25.71 234.9 21.48 222.77 22.57 216.06 21.23 218.09 20.95 219.72 20.71 233.6 18.73 219.75 17.12 218.11 17.34 209.11 16.29 202.33 16.09 199.13 16.5 200.11 17.21 191.6 18.32 178.92 16.75 185.53 15.92 159.08 13.07 158.31 13.15 157.14 13.01 151.63 13.64 144.79 12.51"/><polygon class="cls-5" points="273.8 28.93 375.46 10.85 373.77 29.23 272.95 52.33 273.8 28.93"/><polygon class="cls-6" points="255.5 26.65 273.8 28.93 272.95 52.33 263.37 50.78 263.96 31.77 255.4 30.65 255.5 26.65"/><polygon class="cls-6" points="261.19 25.71 255.5 26.65 255.4 30.65 249.77 29.91 246.72 30.43 244.24 30.1 240.74 30.7 234.78 29.8 234.9 21.48 261.19 25.71"/><polygon class="cls-5" points="222.77 22.57 234.9 21.48 234.78 29.8 222.73 27.98 222.77 22.57"/><polygon class="cls-5" points="216.06 21.23 222.77 22.57 222.73 27.98 216.8 27.09 216.8 25.88 216.04 25.77 216.06 21.23"/><polygon class="cls-6" points="219.75 17.12 233.6 18.73 219.72 20.71 219.75 17.12"/><polygon class="cls-5" points="218.11 17.34 219.75 17.12 219.72 20.71 218.09 20.95 218.11 17.34"/><polygon class="cls-6" points="209.11 16.29 218.11 17.34 218.09 20.95 216.06 21.23 216.04 25.77 209.1 24.86 209.11 16.29"/><polygon class="cls-6" points="202.33 16.09 209.11 16.29 209.1 24.86 208.25 24.75 206.18 25.05 202.36 24.55 202.33 16.09"/><polygon class="cls-5" points="199.13 16.5 202.33 16.09 202.36 24.55 200.68 24.32 200.14 24.4 200.11 17.21 199.13 16.5"/><polygon class="cls-5" points="191.6 18.32 200.11 17.21 200.14 24.4 191.66 25.63 191.6 18.32"/><polygon class="cls-6" points="178.92 16.75 191.6 18.32 191.66 25.63 184.5 26.66 179.06 25.89 178.92 16.75"/><polygon class="cls-6" points="185.53 15.92 178.92 16.75 179.06 25.89 178.43 25.8 178.35 21.36 163.29 19.36 161.02 19.65 159.25 19.41 159.08 13.07 185.53 15.92"/><polygon class="cls-5" points="158.31 13.15 159.08 13.07 159.25 19.41 158.83 19.36 158.49 19.4 158.31 13.15"/><polygon class="cls-6" points="157.14 13.01 158.31 13.15 158.49 19.4 158.05 19.46 157.31 19.36 157.14 13.01"/><polygon class="cls-5" points="151.63 13.64 157.14 13.01 157.31 19.36 151.79 18.62 151.63 13.64"/><polygon class="cls-6" points="144.79 12.51 151.63 13.64 151.79 18.62 144.97 17.7 144.79 12.51"/><polygon class="cls-4" points="131.32 14.57 141.21 15.95 136.18 16.52 141.25 17.2 144.97 17.7 151.79 18.62 157.31 19.36 158.05 19.46 158.49 19.4 158.83 19.36 159.25 19.41 161.02 19.65 163.29 19.36 178.35 21.36 162.17 23.52 178.43 25.8 179.06 25.89 184.5 26.66 191.66 25.63 200.14 24.4 200.68 24.32 202.36 24.55 206.18 25.05 208.25 24.75 209.1 24.86 216.04 25.77 216.8 25.88 212.8 26.48 216.8 27.09 222.73 27.98 234.78 29.8 240.74 30.7 244.24 30.1 246.72 30.43 249.77 29.91 255.4 30.65 263.96 31.77 125.31 56.18 0.5 29.12 131.32 14.57"/><polygon class="cls-5" points="136.18 16.52 141.21 15.95 141.25 17.2 136.18 16.52"/><polygon class="cls-5" points="162.17 23.52 178.35 21.36 178.43 25.8 162.17 23.52"/><polygon class="cls-5" points="212.8 26.48 216.8 25.88 216.8 27.09 212.8 26.48"/><polygon class="cls-5" points="125.31 56.18 263.96 31.77 263.37 50.78 263.21 55.94 126.74 86.87 125.31 56.18"/><polygon class="cls-6" points="0.5 29.12 125.31 56.18 126.74 86.87 3.19 52.56 0.5 29.12"/><polygon class="cls-2" points="261.08 124.7 130.74 172.9 129.45 145.18 261.77 102.38 261.33 116.56 261.08 124.7"/><polygon class="cls-1" points="129.45 145.18 130.74 172.9 10.87 119.36 8.38 97.66 129.45 145.18"/><polygon class="cls-2" points="126.74 86.87 263.21 55.94 262.68 73.26 262.48 79.46 128.12 116.52 126.74 86.87"/><polygon class="cls-1" points="126.74 86.87 128.12 116.52 5.82 75.39 3.19 52.56 126.74 86.87"/><polygon class="cls-2" points="128.12 116.52 262.48 79.46 262 95.18 261.77 102.38 129.45 145.18 128.12 116.52"/><polygon class="cls-1" points="128.12 116.52 129.45 145.18 8.38 97.66 5.82 75.39 128.12 116.52"/><polygon class="cls-3" points="272.95 52.33 373.77 29.23 372.12 47.23 272.12 75.12 272.95 52.33"/><polygon class="cls-3" points="372.12 47.23 370.5 64.89 271.31 97.34 272.12 75.12 372.12 47.23"/><polygon class="cls-1" points="272.12 75.12 271.31 97.34 262 95.18 262.48 79.46 262.68 73.26 272.12 75.12"/><polygon class="cls-3" points="271.31 97.34 370.5 64.89 368.91 82.2 270.52 119 271.31 97.34"/><polygon class="cls-1" points="272.95 52.33 272.12 75.12 262.68 73.26 263.21 55.94 263.37 50.78 272.95 52.33"/><polygon class="cls-1" points="271.31 97.34 270.52 119 261.33 116.56 261.77 102.38 262 95.18 271.31 97.34"/><line class="cls-7" x1="13.3" y1="140.53" x2="131.99" y2="199.73"/><line class="cls-7" x1="131.99" y1="199.73" x2="260.4" y2="146.45"/><line class="cls-7" x1="260.68" y1="137.42" x2="269.75" y2="140.13"/><line class="cls-7" x1="269.75" y1="140.13" x2="367.35" y2="99.17"/><line class="cls-7" x1="251.66" y1="0.5" x2="144.79" y2="12.51"/><line class="cls-7" x1="375.46" y1="10.85" x2="251.66" y2="0.5"/><line class="cls-8" x1="273.8" y1="28.93" x2="375.46" y2="10.85"/><line class="cls-8" x1="255.5" y1="26.65" x2="273.8" y2="28.93"/><line class="cls-7" x1="261.19" y1="25.71" x2="255.5" y2="26.65"/><line class="cls-8" x1="234.9" y1="21.47" x2="261.19" y2="25.71"/><line class="cls-8" x1="222.77" y1="22.57" x2="234.9" y2="21.47"/><line class="cls-8" x1="222.77" y1="22.57" x2="216.06" y2="21.24"/><line class="cls-8" x1="219.74" y1="17.12" x2="233.6" y2="18.73"/><line class="cls-8" x1="218.11" y1="17.34" x2="219.74" y2="17.12"/><line class="cls-8" x1="209.11" y1="16.29" x2="218.11" y2="17.34"/><line class="cls-8" x1="202.33" y1="16.09" x2="209.11" y2="16.29"/><line class="cls-8" x1="199.13" y1="16.5" x2="202.33" y2="16.09"/><line class="cls-8" x1="191.6" y1="18.32" x2="200.11" y2="17.21"/><line class="cls-8" x1="178.92" y1="16.75" x2="191.6" y2="18.32"/><line class="cls-7" x1="185.53" y1="15.92" x2="178.92" y2="16.75"/><line class="cls-8" x1="159.08" y1="13.07" x2="185.53" y2="15.92"/><line class="cls-8" x1="158.31" y1="13.15" x2="159.08" y2="13.07"/><line class="cls-8" x1="157.14" y1="13.01" x2="158.31" y2="13.15"/><line class="cls-8" x1="151.64" y1="13.64" x2="157.14" y2="13.01"/><line class="cls-8" x1="144.79" y1="12.51" x2="151.64" y2="13.64"/><line class="cls-7" x1="367.35" y1="99.17" x2="368.91" y2="82.2"/><line class="cls-8" x1="269.75" y1="140.13" x2="270.52" y2="119"/><line class="cls-7" x1="141.21" y1="15.94" x2="131.32" y2="14.57"/><line class="cls-8" x1="136.18" y1="16.53" x2="141.21" y2="15.94"/><line class="cls-7" x1="163.29" y1="19.36" x2="161.02" y2="19.65"/><line class="cls-7" x1="178.36" y1="21.36" x2="163.29" y2="19.36"/><line class="cls-8" x1="162.17" y1="23.52" x2="178.36" y2="21.36"/><line class="cls-7" x1="208.25" y1="24.75" x2="206.18" y2="25.05"/><line class="cls-8" x1="212.8" y1="26.48" x2="216.8" y2="25.88"/><line class="cls-7" x1="244.24" y1="30.1" x2="240.73" y2="30.7"/><line class="cls-7" x1="246.72" y1="30.43" x2="244.24" y2="30.1"/><line class="cls-7" x1="249.77" y1="29.91" x2="246.72" y2="30.43"/><line class="cls-8" x1="125.31" y1="56.18" x2="263.96" y2="31.77"/><line class="cls-8" x1="0.5" y1="29.12" x2="125.31" y2="56.18"/><line class="cls-7" x1="131.32" y1="14.57" x2="0.5" y2="29.12"/><line class="cls-8" x1="131.99" y1="199.73" x2="130.74" y2="172.9"/><line class="cls-7" x1="13.3" y1="140.53" x2="10.87" y2="119.36"/><line class="cls-8" x1="130.74" y1="172.9" x2="129.45" y2="145.18"/><line class="cls-8" x1="130.74" y1="172.9" x2="261.08" y2="124.7"/><line class="cls-8" x1="128.12" y1="116.52" x2="126.74" y2="86.87"/><line class="cls-8" x1="128.12" y1="116.52" x2="262.48" y2="79.46"/><line class="cls-8" x1="126.74" y1="86.87" x2="125.31" y2="56.18"/><line class="cls-8" x1="126.74" y1="86.87" x2="263.21" y2="55.94"/><line class="cls-8" x1="129.45" y1="145.18" x2="128.12" y2="116.52"/><line class="cls-8" x1="129.45" y1="145.18" x2="261.77" y2="102.38"/><line class="cls-7" x1="10.87" y1="119.36" x2="8.37" y2="97.66"/><line class="cls-8" x1="130.74" y1="172.9" x2="10.87" y2="119.36"/><line class="cls-7" x1="5.82" y1="75.4" x2="3.19" y2="52.56"/><line class="cls-8" x1="128.12" y1="116.52" x2="5.82" y2="75.4"/><line class="cls-7" x1="3.19" y1="52.56" x2="0.5" y2="29.12"/><line class="cls-8" x1="126.74" y1="86.87" x2="3.19" y2="52.56"/><line class="cls-7" x1="8.37" y1="97.66" x2="5.82" y2="75.4"/><line class="cls-8" x1="129.45" y1="145.18" x2="8.37" y2="97.66"/><line class="cls-7" x1="141.25" y1="17.21" x2="141.21" y2="15.94"/><line class="cls-7" x1="178.43" y1="25.8" x2="178.36" y2="21.36"/><line class="cls-7" x1="216.8" y1="27.09" x2="216.8" y2="25.88"/><line class="cls-8" x1="272.95" y1="52.33" x2="273.8" y2="28.93"/><line class="cls-7" x1="373.77" y1="29.23" x2="375.46" y2="10.85"/><line class="cls-8" x1="272.95" y1="52.33" x2="373.77" y2="29.23"/><line class="cls-8" x1="271.31" y1="97.34" x2="272.12" y2="75.12"/><line class="cls-7" x1="370.5" y1="64.89" x2="372.12" y2="47.23"/><line class="cls-8" x1="271.31" y1="97.34" x2="370.5" y2="64.89"/><line class="cls-8" x1="272.12" y1="75.12" x2="272.95" y2="52.33"/><line class="cls-7" x1="372.12" y1="47.23" x2="373.77" y2="29.23"/><line class="cls-8" x1="272.12" y1="75.12" x2="372.12" y2="47.23"/><line class="cls-8" x1="270.52" y1="119" x2="271.31" y2="97.34"/><line class="cls-7" x1="368.91" y1="82.2" x2="370.5" y2="64.89"/><line class="cls-8" x1="270.52" y1="119" x2="368.91" y2="82.2"/><line class="cls-7" x1="144.97" y1="17.7" x2="144.79" y2="12.51"/><line class="cls-8" x1="151.79" y1="18.62" x2="151.64" y2="13.64"/><line class="cls-8" x1="157.31" y1="19.36" x2="157.14" y2="13.01"/><line class="cls-8" x1="158.49" y1="19.4" x2="158.31" y2="13.15"/><line class="cls-8" x1="159.25" y1="19.42" x2="159.08" y2="13.07"/><line class="cls-7" x1="179.06" y1="25.89" x2="178.92" y2="16.75"/><line class="cls-8" x1="191.66" y1="25.63" x2="191.6" y2="18.32"/><line class="cls-7" x1="200.14" y1="24.4" x2="200.11" y2="17.21"/><line class="cls-8" x1="202.36" y1="24.55" x2="202.33" y2="16.09"/><line class="cls-8" x1="209.1" y1="24.86" x2="209.11" y2="16.29"/><line class="cls-8" x1="218.09" y1="20.94" x2="218.11" y2="17.34"/><line class="cls-8" x1="219.72" y1="20.71" x2="219.74" y2="17.12"/><line class="cls-7" x1="216.04" y1="25.77" x2="216.06" y2="21.24"/><line class="cls-8" x1="222.73" y1="27.98" x2="222.77" y2="22.57"/><line class="cls-8" x1="234.78" y1="29.8" x2="234.9" y2="21.47"/><line class="cls-7" x1="255.4" y1="30.65" x2="255.5" y2="26.65"/><line class="cls-8" x1="272.95" y1="52.33" x2="263.37" y2="50.78"/><line class="cls-8" x1="272.12" y1="75.12" x2="262.68" y2="73.26"/><line class="cls-8" x1="271.31" y1="97.34" x2="262" y2="95.18"/><line class="cls-8" x1="270.52" y1="119" x2="261.33" y2="116.56"/><line class="cls-7" x1="218.09" y1="20.94" x2="216.06" y2="21.24"/><line class="cls-7" x1="141.25" y1="17.21" x2="136.18" y2="16.53"/><line class="cls-7" x1="158.83" y1="19.36" x2="158.49" y2="19.4"/><line class="cls-7" x1="158.49" y1="19.4" x2="158.05" y2="19.46"/><line class="cls-7" x1="161.02" y1="19.65" x2="159.25" y2="19.42"/><line class="cls-7" x1="159.25" y1="19.42" x2="158.83" y2="19.36"/><line class="cls-7" x1="178.43" y1="25.8" x2="162.17" y2="23.52"/><line class="cls-7" x1="191.66" y1="25.63" x2="184.5" y2="26.66"/><line class="cls-7" x1="206.18" y1="25.05" x2="202.36" y2="24.55"/><line class="cls-7" x1="202.36" y1="24.55" x2="200.68" y2="24.32"/><line class="cls-7" x1="216.8" y1="25.88" x2="216.04" y2="25.77"/><line class="cls-7" x1="216.8" y1="27.09" x2="212.8" y2="26.48"/><line class="cls-7" x1="263.96" y1="31.77" x2="255.4" y2="30.65"/><line class="cls-7" x1="255.4" y1="30.65" x2="249.77" y2="29.91"/><line class="cls-7" x1="260.4" y1="146.45" x2="260.68" y2="137.42"/><line class="cls-7" x1="260.68" y1="137.42" x2="261.08" y2="124.7"/><line class="cls-7" x1="261.08" y1="124.7" x2="261.33" y2="116.56"/><line class="cls-7" x1="261.33" y1="116.56" x2="261.77" y2="102.38"/><line class="cls-7" x1="262.48" y1="79.46" x2="262.68" y2="73.26"/><line class="cls-7" x1="262.68" y1="73.26" x2="263.21" y2="55.94"/><line class="cls-7" x1="263.21" y1="55.94" x2="263.37" y2="50.78"/><line class="cls-7" x1="263.37" y1="50.78" x2="263.96" y2="31.77"/><line class="cls-7" x1="261.77" y1="102.38" x2="262" y2="95.18"/><line class="cls-7" x1="262" y1="95.18" x2="262.48" y2="79.46"/><line class="cls-7" x1="233.6" y1="18.73" x2="219.72" y2="20.71"/><line class="cls-7" x1="219.72" y1="20.71" x2="218.09" y2="20.94"/><line class="cls-7" x1="184.5" y1="26.66" x2="179.06" y2="25.89"/><line class="cls-7" x1="179.06" y1="25.89" x2="178.43" y2="25.8"/><line class="cls-7" x1="200.68" y1="24.32" x2="200.14" y2="24.4"/><line class="cls-7" x1="200.14" y1="24.4" x2="191.66" y2="25.63"/><line class="cls-7" x1="216.04" y1="25.77" x2="209.1" y2="24.86"/><line class="cls-7" x1="209.1" y1="24.86" x2="208.25" y2="24.75"/><line class="cls-7" x1="222.73" y1="27.98" x2="216.8" y2="27.09"/><line class="cls-7" x1="158.05" y1="19.46" x2="157.31" y2="19.36"/><line class="cls-7" x1="157.31" y1="19.36" x2="151.79" y2="18.62"/><line class="cls-7" x1="151.79" y1="18.62" x2="144.97" y2="17.7"/><line class="cls-7" x1="144.97" y1="17.7" x2="141.25" y2="17.21"/><line class="cls-7" x1="240.73" y1="30.7" x2="234.78" y2="29.8"/><line class="cls-7" x1="234.78" y1="29.8" x2="222.73" y2="27.98"/><line class="cls-7" x1="199.13" y1="16.5" x2="200.11" y2="17.21"/></g><text class="cls-9" transform="translate(107.46 227.46)"><tspan class="cls-10">Balsas No. 18</tspan><tspan class="cls-11"><tspan x="0" y="16.8" xml:space="preserve">Delegaci칩n  Benito Ju치rez</tspan></tspan></text></g></g></svg>