<svg xmlns="http://www.w3.org/2000/svg" viewBox="0 0 193.31 128.67"><defs><style>.cls-1{font-size:16px;fill:#fff;font-family:Lato-Bold, Lato;}.cls-2{font-weight:700;}.cls-3{font-size:14px;fill:#f1f1f1;font-family:Lato-Regular, Lato;}.cls-4{fill:#efefef;}.cls-5{fill:#d4d4d4;}.cls-6{fill:silver;}.cls-7{fill:#eee;}.cls-8{fill:#d1d1d1;}.cls-10,.cls-9{fill:none;stroke:#6d0e29;stroke-miterlimit:10;}.cls-10{stroke-width:0.5px;}</style></defs><title>magnolia76.cu</title><g id="Capa_2" data-name="Capa 2"><g id="edificios"><text class="cls-1" transform="translate(24.15 109.31)"><tspan class="cls-2">Magnolia No. 76</tspan><tspan class="cls-3"><tspan x="0" y="16.8" xml:space="preserve">Delegación  Cuauhtémoc</tspan></tspan></text><g id="magnolia_76_cuauhtémoc" data-name="magnolia 76, cuauhtémoc"><polygon class="cls-4" points="191.28 48.33 56.5 78.42 55.8 55.31 192.04 30.32 191.28 48.33"/><polygon class="cls-5" points="56.5 78.42 2.69 51.12 1.61 32.63 55.8 55.31 56.5 78.42"/><path class="cls-6" d="M118.46,5.49,72.13,10.83l14.14,3.45L84,14.56l2.24.55,9.45,2.34,3.77.93,12-1.63L95.7,13.1l22.75-2.84,5.22-.65L140,12.87l10.17-1.38ZM.5,13.77,125,.5,192.81,12,55.08,31.61Z"/><polygon class="cls-5" points="0.5 13.77 55.08 31.61 55.8 55.31 1.61 32.63 0.5 13.77"/><polygon class="cls-4" points="55.08 31.61 192.81 11.96 192.04 30.32 55.8 55.31 55.08 31.61"/><polygon class="cls-7" points="72.13 10.83 118.46 5.49 118.45 10.26 95.7 13.11 95.73 17.45 86.28 15.11 86.27 14.28 72.13 10.83"/><polygon class="cls-7" points="84.04 14.56 86.27 14.28 86.28 15.11 84.04 14.56"/><polygon class="cls-8" points="111.45 16.75 99.5 18.38 95.73 17.45 95.7 13.11 111.45 16.75"/><polygon class="cls-8" points="140.01 12.87 123.67 9.61 118.45 10.26 118.46 5.49 150.18 11.49 140.01 12.87"/><line class="cls-9" x1="191.27" y1="48.32" x2="56.5" y2="78.42"/><line class="cls-9" x1="56.5" y1="78.42" x2="2.69" y2="51.12"/><line class="cls-10" x1="55.08" y1="31.61" x2="0.5" y2="13.77"/><line class="cls-9" x1="0.5" y1="13.77" x2="125" y2="0.5"/><line class="cls-9" x1="125" y1="0.5" x2="192.81" y2="11.96"/><line class="cls-10" x1="192.81" y1="11.96" x2="55.08" y2="31.61"/><line class="cls-10" x1="118.46" y1="5.49" x2="72.13" y2="10.83"/><line class="cls-9" x1="72.13" y1="10.83" x2="86.27" y2="14.28"/><line class="cls-10" x1="86.27" y1="14.28" x2="84.04" y2="14.56"/><line class="cls-9" x1="99.5" y1="18.38" x2="111.45" y2="16.76"/><line class="cls-10" x1="111.45" y1="16.76" x2="95.7" y2="13.1"/><line class="cls-9" x1="123.67" y1="9.61" x2="140.01" y2="12.87"/><line class="cls-9" x1="140.01" y1="12.87" x2="150.18" y2="11.49"/><line class="cls-10" x1="150.18" y1="11.49" x2="118.46" y2="5.49"/><line class="cls-9" x1="2.69" y1="51.12" x2="1.61" y2="32.63"/><line class="cls-10" x1="56.5" y1="78.42" x2="55.8" y2="55.31"/><line class="cls-9" x1="191.27" y1="48.32" x2="192.04" y2="30.32"/><line class="cls-9" x1="1.61" y1="32.63" x2="0.5" y2="13.77"/><line class="cls-10" x1="55.8" y1="55.31" x2="55.08" y2="31.61"/><line class="cls-10" x1="1.61" y1="32.63" x2="55.8" y2="55.31"/><line class="cls-9" x1="192.04" y1="30.32" x2="192.81" y2="11.96"/><line class="cls-10" x1="192.04" y1="30.32" x2="55.8" y2="55.31"/><line class="cls-9" x1="95.74" y1="17.45" x2="95.7" y2="13.1"/><line class="cls-10" x1="118.45" y1="10.26" x2="118.46" y2="5.49"/><line class="cls-9" x1="86.28" y1="15.11" x2="86.27" y2="14.28"/><line class="cls-9" x1="95.74" y1="17.45" x2="99.5" y2="18.38"/><line class="cls-9" x1="95.7" y1="13.1" x2="118.45" y2="10.26"/><line class="cls-9" x1="118.45" y1="10.26" x2="123.67" y2="9.61"/><line class="cls-9" x1="84.04" y1="14.56" x2="86.28" y2="15.11"/><line class="cls-9" x1="86.28" y1="15.11" x2="95.74" y2="17.45"/></g></g></g></svg>