<svg xmlns="http://www.w3.org/2000/svg" viewBox="0 0 207.81 144.74"><defs><style>.cls-1{fill:#fbfbfb;}.cls-2{fill:#e9e9e9;}.cls-3{fill:silver;}.cls-4{fill:#e7e7e7;}.cls-5,.cls-6{fill:none;stroke:#6d0e29;stroke-miterlimit:10;}.cls-6{stroke-width:0.5px;}.cls-7{font-size:16px;fill:#fff;font-family:Lato-Bold, Lato;}.cls-8{font-weight:700;}.cls-9{font-size:14px;fill:#f1f1f1;font-family:Lato-Regular, Lato;}</style></defs><title>mina16.cu</title><g id="Capa_2" data-name="Capa 2"><g id="edificios"><g id="mina_16_cuauhtémoc" data-name="mina 16, cuauhtémoc"><polygon class="cls-1" points="205.84 62.88 90.36 95.49 89.93 73.63 206.57 43.95 205.84 62.88"/><polygon class="cls-2" points="90.36 95.49 2.83 56.91 1.68 38.54 89.93 73.63 90.36 95.49"/><path class="cls-3" d="M139.37,19.78l-8-2.17L141,15.76l7-1.35L141,12.63,69,25.38l15,4.86,47.33-8.95ZM110.21.49l97.1,24.18L89.49,51.28.5,19.82Z"/><polygon class="cls-1" points="89.49 51.28 207.31 24.67 206.57 43.95 89.93 73.63 89.49 51.28"/><polygon class="cls-2" points="0.5 19.82 89.49 51.28 89.93 73.63 1.68 38.54 0.5 19.82"/><polygon class="cls-4" points="131.37 17.61 139.37 19.78 131.37 21.29 131.37 17.61"/><polygon class="cls-4" points="140.97 12.63 147.91 14.41 140.95 15.76 140.97 12.63"/><polygon class="cls-2" points="69.05 25.38 140.97 12.63 140.95 15.76 131.37 17.61 131.37 21.29 84.04 30.24 69.05 25.38"/><line class="cls-5" x1="205.84" y1="62.88" x2="90.36" y2="95.49"/><line class="cls-5" x1="90.36" y1="95.49" x2="2.83" y2="56.91"/><line class="cls-5" x1="110.21" y1="0.49" x2="207.31" y2="24.67"/><line class="cls-6" x1="207.31" y1="24.67" x2="89.49" y2="51.28"/><line class="cls-6" x1="89.49" y1="51.28" x2="0.5" y2="19.82"/><line class="cls-5" x1="0.5" y1="19.82" x2="110.21" y2="0.49"/><line class="cls-6" x1="131.37" y1="17.61" x2="139.37" y2="19.78"/><line class="cls-6" x1="140.97" y1="12.63" x2="147.91" y2="14.41"/><line class="cls-6" x1="69.05" y1="25.38" x2="140.97" y2="12.63"/><line class="cls-5" x1="84.04" y1="30.24" x2="69.05" y2="25.38"/><line class="cls-5" x1="205.84" y1="62.88" x2="206.57" y2="43.95"/><line class="cls-6" x1="90.36" y1="95.49" x2="89.93" y2="73.63"/><line class="cls-5" x1="2.83" y1="56.91" x2="1.68" y2="38.54"/><line class="cls-6" x1="89.93" y1="73.63" x2="89.49" y2="51.28"/><line class="cls-5" x1="206.57" y1="43.95" x2="207.31" y2="24.67"/><line class="cls-6" x1="89.93" y1="73.63" x2="206.57" y2="43.95"/><line class="cls-5" x1="1.68" y1="38.54" x2="0.5" y2="19.82"/><line class="cls-6" x1="1.68" y1="38.54" x2="89.93" y2="73.63"/><line class="cls-5" x1="131.37" y1="21.29" x2="131.37" y2="17.61"/><line class="cls-6" x1="140.95" y1="15.76" x2="140.97" y2="12.63"/><line class="cls-5" x1="147.91" y1="14.41" x2="140.95" y2="15.76"/><line class="cls-5" x1="140.95" y1="15.76" x2="131.37" y2="17.61"/><line class="cls-5" x1="139.37" y1="19.78" x2="131.37" y2="21.29"/><line class="cls-5" x1="131.37" y1="21.29" x2="84.04" y2="30.24"/></g><text class="cls-7" transform="translate(27.2 125.38)"><tspan class="cls-8">Mina No. 16</tspan><tspan class="cls-9"><tspan x="0" y="16.8" xml:space="preserve">Delegación  Cuauhtémoc</tspan></tspan></text></g></g></svg>