<svg xmlns="http://www.w3.org/2000/svg" viewBox="0 0 107.8 62.14"><defs><style>.cls-1{fill:#d7d7cf;}.cls-1,.cls-2{fill-opacity:0.7;}.cls-2{fill:#a50700;}.cls-3{fill:#ffff5f;fill-opacity:0.8;stroke:#000;stroke-linecap:square;stroke-miterlimit:3.25;stroke-opacity:0.8;stroke-width:0.29px;}.cls-4{fill:#d3d3cc;}</style></defs><title>nomenclaturamapa</title><g id="Capa_2" data-name="Capa 2"><g id="mapa"><circle class="cls-1" cx="8.43" cy="7.09" r="7.09"/><circle class="cls-2" cx="8.43" cy="32.09" r="7.09"/><path class="cls-3" d="M8.43,47.83.25,62H16.61Z"/><path class="cls-4" d="M31,12.62a.36.36,0,0,1-.39-.3l-.13-1a4.18,4.18,0,0,1-1.18,1,3,3,0,0,1-1.54.38,2.91,2.91,0,0,1-1.26-.27,2.6,2.6,0,0,1-1-.78,3.82,3.82,0,0,1-.61-1.3,6.42,6.42,0,0,1-.22-1.78,5.57,5.57,0,0,1,.24-1.67,4,4,0,0,1,.69-1.34,3.21,3.21,0,0,1,2.57-1.22,3.11,3.11,0,0,1,1.28.25,3.2,3.2,0,0,1,.94.71V.84h1.42V12.62Zm-2.76-1a2.34,2.34,0,0,0,1.22-.32,3.37,3.37,0,0,0,1-.9V6.44a2.18,2.18,0,0,0-.86-.74,2.51,2.51,0,0,0-1-.21,2,2,0,0,0-1.74.8,3.76,3.76,0,0,0-.61,2.31A5.83,5.83,0,0,0,26.26,10a2.49,2.49,0,0,0,.4.93,1.52,1.52,0,0,0,.65.53A2,2,0,0,0,28.19,11.58Z"/><path class="cls-4" d="M40.14,12.62h-.63a.83.83,0,0,1-.34-.06.38.38,0,0,1-.17-.28l-.16-.75c-.21.19-.42.37-.62.52a3.48,3.48,0,0,1-.64.38,2.9,2.9,0,0,1-.72.24,4.28,4.28,0,0,1-.84.08,3.19,3.19,0,0,1-.89-.13,1.94,1.94,0,0,1-1.2-1.07,2.35,2.35,0,0,1-.18-1A1.78,1.78,0,0,1,34,9.66a2.26,2.26,0,0,1,.85-.79,5.36,5.36,0,0,1,1.54-.56,10.23,10.23,0,0,1,2.33-.23V7.45A2.23,2.23,0,0,0,38.33,6a1.45,1.45,0,0,0-1.19-.48,2.51,2.51,0,0,0-.88.13,2.88,2.88,0,0,0-.61.29q-.27.16-.45.3a.64.64,0,0,1-.37.13.4.4,0,0,1-.26-.08.73.73,0,0,1-.17-.18l-.25-.46a4.75,4.75,0,0,1,1.44-1,4.58,4.58,0,0,1,1.72-.32,3,3,0,0,1,1.21.23,2.46,2.46,0,0,1,.89.62,2.62,2.62,0,0,1,.54,1,3.81,3.81,0,0,1,.19,1.25Zm-3.7-.87a2.92,2.92,0,0,0,1.28-.29,4.32,4.32,0,0,0,.53-.34c.16-.14.33-.29.49-.46V9a9.87,9.87,0,0,0-1.67.12A5.05,5.05,0,0,0,36,9.44a1.53,1.53,0,0,0-.63.47,1.07,1.07,0,0,0-.2.62,1.31,1.31,0,0,0,.11.55,1,1,0,0,0,.28.38,1.08,1.08,0,0,0,.41.22A1.77,1.77,0,0,0,36.44,11.75Z"/><path class="cls-4" d="M42.3,12.62V4.52h.85a.36.36,0,0,1,.38.29l.11.88a4.57,4.57,0,0,1,1.18-.94,3.09,3.09,0,0,1,1.51-.36,2.87,2.87,0,0,1,1.17.22,2.31,2.31,0,0,1,.85.62,2.83,2.83,0,0,1,.52,1A4.52,4.52,0,0,1,49,7.46v5.16H47.62V7.46A2.2,2.2,0,0,0,47.2,6a1.57,1.57,0,0,0-1.29-.5,2.44,2.44,0,0,0-1.18.3,4,4,0,0,0-1,.82v6ZM46.53,2A.57.57,0,0,0,47,1.85a.75.75,0,0,0,.17-.52H48a2.28,2.28,0,0,1-.1.7,1.56,1.56,0,0,1-.29.54,1.34,1.34,0,0,1-.44.34,1.27,1.27,0,0,1-.58.13,1.18,1.18,0,0,1-.53-.12l-.46-.25-.41-.25a.68.68,0,0,0-.37-.12c-.39,0-.58.24-.59.7h-.89a2.28,2.28,0,0,1,.1-.7,1.57,1.57,0,0,1,.3-.54,1.37,1.37,0,0,1,.45-.35,1.41,1.41,0,0,1,.58-.13,1.14,1.14,0,0,1,.52.12,4,4,0,0,1,.46.25l.41.25A.68.68,0,0,0,46.53,2Z"/><path class="cls-4" d="M54.47,4.39a4.13,4.13,0,0,1,1.61.3,3.14,3.14,0,0,1,1.21.84,3.64,3.64,0,0,1,.77,1.31,5.23,5.23,0,0,1,.27,1.73,5.17,5.17,0,0,1-.27,1.72,3.77,3.77,0,0,1-.77,1.32,3.23,3.23,0,0,1-1.21.83,4.59,4.59,0,0,1-3.21,0,3.35,3.35,0,0,1-1.22-.83,4,4,0,0,1-.78-1.32,5.17,5.17,0,0,1-.27-1.72,5.23,5.23,0,0,1,.27-1.73,3.8,3.8,0,0,1,.78-1.31,3.26,3.26,0,0,1,1.22-.84A4.11,4.11,0,0,1,54.47,4.39Zm0,7.23a2.12,2.12,0,0,0,1.8-.8,3.78,3.78,0,0,0,.59-2.25,3.78,3.78,0,0,0-.59-2.25,2.1,2.1,0,0,0-1.8-.81,2.46,2.46,0,0,0-1,.21,2,2,0,0,0-.75.6,2.67,2.67,0,0,0-.45,1,5.08,5.08,0,0,0-.15,1.29,5.08,5.08,0,0,0,.15,1.29,2.67,2.67,0,0,0,.45,1,2,2,0,0,0,.75.59A2.46,2.46,0,0,0,54.47,11.62Z"/><path class="cls-4" d="M64.73,5.85a.31.31,0,0,1-.3.18.54.54,0,0,1-.27-.09l-.37-.2c-.15-.07-.32-.13-.52-.2a2.63,2.63,0,0,0-.72-.09,2.17,2.17,0,0,0-.65.09,1.62,1.62,0,0,0-.49.26,1.13,1.13,0,0,0-.32.37,1,1,0,0,0-.1.46.77.77,0,0,0,.18.52,1.58,1.58,0,0,0,.47.36,4.67,4.67,0,0,0,.67.27c.26.07.51.16.78.25a7.15,7.15,0,0,1,.77.29,2.64,2.64,0,0,1,.67.4A1.8,1.8,0,0,1,65,9.3a1.86,1.86,0,0,1,.18.84,2.75,2.75,0,0,1-.2,1,2.29,2.29,0,0,1-.6.82,2.81,2.81,0,0,1-1,.55,4.35,4.35,0,0,1-2.84-.08,3.77,3.77,0,0,1-1.17-.71l.33-.54a.61.61,0,0,1,.16-.16.39.39,0,0,1,.23-.06.5.5,0,0,1,.3.12l.39.24a2.34,2.34,0,0,0,.55.25,2.43,2.43,0,0,0,.82.11,2.28,2.28,0,0,0,.72-.1,1.55,1.55,0,0,0,.52-.3,1.15,1.15,0,0,0,.31-.42,1.25,1.25,0,0,0,.1-.51.86.86,0,0,0-.18-.56,1.61,1.61,0,0,0-.47-.37,3.21,3.21,0,0,0-.68-.27l-.78-.25A7.15,7.15,0,0,1,61,8.65a2.86,2.86,0,0,1-.68-.41,1.85,1.85,0,0,1-.48-.62,2.16,2.16,0,0,1,0-1.77,2,2,0,0,1,.56-.75,2.63,2.63,0,0,1,.9-.52,3.59,3.59,0,0,1,1.22-.19A3.81,3.81,0,0,1,64,4.64a3.54,3.54,0,0,1,1.1.69Z"/><path class="cls-4" d="M31,36.62a.36.36,0,0,1-.39-.3l-.13-1a4.18,4.18,0,0,1-1.18,1,3,3,0,0,1-1.54.38,2.91,2.91,0,0,1-1.26-.27,2.6,2.6,0,0,1-1-.78,3.82,3.82,0,0,1-.61-1.3,6.42,6.42,0,0,1-.22-1.78,5.57,5.57,0,0,1,.24-1.67,4,4,0,0,1,.69-1.34,3.21,3.21,0,0,1,2.57-1.22,3.11,3.11,0,0,1,1.28.25,3.2,3.2,0,0,1,.94.71V24.84h1.42V36.62Zm-2.76-1a2.34,2.34,0,0,0,1.22-.32,3.37,3.37,0,0,0,1-.9V30.44a2.18,2.18,0,0,0-.86-.74,2.51,2.51,0,0,0-1-.21,2,2,0,0,0-1.74.8,3.76,3.76,0,0,0-.61,2.31A5.83,5.83,0,0,0,26.26,34a2.49,2.49,0,0,0,.4.93,1.52,1.52,0,0,0,.65.53A2,2,0,0,0,28.19,35.58Z"/><path class="cls-4" d="M37.39,28.39a3.68,3.68,0,0,1,1.35.24,3.09,3.09,0,0,1,1.06.71,3.14,3.14,0,0,1,.7,1.13A4.36,4.36,0,0,1,40.75,32a.89.89,0,0,1-.07.45.29.29,0,0,1-.27.11H35a4.43,4.43,0,0,0,.21,1.34,2.71,2.71,0,0,0,.52,1,2.11,2.11,0,0,0,.8.56,2.68,2.68,0,0,0,1,.19,3.18,3.18,0,0,0,.93-.12,3.88,3.88,0,0,0,.67-.27,4.34,4.34,0,0,0,.46-.27.67.67,0,0,1,.33-.12.3.3,0,0,1,.27.13l.4.53A3,3,0,0,1,40,36a3.87,3.87,0,0,1-.79.39,5.06,5.06,0,0,1-.87.23,5.34,5.34,0,0,1-.89.07,4.06,4.06,0,0,1-1.54-.28,3.48,3.48,0,0,1-1.23-.83,3.89,3.89,0,0,1-.8-1.36,5.59,5.59,0,0,1-.29-1.86,4.8,4.8,0,0,1,.26-1.58,3.64,3.64,0,0,1,.75-1.28,3.42,3.42,0,0,1,1.19-.84A3.84,3.84,0,0,1,37.39,28.39Zm0,1.05A2.23,2.23,0,0,0,35.8,30a2.81,2.81,0,0,0-.73,1.66h4.4a2.86,2.86,0,0,0-.13-.91,2,2,0,0,0-.4-.71,1.7,1.7,0,0,0-.65-.47A2.13,2.13,0,0,0,37.43,29.44Z"/><path class="cls-4" d="M42.57,36.62v-8.1h.82a.45.45,0,0,1,.32.09.61.61,0,0,1,.12.3l.09,1.26a3.77,3.77,0,0,1,1-1.32,2.27,2.27,0,0,1,1.44-.48,2.23,2.23,0,0,1,.6.08,2.1,2.1,0,0,1,.51.21l-.19,1.06a.23.23,0,0,1-.24.2,1.24,1.24,0,0,1-.35-.07,2.15,2.15,0,0,0-.65-.08,1.87,1.87,0,0,0-1.24.43A3.38,3.38,0,0,0,44,31.46v5.16Z"/><path class="cls-4" d="M49,36.62v-8.1h.81a.42.42,0,0,1,.32.09.47.47,0,0,1,.12.3l.1,1.26a3.77,3.77,0,0,1,1-1.32,2.37,2.37,0,0,1,2-.4,2.28,2.28,0,0,1,.51.21l-.19,1.06a.23.23,0,0,1-.25.2,1.19,1.19,0,0,1-.34-.07,2.15,2.15,0,0,0-.65-.08,1.87,1.87,0,0,0-1.24.43,3.38,3.38,0,0,0-.84,1.26v5.16Z"/><path class="cls-4" d="M56.7,28.52v5.17a2.17,2.17,0,0,0,.42,1.42,1.56,1.56,0,0,0,1.28.5,2.54,2.54,0,0,0,1.18-.29,3.73,3.73,0,0,0,1-.83v-6H62v8.1h-.85a.36.36,0,0,1-.38-.3l-.12-.87a4.22,4.22,0,0,1-1.18.94,3.08,3.08,0,0,1-1.5.36,2.89,2.89,0,0,1-1.18-.22,2.4,2.4,0,0,1-.85-.62,2.57,2.57,0,0,1-.51-1,4.15,4.15,0,0,1-.18-1.25V28.52Z"/><path class="cls-4" d="M64.36,36.62v-8.1h.85a.36.36,0,0,1,.38.29l.11.84a4.28,4.28,0,0,1,1-.91A2.4,2.4,0,0,1,68,28.39a2,2,0,0,1,1.34.45,2.68,2.68,0,0,1,.73,1.24,2.45,2.45,0,0,1,.44-.76,2.54,2.54,0,0,1,1.35-.83,3.06,3.06,0,0,1,.79-.1,3.09,3.09,0,0,1,1.14.2,2.35,2.35,0,0,1,.85.6,2.62,2.62,0,0,1,.53,1,4.35,4.35,0,0,1,.19,1.31v5.16H73.92V31.46A2.21,2.21,0,0,0,73.51,30a1.49,1.49,0,0,0-1.21-.49,1.85,1.85,0,0,0-.67.12,1.58,1.58,0,0,0-.56.36,1.76,1.76,0,0,0-.38.61,2.38,2.38,0,0,0-.14.84v5.16H69.13V31.46A2.29,2.29,0,0,0,68.74,30a1.41,1.41,0,0,0-1.15-.47,1.82,1.82,0,0,0-1,.28,3.29,3.29,0,0,0-.82.77v6Z"/><path class="cls-4" d="M77.55,36.62V24.84H79v4.85a4.17,4.17,0,0,1,1.15-1,3.19,3.19,0,0,1,1.5-.35,3.07,3.07,0,0,1,1.27.26,2.63,2.63,0,0,1,1,.79,3.82,3.82,0,0,1,.61,1.3,6.32,6.32,0,0,1,.22,1.78,5.67,5.67,0,0,1-.24,1.67,4,4,0,0,1-.69,1.33,3.2,3.2,0,0,1-2.58,1.21,2.75,2.75,0,0,1-1.33-.3,3.05,3.05,0,0,1-1-.85l-.08.74a.33.33,0,0,1-.36.3Zm3.61-7.09a2.33,2.33,0,0,0-1.22.31,3.57,3.57,0,0,0-1,.91v3.92a2.17,2.17,0,0,0,.85.74,2.36,2.36,0,0,0,1,.22,2.06,2.06,0,0,0,1.75-.81,3.81,3.81,0,0,0,.61-2.3,5.93,5.93,0,0,0-.14-1.36,2.81,2.81,0,0,0-.41-.94,1.52,1.52,0,0,0-.65-.53A2.14,2.14,0,0,0,81.16,29.53Z"/><path class="cls-4" d="M89.65,28.39a3.63,3.63,0,0,1,1.34.24,3.06,3.06,0,0,1,1.77,1.84A4.36,4.36,0,0,1,93,32a.89.89,0,0,1-.07.45.29.29,0,0,1-.27.11h-5.4a4.43,4.43,0,0,0,.21,1.34,2.9,2.9,0,0,0,.53,1,2,2,0,0,0,.8.56,2.68,2.68,0,0,0,1,.19,3.07,3.07,0,0,0,.92-.12,3.58,3.58,0,0,0,.67-.27,4.59,4.59,0,0,0,.47-.27.64.64,0,0,1,.32-.12.33.33,0,0,1,.28.13l.4.53a2.86,2.86,0,0,1-.64.55,3.56,3.56,0,0,1-.78.39,5.06,5.06,0,0,1-.87.23,5.42,5.42,0,0,1-.89.07,4.11,4.11,0,0,1-1.55-.28A3.44,3.44,0,0,1,87,35.62a3.91,3.91,0,0,1-.81-1.36,5.6,5.6,0,0,1-.28-1.86,4.56,4.56,0,0,1,.26-1.58,3.77,3.77,0,0,1,.74-1.28,3.56,3.56,0,0,1,1.2-.84A3.81,3.81,0,0,1,89.65,28.39Zm0,1.05a2.19,2.19,0,0,0-1.62.59,2.81,2.81,0,0,0-.74,1.66h4.41a2.85,2.85,0,0,0-.14-.91,1.83,1.83,0,0,0-.4-.71,1.67,1.67,0,0,0-.64-.47A2.14,2.14,0,0,0,89.68,29.44Z"/><path class="cls-4" d="M28.52,52.39a4.16,4.16,0,0,1,1.61.3,3.22,3.22,0,0,1,1.21.84,3.64,3.64,0,0,1,.77,1.31,5.23,5.23,0,0,1,.27,1.73,5.17,5.17,0,0,1-.27,1.72,3.77,3.77,0,0,1-.77,1.32,3.31,3.31,0,0,1-1.21.83,4.16,4.16,0,0,1-1.61.29,4.11,4.11,0,0,1-1.6-.29,3.27,3.27,0,0,1-1.22-.83,3.79,3.79,0,0,1-.78-1.32,5.17,5.17,0,0,1-.27-1.72,5.23,5.23,0,0,1,.27-1.73,3.66,3.66,0,0,1,.78-1.31,3.18,3.18,0,0,1,1.22-.84A4.11,4.11,0,0,1,28.52,52.39Zm0,7.23a2.08,2.08,0,0,0,1.79-.8,4.52,4.52,0,0,0,0-4.5,2.06,2.06,0,0,0-1.79-.81,2.43,2.43,0,0,0-1.05.21,2,2,0,0,0-.75.6,2.67,2.67,0,0,0-.45,1,5.62,5.62,0,0,0,0,2.58,2.67,2.67,0,0,0,.45,1,2,2,0,0,0,.75.59A2.43,2.43,0,0,0,28.52,59.62Z"/><path class="cls-4" d="M34.19,60.62V48.84h1.43v4.85a4.17,4.17,0,0,1,1.15-.95,3.19,3.19,0,0,1,1.5-.35,3.07,3.07,0,0,1,1.27.26,2.63,2.63,0,0,1,1,.79,3.82,3.82,0,0,1,.61,1.3,6.32,6.32,0,0,1,.22,1.78,5.67,5.67,0,0,1-.24,1.67,3.84,3.84,0,0,1-.7,1.33,3.18,3.18,0,0,1-1.1.89,3.31,3.31,0,0,1-1.47.32,2.75,2.75,0,0,1-1.33-.3,3.05,3.05,0,0,1-1-.85l-.08.74a.33.33,0,0,1-.36.3Zm3.61-7.09a2.33,2.33,0,0,0-1.22.31,3.57,3.57,0,0,0-1,.91v3.92a2.17,2.17,0,0,0,.85.74,2.36,2.36,0,0,0,1,.22,2.06,2.06,0,0,0,1.75-.81,3.81,3.81,0,0,0,.61-2.3,5.93,5.93,0,0,0-.14-1.36,2.81,2.81,0,0,0-.41-.94,1.52,1.52,0,0,0-.65-.53A2.14,2.14,0,0,0,37.8,53.53Z"/><path class="cls-4" d="M43.08,60.62v-8.1h.82a.45.45,0,0,1,.32.09.47.47,0,0,1,.12.3l.09,1.26a3.77,3.77,0,0,1,1-1.32,2.27,2.27,0,0,1,1.44-.48,2.23,2.23,0,0,1,.6.08,2.1,2.1,0,0,1,.51.21l-.19,1.06a.23.23,0,0,1-.24.2,1.24,1.24,0,0,1-.35-.07,2.15,2.15,0,0,0-.65-.08,1.87,1.87,0,0,0-1.24.43,3.38,3.38,0,0,0-.84,1.26v5.16Z"/><path class="cls-4" d="M55.48,60.62h-.63a.83.83,0,0,1-.34-.06.37.37,0,0,1-.16-.28l-.16-.75c-.22.19-.43.37-.63.52a3.18,3.18,0,0,1-.64.38,2.77,2.77,0,0,1-.72.24,4.28,4.28,0,0,1-.84.08,3.12,3.12,0,0,1-.88-.13,1.88,1.88,0,0,1-1.2-1.07,2.35,2.35,0,0,1-.18-1,1.87,1.87,0,0,1,.26-.93,2.34,2.34,0,0,1,.85-.79,5.48,5.48,0,0,1,1.54-.56,10.3,10.3,0,0,1,2.33-.23v-.63a2.23,2.23,0,0,0-.4-1.44,1.48,1.48,0,0,0-1.2-.48,2.42,2.42,0,0,0-.87.13A2.75,2.75,0,0,0,51,54l-.45.3a.62.62,0,0,1-.37.13.36.36,0,0,1-.25-.08.77.77,0,0,1-.18-.18l-.25-.46a4.79,4.79,0,0,1,1.45-1,4.5,4.5,0,0,1,1.72-.32,3,3,0,0,1,1.2.23,2.38,2.38,0,0,1,.89.62,2.79,2.79,0,0,1,.55,1,4.1,4.1,0,0,1,.18,1.25Zm-3.7-.87a2.84,2.84,0,0,0,.69-.08,2.75,2.75,0,0,0,.59-.21,4.32,4.32,0,0,0,.53-.34,5.25,5.25,0,0,0,.49-.46V57a10,10,0,0,0-1.67.12,5.23,5.23,0,0,0-1.12.33,1.53,1.53,0,0,0-.63.47,1.07,1.07,0,0,0-.2.62,1.31,1.31,0,0,0,.11.55,1,1,0,0,0,.28.38,1.2,1.2,0,0,0,.42.22A1.7,1.7,0,0,0,51.78,59.75Z"/><path class="cls-4" d="M66.26,54a.79.79,0,0,1-.13.13.3.3,0,0,1-.18,0,.41.41,0,0,1-.26-.1l-.36-.22a3.25,3.25,0,0,0-.52-.22,2.41,2.41,0,0,0-.76-.1,2.49,2.49,0,0,0-1,.21,2.06,2.06,0,0,0-.76.61,2.83,2.83,0,0,0-.47,1,5.05,5.05,0,0,0-.15,1.28,4.67,4.67,0,0,0,.16,1.3,2.88,2.88,0,0,0,.48,1,1.92,1.92,0,0,0,.74.59,2.21,2.21,0,0,0,1,.21,2.3,2.3,0,0,0,.85-.13,2.44,2.44,0,0,0,.56-.27,3.22,3.22,0,0,0,.37-.28.46.46,0,0,1,.29-.12.3.3,0,0,1,.27.13l.4.53a3.05,3.05,0,0,1-1.32.94,4.66,4.66,0,0,1-1.67.3,3.45,3.45,0,0,1-1.41-.28,3,3,0,0,1-1.13-.81,3.59,3.59,0,0,1-.76-1.31,5,5,0,0,1-.28-1.76,5.59,5.59,0,0,1,.25-1.68,3.87,3.87,0,0,1,.74-1.32,3.32,3.32,0,0,1,1.2-.87A4,4,0,0,1,64,52.39a3.9,3.9,0,0,1,1.5.27,3.57,3.57,0,0,1,1.16.79Z"/><path class="cls-4" d="M68.2,60.62V48.84h1.42v4.77a4.44,4.44,0,0,1,1.16-.89,3.07,3.07,0,0,1,1.45-.33,2.81,2.81,0,0,1,1.17.22,2.23,2.23,0,0,1,.85.62,2.83,2.83,0,0,1,.52,1A4.17,4.17,0,0,1,75,55.46v5.16H73.52V55.46A2.2,2.2,0,0,0,73.1,54a1.56,1.56,0,0,0-1.28-.5,2.41,2.41,0,0,0-1.18.3,3.92,3.92,0,0,0-1,.82v6Z"/><path class="cls-4" d="M78.33,52.52v5.17a2.17,2.17,0,0,0,.42,1.42,1.56,1.56,0,0,0,1.28.5,2.54,2.54,0,0,0,1.18-.29,3.73,3.73,0,0,0,1-.83v-6h1.43v8.1H82.8a.36.36,0,0,1-.38-.3l-.12-.87a4.22,4.22,0,0,1-1.18.94,3.08,3.08,0,0,1-1.5.36,2.89,2.89,0,0,1-1.18-.22,2.4,2.4,0,0,1-.85-.62,2.57,2.57,0,0,1-.51-1,4.15,4.15,0,0,1-.18-1.25V52.52Z"/><path class="cls-4" d="M89.2,52.39a3.63,3.63,0,0,1,1.34.24,3,3,0,0,1,1.07.71,3.14,3.14,0,0,1,.7,1.13A4.36,4.36,0,0,1,92.56,56a.89.89,0,0,1-.07.45.29.29,0,0,1-.27.11h-5.4A4.77,4.77,0,0,0,87,57.91a2.9,2.9,0,0,0,.53,1,2,2,0,0,0,.8.56,2.68,2.68,0,0,0,1,.19,3.07,3.07,0,0,0,.92-.12,3.58,3.58,0,0,0,.67-.27,3.71,3.71,0,0,0,.47-.27.64.64,0,0,1,.32-.12.33.33,0,0,1,.28.13l.4.53a2.86,2.86,0,0,1-.64.55,3.56,3.56,0,0,1-.78.39,5.06,5.06,0,0,1-.87.23,5.42,5.42,0,0,1-.89.07,4.11,4.11,0,0,1-1.55-.28,3.44,3.44,0,0,1-1.22-.83,3.91,3.91,0,0,1-.81-1.36,5.6,5.6,0,0,1-.28-1.86,4.56,4.56,0,0,1,.26-1.58,3.77,3.77,0,0,1,.74-1.28,3.56,3.56,0,0,1,1.2-.84A3.81,3.81,0,0,1,89.2,52.39Zm0,1a2.19,2.19,0,0,0-1.62.59,2.81,2.81,0,0,0-.74,1.66h4.41a2.86,2.86,0,0,0-.13-.91,2,2,0,0,0-.41-.71,1.67,1.67,0,0,0-.64-.47A2.14,2.14,0,0,0,89.23,53.44Z"/><path class="cls-4" d="M99.9,54a.51.51,0,0,1-.12.13.36.36,0,0,1-.19,0,.45.45,0,0,1-.26-.1,3.12,3.12,0,0,0-.35-.22,3.4,3.4,0,0,0-.53-.22,2.31,2.31,0,0,0-.75-.1,2.46,2.46,0,0,0-1,.21,2.09,2.09,0,0,0-.77.61,3,3,0,0,0-.46,1,5,5,0,0,0-.16,1.28,4.66,4.66,0,0,0,.17,1.3,2.87,2.87,0,0,0,.47,1,2,2,0,0,0,.74.59,2.27,2.27,0,0,0,1,.21,2.32,2.32,0,0,0,.86-.13,2.66,2.66,0,0,0,.56-.27,3.22,3.22,0,0,0,.37-.28.44.44,0,0,1,.29-.12A.3.3,0,0,1,100,59l.4.53a3.05,3.05,0,0,1-1.32.94,4.7,4.7,0,0,1-1.67.3A3.53,3.53,0,0,1,96,60.45a3.1,3.1,0,0,1-1.13-.81,3.72,3.72,0,0,1-.75-1.31,5,5,0,0,1-.28-1.76,5.29,5.29,0,0,1,.25-1.68,3.87,3.87,0,0,1,.74-1.32A3.32,3.32,0,0,1,96,52.7a4.37,4.37,0,0,1,3.13,0,3.57,3.57,0,0,1,1.16.79Z"/><path class="cls-4" d="M107.8,60.62h-.63a.83.83,0,0,1-.34-.06.41.41,0,0,1-.17-.28l-.16-.75c-.21.19-.42.37-.62.52a3.48,3.48,0,0,1-.64.38,2.77,2.77,0,0,1-.72.24,4.28,4.28,0,0,1-.84.08,3.12,3.12,0,0,1-.88-.13,1.88,1.88,0,0,1-1.2-1.07,2.35,2.35,0,0,1-.18-1,1.77,1.77,0,0,1,.26-.93,2.34,2.34,0,0,1,.85-.79,5.36,5.36,0,0,1,1.54-.56,10.3,10.3,0,0,1,2.33-.23v-.63A2.23,2.23,0,0,0,106,54a1.48,1.48,0,0,0-1.2-.48,2.51,2.51,0,0,0-.88.13,2.88,2.88,0,0,0-.61.29l-.45.3a.62.62,0,0,1-.37.13.36.36,0,0,1-.25-.08.62.62,0,0,1-.18-.18l-.25-.46a4.79,4.79,0,0,1,1.45-1,4.5,4.5,0,0,1,1.72-.32,3,3,0,0,1,1.2.23,2.38,2.38,0,0,1,.89.62,2.79,2.79,0,0,1,.55,1,4.1,4.1,0,0,1,.18,1.25Zm-3.7-.87a2.91,2.91,0,0,0,.69-.08,2.75,2.75,0,0,0,.59-.21,4.32,4.32,0,0,0,.53-.34,5.25,5.25,0,0,0,.49-.46V57a9.87,9.87,0,0,0-1.67.12,5.23,5.23,0,0,0-1.12.33,1.53,1.53,0,0,0-.63.47,1.07,1.07,0,0,0-.2.62,1.31,1.31,0,0,0,.11.55,1,1,0,0,0,.28.38,1.16,1.16,0,0,0,.41.22A1.77,1.77,0,0,0,104.1,59.75Z"/></g></g></svg>