<svg xmlns="http://www.w3.org/2000/svg" viewBox="0 0 39.84 39.84"><defs><style>.cls-1{fill:#fff;}</style></defs><title>instagram</title><g id="Capa_2" data-name="Capa 2"><g id="recursos_web" data-name="recursos web"><path class="cls-1" d="M5.12,39.84H34.76a5.11,5.11,0,0,0,5.08-4.72V4.69A5.1,5.1,0,0,0,35.12,0H4.76A5.12,5.12,0,0,0,0,5.08V34.72A5.13,5.13,0,0,0,5.12,39.84ZM27.26,6.19a1.8,1.8,0,0,1,1.79-1.8h4.51a1.8,1.8,0,0,1,1.79,1.8v4.3a1.79,1.79,0,0,1-1.79,1.79H29.05a1.79,1.79,0,0,1-1.79-1.79ZM20,12.06a7.89,7.89,0,0,1,8,7.76,7.89,7.89,0,0,1-8,7.76,7.89,7.89,0,0,1-8-7.76A7.89,7.89,0,0,1,20,12.06ZM4.43,16.83H8.09a11.69,11.69,0,0,0-.51,3.42,12.21,12.21,0,0,0,12.4,12,12.22,12.22,0,0,0,12.4-12,11.37,11.37,0,0,0-.52-3.42h3.51V33.67a1.59,1.59,0,0,1-1.58,1.59H6a1.59,1.59,0,0,1-1.59-1.59Z"/></g></g></svg>