<svg xmlns="http://www.w3.org/2000/svg" viewBox="0 0 203.49 70"><defs><style>.cls-1,.cls-2{fill:#1d1d1b;}.cls-1{fill-rule:evenodd;}</style></defs><title>logohomemovil</title><g id="Capa_2" data-name="Capa 2"><g id="recursos_web" data-name="recursos web"><path class="cls-1" d="M33.46,30.85h-.1a10,10,0,0,1,.06,1.1A10.19,10.19,0,0,1,23.23,42.14H14.66V.91h5.71V0H1.74V.91H7.45V42.14H1.74v.91H34.37V30.85Z"/><polygon class="cls-1" points="64.67 42.45 53.23 17.1 53.24 16.99 52.39 16.75 41.81 42.45 38.08 42.45 38.08 43.35 45.79 43.35 45.79 42.45 42.8 42.45 45.56 35.8 51.23 35.8 51.23 34.74 45.95 34.74 50.99 22.61 59.3 42.45 55.61 42.45 55.61 43.35 68.15 43.35 68.15 42.45 64.67 42.45"/><polygon class="cls-1" points="149.36 42.45 137.91 17.1 137.93 16.99 137.08 16.75 126.49 42.45 122.7 42.45 122.7 43.35 130.41 43.35 130.41 42.45 127.49 42.45 130.25 35.8 136.15 35.8 136.15 34.74 130.63 34.74 135.67 22.61 143.98 42.45 140.68 42.45 140.68 43.35 152.77 43.35 152.77 42.45 149.36 42.45"/><polygon class="cls-1" points="198.35 42.45 186.91 17.1 186.92 16.99 186.07 16.75 175.49 42.45 171.66 42.45 171.66 43.35 179.67 43.35 179.67 42.45 176.48 42.45 179.24 35.8 185.11 35.8 185.11 34.74 179.62 34.74 184.67 22.61 192.97 42.45 189.49 42.45 189.49 43.35 201.58 43.35 201.58 42.45 198.35 42.45"/><path class="cls-2" d="M110.27,29.93c-.09,3-.1,7-1.94,9.4,1.84-2.35,1.85-6.41,1.94-9.38,0-.38,0-.74,0-1.09C110.29,29.21,110.28,29.56,110.27,29.93Z"/><path class="cls-2" d="M115.41,29.69c-.23-4.63-3.53-8.14-5.81-9.7,2.28,1.56,5.55,5.07,5.79,9.7s-1.17,7.85-4.43,10.65A12,12,0,0,0,115.41,29.69Z"/><path class="cls-2" d="M100.93,8.73a21.9,21.9,0,1,0,21.91,21.9A21.9,21.9,0,0,0,100.93,8.73Zm0,41.8a19.79,19.79,0,1,1,19.79-19.78A19.79,19.79,0,0,1,100.93,50.53Z"/><path class="cls-2" d="M110.29,28.86a11.27,11.27,0,0,0-1.58-6.34c-1.73-2.94-5.12-3.34-6.29-3.34h-4.8V42.45h5.15a7.44,7.44,0,0,0,5.56-3c1.84-2.34,1.85-6.48,1.94-9.46C110.28,29.62,110.29,29.21,110.29,28.86Z"/><path class="cls-2" d="M100.93,12.53a18.22,18.22,0,1,0,18.22,18.22A18.21,18.21,0,0,0,100.93,12.53Zm10,27.81c-2.52,2.16-6.66,2.65-8.17,2.76v.25H89.31v-.9h3.62V19.18H89.31V18.12H102v-.07c.3,0,.16.07.2.07h.55v.05c1.36.13,4.94.55,6.8,1.82,2.29,1.56,5.58,5.07,5.82,9.7A12.07,12.07,0,0,1,110.92,40.34Z"/><path class="cls-1" d="M174.5,23.12v0Z"/><path class="cls-1" d="M174.23,17.31v-.4H149.6v.46h0V23.1A5.73,5.73,0,0,1,153.17,18h6.4V42.45h-4.23v.9h13.6v-.9H164.4V18h6.69a5.35,5.35,0,0,1,3.14,5.13V17.31Z"/><path class="cls-1" d="M149.75,23.12h0v0Z"/><path class="cls-2" d="M5.16,68.82a.09.09,0,0,1,.08,0l.19.19a3.39,3.39,0,0,1-.45.4,2.91,2.91,0,0,1-1.15.48,3.54,3.54,0,0,1-.75.07,3.2,3.2,0,0,1-1.25-.24,2.86,2.86,0,0,1-1-.67A3.21,3.21,0,0,1,.23,68,4.08,4.08,0,0,1,0,66.65a4,4,0,0,1,.23-1.37,3.13,3.13,0,0,1,.66-1,2.88,2.88,0,0,1,1-.69,3.42,3.42,0,0,1,1.3-.24,3.24,3.24,0,0,1,.65.05,4.14,4.14,0,0,1,.56.15,2.73,2.73,0,0,1,.48.25,4.43,4.43,0,0,1,.45.34l-.15.21a.11.11,0,0,1-.11.06.21.21,0,0,1-.11,0l-.16-.12L4.58,64a2.16,2.16,0,0,0-.34-.16,2.44,2.44,0,0,0-.45-.12,3.3,3.3,0,0,0-.58,0,2.84,2.84,0,0,0-1.1.21,2.45,2.45,0,0,0-.86.59,2.54,2.54,0,0,0-.56.93,3.32,3.32,0,0,0-.2,1.22,3.47,3.47,0,0,0,.2,1.24,2.57,2.57,0,0,0,.55.92,2.31,2.31,0,0,0,.83.58,2.75,2.75,0,0,0,1,.2,4.09,4.09,0,0,0,.63,0,3.8,3.8,0,0,0,.51-.14,2.55,2.55,0,0,0,.43-.23,2.75,2.75,0,0,0,.39-.32l0,0Z"/><path class="cls-2" d="M14.62,66.65A4,4,0,0,1,14.39,68a2.89,2.89,0,0,1-.64,1.06,2.83,2.83,0,0,1-1,.68,3.32,3.32,0,0,1-1.28.24,3.22,3.22,0,0,1-1.26-.24,2.78,2.78,0,0,1-1-.68A2.89,2.89,0,0,1,8.6,68a4.23,4.23,0,0,1,0-2.75,2.94,2.94,0,0,1,.64-1,2.66,2.66,0,0,1,1-.68,3.22,3.22,0,0,1,1.26-.24,3.51,3.51,0,0,1,1.28.23,2.83,2.83,0,0,1,1,.68,3.07,3.07,0,0,1,.64,1.06A4,4,0,0,1,14.62,66.65Zm-.49,0a4,4,0,0,0-.19-1.24,2.7,2.7,0,0,0-.54-.92,2.19,2.19,0,0,0-.83-.58,2.74,2.74,0,0,0-1.08-.21,2.65,2.65,0,0,0-1.07.21,2.19,2.19,0,0,0-.83.58,2.55,2.55,0,0,0-.54.92,3.71,3.71,0,0,0-.2,1.24,3.6,3.6,0,0,0,.2,1.23,2.55,2.55,0,0,0,.54.92,2.19,2.19,0,0,0,.83.58,2.65,2.65,0,0,0,1.07.2,2.73,2.73,0,0,0,1.08-.2,2.19,2.19,0,0,0,.83-.58,2.7,2.7,0,0,0,.54-.92A3.87,3.87,0,0,0,14.13,66.65Z"/><path class="cls-2" d="M18.35,63.39a.23.23,0,0,1,.08.07l4.24,5.68a2.45,2.45,0,0,1,0-.27v-5.5h.42v6.56h-.22a.22.22,0,0,1-.18-.1l-4.26-5.69a2.65,2.65,0,0,1,0,.27v5.52H18V63.37h.24Z"/><path class="cls-2" d="M31.15,63.37v.4h-2.3v6.16h-.47V63.77H26.06v-.4Z"/><path class="cls-2" d="M38.54,69.93h-.36a.18.18,0,0,1-.11,0A.22.22,0,0,1,38,69.8l-.77-1.9H34l-.77,1.9a.24.24,0,0,1-.06.09.21.21,0,0,1-.11,0H32.7l2.69-6.56h.47Zm-4.38-2.39h2.93l-1.34-3.31a1.89,1.89,0,0,1-.06-.18c0-.06,0-.13-.07-.21q0,.12-.06.21c0,.07-.05.13-.07.19Z"/><path class="cls-2" d="M44.7,68.3l.06-.15a.91.91,0,0,1,.07-.14l2.58-4.55s0-.07.07-.08h.43v6.56h-.42V64.34a2.46,2.46,0,0,1,0-.26l-2.58,4.59a.22.22,0,0,1-.19.12h-.07a.22.22,0,0,1-.19-.12l-2.65-4.59a2.46,2.46,0,0,1,0,.26v5.59h-.42V63.37h.43s0,0,.08.08L44.58,68A1.18,1.18,0,0,1,44.7,68.3Z"/><path class="cls-2" d="M57.56,66.65A4,4,0,0,1,57.33,68a3,3,0,0,1-.64,1.06,2.87,2.87,0,0,1-1,.68,3.23,3.23,0,0,1-1.27.24,3.3,3.3,0,0,1-1.27-.24,2.83,2.83,0,0,1-1-.68A3.06,3.06,0,0,1,51.53,68a4.41,4.41,0,0,1,0-2.75,3.11,3.11,0,0,1,.65-1,2.7,2.7,0,0,1,1-.68,3.3,3.3,0,0,1,1.27-.24,3.42,3.42,0,0,1,1.27.23,2.87,2.87,0,0,1,1,.68,3.23,3.23,0,0,1,.64,1.06A4,4,0,0,1,57.56,66.65Zm-.49,0a3.71,3.71,0,0,0-.2-1.24,2.53,2.53,0,0,0-.53-.92,2.19,2.19,0,0,0-.83-.58,2.74,2.74,0,0,0-1.08-.21,2.65,2.65,0,0,0-1.07.21,2.19,2.19,0,0,0-.83.58,2.57,2.57,0,0,0-.55.92,4,4,0,0,0-.19,1.24A3.87,3.87,0,0,0,52,67.88a2.57,2.57,0,0,0,.55.92,2.19,2.19,0,0,0,.83.58,2.65,2.65,0,0,0,1.07.2,2.73,2.73,0,0,0,1.08-.2,2.19,2.19,0,0,0,.83-.58,2.53,2.53,0,0,0,.53-.92A3.6,3.6,0,0,0,57.07,66.65Z"/><path class="cls-2" d="M64.13,64.17a.14.14,0,0,1-.13.08.25.25,0,0,1-.15-.09,1.6,1.6,0,0,0-.26-.19,2,2,0,0,0-.41-.19,2,2,0,0,0-1.23,0,1.28,1.28,0,0,0-.45.28,1,1,0,0,0-.28.41,1.12,1.12,0,0,0-.1.48,1.06,1.06,0,0,0,.14.56,1.49,1.49,0,0,0,.38.37,2.51,2.51,0,0,0,.52.25l.61.21.61.22a2.65,2.65,0,0,1,.52.31A1.41,1.41,0,0,1,64.42,68a2,2,0,0,1-.15.78,1.74,1.74,0,0,1-.4.63,1.87,1.87,0,0,1-.66.42,2.28,2.28,0,0,1-.89.16,2.57,2.57,0,0,1-1.12-.23,2.61,2.61,0,0,1-.82-.63l.13-.2a.16.16,0,0,1,.13-.07.25.25,0,0,1,.11,0,1.22,1.22,0,0,0,.16.14,2.38,2.38,0,0,0,.22.18,1.69,1.69,0,0,0,.3.17,1.77,1.77,0,0,0,.39.14,2,2,0,0,0,.51.06,1.94,1.94,0,0,0,.7-.12,1.64,1.64,0,0,0,.51-.32,1.51,1.51,0,0,0,.33-.49,1.64,1.64,0,0,0,.11-.6,1,1,0,0,0-.15-.57,1.12,1.12,0,0,0-.37-.38,2.37,2.37,0,0,0-.53-.25l-.6-.2a4.44,4.44,0,0,1-.61-.22,2.21,2.21,0,0,1-.52-.3,1.46,1.46,0,0,1-.38-.47,1.62,1.62,0,0,1-.14-.7,1.69,1.69,0,0,1,.49-1.18,1.9,1.9,0,0,1,.6-.37,2.09,2.09,0,0,1,.81-.14,2.43,2.43,0,0,1,.92.16,2.33,2.33,0,0,1,.74.49Z"/><path class="cls-2" d="M76.35,69.93h-.48V66.78h-4.1v3.15h-.48V63.37h.48v3.06h4.1V63.37h.48Z"/><path class="cls-2" d="M80.79,69.93h-.47V63.37h.47Z"/><path class="cls-2" d="M87.94,64.17a.12.12,0,0,1-.12.08.25.25,0,0,1-.15-.09,2.21,2.21,0,0,0-.26-.19,2,2,0,0,0-.41-.19,2,2,0,0,0-1.23,0,1.28,1.28,0,0,0-.45.28,1,1,0,0,0-.28.41,1.12,1.12,0,0,0-.1.48,1.06,1.06,0,0,0,.14.56,1.49,1.49,0,0,0,.38.37,2.51,2.51,0,0,0,.52.25l.61.21c.2.07.41.14.6.22a2.46,2.46,0,0,1,.53.31A1.41,1.41,0,0,1,88.24,68a2,2,0,0,1-.15.78,1.76,1.76,0,0,1-.41.63,1.82,1.82,0,0,1-.65.42,2.28,2.28,0,0,1-.89.16A2.54,2.54,0,0,1,85,69.77a2.5,2.5,0,0,1-.82-.63l.13-.2a.16.16,0,0,1,.13-.07.25.25,0,0,1,.11,0l.15.14.23.18a1.39,1.39,0,0,0,.3.17,1.77,1.77,0,0,0,.39.14,2,2,0,0,0,.51.06,1.85,1.85,0,0,0,.69-.12,1.58,1.58,0,0,0,.52-.32,1.34,1.34,0,0,0,.32-.49,1.46,1.46,0,0,0,.12-.6,1,1,0,0,0-.15-.57,1.22,1.22,0,0,0-.37-.38,2.37,2.37,0,0,0-.53-.25l-.6-.2a4.44,4.44,0,0,1-.61-.22,2.21,2.21,0,0,1-.52-.3,1.46,1.46,0,0,1-.38-.47,1.62,1.62,0,0,1-.14-.7A1.69,1.69,0,0,1,85,63.81a1.79,1.79,0,0,1,.6-.37,2.06,2.06,0,0,1,.81-.14,2.35,2.35,0,0,1,.91.16,2.22,2.22,0,0,1,.74.49Z"/><path class="cls-2" d="M95.74,63.37v.4h-2.3v6.16H93V63.77H90.65v-.4Z"/><path class="cls-2" d="M104,66.65A4,4,0,0,1,103.8,68a3,3,0,0,1-.64,1.06,2.87,2.87,0,0,1-1,.68,3.23,3.23,0,0,1-1.27.24,3.3,3.3,0,0,1-1.27-.24,2.83,2.83,0,0,1-1-.68A3.06,3.06,0,0,1,98,68a4.41,4.41,0,0,1,0-2.75,3.11,3.11,0,0,1,.65-1,2.7,2.7,0,0,1,1-.68,3.3,3.3,0,0,1,1.27-.24,3.42,3.42,0,0,1,1.27.23,2.87,2.87,0,0,1,1,.68,3.23,3.23,0,0,1,.64,1.06A4,4,0,0,1,104,66.65Zm-.49,0a3.71,3.71,0,0,0-.2-1.24,2.53,2.53,0,0,0-.53-.92,2.19,2.19,0,0,0-.83-.58,2.74,2.74,0,0,0-1.08-.21,2.65,2.65,0,0,0-1.07.21,2.19,2.19,0,0,0-.83.58,2.57,2.57,0,0,0-.55.92,4,4,0,0,0-.19,1.24,3.87,3.87,0,0,0,.19,1.23,2.57,2.57,0,0,0,.55.92,2.19,2.19,0,0,0,.83.58,2.65,2.65,0,0,0,1.07.2,2.73,2.73,0,0,0,1.08-.2,2.19,2.19,0,0,0,.83-.58,2.53,2.53,0,0,0,.53-.92A3.6,3.6,0,0,0,103.54,66.65Z"/><path class="cls-2" d="M108,67v3h-.47V63.37h1.67a2.74,2.74,0,0,1,1.7.44,1.54,1.54,0,0,1,.56,1.28,1.73,1.73,0,0,1-.13.69,1.58,1.58,0,0,1-.37.54,2,2,0,0,1-.59.39,3,3,0,0,1-.77.2.67.67,0,0,1,.2.18l2.25,2.84h-.41a.28.28,0,0,1-.13,0,.41.41,0,0,1-.1-.09l-2.1-2.66a.47.47,0,0,0-.17-.15.66.66,0,0,0-.28,0Zm0-.35h1.14a2.67,2.67,0,0,0,.78-.11,1.71,1.71,0,0,0,.59-.29,1.26,1.26,0,0,0,.36-.47,1.52,1.52,0,0,0,.12-.62,1.23,1.23,0,0,0-.45-1,2.28,2.28,0,0,0-1.34-.33H108Z"/><path class="cls-2" d="M115.77,69.93h-.48V63.37h.48Z"/><path class="cls-2" d="M124.68,69.93h-.37a.15.15,0,0,1-.1,0,.22.22,0,0,1-.07-.09l-.77-1.9h-3.22l-.77,1.9a.28.28,0,0,1-.07.09.18.18,0,0,1-.11,0h-.36l2.68-6.56H122Zm-4.39-2.39h2.94l-1.34-3.31-.07-.18q0-.09-.06-.21a1,1,0,0,1-.07.21l-.06.19Z"/><path class="cls-2" d="M130.74,64.17a.12.12,0,0,1-.12.08.25.25,0,0,1-.15-.09,2.21,2.21,0,0,0-.26-.19,2.26,2.26,0,0,0-.41-.19,2,2,0,0,0-1.23,0,1.42,1.42,0,0,0-.46.28,1.31,1.31,0,0,0-.37.89,1.06,1.06,0,0,0,.14.56,1.62,1.62,0,0,0,.37.37,2.87,2.87,0,0,0,.53.25l.61.21c.2.07.41.14.6.22a2.46,2.46,0,0,1,.53.31,1.5,1.5,0,0,1,.37.46A1.36,1.36,0,0,1,131,68a2,2,0,0,1-.14.78,1.76,1.76,0,0,1-.41.63,1.78,1.78,0,0,1-.66.42,2.24,2.24,0,0,1-.89.16,2.42,2.42,0,0,1-1.93-.86l.13-.2a.16.16,0,0,1,.13-.07.25.25,0,0,1,.11,0l.15.14c.06.06.14.11.22.18a1.8,1.8,0,0,0,.31.17,1.77,1.77,0,0,0,.39.14,2,2,0,0,0,.51.06,1.85,1.85,0,0,0,.69-.12,1.58,1.58,0,0,0,.52-.32,1.34,1.34,0,0,0,.32-.49,1.46,1.46,0,0,0,.11-.6,1,1,0,0,0-.14-.57,1.22,1.22,0,0,0-.37-.38,2.37,2.37,0,0,0-.53-.25l-.6-.2a4.44,4.44,0,0,1-.61-.22,2.28,2.28,0,0,1-.53-.3,1.57,1.57,0,0,1-.37-.47,1.62,1.62,0,0,1-.14-.7,1.77,1.77,0,0,1,.12-.64,1.64,1.64,0,0,1,1-.91,2.06,2.06,0,0,1,.81-.14,2.38,2.38,0,0,1,.91.16,2.22,2.22,0,0,1,.74.49Z"/><path class="cls-2" d="M142.67,68.82a.09.09,0,0,1,.08,0l.18.19a2.79,2.79,0,0,1-.44.4,3.09,3.09,0,0,1-1.15.48,3.54,3.54,0,0,1-.75.07,3.17,3.17,0,0,1-1.25-.24,2.76,2.76,0,0,1-1-.67,3,3,0,0,1-.63-1.06,3.85,3.85,0,0,1-.23-1.38,4,4,0,0,1,.23-1.37,3.13,3.13,0,0,1,.66-1,2.84,2.84,0,0,1,1-.69,3.47,3.47,0,0,1,1.31-.24,3.3,3.3,0,0,1,.65.05,4.58,4.58,0,0,1,.56.15,2.73,2.73,0,0,1,.48.25,3.46,3.46,0,0,1,.44.34l-.14.21a.12.12,0,0,1-.12.06.23.23,0,0,1-.1,0l-.17-.12-.24-.16a1.69,1.69,0,0,0-.33-.16,2.44,2.44,0,0,0-.45-.12,3.39,3.39,0,0,0-.58,0,2.8,2.8,0,0,0-1.1.21,2.45,2.45,0,0,0-.86.59,2.7,2.7,0,0,0-.57.93,3.55,3.55,0,0,0-.2,1.22,3.71,3.71,0,0,0,.2,1.24,2.72,2.72,0,0,0,.55.92,2.44,2.44,0,0,0,.84.58,2.71,2.71,0,0,0,1,.2,3.87,3.87,0,0,0,.62,0,3.12,3.12,0,0,0,.51-.14,2.22,2.22,0,0,0,.43-.23,2.34,2.34,0,0,0,.4-.32l0,0Z"/><path class="cls-2" d="M152.12,66.65A4,4,0,0,1,151.9,68a3,3,0,0,1-.64,1.06,3,3,0,0,1-1,.68A3.27,3.27,0,0,1,149,70a3.3,3.3,0,0,1-1.27-.24,2.83,2.83,0,0,1-1-.68A3.06,3.06,0,0,1,146.1,68a4.23,4.23,0,0,1,0-2.75,3.11,3.11,0,0,1,.65-1,2.7,2.7,0,0,1,1-.68A3.3,3.3,0,0,1,149,63.3a3.46,3.46,0,0,1,1.27.23,3,3,0,0,1,1,.68,3.23,3.23,0,0,1,.64,1.06A4,4,0,0,1,152.12,66.65Zm-.49,0a3.71,3.71,0,0,0-.19-1.24,2.53,2.53,0,0,0-.53-.92,2.19,2.19,0,0,0-.83-.58A2.74,2.74,0,0,0,149,63.7a2.65,2.65,0,0,0-1.07.21,2.19,2.19,0,0,0-.83.58,2.57,2.57,0,0,0-.55.92,4,4,0,0,0-.19,1.24,3.87,3.87,0,0,0,.19,1.23,2.57,2.57,0,0,0,.55.92,2.19,2.19,0,0,0,.83.58,2.65,2.65,0,0,0,1.07.2,2.73,2.73,0,0,0,1.08-.2,2.19,2.19,0,0,0,.83-.58,2.53,2.53,0,0,0,.53-.92A3.61,3.61,0,0,0,151.63,66.65Z"/><path class="cls-2" d="M155.85,63.39a.17.17,0,0,1,.08.07l4.25,5.68a2.45,2.45,0,0,1,0-.27v-5.5h.42v6.56h-.23a.21.21,0,0,1-.17-.1l-4.26-5.69a2.53,2.53,0,0,1,0,.27v5.52h-.41V63.37h.23Z"/><path class="cls-2" d="M173.54,66.65a3.88,3.88,0,0,1-.23,1.36,2.89,2.89,0,0,1-.64,1,2.71,2.71,0,0,1-1,.65,3.42,3.42,0,0,1-1.27.23H168V63.37h2.39a3.42,3.42,0,0,1,1.27.23,2.71,2.71,0,0,1,1,.65,2.85,2.85,0,0,1,.64,1A3.94,3.94,0,0,1,173.54,66.65Zm-.49,0a3.87,3.87,0,0,0-.19-1.23,2.65,2.65,0,0,0-.54-.91,2.39,2.39,0,0,0-.83-.56,2.85,2.85,0,0,0-1.08-.2H168.5v5.79h1.91a2.85,2.85,0,0,0,1.08-.19,2.28,2.28,0,0,0,.83-.57,2.65,2.65,0,0,0,.54-.91A3.76,3.76,0,0,0,173.05,66.65Z"/><path class="cls-2" d="M181.71,69.93h-.37a.18.18,0,0,1-.1,0,.22.22,0,0,1-.07-.09l-.77-1.9h-3.22l-.77,1.9a.24.24,0,0,1-.06.09.25.25,0,0,1-.12,0h-.36l2.68-6.56H179Zm-4.39-2.39h2.94l-1.34-3.31a1.89,1.89,0,0,1-.06-.18,1,1,0,0,1-.07-.21q0,.12-.06.21c0,.07,0,.13-.07.19Z"/><path class="cls-2" d="M188.35,63.37v.4h-2.3v6.16h-.48V63.77h-2.31v-.4Z"/><path class="cls-2" d="M196.63,66.65A4,4,0,0,1,196.4,68a3,3,0,0,1-.64,1.06,2.87,2.87,0,0,1-1,.68,3.45,3.45,0,0,1-2.53,0,2.78,2.78,0,0,1-1-.68,2.89,2.89,0,0,1-.64-1.06,4.23,4.23,0,0,1,0-2.75,2.94,2.94,0,0,1,.64-1,2.66,2.66,0,0,1,1-.68,3.22,3.22,0,0,1,1.26-.24,3.42,3.42,0,0,1,1.27.23,2.87,2.87,0,0,1,1,.68,3.23,3.23,0,0,1,.64,1.06A4,4,0,0,1,196.63,66.65Zm-.49,0a4,4,0,0,0-.19-1.24,2.7,2.7,0,0,0-.54-.92,2.19,2.19,0,0,0-.83-.58,2.74,2.74,0,0,0-1.08-.21,2.65,2.65,0,0,0-1.07.21,2.19,2.19,0,0,0-.83.58,2.41,2.41,0,0,0-.54.92,3.71,3.71,0,0,0-.2,1.24,3.6,3.6,0,0,0,.2,1.23,2.41,2.41,0,0,0,.54.92,2.19,2.19,0,0,0,.83.58,2.65,2.65,0,0,0,1.07.2,2.73,2.73,0,0,0,1.08-.2,2.19,2.19,0,0,0,.83-.58,2.7,2.7,0,0,0,.54-.92A3.87,3.87,0,0,0,196.14,66.65Z"/><path class="cls-2" d="M203.2,64.17a.14.14,0,0,1-.12.08.26.26,0,0,1-.16-.09,1.6,1.6,0,0,0-.26-.19,2.14,2.14,0,0,0-.4-.19,1.82,1.82,0,0,0-.61-.09,1.77,1.77,0,0,0-.63.1,1.28,1.28,0,0,0-.45.28,1.15,1.15,0,0,0-.28.41,1.29,1.29,0,0,0-.1.48,1,1,0,0,0,.15.56,1.3,1.3,0,0,0,.37.37,2.37,2.37,0,0,0,.53.25l.6.21.61.22a2.65,2.65,0,0,1,.52.31,1.53,1.53,0,0,1,.38.46,1.48,1.48,0,0,1,.14.67,2.21,2.21,0,0,1-.14.78,1.91,1.91,0,0,1-.41.63,1.87,1.87,0,0,1-.66.42,2.28,2.28,0,0,1-.89.16,2.43,2.43,0,0,1-1.94-.86l.13-.2a.16.16,0,0,1,.13-.07.21.21,0,0,1,.11,0l.16.14a2.38,2.38,0,0,0,.22.18,2.14,2.14,0,0,0,.3.17,2.14,2.14,0,0,0,.9.2,1.94,1.94,0,0,0,.7-.12,1.64,1.64,0,0,0,.51-.32,1.37,1.37,0,0,0,.33-.49,1.64,1.64,0,0,0,.11-.6,1.09,1.09,0,0,0-.14-.57,1.25,1.25,0,0,0-.38-.38,2.51,2.51,0,0,0-.52-.25l-.61-.2a3.89,3.89,0,0,1-.6-.22,2.09,2.09,0,0,1-.53-.3,1.43,1.43,0,0,1-.37-.47,1.48,1.48,0,0,1-.15-.7,1.78,1.78,0,0,1,.13-.64,1.63,1.63,0,0,1,.37-.54,1.85,1.85,0,0,1,.59-.37,2.09,2.09,0,0,1,.81-.14,2.43,2.43,0,0,1,.92.16,2.22,2.22,0,0,1,.74.49Z"/></g></g></svg>